**ABCDEFGHIJKLMNOPQRSTUVWXYZabcdefghijklmnopqrstuvwxyz**************************
**PARASOLID !"#$%&'()*+,-./:;<=>?@[\]^_`{|}~0123456789**************************
**PART1;MC=sun;MC_MODEL=sun3;MC_ID=cosmos;OS=SunOS;OS_RELEASE=4.1;FRU=sdl_paraso
lid_test_sun;APPL=unknown;SITE=sdl-cambridge-u.k.;USER=kramer;FORMAT=text;GUISE=
transmit;KEY=cylinder_cutoff;FILE=cylinder_cutoff.xmt_txt;DATE=4-dec-1991;
**PART2;SCH=SCH_301017_3000;USFLD_SIZE=0;
**PART3;
**END_OF_HEADER*****************************************************************
T50 : TRANSMIT FILE created by modeller version 30101715 SCH_301017_30000 12 1 9
4 0 0 0 0 0 1e3 1e-8 2 2 0 0 0 1 3 102 15 2 cylinder_cutoff13 3 2 0 1 0 4 5 0 6
 7 0 14 4 38 0 8 0 9 3 6 -16 5 19 0 10 0 11 7 50 6 70 0 4 12 0 0 +0 0 4 -.707106
781186548 0 -.707106781186548 -.707106781186548 0 .707106781186548 32 7 21 0 5 1
3 0 0 -0 0 4 -.707106781186548 0 -.707106781186548 -.707106781186548 0 .70710678
1186548 2.82842712474619 2 31 13 7 0 11 0 7 0 +0 0 0 0 0 1 1 0 0 2 16 11 3 0 14
 5 0 13 17 14 15 14 14 0 16 11 15 15 4 0 14 17 0 17 16 18 16 16 0 14 11 15 18 5
 0 16 8 0 14 8 6 0 17 4 18 3 19 +14 17 1 0 0 8 20 3 12 +50 19 8 0 8 0 12 0 +0 0
 0 0 0 -1 -1 0 0 51 12 15 0 17 19 6 0 +0 0 0 0 0 1 2 1 0 0 15 20 23 0 21 17 15 1
7 21 20 21 21 0 10 5 17 10 9 10 10 0 21 5 15 9 39 0 10 4 0 1 0 
