600 0 2 0           
34 FBMach with ACIS3D/Toolkit - 6.0.3 13 ACIS 6.0.3 NT 24 Mon Apr 16 11:11:05 2001 
1 9.9999999999999995e-007 1e-010 
body $2 $3 $-1 $4 #
bdycol-kcp $-1 1 5 $5 $6 $7 $8 $9 #
model_id-kcp-attrib $-1 $-1 $-1 $0 1 987433853 125 528285697 1 #
lump $-1 $-1 $10 $0 #
transform $-1 1.0000000000000002 0 0 0 1 0 0 0 1.0000000000000002 2.8421709430404007e-014 0 -2.8421709430404007e-014 1 rotate no_reflect no_shear #
body $11 $12 $-1 $13 #
body $14 $15 $-1 $16 #
body $17 $18 $-1 $19 #
body $20 $21 $-1 $22 #
body $23 $24 $-1 $25 #
shell $-1 $-1 $-1 $26 $-1 $3 #
model_id-kcp-attrib $-1 $-1 $-1 $5 1 987433853 140 529268738 1 #
lump $-1 $-1 $27 $5 #
transform $-1 1 0 0 0 1 0 0 0 1 0 0 19.685039370078755 1 no_rotate no_reflect no_shear #
rgb_color-st-attrib $-1 $28 $-1 $6 0.5 1 1 #
lump $-1 $-1 $29 $6 #
transform $-1 1 0 0 0 1 0 0 0 1 0 0 19.685039370078755 1 no_rotate no_reflect no_shear #
rgb_color-st-attrib $-1 $30 $-1 $7 0.5 0.5 1 #
lump $-1 $-1 $31 $7 #
transform $-1 1 0 0 0 1 0 0 0 1 0 0 19.685039370078755 1 no_rotate no_reflect no_shear #
rgb_color-st-attrib $-1 $32 $-1 $8 0.5 0.5 1 #
lump $-1 $-1 $33 $8 #
transform $-1 1 0 0 0 1 0 0 0 1 0 0 19.685039370078755 1 no_rotate no_reflect no_shear #
rgb_color-st-attrib $-1 $34 $-1 $9 0.5 0.5 1 #
lump $-1 $-1 $35 $9 #
transform $-1 1 0 0 0 1 0 0 0 1 0 0 19.685039370078755 1 no_rotate no_reflect no_shear #
face $36 $37 $38 $10 $-1 $39 reversed single #
shell $-1 $-1 $-1 $40 $-1 $12 #
model_id-kcp-attrib $-1 $-1 $14 $6 1 987433853 10437 533004291 1 #
shell $-1 $-1 $-1 $41 $-1 $15 #
model_id-kcp-attrib $-1 $-1 $17 $7 1 987433853 11828 523501572 1 #
shell $-1 $-1 $-1 $42 $-1 $18 #
model_id-kcp-attrib $-1 $-1 $20 $8 1 987433853 12140 527171589 1 #
shell $-1 $-1 $-1 $43 $-1 $21 #
model_id-kcp-attrib $-1 $-1 $23 $9 1 987433853 12468 531890182 1 #
shell $-1 $-1 $-1 $44 $-1 $24 #
model_id-kcp-attrib $-1 $-1 $-1 $26 1 987433853 125 528285697 2 #
face $45 $46 $47 $10 $-1 $48 forward single #
loop $-1 $-1 $49 $26 #
sphere-surface $-1 0 0 275.590551181102 39.370078740157503 1 0 0 0 0 1 forward_v I I I I #
face $-1 $50 $51 $27 $-1 $52 forward single #
face $-1 $53 $54 $29 $-1 $55 reversed single #
face $-1 $56 $57 $31 $-1 $58 reversed single #
face $-1 $59 $60 $33 $-1 $61 reversed single #
face $-1 $62 $63 $35 $-1 $64 reversed single #
model_id-kcp-attrib $-1 $-1 $-1 $37 1 987433853 125 528285697 3 #
face $65 $66 $67 $10 $-1 $68 reversed single #
loop $-1 $69 $70 $37 #
plane-surface $-1 0 0 275.590551181102 0 0 1 1 0 0 forward_v I I I I #
coedge $-1 $49 $49 $71 $72 forward $38 $-1 #
face $-1 $73 $74 $27 $-1 $75 reversed single #
loop $-1 $-1 $76 $40 #
plane-surface $-1 0 0 295.27559055118076 0 0 1 1 0 0 forward_v I I I I #
face $-1 $77 $78 $29 $-1 $55 reversed single #
loop $-1 $-1 $79 $41 #
cone-surface $-1 1.1368683772161603e-013 -2.8421709430404007e-013 255.90551181102325 0 0 1 196.8503937007869 245.86606292907132 0 1 I I 0 1 314.96062992125991 forward I I I I #
face $-1 $80 $81 $31 $-1 $82 forward single #
loop $-1 $-1 $83 $42 #
plane-surface $-1 0 0 255.90551181102319 0 0 1 1 0 0 forward_v I I I I #
face $-1 $84 $85 $33 $-1 $86 forward single #
loop $-1 $-1 $87 $43 #
plane-surface $-1 -255.90551181102308 4.2632564145606011e-014 196.85039370078709 -0.70710678118654757 0 0.70710678118654757 0 -1 0 forward_v I I I I #
face $-1 $88 $89 $35 $-1 $90 forward single #
loop $-1 $-1 $91 $44 #
plane-surface $-1 255.90551181102308 -4.2632564145606011e-014 196.85039370078709 0.70710678118654757 0 0.70710678118654757 0 1 0 forward_v I I I I #
model_id-kcp-attrib $-1 $-1 $-1 $46 1 987433853 125 528285697 4 #
face $92 $93 $94 $10 $-1 $95 reversed single #
loop $-1 $-1 $96 $46 #
plane-surface $-1 -196.85039370078701 0 275.590551181102 0.70710678118654757 0 -0.70710678118654757 -0.70710678118654802 0 -0.70710678118654802 forward_v I I I I #
loop $-1 $-1 $97 $37 #
coedge $-1 $70 $70 $98 $99 reversed $47 $-1 #
coedge $-1 $71 $71 $49 $72 reversed $100 $-1 #
edge $101 $102 0 $102 6.2831853071795862 $49 $103 forward 7 unknown #
face $-1 $104 $105 $27 $-1 $106 reversed single #
loop $-1 $-1 $107 $50 #
plane-surface $-1 0 0 -295.27559055118076 0 0 1 1 0 0 forward_v I I I I #
coedge $-1 $108 $109 $110 $111 forward $51 $-1 #
face $-1 $112 $113 $29 $-1 $55 reversed single #
loop $-1 $-1 $114 $53 #
coedge $-1 $115 $116 $117 $118 reversed $54 $-1 #
face $-1 $-1 $119 $31 $-1 $120 forward single #
loop $-1 $121 $122 $56 #
cone-surface $-1 1.1368683772161603e-013 -2.8421709430404007e-013 255.90551181102325 0 0 1 196.8503937007869 245.86606292907132 0 1 I I 0 1 314.96062992125991 forward I I I I #
coedge $-1 $83 $83 $123 $124 forward $57 $-1 #
face $-1 $-1 $125 $33 $-1 $126 forward single #
loop $-1 $-1 $127 $59 #
cone-surface $-1 1.1368683772161603e-013 -2.8421709430404007e-013 255.90551181102325 0 0 1 196.8503937007869 245.86606292907132 0 1 I I 0 1 314.96062992125991 forward I I I I #
coedge $-1 $128 $128 $127 $129 forward $60 $-1 #
face $-1 $-1 $130 $35 $-1 $131 forward single #
loop $-1 $-1 $132 $62 #
cone-surface $-1 1.1368683772161603e-013 -2.8421709430404007e-013 255.90551181102325 0 0 1 196.8503937007869 245.86606292907132 0 1 I I 0 1 314.96062992125991 forward I I I I #
coedge $-1 $133 $133 $132 $134 forward $63 $-1 #
model_id-kcp-attrib $-1 $-1 $-1 $66 1 987433853 125 528285697 5 #
face $135 $136 $137 $10 $-1 $138 forward single #
loop $-1 $-1 $139 $66 #
plane-surface $-1 196.85039370078701 0 275.590551181102 -0.70710678118654757 0 -0.70710678118654757 -0.70710678118654802 0 0.70710678118654802 forward_v I I I I #
coedge $-1 $140 $140 $97 $141 forward $67 $-1 #
coedge $-1 $142 $143 $96 $141 reversed $69 $-1 #
coedge $-1 $98 $98 $70 $99 forward $144 $-1 #
edge $145 $146 0 $146 6.2831853071795862 $70 $147 forward 7 unknown #
loop $-1 $148 $71 $149 #
attrib_edge_convexity-kcp-attrib $-1 $150 $-1 $72 1 #
vertex $-1 $72 $151 #
ellipse-curve $-1 0 0 275.590551181102 0 0 1 39.370078740157503 0 0 1 I I #
face $-1 $152 $153 $27 $-1 $154 reversed single #
loop $-1 $-1 $155 $73 #
plane-surface $-1 0 -314.96062992126002 0 0 1 0 0 0 1 forward_v I I I I #
coedge $-1 $156 $157 $158 $159 forward $74 $-1 #
coedge $-1 $160 $76 $161 $162 forward $51 $-1 #
coedge $-1 $76 $160 $163 $164 forward $51 $-1 #
coedge $-1 $165 $166 $76 $111 reversed $167 $-1 #
edge $-1 $168 -314.96062992126002 $169 314.96062992126002 $110 $170 forward 7 unknown #
face $-1 $171 $172 $29 $-1 $55 reversed single #
loop $-1 $-1 $173 $77 #
coedge $-1 $174 $175 $176 $177 reversed $78 $-1 #
coedge $-1 $178 $79 $179 $180 reversed $54 $-1 #
coedge $-1 $79 $178 $181 $182 reversed $54 $-1 #
coedge $-1 $183 $184 $185 $118 forward $186 $-1 #
edge $-1 $187 -551.181102362204 $188 39.37007874015751 $117 $189 forward 7 unknown #
loop $-1 $-1 $190 $80 #
plane-surface $-1 0 0 295.27559055118076 0 0 1 1 0 0 forward_v I I I I #
loop $-1 $-1 $123 $56 #
coedge $-1 $122 $122 $190 $191 reversed $81 $-1 #
coedge $-1 $123 $123 $83 $124 reversed $121 $-1 #
edge $192 $193 -3.1415926535897931 $193 3.1415926535897931 $123 $194 forward 7 unknown #
loop $-1 $-1 $195 $84 #
plane-surface $-1 0 0 295.27559055118076 0 0 1 1 0 0 forward_v I I I I #
coedge $-1 $196 $196 $87 $129 reversed $85 $-1 #
coedge $-1 $87 $87 $195 $197 forward $60 $-1 #
edge $198 $199 2.0943951023931939 $200 4.1887902047863923 $127 $201 forward 7 unknown #
loop $-1 $-1 $202 $88 #
plane-surface $-1 0 0 295.27559055118076 0 0 1 1 0 0 forward_v I I I I #
coedge $-1 $203 $203 $91 $134 reversed $89 $-1 #
coedge $-1 $91 $91 $202 $204 forward $63 $-1 #
edge $205 $206 -1.0471975511966003 $207 1.0471975511966001 $132 $208 forward 7 unknown #
model_id-kcp-attrib $-1 $-1 $-1 $93 1 987433853 125 528285697 6 #
face $209 $149 $210 $10 $-1 $211 forward single #
loop $-1 $212 $213 $93 #
cone-surface $-1 0 0 142.919126485616 0 0 -1 478.29677447624999 0 0 1 I I -0.75257669470687805 0.65850460786851694 478.29677447624999 forward I I I I #
coedge $-1 $214 $214 $215 $216 forward $94 $-1 #
coedge $-1 $96 $96 $217 $218 forward $67 $-1 #
edge $219 $220 -245.86606292907101 $221 245.86606292907101 $97 $222 forward 7 unknown #
coedge $-1 $215 $97 $223 $224 reversed $69 $-1 #
coedge $-1 $97 $215 $225 $226 reversed $69 $-1 #
loop $-1 $227 $98 $228 #
attrib_edge_convexity-kcp-attrib $-1 $229 $-1 $99 1 #
vertex $-1 $99 $230 #
ellipse-curve $-1 0 0 275.590551181102 0 0 1 177.16535433070899 0 0 1 I I #
loop $-1 $-1 $231 $149 #
face $232 $228 $100 $10 $-1 $233 forward single #
convexity-sys-attrib $-1 $-1 $101 $72 #
point $-1 39.370078740157503 0 275.590551181102 #
face $-1 $234 $235 $27 $-1 $236 reversed single #
loop $-1 $-1 $237 $104 #
plane-surface $-1 -314.96062992126002 0 0 1 0 0 0 0 -1 forward_v I I I I #
coedge $-1 $238 $163 $239 $240 forward $105 $-1 #
coedge $-1 $241 $107 $238 $242 forward $74 $-1 #
coedge $-1 $107 $241 $243 $244 forward $74 $-1 #
coedge $-1 $166 $165 $107 $159 reversed $167 $-1 #
edge $-1 $245 -314.96062992126002 $246 314.96062992126002 $158 $247 forward 7 unknown #
coedge $-1 $109 $108 $248 $249 forward $51 $-1 #
coedge $-1 $250 $251 $108 $162 reversed $235 $-1 #
edge $-1 $169 -314.96062992126002 $252 314.96062992126002 $161 $253 forward 7 unknown #
coedge $-1 $155 $254 $109 $164 reversed $105 $-1 #
edge $-1 $255 -314.96062992126002 $168 314.96062992126002 $163 $256 forward 7 unknown #
coedge $-1 $158 $110 $254 $257 forward $167 $-1 #
coedge $-1 $110 $158 $250 $258 reversed $167 $-1 #
loop $-1 $-1 $165 $234 #
vertex $-1 $111 $259 #
vertex $-1 $111 $260 #
straight-curve $-1 314.96062992126002 0 295.27559055118076 0 1 0 I I #
face $-1 $261 $262 $29 $-1 $263 reversed single #
loop $-1 $-1 $264 $112 #
coedge $-1 $265 $266 $267 $268 reversed $113 $-1 #
coedge $-1 $269 $114 $270 $271 reversed $78 $-1 #
coedge $-1 $114 $269 $79 $118 forward $78 $-1 #
coedge $-1 $272 $273 $114 $177 forward $274 $-1 #
edge $-1 $275 2.466461120652764 $188 4.0372574474476597 $176 $276 forward 7 unknown #
coedge $-1 $116 $115 $266 $277 forward $54 $-1 #
coedge $-1 $278 $279 $115 $180 forward $280 $-1 #
edge $-1 $281 0.67513153293702932 $187 2.2459278597319261 $179 $282 forward 7 unknown #
coedge $-1 $283 $284 $116 $182 forward $285 $-1 #
edge $-1 $188 -2.2459278597319261 $286 -0.67513153293702932 $181 $276 forward 7 unknown #
coedge $-1 $287 $117 $284 $288 reversed $186 $-1 #
coedge $-1 $117 $287 $278 $289 reversed $186 $-1 #
coedge $-1 $290 $291 $175 $118 reversed $292 $-1 #
loop $-1 $-1 $117 $293 #
vertex $-1 $289 $294 #
vertex $-1 $295 $296 #
straight-curve $-1 -314.96062992126002 -2.8421709430404007e-013 255.90551181102325 0 0 1 I I #
coedge $-1 $190 $190 $122 $191 forward $119 $-1 #
edge $-1 $297 -0.89566479385786735 $297 5.3875205133217188 $190 $298 forward 7 unknown #
convexity-sys-attrib $-1 $-1 $-1 $124 #
vertex $-1 $124 $299 #
ellipse-curve $-1 1.1368683772161603e-013 -2.8421709430404007e-013 255.90551181102319 0 0 -1 196.8503937007869 245.86606292907132 0 1 I I #
coedge $-1 $300 $300 $128 $197 reversed $125 $-1 #
coedge $-1 $127 $127 $300 $301 reversed $85 $-1 #
edge $302 $200 -272.7639067037602 $199 272.76390670376077 $195 $303 forward 7 unknown #
convexity-sys-attrib $-1 $-1 $-1 $129 #
vertex $-1 $129 $304 #
vertex $-1 $301 $305 #
ellipse-curve $-1 1.1368683772161603e-013 -2.8421709430404007e-013 452.75590551181028 0.70710678118654757 0 -0.70710678118654757 314.96062992125991 -2.8421709430404007e-014 314.96062992125991 0.70710678118654746 I I #
coedge $-1 $306 $306 $133 $204 reversed $130 $-1 #
coedge $-1 $132 $132 $306 $307 reversed $89 $-1 #
edge $308 $207 -272.76390670376088 $206 272.76390670376031 $202 $309 forward 7 unknown #
convexity-sys-attrib $-1 $-1 $-1 $134 #
vertex $-1 $134 $310 #
vertex $-1 $307 $311 #
ellipse-curve $-1 1.1368683772161603e-013 -2.8421709430404007e-013 452.75590551181006 -0.70710678118654757 0 -0.70710678118654757 314.96062992125991 -2.8421709430404007e-014 -314.96062992125991 0.70710678118654746 I I #
model_id-kcp-attrib $-1 $-1 $-1 $136 1 987433853 125 528285697 7 #
loop $-1 $312 $217 $136 #
cone-surface $-1 0 0 0 0 0 1 314.96062992126002 0 0 1 I I 0 1 314.96062992126002 forward I I I I #
loop $-1 $-1 $313 $93 #
coedge $-1 $213 $213 $314 $315 reversed $137 $-1 #
coedge $-1 $139 $139 $316 $317 forward $94 $-1 #
coedge $-1 $143 $142 $139 $216 reversed $69 $-1 #
edge $318 $319 -245.86606292907101 $320 245.86606292907101 $215 $321 forward 7 unknown #
coedge $-1 $225 $223 $140 $218 reversed $210 $-1 #
edge $322 $221 2.2459278597319283 $220 4.0372574474476579 $140 $323 forward 7 unknown #
attrib_edge_convexity-kcp-attrib $-1 $324 $-1 $141 1 #
vertex $-1 $141 $325 #
vertex $-1 $141 $326 #
straight-curve $-1 -196.85039370078701 0 275.590551181102 0 1 0 I I #
coedge $-1 $217 $316 $142 $224 forward $210 $-1 #
edge $327 $320 -0.67513153293703032 $220 0.67513153293703021 $142 $328 forward 7 unknown #
coedge $-1 $316 $217 $143 $226 forward $210 $-1 #
edge $329 $221 -0.67513153293703021 $319 0.67513153293703032 $143 $330 forward 7 unknown #
loop $-1 $-1 $331 $228 #
face $332 $-1 $144 $10 $-1 $333 reversed single #
convexity-sys-attrib $-1 $-1 $145 $99 #
point $-1 177.16535433070899 0 275.590551181102 #
coedge $-1 $231 $231 $331 $334 reversed $148 $-1 #
model_id-kcp-attrib $-1 $-1 $-1 $149 1 987433853 125 528285697 8 #
plane-surface $-1 0 0 275.590551181102 0 0 1 1 0 0 forward_v I I I I #
face $-1 $-1 $167 $27 $-1 $335 reversed single #
loop $-1 $-1 $250 $152 #
plane-surface $-1 0 314.96062992126002 0 0 -1 0 0 0 -1 forward_v I I I I #
coedge $-1 $336 $248 $251 $337 forward $153 $-1 #
coedge $-1 $254 $155 $156 $242 reversed $105 $-1 #
coedge $-1 $248 $336 $155 $240 reversed $153 $-1 #
edge $-1 $255 -295.27559055118076 $338 295.27559055118076 $239 $339 forward 7 unknown #
coedge $-1 $157 $156 $336 $340 forward $74 $-1 #
edge $-1 $246 -314.96062992126002 $338 314.96062992126002 $238 $341 forward 7 unknown #
coedge $-1 $251 $250 $157 $244 reversed $235 $-1 #
edge $-1 $342 -314.96062992126002 $245 314.96062992126002 $243 $343 forward 7 unknown #
vertex $-1 $159 $344 #
vertex $-1 $257 $345 #
straight-curve $-1 314.96062992126002 0 -295.27559055118076 0 -1 0 I I #
coedge $-1 $237 $239 $160 $249 reversed $153 $-1 #
edge $-1 $252 -314.96062992126002 $255 314.96062992126002 $248 $346 forward 7 unknown #
coedge $-1 $243 $161 $166 $258 forward $235 $-1 #
coedge $-1 $161 $243 $237 $337 reversed $235 $-1 #
vertex $-1 $162 $347 #
straight-curve $-1 0 314.96062992126002 295.27559055118076 -1 0 0 I I #
coedge $-1 $163 $238 $165 $257 reversed $105 $-1 #
vertex $-1 $249 $348 #
straight-curve $-1 0 -314.96062992126002 295.27559055118076 1 0 0 I I #
edge $-1 $168 -295.27559055118076 $246 295.27559055118076 $165 $349 forward 7 unknown #
edge $-1 $169 -295.27559055118076 $245 295.27559055118076 $166 $350 forward 7 unknown #
point $-1 314.96062992126002 -314.96062992126002 295.27559055118076 #
point $-1 314.96062992126002 314.96062992126002 295.27559055118076 #
face $-1 $351 $292 $29 $-1 $352 reversed single #
loop $-1 $-1 $353 $171 #
plane-surface $-1 0 314.96062992126002 0 0 -1 0 0 0 -1 forward_v I I I I #
coedge $-1 $354 $355 $356 $357 reversed $172 $-1 #
coedge $-1 $358 $173 $355 $359 forward $113 $-1 #
coedge $-1 $173 $358 $360 $277 reversed $113 $-1 #
coedge $-1 $361 $362 $173 $268 forward $363 $-1 #
edge $-1 $364 -0.89566479385786735 $281 0.67513153293702932 $267 $282 forward 7 unknown #
coedge $-1 $175 $174 $365 $366 reversed $78 $-1 #
coedge $-1 $367 $368 $369 $271 forward $370 $-1 #
edge $-1 $371 -551.181102362204 $275 39.37007874015751 $270 $372 forward 7 unknown #
coedge $-1 $273 $176 $291 $295 forward $274 $-1 #
coedge $-1 $176 $272 $367 $373 forward $274 $-1 #
loop $-1 $-1 $176 $374 #
vertex $-1 $375 $376 #
ellipse-curve $-1 1.1368683772161603e-013 -2.8421709430404007e-013 295.27559055118076 0 0 -1 196.8503937007869 245.86606292907132 0 1 I I #
edge $-1 $281 -551.181102362204 $286 39.37007874015751 $360 $377 forward 7 unknown #
coedge $-1 $279 $179 $184 $289 forward $280 $-1 #
coedge $-1 $179 $278 $378 $379 forward $280 $-1 #
loop $-1 $-1 $179 $380 #
vertex $-1 $381 $382 #
ellipse-curve $-1 1.1368683772161603e-013 -2.8421709430404007e-013 -295.27559055118076 0 0 1 196.8503937007869 245.86606292907132 0 1 I I #
coedge $-1 $284 $181 $383 $384 forward $285 $-1 #
coedge $-1 $181 $283 $183 $288 forward $285 $-1 #
loop $-1 $-1 $181 $385 #
vertex $-1 $384 $386 #
coedge $-1 $184 $183 $387 $388 forward $186 $-1 #
edge $-1 $389 -314.96062992126002 $188 2.8421709430404007e-013 $183 $390 forward 7 unknown #
edge $-1 $187 -2.8421709430404007e-013 $391 314.96062992126002 $184 $392 forward 7 unknown #
coedge $-1 $393 $185 $394 $395 reversed $292 $-1 #
coedge $-1 $185 $393 $272 $295 reversed $292 $-1 #
loop $-1 $-1 $185 $261 #
face $-1 $396 $186 $29 $-1 $352 reversed single #
point $-1 -314.96062992126002 -2.8421709430404007e-013 -295.27559055118076 #
edge $-1 $188 2.8421709430404007e-013 $397 314.96062992126002 $291 $390 forward 7 unknown #
point $-1 -314.96062992126002 -2.8421709430404007e-013 295.27559055118076 #
vertex $-1 $191 $398 #
ellipse-curve $-1 1.1368683772161603e-013 -2.8421709430404007e-013 295.27559055118076 0 0 1 196.8503937007869 245.86606292907132 0 1 I I #
point $-1 -196.85039370078681 -245.86606292907157 255.90551181102319 #
coedge $-1 $195 $195 $196 $301 forward $125 $-1 #
edge $-1 $200 1.1987303085353267 $199 3.2931254109285248 $300 $399 forward 7 unknown #
convexity-sys-attrib $-1 $-1 $-1 $197 #
straight-curve $-1 -157.48031496062944 2.1316282072803006e-014 295.27559055118076 0 -1 0 I I #
point $-1 -157.48031496062941 -272.76390670376077 295.27559055118076 #
point $-1 -157.48031496062941 272.7639067037602 295.27559055118076 #
coedge $-1 $202 $202 $203 $307 forward $130 $-1 #
edge $-1 $207 -1.9428623450544673 $206 0.15153275733873275 $306 $400 forward 7 unknown #
convexity-sys-attrib $-1 $-1 $-1 $204 #
straight-curve $-1 157.48031496062944 -2.1316282072803006e-014 295.27559055118076 0 1 0 I I #
point $-1 157.48031496062941 272.76390670376031 295.27559055118076 #
point $-1 157.48031496062941 -272.76390670376088 295.27559055118076 #
loop $-1 $-1 $314 $136 #
coedge $-1 $313 $313 $-1 $401 forward $212 $-1 #
coedge $-1 $314 $314 $213 $315 forward $312 $-1 #
edge $-1 $402 0 $402 6.2831853071795862 $213 $403 forward 7 unknown #
coedge $-1 $223 $225 $214 $317 reversed $210 $-1 #
edge $404 $320 2.2459278597319283 $319 4.0372574474476579 $214 $405 forward 7 unknown #
attrib_edge_convexity-kcp-attrib $-1 $406 $-1 $216 1 #
vertex $-1 $216 $407 #
vertex $-1 $224 $408 #
straight-curve $-1 196.85039370078701 0 275.590551181102 0 -1 0 I I #
attrib_edge_convexity-kcp-attrib $-1 $409 $-1 $218 1 #
ellipse-curve $-1 0 0 472.44094488189 -0.70710678118654757 0 0.70710678118654757 314.96062992126002 0 314.96062992126002 0.70710678118654802 I I #
convexity-sys-attrib $-1 $-1 $219 $141 #
point $-1 -196.85039370078701 -245.86606292907101 275.590551181102 #
point $-1 -196.85039370078701 245.86606292907101 275.590551181102 #
attrib_edge_convexity-kcp-attrib $-1 $410 $-1 $224 1 #
ellipse-curve $-1 0 0 275.590551181102 0 0 -1 -1.92857763645253e-014 -314.96062992126002 0 1 I I #
attrib_edge_convexity-kcp-attrib $-1 $411 $-1 $226 1 #
ellipse-curve $-1 0 0 275.590551181102 0 0 -1 -1.92857763645253e-014 314.96062992126002 0 1 I I #
coedge $-1 $331 $331 $231 $334 forward $227 $-1 #
model_id-kcp-attrib $-1 $-1 $-1 $228 1 987433853 125 528285697 9 #
torus-surface $-1 0 0 275.590551181102 0 0 1 137.795275590551 39.370078740157503 1 0 0 forward_v I I I I #
edge $412 $413 0 $413 6.2831853071795862 $231 $414 forward 7 unknown #
plane-surface $-1 314.96062992126002 0 0 -1 0 0 0 0 1 forward_v I I I I #
coedge $-1 $239 $237 $241 $340 reversed $153 $-1 #
edge $-1 $252 -295.27559055118076 $342 295.27559055118076 $251 $415 forward 7 unknown #
vertex $-1 $340 $416 #
straight-curve $-1 -314.96062992126002 -314.96062992126002 0 0 0 -1 I I #
edge $-1 $338 -314.96062992126002 $342 314.96062992126002 $336 $417 forward 7 unknown #
straight-curve $-1 0 -314.96062992126002 -295.27559055118076 -1 0 0 I I #
vertex $-1 $244 $418 #
straight-curve $-1 0 314.96062992126002 -295.27559055118076 1 0 0 I I #
point $-1 314.96062992126002 314.96062992126002 -295.27559055118076 #
point $-1 314.96062992126002 -314.96062992126002 -295.27559055118076 #
straight-curve $-1 -314.96062992126002 0 295.27559055118076 0 -1 0 I I #
point $-1 -314.96062992126002 314.96062992126002 295.27559055118076 #
point $-1 -314.96062992126002 -314.96062992126002 295.27559055118076 #
straight-curve $-1 314.96062992126002 -314.96062992126002 0 0 0 -1 I I #
straight-curve $-1 314.96062992126002 314.96062992126002 0 0 0 -1 I I #
face $-1 $419 $420 $29 $-1 $421 reversed single #
plane-surface $-1 -314.96062992126002 0 0 1 0 0 0 0 -1 forward_v I I I I #
coedge $-1 $378 $383 $178 $277 reversed $262 $-1 #
coedge $-1 $422 $264 $174 $271 forward $172 $-1 #
coedge $-1 $264 $422 $423 $359 reversed $172 $-1 #
coedge $-1 $424 $425 $264 $357 forward $426 $-1 #
edge $-1 $371 -2.466461120652764 $364 -0.89566479385786735 $356 $282 forward 7 unknown #
coedge $-1 $266 $265 $427 $428 reversed $113 $-1 #
edge $-1 $364 -551.181102362204 $429 39.37007874015751 $423 $430 forward 7 unknown #
coedge $-1 $431 $432 $353 $277 forward $433 $-1 #
coedge $-1 $362 $267 $432 $381 forward $363 $-1 #
coedge $-1 $267 $361 $434 $435 forward $363 $-1 #
loop $-1 $-1 $267 $436 #
vertex $-1 $437 $438 #
coedge $-1 $439 $394 $269 $366 forward $440 $-1 #
edge $-1 $187 2.2459278597319261 $371 3.8167241865268222 $365 $282 forward 7 unknown #
coedge $-1 $441 $270 $273 $373 reversed $370 $-1 #
coedge $-1 $270 $441 $439 $442 reversed $370 $-1 #
coedge $-1 $443 $444 $354 $271 reversed $420 $-1 #
loop $-1 $-1 $270 $445 #
vertex $-1 $442 $446 #
straight-curve $-1 1.1368683772161603e-013 -314.96062992126002 255.90551181102325 0 0 1 I I #
edge $-1 $397 -314.96062992126002 $275 1.1368683772161603e-013 $367 $447 forward 7 unknown #
face $-1 $385 $274 $29 $-1 $448 forward single #
edge $-1 $275 1.1368683772161603e-013 $449 314.96062992126002 $444 $447 forward 7 unknown #
point $-1 1.1368683772161603e-013 -314.96062992126002 295.27559055118076 #
straight-curve $-1 1.1368683772161603e-013 314.96062992126002 255.90551181102325 0 0 1 I I #
coedge $-1 $387 $353 $279 $379 reversed $262 $-1 #
edge $-1 $391 -314.96062992126002 $281 1.1368683772161603e-013 $378 $450 forward 7 unknown #
face $-1 $451 $280 $29 $-1 $452 reversed single #
edge $-1 $281 1.1368683772161603e-013 $453 314.96062992126002 $432 $450 forward 7 unknown #
point $-1 1.1368683772161603e-013 314.96062992126002 -295.27559055118076 #
coedge $-1 $353 $387 $283 $384 reversed $262 $-1 #
edge $-1 $286 -1.1368683772161603e-013 $389 314.96062992126002 $383 $454 forward 7 unknown #
face $-1 $455 $285 $29 $-1 $448 forward single #
point $-1 1.1368683772161603e-013 314.96062992126002 295.27559055118076 #
coedge $-1 $383 $378 $287 $388 reversed $262 $-1 #
edge $-1 $389 -295.27559055118076 $391 295.27559055118076 $387 $456 forward 7 unknown #
vertex $-1 $384 $457 #
straight-curve $-1 -314.96062992126002 0 295.27559055118076 0 -1 0 I I #
vertex $-1 $379 $458 #
straight-curve $-1 -314.96062992126002 0 -295.27559055118076 0 1 0 I I #
coedge $-1 $291 $290 $441 $459 reversed $292 $-1 #
coedge $-1 $365 $439 $290 $395 forward $440 $-1 #
edge $-1 $460 -314.96062992126002 $187 -2.8421709430404007e-013 $290 $392 forward 7 unknown #
face $-1 $461 $433 $29 $-1 $263 reversed single #
vertex $-1 $295 $462 #
point $-1 314.96062992126002 -2.8421709430404007e-013 295.27559055118076 #
ellipse-curve $-1 1.1368683772161603e-013 -2.8421709430404007e-013 295.27559055118076 0 0 1 196.8503937007869 245.86606292907132 0 1 I I #
ellipse-curve $-1 1.1368683772161603e-013 -2.8421709430404007e-013 295.27559055118076 0 0 1 196.8503937007869 245.86606292907132 0 1 I I #
edge $-1 $463 1 $463 0 $313 $-1 forward 7 unknown #
vertex $-1 $315 $464 #
ellipse-curve $-1 0 0 0 0 0 1 314.96062992126002 0 0 1 I I #
attrib_edge_convexity-kcp-attrib $-1 $465 $-1 $317 1 #
ellipse-curve $-1 0 0 472.44094488189 0.70710678118654757 0 0.70710678118654757 -314.96062992126002 0 314.96062992126002 0.70710678118654802 I I #
convexity-sys-attrib $-1 $-1 $318 $216 #
point $-1 196.85039370078701 245.86606292907101 275.590551181102 #
point $-1 196.85039370078701 -245.86606292907101 275.590551181102 #
convexity-sys-attrib $-1 $-1 $322 $218 #
convexity-sys-attrib $-1 $-1 $327 $224 #
convexity-sys-attrib $-1 $-1 $329 $226 #
attrib_edge_convexity-kcp-attrib $-1 $466 $-1 $334 1 #
vertex $-1 $334 $467 #
ellipse-curve $-1 0 0 275.590551181102 0 0 -1 -98.425196850393704 0 0 1 I I #
straight-curve $-1 -314.96062992126002 314.96062992126002 0 0 0 -1 I I #
point $-1 -314.96062992126002 -314.96062992126002 -295.27559055118076 #
straight-curve $-1 -314.96062992126002 0 -295.27559055118076 0 1 0 I I #
point $-1 -314.96062992126002 314.96062992126002 -295.27559055118076 #
face $-1 $374 $468 $29 $-1 $448 forward single #
loop $-1 $-1 $369 $351 #
plane-surface $-1 0 -314.96062992126002 0 0 1 0 0 0 1 forward_v I I I I #
coedge $-1 $355 $354 $469 $470 reversed $172 $-1 #
coedge $-1 $471 $472 $473 $359 forward $474 $-1 #
coedge $-1 $425 $356 $472 $437 forward $426 $-1 #
coedge $-1 $356 $424 $443 $475 forward $426 $-1 #
loop $-1 $-1 $356 $476 #
coedge $-1 $477 $478 $358 $428 forward $479 $-1 #
edge $-1 $286 -0.67513153293702932 $429 0.89566479385786735 $427 $276 forward 7 unknown #
vertex $-1 $480 $481 #
straight-curve $-1 314.96062992126002 -2.8421709430404007e-013 255.90551181102325 0 0 1 I I #
coedge $-1 $482 $360 $478 $483 reversed $433 $-1 #
coedge $-1 $360 $482 $361 $381 reversed $433 $-1 #
loop $-1 $-1 $360 $396 #
coedge $-1 $484 $473 $362 $435 reversed $485 $-1 #
edge $-1 $453 -314.96062992126002 $364 2.8421709430404007e-013 $434 $486 forward 7 unknown #
face $-1 $380 $363 $29 $-1 $452 reversed single #
edge $-1 $364 2.8421709430404007e-013 $487 314.96062992126002 $472 $486 forward 7 unknown #
point $-1 314.96062992126002 -2.8421709430404007e-013 -295.27559055118076 #
coedge $-1 $394 $365 $368 $442 forward $440 $-1 #
loop $-1 $-1 $365 $451 #
coedge $-1 $368 $367 $393 $459 forward $370 $-1 #
edge $-1 $371 -1.1368683772161603e-013 $460 314.96062992126002 $368 $488 forward 7 unknown #
coedge $-1 $489 $369 $425 $475 reversed $420 $-1 #
coedge $-1 $369 $489 $490 $375 reversed $420 $-1 #
face $-1 $293 $370 $29 $-1 $421 reversed single #
point $-1 1.1368683772161603e-013 -314.96062992126002 -295.27559055118076 #
straight-curve $-1 0 -314.96062992126002 295.27559055118076 1 0 0 I I #
plane-surface $-1 0 0 295.27559055118076 0 0 1 1 0 0 forward_v I I I I #
vertex $-1 $491 $492 #
straight-curve $-1 0 314.96062992126002 -295.27559055118076 1 0 0 I I #
face $-1 $445 $440 $29 $-1 $452 reversed single #
plane-surface $-1 0 0 -295.27559055118076 0 0 1 1 0 0 forward_v I I I I #
vertex $-1 $435 $493 #
straight-curve $-1 0 314.96062992126002 295.27559055118076 -1 0 0 I I #
face $-1 $494 $479 $29 $-1 $448 forward single #
straight-curve $-1 -314.96062992126002 314.96062992126002 0 0 0 -1 I I #
point $-1 -314.96062992126002 314.96062992126002 295.27559055118076 #
point $-1 -314.96062992126002 314.96062992126002 -295.27559055118076 #
edge $-1 $397 -295.27559055118076 $460 295.27559055118076 $393 $495 forward 7 unknown #
vertex $-1 $395 $496 #
face $-1 $-1 $474 $29 $-1 $497 reversed single #
point $-1 -314.96062992126002 -314.96062992126002 295.27559055118076 #
vertex $-1 $401 $498 #
point $-1 314.96062992126002 0 0 #
convexity-sys-attrib $-1 $-1 $404 $317 #
convexity-sys-attrib $-1 $-1 $412 $334 #
point $-1 -98.425196850393704 0 275.590551181102 #
loop $-1 $-1 $469 $419 #
coedge $-1 $490 $499 $422 $470 forward $468 $-1 #
edge $-1 $429 0.89566479385786735 $275 2.466461120652764 $469 $276 forward 7 unknown #
coedge $-1 $500 $423 $499 $491 reversed $474 $-1 #
coedge $-1 $423 $500 $424 $437 reversed $474 $-1 #
coedge $-1 $434 $501 $265 $359 reversed $485 $-1 #
loop $-1 $-1 $423 $461 #
edge $-1 $487 -314.96062992126002 $371 -1.1368683772161603e-013 $443 $488 forward 7 unknown #
face $-1 $436 $426 $29 $-1 $452 reversed single #
coedge $-1 $478 $427 $501 $480 forward $479 $-1 #
coedge $-1 $427 $477 $431 $483 forward $479 $-1 #
loop $-1 $-1 $427 $455 #
edge $-1 $429 -2.8421709430404007e-013 $502 314.96062992126002 $501 $503 forward 7 unknown #
point $-1 314.96062992126002 -2.8421709430404007e-013 295.27559055118076 #
coedge $-1 $432 $431 $484 $504 forward $433 $-1 #
edge $-1 $502 -314.96062992126002 $286 -1.1368683772161603e-013 $431 $454 forward 7 unknown #
coedge $-1 $501 $434 $482 $504 reversed $485 $-1 #
loop $-1 $-1 $473 $494 #
straight-curve $-1 314.96062992126002 0 -295.27559055118076 0 -1 0 I I #
vertex $-1 $505 $506 #
straight-curve $-1 0 -314.96062992126002 -295.27559055118076 -1 0 0 I I #
coedge $-1 $444 $443 $500 $505 reversed $420 $-1 #
coedge $-1 $499 $469 $444 $375 forward $468 $-1 #
edge $-1 $449 -314.96062992126002 $429 -2.8421709430404007e-013 $471 $503 forward 7 unknown #
point $-1 314.96062992126002 -314.96062992126002 295.27559055118076 #
point $-1 314.96062992126002 314.96062992126002 -295.27559055118076 #
face $-1 $476 $485 $29 $-1 $497 reversed single #
straight-curve $-1 -314.96062992126002 -314.96062992126002 0 0 0 -1 I I #
point $-1 -314.96062992126002 -314.96062992126002 -295.27559055118076 #
plane-surface $-1 314.96062992126002 0 0 -1 0 0 0 0 1 forward_v I I I I #
point $-1 0 0 -275.590551181102 #
coedge $-1 $469 $490 $471 $491 forward $468 $-1 #
coedge $-1 $472 $471 $489 $505 forward $474 $-1 #
coedge $-1 $473 $484 $477 $480 reversed $485 $-1 #
vertex $-1 $480 $507 #
straight-curve $-1 314.96062992126002 0 295.27559055118076 0 1 0 I I #
edge $-1 $502 -295.27559055118076 $453 295.27559055118076 $484 $508 forward 7 unknown #
edge $-1 $449 -295.27559055118076 $487 295.27559055118076 $500 $509 forward 7 unknown #
point $-1 314.96062992126002 -314.96062992126002 -295.27559055118076 #
point $-1 314.96062992126002 314.96062992126002 295.27559055118076 #
straight-curve $-1 314.96062992126002 314.96062992126002 0 0 0 -1 I I #
straight-curve $-1 314.96062992126002 -314.96062992126002 0 0 0 -1 I I #
End-of-ACIS-data 