600 0 2 0           
24 FBMach with ACIS - 6.0.3 13 ACIS 6.0.3 NT 24 Mon Apr 01 16:42:47 2002 
1 9.9999999999999995e-007 1e-010 
body $2 $3 $-1 $4 #
bdycol-kcp $-1 1 5 $5 $6 $7 $8 $9 #
model_id-kcp-attrib $-1 $10 $-1 $0 1 1017697366 60 -1069809663 1 #
lump $-1 $-1 $11 $0 #
transform $-1 1.0000000000000002 0 0 0 1 0 0 0 1.0000000000000002 2.8421709430404007e-014 0 -2.8421709430404007e-014 1 rotate no_reflect no_shear #
body $12 $13 $-1 $14 #
body $15 $16 $-1 $17 #
body $18 $19 $-1 $20 #
body $21 $22 $-1 $23 #
body $24 $25 $-1 $26 #
aggregate_advspl_attribute-aggregate_geombuild_base_attribute-aggregate_body_attribute-attrib_HH-attrib $-1 $27 $2 $0 F #
shell $-1 $-1 $-1 $28 $-1 $3 #
model_id-kcp-attrib $-1 $-1 $-1 $5 1 1017697366 70 -1069154302 1 #
lump $-1 $-1 $29 $5 #
transform $-1 1 0 0 0 1 0 0 0 1 0 0 19.685039370078755 1 no_rotate no_reflect no_shear #
rgb_color-st-attrib $-1 $30 $-1 $6 0.5 1 1 #
lump $-1 $-1 $31 $6 #
transform $-1 1 0 0 0 1 0 0 0 1 0 0 19.685039370078755 1 no_rotate no_reflect no_shear #
rgb_color-st-attrib $-1 $32 $-1 $7 0.5 0.5 1 #
lump $-1 $-1 $33 $7 #
transform $-1 1 0 0 0 1 0 0 0 1 0 0 19.685039370078755 1 no_rotate no_reflect no_shear #
rgb_color-st-attrib $-1 $34 $-1 $8 0.5 0.5 1 #
lump $-1 $-1 $35 $8 #
transform $-1 1 0 0 0 1 0 0 0 1 0 0 19.685039370078755 1 no_rotate no_reflect no_shear #
rgb_color-st-attrib $-1 $36 $-1 $9 0.5 0.5 1 #
lump $-1 $-1 $37 $9 #
transform $-1 1 0 0 0 1 0 0 0 1 0 0 19.685039370078755 1 no_rotate no_reflect no_shear #
aggregate_secndry_attribute-aggregate_geombuild_base_attribute-aggregate_body_attribute-attrib_HH-attrib $-1 $38 $10 $0 F #
face $39 $40 $41 $11 $-1 $42 reversed single #
shell $-1 $-1 $-1 $43 $-1 $13 #
model_id-kcp-attrib $-1 $-1 $15 $6 1 1017697366 1261 -1058209789 1 #
shell $-1 $-1 $-1 $44 $-1 $16 #
model_id-kcp-attrib $-1 $-1 $18 $7 1 1017697366 1361 -1068433404 1 #
shell $-1 $-1 $-1 $45 $-1 $19 #
model_id-kcp-attrib $-1 $-1 $21 $8 1 1017697366 1402 -1065746427 1 #
shell $-1 $-1 $-1 $46 $-1 $22 #
model_id-kcp-attrib $-1 $-1 $24 $9 1 1017697366 1442 -1063124986 1 #
shell $-1 $-1 $-1 $47 $-1 $25 #
aggregate_sharped_attribute-aggregate_geombuild_base_attribute-aggregate_body_attribute-attrib_HH-attrib $-1 $48 $27 $0 F #
model_id-kcp-attrib $-1 $49 $-1 $28 1 1017697366 60 -1069809663 2 #
face $50 $51 $52 $11 $-1 $53 forward single #
loop $-1 $-1 $54 $28 #
sphere-surface $-1 0 0 275.590551181102 39.370078740157503 1 0 0 0 0 1 forward_v I I I I #
face $-1 $55 $56 $29 $-1 $57 forward single #
face $-1 $58 $59 $31 $-1 $60 reversed single #
face $-1 $61 $62 $33 $-1 $63 reversed single #
face $-1 $64 $65 $35 $-1 $66 reversed single #
face $-1 $67 $68 $37 $-1 $69 reversed single #
aggregate_reblend_attribute-aggregate_geombuild_base_attribute-aggregate_body_attribute-attrib_HH-attrib $-1 $70 $38 $0 F #
attrib_hh_face_geombuild-attrib_entity_geombuild-individual_entity_attribute-attrib_HH-attrib $-1 $-1 $39 $28 F #
model_id-kcp-attrib $-1 $71 $-1 $40 1 1017697366 60 -1069809663 3 #
face $72 $73 $74 $11 $-1 $75 reversed single #
loop $-1 $76 $77 $40 #
plane-surface $-1 0 0 275.590551181102 0 0 1 1 0 0 forward_v I I I I #
coedge $78 $54 $54 $79 $80 forward $41 $-1 #
face $-1 $81 $82 $29 $-1 $83 reversed single #
loop $-1 $-1 $84 $43 #
plane-surface $-1 0 0 295.27559055118076 0 0 1 1 0 0 forward_v I I I I #
face $-1 $85 $86 $31 $-1 $60 reversed single #
loop $-1 $-1 $87 $44 #
cone-surface $-1 1.1368683772161603e-013 -2.8421709430404007e-013 255.90551181102325 0 0 1 196.8503937007869 245.86606292907132 0 1 I I 0 1 314.96062992125991 forward I I I I #
face $-1 $88 $89 $33 $-1 $90 forward single #
loop $-1 $-1 $91 $45 #
plane-surface $-1 0 0 255.90551181102319 0 0 1 1 0 0 forward_v I I I I #
face $-1 $92 $93 $35 $-1 $94 forward single #
loop $-1 $-1 $95 $46 #
plane-surface $-1 -255.90551181102308 4.2632564145606011e-014 196.85039370078709 -0.70710678118654757 0 0.70710678118654757 0 -1 0 forward_v I I I I #
face $-1 $96 $97 $37 $-1 $98 forward single #
loop $-1 $-1 $99 $47 #
plane-surface $-1 255.90551181102308 -4.2632564145606011e-014 196.85039370078709 0.70710678118654757 0 0.70710678118654757 0 1 0 forward_v I I I I #
aggregate_isospline_attribute-aggregate_geombuild_base_attribute-aggregate_body_attribute-attrib_HH-attrib $-1 $100 $48 $0 F #
attrib_hh_face_geombuild-attrib_entity_geombuild-individual_entity_attribute-attrib_HH-attrib $-1 $-1 $50 $40 F #
model_id-kcp-attrib $-1 $101 $-1 $51 1 1017697366 60 -1069809663 4 #
face $102 $103 $104 $11 $-1 $105 reversed single #
loop $-1 $-1 $106 $51 #
plane-surface $-1 -196.85039370078701 0 275.590551181102 0.70710678118654757 0 -0.70710678118654757 -0.70710678118654802 0 -0.70710678118654802 forward_v I I I I #
loop $-1 $-1 $107 $40 #
coedge $108 $77 $77 $109 $110 reversed $52 $-1 #
attrib_hh_coedge_geombuild-attrib_entity_geombuild-individual_entity_attribute-attrib_HH-attrib $-1 $-1 $-1 $54 F #
coedge $111 $79 $79 $54 $80 reversed $112 $-1 #
edge $113 $114 0 $114 6.2831853071795862 $54 $115 forward 7 unknown #
face $-1 $116 $117 $29 $-1 $118 reversed single #
loop $-1 $-1 $119 $55 #
plane-surface $-1 0 0 -295.27559055118076 0 0 1 1 0 0 forward_v I I I I #
coedge $-1 $120 $121 $122 $123 forward $56 $-1 #
face $-1 $124 $125 $31 $-1 $60 reversed single #
loop $-1 $-1 $126 $58 #
coedge $-1 $127 $128 $129 $130 reversed $59 $-1 #
face $-1 $-1 $131 $33 $-1 $132 forward single #
loop $-1 $133 $134 $61 #
cone-surface $-1 1.1368683772161603e-013 -2.8421709430404007e-013 255.90551181102325 0 0 1 196.8503937007869 245.86606292907132 0 1 I I 0 1 314.96062992125991 forward I I I I #
coedge $-1 $91 $91 $135 $136 forward $62 $-1 #
face $-1 $-1 $137 $35 $-1 $138 forward single #
loop $-1 $-1 $139 $64 #
cone-surface $-1 1.1368683772161603e-013 -2.8421709430404007e-013 255.90551181102325 0 0 1 196.8503937007869 245.86606292907132 0 1 I I 0 1 314.96062992125991 forward I I I I #
coedge $-1 $140 $140 $139 $141 forward $65 $-1 #
face $-1 $-1 $142 $37 $-1 $143 forward single #
loop $-1 $-1 $144 $67 #
cone-surface $-1 1.1368683772161603e-013 -2.8421709430404007e-013 255.90551181102325 0 0 1 196.8503937007869 245.86606292907132 0 1 I I 0 1 314.96062992125991 forward I I I I #
coedge $-1 $145 $145 $144 $146 forward $68 $-1 #
aggregate_analytic_solver_attribute-aggregate_geombuild_base_attribute-aggregate_body_attribute-attrib_HH-attrib $-1 $147 $70 $0 F #
attrib_hh_face_geombuild-attrib_entity_geombuild-individual_entity_attribute-attrib_HH-attrib $-1 $-1 $72 $51 F #
model_id-kcp-attrib $-1 $148 $-1 $73 1 1017697366 60 -1069809663 5 #
face $149 $150 $151 $11 $-1 $152 forward single #
loop $-1 $-1 $153 $73 #
plane-surface $-1 196.85039370078701 0 275.590551181102 -0.70710678118654757 0 -0.70710678118654757 -0.70710678118654802 0 0.70710678118654802 forward_v I I I I #
coedge $154 $155 $155 $107 $156 forward $74 $-1 #
coedge $157 $158 $159 $106 $156 reversed $76 $-1 #
attrib_hh_coedge_geombuild-attrib_entity_geombuild-individual_entity_attribute-attrib_HH-attrib $-1 $-1 $-1 $77 F #
coedge $160 $109 $109 $77 $110 forward $161 $-1 #
edge $162 $163 0 $163 6.2831853071795862 $77 $164 forward 7 unknown #
attrib_hh_coedge_geombuild-attrib_entity_geombuild-individual_entity_attribute-attrib_HH-attrib $-1 $-1 $-1 $79 F #
loop $-1 $165 $79 $166 #
attrib_edge_convexity-kcp-attrib $-1 $167 $-1 $80 1 #
vertex $168 $80 $169 #
ellipse-curve $-1 0 0 275.590551181102 0 0 1 39.370078740157503 0 0 1 I I #
face $-1 $170 $171 $29 $-1 $172 reversed single #
loop $-1 $-1 $173 $81 #
plane-surface $-1 0 -314.96062992126002 0 0 1 0 0 0 1 forward_v I I I I #
coedge $-1 $174 $175 $176 $177 forward $82 $-1 #
coedge $-1 $178 $84 $179 $180 forward $56 $-1 #
coedge $-1 $84 $178 $181 $182 forward $56 $-1 #
coedge $-1 $183 $184 $84 $123 reversed $185 $-1 #
edge $-1 $186 -314.96062992126002 $187 314.96062992126002 $122 $188 forward 7 unknown #
face $-1 $189 $190 $31 $-1 $60 reversed single #
loop $-1 $-1 $191 $85 #
coedge $-1 $192 $193 $194 $195 reversed $86 $-1 #
coedge $-1 $196 $87 $197 $198 reversed $59 $-1 #
coedge $-1 $87 $196 $199 $200 reversed $59 $-1 #
coedge $-1 $201 $202 $203 $130 forward $204 $-1 #
edge $-1 $205 -551.181102362204 $206 39.37007874015751 $129 $207 forward 7 unknown #
loop $-1 $-1 $208 $88 #
plane-surface $-1 0 0 295.27559055118076 0 0 1 1 0 0 forward_v I I I I #
loop $-1 $-1 $135 $61 #
coedge $-1 $134 $134 $208 $209 reversed $89 $-1 #
coedge $-1 $135 $135 $91 $136 reversed $133 $-1 #
edge $210 $211 -3.1415926535897931 $211 3.1415926535897931 $135 $212 forward 7 unknown #
loop $-1 $-1 $213 $92 #
plane-surface $-1 0 0 295.27559055118076 0 0 1 1 0 0 forward_v I I I I #
coedge $-1 $214 $214 $95 $141 reversed $93 $-1 #
coedge $-1 $95 $95 $213 $215 forward $65 $-1 #
edge $216 $217 2.0943951023931939 $218 4.1887902047863923 $139 $219 forward 7 unknown #
loop $-1 $-1 $220 $96 #
plane-surface $-1 0 0 295.27559055118076 0 0 1 1 0 0 forward_v I I I I #
coedge $-1 $221 $221 $99 $146 reversed $97 $-1 #
coedge $-1 $99 $99 $220 $222 forward $68 $-1 #
edge $223 $224 -1.0471975511966003 $225 1.0471975511966001 $144 $226 forward 7 unknown #
aggregate_geombuild_attribute-aggregate_geombuild_base_attribute-aggregate_body_attribute-attrib_HH-attrib $-1 $227 $100 $0 #
attrib_hh_face_geombuild-attrib_entity_geombuild-individual_entity_attribute-attrib_HH-attrib $-1 $-1 $102 $73 F #
model_id-kcp-attrib $-1 $228 $-1 $103 1 1017697366 60 -1069809663 6 #
face $229 $166 $230 $11 $-1 $231 forward single #
loop $-1 $232 $233 $103 #
cone-surface $-1 0 0 142.919126485616 0 0 -1 478.29677447624999 0 0 1 I I -0.75257669470687805 0.65850460786851694 478.29677447624999 forward I I I I #
coedge $234 $235 $235 $236 $237 forward $104 $-1 #
attrib_hh_coedge_geombuild-attrib_entity_geombuild-individual_entity_attribute-attrib_HH-attrib $-1 $-1 $-1 $106 F #
coedge $238 $106 $106 $239 $240 forward $74 $-1 #
edge $241 $242 -245.86606292907101 $243 245.86606292907101 $107 $244 forward 7 unknown #
attrib_hh_coedge_geombuild-attrib_entity_geombuild-individual_entity_attribute-attrib_HH-attrib $-1 $-1 $-1 $107 F #
coedge $245 $236 $107 $246 $247 reversed $76 $-1 #
coedge $248 $107 $236 $249 $250 reversed $76 $-1 #
attrib_hh_coedge_geombuild-attrib_entity_geombuild-individual_entity_attribute-attrib_HH-attrib $-1 $-1 $-1 $109 F #
loop $-1 $251 $109 $252 #
attrib_edge_convexity-kcp-attrib $-1 $253 $-1 $110 1 #
vertex $254 $110 $255 #
ellipse-curve $-1 0 0 275.590551181102 0 0 1 177.16535433070899 0 0 1 I I #
loop $-1 $-1 $256 $166 #
face $257 $252 $112 $11 $-1 $258 forward single #
convexity-sys-attrib $-1 $259 $113 $80 #
attrib_hh_vertex_geombuild-attrib_entity_geombuild-individual_entity_attribute-attrib_HH-attrib $-1 $-1 $-1 $114 F #
point $-1 39.370078740157503 0 275.590551181102 #
face $-1 $260 $261 $29 $-1 $262 reversed single #
loop $-1 $-1 $263 $116 #
plane-surface $-1 -314.96062992126002 0 0 1 0 0 0 0 -1 forward_v I I I I #
coedge $-1 $264 $181 $265 $266 forward $117 $-1 #
coedge $-1 $267 $119 $264 $268 forward $82 $-1 #
coedge $-1 $119 $267 $269 $270 forward $82 $-1 #
coedge $-1 $184 $183 $119 $177 reversed $185 $-1 #
edge $-1 $271 -314.96062992126002 $272 314.96062992126002 $176 $273 forward 7 unknown #
coedge $-1 $121 $120 $274 $275 forward $56 $-1 #
coedge $-1 $276 $277 $120 $180 reversed $261 $-1 #
edge $-1 $187 -314.96062992126002 $278 314.96062992126002 $179 $279 forward 7 unknown #
coedge $-1 $173 $280 $121 $182 reversed $117 $-1 #
edge $-1 $281 -314.96062992126002 $186 314.96062992126002 $181 $282 forward 7 unknown #
coedge $-1 $176 $122 $280 $283 forward $185 $-1 #
coedge $-1 $122 $176 $276 $284 reversed $185 $-1 #
loop $-1 $-1 $183 $260 #
vertex $-1 $123 $285 #
vertex $-1 $123 $286 #
straight-curve $-1 314.96062992126002 0 295.27559055118076 0 1 0 I I #
face $-1 $287 $288 $31 $-1 $289 reversed single #
loop $-1 $-1 $290 $124 #
coedge $-1 $291 $292 $293 $294 reversed $125 $-1 #
coedge $-1 $295 $126 $296 $297 reversed $86 $-1 #
coedge $-1 $126 $295 $87 $130 forward $86 $-1 #
coedge $-1 $298 $299 $126 $195 forward $300 $-1 #
edge $-1 $301 2.466461120652764 $206 4.0372574474476597 $194 $302 forward 7 unknown #
coedge $-1 $128 $127 $292 $303 forward $59 $-1 #
coedge $-1 $304 $305 $127 $198 forward $306 $-1 #
edge $-1 $307 0.67513153293702932 $205 2.2459278597319261 $197 $308 forward 7 unknown #
coedge $-1 $309 $310 $128 $200 forward $311 $-1 #
edge $-1 $206 -2.2459278597319261 $312 -0.67513153293702932 $199 $302 forward 7 unknown #
coedge $-1 $313 $129 $310 $314 reversed $204 $-1 #
coedge $-1 $129 $313 $304 $315 reversed $204 $-1 #
coedge $-1 $316 $317 $193 $130 reversed $318 $-1 #
loop $-1 $-1 $129 $319 #
vertex $-1 $315 $320 #
vertex $-1 $321 $322 #
straight-curve $-1 -314.96062992126002 -2.8421709430404007e-013 255.90551181102325 0 0 1 I I #
coedge $-1 $208 $208 $134 $209 forward $131 $-1 #
edge $-1 $323 -0.89566479385786735 $323 5.3875205133217188 $208 $324 forward 7 unknown #
convexity-sys-attrib $-1 $-1 $-1 $136 #
vertex $-1 $136 $325 #
ellipse-curve $-1 1.1368683772161603e-013 -2.8421709430404007e-013 255.90551181102319 0 0 -1 196.8503937007869 245.86606292907132 0 1 I I #
coedge $-1 $326 $326 $140 $215 reversed $137 $-1 #
coedge $-1 $139 $139 $326 $327 reversed $93 $-1 #
edge $328 $218 -272.7639067037602 $217 272.76390670376077 $213 $329 forward 7 unknown #
convexity-sys-attrib $-1 $-1 $-1 $141 #
vertex $-1 $141 $330 #
vertex $-1 $327 $331 #
ellipse-curve $-1 1.1368683772161603e-013 -2.8421709430404007e-013 452.75590551181028 0.70710678118654757 0 -0.70710678118654757 314.96062992125991 -2.8421709430404007e-014 314.96062992125991 0.70710678118654746 I I #
coedge $-1 $332 $332 $145 $222 reversed $142 $-1 #
coedge $-1 $144 $144 $332 $333 reversed $97 $-1 #
edge $334 $225 -272.76390670376088 $224 272.76390670376031 $220 $335 forward 7 unknown #
convexity-sys-attrib $-1 $-1 $-1 $146 #
vertex $-1 $146 $336 #
vertex $-1 $333 $337 #
ellipse-curve $-1 1.1368683772161603e-013 -2.8421709430404007e-013 452.75590551181006 -0.70710678118654757 0 -0.70710678118654757 314.96062992125991 -2.8421709430404007e-014 -314.96062992125991 0.70710678118654746 I I #
aggregate_stitch_attribute-aggregate_stitch_base_attribute-aggregate_body_attribute-attrib_HH-attrib $-1 $338 $147 $0 F #
attrib_hh_face_geombuild-attrib_entity_geombuild-individual_entity_attribute-attrib_HH-attrib $-1 $-1 $149 $103 F #
model_id-kcp-attrib $-1 $339 $-1 $150 1 1017697366 60 -1069809663 7 #
loop $-1 $340 $239 $150 #
cone-surface $-1 0 0 0 0 0 1 314.96062992126002 0 0 1 I I 0 1 314.96062992126002 forward I I I I #
loop $-1 $-1 $341 $103 #
coedge $342 $233 $233 $343 $344 reversed $151 $-1 #
attrib_hh_coedge_geombuild-attrib_entity_geombuild-individual_entity_attribute-attrib_HH-attrib $-1 $-1 $-1 $153 F #
coedge $345 $153 $153 $346 $347 forward $104 $-1 #
coedge $348 $159 $158 $153 $237 reversed $76 $-1 #
edge $349 $350 -245.86606292907101 $351 245.86606292907101 $236 $352 forward 7 unknown #
attrib_hh_coedge_geombuild-attrib_entity_geombuild-individual_entity_attribute-attrib_HH-attrib $-1 $-1 $-1 $155 F #
coedge $353 $249 $246 $155 $240 reversed $230 $-1 #
edge $354 $243 2.2459278597319283 $242 4.0372574474476579 $155 $355 forward 7 unknown #
attrib_edge_convexity-kcp-attrib $-1 $356 $-1 $156 1 #
vertex $357 $156 $358 #
vertex $359 $156 $360 #
straight-curve $-1 -196.85039370078701 0 275.590551181102 0 1 0 I I #
attrib_hh_coedge_geombuild-attrib_entity_geombuild-individual_entity_attribute-attrib_HH-attrib $-1 $-1 $-1 $158 F #
coedge $361 $239 $346 $158 $247 forward $230 $-1 #
edge $362 $351 -0.67513153293703032 $242 0.67513153293703021 $158 $363 forward 7 unknown #
attrib_hh_coedge_geombuild-attrib_entity_geombuild-individual_entity_attribute-attrib_HH-attrib $-1 $-1 $-1 $159 F #
coedge $364 $346 $239 $159 $250 forward $230 $-1 #
edge $365 $243 -0.67513153293703021 $350 0.67513153293703032 $159 $366 forward 7 unknown #
loop $-1 $-1 $367 $252 #
face $368 $-1 $161 $11 $-1 $369 reversed single #
convexity-sys-attrib $-1 $370 $162 $110 #
attrib_hh_vertex_geombuild-attrib_entity_geombuild-individual_entity_attribute-attrib_HH-attrib $-1 $-1 $-1 $163 F #
point $-1 177.16535433070899 0 275.590551181102 #
coedge $371 $256 $256 $367 $372 reversed $165 $-1 #
model_id-kcp-attrib $-1 $373 $-1 $166 1 1017697366 60 -1069809663 8 #
plane-surface $-1 0 0 275.590551181102 0 0 1 1 0 0 forward_v I I I I #
attrib_hh_edge_geombuild-attrib_entity_geombuild-individual_entity_attribute-attrib_HH-attrib $-1 $-1 $167 $80 F #
face $-1 $-1 $185 $29 $-1 $374 reversed single #
loop $-1 $-1 $276 $170 #
plane-surface $-1 0 314.96062992126002 0 0 -1 0 0 0 -1 forward_v I I I I #
coedge $-1 $375 $274 $277 $376 forward $171 $-1 #
coedge $-1 $280 $173 $174 $268 reversed $117 $-1 #
coedge $-1 $274 $375 $173 $266 reversed $171 $-1 #
edge $-1 $281 -295.27559055118076 $377 295.27559055118076 $265 $378 forward 7 unknown #
coedge $-1 $175 $174 $375 $379 forward $82 $-1 #
edge $-1 $272 -314.96062992126002 $377 314.96062992126002 $264 $380 forward 7 unknown #
coedge $-1 $277 $276 $175 $270 reversed $261 $-1 #
edge $-1 $381 -314.96062992126002 $271 314.96062992126002 $269 $382 forward 7 unknown #
vertex $-1 $177 $383 #
vertex $-1 $283 $384 #
straight-curve $-1 314.96062992126002 0 -295.27559055118076 0 -1 0 I I #
coedge $-1 $263 $265 $178 $275 reversed $171 $-1 #
edge $-1 $278 -314.96062992126002 $281 314.96062992126002 $274 $385 forward 7 unknown #
coedge $-1 $269 $179 $184 $284 forward $261 $-1 #
coedge $-1 $179 $269 $263 $376 reversed $261 $-1 #
vertex $-1 $180 $386 #
straight-curve $-1 0 314.96062992126002 295.27559055118076 -1 0 0 I I #
coedge $-1 $181 $264 $183 $283 reversed $117 $-1 #
vertex $-1 $275 $387 #
straight-curve $-1 0 -314.96062992126002 295.27559055118076 1 0 0 I I #
edge $-1 $186 -295.27559055118076 $272 295.27559055118076 $183 $388 forward 7 unknown #
edge $-1 $187 -295.27559055118076 $271 295.27559055118076 $184 $389 forward 7 unknown #
point $-1 314.96062992126002 -314.96062992126002 295.27559055118076 #
point $-1 314.96062992126002 314.96062992126002 295.27559055118076 #
face $-1 $390 $318 $31 $-1 $391 reversed single #
loop $-1 $-1 $392 $189 #
plane-surface $-1 0 314.96062992126002 0 0 -1 0 0 0 -1 forward_v I I I I #
coedge $-1 $393 $394 $395 $396 reversed $190 $-1 #
coedge $-1 $397 $191 $394 $398 forward $125 $-1 #
coedge $-1 $191 $397 $399 $303 reversed $125 $-1 #
coedge $-1 $400 $401 $191 $294 forward $402 $-1 #
edge $-1 $403 -0.89566479385786735 $307 0.67513153293702932 $293 $308 forward 7 unknown #
coedge $-1 $193 $192 $404 $405 reversed $86 $-1 #
coedge $-1 $406 $407 $408 $297 forward $409 $-1 #
edge $-1 $410 -551.181102362204 $301 39.37007874015751 $296 $411 forward 7 unknown #
coedge $-1 $299 $194 $317 $321 forward $300 $-1 #
coedge $-1 $194 $298 $406 $412 forward $300 $-1 #
loop $-1 $-1 $194 $413 #
vertex $-1 $414 $415 #
ellipse-curve $-1 1.1368683772161603e-013 -2.8421709430404007e-013 295.27559055118076 0 0 -1 196.8503937007869 245.86606292907132 0 1 I I #
edge $-1 $307 -551.181102362204 $312 39.37007874015751 $399 $416 forward 7 unknown #
coedge $-1 $305 $197 $202 $315 forward $306 $-1 #
coedge $-1 $197 $304 $417 $418 forward $306 $-1 #
loop $-1 $-1 $197 $419 #
vertex $-1 $420 $421 #
ellipse-curve $-1 1.1368683772161603e-013 -2.8421709430404007e-013 -295.27559055118076 0 0 1 196.8503937007869 245.86606292907132 0 1 I I #
coedge $-1 $310 $199 $422 $423 forward $311 $-1 #
coedge $-1 $199 $309 $201 $314 forward $311 $-1 #
loop $-1 $-1 $199 $424 #
vertex $-1 $423 $425 #
coedge $-1 $202 $201 $426 $427 forward $204 $-1 #
edge $-1 $428 -314.96062992126002 $206 2.8421709430404007e-013 $201 $429 forward 7 unknown #
edge $-1 $205 -2.8421709430404007e-013 $430 314.96062992126002 $202 $431 forward 7 unknown #
coedge $-1 $432 $203 $433 $434 reversed $318 $-1 #
coedge $-1 $203 $432 $298 $321 reversed $318 $-1 #
loop $-1 $-1 $203 $287 #
face $-1 $435 $204 $31 $-1 $391 reversed single #
point $-1 -314.96062992126002 -2.8421709430404007e-013 -295.27559055118076 #
edge $-1 $206 2.8421709430404007e-013 $436 314.96062992126002 $317 $429 forward 7 unknown #
point $-1 -314.96062992126002 -2.8421709430404007e-013 295.27559055118076 #
vertex $-1 $209 $437 #
ellipse-curve $-1 1.1368683772161603e-013 -2.8421709430404007e-013 295.27559055118076 0 0 1 196.8503937007869 245.86606292907132 0 1 I I #
point $-1 -196.85039370078681 -245.86606292907157 255.90551181102319 #
coedge $-1 $213 $213 $214 $327 forward $137 $-1 #
edge $-1 $218 1.1987303085353267 $217 3.2931254109285248 $326 $438 forward 7 unknown #
convexity-sys-attrib $-1 $-1 $-1 $215 #
straight-curve $-1 -157.48031496062944 2.1316282072803006e-014 295.27559055118076 0 -1 0 I I #
point $-1 -157.48031496062941 -272.76390670376077 295.27559055118076 #
point $-1 -157.48031496062941 272.7639067037602 295.27559055118076 #
coedge $-1 $220 $220 $221 $333 forward $142 $-1 #
edge $-1 $225 -1.9428623450544673 $224 0.15153275733873275 $332 $439 forward 7 unknown #
convexity-sys-attrib $-1 $-1 $-1 $222 #
straight-curve $-1 157.48031496062944 -2.1316282072803006e-014 295.27559055118076 0 1 0 I I #
point $-1 157.48031496062941 272.76390670376031 295.27559055118076 #
point $-1 157.48031496062941 -272.76390670376088 295.27559055118076 #
aggregate_simgeom_attribute-aggregate_simgeom_base_attribute-aggregate_body_attribute-attrib_HH-attrib $-1 $-1 $227 $0 F #
attrib_hh_face_geombuild-attrib_entity_geombuild-individual_entity_attribute-attrib_HH-attrib $-1 $-1 $229 $150 F #
loop $-1 $-1 $343 $150 #
coedge $440 $341 $341 $-1 $441 forward $232 $-1 #
attrib_hh_coedge_geombuild-attrib_entity_geombuild-individual_entity_attribute-attrib_HH-attrib $-1 $-1 $-1 $233 F #
coedge $442 $343 $343 $233 $344 forward $340 $-1 #
edge $443 $444 0 $444 6.2831853071795862 $233 $445 forward 7 unknown #
attrib_hh_coedge_geombuild-attrib_entity_geombuild-individual_entity_attribute-attrib_HH-attrib $-1 $-1 $-1 $235 F #
coedge $446 $246 $249 $235 $347 reversed $230 $-1 #
edge $447 $351 2.2459278597319283 $350 4.0372574474476579 $235 $448 forward 7 unknown #
attrib_hh_coedge_geombuild-attrib_entity_geombuild-individual_entity_attribute-attrib_HH-attrib $-1 $-1 $-1 $236 F #
attrib_edge_convexity-kcp-attrib $-1 $449 $-1 $237 1 #
vertex $450 $237 $451 #
vertex $452 $247 $453 #
straight-curve $-1 196.85039370078701 0 275.590551181102 0 -1 0 I I #
attrib_hh_coedge_geombuild-attrib_entity_geombuild-individual_entity_attribute-attrib_HH-attrib $-1 $-1 $-1 $239 F #
attrib_edge_convexity-kcp-attrib $-1 $454 $-1 $240 1 #
ellipse-curve $-1 0 0 472.44094488189 -0.70710678118654757 0 0.70710678118654757 314.96062992126002 0 314.96062992126002 0.70710678118654802 I I #
convexity-sys-attrib $-1 $455 $241 $156 #
attrib_hh_vertex_geombuild-attrib_entity_geombuild-individual_entity_attribute-attrib_HH-attrib $-1 $-1 $-1 $242 F #
point $-1 -196.85039370078701 -245.86606292907101 275.590551181102 #
attrib_hh_vertex_geombuild-attrib_entity_geombuild-individual_entity_attribute-attrib_HH-attrib $-1 $-1 $-1 $243 F #
point $-1 -196.85039370078701 245.86606292907101 275.590551181102 #
attrib_hh_coedge_geombuild-attrib_entity_geombuild-individual_entity_attribute-attrib_HH-attrib $-1 $-1 $-1 $246 F #
attrib_edge_convexity-kcp-attrib $-1 $456 $-1 $247 1 #
ellipse-curve $-1 0 0 275.590551181102 0 0 -1 -1.92857763645253e-014 -314.96062992126002 0 1 I I #
attrib_hh_coedge_geombuild-attrib_entity_geombuild-individual_entity_attribute-attrib_HH-attrib $-1 $-1 $-1 $249 F #
attrib_edge_convexity-kcp-attrib $-1 $457 $-1 $250 1 #
ellipse-curve $-1 0 0 275.590551181102 0 0 -1 -1.92857763645253e-014 314.96062992126002 0 1 I I #
coedge $458 $367 $367 $256 $372 forward $251 $-1 #
model_id-kcp-attrib $-1 $459 $-1 $252 1 1017697366 60 -1069809663 9 #
torus-surface $-1 0 0 275.590551181102 0 0 1 137.795275590551 39.370078740157503 1 0 0 forward_v I I I I #
attrib_hh_edge_geombuild-attrib_entity_geombuild-individual_entity_attribute-attrib_HH-attrib $-1 $-1 $253 $110 F #
attrib_hh_coedge_geombuild-attrib_entity_geombuild-individual_entity_attribute-attrib_HH-attrib $-1 $-1 $-1 $256 F #
edge $460 $461 0 $461 6.2831853071795862 $256 $462 forward 7 unknown #
attrib_hh_face_geombuild-attrib_entity_geombuild-individual_entity_attribute-attrib_HH-attrib $-1 $-1 $257 $166 F #
plane-surface $-1 314.96062992126002 0 0 -1 0 0 0 0 1 forward_v I I I I #
coedge $-1 $265 $263 $267 $379 reversed $171 $-1 #
edge $-1 $278 -295.27559055118076 $381 295.27559055118076 $277 $463 forward 7 unknown #
vertex $-1 $379 $464 #
straight-curve $-1 -314.96062992126002 -314.96062992126002 0 0 0 -1 I I #
edge $-1 $377 -314.96062992126002 $381 314.96062992126002 $375 $465 forward 7 unknown #
straight-curve $-1 0 -314.96062992126002 -295.27559055118076 -1 0 0 I I #
vertex $-1 $270 $466 #
straight-curve $-1 0 314.96062992126002 -295.27559055118076 1 0 0 I I #
point $-1 314.96062992126002 314.96062992126002 -295.27559055118076 #
point $-1 314.96062992126002 -314.96062992126002 -295.27559055118076 #
straight-curve $-1 -314.96062992126002 0 295.27559055118076 0 -1 0 I I #
point $-1 -314.96062992126002 314.96062992126002 295.27559055118076 #
point $-1 -314.96062992126002 -314.96062992126002 295.27559055118076 #
straight-curve $-1 314.96062992126002 -314.96062992126002 0 0 0 -1 I I #
straight-curve $-1 314.96062992126002 314.96062992126002 0 0 0 -1 I I #
face $-1 $467 $468 $31 $-1 $469 reversed single #
plane-surface $-1 -314.96062992126002 0 0 1 0 0 0 0 -1 forward_v I I I I #
coedge $-1 $417 $422 $196 $303 reversed $288 $-1 #
coedge $-1 $470 $290 $192 $297 forward $190 $-1 #
coedge $-1 $290 $470 $471 $398 reversed $190 $-1 #
coedge $-1 $472 $473 $290 $396 forward $474 $-1 #
edge $-1 $410 -2.466461120652764 $403 -0.89566479385786735 $395 $308 forward 7 unknown #
coedge $-1 $292 $291 $475 $476 reversed $125 $-1 #
edge $-1 $403 -551.181102362204 $477 39.37007874015751 $471 $478 forward 7 unknown #
coedge $-1 $479 $480 $392 $303 forward $481 $-1 #
coedge $-1 $401 $293 $480 $420 forward $402 $-1 #
coedge $-1 $293 $400 $482 $483 forward $402 $-1 #
loop $-1 $-1 $293 $484 #
vertex $-1 $485 $486 #
coedge $-1 $487 $433 $295 $405 forward $488 $-1 #
edge $-1 $205 2.2459278597319261 $410 3.8167241865268222 $404 $308 forward 7 unknown #
coedge $-1 $489 $296 $299 $412 reversed $409 $-1 #
coedge $-1 $296 $489 $487 $490 reversed $409 $-1 #
coedge $-1 $491 $492 $393 $297 reversed $468 $-1 #
loop $-1 $-1 $296 $493 #
vertex $-1 $490 $494 #
straight-curve $-1 1.1368683772161603e-013 -314.96062992126002 255.90551181102325 0 0 1 I I #
edge $-1 $436 -314.96062992126002 $301 1.1368683772161603e-013 $406 $495 forward 7 unknown #
face $-1 $424 $300 $31 $-1 $496 forward single #
edge $-1 $301 1.1368683772161603e-013 $497 314.96062992126002 $492 $495 forward 7 unknown #
point $-1 1.1368683772161603e-013 -314.96062992126002 295.27559055118076 #
straight-curve $-1 1.1368683772161603e-013 314.96062992126002 255.90551181102325 0 0 1 I I #
coedge $-1 $426 $392 $305 $418 reversed $288 $-1 #
edge $-1 $430 -314.96062992126002 $307 1.1368683772161603e-013 $417 $498 forward 7 unknown #
face $-1 $499 $306 $31 $-1 $500 reversed single #
edge $-1 $307 1.1368683772161603e-013 $501 314.96062992126002 $480 $498 forward 7 unknown #
point $-1 1.1368683772161603e-013 314.96062992126002 -295.27559055118076 #
coedge $-1 $392 $426 $309 $423 reversed $288 $-1 #
edge $-1 $312 -1.1368683772161603e-013 $428 314.96062992126002 $422 $502 forward 7 unknown #
face $-1 $503 $311 $31 $-1 $496 forward single #
point $-1 1.1368683772161603e-013 314.96062992126002 295.27559055118076 #
coedge $-1 $422 $417 $313 $427 reversed $288 $-1 #
edge $-1 $428 -295.27559055118076 $430 295.27559055118076 $426 $504 forward 7 unknown #
vertex $-1 $423 $505 #
straight-curve $-1 -314.96062992126002 0 295.27559055118076 0 -1 0 I I #
vertex $-1 $418 $506 #
straight-curve $-1 -314.96062992126002 0 -295.27559055118076 0 1 0 I I #
coedge $-1 $317 $316 $489 $507 reversed $318 $-1 #
coedge $-1 $404 $487 $316 $434 forward $488 $-1 #
edge $-1 $508 -314.96062992126002 $205 -2.8421709430404007e-013 $316 $431 forward 7 unknown #
face $-1 $509 $481 $31 $-1 $289 reversed single #
vertex $-1 $321 $510 #
point $-1 314.96062992126002 -2.8421709430404007e-013 295.27559055118076 #
ellipse-curve $-1 1.1368683772161603e-013 -2.8421709430404007e-013 295.27559055118076 0 0 1 196.8503937007869 245.86606292907132 0 1 I I #
ellipse-curve $-1 1.1368683772161603e-013 -2.8421709430404007e-013 295.27559055118076 0 0 1 196.8503937007869 245.86606292907132 0 1 I I #
attrib_hh_coedge_geombuild-attrib_entity_geombuild-individual_entity_attribute-attrib_HH-attrib $-1 $-1 $-1 $341 F #
edge $511 $512 1 $512 0 $341 $-1 forward 7 unknown #
attrib_hh_coedge_geombuild-attrib_entity_geombuild-individual_entity_attribute-attrib_HH-attrib $-1 $-1 $-1 $343 F #
attrib_hh_edge_geombuild-attrib_entity_geombuild-individual_entity_attribute-attrib_HH-attrib $-1 $-1 $-1 $344 F #
vertex $513 $344 $514 #
ellipse-curve $-1 0 0 0 0 0 1 314.96062992126002 0 0 1 I I #
attrib_hh_coedge_geombuild-attrib_entity_geombuild-individual_entity_attribute-attrib_HH-attrib $-1 $-1 $-1 $346 F #
attrib_edge_convexity-kcp-attrib $-1 $515 $-1 $347 1 #
ellipse-curve $-1 0 0 472.44094488189 0.70710678118654757 0 0.70710678118654757 -314.96062992126002 0 314.96062992126002 0.70710678118654802 I I #
convexity-sys-attrib $-1 $516 $349 $237 #
attrib_hh_vertex_geombuild-attrib_entity_geombuild-individual_entity_attribute-attrib_HH-attrib $-1 $-1 $-1 $350 F #
point $-1 196.85039370078701 245.86606292907101 275.590551181102 #
attrib_hh_vertex_geombuild-attrib_entity_geombuild-individual_entity_attribute-attrib_HH-attrib $-1 $-1 $-1 $351 F #
point $-1 196.85039370078701 -245.86606292907101 275.590551181102 #
convexity-sys-attrib $-1 $517 $354 $240 #
attrib_hh_edge_geombuild-attrib_entity_geombuild-individual_entity_attribute-attrib_HH-attrib $-1 $-1 $356 $156 F #
convexity-sys-attrib $-1 $518 $362 $247 #
convexity-sys-attrib $-1 $519 $365 $250 #
attrib_hh_coedge_geombuild-attrib_entity_geombuild-individual_entity_attribute-attrib_HH-attrib $-1 $-1 $-1 $367 F #
attrib_hh_face_geombuild-attrib_entity_geombuild-individual_entity_attribute-attrib_HH-attrib $-1 $-1 $368 $252 F #
attrib_edge_convexity-kcp-attrib $-1 $520 $-1 $372 1 #
vertex $521 $372 $522 #
ellipse-curve $-1 0 0 275.590551181102 0 0 -1 -98.425196850393704 0 0 1 I I #
straight-curve $-1 -314.96062992126002 314.96062992126002 0 0 0 -1 I I #
point $-1 -314.96062992126002 -314.96062992126002 -295.27559055118076 #
straight-curve $-1 -314.96062992126002 0 -295.27559055118076 0 1 0 I I #
point $-1 -314.96062992126002 314.96062992126002 -295.27559055118076 #
face $-1 $413 $523 $31 $-1 $496 forward single #
loop $-1 $-1 $408 $390 #
plane-surface $-1 0 -314.96062992126002 0 0 1 0 0 0 1 forward_v I I I I #
coedge $-1 $394 $393 $524 $525 reversed $190 $-1 #
coedge $-1 $526 $527 $528 $398 forward $529 $-1 #
coedge $-1 $473 $395 $527 $485 forward $474 $-1 #
coedge $-1 $395 $472 $491 $530 forward $474 $-1 #
loop $-1 $-1 $395 $531 #
coedge $-1 $532 $533 $397 $476 forward $534 $-1 #
edge $-1 $312 -0.67513153293702932 $477 0.89566479385786735 $475 $302 forward 7 unknown #
vertex $-1 $535 $536 #
straight-curve $-1 314.96062992126002 -2.8421709430404007e-013 255.90551181102325 0 0 1 I I #
coedge $-1 $537 $399 $533 $538 reversed $481 $-1 #
coedge $-1 $399 $537 $400 $420 reversed $481 $-1 #
loop $-1 $-1 $399 $435 #
coedge $-1 $539 $528 $401 $483 reversed $540 $-1 #
edge $-1 $501 -314.96062992126002 $403 2.8421709430404007e-013 $482 $541 forward 7 unknown #
face $-1 $419 $402 $31 $-1 $500 reversed single #
edge $-1 $403 2.8421709430404007e-013 $542 314.96062992126002 $527 $541 forward 7 unknown #
point $-1 314.96062992126002 -2.8421709430404007e-013 -295.27559055118076 #
coedge $-1 $433 $404 $407 $490 forward $488 $-1 #
loop $-1 $-1 $404 $499 #
coedge $-1 $407 $406 $432 $507 forward $409 $-1 #
edge $-1 $410 -1.1368683772161603e-013 $508 314.96062992126002 $407 $543 forward 7 unknown #
coedge $-1 $544 $408 $473 $530 reversed $468 $-1 #
coedge $-1 $408 $544 $545 $414 reversed $468 $-1 #
face $-1 $319 $409 $31 $-1 $469 reversed single #
point $-1 1.1368683772161603e-013 -314.96062992126002 -295.27559055118076 #
straight-curve $-1 0 -314.96062992126002 295.27559055118076 1 0 0 I I #
plane-surface $-1 0 0 295.27559055118076 0 0 1 1 0 0 forward_v I I I I #
vertex $-1 $546 $547 #
straight-curve $-1 0 314.96062992126002 -295.27559055118076 1 0 0 I I #
face $-1 $493 $488 $31 $-1 $500 reversed single #
plane-surface $-1 0 0 -295.27559055118076 0 0 1 1 0 0 forward_v I I I I #
vertex $-1 $483 $548 #
straight-curve $-1 0 314.96062992126002 295.27559055118076 -1 0 0 I I #
face $-1 $549 $534 $31 $-1 $496 forward single #
straight-curve $-1 -314.96062992126002 314.96062992126002 0 0 0 -1 I I #
point $-1 -314.96062992126002 314.96062992126002 295.27559055118076 #
point $-1 -314.96062992126002 314.96062992126002 -295.27559055118076 #
edge $-1 $436 -295.27559055118076 $508 295.27559055118076 $432 $550 forward 7 unknown #
vertex $-1 $434 $551 #
face $-1 $-1 $529 $31 $-1 $552 reversed single #
point $-1 -314.96062992126002 -314.96062992126002 295.27559055118076 #
individual_stitch_attribute-stitch_base_entity_attribute-individual_entity_attribute-attrib_HH-attrib $-1 $553 $-1 $441 F #
vertex $554 $441 $555 #
attrib_hh_vertex_geombuild-attrib_entity_geombuild-individual_entity_attribute-attrib_HH-attrib $-1 $-1 $-1 $444 F #
point $-1 314.96062992126002 0 0 #
convexity-sys-attrib $-1 $556 $447 $347 #
attrib_hh_edge_geombuild-attrib_entity_geombuild-individual_entity_attribute-attrib_HH-attrib $-1 $-1 $449 $237 F #
attrib_hh_edge_geombuild-attrib_entity_geombuild-individual_entity_attribute-attrib_HH-attrib $-1 $-1 $454 $240 F #
attrib_hh_edge_geombuild-attrib_entity_geombuild-individual_entity_attribute-attrib_HH-attrib $-1 $-1 $456 $247 F #
attrib_hh_edge_geombuild-attrib_entity_geombuild-individual_entity_attribute-attrib_HH-attrib $-1 $-1 $457 $250 F #
convexity-sys-attrib $-1 $557 $460 $372 #
attrib_hh_vertex_geombuild-attrib_entity_geombuild-individual_entity_attribute-attrib_HH-attrib $-1 $-1 $-1 $461 F #
point $-1 -98.425196850393704 0 275.590551181102 #
loop $-1 $-1 $524 $467 #
coedge $-1 $545 $558 $470 $525 forward $523 $-1 #
edge $-1 $477 0.89566479385786735 $301 2.466461120652764 $524 $302 forward 7 unknown #
coedge $-1 $559 $471 $558 $546 reversed $529 $-1 #
coedge $-1 $471 $559 $472 $485 reversed $529 $-1 #
coedge $-1 $482 $560 $291 $398 reversed $540 $-1 #
loop $-1 $-1 $471 $509 #
edge $-1 $542 -314.96062992126002 $410 -1.1368683772161603e-013 $491 $543 forward 7 unknown #
face $-1 $484 $474 $31 $-1 $500 reversed single #
coedge $-1 $533 $475 $560 $535 forward $534 $-1 #
coedge $-1 $475 $532 $479 $538 forward $534 $-1 #
loop $-1 $-1 $475 $503 #
edge $-1 $477 -2.8421709430404007e-013 $561 314.96062992126002 $560 $562 forward 7 unknown #
point $-1 314.96062992126002 -2.8421709430404007e-013 295.27559055118076 #
coedge $-1 $480 $479 $539 $563 forward $481 $-1 #
edge $-1 $561 -314.96062992126002 $312 -1.1368683772161603e-013 $479 $502 forward 7 unknown #
coedge $-1 $560 $482 $537 $563 reversed $540 $-1 #
loop $-1 $-1 $528 $549 #
straight-curve $-1 314.96062992126002 0 -295.27559055118076 0 -1 0 I I #
vertex $-1 $564 $565 #
straight-curve $-1 0 -314.96062992126002 -295.27559055118076 -1 0 0 I I #
coedge $-1 $492 $491 $559 $564 reversed $468 $-1 #
coedge $-1 $558 $524 $492 $414 forward $523 $-1 #
edge $-1 $497 -314.96062992126002 $477 -2.8421709430404007e-013 $526 $562 forward 7 unknown #
point $-1 314.96062992126002 -314.96062992126002 295.27559055118076 #
point $-1 314.96062992126002 314.96062992126002 -295.27559055118076 #
face $-1 $531 $540 $31 $-1 $552 reversed single #
straight-curve $-1 -314.96062992126002 -314.96062992126002 0 0 0 -1 I I #
point $-1 -314.96062992126002 -314.96062992126002 -295.27559055118076 #
plane-surface $-1 314.96062992126002 0 0 -1 0 0 0 0 1 forward_v I I I I #
attrib_hh_edge_geombuild-attrib_entity_geombuild-individual_entity_attribute-attrib_HH-attrib $-1 $-1 $511 $441 F #
attrib_hh_vertex_geombuild-attrib_entity_geombuild-individual_entity_attribute-attrib_HH-attrib $-1 $-1 $-1 $512 F #
point $-1 0 0 -275.590551181102 #
attrib_hh_edge_geombuild-attrib_entity_geombuild-individual_entity_attribute-attrib_HH-attrib $-1 $-1 $515 $347 F #
attrib_hh_edge_geombuild-attrib_entity_geombuild-individual_entity_attribute-attrib_HH-attrib $-1 $-1 $520 $372 F #
coedge $-1 $524 $545 $526 $546 forward $523 $-1 #
coedge $-1 $527 $526 $544 $564 forward $529 $-1 #
coedge $-1 $528 $539 $532 $535 reversed $540 $-1 #
vertex $-1 $535 $566 #
straight-curve $-1 314.96062992126002 0 295.27559055118076 0 1 0 I I #
edge $-1 $561 -295.27559055118076 $501 295.27559055118076 $539 $567 forward 7 unknown #
edge $-1 $497 -295.27559055118076 $542 295.27559055118076 $559 $568 forward 7 unknown #
point $-1 314.96062992126002 -314.96062992126002 -295.27559055118076 #
point $-1 314.96062992126002 314.96062992126002 295.27559055118076 #
straight-curve $-1 314.96062992126002 314.96062992126002 0 0 0 -1 I I #
straight-curve $-1 314.96062992126002 -314.96062992126002 0 0 0 -1 I I #
End-of-ACIS-data 