105 570 1 0                             
body $-1 $1 $-1 $2 #
lump $-1 $-1 $3 $0 #
transform $-1 1 0 0 0 1 0 0 0 1 0 0 0 1 0 0 0 #
shell $-1 $-1 $-1 $4 $1 #
face $5 $6 $7 $3 $-1 $8 forward single #
pid_name-sg-attrib $-1 $-1 $-1 $4 7 114 119 105 108 115 111 110 784252905 180 1 #
face $9 $10 $11 $3 $-1 $12 forward single #
loop $-1 $13 $14 $4 #
cone-surface $-1 0 -0.00912500000000005 0 0 1 0 0.0805 0 0 1 0 1 0 #
pid_name-sg-attrib $-1 $-1 $-1 $6 7 114 119 105 108 115 111 110 784252905 181 1 #
face $15 $16 $17 $3 $-1 $18 forward single #
loop $-1 $19 $20 $6 #
torus-surface $-1 0 0.155538943780369 0 0 1 0 0.0705 0.01 0 0 1 0 #
loop $-1 $-1 $21 $4 #
coedge $-1 $14 $14 $22 $23 0 $7 $-1 #
pid_name-sg-attrib $-1 $-1 $-1 $10 7 114 119 105 108 115 111 110 784252905 182 1 #
face $24 $25 $26 $3 $-1 $27 reversed single #
loop $-1 $28 $29 $10 #
sphere-surface $-1 0 0.0175 0 0.165 1 0 0 0 0 1 0 #
loop $-1 $-1 $30 $6 #
coedge $-1 $20 $20 $21 $31 0 $11 $-1 #
coedge $-1 $21 $21 $20 $31 1 $13 $-1 #
coedge $-1 $22 $22 $14 $23 1 $32 $-1 #
edge $-1 $33 $33 $22 $34 0 #
pid_name-sg-attrib $-1 $-1 $-1 $16 7 114 119 105 108 115 111 110 784252905 183 1 #
face $35 $36 $37 $3 $-1 $38 reversed single #
loop $-1 $-1 $39 $16 #
plane-surface $-1 0 0.15 0 0 -1 0 0 0 -1 0 #
loop $-1 $-1 $40 $10 #
coedge $-1 $41 $42 $43 $44 1 $17 $-1 #
coedge $-1 $30 $30 $40 $45 1 $19 $-1 #
edge $-1 $46 $46 $21 $47 1 #
loop $-1 $-1 $22 $48 #
vertex $-1 $23 $49 #
ellipse-curve $-1 0 0.125 0 0 1 0 0.0805 0 0 1 #
pid_name-sg-attrib $-1 $-1 $-1 $25 7 114 119 105 108 115 111 110 784252905 184 1 #
face $50 $51 $52 $3 $-1 $53 forward single #
loop $-1 $-1 $54 $25 #
plane-surface $-1 0.034 0.15 0.0125 0 0 1 1 0 0 0 #
coedge $-1 $55 $56 $57 $58 1 $26 $-1 #
coedge $-1 $40 $40 $30 $45 0 $28 $-1 #
coedge $-1 $59 $29 $60 $61 1 $17 $-1 #
coedge $-1 $29 $62 $63 $64 1 $17 $-1 #
coedge $-1 $63 $65 $29 $44 0 $66 $-1 #
edge $-1 $67 $68 $29 $69 1 #
edge $-1 $70 $70 $30 $71 1 #
vertex $-1 $31 $72 #
ellipse-curve $-1 0 0.155538943780369 0 0 -1 0 0.0805 0 0 1 #
face $73 $74 $75 $3 $-1 $76 reversed single #
point $-1 -0.0805 0.125 9.85808114827014e-18 #
pid_name-sg-attrib $-1 $-1 $-1 $36 7 114 119 105 108 115 111 110 784252905 185 1 #
face $77 $78 $79 $3 $-1 $80 reversed single #
loop $-1 $-1 $81 $36 #
cone-surface $-1 0.0225 0.15 0.0225 0 -1 0 0 0 0.01 1 0 1 0 #
coedge $-1 $82 $83 $84 $85 0 $37 $-1 #
coedge $-1 $86 $39 $87 $88 1 $26 $-1 #
coedge $-1 $39 $89 $90 $91 1 $26 $-1 #
coedge $-1 $92 $93 $39 $58 0 $94 $-1 #
edge $-1 $95 $96 $39 $97 0 #
coedge $-1 $98 $41 $99 $100 1 $17 $-1 #
coedge $-1 $93 $92 $41 $61 0 $94 $-1 #
edge $-1 $101 $67 $41 $102 1 #
coedge $-1 $42 $103 $104 $105 1 $17 $-1 #
coedge $-1 $106 $43 $42 $64 0 $66 $-1 #
edge $-1 $68 $107 $42 $108 1 #
coedge $-1 $43 $87 $93 $109 1 $66 $-1 #
loop $-1 $-1 $63 $110 #
vertex $-1 $109 $111 #
vertex $-1 $64 $112 #
intcurve-curve $-1 0 { exactcur nubs 3 open 3 
	0 3 0.5 2 1 3 
	-0.039 0.177824670590649 0 
	-0.039 0.177824670590649 -0.0012759579015428 
	-0.039 0.177809441691977 -0.00253894354712396 
	-0.039 0.177750343428518 -0.00503892973646177 
	-0.039 0.177706474063731 -0.00627593028021842 
	-0.039 0.177649149232832 -0.0075 
	0 
	null_surface 
	null_surface 
	nullbs 
	nullbs 
	} #
vertex $-1 $45 $113 #
ellipse-curve $-1 0 0.16444468208878 0 0 -1 0 0.0750483870967742 0 0 1 #
point $-1 0.0805 0.155538943780369 0 #
pid_name-sg-attrib $-1 $-1 $-1 $48 7 114 119 105 108 115 111 110 784252905 209 1 #
face $114 $115 $116 $3 $-1 $117 forward single #
loop $-1 $32 $118 $48 #
plane-surface $-1 0 0.125 0 0 1 0 0 0 1 0 #
pid_name-sg-attrib $-1 $-1 $-1 $51 7 114 119 105 108 115 111 110 784252905 186 1 #
face $119 $120 $121 $3 $-1 $122 reversed single #
loop $-1 $-1 $123 $51 #
plane-surface $-1 0.0125 0.15 0.0225 1 0 0 0 0 -1 0 #
coedge $-1 $124 $125 $126 $127 0 $52 $-1 #
coedge $-1 $126 $54 $128 $129 0 $37 $-1 #
coedge $-1 $54 $126 $130 $131 0 $37 $-1 #
coedge $-1 $132 $133 $54 $85 1 $134 $-1 #
edge $-1 $135 $136 $84 $137 1 #
coedge $-1 $138 $55 $139 $140 1 $26 $-1 #
coedge $-1 $65 $106 $55 $88 0 $66 $-1 #
edge $-1 $141 $95 $55 $142 0 #
coedge $-1 $56 $143 $144 $145 1 $26 $-1 #
coedge $-1 $146 $147 $56 $91 0 $148 $-1 #
edge $-1 $96 $149 $56 $150 0 #
coedge $-1 $60 $57 $147 $151 0 $94 $-1 #
coedge $-1 $57 $60 $65 $109 0 $94 $-1 #
loop $-1 $-1 $93 $152 #
vertex $-1 $109 $153 #
vertex $-1 $151 $154 #
ellipse-curve $-1 -0.034 0.15 -0.0075 0 -1 0 -0.005 0 0 1 #
coedge $-1 $155 $59 $156 $157 1 $17 $-1 #
coedge $-1 $147 $146 $59 $100 0 $148 $-1 #
edge $-1 $158 $101 $59 $159 1 #
vertex $-1 $151 $160 #
intcurve-curve $-1 0 { exactcur nubs 3 open 7 
	0 3 0.166666666666667 2 0.333333333333333 2 0.5 2 0.666666666666667 2 
	0.833333333333333 2 1 3 
	-0.039 0.177649149232832 -0.0075 
	-0.039 0.177628949003968 -0.0079313399289229 
	-0.0389449868975434 0.177620282768891 -0.00836572874569633 
	-0.0387149509788119 0.177629118270117 -0.00921992402003928 
	-0.0385399281625371 0.17764662000642 -0.00963973047760881 
	-0.0380953587459279 0.177705235094627 -0.0104032666479598 
	-0.0378258121455936 0.177746348446531 -0.0107469963607413 
	-0.0372187074068846 0.177846882670125 -0.0113505204074497 
	-0.0368811492685098 0.177906303541814 -0.0116103147413766 
	-0.0361321198757224 0.178044811132284 -0.0120422647865728 
	-0.0357206486213099 0.178123897851064 -0.0122144204978422 
	-0.0348733183312879 0.178292481999706 -0.0124432881045557 
	-0.0344374592956785 0.178381979429568 -0.0125 
	-0.034 0.178474376843024 -0.0125 
	0 
	null_surface 
	null_surface 
	nullbs 
	nullbs 
	} #
coedge $-1 $62 $161 $162 $163 1 $17 $-1 #
coedge $-1 $164 $165 $62 $105 0 $166 $-1 #
edge $-1 $107 $167 $62 $168 1 #
coedge $-1 $87 $63 $165 $169 0 $66 $-1 #
vertex $-1 $169 $170 #
intcurve-curve $-1 0 { exactcur nubs 3 open 3 
	0 3 0.5 2 1 3 
	-0.039 0.177649149232832 0.0075 
	-0.039 0.177706689694651 0.00627132586577517 
	-0.039 0.177750560635071 0.0050320168179804 
	-0.039 0.17780955108307 0.00253202808227016 
	-0.039 0.177824670590649 0.0012713483943547 
	-0.039 0.177824670590649 0 
	0 
	null_surface 
	null_surface 
	nullbs 
	nullbs 
	} #
edge $-1 $67 $95 $65 $171 1 #
face $172 $152 $66 $3 $-1 $173 reversed single #
point $-1 -0.039 0.177649149232832 -0.0075 #
point $-1 -0.039 0.177824670590649 0 #
point $-1 0.0750483870967742 0.16444468208878 0 #
pid_name-sg-attrib $-1 $-1 $-1 $74 7 114 119 105 108 115 111 110 784252905 210 1 #
face $174 $-1 $175 $3 $-1 $176 reversed single #
loop $-1 $177 $178 $74 #
cone-surface $-1 0 0.965 0 0 1 0 1 0 0 1 0.707106781186547 0.707106781186548 0 #
coedge $-1 $118 $118 $179 $180 1 $75 $-1 #
pid_name-sg-attrib $-1 $-1 $-1 $78 7 114 119 105 108 115 111 110 784252905 187 1 #
face $181 $182 $183 $3 $-1 $184 reversed single #
loop $-1 $-1 $185 $78 #
cone-surface $-1 0.0075 0.15 0.034 0 -1 0 0 0 0.005 1 0 1 0 #
coedge $-1 $186 $187 $188 $189 0 $79 $-1 #
coedge $-1 $188 $81 $190 $191 0 $52 $-1 #
coedge $-1 $81 $188 $192 $193 0 $52 $-1 #
coedge $-1 $83 $82 $81 $127 1 $37 $-1 #
edge $-1 $194 $195 $126 $196 1 #
coedge $-1 $197 $190 $82 $129 1 $26 $-1 #
edge $-1 $136 $195 $128 $198 0 #
coedge $-1 $192 $199 $83 $131 1 $17 $-1 #
edge $-1 $194 $135 $130 $200 1 #
coedge $-1 $201 $84 $199 $202 0 $134 $-1 #
coedge $-1 $84 $201 $197 $203 0 $134 $-1 #
loop $-1 $-1 $201 $204 #
vertex $-1 $85 $205 #
vertex $-1 $85 $206 #
straight-curve $-1 0.034 0.15 0.0125 0 1 0 #
coedge $-1 $207 $86 $208 $209 1 $26 $-1 #
coedge $-1 $165 $164 $86 $140 0 $166 $-1 #
edge $-1 $210 $141 $86 $211 0 #
vertex $-1 $169 $212 #
straight-curve $-1 -0.039 0.15 0.0075 0 0 -1 #
coedge $-1 $89 $213 $214 $215 1 $26 $-1 #
coedge $-1 $216 $217 $89 $145 0 $218 $-1 #
edge $-1 $149 $219 $89 $220 0 #
coedge $-1 $99 $90 $217 $221 1 $148 $-1 #
coedge $-1 $90 $99 $92 $151 1 $148 $-1 #
loop $-1 $-1 $147 $222 #
vertex $-1 $221 $223 #
straight-curve $-1 -0.034 0.15 -0.0125 1 0 0 #
edge $-1 $96 $101 $147 $224 0 #
face $225 $222 $94 $3 $-1 $226 reversed single #
point $-1 -0.039 0.15 -0.0075 #
point $-1 -0.034 0.15 -0.0125 #
coedge $-1 $227 $98 $228 $229 1 $17 $-1 #
coedge $-1 $217 $216 $98 $157 0 $218 $-1 #
edge $-1 $230 $158 $98 $231 1 #
vertex $-1 $221 $232 #
intcurve-curve $-1 0 { exactcur nubs 3 open 4 
	0 3 0.333333333333333 2 0.666666666666667 2 1 3 
	-0.034 0.178474376843024 -0.0125 
	-0.0325900750471597 0.178772172363881 -0.0125 
	-0.0312235132311076 0.179041461137049 -0.0125 
	-0.0285809756216773 0.179529895928216 -0.0125 
	-0.0273049998282991 0.179749041946214 -0.0125 
	-0.0248380222770114 0.180144948834972 -0.0125 
	-0.0236470205191019 0.180321709705731 -0.0125 
	-0.0225 0.180480060130066 -0.0125 
	0 
	null_surface 
	null_surface 
	nullbs 
	nullbs 
	} #
point $-1 -0.034 0.178474376843024 -0.0125 #
coedge $-1 $103 $233 $234 $235 1 $17 $-1 #
coedge $-1 $236 $237 $103 $163 0 $238 $-1 #
edge $-1 $167 $239 $103 $240 1 #
coedge $-1 $139 $104 $237 $241 0 $166 $-1 #
coedge $-1 $104 $139 $106 $169 1 $166 $-1 #
loop $-1 $-1 $164 $242 #
vertex $-1 $241 $243 #
intcurve-curve $-1 0 { exactcur nubs 3 open 7 
	0 3 0.166666666666667 2 0.333333333333333 2 0.5 2 0.666666666666667 2 
	0.833333333333333 2 1 3 
	-0.034 0.178474376843024 0.0125 
	-0.0344381469866861 0.178381834179779 0.0125 
	-0.0348744817932396 0.178292235615441 0.0124432997750731 
	-0.0357235912232112 0.178123327052638 0.0122133050424178 
	-0.0361363658466295 0.178044017054174 0.0120400105346894 
	-0.0368844994911416 0.177905694112556 0.01160816333382 
	-0.0372198585122355 0.177846681169403 0.0113496106406791 
	-0.0378242874701336 0.177746611836733 0.0107482768886547 
	-0.0380933574069377 0.177705555447217 0.0104054958297712 
	-0.038537279647532 0.177646914242723 0.0096454549751777 
	-0.0387121319513222 0.177629329427745 0.00922819517946773 
	-0.0389434921275561 0.17762023522406 0.0083735203406047 
	-0.039 0.177628725835352 0.00793610529745164 
	-0.039 0.177649149232832 0.0075 
	0 
	null_surface 
	null_surface 
	nullbs 
	nullbs 
	} #
edge $-1 $107 $141 $165 $244 1 #
point $-1 -0.039 0.177649149232832 0.0075 #
straight-curve $-1 -0.039 0.15 -0.0075 0 1 0 #
pid_name-sg-attrib $-1 $-1 $-1 $110 7 114 119 105 108 115 111 110 784252905 194 1 #
plane-surface $-1 -0.039 0.15 0.0075 -1 0 0 0 0 1 0 #
pid_name-sg-attrib $-1 $-1 $-1 $115 7 114 119 105 108 115 111 110 784252905 211 1 #
loop $-1 $-1 $245 $115 #
plane-surface $-1 0 0 0 0 1 0 0 0 1 0 #
loop $-1 $-1 $246 $74 #
coedge $-1 $178 $178 $245 $247 0 $116 $-1 #
coedge $-1 $179 $179 $118 $180 0 $248 $-1 #
edge $-1 $249 $249 $118 $250 0 #
pid_name-sg-attrib $-1 $-1 $-1 $120 7 114 119 105 108 115 111 110 784252905 188 1 #
face $251 $252 $253 $3 $-1 $254 reversed single #
loop $-1 $-1 $255 $120 #
plane-surface $-1 0.0075 0.15 0.039 0 0 1 1 0 0 0 #
coedge $-1 $256 $257 $258 $259 0 $121 $-1 #
coedge $-1 $258 $123 $260 $261 0 $79 $-1 #
coedge $-1 $123 $258 $262 $263 0 $79 $-1 #
coedge $-1 $125 $124 $123 $189 1 $52 $-1 #
edge $-1 $264 $265 $188 $266 1 #
coedge $-1 $128 $260 $124 $191 1 $26 $-1 #
edge $-1 $195 $265 $190 $267 0 #
coedge $-1 $262 $130 $125 $193 1 $17 $-1 #
edge $-1 $264 $194 $192 $268 1 #
vertex $-1 $127 $269 #
vertex $-1 $127 $270 #
straight-curve $-1 0.0225 0.15 0.0125 0 1 0 #
coedge $-1 $271 $128 $133 $203 1 $26 $-1 #
straight-curve $-1 0.034 0.15 0.0125 -1 0 0 #
coedge $-1 $130 $272 $132 $202 1 $17 $-1 #
intcurve-curve $-1 0 { exactcur nubs 3 open 4 
	0 3 0.333333333333333 2 0.666666666666667 2 1 3 
	0.034 0.178474376843024 0.0125 
	0.0325900750471597 0.178772172363881 0.0125 
	0.0312235132311076 0.179041461137049 0.0125 
	0.0285809756216773 0.179529895928216 0.0125 
	0.0273049998282991 0.179749041946214 0.0125 
	0.0248380222770114 0.180144948834972 0.0125 
	0.0236470205191019 0.180321709705731 0.0125 
	0.0225 0.180480060130066 0.0125 
	0 
	null_surface 
	null_surface 
	nullbs 
	nullbs 
	} #
coedge $-1 $133 $132 $273 $274 0 $134 $-1 #
edge $-1 $135 $275 $199 $276 1 #
edge $-1 $277 $136 $197 $278 0 #
face $279 $280 $134 $3 $-1 $281 reversed single #
point $-1 0.034 0.178474376843024 0.0125 #
point $-1 0.034 0.15 0.0125 #
coedge $-1 $282 $138 $283 $284 1 $26 $-1 #
coedge $-1 $237 $236 $138 $209 0 $238 $-1 #
edge $-1 $285 $210 $138 $286 0 #
vertex $-1 $241 $287 #
ellipse-curve $-1 -0.034 0.15 0.0075 0 -1 0 0 0 0.005 1 #
point $-1 -0.039 0.15 0.0075 #
coedge $-1 $143 $288 $289 $290 1 $26 $-1 #
coedge $-1 $291 $292 $143 $215 0 $293 $-1 #
edge $-1 $219 $294 $143 $295 0 #
coedge $-1 $156 $144 $292 $296 1 $218 $-1 #
coedge $-1 $144 $156 $146 $221 0 $218 $-1 #
loop $-1 $-1 $217 $297 #
vertex $-1 $296 $298 #
ellipse-curve $-1 -0.0225 0.15 -0.0225 0 1 0 1.38777878078145e-17 0 0.01 1 #
edge $-1 $158 $149 $146 $299 1 #
face $300 $297 $148 $3 $-1 $301 reversed single #
point $-1 -0.0225 0.15 -0.0125 #
straight-curve $-1 -0.034 0.15 -0.0125 0 1 0 #
pid_name-sg-attrib $-1 $-1 $-1 $152 7 114 119 105 108 115 111 110 784252905 195 1 #
cone-surface $-1 -0.034 0.15 -0.0075 0 -1 0 0 0 0.005 1 0 1 0 #
coedge $-1 $302 $155 $303 $304 1 $17 $-1 #
coedge $-1 $292 $291 $155 $229 0 $293 $-1 #
edge $-1 $305 $230 $155 $306 1 #
vertex $-1 $296 $307 #
intcurve-curve $-1 0 { exactcur nubs 3 open 10 
	0 3 0.111111111111111 2 0.222222222222222 2 0.333333333333333 2 0.444444444444444 2 
	0.555555555555556 2 0.666666666666667 2 0.777777777777778 2 0.888888888888889 2 1 3 
	-0.0225 0.180480060130066 -0.0125 
	-0.0218706045905929 0.180566950493834 -0.0125 
	-0.0212596361301115 0.180642996090647 -0.012559632124352 
	-0.0200957642326099 0.180773723227393 -0.012775249175677 
	-0.0195428607955897 0.180828404767327 -0.0129312341026499 
	-0.0184986836435642 0.180918902414933 -0.0133183020042159 
	-0.0180074099285589 0.180954718522607 -0.0135493849788088 
	-0.0170723107087525 0.181009792269915 -0.0140843241861793 
	-0.0166284852039514 0.181029049909548 -0.0143881804189569 
	-0.015800560952964 0.181051022438438 -0.0150563986778649 
	-0.0154164622067778 0.181053737327693 -0.0154207607039954 
	-0.0146981696021882 0.181042377399042 -0.0162216267167541 
	-0.0143639757437848 0.181028302581136 -0.0166581307033823 
	-0.0137551295824785 0.180980216440666 -0.0176164138277713 
	-0.0134804772795755 0.180946205118102 -0.018138192965532 
	-0.0130173230210332 0.18085443229209 -0.0192678221593289 
	-0.0128288210653939 0.180796670788642 -0.019875672215365 
	-0.0125701595548773 0.180656748726717 -0.0211494014613561 
	-0.0125 0.18057458816824 -0.021815280651311 
	-0.0125 0.180480060130066 -0.0225 
	0 
	null_surface 
	null_surface 
	nullbs 
	nullbs 
	} #
point $-1 -0.0225 0.180480060130066 -0.0125 #
coedge $-1 $161 $308 $309 $310 1 $17 $-1 #
coedge $-1 $311 $312 $161 $235 0 $313 $-1 #
edge $-1 $239 $314 $161 $315 1 #
coedge $-1 $208 $162 $312 $316 0 $238 $-1 #
coedge $-1 $162 $208 $164 $241 1 $238 $-1 #
loop $-1 $-1 $236 $317 #
vertex $-1 $316 $318 #
intcurve-curve $-1 0 { exactcur nubs 3 open 4 
	0 3 0.333333333333333 2 0.666666666666667 2 1 3 
	-0.0225 0.180480060130066 0.0125 
	-0.0236470205191019 0.180321709705731 0.0125 
	-0.0248380222770114 0.180144948834972 0.0125 
	-0.0273049998282991 0.179749041946214 0.0125 
	-0.0285809756216773 0.179529895928216 0.0125 
	-0.0312235132311076 0.179041461137049 0.0125 
	-0.0325900750471597 0.178772172363881 0.0125 
	-0.034 0.178474376843024 0.0125 
	0 
	null_surface 
	null_surface 
	nullbs 
	nullbs 
	} #
edge $-1 $167 $210 $237 $319 1 #
face $320 $110 $166 $3 $-1 $321 reversed single #
point $-1 -0.034 0.178474376843024 0.0125 #
straight-curve $-1 -0.039 0.15 0.0075 0 1 0 #
coedge $-1 $245 $245 $178 $247 1 $175 $-1 #
coedge $-1 $246 $246 $322 $323 1 $177 $-1 #
edge $-1 $324 $324 $245 $325 1 #
loop $-1 $-1 $179 $280 #
vertex $-1 $180 $326 #
ellipse-curve $-1 0 0.125 0 0 -1 0 0.043 0 0 1 #
pid_name-sg-attrib $-1 $-1 $-1 $182 7 114 119 105 108 115 111 110 784252905 189 1 #
face $327 $328 $329 $3 $-1 $330 reversed single #
loop $-1 $-1 $331 $182 #
cone-surface $-1 -0.0075 0.15 0.034 0 -1 0 0 0 0.005 1 0 1 0 #
coedge $-1 $332 $333 $334 $335 0 $183 $-1 #
coedge $-1 $334 $185 $336 $337 0 $121 $-1 #
coedge $-1 $185 $334 $338 $339 0 $121 $-1 #
coedge $-1 $187 $186 $185 $259 1 $79 $-1 #
edge $-1 $340 $341 $258 $342 1 #
coedge $-1 $190 $336 $186 $261 1 $26 $-1 #
edge $-1 $265 $341 $260 $343 0 #
coedge $-1 $338 $192 $187 $263 1 $17 $-1 #
edge $-1 $340 $264 $262 $344 1 #
vertex $-1 $189 $345 #
vertex $-1 $189 $346 #
straight-curve $-1 0.0125 0.15 0.0225 0 1 0 #
ellipse-curve $-1 0.0225 0.15 0.0225 0 1 0 -1.38777878078145e-17 0 -0.01 1 #
intcurve-curve $-1 0 { exactcur nubs 3 open 10 
	0 3 0.111111111111111 2 0.222222222222222 2 0.333333333333333 2 0.444444444444444 2 
	0.555555555555556 2 0.666666666666667 2 0.777777777777778 2 0.888888888888889 2 1 3 
	0.0225 0.180480060130066 0.0125 
	0.0218706045905929 0.180566950493834 0.0125 
	0.0212596361301115 0.180642996090647 0.012559632124352 
	0.0200957642326099 0.180773723227393 0.012775249175677 
	0.0195428607955896 0.180828404767327 0.0129312341026499 
	0.0184986836435642 0.180918902414933 0.0133183020042159 
	0.0180074099285589 0.180954718522607 0.0135493849788088 
	0.0170723107087525 0.181009792269915 0.0140843241861793 
	0.0166284852039514 0.181029049909548 0.0143881804189569 
	0.015800560952964 0.181051022438438 0.0150563986778649 
	0.0154164622067778 0.181053737327693 0.0154207607039954 
	0.0146981696021882 0.181042377399042 0.0162216267167541 
	0.0143639757437848 0.181028302581136 0.0166581307033823 
	0.0137551295824785 0.180980216440666 0.0176164138277713 
	0.0134804772795755 0.180946205118102 0.018138192965532 
	0.0130173230210332 0.18085443229209 0.0192678221593289 
	0.0128288210653939 0.180796670788642 0.019875672215365 
	0.0125701595548773 0.180656748726717 0.0211494014613561 
	0.0125 0.18057458816824 0.021815280651311 
	0.0125 0.180480060130066 0.0225 
	0 
	null_surface 
	null_surface 
	nullbs 
	nullbs 
	} #
point $-1 0.0225 0.180480060130066 0.0125 #
point $-1 0.0225 0.15 0.0125 #
coedge $-1 $347 $197 $348 $349 1 $26 $-1 #
coedge $-1 $199 $350 $351 $352 1 $17 $-1 #
coedge $-1 $351 $348 $201 $274 1 $353 $-1 #
edge $-1 $275 $277 $273 $354 1 #
vertex $-1 $274 $355 #
intcurve-curve $-1 0 { exactcur nubs 3 open 7 
	0 3 0.166666666666667 2 0.333333333333333 2 0.5 2 0.666666666666667 2 
	0.833333333333333 2 1 3 
	0.039 0.177649149232832 0.0075 
	0.039 0.177628949003968 0.00793133992892291 
	0.0389449868975434 0.177620282768891 0.00836572874569634 
	0.0387149509788119 0.177629118270117 0.00921992402003929 
	0.0385399281625371 0.17764662000642 0.00963973047760881 
	0.0380953587459279 0.177705235094627 0.0104032666479598 
	0.0378258121455936 0.177746348446531 0.0107469963607413 
	0.0372187074068846 0.177846882670125 0.0113505204074497 
	0.0368811492685098 0.177906303541814 0.0116103147413766 
	0.0361321198757225 0.178044811132284 0.0120422647865728 
	0.0357206486213099 0.178123897851064 0.0122144204978422 
	0.0348733183312879 0.178292481999706 0.0124432881045557 
	0.0344374592956785 0.178381979429568 0.0125 
	0.034 0.178474376843024 0.0125 
	0 
	null_surface 
	null_surface 
	nullbs 
	nullbs 
	} #
vertex $-1 $274 $356 #
ellipse-curve $-1 0.034 0.15 0.0075 0 -1 0 0.005 0 0 1 #
pid_name-sg-attrib $-1 $-1 $-1 $204 7 114 119 105 108 115 111 110 784252905 207 1 #
face $357 $48 $358 $3 $-1 $359 forward single #
cone-surface $-1 0.034 0.15 0.0075 0 -1 0 0 0 0.005 1 0 1 0 #
coedge $-1 $360 $207 $361 $362 1 $26 $-1 #
coedge $-1 $312 $311 $207 $284 0 $313 $-1 #
edge $-1 $363 $285 $207 $364 0 #
vertex $-1 $316 $365 #
straight-curve $-1 -0.0225 0.15 0.0125 -1 0 0 #
point $-1 -0.034 0.15 0.0125 #
coedge $-1 $213 $366 $367 $368 1 $26 $-1 #
coedge $-1 $369 $370 $213 $290 0 $371 $-1 #
edge $-1 $294 $372 $213 $373 0 #
coedge $-1 $228 $214 $370 $374 1 $293 $-1 #
coedge $-1 $214 $228 $216 $296 0 $293 $-1 #
loop $-1 $-1 $292 $375 #
vertex $-1 $374 $376 #
straight-curve $-1 -0.0125 0.15 -0.0225 0 0 -1 #
edge $-1 $230 $219 $216 $377 1 #
face $378 $375 $218 $3 $-1 $379 forward single #
point $-1 -0.0125 0.15 -0.0225 #
straight-curve $-1 -0.0225 0.15 -0.0125 0 1 0 #
pid_name-sg-attrib $-1 $-1 $-1 $222 7 114 119 105 108 115 111 110 784252905 196 1 #
plane-surface $-1 -0.034 0.15 -0.0125 0 0 -1 -1 0 0 0 #
coedge $-1 $380 $227 $381 $382 1 $17 $-1 #
coedge $-1 $370 $369 $227 $304 0 $371 $-1 #
edge $-1 $383 $305 $227 $384 1 #
vertex $-1 $374 $385 #
intcurve-curve $-1 0 { exactcur nubs 3 open 4 
	0 3 0.333333333333333 2 0.666666666666667 2 1 3 
	-0.0125 0.180480060130066 -0.0225 
	-0.0125 0.180321095624842 -0.0236514686497786 
	-0.0125 0.180143783242078 -0.0248452817034502 
	-0.0125 0.179748637546932 -0.0273075218056331 
	-0.0125 0.179530804234551 -0.0285759488541443 
	-0.0125 0.179043148703919 -0.0312144933567367 
	-0.0125 0.178773326485669 -0.0325846108108178 
	-0.0125 0.178474376843024 -0.034 
	0 
	null_surface 
	null_surface 
	nullbs 
	nullbs 
	} #
point $-1 -0.0125 0.180480060130066 -0.0225 #
coedge $-1 $233 $386 $387 $388 1 $17 $-1 #
coedge $-1 $389 $390 $233 $310 0 $329 $-1 #
edge $-1 $314 $391 $233 $392 1 #
coedge $-1 $283 $234 $390 $393 0 $313 $-1 #
coedge $-1 $234 $283 $236 $316 1 $313 $-1 #
loop $-1 $-1 $311 $328 #
vertex $-1 $393 $394 #
intcurve-curve $-1 0 { exactcur nubs 3 open 10 
	0 3 0.111111111111111 2 0.222222222222222 2 0.333333333333333 2 0.444444444444444 2 
	0.555555555555556 2 0.666666666666667 2 0.777777777777778 2 0.888888888888889 2 1 3 
	-0.0125 0.180480060130066 0.0225 
	-0.0125 0.180572742673929 0.021828648596811 
	-0.0125673882548458 0.180653940547291 0.0211725348640023 
	-0.01282010584483 0.180793195697665 0.0199096070081749 
	-0.0130054351799685 0.180851252974676 0.0193027928851562 
	-0.0134651100960873 0.18094394637745 0.0181699693988354 
	-0.0137394556770676 0.180978582503212 0.0176439600355334 
	-0.0143514938051659 0.181027695109517 0.0166750282807532 
	-0.0146891863522838 0.181042171590061 0.0162321058892749 
	-0.0154179720365134 0.181053824898431 0.0154186144019308 
	-0.0158090651736252 0.181051001726257 0.015048045306065 
	-0.0166526457058629 0.181028200605054 0.0143701927290463 
	-0.0171051331009889 0.181008222656025 0.0140629092478934 
	-0.0180534070673114 0.180951604365038 0.0135260118544323 
	-0.0185491936385079 0.180914964023081 0.0132963979421241 
	-0.0195955538305235 0.180823360040476 0.0129151611237098 
	-0.0201461274513425 0.18076839639983 0.0127635382176035 
	-0.0212932887031349 0.180638861358779 0.0125559576557486 
	-0.0218898763341083 0.180564289958375 0.0125 
	-0.0225 0.180480060130066 0.0125 
	0 
	null_surface 
	null_surface 
	nullbs 
	nullbs 
	} #
edge $-1 $239 $285 $312 $395 1 #
face $396 $242 $238 $3 $-1 $397 reversed single #
point $-1 -0.0225 0.180480060130066 0.0125 #
straight-curve $-1 -0.034 0.15 0.0125 0 1 0 #
pid_name-sg-attrib $-1 $-1 $-1 $242 7 114 119 105 108 115 111 110 784252905 193 1 #
cone-surface $-1 -0.034 0.15 0.0075 0 -1 0 0 0 0.005 1 0 1 0 #
coedge $-1 $322 $322 $246 $323 0 $358 $-1 #
edge $-1 $398 $398 $246 $399 1 #
vertex $-1 $247 $400 #
ellipse-curve $-1 0 1.38777878078145e-17 0 -3.96508223080413e-16 -1 0 0.035 -1.38777878078145e-17 0 1 #
point $-1 0.043 0.125 0 #
pid_name-sg-attrib $-1 $-1 $-1 $252 7 114 119 105 108 115 111 110 784252905 190 1 #
face $401 $317 $313 $3 $-1 $402 forward single #
loop $-1 $-1 $389 $252 #
plane-surface $-1 -0.0125 0.15 0.034 -1 0 0 0 0 1 0 #
coedge $-1 $403 $387 $404 $405 0 $253 $-1 #
coedge $-1 $404 $255 $406 $407 0 $183 $-1 #
coedge $-1 $255 $404 $386 $408 0 $183 $-1 #
coedge $-1 $257 $256 $255 $335 1 $121 $-1 #
edge $-1 $409 $410 $334 $411 1 #
coedge $-1 $260 $406 $256 $337 1 $26 $-1 #
edge $-1 $341 $410 $336 $412 0 #
coedge $-1 $386 $262 $257 $339 1 $17 $-1 #
edge $-1 $409 $340 $338 $413 1 #
vertex $-1 $259 $414 #
vertex $-1 $259 $415 #
straight-curve $-1 0.0125 0.15 0.034 0 1 0 #
straight-curve $-1 0.0125 0.15 0.0225 0 0 1 #
intcurve-curve $-1 0 { exactcur nubs 3 open 4 
	0 3 0.333333333333333 2 0.666666666666667 2 1 3 
	0.0125 0.180480060130066 0.0225 
	0.0125 0.180321095624842 0.0236514686497786 
	0.0125 0.180143783242078 0.0248452817034502 
	0.0125 0.179748637546932 0.027307521805633 
	0.0125 0.179530804234551 0.0285759488541443 
	0.0125 0.179043148703919 0.0312144933567367 
	0.0125 0.178773326485669 0.0325846108108178 
	0.0125 0.178474376843024 0.034 
	0 
	null_surface 
	null_surface 
	nullbs 
	nullbs 
	} #
point $-1 0.0125 0.180480060130066 0.0225 #
point $-1 0.0125 0.15 0.0225 #
coedge $-1 $416 $271 $417 $418 1 $26 $-1 #
coedge $-1 $273 $419 $271 $349 0 $353 $-1 #
edge $-1 $420 $277 $271 $421 0 #
coedge $-1 $272 $422 $423 $424 1 $17 $-1 #
coedge $-1 $423 $273 $272 $352 0 $353 $-1 #
edge $-1 $275 $425 $272 $426 1 #
loop $-1 $-1 $419 $427 #
straight-curve $-1 0.039 0.15 0.0075 0 1 0 #
point $-1 0.039 0.177649149232832 0.0075 #
point $-1 0.039 0.15 0.0075 #
pid_name-sg-attrib $-1 $-1 $-1 $280 7 114 119 105 108 115 111 110 784252905 208 1 #
loop $-1 $248 $322 $280 #
cone-surface $-1 0 -0.00912500000000005 0 0 1 0 0.043 0 0 1 0 1 0 #
coedge $-1 $406 $282 $403 $428 1 $26 $-1 #
coedge $-1 $390 $389 $282 $362 0 $329 $-1 #
edge $-1 $429 $363 $282 $430 0 #
vertex $-1 $393 $431 #
ellipse-curve $-1 -0.0225 0.15 0.0225 0 1 0 0.01 0 -1.38777878078145e-17 1 #
point $-1 -0.0225 0.15 0.0125 #
coedge $-1 $288 $432 $433 $434 1 $26 $-1 #
coedge $-1 $435 $436 $288 $368 0 $437 $-1 #
edge $-1 $372 $438 $288 $439 0 #
coedge $-1 $303 $289 $436 $440 1 $371 $-1 #
coedge $-1 $289 $303 $291 $374 0 $371 $-1 #
loop $-1 $-1 $370 $441 #
vertex $-1 $440 $442 #
ellipse-curve $-1 -0.0075 0.15 -0.034 0 -1 0 -0.005 0 0 1 #
edge $-1 $305 $294 $291 $443 1 #
face $444 $441 $293 $3 $-1 $445 reversed single #
point $-1 -0.0125 0.15 -0.034 #
straight-curve $-1 -0.0125 0.15 -0.0225 0 1 0 #
pid_name-sg-attrib $-1 $-1 $-1 $297 7 114 119 105 108 115 111 110 784252905 197 1 #
cone-surface $-1 -0.0225 0.15 -0.0225 0 -1 0 0 0 0.01 1 0 1 0 #
coedge $-1 $446 $302 $447 $448 1 $17 $-1 #
coedge $-1 $436 $435 $302 $382 0 $437 $-1 #
edge $-1 $449 $383 $302 $450 1 #
vertex $-1 $440 $451 #
intcurve-curve $-1 0 { exactcur nubs 3 open 7 
	0 3 0.166666666666667 2 0.333333333333333 2 0.5 2 0.666666666666667 2 
	0.833333333333333 2 1 3 
	-0.0125 0.178474376843024 -0.034 
	-0.0125 0.178381815116749 -0.0344382372413707 
	-0.0124427662631268 0.178292384229411 -0.0348738938494322 
	-0.0122158682080696 0.178124682221596 -0.0357166235027228 
	-0.0120462038898857 0.17804641110112 -0.0361236965479519 
	-0.0116182914863378 0.177908515958424 -0.0368689500323101 
	-0.0113600434009737 0.177848891936205 -0.0372071304714392 
	-0.0107591355075794 0.177747969159486 -0.0378154966486644 
	-0.0104164756995492 0.177706670404986 -0.0380856823867604 
	-0.00965624746627007 0.177647492346139 -0.0385321757974383 
	-0.00923867904102118 0.177629613041791 -0.0387084834700201 
	-0.00838058301722891 0.177620137291653 -0.038942395571301 
	-0.00794005541868553 0.177628540845863 -0.039 
	-0.0075 0.177649149232832 -0.039 
	0 
	null_surface 
	null_surface 
	nullbs 
	nullbs 
	} #
point $-1 -0.0125 0.178474376843024 -0.034 #
coedge $-1 $308 $338 $333 $408 1 $17 $-1 #
coedge $-1 $331 $452 $308 $388 0 $253 $-1 #
edge $-1 $391 $453 $308 $454 1 #
coedge $-1 $361 $309 $452 $455 0 $329 $-1 #
coedge $-1 $309 $361 $311 $393 1 $329 $-1 #
vertex $-1 $455 $456 #
intcurve-curve $-1 0 { exactcur nubs 3 open 4 
	0 3 0.333333333333333 2 0.666666666666667 2 1 3 
	-0.0125 0.178474376843024 0.034 
	-0.0125 0.178772535537031 0.0325883555891762 
	-0.0125 0.179042045235625 0.0312206089734705 
	-0.0125 0.179530957172306 0.0285749770903613 
	-0.0125 0.179750359410392 0.0272970918229579 
	-0.0125 0.180146028955295 0.0248309891596816 
	-0.0125 0.180322296262111 0.0236427717638087 
	-0.0125 0.180480060130066 0.0225 
	0 
	null_surface 
	null_surface 
	nullbs 
	nullbs 
	} #
edge $-1 $314 $363 $390 $457 1 #
point $-1 -0.0125 0.180480060130066 0.0225 #
straight-curve $-1 -0.0225 0.15 0.0125 0 1 0 #
pid_name-sg-attrib $-1 $-1 $-1 $317 7 114 119 105 108 115 111 110 784252905 192 1 #
plane-surface $-1 -0.0225 0.15 0.0125 0 0 1 1 0 0 0 #
vertex $-1 $323 $458 #
ellipse-curve $-1 0 0.008 0 -1.61369625672261e-16 -1 0 0.043 -6.93889390390723e-18 0 1 #
point $-1 0.035 0 0 #
pid_name-sg-attrib $-1 $-1 $-1 $328 7 114 119 105 108 115 111 110 784252905 191 1 #
cone-surface $-1 -0.0225 0.15 0.0225 0 -1 0 0 0 0.01 1 0 1 0 #
coedge $-1 $452 $331 $360 $428 0 $253 $-1 #
coedge $-1 $333 $332 $331 $405 1 $183 $-1 #
edge $-1 $453 $459 $404 $460 1 #
coedge $-1 $336 $360 $332 $407 1 $26 $-1 #
edge $-1 $410 $459 $406 $461 0 #
edge $-1 $453 $409 $386 $462 1 #
vertex $-1 $335 $463 #
vertex $-1 $335 $464 #
straight-curve $-1 0.0075 0.15 0.039 0 1 0 #
ellipse-curve $-1 0.0075 0.15 0.034 0 -1 0 0.005 0 0 1 #
intcurve-curve $-1 0 { exactcur nubs 3 open 7 
	0 3 0.166666666666667 2 0.333333333333333 2 0.5 2 0.666666666666667 2 
	0.833333333333333 2 1 3 
	0.0125 0.178474376843024 0.034 
	0.0125 0.178381815116749 0.0344382372413707 
	0.0124427662631268 0.178292384229411 0.0348738938494322 
	0.0122158682080696 0.178124682221596 0.0357166235027228 
	0.0120462038898858 0.17804641110112 0.0361236965479519 
	0.0116182914863378 0.177908515958424 0.0368689500323101 
	0.0113600434009737 0.177848891936205 0.0372071304714392 
	0.0107591355075794 0.177747969159486 0.0378154966486644 
	0.0104164756995492 0.177706670404986 0.0380856823867604 
	0.00965624746627008 0.177647492346139 0.0385321757974383 
	0.00923867904102118 0.177629613041791 0.0387084834700201 
	0.00838058301722891 0.177620137291653 0.038942395571301 
	0.00794005541868553 0.177628540845863 0.039 
	0.0075 0.177649149232832 0.039 
	0 
	null_surface 
	null_surface 
	nullbs 
	nullbs 
	} #
point $-1 0.0125 0.178474376843024 0.034 #
point $-1 0.0125 0.15 0.034 #
coedge $-1 $465 $347 $466 $467 1 $26 $-1 #
coedge $-1 $468 $469 $347 $418 0 $470 $-1 #
edge $-1 $471 $420 $347 $472 0 #
coedge $-1 $348 $423 $468 $473 0 $353 $-1 #
vertex $-1 $473 $474 #
straight-curve $-1 0.039 0.15 -0.0075 0 0 1 #
coedge $-1 $350 $475 $476 $477 1 $17 $-1 #
coedge $-1 $419 $351 $350 $424 0 $353 $-1 #
edge $-1 $425 $478 $350 $479 1 #
vertex $-1 $352 $480 #
intcurve-curve $-1 0 { exactcur nubs 3 open 3 
	0 3 0.5 2 1 3 
	0.039 0.177824670590649 0 
	0.039 0.177824670590649 0.0012759579015428 
	0.039 0.177809441691977 0.00253894354712396 
	0.039 0.177750343428518 0.00503892973646177 
	0.039 0.177706474063731 0.00627593028021842 
	0.039 0.177649149232832 0.0075 
	0 
	null_surface 
	null_surface 
	nullbs 
	nullbs 
	} #
face $481 $204 $353 $3 $-1 $482 reversed single #
edge $-1 $459 $429 $360 $483 0 #
vertex $-1 $455 $484 #
straight-curve $-1 -0.0125 0.15 0.034 0 0 -1 #
point $-1 -0.0125 0.15 0.0225 #
coedge $-1 $366 $465 $485 $486 1 $26 $-1 #
coedge $-1 $487 $488 $366 $434 0 $489 $-1 #
edge $-1 $438 $490 $366 $491 0 #
coedge $-1 $381 $367 $488 $492 1 $437 $-1 #
coedge $-1 $367 $381 $369 $440 0 $437 $-1 #
loop $-1 $-1 $436 $493 #
vertex $-1 $492 $494 #
straight-curve $-1 -0.0075 0.15 -0.039 1 0 0 #
edge $-1 $383 $372 $369 $495 1 #
face $496 $493 $371 $3 $-1 $497 reversed single #
point $-1 -0.0075 0.15 -0.039 #
straight-curve $-1 -0.0125 0.15 -0.034 0 1 0 #
pid_name-sg-attrib $-1 $-1 $-1 $375 7 114 119 105 108 115 111 110 784252905 198 1 #
plane-surface $-1 -0.0125 0.15 -0.0225 -1 0 0 0 0 1 0 #
coedge $-1 $498 $380 $499 $500 1 $17 $-1 #
coedge $-1 $488 $487 $380 $448 0 $489 $-1 #
edge $-1 $501 $449 $380 $502 1 #
vertex $-1 $492 $503 #
intcurve-curve $-1 0 { exactcur nubs 3 open 4 
	0 3 0.333333333333333 2 0.666666666666667 2 1 3 
	-0.0075 0.177649149232832 -0.039 
	-0.00583189371959568 0.17772726889293 -0.039 
	-0.00416429950522307 0.177779226111333 -0.039 
	-0.000832235096950161 0.177831183329735 -0.039 
	0.000832235096950141 0.177831183329735 -0.039 
	0.00416429950522306 0.177779226111333 -0.039 
	0.00583189371959567 0.17772726889293 -0.039 
	0.0075 0.177649149232832 -0.039 
	0 
	null_surface 
	null_surface 
	nullbs 
	nullbs 
	} #
point $-1 -0.0075 0.177649149232832 -0.039 #
coedge $-1 $387 $403 $389 $455 1 $253 $-1 #
vertex $-1 $405 $504 #
intcurve-curve $-1 0 { exactcur nubs 3 open 7 
	0 3 0.166666666666667 2 0.333333333333333 2 0.5 2 0.666666666666667 2 
	0.833333333333333 2 1 3 
	-0.0075 0.177649149232832 0.039 
	-0.00793708362911343 0.177628680018765 0.039 
	-0.00837587867846344 0.17762016154368 0.0389433189909517 
	-0.00923420873273613 0.177629490794961 0.0387100453814263 
	-0.00965374373765882 0.177647338521328 0.0385334527809492 
	-0.0104170238954955 0.177706671522559 0.0380855561882163 
	-0.0107607690484095 0.177748156797424 0.0378142521959605 
	-0.0113629144369125 0.177849462736703 0.037203805484121 
	-0.0116213146725016 0.177909283401117 0.0368646627645373 
	-0.012048746863357 0.178047432758393 0.0361183115444898 
	-0.0122177788186233 0.178125761451255 0.0357111030440261 
	-0.0124434053869448 0.178293201213871 0.034869888964114 
	-0.0125 0.178382312283625 0.0344358833846656 
	-0.0125 0.178474376843024 0.034 
	0 
	null_surface 
	null_surface 
	nullbs 
	nullbs 
	} #
edge $-1 $391 $429 $452 $505 1 #
point $-1 -0.0125 0.178474376843024 0.034 #
straight-curve $-1 -0.0125 0.15 0.0225 0 1 0 #
point $-1 -0.043 0.00800000000000001 5.26598123633362e-18 #
vertex $-1 $405 $506 #
straight-curve $-1 -0.0075 0.15 0.039 0 1 0 #
straight-curve $-1 0.0075 0.15 0.039 -1 0 0 #
intcurve-curve $-1 0 { exactcur nubs 3 open 4 
	0 3 0.333333333333333 2 0.666666666666667 2 1 3 
	0.0075 0.177649149232832 0.039 
	0.00583189371959568 0.17772726889293 0.039 
	0.00416429950522307 0.177779226111333 0.039 
	0.000832235096950161 0.177831183329735 0.039 
	-0.000832235096950141 0.177831183329735 0.039 
	-0.00416429950522306 0.177779226111333 0.039 
	-0.00583189371959567 0.17772726889293 0.039 
	-0.0075 0.177649149232832 0.039 
	0 
	null_surface 
	null_surface 
	nullbs 
	nullbs 
	} #
point $-1 0.0075 0.177649149232832 0.039 #
point $-1 0.0075 0.15 0.039 #
coedge $-1 $432 $416 $507 $508 1 $26 $-1 #
coedge $-1 $509 $510 $416 $467 0 $511 $-1 #
edge $-1 $512 $471 $416 $513 0 #
coedge $-1 $476 $417 $419 $473 1 $470 $-1 #
coedge $-1 $417 $476 $509 $514 0 $470 $-1 #
loop $-1 $-1 $469 $515 #
vertex $-1 $514 $516 #
ellipse-curve $-1 0.034 0.15 -0.0075 0 -1 0 0 0 -0.005 1 #
edge $-1 $478 $420 $468 $517 1 #
point $-1 0.039 0.15 -0.0075 #
coedge $-1 $422 $498 $518 $519 1 $17 $-1 #
coedge $-1 $469 $468 $422 $477 0 $470 $-1 #
edge $-1 $478 $520 $422 $521 1 #
vertex $-1 $473 $522 #
intcurve-curve $-1 0 { exactcur nubs 3 open 3 
	0 3 0.5 2 1 3 
	0.039 0.177649149232832 -0.0075 
	0.039 0.177706689694651 -0.00627132586577517 
	0.039 0.177750560635071 -0.00503201681798039 
	0.039 0.17780955108307 -0.00253202808227015 
	0.039 0.177824670590649 -0.00127134839435469 
	0.039 0.177824670590649 0 
	0 
	null_surface 
	null_surface 
	nullbs 
	nullbs 
	} #
point $-1 0.039 0.177824670590649 0 #
pid_name-sg-attrib $-1 $-1 $-1 $427 7 114 119 105 108 115 111 110 784252905 206 1 #
plane-surface $-1 0.039 0.15 -0.0075 1 0 0 0 0 -1 0 #
ellipse-curve $-1 -0.0075 0.15 0.034 0 -1 0 0 0 0.005 1 #
point $-1 -0.0125 0.15 0.034 #
coedge $-1 $523 $524 $432 $486 0 $525 $-1 #
edge $-1 $490 $526 $432 $527 0 #
coedge $-1 $447 $433 $524 $528 1 $489 $-1 #
coedge $-1 $433 $447 $435 $492 0 $489 $-1 #
loop $-1 $-1 $488 $529 #
vertex $-1 $528 $530 #
ellipse-curve $-1 0.0075 0.15 -0.034 0 -1 0 0 0 -0.005 1 #
edge $-1 $449 $438 $435 $531 1 #
face $532 $529 $437 $3 $-1 $533 reversed single #
point $-1 0.0075 0.15 -0.039 #
straight-curve $-1 -0.0075 0.15 -0.039 0 1 0 #
pid_name-sg-attrib $-1 $-1 $-1 $441 7 114 119 105 108 115 111 110 784252905 199 1 #
cone-surface $-1 -0.0075 0.15 -0.034 0 -1 0 0 0 0.005 1 0 1 0 #
coedge $-1 $475 $446 $534 $535 1 $17 $-1 #
coedge $-1 $524 $523 $446 $500 0 $525 $-1 #
edge $-1 $536 $501 $446 $537 1 #
vertex $-1 $528 $538 #
intcurve-curve $-1 0 { exactcur nubs 3 open 7 
	0 3 0.166666666666667 2 0.333333333333333 2 0.5 2 0.666666666666667 2 
	0.833333333333333 2 1 3 
	0.0075 0.177649149232832 -0.039 
	0.00793708362911344 0.177628680018765 -0.039 
	0.00837587867846345 0.17762016154368 -0.0389433189909517 
	0.00923420873273614 0.177629490794961 -0.0387100453814263 
	0.00965374373765882 0.177647338521328 -0.0385334527809492 
	0.0104170238954955 0.177706671522559 -0.0380855561882163 
	0.0107607690484095 0.177748156797424 -0.0378142521959605 
	0.0113629144369125 0.177849462736703 -0.037203805484121 
	0.0116213146725016 0.177909283401117 -0.0368646627645373 
	0.012048746863357 0.178047432758393 -0.0361183115444898 
	0.0122177788186233 0.178125761451255 -0.0357111030440261 
	0.0124434053869448 0.178293201213871 -0.034869888964114 
	0.0125 0.178382312283625 -0.0344358833846656 
	0.0125 0.178474376843024 -0.034 
	0 
	null_surface 
	null_surface 
	nullbs 
	nullbs 
	} #
point $-1 0.0075 0.177649149232832 -0.039 #
point $-1 -0.0075 0.177649149232832 0.039 #
straight-curve $-1 -0.0125 0.15 0.034 0 1 0 #
point $-1 -0.0075 0.15 0.039 #
coedge $-1 $539 $540 $465 $508 0 $541 $-1 #
edge $-1 $526 $512 $465 $542 0 #
coedge $-1 $518 $466 $469 $514 1 $511 $-1 #
coedge $-1 $466 $518 $539 $543 0 $511 $-1 #
loop $-1 $-1 $510 $544 #
vertex $-1 $543 $545 #
straight-curve $-1 0.0225 0.15 -0.0125 1 0 0 #
edge $-1 $520 $471 $509 $546 1 #
face $547 $427 $470 $3 $-1 $548 reversed single #
point $-1 0.034 0.15 -0.0125 #
straight-curve $-1 0.039 0.15 -0.0075 0 1 0 #
coedge $-1 $510 $509 $475 $519 0 $511 $-1 #
edge $-1 $520 $549 $475 $550 1 #
vertex $-1 $514 $551 #
intcurve-curve $-1 0 { exactcur nubs 3 open 7 
	0 3 0.166666666666667 2 0.333333333333333 2 0.5 2 0.666666666666667 2 
	0.833333333333333 2 1 3 
	0.034 0.178474376843024 -0.0125 
	0.0344381469866861 0.178381834179779 -0.0125 
	0.0348744817932396 0.178292235615441 -0.0124432997750731 
	0.0357235912232112 0.178123327052638 -0.0122133050424178 
	0.0361363658466294 0.178044017054174 -0.0120400105346894 
	0.0368844994911416 0.177905694112556 -0.01160816333382 
	0.0372198585122355 0.177846681169403 -0.0113496106406791 
	0.0378242874701336 0.177746611836733 -0.0107482768886547 
	0.0380933574069377 0.177705555447217 -0.0104054958297712 
	0.038537279647532 0.177646914242723 -0.00964545497517771 
	0.0387121319513221 0.177629329427745 -0.00922819517946774 
	0.0389434921275561 0.17762023522406 -0.0083735203406047 
	0.039 0.177628725835352 -0.00793610529745164 
	0.039 0.177649149232832 -0.0075 
	0 
	null_surface 
	null_surface 
	nullbs 
	nullbs 
	} #
point $-1 0.039 0.177649149232832 -0.0075 #
coedge $-1 $499 $485 $540 $552 1 $525 $-1 #
coedge $-1 $485 $499 $487 $528 0 $525 $-1 #
loop $-1 $-1 $524 $553 #
vertex $-1 $552 $554 #
straight-curve $-1 0.0125 0.15 -0.034 0 0 1 #
edge $-1 $501 $490 $487 $555 1 #
face $556 $553 $489 $3 $-1 $557 reversed single #
point $-1 0.0125 0.15 -0.034 #
straight-curve $-1 0.0075 0.15 -0.039 0 1 0 #
pid_name-sg-attrib $-1 $-1 $-1 $493 7 114 119 105 108 115 111 110 784252905 200 1 #
plane-surface $-1 -0.0075 0.15 -0.039 0 0 -1 -1 0 0 0 #
coedge $-1 $540 $539 $498 $535 0 $541 $-1 #
edge $-1 $549 $536 $498 $558 1 #
vertex $-1 $552 $559 #
intcurve-curve $-1 0 { exactcur nubs 3 open 4 
	0 3 0.333333333333333 2 0.666666666666667 2 1 3 
	0.0125 0.178474376843024 -0.034 
	0.0125 0.178772535537031 -0.0325883555891762 
	0.0125 0.179042045235625 -0.0312206089734705 
	0.0125 0.179530957172306 -0.0285749770903613 
	0.0125 0.179750359410392 -0.0272970918229579 
	0.0125 0.180146028955295 -0.0248309891596816 
	0.0125 0.180322296262111 -0.0236427717638087 
	0.0125 0.180480060130066 -0.0225 
	0 
	null_surface 
	null_surface 
	nullbs 
	nullbs 
	} #
point $-1 0.0125 0.178474376843024 -0.034 #
coedge $-1 $534 $507 $510 $543 1 $541 $-1 #
coedge $-1 $507 $534 $523 $552 0 $541 $-1 #
loop $-1 $-1 $540 $560 #
ellipse-curve $-1 0.0225 0.15 -0.0225 0 1 0 -0.01 0 1.38777878078145e-17 1 #
edge $-1 $549 $512 $539 $561 1 #
face $562 $515 $511 $3 $-1 $563 reversed single #
point $-1 0.0225 0.15 -0.0125 #
straight-curve $-1 0.034 0.15 -0.0125 0 1 0 #
pid_name-sg-attrib $-1 $-1 $-1 $515 7 114 119 105 108 115 111 110 784252905 205 1 #
cone-surface $-1 0.034 0.15 -0.0075 0 -1 0 0 0 0.005 1 0 1 0 #
vertex $-1 $543 $564 #
intcurve-curve $-1 0 { exactcur nubs 3 open 4 
	0 3 0.333333333333333 2 0.666666666666667 2 1 3 
	0.0225 0.180480060130066 -0.0125 
	0.0236470205191019 0.180321709705731 -0.0125 
	0.0248380222770114 0.180144948834972 -0.0125 
	0.0273049998282991 0.179749041946214 -0.0125 
	0.0285809756216773 0.179529895928216 -0.0125 
	0.0312235132311076 0.179041461137049 -0.0125 
	0.0325900750471597 0.178772172363881 -0.0125 
	0.034 0.178474376843024 -0.0125 
	0 
	null_surface 
	null_surface 
	nullbs 
	nullbs 
	} #
point $-1 0.034 0.178474376843024 -0.0125 #
edge $-1 $536 $526 $523 $565 1 #
face $566 $560 $525 $3 $-1 $567 reversed single #
point $-1 0.0125 0.15 -0.0225 #
straight-curve $-1 0.0125 0.15 -0.034 0 1 0 #
pid_name-sg-attrib $-1 $-1 $-1 $529 7 114 119 105 108 115 111 110 784252905 201 1 #
cone-surface $-1 0.0075 0.15 -0.034 0 -1 0 0 0 0.005 1 0 1 0 #
intcurve-curve $-1 0 { exactcur nubs 3 open 10 
	0 3 0.111111111111111 2 0.222222222222222 2 0.333333333333333 2 0.444444444444444 2 
	0.555555555555556 2 0.666666666666667 2 0.777777777777778 2 0.888888888888889 2 1 3 
	0.0125 0.180480060130066 -0.0225 
	0.0125 0.180572742673929 -0.021828648596811 
	0.0125673882548458 0.180653940547291 -0.0211725348640023 
	0.01282010584483 0.180793195697665 -0.0199096070081749 
	0.0130054351799684 0.180851252974676 -0.0193027928851562 
	0.0134651100960873 0.18094394637745 -0.0181699693988354 
	0.0137394556770677 0.180978582503212 -0.0176439600355334 
	0.0143514938051659 0.181027695109517 -0.0166750282807532 
	0.0146891863522838 0.181042171590061 -0.0162321058892749 
	0.0154179720365134 0.181053824898431 -0.0154186144019309 
	0.0158090651736252 0.181051001726257 -0.015048045306065 
	0.0166526457058629 0.181028200605054 -0.0143701927290463 
	0.0171051331009889 0.181008222656025 -0.0140629092478934 
	0.0180534070673114 0.180951604365038 -0.0135260118544323 
	0.0185491936385079 0.180914964023081 -0.0132963979421241 
	0.0195955538305235 0.180823360040476 -0.0129151611237098 
	0.0201461274513425 0.18076839639983 -0.0127635382176035 
	0.0212932887031349 0.180638861358779 -0.0125559576557486 
	0.0218898763341083 0.180564289958375 -0.0125 
	0.0225 0.180480060130066 -0.0125 
	0 
	null_surface 
	null_surface 
	nullbs 
	nullbs 
	} #
point $-1 0.0125 0.180480060130066 -0.0225 #
face $568 $544 $541 $3 $-1 $569 forward single #
straight-curve $-1 0.0225 0.15 -0.0125 0 1 0 #
pid_name-sg-attrib $-1 $-1 $-1 $544 7 114 119 105 108 115 111 110 784252905 204 1 #
plane-surface $-1 0.0225 0.15 -0.0125 0 0 -1 -1 0 0 0 #
point $-1 0.0225 0.180480060130066 -0.0125 #
straight-curve $-1 0.0125 0.15 -0.0225 0 1 0 #
pid_name-sg-attrib $-1 $-1 $-1 $553 7 114 119 105 108 115 111 110 784252905 202 1 #
plane-surface $-1 0.0125 0.15 -0.034 1 0 0 0 0 -1 0 #
pid_name-sg-attrib $-1 $-1 $-1 $560 7 114 119 105 108 115 111 110 784252905 203 1 #
cone-surface $-1 0.0225 0.15 -0.0225 0 -1 0 0 0 0.01 1 0 1 0 #
