600 0 1 0           
104 GICL ACIS Healer - Source: /gicl/data5/repository/Parasolid/NIST/Pete_Brown/groove/groove.step.sat - 6 0 18 ACIS 6.0.3 Solaris 24 Sun Apr 14 00:31:33 2002 
1 9.999999999999999547e-07 1.000000000000000036e-10 
body $-1 $1 $-1 $-1 #
lump $-1 $-1 $2 $0 #
shell $-1 $-1 $-1 $3 $-1 $1 #
face $-1 $4 $5 $2 $-1 $6 reversed single #
face $-1 $7 $8 $2 $-1 $9 forward single #
loop $-1 $-1 $10 $3 #
plane-surface $-1 0 0 0 0 0 1 25.39999999999999858 0 0 forward_v I I I I #
face $-1 $11 $12 $2 $-1 $13 forward single #
loop $-1 $-1 $14 $4 #
plane-surface $-1 0 0 1000.000000000000568 0 -1 0 0 0 -1 forward_v I I I I #
coedge $-1 $15 $16 $14 $17 reversed $5 $-1 #
face $-1 $18 $19 $2 $-1 $20 forward single #
loop $-1 $-1 $21 $7 #
spline-surface $-1 forward { exactsur full nubs 2 1 open open none none 2 2 
	0 2 1 2 
	0 1 1 1 
	45.00000000000007816 0 0 
	89.99999999999991473 0 0 
	109.9999999999999147 -10.00000000000000355 0 
	45.00000000000007816 0 2000.000000000001137 
	89.99999999999991473 0 2000.000000000001137 
	109.9999999999999147 -10.00000000000000355 2000.000000000001137 
	0 
	0 
	0 
	0 
	0 
	0 
	0 
	F 1 F 0 F 1 F 0 } I I I I #
coedge $-1 $22 $23 $10 $17 forward $8 $-1 #
coedge $-1 $24 $10 $25 $26 forward $5 $-1 #
coedge $-1 $10 $27 $21 $28 forward $5 $-1 #
edge $-1 $29 0.9523809523809522171 $30 1 $10 $31 forward 7 unknown #
face $-1 $32 $33 $2 $-1 $34 forward single #
loop $-1 $-1 $35 $11 #
spline-surface $-1 forward { exactsur full nubs 2 1 open open none none 2 2 
	0 2 1 2 
	0 1 1 1 
	109.9999999999999147 -10.00000000000000355 0 
	129.9999999999999147 -20.00000000000000711 0 
	149.9999999999999432 -14.99999999999999467 0 
	109.9999999999999147 -10.00000000000000355 2000.000000000001137 
	129.9999999999999147 -20.00000000000000711 2000.000000000001137 
	149.9999999999999432 -14.99999999999999467 2000.000000000001137 
	0 
	0 
	0 
	0 
	0 
	0 
	0 
	F 1 F 0 F 1 F 0 } I I I I #
coedge $-1 $36 $37 $16 $28 reversed $12 $38 #
coedge $-1 $39 $14 $37 $40 forward $8 $-1 #
coedge $-1 $14 $39 $41 $42 reversed $8 $-1 #
coedge $-1 $43 $15 $44 $45 forward $5 $-1 #
coedge $-1 $41 $46 $15 $26 reversed $47 $48 #
edge $-1 $29 0 $49 1 $15 $50 forward 7 unknown #
coedge $-1 $16 $51 $35 $52 forward $5 $-1 #
edge $-1 $53 0 $30 1 $16 $54 forward 7 unknown #
vertex $-1 $17 $55 #
vertex $-1 $17 $56 #
intcurve-curve $-1 forward { exactcur full nubs 2 periodic 22 
	0 2 0.04761904761904760253 1 0.09523809523809520505 1 0.142857142857142988 1 0.1904761904761899938 1 
	0.2380952380952379988 1 0.285714285714285976 1 0.3333333333333329818 1 0.3809523809523809867 1 0.4285714285714289917 1 
	0.4761904761904759975 1 0.523809523809523947 1 0.5714285714285709528 1 0.6190476190476189577 1 0.6666666666666669627 1 
	0.7142857142857139685 1 0.7619047619047619735 1 0.8095238095238099785 1 0.8571428571428569843 1 0.9047619047619049892 1 
	0.952380952380951995 1 1 2 
	45.00000000000000711 0 0 
	89.99999999999991473 0 0 
	129.9999999999999147 -20.00000000000000711 0 
	169.9999999999999716 -10.00000000000000355 0 
	220.0000000000000853 29.99999999999988987 0 
	220.0000000000000853 100.0000000000000426 0 
	180.0000000000000853 169.9999999999999716 0 
	80.00000000000002842 250 0 
	229.9999999999999716 299.9999999999988631 0 
	229.9999999999999716 400.0000000000001705 0 
	229.9999999999999716 499.9999999999989768 0 
	-229.9999999999999716 499.9999999999989768 0 
	-229.9999999999999716 400.0000000000001705 0 
	-229.9999999999999716 299.9999999999988631 0 
	-80.00000000000002842 250 0 
	-180.0000000000000853 169.9999999999999716 0 
	-220.0000000000000853 100.0000000000000426 0 
	-220.0000000000000853 29.99999999999988987 0 
	-169.9999999999999716 -10.00000000000000355 0 
	-129.9999999999999147 -20.00000000000000711 0 
	-89.99999999999991473 0 0 
	0 0 0 
	44.99999999999906919 0 0 
	0 
	null_surface 
	null_surface 
	nullbs 
	nullbs 
	I I 
	0 
	20 0 0.04761904761904760253 0.09523809523809520505 0.142857142857142988 0.1904761904761899938 0.2380952380952379988 0.285714285714285976 0.3333333333333329818 0.3809523809523809867 0.4285714285714289917 0.523809523809523947 0.5714285714285709528 0.6190476190476189577 0.6666666666666669627 0.7142857142857139685 0.7619047619047619735 0.8095238095238099785 0.8571428571428569843 0.9047619047619049892 0.952380952380951995 
	1 0.4761904761904759975 
	F 1 F 0 } I I #
face $-1 $57 $58 $2 $-1 $59 forward single #
loop $-1 $-1 $60 $18 #
spline-surface $-1 forward { exactsur full nubs 2 1 open open none none 2 2 
	0 2 1 2 
	0 1 1 1 
	149.9999999999999432 -14.99999999999999467 0 
	169.9999999999999716 -10.00000000000000355 0 
	195.0000000000000284 10.00000000000000355 0 
	149.9999999999999432 -14.99999999999999467 2000.000000000001137 
	169.9999999999999716 -10.00000000000000355 2000.000000000001137 
	195.0000000000000284 10.00000000000000355 2000.000000000001137 
	0 
	0 
	0 
	0 
	0 
	0 
	0 
	F 1 F 0 F 1 F 0 } I I I I #
coedge $-1 $61 $62 $27 $52 reversed $19 $63 #
coedge $-1 $64 $21 $62 $65 forward $12 $66 #
coedge $-1 $21 $64 $22 $40 reversed $12 $67 #
pcurve $-1 0 forward { exppc nubs 1 open 2 
	-1 1 0 1 
	0 0 
	1 0 
	0.02539999999999999897 
	spline forward { ref 0 } I I I I 
	} 0 0 #
coedge $-1 $23 $22 $68 $69 reversed $8 $-1 #
edge $-1 $30 0 $70 78.7401574803150055 $22 $71 forward 7 unknown #
coedge $-1 $72 $25 $23 $42 forward $47 $73 #
edge $-1 $29 0 $74 78.7401574803150055 $23 $75 forward 7 unknown #
coedge $-1 $76 $24 $77 $78 forward $5 $-1 #
coedge $-1 $79 $80 $24 $45 reversed $81 $82 #
edge $-1 $49 0 $83 1 $24 $84 forward 7 unknown #
coedge $-1 $25 $72 $79 $85 reversed $47 $86 #
loop $-1 $-1 $25 $87 #
pcurve $-1 0 forward { exppc nubs 1 open 2 
	-1 1 0 1 
	0 0 
	1 0 
	0.02539999999999999897 
	spline forward { exactsur full nubs 2 1 open open none none 2 2 
	0 2 1 2 
	0 1 1 1 
	-109.9999999999999147 -10.00000000000000355 0 
	-89.99999999999991473 0 0 
	-45.00000000000007816 0 0 
	-109.9999999999999147 -10.00000000000000355 2000.000000000001137 
	-89.99999999999991473 0 2000.000000000001137 
	-45.00000000000007816 0 2000.000000000001137 
	0 
	0 
	0 
	0 
	0 
	0 
	0 
	F 1 F 0 F 1 F 0 } I I I I 
	} 0 0 #
vertex $-1 $26 $88 #
intcurve-curve $-1 forward { exactcur full nubs 2 open 2 
	0 2 1 2 
	-45.00000000000007816 0 0 
	-89.99999999999991473 0 0 
	-109.9999999999999147 -10.00000000000000355 0 
	0 
	null_surface 
	null_surface 
	nullbs 
	nullbs 
	I I 
	0 
	0 
	0 
	F 1 F 0 } I I #
coedge $-1 $27 $89 $60 $90 forward $5 $-1 #
edge $-1 $91 0 $53 1 $27 $92 forward 7 unknown #
vertex $-1 $52 $93 #
intcurve-curve $-1 forward { exactcur full nubs 2 open 2 
	0 2 1 2 
	109.9999999999999147 -10.00000000000000355 0 
	89.99999999999991473 0 0 
	45.00000000000007816 0 0 
	0 
	null_surface 
	null_surface 
	nullbs 
	nullbs 
	I I 
	0 
	0 
	0 
	F 1 F 0 } I I #
point $-1 -45.00000000000007816 0 0 #
point $-1 45.00000000000007816 0 0 #
face $-1 $94 $95 $2 $-1 $96 forward single #
loop $-1 $-1 $97 $32 #
spline-surface $-1 forward { exactsur full nubs 2 1 open open none none 2 2 
	0 2 1 2 
	0 1 1 1 
	195.0000000000000284 10.00000000000000355 0 
	220.0000000000000853 29.99999999999988987 0 
	220.0000000000000853 65.00000000000009948 0 
	195.0000000000000284 10.00000000000000355 2000.000000000001137 
	220.0000000000000853 29.99999999999988987 2000.000000000001137 
	220.0000000000000853 65.00000000000009948 2000.000000000001137 
	0 
	0 
	0 
	0 
	0 
	0 
	0 
	F 1 F 0 F 1 F 0 } I I I I #
coedge $-1 $98 $99 $51 $90 reversed $33 $100 #
coedge $-1 $101 $35 $99 $102 forward $19 $103 #
coedge $-1 $35 $101 $36 $65 reversed $19 $104 #
pcurve $-1 0 forward { exppc nubs 1 open 2 
	-1 1 0 1 
	0 0 
	1 0 
	0.02539999999999999897 
	spline forward { ref 1 } I I I I 
	} 0 0 #
coedge $-1 $37 $36 $105 $106 reversed $12 $107 #
edge $-1 $53 0 $108 78.7401574803150055 $36 $109 forward 7 unknown #
pcurve $-1 0 forward { exppc nubs 1 open 2 
	0 1 78.7401574803150055 1 
	1 0 
	1 1 
	0.02539999999999999897 
	spline forward { ref 0 } I I I I 
	} 0 0 #
pcurve $-1 0 forward { exppc nubs 1 open 2 
	-78.7401574803150055 1 0 1 
	0 1 
	0 0 
	0.02540000000011390785 
	spline forward { ref 0 } I I I I 
	} 0 0 #
coedge $-1 $105 $110 $39 $69 forward $111 $-1 #
edge $-1 $74 0.9523809523809522171 $70 1 $39 $112 forward 7 unknown #
vertex $-1 $40 $113 #
straight-curve $-1 45.00000000000007816 0 0 0 0 25.39999999999999858 F 0 F 78.7401574803150055 #
coedge $-1 $46 $41 $110 $114 reversed $47 $115 #
pcurve $-1 0 forward { exppc nubs 1 open 2 
	0 1 78.7401574803150055 1 
	1 0 
	1 1 
	0.02539999999999999897 
	spline forward { ref 6 } I I I I 
	} 0 0 #
vertex $-1 $69 $116 #
straight-curve $-1 -45.00000000000007816 0 0 0 0 25.39999999999999858 F 0 F 78.7401574803150055 #
coedge $-1 $117 $43 $118 $119 forward $5 $-1 #
coedge $-1 $120 $121 $43 $78 reversed $122 $123 #
edge $-1 $83 0 $124 1 $43 $125 forward 7 unknown #
coedge $-1 $126 $44 $46 $85 forward $81 $127 #
coedge $-1 $44 $126 $120 $128 reversed $81 $129 #
loop $-1 $-1 $44 $130 #
pcurve $-1 0 forward { exppc nubs 1 open 2 
	-1 1 0 1 
	0 0 
	1 0 
	0.02539999999999999897 
	spline forward { exactsur full nubs 2 1 open open none none 2 2 
	0 2 1 2 
	0 1 1 1 
	-149.9999999999999432 -14.99999999999999467 0 
	-129.9999999999999147 -20.00000000000000711 0 
	-109.9999999999999147 -10.00000000000000355 0 
	-149.9999999999999432 -14.99999999999999467 2000.000000000001137 
	-129.9999999999999147 -20.00000000000000711 2000.000000000001137 
	-109.9999999999999147 -10.00000000000000355 2000.000000000001137 
	0 
	0 
	0 
	0 
	0 
	0 
	0 
	F 1 F 0 F 1 F 0 } I I I I 
	} 0 0 #
vertex $-1 $45 $131 #
intcurve-curve $-1 forward { exactcur full nubs 2 open 2 
	0 2 1 2 
	-109.9999999999999147 -10.00000000000000355 0 
	-129.9999999999999147 -20.00000000000000711 0 
	-149.9999999999999432 -14.99999999999999467 0 
	0 
	null_surface 
	null_surface 
	nullbs 
	nullbs 
	I I 
	0 
	0 
	0 
	F 1 F 0 } I I #
edge $-1 $49 0 $132 78.7401574803150055 $79 $133 forward 7 unknown #
pcurve $-1 0 forward { exppc nubs 1 open 2 
	-78.7401574803150055 1 0 1 
	0 1 
	0 0 
	0.02540000000011368581 
	spline forward { ref 6 } I I I I 
	} 0 0 #
face $-1 $134 $47 $2 $-1 $135 forward single #
point $-1 -109.9999999999999147 -10.00000000000000355 0 #
coedge $-1 $51 $136 $97 $137 forward $5 $-1 #
edge $-1 $138 0 $91 1 $51 $139 forward 7 unknown #
vertex $-1 $90 $140 #
intcurve-curve $-1 forward { exactcur full nubs 2 open 2 
	0 2 1 2 
	149.9999999999999432 -14.99999999999999467 0 
	129.9999999999999147 -20.00000000000000711 0 
	109.9999999999999147 -10.00000000000000355 0 
	0 
	null_surface 
	null_surface 
	nullbs 
	nullbs 
	I I 
	0 
	0 
	0 
	F 1 F 0 } I I #
point $-1 109.9999999999999147 -10.00000000000000355 0 #
face $-1 $141 $142 $2 $-1 $143 forward single #
loop $-1 $-1 $144 $57 #
spline-surface $-1 forward { exactsur full nubs 2 1 open open none none 2 2 
	0 2 1 2 
	0 1 1 1 
	220.0000000000000853 65.00000000000009948 0 
	220.0000000000000853 100.0000000000000426 0 
	200.0000000000000853 135 0 
	220.0000000000000853 65.00000000000009948 2000.000000000001137 
	220.0000000000000853 100.0000000000000426 2000.000000000001137 
	200.0000000000000853 135 2000.000000000001137 
	0 
	0 
	0 
	0 
	0 
	0 
	0 
	F 1 F 0 F 1 F 0 } I I I I #
coedge $-1 $145 $146 $89 $137 reversed $58 $147 #
coedge $-1 $148 $60 $146 $149 forward $33 $150 #
coedge $-1 $60 $148 $61 $102 reversed $33 $151 #
pcurve $-1 0 forward { exppc nubs 1 open 2 
	-1 1 0 1 
	0 0 
	1 0 
	0.02539999999999999897 
	spline forward { ref 3 } I I I I 
	} 0 0 #
coedge $-1 $62 $61 $152 $153 reversed $19 $154 #
edge $-1 $91 0 $155 78.7401574803150055 $61 $156 forward 7 unknown #
pcurve $-1 0 forward { exppc nubs 1 open 2 
	0 1 78.7401574803150055 1 
	1 0 
	1 1 
	0.02540000000002891681 
	spline forward { ref 1 } I I I I 
	} 0 0 #
pcurve $-1 0 forward { exppc nubs 1 open 2 
	-78.7401574803150055 1 0 1 
	0 1 
	0 0 
	0.02540000000011368581 
	spline forward { ref 1 } I I I I 
	} 0 0 #
coedge $-1 $152 $68 $64 $106 forward $111 $-1 #
edge $-1 $70 0 $108 0.04761904761904760253 $64 $157 forward 7 unknown #
pcurve $-1 0 forward { exppc nubs 1 open 2 
	-0.04761904761904760253 1 0 1 
	1 1 
	0 1 
	0.02540000000000710439 
	spline forward { ref 0 } I I I I 
	} 0 0 #
vertex $-1 $65 $158 #
straight-curve $-1 109.9999999999999147 -10.00000000000000355 0 0 0 25.39999999999999858 F 0 F 78.7401574803150055 #
coedge $-1 $68 $159 $72 $114 forward $111 $-1 #
loop $-1 $-1 $110 $134 #
intcurve-curve $-1 forward { exactcur full nubs 2 periodic 22 
	0 2 0.04761904761904760253 1 0.09523809523809520505 1 0.142857142857142988 1 0.1904761904761899938 1 
	0.2380952380952379988 1 0.285714285714285976 1 0.3333333333333329818 1 0.3809523809523809867 1 0.4285714285714289917 1 
	0.4761904761904759975 1 0.523809523809523947 1 0.5714285714285709528 1 0.6190476190476189577 1 0.6666666666666669627 1 
	0.7142857142857139685 1 0.7619047619047619735 1 0.8095238095238099785 1 0.8571428571428569843 1 0.9047619047619049892 1 
	0.952380952380951995 1 1 2 
	45.00000000000000711 0 2000.000000000001137 
	89.99999999999991473 0 2000.000000000001137 
	129.9999999999999147 -20.00000000000000711 2000.000000000001137 
	169.9999999999999716 -10.00000000000000355 2000.000000000001137 
	220.0000000000000853 29.99999999999988987 2000.000000000001137 
	220.0000000000000853 100.0000000000000426 2000.000000000001137 
	180.0000000000000853 169.9999999999999716 2000.000000000001137 
	80.00000000000002842 250 2000.000000000001137 
	229.9999999999999716 299.9999999999988631 2000.000000000001137 
	229.9999999999999716 400.0000000000001705 2000.000000000001137 
	229.9999999999999716 499.9999999999989768 2000.000000000001137 
	-229.9999999999999716 499.9999999999989768 2000.000000000001137 
	-229.9999999999999716 400.0000000000001705 2000.000000000001137 
	-229.9999999999999716 299.9999999999988631 2000.000000000001137 
	-80.00000000000002842 250 2000.000000000001137 
	-180.0000000000000853 169.9999999999999716 2000.000000000001137 
	-220.0000000000000853 100.0000000000000426 2000.000000000001137 
	-220.0000000000000853 29.99999999999988987 2000.000000000001137 
	-169.9999999999999716 -10.00000000000000355 2000.000000000001137 
	-129.9999999999999147 -20.00000000000000711 2000.000000000001137 
	-89.99999999999991473 0 2000.000000000001137 
	0 0 2000.000000000001137 
	44.99999999999906919 0 2000.000000000001137 
	0 
	null_surface 
	null_surface 
	nullbs 
	nullbs 
	I I 
	0 
	20 0 0.04761904761904760253 0.09523809523809520505 0.142857142857142988 0.1904761904761899938 0.2380952380952379988 0.285714285714285976 0.3333333333333329818 0.3809523809523809867 0.4285714285714289917 0.523809523809523947 0.5714285714285709528 0.6190476190476189577 0.6666666666666669627 0.7142857142857139685 0.7619047619047619735 0.8095238095238099785 0.8571428571428569843 0.9047619047619049892 0.952380952380951995 
	1 0.4761904761904759975 
	F 1 F 0 } I I #
point $-1 45.00000000000007816 0 2000.000000000001137 #
edge $-1 $132 0.9047619047619049892 $74 0.9523809523809522171 $72 $160 forward 7 unknown #
pcurve $-1 0 forward { exppc nubs 1 open 2 
	-0.9523809523809522171 1 -0.9047619047619049892 1 
	1 1 
	0 1 
	0.02540000000022737264 
	spline forward { ref 6 } I I I I 
	} 0 0 #
point $-1 -45.00000000000007816 0 2000.000000000001137 #
coedge $-1 $161 $76 $162 $163 forward $5 $-1 #
coedge $-1 $164 $165 $76 $119 reversed $166 $167 #
edge $-1 $124 0 $168 1 $76 $169 forward 7 unknown #
coedge $-1 $170 $77 $80 $128 forward $122 $171 #
coedge $-1 $77 $170 $164 $172 reversed $122 $173 #
loop $-1 $-1 $77 $174 #
pcurve $-1 0 forward { exppc nubs 1 open 2 
	-1 1 0 1 
	0 0 
	1 0 
	0.02539999999999999897 
	spline forward { exactsur full nubs 2 1 open open none none 2 2 
	0 2 1 2 
	0 1 1 1 
	-195.0000000000000284 10.00000000000000355 0 
	-169.9999999999999716 -10.00000000000000355 0 
	-149.9999999999999432 -14.99999999999999467 0 
	-195.0000000000000284 10.00000000000000355 2000.000000000001137 
	-169.9999999999999716 -10.00000000000000355 2000.000000000001137 
	-149.9999999999999432 -14.99999999999999467 2000.000000000001137 
	0 
	0 
	0 
	0 
	0 
	0 
	0 
	F 1 F 0 F 1 F 0 } I I I I 
	} 0 0 #
vertex $-1 $78 $175 #
intcurve-curve $-1 forward { exactcur full nubs 2 open 2 
	0 2 1 2 
	-149.9999999999999432 -14.99999999999999467 0 
	-169.9999999999999716 -10.00000000000000355 0 
	-195.0000000000000284 10.00000000000000355 0 
	0 
	null_surface 
	null_surface 
	nullbs 
	nullbs 
	I I 
	0 
	0 
	0 
	F 1 F 0 } I I #
coedge $-1 $80 $79 $159 $176 reversed $81 $177 #
pcurve $-1 0 forward { exppc nubs 1 open 2 
	0 1 78.7401574803150055 1 
	1 0 
	1 1 
	0.02539999999999999897 
	spline forward { ref 15 } I I I I 
	} 0 0 #
edge $-1 $83 0 $178 78.7401574803150055 $120 $179 forward 7 unknown #
pcurve $-1 0 forward { exppc nubs 1 open 2 
	-78.7401574803150055 1 0 1 
	0 1 
	0 0 
	0.02540000000011368581 
	spline forward { ref 15 } I I I I 
	} 0 0 #
face $-1 $87 $81 $2 $-1 $180 forward single #
point $-1 -149.9999999999999432 -14.99999999999999467 0 #
vertex $-1 $85 $181 #
straight-curve $-1 -109.9999999999999147 -10.00000000000000355 0 0 0 25.39999999999999858 F 0 F 78.7401574803150055 #
face $-1 $-1 $111 $2 $-1 $182 forward single #
spline-surface $-1 forward { ref 6 } I I I I #
coedge $-1 $89 $183 $144 $184 forward $5 $-1 #
edge $-1 $185 0 $138 1 $89 $186 forward 7 unknown #
vertex $-1 $137 $187 #
intcurve-curve $-1 forward { exactcur full nubs 2 open 2 
	0 2 1 2 
	195.0000000000000284 10.00000000000000355 0 
	169.9999999999999716 -10.00000000000000355 0 
	149.9999999999999432 -14.99999999999999467 0 
	0 
	null_surface 
	null_surface 
	nullbs 
	nullbs 
	I I 
	0 
	0 
	0 
	F 1 F 0 } I I #
point $-1 149.9999999999999432 -14.99999999999999467 0 #
face $-1 $188 $189 $2 $-1 $190 forward single #
loop $-1 $-1 $191 $94 #
spline-surface $-1 forward { exactsur full nubs 2 1 open open none none 2 2 
	0 2 1 2 
	0 1 1 1 
	200.0000000000000853 135 0 
	180.0000000000000853 169.9999999999999716 0 
	129.9999999999999147 209.9999999999999716 0 
	200.0000000000000853 135 2000.000000000001137 
	180.0000000000000853 169.9999999999999716 2000.000000000001137 
	129.9999999999999147 209.9999999999999716 2000.000000000001137 
	0 
	0 
	0 
	0 
	0 
	0 
	0 
	F 1 F 0 F 1 F 0 } I I I I #
coedge $-1 $192 $193 $136 $184 reversed $95 $194 #
coedge $-1 $195 $97 $193 $196 forward $58 $197 #
coedge $-1 $97 $195 $98 $149 reversed $58 $198 #
pcurve $-1 0 forward { exppc nubs 1 open 2 
	-1 1 0 1 
	0 0 
	1 0 
	0.02539999999999999897 
	spline forward { ref 9 } I I I I 
	} 0 0 #
coedge $-1 $99 $98 $199 $200 reversed $33 $201 #
edge $-1 $138 0 $202 78.7401574803150055 $98 $203 forward 7 unknown #
pcurve $-1 0 forward { exppc nubs 1 open 2 
	0 1 78.7401574803150055 1 
	1 0 
	1 1 
	0.02539999999999999897 
	spline forward { ref 3 } I I I I 
	} 0 0 #
pcurve $-1 0 forward { exppc nubs 1 open 2 
	-78.7401574803150055 1 0 1 
	0 1 
	0 0 
	0.02540000000011368581 
	spline forward { ref 3 } I I I I 
	} 0 0 #
coedge $-1 $199 $105 $101 $153 forward $111 $-1 #
edge $-1 $108 0.04761904761904760253 $155 0.09523809523809520505 $101 $204 forward 7 unknown #
pcurve $-1 0 forward { exppc nubs 1 open 2 
	-0.09523809523809520505 1 -0.04761904761904760253 1 
	1 1 
	0 1 
	0.02540000000045474632 
	spline forward { ref 1 } I I I I 
	} 0 0 #
vertex $-1 $102 $205 #
straight-curve $-1 149.9999999999999432 -14.99999999999999467 0 0 0 25.39999999999999858 F 0 F 78.7401574803150055 #
intcurve-curve $-1 forward { exactcur full nubs 2 periodic 22 
	0 2 0.04761904761904760253 1 0.09523809523809520505 1 0.142857142857142988 1 0.1904761904761899938 1 
	0.2380952380952379988 1 0.285714285714285976 1 0.3333333333333329818 1 0.3809523809523809867 1 0.4285714285714289917 1 
	0.4761904761904759975 1 0.523809523809523947 1 0.5714285714285709528 1 0.6190476190476189577 1 0.6666666666666669627 1 
	0.7142857142857139685 1 0.7619047619047619735 1 0.8095238095238099785 1 0.8571428571428569843 1 0.9047619047619049892 1 
	0.952380952380951995 1 1 2 
	45.00000000000000711 0 2000.000000000001137 
	89.99999999999991473 0 2000.000000000001137 
	129.9999999999999147 -20.00000000000000711 2000.000000000001137 
	169.9999999999999716 -10.00000000000000355 2000.000000000001137 
	220.0000000000000853 29.99999999999988987 2000.000000000001137 
	220.0000000000000853 100.0000000000000426 2000.000000000001137 
	180.0000000000000853 169.9999999999999716 2000.000000000001137 
	80.00000000000002842 250 2000.000000000001137 
	229.9999999999999716 299.9999999999988631 2000.000000000001137 
	229.9999999999999716 400.0000000000001705 2000.000000000001137 
	229.9999999999999716 499.9999999999989768 2000.000000000001137 
	-229.9999999999999716 499.9999999999989768 2000.000000000001137 
	-229.9999999999999716 400.0000000000001705 2000.000000000001137 
	-229.9999999999999716 299.9999999999988631 2000.000000000001137 
	-80.00000000000002842 250 2000.000000000001137 
	-180.0000000000000853 169.9999999999999716 2000.000000000001137 
	-220.0000000000000853 100.0000000000000426 2000.000000000001137 
	-220.0000000000000853 29.99999999999988987 2000.000000000001137 
	-169.9999999999999716 -10.00000000000000355 2000.000000000001137 
	-129.9999999999999147 -20.00000000000000711 2000.000000000001137 
	-89.99999999999991473 0 2000.000000000001137 
	0 0 2000.000000000001137 
	44.99999999999906919 0 2000.000000000001137 
	0 
	null_surface 
	null_surface 
	nullbs 
	nullbs 
	I I 
	0 
	0 
	0 
	F 1 F 0 } F 0 F 0.04761904761904760253 #
point $-1 109.9999999999999147 -10.00000000000000355 2000.000000000001137 #
coedge $-1 $110 $206 $126 $176 forward $111 $-1 #
intcurve-curve $-1 forward { ref 37 } F 0.9047619047619049892 F 0.9523809523809522171 #
coedge $-1 $207 $117 $208 $209 forward $5 $-1 #
coedge $-1 $210 $211 $117 $163 reversed $212 $213 #
edge $-1 $168 0 $214 1 $117 $215 forward 7 unknown #
coedge $-1 $216 $118 $121 $172 forward $166 $217 #
coedge $-1 $118 $216 $210 $218 reversed $166 $219 #
loop $-1 $-1 $118 $220 #
pcurve $-1 0 forward { exppc nubs 1 open 2 
	-1 1 0 1 
	0 0 
	1 0 
	0.02539999999999999897 
	spline forward { exactsur full nubs 2 1 open open none none 2 2 
	0 2 1 2 
	0 1 1 1 
	-220.0000000000000853 65.00000000000009948 0 
	-220.0000000000000853 29.99999999999988987 0 
	-195.0000000000000284 10.00000000000000355 0 
	-220.0000000000000853 65.00000000000009948 2000.000000000001137 
	-220.0000000000000853 29.99999999999988987 2000.000000000001137 
	-195.0000000000000284 10.00000000000000355 2000.000000000001137 
	0 
	0 
	0 
	0 
	0 
	0 
	0 
	F 1 F 0 F 1 F 0 } I I I I 
	} 0 0 #
vertex $-1 $119 $221 #
intcurve-curve $-1 forward { exactcur full nubs 2 open 2 
	0 2 1 2 
	-195.0000000000000284 10.00000000000000355 0 
	-220.0000000000000853 29.99999999999988987 0 
	-220.0000000000000853 65.00000000000009948 0 
	0 
	null_surface 
	null_surface 
	nullbs 
	nullbs 
	I I 
	0 
	0 
	0 
	F 1 F 0 } I I #
coedge $-1 $121 $120 $206 $222 reversed $122 $223 #
pcurve $-1 0 forward { exppc nubs 1 open 2 
	0 1 78.7401574803150055 1 
	1 0 
	1 1 
	0.02539999999999999897 
	spline forward { ref 27 } I I I I 
	} 0 0 #
edge $-1 $124 0 $224 78.7401574803150055 $164 $225 forward 7 unknown #
pcurve $-1 0 forward { exppc nubs 1 open 2 
	-78.7401574803150055 1 0 1 
	0 1 
	0 0 
	0.02540000000011368581 
	spline forward { ref 27 } I I I I 
	} 0 0 #
face $-1 $130 $122 $2 $-1 $226 forward single #
point $-1 -195.0000000000000284 10.00000000000000355 0 #
edge $-1 $178 0.8571428571428569843 $132 0.9047619047619049892 $126 $227 forward 7 unknown #
pcurve $-1 0 forward { exppc nubs 1 open 2 
	-0.9047619047619049892 1 -0.8571428571428569843 1 
	1 1 
	0 1 
	0.02540000000045474632 
	spline forward { ref 15 } I I I I 
	} 0 0 #
vertex $-1 $128 $228 #
straight-curve $-1 -149.9999999999999432 -14.99999999999999467 0 0 0 25.39999999999999858 F 0 F 78.7401574803150055 #
spline-surface $-1 forward { ref 15 } I I I I #
point $-1 -109.9999999999999147 -10.00000000000000355 2000.000000000001137 #
plane-surface $-1 0 0 2000.000000000001137 0 0 1 25.39999999999999858 0 0 forward_v I I I I #
coedge $-1 $136 $229 $191 $230 forward $5 $-1 #
edge $-1 $231 0 $185 1 $136 $232 forward 7 unknown #
vertex $-1 $184 $233 #
intcurve-curve $-1 forward { exactcur full nubs 2 open 2 
	0 2 1 2 
	220.0000000000000853 65.00000000000009948 0 
	220.0000000000000853 29.99999999999988987 0 
	195.0000000000000284 10.00000000000000355 0 
	0 
	null_surface 
	null_surface 
	nullbs 
	nullbs 
	I I 
	0 
	0 
	0 
	F 1 F 0 } I I #
point $-1 195.0000000000000284 10.00000000000000355 0 #
face $-1 $234 $235 $2 $-1 $236 forward single #
loop $-1 $-1 $237 $141 #
spline-surface $-1 forward { exactsur full nubs 2 1 open open none none 2 2 
	0 2 1 2 
	0 1 1 1 
	129.9999999999999147 209.999999999998721 0 
	80.00000000000002842 250.0000000000007674 0 
	155 274.9999999999998295 0 
	129.9999999999999147 209.999999999998721 1999.999999999998408 
	80.00000000000002842 250.0000000000007674 1999.999999999998408 
	155 274.9999999999998295 2000.000000000001137 
	0 
	0 
	0 
	0 
	0 
	0 
	0 
	F 1 F 0 F 1 F 0 } I I I I #
coedge $-1 $238 $239 $183 $230 reversed $142 $240 #
coedge $-1 $241 $144 $239 $242 forward $95 $243 #
coedge $-1 $144 $241 $145 $196 reversed $95 $244 #
pcurve $-1 0 forward { exppc nubs 1 open 2 
	-1 1 0 1 
	0 0 
	1 0 
	0.02539999999999999897 
	spline forward { ref 19 } I I I I 
	} 0 0 #
coedge $-1 $146 $145 $245 $246 reversed $58 $247 #
edge $-1 $185 0 $248 78.7401574803150055 $145 $249 forward 7 unknown #
pcurve $-1 0 forward { exppc nubs 1 open 2 
	0 1 78.7401574803150055 1 
	1 0 
	1 1 
	0.02539999999999999897 
	spline forward { ref 9 } I I I I 
	} 0 0 #
pcurve $-1 0 forward { exppc nubs 1 open 2 
	-78.7401574803150055 1 0 1 
	0 1 
	0 0 
	0.02540000000011418541 
	spline forward { ref 9 } I I I I 
	} 0 0 #
coedge $-1 $245 $152 $148 $200 forward $111 $-1 #
edge $-1 $155 0.09523809523809520505 $202 0.142857142857142988 $148 $250 forward 7 unknown #
pcurve $-1 0 forward { exppc nubs 1 open 2 
	-0.142857142857142988 1 -0.09523809523809520505 1 
	1 1 
	0 1 
	0.02540000000002847619 
	spline forward { ref 3 } I I I I 
	} 0 0 #
vertex $-1 $149 $251 #
straight-curve $-1 195.0000000000000284 10.00000000000000355 0 0 0 25.39999999999999858 F 0 F 78.7401574803150055 #
intcurve-curve $-1 forward { ref 37 } F 0.04761904761904760253 F 0.09523809523809520505 #
point $-1 149.9999999999999432 -14.99999999999999467 2000.000000000001137 #
coedge $-1 $159 $252 $170 $222 forward $111 $-1 #
coedge $-1 $253 $161 $254 $255 forward $5 $-1 #
coedge $-1 $256 $257 $161 $209 reversed $258 $259 #
edge $-1 $214 0 $260 1 $161 $261 forward 7 unknown #
coedge $-1 $262 $162 $165 $218 forward $212 $263 #
coedge $-1 $162 $262 $256 $264 reversed $212 $265 #
loop $-1 $-1 $162 $266 #
pcurve $-1 0 forward { exppc nubs 1 open 2 
	-1 1 0 1 
	0 0 
	1 0 
	0.02539999999999999897 
	spline forward { exactsur full nubs 2 1 open open none none 2 2 
	0 2 1 2 
	0 1 1 1 
	-200.0000000000000853 135 0 
	-220.0000000000000853 100.0000000000000426 0 
	-220.0000000000000853 65.00000000000009948 0 
	-200.0000000000000853 135 2000.000000000001137 
	-220.0000000000000853 100.0000000000000426 2000.000000000001137 
	-220.0000000000000853 65.00000000000009948 2000.000000000001137 
	0 
	0 
	0 
	0 
	0 
	0 
	0 
	F 1 F 0 F 1 F 0 } I I I I 
	} 0 0 #
vertex $-1 $163 $267 #
intcurve-curve $-1 forward { exactcur full nubs 2 open 2 
	0 2 1 2 
	-220.0000000000000853 65.00000000000009948 0 
	-220.0000000000000853 100.0000000000000426 0 
	-200.0000000000000853 135 0 
	0 
	null_surface 
	null_surface 
	nullbs 
	nullbs 
	I I 
	0 
	0 
	0 
	F 1 F 0 } I I #
coedge $-1 $165 $164 $252 $268 reversed $166 $269 #
pcurve $-1 0 forward { exppc nubs 1 open 2 
	0 1 78.7401574803150055 1 
	1 0 
	1 1 
	0.02540000000003177563 
	spline forward { ref 39 } I I I I 
	} 0 0 #
edge $-1 $168 0 $270 78.7401574803150055 $210 $271 forward 7 unknown #
pcurve $-1 0 forward { exppc nubs 1 open 2 
	-78.7401574803150055 1 0 1 
	0 1 
	0 0 
	0.02540000000011368581 
	spline forward { ref 39 } I I I I 
	} 0 0 #
face $-1 $174 $166 $2 $-1 $272 forward single #
point $-1 -220.0000000000000853 65.00000000000009948 0 #
edge $-1 $224 0.8095238095238099785 $178 0.8571428571428569843 $170 $273 forward 7 unknown #
pcurve $-1 0 forward { exppc nubs 1 open 2 
	-0.8571428571428569843 1 -0.8095238095238099785 1 
	1 1 
	0 1 
	0.02540000000068211999 
	spline forward { ref 27 } I I I I 
	} 0 0 #
vertex $-1 $172 $274 #
straight-curve $-1 -195.0000000000000284 10.00000000000000355 0 0 0 25.39999999999999858 F 0 F 78.7401574803150055 #
spline-surface $-1 forward { ref 27 } I I I I #
intcurve-curve $-1 forward { ref 37 } F 0.8571428571428569843 F 0.9047619047619049892 #
point $-1 -149.9999999999999432 -14.99999999999999467 2000.000000000001137 #
coedge $-1 $183 $275 $237 $276 forward $5 $-1 #
edge $-1 $277 0 $231 1 $183 $278 forward 7 unknown #
vertex $-1 $230 $279 #
intcurve-curve $-1 forward { exactcur full nubs 2 open 2 
	0 2 1 2 
	200.0000000000000853 135 0 
	220.0000000000000853 100.0000000000000426 0 
	220.0000000000000853 65.00000000000009948 0 
	0 
	null_surface 
	null_surface 
	nullbs 
	nullbs 
	I I 
	0 
	0 
	0 
	F 1 F 0 } I I #
point $-1 220.0000000000000853 65.00000000000009948 0 #
face $-1 $280 $281 $2 $-1 $282 forward single #
loop $-1 $-1 $283 $188 #
spline-surface $-1 forward { exactsur full nubs 2 1 open open none none 2 2 
	0 2 1 2 
	0 1 1 1 
	155 274.9999999999998295 0 
	229.9999999999999716 299.9999999999988631 0 
	229.9999999999999716 349.9999999999995453 0 
	155 274.9999999999998295 2000.000000000001137 
	229.9999999999999716 299.9999999999988631 2000.000000000001137 
	229.9999999999999716 349.9999999999995453 2000.000000000001137 
	0 
	0 
	0 
	0 
	0 
	0 
	0 
	F 1 F 0 F 1 F 0 } I I I I #
coedge $-1 $284 $285 $229 $276 reversed $189 $286 #
coedge $-1 $287 $191 $285 $288 forward $142 $289 #
coedge $-1 $191 $287 $192 $242 reversed $142 $290 #
pcurve $-1 0 forward { exppc nubs 1 open 2 
	-1 1 0 1 
	0 0 
	1 0 
	0.02539999999999999897 
	spline forward { ref 32 } I I I I 
	} 0 0 #
coedge $-1 $193 $192 $291 $292 reversed $95 $293 #
edge $-1 $231 0 $294 78.7401574803150055 $192 $295 forward 7 unknown #
pcurve $-1 0 forward { exppc nubs 1 open 2 
	0 1 78.7401574803150055 1 
	1 0 
	1 1 
	0.02540000000004019251 
	spline forward { ref 19 } I I I I 
	} 0 0 #
pcurve $-1 0 forward { exppc nubs 1 open 2 
	-78.7401574803150055 1 0 1 
	0 1 
	0 0 
	0.02540000000011457051 
	spline forward { ref 19 } I I I I 
	} 0 0 #
coedge $-1 $291 $199 $195 $246 forward $111 $-1 #
edge $-1 $202 0.142857142857142988 $248 0.1904761904761899938 $195 $296 forward 7 unknown #
pcurve $-1 0 forward { exppc nubs 1 open 2 
	-0.1904761904761899938 1 -0.142857142857142988 1 
	1 1 
	0 1 
	0.0254000000004547602 
	spline forward { ref 9 } I I I I 
	} 0 0 #
vertex $-1 $196 $297 #
straight-curve $-1 220.0000000000000853 65.00000000000009948 0 0 0 25.39999999999999858 F 0 F 78.7401574803150055 #
intcurve-curve $-1 forward { ref 37 } F 0.09523809523809520505 F 0.142857142857142988 #
point $-1 195.0000000000000284 10.00000000000000355 2000.000000000001137 #
coedge $-1 $206 $298 $216 $268 forward $111 $-1 #
coedge $-1 $299 $207 $300 $301 forward $5 $-1 #
coedge $-1 $302 $303 $207 $255 reversed $304 $305 #
edge $-1 $260 0 $306 1 $207 $307 forward 7 unknown #
coedge $-1 $308 $208 $211 $264 forward $258 $309 #
coedge $-1 $208 $308 $302 $310 reversed $258 $311 #
loop $-1 $-1 $208 $312 #
pcurve $-1 0 forward { exppc nubs 1 open 2 
	-1 1 0 1 
	0 0 
	1 0 
	0.02539999999999999897 
	spline forward { exactsur full nubs 2 1 open open none none 2 2 
	0 2 1 2 
	0 1 1 1 
	-129.9999999999999147 209.9999999999999716 0 
	-180.0000000000000853 169.9999999999999716 0 
	-200.0000000000000853 135 0 
	-129.9999999999999147 209.9999999999999716 2000.000000000001137 
	-180.0000000000000853 169.9999999999999716 2000.000000000001137 
	-200.0000000000000853 135 2000.000000000001137 
	0 
	0 
	0 
	0 
	0 
	0 
	0 
	F 1 F 0 F 1 F 0 } I I I I 
	} 0 0 #
vertex $-1 $209 $313 #
intcurve-curve $-1 forward { exactcur full nubs 2 open 2 
	0 2 1 2 
	-200.0000000000000853 135 0 
	-180.0000000000000853 169.9999999999999716 0 
	-129.9999999999999147 209.9999999999999716 0 
	0 
	null_surface 
	null_surface 
	nullbs 
	nullbs 
	I I 
	0 
	0 
	0 
	F 1 F 0 } I I #
coedge $-1 $211 $210 $298 $314 reversed $212 $315 #
pcurve $-1 0 forward { exppc nubs 1 open 2 
	0 1 78.7401574803150055 1 
	1 0 
	1 1 
	0.02539999999999999897 
	spline forward { ref 51 } I I I I 
	} 0 0 #
edge $-1 $214 0 $316 78.7401574803150055 $256 $317 forward 7 unknown #
pcurve $-1 0 forward { exppc nubs 1 open 2 
	-78.7401574803150055 1 0 1 
	0 1 
	0 0 
	0.02540000000011368581 
	spline forward { ref 51 } I I I I 
	} 0 0 #
face $-1 $220 $212 $2 $-1 $318 forward single #
point $-1 -200.0000000000000853 135 0 #
edge $-1 $270 0.7619047619047619735 $224 0.8095238095238099785 $216 $319 forward 7 unknown #
pcurve $-1 0 forward { exppc nubs 1 open 2 
	-0.8095238095238099785 1 -0.7619047619047619735 1 
	1 1 
	0 1 
	0.02540000000068211999 
	spline forward { ref 39 } I I I I 
	} 0 0 #
vertex $-1 $218 $320 #
straight-curve $-1 -220.0000000000000853 65.00000000000009948 0 0 0 25.39999999999999858 F 0 F 78.7401574803150055 #
spline-surface $-1 forward { ref 39 } I I I I #
intcurve-curve $-1 forward { ref 37 } F 0.8095238095238099785 F 0.8571428571428569843 #
point $-1 -195.0000000000000284 10.00000000000000355 2000.000000000001137 #
coedge $-1 $229 $321 $283 $322 forward $5 $-1 #
edge $-1 $323 0 $277 1 $229 $324 forward 7 unknown #
vertex $-1 $276 $325 #
intcurve-curve $-1 forward { exactcur full nubs 2 open 2 
	0 2 1 2 
	129.9999999999999147 209.9999999999999716 0 
	180.0000000000000853 169.9999999999999716 0 
	200.0000000000000853 135 0 
	0 
	null_surface 
	null_surface 
	nullbs 
	nullbs 
	I I 
	0 
	0 
	0 
	F 1 F 0 } I I #
point $-1 200.0000000000000853 135 0 #
face $-1 $326 $327 $2 $-1 $328 forward single #
loop $-1 $-1 $329 $234 #
plane-surface $-1 229.9999999999999716 400.0000000000001705 1000.000000000000568 1 0 0 0 0 -1 forward_v I I I I #
coedge $-1 $330 $331 $275 $322 reversed $235 $332 #
coedge $-1 $333 $237 $331 $334 forward $189 $335 #
coedge $-1 $237 $333 $238 $288 reversed $189 $336 #
pcurve $-1 0 forward { exppc nubs 1 open 2 
	-1 1 0 1 
	0 0 
	1 0 
	0.02539999999999999897 
	spline forward { ref 45 } I I I I 
	} 0 0 #
coedge $-1 $239 $238 $337 $338 reversed $142 $339 #
edge $-1 $277 0 $340 78.7401574803150055 $238 $341 forward 7 unknown #
pcurve $-1 0 forward { exppc nubs 1 open 2 
	0 1 78.7401574803150055 1 
	1 0 
	1 1 
	0.02539999999999999897 
	spline forward { ref 32 } I I I I 
	} 0 0 #
pcurve $-1 0 forward { exppc nubs 1 open 2 
	-78.7401574803150055 1 0 1 
	0 1 
	0 0 
	0.02540000000011368581 
	spline forward { ref 32 } I I I I 
	} 0 0 #
coedge $-1 $337 $245 $241 $292 forward $111 $-1 #
edge $-1 $248 0.1904761904761899938 $294 0.2380952380952379988 $241 $342 forward 7 unknown #
pcurve $-1 0 forward { exppc nubs 1 open 2 
	-0.2380952380952379988 1 -0.1904761904761899938 1 
	1 1 
	0 1 
	0.02540000000068211999 
	spline forward { ref 19 } I I I I 
	} 0 0 #
vertex $-1 $242 $343 #
straight-curve $-1 200.0000000000000853 135 0 0 0 25.39999999999999858 F 0 F 78.7401574803150055 #
intcurve-curve $-1 forward { ref 37 } F 0.142857142857142988 F 0.1904761904761899938 #
point $-1 220.0000000000000853 65.00000000000009948 2000.000000000001137 #
coedge $-1 $252 $344 $262 $314 forward $111 $-1 #
coedge $-1 $345 $253 $346 $347 forward $5 $-1 #
coedge $-1 $348 $349 $253 $301 reversed $350 $351 #
edge $-1 $306 0 $352 1 $253 $353 forward 7 unknown #
coedge $-1 $354 $254 $257 $310 forward $304 $355 #
coedge $-1 $254 $354 $348 $356 reversed $304 $357 #
loop $-1 $-1 $254 $358 #
pcurve $-1 0 forward { exppc nubs 1 open 2 
	-1 1 0 1 
	0 0 
	1 0 
	0.02539999999999999897 
	spline forward { exactsur full nubs 2 1 open open none none 2 2 
	0 2 1 2 
	0 1 1 1 
	-155 274.9999999999998295 0 
	-79.99999999999978684 250 0 
	-130.000000000000199 209.9999999999999716 0 
	-155 274.9999999999998295 2000.000000000001137 
	-79.99999999999978684 250 2000.000000000001137 
	-130.000000000000199 209.9999999999999716 1999.999999999998408 
	0 
	0 
	0 
	0 
	0 
	0 
	0 
	F 1 F 0 F 1 F 0 } I I I I 
	} 0 0 #
vertex $-1 $255 $359 #
intcurve-curve $-1 forward { exactcur full nubs 2 open 2 
	0 2 1 2 
	-130.000000000000199 210.000000000000199 0 
	-79.99999999999978684 250 0 
	-155 274.9999999999998295 0 
	0 
	null_surface 
	null_surface 
	nullbs 
	nullbs 
	I I 
	0 
	0 
	0 
	F 1 F 0 } I I #
coedge $-1 $257 $256 $344 $360 reversed $258 $361 #
pcurve $-1 0 forward { exppc nubs 1 open 2 
	0 1 78.7401574803150055 1 
	1 0 
	1 1 
	0.02539999999999999897 
	spline forward { ref 63 } I I I I 
	} 0 0 #
edge $-1 $260 0 $362 78.7401574803150055 $302 $363 forward 7 unknown #
pcurve $-1 0 forward { exppc nubs 1 open 2 
	-78.7401574803150055 1 0 1 
	0 1 
	0 0 
	0.02540000000011368581 
	spline forward { ref 63 } I I I I 
	} 0 0 #
face $-1 $266 $258 $2 $-1 $364 forward single #
point $-1 -129.9999999999999147 209.9999999999999716 0 #
edge $-1 $316 0.7142857142857139685 $270 0.7619047619047619735 $262 $365 forward 7 unknown #
pcurve $-1 0 forward { exppc nubs 1 open 2 
	-0.7619047619047619735 1 -0.7142857142857139685 1 
	1 1 
	0 1 
	0.02540000000022781673 
	spline forward { ref 51 } I I I I 
	} 0 0 #
vertex $-1 $264 $366 #
straight-curve $-1 -200.0000000000000853 135 0 0 0 25.39999999999999858 F 0 F 78.7401574803150055 #
spline-surface $-1 forward { ref 51 } I I I I #
intcurve-curve $-1 forward { ref 37 } F 0.7619047619047619735 F 0.8095238095238099785 #
point $-1 -220.0000000000000853 65.00000000000009948 2000.000000000001137 #
coedge $-1 $275 $367 $329 $368 forward $5 $-1 #
edge $-1 $369 0 $323 1 $275 $370 forward 7 unknown #
vertex $-1 $322 $371 #
intcurve-curve $-1 forward { exactcur full nubs 2 open 2 
	0 2 1 2 
	155 274.9999999999998295 0 
	80.00000000000029843 250.0000000000007674 0 
	129.9999999999999147 209.999999999998721 0 
	0 
	null_surface 
	null_surface 
	nullbs 
	nullbs 
	I I 
	0 
	0 
	0 
	F 1 F 0 } I I #
point $-1 129.9999999999999147 209.9999999999999716 0 #
face $-1 $372 $373 $2 $-1 $374 forward single #
loop $-1 $-1 $375 $280 #
spline-surface $-1 forward { exactsur full nubs 2 1 open open none none 2 2 
	0 2 1 2 
	0 1 1 1 
	229.9999999999999716 450.0000000000007958 0 
	229.9999999999999716 499.9999999999989768 0 
	0 499.9999999999989768 0 
	229.9999999999999716 450.0000000000007958 2000.000000000001137 
	229.9999999999999716 499.9999999999989768 2000.000000000001137 
	0 499.9999999999989768 2000.000000000001137 
	0 
	0 
	0 
	0 
	0 
	0 
	0 
	F 1 F 0 F 1 F 0 } I I I I #
coedge $-1 $376 $377 $321 $368 reversed $281 $-1 #
coedge $-1 $378 $283 $377 $379 forward $235 $380 #
coedge $-1 $283 $378 $284 $334 reversed $235 $381 #
pcurve $-1 0 forward { exppc nubs 1 open 2 
	-1 1 0 1 
	0 0 
	1 0 
	0.02539999999999999897 
	spline forward { ref 57 } I I I I 
	} 0 0 #
coedge $-1 $285 $284 $382 $383 reversed $189 $384 #
edge $-1 $323 0 $385 78.7401574803150055 $284 $386 forward 7 unknown #
pcurve $-1 0 forward { exppc nubs 1 open 2 
	0 1 78.7401574803150055 1 
	1 0 
	1 1 
	0.02540000000002842068 
	spline forward { ref 45 } I I I I 
	} 0 0 #
pcurve $-1 0 forward { exppc nubs 1 open 2 
	-78.7401574803150055 1 0 1 
	0 1 
	0 0 
	0.02540000000079833953 
	spline forward { ref 45 } I I I I 
	} 0 0 #
coedge $-1 $382 $291 $287 $338 forward $111 $-1 #
edge $-1 $294 0.2380952380952379988 $340 0.285714285714285976 $287 $387 forward 7 unknown #
pcurve $-1 0 forward { exppc nubs 1 open 2 
	-0.285714285714285976 1 -0.2380952380952379988 1 
	1 1 
	0 1 
	0.02540000000045474632 
	spline forward { ref 32 } I I I I 
	} 0 0 #
vertex $-1 $288 $388 #
straight-curve $-1 129.9999999999999147 209.9999999999999716 0 0 0 25.39999999999999858 F 0 F 78.7401574803150055 #
intcurve-curve $-1 forward { ref 37 } F 0.1904761904761899938 F 0.2380952380952379988 #
point $-1 200.0000000000000853 135 2000.000000000001137 #
coedge $-1 $298 $389 $308 $360 forward $111 $-1 #
coedge $-1 $367 $299 $390 $391 forward $5 $-1 #
coedge $-1 $392 $393 $299 $347 reversed $394 $-1 #
edge $-1 $352 0 $395 1 $299 $396 forward 7 unknown #
coedge $-1 $397 $300 $303 $356 forward $350 $398 #
coedge $-1 $300 $397 $392 $399 reversed $350 $400 #
loop $-1 $-1 $300 $401 #
pcurve $-1 0 forward { exppc nubs 1 open 2 
	-1 1 0 1 
	0 0 
	1 0 
	0.02539999999999999897 
	spline forward { exactsur full nubs 2 1 open open none none 2 2 
	0 2 1 2 
	0 1 1 1 
	-229.9999999999999716 349.9999999999995453 0 
	-229.9999999999999716 299.9999999999988631 0 
	-155 274.9999999999998295 0 
	-229.9999999999999716 349.9999999999995453 2000.000000000001137 
	-229.9999999999999716 299.9999999999988631 2000.000000000001137 
	-155 274.9999999999998295 2000.000000000001137 
	0 
	0 
	0 
	0 
	0 
	0 
	0 
	F 1 F 0 F 1 F 0 } I I I I 
	} 0 0 #
vertex $-1 $301 $402 #
intcurve-curve $-1 forward { exactcur full nubs 2 open 2 
	0 2 1 2 
	-155 274.9999999999998295 0 
	-229.9999999999999716 299.9999999999988631 0 
	-229.9999999999999716 349.9999999999995453 0 
	0 
	null_surface 
	null_surface 
	nullbs 
	nullbs 
	I I 
	0 
	0 
	0 
	F 1 F 0 } I I #
coedge $-1 $303 $302 $389 $403 reversed $304 $404 #
pcurve $-1 0 forward { exppc nubs 1 open 2 
	0 1 78.7401574803150055 1 
	1 0 
	1 1 
	0.02540000000024449089 
	spline forward { ref 74 } I I I I 
	} 0 0 #
edge $-1 $306 0 $405 78.7401574803150055 $348 $406 forward 7 unknown #
pcurve $-1 0 forward { exppc nubs 1 open 2 
	-78.7401574803150055 1 0 1 
	0 1 
	0 0 
	0.02540000000011368581 
	spline forward { ref 74 } I I I I 
	} 0 0 #
face $-1 $312 $304 $2 $-1 $407 forward single #
point $-1 -155 274.9999999999998295 0 #
edge $-1 $362 0.6666666666666669627 $316 0.7142857142857139685 $308 $408 forward 7 unknown #
pcurve $-1 0 forward { exppc nubs 1 open 2 
	-0.7142857142857139685 1 -0.6666666666666669627 1 
	1 1 
	0 1 
	0.02540000000002842068 
	spline forward { ref 63 } I I I I 
	} 0 0 #
vertex $-1 $310 $409 #
straight-curve $-1 -129.9999999999999147 209.9999999999999716 0 0 0 25.39999999999999858 F 0 F 78.7401574803150055 #
spline-surface $-1 forward { ref 63 } I I I I #
intcurve-curve $-1 forward { ref 37 } F 0.7142857142857139685 F 0.7619047619047619735 #
point $-1 -200.0000000000000853 135 2000.000000000001137 #
coedge $-1 $321 $345 $375 $410 forward $5 $-1 #
edge $-1 $411 0 $369 1 $321 $412 forward 7 unknown #
vertex $-1 $368 $413 #
intcurve-curve $-1 forward { exactcur full nubs 2 open 2 
	0 2 1 2 
	229.9999999999999716 349.9999999999995453 0 
	229.9999999999999716 299.9999999999988631 0 
	155 274.9999999999998295 0 
	0 
	null_surface 
	null_surface 
	nullbs 
	nullbs 
	I I 
	0 
	0 
	0 
	F 1 F 0 } I I #
point $-1 155 274.9999999999998295 0 #
face $-1 $401 $394 $2 $-1 $414 forward single #
loop $-1 $-1 $390 $326 #
spline-surface $-1 forward { exactsur full nubs 2 1 open open none none 2 2 
	0 2 1 2 
	0 1 1 1 
	0 499.9999999999989768 0 
	-229.9999999999999716 499.9999999999989768 0 
	-229.9999999999999716 450.0000000000007958 0 
	0 499.9999999999989768 2000.000000000001137 
	-229.9999999999999716 499.9999999999989768 2000.000000000001137 
	-229.9999999999999716 450.0000000000007958 2000.000000000001137 
	0 
	0 
	0 
	0 
	0 
	0 
	0 
	F 1 F 0 F 1 F 0 } I I I I #
coedge $-1 $415 $416 $367 $410 reversed $327 $417 #
coedge $-1 $418 $329 $416 $419 forward $281 $-1 #
coedge $-1 $329 $418 $330 $379 reversed $281 $-1 #
coedge $-1 $331 $330 $420 $421 reversed $235 $422 #
edge $-1 $369 0 $423 78.7401574803150055 $330 $424 forward 7 unknown #
pcurve $-1 0 forward { exppc nubs 1 open 2 
	0 1 78.7401574803150055 1 
	1 0 
	1 1 
	0.02539999999999999897 
	spline forward { ref 57 } I I I I 
	} 0 0 #
pcurve $-1 0 forward { exppc nubs 1 open 2 
	-78.7401574803150055 1 0 1 
	0 1 
	0 0 
	0.02540000000011368581 
	spline forward { ref 57 } I I I I 
	} 0 0 #
coedge $-1 $420 $337 $333 $383 forward $111 $-1 #
edge $-1 $340 0.285714285714285976 $385 0.3333333333333329818 $333 $425 forward 7 unknown #
pcurve $-1 0 forward { exppc nubs 1 open 2 
	-0.3333333333333329818 1 -0.285714285714285976 1 
	1 1 
	0 1 
	0.02540000000002842068 
	spline forward { ref 45 } I I I I 
	} 0 0 #
vertex $-1 $334 $426 #
straight-curve $-1 155 274.9999999999998295 0 0 0 25.39999999999999858 F 0 F 78.7401574803150055 #
intcurve-curve $-1 forward { ref 37 } F 0.2380952380952379988 F 0.285714285714285976 #
point $-1 129.9999999999999147 209.9999999999999716 2000.000000000001137 #
coedge $-1 $344 $427 $354 $403 forward $111 $-1 #
coedge $-1 $428 $429 $345 $391 reversed $373 $430 #
edge $-1 $395 0 $431 1 $345 $432 forward 7 unknown #
coedge $-1 $433 $346 $349 $399 forward $394 $-1 #
coedge $-1 $346 $433 $428 $434 reversed $394 $-1 #
loop $-1 $-1 $346 $372 #
vertex $-1 $347 $435 #
intcurve-curve $-1 forward { exactcur full nubs 2 open 2 
	0 2 1 2 
	-229.9999999999999716 349.9999999999995453 0 
	-229.9999999999999716 400.0000000000001705 0 
	-229.9999999999999716 450.0000000000007958 0 
	0 
	null_surface 
	null_surface 
	nullbs 
	nullbs 
	I I 
	0 
	0 
	0 
	F 1 F 0 } I I #
coedge $-1 $349 $348 $427 $436 reversed $350 $437 #
pcurve $-1 0 forward { exppc nubs 1 open 2 
	0 1 78.7401574803150055 1 
	1 0 
	1 1 
	0.02539999999999999897 
	spline forward { ref 86 } I I I I 
	} 0 0 #
edge $-1 $352 0 $438 78.7401574803150055 $392 $439 forward 7 unknown #
pcurve $-1 0 forward { exppc nubs 1 open 2 
	-78.7401574803150055 1 0 1 
	0 1 
	0 0 
	0.02540000000011368581 
	spline forward { ref 86 } I I I I 
	} 0 0 #
face $-1 $358 $350 $2 $-1 $440 forward single #
point $-1 -229.9999999999999716 349.9999999999995453 0 #
edge $-1 $405 0.6190476190476189577 $362 0.6666666666666669627 $354 $441 forward 7 unknown #
pcurve $-1 0 forward { exppc nubs 1 open 2 
	-0.6666666666666669627 1 -0.6190476190476189577 1 
	1 1 
	0 1 
	0.02540000000001420982 
	spline forward { ref 74 } I I I I 
	} 0 0 #
vertex $-1 $356 $442 #
straight-curve $-1 -155 274.9999999999998295 0 0 0 25.39999999999999858 F 0 F 78.7401574803150055 #
spline-surface $-1 forward { ref 74 } I I I I #
intcurve-curve $-1 forward { ref 37 } F 0.6666666666666669627 F 0.7142857142857139685 #
point $-1 -129.9999999999999147 209.9999999999999716 2000.000000000001137 #
edge $-1 $431 0 $411 1 $367 $443 forward 7 unknown #
vertex $-1 $410 $444 #
intcurve-curve $-1 forward { exactcur full nubs 2 open 2 
	0 2 1 2 
	229.9999999999999716 450.0000000000007958 0 
	229.9999999999999716 400.0000000000001705 0 
	229.9999999999999716 349.9999999999995453 0 
	0 
	null_surface 
	null_surface 
	nullbs 
	nullbs 
	I I 
	0 
	0 
	0 
	F 1 F 0 } I I #
point $-1 229.9999999999999716 349.9999999999995453 0 #
plane-surface $-1 -229.9999999999999716 400.0000000000001705 1000.000000000000568 -1 0 0 0 -0 1 forward_v I I I I #
coedge $-1 $445 $375 $429 $446 forward $327 $447 #
coedge $-1 $375 $445 $376 $419 reversed $327 $448 #
pcurve $-1 0 forward { exppc nubs 1 open 2 
	-1 1 0 1 
	0 0 
	1 0 
	0.02539999999999999897 
	spline forward { ref 80 } I I I I 
	} 0 0 #
coedge $-1 $377 $376 $449 $450 reversed $281 $-1 #
edge $-1 $411 0 $451 78.7401574803150055 $376 $452 forward 7 unknown #
coedge $-1 $449 $382 $378 $421 forward $111 $-1 #
edge $-1 $385 0.3333333333333329818 $423 0.3809523809523809867 $378 $453 forward 7 unknown #
pcurve $-1 0 forward { exppc nubs 1 open 2 
	-0.3809523809523809867 1 -0.3333333333333329818 1 
	1 1 
	0 1 
	0.02540000000002842068 
	spline forward { ref 57 } I I I I 
	} 0 0 #
vertex $-1 $379 $454 #
straight-curve $-1 229.9999999999999716 349.9999999999995453 0 0 0 25.39999999999999858 F 0 F 78.7401574803150055 #
intcurve-curve $-1 forward { ref 37 } F 0.285714285714285976 F 0.3333333333333329818 #
point $-1 155 274.9999999999998295 2000.000000000001137 #
coedge $-1 $389 $455 $397 $436 forward $111 $-1 #
coedge $-1 $456 $390 $393 $434 forward $373 $457 #
coedge $-1 $390 $456 $415 $446 reversed $373 $458 #
pcurve $-1 0 forward { exppc nubs 1 open 2 
	-1 1 0 1 
	0 0 
	1 0 
	0.02539999999999999897 
	spline forward { ref 92 } I I I I 
	} 0 0 #
vertex $-1 $391 $459 #
intcurve-curve $-1 forward { exactcur full nubs 2 open 2 
	0 2 1 2 
	-229.9999999999999716 450.0000000000007958 0 
	-229.9999999999999716 499.9999999999989768 0 
	0 499.9999999999989768 0 
	0 
	null_surface 
	null_surface 
	nullbs 
	nullbs 
	I I 
	0 
	0 
	0 
	F 1 F 0 } I I #
coedge $-1 $393 $392 $455 $460 reversed $394 $-1 #
edge $-1 $395 0 $461 78.7401574803150055 $428 $462 forward 7 unknown #
point $-1 -229.9999999999999716 450.0000000000007958 0 #
edge $-1 $438 0.5714285714285709528 $405 0.6190476190476189577 $397 $463 forward 7 unknown #
pcurve $-1 0 forward { exppc nubs 1 open 2 
	-0.6190476190476189577 1 -0.5714285714285709528 1 
	1 1 
	0 1 
	0.02540000000022737264 
	spline forward { ref 86 } I I I I 
	} 0 0 #
vertex $-1 $399 $464 #
straight-curve $-1 -229.9999999999999716 349.9999999999995453 0 0 0 25.39999999999999858 F 0 F 78.7401574803150055 #
spline-surface $-1 forward { ref 86 } I I I I #
intcurve-curve $-1 forward { ref 37 } F 0.6190476190476189577 F 0.6666666666666669627 #
point $-1 -155 274.9999999999998295 2000.000000000001137 #
intcurve-curve $-1 forward { exactcur full nubs 2 open 2 
	0 2 1 2 
	0 499.9999999999989768 0 
	229.9999999999999716 499.9999999999989768 0 
	229.9999999999999716 450.0000000000007958 0 
	0 
	null_surface 
	null_surface 
	nullbs 
	nullbs 
	I I 
	0 
	0 
	0 
	F 1 F 0 } I I #
point $-1 229.9999999999999716 450.0000000000007958 0 #
coedge $-1 $416 $415 $465 $466 reversed $327 $467 #
edge $-1 $431 0 $468 78.7401574803150055 $415 $469 forward 7 unknown #
pcurve $-1 0 forward { exppc nubs 1 open 2 
	0 1 78.7401574803150055 1 
	1 0 
	1 1 
	0.02539999999999999897 
	spline forward { ref 80 } I I I I 
	} 0 0 #
pcurve $-1 0 forward { exppc nubs 1 open 2 
	-78.7401574803150055 1 0 1 
	0 1 
	0 0 
	0.02540000000011368581 
	spline forward { ref 80 } I I I I 
	} 0 0 #
coedge $-1 $465 $420 $418 $450 forward $111 $-1 #
edge $-1 $423 0.3809523809523809867 $451 0.4285714285714289917 $418 $470 forward 7 unknown #
vertex $-1 $419 $471 #
straight-curve $-1 229.9999999999999716 450.0000000000007958 0 0 0 25.39999999999999858 F 0 F 78.7401574803150055 #
intcurve-curve $-1 forward { ref 37 } F 0.3333333333333329818 F 0.3809523809523809867 #
point $-1 229.9999999999999716 349.9999999999995453 2000.000000000001137 #
coedge $-1 $427 $472 $433 $460 forward $111 $-1 #
coedge $-1 $429 $428 $472 $473 reversed $373 $474 #
pcurve $-1 0 forward { exppc nubs 1 open 2 
	0 1 78.7401574803150055 1 
	1 0 
	1 1 
	0.02539999999999999897 
	spline forward { ref 92 } I I I I 
	} 0 0 #
pcurve $-1 0 forward { exppc nubs 1 open 2 
	-78.7401574803150055 1 0 1 
	0 1 
	0 0 
	0.02540000000011368581 
	spline forward { ref 92 } I I I I 
	} 0 0 #
point $-1 0 499.9999999999989768 0 #
edge $-1 $461 0.523809523809523947 $438 0.5714285714285709528 $433 $475 forward 7 unknown #
vertex $-1 $434 $476 #
straight-curve $-1 -229.9999999999999716 450.0000000000007958 0 0 0 25.39999999999999858 F 0 F 78.7401574803150055 #
intcurve-curve $-1 forward { ref 37 } F 0.5714285714285709528 F 0.6190476190476189577 #
point $-1 -229.9999999999999716 349.9999999999995453 2000.000000000001137 #
coedge $-1 $472 $449 $445 $466 forward $111 $-1 #
edge $-1 $451 0.4285714285714289917 $468 0.4761904761904759975 $445 $477 forward 7 unknown #
pcurve $-1 0 forward { exppc nubs 1 open 2 
	-0.4761904761904759975 1 -0.4285714285714289917 1 
	1 1 
	0 1 
	0.02540000000045828515 
	spline forward { ref 80 } I I I I 
	} 0 0 #
vertex $-1 $446 $478 #
straight-curve $-1 0 499.9999999999989768 0 0 0 25.39999999999999858 F 0 F 78.7401574803150055 #
intcurve-curve $-1 forward { exactcur full nubs 2 periodic 22 
	0 2 0.04761904761904760253 1 0.09523809523809520505 1 0.142857142857142988 1 0.1904761904761899938 1 
	0.2380952380952379988 1 0.285714285714285976 1 0.3333333333333329818 1 0.3809523809523809867 1 0.4285714285714289917 1 
	0.4761904761904759975 1 0.523809523809523947 1 0.5714285714285709528 1 0.6190476190476189577 1 0.6666666666666669627 1 
	0.7142857142857139685 1 0.7619047619047619735 1 0.8095238095238099785 1 0.8571428571428569843 1 0.9047619047619049892 1 
	0.952380952380951995 1 1 2 
	45.00000000000000711 0 2000.000000000001137 
	89.99999999999991473 0 2000.000000000001137 
	129.9999999999999147 -20.00000000000000711 2000.000000000001137 
	169.9999999999999716 -10.00000000000000355 2000.000000000001137 
	220.0000000000000853 29.99999999999988987 2000.000000000001137 
	220.0000000000000853 100.0000000000000426 2000.000000000001137 
	180.0000000000000853 169.9999999999999716 2000.000000000001137 
	80.00000000000002842 250 2000.000000000001137 
	229.9999999999999716 299.9999999999988631 2000.000000000001137 
	229.9999999999999716 400.0000000000001705 2000.000000000001137 
	229.9999999999999716 499.9999999999989768 2000.000000000001137 
	-229.9999999999999716 499.9999999999989768 2000.000000000001137 
	-229.9999999999999716 400.0000000000001705 2000.000000000001137 
	-229.9999999999999716 299.9999999999988631 2000.000000000001137 
	-80.00000000000002842 250 2000.000000000001137 
	-180.0000000000000853 169.9999999999999716 2000.000000000001137 
	-220.0000000000000853 100.0000000000000426 2000.000000000001137 
	-220.0000000000000853 29.99999999999988987 2000.000000000001137 
	-169.9999999999999716 -10.00000000000000355 2000.000000000001137 
	-129.9999999999999147 -20.00000000000000711 2000.000000000001137 
	-89.99999999999991473 0 2000.000000000001137 
	0 0 2000.000000000001137 
	44.99999999999906919 0 2000.000000000001137 
	0 
	null_surface 
	null_surface 
	nullbs 
	nullbs 
	I I 
	0 
	20 0 0.04761904761904760253 0.09523809523809520505 0.142857142857142988 0.1904761904761899938 0.2380952380952379988 0.285714285714285976 0.3333333333333329818 0.3809523809523809867 0.4285714285714289917 0.523809523809523947 0.5714285714285709528 0.6190476190476189577 0.6666666666666669627 0.7142857142857139685 0.7619047619047619735 0.8095238095238099785 0.8571428571428569843 0.9047619047619049892 0.952380952380951995 
	1 0.4761904761904759975 
	F 1 F 0 } I I #
point $-1 229.9999999999999716 450.0000000000007958 2000.000000000001137 #
coedge $-1 $455 $465 $456 $473 forward $111 $-1 #
edge $-1 $468 0.4761904761904759975 $461 0.523809523809523947 $456 $479 forward 7 unknown #
pcurve $-1 0 forward { exppc nubs 1 open 2 
	-0.523809523809523947 1 -0.4761904761904759975 1 
	1 1 
	0 1 
	0.02540000000045474632 
	spline forward { ref 92 } I I I I 
	} 0 0 #
intcurve-curve $-1 forward { exactcur full nubs 2 periodic 22 
	0 2 0.04761904761904760253 1 0.09523809523809520505 1 0.142857142857142988 1 0.1904761904761899938 1 
	0.2380952380952379988 1 0.285714285714285976 1 0.3333333333333329818 1 0.3809523809523809867 1 0.4285714285714289917 1 
	0.4761904761904759975 1 0.523809523809523947 1 0.5714285714285709528 1 0.6190476190476189577 1 0.6666666666666669627 1 
	0.7142857142857139685 1 0.7619047619047619735 1 0.8095238095238099785 1 0.8571428571428569843 1 0.9047619047619049892 1 
	0.952380952380951995 1 1 2 
	45.00000000000000711 0 2000.000000000001137 
	89.99999999999991473 0 2000.000000000001137 
	129.9999999999999147 -20.00000000000000711 2000.000000000001137 
	169.9999999999999716 -10.00000000000000355 2000.000000000001137 
	220.0000000000000853 29.99999999999988987 2000.000000000001137 
	220.0000000000000853 100.0000000000000426 2000.000000000001137 
	180.0000000000000853 169.9999999999999716 2000.000000000001137 
	80.00000000000002842 250 2000.000000000001137 
	229.9999999999999716 299.9999999999988631 2000.000000000001137 
	229.9999999999999716 400.0000000000001705 2000.000000000001137 
	229.9999999999999716 499.9999999999989768 2000.000000000001137 
	-229.9999999999999716 499.9999999999989768 2000.000000000001137 
	-229.9999999999999716 400.0000000000001705 2000.000000000001137 
	-229.9999999999999716 299.9999999999988631 2000.000000000001137 
	-80.00000000000002842 250 2000.000000000001137 
	-180.0000000000000853 169.9999999999999716 2000.000000000001137 
	-220.0000000000000853 100.0000000000000426 2000.000000000001137 
	-220.0000000000000853 29.99999999999988987 2000.000000000001137 
	-169.9999999999999716 -10.00000000000000355 2000.000000000001137 
	-129.9999999999999147 -20.00000000000000711 2000.000000000001137 
	-89.99999999999991473 0 2000.000000000001137 
	0 0 2000.000000000001137 
	44.99999999999906919 0 2000.000000000001137 
	0 
	null_surface 
	null_surface 
	nullbs 
	nullbs 
	I I 
	0 
	20 0 0.04761904761904760253 0.09523809523809520505 0.142857142857142988 0.1904761904761899938 0.2380952380952379988 0.285714285714285976 0.3333333333333329818 0.3809523809523809867 0.4285714285714289917 0.523809523809523947 0.5714285714285709528 0.6190476190476189577 0.6666666666666669627 0.7142857142857139685 0.7619047619047619735 0.8095238095238099785 0.8571428571428569843 0.9047619047619049892 0.952380952380951995 
	1 0.4761904761904759975 
	F 1 F 0 } I I #
point $-1 -229.9999999999999716 450.0000000000007958 2000.000000000001137 #
intcurve-curve $-1 forward { ref 37 } F 0.4285714285714289917 F 0.4761904761904759975 #
point $-1 0 499.9999999999989768 2000.000000000001137 #
intcurve-curve $-1 forward { ref 37 } F 0.4761904761904759975 F 0.523809523809523947 #
End-of-ACIS-data 