**ABCDEFGHIJKLMNOPQRSTUVWXYZabcdefghijklmnopqrstuvwxyz**************************
**PARASOLID !"#$%&'()*+,-./:;<=>?@[\]^_`{|}~0123456789**************************
**PART1;MC=sparc;MC_MODEL=sun4c;MC_ID=chaos;OS=SunOS;OS_RELEASE=4.1.2;FRU=sdl_pa
rasolid_test_sparc;APPL=unknown;SITE=sdl-cambridge-u.k.;USER=brown;FORMAT=text;G
UISE=transmit;KEY=support2;FILE=support2.xmt_txt;DATE=14-feb-1992;
**PART2;SCH=SCH_401021_4039;USFLD_SIZE=0;
**PART3;
**END_OF_HEADER*****************************************************************
T50 : TRANSMIT FILE created by modeller version 40102115 SCH_401021_40390 12 1 1
25 2 3 0 0 0 1e3 1e-8 4 2 0 5 6 1 7 1e-8 0 0 81 2 2 125 8 1 0 0 0 0 9 10 70 3 0
 1 0 0 4 1 20 4 11 11 1 102 8 4 support213 7 2 0 1 0 12 13 0 14 15 0 14 12 84 0
 16 0 17 7 14 -16 13 75 0 18 0 19 15 51 14 108 0 12 20 0 0 +4.33 -4.33 -8.96 1 0
 0 .025 0 0 -1 38 15 78 0 13 21 0 0 +1e-8 22 20 23 24 24 38 21 67 0 19 25 15 0 +
1e-8 26 20 27 28 28 51 22 53 0 29 26 20 1 +4.33 -4.33 -9.46 0 0 1 .125 1 0 0 51
 20 0 0 7 22 14 2 +4.33 -4.33 -8.96 1 0 0 .025 0 0 -1 40 20 23 0 20 .00144960561
88993 .343739012368467 ??4.45366869177229 -4.34819490795058 -8.97714483376035 4.
45446939505658 -4.341505202920815 -8.98219527665408 4.4549511637801 -4.333493804
51632 -8.98475466279314 4.45490695894202 -4.32517800789541 -8.98453056037157 4.4
5437161048974 -4.31748191291815 -8.9816401824348 4.45356147489737 -4.31109069220
764 -8.97635353413834 4.45281490661584 -4.30672987509827 -8.96913790386565 4.452
477749165885 -4.305015985925825 -8.96089389078836 4.45269227527573 -4.3060917255
398 -8.95269285196977 4.45334950031504 -4.309753993677025 -8.94533373844601 4.45
4180134644985 -4.315706849208345 -8.93948888495359 4.45482334902812 -4.323356842
813565 -8.93589878711359 4.45498855047951 -4.331691818261815 -8.93505731067088 4
.454622352116085 -4.33970924060133 -8.93696240796122 4.453882483448325 -4.346677
23882047 -8.94137556161048 4.45306695189084 -4.35189806731877 -8.9479387128505 4
.452542368885025 -4.35466511358269 -8.95592174400594 4.45254825946336 -4.3546358
2964913 -8.9642515758842 4.453061770097945 -4.351927169000145 -8.97200829961481
 4.45366869177229 -4.34819490795058 -8.97714483376035 41 1 24 H4.45366869177229
 -4.34819490795058 -8.97714483376035 14 29 48 0 30 16 31 7 22 -51 26 15 0 32 33
 22 1 +4.33 -4.33 -9.46 0 0 1 .5 1 0 0 14 32 1 0 0 34 35 7 26 +50 33 54 0 16 36
 26 0 +4.33 -4.33 -8.81 0 0 1 1 0 0 14 16 44 0 29 12 37 7 33 -51 36 32 0 38 39 3
3 0 +4.33 -4.33 -4.99 0 0 1 .375 1 0 0 14 38 27 0 40 30 41 7 36 -50 39 34 0 30 4
2 36 0 +4.33 -4.33 -4.99 0 0 -1 -1 0 0 14 30 25 0 38 29 43 7 39 -50 42 14 0 40 4
4 39 0 +4.33 -4.33 -4.89 0 0 1 1 0 0 14 40 12 0 34 38 45 7 42 +50 44 8 0 34 0 42
 0 +4.33 -4.33 -9.46 0 0 -1 -1 0 0 14 34 6 0 32 40 46 7 44 +15 46 39 0 47 34 48
 17 47 46 47 47 0 49 50 0 15 48 5 0 51 34 0 17 51 48 51 51 0 52 53 0 17 52 54 52
 52 0 51 53 0 16 53 3 0 52 55 0 56 16 55 9 0 57 58 53 59 31 56 7 0 53 0 59 0 +1e
-8 4.33 -4.33 -9.46 0 0 1 1 0 0 .5 31 59 13 0 55 56 60 0 +1e-8 4.33 -4.33 -4.89
 0 0 -1 -1 0 0 .5 31 60 19 0 58 59 61 0 +1e-8 4.33 -4.33 -4.89 0 0 1 1 0 0 .375
 16 58 16 0 62 63 55 60 31 61 36 0 63 60 64 0 +1e-8 4.33 -4.33 -4.99 0 0 1 1 0 0
 .375 16 63 31 0 65 50 58 61 31 64 40 0 50 61 25 0 +1e-8 4.33 -4.33 -9.46 0 0 -1
 -1 0 0 .125 16 50 37 0 49 66 63 64 31 25 56 0 66 64 21 0 +1e-8 4.33 -4.33 -8.81
 0 0 -1 -1 0 0 .125 16 66 51 0 67 19 50 25 17 67 37 67 67 0 68 66 0 16 19 65 0 6
9 13 66 21 17 69 17 69 69 0 70 19 0 15 17 85 0 69 12 71 17 70 35 70 70 0 69 19 0
 15 35 66 0 70 32 72 15 72 10 0 57 32 54 17 57 72 57 57 0 73 55 0 15 54 4 0 52 3
2 0 17 73 74 73 73 0 57 55 0 15 74 11 0 73 40 0 15 71 86 0 75 12 0 17 75 71 75 7
5 0 18 13 0 17 18 31 18 18 0 75 13 0 15 31 76 0 18 29 76 15 76 49 0 68 29 77 17
 68 76 68 68 0 67 66 0 15 77 50 0 49 29 0 17 49 77 49 49 0 47 50 0 15 37 45 0 67
 16 0 17 65 43 65 65 0 78 63 0 15 43 26 0 65 30 0 17 78 79 78 78 0 65 63 0 15 79
 29 0 78 38 0 17 62 41 62 62 0 80 58 0 15 41 28 0 62 38 79 17 80 45 80 80 0 62 5
8 0 15 45 18 0 80 40 74 40 20 27 0 20 .001411669042370686 .337746570317449 ??4.8
2968227396083 -4.34782203942692 -8.97753211084454 4.82987865028328 -4.3410152163
3752 -8.98244248223877 4.82999120841366 -4.33296504789943 -8.98482354710661 4.82
997069328776 -4.324586511905105 -8.98440684630686 4.82982632316416 -4.3168224937
0329 -8.98124507773109 4.82962103177426 -4.310536582807225 -8.97568997741171 4.8
2944458683123 -4.306439340311 -8.96836034180037 4.82937461691853 -4.305000160451
03 -8.9600895685531 4.82944164126378 -4.306376982162665 -8.95181751698707 4.8296
1610443478 -4.31041050818899 -8.94446771714826 4.82982185892275 -4.3166542387625
5 -8.93886021151967 4.82996872229693 -4.324407440230185 -8.93563356252504 4.8299
9223909544 -4.332785829199685 -8.93515570174728 4.82988241966477 -4.340842809142
03 -8.93747371557692 4.82968725039441 -4.347681962370595 -8.942326624354 4.82949
188957909 -4.352535577310455 -8.94917651833815 4.82938218732019 -4.3548481586300
45 -8.95724881612825 4.82940626792622 -4.35435938332572 -8.96562320584638 4.8295
5328266359 -4.351130967323685 -8.97335972379824 4.82968227396083 -4.347822039426
925 -8.97753211084454 41 1 28 H4.82968227396083 -4.34782203942692 -8.97753211084
454 74 20 11 1 0 2 0 0 0 0 0 0 0 0 0 0 0 0 0 0 0 0 0 0 0 80 2 8 81 8004 82 0 0 0
 0 3 5 0 0 FFTFFFFFFFFF2 3 83 1 9 .28 84 7 10 density79 16 82 SDL/TYSA_DENSITY1
 0 
