600 0 1 0           
110 GICL ACIS STEP Translator - Source: f:/data5/repository/Parasolid/NIST/Pete_Brown/support2/support2.step - 6 0 13 ACIS 6.0.3 NT 24 Mon Apr 08 10:52:26 2002 
1 9.9999999999999995e-007 1e-010 
body $-1 $1 $-1 $-1 #
lump $-1 $-1 $2 $0 #
shell $-1 $-1 $-1 $3 $-1 $1 #
face $-1 $4 $5 $2 $-1 $6 reversed single #
face $-1 $7 $8 $2 $-1 $9 reversed single #
loop $-1 $10 $11 $3 #
cone-surface $-1 4330.0000000000027 -4330.0000000000027 -8960 1 0 0 0 0 -25 1 I I 0 1 25 forward I I I I #
face $-1 $12 $13 $2 $-1 $14 reversed single #
loop $-1 $-1 $15 $4 #
plane-surface $-1 4330.0000000000027 -4330.0000000000027 -8809.9999999999891 0 0 1 25.399999999999999 0 0 forward_v I I I I #
loop $-1 $-1 $16 $3 #
coedge $-1 $11 $11 $17 $18 forward $5 $-1 #
face $-1 $19 $20 $2 $-1 $21 reversed single #
loop $-1 $22 $23 $7 #
cone-surface $-1 4330.0000000000027 -4330.0000000000027 -9460.0000000000055 0 0 1 125.00000000000011 0 0 1 I I 0 1 125.00000000000011 forward I I I I #
coedge $-1 $15 $15 $24 $25 forward $8 $-1 #
coedge $-1 $16 $16 $23 $26 reversed $10 $-1 #
coedge $-1 $17 $17 $11 $18 reversed $27 $-1 #
edge $-1 $28 0 $28 1 $11 $29 forward 7 unknown #
face $-1 $30 $31 $2 $-1 $32 reversed single #
loop $-1 $-1 $33 $12 #
plane-surface $-1 4330.0000000000027 -4330.0000000000027 -4990.0000000000045 0 0 -1 -25.399999999999999 0 0 forward_v I I I I #
loop $-1 $34 $24 $7 #
coedge $-1 $23 $23 $16 $26 forward $13 $-1 #
coedge $-1 $24 $24 $15 $25 reversed $22 $-1 #
edge $-1 $35 0 $35 6.2831853071795862 $15 $36 forward 7 unknown #
edge $-1 $37 0 $37 1 $16 $38 forward 7 unknown #
loop $-1 $39 $17 $40 #
vertex $-1 $18 $41 #
intcurve-curve $-1 forward { exactcur full nubs 3 periodic 180 
	0 3 0.0078124999997750003 1 0.015624999999550001 1 0.023437499999324998 1 0.031249999999100001 1 
	0.039062499998874997 1 0.046874999998649997 2 0.0507812499985296 1 0.0527343749984771 2 0.0546874999984246 2 
	0.062499999998259101 1 0.070312499998093594 1 0.078124999997928102 1 0.085937499997762706 1 0.0937499999975972 1 
	0.101562499997432 2 0.105468749997346 2 0.107421874997304 2 0.109374999997261 1 0.117187499997098 1 
	0.12499999999693499 1 0.132812499996772 1 0.14062499999660899 1 0.14843749999644601 1 0.156249999996282 2 
	0.160156249996212 2 0.162109374996186 2 0.16406249999615899 1 0.17187499999608499 1 0.17968749999601 1 
	0.187499999995936 1 0.195312499995862 1 0.20312499999578701 1 0.21093749999571301 2 0.212890624995695 1 
	0.21386718749568601 2 0.21484374999567701 2 0.21874999999560801 2 0.226562499995486 1 0.23437499999536299 1 
	0.24218749999524 1 0.24999999999511799 1 0.257812499994995 1 0.26562499999487199 2 0.26757812499483502 2 
	0.26855468749483002 2 0.26953124999482397 1 0.27343749999480099 2 0.28124999999478301 1 0.28906249999476402 1 
	0.29687499999474598 1 0.304687499994727 1 0.31249999999470901 1 0.32031249999469003 2 0.321289062494717 2 
	0.32226562499474298 2 0.32421874999480199 1 0.328124999994926 2 0.33593749999517197 1 0.343749999995419 1 
	0.35156249999566602 1 0.35937499999591199 1 0.36718749999615902 1 0.37499999999640599 2 0.37597656249643702 2 
	0.37695312499646799 1 0.37890624999649603 1 0.38281249999655298 2 0.390624999996666 1 0.39843749999677902 1 
	0.40624999999689199 1 0.41406249999700501 1 0.42187499999711803 2 0.42578124999718903 1 0.427734374997224 1 
	0.42871093749724398 2 0.42968749999726502 2 0.43749999999738598 1 0.44531249999750599 1 0.45312499999762701 1 
	0.46093749999774802 1 0.46874999999786898 1 0.47656249999799 2 0.48046874999804501 1 0.48242187499806799 2 
	0.48339843749809203 2 0.48437499999811701 1 0.49218749999811801 1 0.49999999999812 1 0.50781249999812095 1 
	0.51562499999812295 1 0.52343749999812395 1 0.53124999999812605 2 0.53515624999810996 1 0.53613281249810496 2 
	0.53710937499809996 1 0.53906249999808697 1 0.54687499999809197 1 0.55468749999809797 1 0.56249999999810296 1 
	0.57031249999810896 1 0.57812499999811495 1 0.58593749999811995 2 0.58984374999810996 2 0.59082031249811595 2 
	0.59179687499812195 1 0.59374999999812705 1 0.60156249999810296 1 0.60937499999807898 1 0.617187499998055 1 
	0.62499999999803102 1 0.63281249999800704 1 0.64062499999798395 2 0.64257812499798905 1 0.64355468749798606 2 
	0.64453124999798195 1 0.64843749999796296 2 0.65624999999792 1 0.66406249999787703 1 0.67187499999783495 1 
	0.67968749999779199 1 0.68749999999774902 1 0.69531249999770695 2 0.69726562499768097 2 0.69824218749766898 2 
	0.69921874999765699 1 0.70312499999765199 2 0.710937499997644 1 0.718749999997635 1 0.72656249999762701 1 
	0.73437499999761902 1 0.74218749999761102 1 0.74999999999760203 2 0.75097656249762401 2 0.75195312499764499 2 
	0.75390624999768796 1 0.75781249999778399 2 0.76562499999796296 1 0.77343749999814204 1 0.78124999999832101 1 
	0.78906249999850098 1 0.79687499999867994 1 0.80468749999885902 2 0.80566406249885703 2 0.80664062499885503 1 
	0.80859374999888101 1 0.81249999999893296 2 0.82031249999906697 1 0.82812499999920197 1 0.83593749999933598 1 
	0.84374999999946998 1 0.85156249999960498 2 0.85546874999967204 1 0.85742187499970701 1 0.858398437499724 2 
	0.85937499999974098 2 0.86718749999986999 1 0.875 1 0.88281250000012901 1 0.89062500000025802 1 
	0.89843750000038702 1 0.90625000000051703 2 0.91015625000059697 1 0.91210937500061995 2 0.91308593750063105 2 
	0.91406250000064304 1 0.92187500000057798 1 0.92968750000051203 1 0.93750000000044698 1 0.94531250000038203 1 
	0.95312500000031597 1 0.96093750000025102 2 0.96484375000020395 1 0.96582031250018996 2 0.96679687500017597 2 
	0.96875000000015699 1 0.97656250000011702 1 0.98437500000007805 1 0.99218750000003897 1 1 3 
	4829.6822739608378 -4347.8220394269183 -8977.5321108445496 
	4829.6926000691155 -4347.5325229948303 -8977.8264150109535 
	4829.7131811026802 -4346.9413596875738 -8978.3982108067048 
	4829.7436209758871 -4346.0189902042493 -8979.206538570259 
	4829.7734173872877 -4345.0614852747876 -8979.9661868376752 
	4829.802362204251 -4344.0690743871974 -8980.6774820520131 
	4829.8302483868583 -4343.0417360089095 -8981.3404026444332 
	4829.8479944828623 -4342.3333768097809 -8981.7498532886475 
	4829.8609341652382 -4341.793173384779 -8982.0445715975347 
	4829.8673115144084 -4341.5208371208937 -8982.1888368856598 
	4829.8735399381212 -4341.245114082526 -8982.3284133371126 
	4829.8776579748946 -4341.0605415114123 -8982.4204160165573 
	4829.8797008999172 -4340.9678280898297 -8982.4659159544372 
	4829.8898004716157 -4340.5035889690334 -8982.6901904278075 
	4829.9052593044007 -4339.7549343081291 -8983.0292097602323 
	4829.9262216897805 -4338.6146898371117 -8983.4794810726435 
	4829.9448371698218 -4337.457403489967 -8983.8722462618116 
	4829.9609865533475 -4336.2831709033335 -8984.2078343008452 
	4829.974551038842 -4335.0919663191225 -8984.4861637202066 
	4829.9817908819441 -4334.2864166766567 -8984.6332147124394 
	4829.9865139750636 -4333.6779054409762 -8984.7288327730203 
	4829.9879705330595 -4333.4743431878778 -8984.7582592783529 
	4829.9899747422842 -4333.1679002199426 -8984.798689964724 
	4829.9906127231525 -4333.0655664934693 -8984.81154893639 
	4829.9918277453098 -4332.8605413993555 -8984.8360214497261 
	4829.9947067005887 -4332.3481402407715 -8984.8939617450214 
	4829.9984642120717 -4331.4272619595959 -8984.9692940729437 
	4830.0004578544404 -4330.2024447929789 -8985.0091521351133 
	4829.9994572659662 -4328.9806117912594 -8984.9891554859005 
	4829.9954842198358 -4327.7617483358745 -8984.9095969866739 
	4829.9885603998 -4326.5458610689493 -8984.7703420182715 
	4829.9819918856319 -4325.7372723811268 -8984.6373310557447 
	4829.9763388331585 -4325.1315945977676 -8984.5222523622033 
	4829.9743333726019 -4324.9298293522261 -8984.4813381764925 
	4829.9711442297048 -4324.6273746569332 -8984.4160917071131 
	4829.970050478425 -4324.5265429836418 -8984.3936857157059 
	4829.9678089754152 -4324.3254872072166 -8984.3477008990885 
	4829.9620672055416 -4323.8240698632162 -8984.229744185981 
	4829.9505092651834 -4322.9324414503117 -8983.9906559630672 
	4829.9326489867817 -4321.7664726351368 -8983.6158263864381 
	4829.9124937090583 -4320.6231157260208 -8983.1855759538248 
	4829.8901963094568 -4319.5022774987665 -8982.7001266053703 
	4829.8659093603419 -4318.4040260067541 -8982.1593042630648 
	4829.848494651661 -4317.6870709687601 -8981.7614558789555 
	4829.8372610543674 -4317.2438122530693 -8981.5009359824453 
	4829.8338647767814 -4317.1111977282808 -8981.4218896085349 
	4829.8304301475573 -4316.9791308884778 -8981.341500094155 
	4829.8281319781881 -4316.8912084045069 -8981.287607700111 
	4829.8269784088934 -4316.8472977425945 -8981.260505306971 
	4829.8211929326308 -4316.6281696166152 -8981.1243166391396 
	4829.8165176216862 -4316.4545845339408 -8981.0134240832776 
	4829.8023652859829 -4315.9389216280579 -8980.6749888131853 
	4829.7831585923414 -4315.2649439584393 -8980.2083957636187 
	4829.7535620330182 -4314.2939829328761 -8979.4632667884744 
	4829.723398189587 -4313.3626163936324 -8978.6733553719332 
	4829.6928838274252 -4312.4707216133665 -8977.8387923762657 
	4829.6622359945122 -4311.6184589145678 -8976.959388366422 
	4829.641861750958 -4311.0770049159182 -8976.3428804185423 
	4829.6291928539185 -4310.7471039076245 -8975.9479335578144 
	4829.6266623317506 -4310.6815493617469 -8975.8684624116522 
	4829.6228723357744 -4310.5838597835927 -8975.7485287468207 
	4829.6216096186154 -4310.5513946687161 -8975.7084185321219 
	4829.6190879240394 -4310.4867217209221 -8975.6280079637836 
	4829.6127955273023 -4310.3257462954516 -8975.4265860785144 
	4829.6065639684166 -4310.168293724073 -8975.2231934647261 
	4829.5917373496322 -4309.7970965330423 -8974.7313089650343 
	4829.5723129818771 -4309.3199955052805 -8974.0654885661206 
	4829.5444020227133 -4308.6569508687871 -8973.0373213752155 
	4829.517904887417 -4308.0460294257355 -8971.9799834537771 
	4829.4930081027678 -4307.487124936104 -8970.8935296994096 
	4829.4698987339752 -4306.9805046629863 -8969.7778062097259 
	4829.4558106496806 -4306.6780472034125 -8969.0142321642088 
	4829.4482934292564 -4306.5180386809616 -8968.5790527875542 
	4829.4474638413039 -4306.5004006562422 -8968.5306207364374 
	4829.4458161126213 -4306.4654068565824 -8968.433598581867 
	4829.4449977596732 -4306.4480465857669 -8968.3849957400071 
	4829.4425615493301 -4306.3964218776619 -8968.2390383278344 
	4829.4377688382147 -4306.2950882922933 -8967.9467894594236 
	4829.4332171211563 -4306.1994665093944 -8967.653544653509 
	4829.4244399010431 -4306.015758022304 -8967.0657411187294 
	4829.4136068949465 -4305.7908971923207 -8966.278500969438 
	4829.4000436162059 -4305.5129241114882 -8965.0872961912737 
	4829.3892414194961 -4305.2937781015971 -8963.8858316797032 
	4829.3812745367004 -4305.1333924050978 -8962.674118423125 
	4829.3762174656613 -4305.0321220154874 -8961.4520940195798 
	4829.3748363905979 -4305.0045445567484 -8960.630445043349 
	4829.3746339020272 -4305.0004996963598 -8960.1662672065049 
	4829.3746193799061 -4305.0002096173112 -8960.114650198866 
	4829.3746063495037 -4304.9999493339856 -8960.011425589264 
	4829.3746108184814 -4305.000038609779 -8959.8566687120619 
	4829.374788828336 -4305.0035944636784 -8959.4961278636511 
	4829.3752269175538 -4305.0123468316951 -8959.1880446347077 
	4829.376479117107 -4305.037380269132 -8958.573134320106 
	4829.3791513952019 -4305.0908250870325 -8957.7566020119502 
	4829.3860949597747 -4305.2303107917787 -8956.54170045301 
	4829.3959020664752 -4305.4286725728798 -8955.3366215827809 
	4829.4085015388637 -4305.6858918427179 -8954.1413617307353 
	4829.4187150405342 -4305.8968790223425 -8953.3511122845666 
	4829.4270371313323 -4306.070145724857 -8952.7609315827867 
	4829.4313636614397 -4306.1605374021365 -8952.4664681182985 
	4829.4366968037066 -4306.2726367452733 -8952.1240352991535 
	4829.4390431763577 -4306.3221109691094 -8951.977517156045 
	4829.4406208730998 -4306.3554128867063 -8951.8798916150754 
	4829.4414167065606 -4306.3722289139068 -8951.831089651263 
	4829.448633484837 -4306.5248862721683 -8951.3924769209716 
	4829.4622114729718 -4306.8144400970468 -8950.6227064417708 
	4829.4846284574496 -4307.3021136916241 -8949.4973736239881 
	4829.5089065713018 -4307.8423995726198 -8948.4009582909657 
	4829.5348601665364 -4308.4349557449859 -8947.3332683511671 
	4829.5623045553357 -4309.0798162096944 -8946.2943180801503 
	4829.5814707413365 -4309.5448665821577 -8945.6209917004398 
	4829.5961242138837 -4309.9070343586327 -8945.1233463964691 
	4829.6035206410515 -4310.0914648137741 -8944.8763619745641 
	4829.6110125187779 -4310.2809676109937 -8944.6321634892774 
	4829.6147735961431 -4310.3765695765078 -8944.5105313919521 
	4829.6160302524049 -4310.4085899246847 -8944.4700511062892 
	4829.6185459369854 -4310.472849932893 -8944.3893282771842 
	4829.6298767094722 -4310.7629941427222 -8944.0271606223487 
	4829.6514404438658 -4311.3275341929893 -8943.3614328865206 
	4829.6820604378963 -4312.1650939794108 -8942.4667526842168 
	4829.7126363067673 -4313.0427051464867 -8941.6166664542689 
	4829.7429502562991 -4313.9601512136232 -8940.8109251628339 
	4829.7727852393009 -4314.9175018580236 -8940.0495984286445 
	4829.7922100005026 -4315.5825772683829 -8939.5719172901299 
	4829.8065482081984 -4316.0916146857135 -8939.2250396316886 
	4829.8124744505503 -4316.3058460449565 -8939.0828798928196 
	4829.8183332253448 -4316.5227723591861 -8938.9437184016733 
	4829.82067118549 -4316.6097591982416 -8938.8882944577599 
	4829.8241710515922 -4316.740611372401 -8938.8054901209798 
	4829.8368695717618 -4317.2224609931309 -8938.5068070698835 
	4829.8568963871312 -4318.0220792202554 -8938.0447795088512 
	4829.881831855675 -4319.1115467843947 -8937.4846729433921 
	4829.9048430615958 -4320.2240542621948 -8936.9798405924284 
	4829.9257748121636 -4321.3594997297041 -8936.5300304828052 
	4829.9444721432465 -4322.5179455390462 -8936.1353853848996 
	4829.9553430315636 -4323.3057286925086 -8935.9094267392047 
	4829.9628583749527 -4323.9024743476821 -8935.7541255465567 
	4829.9652571741426 -4324.1023747483632 -8935.704720903228 
	4829.9681184980618 -4324.353495920237 -8935.6459520345834 
	4829.9686840979721 -4324.4038000955234 -8935.6343436497991 
	4829.9698003558369 -4324.5044323154425 -8935.6114494368376 
	4829.9714522607119 -4324.6554083837973 -8935.5775933535715 
	4829.9772616625551 -4325.2092915685862 -8935.458776953561 
	4829.9854143882103 -4326.1172945437374 -8935.2931898776496 
	4829.9933713938608 -4327.3314187011847 -8935.1328147781314 
	4829.9983899960916 -4328.5489590346024 -8935.0321912851432 
	4830.0004453414858 -4329.7699029827281 -8934.9910979373344 
	4829.9995125294836 -4330.9942623087054 -8935.0097397541522 
	4829.9968817205963 -4331.8128030954458 -8935.0624166092512 
	4829.9946042716847 -4332.3251232869834 -8935.1081462275961 
	4829.9938735464502 -4332.4788742927394 -8935.1228261910219 
	4829.9930714300208 -4332.6327081908876 -8935.1389560028056 
	4829.9925208036138 -4332.7352826001661 -8935.1500323914479 
	4829.9911039917915 -4332.9918528818425 -8935.1785422662542 
	4829.9894964038967 -4333.2473004665517 -8935.2109435870752 
	4829.9852796273417 -4333.8582449593168 -8935.29609224261 
	4829.9787011709532 -4334.6671611801903 -8935.4293087112528 
	4829.9660854450549 -4335.8638009992501 -8935.6871692375171 
	4829.9508392066873 -4337.0438752405962 -8936.0024839706912 
	4829.9330785621478 -4338.2074326929787 -8936.375088830815 
	4829.912919826189 -4339.3544040282159 -8936.805230300326 
	4829.8979604534406 -4340.1078674412756 -8937.1307932369546 
	4829.8881609376067 -4340.5752208021477 -8937.3466270696499 
	4829.8861785427662 -4340.6685132983657 -8937.3904120767711 
	4829.883171695592 -4340.8081831999507 -8937.4570224586387 
	4829.8821635362156 -4340.8547102565281 -8937.4793888484492 
	4829.8801386734385 -4340.9475621132678 -8937.5243788702282 
	4829.8750543878741 -4341.1792227584283 -8937.6375139868342 
	4829.8698612702692 -4341.4085462711046 -8937.7539384227675 
	4829.8572024356936 -4341.954484958701 -8938.0396032767349 
	4829.8398031948764 -4342.6705750018546 -8938.4371381714009 
	4829.8123542988978 -4343.7098066630624 -8939.0825752181172 
	4829.7837632875508 -4344.7144544238672 -8939.7767050590155 
	4829.7542361895821 -4345.6845875699319 -8940.5194383363832 
	4829.7239796385638 -4346.6200276387226 -8941.311034865761 
	4829.7034621111961 -4347.2202373589762 -8941.8717532710689 
	4829.6918639884698 -4347.5511372043384 -8942.1966228600631 
	4829.690574517922 -4347.587810485652 -8942.2328510320822 
	4829.6879941396683 -4347.6609697469539 -8942.3055712800633 
	4829.6867028601582 -4347.6974661505674 -8942.3420739537942 
	4829.6828320706682 -4347.8065332796505 -8942.4518372991897 
	4829.6750990518703 -4348.023082982797 -8942.6724869989612 
	4829.6673968803043 -4348.2349083010804 -8942.8964851258916 
	4829.6520472128841 -4348.652325848032 -8943.3488995063308 
	4829.6317268971616 -4349.1922688061168 -8943.9638948263491 
	4829.6018960312203 -4349.9531053481442 -8944.9211813540896 
	4829.5729224818015 -4350.6652598379296 -8945.9129868718464 
	4829.5450125178595 -4351.3287771328378 -8946.939285477969 
	4829.5183734044131 -4351.9433522831368 -8948.0002991613492 
	4829.5016017577427 -4352.3199969440439 -8948.7311036205647 
	4829.4924861977161 -4352.5223608579336 -8949.1489206917358 
	4829.4914774909703 -4352.5447201728039 -8949.195452186379 
	4829.4894716399658 -4352.5891171721478 -8949.2885833565051 
	4829.486479504345 -4352.6552458768219 -8949.4284140667587 
	4829.4796151901337 -4352.8062885592672 -8949.7556205759465 
	4829.4739355358079 -4352.930201931099 -8950.037676566546 
	4829.4628558904797 -4353.1707001767472 -8950.6038918431805 
	4829.4488288547536 -4353.4718309454011 -8951.3644517263238 
	4829.4301448616679 -4353.8657657359145 -8952.5218712624082 
	4829.4139343253555 -4354.2023489580724 -8953.6957546992435 
	4829.4003134715213 -4354.4815782609794 -8954.8861042897879 
	4829.3930373077137 -4354.6292184447439 -8955.6907284597582 
	4829.3882865920186 -4354.7252956067414 -8956.2984040252522 
	4829.386087849527 -4354.7696691888095 -8956.6032941704634 
	4829.3838383820175 -4354.814959698534 -8956.9608596634826 
	4829.3829427057035 -4354.8329734202407 -8957.1145030204334 
	4829.3823608648809 -4354.8446712862024 -8957.2170213098088 
	4829.3820775032682 -4354.8503661784189 -8957.2683406217238 
	4829.3795994558241 -4354.900152824388 -8957.730029161361 
	4829.3762122518037 -4354.9679817871292 -8958.5495988245566 
	4829.3741593458508 -4355.0089746234826 -8959.7753988739678 
	4829.3751083237348 -4354.9900336500104 -8960.9976922256919 
	4829.3790335374997 -4354.911535170686 -8962.2165009165947 
	4829.3859094028176 -4354.7734279280539 -8963.431822028595 
	4829.3924431970154 -4354.6412967106053 -8964.2396923912856 
	4829.3980681554876 -4354.5269439399972 -8964.8447027517468 
	4829.4010617845779 -4354.4659521245158 -8965.1469847216304 
	4829.404325871421 -4354.3991767650259 -8965.4489283544954 
	4829.4060028836375 -4354.3648192126338 -8965.5998434345292 
	4829.4065695305098 -4354.3532020171742 -8965.6501516018561 
	4829.4077162520416 -4354.3296750212257 -8965.750615182209 
	4829.4129382902893 -4354.2224582837925 -8966.2021387501554 
	4829.4238439440687 -4353.9971659834509 -8967.0454942299875 
	4829.4416916305472 -4353.6230911309422 -8968.2126922692969 
	4829.4618320505915 -4353.193703974478 -8969.3567651515314 
	4829.4841088221674 -4352.7093022340632 -8970.4778400856794 
	4829.5083660614864 -4352.1697886547227 -8971.5758794498452 
	4829.525753029684 -4351.7730411029825 -8972.2924126775833 
	4829.539208927562 -4351.4613503467617 -8972.8239082720957 
	4829.5449021331933 -4351.3285339933955 -8973.0441341030419 
	4829.5506982113657 -4351.1919954646191 -8973.2628047311809 
	4829.553024763024 -4351.1370812876548 -8973.35014815459 
	4829.554192232622 -4351.109471642113 -8973.3937622903486 
	4829.5577026749024 -4351.0262878084814 -8973.5242695251927 
	4829.5694640321517 -4350.7464925307349 -8973.9572965993193 
	4829.5911469488574 -4350.2203232422316 -8974.7188558078215 
	4829.6209298423773 -4349.4711526321689 -8975.6964825839332 
	4829.6513666209248 -4348.6744859309147 -8976.6364221836284 
	4829.6719478525592 -4348.1115558590127 -8977.2378066781384 
	4829.6822739608378 -4347.8220394269183 -8977.5321108445496 
	0 
	null_surface 
	null_surface 
	nullbs 
	nullbs 
	I I 
	0 
	0 
	0 
	F 1 F 0 } I I #
face $-1 $42 $43 $2 $-1 $44 forward single #
loop $-1 $45 $46 $19 #
cone-surface $-1 4330.0000000000027 -4330.0000000000027 -4990.0000000000045 0 0 1 375.00000000000114 0 0 1 I I 0 1 375.00000000000114 forward I I I I #
coedge $-1 $33 $33 $47 $48 forward $20 $-1 #
loop $-1 $-1 $49 $7 #
vertex $-1 $25 $50 #
ellipse-curve $-1 4330.0000000000027 -4330.0000000000027 -8809.9999999999891 0 0 -1 -125.00000000000011 0 0 1 I I #
vertex $-1 $26 $51 #
intcurve-curve $-1 forward { exactcur full nubs 3 periodic 172 
	0 3 0.0078125000000010304 1 0.015625000000002099 1 0.023437500000003102 1 0.031250000000004101 1 
	0.039062500000005197 1 0.046875000000006203 2 0.050781250000015099 1 0.052734375000019602 2 0.054687500000024099 2 
	0.062500000000024605 1 0.070312500000025105 1 0.078125000000025605 1 0.085937500000026104 1 0.093750000000026604 1 
	0.10156250000002701 2 0.105468750000038 1 0.10742187500005 2 0.10937500000006201 2 0.117187500000125 1 
	0.12500000000018799 1 0.13281250000025099 1 0.140625000000314 1 0.148437500000377 1 0.15625000000044001 2 
	0.16015625000047101 2 0.16113281250046901 2 0.16210937500046799 1 0.16406250000046399 1 0.17187500000050401 1 
	0.17968750000054501 1 0.187500000000586 1 0.195312500000626 1 0.20312500000066699 1 0.21093750000070699 2 
	0.212890625000729 2 0.21386718750073 2 0.214843750000732 1 0.218750000000735 2 0.22656250000075601 1 
	0.23437500000077799 1 0.2421875000008 1 0.25000000000082101 1 0.25781250000084299 1 0.26562500000086398 2 
	0.26660156250085598 2 0.26757812500084699 1 0.26953125000086398 1 0.273437500000897 2 0.281250000000975 1 
	0.28906250000105199 1 0.29687500000112998 1 0.30468750000120698 1 0.31250000000128503 1 0.32031250000136202 2 
	0.32421875000141698 2 0.32812500000147099 2 0.33593750000154299 1 0.34375000000161599 1 0.35156250000168798 1 
	0.35937500000175998 1 0.36718750000183298 2 0.37109375000185202 1 0.37304687500186201 1 0.37402343750186701 2 
	0.375000000001872 2 0.38281250000214601 1 0.39062500000242001 1 0.39843750000269301 1 0.40625000000296702 1 
	0.41406250000324102 1 0.42187500000351502 2 0.42578125000366701 1 0.42675781250370298 2 0.42773437500373901 2 
	0.42968750000377998 1 0.43750000000400902 1 0.445312500004238 1 0.45312500000446698 1 0.46093750000469602 1 
	0.468750000004925 1 0.47656250000515399 2 0.47851562500521899 2 0.480468750005283 2 0.48437500000540501 2 
	0.49218750000565797 1 0.50000000000591105 1 0.50781250000616496 1 0.51562500000641798 1 0.523437500006671 1 
	0.53125000000692502 2 0.53222656250693801 2 0.533203125006951 2 0.53515625000696099 1 0.53906250000695 2 
	0.54687500000691203 1 0.55468750000687295 1 0.56250000000683498 1 0.57031250000679601 1 0.57812500000675704 1 
	0.58593750000671896 2 0.58691406250672196 2 0.58789062500672495 2 0.58984375000672296 1 0.59375000000671996 2 
	0.60156250000673706 1 0.60937500000675504 1 0.61718750000677303 1 0.62500000000679101 1 0.632812500006809 2 
	0.64062500000682698 2 0.64843750000684497 1 0.65625000000686295 1 0.66406250000688105 1 0.67187500000689904 1 
	0.67968750000691602 1 0.68750000000693401 2 0.691406250006949 2 0.69335937500695799 2 0.69531250000696698 1 
	0.70312500000698597 1 0.71093750000700495 1 0.71875000000702405 1 0.72656250000704303 1 0.73437500000706202 1 
	0.742187500007081 2 0.746093750007089 2 0.75000000000709799 2 0.75781250000713796 1 0.76562500000717804 1 
	0.773437500007218 1 0.78125000000725897 1 0.78906250000729905 1 0.79687500000733902 2 0.79882812500732503 2 
	0.80078125000731104 2 0.80468750000729306 2 0.812500000007228 1 0.82031250000716305 1 0.82812500000709799 1 
	0.83593750000703404 1 0.84375000000696898 1 0.85156250000690403 2 0.85351562500686395 2 0.85449218750682798 2 
	0.85546875000679201 1 0.85937500000658795 2 0.86718750000618205 1 0.87500000000577505 1 0.88281250000536904 1 
	0.89062500000496203 1 0.89843750000455602 1 0.90625000000414901 2 0.90722656250411005 2 0.90820312500407097 1 
	0.91015625000398803 1 0.91406250000382405 2 0.92187500000346101 1 0.92968750000309697 1 0.93750000000273404 1 
	0.94531250000237099 1 0.95312500000200795 2 0.95703125000184197 1 0.95898437500177902 2 0.95996093750174705 2 
	0.96093750000171496 1 0.96875000000137501 1 0.97656250000103495 1 0.984375000000695 1 0.99218750000035505 2 
	0.99609375000017697 2 1 3 
	4453.6686917722927 -4348.1949079505894 -8977.1448337603397 
	4453.7102427207037 -4347.9124909443926 -8977.4445480359791 
	4453.7931981317797 -4347.335218240114 -8978.0275237949681 
	4453.9163158799311 -4346.4327134626528 -8978.8537220902454 
	4454.0372701684 -4345.4940429678618 -8979.6323590732009 
	4454.1552292490678 -4344.519364372798 -8980.3637753862859 
	4454.2693667630074 -4343.508570693145 -8981.0479603323147 
	4454.3423563775559 -4342.8103826332626 -8981.4723542731117 
	4454.3957231730064 -4342.277456147378 -8981.7785684988594 
	4454.4220626350852 -4342.0086704284859 -8981.9286538393771 
	4454.4478454675173 -4341.7363598369648 -8982.0741584602802 
	4454.4649057205188 -4341.5540307993369 -8982.1701372625321 
	4454.4733762626583 -4341.4624208964005 -8982.217639935192 
	4454.5152870409147 -4341.0035971214666 -8982.4519648121841 
	4454.5796565495893 -4340.2630577440268 -8982.807290453653 
	4454.6676273668654 -4339.1333190125761 -8983.2826409328954 
	4454.7465067505082 -4337.9848418761085 -8983.7010477342828 
	4454.815792048641 -4336.8176825133532 -8984.0627813259525 
	4454.8749792680865 -4335.6317650540777 -8984.3676990883287 
	4454.9073641349651 -4334.828508301006 -8984.5327272691175 
	4454.9288685329011 -4334.2212360726262 -8984.6419046734954 
	4454.938924599759 -4333.9163919781249 -8984.6928431891938 
	4454.9479110044431 -4333.609714119777 -8984.7382430005546 
	4454.953661346638 -4333.4048519007756 -8984.7672704655615 
	4454.9564109697903 -4333.302401115152 -8984.7811381958909 
	4454.9695242511325 -4332.7903293199424 -8984.8472267431898 
	4454.9864591829719 -4331.9715939160142 -8984.932264159781 
	4454.9997814087028 -4330.745196450298 -8984.9989117284404 
	4455.0010774083712 -4329.5204845193102 -8985.0053861570468 
	4454.9903969485031 -4328.2974499480351 -8984.9519809785634 
	4454.9677862377939 -4327.0760961904689 -8984.838558912088 
	4454.9447877953226 -4326.2629910617416 -8984.7225499725555 
	4454.9245774678993 -4325.6535931251683 -8984.6201376014851 
	4454.9173471050935 -4325.4505323320773 -8984.5834312691823 
	4454.9076932027092 -4325.1967971341901 -8984.5343007653355 
	4454.905731175696 -4325.1460436994766 -8984.5243099674863 
	4454.9017511351931 -4325.0446861184473 -8984.5040310047934 
	4454.8956953435963 -4324.8928265777686 -8984.4731575991791 
	4454.8725543645796 -4324.3379474313942 -8984.3549652014262 
	4454.8296532609738 -4323.4404651773402 -8984.1345291159087 
	4454.7623138019271 -4322.2657728612749 -8983.7840448355728 
	4454.6854193036461 -4321.1127452022083 -8983.3776446901065 
	4454.5995427588141 -4319.9812529111723 -8982.9155668041822 
	4454.5052543713173 -4318.8713202087147 -8982.3976410747564 
	4454.4371707495475 -4318.1458574285789 -8982.0147367403642 
	4454.3931083198668 -4317.6970435448775 -8981.7634520602569 
	4454.3842203398272 -4317.6075109245021 -8981.7125962787577 
	4454.3707774739778 -4317.473558993981 -8981.6354092031106 
	4454.3662786573714 -4317.428972570835 -8981.6095331340839 
	4454.3572569157759 -4317.3400375161427 -8981.5575509463561 
	4454.3346348076293 -4317.1182197429898 -8981.4269773779106 
	4454.3116813422594 -4316.8989918931557 -8981.2933235350338 
	4454.2560125050832 -4316.3777577998626 -8980.9667040751428 
	4454.180239922287 -4315.6958730938604 -8980.5156186845543 
	4454.0628079276876 -4314.7116106887297 -8979.7929465909128 
	4453.9424549516307 -4313.7654925682955 -8979.0246081056976 
	4453.820027152874 -4312.8573819043822 -8978.2106389784949 
	4453.6963756838959 -4311.9874220969095 -8977.3507354158573 
	4453.6137036170076 -4311.433169652737 -8976.7464080481113 
	4453.5673016363298 -4311.1287748993227 -8976.3975458417481 
	4453.5621455190576 -4311.0950443018364 -8976.3586459948092 
	4453.5518464118177 -4311.0278519019566 -8976.2806709099659 
	4453.5364189198381 -4310.927475909135 -8976.1634567305264 
	4453.500575322767 -4310.6961444897825 -8975.8882009734953 
	4453.4701355036623 -4310.5027665305897 -8975.6492731144444 
	4453.4096847756937 -4310.1224850501085 -8975.1674601467039 
	4453.3302279539375 -4309.632699728284 -8974.5144952969349 
	4453.2152803311028 -4308.9490321761396 -8973.5037810622325 
	4453.1053661062024 -4308.3160049349317 -8972.4619412153352 
	4453.0012811078195 -4307.7336239496071 -8971.3888898226305 
	4452.9038306295433 -4307.2022715799803 -8970.2843124822084 
	4452.8438361804192 -4306.8825706998505 -8969.5265422162938 
	4452.8009186937625 -4306.6560441610836 -8968.9499922794312 
	4452.7870192405853 -4306.5830605294541 -8968.7572409094355 
	4452.7600554514347 -4306.4421152538143 -8968.3706862800045 
	4452.7469902108151 -4306.3741488605119 -8968.1768708895561 
	4452.7090694193203 -4306.1776979750293 -8967.5938241138447 
	4452.6619084019585 -4305.9356160551806 -8966.812162105467 
	4452.6017582834229 -4305.6312720774595 -8965.6270160930871 
	4452.5525840254086 -4305.3853653794085 -8964.4292723794351 
	4452.5147672072908 -4305.1979784215946 -8963.2188982158332 
	4452.497382714856 -4305.1124057481384 -8962.4034809383411 
	4452.4873763958039 -4305.0632218684768 -8961.7886764620089 
	4452.4831312759225 -4305.0423806117851 -8961.4804634738139 
	4452.4795268090393 -4305.0247012789705 -8961.1194470372739 
	4452.4782732770282 -4305.0185553100837 -8960.9644163219618 
	4452.477502570644 -4305.0147770117219 -8960.8609935327204 
	4452.4771499590806 -4305.013048596179 -8960.8092792647494 
	4452.474272833364 -4304.9989468701287 -8960.3441498185057 
	4452.473362084259 -4304.994489229488 -8959.5200667107183 
	4452.4843559019719 -4305.0483508895577 -8958.2922075315419 
	4452.5074606852004 -4305.1619445974975 -8957.0725002767522 
	4452.5424282092708 -4305.334896784334 -8955.8608894517183 
	4452.5890083867489 -4305.5672631183297 -8954.6573758166378 
	4452.6276339669521 -4305.762108069991 -8953.8604696645798 
	4452.6593772855576 -4305.923451902192 -8953.2648577460277 
	4452.6731815863468 -4305.9938487747577 -8953.0171170794074 
	4452.6876995336634 -4306.0682508376885 -8952.769920446015 
	4452.6935636251355 -4306.0983331167417 -8952.6710854468838 
	4452.6965230289707 -4306.1135293375301 -8952.6217086081233 
	4452.7054740508447 -4306.1595382935429 -8952.4738426860495 
	4452.7358129706599 -4306.3157904142117 -8951.9824388076449 
	4452.7948483790296 -4306.6228557496097 -8951.1111521649291 
	4452.8822336820849 -4307.08626293623 -8949.9770776054975 
	4452.9775432252472 -4307.6030058013957 -8948.8702532799834 
	4453.0800428782613 -4308.1728342916322 -8947.7904891857179 
	4453.1890030797204 -4308.7958903086874 -8946.737790784744 
	4453.2654614165167 -4309.2471051480143 -8946.0541707180528 
	4453.3142855846545 -4309.5405154101891 -8945.6326745612514 
	4453.3241022891762 -4309.5997678670201 -8945.5486638245238 
	4453.3438354873015 -4309.7194200331005 -8945.3812221939752 
	4453.353757601265 -4309.7798544008265 -8945.2977450535127 
	4453.3835918911773 -4309.9624237578873 -8945.0488163480186 
	4453.4035901772149 -4310.0859338168602 -8944.884709696249 
	4453.4638531948913 -4310.4617975095571 -8944.3978599193524 
	4453.5449182552902 -4310.9771646356912 -8943.763306617926 
	4453.6677555493152 -4311.7921971709011 -8942.8544104373213 
	4453.7909525727964 -4312.6488719573954 -8941.9879771019932 
	4453.9136416111614 -4313.5471602608659 -8941.1638540324875 
	4454.0349556398814 -4314.4873419852738 -8940.3822030886568 
	4454.1143304625648 -4315.142456627239 -8939.8897393715542 
	4454.1583880889784 -4315.5191007711301 -8939.6209371922178 
	4454.1632751691204 -4315.5610632845628 -8939.5911843715603 
	4454.1730323088132 -4315.6452153820446 -8939.5319075778716 
	4454.1779037090018 -4315.6874166453435 -8939.5023754987087 
	4454.1924819440828 -4315.8142791527807 -8939.4141812413145 
	4454.221471587728 -4316.0688378113291 -8939.239539214781 
	4454.2499442055869 -4316.3258836421937 -8939.0701043705922 
	4454.3061567056575 -4316.8432611150829 -8938.7381050041367 
	4454.3791524120152 -4317.5418558123274 -8938.313751252721 
	4454.4821047849773 -4318.615689435167 -8937.7313265360626 
	4454.5778504972704 -4319.7153253248671 -8937.2025916511411 
	4454.6657273676174 -4320.8408097557076 -8936.7275265631743 
	4454.7450679553158 -4321.9923749832806 -8936.3065065951323 
	4454.7918164002494 -4322.7777558929574 -8936.0623795068059 
	4454.8162518049221 -4323.224621188836 -8935.9355676196119 
	4454.8189410010164 -4323.2743436110832 -8935.9216234788692 
	4454.8242672242477 -4323.3739303957036 -8935.8940283051306 
	4454.8269034546374 -4323.4237802783764 -8935.8803814080147 
	4454.8347223962 -4323.5733327568423 -8935.8399375923054 
	4454.8500115281058 -4323.8726399278485 -8935.7609844593826 
	4454.8642502651091 -4324.1725503424032 -8935.6878003454258 
	4454.8913162768649 -4324.7731679045637 -8935.5490467983454 
	4454.9236403703326 -4325.576114981166 -8935.3843383612657 
	4454.9606615317225 -4326.7868212558624 -8935.1972854531523 
	4454.986044784614 -4328.0037732145111 -8935.0698123747479 
	4454.9996149803592 -4329.2269743903798 -8935.0019197377387 
	4455.0006666526015 -4330.0466393936676 -8934.9966658642734 
	4454.9976586233879 -4330.86843393448 -8935.0117084289795 
	4454.9941246466105 -4331.2804053532582 -8935.0293782364897 
	4454.9829322210653 -4332.1064869957327 -8935.085464048856 
	4454.9677125278313 -4332.9275703704534 -8935.1618104771878 
	4454.9332266498386 -4334.1445386625728 -8935.3357711695244 
	4454.8874931301816 -4335.3470750198012 -8935.5683052742806 
	4454.8309100118258 -4336.5352998207409 -8935.8589827013329 
	4454.763869872856 -4337.7092326245338 -8936.2077965993594 
	4454.7124666138643 -4338.4822723875195 -8936.4793748226748 
	4454.6714972650943 -4339.0584125607129 -8936.6979110319044 
	4454.6574380239981 -4339.2498523919548 -8936.7732330628714 
	4454.635757624661 -4339.5360933994052 -8936.8899688320398 
	4454.6284305245326 -4339.6313758485921 -8936.9295155560721 
	4454.6135884740042 -4339.8215407844154 -8937.0098284078922 
	4454.576073834708 -4340.295184450817 -8937.2133344683662 
	4454.5049618220419 -4341.131949788256 -8937.603980469903 
	4454.4033123232075 -4342.2146865035247 -8938.1757220774452 
	4454.2956212517483 -4343.2649540774328 -8938.7977168522757 
	4454.1826683848167 -4344.2829921445018 -8939.4697171619937 
	4454.0652315079051 -4345.2688053021584 -8940.1918461439964 
	4453.9844749229878 -4345.9043760144023 -8940.7070168251848 
	4453.9231841387618 -4346.3728199310053 -8941.1062745453855 
	4453.9026320235544 -4346.5276050536168 -8941.2415172828005 
	4453.861326795929 -4346.8343599678929 -8941.51631186341 
	4453.8406563204044 -4346.9857168855751 -8941.655314224623 
	4453.7786473935721 -4347.4338003132061 -8942.0770843918253 
	4453.6959759194178 -4348.0152865520085 -8942.6521399640387 
	4453.5728674006368 -4348.8405327545233 -8943.5522089601636 
	4453.4515182768127 -4349.6193182035031 -8944.48945498592 
	4453.3327844052383 -4350.3518167932643 -8945.4638460607057 
	4453.2175272166523 -4351.0378588142949 -8946.4756242249532 
	4453.1435920235781 -4351.463901995734 -8947.1754165625771 
	4453.0984782624473 -4351.7202062272709 -8947.6208560161976 
	4453.089510329075 -4351.7709681091101 -8947.7103476328466 
	4453.071688939699 -4351.8714879921436 -8947.8901436538727 
	4453.0628306715626 -4351.9212727729655 -8947.9804987292955 
	4453.0365037174606 -4352.0687272971309 -8948.2520759869785 
	4453.0192646328378 -4352.1646013316968 -8948.4339899324968 
	4452.9685218635586 -4352.4450155417844 -8948.9822941758393 
	4452.9034637241302 -4352.7996893403342 -8949.720196401302 
	4452.8142664409297 -4353.2749823784943 -8950.8472603083083 
	4452.7340421321642 -4353.6940409201316 -8951.9944056255445 
	4452.6633706288285 -4354.056934662568 -8953.1616462967741 
	4452.602834753965 -4354.3633225295971 -8954.3491388431194 
	4452.5696294319832 -4354.5294013200191 -8955.1545042349771 
	4452.5512378489293 -4354.6210164485492 -8955.6622360096317 
	4452.5476776387004 -4354.6387298699683 -8955.7640014242097 
	4452.5425169160026 -4354.6643796586986 -8955.9169803532277 
	4452.5408265275873 -4354.6727765855421 -8955.9680317930342 
	4452.5375107421441 -4354.6892391868305 -8956.0700966376462 
	4452.5293806025757 -4354.7295831380452 -8956.325255779906 
	4452.5220471291295 -4354.7658776695953 -8956.5804001228553 
	4452.5059766191825 -4354.8452935265877 -8957.192718425953 
	4452.4886288822245 -4354.9306816437211 -8958.0090678774504 
	4452.474847142681 -4354.9982418018944 -8959.2333706309237 
	4452.4733027736083 -4355.005800803262 -8960.4574537935223 
	4452.4839896628519 -4354.9534452008866 -8961.6813176738578 
	4452.5068980128945 -4354.8408298369386 -8962.9049610654274 
	4452.5303088540841 -4354.7250533291462 -8963.720574489671 
	4452.5457631798681 -4354.6482454233264 -8964.1793143500909 
	4452.5475126028359 -4354.6395461899756 -8964.2302999581771 
	4452.5510723721454 -4354.6218346601718 -8964.3321971506248 
	4452.5565014119857 -4354.5948077177818 -8964.4848765120405 
	4452.5697905809375 -4354.5285376969814 -8964.8399672729538 
	4452.5822319285717 -4354.4662710755165 -8965.1423532791541 
	4452.6084770319867 -4354.3345306018882 -8965.7445183206673 
	4452.6471032943582 -4354.1396665270504 -8966.5404563427073 
	4452.7153395719315 -4353.7906383067693 -8967.7138707562754 
	4452.793283199102 -4353.3853438981059 -8968.8669942786 
	4452.8803495273824 -4352.9238359182036 -8969.999883988583 
	4452.9440848312297 -4352.5784482008012 -8970.7415966389872 
	4452.9938719957136 -4352.3050673847238 -8971.2927421090335 
	4453.0192619446043 -4352.1647902239019 -8971.5670294836218 
	4453.0453680961245 -4352.019080034881 -8971.8393722218425 
	4453.0585381443334 -4351.9453141615604 -8971.9752178016624 
	4453.0629489164885 -4351.9205666497646 -8972.0204581397811 
	4453.0717996607618 -4351.8708199784169 -8972.1107344785069 
	4453.111764968462 -4351.6457962345112 -8972.5161162465338 
	4453.18953653875 -4351.2010384516889 -8973.2672441519444 
	4453.3041695266793 -4350.5243748030634 -8974.2916513595901 
	4453.4227731653928 -4349.7992658901903 -8975.2803885528774 
	4453.5039175738175 -4349.2835365957426 -8975.9158149707437 
	4453.5653395221443 -4348.8845169042479 -8976.383437024906 
	4453.5859074173813 -4348.7494722487354 -8976.5378190470783 
	4453.627194921547 -4348.475278011806 -8976.8435824819317 
	4453.6479162980877 -4348.3361164536809 -8976.9949766225254 
	4453.6686917722918 -4348.1949079505894 -8977.1448337603397 
	0 
	null_surface 
	null_surface 
	nullbs 
	nullbs 
	I I 
	0 
	0 
	0 
	F 1 F 0 } I I #
loop $-1 $52 $53 $40 #
face $-1 $-1 $27 $2 $-1 $54 forward single #
point $-1 4829.6822739608369 -4347.822039426921 -8977.532110844546 #
face $-1 $40 $55 $2 $-1 $56 forward single #
loop $-1 $57 $58 $30 #
plane-surface $-1 4330.0000000000027 -4330.0000000000027 -4889.9999999999973 0 0 1 25.399999999999999 0 0 forward_v I I I I #
loop $-1 $-1 $47 $19 #
coedge $-1 $46 $46 $58 $59 forward $31 $-1 #
coedge $-1 $47 $47 $33 $48 reversed $45 $-1 #
edge $-1 $60 0 $60 6.2831853071795862 $33 $61 forward 7 unknown #
coedge $-1 $49 $49 $62 $63 forward $34 $-1 #
point $-1 4204.9999999999945 -4330.0000000000027 -8809.9999999999891 #
point $-1 4453.6686917722845 -4348.1949079505766 -8977.1448337603524 #
loop $-1 $-1 $64 $40 #
coedge $-1 $53 $53 $65 $66 forward $39 $-1 #
cone-surface $-1 4330.0000000000027 -4330.0000000000027 -9460.0000000000055 0 0 1 499.99999999999898 0 0 1 I I 0 1 499.99999999999898 forward I I I I #
loop $-1 $67 $62 $42 #
plane-surface $-1 4330.0000000000027 -4330.0000000000027 -9460.0000000000055 0 0 -1 -25.399999999999999 0 0 forward_v I I I I #
loop $-1 $-1 $65 $30 #
coedge $-1 $58 $58 $46 $59 reversed $43 $-1 #
edge $-1 $68 0 $68 6.2831853071795862 $46 $69 forward 7 unknown #
vertex $-1 $48 $70 #
ellipse-curve $-1 4330.0000000000027 -4330.0000000000027 -4990.0000000000045 0 0 1 375.00000000000114 0 0 1 I I #
coedge $-1 $62 $62 $49 $63 reversed $55 $-1 #
edge $-1 $71 0 $71 6.2831853071795862 $49 $72 forward 7 unknown #
coedge $-1 $64 $64 $73 $74 forward $52 $-1 #
coedge $-1 $65 $65 $53 $66 reversed $57 $-1 #
edge $-1 $75 0 $75 6.2831853071795862 $65 $76 forward 7 unknown #
loop $-1 $-1 $73 $42 #
vertex $-1 $59 $77 #
ellipse-curve $-1 4330.0000000000027 -4330.0000000000027 -4889.9999999999973 0 0 1 375.00000000000114 0 0 1 I I #
point $-1 4705.0000000000009 -4330.0000000000027 -4990.0000000000045 #
vertex $-1 $63 $78 #
ellipse-curve $-1 4330.0000000000027 -4330.0000000000027 -9460.0000000000055 0 0 -1 -125.00000000000011 0 0 1 I I #
coedge $-1 $73 $73 $64 $74 reversed $67 $-1 #
edge $-1 $79 0 $79 6.2831853071795862 $73 $80 forward 7 unknown #
vertex $-1 $66 $81 #
ellipse-curve $-1 4330.0000000000027 -4330.0000000000027 -4889.9999999999973 0 0 -1 -499.99999999999898 0 0 1 I I #
point $-1 4705.0000000000009 -4330.0000000000027 -4889.9999999999973 #
point $-1 4204.9999999999945 -4330.0000000000027 -9460.0000000000055 #
vertex $-1 $74 $82 #
ellipse-curve $-1 4330.0000000000027 -4330.0000000000027 -9460.0000000000055 0 0 1 499.99999999999898 0 0 1 I I #
point $-1 3829.9999999999959 -4330.0000000000027 -4889.9999999999973 #
point $-1 4830.0000000000091 -4330.0000000000027 -9460.0000000000055 #
End-of-ACIS-data 