105 83 1 0                              
body $-1 $1 $-1 $-1 #
lump $-1 $-1 $2 $0 #
shell $-1 $-1 $-1 $3 $1 #
face $-1 $4 $5 $2 $-1 $6 reversed single #
face $-1 $7 $8 $2 $-1 $9 reversed single #
loop $-1 $10 $11 $3 #
cone-surface $-1 170.472440944882 -170.472440944882 -352.755905511811 1 0 0 0 0 -0.984251968503937 1 0 1 0 #
face $-1 $12 $13 $2 $-1 $14 reversed single #
loop $-1 $-1 $15 $4 #
plane-surface $-1 170.472440944882 -170.472440944882 -346.850393700787 0 0 1 1 0 0 0 #
loop $-1 $-1 $16 $3 #
coedge $-1 $11 $11 $17 $18 0 $5 $-1 #
face $-1 $19 $20 $2 $-1 $21 reversed single #
loop $-1 $22 $23 $7 #
cone-surface $-1 170.472440944882 -170.472440944882 -372.44094488189 0 0 1 4.92125984251969 0 0 1 0 1 0 #
coedge $-1 $15 $15 $24 $25 0 $8 $-1 #
coedge $-1 $16 $16 $23 $26 1 $10 $-1 #
coedge $-1 $17 $17 $11 $18 1 $27 $-1 #
edge $-1 $28 $28 $11 $29 0 #
face $-1 $30 $31 $2 $-1 $32 reversed single #
loop $-1 $-1 $33 $12 #
plane-surface $-1 170.472440944882 -170.472440944882 -196.456692913386 0 0 -1 -1 0 0 0 #
loop $-1 $34 $24 $7 #
coedge $-1 $23 $23 $16 $26 0 $13 $-1 #
coedge $-1 $24 $24 $15 $25 1 $22 $-1 #
edge $-1 $35 $35 $15 $36 0 #
edge $-1 $37 $37 $16 $38 0 #
loop $-1 $39 $17 $40 #
vertex $-1 $18 $41 #
intcurve-curve $-1 0 { surfintcur nubs 3 open 182 
	-0.0156249999999217 1 -0.00781249999996081 1 0 2 0.007812499999775 1 0.01562499999955 1 
	0.023437499999325 1 0.0312499999991 1 0.039062499998875 1 0.04687499999865 2 0.0507812499985296 1 
	0.0527343749984771 2 0.0546874999984246 2 0.0624999999982591 1 0.0703124999980936 1 0.0781249999979281 1 
	0.0859374999977627 1 0.0937499999975972 1 0.101562499997432 2 0.105468749997346 2 0.107421874997304 2 
	0.109374999997261 1 0.117187499997098 1 0.124999999996935 1 0.132812499996772 1 0.140624999996609 1 
	0.148437499996446 1 0.156249999996282 2 0.160156249996212 2 0.162109374996186 2 0.164062499996159 1 
	0.171874999996085 1 0.17968749999601 1 0.187499999995936 1 0.195312499995862 1 0.203124999995787 1 
	0.210937499995713 2 0.212890624995695 1 0.213867187495686 2 0.214843749995677 2 0.218749999995608 2 
	0.226562499995486 1 0.234374999995363 1 0.24218749999524 1 0.249999999995118 1 0.257812499994995 1 
	0.265624999994872 2 0.267578124994835 2 0.26855468749483 2 0.269531249994824 1 0.273437499994801 2 
	0.281249999994783 1 0.289062499994764 1 0.296874999994746 1 0.304687499994727 1 0.312499999994709 1 
	0.32031249999469 2 0.321289062494717 2 0.322265624994743 2 0.324218749994802 1 0.328124999994926 2 
	0.335937499995172 1 0.343749999995419 1 0.351562499995666 1 0.359374999995912 1 0.367187499996159 1 
	0.374999999996406 2 0.375976562496437 2 0.376953124996468 1 0.378906249996496 1 0.382812499996553 2 
	0.390624999996666 1 0.398437499996779 1 0.406249999996892 1 0.414062499997005 1 0.421874999997118 2 
	0.425781249997189 1 0.427734374997224 1 0.428710937497244 2 0.429687499997265 2 0.437499999997386 1 
	0.445312499997506 1 0.453124999997627 1 0.460937499997748 1 0.468749999997869 1 0.47656249999799 2 
	0.480468749998045 1 0.482421874998068 2 0.483398437498092 2 0.484374999998117 1 0.492187499998118 1 
	0.49999999999812 1 0.507812499998121 1 0.515624999998123 1 0.523437499998124 1 0.531249999998126 2 
	0.53515624999811 1 0.536132812498105 2 0.5371093749981 1 0.539062499998087 1 0.546874999998092 1 
	0.554687499998098 1 0.562499999998103 1 0.570312499998109 1 0.578124999998115 1 0.58593749999812 2 
	0.58984374999811 2 0.590820312498116 2 0.591796874998122 1 0.593749999998127 1 0.601562499998103 1 
	0.609374999998079 1 0.617187499998055 1 0.624999999998031 1 0.632812499998007 1 0.640624999997984 2 
	0.642578124997989 1 0.643554687497986 2 0.644531249997982 1 0.648437499997963 2 0.65624999999792 1 
	0.664062499997877 1 0.671874999997835 1 0.679687499997792 1 0.687499999997749 1 0.695312499997707 2 
	0.697265624997681 2 0.698242187497669 2 0.699218749997657 1 0.703124999997652 2 0.710937499997644 1 
	0.718749999997635 1 0.726562499997627 1 0.734374999997619 1 0.742187499997611 1 0.749999999997602 2 
	0.750976562497624 2 0.751953124997645 2 0.753906249997688 1 0.757812499997784 2 0.765624999997963 1 
	0.773437499998142 1 0.781249999998321 1 0.789062499998501 1 0.79687499999868 1 0.804687499998859 2 
	0.805664062498857 2 0.806640624998855 1 0.808593749998881 1 0.812499999998933 2 0.820312499999067 1 
	0.828124999999202 1 0.835937499999336 1 0.84374999999947 1 0.851562499999605 2 0.855468749999672 1 
	0.857421874999707 1 0.858398437499724 2 0.859374999999741 2 0.86718749999987 1 0.875 1 
	0.882812500000129 1 0.890625000000258 1 0.898437500000387 1 0.906250000000517 2 0.910156250000597 1 
	0.91210937500062 2 0.913085937500631 2 0.914062500000643 1 0.921875000000578 1 0.929687500000512 1 
	0.937500000000447 1 0.945312500000382 1 0.953125000000316 1 0.960937500000251 2 0.964843750000204 1 
	0.96582031250019 2 0.966796875000176 2 0.968750000000157 1 0.976562500000117 1 0.984375000000078 1 
	0.992187500000039 1 1 2 
	190.144564876085 -171.185494325158 -353.434559318037 
	190.145377955477 -171.162697755702 -353.457732874447 
	190.146188232389 -171.139423609747 -353.480244519949 
	190.147386652594 -171.103109850561 -353.512068447648 
	190.148559739657 -171.065412806094 -353.541975859751 
	190.14969929938 -171.026341511307 -353.569979608347 
	190.150797180585 -170.985895118461 -353.596078844269 
	190.151495845782 -170.958006961015 -353.612198948372 
	190.152005282096 -170.936739109637 -353.623802031399 
	190.152256358835 -170.926017209484 -353.629481767152 
	190.152501572367 -170.915161971753 -353.634976903036 
	190.152663699799 -170.907895335095 -353.63859905577 
	190.152744129918 -170.904245200387 -353.640390391907 
	190.153141750851 -170.885968069647 -353.649220095583 
	190.153750366315 -170.856493476698 -353.662567313395 
	190.154575657078 -170.811601962091 -353.680294530419 
	190.155308549993 -170.766039507479 -353.695757726843 
	190.155944352494 -170.719809878084 -353.708969854364 
	190.156478387356 -170.672912059808 -353.71992770552 
	190.156763420549 -170.641197506955 -353.725717114663 
	190.156949369097 -170.617240371692 -353.729481605237 
	190.1570067139 -170.609226109759 -353.730640129069 
	190.157085619775 -170.597161425982 -353.732231888375 
	190.157110737132 -170.593132539113 -353.732738147102 
	190.15715857265 -170.585060685014 -353.733701631879 
	190.157271917346 -170.564887411054 -353.735982745867 
	190.157419850869 -170.528632360614 -353.738948585549 
	190.157498340726 -170.480411212322 -353.740517800595 
	190.157458947479 -170.432307550837 -353.739730530941 
	190.15730252834 -170.384320800625 -353.736598306562 
	190.157029937 -170.336451223187 -353.731115827491 
	190.15677133408 -170.304617022879 -353.725879175423 
	190.156548772959 -170.280771440857 -353.721348518197 
	190.156469817819 -170.272827927253 -353.719737723484 
	190.156344261012 -170.260920262084 -353.717168964847 
	190.156301199938 -170.256950511167 -353.716286839201 
	190.156212951788 -170.249034929418 -353.71447641335 
	190.155986897856 -170.229294089103 -353.709832448267 
	190.155531860834 -170.19419060828 -353.700419526105 
	190.154828700267 -170.148286324218 -353.685662456159 
	190.154035185396 -170.103272272678 -353.668723462749 
	190.153157335018 -170.059144783416 -353.649611283676 
	190.152201155919 -170.015906535699 -353.628319065475 
	190.151515537467 -169.9876799594 -353.612655743266 
	190.151073269857 -169.970228828861 -353.602399054427 
	190.150939558141 -169.965007784578 -353.599286992462 
	190.150804336518 -169.959808302696 -353.596122050951 
	190.150713857409 -169.956346787579 -353.594000303154 
	190.150668441295 -169.954618021362 -353.592933279802 
	190.150440666639 -169.945990929788 -353.587571521226 
	190.150256599279 -169.939156871415 -353.58320567257 
	190.149699420708 -169.918855182207 -353.569881449338 
	190.148943251667 -169.892320628285 -353.551511644237 
	190.147778032796 -169.854093816255 -353.522175857814 
	190.146590479905 -169.817425842269 -353.491076983147 
	190.145389127064 -169.782311874542 -353.458220172294 
	190.144182519469 -169.748758224983 -353.423597967182 
	190.143380383896 -169.727441138422 -353.39932600073 
	190.142881608422 -169.714452909749 -353.383776911725 
	190.142781981565 -169.711872022116 -353.380648126443 
	190.142632769125 -169.708025975732 -353.375926328615 
	190.142583055851 -169.706747821603 -353.374347186304 
	190.142483776537 -169.704201642556 -353.371181415897 
	190.142236044382 -169.69786402738 -353.363251420414 
	190.141990707418 -169.691665107247 -353.355243837194 
	190.141406982269 -169.677051044608 -353.33587830571 
	190.140642243381 -169.658267539578 -353.309664904178 
	190.139543386721 -169.632163420031 -353.269185880914 
	190.138500192418 -169.608111394714 -353.227558403692 
	190.137520004046 -169.586107280949 -353.184784633835 
	190.136610186377 -169.566161600905 -353.140858512194 
	190.136055537389 -169.554253826906 -353.110796541898 
	190.135759583829 -169.547954278778 -353.093663495573 
	190.135726922886 -169.547259868356 -353.091756721907 
	190.135662051678 -169.545882159708 -353.087936952042 
	190.135629833058 -169.545198684479 -353.086023454331 
	190.135533919265 -169.543166215656 -353.080277099521 
	190.135345229851 -169.539176704421 -353.06877123856 
	190.135166028392 -169.535412067299 -353.057226167461 
	190.134820468545 -169.528179449697 -353.034084296013 
	190.134393972242 -169.519326661115 -353.003090589348 
	190.13385998489 -169.508382839035 -352.956192763436 
	190.133434701555 -169.49975504337 -352.908891011012 
	190.133121044752 -169.49344064587 -352.86118576469 
	190.132921947467 -169.489453622657 -352.8130745677 
	190.132867574433 -169.488367895935 -352.780726182809 
	190.132859602442 -169.488208649463 -352.762451464823 
	190.132859030705 -169.488197229028 -352.760419299168 
	190.132858517697 -169.488186981653 -352.75635533816 
	190.132858693641 -169.488190496448 -352.750262547719 
	190.132865701903 -169.488330490696 -352.736068026128 
	190.13288294951 -169.488675072114 -352.723938765146 
	190.132932248705 -169.489660640517 -352.699729697642 
	190.133037456504 -169.491764767206 -352.667582756376 
	190.133310825188 -169.497256330385 -352.619751986339 
	190.133696931751 -169.505065849326 -352.57230793633 
	190.134192973971 -169.515192592233 -352.52525046184 
	190.134595080336 -169.523499174108 -352.49413827892 
	190.134922721706 -169.530320697829 -352.47090281822 
	190.135093057537 -169.533879425281 -352.459309768437 
	190.135303023768 -169.538292785247 -352.445828161384 
	190.135395400644 -169.540240589335 -352.440059730553 
	190.135457514689 -169.541551688453 -352.436216205318 
	190.135488846715 -169.542213736768 -352.43429486816 
	190.135772971844 -169.548223868983 -352.417026650432 
	190.136307538306 -169.559623625868 -352.386720726054 
	190.13719009675 -169.578823373686 -352.342416284409 
	190.138145928004 -169.600094471363 -352.299250326416 
	190.139167723092 -169.623423454527 -352.257215289416 
	190.14024821084 -169.648811661799 -352.216311735439 
	190.141002785092 -169.667120731581 -352.189802822852 
	190.14157969346 -169.681379305458 -352.17021048805 
	190.14187089138 -169.688640346999 -352.160486691912 
	190.142165847196 -169.696101087047 -352.150872578318 
	190.142313921108 -169.699864943957 -352.146083913069 
	190.142363395764 -169.701125587586 -352.144490201035 
	190.142462438464 -169.703655509169 -352.141312136897 
	190.142908531869 -169.715078509556 -352.127053567809 
	190.14375749779 -169.737304495787 -352.10084381443 
	190.144963009366 -169.770279290528 -352.065620184418 
	190.146166783731 -169.804830911279 -352.032152222609 
	190.147360246311 -169.840950835182 -352.000430124521 
	190.148534851941 -169.878641805434 -351.970456631049 
	190.149299606319 -169.904825876708 -351.951650287013 
	190.149864102685 -169.92486671991 -351.937993686287 
	190.150097419313 -169.933301025392 -351.932396846174 
	190.150328079738 -169.941841431464 -351.92691804731 
	190.150420125413 -169.945266110167 -351.924736002274 
	190.150557915417 -169.950417770567 -351.921475989015 
	190.151057857156 -169.969388228076 -351.909716813775 
	190.151846314454 -170.00086926064 -351.891526752317 
	190.152828025814 -170.043761684425 -351.869475312732 
	190.153733978803 -170.087561191425 -351.849600023324 
	190.154558063471 -170.132263768886 -351.83189096389 
	190.155294178868 -170.177871871616 -351.816353755311 
	190.155722166597 -170.208886956398 -351.807457745638 
	190.156018046258 -170.23238087983 -351.801343525455 
	190.156112487171 -170.240250974345 -351.799398460757 
	190.156225137719 -170.250137634655 -351.797084725771 
	190.156247405432 -170.252118113997 -351.796627702748 
	190.156291352592 -170.256080012419 -351.795726355781 
	190.156356388217 -170.262023952118 -351.794393439117 
	190.156585104825 -170.283830376716 -351.789715628093 
	190.156906078276 -170.319578525344 -351.783196451876 
	190.157219346215 -170.367378689023 -351.77688247158 
	190.15741692898 -170.415313347819 -351.772920916738 
	190.15749784809 -170.463382007194 -351.771303068399 
	190.157461123208 -170.511585130264 -351.772036998195 
	190.157357548055 -170.54381114549 -351.774110890128 
	190.157267884712 -170.563981231771 -351.775911268803 
	190.157239116002 -170.570034420974 -351.776489220119 
	190.157207536615 -170.576090873657 -351.777124252079 
	190.15718585841 -170.580129236227 -351.777560330372 
	190.157130078417 -170.590230428419 -351.778682766388 
	190.157066787555 -170.600287419943 -351.77995840894 
	190.15690077273 -170.624340352729 -351.783310718213 
	190.156641778384 -170.656187448039 -351.788555461073 
	190.156145096262 -170.703299251939 -351.798707450296 
	190.155544850657 -170.74975886774 -351.811121416169 
	190.154845612683 -170.795568216259 -351.825790898851 
	190.154051961661 -170.84072456804 -351.842725602375 
	190.153463009978 -170.87038848194 -351.855543040825 
	190.153077202268 -170.888788220557 -351.864040435813 
	190.152999155227 -170.892461153479 -351.865764254991 
	190.152880775417 -170.897959968502 -351.86838671097 
	190.152841084103 -170.899791742383 -351.869267277498 
	190.152761365096 -170.903447327294 -351.871038538198 
	190.152561196373 -170.912567825135 -351.875492676647 
	190.152356742924 -170.921596309886 -351.880076315857 
	190.15185836361 -170.943089959004 -351.891322963651 
	190.151173354129 -170.971282480388 -351.906973943756 
	190.150092688933 -171.012197112719 -351.932384851107 
	190.148967058565 -171.051750174168 -351.959712797599 
	190.147804574393 -171.089944392517 -351.988954265212 
	190.146613371597 -171.126772741682 -352.020119482904 
	190.145805594929 -171.150403045629 -352.042195010672 
	190.145348975924 -171.163430598596 -352.054985151971 
	190.145298209367 -171.164874428569 -352.056411457956 
	190.145196619672 -171.167754714447 -352.059274459845 
	190.145145781896 -171.169191580731 -352.060711572984 
	190.144993388609 -171.173485562191 -352.065032964535 
	190.14468893905 -171.182011141055 -352.073719960589 
	190.144385703949 -171.190350720515 -352.082538784484 
	190.143781386334 -171.206784482206 -352.100350374265 
	190.142981373904 -171.228042078981 -352.124562788439 
	190.141806930363 -171.257996273549 -352.162251234413 
	190.140666239441 -171.286033851887 -352.201298695742 
	190.139567421963 -171.312156580033 -352.241704152676 
	190.138518637969 -171.336352452092 -352.283476344935 
	190.137858336919 -171.351180982049 -352.312248174038 
	190.137499456603 -171.359148065273 -352.328697665029 
	190.137459743739 -171.36002835326 -352.330529613637 
	190.137380773227 -171.36177626662 -352.334196195138 
	190.137262972612 -171.36437975893 -352.339701341211 
	190.136992724021 -171.370326321231 -352.352583487242 
	190.136769115583 -171.375204800437 -352.363688053801 
	190.136332909074 -171.384673235305 -352.385979993826 
	190.135780663573 -171.396528777378 -352.415923296312 
	190.135045073294 -171.412038021099 -352.461490994583 
	190.134406863203 -171.425289329058 -352.507706877923 
	190.133870609115 -171.4362826087 -352.554571035031 
	190.133584145973 -171.44209521436 -352.586249151959 
	190.133397109922 -171.445877779793 -352.610173386821 
	190.133310545257 -171.447624771213 -352.622176935845 
	190.133221983544 -171.449407862147 -352.63625431746 
	190.133186720697 -171.450117063789 -352.642303268521 
	190.133163813578 -171.450577609693 -352.646339421646 
	190.133152657609 -171.450801818048 -352.648359866997 
	190.133055096686 -171.45276192222 -352.666536581156 
	190.132921742197 -171.455432353824 -352.698803103329 
	190.132840919128 -171.457046245019 -352.747062947794 
	190.132878280462 -171.456300537402 -352.795184733295 
	190.133032816437 -171.45321004609 -352.843169327425 
	190.133303519796 -171.447772753073 -352.891016615299 
	190.133560755788 -171.442570736638 -352.92282253509 
	190.133782210846 -171.438068659055 -352.94664184062 
	190.133900070259 -171.435667406477 -352.958542705576 
	190.134028577615 -171.433038455316 -352.970430250177 
	190.134094601718 -171.431685795773 -352.976371788761 
	190.13411691065 -171.431228425873 -352.97835242527 
	190.134162057167 -171.43030216619 -352.982307684339 
	190.134367649224 -171.426081034795 -353.000084202762 
	190.134797005672 -171.417211259191 -353.033287174409 
	190.135499670494 -171.402483902793 -353.079239853122 
	190.136292600417 -171.385578896633 -353.12428209258 
	190.137169638668 -171.366507961971 -353.168418901011 
	190.13812464809 -171.345267269871 -353.211648797238 
	190.138809174397 -171.329647287519 -353.239858766834 
	190.139338934156 -171.317375997904 -353.26078379024 
	190.13956307611 -171.312147007614 -353.269454098545 
	190.139791268164 -171.306771474985 -353.278063178393 
	190.139882864686 -171.304609499514 -353.28150189585 
	190.139928828056 -171.303522505595 -353.283218987809 
	190.140067034445 -171.300247551515 -353.288357067921 
	190.140530080006 -171.289231989399 -353.305405377926 
	190.141383738144 -171.26851666308 -353.33538802393 
	190.142556293007 -171.239021757172 -353.373877267084 
	190.143754591375 -171.207656926414 -353.410882763135 
	190.144564876085 -171.185494325158 -353.434559318037 
	190.145377955477 -171.162697755702 -353.457732874447 
	0.0378328202540489 
	cone 170.472440944882 -170.472440944882 -352.755905511811 1 0 0 0 0 -0.984251968503937 1 0 1 0 
	cone 170.472440944882 -170.472440944882 -372.44094488189 0 0 1 19.6850393700787 0 0 1 0 1 0 
	nullbs 
	nullbs 
	} #
face $-1 $42 $43 $2 $-1 $44 forward single #
loop $-1 $45 $46 $19 #
cone-surface $-1 170.472440944882 -170.472440944882 -196.456692913386 0 0 1 14.7637795275591 0 0 1 0 1 0 #
coedge $-1 $33 $33 $47 $48 0 $20 $-1 #
loop $-1 $-1 $49 $7 #
vertex $-1 $25 $50 #
ellipse-curve $-1 170.472440944882 -170.472440944882 -346.850393700787 0 0 -1 -4.92125984251969 0 0 1 #
vertex $-1 $26 $51 #
intcurve-curve $-1 0 { surfintcur nubs 3 open 173 
	-0.00390624999982259 2 0 2 0.00781250000000103 1 0.0156250000000021 1 0.0234375000000031 1 
	0.0312500000000041 1 0.0390625000000052 1 0.0468750000000062 2 0.0507812500000151 1 0.0527343750000196 2 
	0.0546875000000241 2 0.0625000000000246 1 0.0703125000000251 1 0.0781250000000256 1 0.0859375000000261 1 
	0.0937500000000266 1 0.101562500000027 2 0.105468750000038 1 0.10742187500005 2 0.109375000000062 2 
	0.117187500000125 1 0.125000000000188 1 0.132812500000251 1 0.140625000000314 1 0.148437500000377 1 
	0.15625000000044 2 0.160156250000471 2 0.161132812500469 2 0.162109375000468 1 0.164062500000464 1 
	0.171875000000504 1 0.179687500000545 1 0.187500000000586 1 0.195312500000626 1 0.203125000000667 1 
	0.210937500000707 2 0.212890625000729 2 0.21386718750073 2 0.214843750000732 1 0.218750000000735 2 
	0.226562500000756 1 0.234375000000778 1 0.2421875000008 1 0.250000000000821 1 0.257812500000843 1 
	0.265625000000864 2 0.266601562500856 2 0.267578125000847 1 0.269531250000864 1 0.273437500000897 2 
	0.281250000000975 1 0.289062500001052 1 0.29687500000113 1 0.304687500001207 1 0.312500000001285 1 
	0.320312500001362 2 0.324218750001417 2 0.328125000001471 2 0.335937500001543 1 0.343750000001616 1 
	0.351562500001688 1 0.35937500000176 1 0.367187500001833 2 0.371093750001852 1 0.373046875001862 1 
	0.374023437501867 2 0.375000000001872 2 0.382812500002146 1 0.39062500000242 1 0.398437500002693 1 
	0.406250000002967 1 0.414062500003241 1 0.421875000003515 2 0.425781250003667 1 0.426757812503703 2 
	0.427734375003739 2 0.42968750000378 1 0.437500000004009 1 0.445312500004238 1 0.453125000004467 1 
	0.460937500004696 1 0.468750000004925 1 0.476562500005154 2 0.478515625005219 2 0.480468750005283 2 
	0.484375000005405 2 0.492187500005658 1 0.500000000005911 1 0.507812500006165 1 0.515625000006418 1 
	0.523437500006671 1 0.531250000006925 2 0.532226562506938 2 0.533203125006951 2 0.535156250006961 1 
	0.53906250000695 2 0.546875000006912 1 0.554687500006873 1 0.562500000006835 1 0.570312500006796 1 
	0.578125000006757 1 0.585937500006719 2 0.586914062506722 2 0.587890625006725 2 0.589843750006723 1 
	0.59375000000672 2 0.601562500006737 1 0.609375000006755 1 0.617187500006773 1 0.625000000006791 1 
	0.632812500006809 2 0.640625000006827 2 0.648437500006845 1 0.656250000006863 1 0.664062500006881 1 
	0.671875000006899 1 0.679687500006916 1 0.687500000006934 2 0.691406250006949 2 0.693359375006958 2 
	0.695312500006967 1 0.703125000006986 1 0.710937500007005 1 0.718750000007024 1 0.726562500007043 1 
	0.734375000007062 1 0.742187500007081 2 0.746093750007089 2 0.750000000007098 2 0.757812500007138 1 
	0.765625000007178 1 0.773437500007218 1 0.781250000007259 1 0.789062500007299 1 0.796875000007339 2 
	0.798828125007325 2 0.800781250007311 2 0.804687500007293 2 0.812500000007228 1 0.820312500007163 1 
	0.828125000007098 1 0.835937500007034 1 0.843750000006969 1 0.851562500006904 2 0.853515625006864 2 
	0.854492187506828 2 0.855468750006792 1 0.859375000006588 2 0.867187500006182 1 0.875000000005775 1 
	0.882812500005369 1 0.890625000004962 1 0.898437500004556 1 0.906250000004149 2 0.90722656250411 2 
	0.908203125004071 1 0.910156250003988 1 0.914062500003824 2 0.921875000003461 1 0.929687500003097 1 
	0.937500000002734 1 0.945312500002371 1 0.953125000002008 2 0.957031250001842 1 0.958984375001779 2 
	0.959960937501747 2 0.960937500001715 1 0.968750000001375 1 0.976562500001035 1 0.984375000000695 1 
	0.992187500000355 2 0.996093750000177 2 1 2 
	175.340469145594 -171.194335293452 -353.424999079627 
	175.34292294176 -171.177657123795 -353.442698741574 
	175.346188902826 -171.154929851973 -353.465650543109 
	175.351036058265 -171.119398167821 -353.498178035049 
	175.355798038126 -171.08244263653 -353.528833034378 
	175.36044209642 -171.044069463496 -353.557628952216 
	175.364935699331 -171.004274436738 -353.584565367414 
	175.367809306203 -170.976786717845 -353.60127379028 
	175.369910361142 -170.955805360133 -353.613329468459 
	175.370947347838 -170.945223245216 -353.619238340133 
	175.371962419981 -170.934502355786 -353.624966868515 
	175.372634083485 -170.927324047218 -353.628745561517 
	175.372967569396 -170.923717358126 -353.63061574548 
	175.374617600036 -170.905653429979 -353.639841134338 
	175.377151832661 -170.876498336379 -353.653830332821 
	175.380615250664 -170.832020433566 -353.672544918618 
	175.383720738209 -170.786804798272 -353.689017627334 
	175.386448505852 -170.740853642258 -353.703259107321 
	175.388778711342 -170.694163978507 -353.715263743635 
	175.390053706101 -170.66253969689 -353.721760916107 
	175.390900335941 -170.638631341442 -353.726059239114 
	175.391296244085 -170.626629605438 -353.728064692488 
	175.391650039545 -170.614555674007 -353.729852086636 
	175.39187643097 -170.606490232314 -353.730994900219 
	175.39198468385 -170.602456736817 -353.731540873854 
	175.392500954769 -170.582296429919 -353.734142785165 
	175.393167684369 -170.550062752599 -353.737490714952 
	175.393692181445 -170.501779387807 -353.740114634978 
	175.393743205054 -170.45356238265 -353.740369533742 
	175.393322714508 -170.405411415277 -353.73826696766 
	175.392432529047 -170.357326621672 -353.733801531972 
	175.391527078556 -170.32531460873 -353.729234250888 
	175.390731396374 -170.301322563983 -353.725202267775 
	175.390446736421 -170.29332804457 -353.723757136582 
	175.390066661524 -170.28333846985 -353.721822864777 
	175.389989416366 -170.281340303129 -353.721429526279 
	175.389832721858 -170.277349847183 -353.720631141921 
	175.389594304866 -170.271371125109 -353.719415653511 
	175.3886832427 -170.249525489425 -353.714762409505 
	175.386994222873 -170.214191542415 -353.706083823461 
	175.384343063068 -170.167943813436 -353.692285229747 
	175.381315720616 -170.122549023709 -353.67628522402 
	175.377934754284 -170.078002083117 -353.658093181267 
	175.374222613044 -170.034303945225 -353.637702404518 
	175.371542155494 -170.005742418448 -353.622627430723 
	175.369807414168 -169.988072580507 -353.612734333081 
	175.369457493694 -169.984547674193 -353.610732136959 
	175.368928247007 -169.979273976141 -353.607693275713 
	175.368751128243 -169.977518605151 -353.606674532838 
	175.368395941566 -169.974017225045 -353.604627990014 
	175.367505307387 -169.96528424185 -353.599487298343 
	175.366601627648 -169.95665322414 -353.594225336025 
	175.364409941145 -169.936132196845 -353.581366302171 
	175.361426768594 -169.909286342278 -353.563607034825 
	175.35680346172 -169.870535853887 -353.535155377595 
	175.352065155576 -169.833287108988 -353.504905830933 
	175.347245163499 -169.797534720645 -353.472859802303 
	175.342376995429 -169.763284334524 -353.439005331333 
	175.339122189646 -169.741463372155 -353.41521291528 
	175.337295340013 -169.729479326745 -353.401478182746 
	175.33709234327 -169.728151350466 -353.399946692709 
	175.336686866607 -169.725505980392 -353.396876807479 
	175.336079485033 -169.721554169651 -353.392262076005 
	175.334668319794 -169.712446633456 -353.381425235177 
	175.333469901719 -169.704833327976 -353.372018626553 
	175.331089951799 -169.689861616146 -353.353049612075 
	175.32796173047 -169.67057872946 -353.327342334525 
	175.323436233508 -169.6436626841 -353.287550435521 
	175.319108901819 -169.618740351769 -353.246533118714 
	175.315011067237 -169.59581196652 -353.204287000891 
	175.311174434234 -169.574892581889 -353.160799704024 
	175.308812448048 -169.562305933065 -353.130966228988 
	175.307122783219 -169.553387565397 -353.108267412576 
	175.306575560653 -169.550514194073 -353.100678775962 
	175.305513994151 -169.544965167473 -353.085460089764 
	175.304999614599 -169.542289325217 -353.077829562581 
	175.303506670052 -169.534555038387 -353.054874965112 
	175.301649937085 -169.525024254141 -353.024100870294 
	175.299281822182 -169.513042207774 -352.977441578468 
	175.297345827772 -169.503360841709 -352.930286314151 
	175.295856976665 -169.495983402425 -352.882633788025 
	175.295172547829 -169.492614399533 -352.850530745604 
	175.29477859826 -169.490678026318 -352.826325844961 
	175.294611467556 -169.489857504401 -352.814191475347 
	175.294469559411 -169.489161467676 -352.799978229814 
	175.294420207757 -169.488919500397 -352.793874658345 
	175.294389864986 -169.488770748493 -352.789802894989 
	175.294375982641 -169.488702700637 -352.787766900187 
	175.294262709975 -169.488147514572 -352.769454717264 
	175.294226853711 -169.487972016909 -352.737010500422 
	175.29465968118 -169.490092554707 -352.688669587856 
	175.295569318315 -169.494564747933 -352.640649617195 
	175.296945992491 -169.501373889147 -352.592948403611 
	175.298779857746 -169.510522170013 -352.545565977033 
	175.30030054988 -169.518193231102 -352.514191719078 
	175.301550286833 -169.52454535048 -352.490742430946 
	175.302093763242 -169.527316880896 -352.480988861394 
	175.302665335971 -169.530246095972 -352.471256710473 
	175.302896205714 -169.531430437667 -352.467365568775 
	175.303012717676 -169.532028714076 -352.465421598745 
	175.303365120112 -169.533840090297 -352.45960010575 
	175.304559565774 -169.539991748591 -352.440253496364 
	175.30688379445 -169.552080935024 -352.405950872635 
	175.310324160712 -169.57032531245 -352.361302267933 
	175.314076504931 -169.59066951974 -352.317726507086 
	175.318111924341 -169.613103712269 -352.275216109674 
	175.322401696052 -169.63763347672 -352.233771290738 
	175.325411866792 -169.655397840473 -352.206857114884 
	175.327334078136 -169.666949425598 -352.190262778002 
	175.327720562566 -169.669282199489 -352.186955268682 
	175.32849746013 -169.673992914689 -352.180363078503 
	175.328888094538 -169.676372220505 -352.17707657691 
	175.330062672881 -169.683559990468 -352.167276234174 
	175.330850006977 -169.688422591215 -352.160815342372 
	175.333222566728 -169.703220374392 -352.141648028321 
	175.336414104539 -169.723510418728 -352.116665614879 
	175.341250218477 -169.755598313815 -352.080882300682 
	175.346100494992 -169.789325667614 -352.046770752047 
	175.350930772093 -169.824691348853 -352.014324961909 
	175.355706914956 -169.861706377373 -351.983551302703 
	175.358831907975 -169.887498292411 -351.964162967384 
	175.360566460196 -169.902326802013 -351.953580204418 
	175.360758864926 -169.903978869471 -351.952408833526 
	175.361143004284 -169.907291944175 -351.950075101491 
	175.361334791693 -169.908953411234 -351.948912421209 
	175.361908737956 -169.913947998141 -351.945440206351 
	175.363050062509 -169.923969992572 -351.938564536015 
	175.364171031716 -169.934089907173 -351.931893872858 
	175.36638412227 -169.954459099019 -351.918823031659 
	175.369257968977 -169.981962827257 -351.902116191052 
	175.373311212007 -170.024239741542 -351.879186084097 
	175.377080728239 -170.067532493105 -351.858369750045 
	175.380540447544 -170.111842903768 -351.839666400125 
	175.383664092729 -170.157180117452 -351.823090810832 
	175.385504582687 -170.188100625707 -351.813479508142 
	175.386466606493 -170.205693747592 -351.808486914158 
	175.386572480355 -170.207651323271 -351.807937932239 
	175.386782174183 -170.211572062823 -351.806851508076 
	175.386885962781 -170.213534656629 -351.806314228662 
	175.387193795126 -170.219422549482 -351.804721952453 
	175.387795729453 -170.231206296372 -351.801613561393 
	175.38835630965 -170.243013793008 -351.798732297064 
	175.389421900664 -170.266660153723 -351.79326955899 
	175.390694502769 -170.298272243353 -351.786784974853 
	175.392152028808 -170.345937844719 -351.779420687132 
	175.393151369473 -170.393849339154 -351.774402061998 
	175.393685629148 -170.442006865763 -351.771729123533 
	175.393727033567 -170.474277141483 -351.771522278121 
	175.39360860722 -170.506631257263 -351.772114505078 
	175.393469474276 -170.522850604459 -351.772810166791 
	175.393028827601 -170.555373503769 -351.77501826964 
	175.39242962708 -170.587699620884 -351.778024034535 
	175.391071915348 -170.635611758369 -351.78487288069 
	175.389271383078 -170.682955709441 -351.794027766704 
	175.387043701253 -170.729736213415 -351.805471759895 
	175.384404325703 -170.775954040336 -351.819204590526 
	175.382380575349 -170.806388676674 -351.829896646562 
	175.380767608862 -170.829071360658 -351.838500434327 
	175.380214095433 -170.836608361888 -351.841465868617 
	175.379360536404 -170.84787769289 -351.846061765041 
	175.379072067895 -170.851628970417 -351.84761872268 
	175.378487735197 -170.859115778914 -351.85078064598 
	175.377010780894 -170.877763167355 -351.858792695605 
	175.374211095356 -170.910706684577 -351.874172459445 
	175.370209146583 -170.953334114312 -351.896681971553 
	175.36596934062 -170.994683231395 -351.921169954814 
	175.361522377355 -171.034763470256 -351.947626659921 
	175.356898878264 -171.073575011896 -351.976056934803 
	175.353719485157 -171.098597480882 -351.996339245086 
	175.351306462156 -171.117040154764 -352.012058052968 
	175.350497323762 -171.123134057229 -352.017382570189 
	175.348871133698 -171.135211022358 -352.028201254465 
	175.348057335449 -171.141169956125 -352.033673788371 
	175.345616039117 -171.158811035953 -352.050278913064 
	175.34236125667 -171.181704194961 -352.072918896222 
	175.337514464592 -171.214194202934 -352.108354683471 
	175.332736940032 -171.244855047382 -352.145254133304 
	175.328062378159 -171.273693574538 -352.183615986642 
	175.323524693569 -171.300703102925 -352.223449772636 
	175.320613859196 -171.317476456525 -352.25100065207 
	175.318837726868 -171.327567174302 -352.268537638433 
	175.318484658625 -171.329565673587 -352.272060930427 
	175.317783029122 -171.333523149297 -352.279139513932 
	175.317434278408 -171.335483180038 -352.282696800366 
	175.316397784152 -171.341288476265 -352.293388818385 
	175.315719080033 -171.345063044555 -352.300550784744 
	175.313721333211 -171.356102974086 -352.322137565978 
	175.311159989139 -171.370066509462 -352.351188834697 
	175.307648285076 -171.388778833799 -352.395561429461 
	175.304489847723 -171.40527720158 -352.440724630927 
	175.301707505072 -171.419564356794 -352.486678988062 
	175.299324202912 -171.431626871244 -352.533430663115 
	175.298016906771 -171.4381654063 -352.565137962007 
	175.297292828698 -171.441772301124 -352.585127401954 
	175.297152662941 -171.44246967992 -352.589133914339 
	175.296949484882 -171.443479514122 -352.59515670682 
	175.296882934157 -171.443810101793 -352.597166606025 
	175.296752391423 -171.444458235702 -352.601184906994 
	175.296432307188 -171.446046580238 -352.611230542516 
	175.296143587761 -171.447475498803 -352.621275595388 
	175.295510890519 -171.450602107346 -352.645382615195 
	175.294827908749 -171.453963844241 -352.67752235738 
	175.294285320578 -171.456623692988 -352.725723253186 
	175.294224518646 -171.456921291467 -352.773915503682 
	175.294645262317 -171.454860047279 -352.822099121018 
	175.295547165862 -171.450426371533 -352.870274057694 
	175.296468852523 -171.445868241305 -352.902384822428 
	175.297077290546 -171.442844308005 -352.920445446854 
	175.297146165466 -171.442501818503 -352.922452754259 
	175.297286313864 -171.44180451418 -352.926464454749 
	175.29750005559 -171.44074046133 -352.93247545323 
	175.298023251218 -171.438131405393 -352.946455404447 
	175.298513068054 -171.435679963603 -352.958360365321 
	175.299546339842 -171.430493330783 -352.98206765042 
	175.301067058833 -171.422821516813 -353.01340379302 
	175.303753526454 -171.409080248298 -353.059601210877 
	175.306822173193 -171.393123775516 -353.104999774748 
	175.310249981393 -171.374954170008 -353.149601731834 
	175.312759245324 -171.361356228378 -353.178803017283 
	175.31471936991 -171.350593204123 -353.200501657836 
	175.315718974197 -171.345070481256 -353.211300373371 
	175.316746775438 -171.339333859641 -353.222022528419 
	175.317265281273 -171.3364296914 -353.227370779593 
	175.31743893372 -171.335455379912 -353.229151895267 
	175.317787388219 -171.333496849544 -353.232706081831 
	175.31936082553 -171.324637647028 -353.248665993958 
	175.322422698376 -171.307127498098 -353.278237958738 
	175.326935808137 -171.280487196971 -353.318568951165 
	175.331605242732 -171.251939601976 -353.357495612318 
	175.334799904481 -171.231635299045 -353.382512400423 
	175.337218091423 -171.215925862372 -353.400922717516 
	175.338027851078 -171.210609143651 -353.407000749885 
	175.339653343368 -171.199814094953 -353.419038680391 
	175.340469145594 -171.194335293452 -353.424999079627 
	175.34292294176 -171.177657123795 -353.442698741574 
	0.000102841161332354 
	cone 170.472440944882 -170.472440944882 -352.755905511811 1 0 0 0 0 -0.984251968503937 1 0 1 0 
	cone 170.472440944882 -170.472440944882 -372.44094488189 0 0 1 4.92125984251969 0 0 1 0 1 0 
	nullbs 
	nullbs 
	} #
loop $-1 $52 $53 $40 #
face $-1 $-1 $27 $2 $-1 $54 forward single #
point $-1 190.144971415781 -171.17409604043 -353.446146096242 #
face $-1 $40 $55 $2 $-1 $56 forward single #
loop $-1 $57 $58 $30 #
plane-surface $-1 170.472440944882 -170.472440944882 -192.51968503937 0 0 1 1 0 0 0 #
loop $-1 $-1 $47 $19 #
coedge $-1 $46 $46 $58 $59 0 $31 $-1 #
coedge $-1 $47 $47 $33 $48 1 $45 $-1 #
edge $-1 $60 $60 $33 $61 0 #
coedge $-1 $49 $49 $62 $63 0 $34 $-1 #
point $-1 165.551181102362 -170.472440944882 -346.850393700787 #
point $-1 175.341287077649 -171.188775903566 -353.430898966943 #
loop $-1 $-1 $64 $40 #
coedge $-1 $53 $53 $65 $66 0 $39 $-1 #
cone-surface $-1 170.472440944882 -170.472440944882 -372.44094488189 0 0 1 19.6850393700787 0 0 1 0 1 0 #
loop $-1 $67 $62 $42 #
plane-surface $-1 170.472440944882 -170.472440944882 -372.44094488189 0 0 -1 -1 0 0 0 #
loop $-1 $-1 $65 $30 #
coedge $-1 $58 $58 $46 $59 1 $43 $-1 #
edge $-1 $68 $68 $46 $69 0 #
vertex $-1 $48 $70 #
ellipse-curve $-1 170.472440944882 -170.472440944882 -196.456692913386 0 0 1 14.7637795275591 0 0 1 #
coedge $-1 $62 $62 $49 $63 1 $55 $-1 #
edge $-1 $71 $71 $49 $72 0 #
coedge $-1 $64 $64 $73 $74 0 $52 $-1 #
coedge $-1 $65 $65 $53 $66 1 $57 $-1 #
edge $-1 $75 $75 $65 $76 0 #
loop $-1 $-1 $73 $42 #
vertex $-1 $59 $77 #
ellipse-curve $-1 170.472440944882 -170.472440944882 -192.51968503937 0 0 1 14.7637795275591 0 0 1 #
point $-1 185.236220472441 -170.472440944882 -196.456692913386 #
vertex $-1 $63 $78 #
ellipse-curve $-1 170.472440944882 -170.472440944882 -372.44094488189 0 0 -1 -4.92125984251969 0 0 1 #
coedge $-1 $73 $73 $64 $74 1 $67 $-1 #
edge $-1 $79 $79 $73 $80 0 #
vertex $-1 $66 $81 #
ellipse-curve $-1 170.472440944882 -170.472440944882 -192.51968503937 0 0 -1 -19.6850393700787 0 0 1 #
point $-1 185.236220472441 -170.472440944882 -192.51968503937 #
point $-1 165.551181102362 -170.472440944882 -372.44094488189 #
vertex $-1 $74 $82 #
ellipse-curve $-1 170.472440944882 -170.472440944882 -372.44094488189 0 0 1 19.6850393700787 0 0 1 #
point $-1 150.787401574803 -170.472440944882 -192.51968503937 #
point $-1 190.157480314961 -170.472440944882 -372.44094488189 #
