600 0 1 0           
108 GICL ACIS Healer - Source: /gicl/data5/repository/Parasolid/NIST/Pete_Brown/support2/support2.step.sat - 6 0 18 ACIS 6.0.3 Solaris 24 Sun Apr 14 00:23:08 2002 
1 9.999999999999999547e-07 1.000000000000000036e-10 
body $-1 $1 $-1 $-1 #
lump $-1 $-1 $2 $0 #
shell $-1 $-1 $-1 $3 $-1 $1 #
face $-1 $4 $5 $2 $-1 $6 reversed single #
face $-1 $7 $8 $2 $-1 $9 reversed single #
loop $-1 $10 $11 $3 #
cone-surface $-1 4330.000000000002728 -4330.000000000002728 -8960 1 0 0 0 0 -25 1 I I 0 1 25 forward I I I I #
face $-1 $12 $13 $2 $-1 $14 reversed single #
loop $-1 $-1 $15 $4 #
plane-surface $-1 4330.000000000002728 -4330.000000000002728 -8809.999999999989086 0 0 1 25.39999999999999858 0 0 forward_v I I I I #
loop $-1 $-1 $16 $3 #
coedge $-1 $11 $11 $17 $18 forward $5 $-1 #
face $-1 $19 $20 $2 $-1 $21 reversed single #
loop $-1 $22 $23 $7 #
cone-surface $-1 4330.000000000002728 -4330.000000000002728 -9460.000000000005457 0 0 1 125.0000000000001137 0 0 1 I I 0 1 125.0000000000001137 forward I I I I #
coedge $-1 $15 $15 $24 $25 forward $8 $-1 #
coedge $-1 $16 $16 $23 $26 reversed $10 $-1 #
coedge $-1 $17 $17 $11 $18 reversed $27 $-1 #
edge $-1 $28 -207.4195131568775423 $28 -56.71788357939239944 $11 $29 reversed 7 unknown #
face $-1 $30 $31 $2 $-1 $32 reversed single #
loop $-1 $-1 $33 $12 #
plane-surface $-1 4330.000000000002728 -4330.000000000002728 -4990.000000000004547 0 0 -1 -25.39999999999999858 0 0 forward_v I I I I #
loop $-1 $34 $24 $7 #
coedge $-1 $23 $23 $16 $26 forward $13 $-1 #
coedge $-1 $24 $24 $15 $25 reversed $22 $-1 #
edge $-1 $35 -3.141592653589793116 $35 3.141592653589793116 $15 $36 reversed 7 unknown #
edge $-1 $37 -208.5235409036171177 $37 -57.40967247273950846 $16 $38 reversed 7 unknown #
loop $-1 $39 $17 $40 #
vertex $-1 $18 $41 #
intcurve-curve $-1 forward { surfintcur full nubs 3 periodic 65 
	0 3 2.354713210858657479 2 4.709426421717314959 2 7.064139632575972882 2 9.418852843434629918 2 
	11.77356605429328695 2 14.12827926515194576 2 16.48299247601060102 2 18.83770568686925984 2 21.1924184003070124 2 
	23.54713111374476142 2 25.90184382718251399 2 28.25655654062026656 2 30.61126925405801913 2 32.9659819674957717 2 
	35.32069468093352782 2 37.67540739437127684 2 40.03012010780902585 2 42.38483282124678198 2 44.7395455346845381 2 
	47.09425824812228711 2 49.44897096156003613 2 51.80368367499779225 2 54.15839638843554837 2 56.51310910187329739 2 
	58.86782231273195976 2 61.22253552359061501 2 63.57724873444927027 2 65.93196194530793264 2 68.28667515616658079 2 
	70.64138836702524316 2 72.99610157788390552 2 75.35081478874255367 2 77.70552799960120183 2 80.06024121045986419 2 
	82.41495442131852656 2 84.76966763217717471 2 87.12438084303583707 2 89.47909405389449944 2 91.83380726475314759 2 
	94.18852047561180996 2 96.54323318904957318 2 98.8979459024873222 2 101.2526586159250712 2 103.6073713293628202 2 
	105.9620840428005693 2 108.3167967562383183 2 110.6715094696760673 2 113.0262221831138305 2 115.3809348965515937 2 
	117.7356476099893428 2 120.0903603234270918 2 122.4450730368648408 2 124.7997857503025898 2 127.154498463740353 2 
	129.5092111771781163 2 131.8639238906158653 2 134.2186371014745419 2 136.57335031233319 2 138.9280635231918382 2 
	141.2827767340505147 2 143.6374899449091629 2 145.992203155767811 2 148.3469163666264876 2 150.7016295774851358 3 
	4829.37460888595615 -4305.000000000002728 -8960 
	4829.37460888595615 -4305.000000000002728 -8960.784904403619294 
	4829.376471640349337 -4305.03711689685224 -8961.583235713009344 
	4829.384156976277154 -4305.191337765230855 -8963.19099455741889 
	4829.389979635039708 -4305.308436123290448 -8964.000422630524554 
	4829.405522737457432 -4305.6248293157023 -8965.614958772166574 
	4829.415243331564852 -4305.824135879711321 -8966.420150519412346 
	4829.438237400376238 -4306.303909598944301 -8968.011618959959378 
	4829.451509585145686 -4306.584374611460589 -8968.797896317853883 
	4829.481006721516678 -4307.222250698600874 -8970.337728436894395 
	4829.497243271960542 -4307.57994748294459 -8971.091973080609023 
	4829.531908048144032 -4308.366053690162516 -8972.556392346194116 
	4829.550334057908913 -4308.794465051905718 -8973.266565979727602 
	4829.588450943429052 -4309.712302896903566 -8974.63167220739706 
	4829.608141311954569 -4310.201780008799687 -8975.286671982090411 
	4829.647803891509284 -4311.229372775605043 -8976.532253588387903 
	4829.667773537637004 -4311.767492820575171 -8977.122831879900332 
	4829.707031023554009 -4312.877168002895814 -8978.232507062220975 
	4829.726998315987657 -4313.467746206095399 -8978.770627040867112 
	4829.766651460120556 -4314.71332770835761 -8979.798219749798591 
	4829.786334747723231 -4315.368327467549534 -8980.287696869823776 
	4829.824433637535549 -4316.73343373075113 -8981.205534768154394 
	4829.842848739812325 -4317.443607416204031 -8981.633946175170422 
	4829.877489553309715 -4318.908026824330591 -8982.420052473149553 
	4829.893713061828748 -4319.662271561341186 -8982.777749297352784 
	4829.923184110635702 -4321.202103849040213 -8983.415625460993397 
	4829.936443251182936 -4321.988381292395388 -8983.696090488610935 
	4829.95941334987765 -4323.579849861120238 -8984.175864223532699 
	4829.969123031382878 -4324.385041652600194 -8984.375170782386704 
	4829.984648128672234 -4325.999577814622171 -8984.691563949098054 
	4829.990463702219131 -4326.809005862604863 -8984.808662286479375 
	4829.998139598848866 -4328.416764567351493 -8984.96288311862736 
	4830.000000000001819 -4329.215095762190685 -8985 
	4830.000000000001819 -4330.784904237814771 -8985 
	4829.998139598848866 -4331.583235432653964 -8984.96288311862736 
	4829.990463702219131 -4333.190994137400594 -8984.808662286479375 
	4829.984648128672234 -4334.000422185383286 -8984.691563949098054 
	4829.969123031382878 -4335.614958347405263 -8984.375170782386704 
	4829.95941334987765 -4336.420150138885219 -8984.175864223532699 
	4829.936443251182936 -4338.011618707610069 -8983.696090488610935 
	4829.923184110635702 -4338.797896150965244 -8983.415625460993397 
	4829.893713061828748 -4340.337728438664271 -8982.777749297352784 
	4829.877489553309715 -4341.091973175674866 -8982.420052473149553 
	4829.842848739812325 -4342.556392583801426 -8981.633946175170422 
	4829.824433637535549 -4343.266566269254326 -8981.205534768154394 
	4829.786334747723231 -4344.631672532455923 -8980.287696869823776 
	4829.766651460120556 -4345.286672291647847 -8979.798219749798591 
	4829.726998315987657 -4346.532253793910058 -8978.770627040867112 
	4829.707031023554009 -4347.122831997109643 -8978.232507062220975 
	4829.667773537636094 -4348.232507179430286 -8977.122831879900332 
	4829.647803891508374 -4348.770627224400414 -8976.532253588387903 
	4829.608141311953659 -4349.798219991205769 -8975.286671982090411 
	4829.588450943429052 -4350.287697103101891 -8974.63167220739706 
	4829.550334057908913 -4351.205534948099739 -8973.266565979727602 
	4829.531908048144032 -4351.633946309842941 -8972.556392346194116 
	4829.497243271960542 -4352.420052517060867 -8971.091973080609023 
	4829.481006721516678 -4352.777749301404583 -8970.337728436894395 
	4829.451509585146596 -4353.415625388544868 -8968.797896317853883 
	4829.438237400376238 -4353.696090401061156 -8968.011618959959378 
	4829.415243331564852 -4354.175864120294136 -8966.420150519412346 
	4829.405522737457432 -4354.375170684304067 -8965.614958772166574 
	4829.389979635039708 -4354.691563876715009 -8964.000422630524554 
	4829.384156976277154 -4354.808662234774602 -8963.19099455741889 
	4829.376471640349337 -4354.962883103153217 -8961.583235713009344 
	4829.37460888595615 -4355.000000000002728 -8960.784904403619294 
	4829.374608885957059 -4355.000000000003638 -8959.215095596380706 
	4829.376471640349337 -4354.962883103153217 -8958.416764286990656 
	4829.384156976277154 -4354.808662234774602 -8956.80900544258111 
	4829.389979635039708 -4354.691563876715009 -8955.999577369475446 
	4829.405522737457432 -4354.375170684303157 -8954.385041227833426 
	4829.415243331564852 -4354.175864120294136 -8953.579849480587654 
	4829.438237400376238 -4353.696090401061156 -8951.988381040040622 
	4829.451509585145686 -4353.415625388544868 -8951.202103682146117 
	4829.481006721516678 -4352.777749301404583 -8949.662271563105605 
	4829.497243271960542 -4352.420052517060867 -8948.908026919390977 
	4829.531908048144032 -4351.633946309842941 -8947.443607653805884 
	4829.550334057908913 -4351.205534948099739 -8946.733434020272398 
	4829.588450943429052 -4350.287697103102801 -8945.36832779260294 
	4829.608141311953659 -4349.798219991206679 -8944.713328017911408 
	4829.647803891508374 -4348.770627224401323 -8943.467746411612097 
	4829.667773537637913 -4348.232507179431195 -8942.877168120099668 
	4829.707031023554009 -4347.122831997109643 -8941.767492937779025 
	4829.726998315987657 -4346.532253793911877 -8941.229372959131069 
	4829.766651460120556 -4345.286672291649666 -8940.20178025019959 
	4829.786334747723231 -4344.631672532455923 -8939.712303130176224 
	4829.824433637535549 -4343.266566269254326 -8938.794465231845606 
	4829.842848739812325 -4342.556392583801426 -8938.366053824829578 
	4829.877489553309715 -4341.091973175674866 -8937.579947526850447 
	4829.893713061828748 -4340.337728438664271 -8937.222250702647216 
	4829.923184110635702 -4338.797896150965244 -8936.584374539006603 
	4829.936443251182936 -4338.011618707610069 -8936.303909511389065 
	4829.95941334987765 -4336.420150138885219 -8935.824135776467301 
	4829.969123031382878 -4335.614958347405263 -8935.624829217613296 
	4829.984648128673143 -4334.000422185383286 -8935.308436050901946 
	4829.990463702219131 -4333.190994137400594 -8935.191337713520625 
	4829.998139598848866 -4331.583235432654874 -8935.03711688137264 
	4830.000000000001819 -4330.784904237815681 -8935 
	4830.000000000001819 -4329.215095762190685 -8935 
	4829.998139598848866 -4328.416764567353312 -8935.03711688137264 
	4829.990463702219131 -4326.809005862606682 -8935.191337713520625 
	4829.984648128672234 -4325.999577814622171 -8935.308436050901946 
	4829.969123031382878 -4324.385041652600194 -8935.624829217613296 
	4829.95941334987765 -4323.579849861120238 -8935.824135776467301 
	4829.936443251182936 -4321.988381292395388 -8936.303909511389065 
	4829.923184110635702 -4321.202103849040213 -8936.584374539006603 
	4829.893713061827839 -4319.662271561342095 -8937.222250702647216 
	4829.877489553309715 -4318.9080268243315 -8937.579947526850447 
	4829.842848739812325 -4317.443607416204031 -8938.366053824831397 
	4829.824433637535549 -4316.73343373075113 -8938.794465231845606 
	4829.786334747723231 -4315.368327467549534 -8939.712303130176224 
	4829.766651460120556 -4314.71332770835761 -8940.201780250201409 
	4829.726998315987657 -4313.467746206095399 -8941.229372959132888 
	4829.707031023554009 -4312.877168002895814 -8941.767492937779025 
	4829.667773537636094 -4311.767492820575171 -8942.877168120099668 
	4829.647803891508374 -4311.229372775605043 -8943.467746411612097 
	4829.608141311953659 -4310.201780008799687 -8944.713328017909589 
	4829.588450943429052 -4309.712302896903566 -8945.36832779260294 
	4829.550334057908913 -4308.794465051905718 -8946.733434020272398 
	4829.531908048144032 -4308.366053690162516 -8947.443607653805884 
	4829.497243271960542 -4307.57994748294459 -8948.908026919390977 
	4829.481006721516678 -4307.222250698600874 -8949.662271563105605 
	4829.451509585145686 -4306.584374611461499 -8951.202103682146117 
	4829.438237400376238 -4306.303909598944301 -8951.988381040040622 
	4829.415243331564852 -4305.824135879711321 -8953.579849480587654 
	4829.405522737457432 -4305.6248293157023 -8954.385041227833426 
	4829.389979635039708 -4305.308436123290448 -8955.999577369475446 
	4829.384156976277154 -4305.191337765230855 -8956.80900544258111 
	4829.376471640349337 -4305.03711689685224 -8958.416764286990656 
	4829.374608885957059 -4305.000000000003638 -8959.215095596380706 
	4829.37460888595615 -4305.000000000002728 -8960 
	0.0001163661258792998666 
	cone 4330.000000000002728 -4330.000000000002728 -8960 1 0 0 0 0 -25 1 I I 0 1 25 forward I I I I 
	cone 4330.000000000002728 -4330.000000000002728 -9460.000000000005457 0 0 1 499.9999999999989768 0 0 1 I I 0 1 499.9999999999989768 forward I I I I 
	nullbs 
	nullbs 
	I I 
	0 
	0 
	0 
	} I I #
face $-1 $42 $43 $2 $-1 $44 forward single #
loop $-1 $45 $46 $19 #
cone-surface $-1 4330.000000000002728 -4330.000000000002728 -4990.000000000004547 0 0 1 375.0000000000011369 0 0 1 I I 0 1 375.0000000000011369 forward I I I I #
coedge $-1 $33 $33 $47 $48 forward $20 $-1 #
loop $-1 $-1 $49 $7 #
vertex $-1 $25 $50 #
ellipse-curve $-1 4330.000000000002728 -4330.000000000002728 -8809.999999999989086 0 0 1 125.0000000000001137 0 0 1 I I #
vertex $-1 $26 $51 #
intcurve-curve $-1 forward { surfintcur full nubs 3 periodic 65 
	0 3 2.361220349313614797 2 4.722440698627229594 2 7.083661047940844391 2 9.444881397254459188 2 
	11.80610174656807487 2 14.16732209588168878 2 16.52854244519530269 2 18.88976279450891838 2 21.25085083366023042 2 
	23.61193887281153891 2 25.97302691196284741 2 28.33411495111415945 2 30.6952029902654715 2 33.05629102941678354 2 
	35.41737906856809559 2 37.77846710771940053 2 40.13955514687070547 2 42.50064318602201752 2 44.86173122517332956 2 
	47.22281926432464161 2 49.58390730347595365 2 51.9449953426272657 2 54.30608338177857775 2 56.66717142092988269 2 
	59.02839177024350192 2 61.38961211955711406 2 63.75083246887072619 2 66.11205281818433832 2 68.47327316749795045 2 
	70.83449351681156259 2 73.19571386612517472 2 75.55693421543880106 2 77.9181545647524274 2 80.27937491406603954 2 
	82.64059526337965167 2 85.0018156126932638 2 87.36303596200687593 2 89.72425631132048807 2 92.0854766606341002 2 
	94.44669700994771233 2 96.80778504909902438 2 99.16887308825033642 2 101.5299611274016485 2 103.8910491665529605 2 
	106.2521372057042726 2 108.6132252448555846 2 110.9743132840068824 2 113.3354013231581945 2 115.6964893623095065 2 
	118.0575774014608044 2 120.4186654406121164 2 122.7797534797634285 2 125.1408415189147405 2 127.5019295580660526 2 
	129.8630175972173788 2 132.2241056363686766 2 134.5853259856822888 2 136.9465463349959009 2 139.307766684309513 2 
	141.6689870336231252 2 144.0302073829367373 2 146.3914277322503494 2 148.7526480815639616 2 151.1138684308776021 3 
	4452.474487139162193 -4305.000000000002728 -8960 
	4452.474487139162193 -4305.000000000002728 -8960.787073449770105 
	4452.482125144636484 -4305.03732255797695 -8961.587283587761704 
	4452.513590210216535 -4305.192209715007266 -8963.198167512555301 
	4452.537417384809487 -4305.309768453867946 -8964.00884186057192 
	4452.600941468187557 -4305.62715970120189 -8965.625211343489354 
	4452.64063871534745 -4305.827004445078273 -8966.430995481547143 
	4452.734418326904233 -4306.307753661524657 -8968.023021900697131 
	4452.788494858457852 -4306.58865551816416 -8968.809265315310768 
	4452.908511994352011 -4307.227139134414756 -8970.34847923948837 
	4452.974500397977863 -4307.585011915863106 -8971.102154244266785 
	4453.115193457423629 -4308.371117021783903 -8972.565068276388047 
	4453.189888836365753 -4308.79935126998771 -8973.2743071621735 
	4453.344207609202385 -4309.716443425227226 -8974.63735187540442 
	4453.423828799108378 -4310.205351513411188 -8975.291224501474062 
	4453.584021475555346 -4311.231428928423156 -8976.53452132338316 
	4453.664582849607541 -4311.76860346405374 -8977.12394252337981 
	4453.822786133132468 -4312.876026448722769 -8978.23136550804702 
	4453.903190436411023 -4313.465424258645726 -8978.768522462003602 
	4454.06276128803438 -4314.708693422199758 -8979.794584448711248 
	4454.141917762379308 -4315.362561833222571 -8980.283494613642688 
	4454.295056468008625 -4316.725615667117381 -8981.200600709113132 
	4454.369036958882134 -4317.434868038601962 -8981.628846827405141 
	4454.508158283171724 -4318.897819303406322 -8982.414975799025342 
	4454.573290678144986 -4319.651518049269725 -8982.772860420096549 
	4454.691593271596503 -4321.190777768744738 -8983.411361674418004 
	4454.744811359221785 -4321.977043645073536 -8983.692269136934556 
	4454.837011234639249 -4323.5691045939584 -8984.17302276933151 
	4454.875988073122244 -4324.374900766097198 -8984.37286624700937 
	4454.938321866490696 -4325.991276036564159 -8984.69025076161779 
	4454.961679653487408 -4326.801943875018878 -8984.807804030640909 
	4454.992518624466356 -4328.412790904764734 -8984.96268156847691 
	4455.000000000002728 -4329.212970653619777 -8985 
	4455.000000000002728 -4330.78702934638568 -8985 
	4454.992518624466356 -4331.587209095240723 -8984.96268156847691 
	4454.961679653487408 -4333.198056124986579 -8984.807804030640909 
	4454.938321866490696 -4334.008723963441298 -8984.69025076161779 
	4454.875988073122244 -4335.625099233908259 -8984.37286624700937 
	4454.837011234639249 -4336.430895406047057 -8984.17302276933151 
	4454.744811359221785 -4338.022956354931921 -8983.692269136934556 
	4454.691593271596503 -4338.809222231260719 -8983.411361674418004 
	4454.573290678144986 -4340.348481950735732 -8982.772860420096549 
	4454.508158283171724 -4341.102180696599135 -8982.414975799025342 
	4454.369036958882134 -4342.565131961403495 -8981.628846827405141 
	4454.295056468008625 -4343.274384332888076 -8981.200600709113132 
	4454.141917762379308 -4344.637438166782886 -8980.283494613642688 
	4454.06276128803438 -4345.291306577805699 -8979.794584448711248 
	4453.903190436411023 -4346.534575741359731 -8978.768522462003602 
	4453.822786133132468 -4347.123973551282688 -8978.23136550804702 
	4453.664582849607541 -4348.231396535951717 -8977.12394252337981 
	4453.584021475555346 -4348.768571071582301 -8976.53452132338316 
	4453.423828799108378 -4349.794648486594269 -8975.291224501474062 
	4453.344207609202385 -4350.283556574778231 -8974.63735187540442 
	4453.189888836365753 -4351.200648730017747 -8973.2743071621735 
	4453.115193457423629 -4351.628882978221554 -8972.565068276388047 
	4452.974500397977863 -4352.414988084142351 -8971.102154244266785 
	4452.908511994352011 -4352.772860865590701 -8970.34847923948837 
	4452.788494858457852 -4353.411344481841297 -8968.809265315310768 
	4452.734418326904233 -4353.6922463384808 -8968.023021900697131 
	4452.64063871534745 -4354.172995554927184 -8966.430995481547143 
	4452.600941468187557 -4354.372840298803567 -8965.625211343489354 
	4452.537417384809487 -4354.690231546137511 -8964.00884186057192 
	4452.513590210216535 -4354.807790284998191 -8963.198167512555301 
	4452.482125144636484 -4354.962677442028507 -8961.587283587761704 
	4452.474487139162193 -4355.000000000003638 -8960.787073449770105 
	4452.474487139162193 -4355.000000000002728 -8959.212926550229895 
	4452.482125144636484 -4354.962677442028507 -8958.412716412238296 
	4452.513590210216535 -4354.807790284998191 -8956.801832487444699 
	4452.537417384809487 -4354.690231546137511 -8955.99115813942808 
	4452.600941468187557 -4354.372840298803567 -8954.374788656510646 
	4452.64063871534745 -4354.172995554927184 -8953.569004518452857 
	4452.734418326904233 -4353.6922463384808 -8951.976978099302869 
	4452.788494858457852 -4353.411344481841297 -8951.190734684689232 
	4452.908511994352011 -4352.772860865590701 -8949.65152076051163 
	4452.974500397977863 -4352.414988084142351 -8948.897845755733215 
	4453.115193457423629 -4351.628882978221554 -8947.434931723611953 
	4453.189888836365753 -4351.200648730017747 -8946.7256928378265 
	4453.344207609202385 -4350.283556574778231 -8945.36264812459558 
	4453.423828799108378 -4349.794648486594269 -8944.708775498525938 
	4453.584021475555346 -4348.768571071582301 -8943.46547867661684 
	4453.664582849607541 -4348.231396535951717 -8942.87605747662019 
	4453.822786133132468 -4347.123973551282688 -8941.76863449195298 
	4453.903190436411023 -4346.534575741359731 -8941.231477537996398 
	4454.06276128803438 -4345.291306577805699 -8940.205415551288752 
	4454.141917762379308 -4344.637438166782886 -8939.716505386357312 
	4454.295056468008625 -4343.274384332888076 -8938.799399290886868 
	4454.369036958882134 -4342.565131961403495 -8938.371153172594859 
	4454.508158283171724 -4341.102180696599135 -8937.585024200974658 
	4454.573290678144986 -4340.348481950735732 -8937.227139579903451 
	4454.691593271596503 -4338.809222231260719 -8936.588638325581996 
	4454.744811359221785 -4338.022956354931921 -8936.307730863065444 
	4454.837011234639249 -4336.430895406047057 -8935.82697723066849 
	4454.875988073122244 -4335.625099233908259 -8935.62713375299063 
	4454.938321866490696 -4334.008723963441298 -8935.30974923838221 
	4454.961679653487408 -4333.198056124987488 -8935.192195969359091 
	4454.992518624466356 -4331.587209095241633 -8935.03731843152309 
	4455.000000000002728 -4330.787029346386589 -8935 
	4455.000000000002728 -4329.212970653619777 -8935 
	4454.992518624466356 -4328.412790904766553 -8935.03731843152309 
	4454.961679653487408 -4326.801943875020697 -8935.192195969359091 
	4454.938321866490696 -4325.991276036564159 -8935.30974923838221 
	4454.875988073122244 -4324.374900766097198 -8935.62713375299063 
	4454.837011234639249 -4323.5691045939584 -8935.82697723066849 
	4454.744811359221785 -4321.977043645073536 -8936.307730863065444 
	4454.691593271596503 -4321.190777768744738 -8936.588638325581996 
	4454.573290678144986 -4319.651518049269725 -8937.227139579903451 
	4454.508158283171724 -4318.897819303406322 -8937.585024200974658 
	4454.369036958882134 -4317.434868038601962 -8938.371153172594859 
	4454.295056468008625 -4316.725615667117381 -8938.799399290886868 
	4454.141917762379308 -4315.362561833222571 -8939.716505386357312 
	4454.06276128803438 -4314.708693422199758 -8940.205415551288752 
	4453.903190436411023 -4313.465424258645726 -8941.231477537996398 
	4453.822786133132468 -4312.876026448722769 -8941.76863449195298 
	4453.664582849607541 -4311.76860346405374 -8942.87605747662019 
	4453.584021475555346 -4311.231428928423156 -8943.46547867661684 
	4453.423828799108378 -4310.205351513411188 -8944.708775498525938 
	4453.344207609202385 -4309.716443425227226 -8945.36264812459558 
	4453.189888836365753 -4308.79935126998771 -8946.7256928378265 
	4453.115193457423629 -4308.371117021783903 -8947.434931723611953 
	4452.974500397977863 -4307.585011915863106 -8948.897845755733215 
	4452.908511994352011 -4307.227139134414756 -8949.65152076051163 
	4452.788494858457852 -4306.58865551816416 -8951.190734684689232 
	4452.734418326904233 -4306.307753661524657 -8951.976978099302869 
	4452.64063871534745 -4305.827004445078273 -8953.569004518452857 
	4452.600941468188466 -4305.627159701200981 -8954.374788656510646 
	4452.537417384810396 -4305.309768453867036 -8955.99115813942808 
	4452.513590210216535 -4305.192209715007266 -8956.801832487444699 
	4452.482125144636484 -4305.03732255797695 -8958.412716412238296 
	4452.474487139162193 -4305.000000000003638 -8959.212926550229895 
	4452.474487139162193 -4305.000000000002728 -8960 
	0.0001181229190421587057 
	cone 4330.000000000002728 -4330.000000000002728 -8960 1 0 0 0 0 -25 1 I I 0 1 25 forward I I I I 
	cone 4330.000000000002728 -4330.000000000002728 -9460.000000000005457 0 0 1 125.0000000000001137 0 0 1 I I 0 1 125.0000000000001137 forward I I I I 
	nullbs 
	nullbs 
	I I 
	0 
	0 
	0 
	} I I #
loop $-1 $52 $53 $40 #
face $-1 $-1 $27 $2 $-1 $54 forward single #
point $-1 4829.682273960836937 -4347.822039426921037 -8977.532110844545969 #
face $-1 $40 $55 $2 $-1 $56 forward single #
loop $-1 $57 $58 $30 #
plane-surface $-1 4330.000000000002728 -4330.000000000002728 -4889.999999999997272 0 0 1 25.39999999999999858 0 0 forward_v I I I I #
loop $-1 $-1 $47 $19 #
coedge $-1 $46 $46 $58 $59 forward $31 $-1 #
coedge $-1 $47 $47 $33 $48 reversed $45 $-1 #
edge $-1 $60 -6.283185307179586232 $60 -0 $33 $61 reversed 7 unknown #
coedge $-1 $49 $49 $62 $63 forward $34 $-1 #
point $-1 4204.999999999994543 -4330.000000000002728 -8809.999999999989086 #
point $-1 4453.668691772284546 -4348.194907950576635 -8977.144833760352412 #
loop $-1 $-1 $64 $40 #
coedge $-1 $53 $53 $65 $66 forward $39 $-1 #
cone-surface $-1 4330.000000000002728 -4330.000000000002728 -9460.000000000005457 0 0 1 499.9999999999989768 0 0 1 I I 0 1 499.9999999999989768 forward I I I I #
loop $-1 $67 $62 $42 #
plane-surface $-1 4330.000000000002728 -4330.000000000002728 -9460.000000000005457 0 0 -1 -25.39999999999999858 0 0 forward_v I I I I #
loop $-1 $-1 $65 $30 #
coedge $-1 $58 $58 $46 $59 reversed $43 $-1 #
edge $-1 $68 -6.283185307179586232 $68 -0 $46 $69 reversed 7 unknown #
vertex $-1 $48 $70 #
ellipse-curve $-1 4330.000000000002728 -4330.000000000002728 -4990.000000000004547 0 0 -1 375.0000000000011369 0 0 1 I I #
coedge $-1 $62 $62 $49 $63 reversed $55 $-1 #
edge $-1 $71 -3.141592653589793116 $71 3.141592653589793116 $49 $72 reversed 7 unknown #
coedge $-1 $64 $64 $73 $74 forward $52 $-1 #
coedge $-1 $65 $65 $53 $66 reversed $57 $-1 #
edge $-1 $75 -3.141592653589793116 $75 3.141592653589793116 $65 $76 reversed 7 unknown #
loop $-1 $-1 $73 $42 #
vertex $-1 $59 $77 #
ellipse-curve $-1 4330.000000000002728 -4330.000000000002728 -4889.999999999997272 -0 -0 -1 375.0000000000011369 0 0 1 I I #
point $-1 4705.000000000000909 -4330.000000000002728 -4990.000000000004547 #
vertex $-1 $63 $78 #
ellipse-curve $-1 4330.000000000002728 -4330.000000000002728 -9460.000000000005457 -0 -0 1 125.0000000000001137 0 0 1 I I #
coedge $-1 $73 $73 $64 $74 reversed $67 $-1 #
edge $-1 $79 -6.283185307179586232 $79 -0 $73 $80 reversed 7 unknown #
vertex $-1 $66 $81 #
ellipse-curve $-1 4330.000000000002728 -4330.000000000002728 -4889.999999999997272 0 0 1 499.9999999999989768 0 0 1 I I #
point $-1 4705.000000000000909 -4330.000000000002728 -4889.999999999997272 #
point $-1 4204.999999999994543 -4330.000000000002728 -9460.000000000005457 #
vertex $-1 $74 $82 #
ellipse-curve $-1 4330.000000000002728 -4330.000000000002728 -9460.000000000005457 0 0 -1 499.9999999999989768 0 0 1 I I #
point $-1 3829.999999999995907 -4330.000000000002728 -4889.999999999997272 #
point $-1 4830.000000000009095 -4330.000000000002728 -9460.000000000005457 #
End-of-ACIS-data 