105 1262 1 0                            
body $-1 $1 $-1 $2 #
lump $-1 $-1 $3 $0 #
transform $-1 1 0 0 0 1 0 0 0 1 0 0 0 1 0 0 0 #
shell $-1 $-1 $-1 $4 $1 #
face $-1 $5 $6 $3 $-1 $7 forward single #
face $-1 $8 $9 $3 $-1 $10 reversed single #
loop $-1 $-1 $11 $4 #
plane-surface $-1 3.89004774364965 9.22591613619625 -3.5 -0.664463024388675 0.241844762647976 0.707106781186547 0.728739444818683 0 0.684791078771736 0 #
face $-1 $12 $13 $3 $-1 $14 forward single #
loop $-1 $-1 $15 $5 #
plane-surface $-1 5.29958667482851 8.71288592120774 0 0.939692620785908 -0.342020143325669 0 0 0 -1 0 #
coedge $-1 $16 $17 $18 $19 0 $6 $-1 #
face $-1 $20 $21 $3 $-1 $22 reversed single #
loop $-1 $-1 $23 $8 #
plane-surface $-1 15.3408203581821 17.2962201286288 -3.5 0.241844762647976 0.664463024388675 0.707106781186548 0.946188648339465 0 -0.323615577118185 0 #
coedge $-1 $24 $25 $26 $27 1 $9 $-1 #
coedge $-1 $26 $11 $28 $29 1 $6 $-1 #
coedge $-1 $11 $26 $30 $31 1 $6 $-1 #
coedge $-1 $32 $33 $11 $19 1 $34 $-1 #
edge $-1 $35 $36 $18 $37 0 #
face $-1 $38 $39 $3 $-1 $40 forward single #
loop $-1 $-1 $41 $12 #
plane-surface $-1 13.4182512120147 16.3997114124385 0 -0.342020143325669 -0.939692620785908 0 0 0 -1 0 #
coedge $-1 $30 $42 $32 $43 1 $13 $-1 #
coedge $-1 $44 $15 $45 $46 1 $9 $-1 #
coedge $-1 $15 $44 $47 $48 0 $9 $-1 #
coedge $-1 $17 $16 $15 $27 0 $6 $-1 #
edge $-1 $49 $50 $15 $51 0 #
coedge $-1 $52 $53 $16 $29 0 $39 $-1 #
edge $-1 $49 $36 $28 $54 0 #
coedge $-1 $55 $23 $17 $31 0 $13 $-1 #
edge $-1 $35 $50 $30 $56 0 #
coedge $-1 $57 $18 $23 $43 0 $34 $-1 #
coedge $-1 $18 $57 $52 $58 0 $34 $-1 #
loop $-1 $59 $32 $60 #
vertex $-1 $43 $61 #
vertex $-1 $58 $62 #
straight-curve $-1 0.77040809584244 5.04048324725521 -5 -0.342020143325669 -0.939692620785908 0 #
face $-1 $63 $64 $3 $-1 $65 reversed single #
loop $-1 $-1 $52 $20 #
plane-surface $-1 7.47435706169172 -4.31671014944705 -3.5 -0.241844762647976 -0.664463024388675 0.707106781186548 0.946188648339465 0 0.323615577118185 0 #
coedge $-1 $47 $66 $55 $67 1 $21 $-1 #
coedge $-1 $23 $55 $68 $69 1 $13 $-1 #
edge $-1 $35 $70 $32 $71 0 #
coedge $-1 $25 $24 $72 $73 1 $9 $-1 #
coedge $-1 $74 $75 $24 $46 0 $64 $-1 #
edge $-1 $76 $49 $24 $77 0 #
coedge $-1 $78 $41 $25 $48 1 $21 $-1 #
edge $-1 $79 $50 $47 $80 0 #
vertex $-1 $46 $81 #
vertex $-1 $48 $82 #
straight-curve $-1 3.58948595820016 4.0144228172782 -2 0.342020143325669 0.939692620785908 0 #
coedge $-1 $83 $28 $33 $58 1 $39 $-1 #
coedge $-1 $28 $83 $74 $84 0 $39 $-1 #
straight-curve $-1 4.12238257876708 0.361886548904079 -0.249999999999999 -0.739997209383599 -0.345066365748899 -0.577350269189626 #
coedge $-1 $42 $30 $41 $67 0 $13 $-1 #
straight-curve $-1 9.76571494364062 15.8668147918716 -0.25 0.345066365748899 -0.739997209383599 0.577350269189626 #
coedge $-1 $33 $32 $85 $86 0 $34 $-1 #
edge $-1 $87 $36 $33 $88 0 #
loop $-1 $89 $90 $60 #
face $-1 $91 $34 $3 $-1 $92 forward single #
point $-1 6.92677067570449 21.9549504214016 -5 #
point $-1 -1.96575305076291 -2.47705771903206 -5 #
face $-1 $93 $94 $3 $-1 $95 forward single #
loop $-1 $-1 $74 $38 #
plane-surface $-1 6.57784834550136 -2.39414100327969 0 0.342020143325669 0.939692620785908 0 0 0 1 0 #
coedge $-1 $41 $78 $96 $97 0 $21 $-1 #
edge $-1 $50 $98 $41 $99 0 #
coedge $-1 $100 $85 $42 $69 0 $94 $-1 #
edge $-1 $70 $98 $68 $101 0 #
vertex $-1 $86 $102 #
straight-curve $-1 11.8601569348305 20.1593446689418 -5 0.939692620785908 -0.342020143325669 0 #
coedge $-1 $103 $104 $44 $73 0 $105 $-1 #
edge $-1 $79 $76 $44 $106 0 #
coedge $-1 $107 $45 $53 $84 1 $64 $-1 #
coedge $-1 $45 $107 $103 $108 1 $64 $-1 #
vertex $-1 $73 $109 #
straight-curve $-1 1.87938524157182 -0.68404028665134 0 0 0 -1 #
coedge $-1 $66 $47 $104 $110 1 $21 $-1 #
vertex $-1 $110 $111 #
straight-curve $-1 8.7197881080852 18.1098121290668 0 0 0 -1 #
point $-1 1.87938524157182 -0.68404028665134 -2 #
point $-1 8.7197881080852 18.1098121290668 -2 #
coedge $-1 $53 $52 $112 $113 1 $39 $-1 #
edge $-1 $114 $49 $74 $115 0 #
coedge $-1 $68 $112 $57 $86 1 $94 $-1 #
edge $-1 $70 $87 $57 $116 0 #
vertex $-1 $86 $117 #
straight-curve $-1 2.9676332083631 -4.27266347149182 -5 -0.939692620785908 0.342020143325669 0 #
loop $-1 $-1 $118 $60 #
coedge $-1 $119 $120 $121 $122 0 $59 $-1 #
face $-1 $123 $124 $3 $-1 $125 reversed single #
plane-surface $-1 0 0 -5 0 0 1 1 0 0 0 #
face $-1 $126 $127 $3 $-1 $128 reversed single #
loop $-1 $-1 $85 $63 #
plane-surface $-1 16.1060518138665 4.77965427296255 -3.5 0.664463024388675 -0.241844762647976 0.707106781186548 0.728739444818683 0 -0.684791078771736 0 #
coedge $-1 $129 $130 $66 $97 1 $127 $-1 #
edge $-1 $131 $98 $96 $132 0 #
vertex $-1 $97 $133 #
straight-curve $-1 10.1293270392641 17.5967819140783 -2 0.939692620785908 -0.342020143325669 0 #
coedge $-1 $112 $68 $130 $134 0 $94 $-1 #
straight-curve $-1 16.5145733608048 13.9425200989848 -0.750000000000001 -0.739997209383599 -0.345066365748899 0.577350269189626 #
point $-1 21.961852608279 16.4826281281908 -5 #
coedge $-1 $135 $72 $75 $108 0 $105 $-1 #
coedge $-1 $72 $135 $78 $110 0 $105 $-1 #
loop $-1 $-1 $135 $126 #
straight-curve $-1 5.29958667482851 8.71288592120774 10 -0.342020143325669 -0.939692620785908 0 #
coedge $-1 $75 $74 $136 $137 1 $64 $-1 #
edge $-1 $76 $138 $75 $139 0 #
point $-1 1.87938524157182 -0.68404028665134 10 #
edge $-1 $131 $79 $78 $140 0 #
point $-1 8.7197881080852 18.1098121290668 10 #
coedge $-1 $85 $100 $83 $113 0 $94 $-1 #
edge $-1 $114 $87 $112 $141 0 #
vertex $-1 $137 $142 #
straight-curve $-1 3.28892417275068 -1.19707050163984 -2 -0.939692620785908 0.342020143325669 0 #
straight-curve $-1 15.805490028417 -0.4318390459555 -5 -0.342020143325669 -0.939692620785908 0 #
point $-1 13.0693288818116 -7.94938001224277 -5 #
coedge $-1 $143 $144 $145 $146 1 $89 $-1 #
coedge $-1 $147 $90 $148 $149 1 $59 $-1 #
coedge $-1 $90 $147 $150 $151 1 $59 $-1 #
coedge $-1 $152 $153 $90 $122 1 $154 $-1 #
edge $-1 $155 $156 $90 $157 0 #
face $-1 $158 $159 $3 $-1 $160 forward single #
loop $-1 $-1 $161 $91 #
plane-surface $-1 75.992145832633 -13.5 -3.5 0 -0.707106781186548 -0.707106781186548 -1 0 0 0 #
face $-1 $162 $105 $3 $-1 $163 forward single #
loop $-1 $-1 $130 $93 #
plane-surface $-1 14.6965128826876 5.29268448795105 0 -0.939692620785908 0.342020143325669 0 0 0 1 0 #
coedge $-1 $136 $96 $135 $164 1 $127 $-1 #
coedge $-1 $96 $136 $100 $134 1 $127 $-1 #
vertex $-1 $164 $165 #
straight-curve $-1 18.1167143159443 14.6896106958101 0 0 0 -1 #
point $-1 18.1167143159443 14.6896106958101 -2 #
edge $-1 $98 $114 $130 $166 0 #
coedge $-1 $104 $103 $129 $164 0 $105 $-1 #
coedge $-1 $130 $129 $107 $137 0 $127 $-1 #
edge $-1 $138 $114 $136 $167 0 #
vertex $-1 $164 $168 #
straight-curve $-1 6.57784834550136 -2.39414100327969 10 0.939692620785908 -0.342020143325669 0 #
straight-curve $-1 13.4182512120147 16.3997114124385 10 -0.939692620785908 0.342020143325669 0 #
straight-curve $-1 10.5292208526056 -2.50210076476856 -0.75 0.345066365748899 -0.739997209383599 -0.577350269189626 #
point $-1 11.2763114494309 -4.10424171990803 -2 #
coedge $-1 $169 $118 $170 $171 0 $89 $-1 #
coedge $-1 $118 $172 $173 $174 0 $89 $-1 #
coedge $-1 $175 $176 $118 $146 0 $177 $-1 #
edge $-1 $178 $179 $145 $180 0 #
coedge $-1 $120 $119 $181 $182 0 $59 $-1 #
coedge $-1 $183 $184 $119 $149 0 $185 $-1 #
edge $-1 $186 $156 $119 $187 0 #
coedge $-1 $188 $189 $120 $151 0 $190 $-1 #
edge $-1 $155 $191 $120 $192 0 #
coedge $-1 $193 $121 $189 $194 0 $154 $-1 #
coedge $-1 $121 $193 $183 $195 0 $154 $-1 #
loop $-1 $-1 $121 $196 #
vertex $-1 $122 $197 #
vertex $-1 $122 $198 #
straight-curve $-1 -24.5 5 -5 0 -1 0 #
face $-1 $199 $200 $3 $-1 $201 reversed single #
loop $-1 $-1 $202 $123 #
plane-surface $-1 60 -15 20 0 1 0 0 0 1 0 #
coedge $-1 $173 $203 $175 $204 1 $124 $-1 #
face $-1 $205 $190 $3 $-1 $206 forward single #
plane-surface $-1 9.99804977875805 7.0027852045794 10 0 0 1 0.939692620785908 -0.342020143325669 0 0 #
edge $-1 $138 $131 $129 $207 0 #
point $-1 18.1167143159443 14.6896106958101 10 #
straight-curve $-1 12.9864121660592 0.594221384021507 -2 -0.342020143325669 -0.939692620785908 0 #
straight-curve $-1 11.2763114494309 -4.10424171990803 0 0 0 -1 #
point $-1 11.2763114494309 -4.10424171990803 10 #
coedge $-1 $208 $143 $209 $210 0 $89 $-1 #
coedge $-1 $211 $212 $143 $171 1 $213 $-1 #
edge $-1 $178 $214 $143 $215 0 #
coedge $-1 $144 $216 $217 $218 0 $89 $-1 #
coedge $-1 $219 $161 $144 $174 1 $124 $-1 #
edge $-1 $220 $179 $144 $221 0 #
coedge $-1 $222 $145 $161 $204 0 $177 $-1 #
coedge $-1 $145 $223 $211 $224 0 $177 $-1 #
loop $-1 $-1 $223 $225 #
vertex $-1 $146 $226 #
vertex $-1 $146 $227 #
straight-curve $-1 75 0 -5 0 -1 0 #
coedge $-1 $228 $229 $147 $182 1 $230 $-1 #
edge $-1 $186 $191 $147 $231 0 #
coedge $-1 $232 $148 $153 $195 1 $185 $-1 #
coedge $-1 $148 $232 $228 $233 1 $185 $-1 #
loop $-1 $-1 $148 $234 #
vertex $-1 $182 $235 #
straight-curve $-1 -15 -3 -5 1 0 0 #
coedge $-1 $236 $150 $229 $237 1 $190 $-1 #
coedge $-1 $150 $236 $152 $194 1 $190 $-1 #
loop $-1 $-1 $150 $162 #
vertex $-1 $182 $238 #
straight-curve $-1 -15 23 -5 -1 0 0 #
coedge $-1 $153 $152 $239 $240 0 $154 $-1 #
edge $-1 $155 $241 $152 $242 0 #
edge $-1 $243 $156 $153 $244 0 #
face $-1 $245 $154 $3 $-1 $246 forward single #
point $-1 -24.5 23 -5 #
point $-1 -24.5 -3 -5 #
face $-1 $247 $248 $3 $-1 $249 forward single #
loop $-1 $-1 $250 $158 #
cone-surface $-1 61.9842916652659 -17 20 0 0 1 -1.63830408857799 1.14715287270209 0 1 0 -1 0 #
coedge $-1 $251 $252 $222 $253 1 $159 $-1 #
coedge $-1 $161 $219 $251 $254 1 $124 $-1 #
edge $-1 $179 $255 $175 $256 0 #
face $-1 $234 $257 $3 $-1 $258 reversed single #
plane-surface $-1 -30 21.5 -3.5 0 0.707106781186548 0.707106781186548 1 0 0 0 #
straight-curve $-1 14.6965128826876 5.29268448795105 10 0.342020143325669 0.939692620785908 0 #
coedge $-1 $259 $169 $260 $261 0 $89 $-1 #
coedge $-1 $262 $263 $169 $210 1 $264 $-1 #
edge $-1 $214 $265 $169 $266 0 #
coedge $-1 $267 $170 $176 $224 1 $213 $-1 #
coedge $-1 $170 $267 $262 $268 1 $213 $-1 #
loop $-1 $-1 $211 $269 #
vertex $-1 $210 $270 #
straight-curve $-1 60 12 -5 -1 -0 -0 #
coedge $-1 $172 $271 $272 $273 0 $89 $-1 #
coedge $-1 $274 $275 $172 $218 1 $276 $-1 #
edge $-1 $277 $220 $172 $278 0 #
coedge $-1 $203 $173 $275 $279 0 $124 $-1 #
vertex $-1 $174 $280 #
straight-curve $-1 60 -12 -5 1 0 0 #
coedge $-1 $281 $175 $202 $253 0 $177 $-1 #
coedge $-1 $176 $282 $283 $284 0 $177 $-1 #
edge $-1 $285 $178 $176 $286 0 #
face $-1 $287 $177 $3 $-1 $288 reversed single #
point $-1 75 12 -5 #
point $-1 75 -12 -5 #
coedge $-1 $289 $181 $184 $233 0 $230 $-1 #
coedge $-1 $181 $289 $188 $237 0 $230 $-1 #
loop $-1 $-1 $181 $290 #
straight-curve $-1 -35.5 5 -5 0 1 -0 #
coedge $-1 $184 $183 $291 $292 0 $185 $-1 #
edge $-1 $186 $293 $228 $294 0 #
face $-1 $295 $185 $3 $-1 $296 forward single #
point $-1 -35.5 -3 -5 #
coedge $-1 $189 $188 $297 $298 0 $190 $-1 #
edge $-1 $299 $191 $229 $300 0 #
point $-1 -35.5 23 -5 #
coedge $-1 $301 $302 $193 $240 1 $303 $-1 #
edge $-1 $241 $243 $239 $304 0 #
vertex $-1 $305 $306 #
straight-curve $-1 -28.5833333333333 18.9166666666667 -0.916666666666667 -0.577350269189626 -0.577350269189626 0.577350269189626 #
vertex $-1 $307 $308 #
straight-curve $-1 -28.5833333333333 1.08333333333333 -0.916666666666667 0.577350269189626 -0.577350269189626 -0.577350269189626 #
face $-1 $309 $303 $3 $-1 $310 reversed single #
plane-surface $-1 -26 10 -3.5 0.707106781186548 0 0.707106781186548 0.707106781186548 0 -0.707106781186548 0 #
face $-1 $311 $312 $3 $-1 $313 reversed single #
loop $-1 $-1 $314 $199 #
plane-surface $-1 48.8250339058088 13.3071547505653 20 -0.939692620785908 -0.342020143325669 0 0 0 1 0 #
coedge $-1 $315 $316 $317 $318 1 $200 $-1 #
coedge $-1 $319 $202 $203 $254 0 $159 $-1 #
coedge $-1 $202 $319 $320 $321 1 $159 $-1 #
edge $-1 $255 $322 $222 $323 0 #
edge $-1 $255 $324 $251 $325 0 #
vertex $-1 $204 $326 #
straight-curve $-1 75 -11 -6 0 -0.707106781186548 0.707106781186548 #
loop $-1 $-1 $297 $205 #
plane-surface $-1 -30 20 -5 0 -1 0 0 0 -1 0 #
coedge $-1 $327 $208 $328 $329 0 $89 $-1 #
coedge $-1 $330 $331 $208 $261 1 $332 $-1 #
edge $-1 $265 $333 $208 $334 0 #
coedge $-1 $335 $209 $212 $268 0 $264 $-1 #
coedge $-1 $209 $335 $330 $336 1 $264 $-1 #
loop $-1 $-1 $335 $337 #
vertex $-1 $261 $338 #
ellipse-curve $-1 55 20 -5 -0 -0 -1 -5.65685424949238 -5.65685424949238 0 1 #
coedge $-1 $212 $211 $339 $340 1 $213 $-1 #
edge $-1 $214 $341 $212 $342 0 #
face $-1 $60 $213 $3 $-1 $343 reversed single #
point $-1 55 12 -5 #
coedge $-1 $216 $344 $345 $346 0 $89 $-1 #
coedge $-1 $347 $348 $216 $273 1 $349 $-1 #
edge $-1 $350 $277 $216 $351 0 #
coedge $-1 $352 $217 $348 $353 0 $276 $-1 #
coedge $-1 $217 $352 $219 $279 1 $276 $-1 #
loop $-1 $-1 $352 $354 #
vertex $-1 $218 $355 #
ellipse-curve $-1 61.9842916652659 -17 -5 -0 -0 -1 -4.09576022144496 2.86788218175522 0 1 #
edge $-1 $220 $324 $275 $356 0 #
point $-1 61.9842916652659 -12 -5 #
coedge $-1 $357 $222 $358 $359 1 $177 $-1 #
coedge $-1 $223 $360 $361 $362 1 $177 $-1 #
coedge $-1 $363 $339 $223 $284 1 $364 $-1 #
edge $-1 $365 $285 $223 $366 0 #
vertex $-1 $224 $367 #
straight-curve $-1 75 11 -6 -0 -0.707106781186548 -0.707106781186548 #
face $-1 $368 $369 $3 $-1 $370 forward single #
plane-surface $-1 75 0 0 -1 0 0 0 -0 1 0 #
coedge $-1 $229 $228 $371 $372 0 $230 $-1 #
face $-1 $373 $230 $3 $-1 $374 forward single #
coedge $-1 $375 $376 $232 $292 1 $377 $-1 #
edge $-1 $243 $293 $291 $378 0 #
vertex $-1 $379 $380 #
straight-curve $-1 -31.4166666666667 1.08333333333333 -0.916666666666667 0.577350269189626 0.577350269189626 0.577350269189626 #
face $-1 $290 $377 $3 $-1 $381 reversed single #
plane-surface $-1 -30 -1.5 -3.5 0 -0.707106781186548 0.707106781186548 1 0 0 0 #
coedge $-1 $382 $383 $236 $298 1 $257 $-1 #
edge $-1 $299 $241 $297 $384 0 #
vertex $-1 $385 $386 #
straight-curve $-1 -31.4166666666667 18.9166666666667 -0.916666666666667 -0.577350269189626 0.577350269189626 -0.577350269189626 #
coedge $-1 $387 $239 $383 $305 1 $303 $-1 #
coedge $-1 $239 $387 $375 $307 0 $303 $-1 #
loop $-1 $-1 $239 $245 #
straight-curve $-1 -27.5 5 -2 0 -1 0 #
edge $-1 $388 $241 $301 $389 0 #
point $-1 -27.5 20 -2 #
edge $-1 $390 $243 $302 $391 0 #
point $-1 -27.5 0 -2 #
face $-1 $392 $393 $3 $-1 $394 forward single #
plane-surface $-1 -27.5 10 -5 -1 0 0 0 0 1 0 #
face $-1 $395 $396 $3 $-1 $397 reversed single #
loop $-1 $-1 $398 $247 #
plane-surface $-1 37.1183972484959 41.0851680240475 -3.5 0.664463024388675 0.241844762647976 -0.707106781186547 -0.728739444818683 0 -0.684791078771736 0 #
coedge $-1 $399 $400 $401 $402 1 $248 $-1 #
coedge $-1 $403 $250 $319 $404 1 $200 $-1 #
coedge $-1 $250 $403 $399 $405 1 $200 $-1 #
coedge $-1 $401 $320 $250 $318 0 $369 $-1 #
edge $-1 $406 $407 $317 $408 0 #
coedge $-1 $252 $251 $315 $404 0 $159 $-1 #
coedge $-1 $317 $358 $252 $321 0 $369 $-1 #
edge $-1 $322 $406 $320 $409 0 #
vertex $-1 $359 $410 #
straight-curve $-1 75 -15 10 0 -0 1 #
vertex $-1 $411 $412 #
straight-curve $-1 60 -15 -2 -1 0 0 #
point $-1 75 -15 -2 #
coedge $-1 $413 $259 $414 $415 0 $89 $-1 #
coedge $-1 $416 $417 $259 $329 1 $418 $-1 #
edge $-1 $333 $419 $259 $420 0 #
coedge $-1 $421 $260 $263 $336 0 $332 $-1 #
coedge $-1 $260 $421 $416 $422 1 $332 $-1 #
loop $-1 $-1 $421 $423 #
vertex $-1 $329 $424 #
straight-curve $-1 47 0 -5 0 1 0 #
coedge $-1 $263 $262 $425 $426 1 $264 $-1 #
edge $-1 $265 $427 $263 $428 0 #
face $-1 $354 $264 $3 $-1 $429 reversed single #
point $-1 47 20 -5 #
coedge $-1 $283 $430 $267 $340 0 $364 $-1 #
edge $-1 $341 $285 $339 $431 0 #
vertex $-1 $432 $433 #
straight-curve $-1 55 13.5 -3.5 0 0.707106781186548 0.707106781186548 #
plane-surface $-1 72.5 13.5 -3.5 0 0.707106781186548 -0.707106781186548 -1 0 0 0 #
coedge $-1 $271 $434 $435 $436 0 $89 $-1 #
coedge $-1 $437 $438 $271 $346 1 $439 $-1 #
edge $-1 $440 $350 $271 $441 0 #
coedge $-1 $442 $272 $438 $443 0 $349 $-1 #
coedge $-1 $272 $442 $274 $353 1 $349 $-1 #
loop $-1 $-1 $442 $444 #
vertex $-1 $273 $445 #
straight-curve $-1 46.0059560434511 12.2810943205883 -5 -0.342020143325669 0.939692620785908 0 #
coedge $-1 $275 $274 $403 $411 1 $276 $-1 #
edge $-1 $277 $446 $348 $447 0 #
face $-1 $444 $276 $3 $-1 $448 reversed single #
point $-1 57.2858285613364 -18.7101007166284 -5 #
straight-curve $-1 61.9842916652659 -13.5 -3.5 0 -0.707106781186547 0.707106781186548 #
coedge $-1 $449 $281 $450 $451 0 $177 $-1 #
coedge $-1 $320 $452 $281 $359 0 $369 $-1 #
edge $-1 $453 $322 $281 $454 0 #
coedge $-1 $282 $449 $455 $456 1 $177 $-1 #
coedge $-1 $457 $458 $282 $362 0 $369 $-1 #
edge $-1 $365 $459 $282 $454 0 #
coedge $-1 $430 $283 $458 $460 1 $364 $-1 #
loop $-1 $-1 $363 $461 #
vertex $-1 $284 $462 #
straight-curve $-1 75 15 10 -0 -0 -1 #
point $-1 75 15 -2 #
face $-1 $463 $464 $3 $-1 $465 reversed single #
loop $-1 $-1 $458 $287 #
plane-surface $-1 0 0 25 0 0 1 1 0 0 0 #
coedge $-1 $466 $467 $289 $372 1 $468 $-1 #
edge $-1 $293 $299 $371 $469 0 #
face $-1 $196 $468 $3 $-1 $470 reversed single #
plane-surface $-1 -34 10 -3.5 -0.707106781186548 0 0.707106781186548 0.707106781186548 0 0.707106781186548 0 #
coedge $-1 $471 $291 $302 $307 1 $377 $-1 #
coedge $-1 $291 $471 $466 $379 0 $377 $-1 #
loop $-1 $-1 $291 $295 #
straight-curve $-1 -15 0 -2 -1 0 0 #
edge $-1 $472 $293 $466 $473 0 #
point $-1 -32.5 0 -2 #
plane-surface $-1 -30 0 -5 0 1 0 0 0 1 0 #
coedge $-1 $474 $297 $467 $385 1 $257 $-1 #
coedge $-1 $297 $474 $301 $305 0 $257 $-1 #
straight-curve $-1 -15 20 -2 1 0 0 #
edge $-1 $475 $299 $382 $476 0 #
point $-1 -32.5 20 -2 #
coedge $-1 $302 $301 $477 $478 1 $303 $-1 #
vertex $-1 $478 $479 #
straight-curve $-1 -27.5 20 -5 0 0 -1 #
vertex $-1 $478 $480 #
straight-curve $-1 -27.5 0 -5 0 0 -1 #
face $-1 $481 $482 $3 $-1 $483 forward single #
loop $-1 $-1 $477 $309 #
plane-surface $-1 -30 10 5 0 0 1 1 0 0 0 #
face $-1 $484 $485 $3 $-1 $486 reversed single #
loop $-1 $-1 $487 $311 #
cone-surface $-1 32.1558657854808 44.4862957614437 -3.5 0 0 1 1.47916391609245 3.17207725462827 0 1 0.707106781186548 0.707106781186547 0 #
coedge $-1 $488 $489 $413 $490 1 $312 $-1 #
coedge $-1 $491 $314 $316 $405 0 $248 $-1 #
coedge $-1 $314 $491 $492 $493 0 $248 $-1 #
coedge $-1 $494 $317 $314 $402 0 $369 $-1 #
edge $-1 $407 $495 $401 $496 0 #
coedge $-1 $316 $315 $352 $411 0 $200 $-1 #
edge $-1 $324 $406 $319 $497 0 #
edge $-1 $407 $446 $399 $498 0 #
vertex $-1 $318 $499 #
vertex $-1 $318 $500 #
ellipse-curve $-1 61.9842916652659 -17 25 0 0 1 -1.63830408857799 1.14715287270209 0 1 #
straight-curve $-1 30 -15 25 -1 0 0 #
point $-1 75 -15 25 #
edge $-1 $324 $446 $403 $501 0 #
point $-1 61.9842916652659 -15 -2 #
coedge $-1 $502 $327 $398 $490 0 $89 $-1 #
coedge $-1 $503 $504 $327 $415 1 $505 $-1 #
edge $-1 $419 $506 $327 $507 0 #
coedge $-1 $508 $328 $331 $422 0 $418 $-1 #
coedge $-1 $328 $508 $503 $509 1 $418 $-1 #
loop $-1 $-1 $508 $510 #
vertex $-1 $415 $511 #
ellipse-curve $-1 45 35 -5 0 0 1 1.41421356237309 1.41421356237309 0 1 #
coedge $-1 $331 $330 $512 $513 1 $332 $-1 #
edge $-1 $333 $514 $331 $515 0 #
face $-1 $337 $332 $3 $-1 $516 reversed single #
point $-1 47 35 -5 #
coedge $-1 $517 $518 $335 $426 0 $519 $-1 #
edge $-1 $427 $341 $425 $520 0 #
vertex $-1 $426 $521 #
straight-curve $-1 48.5 20 -3.5 0.707106781186548 0 0.707106781186548 #
cone-surface $-1 55 20 -3.5 0 0 1 -4.59619407771256 -4.59619407771256 0 1 0.707106781186548 -0.707106781186547 0 #
coedge $-1 $339 $363 $517 $432 0 $364 $-1 #
straight-curve $-1 60 15 -2 1 0 0 #
edge $-1 $522 $341 $430 $523 0 #
point $-1 55 15 -2 #
coedge $-1 $344 $524 $525 $526 0 $89 $-1 #
coedge $-1 $527 $528 $344 $436 1 $529 $-1 #
edge $-1 $530 $440 $344 $531 0 #
coedge $-1 $532 $345 $528 $533 1 $439 $-1 #
coedge $-1 $345 $532 $347 $443 1 $439 $-1 #
loop $-1 $-1 $532 $534 #
vertex $-1 $436 $535 #
ellipse-curve $-1 56.0972758182777 -21.2921876935698 -5 0 0 1 1.8126155740733 -0.845236523481397 0 1 #
coedge $-1 $348 $347 $491 $536 1 $349 $-1 #
edge $-1 $350 $537 $438 $538 0 #
face $-1 $539 $349 $3 $-1 $540 reversed single #
point $-1 57.9766610598495 -20.6081474069185 -5 #
vertex $-1 $405 $541 #
straight-curve $-1 58.6953674925153 -18.1970705016398 -3.5 0.664463024388673 0.241844762647979 0.707106781186548 #
cone-surface $-1 61.9842916652659 -17 -3.5 0 0 1 -2.86703215501148 2.00751752722866 0 1 0.707106781186547 -0.707106781186548 0 #
coedge $-1 $360 $357 $542 $543 1 $177 $-1 #
coedge $-1 $544 $545 $357 $451 1 $546 $-1 #
edge $-1 $453 $547 $357 $548 0 #
coedge $-1 $358 $549 $544 $550 0 $369 $-1 #
vertex $-1 $359 $551 #
straight-curve $-1 75 0 25 0 1 0 #
coedge $-1 $552 $553 $360 $456 0 $554 $-1 #
edge $-1 $459 $555 $360 $556 0 #
coedge $-1 $549 $361 $553 $557 0 $369 $-1 #
coedge $-1 $361 $558 $363 $460 0 $369 $-1 #
vertex $-1 $362 $559 #
edge $-1 $522 $365 $458 $560 0 #
face $-1 $269 $364 $3 $-1 $561 forward single #
point $-1 75 15 25 #
face $-1 $562 $546 $3 $-1 $563 reversed single #
loop $-1 $-1 $542 $368 #
plane-surface $-1 0 0 -25 0 0 1 1 0 0 0 #
coedge $-1 $564 $371 $376 $379 1 $468 $-1 #
coedge $-1 $371 $564 $382 $385 0 $468 $-1 #
loop $-1 $-1 $371 $373 #
straight-curve $-1 -32.5 5 -2 0 1 0 #
plane-surface $-1 -32.5 10 -5 1 0 0 0 0 -1 0 #
coedge $-1 $376 $375 $565 $566 1 $377 $-1 #
vertex $-1 $567 $568 #
straight-curve $-1 -32.5 0 -5 0 0 -1 #
coedge $-1 $383 $382 $569 $570 1 $257 $-1 #
vertex $-1 $570 $571 #
straight-curve $-1 -32.5 20 -5 0 0 -1 #
coedge $-1 $569 $565 $387 $478 0 $393 $-1 #
edge $-1 $390 $388 $387 $572 0 #
point $-1 -27.5 20 5 #
point $-1 -27.5 0 5 #
face $-1 $573 $574 $3 $-1 $575 reversed single #
loop $-1 $-1 $576 $392 #
plane-surface $-1 -11.8404028665134 33.7938524157182 20 0.342020143325669 -0.939692620785908 0 0 0 -1 0 #
face $-1 $577 $578 $3 $-1 $579 reversed single #
loop $-1 $-1 $580 $395 #
plane-surface $-1 14.2201203617847 41.6828405015078 -3.5 -0.241844762647976 0.664463024388675 -0.707106781186547 -0.946188648339465 0 0.323615577118185 0 #
coedge $-1 $581 $582 $502 $583 1 $396 $-1 #
coedge $-1 $584 $398 $504 $585 0 $312 $-1 #
coedge $-1 $398 $584 $581 $586 0 $312 $-1 #
edge $-1 $506 $587 $413 $588 0 #
coedge $-1 $400 $399 $442 $536 0 $248 $-1 #
coedge $-1 $589 $590 $400 $493 1 $591 $-1 #
edge $-1 $537 $495 $400 $592 0 #
coedge $-1 $593 $401 $590 $594 0 $369 $-1 #
vertex $-1 $594 $595 #
straight-curve $-1 48.1077304549779 15.2779297846201 25 0.342020143325669 -0.939692620785908 0 #
straight-curve $-1 61.9842916652659 -15 20 0 0 1 #
straight-curve $-1 60.1049064236941 -17.6840402866513 20 0 0 -1 #
point $-1 61.9842916652659 -15 25 #
point $-1 60.1049064236941 -17.6840402866513 25 #
ellipse-curve $-1 61.9842916652659 -17 -2 0 0 1 -1.63830408857799 1.14715287270209 0 1 #
coedge $-1 $596 $413 $487 $583 0 $89 $-1 #
coedge $-1 $597 $414 $417 $509 0 $505 $-1 #
coedge $-1 $414 $597 $488 $585 1 $505 $-1 #
loop $-1 $-1 $597 $598 #
vertex $-1 $415 $599 #
straight-curve $-1 21.0274081917851 37 -5 -1 0 0 #
coedge $-1 $417 $416 $600 $601 1 $418 $-1 #
edge $-1 $419 $602 $417 $603 0 #
face $-1 $423 $418 $3 $-1 $604 reversed single #
point $-1 45 37 -5 #
coedge $-1 $605 $606 $421 $513 0 $607 $-1 #
edge $-1 $514 $427 $512 $608 0 #
vertex $-1 $609 $610 #
straight-curve $-1 48.5 35 -3.5 0.707106781186548 0 0.707106781186548 #
plane-surface $-1 48.5 27.5 -3.5 0.707106781186548 0 -0.707106781186548 -0.707106781186548 0 -0.707106781186548 0 #
coedge $-1 $611 $425 $430 $432 1 $519 $-1 #
coedge $-1 $425 $611 $605 $612 1 $519 $-1 #
loop $-1 $-1 $611 $613 #
ellipse-curve $-1 55 20 -2 0 0 1 -3.53553390593274 -3.53553390593274 0 1 #
point $-1 50 20 -2 #
vertex $-1 $614 $615 #
straight-curve $-1 55 15 20 -0 -0 -1 #
coedge $-1 $434 $616 $617 $618 0 $89 $-1 #
coedge $-1 $619 $620 $434 $526 1 $578 $-1 #
edge $-1 $621 $530 $434 $622 0 #
coedge $-1 $623 $435 $620 $624 1 $529 $-1 #
coedge $-1 $435 $623 $437 $533 0 $529 $-1 #
loop $-1 $-1 $435 $539 #
vertex $-1 $436 $625 #
straight-curve $-1 33.4834900210938 -31.6512881527684 -5 0.939692620785908 0.342020143325669 0 #
coedge $-1 $438 $437 $589 $626 1 $439 $-1 #
edge $-1 $627 $440 $437 $628 0 #
face $-1 $629 $439 $3 $-1 $630 reversed single #
point $-1 56.781316104929 -23.1715729351416 -5 #
edge $-1 $446 $537 $491 $631 0 #
vertex $-1 $626 $632 #
straight-curve $-1 59.3861999910284 -20.09511719193 -3.5 0.664463024388674 0.241844762647976 0.707106781186548 #
face $-1 $534 $529 $3 $-1 $633 reversed single #
plane-surface $-1 59.0407837417718 -19.1460938467849 -3.5 0.664463024388675 0.241844762647976 -0.707106781186547 -0.728739444818683 0 -0.684791078771736 0 #
point $-1 60.1049064236941 -17.6840402866513 -2 #
coedge $-1 $634 $635 $449 $543 0 $464 $-1 #
edge $-1 $555 $547 $449 $636 0 #
coedge $-1 $637 $450 $452 $550 1 $546 $-1 #
coedge $-1 $450 $637 $634 $638 1 $546 $-1 #
loop $-1 $-1 $637 $463 #
vertex $-1 $451 $639 #
straight-curve $-1 75 -75 0 0 0 -1 #
coedge $-1 $452 $457 $640 $641 0 $369 $-1 #
edge $-1 $642 $453 $544 $643 0 #
point $-1 75 -75 25 #
coedge $-1 $644 $455 $635 $645 1 $554 $-1 #
coedge $-1 $455 $644 $457 $557 1 $554 $-1 #
loop $-1 $-1 $455 $646 #
vertex $-1 $543 $647 #
straight-curve $-1 75 75 0 0 0 -1 #
edge $-1 $459 $648 $553 $649 0 #
coedge $-1 $458 $650 $611 $614 0 $369 $-1 #
point $-1 75 75 25 #
straight-curve $-1 30 15 25 1 0 -0 #
plane-surface $-1 60 15 20 0 -1 0 0 0 -1 0 #
face $-1 $646 $651 $3 $-1 $652 reversed single #
plane-surface $-1 0 -75 0 0 1 -0 -0 0 1 0 #
coedge $-1 $467 $466 $653 $567 1 $468 $-1 #
coedge $-1 $477 $653 $471 $566 0 $393 $-1 #
edge $-1 $472 $390 $471 $654 0 #
edge $-1 $475 $472 $564 $655 0 #
point $-1 -32.5 0 5 #
coedge $-1 $653 $477 $474 $570 0 $393 $-1 #
edge $-1 $388 $475 $474 $656 0 #
point $-1 -32.5 20 5 #
straight-curve $-1 -27.5 10 5 0 1 0 #
face $-1 $657 $658 $3 $-1 $249 forward single #
loop $-1 $-1 $659 $481 #
cone-surface $-1 32.1558657854808 44.4862957614437 20 0 0 -1 2.11309130870349 4.53153893518325 0 1 0 1 0 #
coedge $-1 $660 $661 $662 $663 1 $482 $-1 #
face $-1 $664 $665 $3 $-1 $666 reversed single #
loop $-1 $-1 $667 $484 #
plane-surface $-1 48.5 -30.3198850732429 -3.5 0.707106781186548 0 -0.707106781186548 -0.707106781186548 0 -0.707106781186548 0 #
coedge $-1 $668 $669 $670 $671 1 $485 $-1 #
coedge $-1 $672 $487 $489 $586 1 $396 $-1 #
coedge $-1 $487 $672 $669 $673 0 $396 $-1 #
edge $-1 $587 $674 $502 $675 0 #
coedge $-1 $489 $488 $676 $677 1 $312 $-1 #
edge $-1 $506 $678 $504 $679 0 #
edge $-1 $680 $587 $581 $681 0 #
vertex $-1 $490 $682 #
straight-curve $-1 45.2886525926202 14.251869354643 -5 -0.342020143325669 0.939692620785908 0 #
coedge $-1 $683 $492 $532 $626 0 $591 $-1 #
coedge $-1 $492 $683 $494 $594 1 $591 $-1 #
loop $-1 $-1 $590 $684 #
straight-curve $-1 60.7957389222072 -19.5820869769415 20 0 0 1 #
coedge $-1 $685 $494 $686 $687 0 $369 $-1 #
edge $-1 $495 $688 $494 $689 0 #
point $-1 60.7957389222072 -19.5820869769415 25 #
coedge $-1 $690 $502 $691 $692 0 $89 $-1 #
coedge $-1 $504 $503 $693 $694 1 $505 $-1 #
face $-1 $510 $505 $3 $-1 $695 reversed single #
point $-1 37.0090101525114 37 -5 #
coedge $-1 $696 $697 $508 $601 0 $698 $-1 #
edge $-1 $602 $514 $600 $699 0 #
vertex $-1 $601 $700 #
straight-curve $-1 45 38.5 -3.5 0 0.707106781186548 0.707106781186547 #
cone-surface $-1 45 35 -3.5 0 0 1 2.47487373415292 2.47487373415292 0 1 0.707106781186548 0.707106781186547 0 #
coedge $-1 $701 $512 $518 $612 0 $607 $-1 #
coedge $-1 $512 $701 $696 $609 0 $607 $-1 #
loop $-1 $-1 $701 $702 #
straight-curve $-1 50 0 -2 0 -1 0 #
edge $-1 $703 $514 $606 $704 0 #
point $-1 50 35 -2 #
coedge $-1 $518 $517 $558 $614 1 $519 $-1 #
edge $-1 $427 $705 $605 $706 0 #
face $-1 $461 $519 $3 $-1 $707 reversed single #
edge $-1 $705 $522 $558 $708 0 #
point $-1 55 15 25 #
coedge $-1 $524 $709 $710 $711 0 $89 $-1 #
coedge $-1 $712 $713 $524 $618 1 $714 $-1 #
edge $-1 $715 $621 $524 $716 0 #
coedge $-1 $667 $525 $713 $717 0 $578 $-1 #
coedge $-1 $525 $667 $527 $624 0 $578 $-1 #
vertex $-1 $526 $718 #
straight-curve $-1 47 0 -5 0 1 0 #
coedge $-1 $528 $527 $719 $720 1 $529 $-1 #
edge $-1 $721 $530 $527 $722 0 #
point $-1 47 -26.7316808492844 -5 #
edge $-1 $537 $627 $589 $723 0 #
vertex $-1 $724 $725 #
straight-curve $-1 57.2943463199175 -24.5811118663205 -3.5 -0.241844762647976 0.664463024388675 -0.707106781186547 #
face $-1 $726 $727 $3 $-1 $728 reversed single #
cone-surface $-1 56.0972758182777 -21.2921876935698 -3.5 0 0 1 3.17207725462828 -1.47916391609245 0 1 0.707106781186547 0.707106781186547 0 #
straight-curve $-1 48.8250339058088 13.3071547505653 -2 0.342020143325669 -0.939692620785908 0 #
point $-1 60.7957389222072 -19.5820869769415 -2 #
plane-surface $-1 53.3906580524645 -26.0019381995276 -3.5 0.241844762647976 -0.664463024388675 -0.707106781186547 -0.946188648339465 0 -0.323615577118185 0 #
coedge $-1 $729 $542 $545 $638 0 $464 $-1 #
coedge $-1 $542 $729 $552 $645 0 $464 $-1 #
straight-curve $-1 75 0 -25 0 -1 0 #
coedge $-1 $545 $544 $730 $731 0 $546 $-1 #
edge $-1 $547 $732 $545 $733 0 #
point $-1 75 -75 -25 #
coedge $-1 $734 $730 $549 $641 1 $651 $-1 #
edge $-1 $648 $642 $640 $735 0 #
vertex $-1 $641 $736 #
straight-curve $-1 0 -75 25 1 0 0 #
coedge $-1 $553 $552 $734 $737 1 $554 $-1 #
edge $-1 $738 $555 $552 $739 0 #
face $-1 $-1 $554 $3 $-1 $740 reversed single #
point $-1 75 75 -25 #
vertex $-1 $557 $741 #
straight-curve $-1 0 75 25 -1 0 0 #
coedge $-1 $558 $742 $701 $743 0 $369 $-1 #
loop $-1 $-1 $734 $562 #
plane-surface $-1 -75 0 0 1 0 0 0 0 -1 0 #
coedge $-1 $565 $569 $564 $567 0 $393 $-1 #
straight-curve $-1 -30 0 5 1 0 0 #
straight-curve $-1 -32.5 10 5 0 -1 0 #
straight-curve $-1 -30 20 5 -1 0 0 #
face $-1 $744 $745 $3 $-1 $746 forward single #
loop $-1 $-1 $747 $573 #
coedge $-1 $748 $749 $750 $751 1 $574 $-1 #
coedge $-1 $670 $576 $752 $753 0 $482 $-1 #
coedge $-1 $576 $670 $748 $754 0 $482 $-1 #
coedge $-1 $750 $755 $576 $663 0 $369 $-1 #
edge $-1 $756 $757 $662 $758 0 #
face $-1 $598 $714 $3 $-1 $759 reversed single #
loop $-1 $-1 $710 $577 #
plane-surface $-1 27.7727963696459 -38.5 -3.5 0 -0.707106781186548 -0.707106781186548 -1 0 0 0 #
coedge $-1 $620 $619 $760 $761 1 $578 $-1 #
coedge $-1 $691 $580 $762 $763 0 $485 $-1 #
coedge $-1 $580 $691 $582 $673 1 $485 $-1 #
coedge $-1 $661 $660 $580 $671 0 $482 $-1 #
edge $-1 $764 $765 $670 $766 0 #
coedge $-1 $582 $581 $767 $768 1 $396 $-1 #
edge $-1 $765 $674 $669 $769 0 #
vertex $-1 $583 $770 #
ellipse-curve $-1 32.1558657854808 44.4862957614437 -5 0 0 1 0.845236523481397 1.8126155740733 0 1 #
coedge $-1 $771 $772 $584 $677 0 $658 $-1 #
edge $-1 $680 $678 $676 $773 0 #
vertex $-1 $694 $774 #
straight-curve $-1 38.7234570911013 39.4484839780123 -2.55151602198769 0.443712606279657 0.633687274224642 0.633687274224642 #
vertex $-1 $775 $776 #
straight-curve $-1 35.4447899582315 45.6833662630836 -3.5 -0.664463024388675 -0.241844762647975 -0.707106781186547 #
point $-1 34.0352510270526 45.1703360480951 -5 #
coedge $-1 $590 $589 $777 $724 1 $591 $-1 #
face $-1 $778 $591 $3 $-1 $779 reversed single #
coedge $-1 $780 $593 $781 $782 0 $369 $-1 #
coedge $-1 $777 $783 $593 $687 1 $784 $-1 #
edge $-1 $688 $785 $593 $786 0 #
vertex $-1 $594 $787 #
ellipse-curve $-1 56.0972758182777 -21.2921876935698 25 -0 -0 -1 4.53153893518325 -2.11309130870349 0 1 #
coedge $-1 $788 $596 $789 $790 0 $89 $-1 #
coedge $-1 $669 $668 $596 $692 1 $485 $-1 #
edge $-1 $674 $791 $596 $792 0 #
coedge $-1 $793 $794 $597 $694 0 $745 $-1 #
edge $-1 $678 $602 $693 $795 0 #
plane-surface $-1 42.0548163835703 38.5 -3.5 0 0.707106781186548 -0.707106781186548 -1 0 0 0 #
coedge $-1 $796 $600 $606 $609 1 $698 $-1 #
coedge $-1 $600 $796 $793 $797 1 $698 $-1 #
loop $-1 $-1 $796 $744 #
ellipse-curve $-1 45 35 -2 -0 -0 -1 3.53553390593274 3.53553390593274 0 1 #
point $-1 45 40 -2 #
coedge $-1 $606 $605 $650 $743 1 $607 $-1 #
face $-1 $613 $607 $3 $-1 $798 forward single #
vertex $-1 $799 $800 #
straight-curve $-1 50 35 20 0 0 -1 #
vertex $-1 $614 $801 #
straight-curve $-1 50 20 20 0 0 1 #
cone-surface $-1 55 20 20 -0 -0 -1 -3.53553390593274 -3.53553390593274 0 1 0 -1 0 #
ellipse-curve $-1 55 20 25 0 0 1 -3.53553390593274 -3.53553390593274 0 1 #
coedge $-1 $616 $802 $803 $804 0 $89 $-1 #
coedge $-1 $805 $806 $616 $711 1 $665 $-1 #
edge $-1 $807 $715 $616 $808 0 #
coedge $-1 $809 $617 $806 $810 1 $714 $-1 #
coedge $-1 $617 $809 $619 $717 1 $714 $-1 #
loop $-1 $-1 $809 $664 #
vertex $-1 $711 $811 #
ellipse-curve $-1 45 -35 -5 0 0 1 1.41421356237309 -1.41421356237309 0 1 #
edge $-1 $621 $812 $713 $813 0 #
point $-1 47 -35 -5 #
coedge $-1 $783 $777 $623 $720 0 $784 $-1 #
edge $-1 $627 $721 $719 $814 0 #
vertex $-1 $815 $816 #
straight-curve $-1 49.588487948391 -28.5441596233128 -2.41151205160904 -0.633687274224642 0.443712606279657 -0.633687274224642 #
ellipse-curve $-1 56.0972758182777 -21.2921876935698 -2 -0 -0 -1 4.53153893518325 -2.11309130870349 0 1 #
edge $-1 $688 $627 $777 $817 0 #
point $-1 57.807376534906 -25.9906507974994 -2 #
face $-1 $818 $819 $3 $-1 $820 reversed single #
loop $-1 $-1 $821 $629 #
plane-surface $-1 -39.9989962108634 -38.5 -3.5 0 -0.707106781186548 -0.707106781186548 -1 0 0 0 #
coedge $-1 $635 $634 $822 $823 0 $464 $-1 #
coedge $-1 $640 $822 $637 $731 1 $651 $-1 #
edge $-1 $642 $732 $730 $824 0 #
vertex $-1 $823 $825 #
straight-curve $-1 0 -75 -25 -1 0 0 #
coedge $-1 $822 $640 $644 $737 0 $651 $-1 #
straight-curve $-1 -75 0 25 0 -1 0 #
point $-1 -75 -75 25 #
edge $-1 $648 $738 $644 $826 0 #
vertex $-1 $645 $827 #
straight-curve $-1 0 75 -25 1 0 0 #
plane-surface $-1 0 75 0 0 -1 0 0 0 -1 0 #
point $-1 -75 75 25 #
coedge $-1 $650 $828 $796 $799 0 $369 $-1 #
edge $-1 $703 $705 $650 $829 0 #
face $-1 $702 $698 $3 $-1 $830 reversed single #
loop $-1 $-1 $831 $657 #
plane-surface $-1 0 40 20 0 -1 0 0 0 -1 0 #
coedge $-1 $772 $771 $832 $833 1 $658 $-1 #
coedge $-1 $767 $659 $661 $754 1 $574 $-1 #
coedge $-1 $659 $767 $772 $775 1 $574 $-1 #
coedge $-1 $832 $662 $659 $751 0 $369 $-1 #
edge $-1 $757 $834 $750 $835 0 #
coedge $-1 $836 $837 $660 $753 1 $838 $-1 #
edge $-1 $756 $764 $752 $839 0 #
edge $-1 $765 $757 $661 $840 0 #
coedge $-1 $662 $841 $836 $842 0 $369 $-1 #
vertex $-1 $663 $843 #
vertex $-1 $751 $844 #
straight-curve $-1 -12.0433008489392 33.7200035895225 25 0.939692620785908 0.342020143325669 -0 #
cone-surface $-1 45 -35 -3.5 0 0 1 2.47487373415292 -2.47487373415292 0 1 0.707106781186548 0.707106781186547 0 #
coedge $-1 $845 $846 $667 $761 0 $847 $-1 #
edge $-1 $721 $812 $760 $848 0 #
coedge $-1 $849 $789 $668 $763 1 $850 $-1 #
edge $-1 $764 $791 $762 $851 0 #
vertex $-1 $753 $852 #
vertex $-1 $671 $853 #
straight-curve $-1 -12.0433008489392 33.7200035895225 -2 0.939692620785908 0.342020143325669 0 #
coedge $-1 $749 $748 $672 $768 0 $574 $-1 #
edge $-1 $765 $680 $767 $854 0 #
straight-curve $-1 30.958795283841 47.7752199341944 -3.5 0.241844762647979 -0.664463024388673 -0.707106781186548 #
point $-1 31.4718254988295 46.3656810030156 -5 #
coedge $-1 $747 $676 $794 $855 0 $658 $-1 #
coedge $-1 $676 $747 $749 $775 0 $658 $-1 #
straight-curve $-1 48.1077304549779 15.2779297846201 -2 0.342020143325669 -0.939692620785908 0 #
point $-1 39.1096327671405 40 -2 #
edge $-1 $834 $680 $772 $856 0 #
point $-1 36.8543288894104 46.1963964780721 -2 #
coedge $-1 $719 $686 $683 $724 0 $784 $-1 #
face $-1 $857 $784 $3 $-1 $858 forward single #
cone-surface $-1 56.0972758182777 -21.2921876935698 20 0 0 -1 4.53153893518325 -2.11309130870349 0 1 0 1 0 #
coedge $-1 $859 $685 $860 $861 0 $369 $-1 #
coedge $-1 $846 $845 $685 $782 1 $847 $-1 #
edge $-1 $785 $862 $685 $863 0 #
coedge $-1 $686 $719 $846 $815 0 $784 $-1 #
loop $-1 $-1 $686 $778 #
vertex $-1 $782 $864 #
straight-curve $-1 15.3183106171144 -41.4554060733502 25 -0.939692620785908 -0.342020143325669 0 #
point $-1 57.807376534906 -25.9906507974994 25 #
coedge $-1 $865 $690 $866 $867 0 $89 $-1 #
coedge $-1 $762 $868 $690 $790 1 $850 $-1 #
edge $-1 $791 $869 $690 $870 0 #
vertex $-1 $790 $871 #
straight-curve $-1 -11.0172404189622 30.9009257271648 -5 -0.939692620785908 -0.342020143325669 0 #
coedge $-1 $831 $693 $697 $797 0 $745 $-1 #
coedge $-1 $693 $831 $771 $855 1 $745 $-1 #
straight-curve $-1 0 40 -2 1 0 0 #
coedge $-1 $697 $696 $742 $799 1 $698 $-1 #
edge $-1 $602 $872 $793 $873 0 #
plane-surface $-1 50 0 20 -1 0 0 0 0 1 0 #
edge $-1 $872 $703 $742 $874 0 #
point $-1 50 35 25 #
point $-1 50 20 25 #
coedge $-1 $709 $875 $876 $877 0 $89 $-1 #
coedge $-1 $878 $879 $709 $804 1 $880 $-1 #
edge $-1 $881 $807 $709 $882 0 #
coedge $-1 $883 $710 $879 $884 0 $665 $-1 #
coedge $-1 $710 $883 $712 $810 0 $665 $-1 #
vertex $-1 $804 $885 #
straight-curve $-1 0 -37 -5 1 0 0 #
coedge $-1 $713 $712 $886 $887 1 $714 $-1 #
edge $-1 $888 $715 $712 $889 0 #
point $-1 45 -37 -5 #
vertex $-1 $887 $890 #
straight-curve $-1 48.5 -35 -3.5 0.707106781186548 0 0.707106781186547 #
straight-curve $-1 15.5212085995402 -41.3815572471545 -2 -0.939692620785908 -0.342020143325669 0 #
edge $-1 $721 $785 $846 $891 0 #
point $-1 50 -28.8323034639136 -2 #
straight-curve $-1 57.807376534906 -25.9906507974994 20 0 0 -1 #
face $-1 $892 $893 $3 $-1 $894 reversed single #
loop $-1 $-1 $895 $726 #
cone-surface $-1 -45 -35 -3.5 0 0 1 -2.47487373415292 -2.47487373415292 0 1 0.707106781186548 0.707106781186547 0 #
coedge $-1 $896 $897 $898 $899 1 $727 $-1 #
coedge $-1 $730 $734 $729 $823 1 $651 $-1 #
edge $-1 $732 $738 $822 $900 0 #
straight-curve $-1 -75 -75 0 0 0 -1 #
point $-1 -75 -75 -25 #
straight-curve $-1 -75 75 0 0 0 -1 #
point $-1 -75 75 -25 #
coedge $-1 $742 $832 $831 $901 0 $369 $-1 #
straight-curve $-1 50 0 25 0 -1 0 #
cone-surface $-1 45 35 20 0 0 -1 3.53553390593274 3.53553390593274 0 1 0 1 0 #
coedge $-1 $794 $793 $828 $901 1 $745 $-1 #
coedge $-1 $828 $750 $747 $833 0 $369 $-1 #
edge $-1 $834 $902 $832 $903 0 #
vertex $-1 $833 $904 #
ellipse-curve $-1 32.1558657854808 44.4862957614437 25 -0 -0 -1 2.11309130870349 4.53153893518325 0 1 #
coedge $-1 $905 $752 $755 $842 1 $838 $-1 #
coedge $-1 $752 $905 $849 $906 0 $838 $-1 #
loop $-1 $-1 $836 $907 #
straight-curve $-1 5.21084748310377 40 20 0 0 -1 #
straight-curve $-1 30.4457650688525 49.1847588653733 20 0 0 1 #
coedge $-1 $755 $908 $909 $910 0 $369 $-1 #
edge $-1 $911 $756 $755 $912 0 #
point $-1 5.21084748310377 40 25 #
point $-1 30.4457650688525 49.1847588653733 25 #
coedge $-1 $781 $760 $913 $914 0 $847 $-1 #
coedge $-1 $760 $781 $783 $815 1 $847 $-1 #
loop $-1 $-1 $781 $915 #
straight-curve $-1 50 0 -2 0 -1 0 #
coedge $-1 $868 $762 $837 $906 1 $850 $-1 #
loop $-1 $-1 $789 $916 #
straight-curve $-1 5.20993480041237 40.0051760807548 -1.99482391924522 0.123724030206483 -0.701673843159863 -0.701673843159863 #
point $-1 5.21084748310377 40 -2 #
point $-1 30.4457650688525 49.1847588653733 -2 #
ellipse-curve $-1 32.1558657854808 44.4862957614437 -2 -0 -0 -1 2.11309130870349 4.53153893518325 0 1 #
edge $-1 $678 $902 $794 $917 0 #
straight-curve $-1 36.8543288894104 46.1963964780721 20 0 0 -1 #
face $-1 $907 $918 $3 $-1 $919 forward single #
plane-surface $-1 15.5212085995402 -41.3815572471545 20 -0.342020143325669 0.939692620785908 0 0 0 1 0 #
coedge $-1 $920 $780 $921 $922 0 $369 $-1 #
coedge $-1 $913 $923 $780 $861 1 $924 $-1 #
edge $-1 $862 $925 $780 $926 0 #
vertex $-1 $861 $927 #
straight-curve $-1 50 0 25 0 -1 0 #
point $-1 50 -28.8323034639136 25 #
coedge $-1 $928 $788 $929 $930 0 $89 $-1 #
coedge $-1 $931 $932 $788 $867 1 $933 $-1 #
edge $-1 $869 $934 $788 $935 0 #
coedge $-1 $789 $849 $931 $936 1 $850 $-1 #
vertex $-1 $867 $937 #
straight-curve $-1 -9.94728812922406 37 -5 -1 0 0 #
point $-1 5.73982842522917 37 -5 #
vertex $-1 $799 $938 #
straight-curve $-1 45 40 20 0 0 1 #
ellipse-curve $-1 45 35 25 -0 -0 -1 3.53553390593274 3.53553390593274 0 1 #
coedge $-1 $802 $939 $940 $941 0 $89 $-1 #
coedge $-1 $942 $943 $802 $877 1 $944 $-1 #
edge $-1 $945 $881 $802 $946 0 #
coedge $-1 $947 $803 $943 $948 1 $880 $-1 #
coedge $-1 $803 $947 $805 $884 1 $880 $-1 #
loop $-1 $-1 $803 $949 #
vertex $-1 $877 $950 #
straight-curve $-1 4.66965753835609 -42.1386655116176 -5 0.939692620785908 0.342020143325669 0 #
coedge $-1 $806 $805 $951 $952 1 $665 $-1 #
edge $-1 $807 $953 $879 $954 0 #
point $-1 18.7880249976556 -37 -5 #
coedge $-1 $923 $913 $809 $887 0 $924 $-1 #
edge $-1 $812 $888 $886 $955 0 #
vertex $-1 $956 $957 #
straight-curve $-1 45 -38.5 -3.5 0 0.707106781186548 -0.707106781186547 #
point $-1 50 -35 -2 #
straight-curve $-1 50 -28.8323034639136 20 0 0 1 #
face $-1 $958 $959 $3 $-1 $960 reversed single #
loop $-1 $-1 $961 $818 #
plane-surface $-1 -48.5 -16.8911614661036 -3.5 -0.707106781186548 0 -0.707106781186548 -0.707106781186548 0 0.707106781186548 0 #
coedge $-1 $962 $963 $964 $965 1 $819 $-1 #
coedge $-1 $966 $821 $967 $968 0 $727 $-1 #
coedge $-1 $821 $966 $962 $969 0 $727 $-1 #
coedge $-1 $970 $971 $821 $899 0 $972 $-1 #
edge $-1 $973 $974 $898 $975 0 #
straight-curve $-1 -75 0 -25 0 1 0 #
edge $-1 $902 $872 $828 $976 0 #
vertex $-1 $833 $977 #
straight-curve $-1 48.1077304549779 15.2779297846201 25 0.342020143325669 -0.939692620785908 0 #
point $-1 36.8543288894104 46.1963964780721 25 #
coedge $-1 $837 $836 $978 $979 0 $838 $-1 #
edge $-1 $980 $764 $837 $981 0 #
face $-1 $982 $838 $3 $-1 $746 forward single #
coedge $-1 $841 $983 $984 $985 0 $369 $-1 #
coedge $-1 $986 $978 $841 $910 1 $987 $-1 #
edge $-1 $988 $911 $841 $989 0 #
vertex $-1 $910 $990 #
straight-curve $-1 0 40 25 1 0 -0 #
coedge $-1 $886 $860 $845 $914 1 $924 $-1 #
edge $-1 $812 $862 $845 $991 0 #
face $-1 $684 $847 $3 $-1 $798 forward single #
face $-1 $992 $850 $3 $-1 $993 reversed single #
straight-curve $-1 39.1096327671405 40 20 0 0 1 #
loop $-1 $-1 $994 $857 #
plane-surface $-1 -50 0 20 1 0 0 0 0 -1 0 #
coedge $-1 $995 $859 $996 $997 0 $369 $-1 #
coedge $-1 $998 $999 $859 $922 1 $1000 $-1 #
edge $-1 $925 $1001 $859 $1002 0 #
coedge $-1 $860 $886 $998 $956 1 $924 $-1 #
loop $-1 $-1 $860 $1003 #
vertex $-1 $861 $1004 #
ellipse-curve $-1 45 -35 25 -0 -0 -1 3.53553390593274 -3.53553390593274 0 1 #
point $-1 50 -35 25 #
coedge $-1 $1005 $865 $1006 $1007 0 $89 $-1 #
coedge $-1 $1008 $1009 $865 $930 1 $1010 $-1 #
edge $-1 $934 $1011 $865 $1012 0 #
coedge $-1 $1013 $866 $868 $936 0 $933 $-1 #
coedge $-1 $866 $1013 $1008 $1014 1 $933 $-1 #
loop $-1 $-1 $1013 $1015 #
vertex $-1 $930 $1016 #
ellipse-curve $-1 -45 35 -5 0 0 1 -1.41421356237309 1.41421356237309 0 1 #
edge $-1 $869 $980 $868 $1017 0 #
point $-1 -45 37 -5 #
point $-1 45 40 25 #
coedge $-1 $875 $1018 $966 $1019 0 $89 $-1 #
coedge $-1 $967 $1020 $875 $941 1 $1021 $-1 #
edge $-1 $1022 $945 $875 $1023 0 #
coedge $-1 $1024 $876 $1020 $1025 1 $944 $-1 #
coedge $-1 $876 $1024 $878 $948 0 $944 $-1 #
loop $-1 $-1 $876 $1026 #
vertex $-1 $941 $1027 #
ellipse-curve $-1 -28.4750600524541 -52.0740005928801 -5 0 0 1 -0.845236523481397 -1.8126155740733 0 1 #
coedge $-1 $879 $878 $1028 $1029 1 $880 $-1 #
edge $-1 $1030 $881 $878 $1031 0 #
face $-1 $1032 $880 $3 $-1 $1033 reversed single #
point $-1 -27.7910197658027 -53.9533858344519 -5 #
coedge $-1 $999 $998 $883 $952 0 $1000 $-1 #
edge $-1 $888 $953 $951 $1034 0 #
vertex $-1 $1035 $1036 #
straight-curve $-1 19.308952601018 -39.9543272462859 -2.04567275371404 0.123724030206483 -0.701673843159863 0.701673843159863 #
ellipse-curve $-1 45 -35 -2 -0 -0 -1 3.53553390593274 -3.53553390593274 0 1 #
edge $-1 $925 $888 $998 $1037 0 #
point $-1 45 -40 -2 #
face $-1 $1038 $1039 $3 $-1 $1040 reversed single #
loop $-1 $-1 $1006 $892 #
plane-surface $-1 -50.0502551859511 18.2903368570215 -3.5 -0.241844762647976 0.664463024388675 -0.707106781186547 -0.946188648339465 0 0.323615577118185 0 #
coedge $-1 $1041 $1042 $1043 $1044 1 $893 $-1 #
coedge $-1 $1045 $895 $897 $969 1 $819 $-1 #
coedge $-1 $895 $1045 $1042 $1046 0 $819 $-1 #
coedge $-1 $1047 $1048 $895 $965 0 $1049 $-1 #
edge $-1 $974 $1050 $964 $1051 0 #
coedge $-1 $897 $896 $939 $1019 1 $727 $-1 #
coedge $-1 $1052 $940 $896 $968 1 $1021 $-1 #
edge $-1 $973 $1022 $967 $1053 0 #
edge $-1 $1054 $974 $962 $1055 0 #
coedge $-1 $1056 $898 $1048 $1057 0 $972 $-1 #
coedge $-1 $898 $1056 $1058 $1059 1 $972 $-1 #
loop $-1 $-1 $1056 $1060 #
vertex $-1 $1059 $1061 #
vertex $-1 $965 $1062 #
straight-curve $-1 0 -40 -2 -1 0 0 #
straight-curve $-1 0 40 25 1 0 -0 #
point $-1 39.1096327671405 40 25 #
coedge $-1 $909 $1063 $905 $979 1 $987 $-1 #
edge $-1 $911 $980 $905 $1064 0 #
vertex $-1 $979 $1065 #
straight-curve $-1 0 40 -2 1 0 0 #
face $-1 $225 $1000 $3 $-1 $1066 forward single #
coedge $-1 $908 $1067 $1068 $1069 0 $369 $-1 #
coedge $-1 $1070 $1071 $908 $985 1 $1072 $-1 #
edge $-1 $1073 $988 $908 $1074 0 #
coedge $-1 $1063 $909 $1071 $1075 1 $987 $-1 #
loop $-1 $-1 $909 $1076 #
vertex $-1 $910 $1077 #
ellipse-curve $-1 -45 35 25 -0 -0 -1 -3.53553390593274 3.53553390593274 0 1 #
point $-1 -45 40 25 #
straight-curve $-1 50 -35 20 0 0 1 #
face $-1 $1026 $1021 $3 $-1 $1078 reversed single #
plane-surface $-1 -19.8945762584481 38.5 -3.5 0 0.707106781186548 -0.707106781186548 -1 0 0 0 #
coedge $-1 $1079 $1080 $1081 $1082 1 $918 $-1 #
coedge $-1 $1083 $920 $1084 $1085 0 $369 $-1 #
coedge $-1 $1086 $1087 $920 $997 1 $1088 $-1 #
edge $-1 $1001 $1089 $920 $1090 0 #
coedge $-1 $951 $921 $923 $956 0 $1000 $-1 #
coedge $-1 $921 $951 $1086 $1035 1 $1000 $-1 #
loop $-1 $-1 $921 $982 #
vertex $-1 $997 $1091 #
straight-curve $-1 0 -40 25 -1 0 0 #
face $-1 $915 $924 $3 $-1 $1092 reversed single #
point $-1 45 -40 25 #
coedge $-1 $1093 $928 $1094 $1095 0 $89 $-1 #
coedge $-1 $1096 $1097 $928 $1007 1 $959 $-1 #
edge $-1 $1011 $1098 $928 $1099 0 #
coedge $-1 $1100 $929 $932 $1014 0 $1010 $-1 #
coedge $-1 $929 $1100 $1096 $1101 1 $1010 $-1 #
loop $-1 $-1 $1100 $1102 #
vertex $-1 $930 $1103 #
straight-curve $-1 -47 13.7262237268848 -5 0 -1 0 #
coedge $-1 $932 $931 $1063 $1104 1 $933 $-1 #
edge $-1 $934 $1105 $932 $1106 0 #
face $-1 $916 $933 $3 $-1 $1107 reversed single #
point $-1 -47 35 -5 #
straight-curve $-1 -45 38.5 -3.5 0 0.707106781186548 0.707106781186548 #
coedge $-1 $939 $1043 $1045 $1108 0 $89 $-1 #
edge $-1 $1054 $1022 $939 $1109 0 #
coedge $-1 $940 $1052 $942 $1025 0 $1021 $-1 #
loop $-1 $-1 $940 $992 #
vertex $-1 $941 $1110 #
straight-curve $-1 -38.3113518987487 -30.8966196543462 -5 0.342020143325669 -0.939692620785908 0 #
coedge $-1 $943 $942 $1111 $1112 1 $944 $-1 #
edge $-1 $1113 $945 $942 $1114 0 #
face $-1 $949 $944 $3 $-1 $1115 reversed single #
point $-1 -30.3544452940259 -52.7580408795314 -5 #
coedge $-1 $1087 $1086 $947 $1029 0 $1088 $-1 #
edge $-1 $953 $1030 $1028 $1116 0 #
vertex $-1 $1029 $1117 #
straight-curve $-1 -27.2779895508142 -55.3629247656308 -3.5 -0.241844762647978 0.664463024388674 -0.707106781186547 #
face $-1 $1118 $1119 $3 $-1 $1120 forward single #
plane-surface $-1 -4.23700691301086 -46.9766929172259 -3.5 0.241844762647976 -0.664463024388675 -0.707106781186547 -0.946188648339465 0 -0.323615577118185 0 #
straight-curve $-1 0 -40 -2 -1 0 0 #
edge $-1 $1001 $953 $999 $1121 0 #
point $-1 19.317005939781 -40 -2 #
straight-curve $-1 45 -40 20 0 0 -1 #
face $-1 $1122 $1123 $3 $-1 $1124 reversed single #
loop $-1 $-1 $1094 $958 #
cone-surface $-1 -52.4164700852509 13.7044828621335 -3.5 0 0 1 -3.17207725462828 1.47916391609244 0 1 0.707106781186548 0.707106781186548 0 #
coedge $-1 $1125 $961 $1126 $1127 0 $893 $-1 #
coedge $-1 $961 $1125 $963 $1046 1 $893 $-1 #
coedge $-1 $1018 $1093 $961 $1044 0 $89 $-1 #
edge $-1 $1128 $1129 $1043 $1130 0 #
coedge $-1 $963 $962 $1018 $1108 1 $819 $-1 #
edge $-1 $1129 $1050 $1042 $1131 0 #
coedge $-1 $1132 $964 $1079 $1133 1 $1049 $-1 #
coedge $-1 $964 $1132 $970 $1057 1 $1049 $-1 #
loop $-1 $-1 $1132 $1134 #
vertex $-1 $1133 $1135 #
ellipse-curve $-1 -45 -35 -2 -0 -0 -1 -3.53553390593274 -3.53553390593274 0 1 #
coedge $-1 $1020 $967 $1136 $1137 1 $1021 $-1 #
straight-curve $-1 -38.2470255840156 -40.0806901408197 -1.91930985918033 0.443712606279657 0.633687274224642 -0.633687274224642 #
vertex $-1 $1019 $1138 #
straight-curve $-1 -45 -38.5 -3.5 0 -0.707106781186548 0.707106781186547 #
coedge $-1 $971 $970 $1139 $1140 1 $972 $-1 #
edge $-1 $974 $1141 $970 $1142 0 #
coedge $-1 $1143 $1136 $971 $1059 0 $1119 $-1 #
edge $-1 $973 $1144 $971 $1145 0 #
face $-1 $1003 $972 $3 $-1 $1066 forward single #
point $-1 -38.1905257391545 -40 -2 #
point $-1 -45 -40 -2 #
coedge $-1 $978 $986 $1013 $1104 0 $987 $-1 #
straight-curve $-1 -45 40 20 0 0 -1 #
point $-1 -45 40 -2 #
plane-surface $-1 0 -40 20 0 1 0 0 0 1 0 #
coedge $-1 $983 $1146 $1147 $1148 0 $369 $-1 #
coedge $-1 $1149 $1150 $983 $1069 1 $1151 $-1 #
edge $-1 $1152 $1073 $983 $1153 0 #
coedge $-1 $1154 $984 $1150 $1155 1 $1072 $-1 #
coedge $-1 $984 $1154 $986 $1075 0 $1072 $-1 #
loop $-1 $-1 $984 $1156 #
vertex $-1 $1069 $1157 #
straight-curve $-1 -50 0 25 0 1 0 #
edge $-1 $1105 $988 $1071 $1158 0 #
face $-1 $1156 $987 $3 $-1 $1159 reversed single #
point $-1 -50 35 25 #
plane-surface $-1 -34.2724855165902 -46.3790204397657 -3.5 -0.664463024388675 -0.241844762647976 -0.707106781186547 -0.728739444818683 0 0.684791078771736 0 #
coedge $-1 $1160 $994 $1047 $1133 0 $918 $-1 #
coedge $-1 $994 $1160 $1161 $1162 1 $918 $-1 #
coedge $-1 $1146 $1163 $994 $1082 0 $369 $-1 #
edge $-1 $1164 $1165 $1081 $1166 0 #
coedge $-1 $1139 $995 $1143 $1167 0 $369 $-1 #
coedge $-1 $1168 $1169 $995 $1085 1 $1170 $-1 #
edge $-1 $1089 $1171 $995 $1172 0 #
coedge $-1 $1028 $996 $999 $1035 0 $1088 $-1 #
coedge $-1 $996 $1028 $1168 $1173 0 $1088 $-1 #
loop $-1 $-1 $996 $1174 #
vertex $-1 $1085 $1175 #
straight-curve $-1 15.3183106171144 -41.4554060733502 25 -0.939692620785908 -0.342020143325669 0 #
point $-1 19.317005939781 -40 25 #
cone-surface $-1 45 -35 20 0 0 -1 3.53553390593274 -3.53553390593274 0 1 0 1 0 #
coedge $-1 $1043 $1005 $1176 $1177 0 $89 $-1 #
coedge $-1 $1178 $1179 $1005 $1095 1 $1039 $-1 #
edge $-1 $1098 $1180 $1005 $1181 0 #
coedge $-1 $1182 $1006 $1009 $1101 0 $959 $-1 #
coedge $-1 $1006 $1182 $1178 $1183 0 $959 $-1 #
vertex $-1 $1007 $1184 #
straight-curve $-1 -11.0172404189622 30.9009257271648 -5 -0.939692620785908 -0.342020143325669 0 #
coedge $-1 $1009 $1008 $1154 $1185 1 $1010 $-1 #
edge $-1 $1011 $1186 $1009 $1187 0 #
face $-1 $1015 $1010 $3 $-1 $1188 reversed single #
point $-1 -47 17.80427229291 -5 #
edge $-1 $1105 $980 $1063 $1189 0 #
vertex $-1 $1104 $1190 #
straight-curve $-1 -48.5 35 -3.5 -0.707106781186548 0 0.707106781186547 #
cone-surface $-1 -45 35 -3.5 0 0 1 -2.47487373415292 2.47487373415292 0 1 0.707106781186548 0.707106781186547 0 #
edge $-1 $1129 $1054 $1018 $1191 0 #
straight-curve $-1 0 -37 -5 1 0 0 #
point $-1 -36.0899031245253 -37 -5 #
coedge $-1 $1169 $1168 $1024 $1112 0 $1170 $-1 #
edge $-1 $1030 $1113 $1111 $1192 0 #
vertex $-1 $1193 $1194 #
straight-curve $-1 -31.7639842252047 -53.2710710945199 -3.5 0.664463024388675 0.241844762647976 -0.707106781186547 #
cone-surface $-1 -28.4750600524541 -52.0740005928801 -3.5 0 0 1 -1.47916391609245 -3.17207725462827 0 1 0.707106781186548 0.707106781186547 0 #
straight-curve $-1 15.5212085995402 -41.3815572471545 -2 -0.939692620785908 -0.342020143325669 0 #
point $-1 -26.7649593358257 -56.7724636968096 -2 #
face $-1 $1174 $1170 $3 $-1 $1195 reversed single #
loop $-1 $-1 $1143 $1032 #
plane-surface $-1 -45.144228172782 -20.8948595820016 20 0.939692620785908 0.342020143325669 0 0 0 -1 0 #
straight-curve $-1 19.317005939781 -40 20 0 0 -1 #
face $-1 $1196 $1151 $3 $-1 $483 forward single #
loop $-1 $-1 $1176 $1038 #
plane-surface $-1 -52.1479276634114 2.7333532213929 -3.5 -0.664463024388675 -0.241844762647976 -0.707106781186547 -0.728739444818683 0 0.684791078771736 0 #
coedge $-1 $1042 $1041 $1160 $1197 1 $893 $-1 #
coedge $-1 $1176 $1198 $1041 $1127 1 $1123 $-1 #
edge $-1 $1128 $1199 $1126 $1200 0 #
vertex $-1 $1177 $1201 #
vertex $-1 $1108 $1202 #
straight-curve $-1 -47 0 -5 -0 -1 -0 #
straight-curve $-1 -48.5 -35 -3.5 -0.707106781186548 0 0.707106781186548 #
coedge $-1 $1048 $1047 $1163 $1203 1 $1049 $-1 #
edge $-1 $1164 $1050 $1079 $1204 0 #
face $-1 $1060 $1049 $3 $-1 $1205 reversed single #
point $-1 -50 -35 -2 #
coedge $-1 $1058 $1206 $1052 $1137 0 $1119 $-1 #
edge $-1 $1113 $973 $1136 $1207 0 #
point $-1 -45 -37 -5 #
coedge $-1 $1163 $1083 $1056 $1140 0 $369 $-1 #
edge $-1 $1144 $1141 $1139 $1208 0 #
vertex $-1 $1203 $1209 #
straight-curve $-1 -45 -40 20 0 0 1 #
coedge $-1 $1206 $1058 $1083 $1167 1 $1119 $-1 #
vertex $-1 $1167 $1210 #
straight-curve $-1 -38.1905257391545 -40 20 0 0 1 #
coedge $-1 $1067 $1081 $1211 $1212 0 $369 $-1 #
coedge $-1 $1213 $1214 $1067 $1148 1 $1215 $-1 #
edge $-1 $1216 $1152 $1067 $1217 0 #
coedge $-1 $1218 $1068 $1214 $1219 0 $1151 $-1 #
coedge $-1 $1068 $1218 $1070 $1155 0 $1151 $-1 #
loop $-1 $-1 $1068 $1122 #
vertex $-1 $1069 $1220 #
straight-curve $-1 -12.0433008489392 33.7200035895225 25 0.939692620785908 0.342020143325669 -0 #
coedge $-1 $1071 $1070 $1100 $1185 0 $1072 $-1 #
edge $-1 $1186 $1073 $1070 $1221 0 #
face $-1 $1134 $1072 $3 $-1 $919 forward single #
point $-1 -50 19.9048949075391 25 #
straight-curve $-1 -50 35 20 0 0 1 #
cone-surface $-1 -45 35 20 0 0 -1 -3.53553390593274 3.53553390593274 0 1 0 1 0 #
coedge $-1 $1080 $1079 $1125 $1197 0 $918 $-1 #
coedge $-1 $1222 $1211 $1080 $1162 0 $1223 $-1 #
edge $-1 $1165 $1199 $1080 $1224 0 #
coedge $-1 $1081 $1139 $1132 $1203 0 $369 $-1 #
vertex $-1 $1203 $1225 #
vertex $-1 $1212 $1226 #
straight-curve $-1 -50 0 25 0 1 0 #
edge $-1 $1171 $1144 $1083 $1227 0 #
coedge $-1 $1111 $1084 $1087 $1173 1 $1170 $-1 #
coedge $-1 $1084 $1111 $1206 $1193 1 $1170 $-1 #
loop $-1 $-1 $1084 $1118 #
vertex $-1 $1167 $1228 #
ellipse-curve $-1 -28.4750600524541 -52.0740005928801 25 -0 -0 -1 -2.11309130870349 -4.53153893518325 0 1 #
edge $-1 $1030 $1089 $1087 $1229 0 #
face $-1 $1076 $1088 $3 $-1 $858 forward single #
point $-1 -26.7649593358257 -56.7724636968096 25 #
coedge $-1 $1230 $1126 $1093 $1177 1 $1123 $-1 #
edge $-1 $1180 $1128 $1093 $1231 0 #
coedge $-1 $1232 $1094 $1097 $1183 1 $1039 $-1 #
coedge $-1 $1094 $1232 $1230 $1233 0 $1039 $-1 #
vertex $-1 $1095 $1234 #
ellipse-curve $-1 -52.4164700852509 13.7044828621335 -5 0 0 1 -1.8126155740733 0.845236523481397 0 1 #
coedge $-1 $1097 $1096 $1218 $1235 1 $959 $-1 #
edge $-1 $1236 $1098 $1178 $1237 0 #
point $-1 -53.1005103719022 15.5838681037053 -5 #
edge $-1 $1186 $1105 $1154 $1238 0 #
vertex $-1 $1185 $1239 #
straight-curve $-1 -49.940686170441 19.8633629169618 -2.05931382955897 -0.633687274224642 0.443712606279657 0.633687274224642 #
plane-surface $-1 -48.5 27.4524474537696 -3.5 -0.707106781186548 0 -0.707106781186548 -0.707106781186548 0 0.707106781186548 0 #
ellipse-curve $-1 -45 35 -2 -0 -0 -1 -3.53553390593274 3.53553390593274 0 1 #
point $-1 -50 35 -2 #
ellipse-curve $-1 -45 -35 -5 0 0 1 -1.41421356237309 -1.41421356237309 0 1 #
ellipse-curve $-1 -28.4750600524541 -52.0740005928801 -2 -0 -0 -1 -2.11309130870349 -4.53153893518325 0 1 #
edge $-1 $1171 $1113 $1206 $1240 0 #
point $-1 -33.1735231563836 -53.7841013095084 -2 #
cone-surface $-1 -28.4750600524541 -52.0740005928801 20 0 0 -1 -2.11309130870349 -4.53153893518325 0 1 0 1 0 #
face $-1 $1241 $1215 $3 $-1 $1242 reversed single #
edge $-1 $1050 $1199 $1160 $1243 0 #
coedge $-1 $1126 $1230 $1222 $1244 1 $1123 $-1 #
vertex $-1 $1162 $1245 #
straight-curve $-1 -49.379761056292 -7.44437127243453 -2.62023894370795 -0.701673843159863 -0.123724030206483 0.701673843159863 #
point $-1 -47 -7.02475519057097 -5 #
point $-1 -47 -35 -5 #
edge $-1 $1141 $1164 $1163 $1246 0 #
straight-curve $-1 -50 -35 20 0 0 -1 #
cone-surface $-1 -45 -35 20 -0 -0 -1 -3.53553390593274 -3.53553390593274 0 1 0 1 0 #
coedge $-1 $1136 $1143 $1169 $1193 0 $1119 $-1 #
straight-curve $-1 -45.144228172782 -20.8948595820016 -2 -0.342020143325669 0.939692620785908 0 #
straight-curve $-1 0 -40 25 -1 0 0 #
point $-1 -45 -40 25 #
point $-1 -38.1905257391545 -40 25 #
coedge $-1 $1161 $1247 $1146 $1212 1 $1223 $-1 #
edge $-1 $1165 $1216 $1146 $1248 0 #
coedge $-1 $1249 $1147 $1247 $1250 1 $1215 $-1 #
coedge $-1 $1147 $1249 $1149 $1219 1 $1215 $-1 #
loop $-1 $-1 $1147 $1196 #
vertex $-1 $1148 $1251 #
ellipse-curve $-1 -52.4164700852509 13.7044828621335 25 -0 -0 -1 -4.53153893518325 2.11309130870349 0 1 #
coedge $-1 $1150 $1149 $1182 $1235 0 $1151 $-1 #
edge $-1 $1152 $1236 $1149 $1252 0 #
point $-1 -54.1265708018793 18.402945966063 25 #
straight-curve $-1 -50 19.9048949075391 20 0 0 1 #
coedge $-1 $1247 $1161 $1198 $1244 0 $1223 $-1 #
loop $-1 $-1 $1211 $1241 #
straight-curve $-1 -50 -7.55373613269635 20 0 0 -1 #
point $-1 -50 -35 25 #
point $-1 -50 -7.55373613269635 25 #
straight-curve $-1 -45.8615316236129 -18.9240845479469 25 -0.342020143325669 0.939692620785908 0 #
point $-1 -33.1735231563836 -53.7841013095084 25 #
straight-curve $-1 -26.7649593358257 -56.7724636968096 20 0 0 1 #
coedge $-1 $1198 $1176 $1179 $1233 1 $1123 $-1 #
straight-curve $-1 -47.2490729721593 -6.34043282376688 -5 0.34202014332567 -0.939692620785908 0 #
coedge $-1 $1179 $1178 $1249 $1253 1 $1039 $-1 #
edge $-1 $1254 $1180 $1230 $1255 0 #
point $-1 -54.2958553268227 13.0204425754822 -5 #
edge $-1 $1236 $1186 $1218 $1256 0 #
vertex $-1 $1219 $1257 #
straight-curve $-1 -53.6135405868907 16.9934070348842 -3.5 0.241844762647976 -0.664463024388675 -0.707106781186547 #
straight-curve $-1 -50 0 -2 0 1 0 #
point $-1 -50 19.9048949075391 -2 #
straight-curve $-1 -33.1735231563836 -53.7841013095084 20 0 0 -1 #
face $-1 $1102 $1223 $3 $-1 $1120 forward single #
cone-surface $-1 -52.4164700852509 13.7044828621335 20 0 0 -1 -4.53153893518325 2.11309130870349 0 1 0 1 0 #
straight-curve $-1 -50 0 -2 0 1 0 #
edge $-1 $1199 $1254 $1222 $1258 0 #
point $-1 -50 -7.55373613269635 -2 #
ellipse-curve $-1 -45 -35 25 -0 -0 -1 -3.53553390593274 -3.53553390593274 0 1 #
coedge $-1 $1211 $1222 $1213 $1250 0 $1223 $-1 #
straight-curve $-1 -45.8615316236129 -18.9240845479469 25 -0.342020143325669 0.939692620785908 0 #
coedge $-1 $1214 $1213 $1232 $1253 0 $1215 $-1 #
edge $-1 $1254 $1216 $1247 $1259 0 #
point $-1 -57.1149331891804 11.9943821455051 25 #
straight-curve $-1 -54.1265708018793 18.402945966063 20 0 0 -1 #
edge $-1 $1254 $1236 $1249 $1260 0 #
vertex $-1 $1244 $1261 #
straight-curve $-1 -55.7053942580016 12.5074123604937 -3.5 0.664463024388673 0.241844762647978 -0.707106781186548 #
straight-curve $-1 -12.0433008489392 33.7200035895225 -2 0.939692620785908 0.342020143325669 0 #
point $-1 -54.1265708018793 18.402945966063 -2 #
straight-curve $-1 -45.144228172782 -20.8948595820016 -2 -0.342020143325669 0.939692620785908 0 #
straight-curve $-1 -57.1149331891804 11.9943821455051 20 0 0 1 #
ellipse-curve $-1 -52.4164700852509 13.7044828621335 -2 -0 -0 -1 -4.53153893518325 2.11309130870349 0 1 #
point $-1 -57.1149331891804 11.9943821455051 -2 #
