700 0 2 0           
24 FBMach with ACIS - 7.0.3 13 ACIS 7.0.3 NT 24 Tue May 14 09:58:27 2002 
1 9.9999999999999995e-007 1e-010 
body $2 -1 $-1 $3 $-1 $4 #
bdycol-kcp $-1 -1 1 2 $5 $6 #
model_id-kcp-attrib $-1 -1 $-1 $-1 $0 1 1021384707 1021384707 -2051604479 1 #
lump $-1 -1 $-1 $7 $8 $0 #
transform $-1 -1 1.0000000000000002 0 0 0 1.0000000000000002 0 0 0 1 -7.1054273576010019e-015 0 0 1 rotate no_reflect no_shear #
body $9 -1 $-1 $10 $-1 $11 #
body $12 -1 $-1 $13 $-1 $14 #
lump $-1 -1 $-1 $-1 $15 $0 #
shell $-1 -1 $-1 $-1 $-1 $16 $-1 $3 #
rgb_color-st-attrib $-1 -1 $17 $-1 $5 0.5 1 1 #
lump $-1 -1 $-1 $-1 $18 $5 #
transform $-1 -1 1 0 0 0 1 0 0 0 1 -1.5013144999999994 -1.5987211554602254e-014 0 1 no_rotate no_reflect no_shear #
model_id-kcp-attrib $-1 -1 $-1 $-1 $6 1 1021384707 1021384707 -2051604478 1 #
lump $-1 -1 $-1 $-1 $19 $6 #
transform $-1 -1 1 0 0 0 1 0 0 0 1 -1.5013144999999994 -1.5987211554602254e-014 0 1 no_rotate no_reflect no_shear #
shell $-1 -1 $-1 $-1 $-1 $20 $-1 $7 #
face $21 -1 $-1 $22 $23 $8 $-1 $24 forward single #
model_id-kcp-attrib $-1 -1 $-1 $9 $5 1 1021384707 1021384707 -2058551293 1 #
shell $-1 -1 $-1 $-1 $-1 $25 $-1 $10 #
shell $-1 -1 $-1 $-1 $-1 $26 $-1 $13 #
face $27 -1 $-1 $28 $29 $15 $-1 $30 forward single #
model_id-kcp-attrib $-1 -1 $31 $-1 $16 1 1021384707 1021384707 -2051604479 2 #
face $32 -1 $-1 $33 $34 $8 $-1 $35 forward single #
loop $36 -1 $-1 $37 $38 $16 #
cone-surface $39 -1 $-1 -30.449999999999999 7.5 0 1 0 0 0 -5 0 1 I I 0 1 5 forward I I I I #
face $-1 -1 $-1 $40 $41 $18 $-1 $42 reversed single #
face $43 -1 $-1 $44 $45 $19 $-1 $46 forward single #
model_id-kcp-attrib $-1 -1 $47 $-1 $20 1 1021384707 1021384707 -2051604479 5 #
face $48 -1 $-1 $49 $50 $15 $-1 $51 reversed single #
loop $52 -1 $-1 $-1 $53 $20 #
plane-surface $54 -1 $-1 28.947370529174801 17.5 -20 1 0 0 0 0 1 forward_v I I I I #
face_name-twe-attrib $-1 -1 $-1 $21 $16 1 #
model_id-kcp-attrib $-1 -1 $55 $-1 $22 1 1021384707 1021384707 -2051604479 3 #
face $56 -1 $-1 $-1 $57 $8 $-1 $58 forward single #
loop $59 -1 $-1 $-1 $60 $22 #
plane-surface $61 -1 $-1 -31.949999999999999 7.5 0 -1 0 0 0 1 0 forward_v I I I I #
loop_type-twe-attrib $-1 -1 $-1 $-1 $23 0 #
loop $62 -1 $-1 $-1 $63 $16 #
coedge $-1 -1 $-1 $38 $38 $60 $64 reversed $23 $-1 #
surf-twe-attrib $-1 -1 $-1 $-1 $24 6 #
face $-1 -1 $-1 $65 $66 $18 $-1 $67 reversed single #
loop $-1 -1 $-1 $-1 $68 $25 #
plane-surface $-1 -1 $-1 -30.4486855 17.500000000000014 -5 0 0 -1 0 1 0 forward_v I I I I #
model_id-kcp-attrib $-1 -1 $-1 $-1 $26 1 1021384707 1021384707 -2051604478 6 #
face $69 -1 $-1 $70 $71 $19 $-1 $72 reversed single #
loop $-1 -1 $-1 $-1 $73 $26 #
plane-surface $-1 -1 $-1 0 0 20 0 0 1 1 0 0 forward_v I I I I #
face_name-twe-attrib $-1 -1 $-1 $27 $20 4 #
model_id-kcp-attrib $-1 -1 $74 $-1 $28 1 1021384707 1021384707 -2051604479 6 #
face $75 -1 $-1 $76 $77 $15 $-1 $78 reversed single #
loop $79 -1 $-1 $-1 $80 $28 #
plane-surface $81 -1 $-1 0 17.5 0 0 -1 0 0 0 -1 forward_v I I I I #
loop_type-twe-attrib $-1 -1 $-1 $-1 $29 0 #
coedge $-1 -1 $-1 $82 $83 $84 $85 reversed $29 $-1 #
surf-twe-attrib $-1 -1 $-1 $-1 $30 7 #
face_name-twe-attrib $-1 -1 $-1 $32 $22 2 #
model_id-kcp-attrib $-1 -1 $86 $-1 $33 1 1021384707 1021384707 -2051604479 4 #
loop $87 -1 $-1 $-1 $88 $33 #
plane-surface $89 -1 $-1 -28.949999999999999 7.5 0 1 0 0 0 -1 0 forward_v I I I I #
loop_type-twe-attrib $-1 -1 $-1 $-1 $34 0 #
coedge $-1 -1 $-1 $60 $60 $38 $64 forward $34 $-1 #
surf-twe-attrib $-1 -1 $-1 $-1 $35 9 #
loop_type-twe-attrib $-1 -1 $-1 $-1 $37 1 #
coedge $-1 -1 $-1 $63 $63 $88 $90 reversed $37 $-1 #
edge $91 -1 $-1 $92 0 $92 6.2831853071795862 $60 $93 forward @7 unknown #
face $-1 -1 $-1 $94 $95 $18 $-1 $96 reversed single #
loop $-1 -1 $-1 $-1 $97 $40 #
plane-surface $-1 -1 $-1 -27.4486855 17.500000000000014 0 1 0 0 0 1 0 forward_v I I I I #
coedge $-1 -1 $-1 $98 $99 $100 $101 reversed $41 $-1 #
model_id-kcp-attrib $-1 -1 $-1 $-1 $44 1 1021384707 1021384707 -2051604478 4 #
face $102 -1 $-1 $103 $104 $19 $-1 $105 reversed single #
loop $-1 -1 $-1 $-1 $106 $44 #
plane-surface $-1 -1 $-1 0 0 -20 0 0 1 1 0 0 forward_v I I I I #
coedge $-1 -1 $-1 $107 $108 $109 $110 forward $45 $-1 #
face_name-twe-attrib $-1 -1 $-1 $48 $28 5 #
model_id-kcp-attrib $-1 -1 $111 $-1 $49 1 1021384707 1021384707 -2051604479 7 #
face $112 -1 $-1 $113 $114 $15 $-1 $115 forward single #
loop $116 -1 $-1 $-1 $117 $49 #
plane-surface $118 -1 $-1 0 0 -20 0 0 1 1 0 0 forward_v I I I I #
loop_type-twe-attrib $-1 -1 $-1 $-1 $50 0 #
coedge $-1 -1 $-1 $119 $120 $121 $122 forward $50 $-1 #
surf-twe-attrib $-1 -1 $-1 $-1 $51 13 #
coedge $-1 -1 $-1 $121 $53 $117 $123 reversed $29 $-1 #
coedge $-1 -1 $-1 $53 $121 $124 $125 reversed $29 $-1 #
coedge $-1 -1 $-1 $126 $127 $53 $85 forward $128 $-1 #
edge $129 -1 $-1 $130 0 $131 40 $84 $132 forward @7 unknown #
face_name-twe-attrib $-1 -1 $-1 $56 $33 3 #
loop_type-twe-attrib $-1 -1 $-1 $-1 $57 0 #
coedge $-1 -1 $-1 $88 $88 $63 $90 forward $57 $-1 #
surf-twe-attrib $-1 -1 $-1 $-1 $58 17 #
edge $133 -1 $-1 $134 0 $134 6.2831853071795862 $88 $135 forward @7 unknown #
model_id-kcp-attrib $-1 -1 $136 $-1 $64 1 1021384707 1021384707 -2051604479 15 #
vertex $-1 -1 $-1 $64 $137 #
ellipse-curve $138 -1 $-1 -31.949999999999999 7.5 0 -1 0 0 0 -5 0 1 I I #
face $-1 -1 $-1 $139 $140 $18 $-1 $141 reversed single #
loop $-1 -1 $-1 $-1 $142 $65 #
plane-surface $-1 -1 $-1 -27.4486855 17.500000000000014 5 0 0 1 0 -1 0 forward_v I I I I #
coedge $-1 -1 $-1 $143 $144 $145 $146 reversed $66 $-1 #
coedge $-1 -1 $-1 $147 $68 $144 $148 reversed $41 $-1 #
coedge $-1 -1 $-1 $68 $147 $149 $150 reversed $41 $-1 #
coedge $-1 -1 $-1 $151 $145 $68 $101 forward $140 $-1 #
edge $-1 -1 $-1 $152 12.22434275 $153 15.22434275 $100 $154 forward @7 unknown #
model_id-kcp-attrib $-1 -1 $-1 $-1 $70 1 1021384707 1021384707 -2051604478 5 #
face $155 -1 $-1 $156 $157 $19 $-1 $158 reversed single #
loop $-1 -1 $-1 $-1 $159 $70 #
plane-surface $-1 -1 $-1 0 -17.500000000000014 0 0 1 0 0 0 1 forward_v I I I I #
coedge $-1 -1 $-1 $160 $161 $162 $163 forward $71 $-1 #
coedge $-1 -1 $-1 $164 $73 $165 $166 forward $45 $-1 #
coedge $-1 -1 $-1 $73 $164 $167 $168 forward $45 $-1 #
coedge $-1 -1 $-1 $169 $170 $73 $110 reversed $171 $-1 #
edge $-1 -1 $-1 $172 -17.500000000000014 $173 17.500000000000014 $109 $174 forward @7 unknown #
face_name-twe-attrib $-1 -1 $-1 $75 $49 6 #
model_id-kcp-attrib $-1 -1 $175 $-1 $76 1 1021384707 1021384707 -2051604479 8 #
face $176 -1 $-1 $177 $178 $15 $-1 $179 reversed single #
loop $180 -1 $-1 $-1 $181 $76 #
plane-surface $182 -1 $-1 -28.947370529174801 -17.5 -20 -1 0 0 0 0 1 forward_v I I I I #
loop_type-twe-attrib $-1 -1 $-1 $-1 $77 0 #
coedge $-1 -1 $-1 $183 $184 $82 $123 forward $77 $-1 #
surf-twe-attrib $-1 -1 $-1 $-1 $78 25 #
coedge $-1 -1 $-1 $185 $80 $184 $186 reversed $50 $-1 #
coedge $-1 -1 $-1 $80 $185 $187 $188 reversed $50 $-1 #
coedge $-1 -1 $-1 $83 $82 $80 $122 reversed $29 $-1 #
edge $189 -1 $-1 $190 -30 $191 10 $80 $192 forward @7 unknown #
edge $193 -1 $-1 $191 -8.75 $130 -2.2245781355931999 $117 $194 forward @7 unknown #
coedge $-1 -1 $-1 $187 $195 $83 $125 forward $196 $-1 #
edge $197 -1 $-1 $131 2.2245781355931999 $190 8.75 $124 $198 forward @7 unknown #
coedge $-1 -1 $-1 $199 $84 $195 $200 reversed $128 $-1 #
coedge $-1 -1 $-1 $84 $199 $183 $201 reversed $128 $-1 #
loop $202 -1 $-1 $-1 $126 $203 #
attrib_edge_convexity-kcp-attrib $-1 -1 $204 $-1 $85 1 #
vertex $-1 -1 $-1 $201 $205 #
vertex $-1 -1 $-1 $200 $206 #
straight-curve $207 -1 $-1 28.947371 10.9745781355932 -20 0 0 1 I I #
edge_name-twe-attrib $-1 -1 $-1 $-1 $90 2 8704 #
vertex $-1 -1 $-1 $90 $208 #
ellipse-curve $209 -1 $-1 -28.949999999999999 7.5 0 1 0 0 0 -5 0 1 I I #
attrib_edge_convexity-kcp-attrib $-1 -1 $210 $91 $64 1 #
point $-1 -1 $-1 -31.949999999999999 2.5 0 #
cur-twe-attrib $-1 -1 $-1 $-1 $93 39 #
face $-1 -1 $-1 $211 $212 $18 $-1 $213 reversed single #
loop $-1 -1 $-1 $-1 $214 $94 #
plane-surface $-1 -1 $-1 0 -17.500000000000014 0 0 1 0 0 0 1 forward_v I I I I #
coedge $-1 -1 $-1 $215 $216 $214 $217 reversed $95 $-1 #
coedge $-1 -1 $-1 $218 $97 $216 $219 reversed $66 $-1 #
coedge $-1 -1 $-1 $97 $218 $98 $148 forward $66 $-1 #
coedge $-1 -1 $-1 $100 $214 $97 $146 forward $140 $-1 #
edge $-1 -1 $-1 $220 -5 $152 5 $145 $221 forward @7 unknown #
coedge $-1 -1 $-1 $99 $98 $222 $223 reversed $41 $-1 #
edge $-1 -1 $-1 $224 0 $152 35.000000000000028 $98 $225 forward @7 unknown #
coedge $-1 -1 $-1 $226 $227 $99 $150 forward $212 $-1 #
edge $-1 -1 $-1 $153 -26.250000000000021 $228 8.7500000000000071 $149 $229 forward @7 unknown #
coedge $-1 -1 $-1 $230 $100 $227 $231 forward $140 $-1 #
vertex $-1 -1 $-1 $146 $232 #
vertex $-1 -1 $-1 $231 $233 #
straight-curve $-1 -1 $-1 -15.22434275 -17.500000000000014 -5 -1 0 0 I I #
model_id-kcp-attrib $-1 -1 $-1 $-1 $103 1 1021384707 1021384707 -2051604478 2 #
face $234 -1 $-1 $235 $236 $19 $-1 $237 reversed single #
loop $-1 -1 $-1 $-1 $238 $103 #
plane-surface $-1 -1 $-1 -30.4486855 0 0 1 0 0 0 0 -1 forward_v I I I I #
coedge $-1 -1 $-1 $239 $167 $240 $241 forward $104 $-1 #
coedge $-1 -1 $-1 $242 $106 $239 $243 forward $71 $-1 #
coedge $-1 -1 $-1 $106 $242 $244 $245 forward $71 $-1 #
coedge $-1 -1 $-1 $170 $169 $106 $163 reversed $171 $-1 #
edge $-1 -1 $-1 $246 -17.500000000000014 $247 17.500000000000014 $162 $248 forward @7 unknown #
coedge $-1 -1 $-1 $108 $107 $249 $250 forward $45 $-1 #
coedge $-1 -1 $-1 $251 $252 $107 $166 reversed $236 $-1 #
edge $-1 -1 $-1 $173 -30.4486855 $253 30.4486855 $165 $254 forward @7 unknown #
coedge $-1 -1 $-1 $159 $255 $108 $168 reversed $104 $-1 #
edge $-1 -1 $-1 $256 -30.4486855 $172 30.4486855 $167 $257 forward @7 unknown #
coedge $-1 -1 $-1 $162 $109 $255 $258 forward $171 $-1 #
coedge $-1 -1 $-1 $109 $162 $251 $259 reversed $171 $-1 #
loop $-1 -1 $-1 $-1 $169 $235 #
vertex $-1 -1 $-1 $110 $260 #
vertex $-1 -1 $-1 $110 $261 #
straight-curve $-1 -1 $-1 30.4486855 0 20 0 1 0 I I #
face_name-twe-attrib $-1 -1 $-1 $112 $76 7 #
model_id-kcp-attrib $-1 -1 $262 $-1 $113 1 1021384707 1021384707 -2051604479 9 #
face $263 -1 $-1 $264 $265 $15 $-1 $266 reversed single #
loop $267 -1 $-1 $-1 $268 $113 #
plane-surface $269 -1 $-1 0 -17.5 0 0 1 0 0 0 1 forward_v I I I I #
loop_type-twe-attrib $-1 -1 $-1 $-1 $114 0 #
coedge $-1 -1 $-1 $270 $271 $268 $272 reversed $114 $-1 #
surf-twe-attrib $-1 -1 $-1 $-1 $115 41 #
coedge $-1 -1 $-1 $273 $117 $127 $201 forward $77 $-1 #
coedge $-1 -1 $-1 $117 $274 $119 $186 forward $77 $-1 #
coedge $-1 -1 $-1 $120 $119 $275 $276 forward $50 $-1 #
edge $277 -1 $-1 $278 -28.947370529174801 $191 28.947370529174801 $119 $279 forward @7 unknown #
coedge $-1 -1 $-1 $280 $124 $120 $188 forward $196 $-1 #
edge $281 -1 $-1 $190 -28.947370529174801 $282 28.947370529174801 $120 $283 forward @7 unknown #
attrib_edge_convexity-kcp-attrib $-1 -1 $284 $-1 $122 1 #
vertex $-1 -1 $-1 $125 $285 #
vertex $-1 -1 $-1 $186 $286 #
straight-curve $287 -1 $-1 28.947370529174801 17.5 -10 0 0 -1 I I #
attrib_edge_convexity-kcp-attrib $-1 -1 $288 $-1 $123 1 #
straight-curve $289 -1 $-1 28.947370529174801 8.75 -20 0 -1 0 I I #
coedge $-1 -1 $-1 $124 $290 $126 $200 forward $196 $-1 #
loop $291 -1 $-1 $-1 $124 $264 #
edge_name-twe-attrib $-1 -1 $-1 $-1 $125 16 8704 #
straight-curve $292 -1 $-1 28.947370529174801 8.75 20 0 1 0 I I #
coedge $-1 -1 $-1 $127 $126 $293 $294 forward $128 $-1 #
edge $295 -1 $-1 $296 3.4944083701063762 $131 19.504172698909976 $195 $297 forward @7 unknown #
edge $298 -1 $-1 $130 -19.504172698909976 $299 -3.4944083701063762 $183 $300 forward @7 unknown #
loop_type-twe-attrib $-1 -1 $-1 $-1 $128 0 #
face $301 -1 $-1 $-1 $128 $15 $-1 $302 reversed single #
convexity-sys-attrib $-1 -1 $303 $129 $85 #
point $-1 -1 $-1 28.947371 10.9745781355932 -20 #
point $-1 -1 $-1 28.947371 10.9745781355932 20 #
cur-twe-attrib $-1 -1 $-1 $-1 $132 50 #
point $-1 -1 $-1 -28.949999999999999 2.5 0 #
cur-twe-attrib $-1 -1 $-1 $-1 $135 54 #
convexity-sys-attrib $-1 -1 $304 $136 $64 #
face $-1 -1 $-1 $305 $306 $18 $-1 $307 forward single #
loop $-1 -1 $-1 $-1 $149 $139 #
plane-surface $-1 -1 $-1 -30.4486855 0 0 1 0 0 0 0 -1 forward_v I I I I #
coedge $-1 -1 $-1 $145 $308 $142 $217 forward $140 $-1 #
coedge $-1 -1 $-1 $309 $142 $310 $311 reversed $95 $-1 #
coedge $-1 -1 $-1 $142 $309 $143 $219 forward $95 $-1 #
edge $-1 -1 $-1 $312 -16.724342749999998 $220 -13.72434275 $214 $313 forward @7 unknown #
coedge $-1 -1 $-1 $144 $143 $314 $315 reversed $66 $-1 #
edge $-1 -1 $-1 $316 0 $220 35.000000000000028 $143 $317 forward @7 unknown #
vertex $-1 -1 $-1 $146 $318 #
straight-curve $-1 -1 $-1 -27.4486855 -17.500000000000014 0 0 0 -1 I I #
coedge $-1 -1 $-1 $314 $319 $147 $223 forward $320 $-1 #
edge $-1 -1 $-1 $228 -15.22434275 $224 -12.22434275 $222 $321 forward @7 unknown #
vertex $-1 -1 $-1 $315 $322 #
straight-curve $-1 -1 $-1 -27.4486855 17.500000000000014 -5 0 -1 0 I I #
coedge $-1 -1 $-1 $323 $149 $319 $324 forward $212 $-1 #
coedge $-1 -1 $-1 $149 $323 $151 $231 reversed $212 $-1 #
vertex $-1 -1 $-1 $324 $325 #
straight-curve $-1 -1 $-1 -30.4486855 8.7500000000000071 -5 0 1 0 I I #
coedge $-1 -1 $-1 $326 $151 $327 $328 reversed $140 $-1 #
edge $-1 -1 $-1 $153 5 $329 20 $227 $330 forward @7 unknown #
point $-1 -1 $-1 -27.4486855 -17.500000000000014 -5 #
point $-1 -1 $-1 -30.4486855 -17.500000000000014 -5 #
model_id-kcp-attrib $-1 -1 $-1 $-1 $156 1 1021384707 1021384707 -2051604478 3 #
face $-1 -1 $-1 $-1 $171 $19 $-1 $331 reversed single #
loop $-1 -1 $-1 $-1 $251 $156 #
plane-surface $-1 -1 $-1 0 17.500000000000014 0 0 -1 0 0 0 -1 forward_v I I I I #
coedge $-1 -1 $-1 $332 $249 $252 $333 forward $157 $-1 #
coedge $-1 -1 $-1 $255 $159 $160 $243 reversed $104 $-1 #
coedge $-1 -1 $-1 $249 $332 $159 $241 reversed $157 $-1 #
edge $-1 -1 $-1 $256 -20 $334 20 $240 $335 forward @7 unknown #
coedge $-1 -1 $-1 $161 $160 $332 $336 forward $71 $-1 #
edge $-1 -1 $-1 $247 -30.4486855 $334 30.4486855 $239 $337 forward @7 unknown #
coedge $-1 -1 $-1 $252 $251 $161 $245 reversed $236 $-1 #
edge $-1 -1 $-1 $338 -30.4486855 $246 30.4486855 $244 $339 forward @7 unknown #
vertex $-1 -1 $-1 $163 $340 #
vertex $-1 -1 $-1 $258 $341 #
straight-curve $-1 -1 $-1 30.4486855 0 -20 0 -1 0 I I #
coedge $-1 -1 $-1 $238 $240 $164 $250 reversed $157 $-1 #
edge $-1 -1 $-1 $253 -17.500000000000014 $256 17.500000000000014 $249 $342 forward @7 unknown #
coedge $-1 -1 $-1 $244 $165 $170 $259 forward $236 $-1 #
coedge $-1 -1 $-1 $165 $244 $238 $333 reversed $236 $-1 #
vertex $-1 -1 $-1 $166 $343 #
straight-curve $-1 -1 $-1 0 17.500000000000014 20 -1 0 0 I I #
coedge $-1 -1 $-1 $167 $239 $169 $258 reversed $104 $-1 #
vertex $-1 -1 $-1 $250 $344 #
straight-curve $-1 -1 $-1 0 -17.500000000000014 20 1 0 0 I I #
edge $-1 -1 $-1 $172 -20 $247 20 $169 $345 forward @7 unknown #
edge $-1 -1 $-1 $173 -20 $246 20 $170 $346 forward @7 unknown #
point $-1 -1 $-1 30.4486855 -17.500000000000014 20 #
point $-1 -1 $-1 30.4486855 17.500000000000014 20 #
face_name-twe-attrib $-1 -1 $-1 $176 $113 8 #
model_id-kcp-attrib $-1 -1 $347 $-1 $177 1 1021384707 1021384707 -2051604479 10 #
face $348 -1 $-1 $349 $196 $15 $-1 $350 forward single #
loop $351 -1 $-1 $-1 $352 $177 #
plane-surface $353 -1 $-1 -18.981269305084801 -17.5 -20 -0.8892878023181473 0.45734801262076119 0 0 0 -1 forward_v I I I I #
loop_type-twe-attrib $-1 -1 $-1 $-1 $178 0 #
coedge $-1 -1 $-1 $354 $355 $181 $272 forward $178 $-1 #
surf-twe-attrib $-1 -1 $-1 $-1 $179 59 #
coedge $-1 -1 $-1 $275 $181 $280 $356 reversed $114 $-1 #
coedge $-1 -1 $-1 $181 $275 $274 $357 reversed $114 $-1 #
edge $358 -1 $-1 $359 -30 $360 10 $268 $361 forward @7 unknown #
coedge $-1 -1 $-1 $362 $183 $363 $364 forward $77 $-1 #
coedge $-1 -1 $-1 $184 $365 $271 $357 forward $77 $-1 #
coedge $-1 -1 $-1 $271 $270 $185 $276 reversed $114 $-1 #
edge $366 -1 $-1 $278 -10 $282 30 $185 $367 forward @7 unknown #
attrib_edge_convexity-kcp-attrib $-1 -1 $368 $-1 $186 1 #
vertex $-1 -1 $-1 $276 $369 #
straight-curve $370 -1 $-1 0 17.5 -20 1 0 0 I I #
coedge $-1 -1 $-1 $371 $187 $270 $356 forward $196 $-1 #
attrib_edge_convexity-kcp-attrib $-1 -1 $372 $-1 $188 1 #
vertex $-1 -1 $-1 $188 $373 #
straight-curve $374 -1 $-1 0 17.5 20 -1 0 0 I I #
convexity-sys-attrib $-1 -1 $375 $189 $122 #
point $-1 -1 $-1 28.947370529174801 17.5 20 #
point $-1 -1 $-1 28.947370529174801 17.5 -20 #
cur-twe-attrib $-1 -1 $-1 $-1 $192 68 #
convexity-sys-attrib $-1 -1 $376 $193 $123 #
cur-twe-attrib $-1 -1 $-1 $-1 $194 69 #
coedge $-1 -1 $-1 $195 $377 $378 $379 forward $196 $-1 #
loop_type-twe-attrib $-1 -1 $-1 $-1 $196 0 #
cur-twe-attrib $-1 -1 $-1 $-1 $198 71 #
coedge $-1 -1 $-1 $378 $363 $199 $294 reversed $380 $-1 #
edge $381 -1 $-1 $296 -40 $299 0 $199 $382 reversed @7 unknown #
attrib_edge_convexity-kcp-attrib $-1 -1 $383 $-1 $200 1 #
vertex $-1 -1 $-1 $200 $384 #
straight-curve $385 -1 $-1 20.027176378341402 -6.3702447398540398 20 0.45734801262076102 0.88928780231814697 0 I I #
attrib_edge_convexity-kcp-attrib $-1 -1 $386 $-1 $201 1 #
vertex $-1 -1 $-1 $201 $387 #
straight-curve $388 -1 $-1 20.027176378341402 -6.3702447398540398 -20 -0.45734801262076102 -0.88928780231814697 0 I I #
model_id-kcp-attrib $-1 -1 $389 $-1 $203 1 1021384707 1021384707 -2051604479 13 #
plane-surface $390 -1 $-1 21.6253371016949 -3.2627100000000002 -20 -0.8892878023181473 0.45734801262076119 0 0 0 -1 forward_v I I I I #
edge_name-twe-attrib $-1 -1 $-1 $204 $85 23 8448 #
edge_name-twe-attrib $-1 -1 $-1 $210 $64 1 8704 #
face $-1 -1 $-1 $391 $392 $18 $-1 $393 reversed single #
loop $-1 -1 $-1 $-1 $394 $211 #
plane-surface $-1 -1 $-1 0 0 20 0 0 1 1 0 0 forward_v I I I I #
coedge $-1 -1 $-1 $214 $395 $396 $397 forward $140 $-1 #
coedge $-1 -1 $-1 $216 $215 $398 $399 reversed $95 $-1 #
coedge $-1 -1 $-1 $396 $400 $215 $311 forward $401 $-1 #
edge $-1 -1 $-1 $402 -8.7500000000000071 $312 26.250000000000021 $310 $403 forward @7 unknown #
vertex $-1 -1 $-1 $311 $404 #
straight-curve $-1 -1 $-1 -13.72434275 -17.500000000000014 5 1 0 0 I I #
coedge $-1 -1 $-1 $398 $222 $218 $315 forward $320 $-1 #
edge $-1 -1 $-1 $224 -5 $316 5 $314 $405 forward @7 unknown #
vertex $-1 -1 $-1 $315 $406 #
straight-curve $-1 -1 $-1 -27.4486855 17.500000000000014 5 0 -1 0 I I #
point $-1 -1 $-1 -27.4486855 -17.500000000000014 5 #
coedge $-1 -1 $-1 $222 $407 $226 $324 reversed $320 $-1 #
loop $-1 -1 $-1 $-1 $398 $408 #
straight-curve $-1 -1 $-1 -15.22434275 17.500000000000014 -5 1 0 0 I I #
point $-1 -1 $-1 -27.4486855 17.500000000000014 -5 #
coedge $-1 -1 $-1 $227 $226 $409 $410 reversed $212 $-1 #
edge $-1 -1 $-1 $228 5 $411 20 $319 $412 forward @7 unknown #
point $-1 -1 $-1 -30.4486855 17.500000000000014 -5 #
coedge $-1 -1 $-1 $395 $230 $413 $414 reversed $140 $-1 #
coedge $-1 -1 $-1 $409 $415 $230 $328 forward $392 $-1 #
edge $-1 -1 $-1 $416 -30.4486855 $329 30.4486855 $230 $417 forward @7 unknown #
vertex $-1 -1 $-1 $410 $418 #
straight-curve $-1 -1 $-1 -30.4486855 -17.500000000000014 0 0 0 -1 I I #
plane-surface $-1 -1 $-1 30.4486855 0 0 -1 0 0 0 0 1 forward_v I I I I #
coedge $-1 -1 $-1 $240 $238 $242 $336 reversed $157 $-1 #
edge $-1 -1 $-1 $253 -20 $338 20 $252 $419 forward @7 unknown #
vertex $-1 -1 $-1 $336 $420 #
straight-curve $-1 -1 $-1 -30.4486855 -17.500000000000014 0 0 0 -1 I I #
edge $-1 -1 $-1 $334 -17.500000000000014 $338 17.500000000000014 $332 $421 forward @7 unknown #
straight-curve $-1 -1 $-1 0 -17.500000000000014 -20 -1 0 0 I I #
vertex $-1 -1 $-1 $245 $422 #
straight-curve $-1 -1 $-1 0 17.500000000000014 -20 1 0 0 I I #
point $-1 -1 $-1 30.4486855 17.500000000000014 -20 #
point $-1 -1 $-1 30.4486855 -17.500000000000014 -20 #
straight-curve $-1 -1 $-1 -30.4486855 0 20 0 -1 0 I I #
point $-1 -1 $-1 -30.4486855 17.500000000000014 20 #
point $-1 -1 $-1 -30.4486855 -17.500000000000014 20 #
straight-curve $-1 -1 $-1 30.4486855 -17.500000000000014 0 0 0 -1 I I #
straight-curve $-1 -1 $-1 30.4486855 17.500000000000014 0 0 0 -1 I I #
face_name-twe-attrib $-1 -1 $-1 $263 $177 9 #
model_id-kcp-attrib $-1 -1 $423 $-1 $264 1 1021384707 1021384707 -2051604479 11 #
face $424 -1 $-1 $203 $380 $15 $-1 $425 forward single #
plane-surface $426 -1 $-1 0 0 20 0 0 1 1 0 0 forward_v I I I I #
loop_type-twe-attrib $-1 -1 $-1 $-1 $265 0 #
coedge $-1 -1 $-1 $427 $428 $377 $429 reversed $265 $-1 #
surf-twe-attrib $-1 -1 $-1 $-1 $266 85 #
coedge $-1 -1 $-1 $430 $268 $365 $431 reversed $178 $-1 #
coedge $-1 -1 $-1 $268 $430 $371 $432 reversed $178 $-1 #
edge $433 -1 $-1 $282 -26.25 $359 8.75 $280 $434 forward @7 unknown #
edge $435 -1 $-1 $360 -8.75 $278 26.25 $274 $436 forward @7 unknown #
edge_name-twe-attrib $-1 -1 $-1 $-1 $272 12 8704 #
vertex $-1 -1 $-1 $356 $437 #
vertex $-1 -1 $-1 $431 $438 #
straight-curve $439 -1 $-1 -28.947370529174801 -17.5 -10 0 0 -1 I I #
coedge $-1 -1 $-1 $365 $273 $440 $441 forward $77 $-1 #
coedge $-1 -1 $-1 $293 $442 $273 $364 reversed $380 $-1 #
edge $443 -1 $-1 $299 -17.303303101694901 $444 15.981269000000001 $273 $445 forward @7 unknown #
coedge $-1 -1 $-1 $274 $362 $354 $431 forward $77 $-1 #
attrib_edge_convexity-kcp-attrib $-1 -1 $446 $-1 $276 1 #
straight-curve $447 -1 $-1 -28.947370529174801 17.5 -10 0 0 1 I I #
convexity-sys-attrib $-1 -1 $448 $277 $186 #
point $-1 -1 $-1 -28.947370529174801 17.5 -20 #
cur-twe-attrib $-1 -1 $-1 $-1 $279 94 #
coedge $-1 -1 $-1 $377 $280 $355 $432 forward $196 $-1 #
convexity-sys-attrib $-1 -1 $449 $281 $188 #
point $-1 -1 $-1 -28.947370529174801 17.5 20 #
cur-twe-attrib $-1 -1 $-1 $-1 $283 96 #
edge_name-twe-attrib $-1 -1 $-1 $284 $122 3 8704 #
edge_name-twe-attrib $-1 -1 $-1 $288 $123 7 8704 #
coedge $-1 -1 $-1 $290 $371 $352 $429 forward $196 $-1 #
coedge $-1 -1 $-1 $442 $293 $290 $379 reversed $380 $-1 #
edge $450 -1 $-1 $451 -15.981269000000001 $296 17.303303101694901 $290 $452 forward @7 unknown #
loop $453 -1 $-1 $-1 $378 $349 #
attrib_edge_convexity-kcp-attrib $-1 -1 $454 $-1 $294 1 #
straight-curve $455 -1 $-1 21.6253371016949 -3.2627100000000002 -20 0 0 1 I I #
convexity-sys-attrib $-1 -1 $456 $295 $200 #
point $-1 -1 $-1 21.6253371016949 -3.2627100000000002 20 #
cur-twe-attrib $-1 -1 $-1 $-1 $297 108 #
convexity-sys-attrib $-1 -1 $457 $298 $201 #
point $-1 -1 $-1 21.6253371016949 -3.2627100000000002 -20 #
cur-twe-attrib $-1 -1 $-1 $-1 $300 109 #
face_name-twe-attrib $-1 -1 $-1 $301 $203 12 #
surf-twe-attrib $-1 -1 $-1 $-1 $302 111 #
face $-1 -1 $-1 $408 $401 $18 $-1 $213 reversed single #
loop $-1 -1 $-1 $-1 $415 $305 #
plane-surface $-1 -1 $-1 0 0 -20 0 0 1 1 0 0 forward_v I I I I #
coedge $-1 -1 $-1 $458 $459 $460 $461 forward $306 $-1 #
coedge $-1 -1 $-1 $308 $326 $459 $462 reversed $140 $-1 #
coedge $-1 -1 $-1 $463 $310 $308 $397 reversed $401 $-1 #
edge $-1 -1 $-1 $464 -20 $312 -5 $396 $330 forward @7 unknown #
coedge $-1 -1 $-1 $465 $314 $309 $399 forward $320 $-1 #
edge $-1 -1 $-1 $316 13.72434275 $402 16.724342749999998 $398 $466 forward @7 unknown #
coedge $-1 -1 $-1 $310 $463 $465 $467 forward $401 $-1 #
loop $-1 -1 $-1 $-1 $310 $391 #
vertex $-1 -1 $-1 $399 $468 #
straight-curve $-1 -1 $-1 -30.4486855 8.7500000000000071 5 0 -1 0 I I #
point $-1 -1 $-1 -30.4486855 -17.500000000000014 5 #
straight-curve $-1 -1 $-1 -27.4486855 17.500000000000014 0 0 0 1 I I #
point $-1 -1 $-1 -27.4486855 17.500000000000014 5 #
coedge $-1 -1 $-1 $319 $469 $470 $471 reversed $320 $-1 #
face $-1 -1 $-1 $472 $320 $18 $-1 $473 reversed single #
coedge $-1 -1 $-1 $470 $327 $323 $410 forward $392 $-1 #
edge $-1 -1 $-1 $329 -17.500000000000014 $411 17.500000000000014 $323 $474 forward @7 unknown #
vertex $-1 -1 $-1 $471 $475 #
straight-curve $-1 -1 $-1 -30.4486855 17.500000000000014 0 0 0 -1 I I #
coedge $-1 -1 $-1 $476 $460 $326 $414 forward $477 $-1 #
edge $-1 -1 $-1 $478 -20 $416 20 $413 $479 forward @7 unknown #
coedge $-1 -1 $-1 $327 $470 $476 $480 forward $392 $-1 #
vertex $-1 -1 $-1 $414 $481 #
straight-curve $-1 -1 $-1 0 -17.500000000000014 -20 -1 0 0 I I #
point $-1 -1 $-1 -30.4486855 -17.500000000000014 -20 #
straight-curve $-1 -1 $-1 -30.4486855 17.500000000000014 0 0 0 -1 I I #
point $-1 -1 $-1 -30.4486855 -17.500000000000014 -20 #
straight-curve $-1 -1 $-1 -30.4486855 0 -20 0 1 0 I I #
point $-1 -1 $-1 -30.4486855 17.500000000000014 -20 #
face_name-twe-attrib $-1 -1 $-1 $348 $264 10 #
model_id-kcp-attrib $-1 -1 $482 $-1 $349 1 1021384707 1021384707 -2051604479 12 #
plane-surface $483 -1 $-1 8.6440680000000008 -3.2627100000000002 0 0 -1 0 -1 0 0 forward_v I I I I #
surf-twe-attrib $-1 -1 $-1 $-1 $350 118 #
coedge $-1 -1 $-1 $440 $352 $430 $484 reversed $265 $-1 #
coedge $-1 -1 $-1 $352 $440 $442 $485 reversed $265 $-1 #
edge $486 -1 $-1 $487 -12.121791167133809 $451 3.8879750057039 $377 $488 forward @7 unknown #
coedge $-1 -1 $-1 $355 $354 $427 $484 forward $178 $-1 #
edge $489 -1 $-1 $490 18.981269305084801 $360 28.947370529174801 $354 $491 forward @7 unknown #
edge $492 -1 $-1 $359 -28.947370529174801 $487 -18.981269305084801 $355 $493 forward @7 unknown #
edge_name-twe-attrib $-1 -1 $-1 $-1 $356 17 8704 #
straight-curve $494 -1 $-1 -28.947370529174801 -8.75 20 0 -1 0 I I #
attrib_edge_convexity-kcp-attrib $-1 -1 $495 $-1 $357 1 #
straight-curve $496 -1 $-1 -28.947370529174801 -8.75 -20 0 1 0 I I #
point $-1 -1 $-1 -28.947370529174801 -17.5 20 #
point $-1 -1 $-1 -28.947370529174801 -17.5 -20 #
cur-twe-attrib $-1 -1 $-1 $-1 $361 126 #
coedge $-1 -1 $-1 $428 $427 $362 $441 reversed $265 $-1 #
edge $497 -1 $-1 $444 -3.8879750057039 $490 12.121791167133809 $362 $498 forward @7 unknown #
coedge $-1 -1 $-1 $363 $378 $428 $485 forward $380 $-1 #
attrib_edge_convexity-kcp-attrib $-1 -1 $499 $-1 $364 1 #
vertex $-1 -1 $-1 $364 $500 #
straight-curve $501 -1 $-1 4.3220340000000004 -3.2627100000000002 -20 -1 0 0 I I #
convexity-sys-attrib $-1 -1 $502 $366 $276 #
cur-twe-attrib $-1 -1 $-1 $-1 $367 130 #
edge_name-twe-attrib $-1 -1 $-1 $368 $186 4 8704 #
edge_name-twe-attrib $-1 -1 $-1 $372 $188 6 8704 #
attrib_edge_convexity-kcp-attrib $-1 -1 $503 $-1 $379 1 #
vertex $-1 -1 $-1 $379 $504 #
straight-curve $505 -1 $-1 4.3220340000000004 -3.2627100000000002 20 1 0 0 I I #
loop_type-twe-attrib $-1 -1 $-1 $-1 $380 0 #
convexity-sys-attrib $-1 -1 $506 $381 $294 #
cur-twe-attrib $-1 -1 $-1 $-1 $382 146 #
edge_name-twe-attrib $-1 -1 $-1 $383 $200 20 8704 #
edge_name-twe-attrib $-1 -1 $-1 $386 $201 8 8704 #
coedge $-1 -1 $-1 $507 $394 $508 $509 forward $306 $-1 #
coedge $-1 -1 $-1 $394 $507 $395 $462 forward $306 $-1 #
coedge $-1 -1 $-1 $413 $510 $394 $461 reversed $477 $-1 #
edge $-1 -1 $-1 $478 -17.500000000000014 $511 17.500000000000014 $460 $512 forward @7 unknown #
edge $-1 -1 $-1 $464 -30.4486855 $478 30.4486855 $395 $513 forward @7 unknown #
coedge $-1 -1 $-1 $400 $396 $507 $514 reversed $401 $-1 #
vertex $-1 -1 $-1 $514 $515 #
coedge $-1 -1 $-1 $508 $398 $400 $467 reversed $320 $-1 #
straight-curve $-1 -1 $-1 -13.72434275 17.500000000000014 5 -1 0 0 I I #
edge $-1 -1 $-1 $516 -20 $402 -5 $465 $412 forward @7 unknown #
point $-1 -1 $-1 -30.4486855 17.500000000000014 5 #
coedge $-1 -1 $-1 $407 $508 $510 $517 forward $320 $-1 #
coedge $-1 -1 $-1 $415 $409 $407 $471 forward $392 $-1 #
edge $-1 -1 $-1 $411 -30.4486855 $518 30.4486855 $407 $519 forward @7 unknown #
face $-1 -1 $-1 $-1 $477 $18 $-1 $520 reversed single #
plane-surface $-1 -1 $-1 0 17.500000000000014 0 0 -1 0 0 0 -1 forward_v I I I I #
straight-curve $-1 -1 $-1 -30.4486855 0 -20 0 1 0 I I #
point $-1 -1 $-1 -30.4486855 17.500000000000014 -20 #
coedge $-1 -1 $-1 $510 $413 $415 $480 reversed $477 $-1 #
loop $-1 -1 $-1 $-1 $413 $472 #
vertex $-1 -1 $-1 $461 $521 #
straight-curve $-1 -1 $-1 30.4486855 -17.500000000000014 0 0 0 -1 I I #
edge $-1 -1 $-1 $518 -17.500000000000014 $416 17.500000000000014 $476 $522 forward @7 unknown #
point $-1 -1 $-1 30.4486855 -17.500000000000014 -20 #
face_name-twe-attrib $-1 -1 $-1 $424 $349 11 #
surf-twe-attrib $-1 -1 $-1 $-1 $425 156 #
edge $523 -1 $-1 $490 -10 $487 30 $430 $524 forward @7 unknown #
edge $525 -1 $-1 $451 -20 $444 20 $442 $526 reversed @7 unknown #
attrib_edge_convexity-kcp-attrib $-1 -1 $527 $-1 $429 1 #
vertex $-1 -1 $-1 $432 $528 #
straight-curve $529 -1 $-1 -13.4373922053922 -6.7202389728200798 20 0.45734801262076102 0.88928780231814697 0 I I #
attrib_edge_convexity-kcp-attrib $-1 -1 $530 $-1 $431 1 #
vertex $-1 -1 $-1 $441 $531 #
straight-curve $532 -1 $-1 0 -17.5 -20 -1 0 0 I I #
edge_name-twe-attrib $-1 -1 $-1 $-1 $432 15 8704 #
straight-curve $533 -1 $-1 0 -17.5 20 1 0 0 I I #
cur-twe-attrib $-1 -1 $-1 $-1 $434 163 #
convexity-sys-attrib $-1 -1 $534 $435 $357 #
cur-twe-attrib $-1 -1 $-1 $-1 $436 164 #
attrib_edge_convexity-kcp-attrib $-1 -1 $535 $-1 $441 1 #
straight-curve $536 -1 $-1 -13.4373922053922 -6.7202389728200798 -20 -0.45734801262076102 -0.88928780231814697 0 I I #
convexity-sys-attrib $-1 -1 $537 $443 $364 #
point $-1 -1 $-1 -11.659235000000001 -3.2627100000000002 -20 #
cur-twe-attrib $-1 -1 $-1 $-1 $445 171 #
edge_name-twe-attrib $-1 -1 $-1 $446 $276 5 8704 #
convexity-sys-attrib $-1 -1 $538 $450 $379 #
point $-1 -1 $-1 -11.659235000000001 -3.2627100000000002 20 #
cur-twe-attrib $-1 -1 $-1 $-1 $452 182 #
edge_name-twe-attrib $-1 -1 $-1 $454 $294 22 8448 #
coedge $-1 -1 $-1 $459 $458 $463 $514 forward $306 $-1 #
coedge $-1 -1 $-1 $469 $465 $458 $509 reversed $320 $-1 #
edge $-1 -1 $-1 $511 -30.4486855 $516 30.4486855 $508 $539 forward @7 unknown #
coedge $-1 -1 $-1 $460 $476 $469 $517 reversed $477 $-1 #
vertex $-1 -1 $-1 $461 $540 #
straight-curve $-1 -1 $-1 30.4486855 0 20 0 1 0 I I #
straight-curve $-1 -1 $-1 0 -17.500000000000014 20 1 0 0 I I #
edge $-1 -1 $-1 $516 -17.500000000000014 $464 17.500000000000014 $463 $541 forward @7 unknown #
point $-1 -1 $-1 -30.4486855 -17.500000000000014 20 #
vertex $-1 -1 $-1 $509 $542 #
edge $-1 -1 $-1 $511 -20 $518 20 $510 $543 forward @7 unknown #
vertex $-1 -1 $-1 $480 $544 #
straight-curve $-1 -1 $-1 0 17.500000000000014 -20 1 0 0 I I #
plane-surface $-1 -1 $-1 30.4486855 0 0 -1 0 0 0 0 1 forward_v I I I I #
point $-1 -1 $-1 30.4486855 -17.500000000000014 20 #
straight-curve $-1 -1 $-1 30.4486855 0 -20 0 -1 0 I I #
attrib_edge_convexity-kcp-attrib $-1 -1 $545 $-1 $484 1 #
straight-curve $546 -1 $-1 -18.981269305084801 -17.5 -10 0 0 1 I I #
attrib_edge_convexity-kcp-attrib $-1 -1 $547 $-1 $485 2 #
straight-curve $548 -1 $-1 -11.659235000000001 -3.2627100000000002 0 0 0 1 I I #
convexity-sys-attrib $-1 -1 $549 $486 $429 #
point $-1 -1 $-1 -18.981269305084801 -17.5 20 #
cur-twe-attrib $-1 -1 $-1 $-1 $488 196 #
convexity-sys-attrib $-1 -1 $550 $489 $431 #
point $-1 -1 $-1 -18.981269305084801 -17.5 -20 #
cur-twe-attrib $-1 -1 $-1 $-1 $491 198 #
cur-twe-attrib $-1 -1 $-1 $-1 $493 199 #
edge_name-twe-attrib $-1 -1 $-1 $495 $357 11 8704 #
convexity-sys-attrib $-1 -1 $551 $497 $441 #
cur-twe-attrib $-1 -1 $-1 $-1 $498 208 #
edge_name-twe-attrib $-1 -1 $-1 $499 $364 9 8704 #
edge_name-twe-attrib $-1 -1 $-1 $503 $379 19 8704 #
straight-curve $-1 -1 $-1 0 17.500000000000014 20 -1 0 0 I I #
point $-1 -1 $-1 30.4486855 17.500000000000014 20 #
straight-curve $-1 -1 $-1 -30.4486855 0 20 0 -1 0 I I #
point $-1 -1 $-1 -30.4486855 17.500000000000014 20 #
straight-curve $-1 -1 $-1 30.4486855 17.500000000000014 0 0 0 -1 I I #
point $-1 -1 $-1 30.4486855 17.500000000000014 -20 #
convexity-sys-attrib $-1 -1 $552 $523 $484 #
cur-twe-attrib $-1 -1 $-1 $-1 $524 220 #
convexity-sys-attrib $-1 -1 $553 $525 $485 #
cur-twe-attrib $-1 -1 $-1 $-1 $526 221 #
edge_name-twe-attrib $-1 -1 $-1 $527 $429 18 8704 #
edge_name-twe-attrib $-1 -1 $-1 $530 $431 13 8704 #
edge_name-twe-attrib $-1 -1 $-1 $535 $441 10 8704 #
edge_name-twe-attrib $-1 -1 $-1 $545 $484 14 8448 #
edge_name-twe-attrib $-1 -1 $-1 $547 $485 21 4352 #
End-of-ACIS-data 