600 0 2 0           
24 FBMach with ACIS - 6.0.3 13 ACIS 6.0.3 NT 24 Wed May 23 21:06:17 2001 
1 9.9999999999999995e-007 1e-010 
body $2 $3 $-1 $4 #
bdycol-kcp $-1 1 2 $5 $6 #
model_id-kcp-attrib $-1 $-1 $-1 $0 1 990666377 60 -415498239 1 #
lump $-1 $7 $8 $0 #
transform $-1 1.0000000000000002 0 0 0 1.0000000000000002 0 0 0 1 -7.1054273576010019e-015 0 0 1 rotate no_reflect no_shear #
body $9 $10 $-1 $11 #
body $12 $13 $-1 $14 #
lump $-1 $-1 $15 $0 #
shell $-1 $-1 $-1 $16 $-1 $3 #
model_id-kcp-attrib $-1 $-1 $-1 $5 1 990666377 70 -414842878 1 #
lump $-1 $-1 $17 $5 #
transform $-1 1 0 0 0 1 0 0 0 1 -1.5013144999999994 -1.5987211554602254e-014 0 1 no_rotate no_reflect no_shear #
rgb_color-st-attrib $-1 $18 $-1 $6 0.5 1 1 #
lump $-1 $-1 $19 $6 #
transform $-1 1 0 0 0 1 0 0 0 1 -1.5013144999999994 -1.5987211554602254e-014 0 1 no_rotate no_reflect no_shear #
shell $-1 $-1 $-1 $20 $-1 $7 #
face $21 $22 $23 $8 $-1 $24 forward single #
shell $-1 $-1 $-1 $25 $-1 $10 #
model_id-kcp-attrib $-1 $-1 $12 $6 1 990666377 200 -406323197 1 #
shell $-1 $-1 $-1 $26 $-1 $13 #
face $27 $28 $29 $15 $-1 $30 forward single #
model_id-kcp-attrib $-1 $31 $-1 $16 1 990666377 60 -415498239 2 #
face $32 $33 $34 $8 $-1 $35 forward single #
loop $36 $37 $38 $16 #
cone-surface $39 -30.449999999999999 7.5 0 1 0 0 0 -5 0 1 I I 0 1 5 forward I I I I #
face $40 $41 $42 $17 $-1 $43 forward single #
face $-1 $44 $45 $19 $-1 $46 reversed single #
model_id-kcp-attrib $-1 $47 $-1 $20 1 990666377 60 -415498239 5 #
face $48 $49 $50 $15 $-1 $51 reversed single #
loop $52 $-1 $53 $20 #
plane-surface $54 28.947370529174801 17.5 -20 1 0 0 0 0 1 forward_v I I I I #
face_name-twe-attrib $-1 $-1 $21 $16 1 #
model_id-kcp-attrib $-1 $55 $-1 $22 1 990666377 60 -415498239 3 #
face $56 $-1 $57 $8 $-1 $58 forward single #
loop $59 $-1 $60 $22 #
plane-surface $61 -31.949999999999999 7.5 0 -1 0 0 0 1 0 forward_v I I I I #
loop_type-twe-attrib $-1 $-1 $-1 $23 0 #
loop $62 $-1 $63 $16 #
coedge $-1 $38 $38 $60 $64 reversed $23 $-1 #
surf-twe-attrib $-1 $-1 $-1 $24 6 #
model_id-kcp-attrib $-1 $-1 $-1 $25 1 990666377 70 -414842878 6 #
face $65 $66 $67 $17 $-1 $68 reversed single #
loop $-1 $-1 $69 $25 #
plane-surface $-1 0 0 20 0 0 1 1 0 0 forward_v I I I I #
face $-1 $70 $71 $19 $-1 $72 reversed single #
loop $-1 $-1 $73 $26 #
plane-surface $-1 -30.4486855 17.500000000000014 -5 0 0 -1 0 1 0 forward_v I I I I #
face_name-twe-attrib $-1 $-1 $27 $20 4 #
model_id-kcp-attrib $-1 $74 $-1 $28 1 990666377 60 -415498239 14 #
face $75 $76 $77 $15 $-1 $78 reversed single #
loop $79 $-1 $80 $28 #
plane-surface $81 0 17.5 0 0 -1 0 0 0 -1 forward_v I I I I #
loop_type-twe-attrib $-1 $-1 $-1 $29 0 #
coedge $-1 $82 $83 $84 $85 reversed $29 $-1 #
surf-twe-attrib $-1 $-1 $-1 $30 7 #
face_name-twe-attrib $-1 $-1 $32 $22 2 #
model_id-kcp-attrib $-1 $86 $-1 $33 1 990666377 60 -415498239 4 #
loop $87 $-1 $88 $33 #
plane-surface $89 -28.949999999999999 7.5 0 1 0 0 0 -1 0 forward_v I I I I #
loop_type-twe-attrib $-1 $-1 $-1 $34 0 #
coedge $-1 $60 $60 $38 $64 forward $34 $-1 #
surf-twe-attrib $-1 $-1 $-1 $35 9 #
loop_type-twe-attrib $-1 $-1 $-1 $37 1 #
coedge $-1 $63 $63 $88 $90 reversed $37 $-1 #
edge $91 $92 0 $92 6.2831853071795862 $60 $93 forward 7 unknown #
model_id-kcp-attrib $-1 $-1 $-1 $41 1 990666377 70 -414842878 4 #
face $94 $95 $96 $17 $-1 $97 reversed single #
loop $-1 $-1 $98 $41 #
plane-surface $-1 0 0 -20 0 0 1 1 0 0 forward_v I I I I #
coedge $-1 $99 $100 $101 $102 forward $42 $-1 #
face $-1 $103 $104 $19 $-1 $105 reversed single #
loop $-1 $-1 $106 $44 #
plane-surface $-1 -27.4486855 17.500000000000014 0 1 0 0 0 1 0 forward_v I I I I #
coedge $-1 $107 $108 $109 $110 reversed $45 $-1 #
model_id-kcp-attrib $-1 $111 $48 $28 1 990666377 60 -415498239 6 #
model_id-kcp-attrib $-1 $112 $-1 $49 1 990666377 60 -415498239 7 #
face $113 $114 $115 $15 $-1 $116 forward single #
loop $117 $-1 $118 $49 #
plane-surface $119 0 0 -20 0 0 1 1 0 0 forward_v I I I I #
loop_type-twe-attrib $-1 $-1 $-1 $50 0 #
coedge $-1 $120 $121 $122 $123 forward $50 $-1 #
surf-twe-attrib $-1 $-1 $-1 $51 13 #
coedge $-1 $122 $53 $118 $124 reversed $29 $-1 #
coedge $-1 $53 $122 $125 $126 reversed $29 $-1 #
coedge $-1 $127 $128 $53 $85 forward $129 $-1 #
edge $130 $131 0 $132 40 $84 $133 forward 7 unknown #
face_name-twe-attrib $-1 $-1 $56 $33 3 #
loop_type-twe-attrib $-1 $-1 $-1 $57 0 #
coedge $-1 $88 $88 $63 $90 forward $57 $-1 #
surf-twe-attrib $-1 $-1 $-1 $58 17 #
edge $134 $135 0 $135 6.2831853071795862 $88 $136 forward 7 unknown #
model_id-kcp-attrib $-1 $137 $-1 $64 1 990666377 60 -415498239 15 #
vertex $-1 $64 $138 #
ellipse-curve $139 -31.949999999999999 7.5 0 -1 0 0 0 -5 0 1 I I #
model_id-kcp-attrib $-1 $-1 $-1 $66 1 990666377 70 -414842878 5 #
face $140 $141 $142 $17 $-1 $143 reversed single #
loop $-1 $-1 $144 $66 #
plane-surface $-1 0 -17.500000000000014 0 0 1 0 0 0 1 forward_v I I I I #
coedge $-1 $145 $146 $147 $148 forward $67 $-1 #
coedge $-1 $149 $69 $150 $151 forward $42 $-1 #
coedge $-1 $69 $149 $152 $153 forward $42 $-1 #
coedge $-1 $154 $155 $69 $102 reversed $156 $-1 #
edge $-1 $157 -17.500000000000014 $158 17.500000000000014 $101 $159 forward 7 unknown #
face $-1 $160 $161 $19 $-1 $162 reversed single #
loop $-1 $-1 $163 $70 #
plane-surface $-1 -27.4486855 17.500000000000014 5 0 0 1 0 -1 0 forward_v I I I I #
coedge $-1 $164 $165 $166 $167 reversed $71 $-1 #
coedge $-1 $168 $73 $165 $169 reversed $45 $-1 #
coedge $-1 $73 $168 $170 $171 reversed $45 $-1 #
coedge $-1 $172 $166 $73 $110 forward $161 $-1 #
edge $-1 $173 12.22434275 $174 15.22434275 $109 $175 forward 7 unknown #
face_name-twe-attrib $-1 $-1 $74 $28 5 #
face_name-twe-attrib $-1 $-1 $75 $49 6 #
model_id-kcp-attrib $-1 $176 $-1 $76 1 990666377 60 -415498239 8 #
face $177 $178 $179 $15 $-1 $180 reversed single #
loop $181 $-1 $182 $76 #
plane-surface $183 -28.947370529174801 -17.5 -20 -1 0 0 0 0 1 forward_v I I I I #
loop_type-twe-attrib $-1 $-1 $-1 $77 0 #
coedge $-1 $184 $185 $82 $124 forward $77 $-1 #
surf-twe-attrib $-1 $-1 $-1 $78 25 #
coedge $-1 $186 $80 $185 $187 reversed $50 $-1 #
coedge $-1 $80 $186 $188 $189 reversed $50 $-1 #
coedge $-1 $83 $82 $80 $123 reversed $29 $-1 #
edge $190 $191 -30 $192 10 $80 $193 forward 7 unknown #
edge $194 $192 -8.75 $131 -2.2245781355931999 $118 $195 forward 7 unknown #
coedge $-1 $188 $196 $83 $126 forward $197 $-1 #
edge $198 $132 2.2245781355931999 $191 8.75 $125 $199 forward 7 unknown #
coedge $-1 $200 $84 $196 $201 reversed $129 $-1 #
coedge $-1 $84 $200 $184 $202 reversed $129 $-1 #
loop $203 $-1 $127 $204 #
attrib_edge_convexity-kcp-attrib $-1 $205 $-1 $85 1 #
vertex $-1 $202 $206 #
vertex $-1 $201 $207 #
straight-curve $208 28.947371 10.9745781355932 -20 0 0 1 I I #
edge_name-twe-attrib $-1 $-1 $-1 $90 2 8704 #
vertex $-1 $90 $209 #
ellipse-curve $210 -28.949999999999999 7.5 0 1 0 0 0 -5 0 1 I I #
attrib_edge_convexity-kcp-attrib $-1 $211 $91 $64 1 #
point $-1 -31.949999999999999 2.5 0 #
cur-twe-attrib $-1 $-1 $-1 $93 39 #
model_id-kcp-attrib $-1 $-1 $-1 $95 1 990666377 70 -414842878 2 #
face $212 $213 $214 $17 $-1 $215 reversed single #
loop $-1 $-1 $216 $95 #
plane-surface $-1 -30.4486855 0 0 1 0 0 0 0 -1 forward_v I I I I #
coedge $-1 $217 $152 $218 $219 forward $96 $-1 #
coedge $-1 $220 $98 $217 $221 forward $67 $-1 #
coedge $-1 $98 $220 $222 $223 forward $67 $-1 #
coedge $-1 $155 $154 $98 $148 reversed $156 $-1 #
edge $-1 $224 -17.500000000000014 $225 17.500000000000014 $147 $226 forward 7 unknown #
coedge $-1 $100 $99 $227 $228 forward $42 $-1 #
coedge $-1 $229 $230 $99 $151 reversed $214 $-1 #
edge $-1 $158 -30.4486855 $231 30.4486855 $150 $232 forward 7 unknown #
coedge $-1 $144 $233 $100 $153 reversed $96 $-1 #
edge $-1 $234 -30.4486855 $157 30.4486855 $152 $235 forward 7 unknown #
coedge $-1 $147 $101 $233 $236 forward $156 $-1 #
coedge $-1 $101 $147 $229 $237 reversed $156 $-1 #
loop $-1 $-1 $154 $213 #
vertex $-1 $102 $238 #
vertex $-1 $102 $239 #
straight-curve $-1 30.4486855 0 20 0 1 0 I I #
face $-1 $240 $241 $19 $-1 $242 reversed single #
loop $-1 $-1 $243 $103 #
plane-surface $-1 0 -17.500000000000014 0 0 1 0 0 0 1 forward_v I I I I #
coedge $-1 $244 $245 $243 $246 reversed $104 $-1 #
coedge $-1 $247 $106 $245 $248 reversed $71 $-1 #
coedge $-1 $106 $247 $107 $169 forward $71 $-1 #
coedge $-1 $109 $243 $106 $167 forward $161 $-1 #
edge $-1 $249 -5 $173 5 $166 $250 forward 7 unknown #
coedge $-1 $108 $107 $251 $252 reversed $45 $-1 #
edge $-1 $253 0 $173 35.000000000000028 $107 $254 forward 7 unknown #
coedge $-1 $255 $256 $108 $171 forward $241 $-1 #
edge $-1 $174 -26.250000000000021 $257 8.7500000000000071 $170 $258 forward 7 unknown #
coedge $-1 $259 $109 $256 $260 forward $161 $-1 #
vertex $-1 $167 $261 #
vertex $-1 $260 $262 #
straight-curve $-1 -15.22434275 -17.500000000000014 -5 -1 0 0 I I #
face_name-twe-attrib $-1 $-1 $113 $76 7 #
model_id-kcp-attrib $-1 $263 $-1 $114 1 990666377 60 -415498239 9 #
face $264 $265 $266 $15 $-1 $267 reversed single #
loop $268 $-1 $269 $114 #
plane-surface $270 0 -17.5 0 0 1 0 0 0 1 forward_v I I I I #
loop_type-twe-attrib $-1 $-1 $-1 $115 0 #
coedge $-1 $271 $272 $269 $273 reversed $115 $-1 #
surf-twe-attrib $-1 $-1 $-1 $116 41 #
coedge $-1 $274 $118 $128 $202 forward $77 $-1 #
coedge $-1 $118 $275 $120 $187 forward $77 $-1 #
coedge $-1 $121 $120 $276 $277 forward $50 $-1 #
edge $278 $279 -28.947370529174801 $192 28.947370529174801 $120 $280 forward 7 unknown #
coedge $-1 $281 $125 $121 $189 forward $197 $-1 #
edge $282 $191 -28.947370529174801 $283 28.947370529174801 $121 $284 forward 7 unknown #
attrib_edge_convexity-kcp-attrib $-1 $285 $-1 $123 1 #
vertex $-1 $126 $286 #
vertex $-1 $187 $287 #
straight-curve $288 28.947370529174801 17.5 -10 0 0 -1 I I #
attrib_edge_convexity-kcp-attrib $-1 $289 $-1 $124 1 #
straight-curve $290 28.947370529174801 8.75 -20 0 -1 0 I I #
coedge $-1 $125 $291 $127 $201 forward $197 $-1 #
loop $292 $-1 $125 $265 #
edge_name-twe-attrib $-1 $-1 $-1 $126 16 8704 #
straight-curve $293 28.947370529174801 8.75 20 0 1 0 I I #
coedge $-1 $128 $127 $294 $295 forward $129 $-1 #
edge $296 $297 3.4944083701063762 $132 19.504172698909976 $196 $298 forward 7 unknown #
edge $299 $131 -19.504172698909976 $300 -3.4944083701063762 $184 $301 forward 7 unknown #
loop_type-twe-attrib $-1 $-1 $-1 $129 0 #
face $302 $-1 $129 $15 $-1 $303 reversed single #
convexity-sys-attrib $-1 $304 $130 $85 #
point $-1 28.947371 10.9745781355932 -20 #
point $-1 28.947371 10.9745781355932 20 #
cur-twe-attrib $-1 $-1 $-1 $133 50 #
point $-1 -28.949999999999999 2.5 0 #
cur-twe-attrib $-1 $-1 $-1 $136 54 #
convexity-sys-attrib $-1 $305 $137 $64 #
model_id-kcp-attrib $-1 $-1 $-1 $141 1 990666377 70 -414842878 3 #
face $-1 $-1 $156 $17 $-1 $306 reversed single #
loop $-1 $-1 $229 $141 #
plane-surface $-1 0 17.500000000000014 0 0 -1 0 0 0 -1 forward_v I I I I #
coedge $-1 $307 $227 $230 $308 forward $142 $-1 #
coedge $-1 $233 $144 $145 $221 reversed $96 $-1 #
coedge $-1 $227 $307 $144 $219 reversed $142 $-1 #
edge $-1 $234 -20 $309 20 $218 $310 forward 7 unknown #
coedge $-1 $146 $145 $307 $311 forward $67 $-1 #
edge $-1 $225 -30.4486855 $309 30.4486855 $217 $312 forward 7 unknown #
coedge $-1 $230 $229 $146 $223 reversed $214 $-1 #
edge $-1 $313 -30.4486855 $224 30.4486855 $222 $314 forward 7 unknown #
vertex $-1 $148 $315 #
vertex $-1 $236 $316 #
straight-curve $-1 30.4486855 0 -20 0 -1 0 I I #
coedge $-1 $216 $218 $149 $228 reversed $142 $-1 #
edge $-1 $231 -17.500000000000014 $234 17.500000000000014 $227 $317 forward 7 unknown #
coedge $-1 $222 $150 $155 $237 forward $214 $-1 #
coedge $-1 $150 $222 $216 $308 reversed $214 $-1 #
vertex $-1 $151 $318 #
straight-curve $-1 0 17.500000000000014 20 -1 0 0 I I #
coedge $-1 $152 $217 $154 $236 reversed $96 $-1 #
vertex $-1 $228 $319 #
straight-curve $-1 0 -17.500000000000014 20 1 0 0 I I #
edge $-1 $157 -20 $225 20 $154 $320 forward 7 unknown #
edge $-1 $158 -20 $224 20 $155 $321 forward 7 unknown #
point $-1 30.4486855 -17.500000000000014 20 #
point $-1 30.4486855 17.500000000000014 20 #
face $-1 $322 $323 $19 $-1 $324 forward single #
loop $-1 $-1 $170 $160 #
plane-surface $-1 -30.4486855 0 0 1 0 0 0 0 -1 forward_v I I I I #
coedge $-1 $166 $325 $163 $246 forward $161 $-1 #
coedge $-1 $326 $163 $327 $328 reversed $104 $-1 #
coedge $-1 $163 $326 $164 $248 forward $104 $-1 #
edge $-1 $329 -16.724342749999998 $249 -13.72434275 $243 $330 forward 7 unknown #
coedge $-1 $165 $164 $331 $332 reversed $71 $-1 #
edge $-1 $333 0 $249 35.000000000000028 $164 $334 forward 7 unknown #
vertex $-1 $167 $335 #
straight-curve $-1 -27.4486855 -17.500000000000014 0 0 0 -1 I I #
coedge $-1 $331 $336 $168 $252 forward $337 $-1 #
edge $-1 $257 -15.22434275 $253 -12.22434275 $251 $338 forward 7 unknown #
vertex $-1 $332 $339 #
straight-curve $-1 -27.4486855 17.500000000000014 -5 0 -1 0 I I #
coedge $-1 $340 $170 $336 $341 forward $241 $-1 #
coedge $-1 $170 $340 $172 $260 reversed $241 $-1 #
vertex $-1 $341 $342 #
straight-curve $-1 -30.4486855 8.7500000000000071 -5 0 1 0 I I #
coedge $-1 $343 $172 $344 $345 reversed $161 $-1 #
edge $-1 $174 5 $346 20 $256 $347 forward 7 unknown #
point $-1 -27.4486855 -17.500000000000014 -5 #
point $-1 -30.4486855 -17.500000000000014 -5 #
face_name-twe-attrib $-1 $-1 $177 $114 8 #
model_id-kcp-attrib $-1 $348 $-1 $178 1 990666377 60 -415498239 10 #
face $349 $350 $197 $15 $-1 $351 forward single #
loop $352 $-1 $353 $178 #
plane-surface $354 -18.981269305084801 -17.5 -20 -0.8892878023181473 0.45734801262076119 0 0 0 -1 forward_v I I I I #
loop_type-twe-attrib $-1 $-1 $-1 $179 0 #
coedge $-1 $355 $356 $182 $273 forward $179 $-1 #
surf-twe-attrib $-1 $-1 $-1 $180 59 #
coedge $-1 $276 $182 $281 $357 reversed $115 $-1 #
coedge $-1 $182 $276 $275 $358 reversed $115 $-1 #
edge $359 $360 -30 $361 10 $269 $362 forward 7 unknown #
coedge $-1 $363 $184 $364 $365 forward $77 $-1 #
coedge $-1 $185 $366 $272 $358 forward $77 $-1 #
coedge $-1 $272 $271 $186 $277 reversed $115 $-1 #
edge $367 $279 -10 $283 30 $186 $368 forward 7 unknown #
attrib_edge_convexity-kcp-attrib $-1 $369 $-1 $187 1 #
vertex $-1 $277 $370 #
straight-curve $371 0 17.5 -20 1 0 0 I I #
coedge $-1 $372 $188 $271 $357 forward $197 $-1 #
attrib_edge_convexity-kcp-attrib $-1 $373 $-1 $189 1 #
vertex $-1 $189 $374 #
straight-curve $375 0 17.5 20 -1 0 0 I I #
convexity-sys-attrib $-1 $376 $190 $123 #
point $-1 28.947370529174801 17.5 20 #
point $-1 28.947370529174801 17.5 -20 #
cur-twe-attrib $-1 $-1 $-1 $193 68 #
convexity-sys-attrib $-1 $377 $194 $124 #
cur-twe-attrib $-1 $-1 $-1 $195 69 #
coedge $-1 $196 $378 $379 $380 forward $197 $-1 #
loop_type-twe-attrib $-1 $-1 $-1 $197 0 #
cur-twe-attrib $-1 $-1 $-1 $199 71 #
coedge $-1 $379 $364 $200 $295 reversed $381 $-1 #
edge $382 $297 -40 $300 0 $200 $383 reversed 7 unknown #
attrib_edge_convexity-kcp-attrib $-1 $384 $-1 $201 1 #
vertex $-1 $201 $385 #
straight-curve $386 20.027176378341402 -6.3702447398540398 20 0.45734801262076102 0.88928780231814697 0 I I #
attrib_edge_convexity-kcp-attrib $-1 $387 $-1 $202 1 #
vertex $-1 $202 $388 #
straight-curve $389 20.027176378341402 -6.3702447398540398 -20 -0.45734801262076102 -0.88928780231814697 0 I I #
model_id-kcp-attrib $-1 $390 $-1 $204 1 990666377 60 -415498239 13 #
plane-surface $391 21.6253371016949 -3.2627100000000002 -20 -0.8892878023181473 0.45734801262076119 0 0 0 -1 forward_v I I I I #
edge_name-twe-attrib $-1 $-1 $205 $85 23 8448 #
edge_name-twe-attrib $-1 $-1 $211 $64 1 8704 #
plane-surface $-1 30.4486855 0 0 -1 0 0 0 0 1 forward_v I I I I #
coedge $-1 $218 $216 $220 $311 reversed $142 $-1 #
edge $-1 $231 -20 $313 20 $230 $392 forward 7 unknown #
vertex $-1 $311 $393 #
straight-curve $-1 -30.4486855 -17.500000000000014 0 0 0 -1 I I #
edge $-1 $309 -17.500000000000014 $313 17.500000000000014 $307 $394 forward 7 unknown #
straight-curve $-1 0 -17.500000000000014 -20 -1 0 0 I I #
vertex $-1 $223 $395 #
straight-curve $-1 0 17.500000000000014 -20 1 0 0 I I #
point $-1 30.4486855 17.500000000000014 -20 #
point $-1 30.4486855 -17.500000000000014 -20 #
straight-curve $-1 -30.4486855 0 20 0 -1 0 I I #
point $-1 -30.4486855 17.500000000000014 20 #
point $-1 -30.4486855 -17.500000000000014 20 #
straight-curve $-1 30.4486855 -17.500000000000014 0 0 0 -1 I I #
straight-curve $-1 30.4486855 17.500000000000014 0 0 0 -1 I I #
face $-1 $396 $397 $19 $-1 $398 reversed single #
loop $-1 $-1 $399 $240 #
plane-surface $-1 0 0 20 0 0 1 1 0 0 forward_v I I I I #
coedge $-1 $243 $400 $401 $402 forward $161 $-1 #
coedge $-1 $245 $244 $403 $404 reversed $104 $-1 #
coedge $-1 $401 $405 $244 $328 forward $406 $-1 #
edge $-1 $407 -8.7500000000000071 $329 26.250000000000021 $327 $408 forward 7 unknown #
vertex $-1 $328 $409 #
straight-curve $-1 -13.72434275 -17.500000000000014 5 1 0 0 I I #
coedge $-1 $403 $251 $247 $332 forward $337 $-1 #
edge $-1 $253 -5 $333 5 $331 $410 forward 7 unknown #
vertex $-1 $332 $411 #
straight-curve $-1 -27.4486855 17.500000000000014 5 0 -1 0 I I #
point $-1 -27.4486855 -17.500000000000014 5 #
coedge $-1 $251 $412 $255 $341 reversed $337 $-1 #
loop $-1 $-1 $403 $413 #
straight-curve $-1 -15.22434275 17.500000000000014 -5 1 0 0 I I #
point $-1 -27.4486855 17.500000000000014 -5 #
coedge $-1 $256 $255 $414 $415 reversed $241 $-1 #
edge $-1 $257 5 $416 20 $336 $417 forward 7 unknown #
point $-1 -30.4486855 17.500000000000014 -5 #
coedge $-1 $400 $259 $418 $419 reversed $161 $-1 #
coedge $-1 $414 $420 $259 $345 forward $397 $-1 #
edge $-1 $421 -30.4486855 $346 30.4486855 $259 $422 forward 7 unknown #
vertex $-1 $415 $423 #
straight-curve $-1 -30.4486855 -17.500000000000014 0 0 0 -1 I I #
face_name-twe-attrib $-1 $-1 $264 $178 9 #
model_id-kcp-attrib $-1 $424 $-1 $265 1 990666377 60 -415498239 11 #
face $425 $204 $381 $15 $-1 $426 forward single #
plane-surface $427 0 0 20 0 0 1 1 0 0 forward_v I I I I #
loop_type-twe-attrib $-1 $-1 $-1 $266 0 #
coedge $-1 $428 $429 $378 $430 reversed $266 $-1 #
surf-twe-attrib $-1 $-1 $-1 $267 85 #
coedge $-1 $431 $269 $366 $432 reversed $179 $-1 #
coedge $-1 $269 $431 $372 $433 reversed $179 $-1 #
edge $434 $283 -26.25 $360 8.75 $281 $435 forward 7 unknown #
edge $436 $361 -8.75 $279 26.25 $275 $437 forward 7 unknown #
edge_name-twe-attrib $-1 $-1 $-1 $273 12 8704 #
vertex $-1 $357 $438 #
vertex $-1 $432 $439 #
straight-curve $440 -28.947370529174801 -17.5 -10 0 0 -1 I I #
coedge $-1 $366 $274 $441 $442 forward $77 $-1 #
coedge $-1 $294 $443 $274 $365 reversed $381 $-1 #
edge $444 $300 -17.303303101694901 $445 15.981269000000001 $274 $446 forward 7 unknown #
coedge $-1 $275 $363 $355 $432 forward $77 $-1 #
attrib_edge_convexity-kcp-attrib $-1 $447 $-1 $277 1 #
straight-curve $448 -28.947370529174801 17.5 -10 0 0 1 I I #
convexity-sys-attrib $-1 $449 $278 $187 #
point $-1 -28.947370529174801 17.5 -20 #
cur-twe-attrib $-1 $-1 $-1 $280 94 #
coedge $-1 $378 $281 $356 $433 forward $197 $-1 #
convexity-sys-attrib $-1 $450 $282 $189 #
point $-1 -28.947370529174801 17.5 20 #
cur-twe-attrib $-1 $-1 $-1 $284 96 #
edge_name-twe-attrib $-1 $-1 $285 $123 3 8704 #
edge_name-twe-attrib $-1 $-1 $289 $124 7 8704 #
coedge $-1 $291 $372 $353 $430 forward $197 $-1 #
coedge $-1 $443 $294 $291 $380 reversed $381 $-1 #
edge $451 $452 -15.981269000000001 $297 17.303303101694901 $291 $453 forward 7 unknown #
loop $454 $-1 $379 $350 #
attrib_edge_convexity-kcp-attrib $-1 $455 $-1 $295 1 #
straight-curve $456 21.6253371016949 -3.2627100000000002 -20 0 0 1 I I #
convexity-sys-attrib $-1 $457 $296 $201 #
point $-1 21.6253371016949 -3.2627100000000002 20 #
cur-twe-attrib $-1 $-1 $-1 $298 108 #
convexity-sys-attrib $-1 $458 $299 $202 #
point $-1 21.6253371016949 -3.2627100000000002 -20 #
cur-twe-attrib $-1 $-1 $-1 $301 109 #
face_name-twe-attrib $-1 $-1 $302 $204 12 #
surf-twe-attrib $-1 $-1 $-1 $303 111 #
straight-curve $-1 -30.4486855 17.500000000000014 0 0 0 -1 I I #
point $-1 -30.4486855 -17.500000000000014 -20 #
straight-curve $-1 -30.4486855 0 -20 0 1 0 I I #
point $-1 -30.4486855 17.500000000000014 -20 #
face $-1 $413 $406 $19 $-1 $242 reversed single #
loop $-1 $-1 $420 $322 #
plane-surface $-1 0 0 -20 0 0 1 1 0 0 forward_v I I I I #
coedge $-1 $459 $460 $461 $462 forward $323 $-1 #
coedge $-1 $325 $343 $460 $463 reversed $161 $-1 #
coedge $-1 $464 $327 $325 $402 reversed $406 $-1 #
edge $-1 $465 -20 $329 -5 $401 $347 forward 7 unknown #
coedge $-1 $466 $331 $326 $404 forward $337 $-1 #
edge $-1 $333 13.72434275 $407 16.724342749999998 $403 $467 forward 7 unknown #
coedge $-1 $327 $464 $466 $468 forward $406 $-1 #
loop $-1 $-1 $327 $396 #
vertex $-1 $404 $469 #
straight-curve $-1 -30.4486855 8.7500000000000071 5 0 -1 0 I I #
point $-1 -30.4486855 -17.500000000000014 5 #
straight-curve $-1 -27.4486855 17.500000000000014 0 0 0 1 I I #
point $-1 -27.4486855 17.500000000000014 5 #
coedge $-1 $336 $470 $471 $472 reversed $337 $-1 #
face $-1 $473 $337 $19 $-1 $474 reversed single #
coedge $-1 $471 $344 $340 $415 forward $397 $-1 #
edge $-1 $346 -17.500000000000014 $416 17.500000000000014 $340 $475 forward 7 unknown #
vertex $-1 $472 $476 #
straight-curve $-1 -30.4486855 17.500000000000014 0 0 0 -1 I I #
coedge $-1 $477 $461 $343 $419 forward $478 $-1 #
edge $-1 $479 -20 $421 20 $418 $480 forward 7 unknown #
coedge $-1 $344 $471 $477 $481 forward $397 $-1 #
vertex $-1 $419 $482 #
straight-curve $-1 0 -17.500000000000014 -20 -1 0 0 I I #
point $-1 -30.4486855 -17.500000000000014 -20 #
face_name-twe-attrib $-1 $-1 $349 $265 10 #
model_id-kcp-attrib $-1 $483 $-1 $350 1 990666377 60 -415498239 12 #
plane-surface $484 8.6440680000000008 -3.2627100000000002 0 0 -1 0 -1 0 0 forward_v I I I I #
surf-twe-attrib $-1 $-1 $-1 $351 118 #
coedge $-1 $441 $353 $431 $485 reversed $266 $-1 #
coedge $-1 $353 $441 $443 $486 reversed $266 $-1 #
edge $487 $488 -12.121791167133809 $452 3.8879750057039 $378 $489 forward 7 unknown #
coedge $-1 $356 $355 $428 $485 forward $179 $-1 #
edge $490 $491 18.981269305084801 $361 28.947370529174801 $355 $492 forward 7 unknown #
edge $493 $360 -28.947370529174801 $488 -18.981269305084801 $356 $494 forward 7 unknown #
edge_name-twe-attrib $-1 $-1 $-1 $357 17 8704 #
straight-curve $495 -28.947370529174801 -8.75 20 0 -1 0 I I #
attrib_edge_convexity-kcp-attrib $-1 $496 $-1 $358 1 #
straight-curve $497 -28.947370529174801 -8.75 -20 0 1 0 I I #
point $-1 -28.947370529174801 -17.5 20 #
point $-1 -28.947370529174801 -17.5 -20 #
cur-twe-attrib $-1 $-1 $-1 $362 126 #
coedge $-1 $429 $428 $363 $442 reversed $266 $-1 #
edge $498 $445 -3.8879750057039 $491 12.121791167133809 $363 $499 forward 7 unknown #
coedge $-1 $364 $379 $429 $486 forward $381 $-1 #
attrib_edge_convexity-kcp-attrib $-1 $500 $-1 $365 1 #
vertex $-1 $365 $501 #
straight-curve $502 4.3220340000000004 -3.2627100000000002 -20 -1 0 0 I I #
convexity-sys-attrib $-1 $503 $367 $277 #
cur-twe-attrib $-1 $-1 $-1 $368 130 #
edge_name-twe-attrib $-1 $-1 $369 $187 4 8704 #
edge_name-twe-attrib $-1 $-1 $373 $189 6 8704 #
edge_name-twe-attrib $-1 $-1 $-1 $380 19 8704 #
vertex $-1 $380 $504 #
straight-curve $505 4.3220340000000004 -3.2627100000000002 20 1 0 0 I I #
loop_type-twe-attrib $-1 $-1 $-1 $381 0 #
convexity-sys-attrib $-1 $506 $382 $295 #
cur-twe-attrib $-1 $-1 $-1 $383 146 #
edge_name-twe-attrib $-1 $-1 $384 $201 20 8704 #
edge_name-twe-attrib $-1 $-1 $387 $202 8 8704 #
coedge $-1 $507 $399 $508 $509 forward $323 $-1 #
coedge $-1 $399 $507 $400 $463 forward $323 $-1 #
coedge $-1 $418 $510 $399 $462 reversed $478 $-1 #
edge $-1 $479 -17.500000000000014 $511 17.500000000000014 $461 $512 forward 7 unknown #
edge $-1 $465 -30.4486855 $479 30.4486855 $400 $513 forward 7 unknown #
coedge $-1 $405 $401 $507 $514 reversed $406 $-1 #
vertex $-1 $514 $515 #
coedge $-1 $508 $403 $405 $468 reversed $337 $-1 #
straight-curve $-1 -13.72434275 17.500000000000014 5 -1 0 0 I I #
edge $-1 $516 -20 $407 -5 $466 $417 forward 7 unknown #
point $-1 -30.4486855 17.500000000000014 5 #
coedge $-1 $412 $508 $510 $517 forward $337 $-1 #
coedge $-1 $420 $414 $412 $472 forward $397 $-1 #
edge $-1 $416 -30.4486855 $518 30.4486855 $412 $519 forward 7 unknown #
face $-1 $-1 $478 $19 $-1 $520 reversed single #
plane-surface $-1 0 17.500000000000014 0 0 -1 0 0 0 -1 forward_v I I I I #
straight-curve $-1 -30.4486855 0 -20 0 1 0 I I #
point $-1 -30.4486855 17.500000000000014 -20 #
coedge $-1 $510 $418 $420 $481 reversed $478 $-1 #
loop $-1 $-1 $418 $473 #
vertex $-1 $462 $521 #
straight-curve $-1 30.4486855 -17.500000000000014 0 0 0 -1 I I #
edge $-1 $518 -17.500000000000014 $421 17.500000000000014 $477 $522 forward 7 unknown #
point $-1 30.4486855 -17.500000000000014 -20 #
face_name-twe-attrib $-1 $-1 $425 $350 11 #
surf-twe-attrib $-1 $-1 $-1 $426 156 #
edge $523 $491 -10 $488 30 $431 $524 forward 7 unknown #
edge $525 $452 -20 $445 20 $443 $526 reversed 7 unknown #
edge_name-twe-attrib $-1 $-1 $-1 $430 18 8704 #
vertex $-1 $433 $527 #
straight-curve $528 -13.4373922053922 -6.7202389728200798 20 0.45734801262076102 0.88928780231814697 0 I I #
attrib_edge_convexity-kcp-attrib $-1 $529 $-1 $432 1 #
vertex $-1 $442 $530 #
straight-curve $531 0 -17.5 -20 -1 0 0 I I #
edge_name-twe-attrib $-1 $-1 $-1 $433 15 8704 #
straight-curve $532 0 -17.5 20 1 0 0 I I #
cur-twe-attrib $-1 $-1 $-1 $435 163 #
convexity-sys-attrib $-1 $533 $436 $358 #
cur-twe-attrib $-1 $-1 $-1 $437 164 #
attrib_edge_convexity-kcp-attrib $-1 $534 $-1 $442 1 #
straight-curve $535 -13.4373922053922 -6.7202389728200798 -20 -0.45734801262076102 -0.88928780231814697 0 I I #
convexity-sys-attrib $-1 $536 $444 $365 #
point $-1 -11.659235000000001 -3.2627100000000002 -20 #
cur-twe-attrib $-1 $-1 $-1 $446 171 #
edge_name-twe-attrib $-1 $-1 $447 $277 5 8704 #
point $-1 -11.659235000000001 -3.2627100000000002 20 #
cur-twe-attrib $-1 $-1 $-1 $453 182 #
edge_name-twe-attrib $-1 $-1 $455 $295 22 8448 #
coedge $-1 $460 $459 $464 $514 forward $323 $-1 #
coedge $-1 $470 $466 $459 $509 reversed $337 $-1 #
edge $-1 $511 -30.4486855 $516 30.4486855 $508 $537 forward 7 unknown #
coedge $-1 $461 $477 $470 $517 reversed $478 $-1 #
vertex $-1 $462 $538 #
straight-curve $-1 30.4486855 0 20 0 1 0 I I #
straight-curve $-1 0 -17.500000000000014 20 1 0 0 I I #
edge $-1 $516 -17.500000000000014 $465 17.500000000000014 $464 $539 forward 7 unknown #
point $-1 -30.4486855 -17.500000000000014 20 #
vertex $-1 $509 $540 #
edge $-1 $511 -20 $518 20 $510 $541 forward 7 unknown #
vertex $-1 $481 $542 #
straight-curve $-1 0 17.500000000000014 -20 1 0 0 I I #
plane-surface $-1 30.4486855 0 0 -1 0 0 0 0 1 forward_v I I I I #
point $-1 30.4486855 -17.500000000000014 20 #
straight-curve $-1 30.4486855 0 -20 0 -1 0 I I #
edge_name-twe-attrib $-1 $-1 $-1 $485 14 8448 #
straight-curve $543 -18.981269305084801 -17.5 -10 0 0 1 I I #
edge_name-twe-attrib $-1 $-1 $-1 $486 21 4352 #
straight-curve $544 -11.659235000000001 -3.2627100000000002 0 0 0 1 I I #
point $-1 -18.981269305084801 -17.5 20 #
cur-twe-attrib $-1 $-1 $-1 $489 196 #
convexity-sys-attrib $-1 $545 $490 $432 #
point $-1 -18.981269305084801 -17.5 -20 #
cur-twe-attrib $-1 $-1 $-1 $492 198 #
cur-twe-attrib $-1 $-1 $-1 $494 199 #
edge_name-twe-attrib $-1 $-1 $496 $358 11 8704 #
convexity-sys-attrib $-1 $546 $498 $442 #
cur-twe-attrib $-1 $-1 $-1 $499 208 #
edge_name-twe-attrib $-1 $-1 $500 $365 9 8704 #
straight-curve $-1 0 17.500000000000014 20 -1 0 0 I I #
point $-1 30.4486855 17.500000000000014 20 #
straight-curve $-1 -30.4486855 0 20 0 -1 0 I I #
point $-1 -30.4486855 17.500000000000014 20 #
straight-curve $-1 30.4486855 17.500000000000014 0 0 0 -1 I I #
point $-1 30.4486855 17.500000000000014 -20 #
cur-twe-attrib $-1 $-1 $-1 $524 220 #
cur-twe-attrib $-1 $-1 $-1 $526 221 #
edge_name-twe-attrib $-1 $-1 $529 $432 13 8704 #
edge_name-twe-attrib $-1 $-1 $534 $442 10 8704 #
End-of-ACIS-data 