600 0 1 0           
117 GICL ACIS Healer - Source: /gicl/data5/repository/ICEM-CDC/Fixture_Models/bluco_412158_III/bluco_412158_III.sat - 6 0 18 ACIS 6.0.3 Solaris 24 Sat Apr 13 23:05:37 2002 
1 9.999999999999999547e-07 1.000000000000000036e-10 
body $-1 $1 $-1 $2 #
lump $-1 $3 $4 $0 #
transform $-1 1 0 0 0 1 0 0 0 1 0 0 0 1 no_rotate no_reflect no_shear #
lump $-1 $-1 $5 $0 #
shell $-1 $-1 $-1 $6 $-1 $1 #
shell $-1 $-1 $-1 $7 $-1 $3 #
face $8 $9 $10 $4 $-1 $11 forward single #
face $12 $13 $14 $5 $-1 $15 forward single #
face_name-twe-attrib $-1 $-1 $-1 $6 1 #
face $16 $17 $18 $4 $-1 $19 forward single #
loop $20 $21 $22 $6 #
cone-surface $23 -30.44999999999999929 7.5 0 1 0 0 0 -5 0 1 I I 0 1 5 forward I I I I #
face_name-twe-attrib $-1 $-1 $-1 $7 4 #
face $24 $25 $26 $5 $-1 $27 reversed single #
loop $28 $-1 $29 $7 #
plane-surface $30 28.94737052917480113 17.5 -20 1 0 0 0 0 1 forward_v I I I I #
face_name-twe-attrib $-1 $-1 $-1 $9 2 #
face $31 $-1 $32 $4 $-1 $33 forward single #
loop $34 $-1 $35 $9 #
plane-surface $36 -31.94999999999999929 7.5 0 -1 0 0 0 1 0 forward_v I I I I #
loop_type-twe-attrib $-1 $-1 $-1 $10 0 #
loop $37 $-1 $38 $6 #
coedge $-1 $22 $22 $35 $39 reversed $10 $-1 #
surf-twe-attrib $-1 $-1 $-1 $11 6 #
face_name-twe-attrib $-1 $-1 $-1 $13 5 #
face $40 $41 $42 $5 $-1 $43 reversed single #
loop $44 $-1 $45 $13 #
plane-surface $46 0 17.5 0 0 -1 0 0 0 -1 forward_v I I I I #
loop_type-twe-attrib $-1 $-1 $-1 $14 0 #
coedge $-1 $47 $48 $49 $50 reversed $14 $-1 #
surf-twe-attrib $-1 $-1 $-1 $15 7 #
face_name-twe-attrib $-1 $-1 $-1 $17 3 #
loop $51 $-1 $52 $17 #
plane-surface $53 -28.94999999999999929 7.5 0 1 0 0 0 -1 0 forward_v I I I I #
loop_type-twe-attrib $-1 $-1 $-1 $18 0 #
coedge $-1 $35 $35 $22 $39 forward $18 $-1 #
surf-twe-attrib $-1 $-1 $-1 $19 9 #
loop_type-twe-attrib $-1 $-1 $-1 $21 1 #
coedge $-1 $38 $38 $52 $54 reversed $21 $-1 #
edge $55 $56 0 $56 6.283185307179586232 $35 $57 forward 7 unknown #
face_name-twe-attrib $-1 $-1 $-1 $25 6 #
face $58 $59 $60 $5 $-1 $61 forward single #
loop $62 $-1 $63 $25 #
plane-surface $64 0 0 -20 0 0 1 1 0 0 forward_v I I I I #
loop_type-twe-attrib $-1 $-1 $-1 $26 0 #
coedge $-1 $65 $66 $67 $68 forward $26 $-1 #
surf-twe-attrib $-1 $-1 $-1 $27 13 #
coedge $-1 $67 $29 $63 $69 reversed $14 $-1 #
coedge $-1 $29 $67 $70 $71 reversed $14 $-1 #
coedge $-1 $72 $73 $29 $50 forward $74 $-1 #
edge $75 $76 0 $77 40 $49 $78 forward 7 unknown #
loop_type-twe-attrib $-1 $-1 $-1 $32 0 #
coedge $-1 $52 $52 $38 $54 forward $32 $-1 #
surf-twe-attrib $-1 $-1 $-1 $33 17 #
edge $79 $80 0 $80 6.283185307179586232 $52 $81 forward 7 unknown #
edge_name-twe-attrib $-1 $-1 $-1 $39 1 8704 #
vertex $-1 $39 $82 #
ellipse-curve $83 -31.94999999999999929 7.5 0 -1 0 0 0 -5 0 1 I I #
face_name-twe-attrib $-1 $-1 $-1 $41 7 #
face $84 $85 $86 $5 $-1 $87 reversed single #
loop $88 $-1 $89 $41 #
plane-surface $90 -28.94737052917480113 -17.5 -20 -1 0 0 0 0 1 forward_v I I I I #
loop_type-twe-attrib $-1 $-1 $-1 $42 0 #
coedge $-1 $91 $92 $47 $69 forward $42 $-1 #
surf-twe-attrib $-1 $-1 $-1 $43 25 #
coedge $-1 $93 $45 $92 $94 reversed $26 $-1 #
coedge $-1 $45 $93 $95 $96 reversed $26 $-1 #
coedge $-1 $48 $47 $45 $68 reversed $14 $-1 #
edge $97 $98 -30 $99 10 $45 $100 forward 7 unknown #
edge $101 $99 -8.75 $76 -2.224578135593199946 $63 $102 forward 7 unknown #
coedge $-1 $95 $103 $48 $71 forward $104 $-1 #
edge $105 $77 2.224578135593199946 $98 8.75 $70 $106 forward 7 unknown #
coedge $-1 $107 $49 $103 $108 reversed $74 $-1 #
coedge $-1 $49 $107 $91 $109 reversed $74 $-1 #
loop $110 $-1 $72 $111 #
edge_name-twe-attrib $-1 $-1 $-1 $50 23 8448 #
vertex $-1 $109 $112 #
vertex $-1 $108 $113 #
straight-curve $114 28.94737100000000041 10.97457813559319995 -20 0 0 1 I I #
edge_name-twe-attrib $-1 $-1 $-1 $54 2 8704 #
vertex $-1 $54 $115 #
ellipse-curve $116 -28.94999999999999929 7.5 0 1 0 0 0 -5 0 1 I I #
point $-1 -31.94999999999999929 2.5 0 #
cur-twe-attrib $-1 $-1 $-1 $57 39 #
face_name-twe-attrib $-1 $-1 $-1 $59 8 #
face $117 $118 $119 $5 $-1 $120 reversed single #
loop $121 $-1 $122 $59 #
plane-surface $123 0 -17.5 0 0 1 0 0 0 1 forward_v I I I I #
loop_type-twe-attrib $-1 $-1 $-1 $60 0 #
coedge $-1 $124 $125 $122 $126 reversed $60 $-1 #
surf-twe-attrib $-1 $-1 $-1 $61 41 #
coedge $-1 $127 $63 $73 $109 forward $42 $-1 #
coedge $-1 $63 $128 $65 $94 forward $42 $-1 #
coedge $-1 $66 $65 $129 $130 forward $26 $-1 #
edge $131 $132 -28.94737052917480113 $99 28.94737052917480113 $65 $133 forward 7 unknown #
coedge $-1 $134 $70 $66 $96 forward $104 $-1 #
edge $135 $98 -28.94737052917480113 $136 28.94737052917480113 $66 $137 forward 7 unknown #
edge_name-twe-attrib $-1 $-1 $-1 $68 3 8704 #
vertex $-1 $71 $138 #
vertex $-1 $94 $139 #
straight-curve $140 28.94737052917480113 17.5 -10 0 0 -1 I I #
edge_name-twe-attrib $-1 $-1 $-1 $69 7 8704 #
straight-curve $141 28.94737052917480113 8.75 -20 0 -1 0 I I #
coedge $-1 $70 $142 $72 $108 forward $104 $-1 #
loop $143 $-1 $70 $118 #
edge_name-twe-attrib $-1 $-1 $-1 $71 16 8704 #
straight-curve $144 28.94737052917480113 8.75 20 0 1 0 I I #
coedge $-1 $73 $72 $145 $146 forward $74 $-1 #
edge $147 $148 3.494408370106376172 $77 19.50417269890997574 $103 $149 forward 7 unknown #
edge $150 $76 -19.50417269890997574 $151 -3.494408370106376172 $91 $152 forward 7 unknown #
loop_type-twe-attrib $-1 $-1 $-1 $74 0 #
face $153 $-1 $74 $5 $-1 $154 reversed single #
point $-1 28.94737100000000041 10.97457813559319995 -20 #
point $-1 28.94737100000000041 10.97457813559319995 20 #
cur-twe-attrib $-1 $-1 $-1 $78 50 #
point $-1 -28.94999999999999929 2.5 0 #
cur-twe-attrib $-1 $-1 $-1 $81 54 #
face_name-twe-attrib $-1 $-1 $-1 $85 9 #
face $155 $156 $104 $5 $-1 $157 forward single #
loop $158 $-1 $159 $85 #
plane-surface $160 -18.98126930508480115 -17.5 -20 -0.8892878023181473024 0.4573480126207611907 0 0 0 -1 forward_v I I I I #
loop_type-twe-attrib $-1 $-1 $-1 $86 0 #
coedge $-1 $161 $162 $89 $126 forward $86 $-1 #
surf-twe-attrib $-1 $-1 $-1 $87 59 #
coedge $-1 $129 $89 $134 $163 reversed $60 $-1 #
coedge $-1 $89 $129 $128 $164 reversed $60 $-1 #
edge $165 $166 -30 $167 10 $122 $168 forward 7 unknown #
coedge $-1 $169 $91 $170 $171 forward $42 $-1 #
coedge $-1 $92 $172 $125 $164 forward $42 $-1 #
coedge $-1 $125 $124 $93 $130 reversed $60 $-1 #
edge $173 $132 -10 $136 30 $93 $174 forward 7 unknown #
edge_name-twe-attrib $-1 $-1 $-1 $94 4 8704 #
vertex $-1 $130 $175 #
straight-curve $176 0 17.5 -20 1 0 0 I I #
coedge $-1 $177 $95 $124 $163 forward $104 $-1 #
edge_name-twe-attrib $-1 $-1 $-1 $96 6 8704 #
vertex $-1 $96 $178 #
straight-curve $179 0 17.5 20 -1 0 0 I I #
point $-1 28.94737052917480113 17.5 20 #
point $-1 28.94737052917480113 17.5 -20 #
cur-twe-attrib $-1 $-1 $-1 $100 68 #
cur-twe-attrib $-1 $-1 $-1 $102 69 #
coedge $-1 $103 $180 $181 $182 forward $104 $-1 #
loop_type-twe-attrib $-1 $-1 $-1 $104 0 #
cur-twe-attrib $-1 $-1 $-1 $106 71 #
coedge $-1 $181 $170 $107 $146 reversed $183 $-1 #
edge $184 $148 -40 $151 -0 $107 $185 reversed 7 unknown #
edge_name-twe-attrib $-1 $-1 $-1 $108 20 8704 #
vertex $-1 $108 $186 #
straight-curve $187 20.02717637834140163 -6.370244739854039828 20 0.4573480126207610241 0.8892878023181469693 0 I I #
edge_name-twe-attrib $-1 $-1 $-1 $109 8 8704 #
vertex $-1 $109 $188 #
straight-curve $189 20.02717637834140163 -6.370244739854039828 -20 -0.4573480126207610241 -0.8892878023181469693 0 I I #
face_name-twe-attrib $-1 $-1 $-1 $111 12 #
plane-surface $190 21.62533710169489964 -3.262710000000000221 -20 -0.8892878023181473024 0.4573480126207611907 0 0 0 -1 forward_v I I I I #
face_name-twe-attrib $-1 $-1 $-1 $118 10 #
face $191 $111 $183 $5 $-1 $192 forward single #
plane-surface $193 0 0 20 0 0 1 1 0 0 forward_v I I I I #
loop_type-twe-attrib $-1 $-1 $-1 $119 0 #
coedge $-1 $194 $195 $180 $196 reversed $119 $-1 #
surf-twe-attrib $-1 $-1 $-1 $120 85 #
coedge $-1 $197 $122 $172 $198 reversed $86 $-1 #
coedge $-1 $122 $197 $177 $199 reversed $86 $-1 #
edge $200 $136 -26.25 $166 8.75 $134 $201 forward 7 unknown #
edge $202 $167 -8.75 $132 26.25 $128 $203 forward 7 unknown #
edge_name-twe-attrib $-1 $-1 $-1 $126 12 8704 #
vertex $-1 $163 $204 #
vertex $-1 $198 $205 #
straight-curve $206 -28.94737052917480113 -17.5 -10 0 0 -1 I I #
coedge $-1 $172 $127 $207 $208 forward $42 $-1 #
coedge $-1 $145 $209 $127 $171 reversed $183 $-1 #
edge $210 $151 -17.30330310169490104 $211 15.98126900000000106 $127 $212 forward 7 unknown #
coedge $-1 $128 $169 $161 $198 forward $42 $-1 #
edge_name-twe-attrib $-1 $-1 $-1 $130 5 8704 #
straight-curve $213 -28.94737052917480113 17.5 -10 0 0 1 I I #
point $-1 -28.94737052917480113 17.5 -20 #
cur-twe-attrib $-1 $-1 $-1 $133 94 #
coedge $-1 $180 $134 $162 $199 forward $104 $-1 #
point $-1 -28.94737052917480113 17.5 20 #
cur-twe-attrib $-1 $-1 $-1 $137 96 #
coedge $-1 $142 $177 $159 $196 forward $104 $-1 #
coedge $-1 $209 $145 $142 $182 reversed $183 $-1 #
edge $214 $215 -15.98126900000000106 $148 17.30330310169490104 $142 $216 forward 7 unknown #
loop $217 $-1 $181 $156 #
edge_name-twe-attrib $-1 $-1 $-1 $146 22 8448 #
straight-curve $218 21.62533710169489964 -3.262710000000000221 -20 0 0 1 I I #
point $-1 21.62533710169489964 -3.262710000000000221 20 #
cur-twe-attrib $-1 $-1 $-1 $149 108 #
point $-1 21.62533710169489964 -3.262710000000000221 -20 #
cur-twe-attrib $-1 $-1 $-1 $152 109 #
surf-twe-attrib $-1 $-1 $-1 $154 111 #
face_name-twe-attrib $-1 $-1 $-1 $156 11 #
plane-surface $219 8.644068000000000751 -3.262710000000000221 0 0 -1 0 -1 0 0 forward_v I I I I #
surf-twe-attrib $-1 $-1 $-1 $157 118 #
coedge $-1 $207 $159 $197 $220 reversed $119 $-1 #
coedge $-1 $159 $207 $209 $221 reversed $119 $-1 #
edge $222 $223 -12.121791167133809 $215 3.887975005703899978 $180 $224 forward 7 unknown #
coedge $-1 $162 $161 $194 $220 forward $86 $-1 #
edge $225 $226 18.98126930508480115 $167 28.94737052917480113 $161 $227 forward 7 unknown #
edge $228 $166 -28.94737052917480113 $223 -18.98126930508480115 $162 $229 forward 7 unknown #
edge_name-twe-attrib $-1 $-1 $-1 $163 17 8704 #
straight-curve $230 -28.94737052917480113 -8.75 20 0 -1 0 I I #
edge_name-twe-attrib $-1 $-1 $-1 $164 11 8704 #
straight-curve $231 -28.94737052917480113 -8.75 -20 0 1 0 I I #
point $-1 -28.94737052917480113 -17.5 20 #
point $-1 -28.94737052917480113 -17.5 -20 #
cur-twe-attrib $-1 $-1 $-1 $168 126 #
coedge $-1 $195 $194 $169 $208 reversed $119 $-1 #
edge $232 $211 -3.887975005703899978 $226 12.121791167133809 $169 $233 forward 7 unknown #
coedge $-1 $170 $181 $195 $221 forward $183 $-1 #
edge_name-twe-attrib $-1 $-1 $-1 $171 9 8704 #
vertex $-1 $171 $234 #
straight-curve $235 4.322034000000000376 -3.262710000000000221 -20 -1 0 0 I I #
cur-twe-attrib $-1 $-1 $-1 $174 130 #
edge_name-twe-attrib $-1 $-1 $-1 $182 19 8704 #
vertex $-1 $182 $236 #
straight-curve $237 4.322034000000000376 -3.262710000000000221 20 1 0 0 I I #
loop_type-twe-attrib $-1 $-1 $-1 $183 0 #
cur-twe-attrib $-1 $-1 $-1 $185 146 #
surf-twe-attrib $-1 $-1 $-1 $192 156 #
edge $238 $226 -10 $223 30 $197 $239 forward 7 unknown #
edge $240 $215 -20 $211 20 $209 $241 reversed 7 unknown #
edge_name-twe-attrib $-1 $-1 $-1 $196 18 8704 #
vertex $-1 $199 $242 #
straight-curve $243 -13.43739220539220014 -6.720238972820079759 20 0.4573480126207610241 0.8892878023181469693 0 I I #
edge_name-twe-attrib $-1 $-1 $-1 $198 13 8704 #
vertex $-1 $208 $244 #
straight-curve $245 0 -17.5 -20 -1 0 0 I I #
edge_name-twe-attrib $-1 $-1 $-1 $199 15 8704 #
straight-curve $246 0 -17.5 20 1 0 0 I I #
cur-twe-attrib $-1 $-1 $-1 $201 163 #
cur-twe-attrib $-1 $-1 $-1 $203 164 #
edge_name-twe-attrib $-1 $-1 $-1 $208 10 8704 #
straight-curve $247 -13.43739220539220014 -6.720238972820079759 -20 -0.4573480126207610241 -0.8892878023181469693 0 I I #
point $-1 -11.65923500000000068 -3.262710000000000221 -20 #
cur-twe-attrib $-1 $-1 $-1 $212 171 #
point $-1 -11.65923500000000068 -3.262710000000000221 20 #
cur-twe-attrib $-1 $-1 $-1 $216 182 #
edge_name-twe-attrib $-1 $-1 $-1 $220 14 8448 #
straight-curve $248 -18.98126930508480115 -17.5 -10 0 0 1 I I #
edge_name-twe-attrib $-1 $-1 $-1 $221 21 4352 #
straight-curve $249 -11.65923500000000068 -3.262710000000000221 0 0 0 1 I I #
point $-1 -18.98126930508480115 -17.5 20 #
cur-twe-attrib $-1 $-1 $-1 $224 196 #
point $-1 -18.98126930508480115 -17.5 -20 #
cur-twe-attrib $-1 $-1 $-1 $227 198 #
cur-twe-attrib $-1 $-1 $-1 $229 199 #
cur-twe-attrib $-1 $-1 $-1 $233 208 #
cur-twe-attrib $-1 $-1 $-1 $239 220 #
cur-twe-attrib $-1 $-1 $-1 $241 221 #
End-of-ACIS-data 