600 0 2 0           
24 FBMach with ACIS - 6.0.3 13 ACIS 6.0.3 NT 24 Sun Mar 31 23:25:00 2002 
1 9.9999999999999995e-007 1e-010 
body $2 $3 $-1 $4 #
bdycol-kcp $-1 1 4 $5 $6 $7 $8 #
model_id-kcp-attrib $-1 $9 $-1 $0 1 1017635100 90 1817837569 1 #
lump $-1 $-1 $10 $0 #
transform $-1 1 0 0 0 1 0 0 0 1 0 0 0 1 rotate no_reflect no_shear #
body $11 $12 $-1 $13 #
body $14 $15 $-1 $16 #
body $17 $18 $-1 $19 #
body $20 $21 $-1 $22 #
aggregate_advspl_attribute-aggregate_geombuild_base_attribute-aggregate_body_attribute-attrib_HH-attrib $-1 $23 $2 $0 F #
shell $-1 $-1 $-1 $24 $-1 $3 #
model_id-kcp-attrib $-1 $-1 $-1 $5 1 1017635100 90 1817837570 1 #
lump $-1 $-1 $25 $5 #
transform $-1 1 0 0 0 1 0 0 0 1 50.999999999999915 0 32.99950000000004 1 no_rotate no_reflect no_shear #
rgb_color-st-attrib $-1 $26 $-1 $6 0.5 1 1 #
lump $-1 $-1 $27 $6 #
transform $-1 1 0 0 0 1 0 0 0 1 50.999999999999915 0 32.99950000000004 1 no_rotate no_reflect no_shear #
rgb_color-st-attrib $-1 $28 $-1 $7 0.5 0.5 1 #
lump $-1 $-1 $29 $7 #
transform $-1 1 0 0 0 1 0 0 0 1 50.999999999999915 0 32.99950000000004 1 no_rotate no_reflect no_shear #
rgb_color-st-attrib $-1 $30 $-1 $8 0.5 0.5 1 #
lump $-1 $-1 $31 $8 #
transform $-1 1 0 0 0 1 0 0 0 1 50.999999999999915 0 32.99950000000004 1 no_rotate no_reflect no_shear #
aggregate_secndry_attribute-aggregate_geombuild_base_attribute-aggregate_body_attribute-attrib_HH-attrib $-1 $32 $9 $0 F #
face $33 $34 $35 $10 $-1 $36 reversed single #
shell $-1 $-1 $-1 $37 $-1 $12 #
model_id-kcp-attrib $-1 $-1 $14 $6 1 1017635100 190 1824391171 1 #
shell $-1 $-1 $-1 $38 $-1 $15 #
model_id-kcp-attrib $-1 $-1 $17 $7 1 1017635100 240 1827667972 1 #
shell $-1 $-1 $-1 $39 $-1 $18 #
model_id-kcp-attrib $-1 $-1 $20 $8 1 1017635100 260 1812201477 1 #
shell $-1 $-1 $-1 $40 $-1 $21 #
aggregate_sharped_attribute-aggregate_geombuild_base_attribute-aggregate_body_attribute-attrib_HH-attrib $-1 $41 $23 $0 F #
model_id-kcp-attrib $-1 $42 $-1 $24 1 1017635100 90 1817837569 2 #
face $43 $44 $45 $10 $-1 $46 reversed single #
loop $-1 $-1 $47 $24 #
plane-surface $-1 60 0 32.999999999999908 -1 0 1.04744440165294e-014 1.04744440165294e-014 0 1 forward_v I I I I #
face $48 $49 $50 $25 $-1 $51 forward single #
face $-1 $52 $53 $27 $-1 $54 reversed single #
face $-1 $55 $56 $29 $-1 $57 reversed single #
face $-1 $58 $59 $31 $-1 $60 reversed single #
aggregate_reblend_attribute-aggregate_geombuild_base_attribute-aggregate_body_attribute-attrib_HH-attrib $-1 $61 $32 $0 F #
attrib_hh_face_geombuild-attrib_entity_geombuild-individual_entity_attribute-attrib_HH-attrib $-1 $-1 $33 $24 F #
model_id-kcp-attrib $-1 $62 $-1 $34 1 1017635100 90 1817837569 11 #
face $63 $64 $65 $10 $-1 $66 forward single #
loop $-1 $-1 $67 $34 #
plane-surface $-1 51.000000000000156 0 48 -1.04744440165294e-014 0 -1 -1 0 1.04744440165294e-014 forward_v I I I I #
coedge $68 $69 $70 $71 $72 reversed $35 $-1 #
model_id-kcp-attrib $-1 $-1 $-1 $37 1 1017635100 90 1817837570 2 #
face $-1 $73 $74 $25 $-1 $75 reversed single #
loop $-1 $-1 $76 $37 #
plane-surface $-1 0 0 15.000500000000061 0 0 1 1 0 0 forward_v I I I I #
face $-1 $77 $78 $27 $-1 $79 reversed single #
loop $-1 $-1 $80 $38 #
plane-surface $-1 8.9999999999999289 -56.774964387392103 -14.999500000000133 -1.04744440165294e-014 0 -1 1 0 -1.04744440165294e-014 forward_v I I I I #
face $-1 $81 $82 $29 $-1 $83 reversed single #
loop $-1 $-1 $84 $39 #
plane-surface $-1 9.0000000000000995 0 3.5004999999998661 1 0 -1.04744440165294e-014 0 1 0 forward_v I I I I #
face $-1 $85 $86 $31 $-1 $87 reversed single #
loop $-1 $-1 $88 $40 #
plane-surface $-1 -8.9999999999999005 0 3.5005000000000535 -1 0 1.04744440165294e-014 0 -1 0 forward_v I I I I #
aggregate_isospline_attribute-aggregate_geombuild_base_attribute-aggregate_body_attribute-attrib_HH-attrib $-1 $89 $41 $0 F #
model_id-kcp-attrib $-1 $90 $43 $34 1 1017635100 90 1817837569 3 #
model_id-kcp-attrib $-1 $91 $-1 $44 1 1017635100 90 1817837569 4 #
face $92 $93 $94 $10 $-1 $95 forward single #
loop $-1 $-1 $96 $44 #
cone-surface $-1 51.000000000000036 48 36.5 -1.04744440165294e-014 0 -1 -6.3639610306789303 6.3639610306789303 6.6658953539221198e-014 1 I I 0 1 9.0000000000000036 forward I I I I #
coedge $97 $98 $99 $100 $101 reversed $45 $-1 #
attrib_hh_coedge_geombuild-attrib_entity_geombuild-individual_entity_attribute-attrib_HH-attrib $-1 $-1 $-1 $47 F #
coedge $102 $103 $47 $99 $104 forward $35 $-1 #
coedge $105 $47 $103 $106 $107 forward $35 $-1 #
coedge $108 $109 $100 $47 $72 forward $65 $-1 #
edge $110 $111 -15 $112 8 $47 $113 forward 7 unknown #
face $-1 $114 $115 $25 $-1 $116 reversed single #
loop $-1 $-1 $117 $49 #
plane-surface $-1 0 0 -15.000500000000061 0 0 1 1 0 0 forward_v I I I I #
coedge $-1 $118 $119 $120 $121 forward $50 $-1 #
face $-1 $122 $123 $27 $-1 $124 reversed single #
loop $-1 $-1 $125 $52 #
plane-surface $-1 0 57 0 0 -1 0 0 0 -1 forward_v I I I I #
coedge $-1 $126 $127 $128 $129 reversed $53 $-1 #
face $-1 $130 $131 $29 $-1 $132 forward single #
loop $-1 $-1 $133 $55 #
plane-surface $-1 0 -57 0 0 1 0 0 0 1 forward_v I I I I #
coedge $-1 $134 $135 $136 $137 forward $56 $-1 #
face $-1 $138 $139 $31 $-1 $140 forward single #
loop $-1 $-1 $141 $58 #
plane-surface $-1 0 57 0 0 -1 0 0 0 -1 forward_v I I I I #
coedge $-1 $142 $143 $144 $145 forward $59 $-1 #
aggregate_analytic_solver_attribute-aggregate_geombuild_base_attribute-aggregate_body_attribute-attrib_HH-attrib $-1 $146 $61 $0 F #
attrib_hh_face_geombuild-attrib_entity_geombuild-individual_entity_attribute-attrib_HH-attrib $-1 $-1 $62 $34 F #
attrib_hh_face_geombuild-attrib_entity_geombuild-individual_entity_attribute-attrib_HH-attrib $-1 $-1 $63 $44 F #
model_id-kcp-attrib $-1 $147 $-1 $64 1 1017635100 90 1817837569 5 #
face $148 $149 $150 $10 $-1 $151 reversed single #
loop $-1 $-1 $152 $64 #
plane-surface $-1 42 0 33.000000000000092 -1 0 1.04744440165294e-014 1.04744440165294e-014 0 1 forward_v I I I I #
coedge $153 $100 $154 $152 $155 forward $65 $-1 #
attrib_hh_coedge_geombuild-attrib_entity_geombuild-individual_entity_attribute-attrib_HH-attrib $-1 $-1 $-1 $67 F #
coedge $156 $157 $67 $158 $159 reversed $45 $-1 #
coedge $160 $67 $157 $69 $104 reversed $45 $-1 #
coedge $161 $71 $96 $67 $101 forward $65 $-1 #
edge $162 $163 -2.3561944901923448 $111 0.78539816339744828 $67 $164 forward 7 unknown #
attrib_hh_coedge_geombuild-attrib_entity_geombuild-individual_entity_attribute-attrib_HH-attrib $-1 $-1 $-1 $69 F #
coedge $165 $70 $69 $166 $167 reversed $35 $-1 #
edge $168 $111 -48 $169 48 $99 $170 forward 7 unknown #
attrib_hh_coedge_geombuild-attrib_entity_geombuild-individual_entity_attribute-attrib_HH-attrib $-1 $-1 $-1 $70 F #
coedge $171 $172 $173 $70 $107 reversed $174 $-1 #
edge $175 $176 -48 $112 48 $70 $177 forward 7 unknown #
attrib_hh_coedge_geombuild-attrib_entity_geombuild-individual_entity_attribute-attrib_HH-attrib $-1 $-1 $-1 $71 F #
coedge $178 $179 $71 $173 $180 forward $65 $-1 #
attrib_edge_convexity-kcp-attrib $-1 $181 $-1 $72 3 #
vertex $182 $101 $183 #
vertex $184 $107 $185 #
straight-curve $-1 60 48 32.999999999999908 -1.04744440165294e-014 0 -1 I I #
face $-1 $186 $187 $25 $-1 $188 reversed single #
loop $-1 $-1 $189 $73 #
plane-surface $-1 0 -57 0 0 1 0 0 0 1 forward_v I I I I #
coedge $-1 $190 $191 $192 $193 forward $74 $-1 #
coedge $-1 $194 $76 $195 $196 forward $50 $-1 #
coedge $-1 $76 $194 $197 $198 forward $50 $-1 #
coedge $-1 $199 $200 $76 $121 reversed $201 $-1 #
edge $-1 $202 -57 $203 57 $120 $204 forward 7 unknown #
face $-1 $205 $206 $27 $-1 $207 reversed single #
loop $-1 $-1 $208 $77 #
plane-surface $-1 9.0009999999999977 0 0 -1 0 0 0 0 1 forward_v I I I I #
coedge $-1 $209 $210 $127 $211 forward $78 $-1 #
coedge $-1 $212 $80 $213 $214 reversed $53 $-1 #
coedge $-1 $80 $212 $125 $211 reversed $53 $-1 #
coedge $-1 $215 $216 $80 $129 forward $217 $-1 #
edge $-1 $218 -28.612517806303948 $219 85.387482193696059 $128 $220 forward 7 unknown #
face $-1 $221 $222 $29 $-1 $223 reversed single #
loop $-1 $-1 $136 $81 #
plane-surface $-1 8.9999999999999289 -56.774964387392103 -14.999500000000133 -1.04744440165294e-014 0 -1 1 0 -1.04744440165294e-014 forward_v I I I I #
coedge $-1 $224 $225 $134 $226 reversed $82 $-1 #
coedge $-1 $227 $84 $133 $226 forward $56 $-1 #
coedge $-1 $84 $227 $228 $229 forward $56 $-1 #
coedge $-1 $230 $231 $84 $137 reversed $131 $-1 #
edge $232 $233 -85.387482193696059 $234 28.612517806303948 $136 $235 forward 7 unknown #
face $-1 $236 $237 $31 $-1 $238 reversed single #
loop $-1 $-1 $144 $85 #
plane-surface $-1 8.9999999999999289 -56.774964387392103 -14.999500000000133 -1.04744440165294e-014 0 -1 1 0 -1.04744440165294e-014 forward_v I I I I #
coedge $-1 $239 $240 $142 $241 reversed $86 $-1 #
coedge $-1 $242 $88 $141 $241 forward $59 $-1 #
coedge $-1 $88 $242 $243 $244 forward $59 $-1 #
coedge $-1 $245 $246 $88 $145 reversed $139 $-1 #
edge $247 $248 -28.612517806303948 $249 85.387482193696059 $144 $250 forward 7 unknown #
aggregate_geombuild_attribute-aggregate_geombuild_base_attribute-aggregate_body_attribute-attrib_HH-attrib $-1 $251 $89 $0 #
attrib_hh_face_geombuild-attrib_entity_geombuild-individual_entity_attribute-attrib_HH-attrib $-1 $-1 $92 $64 F #
model_id-kcp-attrib $-1 $252 $-1 $93 1 1017635100 90 1817837569 6 #
face $253 $254 $255 $10 $-1 $256 reversed single #
loop $-1 $-1 $257 $93 #
cone-surface $-1 41.999999999999844 0 18.000000000000092 0 -1 0 4.9497474683058815 0 4.9497474683057785 1 I I 0 1 6.9999999999999964 forward I I I I #
coedge $258 $259 $158 $96 $155 reversed $94 $-1 #
attrib_hh_coedge_geombuild-attrib_entity_geombuild-individual_entity_attribute-attrib_HH-attrib $-1 $-1 $-1 $96 F #
coedge $260 $96 $179 $257 $261 forward $65 $-1 #
edge $262 $263 -8 $163 15 $152 $264 forward 7 unknown #
attrib_hh_coedge_geombuild-attrib_entity_geombuild-individual_entity_attribute-attrib_HH-attrib $-1 $-1 $-1 $98 F #
coedge $265 $99 $98 $266 $267 reversed $45 $-1 #
coedge $268 $152 $269 $98 $159 forward $94 $-1 #
edge $270 $271 -48 $163 48 $98 $272 forward 7 unknown #
attrib_hh_coedge_geombuild-attrib_entity_geombuild-individual_entity_attribute-attrib_HH-attrib $-1 $-1 $-1 $99 F #
attrib_hh_coedge_geombuild-attrib_entity_geombuild-individual_entity_attribute-attrib_HH-attrib $-1 $-1 $-1 $100 F #
model_id-kcp-attrib $-1 $273 $-1 $101 1 1017635100 90 1817837569 10 #
vertex $274 $159 $275 #
ellipse-curve $-1 51.000000000000156 48 48 -1.04744440165294e-014 0 -1 6.3639610306789303 6.3639610306789303 -6.6658953539221198e-014 1 I I #
attrib_hh_coedge_geombuild-attrib_entity_geombuild-individual_entity_attribute-attrib_HH-attrib $-1 $-1 $-1 $103 F #
coedge $276 $266 $277 $103 $167 forward $278 $-1 #
edge $279 $176 -8 $169 15 $103 $280 forward 7 unknown #
attrib_edge_convexity-kcp-attrib $-1 $281 $-1 $104 1 #
vertex $282 $104 $283 #
straight-curve $-1 60.000000000000156 0 47.999999999999908 0 -1 0 I I #
attrib_hh_coedge_geombuild-attrib_entity_geombuild-individual_entity_attribute-attrib_HH-attrib $-1 $-1 $-1 $106 F #
coedge $284 $285 $106 $277 $286 reversed $174 $-1 #
coedge $287 $106 $285 $109 $180 reversed $174 $-1 #
loop $-1 $-1 $173 $254 #
attrib_edge_convexity-kcp-attrib $-1 $288 $-1 $107 1 #
vertex $289 $167 $290 #
straight-curve $-1 59.999999999999915 0 24.999999999999908 0 1 0 I I #
attrib_hh_coedge_geombuild-attrib_entity_geombuild-individual_entity_attribute-attrib_HH-attrib $-1 $-1 $-1 $109 F #
coedge $291 $154 $109 $292 $293 forward $65 $-1 #
edge $294 $112 16.307640183304098 $295 31.672692788550101 $173 $296 forward 7 unknown #
convexity-sys-attrib $-1 $297 $110 $72 #
attrib_hh_vertex_geombuild-attrib_entity_geombuild-individual_entity_attribute-attrib_HH-attrib $-1 $-1 $-1 $111 F #
point $-1 60.000000000000156 48 47.999999999999908 #
attrib_hh_vertex_geombuild-attrib_entity_geombuild-individual_entity_attribute-attrib_HH-attrib $-1 $-1 $-1 $112 F #
point $-1 59.999999999999915 48 24.999999999999908 #
face $-1 $298 $299 $25 $-1 $300 reversed single #
loop $-1 $-1 $301 $114 #
plane-surface $-1 -9.0009999999999977 0 0 1 0 0 0 0 -1 forward_v I I I I #
coedge $-1 $302 $197 $303 $304 forward $115 $-1 #
coedge $-1 $305 $117 $302 $306 forward $74 $-1 #
coedge $-1 $117 $305 $307 $308 forward $74 $-1 #
coedge $-1 $200 $199 $117 $193 reversed $201 $-1 #
edge $-1 $309 -57 $310 57 $192 $311 forward 7 unknown #
coedge $-1 $119 $118 $312 $313 forward $50 $-1 #
coedge $-1 $314 $315 $118 $196 reversed $299 $-1 #
edge $-1 $203 -9.0009999999999977 $316 9.0009999999999977 $195 $317 forward 7 unknown #
coedge $-1 $189 $318 $119 $198 reversed $115 $-1 #
edge $-1 $319 -9.0009999999999977 $202 9.0009999999999977 $197 $320 forward 7 unknown #
coedge $-1 $192 $120 $318 $321 forward $201 $-1 #
coedge $-1 $120 $192 $314 $322 reversed $201 $-1 #
loop $-1 $-1 $199 $298 #
vertex $-1 $121 $323 #
vertex $-1 $121 $324 #
straight-curve $-1 9.0009999999999977 0 15.000500000000061 0 1 0 I I #
face $-1 $325 $326 $27 $-1 $327 reversed single #
loop $-1 $-1 $328 $122 #
plane-surface $-1 0 0 -15.000500000000061 0 0 1 1 0 0 forward_v I I I I #
coedge $-1 $329 $330 $212 $331 forward $123 $-1 #
coedge $-1 $332 $125 $330 $333 forward $78 $-1 #
coedge $-1 $125 $332 $215 $334 reversed $78 $-1 #
edge $-1 $219 -13.500999999999884 $335 4.5010000000001114 $125 $336 forward 7 unknown #
coedge $-1 $127 $126 $208 $331 reversed $53 $-1 #
coedge $-1 $337 $338 $126 $214 forward $326 $-1 #
edge $-1 $339 -4.5010000000001114 $218 13.500999999999884 $213 $340 forward 7 unknown #
coedge $-1 $341 $128 $210 $334 forward $217 $-1 #
coedge $-1 $128 $341 $337 $342 reversed $217 $-1 #
loop $-1 $-1 $128 $325 #
vertex $-1 $342 $343 #
vertex $-1 $334 $344 #
straight-curve $-1 -9.0009999999999977 -28.387482193696052 -14.999499999999944 0 1 0 I I #
face $-1 $345 $346 $29 $-1 $347 forward single #
loop $-1 $-1 $348 $130 #
plane-surface $-1 9.0009999999999977 0 0 -1 0 0 0 0 1 forward_v I I I I #
coedge $-1 $349 $133 $231 $350 forward $82 $-1 #
coedge $-1 $133 $349 $351 $352 reversed $82 $-1 #
edge $353 $234 -16.74975000000002 $354 13.250250000000175 $133 $355 forward 7 unknown #
coedge $-1 $135 $134 $356 $357 forward $56 $-1 #
coedge $-1 $358 $359 $135 $229 reversed $360 $-1 #
edge $361 $362 -13.250250000000175 $233 16.74975000000002 $228 $363 forward 7 unknown #
coedge $-1 $364 $136 $359 $365 reversed $131 $-1 #
coedge $-1 $136 $364 $224 $350 reversed $131 $-1 #
convexity-sys-attrib $-1 $-1 $-1 $137 #
vertex $-1 $137 $366 #
vertex $-1 $350 $367 #
straight-curve $-1 8.9999999999999041 -28.387482193696052 -14.999500000000133 0 -1 0 I I #
face $-1 $368 $369 $31 $-1 $370 forward single #
loop $-1 $-1 $243 $138 #
plane-surface $-1 0 -57 0 0 1 0 0 0 1 forward_v I I I I #
coedge $-1 $371 $141 $246 $372 forward $86 $-1 #
coedge $-1 $141 $371 $373 $374 reversed $86 $-1 #
edge $375 $249 -16.749750000000017 $376 13.250249999999987 $141 $377 forward 7 unknown #
coedge $-1 $143 $142 $378 $379 forward $59 $-1 #
coedge $-1 $380 $381 $143 $244 reversed $237 $-1 #
edge $382 $383 -13.250249999999987 $248 16.749750000000017 $243 $384 forward 7 unknown #
coedge $-1 $385 $144 $381 $386 reversed $139 $-1 #
coedge $-1 $144 $385 $239 $372 reversed $139 $-1 #
convexity-sys-attrib $-1 $-1 $-1 $145 #
vertex $-1 $145 $387 #
vertex $-1 $372 $388 #
straight-curve $-1 -9.0000000000000959 -28.387482193696052 -14.999499999999944 0 1 0 I I #
aggregate_stitch_attribute-aggregate_stitch_base_attribute-aggregate_body_attribute-attrib_HH-attrib $-1 $389 $146 $0 F #
attrib_hh_face_geombuild-attrib_entity_geombuild-individual_entity_attribute-attrib_HH-attrib $-1 $-1 $148 $93 F #
model_id-kcp-attrib $-1 $390 $-1 $149 1 1017635100 90 1817837569 7 #
face $391 $392 $174 $10 $-1 $393 reversed single #
loop $-1 $-1 $292 $149 #
plane-surface $-1 50.999999999999844 0 18 1.04744440165294e-014 0 1 1 0 -1.04744440165294e-014 forward_v I I I I #
coedge $394 $395 $396 $154 $261 reversed $150 $-1 #
attrib_hh_coedge_geombuild-attrib_entity_geombuild-individual_entity_attribute-attrib_HH-attrib $-1 $-1 $-1 $152 F #
coedge $397 $269 $152 $396 $398 forward $94 $-1 #
attrib_hh_coedge_geombuild-attrib_entity_geombuild-individual_entity_attribute-attrib_HH-attrib $-1 $-1 $-1 $154 F #
edge $399 $400 0.94258757805816895 $263 16.307640183304098 $257 $401 forward 7 unknown #
attrib_edge_convexity-kcp-attrib $-1 $402 $-1 $155 3 #
vertex $403 $261 $404 #
straight-curve $-1 42 48 33.000000000000092 1.04744440165294e-014 0 1 I I #
attrib_hh_coedge_geombuild-attrib_entity_geombuild-individual_entity_attribute-attrib_HH-attrib $-1 $-1 $-1 $157 F #
coedge $405 $406 $166 $157 $267 forward $278 $-1 #
edge $407 $169 -2.3561944901923448 $271 0.78539816339744828 $157 $408 forward 7 unknown #
attrib_hh_coedge_geombuild-attrib_entity_geombuild-individual_entity_attribute-attrib_HH-attrib $-1 $-1 $-1 $158 F #
coedge $409 $158 $259 $406 $410 reversed $94 $-1 #
attrib_edge_convexity-kcp-attrib $-1 $411 $-1 $159 1 #
vertex $412 $410 $413 #
straight-curve $-1 42.000000000000156 0 48.000000000000092 0 1 0 I I #
attrib_edge_convexity-kcp-attrib $-1 $414 $162 $101 1 #
attrib_hh_vertex_geombuild-attrib_entity_geombuild-individual_entity_attribute-attrib_HH-attrib $-1 $-1 $-1 $163 F #
point $-1 42.000000000000156 48 48.000000000000092 #
attrib_hh_coedge_geombuild-attrib_entity_geombuild-individual_entity_attribute-attrib_HH-attrib $-1 $-1 $-1 $166 F #
coedge $415 $166 $416 $172 $286 forward $278 $-1 #
loop $-1 $-1 $406 $392 #
attrib_edge_convexity-kcp-attrib $-1 $417 $-1 $167 3 #
straight-curve $-1 60 -48 32.999999999999908 1.04744440165294e-014 0 1 I I #
convexity-sys-attrib $-1 $418 $168 $104 #
attrib_hh_vertex_geombuild-attrib_entity_geombuild-individual_entity_attribute-attrib_HH-attrib $-1 $-1 $-1 $169 F #
point $-1 60.000000000000156 -48 47.999999999999908 #
attrib_hh_coedge_geombuild-attrib_entity_geombuild-individual_entity_attribute-attrib_HH-attrib $-1 $-1 $-1 $172 F #
coedge $419 $173 $172 $420 $421 reversed $174 $-1 #
edge $422 $423 0.94163755229705404 $176 16.306690157542999 $172 $424 forward 7 unknown #
attrib_hh_coedge_geombuild-attrib_entity_geombuild-individual_entity_attribute-attrib_HH-attrib $-1 $-1 $-1 $173 F #
convexity-sys-attrib $-1 $425 $175 $107 #
attrib_hh_vertex_geombuild-attrib_entity_geombuild-individual_entity_attribute-attrib_HH-attrib $-1 $-1 $-1 $176 F #
point $-1 59.999999999999915 -48 24.999999999999908 #
attrib_hh_coedge_geombuild-attrib_entity_geombuild-individual_entity_attribute-attrib_HH-attrib $-1 $-1 $-1 $179 F #
coedge $426 $420 $427 $179 $293 reversed $255 $-1 #
edge $428 $295 -1.0094912556988196 $400 -0.56130507109607697 $292 $429 forward 7 unknown #
attrib_hh_edge_geombuild-attrib_entity_geombuild-individual_entity_attribute-attrib_HH-attrib $-1 $-1 $-1 $180 F #
vertex $430 $293 $431 #
intcurve-curve $-1 forward { surfintcur full nubs 3 open 13 
	16.307640183304098 3 17.8323518525469 2 19.357063521789598 2 20.8817751910324 2 22.406486860275098 2 
	23.146350174133801 2 23.886213487992599 2 24.626076801851301 2 25.36594011571 2 26.942628283920001 2 
	28.519316452129999 2 30.0960046203401 2 31.672692788550101 3 
	59.999999999999915 48 24.999999999999908 
	59.999999999999915 48.508237223080897 24.999999999999908 
	59.956226956023059 49.035206001073803 25.000477604551797 
	59.770759969898968 50.087922963311698 24.996860137368177 
	59.629088349872696 50.6136748462905 24.992697332637889 
	59.254026501122411 51.628154447123002 24.962680396538985 
	59.020360727222332 52.1175749298162 24.936509317628975 
	58.481947883385757 53.030016433021402 24.838886782786933 
	58.177211561273594 53.452996087212398 24.766989926998313 
	57.698377616105695 54.015814377220003 24.61283182540561 
	57.528369808257722 54.200330508612602 24.551976812290743 
	57.170598085649587 54.556480003012503 24.405610100795087 
	56.9828544921683 54.728105195864998 24.320028858962068 
	56.601869100822924 55.048475630813101 24.123613237372929 
	56.408522228245175 55.197355810622398 24.012647598798004 
	56.029738769948331 55.466978723668198 23.769546732843217 
	55.844348365874943 55.587762830494597 23.637385440378829 
	55.296736180179025 55.920109968695499 23.206184632126416 
	54.930749927417047 56.1042864057233 22.855196258714258 
	54.269197623881347 56.393008986508399 22.053163135994566 
	53.97380074391296 56.498247044282799 21.60222809002947 
	53.492933695840833 56.651528889160502 20.636141440309974 
	53.306694408632993 56.7003044968707 20.119730662275877 
	53.060218450036658 56.761942554548 19.064438773683879 
	52.999999999999851 56.774964387392103 18.52556272273668 
	52.999999999999844 56.774964387392103 17.999999999999979 
	0.001 
	cone 51.000000000000036 48 36.5 1.04744440165294e-014 0 1 6.3639610306789303 6.3639610306789303 -6.6658953539221198e-014 1 I I 0 1 9.0000000000000036 forward I I I I 
	cone 59.999999999999844 0 17.999999999999908 0 1 0 -4.9497474683057785 0 4.9497474683058815 1 I I 0 -1 6.9999999999999964 forward I I I I 
	nullbs 
	nullbs 
	I I 
	0 
	0 
	0 
	} I I #
attrib_hh_edge_geombuild-attrib_entity_geombuild-individual_entity_attribute-attrib_HH-attrib $-1 $-1 $181 $72 F #
face $-1 $-1 $201 $25 $-1 $432 reversed single #
loop $-1 $-1 $314 $186 #
plane-surface $-1 0 57 0 0 -1 0 0 0 -1 forward_v I I I I #
coedge $-1 $433 $312 $315 $434 forward $187 $-1 #
coedge $-1 $318 $189 $190 $306 reversed $115 $-1 #
coedge $-1 $312 $433 $189 $304 reversed $187 $-1 #
edge $-1 $319 -15.000500000000061 $435 15.000500000000061 $303 $436 forward 7 unknown #
coedge $-1 $191 $190 $433 $437 forward $74 $-1 #
edge $-1 $310 -9.0009999999999977 $435 9.0009999999999977 $302 $438 forward 7 unknown #
coedge $-1 $315 $314 $191 $308 reversed $299 $-1 #
edge $-1 $439 -9.0009999999999977 $309 9.0009999999999977 $307 $440 forward 7 unknown #
vertex $-1 $193 $441 #
vertex $-1 $321 $442 #
straight-curve $-1 9.0009999999999977 0 -15.000500000000061 0 -1 0 I I #
coedge $-1 $301 $303 $194 $313 reversed $187 $-1 #
edge $-1 $316 -57 $319 57 $312 $443 forward 7 unknown #
coedge $-1 $307 $195 $200 $322 forward $299 $-1 #
coedge $-1 $195 $307 $301 $434 reversed $299 $-1 #
vertex $-1 $196 $444 #
straight-curve $-1 0 57 15.000500000000061 -1 0 0 I I #
coedge $-1 $197 $302 $199 $321 reversed $115 $-1 #
vertex $-1 $313 $445 #
straight-curve $-1 0 -57 15.000500000000061 1 0 0 I I #
edge $-1 $202 -15.000500000000061 $310 15.000500000000061 $199 $446 forward 7 unknown #
edge $-1 $203 -15.000500000000061 $309 15.000500000000061 $200 $447 forward 7 unknown #
point $-1 9.0009999999999977 -57 15.000500000000061 #
point $-1 9.0009999999999977 57 15.000500000000061 #
face $-1 $-1 $217 $27 $-1 $448 reversed single #
loop $-1 $-1 $213 $205 #
plane-surface $-1 0 -57 0 0 1 0 0 0 1 forward_v I I I I #
coedge $-1 $449 $450 $451 $452 forward $206 $-1 #
coedge $-1 $451 $208 $338 $453 forward $123 $-1 #
coedge $-1 $208 $451 $209 $333 reversed $123 $-1 #
edge $-1 $335 -85.387482193696059 $339 28.612517806303948 $208 $454 forward 7 unknown #
coedge $-1 $210 $209 $450 $455 reversed $78 $-1 #
edge $-1 $335 14.999500000000133 $456 15.000500000000061 $330 $457 forward 7 unknown #
edge $-1 $219 14.999499999999944 $458 15.000500000000061 $210 $459 forward 7 unknown #
vertex $-1 $333 $460 #
straight-curve $-1 4.4999999999998863 57 -14.999500000000086 1 0 -1.04744440165294e-014 I I #
coedge $-1 $461 $213 $216 $342 forward $326 $-1 #
coedge $-1 $213 $461 $329 $453 reversed $326 $-1 #
vertex $-1 $453 $462 #
straight-curve $-1 4.4999999999998863 -57 -14.999500000000086 -1 0 1.04744440165294e-014 I I #
coedge $-1 $216 $215 $463 $464 reversed $217 $-1 #
edge $-1 $218 14.999499999999944 $465 15.000500000000061 $216 $466 forward 7 unknown #
point $-1 -9.0009999999999977 -57 -14.999499999999944 #
point $-1 -9.0009999999999977 57 -14.999499999999944 #
face $-1 $-1 $360 $29 $-1 $467 reversed single #
loop $-1 $-1 $356 $221 #
plane-surface $-1 0 0 15.000500000000061 0 0 1 1 0 0 forward_v I I I I #
coedge $-1 $468 $469 $364 $470 forward $222 $-1 #
coedge $-1 $225 $224 $469 $471 reversed $82 $-1 #
edge $-1 $234 4.5000000000000195 $472 4.5010000000001114 $224 $473 forward 7 unknown #
coedge $-1 $474 $356 $225 $352 forward $346 $-1 #
edge $-1 $354 9.0000000000002203 $475 9.0009999999999977 $225 $476 forward 7 unknown #
convexity-sys-attrib $-1 $-1 $-1 $226 #
vertex $-1 $352 $477 #
straight-curve $-1 9.0000000000000817 -57 1.750249999999886 1.04744440165294e-014 0 1 I I #
coedge $-1 $351 $478 $227 $357 reversed $346 $-1 #
edge $479 $354 -57 $362 57 $356 $480 forward 7 unknown #
coedge $-1 $481 $228 $478 $482 reversed $360 $-1 #
coedge $-1 $228 $481 $230 $365 forward $360 $-1 #
loop $-1 $-1 $228 $345 #
convexity-sys-attrib $-1 $-1 $-1 $229 #
vertex $-1 $229 $483 #
straight-curve $-1 9.0000000000000817 57 1.750249999999886 -1.04744440165294e-014 0 -1 I I #
coedge $-1 $231 $230 $348 $470 reversed $131 $-1 #
edge $-1 $484 -4.5010000000001114 $233 -4.5000000000000195 $359 $485 forward 7 unknown #
point $-1 8.9999999999999059 57 -14.999500000000134 #
point $-1 8.9999999999999059 -57 -14.999500000000134 #
face $-1 $-1 $486 $31 $-1 $487 reversed single #
loop $-1 $-1 $378 $236 #
plane-surface $-1 0 0 15.000500000000061 0 0 1 1 0 0 forward_v I I I I #
coedge $-1 $240 $239 $488 $489 reversed $86 $-1 #
edge $-1 $249 13.49999999999998 $490 13.500999999999884 $239 $491 forward 7 unknown #
coedge $-1 $492 $378 $240 $374 forward $369 $-1 #
edge $-1 $376 8.9999999999997797 $493 9.0009999999999977 $240 $494 forward 7 unknown #
convexity-sys-attrib $-1 $-1 $-1 $241 #
vertex $-1 $374 $495 #
straight-curve $-1 -8.9999999999999183 57 1.7502500000000738 1.04744440165294e-014 0 1 I I #
coedge $-1 $373 $496 $242 $379 reversed $369 $-1 #
edge $497 $376 -57 $383 57 $378 $498 forward 7 unknown #
coedge $-1 $499 $243 $496 $500 reversed $237 $-1 #
coedge $-1 $243 $499 $245 $386 forward $237 $-1 #
convexity-sys-attrib $-1 $-1 $-1 $244 #
vertex $-1 $244 $501 #
straight-curve $-1 -8.9999999999999183 -57 1.7502500000000738 -1.04744440165294e-014 0 -1 I I #
coedge $-1 $246 $245 $502 $503 reversed $139 $-1 #
edge $-1 $504 -13.500999999999884 $248 -13.49999999999998 $381 $505 forward 7 unknown #
point $-1 -9.0000000000000941 -57 -14.999499999999944 #
point $-1 -9.0000000000000941 57 -14.999499999999944 #
aggregate_simgeom_attribute-aggregate_simgeom_base_attribute-aggregate_body_attribute-attrib_HH-attrib $-1 $-1 $251 $0 F #
attrib_hh_face_geombuild-attrib_entity_geombuild-individual_entity_attribute-attrib_HH-attrib $-1 $-1 $253 $149 F #
model_id-kcp-attrib $-1 $506 $-1 $254 1 1017635100 90 1817837569 8 #
face $507 $-1 $278 $10 $-1 $508 forward single #
cone-surface $-1 59.999999999999844 0 17.999999999999908 0 1 0 -4.9497474683057785 0 4.9497474683058815 1 I I 0 1 6.9999999999999964 forward I I I I #
attrib_hh_coedge_geombuild-attrib_entity_geombuild-individual_entity_attribute-attrib_HH-attrib $-1 $-1 $-1 $257 F #
coedge $509 $510 $257 $427 $511 reversed $150 $-1 #
coedge $512 $257 $510 $259 $398 reversed $150 $-1 #
attrib_hh_coedge_geombuild-attrib_entity_geombuild-individual_entity_attribute-attrib_HH-attrib $-1 $-1 $-1 $259 F #
edge $513 $263 -48 $514 48 $259 $515 forward 7 unknown #
attrib_hh_edge_geombuild-attrib_entity_geombuild-individual_entity_attribute-attrib_HH-attrib $-1 $-1 $-1 $261 F #
vertex $516 $511 $517 #
intcurve-curve $-1 forward { surfintcur full nubs 3 open 13 
	0.94258757805816895 3 2.5192757462681898 2 4.0959639144782001 2 5.6726520826882201 2 7.2493402508982401 2 
	7.9892035647569601 2 8.7290668786156793 2 9.4689301924743994 2 10.2087935063331 2 11.7335051755759 2 
	13.2582168448186 2 14.7829285140614 2 16.307640183304098 3 
	48.999999999999844 56.774964387392103 18.000000000000021 
	48.999999999999851 56.774964387392103 18.525562722736723 
	48.939781549963051 56.761942554548 19.064438773683921 
	48.693305591366737 56.7003044968707 20.119730662275927 
	48.507066304158911 56.651528889160502 20.636141440310027 
	48.026199256086798 56.498247044282799 21.602228090029534 
	47.730802376118426 56.393008986508399 22.053163135994634 
	47.069250072582747 56.1042864057233 22.85519625871434 
	46.703263819820769 55.920109968695499 23.206184632126504 
	46.155651634124865 55.587762830494597 23.637385440378932 
	45.97026123005147 55.466978723668198 23.769546732843331 
	45.591477771754626 55.197355810622398 24.012647598798125 
	45.398130899176877 55.048475630813101 24.12361323737305 
	45.017145507831522 54.728105195864998 24.320028858962193 
	44.829401914350228 54.556480003012503 24.405610100795215 
	44.471630191742101 54.200330508612602 24.551976812290878 
	44.301622383894134 54.015814377220003 24.612831825405749 
	43.822788438726235 53.452996087212398 24.766989926998463 
	43.518052116614072 53.030016433021402 24.838886782787089 
	42.979639272777497 52.1175749298162 24.936509317629145 
	42.745973498877426 51.628154447123002 24.962680396539156 
	42.370911650127134 50.6136748462905 24.992697332638073 
	42.229240030100868 50.087922963311698 24.996860137368362 
	42.043773043976778 49.035206001073803 25.000477604551985 
	41.999999999999915 48.508237223080897 25.000000000000092 
	41.999999999999915 48 25.000000000000092 
	0.001 
	cone 51.000000000000036 48 36.5 -1.04744440165294e-014 0 -1 -6.3639610306789303 6.3639610306789303 6.6658953539221198e-014 1 I I 0 1 9.0000000000000036 forward I I I I 
	cone 41.999999999999844 0 18.000000000000092 0 -1 0 4.9497474683058815 0 4.9497474683057785 1 I I 0 -1 6.9999999999999964 forward I I I I 
	nullbs 
	nullbs 
	I I 
	0 
	0 
	0 
	} I I #
convexity-sys-attrib $-1 $518 $262 $155 #
attrib_hh_vertex_geombuild-attrib_entity_geombuild-individual_entity_attribute-attrib_HH-attrib $-1 $-1 $-1 $263 F #
point $-1 41.999999999999915 48 25.000000000000092 #
attrib_hh_coedge_geombuild-attrib_entity_geombuild-individual_entity_attribute-attrib_HH-attrib $-1 $-1 $-1 $266 F #
coedge $519 $520 $266 $269 $410 forward $278 $-1 #
model_id-kcp-attrib $-1 $521 $-1 $267 1 1017635100 90 1817837569 12 #
ellipse-curve $-1 51.000000000000156 -48 48 -1.04744440165294e-014 0 -1 -6.3639610306789303 -6.3639610306789303 6.6658953539221198e-014 1 I I #
attrib_hh_coedge_geombuild-attrib_entity_geombuild-individual_entity_attribute-attrib_HH-attrib $-1 $-1 $-1 $269 F #
edge $522 $271 -15 $514 8 $269 $523 forward 7 unknown #
convexity-sys-attrib $-1 $524 $270 $159 #
attrib_hh_vertex_geombuild-attrib_entity_geombuild-individual_entity_attribute-attrib_HH-attrib $-1 $-1 $-1 $271 F #
point $-1 42.000000000000156 -48 48.000000000000092 #
convexity-sys-attrib $-1 $525 $273 $101 #
attrib_hh_coedge_geombuild-attrib_entity_geombuild-individual_entity_attribute-attrib_HH-attrib $-1 $-1 $-1 $277 F #
coedge $526 $277 $520 $527 $528 forward $278 $-1 #
convexity-sys-attrib $-1 $529 $279 $167 #
attrib_hh_edge_geombuild-attrib_entity_geombuild-individual_entity_attribute-attrib_HH-attrib $-1 $-1 $281 $104 F #
attrib_hh_coedge_geombuild-attrib_entity_geombuild-individual_entity_attribute-attrib_HH-attrib $-1 $-1 $-1 $285 F #
coedge $530 $527 $292 $285 $421 forward $255 $-1 #
edge $531 $295 -56.774964387392103 $423 56.774964387392103 $420 $532 forward 7 unknown #
attrib_hh_edge_geombuild-attrib_entity_geombuild-individual_entity_attribute-attrib_HH-attrib $-1 $-1 $-1 $286 F #
vertex $533 $421 $534 #
intcurve-curve $-1 forward { surfintcur full nubs 3 open 13 
	0.94163755229705404 3 2.5183257205070699 2 4.0950138887170899 2 5.6717020569271099 2 7.2483902251371299 2 
	7.98825353899585 2 8.7281168528545692 2 9.4679801667132892 2 10.207843480572 2 11.7325551498148 2 
	13.2572668190575 2 14.7819784883003 2 16.306690157542999 3 
	52.999999999999844 -56.774964387392103 17.999999999999979 
	52.999999999999851 -56.774964387392103 18.52556272273668 
	53.060218450036658 -56.761942554548 19.064438773683879 
	53.306694408632993 -56.7003044968707 20.119730662275877 
	53.492933695840833 -56.651528889160502 20.636141440309974 
	53.973800743912953 -56.498247044282799 21.60222809002947 
	54.269197623881347 -56.393008986508399 22.053163135994566 
	54.930749927417047 -56.1042864057233 22.855196258714258 
	55.296736180179025 -55.920109968695499 23.206184632126416 
	55.844348365874943 -55.587762830494597 23.637385440378829 
	56.029738769948331 -55.466978723668198 23.769546732843224 
	56.408522228245189 -55.197355810622398 24.012647598798011 
	56.601869100822924 -55.048475630813101 24.123613237372929 
	56.9828544921683 -54.728105195864998 24.320028858962068 
	57.170598085649587 -54.556480003012503 24.405610100795077 
	57.528369808257722 -54.200330508612602 24.551976812290743 
	57.698377616105695 -54.015814377220003 24.61283182540561 
	58.177211561273594 -53.452996087212398 24.766989926998313 
	58.481947883385757 -53.030016433021402 24.838886782786933 
	59.020360727222332 -52.1175749298162 24.936509317628975 
	59.254026501122411 -51.628154447123002 24.962680396538985 
	59.629088349872696 -50.6136748462905 24.992697332637889 
	59.770759969898968 -50.087922963311698 24.996860137368177 
	59.956226956023059 -49.035206001073803 25.000477604551797 
	59.999999999999915 -48.508237223080897 24.999999999999908 
	59.999999999999915 -48 24.999999999999908 
	0.001 
	cone 51.000000000000036 -48 36.5 -1.04744440165294e-014 0 -1 6.3639610306789303 -6.3639610306789303 -6.6658953539221198e-014 1 I I 0 1 9.0000000000000036 forward I I I I 
	cone 59.999999999999844 0 17.999999999999908 0 1 0 -4.9497474683057785 0 4.9497474683058815 1 I I 0 -1 6.9999999999999964 forward I I I I 
	nullbs 
	nullbs 
	I I 
	0 
	0 
	0 
	} I I #
attrib_hh_edge_geombuild-attrib_entity_geombuild-individual_entity_attribute-attrib_HH-attrib $-1 $-1 $288 $107 F #
attrib_hh_coedge_geombuild-attrib_entity_geombuild-individual_entity_attribute-attrib_HH-attrib $-1 $-1 $-1 $292 F #
coedge $535 $292 $527 $395 $511 forward $255 $-1 #
attrib_hh_edge_geombuild-attrib_entity_geombuild-individual_entity_attribute-attrib_HH-attrib $-1 $-1 $-1 $293 F #
ellipse-curve $-1 50.999999999999844 48 18 1.04744440165294e-014 0 1 -6.3639610306789303 6.3639610306789303 6.6658953539221198e-014 1 I I #
attrib_hh_vertex_geombuild-attrib_entity_geombuild-individual_entity_attribute-attrib_HH-attrib $-1 $-1 $-1 $295 F #
point $-1 52.999999999999844 56.774964387392103 17.999999999999979 #
plane-surface $-1 9.0009999999999977 0 0 -1 0 0 0 0 1 forward_v I I I I #
coedge $-1 $303 $301 $305 $437 reversed $187 $-1 #
edge $-1 $316 -15.000500000000061 $439 15.000500000000061 $315 $536 forward 7 unknown #
vertex $-1 $437 $537 #
straight-curve $-1 -9.0009999999999977 -57 0 0 0 -1 I I #
edge $-1 $435 -57 $439 57 $433 $538 forward 7 unknown #
straight-curve $-1 0 -57 -15.000500000000061 -1 0 0 I I #
vertex $-1 $308 $539 #
straight-curve $-1 0 57 -15.000500000000061 1 0 0 I I #
point $-1 9.0009999999999977 57 -15.000500000000061 #
point $-1 9.0009999999999977 -57 -15.000500000000061 #
straight-curve $-1 -9.0009999999999977 0 15.000500000000061 0 -1 0 I I #
point $-1 -9.0009999999999977 57 15.000500000000061 #
point $-1 -9.0009999999999977 -57 15.000500000000061 #
straight-curve $-1 9.0009999999999977 -57 0 0 0 -1 I I #
straight-curve $-1 9.0009999999999977 57 0 0 0 -1 I I #
plane-surface $-1 -9.0009999999999977 0 0 1 0 0 0 0 -1 forward_v I I I I #
coedge $-1 $463 $328 $461 $540 forward $206 $-1 #
coedge $-1 $328 $463 $332 $455 forward $206 $-1 #
coedge $-1 $330 $329 $328 $452 reversed $123 $-1 #
edge $-1 $456 -57 $541 57 $451 $542 forward 7 unknown #
edge $-1 $339 14.999500000000133 $541 15.000500000000061 $329 $543 forward 7 unknown #
straight-curve $-1 9.0009999999999977 -28.387482193696052 -14.999500000000133 0 -1 0 I I #
edge $-1 $458 -9.0009999999999977 $456 9.0009999999999977 $332 $544 forward 7 unknown #
vertex $-1 $452 $545 #
straight-curve $-1 9.0009999999999977 57 0 0 0 -1 I I #
vertex $-1 $455 $546 #
straight-curve $-1 -9.0009999999999977 57 0 0 0 -1 I I #
point $-1 9.0009999999999977 57 -14.999500000000133 #
coedge $-1 $338 $337 $449 $540 reversed $326 $-1 #
point $-1 9.0009999999999977 -57 -14.999500000000133 #
coedge $-1 $450 $449 $341 $464 forward $206 $-1 #
edge $-1 $465 -57 $458 57 $341 $547 forward 7 unknown #
vertex $-1 $464 $548 #
straight-curve $-1 -9.0009999999999977 -57 0 0 0 -1 I I #
plane-surface $-1 0 57 0 0 -1 0 0 0 -1 forward_v I I I I #
coedge $-1 $549 $348 $481 $550 reversed $222 $-1 #
coedge $-1 $348 $549 $349 $471 forward $222 $-1 #
edge $-1 $472 -28.612517806303948 $484 85.387482193696059 $348 $551 forward 7 unknown #
edge $-1 $475 -15.000500000000061 $472 14.999500000000133 $469 $552 forward 7 unknown #
vertex $-1 $470 $553 #
straight-curve $-1 4.4999999999998863 -57 -14.999500000000086 1 0 -1.04744440165294e-014 I I #
coedge $-1 $478 $351 $549 $554 forward $346 $-1 #
vertex $-1 $554 $555 #
straight-curve $-1 0 -57 15.000500000000061 1 0 0 I I #
point $-1 9.0000000000002203 -57 15.000500000000061 #
coedge $-1 $356 $474 $358 $482 forward $346 $-1 #
convexity-sys-attrib $-1 $-1 $-1 $357 #
straight-curve $-1 9.0000000000002203 0 15.000500000000061 0 1 0 I I #
coedge $-1 $359 $358 $468 $550 forward $360 $-1 #
edge $-1 $556 -9.0009999999999977 $362 -9.0000000000002203 $358 $557 forward 7 unknown #
point $-1 9.0000000000002203 57 15.000500000000061 #
vertex $-1 $470 $558 #
straight-curve $-1 4.4999999999998863 57 -14.999500000000086 -1 0 1.04744440165294e-014 I I #
loop $-1 $-1 $502 $368 #
plane-surface $-1 -9.0009999999999977 0 0 1 0 0 0 0 -1 forward_v I I I I #
coedge $-1 $502 $559 $371 $489 forward $486 $-1 #
edge $-1 $493 -15.000500000000061 $490 14.999499999999944 $371 $560 forward 7 unknown #
vertex $-1 $372 $561 #
straight-curve $-1 4.4999999999998863 57 -14.999500000000086 -1 0 1.04744440165294e-014 I I #
coedge $-1 $496 $373 $559 $562 forward $369 $-1 #
vertex $-1 $374 $563 #
straight-curve $-1 0 57 15.000500000000061 -1 0 0 I I #
point $-1 -8.9999999999997797 57 15.000500000000061 #
coedge $-1 $378 $492 $380 $500 forward $369 $-1 #
convexity-sys-attrib $-1 $-1 $-1 $379 #
straight-curve $-1 -8.9999999999997797 0 15.000500000000061 0 -1 0 I I #
coedge $-1 $381 $380 $564 $565 forward $237 $-1 #
edge $-1 $566 -9.0009999999999977 $383 -8.9999999999997797 $380 $567 forward 7 unknown #
point $-1 -8.9999999999997797 -57 15.000500000000061 #
coedge $-1 $564 $488 $385 $503 forward $486 $-1 #
edge $-1 $490 -85.387482193696059 $504 28.612517806303948 $502 $568 forward 7 unknown #
vertex $-1 $503 $569 #
straight-curve $-1 4.4999999999998863 -57 -14.999500000000086 1 0 -1.04744440165294e-014 I I #
attrib_hh_face_geombuild-attrib_entity_geombuild-individual_entity_attribute-attrib_HH-attrib $-1 $-1 $391 $254 F #
model_id-kcp-attrib $-1 $570 $-1 $392 1 1017635100 90 1817837569 9 #
cone-surface $-1 51.000000000000036 -48 36.5 1.04744440165294e-014 0 1 -6.3639610306789303 -6.3639610306789303 6.6658953539221198e-014 1 I I 0 1 9.0000000000000036 forward I I I I #
attrib_hh_coedge_geombuild-attrib_entity_geombuild-individual_entity_attribute-attrib_HH-attrib $-1 $-1 $-1 $395 F #
coedge $571 $396 $395 $520 $572 reversed $150 $-1 #
edge $573 $574 -56.774964387392103 $400 56.774964387392103 $427 $575 forward 7 unknown #
attrib_hh_coedge_geombuild-attrib_entity_geombuild-individual_entity_attribute-attrib_HH-attrib $-1 $-1 $-1 $396 F #
attrib_edge_convexity-kcp-attrib $-1 $576 $-1 $398 1 #
vertex $577 $398 $578 #
straight-curve $-1 41.999999999999915 0 25.000000000000092 0 -1 0 I I #
attrib_hh_vertex_geombuild-attrib_entity_geombuild-individual_entity_attribute-attrib_HH-attrib $-1 $-1 $-1 $400 F #
point $-1 48.999999999999844 56.774964387392103 18.000000000000021 #
attrib_hh_edge_geombuild-attrib_entity_geombuild-individual_entity_attribute-attrib_HH-attrib $-1 $-1 $402 $155 F #
attrib_hh_coedge_geombuild-attrib_entity_geombuild-individual_entity_attribute-attrib_HH-attrib $-1 $-1 $-1 $406 F #
coedge $579 $416 $406 $510 $572 forward $278 $-1 #
attrib_edge_convexity-kcp-attrib $-1 $580 $407 $267 1 #
attrib_edge_convexity-kcp-attrib $-1 $581 $-1 $410 3 #
straight-curve $-1 42 -48 33.000000000000092 -1.04744440165294e-014 0 -1 I I #
attrib_hh_edge_geombuild-attrib_entity_geombuild-individual_entity_attribute-attrib_HH-attrib $-1 $-1 $411 $159 F #
attrib_hh_edge_geombuild-attrib_entity_geombuild-individual_entity_attribute-attrib_HH-attrib $-1 $-1 $414 $101 F #
attrib_hh_coedge_geombuild-attrib_entity_geombuild-individual_entity_attribute-attrib_HH-attrib $-1 $-1 $-1 $416 F #
coedge $582 $427 $420 $416 $528 reversed $255 $-1 #
edge $583 $574 0.56130507109607697 $423 1.0094912556988196 $527 $584 forward 7 unknown #
attrib_hh_edge_geombuild-attrib_entity_geombuild-individual_entity_attribute-attrib_HH-attrib $-1 $-1 $417 $167 F #
attrib_hh_coedge_geombuild-attrib_entity_geombuild-individual_entity_attribute-attrib_HH-attrib $-1 $-1 $-1 $420 F #
attrib_hh_edge_geombuild-attrib_entity_geombuild-individual_entity_attribute-attrib_HH-attrib $-1 $-1 $-1 $421 F #
straight-curve $-1 52.999999999999844 0 17.999999999999979 0 -1 0 I I #
attrib_hh_vertex_geombuild-attrib_entity_geombuild-individual_entity_attribute-attrib_HH-attrib $-1 $-1 $-1 $423 F #
point $-1 52.999999999999844 -56.774964387392103 17.999999999999979 #
attrib_hh_coedge_geombuild-attrib_entity_geombuild-individual_entity_attribute-attrib_HH-attrib $-1 $-1 $-1 $427 F #
straight-curve $-1 -9.0009999999999977 57 0 0 0 -1 I I #
point $-1 -9.0009999999999977 -57 -15.000500000000061 #
straight-curve $-1 -9.0009999999999977 0 -15.000500000000061 0 1 0 I I #
point $-1 -9.0009999999999977 57 -15.000500000000061 #
edge $-1 $541 -9.0009999999999977 $465 9.0009999999999977 $461 $585 forward 7 unknown #
vertex $-1 $453 $586 #
straight-curve $-1 9.0009999999999977 0 -15.000500000000061 0 -1 0 I I #
straight-curve $-1 9.0009999999999977 -57 0 0 0 -1 I I #
straight-curve $-1 0 57 -15.000500000000061 1 0 0 I I #
point $-1 9.0009999999999977 57 -15.000500000000061 #
point $-1 -9.0009999999999977 57 -15.000500000000061 #
straight-curve $-1 -9.0009999999999977 0 -15.000500000000061 0 1 0 I I #
point $-1 -9.0009999999999977 -57 -15.000500000000061 #
coedge $-1 $469 $468 $474 $554 reversed $222 $-1 #
edge $-1 $556 -15.000500000000061 $484 14.999500000000133 $468 $587 forward 7 unknown #
straight-curve $-1 9.0009999999999977 -28.387482193696052 -14.999500000000133 0 1 0 I I #
straight-curve $-1 9.0009999999999977 -57 0 0 0 -1 I I #
point $-1 9.0009999999999977 -57 -14.999500000000133 #
edge $-1 $475 -57 $556 57 $549 $588 forward 7 unknown #
point $-1 9.0009999999999977 -57 15.000500000000061 #
vertex $-1 $554 $589 #
straight-curve $-1 0 57 15.000500000000061 -1 0 0 I I #
point $-1 9.0009999999999977 57 -14.999500000000133 #
coedge $-1 $488 $564 $492 $562 reversed $486 $-1 #
straight-curve $-1 -9.0009999999999977 57 0 0 0 -1 I I #
point $-1 -9.0009999999999977 57 -14.999499999999944 #
edge $-1 $493 -57 $566 57 $559 $590 forward 7 unknown #
point $-1 -9.0009999999999977 57 15.000500000000061 #
coedge $-1 $559 $502 $499 $565 reversed $486 $-1 #
edge $-1 $566 -15.000500000000061 $504 14.999499999999944 $564 $591 forward 7 unknown #
vertex $-1 $562 $592 #
straight-curve $-1 0 -57 15.000500000000061 1 0 0 I I #
straight-curve $-1 -9.0009999999999977 -28.387482193696052 -14.999499999999944 0 -1 0 I I #
point $-1 -9.0009999999999977 -57 -14.999499999999944 #
attrib_hh_face_geombuild-attrib_entity_geombuild-individual_entity_attribute-attrib_HH-attrib $-1 $-1 $507 $392 F #
attrib_hh_coedge_geombuild-attrib_entity_geombuild-individual_entity_attribute-attrib_HH-attrib $-1 $-1 $-1 $510 F #
edge $593 $514 16.306690157542999 $574 31.671742762788998 $510 $594 forward 7 unknown #
attrib_hh_edge_geombuild-attrib_entity_geombuild-individual_entity_attribute-attrib_HH-attrib $-1 $-1 $-1 $511 F #
vertex $595 $572 $596 #
straight-curve $-1 48.999999999999844 0 18.000000000000021 0 1 0 I I #
convexity-sys-attrib $-1 $597 $513 $398 #
attrib_hh_vertex_geombuild-attrib_entity_geombuild-individual_entity_attribute-attrib_HH-attrib $-1 $-1 $-1 $514 F #
point $-1 41.999999999999915 -48 25.000000000000092 #
attrib_hh_coedge_geombuild-attrib_entity_geombuild-individual_entity_attribute-attrib_HH-attrib $-1 $-1 $-1 $520 F #
convexity-sys-attrib $-1 $598 $521 $267 #
convexity-sys-attrib $-1 $599 $522 $410 #
attrib_hh_coedge_geombuild-attrib_entity_geombuild-individual_entity_attribute-attrib_HH-attrib $-1 $-1 $-1 $527 F #
attrib_hh_edge_geombuild-attrib_entity_geombuild-individual_entity_attribute-attrib_HH-attrib $-1 $-1 $-1 $528 F #
ellipse-curve $-1 50.999999999999844 -48 18 1.04744440165294e-014 0 1 -6.3639610306789303 -6.3639610306789303 6.6658953539221198e-014 1 I I #
straight-curve $-1 0 -57 -15.000500000000061 -1 0 0 I I #
point $-1 9.0009999999999977 -57 -15.000500000000061 #
straight-curve $-1 9.0009999999999977 57 0 0 0 -1 I I #
straight-curve $-1 9.0009999999999977 0 15.000500000000061 0 1 0 I I #
point $-1 9.0009999999999977 57 15.000500000000061 #
straight-curve $-1 -9.0009999999999977 0 15.000500000000061 0 -1 0 I I #
straight-curve $-1 -9.0009999999999977 -57 0 0 0 -1 I I #
point $-1 -9.0009999999999977 -57 15.000500000000061 #
attrib_hh_edge_geombuild-attrib_entity_geombuild-individual_entity_attribute-attrib_HH-attrib $-1 $-1 $-1 $572 F #
intcurve-curve $-1 forward { surfintcur full nubs 3 open 13 
	16.306690157542999 3 17.8314018267858 2 19.356113496028499 2 20.8808251652713 2 22.405536834513999 2 
	23.145400148372701 2 23.8852634622314 2 24.625126776090202 2 25.3649900899489 2 26.941678258158898 2 
	28.5183664263689 2 30.095054594578901 2 31.671742762788998 3 
	41.999999999999915 -48 25.000000000000092 
	41.999999999999915 -48.508237223080897 25.000000000000092 
	42.043773043976785 -49.035206001073803 25.000477604551985 
	42.229240030100868 -50.087922963311698 24.996860137368362 
	42.370911650127134 -50.6136748462905 24.992697332638073 
	42.745973498877426 -51.628154447123002 24.962680396539156 
	42.979639272777497 -52.1175749298162 24.936509317629145 
	43.518052116614072 -53.030016433021402 24.838886782787089 
	43.822788438726235 -53.452996087212398 24.766989926998463 
	44.301622383894134 -54.015814377220003 24.612831825405749 
	44.471630191742101 -54.200330508612602 24.551976812290878 
	44.829401914350228 -54.556480003012503 24.405610100795215 
	45.017145507831522 -54.728105195864998 24.320028858962193 
	45.398130899176884 -55.048475630813101 24.12361323737305 
	45.591477771754633 -55.197355810622398 24.012647598798118 
	45.97026123005147 -55.466978723668198 23.769546732843324 
	46.155651634124865 -55.587762830494597 23.637385440378932 
	46.703263819820769 -55.920109968695499 23.206184632126504 
	47.069250072582747 -56.1042864057233 22.85519625871434 
	47.730802376118426 -56.393008986508399 22.053163135994634 
	48.026199256086812 -56.498247044282799 21.602228090029534 
	48.507066304158911 -56.651528889160502 20.636141440310027 
	48.693305591366737 -56.7003044968707 20.119730662275927 
	48.939781549963051 -56.761942554548 19.064438773683921 
	48.999999999999851 -56.774964387392103 18.525562722736723 
	48.999999999999844 -56.774964387392103 18.000000000000021 
	0.001 
	cone 51.000000000000036 -48 36.5 1.04744440165294e-014 0 1 -6.3639610306789303 -6.3639610306789303 6.6658953539221198e-014 1 I I 0 1 9.0000000000000036 forward I I I I 
	cone 41.999999999999844 0 18.000000000000092 0 -1 0 4.9497474683058815 0 4.9497474683057785 1 I I 0 -1 6.9999999999999964 forward I I I I 
	nullbs 
	nullbs 
	I I 
	0 
	0 
	0 
	} I I #
attrib_hh_vertex_geombuild-attrib_entity_geombuild-individual_entity_attribute-attrib_HH-attrib $-1 $-1 $-1 $574 F #
point $-1 48.999999999999844 -56.774964387392103 18.000000000000021 #
attrib_hh_edge_geombuild-attrib_entity_geombuild-individual_entity_attribute-attrib_HH-attrib $-1 $-1 $576 $398 F #
attrib_hh_edge_geombuild-attrib_entity_geombuild-individual_entity_attribute-attrib_HH-attrib $-1 $-1 $580 $267 F #
attrib_hh_edge_geombuild-attrib_entity_geombuild-individual_entity_attribute-attrib_HH-attrib $-1 $-1 $581 $410 F #
End-of-ACIS-data 