600 0 1 0           
101 GICL ACIS Healer - Source: /gicl/data5/repository/UMD/tmp/fillet1-feature2/fillet1-feature2.sat - 6 0 18 ACIS 6.0.3 Solaris 24 Sun Apr 14 00:33:49 2002 
1 9.999999999999999547e-07 1.000000000000000036e-10 
body $-1 $1 $-1 $-1 #
lump $-1 $-1 $2 $0 #
shell $-1 $-1 $-1 $3 $-1 $1 #
face $-1 $4 $5 $2 $-1 $6 reversed single #
face $-1 $7 $8 $2 $-1 $9 reversed single #
loop $-1 $-1 $10 $3 #
plane-surface $-1 60 0 32.99999999999990763 -1 0 1.047444401652940007e-14 1.047444401652940007e-14 0 1 forward_v I I I I #
face $-1 $11 $12 $2 $-1 $13 forward single #
loop $-1 $-1 $14 $4 #
plane-surface $-1 51.00000000000015632 0 48 -1.047444401652940007e-14 0 -1 -1 0 1.047444401652940007e-14 forward_v I I I I #
coedge $-1 $15 $16 $17 $18 reversed $5 $-1 #
face $-1 $19 $20 $2 $-1 $21 forward single #
loop $-1 $-1 $22 $7 #
cone-surface $-1 51.00000000000003553 48 36.5 -1.047444401652940007e-14 0 -1 -6.363961030678930264 6.363961030678930264 6.66589535392211978e-14 1 I I 0 1 9.000000000000003553 forward I I I I #
coedge $-1 $23 $24 $25 $26 reversed $8 $-1 #
coedge $-1 $27 $10 $24 $28 forward $5 $-1 #
coedge $-1 $10 $27 $29 $30 forward $5 $-1 #
coedge $-1 $31 $25 $10 $18 forward $12 $-1 #
edge $-1 $32 -15 $33 8 $10 $34 forward 7 unknown #
face $-1 $35 $36 $2 $-1 $37 reversed single #
loop $-1 $-1 $38 $11 #
plane-surface $-1 42 0 33.00000000000009237 -1 0 1.047444401652940007e-14 1.047444401652940007e-14 0 1 forward_v I I I I #
coedge $-1 $25 $39 $38 $40 forward $12 $-1 #
coedge $-1 $41 $14 $42 $43 reversed $8 $-1 #
coedge $-1 $14 $41 $15 $28 reversed $8 $-1 #
coedge $-1 $17 $22 $14 $26 forward $12 $-1 #
edge $-1 $44 -2.356194490192344837 $32 0.785398163397448279 $14 $45 forward 7 unknown #
coedge $-1 $16 $15 $46 $47 reversed $5 $-1 #
edge $-1 $32 -48 $48 48 $24 $49 forward 7 unknown #
coedge $-1 $50 $51 $16 $30 reversed $52 $-1 #
edge $-1 $53 -48 $33 48 $16 $54 forward 7 unknown #
coedge $-1 $55 $17 $51 $56 forward $12 $-1 #
vertex $-1 $26 $57 #
vertex $-1 $30 $58 #
straight-curve $-1 60 48 32.99999999999990763 -1.047444401652940007e-14 -0 -1 I I #
face $-1 $59 $60 $2 $-1 $61 reversed single #
loop $-1 $-1 $62 $19 #
cone-surface $-1 41.99999999999984368 0 18.00000000000009237 0 -1 0 4.949747468305881526 0 4.949747468305778497 1 I I 0 1 6.999999999999996447 forward I I I I #
coedge $-1 $63 $42 $22 $40 reversed $20 $-1 #
coedge $-1 $22 $55 $62 $64 forward $12 $-1 #
edge $-1 $65 -8 $44 15 $38 $66 forward 7 unknown #
coedge $-1 $24 $23 $67 $68 reversed $8 $-1 #
coedge $-1 $38 $69 $23 $43 forward $20 $-1 #
edge $-1 $70 -48 $44 48 $23 $71 forward 7 unknown #
vertex $-1 $43 $72 #
ellipse-curve $-1 51.00000000000015632 48 48 -1.047444401652940007e-14 0 -1 6.363961030678930264 6.363961030678930264 -6.66589535392211978e-14 1 I I #
coedge $-1 $67 $73 $27 $47 forward $74 $-1 #
edge $-1 $53 -8 $48 15 $27 $75 forward 7 unknown #
vertex $-1 $28 $76 #
straight-curve $-1 60.00000000000015632 0 47.99999999999990763 0 -1 0 I I #
coedge $-1 $77 $29 $73 $78 reversed $52 $-1 #
coedge $-1 $29 $77 $31 $56 reversed $52 $-1 #
loop $-1 $-1 $51 $59 #
vertex $-1 $47 $79 #
straight-curve $-1 59.99999999999991473 0 24.99999999999990763 0 1 0 I I #
coedge $-1 $39 $31 $80 $81 forward $12 $-1 #
edge $-1 $33 16.30764018330409826 $82 31.67269278855010128 $51 $83 forward 7 unknown #
point $-1 60.00000000000015632 48 47.99999999999990763 #
point $-1 59.99999999999991473 48 24.99999999999990763 #
face $-1 $84 $52 $2 $-1 $85 reversed single #
loop $-1 $-1 $80 $35 #
plane-surface $-1 50.99999999999984368 0 18 1.047444401652940007e-14 0 1 1 0 -1.047444401652940007e-14 forward_v I I I I #
coedge $-1 $86 $87 $39 $64 reversed $36 $-1 #
coedge $-1 $69 $38 $87 $88 forward $20 $-1 #
edge $-1 $89 0.9425875780581689511 $65 16.30764018330409826 $62 $90 forward 7 unknown #
vertex $-1 $64 $91 #
straight-curve $-1 42 48 33.00000000000009237 1.047444401652940007e-14 0 1 I I #
coedge $-1 $92 $46 $41 $68 forward $74 $-1 #
edge $-1 $48 -2.356194490192344837 $70 0.785398163397448279 $41 $93 forward 7 unknown #
coedge $-1 $42 $63 $92 $94 reversed $20 $-1 #
vertex $-1 $94 $95 #
straight-curve $-1 42.00000000000015632 0 48.00000000000009237 0 1 0 I I #
point $-1 42.00000000000015632 48 48.00000000000009237 #
coedge $-1 $46 $96 $50 $78 forward $74 $-1 #
loop $-1 $-1 $92 $84 #
straight-curve $-1 60 -48 32.99999999999990763 1.047444401652940007e-14 0 1 I I #
point $-1 60.00000000000015632 -48 47.99999999999990763 #
coedge $-1 $51 $50 $97 $98 reversed $52 $-1 #
edge $-1 $99 0.9416375522970540368 $53 16.30669015754299878 $50 $100 forward 7 unknown #
point $-1 59.99999999999991473 -48 24.99999999999990763 #
coedge $-1 $97 $101 $55 $81 reversed $60 $-1 #
edge $-1 $82 -1.00949125569881959 $89 -0.5613050710960769685 $80 $102 forward 7 unknown #
vertex $-1 $81 $103 #
intcurve-curve $-1 forward { surfintcur full nubs 3 open 13 
	16.30764018330409826 3 17.83235185254689981 2 19.35706352178959833 2 20.88177519103239987 2 22.40648686027509839 2 
	23.14635017413380069 2 23.88621348799259891 2 24.62607680185130121 2 25.36594011570999996 2 26.94262828392000131 2 
	28.51931645212999911 2 30.09600462034009993 2 31.67269278855010128 3 
	59.99999999999991473 48 24.99999999999990763 
	59.99999999999991473 48.50823722308089714 24.99999999999990763 
	59.95622695602305896 49.0352060010738029 25.00047760455179713 
	59.77075996989896822 50.0879229633116978 24.99686013736817713 
	59.62908834987269557 50.6136748462905004 24.99269733263788851 
	59.25402650112241076 51.62815444712300206 24.96268039653898541 
	59.02036072722233229 52.11757492981620032 24.93650931762897471 
	58.48194788338575734 53.03001643302140167 24.83888678278693263 
	58.1772115612735945 53.45299608721239792 24.76698992699831336 
	57.69837761610569515 54.01581437722000345 24.61283182540561043 
	57.52836980825772173 54.20033050861260193 24.55197681229074291 
	57.17059808564958701 54.55648000301250278 24.40561010079508719 
	56.98285449216830045 54.72810519586499822 24.32002885896206834 
	56.601869100822924 55.04847563081310113 24.12361323737292906 
	56.40852222824517526 55.1973558106223976 24.01264759879800437 
	56.02973876994833091 55.46697872366819837 23.76954673284321728 
	55.84434836587494289 55.58776283049459721 23.6373854403788286 
	55.2967361801790247 55.92010996869549899 23.20618463212641558 
	54.93074992741704676 56.10428640572330039 22.85519625871425831 
	54.26919762388134671 56.39300898650839855 22.05316313599456635 
	53.97380074391296034 56.49824704428279887 21.60222809002947031 
	53.4929336958408328 56.65152888916050244 20.63614144030997366 
	53.30669440863299258 56.70030449687070018 20.11973066227587736 
	53.0602184500366576 56.76194255454799986 19.06443877368387874 
	52.99999999999985079 56.77496438739210305 18.52556272273668014 
	52.99999999999984368 56.77496438739210305 17.99999999999997868 
	0.001000000000000000021 
	cone 51.00000000000003553 48 36.5 1.047444401652940007e-14 0 1 6.363961030678930264 6.363961030678930264 -6.66589535392211978e-14 1 I I 0 1 9.000000000000003553 forward I I I I 
	cone 59.99999999999984368 0 17.99999999999990763 0 1 0 -4.949747468305778497 0 4.949747468305881526 1 I I -0 -1 6.999999999999996447 forward I I I I 
	nullbs 
	nullbs 
	I I 
	0 
	0 
	0 
	} I I #
face $-1 $-1 $74 $2 $-1 $104 forward single #
cone-surface $-1 59.99999999999984368 0 17.99999999999990763 0 1 0 -4.949747468305778497 0 4.949747468305881526 1 I I 0 1 6.999999999999996447 forward I I I I #
coedge $-1 $105 $62 $101 $106 reversed $36 $-1 #
coedge $-1 $62 $105 $63 $88 reversed $36 $-1 #
edge $-1 $65 -48 $107 48 $63 $108 forward 7 unknown #
vertex $-1 $106 $109 #
intcurve-curve $-1 forward { surfintcur full nubs 3 open 13 
	0.9425875780581689511 3 2.519275746268189842 2 4.095963914478200074 2 5.672652082688220077 2 7.249340250898240079 2 
	7.989203564756960141 2 8.729066878615679315 2 9.468930192474399377 2 10.2087935063330999 2 11.73350517557589967 2 
	13.25821684481859997 2 14.78292851406139974 2 16.30764018330409826 3 
	48.99999999999984368 56.77496438739210305 18.00000000000002132 
	48.99999999999985079 56.77496438739210305 18.52556272273672278 
	48.93978154996305108 56.76194255454799986 19.06443877368392137 
	48.69330559136673742 56.70030449687070018 20.1197306622759271 
	48.50706630415891141 56.65152888916050244 20.63614144031002695 
	48.02619925608679807 56.49824704428279887 21.60222809002953426 
	47.73080237611842591 56.39300898650839855 22.05316313599463385 
	47.06925007258274718 56.10428640572330039 22.85519625871434002 
	46.70326381982076924 55.92010996869549899 23.2061846321265044 
	46.15565163412486527 55.58776283049459721 23.63738544037893163 
	45.97026123005147014 55.46697872366819837 23.76954673284333097 
	45.59147777175462579 55.1973558106223976 24.01264759879812516 
	45.39813089917687705 55.04847563081310113 24.12361323737304986 
	45.01714550783152191 54.72810519586499822 24.32002885896219269 
	44.82940191435022825 54.55648000301250278 24.40561010079521509 
	44.47163019174210064 54.20033050861260193 24.55197681229087792 
	44.30162238389413432 54.01581437722000345 24.61283182540574899 
	43.82278843872623497 53.45299608721239792 24.76698992699846258 
	43.51805211661407213 53.03001643302140167 24.83888678278708895 
	42.97963927277749718 52.11757492981620032 24.93650931762914524 
	42.74597349887742581 51.62815444712300206 24.96268039653915594 
	42.3709116501271339 50.6136748462905004 24.99269733263807325 
	42.22924003010086835 50.0879229633116978 24.99686013736836188 
	42.04377304397677761 49.0352060010738029 25.00047760455198542 
	41.99999999999991473 48.50823722308089714 25.00000000000009237 
	41.99999999999991473 48 25.00000000000009237 
	0.001000000000000000021 
	cone 51.00000000000003553 48 36.5 -1.047444401652940007e-14 0 -1 -6.363961030678930264 6.363961030678930264 6.66589535392211978e-14 1 I I 0 1 9.000000000000003553 forward I I I I 
	cone 41.99999999999984368 0 18.00000000000009237 0 -1 0 4.949747468305881526 0 4.949747468305778497 1 I I -0 -1 6.999999999999996447 forward I I I I 
	nullbs 
	nullbs 
	I I 
	0 
	0 
	0 
	} I I #
point $-1 41.99999999999991473 48 25.00000000000009237 #
coedge $-1 $110 $67 $69 $94 forward $74 $-1 #
ellipse-curve $-1 51.00000000000015632 -48 48 -1.047444401652940007e-14 0 -1 -6.363961030678930264 -6.363961030678930264 6.66589535392211978e-14 1 I I #
edge $-1 $70 -15 $107 8 $69 $111 forward 7 unknown #
point $-1 42.00000000000015632 -48 48.00000000000009237 #
coedge $-1 $73 $110 $112 $113 forward $74 $-1 #
coedge $-1 $112 $80 $77 $98 forward $60 $-1 #
edge $-1 $82 -56.77496438739210305 $99 56.77496438739210305 $97 $114 forward 7 unknown #
vertex $-1 $98 $115 #
intcurve-curve $-1 forward { surfintcur full nubs 3 open 13 
	0.9416375522970540368 3 2.518325720507069931 2 4.095013888717089934 2 5.671702056927109936 2 7.248390225137129939 2 
	7.988253538995850001 2 8.728116852854569174 2 9.467980166713289236 2 10.20784348057200042 2 11.73255514981480019 2 
	13.25726681905750048 2 14.78197848830030026 2 16.30669015754299878 3 
	52.99999999999984368 -56.77496438739210305 17.99999999999997868 
	52.99999999999985079 -56.77496438739210305 18.52556272273668014 
	53.0602184500366576 -56.76194255454799986 19.06443877368387874 
	53.30669440863299258 -56.70030449687070018 20.11973066227587736 
	53.4929336958408328 -56.65152888916050244 20.63614144030997366 
	53.97380074391295324 -56.49824704428279887 21.60222809002947031 
	54.26919762388134671 -56.39300898650839855 22.05316313599456635 
	54.93074992741704676 -56.10428640572330039 22.85519625871425831 
	55.2967361801790247 -55.92010996869549899 23.20618463212641558 
	55.84434836587494289 -55.58776283049459721 23.6373854403788286 
	56.02973876994833091 -55.46697872366819837 23.76954673284322439 
	56.40852222824518947 -55.1973558106223976 24.01264759879801147 
	56.601869100822924 -55.04847563081310113 24.12361323737292906 
	56.98285449216830045 -54.72810519586499822 24.32002885896206834 
	57.17059808564958701 -54.55648000301250278 24.40561010079507653 
	57.52836980825772173 -54.20033050861260193 24.55197681229074291 
	57.69837761610569515 -54.01581437722000345 24.61283182540561043 
	58.1772115612735945 -53.45299608721239792 24.76698992699831336 
	58.48194788338575734 -53.03001643302140167 24.83888678278693263 
	59.02036072722233229 -52.11757492981620032 24.93650931762897471 
	59.25402650112241076 -51.62815444712300206 24.96268039653898541 
	59.62908834987269557 -50.6136748462905004 24.99269733263788851 
	59.77075996989896822 -50.0879229633116978 24.99686013736817713 
	59.95622695602305896 -49.0352060010738029 25.00047760455179713 
	59.99999999999991473 -48.50823722308089714 24.99999999999990763 
	59.99999999999991473 -48 24.99999999999990763 
	0.001000000000000000021 
	cone 51.00000000000003553 -48 36.5 -1.047444401652940007e-14 -0 -1 6.363961030678930264 -6.363961030678930264 -6.66589535392211978e-14 1 I I 0 1 9.000000000000003553 forward I I I I 
	cone 59.99999999999984368 0 17.99999999999990763 0 1 0 -4.949747468305778497 0 4.949747468305881526 1 I I -0 -1 6.999999999999996447 forward I I I I 
	nullbs 
	nullbs 
	I I 
	0 
	0 
	0 
	} I I #
coedge $-1 $80 $112 $86 $106 forward $60 $-1 #
ellipse-curve $-1 50.99999999999984368 48 18 1.047444401652940007e-14 0 1 -6.363961030678930264 6.363961030678930264 6.66589535392211978e-14 1 I I #
point $-1 52.99999999999984368 56.77496438739210305 17.99999999999997868 #
cone-surface $-1 51.00000000000003553 -48 36.5 1.047444401652940007e-14 0 1 -6.363961030678930264 -6.363961030678930264 6.66589535392211978e-14 1 I I 0 1 9.000000000000003553 forward I I I I #
coedge $-1 $87 $86 $110 $116 reversed $36 $-1 #
edge $-1 $117 -56.77496438739210305 $89 56.77496438739210305 $101 $118 forward 7 unknown #
vertex $-1 $88 $119 #
straight-curve $-1 41.99999999999991473 0 25.00000000000009237 0 -1 0 I I #
point $-1 48.99999999999984368 56.77496438739210305 18.00000000000002132 #
coedge $-1 $96 $92 $105 $116 forward $74 $-1 #
straight-curve $-1 42 -48 33.00000000000009237 -1.047444401652940007e-14 -0 -1 I I #
coedge $-1 $101 $97 $96 $113 reversed $60 $-1 #
edge $-1 $117 0.5613050710960769685 $99 1.00949125569881959 $112 $120 forward 7 unknown #
straight-curve $-1 52.99999999999984368 0 17.99999999999997868 0 -1 -0 I I #
point $-1 52.99999999999984368 -56.77496438739210305 17.99999999999997868 #
edge $-1 $107 16.30669015754299878 $117 31.67174276278899825 $105 $121 forward 7 unknown #
vertex $-1 $116 $122 #
straight-curve $-1 48.99999999999984368 0 18.00000000000002132 0 1 0 I I #
point $-1 41.99999999999991473 -48 25.00000000000009237 #
ellipse-curve $-1 50.99999999999984368 -48 18 1.047444401652940007e-14 0 1 -6.363961030678930264 -6.363961030678930264 6.66589535392211978e-14 1 I I #
intcurve-curve $-1 forward { surfintcur full nubs 3 open 13 
	16.30669015754299878 3 17.83140182678580032 2 19.35611349602849884 2 20.88082516527130039 2 22.40553683451399891 2 
	23.14540014837270121 2 23.88526346223139996 2 24.62512677609020173 2 25.36499008994890048 2 26.94167825815889827 2 
	28.51836642636889962 2 30.09505459457890097 2 31.67174276278899825 3 
	41.99999999999991473 -48 25.00000000000009237 
	41.99999999999991473 -48.50823722308089714 25.00000000000009237 
	42.04377304397678472 -49.0352060010738029 25.00047760455198542 
	42.22924003010086835 -50.0879229633116978 24.99686013736836188 
	42.3709116501271339 -50.6136748462905004 24.99269733263807325 
	42.74597349887742581 -51.62815444712300206 24.96268039653915594 
	42.97963927277749718 -52.11757492981620032 24.93650931762914524 
	43.51805211661407213 -53.03001643302140167 24.83888678278708895 
	43.82278843872623497 -53.45299608721239792 24.76698992699846258 
	44.30162238389413432 -54.01581437722000345 24.61283182540574899 
	44.47163019174210064 -54.20033050861260193 24.55197681229087792 
	44.82940191435022825 -54.55648000301250278 24.40561010079521509 
	45.01714550783152191 -54.72810519586499822 24.32002885896219269 
	45.39813089917688416 -55.04847563081310113 24.12361323737304986 
	45.5914777717546329 -55.1973558106223976 24.01264759879811805 
	45.97026123005147014 -55.46697872366819837 23.76954673284332387 
	46.15565163412486527 -55.58776283049459721 23.63738544037893163 
	46.70326381982076924 -55.92010996869549899 23.2061846321265044 
	47.06925007258274718 -56.10428640572330039 22.85519625871434002 
	47.73080237611842591 -56.39300898650839855 22.05316313599463385 
	48.02619925608681228 -56.49824704428279887 21.60222809002953426 
	48.50706630415891141 -56.65152888916050244 20.63614144031002695 
	48.69330559136673742 -56.70030449687070018 20.1197306622759271 
	48.93978154996305108 -56.76194255454799986 19.06443877368392137 
	48.99999999999985079 -56.77496438739210305 18.52556272273672278 
	48.99999999999984368 -56.77496438739210305 18.00000000000002132 
	0.001000000000000000021 
	cone 51.00000000000003553 -48 36.5 1.047444401652940007e-14 0 1 -6.363961030678930264 -6.363961030678930264 6.66589535392211978e-14 1 I I 0 1 9.000000000000003553 forward I I I I 
	cone 41.99999999999984368 0 18.00000000000009237 0 -1 0 4.949747468305881526 0 4.949747468305778497 1 I I -0 -1 6.999999999999996447 forward I I I I 
	nullbs 
	nullbs 
	I I 
	0 
	0 
	0 
	} I I #
point $-1 48.99999999999984368 -56.77496438739210305 18.00000000000002132 #
End-of-ACIS-data 