600 0 2 0           
24 FBMach with ACIS - 6.0.3 13 ACIS 6.0.3 NT 24 Tue May 22 12:24:15 2001 
1 9.9999999999999995e-007 1e-010 
body $2 $3 $-1 $4 #
bdycol-kcp $-1 1 4 $5 $6 $7 $8 #
model_id-kcp-attrib $-1 $-1 $-1 $0 1 990548655 80 -263192575 1 #
lump $-1 $-1 $9 $0 #
transform $-1 1.04744440165294e-014 0 1 0 1 0 -1 0 1.04744440165294e-014 51 0 33 1 rotate no_reflect no_shear #
body $10 $11 $-1 $12 #
body $13 $14 $-1 $15 #
body $16 $17 $-1 $18 #
body $19 $20 $-1 $21 #
shell $-1 $-1 $-1 $22 $-1 $3 #
model_id-kcp-attrib $-1 $-1 $-1 $5 1 990548655 80 -263192574 1 #
lump $-1 $-1 $23 $5 #
transform $-1 1 0 0 0 1 0 0 0 1 51 0 32.999499999999998 1 no_rotate no_reflect no_shear #
rgb_color-st-attrib $-1 $24 $-1 $6 0.5 1 1 #
lump $-1 $-1 $25 $6 #
transform $-1 1 0 0 0 1 0 0 0 1 51 0 32.999499999999998 1 no_rotate no_reflect no_shear #
rgb_color-st-attrib $-1 $26 $-1 $7 0.5 0.5 1 #
lump $-1 $-1 $27 $7 #
transform $-1 1 0 0 0 1 0 0 0 1 51 0 32.999499999999998 1 no_rotate no_reflect no_shear #
rgb_color-st-attrib $-1 $28 $-1 $8 0.5 0.5 1 #
lump $-1 $-1 $29 $8 #
transform $-1 1 0 0 0 1 0 0 0 1 51 0 32.999499999999998 1 no_rotate no_reflect no_shear #
face $30 $31 $32 $9 $-1 $33 reversed single #
shell $-1 $-1 $-1 $34 $-1 $11 #
model_id-kcp-attrib $-1 $-1 $13 $6 1 990548655 190 -255983613 1 #
shell $-1 $-1 $-1 $35 $-1 $14 #
model_id-kcp-attrib $-1 $-1 $16 $7 1 990548655 230 -253362172 1 #
shell $-1 $-1 $-1 $36 $-1 $17 #
model_id-kcp-attrib $-1 $-1 $19 $8 1 990548655 250 -252051451 1 #
shell $-1 $-1 $-1 $37 $-1 $20 #
model_id-kcp-attrib $-1 $-1 $-1 $22 1 990548655 80 -263192575 2 #
face $38 $39 $40 $9 $-1 $41 reversed single #
loop $-1 $-1 $42 $22 #
plane-surface $-1 0 0 -9 0 0 1 1 0 0 forward_v I I I I #
face $43 $44 $45 $23 $-1 $46 forward single #
face $-1 $47 $48 $25 $-1 $49 reversed single #
face $-1 $50 $51 $27 $-1 $52 reversed single #
face $-1 $53 $54 $29 $-1 $55 reversed single #
model_id-kcp-attrib $-1 $56 $-1 $31 1 990548655 80 -263192575 11 #
face $57 $58 $59 $9 $-1 $60 forward single #
loop $-1 $-1 $61 $31 #
plane-surface $-1 15 0 0 -1 0 0 0 0 1 forward_v I I I I #
coedge $-1 $62 $63 $64 $65 reversed $32 $-1 #
model_id-kcp-attrib $-1 $-1 $-1 $34 1 990548655 80 -263192574 2 #
face $-1 $66 $67 $23 $-1 $68 reversed single #
loop $-1 $-1 $69 $34 #
plane-surface $-1 0 0 15.000500000000093 0 0 1 1 0 0 forward_v I I I I #
face $-1 $70 $71 $25 $-1 $72 reversed single #
loop $-1 $-1 $73 $35 #
plane-surface $-1 8.9999999999998437 -56.774964387392103 -14.99950000000009 -1.04744440165294e-014 0 -1 1 0 -1.04744440165294e-014 forward_v I I I I #
face $-1 $74 $75 $27 $-1 $76 reversed single #
loop $-1 $-1 $77 $36 #
plane-surface $-1 9.0000000000000142 0 3.5004999999999087 1 0 -1.04744440165294e-014 0 1 0 forward_v I I I I #
face $-1 $78 $79 $29 $-1 $80 reversed single #
loop $-1 $-1 $81 $37 #
plane-surface $-1 -8.9999999999999574 0 3.5005000000000961 -1 0 1.04744440165294e-014 0 -1 0 forward_v I I I I #
model_id-kcp-attrib $-1 $-1 $38 $31 1 990548655 80 -263192575 3 #
model_id-kcp-attrib $-1 $-1 $-1 $39 1 990548655 80 -263192575 4 #
face $82 $83 $84 $9 $-1 $85 forward single #
loop $-1 $-1 $86 $39 #
cone-surface $-1 3.5 48 0 -1 0 0 0 6.3639610306789303 6.3639610306789303 1 I I 0 1 9.0000000000000036 forward I I I I #
coedge $-1 $87 $88 $89 $90 reversed $40 $-1 #
coedge $-1 $91 $42 $88 $92 forward $32 $-1 #
coedge $-1 $42 $91 $93 $94 forward $32 $-1 #
coedge $-1 $95 $89 $42 $65 forward $59 $-1 #
edge $96 $97 -15 $98 8 $42 $99 forward 7 unknown #
face $-1 $100 $101 $23 $-1 $102 reversed single #
loop $-1 $-1 $103 $44 #
plane-surface $-1 0 0 -15.000500000000093 0 0 1 1 0 0 forward_v I I I I #
coedge $-1 $104 $105 $106 $107 forward $45 $-1 #
face $-1 $108 $109 $25 $-1 $110 reversed single #
loop $-1 $-1 $111 $47 #
plane-surface $-1 0 57 0 0 -1 0 0 0 -1 forward_v I I I I #
coedge $-1 $112 $113 $114 $115 reversed $48 $-1 #
face $-1 $116 $117 $27 $-1 $118 forward single #
loop $-1 $-1 $119 $50 #
plane-surface $-1 0 -57 0 0 1 0 0 0 1 forward_v I I I I #
coedge $-1 $120 $121 $122 $123 forward $51 $-1 #
face $-1 $124 $125 $29 $-1 $126 forward single #
loop $-1 $-1 $127 $53 #
plane-surface $-1 0 57 0 0 -1 0 0 0 -1 forward_v I I I I #
coedge $-1 $128 $129 $130 $131 forward $54 $-1 #
model_id-kcp-attrib $-1 $-1 $-1 $58 1 990548655 80 -263192575 5 #
face $132 $133 $134 $9 $-1 $135 reversed single #
loop $-1 $-1 $136 $58 #
plane-surface $-1 0 0 9 0 0 1 1 0 0 forward_v I I I I #
coedge $-1 $89 $137 $136 $138 forward $59 $-1 #
coedge $-1 $139 $61 $140 $141 reversed $40 $-1 #
coedge $-1 $61 $139 $62 $92 reversed $40 $-1 #
coedge $-1 $64 $86 $61 $90 forward $59 $-1 #
edge $142 $143 -2.3561944901923448 $97 0.78539816339744828 $61 $144 forward 7 unknown #
coedge $-1 $63 $62 $145 $146 reversed $32 $-1 #
edge $147 $97 -48 $148 48 $88 $149 forward 7 unknown #
coedge $-1 $150 $151 $63 $94 reversed $152 $-1 #
edge $153 $154 -48 $98 48 $63 $155 forward 7 unknown #
coedge $-1 $156 $64 $151 $157 forward $59 $-1 #
attrib_edge_convexity-kcp-attrib $-1 $158 $-1 $65 3 #
vertex $-1 $90 $159 #
vertex $-1 $94 $160 #
straight-curve $-1 0 48 -9 -1 0 0 I I #
face $-1 $161 $162 $23 $-1 $163 reversed single #
loop $-1 $-1 $164 $66 #
plane-surface $-1 0 -57 0 0 1 0 0 0 1 forward_v I I I I #
coedge $-1 $165 $166 $167 $168 forward $67 $-1 #
coedge $-1 $169 $69 $170 $171 forward $45 $-1 #
coedge $-1 $69 $169 $172 $173 forward $45 $-1 #
coedge $-1 $174 $175 $69 $107 reversed $176 $-1 #
edge $-1 $177 -57 $178 57 $106 $179 forward 7 unknown #
face $-1 $180 $181 $25 $-1 $182 reversed single #
loop $-1 $-1 $183 $70 #
plane-surface $-1 9.001000000000154 0 0 -1 0 0 0 0 1 forward_v I I I I #
coedge $-1 $184 $185 $113 $186 forward $71 $-1 #
coedge $-1 $187 $73 $188 $189 reversed $48 $-1 #
coedge $-1 $73 $187 $111 $186 reversed $48 $-1 #
coedge $-1 $190 $191 $73 $115 forward $192 $-1 #
edge $-1 $193 -28.612517806303948 $194 85.387482193696059 $114 $195 forward 7 unknown #
face $-1 $196 $197 $27 $-1 $198 reversed single #
loop $-1 $-1 $122 $74 #
plane-surface $-1 8.9999999999998437 -56.774964387392103 -14.99950000000009 -1.04744440165294e-014 0 -1 1 0 -1.04744440165294e-014 forward_v I I I I #
coedge $-1 $199 $200 $120 $201 reversed $75 $-1 #
coedge $-1 $202 $77 $119 $201 forward $51 $-1 #
coedge $-1 $77 $202 $203 $204 forward $51 $-1 #
coedge $-1 $205 $206 $77 $123 reversed $117 $-1 #
edge $207 $208 -85.387482193696059 $209 28.612517806303948 $122 $210 forward 7 unknown #
face $-1 $211 $212 $29 $-1 $213 reversed single #
loop $-1 $-1 $130 $78 #
plane-surface $-1 8.9999999999998437 -56.774964387392103 -14.99950000000009 -1.04744440165294e-014 0 -1 1 0 -1.04744440165294e-014 forward_v I I I I #
coedge $-1 $214 $215 $128 $216 reversed $79 $-1 #
coedge $-1 $217 $81 $127 $216 forward $54 $-1 #
coedge $-1 $81 $217 $218 $219 forward $54 $-1 #
coedge $-1 $220 $221 $81 $131 reversed $125 $-1 #
edge $222 $223 -28.612517806303948 $224 85.387482193696059 $130 $225 forward 7 unknown #
model_id-kcp-attrib $-1 $-1 $-1 $83 1 990548655 80 -263192575 6 #
face $226 $227 $228 $9 $-1 $229 reversed single #
loop $-1 $-1 $230 $83 #
cone-surface $-1 -15 0 9 0 -1 0 4.94974746830583 0 -4.94974746830583 1 I I 0 1 6.9999999999999964 forward I I I I #
coedge $-1 $231 $140 $86 $138 reversed $84 $-1 #
coedge $-1 $86 $156 $230 $232 forward $59 $-1 #
edge $233 $234 -8 $143 15 $136 $235 forward 7 unknown #
coedge $-1 $88 $87 $236 $237 reversed $40 $-1 #
coedge $-1 $136 $238 $87 $141 forward $84 $-1 #
edge $239 $240 -48 $143 48 $87 $241 forward 7 unknown #
model_id-kcp-attrib $-1 $242 $-1 $90 1 990548655 80 -263192575 10 #
vertex $-1 $141 $243 #
ellipse-curve $-1 15 48 0 -1 0 0 0 6.3639610306789303 -6.3639610306789303 1 I I #
coedge $-1 $236 $244 $91 $146 forward $245 $-1 #
edge $246 $154 -8 $148 15 $91 $247 forward 7 unknown #
attrib_edge_convexity-kcp-attrib $-1 $248 $-1 $92 1 #
vertex $-1 $92 $249 #
straight-curve $-1 15 0 -9 0 -1 0 I I #
coedge $-1 $250 $93 $244 $251 reversed $152 $-1 #
coedge $-1 $93 $250 $95 $157 reversed $152 $-1 #
loop $-1 $-1 $151 $227 #
attrib_edge_convexity-kcp-attrib $-1 $252 $-1 $94 1 #
vertex $-1 $146 $253 #
straight-curve $-1 -8 0 -9 0 1 0 I I #
coedge $-1 $137 $95 $254 $255 forward $59 $-1 #
edge $-1 $98 16.307640183304098 $256 31.672692788550101 $151 $257 forward 7 unknown #
convexity-sys-attrib $-1 $-1 $96 $65 #
point $-1 15 48 -9 #
point $-1 -8 48 -9 #
face $-1 $258 $259 $23 $-1 $260 reversed single #
loop $-1 $-1 $261 $100 #
plane-surface $-1 -9.001000000000154 0 0 1 0 0 0 0 -1 forward_v I I I I #
coedge $-1 $262 $172 $263 $264 forward $101 $-1 #
coedge $-1 $265 $103 $262 $266 forward $67 $-1 #
coedge $-1 $103 $265 $267 $268 forward $67 $-1 #
coedge $-1 $175 $174 $103 $168 reversed $176 $-1 #
edge $-1 $269 -57 $270 57 $167 $271 forward 7 unknown #
coedge $-1 $105 $104 $272 $273 forward $45 $-1 #
coedge $-1 $274 $275 $104 $171 reversed $259 $-1 #
edge $-1 $178 -9.001000000000154 $276 9.001000000000154 $170 $277 forward 7 unknown #
coedge $-1 $164 $278 $105 $173 reversed $101 $-1 #
edge $-1 $279 -9.001000000000154 $177 9.001000000000154 $172 $280 forward 7 unknown #
coedge $-1 $167 $106 $278 $281 forward $176 $-1 #
coedge $-1 $106 $167 $274 $282 reversed $176 $-1 #
loop $-1 $-1 $174 $258 #
vertex $-1 $107 $283 #
vertex $-1 $107 $284 #
straight-curve $-1 9.001000000000154 0 15.000500000000093 0 1 0 I I #
face $-1 $285 $286 $25 $-1 $287 reversed single #
loop $-1 $-1 $288 $108 #
plane-surface $-1 0 0 -15.000500000000093 0 0 1 1 0 0 forward_v I I I I #
coedge $-1 $289 $290 $187 $291 forward $109 $-1 #
coedge $-1 $292 $111 $290 $293 forward $71 $-1 #
coedge $-1 $111 $292 $190 $294 reversed $71 $-1 #
edge $-1 $194 -13.500999999999998 $295 4.5010000000003103 $111 $296 forward 7 unknown #
coedge $-1 $113 $112 $183 $291 reversed $48 $-1 #
coedge $-1 $297 $298 $112 $189 forward $286 $-1 #
edge $-1 $299 -4.5010000000003103 $193 13.500999999999998 $188 $300 forward 7 unknown #
coedge $-1 $301 $114 $185 $294 forward $192 $-1 #
coedge $-1 $114 $301 $297 $302 reversed $192 $-1 #
loop $-1 $-1 $114 $285 #
vertex $-1 $302 $303 #
vertex $-1 $294 $304 #
straight-curve $-1 -9.001000000000154 -28.387482193696052 -14.999499999999902 0 1 0 I I #
face $-1 $305 $306 $27 $-1 $307 forward single #
loop $-1 $-1 $308 $116 #
plane-surface $-1 9.001000000000154 0 0 -1 0 0 0 0 1 forward_v I I I I #
coedge $-1 $309 $119 $206 $310 forward $75 $-1 #
coedge $-1 $119 $309 $311 $312 reversed $75 $-1 #
edge $313 $209 -16.749749999999999 $314 13.250250000000186 $119 $315 forward 7 unknown #
coedge $-1 $121 $120 $316 $317 forward $51 $-1 #
coedge $-1 $318 $319 $121 $204 reversed $320 $-1 #
edge $321 $322 -13.250250000000186 $208 16.749749999999999 $203 $323 forward 7 unknown #
coedge $-1 $324 $122 $319 $325 reversed $117 $-1 #
coedge $-1 $122 $324 $199 $310 reversed $117 $-1 #
convexity-sys-attrib $-1 $-1 $-1 $123 #
vertex $-1 $123 $326 #
vertex $-1 $310 $327 #
straight-curve $-1 8.9999999999998188 -28.387482193696052 -14.99950000000009 0 -1 0 I I #
face $-1 $328 $329 $29 $-1 $330 forward single #
loop $-1 $-1 $218 $124 #
plane-surface $-1 0 -57 0 0 1 0 0 0 1 forward_v I I I I #
coedge $-1 $331 $127 $221 $332 forward $79 $-1 #
coedge $-1 $127 $331 $333 $334 reversed $79 $-1 #
edge $335 $224 -16.749749999999995 $336 13.250249999999998 $127 $337 forward 7 unknown #
coedge $-1 $129 $128 $338 $339 forward $54 $-1 #
coedge $-1 $340 $341 $129 $219 reversed $212 $-1 #
edge $342 $343 -13.250249999999998 $223 16.749749999999995 $218 $344 forward 7 unknown #
coedge $-1 $345 $130 $341 $346 reversed $125 $-1 #
coedge $-1 $130 $345 $214 $332 reversed $125 $-1 #
convexity-sys-attrib $-1 $-1 $-1 $131 #
vertex $-1 $131 $347 #
vertex $-1 $332 $348 #
straight-curve $-1 -9.0000000000001528 -28.387482193696052 -14.999499999999902 0 1 0 I I #
model_id-kcp-attrib $-1 $-1 $-1 $133 1 990548655 80 -263192575 7 #
face $349 $350 $152 $9 $-1 $351 reversed single #
loop $-1 $-1 $254 $133 #
plane-surface $-1 -15 0 0 1 0 0 0 0 -1 forward_v I I I I #
coedge $-1 $352 $353 $137 $232 reversed $134 $-1 #
coedge $-1 $238 $136 $353 $354 forward $84 $-1 #
edge $-1 $355 0.94258757805816895 $234 16.307640183304098 $230 $356 forward 7 unknown #
attrib_edge_convexity-kcp-attrib $-1 $357 $-1 $138 3 #
vertex $-1 $232 $358 #
straight-curve $-1 0 48 9 1 0 0 I I #
coedge $-1 $359 $145 $139 $237 forward $245 $-1 #
edge $360 $148 -2.3561944901923448 $240 0.78539816339744828 $139 $361 forward 7 unknown #
coedge $-1 $140 $231 $359 $362 reversed $84 $-1 #
attrib_edge_convexity-kcp-attrib $-1 $363 $-1 $141 1 #
vertex $-1 $362 $364 #
straight-curve $-1 15 0 9 0 1 0 I I #
attrib_edge_convexity-kcp-attrib $-1 $365 $142 $90 1 #
point $-1 15 48 9 #
coedge $-1 $145 $366 $150 $251 forward $245 $-1 #
loop $-1 $-1 $359 $350 #
attrib_edge_convexity-kcp-attrib $-1 $367 $-1 $146 3 #
straight-curve $-1 0 -48 -9 1 0 0 I I #
convexity-sys-attrib $-1 $-1 $147 $92 #
point $-1 15 -48 -9 #
coedge $-1 $151 $150 $368 $369 reversed $152 $-1 #
edge $-1 $370 0.94163755229705404 $154 16.306690157542999 $150 $371 forward 7 unknown #
convexity-sys-attrib $-1 $-1 $153 $94 #
point $-1 -8 -48 -9 #
coedge $-1 $368 $372 $156 $255 reversed $228 $-1 #
edge $-1 $256 -1.0094912556988196 $355 -0.56130507109607697 $254 $373 forward 7 unknown #
vertex $-1 $255 $374 #
intcurve-curve $-1 forward { surfintcur full nubs 3 open 13 
	16.307640183304098 3 17.8323518525469 2 19.357063521789598 2 20.8817751910324 2 22.406486860275098 2 
	23.146350174133801 2 23.886213487992599 2 24.626076801851301 2 25.36594011571 2 26.942628283920001 2 
	28.519316452129999 2 30.0960046203401 2 31.672692788550101 3 
	-8 48 -9 
	-8 48.508237223080897 -9 
	-7.9995223954481096 49.035206001073803 -8.9562269560231407 
	-8.0031398626317305 50.087922963311698 -8.7707599698990499 
	-8.0073026673620191 50.6136748462905 -8.6290883498727808 
	-8.0373196034609293 51.628154447123002 -8.2540265011224907 
	-8.06349068237094 52.1175749298162 -8.0203607272224193 
	-8.1611132172129892 53.030016433021402 -7.4819478833858399 
	-8.2330100730016103 53.452996087212398 -7.1772115612736798 
	-8.3871681745943203 54.015814377220003 -6.6983776161057804 
	-8.4480231877091896 54.200330508612602 -6.5283698082578097 
	-8.5943898992048506 54.556480003012503 -6.1705980856496803 
	-8.6799711410378695 54.728105195864998 -5.9828544921683902 
	-8.8763867626270105 55.048475630813101 -5.6018691008230199 
	-8.9873524012019406 55.197355810622398 -5.4085222282452703 
	-9.2304532671567294 55.466978723668198 -5.0297387699484304 
	-9.3626145596211199 55.587762830494597 -4.8443483658750397 
	-9.79381536787354 55.920109968695499 -4.2967361801791304 
	-10.144803741285701 56.1042864057233 -3.9307499274171498 
	-10.9468368640054 56.393008986508399 -3.26919762388146 
	-11.397771909970499 56.498247044282799 -2.9738007439130798 
	-12.36385855969 56.651528889160502 -2.4929336958409598 
	-12.8802693377241 56.7003044968707 -2.3066944086331298 
	-13.9355612263161 56.761942554548 -2.0602184500368002 
	-14.4744372772633 56.774964387392103 -2 
	-15 56.774964387392103 -2 
	0.001 
	cone 3.5 48 0 1 0 0 0 6.3639610306789303 -6.3639610306789303 1 I I 0 1 9.0000000000000036 forward I I I I 
	cone -15 0 -9 0 1 0 4.94974746830583 0 4.94974746830583 1 I I 0 -1 6.9999999999999964 forward I I I I 
	nullbs 
	nullbs 
	I I 
	0 
	0 
	0 
	} I I #
face $-1 $-1 $176 $23 $-1 $375 reversed single #
loop $-1 $-1 $274 $161 #
plane-surface $-1 0 57 0 0 -1 0 0 0 -1 forward_v I I I I #
coedge $-1 $376 $272 $275 $377 forward $162 $-1 #
coedge $-1 $278 $164 $165 $266 reversed $101 $-1 #
coedge $-1 $272 $376 $164 $264 reversed $162 $-1 #
edge $-1 $279 -15.000500000000093 $378 15.000500000000093 $263 $379 forward 7 unknown #
coedge $-1 $166 $165 $376 $380 forward $67 $-1 #
edge $-1 $270 -9.001000000000154 $378 9.001000000000154 $262 $381 forward 7 unknown #
coedge $-1 $275 $274 $166 $268 reversed $259 $-1 #
edge $-1 $382 -9.001000000000154 $269 9.001000000000154 $267 $383 forward 7 unknown #
vertex $-1 $168 $384 #
vertex $-1 $281 $385 #
straight-curve $-1 9.001000000000154 0 -15.000500000000093 0 -1 0 I I #
coedge $-1 $261 $263 $169 $273 reversed $162 $-1 #
edge $-1 $276 -57 $279 57 $272 $386 forward 7 unknown #
coedge $-1 $267 $170 $175 $282 forward $259 $-1 #
coedge $-1 $170 $267 $261 $377 reversed $259 $-1 #
vertex $-1 $171 $387 #
straight-curve $-1 0 57 15.000500000000093 -1 0 0 I I #
coedge $-1 $172 $262 $174 $281 reversed $101 $-1 #
vertex $-1 $273 $388 #
straight-curve $-1 0 -57 15.000500000000093 1 0 0 I I #
edge $-1 $177 -15.000500000000093 $270 15.000500000000093 $174 $389 forward 7 unknown #
edge $-1 $178 -15.000500000000093 $269 15.000500000000093 $175 $390 forward 7 unknown #
point $-1 9.001000000000154 -57 15.000500000000093 #
point $-1 9.001000000000154 57 15.000500000000093 #
face $-1 $-1 $192 $25 $-1 $391 reversed single #
loop $-1 $-1 $188 $180 #
plane-surface $-1 0 -57 0 0 1 0 0 0 1 forward_v I I I I #
coedge $-1 $392 $393 $394 $395 forward $181 $-1 #
coedge $-1 $394 $183 $298 $396 forward $109 $-1 #
coedge $-1 $183 $394 $184 $293 reversed $109 $-1 #
edge $-1 $295 -85.387482193696059 $299 28.612517806303948 $183 $397 forward 7 unknown #
coedge $-1 $185 $184 $393 $398 reversed $71 $-1 #
edge $-1 $295 14.99950000000009 $399 15.000500000000093 $290 $400 forward 7 unknown #
edge $-1 $194 14.999499999999902 $401 15.000500000000093 $185 $402 forward 7 unknown #
vertex $-1 $293 $403 #
straight-curve $-1 4.4999999999998437 57 -14.999500000000044 1 0 -1.04744440165294e-014 I I #
coedge $-1 $404 $188 $191 $302 forward $286 $-1 #
coedge $-1 $188 $404 $289 $396 reversed $286 $-1 #
vertex $-1 $396 $405 #
straight-curve $-1 4.4999999999998437 -57 -14.999500000000044 -1 0 1.04744440165294e-014 I I #
coedge $-1 $191 $190 $406 $407 reversed $192 $-1 #
edge $-1 $193 14.999499999999902 $408 15.000500000000093 $191 $409 forward 7 unknown #
point $-1 -9.001000000000154 -57 -14.999499999999902 #
point $-1 -9.001000000000154 57 -14.999499999999902 #
face $-1 $-1 $320 $27 $-1 $410 reversed single #
loop $-1 $-1 $316 $196 #
plane-surface $-1 0 0 15.000500000000093 0 0 1 1 0 0 forward_v I I I I #
coedge $-1 $411 $412 $324 $413 forward $197 $-1 #
coedge $-1 $200 $199 $412 $414 reversed $75 $-1 #
edge $-1 $209 4.4999999999999769 $415 4.5010000000003103 $199 $416 forward 7 unknown #
coedge $-1 $417 $316 $200 $312 forward $306 $-1 #
edge $-1 $314 9.000000000000135 $418 9.001000000000154 $200 $419 forward 7 unknown #
convexity-sys-attrib $-1 $-1 $-1 $201 #
vertex $-1 $312 $420 #
straight-curve $-1 8.9999999999999964 -57 1.7502499999999073 1.04744440165294e-014 0 1 I I #
coedge $-1 $311 $421 $202 $317 reversed $306 $-1 #
edge $422 $314 -57 $322 57 $316 $423 forward 7 unknown #
coedge $-1 $424 $203 $421 $425 reversed $320 $-1 #
coedge $-1 $203 $424 $205 $325 forward $320 $-1 #
loop $-1 $-1 $203 $305 #
convexity-sys-attrib $-1 $-1 $-1 $204 #
vertex $-1 $204 $426 #
straight-curve $-1 8.9999999999999964 57 1.7502499999999073 -1.04744440165294e-014 0 -1 I I #
coedge $-1 $206 $205 $308 $413 reversed $117 $-1 #
edge $-1 $427 -4.5010000000003103 $208 -4.4999999999999769 $319 $428 forward 7 unknown #
point $-1 8.9999999999998206 57 -14.999500000000092 #
point $-1 8.9999999999998206 -57 -14.999500000000092 #
face $-1 $-1 $429 $29 $-1 $430 reversed single #
loop $-1 $-1 $338 $211 #
plane-surface $-1 0 0 15.000500000000093 0 0 1 1 0 0 forward_v I I I I #
coedge $-1 $215 $214 $431 $432 reversed $79 $-1 #
edge $-1 $224 13.499999999999995 $433 13.500999999999998 $214 $434 forward 7 unknown #
coedge $-1 $435 $338 $215 $334 forward $329 $-1 #
edge $-1 $336 8.9999999999998366 $436 9.001000000000154 $215 $437 forward 7 unknown #
convexity-sys-attrib $-1 $-1 $-1 $216 #
vertex $-1 $334 $438 #
straight-curve $-1 -8.9999999999999751 57 1.7502500000000951 1.04744440165294e-014 0 1 I I #
coedge $-1 $333 $439 $217 $339 reversed $329 $-1 #
edge $440 $336 -57 $343 57 $338 $441 forward 7 unknown #
coedge $-1 $442 $218 $439 $443 reversed $212 $-1 #
coedge $-1 $218 $442 $220 $346 forward $212 $-1 #
convexity-sys-attrib $-1 $-1 $-1 $219 #
vertex $-1 $219 $444 #
straight-curve $-1 -8.9999999999999751 -57 1.7502500000000951 -1.04744440165294e-014 0 -1 I I #
coedge $-1 $221 $220 $445 $446 reversed $125 $-1 #
edge $-1 $447 -13.500999999999998 $223 -13.499999999999995 $341 $448 forward 7 unknown #
point $-1 -9.000000000000151 -57 -14.999499999999902 #
point $-1 -9.000000000000151 57 -14.999499999999902 #
model_id-kcp-attrib $-1 $-1 $-1 $227 1 990548655 80 -263192575 8 #
face $449 $-1 $245 $9 $-1 $450 forward single #
cone-surface $-1 -15 0 -9 0 1 0 4.94974746830583 0 4.94974746830583 1 I I 0 1 6.9999999999999964 forward I I I I #
coedge $-1 $451 $230 $372 $452 reversed $134 $-1 #
coedge $-1 $230 $451 $231 $354 reversed $134 $-1 #
edge $453 $234 -48 $454 48 $231 $455 forward 7 unknown #
vertex $-1 $452 $456 #
intcurve-curve $-1 forward { surfintcur full nubs 3 open 13 
	0.94258757805816895 3 2.5192757462681898 2 4.0959639144782001 2 5.6726520826882201 2 7.2493402508982401 2 
	7.9892035647569601 2 8.7290668786156793 2 9.4689301924743994 2 10.2087935063331 2 11.7335051755759 2 
	13.2582168448186 2 14.7829285140614 2 16.307640183304098 3 
	-15 56.774964387392103 2 
	-14.4744372772633 56.774964387392103 2 
	-13.9355612263161 56.761942554548 2.0602184500368002 
	-12.8802693377241 56.7003044968707 2.3066944086331298 
	-12.36385855969 56.651528889160502 2.4929336958409598 
	-11.397771909970499 56.498247044282799 2.9738007439130798 
	-10.9468368640054 56.393008986508399 3.26919762388146 
	-10.144803741285701 56.1042864057233 3.9307499274171498 
	-9.79381536787354 55.920109968695499 4.2967361801791304 
	-9.3626145596211199 55.587762830494597 4.8443483658750397 
	-9.2304532671567205 55.466978723668198 5.0297387699484304 
	-8.9873524012019299 55.197355810622398 5.4085222282452801 
	-8.8763867626270105 55.048475630813101 5.6018691008230297 
	-8.6799711410378695 54.728105195864998 5.9828544921683902 
	-8.5943898992048506 54.556480003012503 6.1705980856496803 
	-8.4480231877091896 54.200330508612602 6.5283698082578097 
	-8.3871681745943203 54.015814377220003 6.6983776161057804 
	-8.2330100730016103 53.452996087212398 7.1772115612736798 
	-8.1611132172129892 53.030016433021402 7.4819478833858399 
	-8.06349068237094 52.1175749298162 8.0203607272224193 
	-8.0373196034609293 51.628154447123002 8.2540265011224907 
	-8.0073026673620191 50.6136748462905 8.6290883498727808 
	-8.0031398626317305 50.087922963311698 8.7707599698990499 
	-7.9995223954481096 49.035206001073803 8.9562269560231407 
	-8 48.508237223080897 9 
	-8 48 9 
	0.001 
	cone 3.5 48 0 -1 0 0 0 6.3639610306789303 6.3639610306789303 1 I I 0 1 9.0000000000000036 forward I I I I 
	cone -15 0 9 0 -1 0 4.94974746830583 0 -4.94974746830583 1 I I 0 -1 6.9999999999999964 forward I I I I 
	nullbs 
	nullbs 
	I I 
	0 
	0 
	0 
	} I I #
convexity-sys-attrib $-1 $-1 $233 $138 #
point $-1 -8 48 9 #
coedge $-1 $457 $236 $238 $362 forward $245 $-1 #
model_id-kcp-attrib $-1 $458 $-1 $237 1 990548655 80 -263192575 12 #
ellipse-curve $-1 15 -48 0 -1 0 0 0 -6.3639610306789303 6.3639610306789303 1 I I #
edge $459 $240 -15 $454 8 $238 $460 forward 7 unknown #
convexity-sys-attrib $-1 $-1 $239 $141 #
point $-1 15 -48 9 #
convexity-sys-attrib $-1 $-1 $242 $90 #
coedge $-1 $244 $457 $461 $462 forward $245 $-1 #
convexity-sys-attrib $-1 $-1 $246 $146 #
coedge $-1 $461 $254 $250 $369 forward $228 $-1 #
edge $-1 $256 -56.774964387392103 $370 56.774964387392103 $368 $463 forward 7 unknown #
vertex $-1 $369 $464 #
intcurve-curve $-1 forward { surfintcur full nubs 3 open 13 
	0.94163755229705404 3 2.5183257205070699 2 4.0950138887170899 2 5.6717020569271099 2 7.2483902251371299 2 
	7.98825353899585 2 8.7281168528545692 2 9.4679801667132892 2 10.207843480572 2 11.7325551498148 2 
	13.2572668190575 2 14.7819784883003 2 16.306690157542999 3 
	-15 -56.774964387392103 -2 
	-14.4744372772633 -56.774964387392103 -2 
	-13.9355612263161 -56.761942554548 -2.0602184500368002 
	-12.8802693377241 -56.7003044968707 -2.3066944086331298 
	-12.36385855969 -56.651528889160502 -2.4929336958409598 
	-11.397771909970499 -56.498247044282799 -2.97380074391307 
	-10.9468368640054 -56.393008986508399 -3.26919762388146 
	-10.144803741285701 -56.1042864057233 -3.9307499274171498 
	-9.79381536787354 -55.920109968695499 -4.2967361801791304 
	-9.3626145596211199 -55.587762830494597 -4.8443483658750397 
	-9.2304532671567205 -55.466978723668198 -5.0297387699484304 
	-8.9873524012019299 -55.197355810622398 -5.4085222282452801 
	-8.8763867626270105 -55.048475630813101 -5.6018691008230199 
	-8.6799711410378695 -54.728105195864998 -5.9828544921683902 
	-8.5943898992048595 -54.556480003012503 -6.1705980856496803 
	-8.4480231877091896 -54.200330508612602 -6.5283698082578097 
	-8.3871681745943203 -54.015814377220003 -6.6983776161057804 
	-8.2330100730016103 -53.452996087212398 -7.1772115612736798 
	-8.1611132172129892 -53.030016433021402 -7.4819478833858399 
	-8.06349068237094 -52.1175749298162 -8.0203607272224193 
	-8.0373196034609293 -51.628154447123002 -8.2540265011224907 
	-8.0073026673620191 -50.6136748462905 -8.6290883498727808 
	-8.0031398626317305 -50.087922963311698 -8.7707599698990499 
	-7.9995223954481096 -49.035206001073803 -8.9562269560231407 
	-8 -48.508237223080897 -9 
	-8 -48 -9 
	0.001 
	cone 3.5 -48 0 -1 0 0 0 -6.3639610306789303 -6.3639610306789303 1 I I 0 1 9.0000000000000036 forward I I I I 
	cone -15 0 -9 0 1 0 4.94974746830583 0 4.94974746830583 1 I I 0 -1 6.9999999999999964 forward I I I I 
	nullbs 
	nullbs 
	I I 
	0 
	0 
	0 
	} I I #
coedge $-1 $254 $461 $352 $452 forward $228 $-1 #
ellipse-curve $-1 -15 48 0 1 0 0 0 6.3639610306789303 6.3639610306789303 1 I I #
point $-1 -15 56.774964387392103 -2 #
plane-surface $-1 9.001000000000154 0 0 -1 0 0 0 0 1 forward_v I I I I #
coedge $-1 $263 $261 $265 $380 reversed $162 $-1 #
edge $-1 $276 -15.000500000000093 $382 15.000500000000093 $275 $465 forward 7 unknown #
vertex $-1 $380 $466 #
straight-curve $-1 -9.001000000000154 -57 0 0 0 -1 I I #
edge $-1 $378 -57 $382 57 $376 $467 forward 7 unknown #
straight-curve $-1 0 -57 -15.000500000000093 -1 0 0 I I #
vertex $-1 $268 $468 #
straight-curve $-1 0 57 -15.000500000000093 1 0 0 I I #
point $-1 9.001000000000154 57 -15.000500000000093 #
point $-1 9.001000000000154 -57 -15.000500000000093 #
straight-curve $-1 -9.001000000000154 0 15.000500000000093 0 -1 0 I I #
point $-1 -9.001000000000154 57 15.000500000000093 #
point $-1 -9.001000000000154 -57 15.000500000000093 #
straight-curve $-1 9.001000000000154 -57 0 0 0 -1 I I #
straight-curve $-1 9.001000000000154 57 0 0 0 -1 I I #
plane-surface $-1 -9.001000000000154 0 0 1 0 0 0 0 -1 forward_v I I I I #
coedge $-1 $406 $288 $404 $469 forward $181 $-1 #
coedge $-1 $288 $406 $292 $398 forward $181 $-1 #
coedge $-1 $290 $289 $288 $395 reversed $109 $-1 #
edge $-1 $399 -57 $470 57 $394 $471 forward 7 unknown #
edge $-1 $299 14.99950000000009 $470 15.000500000000093 $289 $472 forward 7 unknown #
straight-curve $-1 9.001000000000154 -28.387482193696052 -14.99950000000009 0 -1 0 I I #
edge $-1 $401 -9.001000000000154 $399 9.001000000000154 $292 $473 forward 7 unknown #
vertex $-1 $395 $474 #
straight-curve $-1 9.001000000000154 57 0 0 0 -1 I I #
vertex $-1 $398 $475 #
straight-curve $-1 -9.001000000000154 57 0 0 0 -1 I I #
point $-1 9.001000000000154 57 -14.99950000000009 #
coedge $-1 $298 $297 $392 $469 reversed $286 $-1 #
point $-1 9.001000000000154 -57 -14.99950000000009 #
coedge $-1 $393 $392 $301 $407 forward $181 $-1 #
edge $-1 $408 -57 $401 57 $301 $476 forward 7 unknown #
vertex $-1 $407 $477 #
straight-curve $-1 -9.001000000000154 -57 0 0 0 -1 I I #
plane-surface $-1 0 57 0 0 -1 0 0 0 -1 forward_v I I I I #
coedge $-1 $478 $308 $424 $479 reversed $197 $-1 #
coedge $-1 $308 $478 $309 $414 forward $197 $-1 #
edge $-1 $415 -28.612517806303948 $427 85.387482193696059 $308 $480 forward 7 unknown #
edge $-1 $418 -15.000500000000093 $415 14.99950000000009 $412 $481 forward 7 unknown #
vertex $-1 $413 $482 #
straight-curve $-1 4.4999999999998437 -57 -14.999500000000044 1 0 -1.04744440165294e-014 I I #
coedge $-1 $421 $311 $478 $483 forward $306 $-1 #
vertex $-1 $483 $484 #
straight-curve $-1 0 -57 15.000500000000093 1 0 0 I I #
point $-1 9.000000000000135 -57 15.000500000000093 #
coedge $-1 $316 $417 $318 $425 forward $306 $-1 #
convexity-sys-attrib $-1 $-1 $-1 $317 #
straight-curve $-1 9.000000000000135 0 15.000500000000093 0 1 0 I I #
coedge $-1 $319 $318 $411 $479 forward $320 $-1 #
edge $-1 $485 -9.001000000000154 $322 -9.000000000000135 $318 $486 forward 7 unknown #
point $-1 9.000000000000135 57 15.000500000000093 #
vertex $-1 $413 $487 #
straight-curve $-1 4.4999999999998437 57 -14.999500000000044 -1 0 1.04744440165294e-014 I I #
loop $-1 $-1 $445 $328 #
plane-surface $-1 -9.001000000000154 0 0 1 0 0 0 0 -1 forward_v I I I I #
coedge $-1 $445 $488 $331 $432 forward $429 $-1 #
edge $-1 $436 -15.000500000000093 $433 14.999499999999902 $331 $489 forward 7 unknown #
vertex $-1 $332 $490 #
straight-curve $-1 4.4999999999998437 57 -14.999500000000044 -1 0 1.04744440165294e-014 I I #
coedge $-1 $439 $333 $488 $491 forward $329 $-1 #
vertex $-1 $334 $492 #
straight-curve $-1 0 57 15.000500000000093 -1 0 0 I I #
point $-1 -8.9999999999998366 57 15.000500000000093 #
coedge $-1 $338 $435 $340 $443 forward $329 $-1 #
convexity-sys-attrib $-1 $-1 $-1 $339 #
straight-curve $-1 -8.9999999999998366 0 15.000500000000093 0 -1 0 I I #
coedge $-1 $341 $340 $493 $494 forward $212 $-1 #
edge $-1 $495 -9.001000000000154 $343 -8.9999999999998366 $340 $496 forward 7 unknown #
point $-1 -8.9999999999998366 -57 15.000500000000093 #
coedge $-1 $493 $431 $345 $446 forward $429 $-1 #
edge $-1 $433 -85.387482193696059 $447 28.612517806303948 $445 $497 forward 7 unknown #
vertex $-1 $446 $498 #
straight-curve $-1 4.4999999999998437 -57 -14.999500000000044 1 0 -1.04744440165294e-014 I I #
model_id-kcp-attrib $-1 $-1 $-1 $350 1 990548655 80 -263192575 9 #
cone-surface $-1 3.5 -48 0 1 0 0 0 -6.3639610306789303 6.3639610306789303 1 I I 0 1 9.0000000000000036 forward I I I I #
coedge $-1 $353 $352 $457 $499 reversed $134 $-1 #
edge $-1 $500 -56.774964387392103 $355 56.774964387392103 $372 $501 forward 7 unknown #
attrib_edge_convexity-kcp-attrib $-1 $502 $-1 $354 1 #
vertex $-1 $354 $503 #
straight-curve $-1 -8 0 9 0 -1 0 I I #
point $-1 -15 56.774964387392103 2 #
coedge $-1 $366 $359 $451 $499 forward $245 $-1 #
attrib_edge_convexity-kcp-attrib $-1 $504 $360 $237 1 #
attrib_edge_convexity-kcp-attrib $-1 $505 $-1 $362 3 #
straight-curve $-1 0 -48 9 -1 0 0 I I #
coedge $-1 $372 $368 $366 $462 reversed $228 $-1 #
edge $-1 $500 0.56130507109607697 $370 1.0094912556988196 $461 $506 forward 7 unknown #
straight-curve $-1 -15 0 -2 0 -1 0 I I #
point $-1 -15 -56.774964387392103 -2 #
straight-curve $-1 -9.001000000000154 57 0 0 0 -1 I I #
point $-1 -9.001000000000154 -57 -15.000500000000093 #
straight-curve $-1 -9.001000000000154 0 -15.000500000000093 0 1 0 I I #
point $-1 -9.001000000000154 57 -15.000500000000093 #
edge $-1 $470 -9.001000000000154 $408 9.001000000000154 $404 $507 forward 7 unknown #
vertex $-1 $396 $508 #
straight-curve $-1 9.001000000000154 0 -15.000500000000093 0 -1 0 I I #
straight-curve $-1 9.001000000000154 -57 0 0 0 -1 I I #
straight-curve $-1 0 57 -15.000500000000093 1 0 0 I I #
point $-1 9.001000000000154 57 -15.000500000000093 #
point $-1 -9.001000000000154 57 -15.000500000000093 #
straight-curve $-1 -9.001000000000154 0 -15.000500000000093 0 1 0 I I #
point $-1 -9.001000000000154 -57 -15.000500000000093 #
coedge $-1 $412 $411 $417 $483 reversed $197 $-1 #
edge $-1 $485 -15.000500000000093 $427 14.99950000000009 $411 $509 forward 7 unknown #
straight-curve $-1 9.001000000000154 -28.387482193696052 -14.99950000000009 0 1 0 I I #
straight-curve $-1 9.001000000000154 -57 0 0 0 -1 I I #
point $-1 9.001000000000154 -57 -14.99950000000009 #
edge $-1 $418 -57 $485 57 $478 $510 forward 7 unknown #
point $-1 9.001000000000154 -57 15.000500000000093 #
vertex $-1 $483 $511 #
straight-curve $-1 0 57 15.000500000000093 -1 0 0 I I #
point $-1 9.001000000000154 57 -14.99950000000009 #
coedge $-1 $431 $493 $435 $491 reversed $429 $-1 #
straight-curve $-1 -9.001000000000154 57 0 0 0 -1 I I #
point $-1 -9.001000000000154 57 -14.999499999999902 #
edge $-1 $436 -57 $495 57 $488 $512 forward 7 unknown #
point $-1 -9.001000000000154 57 15.000500000000093 #
coedge $-1 $488 $445 $442 $494 reversed $429 $-1 #
edge $-1 $495 -15.000500000000093 $447 14.999499999999902 $493 $513 forward 7 unknown #
vertex $-1 $491 $514 #
straight-curve $-1 0 -57 15.000500000000093 1 0 0 I I #
straight-curve $-1 -9.001000000000154 -28.387482193696052 -14.999499999999902 0 -1 0 I I #
point $-1 -9.001000000000154 -57 -14.999499999999902 #
edge $-1 $454 16.306690157542999 $500 31.671742762788998 $451 $515 forward 7 unknown #
vertex $-1 $499 $516 #
straight-curve $-1 -15 0 2 0 1 0 I I #
convexity-sys-attrib $-1 $-1 $453 $354 #
point $-1 -8 -48 9 #
convexity-sys-attrib $-1 $-1 $458 $237 #
convexity-sys-attrib $-1 $-1 $459 $362 #
ellipse-curve $-1 -15 -48 0 1 0 0 0 -6.3639610306789303 6.3639610306789303 1 I I #
straight-curve $-1 0 -57 -15.000500000000093 -1 0 0 I I #
point $-1 9.001000000000154 -57 -15.000500000000093 #
straight-curve $-1 9.001000000000154 57 0 0 0 -1 I I #
straight-curve $-1 9.001000000000154 0 15.000500000000093 0 1 0 I I #
point $-1 9.001000000000154 57 15.000500000000093 #
straight-curve $-1 -9.001000000000154 0 15.000500000000093 0 -1 0 I I #
straight-curve $-1 -9.001000000000154 -57 0 0 0 -1 I I #
point $-1 -9.001000000000154 -57 15.000500000000093 #
intcurve-curve $-1 forward { surfintcur full nubs 3 open 13 
	16.306690157542999 3 17.8314018267858 2 19.356113496028499 2 20.8808251652713 2 22.405536834513999 2 
	23.145400148372701 2 23.8852634622314 2 24.625126776090202 2 25.3649900899489 2 26.941678258158898 2 
	28.5183664263689 2 30.095054594578901 2 31.671742762788998 3 
	-8 -48 9 
	-8 -48.508237223080897 9 
	-7.9995223954481096 -49.035206001073803 8.95622695602313 
	-8.0031398626317305 -50.087922963311698 8.7707599698990499 
	-8.0073026673620191 -50.6136748462905 8.6290883498727808 
	-8.0373196034609293 -51.628154447123002 8.2540265011224907 
	-8.06349068237094 -52.1175749298162 8.0203607272224193 
	-8.1611132172129892 -53.030016433021402 7.4819478833858399 
	-8.2330100730016103 -53.452996087212398 7.1772115612736798 
	-8.3871681745943203 -54.015814377220003 6.6983776161057804 
	-8.4480231877091896 -54.200330508612602 6.5283698082578097 
	-8.5943898992048506 -54.556480003012503 6.1705980856496803 
	-8.6799711410378695 -54.728105195864998 5.9828544921683902 
	-8.8763867626270105 -55.048475630813101 5.6018691008230199 
	-8.9873524012019406 -55.197355810622398 5.4085222282452703 
	-9.2304532671567294 -55.466978723668198 5.0297387699484304 
	-9.3626145596211199 -55.587762830494597 4.8443483658750397 
	-9.79381536787354 -55.920109968695499 4.2967361801791304 
	-10.144803741285701 -56.1042864057233 3.9307499274171498 
	-10.9468368640054 -56.393008986508399 3.26919762388146 
	-11.397771909970499 -56.498247044282799 2.97380074391307 
	-12.36385855969 -56.651528889160502 2.4929336958409598 
	-12.8802693377241 -56.7003044968707 2.3066944086331298 
	-13.9355612263161 -56.761942554548 2.0602184500368002 
	-14.4744372772633 -56.774964387392103 2 
	-15 -56.774964387392103 2 
	0.001 
	cone 3.5 -48 0 1 0 0 0 -6.3639610306789303 6.3639610306789303 1 I I 0 1 9.0000000000000036 forward I I I I 
	cone -15 0 9 0 -1 0 4.94974746830583 0 -4.94974746830583 1 I I 0 -1 6.9999999999999964 forward I I I I 
	nullbs 
	nullbs 
	I I 
	0 
	0 
	0 
	} I I #
point $-1 -15 -56.774964387392103 2 #
End-of-ACIS-data 