600 0 1 0           
115 GICL Pro/E ACIS Translator - Source: f:/data5/repository/NIST/Manfred_Osti/spectrometer/shaft_62/shaft_62.prt - 6 0 13 ACIS 6.0.3 NT 24 Thu Apr 04 13:52:37 2002 
1 9.9999999999999995e-007 1e-010 
body $-1 $1 $-1 $2 #
lump $-1 $-1 $3 $0 #
transform $-1 1 0 0 0 1 0 0 0 1 0 0 0 25.399999999999999 no_rotate no_reflect no_shear #
shell $-1 $-1 $-1 $4 $-1 $1 #
face $-1 $5 $6 $3 $-1 $7 forward single #
face $-1 $8 $9 $3 $-1 $10 forward single #
loop $-1 $-1 $11 $4 #
plane-surface $-1 0 0 0.57799999999999985 0 0 1 -1 0 0 forward_v I I I I #
face $-1 $12 $13 $3 $-1 $14 forward single #
loop $-1 $-1 $15 $5 #
cone-surface $-1 0 0 -0.32900000000000018 0 0 1 -0.99999999999999911 0 0 1 I I -0.70710678118654724 0.70710678118654791 0.99999999999999911 forward I I I I #
coedge $-1 $16 $16 $17 $18 forward $6 $-1 #
face $-1 $19 $20 $3 $-1 $21 forward single #
loop $-1 $-1 $22 $8 #
cone-surface $-1 0 0 -0.32900000000000018 0 0 1 -0.99999999999999911 0 0 1 I I -0.70710678118654724 0.70710678118654791 0.99999999999999911 forward I I I I #
coedge $-1 $17 $23 $24 $25 forward $9 $-1 #
coedge $-1 $11 $11 $26 $27 reversed $6 $-1 #
coedge $-1 $28 $15 $11 $18 reversed $9 $-1 #
edge $-1 $29 0 $30 3.1415926535897949 $11 $31 forward 7 unknown #
face $-1 $32 $33 $3 $-1 $34 forward single #
loop $-1 $-1 $35 $12 #
cone-surface $-1 0 0 -1.9819 0 0 1 -0.125 0 0 1 I I 0 1 0.125 forward I I I I #
coedge $-1 $26 $36 $28 $37 forward $13 $-1 #
coedge $-1 $15 $28 $38 $39 forward $9 $-1 #
coedge $-1 $36 $26 $15 $25 reversed $13 $-1 #
edge $-1 $40 -7.8504622934187476e-017 $30 0.045254833995939089 $15 $41 forward 7 unknown #
coedge $-1 $24 $22 $16 $27 forward $13 $-1 #
edge $-1 $29 0 $30 3.1415926535897913 $16 $42 forward 7 unknown #
coedge $-1 $23 $17 $22 $37 reversed $9 $-1 #
vertex $-1 $27 $43 #
vertex $-1 $27 $44 #
ellipse-curve $-1 -3.4694469519536142e-018 -6.9388939039072284e-018 0.57799999999999985 0 0 1 0.092999999999999861 1.8327732994455312e-017 0 1 I I #
face $-1 $45 $46 $3 $-1 $47 forward single #
loop $-1 $-1 $48 $19 #
cone-surface $-1 0 0 -1.9819 0 0 1 -0.125 0 0 1 I I 0 1 0.125 forward I I I I #
coedge $-1 $49 $50 $36 $51 forward $20 $-1 #
coedge $-1 $22 $24 $35 $51 reversed $13 $-1 #
edge $-1 $52 -7.8504622934188771e-017 $29 0.045254833995939089 $28 $53 forward 7 unknown #
coedge $-1 $54 $55 $23 $39 reversed $33 $-1 #
edge $-1 $52 -2.9582283945787969e-031 $40 3.1415926535897927 $38 $56 forward 7 unknown #
vertex $-1 $39 $57 #
straight-curve $-1 -0.12499999999999989 -3.63682066233106e-016 0.54599999999999982 0.70710678118654746 3.8825289250547957e-015 0.70710678118654746 I I #
ellipse-curve $-1 0 0 0.57799999999999985 0 0 -1 0.092999999999999861 1.1388839090548083e-017 0 1 I I #
point $-1 0.092999999999999861 1.1388839090548083e-017 0.57799999999999985 #
point $-1 -0.092999999999999861 -1.8797886424531941e-016 0.57799999999999985 #
face $-1 $58 $59 $3 $-1 $60 forward single #
loop $-1 $-1 $61 $32 #
cone-surface $-1 0 0 0.95183333333333264 0 0 -1 -0.96774193548386644 0 0 1 I I -0.69542142751605396 0.71860214176659243 0.96774193548386644 forward I I I I #
coedge $-1 $55 $54 $62 $63 forward $33 $-1 #
coedge $-1 $64 $35 $55 $65 forward $20 $-1 #
coedge $-1 $35 $64 $54 $66 reversed $20 $-1 #
edge $-1 $52 3.9443045261050625e-031 $40 3.1415926535897936 $35 $67 forward 7 unknown #
vertex $-1 $66 $68 #
straight-curve $-1 0.12499999999999989 1.5307579422779703e-017 0.54599999999999982 -0.70710678118654746 -8.6592745707193764e-017 0.70710678118654746 I I #
coedge $-1 $48 $38 $50 $66 forward $33 $-1 #
coedge $-1 $38 $48 $49 $65 reversed $33 $-1 #
ellipse-curve $-1 -3.4694469519536142e-018 -3.8163916471489756e-017 0.54599999999999982 0 0 1 0.12499999999999989 5.3471495894269459e-017 0 1 I I #
point $-1 -0.125 -3.0615158845559431e-017 0.54599999999999982 #
face $-1 $69 $70 $3 $-1 $71 forward single #
loop $-1 $-1 $72 $45 #
cone-surface $-1 0 0 -1.9819 0 0 1 -0.095000000000000001 0 0 1 I I 0 1 0.095000000000000001 forward I I I I #
coedge $-1 $73 $74 $75 $76 forward $46 $-1 #
coedge $-1 $74 $73 $48 $63 reversed $46 $-1 #
edge $-1 $77 0 $78 3.1415926535897931 $48 $79 forward 7 unknown #
coedge $-1 $50 $49 $80 $81 reversed $20 $-1 #
edge $-1 $40 0 $78 0.46499999999999975 $55 $82 forward 7 unknown #
edge $-1 $52 0 $77 0.46499999999999986 $54 $83 forward 7 unknown #
ellipse-curve $-1 3.4694469519536142e-018 -5.5511151231257827e-017 0.54599999999999982 0 0 -1 0.12499999999999989 7.081873065403753e-017 0 1 I I #
point $-1 0.125 1.5307579422779716e-017 0.54599999999999982 #
face $-1 $84 $85 $3 $-1 $86 forward single #
loop $-1 $87 $88 $58 #
plane-surface $-1 0 0 0 0 0 1 -1 0 0 forward_v I I I I #
coedge $-1 $89 $90 $91 $92 forward $59 $-1 #
coedge $-1 $62 $61 $93 $94 reversed $46 $-1 #
coedge $-1 $61 $62 $95 $96 forward $46 $-1 #
coedge $-1 $90 $89 $61 $76 reversed $59 $-1 #
edge $-1 $97 -8.5359775928520067e-032 $98 3.1415926535897931 $61 $99 forward 7 unknown #
vertex $-1 $66 $100 #
vertex $-1 $65 $101 #
ellipse-curve $-1 -6.9388939039072284e-018 -1.3877787807814457e-017 0.081000000000000072 0 0 1 0.12500000000000011 2.9185367230594197e-017 0 1 I I #
coedge $-1 $93 $95 $64 $81 forward $102 $-1 #
edge $-1 $77 -4.9303806576313194e-031 $78 3.1415926535897944 $64 $103 forward 7 unknown #
straight-curve $-1 -0.125 -3.0615158845559431e-017 0.54599999999999982 0 0 -1 I I #
straight-curve $-1 0.125 1.5307579422779716e-017 0.54599999999999982 0 0 -1 I I #
face $-1 $104 $102 $3 $-1 $105 forward single #
loop $-1 $-1 $106 $69 #
cone-surface $-1 0 0 -1.9819 0 0 1 -0.095000000000000001 0 0 1 I I 0 1 0.095000000000000001 forward I I I I #
loop $-1 $-1 $107 $58 #
coedge $-1 $91 $91 $108 $109 forward $70 $-1 #
coedge $-1 $75 $72 $110 $111 reversed $59 $-1 #
coedge $-1 $72 $75 $112 $113 forward $59 $-1 #
coedge $-1 $88 $88 $72 $92 reversed $70 $-1 #
edge $-1 $114 1.2246063538223773e-016 $115 3.1415926535897931 $72 $116 forward 7 unknown #
coedge $-1 $117 $80 $73 $94 forward $102 $-1 #
edge $-1 $78 5.2144809997965476e-033 $98 0.043139309220246246 $73 $118 forward 7 unknown #
coedge $-1 $80 $117 $74 $96 reversed $102 $-1 #
edge $-1 $77 1.5698815239802395e-016 $97 0.04313930922024619 $74 $119 forward 7 unknown #
vertex $-1 $96 $120 #
vertex $-1 $94 $121 #
ellipse-curve $-1 0 -1.0408340855860843e-017 0.049999999999999822 0 0 1 0.095000000000000001 2.2042101217173428e-017 0 1 I I #
point $-1 0.125 1.5307579422779716e-017 0.080999999999999961 #
point $-1 -0.12500000000000011 0 0.081000000000000072 #
loop $-1 $-1 $80 $84 #
ellipse-curve $-1 -3.4694469519536142e-018 -8.6736173798840355e-017 0.081000000000000072 0 0 -1 0.12500000000000011 1.020437532216201e-016 0 1 I I #
face $-1 $122 $123 $3 $-1 $124 forward single #
cone-surface $-1 0 0 0.95183333333333264 0 0 -1 -0.96774193548386644 0 0 1 I I -0.69542142751605396 0.71860214176659243 0.96774193548386644 forward I I I I #
coedge $-1 $110 $112 $117 $125 forward $85 $-1 #
coedge $-1 $126 $126 $127 $128 forward $87 $-1 #
coedge $-1 $112 $110 $88 $109 reversed $85 $-1 #
edge $-1 $114 -1.2246063538223773e-016 $115 3.1415926535897931 $88 $129 forward 7 unknown #
coedge $-1 $108 $106 $89 $111 forward $85 $-1 #
edge $-1 $98 0 $115 0.049999999999999822 $89 $130 forward 7 unknown #
coedge $-1 $106 $108 $90 $113 reversed $85 $-1 #
edge $-1 $97 0 $114 0.049999999999999822 $90 $131 forward 7 unknown #
vertex $-1 $113 $132 #
vertex $-1 $111 $133 #
ellipse-curve $-1 0 0 0 0 0 1 0.095000000000000001 0 0 1 I I #
coedge $-1 $95 $93 $106 $125 reversed $102 $-1 #
straight-curve $-1 -0.12500000000000011 -3.0615158845559481e-017 0.081000000000000072 0.69542142751605296 1.7032349974407763e-016 -0.71860214176659321 I I #
straight-curve $-1 0.12500000000000011 1.530757942277974e-017 0.081000000000000072 -0.69542142751605296 -8.5161749872038816e-017 -0.71860214176659321 I I #
point $-1 0.095000000000000084 1.1633760361312597e-017 0.049999999999999822 #
point $-1 -0.095000000000000001 -2.3267520722625167e-017 0.049999999999999822 #
face $-1 $134 $135 $3 $-1 $136 forward single #
loop $-1 $-1 $137 $104 #
cone-surface $-1 0 0 -1.9819 0 0 1 -0.1875 0 0 1 I I 0 1 0.1875 forward I I I I #
edge $-1 $97 0 $98 3.1415926535897931 $117 $138 forward 7 unknown #
coedge $-1 $107 $107 $139 $140 reversed $87 $-1 #
coedge $-1 $141 $142 $107 $128 reversed $123 $-1 #
edge $-1 $143 0 $144 3.1415926535897931 $107 $145 forward 7 unknown #
ellipse-curve $-1 0 0 0 0 0 -1 0.095000000000000001 0 0 1 I I #
straight-curve $-1 -0.095000000000000001 -2.3267520722625167e-017 0.049999999999999822 0 0 -1 I I #
straight-curve $-1 0.095000000000000001 1.1633760361312583e-017 0.049999999999999822 0 0 -1 I I #
point $-1 0.095000000000000001 1.1633760361312583e-017 0 #
point $-1 -0.095000000000000001 0 0 #
face $-1 $146 $147 $3 $-1 $148 forward single #
loop $-1 $-1 $149 $122 #
cone-surface $-1 0 0 -1.0155000000000003 0 0 -1 -0.99999999999999911 0 0 1 I I -0.70710678118654724 0.70710678118654791 0.99999999999999911 forward I I I I #
coedge $-1 $142 $141 $150 $151 forward $123 $-1 #
ellipse-curve $-1 0 -3.4694469519536142e-018 0.049999999999999822 0 0 -1 0.095000000000000001 1.5103207313266199e-017 0 1 I I #
coedge $-1 $152 $153 $126 $140 forward $154 $-1 #
edge $-1 $143 0 $144 3.1415926535897931 $126 $155 forward 7 unknown #
coedge $-1 $137 $127 $153 $156 forward $123 $-1 #
coedge $-1 $127 $137 $152 $157 reversed $123 $-1 #
vertex $-1 $140 $158 #
vertex $-1 $140 $159 #
ellipse-curve $-1 6.9388939039072284e-018 -2.7755575615628914e-017 0 0 0 1 0.1875 5.0716944749798487e-017 0 1 I I #
face $-1 $160 $154 $3 $-1 $161 forward single #
loop $-1 $-1 $162 $134 #
cone-surface $-1 0 0 -1.0155000000000003 0 0 -1 -0.99999999999999911 0 0 1 I I -0.70710678118654724 0.70710678118654791 0.99999999999999911 forward I I I I #
coedge $-1 $150 $163 $164 $165 forward $135 $-1 #
coedge $-1 $166 $149 $137 $151 reversed $135 $-1 #
edge $-1 $167 1.0956401461402948e-032 $168 3.1415926535897931 $137 $169 forward 7 unknown #
coedge $-1 $170 $139 $142 $157 forward $154 $-1 #
coedge $-1 $139 $170 $141 $156 reversed $154 $-1 #
loop $-1 $-1 $139 $146 #
ellipse-curve $-1 -6.9388939039072284e-018 1.3877787807814457e-017 0 0 0 -1 0.1875 9.0835813263551168e-018 0 1 I I #
edge $-1 $143 0 $167 1.8280000000000001 $141 $171 forward 7 unknown #
edge $-1 $144 0 $168 1.8280000000000001 $142 $172 forward 7 unknown #
point $-1 0.1875 2.2961369134169574e-017 0 #
point $-1 -0.1875 -4.5922738268339147e-017 0 #
face $-1 $-1 $173 $3 $-1 $174 reversed single #
cone-surface $-1 0 0 -1.9819 0 0 1 -0.1875 0 0 1 I I 0 1 0.1875 forward I I I I #
coedge $-1 $175 $176 $166 $177 forward $147 $-1 #
coedge $-1 $149 $166 $178 $179 forward $135 $-1 #
coedge $-1 $176 $175 $149 $165 reversed $147 $-1 #
edge $-1 $180 0 $168 0.045254833995939013 $149 $181 forward 7 unknown #
coedge $-1 $163 $150 $162 $177 reversed $135 $-1 #
vertex $-1 $156 $182 #
vertex $-1 $157 $183 #
ellipse-curve $-1 0 6.9388939039072284e-018 -1.8280000000000003 0 0 1 0.18749999999999989 1.6022475230262333e-017 0 1 I I #
coedge $-1 $153 $152 $175 $184 reversed $154 $-1 #
straight-curve $-1 0.1875 2.2961369134169574e-017 0 0 0 -1 I I #
straight-curve $-1 -0.1875 -4.5922738268339147e-017 0 0 0 -1 I I #
loop $-1 $-1 $178 $160 #
plane-surface $-1 0 0 -1.8600000000000001 0 0 1 -1 0 0 forward_v I I I I #
coedge $-1 $164 $162 $170 $184 forward $147 $-1 #
coedge $-1 $162 $164 $185 $186 reversed $147 $-1 #
edge $-1 $187 0 $167 0.045254833995939013 $166 $188 forward 7 unknown #
coedge $-1 $185 $185 $163 $179 reversed $173 $-1 #
edge $-1 $187 0 $180 3.1415926535897931 $178 $189 forward 7 unknown #
vertex $-1 $186 $190 #
straight-curve $-1 -0.15550000000000008 -3.8085257603875932e-017 -1.8600000000000001 -0.70710678118654746 -1.7318549141438763e-016 0.70710678118654746 I I #
point $-1 0.1875 2.2961369134169574e-017 -1.8280000000000001 #
point $-1 -0.1875 -4.5922738268339147e-017 -1.8280000000000001 #
edge $-1 $167 2.1912802922805896e-032 $168 3.1415926535897931 $170 $191 forward 7 unknown #
coedge $-1 $178 $178 $176 $186 forward $173 $-1 #
edge $-1 $187 0 $180 3.1415926535897931 $185 $192 forward 7 unknown #
vertex $-1 $186 $193 #
straight-curve $-1 0.15550000000000008 1.9042628801937966e-017 -1.8600000000000001 0.70710678118654746 8.6592745707193813e-017 0.70710678118654746 I I #
ellipse-curve $-1 0 -1.3877787807814457e-017 -1.8600000000000001 0 0 1 0.15550000000000008 3.2920416609752423e-017 0 1 I I #
point $-1 -0.15550000000000008 -3.8085257603875932e-017 -1.8600000000000001 #
ellipse-curve $-1 -6.9388939039072284e-018 -6.9388939039072284e-018 -1.8280000000000003 0 0 -1 0.18749999999999989 2.990026303807679e-017 0 1 I I #
ellipse-curve $-1 -6.9388939039072284e-018 -1.3877787807814457e-017 -1.8600000000000001 0 0 -1 0.15550000000000008 3.2920416609752423e-017 0 1 I I #
point $-1 0.15550000000000008 1.9042628801937966e-017 -1.8600000000000001 #
End-of-ACIS-data 