700 0 2 0           
24 FBMach with ACIS - 7.0.3 13 ACIS 7.0.3 NT 24 Tue May 14 14:20:30 2002 
1 9.9999999999999995e-007 1e-010 
body $2 -1 $-1 $3 $-1 $4 #
bdycol-kcp $-1 -1 1 2 $5 $6 #
model_id-kcp-attrib $-1 -1 $-1 $-1 $0 1 1021400429 1021400429 392626177 1 #
lump $-1 -1 $-1 $-1 $7 $0 #
transform $-1 -1 1 0 0 0 1 0 0 0 1 0 0 0 1 rotate no_reflect no_shear #
body $8 -1 $-1 $9 $-1 $10 #
body $11 -1 $-1 $12 $-1 $13 #
shell $-1 -1 $-1 $-1 $-1 $14 $-1 $3 #
model_id-kcp-attrib $-1 -1 $-1 $-1 $5 1 1021400429 1021400429 392626178 1 #
lump $-1 -1 $-1 $-1 $15 $5 #
transform $-1 -1 1 0 0 0 1 0 0 0 1 0 -4.4408920985006262e-016 -16.281400000000001 1 no_rotate no_reflect no_shear #
rgb_color-st-attrib $-1 -1 $16 $-1 $6 0.5 1 1 #
lump $-1 -1 $-1 $-1 $17 $6 #
transform $-1 -1 1 0 0 0 1 0 0 0 1 0 -4.4408920985006262e-016 -16.281400000000001 1 no_rotate no_reflect no_shear #
face $18 -1 $-1 $19 $20 $7 $-1 $21 forward single #
shell $-1 -1 $-1 $-1 $-1 $22 $-1 $9 #
model_id-kcp-attrib $-1 -1 $-1 $11 $6 1 1021400429 1021400429 399179779 1 #
shell $-1 -1 $-1 $-1 $-1 $23 $-1 $12 #
model_id-kcp-attrib $-1 -1 $-1 $-1 $14 1 1021400429 1021400429 392626177 2 #
face $24 -1 $-1 $25 $26 $7 $-1 $27 forward single #
loop $-1 -1 $-1 $-1 $28 $14 #
plane-surface $-1 -1 $-1 0 0 14.681199999999995 0 0 1 -25.399999999999999 0 0 forward_v I I I I #
face $29 -1 $-1 $30 $31 $15 $-1 $32 forward single #
face $-1 -1 $-1 $33 $34 $17 $-1 $35 reversed single #
model_id-kcp-attrib $-1 -1 $-1 $-1 $19 1 1021400429 1021400429 392626177 3 #
face $36 -1 $-1 $37 $38 $7 $-1 $39 forward single #
loop $-1 -1 $-1 $-1 $40 $19 #
cone-surface $-1 -1 $-1 0 0 -8.3566000000000038 0 0 1 -25.399999999999977 0 0 1 I I -0.70710678118654724 0.70710678118654791 25.399999999999977 forward I I I I #
coedge $-1 -1 $-1 $41 $41 $42 $43 forward $20 $-1 #
model_id-kcp-attrib $-1 -1 $-1 $-1 $22 1 1021400429 1021400429 392626178 2 #
face $44 -1 $-1 $45 $46 $15 $-1 $47 reversed single #
loop $-1 -1 $-1 $-1 $48 $22 #
plane-surface $-1 -1 $-1 0 0 30.962599999999998 0 0 1 1 0 0 forward_v I I I I #
face $-1 -1 $-1 $49 $50 $17 $-1 $35 reversed single #
loop $-1 -1 $-1 $-1 $51 $23 #
cone-surface $-1 -1 $-1 -6.4357721632879125e-032 2.6784130469081907e-016 30.962599999999995 0 0 1 4.7624999999999966 7.5946668116715028e-016 0 1 I I 0 1 4.7624999999999966 forward I I I I #
model_id-kcp-attrib $-1 -1 $-1 $-1 $25 1 1021400429 1021400429 392626177 4 #
face $52 -1 $-1 $53 $54 $7 $-1 $55 forward single #
loop $-1 -1 $-1 $-1 $56 $25 #
cone-surface $-1 -1 $-1 0 0 -8.3566000000000038 0 0 1 -25.399999999999977 0 0 1 I I -0.70710678118654724 0.70710678118654791 25.399999999999977 forward I I I I #
coedge $-1 -1 $-1 $42 $57 $58 $59 forward $26 $-1 #
coedge $-1 -1 $-1 $28 $28 $60 $61 reversed $20 $-1 #
coedge $-1 -1 $-1 $62 $40 $28 $43 reversed $26 $-1 #
edge $63 -1 $-1 $64 -3.534330120725717e-032 $65 3.1415926535897949 $28 $66 forward @7 unknown #
model_id-kcp-attrib $-1 -1 $-1 $-1 $30 1 1021400429 1021400429 392626178 3 #
face $-1 -1 $-1 $67 $68 $15 $-1 $69 reversed single #
loop $-1 -1 $-1 $-1 $70 $30 #
plane-surface $-1 -1 $-1 0 0 -30.962599999999998 0 0 1 1 0 0 forward_v I I I I #
coedge $-1 -1 $-1 $71 $72 $73 $74 forward $31 $-1 #
face $-1 -1 $-1 $75 $76 $17 $-1 $35 reversed single #
loop $-1 -1 $-1 $-1 $77 $33 #
coedge $-1 -1 $-1 $78 $79 $80 $81 reversed $34 $-1 #
model_id-kcp-attrib $-1 -1 $-1 $-1 $37 1 1021400429 1021400429 392626177 5 #
face $82 -1 $-1 $83 $84 $7 $-1 $85 forward single #
loop $-1 -1 $-1 $-1 $86 $37 #
cone-surface $-1 -1 $-1 0 0 -50.340259999999994 0 0 1 -3.1749999999999998 0 0 1 I I 0 1 3.1749999999999998 forward I I I I #
coedge $-1 -1 $-1 $60 $87 $62 $88 forward $38 $-1 #
coedge $-1 -1 $-1 $40 $62 $89 $90 forward $26 $-1 #
coedge $-1 -1 $-1 $87 $60 $40 $59 reversed $38 $-1 #
edge $-1 -1 $-1 $91 -7.417759647324795e-017 $65 0.045254833995939103 $40 $92 forward @7 unknown #
coedge $-1 -1 $-1 $58 $56 $41 $61 forward $38 $-1 #
edge $93 -1 $-1 $64 0 $65 3.1415926535897913 $41 $94 forward @7 unknown #
coedge $-1 -1 $-1 $57 $42 $56 $88 reversed $26 $-1 #
attrib_edge_convexity-kcp-attrib $-1 -1 $95 $-1 $43 1 #
vertex $-1 -1 $-1 $61 $96 #
vertex $-1 -1 $-1 $61 $97 #
ellipse-curve $-1 -1 $-1 -8.8123952579621795e-017 -1.7624790515924359e-016 14.681199999999995 0 0 1 2.3621999999999965 4.6552441805916494e-016 0 1 I I #
face $-1 -1 $-1 $98 $99 $15 $-1 $100 reversed single #
loop $-1 -1 $-1 $-1 $101 $45 #
plane-surface $-1 -1 $-1 0 -4.7624999999999993 0 0 1 0 0 0 1 forward_v I I I I #
coedge $-1 -1 $-1 $102 $103 $104 $105 forward $46 $-1 #
coedge $-1 -1 $-1 $106 $48 $107 $108 forward $31 $-1 #
coedge $-1 -1 $-1 $48 $106 $109 $110 forward $31 $-1 #
coedge $-1 -1 $-1 $111 $112 $48 $74 reversed $113 $-1 #
edge $-1 -1 $-1 $114 -4.7624999999999993 $115 4.7624999999999993 $73 $116 forward @7 unknown #
face $-1 -1 $-1 $117 $118 $17 $-1 $35 reversed single #
loop $-1 -1 $-1 $-1 $119 $49 #
coedge $-1 -1 $-1 $120 $121 $122 $123 reversed $50 $-1 #
coedge $-1 -1 $-1 $124 $51 $125 $126 reversed $34 $-1 #
coedge $-1 -1 $-1 $51 $124 $127 $128 reversed $34 $-1 #
coedge $-1 -1 $-1 $129 $130 $131 $81 forward $132 $-1 #
edge $-1 -1 $-1 $133 -61.92519999999999 $134 3.5527136788005009e-015 $80 $135 forward @7 unknown #
model_id-kcp-attrib $-1 -1 $-1 $-1 $53 1 1021400429 1021400429 392626177 6 #
face $136 -1 $-1 $137 $138 $7 $-1 $139 forward single #
loop $-1 -1 $-1 $-1 $140 $53 #
cone-surface $-1 -1 $-1 0 0 -50.340259999999994 0 0 1 -3.1749999999999998 0 0 1 I I 0 1 3.1749999999999998 forward I I I I #
coedge $-1 -1 $-1 $141 $142 $87 $143 forward $54 $-1 #
coedge $-1 -1 $-1 $56 $58 $86 $143 reversed $38 $-1 #
edge $-1 -1 $-1 $144 -7.4177596473249244e-017 $64 0.045254833995939103 $62 $145 forward @7 unknown #
coedge $-1 -1 $-1 $146 $147 $57 $90 reversed $84 $-1 #
edge $-1 -1 $-1 $144 -2.347654749247232e-031 $91 3.1415926535897927 $89 $148 forward @7 unknown #
vertex $-1 -1 $-1 $90 $149 #
straight-curve $-1 -1 $-1 -3.1749999999999972 -9.2375244823208914e-015 13.868399999999994 17.960512242138304 9.8616234696391813e-014 17.960512242138304 I I #
attrib_edge_convexity-kcp-attrib $-1 -1 $150 $-1 $61 1 #
ellipse-curve $-1 -1 $-1 0 0 14.681199999999995 0 0 -1 2.3621999999999965 2.892765128999213e-016 0 1 I I #
convexity-sys-attrib $-1 -1 $-1 $63 $43 #
point $-1 -1 $-1 2.3621999999999965 2.892765128999213e-016 14.681199999999995 #
point $-1 -1 $-1 -2.3621999999999965 -4.774663151831113e-015 14.681199999999995 #
face $-1 -1 $-1 $151 $152 $15 $-1 $153 reversed single #
loop $-1 -1 $-1 $-1 $154 $67 #
plane-surface $-1 -1 $-1 -4.762500000000002 0 0 1 0 0 0 0 -1 forward_v I I I I #
coedge $-1 -1 $-1 $155 $109 $156 $157 forward $68 $-1 #
coedge $-1 -1 $-1 $158 $70 $155 $159 forward $46 $-1 #
coedge $-1 -1 $-1 $70 $158 $160 $161 forward $46 $-1 #
coedge $-1 -1 $-1 $112 $111 $70 $105 reversed $113 $-1 #
edge $-1 -1 $-1 $162 -4.7624999999999993 $163 4.7624999999999993 $104 $164 forward @7 unknown #
coedge $-1 -1 $-1 $72 $71 $165 $166 forward $31 $-1 #
coedge $-1 -1 $-1 $167 $168 $71 $108 reversed $152 $-1 #
edge $-1 -1 $-1 $115 -4.762500000000002 $169 4.762500000000002 $107 $170 forward @7 unknown #
coedge $-1 -1 $-1 $101 $171 $72 $110 reversed $68 $-1 #
edge $-1 -1 $-1 $172 -4.762500000000002 $114 4.762500000000002 $109 $173 forward @7 unknown #
coedge $-1 -1 $-1 $104 $73 $171 $174 forward $113 $-1 #
coedge $-1 -1 $-1 $73 $104 $167 $175 reversed $113 $-1 #
loop $-1 -1 $-1 $-1 $111 $151 #
vertex $-1 -1 $-1 $74 $176 #
vertex $-1 -1 $-1 $74 $177 #
straight-curve $-1 -1 $-1 4.762500000000002 0 30.962599999999998 0 1 0 I I #
face $-1 -1 $-1 $178 $179 $17 $-1 $180 reversed single #
loop $-1 -1 $-1 $-1 $181 $75 #
coedge $-1 -1 $-1 $182 $183 $184 $185 reversed $76 $-1 #
coedge $-1 -1 $-1 $186 $77 $187 $188 reversed $50 $-1 #
coedge $-1 -1 $-1 $77 $186 $51 $81 forward $50 $-1 #
coedge $-1 -1 $-1 $189 $190 $77 $123 forward $191 $-1 #
edge $-1 -1 $-1 $192 -3.1415926535897931 $134 -1.5707963267948966 $122 $193 forward @7 unknown #
coedge $-1 -1 $-1 $79 $78 $183 $194 forward $34 $-1 #
coedge $-1 -1 $-1 $195 $196 $78 $126 forward $197 $-1 #
edge $-1 -1 $-1 $198 -1.594680695364096e-016 $133 1.5707963267948966 $125 $199 forward @7 unknown #
coedge $-1 -1 $-1 $200 $201 $79 $128 forward $202 $-1 #
edge $-1 -1 $-1 $134 -1.5707963267948966 $203 1.594680695364096e-016 $127 $193 forward @7 unknown #
coedge $-1 -1 $-1 $204 $80 $201 $205 reversed $132 $-1 #
coedge $-1 -1 $-1 $80 $204 $195 $206 reversed $132 $-1 #
coedge $-1 -1 $-1 $207 $208 $121 $81 reversed $209 $-1 #
loop $-1 -1 $-1 $-1 $80 $210 #
vertex $-1 -1 $-1 $206 $211 #
vertex $-1 -1 $-1 $212 $213 #
straight-curve $-1 -1 $-1 -6.4357721632879125e-032 4.7624999999999993 30.962599999999995 0 0 1 I I #
model_id-kcp-attrib $-1 -1 $-1 $-1 $83 1 1021400429 1021400429 392626177 7 #
face $214 -1 $-1 $215 $216 $7 $-1 $217 forward single #
loop $-1 -1 $-1 $-1 $218 $83 #
cone-surface $-1 -1 $-1 0 0 24.176566666666648 0 0 -1 -24.580645161290207 0 0 1 I I -0.69542142751605396 0.71860214176659243 24.580645161290207 forward I I I I #
coedge $-1 -1 $-1 $147 $146 $219 $220 forward $84 $-1 #
coedge $-1 -1 $-1 $221 $86 $147 $222 forward $54 $-1 #
coedge $-1 -1 $-1 $86 $221 $146 $223 reversed $54 $-1 #
edge $-1 -1 $-1 $144 4.6953094984944639e-031 $91 3.1415926535897936 $86 $224 forward @7 unknown #
vertex $-1 -1 $-1 $223 $225 #
straight-curve $-1 -1 $-1 3.1749999999999972 3.8881251733860442e-016 13.868399999999994 -17.960512242138304 -2.1994557409627215e-015 17.960512242138304 I I #
coedge $-1 -1 $-1 $140 $89 $142 $223 forward $84 $-1 #
coedge $-1 -1 $-1 $89 $140 $141 $222 reversed $84 $-1 #
ellipse-curve $-1 -1 $-1 -8.8123952579621795e-017 -9.6936347837583973e-016 13.868399999999994 0 0 1 3.1749999999999972 1.3581759957144441e-015 0 1 I I #
point $-1 -1 $-1 -3.1749999999999998 -7.7762503467720954e-016 13.868399999999994 #
convexity-sys-attrib $-1 -1 $-1 $93 $61 #
face $-1 -1 $-1 $-1 $113 $15 $-1 $226 reversed single #
loop $-1 -1 $-1 $-1 $167 $98 #
plane-surface $-1 -1 $-1 0 4.7624999999999993 0 0 -1 0 0 0 -1 forward_v I I I I #
coedge $-1 -1 $-1 $227 $165 $168 $228 forward $99 $-1 #
coedge $-1 -1 $-1 $171 $101 $102 $159 reversed $68 $-1 #
coedge $-1 -1 $-1 $165 $227 $101 $157 reversed $99 $-1 #
edge $-1 -1 $-1 $172 -30.962599999999998 $229 30.962599999999998 $156 $230 forward @7 unknown #
coedge $-1 -1 $-1 $103 $102 $227 $231 forward $46 $-1 #
edge $-1 -1 $-1 $163 -4.762500000000002 $229 4.762500000000002 $155 $232 forward @7 unknown #
coedge $-1 -1 $-1 $168 $167 $103 $161 reversed $152 $-1 #
edge $-1 -1 $-1 $233 -4.762500000000002 $162 4.762500000000002 $160 $234 forward @7 unknown #
vertex $-1 -1 $-1 $105 $235 #
vertex $-1 -1 $-1 $174 $236 #
straight-curve $-1 -1 $-1 4.762500000000002 0 -30.962599999999998 0 -1 0 I I #
coedge $-1 -1 $-1 $154 $156 $106 $166 reversed $99 $-1 #
edge $-1 -1 $-1 $169 -4.7624999999999993 $172 4.7624999999999993 $165 $237 forward @7 unknown #
coedge $-1 -1 $-1 $160 $107 $112 $175 forward $152 $-1 #
coedge $-1 -1 $-1 $107 $160 $154 $228 reversed $152 $-1 #
vertex $-1 -1 $-1 $108 $238 #
straight-curve $-1 -1 $-1 0 4.7624999999999993 30.962599999999998 -1 0 0 I I #
coedge $-1 -1 $-1 $109 $155 $111 $174 reversed $68 $-1 #
vertex $-1 -1 $-1 $166 $239 #
straight-curve $-1 -1 $-1 0 -4.7624999999999993 30.962599999999998 1 0 0 I I #
edge $-1 -1 $-1 $114 -30.962599999999998 $163 30.962599999999998 $111 $240 forward @7 unknown #
edge $-1 -1 $-1 $115 -30.962599999999998 $162 30.962599999999998 $112 $241 forward @7 unknown #
point $-1 -1 $-1 4.762500000000002 -4.7624999999999993 30.962599999999998 #
point $-1 -1 $-1 4.762500000000002 4.7624999999999993 30.962599999999998 #
face $-1 -1 $-1 $242 $209 $17 $-1 $243 reversed single #
loop $-1 -1 $-1 $-1 $244 $117 #
plane-surface $-1 -1 $-1 4.762500000000002 0 0 -1 0 0 0 0 1 forward_v I I I I #
coedge $-1 -1 $-1 $245 $246 $247 $248 reversed $118 $-1 #
coedge $-1 -1 $-1 $249 $119 $246 $250 forward $76 $-1 #
coedge $-1 -1 $-1 $119 $249 $251 $194 reversed $76 $-1 #
coedge $-1 -1 $-1 $252 $253 $119 $185 forward $254 $-1 #
edge $-1 -1 $-1 $255 -1.5707963267948968 $198 -1.594680695364096e-016 $184 $199 forward @7 unknown #
coedge $-1 -1 $-1 $121 $120 $256 $257 reversed $50 $-1 #
coedge $-1 -1 $-1 $258 $259 $260 $188 forward $261 $-1 #
edge $-1 -1 $-1 $262 -61.92519999999999 $192 3.5527136788005009e-015 $187 $263 forward @7 unknown #
coedge $-1 -1 $-1 $190 $122 $208 $212 forward $191 $-1 #
coedge $-1 -1 $-1 $122 $189 $258 $264 forward $191 $-1 #
loop $-1 -1 $-1 $-1 $122 $265 #
vertex $-1 -1 $-1 $266 $267 #
ellipse-curve $-1 -1 $-1 -6.4357721632879125e-032 2.6784130469081907e-016 30.962599999999998 0 0 -1 4.7624999999999966 7.5946668116715028e-016 0 1 I I #
edge $-1 -1 $-1 $198 -61.92519999999999 $203 3.5527136788005009e-015 $251 $268 forward @7 unknown #
coedge $-1 -1 $-1 $196 $125 $130 $206 forward $197 $-1 #
coedge $-1 -1 $-1 $125 $195 $269 $270 forward $197 $-1 #
loop $-1 -1 $-1 $-1 $125 $271 #
vertex $-1 -1 $-1 $272 $273 #
ellipse-curve $-1 -1 $-1 -6.4357721632879125e-032 2.6784130469081907e-016 -30.962599999999995 0 0 1 4.7624999999999966 7.5946668116715028e-016 0 1 I I #
coedge $-1 -1 $-1 $201 $127 $274 $275 forward $202 $-1 #
coedge $-1 -1 $-1 $127 $200 $129 $205 forward $202 $-1 #
loop $-1 -1 $-1 $-1 $127 $276 #
vertex $-1 -1 $-1 $275 $277 #
coedge $-1 -1 $-1 $130 $129 $278 $279 forward $132 $-1 #
edge $-1 -1 $-1 $280 -4.762500000000002 $134 6.4357721632879125e-032 $129 $281 forward @7 unknown #
edge $-1 -1 $-1 $133 -6.4357721632879125e-032 $282 4.762500000000002 $130 $283 forward @7 unknown #
coedge $-1 -1 $-1 $284 $131 $285 $286 reversed $209 $-1 #
coedge $-1 -1 $-1 $131 $284 $189 $212 reversed $209 $-1 #
loop $-1 -1 $-1 $-1 $131 $178 #
face $-1 -1 $-1 $287 $132 $17 $-1 $243 reversed single #
point $-1 -1 $-1 -6.4357721632879125e-032 4.7624999999999993 -30.962599999999995 #
edge $-1 -1 $-1 $134 6.4357721632879125e-032 $288 4.762500000000002 $208 $281 forward @7 unknown #
point $-1 -1 $-1 -6.4357721632879125e-032 4.7624999999999993 30.962599999999998 #
model_id-kcp-attrib $-1 -1 $-1 $-1 $137 1 1021400429 1021400429 392626177 8 #
face $289 -1 $-1 $290 $291 $7 $-1 $292 forward single #
loop $-1 -1 $-1 $-1 $293 $137 #
cone-surface $-1 -1 $-1 0 0 -50.340259999999994 0 0 1 -2.4129999999999998 0 0 1 I I 0 1 2.4129999999999998 forward I I I I #
coedge $-1 -1 $-1 $294 $295 $296 $297 forward $138 $-1 #
coedge $-1 -1 $-1 $295 $294 $140 $220 reversed $138 $-1 #
edge $-1 -1 $-1 $298 0 $299 3.1415926535897931 $140 $300 forward @7 unknown #
coedge $-1 -1 $-1 $142 $141 $301 $302 reversed $54 $-1 #
edge $-1 -1 $-1 $91 0 $299 0.46499999999999975 $147 $303 forward @7 unknown #
edge $-1 -1 $-1 $144 0 $298 0.4649999999999998 $146 $304 forward @7 unknown #
ellipse-curve $-1 -1 $-1 8.8123952579621795e-017 -1.4099832412739487e-015 13.868399999999994 0 0 -1 3.1749999999999972 1.7987957586125533e-015 0 1 I I #
point $-1 -1 $-1 3.1749999999999998 3.8881251733860477e-016 13.868399999999994 #
plane-surface $-1 -1 $-1 4.762500000000002 0 0 -1 0 0 0 0 1 forward_v I I I I #
coedge $-1 -1 $-1 $156 $154 $158 $231 reversed $99 $-1 #
edge $-1 -1 $-1 $169 -30.962599999999998 $233 30.962599999999998 $168 $305 forward @7 unknown #
vertex $-1 -1 $-1 $231 $306 #
straight-curve $-1 -1 $-1 -4.762500000000002 -4.7624999999999993 0 0 0 -1 I I #
edge $-1 -1 $-1 $229 -4.7624999999999993 $233 4.7624999999999993 $227 $307 forward @7 unknown #
straight-curve $-1 -1 $-1 0 -4.7624999999999993 -30.962599999999998 -1 0 0 I I #
vertex $-1 -1 $-1 $161 $308 #
straight-curve $-1 -1 $-1 0 4.7624999999999993 -30.962599999999998 1 0 0 I I #
point $-1 -1 $-1 4.762500000000002 4.7624999999999993 -30.962599999999998 #
point $-1 -1 $-1 4.762500000000002 -4.7624999999999993 -30.962599999999998 #
straight-curve $-1 -1 $-1 -4.762500000000002 0 30.962599999999998 0 -1 0 I I #
point $-1 -1 $-1 -4.762500000000002 4.7624999999999993 30.962599999999998 #
point $-1 -1 $-1 -4.762500000000002 -4.7624999999999993 30.962599999999998 #
straight-curve $-1 -1 $-1 4.762500000000002 -4.7624999999999993 0 0 0 -1 I I #
straight-curve $-1 -1 $-1 4.762500000000002 4.7624999999999993 0 0 0 -1 I I #
face $-1 -1 $-1 $309 $310 $17 $-1 $311 reversed single #
plane-surface $-1 -1 $-1 0 4.7624999999999993 0 0 -1 0 0 0 -1 forward_v I I I I #
coedge $-1 -1 $-1 $269 $274 $124 $194 reversed $179 $-1 #
coedge $-1 -1 $-1 $312 $181 $120 $188 forward $118 $-1 #
coedge $-1 -1 $-1 $181 $312 $313 $250 reversed $118 $-1 #
coedge $-1 -1 $-1 $314 $315 $181 $248 forward $316 $-1 #
edge $-1 -1 $-1 $262 -3.1415926535897931 $255 -1.5707963267948968 $247 $199 forward @7 unknown #
coedge $-1 -1 $-1 $183 $182 $317 $318 reversed $76 $-1 #
edge $-1 -1 $-1 $255 -61.92519999999999 $319 3.5527136788005009e-015 $313 $320 forward @7 unknown #
coedge $-1 -1 $-1 $321 $322 $244 $194 forward $323 $-1 #
coedge $-1 -1 $-1 $253 $184 $322 $272 forward $254 $-1 #
coedge $-1 -1 $-1 $184 $252 $324 $325 forward $254 $-1 #
loop $-1 -1 $-1 $-1 $184 $326 #
vertex $-1 -1 $-1 $327 $328 #
coedge $-1 -1 $-1 $329 $285 $186 $257 forward $330 $-1 #
edge $-1 -1 $-1 $133 1.5707963267948966 $262 3.1415926535897931 $256 $199 forward @7 unknown #
coedge $-1 -1 $-1 $331 $187 $190 $264 reversed $261 $-1 #
coedge $-1 -1 $-1 $187 $331 $329 $332 reversed $261 $-1 #
coedge $-1 -1 $-1 $333 $334 $245 $188 reversed $310 $-1 #
loop $-1 -1 $-1 $-1 $187 $335 #
vertex $-1 -1 $-1 $332 $336 #
straight-curve $-1 -1 $-1 -4.762500000000002 2.6784130469081907e-016 30.962599999999995 0 0 1 I I #
edge $-1 -1 $-1 $288 -4.7624999999999993 $192 -2.6784130469081907e-016 $258 $337 forward @7 unknown #
face $-1 -1 $-1 $276 $191 $17 $-1 $338 forward single #
edge $-1 -1 $-1 $192 -2.6784130469081907e-016 $339 4.7624999999999993 $334 $337 forward @7 unknown #
point $-1 -1 $-1 -4.762500000000002 2.6784130469081907e-016 30.962599999999998 #
straight-curve $-1 -1 $-1 4.762500000000002 2.6784130469081907e-016 30.962599999999995 0 0 1 I I #
coedge $-1 -1 $-1 $278 $244 $196 $270 reversed $179 $-1 #
edge $-1 -1 $-1 $282 -4.7624999999999993 $198 -2.6784130469081907e-016 $269 $340 forward @7 unknown #
face $-1 -1 $-1 $341 $197 $17 $-1 $342 reversed single #
edge $-1 -1 $-1 $198 -2.6784130469081907e-016 $343 4.7624999999999993 $322 $340 forward @7 unknown #
point $-1 -1 $-1 4.762500000000002 2.6784130469081907e-016 -30.962599999999995 #
coedge $-1 -1 $-1 $244 $278 $200 $275 reversed $179 $-1 #
edge $-1 -1 $-1 $203 2.6784130469081907e-016 $280 4.7624999999999993 $274 $344 forward @7 unknown #
face $-1 -1 $-1 $345 $202 $17 $-1 $338 forward single #
point $-1 -1 $-1 4.762500000000002 2.6784130469081907e-016 30.962599999999998 #
coedge $-1 -1 $-1 $274 $269 $204 $279 reversed $179 $-1 #
edge $-1 -1 $-1 $280 -30.962599999999998 $282 30.962599999999998 $278 $346 forward @7 unknown #
vertex $-1 -1 $-1 $275 $347 #
straight-curve $-1 -1 $-1 0 4.7624999999999993 30.962599999999998 -1 0 0 I I #
vertex $-1 -1 $-1 $270 $348 #
straight-curve $-1 -1 $-1 0 4.7624999999999993 -30.962599999999998 1 0 0 I I #
coedge $-1 -1 $-1 $208 $207 $331 $349 reversed $209 $-1 #
coedge $-1 -1 $-1 $256 $329 $207 $286 forward $330 $-1 #
edge $-1 -1 $-1 $350 -4.762500000000002 $133 -6.4357721632879125e-032 $207 $283 forward @7 unknown #
face $-1 -1 $-1 $-1 $323 $17 $-1 $180 reversed single #
vertex $-1 -1 $-1 $212 $351 #
model_id-kcp-attrib $-1 -1 $-1 $-1 $215 1 1021400429 1021400429 392626177 9 #
face $352 -1 $-1 $353 $354 $7 $-1 $355 forward single #
loop $-1 -1 $-1 $356 $357 $215 #
plane-surface $-1 -1 $-1 0 0 0 0 0 1 -25.399999999999999 0 0 forward_v I I I I #
coedge $-1 -1 $-1 $358 $359 $360 $361 forward $216 $-1 #
coedge $-1 -1 $-1 $219 $218 $362 $363 reversed $138 $-1 #
coedge $-1 -1 $-1 $218 $219 $364 $365 forward $138 $-1 #
coedge $-1 -1 $-1 $359 $358 $218 $297 reversed $216 $-1 #
edge $-1 -1 $-1 $366 -6.774165366018086e-032 $367 3.1415926535897931 $218 $368 forward @7 unknown #
vertex $-1 -1 $-1 $223 $369 #
vertex $-1 -1 $-1 $222 $370 #
ellipse-curve $-1 -1 $-1 -1.7624790515924359e-016 -3.5249581031848718e-016 2.0574000000000017 0 0 1 3.1750000000000025 7.4130832765709259e-016 0 1 I I #
coedge $-1 -1 $-1 $362 $364 $221 $302 forward $371 $-1 #
edge $-1 -1 $-1 $298 -4.695309498494456e-031 $299 3.1415926535897944 $221 $372 forward @7 unknown #
straight-curve $-1 -1 $-1 -3.1749999999999998 -7.7762503467720954e-016 13.868399999999994 0 0 -25.399999999999999 I I #
straight-curve $-1 -1 $-1 3.1749999999999998 3.8881251733860477e-016 13.868399999999994 0 0 -25.399999999999999 I I #
straight-curve $-1 -1 $-1 -4.762500000000002 4.7624999999999993 0 0 0 -1 I I #
point $-1 -1 $-1 -4.762500000000002 -4.7624999999999993 -30.962599999999998 #
straight-curve $-1 -1 $-1 -4.762500000000002 0 -30.962599999999998 0 1 0 I I #
point $-1 -1 $-1 -4.762500000000002 4.7624999999999993 -30.962599999999998 #
face $-1 -1 $-1 $265 $373 $17 $-1 $338 forward single #
loop $-1 -1 $-1 $-1 $260 $242 #
plane-surface $-1 -1 $-1 -4.762500000000002 0 0 1 0 0 0 0 -1 forward_v I I I I #
coedge $-1 -1 $-1 $246 $245 $374 $375 reversed $118 $-1 #
coedge $-1 -1 $-1 $376 $377 $378 $250 forward $379 $-1 #
coedge $-1 -1 $-1 $315 $247 $377 $327 forward $316 $-1 #
coedge $-1 -1 $-1 $247 $314 $333 $380 forward $316 $-1 #
loop $-1 -1 $-1 $-1 $247 $381 #
coedge $-1 -1 $-1 $382 $383 $249 $318 forward $384 $-1 #
edge $-1 -1 $-1 $203 1.594680695364096e-016 $319 1.5707963267948968 $317 $193 forward @7 unknown #
vertex $-1 -1 $-1 $385 $386 #
straight-curve $-1 -1 $-1 -6.4357721632879125e-032 -4.7624999999999993 30.962599999999995 0 0 1 I I #
coedge $-1 -1 $-1 $387 $251 $383 $388 reversed $323 $-1 #
coedge $-1 -1 $-1 $251 $387 $252 $272 reversed $323 $-1 #
loop $-1 -1 $-1 $-1 $251 $287 #
coedge $-1 -1 $-1 $389 $378 $253 $325 reversed $390 $-1 #
edge $-1 -1 $-1 $343 -4.762500000000002 $255 6.4357721632879125e-032 $324 $391 forward @7 unknown #
face $-1 -1 $-1 $271 $254 $17 $-1 $342 reversed single #
edge $-1 -1 $-1 $255 6.4357721632879125e-032 $392 4.762500000000002 $377 $391 forward @7 unknown #
point $-1 -1 $-1 -6.4357721632879125e-032 -4.7624999999999993 -30.962599999999995 #
coedge $-1 -1 $-1 $285 $256 $259 $332 forward $330 $-1 #
loop $-1 -1 $-1 $-1 $256 $341 #
coedge $-1 -1 $-1 $259 $258 $284 $349 forward $261 $-1 #
edge $-1 -1 $-1 $262 2.6784130469081907e-016 $350 4.7624999999999993 $259 $393 forward @7 unknown #
coedge $-1 -1 $-1 $394 $260 $315 $380 reversed $310 $-1 #
coedge $-1 -1 $-1 $260 $394 $395 $266 reversed $310 $-1 #
face $-1 -1 $-1 $210 $261 $17 $-1 $311 reversed single #
point $-1 -1 $-1 -4.762500000000002 2.6784130469081907e-016 -30.962599999999995 #
straight-curve $-1 -1 $-1 -4.762500000000002 0 30.962599999999998 0 -1 0 I I #
plane-surface $-1 -1 $-1 0 0 30.962599999999998 0 0 1 1 0 0 forward_v I I I I #
vertex $-1 -1 $-1 $266 $396 #
straight-curve $-1 -1 $-1 4.762500000000002 0 -30.962599999999998 0 -1 0 I I #
face $-1 -1 $-1 $397 $330 $17 $-1 $342 reversed single #
plane-surface $-1 -1 $-1 0 0 -30.962599999999998 0 0 1 1 0 0 forward_v I I I I #
vertex $-1 -1 $-1 $398 $399 #
straight-curve $-1 -1 $-1 4.762500000000002 0 30.962599999999998 0 1 0 I I #
face $-1 -1 $-1 $400 $384 $17 $-1 $338 forward single #
straight-curve $-1 -1 $-1 4.762500000000002 4.7624999999999993 0 0 0 -1 I I #
point $-1 -1 $-1 4.762500000000002 4.7624999999999993 30.962599999999998 #
point $-1 -1 $-1 4.762500000000002 4.7624999999999993 -30.962599999999998 #
edge $-1 -1 $-1 $288 -30.962599999999998 $350 30.962599999999998 $284 $401 forward @7 unknown #
vertex $-1 -1 $-1 $286 $402 #
point $-1 -1 $-1 -4.762500000000002 4.7624999999999993 30.962599999999998 #
model_id-kcp-attrib $-1 -1 $-1 $-1 $290 1 1021400429 1021400429 392626177 10 #
face $403 -1 $-1 $404 $371 $7 $-1 $405 forward single #
loop $-1 -1 $-1 $-1 $406 $290 #
cone-surface $-1 -1 $-1 0 0 -50.340259999999994 0 0 1 -2.4129999999999998 0 0 1 I I 0 1 2.4129999999999998 forward I I I I #
loop $-1 -1 $-1 $-1 $407 $215 #
coedge $-1 -1 $-1 $360 $360 $408 $409 forward $291 $-1 #
coedge $-1 -1 $-1 $296 $293 $410 $411 reversed $216 $-1 #
coedge $-1 -1 $-1 $293 $296 $412 $413 forward $216 $-1 #
coedge $-1 -1 $-1 $357 $357 $293 $361 reversed $291 $-1 #
edge $-1 -1 $-1 $414 1.2246063538223773e-016 $415 3.1415926535897931 $293 $416 forward @7 unknown #
coedge $-1 -1 $-1 $417 $301 $294 $363 forward $371 $-1 #
edge $-1 -1 $-1 $299 5.2144809997965469e-033 $367 0.043139309220246252 $294 $418 forward @7 unknown #
coedge $-1 -1 $-1 $301 $417 $295 $365 reversed $371 $-1 #
edge $-1 -1 $-1 $298 1.4833526210836907e-016 $366 0.043139309220246183 $295 $419 forward @7 unknown #
vertex $-1 -1 $-1 $365 $420 #
vertex $-1 -1 $-1 $363 $421 #
ellipse-curve $-1 -1 $-1 0 -2.6437185773886536e-016 1.2699999999999954 0 0 1 2.4129999999999998 5.5986937091620502e-016 0 1 I I #
point $-1 -1 $-1 3.1749999999999998 3.8881251733860477e-016 2.057399999999999 #
point $-1 -1 $-1 -3.1750000000000025 0 2.0574000000000017 #
loop $-1 -1 $-1 $-1 $301 $353 #
ellipse-curve $-1 -1 $-1 -8.8123952579621795e-017 -2.203098814490545e-015 2.0574000000000017 0 0 -1 3.1750000000000025 2.5919113318291504e-015 0 1 I I #
loop $-1 -1 $-1 $-1 $374 $309 #
coedge $-1 -1 $-1 $395 $422 $312 $375 forward $373 $-1 #
edge $-1 -1 $-1 $319 1.5707963267948968 $192 3.1415926535897931 $374 $193 forward @7 unknown #
coedge $-1 -1 $-1 $423 $313 $422 $424 reversed $379 $-1 #
coedge $-1 -1 $-1 $313 $423 $314 $327 reversed $379 $-1 #
coedge $-1 -1 $-1 $324 $425 $182 $250 reversed $390 $-1 #
loop $-1 -1 $-1 $-1 $313 $397 #
edge $-1 -1 $-1 $392 -4.7624999999999993 $262 2.6784130469081907e-016 $333 $393 forward @7 unknown #
face $-1 -1 $-1 $326 $316 $17 $-1 $342 reversed single #
coedge $-1 -1 $-1 $383 $317 $425 $385 forward $384 $-1 #
coedge $-1 -1 $-1 $317 $382 $321 $388 forward $384 $-1 #
loop $-1 -1 $-1 $-1 $317 $345 #
edge $-1 -1 $-1 $319 -6.4357721632879125e-032 $426 4.762500000000002 $425 $427 forward @7 unknown #
point $-1 -1 $-1 -6.4357721632879125e-032 -4.7624999999999993 30.962599999999998 #
coedge $-1 -1 $-1 $322 $321 $389 $398 forward $323 $-1 #
edge $-1 -1 $-1 $426 -4.7624999999999993 $203 2.6784130469081907e-016 $321 $344 forward @7 unknown #
coedge $-1 -1 $-1 $425 $324 $387 $398 reversed $390 $-1 #
loop $-1 -1 $-1 $-1 $378 $400 #
straight-curve $-1 -1 $-1 0 -4.7624999999999993 -30.962599999999998 -1 0 0 I I #
vertex $-1 -1 $-1 $380 $428 #
straight-curve $-1 -1 $-1 -4.762500000000002 0 -30.962599999999998 0 1 0 I I #
coedge $-1 -1 $-1 $334 $333 $423 $429 reversed $310 $-1 #
coedge $-1 -1 $-1 $422 $374 $334 $266 forward $373 $-1 #
point $-1 -1 $-1 -4.762500000000002 -4.7624999999999993 30.962599999999998 #
face $-1 -1 $-1 $335 $379 $17 $-1 $430 reversed single #
edge $-1 -1 $-1 $426 -30.962599999999998 $343 30.962599999999998 $387 $431 forward @7 unknown #
point $-1 -1 $-1 4.762500000000002 -4.7624999999999993 -30.962599999999998 #
face $-1 -1 $-1 $381 $390 $17 $-1 $430 reversed single #
straight-curve $-1 -1 $-1 -4.762500000000002 4.7624999999999993 0 0 0 -1 I I #
point $-1 -1 $-1 -4.762500000000002 4.7624999999999993 -30.962599999999998 #
model_id-kcp-attrib $-1 -1 $-1 $-1 $353 1 1021400429 1021400429 392626177 11 #
face $432 -1 $-1 $433 $434 $7 $-1 $435 forward single #
cone-surface $-1 -1 $-1 0 0 24.176566666666648 0 0 -1 -24.580645161290207 0 0 1 I I -0.69542142751605396 0.71860214176659243 24.580645161290207 forward I I I I #
coedge $-1 -1 $-1 $410 $412 $417 $436 forward $354 $-1 #
coedge $-1 -1 $-1 $437 $437 $438 $439 forward $356 $-1 #
coedge $-1 -1 $-1 $412 $410 $357 $409 reversed $354 $-1 #
edge $-1 -1 $-1 $414 -1.2246063538223773e-016 $415 3.1415926535897931 $357 $440 forward @7 unknown #
coedge $-1 -1 $-1 $408 $406 $358 $411 forward $354 $-1 #
edge $-1 -1 $-1 $367 0 $415 0.049999999999999822 $358 $441 forward @7 unknown #
coedge $-1 -1 $-1 $406 $408 $359 $413 reversed $354 $-1 #
edge $-1 -1 $-1 $366 0 $414 0.049999999999999822 $359 $442 forward @7 unknown #
vertex $-1 -1 $-1 $413 $443 #
vertex $-1 -1 $-1 $411 $444 #
ellipse-curve $-1 -1 $-1 0 0 0 0 0 1 2.4129999999999998 0 0 1 I I #
coedge $-1 -1 $-1 $364 $362 $406 $436 reversed $371 $-1 #
straight-curve $-1 -1 $-1 -3.1750000000000025 -7.7762503467721072e-016 2.0574000000000017 17.663704258907742 4.3262168934995717e-015 -18.252494400871466 I I #
straight-curve $-1 -1 $-1 3.1750000000000025 3.8881251733860536e-016 2.0574000000000017 -17.663704258907742 -2.1631084467497858e-015 -18.252494400871466 I I #
point $-1 -1 $-1 2.413000000000002 2.9549751317733996e-016 1.2699999999999954 #
point $-1 -1 $-1 -2.4129999999999998 -5.9099502635467923e-016 1.2699999999999954 #
coedge $-1 -1 $-1 $374 $395 $376 $424 forward $373 $-1 #
coedge $-1 -1 $-1 $377 $376 $394 $429 forward $379 $-1 #
edge $-1 -1 $-1 $339 -4.762500000000002 $319 -6.4357721632879125e-032 $376 $427 forward @7 unknown #
coedge $-1 -1 $-1 $378 $389 $382 $385 reversed $390 $-1 #
vertex $-1 -1 $-1 $388 $445 #
straight-curve $-1 -1 $-1 0 -4.7624999999999993 30.962599999999998 1 0 0 I I #
point $-1 -1 $-1 -4.762500000000002 -4.7624999999999993 -30.962599999999998 #
edge $-1 -1 $-1 $339 -30.962599999999998 $392 30.962599999999998 $394 $446 forward @7 unknown #
plane-surface $-1 -1 $-1 0 -4.7624999999999993 0 0 1 0 0 0 1 forward_v I I I I #
straight-curve $-1 -1 $-1 4.762500000000002 -4.7624999999999993 0 0 0 -1 I I #
model_id-kcp-attrib $-1 -1 $-1 $-1 $404 1 1021400429 1021400429 392626177 12 #
face $447 -1 $-1 $448 $449 $7 $-1 $450 forward single #
loop $-1 -1 $-1 $-1 $451 $404 #
cone-surface $-1 -1 $-1 0 0 -50.340259999999994 0 0 1 -4.7624999999999993 0 0 1 I I 0 1 4.7624999999999993 forward I I I I #
edge $-1 -1 $-1 $366 0 $367 3.1415926535897931 $417 $452 forward @7 unknown #
coedge $-1 -1 $-1 $407 $407 $453 $454 reversed $356 $-1 #
coedge $-1 -1 $-1 $455 $456 $407 $439 reversed $434 $-1 #
edge $-1 -1 $-1 $457 0 $458 3.1415926535897931 $407 $459 forward @7 unknown #
ellipse-curve $-1 -1 $-1 0 0 0 0 0 -1 2.4129999999999998 0 0 1 I I #
straight-curve $-1 -1 $-1 -2.4129999999999998 -5.9099502635467923e-016 1.2699999999999954 0 0 -25.399999999999999 I I #
straight-curve $-1 -1 $-1 2.4129999999999998 2.9549751317733961e-016 1.2699999999999954 0 0 -25.399999999999999 I I #
point $-1 -1 $-1 2.4129999999999998 2.9549751317733961e-016 0 #
point $-1 -1 $-1 -2.4129999999999998 0 0 #
point $-1 -1 $-1 4.762500000000002 -4.7624999999999993 30.962599999999998 #
straight-curve $-1 -1 $-1 -4.762500000000002 -4.7624999999999993 0 0 0 -1 I I #
model_id-kcp-attrib $-1 -1 $-1 $-1 $433 1 1021400429 1021400429 392626177 13 #
face $460 -1 $-1 $461 $462 $7 $-1 $463 forward single #
loop $-1 -1 $-1 $-1 $464 $433 #
cone-surface $-1 -1 $-1 0 0 -25.793700000000005 0 0 -1 -25.399999999999977 0 0 1 I I -0.70710678118654724 0.70710678118654791 25.399999999999977 forward I I I I #
coedge $-1 -1 $-1 $456 $455 $465 $466 forward $434 $-1 #
ellipse-curve $-1 -1 $-1 0 -8.8123952579621795e-017 1.2699999999999954 0 0 -1 2.4129999999999998 3.8362146575696143e-016 0 1 I I #
coedge $-1 -1 $-1 $467 $468 $437 $454 forward $469 $-1 #
edge $-1 -1 $-1 $457 0 $458 3.1415926535897931 $437 $470 forward @7 unknown #
coedge $-1 -1 $-1 $451 $438 $468 $471 forward $434 $-1 #
coedge $-1 -1 $-1 $438 $451 $467 $472 reversed $434 $-1 #
vertex $-1 -1 $-1 $454 $473 #
vertex $-1 -1 $-1 $454 $474 #
ellipse-curve $-1 -1 $-1 1.7624790515924359e-016 -7.0499162063697436e-016 0 0 0 1 4.7624999999999993 1.2882103966448815e-015 0 1 I I #
model_id-kcp-attrib $-1 -1 $-1 $-1 $448 1 1021400429 1021400429 392626177 14 #
face $475 -1 $-1 $476 $469 $7 $-1 $477 forward single #
loop $-1 -1 $-1 $-1 $478 $448 #
cone-surface $-1 -1 $-1 0 0 -25.793700000000005 0 0 -1 -25.399999999999977 0 0 1 I I -0.70710678118654724 0.70710678118654791 25.399999999999977 forward I I I I #
coedge $-1 -1 $-1 $465 $479 $480 $481 forward $449 $-1 #
coedge $-1 -1 $-1 $482 $464 $451 $466 reversed $449 $-1 #
edge $-1 -1 $-1 $483 1.7390035179609123e-032 $484 3.1415926535897931 $451 $485 forward @7 unknown #
coedge $-1 -1 $-1 $486 $453 $456 $472 forward $469 $-1 #
coedge $-1 -1 $-1 $453 $486 $455 $471 reversed $469 $-1 #
loop $-1 -1 $-1 $-1 $453 $461 #
ellipse-curve $-1 -1 $-1 -1.7624790515924359e-016 3.5249581031848718e-016 0 0 0 -1 4.7624999999999993 2.3072296568941995e-016 0 1 I I #
edge $-1 -1 $-1 $457 0 $483 1.8280000000000001 $455 $487 forward @7 unknown #
edge $-1 -1 $-1 $458 0 $484 1.8280000000000001 $456 $488 forward @7 unknown #
point $-1 -1 $-1 4.7624999999999993 5.8321877600790713e-016 0 #
point $-1 -1 $-1 -4.7624999999999993 -1.1664375520158143e-015 0 #
model_id-kcp-attrib $-1 -1 $-1 $-1 $461 1 1021400429 1021400429 392626177 15 #
face $489 -1 $-1 $-1 $490 $7 $-1 $491 reversed single #
cone-surface $-1 -1 $-1 0 0 -50.340259999999994 0 0 1 -4.7624999999999993 0 0 1 I I 0 1 4.7624999999999993 forward I I I I #
coedge $-1 -1 $-1 $492 $493 $482 $494 forward $462 $-1 #
coedge $-1 -1 $-1 $464 $482 $495 $496 forward $449 $-1 #
coedge $-1 -1 $-1 $493 $492 $464 $481 reversed $462 $-1 #
edge $-1 -1 $-1 $497 0 $484 0.045254833995939069 $464 $498 forward @7 unknown #
coedge $-1 -1 $-1 $479 $465 $478 $494 reversed $449 $-1 #
vertex $-1 -1 $-1 $471 $499 #
vertex $-1 -1 $-1 $472 $500 #
ellipse-curve $-1 -1 $-1 0 1.7624790515924359e-016 -46.431200000000004 0 0 1 4.7624999999999966 4.0697087084866324e-016 0 1 I I #
coedge $-1 -1 $-1 $468 $467 $492 $501 reversed $469 $-1 #
straight-curve $-1 -1 $-1 4.7624999999999993 5.8321877600790713e-016 0 0 0 -25.399999999999999 I I #
straight-curve $-1 -1 $-1 -4.7624999999999993 -1.1664375520158143e-015 0 0 0 -25.399999999999999 I I #
model_id-kcp-attrib $-1 -1 $-1 $-1 $476 1 1021400429 1021400429 392626177 16 #
loop $-1 -1 $-1 $-1 $495 $476 #
plane-surface $-1 -1 $-1 0 0 -47.244 0 0 1 -25.399999999999999 0 0 forward_v I I I I #
coedge $-1 -1 $-1 $480 $478 $486 $501 forward $462 $-1 #
coedge $-1 -1 $-1 $478 $480 $502 $503 reversed $462 $-1 #
edge $-1 -1 $-1 $504 0 $483 0.045254833995939069 $482 $505 forward @7 unknown #
coedge $-1 -1 $-1 $502 $502 $479 $496 reversed $490 $-1 #
edge $-1 -1 $-1 $504 0 $497 3.1415926535897931 $495 $506 forward @7 unknown #
vertex $-1 -1 $-1 $503 $507 #
straight-curve $-1 -1 $-1 -3.9497000000000018 -9.6736554313844859e-016 -47.244 -17.960512242138304 -4.3989114819254454e-015 17.960512242138304 I I #
point $-1 -1 $-1 4.7624999999999993 5.8321877600790713e-016 -46.431199999999997 #
point $-1 -1 $-1 -4.7624999999999993 -1.1664375520158143e-015 -46.431199999999997 #
edge $-1 -1 $-1 $483 0 $484 3.1415926535897931 $486 $508 forward @7 unknown #
coedge $-1 -1 $-1 $495 $495 $493 $503 forward $490 $-1 #
edge $-1 -1 $-1 $504 0 $497 3.1415926535897931 $502 $509 forward @7 unknown #
vertex $-1 -1 $-1 $503 $510 #
straight-curve $-1 -1 $-1 3.9497000000000018 4.836827715692243e-016 -47.244 17.960512242138304 2.1994557409627227e-015 17.960512242138304 I I #
ellipse-curve $-1 -1 $-1 0 -3.5249581031848718e-016 -47.244 0 0 1 3.9497000000000018 8.3617858188771148e-016 0 1 I I #
point $-1 -1 $-1 -3.9497000000000018 -9.6736554313844859e-016 -47.244 #
ellipse-curve $-1 -1 $-1 -1.7624790515924359e-016 -1.7624790515924359e-016 -46.431200000000004 0 0 -1 4.7624999999999966 7.5946668116715038e-016 0 1 I I #
ellipse-curve $-1 -1 $-1 -1.7624790515924359e-016 -3.5249581031848718e-016 -47.244 0 0 -1 3.9497000000000018 8.3617858188771148e-016 0 1 I I #
point $-1 -1 $-1 3.9497000000000018 4.836827715692243e-016 -47.244 #
End-of-ACIS-data 