600 0 2 0           
24 FBMach with ACIS - 6.0.3 13 ACIS 6.0.3 NT 24 Tue May 22 15:34:12 2001 
1 9.9999999999999995e-007 1e-010 
body $2 $3 $-1 $4 #
bdycol-kcp $-1 1 4 $5 $6 $7 $8 #
model_id-kcp-attrib $-1 $-1 $-1 $0 1 990560052 40 -1322778623 1 #
lump $-1 $-1 $9 $0 #
transform $-1 1 0 0 0 1 0 0 0 1 0 0 0 1 no_rotate no_reflect no_shear #
body $10 $11 $-1 $12 #
body $13 $14 $-1 $15 #
body $16 $17 $-1 $18 #
body $19 $20 $-1 $21 #
shell $-1 $-1 $-1 $22 $-1 $3 #
model_id-kcp-attrib $-1 $-1 $-1 $5 1 990560052 40 -1322778622 1 #
lump $-1 $-1 $23 $5 #
transform $-1 1 0 0 0 1 0 0 0 1 0 0 -0.64100000000000001 1 no_rotate no_reflect no_shear #
rgb_color-st-attrib $-1 $24 $-1 $6 1 1 0.5 #
lump $-1 $-1 $25 $6 #
transform $-1 1 0 0 0 1 0 0 0 1 0 0 0.56200000000000006 1 rotate no_reflect no_shear #
rgb_color-st-attrib $-1 $26 $-1 $7 1 1 0.5 #
lump $-1 $-1 $27 $7 #
transform $-1 1 0 0 0 -1 0 0 0 -1 0 0 -1.8440000000000001 1 rotate no_reflect no_shear #
rgb_color-st-attrib $-1 $28 $-1 $8 0.5 1 1 #
lump $-1 $-1 $29 $8 #
transform $-1 1 0 0 0 1 0 0 0 1 0 0 -0.64100000000000001 1 no_rotate no_reflect no_shear #
face $30 $31 $32 $9 $-1 $33 forward single #
shell $-1 $-1 $-1 $34 $-1 $11 #
model_id-kcp-attrib $-1 $-1 $13 $6 1 990560052 50 -1322123261 1 #
shell $-1 $-1 $-1 $35 $-1 $14 #
model_id-kcp-attrib $-1 $-1 $16 $7 1 990560052 60 -1321467900 1 #
shell $-1 $-1 $-1 $36 $-1 $17 #
model_id-kcp-attrib $-1 $-1 $19 $8 1 990560052 100 -1318846459 1 #
shell $-1 $-1 $-1 $37 $-1 $20 #
model_id-kcp-attrib $-1 $38 $-1 $22 1 990560052 40 -1322778623 11 #
face $39 $40 $41 $9 $-1 $42 forward single #
loop $-1 $-1 $43 $22 #
plane-surface $-1 0 0 0.57799999999999996 0 0 1 1 0 0 forward_v I I I I #
face $44 $45 $46 $23 $-1 $47 forward single #
face $-1 $48 $49 $25 $-1 $50 reversed single #
face $-1 $51 $52 $27 $-1 $53 reversed single #
face $-1 $54 $55 $29 $-1 $56 reversed single #
model_id-kcp-attrib $-1 $-1 $30 $22 1 990560052 40 -1322778623 2 #
model_id-kcp-attrib $-1 $-1 $-1 $31 1 990560052 40 -1322778623 3 #
face $57 $58 $59 $9 $-1 $60 reversed single #
loop $-1 $61 $62 $31 #
plane-surface $-1 0 0 0 0 0 1 1 0 0 forward_v I I I I #
coedge $-1 $43 $43 $63 $64 forward $32 $-1 #
model_id-kcp-attrib $-1 $-1 $-1 $34 1 990560052 40 -1322778622 2 #
face $65 $66 $67 $23 $-1 $68 reversed single #
loop $-1 $-1 $69 $34 #
plane-surface $-1 0 0 1.2190000000000001 0 0 1 1 0 0 forward_v I I I I #
face $-1 $70 $71 $25 $-1 $72 forward single #
loop $-1 $73 $74 $35 #
cone-surface $-1 0 0 0.046500000000000097 0 0 1 0.0625 0 0 1 I I -0.70710678118654691 0.70710678118654813 0.0625 forward I I I I #
face $-1 $75 $76 $27 $-1 $77 forward single #
loop $-1 $78 $79 $36 #
cone-surface $-1 0 0 0.077750000000000208 0 0 1 0.09375 0 0 1 I I -0.70710678118654713 0.70710678118654802 0.09375 forward I I I I #
face $-1 $80 $81 $29 $-1 $56 reversed single #
loop $-1 $-1 $82 $37 #
cone-surface $-1 -3.5148298167706346e-033 0 1.2189999999999999 0 0 1 0.1875 4.5922738268339147e-017 0 1 I I 0 1 0.1875 forward I I I I #
model_id-kcp-attrib $-1 $83 $-1 $40 1 990560052 40 -1322778623 12 #
face $84 $85 $86 $9 $-1 $87 forward single #
loop $-1 $-1 $88 $40 #
plane-surface $-1 0 0 -1.8600000000000001 0 0 1 1 0 0 forward_v I I I I #
loop $-1 $-1 $89 $31 #
coedge $-1 $62 $62 $90 $91 forward $41 $-1 #
coedge $-1 $63 $63 $43 $64 reversed $92 $-1 #
edge $93 $94 0 $94 6.2831853071795862 $63 $95 forward 7 unknown #
model_id-kcp-attrib $-1 $-1 $-1 $45 1 990560052 40 -1322778622 3 #
face $-1 $96 $97 $23 $-1 $98 reversed single #
loop $-1 $-1 $99 $45 #
plane-surface $-1 0 0 -1.2190000000000001 0 0 1 1 0 0 forward_v I I I I #
coedge $-1 $100 $101 $102 $103 forward $46 $-1 #
face $-1 $-1 $104 $25 $-1 $105 forward single #
loop $-1 $106 $107 $48 #
cone-surface $-1 0 0 0 0 0 1 0.125 0 0 1 I I 0 1 0.125 forward I I I I #
loop $-1 $-1 $108 $35 #
coedge $-1 $74 $74 $109 $110 reversed $49 $-1 #
face $-1 $-1 $111 $27 $-1 $112 forward single #
loop $-1 $113 $114 $51 #
cone-surface $-1 0 0 0 0 0 1 0.1875 0 0 1 I I 0 1 0.1875 forward I I I I #
loop $-1 $-1 $115 $36 #
coedge $-1 $79 $79 $116 $117 reversed $52 $-1 #
face $-1 $118 $119 $29 $-1 $56 reversed single #
loop $-1 $-1 $120 $54 #
coedge $-1 $121 $122 $123 $124 reversed $55 $-1 #
model_id-kcp-attrib $-1 $-1 $57 $40 1 990560052 40 -1322778623 4 #
model_id-kcp-attrib $-1 $-1 $-1 $58 1 990560052 40 -1322778623 5 #
face $125 $126 $127 $9 $-1 $128 forward single #
loop $-1 $129 $130 $58 #
cone-surface $-1 0 0 -1.9819 0 0 1 -0.125 0 0 1 I I 0 1 0.125 forward I I I I #
coedge $-1 $88 $88 $131 $132 reversed $59 $-1 #
coedge $-1 $89 $89 $133 $134 forward $61 $-1 #
coedge $-1 $90 $90 $62 $91 reversed $135 $-1 #
edge $-1 $136 -3.1415926535897931 $136 3.1415926535897931 $62 $137 forward 7 unknown #
loop $-1 $138 $63 $139 #
attrib_edge_convexity-kcp-attrib $-1 $140 $-1 $64 1 #
vertex $-1 $64 $141 #
ellipse-curve $-1 0 0 0.57799999999999996 0 0 1 0.092999999999999999 0 0 1 I I #
face $-1 $142 $143 $23 $-1 $144 reversed single #
loop $-1 $-1 $145 $66 #
plane-surface $-1 0 -0.1875 0 0 1 0 0 0 1 forward_v I I I I #
coedge $-1 $146 $147 $148 $149 forward $67 $-1 #
coedge $-1 $150 $69 $151 $152 forward $46 $-1 #
coedge $-1 $69 $150 $153 $154 forward $46 $-1 #
coedge $-1 $155 $156 $69 $103 reversed $157 $-1 #
edge $-1 $158 -0.1875 $159 0.1875 $102 $160 forward 7 unknown #
loop $-1 $161 $109 $70 #
plane-surface $-1 0 0 0.015999999999999959 0 0 1 1 0 0 forward_v I I I I #
loop $-1 $-1 $162 $48 #
coedge $-1 $107 $107 $108 $163 reversed $71 $-1 #
coedge $-1 $108 $108 $107 $163 forward $73 $-1 #
coedge $-1 $109 $109 $74 $110 forward $104 $-1 #
edge $-1 $164 -3.1415926535897931 $164 3.1415926535897931 $109 $165 forward 7 unknown #
loop $-1 $166 $116 $75 #
plane-surface $-1 0 0 0.016000000000000014 0 0 1 1 0 0 forward_v I I I I #
loop $-1 $-1 $167 $51 #
coedge $-1 $114 $114 $115 $168 reversed $76 $-1 #
coedge $-1 $115 $115 $114 $168 forward $78 $-1 #
coedge $-1 $116 $116 $79 $117 forward $111 $-1 #
edge $-1 $169 -3.1415926535897931 $169 3.1415926535897931 $116 $170 forward 7 unknown #
face $-1 $171 $172 $29 $-1 $56 reversed single #
loop $-1 $-1 $173 $80 #
coedge $-1 $174 $175 $176 $177 reversed $81 $-1 #
coedge $-1 $178 $82 $179 $180 reversed $55 $-1 #
coedge $-1 $82 $178 $181 $182 reversed $55 $-1 #
coedge $-1 $183 $184 $185 $124 forward $186 $-1 #
edge $-1 $187 -2.4379999999999997 $188 2.2204460492503131e-016 $123 $189 forward 7 unknown #
model_id-kcp-attrib $-1 $-1 $-1 $85 1 990560052 40 -1322778623 6 #
face $190 $191 $135 $9 $-1 $192 forward single #
loop $-1 $193 $194 $85 #
cone-surface $-1 0 0 0.081000000000000003 0 0 1 0.125 0 0 1 I I 0.69542142751605396 0.71860214176659198 0.125 forward I I I I #
loop $-1 $-1 $195 $58 #
coedge $-1 $130 $130 $196 $197 forward $86 $-1 #
coedge $-1 $131 $131 $88 $132 forward $198 $-1 #
edge $199 $200 0 $200 6.2831853071795862 $131 $201 forward 7 unknown #
coedge $-1 $133 $133 $89 $134 reversed $202 $-1 #
edge $-1 $203 0 $203 6.2831853071795862 $133 $204 forward 7 unknown #
loop $-1 $205 $90 $126 #
vertex $-1 $91 $206 #
ellipse-curve $-1 0 0 0 0 0 -1 0.095000000000000001 0 0 1 I I #
loop $-1 $-1 $207 $139 #
face $208 $209 $92 $9 $-1 $210 forward single #
convexity-sys-attrib $-1 $-1 $93 $64 #
point $-1 0.092999999999999999 0 0.57799999999999996 #
face $-1 $211 $212 $23 $-1 $213 reversed single #
loop $-1 $-1 $214 $96 #
plane-surface $-1 -0.1875 0 0 1 0 0 0 0 -1 forward_v I I I I #
coedge $-1 $215 $153 $216 $217 forward $97 $-1 #
coedge $-1 $218 $99 $215 $219 forward $67 $-1 #
coedge $-1 $99 $218 $220 $221 forward $67 $-1 #
coedge $-1 $156 $155 $99 $149 reversed $157 $-1 #
edge $-1 $222 -0.1875 $223 0.1875 $148 $224 forward 7 unknown #
coedge $-1 $101 $100 $225 $226 forward $46 $-1 #
coedge $-1 $227 $228 $100 $152 reversed $212 $-1 #
edge $-1 $159 -0.1875 $229 0.1875 $151 $230 forward 7 unknown #
coedge $-1 $145 $231 $101 $154 reversed $97 $-1 #
edge $-1 $232 -0.1875 $158 0.1875 $153 $233 forward 7 unknown #
coedge $-1 $148 $102 $231 $234 forward $157 $-1 #
coedge $-1 $102 $148 $227 $235 reversed $157 $-1 #
loop $-1 $-1 $155 $211 #
vertex $-1 $103 $236 #
vertex $-1 $103 $237 #
straight-curve $-1 0.1875 0 1.2190000000000001 0 1 0 I I #
loop $-1 $-1 $238 $70 #
coedge $-1 $162 $162 $238 $239 reversed $106 $-1 #
edge $-1 $240 0 $240 6.2831853071795862 $107 $241 forward 7 unknown #
vertex $-1 $110 $242 #
ellipse-curve $-1 0 0 0.015999999999999959 0 0 -1 0.093000000000000083 0 0 1 I I #
loop $-1 $-1 $243 $75 #
coedge $-1 $167 $167 $243 $244 reversed $113 $-1 #
edge $-1 $245 0 $245 6.2831853071795862 $114 $246 forward 7 unknown #
vertex $-1 $117 $247 #
ellipse-curve $-1 0 0 0.016000000000000014 0 0 -1 0.15550000000000014 0 0 1 I I #
face $-1 $248 $249 $29 $-1 $250 reversed single #
loop $-1 $-1 $251 $118 #
coedge $-1 $252 $253 $254 $255 reversed $119 $-1 #
coedge $-1 $256 $120 $257 $258 reversed $81 $-1 #
coedge $-1 $120 $256 $82 $124 forward $81 $-1 #
coedge $-1 $259 $260 $120 $177 forward $261 $-1 #
edge $-1 $262 -3.1415926535897931 $188 -1.5707963267948963 $176 $263 forward 7 unknown #
coedge $-1 $122 $121 $253 $264 forward $55 $-1 #
coedge $-1 $265 $266 $121 $180 forward $267 $-1 #
edge $-1 $268 -2.4492127076447545e-016 $187 1.5707963267948963 $179 $269 forward 7 unknown #
coedge $-1 $270 $271 $122 $182 forward $272 $-1 #
edge $-1 $188 -1.5707963267948963 $273 2.4492127076447545e-016 $181 $263 forward 7 unknown #
coedge $-1 $274 $123 $271 $275 reversed $186 $-1 #
coedge $-1 $123 $274 $265 $276 reversed $186 $-1 #
coedge $-1 $277 $278 $175 $124 reversed $279 $-1 #
loop $-1 $-1 $123 $280 #
vertex $-1 $276 $281 #
vertex $-1 $282 $283 #
straight-curve $-1 -3.5148298167706346e-033 0.1875 1.2189999999999999 0 0 1 I I #
model_id-kcp-attrib $-1 $-1 $-1 $126 1 990560052 40 -1322778623 7 #
face $284 $139 $285 $9 $-1 $286 forward single #
cone-surface $-1 0 0 -1.9819 0 0 1 -0.095000000000000001 0 0 1 I I 0 1 0.095000000000000001 forward I I I I #
loop $-1 $-1 $196 $85 #
coedge $-1 $194 $194 $287 $288 forward $127 $-1 #
coedge $-1 $195 $195 $207 $289 forward $129 $-1 #
coedge $-1 $196 $196 $130 $197 reversed $193 $-1 #
edge $-1 $290 -3.1415926535897931 $290 3.1415926535897931 $196 $291 forward 7 unknown #
loop $-1 $-1 $131 $209 #
attrib_edge_convexity-kcp-attrib $-1 $292 $-1 $132 1 #
vertex $-1 $132 $293 #
ellipse-curve $-1 0 0 -1.8600000000000001 0 0 1 0.1555 0 0 1 I I #
loop $-1 $-1 $133 $191 #
vertex $-1 $134 $294 #
ellipse-curve $-1 0 0 0 0 0 1 0.1875 0 0 1 I I #
loop $-1 $-1 $287 $126 #
point $-1 -0.095000000000000001 0 0 #
coedge $-1 $207 $207 $195 $289 reversed $138 $-1 #
model_id-kcp-attrib $-1 $-1 $-1 $139 1 990560052 40 -1322778623 9 #
face $295 $-1 $296 $9 $-1 $297 forward single #
cone-surface $-1 0 0 0.54600000000000004 0 0 -1 0.125 0 0 1 I I 0.70710678118654702 0.70710678118654802 0.125 forward I I I I #
face $-1 $-1 $157 $23 $-1 $298 reversed single #
loop $-1 $-1 $227 $142 #
plane-surface $-1 0 0.1875 0 0 -1 0 0 0 -1 forward_v I I I I #
coedge $-1 $299 $225 $228 $300 forward $143 $-1 #
coedge $-1 $231 $145 $146 $219 reversed $97 $-1 #
coedge $-1 $225 $299 $145 $217 reversed $143 $-1 #
edge $-1 $232 -1.2190000000000001 $301 1.2190000000000001 $216 $302 forward 7 unknown #
coedge $-1 $147 $146 $299 $303 forward $67 $-1 #
edge $-1 $223 -0.1875 $301 0.1875 $215 $304 forward 7 unknown #
coedge $-1 $228 $227 $147 $221 reversed $212 $-1 #
edge $-1 $305 -0.1875 $222 0.1875 $220 $306 forward 7 unknown #
vertex $-1 $149 $307 #
vertex $-1 $234 $308 #
straight-curve $-1 0.1875 0 -1.2190000000000001 0 -1 0 I I #
coedge $-1 $214 $216 $150 $226 reversed $143 $-1 #
edge $-1 $229 -0.1875 $232 0.1875 $225 $309 forward 7 unknown #
coedge $-1 $220 $151 $156 $235 forward $212 $-1 #
coedge $-1 $151 $220 $214 $300 reversed $212 $-1 #
vertex $-1 $152 $310 #
straight-curve $-1 0 0.1875 1.2190000000000001 -1 0 0 I I #
coedge $-1 $153 $215 $155 $234 reversed $97 $-1 #
vertex $-1 $226 $311 #
straight-curve $-1 0 -0.1875 1.2190000000000001 1 0 0 I I #
edge $-1 $158 -1.2190000000000001 $223 1.2190000000000001 $155 $312 forward 7 unknown #
edge $-1 $159 -1.2190000000000001 $222 1.2190000000000001 $156 $313 forward 7 unknown #
point $-1 0.1875 -0.1875 1.2190000000000001 #
point $-1 0.1875 0.1875 1.2190000000000001 #
coedge $-1 $238 $238 $162 $239 forward $161 $-1 #
edge $-1 $314 0 $314 6.2831853071795862 $238 $315 forward 7 unknown #
vertex $-1 $163 $316 #
ellipse-curve $-1 0 0 -0.015999999999999959 0 0 -1 0.125 0 0 1 I I #
point $-1 -0.093000000000000083 1.1388839090548119e-017 0.015999999999999959 #
coedge $-1 $243 $243 $167 $244 forward $166 $-1 #
edge $-1 $317 0 $317 6.2831853071795862 $243 $318 forward 7 unknown #
vertex $-1 $168 $319 #
ellipse-curve $-1 0 0 -0.016000000000000014 0 0 -1 0.1875 0 0 1 I I #
point $-1 -0.15550000000000014 1.9042628801937984e-017 0.016000000000000014 #
face $-1 $320 $279 $29 $-1 $321 reversed single #
loop $-1 $-1 $322 $171 #
plane-surface $-1 0.1875 0 0 -1 0 0 0 0 1 forward_v I I I I #
coedge $-1 $323 $324 $325 $326 reversed $172 $-1 #
coedge $-1 $327 $173 $324 $328 forward $119 $-1 #
coedge $-1 $173 $327 $329 $264 reversed $119 $-1 #
coedge $-1 $330 $331 $173 $255 forward $332 $-1 #
edge $-1 $333 -1.5707963267948968 $268 -2.4492127076447545e-016 $254 $269 forward 7 unknown #
coedge $-1 $175 $174 $334 $335 reversed $81 $-1 #
coedge $-1 $336 $337 $338 $258 forward $339 $-1 #
edge $-1 $340 -2.4379999999999997 $262 2.2204460492503131e-016 $257 $341 forward 7 unknown #
coedge $-1 $260 $176 $278 $282 forward $261 $-1 #
coedge $-1 $176 $259 $336 $342 forward $261 $-1 #
loop $-1 $-1 $176 $343 #
vertex $-1 $344 $345 #
ellipse-curve $-1 -3.5148298167706346e-033 0 1.2190000000000001 0 0 -1 0.1875 4.5922738268339147e-017 0 1 I I #
edge $-1 $268 -2.4379999999999997 $273 2.2204460492503131e-016 $329 $346 forward 7 unknown #
coedge $-1 $266 $179 $184 $276 forward $267 $-1 #
coedge $-1 $179 $265 $347 $348 forward $267 $-1 #
loop $-1 $-1 $179 $349 #
vertex $-1 $350 $351 #
ellipse-curve $-1 -3.5148298167706346e-033 0 -1.2189999999999999 0 0 1 0.1875 4.5922738268339147e-017 0 1 I I #
coedge $-1 $271 $181 $352 $353 forward $272 $-1 #
coedge $-1 $181 $270 $183 $275 forward $272 $-1 #
loop $-1 $-1 $181 $354 #
vertex $-1 $353 $355 #
coedge $-1 $184 $183 $356 $357 forward $186 $-1 #
edge $-1 $358 -0.1875 $188 3.5148298167706346e-033 $183 $359 forward 7 unknown #
edge $-1 $187 -3.5148298167706346e-033 $360 0.1875 $184 $361 forward 7 unknown #
coedge $-1 $362 $185 $363 $364 reversed $279 $-1 #
coedge $-1 $185 $362 $259 $282 reversed $279 $-1 #
loop $-1 $-1 $185 $248 #
face $-1 $365 $186 $29 $-1 $321 reversed single #
point $-1 -3.5148298167706346e-033 0.1875 -1.2189999999999999 #
edge $-1 $188 3.5148298167706346e-033 $366 0.1875 $278 $359 forward 7 unknown #
point $-1 -3.5148298167706346e-033 0.1875 1.2190000000000001 #
model_id-kcp-attrib $-1 $-1 $-1 $191 1 990560052 40 -1322778623 8 #
loop $-1 $202 $367 $191 #
cone-surface $-1 0 0 -1.9819 0 0 1 -0.1875 0 0 1 I I 0 1 0.1875 forward I I I I #
coedge $-1 $287 $287 $194 $288 reversed $205 $-1 #
edge $-1 $368 -3.1415926535897931 $368 3.1415926535897931 $287 $369 forward 7 unknown #
edge $370 $371 -3.1415926535897931 $371 3.1415926535897931 $207 $372 forward 7 unknown #
vertex $-1 $197 $373 #
ellipse-curve $-1 0 0 0.081000000000000003 0 0 1 0.125 0 0 1 I I #
convexity-sys-attrib $-1 $-1 $199 $132 #
point $-1 0.1555 0 -1.8600000000000001 #
point $-1 0.1875 0 0 #
model_id-kcp-attrib $-1 $-1 $-1 $209 1 990560052 40 -1322778623 10 #
loop $-1 $198 $374 $209 #
cone-surface $-1 0 0 -1.8280000000000001 0 0 1 0.1875 0 0 1 I I 0.70710678118654702 0.70710678118654802 0.1875 forward I I I I #
plane-surface $-1 0.1875 0 0 -1 0 0 0 0 1 forward_v I I I I #
coedge $-1 $216 $214 $218 $303 reversed $143 $-1 #
edge $-1 $229 -1.2190000000000001 $305 1.2190000000000001 $228 $375 forward 7 unknown #
vertex $-1 $303 $376 #
straight-curve $-1 -0.1875 -0.1875 0 0 0 -1 I I #
edge $-1 $301 -0.1875 $305 0.1875 $299 $377 forward 7 unknown #
straight-curve $-1 0 -0.1875 -1.2190000000000001 -1 0 0 I I #
vertex $-1 $221 $378 #
straight-curve $-1 0 0.1875 -1.2190000000000001 1 0 0 I I #
point $-1 0.1875 0.1875 -1.2190000000000001 #
point $-1 0.1875 -0.1875 -1.2190000000000001 #
straight-curve $-1 -0.1875 0 1.2190000000000001 0 -1 0 I I #
point $-1 -0.1875 0.1875 1.2190000000000001 #
point $-1 -0.1875 -0.1875 1.2190000000000001 #
straight-curve $-1 0.1875 -0.1875 0 0 0 -1 I I #
straight-curve $-1 0.1875 0.1875 0 0 0 -1 I I #
vertex $-1 $239 $379 #
ellipse-curve $-1 0 0 0.015999999999999959 0 0 1 0.125 0 0 1 I I #
point $-1 0.125 0 -0.015999999999999959 #
vertex $-1 $244 $380 #
ellipse-curve $-1 0 0 0.016000000000000014 0 0 1 0.1875 0 0 1 I I #
point $-1 0.1875 0 -0.016000000000000014 #
face $-1 $381 $382 $29 $-1 $383 reversed single #
plane-surface $-1 0 0.1875 0 0 -1 0 0 0 -1 forward_v I I I I #
coedge $-1 $347 $352 $178 $264 reversed $249 $-1 #
coedge $-1 $384 $251 $174 $258 forward $172 $-1 #
coedge $-1 $251 $384 $385 $328 reversed $172 $-1 #
coedge $-1 $386 $387 $251 $326 forward $388 $-1 #
edge $-1 $340 -3.1415926535897931 $333 -1.5707963267948968 $325 $269 forward 7 unknown #
coedge $-1 $253 $252 $389 $390 reversed $119 $-1 #
edge $-1 $333 -2.4379999999999997 $391 2.2204460492503131e-016 $385 $392 forward 7 unknown #
coedge $-1 $393 $394 $322 $264 forward $395 $-1 #
coedge $-1 $331 $254 $394 $350 forward $332 $-1 #
coedge $-1 $254 $330 $396 $397 forward $332 $-1 #
loop $-1 $-1 $254 $398 #
vertex $-1 $399 $400 #
coedge $-1 $401 $363 $256 $335 forward $402 $-1 #
edge $-1 $187 1.5707963267948963 $340 3.1415926535897931 $334 $269 forward 7 unknown #
coedge $-1 $403 $257 $260 $342 reversed $339 $-1 #
coedge $-1 $257 $403 $401 $404 reversed $339 $-1 #
coedge $-1 $405 $406 $323 $258 reversed $382 $-1 #
loop $-1 $-1 $257 $407 #
vertex $-1 $404 $408 #
straight-curve $-1 -0.1875 0 1.2189999999999999 0 0 1 I I #
edge $-1 $366 -0.1875 $262 0 $336 $409 forward 7 unknown #
face $-1 $354 $261 $29 $-1 $410 forward single #
edge $-1 $262 0 $411 0.1875 $406 $409 forward 7 unknown #
point $-1 -0.1875 0 1.2190000000000001 #
straight-curve $-1 0.1875 0 1.2189999999999999 0 0 1 I I #
coedge $-1 $356 $322 $266 $348 reversed $249 $-1 #
edge $-1 $360 -0.1875 $268 0 $347 $412 forward 7 unknown #
face $-1 $413 $267 $29 $-1 $414 reversed single #
edge $-1 $268 0 $415 0.1875 $394 $412 forward 7 unknown #
point $-1 0.1875 0 -1.2189999999999999 #
coedge $-1 $322 $356 $270 $353 reversed $249 $-1 #
edge $-1 $273 0 $358 0.1875 $352 $416 forward 7 unknown #
face $-1 $417 $272 $29 $-1 $410 forward single #
point $-1 0.1875 0 1.2190000000000001 #
coedge $-1 $352 $347 $274 $357 reversed $249 $-1 #
edge $-1 $358 -1.2190000000000001 $360 1.2190000000000001 $356 $418 forward 7 unknown #
vertex $-1 $353 $419 #
straight-curve $-1 0 0.1875 1.2190000000000001 -1 0 0 I I #
vertex $-1 $348 $420 #
straight-curve $-1 0 0.1875 -1.2190000000000001 1 0 0 I I #
coedge $-1 $278 $277 $403 $421 reversed $279 $-1 #
coedge $-1 $334 $401 $277 $364 forward $402 $-1 #
edge $-1 $422 -0.1875 $187 -3.5148298167706346e-033 $277 $361 forward 7 unknown #
face $-1 $-1 $395 $29 $-1 $250 reversed single #
vertex $-1 $282 $423 #
coedge $-1 $367 $367 $374 $424 forward $285 $-1 #
vertex $-1 $288 $425 #
ellipse-curve $-1 0 0 0.050000000000000003 0 0 1 0.095000000000000001 0 0 1 I I #
attrib_edge_convexity-kcp-attrib $-1 $426 $-1 $289 1 #
vertex $-1 $289 $427 #
ellipse-curve $-1 0 0 0.54600000000000004 0 0 -1 0.125 0 0 1 I I #
point $-1 -0.125 0 0.081000000000000003 #
coedge $-1 $374 $374 $367 $424 reversed $296 $-1 #
straight-curve $-1 -0.1875 0.1875 0 0 0 -1 I I #
point $-1 -0.1875 -0.1875 -1.2190000000000001 #
straight-curve $-1 -0.1875 0 -1.2190000000000001 0 1 0 I I #
point $-1 -0.1875 0.1875 -1.2190000000000001 #
point $-1 0.125 0 0.015999999999999959 #
point $-1 0.1875 0 0.016000000000000014 #
face $-1 $343 $428 $29 $-1 $410 forward single #
loop $-1 $-1 $338 $320 #
plane-surface $-1 -0.1875 0 0 1 0 0 0 0 -1 forward_v I I I I #
coedge $-1 $324 $323 $429 $430 reversed $172 $-1 #
coedge $-1 $431 $432 $433 $328 forward $434 $-1 #
coedge $-1 $387 $325 $432 $399 forward $388 $-1 #
coedge $-1 $325 $386 $405 $435 forward $388 $-1 #
loop $-1 $-1 $325 $436 #
coedge $-1 $437 $438 $327 $390 forward $439 $-1 #
edge $-1 $273 2.4492127076447545e-016 $391 1.5707963267948968 $389 $263 forward 7 unknown #
vertex $-1 $440 $441 #
straight-curve $-1 -3.5148298167706346e-033 -0.1875 1.2189999999999999 0 0 1 I I #
coedge $-1 $442 $329 $438 $443 reversed $395 $-1 #
coedge $-1 $329 $442 $330 $350 reversed $395 $-1 #
loop $-1 $-1 $329 $365 #
coedge $-1 $444 $433 $331 $397 reversed $445 $-1 #
edge $-1 $415 -0.1875 $333 3.5148298167706346e-033 $396 $446 forward 7 unknown #
face $-1 $349 $332 $29 $-1 $414 reversed single #
edge $-1 $333 3.5148298167706346e-033 $447 0.1875 $432 $446 forward 7 unknown #
point $-1 -3.5148298167706346e-033 -0.1875 -1.2189999999999999 #
coedge $-1 $363 $334 $337 $404 forward $402 $-1 #
loop $-1 $-1 $334 $413 #
coedge $-1 $337 $336 $362 $421 forward $339 $-1 #
edge $-1 $340 0 $422 0.1875 $337 $448 forward 7 unknown #
coedge $-1 $449 $338 $387 $435 reversed $382 $-1 #
coedge $-1 $338 $449 $450 $344 reversed $382 $-1 #
face $-1 $280 $339 $29 $-1 $383 reversed single #
point $-1 -0.1875 0 -1.2189999999999999 #
straight-curve $-1 -0.1875 0 1.2190000000000001 0 -1 0 I I #
plane-surface $-1 0 0 1.2190000000000001 0 0 1 1 0 0 forward_v I I I I #
vertex $-1 $344 $451 #
straight-curve $-1 0.1875 0 -1.2190000000000001 0 -1 0 I I #
face $-1 $452 $402 $29 $-1 $414 reversed single #
plane-surface $-1 0 0 -1.2190000000000001 0 0 1 1 0 0 forward_v I I I I #
vertex $-1 $453 $454 #
straight-curve $-1 0.1875 0 1.2190000000000001 0 1 0 I I #
face $-1 $455 $439 $29 $-1 $410 forward single #
straight-curve $-1 0.1875 0.1875 0 0 0 -1 I I #
point $-1 0.1875 0.1875 1.2190000000000001 #
point $-1 0.1875 0.1875 -1.2190000000000001 #
edge $-1 $366 -1.2190000000000001 $422 1.2190000000000001 $362 $456 forward 7 unknown #
vertex $-1 $364 $457 #
point $-1 -0.1875 0.1875 1.2190000000000001 #
edge $458 $459 -3.1415926535897931 $459 3.1415926535897931 $374 $460 forward 7 unknown #
point $-1 -0.095000000000000001 0 0.050000000000000003 #
convexity-sys-attrib $-1 $-1 $370 $289 #
point $-1 -0.125 0 0.54600000000000004 #
loop $-1 $-1 $429 $381 #
coedge $-1 $450 $461 $384 $430 forward $428 $-1 #
edge $-1 $391 1.5707963267948968 $262 3.1415926535897931 $429 $263 forward 7 unknown #
coedge $-1 $462 $385 $461 $463 reversed $434 $-1 #
coedge $-1 $385 $462 $386 $399 reversed $434 $-1 #
coedge $-1 $396 $464 $252 $328 reversed $445 $-1 #
loop $-1 $-1 $385 $452 #
edge $-1 $447 -0.1875 $340 0 $405 $448 forward 7 unknown #
face $-1 $398 $388 $29 $-1 $414 reversed single #
coedge $-1 $438 $389 $464 $440 forward $439 $-1 #
coedge $-1 $389 $437 $393 $443 forward $439 $-1 #
loop $-1 $-1 $389 $417 #
edge $-1 $391 -3.5148298167706346e-033 $465 0.1875 $464 $466 forward 7 unknown #
point $-1 -3.5148298167706346e-033 -0.1875 1.2190000000000001 #
coedge $-1 $394 $393 $444 $453 forward $395 $-1 #
edge $-1 $465 -0.1875 $273 0 $393 $416 forward 7 unknown #
coedge $-1 $464 $396 $442 $453 reversed $445 $-1 #
loop $-1 $-1 $433 $455 #
straight-curve $-1 0 -0.1875 -1.2190000000000001 -1 0 0 I I #
vertex $-1 $435 $467 #
straight-curve $-1 -0.1875 0 -1.2190000000000001 0 1 0 I I #
coedge $-1 $406 $405 $462 $468 reversed $382 $-1 #
coedge $-1 $461 $429 $406 $344 forward $428 $-1 #
point $-1 -0.1875 -0.1875 1.2190000000000001 #
face $-1 $407 $434 $29 $-1 $469 reversed single #
edge $-1 $465 -1.2190000000000001 $415 1.2190000000000001 $442 $470 forward 7 unknown #
point $-1 0.1875 -0.1875 -1.2190000000000001 #
face $-1 $436 $445 $29 $-1 $469 reversed single #
straight-curve $-1 -0.1875 0.1875 0 0 0 -1 I I #
point $-1 -0.1875 0.1875 -1.2190000000000001 #
attrib_edge_convexity-kcp-attrib $-1 $471 $-1 $424 1 #
vertex $-1 $424 $472 #
ellipse-curve $-1 0 0 -1.8280000000000001 0 0 1 0.1875 0 0 1 I I #
coedge $-1 $429 $450 $431 $463 forward $428 $-1 #
coedge $-1 $432 $431 $449 $468 forward $434 $-1 #
edge $-1 $411 -0.1875 $391 -3.5148298167706346e-033 $431 $466 forward 7 unknown #
coedge $-1 $433 $444 $437 $440 reversed $445 $-1 #
vertex $-1 $443 $473 #
straight-curve $-1 0 -0.1875 1.2190000000000001 1 0 0 I I #
point $-1 -0.1875 -0.1875 -1.2190000000000001 #
edge $-1 $411 -1.2190000000000001 $447 1.2190000000000001 $449 $474 forward 7 unknown #
plane-surface $-1 0 -0.1875 0 0 1 0 0 0 1 forward_v I I I I #
straight-curve $-1 0.1875 -0.1875 0 0 0 -1 I I #
convexity-sys-attrib $-1 $-1 $458 $424 #
point $-1 -0.1875 0 -1.8280000000000001 #
point $-1 0.1875 -0.1875 1.2190000000000001 #
straight-curve $-1 -0.1875 -0.1875 0 0 0 -1 I I #
End-of-ACIS-data 