700 0 2 0           
24 FBMach with ACIS - 7.0.3 13 ACIS 7.0.3 NT 24 Tue May 14 14:20:28 2002 
1 9.9999999999999995e-007 1e-010 
body $2 -1 $-1 $3 $-1 $4 #
bdycol-kcp $-1 -1 1 4 $5 $6 $7 $8 #
model_id-kcp-attrib $-1 -1 $-1 $-1 $0 1 1021400428 1021400428 1233453057 1 #
lump $-1 -1 $-1 $-1 $9 $0 #
transform $-1 -1 1 0 0 0 1 0 0 0 1 0 0 0 1 rotate no_reflect no_shear #
body $10 -1 $-1 $11 $-1 $12 #
body $13 -1 $-1 $14 $-1 $15 #
body $16 -1 $-1 $17 $-1 $18 #
body $19 -1 $-1 $20 $-1 $21 #
shell $-1 -1 $-1 $-1 $-1 $22 $-1 $3 #
model_id-kcp-attrib $-1 -1 $-1 $-1 $5 1 1021400428 1021400428 1234108418 1 #
lump $-1 -1 $-1 $-1 $23 $5 #
transform $-1 -1 1 0 0 0 1 0 0 0 1 0 0 -0.64100000000000001 1 no_rotate no_reflect no_shear #
rgb_color-st-attrib $-1 -1 $24 $-1 $6 1 1 0.5 #
lump $-1 -1 $-1 $-1 $25 $6 #
transform $-1 -1 1 0 0 0 1 0 0 0 1 0 0 0.56200000000000006 1 rotate no_reflect no_shear #
rgb_color-st-attrib $-1 -1 $26 $-1 $7 1 1 0.5 #
lump $-1 -1 $-1 $-1 $27 $7 #
transform $-1 -1 1 0 0 0 -1 0 0 0 -1 0 0 -1.8440000000000001 1 rotate no_reflect no_shear #
rgb_color-st-attrib $-1 -1 $28 $-1 $8 0.5 1 1 #
lump $-1 -1 $-1 $-1 $29 $8 #
transform $-1 -1 1 0 0 0 1 0 0 0 1 0 0 -0.64100000000000001 1 no_rotate no_reflect no_shear #
face $30 -1 $-1 $31 $32 $9 $-1 $33 forward single #
shell $-1 -1 $-1 $-1 $-1 $34 $-1 $11 #
model_id-kcp-attrib $-1 -1 $-1 $13 $6 1 1021400428 1021400428 1234763779 1 #
shell $-1 -1 $-1 $-1 $-1 $35 $-1 $14 #
model_id-kcp-attrib $-1 -1 $-1 $16 $7 1 1021400428 1021400428 1234763780 1 #
shell $-1 -1 $-1 $-1 $-1 $36 $-1 $17 #
model_id-kcp-attrib $-1 -1 $-1 $19 $8 1 1021400428 1021400428 1238040581 1 #
shell $-1 -1 $-1 $-1 $-1 $37 $-1 $20 #
model_id-kcp-attrib $-1 -1 $-1 $-1 $22 1 1021400428 1021400428 1233453057 2 #
face $38 -1 $-1 $39 $40 $9 $-1 $41 forward single #
loop $-1 -1 $-1 $-1 $42 $22 #
plane-surface $-1 -1 $-1 0 0 0.57799999999999996 0 0 1 1 0 0 forward_v I I I I #
face $43 -1 $-1 $44 $45 $23 $-1 $46 forward single #
face $-1 -1 $-1 $47 $48 $25 $-1 $49 reversed single #
face $-1 -1 $-1 $50 $51 $27 $-1 $52 reversed single #
face $-1 -1 $-1 $53 $54 $29 $-1 $55 reversed single #
model_id-kcp-attrib $-1 -1 $-1 $-1 $31 1 1021400428 1021400428 1233453057 3 #
face $56 -1 $-1 $57 $58 $9 $-1 $59 reversed single #
loop $-1 -1 $-1 $60 $61 $31 #
plane-surface $-1 -1 $-1 0 0 0 0 0 1 1 0 0 forward_v I I I I #
coedge $-1 -1 $-1 $42 $42 $62 $63 forward $32 $-1 #
model_id-kcp-attrib $-1 -1 $-1 $-1 $34 1 1021400428 1021400428 1234108418 2 #
face $64 -1 $-1 $65 $66 $23 $-1 $67 reversed single #
loop $-1 -1 $-1 $-1 $68 $34 #
plane-surface $-1 -1 $-1 0 0 1.2190000000000001 0 0 1 1 0 0 forward_v I I I I #
face $-1 -1 $-1 $69 $70 $25 $-1 $71 forward single #
loop $-1 -1 $-1 $72 $73 $35 #
cone-surface $-1 -1 $-1 0 0 0.046500000000000097 0 0 1 0.0625 0 0 1 I I -0.70710678118654691 0.70710678118654813 0.0625 forward I I I I #
face $-1 -1 $-1 $74 $75 $27 $-1 $76 forward single #
loop $-1 -1 $-1 $77 $78 $36 #
cone-surface $-1 -1 $-1 0 0 0.077750000000000208 0 0 1 0.09375 0 0 1 I I -0.70710678118654713 0.70710678118654802 0.09375 forward I I I I #
face $-1 -1 $-1 $79 $80 $29 $-1 $55 reversed single #
loop $-1 -1 $-1 $-1 $81 $37 #
cone-surface $-1 -1 $-1 -3.5148298167706346e-033 0 1.2189999999999999 0 0 1 0.1875 4.5922738268339147e-017 0 1 I I 0 1 0.1875 forward I I I I #
model_id-kcp-attrib $-1 -1 $-1 $-1 $39 1 1021400428 1021400428 1233453057 4 #
face $82 -1 $-1 $83 $84 $9 $-1 $85 forward single #
loop $-1 -1 $-1 $-1 $86 $39 #
plane-surface $-1 -1 $-1 0 0 -1.8600000000000001 0 0 1 1 0 0 forward_v I I I I #
loop $-1 -1 $-1 $-1 $87 $31 #
coedge $-1 -1 $-1 $61 $61 $88 $89 forward $40 $-1 #
coedge $-1 -1 $-1 $62 $62 $42 $63 reversed $90 $-1 #
edge $91 -1 $-1 $92 0 $92 6.2831853071795862 $62 $93 forward @7 unknown #
model_id-kcp-attrib $-1 -1 $-1 $-1 $44 1 1021400428 1021400428 1234108418 3 #
face $-1 -1 $-1 $94 $95 $23 $-1 $96 reversed single #
loop $-1 -1 $-1 $-1 $97 $44 #
plane-surface $-1 -1 $-1 0 0 -1.2190000000000001 0 0 1 1 0 0 forward_v I I I I #
coedge $-1 -1 $-1 $98 $99 $100 $101 forward $45 $-1 #
face $-1 -1 $-1 $-1 $102 $25 $-1 $103 forward single #
loop $-1 -1 $-1 $104 $105 $47 #
cone-surface $-1 -1 $-1 0 0 0 0 0 1 0.125 0 0 1 I I 0 1 0.125 forward I I I I #
loop $-1 -1 $-1 $-1 $106 $35 #
coedge $-1 -1 $-1 $73 $73 $107 $108 reversed $48 $-1 #
face $-1 -1 $-1 $-1 $109 $27 $-1 $110 forward single #
loop $-1 -1 $-1 $111 $112 $50 #
cone-surface $-1 -1 $-1 0 0 0 0 0 1 0.1875 0 0 1 I I 0 1 0.1875 forward I I I I #
loop $-1 -1 $-1 $-1 $113 $36 #
coedge $-1 -1 $-1 $78 $78 $114 $115 reversed $51 $-1 #
face $-1 -1 $-1 $116 $117 $29 $-1 $55 reversed single #
loop $-1 -1 $-1 $-1 $118 $53 #
coedge $-1 -1 $-1 $119 $120 $121 $122 reversed $54 $-1 #
model_id-kcp-attrib $-1 -1 $-1 $-1 $57 1 1021400428 1021400428 1233453057 5 #
face $123 -1 $-1 $124 $125 $9 $-1 $126 forward single #
loop $-1 -1 $-1 $127 $128 $57 #
cone-surface $-1 -1 $-1 0 0 -1.9819 0 0 1 -0.125 0 0 1 I I 0 1 0.125 forward I I I I #
coedge $-1 -1 $-1 $86 $86 $129 $130 reversed $58 $-1 #
coedge $-1 -1 $-1 $87 $87 $131 $132 forward $60 $-1 #
coedge $-1 -1 $-1 $88 $88 $61 $89 reversed $133 $-1 #
edge $-1 -1 $-1 $134 -3.1415926535897931 $134 3.1415926535897931 $61 $135 forward @7 unknown #
loop $-1 -1 $-1 $136 $62 $137 #
attrib_edge_convexity-kcp-attrib $-1 -1 $138 $-1 $63 1 #
vertex $-1 -1 $-1 $63 $139 #
ellipse-curve $-1 -1 $-1 0 0 0.57799999999999996 0 0 1 0.092999999999999999 0 0 1 I I #
face $-1 -1 $-1 $140 $141 $23 $-1 $142 reversed single #
loop $-1 -1 $-1 $-1 $143 $65 #
plane-surface $-1 -1 $-1 0 -0.1875 0 0 1 0 0 0 1 forward_v I I I I #
coedge $-1 -1 $-1 $144 $145 $146 $147 forward $66 $-1 #
coedge $-1 -1 $-1 $148 $68 $149 $150 forward $45 $-1 #
coedge $-1 -1 $-1 $68 $148 $151 $152 forward $45 $-1 #
coedge $-1 -1 $-1 $153 $154 $68 $101 reversed $155 $-1 #
edge $-1 -1 $-1 $156 -0.1875 $157 0.1875 $100 $158 forward @7 unknown #
loop $-1 -1 $-1 $159 $107 $69 #
plane-surface $-1 -1 $-1 0 0 0.015999999999999959 0 0 1 1 0 0 forward_v I I I I #
loop $-1 -1 $-1 $-1 $160 $47 #
coedge $-1 -1 $-1 $105 $105 $106 $161 reversed $70 $-1 #
coedge $-1 -1 $-1 $106 $106 $105 $161 forward $72 $-1 #
coedge $-1 -1 $-1 $107 $107 $73 $108 forward $102 $-1 #
edge $-1 -1 $-1 $162 -3.1415926535897931 $162 3.1415926535897931 $107 $163 forward @7 unknown #
loop $-1 -1 $-1 $164 $114 $74 #
plane-surface $-1 -1 $-1 0 0 0.016000000000000014 0 0 1 1 0 0 forward_v I I I I #
loop $-1 -1 $-1 $-1 $165 $50 #
coedge $-1 -1 $-1 $112 $112 $113 $166 reversed $75 $-1 #
coedge $-1 -1 $-1 $113 $113 $112 $166 forward $77 $-1 #
coedge $-1 -1 $-1 $114 $114 $78 $115 forward $109 $-1 #
edge $-1 -1 $-1 $167 -3.1415926535897931 $167 3.1415926535897931 $114 $168 forward @7 unknown #
face $-1 -1 $-1 $169 $170 $29 $-1 $55 reversed single #
loop $-1 -1 $-1 $-1 $171 $79 #
coedge $-1 -1 $-1 $172 $173 $174 $175 reversed $80 $-1 #
coedge $-1 -1 $-1 $176 $81 $177 $178 reversed $54 $-1 #
coedge $-1 -1 $-1 $81 $176 $179 $180 reversed $54 $-1 #
coedge $-1 -1 $-1 $181 $182 $183 $122 forward $184 $-1 #
edge $-1 -1 $-1 $185 -2.4379999999999997 $186 2.2204460492503131e-016 $121 $187 forward @7 unknown #
model_id-kcp-attrib $-1 -1 $-1 $-1 $83 1 1021400428 1021400428 1233453057 6 #
face $188 -1 $-1 $189 $133 $9 $-1 $190 forward single #
loop $-1 -1 $-1 $191 $192 $83 #
cone-surface $-1 -1 $-1 0 0 0.081000000000000003 0 0 1 0.125 0 0 1 I I 0.69542142751605396 0.71860214176659198 0.125 forward I I I I #
loop $-1 -1 $-1 $-1 $193 $57 #
coedge $-1 -1 $-1 $128 $128 $194 $195 forward $84 $-1 #
coedge $-1 -1 $-1 $129 $129 $86 $130 forward $196 $-1 #
edge $197 -1 $-1 $198 0 $198 6.2831853071795862 $129 $199 forward @7 unknown #
coedge $-1 -1 $-1 $131 $131 $87 $132 reversed $200 $-1 #
edge $-1 -1 $-1 $201 0 $201 6.2831853071795862 $131 $202 forward @7 unknown #
loop $-1 -1 $-1 $203 $88 $124 #
vertex $-1 -1 $-1 $89 $204 #
ellipse-curve $-1 -1 $-1 0 0 0 0 0 -1 0.095000000000000001 0 0 1 I I #
loop $-1 -1 $-1 $-1 $205 $137 #
face $206 -1 $-1 $207 $90 $9 $-1 $208 forward single #
convexity-sys-attrib $-1 -1 $-1 $91 $63 #
point $-1 -1 $-1 0.092999999999999999 0 0.57799999999999996 #
face $-1 -1 $-1 $209 $210 $23 $-1 $211 reversed single #
loop $-1 -1 $-1 $-1 $212 $94 #
plane-surface $-1 -1 $-1 -0.1875 0 0 1 0 0 0 0 -1 forward_v I I I I #
coedge $-1 -1 $-1 $213 $151 $214 $215 forward $95 $-1 #
coedge $-1 -1 $-1 $216 $97 $213 $217 forward $66 $-1 #
coedge $-1 -1 $-1 $97 $216 $218 $219 forward $66 $-1 #
coedge $-1 -1 $-1 $154 $153 $97 $147 reversed $155 $-1 #
edge $-1 -1 $-1 $220 -0.1875 $221 0.1875 $146 $222 forward @7 unknown #
coedge $-1 -1 $-1 $99 $98 $223 $224 forward $45 $-1 #
coedge $-1 -1 $-1 $225 $226 $98 $150 reversed $210 $-1 #
edge $-1 -1 $-1 $157 -0.1875 $227 0.1875 $149 $228 forward @7 unknown #
coedge $-1 -1 $-1 $143 $229 $99 $152 reversed $95 $-1 #
edge $-1 -1 $-1 $230 -0.1875 $156 0.1875 $151 $231 forward @7 unknown #
coedge $-1 -1 $-1 $146 $100 $229 $232 forward $155 $-1 #
coedge $-1 -1 $-1 $100 $146 $225 $233 reversed $155 $-1 #
loop $-1 -1 $-1 $-1 $153 $209 #
vertex $-1 -1 $-1 $101 $234 #
vertex $-1 -1 $-1 $101 $235 #
straight-curve $-1 -1 $-1 0.1875 0 1.2190000000000001 0 1 0 I I #
loop $-1 -1 $-1 $-1 $236 $69 #
coedge $-1 -1 $-1 $160 $160 $236 $237 reversed $104 $-1 #
edge $-1 -1 $-1 $238 0 $238 6.2831853071795862 $105 $239 forward @7 unknown #
vertex $-1 -1 $-1 $108 $240 #
ellipse-curve $-1 -1 $-1 0 0 0.015999999999999959 0 0 -1 0.093000000000000083 0 0 1 I I #
loop $-1 -1 $-1 $-1 $241 $74 #
coedge $-1 -1 $-1 $165 $165 $241 $242 reversed $111 $-1 #
edge $-1 -1 $-1 $243 0 $243 6.2831853071795862 $112 $244 forward @7 unknown #
vertex $-1 -1 $-1 $115 $245 #
ellipse-curve $-1 -1 $-1 0 0 0.016000000000000014 0 0 -1 0.15550000000000014 0 0 1 I I #
face $-1 -1 $-1 $246 $247 $29 $-1 $248 reversed single #
loop $-1 -1 $-1 $-1 $249 $116 #
coedge $-1 -1 $-1 $250 $251 $252 $253 reversed $117 $-1 #
coedge $-1 -1 $-1 $254 $118 $255 $256 reversed $80 $-1 #
coedge $-1 -1 $-1 $118 $254 $81 $122 forward $80 $-1 #
coedge $-1 -1 $-1 $257 $258 $118 $175 forward $259 $-1 #
edge $-1 -1 $-1 $260 -3.1415926535897931 $186 -1.5707963267948963 $174 $261 forward @7 unknown #
coedge $-1 -1 $-1 $120 $119 $251 $262 forward $54 $-1 #
coedge $-1 -1 $-1 $263 $264 $119 $178 forward $265 $-1 #
edge $-1 -1 $-1 $266 -2.4492127076447545e-016 $185 1.5707963267948963 $177 $267 forward @7 unknown #
coedge $-1 -1 $-1 $268 $269 $120 $180 forward $270 $-1 #
edge $-1 -1 $-1 $186 -1.5707963267948963 $271 2.4492127076447545e-016 $179 $261 forward @7 unknown #
coedge $-1 -1 $-1 $272 $121 $269 $273 reversed $184 $-1 #
coedge $-1 -1 $-1 $121 $272 $263 $274 reversed $184 $-1 #
coedge $-1 -1 $-1 $275 $276 $173 $122 reversed $277 $-1 #
loop $-1 -1 $-1 $-1 $121 $278 #
vertex $-1 -1 $-1 $274 $279 #
vertex $-1 -1 $-1 $280 $281 #
straight-curve $-1 -1 $-1 -3.5148298167706346e-033 0.1875 1.2189999999999999 0 0 1 I I #
model_id-kcp-attrib $-1 -1 $-1 $-1 $124 1 1021400428 1021400428 1233453057 7 #
face $282 -1 $-1 $137 $283 $9 $-1 $284 forward single #
cone-surface $-1 -1 $-1 0 0 -1.9819 0 0 1 -0.095000000000000001 0 0 1 I I 0 1 0.095000000000000001 forward I I I I #
loop $-1 -1 $-1 $-1 $194 $83 #
coedge $-1 -1 $-1 $192 $192 $285 $286 forward $125 $-1 #
coedge $-1 -1 $-1 $193 $193 $205 $287 forward $127 $-1 #
coedge $-1 -1 $-1 $194 $194 $128 $195 reversed $191 $-1 #
edge $-1 -1 $-1 $288 -3.1415926535897931 $288 3.1415926535897931 $194 $289 forward @7 unknown #
loop $-1 -1 $-1 $-1 $129 $207 #
attrib_edge_convexity-kcp-attrib $-1 -1 $290 $-1 $130 1 #
vertex $-1 -1 $-1 $130 $291 #
ellipse-curve $-1 -1 $-1 0 0 -1.8600000000000001 0 0 1 0.1555 0 0 1 I I #
loop $-1 -1 $-1 $-1 $131 $189 #
vertex $-1 -1 $-1 $132 $292 #
ellipse-curve $-1 -1 $-1 0 0 0 0 0 1 0.1875 0 0 1 I I #
loop $-1 -1 $-1 $-1 $285 $124 #
point $-1 -1 $-1 -0.095000000000000001 0 0 #
coedge $-1 -1 $-1 $205 $205 $193 $287 reversed $136 $-1 #
model_id-kcp-attrib $-1 -1 $-1 $-1 $137 1 1021400428 1021400428 1233453057 9 #
face $293 -1 $-1 $-1 $294 $9 $-1 $295 forward single #
cone-surface $-1 -1 $-1 0 0 0.54600000000000004 0 0 -1 0.125 0 0 1 I I 0.70710678118654702 0.70710678118654802 0.125 forward I I I I #
face $-1 -1 $-1 $-1 $155 $23 $-1 $296 reversed single #
loop $-1 -1 $-1 $-1 $225 $140 #
plane-surface $-1 -1 $-1 0 0.1875 0 0 -1 0 0 0 -1 forward_v I I I I #
coedge $-1 -1 $-1 $297 $223 $226 $298 forward $141 $-1 #
coedge $-1 -1 $-1 $229 $143 $144 $217 reversed $95 $-1 #
coedge $-1 -1 $-1 $223 $297 $143 $215 reversed $141 $-1 #
edge $-1 -1 $-1 $230 -1.2190000000000001 $299 1.2190000000000001 $214 $300 forward @7 unknown #
coedge $-1 -1 $-1 $145 $144 $297 $301 forward $66 $-1 #
edge $-1 -1 $-1 $221 -0.1875 $299 0.1875 $213 $302 forward @7 unknown #
coedge $-1 -1 $-1 $226 $225 $145 $219 reversed $210 $-1 #
edge $-1 -1 $-1 $303 -0.1875 $220 0.1875 $218 $304 forward @7 unknown #
vertex $-1 -1 $-1 $147 $305 #
vertex $-1 -1 $-1 $232 $306 #
straight-curve $-1 -1 $-1 0.1875 0 -1.2190000000000001 0 -1 0 I I #
coedge $-1 -1 $-1 $212 $214 $148 $224 reversed $141 $-1 #
edge $-1 -1 $-1 $227 -0.1875 $230 0.1875 $223 $307 forward @7 unknown #
coedge $-1 -1 $-1 $218 $149 $154 $233 forward $210 $-1 #
coedge $-1 -1 $-1 $149 $218 $212 $298 reversed $210 $-1 #
vertex $-1 -1 $-1 $150 $308 #
straight-curve $-1 -1 $-1 0 0.1875 1.2190000000000001 -1 0 0 I I #
coedge $-1 -1 $-1 $151 $213 $153 $232 reversed $95 $-1 #
vertex $-1 -1 $-1 $224 $309 #
straight-curve $-1 -1 $-1 0 -0.1875 1.2190000000000001 1 0 0 I I #
edge $-1 -1 $-1 $156 -1.2190000000000001 $221 1.2190000000000001 $153 $310 forward @7 unknown #
edge $-1 -1 $-1 $157 -1.2190000000000001 $220 1.2190000000000001 $154 $311 forward @7 unknown #
point $-1 -1 $-1 0.1875 -0.1875 1.2190000000000001 #
point $-1 -1 $-1 0.1875 0.1875 1.2190000000000001 #
coedge $-1 -1 $-1 $236 $236 $160 $237 forward $159 $-1 #
edge $-1 -1 $-1 $312 0 $312 6.2831853071795862 $236 $313 forward @7 unknown #
vertex $-1 -1 $-1 $161 $314 #
ellipse-curve $-1 -1 $-1 0 0 -0.015999999999999959 0 0 -1 0.125 0 0 1 I I #
point $-1 -1 $-1 -0.093000000000000083 1.1388839090548119e-017 0.015999999999999959 #
coedge $-1 -1 $-1 $241 $241 $165 $242 forward $164 $-1 #
edge $-1 -1 $-1 $315 0 $315 6.2831853071795862 $241 $316 forward @7 unknown #
vertex $-1 -1 $-1 $166 $317 #
ellipse-curve $-1 -1 $-1 0 0 -0.016000000000000014 0 0 -1 0.1875 0 0 1 I I #
point $-1 -1 $-1 -0.15550000000000014 1.9042628801937984e-017 0.016000000000000014 #
face $-1 -1 $-1 $318 $277 $29 $-1 $319 reversed single #
loop $-1 -1 $-1 $-1 $320 $169 #
plane-surface $-1 -1 $-1 0.1875 0 0 -1 0 0 0 0 1 forward_v I I I I #
coedge $-1 -1 $-1 $321 $322 $323 $324 reversed $170 $-1 #
coedge $-1 -1 $-1 $325 $171 $322 $326 forward $117 $-1 #
coedge $-1 -1 $-1 $171 $325 $327 $262 reversed $117 $-1 #
coedge $-1 -1 $-1 $328 $329 $171 $253 forward $330 $-1 #
edge $-1 -1 $-1 $331 -1.5707963267948968 $266 -2.4492127076447545e-016 $252 $267 forward @7 unknown #
coedge $-1 -1 $-1 $173 $172 $332 $333 reversed $80 $-1 #
coedge $-1 -1 $-1 $334 $335 $336 $256 forward $337 $-1 #
edge $-1 -1 $-1 $338 -2.4379999999999997 $260 2.2204460492503131e-016 $255 $339 forward @7 unknown #
coedge $-1 -1 $-1 $258 $174 $276 $280 forward $259 $-1 #
coedge $-1 -1 $-1 $174 $257 $334 $340 forward $259 $-1 #
loop $-1 -1 $-1 $-1 $174 $341 #
vertex $-1 -1 $-1 $342 $343 #
ellipse-curve $-1 -1 $-1 -3.5148298167706346e-033 0 1.2190000000000001 0 0 -1 0.1875 4.5922738268339147e-017 0 1 I I #
edge $-1 -1 $-1 $266 -2.4379999999999997 $271 2.2204460492503131e-016 $327 $344 forward @7 unknown #
coedge $-1 -1 $-1 $264 $177 $182 $274 forward $265 $-1 #
coedge $-1 -1 $-1 $177 $263 $345 $346 forward $265 $-1 #
loop $-1 -1 $-1 $-1 $177 $347 #
vertex $-1 -1 $-1 $348 $349 #
ellipse-curve $-1 -1 $-1 -3.5148298167706346e-033 0 -1.2189999999999999 0 0 1 0.1875 4.5922738268339147e-017 0 1 I I #
coedge $-1 -1 $-1 $269 $179 $350 $351 forward $270 $-1 #
coedge $-1 -1 $-1 $179 $268 $181 $273 forward $270 $-1 #
loop $-1 -1 $-1 $-1 $179 $352 #
vertex $-1 -1 $-1 $351 $353 #
coedge $-1 -1 $-1 $182 $181 $354 $355 forward $184 $-1 #
edge $-1 -1 $-1 $356 -0.1875 $186 3.5148298167706346e-033 $181 $357 forward @7 unknown #
edge $-1 -1 $-1 $185 -3.5148298167706346e-033 $358 0.1875 $182 $359 forward @7 unknown #
coedge $-1 -1 $-1 $360 $183 $361 $362 reversed $277 $-1 #
coedge $-1 -1 $-1 $183 $360 $257 $280 reversed $277 $-1 #
loop $-1 -1 $-1 $-1 $183 $246 #
face $-1 -1 $-1 $363 $184 $29 $-1 $319 reversed single #
point $-1 -1 $-1 -3.5148298167706346e-033 0.1875 -1.2189999999999999 #
edge $-1 -1 $-1 $186 3.5148298167706346e-033 $364 0.1875 $276 $357 forward @7 unknown #
point $-1 -1 $-1 -3.5148298167706346e-033 0.1875 1.2190000000000001 #
model_id-kcp-attrib $-1 -1 $-1 $-1 $189 1 1021400428 1021400428 1233453057 8 #
loop $-1 -1 $-1 $200 $365 $189 #
cone-surface $-1 -1 $-1 0 0 -1.9819 0 0 1 -0.1875 0 0 1 I I 0 1 0.1875 forward I I I I #
coedge $-1 -1 $-1 $285 $285 $192 $286 reversed $203 $-1 #
edge $-1 -1 $-1 $366 -3.1415926535897931 $366 3.1415926535897931 $285 $367 forward @7 unknown #
edge $368 -1 $-1 $369 -3.1415926535897931 $369 3.1415926535897931 $205 $370 forward @7 unknown #
vertex $-1 -1 $-1 $195 $371 #
ellipse-curve $-1 -1 $-1 0 0 0.081000000000000003 0 0 1 0.125 0 0 1 I I #
convexity-sys-attrib $-1 -1 $-1 $197 $130 #
point $-1 -1 $-1 0.1555 0 -1.8600000000000001 #
point $-1 -1 $-1 0.1875 0 0 #
model_id-kcp-attrib $-1 -1 $-1 $-1 $207 1 1021400428 1021400428 1233453057 10 #
loop $-1 -1 $-1 $196 $372 $207 #
cone-surface $-1 -1 $-1 0 0 -1.8280000000000001 0 0 1 0.1875 0 0 1 I I 0.70710678118654702 0.70710678118654802 0.1875 forward I I I I #
plane-surface $-1 -1 $-1 0.1875 0 0 -1 0 0 0 0 1 forward_v I I I I #
coedge $-1 -1 $-1 $214 $212 $216 $301 reversed $141 $-1 #
edge $-1 -1 $-1 $227 -1.2190000000000001 $303 1.2190000000000001 $226 $373 forward @7 unknown #
vertex $-1 -1 $-1 $301 $374 #
straight-curve $-1 -1 $-1 -0.1875 -0.1875 0 0 0 -1 I I #
edge $-1 -1 $-1 $299 -0.1875 $303 0.1875 $297 $375 forward @7 unknown #
straight-curve $-1 -1 $-1 0 -0.1875 -1.2190000000000001 -1 0 0 I I #
vertex $-1 -1 $-1 $219 $376 #
straight-curve $-1 -1 $-1 0 0.1875 -1.2190000000000001 1 0 0 I I #
point $-1 -1 $-1 0.1875 0.1875 -1.2190000000000001 #
point $-1 -1 $-1 0.1875 -0.1875 -1.2190000000000001 #
straight-curve $-1 -1 $-1 -0.1875 0 1.2190000000000001 0 -1 0 I I #
point $-1 -1 $-1 -0.1875 0.1875 1.2190000000000001 #
point $-1 -1 $-1 -0.1875 -0.1875 1.2190000000000001 #
straight-curve $-1 -1 $-1 0.1875 -0.1875 0 0 0 -1 I I #
straight-curve $-1 -1 $-1 0.1875 0.1875 0 0 0 -1 I I #
vertex $-1 -1 $-1 $237 $377 #
ellipse-curve $-1 -1 $-1 0 0 0.015999999999999959 0 0 1 0.125 0 0 1 I I #
point $-1 -1 $-1 0.125 0 -0.015999999999999959 #
vertex $-1 -1 $-1 $242 $378 #
ellipse-curve $-1 -1 $-1 0 0 0.016000000000000014 0 0 1 0.1875 0 0 1 I I #
point $-1 -1 $-1 0.1875 0 -0.016000000000000014 #
face $-1 -1 $-1 $379 $380 $29 $-1 $381 reversed single #
plane-surface $-1 -1 $-1 0 0.1875 0 0 -1 0 0 0 -1 forward_v I I I I #
coedge $-1 -1 $-1 $345 $350 $176 $262 reversed $247 $-1 #
coedge $-1 -1 $-1 $382 $249 $172 $256 forward $170 $-1 #
coedge $-1 -1 $-1 $249 $382 $383 $326 reversed $170 $-1 #
coedge $-1 -1 $-1 $384 $385 $249 $324 forward $386 $-1 #
edge $-1 -1 $-1 $338 -3.1415926535897931 $331 -1.5707963267948968 $323 $267 forward @7 unknown #
coedge $-1 -1 $-1 $251 $250 $387 $388 reversed $117 $-1 #
edge $-1 -1 $-1 $331 -2.4379999999999997 $389 2.2204460492503131e-016 $383 $390 forward @7 unknown #
coedge $-1 -1 $-1 $391 $392 $320 $262 forward $393 $-1 #
coedge $-1 -1 $-1 $329 $252 $392 $348 forward $330 $-1 #
coedge $-1 -1 $-1 $252 $328 $394 $395 forward $330 $-1 #
loop $-1 -1 $-1 $-1 $252 $396 #
vertex $-1 -1 $-1 $397 $398 #
coedge $-1 -1 $-1 $399 $361 $254 $333 forward $400 $-1 #
edge $-1 -1 $-1 $185 1.5707963267948963 $338 3.1415926535897931 $332 $267 forward @7 unknown #
coedge $-1 -1 $-1 $401 $255 $258 $340 reversed $337 $-1 #
coedge $-1 -1 $-1 $255 $401 $399 $402 reversed $337 $-1 #
coedge $-1 -1 $-1 $403 $404 $321 $256 reversed $380 $-1 #
loop $-1 -1 $-1 $-1 $255 $405 #
vertex $-1 -1 $-1 $402 $406 #
straight-curve $-1 -1 $-1 -0.1875 0 1.2189999999999999 0 0 1 I I #
edge $-1 -1 $-1 $364 -0.1875 $260 0 $334 $407 forward @7 unknown #
face $-1 -1 $-1 $352 $259 $29 $-1 $408 forward single #
edge $-1 -1 $-1 $260 0 $409 0.1875 $404 $407 forward @7 unknown #
point $-1 -1 $-1 -0.1875 0 1.2190000000000001 #
straight-curve $-1 -1 $-1 0.1875 0 1.2189999999999999 0 0 1 I I #
coedge $-1 -1 $-1 $354 $320 $264 $346 reversed $247 $-1 #
edge $-1 -1 $-1 $358 -0.1875 $266 0 $345 $410 forward @7 unknown #
face $-1 -1 $-1 $411 $265 $29 $-1 $412 reversed single #
edge $-1 -1 $-1 $266 0 $413 0.1875 $392 $410 forward @7 unknown #
point $-1 -1 $-1 0.1875 0 -1.2189999999999999 #
coedge $-1 -1 $-1 $320 $354 $268 $351 reversed $247 $-1 #
edge $-1 -1 $-1 $271 0 $356 0.1875 $350 $414 forward @7 unknown #
face $-1 -1 $-1 $415 $270 $29 $-1 $408 forward single #
point $-1 -1 $-1 0.1875 0 1.2190000000000001 #
coedge $-1 -1 $-1 $350 $345 $272 $355 reversed $247 $-1 #
edge $-1 -1 $-1 $356 -1.2190000000000001 $358 1.2190000000000001 $354 $416 forward @7 unknown #
vertex $-1 -1 $-1 $351 $417 #
straight-curve $-1 -1 $-1 0 0.1875 1.2190000000000001 -1 0 0 I I #
vertex $-1 -1 $-1 $346 $418 #
straight-curve $-1 -1 $-1 0 0.1875 -1.2190000000000001 1 0 0 I I #
coedge $-1 -1 $-1 $276 $275 $401 $419 reversed $277 $-1 #
coedge $-1 -1 $-1 $332 $399 $275 $362 forward $400 $-1 #
edge $-1 -1 $-1 $420 -0.1875 $185 -3.5148298167706346e-033 $275 $359 forward @7 unknown #
face $-1 -1 $-1 $-1 $393 $29 $-1 $248 reversed single #
vertex $-1 -1 $-1 $280 $421 #
coedge $-1 -1 $-1 $365 $365 $372 $422 forward $283 $-1 #
vertex $-1 -1 $-1 $286 $423 #
ellipse-curve $-1 -1 $-1 0 0 0.050000000000000003 0 0 1 0.095000000000000001 0 0 1 I I #
attrib_edge_convexity-kcp-attrib $-1 -1 $424 $-1 $287 1 #
vertex $-1 -1 $-1 $287 $425 #
ellipse-curve $-1 -1 $-1 0 0 0.54600000000000004 0 0 -1 0.125 0 0 1 I I #
point $-1 -1 $-1 -0.125 0 0.081000000000000003 #
coedge $-1 -1 $-1 $372 $372 $365 $422 reversed $294 $-1 #
straight-curve $-1 -1 $-1 -0.1875 0.1875 0 0 0 -1 I I #
point $-1 -1 $-1 -0.1875 -0.1875 -1.2190000000000001 #
straight-curve $-1 -1 $-1 -0.1875 0 -1.2190000000000001 0 1 0 I I #
point $-1 -1 $-1 -0.1875 0.1875 -1.2190000000000001 #
point $-1 -1 $-1 0.125 0 0.015999999999999959 #
point $-1 -1 $-1 0.1875 0 0.016000000000000014 #
face $-1 -1 $-1 $341 $426 $29 $-1 $408 forward single #
loop $-1 -1 $-1 $-1 $336 $318 #
plane-surface $-1 -1 $-1 -0.1875 0 0 1 0 0 0 0 -1 forward_v I I I I #
coedge $-1 -1 $-1 $322 $321 $427 $428 reversed $170 $-1 #
coedge $-1 -1 $-1 $429 $430 $431 $326 forward $432 $-1 #
coedge $-1 -1 $-1 $385 $323 $430 $397 forward $386 $-1 #
coedge $-1 -1 $-1 $323 $384 $403 $433 forward $386 $-1 #
loop $-1 -1 $-1 $-1 $323 $434 #
coedge $-1 -1 $-1 $435 $436 $325 $388 forward $437 $-1 #
edge $-1 -1 $-1 $271 2.4492127076447545e-016 $389 1.5707963267948968 $387 $261 forward @7 unknown #
vertex $-1 -1 $-1 $438 $439 #
straight-curve $-1 -1 $-1 -3.5148298167706346e-033 -0.1875 1.2189999999999999 0 0 1 I I #
coedge $-1 -1 $-1 $440 $327 $436 $441 reversed $393 $-1 #
coedge $-1 -1 $-1 $327 $440 $328 $348 reversed $393 $-1 #
loop $-1 -1 $-1 $-1 $327 $363 #
coedge $-1 -1 $-1 $442 $431 $329 $395 reversed $443 $-1 #
edge $-1 -1 $-1 $413 -0.1875 $331 3.5148298167706346e-033 $394 $444 forward @7 unknown #
face $-1 -1 $-1 $347 $330 $29 $-1 $412 reversed single #
edge $-1 -1 $-1 $331 3.5148298167706346e-033 $445 0.1875 $430 $444 forward @7 unknown #
point $-1 -1 $-1 -3.5148298167706346e-033 -0.1875 -1.2189999999999999 #
coedge $-1 -1 $-1 $361 $332 $335 $402 forward $400 $-1 #
loop $-1 -1 $-1 $-1 $332 $411 #
coedge $-1 -1 $-1 $335 $334 $360 $419 forward $337 $-1 #
edge $-1 -1 $-1 $338 0 $420 0.1875 $335 $446 forward @7 unknown #
coedge $-1 -1 $-1 $447 $336 $385 $433 reversed $380 $-1 #
coedge $-1 -1 $-1 $336 $447 $448 $342 reversed $380 $-1 #
face $-1 -1 $-1 $278 $337 $29 $-1 $381 reversed single #
point $-1 -1 $-1 -0.1875 0 -1.2189999999999999 #
straight-curve $-1 -1 $-1 -0.1875 0 1.2190000000000001 0 -1 0 I I #
plane-surface $-1 -1 $-1 0 0 1.2190000000000001 0 0 1 1 0 0 forward_v I I I I #
vertex $-1 -1 $-1 $342 $449 #
straight-curve $-1 -1 $-1 0.1875 0 -1.2190000000000001 0 -1 0 I I #
face $-1 -1 $-1 $450 $400 $29 $-1 $412 reversed single #
plane-surface $-1 -1 $-1 0 0 -1.2190000000000001 0 0 1 1 0 0 forward_v I I I I #
vertex $-1 -1 $-1 $451 $452 #
straight-curve $-1 -1 $-1 0.1875 0 1.2190000000000001 0 1 0 I I #
face $-1 -1 $-1 $453 $437 $29 $-1 $408 forward single #
straight-curve $-1 -1 $-1 0.1875 0.1875 0 0 0 -1 I I #
point $-1 -1 $-1 0.1875 0.1875 1.2190000000000001 #
point $-1 -1 $-1 0.1875 0.1875 -1.2190000000000001 #
edge $-1 -1 $-1 $364 -1.2190000000000001 $420 1.2190000000000001 $360 $454 forward @7 unknown #
vertex $-1 -1 $-1 $362 $455 #
point $-1 -1 $-1 -0.1875 0.1875 1.2190000000000001 #
edge $456 -1 $-1 $457 -3.1415926535897931 $457 3.1415926535897931 $372 $458 forward @7 unknown #
point $-1 -1 $-1 -0.095000000000000001 0 0.050000000000000003 #
convexity-sys-attrib $-1 -1 $-1 $368 $287 #
point $-1 -1 $-1 -0.125 0 0.54600000000000004 #
loop $-1 -1 $-1 $-1 $427 $379 #
coedge $-1 -1 $-1 $448 $459 $382 $428 forward $426 $-1 #
edge $-1 -1 $-1 $389 1.5707963267948968 $260 3.1415926535897931 $427 $261 forward @7 unknown #
coedge $-1 -1 $-1 $460 $383 $459 $461 reversed $432 $-1 #
coedge $-1 -1 $-1 $383 $460 $384 $397 reversed $432 $-1 #
coedge $-1 -1 $-1 $394 $462 $250 $326 reversed $443 $-1 #
loop $-1 -1 $-1 $-1 $383 $450 #
edge $-1 -1 $-1 $445 -0.1875 $338 0 $403 $446 forward @7 unknown #
face $-1 -1 $-1 $396 $386 $29 $-1 $412 reversed single #
coedge $-1 -1 $-1 $436 $387 $462 $438 forward $437 $-1 #
coedge $-1 -1 $-1 $387 $435 $391 $441 forward $437 $-1 #
loop $-1 -1 $-1 $-1 $387 $415 #
edge $-1 -1 $-1 $389 -3.5148298167706346e-033 $463 0.1875 $462 $464 forward @7 unknown #
point $-1 -1 $-1 -3.5148298167706346e-033 -0.1875 1.2190000000000001 #
coedge $-1 -1 $-1 $392 $391 $442 $451 forward $393 $-1 #
edge $-1 -1 $-1 $463 -0.1875 $271 0 $391 $414 forward @7 unknown #
coedge $-1 -1 $-1 $462 $394 $440 $451 reversed $443 $-1 #
loop $-1 -1 $-1 $-1 $431 $453 #
straight-curve $-1 -1 $-1 0 -0.1875 -1.2190000000000001 -1 0 0 I I #
vertex $-1 -1 $-1 $433 $465 #
straight-curve $-1 -1 $-1 -0.1875 0 -1.2190000000000001 0 1 0 I I #
coedge $-1 -1 $-1 $404 $403 $460 $466 reversed $380 $-1 #
coedge $-1 -1 $-1 $459 $427 $404 $342 forward $426 $-1 #
point $-1 -1 $-1 -0.1875 -0.1875 1.2190000000000001 #
face $-1 -1 $-1 $405 $432 $29 $-1 $467 reversed single #
edge $-1 -1 $-1 $463 -1.2190000000000001 $413 1.2190000000000001 $440 $468 forward @7 unknown #
point $-1 -1 $-1 0.1875 -0.1875 -1.2190000000000001 #
face $-1 -1 $-1 $434 $443 $29 $-1 $467 reversed single #
straight-curve $-1 -1 $-1 -0.1875 0.1875 0 0 0 -1 I I #
point $-1 -1 $-1 -0.1875 0.1875 -1.2190000000000001 #
attrib_edge_convexity-kcp-attrib $-1 -1 $469 $-1 $422 1 #
vertex $-1 -1 $-1 $422 $470 #
ellipse-curve $-1 -1 $-1 0 0 -1.8280000000000001 0 0 1 0.1875 0 0 1 I I #
coedge $-1 -1 $-1 $427 $448 $429 $461 forward $426 $-1 #
coedge $-1 -1 $-1 $430 $429 $447 $466 forward $432 $-1 #
edge $-1 -1 $-1 $409 -0.1875 $389 -3.5148298167706346e-033 $429 $464 forward @7 unknown #
coedge $-1 -1 $-1 $431 $442 $435 $438 reversed $443 $-1 #
vertex $-1 -1 $-1 $441 $471 #
straight-curve $-1 -1 $-1 0 -0.1875 1.2190000000000001 1 0 0 I I #
point $-1 -1 $-1 -0.1875 -0.1875 -1.2190000000000001 #
edge $-1 -1 $-1 $409 -1.2190000000000001 $445 1.2190000000000001 $447 $472 forward @7 unknown #
plane-surface $-1 -1 $-1 0 -0.1875 0 0 1 0 0 0 1 forward_v I I I I #
straight-curve $-1 -1 $-1 0.1875 -0.1875 0 0 0 -1 I I #
convexity-sys-attrib $-1 -1 $-1 $456 $422 #
point $-1 -1 $-1 -0.1875 0 -1.8280000000000001 #
point $-1 -1 $-1 0.1875 -0.1875 1.2190000000000001 #
straight-curve $-1 -1 $-1 -0.1875 -0.1875 0 0 0 -1 I I #
End-of-ACIS-data 