105 85 1 0                              
body $-1 $1 $-1 $-1 #
lump $-1 $-1 $2 $0 #
shell $-1 $-1 $-1 $3 $1 #
face $-1 $4 $5 $2 $-1 $6 forward single #
face $-1 $7 $8 $2 $-1 $9 forward single #
loop $-1 $-1 $10 $3 #
plane-surface $-1 0 0 0.578 0 0 1 1 0 0 0 #
face $-1 $11 $12 $2 $-1 $13 reversed single #
loop $-1 $14 $15 $4 #
plane-surface $-1 0 0 0 0 0 1 1 0 0 0 #
coedge $-1 $10 $10 $16 $17 0 $5 $-1 #
face $-1 $18 $19 $2 $-1 $20 forward single #
loop $-1 $-1 $21 $7 #
plane-surface $-1 0 0 -1.86 0 0 1 1 0 0 0 #
loop $-1 $-1 $22 $4 #
coedge $-1 $15 $15 $23 $24 0 $8 $-1 #
coedge $-1 $16 $16 $10 $17 1 $25 $-1 #
edge $-1 $26 $26 $16 $27 0 #
face $-1 $28 $29 $2 $-1 $30 forward single #
loop $-1 $31 $32 $11 #
cone-surface $-1 0 0 -1.9819 0 0 1 -0.125 0 0 1 0 1 0 #
coedge $-1 $21 $21 $33 $34 1 $12 $-1 #
coedge $-1 $22 $22 $35 $36 0 $14 $-1 #
coedge $-1 $23 $23 $15 $24 1 $37 $-1 #
edge $-1 $38 $38 $15 $39 0 #
loop $-1 $40 $16 $41 #
vertex $-1 $17 $42 #
ellipse-curve $-1 0 0 0.578 0 0 1 0.093 0 0 1 #
face $-1 $43 $37 $2 $-1 $44 forward single #
loop $-1 $45 $46 $18 #
cone-surface $-1 0 0 0.081 0 0 1 0.125 0 0 1 0.695421427516054 0.718602141766592 0 #
loop $-1 $-1 $47 $11 #
coedge $-1 $32 $32 $48 $49 0 $19 $-1 #
coedge $-1 $33 $33 $21 $34 0 $50 $-1 #
edge $-1 $51 $51 $33 $52 0 #
coedge $-1 $35 $35 $22 $36 1 $53 $-1 #
edge $-1 $54 $54 $35 $55 0 #
loop $-1 $56 $23 $28 #
vertex $-1 $24 $57 #
ellipse-curve $-1 0 0 0 0 0 -1 0.095 0 0 1 #
loop $-1 $-1 $58 $41 #
face $-1 $59 $25 $2 $-1 $60 forward single #
point $-1 0.093 0 0.578 #
face $-1 $41 $61 $2 $-1 $62 forward single #
cone-surface $-1 0 0 -1.9819 0 0 1 -0.095 0 0 1 0 1 0 #
loop $-1 $-1 $48 $18 #
coedge $-1 $46 $46 $63 $64 0 $29 $-1 #
coedge $-1 $47 $47 $58 $65 0 $31 $-1 #
coedge $-1 $48 $48 $32 $49 1 $45 $-1 #
edge $-1 $66 $66 $48 $67 0 #
loop $-1 $-1 $33 $59 #
vertex $-1 $34 $68 #
ellipse-curve $-1 0 0 -1.86 0 0 1 0.1555 0 0 1 #
loop $-1 $-1 $35 $43 #
vertex $-1 $36 $69 #
ellipse-curve $-1 0 0 0 0 0 1 0.1875 0 0 1 #
loop $-1 $-1 $63 $28 #
point $-1 -0.095 0 0 #
coedge $-1 $58 $58 $47 $65 1 $40 $-1 #
face $-1 $-1 $70 $2 $-1 $71 forward single #
cone-surface $-1 0 0 0.546 0 0 -1 0.125 0 0 1 0.707106781186547 0.707106781186548 0 #
loop $-1 $53 $72 $43 #
cone-surface $-1 0 0 -1.9819 0 0 1 -0.1875 0 0 1 0 1 0 #
coedge $-1 $63 $63 $46 $64 1 $56 $-1 #
edge $-1 $73 $73 $63 $74 0 #
edge $-1 $75 $75 $58 $76 0 #
vertex $-1 $49 $77 #
ellipse-curve $-1 0 0 0.081 0 0 1 0.125 0 0 1 #
point $-1 0.1555 0 -1.86 #
point $-1 0.1875 0 0 #
loop $-1 $50 $78 $59 #
cone-surface $-1 0 0 -1.828 0 0 1 0.1875 0 0 1 0.707106781186547 0.707106781186548 0 #
coedge $-1 $72 $72 $78 $79 0 $61 $-1 #
vertex $-1 $64 $80 #
ellipse-curve $-1 0 0 0.05 0 0 1 0.095 0 0 1 #
vertex $-1 $65 $81 #
ellipse-curve $-1 0 0 0.546 0 0 -1 0.125 0 0 1 #
point $-1 -0.125 0 0.081 #
coedge $-1 $78 $78 $72 $79 1 $70 $-1 #
edge $-1 $82 $82 $78 $83 0 #
point $-1 -0.095 0 0.05 #
point $-1 -0.125 0 0.546 #
vertex $-1 $79 $84 #
ellipse-curve $-1 0 0 -1.828 0 0 1 0.1875 0 0 1 #
point $-1 -0.1875 0 -1.828 #
