600 0 1 0           
112 GICL ACIS Healer - Source: /gicl/data5/repository/NIST/Manfred_Osti/spectrometer/shaft_62/shaft_62.prt.sat - 6 0 18 ACIS 6.0.3 Solaris 24 Sun Apr 14 00:37:13 2002 
1 9.999999999999999547e-07 1.000000000000000036e-10 
body $-1 $1 $-1 $-1 #
lump $-1 $-1 $2 $0 #
shell $-1 $-1 $-1 $3 $-1 $1 #
face $-1 $4 $5 $2 $-1 $6 forward single #
face $-1 $7 $8 $2 $-1 $9 forward single #
loop $-1 $-1 $10 $3 #
plane-surface $-1 0 0 14.68119999999999514 0 0 1 -25.39999999999999858 0 0 forward_v I I I I #
face $-1 $11 $12 $2 $-1 $13 forward single #
loop $-1 $-1 $14 $4 #
cone-surface $-1 0 0 -8.356600000000003803 0 0 1 -25.39999999999997726 0 0 1 I I -0.7071067811865472397 0.7071067811865479058 25.39999999999997726 forward I I I I #
coedge $-1 $15 $15 $16 $17 forward $5 $-1 #
face $-1 $18 $19 $2 $-1 $20 forward single #
loop $-1 $-1 $21 $7 #
cone-surface $-1 0 0 -8.356600000000003803 0 0 1 -25.39999999999997726 0 0 1 I I -0.7071067811865472397 0.7071067811865479058 25.39999999999997726 forward I I I I #
coedge $-1 $16 $22 $23 $24 forward $8 $-1 #
coedge $-1 $10 $10 $25 $26 reversed $5 $-1 #
coedge $-1 $27 $14 $10 $17 reversed $8 $-1 #
edge $-1 $28 -3.534330120725717018e-32 $29 3.141592653589794892 $10 $30 forward 7 unknown #
face $-1 $31 $32 $2 $-1 $33 forward single #
loop $-1 $-1 $34 $11 #
cone-surface $-1 0 0 -50.34025999999999357 0 0 1 -3.174999999999999822 0 0 1 I I 0 1 3.174999999999999822 forward I I I I #
coedge $-1 $25 $35 $27 $36 forward $12 $-1 #
coedge $-1 $14 $27 $37 $38 forward $8 $-1 #
coedge $-1 $35 $25 $14 $24 reversed $12 $-1 #
edge $-1 $39 -7.417759647324795003e-17 $29 0.04525483399593910327 $14 $40 forward 7 unknown #
coedge $-1 $23 $21 $15 $26 forward $12 $-1 #
edge $-1 $28 0 $29 3.14159265358979134 $15 $41 forward 7 unknown #
coedge $-1 $22 $16 $21 $36 reversed $8 $-1 #
vertex $-1 $26 $42 #
vertex $-1 $26 $43 #
ellipse-curve $-1 -8.812395257962179547e-17 -1.762479051592435909e-16 14.68119999999999514 0 0 1 2.362199999999996525 4.655244180591649353e-16 0 1 I I #
face $-1 $44 $45 $2 $-1 $46 forward single #
loop $-1 $-1 $47 $18 #
cone-surface $-1 0 0 -50.34025999999999357 0 0 1 -3.174999999999999822 0 0 1 I I 0 1 3.174999999999999822 forward I I I I #
coedge $-1 $48 $49 $35 $50 forward $19 $-1 #
coedge $-1 $21 $23 $34 $50 reversed $12 $-1 #
edge $-1 $51 -7.417759647324924425e-17 $28 0.04525483399593910327 $27 $52 forward 7 unknown #
coedge $-1 $53 $54 $22 $38 reversed $32 $-1 #
edge $-1 $51 -2.347654749247231964e-31 $39 3.141592653589792672 $37 $55 forward 7 unknown #
vertex $-1 $38 $56 #
straight-curve $-1 -3.174999999999997158 -9.237524482320891353e-15 13.86839999999999407 17.96051224213830366 9.861623469639181315e-14 17.96051224213830366 I I #
ellipse-curve $-1 0 0 14.68119999999999514 0 0 -1 2.362199999999996525 2.89276512899921295e-16 0 1 I I #
point $-1 2.362199999999996525 2.89276512899921295e-16 14.68119999999999514 #
point $-1 -2.362199999999996525 -4.774663151831112995e-15 14.68119999999999514 #
face $-1 $57 $58 $2 $-1 $59 forward single #
loop $-1 $-1 $60 $31 #
cone-surface $-1 0 0 24.17656666666664833 0 0 -1 -24.5806451612902066 0 0 1 I I -0.6954214275160539582 0.7186021417665924282 24.5806451612902066 forward I I I I #
coedge $-1 $54 $53 $61 $62 forward $32 $-1 #
coedge $-1 $63 $34 $54 $64 forward $19 $-1 #
coedge $-1 $34 $63 $53 $65 reversed $19 $-1 #
edge $-1 $51 4.695309498494463927e-31 $39 3.14159265358979356 $34 $66 forward 7 unknown #
vertex $-1 $65 $67 #
straight-curve $-1 3.174999999999997158 3.888125173386044245e-16 13.86839999999999407 -17.96051224213830366 -2.199455740962721536e-15 17.96051224213830366 I I #
coedge $-1 $47 $37 $49 $65 forward $32 $-1 #
coedge $-1 $37 $47 $48 $64 reversed $32 $-1 #
ellipse-curve $-1 -8.812395257962179547e-17 -9.693634783758397255e-16 13.86839999999999407 0 0 1 3.174999999999997158 1.35817599571444415e-15 0 1 I I #
point $-1 -3.174999999999999822 -7.776250346772095392e-16 13.86839999999999407 #
face $-1 $68 $69 $2 $-1 $70 forward single #
loop $-1 $-1 $71 $44 #
cone-surface $-1 0 0 -50.34025999999999357 0 0 1 -2.412999999999999812 0 0 1 I I 0 1 2.412999999999999812 forward I I I I #
coedge $-1 $72 $73 $74 $75 forward $45 $-1 #
coedge $-1 $73 $72 $47 $62 reversed $45 $-1 #
edge $-1 $76 0 $77 3.141592653589793116 $47 $78 forward 7 unknown #
coedge $-1 $49 $48 $79 $80 reversed $19 $-1 #
edge $-1 $39 0 $77 0.4649999999999997469 $54 $81 forward 7 unknown #
edge $-1 $51 0 $76 0.4649999999999998024 $53 $82 forward 7 unknown #
ellipse-curve $-1 8.812395257962179547e-17 -1.409983241273948727e-15 13.86839999999999407 0 0 -1 3.174999999999997158 1.798795758612553349e-15 0 1 I I #
point $-1 3.174999999999999822 3.888125173386047696e-16 13.86839999999999407 #
face $-1 $83 $84 $2 $-1 $85 forward single #
loop $-1 $86 $87 $57 #
plane-surface $-1 0 0 0 0 0 1 -25.39999999999999858 0 0 forward_v I I I I #
coedge $-1 $88 $89 $90 $91 forward $58 $-1 #
coedge $-1 $61 $60 $92 $93 reversed $45 $-1 #
coedge $-1 $60 $61 $94 $95 forward $45 $-1 #
coedge $-1 $89 $88 $60 $75 reversed $58 $-1 #
edge $-1 $96 -6.774165366018086035e-32 $97 3.141592653589793116 $60 $98 forward 7 unknown #
vertex $-1 $65 $99 #
vertex $-1 $64 $100 #
ellipse-curve $-1 -1.762479051592435909e-16 -3.524958103184871819e-16 2.057400000000001672 0 0 1 3.175000000000002487 7.413083276570925924e-16 0 1 I I #
coedge $-1 $92 $94 $63 $80 forward $101 $-1 #
edge $-1 $76 -4.695309498494456045e-31 $77 3.141592653589794448 $63 $102 forward 7 unknown #
straight-curve $-1 -3.174999999999999822 -7.776250346772095392e-16 13.86839999999999407 0 0 -25.39999999999999858 I I #
straight-curve $-1 3.174999999999999822 3.888125173386047696e-16 13.86839999999999407 0 0 -25.39999999999999858 I I #
face $-1 $103 $101 $2 $-1 $104 forward single #
loop $-1 $-1 $105 $68 #
cone-surface $-1 0 0 -50.34025999999999357 0 0 1 -2.412999999999999812 0 0 1 I I 0 1 2.412999999999999812 forward I I I I #
loop $-1 $-1 $106 $57 #
coedge $-1 $90 $90 $107 $108 forward $69 $-1 #
coedge $-1 $74 $71 $109 $110 reversed $58 $-1 #
coedge $-1 $71 $74 $111 $112 forward $58 $-1 #
coedge $-1 $87 $87 $71 $91 reversed $69 $-1 #
edge $-1 $113 1.224606353822377258e-16 $114 3.141592653589793116 $71 $115 forward 7 unknown #
coedge $-1 $116 $79 $72 $93 forward $101 $-1 #
edge $-1 $77 5.21448099979654694e-33 $97 0.04313930922024625247 $72 $117 forward 7 unknown #
coedge $-1 $79 $116 $73 $95 reversed $101 $-1 #
edge $-1 $76 1.483352621083690673e-16 $96 0.04313930922024618309 $73 $118 forward 7 unknown #
vertex $-1 $95 $119 #
vertex $-1 $93 $120 #
ellipse-curve $-1 0 -2.643718577388653617e-16 1.269999999999995355 0 0 1 2.412999999999999812 5.598693709162050241e-16 0 1 I I #
point $-1 3.174999999999999822 3.888125173386047696e-16 2.057399999999999007 #
point $-1 -3.175000000000002487 0 2.057400000000001672 #
loop $-1 $-1 $79 $83 #
ellipse-curve $-1 -8.812395257962179547e-17 -2.20309881449054501e-15 2.057400000000001672 0 0 -1 3.175000000000002487 2.59191133182915042e-15 0 1 I I #
face $-1 $121 $122 $2 $-1 $123 forward single #
cone-surface $-1 0 0 24.17656666666664833 0 0 -1 -24.5806451612902066 0 0 1 I I -0.6954214275160539582 0.7186021417665924282 24.5806451612902066 forward I I I I #
coedge $-1 $109 $111 $116 $124 forward $84 $-1 #
coedge $-1 $125 $125 $126 $127 forward $86 $-1 #
coedge $-1 $111 $109 $87 $108 reversed $84 $-1 #
edge $-1 $113 -1.224606353822377258e-16 $114 3.141592653589793116 $87 $128 forward 7 unknown #
coedge $-1 $107 $105 $88 $110 forward $84 $-1 #
edge $-1 $97 0 $114 0.04999999999999982236 $88 $129 forward 7 unknown #
coedge $-1 $105 $107 $89 $112 reversed $84 $-1 #
edge $-1 $96 0 $113 0.04999999999999982236 $89 $130 forward 7 unknown #
vertex $-1 $112 $131 #
vertex $-1 $110 $132 #
ellipse-curve $-1 0 0 0 0 0 1 2.412999999999999812 0 0 1 I I #
coedge $-1 $94 $92 $105 $124 reversed $101 $-1 #
straight-curve $-1 -3.175000000000002487 -7.776250346772107225e-16 2.057400000000001672 17.66370425890774243 4.326216893499571655e-15 -18.25249440087146624 I I #
straight-curve $-1 3.175000000000002487 3.888125173386053613e-16 2.057400000000001672 -17.66370425890774243 -2.163108446749785827e-15 -18.25249440087146624 I I #
point $-1 2.413000000000002032 2.954975131773399582e-16 1.269999999999995355 #
point $-1 -2.412999999999999812 -5.909950263546792262e-16 1.269999999999995355 #
face $-1 $133 $134 $2 $-1 $135 forward single #
loop $-1 $-1 $136 $103 #
cone-surface $-1 0 0 -50.34025999999999357 0 0 1 -4.762499999999999289 0 0 1 I I 0 1 4.762499999999999289 forward I I I I #
edge $-1 $96 0 $97 3.141592653589793116 $116 $137 forward 7 unknown #
coedge $-1 $106 $106 $138 $139 reversed $86 $-1 #
coedge $-1 $140 $141 $106 $127 reversed $122 $-1 #
edge $-1 $142 0 $143 3.141592653589793116 $106 $144 forward 7 unknown #
ellipse-curve $-1 0 0 0 0 0 -1 2.412999999999999812 0 0 1 I I #
straight-curve $-1 -2.412999999999999812 -5.909950263546792262e-16 1.269999999999995355 0 0 -25.39999999999999858 I I #
straight-curve $-1 2.412999999999999812 2.954975131773396131e-16 1.269999999999995355 0 0 -25.39999999999999858 I I #
point $-1 2.412999999999999812 2.954975131773396131e-16 0 #
point $-1 -2.412999999999999812 0 0 #
face $-1 $145 $146 $2 $-1 $147 forward single #
loop $-1 $-1 $148 $121 #
cone-surface $-1 0 0 -25.79370000000000474 0 0 -1 -25.39999999999997726 0 0 1 I I -0.7071067811865472397 0.7071067811865479058 25.39999999999997726 forward I I I I #
coedge $-1 $141 $140 $149 $150 forward $122 $-1 #
ellipse-curve $-1 0 -8.812395257962179547e-17 1.269999999999995355 0 0 -1 2.412999999999999812 3.836214657569614332e-16 0 1 I I #
coedge $-1 $151 $152 $125 $139 forward $153 $-1 #
edge $-1 $142 0 $143 3.141592653589793116 $125 $154 forward 7 unknown #
coedge $-1 $136 $126 $152 $155 forward $122 $-1 #
coedge $-1 $126 $136 $151 $156 reversed $122 $-1 #
vertex $-1 $139 $157 #
vertex $-1 $139 $158 #
ellipse-curve $-1 1.762479051592435909e-16 -7.049916206369743637e-16 0 0 0 1 4.762499999999999289 1.288210396644881494e-15 0 1 I I #
face $-1 $159 $153 $2 $-1 $160 forward single #
loop $-1 $-1 $161 $133 #
cone-surface $-1 0 0 -25.79370000000000474 0 0 -1 -25.39999999999997726 0 0 1 I I -0.7071067811865472397 0.7071067811865479058 25.39999999999997726 forward I I I I #
coedge $-1 $149 $162 $163 $164 forward $134 $-1 #
coedge $-1 $165 $148 $136 $150 reversed $134 $-1 #
edge $-1 $166 1.739003517960912322e-32 $167 3.141592653589793116 $136 $168 forward 7 unknown #
coedge $-1 $169 $138 $141 $156 forward $153 $-1 #
coedge $-1 $138 $169 $140 $155 reversed $153 $-1 #
loop $-1 $-1 $138 $145 #
ellipse-curve $-1 -1.762479051592435909e-16 3.524958103184871819e-16 0 0 0 -1 4.762499999999999289 2.307229656894199479e-16 0 1 I I #
edge $-1 $142 0 $166 1.828000000000000069 $140 $170 forward 7 unknown #
edge $-1 $143 0 $167 1.828000000000000069 $141 $171 forward 7 unknown #
point $-1 4.762499999999999289 5.832187760079071298e-16 0 #
point $-1 -4.762499999999999289 -1.16643755201581426e-15 0 #
face $-1 $-1 $172 $2 $-1 $173 reversed single #
cone-surface $-1 0 0 -50.34025999999999357 0 0 1 -4.762499999999999289 0 0 1 I I 0 1 4.762499999999999289 forward I I I I #
coedge $-1 $174 $175 $165 $176 forward $146 $-1 #
coedge $-1 $148 $165 $177 $178 forward $134 $-1 #
coedge $-1 $175 $174 $148 $164 reversed $146 $-1 #
edge $-1 $179 0 $167 0.04525483399593906858 $148 $180 forward 7 unknown #
coedge $-1 $162 $149 $161 $176 reversed $134 $-1 #
vertex $-1 $155 $181 #
vertex $-1 $156 $182 #
ellipse-curve $-1 0 1.762479051592435909e-16 -46.43120000000000402 0 0 1 4.762499999999996625 4.06970870848663243e-16 0 1 I I #
coedge $-1 $152 $151 $174 $183 reversed $153 $-1 #
straight-curve $-1 4.762499999999999289 5.832187760079071298e-16 0 0 0 -25.39999999999999858 I I #
straight-curve $-1 -4.762499999999999289 -1.16643755201581426e-15 0 0 0 -25.39999999999999858 I I #
loop $-1 $-1 $177 $159 #
plane-surface $-1 0 0 -47.24399999999999977 0 0 1 -25.39999999999999858 0 0 forward_v I I I I #
coedge $-1 $163 $161 $169 $183 forward $146 $-1 #
coedge $-1 $161 $163 $184 $185 reversed $146 $-1 #
edge $-1 $186 0 $166 0.04525483399593906858 $165 $187 forward 7 unknown #
coedge $-1 $184 $184 $162 $178 reversed $172 $-1 #
edge $-1 $186 0 $179 3.141592653589793116 $177 $188 forward 7 unknown #
vertex $-1 $185 $189 #
straight-curve $-1 -3.949700000000001765 -9.673655431384485923e-16 -47.24399999999999977 -17.96051224213830366 -4.398911481925445438e-15 17.96051224213830366 I I #
point $-1 4.762499999999999289 5.832187760079071298e-16 -46.43119999999999692 #
point $-1 -4.762499999999999289 -1.16643755201581426e-15 -46.43119999999999692 #
edge $-1 $166 0 $167 3.141592653589793116 $169 $190 forward 7 unknown #
coedge $-1 $177 $177 $175 $185 forward $172 $-1 #
edge $-1 $186 0 $179 3.141592653589793116 $184 $191 forward 7 unknown #
vertex $-1 $185 $192 #
straight-curve $-1 3.949700000000001765 4.836827715692242961e-16 -47.24399999999999977 17.96051224213830366 2.199455740962722719e-15 17.96051224213830366 I I #
ellipse-curve $-1 0 -3.524958103184871819e-16 -47.24399999999999977 0 0 1 3.949700000000001765 8.36178581887711478e-16 0 1 I I #
point $-1 -3.949700000000001765 -9.673655431384485923e-16 -47.24399999999999977 #
ellipse-curve $-1 -1.762479051592435909e-16 -1.762479051592435909e-16 -46.43120000000000402 0 0 -1 4.762499999999996625 7.594666811671503756e-16 0 1 I I #
ellipse-curve $-1 -1.762479051592435909e-16 -3.524958103184871819e-16 -47.24399999999999977 0 0 -1 3.949700000000001765 8.36178581887711478e-16 0 1 I I #
point $-1 3.949700000000001765 4.836827715692242961e-16 -47.24399999999999977 #
End-of-ACIS-data 