600 0 1 0           
122 GICL Pro/E ACIS Translator - Source: f:/data5/repository/PTC/V20/prod_appl/assoc_demo/mfg_process/tools/chuck3.prt.2 - 6 0 13 ACIS 6.0.3 NT 24 Thu Apr 04 13:16:11 2002 
1 9.9999999999999995e-007 1e-010 
body $-1 $1 $-1 $2 #
lump $-1 $-1 $3 $0 #
transform $-1 1 0 0 0 1 0 0 0 1 0 0 0 25.399999999999999 no_rotate no_reflect no_shear #
shell $-1 $-1 $-1 $4 $-1 $1 #
face $-1 $5 $6 $3 $-1 $7 forward single #
face $-1 $8 $9 $3 $-1 $10 forward single #
loop $-1 $11 $12 $4 #
plane-surface $-1 0 0 0.6399999999999999 0 0 1 -1 0 0 forward_v I I I I #
face $-1 $13 $14 $3 $-1 $15 forward single #
loop $-1 $-1 $16 $5 #
cone-surface $-1 0 0 0.29161942452088141 0 0 1 -1.0742466747591075 0 0 1 I I -0.73194857890861675 0.68135987395329967 1.0742466747591075 forward I I I I #
loop $-1 $-1 $17 $4 #
coedge $-1 $18 $18 $19 $20 forward $6 $-1 #
face $-1 $21 $22 $3 $-1 $23 forward single #
loop $-1 $-1 $24 $8 #
cone-surface $-1 0 0 -1.7224999999999999 0 0 1 -0.81323733191455094 0 0 1 I I 0 1 0.81323733191455094 forward I I I I #
coedge $-1 $25 $26 $27 $28 forward $9 $-1 #
coedge $-1 $29 $29 $30 $31 forward $11 $-1 #
coedge $-1 $12 $12 $32 $33 reversed $6 $-1 #
coedge $-1 $26 $25 $12 $20 reversed $9 $-1 #
edge $-1 $34 0 $35 3.1415926535897931 $12 $36 forward 7 unknown #
face $-1 $37 $38 $3 $-1 $39 reversed single #
loop $-1 $-1 $40 $13 #
cone-surface $-1 0 0 -1.7224999999999999 0 0 1 -0.81323733191455094 0 0 1 I I 0 1 0.81323733191455094 forward I I I I #
coedge $-1 $41 $42 $43 $44 forward $14 $-1 #
coedge $-1 $19 $16 $45 $46 reversed $9 $-1 #
coedge $-1 $16 $19 $47 $48 forward $9 $-1 #
coedge $-1 $49 $50 $16 $28 reversed $14 $-1 #
edge $-1 $51 -1.8637422301920546e-032 $52 3.1415926535897931 $16 $53 forward 7 unknown #
coedge $-1 $17 $17 $54 $55 forward $11 $-1 #
coedge $-1 $56 $57 $17 $31 reversed $58 $-1 #
edge $-1 $59 0 $60 3.1415926535897931 $17 $61 forward 7 unknown #
coedge $-1 $45 $47 $18 $33 forward $62 $-1 #
edge $-1 $34 0 $35 3.1415926535897931 $18 $63 forward 7 unknown #
vertex $-1 $33 $64 #
vertex $-1 $33 $65 #
ellipse-curve $-1 0 -2.7755575615628914e-017 0.6399999999999999 -3.1720657846433045e-016 -5.1422820823798485e-032 1 0.69999999999999996 1.1347802038319531e-016 2.2204460492503131e-016 1 I I #
face $-1 $66 $67 $3 $-1 $68 reversed single #
loop $-1 $-1 $69 $21 #
cone-surface $-1 0 0 -0.14000000000000001 1 0 0 0 -0.14000000000000001 0 1 I I 0 1 0.14000000000000001 forward I I I I #
coedge $-1 $70 $71 $69 $72 forward $22 $-1 #
coedge $-1 $50 $24 $73 $74 forward $14 $-1 #
coedge $-1 $24 $75 $76 $77 forward $14 $-1 #
coedge $-1 $71 $78 $24 $44 reversed $22 $-1 #
edge $-1 $79 0 $80 0.0079510590070954734 $24 $81 forward 7 unknown #
coedge $-1 $82 $32 $25 $46 forward $62 $-1 #
edge $-1 $35 0 $52 0.15470667636706881 $25 $83 forward 7 unknown #
coedge $-1 $32 $82 $26 $48 reversed $62 $-1 #
edge $-1 $34 0 $51 0.15470667636706831 $26 $84 forward 7 unknown #
coedge $-1 $75 $27 $70 $85 forward $14 $-1 #
coedge $-1 $27 $41 $86 $87 reversed $14 $-1 #
vertex $-1 $48 $88 #
vertex $-1 $46 $89 #
ellipse-curve $-1 0 2.7755575615628914e-017 0.53458907849079984 0 0 1 0.81323733191455094 7.1833984767182752e-017 0 1 I I #
coedge $-1 $90 $91 $29 $55 reversed $92 $-1 #
edge $-1 $60 0 $59 3.1415926535897931 $29 $93 forward 7 unknown #
coedge $-1 $94 $30 $91 $95 forward $58 $-1 #
coedge $-1 $30 $96 $90 $97 reversed $58 $-1 #
loop $-1 $-1 $57 $98 #
vertex $-1 $55 $99 #
vertex $-1 $55 $100 #
ellipse-curve $-1 0 0 0.64000000000000012 -1.1842378929335002e-015 0 -1 0.1875 0 -2.2204460492503131e-016 1 I I #
loop $-1 $-1 $32 $101 #
ellipse-curve $-1 -2.7755575615628914e-017 -5.5511151231257827e-017 0.6399999999999999 3.1720657846433045e-016 6.4000322501429411e-032 -1 0.69999999999999996 1.4123359599882422e-016 2.2204460492503131e-016 1 I I #
point $-1 0.69999999999999996 8.5722444767566393e-017 0.64000000000000012 #
point $-1 -0.69999999999999996 -1.7144488953513279e-016 0.64000000000000012 #
face $-1 $98 $92 $3 $-1 $102 reversed single #
loop $-1 $-1 $103 $37 #
cone-surface $-1 0 0 -0.14000000000000001 1 0 0 0 -0.14000000000000001 0 1 I I 0 1 0.14000000000000001 forward I I I I #
coedge $-1 $104 $105 $40 $72 reversed $38 $-1 #
coedge $-1 $106 $40 $49 $85 reversed $22 $-1 #
coedge $-1 $40 $43 $107 $108 forward $22 $-1 #
edge $-1 $109 0 $110 1 $40 $111 forward 7 unknown #
coedge $-1 $112 $112 $41 $74 reversed $113 $-1 #
edge $-1 $80 0 $114 3.1415926535897931 $41 $115 forward 7 unknown #
coedge $-1 $42 $49 $105 $116 forward $14 $-1 #
coedge $-1 $103 $107 $42 $77 reversed $67 $-1 #
edge $-1 $117 0 $79 1 $42 $118 forward 7 unknown #
coedge $-1 $43 $86 $112 $119 reversed $22 $-1 #
vertex $-1 $77 $120 #
vertex $-1 $74 $121 #
straight-curve $-1 0.81323733191455094 9.9589560382811665e-017 -0.28000000000000025 0 0 -1 I I #
coedge $-1 $47 $45 $106 $122 reversed $62 $-1 #
straight-curve $-1 -0.69999999999999996 -1.7144488953513279e-016 0.64000000000000012 -0.7319485789086172 -1.7926977608055048e-016 -0.68135987395329922 I I #
straight-curve $-1 0.69999999999999996 8.5722444767566393e-017 0.64000000000000012 0.7319485789086172 8.9634888040275238e-017 -0.68135987395329922 I I #
edge $-1 $51 -7.7715611723760958e-016 $110 0.53458907849080006 $49 $123 forward 7 unknown #
coedge $-1 $78 $106 $50 $87 forward $22 $-1 #
edge $-1 $52 0 $114 0.82254013749789556 $50 $124 forward 7 unknown #
point $-1 0.81323733191455094 9.9589560382811653e-017 0.53458907849080062 #
point $-1 -0.81323733191455094 -1.9917912076562333e-016 0.53458907849079984 #
coedge $-1 $125 $54 $57 $97 forward $92 $-1 #
coedge $-1 $54 $126 $56 $95 reversed $92 $-1 #
loop $-1 $-1 $127 $66 #
ellipse-curve $-1 0 0 0.64000000000000012 1.1842378929335002e-015 0 -1 -0.1875 0 -2.2204460492503131e-016 1 I I #
coedge $-1 $128 $56 $129 $130 forward $58 $-1 #
edge $-1 $59 2.2204460492503131e-016 $131 0.64000000000000012 $91 $132 forward 7 unknown #
coedge $-1 $57 $133 $134 $135 forward $58 $-1 #
edge $-1 $60 2.2204460492503131e-016 $136 2.1304029454646223 $90 $137 forward 7 unknown #
face $-1 $138 $58 $3 $-1 $139 reversed single #
point $-1 0.1875 0 0.6399999999999999 #
point $-1 -0.1875 0 0.6399999999999999 #
face $-1 $-1 $62 $3 $-1 $140 forward single #
cone-surface $-1 0 0 0.64000000000000012 0 0 -1 -0.1875 0 0 1 I I 0 1 0.1875 forward I I I I #
coedge $-1 $141 $76 $142 $143 forward $67 $-1 #
coedge $-1 $129 $69 $144 $145 forward $38 $-1 #
coedge $-1 $69 $142 $75 $116 reversed $38 $-1 #
coedge $-1 $86 $70 $82 $122 forward $22 $-1 #
coedge $-1 $76 $144 $71 $108 reversed $67 $-1 #
edge $-1 $79 0 $109 1 $71 $146 forward 7 unknown #
vertex $-1 $108 $147 #
vertex $-1 $116 $148 #
intcurve-curve $-1 forward { surfintcur full nurbs 3 open 8 
	0 3 0.14264654367250121 1 0.28575583826071949 1 0.42872478903744893 1 0.57135892063360882 1 
	0.71441144432536885 1 0.85747958479599906 1 1 3 
	0.80109609786810065 -0.13999999999999987 -0.14000000000000012 1 
	0.80110810241308161 -0.14002036351063127 -0.12956818532565098 0.99999999999999989 
	0.80148761015541159 -0.13774838027705424 -0.10910783306026481 1.0000000000000002 
	0.80327646389164464 -0.12716711636352263 -0.078520016166503823 1.0000000000000002 
	0.805832661715145 -0.11007024126006472 -0.051656101792804436 1 
	0.8085576086726517 -0.088263393381534411 -0.029846283138924019 1.0000000000000002 
	0.8111106099403913 -0.061174780290131132 -0.012676896976234399 0.99999999999999978 
	0.81285726041863815 -0.03066200053118379 -0.0022199579984083979 1.0000000000000004 
	0.81322825688355549 -0.010333949971810596 3.038847766873802e-005 0.99999999999999978 
	0.81323733191455094 9.9589560382811665e-017 -2.2204460492503131e-016 1 
	0.001 
	cone 0 0 -0.14000000000000001 1 0 0 0 -0.14000000000000001 0 1 I I 0 1 0.14000000000000001 forward I I I I 
	cone 0 0 -1.7224999999999999 0 0 1 -0.81323733191455094 0 0 1 I I 0 1 0.81323733191455094 forward I I I I 
	nullbs 
	nullbs 
	I I 
	0 
	0 
	0 
	} I I #
coedge $-1 $73 $73 $78 $119 forward $113 $-1 #
loop $-1 $149 $112 $150 #
vertex $-1 $87 $151 #
ellipse-curve $-1 0 0 -0.28795105900709572 0 0 1 0.81323733191455094 0 0 1 I I #
edge $-1 $110 0 $117 1 $75 $152 forward 7 unknown #
vertex $-1 $77 $153 #
intcurve-curve $-1 forward { surfintcur full nurbs 3 open 8 
	0 3 0.14264697691262584 1 0.2857571772251839 1 0.42872629178045651 1 0.57136124483284201 1 
	0.71441468250280293 1 0.85748234333980511 1 1 3 
	0.80109609786810065 0.14000000000000007 -0.14000000000000035 1 
	0.80110809603432453 0.14002041403610088 -0.15043197508690209 1.0000000000000002 
	0.80148761118080902 0.137748384641532 -0.17089270694031106 0.99999999999999978 
	0.80327664870659476 0.12716597480126471 -0.20148251200497377 1.0000000000000002 
	0.8058328689940788 0.11006876481819412 -0.22834575068549426 1 
	0.80855796698651128 0.088260318575291416 -0.25015641111586739 0.99999999999999989 
	0.81111104672277345 0.061169350727769072 -0.26732583683777428 0.99999999999999989 
	0.81285740897310343 0.030656673079885805 -0.27778090023718555 1 
	0.81322830648189248 0.010331714802099382 -0.28003065147859713 1 
	0.81323733191455094 9.9589560382811665e-017 -0.28000000000000025 1 
	0.001 
	cone 0 0 -0.14000000000000001 1 0 0 0 -0.14000000000000001 0 1 I I 0 1 0.14000000000000001 forward I I I I 
	cone 0 0 -1.7224999999999999 0 0 1 -0.81323733191455094 0 0 1 I I 0 1 0.81323733191455094 forward I I I I 
	nullbs 
	nullbs 
	I I 
	0 
	0 
	0 
	} I I #
edge $-1 $80 0 $114 3.1415926535897931 $112 $154 forward 7 unknown #
point $-1 0.81323733191455094 9.9589560382811665e-017 -0.28000000000000025 #
point $-1 0.81323733191455094 0 -0.28795105900709572 #
edge $-1 $51 0 $52 3.1415926535897931 $82 $155 forward 7 unknown #
straight-curve $-1 0.81323733191455094 9.9589560382811665e-017 0.53458907849079984 0 0 -1 I I #
straight-curve $-1 -0.81323733191455094 -1.9917912076562333e-016 0.53458907849079984 0 0 -1 I I #
coedge $-1 $127 $90 $156 $157 forward $92 $-1 #
coedge $-1 $91 $158 $159 $160 forward $92 $-1 #
coedge $-1 $158 $125 $133 $161 reversed $92 $-1 #
coedge $-1 $133 $94 $162 $163 forward $58 $-1 #
coedge $-1 $159 $104 $94 $130 reversed $38 $-1 #
edge $-1 $131 0 $164 1 $94 $165 forward 7 unknown #
vertex $-1 $95 $166 #
straight-curve $-1 0.1875 2.2961369134169574e-017 0.64000000000000012 0 0 -1 I I #
coedge $-1 $96 $128 $127 $161 forward $58 $-1 #
coedge $-1 $156 $156 $96 $135 reversed $167 $-1 #
edge $-1 $168 0 $136 1 $96 $169 forward 7 unknown #
vertex $-1 $157 $170 #
straight-curve $-1 -0.1875 0 0.64000000000000012 0 0 -1 I I #
face $-1 $171 $172 $3 $-1 $173 reversed single #
cone-surface $-1 0 0 0.64000000000000012 0 0 -1 -0.1875 0 0 1 I I 0 1 0.1875 forward I I I I #
cone-surface $-1 0 0 0.29161942452088141 0 0 1 -1.0742466747591075 0 0 1 I I -0.73194857890861675 0.68135987395329967 1.0742466747591075 forward I I I I #
coedge $-1 $162 $103 $158 $174 reversed $67 $-1 #
coedge $-1 $105 $159 $103 $143 reversed $38 $-1 #
edge $-1 $117 0 $175 0.67637140103543647 $103 $176 forward 7 unknown #
coedge $-1 $107 $162 $104 $145 reversed $67 $-1 #
edge $-1 $109 0 $164 0.67637140103543647 $144 $177 forward 7 unknown #
intcurve-curve $-1 forward { surfintcur full nurbs 3 open 8 
	0 3 0.1425569669906307 1 0.28563635043266183 1 0.42866412043057067 1 0.57129087076821639 1 
	0.71428000350865684 1 0.85737943203596123 1 1 3 
	0.81323733191455094 9.9589560382811665e-017 -0.28000000000000025 1 
	0.81322768231672227 -0.010362444950590393 -0.28002743851244388 1 
	0.81285559553077125 -0.030729091351114443 -0.27777062869998709 1.0000000000000002 
	0.8111036001565699 -0.061261703776518614 -0.26727899854104853 1 
	0.8085544348130379 -0.088287530723935442 -0.25012817616362526 1 
	0.80583105207202776 -0.11008347859473014 -0.22833234543003295 1 
	0.80327090175771121 -0.12720209395713775 -0.20141229196713162 1 
	0.80148652790933939 -0.13775422387490008 -0.17084586630087603 1 
	0.80110771434940498 -0.14002227060248995 -0.15041199434314356 0.99999999999999989 
	0.80109609786810065 -0.13999999999999987 -0.14000000000000012 1 
	0.001 
	cone 0 0 -0.14000000000000001 1 0 0 0 -0.14000000000000001 0 1 I I 0 1 0.14000000000000001 forward I I I I 
	cone 0 0 -1.7224999999999999 0 0 1 -0.81323733191455094 0 0 1 I I 0 1 0.81323733191455094 forward I I I I 
	nullbs 
	nullbs 
	I I 
	0 
	0 
	0 
	} I I #
point $-1 0.80109609786810065 -0.13999999999999987 -0.14000000000000012 #
point $-1 0.81323733191455094 9.9589560382811665e-017 -2.2204460492503131e-016 #
loop $-1 $-1 $178 $150 #
face $-1 $179 $113 $3 $-1 $180 reversed single #
point $-1 -0.81323733191455094 0 -0.28795105900709572 #
intcurve-curve $-1 forward { surfintcur full nurbs 3 open 8 
	0 3 0.142553867214117 1 0.28563296133661048 1 0.42866148711143559 1 0.57128893114232293 1 
	0.71427811197946511 1 0.85737859995980281 1 1 3 
	0.81323733191455094 9.9589560382811665e-017 -2.2204460492503131e-016 1 
	0.81322774250588792 0.010359875917387523 2.7762632260402633e-005 1.0000000000000002 
	0.81285577294456779 0.030722981361380793 -0.0022283409612529319 0.99999999999999978 
	0.81110404709655692 0.061256206967231136 -0.012718205743927777 1 
	0.80855484338278338 0.088283951596961813 -0.029868774762226519 1.0000000000000002 
	0.80583132524283985 0.1100815286269678 -0.051665232486821873 0.99999999999999956 
	0.80327116218848327 0.12720048045111687 -0.078584223926524727 1.0000000000000002 
	0.80148654851364598 0.13775411897380471 -0.10915285437164246 0.99999999999999989 
	0.80110771387711333 0.1400222921261863 -0.12958754144811507 1 
	0.80109609786810065 0.14000000000000007 -0.14000000000000035 1 
	0.001 
	cone 0 0 -0.14000000000000001 1 0 0 0 -0.14000000000000001 0 1 I I 0 1 0.14000000000000001 forward I I I I 
	cone 0 0 -1.7224999999999999 0 0 1 -0.81323733191455094 0 0 1 I I 0 1 0.81323733191455094 forward I I I I 
	nullbs 
	nullbs 
	I I 
	0 
	0 
	0 
	} I I #
point $-1 0.80109609786810065 0.14000000000000007 -0.14000000000000035 #
ellipse-curve $-1 0 0 -0.28795105900709572 0 0 -1 0.81323733191455094 0 0 1 I I #
ellipse-curve $-1 0 -2.7755575615628914e-017 0.53458907849079984 0 0 -1 0.81323733191455094 1.2734513599844057e-016 0 1 I I #
coedge $-1 $134 $134 $125 $157 reversed $167 $-1 #
edge $-1 $136 0 $168 1 $125 $181 forward 7 unknown #
coedge $-1 $126 $127 $141 $174 forward $92 $-1 #
coedge $-1 $142 $129 $126 $160 reversed $38 $-1 #
edge $-1 $175 0 $131 1 $126 $182 forward 7 unknown #
edge $-1 $183 3.3306690738754696e-016 $168 1.2104029454646208 $127 $184 forward 7 unknown #
coedge $-1 $144 $141 $128 $163 reversed $67 $-1 #
edge $-1 $164 0 $183 1 $128 $185 forward 7 unknown #
vertex $-1 $163 $186 #
intcurve-curve $-1 forward { surfintcur full nurbs 3 open 9 
	0 3 0.12379207030038841 1 0.2488743085728265 1 0.37484446797440557 1 0.50104473061017041 1 
	0.6272811349649754 1 0.75303765347681706 1 0.87768063670864138 1 1 3 
	0.1875 2.2961369134169574e-017 0 1 
	0.18755712726685295 -0.0085637124699202132 0.00010008078889925714 0.99999999999999989 
	0.1863377411563778 -0.02592013577774736 -0.0015616721067662329 1 
	0.18043877540210382 -0.053609580294166313 -0.0095336091114158611 1 
	0.17044530023115609 -0.079634545517662428 -0.023631184863780096 1.0000000000000002 
	0.15813931022278446 -0.10166828282546694 -0.042320705343704107 1 
	0.14502917154255759 -0.11938796176994838 -0.065070416369405165 1.0000000000000002 
	0.13342421644182936 -0.13197996710448259 -0.090398418911780326 1 
	0.12597156787197161 -0.13888089586903574 -0.11746906408692655 1 
	0.12460348067628618 -0.1401855607595946 -0.1327539586355255 1 
	0.12472469683266421 -0.14000000000000001 -0.13999999999999968 1 
	0.001 
	cone 0 0 0.64000000000000012 0 0 -1 -0.1875 0 0 1 I I 0 1 0.1875 forward I I I I 
	cone 0 0 -0.14000000000000001 1 0 0 0 -0.14000000000000001 0 1 I I 0 1 0.14000000000000001 forward I I I I 
	nullbs 
	nullbs 
	I I 
	0 
	0 
	0 
	} I I #
point $-1 0.1875 2.2961369134169574e-017 0 #
loop $-1 $-1 $134 $138 #
vertex $-1 $157 $187 #
intcurve-curve $-1 forward { surfintcur full nurbs 3 open 23 
	0 3 0.044780767796051689 1 0.089692465714720282 1 0.1347569669893971 1 0.17995377773392512 1 
	0.22535837189509647 1 0.27101938836698924 1 0.31687297729925523 1 0.36276666259923762 1 0.40862169223694222 1 
	0.45437203461835923 1 0.49998561708304112 1 0.54560105129068037 1 0.5913555172455407 1 0.6372164828962894 1 
	0.68311917901000196 1 0.72898286924997835 1 0.77464799608842627 1 0.82005846027137796 1 0.8652460797045155 1 
	0.91030255451730147 1 0.95521661596039198 1 1 3 
	0.1875 -6.0305357712717167e-017 -1.4904029454646226 1 
	0.18752171312715257 -0.0063853129639041229 -1.4903521915458027 1 
	0.18684032156526875 -0.019314500630776717 -1.4886363801215647 0.99999999999999978 
	0.1837311722675328 -0.039273108853009144 -1.4807246083230428 1.0000000000000002 
	0.17822458647009082 -0.059491085081087247 -1.468858089349814 0.99999999999999989 
	0.17035467808923413 -0.079370065246337718 -1.4547125153955296 1.0000000000000002 
	0.15912630252262411 -0.10024001705987581 -1.438172936671726 0.99999999999999978 
	0.14313338792762356 -0.1222793607970758 -1.4194428893207802 1 
	0.12143599805775086 -0.14403197700492834 -1.400115963854248 1 
	0.095015464727809099 -0.16276308528093367 -1.3830203321119294 1 
	0.064608794940509931 -0.17710659065286649 -1.3697243078862094 0.99999999999999978 
	0.032016733471461375 -0.1857140604707162 -1.361675836026258 0.99999999999999989 
	0.00022492142787490469 -0.18837322747335719 -1.3591805931860694 1.0000000000000002 
	-0.031613700942664802 -0.18578699486987194 -1.3616074533933804 1 
	-0.064298060989845585 -0.17722522497165363 -1.3696138101775153 1 
	-0.09481370647182838 -0.1628876709621091 -1.3829056377827917 1.0000000000000002 
	-0.12135939818349195 -0.14410954053919209 -1.4000470417999367 0.99999999999999989 
	-0.14317062130744249 -0.12224046531581746 -1.4194770103230081 1.0000000000000002 
	-0.15915823133211507 -0.10019662437417969 -1.4382108586057187 1 
	-0.17044102430359093 -0.07918662991363648 -1.4548521690494596 0.99999999999999989 
	-0.17822689899242256 -0.059456721419740802 -1.4688719806348829 0.99999999999999978 
	-0.18370997554903587 -0.039370726758992752 -1.4806741283608511 1.0000000000000002 
	-0.18683973920265823 -0.01934546740377335 -1.4886339626804679 0.99999999999999978 
	-0.18752143717366798 -0.0063996782100099615 -1.4903507988155587 1.0000000000000002 
	-0.1875 -4.5922738268339147e-017 -1.4904029454646217 1 
	0.001 
	cone 0 0 0.64000000000000012 0 0 -1 -0.1875 0 0 1 I I 0 1 0.1875 forward I I I I 
	cone 0 0.97588479829746111 -1.5599999999999972 0 1 0 0.19999999999999998 0 0 1 I I 0 1 0.19999999999999998 forward I I I I 
	nullbs 
	nullbs 
	I I 
	0 
	0 
	0 
	} I I #
point $-1 -0.1875 0 -1.4904029454646222 #
face $-1 $188 $189 $3 $-1 $190 reversed single #
loop $-1 $167 $191 $138 #
cone-surface $-1 0 0.97588479829746111 -1.5599999999999972 0 1 0 0.19999999999999998 0 0 1 I I 0 1 0.19999999999999998 forward I I I I #
edge $-1 $183 0 $175 1 $158 $192 forward 7 unknown #
vertex $-1 $160 $193 #
straight-curve $-1 0.80109609786810065 0.14000000000000001 -0.14000000000000004 -1 0 0 I I #
straight-curve $-1 0.80109609786810065 -0.14000000000000001 -0.14000000000000001 -1 0 0 I I #
coedge $-1 $194 $194 $195 $196 forward $149 $-1 #
face $-1 $197 $198 $3 $-1 $199 forward single #
plane-surface $-1 0 0 -0.28795105900709572 0 0 1 -1 0 0 forward_v I I I I #
intcurve-curve $-1 forward { surfintcur full nurbs 3 open 23 
	0 3 0.044780221413557315 1 0.08969198687774213 1 0.13475631293967874 1 0.17995197069884897 1 
	0.22535382429547238 1 0.27101120745592294 1 0.31686869833726317 1 0.36276497287809178 1 0.40862033838764905 1 
	0.45437101031081956 1 0.49998660914444726 1 0.54559751165177806 1 0.59134922314999416 1 0.6372081833931903 1 
	0.68310792025427669 1 0.72896861010576686 1 0.77463973149113396 1 0.82005568855969324 1 0.86524500418068961 1 
	0.910300561612021 1 0.95521550120703747 1 1 3 
	-0.1875 0 -1.4904029454646222 1 
	-0.18752202745746288 0.0063811169069910769 -1.4903530698462097 0.99999999999999989 
	-0.18684117311712359 0.019304398642572326 -1.4886386966432081 1.0000000000000004 
	-0.18373263239827348 0.039267525203594209 -1.4807278630571246 0.99999999999999978 
	-0.1782261818575413 0.059484941126158222 -1.4688617556900136 1 
	-0.170363281841725 0.079351059796356538 -1.4547265336329616 1 
	-0.15914854985095195 0.10019775898168642 -1.438206826590152 1 
	-0.14321692609384357 0.12218163158170586 -1.4195281451764683 0.99999999999999989 
	-0.12147501579993383 0.14400486228219092 -1.4001410075724974 1 
	-0.09503245455251598 0.16275380422104094 -1.3830287971646933 1.0000000000000002 
	-0.064624414999622293 0.17709940629222939 -1.3697310284937483 0.99999999999999978 
	-0.032045929920274462 0.1857123283170512 -1.3616774567393031 1 
	-0.00018034682347457028 0.18837221991349692 -1.3591815396377154 0.99999999999999978 
	0.031546472776296401 0.18579285250000332 -1.3616019575805294 1.0000000000000004 
	0.064212254280455766 0.17725587258667072 -1.3695851815421083 0.99999999999999978 
	0.09471491364589156 0.16294388644351801 -1.3828538877989975 1 
	0.12124913406638427 0.14419711003009344 -1.3999673964389774 1 
	0.14303621373849534 0.12239937259621786 -1.4193384968453677 1 
	0.15911211099262013 0.10028029401935874 -1.4381433278464282 1.0000000000000002 
	0.17043056099576617 0.079212644637871837 -1.4548338060506114 1.0000000000000002 
	0.17822458410743622 0.059462164843441946 -1.4688676991049874 1 
	0.18370221599615896 0.039405043680510961 -1.4806562548084365 1 
	0.18683913638587032 0.01936069772746038 -1.4886319113374196 0.99999999999999978 
	0.18752125999685823 0.006406076825667093 -1.4903500679524073 1 
	0.1875 -6.0305357712717167e-017 -1.4904029454646208 1 
	0.001 
	cone 0 0 0.64000000000000012 0 0 -1 -0.1875 0 0 1 I I 0 1 0.1875 forward I I I I 
	cone 0 0.97588479829746111 -1.5599999999999972 0 1 0 0.19999999999999998 0 0 1 I I 0 1 0.19999999999999998 forward I I I I 
	nullbs 
	nullbs 
	I I 
	0 
	0 
	0 
	} I I #
intcurve-curve $-1 forward { surfintcur full nurbs 3 open 9 
	0 3 0.12214201026519847 1 0.24663218302473155 1 0.3723196609586959 1 0.49856732868938608 1 
	0.62479461746807297 1 0.75086227957729923 1 0.87608509590304018 1 1 3 
	0.12472469683266424 0.13999999999999999 -0.14000000000000035 1 
	0.12459712017830246 0.14018766229923452 -0.13289142133552043 1 
	0.12592918781542833 0.13891845194597041 -0.11784059918732305 0.99999999999999989 
	0.13319169249986554 0.13220409658238913 -0.091043041453182733 1.0000000000000002 
	0.1446792355659654 0.11980491997495885 -0.065736994812988905 1 
	0.15780889645388149 0.10217529326794367 -0.042848775771291273 1.0000000000000002 
	0.17016245209969677 0.08023785574879419 -0.02404122514808215 0.99999999999999978 
	0.18029767404900265 0.054125669096923124 -0.0097255347807470999 0.99999999999999978 
	0.18631686693862401 0.026166267252022108 -0.0015898502504389652 1.0000000000000004 
	0.18755751741792467 0.0086492871339411172 0.00010153538782112706 0.99999999999999978 
	0.1875 2.2961369134169574e-017 -5.5511151231257827e-016 1 
	0.001 
	cone 0 0 0.64000000000000012 0 0 -1 -0.1875 0 0 1 I I 0 1 0.1875 forward I I I I 
	cone 0 0 -0.14000000000000001 1 0 0 0 -0.14000000000000001 0 1 I I 0 1 0.14000000000000001 forward I I I I 
	nullbs 
	nullbs 
	I I 
	0 
	0 
	0 
	} I I #
vertex $-1 $174 $200 #
straight-curve $-1 0.1875 2.2961369134169574e-017 -0.28000000000000003 0 -6.8792567928628237e-017 -1 I I #
intcurve-curve $-1 forward { surfintcur full nurbs 3 open 9 
	0 3 0.12212181379171021 1 0.24663762435828768 1 0.37235417146708244 1 0.49861926156684361 1 
	0.62484974955526162 1 0.75089854216318186 1 0.87609789051858056 1 1 3 
	0.12472469683266421 -0.14000000000000001 -0.13999999999999968 1 
	0.12459227325607181 -0.14019213761259211 -0.14708156143520601 0.99999999999999989 
	0.1259196845018451 -0.13892683523808766 -0.16210230553991237 1.0000000000000004 
	0.13319236358698736 -0.13220459539996748 -0.18897286523806439 0.99999999999999989 
	0.14470975400255034 -0.11977047571811143 -0.21432314368979374 1.0000000000000002 
	0.15785474663559956 -0.10210714978358884 -0.23722567323325988 0.99999999999999989 
	0.17020704440435075 -0.080143005776675921 -0.25602330470813006 1.0000000000000002 
	0.18031610797386977 -0.054054785641346283 -0.27029944391799049 0.99999999999999989 
	0.1863184973721414 -0.026143267151243592 -0.27841238135370094 1.0000000000000002 
	0.18755676845203728 -0.0086427375084062626 -0.28010039679284637 1 
	0.1875 2.2961369134169574e-017 -0.28000000000000003 1 
	0.001 
	cone 0 0 0.64000000000000012 0 0 -1 -0.1875 0 0 1 I I 0 1 0.1875 forward I I I I 
	cone 0 0 -0.14000000000000001 1 0 0 0 -0.14000000000000001 0 1 I I 0 1 0.14000000000000001 forward I I I I 
	nullbs 
	nullbs 
	I I 
	0 
	0 
	0 
	} I I #
point $-1 0.12472469683266424 -0.14000000000000001 -0.14000000000000001 #
point $-1 0.1875 -6.0305357712717167e-017 -1.4904029454646208 #
face $-1 $201 $202 $3 $-1 $203 reversed single #
loop $-1 $-1 $204 $171 #
plane-surface $-1 0.19999999999999998 0.97588479829746111 -1.5599999999999972 1 0 0 0 0 -1 forward_v I I I I #
coedge $-1 $205 $206 $207 $208 forward $172 $-1 #
intcurve-curve $-1 forward { surfintcur full nurbs 3 open 9 
	0 3 0.1238049493087659 1 0.24891203868265324 1 0.37490306096194814 1 0.50110211161643259 1 
	0.62732305853228487 1 0.75304977802301409 1 0.87766549421758511 1 1 3 
	0.1875 2.2961369134169574e-017 -0.28000000000000036 1 
	0.18755797907887989 0.0085699592662442335 -0.2801013597910933 1.0000000000000002 
	0.18633618283269304 0.025942936796833443 -0.2784361882905132 0.99999999999999989 
	0.18041987529889844 0.053683363651674865 -0.27044080349818639 1 
	0.17039830122970226 0.079735580633937458 -0.25630090304218911 1 
	0.15808898792220741 0.10174400577098772 -0.2375981101221068 0.99999999999999989 
	0.14499179993152325 0.11943085084559595 -0.21485679423127768 1 
	0.13341885815398236 0.13198397174279708 -0.18957357623293522 0.99999999999999989 
	0.12597961855431658 0.13887381749641134 -0.16257623358479475 1 
	0.12460795022801019 0.14018134791552753 -0.147268401238109 1 
	0.12472469683266424 0.13999999999999999 -0.14000000000000035 1 
	0.001 
	cone 0 0 0.64000000000000012 0 0 -1 -0.1875 0 0 1 I I 0 1 0.1875 forward I I I I 
	cone 0 0 -0.14000000000000001 1 0 0 0 -0.14000000000000001 0 1 I I 0 1 0.14000000000000001 forward I I I I 
	nullbs 
	nullbs 
	I I 
	0 
	0 
	0 
	} I I #
point $-1 0.12472469683266423 0.14000000000000001 -0.14000000000000004 #
coedge $-1 $178 $178 $209 $210 reversed $149 $-1 #
coedge $-1 $211 $212 $178 $196 reversed $198 $-1 #
edge $-1 $213 0 $214 3.1415926535897931 $178 $215 forward 7 unknown #
face $-1 $216 $217 $3 $-1 $218 forward single #
loop $-1 $-1 $219 $179 #
cone-surface $-1 0 0 -1.7224999999999999 0 0 1 -0.56323733191455094 0 0 1 I I 0 1 0.56323733191455094 forward I I I I #
point $-1 0.1875 2.2961369134169574e-017 -0.28000000000000036 #
face $-1 $220 $221 $3 $-1 $222 forward single #
loop $-1 $-1 $223 $188 #
plane-surface $-1 0 0 -1.6099999999999999 0 0 1 -1 0 0 forward_v I I I I #
coedge $-1 $224 $225 $226 $227 forward $189 $-1 #
coedge $-1 $228 $191 $229 $230 reversed $172 $-1 #
coedge $-1 $191 $228 $231 $232 reversed $172 $-1 #
coedge $-1 $225 $224 $191 $208 reversed $189 $-1 #
edge $-1 $233 0 $234 0.93034037416133641 $191 $235 forward 7 unknown #
coedge $-1 $236 $237 $194 $210 forward $238 $-1 #
edge $-1 $213 0 $214 3.1415926535897931 $194 $239 forward 7 unknown #
coedge $-1 $219 $195 $237 $240 forward $198 $-1 #
coedge $-1 $195 $219 $236 $241 reversed $198 $-1 #
vertex $-1 $210 $242 #
vertex $-1 $210 $243 #
ellipse-curve $-1 0 0 -0.28795105900709572 0 0 1 0.56323733191455094 6.8974401537252234e-017 0 1 I I #
face $-1 $101 $244 $3 $-1 $245 reversed single #
loop $-1 $-1 $246 $197 #
cone-surface $-1 0 0 -0.81833544840696715 0 0 1 -0.78269193110587909 0 0 1 I I -0.61634890992145808 0.78747318763157292 0.78269193110587909 forward I I I I #
coedge $-1 $212 $211 $247 $248 forward $198 $-1 #
face $-1 $249 $250 $3 $-1 $251 reversed single #
loop $-1 $-1 $252 $201 #
cone-surface $-1 0 0 -4.5513101513623697 0 0 -1 -0.12686136863072497 0 0 1 I I -0.12585268640302114 0.99204894099290419 0.12686136863072497 forward I I I I #
coedge $-1 $253 $226 $254 $255 reversed $202 $-1 #
coedge $-1 $207 $204 $256 $257 reversed $189 $-1 #
coedge $-1 $204 $207 $258 $259 reversed $189 $-1 #
coedge $-1 $223 $253 $204 $227 reversed $202 $-1 #
edge $-1 $260 5.5511151231257827e-017 $261 0.9165151389911681 $226 $262 forward 7 unknown #
coedge $-1 $206 $205 $263 $264 reversed $172 $-1 #
coedge $-1 $256 $265 $205 $230 forward $266 $-1 #
edge $-1 $267 0 $234 1 $229 $268 forward 7 unknown #
coedge $-1 $269 $258 $206 $232 forward $221 $-1 #
edge $-1 $233 0 $270 1 $231 $271 forward 7 unknown #
vertex $-1 $232 $272 #
vertex $-1 $257 $273 #
straight-curve $-1 0.19999999999999998 0.46517018708066815 -1.5599999999999972 0 -1 0 I I #
coedge $-1 $274 $209 $212 $241 forward $238 $-1 #
coedge $-1 $209 $274 $211 $240 reversed $238 $-1 #
loop $-1 $-1 $209 $275 #
ellipse-curve $-1 0 -2.7755575615628914e-017 -0.28795105900709572 0 0 -1 0.56323733191455094 9.6729977152881147e-017 0 1 I I #
edge $-1 $213 0 $276 0.25 $211 $277 forward 7 unknown #
edge $-1 $214 0 $278 0.25 $212 $279 forward 7 unknown #
point $-1 0.56323733191455094 6.8974401537252234e-017 -0.28795105900709572 #
point $-1 -0.56323733191455094 -1.3794880307450447e-016 -0.28795105900709572 #
loop $-1 $-1 $263 $216 #
plane-surface $-1 -0.19999999999999998 0.97588479829746111 -1.6099999999999972 -1 0 0 0 0 1 forward_v I I I I #
coedge $-1 $280 $281 $282 $283 forward $217 $-1 #
coedge $-1 $281 $280 $219 $248 reversed $217 $-1 #
edge $-1 $276 1.9427083143533786e-032 $278 3.1415926535897931 $219 $284 forward 7 unknown #
face $-1 $285 $266 $3 $-1 $286 forward single #
loop $-1 $-1 $287 $220 #
plane-surface $-1 0 0 -1.6099999999999999 0 0 1 -1 0 0 forward_v I I I I #
coedge $-1 $288 $269 $289 $290 forward $221 $-1 #
coedge $-1 $226 $223 $291 $292 forward $202 $-1 #
coedge $-1 $258 $293 $223 $255 forward $221 $-1 #
edge $-1 $294 1.2246063538223768e-016 $260 1.1592794807274083 $254 $295 forward 7 unknown #
coedge $-1 $291 $229 $224 $257 forward $266 $-1 #
edge $-1 $234 0 $261 1 $256 $296 forward 7 unknown #
coedge $-1 $231 $254 $225 $259 forward $221 $-1 #
edge $-1 $260 0 $233 1 $258 $297 forward 7 unknown #
vertex $-1 $259 $298 #
vertex $-1 $227 $299 #
straight-curve $-1 0.19999999999999998 0.45825756949558405 -1.6099999999999999 0 -1 0 I I #
coedge $-1 $300 $301 $228 $264 forward $244 $-1 #
edge $-1 $270 1.1102230246251565e-016 $267 0.9303403741613363 $263 $302 forward 7 unknown #
coedge $-1 $229 $303 $300 $304 forward $266 $-1 #
loop $-1 $-1 $229 $249 #
vertex $-1 $304 $305 #
intcurve-curve $-1 forward { surfintcur full nurbs 3 open 17 
	0 3 0.06209508063157046 1 0.12464485619741773 1 0.18737847861290152 1 0.25005461370130577 1 
	0.31266007871614804 1 0.37521418860447325 1 0.43766570070794625 1 0.49998768595685961 1 0.5623058105008335 1 
	0.62474966104645657 1 0.68729994629774149 1 0.74990535504633893 1 0.81258507051988493 1 0.87532959141797317 1 
	0.93789521802795484 1 1 3 
	-0.19999999999999984 -0.4651701870806681 -1.5599999999999974 1 
	-0.20022657058973248 -0.46666851427143147 -1.5487540775741058 1 
	-0.19810371690048012 -0.47073767519544668 -1.525503943084104 0.99999999999999989 
	-0.18754884126366439 -0.4804849958718399 -1.4863773234614412 1.0000000000000002 
	-0.16828550172439799 -0.49263460249123425 -1.4493623693859758 1 
	-0.14269400236950072 -0.50487832016032286 -1.4179692671120061 0.99999999999999989 
	-0.11176751352988804 -0.51600353817137401 -1.3925397454417991 1 
	-0.076258452312125899 -0.52492267586713315 -1.3736654986316792 1 
	-0.038202556241847964 -0.53049972380296029 -1.3624039443919174 1 
	-0.00012900461062717041 -0.5323159225795564 -1.3588123575054518 1.0000000000000002 
	0.037900321794360106 -0.53052603851833413 -1.3623517691425615 1 
	0.075882838841038761 -0.52499501576598029 -1.3735173868636654 0.99999999999999989 
	0.11140633626237725 -0.51611368201068863 -1.3922995185215477 1 
	0.14239257347841552 -0.50500466809142053 -1.4176658582986246 0.99999999999999989 
	0.16806969803738836 -0.49275501554516071 -1.4490276991094055 1.0000000000000002 
	0.18745606927840744 -0.48055975676662738 -1.4861065841684624 1 
	0.19809648078043615 -0.47075311419255672 -1.5254143610735855 1 
	0.20023054741393981 -0.46667116006270198 -1.5487268277307307 0.99999999999999989 
	0.20000000000000007 -0.46517018708066815 -1.5599999999999965 1 
	0.001 
	cone 0 0.97588479829746111 -1.5599999999999972 0 1 0 0.19999999999999998 0 0 1 I I 0 1 0.19999999999999998 forward I I I I 
	cone 0 0 -4.5513101513623697 0 0 -1 -0.12686136863072497 0 0 1 I I -0.12585268640302114 0.99204894099290419 0.12686136863072497 forward I I I I 
	nullbs 
	nullbs 
	I I 
	0 
	0 
	0 
	} I I #
coedge $-1 $252 $231 $301 $306 forward $221 $-1 #
vertex $-1 $306 $307 #
intcurve-curve $-1 forward { surfintcur full nurbs 3 open 17 
	0 3 0.062107717572636001 1 0.12467340803067442 1 0.1874160278047412 1 0.25009446610778946 1 
	0.3126996159026304 1 0.37524998548322619 1 0.43769407184494669 1 0.500012323697407 1 0.56233424560879952 1 
	0.6247855979960022 1 0.68733969741742906 1 0.74994549713703873 1 0.81262282641525585 1 0.87535834852771055 1 
	0.93790793450302912 1 1 3 
	0.20000000000000007 0.46517018708066815 -1.5599999999999965 1 
	0.20022889491000223 0.46667404403504015 -1.5487113736394216 0.99999999999999978 
	0.19809199678308434 0.47076005137884641 -1.5253782057969945 0.99999999999999978 
	0.18744160574051791 0.48056986228946658 -1.4860738790082126 1.0000000000000004 
	0.16806309130789521 0.49275799338732901 -1.4490205721807661 0.99999999999999978 
	0.1423949138704699 0.50500352729314479 -1.4176686826097153 1.0000000000000004 
	0.11141046529705649 0.51611243223800729 -1.3923022321715393 0.99999999999999989 
	0.07588682289590927 0.52499429496426886 -1.3735188564848606 1 
	0.037901411075026641 0.53052602699841622 -1.3623517866075801 0.99999999999999989 
	-0.00012942137787824525 0.53231593140348854 -1.3588123408398785 0.99999999999999978 
	-0.038202133974996173 0.53049969982162914 -1.3624039939941104 1 
	-0.076255946194311058 0.52492312568718136 -1.3736645881831957 1 
	-0.11176523740351248 0.51600426641604624 -1.3925381347896095 1.0000000000000002 
	-0.14269416484395586 0.50487840643307991 -1.4179689996719895 1 
	-0.16829302846565894 0.4926310863559511 -1.4493709926002185 1.0000000000000002 
	-0.18756419624511544 0.48047419612660058 -1.4864125252332132 0.99999999999999978 
	-0.19810818822925691 0.47073064754269084 -1.5255407567234394 1 
	-0.20022818720781643 0.46666560962988962 -1.5487697623601433 0.99999999999999989 
	-0.20000000000000001 0.46517018708066815 -1.5599999999999965 1 
	0.001 
	cone 0 0.97588479829746111 -1.5599999999999972 0 1 0 0.19999999999999998 0 0 1 I I 0 1 0.19999999999999998 forward I I I I 
	cone 0 0 -4.5513101513623697 0 0 -1 -0.12686136863072497 0 0 1 I I -0.12585268640302114 0.99204894099290419 0.12686136863072497 forward I I I I 
	nullbs 
	nullbs 
	I I 
	0 
	0 
	0 
	} I I #
point $-1 0.20000000000000007 0.46517018708066815 -1.5599999999999965 #
point $-1 0.19999999999999998 -0.46517018708066826 -1.5599999999999972 #
coedge $-1 $237 $236 $308 $309 reversed $238 $-1 #
face $-1 $150 $238 $3 $-1 $310 forward single #
vertex $-1 $240 $311 #
straight-curve $-1 0.56323733191455094 6.8974401537252234e-017 -0.28795105900709572 0 0 -1 I I #
vertex $-1 $241 $312 #
straight-curve $-1 -0.56323733191455094 -1.3794880307450447e-016 -0.28795105900709572 0 0 -1 I I #
coedge $-1 $247 $246 $313 $314 reversed $217 $-1 #
coedge $-1 $246 $247 $315 $316 forward $217 $-1 #
coedge $-1 $293 $288 $246 $283 reversed $221 $-1 #
edge $-1 $317 0 $318 3.1415926535897931 $246 $319 forward 7 unknown #
ellipse-curve $-1 0 0 -0.53795105900709572 0 0 1 0.56323733191455094 6.8974401537252222e-017 0 1 I I #
face $-1 $275 $320 $3 $-1 $321 forward single #
cone-surface $-1 0 0 -4.5513101513623697 0 0 -1 -0.12686136863072497 0 0 1 I I -0.12585268640302114 0.99204894099290419 0.12686136863072497 forward I I I I #
coedge $-1 $289 $322 $303 $323 forward $250 $-1 #
coedge $-1 $282 $252 $324 $325 reversed $221 $-1 #
coedge $-1 $322 $287 $252 $290 reversed $250 $-1 #
edge $-1 $326 -5.5511151231257852e-017 $327 1.1592794807274092 $252 $328 forward 7 unknown #
coedge $-1 $329 $256 $253 $292 reversed $266 $-1 #
edge $-1 $294 -1.2246063538223768e-016 $261 1.1592794807274083 $253 $330 forward 7 unknown #
coedge $-1 $254 $282 $329 $331 forward $221 $-1 #
vertex $-1 $255 $332 #
ellipse-curve $-1 -1.6653345369377348e-016 -9.7144514654701197e-017 -1.6099999999999999 0 0 1 0.50000000000000022 9.7144514654701197e-017 0 1 I I #
intcurve-curve $-1 forward { surfintcur full nurbs 3 open 3 
	0 3 0.5003387240871211 1 1 3 
	0.19999999999999998 -0.46517018708066826 -1.5599999999999972 1 
	0.20000000000000001 -0.46401551757914544 -1.5683617606301257 1 
	0.19999999999999998 -0.46170952805511828 -1.585051178345926 1 
	0.19999999999999993 -0.45940710827407183 -1.6016950631172504 1.0000000000000002 
	0.19999999999999998 -0.45825756949558405 -1.6099999999999999 1 
	0.001 
	plane 0.19999999999999998 0.97588479829746111 -1.5599999999999972 1 0 0 0 0 -1 forward_v I I I I 
	cone 0 0 -4.5513101513623697 0 0 -1 -0.12686136863072497 0 0 1 I I -0.12585268640302114 0.99204894099290419 0.12686136863072497 forward I I I I 
	nullbs 
	nullbs 
	I I 
	0 
	0 
	0 
	} I I #
intcurve-curve $-1 forward { surfintcur full nurbs 3 open 3 
	0 3 0.49966002474348453 1 1 3 
	0.19999999999999998 0.45825756949558405 -1.6099999999999999 1 
	0.19999999999999998 0.45940709387164258 -1.6016951672678033 1 
	0.20000000000000001 0.46170950210859685 -1.5850513660215781 1 
	0.20000000000000001 0.46401550315210144 -1.5683618650080484 0.99999999999999989 
	0.19999999999999998 0.46517018708066815 -1.5599999999999972 1 
	0.001 
	plane 0.19999999999999998 0.97588479829746111 -1.5599999999999972 1 0 0 0 0 -1 forward_v I I I I 
	cone 0 0 -4.5513101513623697 0 0 -1 -0.12686136863072497 0 0 1 I I -0.12585268640302114 0.99204894099290419 0.12686136863072497 forward I I I I 
	nullbs 
	nullbs 
	I I 
	0 
	0 
	0 
	} I I #
point $-1 0.19999999999999998 0.45825756949558399 -1.6099999999999999 #
point $-1 0.19999999999999998 -0.45825756949558399 -1.6099999999999999 #
coedge $-1 $333 $263 $265 $304 reversed $244 $-1 #
coedge $-1 $263 $333 $269 $306 reversed $244 $-1 #
straight-curve $-1 -0.19999999999999998 0.46517018708066826 -1.5599999999999972 0 -1 0 I I #
coedge $-1 $265 $324 $287 $323 reversed $266 $-1 #
edge $-1 $334 0 $267 1 $265 $335 forward 7 unknown #
point $-1 -0.19999999999999998 -0.46517018708066804 -1.5599999999999972 #
edge $-1 $270 0 $326 1 $269 $336 forward 7 unknown #
point $-1 -0.19999999999999998 0.46517018708066815 -1.5599999999999972 #
coedge $-1 $313 $315 $274 $309 forward $320 $-1 #
edge $-1 $276 -1.9427083143533786e-032 $278 3.1415926535897931 $274 $337 forward 7 unknown #
cone-surface $-1 0 0 -1.7224999999999999 0 0 1 -0.56323733191455094 0 0 1 I I 0 1 0.56323733191455094 forward I I I I #
point $-1 0.56323733191455094 6.8974401537252234e-017 -0.53795105900709572 #
point $-1 -0.56323733191455094 -1.3794880307450444e-016 -0.53795105900709572 #
coedge $-1 $338 $308 $280 $314 forward $320 $-1 #
edge $-1 $278 0 $318 0.10159076049383993 $280 $339 forward 7 unknown #
coedge $-1 $308 $338 $281 $316 reversed $320 $-1 #
edge $-1 $276 9.3034408387727036e-049 $317 0.10159076049384003 $281 $340 forward 7 unknown #
vertex $-1 $316 $341 #
vertex $-1 $314 $342 #
ellipse-curve $-1 0 -5.5511151231257827e-017 -0.61795105900709535 0 0 1 0.62585268640302127 1.3215346886385218e-016 0 1 I I #
loop $-1 $-1 $308 $285 #
cone-surface $-1 0 0 -0.81833544840696715 0 0 1 -0.78269193110587909 0 0 1 I I -0.61634890992145808 0.78747318763157292 0.78269193110587909 forward I I I I #
coedge $-1 $287 $289 $333 $343 forward $250 $-1 #
edge $-1 $334 0 $327 1.1592794807274081 $287 $344 forward 7 unknown #
coedge $-1 $303 $345 $288 $325 forward $266 $-1 #
edge $-1 $318 0 $327 0.99999999999999989 $288 $346 forward 7 unknown #
vertex $-1 $306 $347 #
vertex $-1 $325 $348 #
ellipse-curve $-1 -1.3877787807814457e-016 6.9388939039072284e-017 -1.6099999999999999 0 0 1 -0.19999999999999984 0.45825756949558394 0 1 I I #
coedge $-1 $345 $291 $293 $331 reversed $266 $-1 #
ellipse-curve $-1 -1.6653345369377348e-016 9.7144514654701197e-017 -1.6099999999999999 0 0 -1 0.50000000000000022 -9.7144514654701197e-017 0 1 I I #
edge $-1 $317 2.3425157018462148e-016 $294 0.99999999999999989 $293 $349 forward 7 unknown #
point $-1 0.50000000000000011 6.1230317691118863e-017 -1.6099999999999994 #
coedge $-1 $301 $300 $322 $343 reversed $244 $-1 #
vertex $-1 $343 $350 #
intcurve-curve $-1 forward { surfintcur full nurbs 3 open 3 
	0 3 0.49966002474348586 1 1 3 
	-0.19999999999999998 -0.45825756949558405 -1.6099999999999999 1 
	-0.20000000000000001 -0.45940709387164252 -1.601695167267803 1 
	-0.19999999999999996 -0.46170950210859668 -1.5850513660215779 1 
	-0.20000000000000004 -0.46401550315210133 -1.5683618650080484 0.99999999999999989 
	-0.19999999999999998 -0.46517018708066804 -1.5599999999999972 1 
	0.001 
	plane -0.19999999999999998 0.97588479829746111 -1.6099999999999972 -1 0 0 0 0 1 forward_v I I I I 
	cone 0 0 -4.5513101513623697 0 0 -1 -0.12686136863072497 0 0 1 I I -0.12585268640302114 0.99204894099290419 0.12686136863072497 forward I I I I 
	nullbs 
	nullbs 
	I I 
	0 
	0 
	0 
	} I I #
intcurve-curve $-1 forward { surfintcur full nurbs 3 open 3 
	0 3 0.50033872408713576 1 1 3 
	-0.19999999999999998 0.46517018708066815 -1.5599999999999972 1 
	-0.19999999999999998 0.46401551757914528 -1.5683617606301272 1 
	-0.20000000000000001 0.46170952805511817 -1.5850511783459282 1 
	-0.19999999999999996 0.45940710827407161 -1.6016950631172515 1.0000000000000002 
	-0.19999999999999998 0.45825756949558405 -1.6099999999999999 1 
	0.001 
	plane -0.19999999999999998 0.97588479829746111 -1.6099999999999972 -1 0 0 0 0 1 forward_v I I I I 
	cone 0 0 -4.5513101513623697 0 0 -1 -0.12686136863072497 0 0 1 I I -0.12585268640302114 0.99204894099290419 0.12686136863072497 forward I I I I 
	nullbs 
	nullbs 
	I I 
	0 
	0 
	0 
	} I I #
ellipse-curve $-1 0 -2.7755575615628914e-017 -0.53795105900709572 0 0 -1 0.56323733191455094 9.6729977152881135e-017 0 1 I I #
coedge $-1 $315 $313 $345 $351 reversed $320 $-1 #
straight-curve $-1 -0.56323733191455094 -1.3794880307450444e-016 -0.53795105900709572 -0.61634890992145808 -1.5095695825226286e-016 -0.78747318763157281 I I #
straight-curve $-1 0.56323733191455094 6.8974401537252222e-017 -0.53795105900709572 0.61634890992145808 7.547847912613143e-017 -0.78747318763157281 I I #
point $-1 0.62585268640302116 7.6642317632594343e-017 -0.61795105900709557 #
point $-1 -0.62585268640302127 -1.5328463526518871e-016 -0.61795105900709535 #
edge $-1 $326 0 $334 0.9165151389911681 $322 $352 forward 7 unknown #
ellipse-curve $-1 1.6653345369377348e-016 9.7144514654701197e-017 -1.6099999999999999 0 0 -1 -0.20000000000000015 -0.45825756949558411 0 1 I I #
coedge $-1 $324 $329 $338 $351 forward $266 $-1 #
straight-curve $-1 -0.62585268640302127 -1.5328463526518871e-016 -0.61795105900709535 0.12585268640302119 3.082399988295099e-017 -0.9920489409929043 I I #
point $-1 -0.19999999999999998 0.45825756949558405 -1.6099999999999999 #
point $-1 -0.50000000000000011 -1.2246063538223773e-016 -1.6099999999999994 #
straight-curve $-1 0.62585268640302127 7.6642317632594355e-017 -0.61795105900709535 -0.12585268640302119 -1.5411999941475495e-017 -0.9920489409929043 I I #
point $-1 -0.19999999999999998 -0.45825756949558399 -1.6099999999999999 #
edge $-1 $317 0 $318 3.1415926535897931 $338 $353 forward 7 unknown #
straight-curve $-1 -0.19999999999999998 0.45825756949558405 -1.6099999999999999 0 -1 0 I I #
ellipse-curve $-1 0 -2.7755575615628914e-017 -0.61795105900709535 0 0 -1 0.62585268640302127 1.0439789324822327e-016 0 1 I I #
End-of-ACIS-data 