600 0 1 0           
81 GICL ACIS Healer - Source: /gicl/data5/repository/Heriot_Watt/ex35/ex35.sat - 6 0 18 ACIS 6.0.3 Solaris 24 Sat Apr 13 23:38:34 2002 
1 9.999999999999999547e-07 1.000000000000000036e-10 
body $-1 $1 $-1 $-1 #
lump $-1 $-1 $2 $0 #
shell $-1 $-1 $-1 $3 $-1 $1 #
face $-1 $4 $5 $2 $-1 $6 forward single #
face $-1 $7 $8 $2 $-1 $9 reversed single #
loop $-1 $-1 $10 $3 #
plane-surface $-1 0 0 20 0 0 1 1 0 0 forward_v I I I I #
face $-1 $11 $12 $2 $-1 $13 reversed single #
loop $-1 $-1 $14 $4 #
plane-surface $-1 10 0 0 -1 0 0 0 0 1 forward_v I I I I #
coedge $-1 $15 $16 $17 $18 reversed $5 $-1 #
face $-1 $19 $20 $2 $-1 $21 reversed single #
loop $-1 $-1 $22 $7 #
plane-surface $-1 -10 0 0 1 0 0 0 0 -1 forward_v I I I I #
coedge $-1 $23 $24 $25 $26 reversed $8 $-1 #
coedge $-1 $27 $10 $24 $28 forward $5 $-1 #
coedge $-1 $10 $27 $29 $30 forward $5 $-1 #
coedge $-1 $31 $25 $10 $18 forward $32 $-1 #
edge $-1 $33 -10 $34 10 $17 $35 forward 7 unknown #
face $-1 $36 $37 $2 $-1 $38 forward single #
loop $-1 $-1 $39 $11 #
plane-surface $-1 0 40 0 0 -1 0 0 0 -1 forward_v I I I I #
coedge $-1 $29 $40 $31 $41 reversed $12 $-1 #
coedge $-1 $42 $14 $43 $44 reversed $8 $-1 #
coedge $-1 $14 $45 $15 $28 reversed $8 $-1 #
coedge $-1 $17 $46 $14 $26 forward $32 $-1 #
edge $-1 $47 0 $33 10 $25 $48 forward 7 unknown #
coedge $-1 $16 $15 $49 $50 forward $5 $-1 #
edge $-1 $33 0 $51 40 $24 $52 forward 7 unknown #
coedge $-1 $53 $22 $16 $30 reversed $12 $-1 #
edge $-1 $54 -40 $34 0 $29 $55 forward 7 unknown #
coedge $-1 $56 $17 $22 $41 forward $32 $-1 #
loop $-1 $-1 $31 $57 #
vertex $-1 $18 $58 #
vertex $-1 $18 $59 #
straight-curve $-1 0 0 20 -1 0 0 I I #
face $-1 $60 $61 $2 $-1 $38 forward single #
loop $-1 $-1 $43 $19 #
plane-surface $-1 0 0 10 0 0 1 1 0 0 forward_v I I I I #
coedge $-1 $62 $63 $64 $65 forward $20 $-1 #
coedge $-1 $22 $66 $67 $68 reversed $12 $-1 #
edge $-1 $34 -10 $69 0 $31 $70 forward 7 unknown #
coedge $-1 $71 $23 $72 $73 reversed $8 $-1 #
coedge $-1 $74 $75 $23 $44 forward $37 $-1 #
edge $-1 $76 -10 $47 0 $43 $77 forward 7 unknown #
coedge $-1 $24 $71 $63 $78 reversed $8 $-1 #
coedge $-1 $25 $79 $74 $80 forward $32 $-1 #
vertex $-1 $80 $81 #
straight-curve $-1 10 0 10 0 0 1 I I #
coedge $-1 $63 $82 $27 $50 reversed $20 $-1 #
edge $-1 $51 -10 $54 10 $49 $83 forward 7 unknown #
vertex $-1 $28 $84 #
straight-curve $-1 10 0 20 0 1 0 I I #
coedge $-1 $85 $29 $82 $86 forward $12 $-1 #
vertex $-1 $50 $87 #
straight-curve $-1 -10 0 20 0 -1 0 I I #
coedge $-1 $88 $31 $89 $90 forward $32 $-1 #
face $-1 $91 $32 $2 $-1 $92 forward single #
point $-1 10 0 20 #
point $-1 -10 0 20 #
face $-1 $93 $94 $2 $-1 $95 forward single #
loop $-1 $-1 $67 $36 #
coedge $-1 $96 $39 $97 $98 forward $20 $-1 #
coedge $-1 $39 $49 $45 $78 forward $20 $-1 #
coedge $-1 $99 $100 $39 $65 reversed $94 $-1 #
edge $-1 $101 10 $102 60 $39 $103 forward 7 unknown #
coedge $-1 $40 $85 $104 $105 reversed $12 $-1 #
coedge $-1 $106 $89 $40 $68 forward $61 $-1 #
edge $-1 $69 0 $107 10 $67 $108 forward 7 unknown #
vertex $-1 $41 $109 #
straight-curve $-1 -10 0 10 0 0 -1 I I #
coedge $-1 $45 $42 $99 $110 reversed $8 $-1 #
coedge $-1 $111 $112 $42 $73 forward $113 $-1 #
edge $-1 $114 0 $76 10 $72 $115 forward 7 unknown #
coedge $-1 $116 $43 $46 $80 reversed $37 $-1 #
coedge $-1 $43 $116 $111 $117 forward $37 $-1 #
vertex $-1 $117 $118 #
straight-curve $-1 10 0 10 0 -1 0 I I #
edge $-1 $51 -20 $101 0 $45 $119 forward 7 unknown #
coedge $-1 $46 $120 $121 $122 forward $32 $-1 #
edge $-1 $123 -40 $47 -10 $46 $124 forward 7 unknown #
point $-1 10 0 10 #
coedge $-1 $49 $125 $53 $86 reversed $20 $-1 #
straight-curve $-1 0 40 20 -1 0 0 I I #
point $-1 10 40 20 #
coedge $-1 $66 $53 $126 $127 reversed $12 $-1 #
edge $-1 $54 -20 $128 0 $82 $129 forward 7 unknown #
point $-1 -10 40 20 #
coedge $-1 $130 $56 $131 $132 forward $32 $-1 #
coedge $-1 $67 $133 $56 $90 reversed $61 $-1 #
edge $-1 $69 10 $134 40 $56 $124 forward 7 unknown #
face $-1 $135 $136 $2 $-1 $137 forward single #
plane-surface $-1 0 0 20 0 1 0 0 0 1 forward_v I I I I #
face $-1 $138 $139 $2 $-1 $95 forward single #
loop $-1 $-1 $99 $60 #
plane-surface $-1 0 20 0 0 0 1 1 0 0 forward_v I I I I #
coedge $-1 $140 $62 $141 $142 forward $20 $-1 #
coedge $-1 $143 $144 $62 $98 reversed $145 $-1 #
edge $-1 $102 -10 $146 10 $62 $147 forward 7 unknown #
coedge $-1 $148 $64 $71 $110 forward $94 $-1 #
coedge $-1 $64 $149 $143 $150 reversed $94 $-1 #
vertex $-1 $65 $151 #
vertex $-1 $65 $152 #
straight-curve $-1 0 40 0 1 0 0 I I #
coedge $-1 $153 $154 $66 $105 forward $155 $-1 #
edge $-1 $107 -10 $156 0 $104 $157 forward 7 unknown #
coedge $-1 $133 $67 $154 $158 forward $61 $-1 #
vertex $-1 $105 $159 #
straight-curve $-1 -10 0 10 0 1 0 I I #
point $-1 -10 0 10 #
edge $-1 $101 -30 $114 0 $99 $160 forward 7 unknown #
coedge $-1 $161 $72 $75 $117 reversed $113 $-1 #
coedge $-1 $72 $161 $148 $162 reversed $113 $-1 #
loop $-1 $-1 $72 $138 #
vertex $-1 $73 $163 #
straight-curve $-1 10 10 0 0 0 1 I I #
coedge $-1 $75 $74 $164 $165 forward $37 $-1 #
edge $-1 $166 -40 $76 -10 $111 $167 forward 7 unknown #
point $-1 10 10 10 #
straight-curve $-1 10 40 0 0 0 -1 I I #
coedge $-1 $79 $168 $149 $169 forward $32 $-1 #
coedge $-1 $170 $164 $79 $122 reversed $171 $-1 #
edge $-1 $172 -10 $123 0 $79 $173 forward 7 unknown #
vertex $-1 $80 $174 #
straight-curve $-1 0 0 10 -1 0 0 I I #
coedge $-1 $82 $175 $176 $177 forward $20 $-1 #
coedge $-1 $176 $178 $85 $127 forward $139 $-1 #
edge $-1 $156 0 $128 30 $126 $179 forward 7 unknown #
vertex $-1 $177 $180 #
straight-curve $-1 -10 40 0 0 0 -1 I I #
coedge $-1 $181 $88 $182 $183 forward $32 $-1 #
coedge $-1 $184 $185 $88 $132 reversed $186 $-1 #
edge $-1 $134 0 $187 10 $88 $188 forward 7 unknown #
coedge $-1 $89 $106 $184 $189 forward $61 $-1 #
vertex $-1 $90 $190 #
face $-1 $191 $192 $2 $-1 $193 forward single #
loop $-1 $-1 $194 $91 #
plane-surface $-1 60 0 20 0 0 1 1 0 0 forward_v I I I I #
face $-1 $195 $113 $2 $-1 $196 reversed single #
loop $-1 $-1 $126 $93 #
coedge $-1 $197 $96 $198 $199 forward $20 $-1 #
coedge $-1 $194 $200 $96 $142 reversed $136 $-1 #
edge $-1 $146 30 $201 40 $96 $202 forward 7 unknown #
coedge $-1 $203 $97 $100 $150 forward $145 $-1 #
coedge $-1 $97 $203 $194 $204 forward $145 $-1 #
loop $-1 $-1 $144 $205 #
vertex $-1 $98 $206 #
straight-curve $-1 60 40 10 0 0 1 I I #
coedge $-1 $207 $99 $112 $162 forward $94 $-1 #
coedge $-1 $100 $207 $120 $169 reversed $94 $-1 #
edge $-1 $102 -20 $208 20 $143 $209 forward 7 unknown #
point $-1 10 40 0 #
point $-1 60 40 0 #
coedge $-1 $210 $104 $178 $211 reversed $155 $-1 #
coedge $-1 $104 $210 $106 $158 reversed $155 $-1 #
loop $-1 $-1 $104 $195 #
vertex $-1 $211 $212 #
straight-curve $-1 -10 10 0 0 0 -1 I I #
edge $-1 $107 10 $213 40 $154 $167 forward 7 unknown #
point $-1 -10 10 10 #
straight-curve $-1 10 10 0 0 -1 0 I I #
coedge $-1 $112 $111 $214 $215 forward $113 $-1 #
edge $-1 $114 10 $216 40 $148 $217 forward 7 unknown #
point $-1 10 10 0 #
coedge $-1 $121 $214 $116 $165 reversed $171 $-1 #
edge $-1 $123 0 $166 10 $164 $218 forward 7 unknown #
vertex $-1 $165 $219 #
straight-curve $-1 0 10 10 -1 0 0 I I #
coedge $-1 $120 $220 $203 $221 forward $32 $-1 #
edge $-1 $208 -60 $172 -40 $120 $222 forward 7 unknown #
coedge $-1 $214 $121 $207 $223 reversed $171 $-1 #
loop $-1 $-1 $121 $224 #
vertex $-1 $169 $225 #
straight-curve $-1 40 0 10 0 0 1 I I #
point $-1 40 0 10 #
coedge $-1 $125 $226 $227 $228 forward $20 $-1 #
coedge $-1 $229 $126 $125 $177 reversed $139 $-1 #
edge $-1 $230 -60 $128 -10 $125 $103 forward 7 unknown #
coedge $-1 $126 $231 $153 $211 forward $139 $-1 #
straight-curve $-1 -10 10 0 0 1 0 I I #
point $-1 -10 40 0 #
coedge $-1 $232 $130 $233 $234 reversed $32 $-1 #
coedge $-1 $231 $229 $130 $183 reversed $139 $-1 #
edge $-1 $187 40 $235 60 $130 $222 forward 7 unknown #
coedge $-1 $236 $131 $133 $189 reversed $186 $-1 #
coedge $-1 $131 $236 $231 $237 reversed $186 $-1 #
loop $-1 $-1 $131 $238 #
vertex $-1 $237 $239 #
straight-curve $-1 -40 0 10 0 0 -1 I I #
edge $-1 $213 -10 $134 0 $184 $240 forward 7 unknown #
point $-1 -40 0 10 #
face $-1 $205 $241 $2 $-1 $242 forward single #
loop $-1 $-1 $243 $135 #
plane-surface $-1 50 0 30 1 0 0 0 0 -1 forward_v I I I I #
coedge $-1 $244 $141 $144 $204 reversed $136 $-1 #
face $-1 $224 $155 $2 $-1 $196 reversed single #
plane-surface $-1 0 10 0 0 -1 0 0 0 -1 forward_v I I I I #
coedge $-1 $245 $140 $246 $247 reversed $20 $-1 #
coedge $-1 $248 $249 $140 $199 reversed $241 $-1 #
edge $-1 $201 5 $250 25 $140 $251 forward 7 unknown #
coedge $-1 $141 $252 $248 $253 reversed $136 $-1 #
vertex $-1 $142 $254 #
straight-curve $-1 30 40 20 1 0 0 I I #
coedge $-1 $144 $143 $168 $221 reversed $145 $-1 #
edge $-1 $255 -10 $146 30 $144 $256 forward 7 unknown #
face $-1 $257 $145 $2 $-1 $258 forward single #
point $-1 60 40 20 #
coedge $-1 $149 $148 $170 $223 forward $94 $-1 #
vertex $-1 $221 $259 #
straight-curve $-1 60 20 0 0 -1 0 I I #
coedge $-1 $154 $153 $236 $260 reversed $155 $-1 #
edge $-1 $261 -40 $156 -10 $178 $217 forward 7 unknown #
point $-1 -10 10 0 #
vertex $-1 $158 $262 #
coedge $-1 $164 $170 $161 $215 reversed $171 $-1 #
edge $-1 $166 -10 $216 0 $214 $263 forward 7 unknown #
vertex $-1 $162 $264 #
straight-curve $-1 0 10 0 1 0 0 I I #
straight-curve $-1 40 0 10 0 1 0 I I #
point $-1 40 10 10 #
coedge $-1 $168 $265 $244 $266 forward $32 $-1 #
edge $-1 $255 0 $208 20 $203 $267 forward 7 unknown #
straight-curve $-1 0 0 0 -1 0 0 I I #
edge $-1 $216 0 $172 10 $207 $268 forward 7 unknown #
face $-1 $238 $171 $2 $-1 $269 reversed single #
point $-1 40 0 0 #
coedge $-1 $175 $270 $271 $272 reversed $20 $-1 #
coedge $-1 $273 $274 $175 $228 reversed $275 $-1 #
edge $-1 $276 -30 $230 10 $175 $277 forward 7 unknown #
coedge $-1 $182 $176 $274 $278 reversed $139 $-1 #
vertex $-1 $177 $279 #
coedge $-1 $178 $182 $185 $237 forward $139 $-1 #
coedge $-1 $265 $181 $280 $281 reversed $32 $-1 #
coedge $-1 $274 $273 $181 $234 forward $275 $-1 #
edge $-1 $282 -20 $235 20 $233 $283 forward 7 unknown #
vertex $-1 $278 $284 #
coedge $-1 $185 $184 $210 $260 forward $186 $-1 #
edge $-1 $187 -10 $261 0 $231 $285 forward 7 unknown #
face $-1 $57 $186 $2 $-1 $286 reversed single #
point $-1 -40 0 0 #
straight-curve $-1 -40 0 10 0 -1 0 I I #
loop $-1 $-1 $287 $191 #
plane-surface $-1 70 0 30 -1 0 0 0 0 1 forward_v I I I I #
coedge $-1 $288 $289 $265 $290 reversed $192 $-1 #
coedge $-1 $291 $194 $220 $266 reversed $136 $-1 #
coedge $-1 $292 $197 $293 $294 forward $20 $-1 #
coedge $-1 $295 $296 $197 $247 forward $297 $-1 #
edge $-1 $298 -80 $250 -70 $197 $299 forward 7 unknown #
coedge $-1 $287 $198 $200 $253 forward $241 $-1 #
coedge $-1 $198 $287 $295 $300 reversed $241 $-1 #
vertex $-1 $247 $301 #
straight-curve $-1 70 40 15 0 0 1 I I #
coedge $-1 $200 $291 $302 $303 reversed $136 $-1 #
edge $-1 $201 -40 $304 40 $248 $305 forward 7 unknown #
point $-1 70 40 20 #
vertex $-1 $266 $306 #
straight-curve $-1 60 10 20 0 1 0 I I #
face $-1 $307 $297 $2 $-1 $308 forward single #
plane-surface $-1 60 20 20 -1 0 0 0 0 1 forward_v I I I I #
point $-1 60 0 0 #
edge $-1 $213 -10 $261 0 $210 $309 forward 7 unknown #
vertex $-1 $237 $310 #
point $-1 -40 10 10 #
straight-curve $-1 40 10 0 0 0 -1 I I #
point $-1 40 10 0 #
coedge $-1 $220 $232 $243 $290 forward $32 $-1 #
edge $-1 $311 20 $255 30 $220 $312 forward 7 unknown #
straight-curve $-1 60 0 20 0 0 -1 I I #
straight-curve $-1 40 10 0 0 -1 0 I I #
plane-surface $-1 40 0 0 -1 0 0 0 0 1 forward_v I I I I #
coedge $-1 $226 $292 $313 $314 reversed $20 $-1 #
coedge $-1 $315 $316 $226 $272 forward $317 $-1 #
edge $-1 $276 60 $318 80 $226 $299 forward 7 unknown #
coedge $-1 $233 $227 $316 $319 reversed $275 $-1 #
coedge $-1 $227 $233 $229 $278 forward $275 $-1 #
loop $-1 $-1 $227 $307 #
vertex $-1 $319 $320 #
straight-curve $-1 -60 40 10 0 0 -1 I I #
edge $-1 $235 -20 $230 20 $274 $321 forward 7 unknown #
point $-1 -60 40 0 #
coedge $-1 $316 $322 $232 $281 forward $317 $-1 #
edge $-1 $323 -50 $282 60 $280 $324 forward 7 unknown #
vertex $-1 $281 $325 #
straight-curve $-1 -60 0 20 0 0 -1 I I #
point $-1 -60 0 0 #
straight-curve $-1 -40 10 0 0 1 0 I I #
plane-surface $-1 -40 0 0 1 0 0 0 0 -1 forward_v I I I I #
coedge $-1 $249 $248 $326 $327 reversed $241 $-1 #
coedge $-1 $328 $243 $322 $329 reversed $192 $-1 #
coedge $-1 $243 $328 $291 $330 forward $192 $-1 #
edge $-1 $323 -15 $311 5 $265 $331 forward 7 unknown #
coedge $-1 $252 $244 $289 $330 reversed $136 $-1 #
coedge $-1 $270 $245 $332 $333 reversed $20 $-1 #
coedge $-1 $334 $335 $245 $294 reversed $336 $-1 #
edge $-1 $298 -40 $337 40 $293 $338 forward 7 unknown #
coedge $-1 $339 $246 $249 $300 forward $297 $-1 #
coedge $-1 $246 $339 $334 $340 forward $297 $-1 #
loop $-1 $-1 $295 $257 #
vertex $-1 $340 $341 #
straight-curve $-1 0 40 40 -1 0 0 I I #
edge $-1 $250 -40 $342 40 $295 $343 forward 7 unknown #
point $-1 70 40 40 #
coedge $-1 $344 $326 $252 $303 forward $345 $-1 #
edge $-1 $304 -40 $346 -20 $302 $347 forward 7 unknown #
vertex $-1 $303 $348 #
straight-curve $-1 70 0 20 0 -1 0 I I #
point $-1 60 0 20 #
face $-1 $349 $275 $2 $-1 $350 forward single #
plane-surface $-1 0 0 40 0 0 1 1 0 0 forward_v I I I I #
straight-curve $-1 -40 10 0 0 0 -1 I I #
point $-1 -40 10 0 #
vertex $-1 $266 $351 #
straight-curve $-1 30 0 20 1 0 0 I I #
coedge $-1 $352 $353 $270 $314 forward $354 $-1 #
edge $-1 $318 -40 $355 40 $270 $356 forward 7 unknown #
coedge $-1 $357 $271 $353 $358 forward $317 $-1 #
coedge $-1 $271 $280 $273 $319 forward $317 $-1 #
loop $-1 $-1 $322 $349 #
vertex $-1 $272 $359 #
edge $-1 $282 -10 $276 30 $316 $360 forward 7 unknown #
point $-1 -60 40 40 #
straight-curve $-1 -60 20 0 0 1 0 I I #
coedge $-1 $280 $357 $288 $329 forward $317 $-1 #
vertex $-1 $329 $361 #
straight-curve $-1 0 0 40 -1 0 0 I I #
point $-1 -60 0 40 #
coedge $-1 $302 $362 $287 $327 forward $345 $-1 #
edge $-1 $342 -25 $304 -5 $326 $363 forward 7 unknown #
coedge $-1 $289 $288 $344 $364 reversed $192 $-1 #
edge $-1 $365 -40 $323 0 $322 $366 forward 7 unknown #
edge $-1 $346 -40 $311 0 $289 $367 forward 7 unknown #
straight-curve $-1 50 0 25 0 0 -1 I I #
coedge $-1 $368 $369 $292 $333 forward $370 $-1 #
edge $-1 $355 -80 $337 80 $292 $371 forward 7 unknown #
coedge $-1 $372 $293 $296 $340 reversed $336 $-1 #
coedge $-1 $293 $372 $368 $373 reversed $336 $-1 #
loop $-1 $-1 $372 $374 #
vertex $-1 $373 $375 #
straight-curve $-1 80 40 0 0 0 -1 I I #
coedge $-1 $296 $295 $362 $376 forward $297 $-1 #
edge $-1 $377 -40 $298 40 $334 $378 forward 7 unknown #
point $-1 80 40 40 #
vertex $-1 $327 $379 #
straight-curve $-1 70 0 40 0 -1 0 I I #
coedge $-1 $380 $302 $328 $364 forward $345 $-1 #
loop $-1 $-1 $344 $381 #
vertex $-1 $303 $382 #
straight-curve $-1 30 -40 20 -1 0 0 I I #
point $-1 70 -40 20 #
face $-1 $383 $317 $2 $-1 $308 forward single #
plane-surface $-1 -60 20 20 1 0 0 0 0 -1 forward_v I I I I #
point $-1 50 0 20 #
coedge $-1 $384 $313 $369 $385 reversed $354 $-1 #
coedge $-1 $313 $384 $315 $358 reversed $354 $-1 #
loop $-1 $-1 $313 $386 #
vertex $-1 $333 $387 #
straight-curve $-1 -80 40 0 0 0 -1 I I #
coedge $-1 $322 $315 $380 $388 forward $317 $-1 #
edge $-1 $318 -40 $389 40 $353 $390 forward 7 unknown #
point $-1 -80 40 40 #
straight-curve $-1 -60 10 40 0 1 0 I I #
point $-1 50 0 40 #
coedge $-1 $326 $391 $339 $376 reversed $345 $-1 #
straight-curve $-1 70 -40 15 0 0 -1 I I #
edge $-1 $346 5 $365 25 $344 $392 forward 7 unknown #
vertex $-1 $388 $393 #
straight-curve $-1 50 0 40 0 1 0 I I #
straight-curve $-1 50 0 20 0 1 0 I I #
coedge $-1 $394 $332 $335 $373 forward $370 $-1 #
coedge $-1 $332 $394 $352 $385 forward $370 $-1 #
loop $-1 $-1 $368 $383 #
straight-curve $-1 0 40 -40 1 0 0 I I #
coedge $-1 $335 $334 $391 $395 forward $336 $-1 #
edge $-1 $337 -40 $396 40 $335 $397 forward 7 unknown #
face $-1 $-1 $336 $2 $-1 $398 reversed single #
point $-1 80 40 -40 #
edge $-1 $342 70 $377 80 $362 $399 forward 7 unknown #
vertex $-1 $340 $400 #
straight-curve $-1 80 0 40 0 1 0 I I #
point $-1 70 -40 40 #
coedge $-1 $401 $344 $357 $388 reversed $345 $-1 #
face $-1 $386 $345 $2 $-1 $402 reversed single #
point $-1 50 -40 20 #
face $-1 $381 $370 $2 $-1 $403 reversed single #
coedge $-1 $353 $352 $401 $404 reversed $354 $-1 #
edge $-1 $405 -40 $355 40 $352 $406 forward 7 unknown #
face $-1 $374 $354 $2 $-1 $407 reversed single #
point $-1 -80 40 -40 #
edge $-1 $389 -80 $365 50 $380 $399 forward 7 unknown #
vertex $-1 $358 $408 #
straight-curve $-1 -80 0 40 0 -1 0 I I #
coedge $-1 $362 $409 $372 $395 reversed $345 $-1 #
straight-curve $-1 50 -40 15 0 0 1 I I #
point $-1 50 -40 40 #
coedge $-1 $369 $368 $409 $410 forward $370 $-1 #
edge $-1 $377 -40 $396 40 $372 $411 forward 7 unknown #
vertex $-1 $395 $412 #
straight-curve $-1 80 0 -40 0 -1 0 I I #
plane-surface $-1 80 0 0 -1 0 0 0 0 1 forward_v I I I I #
straight-curve $-1 0 -40 40 1 0 0 I I #
point $-1 80 -40 40 #
coedge $-1 $409 $380 $384 $404 forward $345 $-1 #
plane-surface $-1 0 -40 0 0 1 0 0 0 1 forward_v I I I I #
plane-surface $-1 0 0 -40 0 0 1 1 0 0 forward_v I I I I #
edge $-1 $389 -40 $405 40 $384 $413 forward 7 unknown #
vertex $-1 $385 $414 #
straight-curve $-1 -80 0 -40 0 1 0 I I #
plane-surface $-1 -80 0 0 1 0 0 0 0 -1 forward_v I I I I #
point $-1 -80 -40 40 #
coedge $-1 $391 $401 $394 $410 reversed $345 $-1 #
edge $-1 $396 -80 $405 80 $409 $415 forward 7 unknown #
straight-curve $-1 80 -40 0 0 0 -1 I I #
point $-1 80 -40 -40 #
straight-curve $-1 -80 -40 0 0 0 -1 I I #
point $-1 -80 -40 -40 #
straight-curve $-1 0 -40 -40 -1 0 0 I I #
End-of-ACIS-data 