600 0 2 0           
24 FBMach with ACIS - 6.0.3 13 ACIS 6.0.3 NT 24 Wed May 23 20:18:38 2001 
1 9.9999999999999995e-007 1e-010 
body $2 $3 $-1 $4 #
bdycol-kcp $-1 1 4 $5 $6 $7 $8 #
model_id-kcp-attrib $-1 $-1 $-1 $0 1 990663517 50 1479671809 1 #
lump $-1 $-1 $9 $0 #
transform $-1 1 0 0 0 1 0 0 0 1 0 0 0 1 no_rotate no_reflect no_shear #
body $10 $11 $-1 $12 #
body $13 $14 $-1 $15 #
body $16 $17 $-1 $18 #
body $19 $20 $-1 $21 #
shell $-1 $-1 $-1 $22 $-1 $3 #
model_id-kcp-attrib $-1 $-1 $-1 $5 1 990663517 60 1480327170 1 #
lump $-1 $-1 $23 $5 #
transform $-1 1 0 0 0 1 0 0 0 1 0 0 0 1 no_rotate no_reflect no_shear #
rgb_color-st-attrib $-1 $24 $-1 $6 1 0 0 #
lump $-1 $-1 $25 $6 #
transform $-1 1 0 0 0 1 0 0 0 1 60 0 215.95917942265424 1 no_rotate no_reflect no_shear #
rgb_color-st-attrib $-1 $26 $-1 $7 0.59999999999999998 0.90000000000000002 1 #
lump $-1 $-1 $27 $7 #
transform $-1 1 0 0 0 1 0 0 0 1 0 0 0 1 no_rotate no_reflect no_shear #
rgb_color-st-attrib $-1 $28 $-1 $8 0.59999999999999998 0.90000000000000002 1 #
lump $-1 $-1 $29 $8 #
transform $-1 1 0 0 0 1 0 0 0 1 0 0 0 1 no_rotate no_reflect no_shear #
face $30 $31 $32 $9 $-1 $33 forward single #
shell $-1 $-1 $-1 $34 $-1 $11 #
model_id-kcp-attrib $-1 $-1 $13 $6 1 990663517 290 1478623235 1 #
shell $-1 $-1 $-1 $35 $-1 $14 #
model_id-kcp-attrib $-1 $-1 $16 $7 1 990663517 680 1487405060 1 #
shell $-1 $-1 $-1 $36 $-1 $17 #
model_id-kcp-attrib $-1 $-1 $19 $8 1 990663517 911 1485766661 1 #
shell $-1 $-1 $-1 $37 $-1 $20 #
model_id-kcp-attrib $-1 $-1 $-1 $22 1 990663517 50 1479671809 2 #
face $38 $39 $40 $9 $-1 $41 reversed single #
loop $-1 $-1 $42 $22 #
plane-surface $-1 0 0 20 0 0 1 1 0 0 forward_v I I I I #
face $43 $44 $45 $23 $-1 $46 forward single #
face $-1 $47 $48 $25 $-1 $49 reversed single #
face $-1 $50 $51 $27 $-1 $52 forward single #
face $-1 $53 $54 $29 $-1 $55 forward single #
model_id-kcp-attrib $-1 $-1 $-1 $31 1 990663517 50 1479671809 3 #
face $56 $57 $58 $9 $-1 $59 reversed single #
loop $-1 $-1 $60 $31 #
plane-surface $-1 10 0 0 -1 0 0 0 0 1 forward_v I I I I #
coedge $-1 $61 $62 $63 $64 reversed $32 $-1 #
model_id-kcp-attrib $-1 $65 $-1 $34 1 990663517 60 1480327170 4 #
face $66 $67 $68 $23 $-1 $69 reversed single #
loop $-1 $-1 $70 $34 #
plane-surface $-1 0 0 40 0 0 1 1 0 0 forward_v I I I I #
face $-1 $71 $72 $25 $-1 $73 reversed single #
loop $-1 $-1 $74 $35 #
plane-surface $-1 -60 40 -215.95917942265424 0 -1 0 0 0 -1 forward_v I I I I #
face $-1 $75 $76 $27 $-1 $77 forward single #
loop $-1 $-1 $78 $36 #
plane-surface $-1 50 0 40 0 0 1 1 0 0 forward_v I I I I #
face $-1 $79 $80 $29 $-1 $81 forward single #
loop $-1 $-1 $82 $37 #
plane-surface $-1 50 10 40 0 0 1 1 0 0 forward_v I I I I #
model_id-kcp-attrib $-1 $-1 $-1 $39 1 990663517 50 1479671809 4 #
face $83 $84 $85 $9 $-1 $86 reversed single #
loop $-1 $-1 $87 $39 #
plane-surface $-1 -10 0 0 1 0 0 0 0 -1 forward_v I I I I #
coedge $-1 $88 $89 $90 $91 reversed $40 $-1 #
coedge $-1 $92 $42 $89 $93 forward $32 $-1 #
coedge $-1 $42 $92 $94 $95 forward $32 $-1 #
coedge $-1 $96 $90 $42 $64 forward $97 $-1 #
edge $-1 $98 -10 $99 10 $63 $100 forward 7 unknown #
model_id-kcp-attrib $-1 $-1 $43 $34 1 990663517 60 1480327170 3 #
model_id-kcp-attrib $-1 $-1 $-1 $44 1 990663517 60 1480327170 5 #
face $101 $102 $103 $23 $-1 $104 reversed single #
loop $-1 $-1 $105 $44 #
plane-surface $-1 0 0 -40 0 0 1 1 0 0 forward_v I I I I #
coedge $-1 $106 $107 $108 $109 forward $45 $-1 #
face $-1 $110 $111 $25 $-1 $112 forward single #
loop $-1 $-1 $113 $47 #
plane-surface $-1 -60 -40 -215.95917942265424 0 1 0 0 0 1 forward_v I I I I #
coedge $-1 $114 $115 $116 $117 forward $48 $-1 #
face $-1 $118 $119 $27 $-1 $120 forward single #
loop $-1 $-1 $121 $50 #
plane-surface $-1 -60 0 40 -1 0 0 0 0 1 forward_v I I I I #
coedge $-1 $122 $123 $124 $125 forward $51 $-1 #
face $-1 $126 $127 $29 $-1 $128 forward single #
loop $-1 $-1 $129 $53 #
plane-surface $-1 -60 10 40 -1 0 0 0 0 1 forward_v I I I I #
coedge $-1 $130 $131 $132 $133 forward $54 $-1 #
model_id-kcp-attrib $-1 $-1 $-1 $57 1 990663517 50 1479671809 5 #
face $134 $135 $136 $9 $-1 $137 forward single #
loop $-1 $-1 $138 $57 #
plane-surface $-1 0 40 0 0 -1 0 0 0 -1 forward_v I I I I #
coedge $-1 $94 $139 $96 $140 reversed $58 $-1 #
coedge $-1 $141 $60 $142 $143 reversed $40 $-1 #
coedge $-1 $60 $144 $61 $93 reversed $40 $-1 #
coedge $-1 $63 $145 $60 $91 forward $97 $-1 #
edge $-1 $146 0 $98 10 $90 $147 forward 7 unknown #
coedge $-1 $62 $61 $148 $149 forward $32 $-1 #
edge $-1 $98 0 $150 40 $89 $151 forward 7 unknown #
coedge $-1 $152 $87 $62 $95 reversed $58 $-1 #
edge $-1 $153 -40 $99 0 $94 $154 forward 7 unknown #
coedge $-1 $155 $63 $87 $140 forward $97 $-1 #
loop $-1 $-1 $96 $156 #
vertex $-1 $64 $157 #
vertex $-1 $64 $158 #
straight-curve $-1 0 0 20 -1 0 0 I I #
model_id-kcp-attrib $-1 $-1 $-1 $67 1 990663517 60 1480327170 6 #
face $159 $160 $161 $23 $-1 $162 reversed single #
loop $-1 $-1 $163 $67 #
plane-surface $-1 0 -40 0 0 1 0 0 0 1 forward_v I I I I #
coedge $-1 $164 $165 $166 $167 forward $68 $-1 #
coedge $-1 $168 $70 $169 $170 forward $45 $-1 #
coedge $-1 $70 $168 $171 $172 forward $45 $-1 #
coedge $-1 $173 $174 $70 $109 reversed $175 $-1 #
edge $-1 $176 -40 $177 40 $108 $178 forward 7 unknown #
face $-1 $179 $180 $25 $-1 $181 reversed single #
loop $-1 $-1 $182 $71 #
plane-surface $-1 -60 0 -175.95917942265424 0 0 1 1 0 0 forward_v I I I I #
coedge $-1 $183 $184 $185 $186 forward $72 $-1 #
coedge $-1 $187 $74 $188 $189 reversed $48 $-1 #
coedge $-1 $74 $187 $190 $191 forward $48 $-1 #
coedge $-1 $192 $193 $74 $117 reversed $194 $-1 #
edge $-1 $195 -87.979589711327122 $196 -67.979589711327122 $116 $197 forward 7 unknown #
face $-1 $198 $199 $27 $-1 $200 forward single #
loop $-1 $-1 $201 $75 #
plane-surface $-1 -60 0 0 0 0 -1 -1 0 0 forward_v I I I I #
coedge $-1 $202 $203 $204 $205 forward $76 $-1 #
coedge $-1 $206 $78 $203 $207 reversed $51 $-1 #
coedge $-1 $78 $206 $208 $209 forward $51 $-1 #
coedge $-1 $210 $204 $78 $125 reversed $211 $-1 #
edge $-1 $212 -50 $213 60 $78 $214 forward 7 unknown #
face $-1 $215 $216 $29 $-1 $217 forward single #
loop $-1 $-1 $218 $79 #
plane-surface $-1 -60 10 0 0 0 -1 -1 0 0 forward_v I I I I #
coedge $-1 $219 $220 $221 $222 forward $80 $-1 #
coedge $-1 $223 $82 $220 $224 reversed $54 $-1 #
coedge $-1 $82 $223 $225 $226 forward $54 $-1 #
coedge $-1 $227 $221 $82 $133 reversed $228 $-1 #
edge $-1 $229 -50 $230 60 $82 $231 forward 7 unknown #
model_id-kcp-attrib $-1 $-1 $-1 $84 1 990663517 50 1479671809 6 #
face $232 $233 $234 $9 $-1 $137 forward single #
loop $-1 $-1 $142 $84 #
plane-surface $-1 0 0 10 0 0 1 1 0 0 forward_v I I I I #
coedge $-1 $235 $236 $237 $238 forward $85 $-1 #
coedge $-1 $87 $239 $240 $241 reversed $58 $-1 #
edge $-1 $99 -10 $242 0 $96 $243 forward 7 unknown #
coedge $-1 $244 $88 $245 $246 reversed $40 $-1 #
coedge $-1 $247 $248 $88 $143 forward $136 $-1 #
edge $-1 $249 -10 $146 0 $142 $250 forward 7 unknown #
coedge $-1 $89 $244 $236 $251 reversed $40 $-1 #
coedge $-1 $90 $252 $247 $253 forward $97 $-1 #
vertex $-1 $253 $254 #
straight-curve $-1 10 0 10 0 0 1 I I #
coedge $-1 $236 $255 $92 $149 reversed $85 $-1 #
edge $256 $150 -10 $153 10 $148 $257 forward 7 unknown #
vertex $-1 $93 $258 #
straight-curve $-1 10 0 20 0 1 0 I I #
coedge $-1 $259 $94 $255 $260 forward $58 $-1 #
vertex $-1 $149 $261 #
straight-curve $-1 -10 0 20 0 -1 0 I I #
coedge $-1 $262 $96 $263 $264 forward $97 $-1 #
face $265 $266 $97 $9 $-1 $267 forward single #
point $-1 10 0 20 #
point $-1 -10 0 20 #
model_id-kcp-attrib $-1 $-1 $-1 $102 1 990663517 60 1480327170 7 #
face $268 $269 $270 $23 $-1 $271 reversed single #
loop $-1 $-1 $272 $102 #
plane-surface $-1 -80 0 0 1 0 0 0 0 -1 forward_v I I I I #
coedge $-1 $273 $171 $274 $275 forward $103 $-1 #
coedge $-1 $276 $105 $273 $277 forward $68 $-1 #
coedge $-1 $105 $276 $278 $279 forward $68 $-1 #
coedge $-1 $174 $173 $105 $167 reversed $175 $-1 #
edge $-1 $280 -40 $281 40 $166 $282 forward 7 unknown #
coedge $-1 $107 $106 $283 $284 forward $45 $-1 #
coedge $-1 $285 $286 $106 $170 reversed $270 $-1 #
edge $-1 $177 -80 $287 80 $169 $288 forward 7 unknown #
coedge $-1 $163 $289 $107 $172 reversed $103 $-1 #
edge $-1 $290 -80 $176 80 $171 $291 forward 7 unknown #
coedge $-1 $166 $108 $289 $292 forward $175 $-1 #
coedge $-1 $108 $166 $285 $293 reversed $175 $-1 #
loop $-1 $-1 $173 $269 #
vertex $-1 $109 $294 #
vertex $-1 $109 $295 #
straight-curve $-1 80 0 40 0 1 0 I I #
face $-1 $296 $297 $25 $-1 $298 reversed single #
loop $-1 $-1 $190 $110 #
plane-surface $-1 0 0 -195.95917942265424 0 0 1 1 0 0 forward_v I I I I #
coedge $-1 $299 $188 $193 $300 forward $111 $-1 #
coedge $-1 $301 $113 $302 $303 forward $72 $-1 #
coedge $-1 $113 $301 $299 $304 reversed $72 $-1 #
coedge $-1 $193 $192 $113 $186 reversed $194 $-1 #
edge $-1 $305 67.979589711327122 $306 87.979589711327122 $185 $307 forward 7 unknown #
coedge $-1 $115 $114 $308 $309 forward $48 $-1 #
coedge $-1 $182 $310 $114 $189 forward $111 $-1 #
edge $-1 $311 -70 $196 -50 $114 $312 forward 7 unknown #
coedge $-1 $313 $314 $115 $191 reversed $180 $-1 #
edge $315 $316 -40 $195 -20 $190 $317 forward 7 unknown #
coedge $-1 $185 $116 $314 $318 reversed $194 $-1 #
coedge $-1 $116 $185 $182 $300 reversed $194 $-1 #
loop $-1 $-1 $192 $296 #
vertex $-1 $191 $319 #
vertex $-1 $117 $320 #
straight-curve $-1 -10 40 -107.97958971132712 0 0 1 I I #
face $-1 $321 $322 $27 $-1 $323 forward single #
loop $-1 $-1 $324 $118 #
plane-surface $-1 -40 0 0 1 0 0 0 0 -1 forward_v I I I I #
coedge $-1 $325 $326 $327 $328 forward $119 $-1 #
coedge $-1 $329 $121 $326 $330 reversed $76 $-1 #
coedge $-1 $121 $329 $122 $207 forward $76 $-1 #
coedge $-1 $124 $327 $121 $205 reversed $211 $-1 #
edge $-1 $213 -20 $331 20 $121 $332 forward 7 unknown #
coedge $-1 $123 $122 $333 $334 reversed $51 $-1 #
edge $-1 $335 0 $213 10 $203 $336 forward 7 unknown #
coedge $-1 $337 $338 $123 $209 reversed $339 $-1 #
edge $-1 $340 0 $212 10 $123 $341 forward 7 unknown #
coedge $-1 $342 $124 $338 $343 reversed $211 $-1 #
loop $-1 $-1 $124 $344 #
vertex $-1 $209 $345 #
vertex $-1 $207 $346 #
straight-curve $-1 0 10 40 -1 0 0 I I #
face $-1 $347 $348 $29 $-1 $349 forward single #
loop $-1 $-1 $350 $126 #
plane-surface $-1 -10 10 0 1 0 0 0 0 -1 forward_v I I I I #
coedge $-1 $351 $352 $353 $354 forward $127 $-1 #
coedge $-1 $355 $129 $352 $356 reversed $80 $-1 #
coedge $-1 $129 $355 $130 $224 forward $80 $-1 #
coedge $-1 $132 $353 $129 $222 reversed $228 $-1 #
edge $-1 $230 -20 $357 20 $129 $358 forward 7 unknown #
coedge $-1 $131 $130 $359 $360 reversed $54 $-1 #
edge $-1 $361 0 $230 30 $220 $362 forward 7 unknown #
coedge $-1 $363 $364 $131 $226 reversed $365 $-1 #
edge $-1 $366 0 $229 30 $131 $367 forward 7 unknown #
coedge $-1 $368 $132 $364 $369 reversed $228 $-1 #
loop $-1 $-1 $132 $370 #
vertex $-1 $226 $371 #
vertex $-1 $224 $372 #
straight-curve $-1 0 40 40 -1 0 0 I I #
model_id-kcp-attrib $-1 $-1 $-1 $135 1 990663517 50 1479671809 7 #
face $373 $374 $375 $9 $-1 $376 forward single #
loop $-1 $-1 $240 $135 #
coedge $-1 $377 $138 $378 $379 forward $85 $-1 #
coedge $-1 $138 $148 $144 $251 forward $85 $-1 #
coedge $-1 $380 $381 $138 $238 reversed $375 $-1 #
edge $382 $383 10 $384 60 $138 $385 forward 7 unknown #
coedge $-1 $139 $259 $386 $387 reversed $58 $-1 #
coedge $-1 $388 $263 $139 $241 forward $234 $-1 #
edge $-1 $242 0 $389 10 $240 $390 forward 7 unknown #
vertex $-1 $140 $391 #
straight-curve $-1 -10 0 10 0 0 -1 I I #
coedge $-1 $144 $141 $380 $392 reversed $40 $-1 #
coedge $-1 $393 $394 $141 $246 forward $395 $-1 #
edge $-1 $396 0 $249 10 $245 $397 forward 7 unknown #
coedge $-1 $398 $142 $145 $253 reversed $136 $-1 #
coedge $-1 $142 $398 $393 $399 forward $136 $-1 #
vertex $-1 $399 $400 #
straight-curve $-1 10 0 10 0 -1 0 I I #
edge $401 $150 -20 $383 0 $144 $402 forward 7 unknown #
coedge $-1 $145 $403 $404 $405 forward $97 $-1 #
edge $-1 $406 -40 $146 -10 $145 $407 forward 7 unknown #
point $-1 10 0 10 #
coedge $-1 $148 $408 $152 $260 reversed $85 $-1 #
attrib_edge_convexity-kcp-attrib $-1 $409 $-1 $149 1 #
straight-curve $-1 0 40 20 -1 0 0 I I #
point $-1 10 40 20 #
coedge $-1 $239 $152 $410 $411 reversed $58 $-1 #
edge $412 $153 -20 $413 0 $255 $414 forward 7 unknown #
point $-1 -10 40 20 #
coedge $-1 $415 $155 $416 $417 forward $97 $-1 #
coedge $-1 $240 $418 $155 $264 reversed $234 $-1 #
edge $-1 $242 10 $419 40 $155 $407 forward 7 unknown #
model_id-kcp-attrib $-1 $-1 $-1 $156 1 990663517 50 1479671809 14 #
face $420 $421 $422 $9 $-1 $423 forward single #
plane-surface $-1 0 0 20 0 1 0 0 0 1 forward_v I I I I #
model_id-kcp-attrib $-1 $-1 $-1 $160 1 990663517 60 1480327170 2 #
face $424 $-1 $175 $23 $-1 $425 reversed single #
loop $-1 $-1 $285 $160 #
plane-surface $-1 0 40 0 0 -1 0 0 0 -1 forward_v I I I I #
coedge $-1 $426 $283 $286 $427 forward $161 $-1 #
coedge $-1 $289 $163 $164 $277 reversed $103 $-1 #
coedge $-1 $283 $426 $163 $275 reversed $161 $-1 #
edge $-1 $290 -40 $428 40 $274 $429 forward 7 unknown #
coedge $-1 $165 $164 $426 $430 forward $68 $-1 #
edge $-1 $281 -80 $428 80 $273 $431 forward 7 unknown #
coedge $-1 $286 $285 $165 $279 reversed $270 $-1 #
edge $-1 $432 -80 $280 80 $278 $433 forward 7 unknown #
vertex $-1 $167 $434 #
vertex $-1 $292 $435 #
straight-curve $-1 80 0 -40 0 -1 0 I I #
coedge $-1 $272 $274 $168 $284 reversed $161 $-1 #
edge $-1 $287 -40 $290 40 $283 $436 forward 7 unknown #
coedge $-1 $278 $169 $174 $293 forward $270 $-1 #
coedge $-1 $169 $278 $272 $427 reversed $270 $-1 #
vertex $-1 $170 $437 #
straight-curve $-1 0 40 40 -1 0 0 I I #
coedge $-1 $171 $273 $173 $292 reversed $103 $-1 #
vertex $-1 $284 $438 #
straight-curve $-1 0 -40 40 1 0 0 I I #
edge $-1 $176 -40 $281 40 $173 $439 forward 7 unknown #
edge $-1 $177 -40 $280 40 $174 $440 forward 7 unknown #
point $-1 80 -40 40 #
point $-1 80 40 40 #
face $-1 $-1 $194 $25 $-1 $441 reversed single #
loop $-1 $-1 $308 $179 #
plane-surface $-1 10 0 0 -1 0 0 0 0 1 forward_v I I I I #
coedge $-1 $310 $182 $184 $304 forward $111 $-1 #
edge $-1 $196 -40 $305 40 $193 $442 forward 7 unknown #
coedge $-1 $184 $183 $443 $444 forward $72 $-1 #
coedge $-1 $314 $313 $183 $303 reversed $180 $-1 #
edge $445 $306 20 $446 40 $302 $447 forward 7 unknown #
edge $-1 $305 50 $448 70 $184 $449 forward 7 unknown #
vertex $-1 $186 $450 #
vertex $-1 $318 $451 #
straight-curve $-1 -10 -40 -107.97958971132712 0 0 -1 I I #
coedge $-1 $452 $453 $187 $309 reversed $297 $-1 #
edge $-1 $311 67.979589711327122 $316 87.979589711327122 $308 $454 forward 7 unknown #
coedge $-1 $188 $299 $452 $455 forward $111 $-1 #
vertex $-1 $309 $456 #
straight-curve $-1 -60 40 -175.95917942265424 -1 0 0 I I #
coedge $-1 $302 $190 $453 $457 forward $180 $-1 #
coedge $-1 $190 $302 $192 $318 forward $180 $-1 #
convexity-sys-attrib $-1 $-1 $-1 $191 #
vertex $-1 $457 $458 #
straight-curve $-1 -30 40 -195.95917942265424 -1 0 0 I I #
edge $459 $306 -40 $195 40 $192 $460 forward 7 unknown #
point $-1 -10 40 -195.95917942265424 #
point $-1 -10 40 -175.95917942265424 #
face $-1 $461 $462 $27 $-1 $463 forward single #
loop $-1 $-1 $464 $198 #
plane-surface $-1 -40 0 10 0 0 -1 -1 0 0 forward_v I I I I #
coedge $-1 $465 $466 $467 $468 forward $199 $-1 #
coedge $-1 $469 $201 $466 $470 reversed $119 $-1 #
coedge $-1 $201 $469 $202 $330 forward $119 $-1 #
coedge $-1 $204 $467 $201 $328 reversed $211 $-1 #
edge $-1 $331 -60 $471 -40 $201 $472 forward 7 unknown #
coedge $-1 $203 $202 $473 $474 reversed $76 $-1 #
edge $475 $476 0 $331 10 $326 $477 forward 7 unknown #
vertex $-1 $330 $478 #
straight-curve $-1 -60 10 20 0 0 -1 I I #
coedge $-1 $473 $479 $206 $334 forward $480 $-1 #
edge $481 $340 -50 $335 60 $206 $482 forward 7 unknown #
vertex $-1 $334 $483 #
straight-curve $-1 -60 0 40 0 1 0 I I #
coedge $-1 $484 $208 $479 $485 reversed $339 $-1 #
coedge $-1 $208 $484 $210 $343 forward $339 $-1 #
loop $-1 $-1 $338 $486 #
vertex $-1 $485 $487 #
straight-curve $-1 50 0 40 0 1 0 I I #
coedge $-1 $488 $210 $489 $490 reversed $211 $-1 #
edge $-1 $491 -97.979589711327122 $212 -77.979589711327122 $338 $492 forward 7 unknown #
face $-1 $493 $211 $27 $-1 $494 forward single #
point $-1 50 10 40 #
point $-1 -60 10 40 #
face $-1 $495 $496 $29 $-1 $497 forward single #
loop $-1 $-1 $498 $215 #
plane-surface $-1 -10 10 20 0 0 -1 -1 0 0 forward_v I I I I #
coedge $-1 $499 $500 $501 $502 forward $216 $-1 #
coedge $-1 $503 $218 $500 $504 reversed $127 $-1 #
coedge $-1 $218 $503 $219 $356 forward $127 $-1 #
coedge $-1 $221 $501 $218 $354 reversed $228 $-1 #
edge $-1 $357 -60 $505 -10 $218 $506 forward 7 unknown #
coedge $-1 $220 $219 $507 $508 reversed $80 $-1 #
edge $509 $510 0 $357 30 $352 $511 forward 7 unknown #
vertex $-1 $356 $512 #
straight-curve $-1 -60 40 20 0 0 -1 I I #
coedge $-1 $507 $513 $223 $360 forward $514 $-1 #
edge $515 $366 -50 $361 60 $223 $516 forward 7 unknown #
vertex $-1 $360 $517 #
straight-curve $-1 -60 10 40 0 1 0 I I #
coedge $-1 $518 $225 $513 $519 reversed $365 $-1 #
coedge $-1 $225 $518 $227 $369 forward $365 $-1 #
loop $-1 $-1 $364 $520 #
vertex $-1 $519 $521 #
straight-curve $-1 50 10 40 0 1 0 I I #
coedge $-1 $522 $227 $523 $524 reversed $228 $-1 #
edge $-1 $525 -97.979589711327122 $229 -77.979589711327122 $364 $526 forward 7 unknown #
face $-1 $527 $228 $29 $-1 $528 forward single #
point $-1 50 40 40 #
point $-1 -60 40 40 #
model_id-kcp-attrib $-1 $-1 $-1 $233 1 990663517 50 1479671809 8 #
face $529 $530 $531 $9 $-1 $376 forward single #
loop $-1 $-1 $380 $233 #
plane-surface $-1 0 20 0 0 0 1 1 0 0 forward_v I I I I #
coedge $-1 $532 $235 $533 $534 forward $85 $-1 #
coedge $-1 $535 $536 $235 $379 reversed $537 $-1 #
edge $538 $384 -10 $539 10 $235 $540 forward 7 unknown #
coedge $-1 $541 $237 $244 $392 forward $375 $-1 #
coedge $-1 $237 $542 $535 $543 reversed $375 $-1 #
attrib_edge_convexity-kcp-attrib $-1 $544 $-1 $238 1 #
vertex $-1 $238 $545 #
vertex $-1 $238 $546 #
straight-curve $-1 0 40 0 1 0 0 I I #
coedge $-1 $547 $548 $239 $387 forward $549 $-1 #
edge $-1 $389 -10 $550 0 $386 $551 forward 7 unknown #
coedge $-1 $418 $240 $548 $552 forward $234 $-1 #
vertex $-1 $387 $553 #
straight-curve $-1 -10 0 10 0 1 0 I I #
point $-1 -10 0 10 #
edge $-1 $383 -30 $396 0 $380 $554 forward 7 unknown #
coedge $-1 $555 $245 $248 $399 reversed $395 $-1 #
coedge $-1 $245 $555 $541 $556 reversed $395 $-1 #
loop $-1 $-1 $245 $530 #
vertex $-1 $246 $557 #
straight-curve $-1 10 10 0 0 0 1 I I #
coedge $-1 $248 $247 $558 $559 forward $136 $-1 #
edge $-1 $560 -40 $249 -10 $393 $561 forward 7 unknown #
point $-1 10 10 10 #
attrib_edge_convexity-kcp-attrib $-1 $562 $-1 $251 1 #
straight-curve $-1 10 40 0 0 0 -1 I I #
coedge $-1 $252 $563 $542 $564 forward $97 $-1 #
coedge $-1 $565 $558 $252 $405 reversed $566 $-1 #
edge $-1 $567 -10 $406 0 $252 $568 forward 7 unknown #
vertex $-1 $253 $569 #
straight-curve $-1 0 0 10 -1 0 0 I I #
coedge $-1 $255 $570 $571 $572 forward $85 $-1 #
convexity-sys-attrib $-1 $-1 $256 $149 #
coedge $-1 $571 $573 $259 $411 forward $531 $-1 #
edge $-1 $550 0 $413 30 $410 $574 forward 7 unknown #
attrib_edge_convexity-kcp-attrib $-1 $575 $-1 $260 1 #
vertex $-1 $572 $576 #
straight-curve $-1 -10 40 0 0 0 -1 I I #
coedge $-1 $577 $262 $578 $579 forward $97 $-1 #
coedge $-1 $580 $581 $262 $417 reversed $582 $-1 #
edge $-1 $419 0 $583 10 $262 $584 forward 7 unknown #
coedge $-1 $263 $388 $580 $585 forward $234 $-1 #
vertex $-1 $264 $586 #
model_id-kcp-attrib $-1 $-1 $-1 $266 1 990663517 50 1479671809 15 #
face $587 $588 $589 $9 $-1 $590 forward single #
loop $-1 $-1 $591 $266 #
plane-surface $-1 60 0 20 0 0 1 1 0 0 forward_v I I I I #
model_id-kcp-attrib $-1 $-1 $-1 $269 1 990663517 60 1480327170 8 #
plane-surface $-1 80 0 0 -1 0 0 0 0 1 forward_v I I I I #
coedge $-1 $274 $272 $276 $430 reversed $161 $-1 #
edge $-1 $287 -40 $432 40 $286 $592 forward 7 unknown #
vertex $-1 $430 $593 #
straight-curve $-1 -80 -40 0 0 0 -1 I I #
edge $-1 $428 -40 $432 40 $426 $594 forward 7 unknown #
straight-curve $-1 0 -40 -40 -1 0 0 I I #
vertex $-1 $279 $595 #
straight-curve $-1 0 40 -40 1 0 0 I I #
point $-1 80 40 -40 #
point $-1 80 -40 -40 #
straight-curve $-1 -80 0 40 0 -1 0 I I #
point $-1 -80 40 40 #
point $-1 -80 -40 40 #
straight-curve $-1 80 -40 0 0 0 -1 I I #
straight-curve $-1 80 40 0 0 0 -1 I I #
plane-surface $-1 -10 0 0 1 0 0 0 0 -1 forward_v I I I I #
straight-curve $-1 -10 0 -175.95917942265424 0 -1 0 I I #
coedge $-1 $453 $452 $301 $444 reversed $297 $-1 #
edge $-1 $446 -87.979589711327122 $448 -67.979589711327122 $443 $596 forward 7 unknown #
convexity-sys-attrib $-1 $-1 $-1 $303 #
vertex $-1 $303 $597 #
straight-curve $-1 -30 -40 -195.95917942265424 1 0 0 I I #
vertex $-1 $444 $598 #
straight-curve $-1 -60 -40 -175.95917942265424 1 0 0 I I #
point $-1 -10 -40 -175.95917942265424 #
point $-1 -10 -40 -195.95917942265424 #
coedge $-1 $443 $308 $310 $455 reversed $297 $-1 #
coedge $-1 $308 $443 $313 $457 reversed $297 $-1 #
straight-curve $-1 10 40 -107.97958971132712 0 0 -1 I I #
edge $-1 $448 -40 $311 40 $452 $599 forward 7 unknown #
point $-1 10 40 -175.95917942265424 #
edge $600 $316 -40 $446 40 $453 $601 forward 7 unknown #
point $-1 10 40 -195.95917942265424 #
convexity-sys-attrib $-1 $-1 $-1 $318 #
straight-curve $-1 -10 0 -195.95917942265424 0 1 0 I I #
face $-1 $602 $603 $27 $-1 $604 forward single #
loop $-1 $-1 $605 $321 #
plane-surface $-1 -10 0 10 1 0 0 0 0 -1 forward_v I I I I #
coedge $-1 $606 $607 $608 $609 forward $322 $-1 #
coedge $-1 $610 $324 $607 $611 reversed $199 $-1 #
coedge $-1 $324 $610 $325 $470 forward $199 $-1 #
coedge $-1 $327 $608 $324 $468 reversed $211 $-1 #
edge $-1 $471 -10 $612 0 $324 $613 forward 7 unknown #
coedge $-1 $326 $325 $614 $615 reversed $119 $-1 #
edge $-1 $616 0 $471 10 $466 $617 forward 7 unknown #
vertex $-1 $470 $618 #
straight-curve $-1 0 10 0 1 0 0 I I #
coedge $-1 $614 $333 $329 $474 forward $480 $-1 #
edge $619 $335 -20 $476 20 $329 $620 forward 7 unknown #
convexity-sys-attrib $-1 $-1 $-1 $330 #
vertex $-1 $474 $621 #
straight-curve $-1 -60 0 0 0 1 0 I I #
point $-1 -60 10 0 #
coedge $-1 $333 $622 $337 $485 forward $480 $-1 #
loop $-1 $-1 $479 $493 #
convexity-sys-attrib $-1 $-1 $-1 $334 #
straight-curve $-1 0 0 40 -1 0 0 I I #
point $-1 -60 0 40 #
coedge $-1 $338 $337 $623 $624 forward $339 $-1 #
edge $625 $626 -97.979589711327122 $340 -77.979589711327122 $337 $627 forward 7 unknown #
face $-1 $344 $339 $27 $-1 $628 forward single #
point $-1 50 0 40 #
coedge $-1 $629 $342 $630 $631 reversed $211 $-1 #
coedge $-1 $623 $632 $342 $490 forward $633 $-1 #
edge $-1 $634 -30 $491 -20 $489 $635 forward 7 unknown #
vertex $-1 $624 $636 #
straight-curve $-1 50 10 117.97958971132712 0 0 1 I I #
face $-1 $-1 $480 $27 $-1 $637 reversed single #
plane-surface $-1 -0.5555555555555538 10 21.111111111111114 0 1 0 0 0 1 forward_v I I I I #
face $-1 $638 $639 $29 $-1 $640 forward single #
loop $-1 $-1 $641 $347 #
plane-surface $-1 10 10 20 -1 0 0 0 0 1 forward_v I I I I #
coedge $-1 $642 $643 $644 $645 forward $348 $-1 #
coedge $-1 $646 $350 $643 $647 reversed $216 $-1 #
coedge $-1 $350 $646 $351 $504 forward $216 $-1 #
coedge $-1 $353 $644 $350 $502 reversed $228 $-1 #
edge $-1 $505 -10 $648 10 $350 $649 forward 7 unknown #
coedge $-1 $352 $351 $650 $651 reversed $127 $-1 #
edge $-1 $652 0 $505 30 $500 $653 forward 7 unknown #
vertex $-1 $504 $654 #
straight-curve $-1 0 40 0 1 0 0 I I #
coedge $-1 $650 $359 $355 $508 forward $514 $-1 #
edge $655 $361 -20 $510 20 $355 $656 forward 7 unknown #
convexity-sys-attrib $-1 $-1 $-1 $356 #
vertex $-1 $508 $657 #
straight-curve $-1 -60 10 0 0 1 0 I I #
point $-1 -60 40 0 #
coedge $-1 $359 $658 $363 $519 forward $514 $-1 #
loop $-1 $-1 $513 $527 #
convexity-sys-attrib $-1 $-1 $-1 $360 #
straight-curve $-1 0 10 40 -1 0 0 I I #
point $-1 -60 10 40 #
coedge $-1 $364 $363 $659 $660 forward $365 $-1 #
edge $661 $662 -97.979589711327122 $366 -77.979589711327122 $363 $663 forward 7 unknown #
face $-1 $370 $365 $29 $-1 $664 forward single #
point $-1 50 10 40 #
coedge $-1 $665 $368 $666 $667 reversed $228 $-1 #
coedge $-1 $659 $668 $368 $524 forward $669 $-1 #
edge $-1 $670 -30 $525 -20 $523 $671 forward 7 unknown #
vertex $-1 $660 $672 #
straight-curve $-1 50 40 117.97958971132712 0 0 1 I I #
face $-1 $-1 $514 $29 $-1 $673 reversed single #
plane-surface $-1 -0.55555555555555558 40 19.444444444444446 0 1 0 0 0 1 forward_v I I I I #
model_id-kcp-attrib $-1 $-1 $-1 $374 1 990663517 50 1479671809 9 #
face $674 $675 $395 $9 $-1 $676 reversed single #
loop $-1 $-1 $410 $374 #
coedge $-1 $677 $377 $678 $679 forward $85 $-1 #
coedge $-1 $591 $680 $377 $534 reversed $422 $-1 #
edge $681 $539 30 $682 40 $377 $683 forward 7 unknown #
coedge $-1 $684 $378 $381 $543 forward $537 $-1 #
coedge $-1 $378 $684 $591 $685 forward $537 $-1 #
loop $-1 $-1 $536 $686 #
attrib_edge_convexity-kcp-attrib $-1 $687 $-1 $379 1 #
vertex $-1 $379 $688 #
straight-curve $-1 60 40 10 0 0 1 I I #
coedge $-1 $689 $380 $394 $556 forward $375 $-1 #
coedge $-1 $381 $689 $403 $564 reversed $375 $-1 #
edge $-1 $384 -20 $690 20 $535 $691 forward 7 unknown #
convexity-sys-attrib $-1 $-1 $382 $238 #
point $-1 10 40 0 #
point $-1 60 40 0 #
coedge $-1 $692 $386 $573 $693 reversed $549 $-1 #
coedge $-1 $386 $692 $388 $552 reversed $549 $-1 #
loop $-1 $-1 $386 $675 #
vertex $-1 $693 $694 #
straight-curve $-1 -10 10 0 0 0 -1 I I #
edge $-1 $389 10 $695 40 $548 $561 forward 7 unknown #
point $-1 -10 10 10 #
straight-curve $-1 10 10 0 0 -1 0 I I #
coedge $-1 $394 $393 $696 $697 forward $395 $-1 #
edge $-1 $396 10 $698 40 $541 $699 forward 7 unknown #
point $-1 10 10 0 #
coedge $-1 $404 $696 $398 $559 reversed $566 $-1 #
edge $-1 $406 0 $560 10 $558 $700 forward 7 unknown #
vertex $-1 $559 $701 #
straight-curve $-1 0 10 10 -1 0 0 I I #
convexity-sys-attrib $-1 $-1 $401 $251 #
coedge $-1 $403 $702 $684 $703 forward $97 $-1 #
edge $-1 $690 -60 $567 -40 $403 $704 forward 7 unknown #
coedge $-1 $696 $404 $689 $705 reversed $566 $-1 #
loop $-1 $-1 $404 $706 #
vertex $-1 $564 $707 #
straight-curve $-1 40 0 10 0 0 1 I I #
point $-1 40 0 10 #
coedge $-1 $408 $708 $709 $710 forward $85 $-1 #
coedge $-1 $711 $410 $408 $572 reversed $531 $-1 #
edge $712 $713 -60 $413 -10 $408 $385 forward 7 unknown #
coedge $-1 $410 $714 $547 $693 forward $531 $-1 #
straight-curve $-1 -10 10 0 0 1 0 I I #
convexity-sys-attrib $-1 $-1 $412 $260 #
point $-1 -10 40 0 #
coedge $-1 $715 $415 $716 $717 reversed $97 $-1 #
coedge $-1 $714 $711 $415 $579 reversed $531 $-1 #
edge $-1 $583 40 $718 60 $415 $704 forward 7 unknown #
coedge $-1 $719 $416 $418 $585 reversed $582 $-1 #
coedge $-1 $416 $719 $714 $720 reversed $582 $-1 #
loop $-1 $-1 $416 $721 #
vertex $-1 $720 $722 #
straight-curve $-1 -40 0 10 0 0 -1 I I #
edge $-1 $695 -10 $419 0 $580 $723 forward 7 unknown #
point $-1 -40 0 10 #
model_id-kcp-attrib $-1 $-1 $-1 $421 1 990663517 50 1479671809 16 #
face $724 $686 $725 $9 $-1 $726 forward single #
loop $-1 $-1 $727 $421 #
plane-surface $-1 50 0 30 1 0 0 0 0 -1 forward_v I I I I #
coedge $-1 $728 $533 $536 $685 reversed $422 $-1 #
straight-curve $-1 -80 40 0 0 0 -1 I I #
point $-1 -80 -40 -40 #
straight-curve $-1 -80 0 -40 0 1 0 I I #
point $-1 -80 40 -40 #
straight-curve $-1 10 -40 -107.97958971132712 0 0 1 I I #
point $-1 10 -40 -195.95917942265424 #
point $-1 10 -40 -175.95917942265424 #
straight-curve $-1 10 0 -175.95917942265424 0 1 0 I I #
convexity-sys-attrib $-1 $-1 $-1 $457 #
straight-curve $-1 10 0 -195.95917942265424 0 -1 0 I I #
face $-1 $729 $730 $27 $-1 $731 forward single #
loop $-1 $-1 $732 $461 #
plane-surface $-1 -10 0 20 0 0 -1 -1 0 0 forward_v I I I I #
coedge $-1 $733 $734 $735 $736 forward $462 $-1 #
coedge $-1 $737 $464 $734 $738 reversed $322 $-1 #
coedge $-1 $464 $737 $465 $611 forward $322 $-1 #
coedge $-1 $467 $735 $464 $609 reversed $211 $-1 #
edge $-1 $612 -40 $739 -10 $464 $740 forward 7 unknown #
coedge $-1 $466 $465 $741 $742 reversed $199 $-1 #
edge $-1 $743 0 $612 10 $607 $744 forward 7 unknown #
vertex $-1 $611 $745 #
straight-curve $-1 -40 10 10 0 0 1 I I #
coedge $-1 $741 $473 $469 $615 forward $480 $-1 #
edge $746 $476 -60 $616 -40 $469 $747 forward 7 unknown #
vertex $-1 $615 $748 #
straight-curve $-1 -40 0 0 0 1 0 I I #
point $-1 -40 10 0 #
convexity-sys-attrib $-1 $-1 $-1 $474 #
straight-curve $-1 -60 0 20 0 0 -1 I I #
point $-1 -60 0 0 #
coedge $-1 $479 $749 $750 $751 forward $480 $-1 #
coedge $-1 $750 $489 $484 $624 reversed $633 $-1 #
edge $-1 $626 0 $491 10 $484 $752 forward 7 unknown #
convexity-sys-attrib $-1 $-1 $-1 $485 #
vertex $-1 $485 $753 #
straight-curve $-1 50 0 117.97958971132712 0 0 1 I I #
plane-surface $-1 50 0 20 1 0 0 0 0 -1 forward_v I I I I #
coedge $-1 $754 $488 $755 $756 reversed $211 $-1 #
coedge $-1 $757 $758 $488 $631 forward $759 $-1 #
edge $-1 $760 -20 $634 0 $630 $761 forward 7 unknown #
coedge $-1 $489 $750 $757 $762 forward $633 $-1 #
loop $-1 $-1 $489 $763 #
vertex $-1 $762 $764 #
straight-curve $-1 30 10 20 -1 0 0 I I #
point $-1 50 10 20 #
plane-surface $-1 -0.5555555555555538 0 21.111111111111114 0 1 0 0 0 1 forward_v I I I I #
face $-1 $765 $766 $29 $-1 $767 forward single #
loop $-1 $-1 $768 $495 #
plane-surface $-1 10 10 0 0 0 -1 -1 0 0 forward_v I I I I #
coedge $-1 $769 $770 $771 $772 forward $496 $-1 #
coedge $-1 $773 $498 $770 $774 reversed $348 $-1 #
coedge $-1 $498 $773 $499 $647 forward $348 $-1 #
coedge $-1 $501 $771 $498 $645 reversed $228 $-1 #
edge $-1 $648 -10 $775 10 $498 $776 forward 7 unknown #
coedge $-1 $500 $499 $777 $778 reversed $216 $-1 #
edge $-1 $779 0 $648 30 $643 $780 forward 7 unknown #
vertex $-1 $647 $781 #
straight-curve $-1 -10 40 10 0 0 1 I I #
coedge $-1 $777 $507 $503 $651 forward $514 $-1 #
edge $782 $510 -60 $652 -10 $503 $783 forward 7 unknown #
vertex $-1 $651 $784 #
straight-curve $-1 -10 10 0 0 1 0 I I #
point $-1 -10 40 0 #
convexity-sys-attrib $-1 $-1 $-1 $508 #
straight-curve $-1 -60 10 20 0 0 -1 I I #
point $-1 -60 10 0 #
coedge $-1 $513 $785 $786 $787 forward $514 $-1 #
coedge $-1 $786 $523 $518 $660 reversed $669 $-1 #
edge $-1 $662 0 $525 30 $518 $788 forward 7 unknown #
convexity-sys-attrib $-1 $-1 $-1 $519 #
vertex $-1 $519 $789 #
straight-curve $-1 50 10 117.97958971132712 0 0 1 I I #
plane-surface $-1 50 10 20 1 0 0 0 0 -1 forward_v I I I I #
coedge $-1 $771 $522 $768 $790 reversed $228 $-1 #
coedge $-1 $791 $792 $522 $667 forward $766 $-1 #
edge $-1 $793 -20 $670 0 $666 $794 forward 7 unknown #
coedge $-1 $523 $786 $791 $795 forward $669 $-1 #
loop $-1 $-1 $523 $765 #
vertex $-1 $795 $796 #
straight-curve $-1 30 40 20 -1 0 0 I I #
point $-1 50 40 20 #
plane-surface $-1 -0.55555555555555558 9.9999999999999982 19.444444444444446 0 1 0 0 0 1 forward_v I I I I #
model_id-kcp-attrib $-1 $-1 $-1 $530 1 990663517 50 1479671809 10 #
face $797 $706 $549 $9 $-1 $676 reversed single #
plane-surface $-1 0 10 0 0 -1 0 0 0 -1 forward_v I I I I #
coedge $-1 $798 $532 $799 $800 reversed $85 $-1 #
coedge $-1 $801 $802 $532 $679 reversed $725 $-1 #
edge $803 $682 5 $804 25 $532 $805 forward 7 unknown #
coedge $-1 $533 $806 $801 $807 reversed $422 $-1 #
attrib_edge_convexity-kcp-attrib $-1 $808 $-1 $534 1 #
vertex $-1 $534 $809 #
straight-curve $-1 30 40 20 1 0 0 I I #
coedge $-1 $536 $535 $563 $703 reversed $537 $-1 #
edge $-1 $810 -10 $539 30 $536 $811 forward 7 unknown #
face $812 $813 $537 $9 $-1 $814 forward single #
convexity-sys-attrib $-1 $-1 $538 $379 #
point $-1 60 40 20 #
coedge $-1 $542 $541 $565 $705 forward $375 $-1 #
vertex $-1 $703 $815 #
straight-curve $-1 60 20 0 0 -1 0 I I #
coedge $-1 $548 $547 $719 $816 reversed $549 $-1 #
edge $-1 $817 -40 $550 -10 $573 $699 forward 7 unknown #
point $-1 -10 10 0 #
vertex $-1 $552 $818 #
coedge $-1 $558 $565 $555 $697 reversed $566 $-1 #
edge $-1 $560 -10 $698 0 $696 $819 forward 7 unknown #
vertex $-1 $556 $820 #
straight-curve $-1 0 10 0 1 0 0 I I #
straight-curve $-1 40 0 10 0 1 0 I I #
point $-1 40 10 10 #
coedge $-1 $563 $821 $728 $822 forward $97 $-1 #
edge $-1 $810 0 $690 20 $684 $823 forward 7 unknown #
straight-curve $-1 0 0 0 -1 0 0 I I #
edge $-1 $698 0 $567 10 $689 $824 forward 7 unknown #
face $825 $721 $566 $9 $-1 $826 reversed single #
point $-1 40 0 0 #
coedge $-1 $570 $827 $828 $829 reversed $85 $-1 #
coedge $-1 $830 $831 $570 $710 reversed $832 $-1 #
edge $833 $834 -30 $713 10 $570 $835 forward 7 unknown #
coedge $-1 $578 $571 $831 $836 reversed $531 $-1 #
attrib_edge_convexity-kcp-attrib $-1 $837 $-1 $572 1 #
vertex $-1 $572 $838 #
coedge $-1 $573 $578 $581 $720 forward $531 $-1 #
coedge $-1 $821 $577 $839 $840 reversed $97 $-1 #
coedge $-1 $831 $830 $577 $717 forward $832 $-1 #
edge $-1 $841 -20 $718 20 $716 $842 forward 7 unknown #
vertex $-1 $836 $843 #
coedge $-1 $581 $580 $692 $816 forward $582 $-1 #
edge $-1 $583 -10 $817 0 $714 $844 forward 7 unknown #
face $845 $156 $582 $9 $-1 $846 reversed single #
point $-1 -40 0 0 #
straight-curve $-1 -40 0 10 0 -1 0 I I #
model_id-kcp-attrib $-1 $-1 $-1 $588 1 990663517 50 1479671809 17 #
loop $-1 $-1 $847 $588 #
plane-surface $-1 70 0 30 -1 0 0 0 0 1 forward_v I I I I #
coedge $-1 $848 $849 $821 $850 reversed $589 $-1 #
coedge $-1 $851 $591 $702 $822 reversed $422 $-1 #
face $-1 $852 $853 $27 $-1 $854 forward single #
loop $-1 $-1 $855 $602 #
plane-surface $-1 10 0 20 -1 0 0 0 0 1 forward_v I I I I #
coedge $-1 $856 $857 $858 $859 forward $603 $-1 #
coedge $-1 $860 $605 $857 $861 reversed $462 $-1 #
coedge $-1 $605 $860 $606 $738 forward $462 $-1 #
coedge $-1 $608 $858 $605 $736 reversed $211 $-1 #
edge $-1 $739 0 $862 10 $605 $863 forward 7 unknown #
coedge $-1 $607 $606 $864 $865 reversed $322 $-1 #
edge $-1 $866 0 $739 10 $734 $867 forward 7 unknown #
vertex $-1 $738 $868 #
straight-curve $-1 0 10 10 1 0 0 I I #
coedge $-1 $864 $614 $610 $742 forward $480 $-1 #
edge $869 $616 -10 $743 0 $610 $870 forward 7 unknown #
vertex $-1 $742 $871 #
straight-curve $-1 -40 0 10 0 1 0 I I #
point $-1 -40 10 10 #
convexity-sys-attrib $-1 $-1 $-1 $615 #
straight-curve $-1 0 0 0 1 0 0 I I #
point $-1 -40 0 0 #
coedge $-1 $622 $872 $873 $874 forward $480 $-1 #
coedge $-1 $632 $623 $622 $751 reversed $633 $-1 #
edge $875 $876 -30 $626 -20 $750 $877 forward 7 unknown #
straight-curve $-1 50 0 20 0 1 0 I I #
point $-1 50 0 20 #
coedge $-1 $878 $629 $879 $880 reversed $211 $-1 #
coedge $-1 $881 $882 $629 $756 forward $883 $-1 #
edge $-1 $884 40 $760 60 $755 $885 forward 7 unknown #
coedge $-1 $873 $630 $632 $762 reversed $759 $-1 #
coedge $-1 $630 $873 $881 $886 forward $759 $-1 #
loop $-1 $-1 $630 $887 #
vertex $-1 $886 $888 #
straight-curve $-1 60 10 20 0 0 1 I I #
edge $-1 $876 0 $634 10 $632 $889 forward 7 unknown #
face $-1 $486 $633 $27 $-1 $890 forward single #
point $-1 60 10 20 #
face $-1 $520 $669 $29 $-1 $891 forward single #
loop $-1 $-1 $666 $638 #
plane-surface $-1 60 10 0 1 0 0 0 0 -1 forward_v I I I I #
coedge $-1 $892 $893 $665 $790 forward $639 $-1 #
coedge $-1 $894 $641 $893 $895 reversed $496 $-1 #
coedge $-1 $641 $894 $642 $774 forward $496 $-1 #
coedge $-1 $644 $665 $641 $772 reversed $228 $-1 #
edge $-1 $775 -10 $896 10 $641 $897 forward 7 unknown #
coedge $-1 $643 $642 $898 $899 reversed $348 $-1 #
edge $-1 $900 0 $775 30 $770 $901 forward 7 unknown #
vertex $-1 $774 $902 #
straight-curve $-1 0 40 20 1 0 0 I I #
coedge $-1 $898 $650 $646 $778 forward $514 $-1 #
edge $903 $652 -10 $779 10 $646 $904 forward 7 unknown #
vertex $-1 $778 $905 #
straight-curve $-1 -10 10 20 0 1 0 I I #
point $-1 -10 40 20 #
convexity-sys-attrib $-1 $-1 $-1 $651 #
straight-curve $-1 0 10 0 1 0 0 I I #
point $-1 -10 10 0 #
coedge $-1 $658 $906 $907 $908 forward $514 $-1 #
coedge $-1 $668 $659 $658 $787 reversed $669 $-1 #
edge $909 $910 -30 $662 -20 $786 $911 forward 7 unknown #
straight-curve $-1 50 10 20 0 1 0 I I #
point $-1 50 10 20 #
edge $-1 $896 10 $793 60 $768 $912 forward 7 unknown #
coedge $-1 $907 $666 $668 $795 reversed $766 $-1 #
coedge $-1 $666 $907 $892 $913 forward $766 $-1 #
vertex $-1 $913 $914 #
straight-curve $-1 60 40 20 0 0 1 I I #
edge $-1 $910 0 $670 30 $668 $915 forward 7 unknown #
point $-1 60 40 20 #
model_id-kcp-attrib $-1 $-1 $-1 $675 1 990663517 50 1479671809 11 #
coedge $-1 $916 $677 $917 $918 forward $85 $-1 #
coedge $-1 $919 $920 $677 $800 forward $921 $-1 #
edge $922 $923 -80 $804 -70 $677 $924 forward 7 unknown #
coedge $-1 $847 $678 $680 $807 forward $725 $-1 #
coedge $-1 $678 $847 $919 $925 reversed $725 $-1 #
attrib_edge_convexity-kcp-attrib $-1 $926 $-1 $679 1 #
vertex $-1 $800 $927 #
straight-curve $-1 70 40 15 0 0 1 I I #
coedge $-1 $680 $851 $928 $929 reversed $422 $-1 #
edge $-1 $682 -40 $930 40 $801 $931 forward 7 unknown #
convexity-sys-attrib $-1 $-1 $681 $534 #
point $-1 70 40 20 #
vertex $-1 $822 $932 #
straight-curve $-1 60 10 20 0 1 0 I I #
model_id-kcp-attrib $-1 $-1 $-1 $686 1 990663517 50 1479671809 18 #
face $933 $934 $921 $9 $-1 $935 forward single #
plane-surface $-1 60 20 20 -1 0 0 0 0 1 forward_v I I I I #
point $-1 60 0 0 #
edge $-1 $695 -10 $817 0 $692 $936 forward 7 unknown #
vertex $-1 $720 $937 #
point $-1 -40 10 10 #
straight-curve $-1 40 10 0 0 0 -1 I I #
point $-1 40 10 0 #
coedge $-1 $702 $715 $727 $850 forward $97 $-1 #
edge $-1 $938 20 $810 30 $702 $939 forward 7 unknown #
straight-curve $-1 60 0 20 0 0 -1 I I #
straight-curve $-1 40 10 0 0 -1 0 I I #
model_id-kcp-attrib $-1 $-1 $-1 $706 1 990663517 50 1479671809 12 #
plane-surface $-1 40 0 0 -1 0 0 0 0 1 forward_v I I I I #
coedge $-1 $708 $916 $940 $941 reversed $85 $-1 #
coedge $-1 $942 $943 $708 $829 forward $944 $-1 #
edge $945 $834 60 $946 80 $708 $924 forward 7 unknown #
coedge $-1 $716 $709 $943 $947 reversed $832 $-1 #
coedge $-1 $709 $716 $711 $836 forward $832 $-1 #
loop $-1 $-1 $709 $934 #
attrib_edge_convexity-kcp-attrib $-1 $948 $-1 $710 1 #
vertex $-1 $947 $949 #
straight-curve $-1 -60 40 10 0 0 -1 I I #
edge $-1 $718 -20 $713 20 $831 $950 forward 7 unknown #
convexity-sys-attrib $-1 $-1 $712 $572 #
point $-1 -60 40 0 #
coedge $-1 $943 $951 $715 $840 forward $944 $-1 #
edge $-1 $952 -50 $841 60 $839 $953 forward 7 unknown #
vertex $-1 $840 $954 #
straight-curve $-1 -60 0 20 0 0 -1 I I #
point $-1 -60 0 0 #
straight-curve $-1 -40 10 0 0 1 0 I I #
model_id-kcp-attrib $-1 $-1 $-1 $721 1 990663517 50 1479671809 13 #
plane-surface $-1 -40 0 0 1 0 0 0 0 -1 forward_v I I I I #
coedge $-1 $802 $801 $955 $956 reversed $725 $-1 #
coedge $-1 $957 $727 $951 $958 reversed $589 $-1 #
coedge $-1 $727 $957 $851 $959 forward $589 $-1 #
edge $-1 $952 -15 $938 5 $821 $960 forward 7 unknown #
coedge $-1 $806 $728 $849 $959 reversed $422 $-1 #
face $-1 $961 $962 $27 $-1 $963 forward single #
loop $-1 $-1 $964 $729 #
plane-surface $-1 10 0 10 0 0 -1 -1 0 0 forward_v I I I I #
coedge $-1 $965 $966 $967 $968 forward $730 $-1 #
coedge $-1 $969 $732 $966 $970 reversed $603 $-1 #
coedge $-1 $732 $969 $733 $861 forward $603 $-1 #
coedge $-1 $735 $967 $732 $859 reversed $211 $-1 #
edge $-1 $862 -10 $971 10 $732 $972 forward 7 unknown #
coedge $-1 $734 $733 $973 $974 reversed $462 $-1 #
edge $-1 $975 0 $862 10 $857 $976 forward 7 unknown #
vertex $-1 $861 $977 #
straight-curve $-1 -10 10 10 0 0 1 I I #
coedge $-1 $973 $741 $737 $865 forward $480 $-1 #
edge $978 $743 -40 $866 -10 $737 $979 forward 7 unknown #
vertex $-1 $865 $980 #
straight-curve $-1 -10 0 10 0 1 0 I I #
point $-1 -10 10 10 #
convexity-sys-attrib $-1 $-1 $-1 $742 #
straight-curve $-1 -40 0 10 0 0 1 I I #
point $-1 -40 0 10 #
coedge $-1 $749 $981 $982 $983 forward $480 $-1 #
coedge $-1 $758 $757 $749 $874 reversed $759 $-1 #
edge $984 $985 -20 $876 0 $873 $986 forward 7 unknown #
convexity-sys-attrib $-1 $-1 $-1 $751 #
vertex $-1 $874 $987 #
straight-curve $-1 30 0 20 -1 0 0 I I #
coedge $-1 $967 $754 $964 $988 reversed $211 $-1 #
coedge $-1 $989 $990 $754 $880 forward $962 $-1 #
edge $-1 $991 0 $884 10 $879 $992 forward 7 unknown #
coedge $-1 $982 $755 $758 $886 reversed $883 $-1 #
coedge $-1 $755 $982 $989 $993 forward $883 $-1 #
loop $-1 $-1 $755 $961 #
vertex $-1 $993 $994 #
straight-curve $-1 0 10 0 1 0 0 I I #
edge $-1 $985 0 $760 10 $758 $995 forward 7 unknown #
face $-1 $763 $759 $27 $-1 $996 forward single #
point $-1 60 10 0 #
straight-curve $-1 60 0 20 0 1 0 I I #
plane-surface $-1 60 0 20 0 0 1 1 0 0 forward_v I I I I #
plane-surface $-1 60 10 20 0 0 1 1 0 0 forward_v I I I I #
coedge $-1 $997 $768 $792 $913 reversed $639 $-1 #
coedge $-1 $768 $997 $769 $895 forward $639 $-1 #
coedge $-1 $770 $769 $998 $999 reversed $496 $-1 #
edge $-1 $1000 0 $896 30 $893 $1001 forward 7 unknown #
vertex $-1 $895 $1002 #
straight-curve $-1 10 40 10 0 0 -1 I I #
coedge $-1 $998 $777 $773 $899 forward $514 $-1 #
edge $1003 $779 -10 $900 10 $773 $1004 forward 7 unknown #
vertex $-1 $899 $1005 #
straight-curve $-1 10 10 20 0 1 0 I I #
point $-1 10 40 20 #
convexity-sys-attrib $-1 $-1 $-1 $778 #
straight-curve $-1 -10 10 10 0 0 1 I I #
point $-1 -10 10 20 #
coedge $-1 $785 $998 $997 $1006 forward $514 $-1 #
coedge $-1 $792 $791 $785 $908 reversed $766 $-1 #
edge $1007 $1008 -20 $910 0 $907 $1009 forward 7 unknown #
convexity-sys-attrib $-1 $-1 $-1 $787 #
vertex $-1 $908 $1010 #
straight-curve $-1 30 10 20 -1 0 0 I I #
straight-curve $-1 0 40 0 1 0 0 I I #
edge $-1 $1008 0 $793 30 $792 $1011 forward 7 unknown #
point $-1 60 40 0 #
straight-curve $-1 60 10 20 0 1 0 I I #
coedge $-1 $827 $798 $1012 $1013 reversed $85 $-1 #
coedge $-1 $1014 $1015 $798 $918 reversed $1016 $-1 #
edge $1017 $923 -40 $1018 40 $917 $1019 forward 7 unknown #
coedge $-1 $1020 $799 $802 $925 forward $921 $-1 #
coedge $-1 $799 $1020 $1014 $1021 forward $921 $-1 #
loop $-1 $-1 $919 $813 #
attrib_edge_convexity-kcp-attrib $-1 $1022 $-1 $800 1 #
vertex $-1 $1021 $1023 #
straight-curve $-1 0 40 40 -1 0 0 I I #
edge $1024 $804 -40 $1025 40 $919 $1026 forward 7 unknown #
convexity-sys-attrib $-1 $-1 $803 $679 #
point $-1 70 40 40 #
coedge $-1 $1027 $955 $806 $929 forward $1028 $-1 #
edge $-1 $930 -40 $1029 -20 $928 $1030 forward 7 unknown #
vertex $-1 $929 $1031 #
straight-curve $-1 70 0 20 0 -1 0 I I #
point $-1 60 0 20 #
model_id-kcp-attrib $-1 $-1 $-1 $813 1 990663517 50 1479671809 19 #
face $1032 $1033 $832 $9 $-1 $1034 forward single #
plane-surface $-1 0 0 40 0 0 1 1 0 0 forward_v I I I I #
straight-curve $-1 -40 10 0 0 0 -1 I I #
point $-1 -40 10 0 #
vertex $-1 $822 $1035 #
straight-curve $-1 30 0 20 1 0 0 I I #
coedge $-1 $1036 $1037 $827 $941 forward $1038 $-1 #
edge $1039 $946 -40 $1040 40 $827 $1041 forward 7 unknown #
coedge $-1 $1042 $828 $1037 $1043 forward $944 $-1 #
coedge $-1 $828 $839 $830 $947 forward $944 $-1 #
loop $-1 $-1 $951 $1033 #
attrib_edge_convexity-kcp-attrib $-1 $1044 $-1 $829 1 #
vertex $-1 $829 $1045 #
edge $-1 $841 -10 $834 30 $943 $1046 forward 7 unknown #
convexity-sys-attrib $-1 $-1 $833 $710 #
point $-1 -60 40 40 #
straight-curve $-1 -60 20 0 0 1 0 I I #
coedge $-1 $839 $1042 $848 $958 forward $944 $-1 #
vertex $-1 $958 $1047 #
straight-curve $-1 0 0 40 -1 0 0 I I #
point $-1 -60 0 40 #
coedge $-1 $928 $1048 $847 $956 forward $1028 $-1 #
edge $-1 $1025 -25 $930 -5 $955 $1049 forward 7 unknown #
coedge $-1 $849 $848 $1027 $1050 reversed $589 $-1 #
edge $-1 $1051 -40 $952 0 $951 $1052 forward 7 unknown #
edge $-1 $1029 -40 $938 0 $849 $1053 forward 7 unknown #
straight-curve $-1 50 0 25 0 0 -1 I I #
face $-1 $887 $883 $27 $-1 $1054 forward single #
loop $-1 $-1 $879 $852 #
plane-surface $-1 40 0 10 -1 0 0 0 0 1 forward_v I I I I #
coedge $-1 $1055 $1056 $878 $988 forward $853 $-1 #
coedge $-1 $1057 $855 $1056 $1058 reversed $730 $-1 #
coedge $-1 $855 $1057 $856 $970 forward $730 $-1 #
coedge $-1 $858 $878 $855 $968 reversed $211 $-1 #
edge $-1 $971 -10 $1059 0 $855 $1060 forward 7 unknown #
coedge $-1 $857 $856 $1061 $1062 reversed $603 $-1 #
edge $-1 $1063 0 $971 10 $966 $1064 forward 7 unknown #
vertex $-1 $970 $1065 #
straight-curve $-1 0 10 20 1 0 0 I I #
coedge $-1 $1061 $864 $860 $974 forward $480 $-1 #
edge $1066 $866 0 $975 10 $860 $1067 forward 7 unknown #
vertex $-1 $974 $1068 #
straight-curve $-1 -10 0 20 0 1 0 I I #
point $-1 -10 10 20 #
convexity-sys-attrib $-1 $-1 $-1 $865 #
straight-curve $-1 0 0 10 1 0 0 I I #
point $-1 -10 0 10 #
coedge $-1 $872 $1069 $1070 $1071 forward $480 $-1 #
coedge $-1 $882 $881 $872 $983 reversed $883 $-1 #
edge $1072 $1073 40 $985 60 $982 $1074 forward 7 unknown #
convexity-sys-attrib $-1 $-1 $-1 $874 #
vertex $-1 $983 $1075 #
straight-curve $-1 60 0 20 0 0 1 I I #
point $-1 60 0 20 #
edge $-1 $1059 10 $991 40 $964 $1076 forward 7 unknown #
coedge $-1 $1070 $879 $882 $993 reversed $962 $-1 #
coedge $-1 $879 $1070 $1055 $1077 forward $962 $-1 #
vertex $-1 $1077 $1078 #
straight-curve $-1 40 10 10 0 0 -1 I I #
edge $-1 $1073 0 $884 10 $882 $1079 forward 7 unknown #
point $-1 40 10 0 #
straight-curve $-1 60 0 0 0 1 0 I I #
plane-surface $-1 60 0 0 1 0 0 0 0 -1 forward_v I I I I #
coedge $-1 $893 $892 $906 $1006 reversed $639 $-1 #
coedge $-1 $906 $898 $894 $999 forward $514 $-1 #
edge $1080 $900 -10 $1000 10 $894 $1081 forward 7 unknown #
vertex $-1 $999 $1082 #
straight-curve $-1 10 10 0 0 1 0 I I #
point $-1 10 40 0 #
convexity-sys-attrib $-1 $-1 $-1 $899 #
straight-curve $-1 0 10 20 1 0 0 I I #
point $-1 10 10 20 #
edge $1083 $1000 10 $1008 60 $997 $1084 forward 7 unknown #
convexity-sys-attrib $-1 $-1 $-1 $908 #
vertex $-1 $1006 $1085 #
straight-curve $-1 60 10 20 0 0 1 I I #
point $-1 60 10 20 #
straight-curve $-1 60 10 0 0 1 0 I I #
coedge $-1 $1086 $1087 $916 $1013 forward $1088 $-1 #
edge $1089 $1040 -80 $1018 80 $916 $1090 forward 7 unknown #
coedge $-1 $1091 $917 $920 $1021 reversed $1016 $-1 #
coedge $-1 $917 $1091 $1086 $1092 reversed $1016 $-1 #
loop $-1 $-1 $1091 $1093 #
attrib_edge_convexity-kcp-attrib $-1 $1094 $-1 $918 1 #
vertex $-1 $1092 $1095 #
straight-curve $-1 80 40 0 0 0 -1 I I #
coedge $-1 $920 $919 $1048 $1096 forward $921 $-1 #
edge $1097 $1098 -40 $923 40 $1014 $1099 forward 7 unknown #
convexity-sys-attrib $-1 $-1 $922 $800 #
point $-1 80 40 40 #
attrib_edge_convexity-kcp-attrib $-1 $1100 $-1 $925 1 #
vertex $-1 $956 $1101 #
straight-curve $-1 70 0 40 0 -1 0 I I #
coedge $-1 $1102 $928 $957 $1050 forward $1028 $-1 #
loop $-1 $-1 $1027 $1103 #
vertex $-1 $929 $1104 #
straight-curve $-1 30 -40 20 -1 0 0 I I #
point $-1 70 -40 20 #
model_id-kcp-attrib $-1 $-1 $-1 $934 1 990663517 50 1479671809 20 #
face $1105 $1106 $944 $9 $-1 $935 forward single #
plane-surface $-1 -60 20 20 1 0 0 0 0 -1 forward_v I I I I #
point $-1 50 0 20 #
coedge $-1 $1107 $940 $1087 $1108 reversed $1038 $-1 #
coedge $-1 $940 $1107 $942 $1043 reversed $1038 $-1 #
loop $-1 $-1 $940 $1109 #
attrib_edge_convexity-kcp-attrib $-1 $1110 $-1 $941 1 #
vertex $-1 $1013 $1111 #
straight-curve $-1 -80 40 0 0 0 -1 I I #
coedge $-1 $951 $942 $1102 $1112 forward $944 $-1 #
edge $1113 $946 -40 $1114 40 $1037 $1115 forward 7 unknown #
convexity-sys-attrib $-1 $-1 $945 $829 #
point $-1 -80 40 40 #
straight-curve $-1 -60 10 40 0 1 0 I I #
point $-1 50 0 40 #
coedge $-1 $955 $1116 $1020 $1096 reversed $1028 $-1 #
straight-curve $-1 70 -40 15 0 0 -1 I I #
edge $-1 $1029 5 $1051 25 $1027 $1117 forward 7 unknown #
vertex $-1 $1112 $1118 #
straight-curve $-1 50 0 40 0 1 0 I I #
straight-curve $-1 50 0 20 0 1 0 I I #
plane-surface $-1 40 0 0 0 0 -1 -1 0 0 forward_v I I I I #
coedge $-1 $1119 $964 $990 $1077 reversed $853 $-1 #
coedge $-1 $964 $1119 $965 $1058 forward $853 $-1 #
coedge $-1 $966 $965 $1120 $1121 reversed $730 $-1 #
edge $-1 $1122 0 $1059 10 $1056 $1123 forward 7 unknown #
vertex $-1 $1058 $1124 #
straight-curve $-1 10 10 10 0 0 -1 I I #
coedge $-1 $1120 $973 $969 $1062 forward $480 $-1 #
edge $1125 $975 -10 $1063 10 $969 $1126 forward 7 unknown #
vertex $-1 $1062 $1127 #
straight-curve $-1 10 0 20 0 1 0 I I #
point $-1 10 10 20 #
convexity-sys-attrib $-1 $-1 $-1 $974 #
straight-curve $-1 -10 0 10 0 0 1 I I #
point $-1 -10 0 20 #
coedge $-1 $981 $1120 $1119 $1128 forward $480 $-1 #
coedge $-1 $990 $989 $981 $1071 reversed $962 $-1 #
edge $1129 $1130 0 $1073 10 $1070 $1131 forward 7 unknown #
convexity-sys-attrib $-1 $-1 $-1 $983 #
vertex $-1 $1071 $1132 #
straight-curve $-1 0 0 0 1 0 0 I I #
point $-1 60 0 0 #
straight-curve $-1 0 10 10 1 0 0 I I #
edge $-1 $1130 0 $991 10 $990 $1133 forward 7 unknown #
point $-1 40 10 10 #
straight-curve $-1 40 0 0 0 1 0 I I #
convexity-sys-attrib $-1 $-1 $-1 $999 #
straight-curve $-1 10 10 10 0 0 -1 I I #
point $-1 10 10 0 #
convexity-sys-attrib $-1 $-1 $-1 $1006 #
straight-curve $-1 0 10 0 1 0 0 I I #
point $-1 60 10 0 #
coedge $-1 $1134 $1012 $1015 $1092 forward $1088 $-1 #
coedge $-1 $1012 $1134 $1036 $1108 forward $1088 $-1 #
loop $-1 $-1 $1086 $1106 #
attrib_edge_convexity-kcp-attrib $-1 $1135 $-1 $1013 1 #
straight-curve $-1 0 40 -40 1 0 0 I I #
coedge $-1 $1015 $1014 $1116 $1136 forward $1016 $-1 #
edge $-1 $1018 -40 $1137 40 $1015 $1138 forward 7 unknown #
face $1139 $-1 $1016 $9 $-1 $1140 reversed single #
convexity-sys-attrib $-1 $-1 $1017 $918 #
point $-1 80 40 -40 #
edge $1141 $1025 70 $1098 80 $1048 $1142 forward 7 unknown #
attrib_edge_convexity-kcp-attrib $-1 $1143 $-1 $1021 1 #
vertex $-1 $1021 $1144 #
straight-curve $-1 80 0 40 0 1 0 I I #
convexity-sys-attrib $-1 $-1 $1024 $925 #
point $-1 70 -40 40 #
coedge $-1 $1145 $1027 $1042 $1112 reversed $1028 $-1 #
face $1146 $1109 $1028 $9 $-1 $1147 reversed single #
point $-1 50 -40 20 #
model_id-kcp-attrib $-1 $-1 $-1 $1033 1 990663517 50 1479671809 21 #
face $1148 $1103 $1088 $9 $-1 $1149 reversed single #
coedge $-1 $1037 $1036 $1145 $1150 reversed $1038 $-1 #
edge $1151 $1152 -40 $1040 40 $1036 $1153 forward 7 unknown #
face $1154 $1093 $1038 $9 $-1 $1155 reversed single #
convexity-sys-attrib $-1 $-1 $1039 $941 #
point $-1 -80 40 -40 #
edge $-1 $1114 -80 $1051 50 $1102 $1142 forward 7 unknown #
attrib_edge_convexity-kcp-attrib $-1 $1156 $-1 $1043 1 #
vertex $-1 $1043 $1157 #
straight-curve $-1 -80 0 40 0 -1 0 I I #
coedge $-1 $1048 $1158 $1091 $1136 reversed $1028 $-1 #
straight-curve $-1 50 -40 15 0 0 1 I I #
point $-1 50 -40 40 #
coedge $-1 $1056 $1055 $1069 $1128 reversed $853 $-1 #
coedge $-1 $1069 $1061 $1057 $1121 forward $480 $-1 #
edge $1159 $1063 -10 $1122 0 $1057 $1160 forward 7 unknown #
vertex $-1 $1121 $1161 #
straight-curve $-1 10 0 10 0 1 0 I I #
point $-1 10 10 10 #
convexity-sys-attrib $-1 $-1 $-1 $1062 #
straight-curve $-1 0 0 20 1 0 0 I I #
point $-1 10 0 20 #
edge $1162 $1122 10 $1130 40 $1119 $1163 forward 7 unknown #
convexity-sys-attrib $-1 $-1 $-1 $1071 #
vertex $-1 $1128 $1164 #
straight-curve $-1 40 0 10 0 0 -1 I I #
point $-1 40 0 0 #
straight-curve $-1 40 0 10 0 1 0 I I #
coedge $-1 $1087 $1086 $1158 $1165 forward $1088 $-1 #
convexity-sys-attrib $-1 $-1 $1089 $1013 #
edge $-1 $1098 -40 $1137 40 $1091 $1166 forward 7 unknown #
vertex $-1 $1136 $1167 #
straight-curve $-1 80 0 -40 0 -1 0 I I #
model_id-kcp-attrib $-1 $-1 $-1 $1093 1 990663517 50 1479671809 25 #
plane-surface $-1 80 0 0 -1 0 0 0 0 1 forward_v I I I I #
attrib_edge_convexity-kcp-attrib $-1 $1168 $-1 $1096 1 #
straight-curve $-1 0 -40 40 1 0 0 I I #
convexity-sys-attrib $-1 $-1 $1097 $1021 #
point $-1 80 -40 40 #
coedge $-1 $1158 $1102 $1107 $1150 forward $1028 $-1 #
model_id-kcp-attrib $-1 $-1 $-1 $1103 1 990663517 50 1479671809 23 #
plane-surface $-1 0 -40 0 0 1 0 0 0 1 forward_v I I I I #
model_id-kcp-attrib $-1 $-1 $-1 $1106 1 990663517 50 1479671809 22 #
plane-surface $-1 0 0 -40 0 0 1 1 0 0 forward_v I I I I #
edge $1169 $1114 -40 $1152 40 $1107 $1170 forward 7 unknown #
attrib_edge_convexity-kcp-attrib $-1 $1171 $-1 $1108 1 #
vertex $-1 $1108 $1172 #
straight-curve $-1 -80 0 -40 0 1 0 I I #
model_id-kcp-attrib $-1 $-1 $-1 $1109 1 990663517 50 1479671809 24 #
plane-surface $-1 -80 0 0 1 0 0 0 0 -1 forward_v I I I I #
convexity-sys-attrib $-1 $-1 $1113 $1043 #
point $-1 -80 -40 40 #
coedge $-1 $1116 $1145 $1134 $1165 reversed $1028 $-1 #
convexity-sys-attrib $-1 $-1 $-1 $1121 #
straight-curve $-1 10 0 10 0 0 -1 I I #
point $-1 10 0 10 #
convexity-sys-attrib $-1 $-1 $-1 $1128 #
straight-curve $-1 0 0 10 1 0 0 I I #
point $-1 40 0 10 #
edge $-1 $1137 -80 $1152 80 $1158 $1173 forward 7 unknown #
straight-curve $-1 80 -40 0 0 0 -1 I I #
point $-1 80 -40 -40 #
convexity-sys-attrib $-1 $-1 $1141 $1096 #
attrib_edge_convexity-kcp-attrib $-1 $1174 $-1 $1150 1 #
straight-curve $-1 -80 -40 0 0 0 -1 I I #
convexity-sys-attrib $-1 $-1 $1151 $1108 #
point $-1 -80 -40 -40 #
straight-curve $-1 0 -40 -40 -1 0 0 I I #
convexity-sys-attrib $-1 $-1 $1169 $1150 #
End-of-ACIS-data 