600 0 2 0           
24 FBMach with ACIS - 6.0.3 13 ACIS 6.0.3 NT 24 Sun Mar 31 23:24:57 2002 
1 9.9999999999999995e-007 1e-010 
body $2 $3 $-1 $4 #
bdycol-kcp $-1 1 3 $5 $6 $7 #
model_id-kcp-attrib $-1 $8 $-1 $0 1 1017635097 50 -634257407 1 #
lump $-1 $-1 $9 $0 #
transform $-1 1 0 0 0 1 0 0 0 1 0 0 0 1 rotate no_reflect no_shear #
body $10 $11 $-1 $12 #
body $13 $14 $-1 $15 #
body $16 $17 $-1 $18 #
aggregate_advspl_attribute-aggregate_geombuild_base_attribute-aggregate_body_attribute-attrib_HH-attrib $-1 $19 $2 $0 F #
shell $-1 $-1 $-1 $20 $-1 $3 #
model_id-kcp-attrib $-1 $-1 $-1 $5 1 1017635097 50 -634257406 1 #
lump $-1 $-1 $21 $5 #
transform $-1 1 0 0 0 1 0 0 0 1 0 0 12.5 1 no_rotate no_reflect no_shear #
rgb_color-st-attrib $-1 $22 $-1 $6 0.5 1 1 #
lump $-1 $-1 $23 $6 #
transform $-1 1 0 0 0 1 0 0 0 1 0 0 12.5 1 no_rotate no_reflect no_shear #
rgb_color-st-attrib $-1 $24 $-1 $7 1 0.5 1 #
lump $-1 $-1 $25 $7 #
transform $-1 1 0 0 0 1 0 0 0 1 0 0 12.5 1 no_rotate no_reflect no_shear #
aggregate_secndry_attribute-aggregate_geombuild_base_attribute-aggregate_body_attribute-attrib_HH-attrib $-1 $26 $8 $0 F #
face $27 $28 $29 $9 $-1 $30 forward single #
shell $-1 $-1 $-1 $31 $-1 $11 #
model_id-kcp-attrib $-1 $-1 $13 $6 1 1017635097 130 -629014525 1 #
shell $-1 $-1 $-1 $32 $-1 $14 #
model_id-kcp-attrib $-1 $-1 $16 $7 1 1017635097 210 -623771644 1 #
shell $-1 $-1 $-1 $33 $-1 $17 #
aggregate_sharped_attribute-aggregate_geombuild_base_attribute-aggregate_body_attribute-attrib_HH-attrib $-1 $34 $19 $0 F #
model_id-kcp-attrib $-1 $35 $-1 $20 1 1017635097 50 -634257407 2 #
face $36 $37 $38 $9 $-1 $39 forward single #
loop $-1 $40 $41 $20 #
cone-surface $-1 0 0 15 0 0 1 5 0 0 1 I I 0 1 5 forward I I I I #
face $42 $43 $44 $21 $-1 $45 forward single #
face $-1 $46 $47 $23 $-1 $48 reversed single #
face $-1 $49 $50 $25 $-1 $51 forward single #
aggregate_reblend_attribute-aggregate_geombuild_base_attribute-aggregate_body_attribute-attrib_HH-attrib $-1 $52 $26 $0 F #
attrib_hh_face_geombuild-attrib_entity_geombuild-individual_entity_attribute-attrib_HH-attrib $-1 $-1 $27 $20 F #
model_id-kcp-attrib $-1 $53 $-1 $28 1 1017635097 50 -634257407 8 #
face $54 $55 $56 $9 $-1 $57 reversed single #
loop $-1 $-1 $58 $28 #
plane-surface $-1 0 0 25 0 0 1 1 0 0 forward_v I I I I #
loop $-1 $-1 $59 $20 #
coedge $60 $41 $41 $58 $61 reversed $29 $-1 #
model_id-kcp-attrib $-1 $-1 $-1 $31 1 1017635097 50 -634257406 2 #
face $62 $63 $64 $21 $-1 $65 reversed single #
loop $-1 $-1 $66 $31 #
plane-surface $-1 0 0 12.5 0 0 1 1 0 0 forward_v I I I I #
face $-1 $67 $68 $23 $-1 $48 reversed single #
loop $-1 $-1 $69 $32 #
cone-surface $-1 3.8913009201198258e-030 0 12.5 0 0 1 10 -6.4164168769864638e-014 0 1 I I 0 1 10 forward I I I I #
face $-1 $70 $71 $25 $-1 $72 forward single #
loop $-1 $73 $74 $33 #
cone-surface $-1 0 0 -2.5 0 0 1 5 0 0 1 I I 0 -1 5 forward I I I I #
aggregate_isospline_attribute-aggregate_geombuild_base_attribute-aggregate_body_attribute-attrib_HH-attrib $-1 $75 $34 $0 F #
model_id-kcp-attrib $-1 $76 $36 $28 1 1017635097 50 -634257407 3 #
model_id-kcp-attrib $-1 $77 $-1 $37 1 1017635097 50 -634257407 4 #
face $78 $79 $80 $9 $-1 $81 forward single #
loop $-1 $82 $83 $37 #
torus-surface $-1 0 0 0 0 0 1 10 5 1 0 0 forward_v I I I I #
coedge $84 $58 $58 $41 $61 forward $38 $-1 #
coedge $85 $59 $59 $86 $87 reversed $40 $-1 #
attrib_hh_coedge_geombuild-attrib_entity_geombuild-individual_entity_attribute-attrib_HH-attrib $-1 $-1 $-1 $41 F #
edge $88 $89 0 $89 6.2831853071795862 $58 $90 forward 7 unknown #
model_id-kcp-attrib $-1 $-1 $-1 $43 1 1017635097 50 -634257406 3 #
face $-1 $91 $92 $21 $-1 $93 reversed single #
loop $-1 $-1 $94 $43 #
plane-surface $-1 0 0 -12.5 0 0 1 1 0 0 forward_v I I I I #
coedge $-1 $95 $96 $97 $98 forward $44 $-1 #
face $-1 $99 $100 $23 $-1 $48 reversed single #
loop $-1 $-1 $101 $46 #
coedge $-1 $102 $103 $104 $105 reversed $47 $-1 #
face $-1 $106 $107 $25 $-1 $108 forward single #
loop $-1 $109 $110 $49 #
cone-surface $-1 3.8913009201198258e-030 0 -2.5 0 0 1 10 -6.4164168769864638e-014 0 1 I I 0 1 10 forward I I I I #
loop $-1 $-1 $111 $33 #
coedge $-1 $74 $74 $112 $113 forward $50 $-1 #
aggregate_analytic_solver_attribute-aggregate_geombuild_base_attribute-aggregate_body_attribute-attrib_HH-attrib $-1 $114 $52 $0 F #
attrib_hh_face_geombuild-attrib_entity_geombuild-individual_entity_attribute-attrib_HH-attrib $-1 $-1 $53 $28 F #
attrib_hh_face_geombuild-attrib_entity_geombuild-individual_entity_attribute-attrib_HH-attrib $-1 $-1 $54 $37 F #
model_id-kcp-attrib $-1 $115 $-1 $55 1 1017635097 50 -634257407 5 #
face $116 $117 $118 $9 $-1 $119 forward single #
loop $-1 $120 $121 $55 #
cone-surface $-1 0 0 5 0 0 1 10 0 0 1 I I 0 1 10 forward I I I I #
loop $-1 $-1 $122 $37 #
coedge $123 $83 $83 $121 $124 reversed $56 $-1 #
attrib_hh_coedge_geombuild-attrib_entity_geombuild-individual_entity_attribute-attrib_HH-attrib $-1 $-1 $-1 $58 F #
attrib_hh_coedge_geombuild-attrib_entity_geombuild-individual_entity_attribute-attrib_HH-attrib $-1 $-1 $-1 $59 F #
coedge $125 $86 $86 $59 $87 forward $126 $-1 #
edge $127 $128 -3.1415926535897998 $128 3.1415926535897865 $86 $129 forward 7 unknown #
attrib_edge_convexity-kcp-attrib $-1 $130 $-1 $61 1 #
vertex $131 $61 $132 #
ellipse-curve $-1 0 0 25 0 0 1 5 0 0 1 I I #
face $-1 $133 $134 $21 $-1 $135 reversed single #
loop $-1 $-1 $136 $63 #
plane-surface $-1 0 -10 0 0 1 0 0 0 1 forward_v I I I I #
coedge $-1 $137 $138 $139 $140 forward $64 $-1 #
coedge $-1 $141 $66 $142 $143 forward $44 $-1 #
coedge $-1 $66 $141 $144 $145 forward $44 $-1 #
coedge $-1 $146 $147 $66 $98 reversed $148 $-1 #
edge $-1 $149 -10 $150 10 $97 $151 forward 7 unknown #
face $-1 $152 $153 $23 $-1 $48 reversed single #
loop $-1 $-1 $154 $67 #
coedge $-1 $155 $156 $157 $158 reversed $68 $-1 #
coedge $-1 $159 $69 $160 $161 reversed $47 $-1 #
coedge $-1 $69 $159 $162 $163 reversed $47 $-1 #
coedge $-1 $164 $165 $166 $105 forward $167 $-1 #
edge $-1 $168 -25 $169 0 $104 $170 forward 7 unknown #
face $-1 $-1 $171 $25 $-1 $172 reversed single #
loop $-1 $173 $174 $70 #
plane-surface $-1 -0.75757575757575735 2.8776089124133725e-015 12.5 0 0 1 1 0 0 forward_v I I I I #
loop $-1 $-1 $175 $49 #
coedge $-1 $110 $110 $174 $176 forward $71 $-1 #
coedge $-1 $111 $111 $177 $178 reversed $73 $-1 #
coedge $-1 $112 $112 $74 $113 reversed $173 $-1 #
edge $-1 $179 -3.1415926535897865 $179 3.1415926535897998 $74 $180 forward 7 unknown #
aggregate_geombuild_attribute-aggregate_geombuild_base_attribute-aggregate_body_attribute-attrib_HH-attrib $-1 $181 $75 $0 #
attrib_hh_face_geombuild-attrib_entity_geombuild-individual_entity_attribute-attrib_HH-attrib $-1 $-1 $78 $55 F #
model_id-kcp-attrib $-1 $182 $-1 $79 1 1017635097 50 -634257407 6 #
face $183 $-1 $126 $9 $-1 $184 forward single #
loop $-1 $-1 $185 $79 #
plane-surface $-1 0 0 0 0 0 -1 -1 0 0 forward_v I I I I #
loop $-1 $-1 $186 $55 #
coedge $187 $121 $121 $83 $124 forward $80 $-1 #
coedge $188 $122 $122 $185 $189 reversed $82 $-1 #
attrib_hh_coedge_geombuild-attrib_entity_geombuild-individual_entity_attribute-attrib_HH-attrib $-1 $-1 $-1 $83 F #
edge $190 $191 -3.1415926535897998 $191 3.1415926535897865 $121 $192 forward 7 unknown #
attrib_hh_coedge_geombuild-attrib_entity_geombuild-individual_entity_attribute-attrib_HH-attrib $-1 $-1 $-1 $86 F #
loop $-1 $193 $86 $117 #
attrib_hh_edge_geombuild-attrib_entity_geombuild-individual_entity_attribute-attrib_HH-attrib $-1 $-1 $-1 $87 F #
vertex $194 $87 $195 #
ellipse-curve $-1 0 0 10 0 0 -1 5 0 0 1 I I #
convexity-sys-attrib $-1 $196 $88 $61 #
attrib_hh_vertex_geombuild-attrib_entity_geombuild-individual_entity_attribute-attrib_HH-attrib $-1 $-1 $-1 $89 F #
point $-1 5 0 25 #
face $-1 $197 $198 $21 $-1 $199 reversed single #
loop $-1 $-1 $200 $91 #
plane-surface $-1 -10 0 0 1 0 0 0 0 -1 forward_v I I I I #
coedge $-1 $201 $144 $202 $203 forward $92 $-1 #
coedge $-1 $204 $94 $201 $205 forward $64 $-1 #
coedge $-1 $94 $204 $206 $207 forward $64 $-1 #
coedge $-1 $147 $146 $94 $140 reversed $148 $-1 #
edge $-1 $208 -10 $209 10 $139 $210 forward 7 unknown #
coedge $-1 $96 $95 $211 $212 forward $44 $-1 #
coedge $-1 $213 $214 $95 $143 reversed $198 $-1 #
edge $-1 $150 -10 $215 10 $142 $216 forward 7 unknown #
coedge $-1 $136 $217 $96 $145 reversed $92 $-1 #
edge $-1 $218 -10 $149 10 $144 $219 forward 7 unknown #
coedge $-1 $139 $97 $217 $220 forward $148 $-1 #
coedge $-1 $97 $139 $213 $221 reversed $148 $-1 #
loop $-1 $-1 $146 $197 #
vertex $-1 $98 $222 #
vertex $-1 $98 $223 #
straight-curve $-1 10 0 12.5 0 1 0 I I #
face $-1 $224 $225 $23 $-1 $226 reversed single #
loop $-1 $-1 $227 $99 #
coedge $-1 $228 $229 $230 $231 reversed $100 $-1 #
coedge $-1 $232 $101 $233 $234 reversed $68 $-1 #
coedge $-1 $101 $232 $69 $105 forward $68 $-1 #
coedge $-1 $235 $236 $101 $158 forward $237 $-1 #
edge $-1 $238 -3.1415926535897993 $169 -1.570796326794903 $157 $239 forward 7 unknown #
coedge $-1 $103 $102 $229 $240 forward $47 $-1 #
coedge $-1 $241 $242 $102 $161 forward $243 $-1 #
edge $-1 $244 6.4164168769864638e-015 $168 1.570796326794903 $160 $245 forward 7 unknown #
coedge $-1 $246 $247 $103 $163 forward $248 $-1 #
edge $-1 $169 -1.570796326794903 $249 -6.4164168769864638e-015 $162 $239 forward 7 unknown #
coedge $-1 $250 $104 $247 $251 reversed $167 $-1 #
coedge $-1 $104 $250 $241 $252 reversed $167 $-1 #
coedge $-1 $253 $254 $156 $105 reversed $255 $-1 #
loop $-1 $-1 $104 $256 #
vertex $-1 $252 $257 #
vertex $-1 $258 $259 #
straight-curve $-1 3.8913009201198258e-030 10 12.5 0 0 1 I I #
loop $-1 $260 $261 $106 #
plane-surface $-1 -0.75757575757575735 2.8776089124133725e-015 -2.5000000000000004 0 0 1 1 0 0 forward_v I I I I #
loop $-1 $-1 $112 $70 #
coedge $-1 $174 $174 $110 $176 reversed $107 $-1 #
coedge $-1 $175 $175 $261 $262 reversed $109 $-1 #
edge $-1 $263 -3.1415926535897931 $263 3.1415926535897931 $110 $264 forward 7 unknown #
coedge $-1 $177 $177 $111 $178 forward $260 $-1 #
edge $-1 $265 -3.1415926535897865 $265 3.1415926535897998 $111 $266 forward 7 unknown #
vertex $-1 $113 $267 #
ellipse-curve $-1 0 0 12.5 0 0 1 5 0 0 1 I I #
aggregate_stitch_attribute-aggregate_stitch_base_attribute-aggregate_body_attribute-attrib_HH-attrib $-1 $268 $114 $0 F #
attrib_hh_face_geombuild-attrib_entity_geombuild-individual_entity_attribute-attrib_HH-attrib $-1 $-1 $116 $79 F #
model_id-kcp-attrib $-1 $269 $-1 $117 1 1017635097 50 -634257407 7 #
plane-surface $-1 0 0 10 0 0 1 1 0 0 forward_v I I I I #
coedge $270 $185 $185 $122 $189 forward $118 $-1 #
coedge $271 $186 $186 $272 $273 reversed $120 $-1 #
attrib_hh_coedge_geombuild-attrib_entity_geombuild-individual_entity_attribute-attrib_HH-attrib $-1 $-1 $-1 $121 F #
attrib_hh_coedge_geombuild-attrib_entity_geombuild-individual_entity_attribute-attrib_HH-attrib $-1 $-1 $-1 $122 F #
edge $274 $275 -3.1415926535897998 $275 3.1415926535897865 $185 $276 forward 7 unknown #
attrib_hh_edge_geombuild-attrib_entity_geombuild-individual_entity_attribute-attrib_HH-attrib $-1 $-1 $-1 $124 F #
vertex $277 $124 $278 #
ellipse-curve $-1 0 0 5 0 0 1 10 0 0 1 I I #
loop $-1 $-1 $272 $117 #
attrib_hh_vertex_geombuild-attrib_entity_geombuild-individual_entity_attribute-attrib_HH-attrib $-1 $-1 $-1 $128 F #
point $-1 -5 -3.4914813388431302e-014 10 #
attrib_hh_edge_geombuild-attrib_entity_geombuild-individual_entity_attribute-attrib_HH-attrib $-1 $-1 $130 $61 F #
face $-1 $-1 $148 $21 $-1 $279 reversed single #
loop $-1 $-1 $213 $133 #
plane-surface $-1 0 10 0 0 -1 0 0 0 -1 forward_v I I I I #
coedge $-1 $280 $211 $214 $281 forward $134 $-1 #
coedge $-1 $217 $136 $137 $205 reversed $92 $-1 #
coedge $-1 $211 $280 $136 $203 reversed $134 $-1 #
edge $-1 $218 -12.5 $282 12.5 $202 $283 forward 7 unknown #
coedge $-1 $138 $137 $280 $284 forward $64 $-1 #
edge $-1 $209 -10 $282 10 $201 $285 forward 7 unknown #
coedge $-1 $214 $213 $138 $207 reversed $198 $-1 #
edge $-1 $286 -10 $208 10 $206 $287 forward 7 unknown #
vertex $-1 $140 $288 #
vertex $-1 $220 $289 #
straight-curve $-1 10 0 -12.5 0 -1 0 I I #
coedge $-1 $200 $202 $141 $212 reversed $134 $-1 #
edge $-1 $215 -10 $218 10 $211 $290 forward 7 unknown #
coedge $-1 $206 $142 $147 $221 forward $198 $-1 #
coedge $-1 $142 $206 $200 $281 reversed $198 $-1 #
vertex $-1 $143 $291 #
straight-curve $-1 0 10 12.5 -1 0 0 I I #
coedge $-1 $144 $201 $146 $220 reversed $92 $-1 #
vertex $-1 $212 $292 #
straight-curve $-1 0 -10 12.5 1 0 0 I I #
edge $-1 $149 -12.5 $209 12.5 $146 $293 forward 7 unknown #
edge $-1 $150 -12.5 $208 12.5 $147 $294 forward 7 unknown #
point $-1 10 -10 12.5 #
point $-1 10 10 12.5 #
face $-1 $295 $255 $23 $-1 $296 reversed single #
loop $-1 $-1 $297 $152 #
plane-surface $-1 10 0 0 -1 0 0 0 0 1 forward_v I I I I #
coedge $-1 $298 $299 $300 $301 reversed $153 $-1 #
coedge $-1 $302 $154 $299 $303 forward $100 $-1 #
coedge $-1 $154 $302 $304 $240 reversed $100 $-1 #
coedge $-1 $305 $306 $154 $231 forward $307 $-1 #
edge $-1 $308 -1.5707963267948901 $244 6.4164168769864638e-015 $230 $245 forward 7 unknown #
coedge $-1 $156 $155 $309 $310 reversed $68 $-1 #
coedge $-1 $311 $312 $313 $234 forward $314 $-1 #
edge $-1 $315 -25 $238 0 $233 $316 forward 7 unknown #
coedge $-1 $236 $157 $254 $258 forward $237 $-1 #
coedge $-1 $157 $235 $311 $317 forward $237 $-1 #
loop $-1 $-1 $157 $318 #
vertex $-1 $319 $320 #
ellipse-curve $-1 3.8913009201198258e-030 0 12.5 0 0 -1 10 -6.4164168769864638e-014 0 1 I I #
edge $-1 $244 -25 $249 0 $304 $321 forward 7 unknown #
coedge $-1 $242 $160 $165 $252 forward $243 $-1 #
coedge $-1 $160 $241 $322 $323 forward $243 $-1 #
loop $-1 $-1 $160 $324 #
vertex $-1 $325 $326 #
ellipse-curve $-1 3.8913009201198258e-030 0 -12.5 0 0 1 10 -6.4164168769864638e-014 0 1 I I #
coedge $-1 $247 $162 $327 $328 forward $248 $-1 #
coedge $-1 $162 $246 $164 $251 forward $248 $-1 #
loop $-1 $-1 $162 $329 #
vertex $-1 $328 $330 #
coedge $-1 $165 $164 $331 $332 forward $167 $-1 #
edge $-1 $333 -10 $169 -3.8913009201198258e-030 $164 $334 forward 7 unknown #
edge $-1 $168 3.8913009201198258e-030 $335 10 $165 $336 forward 7 unknown #
coedge $-1 $337 $166 $338 $339 reversed $255 $-1 #
coedge $-1 $166 $337 $235 $258 reversed $255 $-1 #
loop $-1 $-1 $166 $224 #
face $-1 $340 $167 $23 $-1 $296 reversed single #
point $-1 3.8913009201198258e-030 10 -12.5 #
edge $-1 $169 -3.8913009201198258e-030 $341 10 $254 $334 forward 7 unknown #
point $-1 3.8913009201198258e-030 10 12.5 #
loop $-1 $-1 $177 $106 #
coedge $-1 $261 $261 $175 $262 forward $171 $-1 #
edge $342 $343 -3.1415926535897931 $343 3.1415926535897931 $175 $344 forward 7 unknown #
vertex $-1 $176 $345 #
ellipse-curve $-1 3.8913009201198258e-030 0 12.5 0 0 -1 10 -6.4164168769864638e-014 0 1 I I #
vertex $-1 $178 $346 #
ellipse-curve $-1 0 0 -2.5 0 0 1 5 0 0 1 I I #
point $-1 -5 -3.4914813388431308e-014 12.5 #
aggregate_simgeom_attribute-aggregate_simgeom_base_attribute-aggregate_body_attribute-attrib_HH-attrib $-1 $-1 $181 $0 F #
attrib_hh_face_geombuild-attrib_entity_geombuild-individual_entity_attribute-attrib_HH-attrib $-1 $-1 $183 $117 F #
attrib_hh_coedge_geombuild-attrib_entity_geombuild-individual_entity_attribute-attrib_HH-attrib $-1 $-1 $-1 $185 F #
attrib_hh_coedge_geombuild-attrib_entity_geombuild-individual_entity_attribute-attrib_HH-attrib $-1 $-1 $-1 $186 F #
coedge $347 $272 $272 $186 $273 forward $193 $-1 #
edge $348 $349 0 $349 6.2831853071795862 $272 $350 forward 7 unknown #
attrib_hh_edge_geombuild-attrib_entity_geombuild-individual_entity_attribute-attrib_HH-attrib $-1 $-1 $-1 $189 F #
vertex $351 $189 $352 #
ellipse-curve $-1 0 0 0 0 0 -1 5 0 0 1 I I #
attrib_hh_vertex_geombuild-attrib_entity_geombuild-individual_entity_attribute-attrib_HH-attrib $-1 $-1 $-1 $191 F #
point $-1 -10 6.9829626776862705e-014 5 #
plane-surface $-1 10 0 0 -1 0 0 0 0 1 forward_v I I I I #
coedge $-1 $202 $200 $204 $284 reversed $134 $-1 #
edge $-1 $215 -12.5 $286 12.5 $214 $353 forward 7 unknown #
vertex $-1 $284 $354 #
straight-curve $-1 -10 -10 0 0 0 -1 I I #
edge $-1 $282 -10 $286 10 $280 $355 forward 7 unknown #
straight-curve $-1 0 -10 -12.5 -1 0 0 I I #
vertex $-1 $207 $356 #
straight-curve $-1 0 10 -12.5 1 0 0 I I #
point $-1 10 10 -12.5 #
point $-1 10 -10 -12.5 #
straight-curve $-1 -10 0 12.5 0 -1 0 I I #
point $-1 -10 10 12.5 #
point $-1 -10 -10 12.5 #
straight-curve $-1 10 -10 0 0 0 -1 I I #
straight-curve $-1 10 10 0 0 0 -1 I I #
face $-1 $357 $358 $23 $-1 $359 reversed single #
plane-surface $-1 0 10 0 0 -1 0 0 0 -1 forward_v I I I I #
coedge $-1 $322 $327 $159 $240 reversed $225 $-1 #
coedge $-1 $360 $227 $155 $234 forward $153 $-1 #
coedge $-1 $227 $360 $361 $303 reversed $153 $-1 #
coedge $-1 $362 $363 $227 $301 forward $364 $-1 #
edge $-1 $315 -3.1415926535897869 $308 -1.5707963267948901 $300 $245 forward 7 unknown #
coedge $-1 $229 $228 $365 $366 reversed $100 $-1 #
edge $-1 $308 -25 $367 0 $361 $368 forward 7 unknown #
coedge $-1 $369 $370 $297 $240 forward $371 $-1 #
coedge $-1 $306 $230 $370 $325 forward $307 $-1 #
coedge $-1 $230 $305 $372 $373 forward $307 $-1 #
loop $-1 $-1 $230 $374 #
vertex $-1 $375 $376 #
coedge $-1 $377 $338 $232 $310 forward $378 $-1 #
edge $-1 $168 1.570796326794903 $315 3.1415926535897993 $309 $245 forward 7 unknown #
coedge $-1 $379 $233 $236 $317 reversed $314 $-1 #
coedge $-1 $233 $379 $377 $380 reversed $314 $-1 #
coedge $-1 $381 $382 $298 $234 reversed $358 $-1 #
loop $-1 $-1 $233 $383 #
vertex $-1 $380 $384 #
straight-curve $-1 -10 0 12.5 0 0 1 I I #
edge $-1 $341 -10 $238 0 $311 $385 forward 7 unknown #
face $-1 $329 $237 $23 $-1 $386 forward single #
edge $-1 $238 0 $387 10 $382 $385 forward 7 unknown #
point $-1 -10 0 12.5 #
straight-curve $-1 10 0 12.5 0 0 1 I I #
coedge $-1 $331 $297 $242 $323 reversed $225 $-1 #
edge $-1 $335 -10 $244 0 $322 $388 forward 7 unknown #
face $-1 $389 $243 $23 $-1 $390 reversed single #
edge $-1 $244 0 $391 10 $370 $388 forward 7 unknown #
point $-1 10 0 -12.5 #
coedge $-1 $297 $331 $246 $328 reversed $225 $-1 #
edge $-1 $249 0 $333 10 $327 $392 forward 7 unknown #
face $-1 $393 $248 $23 $-1 $386 forward single #
point $-1 10 0 12.5 #
coedge $-1 $327 $322 $250 $332 reversed $225 $-1 #
edge $-1 $333 -12.5 $335 12.5 $331 $394 forward 7 unknown #
vertex $-1 $328 $395 #
straight-curve $-1 0 10 12.5 -1 0 0 I I #
vertex $-1 $323 $396 #
straight-curve $-1 0 10 -12.5 1 0 0 I I #
coedge $-1 $254 $253 $379 $397 reversed $255 $-1 #
coedge $-1 $309 $377 $253 $339 forward $378 $-1 #
edge $-1 $398 -10 $168 3.8913009201198258e-030 $253 $336 forward 7 unknown #
face $-1 $-1 $371 $23 $-1 $226 reversed single #
vertex $-1 $258 $399 #
convexity-sys-attrib $-1 $-1 $-1 $262 #
vertex $-1 $262 $400 #
ellipse-curve $-1 3.8913009201198258e-030 0 -2.5 0 0 -1 10 -6.4164168769864638e-014 0 1 I I #
point $-1 -10 6.5388775123687015e-014 12.5 #
point $-1 -5 -3.4914813388431302e-014 -2.5 #
attrib_hh_coedge_geombuild-attrib_entity_geombuild-individual_entity_attribute-attrib_HH-attrib $-1 $-1 $-1 $272 F #
attrib_hh_edge_geombuild-attrib_entity_geombuild-individual_entity_attribute-attrib_HH-attrib $-1 $-1 $-1 $273 F #
vertex $401 $273 $402 #
ellipse-curve $-1 0 0 10 0 0 1 10 0 0 1 I I #
attrib_hh_vertex_geombuild-attrib_entity_geombuild-individual_entity_attribute-attrib_HH-attrib $-1 $-1 $-1 $275 F #
point $-1 -5 -3.4914813388431302e-014 0 #
straight-curve $-1 -10 10 0 0 0 -1 I I #
point $-1 -10 -10 -12.5 #
straight-curve $-1 -10 0 -12.5 0 1 0 I I #
point $-1 -10 10 -12.5 #
face $-1 $318 $403 $23 $-1 $386 forward single #
loop $-1 $-1 $313 $295 #
plane-surface $-1 -10 0 0 1 0 0 0 0 -1 forward_v I I I I #
coedge $-1 $299 $298 $404 $405 reversed $153 $-1 #
coedge $-1 $406 $407 $408 $303 forward $409 $-1 #
coedge $-1 $363 $300 $407 $375 forward $364 $-1 #
coedge $-1 $300 $362 $381 $410 forward $364 $-1 #
loop $-1 $-1 $300 $411 #
coedge $-1 $412 $413 $302 $366 forward $414 $-1 #
edge $-1 $249 -6.4164168769864638e-015 $367 1.5707963267948901 $365 $239 forward 7 unknown #
vertex $-1 $415 $416 #
straight-curve $-1 3.8913009201198258e-030 -10 12.5 0 0 1 I I #
coedge $-1 $417 $304 $413 $418 reversed $371 $-1 #
coedge $-1 $304 $417 $305 $325 reversed $371 $-1 #
loop $-1 $-1 $304 $340 #
coedge $-1 $419 $408 $306 $373 reversed $420 $-1 #
edge $-1 $391 -10 $308 -3.8913009201198258e-030 $372 $421 forward 7 unknown #
face $-1 $324 $307 $23 $-1 $390 reversed single #
edge $-1 $308 -3.8913009201198258e-030 $422 10 $407 $421 forward 7 unknown #
point $-1 3.8913009201198258e-030 -10 -12.5 #
coedge $-1 $338 $309 $312 $380 forward $378 $-1 #
loop $-1 $-1 $309 $389 #
coedge $-1 $312 $311 $337 $397 forward $314 $-1 #
edge $-1 $315 0 $398 10 $312 $423 forward 7 unknown #
coedge $-1 $424 $313 $363 $410 reversed $358 $-1 #
coedge $-1 $313 $424 $425 $319 reversed $358 $-1 #
face $-1 $256 $314 $23 $-1 $359 reversed single #
point $-1 -10 0 -12.5 #
straight-curve $-1 -10 0 12.5 0 -1 0 I I #
plane-surface $-1 0 0 12.5 0 0 1 1 0 0 forward_v I I I I #
vertex $-1 $319 $426 #
straight-curve $-1 10 0 -12.5 0 -1 0 I I #
face $-1 $427 $378 $23 $-1 $390 reversed single #
plane-surface $-1 0 0 -12.5 0 0 1 1 0 0 forward_v I I I I #
vertex $-1 $428 $429 #
straight-curve $-1 10 0 12.5 0 1 0 I I #
face $-1 $430 $414 $23 $-1 $386 forward single #
straight-curve $-1 10 10 0 0 0 -1 I I #
point $-1 10 10 12.5 #
point $-1 10 10 -12.5 #
edge $-1 $341 -12.5 $398 12.5 $337 $431 forward 7 unknown #
vertex $-1 $339 $432 #
point $-1 -10 10 12.5 #
point $-1 -10 6.5388775123687015e-014 -2.5 #
attrib_hh_vertex_geombuild-attrib_entity_geombuild-individual_entity_attribute-attrib_HH-attrib $-1 $-1 $-1 $349 F #
point $-1 10 0 10 #
loop $-1 $-1 $404 $357 #
coedge $-1 $425 $433 $360 $405 forward $403 $-1 #
edge $-1 $367 1.5707963267948901 $238 3.1415926535897869 $404 $239 forward 7 unknown #
coedge $-1 $434 $361 $433 $435 reversed $409 $-1 #
coedge $-1 $361 $434 $362 $375 reversed $409 $-1 #
coedge $-1 $372 $436 $228 $303 reversed $420 $-1 #
loop $-1 $-1 $361 $427 #
edge $-1 $422 -10 $315 0 $381 $423 forward 7 unknown #
face $-1 $374 $364 $23 $-1 $390 reversed single #
coedge $-1 $413 $365 $436 $415 forward $414 $-1 #
coedge $-1 $365 $412 $369 $418 forward $414 $-1 #
loop $-1 $-1 $365 $393 #
edge $-1 $367 3.8913009201198258e-030 $437 10 $436 $438 forward 7 unknown #
point $-1 3.8913009201198258e-030 -10 12.5 #
coedge $-1 $370 $369 $419 $428 forward $371 $-1 #
edge $-1 $437 -10 $249 0 $369 $392 forward 7 unknown #
coedge $-1 $436 $372 $417 $428 reversed $420 $-1 #
loop $-1 $-1 $408 $430 #
straight-curve $-1 0 -10 -12.5 -1 0 0 I I #
vertex $-1 $410 $439 #
straight-curve $-1 -10 0 -12.5 0 1 0 I I #
coedge $-1 $382 $381 $434 $440 reversed $358 $-1 #
coedge $-1 $433 $404 $382 $319 forward $403 $-1 #
point $-1 -10 -10 12.5 #
face $-1 $383 $409 $23 $-1 $441 reversed single #
edge $-1 $437 -12.5 $391 12.5 $417 $442 forward 7 unknown #
point $-1 10 -10 -12.5 #
face $-1 $411 $420 $23 $-1 $441 reversed single #
straight-curve $-1 -10 10 0 0 0 -1 I I #
point $-1 -10 10 -12.5 #
coedge $-1 $404 $425 $406 $435 forward $403 $-1 #
coedge $-1 $407 $406 $424 $440 forward $409 $-1 #
edge $-1 $387 -10 $367 3.8913009201198258e-030 $406 $438 forward 7 unknown #
coedge $-1 $408 $419 $412 $415 reversed $420 $-1 #
vertex $-1 $418 $443 #
straight-curve $-1 0 -10 12.5 1 0 0 I I #
point $-1 -10 -10 -12.5 #
edge $-1 $387 -12.5 $422 12.5 $424 $444 forward 7 unknown #
plane-surface $-1 0 -10 0 0 1 0 0 0 1 forward_v I I I I #
straight-curve $-1 10 -10 0 0 0 -1 I I #
point $-1 10 -10 12.5 #
straight-curve $-1 -10 -10 0 0 0 -1 I I #
End-of-ACIS-data 