105 56 1 0                              
body $-1 $1 $-1 $2 #
lump $-1 $-1 $3 $0 #
transform $-1 1 0 0 0 1 0 0 0 1 0 0 5 1 0 0 0 #
shell $-1 $-1 $-1 $4 $1 #
face $-1 $5 $6 $3 $-1 $7 forward single #
face $-1 $8 $9 $3 $-1 $10 forward single #
loop $-1 $11 $12 $4 #
cone-surface $-1 0 0 10 0 0 1 5 0 0 1 0 1 0 #
face $-1 $13 $14 $3 $-1 $15 reversed single #
loop $-1 $-1 $16 $5 #
plane-surface $-1 0 0 20 0 0 1 1 0 0 0 #
loop $-1 $-1 $17 $4 #
coedge $-1 $12 $12 $16 $18 1 $6 $-1 #
face $-1 $19 $20 $3 $-1 $21 forward single #
loop $-1 $22 $23 $8 #
torus-surface $-1 0 0 -5 0 0 1 10 5 1 0 0 0 #
coedge $-1 $16 $16 $12 $18 0 $9 $-1 #
coedge $-1 $17 $17 $24 $25 1 $11 $-1 #
edge $-1 $26 $26 $16 $27 0 #
face $-1 $28 $29 $3 $-1 $30 forward single #
loop $-1 $31 $32 $13 #
cone-surface $-1 0 0 0 0 0 1 10 0 0 1 0 1 0 #
loop $-1 $-1 $33 $8 #
coedge $-1 $23 $23 $32 $34 1 $14 $-1 #
coedge $-1 $24 $24 $17 $25 0 $35 $-1 #
edge $-1 $36 $36 $24 $37 0 #
vertex $-1 $18 $38 #
ellipse-curve $-1 0 0 20 0 0 1 5 0 0 1 #
face $-1 $-1 $35 $3 $-1 $39 forward single #
loop $-1 $-1 $40 $19 #
plane-surface $-1 0 0 -5 0 0 -1 -1 0 0 0 #
loop $-1 $-1 $41 $13 #
coedge $-1 $32 $32 $23 $34 0 $20 $-1 #
coedge $-1 $33 $33 $40 $42 1 $22 $-1 #
edge $-1 $43 $43 $32 $44 0 #
loop $-1 $45 $24 $28 #
vertex $-1 $25 $46 #
ellipse-curve $-1 0 0 5 -0 -0 -1 5 0 0 1 #
point $-1 5 0 20 #
plane-surface $-1 0 0 5 0 0 1 1 0 0 0 #
coedge $-1 $40 $40 $33 $42 0 $29 $-1 #
coedge $-1 $41 $41 $47 $48 1 $31 $-1 #
edge $-1 $49 $49 $40 $50 0 #
vertex $-1 $34 $51 #
ellipse-curve $-1 0 0 0 0 0 1 10 0 0 1 #
loop $-1 $-1 $47 $28 #
point $-1 -5 -3.49148133884313e-14 5 #
coedge $-1 $47 $47 $41 $48 0 $45 $-1 #
edge $-1 $52 $52 $47 $53 0 #
vertex $-1 $42 $54 #
ellipse-curve $-1 0 0 -5 0 0 -1 5 0 0 1 #
point $-1 -10 6.98296267768627e-14 0 #
vertex $-1 $48 $55 #
ellipse-curve $-1 0 0 5 0 0 1 10 0 0 1 #
point $-1 -5 -3.49148133884313e-14 -5 #
point $-1 10 0 5 #
