600 0 1 0           
101 GICL ACIS Healer - Source: /gicl/data5/repository/UMD/Tools/edge-round_tool/edge-round_tool.sat - 6 0 18 ACIS 6.0.3 Solaris 24 Sun Apr 14 00:33:46 2002 
1 9.999999999999999547e-07 1.000000000000000036e-10 
body $-1 $1 $-1 $-1 #
lump $-1 $-1 $2 $0 #
shell $-1 $-1 $-1 $3 $-1 $1 #
face $-1 $4 $5 $2 $-1 $6 forward single #
face $-1 $7 $8 $2 $-1 $9 forward single #
loop $-1 $10 $11 $3 #
cone-surface $-1 0 0 15 0 0 1 5 0 0 1 I I 0 1 5 forward I I I I #
face $-1 $12 $13 $2 $-1 $14 reversed single #
loop $-1 $-1 $15 $4 #
plane-surface $-1 0 0 25 0 0 1 1 0 0 forward_v I I I I #
loop $-1 $-1 $16 $3 #
coedge $-1 $11 $11 $15 $17 reversed $5 $-1 #
face $-1 $18 $19 $2 $-1 $20 forward single #
loop $-1 $21 $22 $7 #
torus-surface $-1 0 0 0 0 0 1 10 5 1 0 0 forward_v I I I I #
coedge $-1 $15 $15 $11 $17 forward $8 $-1 #
coedge $-1 $16 $16 $23 $24 reversed $10 $-1 #
edge $-1 $25 0 $25 6.283185307179586232 $15 $26 forward 7 unknown #
face $-1 $27 $28 $2 $-1 $29 forward single #
loop $-1 $30 $31 $12 #
cone-surface $-1 0 0 5 0 0 1 10 0 0 1 I I 0 1 10 forward I I I I #
loop $-1 $-1 $32 $7 #
coedge $-1 $22 $22 $31 $33 reversed $13 $-1 #
coedge $-1 $23 $23 $16 $24 forward $34 $-1 #
edge $-1 $35 -3.141592653589799777 $35 3.141592653589786455 $23 $36 forward 7 unknown #
vertex $-1 $17 $37 #
ellipse-curve $-1 0 0 25 0 0 1 5 0 0 1 I I #
face $-1 $-1 $34 $2 $-1 $38 forward single #
loop $-1 $-1 $39 $18 #
plane-surface $-1 0 0 0 0 0 -1 -1 0 0 forward_v I I I I #
loop $-1 $-1 $40 $12 #
coedge $-1 $31 $31 $22 $33 forward $19 $-1 #
coedge $-1 $32 $32 $39 $41 reversed $21 $-1 #
edge $-1 $42 -3.141592653589799777 $42 3.141592653589786455 $31 $43 forward 7 unknown #
loop $-1 $44 $23 $27 #
vertex $-1 $24 $45 #
ellipse-curve $-1 0 0 10 -0 -0 -1 5 0 0 1 I I #
point $-1 5 0 25 #
plane-surface $-1 0 0 10 0 0 1 1 0 0 forward_v I I I I #
coedge $-1 $39 $39 $32 $41 forward $28 $-1 #
coedge $-1 $40 $40 $46 $47 reversed $30 $-1 #
edge $-1 $48 -3.141592653589799777 $48 3.141592653589786455 $39 $49 forward 7 unknown #
vertex $-1 $33 $50 #
ellipse-curve $-1 0 0 5 0 0 1 10 0 0 1 I I #
loop $-1 $-1 $46 $27 #
point $-1 -5 -3.4914813388431302e-14 10 #
coedge $-1 $46 $46 $40 $47 forward $44 $-1 #
edge $-1 $51 0 $51 6.283185307179586232 $46 $52 forward 7 unknown #
vertex $-1 $41 $53 #
ellipse-curve $-1 0 0 0 0 0 -1 5 0 0 1 I I #
point $-1 -10 6.982962677686270497e-14 5 #
vertex $-1 $47 $54 #
ellipse-curve $-1 0 0 10 0 0 1 10 0 0 1 I I #
point $-1 -5 -3.4914813388431302e-14 0 #
point $-1 10 0 10 #
End-of-ACIS-data 