105 139 1 0                             
body $-1 $1 $-1 $2 #
lump $-1 $-1 $3 $0 #
transform $-1 1 0 0 0 1 0 0 0 1 0 0 0 1 0 0 0 #
shell $-1 $-1 $-1 $4 $1 #
face $5 $6 $7 $3 $-1 $8 forward single #
pid_name-sg-attrib $-1 $-1 $-1 $4 7 114 119 105 108 115 111 110 784252905 99 1 #
face $9 $10 $11 $3 $-1 $12 forward single #
loop $-1 $13 $14 $4 #
cone-surface $-1 0 0.030475 0 0 -1 0 -0.03115 0 0 1 0 1 0 #
pid_name-sg-attrib $-1 $-1 $-1 $6 7 114 119 105 108 115 111 110 784252905 100 1 #
face $15 $16 $17 $3 $-1 $18 forward single #
loop $-1 $-1 $19 $6 #
plane-surface $-1 0 -0.6095 0 0 -1 0 0 0 -1 0 #
loop $-1 $-1 $20 $4 #
coedge $-1 $14 $14 $21 $22 0 $7 $-1 #
pid_name-sg-attrib $-1 $-1 $-1 $10 7 114 119 105 108 115 111 110 784252905 101 1 #
face $23 $24 $25 $3 $-1 $26 reversed single #
loop $-1 $27 $28 $10 #
cone-surface $-1 0 0.030475 0 0 -1 0 -0.0265 0 0 1 0 1 0 #
coedge $-1 $19 $19 $20 $29 1 $11 $-1 #
coedge $-1 $20 $20 $19 $29 0 $13 $-1 #
coedge $-1 $21 $21 $14 $22 1 $30 $-1 #
edge $-1 $31 $31 $21 $32 0 #
pid_name-sg-attrib $-1 $-1 $-1 $16 7 114 119 105 108 115 111 110 784252905 102 1 #
face $33 $34 $35 $3 $-1 $36 forward single #
loop $-1 $30 $37 $16 #
plane-surface $-1 0 -0.5935 0 0 -1 0 0 0 -1 0 #
loop $-1 $-1 $38 $10 #
coedge $-1 $28 $28 $39 $40 0 $17 $-1 #
edge $-1 $41 $41 $19 $42 0 #
loop $-1 $-1 $21 $16 #
vertex $-1 $22 $43 #
ellipse-curve $-1 0 -0.5935 0 3.56411885914978e-15 -1 0 -0.03115 -1.11022302462516e-16 0 1 #
pid_name-sg-attrib $-1 $-1 $-1 $24 7 114 119 105 108 115 111 110 784252905 103 1 #
face $44 $45 $46 $3 $-1 $47 forward single #
loop $-1 $48 $49 $24 #
cone-surface $-1 0 0.030475 0 0 -1 0 -0.03115 0 0 1 0 1 0 #
coedge $-1 $37 $37 $38 $50 1 $25 $-1 #
coedge $-1 $38 $38 $37 $50 0 $27 $-1 #
coedge $-1 $39 $39 $28 $40 1 $51 $-1 #
edge $-1 $52 $52 $39 $53 0 #
vertex $-1 $29 $54 #
ellipse-curve $-1 0 -0.6095 0 -3.56411885914978e-15 1 0 -0.03115 -1.11022302462516e-16 0 1 #
point $-1 0.03115 -0.5935 3.81464879215671e-18 #
pid_name-sg-attrib $-1 $-1 $-1 $34 7 114 119 105 108 115 111 110 784252905 104 1 #
face $55 $56 $57 $3 $-1 $58 forward single #
loop $-1 $51 $59 $34 #
plane-surface $-1 0 -0.5805 0 0 -1 0 0 0 -1 0 #
loop $-1 $-1 $60 $24 #
coedge $-1 $49 $49 $61 $62 0 $35 $-1 #
edge $-1 $63 $63 $37 $64 0 #
loop $-1 $-1 $39 $34 #
vertex $-1 $40 $65 #
ellipse-curve $-1 0 -0.5805 0 0 -1 0 -0.0265 0 0 1 #
point $-1 -0.03115 -0.6095 0 #
pid_name-sg-attrib $-1 $-1 $-1 $45 7 114 119 105 108 115 111 110 784252905 105 1 #
face $66 $67 $68 $3 $-1 $69 forward single #
loop $-1 $70 $71 $45 #
cone-surface $-1 0 0.030475 0 0 -1 0 -0.0625 0 0 1 0 1 0 #
coedge $-1 $59 $59 $60 $72 1 $46 $-1 #
coedge $-1 $60 $60 $59 $72 0 $48 $-1 #
coedge $-1 $61 $61 $49 $62 1 $73 $-1 #
edge $-1 $74 $74 $61 $75 0 #
vertex $-1 $50 $76 #
ellipse-curve $-1 0 -0.5935 0 -4.1895208476421e-15 1 0 -0.0265 -1.11022302462516e-16 0 1 #
point $-1 0.0265 -0.5805 3.2452068376293e-18 #
pid_name-sg-attrib $-1 $-1 $-1 $56 7 114 119 105 108 115 111 110 784252905 106 1 #
face $77 $78 $79 $3 $-1 $80 forward single #
loop $-1 $73 $81 $56 #
plane-surface $-1 0 -0.4125 0 0 -1 0 0 0 -1 0 #
loop $-1 $-1 $82 $45 #
coedge $-1 $71 $71 $83 $84 0 $57 $-1 #
edge $-1 $85 $85 $59 $86 0 #
loop $-1 $-1 $61 $56 #
vertex $-1 $62 $87 #
ellipse-curve $-1 0 -0.4125 0 1.78205942957489e-15 -1 0 -0.03115 -5.55111512312578e-17 0 1 #
point $-1 -0.0265 -0.5935 0 #
pid_name-sg-attrib $-1 $-1 $-1 $67 7 114 119 105 108 115 111 110 784252905 107 1 #
face $88 $89 $90 $3 $-1 $91 forward single #
loop $-1 $92 $93 $67 #
cone-surface $-1 0 0.030475 0 0 -1 0 -0.1225 0 0 1 0 1 0 #
coedge $-1 $81 $81 $82 $94 1 $68 $-1 #
coedge $-1 $82 $82 $81 $94 0 $70 $-1 #
coedge $-1 $83 $83 $71 $84 1 $95 $-1 #
edge $-1 $96 $96 $83 $97 0 #
vertex $-1 $72 $98 #
ellipse-curve $-1 0 -0.5805 0 0 1 0 -0.03115 0 0 1 #
point $-1 0.03115 -0.4125 3.81464879215671e-18 #
pid_name-sg-attrib $-1 $-1 $-1 $78 7 114 119 105 108 115 111 110 784252905 108 1 #
face $99 $100 $101 $3 $-1 $102 reversed single #
loop $-1 $95 $103 $78 #
plane-surface $-1 0 -0.3525 0 0 -1 0 0 0 -1 0 #
loop $-1 $-1 $104 $67 #
coedge $-1 $93 $93 $105 $106 0 $79 $-1 #
edge $-1 $107 $107 $81 $108 0 #
loop $-1 $-1 $83 $78 #
vertex $-1 $84 $109 #
ellipse-curve $-1 0 -0.3525 0 0 -1 0 -0.0625 0 0 1 #
point $-1 -0.03115 -0.5805 0 #
pid_name-sg-attrib $-1 $-1 $-1 $89 7 114 119 105 108 115 111 110 784252905 109 1 #
face $110 $111 $112 $3 $-1 $113 forward single #
loop $-1 $114 $115 $89 #
plane-surface $-1 0 -0.3225 0 0 -1 0 0 0 -1 0 #
coedge $-1 $103 $103 $104 $116 1 $90 $-1 #
coedge $-1 $104 $104 $103 $116 0 $92 $-1 #
coedge $-1 $105 $105 $93 $106 1 $114 $-1 #
edge $-1 $117 $117 $105 $118 0 #
vertex $-1 $94 $119 #
ellipse-curve $-1 0 -0.4125 0 -1.77635683940025e-15 1 0 -0.0625 -1.11022302462516e-16 0 1 #
point $-1 0.0625 -0.3525 7.65378971138986e-18 #
pid_name-sg-attrib $-1 $-1 $-1 $100 7 114 119 105 108 115 111 110 784252905 110 1 #
face $120 $-1 $121 $3 $-1 $122 reversed single #
loop $-1 $123 $124 $100 #
cone-surface $-1 0 0.030475 0 0 -1 0 -0.070275 0 0 1 0 1 0 #
loop $-1 $-1 $105 $89 #
coedge $-1 $115 $115 $125 $126 1 $101 $-1 #
edge $-1 $127 $127 $103 $128 0 #
vertex $-1 $106 $129 #
ellipse-curve $-1 0 -0.3225 0 9.06304509898087e-16 -1 0 -0.1225 -1.11022302462516e-16 0 1 #
point $-1 -0.0625 -0.4125 0 #
pid_name-sg-attrib $-1 $-1 $-1 $111 7 114 119 105 108 115 111 110 784252905 111 1 #
loop $-1 $-1 $130 $111 #
plane-surface $-1 0 0 0 0 -1 0 0 0 -1 0 #
loop $-1 $-1 $125 $100 #
coedge $-1 $124 $124 $130 $131 0 $112 $-1 #
coedge $-1 $125 $125 $115 $126 0 $123 $-1 #
edge $-1 $132 $132 $115 $133 0 #
vertex $-1 $116 $134 #
ellipse-curve $-1 0 -0.3525 0 0 1 0 -0.1225 0 0 1 #
point $-1 0.1225 -0.3225 1.50014278343241e-17 #
coedge $-1 $130 $130 $124 $131 1 $121 $-1 #
edge $-1 $135 $135 $130 $136 1 #
vertex $-1 $126 $137 #
ellipse-curve $-1 0 -0.3225 0 -1.57982643134138e-15 1 0 -0.070275 -1.11022302462516e-16 0 1 #
point $-1 -0.1225 -0.3525 0 #
vertex $-1 $131 $138 #
ellipse-curve $-1 0 0 0 0 1 0 -0.070275 0 0 1 #
point $-1 0.070275 -0.3225 8.60620538100802e-18 #
point $-1 -0.070275 0 0 #
