600 0 2 0           
24 FBMach with ACIS - 6.0.3 13 ACIS 6.0.3 NT 24 Wed May 23 19:35:00 2001 
1 9.9999999999999995e-007 1e-010 
body $2 $3 $-1 $4 #
bdycol-kcp $-1 1 5 $5 $6 $7 $8 $9 #
model_id-kcp-attrib $-1 $-1 $-1 $0 1 990660900 50 -13500415 1 #
lump $-1 $-1 $10 $0 #
transform $-1 1 0 0 0 1 0 0 0 1 0 0 0 1 no_rotate no_reflect no_shear #
body $11 $12 $-1 $13 #
body $14 $15 $-1 $16 #
body $17 $18 $-1 $19 #
body $20 $21 $-1 $22 #
body $23 $24 $-1 $25 #
shell $-1 $-1 $-1 $26 $-1 $3 #
model_id-kcp-attrib $-1 $-1 $-1 $5 1 990660900 50 -13500414 1 #
lump $-1 $-1 $27 $5 #
transform $-1 1 0 0 0 1 0 0 0 1 0 -0.30475000000000008 0 1 no_rotate no_reflect no_shear #
rgb_color-st-attrib $-1 $28 $-1 $6 0.5 1 1 #
lump $-1 $-1 $29 $6 #
transform $-1 1 0 0 0 1 0 0 0 1 0 -0.30475000000000008 0 1 no_rotate no_reflect no_shear #
rgb_color-st-attrib $-1 $30 $-1 $7 1 0.5 1 #
lump $-1 $-1 $31 $7 #
transform $-1 1 0 0 0 1 0 0 0 1 0 -0.30475000000000008 0 1 no_rotate no_reflect no_shear #
rgb_color-st-attrib $-1 $32 $-1 $8 1 0.5 1 #
lump $-1 $-1 $33 $8 #
transform $-1 1 0 0 0 1 0 0 0 1 0 -0.30475000000000008 0 1 no_rotate no_reflect no_shear #
rgb_color-st-attrib $-1 $34 $-1 $9 1 0.5 1 #
lump $-1 $-1 $35 $9 #
transform $-1 1 0 0 0 1 0 0 0 1 0 -0.30475000000000008 0 1 no_rotate no_reflect no_shear #
face $36 $37 $38 $10 $-1 $39 forward single #
shell $-1 $-1 $-1 $40 $-1 $12 #
model_id-kcp-attrib $-1 $-1 $14 $6 1 990660900 130 -8257533 1 #
shell $-1 $-1 $-1 $41 $-1 $15 #
model_id-kcp-attrib $-1 $-1 $17 $7 1 990660900 280 -15204348 1 #
shell $-1 $-1 $-1 $42 $-1 $18 #
model_id-kcp-attrib $-1 $-1 $20 $8 1 990660900 340 -11272187 1 #
shell $-1 $-1 $-1 $43 $-1 $21 #
model_id-kcp-attrib $-1 $-1 $23 $9 1 990660900 390 -7995386 1 #
shell $-1 $-1 $-1 $44 $-1 $24 #
model_id-kcp-attrib $-1 $45 $-1 $26 1 990660900 50 -13500415 2 #
face $46 $47 $48 $10 $-1 $49 forward single #
loop $-1 $50 $51 $26 #
cone-surface $-1 0 0.030474999999999999 0 0 -1 0 -0.031150000000000001 0 0 1 I I 0 1 0.031150000000000001 forward I I I I #
face $-1 $52 $53 $27 $-1 $54 forward single #
face $-1 $55 $56 $29 $-1 $57 reversed single #
face $-1 $58 $59 $31 $-1 $60 forward single #
face $-1 $61 $62 $33 $-1 $63 forward single #
face $-1 $64 $65 $35 $-1 $66 forward single #
pid_name-sg-attrib $-1 $-1 $36 $26 7 114 119 105 108 115 111 110 784252905 99 1 #
model_id-kcp-attrib $-1 $67 $-1 $37 1 990660900 50 -13500415 15 #
face $68 $69 $70 $10 $-1 $71 forward single #
loop $-1 $-1 $72 $37 #
plane-surface $-1 0 -0.60950000000000004 0 0 -1 0 0 0 -1 forward_v I I I I #
loop $-1 $-1 $73 $26 #
coedge $-1 $51 $51 $74 $75 forward $38 $-1 #
face $-1 $76 $77 $27 $-1 $78 reversed single #
loop $-1 $-1 $79 $40 #
plane-surface $-1 0 0 0.1225 0 0 1 1 0 0 forward_v I I I I #
face $-1 $80 $81 $29 $-1 $57 reversed single #
loop $-1 $-1 $82 $41 #
cone-surface $-1 -1.377813288174089e-033 -0.30474999999999997 0 0 -1 0 0.1225 0 1.5001427834324123e-017 1 I I 0 1 0.1225 forward I I I I #
face $-1 $83 $84 $31 $-1 $85 forward single #
loop $-1 $86 $87 $42 #
cone-surface $-1 0 -0.047749999999999848 0 0 -1 0 -0.0625 0 0 1 I I 0 -1 0.0625 forward I I I I #
face $-1 $88 $89 $33 $-1 $90 forward single #
loop $-1 $91 $92 $43 #
cone-surface $-1 0 -0.1077499999999999 0 0 -1 0 -0.031150000000000001 0 0 1 I I 0 -1 0.031150000000000001 forward I I I I #
face $-1 $93 $94 $35 $-1 $95 forward single #
loop $-1 $96 $97 $44 #
cone-surface $-1 0 -0.017749999999999932 0 0 1 0 -0.070275000000000004 0 0 1 I I 0 -1 0.070275000000000004 forward I I I I #
model_id-kcp-attrib $-1 $98 $46 $37 1 990660900 50 -13500415 3 #
model_id-kcp-attrib $-1 $99 $-1 $47 1 990660900 50 -13500415 4 #
face $100 $101 $102 $10 $-1 $103 reversed single #
loop $-1 $104 $105 $47 #
cone-surface $-1 0 0.030474999999999999 0 0 -1 0 -0.026499999999999999 0 0 1 I I 0 1 0.026499999999999999 forward I I I I #
coedge $-1 $72 $72 $73 $106 reversed $48 $-1 #
coedge $-1 $73 $73 $72 $106 forward $50 $-1 #
coedge $-1 $74 $74 $51 $75 reversed $107 $-1 #
edge $-1 $108 -3.1415926535897931 $108 3.1415926535897931 $74 $109 forward 7 unknown #
face $110 $111 $112 $27 $-1 $113 reversed single #
loop $-1 $-1 $114 $52 #
plane-surface $-1 0 0 -0.1225 0 0 1 1 0 0 forward_v I I I I #
coedge $-1 $115 $116 $117 $118 forward $53 $-1 #
face $-1 $119 $120 $29 $-1 $57 reversed single #
loop $-1 $-1 $121 $55 #
coedge $-1 $122 $123 $124 $125 reversed $56 $-1 #
face $-1 $126 $127 $31 $-1 $128 reversed single #
loop $-1 $129 $130 $58 #
cone-surface $-1 -1.377813288174089e-033 -0.047749999999999848 0 0 -1 0 0.1225 0 1.5001427834324123e-017 1 I I 0 1 0.1225 forward I I I I #
loop $-1 $-1 $131 $42 #
coedge $-1 $87 $87 $132 $133 forward $59 $-1 #
face $-1 $134 $135 $33 $-1 $136 reversed single #
loop $-1 $137 $138 $61 #
cone-surface $-1 -1.377813288174089e-033 -0.1077499999999999 0 0 -1 0 0.1225 0 1.5001427834324123e-017 1 I I 0 1 0.1225 forward I I I I #
loop $-1 $-1 $139 $43 #
coedge $-1 $92 $92 $140 $141 forward $62 $-1 #
face $-1 $142 $143 $35 $-1 $144 forward single #
loop $-1 $145 $146 $64 #
cone-surface $-1 -1.377813288174089e-033 -0.017749999999999932 0 0 1 0 0.1225 0 1.5001427834324123e-017 1 I I 0 1 0.1225 forward I I I I #
loop $-1 $-1 $147 $44 #
coedge $-1 $97 $97 $148 $149 forward $65 $-1 #
pid_name-sg-attrib $-1 $-1 $67 $37 7 114 119 105 108 115 111 110 784252905 100 1 #
pid_name-sg-attrib $-1 $-1 $68 $47 7 114 119 105 108 115 111 110 784252905 101 1 #
model_id-kcp-attrib $-1 $150 $-1 $69 1 990660900 50 -13500415 5 #
face $151 $152 $153 $10 $-1 $154 forward single #
loop $-1 $107 $155 $69 #
plane-surface $-1 0 -0.59350000000000003 0 0 -1 0 0 0 -1 forward_v I I I I #
loop $-1 $-1 $156 $47 #
coedge $-1 $105 $105 $157 $158 forward $70 $-1 #
edge $159 $160 0 $160 6.2831853071795862 $72 $161 forward 7 unknown #
loop $-1 $-1 $74 $69 #
vertex $-1 $75 $162 #
ellipse-curve $-1 0 -0.59350000000000003 0 3.5641188591497801e-015 -1 0 -0.031150000000000001 -1.11022302462516e-016 0 1 I I #
model_id-kcp-attrib $-1 $-1 $-1 $76 1 990660900 50 -13500414 2 #
face $-1 $163 $164 $27 $-1 $165 reversed single #
loop $-1 $-1 $166 $76 #
plane-surface $-1 0 -0.30475000000000008 0 0 1 0 0 0 1 forward_v I I I I #
coedge $-1 $167 $168 $169 $170 forward $77 $-1 #
coedge $-1 $171 $79 $172 $173 forward $53 $-1 #
coedge $-1 $79 $171 $174 $175 forward $53 $-1 #
coedge $-1 $176 $177 $79 $118 reversed $178 $-1 #
edge $-1 $179 -0.30475000000000008 $180 0.30475000000000008 $117 $181 forward 7 unknown #
face $-1 $182 $183 $29 $-1 $57 reversed single #
loop $-1 $-1 $184 $80 #
coedge $-1 $185 $186 $187 $188 reversed $81 $-1 #
coedge $-1 $189 $82 $190 $191 forward $56 $-1 #
coedge $-1 $82 $189 $192 $193 reversed $56 $-1 #
coedge $-1 $194 $195 $82 $125 forward $196 $-1 #
edge $-1 $197 -1.2246063538223773e-016 $198 1.5707963267948966 $124 $199 forward 7 unknown #
face $-1 $-1 $200 $31 $-1 $201 forward single #
loop $-1 $202 $203 $83 #
plane-surface $-1 -0.0054545454545454506 -0.10774999999999985 -1.8280249667700609e-018 0 1 0 0 0 1 forward_v I I I I #
loop $-1 $-1 $204 $58 #
coedge $-1 $130 $130 $203 $205 forward $84 $-1 #
coedge $-1 $131 $131 $206 $207 reversed $86 $-1 #
coedge $-1 $132 $132 $87 $133 reversed $202 $-1 #
edge $-1 $208 -3.1415926535897931 $208 3.1415926535897931 $87 $209 forward 7 unknown #
face $-1 $-1 $210 $33 $-1 $211 forward single #
loop $-1 $212 $213 $88 #
plane-surface $-1 -0.0083045454545454499 -0.27574999999999994 -2.1809323768492362e-018 2.652036835592816e-032 1 -2.0493011911399023e-032 0 2.0493011911399023e-032 1 forward_v I I I I #
loop $-1 $-1 $214 $61 #
coedge $-1 $138 $138 $213 $215 forward $89 $-1 #
coedge $-1 $139 $139 $216 $217 reversed $91 $-1 #
coedge $-1 $140 $140 $92 $141 reversed $212 $-1 #
edge $-1 $218 -3.1415926535897931 $218 3.1415926535897931 $92 $219 forward 7 unknown #
face $-1 $-1 $220 $35 $-1 $221 reversed single #
loop $-1 $222 $223 $93 #
plane-surface $-1 -0.0047477272727272698 0.30475000000000008 -4.2950505939452787e-018 0 1 0 0 0 1 forward_v I I I I #
loop $-1 $-1 $224 $64 #
coedge $-1 $146 $146 $223 $225 forward $94 $-1 #
coedge $-1 $147 $147 $226 $227 reversed $96 $-1 #
coedge $-1 $148 $148 $97 $149 reversed $222 $-1 #
edge $-1 $228 -3.1415926535897931 $228 3.1415926535897931 $97 $229 forward 7 unknown #
pid_name-sg-attrib $-1 $-1 $100 $69 7 114 119 105 108 115 111 110 784252905 102 1 #
model_id-kcp-attrib $-1 $230 $-1 $101 1 990660900 50 -13500415 6 #
face $231 $232 $233 $10 $-1 $234 forward single #
loop $-1 $235 $236 $101 #
cone-surface $-1 0 0.030474999999999999 0 0 -1 0 -0.031150000000000001 0 0 1 I I 0 1 0.031150000000000001 forward I I I I #
coedge $-1 $155 $155 $156 $237 reversed $102 $-1 #
coedge $-1 $156 $156 $155 $237 forward $104 $-1 #
coedge $-1 $157 $157 $105 $158 reversed $238 $-1 #
edge $-1 $239 -3.1415926535897931 $239 3.1415926535897931 $157 $240 forward 7 unknown #
attrib_edge_convexity-kcp-attrib $-1 $241 $-1 $106 1 #
vertex $-1 $106 $242 #
ellipse-curve $-1 0 -0.60950000000000004 0 -3.5641188591497801e-015 1 0 -0.031150000000000001 -1.11022302462516e-016 0 1 I I #
point $-1 0.031150000000000001 -0.59350000000000003 3.81464879215671e-018 #
face $243 $244 $245 $27 $-1 $246 reversed single #
loop $-1 $-1 $247 $111 #
plane-surface $-1 -0.1225 0 0 1 0 0 0 0 -1 forward_v I I I I #
coedge $-1 $248 $174 $249 $250 forward $112 $-1 #
coedge $-1 $251 $114 $248 $252 forward $77 $-1 #
coedge $-1 $114 $251 $253 $254 forward $77 $-1 #
coedge $-1 $177 $176 $114 $170 reversed $178 $-1 #
edge $-1 $255 -0.30475000000000008 $256 0.30475000000000008 $169 $257 forward 7 unknown #
coedge $-1 $116 $115 $258 $259 forward $53 $-1 #
coedge $-1 $260 $261 $115 $173 reversed $245 $-1 #
edge $-1 $180 -0.1225 $262 0.1225 $172 $263 forward 7 unknown #
coedge $-1 $166 $264 $116 $175 reversed $112 $-1 #
edge $-1 $265 -0.1225 $179 0.1225 $174 $266 forward 7 unknown #
coedge $-1 $169 $117 $264 $267 forward $178 $-1 #
coedge $-1 $117 $169 $260 $268 reversed $178 $-1 #
loop $-1 $-1 $176 $244 #
vertex $-1 $118 $269 #
vertex $-1 $118 $270 #
straight-curve $-1 0.1225 0 0.1225 0 1 0 I I #
face $-1 $271 $272 $29 $-1 $273 forward single #
loop $-1 $-1 $274 $119 #
coedge $-1 $275 $276 $274 $277 forward $120 $-1 #
coedge $-1 $278 $121 $279 $280 reversed $81 $-1 #
coedge $-1 $121 $278 $123 $193 forward $81 $-1 #
coedge $-1 $281 $282 $121 $188 forward $283 $-1 #
edge $-1 $284 -3.1415926535897931 $285 -1.5707963267948966 $187 $286 forward 7 unknown #
coedge $-1 $123 $122 $287 $288 reversed $56 $-1 #
coedge $-1 $276 $275 $289 $191 reversed $120 $-1 #
edge $-1 $197 -0.60950000000000004 $290 1.1102230246251565e-016 $289 $291 forward 7 unknown #
coedge $-1 $292 $293 $294 $193 forward $295 $-1 #
edge $-1 $198 -0.60950000000000004 $285 1.1102230246251565e-016 $192 $296 forward 7 unknown #
coedge $-1 $195 $124 $293 $297 reversed $196 $-1 #
coedge $-1 $124 $194 $298 $299 forward $196 $-1 #
loop $-1 $-1 $124 $300 #
vertex $-1 $301 $302 #
vertex $-1 $303 $304 #
ellipse-curve $-1 -1.377813288174089e-033 0.30475000000000008 0 0 -1 0 0.1225 0 1.5001427834324123e-017 1 I I #
loop $-1 $305 $306 $126 #
plane-surface $-1 -0.0054545454545454506 -0.047749999999999848 -1.8280249667700609e-018 0 1 0 0 0 1 forward_v I I I I #
loop $-1 $-1 $132 $83 #
coedge $-1 $203 $203 $130 $205 reversed $127 $-1 #
coedge $-1 $204 $204 $306 $307 reversed $129 $-1 #
edge $-1 $308 -3.1415926535897931 $308 3.1415926535897931 $130 $309 forward 7 unknown #
coedge $-1 $206 $206 $131 $207 forward $305 $-1 #
edge $-1 $310 -3.1415926535897931 $310 3.1415926535897931 $131 $311 forward 7 unknown #
vertex $-1 $133 $312 #
ellipse-curve $-1 0 -0.10774999999999985 0 0 -1 0 -0.0625 0 0 1 I I #
loop $-1 $313 $314 $134 #
plane-surface $-1 -0.0083045454545454499 -0.10774999999999992 -2.1809323768492362e-018 2.652036835592816e-032 1 -2.0493011911399023e-032 0 2.0493011911399023e-032 1 forward_v I I I I #
loop $-1 $-1 $140 $88 #
coedge $-1 $213 $213 $138 $215 reversed $135 $-1 #
coedge $-1 $214 $214 $314 $315 reversed $137 $-1 #
edge $-1 $316 -3.1415926535897931 $316 3.1415926535897931 $138 $317 forward 7 unknown #
coedge $-1 $216 $216 $139 $217 forward $313 $-1 #
edge $-1 $318 -3.1415926535897931 $318 3.1415926535897931 $139 $319 forward 7 unknown #
vertex $-1 $141 $320 #
ellipse-curve $-1 0 -0.27574999999999994 0 0 -1 0 -0.031150000000000001 0 0 1 I I #
loop $-1 $321 $322 $142 #
plane-surface $-1 -0.0047477272727272698 -0.017749999999999932 -4.2950505939452787e-018 0 1 0 0 0 1 forward_v I I I I #
loop $-1 $-1 $148 $93 #
coedge $-1 $223 $223 $146 $225 reversed $143 $-1 #
coedge $-1 $224 $224 $322 $323 reversed $145 $-1 #
edge $-1 $324 -3.1415926535897931 $324 3.1415926535897931 $146 $325 forward 7 unknown #
coedge $-1 $226 $226 $147 $227 forward $321 $-1 #
edge $-1 $326 -3.1415926535897931 $326 3.1415926535897931 $147 $327 forward 7 unknown #
vertex $-1 $149 $328 #
ellipse-curve $-1 0 0.30475000000000008 0 0 1 0 -0.070275000000000004 0 0 1 I I #
pid_name-sg-attrib $-1 $-1 $151 $101 7 114 119 105 108 115 111 110 784252905 103 1 #
model_id-kcp-attrib $-1 $329 $-1 $152 1 990660900 50 -13500415 7 #
face $330 $331 $332 $10 $-1 $333 forward single #
loop $-1 $238 $334 $152 #
plane-surface $-1 0 -0.58050000000000002 0 0 -1 0 0 0 -1 forward_v I I I I #
loop $-1 $-1 $335 $101 #
coedge $-1 $236 $236 $336 $337 forward $153 $-1 #
edge $-1 $338 0 $338 6.2831853071795862 $155 $339 forward 7 unknown #
loop $-1 $-1 $157 $152 #
vertex $-1 $158 $340 #
ellipse-curve $-1 0 -0.58050000000000002 0 0 -1 0 -0.026499999999999999 0 0 1 I I #
convexity-sys-attrib $-1 $-1 $159 $106 #
point $-1 -0.031150000000000001 -0.60950000000000004 0 #
model_id-kcp-attrib $-1 $-1 $-1 $163 1 990660900 50 -13500414 3 #
face $-1 $-1 $178 $27 $-1 $341 reversed single #
loop $-1 $-1 $260 $163 #
plane-surface $-1 0 0.30475000000000008 0 0 -1 0 0 0 -1 forward_v I I I I #
coedge $-1 $342 $258 $261 $343 forward $164 $-1 #
coedge $-1 $264 $166 $167 $252 reversed $112 $-1 #
coedge $-1 $258 $342 $166 $250 reversed $164 $-1 #
edge $-1 $265 -0.1225 $344 0.1225 $249 $345 forward 7 unknown #
coedge $-1 $168 $167 $342 $346 forward $77 $-1 #
edge $-1 $256 -0.1225 $344 0.1225 $248 $347 forward 7 unknown #
coedge $-1 $261 $260 $168 $254 reversed $245 $-1 #
edge $-1 $348 -0.1225 $255 0.1225 $253 $349 forward 7 unknown #
vertex $-1 $170 $350 #
vertex $-1 $267 $351 #
straight-curve $-1 0.1225 0 -0.1225 0 -1 0 I I #
coedge $-1 $247 $249 $171 $259 reversed $164 $-1 #
edge $-1 $262 -0.30475000000000008 $265 0.30475000000000008 $258 $352 forward 7 unknown #
coedge $-1 $253 $172 $177 $268 forward $245 $-1 #
coedge $-1 $172 $253 $247 $343 reversed $245 $-1 #
vertex $-1 $173 $353 #
straight-curve $-1 0 0.30475000000000008 0.1225 -1 0 0 I I #
coedge $-1 $174 $248 $176 $267 reversed $112 $-1 #
vertex $-1 $259 $354 #
straight-curve $-1 0 -0.30475000000000008 0.1225 1 0 0 I I #
edge $-1 $179 -0.1225 $256 0.1225 $176 $355 forward 7 unknown #
edge $-1 $180 -0.1225 $255 0.1225 $177 $356 forward 7 unknown #
point $-1 0.1225 -0.30475000000000008 0.1225 #
point $-1 0.1225 0.30475000000000008 0.1225 #
face $-1 $357 $358 $29 $-1 $359 reversed single #
loop $-1 $-1 $294 $182 #
plane-surface $-1 0 0 0.1225 0 0 1 1 0 0 forward_v I I I I #
coedge $-1 $360 $361 $362 $277 reversed $183 $-1 #
coedge $-1 $190 $184 $363 $364 reversed $120 $-1 #
coedge $-1 $184 $190 $365 $366 reversed $120 $-1 #
edge $-1 $367 -0.60950000000000004 $368 1.1102230246251565e-016 $362 $369 forward 7 unknown #
coedge $-1 $186 $185 $370 $371 reversed $81 $-1 #
coedge $-1 $372 $373 $374 $280 forward $375 $-1 #
edge $-1 $376 -0.60950000000000004 $284 1.1102230246251565e-016 $279 $377 forward 7 unknown #
coedge $-1 $282 $187 $378 $379 reversed $283 $-1 #
coedge $-1 $187 $281 $372 $380 forward $283 $-1 #
loop $-1 $-1 $187 $381 #
vertex $-1 $382 $383 #
vertex $-1 $384 $385 #
ellipse-curve $-1 -1.377813288174089e-033 -0.30475000000000008 0 0 1 0 0.1225 0 1.5001427834324123e-017 1 I I #
coedge $-1 $386 $387 $189 $288 forward $388 $-1 #
edge $-1 $285 -1.5707963267948966 $290 1.2246063538223773e-016 $287 $286 forward 7 unknown #
coedge $-1 $389 $390 $391 $191 forward $358 $-1 #
vertex $-1 $392 $393 #
straight-curve $-1 0.1225 -0.30474999999999997 0 0 -1 0 I I #
coedge $-1 $394 $192 $387 $384 forward $295 $-1 #
coedge $-1 $192 $394 $194 $297 forward $295 $-1 #
coedge $-1 $395 $378 $186 $193 reversed $272 $-1 #
loop $-1 $-1 $192 $396 #
straight-curve $-1 -1.377813288174089e-033 -0.30474999999999997 0.1225 0 -1 0 I I #
edge $-1 $397 -0.1225 $198 1.377813288174089e-033 $194 $398 forward 7 unknown #
coedge $-1 $399 $391 $195 $299 reversed $400 $-1 #
edge $-1 $397 -0.1225 $197 0 $298 $401 forward 7 unknown #
face $-1 $402 $196 $29 $-1 $403 reversed single #
edge $-1 $197 0 $404 0.1225 $390 $401 forward 7 unknown #
point $-1 0.1225 0.30475000000000008 0 #
edge $-1 $198 1.377813288174089e-033 $405 0.1225 $406 $398 forward 7 unknown #
point $-1 -1.377813288174089e-033 0.30475000000000008 0.1225 #
loop $-1 $-1 $206 $126 #
coedge $-1 $306 $306 $204 $307 forward $200 $-1 #
edge $407 $408 -3.1415926535897931 $408 3.1415926535897931 $204 $409 forward 7 unknown #
vertex $-1 $205 $410 #
ellipse-curve $-1 -1.377813288174089e-033 -0.10774999999999985 0 0 1 0 0.1225 0 1.5001427834324123e-017 1 I I #
vertex $-1 $207 $411 #
ellipse-curve $-1 0 -0.047749999999999848 0 0 -1 0 -0.0625 0 0 1 I I #
point $-1 0.0625 -0.1077499999999999 7.6537897113898594e-018 #
loop $-1 $-1 $216 $134 #
coedge $-1 $314 $314 $214 $315 forward $210 $-1 #
edge $412 $413 -3.1415926535897931 $413 3.1415926535897931 $214 $414 forward 7 unknown #
vertex $-1 $215 $415 #
ellipse-curve $-1 -1.377813288174089e-033 -0.27574999999999994 0 0 1 0 0.1225 0 1.5001427834324123e-017 1 I I #
vertex $-1 $217 $416 #
ellipse-curve $-1 0 -0.1077499999999999 0 0 -1 0 -0.031150000000000001 0 0 1 I I #
point $-1 0.031150000000000011 -0.27574999999999994 3.81464879215671e-018 #
loop $-1 $-1 $226 $142 #
coedge $-1 $322 $322 $224 $323 forward $220 $-1 #
edge $417 $418 -3.1415926535897931 $418 3.1415926535897931 $224 $419 forward 7 unknown #
vertex $-1 $225 $420 #
ellipse-curve $-1 -1.377813288174089e-033 0.30475000000000008 0 0 -1 0 0.1225 0 1.5001427834324123e-017 1 I I #
vertex $-1 $227 $421 #
ellipse-curve $-1 0 -0.017749999999999932 0 0 1 0 -0.070275000000000004 0 0 1 I I #
point $-1 0.070275000000000004 0.30475000000000008 8.6062053810080201e-018 #
pid_name-sg-attrib $-1 $-1 $231 $152 7 114 119 105 108 115 111 110 784252905 104 1 #
model_id-kcp-attrib $-1 $422 $-1 $232 1 990660900 50 -13500415 8 #
face $423 $424 $425 $10 $-1 $426 forward single #
loop $-1 $427 $428 $232 #
cone-surface $-1 0 0.030474999999999999 0 0 -1 0 -0.0625 0 0 1 I I 0 1 0.0625 forward I I I I #
coedge $-1 $334 $334 $335 $429 reversed $233 $-1 #
coedge $-1 $335 $335 $334 $429 forward $235 $-1 #
coedge $-1 $336 $336 $236 $337 reversed $430 $-1 #
edge $-1 $431 -3.1415926535897931 $431 3.1415926535897931 $336 $432 forward 7 unknown #
vertex $-1 $237 $433 #
ellipse-curve $-1 0 -0.59350000000000003 0 -4.1895208476420996e-015 1 0 -0.026499999999999999 -1.11022302462516e-016 0 1 I I #
point $-1 0.026499999999999999 -0.58050000000000002 3.2452068376292998e-018 #
plane-surface $-1 0.1225 0 0 -1 0 0 0 0 1 forward_v I I I I #
coedge $-1 $249 $247 $251 $346 reversed $164 $-1 #
edge $-1 $262 -0.1225 $348 0.1225 $261 $434 forward 7 unknown #
vertex $-1 $346 $435 #
straight-curve $-1 -0.1225 -0.30475000000000008 0 0 0 -1 I I #
edge $-1 $344 -0.30475000000000008 $348 0.30475000000000008 $342 $436 forward 7 unknown #
straight-curve $-1 0 -0.30475000000000008 -0.1225 -1 0 0 I I #
vertex $-1 $254 $437 #
straight-curve $-1 0 0.30475000000000008 -0.1225 1 0 0 I I #
point $-1 0.1225 0.30475000000000008 -0.1225 #
point $-1 0.1225 -0.30475000000000008 -0.1225 #
straight-curve $-1 -0.1225 0 0.1225 0 -1 0 I I #
point $-1 -0.1225 0.30475000000000008 0.1225 #
point $-1 -0.1225 -0.30475000000000008 0.1225 #
straight-curve $-1 0.1225 -0.30475000000000008 0 0 0 -1 I I #
straight-curve $-1 0.1225 0.30475000000000008 0 0 0 -1 I I #
face $-1 $438 $439 $29 $-1 $440 reversed single #
loop $-1 $-1 $289 $271 #
plane-surface $-1 0.1225 0 0 -1 0 0 0 0 1 forward_v I I I I #
coedge $-1 $441 $274 $442 $443 reversed $183 $-1 #
coedge $-1 $274 $441 $444 $445 reversed $183 $-1 #
coedge $-1 $446 $447 $448 $277 forward $449 $-1 #
coedge $-1 $450 $451 $275 $364 forward $452 $-1 #
edge $-1 $290 1.2246063538223773e-016 $368 1.5707963267948968 $363 $286 forward 7 unknown #
coedge $-1 $453 $454 $276 $366 forward $455 $-1 #
edge $-1 $367 -1.5707963267948968 $197 -1.2246063538223773e-016 $365 $199 forward 7 unknown #
vertex $-1 $456 $457 #
vertex $-1 $458 $459 #
straight-curve $-1 -1.377813288174089e-033 -0.30474999999999997 -0.1225 0 -1 0 I I #
coedge $-1 $460 $406 $278 $371 forward $461 $-1 #
edge $-1 $198 1.5707963267948966 $376 3.1415926535897931 $370 $199 forward 7 unknown #
coedge $-1 $462 $279 $282 $380 reversed $375 $-1 #
coedge $-1 $279 $462 $460 $463 forward $375 $-1 #
coedge $-1 $464 $465 $441 $280 reversed $439 $-1 #
loop $-1 $-1 $279 $466 #
vertex $-1 $467 $468 #
straight-curve $-1 -0.1225 -0.30474999999999997 0 0 -1 0 I I #
coedge $-1 $294 $469 $281 $379 forward $272 $-1 #
edge $-1 $470 -0.1225 $285 -1.377813288174089e-033 $281 $471 forward 7 unknown #
edge $-1 $470 -0.1225 $284 0 $372 $472 forward 7 unknown #
face $-1 $473 $283 $29 $-1 $474 reversed single #
edge $-1 $284 0 $475 0.1225 $465 $472 forward 7 unknown #
point $-1 -0.1225 -0.30475000000000008 0 #
edge $-1 $285 -1.377813288174089e-033 $476 0.1225 $387 $471 forward 7 unknown #
point $-1 -1.377813288174089e-033 -0.30475000000000008 0.1225 #
coedge $-1 $387 $287 $477 $478 reversed $388 $-1 #
coedge $-1 $287 $386 $292 $384 reversed $388 $-1 #
loop $-1 $-1 $287 $473 #
coedge $-1 $479 $289 $451 $392 forward $358 $-1 #
coedge $-1 $289 $479 $453 $301 reversed $358 $-1 #
coedge $-1 $298 $477 $122 $191 reversed $400 $-1 #
edge $-1 $290 0 $480 0.1225 $389 $481 forward 7 unknown #
point $-1 0.1225 -0.30475000000000008 0 #
coedge $-1 $293 $292 $399 $482 forward $295 $-1 #
coedge $-1 $469 $294 $406 $303 forward $272 $-1 #
face $-1 $483 $295 $29 $-1 $273 forward single #
vertex $-1 $482 $484 #
straight-curve $-1 0 0.30475000000000008 0.1225 -1 0 0 I I #
coedge $-1 $477 $298 $394 $482 reversed $400 $-1 #
loop $-1 $-1 $391 $485 #
straight-curve $-1 0.1225 0.30475000000000008 0 0 0 -1 I I #
face $-1 $486 $461 $29 $-1 $403 reversed single #
plane-surface $-1 0 0.30475000000000008 0 0 -1 0 0 0 -1 forward_v I I I I #
vertex $-1 $487 $488 #
vertex $-1 $303 $489 #
coedge $-1 $370 $460 $395 $303 reversed $461 $-1 #
convexity-sys-attrib $-1 $-1 $-1 $307 #
vertex $-1 $307 $490 #
ellipse-curve $-1 -1.377813288174089e-033 -0.047749999999999848 0 0 1 0 0.1225 0 1.5001427834324123e-017 1 I I #
point $-1 -0.1225 -0.10774999999999985 0 #
point $-1 0.0625 -0.047749999999999904 7.6537897113898594e-018 #
convexity-sys-attrib $-1 $-1 $-1 $315 #
vertex $-1 $315 $491 #
ellipse-curve $-1 -1.377813288174089e-033 -0.1077499999999999 0 0 1 0 0.1225 0 1.5001427834324123e-017 1 I I #
point $-1 -0.1225 -0.27574999999999994 0 #
point $-1 0.031150000000000001 -0.1077499999999999 3.81464879215671e-018 #
convexity-sys-attrib $-1 $-1 $-1 $323 #
vertex $-1 $323 $492 #
ellipse-curve $-1 -1.377813288174089e-033 -0.017749999999999932 0 0 -1 0 0.1225 0 1.5001427834324123e-017 1 I I #
point $-1 -0.1225 0.30475000000000008 -3.0002855668648245e-017 #
point $-1 0.070275000000000004 -0.017749999999999932 8.6062053810080201e-018 #
pid_name-sg-attrib $-1 $-1 $330 $232 7 114 119 105 108 115 111 110 784252905 105 1 #
model_id-kcp-attrib $-1 $493 $-1 $331 1 990660900 50 -13500415 9 #
face $494 $495 $496 $10 $-1 $497 forward single #
loop $-1 $430 $498 $331 #
plane-surface $-1 0 -0.41249999999999998 0 0 -1 0 0 0 -1 forward_v I I I I #
loop $-1 $-1 $499 $232 #
coedge $-1 $428 $428 $500 $501 forward $332 $-1 #
edge $-1 $502 0 $502 6.2831853071795862 $334 $503 forward 7 unknown #
loop $-1 $-1 $336 $331 #
vertex $-1 $337 $504 #
ellipse-curve $-1 0 -0.41249999999999998 0 1.7820594295748901e-015 -1 0 -0.031150000000000001 -5.5511151231257802e-017 0 1 I I #
point $-1 -0.026499999999999999 -0.59350000000000003 0 #
straight-curve $-1 -0.1225 0.30475000000000008 0 0 0 -1 I I #
point $-1 -0.1225 -0.30475000000000008 -0.1225 #
straight-curve $-1 -0.1225 0 -0.1225 0 1 0 I I #
point $-1 -0.1225 0.30475000000000008 -0.1225 #
face $-1 $381 $505 $29 $-1 $474 reversed single #
loop $-1 $-1 $374 $357 #
plane-surface $-1 -0.1225 0 0 1 0 0 0 0 -1 forward_v I I I I #
coedge $-1 $361 $360 $185 $280 forward $183 $-1 #
coedge $-1 $506 $507 $360 $443 forward $508 $-1 #
edge $-1 $376 -3.1415926535897931 $367 -1.5707963267948968 $442 $199 forward 7 unknown #
coedge $-1 $509 $510 $361 $445 forward $505 $-1 #
edge $-1 $368 1.5707963267948968 $284 3.1415926535897931 $444 $286 forward 7 unknown #
coedge $-1 $511 $362 $510 $458 forward $449 $-1 #
coedge $-1 $362 $511 $506 $512 forward $449 $-1 #
coedge $-1 $513 $514 $184 $277 reversed $515 $-1 #
loop $-1 $-1 $362 $483 #
coedge $-1 $451 $363 $514 $516 reversed $452 $-1 #
coedge $-1 $363 $450 $389 $392 reversed $452 $-1 #
loop $-1 $-1 $363 $517 #
coedge $-1 $454 $365 $390 $301 forward $455 $-1 #
coedge $-1 $365 $453 $513 $456 reversed $455 $-1 #
loop $-1 $-1 $365 $518 #
edge $-1 $367 -1.377813288174089e-033 $404 0.1225 $454 $519 forward 7 unknown #
point $-1 -1.377813288174089e-033 0.30475000000000008 -0.1225 #
edge $-1 $368 1.377813288174089e-033 $475 0.1225 $510 $520 forward 7 unknown #
point $-1 -1.377813288174089e-033 -0.30475000000000008 -0.1225 #
coedge $-1 $406 $370 $373 $463 reversed $461 $-1 #
loop $-1 $-1 $370 $402 #
coedge $-1 $373 $372 $469 $521 reversed $375 $-1 #
edge $-1 $405 -0.1225 $376 0 $460 $522 forward 7 unknown #
coedge $-1 $523 $374 $507 $467 forward $439 $-1 #
coedge $-1 $374 $523 $509 $382 reversed $439 $-1 #
face $-1 $485 $375 $29 $-1 $440 reversed single #
edge $-1 $376 0 $524 0.1225 $507 $522 forward 7 unknown #
point $-1 -0.1225 0.30475000000000008 0 #
coedge $-1 $378 $395 $462 $521 forward $272 $-1 #
vertex $-1 $521 $525 #
straight-curve $-1 0 -0.30475000000000008 0.1225 1 0 0 I I #
straight-curve $-1 -0.1225 -0.30475000000000008 0 0 0 -1 I I #
face $-1 $517 $388 $29 $-1 $474 reversed single #
plane-surface $-1 0 -0.30475000000000008 0 0 1 0 0 0 1 forward_v I I I I #
vertex $-1 $526 $527 #
vertex $-1 $482 $528 #
coedge $-1 $391 $399 $386 $478 forward $400 $-1 #
edge $-1 $476 -0.1225 $290 0 $477 $481 forward 7 unknown #
coedge $-1 $390 $389 $529 $487 reversed $358 $-1 #
vertex $-1 $392 $530 #
straight-curve $-1 0.1225 -0.30475000000000008 0 0 0 -1 I I #
edge $-1 $476 -0.30475000000000008 $397 0.30475000000000008 $399 $531 forward 7 unknown #
face $-1 $466 $449 $29 $-1 $532 reversed single #
point $-1 0.1225 0.30475000000000008 0.1225 #
face $-1 $-1 $400 $29 $-1 $359 reversed single #
face $-1 $533 $508 $29 $-1 $403 reversed single #
edge $-1 $404 -0.30475000000000008 $480 0.30475000000000008 $479 $534 forward 7 unknown #
point $-1 0.1225 0.30475000000000008 -0.1225 #
point $-1 -0.1225 0.30475000000000008 0.1225 #
point $-1 -0.1225 -0.047749999999999848 0 #
point $-1 -0.1225 -0.1077499999999999 0 #
point $-1 -0.1225 -0.017749999999999932 -3.0002855668648245e-017 #
pid_name-sg-attrib $-1 $-1 $423 $331 7 114 119 105 108 115 111 110 784252905 106 1 #
model_id-kcp-attrib $-1 $535 $-1 $424 1 990660900 50 -13500415 10 #
face $536 $537 $538 $10 $-1 $539 forward single #
loop $-1 $540 $541 $424 #
cone-surface $-1 0 0.030474999999999999 0 0 -1 0 -0.1225 0 0 1 I I 0 1 0.1225 forward I I I I #
coedge $-1 $498 $498 $499 $542 reversed $425 $-1 #
coedge $-1 $499 $499 $498 $542 forward $427 $-1 #
coedge $-1 $500 $500 $428 $501 reversed $543 $-1 #
edge $-1 $544 -3.1415926535897931 $544 3.1415926535897931 $500 $545 forward 7 unknown #
vertex $-1 $429 $546 #
ellipse-curve $-1 0 -0.58050000000000002 0 0 1 0 -0.031150000000000001 0 0 1 I I #
point $-1 0.031150000000000001 -0.41249999999999998 3.81464879215671e-018 #
loop $-1 $-1 $444 $438 #
coedge $-1 $507 $442 $447 $512 reversed $508 $-1 #
coedge $-1 $442 $506 $464 $467 reversed $508 $-1 #
loop $-1 $-1 $442 $486 #
coedge $-1 $510 $444 $465 $382 forward $505 $-1 #
coedge $-1 $444 $509 $446 $458 reversed $505 $-1 #
coedge $-1 $447 $446 $523 $526 forward $449 $-1 #
edge $-1 $524 -0.1225 $367 -1.377813288174089e-033 $506 $519 forward 7 unknown #
coedge $-1 $529 $448 $454 $456 forward $515 $-1 #
coedge $-1 $448 $529 $450 $516 forward $515 $-1 #
loop $-1 $-1 $448 $533 #
edge $-1 $480 -0.1225 $368 1.377813288174089e-033 $450 $520 forward 7 unknown #
face $-1 $518 $452 $29 $-1 $474 reversed single #
face $-1 $300 $455 $29 $-1 $403 reversed single #
straight-curve $-1 0 0.30475000000000008 -0.1225 1 0 0 I I #
straight-curve $-1 0 -0.30475000000000008 -0.1225 -1 0 0 I I #
edge $-1 $405 -0.30475000000000008 $470 0.30475000000000008 $462 $547 forward 7 unknown #
straight-curve $-1 -0.1225 0.30475000000000008 0 0 0 -1 I I #
coedge $-1 $465 $464 $511 $526 reversed $439 $-1 #
vertex $-1 $512 $548 #
point $-1 -0.1225 -0.30475000000000008 0.1225 #
edge $-1 $475 -0.30475000000000008 $524 0.30475000000000008 $523 $549 forward 7 unknown #
point $-1 -0.1225 -0.30475000000000008 -0.1225 #
point $-1 0.1225 -0.30475000000000008 0.1225 #
coedge $-1 $514 $513 $479 $487 forward $515 $-1 #
point $-1 0.1225 -0.30475000000000008 -0.1225 #
straight-curve $-1 0.1225 0 0.1225 0 1 0 I I #
plane-surface $-1 0 0 -0.1225 0 0 1 1 0 0 forward_v I I I I #
face $-1 $396 $515 $29 $-1 $532 reversed single #
straight-curve $-1 0.1225 0 -0.1225 0 -1 0 I I #
pid_name-sg-attrib $-1 $-1 $494 $424 7 114 119 105 108 115 111 110 784252905 107 1 #
model_id-kcp-attrib $-1 $550 $-1 $495 1 990660900 50 -13500415 11 #
face $551 $552 $553 $10 $-1 $554 reversed single #
loop $-1 $543 $555 $495 #
plane-surface $-1 0 -0.35249999999999998 0 0 -1 0 0 0 -1 forward_v I I I I #
loop $-1 $-1 $556 $424 #
coedge $-1 $541 $541 $557 $558 forward $496 $-1 #
edge $-1 $559 0 $559 6.2831853071795862 $498 $560 forward 7 unknown #
loop $-1 $-1 $500 $495 #
vertex $-1 $501 $561 #
ellipse-curve $-1 0 -0.35249999999999998 0 0 -1 0 -0.0625 0 0 1 I I #
point $-1 -0.031150000000000001 -0.58050000000000002 0 #
straight-curve $-1 -0.1225 0 0.1225 0 -1 0 I I #
point $-1 -0.1225 0.30475000000000008 -0.1225 #
straight-curve $-1 -0.1225 0 -0.1225 0 1 0 I I #
pid_name-sg-attrib $-1 $-1 $536 $495 7 114 119 105 108 115 111 110 784252905 108 1 #
model_id-kcp-attrib $-1 $562 $-1 $537 1 990660900 50 -13500415 12 #
face $563 $564 $565 $10 $-1 $566 forward single #
loop $-1 $567 $568 $537 #
plane-surface $-1 0 -0.32250000000000001 0 0 -1 0 0 0 -1 forward_v I I I I #
coedge $-1 $555 $555 $556 $569 reversed $538 $-1 #
coedge $-1 $556 $556 $555 $569 forward $540 $-1 #
coedge $-1 $557 $557 $541 $558 reversed $567 $-1 #
edge $-1 $570 -3.1415926535897931 $570 3.1415926535897931 $557 $571 forward 7 unknown #
vertex $-1 $542 $572 #
ellipse-curve $-1 0 -0.41249999999999998 0 -1.7763568394002501e-015 1 0 -0.0625 -1.11022302462516e-016 0 1 I I #
point $-1 0.0625 -0.35249999999999998 7.6537897113898594e-018 #
pid_name-sg-attrib $-1 $-1 $551 $537 7 114 119 105 108 115 111 110 784252905 109 1 #
model_id-kcp-attrib $-1 $573 $-1 $552 1 990660900 50 -13500415 13 #
face $574 $-1 $575 $10 $-1 $576 reversed single #
loop $-1 $577 $578 $552 #
cone-surface $-1 0 0.030474999999999999 0 0 -1 0 -0.070275000000000004 0 0 1 I I 0 1 0.070275000000000004 forward I I I I #
loop $-1 $-1 $557 $537 #
coedge $-1 $568 $568 $579 $580 reversed $553 $-1 #
edge $-1 $581 0 $581 6.2831853071795862 $555 $582 forward 7 unknown #
vertex $-1 $558 $583 #
ellipse-curve $-1 0 -0.32250000000000001 0 9.0630450989808699e-016 -1 0 -0.1225 -1.11022302462516e-016 0 1 I I #
point $-1 -0.0625 -0.41249999999999998 0 #
pid_name-sg-attrib $-1 $-1 $563 $552 7 114 119 105 108 115 111 110 784252905 110 1 #
model_id-kcp-attrib $-1 $584 $-1 $564 1 990660900 50 -13500415 14 #
loop $-1 $-1 $585 $564 #
plane-surface $-1 0 0 0 0 -1 0 0 0 -1 forward_v I I I I #
loop $-1 $-1 $579 $552 #
coedge $-1 $578 $578 $585 $586 forward $565 $-1 #
coedge $-1 $579 $579 $568 $580 forward $577 $-1 #
edge $-1 $587 -3.1415926535897931 $587 3.1415926535897931 $568 $588 forward 7 unknown #
vertex $-1 $569 $589 #
ellipse-curve $-1 0 -0.35249999999999998 0 0 1 0 -0.1225 0 0 1 I I #
point $-1 0.1225 -0.32250000000000001 1.5001427834324101e-017 #
pid_name-sg-attrib $-1 $-1 $574 $564 7 114 119 105 108 115 111 110 784252905 111 1 #
coedge $-1 $585 $585 $578 $586 reversed $575 $-1 #
edge $-1 $590 -6.2831853071795862 $590 0 $585 $591 reversed 7 unknown #
vertex $-1 $580 $592 #
ellipse-curve $-1 0 -0.32250000000000001 0 -1.57982643134138e-015 1 0 -0.070275000000000004 -1.11022302462516e-016 0 1 I I #
point $-1 -0.1225 -0.35249999999999998 0 #
vertex $-1 $586 $593 #
ellipse-curve $-1 0 0 0 0 1 0 -0.070275000000000004 0 0 1 I I #
point $-1 0.070275000000000004 -0.32250000000000001 8.6062053810080201e-018 #
point $-1 -0.070275000000000004 0 0 #
End-of-ACIS-data 