600 0 2 0           
24 FBMach with ACIS - 6.0.3 13 ACIS 6.0.3 NT 24 Mon Apr 01 16:20:06 2002 
1 9.9999999999999995e-007 1e-010 
body $2 $3 $-1 $4 #
bdycol-kcp $-1 1 5 $5 $6 $7 $8 $9 #
model_id-kcp-attrib $-1 $10 $-1 $0 1 1017696005 60 909901825 1 #
lump $-1 $-1 $11 $0 #
transform $-1 1 0 0 0 1 0 0 0 1 0 0 0 1 rotate no_reflect no_shear #
body $12 $13 $-1 $14 #
body $15 $16 $-1 $17 #
body $18 $19 $-1 $20 #
body $21 $22 $-1 $23 #
body $24 $25 $-1 $26 #
aggregate_advspl_attribute-aggregate_geombuild_base_attribute-aggregate_body_attribute-attrib_HH-attrib $-1 $27 $2 $0 F #
shell $-1 $-1 $-1 $28 $-1 $3 #
model_id-kcp-attrib $-1 $-1 $-1 $5 1 1017696005 70 910557186 1 #
lump $-1 $-1 $29 $5 #
transform $-1 1 0 0 0 1 0 0 0 1 0 -0.30475000000000008 0 1 no_rotate no_reflect no_shear #
rgb_color-st-attrib $-1 $30 $-1 $6 0.5 1 1 #
lump $-1 $-1 $31 $6 #
transform $-1 1 0 0 0 1 0 0 0 1 0 -0.30475000000000008 0 1 no_rotate no_reflect no_shear #
rgb_color-st-attrib $-1 $32 $-1 $7 1 0.5 1 #
lump $-1 $-1 $33 $7 #
transform $-1 1 0 0 0 1 0 0 0 1 0 -0.30475000000000008 0 1 no_rotate no_reflect no_shear #
rgb_color-st-attrib $-1 $34 $-1 $8 1 0.5 1 #
lump $-1 $-1 $35 $8 #
transform $-1 1 0 0 0 1 0 0 0 1 0 -0.30475000000000008 0 1 no_rotate no_reflect no_shear #
rgb_color-st-attrib $-1 $36 $-1 $9 1 0.5 1 #
lump $-1 $-1 $37 $9 #
transform $-1 1 0 0 0 1 0 0 0 1 0 -0.30475000000000008 0 1 no_rotate no_reflect no_shear #
aggregate_secndry_attribute-aggregate_geombuild_base_attribute-aggregate_body_attribute-attrib_HH-attrib $-1 $38 $10 $0 F #
face $39 $40 $41 $11 $-1 $42 forward single #
shell $-1 $-1 $-1 $43 $-1 $13 #
model_id-kcp-attrib $-1 $-1 $15 $6 1 1017696005 140 915144707 1 #
shell $-1 $-1 $-1 $44 $-1 $16 #
model_id-kcp-attrib $-1 $-1 $18 $7 1 1017696005 290 908197892 1 #
shell $-1 $-1 $-1 $45 $-1 $19 #
model_id-kcp-attrib $-1 $-1 $21 $8 1 1017696005 350 912130053 1 #
shell $-1 $-1 $-1 $46 $-1 $22 #
model_id-kcp-attrib $-1 $-1 $24 $9 1 1017696005 400 915406854 1 #
shell $-1 $-1 $-1 $47 $-1 $25 #
aggregate_sharped_attribute-aggregate_geombuild_base_attribute-aggregate_body_attribute-attrib_HH-attrib $-1 $48 $27 $0 F #
model_id-kcp-attrib $-1 $49 $-1 $28 1 1017696005 60 909901825 2 #
face $50 $51 $52 $11 $-1 $53 forward single #
loop $-1 $54 $55 $28 #
cone-surface $-1 0 0.030474999999999999 0 0 -1 0 -0.031150000000000001 0 0 1 I I 0 1 0.031150000000000001 forward I I I I #
face $-1 $56 $57 $29 $-1 $58 forward single #
face $-1 $59 $60 $31 $-1 $61 reversed single #
face $-1 $62 $63 $33 $-1 $64 forward single #
face $-1 $65 $66 $35 $-1 $67 forward single #
face $-1 $68 $69 $37 $-1 $70 forward single #
aggregate_reblend_attribute-aggregate_geombuild_base_attribute-aggregate_body_attribute-attrib_HH-attrib $-1 $71 $38 $0 F #
attrib_hh_face_geombuild-attrib_entity_geombuild-individual_entity_attribute-attrib_HH-attrib $-1 $72 $39 $28 F #
model_id-kcp-attrib $-1 $73 $-1 $40 1 1017696005 60 909901825 15 #
face $74 $75 $76 $11 $-1 $77 forward single #
loop $-1 $-1 $78 $40 #
plane-surface $-1 0 -0.60950000000000004 0 0 -1 0 0 0 -1 forward_v I I I I #
loop $-1 $-1 $79 $28 #
coedge $80 $55 $55 $81 $82 forward $41 $-1 #
face $-1 $83 $84 $29 $-1 $85 reversed single #
loop $-1 $-1 $86 $43 #
plane-surface $-1 0 0 0.1225 0 0 1 1 0 0 forward_v I I I I #
face $-1 $87 $88 $31 $-1 $61 reversed single #
loop $-1 $-1 $89 $44 #
cone-surface $-1 -1.377813288174089e-033 -0.30474999999999997 0 0 -1 0 0.1225 0 1.5001427834324123e-017 1 I I 0 1 0.1225 forward I I I I #
face $-1 $90 $91 $33 $-1 $92 forward single #
loop $-1 $93 $94 $45 #
cone-surface $-1 0 -0.047749999999999848 0 0 -1 0 -0.0625 0 0 1 I I 0 -1 0.0625 forward I I I I #
face $-1 $95 $96 $35 $-1 $97 forward single #
loop $-1 $98 $99 $46 #
cone-surface $-1 0 -0.1077499999999999 0 0 -1 0 -0.031150000000000001 0 0 1 I I 0 -1 0.031150000000000001 forward I I I I #
face $-1 $100 $101 $37 $-1 $102 forward single #
loop $-1 $103 $104 $47 #
cone-surface $-1 0 -0.017749999999999932 0 0 1 0 -0.070275000000000004 0 0 1 I I 0 -1 0.070275000000000004 forward I I I I #
aggregate_isospline_attribute-aggregate_geombuild_base_attribute-aggregate_body_attribute-attrib_HH-attrib $-1 $105 $48 $0 F #
pid_name-sg-attrib $-1 $-1 $49 $28 7 rwilson 784252905 99 1 #
model_id-kcp-attrib $-1 $106 $50 $40 1 1017696005 60 909901825 3 #
model_id-kcp-attrib $-1 $107 $-1 $51 1 1017696005 60 909901825 4 #
face $108 $109 $110 $11 $-1 $111 reversed single #
loop $-1 $112 $113 $51 #
cone-surface $-1 0 0.030474999999999999 0 0 -1 0 -0.026499999999999999 0 0 1 I I 0 1 0.026499999999999999 forward I I I I #
coedge $114 $78 $78 $79 $115 reversed $52 $-1 #
coedge $116 $79 $79 $78 $115 forward $54 $-1 #
attrib_hh_coedge_geombuild-attrib_entity_geombuild-individual_entity_attribute-attrib_HH-attrib $-1 $-1 $-1 $55 F #
coedge $117 $81 $81 $55 $82 reversed $118 $-1 #
edge $119 $120 -3.1415926535897931 $120 3.1415926535897931 $81 $121 forward 7 unknown #
face $122 $123 $124 $29 $-1 $125 reversed single #
loop $-1 $-1 $126 $56 #
plane-surface $-1 0 0 -0.1225 0 0 1 1 0 0 forward_v I I I I #
coedge $-1 $127 $128 $129 $130 forward $57 $-1 #
face $-1 $131 $132 $31 $-1 $61 reversed single #
loop $-1 $-1 $133 $59 #
coedge $-1 $134 $135 $136 $137 reversed $60 $-1 #
face $-1 $138 $139 $33 $-1 $140 reversed single #
loop $-1 $141 $142 $62 #
cone-surface $-1 -1.377813288174089e-033 -0.047749999999999848 0 0 -1 0 0.1225 0 1.5001427834324123e-017 1 I I 0 1 0.1225 forward I I I I #
loop $-1 $-1 $143 $45 #
coedge $-1 $94 $94 $144 $145 forward $63 $-1 #
face $-1 $146 $147 $35 $-1 $148 reversed single #
loop $-1 $149 $150 $65 #
cone-surface $-1 -1.377813288174089e-033 -0.1077499999999999 0 0 -1 0 0.1225 0 1.5001427834324123e-017 1 I I 0 1 0.1225 forward I I I I #
loop $-1 $-1 $151 $46 #
coedge $-1 $99 $99 $152 $153 forward $66 $-1 #
face $-1 $154 $155 $37 $-1 $156 forward single #
loop $-1 $157 $158 $68 #
cone-surface $-1 -1.377813288174089e-033 -0.017749999999999932 0 0 1 0 0.1225 0 1.5001427834324123e-017 1 I I 0 1 0.1225 forward I I I I #
loop $-1 $-1 $159 $47 #
coedge $-1 $104 $104 $160 $161 forward $69 $-1 #
aggregate_analytic_solver_attribute-aggregate_geombuild_base_attribute-aggregate_body_attribute-attrib_HH-attrib $-1 $162 $71 $0 F #
attrib_hh_face_geombuild-attrib_entity_geombuild-individual_entity_attribute-attrib_HH-attrib $-1 $163 $73 $40 F #
attrib_hh_face_geombuild-attrib_entity_geombuild-individual_entity_attribute-attrib_HH-attrib $-1 $164 $74 $51 F #
model_id-kcp-attrib $-1 $165 $-1 $75 1 1017696005 60 909901825 5 #
face $166 $167 $168 $11 $-1 $169 forward single #
loop $-1 $118 $170 $75 #
plane-surface $-1 0 -0.59350000000000003 0 0 -1 0 0 0 -1 forward_v I I I I #
loop $-1 $-1 $171 $51 #
coedge $172 $113 $113 $173 $174 forward $76 $-1 #
attrib_hh_coedge_geombuild-attrib_entity_geombuild-individual_entity_attribute-attrib_HH-attrib $-1 $-1 $-1 $78 F #
edge $175 $176 0 $176 6.2831853071795862 $78 $177 forward 7 unknown #
attrib_hh_coedge_geombuild-attrib_entity_geombuild-individual_entity_attribute-attrib_HH-attrib $-1 $-1 $-1 $79 F #
attrib_hh_coedge_geombuild-attrib_entity_geombuild-individual_entity_attribute-attrib_HH-attrib $-1 $-1 $-1 $81 F #
loop $-1 $-1 $81 $75 #
attrib_hh_edge_geombuild-attrib_entity_geombuild-individual_entity_attribute-attrib_HH-attrib $-1 $-1 $-1 $82 F #
vertex $178 $82 $179 #
ellipse-curve $-1 0 -0.59350000000000003 0 3.5641188591497801e-015 -1 0 -0.031150000000000001 -1.11022302462516e-016 0 1 I I #
model_id-kcp-attrib $-1 $-1 $-1 $83 1 1017696005 70 910557186 2 #
face $-1 $180 $181 $29 $-1 $182 reversed single #
loop $-1 $-1 $183 $83 #
plane-surface $-1 0 -0.30475000000000008 0 0 1 0 0 0 1 forward_v I I I I #
coedge $-1 $184 $185 $186 $187 forward $84 $-1 #
coedge $-1 $188 $86 $189 $190 forward $57 $-1 #
coedge $-1 $86 $188 $191 $192 forward $57 $-1 #
coedge $-1 $193 $194 $86 $130 reversed $195 $-1 #
edge $-1 $196 -0.30475000000000008 $197 0.30475000000000008 $129 $198 forward 7 unknown #
face $-1 $199 $200 $31 $-1 $61 reversed single #
loop $-1 $-1 $201 $87 #
coedge $-1 $202 $203 $204 $205 reversed $88 $-1 #
coedge $-1 $206 $89 $207 $208 forward $60 $-1 #
coedge $-1 $89 $206 $209 $210 reversed $60 $-1 #
coedge $-1 $211 $212 $89 $137 forward $213 $-1 #
edge $-1 $214 -1.2246063538223773e-016 $215 1.5707963267948966 $136 $216 forward 7 unknown #
face $-1 $-1 $217 $33 $-1 $218 forward single #
loop $-1 $219 $220 $90 #
plane-surface $-1 -0.0054545454545454506 -0.10774999999999985 -1.8280249667700609e-018 0 1 0 0 0 1 forward_v I I I I #
loop $-1 $-1 $221 $62 #
coedge $-1 $142 $142 $220 $222 forward $91 $-1 #
coedge $-1 $143 $143 $223 $224 reversed $93 $-1 #
coedge $-1 $144 $144 $94 $145 reversed $219 $-1 #
edge $-1 $225 -3.1415926535897931 $225 3.1415926535897931 $94 $226 forward 7 unknown #
face $-1 $-1 $227 $35 $-1 $228 forward single #
loop $-1 $229 $230 $95 #
plane-surface $-1 -0.0083045454545454499 -0.27574999999999994 -2.1809323768492362e-018 2.652036835592816e-032 1 -2.0493011911399023e-032 0 2.0493011911399023e-032 1 forward_v I I I I #
loop $-1 $-1 $231 $65 #
coedge $-1 $150 $150 $230 $232 forward $96 $-1 #
coedge $-1 $151 $151 $233 $234 reversed $98 $-1 #
coedge $-1 $152 $152 $99 $153 reversed $229 $-1 #
edge $-1 $235 -3.1415926535897931 $235 3.1415926535897931 $99 $236 forward 7 unknown #
face $-1 $-1 $237 $37 $-1 $238 reversed single #
loop $-1 $239 $240 $100 #
plane-surface $-1 -0.0047477272727272698 0.30475000000000008 -4.2950505939452787e-018 0 1 0 0 0 1 forward_v I I I I #
loop $-1 $-1 $241 $68 #
coedge $-1 $158 $158 $240 $242 forward $101 $-1 #
coedge $-1 $159 $159 $243 $244 reversed $103 $-1 #
coedge $-1 $160 $160 $104 $161 reversed $239 $-1 #
edge $-1 $245 -3.1415926535897931 $245 3.1415926535897931 $104 $246 forward 7 unknown #
aggregate_geombuild_attribute-aggregate_geombuild_base_attribute-aggregate_body_attribute-attrib_HH-attrib $-1 $247 $105 $0 #
pid_name-sg-attrib $-1 $-1 $106 $40 7 rwilson 784252905 100 1 #
pid_name-sg-attrib $-1 $-1 $107 $51 7 rwilson 784252905 101 1 #
attrib_hh_face_geombuild-attrib_entity_geombuild-individual_entity_attribute-attrib_HH-attrib $-1 $248 $108 $75 F #
model_id-kcp-attrib $-1 $249 $-1 $109 1 1017696005 60 909901825 6 #
face $250 $251 $252 $11 $-1 $253 forward single #
loop $-1 $254 $255 $109 #
cone-surface $-1 0 0.030474999999999999 0 0 -1 0 -0.031150000000000001 0 0 1 I I 0 1 0.031150000000000001 forward I I I I #
coedge $256 $170 $170 $171 $257 reversed $110 $-1 #
coedge $258 $171 $171 $170 $257 forward $112 $-1 #
attrib_hh_coedge_geombuild-attrib_entity_geombuild-individual_entity_attribute-attrib_HH-attrib $-1 $-1 $-1 $113 F #
coedge $259 $173 $173 $113 $174 reversed $260 $-1 #
edge $261 $262 -3.1415926535897931 $262 3.1415926535897931 $173 $263 forward 7 unknown #
attrib_edge_convexity-kcp-attrib $-1 $264 $-1 $115 1 #
vertex $265 $115 $266 #
ellipse-curve $-1 0 -0.60950000000000004 0 -3.5641188591497801e-015 1 0 -0.031150000000000001 -1.11022302462516e-016 0 1 I I #
attrib_hh_vertex_geombuild-attrib_entity_geombuild-individual_entity_attribute-attrib_HH-attrib $-1 $-1 $-1 $120 F #
point $-1 0.031150000000000001 -0.59350000000000003 3.81464879215671e-018 #
face $267 $268 $269 $29 $-1 $270 reversed single #
loop $-1 $-1 $271 $123 #
plane-surface $-1 -0.1225 0 0 1 0 0 0 0 -1 forward_v I I I I #
coedge $-1 $272 $191 $273 $274 forward $124 $-1 #
coedge $-1 $275 $126 $272 $276 forward $84 $-1 #
coedge $-1 $126 $275 $277 $278 forward $84 $-1 #
coedge $-1 $194 $193 $126 $187 reversed $195 $-1 #
edge $-1 $279 -0.30475000000000008 $280 0.30475000000000008 $186 $281 forward 7 unknown #
coedge $-1 $128 $127 $282 $283 forward $57 $-1 #
coedge $-1 $284 $285 $127 $190 reversed $269 $-1 #
edge $-1 $197 -0.1225 $286 0.1225 $189 $287 forward 7 unknown #
coedge $-1 $183 $288 $128 $192 reversed $124 $-1 #
edge $-1 $289 -0.1225 $196 0.1225 $191 $290 forward 7 unknown #
coedge $-1 $186 $129 $288 $291 forward $195 $-1 #
coedge $-1 $129 $186 $284 $292 reversed $195 $-1 #
loop $-1 $-1 $193 $268 #
vertex $-1 $130 $293 #
vertex $-1 $130 $294 #
straight-curve $-1 0.1225 0 0.1225 0 1 0 I I #
face $-1 $295 $296 $31 $-1 $297 forward single #
loop $-1 $-1 $298 $131 #
coedge $-1 $299 $300 $298 $301 forward $132 $-1 #
coedge $-1 $302 $133 $303 $304 reversed $88 $-1 #
coedge $-1 $133 $302 $135 $210 forward $88 $-1 #
coedge $-1 $305 $306 $133 $205 forward $307 $-1 #
edge $-1 $308 -3.1415926535897931 $309 -1.5707963267948966 $204 $310 forward 7 unknown #
coedge $-1 $135 $134 $311 $312 reversed $60 $-1 #
coedge $-1 $300 $299 $313 $208 reversed $132 $-1 #
edge $-1 $214 -0.60950000000000004 $314 1.1102230246251565e-016 $313 $315 forward 7 unknown #
coedge $-1 $316 $317 $318 $210 forward $319 $-1 #
edge $-1 $215 -0.60950000000000004 $309 1.1102230246251565e-016 $209 $320 forward 7 unknown #
coedge $-1 $212 $136 $317 $321 reversed $213 $-1 #
coedge $-1 $136 $211 $322 $323 forward $213 $-1 #
loop $-1 $-1 $136 $324 #
vertex $-1 $325 $326 #
vertex $-1 $327 $328 #
ellipse-curve $-1 -1.377813288174089e-033 0.30475000000000008 0 0 -1 0 0.1225 0 1.5001427834324123e-017 1 I I #
loop $-1 $329 $330 $138 #
plane-surface $-1 -0.0054545454545454506 -0.047749999999999848 -1.8280249667700609e-018 0 1 0 0 0 1 forward_v I I I I #
loop $-1 $-1 $144 $90 #
coedge $-1 $220 $220 $142 $222 reversed $139 $-1 #
coedge $-1 $221 $221 $330 $331 reversed $141 $-1 #
edge $-1 $332 -3.1415926535897931 $332 3.1415926535897931 $142 $333 forward 7 unknown #
coedge $-1 $223 $223 $143 $224 forward $329 $-1 #
edge $-1 $334 -3.1415926535897931 $334 3.1415926535897931 $143 $335 forward 7 unknown #
vertex $-1 $145 $336 #
ellipse-curve $-1 0 -0.10774999999999985 0 0 -1 0 -0.0625 0 0 1 I I #
loop $-1 $337 $338 $146 #
plane-surface $-1 -0.0083045454545454499 -0.10774999999999992 -2.1809323768492362e-018 2.652036835592816e-032 1 -2.0493011911399023e-032 0 2.0493011911399023e-032 1 forward_v I I I I #
loop $-1 $-1 $152 $95 #
coedge $-1 $230 $230 $150 $232 reversed $147 $-1 #
coedge $-1 $231 $231 $338 $339 reversed $149 $-1 #
edge $-1 $340 -3.1415926535897931 $340 3.1415926535897931 $150 $341 forward 7 unknown #
coedge $-1 $233 $233 $151 $234 forward $337 $-1 #
edge $-1 $342 -3.1415926535897931 $342 3.1415926535897931 $151 $343 forward 7 unknown #
vertex $-1 $153 $344 #
ellipse-curve $-1 0 -0.27574999999999994 0 0 -1 0 -0.031150000000000001 0 0 1 I I #
loop $-1 $345 $346 $154 #
plane-surface $-1 -0.0047477272727272698 -0.017749999999999932 -4.2950505939452787e-018 0 1 0 0 0 1 forward_v I I I I #
loop $-1 $-1 $160 $100 #
coedge $-1 $240 $240 $158 $242 reversed $155 $-1 #
coedge $-1 $241 $241 $346 $347 reversed $157 $-1 #
edge $-1 $348 -3.1415926535897931 $348 3.1415926535897931 $158 $349 forward 7 unknown #
coedge $-1 $243 $243 $159 $244 forward $345 $-1 #
edge $-1 $350 -3.1415926535897931 $350 3.1415926535897931 $159 $351 forward 7 unknown #
vertex $-1 $161 $352 #
ellipse-curve $-1 0 0.30475000000000008 0 0 1 0 -0.070275000000000004 0 0 1 I I #
aggregate_stitch_attribute-aggregate_stitch_base_attribute-aggregate_body_attribute-attrib_HH-attrib $-1 $353 $162 $0 F #
pid_name-sg-attrib $-1 $-1 $165 $75 7 rwilson 784252905 102 1 #
attrib_hh_face_geombuild-attrib_entity_geombuild-individual_entity_attribute-attrib_HH-attrib $-1 $354 $166 $109 F #
model_id-kcp-attrib $-1 $355 $-1 $167 1 1017696005 60 909901825 7 #
face $356 $357 $358 $11 $-1 $359 forward single #
loop $-1 $260 $360 $167 #
plane-surface $-1 0 -0.58050000000000002 0 0 -1 0 0 0 -1 forward_v I I I I #
loop $-1 $-1 $361 $109 #
coedge $362 $255 $255 $363 $364 forward $168 $-1 #
attrib_hh_coedge_geombuild-attrib_entity_geombuild-individual_entity_attribute-attrib_HH-attrib $-1 $-1 $-1 $170 F #
edge $365 $366 0 $366 6.2831853071795862 $170 $367 forward 7 unknown #
attrib_hh_coedge_geombuild-attrib_entity_geombuild-individual_entity_attribute-attrib_HH-attrib $-1 $-1 $-1 $171 F #
attrib_hh_coedge_geombuild-attrib_entity_geombuild-individual_entity_attribute-attrib_HH-attrib $-1 $-1 $-1 $173 F #
loop $-1 $-1 $173 $167 #
attrib_hh_edge_geombuild-attrib_entity_geombuild-individual_entity_attribute-attrib_HH-attrib $-1 $-1 $-1 $174 F #
vertex $368 $174 $369 #
ellipse-curve $-1 0 -0.58050000000000002 0 0 -1 0 -0.026499999999999999 0 0 1 I I #
convexity-sys-attrib $-1 $370 $175 $115 #
attrib_hh_vertex_geombuild-attrib_entity_geombuild-individual_entity_attribute-attrib_HH-attrib $-1 $-1 $-1 $176 F #
point $-1 -0.031150000000000001 -0.60950000000000004 0 #
model_id-kcp-attrib $-1 $-1 $-1 $180 1 1017696005 70 910557186 3 #
face $-1 $-1 $195 $29 $-1 $371 reversed single #
loop $-1 $-1 $284 $180 #
plane-surface $-1 0 0.30475000000000008 0 0 -1 0 0 0 -1 forward_v I I I I #
coedge $-1 $372 $282 $285 $373 forward $181 $-1 #
coedge $-1 $288 $183 $184 $276 reversed $124 $-1 #
coedge $-1 $282 $372 $183 $274 reversed $181 $-1 #
edge $-1 $289 -0.1225 $374 0.1225 $273 $375 forward 7 unknown #
coedge $-1 $185 $184 $372 $376 forward $84 $-1 #
edge $-1 $280 -0.1225 $374 0.1225 $272 $377 forward 7 unknown #
coedge $-1 $285 $284 $185 $278 reversed $269 $-1 #
edge $-1 $378 -0.1225 $279 0.1225 $277 $379 forward 7 unknown #
vertex $-1 $187 $380 #
vertex $-1 $291 $381 #
straight-curve $-1 0.1225 0 -0.1225 0 -1 0 I I #
coedge $-1 $271 $273 $188 $283 reversed $181 $-1 #
edge $-1 $286 -0.30475000000000008 $289 0.30475000000000008 $282 $382 forward 7 unknown #
coedge $-1 $277 $189 $194 $292 forward $269 $-1 #
coedge $-1 $189 $277 $271 $373 reversed $269 $-1 #
vertex $-1 $190 $383 #
straight-curve $-1 0 0.30475000000000008 0.1225 -1 0 0 I I #
coedge $-1 $191 $272 $193 $291 reversed $124 $-1 #
vertex $-1 $283 $384 #
straight-curve $-1 0 -0.30475000000000008 0.1225 1 0 0 I I #
edge $-1 $196 -0.1225 $280 0.1225 $193 $385 forward 7 unknown #
edge $-1 $197 -0.1225 $279 0.1225 $194 $386 forward 7 unknown #
point $-1 0.1225 -0.30475000000000008 0.1225 #
point $-1 0.1225 0.30475000000000008 0.1225 #
face $-1 $387 $388 $31 $-1 $389 reversed single #
loop $-1 $-1 $318 $199 #
plane-surface $-1 0 0 0.1225 0 0 1 1 0 0 forward_v I I I I #
coedge $-1 $390 $391 $392 $301 reversed $200 $-1 #
coedge $-1 $207 $201 $393 $394 reversed $132 $-1 #
coedge $-1 $201 $207 $395 $396 reversed $132 $-1 #
edge $-1 $397 -0.60950000000000004 $398 1.1102230246251565e-016 $392 $399 forward 7 unknown #
coedge $-1 $203 $202 $400 $401 reversed $88 $-1 #
coedge $-1 $402 $403 $404 $304 forward $405 $-1 #
edge $-1 $406 -0.60950000000000004 $308 1.1102230246251565e-016 $303 $407 forward 7 unknown #
coedge $-1 $306 $204 $408 $409 reversed $307 $-1 #
coedge $-1 $204 $305 $402 $410 forward $307 $-1 #
loop $-1 $-1 $204 $411 #
vertex $-1 $412 $413 #
vertex $-1 $414 $415 #
ellipse-curve $-1 -1.377813288174089e-033 -0.30475000000000008 0 0 1 0 0.1225 0 1.5001427834324123e-017 1 I I #
coedge $-1 $416 $417 $206 $312 forward $418 $-1 #
edge $-1 $309 -1.5707963267948966 $314 1.2246063538223773e-016 $311 $310 forward 7 unknown #
coedge $-1 $419 $420 $421 $208 forward $388 $-1 #
vertex $-1 $422 $423 #
straight-curve $-1 0.1225 -0.30474999999999997 0 0 -1 0 I I #
coedge $-1 $424 $209 $417 $414 forward $319 $-1 #
coedge $-1 $209 $424 $211 $321 forward $319 $-1 #
coedge $-1 $425 $408 $203 $210 reversed $296 $-1 #
loop $-1 $-1 $209 $426 #
straight-curve $-1 -1.377813288174089e-033 -0.30474999999999997 0.1225 0 -1 0 I I #
edge $-1 $427 -0.1225 $215 1.377813288174089e-033 $211 $428 forward 7 unknown #
coedge $-1 $429 $421 $212 $323 reversed $430 $-1 #
edge $-1 $427 -0.1225 $214 0 $322 $431 forward 7 unknown #
face $-1 $432 $213 $31 $-1 $433 reversed single #
edge $-1 $214 0 $434 0.1225 $420 $431 forward 7 unknown #
point $-1 0.1225 0.30475000000000008 0 #
edge $-1 $215 1.377813288174089e-033 $435 0.1225 $436 $428 forward 7 unknown #
point $-1 -1.377813288174089e-033 0.30475000000000008 0.1225 #
loop $-1 $-1 $223 $138 #
coedge $-1 $330 $330 $221 $331 forward $217 $-1 #
edge $437 $438 -3.1415926535897931 $438 3.1415926535897931 $221 $439 forward 7 unknown #
vertex $-1 $222 $440 #
ellipse-curve $-1 -1.377813288174089e-033 -0.10774999999999985 0 0 1 0 0.1225 0 1.5001427834324123e-017 1 I I #
vertex $-1 $224 $441 #
ellipse-curve $-1 0 -0.047749999999999848 0 0 -1 0 -0.0625 0 0 1 I I #
point $-1 0.0625 -0.1077499999999999 7.6537897113898594e-018 #
loop $-1 $-1 $233 $146 #
coedge $-1 $338 $338 $231 $339 forward $227 $-1 #
edge $442 $443 -3.1415926535897931 $443 3.1415926535897931 $231 $444 forward 7 unknown #
vertex $-1 $232 $445 #
ellipse-curve $-1 -1.377813288174089e-033 -0.27574999999999994 0 0 1 0 0.1225 0 1.5001427834324123e-017 1 I I #
vertex $-1 $234 $446 #
ellipse-curve $-1 0 -0.1077499999999999 0 0 -1 0 -0.031150000000000001 0 0 1 I I #
point $-1 0.031150000000000011 -0.27574999999999994 3.81464879215671e-018 #
loop $-1 $-1 $243 $154 #
coedge $-1 $346 $346 $241 $347 forward $237 $-1 #
edge $447 $448 -3.1415926535897931 $448 3.1415926535897931 $241 $449 forward 7 unknown #
vertex $-1 $242 $450 #
ellipse-curve $-1 -1.377813288174089e-033 0.30475000000000008 0 0 -1 0 0.1225 0 1.5001427834324123e-017 1 I I #
vertex $-1 $244 $451 #
ellipse-curve $-1 0 -0.017749999999999932 0 0 1 0 -0.070275000000000004 0 0 1 I I #
point $-1 0.070275000000000004 0.30475000000000008 8.6062053810080201e-018 #
aggregate_simgeom_attribute-aggregate_simgeom_base_attribute-aggregate_body_attribute-attrib_HH-attrib $-1 $-1 $247 $0 F #
pid_name-sg-attrib $-1 $-1 $249 $109 7 rwilson 784252905 103 1 #
attrib_hh_face_geombuild-attrib_entity_geombuild-individual_entity_attribute-attrib_HH-attrib $-1 $452 $250 $167 F #
model_id-kcp-attrib $-1 $453 $-1 $251 1 1017696005 60 909901825 8 #
face $454 $455 $456 $11 $-1 $457 forward single #
loop $-1 $458 $459 $251 #
cone-surface $-1 0 0.030474999999999999 0 0 -1 0 -0.0625 0 0 1 I I 0 1 0.0625 forward I I I I #
coedge $460 $360 $360 $361 $461 reversed $252 $-1 #
coedge $462 $361 $361 $360 $461 forward $254 $-1 #
attrib_hh_coedge_geombuild-attrib_entity_geombuild-individual_entity_attribute-attrib_HH-attrib $-1 $-1 $-1 $255 F #
coedge $463 $363 $363 $255 $364 reversed $464 $-1 #
edge $465 $466 -3.1415926535897931 $466 3.1415926535897931 $363 $467 forward 7 unknown #
attrib_hh_edge_geombuild-attrib_entity_geombuild-individual_entity_attribute-attrib_HH-attrib $-1 $-1 $-1 $257 F #
vertex $468 $257 $469 #
ellipse-curve $-1 0 -0.59350000000000003 0 -4.1895208476420996e-015 1 0 -0.026499999999999999 -1.11022302462516e-016 0 1 I I #
attrib_hh_vertex_geombuild-attrib_entity_geombuild-individual_entity_attribute-attrib_HH-attrib $-1 $-1 $-1 $262 F #
point $-1 0.026499999999999999 -0.58050000000000002 3.2452068376292998e-018 #
attrib_hh_edge_geombuild-attrib_entity_geombuild-individual_entity_attribute-attrib_HH-attrib $-1 $-1 $264 $115 F #
plane-surface $-1 0.1225 0 0 -1 0 0 0 0 1 forward_v I I I I #
coedge $-1 $273 $271 $275 $376 reversed $181 $-1 #
edge $-1 $286 -0.1225 $378 0.1225 $285 $470 forward 7 unknown #
vertex $-1 $376 $471 #
straight-curve $-1 -0.1225 -0.30475000000000008 0 0 0 -1 I I #
edge $-1 $374 -0.30475000000000008 $378 0.30475000000000008 $372 $472 forward 7 unknown #
straight-curve $-1 0 -0.30475000000000008 -0.1225 -1 0 0 I I #
vertex $-1 $278 $473 #
straight-curve $-1 0 0.30475000000000008 -0.1225 1 0 0 I I #
point $-1 0.1225 0.30475000000000008 -0.1225 #
point $-1 0.1225 -0.30475000000000008 -0.1225 #
straight-curve $-1 -0.1225 0 0.1225 0 -1 0 I I #
point $-1 -0.1225 0.30475000000000008 0.1225 #
point $-1 -0.1225 -0.30475000000000008 0.1225 #
straight-curve $-1 0.1225 -0.30475000000000008 0 0 0 -1 I I #
straight-curve $-1 0.1225 0.30475000000000008 0 0 0 -1 I I #
face $-1 $474 $475 $31 $-1 $476 reversed single #
loop $-1 $-1 $313 $295 #
plane-surface $-1 0.1225 0 0 -1 0 0 0 0 1 forward_v I I I I #
coedge $-1 $477 $298 $478 $479 reversed $200 $-1 #
coedge $-1 $298 $477 $480 $481 reversed $200 $-1 #
coedge $-1 $482 $483 $484 $301 forward $485 $-1 #
coedge $-1 $486 $487 $299 $394 forward $488 $-1 #
edge $-1 $314 1.2246063538223773e-016 $398 1.5707963267948968 $393 $310 forward 7 unknown #
coedge $-1 $489 $490 $300 $396 forward $491 $-1 #
edge $-1 $397 -1.5707963267948968 $214 -1.2246063538223773e-016 $395 $216 forward 7 unknown #
vertex $-1 $492 $493 #
vertex $-1 $494 $495 #
straight-curve $-1 -1.377813288174089e-033 -0.30474999999999997 -0.1225 0 -1 0 I I #
coedge $-1 $496 $436 $302 $401 forward $497 $-1 #
edge $-1 $215 1.5707963267948966 $406 3.1415926535897931 $400 $216 forward 7 unknown #
coedge $-1 $498 $303 $306 $410 reversed $405 $-1 #
coedge $-1 $303 $498 $496 $499 forward $405 $-1 #
coedge $-1 $500 $501 $477 $304 reversed $475 $-1 #
loop $-1 $-1 $303 $502 #
vertex $-1 $503 $504 #
straight-curve $-1 -0.1225 -0.30474999999999997 0 0 -1 0 I I #
coedge $-1 $318 $505 $305 $409 forward $296 $-1 #
edge $-1 $506 -0.1225 $309 -1.377813288174089e-033 $305 $507 forward 7 unknown #
edge $-1 $506 -0.1225 $308 0 $402 $508 forward 7 unknown #
face $-1 $509 $307 $31 $-1 $510 reversed single #
edge $-1 $308 0 $511 0.1225 $501 $508 forward 7 unknown #
point $-1 -0.1225 -0.30475000000000008 0 #
edge $-1 $309 -1.377813288174089e-033 $512 0.1225 $417 $507 forward 7 unknown #
point $-1 -1.377813288174089e-033 -0.30475000000000008 0.1225 #
coedge $-1 $417 $311 $513 $514 reversed $418 $-1 #
coedge $-1 $311 $416 $316 $414 reversed $418 $-1 #
loop $-1 $-1 $311 $509 #
coedge $-1 $515 $313 $487 $422 forward $388 $-1 #
coedge $-1 $313 $515 $489 $325 reversed $388 $-1 #
coedge $-1 $322 $513 $134 $208 reversed $430 $-1 #
edge $-1 $314 0 $516 0.1225 $419 $517 forward 7 unknown #
point $-1 0.1225 -0.30475000000000008 0 #
coedge $-1 $317 $316 $429 $518 forward $319 $-1 #
coedge $-1 $505 $318 $436 $327 forward $296 $-1 #
face $-1 $519 $319 $31 $-1 $297 forward single #
vertex $-1 $518 $520 #
straight-curve $-1 0 0.30475000000000008 0.1225 -1 0 0 I I #
coedge $-1 $513 $322 $424 $518 reversed $430 $-1 #
loop $-1 $-1 $421 $521 #
straight-curve $-1 0.1225 0.30475000000000008 0 0 0 -1 I I #
face $-1 $522 $497 $31 $-1 $433 reversed single #
plane-surface $-1 0 0.30475000000000008 0 0 -1 0 0 0 -1 forward_v I I I I #
vertex $-1 $523 $524 #
vertex $-1 $327 $525 #
coedge $-1 $400 $496 $425 $327 reversed $497 $-1 #
convexity-sys-attrib $-1 $-1 $-1 $331 #
vertex $-1 $331 $526 #
ellipse-curve $-1 -1.377813288174089e-033 -0.047749999999999848 0 0 1 0 0.1225 0 1.5001427834324123e-017 1 I I #
point $-1 -0.1225 -0.10774999999999985 0 #
point $-1 0.0625 -0.047749999999999904 7.6537897113898594e-018 #
convexity-sys-attrib $-1 $-1 $-1 $339 #
vertex $-1 $339 $527 #
ellipse-curve $-1 -1.377813288174089e-033 -0.1077499999999999 0 0 1 0 0.1225 0 1.5001427834324123e-017 1 I I #
point $-1 -0.1225 -0.27574999999999994 0 #
point $-1 0.031150000000000001 -0.1077499999999999 3.81464879215671e-018 #
convexity-sys-attrib $-1 $-1 $-1 $347 #
vertex $-1 $347 $528 #
ellipse-curve $-1 -1.377813288174089e-033 -0.017749999999999932 0 0 -1 0 0.1225 0 1.5001427834324123e-017 1 I I #
point $-1 -0.1225 0.30475000000000008 -3.0002855668648245e-017 #
point $-1 0.070275000000000004 -0.017749999999999932 8.6062053810080201e-018 #
pid_name-sg-attrib $-1 $-1 $355 $167 7 rwilson 784252905 104 1 #
attrib_hh_face_geombuild-attrib_entity_geombuild-individual_entity_attribute-attrib_HH-attrib $-1 $529 $356 $251 F #
model_id-kcp-attrib $-1 $530 $-1 $357 1 1017696005 60 909901825 9 #
face $531 $532 $533 $11 $-1 $534 forward single #
loop $-1 $464 $535 $357 #
plane-surface $-1 0 -0.41249999999999998 0 0 -1 0 0 0 -1 forward_v I I I I #
loop $-1 $-1 $536 $251 #
coedge $537 $459 $459 $538 $539 forward $358 $-1 #
attrib_hh_coedge_geombuild-attrib_entity_geombuild-individual_entity_attribute-attrib_HH-attrib $-1 $-1 $-1 $360 F #
edge $540 $541 0 $541 6.2831853071795862 $360 $542 forward 7 unknown #
attrib_hh_coedge_geombuild-attrib_entity_geombuild-individual_entity_attribute-attrib_HH-attrib $-1 $-1 $-1 $361 F #
attrib_hh_coedge_geombuild-attrib_entity_geombuild-individual_entity_attribute-attrib_HH-attrib $-1 $-1 $-1 $363 F #
loop $-1 $-1 $363 $357 #
attrib_hh_edge_geombuild-attrib_entity_geombuild-individual_entity_attribute-attrib_HH-attrib $-1 $-1 $-1 $364 F #
vertex $543 $364 $544 #
ellipse-curve $-1 0 -0.41249999999999998 0 1.7820594295748901e-015 -1 0 -0.031150000000000001 -5.5511151231257802e-017 0 1 I I #
attrib_hh_vertex_geombuild-attrib_entity_geombuild-individual_entity_attribute-attrib_HH-attrib $-1 $-1 $-1 $366 F #
point $-1 -0.026499999999999999 -0.59350000000000003 0 #
straight-curve $-1 -0.1225 0.30475000000000008 0 0 0 -1 I I #
point $-1 -0.1225 -0.30475000000000008 -0.1225 #
straight-curve $-1 -0.1225 0 -0.1225 0 1 0 I I #
point $-1 -0.1225 0.30475000000000008 -0.1225 #
face $-1 $411 $545 $31 $-1 $510 reversed single #
loop $-1 $-1 $404 $387 #
plane-surface $-1 -0.1225 0 0 1 0 0 0 0 -1 forward_v I I I I #
coedge $-1 $391 $390 $202 $304 forward $200 $-1 #
coedge $-1 $546 $547 $390 $479 forward $548 $-1 #
edge $-1 $406 -3.1415926535897931 $397 -1.5707963267948968 $478 $216 forward 7 unknown #
coedge $-1 $549 $550 $391 $481 forward $545 $-1 #
edge $-1 $398 1.5707963267948968 $308 3.1415926535897931 $480 $310 forward 7 unknown #
coedge $-1 $551 $392 $550 $494 forward $485 $-1 #
coedge $-1 $392 $551 $546 $552 forward $485 $-1 #
coedge $-1 $553 $554 $201 $301 reversed $555 $-1 #
loop $-1 $-1 $392 $519 #
coedge $-1 $487 $393 $554 $556 reversed $488 $-1 #
coedge $-1 $393 $486 $419 $422 reversed $488 $-1 #
loop $-1 $-1 $393 $557 #
coedge $-1 $490 $395 $420 $325 forward $491 $-1 #
coedge $-1 $395 $489 $553 $492 reversed $491 $-1 #
loop $-1 $-1 $395 $558 #
edge $-1 $397 -1.377813288174089e-033 $434 0.1225 $490 $559 forward 7 unknown #
point $-1 -1.377813288174089e-033 0.30475000000000008 -0.1225 #
edge $-1 $398 1.377813288174089e-033 $511 0.1225 $550 $560 forward 7 unknown #
point $-1 -1.377813288174089e-033 -0.30475000000000008 -0.1225 #
coedge $-1 $436 $400 $403 $499 reversed $497 $-1 #
loop $-1 $-1 $400 $432 #
coedge $-1 $403 $402 $505 $561 reversed $405 $-1 #
edge $-1 $435 -0.1225 $406 0 $496 $562 forward 7 unknown #
coedge $-1 $563 $404 $547 $503 forward $475 $-1 #
coedge $-1 $404 $563 $549 $412 reversed $475 $-1 #
face $-1 $521 $405 $31 $-1 $476 reversed single #
edge $-1 $406 0 $564 0.1225 $547 $562 forward 7 unknown #
point $-1 -0.1225 0.30475000000000008 0 #
coedge $-1 $408 $425 $498 $561 forward $296 $-1 #
vertex $-1 $561 $565 #
straight-curve $-1 0 -0.30475000000000008 0.1225 1 0 0 I I #
straight-curve $-1 -0.1225 -0.30475000000000008 0 0 0 -1 I I #
face $-1 $557 $418 $31 $-1 $510 reversed single #
plane-surface $-1 0 -0.30475000000000008 0 0 1 0 0 0 1 forward_v I I I I #
vertex $-1 $566 $567 #
vertex $-1 $518 $568 #
coedge $-1 $421 $429 $416 $514 forward $430 $-1 #
edge $-1 $512 -0.1225 $314 0 $513 $517 forward 7 unknown #
coedge $-1 $420 $419 $569 $523 reversed $388 $-1 #
vertex $-1 $422 $570 #
straight-curve $-1 0.1225 -0.30475000000000008 0 0 0 -1 I I #
edge $-1 $512 -0.30475000000000008 $427 0.30475000000000008 $429 $571 forward 7 unknown #
face $-1 $502 $485 $31 $-1 $572 reversed single #
point $-1 0.1225 0.30475000000000008 0.1225 #
face $-1 $-1 $430 $31 $-1 $389 reversed single #
face $-1 $573 $548 $31 $-1 $433 reversed single #
edge $-1 $434 -0.30475000000000008 $516 0.30475000000000008 $515 $574 forward 7 unknown #
point $-1 0.1225 0.30475000000000008 -0.1225 #
point $-1 -0.1225 0.30475000000000008 0.1225 #
point $-1 -0.1225 -0.047749999999999848 0 #
point $-1 -0.1225 -0.1077499999999999 0 #
point $-1 -0.1225 -0.017749999999999932 -3.0002855668648245e-017 #
pid_name-sg-attrib $-1 $-1 $453 $251 7 rwilson 784252905 105 1 #
attrib_hh_face_geombuild-attrib_entity_geombuild-individual_entity_attribute-attrib_HH-attrib $-1 $575 $454 $357 F #
model_id-kcp-attrib $-1 $576 $-1 $455 1 1017696005 60 909901825 10 #
face $577 $578 $579 $11 $-1 $580 forward single #
loop $-1 $581 $582 $455 #
cone-surface $-1 0 0.030474999999999999 0 0 -1 0 -0.1225 0 0 1 I I 0 1 0.1225 forward I I I I #
coedge $583 $535 $535 $536 $584 reversed $456 $-1 #
coedge $585 $536 $536 $535 $584 forward $458 $-1 #
attrib_hh_coedge_geombuild-attrib_entity_geombuild-individual_entity_attribute-attrib_HH-attrib $-1 $-1 $-1 $459 F #
coedge $586 $538 $538 $459 $539 reversed $587 $-1 #
edge $588 $589 -3.1415926535897931 $589 3.1415926535897931 $538 $590 forward 7 unknown #
attrib_hh_edge_geombuild-attrib_entity_geombuild-individual_entity_attribute-attrib_HH-attrib $-1 $-1 $-1 $461 F #
vertex $591 $461 $592 #
ellipse-curve $-1 0 -0.58050000000000002 0 0 1 0 -0.031150000000000001 0 0 1 I I #
attrib_hh_vertex_geombuild-attrib_entity_geombuild-individual_entity_attribute-attrib_HH-attrib $-1 $-1 $-1 $466 F #
point $-1 0.031150000000000001 -0.41249999999999998 3.81464879215671e-018 #
loop $-1 $-1 $480 $474 #
coedge $-1 $547 $478 $483 $552 reversed $548 $-1 #
coedge $-1 $478 $546 $500 $503 reversed $548 $-1 #
loop $-1 $-1 $478 $522 #
coedge $-1 $550 $480 $501 $412 forward $545 $-1 #
coedge $-1 $480 $549 $482 $494 reversed $545 $-1 #
coedge $-1 $483 $482 $563 $566 forward $485 $-1 #
edge $-1 $564 -0.1225 $397 -1.377813288174089e-033 $546 $559 forward 7 unknown #
coedge $-1 $569 $484 $490 $492 forward $555 $-1 #
coedge $-1 $484 $569 $486 $556 forward $555 $-1 #
loop $-1 $-1 $484 $573 #
edge $-1 $516 -0.1225 $398 1.377813288174089e-033 $486 $560 forward 7 unknown #
face $-1 $558 $488 $31 $-1 $510 reversed single #
face $-1 $324 $491 $31 $-1 $433 reversed single #
straight-curve $-1 0 0.30475000000000008 -0.1225 1 0 0 I I #
straight-curve $-1 0 -0.30475000000000008 -0.1225 -1 0 0 I I #
edge $-1 $435 -0.30475000000000008 $506 0.30475000000000008 $498 $593 forward 7 unknown #
straight-curve $-1 -0.1225 0.30475000000000008 0 0 0 -1 I I #
coedge $-1 $501 $500 $551 $566 reversed $475 $-1 #
vertex $-1 $552 $594 #
point $-1 -0.1225 -0.30475000000000008 0.1225 #
edge $-1 $511 -0.30475000000000008 $564 0.30475000000000008 $563 $595 forward 7 unknown #
point $-1 -0.1225 -0.30475000000000008 -0.1225 #
point $-1 0.1225 -0.30475000000000008 0.1225 #
coedge $-1 $554 $553 $515 $523 forward $555 $-1 #
point $-1 0.1225 -0.30475000000000008 -0.1225 #
straight-curve $-1 0.1225 0 0.1225 0 1 0 I I #
plane-surface $-1 0 0 -0.1225 0 0 1 1 0 0 forward_v I I I I #
face $-1 $426 $555 $31 $-1 $572 reversed single #
straight-curve $-1 0.1225 0 -0.1225 0 -1 0 I I #
pid_name-sg-attrib $-1 $-1 $530 $357 7 rwilson 784252905 106 1 #
attrib_hh_face_geombuild-attrib_entity_geombuild-individual_entity_attribute-attrib_HH-attrib $-1 $596 $531 $455 F #
model_id-kcp-attrib $-1 $597 $-1 $532 1 1017696005 60 909901825 11 #
face $598 $599 $600 $11 $-1 $601 reversed single #
loop $-1 $587 $602 $532 #
plane-surface $-1 0 -0.35249999999999998 0 0 -1 0 0 0 -1 forward_v I I I I #
loop $-1 $-1 $603 $455 #
coedge $604 $582 $582 $605 $606 forward $533 $-1 #
attrib_hh_coedge_geombuild-attrib_entity_geombuild-individual_entity_attribute-attrib_HH-attrib $-1 $-1 $-1 $535 F #
edge $607 $608 0 $608 6.2831853071795862 $535 $609 forward 7 unknown #
attrib_hh_coedge_geombuild-attrib_entity_geombuild-individual_entity_attribute-attrib_HH-attrib $-1 $-1 $-1 $536 F #
attrib_hh_coedge_geombuild-attrib_entity_geombuild-individual_entity_attribute-attrib_HH-attrib $-1 $-1 $-1 $538 F #
loop $-1 $-1 $538 $532 #
attrib_hh_edge_geombuild-attrib_entity_geombuild-individual_entity_attribute-attrib_HH-attrib $-1 $-1 $-1 $539 F #
vertex $610 $539 $611 #
ellipse-curve $-1 0 -0.35249999999999998 0 0 -1 0 -0.0625 0 0 1 I I #
attrib_hh_vertex_geombuild-attrib_entity_geombuild-individual_entity_attribute-attrib_HH-attrib $-1 $-1 $-1 $541 F #
point $-1 -0.031150000000000001 -0.58050000000000002 0 #
straight-curve $-1 -0.1225 0 0.1225 0 -1 0 I I #
point $-1 -0.1225 0.30475000000000008 -0.1225 #
straight-curve $-1 -0.1225 0 -0.1225 0 1 0 I I #
pid_name-sg-attrib $-1 $-1 $576 $455 7 rwilson 784252905 107 1 #
attrib_hh_face_geombuild-attrib_entity_geombuild-individual_entity_attribute-attrib_HH-attrib $-1 $612 $577 $532 F #
model_id-kcp-attrib $-1 $613 $-1 $578 1 1017696005 60 909901825 12 #
face $614 $615 $616 $11 $-1 $617 forward single #
loop $-1 $618 $619 $578 #
plane-surface $-1 0 -0.32250000000000001 0 0 -1 0 0 0 -1 forward_v I I I I #
coedge $620 $602 $602 $603 $621 reversed $579 $-1 #
coedge $622 $603 $603 $602 $621 forward $581 $-1 #
attrib_hh_coedge_geombuild-attrib_entity_geombuild-individual_entity_attribute-attrib_HH-attrib $-1 $-1 $-1 $582 F #
coedge $623 $605 $605 $582 $606 reversed $618 $-1 #
edge $624 $625 -3.1415926535897931 $625 3.1415926535897931 $605 $626 forward 7 unknown #
attrib_hh_edge_geombuild-attrib_entity_geombuild-individual_entity_attribute-attrib_HH-attrib $-1 $-1 $-1 $584 F #
vertex $627 $584 $628 #
ellipse-curve $-1 0 -0.41249999999999998 0 -1.7763568394002501e-015 1 0 -0.0625 -1.11022302462516e-016 0 1 I I #
attrib_hh_vertex_geombuild-attrib_entity_geombuild-individual_entity_attribute-attrib_HH-attrib $-1 $-1 $-1 $589 F #
point $-1 0.0625 -0.35249999999999998 7.6537897113898594e-018 #
pid_name-sg-attrib $-1 $-1 $597 $532 7 rwilson 784252905 108 1 #
attrib_hh_face_geombuild-attrib_entity_geombuild-individual_entity_attribute-attrib_HH-attrib $-1 $629 $598 $578 F #
model_id-kcp-attrib $-1 $630 $-1 $599 1 1017696005 60 909901825 13 #
face $631 $-1 $632 $11 $-1 $633 reversed single #
loop $-1 $634 $635 $599 #
cone-surface $-1 0 0.030474999999999999 0 0 -1 0 -0.070275000000000004 0 0 1 I I 0 1 0.070275000000000004 forward I I I I #
loop $-1 $-1 $605 $578 #
coedge $636 $619 $619 $637 $638 reversed $600 $-1 #
attrib_hh_coedge_geombuild-attrib_entity_geombuild-individual_entity_attribute-attrib_HH-attrib $-1 $-1 $-1 $602 F #
edge $639 $640 0 $640 6.2831853071795862 $602 $641 forward 7 unknown #
attrib_hh_coedge_geombuild-attrib_entity_geombuild-individual_entity_attribute-attrib_HH-attrib $-1 $-1 $-1 $603 F #
attrib_hh_coedge_geombuild-attrib_entity_geombuild-individual_entity_attribute-attrib_HH-attrib $-1 $-1 $-1 $605 F #
attrib_hh_edge_geombuild-attrib_entity_geombuild-individual_entity_attribute-attrib_HH-attrib $-1 $-1 $-1 $606 F #
vertex $642 $606 $643 #
ellipse-curve $-1 0 -0.32250000000000001 0 9.0630450989808699e-016 -1 0 -0.1225 -1.11022302462516e-016 0 1 I I #
attrib_hh_vertex_geombuild-attrib_entity_geombuild-individual_entity_attribute-attrib_HH-attrib $-1 $-1 $-1 $608 F #
point $-1 -0.0625 -0.41249999999999998 0 #
pid_name-sg-attrib $-1 $-1 $613 $578 7 rwilson 784252905 109 1 #
attrib_hh_face_geombuild-attrib_entity_geombuild-individual_entity_attribute-attrib_HH-attrib $-1 $644 $614 $599 F #
model_id-kcp-attrib $-1 $645 $-1 $615 1 1017696005 60 909901825 14 #
loop $-1 $-1 $646 $615 #
plane-surface $-1 0 0 0 0 -1 0 0 0 -1 forward_v I I I I #
loop $-1 $-1 $637 $599 #
coedge $647 $635 $635 $646 $648 forward $616 $-1 #
attrib_hh_coedge_geombuild-attrib_entity_geombuild-individual_entity_attribute-attrib_HH-attrib $-1 $-1 $-1 $619 F #
coedge $649 $637 $637 $619 $638 forward $634 $-1 #
edge $650 $651 -3.1415926535897931 $651 3.1415926535897931 $619 $652 forward 7 unknown #
attrib_hh_edge_geombuild-attrib_entity_geombuild-individual_entity_attribute-attrib_HH-attrib $-1 $-1 $-1 $621 F #
vertex $653 $621 $654 #
ellipse-curve $-1 0 -0.35249999999999998 0 0 1 0 -0.1225 0 0 1 I I #
attrib_hh_vertex_geombuild-attrib_entity_geombuild-individual_entity_attribute-attrib_HH-attrib $-1 $-1 $-1 $625 F #
point $-1 0.1225 -0.32250000000000001 1.5001427834324101e-017 #
pid_name-sg-attrib $-1 $-1 $630 $599 7 rwilson 784252905 110 1 #
attrib_hh_face_geombuild-attrib_entity_geombuild-individual_entity_attribute-attrib_HH-attrib $-1 $655 $631 $615 F #
coedge $656 $646 $646 $635 $648 reversed $632 $-1 #
attrib_hh_coedge_geombuild-attrib_entity_geombuild-individual_entity_attribute-attrib_HH-attrib $-1 $-1 $-1 $635 F #
edge $657 $658 -6.2831853071795862 $658 0 $646 $659 reversed 7 unknown #
attrib_hh_coedge_geombuild-attrib_entity_geombuild-individual_entity_attribute-attrib_HH-attrib $-1 $-1 $-1 $637 F #
attrib_hh_edge_geombuild-attrib_entity_geombuild-individual_entity_attribute-attrib_HH-attrib $-1 $-1 $-1 $638 F #
vertex $660 $638 $661 #
ellipse-curve $-1 0 -0.32250000000000001 0 -1.57982643134138e-015 1 0 -0.070275000000000004 -1.11022302462516e-016 0 1 I I #
attrib_hh_vertex_geombuild-attrib_entity_geombuild-individual_entity_attribute-attrib_HH-attrib $-1 $-1 $-1 $640 F #
point $-1 -0.1225 -0.35249999999999998 0 #
pid_name-sg-attrib $-1 $-1 $645 $615 7 rwilson 784252905 111 1 #
attrib_hh_coedge_geombuild-attrib_entity_geombuild-individual_entity_attribute-attrib_HH-attrib $-1 $-1 $-1 $646 F #
attrib_hh_edge_geombuild-attrib_entity_geombuild-individual_entity_attribute-attrib_HH-attrib $-1 $-1 $-1 $648 F #
vertex $662 $648 $663 #
ellipse-curve $-1 0 0 0 0 1 0 -0.070275000000000004 0 0 1 I I #
attrib_hh_vertex_geombuild-attrib_entity_geombuild-individual_entity_attribute-attrib_HH-attrib $-1 $-1 $-1 $651 F #
point $-1 0.070275000000000004 -0.32250000000000001 8.6062053810080201e-018 #
attrib_hh_vertex_geombuild-attrib_entity_geombuild-individual_entity_attribute-attrib_HH-attrib $-1 $-1 $-1 $658 F #
point $-1 -0.070275000000000004 0 0 #
End-of-ACIS-data 