600 0 1 0           
125 GICL ACIS Healer - Source: /gicl/data5/repository/Sandia/Randy_Wilson/discriminator/sh-r44361-000-u/sh-r44361-000-u.sat - 6 0 18 ACIS 6.0.3 Solaris 24 Sat Apr 13 23:37:53 2002 
1 9.999999999999999547e-07 1.000000000000000036e-10 
body $-1 $1 $-1 $2 #
lump $-1 $-1 $3 $0 #
transform $-1 1 0 0 0 1 0 0 0 1 0 0 0 1 no_rotate no_reflect no_shear #
shell $-1 $-1 $-1 $4 $-1 $1 #
face $5 $6 $7 $3 $-1 $8 forward single #
pid_name-sg-attrib $-1 $-1 $-1 $4 7 rwilson 784252905 99 1 #
face $9 $10 $11 $3 $-1 $12 forward single #
loop $-1 $13 $14 $4 #
cone-surface $-1 0 0.03047499999999999862 0 0 -1 0 -0.03115000000000000061 0 0 1 I I 0 1 0.03115000000000000061 forward I I I I #
pid_name-sg-attrib $-1 $-1 $-1 $6 7 rwilson 784252905 100 1 #
face $15 $16 $17 $3 $-1 $18 forward single #
loop $-1 $-1 $19 $6 #
plane-surface $-1 0 -0.6095000000000000417 0 0 -1 0 0 0 -1 forward_v I I I I #
loop $-1 $-1 $20 $4 #
coedge $-1 $14 $14 $21 $22 forward $7 $-1 #
pid_name-sg-attrib $-1 $-1 $-1 $10 7 rwilson 784252905 101 1 #
face $23 $24 $25 $3 $-1 $26 reversed single #
loop $-1 $27 $28 $10 #
cone-surface $-1 0 0.03047499999999999862 0 0 -1 0 -0.02649999999999999925 0 0 1 I I 0 1 0.02649999999999999925 forward I I I I #
coedge $-1 $19 $19 $20 $29 reversed $11 $-1 #
coedge $-1 $20 $20 $19 $29 forward $13 $-1 #
coedge $-1 $21 $21 $14 $22 reversed $30 $-1 #
edge $-1 $31 -3.141592653589793116 $31 3.141592653589793116 $21 $32 forward 7 unknown #
pid_name-sg-attrib $-1 $-1 $-1 $16 7 rwilson 784252905 102 1 #
face $33 $34 $35 $3 $-1 $36 forward single #
loop $-1 $30 $37 $16 #
plane-surface $-1 0 -0.5935000000000000275 0 0 -1 0 0 0 -1 forward_v I I I I #
loop $-1 $-1 $38 $10 #
coedge $-1 $28 $28 $39 $40 forward $17 $-1 #
edge $-1 $41 0 $41 6.283185307179586232 $19 $42 forward 7 unknown #
loop $-1 $-1 $21 $16 #
vertex $-1 $22 $43 #
ellipse-curve $-1 0 -0.5935000000000000275 0 3.564118859149780141e-15 -1 0 -0.03115000000000000061 -1.110223024625159992e-16 0 1 I I #
pid_name-sg-attrib $-1 $-1 $-1 $24 7 rwilson 784252905 103 1 #
face $44 $45 $46 $3 $-1 $47 forward single #
loop $-1 $48 $49 $24 #
cone-surface $-1 0 0.03047499999999999862 0 0 -1 0 -0.03115000000000000061 0 0 1 I I 0 1 0.03115000000000000061 forward I I I I #
coedge $-1 $37 $37 $38 $50 reversed $25 $-1 #
coedge $-1 $38 $38 $37 $50 forward $27 $-1 #
coedge $-1 $39 $39 $28 $40 reversed $51 $-1 #
edge $-1 $52 -3.141592653589793116 $52 3.141592653589793116 $39 $53 forward 7 unknown #
vertex $-1 $29 $54 #
ellipse-curve $-1 0 -0.6095000000000000417 0 -3.564118859149780141e-15 1 0 -0.03115000000000000061 -1.110223024625159992e-16 0 1 I I #
point $-1 0.03115000000000000061 -0.5935000000000000275 3.814648792156710011e-18 #
pid_name-sg-attrib $-1 $-1 $-1 $34 7 rwilson 784252905 104 1 #
face $55 $56 $57 $3 $-1 $58 forward single #
loop $-1 $51 $59 $34 #
plane-surface $-1 0 -0.580500000000000016 0 0 -1 0 0 0 -1 forward_v I I I I #
loop $-1 $-1 $60 $24 #
coedge $-1 $49 $49 $61 $62 forward $35 $-1 #
edge $-1 $63 0 $63 6.283185307179586232 $37 $64 forward 7 unknown #
loop $-1 $-1 $39 $34 #
vertex $-1 $40 $65 #
ellipse-curve $-1 0 -0.580500000000000016 0 0 -1 0 -0.02649999999999999925 0 0 1 I I #
point $-1 -0.03115000000000000061 -0.6095000000000000417 0 #
pid_name-sg-attrib $-1 $-1 $-1 $45 7 rwilson 784252905 105 1 #
face $66 $67 $68 $3 $-1 $69 forward single #
loop $-1 $70 $71 $45 #
cone-surface $-1 0 0.03047499999999999862 0 0 -1 0 -0.0625 0 0 1 I I 0 1 0.0625 forward I I I I #
coedge $-1 $59 $59 $60 $72 reversed $46 $-1 #
coedge $-1 $60 $60 $59 $72 forward $48 $-1 #
coedge $-1 $61 $61 $49 $62 reversed $73 $-1 #
edge $-1 $74 -3.141592653589793116 $74 3.141592653589793116 $61 $75 forward 7 unknown #
vertex $-1 $50 $76 #
ellipse-curve $-1 0 -0.5935000000000000275 0 -4.189520847642099617e-15 1 0 -0.02649999999999999925 -1.110223024625159992e-16 0 1 I I #
point $-1 0.02649999999999999925 -0.580500000000000016 3.245206837629299839e-18 #
pid_name-sg-attrib $-1 $-1 $-1 $56 7 rwilson 784252905 106 1 #
face $77 $78 $79 $3 $-1 $80 forward single #
loop $-1 $73 $81 $56 #
plane-surface $-1 0 -0.4124999999999999778 0 0 -1 0 0 0 -1 forward_v I I I I #
loop $-1 $-1 $82 $45 #
coedge $-1 $71 $71 $83 $84 forward $57 $-1 #
edge $-1 $85 0 $85 6.283185307179586232 $59 $86 forward 7 unknown #
loop $-1 $-1 $61 $56 #
vertex $-1 $62 $87 #
ellipse-curve $-1 0 -0.4124999999999999778 0 1.782059429574890071e-15 -1 0 -0.03115000000000000061 -5.551115123125780237e-17 0 1 I I #
point $-1 -0.02649999999999999925 -0.5935000000000000275 0 #
pid_name-sg-attrib $-1 $-1 $-1 $67 7 rwilson 784252905 107 1 #
face $88 $89 $90 $3 $-1 $91 forward single #
loop $-1 $92 $93 $67 #
cone-surface $-1 0 0.03047499999999999862 0 0 -1 0 -0.1224999999999999978 0 0 1 I I 0 1 0.1224999999999999978 forward I I I I #
coedge $-1 $81 $81 $82 $94 reversed $68 $-1 #
coedge $-1 $82 $82 $81 $94 forward $70 $-1 #
coedge $-1 $83 $83 $71 $84 reversed $95 $-1 #
edge $-1 $96 -3.141592653589793116 $96 3.141592653589793116 $83 $97 forward 7 unknown #
vertex $-1 $72 $98 #
ellipse-curve $-1 0 -0.580500000000000016 0 0 1 0 -0.03115000000000000061 0 0 1 I I #
point $-1 0.03115000000000000061 -0.4124999999999999778 3.814648792156710011e-18 #
pid_name-sg-attrib $-1 $-1 $-1 $78 7 rwilson 784252905 108 1 #
face $99 $100 $101 $3 $-1 $102 reversed single #
loop $-1 $95 $103 $78 #
plane-surface $-1 0 -0.35249999999999998 0 0 -1 0 0 0 -1 forward_v I I I I #
loop $-1 $-1 $104 $67 #
coedge $-1 $93 $93 $105 $106 forward $79 $-1 #
edge $-1 $107 0 $107 6.283185307179586232 $81 $108 forward 7 unknown #
loop $-1 $-1 $83 $78 #
vertex $-1 $84 $109 #
ellipse-curve $-1 0 -0.35249999999999998 0 0 -1 0 -0.0625 0 0 1 I I #
point $-1 -0.03115000000000000061 -0.580500000000000016 0 #
pid_name-sg-attrib $-1 $-1 $-1 $89 7 rwilson 784252905 109 1 #
face $110 $111 $112 $3 $-1 $113 forward single #
loop $-1 $114 $115 $89 #
plane-surface $-1 0 -0.3225000000000000089 0 0 -1 0 0 0 -1 forward_v I I I I #
coedge $-1 $103 $103 $104 $116 reversed $90 $-1 #
coedge $-1 $104 $104 $103 $116 forward $92 $-1 #
coedge $-1 $105 $105 $93 $106 reversed $114 $-1 #
edge $-1 $117 -3.141592653589793116 $117 3.141592653589793116 $105 $118 forward 7 unknown #
vertex $-1 $94 $119 #
ellipse-curve $-1 0 -0.4124999999999999778 0 -1.77635683940025007e-15 1 0 -0.0625 -1.110223024625159992e-16 0 1 I I #
point $-1 0.0625 -0.35249999999999998 7.653789711389859405e-18 #
pid_name-sg-attrib $-1 $-1 $-1 $100 7 rwilson 784252905 110 1 #
face $120 $-1 $121 $3 $-1 $122 reversed single #
loop $-1 $123 $124 $100 #
cone-surface $-1 0 0.03047499999999999862 0 0 -1 0 -0.07027500000000000413 0 0 1 I I 0 1 0.07027500000000000413 forward I I I I #
loop $-1 $-1 $105 $89 #
coedge $-1 $115 $115 $125 $126 reversed $101 $-1 #
edge $-1 $127 0 $127 6.283185307179586232 $103 $128 forward 7 unknown #
vertex $-1 $106 $129 #
ellipse-curve $-1 0 -0.3225000000000000089 0 9.063045098980869919e-16 -1 0 -0.1224999999999999978 -1.110223024625159992e-16 0 1 I I #
point $-1 -0.0625 -0.4124999999999999778 0 #
pid_name-sg-attrib $-1 $-1 $-1 $111 7 rwilson 784252905 111 1 #
loop $-1 $-1 $130 $111 #
plane-surface $-1 0 0 0 0 -1 0 0 0 -1 forward_v I I I I #
loop $-1 $-1 $125 $100 #
coedge $-1 $124 $124 $130 $131 forward $112 $-1 #
coedge $-1 $125 $125 $115 $126 forward $123 $-1 #
edge $-1 $132 -3.141592653589793116 $132 3.141592653589793116 $115 $133 forward 7 unknown #
vertex $-1 $116 $134 #
ellipse-curve $-1 0 -0.35249999999999998 0 0 1 0 -0.1224999999999999978 0 0 1 I I #
point $-1 0.1224999999999999978 -0.3225000000000000089 1.500142783432410095e-17 #
coedge $-1 $130 $130 $124 $131 reversed $121 $-1 #
edge $-1 $135 -6.283185307179586232 $135 -0 $130 $136 reversed 7 unknown #
vertex $-1 $126 $137 #
ellipse-curve $-1 0 -0.3225000000000000089 0 -1.579826431341379998e-15 1 0 -0.07027500000000000413 -1.110223024625159992e-16 0 1 I I #
point $-1 -0.1224999999999999978 -0.35249999999999998 0 #
vertex $-1 $131 $138 #
ellipse-curve $-1 0 0 0 0 1 0 -0.07027500000000000413 0 0 1 I I #
point $-1 0.07027500000000000413 -0.3225000000000000089 8.60620538100802009e-18 #
point $-1 -0.07027500000000000413 0 0 #
End-of-ACIS-data 