  0
SECTION
  2
HEADER
  9
$ACADVER
  1
AC1009
  9
$INSBASE
 10
0.0
 20
0.0
 30
0.0
  9
$EXTMIN
 10
0.0
 20
0.0
 30
0.0
  9
$EXTMAX
 10
5.0
 20
3.0
 30
5.0
  9
$LIMMIN
 10
0.0
 20
0.0
  9
$LIMMAX
 10
12.0
 20
9.0
  9
$ORTHOMODE
 70
     0
  9
$REGENMODE
 70
     1
  9
$FILLMODE
 70
     1
  9
$QTEXTMODE
 70
     0
  9
$MIRRTEXT
 70
     1
  9
$DRAGMODE
 70
     2
  9
$LTSCALE
 40
1.0
  9
$OSMODE
 70
     0
  9
$ATTMODE
 70
     1
  9
$TEXTSIZE
 40
0.2
  9
$TRACEWID
 40
0.05
  9
$TEXTSTYLE
  7
STANDARD
  9
$CLAYER
  8
0
  9
$CELTYPE
  6
BYLAYER
  9
$CECOLOR
 62
   256
  9
$DIMSCALE
 40
1.0
  9
$DIMASZ
 40
0.18
  9
$DIMEXO
 40
0.0625
  9
$DIMDLI
 40
0.38
  9
$DIMRND
 40
0.0
  9
$DIMDLE
 40
0.0
  9
$DIMEXE
 40
0.18
  9
$DIMTP
 40
0.0
  9
$DIMTM
 40
0.0
  9
$DIMTXT
 40
0.18
  9
$DIMCEN
 40
0.09
  9
$DIMTSZ
 40
0.0
  9
$DIMTOL
 70
     0
  9
$DIMLIM
 70
     0
  9
$DIMTIH
 70
     1
  9
$DIMTOH
 70
     1
  9
$DIMSE1
 70
     0
  9
$DIMSE2
 70
     0
  9
$DIMTAD
 70
     0
  9
$DIMZIN
 70
     0
  9
$DIMBLK
  1

  9
$DIMASO
 70
     1
  9
$DIMSHO
 70
     1
  9
$DIMPOST
  1

  9
$DIMAPOST
  1

  9
$DIMALT
 70
     0
  9
$DIMALTD
 70
     2
  9
$DIMALTF
 40
25.4
  9
$DIMLFAC
 40
1.0
  9
$DIMTOFL
 70
     0
  9
$DIMTVP
 40
0.0
  9
$DIMTIX
 70
     0
  9
$DIMSOXD
 70
     0
  9
$DIMSAH
 70
     0
  9
$DIMBLK1
  1

  9
$DIMBLK2
  1

  9
$DIMSTYLE
  2
*UNNAMED
  9
$DIMCLRD
 70
     0
  9
$DIMCLRE
 70
     0
  9
$DIMCLRT
 70
     0
  9
$DIMTFAC
 40
1.0
  9
$DIMGAP
 40
0.09
  9
$LUNITS
 70
     2
  9
$LUPREC
 70
     4
  9
$SKETCHINC
 40
0.1
  9
$FILLETRAD
 40
0.0
  9
$AUNITS
 70
     0
  9
$AUPREC
 70
     0
  9
$MENU
  1
acad
  9
$ELEVATION
 40
0.0
  9
$PELEVATION
 40
0.0
  9
$THICKNESS
 40
0.0
  9
$LIMCHECK
 70
     0
  9
$BLIPMODE
 70
     1
  9
$CHAMFERA
 40
0.0
  9
$CHAMFERB
 40
0.0
  9
$SKPOLY
 70
     0
  9
$TDCREATE
 40
2449314.260217291
  9
$TDUPDATE
 40
2449314.262069467
  9
$TDINDWG
 40
0.0018521759
  9
$TDUSRTIMER
 40
0.0018521759
  9
$USRTIMER
 70
     1
  9
$ANGBASE
 50
0.0
  9
$ANGDIR
 70
     0
  9
$PDMODE
 70
     0
  9
$PDSIZE
 40
0.0
  9
$PLINEWID
 40
0.0
  9
$COORDS
 70
     0
  9
$SPLFRAME
 70
     0
  9
$SPLINETYPE
 70
     6
  9
$SPLINESEGS
 70
     8
  9
$ATTDIA
 70
     0
  9
$ATTREQ
 70
     1
  9
$HANDLING
 70
     1
  9
$HANDSEED
  5
68
  9
$SURFTAB1
 70
     6
  9
$SURFTAB2
 70
     6
  9
$SURFTYPE
 70
     6
  9
$SURFU
 70
     6
  9
$SURFV
 70
     6
  9
$UCSNAME
  2

  9
$UCSORG
 10
0.0
 20
0.0
 30
0.0
  9
$UCSXDIR
 10
1.0
 20
0.0
 30
0.0
  9
$UCSYDIR
 10
0.0
 20
1.0
 30
0.0
  9
$PUCSNAME
  2

  9
$PUCSORG
 10
0.0
 20
0.0
 30
0.0
  9
$PUCSXDIR
 10
1.0
 20
0.0
 30
0.0
  9
$PUCSYDIR
 10
0.0
 20
1.0
 30
0.0
  9
$USERI1
 70
     0
  9
$USERI2
 70
     0
  9
$USERI3
 70
     0
  9
$USERI4
 70
     0
  9
$USERI5
 70
     0
  9
$USERR1
 40
0.0
  9
$USERR2
 40
0.0
  9
$USERR3
 40
0.0
  9
$USERR4
 40
0.0
  9
$USERR5
 40
0.0
  9
$WORLDVIEW
 70
     1
  9
$SHADEDGE
 70
     3
  9
$SHADEDIF
 70
    70
  9
$TILEMODE
 70
     1
  9
$MAXACTVP
 70
    16
  9
$PINSBASE
 10
0.0
 20
0.0
 30
0.0
  9
$PLIMCHECK
 70
     0
  9
$PEXTMIN
 10
1.000000E+20
 20
1.000000E+20
 30
1.000000E+20
  9
$PEXTMAX
 10
-1.000000E+20
 20
-1.000000E+20
 30
-1.000000E+20
  9
$PLIMMIN
 10
0.0
 20
0.0
  9
$PLIMMAX
 10
12.0
 20
9.0
  9
$UNITMODE
 70
     0
  9
$VISRETAIN
 70
     0
  9
$PLINEGEN
 70
     0
  9
$PSLTSCALE
 70
     0
  9
$TREEDEPTH
 70
  3020
  9
$DWGCODEPAGE
  3
undefined
  0
ENDSEC
  0
SECTION
  2
TABLES
  0
TABLE
  2
VPORT
 70
     2
  0
VPORT
  2
*ACTIVE
 70
     0
 10
0.0
 20
0.0
 11
1.0
 21
1.0
 12
7.176972
 22
4.5
 13
0.0
 23
0.0
 14
1.0
 24
1.0
 15
0.0
 25
0.0
 16
0.0
 26
0.0
 36
1.0
 17
0.0
 27
0.0
 37
0.0
 40
9.0
 41
1.594883
 42
50.0
 43
0.0
 44
0.0
 50
0.0
 51
0.0
 71
     0
 72
   100
 73
     1
 74
     1
 75
     0
 76
     0
 77
     0
 78
     0
  0
ENDTAB
  0
TABLE
  2
LTYPE
 70
     1
  0
LTYPE
  2
CONTINUOUS
 70
    64
  3
Solid line
 72
    65
 73
     0
 40
0.0
  0
ENDTAB
  0
TABLE
  2
LAYER
 70
     2
  0
LAYER
  2
0
 70
    64
 62
     7
  6
CONTINUOUS
  0
LAYER
  2
AME_FRZ
 70
    65
 62
     7
  6
CONTINUOUS
  0
ENDTAB
  0
TABLE
  2
STYLE
 70
     1
  0
STYLE
  2
STANDARD
 70
     0
 40
0.0
 41
1.0
 50
0.0
 71
     0
 42
0.2
  3
txt
  4

  0
ENDTAB
  0
TABLE
  2
VIEW
 70
     0
  0
ENDTAB
  0
TABLE
  2
UCS
 70
     0
  0
ENDTAB
  0
TABLE
  2
APPID
 70
     2
  0
APPID
  2
ACAD
 70
    64
  0
APPID
  2
AME_SOL
 70
    64
  0
ENDTAB
  0
TABLE
  2
DIMSTYLE
 70
     0
  0
ENDTAB
  0
ENDSEC
  0
SECTION
  2
BLOCKS
  0
BLOCK
  8
0
  5
1
  2
AME_NIL
 70
    64
 10
0.0
 20
0.0
 30
0.0
  1
AME_NIL
  3
AME_NIL
  0
ENDBLK
  8
0
  5
2
  0
BLOCK
  8
0
  5
4
  2
AME_SOL
 70
    64
 10
0.0
 20
0.0
 30
0.0
  1
AME_SOL
  3
AME_SOL
  0
ENDBLK
  8
0
  5
5
  0
BLOCK
  8
0
  5
7
  2
*U2
 70
    65
 10
0.0
 20
0.0
 30
0.0
  1
*U
  3
*U
  0
LINE
  8
0
 62
     0
  5
8
 10
5.0
 20
3.0
 30
0.0
 11
5.0
 21
3.0
 31
5.0
1001
AME_SOL
1070
     1
1071
       18
  0
LINE
  8
0
 62
     0
  5
9
 10
5.0
 20
3.0
 30
5.0
 11
5.0
 21
0.0
 31
5.0
1001
AME_SOL
1070
     1
1071
       17
  0
LINE
  8
0
 62
     0
  5
A
 10
0.0
 20
3.0
 30
5.0
 11
5.0
 21
3.0
 31
5.0
1001
AME_SOL
1070
     1
1071
       16
  0
LINE
  8
0
 62
     0
  5
B
 10
0.0
 20
3.0
 30
0.0
 11
0.0
 21
3.0
 31
5.0
1001
AME_SOL
1070
     1
1071
       15
  0
LINE
  8
0
 62
     0
  5
C
 10
0.0
 20
3.0
 30
5.0
 11
0.0
 21
0.0
 31
5.0
1001
AME_SOL
1070
     1
1071
       14
  0
LINE
  8
0
 62
     0
  5
D
 10
0.0
 20
0.0
 30
0.0
 11
0.0
 21
0.0
 31
5.0
1001
AME_SOL
1070
     1
1071
       13
  0
LINE
  8
0
 62
     0
  5
E
 10
5.0
 20
0.0
 30
5.0
 11
5.0
 21
0.0
 31
0.0
1001
AME_SOL
1070
     1
1071
       12
  0
LINE
  8
0
 62
     0
  5
F
 10
0.0
 20
0.0
 30
5.0
 11
5.0
 21
0.0
 31
5.0
1001
AME_SOL
1070
     1
1071
       11
  0
LINE
  8
0
 62
     0
  5
10
 10
0.0
 20
0.0
 30
0.0
 11
5.0
 21
0.0
 31
0.0
1001
AME_SOL
1070
     1
1071
       10
  0
LINE
  8
0
 62
     0
  5
11
 10
0.0
 20
3.0
 30
0.0
 11
0.0
 21
0.0
 31
0.0
1001
AME_SOL
1070
     1
1071
        9
  0
LINE
  8
0
 62
     0
  5
12
 10
5.0
 20
0.0
 30
0.0
 11
5.0
 21
3.0
 31
0.0
1001
AME_SOL
1070
     1
1071
        8
  0
LINE
  8
0
 62
     0
  5
13
 10
5.0
 20
3.0
 30
0.0
 11
0.0
 21
3.0
 31
0.0
1001
AME_SOL
1070
     1
1071
        7
  0
ENDBLK
  8
0
  5
14
  0
BLOCK
  8
0
  5
18
  2
*U3
 70
    65
 10
0.0
 20
0.0
 30
0.0
  1
*U
  3
*U
  0
LINE
  8
0
 62
     0
  5
19
 10
3.0
 20
1.0
 30
0.0
 11
3.0
 21
1.0
 31
5.0
1001
AME_SOL
1070
     1
1071
       18
  0
LINE
  8
0
 62
     0
  5
1A
 10
3.0
 20
1.0
 30
5.0
 11
3.0
 21
0.0
 31
5.0
1001
AME_SOL
1070
     1
1071
       17
  0
LINE
  8
0
 62
     0
  5
1B
 10
0.0
 20
1.0
 30
5.0
 11
3.0
 21
1.0
 31
5.0
1001
AME_SOL
1070
     1
1071
       16
  0
LINE
  8
0
 62
     0
  5
1C
 10
0.0
 20
1.0
 30
0.0
 11
0.0
 21
1.0
 31
5.0
1001
AME_SOL
1070
     1
1071
       15
  0
LINE
  8
0
 62
     0
  5
1D
 10
0.0
 20
1.0
 30
5.0
 11
0.0
 21
0.0
 31
5.0
1001
AME_SOL
1070
     1
1071
       14
  0
LINE
  8
0
 62
     0
  5
1E
 10
0.0
 20
0.0
 30
0.0
 11
0.0
 21
0.0
 31
5.0
1001
AME_SOL
1070
     1
1071
       13
  0
LINE
  8
0
 62
     0
  5
1F
 10
3.0
 20
0.0
 30
5.0
 11
3.0
 21
0.0
 31
0.0
1001
AME_SOL
1070
     1
1071
       12
  0
LINE
  8
0
 62
     0
  5
20
 10
0.0
 20
0.0
 30
5.0
 11
3.0
 21
0.0
 31
5.0
1001
AME_SOL
1070
     1
1071
       11
  0
LINE
  8
0
 62
     0
  5
21
 10
0.0
 20
0.0
 30
0.0
 11
3.0
 21
0.0
 31
0.0
1001
AME_SOL
1070
     1
1071
       10
  0
LINE
  8
0
 62
     0
  5
22
 10
0.0
 20
1.0
 30
0.0
 11
0.0
 21
0.0
 31
0.0
1001
AME_SOL
1070
     1
1071
        9
  0
LINE
  8
0
 62
     0
  5
23
 10
3.0
 20
0.0
 30
0.0
 11
3.0
 21
1.0
 31
0.0
1001
AME_SOL
1070
     1
1071
        8
  0
LINE
  8
0
 62
     0
  5
24
 10
3.0
 20
1.0
 30
0.0
 11
0.0
 21
1.0
 31
0.0
1001
AME_SOL
1070
     1
1071
        7
  0
ENDBLK
  8
0
  5
25
  0
BLOCK
  8
0
  5
29
  2
*U4
 70
    65
 10
0.0
 20
0.0
 30
0.0
  1
*U
  3
*U
  0
LINE
  8
0
 62
     0
  5
2A
 10
1.0
 20
1.0
 30
0.0
 11
1.0
 21
1.0
 31
5.0
1001
AME_SOL
1070
     1
1071
       18
  0
LINE
  8
0
 62
     0
  5
2B
 10
1.0
 20
1.0
 30
5.0
 11
1.0
 21
0.0
 31
5.0
1001
AME_SOL
1070
     1
1071
       17
  0
LINE
  8
0
 62
     0
  5
2C
 10
0.0
 20
1.0
 30
5.0
 11
1.0
 21
1.0
 31
5.0
1001
AME_SOL
1070
     1
1071
       16
  0
LINE
  8
0
 62
     0
  5
2D
 10
0.0
 20
1.0
 30
0.0
 11
0.0
 21
1.0
 31
5.0
1001
AME_SOL
1070
     1
1071
       15
  0
LINE
  8
0
 62
     0
  5
2E
 10
0.0
 20
1.0
 30
5.0
 11
0.0
 21
0.0
 31
5.0
1001
AME_SOL
1070
     1
1071
       14
  0
LINE
  8
0
 62
     0
  5
2F
 10
0.0
 20
0.0
 30
0.0
 11
0.0
 21
0.0
 31
5.0
1001
AME_SOL
1070
     1
1071
       13
  0
LINE
  8
0
 62
     0
  5
30
 10
1.0
 20
0.0
 30
5.0
 11
1.0
 21
0.0
 31
0.0
1001
AME_SOL
1070
     1
1071
       12
  0
LINE
  8
0
 62
     0
  5
31
 10
0.0
 20
0.0
 30
5.0
 11
1.0
 21
0.0
 31
5.0
1001
AME_SOL
1070
     1
1071
       11
  0
LINE
  8
0
 62
     0
  5
32
 10
0.0
 20
0.0
 30
0.0
 11
1.0
 21
0.0
 31
0.0
1001
AME_SOL
1070
     1
1071
       10
  0
LINE
  8
0
 62
     0
  5
33
 10
0.0
 20
1.0
 30
0.0
 11
0.0
 21
0.0
 31
0.0
1001
AME_SOL
1070
     1
1071
        9
  0
LINE
  8
0
 62
     0
  5
34
 10
1.0
 20
0.0
 30
0.0
 11
1.0
 21
1.0
 31
0.0
1001
AME_SOL
1070
     1
1071
        8
  0
LINE
  8
0
 62
     0
  5
35
 10
1.0
 20
1.0
 30
0.0
 11
0.0
 21
1.0
 31
0.0
1001
AME_SOL
1070
     1
1071
        7
  0
ENDBLK
  8
0
  5
36
  0
BLOCK
  8
0
  5
3C
  2
*U5
 70
    65
 10
0.0
 20
0.0
 30
0.0
  1
*U
  3
*U
  0
LINE
  8
0
 62
     7
  5
3D
 10
5.0
 20
3.0
 30
0.0
 11
5.0
 21
3.0
 31
5.0
1001
AME_SOL
1070
     1
1071
       48
  0
LINE
  8
0
 62
     7
  5
3E
 10
5.0
 20
3.0
 30
5.0
 11
5.0
 21
0.0
 31
5.0
1001
AME_SOL
1070
     1
1071
       47
  0
LINE
  8
0
 62
     7
  5
3F
 10
3.0
 20
3.0
 30
5.0
 11
5.0
 21
3.0
 31
5.0
1001
AME_SOL
1070
     1
1071
       46
  0
LINE
  8
0
 62
     7
  5
40
 10
0.0
 20
3.0
 30
5.0
 11
2.0
 21
3.0
 31
5.0
1001
AME_SOL
1070
     1
1071
       45
  0
LINE
  8
0
 62
     7
  5
41
 10
0.0
 20
3.0
 30
0.0
 11
0.0
 21
3.0
 31
5.0
1001
AME_SOL
1070
     1
1071
       44
  0
LINE
  8
0
 62
     7
  5
42
 10
0.0
 20
3.0
 30
5.0
 11
0.0
 21
0.0
 31
5.0
1001
AME_SOL
1070
     1
1071
       43
  0
LINE
  8
0
 62
     7
  5
43
 10
0.0
 20
0.0
 30
0.0
 11
0.0
 21
0.0
 31
5.0
1001
AME_SOL
1070
     1
1071
       42
  0
LINE
  8
0
 62
     7
  5
44
 10
5.0
 20
0.0
 30
5.0
 11
5.0
 21
0.0
 31
0.0
1001
AME_SOL
1070
     1
1071
       41
  0
LINE
  8
0
 62
     7
  5
45
 10
0.0
 20
0.0
 30
5.0
 11
5.0
 21
0.0
 31
5.0
1001
AME_SOL
1070
     1
1071
       40
  0
LINE
  8
0
 62
     7
  5
46
 10
0.0
 20
0.0
 30
0.0
 11
5.0
 21
0.0
 31
0.0
1001
AME_SOL
1070
     1
1071
       39
  0
LINE
  8
0
 62
     7
  5
47
 10
0.0
 20
3.0
 30
0.0
 11
0.0
 21
0.0
 31
0.0
1001
AME_SOL
1070
     1
1071
       38
  0
LINE
  8
0
 62
     7
  5
48
 10
5.0
 20
0.0
 30
0.0
 11
5.0
 21
3.0
 31
0.0
1001
AME_SOL
1070
     1
1071
       37
  0
LINE
  8
0
 62
     7
  5
49
 10
2.0
 20
3.0
 30
0.0
 11
0.0
 21
3.0
 31
0.0
1001
AME_SOL
1070
     1
1071
       36
  0
LINE
  8
0
 62
     7
  5
4A
 10
5.0
 20
3.0
 30
0.0
 11
3.0
 21
3.0
 31
0.0
1001
AME_SOL
1070
     1
1071
       35
  0
LINE
  8
0
 62
     7
  5
4B
 10
4.0
 20
2.0
 30
0.0
 11
4.0
 21
1.0
 31
0.0
1001
AME_SOL
1070
     1
1071
       34
  0
LINE
  8
0
 62
     7
  5
4C
 10
4.0
 20
1.0
 30
5.0
 11
4.0
 21
2.0
 31
5.0
1001
AME_SOL
1070
     1
1071
       33
  0
LINE
  8
0
 62
     7
  5
4D
 10
3.0
 20
2.0
 30
0.0
 11
4.0
 21
2.0
 31
0.0
1001
AME_SOL
1070
     1
1071
       32
  0
LINE
  8
0
 62
     7
  5
4E
 10
1.0
 20
2.0
 30
0.0
 11
2.0
 21
2.0
 31
0.0
1001
AME_SOL
1070
     1
1071
       31
  0
LINE
  8
0
 62
     7
  5
4F
 10
2.0
 20
2.0
 30
5.0
 11
1.0
 21
2.0
 31
5.0
1001
AME_SOL
1070
     1
1071
       30
  0
LINE
  8
0
 62
     7
  5
50
 10
4.0
 20
2.0
 30
5.0
 11
3.0
 21
2.0
 31
5.0
1001
AME_SOL
1070
     1
1071
       29
  0
LINE
  8
0
 62
     7
  5
51
 10
4.0
 20
2.0
 30
0.0
 11
4.0
 21
2.0
 31
5.0
1001
AME_SOL
1070
     1
1071
       28
  0
LINE
  8
0
 62
     7
  5
52
 10
1.0
 20
1.0
 30
0.0
 11
1.0
 21
2.0
 31
0.0
1001
AME_SOL
1070
     1
1071
       27
  0
LINE
  8
0
 62
     7
  5
53
 10
1.0
 20
2.0
 30
5.0
 11
1.0
 21
1.0
 31
5.0
1001
AME_SOL
1070
     1
1071
       26
  0
LINE
  8
0
 62
     7
  5
54
 10
1.0
 20
2.0
 30
0.0
 11
1.0
 21
2.0
 31
5.0
1001
AME_SOL
1070
     1
1071
       25
  0
LINE
  8
0
 62
     7
  5
55
 10
4.0
 20
1.0
 30
0.0
 11
1.0
 21
1.0
 31
0.0
1001
AME_SOL
1070
     1
1071
       24
  0
LINE
  8
0
 62
     7
  5
56
 10
1.0
 20
1.0
 30
0.0
 11
1.0
 21
1.0
 31
5.0
1001
AME_SOL
1070
     1
1071
       23
  0
LINE
  8
0
 62
     7
  5
57
 10
1.0
 20
1.0
 30
5.0
 11
4.0
 21
1.0
 31
5.0
1001
AME_SOL
1070
     1
1071
       22
  0
LINE
  8
0
 62
     7
  5
58
 10
4.0
 20
1.0
 30
5.0
 11
4.0
 21
1.0
 31
0.0
1001
AME_SOL
1070
     1
1071
       21
  0
LINE
  8
0
 62
     7
  5
59
 10
3.0
 20
3.0
 30
0.0
 11
3.0
 21
2.0
 31
0.0
1001
AME_SOL
1070
     1
1071
       20
  0
LINE
  8
0
 62
     7
  5
5A
 10
3.0
 20
3.0
 30
5.0
 11
3.0
 21
3.0
 31
0.0
1001
AME_SOL
1070
     1
1071
       19
  0
LINE
  8
0
 62
     7
  5
5B
 10
3.0
 20
2.0
 30
5.0
 11
3.0
 21
3.0
 31
5.0
1001
AME_SOL
1070
     1
1071
       18
  0
LINE
  8
0
 62
     7
  5
5C
 10
3.0
 20
2.0
 30
5.0
 11
3.0
 21
2.0
 31
0.0
1001
AME_SOL
1070
     1
1071
       17
  0
LINE
  8
0
 62
     7
  5
5D
 10
2.0
 20
2.0
 30
0.0
 11
2.0
 21
3.0
 31
0.0
1001
AME_SOL
1070
     1
1071
       16
  0
LINE
  8
0
 62
     7
  5
5E
 10
2.0
 20
3.0
 30
0.0
 11
2.0
 21
3.0
 31
5.0
1001
AME_SOL
1070
     1
1071
       15
  0
LINE
  8
0
 62
     7
  5
5F
 10
2.0
 20
3.0
 30
5.0
 11
2.0
 21
2.0
 31
5.0
1001
AME_SOL
1070
     1
1071
       14
  0
LINE
  8
0
 62
     7
  5
60
 10
2.0
 20
2.0
 30
0.0
 11
2.0
 21
2.0
 31
5.0
1001
AME_SOL
1070
     1
1071
       13
  0
ENDBLK
  8
0
  5
61
  0
BLOCK
  8
0
  5
65
  2
AME_MAT
 70
    64
 10
0.0
 20
0.0
 30
0.0
  1
AME_MAT
  3
AME_MAT
  0
ENDBLK
  8
0
  5
66
  0
ENDSEC
  0
SECTION
  2
ENTITIES
  0
INSERT
  8
AME_FRZ
  5
3
  2
AME_NIL
 10
0.0
 20
0.0
 30
0.0
  0
INSERT
  8
AME_FRZ
  5
6
  2
AME_SOL
 10
0.0
 20
0.0
 30
0.0
1001
AME_SOL
1000
1.0
1000
sq cm
1070
     3
1070
     0
1070
     3
1000
wire
1040
0.0
1000
NONE
1040
1.0
1000
cm
1000
gm
1000
MILD_STEEL
1070
    25
1000
CSG
1070
     3
1070
     2
1070
     3
1000
cu cm
1070
     4
1070
     0
1005
3
  0
INSERT
  8
AME_FRZ
  5
15
  2
*U2
 10
0.0
 20
0.0
 30
0.0
1001
AME_SOL
1002
{
1070
     0
1071
  1858888
1070
  1536
1010
5.0
1020
3.0
1030
5.0
1005
0
1005
0
1005
62
1040
0.0
1040
1.0
1000
MILD_STEEL
1000
0
1010
0.0
1020
0.0
1030
0.0
1010
0.0
1020
0.0
1030
1.0
1040
0.0
1002
}
  0
INSERT
  8
AME_FRZ
  5
26
  2
*U3
 10
1.0
 20
1.0
 30
0.0
1001
AME_SOL
1002
{
1070
     0
1071
  1923032
1070
  1536
1010
3.0
1020
1.0
1030
5.0
1005
0
1005
0
1005
3A
1040
0.0
1040
1.0
1000
MILD_STEEL
1000
0
1010
1.0
1020
1.0
1030
0.0
1010
0.0
1020
0.0
1030
1.0
1040
0.0
1002
}
  0
INSERT
  8
AME_FRZ
  5
37
  2
*U4
 10
2.0
 20
2.0
 30
0.0
1001
AME_SOL
1002
{
1070
     0
1071
  1928872
1070
  1536
1010
1.0
1020
1.0
1030
5.0
1005
0
1005
0
1005
3A
1040
0.0
1040
1.0
1000
MILD_STEEL
1000
0
1010
2.0
1020
2.0
1030
0.0
1010
0.0
1020
0.0
1030
1.0
1040
0.0
1002
}
  0
INSERT
  8
AME_FRZ
  5
3A
  2
AME_NIL
 10
0.0
 20
0.0
 30
0.0
1001
AME_SOL
1002
{
1070
     0
1071
  1957232
1070
   775
1070
     2
1005
26
1005
37
1005
0
1005
0
1005
62
1040
0.0
1040
1.0
1000
MILD_STEEL
1000
0
1010
0.0
1020
0.0
1030
0.0
1010
0.0
1020
0.0
1030
1.0
1040
0.0
1002
}
  0
INSERT
  8
0
  5
62
  2
*U5
 10
0.0
 20
0.0
 30
0.0
1001
AME_SOL
1002
{
1070
     0
1071
  1977088
1070
  1543
1070
     0
1005
15
1005
3A
1005
0
1005
63
1005
0
1040
0.0
1040
1.0
1000
MILD_STEEL
1000
0
1002
}
  0
INSERT
  8
AME_FRZ
  5
63
  2
AME_NIL
 10
1.0
 20
1.0
 30
1.0
1001
AME_SOL
1004
E903A9FB0100F0FFFFFF000052F70C0001000000F2CB75BAF2CB75BAF2CB75BAAE07A0405D0F4040AE07A04001000000FBF2040037EBFF3F37EBFF3FE14626BA650A0040640A40403205A0400100844E60511E00FFFF0000010030010000844E000000000000000000000000803F000000000000803F0000
1004
000000000040000000400000000005000000000000000000000000000000000000000000844E000000000000000000000000803F000000000000803F00000000000000400000004000000000050000000000000000000000000000000000FFFFFFFFFBF204009CF53F4037EBFF3FE14626BA640A4040640A
1004
40403205A0400100844E00701E00FFFF000001002D010000844E000000000080000080BF000000800000008000000080000080BF00004040000040400000A04005000000000000000000000000000000000000000000844E000000000080000080BF000000800000008000000080000080BF000040400000
1004
40400000A040050000000000000000000000000000000000FFFFFFFFFBF20400ACD07F3FACD07F3F87503DBAEA058040AA17803FEB05A0400100844EF0701E00FFFF0000010095010000844E00000000803F000000000000000000000000000000000000803F0000803F0000803F00000000050000000000
1004
00000000000000000000000000000000844E00000000803F000000000000000000000000000000000000803F0000803F0000803F00000000050000000000000000000000000000000000FFFFFFFFFBF20400ACD07F3FACD07F3F87503DBAAA17803FD50B0040EB05A0400100844EE0711E00FFFF00000100
1004
94010000844E000000000000000000000000803F000000000000803F000000000000803F0000803F0000000005000000000000000000000000000000000000000000844E000000000000000000000000803F000000000000803F000000000000803F0000803F000000000500000000000000000000000000
1004
00000000FFFFFFFFFBF20800ACD07F3F55E8FF3F87503DBAEA058040D50B0040EB05A0400100844ED0721E00FFFF0000010092010000844E00000000008000000080000080BF000080BF000000800000008000008040000000400000A04005000000000000000000000000000000000000000000844E0000
1004
0000008000000080000080BF000080BF000000800000008000008040000000400000A040050000000000000000000000000000000000FFFFFFFFFBF204002BF47F40ACD07F3F87503DBAEA058040D50B0040EB05A0400100844EB0FC1D00FFFF0000010091010000844E000000000080000080BF00000080
1004
0000008000000080000080BF00008040000000400000A04005000000000000000000000000000000000000000000844E000000000080000080BF000000800000008000000080000080BF00008040000000400000A040050000000000000000000000000000000000FFFFFFFFFBF20C00F2CB75BAF2CB75BA
1004
F2CB75BAAE07A0405D0F4040F2CB753A0100844E88FD1D00010000000100FA010000844E0000000000000000803F000000000000803F000000000000000000000000000000000000000005000000000000000000000000000000000000000000844E0000000000000000803F000000000000803F00000000
1004
0000000000000000000000000000000005000000000000000000000000000000000001000000FBF20400F2CB75BAF2CB75BAF2CB75BAAE07A040F2CB753AAE07A0400100844E90EB1D00010000000100F9010000844E00000000803F000000000000000000000000000000000000803F0000000000000000
1004
0000000005000000000000000000000000000000000000000000844E00000000803F000000000000000000000000000000000000803F00000000000000000000000005000000000000000000000000000000000001000000FBF20400F2CB75BAF2CB75BAF2CB75BAF2CB753A5D0F4040AE07A0400100844E
1004
D0ED1D00010000000100F8010000844E000000000000000000000000803F000000000000803F0000000000000000000000000000000005000000000000000000000000000000000000000000844E000000000000000000000000803F000000000000803F0000000000000000000000000000000005000000
1004
000000000000000000000000000001000000FBF20C00F2CB75BAF2CB75BA52F89F40AE07A0405D0F4040AE07A0400100844EB0EC1D00010000000100F7010000844E0000000080BF000000800000008000000080000080BF000000800000A040000040400000A04005000000000000000000000000000000
1004
000000000000844E0000000080BF000000800000008000000080000080BF000000800000A040000040400000A04005000000000000000000000000000000000001000000FBF20800F2CB75BAA4F03F40F2CB75BAAE07A0405D0F4040AE07A0400100844ED8DB1D00010000000100F6010000844E00000000
1004
008000000080000080BF000080BF00000080000000800000A040000040400000A04005000000000000000000000000000000000000000000844E00000000008000000080000080BF000080BF00000080000000800000A040000040400000A04005000000000000000000000000000000000001000000FBF2
1004
040052F89F40F2CB75BAF2CB75BAAE07A0405D0F4040AE07A0400100844E68D21D00010000000100F5010000844E000000000080000080BF000000800000008000000080000080BF0000A040000040400000A04005000000000000000000000000000000000000000000844E000000000080000080BF0000
1004
00800000008000000080000080BF0000A040000040400000A04005000000000000000000000000000000000001000000A4EE37EBFF3F37EBFF3FE14626BA650A0040D50B00403205A040000020C00000204002009675A8D51D000000FFFF010060511E00D0721E000000020060511E00D0721E00FFFFFFFF
1004
FFFFFFFF96750000000000000000803F00000000000080BF00000000000000000000004000000040000020400200000020C000002040A4EE37EBFF3F37EBFF3F52F89F40650A0040640A40403205A040020000BFFFFFFF3E0200967558D71D0000000100FFFF60511E00B0EC1D0000000200B0EC1D006051
1004
1E0001000000FFFFFFFF9675000000000000000000000000803F000080BF0000000000000000FFFFFF3F000020400000A0400200020000BFFFFFFF3EA4EE37EBFF3FA4F03F40E14626BA650A0040640A40403205A040000020C0000020400200967508D91D0000000100FFFF60511E00D8DB1D0000000200
1004
D8DB1D0060511E0001000000FFFFFFFF96750000000000000000803F00000000000080BF00000000000000000000004000004040000020400200000020C000002040A4EE37EBFF3F37EBFF3FE14626BA650A0040640A4040F2CB753A0000803F0100004002009675B8DA1D0000000100FFFF60511E0088FD
1004
1D000000020088FD1D0060511E0001000000FFFFFFFF967500000000000000000000000080BF000080BF0000000000000000000000400000803F0000000002000000803F01000040A4EE9CF53F4037EBFF3FE14626BA640A4040D50B00403205A040000000000000A0400200967538E01D000000FFFF0100
1004
00701E00D0721E000000020000701E00D0721E00FFFFFFFFFFFFFFFF96750000000000000000803F000000000000803F000000800000000000004040000000400000A0400200000000000000A040A4EE9CF53F4037EBFF3F52F89F40640A4040640A40403205A040010080BF0000008002009675E8E11D00
1004
00000100FFFF00701E00B0EC1D0000000200B0EC1D0000701E0001000000FFFFFFFF9675000000000000000000000000803F0000803F000000000000000000004040000040400000A0400200010080BF00000080A4EE9CF53F40A4F03F40E14626BA640A4040640A40403205A040000000000000A0400200
1004
967528E41D0000000100FFFF00701E00D8DB1D0000000200D8DB1D0000701E0001000000FFFFFFFF96750000000000000000803F000000000000803F000000800000000000004040000040400000A0400200000000000000A040A4EE9CF53F4037EBFF3FE14626BA640A4040640A4040F2CB753A0000C0BF
1004
FFFFFFBE0200967520E61D0000000100FFFF00701E0088FD1D000000020088FD1D0000701E0001000000FFFFFFFF967500000000000000000000000080BF0000803F0000000000000000000040400000C03F0000000002000000C0BFFFFFFFBEA4EE2BF47F40ACD07F3F87503DBAEA058040AA17803FEB05
1004
A040000020C0000020400200967570E41D0000000100FFFFF0701E00B0FC1D0000000200B0FC1D00F0701E00FFFFFFFFFFFFFFFF967500000000803F000000000000000000000000000080BF00000000000080400000803F000020400200000020C000002040A4EEACD07F3FACD07F3F52F89F40EA058040
1004
AA17803FEB05A040010000C0FFFF7F3F0200967530E21D0000000100FFFFF0701E00B0EC1D0000000200B0EC1D00F0701E0001000000FFFFFFFF9675000000000000000000000000803F00000000000080BF0000000000004040FFFF7F3F0000A0400200010000C0FFFF7F3FA4EEACD07F3FACD07F3F8750
1004
3DBAAA17803FAA17803FEB05A040000000000000A04002009675F0DF1D0000000100FFFFF0701E00E0711E0000000200E0711E00F0701E00FFFFFFFFFFFFFFFF96750000000080BF000000000000000000000000000080BF000000000000803F0000803F000000000200000000000000A040A4EEACD07F3F
1004
ACD07F3F87503DBAEA058040AA17803FF2CB753A000060C0000000BF0200967548DB1D0000000100FFFFF0701E0088FD1D000000020088FD1D00F0701E0001000000FFFFFFFF967500000000000000000000000080BF00000000000080BF000000000000003F0000803F000000000200000060C0000000BF
1004
A4EEACD07F3F55E8FF3F87503DBAAA17803FD50B0040EB05A040000020C00000204002009675A0D71D0000000100FFFFE0711E00D0721E0000000200D0721E00E0711E00FFFFFFFFFFFFFFFF96750000000000000000803F00000000000080BF00000000000000000000803F000000400000204002000000
1004
20C000002040A4EEACD07F3FACD07F3F52F89F40AA17803FD50B0040EB05A040000000000000803F0200967518D51D0000000100FFFFE0711E00B0EC1D0000000200B0EC1D00E0711E0001000000FFFFFFFF9675000000000000000000000000803F000080BF0000000000000000FFFF7F3F000000400000
1004
A0400200000000000000803FA4EEACD07F3FACD07F3F87503DBAAA17803FD50B0040F2CB753A0000003F0000C03F02009675E0F41D0000000100FFFFE0711E0088FD1D000000020088FD1D00E0711E0001000000FFFFFFFF967500000000000000000000000080BF000080BF00000000000000000000803F
1004
0000003F0000000002000000003F0000C03FA4EE2BF47F4055E8FF3F87503DBAEA058040D50B0040EB05A0400000A0C00000008002009675F8F71D0000000100FFFFD0721E00B0FC1D0000000200B0FC1D00D0721E00FFFFFFFFFFFFFFFF967500000000803F0000000000000000000000000000803F0000
1004
000000008040000000400000A04002000000A0C000000080A4EEACD07F3F55E8FF3F52F89F40EA058040D50B0040EB05A040FAFFFF3EFEFFBF3F0200967548F71D0000000100FFFFD0721E00B0EC1D0000000200B0EC1D00D0721E0001000000FFFFFFFF9675000000000000000000000000803F00000000
1004
0000803F0000008000009040000000400000A0400200FAFFFF3EFEFFBF3FA4EEACD07F3F55E8FF3F52F89F40EA058040D50B0040EB05A040FFFF1F40000060400200967518F01D0000000100FFFFD0721E00B0EC1D0000000200B0EC1D00D0721E0001000000FFFFFFFF9675000000000000000000000000
1004
803F000000000000803F0000008000009040000000400000A0400200FFFF1F4000006040A4EEACD07F3F55E8FF3F87503DBAEA058040D50B0040F2CB753A000080BF0000000002009675A8031E0000000100FFFFD0721E0088FD1D000000020088FD1D00D0721E0001000000FFFFFFFF9675000000000000
1004
00000000000080BF000000000000803F000000000000004000000040000000000200000080BF00000000A4EEACD07F3F55E8FF3F87503DBAEA058040D50B0040F2CB753A0100803F0000004002009675D8711D0000000100FFFFD0721E0088FD1D000000020088FD1D00D0721E0001000000FFFFFFFF9675
1004
00000000000000000000000080BF000000000000803F0000000000000040000000400000000002000100803F00000040A4EE2BF47F40ACD07F3F52F89F40EA058040D50B0040EB05A0400000C0BFFFFFFFBE0200967588731D0000000100FFFFB0FC1D00B0EC1D0000000200B0EC1D00B0FC1D0001000000
1004
FFFFFFFF9675000000000000000000000000803F0000803F000000000000000000008040000020400000A04002000000C0BFFFFFFFBEA4EE2BF47F40ACD07F3F87503DBAEA058040D50B0040F2CB753A000080BF000000800200967520741D0000000100FFFFB0FC1D0088FD1D000000020088FD1D00B0FC
1004
1D0001000000FFFFFFFF967500000000000000000000000080BF0000803F0000000000000000000080400000803F000000000200000080BF00000080A4EEF2CB75BAA4F03F40F2CB75BAAE07A0405D0F4040F2CB753A000020C0020000BF02009675487D1D000000FFFF010088FD1D00D8DB1D0000000200
1004
88FD1D00D8DB1D00010000000100000096750000000000000000803F000000000000000000000000000080BF0000204000004040000000000200000020C0020000BFA4EEF2CB75BAA4F03F40F2CB75BAAE07A0405D0F4040F2CB753AFFFFFF3E000020400200967510821D000000FFFF010088FD1D00D8DB
1004
1D000000020088FD1D00D8DB1D00010000000100000096750000000000000000803F000000000000000000000000000080BF0000204000004040000000000200FFFFFF3E00002040A4EE52F89F40F2CB75BAF2CB75BAAE07A0405D0F4040F2CB753A0000C0BF0000C03F0200967548861D000000FFFF0100
1004
88FD1D0068D21D000000020088FD1D0068D21D000100000001000000967500000000803F00000000000000000000000000000000000080BF0000A0400000C03F0000000002000000C0BF0000C03FA4EEF2CB75BAF2CB75BAF2CB75BAF2CB753A5D0F4040F2CB753A000040C00000008002009675D8861D00
1004
0000FFFF010088FD1D00D0ED1D000000020088FD1D00D0ED1D00010000000100000096750000000080BF00000000000000000000000000000000000080BF0000000000000000000000000200000040C000000080A4EEF2CB75BAF2CB75BAF2CB75BAAE07A040F2CB753AF2CB753A000000000000A0400200
1004
967548851D000000FFFF010088FD1D0090EB1D000000020088FD1D0090EB1D0001000000010000009675000000000000000080BF000000000000000000000000000080BF0000000000000000000000000200000000000000A040A4EEF2CB75BAF2CB75BA52F89F40AE07A040F2CB753AAE07A040000020C0
1004
0000204002009675B0871D000000FFFF010090EB1D00B0EC1D000000020090EB1D00B0EC1D0001000000010000009675000000000000000000000000803F00000000000080BF0000000000002040000000000000A0400200000020C000002040A4EE52F89F40F2CB75BAF2CB75BAAE07A040F2CB753AAE07
1004
A040000020C00000204002009675508B1D000000FFFF010090EB1D0068D21D000000020090EB1D0068D21D000100000001000000967500000000803F000000000000000000000000000080BF000000000000A04000000000000020400200000020C000002040A4EEF2CB75BAF2CB75BAF2CB75BAF2CB753A
1004
F2CB753AAE07A040000000000000A04002009675708C1D000000FFFF010090EB1D00D0ED1D000000020090EB1D00D0ED1D00010000000100000096750000000080BF000000000000000000000000000080BF000000000000000000000000000000000200000000000000A040A4EEF2CB75BAF2CB75BA52F8
1004
9F40F2CB753A5D0F4040AE07A0400000C0BF0000C03F0200967588941D000000FFFF0100D0ED1D00B0EC1D0000000200D0ED1D00B0EC1D0001000000010000009675000000000000000000000000803F000080BF0000000000000000000000000000C03F0000A04002000000C0BF0000C03FA4EEF2CB75BA
1004
A4F03F40F2CB75BAF2CB753A5D0F4040AE07A040000020C0000020400200967560951D000000FFFF0100D0ED1D00D8DB1D0000000200D0ED1D00D8DB1D00010000000100000096750000000000000000803F00000000000080BF00000000000000000000000000004040000020400200000020C000002040
1004
A4EEF2CB75BAA4F03F4052F89F40AE07A0405D0F4040AE07A0400000A0C0000040C002009675D8921D000000FFFF0100B0EC1D00D8DB1D0000000200B0EC1D00D8DB1D00010000000100000096750000000000000000803F0000000000000000000000000000803F0000A040000040400000A04002000000
1004
A0C0000040C0A4EEF2CB75BAA4F03F4052F89F40AE07A0405D0F4040AE07A040FFFFFFBF000000800200967550A31D000000FFFF0100B0EC1D00D8DB1D0000000200B0EC1D00D8DB1D00010000000100000096750000000000000000803F0000000000000000000000000000803F0000A040000040400000
1004
A0400200FFFFFFBF00000080A4EE52F89F40F2CB75BA52F89F40AE07A0405D0F4040AE07A04000000000000040400200967528A41D000000FFFF0100B0EC1D0068D21D0000000200B0EC1D0068D21D000100000001000000967500000000803F000000000000000000000080000000000000803F0000A040
1004
000040400000A04002000000000000004040A4EE52F89F40A4F03F40F2CB75BAAE07A0405D0F4040AE07A0400000A0C00000008002009675D8A51D000000FFFF0100D8DB1D0068D21D0000000200D8DB1D0068D21D000100000001000000967500000000803F0000000000000000000000000000803F0000
1004
00000000A040000040400000A04002000000A0C00000008019FC
1005
64
  0
INSERT
  8
AME_FRZ
  5
64
  2
AME_NIL
 10
1.0
 20
1.0
 30
1.0
1001
AME_SOL
1004

1005
0
  0
INSERT
  8
AME_FRZ
  5
67
  2
AME_MAT
 10
0.0
 20
0.0
 30
0.0
1001
AME_SOL
1000
MILD_STEEL
1040
7860.0
1040
220.0
1040
0.275
1040
207.0
1040
345.0
1040
56.0
1040
12.0
1040
0.46
  0
ENDSEC
  0
EOF
