500 0 1 0           
7 Unknown 13 ACIS 5.0.1 NT 24 Wed Jun 16 13:40:53 1999 
25.400000000000002 9.9999999999999995e-007 1e-010 
body $-1 $1 $-1 $2 #
lump $-1 $-1 $3 $0 #
transform $-1 1 0 0 0 1 0 0 0 1 0.31048672138100319 -0.1403211890561904 -0.1701655323248128 39.370078740157474 no_rotate no_reflect no_shear #
shell $-1 $-1 $-1 $4 $-1 $1 #
face $-1 $5 $6 $3 $-1 $7 forward single #
face $-1 $8 $9 $3 $-1 $10 forward single #
loop $-1 $11 $12 $4 #
torus-surface $-1 0 2.1773500970961873e-019 0.0086360000000000117 0 6.1230317691118863e-017 1 0.049276000000000014 0.0015240000000000002 1 0 0 forward_v I I I I #
face $-1 $13 $14 $3 $-1 $15 forward single #
loop $-1 $16 $17 $5 #
plane-surface $-1 -0.040513000000000007 0 0.010160000000000011 0 6.1230317691118863e-017 1 1 0 0 forward_v I I I I #
loop $-1 $-1 $18 $4 #
coedge $-1 $12 $12 $19 $20 forward $6 $-1 #
face $-1 $21 $22 $3 $-1 $23 forward single #
loop $-1 $24 $25 $8 #
cone-surface $-1 0 0 0.0050800000000000107 0 6.1230317691118863e-017 1 -0.050800000000000012 0 0 1 I I 0 1 0.050800000000000012 forward I I I I #
loop $-1 $26 $27 $5 #
coedge $-1 $17 $17 $28 $29 reversed $9 $-1 #
coedge $-1 $18 $18 $30 $31 forward $11 $-1 #
coedge $-1 $19 $19 $12 $20 reversed $24 $-1 #
edge $32 $33 -3.141592653589814 $33 3.1415926535897865 $19 $34 forward 7 unknown #
face $-1 $35 $36 $3 $-1 $37 forward single #
loop $-1 $38 $28 $13 #
torus-surface $-1 0 -1.3841725617254325e-018 0.01168400000000001 0 6.1230317691118863e-017 1 0.03175 -0.0015240000000000002 1 0 0 forward_v I I I I #
loop $-1 $-1 $19 $8 #
coedge $-1 $25 $25 $39 $40 forward $14 $-1 #
loop $-1 $41 $42 $5 #
coedge $-1 $27 $27 $43 $44 forward $16 $-1 #
coedge $-1 $28 $28 $17 $29 forward $22 $-1 #
edge $45 $46 -3.141592653589814 $46 3.1415926535897865 $17 $47 forward 7 unknown #
coedge $-1 $30 $30 $18 $31 reversed $48 $-1 #
edge $49 $50 -3.141592653589814 $50 3.1415926535897865 $30 $51 forward 7 unknown #
ptlist-eye-attrib $-1 $-1 $-1 $20 #
vertex $-1 $20 $52 #
ellipse-curve $-1 0 2.1773500970961873e-019 0.0086360000000000117 0 6.1230317691118863e-017 1 0.050800000000000012 3.5442365947484241e-016 0 1 I I #
face $-1 $53 $54 $3 $-1 $55 reversed single #
loop $-1 $56 $57 $21 #
cone-surface $-1 0 0 0.034290000000000001 0 6.1230317691118863e-017 1 -0.030225999999999999 0 0 1 I I 0 1 0.030225999999999999 forward I I I I #
loop $-1 $-1 $58 $13 #
coedge $-1 $39 $39 $25 $40 reversed $59 $-1 #
edge $60 $61 3.6031417132937814e-034 $61 6.2831853071796004 $25 $62 forward 7 unknown #
loop $-1 $63 $64 $5 #
coedge $-1 $42 $42 $65 $66 forward $26 $-1 #
coedge $-1 $43 $43 $27 $44 reversed $67 $-1 #
edge $68 $69 -1.2246063538223908e-016 $69 6.2831853071796004 $27 $70 forward 7 unknown #
ptlist-eye-attrib $-1 $-1 $-1 $29 #
vertex $-1 $29 $71 #
ellipse-curve $-1 0 -1.4774875658866976e-018 0.010160000000000011 0 6.1230317691118863e-017 1 0.03175 2.232611761677217e-016 -1.3670352744842456e-032 1 I I #
loop $-1 $-1 $30 $5 #
ptlist-eye-attrib $-1 $-1 $-1 $31 #
vertex $-1 $31 $72 #
ellipse-curve $-1 0 3.1105001387088385e-019 0.010160000000000011 0 -6.1230317691118863e-017 -1 0.049276000000000014 3.4379094969059715e-016 -2.1050429068886726e-032 1 I I #
point $-1 -0.050800000000000012 5.2878502358053411e-019 0.0086360000000000117 #
face $-1 $73 $74 $3 $-1 $75 reversed single #
loop $-1 $76 $77 $35 #
cone-surface $-1 -3.2526065174565133e-017 -0.034005217991424579 0.030479999999999875 1.3953692995658835e-016 1 5.606517854139792e-015 -0.0031750000000000003 4.4302975261214022e-019 4.9891585797323594e-018 1 I I 0 1 0.0031750000000000003 forward I I I I #
loop $-1 $78 $79 $21 #
coedge $-1 $57 $57 $80 $81 reversed $36 $-1 #
coedge $-1 $58 $58 $82 $83 forward $38 $-1 #
loop $-1 $84 $39 $85 #
ptlist-eye-attrib $-1 $-1 $-1 $40 #
vertex $-1 $40 $86 #
ellipse-curve $-1 0 0 1.0199001745144626e-017 0 6.1230317691118863e-017 1 -0.050800000000000012 0 0 1 I I #
loop $-1 $48 $87 $5 #
coedge $-1 $64 $64 $88 $89 forward $41 $-1 #
coedge $-1 $65 $65 $42 $66 reversed $90 $-1 #
edge $91 $92 -6.1230317691118863e-017 $92 6.2831853071796004 $42 $93 forward 7 unknown #
loop $-1 $-1 $43 $94 #
ptlist-eye-attrib $-1 $-1 $-1 $44 #
vertex $-1 $44 $95 #
ellipse-curve $-1 -4.3368086899420177e-018 -0.040639999999999732 0.010159999999999879 0 -6.1230317691118863e-017 -1 -0.0050800000000000003 6.2210002774176769e-019 0 1 I I #
point $-1 -0.03175 -3.029470303162617e-018 0.010160000000000011 #
point $-1 -0.049276000000000014 -6.8757256788077821e-016 0.010160000000000011 #
face $-1 $96 $97 $3 $-1 $98 forward single #
loop $-1 $99 $100 $53 #
cone-surface $-1 -0.034005217991424537 -3.9898639947466563e-017 0.030479999999999927 1 -4.2424831009358351e-016 3.4105747739876513e-015 1.8722897581271995e-018 0.0031750000000000003 5.01032863201717e-018 1 I I 0 1 0.0031750000000000003 forward I I I I #
loop $-1 $-1 $101 $35 #
coedge $-1 $77 $77 $102 $103 reversed $54 $-1 #
loop $-1 $104 $105 $21 #
coedge $-1 $79 $79 $106 $107 forward $56 $-1 #
coedge $-1 $80 $80 $57 $81 forward $108 $-1 #
edge $109 $110 -2.2956705829111457e-016 $110 6.2831853071796004 $80 $111 forward 7 unknown #
coedge $-1 $82 $82 $58 $83 reversed $112 $-1 #
edge $113 $114 -3.141592653589814 $114 3.1415926535897865 $82 $115 forward 7 unknown #
loop $-1 $116 $117 $85 #
face $-1 $94 $59 $3 $-1 $118 forward single #
point $-1 -0.050800000000000012 0 1.0497937968142327e-017 #
coedge $-1 $87 $87 $119 $120 forward $63 $-1 #
coedge $-1 $88 $88 $64 $89 reversed $121 $-1 #
edge $122 $123 1.3590843543542565e-030 $123 6.2831853071796004 $64 $124 forward 7 unknown #
loop $-1 $-1 $65 $125 #
ptlist-eye-attrib $-1 $-1 $-1 $66 #
vertex $-1 $66 $126 #
ellipse-curve $-1 -0.040639999999999746 1.1275702593849246e-017 0.010160000000000011 0 -6.1230317691118863e-017 -1 3.1105001387088385e-019 0.0050800000000000003 0 1 I I #
face $-1 $125 $127 $3 $-1 $128 reversed single #
point $-1 -0.0050800000000000055 -0.040639999999999732 0.010159999999999992 #
face $-1 $85 $129 $3 $-1 $130 forward single #
loop $-1 $131 $132 $73 #
cone-surface $-1 0 -3.3437876491120031e-019 0.0015240000000000028 0 -6.1230317691118863e-017 -1 0.017399000000000001 0 0 1 I I -0.70710678118654835 -0.70710678118654668 0.017399000000000001 forward I I I I #
loop $-1 $-1 $133 $53 #
coedge $-1 $100 $100 $134 $135 reversed $74 $-1 #
coedge $-1 $101 $101 $136 $137 reversed $76 $-1 #
coedge $-1 $102 $102 $77 $103 forward $138 $-1 #
edge $139 $140 0 $140 0.019150852894961545 $102 $141 forward 7 unknown #
loop $-1 $138 $134 $21 #
coedge $-1 $105 $105 $142 $143 forward $78 $-1 #
coedge $-1 $106 $106 $79 $107 reversed $144 $-1 #
edge $145 $146 0 $146 0.019150852894961538 $79 $147 forward 7 unknown #
loop $-1 $-1 $80 $148 #
ptlist-eye-attrib $-1 $-1 $-1 $81 #
vertex $-1 $81 $149 #
ellipse-curve $-1 0 0 0.058419999999999986 0 6.1230317691118863e-017 1 -0.030225999999999999 0 0 1 I I #
loop $-1 $-1 $82 $21 #
ptlist-eye-attrib $-1 $-1 $-1 $83 #
vertex $-1 $83 $150 #
ellipse-curve $-1 0 -1.3841725617254325e-018 0.01168400000000001 0 -6.1230317691118863e-017 -1 0.030225999999999999 2.1254463971167104e-016 0 1 I I #
loop $-1 $151 $152 $85 #
coedge $-1 $117 $117 $153 $154 forward $84 $-1 #
plane-surface $-1 -0.033337500000000006 0 5.2489689840711643e-018 0 -6.1230317691118863e-017 -1 -1 0 0 forward_v I I I I #
coedge $-1 $119 $119 $87 $120 reversed $155 $-1 #
edge $156 $157 -1.6081428723391247e-016 $157 6.2831853071796004 $87 $158 forward 7 unknown #
loop $-1 $-1 $88 $159 #
ptlist-eye-attrib $-1 $-1 $-1 $89 #
vertex $-1 $89 $160 #
ellipse-curve $-1 0 0.040639999999999753 0.010159999999999879 0 -6.1230317691118863e-017 -1 0.0050800000000000003 0 0 1 I I #
face $-1 $161 $162 $3 $-1 $163 reversed single #
point $-1 -0.040639999999999746 0.0050800000000000116 0.010159999999999992 #
loop $-1 $67 $164 $94 #
cone-surface $-1 -4.3368086899420177e-018 -0.040639999999999732 0.010159999999999992 3.9568073485066338e-031 3.231085104332676e-015 -1 -0.0050800000000000003 6.2210002774176769e-019 0 1 I I 0 1 0.0050800000000000003 forward I I I I #
loop $-1 $165 $166 $96 #
cone-surface $-1 0 0 0.006985000000000006 0 6.1230317691118863e-017 1 -0.015875 0 0 1 I I 0 -1 0.015875 forward I I I I #
loop $-1 $-1 $167 $73 #
coedge $-1 $132 $132 $168 $169 forward $97 $-1 #
coedge $-1 $133 $133 $170 $171 reversed $99 $-1 #
coedge $-1 $134 $134 $100 $135 forward $104 $-1 #
edge $172 $173 0 $173 0.019150852894961549 $134 $174 forward 7 unknown #
coedge $-1 $136 $136 $101 $137 forward $175 $-1 #
edge $176 $177 0 $177 0.019191461290721586 $136 $178 forward 7 unknown #
loop $-1 $112 $102 $21 #
ptlist-eye-attrib $-1 $-1 $-1 $103 #
vertex $-1 $103 $179 #
intcurve-curve $-1 forward { surfintcur full nubs 3 periodic 17 
	0 3 0.0011969307883360877 2 0.0023938615766721755 2 0.0035907874002062811 2 0.0047877132237403863 2 
	0.0059846390472744907 2 0.007181564870808595 2 0.008378495659144683 2 0.0095754264474807709 2 0.010772357235816866 2 
	0.011969288024152959 2 0.013166213847687069 2 0.014363139671221178 2 0.01556006549475529 2 0.016756991318289401 2 
	0.017953922106625473 2 0.019150852894961545 3 
	-0.0031750000000000324 -0.03005878325880806 0.030479999999999896 
	-0.0031750000000000328 -0.03005878325880806 0.030878976929445259 
	-0.0030951978805242105 -0.030067613066690972 0.031304339895694172 
	-0.0027710987112101989 -0.030099084002099506 0.032086516807453933 
	-0.0025267928692449476 -0.030121523952938552 0.032443335191289557 
	-0.0019633363598851672 -0.030163491129631619 0.033006791700649338 
	-0.0016065174809060086 -0.030185877974518976 0.033251098432375031 
	-0.00082433900919814485 -0.030217229036039402 0.033575198247635177 
	-0.00039897527451139987 -0.030225999999999999 0.033654999999999893 
	0.0003989752745113366 -0.030225999999999999 0.033654999999999893 
	0.00082433900919808142 -0.030217229036039399 0.033575198247635177 
	0.0016065174809059449 -0.030185877974518979 0.033251098432375031 
	0.001963336359885103 -0.030163491129631622 0.033006791700649338 
	0.0025267928692448835 -0.030121523952938555 0.032443335191289557 
	0.0027710987112101347 -0.030099084002099506 0.032086516807453933 
	0.0030951978805241463 -0.030067613066690972 0.031304339895694172 
	0.0031749999999999686 -0.030058783258808067 0.030878976929445259 
	0.0031749999999999678 -0.030058783258808067 0.030081023070554533 
	0.0030951978805241484 -0.030067613066690976 0.029655660104305624 
	0.0027710987112101312 -0.03009908400209951 0.028873483192545856 
	0.0025267928692448765 -0.030121523952938555 0.028516664808710224 
	0.0019633363598850909 -0.030163491129631622 0.027953208299350444 
	0.0016065174809059308 -0.030185877974518986 0.02770890156762475 
	0.00082433900919806342 -0.030217229036039406 0.027384801752364612 
	0.00039897527451131622 -0.030225999999999999 0.027304999999999892 
	-0.00039897527451142377 -0.030225999999999999 0.027304999999999899 
	-0.00082433900919817184 -0.030217229036039402 0.027384801752364626 
	-0.0016065174809060359 -0.030185877974518976 0.027708901567624778 
	-0.0019633363598851902 -0.030163491129631615 0.027953208299350472 
	-0.0025267928692449628 -0.030121523952938548 0.028516664808710256 
	-0.0027710987112102093 -0.030099084002099499 0.028873483192545884 
	-0.0030951978805242148 -0.030067613066690965 0.029655660104305637 
	-0.003175000000000032 -0.03005878325880806 0.03008102307055454 
	-0.0031750000000000324 -0.03005878325880806 0.030479999999999896 
	9.6159576263024914e-005 
	cone -3.2526065174565133e-017 -0.034005217991424579 0.030479999999999875 1.3953692995658835e-016 1 5.606517854139792e-015 -0.0031750000000000003 4.4302975261214022e-019 4.9891585797323594e-018 1 I I 0 1 0.0031750000000000003 forward I I I I 
	cone 0 0 0.034290000000000001 0 6.1230317691118863e-017 1 -0.030225999999999999 0 0 1 I I 0 1 0.030225999999999999 forward I I I I 
	nullbs 
	nullbs 
	I I 
	0 
	0 
	0 
	} I I #
coedge $-1 $142 $142 $105 $143 reversed $180 $-1 #
edge $181 $182 0 $182 0.019150852894961545 $105 $183 forward 7 unknown #
loop $-1 $184 $106 $185 #
ptlist-eye-attrib $-1 $-1 $-1 $107 #
vertex $-1 $107 $186 #
intcurve-curve $-1 forward { surfintcur full nubs 3 periodic 17 
	0 3 0.001196930788336086 2 0.002393861576672172 2 0.0035907874002062768 2 0.0047877132237403811 2 
	0.0059846390472744855 2 0.0071815648708085898 2 0.008378495659144676 2 0.0095754264474807622 2 0.010772357235816857 2 
	0.011969288024152952 2 0.013166213847687062 2 0.014363139671221173 2 0.015560065494755282 2 0.01675699131828939 2 
	0.017953922106625463 2 0.019150852894961538 3 
	0.0031750000000000003 0.030058783258808064 0.030479999999999934 
	0.0031749999999999999 0.030058783258808064 0.030878976929445294 
	0.003095197880524181 0.030067613066690976 0.031304339895694207 
	0.0027710987112101707 0.03009908400209951 0.032086516807453967 
	0.0025267928692449138 0.030121523952938552 0.032443335191289592 
	0.0019633363598851343 0.030163491129631619 0.033006791700649372 
	0.0016065174809059761 0.030185877974518976 0.033251098432375066 
	0.00082433900919811286 0.030217229036039402 0.033575198247635211 
	0.00039897527451136826 0.030225999999999999 0.033654999999999928 
	-0.00039897527451136788 0.030225999999999999 0.033654999999999928 
	-0.00082433900919811265 0.030217229036039402 0.033575198247635211 
	-0.0016065174809059756 0.030185877974518976 0.033251098432375066 
	-0.0019633363598851338 0.030163491129631619 0.033006791700649372 
	-0.0025267928692449138 0.030121523952938552 0.032443335191289592 
	-0.0027710987112101707 0.03009908400209951 0.032086516807453967 
	-0.003095197880524181 0.030067613066690976 0.031304339895694207 
	-0.0031749999999999999 0.030058783258808064 0.030878976929445294 
	-0.0031750000000000007 0.030058783258808064 0.030081023070554568 
	-0.0030951978805241788 0.030067613066690976 0.029655660104305655 
	-0.002771098711210162 0.03009908400209951 0.028873483192545891 
	-0.0025267928692449095 0.030121523952938555 0.028516664808710263 
	-0.0019633363598851243 0.030163491129631622 0.027953208299350482 
	-0.0016065174809059631 0.030185877974518976 0.027708901567624789 
	-0.00082433900919809367 0.030217229036039402 0.02738480175236465 
	-0.00039897527451134799 0.030225999999999999 0.02730499999999993 
	0.00039897527451139173 0.030225999999999999 0.027304999999999937 
	0.00082433900919813769 0.030217229036039402 0.02738480175236466 
	0.001606517480906001 0.030185877974518976 0.027708901567624813 
	0.001963336359885159 0.030163491129631619 0.027953208299350506 
	0.0025267928692449312 0.030121523952938552 0.02851666480871029 
	0.0027710987112101754 0.03009908400209951 0.028873483192545919 
	0.003095197880524181 0.030067613066690976 0.029655660104305669 
	0.0031750000000000003 0.030058783258808064 0.030081023070554574 
	0.0031750000000000003 0.030058783258808064 0.030479999999999934 
	9.6159576263023884e-005 
	cone 0 0.034005217991424468 0.030479999999999917 0 -1 4.0580332063416824e-015 0.0031750000000000003 0 0 1 I I 0 1 0.0031750000000000003 forward I I I I 
	cone 0 0 0.034290000000000001 0 6.1230317691118863e-017 1 -0.030225999999999999 0 0 1 I I 0 1 0.030225999999999999 forward I I I I 
	nullbs 
	nullbs 
	I I 
	0 
	0 
	0 
	} I I #
face $-1 $187 $188 $3 $-1 $189 forward single #
point $-1 -0.030225999999999999 6.9388939039072284e-018 0.058419999999999986 #
point $-1 -0.030225999999999999 -4.2499596441918084e-016 0.01168400000000001 #
loop $-1 $190 $191 $85 #
coedge $-1 $152 $152 $192 $193 forward $116 $-1 #
coedge $-1 $153 $153 $117 $154 reversed $194 $-1 #
edge $195 $196 1.6081428723391247e-016 $196 6.2831853071796004 $117 $197 forward 7 unknown #
loop $-1 $-1 $119 $198 #
ptlist-eye-attrib $-1 $-1 $-1 $120 #
vertex $-1 $120 $199 #
ellipse-curve $-1 0.040639999999999746 1.7347234759768071e-018 0.010159999999999749 0 -6.1230317691118863e-017 -1 -8.1693657914827532e-019 -0.0050800000000000003 0 1 I I #
face $-1 $198 $200 $3 $-1 $201 reversed single #
point $-1 0.0050800000000000003 0.040639999999999753 0.010159999999999992 #
face $-1 $185 $180 $3 $-1 $202 reversed single #
loop $-1 $90 $203 $125 #
cone-surface $-1 -0.040639999999999746 1.1275702593849246e-017 0.010159999999999992 3.231085104332676e-015 -1.9784036742533169e-031 -1 3.1105001387088385e-019 0.0050800000000000003 0 1 I I 0 1 0.0050800000000000003 forward I I I I #
coedge $-1 $164 $164 $204 $205 reversed $127 $-1 #
loop $-1 $-1 $168 $96 #
coedge $-1 $166 $166 $206 $207 forward $129 $-1 #
coedge $-1 $167 $167 $208 $209 forward $131 $-1 #
coedge $-1 $168 $168 $132 $169 reversed $165 $-1 #
edge $210 $211 -3.141592653589814 $211 3.1415926535897865 $168 $212 forward 7 unknown #
coedge $-1 $170 $170 $133 $171 forward $213 $-1 #
edge $214 $215 0 $215 0.019191461290721582 $170 $216 forward 7 unknown #
ptlist-eye-attrib $-1 $-1 $-1 $135 #
vertex $-1 $135 $217 #
intcurve-curve $-1 forward { surfintcur full nubs 3 periodic 17 
	0 3 0.0011969307883360892 2 0.0023938615766721785 2 0.003590787400206282 2 0.0047877132237403855 2 
	0.0059846390472744898 2 0.007181564870808595 2 0.0083784956591446847 2 0.0095754264474807744 2 0.010772357235816869 2 
	0.011969288024152964 2 0.013166213847687075 2 0.014363139671221185 2 0.015560065494755294 2 0.016756991318289404 2 
	0.017953922106625476 2 0.019150852894961549 3 
	-0.030058783258808071 0.0031749999999999582 0.030479999999999941 
	-0.030058783258808071 0.0031749999999999582 0.030878976929445301 
	-0.030067613066690979 0.0030951978805241393 0.031304339895694214 
	-0.030099084002099513 0.0027710987112101264 0.032086516807453974 
	-0.030121523952938559 0.0025267928692448722 0.032443335191289606 
	-0.030163491129631625 0.0019633363598850909 0.033006791700649386 
	-0.030185877974518979 0.0016065174809059325 0.03325109843237508 
	-0.030217229036039399 0.00082433900919806982 0.033575198247635225 
	-0.030225999999999999 0.00039897527451132641 0.033654999999999942 
	-0.030226000000000003 -0.00039897527451140952 0.033654999999999942 
	-0.030217229036039409 -0.00082433900919815276 0.033575198247635225 
	-0.030185877974518983 -0.0016065174809060164 0.03325109843237508 
	-0.030163491129631619 -0.001963336359885175 0.033006791700649386 
	-0.030121523952938548 -0.0025267928692449563 0.032443335191289606 
	-0.030099084002099499 -0.0027710987112102088 0.032086516807453967 
	-0.030067613066690965 -0.0030951978805242191 0.031304339895694207 
	-0.03005878325880806 -0.0031750000000000424 0.030878976929445308 
	-0.03005878325880806 -0.0031750000000000424 0.030081023070554574 
	-0.030067613066690965 -0.0030951978805242213 0.029655660104305662 
	-0.030099084002099499 -0.0027710987112102045 0.028873483192545898 
	-0.030121523952938548 -0.002526792869244952 0.028516664808710269 
	-0.030163491129631615 -0.0019633363598851664 0.027953208299350489 
	-0.030185877974518976 -0.0016065174809060043 0.027708901567624795 
	-0.030217229036039402 -0.0008243390091981352 0.027384801752364657 
	-0.030225999999999999 -0.00039897527451139033 0.027304999999999937 
	-0.030226000000000003 0.00039897527451134934 0.027304999999999947 
	-0.030217229036039409 0.00082433900919809508 0.027384801752364671 
	-0.030185877974518983 0.0016065174809059585 0.027708901567624823 
	-0.030163491129631625 0.0019633363598851169 0.027953208299350517 
	-0.030121523952938555 0.0025267928692448891 0.028516664808710301 
	-0.03009908400209951 0.0027710987112101334 0.028873483192545922 
	-0.030067613066690976 0.0030951978805241393 0.029655660104305676 
	-0.030058783258808071 0.0031749999999999582 0.030081023070554581 
	-0.030058783258808071 0.0031749999999999582 0.030479999999999941 
	9.6159576263025171e-005 
	cone -0.034005217991424537 -3.9898639947466563e-017 0.030479999999999927 1 -4.2424831009358351e-016 3.4105747739876513e-015 1.8722897581271995e-018 0.0031750000000000003 5.01032863201717e-018 1 I I 0 1 0.0031750000000000003 forward I I I I 
	cone 0 0 0.034290000000000001 0 6.1230317691118863e-017 1 -0.030225999999999999 0 0 1 I I 0 1 0.030225999999999999 forward I I I I 
	nullbs 
	nullbs 
	I I 
	0 
	0 
	0 
	} I I #
loop $-1 $213 $136 $218 #
ptlist-eye-attrib $-1 $-1 $-1 $137 #
vertex $-1 $137 $219 #
intcurve-curve $-1 forward { surfintcur full nubs 3 periodic 17 
	0 3 0.0011994999374513749 2 0.0023989998749027498 2 0.0035984325987915866 2 0.0047978653226804233 2 
	0.0059972980465692605 2 0.0071967307704580968 2 0.0083962307079094474 2 0.0095957306453607963 2 0.010795230582812187 2 
	0.011994730520263576 2 0.013194163244152405 2 0.014393595968041236 2 0.015593028691930065 2 0.016792461415818895 2 
	0.01799196135327024 2 0.019191461290721586 3 
	-0.0031750000000000302 -0.015554259866673177 0.030479999999999979 
	-0.0031750000000000302 -0.015554259866673177 0.030080166687516188 
	-0.0030948495752439829 -0.015571411710702627 0.029654463400051897 
	-0.0027705447718522525 -0.015632117398201091 0.028872503650691474 
	-0.0025263573494599067 -0.01567526345198636 0.028516229288925273 
	-0.0019637864732481936 -0.015755630720016605 0.027953658412713564 
	-0.0016075046821353563 -0.015798390535092754 0.027709458673477877 
	-0.00082552385085745772 -0.015858251199587847 0.027385145147843466 
	-0.00039981090796295326 -0.015875 0.027304999999999972 
	0.00039981090796293813 -0.015875 0.027304999999999979 
	0.00082552385085744493 -0.015858251199587847 0.027385145147843477 
	0.0016075046821353368 -0.015798390535092757 0.027709458673477901 
	0.0019637864732481689 -0.015755630720016608 0.027953658412713592 
	0.0025263573494598681 -0.015675263451986367 0.028516229288925308 
	0.0027705447718522117 -0.015632117398201098 0.028872503650691512 
	0.0030948495752439274 -0.015571411710702638 0.029654463400051918 
	0.0031749999999999704 -0.015554259866673187 0.030080166687516195 
	0.0031749999999999704 -0.015554259866673187 0.030879833312483777 
	0.0030948495752439226 -0.015571411710702641 0.031305536599948072 
	0.0027705447718521805 -0.015632117398201105 0.032087496349308499 
	0.002526357349459829 -0.015675263451986374 0.03244377071107471 
	0.0019637864732481082 -0.015755630720016615 0.033006341587286409 
	0.0016075046821352687 -0.015798390535092764 0.033250541326522089 
	0.00082552385085737207 -0.01585825119958785 0.033574854852156492 
	0.00039981090796286853 -0.015875 0.033654999999999984 
	-0.00039981090796301853 -0.015875 0.03365499999999997 
	-0.00082552385085752093 -0.01585825119958784 0.033574854852156479 
	-0.0016075046821354075 -0.015798390535092747 0.033250541326522047 
	-0.0019637864732482396 -0.015755630720016598 0.033006341587286353 
	-0.0025263573494599349 -0.015675263451986353 0.032443770711074647 
	-0.0027705447718522698 -0.015632117398201088 0.032087496349308443 
	-0.0030948495752439876 -0.015571411710702627 0.031305536599948044 
	-0.0031750000000000302 -0.015554259866673177 0.03087983331248376 
	-0.0031750000000000302 -0.015554259866673177 0.030479999999999979 
	9.6219507637472932e-005 
	cone -3.2526065174565133e-017 -0.034005217991424579 0.030479999999999875 1.3953692995658835e-016 1 5.606517854139792e-015 -0.0031750000000000003 4.4302975261214022e-019 4.9891585797323594e-018 1 I I 0 1 0.0031750000000000003 forward I I I I 
	cone 0 0 0.030480000000000004 0 6.1230317691118863e-017 1 -0.015875 0 0 1 I I 0 -1 0.015875 forward I I I I 
	nullbs 
	nullbs 
	I I 
	0 
	0 
	0 
	} I I #
point $-1 -0.0031750000000000324 -0.03005878325880806 0.030479999999999896 #
loop $-1 $220 $142 $161 #
ptlist-eye-attrib $-1 $-1 $-1 $143 #
vertex $-1 $143 $221 #
intcurve-curve $-1 forward { surfintcur full nubs 3 periodic 17 
	0 3 0.0011969307883360949 2 0.0023938615766721898 2 0.0035907874002063002 2 0.0047877132237404106 2 
	0.005984639047274521 2 0.0071815648708086315 2 0.0083784956591447021 2 0.0095754264474807727 2 0.010772357235816883 2 
	0.011969288024152995 2 0.013166213847687101 2 0.014363139671221204 2 0.015560065494755309 2 0.016756991318289415 2 
	0.01795392210662548 2 0.019150852894961545 3 
	0.030058783258808057 -0.0031750000000000771 0.030479999999999893 
	0.030058783258808057 -0.0031750000000000771 0.030878976929445259 
	0.030067613066690965 -0.0030951978805242538 0.031304339895694172 
	0.030099084002099499 -0.0027710987112102409 0.032086516807453933 
	0.030121523952938545 -0.0025267928692449867 0.032443335191289564 
	0.030163491129631619 -0.0019633363598852011 0.033006791700649345 
	0.030185877974518976 -0.0016065174809060383 0.033251098432375031 
	0.030217229036039402 -0.00082433900919816902 0.033575198247635177 
	0.030225999999999999 -0.00039897527451142459 0.033654999999999893 
	0.030225999999999999 0.00039897527451131568 0.033654999999999893 
	0.030217229036039399 0.00082433900919806039 0.033575198247635163 
	0.030185877974518979 0.001606517480905926 0.033251098432375017 
	0.030163491129631622 0.0019633363598850822 0.03300679170064931 
	0.030121523952938559 0.002526792869244854 0.03244333519128953 
	0.030099084002099513 0.002771098711210103 0.032086516807453905 
	0.030067613066690979 0.0030951978805241081 0.031304339895694158 
	0.030058783258808071 0.0031749999999999235 0.030878976929445252 
	0.030058783258808071 0.0031749999999999235 0.030081023070554526 
	0.030067613066690983 0.0030951978805241007 0.029655660104305606 
	0.030099084002099517 0.002771098711210077 0.028873483192545832 
	0.030121523952938566 0.0025267928692448167 0.0285166648087102 
	0.030163491129631629 0.0019633363598850215 0.02795320829935042 
	0.030185877974518986 0.0016065174809058599 0.027708901567624736 
	0.030217229036039406 0.00082433900919799187 0.027384801752364605 
	0.030226000000000003 0.00039897527451124656 0.027304999999999885 
	0.030225999999999996 -0.00039897527451148958 0.027304999999999899 
	0.030217229036039395 -0.00082433900919823126 0.027384801752364629 
	0.030185877974518969 -0.0016065174809060895 0.027708901567624782 
	0.030163491129631612 -0.0019633363598852462 0.027953208299350479 
	0.030121523952938545 -0.0025267928692450136 0.028516664808710263 
	0.030099084002099499 -0.0027710987112102587 0.028873483192545891 
	0.030067613066690965 -0.0030951978805242595 0.029655660104305637 
	0.030058783258808057 -0.0031750000000000771 0.03008102307055454 
	0.030058783258808057 -0.0031750000000000771 0.030479999999999893 
	9.6159576263024155e-005 
	cone 0.034005217991424502 -7.6761513811973714e-017 0.030479999999999872 -1 8.164042358815894e-017 5.4862798332111495e-015 -4.4423422189063256e-019 -0.0031750000000000003 2.592083448924032e-019 1 I I 0 1 0.0031750000000000003 forward I I I I 
	cone 0 0 0.034290000000000001 0 6.1230317691118863e-017 1 -0.030225999999999999 0 0 1 I I 0 1 0.030225999999999999 forward I I I I 
	nullbs 
	nullbs 
	I I 
	0 
	0 
	0 
	} I I #
loop $-1 $-1 $222 $185 #
face $-1 $159 $144 $3 $-1 $223 reversed single #
point $-1 0.0031750000000000003 0.030058783258808064 0.030479999999999934 #
face $-1 $224 $225 $3 $-1 $226 forward single #
loop $-1 $108 $227 $148 #
plane-surface $-1 -0.028955999999999999 6.9388939039072284e-018 0.058419999999999986 0 6.1230317691118863e-017 1 1 0 0 forward_v I I I I #
loop $-1 $228 $204 $85 #
coedge $-1 $191 $191 $203 $229 forward $151 $-1 #
coedge $-1 $192 $192 $152 $193 reversed $200 $-1 #
edge $230 $231 -1.3172663742202794e-030 $231 6.2831853071796004 $152 $232 forward 7 unknown #
loop $-1 $155 $153 $198 #
ptlist-eye-attrib $-1 $-1 $-1 $154 #
vertex $-1 $154 $233 #
ellipse-curve $-1 0.040639999999999711 1.7347234759768125e-018 -2.3418766925686896e-016 0 6.1230317691118863e-017 1 -8.1693657914827532e-019 -0.0050800000000000003 0 1 I I #
face $-1 $148 $194 $3 $-1 $234 reversed single #
point $-1 0.040639999999999746 -0.0050799999999999994 0.010159999999999992 #
loop $-1 $121 $192 $159 #
cone-surface $-1 0 0.040639999999999753 0.010159999999999992 0 -3.231085104332676e-015 -1 0.0050800000000000003 0 0 1 I I 0 1 0.0050800000000000003 forward I I I I #
cone-surface $-1 0.034005217991424502 -7.6761513811973714e-017 0.030479999999999872 -1 8.164042358815894e-017 5.4862798332111495e-015 -4.4423422189063256e-019 -0.0031750000000000003 2.592083448924032e-019 1 I I 0 1 0.0031750000000000003 forward I I I I #
coedge $-1 $203 $203 $191 $229 reversed $162 $-1 #
coedge $-1 $204 $204 $164 $205 forward $190 $-1 #
edge $235 $236 1.2246063538223903e-016 $236 6.2831853071796004 $204 $237 forward 7 unknown #
coedge $-1 $206 $206 $166 $207 reversed $238 $-1 #
edge $239 $240 0 $240 6.2831853071796004 $166 $241 forward 7 unknown #
coedge $-1 $208 $208 $167 $209 reversed $228 $-1 #
edge $242 $243 -3.141592653589814 $243 3.1415926535897865 $208 $244 forward 7 unknown #
ptlist-eye-attrib $-1 $-1 $-1 $169 #
vertex $-1 $169 $245 #
ellipse-curve $-1 0 -2.4106376074993528e-019 0.0030480000000000004 0 6.1230317691118863e-017 1 0.015875 0 0 1 I I #
loop $-1 $246 $170 $218 #
ptlist-eye-attrib $-1 $-1 $-1 $171 #
vertex $-1 $171 $247 #
intcurve-curve $-1 forward { surfintcur full nubs 3 periodic 17 
	0 3 0.0011994999374513721 2 0.0023989998749027442 2 0.0035984325987915801 2 0.0047978653226804164 2 
	0.0059972980465692535 2 0.0071967307704580898 2 0.0083962307079094405 2 0.0095957306453607911 2 0.01079523058281218 2 
	0.011994730520263569 2 0.013194163244152401 2 0.014393595968041233 2 0.015593028691930064 2 0.016792461415818895 2 
	0.01799196135327024 2 0.019191461290721582 3 
	-0.015554259866673192 0.0031749999999999522 0.03047999999999999 
	-0.015554259866673192 0.0031749999999999522 0.030080166687516199 
	-0.015571411710702643 0.0030948495752439052 0.029654463400051907 
	-0.015632117398201105 0.0027705447718521753 0.028872503650691488 
	-0.015675263451986374 0.0025263573494598282 0.028516229288925284 
	-0.015755630720016615 0.0019637864732481155 0.027953658412713578 
	-0.015798390535092757 0.0016075046821352784 0.027709458673477894 
	-0.015858251199587843 0.00082552385085737988 0.02738514514784348 
	-0.015875 0.00039981090796287552 0.027304999999999986 
	-0.015875 -0.00039981090796301565 0.027304999999999992 
	-0.01585825119958784 -0.00082552385085752017 0.027385145147843487 
	-0.015798390535092747 -0.0016075046821354124 0.027709458673477912 
	-0.015755630720016595 -0.0019637864732482461 0.027953658412713606 
	-0.015675263451986353 -0.0025263573494599453 0.028516229288925318 
	-0.015632117398201088 -0.0027705447718522859 0.028872503650691515 
	-0.015571411710702626 -0.0030948495752440037 0.029654463400051921 
	-0.01555425986667317 -0.0031750000000000484 0.030080166687516206 
	-0.01555425986667317 -0.0031750000000000484 0.030879833312483784 
	-0.015571411710702626 -0.0030948495752439998 0.031305536599948079 
	-0.015632117398201091 -0.0027705447718522629 0.032087496349308499 
	-0.01567526345198636 -0.0025263573494599075 0.03244377071107471 
	-0.015755630720016608 -0.0019637864732481866 0.033006341587286422 
	-0.015798390535092754 -0.0016075046821353485 0.033250541326522109 
	-0.015858251199587847 -0.00082552385085744927 0.033574854852156513 
	-0.015875 -0.00039981090796294621 0.033654999999999997 
	-0.015875 0.00039981090796294122 0.033654999999999984 
	-0.015858251199587843 0.00082552385085744319 0.033574854852156492 
	-0.015798390535092757 0.0016075046821353294 0.033250541326522061 
	-0.015755630720016612 0.0019637864732481611 0.033006341587286367 
	-0.01567526345198637 0.0025263573494598564 0.032443770711074654 
	-0.015632117398201105 0.0027705447718521948 0.03208749634930845 
	-0.015571411710702645 0.0030948495752439091 0.031305536599948051 
	-0.015554259866673192 0.0031749999999999522 0.03087983331248377 
	-0.015554259866673192 0.0031749999999999522 0.03047999999999999 
	9.6219507637472132e-005 
	cone -0.034005217991424537 -3.9898639947466563e-017 0.030479999999999927 1 -4.2424831009358351e-016 3.4105747739876513e-015 1.8722897581271995e-018 0.0031750000000000003 5.01032863201717e-018 1 I I 0 1 0.0031750000000000003 forward I I I I 
	cone 0 0 0.030480000000000004 0 6.1230317691118863e-017 1 -0.015875 0 0 1 I I 0 -1 0.015875 forward I I I I 
	nullbs 
	nullbs 
	I I 
	0 
	0 
	0 
	} I I #
point $-1 -0.030058783258808067 0.0031749999999999582 0.030479999999999941 #
face $-1 $248 $175 $3 $-1 $249 forward single #
point $-1 -0.0031750000000000302 -0.015554259866673175 0.030479999999999979 #
loop $-1 $-1 $250 $161 #
point $-1 0.030058783258808053 -0.0031750000000000762 0.030479999999999893 #
coedge $-1 $222 $222 $251 $252 reversed $184 $-1 #
cone-surface $-1 0 0.034005217991424468 0.030479999999999917 0 -1 4.0580332063416824e-015 0.0031750000000000003 0 0 1 I I 0 1 0.0031750000000000003 forward I I I I #
face $-1 $253 $254 $3 $-1 $255 forward single #
loop $-1 $256 $257 $187 #
cone-surface $-1 0 0 0.060959999999999986 0 6.1230317691118863e-017 1 -0.027685999999999999 0 0 1 I I 0 1 0.027685999999999999 forward I I I I #
coedge $-1 $227 $227 $258 $259 reversed $188 $-1 #
loop $-1 $-1 $208 $85 #
edge $260 $261 6.1230317691118863e-017 $261 6.2831853071796004 $191 $262 forward 7 unknown #
ptlist-eye-attrib $-1 $-1 $-1 $193 #
vertex $-1 $193 $263 #
ellipse-curve $-1 0 0.040639999999999718 -1.2663481374630692e-016 0 6.1230317691118863e-017 1 0.0050800000000000003 0 0 1 I I #
point $-1 0.040639999999999711 -0.0050799999999999994 -1.7347234759768071e-017 #
cone-surface $-1 0.040639999999999746 1.7347234759768071e-018 0.010159999999999992 -3.231085104332676e-015 5.1960464804537093e-031 -1 -8.1693657914827532e-019 -0.0050800000000000003 0 1 I I 0 1 0.0050800000000000003 forward I I I I #
ptlist-eye-attrib $-1 $-1 $-1 $205 #
vertex $-1 $205 $264 #
ellipse-curve $-1 -4.3368086899420139e-018 -0.040639999999999697 -1.2663481374630692e-016 0 6.1230317691118863e-017 1 -0.0050800000000000003 6.2210002774176769e-019 0 1 I I #
loop $-1 $265 $206 $266 #
ptlist-eye-attrib $-1 $-1 $-1 $207 #
vertex $-1 $207 $267 #
ellipse-curve $-1 0 0 0.013970000000000012 0 6.1230317691118863e-017 1 -0.015875 0 0 1 I I #
ptlist-eye-attrib $-1 $-1 $-1 $209 #
vertex $-1 $209 $268 #
ellipse-curve $-1 0 -4.2769376907246528e-019 5.2041704279304213e-018 0 -6.1230317691118863e-017 -1 0.018923000000000002 0 0 1 I I #
point $-1 -0.015875 1.1061353295447294e-016 0.0030480000000000004 #
loop $-1 $269 $270 $218 #
point $-1 -0.015554259866673191 0.0031749999999999522 0.03047999999999999 #
face $-1 $271 $272 $3 $-1 $273 forward single #
cone-surface $-1 0 0 0.030480000000000004 0 6.1230317691118863e-017 1 -0.015875 0 0 1 I I 0 -1 0.015875 forward I I I I #
coedge $-1 $250 $250 $270 $274 reversed $220 $-1 #
coedge $-1 $251 $251 $222 $252 forward $269 $-1 #
edge $275 $276 0 $276 0.019191461290721593 $251 $277 forward 7 unknown #
face $-1 $278 $279 $3 $-1 $280 forward single #
loop $-1 $281 $282 $224 #
plane-surface $-1 -0.028955999999999999 6.9388939039072284e-018 0.063500000000000001 0 -6.1230317691118863e-017 -1 -1 0 0 forward_v I I I I #
loop $-1 $-1 $258 $187 #
coedge $-1 $257 $257 $283 $284 reversed $225 $-1 #
coedge $-1 $258 $258 $227 $259 forward $256 $-1 #
edge $285 $286 -2.5062825629947367e-016 $286 6.2831853071796004 $258 $287 forward 7 unknown #
ptlist-eye-attrib $-1 $-1 $-1 $229 #
vertex $-1 $229 $288 #
ellipse-curve $-1 -0.040639999999999711 1.1275702593849245e-017 -1.9081958235744878e-017 0 6.1230317691118863e-017 1 3.1105001387088385e-019 0.0050800000000000003 0 1 I I #
point $-1 0.0050800000000000003 0.040639999999999718 -1.7347234759768071e-017 #
point $-1 -0.0050800000000000055 -0.040639999999999697 -1.7347234759768071e-017 #
loop $-1 $-1 $289 $266 #
face $-1 $-1 $238 $3 $-1 $290 forward single #
point $-1 -0.015875 0 0.013970000000000012 #
point $-1 -0.018923000000000002 -1.3256637305361816e-016 5.2041704279304298e-018 #
loop $-1 $291 $251 $218 #
coedge $-1 $270 $270 $250 $274 forward $246 $-1 #
face $-1 $266 $292 $3 $-1 $293 forward single #
loop $-1 $294 $295 $248 #
plane-surface $-1 -0.0179705 0 0.020320000000000008 0 -6.1230317691118863e-017 -1 -1 0 0 forward_v I I I I #
edge $296 $297 0 $297 0.019191461290721579 $270 $298 forward 7 unknown #
ptlist-eye-attrib $-1 $-1 $-1 $252 #
vertex $-1 $252 $299 #
intcurve-curve $-1 forward { surfintcur full nubs 3 periodic 17 
	0 3 0.001199499937451374 2 0.0023989998749027481 2 0.0035984325987915853 2 0.0047978653226804224 2 
	0.0059972980465692587 2 0.007196730770458095 2 0.0083962307079094474 2 0.0095957306453607998 2 0.01079523058281219 2 
	0.011994730520263579 2 0.013194163244152408 2 0.01439359596804124 2 0.015593028691930069 2 0.016792461415818898 2 
	0.017991961353270247 2 0.019191461290721593 3 
	0.0031750000000000003 0.015554259866673182 0.030479999999999993 
	0.0031750000000000007 0.015554259866673182 0.030080166687516202 
	0.0030948495752439534 0.015571411710702634 0.029654463400051911 
	0.002770544771852223 0.015632117398201098 0.028872503650691488 
	0.0025263573494598767 0.015675263451986367 0.028516229288925287 
	0.0019637864732481641 0.015755630720016608 0.027953658412713578 
	0.0016075046821353251 0.015798390535092757 0.027709458673477891 
	0.00082552385085742758 0.015858251199587843 0.02738514514784348 
	0.00039981090796292344 0.015875 0.027304999999999986 
	-0.00039981090796296773 0.015875 0.027304999999999992 
	-0.00082552385085747149 0.01585825119958784 0.027385145147843487 
	-0.0016075046821353643 0.015798390535092747 0.027709458673477912 
	-0.0019637864732481988 0.015755630720016605 0.027953658412713606 
	-0.0025263573494598984 0.01567526345198636 0.028516229288925318 
	-0.0027705447718522373 0.015632117398201095 0.028872503650691515 
	-0.003094849575243956 0.015571411710702632 0.029654463400051925 
	-0.0031750000000000007 0.015554259866673182 0.030080166687516209 
	-0.0031749999999999999 0.015554259866673182 0.030879833312483791 
	-0.0030948495752439525 0.015571411710702634 0.031305536599948086 
	-0.0027705447718522104 0.015632117398201101 0.032087496349308513 
	-0.0025263573494598594 0.015675263451986367 0.032443770711074724 
	-0.0019637864732481385 0.015755630720016612 0.033006341587286422 
	-0.0016075046821352993 0.015798390535092761 0.033250541326522103 
	-0.00082552385085740265 0.015858251199587847 0.033574854852156506 
	-0.00039981090796289916 0.015875 0.033654999999999997 
	0.00039981090796298752 0.015875 0.033654999999999984 
	0.00082552385085748938 0.01585825119958784 0.033574854852156492 
	0.0016075046821353754 0.015798390535092747 0.033250541326522061 
	0.0019637864732482066 0.015755630720016602 0.033006341587286367 
	0.0025263573494599028 0.01567526345198636 0.032443770711074661 
	0.0027705447718522464 0.015632117398201095 0.03208749634930845 
	0.0030948495752439607 0.015571411710702632 0.031305536599948044 
	0.0031749999999999999 0.015554259866673182 0.030879833312483774 
	0.0031750000000000003 0.015554259866673182 0.030479999999999993 
	9.621950763747197e-005 
	cone 0 0.034005217991424468 0.030479999999999917 0 -1 4.0580332063416824e-015 0.0031750000000000003 0 0 1 I I 0 1 0.0031750000000000003 forward I I I I 
	cone 0 0 0.030480000000000004 0 6.1230317691118863e-017 1 -0.015875 0 0 1 I I 0 -1 0.015875 forward I I I I 
	nullbs 
	nullbs 
	I I 
	0 
	0 
	0 
	} I I #
face $-1 $300 $301 $3 $-1 $302 forward single #
loop $-1 $303 $304 $253 #
cone-surface $-1 0 6.9388939039072284e-018 0.070343396483905363 0 6.1230317691118863e-017 1 -0.030225999999999999 0 0 1 I I 0 1 0.030225999999999999 forward I I I I #
loop $-1 $-1 $283 $224 #
coedge $-1 $282 $282 $305 $306 reversed $254 $-1 #
coedge $-1 $283 $283 $257 $284 forward $281 $-1 #
edge $307 $308 -2.5062825629947367e-016 $308 6.2831853071796004 $283 $309 forward 7 unknown #
ptlist-eye-attrib $-1 $-1 $-1 $259 #
vertex $-1 $259 $310 #
ellipse-curve $-1 0 0 0.058419999999999986 0 6.1230317691118863e-017 1 -0.027685999999999999 0 0 1 I I #
point $-1 -0.040639999999999711 0.0050800000000000116 -1.7347234759768071e-017 #
coedge $-1 $289 $289 $311 $312 forward $265 $-1 #
plane-surface $-1 -0.0179705 0 0.013970000000000008 0 6.1230317691118863e-017 1 1 0 0 forward_v I I I I #
loop $-1 $313 $314 $218 #
loop $-1 $315 $311 $271 #
cone-surface $-1 0 0 0.017145000000000007 0 6.1230317691118863e-017 1 -0.020065999999999997 0 0 1 I I 0 -1 0.020065999999999997 forward I I I I #
loop $-1 $-1 $316 $248 #
coedge $-1 $295 $295 $317 $318 reversed $272 $-1 #
ptlist-eye-attrib $-1 $-1 $-1 $274 #
vertex $-1 $274 $319 #
intcurve-curve $-1 forward { surfintcur full nubs 3 periodic 17 
	0 3 0.0011994999374513673 2 0.0023989998749027346 2 0.0035984325987915662 2 0.0047978653226803981 2 
	0.0059972980465692284 2 0.0071967307704580586 2 0.0083962307079094266 2 0.0095957306453607928 2 0.010795230582812164 2 
	0.011994730520263536 2 0.013194163244152372 2 0.014393595968041208 2 0.015593028691930046 2 0.016792461415818884 2 
	0.017991961353270233 2 0.019191461290721579 3 
	0.015554259866673166 -0.0031750000000000758 0.030479999999999972 
	0.015554259866673166 -0.0031750000000000758 0.030080166687516181 
	0.015571411710702619 -0.0030948495752440293 0.029654463400051893 
	0.015632117398201084 -0.0027705447718523028 0.028872503650691477 
	0.015675263451986353 -0.0025263573494599565 0.028516229288925277 
	0.015755630720016602 -0.0019637864732482487 0.027953658412713567 
	0.015798390535092747 -0.0016075046821354129 0.02770945867347788 
	0.01585825119958784 -0.00082552385085752039 0.027385145147843463 
	0.015875 -0.00039981090796301896 0.027304999999999972 
	0.015875 0.00039981090796286831 0.027304999999999972 
	0.01585825119958785 0.00082552385085737012 0.027385145147843463 
	0.015798390535092764 0.0016075046821352626 0.02770945867347788 
	0.015755630720016615 0.0019637864732480982 0.027953658412713567 
	0.015675263451986374 0.0025263573494598065 0.028516229288925277 
	0.015632117398201112 0.0027705447718521562 0.028872503650691488 
	0.01557141171070265 0.0030948495752438792 0.0296544634000519 
	0.015554259866673198 0.0031749999999999248 0.030080166687516181 
	0.015554259866673198 0.0031749999999999248 0.030879833312483763 
	0.015571411710702648 0.0030948495752438762 0.031305536599948058 
	0.015632117398201108 0.0027705447718521488 0.032087496349308464 
	0.015675263451986374 0.0025263573494598 0.032443770711074668 
	0.015755630720016615 0.0019637864732480878 0.033006341587286381 
	0.015798390535092764 0.0016075046821352515 0.033250541326522068 
	0.01585825119958785 0.00082552385085735364 0.033574854852156485 
	0.015875 0.00039981090796284842 0.033654999999999977 
	0.015875 -0.00039981090796304292 0.033654999999999963 
	0.01585825119958784 -0.00082552385085754836 0.033574854852156472 
	0.015798390535092747 -0.0016075046821354408 0.033250541326522054 
	0.015755630720016595 -0.0019637864732482738 0.033006341587286353 
	0.015675263451986349 -0.0025263573494599726 0.03244377071107464 
	0.015632117398201081 -0.0027705447718523149 0.032087496349308436 
	0.015571411710702619 -0.003094849575244031 0.031305536599948031 
	0.015554259866673166 -0.0031750000000000758 0.030879833312483757 
	0.015554259866673166 -0.0031750000000000758 0.030479999999999972 
	9.6219507637472797e-005 
	cone 0.034005217991424502 -7.6761513811973714e-017 0.030479999999999872 -1 8.164042358815894e-017 5.4862798332111495e-015 -4.4423422189063256e-019 -0.0031750000000000003 2.592083448924032e-019 1 I I 0 1 0.0031750000000000003 forward I I I I 
	cone 0 0 0.030480000000000004 0 6.1230317691118863e-017 1 -0.015875 0 0 1 I I 0 -1 0.015875 forward I I I I 
	nullbs 
	nullbs 
	I I 
	0 
	0 
	0 
	} I I #
point $-1 0.0031750000000000003 0.015554259866673182 0.030479999999999993 #
face $-1 $320 $321 $3 $-1 $322 forward single #
loop $-1 $323 $324 $278 #
plane-surface $-1 -0.027813000000000001 6.9388939039072284e-018 0.077186792967810738 0 6.1230317691118863e-017 1 1 0 0 forward_v I I I I #
loop $-1 $-1 $305 $253 #
coedge $-1 $304 $304 $325 $326 reversed $279 $-1 #
coedge $-1 $305 $305 $282 $306 forward $303 $-1 #
edge $327 $328 -2.2956705829111457e-016 $328 6.2831853071796004 $305 $329 forward 7 unknown #
ptlist-eye-attrib $-1 $-1 $-1 $284 #
vertex $-1 $284 $330 #
ellipse-curve $-1 0 0 0.063499999999999987 0 6.1230317691118863e-017 1 -0.027685999999999999 0 0 1 I I #
point $-1 -0.027685999999999999 6.9388939039072284e-018 0.058419999999999986 #
coedge $-1 $311 $311 $289 $312 reversed $292 $-1 #
edge $331 $332 0 $332 6.2831853071796004 $289 $333 forward 7 unknown #
loop $-1 $-1 $334 $218 #
coedge $-1 $314 $314 $316 $335 reversed $291 $-1 #
loop $-1 $-1 $317 $271 #
coedge $-1 $316 $316 $314 $335 forward $294 $-1 #
coedge $-1 $317 $317 $295 $318 forward $315 $-1 #
edge $336 $337 0 $337 6.2831853071796004 $317 $338 forward 7 unknown #
point $-1 0.015554259866673166 -0.0031750000000000758 0.030479999999999972 #
face $-1 $339 $340 $3 $-1 $341 forward single #
loop $-1 $342 $343 $300 #
cone-surface $-1 0 6.9388939039072284e-018 0.083043396483905366 0 6.1230317691118863e-017 1 -0.025400000000000002 0 0 1 I I 0 1 0.025400000000000002 forward I I I I #
loop $-1 $-1 $325 $278 #
coedge $-1 $324 $324 $344 $345 reversed $301 $-1 #
coedge $-1 $325 $325 $304 $326 forward $323 $-1 #
edge $346 $347 0 $347 6.2831853071796004 $325 $348 forward 7 unknown #
ptlist-eye-attrib $-1 $-1 $-1 $306 #
vertex $-1 $306 $349 #
ellipse-curve $-1 0 0 0.063500000000000001 0 6.1230317691118863e-017 1 -0.030225999999999999 0 0 1 I I #
point $-1 -0.027685999999999999 6.9388939039072284e-018 0.063499999999999987 #
ptlist-eye-attrib $-1 $-1 $-1 $312 #
vertex $-1 $312 $350 #
ellipse-curve $-1 0 0 0.013970000000000007 0 6.1230317691118863e-017 1 -0.020065999999999997 0 0 1 I I #
coedge $-1 $334 $334 $351 $352 forward $313 $-1 #
edge $353 $354 0 $354 6.2831853071796004 $316 $355 forward 7 unknown #
ptlist-eye-attrib $-1 $-1 $-1 $318 #
vertex $-1 $318 $356 #
ellipse-curve $-1 0 0 0.020320000000000008 0 6.1230317691118863e-017 1 -0.020065999999999997 0 0 1 I I #
face $-1 $357 $358 $3 $-1 $359 forward single #
loop $-1 $360 $361 $320 #
plane-surface $-1 -0.022923499999999999 6.9388939039072284e-018 0.088899999999999993 0 6.1230317691118863e-017 1 1 0 0 forward_v I I I I #
loop $-1 $-1 $344 $300 #
coedge $-1 $343 $343 $362 $363 reversed $321 $-1 #
coedge $-1 $344 $344 $324 $345 forward $342 $-1 #
edge $364 $365 0 $365 6.2831853071796004 $344 $366 forward 7 unknown #
ptlist-eye-attrib $-1 $-1 $-1 $326 #
vertex $-1 $326 $367 #
ellipse-curve $-1 0 6.9388939039072284e-018 0.077186792967810738 0 6.1230317691118863e-017 1 -0.030225999999999999 0 0 1 I I #
point $-1 -0.030225999999999999 6.9388939039072284e-018 0.063500000000000001 #
point $-1 -0.020065999999999997 0 0.013970000000000007 #
coedge $-1 $351 $351 $334 $352 reversed $368 $-1 #
edge $369 $370 0 $370 6.2831853071796004 $334 $371 forward 7 unknown #
ptlist-eye-attrib $-1 $-1 $-1 $335 #
vertex $-1 $335 $372 #
ellipse-curve $-1 0 0 0.020320000000000008 0 6.1230317691118863e-017 1 -0.015875 0 0 1 I I #
point $-1 -0.020065999999999997 0 0.020320000000000008 #
face $-1 $218 $368 $3 $-1 $373 forward single #
loop $-1 $374 $375 $339 #
cone-surface $-1 0 6.9388939039072284e-018 0.069849999999999995 0 6.1230317691118863e-017 1 -0.020447 0 0 1 I I 0 -1 0.020447 forward I I I I #
loop $-1 $-1 $362 $320 #
coedge $-1 $361 $361 $376 $377 reversed $340 $-1 #
coedge $-1 $362 $362 $343 $363 forward $360 $-1 #
edge $378 $379 0 $379 6.2831853071796004 $362 $380 forward 7 unknown #
ptlist-eye-attrib $-1 $-1 $-1 $345 #
vertex $-1 $345 $381 #
ellipse-curve $-1 0 6.9388939039072284e-018 0.077186792967810738 0 6.1230317691118863e-017 1 -0.025400000000000002 0 0 1 I I #
point $-1 -0.030225999999999999 6.9388939039072284e-018 0.077186792967810738 #
loop $-1 $382 $351 $357 #
ptlist-eye-attrib $-1 $-1 $-1 $352 #
vertex $-1 $352 $383 #
ellipse-curve $-1 0 0 0.040640000000000003 0 6.1230317691118863e-017 1 -0.015874999999999993 0 0 1 I I #
point $-1 -0.015875 0 0.020320000000000008 #
cone-surface $-1 0 0 0.045720000000000011 0 6.1230317691118863e-017 1 -0.018160999999999997 0 0 1 I I -0.41036467732879855 -0.91192150517510606 0.018160999999999997 forward I I I I #
loop $-1 $-1 $376 $339 #
coedge $-1 $375 $375 $384 $385 reversed $358 $-1 #
coedge $-1 $376 $376 $361 $377 forward $374 $-1 #
edge $386 $387 0 $387 6.2831853071796004 $376 $388 forward 7 unknown #
ptlist-eye-attrib $-1 $-1 $-1 $363 #
vertex $-1 $363 $389 #
ellipse-curve $-1 0 6.9388939039072284e-018 0.088899999999999993 0 6.1230317691118863e-017 1 -0.025400000000000002 0 0 1 I I #
point $-1 -0.025400000000000002 6.9388939039072284e-018 0.077186792967810738 #
loop $-1 $-1 $384 $357 #
point $-1 -0.015874999999999993 0 0.040640000000000003 #
coedge $-1 $384 $384 $375 $385 forward $382 $-1 #
edge $390 $391 -2.0779120563466892e-032 $391 6.2831853071796004 $384 $392 forward 7 unknown #
ptlist-eye-attrib $-1 $-1 $-1 $377 #
vertex $-1 $377 $393 #
ellipse-curve $-1 0 6.9388939039072284e-018 0.088899999999999993 0 6.1230317691118863e-017 1 -0.020446999999999996 0 0 1 I I #
point $-1 -0.025400000000000002 6.9388939039072284e-018 0.088899999999999993 #
ptlist-eye-attrib $-1 $-1 $-1 $385 #
vertex $-1 $385 $394 #
ellipse-curve $-1 0 0 0.050800000000000012 0 6.1230317691118863e-017 1 -0.020447000000000003 0 0 1 I I #
point $-1 -0.020446999999999996 6.9388939039072284e-018 0.088899999999999993 #
point $-1 -0.020447000000000003 0 0.050800000000000005 #
End-of-ACIS-data 