600 0 1 0           
83 GICL ACIS Healer - Source: /gicl/data5/repository/VDS/connector/connector.sat - 6 0 18 ACIS 6.0.3 Solaris 24 Sat Apr 13 20:04:28 2002 
1 9.999999999999999547e-07 1.000000000000000036e-10 
body $-1 $1 $-1 $-1 #
lump $-1 $-1 $2 $0 #
shell $-1 $-1 $-1 $3 $-1 $1 #
face $-1 $4 $5 $2 $-1 $6 forward single #
face $-1 $7 $8 $2 $-1 $9 forward single #
loop $-1 $10 $11 $3 #
torus-surface $-1 0.3104867213810031945 -0.1403211890561903985 0.169834467675187617 0 6.123031769111886291e-17 1 1.940000000000000169 0.05999999999999999778 1 0 0 forward_v I I I I #
face $-1 $12 $13 $2 $-1 $14 forward single #
loop $-1 $15 $16 $4 #
plane-surface $-1 -1.284513278618996779 -0.1403211890561903985 0.2298344676751875593 0 6.123031769111886291e-17 1 39.37007874015747433 0 0 forward_v I I I I #
loop $-1 $-1 $17 $3 #
coedge $-1 $11 $11 $18 $19 forward $5 $-1 #
face $-1 $20 $21 $2 $-1 $22 forward single #
loop $-1 $23 $24 $7 #
cone-surface $-1 0.3104867213810031945 -0.1403211890561903985 0.02983446767518760367 0 6.123031769111886291e-17 1 -2 0 0 1 I I 0 1 2 forward I I I I #
loop $-1 $25 $26 $4 #
coedge $-1 $16 $16 $27 $28 reversed $8 $-1 #
coedge $-1 $17 $17 $29 $30 forward $10 $-1 #
coedge $-1 $18 $18 $11 $19 reversed $23 $-1 #
edge $-1 $31 -3.141592653589799777 $31 3.141592653589786455 $18 $32 forward 7 unknown #
face $-1 $33 $34 $2 $-1 $35 forward single #
loop $-1 $36 $27 $12 #
torus-surface $-1 0.3104867213810031945 -0.140321189056190454 0.289834467675187557 0 6.123031769111886291e-17 1 1.249999999999999778 -0.05999999999999999778 1 0 0 forward_v I I I I #
loop $-1 $-1 $18 $7 #
coedge $-1 $24 $24 $37 $38 forward $13 $-1 #
loop $-1 $39 $40 $4 #
coedge $-1 $26 $26 $41 $42 forward $15 $-1 #
coedge $-1 $27 $27 $16 $28 forward $21 $-1 #
edge $-1 $43 -3.141592653589799777 $43 3.141592653589786455 $16 $44 forward 7 unknown #
coedge $-1 $29 $29 $17 $30 reversed $45 $-1 #
edge $-1 $46 -3.141592653589799777 $46 3.141592653589786455 $29 $47 forward 7 unknown #
vertex $-1 $19 $48 #
ellipse-curve $-1 0.3104867213810031945 -0.1403211890561903985 0.169834467675187617 0 6.123031769111886291e-17 1 2 1.395368738089930481e-14 0 1 I I #
face $-1 $49 $50 $2 $-1 $51 reversed single #
loop $-1 $52 $53 $20 #
cone-surface $-1 0.3104867213810031945 -0.1403211890561903985 1.179834467675187071 0 6.123031769111886291e-17 1 -1.189999999999999725 0 0 1 I I 0 1 1.189999999999999725 forward I I I I #
loop $-1 $-1 $54 $12 #
coedge $-1 $37 $37 $24 $38 reversed $55 $-1 #
edge $-1 $56 8.497413563224151938e-34 $56 6.283185307179586232 $24 $57 forward 7 unknown #
loop $-1 $58 $59 $4 #
coedge $-1 $40 $40 $60 $61 forward $25 $-1 #
coedge $-1 $41 $41 $26 $42 reversed $62 $-1 #
edge $-1 $63 -1.224606353822390817e-16 $63 6.283185307179586232 $26 $64 forward 7 unknown #
vertex $-1 $28 $65 #
ellipse-curve $-1 0.3104867213810031945 -0.140321189056190454 0.2298344676751875593 0 6.123031769111886291e-17 1 1.249999999999999778 8.789810085343372144e-15 -5.38202863970175364e-31 1 I I #
loop $-1 $-1 $29 $4 #
vertex $-1 $30 $66 #
ellipse-curve $-1 0.3104867213810031945 -0.1403211890561903985 0.2298344676751875593 0 -6.123031769111886291e-17 -1 1.940000000000000169 1.353507675947232742e-14 -8.287570499561701317e-31 1 I I #
point $-1 -1.689513278618996805 -0.1403211890561903707 0.169834467675187617 #
face $-1 $67 $68 $2 $-1 $69 reversed single #
loop $-1 $70 $71 $33 #
cone-surface $-1 0.3104867213810019178 -1.479109298954795593 1.029834467675182053 1.395369299565883493e-16 1 5.606517854139791979e-15 -0.1249999999999999861 1.744211624457244666e-17 1.964235661311952241e-16 1 I I 0 1 0.1249999999999999861 forward I I I I #
loop $-1 $72 $73 $20 #
coedge $-1 $53 $53 $74 $75 reversed $34 $-1 #
coedge $-1 $54 $54 $76 $77 forward $36 $-1 #
loop $-1 $78 $37 $79 #
vertex $-1 $38 $80 #
ellipse-curve $-1 0.3104867213810031945 -0.1403211890561903985 -0.1701655323248124074 0 6.123031769111886291e-17 1 -2 0 0 1 I I #
loop $-1 $45 $81 $4 #
coedge $-1 $59 $59 $82 $83 forward $39 $-1 #
coedge $-1 $60 $60 $40 $61 reversed $84 $-1 #
edge $-1 $85 -6.123031769111886291e-17 $85 6.283185307179586232 $40 $86 forward 7 unknown #
loop $-1 $-1 $41 $87 #
vertex $-1 $42 $88 #
ellipse-curve $-1 0.310486721381003028 -1.740321189056179607 0.2298344676751823967 0 -6.123031769111886291e-17 -1 -0.1999999999999999833 2.44921270764475427e-17 0 1 I I #
point $-1 -0.9395132786189965834 -0.1403211890561905095 0.2298344676751875593 #
point $-1 -1.629513278618996974 -0.1403211890562174602 0.2298344676751875593 #
face $-1 $89 $90 $2 $-1 $91 forward single #
loop $-1 $92 $93 $49 #
cone-surface $-1 -1.028301388517600445 -0.1403211890561919806 1.029834467675184051 1 -4.242483100935835057e-16 3.410574773987651298e-15 7.371219520185823271e-17 0.1249999999999999861 1.97257032756581463e-16 1 I I 0 1 0.1249999999999999861 forward I I I I #
loop $-1 $-1 $94 $33 #
coedge $-1 $71 $71 $95 $96 reversed $50 $-1 #
loop $-1 $97 $98 $20 #
coedge $-1 $73 $73 $99 $100 forward $52 $-1 #
coedge $-1 $74 $74 $53 $75 forward $101 $-1 #
edge $-1 $102 -2.332401312237724413e-16 $102 6.283185307179586232 $74 $103 forward 7 unknown #
coedge $-1 $76 $76 $54 $77 reversed $104 $-1 #
edge $-1 $105 -3.141592653589799777 $105 3.141592653589786455 $76 $106 forward 7 unknown #
loop $-1 $107 $108 $79 #
face $-1 $87 $55 $2 $-1 $109 forward single #
point $-1 -1.689513278618996805 -0.1403211890561903985 -0.1701655323248123797 #
coedge $-1 $81 $81 $110 $111 forward $58 $-1 #
coedge $-1 $82 $82 $59 $83 reversed $112 $-1 #
edge $-1 $113 1.359586170115864836e-30 $113 6.283185307179586232 $59 $114 forward 7 unknown #
loop $-1 $-1 $60 $115 #
vertex $-1 $61 $116 #
ellipse-curve $-1 -1.289513278618986458 -0.1403211890561899544 0.2298344676751875593 0 -6.123031769111886291e-17 -1 1.224606353822377135e-17 0.1999999999999999833 0 1 I I #
face $-1 $115 $117 $2 $-1 $118 reversed single #
point $-1 0.1104867213810030169 -1.740321189056179607 0.2298344676751868376 #
face $-1 $79 $119 $2 $-1 $120 forward single #
loop $-1 $121 $122 $67 #
cone-surface $-1 0.3104867213810031945 -0.1403211890561903985 -0.1101655323248126872 0 -6.123031769111886291e-17 -1 0.6849999999999999423 0 0 1 I I -0.7071067811865483499 -0.7071067811865466846 0.6849999999999999423 forward I I I I #
loop $-1 $-1 $123 $49 #
coedge $-1 $93 $93 $124 $125 reversed $68 $-1 #
coedge $-1 $94 $94 $126 $127 reversed $70 $-1 #
coedge $-1 $95 $95 $71 $96 forward $128 $-1 #
edge $-1 $129 0 $129 0.0191508528949615453 $95 $130 forward 7 unknown #
loop $-1 $128 $124 $20 #
coedge $-1 $98 $98 $131 $132 forward $72 $-1 #
coedge $-1 $99 $99 $73 $100 reversed $133 $-1 #
edge $-1 $134 0 $134 0.01915085289496153836 $73 $135 forward 7 unknown #
loop $-1 $-1 $74 $136 #
vertex $-1 $75 $137 #
ellipse-curve $-1 0.3104867213810031945 -0.1403211890561903985 2.12983446767518636 0 6.123031769111886291e-17 1 -1.189999999999999725 0 0 1 I I #
loop $-1 $-1 $76 $20 #
vertex $-1 $77 $138 #
ellipse-curve $-1 0.3104867213810031945 -0.140321189056190454 0.289834467675187557 0 -6.123031769111886291e-17 -1 1.189999999999999725 8.367899201246890408e-15 0 1 I I #
loop $-1 $139 $140 $79 #
coedge $-1 $108 $108 $141 $142 forward $78 $-1 #
plane-surface $-1 -1.002013278618996805 -0.1403211890561903985 -0.1701655323248126017 0 -6.123031769111886291e-17 -1 -39.37007874015747433 0 0 forward_v I I I I #
coedge $-1 $110 $110 $81 $111 reversed $143 $-1 #
edge $-1 $144 -1.608142872339124452e-16 $144 6.283185307179586232 $81 $145 forward 7 unknown #
loop $-1 $-1 $82 $146 #
vertex $-1 $83 $147 #
ellipse-curve $-1 0.3104867213810031945 1.459678810943799698 0.2298344676751823967 0 -6.123031769111886291e-17 -1 0.1999999999999999833 0 0 1 I I #
face $-1 $148 $149 $2 $-1 $150 reversed single #
point $-1 -1.289513278618986458 0.05967881094381002893 0.2298344676751868376 #
loop $-1 $62 $151 $87 #
cone-surface $-1 0.310486721381003028 -1.740321189056179607 0.2298344676751868376 3.956807348506633812e-31 3.231085104332676039e-15 -1 -0.1999999999999999833 2.44921270764475427e-17 0 1 I I 0 1 0.1999999999999999833 forward I I I I #
loop $-1 $152 $153 $89 #
cone-surface $-1 0.3104867213810031945 -0.1403211890561903985 0.1048344676751873927 0 6.123031769111886291e-17 1 -0.624999999999999889 0 0 1 I I 0 -1 0.624999999999999889 forward I I I I #
loop $-1 $-1 $154 $67 #
coedge $-1 $122 $122 $155 $156 forward $90 $-1 #
coedge $-1 $123 $123 $157 $158 reversed $92 $-1 #
coedge $-1 $124 $124 $93 $125 forward $97 $-1 #
edge $-1 $159 0 $159 0.01915085289496154877 $124 $160 forward 7 unknown #
coedge $-1 $126 $126 $94 $127 forward $161 $-1 #
edge $-1 $162 0 $162 0.01919146129072158563 $126 $163 forward 7 unknown #
loop $-1 $104 $95 $20 #
vertex $-1 $96 $164 #
intcurve-curve $-1 forward { surfintcur full nubs 3 periodic 17 
	0 3 0.001196930788336087728 2 0.002393861576672175456 2 0.003590787400206281108 2 0.004787713223740386326 2 
	0.005984639047274490677 2 0.007181564870808595027 2 0.008378495659144682972 2 0.009575426447480770917 2 0.0107723572358168658 2 
	0.01196928802415295895 2 0.01316621384768706937 2 0.01436313967122117806 2 0.01556006549475529022 2 0.01675699131828940064 2 
	0.01795392210662547297 2 0.0191508528949615453 3 
	0.1854867213810019455 -1.323737852788791081 1.029834467675182941 
	0.1854867213810019178 -1.323737852788791081 1.045542220802953226 
	0.188628537108396499 -1.324085483020401632 1.062288794277319814 
	0.2013883469239087787 -1.325324496225462223 1.093083160882034832 
	0.211006687158761197 -1.326207958856920666 1.107131128749579085 
	0.2331900142989100089 -1.327860209907828715 1.129314455889727897 
	0.2472380016602941932 -1.328741581753787759 1.138932831154519043 
	0.2780324296802888506 -1.329975875514434414 1.151692666400981446 
	0.2947790334081134556 -1.330321189056190123 1.154834467675182719 
	0.3261944093538904355 -1.330321189056190123 1.154834467675182719 
	0.3429410130817150404 -1.329975875514434192 1.151692666400981446 
	0.3737354411017096423 -1.328741581753787759 1.138932831154519043 
	0.3877834284630938821 -1.327860209907828937 1.129314455889727897 
	0.4099667556032426941 -1.326207958856920666 1.107131128749579085 
	0.4195850958380951123 -1.325324496225462223 1.093083160882034832 
	0.432344905653607392 -1.324085483020401632 1.062288794277319814 
	0.4354867213810019733 -1.323737852788791303 1.045542220802953226 
	0.4354867213810019178 -1.323737852788791303 1.014126714547412655 
	0.4323449056536074475 -1.324085483020401854 0.9973801410730462891 
	0.4195850958380949458 -1.325324496225462223 0.9665857744683310493 
	0.4099667556032424165 -1.326207958856920666 0.952537806600786352 
	0.3877834284630933825 -1.327860209907828937 0.9303544794606375401 
	0.3737354411017090872 -1.328741581753788203 0.9207361041958463943 
	0.3429410130817143187 -1.329975875514434636 0.9079762689493844352 
	0.3261944093538896583 -1.330321189056190123 0.9048344676751827187 
	0.2947790334081125119 -1.330321189056190123 0.9048344676751831628 
	0.2780324296802877959 -1.329975875514434414 0.9079762689493848793 
	0.2472380016602931385 -1.328741581753787759 0.9207361041958475045 
	0.2331900142989091207 -1.327860209907828715 0.9303544794606386503 
	0.2110066871587605863 -1.326207958856920444 0.9525378066007876843 
	0.2013883469239083623 -1.325324496225461779 0.9665857744683321595 
	0.1886285371083963325 -1.32408548302040141 0.9973801410730467332 
	0.1854867213810019455 -1.323737852788791081 1.0141267145474131 
	0.1854867213810019455 -1.323737852788791081 1.029834467675182941 
	0.003785810089095468546 
	cone 0.3104867213810019178 -1.479109298954795593 1.029834467675182053 1.395369299565883493e-16 1 5.606517854139791979e-15 -0.1249999999999999861 1.744211624457244666e-17 1.964235661311952241e-16 1 I I 0 1 0.1249999999999999861 forward I I I I 
	cone 0.3104867213810031945 -0.1403211890561903985 1.179834467675187071 0 6.123031769111886291e-17 1 -1.189999999999999725 0 0 1 I I 0 1 1.189999999999999725 forward I I I I 
	nullbs 
	nullbs 
	I I 
	0 
	0 
	0 
	} I I #
coedge $-1 $131 $131 $98 $132 reversed $165 $-1 #
edge $-1 $166 0 $166 0.0191508528949615453 $98 $167 forward 7 unknown #
loop $-1 $168 $99 $169 #
vertex $-1 $100 $170 #
intcurve-curve $-1 forward { surfintcur full nubs 3 periodic 17 
	0 3 0.001196930788336085993 2 0.002393861576672171986 2 0.003590787400206276771 2 0.004787713223740381122 2 
	0.005984639047274485472 2 0.007181564870808589823 2 0.008378495659144676033 2 0.009575426447480762243 2 0.01077235723581685713 2 
	0.01196928802415295201 2 0.01316621384768706243 2 0.01436313967122117286 2 0.01556006549475528154 2 0.01675699131828939023 2 
	0.01795392210662546256 2 0.01915085289496153836 3 
	0.4354867213810031945 1.043095474676410284 1.029834467675184495 
	0.4354867213810031945 1.043095474676410284 1.045542220802954558 
	0.4323449056536087243 1.043443104908021057 1.062288794277321147 
	0.4195850958380965001 1.044682118113081426 1.093083160882036164 
	0.4099667556032439153 1.045565580744539869 1.107131128749580418 
	0.3877834284630951034 1.047217831795447918 1.12931445588972923 
	0.373735441101710919 1.048099203641406962 1.138932831154520375 
	0.3429410130817163171 1.049333497402053617 1.151692666400982779 
	0.3261944093538917122 1.049678810943809326 1.154834467675184273 
	0.2947790334081146768 1.049678810943809326 1.154834467675184273 
	0.2780324296802901274 1.049333497402053617 1.151692666400982779 
	0.2472380016602954977 1.048099203641406962 1.138932831154520375 
	0.2331900142989113411 1.047217831795447918 1.12931445588972923 
	0.2110066871587625015 1.045565580744539869 1.107131128749580418 
	0.2013883469239098889 1.044682118113081426 1.093083160882036164 
	0.1886285371083976647 1.043443104908021057 1.062288794277321147 
	0.1854867213810032223 1.043095474676410284 1.045542220802954558 
	0.1854867213810031945 1.043095474676410284 1.014126714547413988 
	0.188628537108397748 1.043443104908021057 0.9973801410730473993 
	0.201388346923910222 1.044682118113081426 0.9665857744683323816 
	0.2110066871587626958 1.045565580744539869 0.9525378066007879063 
	0.233190014298911702 1.04721783179544814 0.9303544794606390944 
	0.2472380016602959973 1.048099203641406962 0.9207361041958479486 
	0.278032429680290849 1.049333497402053617 0.9079762689493857675 
	0.2947790334081155095 1.049678810943809326 0.904834467675184273 
	0.3261944093538926559 1.049678810943809326 0.9048344676751844951 
	0.3429410130817172608 1.049333497402053617 0.9079762689493862116 
	0.3737354411017118627 1.048099203641406962 0.9207361041958490588 
	0.3877834284630960471 1.047217831795447918 0.9303544794606399826 
	0.4099667556032445814 1.045565580744539869 0.9525378066007890165 
	0.4195850958380966667 1.044682118113081426 0.9665857744683334918 
	0.4323449056536087243 1.043443104908021057 0.9973801410730480654 
	0.4354867213810031945 1.043095474676410284 1.014126714547414432 
	0.4354867213810031945 1.043095474676410284 1.029834467675184495 
	0.00378581008909542778 
	cone 0.3104867213810031945 1.198466920842410577 1.029834467675183829 0 -1 4.058033206341682408e-15 0.1249999999999999861 0 0 1 I I 0 1 0.1249999999999999861 forward I I I I 
	cone 0.3104867213810031945 -0.1403211890561903985 1.179834467675187071 0 6.123031769111886291e-17 1 -1.189999999999999725 0 0 1 I I 0 1 1.189999999999999725 forward I I I I 
	nullbs 
	nullbs 
	I I 
	0 
	0 
	0 
	} I I #
face $-1 $171 $172 $2 $-1 $173 forward single #
point $-1 -0.8795132786189965302 -0.1403211890561901209 2.12983446767518636 #
point $-1 -0.8795132786189965302 -0.1403211890562071351 0.289834467675187557 #
loop $-1 $174 $175 $79 #
coedge $-1 $140 $140 $176 $177 forward $107 $-1 #
coedge $-1 $141 $141 $108 $142 reversed $178 $-1 #
edge $-1 $179 1.608142872339124452e-16 $179 6.283185307179586232 $108 $180 forward 7 unknown #
loop $-1 $-1 $110 $181 #
vertex $-1 $111 $182 #
ellipse-curve $-1 1.910486721380992847 -0.140321189056190343 0.2298344676751772897 0 -6.123031769111886291e-17 -1 -3.216285744678248657e-17 -0.1999999999999999833 0 1 I I #
face $-1 $181 $183 $2 $-1 $184 reversed single #
point $-1 0.5104867213810031501 1.459678810943799698 0.2298344676751868376 #
face $-1 $169 $165 $2 $-1 $185 reversed single #
loop $-1 $84 $186 $115 #
cone-surface $-1 -1.289513278618986458 -0.1403211890561899544 0.2298344676751868376 3.231085104332676039e-15 -1.978403674253316906e-31 -1 1.224606353822377135e-17 0.1999999999999999833 0 1 I I 0 1 0.1999999999999999833 forward I I I I #
coedge $-1 $151 $151 $187 $188 reversed $117 $-1 #
loop $-1 $-1 $155 $89 #
coedge $-1 $153 $153 $189 $190 forward $119 $-1 #
coedge $-1 $154 $154 $191 $192 forward $121 $-1 #
coedge $-1 $155 $155 $122 $156 reversed $152 $-1 #
edge $-1 $193 -3.141592653589799777 $193 3.141592653589786455 $155 $194 forward 7 unknown #
coedge $-1 $157 $157 $123 $158 forward $195 $-1 #
edge $-1 $196 0 $196 0.01919146129072158216 $157 $197 forward 7 unknown #
vertex $-1 $125 $198 #
intcurve-curve $-1 forward { surfintcur full nubs 3 periodic 17 
	0 3 0.001196930788336089246 2 0.002393861576672178491 2 0.003590787400206281975 2 0.004787713223740385458 2 
	0.005984639047274489809 2 0.007181564870808595027 2 0.008378495659144684707 2 0.009575426447480774386 2 0.01077235723581686927 2 
	0.01196928802415296415 2 0.01316621384768707458 2 0.014363139671221185 2 0.01556006549475529369 2 0.01675699131828940411 2 
	0.01795392210662547644 2 0.01915085289496154877 3 
	-0.8729299423515979317 -0.01532118905619206384 1.029834467675184717 
	-0.8729299423515979317 -0.01532118905619206384 1.04554222080295478 
	-0.8732775725832084834 -0.01846300478358650632 1.062288794277321369 
	-0.874516585788268852 -0.03122281459909882761 1.093083160882036386 
	-0.8754000484197272947 -0.04084115483395135693 1.107131128749580862 
	-0.8770522994706353437 -0.06302448197410021047 1.129314455889729674 
	-0.8779336713165941664 -0.0770724693354844087 1.138932831154520819 
	-0.8791679650772405985 -0.1078668973554789967 1.151692666400983223 
	-0.8795132786189965302 -0.1246135010833035323 1.154834467675184717 
	-0.8795132786189967522 -0.156028877029080526 1.154834467675184717 
	-0.8791679650772410426 -0.1727754807569050755 1.151692666400983223 
	-0.8779336713165943884 -0.2035699087768996773 1.138932831154520819 
	-0.8770522994706351216 -0.2176178961382838895 1.129314455889729674 
	-0.8754000484197268506 -0.2398012232784327569 1.107131128749580862 
	-0.8745165857882681859 -0.2494195635132852029 1.093083160882036164 
	-0.8732775725832078173 -0.2621793733287974271 1.062288794277321147 
	-0.8729299423515974876 -0.2653211890561920638 1.045542220802955002 
	-0.8729299423515974876 -0.2653211890561920638 1.014126714547414432 
	-0.8732775725832078173 -0.2621793733287975381 0.9973801410730476213 
	-0.8745165857882681859 -0.2494195635132850364 0.9665857744683326036 
	-0.8754000484197268506 -0.2398012232784325903 0.9525378066007881284 
	-0.8770522994706351216 -0.2176178961382835564 0.9303544794606393165 
	-0.8779336713165941664 -0.2035699087768992332 0.9207361041958481707 
	-0.8791679650772408205 -0.1727754807569043816 0.9079762689493862116 
	-0.8795132786189965302 -0.1560288770290797766 0.9048344676751844951 
	-0.8795132786189967522 -0.1246135010833026302 0.9048344676751849391 
	-0.8791679650772410426 -0.1078668973554779975 0.9079762689493866556 
	-0.8779336713165943884 -0.07707246933548338175 0.9207361041958492809 
	-0.8770522994706353437 -0.06302448197409919739 0.9303544794606404267 
	-0.8754000484197270726 -0.04084115483395069079 0.9525378066007894606 
	-0.87451658578826863 -0.03122281459909855006 0.9665857744683334918 
	-0.8732775725832082614 -0.01846300478358650632 0.9973801410730482875 
	-0.8729299423515979317 -0.01532118905619206384 1.014126714547414654 
	-0.8729299423515979317 -0.01532118905619206384 1.029834467675184717 
	0.003785810089095478521 
	cone -1.028301388517600445 -0.1403211890561919806 1.029834467675184051 1 -4.242483100935835057e-16 3.410574773987651298e-15 7.371219520185823271e-17 0.1249999999999999861 1.97257032756581463e-16 1 I I 0 1 0.1249999999999999861 forward I I I I 
	cone 0.3104867213810031945 -0.1403211890561903985 1.179834467675187071 0 6.123031769111886291e-17 1 -1.189999999999999725 0 0 1 I I 0 1 1.189999999999999725 forward I I I I 
	nullbs 
	nullbs 
	I I 
	0 
	0 
	0 
	} I I #
loop $-1 $195 $126 $199 #
vertex $-1 $127 $200 #
intcurve-curve $-1 forward { surfintcur full nubs 3 periodic 17 
	0 3 0.001199499937451374912 2 0.002398999874902749824 2 0.00359843259879158656 2 0.004797865322680423296 2 
	0.005997298046569260466 2 0.007196730770458096768 2 0.008396230707909447394 2 0.009595730645360796285 2 0.01079523058281218681 2 
	0.0119947305202635756 2 0.01319416324415240496 2 0.01439359596804123606 2 0.01559302869193006542 2 0.01679246141581889479 2 
	0.01799196135327024021 2 0.01919146129072158563 3 
	0.1854867213810020288 -0.7526936247519846468 1.029834467675186271 
	0.1854867213810020288 -0.7526936247519846468 1.014092998679761326 
	0.188642249914704685 -0.7533688942019630685 0.99733302673234836 
	0.2014101555600483762 -0.7557588818987529544 0.9665472098283947044 
	0.211023833606991118 -0.7574575454336059943 0.9525206601525599837 
	0.2331722933003656517 -0.7606216111040881023 0.930372200459185672 
	0.2471991354701624233 -0.7623050683905506775 0.9207580374971506831 
	0.2779857823708670739 -0.7646617874651606694 0.9079897884564258614 
	0.2947461344533278682 -0.7653211890561902875 0.9048344676751858273 
	0.3262273083086779102 -0.7653211890561902875 0.9048344676751862714 
	0.3429876603911388155 -0.7646617874651606694 0.9079897884564263055 
	0.3737743072918432441 -0.7623050683905507885 0.9207580374971515713 
	0.3878011494616397381 -0.7606216111040883243 0.9303722004591867822 
	0.4099496091550137167 -0.7574575454336063274 0.9525206601525613159 
	0.419563287201956403 -0.7557588818987531765 0.9665472098283962588 
	0.4323311928472995391 -0.7533688942019634016 0.9973330267323492482 
	0.4354867213810020288 -0.7526936247519850909 1.014092998679761548 
	0.4354867213810020288 -0.7526936247519850909 1.045575936670611217 
	0.4323311928472993726 -0.7533688942019636237 1.062335908618024405 
	0.4195632872019551818 -0.7557588818987535095 1.093121725521978282 
	0.4099496091550122179 -0.7574575454336065494 1.107148275197813447 
	0.3878011494616373511 -0.7606216111040885464 1.129296734891187315 
	0.373774307291840524 -0.7623050683905511216 1.138910897853222082 
	0.342987660391135929 -0.7646617874651607805 1.151679146893946459 
	0.3262273083086751901 -0.7653211890561902875 1.154834467675186271 
	0.2947461344533253147 -0.7653211890561902875 1.154834467675185827 
	0.2779857823708645759 -0.7646617874651603364 1.151679146893946015 
	0.2471991354701603971 -0.7623050683905504554 1.138910897853220305 
	0.2331722933003638476 -0.7606216111040878802 1.129296734891185094 
	0.2110238336069900078 -0.7574575454336057723 1.107148275197811005 
	0.20141015556004771 -0.7557588818987528434 1.093121725521976062 
	0.1886422499147044907 -0.7533688942019630685 1.062335908618023517 
	0.1854867213810020288 -0.7526936247519846468 1.045575936670610551 
	0.1854867213810020288 -0.7526936247519846468 1.029834467675186271 
	0.003788169592026493018 
	cone 0.3104867213810019178 -1.479109298954795593 1.029834467675182053 1.395369299565883493e-16 1 5.606517854139791979e-15 -0.1249999999999999861 1.744211624457244666e-17 1.964235661311952241e-16 1 I I 0 1 0.1249999999999999861 forward I I I I 
	cone 0.3104867213810031945 -0.1403211890561903985 1.02983446767518716 0 6.123031769111886291e-17 1 -0.624999999999999889 0 0 1 I I 0 -1 0.624999999999999889 forward I I I I 
	nullbs 
	nullbs 
	I I 
	0 
	0 
	0 
	} I I #
point $-1 0.1854867213810019455 -1.323737852788791081 1.029834467675182941 #
loop $-1 $201 $131 $148 #
vertex $-1 $132 $202 #
intcurve-curve $-1 forward { surfintcur full nubs 3 periodic 17 
	0 3 0.001196930788336094884 2 0.002393861576672189767 2 0.003590787400206300189 2 0.004787713223740410612 2 
	0.005984639047274521034 2 0.007181564870808631457 2 0.008378495659144702054 2 0.009575426447480772651 2 0.01077235723581688315 2 
	0.01196928802415299538 2 0.0131662138476871006 2 0.01436313967122120408 2 0.0155600654947553093 2 0.01675699131828941452 2 
	0.01795392210662547991 2 0.0191508528949615453 3 
	1.493903385113603655 -0.2653211890561933961 1.029834467675182719 
	1.493903385113603655 -0.2653211890561933961 1.045542220802953226 
	1.494251015345214206 -0.2621793733287988148 1.062288794277319814 
	1.495490028550274575 -0.2494195635132864797 1.093083160882034832 
	1.496373491181733018 -0.2398012232784339504 1.107131128749579307 
	1.498025742232641511 -0.2176178961382849164 1.129314455889728119 
	1.498907114078600555 -0.2035699087769005655 1.138932831154519043 
	1.50014140783924721 -0.1727754807569057138 1.151692666400981446 
	1.500486721381002919 -0.1560288770290811367 1.154834467675182719 
	1.500486721381002919 -0.1246135010833039625 1.154834467675182719 
	1.500141407839246988 -0.1078668973554793575 1.15169266640098078 
	1.498907114078600555 -0.0770724693354846585 1.138932831154518377 
	1.498025742232641733 -0.06302448197410055741 1.129314455889726787 
	1.496373491181733684 -0.0408411548339520647 1.107131128749577975 
	1.495490028550275241 -0.03122281459909974355 1.093083160882033722 
	1.494251015345214872 -0.01846300478358774144 1.062288794277319148 
	1.493903385113604321 -0.01532118905619342386 1.045542220802952782 
	1.493903385113604321 -0.01532118905619342386 1.014126714547412433 
	1.494251015345214872 -0.01846300478358803288 0.9973801410730456229 
	1.495490028550275241 -0.03122281459910077051 0.9665857744683299391 
	1.496373491181733906 -0.04084115483395353574 0.9525378066007854638 
	1.498025742232641955 -0.06302448197410294439 0.9303544794606366519 
	1.498907114078600999 -0.07707246933548726753 0.9207361041958459502 
	1.500141407839247432 -0.1078668973554820637 0.9079762689493839911 
	1.500486721381003141 -0.1246135010833066825 0.9048344676751824966 
	1.500486721381002919 -0.1560288770290836902 0.9048344676751831628 
	1.500141407839246988 -0.1727754807569081563 0.9079762689493851013 
	1.498907114078600111 -0.2035699087769025639 0.9207361041958477266 
	1.498025742232641289 -0.2176178961382866928 0.9303544794606388724 
	1.496373491181733018 -0.2398012232784350051 0.9525378066007879063 
	1.495490028550274575 -0.2494195635132872013 0.9665857744683323816 
	1.494251015345214206 -0.2621793733287990369 0.9973801410730467332 
	1.493903385113603655 -0.2653211890561933961 1.0141267145474131 
	1.493903385113603655 -0.2653211890561933961 1.029834467675182719 
	0.003785810089095438622 
	cone 1.649274831279605502 -0.1403211890561934239 1.029834467675182053 -1 8.164042358815893994e-17 5.486279833211149537e-15 -1.748953629490679032e-17 -0.1249999999999999861 1.020505294851980894e-17 1 I I 0 1 0.1249999999999999861 forward I I I I 
	cone 0.3104867213810031945 -0.1403211890561903985 1.179834467675187071 0 6.123031769111886291e-17 1 -1.189999999999999725 0 0 1 I I 0 1 1.189999999999999725 forward I I I I 
	nullbs 
	nullbs 
	I I 
	0 
	0 
	0 
	} I I #
loop $-1 $-1 $203 $169 #
face $-1 $146 $133 $2 $-1 $204 reversed single #
point $-1 0.4354867213810031945 1.043095474676410284 1.029834467675184495 #
face $-1 $205 $206 $2 $-1 $207 forward single #
loop $-1 $101 $208 $136 #
plane-surface $-1 -0.8295132786189964857 -0.1403211890561901209 2.12983446767518636 0 6.123031769111886291e-17 1 39.37007874015747433 0 0 forward_v I I I I #
loop $-1 $209 $187 $79 #
coedge $-1 $175 $175 $186 $210 forward $139 $-1 #
coedge $-1 $176 $176 $140 $177 reversed $183 $-1 #
edge $-1 $211 -1.317099102299743901e-30 $211 6.283185307179586232 $140 $212 forward 7 unknown #
loop $-1 $143 $141 $181 #
vertex $-1 $142 $213 #
ellipse-curve $-1 1.910486721380991515 -0.140321189056190343 -0.1701655323248220109 0 6.123031769111886291e-17 1 -3.216285744678248657e-17 -0.1999999999999999833 0 1 I I #
face $-1 $136 $178 $2 $-1 $214 reversed single #
point $-1 1.910486721380992847 -0.3403211890561903541 0.2298344676751868376 #
loop $-1 $112 $176 $146 #
cone-surface $-1 0.3104867213810031945 1.459678810943799698 0.2298344676751868376 0 -3.231085104332676039e-15 -1 0.1999999999999999833 0 0 1 I I 0 1 0.1999999999999999833 forward I I I I #
cone-surface $-1 1.649274831279605502 -0.1403211890561934239 1.029834467675182053 -1 8.164042358815893994e-17 5.486279833211149537e-15 -1.748953629490679032e-17 -0.1249999999999999861 1.020505294851980894e-17 1 I I 0 1 0.1249999999999999861 forward I I I I #
coedge $-1 $186 $186 $175 $210 reversed $149 $-1 #
coedge $-1 $187 $187 $151 $188 forward $174 $-1 #
edge $-1 $215 1.224606353822390324e-16 $215 6.283185307179586232 $187 $216 forward 7 unknown #
coedge $-1 $189 $189 $153 $190 reversed $217 $-1 #
edge $-1 $218 0 $218 6.283185307179586232 $153 $219 forward 7 unknown #
coedge $-1 $191 $191 $154 $192 reversed $209 $-1 #
edge $-1 $220 -3.141592653589799777 $220 3.141592653589786455 $191 $221 forward 7 unknown #
vertex $-1 $156 $222 #
ellipse-curve $-1 0.3104867213810031945 -0.1403211890561903985 -0.05016553232481280045 0 6.123031769111886291e-17 1 0.624999999999999889 0 0 1 I I #
loop $-1 $223 $157 $199 #
vertex $-1 $158 $224 #
intcurve-curve $-1 forward { surfintcur full nubs 3 periodic 17 
	0 3 0.001199499937451372093 2 0.002398999874902744186 2 0.003598432598791580055 2 0.004797865322680416357 2 
	0.005997298046569253527 2 0.007196730770458089829 2 0.008396230707909440455 2 0.009595730645360791081 2 0.01079523058281217987 2 
	0.01199473052026356866 2 0.01319416324415240149 2 0.01439359596804123259 2 0.01559302869193006369 2 0.01679246141581889479 2 
	0.01799196135327024021 2 0.01919146129072158216 3 
	-0.3018857143147917199 -0.01532118905619229976 1.029834467675186715 
	-0.3018857143147917199 -0.01532118905619229976 1.01409299867976177 
	-0.3025609837647700306 -0.01847671758989494206 0.9973330267323488041 
	-0.3049509714615599165 -0.03124462323523863327 0.9665472098283951485 
	-0.3066496349964129564 -0.04085830128218143065 0.9525206601525604277 
	-0.3098137006668949534 -0.06300676097555593658 0.9303722004591861161 
	-0.3114971579533571955 -0.07703360314535268039 0.9207580374971513493 
	-0.3138538770279669654 -0.107820250046057331 0.9079897884564263055 
	-0.3145132786189966945 -0.1245806021285181392 0.9048344676751864935 
	-0.3145132786189966945 -0.1560617759838681673 0.9048344676751867155 
	-0.3138538770279667434 -0.1728221280663289894 0.9079897884564267496 
	-0.3114971579533568624 -0.2036087749670333902 0.9207580374971520154 
	-0.3098137006668941762 -0.2176356171368299952 0.9303722004591872263 
	-0.3066496349964121793 -0.2397840768302039738 0.95252066015256176 
	-0.3049509714615592504 -0.2493977548771465214 0.9665472098283962588 
	-0.3025609837647693645 -0.2621656605224897407 0.9973330267323492482 
	-0.3018857143147908317 -0.2653211890561922859 1.014092998679761992 
	-0.3018857143147908317 -0.2653211890561922859 1.045575936670611661 
	-0.3025609837647693645 -0.2621656605224895742 1.062335908618024849 
	-0.3049509714615593614 -0.2493977548771456054 1.093121725521978282 
	-0.3066496349964124013 -0.239784076830202475 1.107148275197813447 
	-0.3098137006668947313 -0.2176356171368276637 1.129296734891187981 
	-0.3114971579533570845 -0.2036087749670308922 1.138910897853222748 
	-0.3138538770279670764 -0.1728221280663261861 1.151679146893947348 
	-0.3145132786189966945 -0.1560617759838654472 1.154834467675186938 
	-0.3145132786189966945 -0.124580602128515544 1.154834467675186271 
	-0.3138538770279669654 -0.1078202500460548469 1.151679146893946459 
	-0.3114971579533571955 -0.07703360314535066811 1.138910897853220971 
	-0.3098137006668948423 -0.06300676097555414634 1.129296734891185761 
	-0.3066496349964128454 -0.04085830128218032042 1.107148275197811227 
	-0.3049509714615599165 -0.03124462323523787 1.093121725521976284 
	-0.3025609837647701417 -0.01847671758989477553 1.062335908618023739 
	-0.3018857143147917199 -0.01532118905619229976 1.045575936670610995 
	-0.3018857143147917199 -0.01532118905619229976 1.029834467675186715 
	0.00378816959202646136 
	cone -1.028301388517600445 -0.1403211890561919806 1.029834467675184051 1 -4.242483100935835057e-16 3.410574773987651298e-15 7.371219520185823271e-17 0.1249999999999999861 1.97257032756581463e-16 1 I I 0 1 0.1249999999999999861 forward I I I I 
	cone 0.3104867213810031945 -0.1403211890561903985 1.02983446767518716 0 6.123031769111886291e-17 1 -0.624999999999999889 0 0 1 I I 0 -1 0.624999999999999889 forward I I I I 
	nullbs 
	nullbs 
	I I 
	0 
	0 
	0 
	} I I #
point $-1 -0.8729299423515977097 -0.01532118905619206384 1.029834467675184717 #
face $-1 $225 $161 $2 $-1 $226 forward single #
point $-1 0.1854867213810020288 -0.7526936247519846468 1.029834467675186271 #
loop $-1 $-1 $227 $148 #
point $-1 1.493903385113603655 -0.2653211890561933961 1.029834467675182719 #
coedge $-1 $203 $203 $228 $229 reversed $168 $-1 #
cone-surface $-1 0.3104867213810031945 1.198466920842410577 1.029834467675183829 0 -1 4.058033206341682408e-15 0.1249999999999999861 0 0 1 I I 0 1 0.1249999999999999861 forward I I I I #
face $-1 $230 $231 $2 $-1 $232 forward single #
loop $-1 $233 $234 $171 #
cone-surface $-1 0.3104867213810031945 -0.1403211890561903985 2.229834467675186005 0 6.123031769111886291e-17 1 -1.089999999999999858 0 0 1 I I 0 1 1.089999999999999858 forward I I I I #
coedge $-1 $208 $208 $235 $236 reversed $172 $-1 #
loop $-1 $-1 $191 $79 #
edge $-1 $237 6.123031769111886291e-17 $237 6.283185307179586232 $175 $238 forward 7 unknown #
vertex $-1 $177 $239 #
ellipse-curve $-1 0.3104867213810031945 1.459678810943798366 -0.170165532324817792 0 6.123031769111886291e-17 1 0.1999999999999999833 0 0 1 I I #
point $-1 1.910486721380991515 -0.3403211890561903541 -0.1701655323248134899 #
cone-surface $-1 1.910486721380992847 -0.140321189056190343 0.2298344676751868376 -3.231085104332676039e-15 5.196046480453709253e-31 -1 -3.216285744678248657e-17 -0.1999999999999999833 0 1 I I 0 1 0.1999999999999999833 forward I I I I #
vertex $-1 $188 $240 #
ellipse-curve $-1 0.310486721381003028 -1.740321189056178275 -0.170165532324817792 0 6.123031769111886291e-17 1 -0.1999999999999999833 2.44921270764475427e-17 0 1 I I #
loop $-1 $241 $189 $242 #
vertex $-1 $190 $243 #
ellipse-curve $-1 0.3104867213810031945 -0.1403211890561903985 0.3798344676751875815 0 6.123031769111886291e-17 1 -0.624999999999999889 0 0 1 I I #
vertex $-1 $192 $244 #
ellipse-curve $-1 0.3104867213810031945 -0.1403211890561904263 -0.1701655323248126017 0 -6.123031769111886291e-17 -1 0.7449999999999999956 0 0 1 I I #
point $-1 -0.3145132786189966945 -0.1403211890561860409 -0.05016553232481280045 #
loop $-1 $245 $246 $199 #
point $-1 -0.3018857143147916089 -0.01532118905619229976 1.029834467675186715 #
face $-1 $247 $248 $2 $-1 $249 forward single #
cone-surface $-1 0.3104867213810031945 -0.1403211890561903985 1.02983446767518716 0 6.123031769111886291e-17 1 -0.624999999999999889 0 0 1 I I 0 -1 0.624999999999999889 forward I I I I #
coedge $-1 $227 $227 $246 $250 reversed $201 $-1 #
coedge $-1 $228 $228 $203 $229 forward $245 $-1 #
edge $-1 $251 0 $251 0.01919146129072159257 $228 $252 forward 7 unknown #
face $-1 $253 $254 $2 $-1 $255 forward single #
loop $-1 $256 $257 $205 #
plane-surface $-1 -0.8295132786189964857 -0.1403211890561901209 2.329834467675186538 0 -6.123031769111886291e-17 -1 -39.37007874015747433 0 0 forward_v I I I I #
loop $-1 $-1 $235 $171 #
coedge $-1 $234 $234 $258 $259 reversed $206 $-1 #
coedge $-1 $235 $235 $208 $236 forward $233 $-1 #
edge $-1 $260 -2.546383084002653127e-16 $260 6.283185307179586232 $235 $261 forward 7 unknown #
vertex $-1 $210 $262 #
ellipse-curve $-1 -1.289513278618985126 -0.1403211890561899544 -0.1701655323248135454 0 6.123031769111886291e-17 1 1.224606353822377135e-17 0.1999999999999999833 0 1 I I #
point $-1 0.5104867213810031501 1.459678810943798366 -0.1701655323248134899 #
point $-1 0.1104867213810030169 -1.740321189056178275 -0.1701655323248134899 #
loop $-1 $-1 $263 $242 #
face $-1 $-1 $217 $2 $-1 $264 forward single #
point $-1 -0.3145132786189966945 -0.1403211890561903985 0.3798344676751875815 #
point $-1 -0.4345132786189968011 -0.1403211890561956166 -0.1701655323248126017 #
loop $-1 $265 $228 $199 #
coedge $-1 $246 $246 $227 $250 forward $223 $-1 #
face $-1 $242 $266 $2 $-1 $267 forward single #
loop $-1 $268 $269 $225 #
plane-surface $-1 -0.3970132786189967122 -0.1403211890561903985 0.6298344676751873594 0 -6.123031769111886291e-17 -1 -39.37007874015747433 0 0 forward_v I I I I #
edge $-1 $270 0 $270 0.01919146129072157869 $246 $271 forward 7 unknown #
vertex $-1 $229 $272 #
intcurve-curve $-1 forward { surfintcur full nubs 3 periodic 17 
	0 3 0.001199499937451374044 2 0.002398999874902748089 2 0.003598432598791585259 2 0.004797865322680422429 2 
	0.005997298046569258731 2 0.007196730770458095033 2 0.008396230707909447394 2 0.009595730645360799754 2 0.01079523058281219028 2 
	0.01199473052026357907 2 0.01319416324415240843 2 0.01439359596804123953 2 0.01559302869193006889 2 0.01679246141581889826 2 
	0.01799196135327024715 2 0.01919146129072159257 3 
	0.4354867213810031945 0.4720512466396040718 1.029834467675186715 
	0.4354867213810031945 0.4720512466396040718 1.014092998679761992 
	0.4323311928473005383 0.4727265160895824936 0.9973330267323488041 
	0.4195632872019568471 0.4751165037863723795 0.9665472098283951485 
	0.4099496091550141053 0.4768151673212255304 0.9525206601525606498 
	0.3878011494616395716 0.4799792329917075273 0.9303722004591861161 
	0.3737743072918427445 0.4816626902781699915 0.9207580374971513493 
	0.3429876603911381494 0.4840194093527797614 0.9079897884564263055 
	0.3262273083086773551 0.4846788109438094905 0.9048344676751864935 
	0.2947461344533273131 0.4846788109438094905 0.9048344676751867155 
	0.2779857823708665188 0.4840194093527795394 0.9079897884564267496 
	0.2471991354701620902 0.4816626902781696584 0.9207580374971520154 
	0.2331722933003654574 0.4799792329917073053 0.9303722004591872263 
	0.2110238336069914511 0.4768151673212251973 0.95252066015256176 
	0.2014101555600489868 0.4751165037863722684 0.9665472098283962588 
	0.1886422499147057397 0.4727265160895824936 0.9973330267323494702 
	0.1854867213810031945 0.4720512466396040718 1.014092998679762214 
	0.1854867213810032223 0.4720512466396040718 1.045575936670611883 
	0.1886422499147058507 0.4727265160895824936 1.062335908618025071 
	0.2014101555600500415 0.4751165037863726015 1.093121725521978949 
	0.2110238336069930054 0.4768151673212255304 1.107148275197813891 
	0.2331722933003678166 0.4799792329917076383 1.129296734891187981 
	0.2471991354701646437 0.4816626902781702135 1.138910897853222526 
	0.2779857823708692388 0.4840194093527798724 1.151679146893947125 
	0.2947461344533299776 0.4846788109438094905 1.154834467675186938 
	0.3262273083086798531 0.4846788109438094905 1.154834467675186271 
	0.3429876603911405919 0.4840194093527795394 1.151679146893946459 
	0.3737743072918447429 0.4816626902781696584 1.138910897853220971 
	0.3878011494616412369 0.4799792329917071942 1.129296734891185761 
	0.4099496091550151045 0.4768151673212251973 1.107148275197811449 
	0.4195632872019577908 0.4751165037863722684 1.093121725521976284 
	0.4323311928473008159 0.4727265160895824936 1.062335908618023517 
	0.4354867213810031945 0.4720512466396040718 1.045575936670611217 
	0.4354867213810031945 0.4720512466396040718 1.029834467675186715 
	0.003788169592026454854 
	cone 0.3104867213810031945 1.198466920842410577 1.029834467675183829 0 -1 4.058033206341682408e-15 0.1249999999999999861 0 0 1 I I 0 1 0.1249999999999999861 forward I I I I 
	cone 0.3104867213810031945 -0.1403211890561903985 1.02983446767518716 0 6.123031769111886291e-17 1 -0.624999999999999889 0 0 1 I I 0 -1 0.624999999999999889 forward I I I I 
	nullbs 
	nullbs 
	I I 
	0 
	0 
	0 
	} I I #
face $-1 $273 $274 $2 $-1 $275 forward single #
loop $-1 $276 $277 $230 #
cone-surface $-1 0.3104867213810031945 -0.1403211890561901209 2.59925952609665778 0 6.123031769111886291e-17 1 -1.189999999999999725 0 0 1 I I 0 1 1.189999999999999725 forward I I I I #
loop $-1 $-1 $258 $205 #
coedge $-1 $257 $257 $278 $279 reversed $231 $-1 #
coedge $-1 $258 $258 $234 $259 forward $256 $-1 #
edge $-1 $280 -2.546383084002653127e-16 $280 6.283185307179586232 $258 $281 forward 7 unknown #
vertex $-1 $236 $282 #
ellipse-curve $-1 0.3104867213810031945 -0.1403211890561903985 2.12983446767518636 0 6.123031769111886291e-17 1 -1.089999999999999858 0 0 1 I I #
point $-1 -1.289513278618985126 0.05967881094381002893 -0.1701655323248134899 #
coedge $-1 $263 $263 $283 $284 forward $241 $-1 #
plane-surface $-1 -0.3970132786189967122 -0.1403211890561903985 0.3798344676751874704 0 6.123031769111886291e-17 1 39.37007874015747433 0 0 forward_v I I I I #
loop $-1 $285 $286 $199 #
loop $-1 $287 $283 $247 #
cone-surface $-1 0.3104867213810031945 -0.1403211890561903985 0.5048344676751873594 0 6.123031769111886291e-17 1 -0.7899999999999998135 0 0 1 I I 0 -1 0.7899999999999998135 forward I I I I #
loop $-1 $-1 $288 $225 #
coedge $-1 $269 $269 $289 $290 reversed $248 $-1 #
vertex $-1 $250 $291 #
intcurve-curve $-1 forward { surfintcur full nubs 3 periodic 17 
	0 3 0.001199499937451367322 2 0.002398999874902734645 2 0.003598432598791566177 2 0.004797865322680398142 2 
	0.005997298046569228373 2 0.007196730770458058604 2 0.008396230707909426577 2 0.009595730645360792815 2 0.01079523058281216426 2 
	0.0119947305202635357 2 0.013194163244152372 2 0.01439359596804120831 2 0.01559302869193004634 2 0.01679246141581888438 2 
	0.01799196135327023327 2 0.01919146129072157869 3 
	0.9228591570767969987 -0.2653211890561933961 1.029834467675185827 
	0.9228591570767969987 -0.2653211890561933961 1.014092998679761104 
	0.9235344265267755315 -0.2621656605224907399 0.997333026732348138 
	0.9259244142235654174 -0.2493977548771471875 0.9665472098283947044 
	0.9276230777584185683 -0.2397840768302044179 0.9525206601525602057 
	0.9307871434289007873 -0.2176356171368301062 0.930372200459185672 
	0.9324706007153632514 -0.2036087749670334179 0.9207580374971509052 
	0.9348273197899731324 -0.1728221280663289894 0.9079897884564256394 
	0.9354867213810030835 -0.1560617759838683061 0.9048344676751858273 
	0.9354867213810030835 -0.1245806021285184167 0.9048344676751858273 
	0.9348273197899735765 -0.1078202500460577196 0.9079897884564256394 
	0.9324706007153639176 -0.07703360314535329101 0.9207580374971509052 
	0.9307871434289013424 -0.06300676097555663047 0.930372200459185672 
	0.9276230777584193454 -0.04085830128218229107 0.9525206601525602057 
	0.9259244142235665276 -0.03124462323523938267 0.9665472098283951485 
	0.9235344265267767527 -0.01847671758989595514 0.99733302673234836 
	0.922859157076798331 -0.01532118905619338223 1.014092998679761104 
	0.922859157076798331 -0.01532118905619338223 1.045575936670610773 
	0.9235344265267766417 -0.01847671758989608004 1.062335908618023961 
	0.9259244142235664166 -0.03124462323523967411 1.09312172552197695 
	0.9276230777584193454 -0.04085830128218254087 1.107148275197811671 
	0.9307871434289013424 -0.06300676097555703292 1.129296734891186205 
	0.9324706007153639176 -0.0770336031453537351 1.138910897853221194 
	0.9348273197899735765 -0.1078202500460583718 1.151679146893946237 
	0.9354867213810030835 -0.1245806021285192078 1.154834467675186049 
	0.9354867213810030835 -0.1560617759838692498 1.154834467675185605 
	0.9348273197899731324 -0.1728221280663300996 1.151679146893945793 
	0.9324706007153632514 -0.2036087749670345004 1.138910897853220527 
	0.9307871434289005652 -0.2176356171368311054 1.129296734891185094 
	0.9276230777584184573 -0.2397840768302050563 1.107148275197810561 
	0.9259244142235653063 -0.2493977548771476593 1.09312172552197584 
	0.9235344265267755315 -0.2621656605224907954 1.062335908618022851 
	0.9228591570767969987 -0.2653211890561933961 1.045575936670610551 
	0.9228591570767969987 -0.2653211890561933961 1.029834467675185827 
	0.00378816959202648738 
	cone 1.649274831279605502 -0.1403211890561934239 1.029834467675182053 -1 8.164042358815893994e-17 5.486279833211149537e-15 -1.748953629490679032e-17 -0.1249999999999999861 1.020505294851980894e-17 1 I I 0 1 0.1249999999999999861 forward I I I I 
	cone 0.3104867213810031945 -0.1403211890561903985 1.02983446767518716 0 6.123031769111886291e-17 1 -0.624999999999999889 0 0 1 I I 0 -1 0.624999999999999889 forward I I I I 
	nullbs 
	nullbs 
	I I 
	0 
	0 
	0 
	} I I #
point $-1 0.4354867213810031945 0.4720512466396040718 1.029834467675186715 #
face $-1 $292 $293 $2 $-1 $294 forward single #
loop $-1 $295 $296 $253 #
plane-surface $-1 -0.7845132786189967788 -0.1403211890561901209 2.868684584518129022 0 6.123031769111886291e-17 1 39.37007874015747433 0 0 forward_v I I I I #
loop $-1 $-1 $278 $230 #
coedge $-1 $277 $277 $297 $298 reversed $254 $-1 #
coedge $-1 $278 $278 $257 $279 forward $276 $-1 #
edge $-1 $299 -2.332401312237724413e-16 $299 6.283185307179586232 $278 $300 forward 7 unknown #
vertex $-1 $259 $301 #
ellipse-curve $-1 0.3104867213810031945 -0.1403211890561903985 2.329834467675186538 0 6.123031769111886291e-17 1 -1.089999999999999858 0 0 1 I I #
point $-1 -0.7795132786189966634 -0.1403211890561901209 2.12983446767518636 #
coedge $-1 $283 $283 $263 $284 reversed $266 $-1 #
edge $-1 $302 0 $302 6.283185307179586232 $263 $303 forward 7 unknown #
loop $-1 $-1 $304 $199 #
coedge $-1 $286 $286 $288 $305 reversed $265 $-1 #
loop $-1 $-1 $289 $247 #
coedge $-1 $288 $288 $286 $305 forward $268 $-1 #
coedge $-1 $289 $289 $269 $290 forward $287 $-1 #
edge $-1 $306 0 $306 6.283185307179586232 $289 $307 forward 7 unknown #
point $-1 0.9228591570767969987 -0.2653211890561933961 1.029834467675185827 #
face $-1 $308 $309 $2 $-1 $310 forward single #
loop $-1 $311 $312 $273 #
cone-surface $-1 0.3104867213810031945 -0.1403211890561901209 3.09925952609665778 0 6.123031769111886291e-17 1 -0.999999999999999889 0 0 1 I I 0 1 0.999999999999999889 forward I I I I #
loop $-1 $-1 $297 $253 #
coedge $-1 $296 $296 $313 $314 reversed $274 $-1 #
coedge $-1 $297 $297 $277 $298 forward $295 $-1 #
edge $-1 $315 0 $315 6.283185307179586232 $297 $316 forward 7 unknown #
vertex $-1 $279 $317 #
ellipse-curve $-1 0.3104867213810031945 -0.1403211890561903985 2.329834467675186538 0 6.123031769111886291e-17 1 -1.189999999999999725 0 0 1 I I #
point $-1 -0.7795132786189966634 -0.1403211890561901209 2.329834467675186538 #
vertex $-1 $284 $318 #
ellipse-curve $-1 0.3104867213810031945 -0.1403211890561903985 0.3798344676751873594 0 6.123031769111886291e-17 1 -0.7899999999999998135 0 0 1 I I #
coedge $-1 $304 $304 $319 $320 forward $285 $-1 #
edge $-1 $321 0 $321 6.283185307179586232 $288 $322 forward 7 unknown #
vertex $-1 $290 $323 #
ellipse-curve $-1 0.3104867213810031945 -0.1403211890561903985 0.6298344676751873594 0 6.123031769111886291e-17 1 -0.7899999999999998135 0 0 1 I I #
face $-1 $324 $325 $2 $-1 $326 forward single #
loop $-1 $327 $328 $292 #
plane-surface $-1 -0.5920132786189966634 -0.1403211890561901209 3.329834467675186538 0 6.123031769111886291e-17 1 39.37007874015747433 0 0 forward_v I I I I #
loop $-1 $-1 $313 $273 #
coedge $-1 $312 $312 $329 $330 reversed $293 $-1 #
coedge $-1 $313 $313 $296 $314 forward $311 $-1 #
edge $-1 $331 0 $331 6.283185307179586232 $313 $332 forward 7 unknown #
vertex $-1 $298 $333 #
ellipse-curve $-1 0.3104867213810031945 -0.1403211890561901209 2.868684584518129022 0 6.123031769111886291e-17 1 -1.189999999999999725 0 0 1 I I #
point $-1 -0.8795132786189965302 -0.1403211890561901209 2.329834467675186538 #
point $-1 -0.479513278618996619 -0.1403211890561903985 0.3798344676751873594 #
coedge $-1 $319 $319 $304 $320 reversed $334 $-1 #
edge $-1 $335 0 $335 6.283185307179586232 $304 $336 forward 7 unknown #
vertex $-1 $305 $337 #
ellipse-curve $-1 0.3104867213810031945 -0.1403211890561903985 0.6298344676751873594 0 6.123031769111886291e-17 1 -0.624999999999999889 0 0 1 I I #
point $-1 -0.479513278618996619 -0.1403211890561903985 0.6298344676751873594 #
face $-1 $199 $334 $2 $-1 $338 forward single #
loop $-1 $339 $340 $308 #
cone-surface $-1 0.3104867213810031945 -0.1403211890561901209 2.579834467675186538 0 6.123031769111886291e-17 1 -0.8049999999999998268 0 0 1 I I 0 -1 0.8049999999999998268 forward I I I I #
loop $-1 $-1 $329 $292 #
coedge $-1 $328 $328 $341 $342 reversed $309 $-1 #
coedge $-1 $329 $329 $312 $330 forward $327 $-1 #
edge $-1 $343 0 $343 6.283185307179586232 $329 $344 forward 7 unknown #
vertex $-1 $314 $345 #
ellipse-curve $-1 0.3104867213810031945 -0.1403211890561901209 2.868684584518129022 0 6.123031769111886291e-17 1 -0.999999999999999889 0 0 1 I I #
point $-1 -0.8795132786189965302 -0.1403211890561901209 2.868684584518129022 #
loop $-1 $346 $319 $324 #
vertex $-1 $320 $347 #
ellipse-curve $-1 0.3104867213810031945 -0.1403211890561903985 1.429834467675187071 0 6.123031769111886291e-17 1 -0.6249999999999996669 0 0 1 I I #
point $-1 -0.3145132786189966945 -0.1403211890561903985 0.6298344676751873594 #
cone-surface $-1 0.3104867213810031945 -0.1403211890561903985 1.629834467675187248 0 6.123031769111886291e-17 1 -0.7149999999999997469 0 0 1 I I -0.410364677328798555 -0.9119215051751060619 0.7149999999999997469 forward I I I I #
loop $-1 $-1 $341 $308 #
coedge $-1 $340 $340 $348 $349 reversed $325 $-1 #
coedge $-1 $341 $341 $328 $342 forward $339 $-1 #
edge $-1 $350 0 $350 6.283185307179586232 $341 $351 forward 7 unknown #
vertex $-1 $330 $352 #
ellipse-curve $-1 0.3104867213810031945 -0.1403211890561901209 3.329834467675186538 0 6.123031769111886291e-17 1 -0.999999999999999889 0 0 1 I I #
point $-1 -0.6895132786189966945 -0.1403211890561901209 2.868684584518129022 #
loop $-1 $-1 $348 $324 #
point $-1 -0.3145132786189964724 -0.1403211890561903985 1.429834467675187071 #
coedge $-1 $348 $348 $340 $349 forward $346 $-1 #
edge $-1 $353 -1.688926919398589188e-32 $353 6.283185307179586232 $348 $354 forward 7 unknown #
vertex $-1 $342 $355 #
ellipse-curve $-1 0.3104867213810031945 -0.1403211890561901209 3.329834467675186538 0 6.123031769111886291e-17 1 -0.8049999999999997158 0 0 1 I I #
point $-1 -0.6895132786189966945 -0.1403211890561901209 3.329834467675186538 #
vertex $-1 $349 $356 #
ellipse-curve $-1 0.3104867213810031945 -0.1403211890561903985 1.829834467675187204 0 6.123031769111886291e-17 1 -0.8050000000000000488 0 0 1 I I #
point $-1 -0.4945132786189965213 -0.1403211890561901209 3.329834467675186538 #
point $-1 -0.4945132786189968543 -0.1403211890561903985 1.829834467675186982 #
End-of-ACIS-data 