600 0 2 0           
24 FBMach with ACIS - 6.0.3 13 ACIS 6.0.3 NT 24 Tue May 22 12:25:28 2001 
1 9.9999999999999995e-007 1e-010 
body $2 $3 $-1 $4 #
bdycol-kcp $-1 1 3 $5 $6 $7 #
model_id-kcp-attrib $-1 $-1 $-1 $0 1 990548728 50 1680998401 1 #
lump $-1 $-1 $8 $0 #
transform $-1 1 0 0 0 1 0 0 0 1 0 0 0 1 no_rotate no_reflect no_shear #
body $9 $10 $-1 $11 #
body $12 $13 $-1 $14 #
body $15 $16 $-1 $17 #
shell $-1 $-1 $-1 $18 $-1 $3 #
model_id-kcp-attrib $-1 $-1 $-1 $5 1 990548728 50 1680998402 1 #
lump $-1 $-1 $19 $5 #
transform $-1 1 0 0 0 1 0 0 0 1 0 0 0 1 no_rotate no_reflect no_shear #
rgb_color-st-attrib $-1 $20 $-1 $6 1 0 0 #
lump $-1 $-1 $21 $6 #
transform $-1 3.8285889215894375e-016 -4.6885143195523885e-032 -1 -1.2246063538223773e-016 -1 0 -1 1.2246063538223773e-016 -3.8285889215894375e-016 -142.4772708486752 1.7447857115655943e-014 9.9999999999999662 1 rotate no_reflect no_shear #
rgb_color-st-attrib $-1 $22 $-1 $7 1 0 0 #
lump $-1 $-1 $23 $7 #
transform $-1 -3.8285889215894375e-016 0 -1 0 1 0 1 0 -3.8285889215894375e-016 142.4772708486752 0 9.9999999999999662 1 rotate no_reflect no_shear #
face $24 $25 $26 $8 $-1 $27 reversed single #
shell $-1 $-1 $-1 $28 $-1 $10 #
model_id-kcp-attrib $-1 $-1 $12 $6 1 990548728 260 1677983747 1 #
shell $-1 $-1 $-1 $29 $-1 $13 #
model_id-kcp-attrib $-1 $-1 $15 $7 1 990548728 370 1685192708 1 #
shell $-1 $-1 $-1 $30 $-1 $16 #
model_id-kcp-attrib $-1 $-1 $-1 $18 1 990548728 50 1680998401 2 #
face $31 $32 $33 $8 $-1 $34 forward single #
loop $-1 $-1 $35 $18 #
cone-surface $-1 -20 0 20 -1 0 0 0 -21.213203435596402 -21.213203435596402 1 I I 0 1 29.999999999999964 forward I I I I #
face $36 $37 $38 $19 $-1 $39 forward single #
face $-1 $40 $41 $21 $-1 $42 forward single #
face $-1 $43 $44 $23 $-1 $45 forward single #
model_id-kcp-attrib $-1 $-1 $-1 $25 1 990548728 50 1680998401 3 #
face $46 $47 $48 $8 $-1 $49 forward single #
loop $-1 $-1 $50 $25 #
plane-surface $-1 -20 30 20 0 -1 0 0 0 -1 forward_v I I I I #
coedge $-1 $51 $52 $53 $54 reversed $26 $-1 #
model_id-kcp-attrib $-1 $-1 $-1 $28 1 990548728 50 1680998402 3 #
face $55 $56 $57 $19 $-1 $58 reversed single #
loop $-1 $-1 $59 $28 #
plane-surface $-1 0 0 30 0 0 1 1 0 0 forward_v I I I I #
face $-1 $60 $61 $21 $-1 $62 forward single #
loop $-1 $-1 $63 $29 #
cone-surface $-1 -9.9999999999999858 2.4492127076447545e-015 -122.4772708486752 -3.8285889215894375e-016 1.2246063538223773e-016 1 21.213203435596402 21.213203435596402 5.523881195278934e-015 1 I I 0 1 29.999999999999964 forward I I I I #
face $-1 $64 $65 $23 $-1 $66 reversed single #
loop $-1 $-1 $67 $30 #
cone-surface $-1 -9.9999999999999858 0 -122.4772708486752 3.8285889215894375e-016 0 -1 21.213203435596402 -21.213203435596402 8.1216635664947373e-015 1 I I 0 1 29.999999999999964 forward I I I I #
model_id-kcp-attrib $-1 $-1 $-1 $32 1 990548728 50 1680998401 4 #
face $68 $69 $70 $8 $-1 $71 forward single #
loop $-1 $-1 $72 $32 #
plane-surface $-1 -20 -30 20 0 1 0 0 0 1 forward_v I I I I #
coedge $-1 $73 $74 $75 $76 reversed $33 $-1 #
coedge $-1 $77 $35 $78 $79 reversed $26 $-1 #
coedge $-1 $35 $77 $73 $80 reversed $26 $-1 #
coedge $-1 $75 $81 $35 $54 forward $82 $-1 #
edge $83 $84 -0.78539816339744828 $85 2.3561944901923448 $53 $86 forward 7 unknown #
model_id-kcp-attrib $-1 $-1 $-1 $37 1 990548728 50 1680998402 4 #
face $87 $88 $89 $19 $-1 $90 reversed single #
loop $-1 $-1 $91 $37 #
plane-surface $-1 0 0 -30 0 0 1 1 0 0 forward_v I I I I #
coedge $-1 $92 $93 $94 $95 forward $38 $-1 #
face $-1 $96 $97 $21 $-1 $98 reversed single #
loop $-1 $-1 $99 $40 #
plane-surface $-1 -19.999999999999979 0 -142.4772708486752 -1 0 -3.8285889215894375e-016 3.8285889215894375e-016 -1.2246063538223773e-016 -1 forward_v I I I I #
coedge $-1 $100 $101 $102 $103 reversed $41 $-1 #
face $-1 $104 $105 $23 $-1 $106 forward single #
loop $-1 $-1 $107 $43 #
plane-surface $-1 10.000000000000016 0 -127.4772708486752 3.8285889215894375e-016 0 -1 -1 0 -3.8285889215894375e-016 forward_v I I I I #
coedge $-1 $108 $109 $110 $111 reversed $44 $-1 #
model_id-kcp-attrib $-1 $-1 $-1 $47 1 990548728 50 1680998401 5 #
face $112 $113 $82 $8 $-1 $114 reversed single #
loop $-1 $-1 $115 $47 #
plane-surface $-1 -5 0 20 -1 0 0 0 0 1 forward_v I I I I #
coedge $-1 $116 $78 $81 $117 reversed $48 $-1 #
coedge $-1 $118 $50 $52 $80 forward $33 $-1 #
coedge $-1 $50 $118 $119 $120 reversed $33 $-1 #
coedge $-1 $121 $53 $50 $76 forward $82 $-1 #
edge $122 $85 10 $123 20 $75 $124 forward 7 unknown #
coedge $-1 $52 $51 $125 $126 reversed $26 $-1 #
coedge $-1 $72 $127 $51 $79 forward $48 $-1 #
edge $-1 $128 -15 $84 -5 $78 $129 forward 7 unknown #
edge $-1 $85 5 $130 15 $73 $131 forward 7 unknown #
coedge $-1 $53 $132 $72 $117 forward $82 $-1 #
loop $-1 $-1 $81 $69 #
attrib_edge_convexity-kcp-attrib $-1 $133 $-1 $54 1 #
vertex $-1 $54 $134 #
vertex $-1 $54 $135 #
ellipse-curve $-1 -15 0 20 1 0 0 0 -21.213203435596402 -21.213203435596402 1 I I #
model_id-kcp-attrib $-1 $-1 $-1 $56 1 990548728 50 1680998402 5 #
face $136 $137 $138 $19 $-1 $139 reversed single #
loop $-1 $-1 $140 $56 #
plane-surface $-1 0 -60 0 0 1 0 0 0 1 forward_v I I I I #
coedge $-1 $141 $142 $143 $144 forward $57 $-1 #
coedge $-1 $145 $59 $146 $147 forward $38 $-1 #
coedge $-1 $59 $145 $148 $149 forward $38 $-1 #
coedge $-1 $150 $151 $59 $95 reversed $152 $-1 #
edge $-1 $153 -60 $154 60 $94 $155 forward 7 unknown #
face $-1 $156 $157 $21 $-1 $158 reversed single #
loop $-1 $-1 $159 $60 #
plane-surface $-1 10.000000000000016 1.8369095307335659e-015 -127.4772708486752 3.8285889215894375e-016 -1.2246063538223773e-016 -1 1 0 3.8285889215894375e-016 forward_v I I I I #
coedge $-1 $160 $161 $162 $163 forward $61 $-1 #
coedge $-1 $164 $63 $165 $166 reversed $41 $-1 #
coedge $-1 $63 $164 $167 $168 forward $41 $-1 #
coedge $-1 $159 $169 $63 $103 forward $97 $-1 #
edge $-1 $170 -2.3561944901923448 $171 0.78539816339744828 $102 $172 forward 7 unknown #
face $-1 $173 $174 $23 $-1 $175 reversed single #
loop $-1 $-1 $176 $64 #
plane-surface $-1 -19.999999999999979 0 -142.4772708486752 -1 0 -3.8285889215894375e-016 -3.8285889215894375e-016 0 1 forward_v I I I I #
coedge $-1 $110 $177 $178 $179 forward $65 $-1 #
coedge $-1 $180 $67 $181 $182 forward $44 $-1 #
coedge $-1 $67 $180 $183 $184 reversed $44 $-1 #
coedge $-1 $185 $107 $67 $111 forward $65 $-1 #
edge $-1 $186 -0.78539816339744828 $187 2.3561944901923448 $110 $188 forward 7 unknown #
model_id-kcp-attrib $-1 $-1 $-1 $69 1 990548728 50 1680998401 6 #
face $189 $190 $191 $8 $-1 $192 forward single #
plane-surface $-1 -15 0 0 1 0 0 0 0 -1 forward_v I I I I #
coedge $-1 $193 $194 $195 $196 reversed $70 $-1 #
coedge $-1 $127 $72 $197 $198 reversed $48 $-1 #
edge $199 $200 -20 $84 -10 $81 $201 forward 7 unknown #
coedge $-1 $74 $73 $193 $202 reversed $33 $-1 #
coedge $-1 $195 $203 $74 $120 forward $204 $-1 #
edge $205 $123 -5 $206 5 $119 $207 forward 7 unknown #
coedge $-1 $208 $75 $203 $209 reversed $82 $-1 #
attrib_edge_convexity-kcp-attrib $-1 $210 $-1 $76 1 #
vertex $-1 $209 $211 #
straight-curve $-1 -15 30 10 0 0 1 I I #
coedge $-1 $194 $193 $77 $126 forward $70 $-1 #
edge $-1 $130 -0.78539816339744828 $128 2.3561944901923448 $125 $212 forward 7 unknown #
coedge $-1 $78 $116 $194 $213 forward $48 $-1 #
vertex $-1 $213 $214 #
straight-curve $-1 -20 -30 20 -1 0 0 I I #
vertex $-1 $202 $215 #
straight-curve $-1 -20 30 20 1 0 0 I I #
coedge $-1 $81 $216 $217 $218 reversed $82 $-1 #
convexity-sys-attrib $-1 $-1 $83 $54 #
point $-1 -15 -30 20 #
point $-1 -15 30 20 #
model_id-kcp-attrib $-1 $-1 $-1 $88 1 990548728 50 1680998402 2 #
face $219 $220 $221 $19 $-1 $222 reversed single #
loop $-1 $-1 $223 $88 #
plane-surface $-1 -15 0 0 1 0 0 0 0 -1 forward_v I I I I #
coedge $-1 $224 $148 $225 $226 forward $89 $-1 #
coedge $-1 $227 $91 $224 $228 forward $57 $-1 #
coedge $-1 $91 $227 $229 $230 forward $57 $-1 #
coedge $-1 $151 $150 $91 $144 reversed $152 $-1 #
edge $-1 $231 -60 $232 60 $143 $233 forward 7 unknown #
coedge $-1 $93 $92 $234 $235 forward $38 $-1 #
coedge $-1 $236 $237 $92 $147 reversed $221 $-1 #
edge $-1 $154 -15 $238 15 $146 $239 forward 7 unknown #
coedge $-1 $140 $240 $93 $149 reversed $89 $-1 #
edge $-1 $241 -15 $153 15 $148 $242 forward 7 unknown #
coedge $-1 $143 $94 $240 $243 forward $152 $-1 #
coedge $-1 $94 $143 $236 $244 reversed $152 $-1 #
loop $-1 $-1 $150 $220 #
vertex $-1 $95 $245 #
vertex $-1 $95 $246 #
straight-curve $-1 15 0 30 0 1 0 I I #
face $-1 $247 $248 $21 $-1 $249 reversed single #
loop $-1 $-1 $162 $96 #
plane-surface $-1 0 30 0 0 -1 0 0 0 -1 forward_v I I I I #
coedge $-1 $250 $102 $251 $252 forward $97 $-1 #
coedge $-1 $253 $99 $254 $255 forward $61 $-1 #
coedge $-1 $99 $253 $250 $256 forward $61 $-1 #
coedge $-1 $251 $257 $99 $163 reversed $157 $-1 #
edge $-1 $258 56.238635424337616 $259 66.23863542433763 $162 $260 forward 7 unknown #
coedge $-1 $101 $100 $261 $262 forward $41 $-1 #
coedge $-1 $263 $264 $100 $166 forward $265 $-1 #
edge $266 $267 -15 $170 -5 $165 $268 forward 7 unknown #
coedge $-1 $257 $251 $101 $168 reversed $157 $-1 #
edge $269 $270 -15 $171 -5.0000000000000142 $167 $271 forward 7 unknown #
coedge $-1 $102 $250 $263 $272 forward $97 $-1 #
vertex $-1 $166 $273 #
vertex $-1 $168 $274 #
ellipse-curve $-1 -9.9999999999999858 1.8369095307335659e-015 -127.4772708486752 -3.8285889215894375e-016 1.2246063538223773e-016 1 21.213203435596402 21.213203435596402 5.523881195278934e-015 1 I I #
face $-1 $275 $276 $23 $-1 $277 reversed single #
loop $-1 $-1 $278 $104 #
plane-surface $-1 0 0 -137.4772708486752 0 0 1 1 0 0 forward_v I I I I #
coedge $-1 $279 $280 $281 $282 forward $105 $-1 #
coedge $-1 $107 $185 $279 $283 reversed $65 $-1 #
coedge $-1 $281 $181 $107 $179 reversed $284 $-1 #
edge $-1 $285 -25.000000000000018 $186 -15.000000000000018 $178 $286 forward 7 unknown #
coedge $-1 $109 $108 $287 $288 forward $44 $-1 #
coedge $-1 $178 $289 $108 $182 reversed $284 $-1 #
edge $290 $186 5 $291 15 $181 $292 forward 7 unknown #
coedge $-1 $293 $294 $109 $184 forward $276 $-1 #
edge $295 $187 5 $296 15 $183 $297 forward 7 unknown #
coedge $-1 $177 $110 $294 $298 forward $65 $-1 #
vertex $-1 $182 $299 #
vertex $-1 $184 $300 #
ellipse-curve $-1 -9.9999999999999858 0 -127.4772708486752 -3.8285889215894375e-016 0 1 21.213203435596402 -21.213203435596402 8.1216635664947373e-015 1 I I #
model_id-kcp-attrib $-1 $-1 $-1 $113 1 990548728 50 1680998401 7 #
face $301 $302 $303 $8 $-1 $304 forward single #
loop $-1 $-1 $305 $113 #
plane-surface $-1 5 0 20 1 0 0 0 0 -1 forward_v I I I I #
coedge $-1 $125 $115 $118 $202 forward $70 $-1 #
coedge $-1 $115 $125 $127 $213 reversed $70 $-1 #
coedge $-1 $197 $119 $115 $196 forward $204 $-1 #
edge $306 $206 -30 $307 30 $195 $308 forward 7 unknown #
coedge $-1 $217 $195 $116 $198 forward $204 $-1 #
edge $309 $307 -5 $200 5 $197 $310 forward 7 unknown #
attrib_edge_convexity-kcp-attrib $-1 $311 $-1 $117 1 #
vertex $-1 $198 $312 #
straight-curve $-1 -15 -30 10 0 0 -1 I I #
edge $-1 $206 -10 $130 0 $193 $313 forward 7 unknown #
coedge $-1 $119 $314 $121 $209 forward $204 $-1 #
loop $-1 $-1 $197 $315 #
attrib_edge_convexity-kcp-attrib $-1 $316 $-1 $120 1 #
vertex $-1 $120 $317 #
straight-curve $-1 -10 30 30 1 0 0 I I #
coedge $-1 $318 $121 $319 $320 forward $82 $-1 #
edge $321 $322 -60 $123 -30 $121 $323 forward 7 unknown #
convexity-sys-attrib $-1 $-1 $122 $76 #
point $-1 -15 30 30 #
ellipse-curve $-1 -5 0 20 -1 0 0 0 21.213203435596402 -21.213203435596402 1 I I #
edge $-1 $307 -10 $128 0 $194 $324 forward 7 unknown #
point $-1 -5 -30 20 #
point $-1 -5 30 20 #
coedge $-1 $132 $318 $325 $326 reversed $82 $-1 #
coedge $-1 $327 $197 $132 $218 forward $204 $-1 #
edge $328 $200 30 $329 60 $132 $323 forward 7 unknown #
model_id-kcp-attrib $-1 $-1 $-1 $137 1 990548728 50 1680998402 6 #
face $330 $-1 $152 $19 $-1 $331 reversed single #
loop $-1 $-1 $236 $137 #
plane-surface $-1 0 60 0 0 -1 0 0 0 -1 forward_v I I I I #
coedge $-1 $332 $234 $237 $333 forward $138 $-1 #
coedge $-1 $240 $140 $141 $228 reversed $89 $-1 #
coedge $-1 $234 $332 $140 $226 reversed $138 $-1 #
edge $-1 $241 -30 $334 30 $225 $335 forward 7 unknown #
coedge $-1 $142 $141 $332 $336 forward $57 $-1 #
edge $-1 $232 -15 $334 15 $224 $337 forward 7 unknown #
coedge $-1 $237 $236 $142 $230 reversed $221 $-1 #
edge $-1 $338 -15 $231 15 $229 $339 forward 7 unknown #
vertex $-1 $144 $340 #
vertex $-1 $243 $341 #
straight-curve $-1 15 0 -30 0 -1 0 I I #
coedge $-1 $223 $225 $145 $235 reversed $138 $-1 #
edge $-1 $238 -60 $241 60 $234 $342 forward 7 unknown #
coedge $-1 $229 $146 $151 $244 forward $221 $-1 #
coedge $-1 $146 $229 $223 $333 reversed $221 $-1 #
vertex $-1 $147 $343 #
straight-curve $-1 0 60 30 -1 0 0 I I #
coedge $-1 $148 $224 $150 $243 reversed $89 $-1 #
vertex $-1 $235 $344 #
straight-curve $-1 0 -60 30 1 0 0 I I #
edge $-1 $153 -30 $232 30 $150 $345 forward 7 unknown #
edge $-1 $154 -30 $231 30 $151 $346 forward 7 unknown #
point $-1 15 -60 30 #
point $-1 15 60 30 #
face $-1 $-1 $265 $21 $-1 $347 reversed single #
loop $-1 $-1 $254 $156 #
plane-surface $-1 0 0 -137.4772708486752 0 0 1 1 0 0 forward_v I I I I #
coedge $-1 $169 $159 $161 $256 reversed $97 $-1 #
coedge $-1 $167 $162 $159 $252 reversed $157 $-1 #
edge $-1 $171 15.000000000000018 $258 25.000000000000018 $251 $348 forward 7 unknown #
coedge $-1 $161 $160 $349 $350 forward $61 $-1 #
coedge $-1 $351 $352 $160 $255 reversed $248 $-1 #
edge $353 $259 -30 $354 30 $254 $355 forward 7 unknown #
edge $-1 $356 -30 $258 30 $250 $357 forward 7 unknown #
coedge $-1 $162 $167 $351 $358 reversed $157 $-1 #
vertex $-1 $163 $359 #
vertex $-1 $358 $360 #
straight-curve $-1 -20.000000000000007 30 -71.238635424337602 3.8285889215894375e-016 0 -1 I I #
coedge $-1 $352 $351 $164 $262 reversed $248 $-1 #
edge $361 $267 -2.3561944901923448 $270 0.78539816339744828 $261 $362 forward 7 unknown #
coedge $-1 $349 $165 $169 $272 reversed $265 $-1 #
coedge $-1 $165 $349 $352 $363 reversed $265 $-1 #
loop $-1 $-1 $349 $247 #
convexity-sys-attrib $-1 $-1 $-1 $166 #
vertex $-1 $363 $364 #
straight-curve $-1 -9.9999999999999858 -30 -122.4772708486752 -3.8285889215894375e-016 1.224606353822377e-016 1 I I #
convexity-sys-attrib $-1 $-1 $-1 $168 #
vertex $-1 $262 $365 #
straight-curve $-1 -9.9999999999999858 30 -122.4772708486752 -3.8285889215894375e-016 1.224606353822377e-016 1 I I #
edge $-1 $356 -25.000000000000018 $170 -15.000000000000018 $263 $366 forward 7 unknown #
point $-1 -9.9999999999999858 -29.999999999999996 -127.4772708486752 #
point $-1 -9.9999999999999858 30.000000000000004 -127.47727084867522 #
face $-1 $-1 $284 $23 $-1 $367 reversed single #
loop $-1 $-1 $368 $173 #
plane-surface $-1 0 30 0 0 -1 0 0 0 -1 forward_v I I I I #
coedge $-1 $369 $370 $280 $371 reversed $174 $-1 #
coedge $-1 $372 $176 $177 $283 forward $105 $-1 #
coedge $-1 $176 $372 $278 $371 forward $105 $-1 #
coedge $-1 $289 $178 $176 $282 reversed $284 $-1 #
edge $-1 $373 -66.238635424337602 $285 -56.238635424337616 $281 $374 forward 7 unknown #
edge $-1 $285 -30 $375 30 $177 $376 forward 7 unknown #
loop $-1 $-1 $281 $275 #
vertex $-1 $179 $377 #
straight-curve $-1 5.000000000000032 -30 -127.4772708486752 1 0 3.8285889215894375e-016 I I #
coedge $-1 $370 $369 $180 $288 reversed $174 $-1 #
edge $378 $291 -0.78539816339744828 $296 2.3561944901923448 $287 $379 forward 7 unknown #
coedge $-1 $181 $281 $370 $380 reversed $284 $-1 #
convexity-sys-attrib $-1 $-1 $-1 $182 #
vertex $-1 $380 $381 #
straight-curve $-1 -9.9999999999999858 -30 -122.4772708486752 3.8285889215894375e-016 0 -1 I I #
coedge $-1 $368 $183 $369 $382 reversed $276 $-1 #
coedge $-1 $183 $368 $185 $298 reversed $276 $-1 #
convexity-sys-attrib $-1 $-1 $-1 $184 #
vertex $-1 $288 $383 #
straight-curve $-1 -9.9999999999999858 30 -122.4772708486752 3.8285889215894375e-016 0 -1 I I #
edge $-1 $187 15.000000000000018 $375 25.000000000000018 $294 $384 forward 7 unknown #
point $-1 -9.9999999999999858 -30 -127.4772708486752 #
point $-1 -9.9999999999999858 30 -127.4772708486752 #
model_id-kcp-attrib $-1 $-1 $-1 $190 1 990548728 50 1680998401 8 #
face $385 $386 $387 $8 $-1 $388 reversed single #
loop $-1 $-1 $389 $190 #
plane-surface $-1 20 30 20 0 -1 0 0 0 -1 forward_v I I I I #
coedge $-1 $390 $391 $392 $393 reversed $191 $-1 #
attrib_edge_convexity-kcp-attrib $-1 $394 $-1 $196 1 #
vertex $-1 $198 $395 #
straight-curve $-1 -5 0 30 0 -1 0 I I #
attrib_edge_convexity-kcp-attrib $-1 $396 $-1 $198 1 #
straight-curve $-1 -10 -30 30 -1 0 0 I I #
convexity-sys-attrib $-1 $-1 $199 $117 #
point $-1 -15 -30 30 #
straight-curve $-1 -5 30 20 0 0 -1 I I #
coedge $-1 $203 $397 $398 $399 forward $204 $-1 #
face $400 $401 $204 $8 $-1 $402 forward single #
convexity-sys-attrib $-1 $-1 $205 $120 #
point $-1 -5 30 30 #
coedge $-1 $216 $208 $403 $404 reversed $82 $-1 #
coedge $-1 $398 $405 $208 $320 reversed $406 $-1 #
edge $407 $322 -30 $408 30 $319 $409 forward 7 unknown #
attrib_edge_convexity-kcp-attrib $-1 $410 $-1 $209 1 #
vertex $-1 $399 $411 #
straight-curve $-1 -15 0 30 0 -1 0 I I #
straight-curve $-1 -5 -30 20 0 0 -1 I I #
coedge $-1 $412 $413 $216 $326 forward $414 $-1 #
edge $415 $329 -30 $416 30 $216 $417 forward 7 unknown #
coedge $-1 $418 $217 $413 $419 forward $204 $-1 #
attrib_edge_convexity-kcp-attrib $-1 $420 $-1 $218 1 #
vertex $-1 $218 $421 #
model_id-kcp-attrib $-1 $-1 $-1 $220 1 990548728 50 1680998402 7 #
plane-surface $-1 15 0 0 -1 0 0 0 0 1 forward_v I I I I #
coedge $-1 $225 $223 $227 $336 reversed $138 $-1 #
edge $-1 $238 -30 $338 30 $237 $422 forward 7 unknown #
vertex $-1 $336 $423 #
straight-curve $-1 -15 -60 0 0 0 -1 I I #
edge $-1 $334 -60 $338 60 $332 $424 forward 7 unknown #
straight-curve $-1 0 -60 -30 -1 0 0 I I #
vertex $-1 $230 $425 #
straight-curve $-1 0 60 -30 1 0 0 I I #
point $-1 15 60 -30 #
point $-1 15 -60 -30 #
straight-curve $-1 -15 0 30 0 -1 0 I I #
point $-1 -15 60 30 #
point $-1 -15 -60 30 #
straight-curve $-1 15 -60 0 0 0 -1 I I #
straight-curve $-1 15 60 0 0 0 -1 I I #
plane-surface $-1 0 -30 0 0 1 0 0 0 1 forward_v I I I I #
straight-curve $-1 5.000000000000032 30 -127.4772708486752 -1 0 -3.8285889215894375e-016 I I #
coedge $-1 $264 $263 $253 $350 reversed $265 $-1 #
edge $-1 $354 -66.238635424337602 $356 -56.238635424337602 $349 $426 forward 7 unknown #
coedge $-1 $261 $254 $257 $358 forward $248 $-1 #
coedge $-1 $254 $261 $264 $363 forward $248 $-1 #
convexity-sys-attrib $-1 $-1 $-1 $255 #
vertex $-1 $255 $427 #
straight-curve $-1 -19.999999999999979 0 -137.4772708486752 0 -1 0 I I #
vertex $-1 $350 $428 #
straight-curve $-1 -19.999999999999986 1.8369095307335659e-015 -127.47727084867522 4.6885143195523885e-032 1 -1.2246063538223773e-016 I I #
edge $429 $259 -19.999999999999982 $270 -9.9999999999999822 $257 $430 forward 7 unknown #
point $-1 -19.999999999999986 30.000000000000004 -127.47727084867522 #
point $-1 -19.999999999999982 30 -137.47727084867523 #
convexity-sys-attrib $-1 $-1 $-1 $262 #
ellipse-curve $-1 -9.9999999999999805 6.1230317691118823e-016 -137.4772708486752 0 0 1 21.213203435596402 21.213203435596402 5.523881195278934e-015 1 I I #
edge $431 $267 9.9999999999999822 $354 19.999999999999982 $264 $432 forward 7 unknown #
point $-1 -9.9999999999999822 -30 -137.4772708486752 #
point $-1 -9.9999999999999822 30 -137.4772708486752 #
straight-curve $-1 5.000000000000032 -30 -127.4772708486752 1 0 3.8285889215894375e-016 I I #
plane-surface $-1 0 -30 0 0 1 0 0 0 1 forward_v I I I I #
coedge $-1 $294 $293 $372 $433 reversed $276 $-1 #
coedge $-1 $287 $278 $293 $382 forward $174 $-1 #
coedge $-1 $278 $287 $289 $380 forward $174 $-1 #
edge $434 $435 -30 $373 30 $278 $436 forward 7 unknown #
coedge $-1 $280 $279 $368 $433 forward $105 $-1 #
vertex $-1 $371 $437 #
straight-curve $-1 -20.000000000000007 -30 -71.238635424337602 -3.8285889215894375e-016 0 1 I I #
vertex $-1 $298 $438 #
straight-curve $-1 -19.999999999999986 0 -127.47727084867522 0 1 0 I I #
point $-1 -19.999999999999986 -30 -127.47727084867522 #
convexity-sys-attrib $-1 $-1 $-1 $288 #
ellipse-curve $-1 -9.9999999999999805 0 -137.4772708486752 0 0 1 21.213203435596402 -21.213203435596402 8.1216635664947373e-015 1 I I #
edge $439 $291 9.9999999999999822 $373 19.999999999999982 $289 $440 forward 7 unknown #
point $-1 -9.9999999999999822 -30 -137.4772708486752 #
edge $441 $435 -19.999999999999982 $296 -9.9999999999999822 $293 $442 forward 7 unknown #
point $-1 -9.9999999999999822 30 -137.4772708486752 #
straight-curve $-1 5.000000000000032 30 -127.4772708486752 -1 0 -3.8285889215894375e-016 I I #
model_id-kcp-attrib $-1 $-1 $-1 $302 1 990548728 50 1680998401 9 #
face $443 $315 $444 $8 $-1 $445 forward single #
loop $-1 $-1 $446 $302 #
cone-surface $-1 20 0 20 -1 0 0 0 -21.213203435596402 -21.213203435596402 1 I I 0 1 29.999999999999964 forward I I I I #
coedge $-1 $447 $448 $449 $450 reversed $303 $-1 #
coedge $-1 $451 $305 $452 $453 forward $191 $-1 #
coedge $-1 $305 $451 $447 $454 reversed $191 $-1 #
coedge $-1 $449 $455 $305 $393 forward $204 $-1 #
edge $456 $457 -30 $458 30 $392 $459 forward 7 unknown #
convexity-sys-attrib $-1 $-1 $306 $196 #
point $-1 -5 -30 30 #
convexity-sys-attrib $-1 $-1 $309 $198 #
coedge $-1 $314 $449 $460 $461 forward $204 $-1 #
coedge $-1 $462 $319 $314 $399 reversed $406 $-1 #
edge $463 $464 -15 $322 15 $398 $465 forward 7 unknown #
model_id-kcp-attrib $-1 $-1 $-1 $315 1 990548728 50 1680998401 11 #
face $466 $467 $468 $8 $-1 $469 reversed single #
plane-surface $-1 0 0 30 0 0 1 1 0 0 forward_v I I I I #
coedge $-1 $470 $471 $318 $404 forward $468 $-1 #
edge $472 $416 -60 $408 60 $318 $473 forward 7 unknown #
coedge $-1 $319 $462 $470 $474 reversed $406 $-1 #
loop $-1 $-1 $462 $475 #
attrib_edge_convexity-kcp-attrib $-1 $476 $-1 $320 1 #
vertex $-1 $474 $477 #
straight-curve $-1 -15 60 0 0 0 -1 I I #
convexity-sys-attrib $-1 $-1 $321 $209 #
point $-1 -15 60 30 #
coedge $-1 $478 $325 $471 $479 reversed $414 $-1 #
coedge $-1 $325 $478 $327 $419 reversed $414 $-1 #
loop $-1 $-1 $325 $467 #
attrib_edge_convexity-kcp-attrib $-1 $480 $-1 $326 1 #
vertex $-1 $404 $481 #
straight-curve $-1 -15 -60 0 0 0 -1 I I #
coedge $-1 $455 $327 $482 $483 forward $204 $-1 #
edge $484 $329 -15 $485 15 $413 $486 forward 7 unknown #
convexity-sys-attrib $-1 $-1 $328 $218 #
point $-1 -15 -60 30 #
straight-curve $-1 -15 60 0 0 0 -1 I I #
point $-1 -15 -60 -30 #
straight-curve $-1 -15 0 -30 0 1 0 I I #
point $-1 -15 60 -30 #
straight-curve $-1 -20.000000000000007 -30 -71.238635424337602 -3.8285889215894375e-016 0 1 I I #
point $-1 -19.999999999999982 -30 -137.4772708486752 #
point $-1 -19.999999999999986 -29.999999999999996 -127.4772708486752 #
convexity-sys-attrib $-1 $-1 $-1 $358 #
straight-curve $-1 0 30 -137.4772708486752 1 0 0 I I #
convexity-sys-attrib $-1 $-1 $-1 $363 #
straight-curve $-1 0 -30 -137.4772708486752 -1 0 0 I I #
edge $-1 $375 56.238635424337616 $435 66.238635424337602 $368 $487 forward 7 unknown #
convexity-sys-attrib $-1 $-1 $-1 $371 #
vertex $-1 $382 $488 #
straight-curve $-1 -19.999999999999979 0 -137.4772708486752 0 -1 0 I I #
point $-1 -19.999999999999982 -30 -137.4772708486752 #
point $-1 -19.999999999999986 30 -127.47727084867522 #
convexity-sys-attrib $-1 $-1 $-1 $380 #
straight-curve $-1 0 -30 -137.4772708486752 -1 0 0 I I #
convexity-sys-attrib $-1 $-1 $-1 $382 #
straight-curve $-1 0 30 -137.4772708486752 1 0 0 I I #
model_id-kcp-attrib $-1 $-1 $-1 $386 1 990548728 50 1680998401 10 #
loop $-1 $-1 $489 $386 #
plane-surface $-1 20 -30 20 0 1 0 0 0 1 forward_v I I I I #
coedge $-1 $490 $491 $492 $493 reversed $387 $-1 #
coedge $-1 $494 $389 $391 $454 forward $303 $-1 #
coedge $-1 $389 $494 $495 $496 reversed $303 $-1 #
coedge $-1 $397 $392 $389 $450 forward $204 $-1 #
edge $497 $458 -5 $498 5 $449 $499 forward 7 unknown #
coedge $-1 $391 $390 $500 $501 forward $191 $-1 #
coedge $-1 $489 $502 $390 $453 reversed $444 $-1 #
edge $-1 $457 -10 $503 0 $390 $504 forward 7 unknown #
edge $-1 $458 -10 $505 0 $447 $506 forward 7 unknown #
coedge $-1 $392 $418 $489 $507 forward $204 $-1 #
attrib_edge_convexity-kcp-attrib $-1 $508 $-1 $393 1 #
vertex $-1 $393 $509 #
vertex $-1 $393 $510 #
straight-curve $-1 5 0 30 0 1 0 I I #
coedge $-1 $495 $511 $397 $461 reversed $512 $-1 #
edge $513 $498 30 $464 60 $460 $514 forward 7 unknown #
coedge $-1 $405 $398 $511 $515 forward $406 $-1 #
attrib_edge_convexity-kcp-attrib $-1 $516 $-1 $399 1 #
vertex $-1 $461 $517 #
straight-curve $-1 0 60 30 -1 0 0 I I #
model_id-kcp-attrib $-1 $-1 $-1 $401 1 990548728 50 1680998401 12 #
face $518 $475 $414 $8 $-1 $519 reversed single #
loop $-1 $-1 $520 $401 #
plane-surface $-1 0 0 -30 0 0 1 1 0 0 forward_v I I I I #
coedge $-1 $520 $403 $405 $474 forward $468 $-1 #
coedge $-1 $403 $520 $412 $479 forward $468 $-1 #
attrib_edge_convexity-kcp-attrib $-1 $521 $-1 $404 1 #
straight-curve $-1 -15 0 -30 0 1 0 I I #
edge $-1 $408 -15 $522 15 $405 $523 forward 7 unknown #
face $524 $525 $406 $8 $-1 $526 reversed single #
convexity-sys-attrib $-1 $-1 $407 $320 #
point $-1 -15 60 -30 #
coedge $-1 $413 $412 $527 $528 reversed $414 $-1 #
edge $529 $530 -15 $416 15 $412 $531 forward 7 unknown #
convexity-sys-attrib $-1 $-1 $415 $326 #
point $-1 -15 -60 -30 #
coedge $-1 $527 $532 $418 $483 reversed $512 $-1 #
edge $533 $485 -60 $534 -30 $482 $514 forward 7 unknown #
attrib_edge_convexity-kcp-attrib $-1 $535 $-1 $419 1 #
vertex $-1 $483 $536 #
straight-curve $-1 0 -60 30 1 0 0 I I #
straight-curve $-1 -20.000000000000007 30 -71.238635424337602 3.8285889215894375e-016 0 -1 I I #
point $-1 -19.999999999999982 30 -137.4772708486752 #
coedge $-1 $537 $452 $455 $507 reversed $444 $-1 #
coedge $-1 $500 $446 $494 $538 reversed $387 $-1 #
coedge $-1 $446 $500 $502 $539 reversed $387 $-1 #
coedge $-1 $532 $495 $446 $493 forward $512 $-1 #
edge $-1 $540 -2.3561944901923448 $541 0.78539816339744828 $492 $542 forward 7 unknown #
coedge $-1 $448 $447 $490 $538 forward $303 $-1 #
coedge $-1 $492 $460 $448 $496 forward $512 $-1 #
edge $-1 $498 -20 $540 -10 $495 $543 forward 7 unknown #
attrib_edge_convexity-kcp-attrib $-1 $544 $-1 $450 1 #
vertex $-1 $496 $545 #
straight-curve $-1 10 30 30 1 0 0 I I #
coedge $-1 $491 $490 $451 $501 reversed $387 $-1 #
edge $-1 $503 -0.78539816339744828 $505 2.3561944901923448 $451 $546 forward 7 unknown #
coedge $-1 $452 $537 $491 $539 forward $444 $-1 #
vertex $-1 $453 $547 #
straight-curve $-1 5 -30 20 0 0 -1 I I #
vertex $-1 $454 $548 #
straight-curve $-1 5 30 20 0 0 -1 I I #
edge $549 $534 -5 $457 5 $455 $550 forward 7 unknown #
convexity-sys-attrib $-1 $-1 $456 $393 #
point $-1 5 -30 30 #
point $-1 5 30 30 #
coedge $-1 $460 $551 $462 $515 reversed $512 $-1 #
loop $-1 $-1 $532 $525 #
attrib_edge_convexity-kcp-attrib $-1 $552 $-1 $461 1 #
straight-curve $-1 15 0 30 0 1 0 I I #
edge $-1 $464 -30 $522 30 $511 $553 forward 7 unknown #
convexity-sys-attrib $-1 $-1 $463 $399 #
point $-1 15 60 30 #
model_id-kcp-attrib $-1 $-1 $-1 $467 1 990548728 50 1680998401 13 #
plane-surface $-1 0 -60 0 0 1 0 0 0 1 forward_v I I I I #
coedge $-1 $471 $470 $551 $554 forward $468 $-1 #
convexity-sys-attrib $-1 $-1 $472 $404 #
vertex $-1 $554 $555 #
straight-curve $-1 0 60 -30 1 0 0 I I #
model_id-kcp-attrib $-1 $-1 $-1 $475 1 990548728 50 1680998401 14 #
face $556 $-1 $512 $8 $-1 $557 reversed single #
plane-surface $-1 0 60 0 0 -1 0 0 0 -1 forward_v I I I I #
coedge $-1 $551 $482 $478 $528 forward $512 $-1 #
edge $558 $485 -30 $530 30 $527 $559 forward 7 unknown #
attrib_edge_convexity-kcp-attrib $-1 $560 $-1 $479 1 #
vertex $-1 $528 $561 #
straight-curve $-1 0 -60 -30 -1 0 0 I I #
coedge $-1 $482 $492 $537 $562 forward $512 $-1 #
attrib_edge_convexity-kcp-attrib $-1 $563 $-1 $483 1 #
vertex $-1 $483 $564 #
convexity-sys-attrib $-1 $-1 $484 $419 #
point $-1 15 -60 30 #
coedge $-1 $502 $489 $532 $562 reversed $444 $-1 #
edge $-1 $505 -15 $540 -5 $494 $565 forward 7 unknown #
edge $-1 $541 5 $503 15 $502 $566 forward 7 unknown #
vertex $-1 $493 $567 #
vertex $-1 $493 $568 #
ellipse-curve $-1 15 0 20 -1 0 0 0 -21.213203435596402 -21.213203435596402 1 I I #
straight-curve $-1 15 30 10 0 0 -1 I I #
convexity-sys-attrib $-1 $-1 $497 $450 #
point $-1 15 30 30 #
ellipse-curve $-1 5 0 20 1 0 0 0 -21.213203435596402 -21.213203435596402 1 I I #
point $-1 5 -30 20 #
point $-1 5 30 20 #
attrib_edge_convexity-kcp-attrib $-1 $569 $-1 $507 1 #
straight-curve $-1 10 -30 30 -1 0 0 I I #
coedge $-1 $511 $527 $520 $554 reversed $512 $-1 #
convexity-sys-attrib $-1 $-1 $513 $461 #
straight-curve $-1 15 60 0 0 0 -1 I I #
edge $-1 $522 -60 $530 60 $551 $570 forward 7 unknown #
point $-1 15 60 -30 #
model_id-kcp-attrib $-1 $-1 $-1 $525 1 990548728 50 1680998401 15 #
plane-surface $-1 15 0 0 -1 0 0 0 0 1 forward_v I I I I #
attrib_edge_convexity-kcp-attrib $-1 $571 $-1 $528 1 #
straight-curve $-1 15 -60 0 0 0 -1 I I #
convexity-sys-attrib $-1 $-1 $529 $479 #
point $-1 15 -60 -30 #
edge $-1 $541 10 $534 20 $532 $572 forward 7 unknown #
convexity-sys-attrib $-1 $-1 $533 $483 #
point $-1 15 -30 30 #
straight-curve $-1 20 30 20 1 0 0 I I #
straight-curve $-1 20 -30 20 -1 0 0 I I #
point $-1 15 30 20 #
point $-1 15 -30 20 #
convexity-sys-attrib $-1 $-1 $549 $507 #
straight-curve $-1 15 0 -30 0 -1 0 I I #
convexity-sys-attrib $-1 $-1 $558 $528 #
straight-curve $-1 15 -30 10 0 0 1 I I #
End-of-ACIS-data 