600 0 2 0           
24 FBMach with ACIS - 6.0.3 13 ACIS 6.0.3 NT 24 Sun Mar 31 23:26:12 2002 
1 9.9999999999999995e-007 1e-010 
body $2 $3 $-1 $4 #
bdycol-kcp $-1 1 3 $5 $6 $7 #
model_id-kcp-attrib $-1 $8 $-1 $0 1 1017635171 90 -447086591 1 #
lump $-1 $-1 $9 $0 #
transform $-1 1 0 0 0 1 0 0 0 1 0 0 0 1 rotate no_reflect no_shear #
body $10 $11 $-1 $12 #
body $13 $14 $-1 $15 #
body $16 $17 $-1 $18 #
aggregate_advspl_attribute-aggregate_geombuild_base_attribute-aggregate_body_attribute-attrib_HH-attrib $-1 $19 $2 $0 F #
shell $-1 $-1 $-1 $20 $-1 $3 #
model_id-kcp-attrib $-1 $-1 $-1 $5 1 1017635171 90 -447086590 1 #
lump $-1 $-1 $21 $5 #
transform $-1 1 0 0 0 1 0 0 0 1 0 0 0 1 no_rotate no_reflect no_shear #
rgb_color-st-attrib $-1 $22 $-1 $6 1 0 0 #
lump $-1 $-1 $23 $6 #
transform $-1 3.8285889215894375e-016 -4.6885143195523885e-032 -1 -1.2246063538223773e-016 -1 0 -1 1.2246063538223773e-016 -3.8285889215894375e-016 -142.4772708486752 1.7447857115655943e-014 9.9999999999999662 1 rotate no_reflect no_shear #
rgb_color-st-attrib $-1 $24 $-1 $7 1 0 0 #
lump $-1 $-1 $25 $7 #
transform $-1 -3.8285889215894375e-016 0 -1 0 1 0 1 0 -3.8285889215894375e-016 142.4772708486752 0 9.9999999999999662 1 rotate no_reflect no_shear #
aggregate_secndry_attribute-aggregate_geombuild_base_attribute-aggregate_body_attribute-attrib_HH-attrib $-1 $26 $8 $0 F #
face $27 $28 $29 $9 $-1 $30 reversed single #
shell $-1 $-1 $-1 $31 $-1 $11 #
model_id-kcp-attrib $-1 $-1 $13 $6 1 1017635171 300 -450101245 1 #
shell $-1 $-1 $-1 $32 $-1 $14 #
model_id-kcp-attrib $-1 $-1 $16 $7 1 1017635171 400 -443547644 1 #
shell $-1 $-1 $-1 $33 $-1 $17 #
aggregate_sharped_attribute-aggregate_geombuild_base_attribute-aggregate_body_attribute-attrib_HH-attrib $-1 $34 $19 $0 F #
model_id-kcp-attrib $-1 $35 $-1 $20 1 1017635171 90 -447086591 2 #
face $36 $37 $38 $9 $-1 $39 forward single #
loop $-1 $-1 $40 $20 #
cone-surface $-1 -20 0 20 -1 0 0 0 -21.213203435596402 -21.213203435596402 1 I I 0 1 29.999999999999964 forward I I I I #
face $41 $42 $43 $21 $-1 $44 forward single #
face $45 $46 $47 $23 $-1 $48 forward single #
face $49 $50 $51 $25 $-1 $52 forward single #
aggregate_reblend_attribute-aggregate_geombuild_base_attribute-aggregate_body_attribute-attrib_HH-attrib $-1 $53 $26 $0 F #
attrib_hh_face_geombuild-attrib_entity_geombuild-individual_entity_attribute-attrib_HH-attrib $-1 $-1 $27 $20 F #
model_id-kcp-attrib $-1 $54 $-1 $28 1 1017635171 90 -447086591 3 #
face $55 $56 $57 $9 $-1 $58 forward single #
loop $-1 $-1 $59 $28 #
plane-surface $-1 -20 30 20 0 -1 0 0 0 -1 forward_v I I I I #
coedge $60 $61 $62 $63 $64 reversed $29 $-1 #
model_id-kcp-attrib $-1 $-1 $-1 $31 1 1017635171 90 -447086590 3 #
face $65 $66 $67 $21 $-1 $68 reversed single #
loop $-1 $-1 $69 $31 #
plane-surface $-1 0 0 30 0 0 1 1 0 0 forward_v I I I I #
attrib_hh_face_geombuild-attrib_entity_geombuild-individual_entity_attribute-attrib_HH-attrib $-1 $-1 $-1 $32 F #
face $-1 $70 $71 $23 $-1 $72 forward single #
loop $-1 $-1 $73 $32 #
cone-surface $-1 -9.9999999999999858 2.4492127076447545e-015 -122.4772708486752 -3.8285889215894375e-016 1.2246063538223773e-016 1 21.213203435596402 21.213203435596402 5.523881195278934e-015 1 I I 0 1 29.999999999999964 forward I I I I #
attrib_hh_face_geombuild-attrib_entity_geombuild-individual_entity_attribute-attrib_HH-attrib $-1 $-1 $-1 $33 F #
face $-1 $74 $75 $25 $-1 $76 reversed single #
loop $-1 $-1 $77 $33 #
cone-surface $-1 -9.9999999999999858 0 -122.4772708486752 3.8285889215894375e-016 0 -1 21.213203435596402 -21.213203435596402 8.1216635664947373e-015 1 I I 0 1 29.999999999999964 forward I I I I #
aggregate_isospline_attribute-aggregate_geombuild_base_attribute-aggregate_body_attribute-attrib_HH-attrib $-1 $78 $34 $0 F #
attrib_hh_face_geombuild-attrib_entity_geombuild-individual_entity_attribute-attrib_HH-attrib $-1 $-1 $36 $28 F #
model_id-kcp-attrib $-1 $79 $-1 $37 1 1017635171 90 -447086591 4 #
face $80 $81 $82 $9 $-1 $83 forward single #
loop $-1 $-1 $84 $37 #
plane-surface $-1 -20 -30 20 0 1 0 0 0 1 forward_v I I I I #
coedge $85 $86 $87 $88 $89 reversed $38 $-1 #
attrib_hh_coedge_geombuild-attrib_entity_geombuild-individual_entity_attribute-attrib_HH-attrib $-1 $-1 $-1 $40 F #
coedge $90 $91 $40 $92 $93 reversed $29 $-1 #
coedge $94 $40 $91 $86 $95 reversed $29 $-1 #
coedge $96 $88 $97 $40 $64 forward $98 $-1 #
edge $99 $100 -0.78539816339744828 $101 2.3561944901923448 $63 $102 forward 7 unknown #
model_id-kcp-attrib $-1 $-1 $-1 $42 1 1017635171 90 -447086590 4 #
face $103 $104 $105 $21 $-1 $106 reversed single #
loop $-1 $-1 $107 $42 #
plane-surface $-1 0 0 -30 0 0 1 1 0 0 forward_v I I I I #
coedge $-1 $108 $109 $110 $111 forward $43 $-1 #
face $-1 $112 $113 $23 $-1 $114 reversed single #
loop $-1 $-1 $115 $46 #
plane-surface $-1 -19.999999999999979 0 -142.4772708486752 -1 0 -3.8285889215894375e-016 3.8285889215894375e-016 -1.2246063538223773e-016 -1 forward_v I I I I #
coedge $116 $117 $118 $119 $120 reversed $47 $-1 #
face $-1 $121 $122 $25 $-1 $123 forward single #
loop $-1 $-1 $124 $50 #
plane-surface $-1 10.000000000000016 0 -127.4772708486752 3.8285889215894375e-016 0 -1 -1 0 -3.8285889215894375e-016 forward_v I I I I #
coedge $125 $126 $127 $128 $129 reversed $51 $-1 #
aggregate_analytic_solver_attribute-aggregate_geombuild_base_attribute-aggregate_body_attribute-attrib_HH-attrib $-1 $130 $53 $0 F #
attrib_hh_face_geombuild-attrib_entity_geombuild-individual_entity_attribute-attrib_HH-attrib $-1 $-1 $55 $37 F #
model_id-kcp-attrib $-1 $131 $-1 $56 1 1017635171 90 -447086591 5 #
face $132 $133 $98 $9 $-1 $134 reversed single #
loop $-1 $-1 $135 $56 #
plane-surface $-1 -5 0 20 -1 0 0 0 0 1 forward_v I I I I #
coedge $136 $137 $92 $97 $138 reversed $57 $-1 #
attrib_hh_coedge_geombuild-attrib_entity_geombuild-individual_entity_attribute-attrib_HH-attrib $-1 $-1 $-1 $59 F #
coedge $139 $140 $59 $62 $95 forward $38 $-1 #
coedge $141 $59 $140 $142 $143 reversed $38 $-1 #
coedge $144 $145 $63 $59 $89 forward $98 $-1 #
edge $146 $101 10 $147 20 $88 $148 forward 7 unknown #
attrib_hh_coedge_geombuild-attrib_entity_geombuild-individual_entity_attribute-attrib_HH-attrib $-1 $-1 $-1 $61 F #
coedge $149 $62 $61 $150 $151 reversed $29 $-1 #
coedge $152 $84 $153 $61 $93 forward $57 $-1 #
edge $154 $155 -15 $100 -5 $92 $156 forward 7 unknown #
attrib_hh_coedge_geombuild-attrib_entity_geombuild-individual_entity_attribute-attrib_HH-attrib $-1 $-1 $-1 $62 F #
edge $157 $101 5 $158 15 $86 $159 forward 7 unknown #
attrib_hh_coedge_geombuild-attrib_entity_geombuild-individual_entity_attribute-attrib_HH-attrib $-1 $-1 $-1 $63 F #
coedge $160 $63 $161 $84 $138 forward $98 $-1 #
loop $-1 $-1 $97 $81 #
attrib_edge_convexity-kcp-attrib $-1 $162 $-1 $64 1 #
vertex $163 $64 $164 #
vertex $165 $64 $166 #
ellipse-curve $-1 -15 0 20 1 0 0 0 -21.213203435596402 -21.213203435596402 1 I I #
model_id-kcp-attrib $-1 $-1 $-1 $66 1 1017635171 90 -447086590 5 #
face $167 $168 $169 $21 $-1 $170 reversed single #
loop $-1 $-1 $171 $66 #
plane-surface $-1 0 -60 0 0 1 0 0 0 1 forward_v I I I I #
coedge $-1 $172 $173 $174 $175 forward $67 $-1 #
coedge $-1 $176 $69 $177 $178 forward $43 $-1 #
coedge $-1 $69 $176 $179 $180 forward $43 $-1 #
coedge $-1 $181 $182 $69 $111 reversed $183 $-1 #
edge $-1 $184 -60 $185 60 $110 $186 forward 7 unknown #
face $-1 $187 $188 $23 $-1 $189 reversed single #
loop $-1 $-1 $190 $70 #
plane-surface $-1 10.000000000000016 1.8369095307335659e-015 -127.4772708486752 3.8285889215894375e-016 -1.2246063538223773e-016 -1 1 0 3.8285889215894375e-016 forward_v I I I I #
coedge $-1 $191 $192 $193 $194 forward $71 $-1 #
attrib_hh_coedge_geombuild-attrib_entity_geombuild-individual_entity_attribute-attrib_HH-attrib $-1 $-1 $-1 $73 F #
coedge $195 $196 $73 $197 $198 reversed $47 $-1 #
coedge $199 $73 $196 $200 $201 forward $47 $-1 #
coedge $-1 $190 $202 $73 $120 forward $113 $-1 #
edge $-1 $203 -2.3561944901923448 $204 0.78539816339744828 $119 $205 forward 7 unknown #
face $-1 $206 $207 $25 $-1 $208 reversed single #
loop $-1 $-1 $209 $74 #
plane-surface $-1 -19.999999999999979 0 -142.4772708486752 -1 0 -3.8285889215894375e-016 -3.8285889215894375e-016 0 1 forward_v I I I I #
coedge $-1 $128 $210 $211 $212 forward $75 $-1 #
attrib_hh_coedge_geombuild-attrib_entity_geombuild-individual_entity_attribute-attrib_HH-attrib $-1 $-1 $-1 $77 F #
coedge $213 $214 $77 $215 $216 forward $51 $-1 #
coedge $217 $77 $214 $218 $219 reversed $51 $-1 #
coedge $-1 $220 $124 $77 $129 forward $75 $-1 #
edge $-1 $221 -0.78539816339744828 $222 2.3561944901923448 $128 $223 forward 7 unknown #
aggregate_geombuild_attribute-aggregate_geombuild_base_attribute-aggregate_body_attribute-attrib_HH-attrib $-1 $224 $78 $0 #
attrib_hh_face_geombuild-attrib_entity_geombuild-individual_entity_attribute-attrib_HH-attrib $-1 $-1 $80 $56 F #
model_id-kcp-attrib $-1 $225 $-1 $81 1 1017635171 90 -447086591 6 #
face $226 $227 $228 $9 $-1 $229 forward single #
plane-surface $-1 -15 0 0 1 0 0 0 0 -1 forward_v I I I I #
coedge $230 $231 $232 $233 $234 reversed $82 $-1 #
attrib_hh_coedge_geombuild-attrib_entity_geombuild-individual_entity_attribute-attrib_HH-attrib $-1 $-1 $-1 $84 F #
coedge $235 $153 $84 $236 $237 reversed $57 $-1 #
edge $238 $239 -20 $100 -10 $97 $240 forward 7 unknown #
attrib_hh_coedge_geombuild-attrib_entity_geombuild-individual_entity_attribute-attrib_HH-attrib $-1 $-1 $-1 $86 F #
coedge $241 $87 $86 $231 $242 reversed $38 $-1 #
attrib_hh_coedge_geombuild-attrib_entity_geombuild-individual_entity_attribute-attrib_HH-attrib $-1 $-1 $-1 $87 F #
coedge $243 $233 $244 $87 $143 forward $245 $-1 #
edge $246 $147 -5 $247 5 $142 $248 forward 7 unknown #
attrib_hh_coedge_geombuild-attrib_entity_geombuild-individual_entity_attribute-attrib_HH-attrib $-1 $-1 $-1 $88 F #
coedge $249 $250 $88 $244 $251 reversed $98 $-1 #
attrib_edge_convexity-kcp-attrib $-1 $252 $-1 $89 1 #
vertex $253 $251 $254 #
straight-curve $-1 -15 30 10 0 0 1 I I #
attrib_hh_coedge_geombuild-attrib_entity_geombuild-individual_entity_attribute-attrib_HH-attrib $-1 $-1 $-1 $91 F #
coedge $255 $232 $231 $91 $151 forward $82 $-1 #
edge $256 $158 -0.78539816339744828 $155 2.3561944901923448 $150 $257 forward 7 unknown #
attrib_hh_coedge_geombuild-attrib_entity_geombuild-individual_entity_attribute-attrib_HH-attrib $-1 $-1 $-1 $92 F #
coedge $258 $92 $137 $232 $259 forward $57 $-1 #
attrib_hh_edge_geombuild-attrib_entity_geombuild-individual_entity_attribute-attrib_HH-attrib $-1 $-1 $-1 $93 F #
vertex $260 $259 $261 #
straight-curve $-1 -20 -30 20 -1 0 0 I I #
attrib_hh_edge_geombuild-attrib_entity_geombuild-individual_entity_attribute-attrib_HH-attrib $-1 $-1 $-1 $95 F #
vertex $262 $242 $263 #
straight-curve $-1 -20 30 20 1 0 0 I I #
attrib_hh_coedge_geombuild-attrib_entity_geombuild-individual_entity_attribute-attrib_HH-attrib $-1 $-1 $-1 $97 F #
coedge $264 $97 $265 $266 $267 reversed $98 $-1 #
convexity-sys-attrib $-1 $268 $99 $64 #
attrib_hh_vertex_geombuild-attrib_entity_geombuild-individual_entity_attribute-attrib_HH-attrib $-1 $-1 $-1 $100 F #
point $-1 -15 -30 20 #
attrib_hh_vertex_geombuild-attrib_entity_geombuild-individual_entity_attribute-attrib_HH-attrib $-1 $-1 $-1 $101 F #
point $-1 -15 30 20 #
model_id-kcp-attrib $-1 $-1 $-1 $104 1 1017635171 90 -447086590 2 #
face $269 $270 $271 $21 $-1 $272 reversed single #
loop $-1 $-1 $273 $104 #
plane-surface $-1 -15 0 0 1 0 0 0 0 -1 forward_v I I I I #
coedge $-1 $274 $179 $275 $276 forward $105 $-1 #
coedge $-1 $277 $107 $274 $278 forward $67 $-1 #
coedge $-1 $107 $277 $279 $280 forward $67 $-1 #
coedge $-1 $182 $181 $107 $175 reversed $183 $-1 #
edge $-1 $281 -60 $282 60 $174 $283 forward 7 unknown #
coedge $-1 $109 $108 $284 $285 forward $43 $-1 #
coedge $-1 $286 $287 $108 $178 reversed $271 $-1 #
edge $-1 $185 -15 $288 15 $177 $289 forward 7 unknown #
coedge $-1 $171 $290 $109 $180 reversed $105 $-1 #
edge $-1 $291 -15 $184 15 $179 $292 forward 7 unknown #
coedge $-1 $174 $110 $290 $293 forward $183 $-1 #
coedge $-1 $110 $174 $286 $294 reversed $183 $-1 #
loop $-1 $-1 $181 $270 #
vertex $-1 $111 $295 #
vertex $-1 $111 $296 #
straight-curve $-1 15 0 30 0 1 0 I I #
face $-1 $297 $298 $23 $-1 $299 reversed single #
loop $-1 $-1 $193 $112 #
plane-surface $-1 0 30 0 0 -1 0 0 0 -1 forward_v I I I I #
coedge $-1 $300 $119 $301 $302 forward $113 $-1 #
coedge $-1 $303 $115 $304 $305 forward $71 $-1 #
coedge $-1 $115 $303 $300 $306 forward $71 $-1 #
coedge $-1 $301 $307 $115 $194 reversed $188 $-1 #
edge $-1 $308 56.238635424337616 $309 66.23863542433763 $193 $310 forward 7 unknown #
attrib_hh_coedge_geombuild-attrib_entity_geombuild-individual_entity_attribute-attrib_HH-attrib $-1 $-1 $-1 $117 F #
coedge $311 $118 $117 $312 $313 forward $47 $-1 #
coedge $-1 $314 $315 $117 $198 forward $316 $-1 #
edge $317 $318 -15 $203 -5 $197 $319 forward 7 unknown #
attrib_hh_coedge_geombuild-attrib_entity_geombuild-individual_entity_attribute-attrib_HH-attrib $-1 $-1 $-1 $118 F #
coedge $-1 $307 $301 $118 $201 reversed $188 $-1 #
edge $320 $321 -15 $204 -5.0000000000000142 $200 $322 forward 7 unknown #
coedge $-1 $119 $300 $314 $323 forward $113 $-1 #
vertex $-1 $198 $324 #
vertex $-1 $201 $325 #
ellipse-curve $-1 -9.9999999999999858 1.8369095307335659e-015 -127.4772708486752 -3.8285889215894375e-016 1.2246063538223773e-016 1 21.213203435596402 21.213203435596402 5.523881195278934e-015 1 I I #
face $-1 $326 $327 $25 $-1 $328 reversed single #
loop $-1 $-1 $329 $121 #
plane-surface $-1 0 0 -137.4772708486752 0 0 1 1 0 0 forward_v I I I I #
coedge $-1 $330 $331 $332 $333 forward $122 $-1 #
coedge $-1 $124 $220 $330 $334 reversed $75 $-1 #
coedge $-1 $332 $215 $124 $212 reversed $335 $-1 #
edge $-1 $336 -25.000000000000018 $221 -15.000000000000018 $211 $337 forward 7 unknown #
attrib_hh_coedge_geombuild-attrib_entity_geombuild-individual_entity_attribute-attrib_HH-attrib $-1 $-1 $-1 $126 F #
coedge $338 $127 $126 $339 $340 forward $51 $-1 #
coedge $-1 $211 $341 $126 $216 reversed $335 $-1 #
edge $342 $221 5 $343 15 $215 $344 forward 7 unknown #
attrib_hh_coedge_geombuild-attrib_entity_geombuild-individual_entity_attribute-attrib_HH-attrib $-1 $-1 $-1 $127 F #
coedge $-1 $345 $346 $127 $219 forward $327 $-1 #
edge $347 $222 5 $348 15 $218 $349 forward 7 unknown #
coedge $-1 $210 $128 $346 $350 forward $75 $-1 #
vertex $-1 $216 $351 #
vertex $-1 $219 $352 #
ellipse-curve $-1 -9.9999999999999858 0 -127.4772708486752 -3.8285889215894375e-016 0 1 21.213203435596402 -21.213203435596402 8.1216635664947373e-015 1 I I #
aggregate_stitch_attribute-aggregate_stitch_base_attribute-aggregate_body_attribute-attrib_HH-attrib $-1 $353 $130 $0 F #
attrib_hh_face_geombuild-attrib_entity_geombuild-individual_entity_attribute-attrib_HH-attrib $-1 $-1 $132 $81 F #
model_id-kcp-attrib $-1 $354 $-1 $133 1 1017635171 90 -447086591 7 #
face $355 $356 $357 $9 $-1 $358 forward single #
loop $-1 $-1 $359 $133 #
plane-surface $-1 5 0 20 1 0 0 0 0 -1 forward_v I I I I #
attrib_hh_coedge_geombuild-attrib_entity_geombuild-individual_entity_attribute-attrib_HH-attrib $-1 $-1 $-1 $135 F #
coedge $360 $150 $135 $140 $242 forward $82 $-1 #
coedge $361 $135 $150 $153 $259 reversed $82 $-1 #
coedge $362 $236 $142 $135 $234 forward $245 $-1 #
edge $363 $247 -30 $364 30 $233 $365 forward 7 unknown #
attrib_hh_coedge_geombuild-attrib_entity_geombuild-individual_entity_attribute-attrib_HH-attrib $-1 $-1 $-1 $137 F #
coedge $366 $266 $233 $137 $237 forward $245 $-1 #
edge $367 $364 -5 $239 5 $236 $368 forward 7 unknown #
attrib_edge_convexity-kcp-attrib $-1 $369 $-1 $138 1 #
vertex $370 $237 $371 #
straight-curve $-1 -15 -30 10 0 0 -1 I I #
attrib_hh_coedge_geombuild-attrib_entity_geombuild-individual_entity_attribute-attrib_HH-attrib $-1 $-1 $-1 $140 F #
edge $372 $247 -10 $158 0 $231 $373 forward 7 unknown #
attrib_hh_coedge_geombuild-attrib_entity_geombuild-individual_entity_attribute-attrib_HH-attrib $-1 $-1 $-1 $142 F #
coedge $374 $142 $375 $145 $251 forward $245 $-1 #
loop $-1 $-1 $236 $376 #
attrib_edge_convexity-kcp-attrib $-1 $377 $-1 $143 1 #
vertex $378 $143 $379 #
straight-curve $-1 -10 30 30 1 0 0 I I #
attrib_hh_coedge_geombuild-attrib_entity_geombuild-individual_entity_attribute-attrib_HH-attrib $-1 $-1 $-1 $145 F #
coedge $380 $381 $145 $382 $383 forward $98 $-1 #
edge $384 $385 -60 $147 -30 $145 $386 forward 7 unknown #
convexity-sys-attrib $-1 $387 $146 $89 #
attrib_hh_vertex_geombuild-attrib_entity_geombuild-individual_entity_attribute-attrib_HH-attrib $-1 $-1 $-1 $147 F #
point $-1 -15 30 30 #
attrib_hh_coedge_geombuild-attrib_entity_geombuild-individual_entity_attribute-attrib_HH-attrib $-1 $-1 $-1 $150 F #
attrib_hh_edge_geombuild-attrib_entity_geombuild-individual_entity_attribute-attrib_HH-attrib $-1 $-1 $-1 $151 F #
ellipse-curve $-1 -5 0 20 -1 0 0 0 21.213203435596402 -21.213203435596402 1 I I #
attrib_hh_coedge_geombuild-attrib_entity_geombuild-individual_entity_attribute-attrib_HH-attrib $-1 $-1 $-1 $153 F #
edge $388 $364 -10 $155 0 $232 $389 forward 7 unknown #
attrib_hh_vertex_geombuild-attrib_entity_geombuild-individual_entity_attribute-attrib_HH-attrib $-1 $-1 $-1 $155 F #
point $-1 -5 -30 20 #
attrib_hh_vertex_geombuild-attrib_entity_geombuild-individual_entity_attribute-attrib_HH-attrib $-1 $-1 $-1 $158 F #
point $-1 -5 30 20 #
attrib_hh_coedge_geombuild-attrib_entity_geombuild-individual_entity_attribute-attrib_HH-attrib $-1 $-1 $-1 $161 F #
coedge $390 $161 $381 $391 $392 reversed $98 $-1 #
coedge $393 $394 $236 $161 $267 forward $245 $-1 #
edge $395 $239 30 $396 60 $161 $386 forward 7 unknown #
attrib_hh_edge_geombuild-attrib_entity_geombuild-individual_entity_attribute-attrib_HH-attrib $-1 $-1 $162 $64 F #
model_id-kcp-attrib $-1 $-1 $-1 $168 1 1017635171 90 -447086590 6 #
face $397 $-1 $183 $21 $-1 $398 reversed single #
loop $-1 $-1 $286 $168 #
plane-surface $-1 0 60 0 0 -1 0 0 0 -1 forward_v I I I I #
coedge $-1 $399 $284 $287 $400 forward $169 $-1 #
coedge $-1 $290 $171 $172 $278 reversed $105 $-1 #
coedge $-1 $284 $399 $171 $276 reversed $169 $-1 #
edge $-1 $291 -30 $401 30 $275 $402 forward 7 unknown #
coedge $-1 $173 $172 $399 $403 forward $67 $-1 #
edge $-1 $282 -15 $401 15 $274 $404 forward 7 unknown #
coedge $-1 $287 $286 $173 $280 reversed $271 $-1 #
edge $-1 $405 -15 $281 15 $279 $406 forward 7 unknown #
vertex $-1 $175 $407 #
vertex $-1 $293 $408 #
straight-curve $-1 15 0 -30 0 -1 0 I I #
coedge $-1 $273 $275 $176 $285 reversed $169 $-1 #
edge $-1 $288 -60 $291 60 $284 $409 forward 7 unknown #
coedge $-1 $279 $177 $182 $294 forward $271 $-1 #
coedge $-1 $177 $279 $273 $400 reversed $271 $-1 #
vertex $-1 $178 $410 #
straight-curve $-1 0 60 30 -1 0 0 I I #
coedge $-1 $179 $274 $181 $293 reversed $105 $-1 #
vertex $-1 $285 $411 #
straight-curve $-1 0 -60 30 1 0 0 I I #
edge $-1 $184 -30 $282 30 $181 $412 forward 7 unknown #
edge $-1 $185 -30 $281 30 $182 $413 forward 7 unknown #
point $-1 15 -60 30 #
point $-1 15 60 30 #
face $-1 $-1 $316 $23 $-1 $414 reversed single #
loop $-1 $-1 $304 $187 #
plane-surface $-1 0 0 -137.4772708486752 0 0 1 1 0 0 forward_v I I I I #
coedge $-1 $202 $190 $192 $306 reversed $113 $-1 #
coedge $-1 $200 $193 $190 $302 reversed $188 $-1 #
edge $-1 $204 15.000000000000018 $308 25.000000000000018 $301 $415 forward 7 unknown #
coedge $-1 $192 $191 $416 $417 forward $71 $-1 #
coedge $-1 $418 $419 $191 $305 reversed $298 $-1 #
edge $420 $309 -30 $421 30 $304 $422 forward 7 unknown #
edge $-1 $423 -30 $308 30 $300 $424 forward 7 unknown #
coedge $-1 $193 $200 $418 $425 reversed $188 $-1 #
vertex $-1 $194 $426 #
vertex $-1 $425 $427 #
straight-curve $-1 -20.000000000000007 30 -71.238635424337602 3.8285889215894375e-016 0 -1 I I #
attrib_hh_coedge_geombuild-attrib_entity_geombuild-individual_entity_attribute-attrib_HH-attrib $-1 $-1 $-1 $196 F #
coedge $-1 $419 $418 $196 $313 reversed $298 $-1 #
edge $428 $318 -2.3561944901923448 $321 0.78539816339744828 $312 $429 forward 7 unknown #
coedge $-1 $416 $197 $202 $323 reversed $316 $-1 #
coedge $-1 $197 $416 $419 $430 reversed $316 $-1 #
loop $-1 $-1 $416 $297 #
convexity-sys-attrib $-1 $-1 $-1 $198 #
vertex $-1 $430 $431 #
straight-curve $-1 -9.9999999999999858 -30 -122.4772708486752 -3.8285889215894375e-016 1.224606353822377e-016 1 I I #
convexity-sys-attrib $-1 $-1 $-1 $201 #
vertex $-1 $313 $432 #
straight-curve $-1 -9.9999999999999858 30 -122.4772708486752 -3.8285889215894375e-016 1.224606353822377e-016 1 I I #
edge $-1 $423 -25.000000000000018 $203 -15.000000000000018 $314 $433 forward 7 unknown #
point $-1 -9.9999999999999858 -29.999999999999996 -127.4772708486752 #
point $-1 -9.9999999999999858 30.000000000000004 -127.47727084867522 #
face $-1 $-1 $335 $25 $-1 $434 reversed single #
loop $-1 $-1 $435 $206 #
plane-surface $-1 0 30 0 0 -1 0 0 0 -1 forward_v I I I I #
coedge $-1 $436 $437 $331 $438 reversed $207 $-1 #
coedge $-1 $439 $209 $210 $334 forward $122 $-1 #
coedge $-1 $209 $439 $329 $438 forward $122 $-1 #
coedge $-1 $341 $211 $209 $333 reversed $335 $-1 #
edge $-1 $440 -66.238635424337602 $336 -56.238635424337616 $332 $441 forward 7 unknown #
edge $-1 $336 -30 $442 30 $210 $443 forward 7 unknown #
loop $-1 $-1 $332 $326 #
vertex $-1 $212 $444 #
straight-curve $-1 5.000000000000032 -30 -127.4772708486752 1 0 3.8285889215894375e-016 I I #
attrib_hh_coedge_geombuild-attrib_entity_geombuild-individual_entity_attribute-attrib_HH-attrib $-1 $-1 $-1 $214 F #
coedge $-1 $437 $436 $214 $340 reversed $207 $-1 #
edge $445 $343 -0.78539816339744828 $348 2.3561944901923448 $339 $446 forward 7 unknown #
coedge $-1 $215 $332 $437 $447 reversed $335 $-1 #
convexity-sys-attrib $-1 $-1 $-1 $216 #
vertex $-1 $447 $448 #
straight-curve $-1 -9.9999999999999858 -30 -122.4772708486752 3.8285889215894375e-016 0 -1 I I #
coedge $-1 $435 $218 $436 $449 reversed $327 $-1 #
coedge $-1 $218 $435 $220 $350 reversed $327 $-1 #
convexity-sys-attrib $-1 $-1 $-1 $219 #
vertex $-1 $340 $450 #
straight-curve $-1 -9.9999999999999858 30 -122.4772708486752 3.8285889215894375e-016 0 -1 I I #
edge $-1 $222 15.000000000000018 $442 25.000000000000018 $346 $451 forward 7 unknown #
point $-1 -9.9999999999999858 -30 -127.4772708486752 #
point $-1 -9.9999999999999858 30 -127.4772708486752 #
aggregate_simgeom_attribute-aggregate_simgeom_base_attribute-aggregate_body_attribute-attrib_HH-attrib $-1 $-1 $224 $0 F #
attrib_hh_face_geombuild-attrib_entity_geombuild-individual_entity_attribute-attrib_HH-attrib $-1 $-1 $226 $133 F #
model_id-kcp-attrib $-1 $452 $-1 $227 1 1017635171 90 -447086591 8 #
face $453 $454 $455 $9 $-1 $456 reversed single #
loop $-1 $-1 $457 $227 #
plane-surface $-1 20 30 20 0 -1 0 0 0 -1 forward_v I I I I #
coedge $458 $459 $460 $461 $462 reversed $228 $-1 #
attrib_hh_coedge_geombuild-attrib_entity_geombuild-individual_entity_attribute-attrib_HH-attrib $-1 $-1 $-1 $231 F #
attrib_hh_coedge_geombuild-attrib_entity_geombuild-individual_entity_attribute-attrib_HH-attrib $-1 $-1 $-1 $232 F #
attrib_hh_coedge_geombuild-attrib_entity_geombuild-individual_entity_attribute-attrib_HH-attrib $-1 $-1 $-1 $233 F #
attrib_edge_convexity-kcp-attrib $-1 $463 $-1 $234 1 #
vertex $464 $237 $465 #
straight-curve $-1 -5 0 30 0 -1 0 I I #
attrib_hh_coedge_geombuild-attrib_entity_geombuild-individual_entity_attribute-attrib_HH-attrib $-1 $-1 $-1 $236 F #
attrib_edge_convexity-kcp-attrib $-1 $466 $-1 $237 1 #
straight-curve $-1 -10 -30 30 -1 0 0 I I #
convexity-sys-attrib $-1 $467 $238 $138 #
attrib_hh_vertex_geombuild-attrib_entity_geombuild-individual_entity_attribute-attrib_HH-attrib $-1 $-1 $-1 $239 F #
point $-1 -15 -30 30 #
attrib_hh_edge_geombuild-attrib_entity_geombuild-individual_entity_attribute-attrib_HH-attrib $-1 $-1 $-1 $242 F #
straight-curve $-1 -5 30 20 0 0 -1 I I #
attrib_hh_coedge_geombuild-attrib_entity_geombuild-individual_entity_attribute-attrib_HH-attrib $-1 $-1 $-1 $244 F #
coedge $468 $244 $469 $470 $471 forward $245 $-1 #
face $472 $473 $245 $9 $-1 $474 forward single #
convexity-sys-attrib $-1 $475 $246 $143 #
attrib_hh_vertex_geombuild-attrib_entity_geombuild-individual_entity_attribute-attrib_HH-attrib $-1 $-1 $-1 $247 F #
point $-1 -5 30 30 #
attrib_hh_coedge_geombuild-attrib_entity_geombuild-individual_entity_attribute-attrib_HH-attrib $-1 $-1 $-1 $250 F #
coedge $476 $265 $250 $477 $478 reversed $98 $-1 #
coedge $479 $470 $480 $250 $383 reversed $481 $-1 #
edge $482 $385 -30 $483 30 $382 $484 forward 7 unknown #
attrib_edge_convexity-kcp-attrib $-1 $485 $-1 $251 1 #
vertex $486 $471 $487 #
straight-curve $-1 -15 0 30 0 -1 0 I I #
attrib_hh_edge_geombuild-attrib_entity_geombuild-individual_entity_attribute-attrib_HH-attrib $-1 $-1 $252 $89 F #
attrib_hh_edge_geombuild-attrib_entity_geombuild-individual_entity_attribute-attrib_HH-attrib $-1 $-1 $-1 $259 F #
straight-curve $-1 -5 -30 20 0 0 -1 I I #
attrib_hh_coedge_geombuild-attrib_entity_geombuild-individual_entity_attribute-attrib_HH-attrib $-1 $-1 $-1 $265 F #
coedge $488 $489 $490 $265 $392 forward $491 $-1 #
edge $492 $396 -30 $493 30 $265 $494 forward 7 unknown #
attrib_hh_coedge_geombuild-attrib_entity_geombuild-individual_entity_attribute-attrib_HH-attrib $-1 $-1 $-1 $266 F #
coedge $495 $496 $266 $490 $497 forward $245 $-1 #
attrib_edge_convexity-kcp-attrib $-1 $498 $-1 $267 1 #
vertex $499 $267 $500 #
model_id-kcp-attrib $-1 $-1 $-1 $270 1 1017635171 90 -447086590 7 #
plane-surface $-1 15 0 0 -1 0 0 0 0 1 forward_v I I I I #
coedge $-1 $275 $273 $277 $403 reversed $169 $-1 #
edge $-1 $288 -30 $405 30 $287 $501 forward 7 unknown #
vertex $-1 $403 $502 #
straight-curve $-1 -15 -60 0 0 0 -1 I I #
edge $-1 $401 -60 $405 60 $399 $503 forward 7 unknown #
straight-curve $-1 0 -60 -30 -1 0 0 I I #
vertex $-1 $280 $504 #
straight-curve $-1 0 60 -30 1 0 0 I I #
point $-1 15 60 -30 #
point $-1 15 -60 -30 #
straight-curve $-1 -15 0 30 0 -1 0 I I #
point $-1 -15 60 30 #
point $-1 -15 -60 30 #
straight-curve $-1 15 -60 0 0 0 -1 I I #
straight-curve $-1 15 60 0 0 0 -1 I I #
plane-surface $-1 0 -30 0 0 1 0 0 0 1 forward_v I I I I #
straight-curve $-1 5.000000000000032 30 -127.4772708486752 -1 0 -3.8285889215894375e-016 I I #
coedge $-1 $315 $314 $303 $417 reversed $316 $-1 #
edge $-1 $421 -66.238635424337602 $423 -56.238635424337602 $416 $505 forward 7 unknown #
coedge $-1 $312 $304 $307 $425 forward $298 $-1 #
coedge $-1 $304 $312 $315 $430 forward $298 $-1 #
convexity-sys-attrib $-1 $-1 $-1 $305 #
vertex $-1 $305 $506 #
straight-curve $-1 -19.999999999999979 0 -137.4772708486752 0 -1 0 I I #
vertex $-1 $417 $507 #
straight-curve $-1 -19.999999999999986 1.8369095307335659e-015 -127.47727084867522 4.6885143195523885e-032 1 -1.2246063538223773e-016 I I #
edge $508 $309 -19.999999999999982 $321 -9.9999999999999822 $307 $509 forward 7 unknown #
point $-1 -19.999999999999986 30.000000000000004 -127.47727084867522 #
point $-1 -19.999999999999982 30 -137.47727084867523 #
convexity-sys-attrib $-1 $-1 $-1 $313 #
ellipse-curve $-1 -9.9999999999999805 6.1230317691118823e-016 -137.4772708486752 0 0 1 21.213203435596402 21.213203435596402 5.523881195278934e-015 1 I I #
edge $510 $318 9.9999999999999822 $421 19.999999999999982 $315 $511 forward 7 unknown #
point $-1 -9.9999999999999822 -30 -137.4772708486752 #
point $-1 -9.9999999999999822 30 -137.4772708486752 #
straight-curve $-1 5.000000000000032 -30 -127.4772708486752 1 0 3.8285889215894375e-016 I I #
plane-surface $-1 0 -30 0 0 1 0 0 0 1 forward_v I I I I #
coedge $-1 $346 $345 $439 $512 reversed $327 $-1 #
coedge $-1 $339 $329 $345 $449 forward $207 $-1 #
coedge $-1 $329 $339 $341 $447 forward $207 $-1 #
edge $513 $514 -30 $440 30 $329 $515 forward 7 unknown #
coedge $-1 $331 $330 $435 $512 forward $122 $-1 #
vertex $-1 $438 $516 #
straight-curve $-1 -20.000000000000007 -30 -71.238635424337602 -3.8285889215894375e-016 0 1 I I #
vertex $-1 $350 $517 #
straight-curve $-1 -19.999999999999986 0 -127.47727084867522 0 1 0 I I #
point $-1 -19.999999999999986 -30 -127.47727084867522 #
convexity-sys-attrib $-1 $-1 $-1 $340 #
ellipse-curve $-1 -9.9999999999999805 0 -137.4772708486752 0 0 1 21.213203435596402 -21.213203435596402 8.1216635664947373e-015 1 I I #
edge $518 $343 9.9999999999999822 $440 19.999999999999982 $341 $519 forward 7 unknown #
point $-1 -9.9999999999999822 -30 -137.4772708486752 #
edge $520 $514 -19.999999999999982 $348 -9.9999999999999822 $345 $521 forward 7 unknown #
point $-1 -9.9999999999999822 30 -137.4772708486752 #
straight-curve $-1 5.000000000000032 30 -127.4772708486752 -1 0 -3.8285889215894375e-016 I I #
attrib_hh_face_geombuild-attrib_entity_geombuild-individual_entity_attribute-attrib_HH-attrib $-1 $-1 $355 $227 F #
model_id-kcp-attrib $-1 $522 $-1 $356 1 1017635171 90 -447086591 9 #
face $523 $376 $524 $9 $-1 $525 forward single #
loop $-1 $-1 $526 $356 #
cone-surface $-1 20 0 20 -1 0 0 0 -21.213203435596402 -21.213203435596402 1 I I 0 1 29.999999999999964 forward I I I I #
coedge $527 $528 $529 $530 $531 reversed $357 $-1 #
attrib_hh_coedge_geombuild-attrib_entity_geombuild-individual_entity_attribute-attrib_HH-attrib $-1 $-1 $-1 $359 F #
coedge $532 $533 $359 $534 $535 forward $228 $-1 #
coedge $536 $359 $533 $528 $537 reversed $228 $-1 #
coedge $538 $530 $539 $359 $462 forward $245 $-1 #
edge $540 $541 -30 $542 30 $461 $543 forward 7 unknown #
convexity-sys-attrib $-1 $544 $363 $234 #
attrib_hh_vertex_geombuild-attrib_entity_geombuild-individual_entity_attribute-attrib_HH-attrib $-1 $-1 $-1 $364 F #
point $-1 -5 -30 30 #
convexity-sys-attrib $-1 $545 $367 $237 #
attrib_hh_edge_geombuild-attrib_entity_geombuild-individual_entity_attribute-attrib_HH-attrib $-1 $-1 $369 $138 F #
attrib_hh_coedge_geombuild-attrib_entity_geombuild-individual_entity_attribute-attrib_HH-attrib $-1 $-1 $-1 $375 F #
coedge $546 $375 $530 $547 $548 forward $245 $-1 #
coedge $549 $550 $382 $375 $471 reversed $481 $-1 #
edge $551 $552 -15 $385 15 $470 $553 forward 7 unknown #
model_id-kcp-attrib $-1 $554 $-1 $376 1 1017635171 90 -447086591 11 #
face $555 $556 $557 $9 $-1 $558 reversed single #
plane-surface $-1 0 0 30 0 0 1 1 0 0 forward_v I I I I #
attrib_hh_edge_geombuild-attrib_entity_geombuild-individual_entity_attribute-attrib_HH-attrib $-1 $-1 $377 $143 F #
attrib_hh_coedge_geombuild-attrib_entity_geombuild-individual_entity_attribute-attrib_HH-attrib $-1 $-1 $-1 $381 F #
coedge $559 $560 $561 $381 $478 forward $557 $-1 #
edge $562 $493 -60 $483 60 $381 $563 forward 7 unknown #
attrib_hh_coedge_geombuild-attrib_entity_geombuild-individual_entity_attribute-attrib_HH-attrib $-1 $-1 $-1 $382 F #
coedge $564 $382 $550 $560 $565 reversed $481 $-1 #
loop $-1 $-1 $550 $566 #
attrib_edge_convexity-kcp-attrib $-1 $567 $-1 $383 1 #
vertex $568 $565 $569 #
straight-curve $-1 -15 60 0 0 0 -1 I I #
convexity-sys-attrib $-1 $570 $384 $251 #
attrib_hh_vertex_geombuild-attrib_entity_geombuild-individual_entity_attribute-attrib_HH-attrib $-1 $-1 $-1 $385 F #
point $-1 -15 60 30 #
attrib_hh_coedge_geombuild-attrib_entity_geombuild-individual_entity_attribute-attrib_HH-attrib $-1 $-1 $-1 $391 F #
coedge $571 $572 $391 $561 $573 reversed $491 $-1 #
coedge $574 $391 $572 $394 $497 reversed $491 $-1 #
loop $-1 $-1 $391 $556 #
attrib_edge_convexity-kcp-attrib $-1 $575 $-1 $392 1 #
vertex $576 $478 $577 #
straight-curve $-1 -15 -60 0 0 0 -1 I I #
attrib_hh_coedge_geombuild-attrib_entity_geombuild-individual_entity_attribute-attrib_HH-attrib $-1 $-1 $-1 $394 F #
coedge $578 $539 $394 $579 $580 forward $245 $-1 #
edge $581 $396 -15 $582 15 $490 $583 forward 7 unknown #
convexity-sys-attrib $-1 $584 $395 $267 #
attrib_hh_vertex_geombuild-attrib_entity_geombuild-individual_entity_attribute-attrib_HH-attrib $-1 $-1 $-1 $396 F #
point $-1 -15 -60 30 #
straight-curve $-1 -15 60 0 0 0 -1 I I #
point $-1 -15 -60 -30 #
straight-curve $-1 -15 0 -30 0 1 0 I I #
point $-1 -15 60 -30 #
straight-curve $-1 -20.000000000000007 -30 -71.238635424337602 -3.8285889215894375e-016 0 1 I I #
point $-1 -19.999999999999982 -30 -137.4772708486752 #
point $-1 -19.999999999999986 -29.999999999999996 -127.4772708486752 #
convexity-sys-attrib $-1 $-1 $-1 $425 #
straight-curve $-1 0 30 -137.4772708486752 1 0 0 I I #
convexity-sys-attrib $-1 $-1 $-1 $430 #
straight-curve $-1 0 -30 -137.4772708486752 -1 0 0 I I #
edge $-1 $442 56.238635424337616 $514 66.238635424337602 $435 $585 forward 7 unknown #
convexity-sys-attrib $-1 $-1 $-1 $438 #
vertex $-1 $449 $586 #
straight-curve $-1 -19.999999999999979 0 -137.4772708486752 0 -1 0 I I #
point $-1 -19.999999999999982 -30 -137.4772708486752 #
point $-1 -19.999999999999986 30 -127.47727084867522 #
convexity-sys-attrib $-1 $-1 $-1 $447 #
straight-curve $-1 0 -30 -137.4772708486752 -1 0 0 I I #
convexity-sys-attrib $-1 $-1 $-1 $449 #
straight-curve $-1 0 30 -137.4772708486752 1 0 0 I I #
attrib_hh_face_geombuild-attrib_entity_geombuild-individual_entity_attribute-attrib_HH-attrib $-1 $-1 $453 $356 F #
model_id-kcp-attrib $-1 $587 $-1 $454 1 1017635171 90 -447086591 10 #
loop $-1 $-1 $588 $454 #
plane-surface $-1 20 -30 20 0 1 0 0 0 1 forward_v I I I I #
coedge $589 $590 $591 $592 $593 reversed $455 $-1 #
attrib_hh_coedge_geombuild-attrib_entity_geombuild-individual_entity_attribute-attrib_HH-attrib $-1 $-1 $-1 $457 F #
coedge $594 $595 $457 $460 $537 forward $357 $-1 #
coedge $596 $457 $595 $597 $598 reversed $357 $-1 #
coedge $599 $469 $461 $457 $531 forward $245 $-1 #
edge $600 $542 -5 $601 5 $530 $602 forward 7 unknown #
attrib_hh_coedge_geombuild-attrib_entity_geombuild-individual_entity_attribute-attrib_HH-attrib $-1 $-1 $-1 $459 F #
coedge $603 $460 $459 $604 $605 forward $228 $-1 #
coedge $606 $588 $607 $459 $535 reversed $524 $-1 #
edge $608 $541 -10 $609 0 $459 $610 forward 7 unknown #
attrib_hh_coedge_geombuild-attrib_entity_geombuild-individual_entity_attribute-attrib_HH-attrib $-1 $-1 $-1 $460 F #
edge $611 $542 -10 $612 0 $528 $613 forward 7 unknown #
attrib_hh_coedge_geombuild-attrib_entity_geombuild-individual_entity_attribute-attrib_HH-attrib $-1 $-1 $-1 $461 F #
coedge $614 $461 $496 $588 $615 forward $245 $-1 #
attrib_edge_convexity-kcp-attrib $-1 $616 $-1 $462 1 #
vertex $617 $462 $618 #
vertex $619 $462 $620 #
straight-curve $-1 5 0 30 0 1 0 I I #
attrib_hh_edge_geombuild-attrib_entity_geombuild-individual_entity_attribute-attrib_HH-attrib $-1 $-1 $463 $234 F #
attrib_hh_edge_geombuild-attrib_entity_geombuild-individual_entity_attribute-attrib_HH-attrib $-1 $-1 $466 $237 F #
attrib_hh_coedge_geombuild-attrib_entity_geombuild-individual_entity_attribute-attrib_HH-attrib $-1 $-1 $-1 $469 F #
coedge $621 $597 $622 $469 $548 reversed $623 $-1 #
edge $624 $601 30 $552 60 $547 $625 forward 7 unknown #
attrib_hh_coedge_geombuild-attrib_entity_geombuild-individual_entity_attribute-attrib_HH-attrib $-1 $-1 $-1 $470 F #
coedge $626 $480 $470 $622 $627 forward $481 $-1 #
attrib_edge_convexity-kcp-attrib $-1 $628 $-1 $471 1 #
vertex $629 $548 $630 #
straight-curve $-1 0 60 30 -1 0 0 I I #
attrib_hh_face_geombuild-attrib_entity_geombuild-individual_entity_attribute-attrib_HH-attrib $-1 $-1 $472 $376 F #
model_id-kcp-attrib $-1 $631 $-1 $473 1 1017635171 90 -447086591 12 #
face $632 $566 $491 $9 $-1 $633 reversed single #
loop $-1 $-1 $634 $473 #
plane-surface $-1 0 0 -30 0 0 1 1 0 0 forward_v I I I I #
attrib_hh_coedge_geombuild-attrib_entity_geombuild-individual_entity_attribute-attrib_HH-attrib $-1 $-1 $-1 $477 F #
coedge $635 $634 $477 $480 $565 forward $557 $-1 #
coedge $636 $477 $634 $489 $573 forward $557 $-1 #
attrib_edge_convexity-kcp-attrib $-1 $637 $-1 $478 1 #
straight-curve $-1 -15 0 -30 0 1 0 I I #
attrib_hh_coedge_geombuild-attrib_entity_geombuild-individual_entity_attribute-attrib_HH-attrib $-1 $-1 $-1 $480 F #
edge $638 $483 -15 $639 15 $480 $640 forward 7 unknown #
face $641 $642 $481 $9 $-1 $643 reversed single #
convexity-sys-attrib $-1 $644 $482 $383 #
attrib_hh_vertex_geombuild-attrib_entity_geombuild-individual_entity_attribute-attrib_HH-attrib $-1 $-1 $-1 $483 F #
point $-1 -15 60 -30 #
attrib_hh_edge_geombuild-attrib_entity_geombuild-individual_entity_attribute-attrib_HH-attrib $-1 $-1 $485 $251 F #
attrib_hh_coedge_geombuild-attrib_entity_geombuild-individual_entity_attribute-attrib_HH-attrib $-1 $-1 $-1 $489 F #
coedge $645 $490 $489 $646 $647 reversed $491 $-1 #
edge $648 $649 -15 $493 15 $489 $650 forward 7 unknown #
attrib_hh_coedge_geombuild-attrib_entity_geombuild-individual_entity_attribute-attrib_HH-attrib $-1 $-1 $-1 $490 F #
convexity-sys-attrib $-1 $651 $492 $392 #
attrib_hh_vertex_geombuild-attrib_entity_geombuild-individual_entity_attribute-attrib_HH-attrib $-1 $-1 $-1 $493 F #
point $-1 -15 -60 -30 #
attrib_hh_coedge_geombuild-attrib_entity_geombuild-individual_entity_attribute-attrib_HH-attrib $-1 $-1 $-1 $496 F #
coedge $652 $646 $653 $496 $580 reversed $623 $-1 #
edge $654 $582 -60 $655 -30 $579 $625 forward 7 unknown #
attrib_edge_convexity-kcp-attrib $-1 $656 $-1 $497 1 #
vertex $657 $580 $658 #
straight-curve $-1 0 -60 30 1 0 0 I I #
attrib_hh_edge_geombuild-attrib_entity_geombuild-individual_entity_attribute-attrib_HH-attrib $-1 $-1 $498 $267 F #
straight-curve $-1 -20.000000000000007 30 -71.238635424337602 3.8285889215894375e-016 0 -1 I I #
point $-1 -19.999999999999982 30 -137.4772708486752 #
attrib_hh_face_geombuild-attrib_entity_geombuild-individual_entity_attribute-attrib_HH-attrib $-1 $-1 $523 $454 F #
coedge $659 $660 $534 $539 $615 reversed $524 $-1 #
attrib_hh_coedge_geombuild-attrib_entity_geombuild-individual_entity_attribute-attrib_HH-attrib $-1 $-1 $-1 $526 F #
coedge $661 $604 $526 $595 $662 reversed $455 $-1 #
coedge $663 $526 $604 $607 $664 reversed $455 $-1 #
coedge $665 $653 $597 $526 $593 forward $623 $-1 #
edge $666 $667 -2.3561944901923448 $668 0.78539816339744828 $592 $669 forward 7 unknown #
attrib_hh_coedge_geombuild-attrib_entity_geombuild-individual_entity_attribute-attrib_HH-attrib $-1 $-1 $-1 $528 F #
coedge $670 $529 $528 $590 $662 forward $357 $-1 #
attrib_hh_coedge_geombuild-attrib_entity_geombuild-individual_entity_attribute-attrib_HH-attrib $-1 $-1 $-1 $529 F #
coedge $671 $592 $547 $529 $598 forward $623 $-1 #
edge $672 $601 -20 $667 -10 $597 $673 forward 7 unknown #
attrib_hh_coedge_geombuild-attrib_entity_geombuild-individual_entity_attribute-attrib_HH-attrib $-1 $-1 $-1 $530 F #
attrib_edge_convexity-kcp-attrib $-1 $674 $-1 $531 1 #
vertex $675 $598 $676 #
straight-curve $-1 10 30 30 1 0 0 I I #
attrib_hh_coedge_geombuild-attrib_entity_geombuild-individual_entity_attribute-attrib_HH-attrib $-1 $-1 $-1 $533 F #
coedge $677 $591 $590 $533 $605 reversed $455 $-1 #
edge $678 $609 -0.78539816339744828 $612 2.3561944901923448 $533 $679 forward 7 unknown #
attrib_hh_coedge_geombuild-attrib_entity_geombuild-individual_entity_attribute-attrib_HH-attrib $-1 $-1 $-1 $534 F #
coedge $680 $534 $660 $591 $664 forward $524 $-1 #
attrib_hh_edge_geombuild-attrib_entity_geombuild-individual_entity_attribute-attrib_HH-attrib $-1 $-1 $-1 $535 F #
vertex $681 $535 $682 #
straight-curve $-1 5 -30 20 0 0 -1 I I #
attrib_hh_edge_geombuild-attrib_entity_geombuild-individual_entity_attribute-attrib_HH-attrib $-1 $-1 $-1 $537 F #
vertex $683 $537 $684 #
straight-curve $-1 5 30 20 0 0 -1 I I #
attrib_hh_coedge_geombuild-attrib_entity_geombuild-individual_entity_attribute-attrib_HH-attrib $-1 $-1 $-1 $539 F #
edge $685 $655 -5 $541 5 $539 $686 forward 7 unknown #
convexity-sys-attrib $-1 $687 $540 $462 #
attrib_hh_vertex_geombuild-attrib_entity_geombuild-individual_entity_attribute-attrib_HH-attrib $-1 $-1 $-1 $541 F #
point $-1 5 -30 30 #
attrib_hh_vertex_geombuild-attrib_entity_geombuild-individual_entity_attribute-attrib_HH-attrib $-1 $-1 $-1 $542 F #
point $-1 5 30 30 #
attrib_hh_coedge_geombuild-attrib_entity_geombuild-individual_entity_attribute-attrib_HH-attrib $-1 $-1 $-1 $547 F #
coedge $688 $547 $689 $550 $627 reversed $623 $-1 #
loop $-1 $-1 $653 $642 #
attrib_edge_convexity-kcp-attrib $-1 $690 $-1 $548 1 #
straight-curve $-1 15 0 30 0 1 0 I I #
attrib_hh_coedge_geombuild-attrib_entity_geombuild-individual_entity_attribute-attrib_HH-attrib $-1 $-1 $-1 $550 F #
edge $691 $552 -30 $639 30 $622 $692 forward 7 unknown #
convexity-sys-attrib $-1 $693 $551 $471 #
attrib_hh_vertex_geombuild-attrib_entity_geombuild-individual_entity_attribute-attrib_HH-attrib $-1 $-1 $-1 $552 F #
point $-1 15 60 30 #
attrib_hh_face_geombuild-attrib_entity_geombuild-individual_entity_attribute-attrib_HH-attrib $-1 $-1 $555 $473 F #
model_id-kcp-attrib $-1 $694 $-1 $556 1 1017635171 90 -447086591 13 #
plane-surface $-1 0 -60 0 0 1 0 0 0 1 forward_v I I I I #
coedge $695 $561 $560 $689 $696 forward $557 $-1 #
attrib_hh_coedge_geombuild-attrib_entity_geombuild-individual_entity_attribute-attrib_HH-attrib $-1 $-1 $-1 $560 F #
attrib_hh_coedge_geombuild-attrib_entity_geombuild-individual_entity_attribute-attrib_HH-attrib $-1 $-1 $-1 $561 F #
convexity-sys-attrib $-1 $697 $562 $478 #
attrib_hh_edge_geombuild-attrib_entity_geombuild-individual_entity_attribute-attrib_HH-attrib $-1 $-1 $-1 $565 F #
vertex $698 $696 $699 #
straight-curve $-1 0 60 -30 1 0 0 I I #
model_id-kcp-attrib $-1 $700 $-1 $566 1 1017635171 90 -447086591 14 #
face $701 $-1 $623 $9 $-1 $702 reversed single #
plane-surface $-1 0 60 0 0 -1 0 0 0 -1 forward_v I I I I #
attrib_hh_edge_geombuild-attrib_entity_geombuild-individual_entity_attribute-attrib_HH-attrib $-1 $-1 $567 $383 F #
attrib_hh_coedge_geombuild-attrib_entity_geombuild-individual_entity_attribute-attrib_HH-attrib $-1 $-1 $-1 $572 F #
coedge $703 $689 $579 $572 $647 forward $623 $-1 #
edge $704 $582 -30 $649 30 $646 $705 forward 7 unknown #
attrib_edge_convexity-kcp-attrib $-1 $706 $-1 $573 1 #
vertex $707 $647 $708 #
straight-curve $-1 0 -60 -30 -1 0 0 I I #
attrib_hh_edge_geombuild-attrib_entity_geombuild-individual_entity_attribute-attrib_HH-attrib $-1 $-1 $575 $392 F #
attrib_hh_coedge_geombuild-attrib_entity_geombuild-individual_entity_attribute-attrib_HH-attrib $-1 $-1 $-1 $579 F #
coedge $709 $579 $592 $660 $710 forward $623 $-1 #
attrib_edge_convexity-kcp-attrib $-1 $711 $-1 $580 1 #
vertex $712 $580 $713 #
convexity-sys-attrib $-1 $714 $581 $497 #
attrib_hh_vertex_geombuild-attrib_entity_geombuild-individual_entity_attribute-attrib_HH-attrib $-1 $-1 $-1 $582 F #
point $-1 15 -60 30 #
attrib_hh_coedge_geombuild-attrib_entity_geombuild-individual_entity_attribute-attrib_HH-attrib $-1 $-1 $-1 $588 F #
coedge $715 $607 $588 $653 $710 reversed $524 $-1 #
attrib_hh_coedge_geombuild-attrib_entity_geombuild-individual_entity_attribute-attrib_HH-attrib $-1 $-1 $-1 $590 F #
edge $716 $612 -15 $667 -5 $595 $717 forward 7 unknown #
attrib_hh_coedge_geombuild-attrib_entity_geombuild-individual_entity_attribute-attrib_HH-attrib $-1 $-1 $-1 $591 F #
edge $718 $668 5 $609 15 $607 $719 forward 7 unknown #
attrib_hh_coedge_geombuild-attrib_entity_geombuild-individual_entity_attribute-attrib_HH-attrib $-1 $-1 $-1 $592 F #
attrib_hh_edge_geombuild-attrib_entity_geombuild-individual_entity_attribute-attrib_HH-attrib $-1 $-1 $-1 $593 F #
vertex $720 $593 $721 #
vertex $722 $593 $723 #
ellipse-curve $-1 15 0 20 -1 0 0 0 -21.213203435596402 -21.213203435596402 1 I I #
attrib_hh_coedge_geombuild-attrib_entity_geombuild-individual_entity_attribute-attrib_HH-attrib $-1 $-1 $-1 $595 F #
attrib_hh_coedge_geombuild-attrib_entity_geombuild-individual_entity_attribute-attrib_HH-attrib $-1 $-1 $-1 $597 F #
attrib_hh_edge_geombuild-attrib_entity_geombuild-individual_entity_attribute-attrib_HH-attrib $-1 $-1 $-1 $598 F #
straight-curve $-1 15 30 10 0 0 -1 I I #
convexity-sys-attrib $-1 $724 $600 $531 #
attrib_hh_vertex_geombuild-attrib_entity_geombuild-individual_entity_attribute-attrib_HH-attrib $-1 $-1 $-1 $601 F #
point $-1 15 30 30 #
attrib_hh_coedge_geombuild-attrib_entity_geombuild-individual_entity_attribute-attrib_HH-attrib $-1 $-1 $-1 $604 F #
attrib_hh_edge_geombuild-attrib_entity_geombuild-individual_entity_attribute-attrib_HH-attrib $-1 $-1 $-1 $605 F #
ellipse-curve $-1 5 0 20 1 0 0 0 -21.213203435596402 -21.213203435596402 1 I I #
attrib_hh_coedge_geombuild-attrib_entity_geombuild-individual_entity_attribute-attrib_HH-attrib $-1 $-1 $-1 $607 F #
attrib_hh_vertex_geombuild-attrib_entity_geombuild-individual_entity_attribute-attrib_HH-attrib $-1 $-1 $-1 $609 F #
point $-1 5 -30 20 #
attrib_hh_vertex_geombuild-attrib_entity_geombuild-individual_entity_attribute-attrib_HH-attrib $-1 $-1 $-1 $612 F #
point $-1 5 30 20 #
attrib_edge_convexity-kcp-attrib $-1 $725 $-1 $615 1 #
straight-curve $-1 10 -30 30 -1 0 0 I I #
attrib_hh_edge_geombuild-attrib_entity_geombuild-individual_entity_attribute-attrib_HH-attrib $-1 $-1 $616 $462 F #
attrib_hh_coedge_geombuild-attrib_entity_geombuild-individual_entity_attribute-attrib_HH-attrib $-1 $-1 $-1 $622 F #
coedge $726 $622 $646 $634 $696 reversed $623 $-1 #
convexity-sys-attrib $-1 $727 $624 $548 #
attrib_hh_edge_geombuild-attrib_entity_geombuild-individual_entity_attribute-attrib_HH-attrib $-1 $-1 $-1 $627 F #
straight-curve $-1 15 60 0 0 0 -1 I I #
attrib_hh_edge_geombuild-attrib_entity_geombuild-individual_entity_attribute-attrib_HH-attrib $-1 $-1 $628 $471 F #
attrib_hh_face_geombuild-attrib_entity_geombuild-individual_entity_attribute-attrib_HH-attrib $-1 $-1 $632 $556 F #
attrib_hh_coedge_geombuild-attrib_entity_geombuild-individual_entity_attribute-attrib_HH-attrib $-1 $-1 $-1 $634 F #
edge $728 $639 -60 $649 60 $689 $729 forward 7 unknown #
attrib_hh_edge_geombuild-attrib_entity_geombuild-individual_entity_attribute-attrib_HH-attrib $-1 $-1 $637 $478 F #
attrib_hh_vertex_geombuild-attrib_entity_geombuild-individual_entity_attribute-attrib_HH-attrib $-1 $-1 $-1 $639 F #
point $-1 15 60 -30 #
attrib_hh_face_geombuild-attrib_entity_geombuild-individual_entity_attribute-attrib_HH-attrib $-1 $-1 $641 $566 F #
model_id-kcp-attrib $-1 $730 $-1 $642 1 1017635171 90 -447086591 15 #
plane-surface $-1 15 0 0 -1 0 0 0 0 1 forward_v I I I I #
attrib_hh_coedge_geombuild-attrib_entity_geombuild-individual_entity_attribute-attrib_HH-attrib $-1 $-1 $-1 $646 F #
attrib_edge_convexity-kcp-attrib $-1 $731 $-1 $647 1 #
straight-curve $-1 15 -60 0 0 0 -1 I I #
convexity-sys-attrib $-1 $732 $648 $573 #
attrib_hh_vertex_geombuild-attrib_entity_geombuild-individual_entity_attribute-attrib_HH-attrib $-1 $-1 $-1 $649 F #
point $-1 15 -60 -30 #
attrib_hh_coedge_geombuild-attrib_entity_geombuild-individual_entity_attribute-attrib_HH-attrib $-1 $-1 $-1 $653 F #
edge $733 $668 10 $655 20 $653 $734 forward 7 unknown #
convexity-sys-attrib $-1 $735 $654 $580 #
attrib_hh_vertex_geombuild-attrib_entity_geombuild-individual_entity_attribute-attrib_HH-attrib $-1 $-1 $-1 $655 F #
point $-1 15 -30 30 #
attrib_hh_edge_geombuild-attrib_entity_geombuild-individual_entity_attribute-attrib_HH-attrib $-1 $-1 $656 $497 F #
attrib_hh_coedge_geombuild-attrib_entity_geombuild-individual_entity_attribute-attrib_HH-attrib $-1 $-1 $-1 $660 F #
attrib_hh_edge_geombuild-attrib_entity_geombuild-individual_entity_attribute-attrib_HH-attrib $-1 $-1 $-1 $662 F #
straight-curve $-1 20 30 20 1 0 0 I I #
attrib_hh_edge_geombuild-attrib_entity_geombuild-individual_entity_attribute-attrib_HH-attrib $-1 $-1 $-1 $664 F #
straight-curve $-1 20 -30 20 -1 0 0 I I #
attrib_hh_vertex_geombuild-attrib_entity_geombuild-individual_entity_attribute-attrib_HH-attrib $-1 $-1 $-1 $667 F #
point $-1 15 30 20 #
attrib_hh_vertex_geombuild-attrib_entity_geombuild-individual_entity_attribute-attrib_HH-attrib $-1 $-1 $-1 $668 F #
point $-1 15 -30 20 #
attrib_hh_edge_geombuild-attrib_entity_geombuild-individual_entity_attribute-attrib_HH-attrib $-1 $-1 $674 $531 F #
convexity-sys-attrib $-1 $736 $685 $615 #
attrib_hh_coedge_geombuild-attrib_entity_geombuild-individual_entity_attribute-attrib_HH-attrib $-1 $-1 $-1 $689 F #
attrib_hh_edge_geombuild-attrib_entity_geombuild-individual_entity_attribute-attrib_HH-attrib $-1 $-1 $690 $548 F #
attrib_hh_edge_geombuild-attrib_entity_geombuild-individual_entity_attribute-attrib_HH-attrib $-1 $-1 $-1 $696 F #
straight-curve $-1 15 0 -30 0 -1 0 I I #
attrib_hh_face_geombuild-attrib_entity_geombuild-individual_entity_attribute-attrib_HH-attrib $-1 $-1 $701 $642 F #
convexity-sys-attrib $-1 $737 $704 $647 #
attrib_hh_edge_geombuild-attrib_entity_geombuild-individual_entity_attribute-attrib_HH-attrib $-1 $-1 $706 $573 F #
attrib_hh_edge_geombuild-attrib_entity_geombuild-individual_entity_attribute-attrib_HH-attrib $-1 $-1 $-1 $710 F #
straight-curve $-1 15 -30 10 0 0 1 I I #
attrib_hh_edge_geombuild-attrib_entity_geombuild-individual_entity_attribute-attrib_HH-attrib $-1 $-1 $711 $580 F #
attrib_hh_edge_geombuild-attrib_entity_geombuild-individual_entity_attribute-attrib_HH-attrib $-1 $-1 $725 $615 F #
attrib_hh_edge_geombuild-attrib_entity_geombuild-individual_entity_attribute-attrib_HH-attrib $-1 $-1 $731 $647 F #
End-of-ACIS-data 