105 235 1 0                             
body $-1 $1 $-1 $-1 #
lump $-1 $-1 $2 $0 #
shell $-1 $-1 $-1 $3 $1 #
face $-1 $4 $5 $2 $-1 $6 reversed single #
face $-1 $7 $8 $2 $-1 $9 forward single #
loop $-1 $-1 $10 $3 #
cone-surface $-1 -20 0 20 -1 -0 -0 0 -21.2132034355964 -21.2132034355964 1 0 1 0 #
face $-1 $11 $12 $2 $-1 $13 forward single #
loop $-1 $-1 $14 $4 #
plane-surface $-1 -20 30 20 0 -1 0 0 0 -1 0 #
coedge $-1 $15 $16 $17 $18 1 $5 $-1 #
face $-1 $19 $20 $2 $-1 $21 forward single #
loop $-1 $-1 $22 $7 #
plane-surface $-1 -20 -30 20 0 1 0 0 0 1 0 #
coedge $-1 $23 $24 $25 $26 1 $8 $-1 #
coedge $-1 $27 $10 $28 $29 1 $5 $-1 #
coedge $-1 $10 $27 $23 $30 1 $5 $-1 #
coedge $-1 $25 $31 $10 $18 0 $32 $-1 #
edge $-1 $33 $34 $17 $35 0 #
face $-1 $36 $32 $2 $-1 $37 reversed single #
loop $-1 $-1 $38 $11 #
plane-surface $-1 -5 0 20 -1 0 0 0 0 1 0 #
coedge $-1 $39 $28 $31 $40 1 $12 $-1 #
coedge $-1 $41 $14 $16 $30 0 $8 $-1 #
coedge $-1 $14 $41 $42 $43 1 $8 $-1 #
coedge $-1 $44 $17 $14 $26 0 $32 $-1 #
edge $-1 $34 $45 $25 $46 0 #
coedge $-1 $16 $15 $47 $48 1 $5 $-1 #
coedge $-1 $22 $49 $15 $29 0 $12 $-1 #
edge $-1 $50 $33 $28 $51 0 #
edge $-1 $34 $52 $23 $53 0 #
coedge $-1 $17 $54 $22 $40 0 $32 $-1 #
loop $-1 $-1 $31 $19 #
vertex $-1 $18 $55 #
vertex $-1 $18 $56 #
ellipse-curve $-1 -15 0 20 1 0 0 0 -21.2132034355964 -21.2132034355964 1 #
face $-1 $57 $58 $2 $-1 $59 forward single #
plane-surface $-1 -15 0 0 1 0 0 0 0 -1 0 #
coedge $-1 $60 $61 $62 $63 1 $20 $-1 #
coedge $-1 $49 $22 $64 $65 1 $12 $-1 #
edge $-1 $66 $33 $31 $67 0 #
coedge $-1 $24 $23 $60 $68 1 $8 $-1 #
coedge $-1 $62 $69 $24 $43 0 $70 $-1 #
edge $-1 $45 $71 $42 $72 0 #
coedge $-1 $73 $25 $69 $74 1 $32 $-1 #
vertex $-1 $74 $75 #
straight-curve $-1 -15 30 10 -0 0 1 #
coedge $-1 $61 $60 $27 $48 0 $20 $-1 #
edge $-1 $52 $50 $47 $76 0 #
coedge $-1 $28 $39 $61 $77 0 $12 $-1 #
vertex $-1 $77 $78 #
straight-curve $-1 -20 -30 20 -1 0 0 #
vertex $-1 $68 $79 #
straight-curve $-1 -20 30 20 1 0 0 #
coedge $-1 $31 $80 $81 $82 1 $32 $-1 #
point $-1 -15 -30 20 #
point $-1 -15 30 20 #
face $-1 $83 $84 $2 $-1 $85 forward single #
loop $-1 $-1 $86 $36 #
plane-surface $-1 5 0 20 1 0 0 0 0 -1 0 #
coedge $-1 $47 $38 $41 $68 0 $20 $-1 #
coedge $-1 $38 $47 $49 $77 1 $20 $-1 #
coedge $-1 $64 $42 $38 $63 0 $70 $-1 #
edge $-1 $71 $87 $62 $88 0 #
coedge $-1 $81 $62 $39 $65 0 $70 $-1 #
edge $-1 $87 $66 $64 $89 0 #
vertex $-1 $65 $90 #
straight-curve $-1 -15 -30 10 0 0 -1 #
edge $-1 $71 $52 $60 $91 0 #
coedge $-1 $42 $92 $44 $74 0 $70 $-1 #
loop $-1 $-1 $64 $93 #
vertex $-1 $43 $94 #
straight-curve $-1 -10 30 30 1 0 -0 #
coedge $-1 $95 $44 $96 $97 0 $32 $-1 #
edge $-1 $98 $45 $44 $99 0 #
point $-1 -15 30 30 #
ellipse-curve $-1 -5 0 20 -1 0 0 0 21.2132034355964 -21.2132034355964 1 #
edge $-1 $87 $50 $61 $100 0 #
point $-1 -5 -30 20 #
point $-1 -5 30 20 #
coedge $-1 $54 $95 $101 $102 1 $32 $-1 #
coedge $-1 $103 $64 $54 $82 0 $70 $-1 #
edge $-1 $66 $104 $54 $99 0 #
face $-1 $105 $106 $2 $-1 $107 reversed single #
loop $-1 $-1 $108 $57 #
plane-surface $-1 20 30 20 0 -1 0 0 0 -1 0 #
coedge $-1 $109 $110 $111 $112 1 $58 $-1 #
vertex $-1 $65 $113 #
straight-curve $-1 -5 0 30 0 -1 0 #
straight-curve $-1 -10 -30 30 -1 0 0 #
point $-1 -15 -30 30 #
straight-curve $-1 -5 30 20 0 0 -1 #
coedge $-1 $69 $114 $115 $116 0 $70 $-1 #
face $-1 $117 $70 $2 $-1 $118 forward single #
point $-1 -5 30 30 #
coedge $-1 $80 $73 $119 $120 1 $32 $-1 #
coedge $-1 $115 $121 $73 $97 1 $122 $-1 #
edge $-1 $98 $123 $96 $124 0 #
vertex $-1 $116 $125 #
straight-curve $-1 -15 0 30 0 -1 0 #
straight-curve $-1 -5 -30 20 0 0 -1 #
coedge $-1 $126 $127 $80 $102 0 $128 $-1 #
edge $-1 $104 $129 $80 $130 0 #
coedge $-1 $131 $81 $127 $132 0 $70 $-1 #
vertex $-1 $82 $133 #
face $-1 $93 $134 $2 $-1 $135 forward single #
loop $-1 $-1 $136 $83 #
cone-surface $-1 20 0 20 -1 -0 -0 0 -21.2132034355964 -21.2132034355964 1 0 1 0 #
coedge $-1 $137 $138 $139 $140 1 $84 $-1 #
coedge $-1 $141 $86 $142 $143 0 $58 $-1 #
coedge $-1 $86 $141 $137 $144 1 $58 $-1 #
coedge $-1 $139 $145 $86 $112 0 $70 $-1 #
edge $-1 $146 $147 $111 $148 0 #
point $-1 -5 -30 30 #
coedge $-1 $92 $139 $149 $150 0 $70 $-1 #
coedge $-1 $151 $96 $92 $116 1 $122 $-1 #
edge $-1 $152 $98 $115 $153 0 #
face $-1 $154 $155 $2 $-1 $156 reversed single #
plane-surface $-1 0 0 30 0 0 1 1 0 0 0 #
coedge $-1 $157 $158 $95 $120 0 $155 $-1 #
edge $-1 $129 $123 $95 $159 0 #
coedge $-1 $96 $151 $157 $160 1 $122 $-1 #
loop $-1 $-1 $151 $161 #
vertex $-1 $160 $162 #
straight-curve $-1 -15 60 0 0 0 -1 #
point $-1 -15 60 30 #
coedge $-1 $163 $101 $158 $164 1 $128 $-1 #
coedge $-1 $101 $163 $103 $132 1 $128 $-1 #
loop $-1 $-1 $101 $154 #
vertex $-1 $120 $165 #
straight-curve $-1 -15 -60 0 0 0 -1 #
coedge $-1 $145 $103 $166 $167 0 $70 $-1 #
edge $-1 $104 $168 $127 $169 0 #
point $-1 -15 -60 30 #
loop $-1 $-1 $170 $105 #
plane-surface $-1 20 -30 20 0 1 0 0 0 1 0 #
coedge $-1 $171 $172 $173 $174 1 $106 $-1 #
coedge $-1 $175 $108 $110 $144 0 $84 $-1 #
coedge $-1 $108 $175 $176 $177 1 $84 $-1 #
coedge $-1 $114 $111 $108 $140 0 $70 $-1 #
edge $-1 $147 $178 $139 $179 0 #
coedge $-1 $110 $109 $180 $181 0 $58 $-1 #
coedge $-1 $170 $182 $109 $143 1 $134 $-1 #
edge $-1 $146 $183 $109 $184 0 #
edge $-1 $147 $185 $137 $186 0 #
coedge $-1 $111 $131 $170 $187 0 $70 $-1 #
vertex $-1 $112 $188 #
vertex $-1 $112 $189 #
straight-curve $-1 5 0 30 0 1 0 #
coedge $-1 $176 $190 $114 $150 1 $191 $-1 #
edge $-1 $178 $152 $149 $192 0 #
coedge $-1 $121 $115 $190 $193 0 $122 $-1 #
vertex $-1 $150 $194 #
straight-curve $-1 0 60 30 -1 0 0 #
face $-1 $161 $128 $2 $-1 $195 reversed single #
loop $-1 $-1 $196 $117 #
plane-surface $-1 0 0 -30 0 0 1 1 0 0 0 #
coedge $-1 $196 $119 $121 $160 0 $155 $-1 #
coedge $-1 $119 $196 $126 $164 0 $155 $-1 #
straight-curve $-1 -15 0 -30 0 1 0 #
edge $-1 $123 $197 $121 $198 0 #
face $-1 $199 $122 $2 $-1 $200 reversed single #
point $-1 -15 60 -30 #
coedge $-1 $127 $126 $201 $202 1 $128 $-1 #
edge $-1 $203 $129 $126 $204 0 #
point $-1 -15 -60 -30 #
coedge $-1 $201 $205 $131 $167 1 $191 $-1 #
edge $-1 $168 $206 $166 $192 0 #
vertex $-1 $167 $207 #
straight-curve $-1 0 -60 30 1 0 0 #
coedge $-1 $208 $142 $145 $187 1 $134 $-1 #
coedge $-1 $180 $136 $175 $209 1 $106 $-1 #
coedge $-1 $136 $180 $182 $210 1 $106 $-1 #
coedge $-1 $205 $176 $136 $174 0 $191 $-1 #
edge $-1 $211 $212 $173 $213 0 #
coedge $-1 $138 $137 $171 $209 0 $84 $-1 #
coedge $-1 $173 $149 $138 $177 0 $191 $-1 #
edge $-1 $178 $211 $176 $214 0 #
vertex $-1 $177 $215 #
straight-curve $-1 10 30 30 1 0 -0 #
coedge $-1 $172 $171 $141 $181 1 $106 $-1 #
edge $-1 $183 $185 $141 $216 0 #
coedge $-1 $142 $208 $172 $210 0 $134 $-1 #
vertex $-1 $143 $217 #
straight-curve $-1 5 -30 20 0 0 -1 #
vertex $-1 $144 $218 #
straight-curve $-1 5 30 20 0 0 -1 #
edge $-1 $206 $146 $145 $219 0 #
point $-1 5 -30 30 #
point $-1 5 30 30 #
coedge $-1 $149 $220 $151 $193 1 $191 $-1 #
loop $-1 $-1 $205 $199 #
straight-curve $-1 15 0 30 0 1 0 #
edge $-1 $152 $197 $190 $221 0 #
point $-1 15 60 30 #
plane-surface $-1 0 -60 0 0 1 -0 -0 0 1 0 #
coedge $-1 $158 $157 $220 $222 0 $155 $-1 #
vertex $-1 $222 $223 #
straight-curve $-1 0 60 -30 1 0 0 #
face $-1 $-1 $191 $2 $-1 $224 reversed single #
plane-surface $-1 0 60 0 0 -1 0 0 0 -1 0 #
coedge $-1 $220 $166 $163 $202 0 $191 $-1 #
edge $-1 $168 $203 $201 $225 0 #
vertex $-1 $202 $226 #
straight-curve $-1 0 -60 -30 -1 0 0 #
coedge $-1 $166 $173 $208 $227 0 $191 $-1 #
vertex $-1 $167 $228 #
point $-1 15 -60 30 #
coedge $-1 $182 $170 $205 $227 1 $134 $-1 #
edge $-1 $185 $211 $175 $229 0 #
edge $-1 $212 $183 $182 $230 0 #
vertex $-1 $174 $231 #
vertex $-1 $174 $232 #
ellipse-curve $-1 15 0 20 -1 0 0 0 -21.2132034355964 -21.2132034355964 1 #
straight-curve $-1 15 30 10 -0 -0 -1 #
point $-1 15 30 30 #
ellipse-curve $-1 5 0 20 1 0 0 0 -21.2132034355964 -21.2132034355964 1 #
point $-1 5 -30 20 #
point $-1 5 30 20 #
straight-curve $-1 10 -30 30 -1 0 0 #
coedge $-1 $190 $201 $196 $222 1 $191 $-1 #
straight-curve $-1 15 60 0 0 0 -1 #
edge $-1 $197 $203 $220 $233 0 #
point $-1 15 60 -30 #
plane-surface $-1 15 0 0 -1 0 0 0 -0 1 0 #
straight-curve $-1 15 -60 0 0 0 -1 #
point $-1 15 -60 -30 #
edge $-1 $212 $206 $205 $234 0 #
point $-1 15 -30 30 #
straight-curve $-1 20 30 20 1 0 0 #
straight-curve $-1 20 -30 20 -1 0 0 #
point $-1 15 30 20 #
point $-1 15 -30 20 #
straight-curve $-1 15 0 -30 0 -1 0 #
straight-curve $-1 15 -30 10 0 -0 1 #
