600 0 1 0           
97 GICL ACIS Healer - Source: /gicl/data5/repository/UMD/unmachinable-ex2/unmachinable-ex2.sat - 6 0 18 ACIS 6.0.3 Solaris 24 Sun Apr 14 00:34:27 2002 
1 9.999999999999999547e-07 1.000000000000000036e-10 
body $-1 $1 $-1 $-1 #
lump $-1 $-1 $2 $0 #
shell $-1 $-1 $-1 $3 $-1 $1 #
face $-1 $4 $5 $2 $-1 $6 reversed single #
face $-1 $7 $8 $2 $-1 $9 forward single #
loop $-1 $-1 $10 $3 #
cone-surface $-1 -20 0 20 -1 -0 -0 0 -21.21320343559640165 -21.21320343559640165 1 I I 0 1 29.99999999999996447 forward I I I I #
face $-1 $11 $12 $2 $-1 $13 forward single #
loop $-1 $-1 $14 $4 #
plane-surface $-1 -20 30 20 0 -1 0 0 0 -1 forward_v I I I I #
coedge $-1 $15 $16 $17 $18 reversed $5 $-1 #
face $-1 $19 $20 $2 $-1 $21 forward single #
loop $-1 $-1 $22 $7 #
plane-surface $-1 -20 -30 20 0 1 0 0 0 1 forward_v I I I I #
coedge $-1 $23 $24 $25 $26 reversed $8 $-1 #
coedge $-1 $27 $10 $28 $29 reversed $5 $-1 #
coedge $-1 $10 $27 $23 $30 reversed $5 $-1 #
coedge $-1 $25 $31 $10 $18 forward $32 $-1 #
edge $-1 $33 -0.785398163397448279 $34 2.356194490192344837 $17 $35 forward 7 unknown #
face $-1 $36 $32 $2 $-1 $37 reversed single #
loop $-1 $-1 $38 $11 #
plane-surface $-1 -5 0 20 -1 0 0 0 0 1 forward_v I I I I #
coedge $-1 $39 $28 $31 $40 reversed $12 $-1 #
coedge $-1 $41 $14 $16 $30 forward $8 $-1 #
coedge $-1 $14 $41 $42 $43 reversed $8 $-1 #
coedge $-1 $44 $17 $14 $26 forward $32 $-1 #
edge $-1 $34 10 $45 20 $25 $46 forward 7 unknown #
coedge $-1 $16 $15 $47 $48 reversed $5 $-1 #
coedge $-1 $22 $49 $15 $29 forward $12 $-1 #
edge $-1 $50 -15 $33 -5 $28 $51 forward 7 unknown #
edge $-1 $34 5 $52 15 $23 $53 forward 7 unknown #
coedge $-1 $17 $54 $22 $40 forward $32 $-1 #
loop $-1 $-1 $31 $19 #
vertex $-1 $18 $55 #
vertex $-1 $18 $56 #
ellipse-curve $-1 -15 0 20 1 0 0 0 -21.21320343559640165 -21.21320343559640165 1 I I #
face $-1 $57 $58 $2 $-1 $59 forward single #
plane-surface $-1 -15 0 0 1 0 0 0 0 -1 forward_v I I I I #
coedge $-1 $60 $61 $62 $63 reversed $20 $-1 #
coedge $-1 $49 $22 $64 $65 reversed $12 $-1 #
edge $-1 $66 -20 $33 -10 $31 $67 forward 7 unknown #
coedge $-1 $24 $23 $60 $68 reversed $8 $-1 #
coedge $-1 $62 $69 $24 $43 forward $70 $-1 #
edge $-1 $45 -5 $71 5 $42 $72 forward 7 unknown #
coedge $-1 $73 $25 $69 $74 reversed $32 $-1 #
vertex $-1 $74 $75 #
straight-curve $-1 -15 30 10 -0 0 1 I I #
coedge $-1 $61 $60 $27 $48 forward $20 $-1 #
edge $-1 $52 -0.785398163397448279 $50 2.356194490192344837 $47 $76 forward 7 unknown #
coedge $-1 $28 $39 $61 $77 forward $12 $-1 #
vertex $-1 $77 $78 #
straight-curve $-1 -20 -30 20 -1 0 0 I I #
vertex $-1 $68 $79 #
straight-curve $-1 -20 30 20 1 0 0 I I #
coedge $-1 $31 $80 $81 $82 reversed $32 $-1 #
point $-1 -15 -30 20 #
point $-1 -15 30 20 #
face $-1 $83 $84 $2 $-1 $85 forward single #
loop $-1 $-1 $86 $36 #
plane-surface $-1 5 0 20 1 0 0 0 0 -1 forward_v I I I I #
coedge $-1 $47 $38 $41 $68 forward $20 $-1 #
coedge $-1 $38 $47 $49 $77 reversed $20 $-1 #
coedge $-1 $64 $42 $38 $63 forward $70 $-1 #
edge $-1 $71 -30 $87 30 $62 $88 forward 7 unknown #
coedge $-1 $81 $62 $39 $65 forward $70 $-1 #
edge $-1 $87 -5 $66 5 $64 $89 forward 7 unknown #
vertex $-1 $65 $90 #
straight-curve $-1 -15 -30 10 0 0 -1 I I #
edge $-1 $71 -10 $52 0 $60 $91 forward 7 unknown #
coedge $-1 $42 $92 $44 $74 forward $70 $-1 #
loop $-1 $-1 $64 $93 #
vertex $-1 $43 $94 #
straight-curve $-1 -10 30 30 1 0 -0 I I #
coedge $-1 $95 $44 $96 $97 forward $32 $-1 #
edge $-1 $98 -60 $45 -30 $44 $99 forward 7 unknown #
point $-1 -15 30 30 #
ellipse-curve $-1 -5 0 20 -1 0 0 0 21.21320343559640165 -21.21320343559640165 1 I I #
edge $-1 $87 -10 $50 0 $61 $100 forward 7 unknown #
point $-1 -5 -30 20 #
point $-1 -5 30 20 #
coedge $-1 $54 $95 $101 $102 reversed $32 $-1 #
coedge $-1 $103 $64 $54 $82 forward $70 $-1 #
edge $-1 $66 30 $104 60 $54 $99 forward 7 unknown #
face $-1 $105 $106 $2 $-1 $107 reversed single #
loop $-1 $-1 $108 $57 #
plane-surface $-1 20 30 20 0 -1 0 0 0 -1 forward_v I I I I #
coedge $-1 $109 $110 $111 $112 reversed $58 $-1 #
vertex $-1 $65 $113 #
straight-curve $-1 -5 0 30 0 -1 0 I I #
straight-curve $-1 -10 -30 30 -1 0 0 I I #
point $-1 -15 -30 30 #
straight-curve $-1 -5 30 20 0 0 -1 I I #
coedge $-1 $69 $114 $115 $116 forward $70 $-1 #
face $-1 $117 $70 $2 $-1 $118 forward single #
point $-1 -5 30 30 #
coedge $-1 $80 $73 $119 $120 reversed $32 $-1 #
coedge $-1 $115 $121 $73 $97 reversed $122 $-1 #
edge $-1 $98 -30 $123 30 $96 $124 forward 7 unknown #
vertex $-1 $116 $125 #
straight-curve $-1 -15 0 30 0 -1 0 I I #
straight-curve $-1 -5 -30 20 0 0 -1 I I #
coedge $-1 $126 $127 $80 $102 forward $128 $-1 #
edge $-1 $104 -30 $129 30 $80 $130 forward 7 unknown #
coedge $-1 $131 $81 $127 $132 forward $70 $-1 #
vertex $-1 $82 $133 #
face $-1 $93 $134 $2 $-1 $135 forward single #
loop $-1 $-1 $136 $83 #
cone-surface $-1 20 0 20 -1 -0 -0 0 -21.21320343559640165 -21.21320343559640165 1 I I 0 1 29.99999999999996447 forward I I I I #
coedge $-1 $137 $138 $139 $140 reversed $84 $-1 #
coedge $-1 $141 $86 $142 $143 forward $58 $-1 #
coedge $-1 $86 $141 $137 $144 reversed $58 $-1 #
coedge $-1 $139 $145 $86 $112 forward $70 $-1 #
edge $-1 $146 -30 $147 30 $111 $148 forward 7 unknown #
point $-1 -5 -30 30 #
coedge $-1 $92 $139 $149 $150 forward $70 $-1 #
coedge $-1 $151 $96 $92 $116 reversed $122 $-1 #
edge $-1 $152 -15 $98 15 $115 $153 forward 7 unknown #
face $-1 $154 $155 $2 $-1 $156 reversed single #
plane-surface $-1 0 0 30 0 0 1 1 0 0 forward_v I I I I #
coedge $-1 $157 $158 $95 $120 forward $155 $-1 #
edge $-1 $129 -60 $123 60 $95 $159 forward 7 unknown #
coedge $-1 $96 $151 $157 $160 reversed $122 $-1 #
loop $-1 $-1 $151 $161 #
vertex $-1 $160 $162 #
straight-curve $-1 -15 60 0 0 0 -1 I I #
point $-1 -15 60 30 #
coedge $-1 $163 $101 $158 $164 reversed $128 $-1 #
coedge $-1 $101 $163 $103 $132 reversed $128 $-1 #
loop $-1 $-1 $101 $154 #
vertex $-1 $120 $165 #
straight-curve $-1 -15 -60 0 0 0 -1 I I #
coedge $-1 $145 $103 $166 $167 forward $70 $-1 #
edge $-1 $104 -15 $168 15 $127 $169 forward 7 unknown #
point $-1 -15 -60 30 #
loop $-1 $-1 $170 $105 #
plane-surface $-1 20 -30 20 0 1 0 0 0 1 forward_v I I I I #
coedge $-1 $171 $172 $173 $174 reversed $106 $-1 #
coedge $-1 $175 $108 $110 $144 forward $84 $-1 #
coedge $-1 $108 $175 $176 $177 reversed $84 $-1 #
coedge $-1 $114 $111 $108 $140 forward $70 $-1 #
edge $-1 $147 -5 $178 5 $139 $179 forward 7 unknown #
coedge $-1 $110 $109 $180 $181 forward $58 $-1 #
coedge $-1 $170 $182 $109 $143 reversed $134 $-1 #
edge $-1 $146 -10 $183 0 $109 $184 forward 7 unknown #
edge $-1 $147 -10 $185 0 $137 $186 forward 7 unknown #
coedge $-1 $111 $131 $170 $187 forward $70 $-1 #
vertex $-1 $112 $188 #
vertex $-1 $112 $189 #
straight-curve $-1 5 0 30 0 1 0 I I #
coedge $-1 $176 $190 $114 $150 reversed $191 $-1 #
edge $-1 $178 30 $152 60 $149 $192 forward 7 unknown #
coedge $-1 $121 $115 $190 $193 forward $122 $-1 #
vertex $-1 $150 $194 #
straight-curve $-1 0 60 30 -1 0 0 I I #
face $-1 $161 $128 $2 $-1 $195 reversed single #
loop $-1 $-1 $196 $117 #
plane-surface $-1 0 0 -30 0 0 1 1 0 0 forward_v I I I I #
coedge $-1 $196 $119 $121 $160 forward $155 $-1 #
coedge $-1 $119 $196 $126 $164 forward $155 $-1 #
straight-curve $-1 -15 0 -30 0 1 0 I I #
edge $-1 $123 -15 $197 15 $121 $198 forward 7 unknown #
face $-1 $199 $122 $2 $-1 $200 reversed single #
point $-1 -15 60 -30 #
coedge $-1 $127 $126 $201 $202 reversed $128 $-1 #
edge $-1 $203 -15 $129 15 $126 $204 forward 7 unknown #
point $-1 -15 -60 -30 #
coedge $-1 $201 $205 $131 $167 reversed $191 $-1 #
edge $-1 $168 -60 $206 -30 $166 $192 forward 7 unknown #
vertex $-1 $167 $207 #
straight-curve $-1 0 -60 30 1 0 0 I I #
coedge $-1 $208 $142 $145 $187 reversed $134 $-1 #
coedge $-1 $180 $136 $175 $209 reversed $106 $-1 #
coedge $-1 $136 $180 $182 $210 reversed $106 $-1 #
coedge $-1 $205 $176 $136 $174 forward $191 $-1 #
edge $-1 $211 -2.356194490192344837 $212 0.785398163397448279 $173 $213 forward 7 unknown #
coedge $-1 $138 $137 $171 $209 forward $84 $-1 #
coedge $-1 $173 $149 $138 $177 forward $191 $-1 #
edge $-1 $178 -20 $211 -10 $176 $214 forward 7 unknown #
vertex $-1 $177 $215 #
straight-curve $-1 10 30 30 1 0 -0 I I #
coedge $-1 $172 $171 $141 $181 reversed $106 $-1 #
edge $-1 $183 -0.785398163397448279 $185 2.356194490192344837 $141 $216 forward 7 unknown #
coedge $-1 $142 $208 $172 $210 forward $134 $-1 #
vertex $-1 $143 $217 #
straight-curve $-1 5 -30 20 0 0 -1 I I #
vertex $-1 $144 $218 #
straight-curve $-1 5 30 20 0 0 -1 I I #
edge $-1 $206 -5 $146 5 $145 $219 forward 7 unknown #
point $-1 5 -30 30 #
point $-1 5 30 30 #
coedge $-1 $149 $220 $151 $193 reversed $191 $-1 #
loop $-1 $-1 $205 $199 #
straight-curve $-1 15 0 30 0 1 0 I I #
edge $-1 $152 -30 $197 30 $190 $221 forward 7 unknown #
point $-1 15 60 30 #
plane-surface $-1 0 -60 0 0 1 -0 -0 0 1 forward_v I I I I #
coedge $-1 $158 $157 $220 $222 forward $155 $-1 #
vertex $-1 $222 $223 #
straight-curve $-1 0 60 -30 1 0 0 I I #
face $-1 $-1 $191 $2 $-1 $224 reversed single #
plane-surface $-1 0 60 0 0 -1 0 0 0 -1 forward_v I I I I #
coedge $-1 $220 $166 $163 $202 forward $191 $-1 #
edge $-1 $168 -30 $203 30 $201 $225 forward 7 unknown #
vertex $-1 $202 $226 #
straight-curve $-1 0 -60 -30 -1 0 0 I I #
coedge $-1 $166 $173 $208 $227 forward $191 $-1 #
vertex $-1 $167 $228 #
point $-1 15 -60 30 #
coedge $-1 $182 $170 $205 $227 reversed $134 $-1 #
edge $-1 $185 -15 $211 -5 $175 $229 forward 7 unknown #
edge $-1 $212 5 $183 15 $182 $230 forward 7 unknown #
vertex $-1 $174 $231 #
vertex $-1 $174 $232 #
ellipse-curve $-1 15 0 20 -1 0 0 0 -21.21320343559640165 -21.21320343559640165 1 I I #
straight-curve $-1 15 30 10 -0 -0 -1 I I #
point $-1 15 30 30 #
ellipse-curve $-1 5 0 20 1 0 0 0 -21.21320343559640165 -21.21320343559640165 1 I I #
point $-1 5 -30 20 #
point $-1 5 30 20 #
straight-curve $-1 10 -30 30 -1 0 0 I I #
coedge $-1 $190 $201 $196 $222 reversed $191 $-1 #
straight-curve $-1 15 60 0 0 0 -1 I I #
edge $-1 $197 -60 $203 60 $220 $233 forward 7 unknown #
point $-1 15 60 -30 #
plane-surface $-1 15 0 0 -1 0 0 0 -0 1 forward_v I I I I #
straight-curve $-1 15 -60 0 0 0 -1 I I #
point $-1 15 -60 -30 #
edge $-1 $212 10 $206 20 $205 $234 forward 7 unknown #
point $-1 15 -30 30 #
straight-curve $-1 20 30 20 1 0 0 I I #
straight-curve $-1 20 -30 20 -1 0 0 I I #
point $-1 15 30 20 #
point $-1 15 -30 20 #
straight-curve $-1 15 0 -30 0 -1 0 I I #
straight-curve $-1 15 -30 10 0 -0 1 I I #
End-of-ACIS-data 