600 0 1 0           
79 GICL ACIS Healer - Source: /gicl/data5/repository/UMD/phinter/phinter.sat - 6 0 18 ACIS 6.0.3 Solaris 24 Sun Apr 14 00:34:50 2002 
1 9.999999999999999547e-07 1.000000000000000036e-10 
body $-1 $1 $-1 $-1 #
lump $-1 $-1 $2 $0 #
shell $-1 $-1 $-1 $3 $-1 $1 #
face $-1 $4 $5 $2 $-1 $6 reversed single #
face $-1 $7 $8 $2 $-1 $9 forward single #
loop $-1 $-1 $10 $3 #
cone-surface $-1 -15 -25 0 0 0 1 10 0 0 1 I I 0 1 10 forward I I I I #
face $-1 $11 $12 $2 $-1 $13 reversed single #
loop $-1 $-1 $14 $4 #
plane-surface $-1 0 -25 0 0 1 -0 -0 0 1 forward_v I I I I #
coedge $-1 $15 $16 $14 $17 reversed $5 $-1 #
face $-1 $18 $19 $2 $-1 $20 forward single #
loop $-1 $-1 $21 $7 #
cone-surface $-1 -15 25 0 0 0 1 10 0 0 1 I I 0 1 10 forward I I I I #
coedge $-1 $22 $23 $10 $17 forward $8 $-1 #
coedge $-1 $24 $10 $25 $26 reversed $5 $-1 #
coedge $-1 $10 $24 $27 $28 reversed $5 $-1 #
edge $-1 $29 -10 $30 10 $14 $31 forward 7 unknown #
face $-1 $32 $33 $2 $-1 $34 reversed single #
loop $-1 $-1 $35 $11 #
plane-surface $-1 0 25 0 0 -1 0 0 0 -1 forward_v I I I I #
coedge $-1 $36 $37 $35 $38 reversed $12 $-1 #
coedge $-1 $39 $14 $40 $41 reversed $8 $-1 #
coedge $-1 $14 $39 $42 $43 reversed $8 $-1 #
coedge $-1 $16 $15 $44 $45 reversed $5 $-1 #
coedge $-1 $42 $46 $15 $26 forward $47 $-1 #
edge $-1 $48 1.570796326794896558 $29 6.283185307179586232 $25 $49 forward 7 unknown #
coedge $-1 $50 $40 $16 $28 forward $51 $-1 #
edge $-1 $30 0 $52 4.712388980384689674 $27 $53 forward 7 unknown #
vertex $-1 $17 $54 #
vertex $-1 $41 $55 #
straight-curve $-1 -5 -25 0 0 0 1 I I #
face $-1 $56 $51 $2 $-1 $57 forward single #
loop $-1 $-1 $58 $18 #
cone-surface $-1 15 25 0 0 0 1 10 0 0 1 I I 0 1 10 forward I I I I #
coedge $-1 $59 $60 $21 $38 forward $19 $-1 #
coedge $-1 $61 $21 $62 $63 reversed $12 $-1 #
coedge $-1 $21 $61 $64 $65 reversed $12 $-1 #
edge $-1 $66 -10 $67 10 $35 $68 forward 7 unknown #
coedge $-1 $23 $22 $69 $70 forward $8 $-1 #
coedge $-1 $27 $71 $22 $41 forward $51 $-1 #
edge $-1 $72 -5 $30 5 $40 $73 forward 7 unknown #
coedge $-1 $74 $25 $23 $43 forward $47 $-1 #
edge $-1 $29 -5 $75 5 $42 $76 forward 7 unknown #
coedge $-1 $77 $78 $24 $45 forward $79 $-1 #
edge $-1 $52 -10 $48 10 $44 $80 forward 7 unknown #
coedge $-1 $25 $64 $77 $81 forward $47 $-1 #
loop $-1 $82 $25 $83 #
vertex $-1 $81 $84 #
ellipse-curve $-1 -15 -25 -10 0 0 1 10 0 0 1 I I #
coedge $-1 $62 $27 $78 $85 forward $51 $-1 #
loop $-1 $86 $27 $32 #
vertex $-1 $28 $87 #
ellipse-curve $-1 -15 -25 10 -0 -0 -1 10 0 0 1 I I #
point $-1 -5 -25 -10 #
point $-1 -5 -25 10 #
face $-1 $88 $89 $2 $-1 $90 forward single #
plane-surface $-1 0 0 10 0 0 1 1 0 0 forward_v I I I I #
coedge $-1 $91 $92 $93 $94 reversed $33 $-1 #
coedge $-1 $93 $35 $95 $96 reversed $19 $-1 #
coedge $-1 $35 $93 $97 $98 reversed $19 $-1 #
coedge $-1 $37 $36 $99 $100 reversed $12 $-1 #
coedge $-1 $97 $50 $36 $63 forward $51 $-1 #
edge $-1 $101 1.570796326794896558 $66 6.283185307179586232 $62 $102 forward 7 unknown #
coedge $-1 $46 $95 $37 $65 forward $47 $-1 #
edge $-1 $67 0 $103 4.712388980384689674 $64 $104 forward 7 unknown #
vertex $-1 $38 $105 #
vertex $-1 $96 $106 #
straight-curve $-1 -5 25 0 -0 -0 -1 I I #
coedge $-1 $107 $108 $39 $70 reversed $109 $-1 #
edge $-1 $72 -10 $75 10 $39 $110 forward 7 unknown #
coedge $-1 $40 $111 $107 $112 forward $51 $-1 #
vertex $-1 $112 $113 #
straight-curve $-1 0 -25 10 -1 0 0 I I #
coedge $-1 $114 $42 $108 $115 forward $47 $-1 #
vertex $-1 $43 $116 #
straight-curve $-1 0 -25 -10 1 -0 0 I I #
coedge $-1 $99 $44 $46 $81 reversed $79 $-1 #
coedge $-1 $44 $99 $50 $85 reversed $79 $-1 #
loop $-1 $-1 $44 $117 #
straight-curve $-1 -15 -15 0 -0 -0 -1 I I #
edge $-1 $103 -15 $48 15 $46 $118 forward 7 unknown #
loop $-1 $-1 $119 $83 #
face $-1 $117 $47 $2 $-1 $120 reversed single #
point $-1 -15 -15 -10 #
edge $-1 $52 -15 $101 15 $50 $121 forward 7 unknown #
loop $-1 $-1 $122 $32 #
point $-1 -15 -15 10 #
face $-1 $83 $109 $2 $-1 $123 reversed single #
loop $-1 $-1 $124 $56 #
plane-surface $-1 15 0 0 -1 0 0 0 -0 1 forward_v I I I I #
coedge $-1 $125 $58 $126 $127 reversed $33 $-1 #
coedge $-1 $58 $128 $129 $130 reversed $33 $-1 #
coedge $-1 $60 $59 $58 $94 forward $19 $-1 #
edge $-1 $131 -10 $132 10 $93 $133 forward 7 unknown #
coedge $-1 $64 $126 $59 $96 forward $47 $-1 #
edge $-1 $131 -5 $67 5 $95 $134 forward 7 unknown #
coedge $-1 $129 $62 $60 $98 forward $51 $-1 #
edge $-1 $66 -5 $132 5 $97 $135 forward 7 unknown #
coedge $-1 $78 $77 $61 $100 forward $79 $-1 #
edge $-1 $103 -10 $101 10 $99 $136 forward 7 unknown #
vertex $-1 $85 $137 #
ellipse-curve $-1 -15 25 10 -0 -0 -1 10 0 0 1 I I #
vertex $-1 $65 $138 #
ellipse-curve $-1 -15 25 -10 0 0 1 10 0 0 1 I I #
point $-1 -5 25 10 #
point $-1 -5 25 -10 #
coedge $-1 $139 $69 $71 $112 reversed $109 $-1 #
coedge $-1 $69 $140 $74 $115 reversed $109 $-1 #
loop $-1 $-1 $69 $88 #
straight-curve $-1 5 -25 0 -0 -0 -1 I I #
coedge $-1 $71 $141 $139 $142 forward $51 $-1 #
edge $-1 $143 0 $72 3.141592653589793116 $71 $144 forward 7 unknown #
point $-1 5 -25 10 #
coedge $-1 $145 $74 $140 $146 forward $47 $-1 #
edge $-1 $75 -3.141592653589793116 $147 0 $74 $148 forward 7 unknown #
point $-1 5 -25 -10 #
face $-1 $149 $79 $2 $-1 $150 forward single #
straight-curve $-1 -15 0 -10 0 -1 0 I I #
coedge $-1 $151 $152 $153 $154 forward $82 $-1 #
plane-surface $-1 0 0 -10 0 0 1 1 0 0 forward_v I I I I #
straight-curve $-1 -15 0 10 0 1 0 I I #
coedge $-1 $155 $156 $157 $158 forward $86 $-1 #
cone-surface $-1 15 -25 0 0 0 1 10 0 0 1 I I 0 1 10 forward I I I I #
coedge $-1 $159 $160 $161 $162 forward $89 $-1 #
coedge $-1 $161 $91 $163 $164 reversed $33 $-1 #
coedge $-1 $95 $163 $91 $127 forward $47 $-1 #
edge $-1 $165 0 $131 3.141592653589793116 $126 $166 forward 7 unknown #
coedge $-1 $92 $161 $167 $168 reversed $33 $-1 #
coedge $-1 $167 $97 $92 $130 forward $51 $-1 #
edge $-1 $132 -3.141592653589793116 $169 0 $129 $170 forward 7 unknown #
vertex $-1 $127 $171 #
vertex $-1 $98 $172 #
straight-curve $-1 5 25 0 0 0 1 I I #
straight-curve $-1 0 25 -10 -1 0 0 I I #
straight-curve $-1 0 25 10 1 0 -0 I I #
straight-curve $-1 -15 15 0 0 0 1 I I #
point $-1 -15 15 10 #
point $-1 -15 15 -10 #
coedge $-1 $173 $107 $111 $142 reversed $109 $-1 #
coedge $-1 $108 $173 $114 $146 reversed $109 $-1 #
coedge $-1 $111 $167 $160 $174 forward $51 $-1 #
edge $-1 $175 -1.570796326794896558 $143 0 $111 $144 forward 7 unknown #
vertex $-1 $142 $176 #
ellipse-curve $-1 15 -25 10 -0 -0 -1 10 0 0 1 I I #
coedge $-1 $163 $114 $159 $177 forward $47 $-1 #
edge $-1 $147 0 $178 1.570796326794896558 $114 $148 forward 7 unknown #
vertex $-1 $146 $179 #
ellipse-curve $-1 15 -25 -10 0 0 1 10 0 0 1 I I #
face $-1 $180 $181 $2 $-1 $182 reversed single #
plane-surface $-1 -15 0 0 1 0 0 0 0 -1 forward_v I I I I #
coedge $-1 $183 $119 $184 $185 forward $82 $-1 #
coedge $-1 $119 $183 $186 $187 forward $82 $-1 #
coedge $-1 $188 $189 $119 $154 reversed $190 $-1 #
edge $-1 $191 -50 $192 50 $153 $193 forward 7 unknown #
coedge $-1 $194 $122 $195 $196 forward $86 $-1 #
coedge $-1 $122 $194 $197 $198 forward $86 $-1 #
coedge $-1 $189 $188 $122 $158 reversed $190 $-1 #
edge $-1 $199 -50 $200 50 $157 $201 forward 7 unknown #
coedge $-1 $202 $124 $145 $177 reversed $89 $-1 #
coedge $-1 $124 $202 $141 $174 reversed $89 $-1 #
coedge $-1 $128 $125 $124 $162 reversed $33 $-1 #
edge $-1 $203 -10 $204 10 $124 $205 forward 7 unknown #
coedge $-1 $126 $145 $125 $164 forward $47 $-1 #
edge $-1 $204 -1.570796326794896558 $165 0 $163 $166 forward 7 unknown #
vertex $-1 $164 $206 #
ellipse-curve $-1 15 25 -10 0 0 1 10 0 0 1 I I #
coedge $-1 $141 $129 $128 $168 forward $51 $-1 #
edge $-1 $169 0 $203 1.570796326794896558 $167 $170 forward 7 unknown #
vertex $-1 $168 $207 #
ellipse-curve $-1 15 25 10 -0 -0 -1 10 0 0 1 I I #
point $-1 5 25 -10 #
point $-1 5 25 10 #
coedge $-1 $140 $139 $202 $208 reversed $109 $-1 #
edge $-1 $203 -15 $175 15 $141 $209 forward 7 unknown #
vertex $-1 $174 $210 #
point $-1 25 -25 10 #
edge $-1 $178 -15 $204 15 $145 $211 forward 7 unknown #
vertex $-1 $208 $212 #
point $-1 25 -25 -10 #
face $-1 $213 $214 $2 $-1 $215 reversed single #
loop $-1 $-1 $216 $149 #
plane-surface $-1 0 -50 0 0 1 -0 -0 0 1 forward_v I I I I #
coedge $-1 $152 $151 $217 $218 forward $82 $-1 #
coedge $-1 $219 $216 $151 $185 reversed $181 $-1 #
edge $-1 $192 -30 $220 30 $184 $221 forward 7 unknown #
coedge $-1 $222 $223 $152 $187 reversed $224 $-1 #
edge $-1 $225 -30 $191 30 $186 $226 forward 7 unknown #
coedge $-1 $157 $153 $223 $227 reversed $190 $-1 #
coedge $-1 $153 $157 $219 $228 forward $190 $-1 #
loop $-1 $-1 $189 $229 #
vertex $-1 $154 $230 #
vertex $-1 $228 $231 #
straight-curve $-1 30 0 -10 0 -1 0 I I #
coedge $-1 $156 $155 $232 $233 forward $86 $-1 #
coedge $-1 $223 $222 $155 $196 reversed $224 $-1 #
edge $-1 $200 -30 $234 30 $195 $235 forward 7 unknown #
coedge $-1 $216 $219 $156 $198 reversed $181 $-1 #
edge $-1 $236 -30 $199 30 $197 $237 forward 7 unknown #
vertex $-1 $158 $238 #
vertex $-1 $158 $239 #
straight-curve $-1 30 0 10 0 1 0 I I #
coedge $-1 $160 $159 $173 $208 forward $89 $-1 #
vertex $-1 $162 $240 #
vertex $-1 $177 $241 #
straight-curve $-1 15 15 0 -0 -0 -1 I I #
point $-1 25 25 -10 #
point $-1 25 25 10 #
edge $-1 $178 -10 $175 10 $202 $242 forward 7 unknown #
straight-curve $-1 15 0 10 0 -1 0 I I #
point $-1 15 -15 10 #
straight-curve $-1 15 0 -10 0 1 -0 I I #
point $-1 15 -15 -10 #
face $-1 $229 $224 $2 $-1 $243 reversed single #
loop $-1 $-1 $244 $180 #
plane-surface $-1 -30 0 0 1 0 0 0 0 -1 forward_v I I I I #
coedge $-1 $184 $197 $245 $246 forward $181 $-1 #
coedge $-1 $245 $244 $183 $218 reversed $214 $-1 #
edge $-1 $220 -50 $225 50 $217 $247 forward 7 unknown #
coedge $-1 $197 $184 $189 $228 reversed $181 $-1 #
vertex $-1 $218 $248 #
straight-curve $-1 0 -50 -10 -1 0 0 I I #
coedge $-1 $195 $186 $244 $249 reversed $224 $-1 #
coedge $-1 $186 $195 $188 $227 forward $224 $-1 #
loop $-1 $-1 $223 $213 #
vertex $-1 $187 $250 #
straight-curve $-1 0 50 -10 1 0 0 I I #
edge $-1 $200 -10 $191 10 $188 $251 forward 7 unknown #
edge $-1 $199 -10 $192 10 $189 $252 forward 7 unknown #
face $-1 $-1 $190 $2 $-1 $253 reversed single #
point $-1 30 50 -10 #
point $-1 30 -50 -10 #
coedge $-1 $244 $245 $194 $233 reversed $214 $-1 #
edge $-1 $234 -50 $236 50 $232 $254 forward 7 unknown #
vertex $-1 $196 $255 #
straight-curve $-1 0 50 10 -1 0 0 I I #
vertex $-1 $233 $256 #
straight-curve $-1 0 -50 10 1 0 0 I I #
point $-1 30 -50 10 #
point $-1 30 50 10 #
point $-1 15 15 10 #
point $-1 15 15 -10 #
straight-curve $-1 15 -15 0 0 0 1 I I #
plane-surface $-1 0 50 0 0 -1 0 0 0 -1 forward_v I I I I #
coedge $-1 $217 $232 $222 $249 forward $214 $-1 #
coedge $-1 $232 $217 $216 $246 reversed $214 $-1 #
edge $-1 $236 -10 $220 10 $245 $257 forward 7 unknown #
straight-curve $-1 -30 0 -10 0 1 0 I I #
point $-1 -30 -50 -10 #
edge $-1 $234 -10 $225 10 $222 $258 forward 7 unknown #
point $-1 -30 50 -10 #
straight-curve $-1 30 50 0 0 0 -1 I I #
straight-curve $-1 30 -50 0 0 0 -1 I I #
plane-surface $-1 30 0 0 -1 0 0 0 -0 1 forward_v I I I I #
straight-curve $-1 -30 0 10 0 -1 0 I I #
point $-1 -30 50 10 #
point $-1 -30 -50 10 #
straight-curve $-1 -30 -50 0 0 0 -1 I I #
straight-curve $-1 -30 50 0 0 0 -1 I I #
End-of-ACIS-data 