600 0 2 0           
24 FBMach with ACIS - 6.0.3 13 ACIS 6.0.3 NT 24 Mon Apr 01 00:01:36 2002 
1 9.9999999999999995e-007 1e-010 
body $2 $3 $-1 $4 #
bdycol-kcp $-1 1 2 $5 $6 #
model_id-kcp-attrib $-1 $7 $-1 $0 1 1017637295 90 -1386610687 1 #
lump $-1 $-1 $8 $0 #
transform $-1 1 0 0 0 1 0 0 0 1 0 0 0 1 rotate no_reflect no_shear #
body $9 $10 $-1 $11 #
body $12 $13 $-1 $14 #
aggregate_advspl_attribute-aggregate_geombuild_base_attribute-aggregate_body_attribute-attrib_HH-attrib $-1 $15 $2 $0 F #
shell $-1 $-1 $-1 $16 $-1 $3 #
model_id-kcp-attrib $-1 $-1 $-1 $5 1 1017637295 90 -1386610686 1 #
lump $-1 $-1 $17 $5 #
transform $-1 1 0 0 0 1 0 0 0 1 0 0 0 1 no_rotate no_reflect no_shear #
rgb_color-st-attrib $-1 $18 $-1 $6 0.5 1 1 #
lump $-1 $-1 $19 $6 #
transform $-1 1 0 0 0 1 0 0 0 1 0 0 0 1 no_rotate no_reflect no_shear #
aggregate_secndry_attribute-aggregate_geombuild_base_attribute-aggregate_body_attribute-attrib_HH-attrib $-1 $20 $7 $0 F #
face $21 $22 $23 $8 $-1 $24 reversed single #
shell $-1 $-1 $-1 $25 $-1 $10 #
model_id-kcp-attrib $-1 $-1 $12 $6 1 1017637295 360 -1385693181 1 #
shell $-1 $-1 $-1 $26 $-1 $13 #
aggregate_sharped_attribute-aggregate_geombuild_base_attribute-aggregate_body_attribute-attrib_HH-attrib $-1 $27 $15 $0 F #
model_id-kcp-attrib $-1 $28 $-1 $16 1 1017637295 90 -1386610687 2 #
face $29 $30 $31 $8 $-1 $32 forward single #
loop $-1 $-1 $33 $16 #
cone-surface $-1 -15 -25 0 0 0 1 10 0 0 1 I I 0 1 10 forward I I I I #
face $34 $35 $36 $17 $-1 $37 forward single #
face $-1 $38 $39 $19 $-1 $40 forward single #
aggregate_reblend_attribute-aggregate_geombuild_base_attribute-aggregate_body_attribute-attrib_HH-attrib $-1 $41 $20 $0 F #
attrib_hh_face_geombuild-attrib_entity_geombuild-individual_entity_attribute-attrib_HH-attrib $-1 $-1 $21 $16 F #
model_id-kcp-attrib $-1 $42 $-1 $22 1 1017637295 90 -1386610687 3 #
face $43 $44 $45 $8 $-1 $46 reversed single #
loop $-1 $-1 $47 $22 #
plane-surface $-1 0 -25 0 0 1 0 0 0 1 forward_v I I I I #
coedge $48 $49 $50 $47 $51 reversed $23 $-1 #
model_id-kcp-attrib $-1 $-1 $-1 $25 1 1017637295 90 -1386610686 2 #
face $52 $53 $54 $17 $-1 $55 reversed single #
loop $-1 $-1 $56 $25 #
plane-surface $-1 0 0 10 0 0 1 1 0 0 forward_v I I I I #
face $-1 $57 $58 $19 $-1 $59 forward single #
loop $-1 $-1 $60 $26 #
plane-surface $-1 -5 -25 10 0 -1 0 0 0 -1 forward_v I I I I #
aggregate_isospline_attribute-aggregate_geombuild_base_attribute-aggregate_body_attribute-attrib_HH-attrib $-1 $61 $27 $0 F #
attrib_hh_face_geombuild-attrib_entity_geombuild-individual_entity_attribute-attrib_HH-attrib $-1 $-1 $29 $22 F #
model_id-kcp-attrib $-1 $62 $-1 $30 1 1017637295 90 -1386610687 4 #
face $63 $64 $65 $8 $-1 $66 forward single #
loop $-1 $-1 $67 $30 #
cone-surface $-1 -15 25 0 0 0 1 10 0 0 1 I I 0 1 10 forward I I I I #
coedge $68 $69 $70 $33 $51 forward $31 $-1 #
attrib_hh_coedge_geombuild-attrib_entity_geombuild-individual_entity_attribute-attrib_HH-attrib $-1 $-1 $-1 $33 F #
coedge $71 $72 $33 $73 $74 reversed $23 $-1 #
coedge $75 $33 $72 $76 $77 reversed $23 $-1 #
edge $78 $79 -10 $80 10 $47 $81 forward 7 unknown #
model_id-kcp-attrib $-1 $-1 $-1 $35 1 1017637295 90 -1386610686 3 #
face $82 $83 $84 $17 $-1 $85 reversed single #
loop $-1 $-1 $86 $35 #
plane-surface $-1 0 0 -10 0 0 1 1 0 0 forward_v I I I I #
coedge $-1 $87 $88 $89 $90 forward $36 $-1 #
face $-1 $91 $92 $19 $-1 $93 forward single #
loop $-1 $-1 $94 $38 #
cone-surface $-1 15 -25 10 0 0 -1 10 0 0 1 I I 0 1 10 forward I I I I #
coedge $-1 $95 $96 $97 $98 forward $39 $-1 #
aggregate_analytic_solver_attribute-aggregate_geombuild_base_attribute-aggregate_body_attribute-attrib_HH-attrib $-1 $99 $41 $0 F #
attrib_hh_face_geombuild-attrib_entity_geombuild-individual_entity_attribute-attrib_HH-attrib $-1 $-1 $43 $30 F #
model_id-kcp-attrib $-1 $100 $-1 $44 1 1017637295 90 -1386610687 5 #
face $101 $102 $103 $8 $-1 $104 reversed single #
loop $-1 $-1 $105 $44 #
plane-surface $-1 0 25 0 0 -1 0 0 0 -1 forward_v I I I I #
coedge $106 $107 $108 $105 $109 reversed $45 $-1 #
attrib_hh_coedge_geombuild-attrib_entity_geombuild-individual_entity_attribute-attrib_HH-attrib $-1 $-1 $-1 $47 F #
coedge $110 $111 $47 $112 $113 reversed $31 $-1 #
coedge $114 $47 $111 $115 $116 reversed $31 $-1 #
attrib_hh_coedge_geombuild-attrib_entity_geombuild-individual_entity_attribute-attrib_HH-attrib $-1 $-1 $-1 $49 F #
coedge $117 $50 $49 $118 $119 reversed $23 $-1 #
coedge $120 $115 $121 $49 $74 forward $122 $-1 #
edge $123 $124 1.5707963267948966 $79 6.2831853071795862 $73 $125 forward 7 unknown #
attrib_hh_coedge_geombuild-attrib_entity_geombuild-individual_entity_attribute-attrib_HH-attrib $-1 $-1 $-1 $50 F #
coedge $126 $127 $112 $50 $77 forward $128 $-1 #
edge $129 $80 0 $130 4.7123889803846897 $76 $131 forward 7 unknown #
attrib_hh_edge_geombuild-attrib_entity_geombuild-individual_entity_attribute-attrib_HH-attrib $-1 $-1 $-1 $51 F #
vertex $132 $51 $133 #
vertex $134 $113 $135 #
straight-curve $-1 -5 -25 0 0 0 1 I I #
model_id-kcp-attrib $-1 $-1 $-1 $53 1 1017637295 90 -1386610686 4 #
face $136 $137 $138 $17 $-1 $139 reversed single #
loop $-1 $-1 $140 $53 #
plane-surface $-1 0 -50 0 0 1 0 0 0 1 forward_v I I I I #
coedge $-1 $141 $142 $143 $144 forward $54 $-1 #
coedge $-1 $145 $56 $146 $147 forward $36 $-1 #
coedge $-1 $56 $145 $148 $149 forward $36 $-1 #
coedge $-1 $150 $151 $56 $90 reversed $152 $-1 #
edge $-1 $153 -50 $154 50 $89 $155 forward 7 unknown #
face $-1 $156 $157 $19 $-1 $158 forward single #
loop $-1 $-1 $159 $57 #
plane-surface $-1 15 -15 10 1 0 0 0 0 -1 forward_v I I I I #
coedge $-1 $160 $161 $162 $163 forward $58 $-1 #
coedge $-1 $164 $60 $161 $165 reversed $39 $-1 #
coedge $-1 $60 $164 $166 $167 forward $39 $-1 #
coedge $-1 $168 $162 $60 $98 reversed $169 $-1 #
edge $-1 $170 -5 $171 5 $60 $172 forward 7 unknown #
aggregate_geombuild_attribute-aggregate_geombuild_base_attribute-aggregate_body_attribute-attrib_HH-attrib $-1 $173 $61 $0 #
attrib_hh_face_geombuild-attrib_entity_geombuild-individual_entity_attribute-attrib_HH-attrib $-1 $-1 $63 $44 F #
model_id-kcp-attrib $-1 $174 $-1 $64 1 1017637295 90 -1386610687 6 #
face $175 $176 $128 $8 $-1 $177 forward single #
loop $-1 $-1 $178 $64 #
cone-surface $-1 15 25 0 0 0 1 10 0 0 1 I I 0 1 10 forward I I I I #
coedge $179 $180 $181 $67 $109 forward $65 $-1 #
attrib_hh_coedge_geombuild-attrib_entity_geombuild-individual_entity_attribute-attrib_HH-attrib $-1 $-1 $-1 $67 F #
coedge $182 $183 $67 $184 $185 reversed $45 $-1 #
coedge $186 $67 $183 $187 $188 reversed $45 $-1 #
edge $189 $190 -10 $191 10 $105 $192 forward 7 unknown #
attrib_hh_coedge_geombuild-attrib_entity_geombuild-individual_entity_attribute-attrib_HH-attrib $-1 $-1 $-1 $69 F #
coedge $193 $70 $69 $194 $195 forward $31 $-1 #
coedge $196 $76 $197 $69 $113 forward $128 $-1 #
edge $198 $199 -5 $80 5 $112 $200 forward 7 unknown #
attrib_hh_coedge_geombuild-attrib_entity_geombuild-individual_entity_attribute-attrib_HH-attrib $-1 $-1 $-1 $70 F #
coedge $201 $202 $73 $70 $116 forward $122 $-1 #
edge $203 $79 -5 $204 5 $115 $205 forward 7 unknown #
attrib_hh_coedge_geombuild-attrib_entity_geombuild-individual_entity_attribute-attrib_HH-attrib $-1 $-1 $-1 $72 F #
coedge $206 $207 $208 $72 $119 forward $209 $-1 #
edge $210 $130 -10 $124 10 $118 $211 forward 7 unknown #
attrib_hh_coedge_geombuild-attrib_entity_geombuild-individual_entity_attribute-attrib_HH-attrib $-1 $-1 $-1 $73 F #
coedge $212 $73 $187 $207 $213 forward $122 $-1 #
loop $-1 $214 $73 $215 #
attrib_hh_edge_geombuild-attrib_entity_geombuild-individual_entity_attribute-attrib_HH-attrib $-1 $-1 $-1 $74 F #
vertex $216 $213 $217 #
ellipse-curve $-1 -15 -25 -10 0 0 1 10 0 0 1 I I #
attrib_hh_coedge_geombuild-attrib_entity_geombuild-individual_entity_attribute-attrib_HH-attrib $-1 $-1 $-1 $76 F #
coedge $218 $184 $76 $208 $219 forward $128 $-1 #
loop $-1 $220 $76 $102 #
attrib_edge_convexity-kcp-attrib $-1 $221 $-1 $77 1 #
vertex $222 $77 $223 #
ellipse-curve $-1 -15 -25 10 0 0 -1 10 0 0 1 I I #
attrib_hh_vertex_geombuild-attrib_entity_geombuild-individual_entity_attribute-attrib_HH-attrib $-1 $-1 $-1 $79 F #
point $-1 -5 -25 -10 #
attrib_hh_vertex_geombuild-attrib_entity_geombuild-individual_entity_attribute-attrib_HH-attrib $-1 $-1 $-1 $80 F #
point $-1 -5 -25 10 #
model_id-kcp-attrib $-1 $-1 $-1 $83 1 1017637295 90 -1386610686 5 #
face $224 $225 $226 $17 $-1 $227 reversed single #
loop $-1 $-1 $228 $83 #
plane-surface $-1 -30 0 0 1 0 0 0 0 -1 forward_v I I I I #
coedge $-1 $229 $148 $230 $231 forward $84 $-1 #
coedge $-1 $232 $86 $229 $233 forward $54 $-1 #
coedge $-1 $86 $232 $234 $235 forward $54 $-1 #
coedge $-1 $151 $150 $86 $144 reversed $152 $-1 #
edge $-1 $236 -50 $237 50 $143 $238 forward 7 unknown #
coedge $-1 $88 $87 $239 $240 forward $36 $-1 #
coedge $-1 $241 $242 $87 $147 reversed $226 $-1 #
edge $-1 $154 -30 $243 30 $146 $244 forward 7 unknown #
coedge $-1 $140 $245 $88 $149 reversed $84 $-1 #
edge $-1 $246 -30 $153 30 $148 $247 forward 7 unknown #
coedge $-1 $143 $89 $245 $248 forward $152 $-1 #
coedge $-1 $89 $143 $241 $249 reversed $152 $-1 #
loop $-1 $-1 $150 $225 #
vertex $-1 $90 $250 #
vertex $-1 $90 $251 #
straight-curve $-1 30 0 10 0 1 0 I I #
face $-1 $252 $253 $19 $-1 $254 forward single #
loop $-1 $-1 $255 $91 #
cone-surface $-1 15 25 10 0 0 -1 10 0 0 1 I I 0 1 10 forward I I I I #
coedge $-1 $256 $257 $258 $259 forward $92 $-1 #
coedge $-1 $260 $94 $257 $261 reversed $58 $-1 #
coedge $-1 $94 $260 $95 $165 forward $58 $-1 #
coedge $-1 $97 $258 $94 $163 reversed $169 $-1 #
edge $-1 $171 -3.1415926535897931 $262 1.5707963267948966 $94 $263 forward 7 unknown #
coedge $-1 $96 $95 $264 $265 forward $39 $-1 #
edge $-1 $266 0 $171 20 $161 $267 forward 7 unknown #
coedge $-1 $268 $269 $96 $167 reversed $270 $-1 #
edge $-1 $271 0 $170 20 $96 $272 forward 7 unknown #
coedge $-1 $273 $97 $269 $274 reversed $169 $-1 #
loop $-1 $-1 $97 $275 #
vertex $-1 $167 $276 #
vertex $-1 $165 $277 #
straight-curve $-1 0 -25 -10 1 0 0 I I #
aggregate_stitch_attribute-aggregate_stitch_base_attribute-aggregate_body_attribute-attrib_HH-attrib $-1 $278 $99 $0 F #
attrib_hh_face_geombuild-attrib_entity_geombuild-individual_entity_attribute-attrib_HH-attrib $-1 $-1 $101 $64 F #
model_id-kcp-attrib $-1 $279 $-1 $102 1 1017637295 90 -1386610687 7 #
face $280 $281 $282 $8 $-1 $283 forward single #
plane-surface $-1 0 0 10 0 0 1 1 0 0 forward_v I I I I #
coedge $284 $285 $286 $287 $288 reversed $103 $-1 #
attrib_hh_coedge_geombuild-attrib_entity_geombuild-individual_entity_attribute-attrib_HH-attrib $-1 $-1 $-1 $105 F #
coedge $289 $287 $105 $290 $291 reversed $65 $-1 #
coedge $292 $105 $287 $293 $294 reversed $65 $-1 #
attrib_hh_coedge_geombuild-attrib_entity_geombuild-individual_entity_attribute-attrib_HH-attrib $-1 $-1 $-1 $107 F #
coedge $295 $108 $107 $296 $297 reversed $45 $-1 #
coedge $298 $293 $127 $107 $185 forward $128 $-1 #
edge $299 $300 1.5707963267948966 $190 6.2831853071795862 $184 $301 forward 7 unknown #
attrib_hh_coedge_geombuild-attrib_entity_geombuild-individual_entity_attribute-attrib_HH-attrib $-1 $-1 $-1 $108 F #
coedge $302 $121 $290 $108 $188 forward $122 $-1 #
edge $303 $191 0 $304 4.7123889803846897 $187 $305 forward 7 unknown #
attrib_hh_edge_geombuild-attrib_entity_geombuild-individual_entity_attribute-attrib_HH-attrib $-1 $-1 $-1 $109 F #
vertex $306 $109 $307 #
vertex $308 $291 $309 #
straight-curve $-1 -5 25 0 0 0 -1 I I #
attrib_hh_coedge_geombuild-attrib_entity_geombuild-individual_entity_attribute-attrib_HH-attrib $-1 $-1 $-1 $111 F #
coedge $310 $311 $312 $111 $195 reversed $313 $-1 #
edge $314 $199 -10 $204 10 $111 $315 forward 7 unknown #
attrib_hh_coedge_geombuild-attrib_entity_geombuild-individual_entity_attribute-attrib_HH-attrib $-1 $-1 $-1 $112 F #
coedge $316 $112 $317 $311 $318 forward $128 $-1 #
attrib_edge_convexity-kcp-attrib $-1 $319 $-1 $113 1 #
vertex $320 $318 $321 #
straight-curve $-1 0 -25 10 -1 0 0 I I #
attrib_hh_coedge_geombuild-attrib_entity_geombuild-individual_entity_attribute-attrib_HH-attrib $-1 $-1 $-1 $115 F #
coedge $322 $323 $115 $312 $324 forward $122 $-1 #
attrib_hh_edge_geombuild-attrib_entity_geombuild-individual_entity_attribute-attrib_HH-attrib $-1 $-1 $-1 $116 F #
vertex $325 $116 $326 #
straight-curve $-1 0 -25 -10 1 0 0 I I #
attrib_hh_coedge_geombuild-attrib_entity_geombuild-individual_entity_attribute-attrib_HH-attrib $-1 $-1 $-1 $118 F #
coedge $327 $296 $118 $121 $213 reversed $209 $-1 #
coedge $328 $118 $296 $127 $219 reversed $209 $-1 #
loop $-1 $-1 $118 $329 #
attrib_hh_edge_geombuild-attrib_entity_geombuild-individual_entity_attribute-attrib_HH-attrib $-1 $-1 $-1 $119 F #
straight-curve $-1 -15 -15 0 0 0 -1 I I #
attrib_hh_coedge_geombuild-attrib_entity_geombuild-individual_entity_attribute-attrib_HH-attrib $-1 $-1 $-1 $121 F #
edge $330 $304 -15 $124 15 $121 $331 forward 7 unknown #
loop $-1 $-1 $332 $215 #
face $333 $329 $122 $8 $-1 $334 reversed single #
attrib_hh_vertex_geombuild-attrib_entity_geombuild-individual_entity_attribute-attrib_HH-attrib $-1 $-1 $-1 $124 F #
point $-1 -15 -15 -10 #
attrib_hh_coedge_geombuild-attrib_entity_geombuild-individual_entity_attribute-attrib_HH-attrib $-1 $-1 $-1 $127 F #
edge $335 $130 -15 $300 15 $127 $336 forward 7 unknown #
loop $-1 $-1 $337 $102 #
convexity-sys-attrib $-1 $338 $129 $77 #
attrib_hh_vertex_geombuild-attrib_entity_geombuild-individual_entity_attribute-attrib_HH-attrib $-1 $-1 $-1 $130 F #
point $-1 -15 -15 10 #
model_id-kcp-attrib $-1 $-1 $-1 $137 1 1017637295 90 -1386610686 6 #
face $339 $-1 $152 $17 $-1 $340 reversed single #
loop $-1 $-1 $241 $137 #
plane-surface $-1 0 50 0 0 -1 0 0 0 -1 forward_v I I I I #
coedge $-1 $341 $239 $242 $342 forward $138 $-1 #
coedge $-1 $245 $140 $141 $233 reversed $84 $-1 #
coedge $-1 $239 $341 $140 $231 reversed $138 $-1 #
edge $-1 $246 -10 $343 10 $230 $344 forward 7 unknown #
coedge $-1 $142 $141 $341 $345 forward $54 $-1 #
edge $-1 $237 -30 $343 30 $229 $346 forward 7 unknown #
coedge $-1 $242 $241 $142 $235 reversed $226 $-1 #
edge $-1 $347 -30 $236 30 $234 $348 forward 7 unknown #
vertex $-1 $144 $349 #
vertex $-1 $248 $350 #
straight-curve $-1 30 0 -10 0 -1 0 I I #
coedge $-1 $228 $230 $145 $240 reversed $138 $-1 #
edge $-1 $243 -50 $246 50 $239 $351 forward 7 unknown #
coedge $-1 $234 $146 $151 $249 forward $226 $-1 #
coedge $-1 $146 $234 $228 $342 reversed $226 $-1 #
vertex $-1 $147 $352 #
straight-curve $-1 0 50 10 -1 0 0 I I #
coedge $-1 $148 $229 $150 $248 reversed $84 $-1 #
vertex $-1 $240 $353 #
straight-curve $-1 0 -50 10 1 0 0 I I #
edge $-1 $153 -10 $237 10 $150 $354 forward 7 unknown #
edge $-1 $154 -10 $236 10 $151 $355 forward 7 unknown #
point $-1 30 -50 10 #
point $-1 30 50 10 #
face $-1 $356 $357 $19 $-1 $358 forward single #
loop $-1 $-1 $359 $156 #
plane-surface $-1 5 25 10 0 1 0 0 0 1 forward_v I I I I #
coedge $-1 $360 $361 $362 $363 forward $157 $-1 #
coedge $-1 $364 $159 $361 $365 reversed $92 $-1 #
coedge $-1 $159 $364 $160 $261 forward $92 $-1 #
coedge $-1 $162 $362 $159 $259 reversed $169 $-1 #
edge $-1 $262 -15 $366 15 $159 $367 forward 7 unknown #
coedge $-1 $161 $160 $368 $369 forward $58 $-1 #
edge $-1 $370 0 $262 20 $257 $371 forward 7 unknown #
vertex $-1 $261 $372 #
ellipse-curve $-1 15 -25 -10 0 0 1 10 0 0 1 I I #
coedge $-1 $368 $373 $164 $265 reversed $374 $-1 #
edge $-1 $266 -5 $271 5 $164 $375 forward 7 unknown #
vertex $-1 $369 $376 #
straight-curve $-1 5 -25 10 0 0 -1 I I #
coedge $-1 $377 $166 $373 $378 forward $270 $-1 #
coedge $-1 $166 $377 $168 $274 forward $270 $-1 #
loop $-1 $-1 $269 $379 #
vertex $-1 $378 $380 #
straight-curve $-1 -5 -25 10 0 0 -1 I I #
coedge $-1 $381 $168 $382 $383 reversed $169 $-1 #
edge $-1 $384 1.5707963267948966 $170 6.2831853071795862 $269 $385 forward 7 unknown #
face $-1 $386 $169 $19 $-1 $387 reversed single #
point $-1 -5 -25 -10 #
point $-1 5 -25 -10 #
aggregate_simgeom_attribute-aggregate_simgeom_base_attribute-aggregate_body_attribute-attrib_HH-attrib $-1 $-1 $173 $0 F #
attrib_hh_face_geombuild-attrib_entity_geombuild-individual_entity_attribute-attrib_HH-attrib $-1 $-1 $175 $102 F #
model_id-kcp-attrib $-1 $388 $-1 $176 1 1017637295 90 -1386610687 8 #
face $389 $215 $313 $8 $-1 $390 reversed single #
loop $-1 $-1 $391 $176 #
plane-surface $-1 15 0 0 -1 0 0 0 0 1 forward_v I I I I #
attrib_hh_coedge_geombuild-attrib_entity_geombuild-individual_entity_attribute-attrib_HH-attrib $-1 $-1 $-1 $178 F #
coedge $392 $393 $178 $394 $395 reversed $103 $-1 #
coedge $396 $178 $397 $398 $399 reversed $103 $-1 #
coedge $400 $181 $180 $178 $288 forward $65 $-1 #
edge $401 $402 -10 $403 10 $287 $404 forward 7 unknown #
attrib_hh_coedge_geombuild-attrib_entity_geombuild-individual_entity_attribute-attrib_HH-attrib $-1 $-1 $-1 $180 F #
coedge $405 $187 $394 $180 $291 forward $122 $-1 #
edge $406 $402 -5 $191 5 $290 $407 forward 7 unknown #
attrib_hh_coedge_geombuild-attrib_entity_geombuild-individual_entity_attribute-attrib_HH-attrib $-1 $-1 $-1 $181 F #
coedge $408 $398 $184 $181 $294 forward $128 $-1 #
edge $409 $190 -5 $403 5 $293 $410 forward 7 unknown #
attrib_hh_coedge_geombuild-attrib_entity_geombuild-individual_entity_attribute-attrib_HH-attrib $-1 $-1 $-1 $183 F #
coedge $411 $208 $207 $183 $297 forward $209 $-1 #
edge $412 $304 -10 $300 10 $296 $413 forward 7 unknown #
attrib_hh_coedge_geombuild-attrib_entity_geombuild-individual_entity_attribute-attrib_HH-attrib $-1 $-1 $-1 $184 F #
attrib_edge_convexity-kcp-attrib $-1 $414 $-1 $185 1 #
vertex $415 $219 $416 #
ellipse-curve $-1 -15 25 10 0 0 -1 10 0 0 1 I I #
attrib_hh_coedge_geombuild-attrib_entity_geombuild-individual_entity_attribute-attrib_HH-attrib $-1 $-1 $-1 $187 F #
attrib_hh_edge_geombuild-attrib_entity_geombuild-individual_entity_attribute-attrib_HH-attrib $-1 $-1 $-1 $188 F #
vertex $417 $188 $418 #
ellipse-curve $-1 -15 25 -10 0 0 1 10 0 0 1 I I #
attrib_hh_vertex_geombuild-attrib_entity_geombuild-individual_entity_attribute-attrib_HH-attrib $-1 $-1 $-1 $190 F #
point $-1 -5 25 10 #
attrib_hh_vertex_geombuild-attrib_entity_geombuild-individual_entity_attribute-attrib_HH-attrib $-1 $-1 $-1 $191 F #
point $-1 -5 25 -10 #
attrib_hh_coedge_geombuild-attrib_entity_geombuild-individual_entity_attribute-attrib_HH-attrib $-1 $-1 $-1 $194 F #
coedge $419 $420 $194 $197 $318 reversed $313 $-1 #
coedge $421 $194 $422 $202 $324 reversed $313 $-1 #
loop $-1 $-1 $194 $281 #
attrib_hh_edge_geombuild-attrib_entity_geombuild-individual_entity_attribute-attrib_HH-attrib $-1 $-1 $-1 $195 F #
straight-curve $-1 5 -25 0 0 0 -1 I I #
attrib_hh_coedge_geombuild-attrib_entity_geombuild-individual_entity_attribute-attrib_HH-attrib $-1 $-1 $-1 $197 F #
coedge $423 $197 $424 $420 $425 forward $128 $-1 #
edge $426 $427 0 $199 3.1415926535897931 $197 $428 forward 7 unknown #
convexity-sys-attrib $-1 $429 $198 $113 #
attrib_hh_vertex_geombuild-attrib_entity_geombuild-individual_entity_attribute-attrib_HH-attrib $-1 $-1 $-1 $199 F #
point $-1 5 -25 10 #
attrib_hh_coedge_geombuild-attrib_entity_geombuild-individual_entity_attribute-attrib_HH-attrib $-1 $-1 $-1 $202 F #
coedge $430 $431 $202 $422 $432 forward $122 $-1 #
edge $433 $204 -3.1415926535897931 $434 0 $202 $435 forward 7 unknown #
attrib_hh_vertex_geombuild-attrib_entity_geombuild-individual_entity_attribute-attrib_HH-attrib $-1 $-1 $-1 $204 F #
point $-1 5 -25 -10 #
attrib_hh_coedge_geombuild-attrib_entity_geombuild-individual_entity_attribute-attrib_HH-attrib $-1 $-1 $-1 $207 F #
attrib_hh_coedge_geombuild-attrib_entity_geombuild-individual_entity_attribute-attrib_HH-attrib $-1 $-1 $-1 $208 F #
face $436 $437 $209 $8 $-1 $438 forward single #
attrib_hh_edge_geombuild-attrib_entity_geombuild-individual_entity_attribute-attrib_HH-attrib $-1 $-1 $-1 $213 F #
straight-curve $-1 -15 0 -10 0 -1 0 I I #
coedge $439 $440 $441 $442 $443 forward $214 $-1 #
model_id-kcp-attrib $-1 $444 $-1 $215 1 1017637295 90 -1386610687 10 #
plane-surface $-1 0 0 -10 0 0 1 1 0 0 forward_v I I I I #
attrib_edge_convexity-kcp-attrib $-1 $445 $-1 $219 1 #
straight-curve $-1 -15 0 10 0 1 0 I I #
coedge $446 $447 $448 $449 $450 forward $220 $-1 #
attrib_hh_edge_geombuild-attrib_entity_geombuild-individual_entity_attribute-attrib_HH-attrib $-1 $-1 $221 $77 F #
model_id-kcp-attrib $-1 $-1 $-1 $225 1 1017637295 90 -1386610686 7 #
plane-surface $-1 30 0 0 -1 0 0 0 0 1 forward_v I I I I #
coedge $-1 $230 $228 $232 $345 reversed $138 $-1 #
edge $-1 $243 -10 $347 10 $242 $451 forward 7 unknown #
vertex $-1 $345 $452 #
straight-curve $-1 -30 -50 0 0 0 -1 I I #
edge $-1 $343 -50 $347 50 $341 $453 forward 7 unknown #
straight-curve $-1 0 -50 -10 -1 0 0 I I #
vertex $-1 $235 $454 #
straight-curve $-1 0 50 -10 1 0 0 I I #
point $-1 30 50 -10 #
point $-1 30 -50 -10 #
straight-curve $-1 -30 0 10 0 -1 0 I I #
point $-1 -30 50 10 #
point $-1 -30 -50 10 #
straight-curve $-1 30 -50 0 0 0 -1 I I #
straight-curve $-1 30 50 0 0 0 -1 I I #
face $-1 $379 $455 $19 $-1 $456 forward single #
loop $-1 $-1 $457 $252 #
cone-surface $-1 -15 25 10 0 0 -1 10 0 0 1 I I 0 1 10 forward I I I I #
coedge $-1 $458 $459 $460 $461 forward $253 $-1 #
coedge $-1 $462 $255 $459 $463 reversed $157 $-1 #
coedge $-1 $255 $462 $256 $365 forward $157 $-1 #
coedge $-1 $258 $460 $255 $363 reversed $169 $-1 #
edge $-1 $366 -1.5707963267948966 $464 3.1415926535897931 $255 $465 forward 7 unknown #
coedge $-1 $257 $256 $466 $467 forward $92 $-1 #
edge $-1 $468 0 $366 20 $361 $469 forward 7 unknown #
vertex $-1 $365 $470 #
straight-curve $-1 15 0 -10 0 1 0 I I #
coedge $-1 $466 $264 $260 $369 reversed $374 $-1 #
edge $-1 $370 -1.5707963267948966 $266 3.1415926535897931 $260 $471 forward 7 unknown #
vertex $-1 $467 $472 #
straight-curve $-1 15 -15 10 0 0 -1 I I #
point $-1 15 -15 -10 #
coedge $-1 $264 $473 $268 $378 reversed $374 $-1 #
loop $-1 $-1 $373 $386 #
straight-curve $-1 0 -25 10 -1 0 0 I I #
point $-1 5 -25 10 #
coedge $-1 $269 $268 $474 $475 forward $270 $-1 #
edge $-1 $271 0 $476 4.7123889803846897 $268 $477 forward 7 unknown #
face $-1 $275 $270 $19 $-1 $478 forward single #
point $-1 -5 -25 10 #
coedge $-1 $460 $273 $457 $479 reversed $169 $-1 #
coedge $-1 $474 $480 $273 $383 forward $455 $-1 #
edge $-1 $481 -15 $384 15 $382 $482 forward 7 unknown #
vertex $-1 $475 $483 #
ellipse-curve $-1 -15 -25 -10 0 0 1 10 0 0 1 I I #
face $-1 $-1 $374 $19 $-1 $484 forward single #
plane-surface $-1 0.22392556906274352 6.6613381477509392e-016 -9.9999999999999982 0 0 1 1 0 0 forward_v I I I I #
attrib_hh_face_geombuild-attrib_entity_geombuild-individual_entity_attribute-attrib_HH-attrib $-1 $-1 $280 $176 F #
model_id-kcp-attrib $-1 $485 $-1 $281 1 1017637295 90 -1386610687 9 #
cone-surface $-1 15 -25 0 0 0 1 10 0 0 1 I I 0 1 10 forward I I I I #
coedge $486 $487 $488 $489 $490 forward $282 $-1 #
attrib_hh_coedge_geombuild-attrib_entity_geombuild-individual_entity_attribute-attrib_HH-attrib $-1 $-1 $-1 $285 F #
coedge $491 $489 $285 $492 $493 reversed $103 $-1 #
coedge $494 $290 $492 $285 $395 forward $122 $-1 #
edge $495 $496 0 $402 3.1415926535897931 $394 $497 forward 7 unknown #
attrib_hh_coedge_geombuild-attrib_entity_geombuild-individual_entity_attribute-attrib_HH-attrib $-1 $-1 $-1 $286 F #
coedge $498 $286 $489 $499 $500 reversed $103 $-1 #
coedge $501 $499 $293 $286 $399 forward $128 $-1 #
edge $502 $403 -3.1415926535897931 $503 0 $398 $504 forward 7 unknown #
attrib_hh_coedge_geombuild-attrib_entity_geombuild-individual_entity_attribute-attrib_HH-attrib $-1 $-1 $-1 $287 F #
attrib_hh_edge_geombuild-attrib_entity_geombuild-individual_entity_attribute-attrib_HH-attrib $-1 $-1 $-1 $288 F #
vertex $505 $395 $506 #
vertex $507 $294 $508 #
straight-curve $-1 5 25 0 0 0 1 I I #
attrib_hh_coedge_geombuild-attrib_entity_geombuild-individual_entity_attribute-attrib_HH-attrib $-1 $-1 $-1 $290 F #
attrib_hh_edge_geombuild-attrib_entity_geombuild-individual_entity_attribute-attrib_HH-attrib $-1 $-1 $-1 $291 F #
straight-curve $-1 0 25 -10 -1 0 0 I I #
attrib_hh_coedge_geombuild-attrib_entity_geombuild-individual_entity_attribute-attrib_HH-attrib $-1 $-1 $-1 $293 F #
attrib_edge_convexity-kcp-attrib $-1 $509 $-1 $294 1 #
straight-curve $-1 0 25 10 1 0 0 I I #
attrib_hh_coedge_geombuild-attrib_entity_geombuild-individual_entity_attribute-attrib_HH-attrib $-1 $-1 $-1 $296 F #
attrib_hh_edge_geombuild-attrib_entity_geombuild-individual_entity_attribute-attrib_HH-attrib $-1 $-1 $-1 $297 F #
straight-curve $-1 -15 15 0 0 0 1 I I #
convexity-sys-attrib $-1 $510 $299 $185 #
attrib_hh_vertex_geombuild-attrib_entity_geombuild-individual_entity_attribute-attrib_HH-attrib $-1 $-1 $-1 $300 F #
point $-1 -15 15 10 #
attrib_hh_vertex_geombuild-attrib_entity_geombuild-individual_entity_attribute-attrib_HH-attrib $-1 $-1 $-1 $304 F #
point $-1 -15 15 -10 #
attrib_hh_coedge_geombuild-attrib_entity_geombuild-individual_entity_attribute-attrib_HH-attrib $-1 $-1 $-1 $311 F #
coedge $511 $512 $311 $317 $425 reversed $313 $-1 #
attrib_hh_coedge_geombuild-attrib_entity_geombuild-individual_entity_attribute-attrib_HH-attrib $-1 $-1 $-1 $312 F #
coedge $513 $312 $512 $323 $432 reversed $313 $-1 #
attrib_hh_coedge_geombuild-attrib_entity_geombuild-individual_entity_attribute-attrib_HH-attrib $-1 $-1 $-1 $317 F #
coedge $514 $317 $499 $488 $515 forward $128 $-1 #
edge $516 $517 -1.5707963267948966 $427 0 $317 $428 forward 7 unknown #
attrib_edge_convexity-kcp-attrib $-1 $518 $-1 $318 1 #
vertex $519 $425 $520 #
ellipse-curve $-1 15 -25 10 0 0 -1 10 0 0 1 I I #
attrib_hh_edge_geombuild-attrib_entity_geombuild-individual_entity_attribute-attrib_HH-attrib $-1 $-1 $319 $113 F #
attrib_hh_coedge_geombuild-attrib_entity_geombuild-individual_entity_attribute-attrib_HH-attrib $-1 $-1 $-1 $323 F #
coedge $521 $492 $323 $487 $522 forward $122 $-1 #
edge $523 $434 0 $524 1.5707963267948966 $323 $435 forward 7 unknown #
attrib_hh_edge_geombuild-attrib_entity_geombuild-individual_entity_attribute-attrib_HH-attrib $-1 $-1 $-1 $324 F #
vertex $525 $432 $526 #
ellipse-curve $-1 15 -25 -10 0 0 1 10 0 0 1 I I #
model_id-kcp-attrib $-1 $527 $-1 $329 1 1017637295 90 -1386610687 11 #
face $528 $529 $530 $8 $-1 $531 reversed single #
plane-surface $-1 -15 0 0 1 0 0 0 0 -1 forward_v I I I I #
attrib_hh_coedge_geombuild-attrib_entity_geombuild-individual_entity_attribute-attrib_HH-attrib $-1 $-1 $-1 $332 F #
coedge $532 $533 $332 $534 $535 forward $214 $-1 #
coedge $536 $332 $533 $537 $538 forward $214 $-1 #
coedge $539 $540 $541 $332 $443 reversed $542 $-1 #
edge $543 $544 -50 $545 50 $442 $546 forward 7 unknown #
attrib_hh_face_geombuild-attrib_entity_geombuild-individual_entity_attribute-attrib_HH-attrib $-1 $-1 $333 $215 F #
convexity-sys-attrib $-1 $547 $335 $219 #
attrib_hh_coedge_geombuild-attrib_entity_geombuild-individual_entity_attribute-attrib_HH-attrib $-1 $-1 $-1 $337 F #
coedge $548 $549 $337 $550 $551 forward $220 $-1 #
coedge $552 $337 $549 $553 $554 forward $220 $-1 #
coedge $555 $541 $540 $337 $450 reversed $542 $-1 #
edge $556 $557 -50 $558 50 $449 $559 forward 7 unknown #
straight-curve $-1 -30 50 0 0 0 -1 I I #
point $-1 -30 -50 -10 #
straight-curve $-1 -30 0 -10 0 1 0 I I #
point $-1 -30 50 -10 #
loop $-1 $-1 $382 $356 #
plane-surface $-1 -15 15 10 -1 0 0 0 0 1 forward_v I I I I #
coedge $-1 $560 $561 $381 $479 forward $357 $-1 #
coedge $-1 $562 $359 $561 $563 reversed $253 $-1 #
coedge $-1 $359 $562 $360 $463 forward $253 $-1 #
coedge $-1 $362 $381 $359 $461 reversed $169 $-1 #
edge $-1 $464 -5 $564 5 $359 $565 forward 7 unknown #
coedge $-1 $361 $360 $566 $567 forward $157 $-1 #
edge $-1 $568 0 $464 20 $459 $569 forward 7 unknown #
vertex $-1 $463 $570 #
ellipse-curve $-1 15 25 -10 0 0 1 10 0 0 1 I I #
coedge $-1 $566 $368 $364 $467 reversed $374 $-1 #
edge $-1 $468 -15 $370 15 $364 $571 forward 7 unknown #
vertex $-1 $567 $572 #
straight-curve $-1 15 15 10 0 0 -1 I I #
point $-1 15 15 -10 #
ellipse-curve $-1 15 -25 10 0 0 -1 10 0 0 1 I I #
point $-1 15 -15 10 #
coedge $-1 $373 $573 $574 $575 reversed $374 $-1 #
coedge $-1 $574 $382 $377 $475 reversed $455 $-1 #
edge $-1 $476 0 $384 20 $377 $576 forward 7 unknown #
vertex $-1 $378 $577 #
ellipse-curve $-1 -15 -25 10 0 0 -1 10 0 0 1 I I #
cone-surface $-1 -15 -25 10 0 0 -1 10 0 0 1 I I 0 1 10 forward I I I I #
edge $-1 $564 0 $481 4.7123889803846897 $457 $578 forward 7 unknown #
coedge $-1 $382 $574 $560 $579 forward $455 $-1 #
vertex $-1 $579 $580 #
straight-curve $-1 -15 0 -10 0 -1 0 I I #
point $-1 -15 -15 -10 #
plane-surface $-1 0.22392556906274352 6.6613381477509392e-016 10.000000000000002 0 0 1 1 0 0 forward_v I I I I #
attrib_hh_face_geombuild-attrib_entity_geombuild-individual_entity_attribute-attrib_HH-attrib $-1 $-1 $389 $281 F #
attrib_hh_coedge_geombuild-attrib_entity_geombuild-individual_entity_attribute-attrib_HH-attrib $-1 $-1 $-1 $391 F #
coedge $581 $582 $391 $431 $522 reversed $282 $-1 #
coedge $583 $391 $582 $424 $515 reversed $282 $-1 #
coedge $584 $397 $393 $391 $490 reversed $103 $-1 #
edge $585 $586 -10 $587 10 $391 $588 forward 7 unknown #
attrib_hh_coedge_geombuild-attrib_entity_geombuild-individual_entity_attribute-attrib_HH-attrib $-1 $-1 $-1 $393 F #
coedge $589 $394 $431 $393 $493 forward $122 $-1 #
edge $590 $587 -1.5707963267948966 $496 0 $492 $497 forward 7 unknown #
attrib_hh_coedge_geombuild-attrib_entity_geombuild-individual_entity_attribute-attrib_HH-attrib $-1 $-1 $-1 $394 F #
attrib_hh_edge_geombuild-attrib_entity_geombuild-individual_entity_attribute-attrib_HH-attrib $-1 $-1 $-1 $395 F #
vertex $591 $493 $592 #
ellipse-curve $-1 15 25 -10 0 0 1 10 0 0 1 I I #
attrib_hh_coedge_geombuild-attrib_entity_geombuild-individual_entity_attribute-attrib_HH-attrib $-1 $-1 $-1 $397 F #
coedge $593 $424 $398 $397 $500 forward $128 $-1 #
edge $594 $503 0 $586 1.5707963267948966 $499 $504 forward 7 unknown #
attrib_hh_coedge_geombuild-attrib_entity_geombuild-individual_entity_attribute-attrib_HH-attrib $-1 $-1 $-1 $398 F #
attrib_edge_convexity-kcp-attrib $-1 $595 $-1 $399 1 #
vertex $596 $500 $597 #
ellipse-curve $-1 15 25 10 0 0 -1 10 0 0 1 I I #
attrib_hh_vertex_geombuild-attrib_entity_geombuild-individual_entity_attribute-attrib_HH-attrib $-1 $-1 $-1 $402 F #
point $-1 5 25 -10 #
attrib_hh_vertex_geombuild-attrib_entity_geombuild-individual_entity_attribute-attrib_HH-attrib $-1 $-1 $-1 $403 F #
point $-1 5 25 10 #
convexity-sys-attrib $-1 $598 $409 $294 #
attrib_hh_edge_geombuild-attrib_entity_geombuild-individual_entity_attribute-attrib_HH-attrib $-1 $-1 $414 $185 F #
attrib_hh_coedge_geombuild-attrib_entity_geombuild-individual_entity_attribute-attrib_HH-attrib $-1 $-1 $-1 $420 F #
coedge $599 $422 $420 $582 $600 reversed $313 $-1 #
attrib_hh_coedge_geombuild-attrib_entity_geombuild-individual_entity_attribute-attrib_HH-attrib $-1 $-1 $-1 $422 F #
attrib_hh_coedge_geombuild-attrib_entity_geombuild-individual_entity_attribute-attrib_HH-attrib $-1 $-1 $-1 $424 F #
edge $601 $586 -15 $517 15 $424 $602 forward 7 unknown #
attrib_edge_convexity-kcp-attrib $-1 $603 $-1 $425 1 #
vertex $604 $515 $605 #
convexity-sys-attrib $-1 $606 $426 $318 #
attrib_hh_vertex_geombuild-attrib_entity_geombuild-individual_entity_attribute-attrib_HH-attrib $-1 $-1 $-1 $427 F #
point $-1 25 -25 10 #
attrib_hh_coedge_geombuild-attrib_entity_geombuild-individual_entity_attribute-attrib_HH-attrib $-1 $-1 $-1 $431 F #
edge $607 $524 -15 $587 15 $431 $608 forward 7 unknown #
attrib_hh_edge_geombuild-attrib_entity_geombuild-individual_entity_attribute-attrib_HH-attrib $-1 $-1 $-1 $432 F #
vertex $609 $600 $610 #
attrib_hh_vertex_geombuild-attrib_entity_geombuild-individual_entity_attribute-attrib_HH-attrib $-1 $-1 $-1 $434 F #
point $-1 25 -25 -10 #
attrib_hh_face_geombuild-attrib_entity_geombuild-individual_entity_attribute-attrib_HH-attrib $-1 $-1 $436 $329 F #
model_id-kcp-attrib $-1 $611 $-1 $437 1 1017637295 90 -1386610687 12 #
face $612 $613 $614 $8 $-1 $615 reversed single #
loop $-1 $-1 $616 $437 #
plane-surface $-1 0 -50 0 0 1 0 0 0 1 forward_v I I I I #
attrib_hh_coedge_geombuild-attrib_entity_geombuild-individual_entity_attribute-attrib_HH-attrib $-1 $-1 $-1 $440 F #
coedge $617 $441 $440 $618 $619 forward $214 $-1 #
coedge $620 $621 $616 $440 $535 reversed $530 $-1 #
edge $622 $545 -30 $623 30 $534 $624 forward 7 unknown #
attrib_hh_coedge_geombuild-attrib_entity_geombuild-individual_entity_attribute-attrib_HH-attrib $-1 $-1 $-1 $441 F #
coedge $625 $626 $627 $441 $538 reversed $628 $-1 #
edge $629 $630 -30 $544 30 $537 $631 forward 7 unknown #
attrib_hh_coedge_geombuild-attrib_entity_geombuild-individual_entity_attribute-attrib_HH-attrib $-1 $-1 $-1 $442 F #
coedge $632 $449 $442 $627 $633 reversed $542 $-1 #
coedge $634 $442 $449 $621 $635 forward $542 $-1 #
loop $-1 $-1 $541 $636 #
attrib_hh_edge_geombuild-attrib_entity_geombuild-individual_entity_attribute-attrib_HH-attrib $-1 $-1 $-1 $443 F #
vertex $637 $443 $638 #
vertex $639 $635 $640 #
straight-curve $-1 30 0 -10 0 -1 0 I I #
attrib_hh_edge_geombuild-attrib_entity_geombuild-individual_entity_attribute-attrib_HH-attrib $-1 $-1 $445 $219 F #
attrib_hh_coedge_geombuild-attrib_entity_geombuild-individual_entity_attribute-attrib_HH-attrib $-1 $-1 $-1 $447 F #
coedge $641 $448 $447 $642 $643 forward $220 $-1 #
coedge $644 $627 $626 $447 $551 reversed $628 $-1 #
edge $645 $558 -30 $646 30 $550 $647 forward 7 unknown #
attrib_hh_coedge_geombuild-attrib_entity_geombuild-individual_entity_attribute-attrib_HH-attrib $-1 $-1 $-1 $448 F #
coedge $648 $616 $621 $448 $554 reversed $530 $-1 #
edge $649 $650 -30 $557 30 $553 $651 forward 7 unknown #
attrib_hh_coedge_geombuild-attrib_entity_geombuild-individual_entity_attribute-attrib_HH-attrib $-1 $-1 $-1 $449 F #
attrib_edge_convexity-kcp-attrib $-1 $652 $-1 $450 1 #
vertex $653 $450 $654 #
vertex $655 $450 $656 #
straight-curve $-1 30 0 10 0 1 0 I I #
coedge $-1 $657 $457 $480 $579 reversed $357 $-1 #
coedge $-1 $457 $657 $458 $563 forward $357 $-1 #
coedge $-1 $459 $458 $658 $659 forward $253 $-1 #
edge $-1 $660 0 $564 20 $561 $661 forward 7 unknown #
vertex $-1 $563 $662 #
straight-curve $-1 0 25 -10 -1 0 0 I I #
coedge $-1 $658 $466 $462 $567 reversed $374 $-1 #
edge $-1 $568 -3.1415926535897931 $468 1.5707963267948966 $462 $663 forward 7 unknown #
vertex $-1 $659 $664 #
straight-curve $-1 5 25 10 0 0 -1 I I #
point $-1 5 25 -10 #
straight-curve $-1 15 0 10 0 -1 0 I I #
point $-1 15 15 10 #
coedge $-1 $473 $658 $657 $665 reversed $374 $-1 #
coedge $-1 $480 $474 $473 $575 forward $455 $-1 #
edge $-1 $476 -15 $666 15 $574 $667 forward 7 unknown #
straight-curve $-1 -15 -15 10 0 0 -1 I I #
point $-1 -15 -15 10 #
ellipse-curve $-1 -15 25 -10 0 0 1 10 0 0 1 I I #
edge $-1 $666 0 $481 20 $480 $668 forward 7 unknown #
point $-1 -15 15 -10 #
attrib_hh_coedge_geombuild-attrib_entity_geombuild-individual_entity_attribute-attrib_HH-attrib $-1 $-1 $-1 $487 F #
coedge $669 $488 $487 $512 $600 forward $282 $-1 #
attrib_hh_coedge_geombuild-attrib_entity_geombuild-individual_entity_attribute-attrib_HH-attrib $-1 $-1 $-1 $488 F #
attrib_hh_coedge_geombuild-attrib_entity_geombuild-individual_entity_attribute-attrib_HH-attrib $-1 $-1 $-1 $489 F #
attrib_hh_edge_geombuild-attrib_entity_geombuild-individual_entity_attribute-attrib_HH-attrib $-1 $-1 $-1 $490 F #
vertex $670 $490 $671 #
vertex $672 $522 $673 #
straight-curve $-1 15 15 0 0 0 -1 I I #
attrib_hh_coedge_geombuild-attrib_entity_geombuild-individual_entity_attribute-attrib_HH-attrib $-1 $-1 $-1 $492 F #
attrib_hh_edge_geombuild-attrib_entity_geombuild-individual_entity_attribute-attrib_HH-attrib $-1 $-1 $-1 $493 F #
attrib_hh_vertex_geombuild-attrib_entity_geombuild-individual_entity_attribute-attrib_HH-attrib $-1 $-1 $-1 $496 F #
point $-1 25 25 -10 #
attrib_hh_coedge_geombuild-attrib_entity_geombuild-individual_entity_attribute-attrib_HH-attrib $-1 $-1 $-1 $499 F #
attrib_edge_convexity-kcp-attrib $-1 $674 $-1 $500 1 #
convexity-sys-attrib $-1 $675 $502 $399 #
attrib_hh_vertex_geombuild-attrib_entity_geombuild-individual_entity_attribute-attrib_HH-attrib $-1 $-1 $-1 $503 F #
point $-1 25 25 10 #
attrib_hh_edge_geombuild-attrib_entity_geombuild-individual_entity_attribute-attrib_HH-attrib $-1 $-1 $509 $294 F #
attrib_hh_coedge_geombuild-attrib_entity_geombuild-individual_entity_attribute-attrib_HH-attrib $-1 $-1 $-1 $512 F #
edge $676 $524 -10 $517 10 $582 $677 forward 7 unknown #
attrib_edge_convexity-kcp-attrib $-1 $678 $-1 $515 1 #
straight-curve $-1 15 0 10 0 -1 0 I I #
convexity-sys-attrib $-1 $679 $516 $425 #
attrib_hh_vertex_geombuild-attrib_entity_geombuild-individual_entity_attribute-attrib_HH-attrib $-1 $-1 $-1 $517 F #
point $-1 15 -15 10 #
attrib_hh_edge_geombuild-attrib_entity_geombuild-individual_entity_attribute-attrib_HH-attrib $-1 $-1 $518 $318 F #
attrib_hh_edge_geombuild-attrib_entity_geombuild-individual_entity_attribute-attrib_HH-attrib $-1 $-1 $-1 $522 F #
straight-curve $-1 15 0 -10 0 1 0 I I #
attrib_hh_vertex_geombuild-attrib_entity_geombuild-individual_entity_attribute-attrib_HH-attrib $-1 $-1 $-1 $524 F #
point $-1 15 -15 -10 #
attrib_hh_face_geombuild-attrib_entity_geombuild-individual_entity_attribute-attrib_HH-attrib $-1 $-1 $528 $437 F #
model_id-kcp-attrib $-1 $680 $-1 $529 1 1017637295 90 -1386610687 13 #
face $681 $636 $628 $8 $-1 $682 reversed single #
loop $-1 $-1 $683 $529 #
plane-surface $-1 -30 0 0 1 0 0 0 0 -1 forward_v I I I I #
coedge $684 $534 $553 $685 $686 forward $530 $-1 #
attrib_hh_coedge_geombuild-attrib_entity_geombuild-individual_entity_attribute-attrib_HH-attrib $-1 $-1 $-1 $533 F #
coedge $687 $685 $683 $533 $619 reversed $614 $-1 #
edge $688 $623 -50 $630 50 $618 $689 forward 7 unknown #
attrib_hh_coedge_geombuild-attrib_entity_geombuild-individual_entity_attribute-attrib_HH-attrib $-1 $-1 $-1 $534 F #
coedge $690 $553 $534 $541 $635 reversed $530 $-1 #
attrib_edge_convexity-kcp-attrib $-1 $691 $-1 $535 1 #
vertex $692 $619 $693 #
straight-curve $-1 0 -50 -10 -1 0 0 I I #
attrib_hh_coedge_geombuild-attrib_entity_geombuild-individual_entity_attribute-attrib_HH-attrib $-1 $-1 $-1 $537 F #
coedge $694 $550 $537 $683 $695 reversed $628 $-1 #
coedge $696 $537 $550 $540 $633 forward $628 $-1 #
loop $-1 $-1 $627 $613 #
attrib_hh_edge_geombuild-attrib_entity_geombuild-individual_entity_attribute-attrib_HH-attrib $-1 $-1 $-1 $538 F #
vertex $697 $538 $698 #
straight-curve $-1 0 50 -10 1 0 0 I I #
attrib_hh_coedge_geombuild-attrib_entity_geombuild-individual_entity_attribute-attrib_HH-attrib $-1 $-1 $-1 $540 F #
edge $699 $558 -10 $544 10 $540 $700 forward 7 unknown #
attrib_hh_coedge_geombuild-attrib_entity_geombuild-individual_entity_attribute-attrib_HH-attrib $-1 $-1 $-1 $541 F #
edge $701 $557 -10 $545 10 $541 $702 forward 7 unknown #
face $703 $-1 $542 $8 $-1 $704 reversed single #
attrib_hh_vertex_geombuild-attrib_entity_geombuild-individual_entity_attribute-attrib_HH-attrib $-1 $-1 $-1 $544 F #
point $-1 30 50 -10 #
attrib_hh_vertex_geombuild-attrib_entity_geombuild-individual_entity_attribute-attrib_HH-attrib $-1 $-1 $-1 $545 F #
point $-1 30 -50 -10 #
attrib_hh_coedge_geombuild-attrib_entity_geombuild-individual_entity_attribute-attrib_HH-attrib $-1 $-1 $-1 $549 F #
coedge $705 $683 $685 $549 $643 reversed $614 $-1 #
edge $706 $646 -50 $650 50 $642 $707 forward 7 unknown #
attrib_hh_coedge_geombuild-attrib_entity_geombuild-individual_entity_attribute-attrib_HH-attrib $-1 $-1 $-1 $550 F #
attrib_edge_convexity-kcp-attrib $-1 $708 $-1 $551 1 #
vertex $709 $551 $710 #
straight-curve $-1 0 50 10 -1 0 0 I I #
attrib_hh_coedge_geombuild-attrib_entity_geombuild-individual_entity_attribute-attrib_HH-attrib $-1 $-1 $-1 $553 F #
attrib_edge_convexity-kcp-attrib $-1 $711 $-1 $554 1 #
vertex $712 $643 $713 #
straight-curve $-1 0 -50 10 1 0 0 I I #
convexity-sys-attrib $-1 $714 $556 $450 #
attrib_hh_vertex_geombuild-attrib_entity_geombuild-individual_entity_attribute-attrib_HH-attrib $-1 $-1 $-1 $557 F #
point $-1 30 -50 10 #
attrib_hh_vertex_geombuild-attrib_entity_geombuild-individual_entity_attribute-attrib_HH-attrib $-1 $-1 $-1 $558 F #
point $-1 30 50 10 #
coedge $-1 $561 $560 $573 $665 forward $357 $-1 #
coedge $-1 $573 $566 $562 $659 reversed $374 $-1 #
edge $-1 $660 -5 $568 5 $562 $715 forward 7 unknown #
vertex $-1 $665 $716 #
straight-curve $-1 -5 25 10 0 0 -1 I I #
point $-1 -5 25 -10 #
ellipse-curve $-1 15 25 10 0 0 -1 10 0 0 1 I I #
point $-1 5 25 10 #
edge $-1 $666 1.5707963267948966 $660 6.2831853071795862 $657 $717 forward 7 unknown #
vertex $-1 $575 $718 #
straight-curve $-1 -15 0 10 0 1 0 I I #
straight-curve $-1 -15 15 10 0 0 -1 I I #
attrib_hh_coedge_geombuild-attrib_entity_geombuild-individual_entity_attribute-attrib_HH-attrib $-1 $-1 $-1 $582 F #
attrib_hh_vertex_geombuild-attrib_entity_geombuild-individual_entity_attribute-attrib_HH-attrib $-1 $-1 $-1 $586 F #
point $-1 15 15 10 #
attrib_hh_vertex_geombuild-attrib_entity_geombuild-individual_entity_attribute-attrib_HH-attrib $-1 $-1 $-1 $587 F #
point $-1 15 15 -10 #
convexity-sys-attrib $-1 $719 $594 $500 #
attrib_hh_edge_geombuild-attrib_entity_geombuild-individual_entity_attribute-attrib_HH-attrib $-1 $-1 $595 $399 F #
attrib_hh_edge_geombuild-attrib_entity_geombuild-individual_entity_attribute-attrib_HH-attrib $-1 $-1 $-1 $600 F #
straight-curve $-1 15 -15 0 0 0 1 I I #
convexity-sys-attrib $-1 $720 $601 $515 #
attrib_hh_edge_geombuild-attrib_entity_geombuild-individual_entity_attribute-attrib_HH-attrib $-1 $-1 $603 $425 F #
attrib_hh_face_geombuild-attrib_entity_geombuild-individual_entity_attribute-attrib_HH-attrib $-1 $-1 $612 $529 F #
model_id-kcp-attrib $-1 $721 $-1 $613 1 1017637295 90 -1386610687 14 #
plane-surface $-1 0 50 0 0 -1 0 0 0 -1 forward_v I I I I #
coedge $722 $618 $642 $626 $695 forward $614 $-1 #
attrib_hh_coedge_geombuild-attrib_entity_geombuild-individual_entity_attribute-attrib_HH-attrib $-1 $-1 $-1 $616 F #
coedge $723 $642 $618 $616 $686 reversed $614 $-1 #
edge $724 $650 -10 $623 10 $685 $725 forward 7 unknown #
attrib_hh_coedge_geombuild-attrib_entity_geombuild-individual_entity_attribute-attrib_HH-attrib $-1 $-1 $-1 $618 F #
attrib_edge_convexity-kcp-attrib $-1 $726 $-1 $619 1 #
straight-curve $-1 -30 0 -10 0 1 0 I I #
attrib_hh_coedge_geombuild-attrib_entity_geombuild-individual_entity_attribute-attrib_HH-attrib $-1 $-1 $-1 $621 F #
convexity-sys-attrib $-1 $727 $622 $535 #
attrib_hh_vertex_geombuild-attrib_entity_geombuild-individual_entity_attribute-attrib_HH-attrib $-1 $-1 $-1 $623 F #
point $-1 -30 -50 -10 #
attrib_hh_coedge_geombuild-attrib_entity_geombuild-individual_entity_attribute-attrib_HH-attrib $-1 $-1 $-1 $626 F #
edge $728 $646 -10 $630 10 $626 $729 forward 7 unknown #
attrib_hh_coedge_geombuild-attrib_entity_geombuild-individual_entity_attribute-attrib_HH-attrib $-1 $-1 $-1 $627 F #
attrib_hh_vertex_geombuild-attrib_entity_geombuild-individual_entity_attribute-attrib_HH-attrib $-1 $-1 $-1 $630 F #
point $-1 -30 50 -10 #
attrib_hh_edge_geombuild-attrib_entity_geombuild-individual_entity_attribute-attrib_HH-attrib $-1 $-1 $-1 $633 F #
straight-curve $-1 30 50 0 0 0 -1 I I #
attrib_edge_convexity-kcp-attrib $-1 $730 $-1 $635 1 #
straight-curve $-1 30 -50 0 0 0 -1 I I #
model_id-kcp-attrib $-1 $731 $-1 $636 1 1017637295 90 -1386610687 15 #
plane-surface $-1 30 0 0 -1 0 0 0 0 1 forward_v I I I I #
attrib_hh_coedge_geombuild-attrib_entity_geombuild-individual_entity_attribute-attrib_HH-attrib $-1 $-1 $-1 $642 F #
attrib_edge_convexity-kcp-attrib $-1 $732 $-1 $643 1 #
straight-curve $-1 -30 0 10 0 -1 0 I I #
convexity-sys-attrib $-1 $733 $645 $551 #
attrib_hh_vertex_geombuild-attrib_entity_geombuild-individual_entity_attribute-attrib_HH-attrib $-1 $-1 $-1 $646 F #
point $-1 -30 50 10 #
convexity-sys-attrib $-1 $734 $649 $554 #
attrib_hh_vertex_geombuild-attrib_entity_geombuild-individual_entity_attribute-attrib_HH-attrib $-1 $-1 $-1 $650 F #
point $-1 -30 -50 10 #
attrib_hh_edge_geombuild-attrib_entity_geombuild-individual_entity_attribute-attrib_HH-attrib $-1 $-1 $652 $450 F #
straight-curve $-1 0 25 10 1 0 0 I I #
point $-1 -5 25 10 #
ellipse-curve $-1 -15 25 10 0 0 -1 10 0 0 1 I I #
point $-1 -15 15 10 #
attrib_hh_edge_geombuild-attrib_entity_geombuild-individual_entity_attribute-attrib_HH-attrib $-1 $-1 $674 $500 F #
attrib_hh_edge_geombuild-attrib_entity_geombuild-individual_entity_attribute-attrib_HH-attrib $-1 $-1 $678 $515 F #
attrib_hh_face_geombuild-attrib_entity_geombuild-individual_entity_attribute-attrib_HH-attrib $-1 $-1 $681 $613 F #
attrib_hh_coedge_geombuild-attrib_entity_geombuild-individual_entity_attribute-attrib_HH-attrib $-1 $-1 $-1 $683 F #
attrib_hh_coedge_geombuild-attrib_entity_geombuild-individual_entity_attribute-attrib_HH-attrib $-1 $-1 $-1 $685 F #
attrib_edge_convexity-kcp-attrib $-1 $735 $-1 $686 1 #
straight-curve $-1 -30 -50 0 0 0 -1 I I #
convexity-sys-attrib $-1 $736 $688 $619 #
attrib_hh_edge_geombuild-attrib_entity_geombuild-individual_entity_attribute-attrib_HH-attrib $-1 $-1 $691 $535 F #
attrib_edge_convexity-kcp-attrib $-1 $737 $-1 $695 1 #
straight-curve $-1 -30 50 0 0 0 -1 I I #
convexity-sys-attrib $-1 $738 $701 $635 #
attrib_hh_face_geombuild-attrib_entity_geombuild-individual_entity_attribute-attrib_HH-attrib $-1 $-1 $703 $636 F #
convexity-sys-attrib $-1 $739 $706 $643 #
attrib_hh_edge_geombuild-attrib_entity_geombuild-individual_entity_attribute-attrib_HH-attrib $-1 $-1 $708 $551 F #
attrib_hh_edge_geombuild-attrib_entity_geombuild-individual_entity_attribute-attrib_HH-attrib $-1 $-1 $711 $554 F #
convexity-sys-attrib $-1 $740 $724 $686 #
attrib_hh_edge_geombuild-attrib_entity_geombuild-individual_entity_attribute-attrib_HH-attrib $-1 $-1 $726 $619 F #
convexity-sys-attrib $-1 $741 $728 $695 #
attrib_hh_edge_geombuild-attrib_entity_geombuild-individual_entity_attribute-attrib_HH-attrib $-1 $-1 $730 $635 F #
attrib_hh_edge_geombuild-attrib_entity_geombuild-individual_entity_attribute-attrib_HH-attrib $-1 $-1 $732 $643 F #
attrib_hh_edge_geombuild-attrib_entity_geombuild-individual_entity_attribute-attrib_HH-attrib $-1 $-1 $735 $686 F #
attrib_hh_edge_geombuild-attrib_entity_geombuild-individual_entity_attribute-attrib_HH-attrib $-1 $-1 $737 $695 F #
End-of-ACIS-data 