600 0 2 0           
24 FBMach with ACIS - 6.0.3 13 ACIS 6.0.3 NT 24 Tue May 22 12:27:35 2001 
1 9.9999999999999995e-007 1e-010 
body $2 $3 $-1 $4 #
bdycol-kcp $-1 1 2 $5 $6 #
model_id-kcp-attrib $-1 $-1 $-1 $0 1 990548855 50 624033793 1 #
lump $-1 $-1 $7 $0 #
transform $-1 1 0 0 0 1 0 0 0 1 0 0 0 1 no_rotate no_reflect no_shear #
body $8 $9 $-1 $10 #
body $11 $12 $-1 $13 #
shell $-1 $-1 $-1 $14 $-1 $3 #
model_id-kcp-attrib $-1 $-1 $-1 $5 1 990548855 50 624033794 1 #
lump $-1 $-1 $15 $5 #
transform $-1 1 0 0 0 1 0 0 0 1 0 0 0 1 no_rotate no_reflect no_shear #
rgb_color-st-attrib $-1 $16 $-1 $6 0.5 1 1 #
lump $-1 $-1 $17 $6 #
transform $-1 1 0 0 0 1 0 0 0 1 0 0 0 1 no_rotate no_reflect no_shear #
face $18 $19 $20 $7 $-1 $21 reversed single #
shell $-1 $-1 $-1 $22 $-1 $9 #
model_id-kcp-attrib $-1 $-1 $11 $6 1 990548855 300 623640579 1 #
shell $-1 $-1 $-1 $23 $-1 $12 #
model_id-kcp-attrib $-1 $-1 $-1 $14 1 990548855 50 624033793 2 #
face $24 $25 $26 $7 $-1 $27 forward single #
loop $-1 $-1 $28 $14 #
cone-surface $-1 -15 -25 0 0 0 1 10 0 0 1 I I 0 1 10 forward I I I I #
face $29 $30 $31 $15 $-1 $32 forward single #
face $-1 $33 $34 $17 $-1 $35 forward single #
model_id-kcp-attrib $-1 $-1 $-1 $19 1 990548855 50 624033793 3 #
face $36 $37 $38 $7 $-1 $39 reversed single #
loop $-1 $-1 $40 $19 #
plane-surface $-1 0 -25 0 0 1 0 0 0 1 forward_v I I I I #
coedge $-1 $41 $42 $40 $43 reversed $20 $-1 #
model_id-kcp-attrib $-1 $-1 $-1 $22 1 990548855 50 624033794 2 #
face $44 $45 $46 $15 $-1 $47 reversed single #
loop $-1 $-1 $48 $22 #
plane-surface $-1 0 0 10 0 0 1 1 0 0 forward_v I I I I #
face $-1 $49 $50 $17 $-1 $51 forward single #
loop $-1 $-1 $52 $23 #
plane-surface $-1 -5 -25 10 0 -1 0 0 0 -1 forward_v I I I I #
model_id-kcp-attrib $-1 $-1 $-1 $25 1 990548855 50 624033793 4 #
face $53 $54 $55 $7 $-1 $56 forward single #
loop $-1 $-1 $57 $25 #
cone-surface $-1 -15 25 0 0 0 1 10 0 0 1 I I 0 1 10 forward I I I I #
coedge $-1 $58 $59 $28 $43 forward $26 $-1 #
coedge $-1 $60 $28 $61 $62 reversed $20 $-1 #
coedge $-1 $28 $60 $63 $64 reversed $20 $-1 #
edge $-1 $65 -10 $66 10 $40 $67 forward 7 unknown #
model_id-kcp-attrib $-1 $-1 $-1 $30 1 990548855 50 624033794 3 #
face $68 $69 $70 $15 $-1 $71 reversed single #
loop $-1 $-1 $72 $30 #
plane-surface $-1 0 0 -10 0 0 1 1 0 0 forward_v I I I I #
coedge $-1 $73 $74 $75 $76 forward $31 $-1 #
face $-1 $77 $78 $17 $-1 $79 forward single #
loop $-1 $-1 $80 $33 #
cone-surface $-1 15 -25 10 0 0 -1 10 0 0 1 I I 0 1 10 forward I I I I #
coedge $-1 $81 $82 $83 $84 forward $34 $-1 #
model_id-kcp-attrib $-1 $-1 $-1 $37 1 990548855 50 624033793 5 #
face $85 $86 $87 $7 $-1 $88 reversed single #
loop $-1 $-1 $89 $37 #
plane-surface $-1 0 25 0 0 -1 0 0 0 -1 forward_v I I I I #
coedge $-1 $90 $91 $89 $92 reversed $38 $-1 #
coedge $-1 $93 $40 $94 $95 reversed $26 $-1 #
coedge $-1 $40 $93 $96 $97 reversed $26 $-1 #
coedge $-1 $42 $41 $98 $99 reversed $20 $-1 #
coedge $-1 $96 $100 $41 $62 forward $101 $-1 #
edge $-1 $102 1.5707963267948966 $65 6.2831853071795862 $61 $103 forward 7 unknown #
coedge $-1 $104 $94 $42 $64 forward $105 $-1 #
edge $106 $66 0 $107 4.7123889803846897 $63 $108 forward 7 unknown #
vertex $-1 $43 $109 #
vertex $-1 $95 $110 #
straight-curve $-1 -5 -25 0 0 0 1 I I #
model_id-kcp-attrib $-1 $-1 $-1 $45 1 990548855 50 624033794 4 #
face $111 $112 $113 $15 $-1 $114 reversed single #
loop $-1 $-1 $115 $45 #
plane-surface $-1 0 -50 0 0 1 0 0 0 1 forward_v I I I I #
coedge $-1 $116 $117 $118 $119 forward $46 $-1 #
coedge $-1 $120 $48 $121 $122 forward $31 $-1 #
coedge $-1 $48 $120 $123 $124 forward $31 $-1 #
coedge $-1 $125 $126 $48 $76 reversed $127 $-1 #
edge $-1 $128 -50 $129 50 $75 $130 forward 7 unknown #
face $-1 $131 $132 $17 $-1 $133 forward single #
loop $-1 $-1 $134 $49 #
plane-surface $-1 15 -15 10 1 0 0 0 0 -1 forward_v I I I I #
coedge $-1 $135 $136 $137 $138 forward $50 $-1 #
coedge $-1 $139 $52 $136 $140 reversed $34 $-1 #
coedge $-1 $52 $139 $141 $142 forward $34 $-1 #
coedge $-1 $143 $137 $52 $84 reversed $144 $-1 #
edge $-1 $145 -5 $146 5 $52 $147 forward 7 unknown #
model_id-kcp-attrib $-1 $-1 $-1 $54 1 990548855 50 624033793 6 #
face $148 $149 $105 $7 $-1 $150 forward single #
loop $-1 $-1 $151 $54 #
cone-surface $-1 15 25 0 0 0 1 10 0 0 1 I I 0 1 10 forward I I I I #
coedge $-1 $152 $153 $57 $92 forward $55 $-1 #
coedge $-1 $154 $57 $155 $156 reversed $38 $-1 #
coedge $-1 $57 $154 $157 $158 reversed $38 $-1 #
edge $-1 $159 -10 $160 10 $89 $161 forward 7 unknown #
coedge $-1 $59 $58 $162 $163 forward $26 $-1 #
coedge $-1 $63 $164 $58 $95 forward $105 $-1 #
edge $165 $166 -5 $66 5 $94 $167 forward 7 unknown #
coedge $-1 $168 $61 $59 $97 forward $101 $-1 #
edge $-1 $65 -5 $169 5 $96 $170 forward 7 unknown #
coedge $-1 $171 $172 $60 $99 forward $173 $-1 #
edge $-1 $107 -10 $102 10 $98 $174 forward 7 unknown #
coedge $-1 $61 $157 $171 $175 forward $101 $-1 #
loop $-1 $176 $61 $177 #
vertex $-1 $175 $178 #
ellipse-curve $-1 -15 -25 -10 0 0 1 10 0 0 1 I I #
coedge $-1 $155 $63 $172 $179 forward $105 $-1 #
loop $-1 $180 $63 $86 #
attrib_edge_convexity-kcp-attrib $-1 $181 $-1 $64 1 #
vertex $-1 $64 $182 #
ellipse-curve $-1 -15 -25 10 0 0 -1 10 0 0 1 I I #
point $-1 -5 -25 -10 #
point $-1 -5 -25 10 #
model_id-kcp-attrib $-1 $-1 $-1 $69 1 990548855 50 624033794 5 #
face $183 $184 $185 $15 $-1 $186 reversed single #
loop $-1 $-1 $187 $69 #
plane-surface $-1 -30 0 0 1 0 0 0 0 -1 forward_v I I I I #
coedge $-1 $188 $123 $189 $190 forward $70 $-1 #
coedge $-1 $191 $72 $188 $192 forward $46 $-1 #
coedge $-1 $72 $191 $193 $194 forward $46 $-1 #
coedge $-1 $126 $125 $72 $119 reversed $127 $-1 #
edge $-1 $195 -50 $196 50 $118 $197 forward 7 unknown #
coedge $-1 $74 $73 $198 $199 forward $31 $-1 #
coedge $-1 $200 $201 $73 $122 reversed $185 $-1 #
edge $-1 $129 -30 $202 30 $121 $203 forward 7 unknown #
coedge $-1 $115 $204 $74 $124 reversed $70 $-1 #
edge $-1 $205 -30 $128 30 $123 $206 forward 7 unknown #
coedge $-1 $118 $75 $204 $207 forward $127 $-1 #
coedge $-1 $75 $118 $200 $208 reversed $127 $-1 #
loop $-1 $-1 $125 $184 #
vertex $-1 $76 $209 #
vertex $-1 $76 $210 #
straight-curve $-1 30 0 10 0 1 0 I I #
face $-1 $211 $212 $17 $-1 $213 forward single #
loop $-1 $-1 $214 $77 #
cone-surface $-1 15 25 10 0 0 -1 10 0 0 1 I I 0 1 10 forward I I I I #
coedge $-1 $215 $216 $217 $218 forward $78 $-1 #
coedge $-1 $219 $80 $216 $220 reversed $50 $-1 #
coedge $-1 $80 $219 $81 $140 forward $50 $-1 #
coedge $-1 $83 $217 $80 $138 reversed $144 $-1 #
edge $-1 $146 -3.1415926535897931 $221 1.5707963267948966 $80 $222 forward 7 unknown #
coedge $-1 $82 $81 $223 $224 forward $34 $-1 #
edge $-1 $225 0 $146 20 $136 $226 forward 7 unknown #
coedge $-1 $227 $228 $82 $142 reversed $229 $-1 #
edge $-1 $230 0 $145 20 $82 $231 forward 7 unknown #
coedge $-1 $232 $83 $228 $233 reversed $144 $-1 #
loop $-1 $-1 $83 $234 #
vertex $-1 $142 $235 #
vertex $-1 $140 $236 #
straight-curve $-1 0 -25 -10 1 0 0 I I #
model_id-kcp-attrib $-1 $-1 $-1 $86 1 990548855 50 624033793 7 #
face $237 $238 $239 $7 $-1 $240 forward single #
plane-surface $-1 0 0 10 0 0 1 1 0 0 forward_v I I I I #
coedge $-1 $241 $242 $243 $244 reversed $87 $-1 #
coedge $-1 $243 $89 $245 $246 reversed $55 $-1 #
coedge $-1 $89 $243 $247 $248 reversed $55 $-1 #
coedge $-1 $91 $90 $249 $250 reversed $38 $-1 #
coedge $-1 $247 $104 $90 $156 forward $105 $-1 #
edge $251 $252 1.5707963267948966 $159 6.2831853071795862 $155 $253 forward 7 unknown #
coedge $-1 $100 $245 $91 $158 forward $101 $-1 #
edge $-1 $160 0 $254 4.7123889803846897 $157 $255 forward 7 unknown #
vertex $-1 $92 $256 #
vertex $-1 $246 $257 #
straight-curve $-1 -5 25 0 0 0 -1 I I #
coedge $-1 $258 $259 $93 $163 reversed $260 $-1 #
edge $-1 $166 -10 $169 10 $93 $261 forward 7 unknown #
coedge $-1 $94 $262 $258 $263 forward $105 $-1 #
attrib_edge_convexity-kcp-attrib $-1 $264 $-1 $95 1 #
vertex $-1 $263 $265 #
straight-curve $-1 0 -25 10 -1 0 0 I I #
coedge $-1 $266 $96 $259 $267 forward $101 $-1 #
vertex $-1 $97 $268 #
straight-curve $-1 0 -25 -10 1 0 0 I I #
coedge $-1 $249 $98 $100 $175 reversed $173 $-1 #
coedge $-1 $98 $249 $104 $179 reversed $173 $-1 #
loop $-1 $-1 $98 $269 #
straight-curve $-1 -15 -15 0 0 0 -1 I I #
edge $-1 $254 -15 $102 15 $100 $270 forward 7 unknown #
loop $-1 $-1 $271 $177 #
face $272 $269 $101 $7 $-1 $273 reversed single #
point $-1 -15 -15 -10 #
edge $274 $107 -15 $252 15 $104 $275 forward 7 unknown #
loop $-1 $-1 $276 $86 #
convexity-sys-attrib $-1 $-1 $106 $64 #
point $-1 -15 -15 10 #
model_id-kcp-attrib $-1 $-1 $-1 $112 1 990548855 50 624033794 6 #
face $277 $-1 $127 $15 $-1 $278 reversed single #
loop $-1 $-1 $200 $112 #
plane-surface $-1 0 50 0 0 -1 0 0 0 -1 forward_v I I I I #
coedge $-1 $279 $198 $201 $280 forward $113 $-1 #
coedge $-1 $204 $115 $116 $192 reversed $70 $-1 #
coedge $-1 $198 $279 $115 $190 reversed $113 $-1 #
edge $-1 $205 -10 $281 10 $189 $282 forward 7 unknown #
coedge $-1 $117 $116 $279 $283 forward $46 $-1 #
edge $-1 $196 -30 $281 30 $188 $284 forward 7 unknown #
coedge $-1 $201 $200 $117 $194 reversed $185 $-1 #
edge $-1 $285 -30 $195 30 $193 $286 forward 7 unknown #
vertex $-1 $119 $287 #
vertex $-1 $207 $288 #
straight-curve $-1 30 0 -10 0 -1 0 I I #
coedge $-1 $187 $189 $120 $199 reversed $113 $-1 #
edge $-1 $202 -50 $205 50 $198 $289 forward 7 unknown #
coedge $-1 $193 $121 $126 $208 forward $185 $-1 #
coedge $-1 $121 $193 $187 $280 reversed $185 $-1 #
vertex $-1 $122 $290 #
straight-curve $-1 0 50 10 -1 0 0 I I #
coedge $-1 $123 $188 $125 $207 reversed $70 $-1 #
vertex $-1 $199 $291 #
straight-curve $-1 0 -50 10 1 0 0 I I #
edge $-1 $128 -10 $196 10 $125 $292 forward 7 unknown #
edge $-1 $129 -10 $195 10 $126 $293 forward 7 unknown #
point $-1 30 -50 10 #
point $-1 30 50 10 #
face $-1 $294 $295 $17 $-1 $296 forward single #
loop $-1 $-1 $297 $131 #
plane-surface $-1 5 25 10 0 1 0 0 0 1 forward_v I I I I #
coedge $-1 $298 $299 $300 $301 forward $132 $-1 #
coedge $-1 $302 $134 $299 $303 reversed $78 $-1 #
coedge $-1 $134 $302 $135 $220 forward $78 $-1 #
coedge $-1 $137 $300 $134 $218 reversed $144 $-1 #
edge $-1 $221 -15 $304 15 $134 $305 forward 7 unknown #
coedge $-1 $136 $135 $306 $307 forward $50 $-1 #
edge $-1 $308 0 $221 20 $216 $309 forward 7 unknown #
vertex $-1 $220 $310 #
ellipse-curve $-1 15 -25 -10 0 0 1 10 0 0 1 I I #
coedge $-1 $306 $311 $139 $224 reversed $312 $-1 #
edge $-1 $225 -5 $230 5 $139 $313 forward 7 unknown #
vertex $-1 $307 $314 #
straight-curve $-1 5 -25 10 0 0 -1 I I #
coedge $-1 $315 $141 $311 $316 forward $229 $-1 #
coedge $-1 $141 $315 $143 $233 forward $229 $-1 #
loop $-1 $-1 $228 $317 #
vertex $-1 $316 $318 #
straight-curve $-1 -5 -25 10 0 0 -1 I I #
coedge $-1 $319 $143 $320 $321 reversed $144 $-1 #
edge $-1 $322 1.5707963267948966 $145 6.2831853071795862 $228 $323 forward 7 unknown #
face $-1 $324 $144 $17 $-1 $325 reversed single #
point $-1 -5 -25 -10 #
point $-1 5 -25 -10 #
model_id-kcp-attrib $-1 $-1 $-1 $149 1 990548855 50 624033793 8 #
face $326 $177 $260 $7 $-1 $327 reversed single #
loop $-1 $-1 $328 $149 #
plane-surface $-1 15 0 0 -1 0 0 0 0 1 forward_v I I I I #
coedge $-1 $329 $151 $330 $331 reversed $87 $-1 #
coedge $-1 $151 $332 $333 $334 reversed $87 $-1 #
coedge $-1 $153 $152 $151 $244 forward $55 $-1 #
edge $-1 $335 -10 $336 10 $243 $337 forward 7 unknown #
coedge $-1 $157 $330 $152 $246 forward $101 $-1 #
edge $-1 $335 -5 $160 5 $245 $338 forward 7 unknown #
coedge $-1 $333 $155 $153 $248 forward $105 $-1 #
edge $339 $159 -5 $336 5 $247 $340 forward 7 unknown #
coedge $-1 $172 $171 $154 $250 forward $173 $-1 #
edge $-1 $254 -10 $252 10 $249 $341 forward 7 unknown #
attrib_edge_convexity-kcp-attrib $-1 $342 $-1 $156 1 #
vertex $-1 $179 $343 #
ellipse-curve $-1 -15 25 10 0 0 -1 10 0 0 1 I I #
vertex $-1 $158 $344 #
ellipse-curve $-1 -15 25 -10 0 0 1 10 0 0 1 I I #
point $-1 -5 25 10 #
point $-1 -5 25 -10 #
coedge $-1 $345 $162 $164 $263 reversed $260 $-1 #
coedge $-1 $162 $346 $168 $267 reversed $260 $-1 #
loop $-1 $-1 $162 $238 #
straight-curve $-1 5 -25 0 0 0 -1 I I #
coedge $-1 $164 $347 $345 $348 forward $105 $-1 #
edge $349 $350 0 $166 3.1415926535897931 $164 $351 forward 7 unknown #
convexity-sys-attrib $-1 $-1 $165 $95 #
point $-1 5 -25 10 #
coedge $-1 $352 $168 $346 $353 forward $101 $-1 #
edge $-1 $169 -3.1415926535897931 $354 0 $168 $355 forward 7 unknown #
point $-1 5 -25 -10 #
face $356 $357 $173 $7 $-1 $358 forward single #
straight-curve $-1 -15 0 -10 0 -1 0 I I #
coedge $-1 $359 $360 $361 $362 forward $176 $-1 #
model_id-kcp-attrib $-1 $-1 $-1 $177 1 990548855 50 624033793 10 #
plane-surface $-1 0 0 -10 0 0 1 1 0 0 forward_v I I I I #
attrib_edge_convexity-kcp-attrib $-1 $363 $-1 $179 1 #
straight-curve $-1 -15 0 10 0 1 0 I I #
coedge $-1 $364 $365 $366 $367 forward $180 $-1 #
model_id-kcp-attrib $-1 $-1 $-1 $184 1 990548855 50 624033794 7 #
plane-surface $-1 30 0 0 -1 0 0 0 0 1 forward_v I I I I #
coedge $-1 $189 $187 $191 $283 reversed $113 $-1 #
edge $-1 $202 -10 $285 10 $201 $368 forward 7 unknown #
vertex $-1 $283 $369 #
straight-curve $-1 -30 -50 0 0 0 -1 I I #
edge $-1 $281 -50 $285 50 $279 $370 forward 7 unknown #
straight-curve $-1 0 -50 -10 -1 0 0 I I #
vertex $-1 $194 $371 #
straight-curve $-1 0 50 -10 1 0 0 I I #
point $-1 30 50 -10 #
point $-1 30 -50 -10 #
straight-curve $-1 -30 0 10 0 -1 0 I I #
point $-1 -30 50 10 #
point $-1 -30 -50 10 #
straight-curve $-1 30 -50 0 0 0 -1 I I #
straight-curve $-1 30 50 0 0 0 -1 I I #
face $-1 $317 $372 $17 $-1 $373 forward single #
loop $-1 $-1 $374 $211 #
cone-surface $-1 -15 25 10 0 0 -1 10 0 0 1 I I 0 1 10 forward I I I I #
coedge $-1 $375 $376 $377 $378 forward $212 $-1 #
coedge $-1 $379 $214 $376 $380 reversed $132 $-1 #
coedge $-1 $214 $379 $215 $303 forward $132 $-1 #
coedge $-1 $217 $377 $214 $301 reversed $144 $-1 #
edge $-1 $304 -1.5707963267948966 $381 3.1415926535897931 $214 $382 forward 7 unknown #
coedge $-1 $216 $215 $383 $384 forward $78 $-1 #
edge $-1 $385 0 $304 20 $299 $386 forward 7 unknown #
vertex $-1 $303 $387 #
straight-curve $-1 15 0 -10 0 1 0 I I #
coedge $-1 $383 $223 $219 $307 reversed $312 $-1 #
edge $-1 $308 -1.5707963267948966 $225 3.1415926535897931 $219 $388 forward 7 unknown #
vertex $-1 $384 $389 #
straight-curve $-1 15 -15 10 0 0 -1 I I #
point $-1 15 -15 -10 #
coedge $-1 $223 $390 $227 $316 reversed $312 $-1 #
loop $-1 $-1 $311 $324 #
straight-curve $-1 0 -25 10 -1 0 0 I I #
point $-1 5 -25 10 #
coedge $-1 $228 $227 $391 $392 forward $229 $-1 #
edge $-1 $230 0 $393 4.7123889803846897 $227 $394 forward 7 unknown #
face $-1 $234 $229 $17 $-1 $395 forward single #
point $-1 -5 -25 10 #
coedge $-1 $377 $232 $374 $396 reversed $144 $-1 #
coedge $-1 $391 $397 $232 $321 forward $372 $-1 #
edge $-1 $398 -15 $322 15 $320 $399 forward 7 unknown #
vertex $-1 $392 $400 #
ellipse-curve $-1 -15 -25 -10 0 0 1 10 0 0 1 I I #
face $-1 $-1 $312 $17 $-1 $401 forward single #
plane-surface $-1 0.22392556906274352 6.6613381477509392e-016 -9.9999999999999982 0 0 1 1 0 0 forward_v I I I I #
model_id-kcp-attrib $-1 $-1 $-1 $238 1 990548855 50 624033793 9 #
cone-surface $-1 15 -25 0 0 0 1 10 0 0 1 I I 0 1 10 forward I I I I #
coedge $-1 $402 $403 $404 $405 forward $239 $-1 #
coedge $-1 $404 $241 $406 $407 reversed $87 $-1 #
coedge $-1 $245 $406 $241 $331 forward $101 $-1 #
edge $-1 $408 0 $335 3.1415926535897931 $330 $409 forward 7 unknown #
coedge $-1 $242 $404 $410 $411 reversed $87 $-1 #
coedge $-1 $410 $247 $242 $334 forward $105 $-1 #
edge $412 $336 -3.1415926535897931 $413 0 $333 $414 forward 7 unknown #
vertex $-1 $331 $415 #
vertex $-1 $248 $416 #
straight-curve $-1 5 25 0 0 0 1 I I #
straight-curve $-1 0 25 -10 -1 0 0 I I #
attrib_edge_convexity-kcp-attrib $-1 $417 $-1 $248 1 #
straight-curve $-1 0 25 10 1 0 0 I I #
straight-curve $-1 -15 15 0 0 0 1 I I #
convexity-sys-attrib $-1 $-1 $251 $156 #
point $-1 -15 15 10 #
point $-1 -15 15 -10 #
coedge $-1 $418 $258 $262 $348 reversed $260 $-1 #
coedge $-1 $259 $418 $266 $353 reversed $260 $-1 #
coedge $-1 $262 $410 $403 $419 forward $105 $-1 #
edge $420 $421 -1.5707963267948966 $350 0 $262 $351 forward 7 unknown #
attrib_edge_convexity-kcp-attrib $-1 $422 $-1 $263 1 #
vertex $-1 $348 $423 #
ellipse-curve $-1 15 -25 10 0 0 -1 10 0 0 1 I I #
coedge $-1 $406 $266 $402 $424 forward $101 $-1 #
edge $-1 $354 0 $425 1.5707963267948966 $266 $355 forward 7 unknown #
vertex $-1 $353 $426 #
ellipse-curve $-1 15 -25 -10 0 0 1 10 0 0 1 I I #
model_id-kcp-attrib $-1 $-1 $-1 $269 1 990548855 50 624033793 11 #
face $427 $428 $429 $7 $-1 $430 reversed single #
plane-surface $-1 -15 0 0 1 0 0 0 0 -1 forward_v I I I I #
coedge $-1 $431 $271 $432 $433 forward $176 $-1 #
coedge $-1 $271 $431 $434 $435 forward $176 $-1 #
coedge $-1 $436 $437 $271 $362 reversed $438 $-1 #
edge $-1 $439 -50 $440 50 $361 $441 forward 7 unknown #
convexity-sys-attrib $-1 $-1 $274 $179 #
coedge $-1 $442 $276 $443 $444 forward $180 $-1 #
coedge $-1 $276 $442 $445 $446 forward $180 $-1 #
coedge $-1 $437 $436 $276 $367 reversed $438 $-1 #
edge $447 $448 -50 $449 50 $366 $450 forward 7 unknown #
straight-curve $-1 -30 50 0 0 0 -1 I I #
point $-1 -30 -50 -10 #
straight-curve $-1 -30 0 -10 0 1 0 I I #
point $-1 -30 50 -10 #
loop $-1 $-1 $320 $294 #
plane-surface $-1 -15 15 10 -1 0 0 0 0 1 forward_v I I I I #
coedge $-1 $451 $452 $319 $396 forward $295 $-1 #
coedge $-1 $453 $297 $452 $454 reversed $212 $-1 #
coedge $-1 $297 $453 $298 $380 forward $212 $-1 #
coedge $-1 $300 $319 $297 $378 reversed $144 $-1 #
edge $-1 $381 -5 $455 5 $297 $456 forward 7 unknown #
coedge $-1 $299 $298 $457 $458 forward $132 $-1 #
edge $-1 $459 0 $381 20 $376 $460 forward 7 unknown #
vertex $-1 $380 $461 #
ellipse-curve $-1 15 25 -10 0 0 1 10 0 0 1 I I #
coedge $-1 $457 $306 $302 $384 reversed $312 $-1 #
edge $-1 $385 -15 $308 15 $302 $462 forward 7 unknown #
vertex $-1 $458 $463 #
straight-curve $-1 15 15 10 0 0 -1 I I #
point $-1 15 15 -10 #
ellipse-curve $-1 15 -25 10 0 0 -1 10 0 0 1 I I #
point $-1 15 -15 10 #
coedge $-1 $311 $464 $465 $466 reversed $312 $-1 #
coedge $-1 $465 $320 $315 $392 reversed $372 $-1 #
edge $-1 $393 0 $322 20 $315 $467 forward 7 unknown #
vertex $-1 $316 $468 #
ellipse-curve $-1 -15 -25 10 0 0 -1 10 0 0 1 I I #
cone-surface $-1 -15 -25 10 0 0 -1 10 0 0 1 I I 0 1 10 forward I I I I #
edge $-1 $455 0 $398 4.7123889803846897 $374 $469 forward 7 unknown #
coedge $-1 $320 $465 $451 $470 forward $372 $-1 #
vertex $-1 $470 $471 #
straight-curve $-1 -15 0 -10 0 -1 0 I I #
point $-1 -15 -15 -10 #
plane-surface $-1 0.22392556906274352 6.6613381477509392e-016 10.000000000000002 0 0 1 1 0 0 forward_v I I I I #
coedge $-1 $472 $328 $352 $424 reversed $239 $-1 #
coedge $-1 $328 $472 $347 $419 reversed $239 $-1 #
coedge $-1 $332 $329 $328 $405 reversed $87 $-1 #
edge $-1 $473 -10 $474 10 $328 $475 forward 7 unknown #
coedge $-1 $330 $352 $329 $407 forward $101 $-1 #
edge $-1 $474 -1.5707963267948966 $408 0 $406 $409 forward 7 unknown #
vertex $-1 $407 $476 #
ellipse-curve $-1 15 25 -10 0 0 1 10 0 0 1 I I #
coedge $-1 $347 $333 $332 $411 forward $105 $-1 #
edge $477 $413 0 $473 1.5707963267948966 $410 $414 forward 7 unknown #
attrib_edge_convexity-kcp-attrib $-1 $478 $-1 $334 1 #
vertex $-1 $411 $479 #
ellipse-curve $-1 15 25 10 0 0 -1 10 0 0 1 I I #
point $-1 5 25 -10 #
point $-1 5 25 10 #
convexity-sys-attrib $-1 $-1 $339 $248 #
coedge $-1 $346 $345 $472 $480 reversed $260 $-1 #
edge $481 $473 -15 $421 15 $347 $482 forward 7 unknown #
attrib_edge_convexity-kcp-attrib $-1 $483 $-1 $348 1 #
vertex $-1 $419 $484 #
convexity-sys-attrib $-1 $-1 $349 $263 #
point $-1 25 -25 10 #
edge $-1 $425 -15 $474 15 $352 $485 forward 7 unknown #
vertex $-1 $480 $486 #
point $-1 25 -25 -10 #
model_id-kcp-attrib $-1 $-1 $-1 $357 1 990548855 50 624033793 12 #
face $487 $488 $489 $7 $-1 $490 reversed single #
loop $-1 $-1 $491 $357 #
plane-surface $-1 0 -50 0 0 1 0 0 0 1 forward_v I I I I #
coedge $-1 $360 $359 $492 $493 forward $176 $-1 #
coedge $-1 $494 $491 $359 $433 reversed $429 $-1 #
edge $495 $440 -30 $496 30 $432 $497 forward 7 unknown #
coedge $-1 $498 $499 $360 $435 reversed $500 $-1 #
edge $-1 $501 -30 $439 30 $434 $502 forward 7 unknown #
coedge $-1 $366 $361 $499 $503 reversed $438 $-1 #
coedge $-1 $361 $366 $494 $504 forward $438 $-1 #
loop $-1 $-1 $437 $505 #
vertex $-1 $362 $506 #
vertex $-1 $504 $507 #
straight-curve $-1 30 0 -10 0 -1 0 I I #
coedge $-1 $365 $364 $508 $509 forward $180 $-1 #
coedge $-1 $499 $498 $364 $444 reversed $500 $-1 #
edge $510 $449 -30 $511 30 $443 $512 forward 7 unknown #
coedge $-1 $491 $494 $365 $446 reversed $429 $-1 #
edge $513 $514 -30 $448 30 $445 $515 forward 7 unknown #
attrib_edge_convexity-kcp-attrib $-1 $516 $-1 $367 1 #
vertex $-1 $367 $517 #
vertex $-1 $367 $518 #
straight-curve $-1 30 0 10 0 1 0 I I #
coedge $-1 $519 $374 $397 $470 reversed $295 $-1 #
coedge $-1 $374 $519 $375 $454 forward $295 $-1 #
coedge $-1 $376 $375 $520 $521 forward $212 $-1 #
edge $-1 $522 0 $455 20 $452 $523 forward 7 unknown #
vertex $-1 $454 $524 #
straight-curve $-1 0 25 -10 -1 0 0 I I #
coedge $-1 $520 $383 $379 $458 reversed $312 $-1 #
edge $-1 $459 -3.1415926535897931 $385 1.5707963267948966 $379 $525 forward 7 unknown #
vertex $-1 $521 $526 #
straight-curve $-1 5 25 10 0 0 -1 I I #
point $-1 5 25 -10 #
straight-curve $-1 15 0 10 0 -1 0 I I #
point $-1 15 15 10 #
coedge $-1 $390 $520 $519 $527 reversed $312 $-1 #
coedge $-1 $397 $391 $390 $466 forward $372 $-1 #
edge $-1 $393 -15 $528 15 $465 $529 forward 7 unknown #
straight-curve $-1 -15 -15 10 0 0 -1 I I #
point $-1 -15 -15 10 #
ellipse-curve $-1 -15 25 -10 0 0 1 10 0 0 1 I I #
edge $-1 $528 0 $398 20 $397 $530 forward 7 unknown #
point $-1 -15 15 -10 #
coedge $-1 $403 $402 $418 $480 forward $239 $-1 #
vertex $-1 $405 $531 #
vertex $-1 $424 $532 #
straight-curve $-1 15 15 0 0 0 -1 I I #
point $-1 25 25 -10 #
attrib_edge_convexity-kcp-attrib $-1 $533 $-1 $411 1 #
convexity-sys-attrib $-1 $-1 $412 $334 #
point $-1 25 25 10 #
edge $-1 $425 -10 $421 10 $472 $534 forward 7 unknown #
attrib_edge_convexity-kcp-attrib $-1 $535 $-1 $419 1 #
straight-curve $-1 15 0 10 0 -1 0 I I #
convexity-sys-attrib $-1 $-1 $420 $348 #
point $-1 15 -15 10 #
straight-curve $-1 15 0 -10 0 1 0 I I #
point $-1 15 -15 -10 #
model_id-kcp-attrib $-1 $-1 $-1 $428 1 990548855 50 624033793 13 #
face $536 $505 $500 $7 $-1 $537 reversed single #
loop $-1 $-1 $538 $428 #
plane-surface $-1 -30 0 0 1 0 0 0 0 -1 forward_v I I I I #
coedge $-1 $432 $445 $539 $540 forward $429 $-1 #
coedge $-1 $539 $538 $431 $493 reversed $489 $-1 #
edge $541 $496 -50 $501 50 $492 $542 forward 7 unknown #
coedge $-1 $445 $432 $437 $504 reversed $429 $-1 #
attrib_edge_convexity-kcp-attrib $-1 $543 $-1 $433 1 #
vertex $-1 $493 $544 #
straight-curve $-1 0 -50 -10 -1 0 0 I I #
coedge $-1 $443 $434 $538 $545 reversed $500 $-1 #
coedge $-1 $434 $443 $436 $503 forward $500 $-1 #
loop $-1 $-1 $499 $488 #
vertex $-1 $435 $546 #
straight-curve $-1 0 50 -10 1 0 0 I I #
edge $-1 $449 -10 $439 10 $436 $547 forward 7 unknown #
edge $548 $448 -10 $440 10 $437 $549 forward 7 unknown #
face $550 $-1 $438 $7 $-1 $551 reversed single #
point $-1 30 50 -10 #
point $-1 30 -50 -10 #
coedge $-1 $538 $539 $442 $509 reversed $489 $-1 #
edge $552 $511 -50 $514 50 $508 $553 forward 7 unknown #
attrib_edge_convexity-kcp-attrib $-1 $554 $-1 $444 1 #
vertex $-1 $444 $555 #
straight-curve $-1 0 50 10 -1 0 0 I I #
attrib_edge_convexity-kcp-attrib $-1 $556 $-1 $446 1 #
vertex $-1 $509 $557 #
straight-curve $-1 0 -50 10 1 0 0 I I #
convexity-sys-attrib $-1 $-1 $447 $367 #
point $-1 30 -50 10 #
point $-1 30 50 10 #
coedge $-1 $452 $451 $464 $527 forward $295 $-1 #
coedge $-1 $464 $457 $453 $521 reversed $312 $-1 #
edge $-1 $522 -5 $459 5 $453 $558 forward 7 unknown #
vertex $-1 $527 $559 #
straight-curve $-1 -5 25 10 0 0 -1 I I #
point $-1 -5 25 -10 #
ellipse-curve $-1 15 25 10 0 0 -1 10 0 0 1 I I #
point $-1 5 25 10 #
edge $-1 $528 1.5707963267948966 $522 6.2831853071795862 $519 $560 forward 7 unknown #
vertex $-1 $466 $561 #
straight-curve $-1 -15 0 10 0 1 0 I I #
straight-curve $-1 -15 15 10 0 0 -1 I I #
point $-1 15 15 10 #
point $-1 15 15 -10 #
convexity-sys-attrib $-1 $-1 $477 $411 #
straight-curve $-1 15 -15 0 0 0 1 I I #
convexity-sys-attrib $-1 $-1 $481 $419 #
model_id-kcp-attrib $-1 $-1 $-1 $488 1 990548855 50 624033793 14 #
plane-surface $-1 0 50 0 0 -1 0 0 0 -1 forward_v I I I I #
coedge $-1 $492 $508 $498 $545 forward $489 $-1 #
coedge $-1 $508 $492 $491 $540 reversed $489 $-1 #
edge $562 $514 -10 $496 10 $539 $563 forward 7 unknown #
attrib_edge_convexity-kcp-attrib $-1 $564 $-1 $493 1 #
straight-curve $-1 -30 0 -10 0 1 0 I I #
convexity-sys-attrib $-1 $-1 $495 $433 #
point $-1 -30 -50 -10 #
edge $565 $511 -10 $501 10 $498 $566 forward 7 unknown #
point $-1 -30 50 -10 #
straight-curve $-1 30 50 0 0 0 -1 I I #
attrib_edge_convexity-kcp-attrib $-1 $567 $-1 $504 1 #
straight-curve $-1 30 -50 0 0 0 -1 I I #
model_id-kcp-attrib $-1 $-1 $-1 $505 1 990548855 50 624033793 15 #
plane-surface $-1 30 0 0 -1 0 0 0 0 1 forward_v I I I I #
attrib_edge_convexity-kcp-attrib $-1 $568 $-1 $509 1 #
straight-curve $-1 -30 0 10 0 -1 0 I I #
convexity-sys-attrib $-1 $-1 $510 $444 #
point $-1 -30 50 10 #
convexity-sys-attrib $-1 $-1 $513 $446 #
point $-1 -30 -50 10 #
straight-curve $-1 0 25 10 1 0 0 I I #
point $-1 -5 25 10 #
ellipse-curve $-1 -15 25 10 0 0 -1 10 0 0 1 I I #
point $-1 -15 15 10 #
attrib_edge_convexity-kcp-attrib $-1 $569 $-1 $540 1 #
straight-curve $-1 -30 -50 0 0 0 -1 I I #
convexity-sys-attrib $-1 $-1 $541 $493 #
attrib_edge_convexity-kcp-attrib $-1 $570 $-1 $545 1 #
straight-curve $-1 -30 50 0 0 0 -1 I I #
convexity-sys-attrib $-1 $-1 $548 $504 #
convexity-sys-attrib $-1 $-1 $552 $509 #
convexity-sys-attrib $-1 $-1 $562 $540 #
convexity-sys-attrib $-1 $-1 $565 $545 #
End-of-ACIS-data 