105 86 1 0                              
body $-1 $1 $-1 $2 #
lump $-1 $-1 $3 $0 #
transform $-1 0.707106781186546 0.707106781186549 0 -0.707106781186549 0.707106781186546 0 0 0 1 0 0 0 1 1 0 0 #
shell $-1 $-1 $-1 $4 $1 #
face $-1 $5 $6 $3 $-1 $7 reversed single #
face $-1 $8 $9 $3 $-1 $10 forward single #
loop $-1 $-1 $11 $4 #
plane-surface $-1 0 0 -10 0 0 1 1 0 0 0 #
face $-1 $12 $13 $3 $-1 $14 forward single #
loop $-1 $-1 $15 $5 #
cone-surface $-1 -10 20 0 0 0 -1 3.53553390593273 3.53553390593275 0 1 0 1 0 #
coedge $-1 $16 $17 $18 $19 1 $6 $-1 #
face $-1 $20 $21 $3 $-1 $22 forward single #
loop $-1 $-1 $23 $8 #
cone-surface $-1 10 0 0 0 0 -1 3.53553390593274 -3.53553390593274 0 1 0 1 0 #
coedge $-1 $24 $25 $26 $27 0 $9 $-1 #
coedge $-1 $28 $11 $29 $30 0 $6 $-1 #
coedge $-1 $11 $28 $31 $32 1 $6 $-1 #
coedge $-1 $25 $24 $11 $19 0 $9 $-1 #
edge $-1 $33 $34 $11 $35 0 #
face $-1 $36 $37 $3 $-1 $38 forward single #
loop $-1 $-1 $39 $12 #
cone-surface $-1 9.99999999999996 20 0 -0 0 1 -10.6066017177982 -10.6066017177982 0 1 0 -1 0 #
coedge $-1 $40 $41 $42 $43 0 $13 $-1 #
coedge $-1 $18 $15 $44 $45 0 $9 $-1 #
coedge $-1 $15 $18 $46 $47 1 $9 $-1 #
coedge $-1 $48 $49 $15 $27 1 $50 $-1 #
edge $-1 $51 $52 $26 $53 0 #
coedge $-1 $17 $16 $54 $55 1 $6 $-1 #
coedge $-1 $44 $39 $16 $30 1 $21 $-1 #
edge $-1 $33 $56 $16 $57 0 #
coedge $-1 $58 $46 $17 $32 0 $37 $-1 #
edge $-1 $34 $59 $17 $60 0 #
vertex $-1 $19 $61 #
vertex $-1 $47 $62 #
ellipse-curve $-1 -10.0000000000001 20 -10 0 0 1 -3.53553390593274 3.53553390593273 0 1 #
face $-1 $-1 $50 $3 $-1 $63 forward single #
loop $-1 $-1 $58 $20 #
cone-surface $-1 10 20 0 -0 -0 -1 -17.6776695296637 -17.6776695296637 0 1 0 1 0 #
coedge $-1 $29 $64 $41 $65 0 $21 $-1 #
coedge $-1 $54 $23 $58 $66 0 $13 $-1 #
coedge $-1 $23 $54 $39 $65 1 $13 $-1 #
coedge $-1 $49 $48 $23 $43 1 $50 $-1 #
edge $-1 $67 $68 $42 $69 0 #
coedge $-1 $64 $29 $24 $45 1 $21 $-1 #
edge $-1 $52 $33 $44 $70 1 #
coedge $-1 $31 $71 $25 $47 0 $37 $-1 #
edge $-1 $51 $34 $46 $72 0 #
coedge $-1 $42 $26 $71 $73 1 $50 $-1 #
coedge $-1 $26 $42 $64 $74 0 $50 $-1 #
loop $-1 $-1 $26 $36 #
vertex $-1 $27 $75 #
vertex $-1 $27 $76 #
ellipse-curve $-1 -10 20 10 -0 -0 -1 3.53553390593273 3.53553390593275 0 1 #
coedge $-1 $41 $40 $28 $55 0 $13 $-1 #
edge $-1 $59 $56 $28 $77 0 #
vertex $-1 $55 $78 #
ellipse-curve $-1 9.99999999999996 20 -10 0 0 1 -10.6066017177982 -10.6066017177982 0 1 #
coedge $-1 $71 $31 $40 $66 1 $37 $-1 #
vertex $-1 $55 $79 #
ellipse-curve $-1 10 20 -10 0 0 1 -17.6776695296637 -17.6776695296637 0 1 #
point $-1 -5.00000000000003 19.9999999999999 -10 #
point $-1 -15 20 -10 #
plane-surface $-1 0 0 10 0 0 1 1 0 0 0 #
coedge $-1 $39 $44 $49 $74 1 $21 $-1 #
edge $-1 $67 $56 $39 $80 0 #
edge $-1 $68 $59 $58 $81 1 #
vertex $-1 $43 $82 #
vertex $-1 $73 $83 #
ellipse-curve $-1 10 0 10 -0 -0 -1 3.53553390593274 -3.53553390593274 0 1 #
straight-curve $-1 -5.00000000000003 19.9999999999999 0 0 0 1 #
coedge $-1 $46 $58 $48 $73 0 $37 $-1 #
straight-curve $-1 -15 20 0 0 0 -1 #
edge $-1 $68 $51 $48 $84 0 #
edge $-1 $67 $52 $49 $85 0 #
point $-1 -15 20 10 #
point $-1 -5.00000000000003 19.9999999999999 10 #
ellipse-curve $-1 10 0 -10 0 0 1 3.53553390593274 3.53553390593274 0 1 #
point $-1 9.99999999999996 5 -10 #
point $-1 10 -5 -10 #
straight-curve $-1 9.99999999999996 5 0 -0 -0 -1 #
straight-curve $-1 10 -5 0 0 0 1 #
point $-1 9.99999999999996 5 10 #
point $-1 10 -5 10 #
ellipse-curve $-1 10 20 10 -0 -0 -1 -17.6776695296637 -17.6776695296637 0 1 #
ellipse-curve $-1 9.99999999999996 20 10 -0 -0 -1 -10.6066017177982 -10.6066017177982 0 1 #
