600 0 2 0           
24 FBMach with ACIS - 6.0.3 13 ACIS 6.0.3 NT 24 Tue May 22 12:25:06 2001 
1 9.9999999999999995e-007 1e-010 
body $2 $3 $-1 $4 #
bdycol-kcp $-1 1 2 $5 $6 #
model_id-kcp-attrib $-1 $-1 $-1 $0 1 990548706 50 640811009 1 #
lump $-1 $-1 $7 $0 #
transform $-1 0.70710678118654602 0.70710678118654902 0 -0.70710678118654902 0.70710678118654602 0 0 0 1 0 0 0 1 rotate no_reflect no_shear #
body $8 $9 $-1 $10 #
body $11 $12 $-1 $13 #
shell $-1 $-1 $-1 $14 $-1 $3 #
model_id-kcp-attrib $-1 $-1 $-1 $5 1 990548706 50 640811010 1 #
lump $-1 $-1 $15 $5 #
transform $-1 1 0 0 0 1 0 0 0 1 -7.0710678118655199 7.0710678118654231 0 1 no_rotate no_reflect no_shear #
rgb_color-st-attrib $-1 $16 $-1 $6 0.5 1 1 #
lump $-1 $-1 $17 $6 #
transform $-1 1 0 0 0 1 0 0 0 1 -7.0710678118655199 7.0710678118654231 0 1 no_rotate no_reflect no_shear #
face $18 $19 $20 $7 $-1 $21 reversed single #
shell $-1 $-1 $-1 $22 $-1 $9 #
model_id-kcp-attrib $-1 $-1 $11 $6 1 990548706 80 642777091 1 #
shell $-1 $-1 $-1 $23 $-1 $12 #
model_id-kcp-attrib $-1 $24 $-1 $14 1 990548706 50 640811009 8 #
face $25 $26 $27 $7 $-1 $28 forward single #
loop $-1 $-1 $29 $14 #
plane-surface $-1 0 0 -10 0 0 1 1 0 0 forward_v I I I I #
face $30 $31 $32 $15 $-1 $33 forward single #
face $-1 $34 $35 $17 $-1 $36 reversed single #
model_id-kcp-attrib $-1 $-1 $18 $14 1 990548706 50 640811009 2 #
model_id-kcp-attrib $-1 $-1 $-1 $19 1 990548706 50 640811009 3 #
face $37 $38 $39 $7 $-1 $40 forward single #
loop $-1 $-1 $41 $19 #
cone-surface $-1 -10 20 0 0 0 -1 3.5355339059327302 3.5355339059327502 0 1 I I 0 1 5.0000000000000036 forward I I I I #
coedge $-1 $42 $43 $44 $45 reversed $20 $-1 #
model_id-kcp-attrib $-1 $-1 $-1 $22 1 990548706 50 640811010 3 #
face $46 $47 $48 $15 $-1 $49 reversed single #
loop $-1 $-1 $50 $22 #
plane-surface $-1 0 0 10 0 0 1 1 0 0 forward_v I I I I #
face $-1 $51 $52 $17 $-1 $53 reversed single #
loop $-1 $-1 $54 $23 #
cone-surface $-1 2.6645352591003757e-015 14.14213562373099 -10 0 0 -1 17.677669529663731 -17.677669529663664 0 1 I I 0 1 25.000000000000014 forward I I I I #
model_id-kcp-attrib $-1 $-1 $-1 $26 1 990548706 50 640811009 4 #
face $55 $56 $57 $7 $-1 $58 forward single #
loop $-1 $-1 $59 $26 #
cone-surface $-1 10 0 0 0 0 -1 3.53553390593274 -3.53553390593274 0 1 I I 0 1 5.0000000000000036 forward I I I I #
coedge $-1 $60 $61 $62 $63 forward $27 $-1 #
coedge $-1 $64 $29 $65 $66 forward $20 $-1 #
coedge $-1 $29 $64 $67 $68 reversed $20 $-1 #
coedge $-1 $61 $60 $29 $45 forward $27 $-1 #
edge $69 $70 -2.3561944901923662 $71 0.78539816339744695 $29 $72 forward 7 unknown #
model_id-kcp-attrib $-1 $-1 $-1 $31 1 990548706 50 640811010 2 #
face $-1 $73 $74 $15 $-1 $75 reversed single #
loop $-1 $-1 $76 $31 #
plane-surface $-1 0 0 -10 0 0 1 1 0 0 forward_v I I I I #
coedge $-1 $77 $78 $79 $80 forward $32 $-1 #
face $-1 $81 $82 $17 $-1 $83 reversed single #
loop $-1 $-1 $84 $34 #
cone-surface $-1 -14.142135623730921 7.9936057773011271e-015 -10 0 0 -1 -3.5355339059327324 -3.535533905932748 0 1 I I 0 1 5.0000000000000036 forward I I I I #
coedge $-1 $85 $86 $87 $88 reversed $35 $-1 #
model_id-kcp-attrib $-1 $-1 $-1 $38 1 990548706 50 640811009 5 #
face $89 $90 $91 $7 $-1 $92 forward single #
loop $-1 $-1 $93 $38 #
cone-surface $-1 9.9999999999999591 20 0 0 0 1 -10.606601717798201 -10.606601717798201 0 1 I I 0 -1 14.999999999999982 forward I I I I #
coedge $-1 $94 $95 $96 $97 forward $39 $-1 #
coedge $-1 $44 $41 $98 $99 forward $27 $-1 #
coedge $-1 $41 $44 $100 $101 reversed $27 $-1 #
coedge $-1 $102 $103 $41 $63 reversed $104 $-1 #
edge $-1 $105 -2.3561944901923422 $106 0.78539816339747104 $62 $107 forward 7 unknown #
coedge $-1 $43 $42 $108 $109 reversed $20 $-1 #
coedge $-1 $98 $93 $42 $66 reversed $57 $-1 #
edge $110 $70 -0.78539816339744173 $111 0.78539816339744828 $42 $112 forward 7 unknown #
coedge $-1 $113 $100 $43 $68 forward $91 $-1 #
edge $114 $71 -0.78539816339744828 $115 0.78539816339744828 $43 $116 forward 7 unknown #
attrib_edge_convexity-kcp-attrib $-1 $117 $-1 $45 1 #
vertex $-1 $45 $118 #
vertex $-1 $101 $119 #
ellipse-curve $-1 -10.000000000000099 20 -10 0 0 1 -3.53553390593274 3.5355339059327302 0 1 I I #
face $-1 $120 $121 $15 $-1 $122 reversed single #
loop $-1 $-1 $123 $47 #
plane-surface $-1 0 -21.213203435596469 0 0 1 0 0 0 1 forward_v I I I I #
coedge $-1 $124 $125 $126 $127 forward $48 $-1 #
coedge $-1 $128 $50 $129 $130 forward $32 $-1 #
coedge $-1 $50 $128 $131 $132 forward $32 $-1 #
coedge $-1 $133 $134 $50 $80 reversed $135 $-1 #
edge $-1 $136 -21.213203435596469 $137 21.213203435596469 $79 $138 forward 7 unknown #
face $-1 $139 $140 $17 $-1 $141 reversed single #
loop $-1 $-1 $142 $51 #
cone-surface $-1 -2.9309887850104133e-014 14.142135623730962 -10 0 0 -1 10.606601717798222 -10.606601717798178 0 1 I I 0 -1 14.999999999999982 forward I I I I #
coedge $-1 $143 $144 $145 $146 reversed $52 $-1 #
coedge $-1 $147 $54 $148 $149 forward $35 $-1 #
coedge $-1 $54 $147 $143 $150 forward $35 $-1 #
coedge $-1 $145 $151 $54 $88 forward $152 $-1 #
edge $-1 $153 0 $154 1.5707963267948966 $87 $155 forward 7 unknown #
model_id-kcp-attrib $-1 $-1 $-1 $56 1 990548706 50 640811009 6 #
face $156 $-1 $104 $7 $-1 $157 forward single #
loop $-1 $-1 $113 $56 #
cone-surface $-1 10 20 0 0 0 -1 -17.677669529663699 -17.677669529663699 0 1 I I 0 1 25.000000000000014 forward I I I I #
coedge $-1 $65 $158 $95 $159 forward $57 $-1 #
coedge $-1 $108 $59 $113 $160 forward $39 $-1 #
coedge $-1 $59 $108 $93 $159 reversed $39 $-1 #
coedge $-1 $103 $102 $59 $97 reversed $104 $-1 #
edge $-1 $161 -2.3561944901923533 $162 0.78539816339744828 $96 $163 forward 7 unknown #
coedge $-1 $158 $65 $60 $99 reversed $57 $-1 #
edge $-1 $106 -10 $70 10 $98 $164 reversed 7 unknown #
coedge $-1 $67 $165 $61 $101 forward $91 $-1 #
edge $-1 $105 -10 $71 10 $100 $166 forward 7 unknown #
coedge $-1 $96 $62 $165 $167 reversed $104 $-1 #
coedge $-1 $62 $96 $158 $168 forward $104 $-1 #
loop $-1 $-1 $62 $90 #
vertex $-1 $63 $169 #
vertex $-1 $63 $170 #
ellipse-curve $-1 -10 20 10 0 0 -1 3.5355339059327302 3.5355339059327502 0 1 I I #
coedge $-1 $95 $94 $64 $109 forward $39 $-1 #
edge $171 $115 -2.3561944901923448 $111 0.78539816339745649 $64 $172 forward 7 unknown #
attrib_edge_convexity-kcp-attrib $-1 $173 $-1 $66 1 #
vertex $-1 $109 $174 #
ellipse-curve $-1 9.9999999999999591 20 -10 0 0 1 -10.606601717798201 -10.606601717798201 0 1 I I #
coedge $-1 $165 $67 $94 $160 reversed $91 $-1 #
attrib_edge_convexity-kcp-attrib $-1 $175 $-1 $68 1 #
vertex $-1 $109 $176 #
ellipse-curve $-1 10 20 -10 0 0 1 -17.677669529663699 -17.677669529663699 0 1 I I #
convexity-sys-attrib $-1 $-1 $69 $45 #
point $-1 -5.0000000000000302 19.999999999999901 -10 #
point $-1 -15 20 -10 #
face $-1 $177 $178 $15 $-1 $179 reversed single #
loop $-1 $-1 $180 $73 #
plane-surface $-1 -21.213203435596469 0 0 1 0 0 0 0 -1 forward_v I I I I #
coedge $-1 $181 $131 $182 $183 forward $74 $-1 #
coedge $-1 $184 $76 $181 $185 forward $48 $-1 #
coedge $-1 $76 $184 $186 $187 forward $48 $-1 #
coedge $-1 $134 $133 $76 $127 reversed $135 $-1 #
edge $-1 $188 -21.213203435596469 $189 21.213203435596469 $126 $190 forward 7 unknown #
coedge $-1 $78 $77 $191 $192 forward $32 $-1 #
coedge $-1 $193 $194 $77 $130 reversed $178 $-1 #
edge $-1 $137 -21.213203435596469 $195 21.213203435596469 $129 $196 forward 7 unknown #
coedge $-1 $123 $197 $78 $132 reversed $74 $-1 #
edge $-1 $198 -21.213203435596469 $136 21.213203435596469 $131 $199 forward 7 unknown #
coedge $-1 $126 $79 $197 $200 forward $135 $-1 #
coedge $-1 $79 $126 $193 $201 reversed $135 $-1 #
loop $-1 $-1 $133 $177 #
vertex $-1 $80 $202 #
vertex $-1 $80 $203 #
straight-curve $-1 21.213203435596469 0 10 0 1 0 I I #
face $-1 $204 $152 $17 $-1 $205 forward single #
loop $-1 $-1 $206 $81 #
cone-surface $-1 14.142135623730979 6.6613381477509392e-014 -10 0 0 -1 -3.5355339059327768 3.5355339059327031 0 1 I I 0 1 5.0000000000000036 forward I I I I #
coedge $-1 $207 $208 $209 $210 reversed $82 $-1 #
coedge $-1 $211 $84 $86 $150 reversed $52 $-1 #
coedge $-1 $84 $211 $207 $212 forward $52 $-1 #
coedge $-1 $209 $87 $84 $146 forward $152 $-1 #
edge $-1 $154 1.4210854715201987e-016 $213 3.1415926535898135 $145 $214 forward 7 unknown #
coedge $-1 $86 $85 $215 $216 reversed $35 $-1 #
coedge $-1 $206 $217 $85 $149 reversed $140 $-1 #
edge $-1 $153 -20 $218 0 $148 $219 forward 7 unknown #
edge $-1 $220 0 $154 20 $143 $221 forward 7 unknown #
coedge $-1 $87 $209 $206 $222 forward $152 $-1 #
loop $-1 $223 $209 $139 #
vertex $-1 $88 $224 #
vertex $-1 $146 $225 #
ellipse-curve $-1 2.6645352591003757e-015 14.14213562373099 10 0 0 -1 17.677669529663731 -17.677669529663664 0 1 I I #
model_id-kcp-attrib $-1 $-1 $-1 $90 1 990548706 50 640811009 7 #
plane-surface $-1 0 0 10 0 0 1 1 0 0 forward_v I I I I #
coedge $-1 $93 $98 $103 $168 reversed $57 $-1 #
edge $-1 $161 -10 $111 10 $93 $226 forward 7 unknown #
edge $-1 $162 -10 $115 10 $113 $227 reversed 7 unknown #
vertex $-1 $97 $228 #
vertex $-1 $167 $229 #
ellipse-curve $-1 10 0 10 0 0 -1 3.53553390593274 -3.53553390593274 0 1 I I #
straight-curve $-1 -5.0000000000000302 19.999999999999901 0 0 0 1 I I #
coedge $-1 $100 $113 $102 $167 forward $91 $-1 #
straight-curve $-1 -15 20 0 0 0 -1 I I #
edge $-1 $162 -0.78539816339744828 $105 0.78539816339744828 $102 $230 forward 7 unknown #
edge $-1 $161 -0.78539816339744828 $106 0.78539816339744173 $103 $231 forward 7 unknown #
point $-1 -15 20 10 #
point $-1 -5.0000000000000302 19.999999999999901 10 #
attrib_edge_convexity-kcp-attrib $-1 $232 $-1 $109 1 #
ellipse-curve $-1 10 0 -10 0 0 1 3.53553390593274 3.53553390593274 0 1 I I #
convexity-sys-attrib $-1 $-1 $110 $66 #
point $-1 9.9999999999999591 5 -10 #
convexity-sys-attrib $-1 $-1 $114 $68 #
point $-1 10 -5 -10 #
face $-1 $-1 $135 $15 $-1 $233 reversed single #
loop $-1 $-1 $193 $120 #
plane-surface $-1 0 21.213203435596469 0 0 -1 0 0 0 -1 forward_v I I I I #
coedge $-1 $234 $191 $194 $235 forward $121 $-1 #
coedge $-1 $197 $123 $124 $185 reversed $74 $-1 #
coedge $-1 $191 $234 $123 $183 reversed $121 $-1 #
edge $-1 $198 -10 $236 10 $182 $237 forward 7 unknown #
coedge $-1 $125 $124 $234 $238 forward $48 $-1 #
edge $-1 $189 -21.213203435596469 $236 21.213203435596469 $181 $239 forward 7 unknown #
coedge $-1 $194 $193 $125 $187 reversed $178 $-1 #
edge $-1 $240 -21.213203435596469 $188 21.213203435596469 $186 $241 forward 7 unknown #
vertex $-1 $127 $242 #
vertex $-1 $200 $243 #
straight-curve $-1 21.213203435596469 0 -10 0 -1 0 I I #
coedge $-1 $180 $182 $128 $192 reversed $121 $-1 #
edge $-1 $195 -21.213203435596469 $198 21.213203435596469 $191 $244 forward 7 unknown #
coedge $-1 $186 $129 $134 $201 forward $178 $-1 #
coedge $-1 $129 $186 $180 $235 reversed $178 $-1 #
vertex $-1 $130 $245 #
straight-curve $-1 0 21.213203435596469 10 -1 0 0 I I #
coedge $-1 $131 $181 $133 $200 reversed $74 $-1 #
vertex $-1 $192 $246 #
straight-curve $-1 0 -21.213203435596469 10 1 0 0 I I #
edge $-1 $136 -10 $189 10 $133 $247 forward 7 unknown #
edge $-1 $137 -10 $188 10 $134 $248 forward 7 unknown #
point $-1 21.213203435596469 -21.213203435596469 10 #
point $-1 21.213203435596469 21.213203435596469 10 #
face $-1 $249 $250 $17 $-1 $251 reversed single #
plane-surface $-1 0 0 10 0 0 1 1 0 0 forward_v I I I I #
coedge $-1 $252 $148 $151 $222 reversed $140 $-1 #
coedge $-1 $253 $142 $144 $212 reversed $82 $-1 #
coedge $-1 $142 $253 $252 $254 forward $82 $-1 #
coedge $-1 $151 $145 $142 $210 forward $152 $-1 #
edge $-1 $213 -1.5707963267948897 $255 -2.5263741715914708e-016 $209 $256 forward 7 unknown #
coedge $-1 $144 $143 $257 $258 reversed $52 $-1 #
edge $-1 $259 0 $213 20 $207 $260 forward 7 unknown #
vertex $-1 $210 $261 #
ellipse-curve $-1 -14.142135623730921 7.9936057773011271e-015 10 0 0 -1 -3.5355339059327324 -3.535533905932748 0 1 I I #
coedge $-1 $262 $257 $147 $216 forward $250 $-1 #
edge $-1 $220 -1.5707963267948966 $218 0 $215 $263 forward 7 unknown #
coedge $-1 $148 $252 $262 $264 reversed $140 $-1 #
vertex $-1 $216 $265 #
straight-curve $-1 17.677669529663728 -3.5355339059326658 -10 0 0 -1 I I #
vertex $-1 $258 $266 #
straight-curve $-1 -17.677669529663653 -3.5355339059327386 -10 0 0 1 I I #
edge $-1 $255 1.4210854715201984e-016 $153 3.1415926535898011 $151 $267 forward 7 unknown #
loop $-1 $-1 $268 $139 #
point $-1 17.677669529663728 -3.5355339059326658 10 #
point $-1 -17.677669529663653 -3.5355339059327386 10 #
straight-curve $-1 9.9999999999999591 5 0 0 0 -1 I I #
straight-curve $-1 10 -5 0 0 0 1 I I #
point $-1 9.9999999999999591 5 10 #
point $-1 10 -5 10 #
ellipse-curve $-1 10 20 10 0 0 -1 -17.677669529663699 -17.677669529663699 0 1 I I #
ellipse-curve $-1 9.9999999999999591 20 10 0 0 -1 -10.606601717798201 -10.606601717798201 0 1 I I #
convexity-sys-attrib $-1 $-1 $171 $109 #
plane-surface $-1 21.213203435596469 0 0 -1 0 0 0 0 1 forward_v I I I I #
coedge $-1 $182 $180 $184 $238 reversed $121 $-1 #
edge $-1 $195 -10 $240 10 $194 $269 forward 7 unknown #
vertex $-1 $238 $270 #
straight-curve $-1 -21.213203435596469 -21.213203435596469 0 0 0 -1 I I #
edge $-1 $236 -21.213203435596469 $240 21.213203435596469 $234 $271 forward 7 unknown #
straight-curve $-1 0 -21.213203435596469 -10 -1 0 0 I I #
vertex $-1 $187 $272 #
straight-curve $-1 0 21.213203435596469 -10 1 0 0 I I #
point $-1 21.213203435596469 21.213203435596469 -10 #
point $-1 21.213203435596469 -21.213203435596469 -10 #
straight-curve $-1 -21.213203435596469 0 10 0 -1 0 I I #
point $-1 -21.213203435596469 21.213203435596469 10 #
point $-1 -21.213203435596469 -21.213203435596469 10 #
straight-curve $-1 21.213203435596469 -21.213203435596469 0 0 0 -1 I I #
straight-curve $-1 21.213203435596469 21.213203435596469 0 0 0 -1 I I #
face $-1 $273 $274 $17 $-1 $275 reversed single #
loop $-1 $276 $277 $204 #
plane-surface $-1 0 0 -10 0 0 1 1 0 0 forward_v I I I I #
coedge $-1 $217 $206 $208 $254 reversed $140 $-1 #
coedge $-1 $208 $207 $277 $278 reversed $82 $-1 #
edge $-1 $279 0 $255 20 $252 $280 forward 7 unknown #
vertex $-1 $210 $281 #
ellipse-curve $-1 -2.9309887850104133e-014 14.142135623730962 10 0 0 1 10.606601717798222 -10.606601717798178 0 1 I I #
coedge $-1 $215 $277 $211 $258 forward $250 $-1 #
edge $-1 $259 -3.1415926535898135 $220 -1.4210854715201987e-016 $257 $282 forward 7 unknown #
vertex $-1 $278 $283 #
straight-curve $-1 -10.606601717798133 3.5355339059326658 -10 0 0 1 I I #
point $-1 -10.606601717798133 3.5355339059326658 10 #
coedge $-1 $277 $215 $217 $264 forward $250 $-1 #
ellipse-curve $-1 2.6645352591003757e-015 14.14213562373099 -10 0 0 1 17.677669529663731 -17.677669529663664 0 1 I I #
edge $-1 $218 -3.1415926535898011 $279 -1.4210854715201984e-016 $262 $284 forward 7 unknown #
point $-1 17.677669529663728 -3.5355339059326658 -10 #
point $-1 -17.677669529663653 -3.5355339059327386 -10 #
ellipse-curve $-1 14.142135623730979 6.6613381477509392e-014 10 0 0 -1 -3.5355339059327768 3.5355339059327031 0 1 I I #
coedge $-1 $285 $286 $287 $288 forward $223 $-1 #
straight-curve $-1 -21.213203435596469 21.213203435596469 0 0 0 -1 I I #
point $-1 -21.213203435596469 -21.213203435596469 -10 #
straight-curve $-1 -21.213203435596469 0 -10 0 1 0 I I #
point $-1 -21.213203435596469 21.213203435596469 -10 #
face $-1 $289 $290 $17 $-1 $291 reversed single #
loop $-1 $-1 $292 $249 #
plane-surface $-1 0 -21.213203435596469 0 0 1 0 0 0 1 forward_v I I I I #
loop $-1 $-1 $293 $204 #
coedge $-1 $257 $262 $253 $278 forward $250 $-1 #
edge $-1 $279 2.5263741715914708e-016 $259 1.5707963267948897 $277 $294 forward 7 unknown #
vertex $-1 $278 $295 #
straight-curve $-1 10.606601717798203 3.5355339059327706 -10 0 0 1 I I #
point $-1 10.606601717798203 3.5355339059327706 10 #
ellipse-curve $-1 -14.142135623730921 7.9936057773011271e-015 -10 0 0 1 -3.5355339059327324 -3.535533905932748 0 1 I I #
point $-1 -10.606601717798133 3.5355339059326658 -10 #
ellipse-curve $-1 14.142135623730979 6.6613381477509392e-014 -10 0 0 1 -3.5355339059327768 3.5355339059327031 0 1 I I #
coedge $-1 $296 $268 $297 $298 forward $223 $-1 #
coedge $-1 $268 $296 $299 $300 forward $223 $-1 #
coedge $-1 $301 $302 $268 $288 reversed $303 $-1 #
edge $-1 $304 -21.213203435596469 $305 21.213203435596469 $287 $306 forward 7 unknown #
face $-1 $307 $308 $17 $-1 $309 reversed single #
loop $-1 $-1 $310 $273 #
plane-surface $-1 -21.213203435596469 0 0 1 0 0 0 0 -1 forward_v I I I I #
coedge $-1 $311 $299 $312 $313 forward $274 $-1 #
coedge $-1 $314 $315 $316 $317 forward $276 $-1 #
ellipse-curve $-1 -2.9309887850104133e-014 14.142135623730962 -10 0 0 -1 10.606601717798222 -10.606601717798178 0 1 I I #
point $-1 10.606601717798203 3.5355339059327706 -10 #
coedge $-1 $286 $285 $318 $319 forward $223 $-1 #
coedge $-1 $320 $321 $285 $298 reversed $308 $-1 #
edge $-1 $305 -21.213203435596469 $322 21.213203435596469 $297 $323 forward 7 unknown #
coedge $-1 $292 $324 $286 $300 reversed $274 $-1 #
edge $-1 $325 -21.213203435596469 $304 21.213203435596469 $299 $326 forward 7 unknown #
coedge $-1 $316 $287 $324 $327 forward $303 $-1 #
coedge $-1 $287 $316 $320 $328 reversed $303 $-1 #
loop $-1 $-1 $301 $307 #
vertex $-1 $288 $329 #
vertex $-1 $288 $330 #
straight-curve $-1 21.213203435596469 0 10 0 1 0 I I #
face $-1 $-1 $303 $17 $-1 $331 reversed single #
loop $-1 $-1 $320 $289 #
plane-surface $-1 0 21.213203435596469 0 0 -1 0 0 0 -1 forward_v I I I I #
coedge $-1 $332 $318 $321 $333 forward $290 $-1 #
coedge $-1 $324 $292 $314 $334 reversed $274 $-1 #
coedge $-1 $318 $332 $292 $313 reversed $290 $-1 #
edge $-1 $325 -10 $335 10 $312 $336 forward 7 unknown #
coedge $-1 $337 $293 $311 $334 forward $276 $-1 #
coedge $-1 $293 $337 $338 $339 forward $276 $-1 #
coedge $-1 $302 $301 $293 $317 reversed $303 $-1 #
edge $-1 $340 -21.213203435596469 $341 21.213203435596469 $316 $342 forward 7 unknown #
coedge $-1 $310 $312 $296 $319 reversed $290 $-1 #
edge $-1 $322 -21.213203435596469 $325 21.213203435596469 $318 $343 forward 7 unknown #
coedge $-1 $338 $297 $302 $328 forward $308 $-1 #
coedge $-1 $297 $338 $310 $333 reversed $308 $-1 #
vertex $-1 $298 $344 #
straight-curve $-1 0 21.213203435596469 10 -1 0 0 I I #
coedge $-1 $299 $311 $301 $327 reversed $274 $-1 #
vertex $-1 $319 $345 #
straight-curve $-1 0 -21.213203435596469 10 1 0 0 I I #
edge $-1 $304 -10 $341 10 $301 $346 forward 7 unknown #
edge $-1 $305 -10 $340 10 $302 $347 forward 7 unknown #
point $-1 21.213203435596469 -21.213203435596469 10 #
point $-1 21.213203435596469 21.213203435596469 10 #
plane-surface $-1 21.213203435596469 0 0 -1 0 0 0 0 1 forward_v I I I I #
coedge $-1 $312 $310 $337 $348 reversed $290 $-1 #
edge $-1 $322 -10 $349 10 $321 $350 forward 7 unknown #
edge $-1 $341 -21.213203435596469 $335 21.213203435596469 $311 $351 forward 7 unknown #
vertex $-1 $348 $352 #
straight-curve $-1 -21.213203435596469 -21.213203435596469 0 0 0 -1 I I #
coedge $-1 $315 $314 $332 $348 forward $276 $-1 #
coedge $-1 $321 $320 $315 $339 reversed $308 $-1 #
edge $-1 $349 -21.213203435596469 $340 21.213203435596469 $338 $353 forward 7 unknown #
vertex $-1 $317 $354 #
vertex $-1 $327 $355 #
straight-curve $-1 21.213203435596469 0 -10 0 -1 0 I I #
straight-curve $-1 -21.213203435596469 0 10 0 -1 0 I I #
point $-1 -21.213203435596469 21.213203435596469 10 #
point $-1 -21.213203435596469 -21.213203435596469 10 #
straight-curve $-1 21.213203435596469 -21.213203435596469 0 0 0 -1 I I #
straight-curve $-1 21.213203435596469 21.213203435596469 0 0 0 -1 I I #
edge $-1 $335 -21.213203435596469 $349 21.213203435596469 $332 $356 forward 7 unknown #
vertex $-1 $339 $357 #
straight-curve $-1 -21.213203435596469 21.213203435596469 0 0 0 -1 I I #
straight-curve $-1 0 -21.213203435596469 -10 -1 0 0 I I #
point $-1 -21.213203435596469 -21.213203435596469 -10 #
straight-curve $-1 0 21.213203435596469 -10 1 0 0 I I #
point $-1 21.213203435596469 21.213203435596469 -10 #
point $-1 21.213203435596469 -21.213203435596469 -10 #
straight-curve $-1 -21.213203435596469 0 -10 0 1 0 I I #
point $-1 -21.213203435596469 21.213203435596469 -10 #
End-of-ACIS-data 