600 0 1 0           
95 GICL ACIS Healer - Source: /gicl/data5/repository/UMD/tmp/curvey_pocket/curvey_pocket.sat - 6 0 18 ACIS 6.0.3 Solaris 24 Sun Apr 14 00:34:09 2002 
1 9.999999999999999547e-07 1.000000000000000036e-10 
body $-1 $1 $-1 $-1 #
lump $-1 $-1 $2 $0 #
shell $-1 $-1 $-1 $3 $-1 $1 #
face $-1 $4 $5 $2 $-1 $6 reversed single #
face $-1 $7 $8 $2 $-1 $9 forward single #
loop $-1 $-1 $10 $3 #
plane-surface $-1 0 0 -10 0 0 1 0.7071067811865460184 0.707106781186549016 0 forward_v I I I I #
face $-1 $11 $12 $2 $-1 $13 forward single #
loop $-1 $-1 $14 $4 #
cone-surface $-1 -21.21320343559644073 7.071067811865431096 0 0 0 -1 -2.486899575160350651e-14 5.000000000000003553 0 1 I I 0 1 5.000000000000003553 forward I I I I #
coedge $-1 $15 $16 $17 $18 reversed $5 $-1 #
face $-1 $19 $20 $2 $-1 $21 forward single #
loop $-1 $-1 $22 $7 #
cone-surface $-1 7.071067811865460406 7.071067811865489716 0 0 0 -1 5.000000000000003553 1.065814103640150279e-14 0 1 I I 0 1 5.000000000000003553 forward I I I I #
coedge $-1 $23 $24 $25 $26 forward $8 $-1 #
coedge $-1 $27 $10 $28 $29 forward $5 $-1 #
coedge $-1 $10 $27 $30 $31 reversed $5 $-1 #
coedge $-1 $24 $23 $10 $18 forward $8 $-1 #
edge $-1 $32 -2.356194490192366597 $33 0.7853981633974467247 $10 $34 forward 7 unknown #
face $-1 $35 $36 $2 $-1 $37 forward single #
loop $-1 $-1 $38 $11 #
cone-surface $-1 -7.071067811865548336 21.21320343559638388 0 0 0 1 3.197442310920450836e-14 -14.99999999999998224 0 1 I I 0 -1 14.99999999999998224 forward I I I I #
coedge $-1 $39 $40 $41 $42 forward $12 $-1 #
coedge $-1 $17 $14 $43 $44 forward $8 $-1 #
coedge $-1 $14 $17 $45 $46 reversed $8 $-1 #
coedge $-1 $47 $48 $14 $26 reversed $49 $-1 #
edge $-1 $50 -2.356194490192342172 $51 0.7853981633974713716 $25 $52 forward 7 unknown #
coedge $-1 $16 $15 $53 $54 reversed $5 $-1 #
coedge $-1 $43 $38 $15 $29 reversed $20 $-1 #
edge $-1 $32 -0.7853981633974416177 $55 0.785398163397448168 $15 $56 forward 7 unknown #
coedge $-1 $57 $45 $16 $31 forward $36 $-1 #
edge $-1 $33 -0.785398163397448279 $58 0.785398163397448279 $16 $59 forward 7 unknown #
vertex $-1 $18 $60 #
vertex $-1 $46 $61 #
ellipse-curve $-1 -21.21320343559651178 7.071067811865360042 -10 0 0 1 -4.999999999999996447 -1.776356839400250465e-14 0 1 I I #
face $-1 $-1 $49 $2 $-1 $62 forward single #
loop $-1 $-1 $57 $19 #
cone-surface $-1 -7.071067811865519026 21.21320343559641231 0 0 -0 -1 5.151434834260726348e-14 -25.00000000000001421 0 1 I I 0 1 25.00000000000001421 forward I I I I #
coedge $-1 $28 $63 $40 $64 forward $20 $-1 #
coedge $-1 $53 $22 $57 $65 forward $12 $-1 #
coedge $-1 $22 $53 $38 $64 reversed $12 $-1 #
coedge $-1 $48 $47 $22 $42 reversed $49 $-1 #
edge $-1 $66 -2.356194490192352831 $67 0.785398163397448279 $41 $68 forward 7 unknown #
coedge $-1 $63 $28 $23 $44 reversed $20 $-1 #
edge $-1 $51 -10 $32 10 $43 $69 reversed 7 unknown #
coedge $-1 $30 $70 $24 $46 forward $36 $-1 #
edge $-1 $50 -10 $33 10 $45 $71 forward 7 unknown #
coedge $-1 $41 $25 $70 $72 reversed $49 $-1 #
coedge $-1 $25 $41 $63 $73 forward $49 $-1 #
loop $-1 $-1 $25 $35 #
vertex $-1 $26 $74 #
vertex $-1 $26 $75 #
ellipse-curve $-1 -21.21320343559644073 7.071067811865431096 10 0 -0 -1 -2.486899575160350651e-14 5.000000000000003553 0 1 I I #
coedge $-1 $40 $39 $27 $54 forward $12 $-1 #
edge $-1 $58 -2.356194490192344837 $55 0.7853981633974562726 $27 $76 forward 7 unknown #
vertex $-1 $54 $77 #
ellipse-curve $-1 -7.071067811865548336 21.21320343559638388 -10 0 0 1 3.197442310920450836e-14 -14.99999999999998224 0 1 I I #
coedge $-1 $70 $30 $39 $65 reversed $36 $-1 #
vertex $-1 $54 $78 #
ellipse-curve $-1 -7.071067811865519026 21.21320343559641231 -10 0 0 1 5.151434834260726348e-14 -25.00000000000001421 0 1 I I #
point $-1 -17.67766952966366034 10.60660171779808358 -10 #
point $-1 -24.74873734152917137 3.535533905932686238 -10 #
plane-surface $-1 0 0 10 0 0 1 0.7071067811865460184 0.707106781186549016 0 forward_v I I I I #
coedge $-1 $38 $43 $48 $73 reversed $20 $-1 #
edge $-1 $66 -10 $55 10 $38 $79 forward 7 unknown #
edge $-1 $67 -10 $58 10 $57 $80 reversed 7 unknown #
vertex $-1 $42 $81 #
vertex $-1 $72 $82 #
ellipse-curve $-1 7.071067811865460406 7.071067811865489716 10 0 -0 -1 5.000000000000003553 1.065814103640150279e-14 0 1 I I #
straight-curve $-1 -17.67766952966366034 10.60660171779808358 0 0 0 1 I I #
coedge $-1 $45 $57 $47 $72 forward $36 $-1 #
straight-curve $-1 -24.74873734152917137 3.535533905932686238 0 0 0 -1 I I #
edge $-1 $67 -0.785398163397448279 $50 0.785398163397448279 $47 $83 forward 7 unknown #
edge $-1 $66 -0.785398163397448168 $51 0.7853981633974416177 $48 $84 forward 7 unknown #
point $-1 -24.74873734152917137 3.535533905932686238 10 #
point $-1 -17.67766952966366034 10.60660171779808358 10 #
ellipse-curve $-1 7.071067811865460406 7.071067811865489716 -10 0 0 1 -1.065814103640150279e-14 5.000000000000003553 0 1 I I #
point $-1 3.535533905932686238 10.60660171779819194 -10 #
point $-1 10.60660171779820615 3.535533905932759513 -10 #
straight-curve $-1 3.535533905932686238 10.60660171779819194 0 0 -0 -1 I I #
straight-curve $-1 10.60660171779820615 3.535533905932759513 0 0 0 1 I I #
point $-1 3.535533905932686238 10.60660171779819194 10 #
point $-1 10.60660171779820615 3.535533905932759513 10 #
ellipse-curve $-1 -7.071067811865519026 21.21320343559641231 10 0 -0 -1 5.151434834260726348e-14 -25.00000000000001421 0 1 I I #
ellipse-curve $-1 -7.071067811865548336 21.21320343559638388 10 0 -0 -1 3.197442310920450836e-14 -14.99999999999998224 0 1 I I #
End-of-ACIS-data 