600 0 2 0           
24 FBMach with ACIS - 6.0.3 13 ACIS 6.0.3 NT 24 Sun Mar 31 23:25:51 2002 
1 9.9999999999999995e-007 1e-010 
body $2 $3 $-1 $4 #
bdycol-kcp $-1 1 2 $5 $6 #
model_id-kcp-attrib $-1 $7 $-1 $0 1 1017635151 70 -1320812543 1 #
lump $-1 $-1 $8 $0 #
transform $-1 1 0 0 0 1 0 0 0 1 0 0 0 1 rotate no_reflect no_shear #
body $9 $10 $-1 $11 #
body $12 $13 $-1 $14 #
aggregate_advspl_attribute-aggregate_geombuild_base_attribute-aggregate_body_attribute-attrib_HH-attrib $-1 $15 $2 $0 F #
shell $-1 $-1 $-1 $16 $-1 $3 #
model_id-kcp-attrib $-1 $-1 $-1 $5 1 1017635151 70 -1320812542 1 #
lump $-1 $-1 $17 $5 #
transform $-1 1 0 0 0 1 0 0 0 1 -7.0710678118655217 4.1421356237309457 0 1 no_rotate no_reflect no_shear #
rgb_color-st-attrib $-1 $18 $-1 $6 0.5 1 1 #
lump $-1 $-1 $19 $6 #
transform $-1 1 0 0 0 1 0 0 0 1 -7.0710678118655217 4.1421356237309457 0 1 no_rotate no_reflect no_shear #
aggregate_secndry_attribute-aggregate_geombuild_base_attribute-aggregate_body_attribute-attrib_HH-attrib $-1 $20 $7 $0 F #
face $21 $22 $23 $8 $-1 $24 reversed single #
shell $-1 $-1 $-1 $25 $-1 $10 #
model_id-kcp-attrib $-1 $-1 $12 $6 1 1017635151 130 -1316880381 1 #
shell $-1 $-1 $-1 $26 $-1 $13 #
aggregate_sharped_attribute-aggregate_geombuild_base_attribute-aggregate_body_attribute-attrib_HH-attrib $-1 $27 $15 $0 F #
model_id-kcp-attrib $-1 $28 $-1 $16 1 1017635151 70 -1320812543 8 #
face $29 $30 $31 $8 $-1 $32 forward single #
loop $-1 $-1 $33 $16 #
plane-surface $-1 0 0 -10 0 0 1 0.70710678118654602 0.70710678118654902 0 forward_v I I I I #
face $34 $35 $36 $17 $-1 $37 forward single #
face $-1 $38 $39 $19 $-1 $40 reversed single #
aggregate_reblend_attribute-aggregate_geombuild_base_attribute-aggregate_body_attribute-attrib_HH-attrib $-1 $41 $20 $0 F #
model_id-kcp-attrib $-1 $42 $21 $16 1 1017635151 70 -1320812543 2 #
model_id-kcp-attrib $-1 $43 $-1 $22 1 1017635151 70 -1320812543 3 #
face $44 $45 $46 $8 $-1 $47 forward single #
loop $-1 $-1 $48 $22 #
cone-surface $-1 -21.213203435596441 7.0710678118654311 0 0 0 -1 -2.4868995751603507e-014 5.0000000000000036 0 1 I I 0 1 5.0000000000000036 forward I I I I #
coedge $49 $50 $51 $52 $53 reversed $23 $-1 #
model_id-kcp-attrib $-1 $-1 $-1 $25 1 1017635151 70 -1320812542 3 #
face $54 $55 $56 $17 $-1 $57 reversed single #
loop $-1 $-1 $58 $25 #
plane-surface $-1 0 0 10 0 0 1 1 0 0 forward_v I I I I #
face $-1 $59 $60 $19 $-1 $40 reversed single #
loop $-1 $-1 $61 $26 #
cone-surface $-1 -14.142135623730919 2.9289321881344854 -10 0 0 -1 -3.5355339059327306 -3.5355339059327475 0 1 I I 0 1 5.0000000000000018 forward I I I I #
aggregate_isospline_attribute-aggregate_geombuild_base_attribute-aggregate_body_attribute-attrib_HH-attrib $-1 $62 $27 $0 F #
attrib_hh_face_geombuild-attrib_entity_geombuild-individual_entity_attribute-attrib_HH-attrib $-1 $-1 $28 $16 F #
attrib_hh_face_geombuild-attrib_entity_geombuild-individual_entity_attribute-attrib_HH-attrib $-1 $-1 $29 $22 F #
model_id-kcp-attrib $-1 $63 $-1 $30 1 1017635151 70 -1320812543 4 #
face $64 $65 $66 $8 $-1 $67 forward single #
loop $-1 $-1 $68 $30 #
cone-surface $-1 7.0710678118654604 7.0710678118654897 0 0 0 -1 5.0000000000000036 1.0658141036401503e-014 0 1 I I 0 1 5.0000000000000036 forward I I I I #
coedge $69 $70 $71 $72 $73 forward $31 $-1 #
attrib_hh_coedge_geombuild-attrib_entity_geombuild-individual_entity_attribute-attrib_HH-attrib $-1 $-1 $-1 $33 F #
coedge $74 $75 $33 $76 $77 forward $23 $-1 #
coedge $78 $33 $75 $79 $80 reversed $23 $-1 #
coedge $81 $71 $70 $33 $53 forward $31 $-1 #
edge $82 $83 -2.3561944901923666 $84 0.78539816339744672 $33 $85 forward 7 unknown #
model_id-kcp-attrib $-1 $-1 $-1 $35 1 1017635151 70 -1320812542 2 #
face $-1 $86 $87 $17 $-1 $88 reversed single #
loop $-1 $-1 $89 $35 #
plane-surface $-1 0 0 -10 0 0 1 1 0 0 forward_v I I I I #
coedge $-1 $90 $91 $92 $93 forward $36 $-1 #
face $-1 $94 $95 $19 $-1 $96 reversed single #
loop $-1 $-1 $97 $38 #
coedge $-1 $98 $99 $100 $101 reversed $39 $-1 #
aggregate_analytic_solver_attribute-aggregate_geombuild_base_attribute-aggregate_body_attribute-attrib_HH-attrib $-1 $102 $41 $0 F #
attrib_hh_face_geombuild-attrib_entity_geombuild-individual_entity_attribute-attrib_HH-attrib $-1 $-1 $44 $30 F #
model_id-kcp-attrib $-1 $103 $-1 $45 1 1017635151 70 -1320812543 5 #
face $104 $105 $106 $8 $-1 $107 forward single #
loop $-1 $-1 $108 $45 #
cone-surface $-1 -7.0710678118655483 21.213203435596384 0 0 0 1 3.1974423109204508e-014 -14.999999999999982 0 1 I I 0 -1 14.999999999999982 forward I I I I #
coedge $109 $110 $111 $112 $113 forward $46 $-1 #
attrib_hh_coedge_geombuild-attrib_entity_geombuild-individual_entity_attribute-attrib_HH-attrib $-1 $-1 $-1 $48 F #
coedge $114 $52 $48 $115 $116 forward $31 $-1 #
coedge $117 $48 $52 $118 $119 reversed $31 $-1 #
coedge $120 $121 $122 $48 $73 reversed $123 $-1 #
edge $124 $125 -2.3561944901923422 $126 0.78539816339747137 $72 $127 forward 7 unknown #
attrib_hh_coedge_geombuild-attrib_entity_geombuild-individual_entity_attribute-attrib_HH-attrib $-1 $-1 $-1 $50 F #
coedge $128 $51 $50 $129 $130 reversed $23 $-1 #
coedge $131 $115 $108 $50 $77 reversed $66 $-1 #
edge $132 $83 -0.78539816339744162 $133 0.78539816339744817 $50 $134 forward 7 unknown #
attrib_hh_coedge_geombuild-attrib_entity_geombuild-individual_entity_attribute-attrib_HH-attrib $-1 $-1 $-1 $51 F #
coedge $135 $136 $118 $51 $80 forward $106 $-1 #
edge $137 $84 -0.78539816339744828 $138 0.78539816339744828 $51 $139 forward 7 unknown #
attrib_hh_coedge_geombuild-attrib_entity_geombuild-individual_entity_attribute-attrib_HH-attrib $-1 $-1 $-1 $52 F #
attrib_edge_convexity-kcp-attrib $-1 $140 $-1 $53 1 #
vertex $141 $53 $142 #
vertex $143 $119 $144 #
ellipse-curve $-1 -21.213203435596512 7.07106781186536 -10 0 0 1 -4.9999999999999964 -1.7763568394002505e-014 0 1 I I #
face $-1 $145 $146 $17 $-1 $147 reversed single #
loop $-1 $-1 $148 $55 #
plane-surface $-1 0 -7.9289321881345476 0 0 1 0 0 0 1 forward_v I I I I #
coedge $-1 $149 $150 $151 $152 forward $56 $-1 #
coedge $-1 $153 $58 $154 $155 forward $36 $-1 #
coedge $-1 $58 $153 $156 $157 forward $36 $-1 #
coedge $-1 $158 $159 $58 $93 reversed $160 $-1 #
edge $-1 $161 -7.9289321881345476 $162 7.9289321881345476 $92 $163 forward 7 unknown #
face $-1 $164 $165 $19 $-1 $96 reversed single #
loop $-1 $-1 $166 $59 #
cone-surface $-1 14.142135623730983 2.928932188134544 -10 0 0 -1 -3.5355339059327751 3.535533905932704 0 1 I I 0 1 5.0000000000000027 forward I I I I #
coedge $-1 $167 $168 $169 $170 reversed $60 $-1 #
coedge $-1 $171 $61 $172 $173 reversed $39 $-1 #
coedge $-1 $61 $171 $174 $175 reversed $39 $-1 #
coedge $-1 $176 $177 $61 $101 forward $178 $-1 #
edge $-1 $179 -0.78539816339745072 $180 3.5527136788005001e-016 $100 $181 forward 7 unknown #
aggregate_geombuild_attribute-aggregate_geombuild_base_attribute-aggregate_body_attribute-attrib_HH-attrib $-1 $182 $62 $0 #
attrib_hh_face_geombuild-attrib_entity_geombuild-individual_entity_attribute-attrib_HH-attrib $-1 $-1 $64 $45 F #
model_id-kcp-attrib $-1 $183 $-1 $65 1 1017635151 70 -1320812543 6 #
face $184 $-1 $123 $8 $-1 $185 forward single #
loop $-1 $-1 $136 $65 #
cone-surface $-1 -7.071067811865519 21.213203435596412 0 0 0 -1 5.1514348342607263e-014 -25.000000000000014 0 1 I I 0 1 25.000000000000014 forward I I I I #
coedge $186 $76 $187 $111 $188 forward $66 $-1 #
attrib_hh_coedge_geombuild-attrib_entity_geombuild-individual_entity_attribute-attrib_HH-attrib $-1 $-1 $-1 $68 F #
coedge $189 $129 $68 $136 $190 forward $46 $-1 #
coedge $191 $68 $129 $108 $188 reversed $46 $-1 #
coedge $192 $122 $121 $68 $113 reversed $123 $-1 #
edge $193 $194 -2.3561944901923528 $195 0.78539816339744828 $112 $196 forward 7 unknown #
attrib_hh_coedge_geombuild-attrib_entity_geombuild-individual_entity_attribute-attrib_HH-attrib $-1 $-1 $-1 $70 F #
coedge $197 $187 $76 $70 $116 reversed $66 $-1 #
edge $198 $126 -10 $83 10 $115 $199 reversed 7 unknown #
attrib_hh_coedge_geombuild-attrib_entity_geombuild-individual_entity_attribute-attrib_HH-attrib $-1 $-1 $-1 $71 F #
coedge $200 $79 $201 $71 $119 forward $106 $-1 #
edge $202 $125 -10 $84 10 $118 $203 forward 7 unknown #
attrib_hh_coedge_geombuild-attrib_entity_geombuild-individual_entity_attribute-attrib_HH-attrib $-1 $-1 $-1 $72 F #
coedge $204 $112 $72 $201 $205 reversed $123 $-1 #
coedge $206 $72 $112 $187 $207 forward $123 $-1 #
loop $-1 $-1 $72 $105 #
attrib_hh_edge_geombuild-attrib_entity_geombuild-individual_entity_attribute-attrib_HH-attrib $-1 $-1 $-1 $73 F #
vertex $208 $73 $209 #
vertex $210 $73 $211 #
ellipse-curve $-1 -21.213203435596441 7.0710678118654311 10 0 0 -1 -2.4868995751603507e-014 5.0000000000000036 0 1 I I #
attrib_hh_coedge_geombuild-attrib_entity_geombuild-individual_entity_attribute-attrib_HH-attrib $-1 $-1 $-1 $75 F #
coedge $212 $111 $110 $75 $130 forward $46 $-1 #
edge $213 $138 -2.3561944901923448 $133 0.78539816339745627 $75 $214 forward 7 unknown #
attrib_hh_coedge_geombuild-attrib_entity_geombuild-individual_entity_attribute-attrib_HH-attrib $-1 $-1 $-1 $76 F #
attrib_edge_convexity-kcp-attrib $-1 $215 $-1 $77 1 #
vertex $216 $130 $217 #
ellipse-curve $-1 -7.0710678118655483 21.213203435596384 -10 0 0 1 3.1974423109204508e-014 -14.999999999999982 0 1 I I #
attrib_hh_coedge_geombuild-attrib_entity_geombuild-individual_entity_attribute-attrib_HH-attrib $-1 $-1 $-1 $79 F #
coedge $218 $201 $79 $110 $190 reversed $106 $-1 #
attrib_edge_convexity-kcp-attrib $-1 $219 $-1 $80 1 #
vertex $220 $130 $221 #
ellipse-curve $-1 -7.071067811865519 21.213203435596412 -10 0 0 1 5.1514348342607263e-014 -25.000000000000014 0 1 I I #
convexity-sys-attrib $-1 $222 $82 $53 #
attrib_hh_vertex_geombuild-attrib_entity_geombuild-individual_entity_attribute-attrib_HH-attrib $-1 $-1 $-1 $83 F #
point $-1 -17.67766952966366 10.606601717798084 -10 #
attrib_hh_vertex_geombuild-attrib_entity_geombuild-individual_entity_attribute-attrib_HH-attrib $-1 $-1 $-1 $84 F #
point $-1 -24.748737341529171 3.5355339059326862 -10 #
face $-1 $223 $224 $17 $-1 $225 reversed single #
loop $-1 $-1 $226 $86 #
plane-surface $-1 -19.142135623730987 0 0 1 0 0 0 0 -1 forward_v I I I I #
coedge $-1 $227 $156 $228 $229 forward $87 $-1 #
coedge $-1 $230 $89 $227 $231 forward $56 $-1 #
coedge $-1 $89 $230 $232 $233 forward $56 $-1 #
coedge $-1 $159 $158 $89 $152 reversed $160 $-1 #
edge $-1 $234 -7.9289321881345476 $235 7.9289321881345476 $151 $236 forward 7 unknown #
coedge $-1 $91 $90 $237 $238 forward $36 $-1 #
coedge $-1 $239 $240 $90 $155 reversed $224 $-1 #
edge $-1 $162 -19.142135623730987 $241 19.142135623730987 $154 $242 forward 7 unknown #
coedge $-1 $148 $243 $91 $157 reversed $87 $-1 #
edge $-1 $244 -19.142135623730987 $161 19.142135623730987 $156 $245 forward 7 unknown #
coedge $-1 $151 $92 $243 $246 forward $160 $-1 #
coedge $-1 $92 $151 $239 $247 reversed $160 $-1 #
loop $-1 $-1 $158 $223 #
vertex $-1 $93 $248 #
vertex $-1 $93 $249 #
straight-curve $-1 19.142135623730987 0 10 0 1 0 I I #
face $-1 $250 $251 $19 $-1 $252 reversed single #
loop $-1 $-1 $253 $94 #
coedge $-1 $254 $255 $256 $257 reversed $95 $-1 #
coedge $-1 $258 $97 $259 $260 forward $60 $-1 #
coedge $-1 $97 $258 $261 $262 forward $60 $-1 #
coedge $-1 $263 $264 $97 $170 forward $265 $-1 #
edge $-1 $266 -3.1415926535898131 $267 -2.3561944901923475 $169 $181 forward 7 unknown #
coedge $-1 $99 $98 $268 $269 reversed $39 $-1 #
coedge $-1 $270 $271 $272 $173 forward $273 $-1 #
edge $-1 $274 -20 $179 0 $172 $275 forward 7 unknown #
coedge $-1 $276 $277 $99 $175 forward $278 $-1 #
edge $-1 $180 0 $279 20 $99 $280 forward 7 unknown #
coedge $-1 $281 $100 $277 $282 forward $178 $-1 #
coedge $-1 $100 $281 $270 $283 forward $178 $-1 #
loop $-1 $-1 $100 $284 #
vertex $-1 $285 $286 #
vertex $-1 $101 $287 #
ellipse-curve $-1 -14.142135623730919 2.9289321881344854 -10 0 0 1 -3.5355339059327306 -3.5355339059327475 0 1 I I #
aggregate_stitch_attribute-aggregate_stitch_base_attribute-aggregate_body_attribute-attrib_HH-attrib $-1 $288 $102 $0 F #
attrib_hh_face_geombuild-attrib_entity_geombuild-individual_entity_attribute-attrib_HH-attrib $-1 $-1 $104 $65 F #
model_id-kcp-attrib $-1 $289 $-1 $105 1 1017635151 70 -1320812543 7 #
plane-surface $-1 0 0 10 0 0 1 0.70710678118654602 0.70710678118654902 0 forward_v I I I I #
attrib_hh_coedge_geombuild-attrib_entity_geombuild-individual_entity_attribute-attrib_HH-attrib $-1 $-1 $-1 $108 F #
coedge $290 $108 $115 $122 $207 reversed $66 $-1 #
edge $291 $194 -10 $133 10 $108 $292 forward 7 unknown #
attrib_hh_coedge_geombuild-attrib_entity_geombuild-individual_entity_attribute-attrib_HH-attrib $-1 $-1 $-1 $110 F #
edge $293 $195 -10 $138 10 $136 $294 reversed 7 unknown #
attrib_hh_coedge_geombuild-attrib_entity_geombuild-individual_entity_attribute-attrib_HH-attrib $-1 $-1 $-1 $111 F #
attrib_hh_coedge_geombuild-attrib_entity_geombuild-individual_entity_attribute-attrib_HH-attrib $-1 $-1 $-1 $112 F #
attrib_hh_edge_geombuild-attrib_entity_geombuild-individual_entity_attribute-attrib_HH-attrib $-1 $-1 $-1 $113 F #
vertex $295 $113 $296 #
vertex $297 $205 $298 #
ellipse-curve $-1 7.0710678118654604 7.0710678118654897 10 0 0 -1 5.0000000000000036 1.0658141036401503e-014 0 1 I I #
attrib_hh_coedge_geombuild-attrib_entity_geombuild-individual_entity_attribute-attrib_HH-attrib $-1 $-1 $-1 $115 F #
attrib_hh_edge_geombuild-attrib_entity_geombuild-individual_entity_attribute-attrib_HH-attrib $-1 $-1 $-1 $116 F #
straight-curve $-1 -17.67766952966366 10.606601717798084 0 0 0 1 I I #
attrib_hh_coedge_geombuild-attrib_entity_geombuild-individual_entity_attribute-attrib_HH-attrib $-1 $-1 $-1 $118 F #
coedge $299 $118 $136 $121 $205 forward $106 $-1 #
attrib_hh_edge_geombuild-attrib_entity_geombuild-individual_entity_attribute-attrib_HH-attrib $-1 $-1 $-1 $119 F #
straight-curve $-1 -24.748737341529171 3.5355339059326862 0 0 0 -1 I I #
attrib_hh_coedge_geombuild-attrib_entity_geombuild-individual_entity_attribute-attrib_HH-attrib $-1 $-1 $-1 $121 F #
edge $300 $195 -0.78539816339744828 $125 0.78539816339744828 $121 $301 forward 7 unknown #
attrib_hh_coedge_geombuild-attrib_entity_geombuild-individual_entity_attribute-attrib_HH-attrib $-1 $-1 $-1 $122 F #
edge $302 $194 -0.78539816339744817 $126 0.78539816339744162 $122 $303 forward 7 unknown #
attrib_hh_vertex_geombuild-attrib_entity_geombuild-individual_entity_attribute-attrib_HH-attrib $-1 $-1 $-1 $125 F #
point $-1 -24.748737341529171 3.5355339059326862 10 #
attrib_hh_vertex_geombuild-attrib_entity_geombuild-individual_entity_attribute-attrib_HH-attrib $-1 $-1 $-1 $126 F #
point $-1 -17.67766952966366 10.606601717798084 10 #
attrib_hh_coedge_geombuild-attrib_entity_geombuild-individual_entity_attribute-attrib_HH-attrib $-1 $-1 $-1 $129 F #
attrib_edge_convexity-kcp-attrib $-1 $304 $-1 $130 1 #
ellipse-curve $-1 7.0710678118654604 7.0710678118654897 -10 0 0 1 -1.0658141036401503e-014 5.0000000000000036 0 1 I I #
convexity-sys-attrib $-1 $305 $132 $77 #
attrib_hh_vertex_geombuild-attrib_entity_geombuild-individual_entity_attribute-attrib_HH-attrib $-1 $-1 $-1 $133 F #
point $-1 3.5355339059326862 10.606601717798192 -10 #
attrib_hh_coedge_geombuild-attrib_entity_geombuild-individual_entity_attribute-attrib_HH-attrib $-1 $-1 $-1 $136 F #
convexity-sys-attrib $-1 $306 $137 $80 #
attrib_hh_vertex_geombuild-attrib_entity_geombuild-individual_entity_attribute-attrib_HH-attrib $-1 $-1 $-1 $138 F #
point $-1 10.606601717798206 3.5355339059327595 -10 #
attrib_hh_edge_geombuild-attrib_entity_geombuild-individual_entity_attribute-attrib_HH-attrib $-1 $-1 $140 $53 F #
face $-1 $-1 $160 $17 $-1 $307 reversed single #
loop $-1 $-1 $239 $145 #
plane-surface $-1 0 7.9289321881345476 0 0 -1 0 0 0 -1 forward_v I I I I #
coedge $-1 $308 $237 $240 $309 forward $146 $-1 #
coedge $-1 $243 $148 $149 $231 reversed $87 $-1 #
coedge $-1 $237 $308 $148 $229 reversed $146 $-1 #
edge $-1 $244 -10 $310 10 $228 $311 forward 7 unknown #
coedge $-1 $150 $149 $308 $312 forward $56 $-1 #
edge $-1 $235 -19.142135623730987 $310 19.142135623730987 $227 $313 forward 7 unknown #
coedge $-1 $240 $239 $150 $233 reversed $224 $-1 #
edge $-1 $314 -19.142135623730987 $234 19.142135623730987 $232 $315 forward 7 unknown #
vertex $-1 $152 $316 #
vertex $-1 $246 $317 #
straight-curve $-1 19.142135623730987 0 -10 0 -1 0 I I #
coedge $-1 $226 $228 $153 $238 reversed $146 $-1 #
edge $-1 $241 -7.9289321881345476 $244 7.9289321881345476 $237 $318 forward 7 unknown #
coedge $-1 $232 $154 $159 $247 forward $224 $-1 #
coedge $-1 $154 $232 $226 $309 reversed $224 $-1 #
vertex $-1 $155 $319 #
straight-curve $-1 0 7.9289321881345476 10 -1 0 0 I I #
coedge $-1 $156 $227 $158 $246 reversed $87 $-1 #
vertex $-1 $238 $320 #
straight-curve $-1 0 -7.9289321881345476 10 1 0 0 I I #
edge $-1 $161 -10 $235 10 $158 $321 forward 7 unknown #
edge $-1 $162 -10 $234 10 $159 $322 forward 7 unknown #
point $-1 19.142135623730987 -7.9289321881345476 10 #
point $-1 19.142135623730987 7.9289321881345476 10 #
face $-1 $323 $278 $19 $-1 $252 reversed single #
loop $-1 $-1 $324 $164 #
cone-surface $-1 2.6645352591003757e-015 17.071067811865468 -10 0 0 -1 17.677669529663731 -17.677669529663664 0 1 I I 0 1 25.000000000000014 forward I I I I #
coedge $-1 $325 $326 $327 $328 reversed $165 $-1 #
coedge $-1 $329 $166 $330 $331 reversed $95 $-1 #
coedge $-1 $166 $329 $332 $333 reversed $95 $-1 #
coedge $-1 $264 $263 $166 $257 forward $265 $-1 #
edge $-1 $334 -0.78539816339745838 $335 -2.1316282072802975e-016 $256 $336 forward 7 unknown #
coedge $-1 $168 $167 $337 $338 reversed $60 $-1 #
coedge $-1 $339 $340 $167 $260 reversed $341 $-1 #
edge $-1 $266 0 $342 20 $259 $343 forward 7 unknown #
coedge $-1 $344 $345 $346 $262 reversed $347 $-1 #
edge $-1 $348 -20 $267 0 $346 $349 forward 7 unknown #
coedge $-1 $256 $169 $350 $351 forward $265 $-1 #
coedge $-1 $169 $256 $339 $352 forward $265 $-1 #
loop $-1 $-1 $169 $353 #
vertex $-1 $352 $354 #
vertex $-1 $351 $355 #
coedge $-1 $356 $357 $171 $269 forward $358 $-1 #
edge $-1 $279 -3.5527136788005001e-016 $274 0.78539816339745072 $268 $359 forward 7 unknown #
coedge $-1 $360 $172 $177 $283 reversed $273 $-1 #
coedge $-1 $172 $360 $356 $361 reversed $273 $-1 #
coedge $-1 $362 $363 $364 $173 reversed $365 $-1 #
loop $-1 $-1 $172 $366 #
vertex $-1 $361 $367 #
straight-curve $-1 -19.142135623730987 2.9289321881344854 -10 0 0 -1 I I #
coedge $-1 $368 $174 $357 $369 reversed $278 $-1 #
coedge $-1 $174 $368 $176 $282 reversed $278 $-1 #
loop $-1 $-1 $277 $250 #
vertex $-1 $269 $370 #
straight-curve $-1 -17.677669529663646 -0.60660171779826122 -10 0 0 1 I I #
coedge $-1 $177 $176 $371 $372 forward $178 $-1 #
edge $-1 $180 -1.5707963267948963 $373 -0.78539816339745028 $176 $374 forward 7 unknown #
edge $-1 $375 -7.9289321881345476 $179 2.9289321881344854 $270 $376 forward 7 unknown #
face $-1 $377 $178 $19 $-1 $378 reversed single #
edge $-1 $179 2.9289321881344854 $379 7.9289321881345476 $363 $376 forward 7 unknown #
point $-1 -19.142135623730987 2.9289321881344854 -10 #
point $-1 -17.677669529663646 -0.60660171779826122 -10 #
aggregate_simgeom_attribute-aggregate_simgeom_base_attribute-aggregate_body_attribute-attrib_HH-attrib $-1 $-1 $182 $0 F #
attrib_hh_face_geombuild-attrib_entity_geombuild-individual_entity_attribute-attrib_HH-attrib $-1 $-1 $184 $105 F #
attrib_hh_coedge_geombuild-attrib_entity_geombuild-individual_entity_attribute-attrib_HH-attrib $-1 $-1 $-1 $187 F #
attrib_hh_edge_geombuild-attrib_entity_geombuild-individual_entity_attribute-attrib_HH-attrib $-1 $-1 $-1 $188 F #
straight-curve $-1 3.5355339059326862 10.606601717798192 0 0 0 -1 I I #
attrib_hh_edge_geombuild-attrib_entity_geombuild-individual_entity_attribute-attrib_HH-attrib $-1 $-1 $-1 $190 F #
straight-curve $-1 10.606601717798206 3.5355339059327595 0 0 0 1 I I #
attrib_hh_vertex_geombuild-attrib_entity_geombuild-individual_entity_attribute-attrib_HH-attrib $-1 $-1 $-1 $194 F #
point $-1 3.5355339059326862 10.606601717798192 10 #
attrib_hh_vertex_geombuild-attrib_entity_geombuild-individual_entity_attribute-attrib_HH-attrib $-1 $-1 $-1 $195 F #
point $-1 10.606601717798206 3.5355339059327595 10 #
attrib_hh_coedge_geombuild-attrib_entity_geombuild-individual_entity_attribute-attrib_HH-attrib $-1 $-1 $-1 $201 F #
attrib_hh_edge_geombuild-attrib_entity_geombuild-individual_entity_attribute-attrib_HH-attrib $-1 $-1 $-1 $205 F #
ellipse-curve $-1 -7.071067811865519 21.213203435596412 10 0 0 -1 5.1514348342607263e-014 -25.000000000000014 0 1 I I #
attrib_hh_edge_geombuild-attrib_entity_geombuild-individual_entity_attribute-attrib_HH-attrib $-1 $-1 $-1 $207 F #
ellipse-curve $-1 -7.0710678118655483 21.213203435596384 10 0 0 -1 3.1974423109204508e-014 -14.999999999999982 0 1 I I #
convexity-sys-attrib $-1 $380 $213 $130 #
attrib_hh_edge_geombuild-attrib_entity_geombuild-individual_entity_attribute-attrib_HH-attrib $-1 $-1 $215 $77 F #
attrib_hh_edge_geombuild-attrib_entity_geombuild-individual_entity_attribute-attrib_HH-attrib $-1 $-1 $219 $80 F #
plane-surface $-1 19.142135623730987 0 0 -1 0 0 0 0 1 forward_v I I I I #
coedge $-1 $228 $226 $230 $312 reversed $146 $-1 #
edge $-1 $241 -10 $314 10 $240 $381 forward 7 unknown #
vertex $-1 $312 $382 #
straight-curve $-1 -19.142135623730987 -7.9289321881345476 0 0 0 -1 I I #
edge $-1 $310 -7.9289321881345476 $314 7.9289321881345476 $308 $383 forward 7 unknown #
straight-curve $-1 0 -7.9289321881345476 -10 -1 0 0 I I #
vertex $-1 $233 $384 #
straight-curve $-1 0 7.9289321881345476 -10 1 0 0 I I #
point $-1 19.142135623730987 7.9289321881345476 -10 #
point $-1 19.142135623730987 -7.9289321881345476 -10 #
straight-curve $-1 -19.142135623730987 0 10 0 -1 0 I I #
point $-1 -19.142135623730987 7.9289321881345476 10 #
point $-1 -19.142135623730987 -7.9289321881345476 10 #
straight-curve $-1 19.142135623730987 -7.9289321881345476 0 0 0 -1 I I #
straight-curve $-1 19.142135623730987 7.9289321881345476 0 0 0 -1 I I #
face $-1 $385 $341 $19 $-1 $386 reversed single #
coedge $-1 $387 $388 $389 $390 reversed $251 $-1 #
coedge $-1 $391 $253 $388 $392 reversed $165 $-1 #
coedge $-1 $253 $391 $393 $394 forward $165 $-1 #
coedge $-1 $395 $389 $253 $328 forward $396 $-1 #
edge $-1 $397 -3.1415926535898007 $398 -2.3561944901923551 $327 $336 forward 7 unknown #
coedge $-1 $255 $254 $399 $400 reversed $95 $-1 #
coedge $-1 $350 $401 $402 $331 forward $403 $-1 #
edge $-1 $404 -20 $334 0 $330 $405 forward 7 unknown #
coedge $-1 $340 $339 $255 $333 forward $341 $-1 #
edge $-1 $335 0 $406 20 $255 $407 forward 7 unknown #
vertex $-1 $408 $409 #
vertex $-1 $352 $410 #
ellipse-curve $-1 14.142135623730983 2.928932188134544 -10 0 0 1 -3.5355339059327751 3.535533905932704 0 1 I I #
coedge $-1 $411 $412 $258 $338 forward $413 $-1 #
edge $-1 $348 2.3561944901923475 $342 3.1415926535898131 $337 $359 forward 7 unknown #
coedge $-1 $332 $259 $264 $352 reversed $341 $-1 #
coedge $-1 $259 $332 $411 $414 reversed $341 $-1 #
loop $-1 $-1 $339 $323 #
vertex $-1 $414 $415 #
straight-curve $-1 -10.606601717798132 6.4644660940671468 -10 0 0 1 I I #
coedge $-1 $364 $261 $416 $417 reversed $347 $-1 #
coedge $-1 $261 $364 $418 $419 reversed $347 $-1 #
coedge $-1 $420 $421 $422 $262 forward $423 $-1 #
loop $-1 $-1 $344 $385 #
vertex $-1 $424 $425 #
straight-curve $-1 -14.142135623730919 7.9289321881345476 -10 0 0 -1 I I #
coedge $-1 $422 $330 $263 $351 reversed $403 $-1 #
edge $-1 $267 -14.142135623730919 $334 14.142135623730983 $350 $426 forward 7 unknown #
edge $-1 $335 0 $266 1.5707963267948899 $264 $427 forward 7 unknown #
face $-1 $428 $265 $19 $-1 $378 reversed single #
point $-1 -10.606601717798132 6.4644660940671468 -10 #
point $-1 -14.142135623730919 7.9289321881345476 -10 #
coedge $-1 $429 $268 $271 $361 forward $358 $-1 #
coedge $-1 $268 $429 $276 $369 forward $358 $-1 #
loop $-1 $-1 $268 $430 #
ellipse-curve $-1 -14.142135623730919 2.9289321881344854 10 0 0 -1 -3.5355339059327306 -3.5355339059327475 0 1 I I #
coedge $-1 $271 $270 $431 $432 reversed $273 $-1 #
edge $-1 $274 -2.9289321881344854 $433 7.9289321881345476 $271 $434 forward 7 unknown #
coedge $-1 $435 $272 $436 $437 reversed $365 $-1 #
coedge $-1 $272 $435 $438 $285 reversed $365 $-1 #
coedge $-1 $345 $344 $98 $173 forward $347 $-1 #
loop $-1 $-1 $272 $439 #
face $-1 $440 $273 $19 $-1 $441 reversed single #
point $-1 -19.142135623730987 2.9289321881344854 10 #
coedge $-1 $277 $276 $387 $442 forward $278 $-1 #
edge $-1 $443 0.78539816339745028 $279 1.5707963267948963 $357 $444 forward 7 unknown #
point $-1 -17.677669529663646 -0.60660171779826122 10 #
coedge $-1 $445 $431 $281 $372 reversed $446 $-1 #
edge $-1 $373 -2.6645352591003757e-015 $375 19.142135623730987 $371 $447 forward 7 unknown #
vertex $-1 $372 $448 #
ellipse-curve $-1 2.6645352591003757e-015 17.071067811865468 -10 0 0 1 17.677669529663731 -17.677669529663664 0 1 I I #
vertex $-1 $283 $449 #
straight-curve $-1 -19.142135623730987 0 -10 0 1 0 I I #
face $-1 $430 $446 $19 $-1 $450 reversed single #
plane-surface $-1 0 0 -10 0 0 1 1 0 0 forward_v I I I I #
vertex $-1 $451 $452 #
attrib_hh_edge_geombuild-attrib_entity_geombuild-individual_entity_attribute-attrib_HH-attrib $-1 $-1 $304 $130 F #
straight-curve $-1 -19.142135623730987 7.9289321881345476 0 0 0 -1 I I #
point $-1 -19.142135623730987 -7.9289321881345476 -10 #
straight-curve $-1 -19.142135623730987 0 -10 0 1 0 I I #
point $-1 -19.142135623730987 7.9289321881345476 -10 #
face $-1 $453 $347 $19 $-1 $40 reversed single #
cone-surface $-1 -2.5757174171303632e-014 17.07106781186544 -10 0 0 -1 10.606601717798222 -10.606601717798178 0 1 I I 0 -1 14.999999999999982 forward I I I I #
coedge $-1 $454 $324 $455 $442 reversed $251 $-1 #
coedge $-1 $324 $454 $325 $392 forward $251 $-1 #
coedge $-1 $327 $456 $324 $390 forward $396 $-1 #
edge $-1 $373 -0.78539816339745028 $397 9.0949470177292754e-017 $389 $374 forward 7 unknown #
coedge $-1 $326 $325 $457 $458 reversed $165 $-1 #
edge $-1 $459 -20 $397 0 $325 $460 forward 7 unknown #
coedge $-1 $461 $462 $463 $394 reversed $464 $-1 #
edge $-1 $465 -20 $398 0 $463 $466 forward 7 unknown #
coedge $-1 $456 $327 $467 $468 forward $396 $-1 #
loop $-1 $-1 $327 $469 #
vertex $-1 $390 $470 #
vertex $-1 $468 $471 #
coedge $-1 $412 $411 $329 $400 forward $413 $-1 #
edge $-1 $406 2.1316282072802975e-016 $404 0.78539816339745838 $399 $472 forward 7 unknown #
coedge $-1 $330 $422 $412 $473 reversed $403 $-1 #
coedge $-1 $474 $475 $476 $331 reversed $477 $-1 #
loop $-1 $-1 $422 $478 #
vertex $-1 $473 $479 #
straight-curve $-1 14.142135623730983 7.9289321881345476 -10 0 0 -1 I I #
vertex $-1 $414 $480 #
straight-curve $-1 10.606601717798208 6.4644660940672498 -10 0 0 1 I I #
edge $-1 $334 14.142135623730983 $481 19.142135623730987 $475 $426 forward 7 unknown #
point $-1 14.142135623730983 7.9289321881345476 -10 #
point $-1 10.606601717798208 6.4644660940672498 -10 #
coedge $-1 $399 $337 $340 $414 forward $413 $-1 #
coedge $-1 $337 $399 $401 $473 forward $413 $-1 #
loop $-1 $-1 $337 $482 #
edge $-1 $342 -1.5707963267948899 $406 0 $411 $483 forward 7 unknown #
point $-1 -10.606601717798132 6.4644660940671468 10 #
coedge $-1 $484 $436 $344 $417 forward $485 $-1 #
edge $-1 $274 0.78539816339745072 $348 2.3561944901923475 $416 $359 forward 7 unknown #
coedge $-1 $438 $486 $345 $419 forward $487 $-1 #
edge $-1 $267 -2.3561944901923475 $179 -0.78539816339745072 $418 $181 forward 7 unknown #
coedge $-1 $488 $346 $486 $451 reversed $423 $-1 #
coedge $-1 $346 $488 $484 $424 reversed $423 $-1 #
coedge $-1 $401 $350 $168 $262 reversed $403 $-1 #
loop $-1 $-1 $346 $440 #
edge $-1 $348 14.142135623730919 $489 19.142135623730987 $421 $490 forward 7 unknown #
point $-1 -14.142135623730919 7.9289321881345476 10 #
straight-curve $-1 0 7.9289321881345476 -10 1 0 0 I I #
ellipse-curve $-1 -2.5757174171303632e-014 17.07106781186544 -10 0 0 -1 10.606601717798222 -10.606601717798178 0 1 I I #
face $-1 $284 $487 $19 $-1 $378 reversed single #
coedge $-1 $357 $356 $491 $492 forward $358 $-1 #
face $-1 $493 $358 $19 $-1 $494 forward single #
coedge $-1 $371 $491 $360 $432 forward $446 $-1 #
edge $-1 $433 -10 $375 10 $360 $495 forward 7 unknown #
vertex $-1 $361 $496 #
straight-curve $-1 -19.142135623730987 0 10 0 -1 0 I I #
coedge $-1 $363 $362 $488 $497 forward $365 $-1 #
coedge $-1 $416 $484 $362 $437 forward $485 $-1 #
edge $-1 $489 -7.9289321881345476 $274 -2.9289321881344854 $362 $434 forward 7 unknown #
coedge $-1 $486 $418 $363 $285 forward $487 $-1 #
face $-1 $498 $365 $19 $-1 $441 reversed single #
face $-1 $499 $423 $19 $-1 $500 reversed single #
plane-surface $-1 -19.142135623730987 0 0 1 0 0 0 0 -1 forward_v I I I I #
edge $-1 $443 -20 $373 0 $455 $501 forward 7 unknown #
vertex $-1 $502 $503 #
ellipse-curve $-1 2.6645352591003757e-015 17.071067811865468 10 0 0 -1 17.677669529663731 -17.677669529663664 0 1 I I #
coedge $-1 $491 $371 $368 $442 reversed $446 $-1 #
loop $-1 $-1 $445 $377 #
straight-curve $-1 0 -7.9289321881345476 -10 -1 0 0 I I #
point $-1 2.6645352591003757e-015 -7.9289321881345458 -10 #
point $-1 -19.142135623730987 -7.9289321881345476 -10 #
plane-surface $-1 0 -7.9289321881345476 0 0 1 0 0 0 1 forward_v I I I I #
edge $-1 $379 -19.142135623730987 $267 -14.142135623730919 $420 $426 forward 7 unknown #
point $-1 -19.142135623730987 7.9289321881345476 -10 #
face $-1 $439 $464 $19 $-1 $96 reversed single #
coedge $-1 $388 $387 $504 $505 reversed $251 $-1 #
coedge $-1 $506 $507 $445 $442 forward $508 $-1 #
coedge $-1 $389 $395 $506 $509 forward $396 $-1 #
coedge $-1 $504 $510 $391 $458 forward $511 $-1 #
edge $-1 $465 2.3561944901923551 $459 3.1415926535898007 $457 $472 forward 7 unknown #
vertex $-1 $505 $512 #
straight-curve $-1 17.677669529663731 -0.60660171779818706 -10 0 0 -1 I I #
coedge $-1 $476 $393 $513 $514 reversed $464 $-1 #
coedge $-1 $393 $476 $515 $516 reversed $464 $-1 #
coedge $-1 $517 $518 $519 $394 forward $520 $-1 #
loop $-1 $-1 $393 $453 #
vertex $-1 $521 $522 #
straight-curve $-1 19.142135623730987 2.928932188134544 -10 0 0 -1 I I #
coedge $-1 $519 $523 $395 $468 reversed $524 $-1 #
edge $-1 $398 -2.928932188134544 $525 7.9289321881345476 $467 $526 forward 7 unknown #
face $-1 $527 $396 $19 $-1 $378 reversed single #
point $-1 17.677669529663731 -0.60660171779818706 -10 #
point $-1 19.142135623730987 2.928932188134544 -10 #
ellipse-curve $-1 14.142135623730983 2.928932188134544 10 0 0 -1 -3.5355339059327751 3.535533905932704 0 1 I I #
edge $-1 $404 -14.142135623730983 $348 14.142135623730919 $401 $490 forward 7 unknown #
coedge $-1 $528 $402 $529 $530 reversed $477 $-1 #
coedge $-1 $402 $528 $531 $408 reversed $477 $-1 #
coedge $-1 $462 $461 $254 $331 forward $464 $-1 #
loop $-1 $-1 $402 $498 #
face $-1 $532 $403 $19 $-1 $500 reversed single #
point $-1 14.142135623730983 7.9289321881345476 10 #
point $-1 10.606601717798208 6.4644660940672498 10 #
vertex $-1 $533 $534 #
face $-1 $535 $413 $19 $-1 $494 forward single #
ellipse-curve $-1 -2.5757174171303632e-014 17.07106781186544 10 0 0 1 10.606601717798222 -10.606601717798178 0 1 I I #
coedge $-1 $436 $416 $421 $424 forward $485 $-1 #
loop $-1 $-1 $416 $493 #
coedge $-1 $418 $438 $420 $451 forward $487 $-1 #
loop $-1 $-1 $418 $428 #
coedge $-1 $421 $420 $435 $497 reversed $423 $-1 #
vertex $-1 $424 $536 #
straight-curve $-1 0 7.9289321881345476 10 -1 0 0 I I #
coedge $-1 $431 $445 $429 $492 reversed $446 $-1 #
edge $-1 $433 -19.142135623730987 $443 2.6645352591003757e-015 $491 $537 forward 7 unknown #
face $-1 $482 $485 $19 $-1 $494 forward single #
plane-surface $-1 0 0 10 0 0 1 1 0 0 forward_v I I I I #
straight-curve $-1 -19.142135623730987 -7.9289321881345476 0 0 0 -1 I I #
point $-1 -19.142135623730987 -7.9289321881345476 10 #
edge $-1 $489 -10 $379 10 $488 $538 forward 7 unknown #
face $-1 $478 $477 $19 $-1 $500 reversed single #
face $-1 $-1 $520 $19 $-1 $539 reversed single #
plane-surface $-1 0 7.9289321881345476 0 0 -1 0 0 0 -1 forward_v I I I I #
straight-curve $-1 2.6645352591003757e-015 -7.9289321881345458 -10 0 0 -1 I I #
edge $-1 $443 2.6645352591003757e-015 $540 19.142135623730987 $507 $537 forward 7 unknown #
point $-1 2.6645352591003757e-015 -7.9289321881345458 10 #
coedge $-1 $541 $457 $454 $505 forward $511 $-1 #
edge $-1 $459 -9.0949470177292754e-017 $443 0.78539816339745028 $504 $444 forward 7 unknown #
coedge $-1 $542 $455 $456 $509 reversed $508 $-1 #
coedge $-1 $455 $542 $541 $502 reversed $508 $-1 #
loop $-1 $-1 $455 $543 #
edge $-1 $525 -19.142135623730987 $373 -2.6645352591003757e-015 $506 $447 forward 7 unknown #
coedge $-1 $457 $541 $544 $545 forward $511 $-1 #
loop $-1 $-1 $457 $546 #
point $-1 17.677669529663731 -0.60660171779818706 10 #
coedge $-1 $547 $529 $461 $514 forward $548 $-1 #
edge $-1 $404 0.78539816339745838 $465 2.3561944901923551 $513 $472 forward 7 unknown #
coedge $-1 $531 $549 $462 $516 forward $550 $-1 #
edge $-1 $398 -2.3561944901923551 $334 -0.78539816339745838 $515 $336 forward 7 unknown #
coedge $-1 $551 $463 $549 $533 reversed $520 $-1 #
coedge $-1 $463 $551 $547 $521 reversed $520 $-1 #
coedge $-1 $544 $467 $326 $394 reversed $524 $-1 #
loop $-1 $-1 $463 $499 #
edge $-1 $465 2.928932188134544 $552 7.9289321881345476 $518 $553 forward 7 unknown #
point $-1 19.142135623730987 2.928932188134544 10 #
coedge $-1 $467 $544 $542 $554 forward $524 $-1 #
loop $-1 $-1 $519 $532 #
vertex $-1 $554 $555 #
straight-curve $-1 19.142135623730987 0 -10 0 -1 0 I I #
face $-1 $353 $550 $19 $-1 $378 reversed single #
coedge $-1 $475 $474 $551 $556 forward $477 $-1 #
coedge $-1 $513 $547 $474 $530 forward $548 $-1 #
edge $-1 $552 -19.142135623730987 $404 -14.142135623730983 $474 $490 forward 7 unknown #
coedge $-1 $549 $515 $475 $408 forward $550 $-1 #
face $-1 $469 $524 $19 $-1 $539 reversed single #
edge $-1 $481 -7.9289321881345476 $398 -2.928932188134544 $517 $526 forward 7 unknown #
point $-1 19.142135623730987 7.9289321881345476 -10 #
face $-1 $546 $548 $19 $-1 $494 forward single #
point $-1 -19.142135623730987 7.9289321881345476 10 #
straight-curve $-1 0 -7.9289321881345476 10 1 0 0 I I #
straight-curve $-1 -19.142135623730987 7.9289321881345476 0 0 0 -1 I I #
plane-surface $-1 19.142135623730987 0 0 -1 0 0 0 0 1 forward_v I I I I #
vertex $-1 $545 $557 #
coedge $-1 $510 $504 $507 $502 forward $511 $-1 #
coedge $-1 $507 $506 $523 $554 reversed $508 $-1 #
face $-1 $366 $508 $19 $-1 $450 reversed single #
coedge $-1 $523 $519 $510 $545 reversed $524 $-1 #
edge $-1 $540 -7.9289321881345476 $465 2.928932188134544 $544 $553 forward 7 unknown #
face $-1 $543 $511 $19 $-1 $494 forward single #
coedge $-1 $529 $513 $518 $521 forward $548 $-1 #
loop $-1 $-1 $513 $535 #
coedge $-1 $515 $531 $517 $533 forward $550 $-1 #
loop $-1 $-1 $515 $527 #
coedge $-1 $518 $517 $528 $556 reversed $520 $-1 #
vertex $-1 $521 $558 #
straight-curve $-1 19.142135623730987 0 10 0 1 0 I I #
edge $-1 $540 -10 $525 10 $523 $559 forward 7 unknown #
point $-1 19.142135623730987 -7.9289321881345476 -10 #
edge $-1 $552 -10 $481 10 $551 $560 forward 7 unknown #
point $-1 19.142135623730987 -7.9289321881345476 10 #
point $-1 19.142135623730987 7.9289321881345476 10 #
straight-curve $-1 19.142135623730987 -7.9289321881345476 0 0 0 -1 I I #
straight-curve $-1 19.142135623730987 7.9289321881345476 0 0 0 -1 I I #
End-of-ACIS-data 