700 0 2 0           
24 FBMach with ACIS - 7.0.3 13 ACIS 7.0.3 NT 24 Mon May 13 17:07:01 2002 
1 9.9999999999999995e-007 1e-010 
body $2 -1 $-1 $3 $-1 $4 #
bdycol-kcp $-1 -1 1 4 $5 $6 $7 $8 #
model_id-kcp-attrib $-1 -1 $9 $-1 $0 1 1021324020 1021324020 1266483201 1 #
lump $-1 -1 $-1 $-1 $10 $0 #
transform $-1 -1 1 0 0 0 1 0 0 0 1 0 0 0 1 rotate no_reflect no_shear #
body $11 -1 $-1 $12 $-1 $13 #
body $14 -1 $-1 $15 $-1 $16 #
body $17 -1 $-1 $18 $-1 $19 #
body $20 -1 $-1 $21 $-1 $22 #
rgb_color-st-attrib $-1 -1 $-1 $2 $0 0 1 0 #
shell $-1 -1 $-1 $-1 $-1 $23 $-1 $3 #
model_id-kcp-attrib $-1 -1 $-1 $-1 $5 1 1021324020 1021324020 1266483202 1 #
lump $-1 -1 $-1 $-1 $24 $5 #
transform $-1 -1 1 0 0 0 1 0 0 0 1 0 12.5 0 1 no_rotate no_reflect no_shear #
rgb_color-st-attrib $-1 -1 $25 $-1 $6 0.5 1 1 #
lump $-1 -1 $-1 $-1 $26 $6 #
transform $-1 -1 1 0 0 0 -3.8285889215894375e-016 -1 0 1 -3.8285889215894375e-016 -21 2.4999999999999996 1.9721522630525295e-031 1 rotate no_reflect no_shear #
rgb_color-st-attrib $-1 -1 $27 $-1 $7 0.5 1 1 #
lump $-1 -1 $-1 $-1 $28 $7 #
transform $-1 -1 1 0 0 0 -3.8285889215894375e-016 -1 0 1 -3.8285889215894375e-016 21 2.4999999999999996 1.9721522630525295e-031 1 rotate no_reflect no_shear #
rgb_color-st-attrib $-1 -1 $29 $-1 $8 0.5 1 1 #
lump $-1 -1 $-1 $30 $31 $8 #
transform $-1 -1 1 0 0 0 1 0 0 0 1 0 12.5 0 1 no_rotate no_reflect no_shear #
face $32 -1 $-1 $33 $34 $10 $-1 $35 reversed single #
shell $-1 -1 $-1 $-1 $-1 $36 $-1 $12 #
model_id-kcp-attrib $-1 -1 $-1 $14 $6 1 1021324020 1021324020 1269760003 1 #
shell $-1 -1 $-1 $-1 $-1 $37 $-1 $15 #
model_id-kcp-attrib $-1 -1 $-1 $17 $7 1 1021324020 1021324020 1270415364 1 #
shell $-1 -1 $-1 $-1 $-1 $38 $-1 $18 #
model_id-kcp-attrib $-1 -1 $-1 $20 $8 1 1021324020 1021324021 1260453893 1 #
lump $-1 -1 $-1 $-1 $39 $8 #
shell $-1 -1 $-1 $-1 $-1 $40 $-1 $21 #
model_id-kcp-attrib $-1 -1 $-1 $-1 $23 1 1021324020 1021324020 1266483201 2 #
face $41 -1 $-1 $42 $43 $10 $-1 $44 reversed single #
loop $-1 -1 $-1 $45 $46 $23 #
cone-surface $-1 -1 $-1 -21 2.5 0 0 1 0 1 0 0 1 I I 0 1 1 forward I I I I #
face $47 -1 $-1 $48 $49 $24 $-1 $50 forward single #
face $-1 -1 $-1 $51 $52 $26 $-1 $53 forward single #
face $-1 -1 $-1 $54 $55 $28 $-1 $56 forward single #
shell $-1 -1 $-1 $-1 $-1 $57 $-1 $30 #
face $-1 -1 $-1 $58 $59 $31 $-1 $60 reversed single #
model_id-kcp-attrib $-1 -1 $-1 $-1 $33 1 1021324020 1021324020 1266483201 3 #
face $61 -1 $-1 $62 $63 $10 $-1 $64 reversed single #
loop $-1 -1 $-1 $-1 $65 $33 #
plane-surface $-1 -1 $-1 -21 5 0 0 1 0 1 0 0 forward_v I I I I #
loop $-1 -1 $-1 $-1 $66 $23 #
coedge $-1 -1 $-1 $46 $46 $67 $68 reversed $34 $-1 #
model_id-kcp-attrib $-1 -1 $-1 $-1 $36 1 1021324020 1021324020 1266483202 5 #
face $69 -1 $-1 $70 $71 $24 $-1 $72 reversed single #
loop $-1 -1 $-1 $-1 $73 $36 #
plane-surface $-1 -1 $-1 0 0 2.5 0 0 1 1 0 0 forward_v I I I I #
face $-1 -1 $-1 $74 $75 $26 $-1 $76 forward single #
loop $-1 -1 $-1 $77 $78 $37 #
cone-surface $-1 -1 $-1 0 0 0 0 0 1 1 0 0 1 I I 0 1 1 forward I I I I #
face $-1 -1 $-1 $79 $80 $28 $-1 $81 forward single #
loop $-1 -1 $-1 $82 $83 $38 #
cone-surface $-1 -1 $-1 0 0 0 0 0 1 1 0 0 1 I I 0 1 1 forward I I I I #
face $-1 -1 $-1 $84 $85 $39 $-1 $86 reversed single #
face $-1 -1 $-1 $87 $88 $31 $-1 $89 forward single #
loop $-1 -1 $-1 $-1 $90 $40 #
cone-surface $-1 -1 $-1 0 -12.5 -2.5 0 0 -1 -12 1.7763568394002505e-015 0 1 I I 0 -1 12 forward I I I I #
model_id-kcp-attrib $-1 -1 $-1 $-1 $42 1 1021324020 1021324020 1266483201 4 #
face $91 -1 $-1 $92 $93 $10 $-1 $94 reversed single #
loop $-1 -1 $-1 $95 $96 $42 #
cone-surface $-1 -1 $-1 21 2.5 0 0 1 0 1 0 0 1 I I 0 1 1 forward I I I I #
coedge $-1 -1 $-1 $65 $65 $66 $97 reversed $43 $-1 #
coedge $-1 -1 $-1 $66 $66 $65 $97 forward $45 $-1 #
coedge $-1 -1 $-1 $67 $67 $46 $68 forward $98 $-1 #
edge $99 -1 $-1 $100 0 $100 6.2831853071795862 $67 $101 forward @7 unknown #
model_id-kcp-attrib $-1 -1 $-1 $-1 $48 1 1021324020 1021324020 1266483202 2 #
face $102 -1 $-1 $103 $104 $24 $-1 $105 reversed single #
loop $-1 -1 $-1 $-1 $106 $48 #
plane-surface $-1 -1 $-1 0 0 -2.5 0 0 1 1 0 0 forward_v I I I I #
coedge $-1 -1 $-1 $107 $108 $109 $110 forward $49 $-1 #
face $-1 -1 $-1 $-1 $111 $26 $-1 $112 forward single #
loop $-1 -1 $-1 $-1 $113 $51 #
plane-surface $-1 -1 $-1 0 0 -2.5 0 0 -1 -1 0 0 forward_v I I I I #
loop $-1 -1 $-1 $-1 $114 $37 #
coedge $-1 -1 $-1 $78 $78 $113 $115 reversed $52 $-1 #
face $-1 -1 $-1 $-1 $116 $28 $-1 $117 forward single #
loop $-1 -1 $-1 $-1 $118 $54 #
plane-surface $-1 -1 $-1 0 0 -2.5 0 0 -1 -1 0 0 forward_v I I I I #
loop $-1 -1 $-1 $-1 $119 $38 #
coedge $-1 -1 $-1 $83 $83 $118 $120 reversed $55 $-1 #
face $-1 -1 $-1 $121 $122 $39 $-1 $123 reversed single #
loop $-1 -1 $-1 $-1 $124 $57 #
plane-surface $-1 -1 $-1 25 0 0 -1 0 0 0 0 1 forward_v I I I I #
face $-1 -1 $-1 $125 $126 $31 $-1 $127 reversed single #
loop $-1 -1 $-1 $-1 $128 $58 #
plane-surface $-1 -1 $-1 0 0 2.5 0 0 1 1 0 0 forward_v I I I I #
coedge $-1 -1 $-1 $129 $130 $128 $131 reversed $59 $-1 #
model_id-kcp-attrib $-1 -1 $-1 $-1 $62 1 1021324020 1021324020 1266483201 5 #
face $132 -1 $-1 $133 $134 $10 $-1 $135 reversed single #
loop $-1 -1 $-1 $-1 $136 $62 #
plane-surface $-1 -1 $-1 21 5 0 0 1 0 1 0 0 forward_v I I I I #
loop $-1 -1 $-1 $-1 $137 $42 #
coedge $-1 -1 $-1 $96 $96 $138 $139 reversed $63 $-1 #
edge $140 -1 $-1 $141 0 $141 6.2831853071795862 $65 $142 forward @7 unknown #
loop $-1 -1 $-1 $143 $67 $144 #
attrib_edge_convexity-kcp-attrib $-1 -1 $145 $-1 $68 1 #
vertex $-1 -1 $-1 $68 $146 #
ellipse-curve $-1 -1 $-1 -21 0 0 0 1 0 1 0 0 1 I I #
model_id-kcp-attrib $-1 -1 $-1 $-1 $70 1 1021324020 1021324020 1266483202 3 #
face $-1 -1 $-1 $147 $148 $24 $-1 $149 reversed single #
loop $-1 -1 $-1 $-1 $150 $70 #
plane-surface $-1 -1 $-1 0 -12.5 0 0 1 0 0 0 1 forward_v I I I I #
coedge $-1 -1 $-1 $151 $152 $153 $154 forward $71 $-1 #
coedge $-1 -1 $-1 $155 $73 $156 $157 forward $49 $-1 #
coedge $-1 -1 $-1 $73 $155 $158 $159 forward $49 $-1 #
coedge $-1 -1 $-1 $160 $161 $73 $110 reversed $162 $-1 #
edge $-1 -1 $-1 $163 -12.5 $164 12.5 $109 $165 forward @7 unknown #
loop $-1 -1 $-1 $-1 $166 $74 #
plane-surface $-1 -1 $-1 0 0 2.5 0 0 1 1 0 0 forward_v I I I I #
coedge $-1 -1 $-1 $113 $113 $78 $115 forward $75 $-1 #
coedge $-1 -1 $-1 $114 $114 $166 $167 reversed $77 $-1 #
edge $-1 -1 $-1 $168 0 $168 6.2831853071795862 $113 $169 forward @7 unknown #
loop $-1 -1 $-1 $-1 $170 $79 #
plane-surface $-1 -1 $-1 0 0 2.5 0 0 1 1 0 0 forward_v I I I I #
coedge $-1 -1 $-1 $118 $118 $83 $120 forward $80 $-1 #
coedge $-1 -1 $-1 $119 $119 $170 $171 reversed $82 $-1 #
edge $-1 -1 $-1 $172 0 $172 6.2831853071795862 $118 $173 forward @7 unknown #
face $-1 -1 $-1 $174 $175 $39 $-1 $176 reversed single #
loop $-1 -1 $-1 $-1 $177 $84 #
plane-surface $-1 -1 $-1 0 12.5 0 0 -1 0 0 0 -1 forward_v I I I I #
coedge $-1 -1 $-1 $178 $179 $180 $181 forward $85 $-1 #
face $-1 -1 $-1 $-1 $182 $31 $-1 $183 reversed single #
loop $-1 -1 $-1 $-1 $184 $87 #
plane-surface $-1 -1 $-1 0 0 -2.5 0 0 1 1 0 0 forward_v I I I I #
coedge $-1 -1 $-1 $185 $185 $90 $131 forward $88 $-1 #
coedge $-1 -1 $-1 $186 $90 $187 $188 reversed $59 $-1 #
coedge $-1 -1 $-1 $90 $186 $189 $190 reversed $59 $-1 #
edge $-1 -1 $-1 $191 -3.1415926535897931 $192 1.4802973661668753e-016 $128 $193 forward @7 unknown #
model_id-kcp-attrib $-1 -1 $-1 $-1 $92 1 1021324020 1021324020 1266483201 6 #
face $194 -1 $-1 $144 $195 $10 $-1 $196 forward single #
loop $-1 -1 $-1 $-1 $197 $92 #
cone-surface $-1 -1 $-1 0 0 0 0 0 1 12 0 0 1 I I 0 1 12 forward I I I I #
coedge $-1 -1 $-1 $136 $136 $137 $198 reversed $93 $-1 #
coedge $-1 -1 $-1 $137 $137 $136 $198 forward $95 $-1 #
coedge $-1 -1 $-1 $138 $138 $96 $139 forward $199 $-1 #
edge $200 -1 $-1 $201 0 $201 6.2831853071795862 $138 $202 forward @7 unknown #
attrib_edge_convexity-kcp-attrib $-1 -1 $203 $-1 $97 2 #
vertex $-1 -1 $-1 $97 $204 #
ellipse-curve $-1 -1 $-1 -21 5 0 0 1 0 1 0 0 1 I I #
loop $-1 -1 $-1 $-1 $205 $144 #
face $206 -1 $-1 $207 $98 $10 $-1 $208 forward single #
convexity-sys-attrib $-1 -1 $-1 $99 $68 #
point $-1 -1 $-1 -20 0 0 #
face $-1 -1 $-1 $209 $210 $24 $-1 $211 reversed single #
loop $-1 -1 $-1 $-1 $212 $103 #
plane-surface $-1 -1 $-1 -25 0 0 1 0 0 0 0 -1 forward_v I I I I #
coedge $-1 -1 $-1 $213 $158 $214 $215 forward $104 $-1 #
coedge $-1 -1 $-1 $216 $106 $213 $217 forward $71 $-1 #
coedge $-1 -1 $-1 $106 $216 $218 $219 forward $71 $-1 #
coedge $-1 -1 $-1 $161 $160 $106 $154 reversed $162 $-1 #
edge $-1 -1 $-1 $220 -12.5 $221 12.5 $153 $222 forward @7 unknown #
coedge $-1 -1 $-1 $108 $107 $223 $224 forward $49 $-1 #
coedge $-1 -1 $-1 $225 $226 $107 $157 reversed $210 $-1 #
edge $-1 -1 $-1 $164 -25 $227 25 $156 $228 forward @7 unknown #
coedge $-1 -1 $-1 $150 $229 $108 $159 reversed $104 $-1 #
edge $-1 -1 $-1 $230 -25 $163 25 $158 $231 forward @7 unknown #
coedge $-1 -1 $-1 $153 $109 $229 $232 forward $162 $-1 #
coedge $-1 -1 $-1 $109 $153 $225 $233 reversed $162 $-1 #
loop $-1 -1 $-1 $-1 $160 $209 #
vertex $-1 -1 $-1 $110 $234 #
vertex $-1 -1 $-1 $110 $235 #
straight-curve $-1 -1 $-1 25 0 2.5 0 1 0 I I #
coedge $-1 -1 $-1 $166 $166 $114 $167 forward $111 $-1 #
edge $-1 -1 $-1 $236 0 $236 6.2831853071795862 $166 $237 forward @7 unknown #
vertex $-1 -1 $-1 $115 $238 #
ellipse-curve $-1 -1 $-1 0 0 -2.5 0 0 -1 1 0 0 1 I I #
coedge $-1 -1 $-1 $170 $170 $119 $171 forward $116 $-1 #
edge $-1 -1 $-1 $239 0 $239 6.2831853071795862 $170 $240 forward @7 unknown #
vertex $-1 -1 $-1 $120 $241 #
ellipse-curve $-1 -1 $-1 0 0 -2.5 0 0 -1 1 0 0 1 I I #
face $-1 -1 $-1 $242 $243 $39 $-1 $89 forward single #
loop $-1 -1 $-1 $-1 $244 $121 #
plane-surface $-1 -1 $-1 -25 0 0 1 0 0 0 0 -1 forward_v I I I I #
coedge $-1 -1 $-1 $245 $246 $247 $248 reversed $122 $-1 #
coedge $-1 -1 $-1 $249 $124 $250 $251 reversed $85 $-1 #
coedge $-1 -1 $-1 $124 $249 $252 $253 reversed $85 $-1 #
coedge $-1 -1 $-1 $254 $255 $124 $181 reversed $256 $-1 #
edge $-1 -1 $-1 $257 -2.5 $258 2.5 $124 $259 forward @7 unknown #
loop $-1 -1 $-1 $-1 $187 $125 #
plane-surface $-1 -1 $-1 0 -12.5 0 0 1 0 0 0 1 forward_v I I I I #
coedge $-1 -1 $-1 $260 $260 $186 $261 forward $126 $-1 #
coedge $-1 -1 $-1 $128 $128 $262 $263 forward $88 $-1 #
coedge $-1 -1 $-1 $130 $129 $184 $261 reversed $59 $-1 #
coedge $-1 -1 $-1 $262 $264 $129 $188 forward $182 $-1 #
edge $-1 -1 $-1 $265 0 $191 5 $187 $266 forward @7 unknown #
coedge $-1 -1 $-1 $264 $262 $130 $190 forward $182 $-1 #
edge $-1 -1 $-1 $192 -5 $267 0 $189 $268 forward @7 unknown #
vertex $-1 -1 $-1 $131 $269 #
vertex $-1 -1 $-1 $263 $270 #
ellipse-curve $-1 -1 $-1 0 -12.5 2.5 0 0 1 -12 1.7763568394002505e-015 0 1 I I #
model_id-kcp-attrib $-1 -1 $-1 $-1 $133 1 1021324020 1021324020 1266483201 7 #
loop $-1 -1 $-1 $-1 $271 $133 #
plane-surface $-1 -1 $-1 0 0 -2.5 0 0 -1 -1 0 0 forward_v I I I I #
coedge $-1 -1 $-1 $272 $273 $274 $275 reversed $134 $-1 #
edge $276 -1 $-1 $277 0 $277 6.2831853071795862 $136 $278 forward @7 unknown #
loop $-1 -1 $-1 $279 $138 $207 #
attrib_edge_convexity-kcp-attrib $-1 -1 $280 $-1 $139 1 #
vertex $-1 -1 $-1 $139 $281 #
ellipse-curve $-1 -1 $-1 21 0 0 0 1 0 1 0 0 1 I I #
convexity-sys-attrib $-1 -1 $-1 $140 $97 #
point $-1 -1 $-1 -20 5 0 #
coedge $-1 -1 $-1 $282 $283 $284 $285 forward $143 $-1 #
model_id-kcp-attrib $-1 -1 $-1 $-1 $144 1 1021324020 1021324020 1266483201 8 #
face $286 -1 $-1 $287 $199 $10 $-1 $208 forward single #
plane-surface $-1 -1 $-1 0 0 0 0 -1 0 0 0 -1 forward_v I I I I #
face $-1 -1 $-1 $-1 $162 $24 $-1 $288 reversed single #
loop $-1 -1 $-1 $-1 $225 $147 #
plane-surface $-1 -1 $-1 0 12.5 0 0 -1 0 0 0 -1 forward_v I I I I #
coedge $-1 -1 $-1 $289 $223 $226 $290 forward $148 $-1 #
coedge $-1 -1 $-1 $229 $150 $151 $217 reversed $104 $-1 #
coedge $-1 -1 $-1 $223 $289 $150 $215 reversed $148 $-1 #
edge $-1 -1 $-1 $230 -2.5 $291 2.5 $214 $292 forward @7 unknown #
coedge $-1 -1 $-1 $152 $151 $289 $293 forward $71 $-1 #
edge $-1 -1 $-1 $221 -25 $291 25 $213 $294 forward @7 unknown #
coedge $-1 -1 $-1 $226 $225 $152 $219 reversed $210 $-1 #
edge $-1 -1 $-1 $295 -25 $220 25 $218 $296 forward @7 unknown #
vertex $-1 -1 $-1 $154 $297 #
vertex $-1 -1 $-1 $232 $298 #
straight-curve $-1 -1 $-1 25 0 -2.5 0 -1 0 I I #
coedge $-1 -1 $-1 $212 $214 $155 $224 reversed $148 $-1 #
edge $-1 -1 $-1 $227 -12.5 $230 12.5 $223 $299 forward @7 unknown #
coedge $-1 -1 $-1 $218 $156 $161 $233 forward $210 $-1 #
coedge $-1 -1 $-1 $156 $218 $212 $290 reversed $210 $-1 #
vertex $-1 -1 $-1 $157 $300 #
straight-curve $-1 -1 $-1 0 12.5 2.5 -1 0 0 I I #
coedge $-1 -1 $-1 $158 $213 $160 $232 reversed $104 $-1 #
vertex $-1 -1 $-1 $224 $301 #
straight-curve $-1 -1 $-1 0 -12.5 2.5 1 0 0 I I #
edge $-1 -1 $-1 $163 -2.5 $221 2.5 $160 $302 forward @7 unknown #
edge $-1 -1 $-1 $164 -2.5 $220 2.5 $161 $303 forward @7 unknown #
point $-1 -1 $-1 25 -12.5 2.5 #
point $-1 -1 $-1 25 12.5 2.5 #
vertex $-1 -1 $-1 $167 $304 #
ellipse-curve $-1 -1 $-1 0 0 2.5 0 0 1 1 0 0 1 I I #
point $-1 -1 $-1 1 0 -2.5 #
vertex $-1 -1 $-1 $171 $305 #
ellipse-curve $-1 -1 $-1 0 0 2.5 0 0 1 1 0 0 1 I I #
point $-1 -1 $-1 1 0 -2.5 #
face $-1 -1 $-1 $306 $307 $39 $-1 $127 reversed single #
loop $-1 -1 $-1 $-1 $308 $174 #
coedge $-1 -1 $-1 $309 $310 $311 $312 forward $175 $-1 #
coedge $-1 -1 $-1 $313 $177 $314 $315 reversed $122 $-1 #
coedge $-1 -1 $-1 $177 $313 $316 $317 reversed $122 $-1 #
coedge $-1 -1 $-1 $255 $254 $318 $248 forward $256 $-1 #
edge $-1 -1 $-1 $319 -5 $320 0 $321 $322 forward @7 unknown #
coedge $-1 -1 $-1 $179 $178 $313 $323 reversed $85 $-1 #
coedge $-1 -1 $-1 $324 $316 $178 $251 forward $307 $-1 #
edge $-1 -1 $-1 $325 -12.5 $258 12.5 $178 $326 forward @7 unknown #
coedge $-1 -1 $-1 $314 $308 $179 $253 forward $243 $-1 #
edge $-1 -1 $-1 $257 -12.5 $327 12.5 $179 $328 forward @7 unknown #
coedge $-1 -1 $-1 $247 $180 $308 $329 reversed $256 $-1 #
coedge $-1 -1 $-1 $180 $247 $324 $330 reversed $256 $-1 #
loop $-1 -1 $-1 $-1 $254 $331 #
vertex $-1 -1 $-1 $253 $332 #
vertex $-1 -1 $-1 $181 $333 #
straight-curve $-1 -1 $-1 25 -12.5 0 0 0 -1 I I #
coedge $-1 -1 $-1 $184 $184 $264 $334 forward $126 $-1 #
edge $-1 -1 $-1 $267 -1.4802973661668753e-016 $265 3.1415926535897931 $184 $335 forward @7 unknown #
coedge $-1 -1 $-1 $189 $187 $185 $263 reversed $182 $-1 #
edge $-1 -1 $-1 $192 -12 $191 12 $262 $336 forward @7 unknown #
coedge $-1 -1 $-1 $187 $189 $260 $334 reversed $182 $-1 #
vertex $-1 -1 $-1 $334 $337 #
straight-curve $-1 -1 $-1 12 -12.5 -2.5 0 0 1 I I #
vertex $-1 -1 $-1 $190 $338 #
straight-curve $-1 -1 $-1 -12 -12.5 -2.5 0 0 -1 I I #
point $-1 -1 $-1 12 -12.5 2.5 #
point $-1 -1 $-1 -12 -12.5 2.5 #
coedge $-1 -1 $-1 $339 $340 $273 $341 forward $195 $-1 #
coedge $-1 -1 $-1 $284 $197 $342 $343 reversed $134 $-1 #
coedge $-1 -1 $-1 $197 $284 $271 $341 reversed $134 $-1 #
coedge $-1 -1 $-1 $344 $345 $197 $275 forward $279 $-1 #
edge $-1 -1 $-1 $346 -2.5 $347 2.5 $274 $348 forward @7 unknown #
attrib_edge_convexity-kcp-attrib $-1 -1 $349 $-1 $198 2 #
vertex $-1 -1 $-1 $198 $350 #
ellipse-curve $-1 -1 $-1 21 5 0 0 1 0 1 0 0 1 I I #
loop $-1 -1 $-1 $-1 $274 $207 #
convexity-sys-attrib $-1 -1 $-1 $200 $139 #
point $-1 -1 $-1 22 0 0 #
coedge $-1 -1 $-1 $351 $205 $352 $353 reversed $143 $-1 #
coedge $-1 -1 $-1 $205 $351 $339 $354 reversed $143 $-1 #
coedge $-1 -1 $-1 $273 $272 $205 $285 reversed $134 $-1 #
edge $355 -1 $-1 $356 -2.5 $357 2.5 $205 $358 forward @7 unknown #
model_id-kcp-attrib $-1 -1 $-1 $-1 $207 1 1021324020 1021324020 1266483201 9 #
face $359 -1 $-1 $360 $361 $10 $-1 $362 forward single #
plane-surface $-1 -1 $-1 25 0 0 -1 0 0 0 0 1 forward_v I I I I #
coedge $-1 -1 $-1 $214 $212 $216 $293 reversed $148 $-1 #
edge $-1 -1 $-1 $227 -2.5 $295 2.5 $226 $363 forward @7 unknown #
vertex $-1 -1 $-1 $293 $364 #
straight-curve $-1 -1 $-1 -25 -12.5 0 0 0 -1 I I #
edge $-1 -1 $-1 $291 -12.5 $295 12.5 $289 $365 forward @7 unknown #
straight-curve $-1 -1 $-1 0 -12.5 -2.5 -1 0 0 I I #
vertex $-1 -1 $-1 $219 $366 #
straight-curve $-1 -1 $-1 0 12.5 -2.5 1 0 0 I I #
point $-1 -1 $-1 25 12.5 -2.5 #
point $-1 -1 $-1 25 -12.5 -2.5 #
straight-curve $-1 -1 $-1 -25 0 2.5 0 -1 0 I I #
point $-1 -1 $-1 -25 12.5 2.5 #
point $-1 -1 $-1 -25 -12.5 2.5 #
straight-curve $-1 -1 $-1 25 -12.5 0 0 0 -1 I I #
straight-curve $-1 -1 $-1 25 12.5 0 0 0 -1 I I #
point $-1 -1 $-1 1 0 2.5 #
point $-1 -1 $-1 1 0 2.5 #
face $-1 -1 $-1 $367 $368 $39 $-1 $127 reversed single #
loop $-1 -1 $-1 $-1 $324 $242 #
coedge $-1 -1 $-1 $252 $314 $254 $329 forward $243 $-1 #
coedge $-1 -1 $-1 $369 $244 $370 $371 reversed $175 $-1 #
coedge $-1 -1 $-1 $244 $369 $372 $373 reversed $175 $-1 #
coedge $-1 -1 $-1 $374 $375 $244 $312 reversed $376 $-1 #
edge $-1 -1 $-1 $377 -2.5 $378 2.5 $311 $379 forward @7 unknown #
coedge $-1 -1 $-1 $246 $245 $249 $323 forward $122 $-1 #
coedge $-1 -1 $-1 $308 $252 $245 $315 forward $243 $-1 #
edge $-1 -1 $-1 $327 -25 $319 1.2621774483536189e-031 $245 $380 forward @7 unknown #
coedge $-1 -1 $-1 $250 $324 $246 $317 forward $307 $-1 #
edge $-1 -1 $-1 $320 -1.2621774483536189e-031 $325 25 $246 $381 forward @7 unknown #
coedge $-1 -1 $-1 $382 $383 $321 $248 reversed $384 $-1 #
vertex $-1 -1 $-1 $385 $386 #
vertex $-1 -1 $-1 $317 $387 #
coedge $-1 -1 $-1 $375 $374 $177 $248 forward $376 $-1 #
straight-curve $-1 -1 $-1 -1.2621774483536189e-031 12.5 -2.5 0 0 -1 I I #
edge $-1 -1 $-1 $327 -2.5 $325 2.5 $249 $388 forward @7 unknown #
coedge $-1 -1 $-1 $316 $250 $255 $330 forward $307 $-1 #
vertex $-1 -1 $-1 $251 $389 #
straight-curve $-1 -1 $-1 25 0 -2.5 0 -1 0 I I #
vertex $-1 -1 $-1 $253 $390 #
straight-curve $-1 -1 $-1 25 0 2.5 0 1 0 I I #
edge $-1 -1 $-1 $319 -1.5707963267948966 $257 0 $308 $391 forward @7 unknown #
edge $-1 -1 $-1 $258 0 $320 1.5707963267948966 $324 $392 forward @7 unknown #
face $-1 -1 $-1 $393 $256 $39 $-1 $394 reversed single #
point $-1 -1 $-1 25 -12.5 2.5 #
point $-1 -1 $-1 25 -12.5 -2.5 #
edge $-1 -1 $-1 $265 -12 $267 12 $264 $395 forward @7 unknown #
ellipse-curve $-1 -1 $-1 0 -12.5 -2.5 0 0 -1 -12 1.7763568394002505e-015 0 1 I I #
straight-curve $-1 -1 $-1 0 -12.5 2.5 1 0 0 I I #
point $-1 -1 $-1 12 -12.5 -2.5 #
point $-1 -1 $-1 -12 -12.5 -2.5 #
coedge $-1 -1 $-1 $396 $271 $283 $354 forward $195 $-1 #
coedge $-1 -1 $-1 $271 $396 $344 $397 forward $195 $-1 #
edge $398 -1 $-1 $347 0 $356 3.1415926535897931 $271 $399 forward @7 unknown #
coedge $-1 -1 $-1 $400 $352 $272 $343 forward $401 $-1 #
edge $-1 -1 $-1 $357 -3.1415926535897931 $346 0 $342 $402 forward @7 unknown #
coedge $-1 -1 $-1 $403 $274 $340 $397 reversed $279 $-1 #
coedge $-1 -1 $-1 $274 $403 $400 $404 reversed $279 $-1 #
vertex $-1 -1 $-1 $404 $405 #
vertex $-1 -1 $-1 $341 $406 #
straight-curve $-1 -1 $-1 12 0 0 0 0 -1 I I #
convexity-sys-attrib $-1 -1 $-1 $276 $198 #
point $-1 -1 $-1 22 5 0 #
coedge $-1 -1 $-1 $283 $282 $407 $408 reversed $143 $-1 #
coedge $-1 -1 $-1 $342 $409 $282 $353 forward $401 $-1 #
edge $410 -1 $-1 $411 -25 $357 -12 $352 $412 forward @7 unknown #
edge $413 -1 $-1 $356 12 $414 25 $339 $415 forward @7 unknown #
attrib_edge_convexity-kcp-attrib $-1 -1 $416 $-1 $285 1 #
vertex $-1 -1 $-1 $354 $417 #
vertex $-1 -1 $-1 $285 $418 #
straight-curve $-1 -1 $-1 -12 0 0 0 0 1 I I #
model_id-kcp-attrib $-1 -1 $-1 $-1 $287 1 1021324020 1021324020 1266483201 10 #
face $419 -1 $-1 $-1 $401 $10 $-1 $420 forward single #
loop $-1 -1 $-1 $-1 $421 $287 #
cone-surface $-1 -1 $-1 0 0 0 0 0 1 25 0 0 1 I I 0 1 25 forward I I I I #
straight-curve $-1 -1 $-1 -25 12.5 0 0 0 -1 I I #
point $-1 -1 $-1 -25 -12.5 -2.5 #
straight-curve $-1 -1 $-1 -25 0 -2.5 0 1 0 I I #
point $-1 -1 $-1 -25 12.5 -2.5 #
face $-1 -1 $-1 $422 $423 $39 $-1 $89 forward single #
loop $-1 -1 $-1 $-1 $424 $306 #
coedge $-1 -1 $-1 $310 $309 $425 $426 reversed $175 $-1 #
coedge $-1 -1 $-1 $427 $424 $309 $371 forward $368 $-1 #
edge $-1 -1 $-1 $428 -12.5 $378 12.5 $309 $429 forward @7 unknown #
coedge $-1 -1 $-1 $430 $431 $310 $373 forward $423 $-1 #
edge $-1 -1 $-1 $377 -12.5 $432 12.5 $310 $433 forward @7 unknown #
coedge $-1 -1 $-1 $321 $311 $431 $385 reversed $376 $-1 #
coedge $-1 -1 $-1 $311 $321 $427 $434 reversed $376 $-1 #
loop $-1 -1 $-1 $-1 $321 $422 #
vertex $-1 -1 $-1 $385 $435 #
vertex $-1 -1 $-1 $434 $436 #
straight-curve $-1 -1 $-1 -25 12.5 0 0 0 -1 I I #
straight-curve $-1 -1 $-1 0 12.5 2.5 -1 0 0 I I #
straight-curve $-1 -1 $-1 0 12.5 -2.5 1 0 0 I I #
coedge $-1 -1 $-1 $425 $318 $430 $437 reversed $384 $-1 #
coedge $-1 -1 $-1 $318 $425 $424 $438 reversed $384 $-1 #
loop $-1 -1 $-1 $-1 $382 $393 #
edge $-1 -1 $-1 $319 1.2621774483536189e-031 $377 25 $374 $380 forward @7 unknown #
point $-1 -1 $-1 -1.2621774483536189e-031 12.5 2.5 #
point $-1 -1 $-1 -1.2621774483536189e-031 12.5 -2.5 #
straight-curve $-1 -1 $-1 25 12.5 0 0 0 -1 I I #
point $-1 -1 $-1 25 12.5 -2.5 #
point $-1 -1 $-1 25 12.5 2.5 #
ellipse-curve $-1 -1 $-1 -1.2621774483536189e-031 -12.5 2.5 0 0 -1 25 0 0 1 I I #
ellipse-curve $-1 -1 $-1 -1.2621774483536189e-031 -12.5 -2.5 0 0 1 25 0 0 1 I I #
face $-1 -1 $-1 $-1 $384 $39 $-1 $394 reversed single #
cone-surface $-1 -1 $-1 -1.2621774483536189e-031 -12.5 -2.5 0 0 -1 25 0 0 1 I I 0 1 25 forward I I I I #
straight-curve $-1 -1 $-1 0 -12.5 -2.5 -1 0 0 I I #
coedge $-1 -1 $-1 $340 $339 $439 $440 forward $195 $-1 #
edge $441 -1 $-1 $442 -25 $347 -12 $340 $415 forward @7 unknown #
attrib_edge_convexity-kcp-attrib $-1 -1 $443 $-1 $341 1 #
ellipse-curve $-1 -1 $-1 0 0 -2.5 0 0 1 12 0 0 1 I I #
coedge $-1 -1 $-1 $409 $342 $345 $404 forward $401 $-1 #
loop $-1 -1 $-1 $-1 $342 $360 #
ellipse-curve $-1 -1 $-1 0 0 2.5 0 0 -1 12 0 0 1 I I #
coedge $-1 -1 $-1 $345 $344 $421 $444 reversed $279 $-1 #
edge $445 -1 $-1 $346 12 $446 25 $400 $412 forward @7 unknown #
point $-1 -1 $-1 12 0 2.5 #
point $-1 -1 $-1 12 0 -2.5 #
coedge $-1 -1 $-1 $447 $439 $351 $408 forward $361 $-1 #
edge $448 -1 $-1 $414 -2.5 $411 2.5 $407 $449 forward @7 unknown #
coedge $-1 -1 $-1 $352 $400 $447 $450 forward $401 $-1 #
model_id-kcp-attrib $-1 -1 $451 $-1 $353 1 1021324020 1021324020 1266483201 16 #
vertex $-1 -1 $-1 $408 $452 #
straight-curve $-1 -1 $-1 0 0 2.5 1 0 0 I I #
attrib_edge_convexity-kcp-attrib $-1 -1 $453 $-1 $354 1 #
vertex $-1 -1 $-1 $440 $454 #
straight-curve $-1 -1 $-1 0 0 -2.5 -1 0 0 I I #
convexity-sys-attrib $-1 -1 $-1 $355 $285 #
point $-1 -1 $-1 -12 0 -2.5 #
point $-1 -1 $-1 -12 0 2.5 #
model_id-kcp-attrib $-1 -1 $-1 $-1 $360 1 1021324020 1021324020 1266483201 11 #
plane-surface $-1 -1 $-1 0 0 2.5 0 0 1 1 0 0 forward_v I I I I #
coedge $-1 -1 $-1 $439 $447 $403 $444 forward $361 $-1 #
face $-1 -1 $-1 $331 $376 $39 $-1 $123 reversed single #
loop $-1 -1 $-1 $-1 $430 $367 #
coedge $-1 -1 $-1 $370 $427 $383 $438 forward $368 $-1 #
coedge $-1 -1 $-1 $383 $382 $369 $426 forward $384 $-1 #
edge $-1 -1 $-1 $432 -2.5 $428 2.5 $369 $455 forward @7 unknown #
coedge $-1 -1 $-1 $424 $370 $375 $434 forward $368 $-1 #
vertex $-1 -1 $-1 $371 $456 #
straight-curve $-1 -1 $-1 -25 0 -2.5 0 1 0 I I #
coedge $-1 -1 $-1 $431 $372 $382 $437 forward $423 $-1 #
coedge $-1 -1 $-1 $372 $430 $374 $385 forward $423 $-1 #
vertex $-1 -1 $-1 $373 $457 #
straight-curve $-1 -1 $-1 -25 0 2.5 0 -1 0 I I #
edge $-1 -1 $-1 $378 -25 $320 -1.2621774483536189e-031 $375 $381 forward @7 unknown #
point $-1 -1 $-1 -25 12.5 2.5 #
point $-1 -1 $-1 -25 12.5 -2.5 #
edge $-1 -1 $-1 $432 -3.1415926535897931 $319 -1.5707963267948966 $430 $391 forward @7 unknown #
edge $-1 -1 $-1 $320 1.5707963267948966 $428 3.1415926535897931 $424 $392 forward @7 unknown #
coedge $-1 -1 $-1 $407 $421 $396 $440 reversed $361 $-1 #
edge $458 -1 $-1 $414 -3.1415926535897931 $442 0 $396 $459 forward @7 unknown #
attrib_edge_convexity-kcp-attrib $-1 -1 $460 $-1 $397 1 #
vertex $-1 -1 $-1 $440 $461 #
convexity-sys-attrib $-1 -1 $-1 $398 $341 #
edge $-1 -1 $-1 $446 -2.5 $442 2.5 $421 $462 forward @7 unknown #
model_id-kcp-attrib $-1 -1 $-1 $-1 $404 1 1021324020 1021324020 1266483201 15 #
vertex $-1 -1 $-1 $404 $463 #
coedge $-1 -1 $-1 $421 $407 $409 $450 reversed $361 $-1 #
attrib_edge_convexity-kcp-attrib $-1 -1 $464 $-1 $408 1 #
straight-curve $-1 -1 $-1 -25 0 0 0 0 1 I I #
edge $-1 -1 $-1 $446 0 $411 3.1415926535897931 $409 $465 forward @7 unknown #
attrib_edge_convexity-kcp-attrib $-1 -1 $466 $410 $353 1 #
point $-1 -1 $-1 -25 0 2.5 #
convexity-sys-attrib $-1 -1 $-1 $413 $354 #
point $-1 -1 $-1 -25 0 -2.5 #
straight-curve $-1 -1 $-1 -25 -12.5 0 0 0 -1 I I #
point $-1 -1 $-1 -25 -12.5 -2.5 #
point $-1 -1 $-1 -25 -12.5 2.5 #
attrib_edge_convexity-kcp-attrib $-1 -1 $467 $-1 $440 1 #
ellipse-curve $-1 -1 $-1 0 0 -2.5 0 0 -1 25 0 0 1 I I #
convexity-sys-attrib $-1 -1 $-1 $441 $397 #
point $-1 -1 $-1 25 0 -2.5 #
straight-curve $-1 -1 $-1 25 0 0 0 0 -1 I I #
point $-1 -1 $-1 25 0 2.5 #
convexity-sys-attrib $-1 -1 $-1 $448 $408 #
ellipse-curve $-1 -1 $-1 0 0 2.5 0 0 1 25 0 0 1 I I #
convexity-sys-attrib $-1 -1 $-1 $451 $353 #
convexity-sys-attrib $-1 -1 $-1 $458 $440 #
End-of-ACIS-data 