600 0 1 0           
92 GICL ACIS Healer - Source: /gicl/data5/repository/CMU/seeker/seeker/optics_housing.sat - 6 0 18 ACIS 6.0.3 Solaris 24 Sat Apr 13 00:31:32 2002 
1 9.999999999999999547e-07 1.000000000000000036e-10 
body $1 $2 $-1 $-1 #
rgb_color-st-attrib $-1 $-1 $-1 $0 0 1 0 #
lump $-1 $-1 $3 $0 #
shell $-1 $-1 $-1 $4 $-1 $2 #
face $-1 $5 $6 $3 $-1 $7 reversed single #
face $-1 $8 $9 $3 $-1 $10 reversed single #
loop $-1 $11 $12 $4 #
cone-surface $-1 -31.81980515339464688 -31.81980515339463622 70 -0.7071067811865476838 -0.7071067811865474617 0 0 0 -4 1 I I 0 1 4 forward I I I I #
face $-1 $13 $14 $3 $-1 $15 reversed single #
loop $-1 $-1 $16 $5 #
plane-surface $-1 -21.21320343559643362 -21.21320343559642652 70 0.7071067811865476838 0.7071067811865474617 0 0 0 1 forward_v I I I I #
loop $-1 $-1 $17 $4 #
coedge $-1 $12 $12 $18 $19 reversed $6 $-1 #
face $-1 $20 $21 $3 $-1 $22 reversed single #
loop $-1 $23 $24 $8 #
cone-surface $-1 -45 5.510910596163089556e-15 70 -1 1.224646799147353207e-16 0 0 0 -4 1 I I 0 1 4 forward I I I I #
coedge $-1 $16 $16 $17 $25 reversed $9 $-1 #
coedge $-1 $17 $17 $16 $25 forward $11 $-1 #
coedge $-1 $18 $18 $12 $19 forward $26 $-1 #
edge $-1 $27 0 $27 24.12525955160149493 $18 $28 forward 7 unknown #
face $-1 $29 $30 $3 $-1 $31 reversed single #
loop $-1 $-1 $32 $13 #
plane-surface $-1 -30 3.673940397442059178e-15 70 1 -1.224646799147353207e-16 0 0 0 1 forward_v I I I I #
loop $-1 $-1 $33 $8 #
coedge $-1 $24 $24 $34 $35 reversed $14 $-1 #
edge $-1 $36 0 $36 6.283185307179586232 $16 $37 forward 7 unknown #
loop $-1 $38 $18 $39 #
vertex $-1 $19 $40 #
intcurve-curve $-1 forward { surfintcur full nubs 3 periodic 33 
	0 3 0.7539156440605963017 2 1.507831288121192603 2 2.261746932181789127 2 3.015662576242385207 2 
	3.769575654156883449 2 4.523488732071381691 2 5.277401809985879488 2 6.031314887900377286 2 6.785227965814874196 2 
	7.539141043729371994 2 8.293054121643869792 2 9.046967199558366701 2 9.800882843618962781 2 10.55479848767955886 2 
	11.30871413174015672 2 12.0626297758007528 2 12.81654541986134888 2 13.57046106392194318 2 14.32437670798253748 2 
	15.07829235204313179 2 15.83220542995763047 2 16.58611850787212916 2 17.34003158578662607 2 18.09394466370112298 2 
	18.84785774161561989 2 19.60177081953012035 2 20.35568389744462081 2 21.10959697535911772 2 21.86351261941971202 2 
	22.61742826348030633 2 23.37134390754090063 2 24.12525955160149493 3 
	-25.31406743419439209 -30.97092168368676113 70 
	-25.31406743419439209 -30.97092168368676113 69.74869478531313405 
	-25.33281154570295257 -30.95563357464344989 69.48885972838031932 
	-25.41151157971528463 -30.89106132931357251 68.97209171957445051 
	-25.47144700486973079 -30.84178816942954171 68.71515427482877669 
	-25.62920344032033171 -30.71081960699613589 68.22244569039214923 
	-25.72713758888373903 -30.62900749634017927 67.98627895333697779 
	-25.9520784996043794 -30.4386486276617596 67.54957534454032952 
	-26.07908080201202239 -30.33007090031826891 67.34904967577683976 
	-26.34786265921660942 -30.09687341521978965 66.99409667881877795 
	-26.49885882976303009 -29.96428385920629722 66.82751650725953141 
	-26.8249133305017331 -29.67274593437223373 66.53385494252751187 
	-26.99994625371757451 -29.51378799845011258 66.40675483865180695 
	-27.36169092618151666 -29.17873625397076154 66.20259508286852679 
	-27.54868100165649736 -29.00236131952128105 66.12537292772412911 
	-27.92112233171138769 -28.64398217386509415 66.02406426022773189 
	-28.10657223085572198 -28.46197026406808206 66 
	-28.46197026406809627 -28.10657223085570777 66 
	-28.64398217386510126 -27.92112233171138058 66.0240642602277461 
	-29.0023613195212846 -27.54868100165649025 66.1253729277241149 
	-29.17873625397076864 -27.361690926181506 66.20259508286851258 
	-29.51378799845011613 -26.99994625371756385 66.40675483865180695 
	-29.67274593437223729 -26.82491333050171889 66.53385494252751187 
	-29.96428385920630433 -26.49885882976301588 66.82751650725953141 
	-30.09687341521980386 -26.3478626592165952 66.99409667881877795 
	-30.33007090031828312 -26.07908080201200463 67.34904967577683976 
	-30.43864862766176316 -25.9520784996043723 67.54957534454032952 
	-30.62900749634017927 -25.72713758888373192 67.98627895333697779 
	-30.71081960699613944 -25.6292034403203246 68.22244569039214923 
	-30.84178816942954882 -25.47144700486971658 68.71515427482876248 
	-30.89106132931358673 -25.41151157971527397 68.97209171957447893 
	-30.95563357464346055 -25.33281154570294191 69.48885972838034775 
	-30.97092168368677534 -25.31406743419437788 69.74869478531313405 
	-30.97092168368677534 -25.31406743419437788 70.25130521468686595 
	-30.95563357464346055 -25.33281154570294191 70.51114027161965225 
	-30.89106132931359028 -25.41151157971527041 71.02790828042550686 
	-30.84178816942954882 -25.47144700486970237 71.28484572517119489 
	-30.71081960699614655 -25.62920344032030329 71.77755430960782235 
	-30.62900749634018993 -25.72713758888372482 72.013721046663008 
	-30.43864862766176671 -25.95207849960436519 72.45042465545965626 
	-30.33007090031828312 -26.07908080201200818 72.65095032422314603 
	-30.09687341521980386 -26.3478626592165952 73.00590332118122205 
	-29.96428385920629722 -26.49885882976301588 73.17248349274046859 
	-29.67274593437223373 -26.82491333050171889 73.46614505747248813 
	-29.51378799845012679 -26.9999462537175603 73.59324516134820726 
	-29.1787362539707793 -27.361690926181506 73.79740491713148742 
	-29.0023613195212917 -27.54868100165647959 73.87462707227589931 
	-28.64398217386510481 -27.92112233171136992 73.97593573977226811 
	-28.46197026406809627 -28.10657223085570777 74 
	-28.10657223085572198 -28.46197026406807851 74 
	-27.92112233171138769 -28.64398217386509415 73.97593573977226811 
	-27.54868100165649736 -29.00236131952128105 73.87462707227589931 
	-27.36169092618151666 -29.17873625397076154 73.79740491713148742 
	-26.99994625371757095 -29.51378799845011258 73.59324516134820726 
	-26.8249133305017331 -29.67274593437223018 73.46614505747248813 
	-26.49885882976303009 -29.96428385920629367 73.17248349274046859 
	-26.34786265921660942 -30.09687341521978965 73.00590332118122205 
	-26.07908080201202239 -30.33007090031826891 72.65095032422314603 
	-25.95207849960437585 -30.4386486276617596 72.45042465545965626 
	-25.72713758888373903 -30.62900749634017217 72.01372104666303642 
	-25.62920344032033526 -30.71081960699613234 71.77755430960786498 
	-25.47144700486972724 -30.84178816942953461 71.28484572517123752 
	-25.41151157971528463 -30.89106132931356541 71.0279082804255637 
	-25.33281154570294902 -30.95563357464344278 70.51114027161969489 
	-25.31406743419439209 -30.97092168368676113 70.25130521468686595 
	-25.31406743419439209 -30.97092168368676113 70 
	0.001000000000000000021 
	cone -31.81980515339464688 -31.81980515339463622 70 -0.7071067811865476838 -0.7071067811865474617 0 0 0 -4 1 I I 0 1 4 forward I I I I 
	cone 0 0 70 0 0 1 40 0 0 1 I I 0 1 40 forward I I I I 
	nullbs 
	nullbs 
	I I 
	0 
	0 
	0 
	} I I #
face $-1 $41 $42 $3 $-1 $43 reversed single #
loop $-1 $44 $45 $20 #
cone-surface $-1 31.81980515339463977 31.81980515339463622 70 0.7071067811865475727 0.7071067811865474617 0 0 0 -4 1 I I 0 1 4 forward I I I I #
coedge $-1 $32 $32 $33 $46 reversed $21 $-1 #
coedge $-1 $33 $33 $32 $46 forward $23 $-1 #
coedge $-1 $34 $34 $24 $35 forward $38 $-1 #
edge $-1 $47 0 $47 24.12525955160148783 $34 $48 forward 7 unknown #
vertex $-1 $25 $49 #
ellipse-curve $-1 -21.21320343559643362 -21.21320343559642652 70 0.7071067811865476838 0.7071067811865474617 0 0 0 -4 1 I I #
loop $-1 $50 $34 $39 #
face $-1 $51 $26 $3 $-1 $52 forward single #
point $-1 -25.31406743419439209 -30.97092168368676113 70 #
face $-1 $53 $54 $3 $-1 $55 reversed single #
loop $-1 $-1 $56 $29 #
plane-surface $-1 21.21320343559642652 21.21320343559642652 70 -0.7071067811865475727 -0.7071067811865474617 0 0 0 1 forward_v I I I I #
loop $-1 $-1 $57 $20 #
coedge $-1 $45 $45 $58 $59 reversed $30 $-1 #
edge $-1 $60 0 $60 6.283185307179586232 $32 $61 forward 7 unknown #
vertex $-1 $35 $62 #
intcurve-curve $-1 forward { surfintcur full nubs 3 periodic 33 
	0 3 0.7539156440605965237 2 1.507831288121193047 2 2.261746932181789571 2 3.015662576242386095 2 
	3.769575654156883004 2 4.523488732071379914 2 5.277401809985876824 2 6.031314887900373733 2 6.785227965814870643 2 
	7.539141043729367553 2 8.293054121643864462 2 9.046967199558361372 2 9.800882843618957452 2 10.55479848767955531 2 
	11.30871413174015139 2 12.06262977580074747 2 12.81654541986134177 2 13.57046106392193607 2 14.32437670798253038 2 
	15.07829235204312646 2 15.83220542995762514 2 16.58611850787212205 2 17.34003158578661896 2 18.09394466370111942 2 
	18.84785774161561989 2 19.6017708195301168 2 20.35568389744461371 2 21.10959697535911062 2 21.86351261941970492 2 
	22.61742826348029922 2 23.37134390754089353 2 24.12525955160148783 3 
	-39.79949748426479772 -3.999999999999995115 70 
	-39.79949748426479772 -3.999999999999995115 69.74869478531313405 
	-39.80194124704377856 -3.975935586068929606 69.48885972838031932 
	-39.81193110222431386 -3.874626785790000749 68.97209171957445051 
	-39.81947046229981879 -3.797404654745506036 68.71515427482877669 
	-39.83841234896384265 -3.593245250843651206 68.22244569039214923 
	-39.84981235129475863 -3.466145452056719201 67.98627895333697779 
	-39.87426554773009002 -3.172484161818365234 67.54957534454032952 
	-39.88729368969842426 -3.005903925269221233 67.34904967577683976 
	-39.91245564051892103 -2.650950928311156751 66.99409667881877795 
	-39.92547108247384102 -2.450425538012925397 66.82751650725953141 
	-39.94987798735935058 -2.013721745880973746 66.53385494252751187 
	-39.96124471988223092 -1.777554544530200342 66.40675483865180695 
	-39.98011947026986945 -1.284845073003110016 66.20259508286852679 
	-39.98762550847224162 -1.027907210439607866 66.12537292772412911 
	-39.99756897441886139 -0.5111390962343291822 66.02406426022773189 
	-40 -0.2513043593048274182 66 
	-40 0.2513043593048371882 66 
	-39.99756897441886139 0.5111390962343389521 66.02406426022773189 
	-39.98762550847224162 1.027907210439617636 66.12537292772412911 
	-39.98011947026986945 1.284845073003119786 66.20259508286852679 
	-39.96124471988223092 1.777554544530210112 66.40675483865180695 
	-39.94987798735935058 2.013721745880983516 66.53385494252751187 
	-39.92547108247384102 2.450425538012935167 66.82751650725953141 
	-39.91245564051892103 2.650950928311166521 66.99409667881877795 
	-39.88729368969842426 3.005903925269230559 67.34904967577685397 
	-39.87426554773009002 3.172484161818383885 67.54957534454034374 
	-39.84981235129475863 3.466145452056732967 67.98627895333697779 
	-39.83841234896384265 3.593245250843656979 68.22244569039214923 
	-39.81947046229981879 3.797404654745512698 68.71515427482876248 
	-39.81193110222431386 3.874626785790010963 68.97209171957445051 
	-39.80194124704377856 3.975935586068941596 69.48885972838033354 
	-39.79949748426479772 4.000000000000004441 69.74869478531313405 
	-39.79949748426479061 4.000000000000003553 70.25130521468686595 
	-39.80194124704377145 3.97593558606894204 70.51114027161966646 
	-39.81193110222430676 3.874626785790013184 71.02790828042553528 
	-39.81947046229981879 3.797404654745521135 71.2848457251712091 
	-39.83841234896384265 3.593245250843668082 71.77755430960783656 
	-39.84981235129475863 3.466145452056737852 72.01372104666303642 
	-39.87426554773009002 3.172484161818383441 72.45042465545965626 
	-39.88729368969842426 3.005903925269231003 72.65095032422314603 
	-39.91245564051892103 2.650950928311166521 73.00590332118120784 
	-39.92547108247384102 2.450425538012939164 73.17248349274045438 
	-39.94987798735935058 2.01372174588099373 73.46614505747247392 
	-39.96124471988221671 1.777554544530216996 73.59324516134820726 
	-39.98011947026984814 1.284845073003126448 73.79740491713148742 
	-39.98762550847223451 1.027907210439622077 73.87462707227589931 
	-39.99756897441885428 0.5111390962343409505 73.97593573977226811 
	-40 0.251304359304838687 74 
	-40 -0.2513043593048281399 74 
	-39.99756897441886139 -0.5111390962343294042 73.97593573977226811 
	-39.98762550847224162 -1.027907210439608754 73.87462707227589931 
	-39.98011947026986945 -1.284845073003112237 73.79740491713148742 
	-39.96124471988223092 -1.777554544530203007 73.59324516134820726 
	-39.94987798735935058 -2.013721745880982628 73.46614505747247392 
	-39.92547108247384102 -2.450425538012929838 73.17248349274045438 
	-39.91245564051892103 -2.650950928311156751 73.00590332118120784 
	-39.88729368969842426 -3.005903925269220345 72.65095032422314603 
	-39.87426554773009002 -3.172484161818372783 72.45042465545965626 
	-39.84981235129475863 -3.466145452056726306 72.01372104666303642 
	-39.83841234896384265 -3.59324525084365165 71.77755430960783656 
	-39.81947046229981879 -3.79740465474550648 71.28484572517123752 
	-39.81193110222431386 -3.874626785790000749 71.02790828042554949 
	-39.80194124704377856 -3.975935586068929606 70.51114027161968068 
	-39.79949748426479772 -3.999999999999995115 70.25130521468686595 
	-39.79949748426479772 -3.999999999999995115 70 
	0.001000000000000000021 
	cone -45 5.510910596163089556e-15 70 -1 1.224646799147353207e-16 0 0 0 -4 1 I I 0 1 4 forward I I I I 
	cone 0 0 70 0 0 1 40 0 0 1 I I 0 1 40 forward I I I I 
	nullbs 
	nullbs 
	I I 
	0 
	0 
	0 
	} I I #
point $-1 -21.21320343559643362 -21.21320343559642652 66 #
loop $-1 $63 $58 $39 #
face $-1 $64 $65 $3 $-1 $66 forward single #
cone-surface $-1 0 0 70 0 0 1 40 0 0 1 I I 0 1 40 forward I I I I #
face $-1 $67 $68 $3 $-1 $69 reversed single #
loop $-1 $70 $71 $41 #
cone-surface $-1 45 0 70 1 0 0 0 0 -4 1 I I 0 1 4 forward I I I I #
coedge $-1 $56 $56 $57 $72 reversed $42 $-1 #
coedge $-1 $57 $57 $56 $72 forward $44 $-1 #
coedge $-1 $58 $58 $45 $59 forward $50 $-1 #
edge $-1 $73 0 $73 24.12525955160148783 $58 $74 forward 7 unknown #
vertex $-1 $46 $75 #
ellipse-curve $-1 -30 3.673940397442059178e-15 70 1 -1.224646799147353207e-16 0 0 0 -4 1 I I #
point $-1 -39.79949748426479772 -3.999999999999995115 70 #
loop $-1 $76 $77 $39 #
face $-1 $78 $79 $3 $-1 $80 forward single #
loop $-1 $81 $82 $51 #
plane-surface $-1 0 0 90 0 0 1 1 0 0 forward_v I I I I #
face $-1 $83 $84 $3 $-1 $85 forward single #
loop $-1 $-1 $86 $53 #
plane-surface $-1 30 0 70 -1 0 0 0 0 1 forward_v I I I I #
loop $-1 $-1 $87 $41 #
coedge $-1 $71 $71 $77 $88 reversed $54 $-1 #
edge $-1 $89 0 $89 6.283185307179586232 $56 $90 forward 7 unknown #
vertex $-1 $59 $91 #
intcurve-curve $-1 forward { surfintcur full nubs 3 periodic 33 
	0 3 0.7539156440605968568 2 1.507831288121193714 2 2.261746932181790459 2 3.015662576242387427 2 
	3.769575654156883893 2 4.523488732071380802 2 5.277401809985876824 2 6.031314887900373733 2 6.785227965814870643 2 
	7.539141043729368441 2 8.293054121643866239 2 9.046967199558363149 2 9.800882843618961004 2 10.55479848767955708 2 
	11.30871413174015316 2 12.06262977580075102 2 12.81654541986134532 2 13.5704610639219414 2 14.32437670798253748 2 
	15.07829235204313179 2 15.83220542995763047 2 16.58611850787212916 2 17.34003158578662607 2 18.09394466370112298 2 
	18.84785774161561989 2 19.6017708195301168 2 20.35568389744461371 2 21.10959697535911062 2 21.86351261941970492 2 
	22.61742826348029922 2 23.37134390754089353 2 24.12525955160148783 3 
	25.31406743419438854 30.97092168368676113 70 
	25.31406743419438854 30.97092168368676113 69.74869478531313405 
	25.33281154570295257 30.955633574643457 69.48885972838031932 
	25.41151157971528463 30.89106132931357962 68.97209171957445051 
	25.47144700486971658 30.84178816942954171 68.71515427482877669 
	25.6292034403203175 30.71081960699613944 68.22244569039214923 
	25.72713758888373903 30.62900749634018638 67.98627895333697779 
	25.95207849960438296 30.43864862766176316 67.54957534454032952 
	26.07908080201201173 30.33007090031826891 67.34904967577683976 
	26.34786265921660231 30.09687341521978965 66.99409667881877795 
	26.49885882976301943 29.96428385920630078 66.82751650725953141 
	26.82491333050171889 29.67274593437223373 66.53385494252751187 
	26.99994625371757806 29.51378799845011258 66.40675483865180695 
	27.36169092618152021 29.17873625397076154 66.20259508286851258 
	27.54868100165649736 29.00236131952127749 66.12537292772410069 
	27.92112233171138413 28.64398217386509771 66.02406426022773189 
	28.10657223085571133 28.46197026406808561 66 
	28.46197026406808916 28.10657223085571133 66 
	28.64398217386510126 27.92112233171137703 66.02406426022773189 
	29.00236131952128815 27.5486810016564867 66.12537292772412911 
	29.1787362539707722 27.36169092618150955 66.20259508286851258 
	29.51378799845011969 26.9999462537175674 66.40675483865180695 
	29.67274593437222663 26.82491333050172599 66.53385494252751187 
	29.96428385920629012 26.49885882976302298 66.82751650725953141 
	30.09687341521979675 26.34786265921660231 66.99409667881877795 
	30.33007090031827602 26.07908080201200818 67.34904967577683976 
	30.43864862766176316 25.9520784996043723 67.54957534454034374 
	30.62900749634018638 25.72713758888372482 67.98627895333697779 
	30.71081960699614299 25.6292034403203246 68.22244569039216344 
	30.84178816942954882 25.47144700486972013 68.7151542748287909 
	30.89106132931357962 25.41151157971527752 68.97209171957446472 
	30.955633574643457 25.33281154570294547 69.48885972838033354 
	30.97092168368677534 25.31406743419438143 69.74869478531313405 
	30.97092168368677534 25.31406743419438143 70.25130521468686595 
	30.955633574643457 25.33281154570294547 70.51114027161966646 
	30.89106132931357962 25.41151157971528107 71.02790828042554949 
	30.84178816942954526 25.47144700486972013 71.28484572517122331 
	30.71081960699613944 25.6292034403203246 71.77755430960783656 
	30.62900749634018283 25.72713758888373192 72.01372104666303642 
	30.43864862766176316 25.9520784996043723 72.45042465545967048 
	30.33007090031827602 26.07908080201200818 72.65095032422314603 
	30.09687341521979675 26.34786265921660231 73.00590332118122205 
	29.96428385920630078 26.49885882976301943 73.17248349274046859 
	29.67274593437223373 26.82491333050172244 73.46614505747248813 
	29.51378799845011969 26.9999462537175674 73.59324516134820726 
	29.1787362539707722 27.36169092618150955 73.79740491713148742 
	29.00236131952128815 27.54868100165649025 73.87462707227589931 
	28.64398217386510126 27.92112233171138058 73.97593573977226811 
	28.46197026406808916 28.10657223085571133 74 
	28.10657223085571488 28.46197026406808561 74 
	27.92112233171138413 28.64398217386509771 73.97593573977226811 
	27.54868100165649381 29.0023613195212846 73.87462707227589931 
	27.36169092618151666 29.17873625397076864 73.79740491713148742 
	26.99994625371757451 29.51378799845011258 73.59324516134820726 
	26.82491333050172599 29.67274593437223729 73.46614505747247392 
	26.49885882976302653 29.96428385920630078 73.17248349274045438 
	26.34786265921660231 30.09687341521978965 73.00590332118120784 
	26.07908080201201528 30.33007090031826891 72.65095032422314603 
	25.9520784996043723 30.43864862766176316 72.45042465545965626 
	25.72713758888373548 30.62900749634017572 72.01372104666303642 
	25.6292034403203246 30.71081960699613234 71.77755430960786498 
	25.47144700486971658 30.84178816942954171 71.28484572517123752 
	25.41151157971528463 30.89106132931357251 71.0279082804255637 
	25.33281154570294902 30.95563357464344989 70.51114027161969489 
	25.31406743419438854 30.97092168368676113 70.25130521468686595 
	25.31406743419438854 30.97092168368676113 70 
	0.001000000000000000021 
	cone 31.81980515339463977 31.81980515339463622 70 0.7071067811865475727 0.7071067811865474617 0 0 0 -4 1 I I 0 1 4 forward I I I I 
	cone 0 0 70 0 0 1 40 0 0 1 I I 0 1 40 forward I I I I 
	nullbs 
	nullbs 
	I I 
	0 
	0 
	0 
	} I I #
point $-1 -30 3.673940397442059178e-15 66 #
loop $-1 $92 $93 $39 #
coedge $-1 $77 $77 $71 $88 forward $63 $-1 #
face $-1 $94 $95 $3 $-1 $96 forward single #
loop $-1 $97 $98 $64 #
plane-surface $-1 0 0 10 0 0 -1 -1 0 0 forward_v I I I I #
loop $-1 $-1 $99 $51 #
coedge $-1 $82 $82 $100 $101 forward $65 $-1 #
face $-1 $102 $103 $3 $-1 $104 forward single #
loop $-1 $105 $106 $67 #
cone-surface $-1 0 0 80 0 0 1 17.5 0 0 1 I I -0.2425356250363329691 0.9701425001453318764 17.5 forward I I I I #
coedge $-1 $86 $86 $87 $107 reversed $68 $-1 #
coedge $-1 $87 $87 $86 $107 forward $70 $-1 #
edge $-1 $108 0 $108 24.12525955160148783 $77 $109 forward 7 unknown #
vertex $-1 $72 $110 #
ellipse-curve $-1 21.21320343559642652 21.21320343559642652 70 -0.7071067811865475727 -0.7071067811865474617 0 0 0 -4 1 I I #
point $-1 25.31406743419439209 30.97092168368677179 70 #
loop $-1 $-1 $111 $39 #
coedge $-1 $93 $93 $112 $113 reversed $76 $-1 #
face $-1 $114 $115 $3 $-1 $116 forward single #
loop $-1 $117 $118 $78 #
cone-surface $-1 0 0 30 0 0 1 30 0 0 1 I I 0 1 30 forward I I I I #
loop $-1 $-1 $119 $64 #
coedge $-1 $98 $98 $118 $120 forward $79 $-1 #
coedge $-1 $99 $99 $111 $121 forward $81 $-1 #
coedge $-1 $100 $100 $82 $101 reversed $122 $-1 #
edge $-1 $123 0 $123 6.283185307179586232 $82 $124 forward 7 unknown #
face $-1 $125 $126 $3 $-1 $127 reversed single #
loop $-1 $-1 $128 $83 #
plane-surface $-1 0 0 110 0 0 1 1 0 0 forward_v I I I I #
loop $-1 $-1 $129 $67 #
coedge $-1 $106 $106 $128 $130 reversed $84 $-1 #
edge $-1 $131 0 $131 6.283185307179586232 $86 $132 forward 7 unknown #
vertex $-1 $88 $133 #
intcurve-curve $-1 forward { surfintcur full nubs 3 periodic 33 
	0 3 0.7539156440605965237 2 1.507831288121193047 2 2.261746932181789571 2 3.015662576242386095 2 
	3.769575654156883004 2 4.523488732071379914 2 5.277401809985876824 2 6.031314887900373733 2 6.785227965814870643 2 
	7.539141043729367553 2 8.293054121643864462 2 9.046967199558361372 2 9.800882843618957452 2 10.55479848767955531 2 
	11.30871413174015139 2 12.06262977580074747 2 12.81654541986134177 2 13.57046106392193607 2 14.32437670798253038 2 
	15.07829235204312468 2 15.83220542995762337 2 16.58611850787212205 2 17.34003158578661896 2 18.09394466370111587 2 
	18.84785774161561278 2 19.60177081953010969 2 20.3556838974446066 2 21.10959697535910706 2 21.86351261941970137 2 
	22.61742826348029922 2 23.37134390754089353 2 24.12525955160148783 3 
	39.79949748426479772 4 70 
	39.79949748426479772 4 69.74869478531313405 
	39.80194124704377856 3.975935586068934935 69.48885972838031932 
	39.81193110222431386 3.874626785790006078 68.97209171957445051 
	39.81947046229981879 3.797404654745511365 68.71515427482877669 
	39.83841234896384265 3.593245250843656535 68.22244569039214923 
	39.84981235129475863 3.466145452056723641 67.98627895333697779 
	39.87426554773009002 3.172484161818369675 67.54957534454032952 
	39.88729368969842426 3.005903925269225674 67.34904967577683976 
	39.91245564051892103 2.650950928311161636 66.99409667881877795 
	39.92547108247384102 2.450425538012930726 66.82751650725953141 
	39.94987798735935058 2.013721745880978631 66.53385494252751187 
	39.96124471988223092 1.777554544530205227 66.40675483865180695 
	39.98011947026986945 1.284845073003114901 66.20259508286852679 
	39.98762550847224162 1.027907210439612751 66.12537292772412911 
	39.99756897441886139 0.5111390962343340671 66.02406426022773189 
	40 0.2513043593048323032 66 
	40 -0.2513043593048323032 66 
	39.99756897441886139 -0.5111390962343340671 66.02406426022773189 
	39.98762550847224162 -1.027907210439612751 66.12537292772412911 
	39.98011947026986945 -1.284845073003114901 66.20259508286852679 
	39.96124471988223092 -1.777554544530205227 66.40675483865180695 
	39.94987798735935058 -2.013721745880978631 66.53385494252751187 
	39.92547108247384102 -2.450425538012930726 66.82751650725953141 
	39.91245564051892103 -2.650950928311161636 66.99409667881877795 
	39.88729368969842426 -3.005903925269225674 67.34904967577685397 
	39.87426554773009002 -3.172484161818379444 67.54957534454034374 
	39.84981235129475863 -3.466145452056728526 67.98627895333697779 
	39.83841234896384265 -3.593245250843652094 68.22244569039214923 
	39.81947046229981879 -3.797404654745507813 68.71515427482876248 
	39.81193110222431386 -3.874626785790006966 68.97209171957445051 
	39.80194124704377856 -3.975935586068937599 69.48885972838033354 
	39.79949748426479772 -4 69.74869478531313405 
	39.79949748426479772 -4 70.25130521468686595 
	39.80194124704377856 -3.975935586068934935 70.51114027161968068 
	39.81193110222431386 -3.874626785790006078 71.02790828042554949 
	39.81947046229981879 -3.797404654745510921 71.28484572517123752 
	39.83841234896384265 -3.593245250843656091 71.77755430960783656 
	39.84981235129475863 -3.466145452056731635 72.01372104666303642 
	39.87426554773009002 -3.172484161818378112 72.45042465545965626 
	39.88729368969842426 -3.005903925269225674 72.65095032422314603 
	39.91245564051892103 -2.65095092831116208 73.00590332118120784 
	39.92547108247384102 -2.450425538012934279 73.17248349274045438 
	39.94987798735935058 -2.013721745880986624 73.46614505747247392 
	39.96124471988223092 -1.777554544530205671 73.59324516134820726 
	39.98011947026986945 -1.284845073003114235 73.79740491713148742 
	39.98762550847224162 -1.027907210439611196 73.87462707227589931 
	39.99756897441886139 -0.5111390962343329569 73.97593573977226811 
	40 -0.2513043593048328028 74 
	40 0.2513043593048318591 74 
	39.99756897441886139 0.5111390962343319577 73.97593573977226811 
	39.98762550847224162 1.027907210439610086 73.87462707227589931 
	39.98011947026986945 1.284845073003113569 73.79740491713148742 
	39.96124471988223092 1.777554544530204339 73.59324516134820726 
	39.94987798735935058 2.01372174588098618 73.46614505747247392 
	39.92547108247384102 2.450425538012933391 73.17248349274045438 
	39.91245564051891392 2.650950928311160748 73.00590332118120784 
	39.88729368969842426 3.005903925269224786 72.65095032422314603 
	39.87426554773008291 3.172484161818377224 72.45042465545965626 
	39.84981235129475152 3.466145452056730747 72.01372104666303642 
	39.83841234896384265 3.593245250843655203 71.77755430960783656 
	39.81947046229981879 3.797404654745510477 71.28484572517123752 
	39.81193110222431386 3.874626785790005634 71.02790828042554949 
	39.80194124704377856 3.975935586068934491 70.51114027161968068 
	39.79949748426479772 4 70.25130521468686595 
	39.79949748426479772 4 70 
	0.001000000000000000021 
	cone 45 0 70 1 0 0 0 0 -4 1 I I 0 1 4 forward I I I I 
	cone 0 0 70 0 0 1 40 0 0 1 I I 0 1 40 forward I I I I 
	nullbs 
	nullbs 
	I I 
	0 
	0 
	0 
	} I I #
point $-1 21.21320343559642652 21.21320343559642652 66 #
coedge $-1 $111 $111 $99 $121 reversed $92 $-1 #
coedge $-1 $112 $112 $93 $113 forward $134 $-1 #
edge $-1 $135 0 $135 6.283185307179586232 $112 $136 forward 7 unknown #
face $-1 $-1 $137 $3 $-1 $138 forward single #
loop $-1 $139 $140 $94 #
cone-surface $-1 0 0 5 0 0 1 10 0 0 1 I I 0 1 10 forward I I I I #
loop $-1 $-1 $141 $78 #
coedge $-1 $118 $118 $98 $120 reversed $95 $-1 #
coedge $-1 $119 $119 $142 $143 forward $97 $-1 #
edge $-1 $144 0 $144 6.283185307179586232 $98 $145 forward 7 unknown #
edge $-1 $146 0 $146 6.283185307179586232 $99 $147 forward 7 unknown #
loop $-1 $-1 $100 $102 #
vertex $-1 $101 $148 #
ellipse-curve $-1 0 0 90 -0 -0 -1 30 0 0 1 I I #
face $-1 $39 $134 $3 $-1 $149 forward single #
loop $-1 $122 $150 $102 #
cone-surface $-1 0 0 70 0 0 1 22.5 0 0 1 I I 0.3511234415883917048 0.9363291775690445462 22.5 forward I I I I #
coedge $-1 $128 $128 $106 $130 forward $103 $-1 #
coedge $-1 $129 $129 $150 $151 reversed $105 $-1 #
edge $-1 $152 0 $152 6.283185307179586232 $128 $153 forward 7 unknown #
vertex $-1 $107 $154 #
ellipse-curve $-1 30 0 70 -1 0 0 0 0 -4 1 I I #
point $-1 39.79949748426479772 4 70 #
loop $-1 $155 $112 $125 #
vertex $-1 $113 $156 #
ellipse-curve $-1 0 0 50 0 0 -1 40 0 0 1 I I #
loop $-1 $-1 $157 $114 #
plane-surface $-1 0 0 0 0 0 -1 -1 0 0 forward_v I I I I #
loop $-1 $-1 $142 $94 #
coedge $-1 $140 $140 $157 $158 reversed $115 $-1 #
coedge $-1 $141 $141 $159 $160 reversed $117 $-1 #
coedge $-1 $142 $142 $119 $143 reversed $139 $-1 #
edge $-1 $161 0 $161 6.283185307179586232 $142 $162 forward 7 unknown #
vertex $-1 $120 $163 #
ellipse-curve $-1 0 0 10 0 0 -1 30 0 0 1 I I #
vertex $-1 $121 $164 #
ellipse-curve $-1 0 0 90 0 0 1 40 0 0 1 I I #
point $-1 30 0 90 #
plane-surface $-1 0 0 50 0 0 -1 -1 0 0 forward_v I I I I #
coedge $-1 $150 $150 $129 $151 forward $126 $-1 #
edge $-1 $165 -3.141592653589793116 $165 3.141592653589793116 $150 $166 forward 7 unknown #
vertex $-1 $130 $167 #
ellipse-curve $-1 0 0 110 0 0 1 10 0 0 1 I I #
point $-1 30 0 66 #
loop $-1 $-1 $159 $125 #
point $-1 40 0 50 #
coedge $-1 $157 $157 $140 $158 forward $137 $-1 #
edge $-1 $168 0 $168 6.283185307179586232 $157 $169 forward 7 unknown #
coedge $-1 $159 $159 $141 $160 forward $155 $-1 #
edge $-1 $170 0 $170 6.283185307179586232 $141 $171 forward 7 unknown #
vertex $-1 $143 $172 #
ellipse-curve $-1 0 0 10 0 0 1 10 0 0 1 I I #
point $-1 30 0 10 #
point $-1 40 0 90 #
vertex $-1 $151 $173 #
ellipse-curve $-1 0 0 66 -0 -0 -1 21 0 0 1 I I #
point $-1 10 0 110 #
vertex $-1 $158 $174 #
ellipse-curve $-1 0 0 0 0 0 -1 10 0 0 1 I I #
vertex $-1 $160 $175 #
ellipse-curve $-1 0 0 50 0 0 1 30 0 0 1 I I #
point $-1 10 0 10 #
point $-1 -21 2.571758278209441661e-15 66 #
point $-1 10 0 0 #
point $-1 30 0 50 #
End-of-ACIS-data 