700 0 2 0           
24 FBMach with ACIS - 7.0.3 13 ACIS 7.0.3 NT 24 Mon May 13 17:07:14 2002 
1 9.9999999999999995e-007 1e-010 
body $2 -1 $-1 $3 $-1 $4 #
bdycol-kcp $-1 -1 1 4 $5 $6 $7 $8 #
model_id-kcp-attrib $-1 -1 $9 $-1 $0 1 1021324034 1021324034 1217921025 1 #
lump $-1 -1 $-1 $-1 $10 $0 #
transform $-1 -1 1 0 0 0 1 0 0 0 1 0 0 0 1 rotate no_reflect no_shear #
body $11 -1 $-1 $12 $-1 $13 #
body $14 -1 $-1 $15 $-1 $16 #
body $17 -1 $-1 $18 $-1 $19 #
body $20 -1 $-1 $21 $-1 $22 #
rgb_color-st-attrib $-1 -1 $-1 $2 $0 0 1 0 #
shell $-1 -1 $-1 $-1 $-1 $23 $-1 $3 #
model_id-kcp-attrib $-1 -1 $24 $-1 $5 1 1021324034 1021324034 1213923333 1 #
lump $-1 -1 $-1 $-1 $25 $5 #
transform $-1 -1 1 0 0 0 1 0 0 0 1 0 0 2.5 1 no_rotate no_reflect no_shear #
model_id-kcp-attrib $-1 -1 $-1 $-1 $6 1 1021324034 1021324034 1217921026 1 #
lump $-1 -1 $-1 $-1 $26 $6 #
transform $-1 -1 1 0 0 0 1 0 0 0 1 0 0 2.5 1 no_rotate no_reflect no_shear #
rgb_color-st-attrib $-1 -1 $27 $-1 $7 0.5 1 1 #
lump $-1 -1 $-1 $-1 $28 $7 #
transform $-1 -1 1 0 0 0 1 0 0 0 1 0 0 2.5 1 no_rotate no_reflect no_shear #
model_id-kcp-attrib $-1 -1 $29 $-1 $8 1 1021324034 1021324034 1224146948 1 #
lump $-1 -1 $-1 $-1 $30 $8 #
transform $-1 -1 1 0 0 0 1 0 0 0 1 0 0 2.5 1 no_rotate no_reflect no_shear #
face $31 -1 $-1 $32 $33 $10 $-1 $34 forward single #
rgb_color-st-attrib $-1 -1 $-1 $11 $5 1 0.5 1 #
shell $-1 -1 $-1 $-1 $-1 $35 $-1 $12 #
shell $-1 -1 $-1 $-1 $-1 $36 $-1 $15 #
model_id-kcp-attrib $-1 -1 $-1 $17 $7 1 1021324034 1021324034 1222508547 1 #
shell $-1 -1 $-1 $-1 $-1 $37 $-1 $18 #
rgb_color-st-attrib $-1 -1 $-1 $20 $8 0 0 1 #
shell $-1 -1 $-1 $-1 $-1 $38 $-1 $21 #
model_id-kcp-attrib $-1 -1 $-1 $-1 $23 1 1021324034 1021324034 1217921025 2 #
face $39 -1 $-1 $40 $41 $10 $-1 $42 forward single #
loop $-1 -1 $-1 $-1 $43 $23 #
plane-surface $-1 -1 $-1 -1.5 0 -2.5 1 0 0 0 0 -1 forward_v I I I I #
face $-1 -1 $-1 $44 $45 $25 $-1 $46 forward single #
face $47 -1 $-1 $48 $49 $26 $-1 $50 forward single #
face $-1 -1 $-1 $51 $52 $28 $-1 $53 reversed single #
face $-1 -1 $-1 $54 $55 $30 $-1 $56 forward single #
model_id-kcp-attrib $-1 -1 $-1 $-1 $32 1 1021324034 1021324034 1217921025 3 #
face $57 -1 $-1 $58 $59 $10 $-1 $60 forward single #
loop $-1 -1 $-1 $-1 $61 $32 #
plane-surface $-1 -1 $-1 1.5 0 -2.5 -1 0 0 0 0 1 forward_v I I I I #
coedge $-1 -1 $-1 $62 $63 $64 $65 reversed $33 $-1 #
face $-1 -1 $-1 $66 $67 $25 $-1 $68 forward single #
loop $-1 -1 $-1 $69 $70 $35 #
cone-surface $-1 -1 $-1 0 0 -2.5 0 0 1 1 0 0 1 I I 0 -1 1 forward I I I I #
model_id-kcp-attrib $-1 -1 $-1 $-1 $36 1 1021324034 1021324034 1217921026 3 #
face $71 -1 $-1 $72 $73 $26 $-1 $74 reversed single #
loop $-1 -1 $-1 $-1 $75 $36 #
plane-surface $-1 -1 $-1 0 0 5.5 0 0 1 1 0 0 forward_v I I I I #
face $-1 -1 $-1 $76 $77 $28 $-1 $53 reversed single #
loop $-1 -1 $-1 $-1 $78 $37 #
cone-surface $-1 -1 $-1 -7.4983036091106872e-033 0 -5.5 0 0 -1 2 0 0 1 I I 0 1 2 forward I I I I #
face $-1 -1 $-1 $79 $80 $30 $-1 $81 forward single #
loop $-1 -1 $-1 $-1 $82 $38 #
plane-surface $-1 -1 $-1 1.5 0.59999999999999998 -3.5 0 1 0 0 0 1 forward_v I I I I #
model_id-kcp-attrib $-1 -1 $-1 $-1 $40 1 1021324034 1021324034 1217921025 4 #
face $83 -1 $-1 $84 $85 $10 $-1 $60 forward single #
loop $-1 -1 $-1 $-1 $86 $40 #
plane-surface $-1 -1 $-1 0 -0.59999999999999998 -2.5 0 1 0 0 0 1 forward_v I I I I #
coedge $-1 -1 $-1 $87 $88 $89 $90 reversed $41 $-1 #
coedge $-1 -1 $-1 $91 $43 $92 $93 reversed $33 $-1 #
coedge $-1 -1 $-1 $43 $91 $94 $95 forward $33 $-1 #
coedge $-1 -1 $-1 $96 $97 $43 $65 forward $98 $-1 #
edge $99 -1 $-1 $100 -0.59999999999999998 $101 0.59999999999999998 $64 $102 forward @7 unknown #
face $-1 -1 $-1 $103 $104 $25 $-1 $105 forward single #
loop $-1 -1 $-1 $106 $107 $44 #
cone-surface $-1 -1 $-1 -7.4983036091106872e-033 0 -2.5 0 0 1 2 0 0 1 I I 0 1 2 forward I I I I #
loop $-1 -1 $-1 $-1 $108 $35 #
coedge $-1 -1 $-1 $70 $70 $109 $110 forward $45 $-1 #
model_id-kcp-attrib $-1 -1 $-1 $-1 $48 1 1021324034 1021324034 1217921026 2 #
face $-1 -1 $-1 $111 $112 $26 $-1 $113 reversed single #
loop $-1 -1 $-1 $-1 $114 $48 #
plane-surface $-1 -1 $-1 0 0 -5.5 0 0 1 1 0 0 forward_v I I I I #
coedge $-1 -1 $-1 $115 $116 $117 $118 forward $49 $-1 #
face $-1 -1 $-1 $119 $120 $28 $-1 $53 reversed single #
loop $-1 -1 $-1 $-1 $121 $51 #
coedge $-1 -1 $-1 $122 $123 $124 $125 forward $52 $-1 #
face $-1 -1 $-1 $126 $127 $30 $-1 $128 forward single #
loop $-1 -1 $-1 $-1 $129 $54 #
plane-surface $-1 -1 $-1 0.59999999999999998 0.59999999999999998 -3.5 1 0 0 0 0 -1 forward_v I I I I #
coedge $-1 -1 $-1 $130 $131 $132 $133 forward $55 $-1 #
model_id-kcp-attrib $-1 -1 $-1 $-1 $58 1 1021324034 1021324034 1217921025 5 #
face $134 -1 $-1 $135 $136 $10 $-1 $137 forward single #
loop $-1 -1 $-1 $-1 $138 $58 #
coedge $-1 -1 $-1 $139 $140 $141 $142 reversed $59 $-1 #
coedge $-1 -1 $-1 $143 $61 $140 $144 reversed $41 $-1 #
coedge $-1 -1 $-1 $61 $143 $145 $146 forward $41 $-1 #
coedge $-1 -1 $-1 $147 $141 $61 $90 forward $98 $-1 #
edge $148 -1 $-1 $149 -0.59999999999999998 $150 0.59999999999999998 $89 $151 forward @7 unknown #
coedge $-1 -1 $-1 $63 $62 $152 $153 forward $33 $-1 #
coedge $-1 -1 $-1 $154 $155 $62 $93 forward $156 $-1 #
edge $-1 -1 $-1 $157 -1.5 $100 0.5 $92 $158 forward @7 unknown #
coedge $-1 -1 $-1 $159 $138 $63 $95 reversed $85 $-1 #
edge $-1 -1 $-1 $160 -1.5 $101 0.5 $63 $161 forward @7 unknown #
coedge $-1 -1 $-1 $162 $64 $138 $163 forward $98 $-1 #
coedge $-1 -1 $-1 $64 $164 $154 $165 forward $98 $-1 #
loop $-1 -1 $-1 $-1 $97 $166 #
attrib_edge_convexity-kcp-attrib $-1 -1 $167 $-1 $65 1 #
vertex $-1 -1 $-1 $65 $168 #
vertex $-1 -1 $-1 $163 $169 #
straight-curve $-1 -1 $-1 -1.5 0 -3 0 -1 0 I I #
face $-1 -1 $-1 $-1 $170 $25 $-1 $171 reversed single #
loop $-1 -1 $-1 $172 $173 $66 #
plane-surface $-1 -1 $-1 -0.090909090909090884 -8.8083212861625383e-018 5.5 0 0 1 1 0 0 forward_v I I I I #
loop $-1 -1 $-1 $-1 $174 $44 #
coedge $-1 -1 $-1 $107 $107 $173 $175 forward $67 $-1 #
coedge $-1 -1 $-1 $108 $108 $176 $177 reversed $69 $-1 #
coedge $-1 -1 $-1 $109 $109 $70 $110 reversed $172 $-1 #
edge $-1 -1 $-1 $178 0 $178 6.2831853071795862 $70 $179 forward @7 unknown #
face $-1 -1 $-1 $180 $181 $26 $-1 $182 reversed single #
loop $-1 -1 $-1 $-1 $183 $72 #
plane-surface $-1 -1 $-1 0 -2 0 0 1 0 0 0 1 forward_v I I I I #
coedge $-1 -1 $-1 $184 $185 $186 $187 forward $73 $-1 #
coedge $-1 -1 $-1 $188 $75 $189 $190 forward $49 $-1 #
coedge $-1 -1 $-1 $75 $188 $191 $192 forward $49 $-1 #
coedge $-1 -1 $-1 $193 $194 $75 $118 reversed $195 $-1 #
edge $-1 -1 $-1 $196 -2 $197 2 $117 $198 forward @7 unknown #
face $-1 -1 $-1 $199 $200 $28 $-1 $53 reversed single #
loop $-1 -1 $-1 $-1 $201 $76 #
coedge $-1 -1 $-1 $202 $124 $203 $204 reversed $77 $-1 #
coedge $-1 -1 $-1 $205 $78 $206 $207 reversed $52 $-1 #
coedge $-1 -1 $-1 $78 $205 $208 $209 reversed $52 $-1 #
coedge $-1 -1 $-1 $121 $210 $211 $125 reversed $77 $-1 #
edge $-1 -1 $-1 $212 -11 $213 0 $211 $214 forward @7 unknown #
face $-1 -1 $-1 $215 $216 $30 $-1 $217 forward single #
loop $-1 -1 $-1 $-1 $218 $79 #
plane-surface $-1 -1 $-1 0.59999999999999998 1.5 -3.5 0 1 0 0 0 1 forward_v I I I I #
coedge $-1 -1 $-1 $219 $220 $221 $222 forward $80 $-1 #
coedge $-1 -1 $-1 $223 $82 $220 $224 reversed $55 $-1 #
coedge $-1 -1 $-1 $82 $223 $225 $226 forward $55 $-1 #
coedge $-1 -1 $-1 $227 $221 $82 $133 reversed $228 $-1 #
edge $-1 -1 $-1 $229 -1.5 $230 -0.59999999999999998 $82 $231 forward @7 unknown #
model_id-kcp-attrib $-1 -1 $-1 $-1 $84 1 1021324034 1021324034 1217921025 6 #
face $232 -1 $-1 $233 $156 $10 $-1 $137 forward single #
loop $-1 -1 $-1 $-1 $234 $84 #
plane-surface $-1 -1 $-1 0 0.59999999999999998 -2.5 0 -1 0 0 0 -1 forward_v I I I I #
coedge $-1 -1 $-1 $94 $235 $96 $163 reversed $85 $-1 #
coedge $-1 -1 $-1 $236 $86 $237 $238 reversed $59 $-1 #
coedge $-1 -1 $-1 $86 $236 $87 $144 forward $59 $-1 #
coedge $-1 -1 $-1 $89 $239 $86 $142 forward $98 $-1 #
edge $240 -1 $-1 $241 0.59999999999999998 $149 1.5 $141 $242 forward @7 unknown #
coedge $-1 -1 $-1 $88 $87 $243 $244 forward $41 $-1 #
edge $-1 -1 $-1 $245 -1.5 $149 0.5 $87 $246 forward @7 unknown #
coedge $-1 -1 $-1 $247 $234 $88 $146 reversed $136 $-1 #
edge $-1 -1 $-1 $248 -1.5 $150 0.5 $88 $249 forward @7 unknown #
coedge $-1 -1 $-1 $250 $89 $234 $251 forward $98 $-1 #
attrib_edge_convexity-kcp-attrib $-1 -1 $252 $-1 $90 1 #
vertex $-1 -1 $-1 $142 $253 #
vertex $-1 -1 $-1 $251 $254 #
straight-curve $-1 -1 $-1 1.5 0 -3 0 1 0 I I #
coedge $-1 -1 $-1 $255 $256 $91 $153 reversed $257 $-1 #
edge $258 -1 $-1 $157 -0.59999999999999998 $160 0.59999999999999998 $91 $259 forward @7 unknown #
coedge $-1 -1 $-1 $260 $92 $97 $165 reversed $156 $-1 #
coedge $-1 -1 $-1 $92 $260 $255 $261 forward $156 $-1 #
loop $-1 -1 $-1 $-1 $154 $135 #
vertex $-1 -1 $-1 $261 $262 #
straight-curve $-1 -1 $-1 -1.5 0.59999999999999998 -2.5 0 0 -1 I I #
coedge $-1 -1 $-1 $235 $94 $256 $263 forward $85 $-1 #
vertex $-1 -1 $-1 $153 $264 #
straight-curve $-1 -1 $-1 -1.5 -0.59999999999999998 -2.5 0 0 -1 I I #
coedge $-1 -1 $-1 $265 $96 $266 $267 forward $98 $-1 #
edge $268 -1 $-1 $101 -1.5 $269 -0.59999999999999998 $96 $242 forward @7 unknown #
coedge $-1 -1 $-1 $97 $270 $271 $272 forward $98 $-1 #
edge $273 -1 $-1 $274 0.59999999999999998 $100 1.5 $97 $275 forward @7 unknown #
face $276 -1 $-1 $277 $278 $10 $-1 $279 forward single #
convexity-sys-attrib $-1 -1 $-1 $99 $65 #
point $-1 -1 $-1 -1.5 0.59999999999999998 -3 #
point $-1 -1 $-1 -1.5 -0.59999999999999998 -3 #
loop $-1 -1 $-1 $280 $281 $103 #
plane-surface $-1 -1 $-1 -0.090909090909090884 -8.8083212861625383e-018 -2.5 0 0 1 1 0 0 forward_v I I I I #
loop $-1 -1 $-1 $-1 $109 $66 #
coedge $-1 -1 $-1 $173 $173 $107 $175 reversed $104 $-1 #
coedge $-1 -1 $-1 $174 $174 $281 $282 reversed $106 $-1 #
edge $-1 -1 $-1 $283 -3.1415926535897931 $283 3.1415926535897931 $107 $284 forward @7 unknown #
coedge $-1 -1 $-1 $176 $176 $108 $177 forward $280 $-1 #
edge $285 -1 $-1 $286 0 $286 6.2831853071795862 $108 $287 forward @7 unknown #
vertex $-1 -1 $-1 $110 $288 #
ellipse-curve $-1 -1 $-1 0 0 5.5 0 0 1 1 0 0 1 I I #
face $-1 -1 $-1 $289 $290 $26 $-1 $291 reversed single #
loop $-1 -1 $-1 $-1 $292 $111 #
plane-surface $-1 -1 $-1 -2 0 0 1 0 0 0 0 -1 forward_v I I I I #
coedge $-1 -1 $-1 $293 $191 $294 $295 forward $112 $-1 #
coedge $-1 -1 $-1 $296 $114 $293 $297 forward $73 $-1 #
coedge $-1 -1 $-1 $114 $296 $298 $299 forward $73 $-1 #
coedge $-1 -1 $-1 $194 $193 $114 $187 reversed $195 $-1 #
edge $-1 -1 $-1 $300 -2 $301 2 $186 $302 forward @7 unknown #
coedge $-1 -1 $-1 $116 $115 $303 $304 forward $49 $-1 #
coedge $-1 -1 $-1 $305 $306 $115 $190 reversed $290 $-1 #
edge $-1 -1 $-1 $197 -2 $307 2 $189 $308 forward @7 unknown #
coedge $-1 -1 $-1 $183 $309 $116 $192 reversed $112 $-1 #
edge $-1 -1 $-1 $310 -2 $196 2 $191 $311 forward @7 unknown #
coedge $-1 -1 $-1 $186 $117 $309 $312 forward $195 $-1 #
coedge $-1 -1 $-1 $117 $186 $305 $313 reversed $195 $-1 #
loop $-1 -1 $-1 $-1 $193 $289 #
vertex $-1 -1 $-1 $118 $314 #
vertex $-1 -1 $-1 $118 $315 #
straight-curve $-1 -1 $-1 2 0 5.5 0 1 0 I I #
face $-1 -1 $-1 $316 $317 $28 $-1 $318 reversed single #
loop $-1 -1 $-1 $-1 $319 $119 #
coedge $-1 -1 $-1 $320 $321 $322 $323 reversed $120 $-1 #
coedge $-1 -1 $-1 $210 $121 $324 $325 forward $77 $-1 #
coedge $-1 -1 $-1 $326 $327 $121 $204 forward $328 $-1 #
edge $-1 -1 $-1 $329 -3.1415926535897931 $212 -1.5707963267948966 $203 $330 forward @7 unknown #
coedge $-1 -1 $-1 $123 $122 $331 $332 reversed $52 $-1 #
coedge $-1 -1 $-1 $333 $334 $122 $207 forward $335 $-1 #
edge $-1 -1 $-1 $336 0 $213 1.5707963267948966 $206 $337 forward @7 unknown #
coedge $-1 -1 $-1 $338 $339 $123 $209 forward $340 $-1 #
edge $-1 -1 $-1 $212 -1.5707963267948966 $341 0 $208 $330 forward @7 unknown #
coedge $-1 -1 $-1 $124 $202 $342 $343 reversed $77 $-1 #
coedge $-1 -1 $-1 $344 $345 $346 $125 forward $347 $-1 #
vertex $-1 -1 $-1 $348 $349 #
vertex $-1 -1 $-1 $350 $351 #
straight-curve $-1 -1 $-1 -7.4983036091106872e-033 2 -5.5 0 0 -1 I I #
face $-1 -1 $-1 $352 $353 $30 $-1 $354 forward single #
loop $-1 -1 $-1 $-1 $355 $126 #
plane-surface $-1 -1 $-1 -0.60000000000000009 1.5 -3.5 -1 0 0 0 0 1 forward_v I I I I #
coedge $-1 -1 $-1 $356 $357 $358 $359 forward $127 $-1 #
coedge $-1 -1 $-1 $360 $129 $357 $361 reversed $80 $-1 #
coedge $-1 -1 $-1 $129 $360 $130 $224 forward $80 $-1 #
coedge $-1 -1 $-1 $132 $358 $129 $222 reversed $228 $-1 #
edge $-1 -1 $-1 $230 0.59999999999999998 $362 1.5 $129 $363 forward @7 unknown #
coedge $-1 -1 $-1 $131 $130 $364 $365 reversed $55 $-1 #
edge $366 -1 $-1 $367 0 $230 2 $220 $368 forward @7 unknown #
coedge $-1 -1 $-1 $369 $370 $131 $226 reversed $371 $-1 #
edge $-1 -1 $-1 $372 0 $229 2 $131 $373 forward @7 unknown #
coedge $-1 -1 $-1 $374 $132 $370 $375 reversed $228 $-1 #
loop $-1 -1 $-1 $-1 $132 $376 #
vertex $-1 -1 $-1 $226 $377 #
vertex $-1 -1 $-1 $224 $378 #
straight-curve $-1 -1 $-1 0 0.59999999999999998 -5.5 -1 0 0 I I #
model_id-kcp-attrib $-1 -1 $-1 $-1 $135 1 1021324034 1021324034 1217921025 7 #
face $379 -1 $-1 $166 $380 $10 $-1 $381 forward single #
coedge $-1 -1 $-1 $145 $382 $147 $251 reversed $136 $-1 #
coedge $-1 -1 $-1 $138 $159 $383 $384 reversed $85 $-1 #
coedge $-1 -1 $-1 $140 $139 $385 $386 forward $59 $-1 #
coedge $-1 -1 $-1 $387 $388 $139 $238 forward $389 $-1 #
edge $-1 -1 $-1 $390 -1.5 $241 0.5 $237 $391 forward @7 unknown #
coedge $-1 -1 $-1 $141 $265 $387 $392 forward $98 $-1 #
attrib_edge_convexity-kcp-attrib $-1 -1 $393 $-1 $142 1 #
vertex $-1 -1 $-1 $238 $394 #
straight-curve $-1 -1 $-1 0 -0.59999999999999998 -3 1 0 0 I I #
coedge $-1 -1 $-1 $385 $395 $143 $244 reversed $257 $-1 #
edge $396 -1 $-1 $245 -0.59999999999999998 $248 0.59999999999999998 $143 $397 forward @7 unknown #
vertex $-1 -1 $-1 $244 $398 #
straight-curve $-1 -1 $-1 1.5 -0.59999999999999998 -2.5 0 0 -1 I I #
coedge $-1 -1 $-1 $382 $145 $395 $399 forward $136 $-1 #
vertex $-1 -1 $-1 $244 $400 #
straight-curve $-1 -1 $-1 1.5 0.59999999999999998 -2.5 0 0 -1 I I #
coedge $-1 -1 $-1 $270 $147 $401 $402 forward $98 $-1 #
edge $403 -1 $-1 $150 -1.5 $404 -0.59999999999999998 $147 $275 forward @7 unknown #
convexity-sys-attrib $-1 -1 $-1 $148 $90 #
point $-1 -1 $-1 1.5 -0.59999999999999998 -3 #
point $-1 -1 $-1 1.5 0.59999999999999998 -3 #
coedge $-1 -1 $-1 $405 $152 $155 $261 reversed $257 $-1 #
coedge $-1 -1 $-1 $152 $406 $159 $263 reversed $257 $-1 #
loop $-1 -1 $-1 $-1 $405 $407 #
attrib_edge_convexity-kcp-attrib $-1 -1 $408 $-1 $153 2 #
straight-curve $-1 -1 $-1 -1.5 0 -1 0 -1 0 I I #
coedge $-1 -1 $-1 $155 $154 $409 $410 reversed $156 $-1 #
edge $411 -1 $-1 $412 0.59999999999999998 $157 1.5 $155 $413 forward @7 unknown #
point $-1 -1 $-1 -1.5 0.59999999999999998 -1 #
edge $414 -1 $-1 $160 -1.5 $415 -0.59999999999999998 $159 $416 forward @7 unknown #
point $-1 -1 $-1 -1.5 -0.59999999999999998 -1 #
coedge $-1 -1 $-1 $239 $162 $417 $418 forward $98 $-1 #
coedge $-1 -1 $-1 $383 $419 $162 $267 reversed $380 $-1 #
edge $420 -1 $-1 $269 0.59999999999999998 $421 1.5 $162 $422 forward @7 unknown #
attrib_edge_convexity-kcp-attrib $-1 -1 $423 $-1 $163 1 #
vertex $-1 -1 $-1 $267 $424 #
coedge $-1 -1 $-1 $164 $250 $425 $426 forward $98 $-1 #
coedge $-1 -1 $-1 $427 $409 $164 $272 reversed $428 $-1 #
edge $429 -1 $-1 $430 -1.5 $274 -0.59999999999999998 $164 $422 forward @7 unknown #
attrib_edge_convexity-kcp-attrib $-1 -1 $431 $-1 $165 1 #
vertex $-1 -1 $-1 $410 $432 #
straight-curve $-1 -1 $-1 0 0.59999999999999998 -3 -1 0 0 I I #
model_id-kcp-attrib $-1 -1 $-1 $-1 $166 1 1021324034 1021324034 1217921025 9 #
face $433 -1 $-1 $434 $435 $10 $-1 $436 forward single #
loop $-1 -1 $-1 $98 $437 $166 #
plane-surface $-1 -1 $-1 0 0 -3 0 0 -1 1 0 0 forward_v I I I I #
loop $-1 -1 $-1 $-1 $176 $103 #
coedge $-1 -1 $-1 $281 $281 $174 $282 forward $170 $-1 #
edge $438 -1 $-1 $439 -3.1415926535897931 $439 3.1415926535897931 $174 $440 forward @7 unknown #
vertex $-1 -1 $-1 $175 $441 #
ellipse-curve $-1 -1 $-1 -7.4983036091106872e-033 0 5.5 0 0 -1 2 0 0 1 I I #
convexity-sys-attrib $-1 -1 $-1 $-1 $177 #
vertex $-1 -1 $-1 $177 $442 #
ellipse-curve $-1 -1 $-1 0 0 -2.5 0 0 1 1 0 0 1 I I #
point $-1 -1 $-1 1 0 5.5 #
face $-1 -1 $-1 $-1 $195 $26 $-1 $443 reversed single #
loop $-1 -1 $-1 $-1 $305 $180 #
plane-surface $-1 -1 $-1 0 2 0 0 -1 0 0 0 -1 forward_v I I I I #
coedge $-1 -1 $-1 $444 $303 $306 $445 forward $181 $-1 #
coedge $-1 -1 $-1 $309 $183 $184 $297 reversed $112 $-1 #
coedge $-1 -1 $-1 $303 $444 $183 $295 reversed $181 $-1 #
edge $-1 -1 $-1 $310 -5.5 $446 5.5 $294 $447 forward @7 unknown #
coedge $-1 -1 $-1 $185 $184 $444 $448 forward $73 $-1 #
edge $-1 -1 $-1 $301 -2 $446 2 $293 $449 forward @7 unknown #
coedge $-1 -1 $-1 $306 $305 $185 $299 reversed $290 $-1 #
edge $-1 -1 $-1 $450 -2 $300 2 $298 $451 forward @7 unknown #
vertex $-1 -1 $-1 $187 $452 #
vertex $-1 -1 $-1 $312 $453 #
straight-curve $-1 -1 $-1 2 0 -5.5 0 -1 0 I I #
coedge $-1 -1 $-1 $292 $294 $188 $304 reversed $181 $-1 #
edge $-1 -1 $-1 $307 -2 $310 2 $303 $454 forward @7 unknown #
coedge $-1 -1 $-1 $298 $189 $194 $313 forward $290 $-1 #
coedge $-1 -1 $-1 $189 $298 $292 $445 reversed $290 $-1 #
vertex $-1 -1 $-1 $190 $455 #
straight-curve $-1 -1 $-1 0 2 5.5 -1 0 0 I I #
coedge $-1 -1 $-1 $191 $293 $193 $312 reversed $112 $-1 #
vertex $-1 -1 $-1 $304 $456 #
straight-curve $-1 -1 $-1 0 -2 5.5 1 0 0 I I #
edge $-1 -1 $-1 $196 -5.5 $301 5.5 $193 $457 forward @7 unknown #
edge $-1 -1 $-1 $197 -5.5 $300 5.5 $194 $458 forward @7 unknown #
point $-1 -1 $-1 2 -2 5.5 #
point $-1 -1 $-1 2 2 5.5 #
face $-1 -1 $-1 $459 $347 $28 $-1 $460 reversed single #
loop $-1 -1 $-1 $-1 $331 $199 #
plane-surface $-1 -1 $-1 2 0 0 -1 0 0 0 0 1 forward_v I I I I #
coedge $-1 -1 $-1 $324 $461 $462 $463 reversed $200 $-1 #
coedge $-1 -1 $-1 $464 $201 $465 $466 reversed $120 $-1 #
coedge $-1 -1 $-1 $201 $464 $205 $332 forward $120 $-1 #
coedge $-1 -1 $-1 $467 $468 $201 $323 forward $469 $-1 #
edge $-1 -1 $-1 $470 -1.5707963267948966 $336 0 $322 $337 forward @7 unknown #
coedge $-1 -1 $-1 $471 $319 $472 $325 reversed $200 $-1 #
edge $-1 -1 $-1 $329 -11 $473 0 $472 $474 forward @7 unknown #
coedge $-1 -1 $-1 $327 $203 $345 $348 forward $328 $-1 #
coedge $-1 -1 $-1 $203 $326 $475 $476 forward $328 $-1 #
loop $-1 -1 $-1 $-1 $203 $477 #
vertex $-1 -1 $-1 $478 $479 #
ellipse-curve $-1 -1 $-1 -7.4983036091106872e-033 0 5.5 0 0 -1 2 0 0 1 I I #
coedge $-1 -1 $-1 $480 $481 $482 $332 forward $317 $-1 #
edge $-1 -1 $-1 $341 -11 $336 0 $331 $483 forward @7 unknown #
coedge $-1 -1 $-1 $334 $206 $484 $350 forward $335 $-1 #
coedge $-1 -1 $-1 $206 $333 $480 $485 forward $335 $-1 #
loop $-1 -1 $-1 $-1 $206 $486 #
vertex $-1 -1 $-1 $487 $488 #
ellipse-curve $-1 -1 $-1 -7.4983036091106872e-033 0 -5.5 0 0 1 2 0 0 1 I I #
coedge $-1 -1 $-1 $339 $208 $481 $489 forward $340 $-1 #
coedge $-1 -1 $-1 $208 $338 $490 $491 forward $340 $-1 #
loop $-1 -1 $-1 $-1 $208 $492 #
vertex $-1 -1 $-1 $489 $493 #
coedge $-1 -1 $-1 $494 $495 $210 $343 forward $496 $-1 #
edge $-1 -1 $-1 $213 1.5707963267948966 $473 3.1415926535897931 $342 $337 forward @7 unknown #
coedge $-1 -1 $-1 $497 $211 $495 $498 reversed $347 $-1 #
coedge $-1 -1 $-1 $211 $497 $326 $348 reversed $347 $-1 #
coedge $-1 -1 $-1 $490 $484 $78 $125 reversed $499 $-1 #
loop $-1 -1 $-1 $-1 $211 $316 #
edge $-1 -1 $-1 $212 7.4983036091106872e-033 $500 2 $345 $501 forward @7 unknown #
point $-1 -1 $-1 -7.4983036091106872e-033 2 5.5 #
edge $-1 -1 $-1 $213 -7.4983036091106872e-033 $502 2 $484 $503 forward @7 unknown #
point $-1 -1 $-1 -7.4983036091106872e-033 2 -5.5 #
face $-1 -1 $-1 $504 $505 $30 $-1 $506 forward single #
loop $-1 -1 $-1 $-1 $507 $215 #
plane-surface $-1 -1 $-1 -0.60000000000000009 0.59999999999999998 -3.5 0 1 0 0 0 1 forward_v I I I I #
coedge $-1 -1 $-1 $508 $509 $510 $511 forward $216 $-1 #
coedge $-1 -1 $-1 $512 $218 $509 $513 reversed $127 $-1 #
coedge $-1 -1 $-1 $218 $512 $219 $361 forward $127 $-1 #
coedge $-1 -1 $-1 $221 $510 $218 $359 reversed $228 $-1 #
edge $-1 -1 $-1 $362 -0.59999999999999998 $514 0.60000000000000009 $218 $515 forward @7 unknown #
coedge $-1 -1 $-1 $220 $219 $516 $517 reversed $80 $-1 #
edge $-1 -1 $-1 $518 0 $362 2 $357 $519 forward @7 unknown #
vertex $-1 -1 $-1 $361 $520 #
straight-curve $-1 -1 $-1 0.59999999999999998 0 -5.5 0 1 0 I I #
coedge $-1 -1 $-1 $516 $521 $223 $365 forward $522 $-1 #
edge $523 -1 $-1 $372 -1.5 $367 -0.59999999999999998 $223 $524 forward @7 unknown #
convexity-sys-attrib $-1 -1 $-1 $-1 $224 #
vertex $-1 -1 $-1 $365 $525 #
straight-curve $-1 -1 $-1 0.59999999999999998 0.59999999999999998 -3.5 0 0 -1 I I #
coedge $-1 -1 $-1 $526 $225 $521 $527 reversed $371 $-1 #
coedge $-1 -1 $-1 $225 $526 $227 $375 forward $371 $-1 #
loop $-1 -1 $-1 $-1 $370 $528 #
vertex $-1 -1 $-1 $527 $529 #
straight-curve $-1 -1 $-1 1.5 0.59999999999999998 -3.5 0 0 -1 I I #
coedge $-1 -1 $-1 $530 $227 $531 $532 reversed $228 $-1 #
edge $-1 -1 $-1 $533 -0.59999999999999998 $229 0.59999999999999998 $370 $534 forward @7 unknown #
face $-1 -1 $-1 $535 $228 $30 $-1 $536 reversed single #
point $-1 -1 $-1 1.5 0.59999999999999998 -5.5 #
point $-1 -1 $-1 0.59999999999999998 0.59999999999999998 -5.5 #
model_id-kcp-attrib $-1 -1 $-1 $-1 $233 1 1021324034 1021324034 1217921025 8 #
loop $-1 -1 $-1 $-1 $383 $233 #
plane-surface $-1 -1 $-1 -0.59999999999999998 0 -2.5 1 0 0 0 0 -1 forward_v I I I I #
coedge $-1 -1 $-1 $234 $247 $537 $538 reversed $136 $-1 #
coedge $-1 -1 $-1 $539 $266 $235 $384 forward $380 $-1 #
edge $-1 -1 $-1 $269 -0.5 $415 1.5 $383 $540 forward @7 unknown #
coedge $-1 -1 $-1 $541 $243 $236 $386 reversed $257 $-1 #
edge $542 -1 $-1 $390 0.59999999999999998 $245 1.5 $236 $416 forward @7 unknown #
coedge $-1 -1 $-1 $543 $237 $239 $392 reversed $389 $-1 #
coedge $-1 -1 $-1 $237 $543 $541 $544 forward $389 $-1 #
loop $-1 -1 $-1 $-1 $237 $545 #
vertex $-1 -1 $-1 $544 $546 #
straight-curve $-1 -1 $-1 0.59999999999999998 -0.59999999999999998 -2.5 0 0 -1 I I #
edge $547 -1 $-1 $548 -1.5 $241 -0.59999999999999998 $239 $549 forward @7 unknown #
convexity-sys-attrib $-1 -1 $-1 $240 $142 #
point $-1 -1 $-1 0.59999999999999998 -0.59999999999999998 -3 #
coedge $-1 -1 $-1 $243 $550 $247 $399 reversed $257 $-1 #
attrib_edge_convexity-kcp-attrib $-1 -1 $551 $-1 $244 2 #
straight-curve $-1 -1 $-1 1.5 0 -1 0 1 0 I I #
point $-1 -1 $-1 1.5 -0.59999999999999998 -1 #
edge $552 -1 $-1 $248 -1.5 $553 -0.59999999999999998 $247 $413 forward @7 unknown #
point $-1 -1 $-1 1.5 0.59999999999999998 -1 #
coedge $-1 -1 $-1 $537 $554 $250 $402 reversed $435 $-1 #
edge $555 -1 $-1 $404 0.59999999999999998 $556 1.5 $250 $549 forward @7 unknown #
attrib_edge_convexity-kcp-attrib $-1 -1 $557 $-1 $251 1 #
vertex $-1 -1 $-1 $402 $558 #
coedge $-1 -1 $-1 $559 $255 $560 $561 reversed $257 $-1 #
coedge $-1 -1 $-1 $256 $562 $539 $563 reversed $257 $-1 #
face $564 -1 $-1 $565 $257 $10 $-1 $566 reversed single #
convexity-sys-attrib $-1 -1 $-1 $258 $153 #
coedge $-1 -1 $-1 $271 $560 $260 $410 forward $428 $-1 #
edge $-1 -1 $-1 $412 -1.5 $274 0.5 $409 $567 forward @7 unknown #
attrib_edge_convexity-kcp-attrib $-1 -1 $568 $-1 $261 2 #
vertex $-1 -1 $-1 $561 $569 #
straight-curve $-1 -1 $-1 0 0.59999999999999998 -1 -1 0 0 I I #
attrib_edge_convexity-kcp-attrib $-1 -1 $570 $-1 $263 2 #
vertex $-1 -1 $-1 $563 $571 #
straight-curve $-1 -1 $-1 0 -0.59999999999999998 -1 1 0 0 I I #
coedge $-1 -1 $-1 $572 $573 $265 $418 reversed $574 $-1 #
edge $575 -1 $-1 $421 -0.59999999999999998 $548 0.59999999999999998 $265 $576 forward @7 unknown #
coedge $-1 -1 $-1 $266 $539 $572 $577 forward $380 $-1 #
attrib_edge_convexity-kcp-attrib $-1 -1 $578 $-1 $267 1 #
vertex $-1 -1 $-1 $418 $579 #
straight-curve $-1 -1 $-1 -0.59999999999999998 0 -3 0 -1 0 I I #
convexity-sys-attrib $-1 -1 $-1 $268 $163 #
point $-1 -1 $-1 -0.59999999999999998 -0.59999999999999998 -3 #
coedge $-1 -1 $-1 $580 $581 $270 $426 reversed $582 $-1 #
edge $583 -1 $-1 $556 -0.59999999999999998 $430 0.59999999999999998 $270 $584 forward @7 unknown #
coedge $-1 -1 $-1 $560 $271 $581 $585 reversed $428 $-1 #
loop $-1 -1 $-1 $-1 $409 $586 #
attrib_edge_convexity-kcp-attrib $-1 -1 $587 $-1 $272 1 #
vertex $-1 -1 $-1 $272 $588 #
convexity-sys-attrib $-1 -1 $-1 $273 $165 #
point $-1 -1 $-1 -0.59999999999999998 0.59999999999999998 -3 #
model_id-kcp-attrib $-1 -1 $-1 $-1 $277 1 1021324034 1021324034 1217921025 10 #
face $589 -1 $-1 $586 $582 $10 $-1 $590 forward single #
loop $-1 -1 $-1 $-1 $537 $277 #
plane-surface $-1 -1 $-1 0.59999999999999998 0 -2.5 -1 0 0 0 0 1 forward_v I I I I #
coedge $-1 -1 $-1 $437 $437 $591 $592 forward $278 $-1 #
convexity-sys-attrib $-1 -1 $-1 $-1 $282 #
vertex $-1 -1 $-1 $282 $593 #
ellipse-curve $-1 -1 $-1 -7.4983036091106872e-033 0 -2.5 0 0 -1 2 0 0 1 I I #
point $-1 -1 $-1 -2 2.4492127076447545e-016 5.5 #
point $-1 -1 $-1 1 0 -2.5 #
plane-surface $-1 -1 $-1 2 0 0 -1 0 0 0 0 1 forward_v I I I I #
coedge $-1 -1 $-1 $294 $292 $296 $448 reversed $181 $-1 #
edge $-1 -1 $-1 $307 -5.5 $450 5.5 $306 $594 forward @7 unknown #
vertex $-1 -1 $-1 $448 $595 #
straight-curve $-1 -1 $-1 -2 -2 0 0 0 -1 I I #
edge $-1 -1 $-1 $446 -2 $450 2 $444 $596 forward @7 unknown #
straight-curve $-1 -1 $-1 0 -2 -5.5 -1 0 0 I I #
vertex $-1 -1 $-1 $299 $597 #
straight-curve $-1 -1 $-1 0 2 -5.5 1 0 0 I I #
point $-1 -1 $-1 2 2 -5.5 #
point $-1 -1 $-1 2 -2 -5.5 #
straight-curve $-1 -1 $-1 -2 0 5.5 0 -1 0 I I #
point $-1 -1 $-1 -2 2 5.5 #
point $-1 -1 $-1 -2 -2 5.5 #
straight-curve $-1 -1 $-1 2 -2 0 0 0 -1 I I #
straight-curve $-1 -1 $-1 2 2 0 0 0 -1 I I #
face $-1 -1 $-1 $598 $599 $28 $-1 $600 reversed single #
plane-surface $-1 -1 $-1 0 2 0 0 -1 0 0 0 -1 forward_v I I I I #
coedge $-1 -1 $-1 $319 $471 $320 $466 forward $200 $-1 #
coedge $-1 -1 $-1 $601 $602 $319 $463 forward $603 $-1 #
edge $-1 -1 $-1 $473 -3.1415926535897931 $470 -1.5707963267948966 $462 $337 forward @7 unknown #
coedge $-1 -1 $-1 $321 $320 $604 $605 reversed $120 $-1 #
coedge $-1 -1 $-1 $606 $607 $608 $466 forward $609 $-1 #
edge $-1 -1 $-1 $610 -11 $470 0 $465 $611 forward @7 unknown #
coedge $-1 -1 $-1 $468 $322 $612 $487 forward $469 $-1 #
coedge $-1 -1 $-1 $322 $467 $606 $613 forward $469 $-1 #
loop $-1 -1 $-1 $-1 $322 $614 #
vertex $-1 -1 $-1 $615 $616 #
coedge $-1 -1 $-1 $461 $324 $617 $618 reversed $200 $-1 #
coedge $-1 -1 $-1 $619 $620 $621 $325 forward $599 $-1 #
vertex $-1 -1 $-1 $622 $623 #
straight-curve $-1 -1 $-1 -2 0 -5.5 0 0 -1 I I #
coedge $-1 -1 $-1 $624 $621 $327 $476 reversed $625 $-1 #
edge $-1 -1 $-1 $500 -2 $329 0 $475 $626 forward @7 unknown #
face $-1 -1 $-1 $492 $328 $28 $-1 $627 forward single #
edge $-1 -1 $-1 $329 0 $628 2 $620 $626 forward @7 unknown #
point $-1 -1 $-1 -2 0 5.5 #
coedge $-1 -1 $-1 $629 $331 $334 $485 reversed $317 $-1 #
coedge $-1 -1 $-1 $331 $629 $338 $489 reversed $317 $-1 #
coedge $-1 -1 $-1 $630 $612 $321 $332 reversed $631 $-1 #
straight-curve $-1 -1 $-1 2 0 -5.5 0 0 -1 I I #
coedge $-1 -1 $-1 $346 $632 $333 $350 reversed $499 $-1 #
edge $-1 -1 $-1 $502 -2 $336 0 $480 $633 forward @7 unknown #
face $-1 -1 $-1 $634 $335 $28 $-1 $635 reversed single #
edge $-1 -1 $-1 $336 0 $636 2 $612 $633 forward @7 unknown #
point $-1 -1 $-1 2 0 -5.5 #
edge $-1 -1 $-1 $341 0 $637 2 $481 $638 forward @7 unknown #
coedge $-1 -1 $-1 $632 $346 $339 $491 reversed $499 $-1 #
edge $-1 -1 $-1 $637 -2 $212 7.4983036091106872e-033 $490 $501 forward @7 unknown #
face $-1 -1 $-1 $639 $340 $28 $-1 $627 forward single #
point $-1 -1 $-1 2 0 5.5 #
coedge $-1 -1 $-1 $495 $342 $640 $622 forward $496 $-1 #
coedge $-1 -1 $-1 $342 $494 $344 $498 forward $496 $-1 #
loop $-1 -1 $-1 $-1 $342 $634 #
coedge $-1 -1 $-1 $345 $344 $624 $641 reversed $347 $-1 #
edge $-1 -1 $-1 $642 -2 $213 -7.4983036091106872e-033 $344 $503 forward @7 unknown #
loop $-1 -1 $-1 $-1 $346 $643 #
vertex $-1 -1 $-1 $348 $644 #
straight-curve $-1 -1 $-1 0 2 5.5 -1 0 0 I I #
vertex $-1 -1 $-1 $485 $645 #
straight-curve $-1 -1 $-1 0 2 -5.5 1 0 0 I I #
face $-1 -1 $-1 $646 $647 $30 $-1 $648 forward single #
loop $-1 -1 $-1 $-1 $649 $352 #
plane-surface $-1 -1 $-1 -1.5 0.59999999999999998 -3.5 -1 0 0 0 0 1 forward_v I I I I #
coedge $-1 -1 $-1 $650 $651 $652 $653 forward $353 $-1 #
coedge $-1 -1 $-1 $654 $355 $651 $655 reversed $216 $-1 #
coedge $-1 -1 $-1 $355 $654 $356 $513 forward $216 $-1 #
coedge $-1 -1 $-1 $358 $652 $355 $511 reversed $228 $-1 #
edge $-1 -1 $-1 $514 -1.5 $656 -0.59999999999999998 $355 $657 forward @7 unknown #
coedge $-1 -1 $-1 $357 $356 $658 $659 reversed $127 $-1 #
edge $-1 -1 $-1 $660 0 $514 2 $509 $661 forward @7 unknown #
vertex $-1 -1 $-1 $513 $662 #
straight-curve $-1 -1 $-1 0 1.5 -5.5 -1 0 0 I I #
coedge $-1 -1 $-1 $658 $364 $360 $517 forward $522 $-1 #
edge $663 -1 $-1 $367 0.59999999999999998 $518 1.5 $360 $664 forward @7 unknown #
vertex $-1 -1 $-1 $517 $665 #
straight-curve $-1 -1 $-1 0.59999999999999998 1.5 -3.5 0 0 -1 I I #
point $-1 -1 $-1 0.59999999999999998 1.5 -5.5 #
coedge $-1 -1 $-1 $364 $666 $369 $527 forward $522 $-1 #
loop $-1 -1 $-1 $-1 $521 $535 #
convexity-sys-attrib $-1 -1 $-1 $-1 $365 #
straight-curve $-1 -1 $-1 0 0.59999999999999998 -3.5 -1 0 0 I I #
point $-1 -1 $-1 0.59999999999999998 0.59999999999999998 -3.5 #
coedge $-1 -1 $-1 $370 $369 $667 $668 forward $371 $-1 #
edge $669 -1 $-1 $670 -0.59999999999999998 $372 0.59999999999999998 $369 $671 forward @7 unknown #
face $-1 -1 $-1 $376 $371 $30 $-1 $672 forward single #
point $-1 -1 $-1 1.5 0.59999999999999998 -3.5 #
coedge $-1 -1 $-1 $673 $374 $674 $675 reversed $228 $-1 #
coedge $-1 -1 $-1 $667 $676 $374 $532 forward $677 $-1 #
edge $-1 -1 $-1 $678 0.59999999999999998 $533 1.5 $531 $679 forward @7 unknown #
vertex $-1 -1 $-1 $668 $680 #
straight-curve $-1 -1 $-1 1.5 0 -5.5 0 1 0 I I #
face $-1 -1 $-1 $-1 $522 $30 $-1 $681 forward single #
plane-surface $-1 -1 $-1 -2.7755575615628914e-017 2.0816681711721685e-017 -5.5 0 0 1 1 0 0 forward_v I I I I #
coedge $-1 -1 $-1 $682 $401 $382 $538 forward $435 $-1 #
edge $-1 -1 $-1 $404 -0.5 $553 1.5 $537 $683 forward @7 unknown #
coedge $-1 -1 $-1 $419 $383 $406 $563 forward $380 $-1 #
straight-curve $-1 -1 $-1 -0.59999999999999998 -0.59999999999999998 -2.5 0 0 1 I I #
coedge $-1 -1 $-1 $562 $385 $388 $544 reversed $257 $-1 #
attrib_edge_convexity-kcp-attrib $-1 -1 $684 $-1 $386 2 #
coedge $-1 -1 $-1 $388 $387 $573 $685 reversed $389 $-1 #
edge $686 -1 $-1 $687 -1.5 $390 -0.59999999999999998 $388 $688 forward @7 unknown #
face $689 -1 $-1 $690 $389 $10 $-1 $436 forward single #
point $-1 -1 $-1 0.59999999999999998 -0.59999999999999998 -1 #
attrib_edge_convexity-kcp-attrib $-1 -1 $691 $-1 $392 1 #
vertex $-1 -1 $-1 $418 $692 #
straight-curve $-1 -1 $-1 0.59999999999999998 0 -3 0 1 0 I I #
coedge $-1 -1 $-1 $395 $559 $682 $693 reversed $257 $-1 #
convexity-sys-attrib $-1 -1 $-1 $396 $244 #
attrib_edge_convexity-kcp-attrib $-1 -1 $694 $-1 $399 2 #
vertex $-1 -1 $-1 $693 $695 #
coedge $-1 -1 $-1 $401 $682 $580 $696 forward $435 $-1 #
attrib_edge_convexity-kcp-attrib $-1 -1 $697 $-1 $402 1 #
vertex $-1 -1 $-1 $426 $698 #
convexity-sys-attrib $-1 -1 $-1 $403 $251 #
point $-1 -1 $-1 0.59999999999999998 0.59999999999999998 -3 #
coedge $-1 -1 $-1 $550 $405 $699 $700 reversed $257 $-1 #
coedge $-1 -1 $-1 $409 $427 $405 $561 forward $428 $-1 #
edge $701 -1 $-1 $702 -1.5 $412 -0.59999999999999998 $560 $703 forward @7 unknown #
coedge $-1 -1 $-1 $406 $541 $704 $705 reversed $257 $-1 #
edge $706 -1 $-1 $415 0.59999999999999998 $707 1.5 $539 $703 forward @7 unknown #
model_id-kcp-attrib $-1 -1 $-1 $-1 $407 1 1021324034 1021324034 1217921025 13 #
face $708 -1 $-1 $545 $574 $10 $-1 $709 forward single #
plane-surface $-1 -1 $-1 0 0 -1 0 0 1 1 0 0 forward_v I I I I #
straight-curve $-1 -1 $-1 -0.59999999999999998 0.59999999999999998 -2.5 0 0 -1 I I #
convexity-sys-attrib $-1 -1 $-1 $411 $261 #
point $-1 -1 $-1 -0.59999999999999998 0.59999999999999998 -1 #
convexity-sys-attrib $-1 -1 $-1 $414 $263 #
point $-1 -1 $-1 -0.59999999999999998 -0.59999999999999998 -1 #
coedge $-1 -1 $-1 $704 $417 $419 $577 reversed $574 $-1 #
coedge $-1 -1 $-1 $417 $704 $543 $685 forward $574 $-1 #
loop $-1 -1 $-1 $-1 $417 $565 #
attrib_edge_convexity-kcp-attrib $-1 -1 $710 $-1 $418 1 #
straight-curve $-1 -1 $-1 0 -1.5 -3 1 0 0 I I #
edge $-1 -1 $-1 $707 -1.5 $421 0.5 $419 $711 forward @7 unknown #
convexity-sys-attrib $-1 -1 $-1 $420 $267 #
point $-1 -1 $-1 -0.59999999999999998 -1.5 -3 #
coedge $-1 -1 $-1 $699 $425 $554 $696 reversed $582 $-1 #
coedge $-1 -1 $-1 $425 $699 $427 $585 forward $582 $-1 #
loop $-1 -1 $-1 $-1 $425 $434 #
attrib_edge_convexity-kcp-attrib $-1 -1 $712 $-1 $426 1 #
straight-curve $-1 -1 $-1 0 1.5 -3 -1 0 0 I I #
edge $-1 -1 $-1 $702 -1.5 $430 0.5 $581 $713 forward @7 unknown #
face $714 -1 $-1 $407 $428 $10 $-1 $381 forward single #
convexity-sys-attrib $-1 -1 $-1 $429 $272 #
point $-1 -1 $-1 -0.59999999999999998 1.5 -3 #
model_id-kcp-attrib $-1 -1 $-1 $-1 $434 1 1021324034 1021324034 1217921025 11 #
plane-surface $-1 -1 $-1 0 1.5 -2.5 0 -1 0 0 0 -1 forward_v I I I I #
coedge $-1 -1 $-1 $591 $591 $437 $592 reversed $715 $-1 #
edge $716 -1 $-1 $717 0 $717 6.2831853071795862 $437 $718 forward @7 unknown #
point $-1 -1 $-1 -2 2.4492127076447545e-016 -2.5 #
straight-curve $-1 -1 $-1 -2 2 0 0 0 -1 I I #
point $-1 -1 $-1 -2 -2 -5.5 #
straight-curve $-1 -1 $-1 -2 0 -5.5 0 1 0 I I #
point $-1 -1 $-1 -2 2 -5.5 #
face $-1 -1 $-1 $477 $719 $28 $-1 $627 forward single #
loop $-1 -1 $-1 $-1 $472 $459 #
plane-surface $-1 -1 $-1 -2 0 0 1 0 0 0 0 -1 forward_v I I I I #
coedge $-1 -1 $-1 $602 $462 $720 $615 forward $603 $-1 #
coedge $-1 -1 $-1 $462 $601 $619 $721 forward $603 $-1 #
loop $-1 -1 $-1 $-1 $462 $722 #
coedge $-1 -1 $-1 $723 $724 $464 $605 forward $725 $-1 #
edge $-1 -1 $-1 $341 0 $610 1.5707963267948966 $604 $330 forward @7 unknown #
coedge $-1 -1 $-1 $726 $465 $468 $613 reversed $609 $-1 #
coedge $-1 -1 $-1 $465 $726 $723 $727 reversed $609 $-1 #
coedge $-1 -1 $-1 $728 $720 $461 $466 reversed $729 $-1 #
loop $-1 -1 $-1 $-1 $465 $730 #
vertex $-1 -1 $-1 $727 $731 #
straight-curve $-1 -1 $-1 -7.4983036091106872e-033 -2 -5.5 0 0 -1 I I #
coedge $-1 -1 $-1 $482 $732 $467 $487 reversed $631 $-1 #
edge $-1 -1 $-1 $636 -2 $470 7.4983036091106872e-033 $606 $733 forward @7 unknown #
face $-1 -1 $-1 $486 $469 $28 $-1 $635 reversed single #
edge $-1 -1 $-1 $470 7.4983036091106872e-033 $734 2 $720 $733 forward @7 unknown #
point $-1 -1 $-1 -7.4983036091106872e-033 -2 -5.5 #
coedge $-1 -1 $-1 $735 $736 $471 $618 forward $719 $-1 #
edge $-1 -1 $-1 $610 1.5707963267948966 $329 3.1415926535897931 $617 $330 forward @7 unknown #
coedge $-1 -1 $-1 $737 $472 $602 $721 reversed $599 $-1 #
coedge $-1 -1 $-1 $472 $737 $735 $478 reversed $599 $-1 #
coedge $-1 -1 $-1 $475 $640 $202 $325 reversed $625 $-1 #
edge $-1 -1 $-1 $473 0 $642 2 $640 $738 forward @7 unknown #
point $-1 -1 $-1 -2 0 -5.5 #
coedge $-1 -1 $-1 $640 $475 $497 $641 forward $625 $-1 #
loop $-1 -1 $-1 $-1 $621 $739 #
straight-curve $-1 -1 $-1 -2 0 5.5 0 -1 0 I I #
plane-surface $-1 -1 $-1 0 0 5.5 0 0 1 1 0 0 forward_v I I I I #
vertex $-1 -1 $-1 $478 $740 #
coedge $-1 -1 $-1 $481 $480 $632 $741 reversed $317 $-1 #
coedge $-1 -1 $-1 $732 $482 $724 $742 reversed $631 $-1 #
loop $-1 -1 $-1 $-1 $482 $743 #
coedge $-1 -1 $-1 $484 $490 $629 $741 forward $499 $-1 #
straight-curve $-1 -1 $-1 2 0 -5.5 0 -1 0 I I #
face $-1 -1 $-1 $744 $496 $28 $-1 $635 reversed single #
plane-surface $-1 -1 $-1 0 0 -5.5 0 0 1 1 0 0 forward_v I I I I #
vertex $-1 -1 $-1 $745 $746 #
vertex $-1 -1 $-1 $489 $747 #
straight-curve $-1 -1 $-1 2 0 5.5 0 1 0 I I #
face $-1 -1 $-1 $730 $725 $28 $-1 $627 forward single #
coedge $-1 -1 $-1 $621 $624 $494 $622 reversed $625 $-1 #
edge $-1 -1 $-1 $500 -5.5 $642 5.5 $497 $748 forward @7 unknown #
vertex $-1 -1 $-1 $498 $749 #
face $-1 -1 $-1 $743 $499 $28 $-1 $460 reversed single #
point $-1 -1 $-1 -2 2 5.5 #
point $-1 -1 $-1 2 2 -5.5 #
face $-1 -1 $-1 $750 $751 $30 $-1 $752 forward single #
loop $-1 -1 $-1 $-1 $753 $504 #
plane-surface $-1 -1 $-1 -1.5 -0.59999999999999998 -3.5 0 -1 0 0 0 -1 forward_v I I I I #
coedge $-1 -1 $-1 $754 $755 $756 $757 forward $505 $-1 #
coedge $-1 -1 $-1 $758 $507 $755 $759 reversed $353 $-1 #
coedge $-1 -1 $-1 $507 $758 $508 $655 forward $353 $-1 #
coedge $-1 -1 $-1 $510 $756 $507 $653 reversed $228 $-1 #
edge $-1 -1 $-1 $656 0.60000000000000009 $760 1.5 $507 $761 forward @7 unknown #
coedge $-1 -1 $-1 $509 $508 $762 $763 reversed $216 $-1 #
edge $-1 -1 $-1 $764 0 $656 2 $651 $765 forward @7 unknown #
vertex $-1 -1 $-1 $655 $766 #
straight-curve $-1 -1 $-1 -0.59999999999999998 0 -5.5 0 -1 0 I I #
coedge $-1 -1 $-1 $762 $516 $512 $659 forward $522 $-1 #
edge $767 -1 $-1 $518 -0.59999999999999998 $660 0.59999999999999998 $512 $768 forward @7 unknown #
vertex $-1 -1 $-1 $659 $769 #
straight-curve $-1 -1 $-1 -0.60000000000000009 1.5 -3.5 0 0 -1 I I #
point $-1 -1 $-1 -0.60000000000000009 1.5 -5.5 #
convexity-sys-attrib $-1 -1 $-1 $-1 $517 #
straight-curve $-1 -1 $-1 0.59999999999999998 0 -3.5 0 1 0 I I #
point $-1 -1 $-1 0.59999999999999998 1.5 -3.5 #
coedge $-1 -1 $-1 $521 $770 $771 $772 forward $522 $-1 #
coedge $-1 -1 $-1 $771 $531 $526 $668 reversed $677 $-1 #
edge $-1 -1 $-1 $670 0 $533 2 $526 $773 forward @7 unknown #
convexity-sys-attrib $-1 -1 $-1 $-1 $527 #
vertex $-1 -1 $-1 $527 $774 #
straight-curve $-1 -1 $-1 1.5 0 -3.5 0 1 0 I I #
plane-surface $-1 -1 $-1 1.5 -0.59999999999999998 -3.5 1 0 0 0 0 -1 forward_v I I I I #
coedge $-1 -1 $-1 $775 $530 $776 $777 reversed $228 $-1 #
coedge $-1 -1 $-1 $778 $779 $530 $675 forward $780 $-1 #
edge $-1 -1 $-1 $781 -1.5 $678 -0.59999999999999998 $674 $782 forward @7 unknown #
coedge $-1 -1 $-1 $531 $771 $778 $783 forward $677 $-1 #
loop $-1 -1 $-1 $-1 $531 $784 #
vertex $-1 -1 $-1 $783 $785 #
straight-curve $-1 -1 $-1 0 -0.59999999999999998 -5.5 1 0 0 I I #
point $-1 -1 $-1 1.5 -0.59999999999999998 -5.5 #
plane-surface $-1 -1 $-1 -2.7755575615628914e-017 2.0816681711721685e-017 -3.5000000000000004 0 0 1 1 0 0 forward_v I I I I #
coedge $-1 -1 $-1 $554 $537 $550 $693 forward $435 $-1 #
straight-curve $-1 -1 $-1 0.59999999999999998 0.59999999999999998 -2.5 0 0 1 I I #
convexity-sys-attrib $-1 -1 $-1 $542 $386 #
edge $-1 -1 $-1 $687 -1.5 $548 0.5 $543 $786 forward @7 unknown #
attrib_edge_convexity-kcp-attrib $-1 -1 $787 $-1 $544 2 #
vertex $-1 -1 $-1 $544 $788 #
straight-curve $-1 -1 $-1 0.59999999999999998 0 -1 0 1 0 I I #
model_id-kcp-attrib $-1 -1 $-1 $-1 $545 1 1021324034 1021324034 1217921025 15 #
face $789 -1 $-1 $790 $791 $10 $-1 $792 forward single #
convexity-sys-attrib $-1 -1 $-1 $547 $392 #
point $-1 -1 $-1 0.59999999999999998 -1.5 -3 #
edge $793 -1 $-1 $553 0.59999999999999998 $794 1.5 $682 $688 forward @7 unknown #
convexity-sys-attrib $-1 -1 $-1 $552 $399 #
point $-1 -1 $-1 0.59999999999999998 0.59999999999999998 -1 #
edge $-1 -1 $-1 $794 -1.5 $556 0.5 $554 $795 forward @7 unknown #
convexity-sys-attrib $-1 -1 $-1 $555 $402 #
point $-1 -1 $-1 0.59999999999999998 1.5 -3 #
coedge $-1 -1 $-1 $581 $580 $559 $700 forward $582 $-1 #
edge $796 -1 $-1 $794 -0.59999999999999998 $702 0.59999999999999998 $699 $797 forward @7 unknown #
attrib_edge_convexity-kcp-attrib $-1 -1 $798 $-1 $561 2 #
vertex $-1 -1 $-1 $700 $799 #
straight-curve $-1 -1 $-1 -0.59999999999999998 0 -1 0 -1 0 I I #
coedge $-1 -1 $-1 $573 $572 $562 $705 forward $574 $-1 #
edge $800 -1 $-1 $707 -0.59999999999999998 $687 0.59999999999999998 $704 $801 forward @7 unknown #
attrib_edge_convexity-kcp-attrib $-1 -1 $802 $-1 $563 2 #
vertex $-1 -1 $-1 $563 $803 #
model_id-kcp-attrib $-1 -1 $-1 $-1 $565 1 1021324034 1021324034 1217921025 14 #
plane-surface $-1 -1 $-1 0 -1.5 -2.5 0 1 0 0 0 1 forward_v I I I I #
convexity-sys-attrib $-1 -1 $-1 $575 $418 #
straight-curve $-1 -1 $-1 -0.59999999999999998 -1.5 -2.5 0 0 -1 I I #
convexity-sys-attrib $-1 -1 $-1 $583 $426 #
straight-curve $-1 -1 $-1 -0.59999999999999998 1.5 -2.5 0 0 -1 I I #
model_id-kcp-attrib $-1 -1 $-1 $-1 $586 1 1021324034 1021324034 1217921025 12 #
loop $-1 -1 $-1 $-1 $591 $790 #
attrib_edge_convexity-kcp-attrib $-1 -1 $804 $-1 $592 1 #
vertex $-1 -1 $-1 $592 $805 #
ellipse-curve $-1 -1 $-1 0 0 -3 0 0 -1 2 0 0 1 I I #
loop $-1 -1 $-1 $-1 $617 $598 #
coedge $-1 -1 $-1 $608 $806 $601 $615 reversed $729 $-1 #
edge $-1 -1 $-1 $734 -2 $473 0 $619 $738 forward @7 unknown #
face $-1 -1 $-1 $614 $603 $28 $-1 $635 reversed single #
coedge $-1 -1 $-1 $724 $604 $607 $727 forward $725 $-1 #
coedge $-1 -1 $-1 $604 $723 $630 $742 forward $725 $-1 #
loop $-1 -1 $-1 $-1 $604 $639 #
coedge $-1 -1 $-1 $607 $606 $732 $745 reversed $609 $-1 #
edge $-1 -1 $-1 $610 -7.4983036091106872e-033 $807 2 $607 $808 forward @7 unknown #
coedge $-1 -1 $-1 $806 $608 $736 $809 reversed $729 $-1 #
loop $-1 -1 $-1 $-1 $608 $744 #
face $-1 -1 $-1 $722 $609 $28 $-1 $810 reversed single #
point $-1 -1 $-1 -7.4983036091106872e-033 -2 5.5 #
coedge $-1 -1 $-1 $612 $630 $726 $745 forward $631 $-1 #
straight-curve $-1 -1 $-1 0 -2 -5.5 -1 0 0 I I #
vertex $-1 -1 $-1 $721 $811 #
coedge $-1 -1 $-1 $736 $617 $620 $478 forward $719 $-1 #
coedge $-1 -1 $-1 $617 $735 $728 $809 forward $719 $-1 #
coedge $-1 -1 $-1 $620 $619 $806 $812 reversed $599 $-1 #
straight-curve $-1 -1 $-1 -2 0 -5.5 0 1 0 I I #
face $-1 -1 $-1 $643 $625 $28 $-1 $600 reversed single #
point $-1 -1 $-1 -2 -2 5.5 #
edge $-1 -1 $-1 $637 -5.5 $502 5.5 $629 $813 forward @7 unknown #
edge $-1 -1 $-1 $807 -2 $341 0 $630 $638 forward @7 unknown #
face $-1 -1 $-1 $-1 $631 $28 $-1 $318 reversed single #
face $-1 -1 $-1 $739 $729 $28 $-1 $810 reversed single #
edge $-1 -1 $-1 $807 -5.5 $636 5.5 $732 $814 forward @7 unknown #
point $-1 -1 $-1 2 -2 -5.5 #
point $-1 -1 $-1 2 2 5.5 #
straight-curve $-1 -1 $-1 -2 2 0 0 0 -1 I I #
point $-1 -1 $-1 -2 2 -5.5 #
face $-1 -1 $-1 $815 $816 $30 $-1 $817 forward single #
loop $-1 -1 $-1 $-1 $818 $646 #
plane-surface $-1 -1 $-1 -0.60000000000000009 -0.59999999999999998 -3.5 -1 0 0 0 0 1 forward_v I I I I #
coedge $-1 -1 $-1 $819 $820 $821 $822 forward $647 $-1 #
coedge $-1 -1 $-1 $823 $649 $820 $824 reversed $505 $-1 #
coedge $-1 -1 $-1 $649 $823 $650 $759 forward $505 $-1 #
coedge $-1 -1 $-1 $652 $821 $649 $757 reversed $228 $-1 #
edge $-1 -1 $-1 $760 -0.59999999999999998 $825 0.59999999999999998 $649 $826 forward @7 unknown #
coedge $-1 -1 $-1 $651 $650 $827 $828 reversed $353 $-1 #
edge $-1 -1 $-1 $829 0 $760 2 $755 $830 forward @7 unknown #
vertex $-1 -1 $-1 $759 $831 #
straight-curve $-1 -1 $-1 0 0.59999999999999998 -5.5 -1 0 0 I I #
coedge $-1 -1 $-1 $827 $658 $654 $763 forward $522 $-1 #
edge $832 -1 $-1 $660 -1.5 $764 -0.59999999999999998 $654 $833 forward @7 unknown #
vertex $-1 -1 $-1 $763 $834 #
straight-curve $-1 -1 $-1 -0.60000000000000009 0.59999999999999998 -3.5 0 0 -1 I I #
point $-1 -1 $-1 -0.60000000000000009 0.59999999999999998 -5.5 #
convexity-sys-attrib $-1 -1 $-1 $-1 $659 #
straight-curve $-1 -1 $-1 0 1.5 -3.5 -1 0 0 I I #
point $-1 -1 $-1 -0.59999999999999998 1.5 -3.5 #
coedge $-1 -1 $-1 $666 $835 $836 $837 forward $522 $-1 #
coedge $-1 -1 $-1 $676 $667 $666 $772 reversed $677 $-1 #
edge $838 -1 $-1 $839 0.59999999999999998 $670 1.5 $771 $840 forward @7 unknown #
straight-curve $-1 -1 $-1 1.5 -0.59999999999999998 -3.5 0 0 -1 I I #
point $-1 -1 $-1 1.5 -0.59999999999999998 -3.5 #
coedge $-1 -1 $-1 $821 $673 $818 $841 reversed $228 $-1 #
coedge $-1 -1 $-1 $842 $843 $673 $777 forward $816 $-1 #
edge $-1 -1 $-1 $844 -0.60000000000000009 $781 0.59999999999999998 $776 $845 forward @7 unknown #
coedge $-1 -1 $-1 $836 $674 $676 $783 reversed $780 $-1 #
coedge $-1 -1 $-1 $674 $836 $842 $846 forward $780 $-1 #
loop $-1 -1 $-1 $-1 $674 $815 #
vertex $-1 -1 $-1 $846 $847 #
straight-curve $-1 -1 $-1 0.59999999999999998 0 -5.5 0 1 0 I I #
edge $-1 -1 $-1 $839 0 $678 2 $676 $848 forward @7 unknown #
face $-1 -1 $-1 $528 $677 $30 $-1 $849 forward single #
point $-1 -1 $-1 0.59999999999999998 -0.59999999999999998 -5.5 #
straight-curve $-1 -1 $-1 0.59999999999999998 -1.5 -2.5 0 0 -1 I I #
convexity-sys-attrib $-1 -1 $-1 $686 $544 #
point $-1 -1 $-1 0.59999999999999998 -1.5 -1 #
model_id-kcp-attrib $-1 -1 $-1 $-1 $690 1 1021324034 1021324034 1217921025 16 #
face $850 -1 $-1 $851 $852 $10 $-1 $853 forward single #
loop $-1 -1 $-1 $854 $855 $690 #
plane-surface $-1 -1 $-1 0 0 0 0 0 1 -1 0 0 forward_v I I I I #
attrib_edge_convexity-kcp-attrib $-1 -1 $856 $-1 $693 2 #
vertex $-1 -1 $-1 $693 $857 #
straight-curve $-1 -1 $-1 0.59999999999999998 1.5 -2.5 0 0 -1 I I #
attrib_edge_convexity-kcp-attrib $-1 -1 $858 $-1 $700 2 #
straight-curve $-1 -1 $-1 0 1.5 -1 -1 0 0 I I #
convexity-sys-attrib $-1 -1 $-1 $701 $561 #
point $-1 -1 $-1 -0.59999999999999998 1.5 -1 #
attrib_edge_convexity-kcp-attrib $-1 -1 $859 $-1 $705 2 #
straight-curve $-1 -1 $-1 0 -1.5 -1 1 0 0 I I #
convexity-sys-attrib $-1 -1 $-1 $706 $563 #
point $-1 -1 $-1 -0.59999999999999998 -1.5 -1 #
convexity-sys-attrib $-1 -1 $-1 $716 $592 #
point $-1 -1 $-1 2 0 -3 #
coedge $-1 -1 $-1 $720 $728 $737 $812 forward $729 $-1 #
vertex $-1 -1 $-1 $742 $860 #
straight-curve $-1 -1 $-1 0 -2 5.5 1 0 0 I I #
edge $-1 -1 $-1 $628 -2 $610 -7.4983036091106872e-033 $728 $808 forward @7 unknown #
plane-surface $-1 -1 $-1 0 -2 0 0 1 0 0 0 1 forward_v I I I I #
point $-1 -1 $-1 -2 -2 -5.5 #
edge $-1 -1 $-1 $628 -5.5 $734 5.5 $737 $861 forward @7 unknown #
straight-curve $-1 -1 $-1 2 2 0 0 0 -1 I I #
straight-curve $-1 -1 $-1 2 -2 0 0 0 -1 I I #
face $-1 -1 $-1 $784 $780 $30 $-1 $862 forward single #
loop $-1 -1 $-1 $-1 $776 $750 #
plane-surface $-1 -1 $-1 -0.60000000000000009 -1.5 -3.5 0 -1 0 0 0 -1 forward_v I I I I #
coedge $-1 -1 $-1 $863 $864 $775 $841 forward $751 $-1 #
coedge $-1 -1 $-1 $865 $753 $864 $866 reversed $647 $-1 #
coedge $-1 -1 $-1 $753 $865 $754 $824 forward $647 $-1 #
coedge $-1 -1 $-1 $756 $775 $753 $822 reversed $228 $-1 #
edge $-1 -1 $-1 $825 -1.5 $867 -0.60000000000000009 $753 $868 forward @7 unknown #
coedge $-1 -1 $-1 $755 $754 $869 $870 reversed $505 $-1 #
edge $-1 -1 $-1 $871 0 $825 2 $820 $872 forward @7 unknown #
vertex $-1 -1 $-1 $824 $873 #
straight-curve $-1 -1 $-1 -1.5 0 -5.5 0 -1 0 I I #
coedge $-1 -1 $-1 $869 $762 $758 $828 forward $522 $-1 #
edge $874 -1 $-1 $764 0.59999999999999998 $829 1.5 $758 $875 forward @7 unknown #
vertex $-1 -1 $-1 $828 $876 #
straight-curve $-1 -1 $-1 -1.5 0.59999999999999998 -3.5 0 0 -1 I I #
point $-1 -1 $-1 -1.5 0.59999999999999998 -5.5 #
convexity-sys-attrib $-1 -1 $-1 $-1 $763 #
straight-curve $-1 -1 $-1 -0.59999999999999998 0 -3.5 0 -1 0 I I #
point $-1 -1 $-1 -0.59999999999999998 0.59999999999999998 -3.5 #
coedge $-1 -1 $-1 $770 $877 $878 $879 forward $522 $-1 #
coedge $-1 -1 $-1 $779 $778 $770 $837 reversed $780 $-1 #
edge $880 -1 $-1 $881 -1.5 $839 -0.59999999999999998 $836 $882 forward @7 unknown #
convexity-sys-attrib $-1 -1 $-1 $-1 $772 #
vertex $-1 -1 $-1 $837 $883 #
straight-curve $-1 -1 $-1 0 -0.59999999999999998 -3.5 1 0 0 I I #
edge $-1 -1 $-1 $867 0.59999999999999998 $844 1.5 $818 $884 forward @7 unknown #
coedge $-1 -1 $-1 $878 $776 $779 $846 reversed $816 $-1 #
coedge $-1 -1 $-1 $776 $878 $863 $885 forward $816 $-1 #
vertex $-1 -1 $-1 $885 $886 #
straight-curve $-1 -1 $-1 0 -1.5 -5.5 1 0 0 I I #
edge $-1 -1 $-1 $881 0 $781 2 $779 $887 forward @7 unknown #
point $-1 -1 $-1 0.59999999999999998 -1.5 -5.5 #
straight-curve $-1 -1 $-1 0.59999999999999998 -0.59999999999999998 -3.5 0 0 -1 I I #
plane-surface $-1 -1 $-1 0.59999999999999998 -0.59999999999999998 -3.5 0 -1 0 0 0 -1 forward_v I I I I #
model_id-kcp-attrib $-1 -1 $-1 $-1 $790 1 1021324034 1021324034 1217921025 17 #
face $888 -1 $-1 $889 $890 $10 $-1 $891 forward single #
loop $-1 -1 $-1 $715 $892 $790 #
cone-surface $-1 -1 $-1 0 0 -1.5 0 0 -1 2 0 0 1 I I 0 1 2 forward I I I I #
loop $-1 -1 $-1 $-1 $893 $690 #
coedge $-1 -1 $-1 $855 $855 $892 $894 forward $791 $-1 #
convexity-sys-attrib $-1 -1 $-1 $793 $693 #
point $-1 -1 $-1 0.59999999999999998 1.5 -1 #
convexity-sys-attrib $-1 -1 $-1 $796 $700 #
convexity-sys-attrib $-1 -1 $-1 $800 $705 #
point $-1 -1 $-1 2 -2 5.5 #
straight-curve $-1 -1 $-1 -2 -2 0 0 0 -1 I I #
plane-surface $-1 -1 $-1 0.59999999999999998 -1.5 -3.5 1 0 0 0 0 -1 forward_v I I I I #
coedge $-1 -1 $-1 $895 $818 $843 $885 reversed $751 $-1 #
coedge $-1 -1 $-1 $818 $895 $819 $866 forward $751 $-1 #
coedge $-1 -1 $-1 $820 $819 $896 $897 reversed $647 $-1 #
edge $-1 -1 $-1 $898 0 $867 2 $864 $899 forward @7 unknown #
vertex $-1 -1 $-1 $866 $900 #
straight-curve $-1 -1 $-1 0 -0.59999999999999998 -5.5 1 0 0 I I #
coedge $-1 -1 $-1 $896 $827 $823 $870 forward $522 $-1 #
edge $901 -1 $-1 $829 -0.59999999999999998 $871 0.59999999999999998 $823 $902 forward @7 unknown #
vertex $-1 -1 $-1 $870 $903 #
straight-curve $-1 -1 $-1 -1.5 -0.59999999999999998 -3.5 0 0 -1 I I #
point $-1 -1 $-1 -1.5 -0.59999999999999998 -5.5 #
convexity-sys-attrib $-1 -1 $-1 $-1 $828 #
straight-curve $-1 -1 $-1 0 0.59999999999999998 -3.5 -1 0 0 I I #
point $-1 -1 $-1 -1.5 0.59999999999999998 -3.5 #
coedge $-1 -1 $-1 $835 $896 $895 $904 forward $522 $-1 #
coedge $-1 -1 $-1 $843 $842 $835 $879 reversed $816 $-1 #
edge $905 -1 $-1 $906 -0.59999999999999998 $881 0.59999999999999998 $878 $907 forward @7 unknown #
convexity-sys-attrib $-1 -1 $-1 $-1 $837 #
vertex $-1 -1 $-1 $879 $908 #
straight-curve $-1 -1 $-1 0.59999999999999998 0 -3.5 0 1 0 I I #
point $-1 -1 $-1 0.59999999999999998 -0.59999999999999998 -3.5 #
straight-curve $-1 -1 $-1 -0.59999999999999998 0 -5.5 0 -1 0 I I #
edge $-1 -1 $-1 $906 0 $844 2 $843 $909 forward @7 unknown #
point $-1 -1 $-1 -0.60000000000000009 -1.5 -5.5 #
straight-curve $-1 -1 $-1 0.59999999999999998 -1.5 -3.5 0 0 -1 I I #
model_id-kcp-attrib $-1 -1 $-1 $-1 $851 1 1021324034 1021324034 1217921025 18 #
face $910 -1 $-1 $-1 $911 $10 $-1 $912 forward single #
loop $-1 -1 $-1 $913 $914 $851 #
cone-surface $-1 -1 $-1 0 0 4 0 0 1 1 0 0 1 I I 0 1 1 forward I I I I #
coedge $-1 -1 $-1 $892 $892 $855 $894 reversed $852 $-1 #
coedge $-1 -1 $-1 $893 $893 $914 $915 forward $854 $-1 #
edge $916 -1 $-1 $917 0 $917 6.2831853071795862 $855 $918 forward @7 unknown #
coedge $-1 -1 $-1 $864 $863 $877 $904 reversed $751 $-1 #
coedge $-1 -1 $-1 $877 $869 $865 $897 forward $522 $-1 #
edge $919 -1 $-1 $871 -1.5 $898 -0.59999999999999998 $865 $920 forward @7 unknown #
vertex $-1 -1 $-1 $897 $921 #
straight-curve $-1 -1 $-1 -0.60000000000000009 -0.59999999999999998 -3.5 0 0 -1 I I #
point $-1 -1 $-1 -0.60000000000000009 -0.59999999999999998 -5.5 #
convexity-sys-attrib $-1 -1 $-1 $-1 $870 #
straight-curve $-1 -1 $-1 -1.5 0 -3.5 0 -1 0 I I #
point $-1 -1 $-1 -1.5 -0.59999999999999998 -3.5 #
edge $922 -1 $-1 $898 0.59999999999999998 $906 1.5 $895 $923 forward @7 unknown #
convexity-sys-attrib $-1 -1 $-1 $-1 $879 #
vertex $-1 -1 $-1 $904 $924 #
straight-curve $-1 -1 $-1 0 -1.5 -3.5 1 0 0 I I #
point $-1 -1 $-1 0.59999999999999998 -1.5 -3.5 #
straight-curve $-1 -1 $-1 -0.60000000000000009 -1.5 -3.5 0 0 -1 I I #
model_id-kcp-attrib $-1 -1 $-1 $-1 $889 1 1021324034 1021324034 1217921025 19 #
loop $-1 -1 $-1 $-1 $925 $889 #
plane-surface $-1 -1 $-1 0 0 8 0 0 1 1 0 0 forward_v I I I I #
loop $-1 -1 $-1 $-1 $926 $851 #
coedge $-1 -1 $-1 $914 $914 $893 $915 reversed $890 $-1 #
edge $927 -1 $-1 $928 0 $928 6.2831853071795862 $914 $929 forward @7 unknown #
attrib_edge_convexity-kcp-attrib $-1 -1 $930 $-1 $894 1 #
vertex $-1 -1 $-1 $894 $931 #
ellipse-curve $-1 -1 $-1 0 0 0 0 0 1 2 0 0 1 I I #
convexity-sys-attrib $-1 -1 $-1 $-1 $897 #
straight-curve $-1 -1 $-1 0 -0.59999999999999998 -3.5 1 0 0 I I #
point $-1 -1 $-1 -0.59999999999999998 -0.59999999999999998 -3.5 #
convexity-sys-attrib $-1 -1 $-1 $-1 $904 #
straight-curve $-1 -1 $-1 -0.59999999999999998 0 -3.5 0 -1 0 I I #
point $-1 -1 $-1 -0.59999999999999998 -1.5 -3.5 #
coedge $-1 -1 $-1 $925 $925 $926 $932 forward $911 $-1 #
coedge $-1 -1 $-1 $926 $926 $925 $932 reversed $913 $-1 #
attrib_edge_convexity-kcp-attrib $-1 -1 $933 $-1 $915 2 #
vertex $-1 -1 $-1 $915 $934 #
ellipse-curve $-1 -1 $-1 0 0 0 0 0 -1 1 0 0 1 I I #
convexity-sys-attrib $-1 -1 $-1 $916 $894 #
point $-1 -1 $-1 2 0 0 #
edge $-1 -1 $-1 $935 0 $935 6.2831853071795862 $925 $936 forward @7 unknown #
convexity-sys-attrib $-1 -1 $-1 $927 $915 #
point $-1 -1 $-1 1 0 0 #
vertex $-1 -1 $-1 $932 $937 #
ellipse-curve $-1 -1 $-1 0 0 8 0 0 1 1 0 0 1 I I #
point $-1 -1 $-1 1 0 8 #
End-of-ACIS-data 