201 0 1 0           
7 Unknown 12 ACIS 2.1 SGI 24 Wed Jan 21 15:23:28 1998 
-1 9.9999999999999995e-07 1e-10 
body $-1 $1 $-1 $2 #
lump $-1 $-1 $3 $0 #
transform $-1 1 0 0 0 1 0 0 0 1 680 132 406 1 no_rotate no_reflect no_shear #
shell $-1 $-1 $-1 $4 $-1 $1 #
face $-1 $5 $6 $3 $-1 $7 reversed single #
face $-1 $8 $9 $3 $-1 $10 forward single #
loop $-1 $-1 $11 $4 #
plane-surface $-1 548 0 406 0 0 1 1 0 0 forward_v I I I I #
face $-1 $12 $13 $3 $-1 $14 forward single #
loop $-1 $-1 $15 $5 #
plane-surface $-1 680 0 274 -1 0 0 0 0 1 forward_v I I I I #
coedge $-1 $16 $17 $18 $19 1 $6 $-1 #
face $-1 $20 $21 $3 $-1 $22 forward single #
loop $-1 $-1 $23 $8 #
plane-surface $-1 548 0 142 0 0 1 1 0 0 forward_v I I I I #
coedge $-1 $24 $25 $26 $27 1 $9 $-1 #
coedge $-1 $28 $11 $29 $30 1 $6 $-1 #
coedge $-1 $11 $28 $24 $31 1 $6 $-1 #
coedge $-1 $26 $32 $11 $19 0 $33 $-1 #
edge $-1 $34 $35 $18 $36 forward #
face $-1 $37 $38 $3 $-1 $39 reversed single #
loop $-1 $-1 $40 $12 #
plane-surface $-1 416 0 274 1 0 0 0 0 -1 forward_v I I I I #
coedge $-1 $41 $42 $43 $44 1 $13 $-1 #
coedge $-1 $45 $15 $17 $31 0 $9 $-1 #
coedge $-1 $15 $45 $41 $46 0 $9 $-1 #
coedge $-1 $43 $18 $15 $27 0 $33 $-1 #
edge $-1 $35 $47 $26 $48 forward #
coedge $-1 $17 $16 $49 $50 1 $6 $-1 #
coedge $-1 $40 $51 $16 $30 0 $21 $-1 #
edge $-1 $52 $34 $29 $53 forward #
edge $-1 $35 $54 $24 $55 forward #
coedge $-1 $18 $43 $40 $56 0 $33 $-1 #
loop $-1 $57 $43 $58 #
vertex $-1 $19 $59 #
vertex $-1 $19 $60 #
straight-curve $-1 274 -132 406 1 0 0 I I #
face $-1 $61 $62 $3 $-1 $63 forward single #
loop $-1 $-1 $64 $20 #
plane-surface $-1 274 0 406 0 0 1 1 0 0 forward_v I I I I #
coedge $-1 $65 $29 $32 $56 1 $21 $-1 #
coedge $-1 $66 $23 $25 $46 1 $13 $-1 #
coedge $-1 $23 $66 $65 $67 1 $13 $-1 #
coedge $-1 $32 $26 $23 $44 0 $33 $-1 #
edge $-1 $47 $68 $43 $69 forward #
coedge $-1 $25 $24 $70 $71 1 $9 $-1 #
edge $-1 $72 $47 $25 $73 forward #
vertex $-1 $44 $74 #
straight-curve $-1 680 -132 137 0 0 -1 I I #
coedge $-1 $75 $70 $28 $50 0 $76 $-1 #
edge $-1 $54 $52 $49 $77 forward #
coedge $-1 $29 $65 $75 $78 1 $21 $-1 #
vertex $-1 $50 $79 #
straight-curve $-1 416 0 406 0 -1 0 I I #
vertex $-1 $50 $80 #
straight-curve $-1 680 0 406 0 1 0 I I #
edge $-1 $68 $34 $32 $81 forward #
loop $-1 $82 $83 $58 #
face $-1 $84 $33 $3 $-1 $85 reversed single #
point $-1 416 -132 406 #
point $-1 680 -132 406 #
face $-1 $86 $87 $3 $-1 $88 forward single #
loop $-1 $-1 $89 $37 #
plane-surface $-1 406 0 274 -1 0 0 0 0 1 forward_v I I I I #
coedge $-1 $90 $91 $92 $93 1 $38 $-1 #
coedge $-1 $51 $40 $42 $67 0 $21 $-1 #
coedge $-1 $42 $41 $94 $95 1 $13 $-1 #
edge $-1 $68 $96 $65 $97 forward #
vertex $-1 $44 $98 #
straight-curve $-1 274 -132 142 -1 0 0 I I #
coedge $-1 $49 $94 $45 $71 0 $76 $-1 #
edge $-1 $72 $54 $70 $99 forward #
vertex $-1 $95 $100 #
straight-curve $-1 680 0 142 0 -1 0 I I #
point $-1 680 -132 142 #
coedge $-1 $94 $49 $51 $78 0 $76 $-1 #
loop $-1 $101 $94 $102 #
straight-curve $-1 274 132 406 -1 0 0 I I #
edge $-1 $52 $96 $75 $103 forward #
point $-1 416 132 406 #
point $-1 680 132 406 #
straight-curve $-1 416 -132 137 0 0 1 I I #
loop $-1 $104 $105 $58 #
coedge $-1 $106 $107 $108 $109 0 $57 $-1 #
face $-1 $102 $110 $3 $-1 $111 reversed single #
plane-surface $-1 0 -132 0 0 1 0 0 0 1 forward_v I I I I #
face $-1 $112 $113 $3 $-1 $114 forward single #
loop $-1 $-1 $108 $61 #
plane-surface $-1 274 0 142 0 0 1 1 0 0 forward_v I I I I #
coedge $-1 $115 $116 $107 $117 1 $62 $-1 #
coedge $-1 $118 $64 $119 $120 1 $38 $-1 #
coedge $-1 $64 $118 $115 $121 1 $38 $-1 #
coedge $-1 $107 $106 $64 $93 0 $57 $-1 #
edge $-1 $122 $123 $92 $124 forward #
coedge $-1 $70 $75 $66 $95 0 $76 $-1 #
edge $-1 $96 $72 $94 $125 forward #
vertex $-1 $95 $126 #
straight-curve $-1 416 0 142 0 1 0 I I #
point $-1 416 -132 142 #
straight-curve $-1 680 132 137 0 0 1 I I #
point $-1 680 132 142 #
loop $-1 $127 $128 $102 #
face $-1 $129 $76 $3 $-1 $130 reversed single #
straight-curve $-1 416 132 137 0 0 -1 I I #
loop $-1 $131 $132 $58 #
coedge $-1 $133 $134 $135 $136 0 $82 $-1 #
coedge $-1 $92 $83 $137 $138 0 $57 $-1 #
coedge $-1 $83 $92 $89 $117 0 $57 $-1 #
coedge $-1 $139 $140 $83 $109 1 $87 $-1 #
edge $-1 $141 $142 $83 $143 forward #
loop $-1 $-1 $144 $84 #
plane-surface $-1 -690 0 0 1 0 0 0 0 -1 forward_v I I I I #
face $-1 $145 $146 $3 $-1 $147 reversed single #
loop $-1 $-1 $137 $86 #
plane-surface $-1 142 0 274 1 0 0 0 0 -1 forward_v I I I I #
coedge $-1 $148 $89 $91 $121 0 $62 $-1 #
coedge $-1 $89 $148 $139 $149 0 $62 $-1 #
edge $-1 $123 $141 $107 $150 forward #
coedge $-1 $91 $90 $151 $152 1 $38 $-1 #
coedge $-1 $137 $153 $90 $120 0 $113 $-1 #
edge $-1 $154 $122 $119 $155 forward #
edge $-1 $123 $156 $115 $157 forward #
vertex $-1 $93 $158 #
vertex $-1 $93 $159 #
straight-curve $-1 137 -132 406 1 0 0 I I #
straight-curve $-1 274 132 142 1 0 0 I I #
point $-1 416 132 142 #
loop $-1 $160 $161 $102 #
coedge $-1 $162 $163 $164 $165 0 $101 $-1 #
face $-1 $-1 $166 $3 $-1 $167 reversed single #
plane-surface $-1 0 132 0 0 -1 0 0 0 -1 forward_v I I I I #
loop $-1 $168 $169 $58 #
coedge $-1 $170 $171 $172 $173 0 $104 $-1 #
coedge $-1 $174 $105 $175 $176 0 $82 $-1 #
coedge $-1 $105 $174 $177 $178 0 $82 $-1 #
coedge $-1 $179 $180 $105 $136 1 $181 $-1 #
edge $-1 $182 $183 $105 $184 forward #
coedge $-1 $185 $119 $106 $138 1 $113 $-1 #
edge $-1 $142 $122 $106 $186 forward #
coedge $-1 $164 $108 $116 $149 1 $87 $-1 #
coedge $-1 $108 $164 $185 $187 1 $87 $-1 #
vertex $-1 $109 $188 #
vertex $-1 $109 $189 #
straight-curve $-1 137 -132 142 -1 0 0 I I #
coedge $-1 $190 $191 $192 $193 0 $110 $-1 #
face $-1 $194 $195 $3 $-1 $196 forward single #
loop $-1 $-1 $197 $112 #
plane-surface $-1 0 0 406 0 0 1 1 0 0 forward_v I I I I #
coedge $-1 $116 $115 $162 $198 1 $62 $-1 #
edge $-1 $199 $141 $116 $200 forward #
straight-curve $-1 406 -132 137 0 0 -1 I I #
coedge $-1 $163 $162 $118 $152 0 $101 $-1 #
edge $-1 $156 $154 $151 $201 forward #
coedge $-1 $119 $185 $163 $202 1 $113 $-1 #
vertex $-1 $152 $203 #
straight-curve $-1 142 0 406 0 -1 0 I I #
vertex $-1 $152 $204 #
straight-curve $-1 406 0 406 0 1 0 I I #
point $-1 142 -132 406 #
point $-1 406 -132 406 #
loop $-1 $205 $206 $102 #
coedge $-1 $207 $208 $209 $210 0 $127 $-1 #
coedge $-1 $151 $128 $148 $198 0 $101 $-1 #
coedge $-1 $128 $151 $153 $202 0 $101 $-1 #
coedge $-1 $140 $139 $128 $165 1 $87 $-1 #
edge $-1 $211 $199 $128 $212 forward #
loop $-1 $-1 $213 $129 #
plane-surface $-1 690 0 0 -1 0 0 0 0 1 forward_v I I I I #
loop $-1 $214 $215 $58 #
coedge $-1 $216 $217 $218 $219 0 $131 $-1 #
coedge $-1 $220 $132 $221 $222 0 $104 $-1 #
coedge $-1 $132 $220 $223 $224 0 $104 $-1 #
coedge $-1 $225 $226 $132 $173 1 $227 $-1 #
edge $-1 $228 $229 $132 $230 forward #
coedge $-1 $134 $133 $197 $231 0 $82 $-1 #
coedge $-1 $232 $233 $133 $176 1 $234 $-1 #
edge $-1 $183 $235 $133 $236 forward #
coedge $-1 $237 $238 $134 $178 1 $195 $-1 #
edge $-1 $239 $182 $134 $240 forward #
coedge $-1 $209 $135 $238 $241 1 $181 $-1 #
coedge $-1 $135 $209 $232 $242 1 $181 $-1 #
loop $-1 $-1 $135 $194 #
vertex $-1 $136 $243 #
vertex $-1 $136 $244 #
straight-curve $-1 0 -132 142 -1 0 0 I I #
coedge $-1 $153 $137 $140 $187 0 $113 $-1 #
straight-curve $-1 142 -132 137 0 0 1 I I #
edge $-1 $142 $211 $185 $245 forward #
point $-1 406 -132 142 #
point $-1 142 -132 142 #
coedge $-1 $246 $144 $247 $248 1 $110 $-1 #
coedge $-1 $144 $246 $249 $250 1 $110 $-1 #
coedge $-1 $251 $252 $144 $193 1 $253 $-1 #
edge $-1 $254 $255 $192 $256 forward #
face $-1 $257 $181 $3 $-1 $258 forward single #
loop $-1 $-1 $177 $145 #
plane-surface $-1 132 0 274 -1 0 0 0 0 1 forward_v I I I I #
coedge $-1 $259 $260 $174 $231 1 $146 $-1 #
edge $-1 $199 $156 $162 $261 forward #
vertex $-1 $165 $262 #
straight-curve $-1 406 0 142 0 -1 0 I I #
straight-curve $-1 137 132 406 -1 0 0 I I #
edge $-1 $154 $211 $163 $263 forward #
point $-1 142 132 406 #
point $-1 406 132 406 #
loop $-1 $264 $265 $102 #
coedge $-1 $266 $267 $268 $269 0 $160 $-1 #
coedge $-1 $270 $161 $271 $272 0 $127 $-1 #
coedge $-1 $161 $270 $273 $274 0 $127 $-1 #
coedge $-1 $180 $179 $161 $210 1 $181 $-1 #
edge $-1 $275 $276 $161 $277 forward #
vertex $-1 $165 $278 #
straight-curve $-1 137 132 142 1 0 0 I I #
coedge $-1 $279 $280 $281 $282 0 $166 $-1 #
loop $-1 $283 $284 $58 #
coedge $-1 $285 $286 $287 $288 0 $168 $-1 #
coedge $-1 $289 $169 $290 $291 0 $131 $-1 #
coedge $-1 $169 $289 $292 $293 0 $131 $-1 #
coedge $-1 $294 $295 $169 $219 1 $296 $-1 #
edge $-1 $297 $298 $169 $299 forward #
coedge $-1 $171 $170 $300 $301 0 $104 $-1 #
coedge $-1 $302 $303 $170 $222 1 $304 $-1 #
edge $-1 $229 $305 $170 $306 forward #
coedge $-1 $307 $308 $171 $224 1 $309 $-1 #
edge $-1 $310 $228 $171 $311 forward #
coedge $-1 $268 $172 $308 $312 1 $227 $-1 #
coedge $-1 $172 $268 $302 $313 1 $227 $-1 #
loop $-1 $-1 $172 $314 #
vertex $-1 $173 $315 #
vertex $-1 $173 $316 #
straight-curve $-1 -137 -132 142 -1 0 0 I I #
edge $-1 $235 $239 $174 $317 forward #
coedge $-1 $273 $175 $180 $242 0 $234 $-1 #
coedge $-1 $175 $273 $259 $318 0 $234 $-1 #
loop $-1 $-1 $175 $257 #
vertex $-1 $231 $319 #
straight-curve $-1 -132 -132 137 0 0 1 I I #
coedge $-1 $271 $177 $260 $320 0 $195 $-1 #
coedge $-1 $177 $271 $179 $241 0 $195 $-1 #
vertex $-1 $231 $321 #
straight-curve $-1 132 -132 137 0 0 -1 I I #
edge $-1 $276 $182 $238 $322 forward #
edge $-1 $183 $275 $232 $323 forward #
point $-1 132 -132 142 #
point $-1 -132 -132 142 #
straight-curve $-1 142 0 142 0 1 0 I I #
coedge $-1 $191 $190 $324 $325 1 $110 $-1 #
coedge $-1 $326 $327 $190 $248 0 $328 $-1 #
edge $-1 $329 $255 $190 $330 forward #
coedge $-1 $331 $332 $191 $250 0 $333 $-1 #
edge $-1 $254 $334 $191 $335 forward #
coedge $-1 $336 $192 $332 $337 1 $253 $-1 #
coedge $-1 $192 $336 $326 $338 1 $253 $-1 #
loop $-1 $-1 $336 $102 #
vertex $-1 $337 $339 #
vertex $-1 $338 $340 #
straight-curve $-1 -690 132 0 0 0 -1 I I #
face $-1 $341 $234 $3 $-1 $342 forward single #
plane-surface $-1 0 0 142 0 0 1 1 0 0 forward_v I I I I #
coedge $-1 $343 $197 $233 $318 1 $146 $-1 #
coedge $-1 $197 $343 $237 $320 1 $146 $-1 #
straight-curve $-1 406 132 137 0 0 1 I I #
point $-1 406 132 142 #
straight-curve $-1 142 132 137 0 0 -1 I I #
loop $-1 $344 $345 $102 #
coedge $-1 $346 $347 $348 $349 0 $205 $-1 #
coedge $-1 $350 $206 $351 $352 0 $160 $-1 #
coedge $-1 $206 $350 $353 $354 0 $160 $-1 #
coedge $-1 $226 $225 $206 $269 1 $227 $-1 #
edge $-1 $355 $356 $206 $357 forward #
coedge $-1 $208 $207 $343 $358 0 $127 $-1 #
coedge $-1 $238 $237 $207 $272 1 $195 $-1 #
edge $-1 $276 $359 $207 $360 forward #
coedge $-1 $233 $232 $208 $274 1 $234 $-1 #
edge $-1 $361 $275 $208 $362 forward #
vertex $-1 $210 $363 #
vertex $-1 $210 $364 #
straight-curve $-1 0 132 142 1 0 0 I I #
point $-1 142 132 142 #
coedge $-1 $365 $213 $366 $367 1 $166 $-1 #
coedge $-1 $213 $365 $368 $369 1 $166 $-1 #
coedge $-1 $370 $371 $213 $282 1 $372 $-1 #
edge $-1 $373 $374 $213 $375 forward #
loop $-1 $376 $377 $58 #
coedge $-1 $378 $379 $380 $381 0 $214 $-1 #
coedge $-1 $382 $215 $383 $384 0 $168 $-1 #
coedge $-1 $215 $382 $385 $386 0 $168 $-1 #
coedge $-1 $387 $388 $215 $288 1 $389 $-1 #
edge $-1 $390 $391 $215 $392 forward #
coedge $-1 $217 $216 $393 $394 0 $131 $-1 #
coedge $-1 $395 $396 $216 $291 1 $397 $-1 #
edge $-1 $298 $398 $216 $399 forward #
coedge $-1 $400 $401 $217 $293 1 $402 $-1 #
edge $-1 $403 $297 $217 $404 forward #
coedge $-1 $348 $218 $401 $405 1 $296 $-1 #
coedge $-1 $218 $348 $395 $406 1 $296 $-1 #
loop $-1 $-1 $218 $407 #
vertex $-1 $219 $408 #
vertex $-1 $219 $409 #
straight-curve $-1 -274 -132 142 -1 0 0 I I #
coedge $-1 $410 $411 $220 $301 1 $412 $-1 #
edge $-1 $305 $310 $220 $413 forward #
coedge $-1 $353 $221 $226 $313 0 $304 $-1 #
coedge $-1 $221 $353 $410 $414 0 $304 $-1 #
loop $-1 $-1 $221 $415 #
vertex $-1 $301 $416 #
straight-curve $-1 -406 -132 137 0 0 1 I I #
coedge $-1 $351 $223 $411 $417 0 $309 $-1 #
coedge $-1 $223 $351 $225 $312 0 $309 $-1 #
loop $-1 $-1 $223 $418 #
vertex $-1 $301 $419 #
straight-curve $-1 -142 -132 137 0 0 -1 I I #
edge $-1 $356 $228 $308 $420 forward #
edge $-1 $229 $355 $302 $421 forward #
face $-1 $415 $227 $3 $-1 $422 forward single #
point $-1 -142 -132 142 #
point $-1 -406 -132 142 #
straight-curve $-1 0 -132 406 1 0 0 I I #
edge $-1 $361 $235 $233 $423 forward #
point $-1 -132 -132 406 #
edge $-1 $239 $359 $237 $424 forward #
point $-1 132 -132 406 #
straight-curve $-1 132 0 142 0 -1 0 I I #
straight-curve $-1 -132 0 142 0 1 0 I I #
coedge $-1 $371 $370 $246 $325 0 $372 $-1 #
edge $-1 $334 $329 $246 $425 forward #
coedge $-1 $366 $247 $252 $338 0 $328 $-1 #
coedge $-1 $247 $366 $371 $426 0 $328 $-1 #
loop $-1 $-1 $366 $427 #
vertex $-1 $248 $428 #
straight-curve $-1 -690 0 -416 0 1 0 I I #
coedge $-1 $368 $249 $370 $429 0 $333 $-1 #
coedge $-1 $249 $368 $251 $337 0 $333 $-1 #
loop $-1 $-1 $368 $430 #
vertex $-1 $250 $431 #
straight-curve $-1 -690 0 416 0 -1 0 I I #
coedge $-1 $252 $251 $365 $432 0 $253 $-1 #
edge $-1 $433 $254 $251 $434 forward #
edge $-1 $255 $435 $252 $436 forward #
point $-1 -690 132 416 #
point $-1 -690 132 -416 #
face $-1 $418 $412 $3 $-1 $437 reversed single #
plane-surface $-1 -132 0 274 1 0 0 0 0 -1 forward_v I I I I #
coedge $-1 $260 $259 $270 $358 1 $146 $-1 #
loop $-1 $438 $439 $102 #
coedge $-1 $440 $441 $442 $443 0 $264 $-1 #
coedge $-1 $444 $265 $445 $446 0 $205 $-1 #
coedge $-1 $265 $444 $447 $448 0 $205 $-1 #
coedge $-1 $295 $294 $265 $349 1 $296 $-1 #
edge $-1 $449 $450 $265 $451 forward #
coedge $-1 $267 $266 $452 $453 0 $160 $-1 #
coedge $-1 $308 $307 $266 $352 1 $309 $-1 #
edge $-1 $356 $454 $266 $455 forward #
coedge $-1 $303 $302 $267 $354 1 $304 $-1 #
edge $-1 $456 $355 $267 $457 forward #
vertex $-1 $269 $458 #
vertex $-1 $269 $459 #
straight-curve $-1 -137 132 142 1 0 0 I I #
edge $-1 $359 $361 $270 $460 forward #
vertex $-1 $358 $461 #
straight-curve $-1 132 132 137 0 0 1 I I #
vertex $-1 $358 $462 #
straight-curve $-1 -132 132 137 0 0 -1 I I #
point $-1 -132 132 142 #
point $-1 132 132 142 #
coedge $-1 $280 $279 $336 $432 1 $166 $-1 #
coedge $-1 $327 $326 $279 $367 0 $328 $-1 #
edge $-1 $435 $374 $279 $463 forward #
coedge $-1 $332 $331 $280 $369 0 $333 $-1 #
edge $-1 $373 $433 $280 $464 forward #
coedge $-1 $324 $281 $331 $429 1 $372 $-1 #
coedge $-1 $281 $324 $327 $426 1 $372 $-1 #
loop $-1 $-1 $324 $58 #
vertex $-1 $369 $465 #
vertex $-1 $282 $466 #
straight-curve $-1 690 -132 0 0 0 -1 I I #
loop $-1 $467 $468 $58 #
coedge $-1 $469 $470 $471 $472 0 $283 $-1 #
coedge $-1 $473 $284 $474 $475 0 $214 $-1 #
coedge $-1 $284 $473 $476 $477 0 $214 $-1 #
coedge $-1 $478 $479 $284 $381 1 $480 $-1 #
edge $-1 $481 $482 $284 $483 forward #
coedge $-1 $286 $285 $484 $485 0 $168 $-1 #
coedge $-1 $486 $487 $285 $384 1 $488 $-1 #
edge $-1 $391 $489 $285 $490 forward #
coedge $-1 $491 $492 $286 $386 1 $493 $-1 #
edge $-1 $494 $390 $286 $495 forward #
coedge $-1 $442 $287 $492 $496 1 $389 $-1 #
coedge $-1 $287 $442 $486 $497 1 $389 $-1 #
loop $-1 $-1 $287 $498 #
vertex $-1 $288 $499 #
vertex $-1 $288 $500 #
straight-curve $-1 274 -132 -132 -1 0 0 I I #
coedge $-1 $501 $502 $289 $394 1 $503 $-1 #
edge $-1 $398 $403 $289 $504 forward #
coedge $-1 $447 $290 $295 $406 0 $397 $-1 #
coedge $-1 $290 $447 $501 $505 0 $397 $-1 #
loop $-1 $-1 $290 $506 #
vertex $-1 $394 $507 #
straight-curve $-1 -680 -132 137 0 0 1 I I #
coedge $-1 $445 $292 $502 $508 0 $402 $-1 #
coedge $-1 $292 $445 $294 $405 0 $402 $-1 #
loop $-1 $-1 $292 $509 #
vertex $-1 $394 $510 #
straight-curve $-1 -416 -132 137 0 0 -1 I I #
edge $-1 $450 $297 $401 $511 forward #
edge $-1 $298 $449 $395 $512 forward #
face $-1 $506 $296 $3 $-1 $513 forward single #
point $-1 -416 -132 142 #
point $-1 -680 -132 142 #
coedge $-1 $452 $300 $303 $414 1 $412 $-1 #
coedge $-1 $300 $452 $307 $417 1 $412 $-1 #
loop $-1 $-1 $300 $341 #
straight-curve $-1 -137 -132 406 1 0 0 I I #
edge $-1 $456 $305 $303 $514 forward #
face $-1 $515 $304 $3 $-1 $516 forward single #
point $-1 -406 -132 406 #
edge $-1 $310 $454 $307 $517 forward #
face $-1 $314 $309 $3 $-1 $518 forward single #
point $-1 -142 -132 406 #
straight-curve $-1 -142 0 142 0 -1 0 I I #
straight-curve $-1 -406 0 142 0 1 0 I I #
plane-surface $-1 -274 0 142 0 0 1 1 0 0 forward_v I I I I #
straight-curve $-1 -132 0 406 0 -1 0 I I #
straight-curve $-1 132 0 406 0 1 0 I I #
straight-curve $-1 -690 -132 0 0 0 -1 I I #
edge $-1 $374 $329 $371 $519 forward #
face $-1 $58 $328 $3 $-1 $520 reversed single #
point $-1 -690 -132 -416 #
edge $-1 $334 $373 $370 $521 forward #
face $-1 $427 $333 $3 $-1 $522 forward single #
point $-1 -690 -132 416 #
edge $-1 $433 $435 $365 $523 forward #
vertex $-1 $369 $524 #
straight-curve $-1 0 132 416 -1 0 0 I I #
vertex $-1 $367 $525 #
straight-curve $-1 0 132 -416 1 0 0 I I #
plane-surface $-1 -274 0 406 0 0 1 1 0 0 forward_v I I I I #
loop $-1 $526 $527 $102 #
coedge $-1 $528 $529 $530 $531 0 $344 $-1 #
coedge $-1 $532 $345 $533 $534 0 $264 $-1 #
coedge $-1 $345 $532 $535 $536 0 $264 $-1 #
coedge $-1 $388 $387 $345 $443 1 $389 $-1 #
edge $-1 $537 $538 $345 $539 forward #
coedge $-1 $347 $346 $540 $541 0 $205 $-1 #
coedge $-1 $401 $400 $346 $446 1 $402 $-1 #
edge $-1 $450 $542 $346 $543 forward #
coedge $-1 $396 $395 $347 $448 1 $397 $-1 #
edge $-1 $544 $449 $347 $545 forward #
vertex $-1 $349 $546 #
vertex $-1 $349 $547 #
straight-curve $-1 -274 132 142 1 0 0 I I #
coedge $-1 $411 $410 $350 $453 1 $412 $-1 #
edge $-1 $454 $456 $350 $548 forward #
vertex $-1 $453 $549 #
straight-curve $-1 -142 132 137 0 0 1 I I #
vertex $-1 $453 $550 #
straight-curve $-1 -406 132 137 0 0 -1 I I #
point $-1 -406 132 142 #
point $-1 -142 132 142 #
straight-curve $-1 0 132 406 -1 0 0 I I #
point $-1 132 132 406 #
point $-1 -132 132 406 #
straight-curve $-1 690 0 -416 0 -1 0 I I #
straight-curve $-1 690 0 416 0 1 0 I I #
point $-1 690 -132 416 #
point $-1 690 -132 -416 #
loop $-1 $551 $552 $58 #
coedge $-1 $553 $554 $555 $556 0 $376 $-1 #
coedge $-1 $557 $377 $558 $559 0 $283 $-1 #
coedge $-1 $377 $557 $560 $561 0 $283 $-1 #
coedge $-1 $562 $563 $377 $472 1 $564 $-1 #
edge $-1 $565 $566 $377 $567 forward #
coedge $-1 $379 $378 $568 $569 0 $214 $-1 #
coedge $-1 $570 $571 $378 $475 1 $572 $-1 #
edge $-1 $482 $573 $378 $574 forward #
coedge $-1 $575 $576 $379 $477 1 $577 $-1 #
edge $-1 $578 $481 $379 $579 forward #
coedge $-1 $530 $380 $576 $580 1 $480 $-1 #
coedge $-1 $380 $530 $570 $581 1 $480 $-1 #
loop $-1 $-1 $380 $582 #
vertex $-1 $381 $583 #
vertex $-1 $381 $584 #
straight-curve $-1 137 -132 -132 -1 0 0 I I #
coedge $-1 $585 $586 $382 $485 1 $587 $-1 #
edge $-1 $489 $494 $382 $588 forward #
coedge $-1 $535 $383 $388 $497 0 $488 $-1 #
coedge $-1 $383 $535 $585 $589 0 $488 $-1 #
loop $-1 $-1 $383 $590 #
vertex $-1 $485 $591 #
straight-curve $-1 416 -132 0 0 0 1 I I #
coedge $-1 $533 $385 $586 $592 0 $493 $-1 #
coedge $-1 $385 $533 $387 $496 0 $493 $-1 #
loop $-1 $-1 $385 $593 #
vertex $-1 $485 $594 #
straight-curve $-1 680 -132 0 0 0 -1 I I #
edge $-1 $538 $390 $492 $595 forward #
edge $-1 $391 $537 $486 $596 forward #
face $-1 $590 $389 $3 $-1 $597 forward single #
point $-1 680 -132 -132 #
point $-1 416 -132 -132 #
coedge $-1 $540 $393 $396 $505 1 $503 $-1 #
coedge $-1 $393 $540 $400 $508 1 $503 $-1 #
loop $-1 $-1 $393 $515 #
straight-curve $-1 -274 -132 406 1 0 0 I I #
edge $-1 $544 $398 $396 $598 forward #
face $-1 $599 $397 $3 $-1 $600 forward single #
point $-1 -680 -132 406 #
edge $-1 $403 $542 $400 $601 forward #
face $-1 $407 $402 $3 $-1 $602 forward single #
point $-1 -416 -132 406 #
straight-curve $-1 -416 0 142 0 -1 0 I I #
straight-curve $-1 -680 0 142 0 1 0 I I #
plane-surface $-1 -548 0 142 0 0 1 1 0 0 forward_v I I I I #
straight-curve $-1 -406 0 406 0 -1 0 I I #
face $-1 $509 $503 $3 $-1 $603 reversed single #
plane-surface $-1 -406 0 274 1 0 0 0 0 -1 forward_v I I I I #
straight-curve $-1 -142 0 406 0 1 0 I I #
plane-surface $-1 -142 0 274 -1 0 0 0 0 1 forward_v I I I I #
straight-curve $-1 0 -132 -416 -1 0 0 I I #
plane-surface $-1 0 0 -416 0 0 1 1 0 0 forward_v I I I I #
straight-curve $-1 0 -132 416 1 0 0 I I #
plane-surface $-1 0 0 416 0 0 1 1 0 0 forward_v I I I I #
straight-curve $-1 690 132 0 0 0 -1 I I #
point $-1 690 132 416 #
point $-1 690 132 -416 #
loop $-1 $604 $605 $102 #
coedge $-1 $606 $607 $608 $609 0 $438 $-1 #
coedge $-1 $610 $439 $611 $612 0 $344 $-1 #
coedge $-1 $439 $610 $613 $614 0 $344 $-1 #
coedge $-1 $479 $478 $439 $531 1 $480 $-1 #
edge $-1 $615 $616 $439 $617 forward #
coedge $-1 $441 $440 $618 $619 0 $264 $-1 #
coedge $-1 $492 $491 $440 $534 1 $493 $-1 #
edge $-1 $538 $620 $440 $621 forward #
coedge $-1 $487 $486 $441 $536 1 $488 $-1 #
edge $-1 $622 $537 $441 $623 forward #
vertex $-1 $443 $624 #
vertex $-1 $443 $625 #
straight-curve $-1 274 132 -132 1 0 0 I I #
coedge $-1 $502 $501 $444 $541 1 $503 $-1 #
edge $-1 $542 $544 $444 $626 forward #
vertex $-1 $541 $627 #
straight-curve $-1 -416 132 137 0 0 1 I I #
vertex $-1 $541 $628 #
straight-curve $-1 -680 132 137 0 0 -1 I I #
point $-1 -680 132 142 #
point $-1 -416 132 142 #
straight-curve $-1 -137 132 406 -1 0 0 I I #
point $-1 -142 132 406 #
point $-1 -406 132 406 #
loop $-1 $629 $630 $58 #
coedge $-1 $631 $632 $633 $634 0 $467 $-1 #
coedge $-1 $635 $468 $636 $637 0 $376 $-1 #
coedge $-1 $468 $635 $638 $639 0 $376 $-1 #
coedge $-1 $640 $641 $468 $556 1 $642 $-1 #
edge $-1 $643 $644 $468 $645 forward #
coedge $-1 $470 $469 $646 $647 0 $283 $-1 #
coedge $-1 $648 $649 $469 $559 1 $650 $-1 #
edge $-1 $566 $651 $469 $652 forward #
coedge $-1 $653 $654 $470 $561 1 $655 $-1 #
edge $-1 $656 $565 $470 $657 forward #
coedge $-1 $608 $471 $654 $658 1 $564 $-1 #
coedge $-1 $471 $608 $648 $659 1 $564 $-1 #
loop $-1 $-1 $471 $660 #
vertex $-1 $472 $661 #
vertex $-1 $472 $662 #
straight-curve $-1 0 -132 -132 -1 0 0 I I #
coedge $-1 $663 $664 $473 $569 1 $665 $-1 #
edge $-1 $573 $578 $473 $666 forward #
coedge $-1 $613 $474 $479 $581 0 $572 $-1 #
coedge $-1 $474 $613 $663 $667 0 $572 $-1 #
loop $-1 $-1 $474 $668 #
vertex $-1 $569 $669 #
straight-curve $-1 142 -132 0 0 0 1 I I #
coedge $-1 $611 $476 $664 $670 0 $577 $-1 #
coedge $-1 $476 $611 $478 $580 0 $577 $-1 #
loop $-1 $-1 $476 $671 #
vertex $-1 $569 $672 #
straight-curve $-1 406 -132 0 0 0 -1 I I #
edge $-1 $616 $481 $576 $673 forward #
edge $-1 $482 $615 $570 $674 forward #
face $-1 $668 $480 $3 $-1 $675 forward single #
point $-1 406 -132 -132 #
point $-1 142 -132 -132 #
coedge $-1 $618 $484 $487 $589 1 $587 $-1 #
coedge $-1 $484 $618 $491 $592 1 $587 $-1 #
loop $-1 $-1 $484 $599 #
straight-curve $-1 274 -132 132 1 0 0 I I #
edge $-1 $622 $489 $487 $676 forward #
face $-1 $677 $488 $3 $-1 $678 forward single #
point $-1 416 -132 132 #
edge $-1 $494 $620 $491 $679 forward #
face $-1 $498 $493 $3 $-1 $680 forward single #
point $-1 680 -132 132 #
straight-curve $-1 680 0 -132 0 -1 0 I I #
straight-curve $-1 416 0 -132 0 1 0 I I #
plane-surface $-1 548 0 -132 0 0 1 1 0 0 forward_v I I I I #
straight-curve $-1 -680 0 406 0 -1 0 I I #
face $-1 $593 $587 $3 $-1 $681 reversed single #
plane-surface $-1 -680 0 274 1 0 0 0 0 -1 forward_v I I I I #
straight-curve $-1 -416 0 406 0 1 0 I I #
plane-surface $-1 -416 0 274 -1 0 0 0 0 1 forward_v I I I I #
plane-surface $-1 -548 0 406 0 0 1 1 0 0 forward_v I I I I #
loop $-1 $682 $683 $102 #
coedge $-1 $684 $685 $686 $687 0 $526 $-1 #
coedge $-1 $688 $527 $689 $690 0 $438 $-1 #
coedge $-1 $527 $688 $691 $692 0 $438 $-1 #
coedge $-1 $563 $562 $527 $609 1 $564 $-1 #
edge $-1 $693 $694 $527 $695 forward #
coedge $-1 $529 $528 $696 $697 0 $344 $-1 #
coedge $-1 $576 $575 $528 $612 1 $577 $-1 #
edge $-1 $616 $698 $528 $699 forward #
coedge $-1 $571 $570 $529 $614 1 $572 $-1 #
edge $-1 $700 $615 $529 $701 forward #
vertex $-1 $531 $702 #
vertex $-1 $531 $703 #
straight-curve $-1 137 132 -132 1 0 0 I I #
coedge $-1 $586 $585 $532 $619 1 $587 $-1 #
edge $-1 $620 $622 $532 $704 forward #
vertex $-1 $619 $705 #
straight-curve $-1 680 132 0 0 0 1 I I #
vertex $-1 $619 $706 #
straight-curve $-1 416 132 0 0 0 -1 I I #
point $-1 416 132 -132 #
point $-1 680 132 -132 #
straight-curve $-1 -274 132 406 -1 0 0 I I #
point $-1 -416 132 406 #
point $-1 -680 132 406 #
loop $-1 $707 $708 $58 #
coedge $-1 $709 $710 $711 $712 0 $551 $-1 #
coedge $-1 $713 $552 $714 $715 0 $467 $-1 #
coedge $-1 $552 $713 $716 $717 0 $467 $-1 #
coedge $-1 $718 $719 $552 $634 1 $720 $-1 #
edge $-1 $721 $722 $552 $723 forward #
coedge $-1 $554 $553 $724 $725 0 $376 $-1 #
coedge $-1 $726 $727 $553 $637 1 $728 $-1 #
edge $-1 $644 $729 $553 $730 forward #
coedge $-1 $731 $732 $554 $639 1 $733 $-1 #
edge $-1 $734 $643 $554 $735 forward #
coedge $-1 $686 $555 $732 $736 1 $642 $-1 #
coedge $-1 $555 $686 $726 $737 1 $642 $-1 #
loop $-1 $-1 $555 $738 #
vertex $-1 $556 $739 #
vertex $-1 $556 $740 #
straight-curve $-1 -137 -132 -132 -1 0 0 I I #
coedge $-1 $741 $742 $557 $647 1 $743 $-1 #
edge $-1 $651 $656 $557 $744 forward #
coedge $-1 $691 $558 $563 $659 0 $650 $-1 #
coedge $-1 $558 $691 $741 $745 0 $650 $-1 #
loop $-1 $-1 $558 $746 #
vertex $-1 $647 $747 #
straight-curve $-1 -132 -132 0 0 0 1 I I #
coedge $-1 $689 $560 $742 $748 0 $655 $-1 #
coedge $-1 $560 $689 $562 $658 0 $655 $-1 #
loop $-1 $-1 $560 $749 #
vertex $-1 $647 $750 #
straight-curve $-1 132 -132 0 0 0 -1 I I #
edge $-1 $694 $565 $654 $751 forward #
edge $-1 $566 $693 $648 $752 forward #
face $-1 $746 $564 $3 $-1 $753 forward single #
point $-1 132 -132 -132 #
point $-1 -132 -132 -132 #
coedge $-1 $696 $568 $571 $667 1 $665 $-1 #
coedge $-1 $568 $696 $575 $670 1 $665 $-1 #
loop $-1 $-1 $568 $677 #
straight-curve $-1 137 -132 132 1 0 0 I I #
edge $-1 $700 $573 $571 $754 forward #
face $-1 $755 $572 $3 $-1 $756 forward single #
point $-1 142 -132 132 #
edge $-1 $578 $698 $575 $757 forward #
face $-1 $582 $577 $3 $-1 $758 forward single #
point $-1 406 -132 132 #
straight-curve $-1 406 0 -132 0 -1 0 I I #
straight-curve $-1 142 0 -132 0 1 0 I I #
plane-surface $-1 274 0 -132 0 0 1 1 0 0 forward_v I I I I #
straight-curve $-1 416 0 132 0 -1 0 I I #
face $-1 $671 $665 $3 $-1 $759 reversed single #
plane-surface $-1 416 0 0 1 0 0 0 0 -1 forward_v I I I I #
straight-curve $-1 680 0 132 0 1 0 I I #
plane-surface $-1 680 0 0 -1 0 0 0 0 1 forward_v I I I I #
plane-surface $-1 548 0 132 0 0 1 1 0 0 forward_v I I I I #
loop $-1 $760 $761 $102 #
coedge $-1 $762 $763 $764 $765 0 $604 $-1 #
coedge $-1 $766 $605 $767 $768 0 $526 $-1 #
coedge $-1 $605 $766 $769 $770 0 $526 $-1 #
coedge $-1 $641 $640 $605 $687 1 $642 $-1 #
edge $-1 $771 $772 $605 $773 forward #
coedge $-1 $607 $606 $774 $775 0 $438 $-1 #
coedge $-1 $654 $653 $606 $690 1 $655 $-1 #
edge $-1 $694 $776 $606 $777 forward #
coedge $-1 $649 $648 $607 $692 1 $650 $-1 #
edge $-1 $778 $693 $607 $779 forward #
vertex $-1 $609 $780 #
vertex $-1 $609 $781 #
straight-curve $-1 0 132 -132 1 0 0 I I #
coedge $-1 $664 $663 $610 $697 1 $665 $-1 #
edge $-1 $698 $700 $610 $782 forward #
vertex $-1 $697 $783 #
straight-curve $-1 406 132 0 0 0 1 I I #
vertex $-1 $697 $784 #
straight-curve $-1 142 132 0 0 0 -1 I I #
point $-1 142 132 -132 #
point $-1 406 132 -132 #
straight-curve $-1 274 132 132 -1 0 0 I I #
point $-1 680 132 132 #
point $-1 416 132 132 #
loop $-1 $785 $786 $58 #
coedge $-1 $787 $788 $789 $790 0 $629 $-1 #
coedge $-1 $791 $630 $792 $793 0 $551 $-1 #
coedge $-1 $630 $791 $794 $795 0 $551 $-1 #
coedge $-1 $796 $797 $630 $712 1 $798 $-1 #
edge $-1 $799 $800 $630 $801 forward #
coedge $-1 $632 $631 $802 $803 0 $467 $-1 #
coedge $-1 $804 $805 $631 $715 1 $806 $-1 #
edge $-1 $722 $807 $631 $808 forward #
coedge $-1 $809 $810 $632 $717 1 $811 $-1 #
edge $-1 $812 $721 $632 $813 forward #
coedge $-1 $764 $633 $810 $814 1 $720 $-1 #
coedge $-1 $633 $764 $804 $815 1 $720 $-1 #
loop $-1 $-1 $633 $816 #
vertex $-1 $634 $817 #
vertex $-1 $634 $818 #
straight-curve $-1 -274 -132 -132 -1 0 0 I I #
coedge $-1 $819 $820 $635 $725 1 $821 $-1 #
edge $-1 $729 $734 $635 $822 forward #
coedge $-1 $769 $636 $641 $737 0 $728 $-1 #
coedge $-1 $636 $769 $819 $823 0 $728 $-1 #
loop $-1 $-1 $636 $824 #
vertex $-1 $725 $825 #
straight-curve $-1 -406 -132 0 0 0 1 I I #
coedge $-1 $767 $638 $820 $826 0 $733 $-1 #
coedge $-1 $638 $767 $640 $736 0 $733 $-1 #
loop $-1 $-1 $638 $827 #
vertex $-1 $725 $828 #
straight-curve $-1 -142 -132 0 0 0 -1 I I #
edge $-1 $772 $643 $732 $829 forward #
edge $-1 $644 $771 $726 $830 forward #
face $-1 $824 $642 $3 $-1 $831 forward single #
point $-1 -142 -132 -132 #
point $-1 -406 -132 -132 #
coedge $-1 $774 $646 $649 $745 1 $743 $-1 #
coedge $-1 $646 $774 $653 $748 1 $743 $-1 #
loop $-1 $-1 $646 $755 #
straight-curve $-1 0 -132 132 1 0 0 I I #
edge $-1 $778 $651 $649 $832 forward #
face $-1 $833 $650 $3 $-1 $834 forward single #
point $-1 -132 -132 132 #
edge $-1 $656 $776 $653 $835 forward #
face $-1 $660 $655 $3 $-1 $836 forward single #
point $-1 132 -132 132 #
straight-curve $-1 132 0 -132 0 -1 0 I I #
straight-curve $-1 -132 0 -132 0 1 0 I I #
plane-surface $-1 0 0 -132 0 0 1 1 0 0 forward_v I I I I #
straight-curve $-1 142 0 132 0 -1 0 I I #
face $-1 $749 $743 $3 $-1 $837 reversed single #
plane-surface $-1 142 0 0 1 0 0 0 0 -1 forward_v I I I I #
straight-curve $-1 406 0 132 0 1 0 I I #
plane-surface $-1 406 0 0 -1 0 0 0 0 1 forward_v I I I I #
plane-surface $-1 274 0 132 0 0 1 1 0 0 forward_v I I I I #
loop $-1 $838 $839 $102 #
coedge $-1 $840 $841 $842 $843 0 $682 $-1 #
coedge $-1 $844 $683 $845 $846 0 $604 $-1 #
coedge $-1 $683 $844 $847 $848 0 $604 $-1 #
coedge $-1 $719 $718 $683 $765 1 $720 $-1 #
edge $-1 $849 $850 $683 $851 forward #
coedge $-1 $685 $684 $852 $853 0 $526 $-1 #
coedge $-1 $732 $731 $684 $768 1 $733 $-1 #
edge $-1 $772 $854 $684 $855 forward #
coedge $-1 $727 $726 $685 $770 1 $728 $-1 #
edge $-1 $856 $771 $685 $857 forward #
vertex $-1 $687 $858 #
vertex $-1 $687 $859 #
straight-curve $-1 -137 132 -132 1 0 0 I I #
coedge $-1 $742 $741 $688 $775 1 $743 $-1 #
edge $-1 $776 $778 $688 $860 forward #
vertex $-1 $775 $861 #
straight-curve $-1 132 132 0 0 0 1 I I #
vertex $-1 $775 $862 #
straight-curve $-1 -132 132 0 0 0 -1 I I #
point $-1 -132 132 -132 #
point $-1 132 132 -132 #
straight-curve $-1 137 132 132 -1 0 0 I I #
point $-1 406 132 132 #
point $-1 142 132 132 #
loop $-1 $863 $864 $58 #
coedge $-1 $865 $866 $867 $868 0 $707 $-1 #
coedge $-1 $869 $708 $870 $871 0 $629 $-1 #
coedge $-1 $708 $869 $872 $873 0 $629 $-1 #
coedge $-1 $874 $875 $708 $790 1 $876 $-1 #
edge $-1 $877 $878 $708 $879 forward #
coedge $-1 $710 $709 $880 $881 0 $551 $-1 #
coedge $-1 $882 $883 $709 $793 1 $884 $-1 #
edge $-1 $800 $885 $709 $886 forward #
coedge $-1 $887 $888 $710 $795 1 $889 $-1 #
edge $-1 $890 $799 $710 $891 forward #
coedge $-1 $842 $711 $888 $892 1 $798 $-1 #
coedge $-1 $711 $842 $882 $893 1 $798 $-1 #
loop $-1 $-1 $711 $894 #
vertex $-1 $712 $895 #
vertex $-1 $712 $896 #
straight-curve $-1 274 -132 -406 -1 0 0 I I #
coedge $-1 $897 $898 $713 $803 1 $899 $-1 #
edge $-1 $807 $812 $713 $900 forward #
coedge $-1 $847 $714 $719 $815 0 $806 $-1 #
coedge $-1 $714 $847 $897 $901 0 $806 $-1 #
loop $-1 $-1 $714 $902 #
vertex $-1 $803 $903 #
straight-curve $-1 -680 -132 0 0 0 1 I I #
coedge $-1 $845 $716 $898 $904 0 $811 $-1 #
coedge $-1 $716 $845 $718 $814 0 $811 $-1 #
loop $-1 $-1 $716 $905 #
vertex $-1 $803 $906 #
straight-curve $-1 -416 -132 0 0 0 -1 I I #
edge $-1 $850 $721 $810 $907 forward #
edge $-1 $722 $849 $804 $908 forward #
face $-1 $902 $720 $3 $-1 $909 forward single #
point $-1 -416 -132 -132 #
point $-1 -680 -132 -132 #
coedge $-1 $852 $724 $727 $823 1 $821 $-1 #
coedge $-1 $724 $852 $731 $826 1 $821 $-1 #
loop $-1 $-1 $724 $833 #
straight-curve $-1 -137 -132 132 1 0 0 I I #
edge $-1 $856 $729 $727 $910 forward #
face $-1 $911 $728 $3 $-1 $912 forward single #
point $-1 -406 -132 132 #
edge $-1 $734 $854 $731 $913 forward #
face $-1 $738 $733 $3 $-1 $914 forward single #
point $-1 -142 -132 132 #
straight-curve $-1 -142 0 -132 0 -1 0 I I #
straight-curve $-1 -406 0 -132 0 1 0 I I #
plane-surface $-1 -274 0 -132 0 0 1 1 0 0 forward_v I I I I #
straight-curve $-1 -132 0 132 0 -1 0 I I #
face $-1 $827 $821 $3 $-1 $915 reversed single #
plane-surface $-1 -132 0 0 1 0 0 0 0 -1 forward_v I I I I #
straight-curve $-1 132 0 132 0 1 0 I I #
plane-surface $-1 132 0 0 -1 0 0 0 0 1 forward_v I I I I #
plane-surface $-1 0 0 132 0 0 1 1 0 0 forward_v I I I I #
loop $-1 $916 $917 $102 #
coedge $-1 $918 $919 $920 $921 0 $760 $-1 #
coedge $-1 $922 $761 $923 $924 0 $682 $-1 #
coedge $-1 $761 $922 $925 $926 0 $682 $-1 #
coedge $-1 $797 $796 $761 $843 1 $798 $-1 #
edge $-1 $927 $928 $761 $929 forward #
coedge $-1 $763 $762 $930 $931 0 $604 $-1 #
coedge $-1 $810 $809 $762 $846 1 $811 $-1 #
edge $-1 $850 $932 $762 $933 forward #
coedge $-1 $805 $804 $763 $848 1 $806 $-1 #
edge $-1 $934 $849 $763 $935 forward #
vertex $-1 $765 $936 #
vertex $-1 $765 $937 #
straight-curve $-1 -274 132 -132 1 0 0 I I #
coedge $-1 $820 $819 $766 $853 1 $821 $-1 #
edge $-1 $854 $856 $766 $938 forward #
vertex $-1 $853 $939 #
straight-curve $-1 -142 132 0 0 0 1 I I #
vertex $-1 $853 $940 #
straight-curve $-1 -406 132 0 0 0 -1 I I #
point $-1 -406 132 -132 #
point $-1 -142 132 -132 #
straight-curve $-1 0 132 132 -1 0 0 I I #
point $-1 132 132 132 #
point $-1 -132 132 132 #
loop $-1 $372 $941 $58 #
coedge $-1 $942 $943 $944 $945 0 $785 $-1 #
coedge $-1 $946 $786 $947 $948 0 $707 $-1 #
coedge $-1 $786 $946 $949 $950 0 $707 $-1 #
coedge $-1 $951 $952 $786 $868 1 $953 $-1 #
edge $-1 $954 $955 $786 $956 forward #
coedge $-1 $788 $787 $957 $958 0 $629 $-1 #
coedge $-1 $959 $960 $787 $871 1 $961 $-1 #
edge $-1 $878 $962 $787 $963 forward #
coedge $-1 $964 $965 $788 $873 1 $966 $-1 #
edge $-1 $967 $877 $788 $968 forward #
coedge $-1 $920 $789 $965 $969 1 $876 $-1 #
coedge $-1 $789 $920 $959 $970 1 $876 $-1 #
loop $-1 $-1 $789 $971 #
vertex $-1 $790 $972 #
vertex $-1 $790 $973 #
straight-curve $-1 137 -132 -406 -1 0 0 I I #
coedge $-1 $974 $975 $791 $881 1 $976 $-1 #
edge $-1 $885 $890 $791 $977 forward #
coedge $-1 $925 $792 $797 $893 0 $884 $-1 #
coedge $-1 $792 $925 $974 $978 0 $884 $-1 #
loop $-1 $-1 $792 $979 #
vertex $-1 $881 $980 #
straight-curve $-1 416 -132 -137 0 0 1 I I #
coedge $-1 $923 $794 $975 $981 0 $889 $-1 #
coedge $-1 $794 $923 $796 $892 0 $889 $-1 #
loop $-1 $-1 $794 $982 #
vertex $-1 $881 $983 #
straight-curve $-1 680 -132 -137 0 0 -1 I I #
edge $-1 $928 $799 $888 $984 forward #
edge $-1 $800 $927 $882 $985 forward #
face $-1 $979 $798 $3 $-1 $986 forward single #
point $-1 680 -132 -406 #
point $-1 416 -132 -406 #
coedge $-1 $930 $802 $805 $901 1 $899 $-1 #
coedge $-1 $802 $930 $809 $904 1 $899 $-1 #
loop $-1 $-1 $802 $911 #
straight-curve $-1 -274 -132 132 1 0 0 I I #
edge $-1 $934 $807 $805 $987 forward #
face $-1 $988 $806 $3 $-1 $989 forward single #
point $-1 -680 -132 132 #
edge $-1 $812 $932 $809 $990 forward #
face $-1 $816 $811 $3 $-1 $991 forward single #
point $-1 -416 -132 132 #
straight-curve $-1 -416 0 -132 0 -1 0 I I #
straight-curve $-1 -680 0 -132 0 1 0 I I #
plane-surface $-1 -548 0 -132 0 0 1 1 0 0 forward_v I I I I #
straight-curve $-1 -406 0 132 0 -1 0 I I #
face $-1 $905 $899 $3 $-1 $992 reversed single #
plane-surface $-1 -406 0 0 1 0 0 0 0 -1 forward_v I I I I #
straight-curve $-1 -142 0 132 0 1 0 I I #
plane-surface $-1 -142 0 0 -1 0 0 0 0 1 forward_v I I I I #
plane-surface $-1 -274 0 132 0 0 1 1 0 0 forward_v I I I I #
loop $-1 $993 $994 $102 #
coedge $-1 $995 $996 $997 $998 0 $838 $-1 #
coedge $-1 $999 $839 $1000 $1001 0 $760 $-1 #
coedge $-1 $839 $999 $1002 $1003 0 $760 $-1 #
coedge $-1 $875 $874 $839 $921 1 $876 $-1 #
edge $-1 $1004 $1005 $839 $1006 forward #
coedge $-1 $841 $840 $1007 $1008 0 $682 $-1 #
coedge $-1 $888 $887 $840 $924 1 $889 $-1 #
edge $-1 $928 $1009 $840 $1010 forward #
coedge $-1 $883 $882 $841 $926 1 $884 $-1 #
edge $-1 $1011 $927 $841 $1012 forward #
vertex $-1 $843 $1013 #
vertex $-1 $843 $1014 #
straight-curve $-1 274 132 -406 1 0 0 I I #
coedge $-1 $898 $897 $844 $931 1 $899 $-1 #
edge $-1 $932 $934 $844 $1015 forward #
vertex $-1 $931 $1016 #
straight-curve $-1 -416 132 0 0 0 1 I I #
vertex $-1 $931 $1017 #
straight-curve $-1 -680 132 0 0 0 -1 I I #
point $-1 -680 132 -132 #
point $-1 -416 132 -132 #
straight-curve $-1 -137 132 132 -1 0 0 I I #
point $-1 -142 132 132 #
point $-1 -406 132 132 #
coedge $-1 $1018 $1019 $1020 $1021 0 $863 $-1 #
coedge $-1 $1022 $864 $1023 $1024 0 $785 $-1 #
coedge $-1 $864 $1022 $1025 $1026 0 $785 $-1 #
coedge $-1 $1027 $1028 $864 $945 1 $1029 $-1 #
edge $-1 $1030 $1031 $864 $1032 forward #
coedge $-1 $866 $865 $1033 $1034 0 $707 $-1 #
coedge $-1 $1035 $1036 $865 $948 1 $1037 $-1 #
edge $-1 $955 $1038 $865 $1039 forward #
coedge $-1 $1040 $1041 $866 $950 1 $1042 $-1 #
edge $-1 $1043 $954 $866 $1044 forward #
coedge $-1 $997 $867 $1041 $1045 1 $953 $-1 #
coedge $-1 $867 $997 $1035 $1046 1 $953 $-1 #
loop $-1 $-1 $867 $1047 #
vertex $-1 $868 $1048 #
vertex $-1 $868 $1049 #
straight-curve $-1 0 -132 -406 -1 0 0 I I #
coedge $-1 $1050 $1051 $869 $958 1 $1052 $-1 #
edge $-1 $962 $967 $869 $1053 forward #
coedge $-1 $1002 $870 $875 $970 0 $961 $-1 #
coedge $-1 $870 $1002 $1050 $1054 0 $961 $-1 #
loop $-1 $-1 $870 $1055 #
vertex $-1 $958 $1056 #
straight-curve $-1 142 -132 -137 0 0 1 I I #
coedge $-1 $1000 $872 $1051 $1057 0 $966 $-1 #
coedge $-1 $872 $1000 $874 $969 0 $966 $-1 #
loop $-1 $-1 $872 $1058 #
vertex $-1 $958 $1059 #
straight-curve $-1 406 -132 -137 0 0 -1 I I #
edge $-1 $1005 $877 $965 $1060 forward #
edge $-1 $878 $1004 $959 $1061 forward #
face $-1 $1055 $876 $3 $-1 $1062 forward single #
point $-1 406 -132 -406 #
point $-1 142 -132 -406 #
coedge $-1 $1007 $880 $883 $978 1 $976 $-1 #
coedge $-1 $880 $1007 $887 $981 1 $976 $-1 #
loop $-1 $-1 $880 $988 #
straight-curve $-1 274 -132 -142 1 0 0 I I #
edge $-1 $1011 $885 $883 $1063 forward #
face $-1 $1064 $884 $3 $-1 $1065 forward single #
point $-1 416 -132 -142 #
edge $-1 $890 $1009 $887 $1066 forward #
face $-1 $894 $889 $3 $-1 $1067 forward single #
point $-1 680 -132 -142 #
straight-curve $-1 680 0 -406 0 -1 0 I I #
straight-curve $-1 416 0 -406 0 1 0 I I #
plane-surface $-1 548 0 -406 0 0 1 1 0 0 forward_v I I I I #
straight-curve $-1 -680 0 132 0 -1 0 I I #
face $-1 $982 $976 $3 $-1 $1068 reversed single #
plane-surface $-1 -680 0 0 1 0 0 0 0 -1 forward_v I I I I #
straight-curve $-1 -416 0 132 0 1 0 I I #
plane-surface $-1 -416 0 0 -1 0 0 0 0 1 forward_v I I I I #
plane-surface $-1 -548 0 132 0 0 1 1 0 0 forward_v I I I I #
loop $-1 $253 $1069 $102 #
coedge $-1 $1070 $1071 $1072 $1073 0 $916 $-1 #
coedge $-1 $1074 $917 $1075 $1076 0 $838 $-1 #
coedge $-1 $917 $1074 $1077 $1078 0 $838 $-1 #
coedge $-1 $952 $951 $917 $998 1 $953 $-1 #
edge $-1 $1079 $1080 $917 $1081 forward #
coedge $-1 $919 $918 $1082 $1083 0 $760 $-1 #
coedge $-1 $965 $964 $918 $1001 1 $966 $-1 #
edge $-1 $1005 $1084 $918 $1085 forward #
coedge $-1 $960 $959 $919 $1003 1 $961 $-1 #
edge $-1 $1086 $1004 $919 $1087 forward #
vertex $-1 $921 $1088 #
vertex $-1 $921 $1089 #
straight-curve $-1 137 132 -406 1 0 0 I I #
coedge $-1 $975 $974 $922 $1008 1 $976 $-1 #
edge $-1 $1009 $1011 $922 $1090 forward #
vertex $-1 $1008 $1091 #
straight-curve $-1 680 132 -137 0 0 1 I I #
vertex $-1 $1008 $1092 #
straight-curve $-1 416 132 -137 0 0 -1 I I #
point $-1 416 132 -406 #
point $-1 680 132 -406 #
straight-curve $-1 -274 132 132 -1 0 0 I I #
point $-1 -416 132 132 #
point $-1 -680 132 132 #
coedge $-1 $1093 $941 $1094 $1095 0 $863 $-1 #
coedge $-1 $941 $1093 $1096 $1097 0 $863 $-1 #
coedge $-1 $1098 $1099 $941 $1021 1 $1100 $-1 #
edge $-1 $1101 $1102 $941 $1103 forward #
coedge $-1 $943 $942 $1104 $1105 0 $785 $-1 #
coedge $-1 $1106 $1107 $942 $1024 1 $1108 $-1 #
edge $-1 $1031 $1109 $942 $1110 forward #
coedge $-1 $1111 $1112 $943 $1026 1 $1113 $-1 #
edge $-1 $1114 $1030 $943 $1115 forward #
coedge $-1 $1072 $944 $1112 $1116 1 $1029 $-1 #
coedge $-1 $944 $1072 $1106 $1117 1 $1029 $-1 #
loop $-1 $-1 $944 $1118 #
vertex $-1 $945 $1119 #
vertex $-1 $945 $1120 #
straight-curve $-1 -137 -132 -406 -1 0 0 I I #
coedge $-1 $1121 $1122 $946 $1034 1 $1123 $-1 #
edge $-1 $1038 $1043 $946 $1124 forward #
coedge $-1 $1077 $947 $952 $1046 0 $1037 $-1 #
coedge $-1 $947 $1077 $1121 $1125 0 $1037 $-1 #
loop $-1 $-1 $947 $1126 #
vertex $-1 $1034 $1127 #
straight-curve $-1 -132 -132 -137 0 0 1 I I #
coedge $-1 $1075 $949 $1122 $1128 0 $1042 $-1 #
coedge $-1 $949 $1075 $951 $1045 0 $1042 $-1 #
loop $-1 $-1 $949 $1129 #
vertex $-1 $1034 $1130 #
straight-curve $-1 132 -132 -137 0 0 -1 I I #
edge $-1 $1080 $954 $1041 $1131 forward #
edge $-1 $955 $1079 $1035 $1132 forward #
face $-1 $1126 $953 $3 $-1 $1133 forward single #
point $-1 132 -132 -406 #
point $-1 -132 -132 -406 #
coedge $-1 $1082 $957 $960 $1054 1 $1052 $-1 #
coedge $-1 $957 $1082 $964 $1057 1 $1052 $-1 #
loop $-1 $-1 $957 $1064 #
straight-curve $-1 137 -132 -142 1 0 0 I I #
edge $-1 $1086 $962 $960 $1134 forward #
face $-1 $1135 $961 $3 $-1 $1136 forward single #
point $-1 142 -132 -142 #
edge $-1 $967 $1084 $964 $1137 forward #
face $-1 $971 $966 $3 $-1 $1138 forward single #
point $-1 406 -132 -142 #
straight-curve $-1 406 0 -406 0 -1 0 I I #
straight-curve $-1 142 0 -406 0 1 0 I I #
plane-surface $-1 274 0 -406 0 0 1 1 0 0 forward_v I I I I #
straight-curve $-1 416 0 -142 0 -1 0 I I #
face $-1 $1058 $1052 $3 $-1 $1139 reversed single #
plane-surface $-1 416 0 -274 1 0 0 0 0 -1 forward_v I I I I #
straight-curve $-1 680 0 -142 0 1 0 I I #
plane-surface $-1 680 0 -274 -1 0 0 0 0 1 forward_v I I I I #
plane-surface $-1 548 0 -142 0 0 1 1 0 0 forward_v I I I I #
coedge $-1 $1140 $1141 $1142 $1143 0 $993 $-1 #
coedge $-1 $1144 $994 $1145 $1146 0 $916 $-1 #
coedge $-1 $994 $1144 $1147 $1148 0 $916 $-1 #
coedge $-1 $1028 $1027 $994 $1073 1 $1029 $-1 #
edge $-1 $1149 $1150 $994 $1151 forward #
coedge $-1 $996 $995 $1152 $1153 0 $838 $-1 #
coedge $-1 $1041 $1040 $995 $1076 1 $1042 $-1 #
edge $-1 $1080 $1154 $995 $1155 forward #
coedge $-1 $1036 $1035 $996 $1078 1 $1037 $-1 #
edge $-1 $1156 $1079 $996 $1157 forward #
vertex $-1 $998 $1158 #
vertex $-1 $998 $1159 #
straight-curve $-1 0 132 -406 1 0 0 I I #
coedge $-1 $1051 $1050 $999 $1083 1 $1052 $-1 #
edge $-1 $1084 $1086 $999 $1160 forward #
vertex $-1 $1083 $1161 #
straight-curve $-1 406 132 -137 0 0 1 I I #
vertex $-1 $1083 $1162 #
straight-curve $-1 142 132 -137 0 0 -1 I I #
point $-1 142 132 -406 #
point $-1 406 132 -406 #
straight-curve $-1 274 132 -142 -1 0 0 I I #
point $-1 680 132 -142 #
point $-1 416 132 -142 #
coedge $-1 $1019 $1018 $1163 $1164 0 $863 $-1 #
coedge $-1 $1165 $1166 $1018 $1095 1 $1167 $-1 #
edge $-1 $1102 $1168 $1018 $1169 forward #
coedge $-1 $1170 $1171 $1019 $1097 1 $1172 $-1 #
edge $-1 $1173 $1101 $1019 $1174 forward #
coedge $-1 $1142 $1020 $1171 $1175 1 $1100 $-1 #
coedge $-1 $1020 $1142 $1165 $1176 1 $1100 $-1 #
loop $-1 $-1 $1020 $1177 #
vertex $-1 $1021 $1178 #
vertex $-1 $1021 $1179 #
straight-curve $-1 -274 -132 -406 -1 0 0 I I #
coedge $-1 $1180 $1181 $1022 $1105 1 $1182 $-1 #
edge $-1 $1109 $1114 $1022 $1183 forward #
coedge $-1 $1147 $1023 $1028 $1117 0 $1108 $-1 #
coedge $-1 $1023 $1147 $1180 $1184 0 $1108 $-1 #
loop $-1 $-1 $1023 $1185 #
vertex $-1 $1105 $1186 #
straight-curve $-1 -406 -132 -137 0 0 1 I I #
coedge $-1 $1145 $1025 $1181 $1187 0 $1113 $-1 #
coedge $-1 $1025 $1145 $1027 $1116 0 $1113 $-1 #
loop $-1 $-1 $1025 $1188 #
vertex $-1 $1105 $1189 #
straight-curve $-1 -142 -132 -137 0 0 -1 I I #
edge $-1 $1150 $1030 $1112 $1190 forward #
edge $-1 $1031 $1149 $1106 $1191 forward #
face $-1 $1185 $1029 $3 $-1 $1192 forward single #
point $-1 -142 -132 -406 #
point $-1 -406 -132 -406 #
coedge $-1 $1152 $1033 $1036 $1125 1 $1123 $-1 #
coedge $-1 $1033 $1152 $1040 $1128 1 $1123 $-1 #
loop $-1 $-1 $1033 $1135 #
straight-curve $-1 0 -132 -142 1 0 0 I I #
edge $-1 $1156 $1038 $1036 $1193 forward #
face $-1 $1194 $1037 $3 $-1 $1195 forward single #
point $-1 -132 -132 -142 #
edge $-1 $1043 $1154 $1040 $1196 forward #
face $-1 $1047 $1042 $3 $-1 $1197 forward single #
point $-1 132 -132 -142 #
straight-curve $-1 132 0 -406 0 -1 0 I I #
straight-curve $-1 -132 0 -406 0 1 0 I I #
plane-surface $-1 0 0 -406 0 0 1 1 0 0 forward_v I I I I #
straight-curve $-1 142 0 -142 0 -1 0 I I #
face $-1 $1129 $1123 $3 $-1 $1198 reversed single #
plane-surface $-1 142 0 -274 1 0 0 0 0 -1 forward_v I I I I #
straight-curve $-1 406 0 -142 0 1 0 I I #
plane-surface $-1 406 0 -274 -1 0 0 0 0 1 forward_v I I I I #
plane-surface $-1 274 0 -142 0 0 1 1 0 0 forward_v I I I I #
coedge $-1 $1199 $1069 $1200 $1201 0 $993 $-1 #
coedge $-1 $1069 $1199 $1202 $1203 0 $993 $-1 #
coedge $-1 $1099 $1098 $1069 $1143 1 $1100 $-1 #
edge $-1 $1204 $1205 $1069 $1206 forward #
coedge $-1 $1071 $1070 $1207 $1208 0 $916 $-1 #
coedge $-1 $1112 $1111 $1070 $1146 1 $1113 $-1 #
edge $-1 $1150 $1209 $1070 $1210 forward #
coedge $-1 $1107 $1106 $1071 $1148 1 $1108 $-1 #
edge $-1 $1211 $1149 $1071 $1212 forward #
vertex $-1 $1073 $1213 #
vertex $-1 $1073 $1214 #
straight-curve $-1 -137 132 -406 1 0 0 I I #
coedge $-1 $1122 $1121 $1074 $1153 1 $1123 $-1 #
edge $-1 $1154 $1156 $1074 $1215 forward #
vertex $-1 $1153 $1216 #
straight-curve $-1 132 132 -137 0 0 1 I I #
vertex $-1 $1153 $1217 #
straight-curve $-1 -132 132 -137 0 0 -1 I I #
point $-1 -132 132 -406 #
point $-1 132 132 -406 #
straight-curve $-1 137 132 -142 -1 0 0 I I #
point $-1 406 132 -142 #
point $-1 142 132 -142 #
coedge $-1 $1218 $1219 $1093 $1164 1 $1220 $-1 #
edge $-1 $1168 $1173 $1093 $1221 forward #
coedge $-1 $1202 $1094 $1099 $1176 0 $1167 $-1 #
coedge $-1 $1094 $1202 $1218 $1222 0 $1167 $-1 #
loop $-1 $-1 $1094 $1223 #
vertex $-1 $1164 $1224 #
straight-curve $-1 -680 -132 -137 0 0 1 I I #
coedge $-1 $1200 $1096 $1219 $1225 0 $1172 $-1 #
coedge $-1 $1096 $1200 $1098 $1175 0 $1172 $-1 #
loop $-1 $-1 $1096 $1226 #
vertex $-1 $1164 $1227 #
straight-curve $-1 -416 -132 -137 0 0 -1 I I #
edge $-1 $1205 $1101 $1171 $1228 forward #
edge $-1 $1102 $1204 $1165 $1229 forward #
face $-1 $1223 $1100 $3 $-1 $1230 forward single #
point $-1 -416 -132 -406 #
point $-1 -680 -132 -406 #
coedge $-1 $1207 $1104 $1107 $1184 1 $1182 $-1 #
coedge $-1 $1104 $1207 $1111 $1187 1 $1182 $-1 #
loop $-1 $-1 $1104 $1194 #
straight-curve $-1 -137 -132 -142 1 0 0 I I #
edge $-1 $1211 $1109 $1107 $1231 forward #
face $-1 $1232 $1108 $3 $-1 $1233 forward single #
point $-1 -406 -132 -142 #
edge $-1 $1114 $1209 $1111 $1234 forward #
face $-1 $1118 $1113 $3 $-1 $1235 forward single #
point $-1 -142 -132 -142 #
straight-curve $-1 -142 0 -406 0 -1 0 I I #
straight-curve $-1 -406 0 -406 0 1 0 I I #
plane-surface $-1 -274 0 -406 0 0 1 1 0 0 forward_v I I I I #
straight-curve $-1 -132 0 -142 0 -1 0 I I #
face $-1 $1188 $1182 $3 $-1 $1236 reversed single #
plane-surface $-1 -132 0 -274 1 0 0 0 0 -1 forward_v I I I I #
straight-curve $-1 132 0 -142 0 1 0 I I #
plane-surface $-1 132 0 -274 -1 0 0 0 0 1 forward_v I I I I #
plane-surface $-1 0 0 -142 0 0 1 1 0 0 forward_v I I I I #
coedge $-1 $1141 $1140 $1237 $1238 0 $993 $-1 #
coedge $-1 $1171 $1170 $1140 $1201 1 $1172 $-1 #
edge $-1 $1205 $1239 $1140 $1240 forward #
coedge $-1 $1166 $1165 $1141 $1203 1 $1167 $-1 #
edge $-1 $1241 $1204 $1141 $1242 forward #
vertex $-1 $1143 $1243 #
vertex $-1 $1143 $1244 #
straight-curve $-1 -274 132 -406 1 0 0 I I #
coedge $-1 $1181 $1180 $1144 $1208 1 $1182 $-1 #
edge $-1 $1209 $1211 $1144 $1245 forward #
vertex $-1 $1208 $1246 #
straight-curve $-1 -142 132 -137 0 0 1 I I #
vertex $-1 $1208 $1247 #
straight-curve $-1 -406 132 -137 0 0 -1 I I #
point $-1 -406 132 -406 #
point $-1 -142 132 -406 #
straight-curve $-1 0 132 -142 -1 0 0 I I #
point $-1 132 132 -142 #
point $-1 -132 132 -142 #
coedge $-1 $1237 $1163 $1166 $1222 1 $1220 $-1 #
coedge $-1 $1163 $1237 $1170 $1225 1 $1220 $-1 #
loop $-1 $-1 $1163 $1232 #
straight-curve $-1 -274 -132 -142 1 0 0 I I #
edge $-1 $1241 $1168 $1166 $1248 forward #
face $-1 $430 $1167 $3 $-1 $1249 forward single #
point $-1 -680 -132 -142 #
edge $-1 $1173 $1239 $1170 $1250 forward #
face $-1 $1177 $1172 $3 $-1 $1251 forward single #
point $-1 -416 -132 -142 #
straight-curve $-1 -416 0 -406 0 -1 0 I I #
straight-curve $-1 -680 0 -406 0 1 0 I I #
plane-surface $-1 -548 0 -406 0 0 1 1 0 0 forward_v I I I I #
straight-curve $-1 -406 0 -142 0 -1 0 I I #
face $-1 $1226 $1220 $3 $-1 $1252 reversed single #
plane-surface $-1 -406 0 -274 1 0 0 0 0 -1 forward_v I I I I #
straight-curve $-1 -142 0 -142 0 1 0 I I #
plane-surface $-1 -142 0 -274 -1 0 0 0 0 1 forward_v I I I I #
plane-surface $-1 -274 0 -142 0 0 1 1 0 0 forward_v I I I I #
coedge $-1 $1219 $1218 $1199 $1238 1 $1220 $-1 #
edge $-1 $1239 $1241 $1199 $1253 forward #
vertex $-1 $1238 $1254 #
straight-curve $-1 -416 132 -137 0 0 1 I I #
vertex $-1 $1238 $1255 #
straight-curve $-1 -680 132 -137 0 0 -1 I I #
point $-1 -680 132 -406 #
point $-1 -416 132 -406 #
straight-curve $-1 -137 132 -142 -1 0 0 I I #
point $-1 -142 132 -142 #
point $-1 -406 132 -142 #
straight-curve $-1 -680 0 -142 0 -1 0 I I #
plane-surface $-1 -680 0 -274 1 0 0 0 0 -1 forward_v I I I I #
straight-curve $-1 -416 0 -142 0 1 0 I I #
plane-surface $-1 -416 0 -274 -1 0 0 0 0 1 forward_v I I I I #
plane-surface $-1 -548 0 -142 0 0 1 1 0 0 forward_v I I I I #
straight-curve $-1 -274 132 -142 -1 0 0 I I #
point $-1 -416 132 -142 #
point $-1 -680 132 -142 #
End-of-ACIS-data 