201 0 1 0           
7 Unknown 12 ACIS 2.1 SGI 24 Wed Jan 21 15:23:29 1998 
-1 9.9999999999999995e-07 1e-10 
body $-1 $1 $-1 $2 #
lump $-1 $-1 $3 $0 #
transform $-1 1 0 0 0 1 0 0 0 1 0 0 -5 1 no_rotate no_reflect no_shear #
shell $-1 $-1 $-1 $4 $-1 $1 #
face $-1 $5 $6 $3 $-1 $7 forward single #
face $-1 $8 $9 $3 $-1 $10 reversed single #
loop $-1 $-1 $11 $4 #
plane-surface $-1 0 0 5 0 0 1 1 0 0 forward_v I I I I #
face $-1 $12 $13 $3 $-1 $14 reversed single #
loop $-1 $-1 $15 $5 #
plane-surface $-1 0 0 -5 0 0 1 1 0 0 forward_v I I I I #
coedge $-1 $16 $17 $18 $19 0 $6 $-1 #
face $-1 $20 $21 $3 $-1 $22 reversed single #
loop $-1 $-1 $23 $8 #
plane-surface $-1 0 -250 0 0 1 0 0 0 1 forward_v I I I I #
coedge $-1 $24 $25 $26 $27 0 $9 $-1 #
coedge $-1 $28 $11 $29 $30 0 $6 $-1 #
coedge $-1 $11 $28 $31 $32 0 $6 $-1 #
coedge $-1 $33 $34 $11 $19 1 $35 $-1 #
edge $-1 $36 $37 $18 $38 forward #
face $-1 $39 $40 $3 $-1 $41 reversed single #
loop $-1 $-1 $42 $12 #
plane-surface $-1 -1107.6007199999999 0 0 1 0 0 0 0 -1 forward_v I I I I #
coedge $-1 $43 $31 $44 $45 0 $13 $-1 #
coedge $-1 $46 $15 $43 $47 0 $9 $-1 #
coedge $-1 $15 $46 $48 $49 0 $9 $-1 #
coedge $-1 $34 $33 $15 $27 1 $35 $-1 #
edge $-1 $50 $51 $26 $52 forward #
coedge $-1 $17 $16 $53 $54 0 $6 $-1 #
coedge $-1 $55 $56 $16 $30 1 $40 $-1 #
edge $-1 $37 $57 $29 $58 forward #
coedge $-1 $23 $59 $17 $32 1 $13 $-1 #
edge $-1 $60 $36 $31 $61 forward #
coedge $-1 $26 $18 $59 $62 0 $35 $-1 #
coedge $-1 $18 $26 $55 $63 1 $35 $-1 #
loop $-1 $-1 $33 $39 #
vertex $-1 $19 $64 #
vertex $-1 $19 $65 #
straight-curve $-1 1107.6007199999999 0 5 0 1 0 I I #
face $-1 $-1 $35 $3 $-1 $66 reversed single #
loop $-1 $-1 $55 $20 #
plane-surface $-1 0 250 0 0 -1 0 0 0 -1 forward_v I I I I #
coedge $-1 $67 $53 $56 $68 0 $21 $-1 #
coedge $-1 $59 $23 $24 $47 1 $13 $-1 #
coedge $-1 $53 $67 $23 $45 1 $21 $-1 #
edge $-1 $60 $69 $44 $70 forward #
coedge $-1 $25 $24 $67 $71 0 $9 $-1 #
edge $-1 $51 $69 $43 $72 forward #
coedge $-1 $56 $55 $25 $49 1 $40 $-1 #
edge $-1 $73 $50 $48 $74 forward #
vertex $-1 $27 $75 #
vertex $-1 $62 $76 #
straight-curve $-1 1107.6007199999999 0 -5 0 -1 0 I I #
coedge $-1 $42 $44 $28 $54 1 $21 $-1 #
edge $-1 $57 $60 $53 $77 forward #
coedge $-1 $48 $29 $34 $63 0 $40 $-1 #
coedge $-1 $29 $48 $42 $68 1 $40 $-1 #
vertex $-1 $30 $78 #
straight-curve $-1 0 250 5 -1 0 0 I I #
coedge $-1 $31 $43 $33 $62 1 $13 $-1 #
vertex $-1 $54 $79 #
straight-curve $-1 0 -250 5 1 0 0 I I #
edge $-1 $36 $51 $33 $80 forward #
edge $-1 $37 $50 $34 $81 forward #
point $-1 1107.6007199999999 -250 5 #
point $-1 1107.6007199999999 250 5 #
plane-surface $-1 1107.6007199999999 0 0 -1 0 0 0 0 1 forward_v I I I I #
coedge $-1 $44 $42 $46 $71 1 $21 $-1 #
edge $-1 $57 $73 $56 $82 forward #
vertex $-1 $71 $83 #
straight-curve $-1 -1107.6007199999999 -250 0 0 0 -1 I I #
edge $-1 $69 $73 $67 $84 forward #
straight-curve $-1 0 -250 -5 -1 0 0 I I #
vertex $-1 $49 $85 #
straight-curve $-1 0 250 -5 1 0 0 I I #
point $-1 1107.6007199999999 250 -5 #
point $-1 1107.6007199999999 -250 -5 #
straight-curve $-1 -1107.6007199999999 0 5 0 -1 0 I I #
point $-1 -1107.6007199999999 250 5 #
point $-1 -1107.6007199999999 -250 5 #
straight-curve $-1 1107.6007199999999 -250 0 0 0 -1 I I #
straight-curve $-1 1107.6007199999999 250 0 0 0 -1 I I #
straight-curve $-1 -1107.6007199999999 250 0 0 0 -1 I I #
point $-1 -1107.6007199999999 -250 -5 #
straight-curve $-1 -1107.6007199999999 0 -5 0 1 0 I I #
point $-1 -1107.6007199999999 250 -5 #
End-of-ACIS-data 