700 0 2 0           
24 FBMach with ACIS - 7.0.3 13 ACIS 7.0.3 NT 24 Mon May 13 17:07:20 2002 
1 9.9999999999999995e-007 1e-010 
body $2 -1 $-1 $3 $-1 $4 #
bdycol-kcp $-1 -1 1 4 $5 $6 $7 $8 #
model_id-kcp-attrib $-1 -1 $-1 $-1 $0 1 1021324040 1021324040 1369505793 1 #
lump $-1 -1 $-1 $-1 $9 $0 #
transform $-1 -1 1 0 0 0 1 0 0 0 1 0 0 0 1 rotate no_reflect no_shear #
body $10 -1 $-1 $11 $-1 $12 #
body $13 -1 $-1 $14 $-1 $15 #
body $16 -1 $-1 $17 $-1 $18 #
body $19 -1 $-1 $20 $-1 $21 #
shell $-1 -1 $-1 $-1 $-1 $22 $-1 $3 #
rgb_color-st-attrib $-1 -1 $23 $-1 $5 0.5 1 1 #
lump $-1 -1 $-1 $-1 $24 $5 #
transform $-1 -1 1 0 0 0 1 0 0 0 1 0 0 0 1 no_rotate no_reflect no_shear #
rgb_color-st-attrib $-1 -1 $25 $-1 $6 0.5 1 1 #
lump $-1 -1 $-1 $-1 $26 $6 #
transform $-1 -1 1 0 0 0 1 0 0 0 1 0 0 0 1 no_rotate no_reflect no_shear #
rgb_color-st-attrib $-1 -1 $27 $-1 $7 0.5 1 1 #
lump $-1 -1 $-1 $-1 $28 $7 #
transform $-1 -1 1 0 0 0 1 0 0 0 1 0 0 0 1 no_rotate no_reflect no_shear #
model_id-kcp-attrib $-1 -1 $-1 $-1 $8 1 1021324040 1021324040 1369505794 1 #
lump $-1 -1 $-1 $-1 $29 $8 #
transform $-1 -1 1 0 0 0 1 0 0 0 1 123.00059999999996 123.00059999999998 379.00179999999989 1 no_rotate no_reflect no_shear #
face $30 -1 $-1 $31 $32 $9 $-1 $33 reversed single #
model_id-kcp-attrib $-1 -1 $-1 $10 $5 1 1021324040 1021324040 1363869699 1 #
shell $-1 -1 $-1 $-1 $-1 $34 $-1 $11 #
model_id-kcp-attrib $-1 -1 $-1 $13 $6 1 1021324040 1021324040 1365180420 1 #
shell $-1 -1 $-1 $-1 $-1 $35 $-1 $14 #
model_id-kcp-attrib $-1 -1 $-1 $16 $7 1 1021324040 1021324040 1367146501 1 #
shell $-1 -1 $-1 $-1 $-1 $36 $-1 $17 #
shell $-1 -1 $-1 $-1 $-1 $37 $-1 $20 #
model_id-kcp-attrib $-1 -1 $-1 $-1 $22 1 1021324040 1021324040 1369505793 2 #
face $38 -1 $-1 $39 $40 $9 $-1 $41 forward single #
loop $-1 -1 $-1 $-1 $42 $22 #
plane-surface $-1 -1 $-1 123.00059999999998 123.00059999999998 758.00359999999989 0 0 1 1 0 0 forward_v I I I I #
face $-1 -1 $-1 $43 $44 $24 $-1 $45 forward single #
face $-1 -1 $-1 $46 $47 $26 $-1 $48 forward single #
face $-1 -1 $-1 $49 $50 $28 $-1 $51 forward single #
face $52 -1 $-1 $53 $54 $29 $-1 $55 forward single #
model_id-kcp-attrib $-1 -1 $-1 $-1 $31 1 1021324040 1021324040 1369505793 3 #
face $56 -1 $-1 $57 $58 $9 $-1 $59 forward single #
loop $-1 -1 $-1 $-1 $60 $31 #
plane-surface $-1 -1 $-1 246.00119999999995 123.00059999999998 635.00299999999993 -1 0 0 0 0 1 forward_v I I I I #
coedge $-1 -1 $-1 $61 $62 $63 $64 reversed $32 $-1 #
face $-1 -1 $-1 $65 $66 $24 $-1 $67 forward single #
loop $-1 -1 $-1 $-1 $68 $34 #
plane-surface $-1 -1 $-1 246.00119999999995 0 512.00239999999997 1 0 0 0 0 -1 forward_v I I I I #
face $-1 -1 $-1 $69 $70 $26 $-1 $71 forward single #
loop $-1 -1 $-1 $-1 $72 $35 #
plane-surface $-1 -1 $-1 246.00119999999995 0 256.00119999999998 1 0 0 0 0 -1 forward_v I I I I #
face $-1 -1 $-1 $73 $74 $28 $-1 $75 forward single #
loop $-1 -1 $-1 $-1 $76 $36 #
plane-surface $-1 -1 $-1 246.00119999999995 0 0 1 0 0 0 0 -1 forward_v I I I I #
model_id-kcp-attrib $-1 -1 $-1 $-1 $37 1 1021324040 1021324040 1369505794 2 #
face $77 -1 $-1 $78 $79 $29 $-1 $80 reversed single #
loop $-1 -1 $-1 $-1 $81 $37 #
plane-surface $-1 -1 $-1 0 0 389.00179999999989 0 0 1 1 0 0 forward_v I I I I #
model_id-kcp-attrib $-1 -1 $-1 $-1 $39 1 1021324040 1021324040 1369505793 4 #
face $82 -1 $-1 $83 $84 $9 $-1 $85 forward single #
loop $-1 -1 $-1 $-1 $86 $39 #
plane-surface $-1 -1 $-1 123.00059999999998 123.00059999999998 512.00239999999997 0 0 1 1 0 0 forward_v I I I I #
coedge $-1 -1 $-1 $87 $88 $89 $90 reversed $40 $-1 #
coedge $-1 -1 $-1 $91 $42 $92 $93 reversed $32 $-1 #
coedge $-1 -1 $-1 $42 $91 $87 $94 reversed $32 $-1 #
coedge $-1 -1 $-1 $89 $95 $42 $64 forward $96 $-1 #
edge $97 -1 $-1 $98 -123.00059999999996 $99 123.00059999999999 $63 $100 forward @7 unknown #
face $-1 -1 $-1 $101 $102 $24 $-1 $103 forward single #
loop $-1 -1 $-1 $-1 $104 $43 #
plane-surface $-1 -1 $-1 246.00119999999995 0 758.00359999999989 0 0 1 1 0 0 forward_v I I I I #
coedge $-1 -1 $-1 $105 $106 $107 $108 forward $44 $-1 #
face $-1 -1 $-1 $109 $110 $26 $-1 $111 forward single #
loop $-1 -1 $-1 $-1 $112 $46 #
plane-surface $-1 -1 $-1 246.00119999999995 0 502.00239999999991 0 0 1 1 0 0 forward_v I I I I #
coedge $-1 -1 $-1 $113 $114 $115 $116 forward $47 $-1 #
face $-1 -1 $-1 $117 $118 $28 $-1 $119 forward single #
loop $-1 -1 $-1 $-1 $120 $49 #
plane-surface $-1 -1 $-1 246.00119999999995 0 246.00119999999993 0 0 1 1 0 0 forward_v I I I I #
coedge $-1 -1 $-1 $121 $122 $123 $124 forward $50 $-1 #
model_id-kcp-attrib $-1 -1 $-1 $-1 $53 1 1021324040 1021324040 1369505794 3 #
face $125 -1 $-1 $126 $127 $29 $-1 $128 reversed single #
loop $-1 -1 $-1 $-1 $129 $53 #
plane-surface $-1 -1 $-1 0 0 -389.00179999999989 0 0 1 1 0 0 forward_v I I I I #
coedge $-1 -1 $-1 $130 $131 $132 $133 forward $54 $-1 #
model_id-kcp-attrib $-1 -1 $-1 $-1 $57 1 1021324040 1021324040 1369505793 5 #
face $134 -1 $-1 $135 $136 $9 $-1 $137 reversed single #
loop $-1 -1 $-1 $-1 $138 $57 #
plane-surface $-1 -1 $-1 0 123.00059999999998 635.00299999999993 1 0 0 0 0 -1 forward_v I I I I #
coedge $-1 -1 $-1 $139 $140 $141 $142 reversed $58 $-1 #
coedge $-1 -1 $-1 $143 $60 $62 $94 forward $40 $-1 #
coedge $-1 -1 $-1 $60 $143 $139 $144 forward $40 $-1 #
coedge $-1 -1 $-1 $141 $63 $60 $90 forward $96 $-1 #
edge $145 -1 $-1 $99 -251.00119999999998 $146 -5.0000000000000568 $89 $147 forward @7 unknown #
coedge $-1 -1 $-1 $62 $61 $148 $149 reversed $32 $-1 #
coedge $-1 -1 $-1 $138 $150 $61 $93 forward $84 $-1 #
edge $-1 -1 $-1 $151 -123.00059999999998 $98 123.00059999999998 $92 $152 forward @7 unknown #
edge $-1 -1 $-1 $99 -123.00059999999998 $153 123.00059999999998 $87 $154 forward @7 unknown #
coedge $-1 -1 $-1 $63 $141 $138 $155 forward $96 $-1 #
loop $-1 -1 $-1 $156 $141 $157 #
attrib_edge_convexity-kcp-attrib $-1 -1 $158 $-1 $64 1 #
vertex $-1 -1 $-1 $64 $159 #
vertex $-1 -1 $-1 $64 $160 #
straight-curve $-1 -1 $-1 123.00059999999996 0 758.00359999999989 1 0 0 I I #
face $-1 -1 $-1 $161 $162 $24 $-1 $163 forward single #
loop $-1 -1 $-1 $-1 $164 $65 #
plane-surface $-1 -1 $-1 0 0 758.00359999999989 -1 0 0 0 0 1 forward_v I I I I #
coedge $-1 -1 $-1 $165 $166 $167 $168 forward $66 $-1 #
coedge $-1 -1 $-1 $169 $68 $166 $170 reversed $44 $-1 #
coedge $-1 -1 $-1 $68 $169 $171 $172 forward $44 $-1 #
coedge $-1 -1 $-1 $173 $167 $68 $108 reversed $174 $-1 #
edge $-1 -1 $-1 $175 5.0000000000000568 $176 251.00119999999998 $68 $177 forward @7 unknown #
face $-1 -1 $-1 $178 $179 $26 $-1 $180 forward single #
loop $-1 -1 $-1 $-1 $181 $69 #
plane-surface $-1 -1 $-1 0 0 502.00239999999991 -1 0 0 0 0 1 forward_v I I I I #
coedge $-1 -1 $-1 $182 $183 $184 $185 forward $70 $-1 #
coedge $-1 -1 $-1 $186 $72 $183 $187 reversed $47 $-1 #
coedge $-1 -1 $-1 $72 $186 $188 $189 forward $47 $-1 #
coedge $-1 -1 $-1 $190 $184 $72 $116 reversed $191 $-1 #
edge $-1 -1 $-1 $192 -123.00059999999991 $193 123.00060000000002 $72 $194 forward @7 unknown #
face $-1 -1 $-1 $195 $196 $28 $-1 $197 forward single #
loop $-1 -1 $-1 $-1 $198 $73 #
plane-surface $-1 -1 $-1 0 0 246.00119999999993 -1 0 0 0 0 1 forward_v I I I I #
coedge $-1 -1 $-1 $199 $200 $201 $202 forward $74 $-1 #
coedge $-1 -1 $-1 $203 $76 $200 $204 reversed $50 $-1 #
coedge $-1 -1 $-1 $76 $203 $205 $206 forward $50 $-1 #
coedge $-1 -1 $-1 $207 $201 $76 $124 reversed $208 $-1 #
edge $-1 -1 $-1 $209 -251.00119999999993 $210 -5 $76 $211 forward @7 unknown #
model_id-kcp-attrib $-1 -1 $-1 $-1 $78 1 1021324040 1021324040 1369505794 4 #
face $212 -1 $-1 $213 $214 $29 $-1 $215 reversed single #
loop $-1 -1 $-1 $-1 $216 $78 #
plane-surface $-1 -1 $-1 0 -123.00059999999998 0 0 1 0 0 0 1 forward_v I I I I #
coedge $-1 -1 $-1 $217 $218 $219 $220 forward $79 $-1 #
coedge $-1 -1 $-1 $221 $81 $222 $223 forward $54 $-1 #
coedge $-1 -1 $-1 $81 $221 $224 $225 forward $54 $-1 #
coedge $-1 -1 $-1 $226 $227 $81 $133 reversed $228 $-1 #
edge $-1 -1 $-1 $229 -123.00059999999998 $230 123.00059999999998 $132 $231 forward @7 unknown #
model_id-kcp-attrib $-1 -1 $-1 $-1 $83 1 1021324040 1021324040 1369505793 6 #
face $232 -1 $-1 $233 $234 $9 $-1 $235 forward single #
loop $-1 -1 $-1 $-1 $236 $83 #
plane-surface $-1 -1 $-1 123.00059999999998 123.00059999999998 502.00239999999991 0 0 1 1 0 0 forward_v I I I I #
coedge $-1 -1 $-1 $237 $92 $95 $155 reversed $84 $-1 #
coedge $-1 -1 $-1 $238 $86 $88 $144 reversed $58 $-1 #
coedge $-1 -1 $-1 $86 $238 $237 $239 reversed $58 $-1 #
coedge $-1 -1 $-1 $95 $89 $86 $142 forward $96 $-1 #
edge $240 -1 $-1 $146 -123.00059999999999 $241 123.00059999999996 $141 $242 forward @7 unknown #
coedge $-1 -1 $-1 $88 $87 $243 $244 reversed $40 $-1 #
edge $-1 -1 $-1 $245 -123.00059999999998 $146 123.00059999999998 $88 $246 forward @7 unknown #
attrib_edge_convexity-kcp-attrib $-1 -1 $247 $-1 $90 1 #
vertex $-1 -1 $-1 $142 $248 #
straight-curve $-1 -1 $-1 246.00119999999995 0 507.00239999999991 0 0 -1 I I #
coedge $-1 -1 $-1 $249 $243 $91 $149 forward $250 $-1 #
edge $-1 -1 $-1 $153 -123.00059999999999 $151 123.00059999999996 $148 $251 forward @7 unknown #
coedge $-1 -1 $-1 $92 $237 $249 $252 reversed $84 $-1 #
vertex $-1 -1 $-1 $149 $253 #
straight-curve $-1 -1 $-1 0 123.00059999999998 758.00359999999989 0 -1 0 I I #
vertex $-1 -1 $-1 $149 $254 #
straight-curve $-1 -1 $-1 246.00119999999995 123.00059999999998 758.00359999999989 0 1 0 I I #
edge $255 -1 $-1 $241 5.0000000000000568 $98 251.00119999999998 $95 $256 forward @7 unknown #
loop $-1 -1 $-1 $257 $258 $157 #
face $259 -1 $-1 $260 $96 $9 $-1 $261 reversed single #
convexity-sys-attrib $-1 -1 $-1 $97 $64 #
point $-1 -1 $-1 0 0 758.00359999999989 #
point $-1 -1 $-1 246.00119999999995 0 758.00359999999989 #
face $-1 -1 $-1 $262 $174 $24 $-1 $263 forward single #
loop $-1 -1 $-1 $-1 $264 $101 #
plane-surface $-1 -1 $-1 0 0 512.00239999999997 0 0 -1 -1 0 0 forward_v I I I I #
coedge $-1 -1 $-1 $265 $266 $267 $268 forward $102 $-1 #
coedge $-1 -1 $-1 $269 $104 $266 $270 reversed $66 $-1 #
coedge $-1 -1 $-1 $104 $269 $105 $170 forward $66 $-1 #
coedge $-1 -1 $-1 $107 $267 $104 $168 reversed $174 $-1 #
edge $-1 -1 $-1 $176 -123.00059999999999 $271 123.00059999999996 $104 $272 forward @7 unknown #
coedge $-1 -1 $-1 $106 $105 $273 $274 forward $44 $-1 #
edge $-1 -1 $-1 $275 0 $176 246.00119999999995 $166 $276 forward @7 unknown #
coedge $-1 -1 $-1 $277 $264 $106 $172 reversed $162 $-1 #
edge $-1 -1 $-1 $278 0 $175 246.00119999999995 $106 $279 forward @7 unknown #
coedge $-1 -1 $-1 $267 $107 $264 $280 reversed $174 $-1 #
loop $-1 -1 $-1 $-1 $107 $161 #
vertex $-1 -1 $-1 $172 $281 #
vertex $-1 -1 $-1 $170 $282 #
straight-curve $-1 -1 $-1 246.00119999999995 246.00119999999995 507.00239999999991 0 0 1 I I #
face $-1 -1 $-1 $283 $191 $26 $-1 $284 forward single #
loop $-1 -1 $-1 $-1 $285 $109 #
plane-surface $-1 -1 $-1 0 0 256.00119999999998 0 0 -1 -1 0 0 forward_v I I I I #
coedge $-1 -1 $-1 $286 $287 $288 $289 forward $110 $-1 #
coedge $-1 -1 $-1 $290 $112 $287 $291 reversed $70 $-1 #
coedge $-1 -1 $-1 $112 $290 $113 $187 forward $70 $-1 #
coedge $-1 -1 $-1 $115 $288 $112 $185 reversed $191 $-1 #
edge $-1 -1 $-1 $193 -123.00059999999999 $292 123.00059999999996 $112 $293 forward @7 unknown #
coedge $-1 -1 $-1 $114 $113 $294 $295 forward $47 $-1 #
edge $-1 -1 $-1 $296 0 $193 246.00119999999995 $183 $297 forward @7 unknown #
coedge $-1 -1 $-1 $298 $285 $114 $189 reversed $179 $-1 #
edge $-1 -1 $-1 $299 0 $192 246.00119999999995 $114 $300 forward @7 unknown #
coedge $-1 -1 $-1 $288 $115 $285 $301 reversed $191 $-1 #
loop $-1 -1 $-1 $-1 $115 $178 #
vertex $-1 -1 $-1 $189 $302 #
vertex $-1 -1 $-1 $187 $303 #
straight-curve $-1 -1 $-1 246.00119999999995 246.00119999999995 379.00179999999989 0 0 1 I I #
face $-1 -1 $-1 $304 $208 $28 $-1 $305 forward single #
loop $-1 -1 $-1 $-1 $306 $117 #
plane-surface $-1 -1 $-1 0 0 0 0 0 -1 -1 0 0 forward_v I I I I #
coedge $-1 -1 $-1 $307 $308 $309 $310 forward $118 $-1 #
coedge $-1 -1 $-1 $311 $120 $308 $312 reversed $74 $-1 #
coedge $-1 -1 $-1 $120 $311 $121 $204 forward $74 $-1 #
coedge $-1 -1 $-1 $123 $309 $120 $202 reversed $208 $-1 #
edge $-1 -1 $-1 $210 -123.00059999999999 $313 123.00059999999996 $120 $314 forward @7 unknown #
coedge $-1 -1 $-1 $122 $121 $315 $316 forward $50 $-1 #
edge $-1 -1 $-1 $317 0 $210 246.00119999999995 $200 $318 forward @7 unknown #
coedge $-1 -1 $-1 $319 $306 $122 $206 reversed $196 $-1 #
edge $-1 -1 $-1 $320 0 $209 246.00119999999995 $122 $321 forward @7 unknown #
coedge $-1 -1 $-1 $309 $123 $306 $322 reversed $208 $-1 #
loop $-1 -1 $-1 $-1 $123 $195 #
vertex $-1 -1 $-1 $206 $323 #
vertex $-1 -1 $-1 $204 $324 #
straight-curve $-1 -1 $-1 246.00119999999995 246.00119999999995 251.00119999999993 0 0 1 I I #
model_id-kcp-attrib $-1 -1 $-1 $-1 $126 1 1021324040 1021324040 1369505794 5 #
face $325 -1 $-1 $326 $327 $29 $-1 $328 reversed single #
loop $-1 -1 $-1 $-1 $329 $126 #
plane-surface $-1 -1 $-1 -133.00059999999996 0 0 1 0 0 0 0 -1 forward_v I I I I #
coedge $-1 -1 $-1 $330 $224 $331 $332 forward $127 $-1 #
coedge $-1 -1 $-1 $333 $129 $330 $334 forward $79 $-1 #
coedge $-1 -1 $-1 $129 $333 $335 $336 forward $79 $-1 #
coedge $-1 -1 $-1 $227 $226 $129 $220 reversed $228 $-1 #
edge $-1 -1 $-1 $337 -123.00059999999998 $338 123.00059999999998 $219 $339 forward @7 unknown #
coedge $-1 -1 $-1 $131 $130 $340 $341 forward $54 $-1 #
coedge $-1 -1 $-1 $342 $343 $130 $223 reversed $327 $-1 #
edge $-1 -1 $-1 $230 -133.00059999999996 $344 133.00059999999996 $222 $345 forward @7 unknown #
coedge $-1 -1 $-1 $216 $346 $131 $225 reversed $127 $-1 #
edge $-1 -1 $-1 $347 -133.00059999999996 $229 133.00059999999996 $224 $348 forward @7 unknown #
coedge $-1 -1 $-1 $219 $132 $346 $349 forward $228 $-1 #
coedge $-1 -1 $-1 $132 $219 $342 $350 reversed $228 $-1 #
loop $-1 -1 $-1 $-1 $226 $326 #
vertex $-1 -1 $-1 $133 $351 #
vertex $-1 -1 $-1 $133 $352 #
straight-curve $-1 -1 $-1 133.00059999999996 0 389.00179999999989 0 1 0 I I #
model_id-kcp-attrib $-1 -1 $-1 $-1 $135 1 1021324040 1021324040 1369505793 7 #
face $353 -1 $-1 $354 $355 $9 $-1 $356 forward single #
loop $-1 -1 $-1 $-1 $357 $135 #
plane-surface $-1 -1 $-1 246.00119999999995 123.00059999999998 379.00179999999995 -1 0 0 0 0 1 forward_v I I I I #
coedge $-1 -1 $-1 $358 $359 $360 $361 reversed $136 $-1 #
coedge $-1 -1 $-1 $150 $138 $140 $239 forward $84 $-1 #
coedge $-1 -1 $-1 $140 $139 $362 $363 reversed $58 $-1 #
edge $-1 -1 $-1 $241 -123.00059999999998 $364 123.00059999999998 $237 $365 forward @7 unknown #
attrib_edge_convexity-kcp-attrib $-1 -1 $366 $-1 $142 1 #
vertex $-1 -1 $-1 $142 $367 #
straight-curve $-1 -1 $-1 123.00059999999996 0 512.00239999999997 -1 0 0 I I #
coedge $-1 -1 $-1 $148 $362 $143 $244 forward $250 $-1 #
edge $-1 -1 $-1 $245 5.0000000000000568 $153 251.00119999999998 $243 $368 forward @7 unknown #
vertex $-1 -1 $-1 $363 $369 #
straight-curve $-1 -1 $-1 246.00119999999995 123.00059999999998 512.00239999999997 0 -1 0 I I #
convexity-sys-attrib $-1 -1 $-1 $145 $90 #
point $-1 -1 $-1 246.00119999999995 0 512.00239999999997 #
coedge $-1 -1 $-1 $362 $148 $150 $252 forward $250 $-1 #
loop $-1 -1 $-1 $370 $362 $371 #
straight-curve $-1 -1 $-1 123.00059999999996 246.00119999999995 758.00359999999989 -1 0 0 I I #
edge $-1 -1 $-1 $151 -251.00119999999998 $364 -5.0000000000000568 $249 $372 forward @7 unknown #
point $-1 -1 $-1 0 246.00119999999995 758.00359999999989 #
point $-1 -1 $-1 246.00119999999995 246.00119999999995 758.00359999999989 #
attrib_edge_convexity-kcp-attrib $-1 -1 $373 $-1 $155 1 #
straight-curve $-1 -1 $-1 0 0 507.00239999999991 0 0 1 I I #
loop $-1 -1 $-1 $374 $375 $157 #
coedge $-1 -1 $-1 $376 $377 $378 $379 forward $156 $-1 #
model_id-kcp-attrib $-1 -1 $-1 $-1 $157 1 1021324040 1021324040 1369505793 16 #
face $380 -1 $-1 $371 $381 $9 $-1 $382 reversed single #
plane-surface $-1 -1 $-1 123.00059999999996 0 379.00179999999989 0 1 0 0 0 1 forward_v I I I I #
face $-1 -1 $-1 $-1 $383 $24 $-1 $384 reversed single #
plane-surface $-1 -1 $-1 123.00059999999999 246.00119999999995 635.00299999999993 0 1 0 0 0 1 forward_v I I I I #
coedge $-1 -1 $-1 $171 $385 $173 $280 forward $162 $-1 #
coedge $-1 -1 $-1 $386 $164 $385 $387 reversed $102 $-1 #
coedge $-1 -1 $-1 $164 $386 $165 $270 forward $102 $-1 #
coedge $-1 -1 $-1 $167 $173 $164 $268 reversed $174 $-1 #
edge $-1 -1 $-1 $271 -251.00119999999998 $388 -5.0000000000000568 $164 $389 forward @7 unknown #
coedge $-1 -1 $-1 $166 $165 $390 $391 forward $66 $-1 #
edge $-1 -1 $-1 $392 0 $271 246.00119999999995 $266 $393 forward @7 unknown #
vertex $-1 -1 $-1 $270 $394 #
straight-curve $-1 -1 $-1 123.00059999999996 246.00119999999995 758.00359999999989 -1 0 0 I I #
coedge $-1 -1 $-1 $390 $395 $169 $274 reversed $383 $-1 #
edge $-1 -1 $-1 $275 -251.00119999999998 $278 -5.0000000000000568 $169 $396 forward @7 unknown #
vertex $-1 -1 $-1 $391 $397 #
straight-curve $-1 -1 $-1 246.00119999999995 0 758.00359999999989 0 1 0 I I #
coedge $-1 -1 $-1 $385 $171 $395 $398 forward $162 $-1 #
vertex $-1 -1 $-1 $398 $399 #
straight-curve $-1 -1 $-1 246.00119999999995 0 512.00239999999997 0 1 0 I I #
edge $-1 -1 $-1 $388 -123.00059999999996 $175 123.00059999999999 $264 $400 forward @7 unknown #
point $-1 -1 $-1 246.00119999999995 246.00119999999995 512.00239999999997 #
point $-1 -1 $-1 246.00119999999995 246.00119999999995 758.00359999999989 #
face $-1 -1 $-1 $-1 $401 $26 $-1 $402 reversed single #
plane-surface $-1 -1 $-1 123.00059999999999 246.00119999999995 379.0018 0 1 0 0 0 1 forward_v I I I I #
coedge $-1 -1 $-1 $188 $403 $190 $301 forward $179 $-1 #
coedge $-1 -1 $-1 $404 $181 $403 $405 reversed $110 $-1 #
coedge $-1 -1 $-1 $181 $404 $182 $291 forward $110 $-1 #
coedge $-1 -1 $-1 $184 $190 $181 $289 reversed $191 $-1 #
edge $-1 -1 $-1 $292 -123.00060000000002 $406 123.00059999999991 $181 $407 forward @7 unknown #
coedge $-1 -1 $-1 $183 $182 $408 $409 forward $70 $-1 #
edge $-1 -1 $-1 $410 0 $292 246.00119999999995 $287 $411 forward @7 unknown #
vertex $-1 -1 $-1 $291 $412 #
straight-curve $-1 -1 $-1 123.00059999999996 246.00119999999995 502.00239999999991 -1 0 0 I I #
coedge $-1 -1 $-1 $408 $413 $186 $295 reversed $401 $-1 #
edge $-1 -1 $-1 $296 -123.00060000000002 $299 123.00059999999991 $186 $414 forward @7 unknown #
vertex $-1 -1 $-1 $409 $415 #
straight-curve $-1 -1 $-1 246.00119999999995 0 502.00239999999991 0 1 0 I I #
coedge $-1 -1 $-1 $403 $188 $413 $416 forward $179 $-1 #
vertex $-1 -1 $-1 $416 $417 #
straight-curve $-1 -1 $-1 246.00119999999995 0 256.00119999999998 0 1 0 I I #
edge $-1 -1 $-1 $406 -123.00059999999996 $192 123.00059999999999 $285 $418 forward @7 unknown #
point $-1 -1 $-1 246.00119999999995 246.00119999999995 256.00119999999998 #
point $-1 -1 $-1 246.00119999999995 246.00119999999995 502.00239999999991 #
face $-1 -1 $-1 $-1 $419 $28 $-1 $420 reversed single #
plane-surface $-1 -1 $-1 123.00059999999999 246.00119999999995 123.00059999999996 0 1 0 0 0 1 forward_v I I I I #
coedge $-1 -1 $-1 $205 $421 $207 $322 forward $196 $-1 #
coedge $-1 -1 $-1 $422 $198 $421 $423 reversed $118 $-1 #
coedge $-1 -1 $-1 $198 $422 $199 $312 forward $118 $-1 #
coedge $-1 -1 $-1 $201 $207 $198 $310 reversed $208 $-1 #
edge $-1 -1 $-1 $313 5 $424 251.00119999999993 $198 $425 forward @7 unknown #
coedge $-1 -1 $-1 $200 $199 $426 $427 forward $74 $-1 #
edge $-1 -1 $-1 $428 0 $313 246.00119999999995 $308 $429 forward @7 unknown #
vertex $-1 -1 $-1 $312 $430 #
straight-curve $-1 -1 $-1 123.00059999999996 246.00119999999995 246.00119999999993 -1 0 0 I I #
coedge $-1 -1 $-1 $426 $431 $203 $316 reversed $419 $-1 #
edge $-1 -1 $-1 $317 5 $320 251.00119999999993 $203 $432 forward @7 unknown #
vertex $-1 -1 $-1 $427 $433 #
straight-curve $-1 -1 $-1 246.00119999999995 0 246.00119999999993 0 1 0 I I #
coedge $-1 -1 $-1 $421 $205 $431 $434 forward $196 $-1 #
vertex $-1 -1 $-1 $434 $435 #
straight-curve $-1 -1 $-1 246.00119999999995 0 0 0 1 0 I I #
edge $-1 -1 $-1 $424 -123.00059999999996 $209 123.00059999999999 $306 $436 forward @7 unknown #
point $-1 -1 $-1 246.00119999999995 246.00119999999995 0 #
point $-1 -1 $-1 246.00119999999995 246.00119999999995 246.00119999999993 #
model_id-kcp-attrib $-1 -1 $-1 $-1 $213 1 1021324040 1021324040 1369505794 6 #
face $437 -1 $-1 $-1 $228 $29 $-1 $438 reversed single #
loop $-1 -1 $-1 $-1 $342 $213 #
plane-surface $-1 -1 $-1 0 123.00059999999998 0 0 -1 0 0 0 -1 forward_v I I I I #
coedge $-1 -1 $-1 $439 $340 $343 $440 forward $214 $-1 #
coedge $-1 -1 $-1 $346 $216 $217 $334 reversed $127 $-1 #
coedge $-1 -1 $-1 $340 $439 $216 $332 reversed $214 $-1 #
edge $-1 -1 $-1 $347 -389.00179999999989 $441 389.00179999999989 $331 $442 forward @7 unknown #
coedge $-1 -1 $-1 $218 $217 $439 $443 forward $79 $-1 #
edge $-1 -1 $-1 $338 -133.00059999999996 $441 133.00059999999996 $330 $444 forward @7 unknown #
coedge $-1 -1 $-1 $343 $342 $218 $336 reversed $327 $-1 #
edge $-1 -1 $-1 $445 -133.00059999999996 $337 133.00059999999996 $335 $446 forward @7 unknown #
vertex $-1 -1 $-1 $220 $447 #
vertex $-1 -1 $-1 $349 $448 #
straight-curve $-1 -1 $-1 133.00059999999996 0 -389.00179999999989 0 -1 0 I I #
coedge $-1 -1 $-1 $329 $331 $221 $341 reversed $214 $-1 #
edge $-1 -1 $-1 $344 -123.00059999999998 $347 123.00059999999998 $340 $449 forward @7 unknown #
coedge $-1 -1 $-1 $335 $222 $227 $350 forward $327 $-1 #
coedge $-1 -1 $-1 $222 $335 $329 $440 reversed $327 $-1 #
vertex $-1 -1 $-1 $223 $450 #
straight-curve $-1 -1 $-1 0 123.00059999999998 389.00179999999989 -1 0 0 I I #
coedge $-1 -1 $-1 $224 $330 $226 $349 reversed $127 $-1 #
vertex $-1 -1 $-1 $341 $451 #
straight-curve $-1 -1 $-1 0 -123.00059999999998 389.00179999999989 1 0 0 I I #
edge $-1 -1 $-1 $229 -389.00179999999989 $338 389.00179999999989 $226 $452 forward @7 unknown #
edge $-1 -1 $-1 $230 -389.00179999999989 $337 389.00179999999989 $227 $453 forward @7 unknown #
point $-1 -1 $-1 133.00059999999996 -123.00059999999998 389.00179999999989 #
point $-1 -1 $-1 133.00059999999996 123.00059999999998 389.00179999999989 #
model_id-kcp-attrib $-1 -1 $-1 $-1 $233 1 1021324040 1021324040 1369505793 8 #
face $454 -1 $-1 $455 $456 $9 $-1 $457 forward single #
loop $-1 -1 $-1 $-1 $378 $233 #
plane-surface $-1 -1 $-1 123.00059999999998 123.00059999999998 256.00119999999998 0 0 1 1 0 0 forward_v I I I I #
coedge $-1 -1 $-1 $458 $459 $377 $460 reversed $234 $-1 #
coedge $-1 -1 $-1 $461 $236 $462 $463 reversed $136 $-1 #
coedge $-1 -1 $-1 $236 $461 $458 $464 reversed $136 $-1 #
coedge $-1 -1 $-1 $377 $376 $236 $361 forward $156 $-1 #
edge $465 -1 $-1 $466 -123.00059999999996 $467 123.00059999999999 $360 $468 forward @7 unknown #
coedge $-1 -1 $-1 $243 $249 $238 $363 forward $250 $-1 #
edge $-1 -1 $-1 $364 -123.00059999999996 $245 123.00059999999999 $362 $469 forward @7 unknown #
vertex $-1 -1 $-1 $363 $470 #
straight-curve $-1 -1 $-1 0 123.00059999999998 512.00239999999997 0 1 0 I I #
convexity-sys-attrib $-1 -1 $-1 $240 $142 #
point $-1 -1 $-1 0 0 512.00239999999997 #
straight-curve $-1 -1 $-1 246.00119999999995 246.00119999999995 507.00239999999991 0 0 1 I I #
point $-1 -1 $-1 246.00119999999995 246.00119999999995 512.00239999999997 #
loop $-1 -1 $-1 $471 $472 $371 #
face $473 -1 $-1 $474 $250 $9 $-1 $475 reversed single #
straight-curve $-1 -1 $-1 0 246.00119999999995 507.00239999999991 0 0 -1 I I #
convexity-sys-attrib $-1 -1 $-1 $255 $155 #
loop $-1 -1 $-1 $-1 $476 $157 #
coedge $-1 -1 $-1 $477 $478 $479 $480 forward $257 $-1 #
coedge $-1 -1 $-1 $360 $258 $481 $482 forward $156 $-1 #
coedge $-1 -1 $-1 $258 $360 $357 $460 forward $156 $-1 #
coedge $-1 -1 $-1 $483 $484 $258 $379 reversed $355 $-1 #
edge $485 -1 $-1 $486 -123.00059999999999 $487 123.00059999999996 $258 $488 forward @7 unknown #
model_id-kcp-attrib $-1 -1 $-1 $-1 $260 1 1021324040 1021324040 1369505793 17 #
loop $-1 -1 $-1 $-1 $489 $260 #
plane-surface $-1 -1 $-1 -10 123.00059999999998 379.00179999999989 1 0 0 0 0 -1 forward_v I I I I #
loop $-1 -1 $-1 $-1 $395 $262 #
plane-surface $-1 -1 $-1 123.00059999999999 0 635.00299999999993 0 1 0 0 0 1 forward_v I I I I #
coedge $-1 -1 $-1 $264 $277 $265 $387 forward $162 $-1 #
coedge $-1 -1 $-1 $266 $265 $490 $491 forward $102 $-1 #
edge $-1 -1 $-1 $492 0 $388 246.00119999999995 $385 $493 forward @7 unknown #
vertex $-1 -1 $-1 $387 $494 #
straight-curve $-1 -1 $-1 0 246.00119999999995 507.00239999999991 0 0 -1 I I #
coedge $-1 -1 $-1 $490 $273 $269 $391 reversed $383 $-1 #
edge $-1 -1 $-1 $392 -123.00059999999996 $275 123.00059999999999 $269 $495 forward @7 unknown #
vertex $-1 -1 $-1 $491 $496 #
straight-curve $-1 -1 $-1 0 0 758.00359999999989 0 1 0 I I #
point $-1 -1 $-1 0 246.00119999999995 758.00359999999989 #
coedge $-1 -1 $-1 $273 $490 $277 $398 reversed $383 $-1 #
straight-curve $-1 -1 $-1 246.00119999999995 0 507.00239999999991 0 0 -1 I I #
point $-1 -1 $-1 246.00119999999995 0 758.00359999999989 #
edge $-1 -1 $-1 $278 -123.00059999999999 $492 123.00059999999996 $277 $497 forward @7 unknown #
point $-1 -1 $-1 246.00119999999995 0 512.00239999999997 #
straight-curve $-1 -1 $-1 123.00059999999996 246.00119999999995 512.00239999999997 1 0 0 I I #
loop $-1 -1 $-1 $-1 $413 $283 #
plane-surface $-1 -1 $-1 123.00059999999999 0 379.0018 0 1 0 0 0 1 forward_v I I I I #
coedge $-1 -1 $-1 $285 $298 $286 $405 forward $179 $-1 #
coedge $-1 -1 $-1 $287 $286 $498 $499 forward $110 $-1 #
edge $-1 -1 $-1 $500 0 $406 246.00119999999995 $403 $501 forward @7 unknown #
vertex $-1 -1 $-1 $405 $502 #
straight-curve $-1 -1 $-1 0 246.00119999999995 379.00179999999989 0 0 -1 I I #
coedge $-1 -1 $-1 $498 $294 $290 $409 reversed $401 $-1 #
edge $-1 -1 $-1 $410 -123.00059999999996 $296 123.00059999999999 $290 $503 forward @7 unknown #
vertex $-1 -1 $-1 $499 $504 #
straight-curve $-1 -1 $-1 0 0 502.00239999999991 0 1 0 I I #
point $-1 -1 $-1 0 246.00119999999995 502.00239999999991 #
coedge $-1 -1 $-1 $294 $498 $298 $416 reversed $401 $-1 #
straight-curve $-1 -1 $-1 246.00119999999995 0 379.00179999999989 0 0 -1 I I #
point $-1 -1 $-1 246.00119999999995 0 502.00239999999991 #
edge $-1 -1 $-1 $299 -123.00059999999999 $500 123.00059999999996 $298 $505 forward @7 unknown #
point $-1 -1 $-1 246.00119999999995 0 256.00119999999998 #
straight-curve $-1 -1 $-1 123.00059999999996 246.00119999999995 256.00119999999998 1 0 0 I I #
loop $-1 -1 $-1 $-1 $431 $304 #
plane-surface $-1 -1 $-1 123.00059999999999 0 123.00059999999996 0 1 0 0 0 1 forward_v I I I I #
coedge $-1 -1 $-1 $306 $319 $307 $423 forward $196 $-1 #
coedge $-1 -1 $-1 $308 $307 $506 $507 forward $118 $-1 #
edge $-1 -1 $-1 $508 0 $424 246.00119999999995 $421 $509 forward @7 unknown #
vertex $-1 -1 $-1 $423 $510 #
straight-curve $-1 -1 $-1 0 246.00119999999995 251.00119999999993 0 0 -1 I I #
coedge $-1 -1 $-1 $506 $315 $311 $427 reversed $419 $-1 #
edge $-1 -1 $-1 $428 -123.00059999999996 $317 123.00059999999999 $311 $511 forward @7 unknown #
vertex $-1 -1 $-1 $507 $512 #
straight-curve $-1 -1 $-1 0 0 246.00119999999993 0 1 0 I I #
point $-1 -1 $-1 0 246.00119999999995 246.00119999999993 #
coedge $-1 -1 $-1 $315 $506 $319 $434 reversed $419 $-1 #
straight-curve $-1 -1 $-1 246.00119999999995 0 251.00119999999993 0 0 -1 I I #
point $-1 -1 $-1 246.00119999999995 0 246.00119999999993 #
edge $-1 -1 $-1 $320 -123.00059999999999 $508 123.00059999999996 $319 $513 forward @7 unknown #
point $-1 -1 $-1 246.00119999999995 0 0 #
straight-curve $-1 -1 $-1 123.00059999999996 246.00119999999995 0 1 0 0 I I #
model_id-kcp-attrib $-1 -1 $-1 $-1 $326 1 1021324040 1021324040 1369505794 7 #
plane-surface $-1 -1 $-1 133.00059999999996 0 0 -1 0 0 0 0 1 forward_v I I I I #
coedge $-1 -1 $-1 $331 $329 $333 $443 reversed $214 $-1 #
edge $-1 -1 $-1 $344 -389.00179999999989 $445 389.00179999999989 $343 $514 forward @7 unknown #
vertex $-1 -1 $-1 $443 $515 #
straight-curve $-1 -1 $-1 -133.00059999999996 -123.00059999999998 0 0 0 -1 I I #
edge $-1 -1 $-1 $441 -123.00059999999998 $445 123.00059999999998 $439 $516 forward @7 unknown #
straight-curve $-1 -1 $-1 0 -123.00059999999998 -389.00179999999989 -1 0 0 I I #
vertex $-1 -1 $-1 $336 $517 #
straight-curve $-1 -1 $-1 0 123.00059999999998 -389.00179999999989 1 0 0 I I #
point $-1 -1 $-1 133.00059999999996 123.00059999999998 -389.00179999999989 #
point $-1 -1 $-1 133.00059999999996 -123.00059999999998 -389.00179999999989 #
straight-curve $-1 -1 $-1 -133.00059999999996 0 389.00179999999989 0 -1 0 I I #
point $-1 -1 $-1 -133.00059999999996 123.00059999999998 389.00179999999989 #
point $-1 -1 $-1 -133.00059999999996 -123.00059999999998 389.00179999999989 #
straight-curve $-1 -1 $-1 133.00059999999996 -123.00059999999998 0 0 0 -1 I I #
straight-curve $-1 -1 $-1 133.00059999999996 123.00059999999998 0 0 0 -1 I I #
model_id-kcp-attrib $-1 -1 $-1 $-1 $354 1 1021324040 1021324040 1369505793 9 #
face $518 -1 $-1 $519 $520 $9 $-1 $521 reversed single #
loop $-1 -1 $-1 $-1 $481 $354 #
plane-surface $-1 -1 $-1 0 123.00059999999998 379.00179999999995 1 0 0 0 0 -1 forward_v I I I I #
coedge $-1 -1 $-1 $522 $357 $359 $464 forward $234 $-1 #
coedge $-1 -1 $-1 $357 $522 $483 $523 forward $234 $-1 #
edge $524 -1 $-1 $467 -123.00060000000002 $486 123.00059999999991 $377 $525 forward @7 unknown #
coedge $-1 -1 $-1 $359 $358 $526 $527 reversed $136 $-1 #
coedge $-1 -1 $-1 $481 $528 $358 $463 forward $456 $-1 #
edge $-1 -1 $-1 $529 -123.00059999999998 $466 123.00059999999998 $462 $530 forward @7 unknown #
edge $-1 -1 $-1 $467 -123.00059999999998 $531 123.00059999999998 $458 $532 forward @7 unknown #
attrib_edge_convexity-kcp-attrib $-1 -1 $533 $-1 $361 1 #
vertex $-1 -1 $-1 $361 $534 #
vertex $-1 -1 $-1 $361 $535 #
straight-curve $-1 -1 $-1 123.00059999999996 0 502.00239999999991 1 0 0 I I #
straight-curve $-1 -1 $-1 123.00059999999996 246.00119999999995 512.00239999999997 1 0 0 I I #
point $-1 -1 $-1 0 246.00119999999995 512.00239999999997 #
loop $-1 -1 $-1 $536 $537 $371 #
coedge $-1 -1 $-1 $538 $539 $540 $541 forward $370 $-1 #
model_id-kcp-attrib $-1 -1 $-1 $-1 $371 1 1021324040 1021324040 1369505793 18 #
face $542 -1 $-1 $-1 $543 $9 $-1 $544 reversed single #
plane-surface $-1 -1 $-1 123.00059999999996 246.00119999999995 379.00179999999989 0 -1 0 0 0 -1 forward_v I I I I #
coedge $-1 -1 $-1 $545 $546 $547 $548 forward $374 $-1 #
coedge $-1 -1 $-1 $549 $375 $550 $551 forward $257 $-1 #
coedge $-1 -1 $-1 $375 $549 $552 $553 forward $257 $-1 #
coedge $-1 -1 $-1 $554 $555 $375 $480 reversed $556 $-1 #
edge $557 -1 $-1 $558 -123.00059999999999 $559 123.00059999999996 $375 $560 forward @7 unknown #
coedge $-1 -1 $-1 $561 $462 $376 $482 reversed $456 $-1 #
edge $562 -1 $-1 $487 -123.00059999999991 $466 123.00060000000002 $376 $563 forward @7 unknown #
coedge $-1 -1 $-1 $540 $378 $459 $523 reversed $355 $-1 #
coedge $-1 -1 $-1 $378 $540 $561 $564 reversed $355 $-1 #
attrib_edge_convexity-kcp-attrib $-1 -1 $565 $-1 $379 1 #
vertex $-1 -1 $-1 $379 $566 #
vertex $-1 -1 $-1 $379 $567 #
straight-curve $-1 -1 $-1 123.00059999999996 0 256.00119999999998 -1 0 0 I I #
coedge $-1 -1 $-1 $568 $569 $570 $571 forward $381 $-1 #
coedge $-1 -1 $-1 $395 $390 $386 $491 reversed $383 $-1 #
edge $-1 -1 $-1 $492 5.0000000000000568 $392 251.00119999999998 $386 $572 forward @7 unknown #
vertex $-1 -1 $-1 $398 $573 #
straight-curve $-1 -1 $-1 0 0 512.00239999999997 0 1 0 I I #
point $-1 -1 $-1 0 246.00119999999995 512.00239999999997 #
straight-curve $-1 -1 $-1 123.00059999999996 0 758.00359999999989 1 0 0 I I #
point $-1 -1 $-1 0 0 758.00359999999989 #
straight-curve $-1 -1 $-1 123.00059999999996 0 512.00239999999997 -1 0 0 I I #
coedge $-1 -1 $-1 $413 $408 $404 $499 reversed $401 $-1 #
edge $-1 -1 $-1 $500 -123.00059999999991 $410 123.00060000000002 $404 $574 forward @7 unknown #
vertex $-1 -1 $-1 $416 $575 #
straight-curve $-1 -1 $-1 0 0 256.00119999999998 0 1 0 I I #
point $-1 -1 $-1 0 246.00119999999995 256.00119999999998 #
straight-curve $-1 -1 $-1 123.00059999999996 0 502.00239999999991 1 0 0 I I #
point $-1 -1 $-1 0 0 502.00239999999991 #
straight-curve $-1 -1 $-1 123.00059999999996 0 256.00119999999998 -1 0 0 I I #
coedge $-1 -1 $-1 $431 $426 $422 $507 reversed $419 $-1 #
edge $-1 -1 $-1 $508 -251.00119999999993 $428 -5 $422 $576 forward @7 unknown #
vertex $-1 -1 $-1 $434 $577 #
straight-curve $-1 -1 $-1 0 0 0 0 1 0 I I #
point $-1 -1 $-1 0 246.00119999999995 0 #
straight-curve $-1 -1 $-1 123.00059999999996 0 246.00119999999993 1 0 0 I I #
point $-1 -1 $-1 0 0 246.00119999999993 #
straight-curve $-1 -1 $-1 123.00059999999996 0 0 -1 0 0 I I #
straight-curve $-1 -1 $-1 -133.00059999999996 123.00059999999998 0 0 0 -1 I I #
point $-1 -1 $-1 -133.00059999999996 -123.00059999999998 -389.00179999999989 #
straight-curve $-1 -1 $-1 -133.00059999999996 0 -389.00179999999989 0 1 0 I I #
point $-1 -1 $-1 -133.00059999999996 123.00059999999998 -389.00179999999989 #
model_id-kcp-attrib $-1 -1 $-1 $-1 $455 1 1021324040 1021324040 1369505793 10 #
face $578 -1 $-1 $579 $580 $9 $-1 $581 forward single #
loop $-1 -1 $-1 $-1 $582 $455 #
plane-surface $-1 -1 $-1 123.00059999999998 123.00059999999998 246.00119999999993 0 0 1 1 0 0 forward_v I I I I #
coedge $-1 -1 $-1 $459 $458 $538 $583 reversed $234 $-1 #
edge $-1 -1 $-1 $584 -123.00059999999998 $486 123.00059999999998 $459 $585 forward @7 unknown #
attrib_edge_convexity-kcp-attrib $-1 -1 $586 $-1 $460 1 #
straight-curve $-1 -1 $-1 246.00119999999995 0 379.00179999999989 0 0 -1 I I #
coedge $-1 -1 $-1 $539 $538 $461 $527 forward $370 $-1 #
edge $-1 -1 $-1 $531 -123.00059999999999 $529 123.00059999999996 $526 $587 forward @7 unknown #
coedge $-1 -1 $-1 $462 $561 $539 $588 reversed $456 $-1 #
vertex $-1 -1 $-1 $527 $589 #
straight-curve $-1 -1 $-1 0 123.00059999999998 502.00239999999991 0 -1 0 I I #
vertex $-1 -1 $-1 $527 $590 #
straight-curve $-1 -1 $-1 246.00119999999995 123.00059999999998 502.00239999999991 0 1 0 I I #
convexity-sys-attrib $-1 -1 $-1 $465 $361 #
point $-1 -1 $-1 0 0 502.00239999999991 #
point $-1 -1 $-1 246.00119999999995 0 502.00239999999991 #
loop $-1 -1 $-1 $-1 $591 $371 #
coedge $-1 -1 $-1 $592 $593 $594 $595 forward $471 $-1 #
coedge $-1 -1 $-1 $526 $472 $522 $583 forward $370 $-1 #
coedge $-1 -1 $-1 $472 $526 $528 $588 forward $370 $-1 #
coedge $-1 -1 $-1 $484 $483 $472 $541 reversed $355 $-1 #
edge $-1 -1 $-1 $596 -123.00059999999996 $584 123.00059999999999 $472 $597 forward @7 unknown #
model_id-kcp-attrib $-1 -1 $-1 $-1 $474 1 1021324040 1021324040 1369505793 19 #
loop $-1 -1 $-1 $-1 $598 $474 #
plane-surface $-1 -1 $-1 256.00119999999993 123.00059999999998 379.00179999999989 -1 0 0 0 0 1 forward_v I I I I #
coedge $-1 -1 $-1 $599 $476 $600 $601 reversed $374 $-1 #
coedge $-1 -1 $-1 $476 $599 $602 $603 reversed $374 $-1 #
coedge $-1 -1 $-1 $569 $568 $476 $548 reversed $381 $-1 #
edge $604 -1 $-1 $605 -389.00179999999989 $606 389.00179999999989 $547 $607 forward @7 unknown #
coedge $-1 -1 $-1 $478 $477 $582 $608 forward $257 $-1 #
coedge $-1 -1 $-1 $609 $610 $477 $551 reversed $611 $-1 #
edge $612 -1 $-1 $559 -251.00119999999993 $613 -5 $477 $614 forward @7 unknown #
coedge $-1 -1 $-1 $615 $616 $478 $553 reversed $580 $-1 #
edge $617 -1 $-1 $618 5 $558 251.00119999999993 $478 $619 forward @7 unknown #
coedge $-1 -1 $-1 $594 $479 $616 $620 reversed $556 $-1 #
coedge $-1 -1 $-1 $479 $594 $609 $621 reversed $556 $-1 #
loop $-1 -1 $-1 $-1 $479 $579 #
attrib_edge_convexity-kcp-attrib $-1 -1 $622 $-1 $480 1 #
vertex $-1 -1 $-1 $480 $623 #
vertex $-1 -1 $-1 $480 $624 #
straight-curve $-1 -1 $-1 123.00059999999996 0 0 -1 0 0 I I #
coedge $-1 -1 $-1 $528 $481 $484 $564 forward $456 $-1 #
attrib_edge_convexity-kcp-attrib $-1 -1 $625 $-1 $482 1 #
straight-curve $-1 -1 $-1 0 0 379.00179999999989 0 0 1 I I #
edge $-1 -1 $-1 $487 -123.00059999999998 $596 123.00059999999998 $561 $626 forward @7 unknown #
convexity-sys-attrib $-1 -1 $-1 $485 $379 #
point $-1 -1 $-1 246.00119999999995 0 256.00119999999998 #
point $-1 -1 $-1 0 0 256.00119999999998 #
coedge $-1 -1 $-1 $547 $489 $627 $628 reversed $381 $-1 #
coedge $-1 -1 $-1 $489 $547 $629 $630 reversed $381 $-1 #
coedge $-1 -1 $-1 $631 $632 $489 $571 reversed $536 $-1 #
edge $633 -1 $-1 $634 -389.00179999999989 $635 389.00179999999989 $570 $636 forward @7 unknown #
straight-curve $-1 -1 $-1 0 0 507.00239999999991 0 0 1 I I #
point $-1 -1 $-1 0 0 512.00239999999997 #
straight-curve $-1 -1 $-1 0 0 379.00179999999989 0 0 1 I I #
point $-1 -1 $-1 0 0 256.00119999999998 #
straight-curve $-1 -1 $-1 0 0 251.00119999999993 0 0 1 I I #
point $-1 -1 $-1 0 0 0 #
model_id-kcp-attrib $-1 -1 $-1 $-1 $519 1 1021324040 1021324040 1369505793 11 #
face $637 -1 $-1 $638 $556 $9 $-1 $639 forward single #
loop $-1 -1 $-1 $-1 $552 $519 #
plane-surface $-1 -1 $-1 246.00119999999995 123.00059999999998 123.00059999999996 -1 0 0 0 0 1 forward_v I I I I #
coedge $-1 -1 $-1 $640 $641 $549 $608 reversed $520 $-1 #
edge $-1 -1 $-1 $584 -123.00059999999991 $531 123.00060000000002 $538 $642 forward @7 unknown #
vertex $-1 -1 $-1 $541 $643 #
straight-curve $-1 -1 $-1 246.00119999999995 123.00059999999998 256.00119999999998 0 -1 0 I I #
convexity-sys-attrib $-1 -1 $-1 $524 $460 #
straight-curve $-1 -1 $-1 123.00059999999996 246.00119999999995 502.00239999999991 -1 0 0 I I #
edge $-1 -1 $-1 $529 -123.00060000000002 $596 123.00059999999991 $539 $644 forward @7 unknown #
point $-1 -1 $-1 0 246.00119999999995 502.00239999999991 #
point $-1 -1 $-1 246.00119999999995 246.00119999999995 502.00239999999991 #
coedge $-1 -1 $-1 $632 $631 $645 $646 forward $536 $-1 #
coedge $-1 -1 $-1 $647 $537 $648 $649 forward $471 $-1 #
coedge $-1 -1 $-1 $537 $647 $650 $651 forward $471 $-1 #
coedge $-1 -1 $-1 $555 $554 $537 $595 reversed $556 $-1 #
edge $-1 -1 $-1 $652 -123.00059999999996 $653 123.00059999999999 $537 $654 forward @7 unknown #
vertex $-1 -1 $-1 $541 $655 #
straight-curve $-1 -1 $-1 123.00059999999996 246.00119999999995 256.00119999999998 1 0 0 I I #
coedge $-1 -1 $-1 $656 $657 $599 $658 forward $543 $-1 #
coedge $-1 -1 $-1 $546 $545 $598 $658 reversed $374 $-1 #
coedge $-1 -1 $-1 $627 $659 $545 $601 forward $660 $-1 #
edge $661 -1 $-1 $662 -133.00059999999996 $606 133.00059999999996 $545 $663 forward @7 unknown #
coedge $-1 -1 $-1 $664 $629 $546 $603 forward $665 $-1 #
edge $666 -1 $-1 $605 -133.00059999999996 $667 133.00059999999996 $546 $668 forward @7 unknown #
attrib_edge_convexity-kcp-attrib $-1 -1 $669 $-1 $548 1 #
vertex $-1 -1 $-1 $630 $670 #
vertex $-1 -1 $-1 $628 $671 #
straight-curve $-1 -1 $-1 -10 0 379.00179999999989 0 0 -1 I I #
edge $672 -1 $-1 $613 -123.00059999999996 $618 123.00059999999999 $549 $673 forward @7 unknown #
coedge $-1 -1 $-1 $650 $550 $555 $621 forward $611 $-1 #
coedge $-1 -1 $-1 $550 $650 $640 $674 forward $611 $-1 #
loop $-1 -1 $-1 $-1 $550 $638 #
attrib_edge_convexity-kcp-attrib $-1 -1 $675 $-1 $551 1 #
vertex $-1 -1 $-1 $608 $676 #
straight-curve $-1 -1 $-1 0 0 251.00119999999993 0 0 1 I I #
coedge $-1 -1 $-1 $648 $552 $641 $677 forward $580 $-1 #
coedge $-1 -1 $-1 $552 $648 $554 $620 forward $580 $-1 #
attrib_edge_convexity-kcp-attrib $-1 -1 $678 $-1 $553 1 #
vertex $-1 -1 $-1 $608 $679 #
straight-curve $-1 -1 $-1 246.00119999999995 0 251.00119999999993 0 0 -1 I I #
edge $-1 -1 $-1 $653 -123.00059999999998 $558 123.00059999999998 $616 $680 forward @7 unknown #
edge $-1 -1 $-1 $559 -123.00059999999998 $652 123.00059999999998 $609 $681 forward @7 unknown #
convexity-sys-attrib $-1 -1 $-1 $557 $480 #
point $-1 -1 $-1 246.00119999999995 0 0 #
point $-1 -1 $-1 0 0 0 #
convexity-sys-attrib $-1 -1 $-1 $562 $482 #
straight-curve $-1 -1 $-1 0 123.00059999999998 256.00119999999998 0 1 0 I I #
coedge $-1 -1 $-1 $682 $600 $568 $628 forward $660 $-1 #
edge $683 -1 $-1 $606 -123.00059999999998 $635 123.00059999999998 $568 $684 forward @7 unknown #
coedge $-1 -1 $-1 $602 $685 $569 $630 forward $665 $-1 #
edge $686 -1 $-1 $634 -123.00059999999998 $605 123.00059999999998 $569 $687 forward @7 unknown #
coedge $-1 -1 $-1 $591 $570 $685 $688 reversed $536 $-1 #
coedge $-1 -1 $-1 $570 $591 $682 $689 reversed $536 $-1 #
attrib_edge_convexity-kcp-attrib $-1 -1 $690 $-1 $571 1 #
vertex $-1 -1 $-1 $688 $691 #
vertex $-1 -1 $-1 $689 $692 #
straight-curve $-1 -1 $-1 -10 246.00119999999995 379.00179999999989 0 0 -1 I I #
model_id-kcp-attrib $-1 -1 $-1 $-1 $579 1 1021324040 1021324040 1369505793 12 #
face $693 -1 $-1 $694 $611 $9 $-1 $695 forward single #
plane-surface $-1 -1 $-1 123.00059999999998 123.00059999999998 0 0 0 1 1 0 0 forward_v I I I I #
coedge $-1 -1 $-1 $696 $582 $610 $674 reversed $520 $-1 #
coedge $-1 -1 $-1 $582 $696 $615 $677 reversed $520 $-1 #
straight-curve $-1 -1 $-1 246.00119999999995 246.00119999999995 379.00179999999989 0 0 1 I I #
point $-1 -1 $-1 246.00119999999995 246.00119999999995 256.00119999999998 #
straight-curve $-1 -1 $-1 0 246.00119999999995 379.00179999999989 0 0 -1 I I #
coedge $-1 -1 $-1 $657 $656 $591 $646 reversed $543 $-1 #
edge $-1 -1 $-1 $697 -389.00179999999989 $698 389.00179999999989 $645 $699 forward @7 unknown #
coedge $-1 -1 $-1 $593 $592 $696 $700 forward $471 $-1 #
coedge $-1 -1 $-1 $616 $615 $592 $649 reversed $580 $-1 #
edge $-1 -1 $-1 $653 -251.00119999999993 $701 -5 $592 $702 forward @7 unknown #
coedge $-1 -1 $-1 $610 $609 $593 $651 reversed $611 $-1 #
edge $-1 -1 $-1 $703 5 $652 251.00119999999993 $593 $704 forward @7 unknown #
vertex $-1 -1 $-1 $595 $705 #
vertex $-1 -1 $-1 $595 $706 #
straight-curve $-1 -1 $-1 123.00059999999996 246.00119999999995 0 1 0 0 I I #
point $-1 -1 $-1 0 246.00119999999995 256.00119999999998 #
coedge $-1 -1 $-1 $645 $598 $659 $707 reversed $543 $-1 #
coedge $-1 -1 $-1 $598 $645 $664 $708 reversed $543 $-1 #
edge $709 -1 $-1 $667 -389.00179999999989 $662 389.00179999999989 $598 $710 forward @7 unknown #
coedge $-1 -1 $-1 $600 $682 $656 $707 forward $660 $-1 #
loop $-1 -1 $-1 $-1 $659 $711 #
attrib_edge_convexity-kcp-attrib $-1 -1 $712 $-1 $601 1 #
vertex $-1 -1 $-1 $658 $713 #
straight-curve $-1 -1 $-1 123.00059999999996 0 -10 -1 0 0 I I #
coedge $-1 -1 $-1 $685 $602 $657 $708 forward $665 $-1 #
loop $-1 -1 $-1 $-1 $664 $694 #
attrib_edge_convexity-kcp-attrib $-1 -1 $714 $-1 $603 1 #
vertex $-1 -1 $-1 $708 $715 #
straight-curve $-1 -1 $-1 123.00059999999996 0 768.00359999999978 1 0 0 I I #
convexity-sys-attrib $-1 -1 $-1 $604 $548 #
point $-1 -1 $-1 -10 0 768.00359999999978 #
point $-1 -1 $-1 -10 0 -10 #
attrib_edge_convexity-kcp-attrib $-1 -1 $716 $-1 $608 1 #
straight-curve $-1 -1 $-1 123.00059999999996 0 246.00119999999993 1 0 0 I I #
edge $-1 -1 $-1 $703 -123.00059999999998 $613 123.00059999999998 $610 $717 forward @7 unknown #
convexity-sys-attrib $-1 -1 $-1 $612 $551 #
point $-1 -1 $-1 0 0 246.00119999999993 #
edge $-1 -1 $-1 $618 -123.00059999999998 $701 123.00059999999998 $615 $718 forward @7 unknown #
convexity-sys-attrib $-1 -1 $-1 $617 $553 #
point $-1 -1 $-1 246.00119999999995 0 246.00119999999993 #
straight-curve $-1 -1 $-1 246.00119999999995 123.00059999999998 0 0 -1 0 I I #
straight-curve $-1 -1 $-1 0 123.00059999999998 0 0 1 0 I I #
coedge $-1 -1 $-1 $659 $627 $632 $689 forward $660 $-1 #
attrib_edge_convexity-kcp-attrib $-1 -1 $719 $-1 $628 1 #
straight-curve $-1 -1 $-1 -10 123.00059999999998 -10 0 1 0 I I #
coedge $-1 -1 $-1 $629 $664 $631 $688 forward $665 $-1 #
attrib_edge_convexity-kcp-attrib $-1 -1 $720 $-1 $630 1 #
straight-curve $-1 -1 $-1 -10 123.00059999999998 768.00359999999978 0 -1 0 I I #
edge $721 -1 $-1 $697 -133.00059999999996 $634 133.00059999999996 $631 $722 forward @7 unknown #
edge $-1 -1 $-1 $635 -133.00059999999996 $698 133.00059999999996 $632 $723 forward @7 unknown #
convexity-sys-attrib $-1 -1 $-1 $633 $571 #
point $-1 -1 $-1 -10 246.00119999999995 768.00359999999978 #
point $-1 -1 $-1 -10 246.00119999999995 -10 #
model_id-kcp-attrib $-1 -1 $-1 $-1 $638 1 1021324040 1021324040 1369505793 13 #
face $724 -1 $-1 $711 $665 $9 $-1 $725 forward single #
plane-surface $-1 -1 $-1 0 123.00059999999998 123.00059999999996 1 0 0 0 0 -1 forward_v I I I I #
coedge $-1 -1 $-1 $641 $640 $647 $700 reversed $520 $-1 #
vertex $-1 -1 $-1 $708 $726 #
vertex $-1 -1 $-1 $707 $727 #
straight-curve $-1 -1 $-1 256.00119999999993 246.00119999999995 379.00179999999989 0 0 -1 I I #
edge $-1 -1 $-1 $701 -123.00059999999999 $703 123.00059999999996 $647 $728 forward @7 unknown #
vertex $-1 -1 $-1 $700 $729 #
straight-curve $-1 -1 $-1 246.00119999999995 246.00119999999995 251.00119999999993 0 0 1 I I #
vertex $-1 -1 $-1 $700 $730 #
straight-curve $-1 -1 $-1 0 246.00119999999995 251.00119999999993 0 0 -1 I I #
point $-1 -1 $-1 0 246.00119999999995 0 #
point $-1 -1 $-1 246.00119999999995 246.00119999999995 0 #
edge $-1 -1 $-1 $698 -123.00059999999998 $662 123.00059999999998 $656 $731 forward @7 unknown #
edge $732 -1 $-1 $667 -123.00059999999998 $697 123.00059999999998 $657 $733 forward @7 unknown #
attrib_edge_convexity-kcp-attrib $-1 -1 $734 $-1 $658 1 #
straight-curve $-1 -1 $-1 256.00119999999993 0 379.00179999999989 0 0 -1 I I #
face $735 -1 $-1 $157 $660 $9 $-1 $736 reversed single #
convexity-sys-attrib $-1 -1 $-1 $661 $601 #
point $-1 -1 $-1 256.00119999999993 0 -10 #
convexity-sys-attrib $-1 -1 $-1 $666 $603 #
point $-1 -1 $-1 256.00119999999993 0 768.00359999999978 #
convexity-sys-attrib $-1 -1 $-1 $672 $608 #
straight-curve $-1 -1 $-1 0 123.00059999999998 246.00119999999993 0 -1 0 I I #
straight-curve $-1 -1 $-1 246.00119999999995 123.00059999999998 246.00119999999993 0 1 0 I I #
convexity-sys-attrib $-1 -1 $-1 $683 $628 #
convexity-sys-attrib $-1 -1 $-1 $686 $630 #
attrib_edge_convexity-kcp-attrib $-1 -1 $737 $-1 $688 1 #
straight-curve $-1 -1 $-1 123.00059999999996 246.00119999999995 768.00359999999978 -1 0 0 I I #
straight-curve $-1 -1 $-1 123.00059999999996 246.00119999999995 -10 1 0 0 I I #
model_id-kcp-attrib $-1 -1 $-1 $-1 $694 1 1021324040 1021324040 1369505793 14 #
plane-surface $-1 -1 $-1 123.00059999999996 123.00059999999998 768.00359999999978 0 0 1 1 0 0 forward_v I I I I #
point $-1 -1 $-1 256.00119999999993 246.00119999999995 768.00359999999978 #
point $-1 -1 $-1 256.00119999999993 246.00119999999995 -10 #
straight-curve $-1 -1 $-1 123.00059999999996 246.00119999999995 246.00119999999993 -1 0 0 I I #
point $-1 -1 $-1 246.00119999999995 246.00119999999995 246.00119999999993 #
point $-1 -1 $-1 0 246.00119999999995 246.00119999999993 #
straight-curve $-1 -1 $-1 256.00119999999993 123.00059999999998 -10 0 -1 0 I I #
attrib_edge_convexity-kcp-attrib $-1 -1 $738 $-1 $708 1 #
straight-curve $-1 -1 $-1 256.00119999999993 123.00059999999998 768.00359999999978 0 1 0 I I #
convexity-sys-attrib $-1 -1 $-1 $709 $658 #
model_id-kcp-attrib $-1 -1 $-1 $-1 $711 1 1021324040 1021324040 1369505793 15 #
plane-surface $-1 -1 $-1 123.00059999999996 123.00059999999998 -10 0 0 1 1 0 0 forward_v I I I I #
convexity-sys-attrib $-1 -1 $-1 $721 $688 #
convexity-sys-attrib $-1 -1 $-1 $732 $708 #
End-of-ACIS-data 