201 0 1 0           
7 Unknown 16 ACIS 2.1 Solaris 24 Thu Jan  9 15:51:57 1997 
-1 9.999999999999999547e-07 1.000000000000000036e-10 
body $1 $2 $-1 $3 #
display_attribute-st-attrib $-1 $4 $-1 $0 1 #
lump $-1 $-1 $5 $0 #
transform $-1 1 0 0 0 1 0 0 0 1 0 0 8.5 1 rotate no_reflect no_shear #
rgb_color-st-attrib $-1 $6 $1 $0 0 1 0 #
shell $-1 $-1 $-1 $7 $-1 $2 #
id_attribute-st-attrib $-1 $-1 $4 $0 639 #
face $-1 $8 $9 $5 $-1 $10 forward single #
face $-1 $11 $12 $5 $-1 $13 forward single #
loop $-1 $14 $15 $7 #
cone-surface $-1 0 0 0 0 0 1 4 0 0 1 I I 0 1 forward I I I I #
face $-1 $-1 $16 $5 $-1 $17 forward single #
loop $-1 $-1 $18 $8 #
plane-surface $-1 0 0 -8.5 0 0 -1 -1 0 0 forward_v I I I I #
loop $-1 $-1 $19 $7 #
coedge $-1 $15 $15 $18 $20 1 $9 $-1 #
loop $-1 $-1 $21 $11 #
plane-surface $-1 0 0 8.5 0 0 1 1 0 0 forward_v I I I I #
coedge $-1 $18 $18 $15 $20 0 $12 $-1 #
coedge $-1 $19 $19 $21 $22 1 $14 $-1 #
edge $-1 $23 $23 $18 $24 forward #
coedge $-1 $21 $21 $19 $22 0 $16 $-1 #
edge $-1 $25 $25 $21 $26 forward #
vertex $-1 $20 $27 #
ellipse-curve $-1 0 0 -8.5 0 0 -1 4 0 0 1 I I #
vertex $-1 $22 $28 #
ellipse-curve $-1 0 0 8.5 0 0 1 4 0 0 1 I I #
point $-1 4 0 -8.5 #
point $-1 4 0 8.5 #
End-of-ACIS-data 