700 0 2 0           
24 FBMach with ACIS - 7.0.3 13 ACIS 7.0.3 NT 24 Mon May 13 17:07:32 2002 
1 9.9999999999999995e-007 1e-010 
body $2 -1 $-1 $3 $-1 $4 #
bdycol-kcp $-1 -1 1 4 $5 $6 $7 $8 #
model_id-kcp-attrib $-1 -1 $9 $-1 $0 1 1021324052 1021324052 1553530881 1 #
lump $-1 -1 $-1 $-1 $10 $0 #
transform $-1 -1 1 0 0 0 1 0 0 0 1 0 0 0 1 rotate no_reflect no_shear #
body $11 -1 $-1 $12 $-1 $13 #
body $14 -1 $-1 $15 $-1 $16 #
body $17 -1 $-1 $18 $-1 $19 #
body $20 -1 $-1 $21 $-1 $22 #
rgb_color-st-attrib $-1 -1 $-1 $2 $0 0 1 0 #
shell $-1 -1 $-1 $-1 $-1 $23 $-1 $3 #
model_id-kcp-attrib $-1 -1 $24 $-1 $5 1 1021324052 1021324052 1546584069 1 #
lump $-1 -1 $-1 $-1 $25 $5 #
transform $-1 -1 1 0 0 0 1 0 0 0 1 0 0 15 1 no_rotate no_reflect no_shear #
model_id-kcp-attrib $-1 -1 $-1 $-1 $6 1 1021324052 1021324052 1553530882 1 #
lump $-1 -1 $-1 $-1 $26 $6 #
transform $-1 -1 1 0 0 0 1 0 0 0 1 0 0 15 1 no_rotate no_reflect no_shear #
rgb_color-st-attrib $-1 -1 $27 $-1 $7 0.5 1 1 #
lump $-1 -1 $-1 $-1 $28 $7 #
transform $-1 -1 1 0 0 0 1 0 0 0 1 0 0 25 1 no_rotate no_reflect no_shear #
rgb_color-st-attrib $-1 -1 $29 $-1 $8 0.5 1 1 #
lump $-1 -1 $-1 $-1 $30 $8 #
transform $-1 -1 1 0 0 0 1 0 0 0 1 0 0 15 1 no_rotate no_reflect no_shear #
face $31 -1 $-1 $32 $33 $10 $-1 $34 reversed single #
rgb_color-st-attrib $-1 -1 $-1 $11 $5 1 0.5 1 #
shell $-1 -1 $-1 $-1 $-1 $35 $-1 $12 #
shell $-1 -1 $-1 $-1 $-1 $36 $-1 $15 #
model_id-kcp-attrib $-1 -1 $-1 $17 $7 1 1021324052 1021324052 1554841603 1 #
shell $-1 -1 $-1 $-1 $-1 $37 $-1 $18 #
model_id-kcp-attrib $-1 -1 $-1 $20 $8 1 1021324052 1021324052 1556807684 1 #
shell $-1 -1 $-1 $-1 $-1 $38 $-1 $21 #
model_id-kcp-attrib $-1 -1 $-1 $-1 $23 1 1021324052 1021324052 1553530881 2 #
face $39 -1 $-1 $40 $41 $10 $-1 $42 reversed single #
loop $-1 -1 $-1 $43 $44 $23 #
cone-surface $-1 -1 $-1 0 0 25 0 0 1 4 0 0 1 I I 0 1 4 forward I I I I #
face $-1 -1 $-1 $45 $46 $25 $-1 $47 forward single #
face $48 -1 $-1 $49 $50 $26 $-1 $51 forward single #
face $-1 -1 $-1 $52 $53 $28 $-1 $54 forward single #
face $-1 -1 $-1 $55 $56 $30 $-1 $57 reversed single #
model_id-kcp-attrib $-1 -1 $-1 $-1 $32 1 1021324052 1021324052 1553530881 3 #
face $58 -1 $-1 $59 $60 $10 $-1 $61 forward single #
loop $-1 -1 $-1 $-1 $62 $32 #
plane-surface $-1 -1 $-1 0 0 20 0 0 -1 -1 0 0 forward_v I I I I #
loop $-1 -1 $-1 $-1 $63 $23 #
coedge $-1 -1 $-1 $44 $44 $62 $64 forward $33 $-1 #
face $-1 -1 $-1 $65 $66 $25 $-1 $67 forward single #
loop $-1 -1 $-1 $68 $69 $35 #
cone-surface $-1 -1 $-1 0 0 0 0 0 1 6 0 0 1 I I 0 -1 6 forward I I I I #
model_id-kcp-attrib $-1 -1 $-1 $-1 $36 1 1021324052 1021324052 1553530882 2 #
face $70 -1 $-1 $71 $72 $26 $-1 $73 reversed single #
loop $-1 -1 $-1 $-1 $74 $36 #
plane-surface $-1 -1 $-1 0 0 15 0 0 1 1 0 0 forward_v I I I I #
face $-1 -1 $-1 $75 $76 $28 $-1 $77 forward single #
loop $-1 -1 $-1 $78 $79 $37 #
cone-surface $-1 -1 $-1 0 0 0 0 0 1 4 0 0 1 I I 0 1 4 forward I I I I #
face $-1 -1 $-1 $80 $81 $30 $-1 $57 reversed single #
loop $-1 -1 $-1 $-1 $82 $38 #
cone-surface $-1 -1 $-1 -3.7491518045553436e-032 0 15 0 0 1 10 0 0 1 I I 0 1 10 forward I I I I #
model_id-kcp-attrib $-1 -1 $-1 $-1 $40 1 1021324052 1021324052 1553530881 4 #
face $83 -1 $-1 $84 $85 $10 $-1 $86 forward single #
loop $-1 -1 $-1 $87 $88 $40 #
cone-surface $-1 -1 $-1 0 0 22.5 0 0 1 6 0 0 1 I I 0 1 6 forward I I I I #
coedge $-1 -1 $-1 $62 $62 $44 $64 reversed $41 $-1 #
coedge $-1 -1 $-1 $63 $63 $89 $90 reversed $43 $-1 #
edge $91 -1 $-1 $92 0 $92 6.2831853071795862 $62 $93 forward @7 unknown #
face $-1 -1 $-1 $94 $95 $25 $-1 $96 forward single #
loop $-1 -1 $-1 $97 $98 $45 #
cone-surface $-1 -1 $-1 -3.7491518045553436e-032 0 0 0 0 1 10 0 0 1 I I 0 1 10 forward I I I I #
loop $-1 -1 $-1 $-1 $99 $35 #
coedge $-1 -1 $-1 $69 $69 $100 $101 forward $46 $-1 #
model_id-kcp-attrib $-1 -1 $-1 $-1 $49 1 1021324052 1021324052 1553530882 3 #
face $-1 -1 $-1 $102 $103 $26 $-1 $104 reversed single #
loop $-1 -1 $-1 $-1 $105 $49 #
plane-surface $-1 -1 $-1 0 0 -15 0 0 1 1 0 0 forward_v I I I I #
coedge $-1 -1 $-1 $106 $107 $108 $109 forward $50 $-1 #
face $-1 -1 $-1 $-1 $110 $28 $-1 $111 forward single #
loop $-1 -1 $-1 $-1 $112 $52 #
plane-surface $-1 -1 $-1 0 0 -5 0 0 -1 -1 0 0 forward_v I I I I #
loop $-1 -1 $-1 $-1 $113 $37 #
coedge $-1 -1 $-1 $79 $79 $112 $114 reversed $53 $-1 #
face $-1 -1 $-1 $115 $116 $30 $-1 $57 reversed single #
loop $-1 -1 $-1 $-1 $117 $55 #
coedge $-1 -1 $-1 $118 $119 $120 $121 reversed $56 $-1 #
model_id-kcp-attrib $-1 -1 $-1 $-1 $59 1 1021324052 1021324052 1553530881 5 #
face $122 -1 $-1 $123 $124 $10 $-1 $125 forward single #
loop $-1 -1 $-1 $126 $89 $59 #
plane-surface $-1 -1 $-1 0 0 30 0 0 1 1 0 0 forward_v I I I I #
loop $-1 -1 $-1 $-1 $127 $40 #
coedge $-1 -1 $-1 $88 $88 $128 $129 reversed $60 $-1 #
coedge $-1 -1 $-1 $89 $89 $63 $90 forward $85 $-1 #
edge $130 -1 $-1 $131 0 $131 6.2831853071795862 $89 $132 forward @7 unknown #
attrib_edge_convexity-kcp-attrib $-1 -1 $133 $-1 $64 2 #
vertex $-1 -1 $-1 $64 $134 #
ellipse-curve $-1 -1 $-1 0 0 20 0 0 -1 4 0 0 1 I I #
face $-1 -1 $-1 $-1 $135 $25 $-1 $136 reversed single #
loop $-1 -1 $-1 $137 $138 $65 #
plane-surface $-1 -1 $-1 -0.36363636363636342 3.1716609688970826e-017 15 0 0 1 1 0 0 forward_v I I I I #
loop $-1 -1 $-1 $-1 $139 $45 #
coedge $-1 -1 $-1 $98 $98 $138 $140 forward $66 $-1 #
coedge $-1 -1 $-1 $99 $99 $141 $142 reversed $68 $-1 #
coedge $-1 -1 $-1 $100 $100 $69 $101 reversed $137 $-1 #
edge $-1 -1 $-1 $143 0 $143 6.2831853071795862 $69 $144 forward @7 unknown #
face $-1 -1 $-1 $145 $146 $26 $-1 $147 reversed single #
loop $-1 -1 $-1 $-1 $148 $71 #
plane-surface $-1 -1 $-1 0 -10 0 0 1 0 0 0 1 forward_v I I I I #
coedge $-1 -1 $-1 $149 $150 $151 $152 forward $72 $-1 #
coedge $-1 -1 $-1 $153 $74 $154 $155 forward $50 $-1 #
coedge $-1 -1 $-1 $74 $153 $156 $157 forward $50 $-1 #
coedge $-1 -1 $-1 $158 $159 $74 $109 reversed $160 $-1 #
edge $-1 -1 $-1 $161 -10 $162 10 $108 $163 forward @7 unknown #
loop $-1 -1 $-1 $-1 $164 $75 #
plane-surface $-1 -1 $-1 0 0 5 0 0 1 1 0 0 forward_v I I I I #
coedge $-1 -1 $-1 $112 $112 $79 $114 forward $76 $-1 #
coedge $-1 -1 $-1 $113 $113 $164 $165 reversed $78 $-1 #
edge $-1 -1 $-1 $166 0 $166 6.2831853071795862 $112 $167 forward @7 unknown #
face $-1 -1 $-1 $168 $169 $30 $-1 $57 reversed single #
loop $-1 -1 $-1 $-1 $170 $80 #
coedge $-1 -1 $-1 $171 $172 $173 $174 reversed $81 $-1 #
coedge $-1 -1 $-1 $175 $82 $176 $177 reversed $56 $-1 #
coedge $-1 -1 $-1 $82 $175 $178 $179 reversed $56 $-1 #
coedge $-1 -1 $-1 $180 $181 $182 $121 forward $183 $-1 #
edge $-1 -1 $-1 $184 -30 $185 0 $120 $186 forward @7 unknown #
model_id-kcp-attrib $-1 -1 $-1 $-1 $84 1 1021324052 1021324052 1553530881 6 #
face $187 -1 $-1 $188 $189 $10 $-1 $190 forward single #
loop $-1 -1 $-1 $191 $192 $84 #
cone-surface $-1 -1 $-1 0 0 7.5 0 0 1 10 0 0 1 I I 0 1 10 forward I I I I #
loop $-1 -1 $-1 $-1 $193 $59 #
coedge $-1 -1 $-1 $127 $127 $193 $194 reversed $87 $-1 #
coedge $-1 -1 $-1 $128 $128 $88 $129 forward $195 $-1 #
edge $196 -1 $-1 $197 0 $197 6.2831853071795862 $128 $198 forward @7 unknown #
attrib_edge_convexity-kcp-attrib $-1 -1 $199 $-1 $90 1 #
vertex $-1 -1 $-1 $90 $200 #
ellipse-curve $-1 -1 $-1 0 0 30 0 0 -1 4 0 0 1 I I #
convexity-sys-attrib $-1 -1 $-1 $91 $64 #
point $-1 -1 $-1 4 0 20 #
loop $-1 -1 $-1 $201 $202 $94 #
plane-surface $-1 -1 $-1 -0.36363636363636342 3.1716609688970826e-017 0 0 0 1 1 0 0 forward_v I I I I #
loop $-1 -1 $-1 $-1 $100 $65 #
coedge $-1 -1 $-1 $138 $138 $98 $140 reversed $95 $-1 #
coedge $-1 -1 $-1 $139 $139 $202 $203 reversed $97 $-1 #
edge $-1 -1 $-1 $204 -3.1415926535897931 $204 3.1415926535897931 $98 $205 forward @7 unknown #
coedge $-1 -1 $-1 $141 $141 $99 $142 forward $201 $-1 #
edge $206 -1 $-1 $207 0 $207 6.2831853071795862 $99 $208 forward @7 unknown #
vertex $-1 -1 $-1 $101 $209 #
ellipse-curve $-1 -1 $-1 0 0 15 0 0 1 6 0 0 1 I I #
face $-1 -1 $-1 $210 $211 $26 $-1 $212 reversed single #
loop $-1 -1 $-1 $-1 $213 $102 #
plane-surface $-1 -1 $-1 -10 0 0 1 0 0 0 0 -1 forward_v I I I I #
coedge $-1 -1 $-1 $214 $156 $215 $216 forward $103 $-1 #
coedge $-1 -1 $-1 $217 $105 $214 $218 forward $72 $-1 #
coedge $-1 -1 $-1 $105 $217 $219 $220 forward $72 $-1 #
coedge $-1 -1 $-1 $159 $158 $105 $152 reversed $160 $-1 #
edge $-1 -1 $-1 $221 -10 $222 10 $151 $223 forward @7 unknown #
coedge $-1 -1 $-1 $107 $106 $224 $225 forward $50 $-1 #
coedge $-1 -1 $-1 $226 $227 $106 $155 reversed $211 $-1 #
edge $-1 -1 $-1 $162 -10 $228 10 $154 $229 forward @7 unknown #
coedge $-1 -1 $-1 $148 $230 $107 $157 reversed $103 $-1 #
edge $-1 -1 $-1 $231 -10 $161 10 $156 $232 forward @7 unknown #
coedge $-1 -1 $-1 $151 $108 $230 $233 forward $160 $-1 #
coedge $-1 -1 $-1 $108 $151 $226 $234 reversed $160 $-1 #
loop $-1 -1 $-1 $-1 $158 $210 #
vertex $-1 -1 $-1 $109 $235 #
vertex $-1 -1 $-1 $109 $236 #
straight-curve $-1 -1 $-1 10 0 15 0 1 0 I I #
coedge $-1 -1 $-1 $164 $164 $113 $165 forward $110 $-1 #
edge $-1 -1 $-1 $237 0 $237 6.2831853071795862 $164 $238 forward @7 unknown #
vertex $-1 -1 $-1 $114 $239 #
ellipse-curve $-1 -1 $-1 0 0 -5 0 0 -1 4 0 0 1 I I #
face $-1 -1 $-1 $240 $241 $30 $-1 $242 reversed single #
loop $-1 -1 $-1 $-1 $243 $115 #
coedge $-1 -1 $-1 $244 $245 $246 $247 reversed $116 $-1 #
coedge $-1 -1 $-1 $248 $117 $249 $250 reversed $81 $-1 #
coedge $-1 -1 $-1 $117 $248 $82 $121 forward $81 $-1 #
coedge $-1 -1 $-1 $251 $252 $117 $174 forward $253 $-1 #
edge $-1 -1 $-1 $254 -3.1415926535897931 $185 -1.5707963267948966 $173 $255 forward @7 unknown #
coedge $-1 -1 $-1 $119 $118 $245 $256 forward $56 $-1 #
coedge $-1 -1 $-1 $257 $258 $118 $177 forward $259 $-1 #
edge $-1 -1 $-1 $260 0 $184 1.5707963267948966 $176 $261 forward @7 unknown #
coedge $-1 -1 $-1 $262 $263 $119 $179 forward $264 $-1 #
edge $-1 -1 $-1 $185 -1.5707963267948966 $265 0 $178 $255 forward @7 unknown #
coedge $-1 -1 $-1 $266 $120 $263 $267 reversed $183 $-1 #
coedge $-1 -1 $-1 $120 $266 $257 $268 reversed $183 $-1 #
coedge $-1 -1 $-1 $269 $270 $172 $121 reversed $271 $-1 #
loop $-1 -1 $-1 $-1 $120 $272 #
vertex $-1 -1 $-1 $268 $273 #
vertex $-1 -1 $-1 $274 $275 #
straight-curve $-1 -1 $-1 -3.7491518045553436e-032 10 15 0 0 1 I I #
model_id-kcp-attrib $-1 -1 $-1 $-1 $123 1 1021324052 1021324052 1553530881 7 #
face $276 -1 $-1 $-1 $195 $10 $-1 $277 forward single #
loop $-1 -1 $-1 $-1 $278 $123 #
plane-surface $-1 -1 $-1 0 0 0 0 0 -1 -1 0 0 forward_v I I I I #
loop $-1 -1 $-1 $-1 $279 $84 #
coedge $-1 -1 $-1 $192 $192 $278 $280 reversed $124 $-1 #
coedge $-1 -1 $-1 $193 $193 $127 $194 forward $126 $-1 #
edge $281 -1 $-1 $282 0 $282 6.2831853071795862 $193 $283 forward @7 unknown #
loop $-1 -1 $-1 $284 $128 $188 #
attrib_edge_convexity-kcp-attrib $-1 -1 $285 $-1 $129 2 #
vertex $-1 -1 $-1 $129 $286 #
ellipse-curve $-1 -1 $-1 0 0 15 0 0 -1 6 0 0 1 I I #
convexity-sys-attrib $-1 -1 $-1 $130 $90 #
point $-1 -1 $-1 4 0 30 #
loop $-1 -1 $-1 $-1 $141 $94 #
coedge $-1 -1 $-1 $202 $202 $139 $203 forward $135 $-1 #
edge $287 -1 $-1 $288 -3.1415926535897931 $288 3.1415926535897931 $139 $289 forward @7 unknown #
vertex $-1 -1 $-1 $140 $290 #
ellipse-curve $-1 -1 $-1 -3.7491518045553436e-032 0 15 0 0 -1 10 0 0 1 I I #
convexity-sys-attrib $-1 -1 $-1 $-1 $142 #
vertex $-1 -1 $-1 $142 $291 #
ellipse-curve $-1 -1 $-1 0 0 0 0 0 1 6 0 0 1 I I #
point $-1 -1 $-1 6 0 15 #
face $-1 -1 $-1 $-1 $160 $26 $-1 $292 reversed single #
loop $-1 -1 $-1 $-1 $226 $145 #
plane-surface $-1 -1 $-1 0 10 0 0 -1 0 0 0 -1 forward_v I I I I #
coedge $-1 -1 $-1 $293 $224 $227 $294 forward $146 $-1 #
coedge $-1 -1 $-1 $230 $148 $149 $218 reversed $103 $-1 #
coedge $-1 -1 $-1 $224 $293 $148 $216 reversed $146 $-1 #
edge $-1 -1 $-1 $231 -15 $295 15 $215 $296 forward @7 unknown #
coedge $-1 -1 $-1 $150 $149 $293 $297 forward $72 $-1 #
edge $-1 -1 $-1 $222 -10 $295 10 $214 $298 forward @7 unknown #
coedge $-1 -1 $-1 $227 $226 $150 $220 reversed $211 $-1 #
edge $-1 -1 $-1 $299 -10 $221 10 $219 $300 forward @7 unknown #
vertex $-1 -1 $-1 $152 $301 #
vertex $-1 -1 $-1 $233 $302 #
straight-curve $-1 -1 $-1 10 0 -15 0 -1 0 I I #
coedge $-1 -1 $-1 $213 $215 $153 $225 reversed $146 $-1 #
edge $-1 -1 $-1 $228 -10 $231 10 $224 $303 forward @7 unknown #
coedge $-1 -1 $-1 $219 $154 $159 $234 forward $211 $-1 #
coedge $-1 -1 $-1 $154 $219 $213 $294 reversed $211 $-1 #
vertex $-1 -1 $-1 $155 $304 #
straight-curve $-1 -1 $-1 0 10 15 -1 0 0 I I #
coedge $-1 -1 $-1 $156 $214 $158 $233 reversed $103 $-1 #
vertex $-1 -1 $-1 $225 $305 #
straight-curve $-1 -1 $-1 0 -10 15 1 0 0 I I #
edge $-1 -1 $-1 $161 -15 $222 15 $158 $306 forward @7 unknown #
edge $-1 -1 $-1 $162 -15 $221 15 $159 $307 forward @7 unknown #
point $-1 -1 $-1 10 -10 15 #
point $-1 -1 $-1 10 10 15 #
vertex $-1 -1 $-1 $165 $308 #
ellipse-curve $-1 -1 $-1 0 0 5 0 0 1 4 0 0 1 I I #
point $-1 -1 $-1 4 0 -5 #
face $-1 -1 $-1 $309 $271 $30 $-1 $310 reversed single #
loop $-1 -1 $-1 $-1 $311 $168 #
plane-surface $-1 -1 $-1 10 0 0 -1 0 0 0 0 1 forward_v I I I I #
coedge $-1 -1 $-1 $312 $313 $314 $315 reversed $169 $-1 #
coedge $-1 -1 $-1 $316 $170 $313 $317 forward $116 $-1 #
coedge $-1 -1 $-1 $170 $316 $318 $256 reversed $116 $-1 #
coedge $-1 -1 $-1 $319 $320 $170 $247 forward $321 $-1 #
edge $-1 -1 $-1 $322 -1.5707963267948966 $260 0 $246 $261 forward @7 unknown #
coedge $-1 -1 $-1 $172 $171 $323 $324 reversed $81 $-1 #
coedge $-1 -1 $-1 $325 $326 $327 $250 forward $328 $-1 #
edge $-1 -1 $-1 $329 -30 $254 0 $249 $330 forward @7 unknown #
coedge $-1 -1 $-1 $252 $173 $270 $274 forward $253 $-1 #
coedge $-1 -1 $-1 $173 $251 $325 $331 forward $253 $-1 #
loop $-1 -1 $-1 $-1 $173 $332 #
vertex $-1 -1 $-1 $333 $334 #
ellipse-curve $-1 -1 $-1 -3.7491518045553436e-032 0 15 0 0 -1 10 0 0 1 I I #
edge $-1 -1 $-1 $260 -30 $265 0 $318 $335 forward @7 unknown #
coedge $-1 -1 $-1 $258 $176 $181 $268 forward $259 $-1 #
coedge $-1 -1 $-1 $176 $257 $336 $337 forward $259 $-1 #
loop $-1 -1 $-1 $-1 $176 $338 #
vertex $-1 -1 $-1 $339 $340 #
ellipse-curve $-1 -1 $-1 -3.7491518045553436e-032 0 -15 0 0 1 10 0 0 1 I I #
coedge $-1 -1 $-1 $263 $178 $341 $342 forward $264 $-1 #
coedge $-1 -1 $-1 $178 $262 $180 $267 forward $264 $-1 #
loop $-1 -1 $-1 $-1 $178 $343 #
vertex $-1 -1 $-1 $342 $344 #
coedge $-1 -1 $-1 $181 $180 $345 $346 forward $183 $-1 #
edge $-1 -1 $-1 $347 -10 $185 3.7491518045553436e-032 $180 $348 forward @7 unknown #
edge $-1 -1 $-1 $184 -3.7491518045553436e-032 $349 10 $181 $350 forward @7 unknown #
coedge $-1 -1 $-1 $351 $182 $352 $353 reversed $271 $-1 #
coedge $-1 -1 $-1 $182 $351 $251 $274 reversed $271 $-1 #
loop $-1 -1 $-1 $-1 $182 $240 #
face $-1 -1 $-1 $354 $183 $30 $-1 $310 reversed single #
point $-1 -1 $-1 -3.7491518045553436e-032 10 -15 #
edge $-1 -1 $-1 $185 3.7491518045553436e-032 $355 10 $270 $348 forward @7 unknown #
point $-1 -1 $-1 -3.7491518045553436e-032 10 15 #
model_id-kcp-attrib $-1 -1 $-1 $-1 $188 1 1021324052 1021324052 1553530881 8 #
plane-surface $-1 -1 $-1 0 0 15 0 0 1 1 0 0 forward_v I I I I #
coedge $-1 -1 $-1 $278 $278 $192 $280 forward $189 $-1 #
coedge $-1 -1 $-1 $279 $279 $356 $357 reversed $191 $-1 #
edge $-1 -1 $-1 $358 0 $358 6.2831853071795862 $278 $359 forward @7 unknown #
attrib_edge_convexity-kcp-attrib $-1 -1 $360 $-1 $194 1 #
vertex $-1 -1 $-1 $194 $361 #
ellipse-curve $-1 -1 $-1 0 0 30 0 0 1 6 0 0 1 I I #
loop $-1 -1 $-1 $-1 $356 $188 #
convexity-sys-attrib $-1 -1 $-1 $196 $129 #
point $-1 -1 $-1 6 0 15 #
convexity-sys-attrib $-1 -1 $-1 $-1 $203 #
vertex $-1 -1 $-1 $203 $362 #
ellipse-curve $-1 -1 $-1 -3.7491518045553436e-032 0 0 0 0 -1 10 0 0 1 I I #
point $-1 -1 $-1 -10 1.2246063538223773e-015 15 #
point $-1 -1 $-1 6 0 0 #
plane-surface $-1 -1 $-1 10 0 0 -1 0 0 0 0 1 forward_v I I I I #
coedge $-1 -1 $-1 $215 $213 $217 $297 reversed $146 $-1 #
edge $-1 -1 $-1 $228 -15 $299 15 $227 $363 forward @7 unknown #
vertex $-1 -1 $-1 $297 $364 #
straight-curve $-1 -1 $-1 -10 -10 0 0 0 -1 I I #
edge $-1 -1 $-1 $295 -10 $299 10 $293 $365 forward @7 unknown #
straight-curve $-1 -1 $-1 0 -10 -15 -1 0 0 I I #
vertex $-1 -1 $-1 $220 $366 #
straight-curve $-1 -1 $-1 0 10 -15 1 0 0 I I #
point $-1 -1 $-1 10 10 -15 #
point $-1 -1 $-1 10 -10 -15 #
straight-curve $-1 -1 $-1 -10 0 15 0 -1 0 I I #
point $-1 -1 $-1 -10 10 15 #
point $-1 -1 $-1 -10 -10 15 #
straight-curve $-1 -1 $-1 10 -10 0 0 0 -1 I I #
straight-curve $-1 -1 $-1 10 10 0 0 0 -1 I I #
point $-1 -1 $-1 4 0 5 #
face $-1 -1 $-1 $367 $368 $30 $-1 $369 reversed single #
plane-surface $-1 -1 $-1 0 10 0 0 -1 0 0 0 -1 forward_v I I I I #
coedge $-1 -1 $-1 $336 $341 $175 $256 reversed $241 $-1 #
coedge $-1 -1 $-1 $370 $243 $171 $250 forward $169 $-1 #
coedge $-1 -1 $-1 $243 $370 $371 $317 reversed $169 $-1 #
coedge $-1 -1 $-1 $372 $373 $243 $315 forward $374 $-1 #
edge $-1 -1 $-1 $329 -3.1415926535897931 $322 -1.5707963267948966 $314 $261 forward @7 unknown #
coedge $-1 -1 $-1 $245 $244 $375 $376 reversed $116 $-1 #
edge $-1 -1 $-1 $322 -30 $377 0 $371 $378 forward @7 unknown #
coedge $-1 -1 $-1 $379 $380 $311 $256 forward $381 $-1 #
coedge $-1 -1 $-1 $320 $246 $380 $339 forward $321 $-1 #
coedge $-1 -1 $-1 $246 $319 $382 $383 forward $321 $-1 #
loop $-1 -1 $-1 $-1 $246 $384 #
vertex $-1 -1 $-1 $385 $386 #
coedge $-1 -1 $-1 $387 $352 $248 $324 forward $388 $-1 #
edge $-1 -1 $-1 $184 1.5707963267948966 $329 3.1415926535897931 $323 $261 forward @7 unknown #
coedge $-1 -1 $-1 $389 $249 $252 $331 reversed $328 $-1 #
coedge $-1 -1 $-1 $249 $389 $387 $390 reversed $328 $-1 #
coedge $-1 -1 $-1 $391 $392 $312 $250 reversed $368 $-1 #
loop $-1 -1 $-1 $-1 $249 $393 #
vertex $-1 -1 $-1 $390 $394 #
straight-curve $-1 -1 $-1 -10 0 15 0 0 1 I I #
edge $-1 -1 $-1 $355 -10 $254 0 $325 $395 forward @7 unknown #
face $-1 -1 $-1 $343 $253 $30 $-1 $396 forward single #
edge $-1 -1 $-1 $254 0 $397 10 $392 $395 forward @7 unknown #
point $-1 -1 $-1 -10 0 15 #
straight-curve $-1 -1 $-1 10 0 15 0 0 1 I I #
coedge $-1 -1 $-1 $345 $311 $258 $337 reversed $241 $-1 #
edge $-1 -1 $-1 $349 -10 $260 0 $336 $398 forward @7 unknown #
face $-1 -1 $-1 $399 $259 $30 $-1 $400 reversed single #
edge $-1 -1 $-1 $260 0 $401 10 $380 $398 forward @7 unknown #
point $-1 -1 $-1 10 0 -15 #
coedge $-1 -1 $-1 $311 $345 $262 $342 reversed $241 $-1 #
edge $-1 -1 $-1 $265 0 $347 10 $341 $402 forward @7 unknown #
face $-1 -1 $-1 $403 $264 $30 $-1 $396 forward single #
point $-1 -1 $-1 10 0 15 #
coedge $-1 -1 $-1 $341 $336 $266 $346 reversed $241 $-1 #
edge $-1 -1 $-1 $347 -15 $349 15 $345 $404 forward @7 unknown #
vertex $-1 -1 $-1 $342 $405 #
straight-curve $-1 -1 $-1 0 10 15 -1 0 0 I I #
vertex $-1 -1 $-1 $337 $406 #
straight-curve $-1 -1 $-1 0 10 -15 1 0 0 I I #
coedge $-1 -1 $-1 $270 $269 $389 $407 reversed $271 $-1 #
coedge $-1 -1 $-1 $323 $387 $269 $353 forward $388 $-1 #
edge $-1 -1 $-1 $408 -10 $184 -3.7491518045553436e-032 $269 $350 forward @7 unknown #
face $-1 -1 $-1 $-1 $381 $30 $-1 $242 reversed single #
vertex $-1 -1 $-1 $274 $409 #
coedge $-1 -1 $-1 $356 $356 $279 $357 forward $284 $-1 #
edge $410 -1 $-1 $411 0 $411 6.2831853071795862 $356 $412 forward @7 unknown #
vertex $-1 -1 $-1 $280 $413 #
ellipse-curve $-1 -1 $-1 0 0 0 0 0 -1 10 0 0 1 I I #
convexity-sys-attrib $-1 -1 $-1 $281 $194 #
point $-1 -1 $-1 6 0 30 #
point $-1 -1 $-1 -10 1.2246063538223773e-015 0 #
straight-curve $-1 -1 $-1 -10 10 0 0 0 -1 I I #
point $-1 -1 $-1 -10 -10 -15 #
straight-curve $-1 -1 $-1 -10 0 -15 0 1 0 I I #
point $-1 -1 $-1 -10 10 -15 #
face $-1 -1 $-1 $332 $414 $30 $-1 $396 forward single #
loop $-1 -1 $-1 $-1 $327 $309 #
plane-surface $-1 -1 $-1 -10 0 0 1 0 0 0 0 -1 forward_v I I I I #
coedge $-1 -1 $-1 $313 $312 $415 $416 reversed $169 $-1 #
coedge $-1 -1 $-1 $417 $418 $419 $317 forward $420 $-1 #
coedge $-1 -1 $-1 $373 $314 $418 $385 forward $374 $-1 #
coedge $-1 -1 $-1 $314 $372 $391 $421 forward $374 $-1 #
loop $-1 -1 $-1 $-1 $314 $422 #
coedge $-1 -1 $-1 $423 $424 $316 $376 forward $425 $-1 #
edge $-1 -1 $-1 $265 0 $377 1.5707963267948966 $375 $255 forward @7 unknown #
vertex $-1 -1 $-1 $426 $427 #
straight-curve $-1 -1 $-1 -3.7491518045553436e-032 -10 15 0 0 1 I I #
coedge $-1 -1 $-1 $428 $318 $424 $429 reversed $381 $-1 #
coedge $-1 -1 $-1 $318 $428 $319 $339 reversed $381 $-1 #
loop $-1 -1 $-1 $-1 $318 $354 #
coedge $-1 -1 $-1 $430 $419 $320 $383 reversed $431 $-1 #
edge $-1 -1 $-1 $401 -10 $322 3.7491518045553436e-032 $382 $432 forward @7 unknown #
face $-1 -1 $-1 $338 $321 $30 $-1 $400 reversed single #
edge $-1 -1 $-1 $322 3.7491518045553436e-032 $433 10 $418 $432 forward @7 unknown #
point $-1 -1 $-1 -3.7491518045553436e-032 -10 -15 #
coedge $-1 -1 $-1 $352 $323 $326 $390 forward $388 $-1 #
loop $-1 -1 $-1 $-1 $323 $399 #
coedge $-1 -1 $-1 $326 $325 $351 $407 forward $328 $-1 #
edge $-1 -1 $-1 $329 0 $408 10 $326 $434 forward @7 unknown #
coedge $-1 -1 $-1 $435 $327 $373 $421 reversed $368 $-1 #
coedge $-1 -1 $-1 $327 $435 $436 $333 reversed $368 $-1 #
face $-1 -1 $-1 $272 $328 $30 $-1 $369 reversed single #
point $-1 -1 $-1 -10 0 -15 #
straight-curve $-1 -1 $-1 -10 0 15 0 -1 0 I I #
plane-surface $-1 -1 $-1 0 0 15 0 0 1 1 0 0 forward_v I I I I #
vertex $-1 -1 $-1 $333 $437 #
straight-curve $-1 -1 $-1 10 0 -15 0 -1 0 I I #
face $-1 -1 $-1 $438 $388 $30 $-1 $400 reversed single #
plane-surface $-1 -1 $-1 0 0 -15 0 0 1 1 0 0 forward_v I I I I #
vertex $-1 -1 $-1 $439 $440 #
straight-curve $-1 -1 $-1 10 0 15 0 1 0 I I #
face $-1 -1 $-1 $441 $425 $30 $-1 $396 forward single #
straight-curve $-1 -1 $-1 10 10 0 0 0 -1 I I #
point $-1 -1 $-1 10 10 15 #
point $-1 -1 $-1 10 10 -15 #
edge $-1 -1 $-1 $355 -15 $408 15 $351 $442 forward @7 unknown #
vertex $-1 -1 $-1 $353 $443 #
point $-1 -1 $-1 -10 10 15 #
attrib_edge_convexity-kcp-attrib $-1 -1 $444 $-1 $357 1 #
vertex $-1 -1 $-1 $357 $445 #
ellipse-curve $-1 -1 $-1 0 0 15 0 0 1 10 0 0 1 I I #
point $-1 -1 $-1 10 0 0 #
loop $-1 -1 $-1 $-1 $415 $367 #
coedge $-1 -1 $-1 $436 $446 $370 $416 forward $414 $-1 #
edge $-1 -1 $-1 $377 1.5707963267948966 $254 3.1415926535897931 $415 $255 forward @7 unknown #
coedge $-1 -1 $-1 $447 $371 $446 $448 reversed $420 $-1 #
coedge $-1 -1 $-1 $371 $447 $372 $385 reversed $420 $-1 #
coedge $-1 -1 $-1 $382 $449 $244 $317 reversed $431 $-1 #
loop $-1 -1 $-1 $-1 $371 $438 #
edge $-1 -1 $-1 $433 -10 $329 0 $391 $434 forward @7 unknown #
face $-1 -1 $-1 $384 $374 $30 $-1 $400 reversed single #
coedge $-1 -1 $-1 $424 $375 $449 $426 forward $425 $-1 #
coedge $-1 -1 $-1 $375 $423 $379 $429 forward $425 $-1 #
loop $-1 -1 $-1 $-1 $375 $403 #
edge $-1 -1 $-1 $377 -3.7491518045553436e-032 $450 10 $449 $451 forward @7 unknown #
point $-1 -1 $-1 -3.7491518045553436e-032 -10 15 #
coedge $-1 -1 $-1 $380 $379 $430 $439 forward $381 $-1 #
edge $-1 -1 $-1 $450 -10 $265 0 $379 $402 forward @7 unknown #
coedge $-1 -1 $-1 $449 $382 $428 $439 reversed $431 $-1 #
loop $-1 -1 $-1 $-1 $419 $441 #
straight-curve $-1 -1 $-1 0 -10 -15 -1 0 0 I I #
vertex $-1 -1 $-1 $421 $452 #
straight-curve $-1 -1 $-1 -10 0 -15 0 1 0 I I #
coedge $-1 -1 $-1 $392 $391 $447 $453 reversed $368 $-1 #
coedge $-1 -1 $-1 $446 $415 $392 $333 forward $414 $-1 #
point $-1 -1 $-1 -10 -10 15 #
face $-1 -1 $-1 $393 $420 $30 $-1 $454 reversed single #
edge $-1 -1 $-1 $450 -15 $401 15 $428 $455 forward @7 unknown #
point $-1 -1 $-1 10 -10 -15 #
face $-1 -1 $-1 $422 $431 $30 $-1 $454 reversed single #
straight-curve $-1 -1 $-1 -10 10 0 0 0 -1 I I #
point $-1 -1 $-1 -10 10 -15 #
convexity-sys-attrib $-1 -1 $-1 $410 $357 #
point $-1 -1 $-1 10 0 15 #
coedge $-1 -1 $-1 $415 $436 $417 $448 forward $414 $-1 #
coedge $-1 -1 $-1 $418 $417 $435 $453 forward $420 $-1 #
edge $-1 -1 $-1 $397 -10 $377 -3.7491518045553436e-032 $417 $451 forward @7 unknown #
coedge $-1 -1 $-1 $419 $430 $423 $426 reversed $431 $-1 #
vertex $-1 -1 $-1 $429 $456 #
straight-curve $-1 -1 $-1 0 -10 15 1 0 0 I I #
point $-1 -1 $-1 -10 -10 -15 #
edge $-1 -1 $-1 $397 -15 $433 15 $435 $457 forward @7 unknown #
plane-surface $-1 -1 $-1 0 -10 0 0 1 0 0 0 1 forward_v I I I I #
straight-curve $-1 -1 $-1 10 -10 0 0 0 -1 I I #
point $-1 -1 $-1 10 -10 15 #
straight-curve $-1 -1 $-1 -10 -10 0 0 0 -1 I I #
End-of-ACIS-data 