600 0 1 0           
113 GICL Pro/E ACIS Translator - Source: f:/data5/repository/PTC/V20/web_demos/models/customize/electrode.prt.2 - 6 0 13 ACIS 6.0.3 NT 24 Thu Apr 04 13:10:31 2002 
1 9.9999999999999995e-007 1e-010 
body $-1 $1 $-1 $2 #
lump $-1 $-1 $3 $0 #
transform $-1 1 0 0 0 1 0 0 0 1 0 0 0 25.399999999999999 no_rotate no_reflect no_shear #
shell $-1 $-1 $-1 $4 $-1 $1 #
face $-1 $5 $6 $3 $-1 $7 reversed single #
face $-1 $8 $9 $3 $-1 $10 forward single #
loop $-1 $-1 $11 $4 #
plane-surface $-1 0 0 0 0 0 1 1 0 0 forward_v I I I I #
face $-1 $12 $13 $3 $-1 $14 forward single #
loop $-1 $-1 $15 $5 #
plane-surface $-1 0 2 0 -1 0 0 0 -1 0 forward_v I I I I #
coedge $-1 $16 $17 $18 $19 reversed $6 $-1 #
face $-1 $20 $21 $3 $-1 $22 forward single #
loop $-1 $-1 $23 $8 #
plane-surface $-1 0 0 0 0 -1 0 1 0 0 forward_v I I I I #
coedge $-1 $24 $18 $25 $26 forward $9 $-1 #
coedge $-1 $27 $11 $28 $29 reversed $6 $-1 #
coedge $-1 $11 $27 $30 $31 reversed $6 $-1 #
coedge $-1 $15 $32 $11 $19 forward $9 $-1 #
edge $-1 $33 0 $34 2 $11 $35 forward 7 unknown #
face $-1 $36 $37 $3 $-1 $38 forward single #
loop $-1 $-1 $39 $12 #
plane-surface $-1 2 0 0 1 0 0 0 1 0 forward_v I I I I #
coedge $-1 $40 $30 $41 $42 forward $13 $-1 #
coedge $-1 $32 $15 $43 $44 reversed $9 $-1 #
coedge $-1 $30 $40 $15 $26 reversed $13 $-1 #
edge $-1 $34 0 $45 0.375 $25 $46 forward 7 unknown #
coedge $-1 $17 $16 $47 $48 reversed $6 $-1 #
coedge $-1 $49 $50 $16 $29 forward $37 $-1 #
edge $-1 $51 0 $33 2 $16 $52 forward 7 unknown #
coedge $-1 $23 $25 $17 $31 forward $13 $-1 #
edge $-1 $34 0 $53 2 $17 $54 forward 7 unknown #
coedge $-1 $18 $24 $49 $55 reversed $9 $-1 #
vertex $-1 $29 $56 #
vertex $-1 $31 $57 #
straight-curve $-1 0 2 0 0 -1 0 I I #
face $-1 $58 $59 $3 $-1 $60 forward single #
loop $-1 $-1 $49 $20 #
plane-surface $-1 2 2 0 0 1 0 -1 0 0 forward_v I I I I #
coedge $-1 $61 $47 $50 $62 forward $21 $-1 #
coedge $-1 $25 $23 $63 $64 reversed $13 $-1 #
coedge $-1 $47 $61 $23 $42 reversed $21 $-1 #
edge $-1 $53 0 $65 0.375 $23 $66 forward 7 unknown #
coedge $-1 $63 $67 $24 $44 forward $59 $-1 #
edge $-1 $68 0 $45 2 $43 $69 forward 7 unknown #
vertex $-1 $64 $70 #
straight-curve $-1 0 0 0 0 0 1 I I #
coedge $-1 $39 $41 $27 $48 forward $21 $-1 #
edge $-1 $53 0 $51 2 $27 $71 forward 7 unknown #
coedge $-1 $72 $28 $32 $55 forward $37 $-1 #
coedge $-1 $28 $72 $39 $62 reversed $37 $-1 #
vertex $-1 $48 $73 #
straight-curve $-1 2 2 0 -1 0 0 I I #
vertex $-1 $31 $74 #
straight-curve $-1 0 0 0 1 0 0 I I #
edge $-1 $33 0 $68 0.375 $49 $75 forward 7 unknown #
point $-1 0 2 0 #
point $-1 0 0 0 #
face $-1 $76 $77 $3 $-1 $78 reversed single #
loop $-1 $79 $80 $36 #
plane-surface $-1 0 0 0.375 0 0 1 1 0 0 forward_v I I I I #
coedge $-1 $41 $39 $80 $81 reversed $21 $-1 #
edge $-1 $51 0 $82 0.375 $39 $83 forward 7 unknown #
coedge $-1 $80 $43 $40 $64 forward $59 $-1 #
edge $-1 $45 0 $65 2 $63 $84 forward 7 unknown #
vertex $-1 $64 $85 #
straight-curve $-1 2 0 0 0 0 1 I I #
coedge $-1 $43 $80 $72 $86 forward $59 $-1 #
vertex $-1 $44 $87 #
straight-curve $-1 0 2 0.375 0 -1 0 I I #
point $-1 0 0 0.375 #
straight-curve $-1 2 0 0 0 1 0 I I #
coedge $-1 $50 $49 $67 $86 reversed $37 $-1 #
point $-1 2 2 0 #
point $-1 2 0 0 #
straight-curve $-1 0 2 0 0 0 1 I I #
face $-1 $88 $89 $3 $-1 $90 reversed single #
loop $-1 $-1 $91 $58 #
torus-surface $-1 1.1751838927632787 0.43399041199260224 0.40500000000000003 0 0 -1 0.155 0.029999999999999999 0.33191353097976101 -0.94330981546496551 0 forward_v I I I I #
loop $-1 $-1 $92 $36 #
coedge $-1 $67 $63 $61 $81 forward $59 $-1 #
edge $-1 $65 0 $82 2 $80 $93 forward 7 unknown #
vertex $-1 $86 $94 #
straight-curve $-1 2 2 0 0 0 1 I I #
straight-curve $-1 0 0 0.375 1 0 0 I I #
point $-1 2 0 0.375 #
edge $-1 $82 0 $68 2 $67 $95 forward 7 unknown #
point $-1 0 2 0.375 #
face $-1 $96 $97 $3 $-1 $98 reversed single #
loop $-1 $-1 $99 $76 #
torus-surface $-1 1.5007993610219565 0.62 0.40500000000000003 0 0 1 0.5299999999999998 0.029999999999999999 0.94277476979292163 -0.33343025273946553 0 forward_v I I I I #
coedge $-1 $100 $101 $102 $103 forward $77 $-1 #
coedge $-1 $104 $105 $100 $106 forward $79 $-1 #
straight-curve $-1 2 0 0.375 0 1 0 I I #
point $-1 2 2 0.375 #
straight-curve $-1 2 2 0.375 -1 0 0 I I #
face $-1 $107 $108 $3 $-1 $109 forward single #
loop $-1 $-1 $110 $88 #
cone-surface $-1 1 0.47999999999999998 0.375 0 0 1 0.02 0 0 1 I I 0 1 0.02 forward I I I I #
coedge $-1 $111 $112 $110 $113 reversed $89 $-1 #
coedge $-1 $114 $91 $92 $106 reversed $77 $-1 #
coedge $-1 $91 $114 $115 $116 forward $77 $-1 #
coedge $-1 $112 $117 $91 $103 reversed $89 $-1 #
edge $-1 $118 -1.1219355096476401e-025 $119 1.570796326794891 $102 $120 forward 7 unknown #
coedge $-1 $121 $92 $117 $122 forward $79 $-1 #
coedge $-1 $92 $123 $124 $125 forward $79 $-1 #
edge $-1 $126 6.101318628069172e-015 $119 1.3519368070697559 $92 $127 forward 7 unknown #
face $-1 $128 $129 $3 $-1 $130 forward single #
loop $-1 $-1 $131 $96 #
cone-surface $-1 1.5007993610219565 0.62 0.375 0 0 1 0.5 0 0 1 I I 0 1 0.5 forward I I I I #
coedge $-1 $132 $133 $99 $113 forward $97 $-1 #
coedge $-1 $117 $99 $134 $135 forward $89 $-1 #
coedge $-1 $99 $102 $136 $137 forward $89 $-1 #
edge $-1 $138 0 $139 1 $110 $140 forward 7 unknown #
coedge $-1 $101 $100 $141 $142 reversed $77 $-1 #
coedge $-1 $143 $144 $101 $116 reversed $129 $-1 #
edge $-1 $145 5.8813309777860974e-010 $118 1.3519365542920141 $115 $146 forward 7 unknown #
coedge $-1 $102 $111 $104 $122 reversed $89 $-1 #
vertex $-1 $137 $147 #
vertex $-1 $122 $148 #
ellipse-curve $-1 1.0405961659133549 0.35710644889645116 0.4050000000000003 -0.49602556979478807 0.86830791434246168 2.0381767261633852e-009 0.026049237430274097 0.014880767093843783 -2.7755575615628914e-016 1 I I #
coedge $-1 $149 $104 $150 $151 forward $79 $-1 #
edge $-1 $119 0 $152 0.18600474329858788 $104 $153 forward 7 unknown #
coedge $-1 $105 $154 $155 $156 reversed $79 $-1 #
coedge $-1 $157 $141 $105 $125 reversed $158 $-1 #
edge $-1 $159 0 $126 0.70232612191095101 $105 $160 forward 7 unknown #
vertex $-1 $125 $161 #
ellipse-curve $-1 1.1751838812413427 0.43399038279100544 0.375 0 0 -1 0.045828709206844787 -0.14806998960202611 0 1 I I #
face $-1 $162 $163 $3 $-1 $164 forward single #
loop $-1 $-1 $143 $107 #
cone-surface $-1 1.1751838927632787 0.43399041199260224 0.879632686468375 0 0 -1 -0.10853848941955942 -0.062003196002465809 0 1 I I 0 1 0.125 forward I I I I #
coedge $-1 $165 $136 $144 $166 reversed $108 $-1 #
coedge $-1 $167 $110 $168 $169 forward $97 $-1 #
coedge $-1 $110 $170 $171 $172 forward $97 $-1 #
coedge $-1 $171 $150 $111 $135 reversed $173 $-1 #
edge $-1 $138 0 $152 1 $134 $174 forward 7 unknown #
coedge $-1 $131 $168 $112 $137 reversed $108 $-1 #
edge $-1 $118 0 $139 0.24642132557838348 $136 $175 forward 7 unknown #
vertex $-1 $172 $176 #
vertex $-1 $137 $177 #
intcurve-curve $-1 forward { surfintcur full nurbs 3 open 5 
	0 3 0.25036007114526232 1 0.50029404031407032 1 0.75030883662866876 1 1 3 
	1.0000424113332527 0.49999995503191974 0.37905716786866767 1 
	1.0027921282667851 0.4998537012738688 0.38069537297897882 0.99999999999999978 
	1.0077046753603722 0.4989489286240073 0.38428373813065503 1 
	1.013287280743683 0.49536519667009321 0.3908565584646167 0.99999999999999978 
	1.0172029626953343 0.49073365017456771 0.39786972629924638 1.0000000000000002 
	1.0187545697558691 0.4872497387028536 0.40260146055039858 1 
	1.0192615138854599 0.48538461538461536 0.40500000000000008 1 
	0.001 
	torus 1.5007993610219565 0.62 0.40500000000000003 0 0 1 0.5299999999999998 0.029999999999999999 0.94277476979292163 -0.33343025273946553 0 forward_v I I I I 
	cone 1 0.47999999999999998 0.375 0 0 1 0.02 0 0 1 I I 0 1 0.02 forward I I I I 
	nullbs 
	nullbs 
	I F 0.99997298037772941 
	0 
	1 0.99997298037772941 
	0 
	} I I #
coedge $-1 $124 $178 $114 $142 forward $158 $-1 #
edge $-1 $145 -5.7133244637550423e-017 $126 1.570796326794897 $141 $179 forward 7 unknown #
coedge $-1 $180 $115 $181 $182 reversed $129 $-1 #
coedge $-1 $115 $180 $131 $166 forward $129 $-1 #
vertex $-1 $183 $184 #
ellipse-curve $-1 1.1751838927632787 0.43399041199260224 0.40500000000000003 0 0 -1 0.036958627242931863 -0.11941130546274936 0 1 I I #
point $-1 1.066645403343629 0.37198721599029494 0.40500000000000003 #
point $-1 1.0405961658830252 0.35710644894954408 0.375 #
coedge $-1 $185 $121 $186 $187 forward $79 $-1 #
coedge $-1 $134 $188 $121 $151 reversed $173 $-1 #
edge $-1 $152 0 $189 0.19268035866117506 $121 $190 forward 7 unknown #
vertex $-1 $151 $191 #
ellipse-curve $-1 1.5007993610219861 0.62000000000001254 0.375 0 0 -1 -0.46020319513896091 -0.26289355105046847 0 1 I I #
coedge $-1 $123 $192 $193 $194 forward $79 $-1 #
coedge $-1 $195 $196 $123 $156 forward $197 $-1 #
edge $-1 $159 -1.1102230246251565e-016 $198 0.80462724288952503 $123 $199 forward 7 unknown #
coedge $-1 $178 $124 $196 $200 reversed $158 $-1 #
loop $-1 $-1 $141 $201 #
vertex $-1 $125 $202 #
ellipse-curve $-1 0.99999999999999578 1.000000000000006 0.375 0 0 -1 0.630000000000005 -0.40231362144476845 0 1 I I #
point $-1 1.2210125904481866 0.28592039318897899 0.375 #
face $-1 $203 $204 $3 $-1 $205 reversed single #
loop $-1 $-1 $206 $128 #
cone-surface $-1 1 1 0.375 0 0 1 0.71750000000000003 0 0 1 I I 0 1 0.71750000000000003 forward I I I I #
coedge $-1 $168 $131 $207 $208 forward $108 $-1 #
edge $-1 $209 0 $118 0.45999999999999996 $131 $210 forward 7 unknown #
coedge $-1 $170 $132 $211 $212 forward $97 $-1 #
coedge $-1 $136 $165 $132 $169 reversed $108 $-1 #
edge $-1 $139 -5.5511151231257827e-017 $213 0.45999999999999991 $168 $214 forward 7 unknown #
coedge $-1 $133 $167 $215 $216 reversed $97 $-1 #
coedge $-1 $217 $134 $133 $172 reversed $173 $-1 #
edge $-1 $218 0 $138 1.0000000000000002 $133 $219 forward 7 unknown #
loop $-1 $-1 $188 $220 #
intcurve-curve $-1 forward { surfintcur full nurbs 3 open 4 
	0 3 0.33259416583787671 1 0.66592749796470596 1 1 3 
	1.0000424113332527 0.4999999550319198 0.37905716786866767 1 
	1.0000309798946194 0.49418741398577765 0.37824534353022432 1 
	1.0000063913573785 0.48248853987820683 0.37685938163599048 1 
	0.99996432932545187 0.46472563423856172 0.37537213415307102 0.99999999999999978 
	0.99993287245474716 0.45276429539846003 0.37502964416832502 0.99999999999999989 
	0.99991627423590101 0.4467483524705389 0.375 1 
	0.001 
	torus 0.50783851185333928 0.62 0.40500000000000003 0 0 1 0.52168635941828245 0.029999999999999999 0.98883182163257077 -0.14903566192966022 0 forward_v I I I I 
	torus 1.5007993610219565 0.62 0.40500000000000003 0 0 1 0.5299999999999998 0.029999999999999999 0.94277476979292163 -0.33343025273946553 0 forward_v I I I I 
	nullbs 
	nullbs 
	I F 0.99998148989671909 
	0 
	1 0.99998148989671909 
	0 
	} I I #
ellipse-curve $-1 1.5007993610219565 0.62 0.40500000000000003 0 0 -1 -0.43415395767832754 -0.24801278400970506 0 1 I I #
point $-1 1.0000424113332529 0.4999999550319198 0.37905716786866767 #
point $-1 1.0192615138854599 0.48538461538461525 0.40500000000000003 #
coedge $-1 $141 $157 $221 $183 forward $158 $-1 #
ellipse-curve $-1 1.2210125897800264 0.28592039298217875 0.40499999999999997 -0.95529045158913706 -0.29566899246052541 -2.3314414636895239e-008 -0.0088700697738157697 0.028658713547674131 5.5511151231257827e-017 1 I I #
coedge $-1 $144 $143 $222 $223 forward $129 $-1 #
coedge $-1 $221 $224 $143 $182 forward $163 $-1 #
edge $-1 $225 0 $145 0.45999999999999996 $181 $226 forward 7 unknown #
edge $-1 $227 0 $145 0.69022881186808893 $221 $228 forward 7 unknown #
point $-1 1.2121425199359808 0.31457910650811655 0.40500000000000003 #
coedge $-1 $229 $149 $230 $231 forward $79 $-1 #
coedge $-1 $232 $233 $149 $187 reversed $234 $-1 #
edge $-1 $189 0 $235 1.3411968312107441 $149 $236 forward 7 unknown #
coedge $-1 $150 $217 $232 $237 forward $173 $-1 #
vertex $-1 $187 $238 #
ellipse-curve $-1 0.50783851185331197 0.62000000000001432 0.375 0 0 -1 0.49207776238258916 -0.17325164752947547 0 1 I I #
point $-1 0.99991627423590113 0.44674835247053885 0.375 #
coedge $-1 $154 $239 $240 $241 forward $79 $-1 #
coedge $-1 $242 $243 $154 $194 reversed $244 $-1 #
edge $-1 $245 0 $198 0.091893501254178014 $154 $246 forward 7 unknown #
coedge $-1 $247 $155 $243 $248 forward $197 $-1 #
coedge $-1 $155 $247 $157 $200 forward $197 $-1 #
loop $-1 $-1 $195 $249 #
vertex $-1 $156 $250 #
straight-curve $-1 1.6300000000000001 0.59768637855523765 0.375 0 1 0 I I #
edge $-1 $227 0 $159 0.99999999999999989 $157 $251 forward 7 unknown #
face $-1 $-1 $158 $3 $-1 $252 reversed single #
point $-1 1.6300000000000008 0.59768637855523754 0.375 #
face $-1 $253 $254 $3 $-1 $255 forward single #
loop $-1 $-1 $256 $162 #
plane-surface $-1 1.5999999999999999 0.19999999999999998 0.375 -1 0 0 0 1 0 forward_v I I I I #
coedge $-1 $224 $221 $257 $258 reversed $163 $-1 #
coedge $-1 $259 $260 $165 $208 reversed $261 $-1 #
edge $-1 $209 0 $213 0.24642132636317915 $165 $262 forward 7 unknown #
vertex $-1 $208 $263 #
straight-curve $-1 1.0666454033437194 0.37198721599013646 0.86499999999999999 0 0 -1 I I #
coedge $-1 $264 $265 $167 $212 reversed $266 $-1 #
edge $-1 $213 0 $267 2.5918592452421838 $167 $268 forward 7 unknown #
vertex $-1 $169 $269 #
straight-curve $-1 1.0192615138854599 0.48538461538461536 0.40500000000000008 0 0 1 I I #
coedge $-1 $270 $271 $170 $216 forward $272 $-1 #
edge $-1 $218 0 $267 0.45999999999999996 $170 $273 forward 7 unknown #
coedge $-1 $188 $171 $271 $274 forward $173 $-1 #
vertex $-1 $172 $275 #
intcurve-curve $-1 forward { surfintcur full nurbs 3 open 5 
	0 3 0.24968997194661002 1 0.49970435514115957 1 0.74963870737641858 1 1.0000000000000002 3 
	0.98076315777867595 0.48547210209625913 0.40500000000000003 1 
	0.98127835821959408 0.48733422444036456 0.40260149809393109 1 
	0.98284512711419569 0.49081000340882158 0.39786980745500483 1 
	0.98677996780949073 0.49542285622247872 0.39085661111584891 1 
	0.99237668418527358 0.49898166748243394 0.38428369294326753 1 
	0.9972924173443648 0.49986535012004474 0.38069535059095755 1 
	1.0000424113332529 0.4999999550319198 0.37905716786866767 1 
	0.001 
	torus 0.50783851185333928 0.62 0.40500000000000003 0 0 1 0.52168635941828245 0.029999999999999999 0.98883182163257077 -0.14903566192966022 0 forward_v I I I I 
	cone 1 0.47999999999999998 0.375 0 0 1 0.02 0 0 1 I I 0 1 0.02 forward I I I I 
	nullbs 
	nullbs 
	F 2.7023660737127252e-005 I 
	0 
	1 2.7023660737127252e-005 
	0 
	} I I #
face $-1 $276 $173 $3 $-1 $277 reversed single #
coedge $-1 $206 $181 $178 $183 reversed $163 $-1 #
coedge $-1 $278 $279 $180 $223 reversed $280 $-1 #
edge $-1 $225 0 $209 1.3519365536407537 $180 $281 forward 7 unknown #
coedge $-1 $181 $206 $282 $283 forward $163 $-1 #
vertex $-1 $182 $284 #
straight-curve $-1 1.2121425199285274 0.31457910650580945 0.86499999999999999 0 0 -1 I I #
vertex $-1 $183 $285 #
ellipse-curve $-1 1 1 0.40500000000000003 0 0 -1 0.60000000000000009 -0.39345425401182244 0 1 I I #
coedge $-1 $286 $185 $287 $288 reversed $79 $-1 #
coedge $-1 $289 $290 $185 $231 reversed $291 $-1 #
edge $-1 $235 0 $292 0.70087301305218419 $185 $293 forward 7 unknown #
coedge $-1 $294 $186 $188 $237 reversed $234 $-1 #
coedge $-1 $186 $294 $289 $295 forward $234 $-1 #
loop $-1 $-1 $233 $276 #
vertex $-1 $231 $296 #
ellipse-curve $-1 0.82399383013508032 0.43424554177097585 0.375 0 0 -1 0.13364028203027645 -0.078519217234599981 0 1 I I #
edge $-1 $297 -5.4767215484868717e-017 $189 1.5707963267948966 $232 $298 forward 7 unknown #
point $-1 0.95763411216535677 0.35572632453637587 0.375 #
coedge $-1 $192 $299 $300 $301 forward $79 $-1 #
coedge $-1 $302 $303 $192 $241 reversed $304 $-1 #
edge $-1 $305 0 $245 1.6130846635301335 $192 $306 forward 7 unknown #
coedge $-1 $307 $193 $303 $308 reversed $244 $-1 #
coedge $-1 $193 $307 $195 $248 reversed $244 $-1 #
loop $-1 $-1 $243 $309 #
vertex $-1 $194 $310 #
ellipse-curve $-1 0.99999999999966516 0.99999999999977418 0.375 0 0 -1 0.59042388285008784 0.45842762630630052 0 1 I I #
coedge $-1 $196 $195 $311 $312 reversed $197 $-1 #
edge $-1 $198 0 $313 0.99999999999999989 $195 $314 forward 7 unknown #
face $-1 $201 $197 $3 $-1 $315 reversed single #
point $-1 1.6300000000000001 1.4023136214447627 0.375 #
intcurve-curve $-1 forward { surfintcur full nurbs 3 open 6 
	0 3 0.20009695222944698 1 0.40007709367405286 1 0.6000811064443351 1 0.80009401946250269 1 
	0.99999999999999989 3 
	1.6000000000000001 0.60654574598817756 0.40500000000000003 1 
	1.6000370067071712 0.60653421245012418 0.40166373587056647 1 
	1.6010354297947007 0.60623656649954083 0.39538964527292619 1 
	1.6055397847324893 0.60489355373363252 0.38677250904053245 0.99999999999999978 
	1.6123458757823506 0.60287375598911142 0.38013632069587699 1.0000000000000002 
	1.6208372738628862 0.6003683799888796 0.37593665996712938 1 
	1.6268452973512666 0.59860820297871487 0.3750136150338681 1 
	1.6300000000000008 0.59768637855523754 0.375 1 
	0.001 
	cone 1.6300000000000001 0.21147397517568745 0.40500000000000003 0 1 0 -0.029999999999999999 0 0 1 I I 0 1 0.029999999999999999 forward I I I I 
	torus 1 1 0.40500000000000003 0 0 1 0.74749999999999983 0.029999999999999999 0.7861086092288484 0.61808838728476823 0 forward_v I I I I 
	nullbs 
	nullbs 
	I F 0.99997972548157388 
	0 
	1 0.99997972548157388 
	0 
	} I I #
torus-surface $-1 1 1 0.40500000000000003 0 0 1 0.74749999999999983 0.029999999999999999 0.7861086092288484 0.61808838728476823 0 forward_v I I I I #
face $-1 $316 $317 $3 $-1 $318 forward single #
loop $-1 $-1 $319 $203 #
cone-surface $-1 1 1 0.375 0 0 1 0.71750000000000003 0 0 1 I I 0 1 0.71750000000000003 forward I I I I #
coedge $-1 $320 $311 $321 $322 reversed $204 $-1 #
coedge $-1 $311 $320 $206 $258 forward $204 $-1 #
edge $-1 $323 0 $227 0.45999999999999996 $206 $324 forward 7 unknown #
coedge $-1 $325 $207 $279 $326 forward $261 $-1 #
coedge $-1 $207 $325 $264 $327 reversed $261 $-1 #
loop $-1 $-1 $259 $328 #
ellipse-curve $-1 1.5007993610219565 0.62 0.86499999999999999 0 0 -1 -0.43415395767812859 -0.24801278401005433 0 1 I I #
point $-1 1.066645403343828 0.37198721598994566 0.86499999999999999 #
coedge $-1 $329 $211 $260 $327 forward $266 $-1 #
coedge $-1 $211 $329 $330 $331 reversed $266 $-1 #
loop $-1 $-1 $264 $332 #
vertex $-1 $216 $333 #
ellipse-curve $-1 1 0.47999999999999998 0.86499999999999999 0 0 1 0.019261513779922579 0.0053846157621369461 0 1 I I #
point $-1 1.0192615137799226 0.48538461576213693 0.86499999999999999 #
coedge $-1 $334 $215 $335 $336 forward $272 $-1 #
coedge $-1 $215 $334 $217 $274 reversed $272 $-1 #
loop $-1 $-1 $215 $337 #
straight-curve $-1 0.98076315777867595 0.48547210209625929 0.40500000000000003 0 0 1 I I #
edge $-1 $218 0 $297 0.25406945545623111 $271 $338 forward 7 unknown #
point $-1 0.98076315777867595 0.48547210209625913 0.40500000000000003 #
face $-1 $339 $234 $3 $-1 $340 reversed single #
torus-surface $-1 0.50783851185333928 0.62 0.40500000000000003 0 0 1 0.52168635941828245 0.029999999999999999 0.98883182163257077 -0.14903566192966022 0 forward_v I I I I #
coedge $-1 $341 $222 $342 $343 forward $280 $-1 #
coedge $-1 $222 $341 $259 $326 reversed $280 $-1 #
loop $-1 $-1 $278 $344 #
ellipse-curve $-1 1.1751838927632787 0.43399041199260224 0.86499999999999999 0 0 -1 0.036958627165547986 -0.11941130548670015 0 1 I I #
coedge $-1 $345 $342 $224 $283 reversed $346 $-1 #
edge $-1 $323 0 $225 0.69022881187852636 $224 $347 forward 7 unknown #
point $-1 1.2121425199288267 0.3145791065059021 0.86499999999999999 #
point $-1 1.6000000000000001 0.60654574598817756 0.40500000000000003 #
coedge $-1 $299 $229 $348 $349 forward $79 $-1 #
coedge $-1 $350 $351 $229 $288 forward $352 $-1 #
edge $-1 $353 0 $292 0.80462724288952558 $229 $354 forward 7 unknown #
coedge $-1 $355 $230 $233 $295 reversed $291 $-1 #
coedge $-1 $230 $355 $350 $356 forward $291 $-1 #
loop $-1 $-1 $290 $339 #
vertex $-1 $288 $357 #
ellipse-curve $-1 1 0.99999999999999933 0.375 0 0 -1 -0.22204999214874388 -0.71375769767249575 0 1 I I #
coedge $-1 $233 $232 $358 $359 forward $234 $-1 #
edge $-1 $360 0 $235 1.5707963267949066 $289 $361 forward 7 unknown #
point $-1 0.77795000785125612 0.28624230232750353 0.375 #
vertex $-1 $274 $362 #
ellipse-curve $-1 0.95763411181139757 0.35572632393393472 0.40499999999999992 -0.50657580407358116 -0.86219542722471243 -2.3290971491231765e-008 -0.025865862816741303 0.015197274122207394 1.1102230246251565e-016 1 I I #
coedge $-1 $239 $286 $363 $364 forward $79 $-1 #
coedge $-1 $365 $366 $239 $301 reversed $367 $-1 #
edge $-1 $368 0 $305 1.4177637733380903 $239 $369 forward 7 unknown #
coedge $-1 $370 $240 $366 $371 reversed $304 $-1 #
coedge $-1 $240 $370 $242 $308 forward $304 $-1 #
loop $-1 $-1 $303 $372 #
vertex $-1 $241 $373 #
ellipse-curve $-1 1.3692617593573611 1.2867089153437861 0.375 -5.1238769753511284e-016 6.0525525754551744e-016 -1 -0.18091498232252556 0.21370486595642579 2.2204460492503131e-016 1 I I #
coedge $-1 $243 $242 $374 $375 forward $244 $-1 #
edge $-1 $376 1.4024193870595415e-026 $245 1.5707963267949114 $242 $377 forward 7 unknown #
face $-1 $249 $244 $3 $-1 $378 reversed single #
point $-1 1.590423882849753 1.4584276263060747 0.375 #
coedge $-1 $256 $257 $247 $312 forward $204 $-1 #
edge $-1 $227 2.2204460492503131e-016 $313 0.78690850802364509 $311 $379 forward 7 unknown #
vertex $-1 $375 $380 #
intcurve-curve $-1 forward { surfintcur full nurbs 3 open 6 
	0 3 0.19990598053749384 1 0.39991889355566224 1 0.5999229063259458 1 0.79990304777055277 1 
	0.99999999999999989 3 
	1.6300000000000001 1.4023136214447627 0.375 1 
	1.6268452973512666 1.4013917970212855 0.3750136150338681 1 
	1.6208372738628867 1.399631620011121 0.37593665996712916 1 
	1.6123458757823514 1.397126244010888 0.38013632069587694 0.99999999999999978 
	1.6055397847324886 1.3951064462663672 0.38677250904053201 1.0000000000000002 
	1.6010354297947009 1.3937634335004594 0.39538964527292608 0.99999999999999978 
	1.6000370067071714 1.3934657875498764 0.40166373587056653 0.99999999999999989 
	1.6000000000000001 1.3934542540118229 0.40499999999999997 1 
	0.001 
	cone 1.6300000000000001 0.21147397517568745 0.40500000000000003 0 1 0 -0.029999999999999999 0 0 1 I I 0 1 0.029999999999999999 forward I I I I 
	torus 1 1 0.40500000000000003 0 0 1 0.74749999999999983 0.029999999999999999 0.7861086092288484 0.61808838728476823 0 forward_v I I I I 
	nullbs 
	nullbs 
	F 2.0274518426062346e-005 I 
	0 
	1 2.0274518426062346e-005 
	0 
	} I I #
cone-surface $-1 1.6300000000000001 0.21147397517568745 0.40500000000000003 0 1 0 -0.029999999999999999 0 0 1 I I 0 1 0.029999999999999999 forward I I I I #
face $-1 $381 $382 $3 $-1 $383 reversed single #
loop $-1 $-1 $384 $253 #
cone-surface $-1 1.3692617595080392 1.2867089167867423 0.37053535499631374 0 0 1 -0.16153123435107486 0.19080791474416919 0 1 I I 0 1 0.25 forward I I I I #
coedge $-1 $385 $374 $386 $387 forward $254 $-1 #
coedge $-1 $257 $256 $388 $389 reversed $204 $-1 #
coedge $-1 $374 $385 $256 $322 forward $254 $-1 #
edge $-1 $390 0 $313 0.45999999999999996 $321 $391 forward 7 unknown #
vertex $-1 $283 $392 #
straight-curve $-1 1.5999999999999999 0.60654574598817734 0.86499999999999999 0 0 -1 I I #
coedge $-1 $260 $259 $393 $394 forward $261 $-1 #
edge $-1 $209 6.3108872417676594e-026 $395 1.5707963267948555 $259 $396 forward 7 unknown #
edge $-1 $213 8.0779356694643246e-024 $397 1.5707963267945231 $264 $398 forward 7 unknown #
face $-1 $344 $261 $3 $-1 $399 forward single #
coedge $-1 $265 $264 $400 $401 forward $266 $-1 #
coedge $-1 $402 $335 $265 $331 forward $403 $-1 #
edge $-1 $267 0 $404 1.5707963267949236 $330 $405 forward 7 unknown #
face $-1 $328 $266 $3 $-1 $406 forward single #
point $-1 0.98076315777874667 0.48547210209650793 0.86499999999999999 #
coedge $-1 $271 $270 $407 $408 reversed $272 $-1 #
coedge $-1 $330 $409 $270 $336 reversed $403 $-1 #
edge $-1 $267 0 $410 0.25406945545582349 $270 $411 forward 7 unknown #
face $-1 $412 $272 $3 $-1 $413 forward single #
ellipse-curve $-1 0.50783851185333928 0.62 0.40500000000000003 0 0 -1 0.47292464592533667 -0.13452789790374087 0 1 I I #
face $-1 $414 $291 $3 $-1 $415 reversed single #
torus-surface $-1 0.82399381893226631 0.43424557074119852 0.40500000000000003 0 0 1 0.15500000000000003 0.029999999999999999 0.87940249873571752 -0.47607903253280992 0 forward_v I I I I #
coedge $-1 $279 $278 $416 $417 forward $280 $-1 #
coedge $-1 $282 $418 $278 $343 reversed $346 $-1 #
edge $-1 $225 0 $419 1.5707963267949139 $278 $420 forward 7 unknown #
face $-1 $421 $280 $3 $-1 $422 forward single #
coedge $-1 $418 $282 $423 $424 reversed $346 $-1 #
loop $-1 $-1 $345 $421 #
ellipse-curve $-1 1 1 0.86499999999999999 0 0 -1 0.60000000000000009 -0.39345425401182255 0 1 I I #
coedge $-1 $425 $426 $286 $349 reversed $427 $-1 #
edge $-1 $353 9.9347705249346565e-017 $428 0.10466471974668239 $286 $429 forward 7 unknown #
coedge $-1 $430 $287 $290 $356 reversed $352 $-1 #
coedge $-1 $287 $430 $425 $431 forward $352 $-1 #
loop $-1 $-1 $350 $414 #
vertex $-1 $349 $432 #
straight-curve $-1 0.37000000000000011 1.4023136214447627 0.375 0 -1 0 I I #
coedge $-1 $290 $289 $433 $434 forward $291 $-1 #
edge $-1 $435 0 $292 0.99999999999999989 $350 $436 forward 7 unknown #
point $-1 0.37000000000000011 0.5976863785552371 0.375 #
coedge $-1 $407 $437 $294 $359 reversed $438 $-1 #
edge $-1 $297 5.6434451556341917e-010 $360 1.341196582689806 $358 $439 forward 7 unknown #
vertex $-1 $434 $440 #
ellipse-curve $-1 0.77795000785206292 0.28624230232725278 0.40499999999999997 -0.95485979620741435 0.297056845715993 2.8161542050914761e-011 0.0089117053714797834 0.028645793886222404 5.5511151231257827e-017 1 I I #
point $-1 0.93176824895892085 0.37092359799532021 0.40500000000000003 #
coedge $-1 $441 $442 $299 $364 reversed $443 $-1 #
edge $-1 $428 0 $368 1.6130846638721077 $299 $444 forward 7 unknown #
coedge $-1 $445 $300 $442 $446 reversed $367 $-1 #
coedge $-1 $300 $445 $302 $371 forward $367 $-1 #
loop $-1 $-1 $366 $447 #
vertex $-1 $301 $448 #
ellipse-curve $-1 1.0045816435010273 1.7174853722609011 0.375 0 0 1 -0.1865223406772516 -0.21470704770263693 0 1 I I #
coedge $-1 $303 $302 $449 $450 forward $304 $-1 #
edge $-1 $451 5.5483933787190244e-015 $305 1.5707963267948868 $302 $452 forward 7 unknown #
face $-1 $309 $304 $3 $-1 $453 reversed single #
point $-1 1.1883467770348355 1.5004137813002119 0.37500000000000022 #
coedge $-1 $319 $321 $307 $375 reversed $254 $-1 #
edge $-1 $376 0 $313 0.079796191222436211 $374 $454 forward 7 unknown #
vertex $-1 $375 $455 #
ellipse-curve $-1 1.5904238828536976 1.4584276263009932 0.40500000000000025 0.61328110525300494 -0.78986472635486948 -2.144279283903434e-010 -0.02369594179064638 -0.018398433157590377 -2.2204460492503131e-016 1 I I #
torus-surface $-1 1 1 0.40500000000000003 0 0 1 0.74749999999999983 0.029999999999999999 0.7861086092288484 0.61808838728476823 0 forward_v I I I I #
straight-curve $-1 1.5999999999999999 0.60654574598817734 0.40499999999999997 0 1 0 I I #
point $-1 1.6000000000000001 1.3934542540118224 0.40500000000000003 #
face $-1 $456 $457 $3 $-1 $458 forward single #
loop $-1 $-1 $459 $316 #
cone-surface $-1 1.0045816434971759 1.7174853716577536 0.375 0 0 -1 0.3144111454294049 0 0 1 I I 0 1 0.3144111454294049 forward I I I I #
coedge $-1 $460 $449 $461 $462 forward $317 $-1 #
coedge $-1 $321 $319 $463 $464 forward $254 $-1 #
coedge $-1 $449 $460 $319 $387 reversed $317 $-1 #
edge $-1 $376 5.5511151231257827e-017 $465 0.46000000000000002 $319 $466 forward 7 unknown #
coedge $-1 $467 $423 $320 $389 forward $468 $-1 #
edge $-1 $323 1.1102230246251565e-016 $390 0.78690850802364554 $320 $469 forward 7 unknown #
vertex $-1 $322 $470 #
straight-curve $-1 1.5999999999999999 1.3934542540118229 0.86499999999999999 0 0 -1 I I #
point $-1 1.6000000000000001 0.60654574598817745 0.86499999999999999 #
coedge $-1 $416 $400 $325 $394 reversed $471 $-1 #
edge $-1 $395 0 $397 0.24642234508806746 $393 $472 forward 7 unknown #
vertex $-1 $417 $473 #
ellipse-curve $-1 1.075328482501875 0.37694747166229731 0.86499999999999966 -0.49602556723514724 0.86830791580467026 -9.2549764857680095e-010 -0.0086830791580470024 -0.0049602556723516433 3.3306690738754696e-016 1 I I #
vertex $-1 $394 $474 #
ellipse-curve $-1 1.0288922714593827 0.4880769208190549 0.86500000000000088 -0.26923050569180962 0.96307576794605187 -2.3444346216210687e-007 -0.0096307576794600891 -0.0026923050569179763 -8.8817841970012523e-016 1 I I #
torus-surface $-1 1.5007993610219565 0.62 0.86499999999999999 0 0 1 0.48999999999999999 0.01 -0.863932241865495 -0.5036080633441643 0 forward_v I I I I #
coedge $-1 $393 $475 $329 $401 reversed $471 $-1 #
edge $-1 $397 0 $404 2.5917986695642212 $400 $476 forward 7 unknown #
coedge $-1 $409 $330 $475 $477 forward $403 $-1 #
loop $-1 $-1 $330 $412 #
vertex $-1 $401 $478 #
ellipse-curve $-1 0.9711447366709246 0.48820815315462063 0.8650000000000001 -0.27360510581127429 -0.9618421107822227 -1.0637684481111639e-009 0.0096184211078220727 -0.0027360510581126984 -1.1102230246251565e-016 1 I I #
torus-surface $-1 1 0.47999999999999998 0.86499999999999999 0 0 1 0.029999999999999926 0.01 0.99942216937044404 0.03399010695592794 0 forward_v I I I I #
coedge $-1 $479 $358 $334 $408 forward $438 $-1 #
edge $-1 $297 0 $410 0.45999999999999996 $334 $480 forward 7 unknown #
coedge $-1 $335 $402 $481 $482 reversed $403 $-1 #
vertex $-1 $408 $483 #
ellipse-curve $-1 0.50783851185333928 0.62 0.86499999999999999 0 0 -1 0.47292464592540739 -0.13452789790349207 0 1 I I #
face $-1 $332 $403 $3 $-1 $484 forward single #
cone-surface $-1 0.50783851185333928 0.62 0.375 0 0 1 0.49168635941828237 0 0 1 I I 0 1 0.49168635941828237 forward I I I I #
face $-1 $485 $352 $3 $-1 $486 reversed single #
torus-surface $-1 1 1 0.40500000000000003 0 0 1 0.74749999999999983 0.029999999999999999 0.7861086092288484 0.61808838728476823 0 forward_v I I I I #
coedge $-1 $487 $393 $341 $417 reversed $471 $-1 #
edge $-1 $419 0 $395 1.3519365034098152 $416 $488 forward 7 unknown #
coedge $-1 $342 $345 $487 $489 forward $346 $-1 #
vertex $-1 $489 $490 #
ellipse-curve $-1 1.209185829751062 0.32413201094343885 0.8650000000000001 -0.95529044375367778 -0.2956690177764682 4.4438725632462462e-010 0.0029566901777646759 -0.0095529044375367578 -1.1102230246251565e-016 1 I I #
face $-1 $491 $346 $3 $-1 $492 forward single #
torus-surface $-1 1.1751838927632787 0.43399041199260224 0.86499999999999999 0 0 -1 0.11499999999999999 0.01 0.33191353097976128 -0.94330981546496551 0 forward_v I I I I #
coedge $-1 $388 $493 $345 $424 forward $468 $-1 #
edge $-1 $494 0 $323 1.0000000000000002 $345 $495 forward 7 unknown #
coedge $-1 $496 $348 $351 $431 reversed $427 $-1 #
coedge $-1 $348 $496 $441 $497 forward $427 $-1 #
loop $-1 $-1 $426 $485 #
vertex $-1 $364 $498 #
ellipse-curve $-1 1.0000000000001532 0.99999999999989397 0.375 0 0 -1 -0.63000000000015322 0.40231362144486871 0 1 I I #
coedge $-1 $351 $350 $499 $500 reversed $352 $-1 #
edge $-1 $501 0 $353 1 $425 $502 forward 7 unknown #
point $-1 0.37000000000000011 1.4023136214447627 0.375 #
coedge $-1 $503 $504 $355 $434 reversed $505 $-1 #
edge $-1 $360 0 $435 0.68877570302277036 $433 $506 forward 7 unknown #
vertex $-1 $434 $507 #
intcurve-curve $-1 forward { surfintcur full nurbs 3 open 6 
	0 3 0.20009695222944709 1 0.40007709367405375 1 0.6000811064443371 1 0.80009401946250502 1 
	0.99999999999999989 3 
	0.40000000000000058 0.60654574598817657 0.40500000000000003 1 
	0.39996299329282947 0.6065342124501234 0.40166373587056653 1 
	0.39896457020529952 0.60623656649954094 0.3953896452729263 0.99999999999999989 
	0.3944602152675119 0.6048935537336313 0.3867725090405324 1 
	0.38765412421764911 0.60287375598911186 0.38013632069587733 1 
	0.37916272613711449 0.60036837998887849 0.37593665996712927 0.99999999999999989 
	0.37315470264873429 0.59860820297871398 0.3750136150338681 1 
	0.37000000000000061 0.59768637855523665 0.375 1 
	0.001 
	torus 1 1 0.40500000000000003 0 0 1 0.74749999999999983 0.029999999999999999 0.7861086092288484 0.61808838728476823 0 forward_v I I I I 
	cone 0.37000000000000011 1.7885260248243133 0.40500000000000003 0 -1 0 0.029999999999999999 0 0 1 I I 0 1 0.029999999999999999 forward I I I I 
	nullbs 
	nullbs 
	I F 0.99997972548157388 
	0 
	1 0.99997972548157388 
	0 
	} I I #
coedge $-1 $358 $479 $503 $508 reversed $438 $-1 #
loop $-1 $-1 $407 $509 #
ellipse-curve $-1 0.82399381893226631 0.43424557074119852 0.40500000000000003 0 0 -1 0.10777443006238996 -0.063321972685056405 0 1 I I #
point $-1 0.7868617132235427 0.31488809621347519 0.40500000000000003 #
coedge $-1 $510 $363 $426 $497 reversed $443 $-1 #
coedge $-1 $363 $510 $365 $446 forward $443 $-1 #
loop $-1 $-1 $442 $511 #
ellipse-curve $-1 0.63442987693116537 1.2914013284521042 0.375 0 0 -1 -0.21895108995423118 0.17452914010092302 0 1 I I #
coedge $-1 $366 $365 $512 $513 forward $367 $-1 #
edge $-1 $514 0 $368 1.5707963267948981 $365 $515 forward 7 unknown #
face $-1 $372 $367 $3 $-1 $516 reversed single #
point $-1 0.8180593028237757 1.5027783245582642 0.375 #
coedge $-1 $384 $386 $370 $450 reversed $317 $-1 #
edge $-1 $451 1.0790618398814909e-010 $376 1.613084671031775 $449 $517 forward 7 unknown #
vertex $-1 $513 $518 #
ellipse-curve $-1 1.1883467771041398 1.5004137813588825 0.40500000000000047 0.76323166104692219 0.64612493495883294 -3.0267893033554617e-009 0.019383748048765082 -0.022896949831407776 -2.7755575615628914e-016 1 I I #
torus-surface $-1 1.3692617595080392 1.2867089167867423 0.40500000000000019 0 0 1 0.27999999999999997 0.029999999999999999 -0.6593886382854226 0.75180225039573811 0 forward_v I I I I #
ellipse-curve $-1 1 1 0.40500000000000003 0 0 -1 0.56672794106305124 0.44002919314340283 0 1 I I #
point $-1 1.5667279410630512 1.4400291931434028 0.40500000000000003 #
face $-1 $519 $520 $3 $-1 $521 forward single #
loop $-1 $-1 $522 $381 #
cone-surface $-1 0.6344298768049722 1.2914013298308233 0.87895838900541678 0 0 -1 0.16395484465964597 0.18872945957807266 0 1 I I 0 1 0.25 forward I I I I #
coedge $-1 $523 $512 $524 $525 reversed $382 $-1 #
coedge $-1 $386 $384 $526 $527 forward $317 $-1 #
coedge $-1 $512 $523 $384 $462 reversed $382 $-1 #
edge $-1 $451 -1.1102230246251565e-016 $528 0.45999999999999996 $461 $529 forward 7 unknown #
coedge $-1 $530 $531 $385 $464 reversed $532 $-1 #
edge $-1 $465 0 $390 0.079796191222239951 $385 $533 forward 7 unknown #
vertex $-1 $464 $534 #
straight-curve $-1 1.5667279410631403 1.4400291931432889 0.40499999999999997 0 0 1 I I #
coedge $-1 $493 $388 $531 $535 forward $468 $-1 #
loop $-1 $-1 $423 $491 #
straight-curve $-1 1.5999999999999999 0.60654574598817734 0.86499999999999999 0 1 0 I I #
point $-1 1.5999999999999999 1.3934542540118229 0.86499999999999999 #
loop $-1 $-1 $536 $537 #
ellipse-curve $-1 1.5007974857650481 0.61999921641092437 0.875 0 0 -1 -0.42546900326776393 -0.24305174474059094 0 1 I I #
point $-1 1.0753284824972842 0.37694747167033343 0.875 #
point $-1 1.0288922708281849 0.4880769230769218 0.875 #
coedge $-1 $400 $538 $402 $477 reversed $471 $-1 #
ellipse-curve $-1 0.99999999785390603 0.47999905561429168 0.875 0 0 1 0.028892272974278876 0.0080778674626301172 0 1 I I #
edge $-1 $404 0 $539 0.25407055560029629 $475 $540 forward 7 unknown #
point $-1 0.97114473666801393 0.48820815314438892 0.875 #
coedge $-1 $437 $407 $541 $542 forward $438 $-1 #
straight-curve $-1 0.93176824895895227 0.37092359799537372 0.40500000000000003 0 0 1 I I #
coedge $-1 $543 $541 $409 $482 forward $544 $-1 #
edge $-1 $410 -1.5777218104419633e-026 $539 1.5707963267948906 $481 $545 forward 7 unknown #
point $-1 0.93176824895915344 0.370923597995716 0.86499999999999999 #
torus-surface $-1 0.50783851185333928 0.62 0.86499999999999999 0 0 1 0.48168635941828231 0.01 0.96423973958243281 -0.26503155398933598 0 forward_v I I I I #
face $-1 $511 $427 $3 $-1 $546 reversed single #
cone-surface $-1 0.37000000000000011 1.7885260248243133 0.40500000000000003 0 -1 0 0.029999999999999999 0 0 1 I I 0 1 0.029999999999999999 forward I I I I #
coedge $-1 $547 $416 $418 $489 reversed $471 $-1 #
ellipse-curve $-1 1.1751838944576123 0.43399041628677965 0.875 0 0 -1 0.034001935297695018 -0.10985840534202679 0 1 I I #
edge $-1 $494 2.7724731851444402e-016 $419 0.68602128009211627 $487 $548 forward 7 unknown #
point $-1 1.2091858297553073 0.32413201094475286 0.875 #
face $-1 $549 $468 $3 $-1 $550 forward single #
torus-surface $-1 1 1 0.86499999999999999 0 0 1 0.70749999999999991 0.01 0.85719707686963031 -0.51498851580026639 0 forward_v I I I I #
coedge $-1 $423 $467 $547 $551 reversed $468 $-1 #
vertex $-1 $551 $552 #
intcurve-curve $-1 forward { surfintcur full nurbs 3 open 5 
	0 3 0.24987766228475072 1 0.49990387211266868 1 0.74988184418827708 1 1.0000000000000002 3 
	1.5900000000000001 0.60954353635776515 0.875 1 
	1.5913331190538997 0.60914250496159295 0.87498849524980005 0.99999999999999989 
	1.5938045124253875 0.60839976712452715 0.87451166820979576 1 
	1.597162930581707 0.60739359136866766 0.87235660184848263 1 
	1.5994582942773976 0.60670752671053652 0.86899411890929279 1 
	1.5999718616080321 0.60655402493471666 0.86641396240532309 1 
	1.6000000000000001 0.60654574598817734 0.86499999999999999 1 
	0.001 
	cone 1.5900000000000001 0.60199334994479103 0.86499999999999999 0 1 0 0.01 0 0 1 I I 0 1 0.01 forward I I I I 
	torus 1 1 0.86499999999999999 0 0 1 0.70749999999999991 0.01 0.85719707686963031 -0.51498851580026639 0 forward_v I I I I 
	nullbs 
	nullbs 
	F 5.9828871556800503e-005 I 
	0 
	1 5.9828871556800503e-005 
	0 
	} I I #
coedge $-1 $426 $425 $553 $554 forward $427 $-1 #
edge $-1 $555 -6.2308191921864988e-019 $428 1.5707963267948852 $441 $556 forward 7 unknown #
point $-1 0.41547878697693419 1.4659304685530272 0.375 #
coedge $-1 $557 $558 $430 $500 forward $559 $-1 #
edge $-1 $501 0 $435 0.78690850802364631 $499 $560 forward 7 unknown #
vertex $-1 $554 $561 #
intcurve-curve $-1 forward { surfintcur full nurbs 3 open 6 
	0 3 0.2000969522294469 1 0.40007709367405336 1 0.60008110644433765 1 0.8000940194625048 1 
	1 3 
	0.40000000000000013 1.3934542540118229 0.40500000000000003 1 
	0.39996299329282914 1.3934657875498762 0.40166373587056653 1 
	0.39896457020529968 1.3937634335004605 0.39538964527292636 0.99999999999999989 
	0.39446021526751174 1.395106446266368 0.3867725090405324 1 
	0.38765412421764872 1.3971262440108885 0.38013632069587716 1 
	0.37916272613711416 1.3996316200111212 0.37593665996712922 1 
	0.37315470264873385 1.4013917970212857 0.3750136150338681 1 
	0.37 1.4023136214447627 0.375 1 
	0.001 
	cone 0.37000000000000011 1.7885260248243133 0.40500000000000003 0 -1 0 0.029999999999999999 0 0 1 I I 0 1 0.029999999999999999 forward I I I I 
	torus 1 1 0.40500000000000003 0 0 1 0.74749999999999983 0.029999999999999999 0.7861086092288484 0.61808838728476823 0 forward_v I I I I 
	nullbs 
	nullbs 
	I F 0.99997972548157399 
	0 
	1 0.99997972548157399 
	0 
	} I I #
coedge $-1 $562 $433 $437 $508 forward $505 $-1 #
coedge $-1 $433 $562 $557 $563 forward $505 $-1 #
loop $-1 $-1 $503 $564 #
ellipse-curve $-1 1 1 0.40500000000000003 0 0 -1 -0.2131382867764573 -0.68511190378652476 0 1 I I #
point $-1 0.40000000000000058 0.60654574598817657 0.40500000000000003 #
edge $-1 $360 -6.6372570048656471e-029 $565 0.45999999999999996 $503 $566 forward 7 unknown #
face $-1 $337 $438 $3 $-1 $567 forward single #
coedge $-1 $442 $441 $568 $569 forward $443 $-1 #
face $-1 $447 $443 $3 $-1 $570 reversed single #
coedge $-1 $459 $461 $445 $513 reversed $382 $-1 #
edge $-1 $514 0 $451 1.417763776227051 $512 $571 forward 7 unknown #
vertex $-1 $513 $572 #
ellipse-curve $-1 0.81805930246636427 1.5027783248687583 0.4049999999999998 0.75491784825693742 -0.65581936719123757 1.5781477085703992e-008 -0.019674581015737047 -0.022647535447708034 2.2204460492503131e-016 1 I I #
torus-surface $-1 1.0045816434971759 1.7174853716577536 0.40500000000000003 0 0 -1 0.28441114542940504 0.029999999999999999 -0.66626549111152855 -0.74571462058478766 0 forward_v I I I I #
ellipse-curve $-1 1.3692617595080392 1.2867089167867423 0.40500000000000014 -1.4346855646175389e-016 1.6947147218070017e-016 -1 -0.16153123435513428 0.19080791474073244 5.5511151231257827e-017 1 I I #
point $-1 1.2077305251734942 1.477516831544905 0.40500000000000003 #
face $-1 $564 $559 $3 $-1 $573 reversed single #
loop $-1 $-1 $574 $456 #
cone-surface $-1 1 1 0.375 0 0 1 0.71750000000000003 0 0 1 I I 0 1 0.71750000000000003 forward I I I I #
coedge $-1 $575 $568 $576 $577 reversed $457 $-1 #
coedge $-1 $461 $459 $578 $579 forward $382 $-1 #
coedge $-1 $568 $575 $459 $525 forward $457 $-1 #
edge $-1 $580 0 $514 0.45999999999999996 $459 $581 forward 7 unknown #
coedge $-1 $582 $583 $460 $527 reversed $584 $-1 #
edge $-1 $528 0 $465 1.6130846710111073 $460 $585 forward 7 unknown #
vertex $-1 $462 $586 #
straight-curve $-1 1.2077305251569643 1.4775168315309115 0.40500000000000014 0 0 1 I I #
coedge $-1 $587 $463 $583 $588 forward $532 $-1 #
coedge $-1 $463 $587 $467 $535 reversed $532 $-1 #
loop $-1 $-1 $530 $549 #
ellipse-curve $-1 1 1 0.86499999999999999 0 0 -1 0.56672794106313762 0.44002919314329225 0 1 I I #
point $-1 1.5667279410631376 1.4400291931432923 0.86499999999999999 #
edge $-1 $390 0 $589 1.0000000000000002 $467 $590 forward 7 unknown #
coedge $-1 $538 $591 $592 $593 reversed $471 $-1 #
face $-1 $220 $471 $3 $-1 $594 forward single #
coedge $-1 $475 $536 $543 $595 reversed $471 $-1 #
vertex $-1 $477 $596 #
ellipse-curve $-1 0.50784043470544837 0.61999917755395995 0.875 0 0 -1 0.46330430196256556 -0.13179102440957102 0 1 I I #
coedge $-1 $481 $597 $479 $542 reversed $544 $-1 #
edge $-1 $410 0 $565 1.3411965824401906 $479 $598 forward 7 unknown #
coedge $-1 $597 $481 $538 $595 forward $544 $-1 #
loop $-1 $-1 $481 $599 #
ellipse-curve $-1 0.92314629455561392 0.37598935581299164 0.86499999999999977 -0.50657578172755446 -0.8621954403539358 2.3753559800238569e-010 0.0086219544035395224 -0.0050657578172756401 2.2204460492503131e-016 1 I I #
torus-surface $-1 1 1 0.40500000000000003 0 0 1 0.74749999999999983 0.029999999999999999 0.7861086092288484 0.61808838728476823 0 forward_v I I I I #
coedge $-1 $600 $487 $493 $551 forward $471 $-1 #
ellipse-curve $-1 1.0000000000000018 0.99999999999999778 0.875 0 0 -1 0.5899999999999983 -0.39045646364223241 0 1 I I #
face $-1 $601 $532 $3 $-1 $602 forward single #
cone-surface $-1 1.5900000000000001 0.60199334994479103 0.86499999999999999 0 1 0 0.01 0 0 1 I I 0 1 0.01 forward I I I I #
edge $-1 $494 0 $589 0.78091292728446982 $547 $603 forward 7 unknown #
point $-1 1.5900000000000001 0.60954353635776515 0.875 #
coedge $-1 $574 $576 $496 $554 reversed $520 $-1 #
edge $-1 $501 0 $555 0.092567409714981369 $553 $604 forward 7 unknown #
vertex $-1 $554 $605 #
ellipse-curve $-1 0.41547878703337959 1.4659304686238399 0.40500000000000003 0.62331835509613964 0.7819681759510696 -3.0185568812165425e-009 0.023459045278532098 -0.0186995506528842 0 1 I I #
coedge $-1 $606 $499 $504 $563 reversed $559 $-1 #
coedge $-1 $499 $606 $574 $607 forward $559 $-1 #
loop $-1 $-1 $557 $519 #
straight-curve $-1 0.39999999999999997 1.3934542540118229 0.40499999999999997 0 -1 0 I I #
point $-1 0.40000000000000013 1.3934542540118229 0.40500000000000003 #
coedge $-1 $504 $503 $608 $609 forward $505 $-1 #
edge $-1 $610 0 $435 0.45999999999999996 $504 $611 forward 7 unknown #
face $-1 $509 $505 $3 $-1 $612 forward single #
vertex $-1 $609 $613 #
straight-curve $-1 0.78686171322177401 0.31488809621402519 0.40500000000000003 0 1.2067641572012573e-016 1 I I #
cone-surface $-1 0.82399381893226631 0.43424557074119852 0.37104161099458327 0 0 1 0.10777443002668595 -0.063321972745824795 0 1 I I 0 1 0.125 forward I I I I #
coedge $-1 $522 $524 $510 $569 reversed $457 $-1 #
edge $-1 $555 2.4770074880109428e-011 $514 1.6130846709609512 $568 $614 forward 7 unknown #
torus-surface $-1 0.6344298768049722 1.2914013298308233 0.40500000000000003 0 0 -1 0.28000000000000003 0.029999999999999999 -0.79372278622110215 0.60827965495601677 0 forward_v I I I I #
ellipse-curve $-1 1.0045816434971759 1.7174853716577536 0.40500000000000003 0 0 1 -0.20619692204654871 -0.23735458223670336 0 1 I I #
point $-1 0.79838472145062722 1.4801307894210503 0.40500000000000003 #
plane-surface $-1 0.39999999999999997 1.6099999999999999 0.375 1 0 0 0 -1 0 forward_v I I I I #
coedge $-1 $615 $553 $558 $607 reversed $520 $-1 #
coedge $-1 $524 $522 $616 $617 forward $457 $-1 #
coedge $-1 $553 $615 $522 $577 forward $520 $-1 #
edge $-1 $618 0 $555 0.45999999999999996 $576 $619 forward 7 unknown #
coedge $-1 $620 $621 $523 $579 reversed $622 $-1 #
edge $-1 $580 0 $528 1.4177637760994235 $523 $623 forward 7 unknown #
vertex $-1 $579 $624 #
straight-curve $-1 0.79838472146461814 1.480130789408896 0.86499999999999999 0 0 -1 I I #
coedge $-1 $625 $526 $621 $626 forward $584 $-1 #
coedge $-1 $526 $625 $530 $588 reversed $584 $-1 #
loop $-1 $-1 $582 $601 #
ellipse-curve $-1 1.369261759508039 1.2867089167867425 0.86499999999999999 -2.8693711291631174e-016 3.3894294436749177e-016 -1 -0.16153123435108352 0.19080791474416192 1.1102230246251565e-016 1 I I #
point $-1 1.2077305251569554 1.4775168315309044 0.8650000000000001 #
coedge $-1 $531 $530 $600 $627 forward $532 $-1 #
edge $-1 $465 0 $628 1.5707963267949083 $530 $629 forward 7 unknown #
vertex $-1 $627 $630 #
intcurve-curve $-1 forward { surfintcur full nurbs 3 open 5 
	0 3 0.25011815581172353 1 0.50009612788733437 1 0.75012233771525461 1 1.0000000000000002 3 
	1.5999999999999999 1.3934542540118229 0.86499999999999999 1 
	1.5999718616080318 1.3934459750652837 0.8664139624053232 0.99999999999999989 
	1.5994582942773969 1.3932924732894636 0.86899411890929246 1 
	1.5971629305817072 1.3926064086313326 0.87235660184848296 1 
	1.593804512425387 1.3916002328754731 0.87451166820979576 1 
	1.5913331190538993 1.3908574950384074 0.87498849524979971 1 
	1.5900000000000003 1.3904564636422354 0.875 1 
	0.001 
	cone 1.5900000000000001 0.60199334994479103 0.86499999999999999 0 1 0 0.01 0 0 1 I I 0 1 0.01 forward I I I I 
	torus 1 1 0.86499999999999999 0 0 1 0.70750000000000002 0.01 0.78610860922884851 0.61808838728476823 0 forward_v I I I I 
	nullbs 
	nullbs 
	I F 0.99994017112844336 
	0 
	1 0.99994017112844336 
	0 
	} I I #
coedge $-1 $536 $631 $632 $633 forward $471 $-1 #
coedge $-1 $634 $635 $536 $593 forward $636 $-1 #
edge $-1 $637 0 $638 0.68456817123334046 $536 $639 forward 7 unknown #
plane-surface $-1 0 0 0.875 0 0 1 1 0 0 forward_v I I I I #
edge $-1 $539 0 $637 1.3411965329745212 $538 $640 forward 7 unknown #
point $-1 0.92314629455681707 0.37598935581503973 0.875 #
coedge $-1 $541 $543 $635 $641 reversed $544 $-1 #
ellipse-curve $-1 0.82399381893226631 0.43424557074119852 0.86499999999999999 0 0 -1 0.10777443002688714 -0.063321972745482513 0 1 I I #
face $-1 $537 $544 $3 $-1 $642 forward single #
coedge $-1 $643 $547 $587 $627 reversed $471 $-1 #
face $-1 $644 $584 $3 $-1 $645 forward single #
torus-surface $-1 1 1 0.86499999999999999 0 0 1 0.70750000000000002 0.01 0.78610860922884851 0.61808838728476823 0 forward_v I I I I #
straight-curve $-1 1.5900000000000001 0.60954353635776515 0.875 0 1 0 I I #
ellipse-curve $-1 1 1 0.40500000000000003 0 0 -1 -0.59999999999999987 0.39345425401182288 0 1 I I #
point $-1 0.43893783231577188 1.4472309179757978 0.40500000000000003 #
coedge $-1 $558 $557 $646 $647 reversed $559 $-1 #
edge $-1 $648 0 $501 0.45999999999999996 $574 $649 forward 7 unknown #
coedge $-1 $635 $634 $562 $609 reversed $636 $-1 #
edge $-1 $565 0 $610 0.68877570296858037 $562 $650 forward 7 unknown #
vertex $-1 $563 $651 #
straight-curve $-1 0.39999999999999997 0.60654574598817712 0.86499999999999999 0 0 -1 I I #
cone-surface $-1 1 1 0.375 0 0 1 0.71750000000000003 0 0 1 I I 0 1 0.71750000000000003 forward I I I I #
point $-1 0.78686171318641573 0.31488809622502523 0.86499999999999999 #
ellipse-curve $-1 0.6344298768049722 1.2914013298308233 0.40500000000000003 0 0 -1 -0.19549204449306051 0.15582958814013237 0 1 I I #
coedge $-1 $576 $574 $652 $653 forward $520 $-1 #
coedge $-1 $654 $655 $575 $617 reversed $656 $-1 #
edge $-1 $618 0 $580 1.61308467101082 $575 $657 forward 7 unknown #
vertex $-1 $577 $658 #
straight-curve $-1 0.43893783231565253 1.4472309179756486 0.86499999999999999 0 0 -1 I I #
coedge $-1 $659 $578 $655 $660 forward $622 $-1 #
coedge $-1 $578 $659 $582 $626 reversed $622 $-1 #
loop $-1 $-1 $620 $644 #
ellipse-curve $-1 1.0045816434971759 1.7174853716577536 0.86499999999999999 0 0 1 -0.20619692203261397 -0.23735458224880857 0 1 I I #
point $-1 0.79838472146456196 1.480130789408945 0.86499999999999999 #
coedge $-1 $583 $582 $643 $661 forward $584 $-1 #
edge $-1 $528 4.9303806576310207e-028 $662 1.5707963267948235 $582 $663 forward 7 unknown #
edge $-1 $628 0 $589 0.075588659435349592 $600 $664 forward 7 unknown #
vertex $-1 $661 $665 #
ellipse-curve $-1 1.5588292938007653 1.4338963820892472 0.86499999999999999 0.61328110540450875 -0.78986472623723603 -2.7815921134254788e-011 0.0078986472623723269 0.006132811054045062 0 1 I I #
point $-1 1.5900000000000001 1.390456463642235 0.875 #
coedge $-1 $591 $666 $667 $668 reversed $471 $-1 #
coedge $-1 $669 $670 $591 $633 reversed $671 $-1 #
edge $-1 $672 0 $638 0.78091292728446993 $591 $673 forward 7 unknown #
coedge $-1 $608 $592 $670 $674 forward $636 $-1 #
coedge $-1 $592 $608 $597 $641 forward $636 $-1 #
loop $-1 $-1 $635 $675 #
vertex $-1 $595 $676 #
vertex $-1 $633 $677 #
ellipse-curve $-1 0.99999999999999978 0.99999999999999933 0.875 0 0 -1 -0.21016771832138637 -0.6755633058238002 0 1 I I #
ellipse-curve $-1 0.8239938172915301 0.43424557498410882 0.875 0 0 -1 0.099152477265286976 -0.05825621916906909 0 1 I I #
edge $-1 $565 0 $637 1.5707963267949185 $635 $678 forward 7 unknown #
torus-surface $-1 0.82399381893226631 0.43424557074119852 0.86499999999999999 0 0 1 0.11500000000000003 0.01 0.8794024987357173 -0.47607903253281042 0 forward_v I I I I #
coedge $-1 $679 $600 $625 $661 reversed $471 $-1 #
face $-1 $680 $622 $3 $-1 $681 forward single #
torus-surface $-1 1.369261759508039 1.2867089167867425 0.86500000000000021 0 0 1 0.2400000000000001 0.01 -0.65938863828542205 0.75180225039573867 0 forward_v I I I I #
coedge $-1 $670 $669 $606 $647 forward $671 $-1 #
edge $-1 $648 2.2204460492503131e-016 $610 0.78690850802364576 $606 $682 forward 7 unknown #
vertex $-1 $653 $683 #
straight-curve $-1 0.39999999999999997 1.3934542540118229 0.86499999999999999 0 0 -1 I I #
ellipse-curve $-1 1 1 0.86499999999999999 0 0 -1 -0.21313828681358427 -0.68511190377497477 0 1 I I #
point $-1 0.40000000000000008 0.60654574598817712 0.86499999999999999 #
coedge $-1 $684 $685 $615 $653 reversed $686 $-1 #
edge $-1 $648 0 $618 0.092567409714701093 $615 $687 forward 7 unknown #
coedge $-1 $688 $616 $685 $689 forward $656 $-1 #
coedge $-1 $616 $688 $620 $660 reversed $656 $-1 #
loop $-1 $-1 $654 $680 #
ellipse-curve $-1 0.6344298768049722 1.2914013298308233 0.86499999999999999 0 0 -1 -0.19549204448932606 0.15582958814481729 0 1 I I #
point $-1 0.43893783231564615 1.4472309179756406 0.86499999999999999 #
coedge $-1 $621 $620 $679 $690 forward $622 $-1 #
edge $-1 $580 -7.8886090522099545e-027 $691 1.5707963267948979 $620 $692 forward 7 unknown #
edge $-1 $662 0 $628 1.6130846551430302 $643 $693 forward 7 unknown #
vertex $-1 $690 $694 #
ellipse-curve $-1 1.214191774530945 1.469884514941092 0.86499999999999999 0.76323165898122147 0.64612493739893095 -8.1401249937360972e-012 -0.0064612493739895083 0.007632316589812449 1.1102230246251565e-016 1 I I #
ellipse-curve $-1 0.99999999999973266 0.99999999999979927 0.875 0 0 -1 0.55882929380120316 0.43389638208922809 0 1 I I #
point $-1 1.5588292938009358 1.4338963820890274 0.875 #
coedge $-1 $631 $679 $688 $695 reversed $471 $-1 #
coedge $-1 $685 $684 $631 $668 forward $686 $-1 #
edge $-1 $672 3.3269678221713178e-016 $696 0.088359877927840114 $631 $697 forward 7 unknown #
coedge $-1 $646 $632 $684 $698 forward $671 $-1 #
coedge $-1 $632 $646 $634 $674 reversed $671 $-1 #
loop $-1 $-1 $669 $699 #
vertex $-1 $633 $700 #
straight-curve $-1 0.41000000000000014 1.3904564636422347 0.875 0 -1 0 I I #
edge $-1 $638 0 $610 0.99999999999999989 $670 $701 forward 7 unknown #
face $-1 $599 $636 $3 $-1 $702 forward single #
point $-1 0.78983228167861341 0.32443669417619908 0.875 #
point $-1 0.41000000000000014 0.60954353635776481 0.875 #
ellipse-curve $-1 0.78983228159149033 0.32443669420330296 0.8650000000000001 -0.95485979782778752 0.29705684050746378 9.1241627717262554e-009 -0.0029705684050745917 -0.0095485979782777286 -1.1102230246251565e-016 1 I I #
coedge $-1 $666 $643 $659 $690 reversed $471 $-1 #
face $-1 $703 $656 $3 $-1 $704 forward single #
torus-surface $-1 1.0045816434971759 1.7174853716577536 0.86499999999999999 0 0 -1 0.32441114542940491 0.01 -0.66626549111152833 -0.74571462058478777 0 forward_v I I I I #
straight-curve $-1 0.39999999999999997 1.3934542540118229 0.86499999999999999 0 -1 0 I I #
point $-1 0.40000000000000019 1.3934542540118227 0.86499999999999999 #
coedge $-1 $667 $652 $669 $698 reversed $686 $-1 #
coedge $-1 $652 $667 $654 $689 reversed $686 $-1 #
loop $-1 $-1 $684 $703 #
ellipse-curve $-1 1 1 0.86499999999999999 0 0 -1 -0.59999999999999987 0.39345425401182266 0 1 I I #
coedge $-1 $655 $654 $666 $695 forward $656 $-1 #
edge $-1 $618 1.5407439555097228e-029 $696 1.5707963267948781 $654 $705 forward 7 unknown #
edge $-1 $691 0 $662 1.4177637023397209 $679 $706 forward 7 unknown #
vertex $-1 $695 $707 #
ellipse-curve $-1 0.79182652767909056 1.4725816110250276 0.86499999999999999 0.75491783839173654 -0.65581937854713324 1.136918206796795e-010 0.0065581937854714001 0.0075491783839174431 0 1 I I #
ellipse-curve $-1 1.3692617592340897 1.2867089141632886 0.875 -5.9778564176008662e-016 7.0613113347139799e-016 -1 -0.15506998470308297 0.18317560077785644 2.2204460492503131e-016 1 I I #
point $-1 1.2141917745310067 1.469884514941145 0.87500000000000022 #
edge $-1 $696 1.1444356210117586e-015 $691 1.6130846659969063 $666 $708 forward 7 unknown #
vertex $-1 $668 $709 #
ellipse-curve $-1 1.0000000000001696 0.99999999999987388 0.875 0 0 -1 -0.59000000000016994 0.39045646364236086 0 1 I I #
edge $-1 $672 0 $648 1 $669 $710 forward 7 unknown #
face $-1 $675 $671 $3 $-1 $711 forward single #
point $-1 0.41000000000000014 1.3904564636422347 0.875 #
intcurve-curve $-1 forward { surfintcur full nurbs 3 open 5 
	0 3 0.24987766228474748 1 0.49990387211267051 1 0.74988184418827841 1 0.99999999999999989 3 
	0.41000000000000014 0.60954353635776481 0.875 1 
	0.40866688094610076 0.60914250496159272 0.87498849524979994 1 
	0.40619548757461316 0.60839976712452781 0.87451166820979565 1 
	0.40283706941829311 0.60739359136866666 0.87235660184848274 0.99999999999999989 
	0.40054170572260334 0.60670752671053596 0.86899411890929246 1 
	0.40002813839196821 0.60655402493471633 0.86641396240532309 1.0000000000000002 
	0.40000000000000013 0.60654574598817712 0.86499999999999999 1 
	0.001 
	torus 1 1 0.86499999999999999 0 0 1 0.70750000000000002 0.01 -0.18666068017627241 -0.98242444517435101 0 forward_v I I I I 
	cone 0.41000000000000014 1.3980066500552093 0.86499999999999999 0 -1 0 -0.01 0 0 1 I I 0 1 0.01 forward I I I I 
	nullbs 
	nullbs 
	F 5.9828871556811148e-005 I 
	0 
	1 5.9828871556811148e-005 
	0 
	} I I #
torus-surface $-1 1 1 0.86499999999999999 0 0 1 0.70750000000000002 0.01 -0.18666068017627241 -0.98242444517435101 0 forward_v I I I I #
face $-1 $699 $686 $3 $-1 $712 forward single #
torus-surface $-1 0.6344298768049722 1.2914013298308233 0.86499999999999999 0 0 -1 0.24000000000000005 0.01 -0.79372278622110215 0.60827965495601666 0 forward_v I I I I #
ellipse-curve $-1 0.44675751409522457 1.4409977344498544 0.86499999999999977 0.62331835257861457 0.78196817795782581 -1.4388046066713319e-013 -0.0078196817795784246 0.0062331835257862789 2.2204460492503131e-016 1 I I #
ellipse-curve $-1 1.0045816436145336 1.7174853900359817 0.875 0 0 1 -0.21275511593630136 -0.24490377901020843 0 1 I I #
point $-1 0.79182652767823225 1.4725816110257732 0.875 #
ellipse-curve $-1 0.63442987688094421 1.291401329000796 0.875 0 0 -1 -0.18767236278571869 0.1495964054490595 0 1 I I #
point $-1 0.44675751409522568 1.4409977344498557 0.875 #
intcurve-curve $-1 forward { surfintcur full nurbs 3 open 5 
	0 3 0.24987766228474878 1 0.49990387211267162 1 0.74988184418827852 1 1 3 
	0.41000000000000014 1.3904564636422347 0.875 1 
	0.40866688094610076 1.3908574950384072 0.87498849524979982 1.0000000000000002 
	0.40619548757461343 1.3916002328754735 0.8745116682097962 0.99999999999999978 
	0.40283706941829289 1.3926064086313326 0.8723566018484824 1.0000000000000002 
	0.40054170572260339 1.3932924732894638 0.86899411890929257 1 
	0.40002813839196827 1.3934459750652837 0.8664139624053232 1 
	0.40000000000000013 1.3934542540118229 0.86499999999999999 1 
	0.001 
	cone 0.41000000000000014 1.3980066500552093 0.86499999999999999 0 -1 0 -0.01 0 0 1 I I 0 1 0.01 forward I I I I 
	torus 1 1 0.86499999999999999 0 0 1 0.70749999999999991 0.01 -0.8544910191425954 0.51946616656395284 0 forward_v I I I I 
	nullbs 
	nullbs 
	F 5.982887155680921e-005 I 
	0 
	1 5.982887155680921e-005 
	0 
	} I I #
cone-surface $-1 0.41000000000000014 1.3980066500552093 0.86499999999999999 0 -1 0 -0.01 0 0 1 I I 0 1 0.01 forward I I I I #
torus-surface $-1 1 1 0.86499999999999999 0 0 1 0.70749999999999991 0.01 -0.8544910191425954 0.51946616656395284 0 forward_v I I I I #
End-of-ACIS-data 