600 0 1 0           
118 GICL ACIS Healer - Source: /gicl/data5/repository/NIST/Manfred_Osti/spectrometer/bearing_208/bearing_208.prt.sat - 6 0 18 ACIS 6.0.3 Solaris 24 Sun Apr 14 00:38:16 2002 
1 9.999999999999999547e-07 1.000000000000000036e-10 
body $-1 $1 $-1 $-1 #
lump $-1 $-1 $2 $0 #
shell $-1 $-1 $-1 $3 $-1 $1 #
face $-1 $4 $5 $2 $-1 $6 reversed single #
face $-1 $7 $8 $2 $-1 $9 forward single #
loop $-1 $10 $11 $3 #
plane-surface $-1 0 0 0 0 1 0 25.39999999999999858 0 0 forward_v I I I I #
face $-1 $12 $13 $2 $-1 $14 forward single #
loop $-1 $-1 $15 $4 #
cone-surface $-1 0 0 0 0 1 0 12.30629999999999846 0 0 1 I I 0 1 12.30629999999999846 forward I I I I #
loop $-1 $-1 $16 $3 #
coedge $-1 $17 $17 $18 $19 reversed $5 $-1 #
face $-1 $20 $21 $2 $-1 $22 forward single #
loop $-1 $-1 $23 $7 #
cone-surface $-1 0 0 0 0 1 0 12.30629999999999846 0 0 1 I I 0 1 12.30629999999999846 forward I I I I #
coedge $-1 $24 $18 $25 $26 forward $8 $-1 #
coedge $-1 $27 $27 $28 $29 reversed $10 $-1 #
coedge $-1 $11 $11 $30 $31 reversed $5 $-1 #
coedge $-1 $15 $32 $11 $19 forward $8 $-1 #
edge $-1 $33 0 $34 3.141592653589793116 $11 $35 forward 7 unknown #
face $-1 $36 $37 $2 $-1 $38 forward single #
loop $-1 $39 $40 $12 #
plane-surface $-1 0 1.574799999999999978 0 0 1 0 25.39999999999999858 0 0 forward_v I I I I #
coedge $-1 $41 $30 $32 $42 forward $13 $-1 #
coedge $-1 $32 $15 $40 $43 reversed $8 $-1 #
coedge $-1 $30 $41 $15 $26 reversed $13 $-1 #
edge $-1 $34 0 $44 0.06199999999999999956 $25 $45 forward 7 unknown #
coedge $-1 $16 $16 $46 $47 reversed $10 $-1 #
coedge $-1 $48 $49 $16 $29 forward $50 $-1 #
edge $-1 $51 0 $52 3.141592653589793116 $16 $53 forward 7 unknown #
coedge $-1 $23 $25 $17 $31 forward $13 $-1 #
edge $-1 $34 0 $33 3.141592653589793116 $17 $54 forward 7 unknown #
coedge $-1 $18 $24 $23 $42 reversed $8 $-1 #
vertex $-1 $31 $55 #
vertex $-1 $31 $56 #
ellipse-curve $-1 0 0 0 0 1 0 -12.30629999999999846 0 0 1 I I #
face $-1 $57 $58 $2 $-1 $59 forward single #
loop $-1 $-1 $60 $20 #
cone-surface $-1 0 1.574799999999999978 0 0 1 0 11.11249999999999893 0 0 1 I I 0 1 11.11249999999999893 forward I I I I #
loop $-1 $-1 $61 $12 #
coedge $-1 $62 $62 $24 $43 forward $21 $-1 #
coedge $-1 $25 $23 $62 $63 reversed $13 $-1 #
edge $-1 $33 0 $64 0.06199999999999999956 $23 $65 forward 7 unknown #
edge $-1 $64 0 $44 3.141592653589793116 $40 $66 forward 7 unknown #
vertex $-1 $63 $67 #
straight-curve $-1 12.30629999999999846 0 0 0 25.39999999999999858 0 I I #
coedge $-1 $68 $69 $27 $47 forward $70 $-1 #
edge $-1 $52 0 $51 3.141592653589793116 $27 $71 forward 7 unknown #
coedge $-1 $72 $28 $69 $73 reversed $50 $-1 #
coedge $-1 $28 $72 $68 $74 forward $50 $-1 #
loop $-1 $-1 $48 $75 #
vertex $-1 $47 $76 #
vertex $-1 $47 $77 #
ellipse-curve $-1 0 0 0 0 -1 0 -4.762499999999999289 0 0 1 I I #
ellipse-curve $-1 0 0 0 0 1 0 12.30629999999999846 0 0 1 I I #
point $-1 -12.30629999999999846 0 0 #
point $-1 12.30629999999999846 0 0 #
face $-1 $75 $78 $2 $-1 $79 forward single #
loop $-1 $-1 $80 $36 #
cone-surface $-1 0 1.574799999999999978 0 0 1 0 11.11249999999999893 0 0 1 I I 0 1 11.11249999999999893 forward I I I I #
coedge $-1 $81 $82 $83 $84 forward $37 $-1 #
coedge $-1 $85 $85 $82 $86 reversed $39 $-1 #
coedge $-1 $40 $40 $41 $63 forward $21 $-1 #
edge $-1 $44 0 $64 3.141592653589793116 $62 $87 forward 7 unknown #
vertex $-1 $63 $88 #
straight-curve $-1 -12.30629999999999846 0 -1.507037317204431982e-15 0 25.39999999999999858 0 I I #
ellipse-curve $-1 0 1.574799999999999978 0 0 1 0 -12.30629999999999846 0 0 1 I I #
point $-1 12.30629999999999846 1.574799999999999978 0 #
coedge $-1 $89 $46 $49 $74 reversed $70 $-1 #
coedge $-1 $46 $89 $48 $73 forward $70 $-1 #
loop $-1 $-1 $68 $90 #
ellipse-curve $-1 0 0 0 0 -1 0 4.762499999999999289 0 0 1 I I #
coedge $-1 $49 $48 $91 $92 reversed $50 $-1 #
edge $-1 $93 0 $52 0.2810000000000000275 $69 $94 forward 7 unknown #
edge $-1 $95 0 $51 0.2810000000000000275 $68 $96 forward 7 unknown #
face $-1 $90 $50 $2 $-1 $97 reversed single #
point $-1 -4.762499999999999289 0 0 #
point $-1 4.762499999999999289 0 0 #
loop $-1 $98 $99 $57 #
plane-surface $-1 0 7.137400000000000411 0 0 1 0 25.39999999999999858 0 0 forward_v I I I I #
coedge $-1 $100 $101 $102 $103 forward $58 $-1 #
coedge $-1 $102 $60 $99 $104 reversed $37 $-1 #
coedge $-1 $60 $102 $61 $86 forward $37 $-1 #
coedge $-1 $101 $100 $60 $84 reversed $58 $-1 #
edge $-1 $105 0 $106 0.219000000000000028 $83 $107 forward 7 unknown #
coedge $-1 $61 $61 $101 $108 reversed $39 $-1 #
edge $-1 $109 0 $105 3.141592653589793116 $61 $110 forward 7 unknown #
ellipse-curve $-1 0 1.574799999999999978 0 0 1 0 12.30629999999999846 0 0 1 I I #
point $-1 -12.30629999999999846 1.574799999999999978 0 #
coedge $-1 $69 $68 $111 $112 reversed $70 $-1 #
face $-1 $-1 $70 $2 $-1 $113 reversed single #
coedge $-1 $111 $111 $72 $92 forward $98 $-1 #
edge $-1 $95 0 $93 3.141592653589793116 $91 $114 forward 7 unknown #
vertex $-1 $112 $115 #
straight-curve $-1 4.762499999999999289 7.137400000000000411 0 0 -25.39999999999999858 0 I I #
vertex $-1 $112 $116 #
straight-curve $-1 -4.762499999999999289 7.137400000000000411 5.832187760079071298e-16 0 -25.39999999999999858 0 I I #
cone-surface $-1 0 7.137400000000000411 0 0 -1 0 4.762499999999999289 0 0 1 I I 0 1 4.762499999999999289 forward I I I I #
loop $-1 $-1 $91 $57 #
coedge $-1 $117 $117 $81 $104 forward $78 $-1 #
coedge $-1 $83 $80 $117 $118 reversed $58 $-1 #
coedge $-1 $80 $83 $85 $108 forward $58 $-1 #
coedge $-1 $82 $81 $80 $103 reversed $37 $-1 #
edge $-1 $109 0 $119 0.219000000000000028 $80 $120 forward 7 unknown #
edge $-1 $119 0 $106 3.141592653589793116 $99 $121 forward 7 unknown #
vertex $-1 $108 $122 #
vertex $-1 $118 $123 #
straight-curve $-1 11.11249999999999893 1.574799999999999978 0 0 25.39999999999999858 0 I I #
edge $-1 $105 0 $109 3.141592653589793116 $85 $124 forward 7 unknown #
vertex $-1 $108 $125 #
ellipse-curve $-1 0 1.574799999999999978 0 0 1 0 -11.11249999999999893 0 0 1 I I #
coedge $-1 $91 $91 $89 $112 forward $98 $-1 #
edge $-1 $93 0 $95 3.141592653589793116 $111 $126 forward 7 unknown #
cone-surface $-1 0 7.137400000000000411 0 0 -1 0 4.762499999999999289 0 0 1 I I 0 1 4.762499999999999289 forward I I I I #
ellipse-curve $-1 0 7.137400000000000411 0 0 -1 0 -4.762499999999999289 0 0 1 I I #
point $-1 4.762499999999999289 7.137400000000000411 0 #
point $-1 -4.762499999999999289 7.137400000000000411 0 #
coedge $-1 $99 $99 $100 $118 forward $78 $-1 #
edge $-1 $106 0 $119 3.141592653589793116 $117 $127 forward 7 unknown #
vertex $-1 $118 $128 #
straight-curve $-1 -11.11249999999999893 1.574799999999999978 -1.36084381068511657e-15 0 25.39999999999999858 0 I I #
ellipse-curve $-1 0 7.137400000000000411 0 0 1 0 -11.11249999999999893 0 0 1 I I #
point $-1 11.11249999999999893 1.574799999999999978 0 #
point $-1 11.11249999999999893 7.137400000000000411 0 #
ellipse-curve $-1 0 1.574799999999999978 0 0 1 0 11.11249999999999893 0 0 1 I I #
point $-1 -11.11249999999999893 1.574799999999999978 0 #
ellipse-curve $-1 0 7.137400000000000411 0 0 -1 0 4.762499999999999289 0 0 1 I I #
ellipse-curve $-1 0 7.137400000000000411 0 0 1 0 11.11249999999999893 0 0 1 I I #
point $-1 -11.11249999999999893 7.137400000000000411 0 #
End-of-ACIS-data 