700 0 2 0           
24 FBMach with ACIS - 7.0.3 13 ACIS 7.0.3 NT 24 Tue May 14 14:31:35 2002 
1 9.9999999999999995e-007 1e-010 
body $2 -1 $-1 $3 $-1 $4 #
bdycol-kcp $-1 -1 1 4 $5 $6 $7 $8 #
model_id-kcp-attrib $-1 -1 $-1 $-1 $0 1 1021401094 1021401094 -584253439 1 #
lump $-1 -1 $-1 $-1 $9 $0 #
transform $-1 -1 1 0 0 0 1 0 0 0 1 0 0 0 1 rotate no_reflect no_shear #
body $10 -1 $-1 $11 $-1 $12 #
body $13 -1 $-1 $14 $-1 $15 #
body $16 -1 $-1 $17 $-1 $18 #
body $19 -1 $-1 $20 $-1 $21 #
shell $-1 -1 $-1 $-1 $-1 $22 $-1 $3 #
model_id-kcp-attrib $-1 -1 $-1 $-1 $5 1 1021401094 1021401094 -584253438 1 #
lump $-1 -1 $-1 $-1 $23 $5 #
transform $-1 -1 1 0 0 0 1 0 0 0 1 0 3.5687000000000002 0 1 no_rotate no_reflect no_shear #
rgb_color-st-attrib $-1 -1 $24 $-1 $6 1 0.5 1 #
lump $-1 -1 $-1 $-1 $25 $6 #
transform $-1 -1 1 0 0 0 1 0 0 0 1 0 3.5687000000000002 0 1 no_rotate no_reflect no_shear #
rgb_color-st-attrib $-1 -1 $26 $-1 $7 0.5 1 1 #
lump $-1 -1 $-1 $-1 $27 $7 #
transform $-1 -1 1 0 0 0 1 0 0 0 1 0 3.5687000000000002 0 1 no_rotate no_reflect no_shear #
rgb_color-st-attrib $-1 -1 $28 $-1 $8 0.5 1 1 #
lump $-1 -1 $-1 $-1 $29 $8 #
transform $-1 -1 1 0 0 0 1 0 0 0 1 0 0 0 1 no_rotate no_reflect no_shear #
face $30 -1 $-1 $31 $32 $9 $-1 $33 reversed single #
shell $-1 -1 $-1 $-1 $-1 $34 $-1 $11 #
model_id-kcp-attrib $-1 -1 $-1 $13 $6 1 1021401094 1021401094 -580714491 1 #
shell $-1 -1 $-1 $-1 $-1 $35 $-1 $14 #
model_id-kcp-attrib $-1 -1 $-1 $16 $7 1 1021401094 1021401094 -577044477 1 #
shell $-1 -1 $-1 $-1 $-1 $36 $-1 $17 #
model_id-kcp-attrib $-1 -1 $-1 $19 $8 1 1021401094 1021401094 -572456956 1 #
shell $-1 -1 $-1 $-1 $-1 $37 $-1 $20 #
model_id-kcp-attrib $-1 -1 $-1 $-1 $22 1 1021401094 1021401094 -584253439 2 #
face $38 -1 $-1 $39 $40 $9 $-1 $41 forward single #
loop $-1 -1 $-1 $42 $43 $22 #
plane-surface $-1 -1 $-1 0 0 0 0 1 0 25.399999999999999 0 0 forward_v I I I I #
face $-1 -1 $-1 $44 $45 $23 $-1 $46 forward single #
face $-1 -1 $-1 $47 $48 $25 $-1 $49 forward single #
face $-1 -1 $-1 $50 $51 $27 $-1 $52 reversed single #
face $-1 -1 $-1 $53 $54 $29 $-1 $55 forward single #
model_id-kcp-attrib $-1 -1 $-1 $-1 $31 1 1021401094 1021401094 -584253439 3 #
face $56 -1 $-1 $57 $58 $9 $-1 $59 forward single #
loop $-1 -1 $-1 $-1 $60 $31 #
cone-surface $-1 -1 $-1 0 0 0 0 1 0 12.306299999999998 0 0 1 I I 0 1 12.306299999999998 forward I I I I #
loop $-1 -1 $-1 $-1 $61 $22 #
coedge $-1 -1 $-1 $62 $62 $63 $64 reversed $32 $-1 #
face $-1 -1 $-1 $65 $66 $23 $-1 $67 reversed single #
loop $-1 -1 $-1 $-1 $68 $34 #
plane-surface $-1 -1 $-1 0 0 12.306299999999998 0 0 1 1 0 0 forward_v I I I I #
face $-1 -1 $-1 $69 $70 $25 $-1 $71 forward single #
loop $-1 -1 $-1 $72 $73 $35 #
cone-surface $-1 -1 $-1 0 -1.9938999999999965 0 0 1 0 11.112499999999999 0 0 1 I I 0 -1 11.112499999999999 forward I I I I #
face $-1 -1 $-1 $74 $75 $27 $-1 $52 reversed single #
loop $-1 -1 $-1 $-1 $76 $36 #
cone-surface $-1 -1 $-1 -4.6138186852399418e-032 -3.5687000000000002 0 0 -1 0 12.306299999999998 0 0 1 I I 0 1 12.306299999999998 forward I I I I #
face $-1 -1 $-1 $77 $78 $29 $-1 $79 forward single #
loop $-1 -1 $-1 $80 $81 $37 #
cone-surface $-1 -1 $-1 0 0 0 0 1 0 -4.7624999999999993 0 0 1 I I 0 1 4.7624999999999993 forward I I I I #
model_id-kcp-attrib $-1 -1 $-1 $-1 $39 1 1021401094 1021401094 -584253439 4 #
face $82 -1 $-1 $83 $84 $9 $-1 $85 forward single #
loop $-1 -1 $-1 $-1 $86 $39 #
cone-surface $-1 -1 $-1 0 0 0 0 1 0 12.306299999999998 0 0 1 I I 0 1 12.306299999999998 forward I I I I #
coedge $-1 -1 $-1 $87 $63 $88 $89 forward $40 $-1 #
coedge $-1 -1 $-1 $90 $90 $91 $92 reversed $42 $-1 #
coedge $-1 -1 $-1 $43 $43 $93 $94 reversed $32 $-1 #
coedge $-1 -1 $-1 $60 $95 $43 $64 forward $40 $-1 #
edge $96 -1 $-1 $97 0 $98 3.1415926535897931 $43 $99 forward @7 unknown #
face $100 -1 $-1 $101 $102 $23 $-1 $103 reversed single #
loop $-1 -1 $-1 $-1 $104 $44 #
plane-surface $-1 -1 $-1 0 0 -12.306299999999998 0 0 1 1 0 0 forward_v I I I I #
coedge $-1 -1 $-1 $105 $106 $107 $108 forward $45 $-1 #
face $-1 -1 $-1 $109 $110 $25 $-1 $111 forward single #
loop $-1 -1 $-1 $112 $113 $47 #
cone-surface $-1 -1 $-1 -4.6138186852399418e-032 -1.9938999999999965 0 0 1 0 12.306299999999998 0 0 1 I I 0 1 12.306299999999998 forward I I I I #
loop $-1 -1 $-1 $-1 $114 $35 #
coedge $-1 -1 $-1 $73 $73 $115 $116 forward $48 $-1 #
face $-1 -1 $-1 $117 $118 $27 $-1 $52 reversed single #
loop $-1 -1 $-1 $-1 $119 $50 #
coedge $-1 -1 $-1 $120 $121 $122 $123 reversed $51 $-1 #
face $-1 -1 $-1 $-1 $124 $29 $-1 $125 reversed single #
loop $-1 -1 $-1 $-1 $126 $53 #
plane-surface $-1 -1 $-1 0 7.1374000000000004 0 0 1 0 0 0 1 forward_v I I I I #
loop $-1 -1 $-1 $-1 $127 $37 #
coedge $-1 -1 $-1 $81 $81 $126 $128 forward $54 $-1 #
model_id-kcp-attrib $-1 -1 $-1 $-1 $57 1 1021401094 1021401094 -584253439 5 #
face $129 -1 $-1 $130 $131 $9 $-1 $132 forward single #
loop $-1 -1 $-1 $133 $134 $57 #
plane-surface $-1 -1 $-1 0 1.5748 0 0 1 0 25.399999999999999 0 0 forward_v I I I I #
coedge $-1 -1 $-1 $135 $93 $95 $136 forward $58 $-1 #
coedge $-1 -1 $-1 $95 $60 $134 $137 reversed $40 $-1 #
coedge $-1 -1 $-1 $93 $135 $60 $89 reversed $58 $-1 #
edge $-1 -1 $-1 $98 0 $138 0.062 $88 $139 forward @7 unknown #
coedge $-1 -1 $-1 $61 $61 $140 $141 reversed $42 $-1 #
coedge $-1 -1 $-1 $142 $143 $61 $92 forward $144 $-1 #
edge $145 -1 $-1 $146 0 $147 3.1415926535897931 $61 $148 forward @7 unknown #
coedge $-1 -1 $-1 $86 $88 $62 $94 forward $58 $-1 #
edge $149 -1 $-1 $98 0 $97 3.1415926535897931 $62 $150 forward @7 unknown #
coedge $-1 -1 $-1 $63 $87 $86 $136 reversed $40 $-1 #
attrib_edge_convexity-kcp-attrib $-1 -1 $151 $-1 $64 1 #
vertex $-1 -1 $-1 $94 $152 #
vertex $-1 -1 $-1 $94 $153 #
ellipse-curve $-1 -1 $-1 0 0 0 0 1 0 -12.306299999999998 0 0 1 I I #
model_id-kcp-attrib $-1 -1 $-1 $-1 $65 1 1021401094 1021401094 -584253438 2 #
face $-1 -1 $-1 $154 $155 $23 $-1 $156 reversed single #
loop $-1 -1 $-1 $-1 $157 $65 #
plane-surface $-1 -1 $-1 0 -3.5687000000000002 0 0 1 0 0 0 1 forward_v I I I I #
coedge $-1 -1 $-1 $158 $159 $160 $161 forward $66 $-1 #
coedge $-1 -1 $-1 $162 $68 $163 $164 forward $45 $-1 #
coedge $-1 -1 $-1 $68 $162 $165 $166 forward $45 $-1 #
coedge $-1 -1 $-1 $167 $168 $68 $108 reversed $169 $-1 #
edge $-1 -1 $-1 $170 -3.5687000000000002 $171 3.5687000000000002 $107 $172 forward @7 unknown #
face $-1 -1 $-1 $-1 $173 $25 $-1 $174 reversed single #
loop $-1 -1 $-1 $175 $176 $69 #
plane-surface $-1 -1 $-1 -0.58789216623939999 3.5687000000000051 0 0 1 0 0 0 1 forward_v I I I I #
loop $-1 -1 $-1 $-1 $177 $47 #
coedge $-1 -1 $-1 $113 $113 $176 $178 forward $70 $-1 #
coedge $-1 -1 $-1 $114 $114 $179 $180 reversed $72 $-1 #
coedge $-1 -1 $-1 $115 $115 $73 $116 reversed $175 $-1 #
edge $-1 -1 $-1 $181 -3.1415926535897931 $181 3.1415926535897931 $73 $182 forward @7 unknown #
face $-1 -1 $-1 $183 $184 $27 $-1 $52 reversed single #
loop $-1 -1 $-1 $-1 $185 $74 #
coedge $-1 -1 $-1 $186 $187 $188 $189 reversed $75 $-1 #
coedge $-1 -1 $-1 $190 $76 $191 $192 forward $51 $-1 #
coedge $-1 -1 $-1 $76 $190 $193 $194 reversed $51 $-1 #
coedge $-1 -1 $-1 $195 $196 $76 $123 forward $197 $-1 #
edge $-1 -1 $-1 $198 0 $199 1.5707963267948966 $122 $200 forward @7 unknown #
loop $-1 -1 $-1 $-1 $201 $77 #
plane-surface $-1 -1 $-1 0 0 0 0 1 0 0 0 1 forward_v I I I I #
coedge $-1 -1 $-1 $126 $126 $81 $128 reversed $78 $-1 #
coedge $-1 -1 $-1 $127 $127 $201 $202 reversed $80 $-1 #
edge $-1 -1 $-1 $203 -3.1415926535897931 $203 3.1415926535897931 $81 $204 forward @7 unknown #
model_id-kcp-attrib $-1 -1 $-1 $-1 $83 1 1021401094 1021401094 -584253439 6 #
face $205 -1 $-1 $206 $207 $9 $-1 $208 forward single #
loop $-1 -1 $-1 $-1 $209 $83 #
cone-surface $-1 -1 $-1 0 1.5748 0 0 1 0 11.112499999999999 0 0 1 I I 0 1 11.112499999999999 forward I I I I #
loop $-1 -1 $-1 $-1 $210 $57 #
coedge $-1 -1 $-1 $211 $211 $87 $137 forward $84 $-1 #
coedge $-1 -1 $-1 $88 $86 $211 $212 reversed $58 $-1 #
edge $-1 -1 $-1 $97 0 $213 0.062 $86 $214 forward @7 unknown #
edge $215 -1 $-1 $213 0 $138 3.1415926535897931 $134 $216 forward @7 unknown #
vertex $-1 -1 $-1 $212 $217 #
straight-curve $-1 -1 $-1 12.306299999999998 0 0 0 25.399999999999999 0 I I #
coedge $-1 -1 $-1 $218 $219 $90 $141 forward $220 $-1 #
edge $221 -1 $-1 $147 0 $146 3.1415926535897931 $90 $222 forward @7 unknown #
coedge $-1 -1 $-1 $223 $91 $219 $224 reversed $144 $-1 #
coedge $-1 -1 $-1 $91 $223 $218 $225 forward $144 $-1 #
loop $-1 -1 $-1 $-1 $142 $226 #
attrib_edge_convexity-kcp-attrib $-1 -1 $227 $-1 $92 1 #
vertex $-1 -1 $-1 $141 $228 #
vertex $-1 -1 $-1 $141 $229 #
ellipse-curve $-1 -1 $-1 0 0 0 0 -1 0 -4.7624999999999993 0 0 1 I I #
attrib_edge_convexity-kcp-attrib $-1 -1 $230 $-1 $94 1 #
ellipse-curve $-1 -1 $-1 0 0 0 0 1 0 12.306299999999998 0 0 1 I I #
convexity-sys-attrib $-1 -1 $-1 $96 $64 #
point $-1 -1 $-1 -12.306299999999998 0 0 #
point $-1 -1 $-1 12.306299999999998 0 0 #
face $231 -1 $-1 $232 $233 $23 $-1 $234 reversed single #
loop $-1 -1 $-1 $-1 $235 $101 #
plane-surface $-1 -1 $-1 -12.306299999999998 0 0 1 0 0 0 0 -1 forward_v I I I I #
coedge $-1 -1 $-1 $236 $165 $237 $238 forward $102 $-1 #
coedge $-1 -1 $-1 $239 $104 $236 $240 forward $66 $-1 #
coedge $-1 -1 $-1 $104 $239 $241 $242 forward $66 $-1 #
coedge $-1 -1 $-1 $168 $167 $104 $161 reversed $169 $-1 #
edge $-1 -1 $-1 $243 -3.5687000000000002 $244 3.5687000000000002 $160 $245 forward @7 unknown #
coedge $-1 -1 $-1 $106 $105 $246 $247 forward $45 $-1 #
coedge $-1 -1 $-1 $248 $249 $105 $164 reversed $233 $-1 #
edge $-1 -1 $-1 $171 -12.306299999999998 $250 12.306299999999998 $163 $251 forward @7 unknown #
coedge $-1 -1 $-1 $157 $252 $106 $166 reversed $102 $-1 #
edge $-1 -1 $-1 $253 -12.306299999999998 $170 12.306299999999998 $165 $254 forward @7 unknown #
coedge $-1 -1 $-1 $160 $107 $252 $255 forward $169 $-1 #
coedge $-1 -1 $-1 $107 $160 $248 $256 reversed $169 $-1 #
loop $-1 -1 $-1 $-1 $167 $232 #
vertex $-1 -1 $-1 $108 $257 #
vertex $-1 -1 $-1 $108 $258 #
straight-curve $-1 -1 $-1 12.306299999999998 0 12.306299999999998 0 1 0 I I #
loop $-1 -1 $-1 $259 $260 $109 #
plane-surface $-1 -1 $-1 -0.58789216623939999 -1.9938999999999965 0 0 1 0 0 0 1 forward_v I I I I #
loop $-1 -1 $-1 $-1 $115 $69 #
coedge $-1 -1 $-1 $176 $176 $113 $178 reversed $110 $-1 #
coedge $-1 -1 $-1 $177 $177 $260 $261 reversed $112 $-1 #
edge $-1 -1 $-1 $262 -3.1415926535897931 $262 3.1415926535897931 $113 $263 forward @7 unknown #
coedge $-1 -1 $-1 $179 $179 $114 $180 forward $259 $-1 #
edge $264 -1 $-1 $265 0 $265 6.2831853071795862 $114 $266 forward @7 unknown #
vertex $-1 -1 $-1 $116 $267 #
ellipse-curve $-1 -1 $-1 0 3.5687000000000051 0 0 1 0 11.112499999999999 0 0 1 I I #
face $-1 -1 $-1 $268 $269 $27 $-1 $270 forward single #
loop $-1 -1 $-1 $-1 $271 $117 #
coedge $-1 -1 $-1 $272 $273 $271 $274 forward $118 $-1 #
coedge $-1 -1 $-1 $275 $119 $276 $277 reversed $75 $-1 #
coedge $-1 -1 $-1 $119 $275 $121 $194 forward $75 $-1 #
coedge $-1 -1 $-1 $278 $279 $119 $189 forward $280 $-1 #
edge $-1 -1 $-1 $281 -3.1415926535897931 $282 -1.5707963267948966 $188 $283 forward @7 unknown #
coedge $-1 -1 $-1 $121 $120 $284 $285 reversed $51 $-1 #
coedge $-1 -1 $-1 $273 $272 $286 $192 reversed $118 $-1 #
edge $-1 -1 $-1 $198 -7.1374000000000004 $287 0 $286 $288 forward @7 unknown #
coedge $-1 -1 $-1 $289 $290 $291 $194 forward $292 $-1 #
edge $-1 -1 $-1 $199 -7.1374000000000004 $282 0 $193 $293 forward @7 unknown #
coedge $-1 -1 $-1 $196 $122 $290 $294 reversed $197 $-1 #
coedge $-1 -1 $-1 $122 $195 $295 $296 forward $197 $-1 #
loop $-1 -1 $-1 $-1 $122 $297 #
vertex $-1 -1 $-1 $298 $299 #
vertex $-1 -1 $-1 $300 $301 #
ellipse-curve $-1 -1 $-1 -4.6138186852399418e-032 3.5687000000000002 0 0 -1 0 12.306299999999998 0 0 1 I I #
coedge $-1 -1 $-1 $201 $201 $127 $202 forward $124 $-1 #
edge $-1 -1 $-1 $302 -3.1415926535897931 $302 3.1415926535897931 $127 $303 forward @7 unknown #
vertex $-1 -1 $-1 $128 $304 #
ellipse-curve $-1 -1 $-1 0 7.1374000000000004 0 0 -1 0 4.7624999999999993 0 0 1 I I #
model_id-kcp-attrib $-1 -1 $-1 $-1 $130 1 1021401094 1021401094 -584253439 7 #
face $305 -1 $-1 $226 $306 $9 $-1 $307 forward single #
loop $-1 -1 $-1 $-1 $308 $130 #
cone-surface $-1 -1 $-1 0 1.5748 0 0 1 0 11.112499999999999 0 0 1 I I 0 1 11.112499999999999 forward I I I I #
coedge $-1 -1 $-1 $309 $310 $311 $312 forward $131 $-1 #
coedge $-1 -1 $-1 $313 $313 $310 $314 reversed $133 $-1 #
coedge $-1 -1 $-1 $134 $134 $135 $212 forward $84 $-1 #
edge $315 -1 $-1 $138 0 $213 3.1415926535897931 $211 $316 forward @7 unknown #
vertex $-1 -1 $-1 $212 $317 #
straight-curve $-1 -1 $-1 -12.306299999999998 0 -1.507037317204432e-015 0 25.399999999999999 0 I I #
attrib_edge_convexity-kcp-attrib $-1 -1 $318 $-1 $137 1 #
ellipse-curve $-1 -1 $-1 0 1.5748 0 0 1 0 -12.306299999999998 0 0 1 I I #
point $-1 -1 $-1 12.306299999999998 1.5748 0 #
coedge $-1 -1 $-1 $319 $140 $143 $225 reversed $220 $-1 #
coedge $-1 -1 $-1 $140 $319 $142 $224 forward $220 $-1 #
loop $-1 -1 $-1 $-1 $218 $320 #
attrib_edge_convexity-kcp-attrib $-1 -1 $321 $-1 $141 1 #
ellipse-curve $-1 -1 $-1 0 0 0 0 -1 0 4.7624999999999993 0 0 1 I I #
coedge $-1 -1 $-1 $143 $142 $322 $323 reversed $144 $-1 #
edge $-1 -1 $-1 $324 0 $147 0.28100000000000003 $219 $325 forward @7 unknown #
edge $-1 -1 $-1 $326 0 $146 0.28100000000000003 $218 $327 forward @7 unknown #
face $328 -1 $-1 $320 $144 $9 $-1 $329 reversed single #
convexity-sys-attrib $-1 -1 $-1 $145 $92 #
point $-1 -1 $-1 -4.7624999999999993 0 0 #
point $-1 -1 $-1 4.7624999999999993 0 0 #
convexity-sys-attrib $-1 -1 $-1 $149 $94 #
model_id-kcp-attrib $-1 -1 $-1 $-1 $154 1 1021401094 1021401094 -584253438 3 #
face $-1 -1 $-1 $-1 $169 $23 $-1 $330 reversed single #
loop $-1 -1 $-1 $-1 $248 $154 #
plane-surface $-1 -1 $-1 0 3.5687000000000002 0 0 -1 0 0 0 -1 forward_v I I I I #
coedge $-1 -1 $-1 $331 $246 $249 $332 forward $155 $-1 #
coedge $-1 -1 $-1 $252 $157 $158 $240 reversed $102 $-1 #
coedge $-1 -1 $-1 $246 $331 $157 $238 reversed $155 $-1 #
edge $-1 -1 $-1 $253 -12.306299999999998 $333 12.306299999999998 $237 $334 forward @7 unknown #
coedge $-1 -1 $-1 $159 $158 $331 $335 forward $66 $-1 #
edge $-1 -1 $-1 $244 -12.306299999999998 $333 12.306299999999998 $236 $336 forward @7 unknown #
coedge $-1 -1 $-1 $249 $248 $159 $242 reversed $233 $-1 #
edge $-1 -1 $-1 $337 -12.306299999999998 $243 12.306299999999998 $241 $338 forward @7 unknown #
vertex $-1 -1 $-1 $161 $339 #
vertex $-1 -1 $-1 $255 $340 #
straight-curve $-1 -1 $-1 12.306299999999998 0 -12.306299999999998 0 -1 0 I I #
coedge $-1 -1 $-1 $235 $237 $162 $247 reversed $155 $-1 #
edge $-1 -1 $-1 $250 -3.5687000000000002 $253 3.5687000000000002 $246 $341 forward @7 unknown #
coedge $-1 -1 $-1 $241 $163 $168 $256 forward $233 $-1 #
coedge $-1 -1 $-1 $163 $241 $235 $332 reversed $233 $-1 #
vertex $-1 -1 $-1 $164 $342 #
straight-curve $-1 -1 $-1 0 3.5687000000000002 12.306299999999998 -1 0 0 I I #
coedge $-1 -1 $-1 $165 $236 $167 $255 reversed $102 $-1 #
vertex $-1 -1 $-1 $247 $343 #
straight-curve $-1 -1 $-1 0 -3.5687000000000002 12.306299999999998 1 0 0 I I #
edge $-1 -1 $-1 $170 -12.306299999999998 $244 12.306299999999998 $167 $344 forward @7 unknown #
edge $-1 -1 $-1 $171 -12.306299999999998 $243 12.306299999999998 $168 $345 forward @7 unknown #
point $-1 -1 $-1 12.306299999999998 -3.5687000000000002 12.306299999999998 #
point $-1 -1 $-1 12.306299999999998 3.5687000000000002 12.306299999999998 #
loop $-1 -1 $-1 $-1 $179 $109 #
coedge $-1 -1 $-1 $260 $260 $177 $261 forward $173 $-1 #
edge $346 -1 $-1 $347 -3.1415926535897931 $347 3.1415926535897931 $177 $348 forward @7 unknown #
vertex $-1 -1 $-1 $178 $349 #
ellipse-curve $-1 -1 $-1 -4.6138186852399418e-032 3.5687000000000051 0 0 -1 0 12.306299999999998 0 0 1 I I #
convexity-sys-attrib $-1 -1 $-1 $-1 $180 #
vertex $-1 -1 $-1 $180 $350 #
ellipse-curve $-1 -1 $-1 0 -1.9938999999999965 0 0 1 0 11.112499999999999 0 0 1 I I #
point $-1 -1 $-1 -11.112499999999999 3.5687000000000006 0 #
face $-1 -1 $-1 $351 $352 $27 $-1 $353 reversed single #
loop $-1 -1 $-1 $-1 $291 $183 #
plane-surface $-1 -1 $-1 0 0 12.306299999999998 0 0 1 1 0 0 forward_v I I I I #
coedge $-1 -1 $-1 $354 $355 $356 $274 reversed $184 $-1 #
coedge $-1 -1 $-1 $191 $185 $357 $358 reversed $118 $-1 #
coedge $-1 -1 $-1 $185 $191 $359 $360 reversed $118 $-1 #
edge $-1 -1 $-1 $361 -7.1374000000000004 $362 0 $356 $363 forward @7 unknown #
coedge $-1 -1 $-1 $187 $186 $364 $365 reversed $75 $-1 #
coedge $-1 -1 $-1 $366 $367 $368 $277 forward $369 $-1 #
edge $-1 -1 $-1 $370 -7.1374000000000004 $281 0 $276 $371 forward @7 unknown #
coedge $-1 -1 $-1 $279 $188 $372 $373 reversed $280 $-1 #
coedge $-1 -1 $-1 $188 $278 $366 $374 forward $280 $-1 #
loop $-1 -1 $-1 $-1 $188 $375 #
vertex $-1 -1 $-1 $376 $377 #
vertex $-1 -1 $-1 $378 $379 #
ellipse-curve $-1 -1 $-1 -4.6138186852399418e-032 -3.5687000000000002 0 0 1 0 12.306299999999998 0 0 1 I I #
coedge $-1 -1 $-1 $380 $381 $190 $285 forward $382 $-1 #
edge $-1 -1 $-1 $282 -1.5707963267948966 $287 0 $284 $283 forward @7 unknown #
coedge $-1 -1 $-1 $383 $384 $385 $192 forward $352 $-1 #
vertex $-1 -1 $-1 $386 $387 #
straight-curve $-1 -1 $-1 12.306299999999998 -3.5687000000000002 0 0 -1 0 I I #
coedge $-1 -1 $-1 $388 $193 $381 $378 forward $292 $-1 #
coedge $-1 -1 $-1 $193 $388 $195 $294 forward $292 $-1 #
coedge $-1 -1 $-1 $389 $372 $187 $194 reversed $269 $-1 #
loop $-1 -1 $-1 $-1 $193 $390 #
straight-curve $-1 -1 $-1 -4.6138186852399418e-032 -3.5687000000000002 12.306299999999998 0 -1 0 I I #
edge $-1 -1 $-1 $391 -12.306299999999998 $199 4.6138186852399418e-032 $195 $392 forward @7 unknown #
coedge $-1 -1 $-1 $393 $385 $196 $296 reversed $394 $-1 #
edge $-1 -1 $-1 $391 -12.306299999999998 $198 0 $295 $395 forward @7 unknown #
face $-1 -1 $-1 $396 $197 $27 $-1 $397 reversed single #
edge $-1 -1 $-1 $198 0 $398 12.306299999999998 $384 $395 forward @7 unknown #
point $-1 -1 $-1 12.306299999999998 3.5687000000000002 0 #
edge $-1 -1 $-1 $199 4.6138186852399418e-032 $399 12.306299999999998 $400 $392 forward @7 unknown #
point $-1 -1 $-1 -4.6138186852399418e-032 3.5687000000000002 12.306299999999998 #
vertex $-1 -1 $-1 $202 $401 #
ellipse-curve $-1 -1 $-1 0 0 0 0 -1 0 -4.7624999999999993 0 0 1 I I #
point $-1 -1 $-1 -4.7624999999999993 7.1374000000000004 0 #
model_id-kcp-attrib $-1 -1 $-1 $-1 $206 1 1021401094 1021401094 -584253439 8 #
loop $-1 -1 $-1 $402 $403 $206 #
plane-surface $-1 -1 $-1 0 7.1374000000000004 0 0 1 0 25.399999999999999 0 0 forward_v I I I I #
coedge $-1 -1 $-1 $404 $405 $406 $407 forward $207 $-1 #
coedge $-1 -1 $-1 $406 $209 $403 $408 reversed $131 $-1 #
coedge $-1 -1 $-1 $209 $406 $210 $314 forward $131 $-1 #
coedge $-1 -1 $-1 $405 $404 $209 $312 reversed $207 $-1 #
edge $-1 -1 $-1 $409 0 $410 0.21900000000000003 $311 $411 forward @7 unknown #
coedge $-1 -1 $-1 $210 $210 $405 $412 reversed $133 $-1 #
edge $413 -1 $-1 $414 0 $409 3.1415926535897931 $210 $415 forward @7 unknown #
attrib_edge_convexity-kcp-attrib $-1 -1 $416 $-1 $212 1 #
ellipse-curve $-1 -1 $-1 0 1.5748 0 0 1 0 12.306299999999998 0 0 1 I I #
point $-1 -1 $-1 -12.306299999999998 1.5748 0 #
convexity-sys-attrib $-1 -1 $-1 $215 $137 #
coedge $-1 -1 $-1 $219 $218 $417 $418 reversed $220 $-1 #
face $419 -1 $-1 $-1 $220 $9 $-1 $420 reversed single #
convexity-sys-attrib $-1 -1 $-1 $221 $141 #
coedge $-1 -1 $-1 $417 $417 $223 $323 forward $402 $-1 #
edge $-1 -1 $-1 $326 0 $324 3.1415926535897931 $322 $421 forward @7 unknown #
vertex $-1 -1 $-1 $418 $422 #
straight-curve $-1 -1 $-1 4.7624999999999993 7.1374000000000004 0 0 -25.399999999999999 0 I I #
vertex $-1 -1 $-1 $418 $423 #
straight-curve $-1 -1 $-1 -4.7624999999999993 7.1374000000000004 5.8321877600790713e-016 0 -25.399999999999999 0 I I #
model_id-kcp-attrib $-1 -1 $-1 $-1 $226 1 1021401094 1021401094 -584253439 9 #
cone-surface $-1 -1 $-1 0 7.1374000000000004 0 0 -1 0 4.7624999999999993 0 0 1 I I 0 1 4.7624999999999993 forward I I I I #
plane-surface $-1 -1 $-1 12.306299999999998 0 0 -1 0 0 0 0 1 forward_v I I I I #
coedge $-1 -1 $-1 $237 $235 $239 $335 reversed $155 $-1 #
edge $-1 -1 $-1 $250 -12.306299999999998 $337 12.306299999999998 $249 $424 forward @7 unknown #
vertex $-1 -1 $-1 $335 $425 #
straight-curve $-1 -1 $-1 -12.306299999999998 -3.5687000000000002 0 0 0 -1 I I #
edge $-1 -1 $-1 $333 -3.5687000000000002 $337 3.5687000000000002 $331 $426 forward @7 unknown #
straight-curve $-1 -1 $-1 0 -3.5687000000000002 -12.306299999999998 -1 0 0 I I #
vertex $-1 -1 $-1 $242 $427 #
straight-curve $-1 -1 $-1 0 3.5687000000000002 -12.306299999999998 1 0 0 I I #
point $-1 -1 $-1 12.306299999999998 3.5687000000000002 -12.306299999999998 #
point $-1 -1 $-1 12.306299999999998 -3.5687000000000002 -12.306299999999998 #
straight-curve $-1 -1 $-1 -12.306299999999998 0 12.306299999999998 0 -1 0 I I #
point $-1 -1 $-1 -12.306299999999998 3.5687000000000002 12.306299999999998 #
point $-1 -1 $-1 -12.306299999999998 -3.5687000000000002 12.306299999999998 #
straight-curve $-1 -1 $-1 12.306299999999998 -3.5687000000000002 0 0 0 -1 I I #
straight-curve $-1 -1 $-1 12.306299999999998 3.5687000000000002 0 0 0 -1 I I #
convexity-sys-attrib $-1 -1 $-1 $-1 $261 #
vertex $-1 -1 $-1 $261 $428 #
ellipse-curve $-1 -1 $-1 -4.6138186852399418e-032 -1.9938999999999965 0 0 -1 0 12.306299999999998 0 0 1 I I #
point $-1 -1 $-1 -12.306299999999998 3.5687000000000046 -1.507037317204432e-015 #
point $-1 -1 $-1 11.112499999999999 -1.9939000000000002 0 #
face $-1 -1 $-1 $429 $430 $27 $-1 $431 reversed single #
loop $-1 -1 $-1 $-1 $286 $268 #
plane-surface $-1 -1 $-1 12.306299999999998 0 0 -1 0 0 0 0 1 forward_v I I I I #
coedge $-1 -1 $-1 $432 $271 $433 $434 reversed $184 $-1 #
coedge $-1 -1 $-1 $271 $432 $435 $436 reversed $184 $-1 #
coedge $-1 -1 $-1 $437 $438 $439 $274 forward $440 $-1 #
coedge $-1 -1 $-1 $441 $442 $272 $358 forward $443 $-1 #
edge $-1 -1 $-1 $287 0 $362 1.5707963267948966 $357 $283 forward @7 unknown #
coedge $-1 -1 $-1 $444 $445 $273 $360 forward $446 $-1 #
edge $-1 -1 $-1 $361 -1.5707963267948966 $198 0 $359 $200 forward @7 unknown #
vertex $-1 -1 $-1 $447 $448 #
vertex $-1 -1 $-1 $449 $450 #
straight-curve $-1 -1 $-1 -4.6138186852399418e-032 -3.5687000000000002 -12.306299999999998 0 -1 0 I I #
coedge $-1 -1 $-1 $451 $400 $275 $365 forward $452 $-1 #
edge $-1 -1 $-1 $199 1.5707963267948966 $370 3.1415926535897931 $364 $200 forward @7 unknown #
coedge $-1 -1 $-1 $453 $276 $279 $374 reversed $369 $-1 #
coedge $-1 -1 $-1 $276 $453 $451 $454 forward $369 $-1 #
coedge $-1 -1 $-1 $455 $456 $432 $277 reversed $430 $-1 #
loop $-1 -1 $-1 $-1 $276 $457 #
vertex $-1 -1 $-1 $458 $459 #
straight-curve $-1 -1 $-1 -12.306299999999998 -3.5687000000000002 0 0 -1 0 I I #
coedge $-1 -1 $-1 $291 $460 $278 $373 forward $269 $-1 #
edge $-1 -1 $-1 $461 -12.306299999999998 $282 -4.6138186852399418e-032 $278 $462 forward @7 unknown #
edge $-1 -1 $-1 $461 -12.306299999999998 $281 0 $366 $463 forward @7 unknown #
face $-1 -1 $-1 $464 $280 $27 $-1 $465 reversed single #
edge $-1 -1 $-1 $281 0 $466 12.306299999999998 $456 $463 forward @7 unknown #
point $-1 -1 $-1 -12.306299999999998 -3.5687000000000002 0 #
edge $-1 -1 $-1 $282 -4.6138186852399418e-032 $467 12.306299999999998 $381 $462 forward @7 unknown #
point $-1 -1 $-1 -4.6138186852399418e-032 -3.5687000000000002 12.306299999999998 #
coedge $-1 -1 $-1 $381 $284 $468 $469 reversed $382 $-1 #
coedge $-1 -1 $-1 $284 $380 $289 $378 reversed $382 $-1 #
loop $-1 -1 $-1 $-1 $284 $464 #
coedge $-1 -1 $-1 $470 $286 $442 $386 forward $352 $-1 #
coedge $-1 -1 $-1 $286 $470 $444 $298 reversed $352 $-1 #
coedge $-1 -1 $-1 $295 $468 $120 $192 reversed $394 $-1 #
edge $-1 -1 $-1 $287 0 $471 12.306299999999998 $383 $472 forward @7 unknown #
point $-1 -1 $-1 12.306299999999998 -3.5687000000000002 0 #
coedge $-1 -1 $-1 $290 $289 $393 $473 forward $292 $-1 #
coedge $-1 -1 $-1 $460 $291 $400 $300 forward $269 $-1 #
face $-1 -1 $-1 $474 $292 $27 $-1 $270 forward single #
vertex $-1 -1 $-1 $473 $475 #
straight-curve $-1 -1 $-1 0 3.5687000000000002 12.306299999999998 -1 0 0 I I #
coedge $-1 -1 $-1 $468 $295 $388 $473 reversed $394 $-1 #
loop $-1 -1 $-1 $-1 $385 $476 #
straight-curve $-1 -1 $-1 12.306299999999998 3.5687000000000002 0 0 0 -1 I I #
face $-1 -1 $-1 $477 $452 $27 $-1 $397 reversed single #
plane-surface $-1 -1 $-1 0 3.5687000000000002 0 0 -1 0 0 0 -1 forward_v I I I I #
vertex $-1 -1 $-1 $478 $479 #
vertex $-1 -1 $-1 $300 $480 #
coedge $-1 -1 $-1 $364 $451 $389 $300 reversed $452 $-1 #
point $-1 -1 $-1 4.7624999999999993 0 0 #
loop $-1 -1 $-1 $-1 $322 $206 #
coedge $-1 -1 $-1 $481 $481 $309 $408 forward $306 $-1 #
coedge $-1 -1 $-1 $311 $308 $481 $482 reversed $207 $-1 #
coedge $-1 -1 $-1 $308 $311 $313 $412 forward $207 $-1 #
coedge $-1 -1 $-1 $310 $309 $308 $407 reversed $131 $-1 #
edge $-1 -1 $-1 $414 0 $483 0.21900000000000003 $308 $484 forward @7 unknown #
edge $-1 -1 $-1 $483 0 $410 3.1415926535897931 $403 $485 forward @7 unknown #
vertex $-1 -1 $-1 $412 $486 #
vertex $-1 -1 $-1 $482 $487 #
straight-curve $-1 -1 $-1 11.112499999999999 1.5748 0 0 25.399999999999999 0 I I #
edge $488 -1 $-1 $409 0 $414 3.1415926535897931 $313 $489 forward @7 unknown #
attrib_edge_convexity-kcp-attrib $-1 -1 $490 $-1 $314 2 #
vertex $-1 -1 $-1 $412 $491 #
ellipse-curve $-1 -1 $-1 0 1.5748 0 0 1 0 -11.112499999999999 0 0 1 I I #
convexity-sys-attrib $-1 -1 $-1 $315 $212 #
coedge $-1 -1 $-1 $322 $322 $319 $418 forward $402 $-1 #
edge $-1 -1 $-1 $324 0 $326 3.1415926535897931 $417 $492 forward @7 unknown #
model_id-kcp-attrib $-1 -1 $-1 $-1 $320 1 1021401094 1021401094 -584253439 10 #
cone-surface $-1 -1 $-1 0 7.1374000000000004 0 0 -1 0 4.7624999999999993 0 0 1 I I 0 1 4.7624999999999993 forward I I I I #
ellipse-curve $-1 -1 $-1 0 7.1374000000000004 0 0 -1 0 -4.7624999999999993 0 0 1 I I #
point $-1 -1 $-1 4.7624999999999993 7.1374000000000004 0 #
point $-1 -1 $-1 -4.7624999999999993 7.1374000000000004 0 #
straight-curve $-1 -1 $-1 -12.306299999999998 3.5687000000000002 0 0 0 -1 I I #
point $-1 -1 $-1 -12.306299999999998 -3.5687000000000002 -12.306299999999998 #
straight-curve $-1 -1 $-1 -12.306299999999998 0 -12.306299999999998 0 1 0 I I #
point $-1 -1 $-1 -12.306299999999998 3.5687000000000002 -12.306299999999998 #
point $-1 -1 $-1 -12.306299999999998 -1.9938999999999965 -1.507037317204432e-015 #
face $-1 -1 $-1 $375 $493 $27 $-1 $465 reversed single #
loop $-1 -1 $-1 $-1 $368 $351 #
plane-surface $-1 -1 $-1 -12.306299999999998 0 0 1 0 0 0 0 -1 forward_v I I I I #
coedge $-1 -1 $-1 $355 $354 $186 $277 forward $184 $-1 #
coedge $-1 -1 $-1 $494 $495 $354 $434 forward $496 $-1 #
edge $-1 -1 $-1 $370 -3.1415926535897931 $361 -1.5707963267948966 $433 $200 forward @7 unknown #
coedge $-1 -1 $-1 $497 $498 $355 $436 forward $493 $-1 #
edge $-1 -1 $-1 $362 1.5707963267948966 $281 3.1415926535897931 $435 $283 forward @7 unknown #
coedge $-1 -1 $-1 $499 $356 $498 $449 forward $440 $-1 #
coedge $-1 -1 $-1 $356 $499 $494 $500 forward $440 $-1 #
coedge $-1 -1 $-1 $501 $502 $185 $274 reversed $503 $-1 #
loop $-1 -1 $-1 $-1 $356 $474 #
coedge $-1 -1 $-1 $442 $357 $502 $504 reversed $443 $-1 #
coedge $-1 -1 $-1 $357 $441 $383 $386 reversed $443 $-1 #
loop $-1 -1 $-1 $-1 $357 $505 #
coedge $-1 -1 $-1 $445 $359 $384 $298 forward $446 $-1 #
coedge $-1 -1 $-1 $359 $444 $501 $447 reversed $446 $-1 #
loop $-1 -1 $-1 $-1 $359 $506 #
edge $-1 -1 $-1 $361 -4.6138186852399418e-032 $398 12.306299999999998 $445 $507 forward @7 unknown #
point $-1 -1 $-1 -4.6138186852399418e-032 3.5687000000000002 -12.306299999999998 #
edge $-1 -1 $-1 $362 4.6138186852399418e-032 $466 12.306299999999998 $498 $508 forward @7 unknown #
point $-1 -1 $-1 -4.6138186852399418e-032 -3.5687000000000002 -12.306299999999998 #
coedge $-1 -1 $-1 $400 $364 $367 $454 reversed $452 $-1 #
loop $-1 -1 $-1 $-1 $364 $396 #
coedge $-1 -1 $-1 $367 $366 $460 $509 reversed $369 $-1 #
edge $-1 -1 $-1 $399 -12.306299999999998 $370 0 $451 $510 forward @7 unknown #
coedge $-1 -1 $-1 $511 $368 $495 $458 forward $430 $-1 #
coedge $-1 -1 $-1 $368 $511 $497 $376 reversed $430 $-1 #
face $-1 -1 $-1 $476 $369 $27 $-1 $431 reversed single #
edge $-1 -1 $-1 $370 0 $512 12.306299999999998 $495 $510 forward @7 unknown #
point $-1 -1 $-1 -12.306299999999998 3.5687000000000002 0 #
coedge $-1 -1 $-1 $372 $389 $453 $509 forward $269 $-1 #
vertex $-1 -1 $-1 $509 $513 #
straight-curve $-1 -1 $-1 0 -3.5687000000000002 12.306299999999998 1 0 0 I I #
straight-curve $-1 -1 $-1 -12.306299999999998 -3.5687000000000002 0 0 0 -1 I I #
face $-1 -1 $-1 $505 $382 $27 $-1 $465 reversed single #
plane-surface $-1 -1 $-1 0 -3.5687000000000002 0 0 1 0 0 0 1 forward_v I I I I #
vertex $-1 -1 $-1 $514 $515 #
vertex $-1 -1 $-1 $473 $516 #
coedge $-1 -1 $-1 $385 $393 $380 $469 forward $394 $-1 #
edge $-1 -1 $-1 $467 -12.306299999999998 $287 0 $468 $472 forward @7 unknown #
coedge $-1 -1 $-1 $384 $383 $517 $478 reversed $352 $-1 #
vertex $-1 -1 $-1 $386 $518 #
straight-curve $-1 -1 $-1 12.306299999999998 -3.5687000000000002 0 0 0 -1 I I #
edge $-1 -1 $-1 $467 -3.5687000000000002 $391 3.5687000000000002 $393 $519 forward @7 unknown #
face $-1 -1 $-1 $457 $440 $27 $-1 $520 reversed single #
point $-1 -1 $-1 12.306299999999998 3.5687000000000002 12.306299999999998 #
face $-1 -1 $-1 $-1 $394 $27 $-1 $353 reversed single #
face $-1 -1 $-1 $521 $496 $27 $-1 $397 reversed single #
edge $-1 -1 $-1 $398 -3.5687000000000002 $471 3.5687000000000002 $470 $522 forward @7 unknown #
point $-1 -1 $-1 12.306299999999998 3.5687000000000002 -12.306299999999998 #
point $-1 -1 $-1 -12.306299999999998 3.5687000000000002 12.306299999999998 #
coedge $-1 -1 $-1 $403 $403 $404 $482 forward $306 $-1 #
edge $-1 -1 $-1 $410 0 $483 3.1415926535897931 $481 $523 forward @7 unknown #
vertex $-1 -1 $-1 $482 $524 #
straight-curve $-1 -1 $-1 -11.112499999999999 1.5748 -1.3608438106851166e-015 0 25.399999999999999 0 I I #
ellipse-curve $-1 -1 $-1 0 7.1374000000000004 0 0 1 0 -11.112499999999999 0 0 1 I I #
point $-1 -1 $-1 11.112499999999999 1.5748 0 #
point $-1 -1 $-1 11.112499999999999 7.1374000000000004 0 #
attrib_edge_convexity-kcp-attrib $-1 -1 $525 $-1 $412 2 #
ellipse-curve $-1 -1 $-1 0 1.5748 0 0 1 0 11.112499999999999 0 0 1 I I #
convexity-sys-attrib $-1 -1 $-1 $413 $314 #
point $-1 -1 $-1 -11.112499999999999 1.5748 0 #
ellipse-curve $-1 -1 $-1 0 7.1374000000000004 0 0 -1 0 4.7624999999999993 0 0 1 I I #
loop $-1 -1 $-1 $-1 $435 $429 #
coedge $-1 -1 $-1 $495 $433 $438 $500 reversed $496 $-1 #
coedge $-1 -1 $-1 $433 $494 $455 $458 reversed $496 $-1 #
loop $-1 -1 $-1 $-1 $433 $477 #
coedge $-1 -1 $-1 $498 $435 $456 $376 forward $493 $-1 #
coedge $-1 -1 $-1 $435 $497 $437 $449 reversed $493 $-1 #
coedge $-1 -1 $-1 $438 $437 $511 $514 forward $440 $-1 #
edge $-1 -1 $-1 $512 -12.306299999999998 $361 -4.6138186852399418e-032 $494 $507 forward @7 unknown #
coedge $-1 -1 $-1 $517 $439 $445 $447 forward $503 $-1 #
coedge $-1 -1 $-1 $439 $517 $441 $504 forward $503 $-1 #
loop $-1 -1 $-1 $-1 $439 $521 #
edge $-1 -1 $-1 $471 -12.306299999999998 $362 4.6138186852399418e-032 $441 $508 forward @7 unknown #
face $-1 -1 $-1 $506 $443 $27 $-1 $465 reversed single #
face $-1 -1 $-1 $297 $446 $27 $-1 $397 reversed single #
straight-curve $-1 -1 $-1 0 3.5687000000000002 -12.306299999999998 1 0 0 I I #
straight-curve $-1 -1 $-1 0 -3.5687000000000002 -12.306299999999998 -1 0 0 I I #
edge $-1 -1 $-1 $399 -3.5687000000000002 $461 3.5687000000000002 $453 $526 forward @7 unknown #
straight-curve $-1 -1 $-1 -12.306299999999998 3.5687000000000002 0 0 0 -1 I I #
coedge $-1 -1 $-1 $456 $455 $499 $514 reversed $430 $-1 #
vertex $-1 -1 $-1 $500 $527 #
point $-1 -1 $-1 -12.306299999999998 -3.5687000000000002 12.306299999999998 #
edge $-1 -1 $-1 $466 -3.5687000000000002 $512 3.5687000000000002 $511 $528 forward @7 unknown #
point $-1 -1 $-1 -12.306299999999998 -3.5687000000000002 -12.306299999999998 #
point $-1 -1 $-1 12.306299999999998 -3.5687000000000002 12.306299999999998 #
coedge $-1 -1 $-1 $502 $501 $470 $478 forward $503 $-1 #
point $-1 -1 $-1 12.306299999999998 -3.5687000000000002 -12.306299999999998 #
straight-curve $-1 -1 $-1 12.306299999999998 0 12.306299999999998 0 1 0 I I #
plane-surface $-1 -1 $-1 0 0 -12.306299999999998 0 0 1 1 0 0 forward_v I I I I #
face $-1 -1 $-1 $390 $503 $27 $-1 $520 reversed single #
straight-curve $-1 -1 $-1 12.306299999999998 0 -12.306299999999998 0 -1 0 I I #
ellipse-curve $-1 -1 $-1 0 7.1374000000000004 0 0 1 0 11.112499999999999 0 0 1 I I #
point $-1 -1 $-1 -11.112499999999999 7.1374000000000004 0 #
convexity-sys-attrib $-1 -1 $-1 $488 $412 #
straight-curve $-1 -1 $-1 -12.306299999999998 0 12.306299999999998 0 -1 0 I I #
point $-1 -1 $-1 -12.306299999999998 3.5687000000000002 -12.306299999999998 #
straight-curve $-1 -1 $-1 -12.306299999999998 0 -12.306299999999998 0 1 0 I I #
End-of-ACIS-data 