600 0 1 0           
83 GICL ACIS Healer - Source: /gicl/data5/repository/UMD/tmp/Ipocket/Ipocket.sat - 6 0 18 ACIS 6.0.3 Solaris 24 Sun Apr 14 00:34:19 2002 
1 9.999999999999999547e-07 1.000000000000000036e-10 
body $-1 $1 $-1 $-1 #
lump $-1 $-1 $2 $0 #
shell $-1 $-1 $-1 $3 $-1 $1 #
face $-1 $4 $5 $2 $-1 $6 reversed single #
face $-1 $7 $8 $2 $-1 $6 reversed single #
loop $-1 $-1 $9 $3 #
plane-surface $-1 0 20 20 0 1 0 0 0 1 forward_v I I I I #
face $-1 $10 $11 $2 $-1 $12 reversed single #
loop $-1 $-1 $13 $4 #
coedge $-1 $14 $15 $16 $17 reversed $5 $-1 #
face $-1 $18 $19 $2 $-1 $20 reversed single #
loop $-1 $-1 $21 $7 #
plane-surface $-1 -25 40 20 1 0 0 0 0 -1 forward_v I I I I #
coedge $-1 $22 $23 $24 $25 reversed $8 $-1 #
coedge $-1 $26 $9 $27 $28 reversed $5 $-1 #
coedge $-1 $9 $26 $29 $30 reversed $5 $-1 #
coedge $-1 $31 $32 $9 $17 forward $33 $-1 #
edge $-1 $34 -15 $35 15 $16 $36 forward 7 unknown #
face $-1 $37 $38 $2 $-1 $39 forward single #
loop $-1 $-1 $40 $10 #
plane-surface $-1 25 40 20 -1 0 0 0 0 1 forward_v I I I I #
coedge $-1 $41 $42 $43 $44 forward $11 $-1 #
coedge $-1 $45 $13 $46 $47 reversed $8 $-1 #
coedge $-1 $13 $45 $48 $49 reversed $8 $-1 #
coedge $-1 $50 $51 $13 $25 forward $52 $-1 #
edge $-1 $53 -15 $54 15 $24 $55 forward 7 unknown #
coedge $-1 $15 $14 $56 $57 forward $5 $-1 #
coedge $-1 $58 $59 $14 $28 forward $38 $-1 #
edge $-1 $60 -25 $34 -10 $14 $61 forward 7 unknown #
coedge $-1 $62 $63 $15 $30 forward $64 $-1 #
edge $-1 $35 10 $65 25 $15 $66 forward 7 unknown #
coedge $-1 $67 $16 $63 $68 reversed $33 $-1 #
coedge $-1 $16 $67 $58 $69 reversed $33 $-1 #
loop $-1 $-1 $16 $37 #
vertex $-1 $69 $70 #
vertex $-1 $68 $71 #
straight-curve $-1 -10 20 20 0 0 -1 I I #
face $-1 $72 $33 $2 $-1 $73 reversed single #
loop $-1 $-1 $58 $18 #
plane-surface $-1 0 0 35 0 0 1 1 0 0 forward_v I I I I #
coedge $-1 $74 $75 $45 $76 forward $19 $-1 #
coedge $-1 $56 $21 $62 $77 reversed $11 $-1 #
coedge $-1 $21 $56 $59 $78 reversed $11 $-1 #
coedge $-1 $79 $80 $21 $44 reversed $81 $-1 #
edge $-1 $82 -15 $83 15 $43 $84 forward 7 unknown #
coedge $-1 $23 $22 $40 $76 reversed $8 $-1 #
coedge $-1 $85 $86 $22 $47 forward $64 $-1 #
edge $-1 $87 -25 $53 -10 $22 $66 forward 7 unknown #
coedge $-1 $88 $89 $23 $49 forward $38 $-1 #
edge $-1 $54 10 $90 25 $23 $61 forward 7 unknown #
coedge $-1 $91 $24 $89 $92 reversed $52 $-1 #
coedge $-1 $24 $91 $85 $93 reversed $52 $-1 #
loop $-1 $-1 $24 $94 #
vertex $-1 $93 $95 #
vertex $-1 $92 $96 #
straight-curve $-1 10 20 20 0 0 1 I I #
coedge $-1 $42 $41 $26 $57 reversed $11 $-1 #
edge $-1 $60 -15 $65 15 $56 $97 forward 7 unknown #
coedge $-1 $98 $27 $32 $69 forward $38 $-1 #
coedge $-1 $27 $99 $42 $78 forward $38 $-1 #
vertex $-1 $78 $100 #
straight-curve $-1 0 20 35 1 0 0 I I #
coedge $-1 $101 $29 $41 $77 forward $64 $-1 #
coedge $-1 $29 $102 $31 $68 forward $64 $-1 #
loop $-1 $-1 $85 $103 #
vertex $-1 $77 $104 #
straight-curve $-1 0 20 5 -1 0 0 I I #
coedge $-1 $32 $31 $105 $106 forward $33 $-1 #
edge $-1 $107 -20 $35 20 $31 $108 forward 7 unknown #
edge $-1 $34 -20 $109 20 $32 $110 forward 7 unknown #
point $-1 -10 20 35 #
point $-1 -10 20 5 #
face $-1 $111 $112 $2 $-1 $113 reversed single #
plane-surface $-1 -10 0 20 1 0 0 0 0 -1 forward_v I I I I #
coedge $-1 $114 $40 $86 $115 reversed $19 $-1 #
coedge $-1 $40 $114 $88 $116 reversed $19 $-1 #
edge $-1 $90 -15 $87 15 $40 $117 forward 7 unknown #
edge $-1 $65 -20 $83 20 $41 $118 forward 7 unknown #
edge $-1 $82 -20 $60 20 $42 $119 forward 7 unknown #
coedge $-1 $120 $43 $99 $121 reversed $81 $-1 #
coedge $-1 $43 $120 $101 $122 reversed $81 $-1 #
loop $-1 $-1 $80 $123 #
vertex $-1 $121 $124 #
vertex $-1 $122 $125 #
straight-curve $-1 -25 60 20 0 0 -1 I I #
coedge $-1 $126 $46 $51 $93 forward $64 $-1 #
coedge $-1 $46 $101 $74 $115 forward $64 $-1 #
vertex $-1 $76 $127 #
coedge $-1 $99 $48 $75 $116 forward $38 $-1 #
coedge $-1 $48 $128 $50 $92 forward $38 $-1 #
vertex $-1 $116 $129 #
coedge $-1 $51 $50 $130 $131 forward $52 $-1 #
edge $-1 $132 -20 $54 20 $50 $133 forward 7 unknown #
edge $-1 $53 -20 $134 20 $51 $135 forward 7 unknown #
face $-1 $103 $52 $2 $-1 $136 reversed single #
point $-1 10 20 5 #
point $-1 10 20 35 #
straight-curve $-1 -25 20 20 0 0 -1 I I #
coedge $-1 $137 $58 $138 $139 forward $38 $-1 #
coedge $-1 $59 $88 $79 $121 forward $38 $-1 #
point $-1 -25 20 35 #
coedge $-1 $86 $62 $80 $122 forward $64 $-1 #
coedge $-1 $63 $140 $141 $142 forward $64 $-1 #
face $-1 $143 $64 $2 $-1 $144 reversed single #
point $-1 -25 20 5 #
coedge $-1 $141 $138 $67 $106 reversed $112 $-1 #
edge $-1 $107 -15 $109 15 $67 $145 forward 7 unknown #
vertex $-1 $68 $146 #
straight-curve $-1 -10 0 5 0 1 0 I I #
vertex $-1 $69 $147 #
straight-curve $-1 -10 0 35 0 -1 0 I I #
face $-1 $148 $149 $2 $-1 $150 reversed single #
loop $-1 $-1 $105 $72 #
plane-surface $-1 0 -20 20 0 -1 0 0 0 -1 forward_v I I I I #
coedge $-1 $75 $74 $120 $151 reversed $19 $-1 #
edge $-1 $152 -20 $87 20 $74 $153 forward 7 unknown #
edge $-1 $90 -20 $154 20 $75 $155 forward 7 unknown #
straight-curve $-1 25 20 20 0 0 -1 I I #
straight-curve $-1 -25 40 5 0 1 0 I I #
straight-curve $-1 -25 40 35 0 -1 0 I I #
coedge $-1 $80 $79 $114 $151 forward $81 $-1 #
edge $-1 $154 -25 $82 25 $79 $156 forward 7 unknown #
edge $-1 $83 -25 $152 25 $80 $157 forward 7 unknown #
face $-1 $-1 $81 $2 $-1 $158 reversed single #
point $-1 -25 60 35 #
point $-1 -25 60 5 #
coedge $-1 $159 $85 $160 $161 forward $64 $-1 #
point $-1 25 20 5 #
coedge $-1 $89 $162 $163 $164 forward $38 $-1 #
point $-1 25 20 35 #
coedge $-1 $163 $160 $91 $131 reversed $165 $-1 #
edge $-1 $132 -15 $134 15 $91 $166 forward 7 unknown #
vertex $-1 $92 $167 #
straight-curve $-1 10 0 35 0 1 0 I I #
vertex $-1 $93 $168 #
straight-curve $-1 10 0 5 0 -1 0 I I #
plane-surface $-1 10 0 20 -1 0 0 0 0 1 forward_v I I I I #
coedge $-1 $169 $98 $170 $171 forward $38 $-1 #
coedge $-1 $105 $172 $98 $139 reversed $112 $-1 #
edge $-1 $109 10 $173 25 $138 $174 forward 7 unknown #
coedge $-1 $102 $175 $176 $177 forward $64 $-1 #
coedge $-1 $172 $105 $102 $142 reversed $112 $-1 #
edge $-1 $178 -25 $107 -10 $141 $179 forward 7 unknown #
face $-1 $123 $180 $2 $-1 $181 reversed single #
plane-surface $-1 0 0 5 0 0 1 1 0 0 forward_v I I I I #
straight-curve $-1 -10 -20 20 0 0 1 I I #
point $-1 -10 -20 5 #
point $-1 -10 -20 35 #
face $-1 $182 $165 $2 $-1 $113 reversed single #
loop $-1 $-1 $183 $111 #
plane-surface $-1 -25 -40 20 1 0 0 0 0 -1 forward_v I I I I #
edge $-1 $154 -15 $152 15 $114 $184 forward 7 unknown #
vertex $-1 $115 $185 #
straight-curve $-1 25 40 5 0 -1 0 I I #
vertex $-1 $116 $186 #
straight-curve $-1 25 40 35 0 1 0 I I #
straight-curve $-1 0 60 35 -1 0 0 I I #
straight-curve $-1 0 60 5 1 0 0 I I #
plane-surface $-1 0 60 20 0 -1 0 0 0 -1 forward_v I I I I #
coedge $-1 $175 $126 $187 $188 forward $64 $-1 #
coedge $-1 $130 $189 $126 $161 reversed $165 $-1 #
edge $-1 $134 10 $190 25 $160 $179 forward 7 unknown #
coedge $-1 $128 $169 $191 $192 forward $38 $-1 #
coedge $-1 $189 $130 $128 $164 reversed $165 $-1 #
edge $-1 $193 -25 $132 -10 $163 $174 forward 7 unknown #
loop $-1 $-1 $130 $148 #
straight-curve $-1 10 -20 20 -0 -0 -1 I I #
point $-1 10 -20 35 #
point $-1 10 -20 5 #
coedge $-1 $162 $137 $194 $195 forward $38 $-1 #
coedge $-1 $183 $196 $137 $171 reversed $149 $-1 #
edge $-1 $173 -20 $197 20 $170 $198 forward 7 unknown #
coedge $-1 $138 $141 $183 $199 reversed $112 $-1 #
vertex $-1 $139 $200 #
straight-curve $-1 0 -20 35 -1 0 0 I I #
coedge $-1 $140 $159 $201 $202 forward $64 $-1 #
coedge $-1 $196 $183 $140 $177 reversed $149 $-1 #
edge $-1 $203 -20 $178 20 $176 $204 forward 7 unknown #
vertex $-1 $142 $205 #
straight-curve $-1 0 -20 5 1 0 0 I I #
loop $-1 $-1 $201 $143 #
plane-surface $-1 0 -60 20 0 1 0 0 0 1 forward_v I I I I #
face $-1 $94 $206 $2 $-1 $207 reversed single #
coedge $-1 $176 $170 $172 $199 forward $149 $-1 #
straight-curve $-1 25 60 20 0 0 -1 I I #
point $-1 25 60 5 #
point $-1 25 60 35 #
coedge $-1 $208 $209 $159 $188 reversed $206 $-1 #
edge $-1 $190 -20 $210 20 $187 $211 forward 7 unknown #
coedge $-1 $160 $163 $208 $212 forward $165 $-1 #
vertex $-1 $188 $213 #
coedge $-1 $209 $208 $162 $192 reversed $206 $-1 #
edge $-1 $214 -20 $193 20 $191 $215 forward 7 unknown #
vertex $-1 $192 $216 #
coedge $-1 $217 $218 $169 $195 reversed $180 $-1 #
edge $-1 $197 -25 $214 25 $194 $219 forward 7 unknown #
coedge $-1 $170 $176 $217 $220 reversed $149 $-1 #
vertex $-1 $171 $221 #
straight-curve $-1 -25 -40 35 0 -1 0 I I #
edge $-1 $173 -15 $178 15 $172 $222 forward 7 unknown #
point $-1 -25 -20 35 #
coedge $-1 $218 $217 $175 $202 reversed $180 $-1 #
edge $-1 $210 -25 $203 25 $201 $223 forward 7 unknown #
vertex $-1 $177 $224 #
straight-curve $-1 -25 -40 5 0 1 0 I I #
point $-1 -25 -20 5 #
loop $-1 $-1 $209 $182 #
plane-surface $-1 25 -40 20 -1 0 0 0 0 1 forward_v I I I I #
coedge $-1 $191 $187 $189 $212 reversed $206 $-1 #
coedge $-1 $187 $191 $218 $225 forward $206 $-1 #
vertex $-1 $225 $226 #
straight-curve $-1 25 -40 5 0 -1 0 I I #
edge $-1 $193 -15 $190 15 $208 $227 forward 7 unknown #
point $-1 25 -20 5 #
vertex $-1 $192 $228 #
straight-curve $-1 25 -40 35 0 1 0 I I #
point $-1 25 -20 35 #
coedge $-1 $201 $194 $196 $220 forward $180 $-1 #
coedge $-1 $194 $201 $209 $225 reversed $180 $-1 #
straight-curve $-1 0 -60 35 1 0 0 I I #
edge $-1 $197 -15 $203 15 $196 $229 forward 7 unknown #
point $-1 -25 -60 35 #
straight-curve $-1 -25 -20 20 0 0 -1 I I #
straight-curve $-1 0 -60 5 -1 0 0 I I #
point $-1 -25 -60 5 #
edge $-1 $214 -15 $210 15 $209 $230 forward 7 unknown #
point $-1 25 -60 5 #
straight-curve $-1 25 -20 20 0 0 -1 I I #
point $-1 25 -60 35 #
straight-curve $-1 -25 -60 20 0 0 -1 I I #
straight-curve $-1 25 -60 20 0 0 -1 I I #
End-of-ACIS-data 