105 232 1 0                             
body $-1 $1 $-1 $2 #
lump $-1 $-1 $3 $0 #
transform $-1 1 0 0 0 1 0 0 0 1 0 0 20 1 0 0 0 #
shell $-1 $-1 $-1 $4 $1 #
face $-1 $5 $6 $3 $-1 $7 reversed single #
face $-1 $8 $9 $3 $-1 $7 reversed single #
loop $-1 $-1 $10 $4 #
plane-surface $-1 0 20 0 0 1 0 0 0 1 0 #
face $-1 $11 $12 $3 $-1 $13 reversed single #
loop $-1 $-1 $14 $5 #
coedge $-1 $15 $16 $17 $18 1 $6 $-1 #
face $-1 $19 $20 $3 $-1 $21 reversed single #
loop $-1 $-1 $22 $8 #
plane-surface $-1 -25 40 0 1 0 0 0 0 -1 0 #
coedge $-1 $23 $24 $25 $26 1 $9 $-1 #
coedge $-1 $27 $10 $28 $29 1 $6 $-1 #
coedge $-1 $10 $27 $30 $31 1 $6 $-1 #
coedge $-1 $32 $33 $10 $18 0 $34 $-1 #
edge $-1 $35 $36 $17 $37 0 #
face $-1 $38 $39 $3 $-1 $40 forward single #
loop $-1 $-1 $41 $11 #
plane-surface $-1 25 40 0 -1 0 0 0 0 1 0 #
coedge $-1 $42 $43 $44 $45 0 $12 $-1 #
coedge $-1 $46 $14 $47 $48 1 $9 $-1 #
coedge $-1 $14 $46 $49 $50 1 $9 $-1 #
coedge $-1 $51 $52 $14 $26 0 $53 $-1 #
edge $-1 $54 $55 $25 $56 0 #
coedge $-1 $16 $15 $57 $58 0 $6 $-1 #
coedge $-1 $59 $60 $15 $29 0 $39 $-1 #
edge $-1 $61 $35 $15 $62 0 #
coedge $-1 $63 $64 $16 $31 0 $65 $-1 #
edge $-1 $36 $66 $16 $67 0 #
coedge $-1 $68 $17 $64 $69 1 $34 $-1 #
coedge $-1 $17 $68 $59 $70 1 $34 $-1 #
loop $-1 $-1 $17 $38 #
vertex $-1 $70 $71 #
vertex $-1 $69 $72 #
straight-curve $-1 -10 20 0 0 0 -1 #
face $-1 $73 $34 $3 $-1 $74 reversed single #
loop $-1 $-1 $59 $19 #
plane-surface $-1 0 0 15 0 0 1 1 0 0 0 #
coedge $-1 $75 $76 $46 $77 0 $20 $-1 #
coedge $-1 $57 $22 $63 $78 1 $12 $-1 #
coedge $-1 $22 $57 $60 $79 1 $12 $-1 #
coedge $-1 $80 $81 $22 $45 1 $82 $-1 #
edge $-1 $83 $84 $44 $85 0 #
coedge $-1 $24 $23 $41 $77 1 $9 $-1 #
coedge $-1 $86 $87 $23 $48 0 $65 $-1 #
edge $-1 $88 $54 $23 $67 0 #
coedge $-1 $89 $90 $24 $50 0 $39 $-1 #
edge $-1 $55 $91 $24 $62 0 #
coedge $-1 $92 $25 $90 $93 1 $53 $-1 #
coedge $-1 $25 $92 $86 $94 1 $53 $-1 #
loop $-1 $-1 $25 $95 #
vertex $-1 $94 $96 #
vertex $-1 $93 $97 #
straight-curve $-1 10 20 0 0 -0 1 #
coedge $-1 $43 $42 $27 $58 1 $12 $-1 #
edge $-1 $61 $66 $57 $98 0 #
coedge $-1 $99 $28 $33 $70 0 $39 $-1 #
coedge $-1 $28 $100 $43 $79 0 $39 $-1 #
vertex $-1 $79 $101 #
straight-curve $-1 0 20 15 1 0 0 #
coedge $-1 $102 $30 $42 $78 0 $65 $-1 #
coedge $-1 $30 $103 $32 $69 0 $65 $-1 #
loop $-1 $-1 $86 $104 #
vertex $-1 $78 $105 #
straight-curve $-1 0 20 -15 -1 0 0 #
coedge $-1 $33 $32 $106 $107 0 $34 $-1 #
edge $-1 $108 $36 $32 $109 0 #
edge $-1 $35 $110 $33 $111 0 #
point $-1 -10 20 15 #
point $-1 -10 20 -15 #
face $-1 $112 $113 $3 $-1 $114 reversed single #
plane-surface $-1 -10 0 0 1 0 0 0 0 -1 0 #
coedge $-1 $115 $41 $87 $116 1 $20 $-1 #
coedge $-1 $41 $115 $89 $117 1 $20 $-1 #
edge $-1 $91 $88 $41 $118 0 #
edge $-1 $66 $84 $42 $119 0 #
edge $-1 $83 $61 $43 $120 0 #
coedge $-1 $121 $44 $100 $122 1 $82 $-1 #
coedge $-1 $44 $121 $102 $123 1 $82 $-1 #
loop $-1 $-1 $81 $124 #
vertex $-1 $122 $125 #
vertex $-1 $123 $126 #
straight-curve $-1 -25 60 0 0 0 -1 #
coedge $-1 $127 $47 $52 $94 0 $65 $-1 #
coedge $-1 $47 $102 $75 $116 0 $65 $-1 #
vertex $-1 $77 $128 #
coedge $-1 $100 $49 $76 $117 0 $39 $-1 #
coedge $-1 $49 $129 $51 $93 0 $39 $-1 #
vertex $-1 $117 $130 #
coedge $-1 $52 $51 $131 $132 0 $53 $-1 #
edge $-1 $133 $55 $51 $134 0 #
edge $-1 $54 $135 $52 $136 0 #
face $-1 $104 $53 $3 $-1 $137 reversed single #
point $-1 10 20 -15 #
point $-1 10 20 15 #
straight-curve $-1 -25 20 0 0 0 -1 #
coedge $-1 $138 $59 $139 $140 0 $39 $-1 #
coedge $-1 $60 $89 $80 $122 0 $39 $-1 #
point $-1 -25 20 15 #
coedge $-1 $87 $63 $81 $123 0 $65 $-1 #
coedge $-1 $64 $141 $142 $143 0 $65 $-1 #
face $-1 $144 $65 $3 $-1 $145 reversed single #
point $-1 -25 20 -15 #
coedge $-1 $142 $139 $68 $107 1 $113 $-1 #
edge $-1 $108 $110 $68 $146 0 #
vertex $-1 $69 $147 #
straight-curve $-1 -10 0 -15 0 1 0 #
vertex $-1 $70 $148 #
straight-curve $-1 -10 0 15 0 -1 0 #
face $-1 $149 $150 $3 $-1 $151 reversed single #
loop $-1 $-1 $106 $73 #
plane-surface $-1 0 -20 0 0 -1 0 0 0 -1 0 #
coedge $-1 $76 $75 $121 $152 1 $20 $-1 #
edge $-1 $153 $88 $75 $154 0 #
edge $-1 $91 $155 $76 $156 0 #
straight-curve $-1 25 20 0 0 0 -1 #
straight-curve $-1 -25 40 -15 0 1 0 #
straight-curve $-1 -25 40 15 0 -1 0 #
coedge $-1 $81 $80 $115 $152 0 $82 $-1 #
edge $-1 $155 $83 $80 $157 0 #
edge $-1 $84 $153 $81 $158 0 #
face $-1 $-1 $82 $3 $-1 $159 reversed single #
point $-1 -25 60 15 #
point $-1 -25 60 -15 #
coedge $-1 $160 $86 $161 $162 0 $65 $-1 #
point $-1 25 20 -15 #
coedge $-1 $90 $163 $164 $165 0 $39 $-1 #
point $-1 25 20 15 #
coedge $-1 $164 $161 $92 $132 1 $166 $-1 #
edge $-1 $133 $135 $92 $167 0 #
vertex $-1 $93 $168 #
straight-curve $-1 10 0 15 0 1 0 #
vertex $-1 $94 $169 #
straight-curve $-1 10 0 -15 0 -1 0 #
plane-surface $-1 10 0 0 -1 0 0 0 -0 1 0 #
coedge $-1 $170 $99 $171 $172 0 $39 $-1 #
coedge $-1 $106 $173 $99 $140 1 $113 $-1 #
edge $-1 $110 $174 $139 $175 0 #
coedge $-1 $103 $176 $177 $178 0 $65 $-1 #
coedge $-1 $173 $106 $103 $143 1 $113 $-1 #
edge $-1 $179 $108 $142 $180 0 #
face $-1 $124 $181 $3 $-1 $182 reversed single #
plane-surface $-1 0 0 -15 0 0 1 1 0 0 0 #
straight-curve $-1 -10 -20 0 -0 0 1 #
point $-1 -10 -20 -15 #
point $-1 -10 -20 15 #
face $-1 $183 $166 $3 $-1 $114 reversed single #
loop $-1 $-1 $184 $112 #
plane-surface $-1 -25 -40 0 1 0 0 0 0 -1 0 #
edge $-1 $155 $153 $115 $185 0 #
vertex $-1 $116 $186 #
straight-curve $-1 25 40 -15 0 -1 0 #
vertex $-1 $117 $187 #
straight-curve $-1 25 40 15 0 1 0 #
straight-curve $-1 0 60 15 -1 0 0 #
straight-curve $-1 0 60 -15 1 0 0 #
plane-surface $-1 0 60 0 0 -1 0 0 0 -1 0 #
coedge $-1 $176 $127 $188 $189 0 $65 $-1 #
coedge $-1 $131 $190 $127 $162 1 $166 $-1 #
edge $-1 $135 $191 $161 $180 0 #
coedge $-1 $129 $170 $192 $193 0 $39 $-1 #
coedge $-1 $190 $131 $129 $165 1 $166 $-1 #
edge $-1 $194 $133 $164 $175 0 #
loop $-1 $-1 $131 $149 #
straight-curve $-1 10 -20 0 -0 -0 -1 #
point $-1 10 -20 15 #
point $-1 10 -20 -15 #
coedge $-1 $163 $138 $195 $196 0 $39 $-1 #
coedge $-1 $184 $197 $138 $172 1 $150 $-1 #
edge $-1 $174 $198 $171 $199 0 #
coedge $-1 $139 $142 $184 $200 1 $113 $-1 #
vertex $-1 $140 $201 #
straight-curve $-1 0 -20 15 -1 0 0 #
coedge $-1 $141 $160 $202 $203 0 $65 $-1 #
coedge $-1 $197 $184 $141 $178 1 $150 $-1 #
edge $-1 $204 $179 $177 $205 0 #
vertex $-1 $143 $206 #
straight-curve $-1 0 -20 -15 1 0 0 #
loop $-1 $-1 $202 $144 #
plane-surface $-1 0 -60 0 0 1 -0 -0 0 1 0 #
face $-1 $95 $207 $3 $-1 $208 reversed single #
coedge $-1 $177 $171 $173 $200 0 $150 $-1 #
straight-curve $-1 25 60 0 0 0 -1 #
point $-1 25 60 -15 #
point $-1 25 60 15 #
coedge $-1 $209 $210 $160 $189 1 $207 $-1 #
edge $-1 $191 $211 $188 $212 0 #
coedge $-1 $161 $164 $209 $213 0 $166 $-1 #
vertex $-1 $189 $214 #
coedge $-1 $210 $209 $163 $193 1 $207 $-1 #
edge $-1 $215 $194 $192 $216 0 #
vertex $-1 $193 $217 #
coedge $-1 $218 $219 $170 $196 1 $181 $-1 #
edge $-1 $198 $215 $195 $220 0 #
coedge $-1 $171 $177 $218 $221 1 $150 $-1 #
vertex $-1 $172 $222 #
straight-curve $-1 -25 -40 15 0 -1 0 #
edge $-1 $174 $179 $173 $223 0 #
point $-1 -25 -20 15 #
coedge $-1 $219 $218 $176 $203 1 $181 $-1 #
edge $-1 $211 $204 $202 $224 0 #
vertex $-1 $178 $225 #
straight-curve $-1 -25 -40 -15 0 1 0 #
point $-1 -25 -20 -15 #
loop $-1 $-1 $210 $183 #
plane-surface $-1 25 -40 0 -1 0 0 0 0 1 0 #
coedge $-1 $192 $188 $190 $213 1 $207 $-1 #
coedge $-1 $188 $192 $219 $226 0 $207 $-1 #
vertex $-1 $226 $227 #
straight-curve $-1 25 -40 -15 0 -1 0 #
edge $-1 $194 $191 $209 $228 0 #
point $-1 25 -20 -15 #
vertex $-1 $193 $229 #
straight-curve $-1 25 -40 15 0 1 0 #
point $-1 25 -20 15 #
coedge $-1 $202 $195 $197 $221 0 $181 $-1 #
coedge $-1 $195 $202 $210 $226 1 $181 $-1 #
straight-curve $-1 0 -60 15 1 0 0 #
edge $-1 $198 $204 $197 $230 0 #
point $-1 -25 -60 15 #
straight-curve $-1 -25 -20 0 0 0 -1 #
straight-curve $-1 0 -60 -15 -1 0 0 #
point $-1 -25 -60 -15 #
edge $-1 $215 $211 $210 $231 0 #
point $-1 25 -60 -15 #
straight-curve $-1 25 -20 0 0 0 -1 #
point $-1 25 -60 15 #
straight-curve $-1 -25 -60 0 0 0 -1 #
straight-curve $-1 25 -60 0 0 0 -1 #
