600 0 2 0           
24 FBMach with ACIS - 6.0.3 13 ACIS 6.0.3 NT 24 Tue May 22 12:25:17 2001 
1 9.9999999999999995e-007 1e-010 
body $2 $3 $-1 $4 #
bdycol-kcp $-1 1 3 $5 $6 $7 #
model_id-kcp-attrib $-1 $-1 $-1 $0 1 990548717 50 -97386495 1 #
lump $-1 $-1 $8 $0 #
transform $-1 1 0 0 0 1 0 0 0 1 0 0 20 1 rotate no_reflect no_shear #
body $9 $10 $-1 $11 #
body $12 $13 $-1 $14 #
body $15 $16 $-1 $17 #
shell $-1 $-1 $-1 $18 $-1 $3 #
model_id-kcp-attrib $-1 $-1 $-1 $5 1 990548717 50 -97386494 1 #
lump $-1 $-1 $19 $5 #
transform $-1 1 0 0 0 1 0 0 0 1 0 0 20 1 no_rotate no_reflect no_shear #
rgb_color-st-attrib $-1 $20 $-1 $6 1 0 0 #
lump $-1 $-1 $21 $6 #
transform $-1 3.8285889215894375e-016 -4.6885143195523885e-032 -1 -1.2246063538223773e-016 -1 0 -1 1.2246063538223773e-016 -3.8285889215894375e-016 -143.41664064126334 1.7562892937315165e-014 19.999999999999947 1 rotate no_reflect no_shear #
rgb_color-st-attrib $-1 $22 $-1 $7 1 0 0 #
lump $-1 $-1 $23 $7 #
transform $-1 -3.8285889215894375e-016 0 -1 0 1 0 1 0 -3.8285889215894375e-016 143.41664064126334 0 19.999999999999947 1 rotate no_reflect no_shear #
face $24 $25 $26 $8 $-1 $27 reversed single #
shell $-1 $-1 $-1 $28 $-1 $10 #
model_id-kcp-attrib $-1 $-1 $12 $6 1 990548717 240 -84934653 1 #
shell $-1 $-1 $-1 $29 $-1 $13 #
model_id-kcp-attrib $-1 $-1 $15 $7 1 990548717 330 -95813628 1 #
shell $-1 $-1 $-1 $30 $-1 $16 #
model_id-kcp-attrib $-1 $-1 $-1 $18 1 990548717 50 -97386495 2 #
face $31 $32 $33 $8 $-1 $27 reversed single #
loop $-1 $-1 $34 $18 #
plane-surface $-1 0 20 0 0 1 0 0 0 1 forward_v I I I I #
face $35 $36 $37 $19 $-1 $38 forward single #
face $-1 $39 $40 $21 $-1 $41 forward single #
face $-1 $42 $43 $23 $-1 $44 forward single #
model_id-kcp-attrib $-1 $-1 $-1 $25 1 990548717 50 -97386495 3 #
face $45 $46 $47 $8 $-1 $48 reversed single #
loop $-1 $-1 $49 $25 #
coedge $-1 $50 $51 $52 $53 reversed $26 $-1 #
model_id-kcp-attrib $-1 $-1 $-1 $28 1 990548717 50 -97386494 4 #
face $54 $55 $56 $19 $-1 $57 reversed single #
loop $-1 $-1 $58 $28 #
plane-surface $-1 0 0 15 0 0 1 1 0 0 forward_v I I I I #
face $-1 $59 $60 $21 $-1 $61 reversed single #
loop $-1 $-1 $62 $29 #
plane-surface $-1 -15 0 -143.41664064126334 -1 0 -3.8285889215894375e-016 3.8285889215894375e-016 -1.2246063538223773e-016 -1 forward_v I I I I #
face $-1 $63 $64 $23 $-1 $65 reversed single #
loop $-1 $-1 $66 $30 #
plane-surface $-1 -15 0 -143.41664064126334 -1 0 -3.8285889215894375e-016 -3.8285889215894375e-016 0 1 forward_v I I I I #
model_id-kcp-attrib $-1 $-1 $-1 $32 1 990548717 50 -97386495 4 #
face $67 $68 $69 $8 $-1 $70 reversed single #
loop $-1 $-1 $71 $32 #
plane-surface $-1 -25 40 0 1 0 0 0 0 -1 forward_v I I I I #
coedge $-1 $72 $73 $74 $75 reversed $33 $-1 #
coedge $-1 $76 $34 $77 $78 reversed $26 $-1 #
coedge $-1 $34 $76 $79 $80 reversed $26 $-1 #
coedge $-1 $81 $82 $34 $53 forward $83 $-1 #
edge $-1 $84 -15 $85 15 $52 $86 forward 7 unknown #
model_id-kcp-attrib $-1 $-1 $-1 $36 1 990548717 50 -97386494 7 #
face $87 $88 $89 $19 $-1 $90 reversed single #
loop $-1 $-1 $91 $36 #
plane-surface $-1 0 0 -15 0 0 1 1 0 0 forward_v I I I I #
coedge $-1 $92 $93 $94 $95 forward $37 $-1 #
face $-1 $96 $97 $21 $-1 $98 reversed single #
loop $-1 $-1 $99 $39 #
plane-surface $-1 -9.5714723039735938e-015 3.0615158845559431e-015 -118.41664064126334 3.8285889215894375e-016 -1.2246063538223773e-016 -1 1 0 3.8285889215894375e-016 forward_v I I I I #
coedge $-1 $100 $101 $102 $103 forward $40 $-1 #
face $-1 $104 $105 $23 $-1 $106 reversed single #
loop $-1 $-1 $107 $42 #
plane-surface $-1 -9.5714723039735938e-015 0 -118.41664064126334 3.8285889215894375e-016 0 -1 -1 0 -3.8285889215894375e-016 forward_v I I I I #
coedge $-1 $108 $109 $110 $111 forward $43 $-1 #
model_id-kcp-attrib $-1 $-1 $-1 $46 1 990548717 50 -97386495 5 #
face $112 $113 $114 $8 $-1 $115 forward single #
loop $-1 $-1 $116 $46 #
plane-surface $-1 25 40 0 -1 0 0 0 0 1 forward_v I I I I #
coedge $-1 $117 $118 $119 $120 forward $47 $-1 #
coedge $-1 $121 $49 $122 $123 reversed $33 $-1 #
coedge $-1 $49 $121 $124 $125 reversed $33 $-1 #
coedge $-1 $126 $127 $49 $75 forward $128 $-1 #
edge $-1 $129 -15 $130 15 $74 $131 forward 7 unknown #
coedge $-1 $51 $50 $132 $133 forward $26 $-1 #
coedge $-1 $134 $135 $50 $78 forward $114 $-1 #
edge $136 $137 -25 $84 -10 $50 $138 forward 7 unknown #
coedge $-1 $139 $140 $51 $80 forward $141 $-1 #
edge $-1 $85 10 $142 25 $51 $143 forward 7 unknown #
coedge $-1 $144 $52 $140 $145 reversed $83 $-1 #
coedge $-1 $52 $144 $134 $146 reversed $83 $-1 #
loop $-1 $-1 $52 $113 #
vertex $-1 $146 $147 #
vertex $-1 $145 $148 #
straight-curve $-1 -10 20 0 0 0 -1 I I #
model_id-kcp-attrib $-1 $-1 $-1 $55 1 990548717 50 -97386494 8 #
face $149 $150 $151 $19 $-1 $152 reversed single #
loop $-1 $-1 $153 $55 #
plane-surface $-1 0 -60 0 0 1 0 0 0 1 forward_v I I I I #
coedge $-1 $154 $155 $156 $157 forward $56 $-1 #
coedge $-1 $158 $58 $159 $160 forward $37 $-1 #
coedge $-1 $58 $158 $161 $162 forward $37 $-1 #
coedge $-1 $163 $164 $58 $95 reversed $165 $-1 #
edge $-1 $166 -60 $167 60 $94 $168 forward 7 unknown #
face $-1 $169 $170 $21 $-1 $171 reversed single #
loop $-1 $-1 $172 $59 #
plane-surface $-1 15 0 -143.41664064126334 -1 0 -3.8285889215894375e-016 3.8285889215894375e-016 -1.2246063538223773e-016 -1 forward_v I I I I #
coedge $-1 $173 $174 $175 $176 forward $60 $-1 #
coedge $-1 $177 $62 $178 $179 forward $40 $-1 #
coedge $-1 $62 $177 $173 $180 forward $40 $-1 #
coedge $-1 $175 $181 $62 $103 reversed $182 $-1 #
edge $-1 $183 46.708320320631685 $184 61.708320320631671 $102 $185 forward 7 unknown #
face $-1 $186 $187 $23 $-1 $188 reversed single #
loop $-1 $-1 $189 $63 #
plane-surface $-1 15 0 -143.41664064126334 -1 0 -3.8285889215894375e-016 -3.8285889215894375e-016 0 1 forward_v I I I I #
coedge $-1 $190 $191 $192 $193 forward $64 $-1 #
coedge $-1 $194 $66 $195 $196 forward $43 $-1 #
coedge $-1 $66 $194 $190 $197 forward $43 $-1 #
coedge $-1 $192 $198 $66 $111 reversed $199 $-1 #
edge $-1 $200 46.708320320631671 $201 61.708320320631671 $110 $202 forward 7 unknown #
model_id-kcp-attrib $-1 $-1 $-1 $68 1 990548717 50 -97386495 6 #
face $203 $204 $83 $8 $-1 $205 reversed single #
loop $-1 $-1 $134 $68 #
plane-surface $-1 0 0 15 0 0 1 1 0 0 forward_v I I I I #
coedge $-1 $206 $207 $121 $208 forward $69 $-1 #
coedge $-1 $132 $71 $139 $209 reversed $47 $-1 #
coedge $-1 $71 $132 $135 $210 reversed $47 $-1 #
coedge $-1 $211 $212 $71 $120 reversed $213 $-1 #
edge $214 $215 -15 $216 15 $119 $217 forward 7 unknown #
coedge $-1 $73 $72 $116 $208 reversed $33 $-1 #
coedge $-1 $218 $219 $72 $123 forward $141 $-1 #
edge $-1 $220 -25 $129 -10 $72 $143 forward 7 unknown #
coedge $-1 $221 $222 $73 $125 forward $114 $-1 #
edge $223 $130 10 $224 25 $73 $138 forward 7 unknown #
coedge $-1 $225 $74 $222 $226 reversed $128 $-1 #
coedge $-1 $74 $225 $218 $227 reversed $128 $-1 #
loop $-1 $-1 $74 $228 #
vertex $-1 $227 $229 #
vertex $-1 $226 $230 #
straight-curve $-1 10 20 0 0 0 1 I I #
coedge $-1 $118 $117 $76 $133 reversed $47 $-1 #
edge $231 $137 -15 $142 15 $132 $232 forward 7 unknown #
coedge $-1 $233 $77 $82 $146 forward $114 $-1 #
coedge $-1 $77 $234 $118 $210 forward $114 $-1 #
attrib_edge_convexity-kcp-attrib $-1 $235 $-1 $78 1 #
vertex $-1 $210 $236 #
straight-curve $-1 0 20 15 1 0 0 I I #
coedge $-1 $237 $79 $117 $209 forward $141 $-1 #
coedge $-1 $79 $238 $81 $145 forward $141 $-1 #
loop $-1 $-1 $218 $239 #
vertex $-1 $209 $240 #
straight-curve $-1 0 20 -15 -1 0 0 I I #
coedge $-1 $82 $81 $241 $242 forward $83 $-1 #
edge $-1 $243 -20 $85 20 $81 $244 forward 7 unknown #
edge $245 $84 -20 $246 20 $82 $247 forward 7 unknown #
point $-1 -10 20 15 #
point $-1 -10 20 -15 #
model_id-kcp-attrib $-1 $248 $-1 $88 1 990548717 50 -97386494 5 #
face $249 $250 $251 $19 $-1 $252 reversed single #
loop $-1 $-1 $253 $88 #
plane-surface $-1 -25 0 0 1 0 0 0 0 -1 forward_v I I I I #
coedge $-1 $254 $161 $255 $256 forward $89 $-1 #
coedge $-1 $257 $91 $254 $258 forward $56 $-1 #
coedge $-1 $91 $257 $259 $260 forward $56 $-1 #
coedge $-1 $164 $163 $91 $157 reversed $165 $-1 #
edge $-1 $261 -60 $262 60 $156 $263 forward 7 unknown #
coedge $-1 $93 $92 $264 $265 forward $37 $-1 #
coedge $-1 $266 $267 $92 $160 reversed $251 $-1 #
edge $-1 $167 -25 $268 25 $159 $269 forward 7 unknown #
coedge $-1 $153 $270 $93 $162 reversed $89 $-1 #
edge $-1 $271 -25 $166 25 $161 $272 forward 7 unknown #
coedge $-1 $156 $94 $270 $273 forward $165 $-1 #
coedge $-1 $94 $156 $266 $274 reversed $165 $-1 #
loop $-1 $-1 $163 $250 #
vertex $-1 $95 $275 #
vertex $-1 $95 $276 #
straight-curve $-1 25 0 15 0 1 0 I I #
face $-1 $277 $278 $21 $-1 $279 reversed single #
loop $-1 $-1 $280 $96 #
plane-surface $-1 0 0 -133.41664064126334 0 0 1 1 0 0 forward_v I I I I #
coedge $-1 $281 $282 $283 $284 forward $97 $-1 #
coedge $-1 $285 $99 $101 $180 reversed $60 $-1 #
coedge $-1 $99 $285 $281 $286 reversed $60 $-1 #
coedge $-1 $283 $102 $99 $176 reversed $182 $-1 #
edge $-1 $287 -14.999999999999973 $183 15.000000000000027 $175 $288 forward 7 unknown #
coedge $-1 $101 $100 $289 $290 forward $40 $-1 #
coedge $-1 $291 $292 $100 $179 reversed $170 $-1 #
edge $293 $184 -20 $294 20 $178 $295 forward 7 unknown #
edge $-1 $296 -20 $183 20 $173 $297 forward 7 unknown #
coedge $-1 $102 $283 $291 $298 reversed $182 $-1 #
loop $-1 $-1 $283 $277 #
vertex $-1 $103 $299 #
vertex $-1 $298 $300 #
straight-curve $-1 -15.000000000000028 20 -71.708320320631671 3.8285889215894375e-016 0 -1 I I #
face $-1 $301 $302 $23 $-1 $303 reversed single #
loop $-1 $-1 $304 $104 #
plane-surface $-1 0 0 -133.41664064126334 0 0 1 1 0 0 forward_v I I I I #
coedge $-1 $305 $306 $307 $308 forward $105 $-1 #
coedge $-1 $309 $107 $109 $197 reversed $64 $-1 #
coedge $-1 $107 $309 $305 $310 reversed $64 $-1 #
coedge $-1 $307 $110 $107 $193 reversed $199 $-1 #
edge $-1 $311 -14.999999999999973 $200 15.000000000000027 $192 $312 forward 7 unknown #
coedge $-1 $109 $108 $313 $314 forward $43 $-1 #
coedge $-1 $315 $316 $108 $196 reversed $187 $-1 #
edge $317 $201 -20 $318 20 $195 $319 forward 7 unknown #
edge $-1 $320 -20 $200 20 $190 $321 forward 7 unknown #
coedge $-1 $110 $307 $315 $322 reversed $199 $-1 #
loop $-1 $-1 $307 $301 #
vertex $-1 $111 $323 #
vertex $-1 $322 $324 #
straight-curve $-1 -15.000000000000028 20 -71.708320320631671 3.8285889215894375e-016 0 -1 I I #
model_id-kcp-attrib $-1 $-1 $-1 $113 1 990548717 50 -97386495 7 #
face $325 $326 $327 $8 $-1 $328 reversed single #
plane-surface $-1 -10 0 0 1 0 0 0 0 -1 forward_v I I I I #
coedge $-1 $329 $116 $219 $330 reversed $69 $-1 #
coedge $-1 $116 $329 $221 $331 reversed $69 $-1 #
edge $-1 $224 -15 $220 15 $116 $332 forward 7 unknown #
edge $333 $142 -20 $216 20 $117 $334 forward 7 unknown #
edge $335 $215 -20 $137 20 $118 $336 forward 7 unknown #
coedge $-1 $337 $119 $234 $338 reversed $213 $-1 #
coedge $-1 $119 $337 $237 $339 reversed $213 $-1 #
loop $-1 $-1 $212 $340 #
attrib_edge_convexity-kcp-attrib $-1 $341 $-1 $120 1 #
vertex $-1 $338 $342 #
vertex $-1 $339 $343 #
straight-curve $-1 -25 60 0 0 0 -1 I I #
coedge $-1 $344 $122 $127 $227 forward $141 $-1 #
coedge $-1 $122 $237 $206 $330 forward $141 $-1 #
vertex $-1 $208 $345 #
coedge $-1 $234 $124 $207 $331 forward $114 $-1 #
coedge $-1 $124 $346 $126 $226 forward $114 $-1 #
attrib_edge_convexity-kcp-attrib $-1 $347 $-1 $125 1 #
vertex $-1 $331 $348 #
coedge $-1 $127 $126 $349 $350 forward $128 $-1 #
edge $351 $352 -20 $130 20 $126 $353 forward 7 unknown #
edge $-1 $129 -20 $354 20 $127 $355 forward 7 unknown #
face $356 $239 $128 $8 $-1 $357 reversed single #
point $-1 10 20 -15 #
point $-1 10 20 15 #
attrib_edge_convexity-kcp-attrib $-1 $358 $-1 $133 1 #
straight-curve $-1 -25 20 0 0 0 -1 I I #
coedge $-1 $359 $134 $360 $361 forward $114 $-1 #
coedge $-1 $135 $221 $211 $338 forward $114 $-1 #
convexity-sys-attrib $-1 $-1 $136 $78 #
point $-1 -25 20 15 #
coedge $-1 $219 $139 $212 $339 forward $141 $-1 #
coedge $-1 $140 $362 $363 $364 forward $141 $-1 #
face $365 $366 $141 $8 $-1 $367 reversed single #
point $-1 -25 20 -15 #
coedge $-1 $363 $360 $144 $242 reversed $327 $-1 #
edge $-1 $243 -15 $246 15 $144 $368 forward 7 unknown #
vertex $-1 $145 $369 #
straight-curve $-1 -10 0 -15 0 1 0 I I #
attrib_edge_convexity-kcp-attrib $-1 $370 $-1 $146 1 #
vertex $-1 $146 $371 #
straight-curve $-1 -10 0 15 0 -1 0 I I #
model_id-kcp-attrib $-1 $-1 $149 $88 1 990548717 50 -97386494 2 #
model_id-kcp-attrib $-1 $-1 $-1 $150 1 990548717 50 -97386494 9 #
face $372 $-1 $165 $19 $-1 $373 reversed single #
loop $-1 $-1 $266 $150 #
plane-surface $-1 0 60 0 0 -1 0 0 0 -1 forward_v I I I I #
coedge $-1 $374 $264 $267 $375 forward $151 $-1 #
coedge $-1 $270 $153 $154 $258 reversed $89 $-1 #
coedge $-1 $264 $374 $153 $256 reversed $151 $-1 #
edge $-1 $271 -15 $376 15 $255 $377 forward 7 unknown #
coedge $-1 $155 $154 $374 $378 forward $56 $-1 #
edge $-1 $262 -25 $376 25 $254 $379 forward 7 unknown #
coedge $-1 $267 $266 $155 $260 reversed $251 $-1 #
edge $-1 $380 -25 $261 25 $259 $381 forward 7 unknown #
vertex $-1 $157 $382 #
vertex $-1 $273 $383 #
straight-curve $-1 25 0 -15 0 -1 0 I I #
coedge $-1 $253 $255 $158 $265 reversed $151 $-1 #
edge $-1 $268 -60 $271 60 $264 $384 forward 7 unknown #
coedge $-1 $259 $159 $164 $274 forward $251 $-1 #
coedge $-1 $159 $259 $253 $375 reversed $251 $-1 #
vertex $-1 $160 $385 #
straight-curve $-1 0 60 15 -1 0 0 I I #
coedge $-1 $161 $254 $163 $273 reversed $89 $-1 #
vertex $-1 $265 $386 #
straight-curve $-1 0 -60 15 1 0 0 I I #
edge $-1 $166 -15 $262 15 $163 $387 forward 7 unknown #
edge $-1 $167 -15 $261 15 $164 $388 forward 7 unknown #
point $-1 25 -60 15 #
point $-1 25 60 15 #
face $-1 $-1 $182 $21 $-1 $389 reversed single #
loop $-1 $-1 $390 $169 #
plane-surface $-1 0 -20 0 0 1 0 0 0 1 forward_v I I I I #
coedge $-1 $292 $291 $282 $391 reversed $170 $-1 #
coedge $-1 $392 $172 $174 $286 forward $97 $-1 #
coedge $-1 $172 $392 $280 $391 forward $97 $-1 #
coedge $-1 $181 $175 $172 $284 reversed $182 $-1 #
edge $-1 $393 -61.708320320631671 $287 -46.708320320631671 $283 $394 forward 7 unknown #
coedge $-1 $174 $173 $395 $396 forward $60 $-1 #
edge $-1 $287 -20 $397 20 $174 $398 forward 7 unknown #
vertex $-1 $176 $399 #
straight-curve $-1 1.7882695772562123e-014 20 -118.41664064126334 -1 0 -3.8285889215894375e-016 I I #
coedge $-1 $400 $395 $177 $290 reversed $278 $-1 #
edge $-1 $294 -61.708320320631671 $296 -46.708320320631671 $289 $401 forward 7 unknown #
coedge $-1 $280 $178 $181 $298 forward $170 $-1 #
coedge $-1 $178 $280 $400 $402 forward $170 $-1 #
convexity-sys-attrib $-1 $-1 $-1 $179 #
vertex $-1 $179 $403 #
straight-curve $-1 -15.000000000000004 0 -133.41664064126334 0 -1 0 I I #
vertex $-1 $290 $404 #
straight-curve $-1 -15.000000000000009 3.0615158845559431e-015 -118.41664064126334 4.6885143195523885e-032 1 -1.2246063538223773e-016 I I #
edge $405 $184 -15.000000000000004 $393 14.999999999999996 $181 $406 forward 7 unknown #
point $-1 -15.000000000000009 20.000000000000004 -118.41664064126336 #
point $-1 -15.000000000000004 20 -133.41664064126334 #
face $-1 $-1 $199 $23 $-1 $407 reversed single #
loop $-1 $-1 $408 $186 #
plane-surface $-1 0 -20 0 0 1 0 0 0 1 forward_v I I I I #
coedge $-1 $316 $315 $306 $409 reversed $187 $-1 #
coedge $-1 $410 $189 $191 $310 forward $105 $-1 #
coedge $-1 $189 $410 $304 $409 forward $105 $-1 #
coedge $-1 $198 $192 $189 $308 reversed $199 $-1 #
edge $-1 $411 -61.708320320631671 $311 -46.708320320631671 $307 $412 forward 7 unknown #
coedge $-1 $191 $190 $413 $414 forward $64 $-1 #
edge $-1 $311 -20 $415 20 $191 $416 forward 7 unknown #
vertex $-1 $193 $417 #
straight-curve $-1 1.7882695772562123e-014 20 -118.41664064126334 -1 0 -3.8285889215894375e-016 I I #
coedge $-1 $418 $413 $194 $314 reversed $302 $-1 #
edge $-1 $318 -61.708320320631671 $320 -46.708320320631671 $313 $419 forward 7 unknown #
coedge $-1 $304 $195 $198 $322 forward $187 $-1 #
coedge $-1 $195 $304 $418 $420 forward $187 $-1 #
convexity-sys-attrib $-1 $-1 $-1 $196 #
vertex $-1 $196 $421 #
straight-curve $-1 -15.000000000000004 0 -133.41664064126334 0 -1 0 I I #
vertex $-1 $314 $422 #
straight-curve $-1 -15.000000000000009 0 -118.41664064126334 0 1 0 I I #
edge $423 $201 -15.000000000000004 $411 14.999999999999996 $198 $424 forward 7 unknown #
point $-1 -15.000000000000009 20 -118.41664064126334 #
point $-1 -15.000000000000004 20 -133.41664064126334 #
model_id-kcp-attrib $-1 $-1 $-1 $204 1 990548717 50 -97386495 8 #
face $425 $426 $427 $8 $-1 $428 reversed single #
loop $-1 $-1 $241 $204 #
plane-surface $-1 0 -20 0 0 -1 0 0 0 -1 forward_v I I I I #
coedge $-1 $207 $206 $337 $429 reversed $69 $-1 #
edge $-1 $430 -20 $220 20 $206 $431 forward 7 unknown #
edge $432 $224 -20 $433 20 $207 $434 forward 7 unknown #
straight-curve $-1 25 20 0 0 0 -1 I I #
attrib_edge_convexity-kcp-attrib $-1 $435 $-1 $209 1 #
straight-curve $-1 -25 40 -15 0 1 0 I I #
attrib_edge_convexity-kcp-attrib $-1 $436 $-1 $210 1 #
straight-curve $-1 -25 40 15 0 -1 0 I I #
coedge $-1 $212 $211 $329 $429 forward $213 $-1 #
edge $437 $433 -25 $215 25 $211 $438 forward 7 unknown #
edge $-1 $216 -25 $430 25 $212 $439 forward 7 unknown #
face $440 $-1 $213 $8 $-1 $441 reversed single #
convexity-sys-attrib $-1 $-1 $214 $120 #
point $-1 -25 60 15 #
point $-1 -25 60 -15 #
coedge $-1 $442 $218 $443 $444 forward $141 $-1 #
point $-1 25 20 -15 #
coedge $-1 $222 $445 $446 $447 forward $114 $-1 #
convexity-sys-attrib $-1 $-1 $223 $125 #
point $-1 25 20 15 #
coedge $-1 $446 $443 $225 $350 reversed $448 $-1 #
edge $-1 $352 -15 $354 15 $225 $449 forward 7 unknown #
attrib_edge_convexity-kcp-attrib $-1 $450 $-1 $226 1 #
vertex $-1 $226 $451 #
straight-curve $-1 10 0 15 0 1 0 I I #
vertex $-1 $227 $452 #
straight-curve $-1 10 0 -15 0 -1 0 I I #
model_id-kcp-attrib $-1 $-1 $-1 $228 1 990548717 50 -97386495 12 #
plane-surface $-1 10 0 0 -1 0 0 0 0 1 forward_v I I I I #
convexity-sys-attrib $-1 $-1 $231 $133 #
coedge $-1 $453 $233 $454 $455 forward $114 $-1 #
coedge $-1 $241 $456 $233 $361 reversed $327 $-1 #
edge $457 $246 10 $458 25 $360 $459 forward 7 unknown #
coedge $-1 $238 $460 $461 $462 forward $141 $-1 #
coedge $-1 $456 $241 $238 $364 reversed $327 $-1 #
edge $-1 $463 -25 $243 -10 $363 $464 forward 7 unknown #
model_id-kcp-attrib $-1 $-1 $-1 $239 1 990548717 50 -97386495 13 #
face $465 $340 $466 $8 $-1 $467 reversed single #
plane-surface $-1 0 0 -15 0 0 1 1 0 0 forward_v I I I I #
straight-curve $-1 -10 -20 0 0 0 1 I I #
point $-1 -10 -20 -15 #
convexity-sys-attrib $-1 $-1 $245 $146 #
point $-1 -10 -20 15 #
model_id-kcp-attrib $-1 $468 $-1 $250 1 990548717 50 -97386494 6 #
plane-surface $-1 25 0 0 -1 0 0 0 0 1 forward_v I I I I #
coedge $-1 $255 $253 $257 $378 reversed $151 $-1 #
edge $-1 $268 -15 $380 15 $267 $469 forward 7 unknown #
vertex $-1 $378 $470 #
straight-curve $-1 -25 -60 0 0 0 -1 I I #
edge $-1 $376 -60 $380 60 $374 $471 forward 7 unknown #
straight-curve $-1 0 -60 -15 -1 0 0 I I #
vertex $-1 $260 $472 #
straight-curve $-1 0 60 -15 1 0 0 I I #
point $-1 25 60 -15 #
point $-1 25 -60 -15 #
straight-curve $-1 -25 0 15 0 -1 0 I I #
point $-1 -25 60 15 #
point $-1 -25 -60 15 #
straight-curve $-1 25 -60 0 0 0 -1 I I #
straight-curve $-1 25 60 0 0 0 -1 I I #
plane-surface $-1 0 20 0 0 -1 0 0 0 -1 forward_v I I I I #
coedge $-1 $395 $400 $392 $473 reversed $278 $-1 #
edge $474 $475 -20 $393 20 $280 $476 forward 7 unknown #
coedge $-1 $282 $281 $390 $473 forward $97 $-1 #
vertex $-1 $391 $477 #
straight-curve $-1 14.999999999999972 20 -71.708320320631671 -3.8285889215894375e-016 0 1 I I #
coedge $-1 $289 $390 $285 $396 reversed $278 $-1 #
edge $-1 $296 -15.000000000000027 $397 14.999999999999973 $395 $478 forward 7 unknown #
vertex $-1 $396 $479 #
straight-curve $-1 14.999999999999991 3.0615158845559431e-015 -118.41664064126334 -4.6885143195523885e-032 -1 1.2246063538223773e-016 I I #
point $-1 14.999999999999991 20.000000000000004 -118.41664064126334 #
coedge $-1 $390 $289 $292 $402 reversed $278 $-1 #
straight-curve $-1 -15.000000000000028 -20 -71.708320320631671 -3.8285889215894375e-016 0 1 I I #
edge $480 $475 -14.999999999999996 $294 15.000000000000004 $400 $481 forward 7 unknown #
point $-1 -15.000000000000004 -20 -133.41664064126334 #
point $-1 -15.000000000000009 -19.999999999999996 -118.41664064126334 #
convexity-sys-attrib $-1 $-1 $-1 $298 #
straight-curve $-1 0 20 -133.41664064126334 1 0 0 I I #
plane-surface $-1 0 20 0 0 -1 0 0 0 -1 forward_v I I I I #
coedge $-1 $413 $418 $410 $482 reversed $302 $-1 #
edge $483 $484 -20 $411 20 $304 $485 forward 7 unknown #
coedge $-1 $306 $305 $408 $482 forward $105 $-1 #
vertex $-1 $409 $486 #
straight-curve $-1 14.999999999999972 20 -71.708320320631671 -3.8285889215894375e-016 0 1 I I #
coedge $-1 $313 $408 $309 $414 reversed $302 $-1 #
edge $-1 $320 -15.000000000000027 $415 14.999999999999973 $413 $487 forward 7 unknown #
vertex $-1 $414 $488 #
straight-curve $-1 14.999999999999991 0 -118.41664064126334 0 -1 0 I I #
point $-1 14.999999999999991 20 -118.41664064126334 #
coedge $-1 $408 $313 $316 $420 reversed $302 $-1 #
straight-curve $-1 -15.000000000000028 -20 -71.708320320631671 -3.8285889215894375e-016 0 1 I I #
edge $489 $484 -14.999999999999996 $318 15.000000000000004 $418 $490 forward 7 unknown #
point $-1 -15.000000000000004 -20 -133.41664064126334 #
point $-1 -15.000000000000009 -20 -118.41664064126334 #
convexity-sys-attrib $-1 $-1 $-1 $322 #
straight-curve $-1 0 20 -133.41664064126334 1 0 0 I I #
model_id-kcp-attrib $-1 $-1 $-1 $326 1 990548717 50 -97386495 9 #
face $491 $492 $448 $8 $-1 $328 reversed single #
loop $-1 $-1 $493 $326 #
plane-surface $-1 -25 -40 0 1 0 0 0 0 -1 forward_v I I I I #
edge $-1 $433 -15 $430 15 $329 $494 forward 7 unknown #
vertex $-1 $330 $495 #
straight-curve $-1 25 40 -15 0 -1 0 I I #
attrib_edge_convexity-kcp-attrib $-1 $496 $-1 $331 1 #
vertex $-1 $331 $497 #
straight-curve $-1 25 40 15 0 1 0 I I #
convexity-sys-attrib $-1 $-1 $333 $209 #
convexity-sys-attrib $-1 $-1 $335 $210 #
attrib_edge_convexity-kcp-attrib $-1 $498 $-1 $338 1 #
straight-curve $-1 0 60 15 -1 0 0 I I #
straight-curve $-1 0 60 -15 1 0 0 I I #
model_id-kcp-attrib $-1 $-1 $-1 $340 1 990548717 50 -97386495 15 #
plane-surface $-1 0 60 0 0 -1 0 0 0 -1 forward_v I I I I #
coedge $-1 $460 $344 $499 $500 forward $141 $-1 #
coedge $-1 $349 $501 $344 $444 reversed $448 $-1 #
edge $-1 $354 10 $502 25 $443 $464 forward 7 unknown #
coedge $-1 $346 $453 $503 $504 forward $114 $-1 #
coedge $-1 $501 $349 $346 $447 reversed $448 $-1 #
edge $505 $506 -25 $352 -10 $446 $459 forward 7 unknown #
loop $-1 $-1 $349 $426 #
straight-curve $-1 10 -20 0 0 0 -1 I I #
convexity-sys-attrib $-1 $-1 $351 $226 #
point $-1 10 -20 15 #
point $-1 10 -20 -15 #
coedge $-1 $445 $359 $507 $508 forward $114 $-1 #
coedge $-1 $493 $509 $359 $455 reversed $427 $-1 #
edge $510 $458 -20 $511 20 $454 $512 forward 7 unknown #
coedge $-1 $360 $363 $493 $513 reversed $327 $-1 #
attrib_edge_convexity-kcp-attrib $-1 $514 $-1 $361 1 #
vertex $-1 $361 $515 #
straight-curve $-1 0 -20 15 -1 0 0 I I #
coedge $-1 $362 $442 $516 $517 forward $141 $-1 #
coedge $-1 $509 $493 $362 $462 reversed $427 $-1 #
edge $-1 $518 -20 $463 20 $461 $519 forward 7 unknown #
vertex $-1 $364 $520 #
straight-curve $-1 0 -20 -15 1 0 0 I I #
model_id-kcp-attrib $-1 $-1 $-1 $366 1 990548717 50 -97386495 14 #
loop $-1 $-1 $516 $366 #
plane-surface $-1 0 -60 0 0 1 0 0 0 1 forward_v I I I I #
model_id-kcp-attrib $-1 $-1 $372 $250 1 990548717 50 -97386494 3 #
straight-curve $-1 -25 60 0 0 0 -1 I I #
point $-1 -25 -60 -15 #
straight-curve $-1 -25 0 -15 0 1 0 I I #
point $-1 -25 60 -15 #
edge $-1 $397 46.708320320631657 $475 61.708320320631671 $390 $521 forward 7 unknown #
convexity-sys-attrib $-1 $-1 $-1 $391 #
vertex $-1 $402 $522 #
straight-curve $-1 14.999999999999996 0 -133.41664064126334 0 1 0 I I #
point $-1 14.999999999999996 20 -133.41664064126334 #
straight-curve $-1 1.7882695772562123e-014 -20 -118.41664064126334 1 0 3.8285889215894375e-016 I I #
point $-1 14.999999999999991 -19.999999999999996 -118.41664064126333 #
convexity-sys-attrib $-1 $-1 $-1 $402 #
straight-curve $-1 0 -20 -133.41664064126334 -1 0 0 I I #
edge $-1 $415 46.708320320631671 $484 61.708320320631671 $408 $523 forward 7 unknown #
convexity-sys-attrib $-1 $-1 $-1 $409 #
vertex $-1 $420 $524 #
straight-curve $-1 14.999999999999996 0 -133.41664064126334 0 1 0 I I #
point $-1 14.999999999999996 20 -133.41664064126334 #
straight-curve $-1 1.7882695772562123e-014 -20 -118.41664064126334 1 0 3.8285889215894375e-016 I I #
point $-1 14.999999999999991 -20 -118.41664064126334 #
convexity-sys-attrib $-1 $-1 $-1 $420 #
straight-curve $-1 0 -20 -133.41664064126334 -1 0 0 I I #
model_id-kcp-attrib $-1 $-1 $-1 $426 1 990548717 50 -97386495 10 #
face $525 $228 $526 $8 $-1 $527 reversed single #
coedge $-1 $461 $454 $456 $513 forward $427 $-1 #
straight-curve $-1 25 60 0 0 0 -1 I I #
point $-1 25 60 -15 #
convexity-sys-attrib $-1 $-1 $432 $331 #
point $-1 25 60 15 #
convexity-sys-attrib $-1 $-1 $437 $338 #
coedge $-1 $528 $529 $442 $500 reversed $526 $-1 #
edge $-1 $502 -20 $530 20 $499 $531 forward 7 unknown #
coedge $-1 $443 $446 $528 $532 forward $448 $-1 #
vertex $-1 $500 $533 #
coedge $-1 $529 $528 $445 $504 reversed $526 $-1 #
edge $534 $535 -20 $506 20 $503 $536 forward 7 unknown #
attrib_edge_convexity-kcp-attrib $-1 $537 $-1 $447 1 #
vertex $-1 $504 $538 #
coedge $-1 $539 $540 $453 $508 reversed $466 $-1 #
edge $541 $511 -25 $535 25 $507 $542 forward 7 unknown #
coedge $-1 $454 $461 $539 $543 reversed $427 $-1 #
attrib_edge_convexity-kcp-attrib $-1 $544 $-1 $455 1 #
vertex $-1 $455 $545 #
straight-curve $-1 -25 -40 15 0 -1 0 I I #
edge $-1 $458 -15 $463 15 $456 $546 forward 7 unknown #
convexity-sys-attrib $-1 $-1 $457 $361 #
point $-1 -25 -20 15 #
coedge $-1 $540 $539 $460 $517 reversed $466 $-1 #
edge $547 $530 -25 $518 25 $516 $548 forward 7 unknown #
vertex $-1 $462 $549 #
straight-curve $-1 -25 -40 -15 0 1 0 I I #
point $-1 -25 -20 -15 #
straight-curve $-1 14.999999999999972 -20 -71.708320320631671 3.8285889215894375e-016 0 -1 I I #
point $-1 14.999999999999996 -20 -133.41664064126334 #
straight-curve $-1 14.999999999999972 -20 -71.708320320631671 3.8285889215894375e-016 0 -1 I I #
point $-1 14.999999999999996 -20 -133.41664064126334 #
model_id-kcp-attrib $-1 $-1 $-1 $492 1 990548717 50 -97386495 11 #
loop $-1 $-1 $529 $492 #
plane-surface $-1 25 -40 0 -1 0 0 0 0 1 forward_v I I I I #
coedge $-1 $503 $499 $501 $532 reversed $526 $-1 #
coedge $-1 $499 $503 $540 $550 forward $526 $-1 #
vertex $-1 $550 $551 #
straight-curve $-1 25 -40 -15 0 -1 0 I I #
edge $-1 $506 -15 $502 15 $528 $552 forward 7 unknown #
point $-1 25 -20 -15 #
attrib_edge_convexity-kcp-attrib $-1 $553 $-1 $504 1 #
vertex $-1 $504 $554 #
straight-curve $-1 25 -40 15 0 1 0 I I #
convexity-sys-attrib $-1 $-1 $505 $447 #
point $-1 25 -20 15 #
coedge $-1 $516 $507 $509 $543 forward $466 $-1 #
coedge $-1 $507 $516 $529 $550 reversed $466 $-1 #
attrib_edge_convexity-kcp-attrib $-1 $555 $-1 $508 1 #
straight-curve $-1 0 -60 15 1 0 0 I I #
edge $556 $511 -15 $518 15 $509 $557 forward 7 unknown #
convexity-sys-attrib $-1 $-1 $510 $455 #
point $-1 -25 -60 15 #
straight-curve $-1 -25 -20 0 0 0 -1 I I #
attrib_edge_convexity-kcp-attrib $-1 $558 $-1 $517 1 #
straight-curve $-1 0 -60 -15 -1 0 0 I I #
point $-1 -25 -60 -15 #
edge $559 $535 -15 $530 15 $529 $560 forward 7 unknown #
point $-1 25 -60 -15 #
straight-curve $-1 25 -20 0 0 0 -1 I I #
convexity-sys-attrib $-1 $-1 $534 $504 #
point $-1 25 -60 15 #
convexity-sys-attrib $-1 $-1 $541 $508 #
attrib_edge_convexity-kcp-attrib $-1 $561 $-1 $543 1 #
straight-curve $-1 -25 -60 0 0 0 -1 I I #
convexity-sys-attrib $-1 $-1 $547 $517 #
attrib_edge_convexity-kcp-attrib $-1 $562 $-1 $550 1 #
straight-curve $-1 25 -60 0 0 0 -1 I I #
convexity-sys-attrib $-1 $-1 $556 $543 #
convexity-sys-attrib $-1 $-1 $559 $550 #
End-of-ACIS-data 