201 0 7 0           
7 Unknown 11 ACIS 2.1 NT 24 Mon Mar 03 12:41:22 1997 
-1 9.9999999999999995e-007 1e-010 
rh_background-rh_entity $7 4 5 plain 5 color -4 1 1 1 #
rh_background-rh_entity $8 4 5 plain 5 color -4 0.29999999999999999 0.29999999999999999 0.29999999999999999 #
rh_background-rh_entity $9 4 9 graduated 9 top color -4 1 1 1 12 bottom color -4 0 0 1 #
rh_light-rh_entity $10 4 5 point 9 intensity -2 0.80000000000000004 5 color -4 1 1 1 8 location -5 400 200 400 8 fall off -7 0 7 shadows -6 1 17 shadow resolution -1 256 14 shadow quality -1 4 15 shadow softness -2 1 #
rh_light-rh_entity $11 4 4 spot 9 intensity -2 0.5 5 color -4 1 1 1 8 location -5 -10 120 400 2 to -5 0 0 0 8 fall off -7 0 10 cone angle -2 60 16 cone delta angle -2 5 17 beam distribution -2 2 7 shadows -6 1 17 shadow resolution -1 256 14 shadow quality -1 4 15 shadow softness -2 1 #
rh_light-rh_entity $12 4 7 ambient 9 intensity -2 0.29999999999999999 5 color -4 1 1 1 #
body $13 $14 $-1 $-1 #
rgb_color-st-attrib $-1 $15 $-1 $0 0 1 0 #
rgb_color-st-attrib $-1 $16 $-1 $1 0 1 0 #
rgb_color-st-attrib $-1 $17 $-1 $2 0 1 0 #
display_attribute-st-attrib $-1 $18 $-1 $3 5 #
display_attribute-st-attrib $-1 $19 $-1 $4 5 #
display_attribute-st-attrib $-1 $20 $-1 $5 3 #
display_attribute-st-attrib $-1 $21 $-1 $6 4 #
lump $-1 $22 $23 $6 #
id_attribute-st-attrib $-1 $-1 $7 $0 1 #
id_attribute-st-attrib $-1 $-1 $8 $1 2 #
id_attribute-st-attrib $-1 $-1 $9 $2 3 #
rgb_color-st-attrib $-1 $24 $10 $3 0 1 0 #
rgb_color-st-attrib $-1 $25 $11 $4 0 1 0 #
rgb_color-st-attrib $-1 $26 $12 $5 0 1 0 #
rgb_color-st-attrib $-1 $27 $13 $6 0 1 0 #
lump $-1 $28 $29 $6 #
shell $-1 $-1 $-1 $30 $-1 $14 #
id_attribute-st-attrib $-1 $-1 $18 $3 4 #
id_attribute-st-attrib $-1 $-1 $19 $4 5 #
id_attribute-st-attrib $-1 $-1 $20 $5 6 #
id_attribute-st-attrib $-1 $-1 $21 $6 15 #
lump $-1 $31 $32 $6 #
shell $-1 $-1 $-1 $33 $-1 $22 #
face $34 $35 $36 $23 $-1 $37 forward single #
lump $-1 $38 $39 $6 #
shell $-1 $-1 $-1 $40 $-1 $28 #
face $41 $-1 $42 $29 $-1 $43 reversed double out #
fmesh-eye-attrib $-1 $44 $-1 $30 #
face $45 $46 $47 $23 $-1 $48 forward single #
loop $-1 $-1 $49 $30 #
torus-surface $-1 -63.094109325490223 31.786327279067304 45 0 0 1 83.625 3 1 0 0 forward_v I I I I #
lump $-1 $50 $51 $6 #
shell $-1 $-1 $-1 $52 $-1 $31 #
face $53 $54 $55 $32 $-1 $56 forward single #
fmesh-eye-attrib $-1 $57 $-1 $33 #
loop $-1 $-1 $58 $33 #
spline-surface $-1 forward { skinsur 2 
	-1 -1 -1 -1 0 
	intcurve forward { exactcur nurbs 2 open 2 
	0 2 1 2 
	-22.000000000000085 10.000000000000043 45 1 
	-1.5987211554602254e-014 -0.54466230936822857 45 0.90176817288801547 
	22.000000000000043 10.000000000000021 45 1 
	0 
	null_surface 
	null_surface 
	nullbs 
	nullbs 
	I I F 1 F 0 } I I 
	0 0 0 null_surface 0 
	-1 -1 -1 -1 1 
	intcurve forward { exactcur nurbs 2 open 3 
	0 2 0.5 2 1 2 
	-21.612930278075943 8.3995209271575177 75.622191233396094 1 
	-16.104773378823459 -4.5773797371131826 83.408331631958532 0.81915204428899124 
	-8.0304117305515788e-014 -4.5773797371132314 83.408331631958561 1 
	16.104773378823296 -4.5773797371132776 83.408331631958589 0.81915204428899091 
	21.61293027807589 8.3995209271573863 75.62219123339618 1 
	0 
	null_surface 
	null_surface 
	nullbs 
	nullbs 
	I I F 1 F 0 } I I 
	0 0 0 null_surface 0 
	nubs 3 3 open open none none 13 2 
	0 3 0.1111111111111111 2 0.16666666666666666 2 0.22222222222222221 2 0.33333333333333331 2 
	0.44444444444444442 2 0.5 2 0.55555555555555558 2 0.66666666666666663 2 0.77777777777777768 2 
	0.83333333333333326 2 0.88888888888888884 2 1 3 
	0 3 1 3 
	-22.000000000000085 10.000000000000043 45 
	-20.530451866404796 9.2956414174489215 45 
	-19.010868507237987 8.654273085397687 45.000000000000007 
	-16.669118666314827 7.799678367390495 45.000000000000007 
	-15.87817151169981 7.5327035703580272 45 
	-14.278022384171058 7.0364167168951592 45 
	-13.468821217786367 6.807105680709328 45 
	-11.017867368841316 6.1781509876235523 45 
	-9.3526893598541481 5.8376298724321742 45 
	-5.9835352464002192 5.324205325011345 45 
	-4.2795983678731684 5.1513209823729271 45 
	-1.7138040177764751 5.0216527209780084 45 
	-0.85690235690237848 5 44.999999999999993 
	0.85690235690234118 5 44.999999999999993 
	1.7138040177764355 5.0216527209780066 45 
	4.2795983678731284 5.1513209823729227 45 
	5.9835352464001792 5.3242053250113397 44.999999999999993 
	9.3526893598541037 5.8376298724321636 44.999999999999993 
	11.017867368841271 6.1781509876235399 45 
	13.468821217786322 6.8071056807093129 45 
	14.278022384171011 7.0364167168951424 44.999999999999993 
	15.878171511699763 7.5327035703580085 44.999999999999993 
	16.669118666314787 7.7996783673904782 45.000000000000007 
	19.010868507237948 8.6542730853976675 45.000000000000007 
	20.530451866404754 9.2956414174489002 45 
	22.000000000000043 10.000000000000021 45 
	-21.956992253119626 9.8221689919064286 48.402465692599563 
	-20.576455344503447 9.0210921496770773 48.507453887243244 
	-19.121920249857268 8.2769506110898163 48.611875699968287 
	-16.840431630212645 7.2736372955161332 48.758079839708657 
	-16.063452370960125 6.9580271185553704 48.805059387467793 
	-14.480051357167401 6.3687961373423239 48.893911654348763 
	-13.673633931784748 6.0951851765109701 48.935779011548462 
	-11.217090713679273 5.3430441652303928 49.051621115337724 
	-9.5294222173096887 4.933736806450808 49.115594269170074 
	-6.0998908188723231 4.3191213852316119 49.210537096610487 
	-4.3584059208909034 4.1138274958835579 49.241508447478829 
	-1.7427434372211845 3.9610475646515235 49.264020000140761 
	-0.87026923935417333 3.9358466958763083 49.267592403550942 
	0.87026923935412237 3.9358466958763074 49.267592403550942 
	1.7427434372211315 3.96104756465152 49.264020000140761 
	4.3584059208908501 4.1138274958835508 49.241508447478836 
	6.0998908188722698 4.3191213852316022 49.21053709661048 
	9.5294222173096319 4.9337368064507903 49.115594269170074 
	11.217090713679218 5.3430441652303733 49.051621115337731 
	13.673633931784694 6.0951851765109462 48.935779011548469 
	14.480051357167348 6.3687961373422981 48.893911654348756 
	16.063452370960071 6.9580271185553411 48.805059387467793 
	16.840431630212599 7.2736372955161057 48.758079839708664 
	19.121920249857226 8.2769506110897844 48.611875699968294 
	20.576455344503401 9.0210921496770453 48.507453887243251 
	21.95699225311958 9.8221689919063948 48.402465692599577 
	-21.655938024956402 8.5773519352511318 72.219725540796532 
	-20.898479691194005 7.0992472752741742 73.059631097945967 
	-19.899282448192228 5.6356932909347162 73.895005599746227 
	-18.039622377497381 3.591349792395599 75.064638717669226 
	-17.360418385782335 2.9352919559367701 75.440475099742358 
	-15.894254168141812 1.6954520804724766 76.151293234790089 
	-15.107322929773423 1.111741647122463 76.486232092387681 
	-12.611654127544979 -0.50270359152172439 77.412968922701822 
	-10.766552219498466 -1.3935146554187587 77.924754153360638 
	-6.9143798261770479 -2.7164661932265233 78.684296772883897 
	-4.9100587920150458 -3.1486269095420276 78.93206757983063 
	-1.9453193733341503 -3.4631885296338742 79.112160001126071 
	-0.96383741651673749 -3.5132264329895371 79.140739228407611 
	0.96383741651659061 -3.5132264329895415 79.140739228407611 
	1.9453193733340035 -3.4631885296338849 79.112160001126099 
	4.9100587920149001 -3.1486269095420552 78.932067579830658 
	6.9143798261769032 -2.7164661932265597 78.684296772883911 
	10.76655221949833 -1.393514655418818 77.924754153360652 
	12.611654127544847 -0.50270359152179545 77.41296892270185 
	15.107322929773304 1.1117416471223776 76.486232092387738 
	15.894254168141698 1.6954520804723863 76.151293234790117 
	17.360418385782236 2.9352919559366719 75.440475099742414 
	18.039622377497288 3.5913497923954987 75.064638717669283 
	19.89928244819216 5.635693290934606 73.895005599746298 
	20.898479691193941 7.0992472752740579 73.059631097946038 
	21.655938024956352 8.5773519352510128 72.219725540796603 
	-21.612930278075943 8.3995209271575177 75.622191233396094 
	-20.944483169292656 6.8246980075023309 76.567084985189211 
	-20.010334190811509 5.2583708166268446 77.506881299714507 
	-18.210935341395199 3.0653087205212373 78.822718557377883 
	-17.545699245042652 2.3606155041341128 79.245534487210151 
	-16.096283141138155 1.0278315009196413 80.045204889138844 
	-15.312135643771803 0.39982114292410492 80.422011103936143 
	-12.810877472382936 -1.3378104139148839 81.464590038039546 
	-10.943285076954007 -2.2974077214001252 82.040348422530712 
	-7.0307353986491519 -3.7215501330062564 82.894833869494391 
	-4.9888663450327808 -4.1861203960313969 83.173576027309466 
	-1.9742587927788597 -4.5237936859603591 83.376180001266832 
	-0.97720429896853234 -4.5773797371132288 83.408331631958561 
	0.9772042989683718 -4.5773797371132341 83.408331631958561 
	1.9742587927786994 -4.5237936859603716 83.37618000126686 
	4.9888663450326218 -4.186120396031427 83.173576027309494 
	7.0307353986489938 -3.7215501330062972 82.894833869494406 
	10.943285076953858 -2.2974077214001909 82.040348422530727 
	12.810877472382794 -1.3378104139149622 81.464590038039589 
	15.312135643771676 0.39982114292401055 80.4220111039362 
	16.096283141138034 1.0278315009195418 80.045204889138887 
	17.545699245042545 2.3606155041340049 79.245534487210222 
	18.2109353413951 3.0653087205211262 78.822718557377939 
	20.010334190811434 5.2583708166267238 77.506881299714578 
	20.944483169292589 6.824698007502203 76.567084985189297 
	21.61293027807589 8.3995209271573863 75.62219123339618 
	0.0010629319127379465 
	} I I I I #
render-rbase-attrib $-1 $59 $34 $30 $60 $-1 0 0 #
fmesh-eye-attrib $-1 $61 $-1 $35 #
face $62 $63 $64 $23 $-1 $65 forward single #
loop $-1 $-1 $66 $35 #
torus-surface $-1 0 52.600000000000001 45 0 0 1 43.600000000000001 3 1 0 0 forward_v I I I I #
coedge $-1 $67 $68 $69 $70 0 $36 $-1 #
lump $-1 $71 $72 $6 #
shell $-1 $-1 $-1 $73 $-1 $38 #
face $74 $75 $76 $39 $-1 $77 forward single #
fmesh-eye-attrib $-1 $78 $-1 $40 #
face $79 $80 $81 $32 $-1 $82 forward single #
loop $-1 $83 $84 $40 #
cone-surface $-1 -22.5 29.5 28 -0.025632600792550801 0.9996714309094813 0 0.9996714309094813 0.025632600792550801 0 1 I I 0 1 forward I I I I #
render-rbase-attrib $-1 $85 $41 $33 $60 $-1 0 0 #
coedge $-1 $86 $87 $-1 $88 1 $42 $89 #
id_attribute-st-attrib $-1 $-1 $44 $30 112 #
rh_material-rh_entity $90 4 6 marble 5 scale -2 1 6 detail -1 4 12 ground color -4 1 0.75 0.84999999999999998 10 vein color -4 0.77500000000000002 0.63 0.875 13 vein contrast -2 0.10000000000000001 5 grain -2 0.10000000000000001 11 grain scale -2 0.10000000000000001 5 phong 14 ambient factor -2 1 14 diffuse factor -2 0.75 15 specular factor -2 0.5 8 exponent -2 10 14 specular color -4 1 1 1 4 none 4 none #
render-rbase-attrib $-1 $91 $45 $35 $60 $-1 0 0 #
fmesh-eye-attrib $-1 $92 $-1 $46 #
face $93 $94 $95 $23 $-1 $96 forward single #
loop $-1 $-1 $97 $46 #
torus-surface $-1 0 2.1000000000000014 45 0 0 1 47.899999999999999 3 1 0 0 forward_v I I I I #
coedge $-1 $98 $99 $100 $101 0 $47 $-1 #
coedge $-1 $102 $49 $99 $103 0 $36 $-1 #
coedge $-1 $49 $102 $104 $105 0 $36 $-1 #
coedge $-1 $106 $100 $49 $70 1 $107 $-1 #
edge $108 $109 $110 $69 $111 forward #
lump $-1 $112 $113 $6 #
shell $-1 $-1 $-1 $114 $-1 $50 #
face $115 $116 $117 $51 $-1 $118 forward single #
fmesh-eye-attrib $-1 $119 $-1 $52 #
face $120 $121 $122 $39 $-1 $123 forward single #
loop $-1 $124 $125 $52 #
cone-surface $-1 22.5 29.5 28 0.025632600792550801 0.9996714309094813 0 0.9996714309094813 -0.025632600792550801 0 1 I I 0 1 forward I I I I #
render-rbase-attrib $-1 $126 $53 $40 $127 $-1 0 0 #
fmesh-eye-attrib $-1 $128 $-1 $54 #
face $129 $-1 $130 $32 $-1 $131 forward single #
loop $-1 $-1 $132 $54 #
plane-surface $-1 -22 10 28 0.025632600792550801 -0.9996714309094813 0 -0.9996714309094813 -0.025632600792550801 0 forward_v I I I I #
loop $-1 $-1 $133 $40 #
coedge $-1 $84 $84 $132 $134 1 $55 $-1 #
id_attribute-st-attrib $-1 $-1 $57 $33 117 #
coedge $-1 $135 $58 $-1 $136 0 $42 $137 #
coedge $-1 $58 $135 $-1 $138 1 $42 $139 #
edge $140 $141 $142 $58 $143 forward #
pcurve $-1 0 reversed { exppc nubs 1 open 2 
	0 1 1 1 
	0 0 
	1 0 
	0 
	spline forward { ref 0 } I I I I 
	} 0 0 #
id_attribute-st-attrib $-1 $-1 $-1 $60 8 #
id_attribute-st-attrib $-1 $-1 $61 $35 113 #
render-rbase-attrib $-1 $144 $62 $46 $60 $-1 0 0 #
fmesh-eye-attrib $-1 $145 $-1 $63 #
face $146 $147 $107 $23 $-1 $148 forward single #
loop $-1 $-1 $149 $63 #
torus-surface $-1 63.094109325490223 31.786327279067304 45 0 0 1 83.625 3 1 0 0 forward_v I I I I #
coedge $-1 $104 $150 $106 $151 0 $64 $-1 #
coedge $-1 $152 $66 $153 $154 1 $47 $-1 #
coedge $-1 $66 $152 $67 $103 1 $47 $-1 #
coedge $-1 $69 $155 $66 $101 1 $107 $-1 #
edge $156 $110 $157 $100 $158 forward #
coedge $-1 $68 $67 $159 $160 0 $36 $-1 #
edge $161 $110 $162 $67 $163 forward #
coedge $-1 $164 $97 $68 $105 1 $64 $-1 #
edge $165 $166 $109 $68 $167 forward #
coedge $-1 $155 $69 $97 $151 1 $107 $-1 #
loop $-1 $-1 $69 $94 #
ptlist-eye-attrib $-1 $-1 $-1 $70 #
vertex $-1 $70 $168 #
vertex $-1 $70 $169 #
ellipse-curve $-1 -63.094109325490223 31.786327279067304 48 0 0 -1 83.594474355617379 -2.2593101177192763 0 1 F -0.33572874095890481 F 0.33876238424268462 #
lump $-1 $-1 $170 $6 #
shell $-1 $-1 $-1 $171 $-1 $71 #
face $172 $173 $174 $72 $-1 $175 forward single #
fmesh-eye-attrib $-1 $176 $-1 $73 #
face $177 $178 $179 $51 $-1 $180 forward single #
loop $-1 $181 $182 $73 #
torus-surface $-1 22 -164.03624999999997 45.00000000000005 1 0 0 176.03625 2 0 0 -1 forward_v I I I I #
render-rbase-attrib $-1 $183 $74 $52 $127 $-1 0 0 #
fmesh-eye-attrib $-1 $184 $-1 $75 #
face $185 $-1 $186 $39 $-1 $187 forward single #
loop $-1 $-1 $188 $75 #
plane-surface $-1 22 10 28 -0.025632600792550801 -0.9996714309094813 0 -0.9996714309094813 0.025632600792550801 0 forward_v I I I I #
loop $-1 $-1 $189 $52 #
coedge $-1 $125 $125 $188 $190 1 $76 $-1 #
id_attribute-st-attrib $-1 $-1 $78 $40 57 #
rh_material-rh_entity $191 4 11 simple wood 5 scale -2 0.45000000000000001 16 light wood color -4 0.97999999999999998 0.84999999999999998 0.53000000000000003 15 dark wood color -4 0.80000000000000004 0.65000000000000002 0.10000000000000001 13 point on axis -5 0 0 0 14 axis direction -5 0 -1 10 5 noise -2 0.5 5 phong 14 ambient factor -2 1 14 diffuse factor -2 0.75 15 specular factor -2 0.5 8 exponent -2 10 14 specular color -4 1 1 1 4 none 4 none #
render-rbase-attrib $-1 $192 $79 $54 $127 $-1 0 0 #
fmesh-eye-attrib $-1 $193 $-1 $80 #
loop $-1 $-1 $194 $80 #
plane-surface $-1 -23 49 28 -0.025632600792550801 0.9996714309094813 0 0.9996714309094813 0.025632600792550801 0 forward_v I I I I #
coedge $-1 $132 $132 $84 $134 0 $81 $-1 #
coedge $-1 $133 $133 $194 $195 1 $83 $-1 #
edge $196 $197 $197 $132 $198 forward #
coedge $-1 $87 $86 $-1 $199 0 $42 $200 #
edge $201 $141 $202 $86 $203 forward #
pcurve $-1 1 $203 0 0 #
edge $204 $142 $205 $87 $206 forward #
pcurve $-1 -1 $206 0 0 #
ptlist-eye-attrib $-1 $-1 $-1 $88 #
vertex $-1 $88 $207 #
vertex $-1 $88 $208 #
intcurve-curve $-1 forward { exactcur nurbs 2 open 2 
	0 2 1 2 
	-22.000000000000085 10.000000000000043 45 1 
	-1.5987211554602254e-014 -0.54466230936822857 45 0.90176817288801547 
	22.000000000000043 10.000000000000021 45 1 
	0 
	null_surface 
	null_surface 
	nullbs 
	nullbs 
	I I F 1 F 0 } I I #
id_attribute-st-attrib $-1 $-1 $92 $46 114 #
render-rbase-attrib $-1 $209 $93 $63 $60 $-1 0 0 #
fmesh-eye-attrib $-1 $210 $-1 $94 #
face $211 $-1 $212 $23 $-1 $213 forward single #
plane-surface $-1 -1.671371374634134e-014 29.486491419326097 48 0 0 1 1 0 0 forward_v I I I I #
coedge $-1 $214 $153 $155 $215 0 $95 $-1 #
coedge $-1 $97 $164 $214 $216 0 $64 $-1 #
edge $217 $218 $109 $106 $219 forward #
coedge $-1 $99 $98 $220 $221 0 $47 $-1 #
coedge $-1 $149 $222 $98 $154 0 $95 $-1 #
edge $223 $224 $157 $153 $225 forward #
coedge $-1 $100 $106 $149 $215 1 $107 $-1 #
ptlist-eye-attrib $-1 $-1 $-1 $101 #
vertex $-1 $101 $226 #
ellipse-curve $-1 0 52.600000000000001 48 0 0 -1 0 -43.600000000000001 0 1 F -0.74801989644675648 F 0.74801989644675648 #
coedge $-1 $220 $227 $102 $160 1 $212 $-1 #
edge $228 $162 $166 $159 $229 forward #
ptlist-eye-attrib $-1 $-1 $-1 $103 #
vertex $-1 $160 $230 #
intcurve-curve $-1 forward { surfintcur nubs 3 open 6 
	-4.9721020087007286 3 -4.3438252454189117 2 -3.4929681186671329 2 -2.2647771730004429 2 -1.0899274849764182 2 
	0 3 
	18.411365073170316 13.078086633584604 48 
	18.574747225903522 12.945903144616775 48 
	18.738144956934764 12.813914183302442 47.982175133822579 
	19.117693288566507 12.507777101740684 47.898082109650872 
	19.331450357195443 12.335724315634954 47.817014203312127 
	19.828615290364951 11.936255085040681 47.540048589151581 
	20.098166747225406 11.720300187982465 47.310647967589858 
	20.542714908210812 11.364737215046679 46.744997385875557 
	20.717094777307743 11.225576458474869 46.418980145485008 
	20.943230428327883 11.045217875584745 45.721267820176728 
	21.000000000000011 11.000000000000007 45.363309161658805 
	21.000000000000011 11.000000000000007 45 
	2.4582568137270773e-005 
	torus -63.094109325490223 31.786327279067304 45 0 0 1 83.625 3 1 0 0 forward_v I I I I 
	spline forward { exactsur nurbs 2 1 u open open none none 2 2 
	0 2 1 2 
	0 1 1 1 
	26.140483933927474 6.9553387601564083 51 1 
	20.404568468640878 11.416651774940291 51 1.0054635012201605 
	15.807105524828007 15.203537400885729 51 1 
	26.140483933927474 6.9553387601564083 45 1 
	20.404568468640878 11.416651774940291 45 1.0054635012201605 
	15.807105524828007 15.203537400885729 45 1 
	0 
	F 1 F 0 F 1 F 0 } I I I I 
	nullbs 
	nubs 3 open 6 
	-4.9721020087007286 3 -4.3438252454189117 3 -3.4929681186671329 3 -2.2647771730004429 3 -1.0899274849764182 3 
	0 3 
	0.72650397628821539 0.49999999999999983 
	0.70984309332551387 0.49999999460196343 
	0.69327154737081353 0.5029708112957938 
	0.67700753809570857 0.50892403511982687 
	0.65498164058994612 0.51698631505818793 
	0.63357834888215103 0.53049763278131279 
	0.61333582159909472 0.54938914454255416 
	0.58411624060860301 0.57665856847473607 
	0.55758615190574612 0.61489200540168998 
	0.53536558866962147 0.6630758849646976 
	0.51411008122773239 0.70916710235407365 
	0.49720271164516533 0.7635033090858323 
	0.48585494795450496 0.82382617568621253 
	0.47532743991194826 0.8797886966372126 
	0.46986414874093613 0.93944847305686563 
	0.46986414874093613 1 
	
	I I } I I #
coedge $-1 $150 $104 $227 $231 0 $64 $-1 #
ptlist-eye-attrib $-1 $-1 $-1 $105 #
vertex $-1 $160 $232 #
intcurve-curve $-1 forward { surfintcur nubs 3 open 7 
	-10.07004583209106 3 -9.1498976012864404 2 -8.1367148014416841 2 -6.847556276412222 2 -5.903921341625054 2 
	-5.1589268962485271 2 -5.052873701999121 3 
	22.000000000000021 47.999999999999993 44.999999999999993 
	22.000000000000021 47.999999999999993 45.306910085868282 
	21.95820112575651 47.967831480302564 45.61028586848898 
	21.788328155358602 47.836984052981819 46.218653554523939 
	21.654074962324099 47.733535476156113 46.513370377033958 
	21.267013776582878 47.434825422597413 47.106832472844616 
	20.996863675481752 47.226066693240867 47.377544419096935 
	20.474390729079257 46.821258531338842 47.726096508490706 
	20.238411340453435 46.638127754961843 47.835072761394891 
	19.803210429607269 46.299704034793841 47.960587167449873 
	19.60708431574443 46.146959818029465 47.991649942055872 
	19.382465632328536 45.971737625080927 47.999510596808193 
	19.35446789709545 45.949891910249953 48 
	19.326473539124649 45.928043768134515 48 
	2.6380112722041287e-005 
	torus -63.094109325490223 31.786327279067304 45 0 0 1 83.625 3 1 0 0 forward_v I I I I 
	spline forward { exactsur nurbs 2 1 u open open none none 2 2 
	0 2 1 2 
	0 1 1 1 
	27.292228140414462 52.027390109353483 45 1 
	21.410651244473183 47.598536420508417 45 1.0051827050373741 
	16.629775959105 43.806840584608814 45 1 
	27.292228140414462 52.027390109353483 51 1 
	21.410651244473183 47.598536420508417 51 1.0051827050373741 
	16.629775959105 43.806840584608814 51 1 
	0 
	F 1 F 0 F 1 F 0 } I I I I 
	nullbs 
	nubs 3 open 7 
	-10.07004583209106 3 -9.1498976012864404 3 -8.1367148014416841 3 -6.847556276412222 3 -5.903921341625054 3 
	-5.1589268962485271 3 -5.052873701999121 3 
	0.4704818208214625 0 
	0.47048182082146245 0.051151680978048349 
	0.47438384033132913 0.10171431141483168 
	0.48195773741273235 0.14997199389042759 
	0.49029741790525677 0.20310892575399098 
	0.50289295219215213 0.2522283961723254 
	0.51897230807085348 0.29575550640419801 
	0.53943143816187611 0.35113874547410096 
	0.56506731809398325 0.39625740318282332 
	0.59398751066481859 0.42979826470491261 
	0.61515643869094228 0.45434941808178597 
	0.63792046852650641 0.4725121268991479 
	0.66156022195674835 0.48420205915661996 
	0.68022367362259106 0.49343119457497836 
	0.69939576798743686 0.49860832367597885 
	0.71873235269042712 0.49975517371797995 
	0.72148498123657601 0.49991843258924062 
	0.72424062012249846 0.49999999964978625 
	0.72699824585762918 0.5 
	
	I I } I I #
point $-1 19.326473539124649 45.928043768134515 48 #
point $-1 18.411365073170316 13.078086633584604 48 #
shell $-1 $-1 $-1 $233 $-1 $112 #
face $234 $235 $236 $113 $-1 $237 forward single #
fmesh-eye-attrib $-1 $238 $-1 $114 #
face $239 $240 $241 $72 $-1 $242 forward single #
loop $-1 $243 $244 $114 #
torus-surface $-1 -22 -164.03624999999997 45.00000000000005 1 0 0 176.03625 2 0 0 -1 forward_v I I I I #
render-rbase-attrib $-1 $245 $115 $73 $127 $-1 0 0 #
fmesh-eye-attrib $-1 $246 $-1 $116 #
face $247 $248 $249 $51 $-1 $250 forward single #
loop $-1 $-1 $251 $116 #
plane-surface $-1 24 9.240000000000002 76.050000000000168 0 -0.1763841254287121 0.98432141107300331 1 0 0 forward_v I I I I #
loop $-1 $-1 $252 $73 #
coedge $-1 $182 $182 $251 $253 0 $117 $-1 #
id_attribute-st-attrib $-1 $-1 $119 $52 60 #
render-rbase-attrib $-1 $254 $120 $75 $127 $-1 0 0 #
fmesh-eye-attrib $-1 $255 $-1 $121 #
loop $-1 $-1 $256 $121 #
plane-surface $-1 23 49 28 0.025632600792550801 0.9996714309094813 0 0.9996714309094813 -0.025632600792550801 0 forward_v I I I I #
coedge $-1 $188 $188 $125 $190 0 $122 $-1 #
coedge $-1 $189 $189 $256 $257 1 $124 $-1 #
edge $258 $259 $259 $188 $260 forward #
id_attribute-st-attrib $-1 $-1 $-1 $127 1 #
id_attribute-st-attrib $-1 $-1 $128 $54 58 #
render-rbase-attrib $-1 $261 $129 $80 $127 $-1 0 0 #
coedge $-1 $194 $194 $133 $195 0 $130 $-1 #
edge $262 $263 $263 $194 $264 forward #
ptlist-eye-attrib $-1 $-1 $-1 $134 #
vertex $-1 $134 $265 #
ellipse-curve $-1 -22 10 28 0.025632600792550801 -0.9996714309094813 0 0.9996714309094813 0.025632600792550801 0 1 I I #
edge $266 $202 $205 $135 $267 forward #
pcurve $-1 0 reversed { exppc nubs 1 open 2 
	-1 1 0 1 
	1 1 
	0 1 
	0 
	spline forward { ref 0 } I I I I 
	} 0 0 #
ptlist-eye-attrib $-1 $-1 $-1 $136 #
vertex $-1 $199 $268 #
intcurve-curve $-1 forward { surfcur nubs 3 open 2 
	0 3 1 3 
	-22.000000000000085 10.000000000000043 45 
	-21.956992253119626 9.8221689919064286 48.402465692599563 
	-21.655938024956402 8.5773519352511318 72.219725540796532 
	-21.612930278075943 8.3995209271575177 75.622191233396094 
	0.0010629319127379465 
	spline forward { ref 0 } I I I I 
	null_surface 
	nubs 1 open 2 
	0 1 1 1 
	0 0 
	0 1 
	
	nullbs 
	I I surf1 } I I #
ptlist-eye-attrib $-1 $-1 $-1 $138 #
vertex $-1 $199 $269 #
intcurve-curve $-1 forward { surfcur nubs 3 open 2 
	0 3 1 3 
	22.000000000000043 10.000000000000021 45 
	21.95699225311958 9.8221689919063948 48.402465692599577 
	21.655938024956352 8.5773519352510128 72.219725540796603 
	21.61293027807589 8.3995209271573863 75.62219123339618 
	0.0010629319127379465 
	spline forward { ref 0 } I I I I 
	null_surface 
	nubs 1 open 2 
	0 1 1 1 
	1 0 
	1 1 
	
	nullbs 
	I I surf1 } I I #
point $-1 -22.000000000000085 10.000000000000043 45 #
point $-1 22.000000000000043 10.000000000000021 45 #
id_attribute-st-attrib $-1 $-1 $145 $63 115 #
render-rbase-attrib $-1 $270 $146 $94 $60 $-1 0 0 #
fmesh-eye-attrib $-1 $271 $-1 $147 #
loop $-1 $-1 $227 $147 #
plane-surface $-1 21.999999999999975 48.000000000000149 45 0 0 -1 -1 0 0 forward_v I I I I #
coedge $-1 $222 $149 $150 $216 1 $95 $-1 #
edge $272 $157 $218 $155 $273 forward #
edge $274 $275 $218 $150 $276 forward #
ptlist-eye-attrib $-1 $-1 $-1 $151 #
vertex $-1 $151 $277 #
ellipse-curve $-1 0 2.1000000000000014 48 0 0 -1 0 47.899999999999999 0 1 F -0.69598291739901508 F 0.69598291739901363 #
coedge $-1 $278 $159 $152 $221 1 $212 $-1 #
edge $279 $224 $162 $220 $280 forward #
coedge $-1 $153 $214 $278 $281 0 $95 $-1 #
ptlist-eye-attrib $-1 $-1 $-1 $154 #
vertex $-1 $221 $282 #
intcurve-curve $-1 forward { surfintcur nubs 3 open 7 
	-9.9670290463380322 3 -9.0685920599467416 2 -8.0869947982352919 2 -6.8206040729935395 2 -5.8749617741316795 2 
	-5.1383699050419391 2 -4.99943151708844 3 
	-21.000000000000011 11.000000000000007 45 
	-21.000000000000011 11.000000000000007 45.299684818888949 
	-20.961362156993914 11.03077947681683 45.596351841472952 
	-20.804350199954079 11.155971626134161 46.190593727121019 
	-20.680655014312201 11.254636085482513 46.479351002517198 
	-20.31906863347692 11.543523382049559 47.070259990908283 
	-20.063091617010834 11.748317142758776 47.344746806790589 
	-19.559420843248375 12.152443677575937 47.705817735805759 
	-19.32804281883508 12.338424826015366 47.82098953314096 
	-18.902156394996897 12.681539867252438 47.954316576532321 
	-18.711346770138633 12.835524206079645 47.988124097966271 
	-18.483654190135859 13.019611549969005 47.999127802866788 
	-18.447505712023386 13.048847235907393 48 
	-18.411365073170316 13.078086633584604 48 
	2.1545692811227893e-005 
	torus 63.094109325490223 31.786327279067304 45 0 0 1 83.625 3 1 0 0 forward_v I I I I 
	spline forward { exactsur nurbs 2 1 u open open none none 2 2 
	0 2 1 2 
	0 1 1 1 
	-26.140483933927474 6.9553387601564083 45 1 
	-20.404568468640878 11.416651774940291 45 1.0054635012201605 
	-15.807105524828007 15.203537400885729 45 1 
	-26.140483933927474 6.9553387601564083 51 1 
	-20.404568468640878 11.416651774940291 51 1.0054635012201605 
	-15.807105524828007 15.203537400885729 51 1 
	0 
	F 1 F 0 F 1 F 0 } I I I I 
	nullbs 
	nubs 3 open 7 
	-9.9670290463380322 3 -9.0685920599467416 3 -8.0869947982352919 3 -6.8206040729935395 3 -5.8749617741316795 3 
	-5.1383699050419391 3 -4.99943151708844 3 
	0.46986414874093607 -5.3526207158435673e-032 
	0.46986414874093607 0.049947469814824313 
	0.47358430934355922 0.099391973578823567 
	0.4808346210652466 0.1467216866295222 
	0.48875602928904294 0.19843228785350223 
	0.50072618847235417 0.24655850041953198 
	0.51610199795927247 0.28956248504131793 
	0.53593883256226205 0.34504333181804597 
	0.56100009522252126 0.39079113446509828 
	0.58953842183807248 0.42524336842639809 
	0.61084862906597892 0.45096962263429335 
	0.63390089376892211 0.47016492219015976 
	0.65795256836866922 0.48265621642800699 
	0.67668720827372486 0.49238609608871992 
	0.69597315656712899 0.49802068299437741 
	0.71546082208525241 0.4995636031265645 
	0.71913661928472905 0.4998546336219436 
	0.72281848130370552 0.49999999967661707 
	0.72650397628821484 0.49999999999999994 
	
	I I } I I #
point $-1 -18.411365073170316 13.078086633584604 48 #
coedge $-1 $159 $278 $164 $231 1 $212 $-1 #
ptlist-eye-attrib $-1 $-1 $-1 $160 #
ellipse-curve $-1 -63.094109325490223 31.786327279067304 45 0 0 1 86.593379265235939 -2.3403616017630169 0 1 F -0.21530172767775735 F 0.2153017276777574 #
point $-1 21.000000000000025 11.000000000000085 45 #
edge $283 $166 $275 $227 $284 forward #
point $-1 21.999999999999975 48.000000000000149 45 #
face $285 $286 $287 $170 $-1 $288 forward single #
fmesh-eye-attrib $-1 $289 $-1 $171 #
face $290 $291 $292 $113 $-1 $293 forward single #
loop $-1 $294 $295 $171 #
cone-surface $-1 22.999999999999961 48.999999999999979 54.999999999999972 0 -2.8421709430404009e-015 -1 -2 -5.5393639099997002e-017 1.6023737137301802e-031 1 I I 0 1 forward I I I I #
render-rbase-attrib $-1 $296 $172 $114 $127 $-1 0 0 #
fmesh-eye-attrib $-1 $297 $-1 $173 #
face $298 $299 $300 $72 $-1 $301 forward single #
loop $-1 $-1 $302 $173 #
plane-surface $-1 -20 9.240000000000002 76.050000000000168 0 -0.1763841254287121 0.98432141107300331 1 0 0 forward_v I I I I #
loop $-1 $-1 $303 $114 #
coedge $-1 $244 $244 $302 $304 0 $174 $-1 #
id_attribute-st-attrib $-1 $-1 $176 $73 63 #
render-rbase-attrib $-1 $305 $177 $116 $127 $-1 0 0 #
fmesh-eye-attrib $-1 $306 $-1 $178 #
face $307 $-1 $308 $51 $-1 $309 reversed single #
loop $-1 $310 $311 $178 #
torus-surface $-1 22 -243.125 45.000000000000028 1 0 0 255.125 2 0 0 -1 forward_v I I I I #
coedge $-1 $251 $251 $182 $253 1 $179 $-1 #
coedge $-1 $312 $312 $313 $314 1 $181 $-1 #
edge $315 $316 $316 $182 $317 forward #
id_attribute-st-attrib $-1 $-1 $184 $75 61 #
render-rbase-attrib $-1 $318 $185 $121 $127 $-1 0 0 #
coedge $-1 $256 $256 $189 $257 0 $186 $-1 #
edge $319 $320 $320 $256 $321 forward #
ptlist-eye-attrib $-1 $-1 $-1 $190 #
vertex $-1 $190 $322 #
ellipse-curve $-1 22 10 28 -0.025632600792550801 -0.9996714309094813 0 0.9996714309094813 -0.025632600792550801 0 1 I I #
id_attribute-st-attrib $-1 $-1 $193 $80 59 #
ptlist-eye-attrib $-1 $-1 $-1 $195 #
vertex $-1 $195 $323 #
ellipse-curve $-1 -23 49 28 -0.025632600792550801 0.9996714309094813 0 0.9996714309094813 0.025632600792550801 0 1 I I #
point $-1 -21.00032856909052 10.025632600792552 28 #
ptlist-eye-attrib $-1 $-1 $-1 $199 #
intcurve-curve $-1 forward { exactcur nurbs 2 open 3 
	0 2 0.5 2 1 2 
	-21.612930278075943 8.3995209271575177 75.622191233396094 1 
	-16.104773378823459 -4.5773797371131826 83.408331631958532 0.81915204428899124 
	-8.0304117305515788e-014 -4.5773797371132314 83.408331631958561 1 
	16.104773378823296 -4.5773797371132776 83.408331631958589 0.81915204428899091 
	21.61293027807589 8.3995209271573863 75.62219123339618 1 
	0 
	null_surface 
	null_surface 
	nullbs 
	nullbs 
	I I F 1 F 0 } I I #
point $-1 -21.612930278075943 8.3995209271575177 75.622191233396094 #
point $-1 21.61293027807589 8.3995209271573863 75.62219123339618 #
id_attribute-st-attrib $-1 $-1 $210 $94 116 #
render-rbase-attrib $-1 $324 $211 $147 $60 $-1 0 0 #
ptlist-eye-attrib $-1 $-1 $-1 $215 #
ellipse-curve $-1 63.094109325490223 31.786327279067304 48 0 0 -1 -83.594474355617379 -2.2593101177192763 0 1 F -0.33876238424268468 F 0.33572874095890276 #
ptlist-eye-attrib $-1 $-1 $-1 $216 #
vertex $-1 $231 $325 #
intcurve-curve $-1 forward { surfintcur nubs 3 open 7 
	-10.070045832086342 3 -9.1498976012823228 2 -8.1367148014385631 2 -6.8475562764101445 2 -5.9039213416232839 2 
	-5.1589268962465242 2 -5.0528737019975081 3 
	-21.999999999999989 48.000000000000007 45 
	-21.999999999999989 48.000000000000007 45.306910085868203 
	-21.958201125756531 47.967831480302628 45.610285868488823 
	-21.788328155358638 47.83698405298189 46.218653554523812 
	-21.654074962324156 47.733535476156192 46.513370377033795 
	-21.267013776583074 47.434825422597598 47.106832472844353 
	-20.996863675482036 47.22606669324113 47.377544419096687 
	-20.474390729079317 46.821258531338927 47.726096508490691 
	-20.238411340453304 46.638127754961779 47.835072761394926 
	-19.803210429607145 46.299704034793777 47.960587167449901 
	-19.607084315744238 46.146959818029345 47.991649942055908 
	-19.382465632328341 45.971737625080792 47.9995105968082 
	-19.354467897095365 45.949891910249882 48 
	-19.326473539124656 45.928043768134515 48 
	2.6380112706277855e-005 
	torus 0 2.1000000000000014 45 0 0 1 47.899999999999999 3 1 0 0 forward_v I I I I 
	spline forward { exactsur nurbs 2 1 u open open none none 2 2 
	0 2 0.99999999999999989 2 
	0 1 1 1 
	-27.292228140414469 52.027390109353497 45 1 
	-21.410651244475435 47.598536420510122 45 1.0051827050389699 
	-16.629775959105 43.806840584608828 45 1 
	-27.292228140414469 52.027390109353497 51 1 
	-21.410651244475435 47.598536420510122 51 1.0051827050389699 
	-16.629775959105 43.806840584608828 51 1 
	0 
	F 1 F 0 F 1 F 0 } I I I I 
	nullbs 
	nubs 3 open 7 
	-10.070045832086342 3 -9.1498976012823228 3 -8.1367148014385631 3 -6.8475562764101445 3 -5.9039213416232839 3 
	-5.1589268962465242 3 -5.0528737019975081 3 
	0.47048182082152745 -1.5326465516740976e-032 
	0.47048182082152745 0.051151680978033902 
	0.47438384033139158 0.10171431141480528 
	0.48195773741280168 0.14997199389041185 
	0.49029741790533093 0.20310892575396944 
	0.50289295219223529 0.25222839617229975 
	0.51897230807094208 0.29575550640416104 
	0.53943143816197525 0.35113874547405916 
	0.56506731809409383 0.39625740318277997 
	0.59398751066495503 0.42979826470488458 
	0.61515643869110792 0.45434941808178103 
	0.63792046852670459 0.47251212689915484 
	0.66156022195695063 0.48420205915662251 
	0.68022367362280856 0.49343119457498336 
	0.69939576798766767 0.49860832367598562 
	0.71873235269067237 0.4997551737179835 
	0.72148498123681226 0.49991843258924218 
	0.72424062012272572 0.49999999964978659 
	0.72699824585784745 0.49999999999999956 
	
	I I } I I #
point $-1 -19.326473539124656 45.928043768134515 48 #
coedge $-1 $227 $220 $222 $281 1 $212 $-1 #
ptlist-eye-attrib $-1 $-1 $-1 $221 #
ellipse-curve $-1 0 52.600000000000001 45 0 0 1 0 -46.600000000000001 0 1 F -0.46748636173780406 F 0.46748636173780411 #
edge $326 $275 $224 $278 $327 forward #
point $-1 -21.000000000000025 11.000000000000078 45 #
ptlist-eye-attrib $-1 $-1 $-1 $231 #
ellipse-curve $-1 0 2.1000000000000014 45 0 0 1 0 50.899999999999999 0 1 F -0.44695320228126428 F 0.44695320228126695 #
fmesh-eye-attrib $-1 $328 $-1 $233 #
face $329 $330 $331 $170 $-1 $332 forward single #
loop $-1 $-1 $333 $233 #
cone-surface $-1 0 -1.3999999999999986 45 0 0 -1 0 55.399999999999999 0 1 I I 0 1 forward I I I I #
render-rbase-attrib $-1 $334 $234 $171 $127 $-1 0 0 #
fmesh-eye-attrib $-1 $335 $-1 $235 #
face $336 $337 $338 $113 $-1 $339 forward single #
loop $-1 $-1 $340 $235 #
plane-surface $-1 20.999999999999961 48.999999999999822 -2.8421709430404007e-014 0 -2.8421709430404009e-015 -1 -1 0 0 forward_v I I I I #
loop $-1 $-1 $341 $171 #
coedge $-1 $295 $295 $340 $342 0 $236 $-1 #
id_attribute-st-attrib $-1 $-1 $238 $114 67 #
render-rbase-attrib $-1 $343 $239 $173 $127 $-1 0 0 #
fmesh-eye-attrib $-1 $344 $-1 $240 #
face $345 $-1 $346 $72 $-1 $347 reversed single #
loop $-1 $348 $349 $240 #
torus-surface $-1 -22 -243.125 45.000000000000028 1 0 0 255.125 2 0 0 -1 forward_v I I I I #
coedge $-1 $302 $302 $244 $304 1 $241 $-1 #
coedge $-1 $350 $350 $351 $352 1 $243 $-1 #
edge $353 $354 $354 $244 $355 forward #
id_attribute-st-attrib $-1 $-1 $246 $116 64 #
render-rbase-attrib $-1 $356 $247 $178 $127 $-1 0 0 #
fmesh-eye-attrib $-1 $357 $-1 $248 #
loop $-1 $-1 $358 $248 #
plane-surface $-1 22.000000000000004 7.9999999999999964 8.1416355139178143e-016 1.8709550099493871e-017 0.17638412542871149 0.98432141107300342 1 0 -1.9007561848216522e-017 forward_v I I I I #
loop $-1 $-1 $359 $178 #
coedge $-1 $313 $313 $312 $360 0 $249 $-1 #
coedge $-1 $252 $252 $311 $360 1 $181 $-1 #
coedge $-1 $311 $311 $252 $314 0 $249 $-1 #
edge $361 $362 $363 $313 $364 forward #
ptlist-eye-attrib $-1 $-1 $-1 $253 #
vertex $-1 $253 $365 #
ellipse-curve $-1 22 9.240000000000002 76.050000000000168 0 0.1763841254287121 -0.98432141107300331 2 0 0 1 I I #
id_attribute-st-attrib $-1 $-1 $255 $121 62 #
ptlist-eye-attrib $-1 $-1 $-1 $257 #
vertex $-1 $257 $366 #
ellipse-curve $-1 23 49 28 0.025632600792550801 0.9996714309094813 0 0.9996714309094813 -0.025632600792550801 0 1 I I #
point $-1 22.99967143090948 9.9743673992074484 28 #
point $-1 -22.00032856909052 49.025632600792548 28 #
id_attribute-st-attrib $-1 $-1 $271 $147 106 #
point $-1 -22.000000000000039 47.999999999999979 45 #
ptlist-eye-attrib $-1 $-1 $-1 $281 #
ellipse-curve $-1 63.094109325490223 31.786327279067304 45 0 0 1 -86.593379265235939 -2.3403616017630169 0 1 F -0.21530172767775535 F 0.2153017276777574 #
render-rbase-attrib $-1 $367 $285 $233 $127 $-1 0 0 #
fmesh-eye-attrib $-1 $368 $-1 $286 #
face $369 $370 $371 $170 $-1 $372 forward single #
loop $-1 $-1 $373 $286 #
cone-surface $-1 71.594073434354925 31.912668549598845 45 0 0 -1 -96.093416296173885 -2.4639337511840069 0 1 I I 0 1 forward I I I I #
coedge $-1 $374 $375 $376 $377 0 $287 $-1 #
id_attribute-st-attrib $-1 $-1 $289 $171 71 #
render-rbase-attrib $-1 $378 $290 $235 $127 $-1 0 0 #
fmesh-eye-attrib $-1 $379 $-1 $291 #
face $380 $381 $382 $113 $-1 $383 forward single #
loop $-1 $384 $385 $291 #
torus-surface $-1 22.999999999999961 38.999999999999972 55 -1 6.7053176943785989e-030 0 10 2 0 0 1 forward_v I I I I #
coedge $-1 $340 $340 $295 $342 1 $292 $-1 #
coedge $-1 $341 $341 $385 $386 1 $294 $-1 #
edge $387 $388 $388 $295 $389 forward #
id_attribute-st-attrib $-1 $-1 $297 $173 68 #
render-rbase-attrib $-1 $390 $298 $240 $127 $-1 0 0 #
fmesh-eye-attrib $-1 $391 $-1 $299 #
loop $-1 $-1 $392 $299 #
plane-surface $-1 -21.999999999999993 7.9999999999999964 8.1416355139178143e-016 1.8709550099493871e-017 0.17638412542871149 0.98432141107300342 1 0 -1.9007561848216522e-017 forward_v I I I I #
loop $-1 $-1 $393 $240 #
coedge $-1 $351 $351 $350 $394 0 $300 $-1 #
coedge $-1 $303 $303 $349 $394 1 $243 $-1 #
coedge $-1 $349 $349 $303 $352 0 $300 $-1 #
edge $395 $396 $397 $351 $398 forward #
ptlist-eye-attrib $-1 $-1 $-1 $304 #
vertex $-1 $304 $399 #
ellipse-curve $-1 -22 9.240000000000002 76.050000000000168 0 0.1763841254287121 -0.98432141107300331 2 0 0 1 I I #
id_attribute-st-attrib $-1 $-1 $306 $178 65 #
render-rbase-attrib $-1 $400 $307 $248 $127 $-1 0 0 #
coedge $-1 $358 $358 $359 $401 1 $308 $-1 #
coedge $-1 $359 $359 $358 $401 0 $310 $-1 #
edge $402 $363 $362 $311 $364 forward #
ptlist-eye-attrib $-1 $403 $-1 $314 #
vertex $-1 $314 $404 #
vertex $-1 $314 $405 #
ellipse-curve $-1 22 11.999999999999989 45.000000000000107 0 3.3306690738754696e-016 -1 2 0 0 1 I I #
point $-1 24 9.2400000000000091 76.050000000000182 #
point $-1 23.99967143090948 48.974367399207452 28 #
id_attribute-st-attrib $-1 $-1 $328 $233 80 #
render-rbase-attrib $-1 $406 $329 $286 $127 $-1 0 0 #
fmesh-eye-attrib $-1 $407 $-1 $330 #
face $408 $409 $410 $170 $-1 $411 forward single #
loop $-1 $-1 $412 $330 #
cone-surface $-1 0 55.899999999999999 45 0 0 -1 0 -50.899999999999999 0 1 I I 0 1 forward I I I I #
coedge $-1 $413 $414 $415 $416 0 $331 $-1 #
coedge $-1 $417 $333 $414 $418 1 $287 $-1 #
coedge $-1 $333 $417 $419 $420 0 $287 $-1 #
coedge $-1 $421 $415 $333 $377 1 $422 $-1 #
edge $423 $424 $425 $333 $426 forward #
id_attribute-st-attrib $-1 $-1 $335 $235 72 #
render-rbase-attrib $-1 $427 $336 $291 $127 $-1 0 0 #
fmesh-eye-attrib $-1 $428 $-1 $337 #
face $429 $430 $431 $113 $-1 $432 forward single #
loop $-1 $433 $434 $337 #
torus-surface $-1 23.000000000000206 38.999999999999901 110 1 0 -5.4506084945485324e-015 45 2 -5.4506084945485324e-015 0 -1 forward_v I I I I #
loop $-1 $-1 $435 $291 #
coedge $-1 $385 $385 $341 $386 0 $338 $-1 #
edge $436 $437 $437 $385 $438 forward #
ptlist-eye-attrib $-1 $-1 $-1 $342 #
vertex $-1 $342 $439 #
ellipse-curve $-1 22.999999999999961 48.999999999999822 -2.8421709430404007e-014 1.9618178500547434e-044 2.8808606975655436e-015 1 -2 -5.5393639099997237e-017 -8.1691867861608081e-017 1 I I #
id_attribute-st-attrib $-1 $-1 $344 $240 69 #
render-rbase-attrib $-1 $440 $345 $299 $127 $-1 0 0 #
coedge $-1 $392 $392 $393 $441 1 $346 $-1 #
coedge $-1 $393 $393 $392 $441 0 $348 $-1 #
edge $442 $397 $396 $349 $398 forward #
ptlist-eye-attrib $-1 $443 $-1 $352 #
vertex $-1 $352 $444 #
vertex $-1 $352 $445 #
ellipse-curve $-1 -22 11.999999999999989 45.000000000000107 0 3.3306690738754696e-016 -1 2 0 0 1 I I #
point $-1 -20 9.2400000000000091 76.050000000000182 #
id_attribute-st-attrib $-1 $-1 $357 $248 66 #
edge $446 $447 $447 $359 $448 forward #
ptlist-eye-attrib $-1 $449 $-1 $360 #
rgb_color-st-attrib $-1 $-1 $361 $314 0 1 0 #
point $-1 20 12.000000000000028 45.000000000000099 #
point $-1 24 12 45.000000000000114 #
id_attribute-st-attrib $-1 $-1 $368 $286 81 #
render-rbase-attrib $-1 $450 $369 $330 $127 $-1 0 0 #
fmesh-eye-attrib $-1 $451 $-1 $370 #
face $452 $453 $422 $170 $-1 $454 forward single #
loop $-1 $-1 $455 $370 #
cone-surface $-1 -71.594073434354925 31.912668549598845 45 0 0 -1 96.093416296173885 -2.4639337511840069 0 1 I I 0 1 forward I I I I #
coedge $-1 $456 $457 $458 $459 0 $371 $-1 #
coedge $-1 $460 $373 $457 $461 1 $331 $-1 #
coedge $-1 $373 $460 $374 $418 0 $331 $-1 #
coedge $-1 $376 $458 $373 $416 1 $422 $-1 #
edge $462 $425 $463 $373 $464 forward #
coedge $-1 $375 $374 $465 $466 1 $287 $-1 #
edge $467 $468 $425 $414 $469 forward #
coedge $-1 $470 $455 $375 $420 1 $410 $-1 #
edge $471 $472 $424 $375 $473 forward #
coedge $-1 $458 $376 $455 $474 1 $422 $-1 #
loop $-1 $-1 $376 $409 #
ptlist-eye-attrib $-1 $-1 $-1 $377 #
vertex $-1 $420 $475 #
vertex $-1 $418 $476 #
ellipse-curve $-1 0 -1.3999999999999986 40 0 0 1 0 55.399999999999999 0 1 F -0.4281213671276432 F 0.42812136712764376 #
id_attribute-st-attrib $-1 $-1 $379 $291 73 #
render-rbase-attrib $-1 $477 $380 $337 $127 $-1 0 0 #
fmesh-eye-attrib $-1 $478 $-1 $381 #
face $479 $480 $481 $113 $-1 $482 forward single #
loop $-1 $483 $484 $381 #
torus-surface $-1 0 15.847691005761142 71.412818342935537 0 0.51449575542752723 0.85749292571254387 23.000000000000004 2 1 0 0 forward_v I I I I #
loop $-1 $-1 $485 $337 #
coedge $-1 $486 $486 $487 $488 0 $382 $-1 #
coedge $-1 $487 $487 $486 $489 1 $384 $-1 #
ptlist-eye-attrib $-1 $490 $-1 $386 #
vertex $-1 $386 $491 #
ellipse-curve $-1 22.999999999999961 48.999999999999972 54.999999999999972 2.9427267750821158e-044 2.880860697565544e-015 1 -2 -5.5393639099997237e-017 -8.1691867861608081e-017 1 I I #
point $-1 20.999999999999961 48.999999999999822 -2.8421709430404007e-014 #
id_attribute-st-attrib $-1 $-1 $391 $299 70 #
edge $492 $493 $493 $393 $494 forward #
ptlist-eye-attrib $-1 $495 $-1 $394 #
rgb_color-st-attrib $-1 $-1 $395 $352 0 1 0 #
point $-1 -24 12.000000000000028 45.000000000000099 #
point $-1 -20 12 45.000000000000114 #
ptlist-eye-attrib $-1 $496 $-1 $401 #
vertex $-1 $401 $497 #
ellipse-curve $-1 22 8 0 0 0.17638412542871151 0.98432141107300342 2 0 0 1 I I #
rgb_color-st-attrib $-1 $-1 $402 $360 0 1 0 #
id_attribute-st-attrib $-1 $-1 $407 $330 82 #
render-rbase-attrib $-1 $498 $408 $370 $127 $-1 0 0 #
fmesh-eye-attrib $-1 $499 $-1 $409 #
face $500 $-1 $501 $170 $-1 $502 forward single #
plane-surface $-1 23 48.999999999999972 40 0 0 -1 -1 0 0 forward_v I I I I #
coedge $-1 $419 $503 $421 $474 0 $410 $-1 #
coedge $-1 $504 $412 $503 $505 1 $371 $-1 #
coedge $-1 $412 $504 $413 $461 0 $371 $-1 #
coedge $-1 $415 $421 $412 $459 1 $422 $-1 #
edge $506 $463 $507 $412 $508 forward #
coedge $-1 $414 $413 $509 $510 1 $331 $-1 #
edge $511 $512 $463 $457 $513 forward #
ptlist-eye-attrib $-1 $-1 $-1 $416 #
vertex $-1 $461 $514 #
ellipse-curve $-1 71.594073434354925 31.912668549598845 40 0 0 1 -96.093416296173885 -2.4639337511840069 0 1 F -0.20434673881253015 F 0.20434673881253018 #
coedge $-1 $509 $515 $417 $466 0 $501 $-1 #
edge $516 $472 $468 $465 $517 forward #
ptlist-eye-attrib $-1 $-1 $-1 $418 #
vertex $-1 $466 $518 #
straight-curve $-1 -23.000000000000039 48.999999999999986 45 0 0 -1 I I #
coedge $-1 $503 $419 $515 $519 1 $410 $-1 #
ptlist-eye-attrib $-1 $-1 $-1 $420 #
vertex $-1 $519 $520 #
straight-curve $-1 23 48.999999999999972 45 0 0 -1 I I #
edge $521 $507 $424 $455 $522 forward #
point $-1 23 48.999999999999972 40 #
point $-1 -23.000000000000039 48.999999999999986 40 #
id_attribute-st-attrib $-1 $-1 $428 $337 74 #
render-rbase-attrib $-1 $523 $429 $381 $127 $-1 0 0 #
fmesh-eye-attrib $-1 $524 $-1 $430 #
face $525 $526 $527 $113 $-1 $528 forward single #
loop $-1 $529 $530 $430 #
torus-surface $-1 -23 38.999999999999851 110 -1 0 0 45 2 0 0 1 forward_v I I I I #
loop $-1 $-1 $531 $381 #
coedge $-1 $532 $532 $533 $534 0 $431 $-1 #
coedge $-1 $533 $533 $532 $535 1 $433 $-1 #
coedge $-1 $434 $434 $435 $489 0 $382 $-1 #
coedge $-1 $435 $435 $434 $488 1 $384 $-1 #
edge $536 $537 $538 $434 $539 forward #
edge $540 $538 $537 $486 $539 forward #
rgb_color-st-attrib $-1 $-1 $436 $386 0 1 0 #
point $-1 24.999999999999961 48.999999999999979 54.999999999999972 #
ptlist-eye-attrib $-1 $541 $-1 $441 #
vertex $-1 $441 $542 #
ellipse-curve $-1 -22 8 0 0 0.17638412542871151 0.98432141107300342 2 0 0 1 I I #
rgb_color-st-attrib $-1 $-1 $442 $394 0 1 0 #
rgb_color-st-attrib $-1 $-1 $446 $401 0 1 0 #
point $-1 24 8 0 #
id_attribute-st-attrib $-1 $-1 $451 $370 83 #
render-rbase-attrib $-1 $543 $452 $409 $127 $-1 0 0 #
fmesh-eye-attrib $-1 $544 $-1 $453 #
loop $-1 $-1 $515 $453 #
plane-surface $-1 -7.8118067570187574e-015 29.487183699603676 45 0 0 1 1 0 0 forward_v I I I I #
coedge $-1 $455 $470 $456 $505 0 $410 $-1 #
coedge $-1 $457 $456 $545 $546 1 $371 $-1 #
edge $547 $548 $507 $503 $549 forward #
ptlist-eye-attrib $-1 $-1 $-1 $459 #
vertex $-1 $505 $550 #
ellipse-curve $-1 0 55.899999999999999 40 0 0 1 0 -50.899999999999999 0 1 F -0.44695320228126478 F 0.44695320228126456 #
coedge $-1 $545 $465 $460 $510 0 $501 $-1 #
edge $551 $468 $512 $509 $552 forward #
ptlist-eye-attrib $-1 $-1 $-1 $461 #
vertex $-1 $510 $553 #
straight-curve $-1 -21.999999999999972 9.9999999999999041 45 0 0 -1 I I #
point $-1 -21.999999999999972 9.9999999999999041 40 #
coedge $-1 $465 $545 $470 $519 0 $501 $-1 #
ptlist-eye-attrib $-1 $554 $-1 $466 #
ellipse-curve $-1 0 -1.3999999999999986 45 0 0 1 0 55.399999999999999 0 1 F -0.4281213671276432 F 0.42812136712764376 #
point $-1 -23.000000000000039 48.999999999999986 45 #
edge $555 $548 $472 $515 $556 forward #
point $-1 23 48.999999999999972 45 #
ptlist-eye-attrib $-1 $-1 $-1 $474 #
ellipse-curve $-1 -71.594073434354925 31.912668549598845 40 0 0 1 96.093416296173885 -2.4639337511840069 0 1 F -0.20434673881253043 F 0.20434673881253007 #
id_attribute-st-attrib $-1 $-1 $478 $381 75 #
render-rbase-attrib $-1 $557 $479 $430 $127 $-1 0 0 #
fmesh-eye-attrib $-1 $558 $-1 $480 #
face $559 $560 $561 $113 $-1 $562 forward single #
loop $-1 $563 $564 $480 #
torus-surface $-1 -23 39 55 1 0 0 10 2 0 0 -1 forward_v I I I I #
loop $-1 $-1 $565 $430 #
coedge $-1 $530 $530 $531 $566 0 $481 $-1 #
coedge $-1 $531 $531 $530 $566 1 $483 $-1 #
coedge $-1 $484 $484 $485 $535 0 $431 $-1 #
coedge $-1 $485 $485 $484 $534 1 $433 $-1 #
edge $567 $568 $569 $484 $570 forward #
edge $571 $569 $568 $532 $570 forward #
ptlist-eye-attrib $-1 $572 $-1 $488 #
vertex $-1 $489 $573 #
vertex $-1 $489 $574 #
ellipse-curve $-1 22.999999999999961 38.99999999999995 65.000000000000014 8.1577654823246706e-018 -0.99999999999999989 -1.2767564783189322e-015 -2 6.5376336896958987e-017 -5.0874498643178525e-017 1 I I #
ptlist-eye-attrib $-1 $575 $-1 $489 #
rgb_color-st-attrib $-1 $-1 $492 $441 0 1 0 #
point $-1 -20 8 0 #
id_attribute-st-attrib $-1 $-1 $499 $409 84 #
render-rbase-attrib $-1 $576 $500 $453 $127 $-1 0 0 #
coedge $-1 $515 $509 $504 $546 0 $501 $-1 #
edge $577 $512 $548 $545 $578 forward #
ptlist-eye-attrib $-1 $-1 $-1 $505 #
vertex $-1 $519 $579 #
straight-curve $-1 21.999999999999972 9.9999999999998792 45 0 0 -1 I I #
point $-1 21.999999999999972 9.9999999999998792 40 #
ptlist-eye-attrib $-1 $580 $-1 $510 #
ellipse-curve $-1 71.594073434354925 31.912668549598845 45 0 0 1 -96.093416296173885 -2.4639337511840069 0 1 F -0.20434673881253015 F 0.20434673881253018 #
point $-1 -21.999999999999972 9.9999999999999041 45 #
rgb_color-st-attrib $-1 $-1 $516 $466 0 1 0 #
ptlist-eye-attrib $-1 $581 $-1 $519 #
ellipse-curve $-1 -71.594073434354925 31.912668549598845 45 0 0 1 96.093416296173885 -2.4639337511840069 0 1 F -0.20434673881253043 F 0.20434673881253007 #
id_attribute-st-attrib $-1 $-1 $524 $430 76 #
render-rbase-attrib $-1 $582 $525 $480 $127 $-1 0 0 #
fmesh-eye-attrib $-1 $583 $-1 $526 #
face $584 $-1 $585 $113 $-1 $586 reversed single #
loop $-1 $587 $588 $526 #
cone-surface $-1 -23 49 0 0 0 1 2 0 0 1 I I 0 1 forward I I I I #
loop $-1 $-1 $589 $480 #
coedge $-1 $590 $590 $591 $592 0 $527 $-1 #
coedge $-1 $591 $591 $590 $593 1 $529 $-1 #
edge $594 $595 $595 $530 $596 forward #
ptlist-eye-attrib $-1 $597 $-1 $534 #
vertex $-1 $535 $598 #
vertex $-1 $535 $599 #
ellipse-curve $-1 23.000000000000007 15.847691005761202 71.412818342935509 2.8043149349424403e-015 -0.85749292571254421 0.51449575542752668 -2.0000000000000004 -5.4005460096061751e-015 1.7970376737510022e-015 1 I I #
ptlist-eye-attrib $-1 $600 $-1 $535 #
rgb_color-st-attrib $-1 $-1 $536 $488 0 1 0 #
point $-1 20.999999999999964 38.999999999999957 65 #
point $-1 24.999999999999961 38.999999999999957 65 #
rgb_color-st-attrib $-1 $-1 $540 $489 0 1 0 #
id_attribute-st-attrib $-1 $-1 $544 $453 85 #
ptlist-eye-attrib $-1 $601 $-1 $546 #
ellipse-curve $-1 0 55.899999999999999 45 0 0 1 0 -50.899999999999999 0 1 F -0.44695320228126478 F 0.44695320228126456 #
point $-1 21.999999999999972 9.9999999999998792 45 #
rgb_color-st-attrib $-1 $-1 $551 $510 0 1 0 #
rgb_color-st-attrib $-1 $-1 $555 $519 0 1 0 #
id_attribute-st-attrib $-1 $-1 $558 $480 77 #
render-rbase-attrib $-1 $602 $559 $526 $127 $-1 0 0 #
fmesh-eye-attrib $-1 $603 $-1 $560 #
loop $-1 $-1 $604 $560 #
plane-surface $-1 -22.999999999999993 48.999999999999986 0 0 0 1 1 0 0 forward_v I I I I #
loop $-1 $-1 $605 $526 #
coedge $-1 $588 $588 $589 $606 0 $561 $-1 #
coedge $-1 $589 $589 $588 $606 1 $563 $-1 #
coedge $-1 $564 $564 $565 $593 0 $527 $-1 #
coedge $-1 $565 $565 $564 $592 1 $529 $-1 #
edge $607 $608 $609 $564 $610 forward #
edge $611 $609 $608 $590 $610 forward #
ptlist-eye-attrib $-1 $612 $-1 $566 #
vertex $-1 $566 $613 #
ellipse-curve $-1 -23 15.847691005761128 71.412818342935523 0 0.85749292571254376 -0.51449575542752712 2 0 0 1 I I #
rgb_color-st-attrib $-1 $-1 $567 $534 0 1 0 #
point $-1 21.000000000000007 15.847691005761202 71.412818342935523 #
point $-1 22.089777880421785 16.763940734711866 72.939901224519986 #
rgb_color-st-attrib $-1 $-1 $571 $535 0 1 0 #
rgb_color-st-attrib $-1 $-1 $577 $546 0 1 0 #
id_attribute-st-attrib $-1 $-1 $583 $526 78 #
render-rbase-attrib $-1 $614 $584 $560 $127 $-1 0 0 #
coedge $-1 $604 $604 $605 $615 1 $585 $-1 #
coedge $-1 $605 $605 $604 $615 0 $587 $-1 #
edge $616 $617 $617 $588 $618 forward #
ptlist-eye-attrib $-1 $619 $-1 $592 #
vertex $-1 $593 $620 #
vertex $-1 $593 $621 #
ellipse-curve $-1 -23 38.999999999999979 65 0 1 2.8253495463342881e-015 2 0 0 1 I I #
ptlist-eye-attrib $-1 $622 $-1 $593 #
rgb_color-st-attrib $-1 $-1 $594 $566 0 1 0 #
point $-1 -21 15.847691005761131 71.412818342935523 #
id_attribute-st-attrib $-1 $-1 $603 $560 79 #
edge $623 $624 $624 $605 $625 forward #
ptlist-eye-attrib $-1 $626 $-1 $606 #
vertex $-1 $606 $627 #
ellipse-curve $-1 -23 49 55 0 0 -1 2 0 0 1 I I #
rgb_color-st-attrib $-1 $-1 $607 $592 0 1 0 #
point $-1 -21 38.999999999999972 65 #
point $-1 -25 38.999999999999972 65 #
rgb_color-st-attrib $-1 $-1 $611 $593 0 1 0 #
ptlist-eye-attrib $-1 $628 $-1 $615 #
vertex $-1 $615 $629 #
ellipse-curve $-1 -23 49 0 0 0 1 2 0 0 1 I I #
rgb_color-st-attrib $-1 $-1 $616 $606 0 1 0 #
point $-1 -25 49 55 #
rgb_color-st-attrib $-1 $-1 $623 $615 0 1 0 #
point $-1 -21 49 0 #
End-of-ACIS-data 
