105 276 1 0                             
body $-1 $1 $-1 $2 #
lump $-1 $-1 $3 $0 #
transform $-1 1 0 0 0 1 0 0 0 1 0 0 40.0015000000005 1 0 0 0 #
shell $-1 $-1 $-1 $4 $1 #
face $-1 $5 $6 $3 $-1 $7 forward single #
face $-1 $8 $9 $3 $-1 $10 forward single #
loop $-1 $-1 $11 $4 #
plane-surface $-1 90 30 -65.0015000000005 0 0 -1 -0.707106781186547 0.707106781186547 0 0 #
face $-1 $12 $13 $3 $-1 $14 forward single #
loop $-1 $-1 $15 $5 #
plane-surface $-1 -100 -13.8119784648301 -15.0005000000001 1 0 0 0 0 -1 0 #
coedge $-1 $16 $17 $18 $19 1 $6 $-1 #
face $-1 $20 $21 $3 $-1 $22 forward single #
loop $-1 $-1 $23 $8 #
cone-surface $-1 -90 40 -15.0005000000001 0 0 -1 -7.07106781186547 7.07106781186547 0 1 0 -1 0 #
coedge $-1 $24 $25 $26 $27 0 $9 $-1 #
coedge $-1 $28 $11 $29 $30 1 $6 $-1 #
coedge $-1 $11 $31 $32 $33 1 $6 $-1 #
coedge $-1 $34 $35 $11 $19 0 $36 $-1 #
edge $-1 $37 $38 $18 $39 0 #
face $-1 $40 $41 $3 $-1 $42 forward single #
loop $-1 $-1 $43 $12 #
plane-surface $-1 -90 50 -15.0005000000001 0 -1 0 0 0 -1 0 #
coedge $-1 $44 $45 $46 $47 0 $13 $-1 #
coedge $-1 $48 $15 $45 $49 1 $9 $-1 #
coedge $-1 $15 $48 $50 $51 0 $9 $-1 #
coedge $-1 $52 $46 $15 $27 1 $6 $-1 #
edge $-1 $53 $54 $15 $55 0 #
coedge $-1 $56 $16 $57 $58 1 $6 $-1 #
coedge $-1 $59 $60 $16 $30 0 $61 $-1 #
edge $-1 $62 $37 $29 $63 0 #
coedge $-1 $17 $64 $65 $66 1 $6 $-1 #
coedge $-1 $67 $68 $17 $33 0 $69 $-1 #
edge $-1 $38 $70 $32 $71 0 #
coedge $-1 $72 $18 $68 $73 1 $36 $-1 #
coedge $-1 $18 $72 $59 $74 0 $36 $-1 #
loop $-1 $-1 $18 $75 #
vertex $-1 $74 $76 #
vertex $-1 $73 $77 #
straight-curve $-1 100 25 -65.0015000000005 -0 1 0 #
face $-1 $78 $79 $3 $-1 $80 forward single #
loop $-1 $-1 $81 $20 #
cone-surface $-1 40 40 -15.0005000000001 0 0 -1 7.07106781186547 7.07106781186547 0 1 0 -1 0 #
coedge $-1 $82 $83 $84 $85 0 $21 $-1 #
coedge $-1 $86 $23 $83 $87 1 $13 $-1 #
coedge $-1 $23 $86 $24 $49 0 $13 $-1 #
coedge $-1 $26 $84 $23 $47 1 $6 $-1 #
edge $-1 $54 $88 $23 $89 0 #
coedge $-1 $25 $24 $90 $91 1 $9 $-1 #
edge $-1 $92 $54 $45 $93 0 #
coedge $-1 $94 $95 $25 $51 1 $96 $-1 #
edge $-1 $97 $53 $25 $98 0 #
coedge $-1 $99 $26 $95 $100 1 $6 $-1 #
vertex $-1 $51 $101 #
vertex $-1 $49 $102 #
straight-curve $-1 -100 8.09401076758495 -65.0015000000005 -0 1 0 #
coedge $-1 $103 $28 $104 $105 1 $6 $-1 #
coedge $-1 $106 $107 $28 $58 0 $108 $-1 #
edge $-1 $109 $62 $57 $110 0 #
coedge $-1 $111 $29 $35 $74 1 $61 $-1 #
coedge $-1 $29 $111 $106 $112 0 $61 $-1 #
loop $-1 $-1 $29 $113 #
vertex $-1 $112 $114 #
ellipse-curve $-1 90 20 -65.0015000000005 0 0 -1 7.07106781186547 7.07106781186547 0 1 #
coedge $-1 $31 $115 $116 $117 1 $6 $-1 #
coedge $-1 $118 $119 $31 $66 0 $120 $-1 #
edge $-1 $70 $121 $65 $122 0 #
coedge $-1 $123 $32 $119 $124 1 $69 $-1 #
coedge $-1 $32 $123 $34 $73 0 $69 $-1 #
loop $-1 $-1 $32 $125 #
vertex $-1 $124 $126 #
straight-curve $-1 95 50.001 -65.0015000000005 -1 0 0 #
coedge $-1 $35 $34 $127 $128 1 $36 $-1 #
edge $-1 $129 $38 $68 $130 0 #
edge $-1 $131 $37 $35 $132 0 #
face $-1 $125 $36 $3 $-1 $133 forward single #
point $-1 100 20 -65.0015000000005 #
point $-1 100 50.001 -65.0015000000005 #
face $-1 $113 $108 $3 $-1 $134 forward single #
loop $-1 $-1 $104 $40 #
plane-surface $-1 50 40 -15.0005000000001 -1 0 0 0 -0 1 0 #
coedge $-1 $135 $136 $103 $137 0 $41 $-1 #
coedge $-1 $138 $43 $136 $139 1 $21 $-1 #
coedge $-1 $43 $138 $44 $87 0 $21 $-1 #
coedge $-1 $46 $103 $43 $85 1 $6 $-1 #
edge $-1 $88 $140 $43 $141 0 #
coedge $-1 $45 $44 $142 $143 1 $13 $-1 #
edge $-1 $144 $88 $83 $145 0 #
vertex $-1 $87 $146 #
ellipse-curve $-1 -90 40 -65.0015000000005 0 0 -1 -7.07106781186547 7.07106781186547 0 1 #
coedge $-1 $142 $147 $48 $91 0 $148 $-1 #
edge $-1 $97 $92 $90 $149 0 #
vertex $-1 $91 $150 #
straight-curve $-1 -100 40 -15.0005000000001 0 0 -1 #
coedge $-1 $151 $50 $147 $152 1 $96 $-1 #
coedge $-1 $50 $151 $52 $100 0 $96 $-1 #
loop $-1 $-1 $95 $153 #
vertex $-1 $152 $154 #
straight-curve $-1 -100 -13.8119784648301 -15.0005000000001 0 0 -1 #
coedge $-1 $115 $52 $155 $156 1 $6 $-1 #
edge $-1 $157 $53 $95 $158 0 #
point $-1 -100 -13.8119784648301 -65.0015000000005 #
point $-1 -100 40 -65.0015000000005 #
coedge $-1 $84 $56 $81 $137 1 $6 $-1 #
coedge $-1 $159 $160 $56 $105 0 $79 $-1 #
edge $-1 $161 $109 $104 $162 0 #
coedge $-1 $163 $57 $60 $112 1 $108 $-1 #
coedge $-1 $57 $163 $159 $164 0 $108 $-1 #
loop $-1 $-1 $57 $78 #
vertex $-1 $164 $165 #
straight-curve $-1 70 30 -65.0015000000005 1 0 0 #
coedge $-1 $60 $59 $166 $167 1 $61 $-1 #
edge $-1 $168 $62 $60 $169 0 #
face $-1 $75 $61 $3 $-1 $170 forward single #
point $-1 90 30 -65.0015000000005 #
coedge $-1 $64 $99 $171 $172 1 $6 $-1 #
coedge $-1 $173 $174 $64 $117 0 $175 $-1 #
edge $-1 $121 $176 $116 $177 0 #
coedge $-1 $178 $65 $174 $179 1 $120 $-1 #
coedge $-1 $65 $178 $67 $124 0 $120 $-1 #
loop $-1 $-1 $65 $180 #
vertex $-1 $179 $181 #
straight-curve $-1 -100.001 40.0005 -65.0015000000005 -0 -1 -0 #
coedge $-1 $68 $67 $182 $183 1 $69 $-1 #
edge $-1 $184 $70 $119 $185 0 #
face $-1 $180 $69 $3 $-1 $186 forward single #
point $-1 -100.001 50.001 -65.0015000000005 #
coedge $-1 $182 $166 $72 $128 0 $148 $-1 #
edge $-1 $131 $129 $127 $187 0 #
vertex $-1 $128 $188 #
straight-curve $-1 100 50.001 -15.0005000000001 0 0 -1 #
vertex $-1 $167 $189 #
straight-curve $-1 100 20 -15.0005000000001 0 0 -1 #
plane-surface $-1 100 20 -15.0005000000001 1 0 0 0 0 -1 0 #
plane-surface $-1 50 30 -15.0005000000001 0 -1 0 0 0 -1 0 #
coedge $-1 $190 $81 $160 $191 1 $41 $-1 #
coedge $-1 $81 $190 $82 $139 0 $41 $-1 #
edge $-1 $140 $161 $81 $192 0 #
coedge $-1 $83 $82 $193 $194 1 $21 $-1 #
edge $-1 $195 $140 $136 $196 0 #
vertex $-1 $139 $197 #
straight-curve $-1 0 50 -65.0015000000005 1 0 0 #
coedge $-1 $193 $90 $86 $143 0 $148 $-1 #
edge $-1 $92 $144 $142 $198 0 #
vertex $-1 $143 $199 #
straight-curve $-1 -90 50 -15.0005000000001 0 0 -1 #
point $-1 -90 50 -65.0015000000005 #
coedge $-1 $90 $200 $94 $152 0 $148 $-1 #
loop $-1 $-1 $166 $201 #
straight-curve $-1 -100 -0.000249999999994088 -15.0005000000001 0 1 0 #
point $-1 -100 40 -15.0005000000001 #
coedge $-1 $95 $94 $202 $203 0 $96 $-1 #
edge $-1 $204 $97 $147 $205 0 #
face $-1 $201 $96 $3 $-1 $206 forward single #
point $-1 -100 -13.8119784648301 -15.0005000000001 #
coedge $-1 $202 $207 $99 $156 0 $208 $-1 #
edge $-1 $209 $157 $155 $210 0 #
vertex $-1 $203 $211 #
ellipse-curve $-1 -90 -13.8119784648301 -65.0015000000005 0 0 -1 -8.66025403784436 -5.00000000000004 0 1 #
coedge $-1 $212 $104 $107 $164 1 $79 $-1 #
coedge $-1 $104 $212 $135 $191 0 $79 $-1 #
vertex $-1 $191 $213 #
straight-curve $-1 50 35 -65.0015000000005 -0 -1 -0 #
coedge $-1 $107 $106 $214 $215 1 $108 $-1 #
edge $-1 $216 $109 $107 $217 0 #
point $-1 50 30 -65.0015000000005 #
coedge $-1 $127 $214 $111 $167 0 $148 $-1 #
edge $-1 $168 $131 $166 $218 0 #
vertex $-1 $167 $219 #
straight-curve $-1 90 30 -15.0005000000001 0 0 -1 #
cone-surface $-1 90 20 -15.0005000000001 0 0 -1 7.07106781186547 7.07106781186547 0 1 0 -1 0 #
coedge $-1 $220 $221 $115 $172 0 $222 $-1 #
edge $-1 $176 $209 $171 $223 0 #
coedge $-1 $224 $116 $221 $225 1 $175 $-1 #
coedge $-1 $116 $224 $118 $179 0 $175 $-1 #
loop $-1 $-1 $116 $226 #
vertex $-1 $225 $227 #
straight-curve $-1 -5.0005 -50 -65.0015000000005 1 0 0 #
coedge $-1 $119 $118 $228 $229 1 $120 $-1 #
edge $-1 $230 $121 $174 $231 0 #
face $-1 $226 $120 $3 $-1 $232 forward single #
point $-1 -100.001 -50 -65.0015000000005 #
coedge $-1 $228 $127 $123 $183 0 $148 $-1 #
edge $-1 $129 $184 $182 $233 0 #
vertex $-1 $183 $234 #
straight-curve $-1 -100.001 50.001 -15.0005000000001 0 0 -1 #
plane-surface $-1 100 50.001 -15.0005000000001 0 1 0 0 0 1 0 #
straight-curve $-1 100 3.5527136788005e-15 -15.0005000000001 0 1 -0 #
point $-1 100 50.001 -15.0005000000001 #
point $-1 100 20 -15.0005000000001 #
coedge $-1 $136 $135 $235 $236 1 $41 $-1 #
edge $-1 $237 $161 $160 $238 0 #
ellipse-curve $-1 40 40 -65.0015000000005 0 0 -1 7.07106781186547 7.07106781186547 0 1 #
coedge $-1 $235 $142 $138 $194 0 $148 $-1 #
edge $-1 $144 $195 $193 $239 0 #
vertex $-1 $194 $240 #
straight-curve $-1 40 50 -15.0005000000001 0 0 -1 #
point $-1 40 50 -65.0015000000005 #
ellipse-curve $-1 -90 40 -15.0005000000001 -0 -0 -1 -7.07106781186547 7.07106781186547 0 1 #
point $-1 -90 50 -15.0005000000001 #
coedge $-1 $147 $241 $242 $243 0 $148 $-1 #
face $-1 $-1 $148 $3 $-1 $244 forward single #
coedge $-1 $242 $155 $151 $203 1 $208 $-1 #
edge $-1 $204 $157 $151 $245 0 #
vertex $-1 $243 $246 #
ellipse-curve $-1 -90 -13.8119784648301 -15.0005000000001 -0 -0 -1 -8.66025403784436 -5.00000000000004 0 1 #
cone-surface $-1 -90 -13.8119784648301 -15.0005000000001 0 0 -1 -8.66025403784436 -5.00000000000004 0 1 0 -1 0 #
coedge $-1 $155 $242 $220 $247 0 $208 $-1 #
loop $-1 $-1 $155 $248 #
vertex $-1 $247 $249 #
straight-curve $-1 -14.3060796608373 -69.0608891324552 -65.0015000000005 -0.866025403784443 0.499999999999992 0 #
point $-1 -94.9999999999999 -22.4722325026745 -65.0015000000005 #
coedge $-1 $160 $159 $250 $251 1 $79 $-1 #
point $-1 50 40 -65.0015000000005 #
coedge $-1 $166 $250 $163 $215 0 $148 $-1 #
edge $-1 $216 $168 $214 $252 0 #
vertex $-1 $251 $253 #
straight-curve $-1 50 30 -15.0005000000001 0 0 -1 #
ellipse-curve $-1 90 20 -15.0005000000001 -0 -0 -1 7.07106781186547 7.07106781186547 0 1 #
point $-1 90 30 -15.0005000000001 #
coedge $-1 $254 $171 $207 $247 1 $222 $-1 #
coedge $-1 $171 $254 $173 $225 0 $222 $-1 #
loop $-1 $-1 $171 $255 #
ellipse-curve $-1 -44.6410161513767 -40 -65.0015000000005 0 0 -1 -2.58819045102516 -9.6592582628907 0 1 #
coedge $-1 $174 $173 $256 $257 1 $175 $-1 #
edge $-1 $258 $176 $221 $259 0 #
face $-1 $255 $175 $3 $-1 $260 forward single #
point $-1 -44.6410161513767 -50 -65.0015000000005 #
coedge $-1 $256 $182 $178 $229 0 $148 $-1 #
edge $-1 $184 $230 $228 $261 0 #
vertex $-1 $229 $262 #
straight-curve $-1 -100.001 -50 -15.0005000000001 0 0 -1 #
plane-surface $-1 -100.001 50.001 -15.0005000000001 -1 0 0 0 -0 1 0 #
straight-curve $-1 -3.5527136788005e-14 50.001 -15.0005000000001 -1 0 0 #
point $-1 -100.001 50.001 -15.0005000000001 #
coedge $-1 $250 $193 $190 $236 0 $148 $-1 #
edge $-1 $195 $237 $235 $263 0 #
vertex $-1 $236 $264 #
straight-curve $-1 50 40 -15.0005000000001 0 0 -1 #
straight-curve $-1 0.000249999999965667 50 -15.0005000000001 1 0 -0 #
point $-1 40 50 -15.0005000000001 #
coedge $-1 $200 $256 $254 $265 0 $148 $-1 #
coedge $-1 $207 $202 $200 $243 1 $208 $-1 #
edge $-1 $266 $204 $200 $267 0 #
plane-surface $-1 0.000499999999931333 -0.000499999999988177 -15.0005000000001 0 0 1 1 0 0 0 #
straight-curve $-1 -94.9999999999999 -22.4722325026745 -15.0005000000001 0 0 -1 #
point $-1 -94.9999999999999 -22.4722325026745 -15.0005000000001 #
edge $-1 $266 $209 $207 $268 0 #
face $-1 $153 $208 $3 $-1 $269 forward single #
point $-1 -49.6410161513766 -48.6602540378444 -65.0015000000005 #
coedge $-1 $214 $235 $212 $251 0 $148 $-1 #
edge $-1 $237 $216 $250 $270 0 #
straight-curve $-1 50.00025 30 -15.0005000000001 1 0 0 #
point $-1 50 30 -15.0005000000001 #
coedge $-1 $221 $220 $241 $265 1 $222 $-1 #
face $-1 $248 $222 $3 $-1 $271 forward single #
coedge $-1 $241 $228 $224 $257 0 $148 $-1 #
edge $-1 $230 $258 $256 $272 0 #
vertex $-1 $257 $273 #
straight-curve $-1 -44.6410161513767 -50 -15.0005000000001 0 0 -1 #
plane-surface $-1 -100.001 -50 -15.0005000000001 0 -1 0 0 0 -1 0 #
straight-curve $-1 -100.001 3.5527136788005e-15 -15.0005000000001 0 -1 0 #
point $-1 -100.001 -50 -15.0005000000001 #
ellipse-curve $-1 40 40 -15.0005000000001 -0 -0 -1 7.07106781186547 7.07106781186547 0 1 #
point $-1 50 40 -15.0005000000001 #
edge $-1 $258 $266 $241 $274 0 #
vertex $-1 $265 $275 #
straight-curve $-1 -50.4900853035908 -48.170043734253 -15.0005000000002 -0.866025403784443 0.499999999999992 0 #
straight-curve $-1 -49.6410161513766 -48.6602540378444 -15.0005000000001 0 0 -1 #
plane-surface $-1 -49.6410161513766 -48.6602540378444 -15.0005000000001 0.499999999999992 0.866025403784443 0 0 0 1 0 #
straight-curve $-1 50 39.99975 -15.0005000000001 0 -1 0 #
cone-surface $-1 -44.6410161513767 -40 -15.0005000000001 0 0 -1 -2.58819045102516 -9.6592582628907 0 1 0 -1 0 #
straight-curve $-1 -3.5527136788005e-14 -50 -15.0005000000001 1 0 0 #
point $-1 -44.6410161513767 -50 -15.0005000000001 #
ellipse-curve $-1 -44.6410161513767 -40 -15.0005000000001 -0 -0 -1 -2.58819045102516 -9.6592582628907 0 1 #
point $-1 -49.6410161513766 -48.6602540378444 -15.0005000000001 #
