600 0 1 0           
67 GICL ACIS Healer - Source: /gicl/data5/repository/tmp/1p5.sat - 6 0 18 ACIS 6.0.3 Solaris 24 Sun Apr 14 00:16:43 2002 
1 9.999999999999999547e-07 1.000000000000000036e-10 
body $-1 $1 $-1 $-1 #
lump $-1 $-1 $2 $0 #
shell $-1 $-1 $-1 $3 $-1 $1 #
face $-1 $4 $5 $2 $-1 $6 forward single #
face $-1 $7 $8 $2 $-1 $9 forward single #
loop $-1 $-1 $10 $3 #
plane-surface $-1 90 30 25.00100000000035294 0 0 1 -0.7071067811865470176 0.7071067811865470176 0 forward_v I I I I #
face $-1 $11 $12 $2 $-1 $13 forward single #
loop $-1 $-1 $14 $4 #
plane-surface $-1 -94.99999999999990052 -22.47223250267450112 -25.00000000000004974 0.4999999999999921174 0.8660254037844432595 0 0 0 1 forward_v I I I I #
coedge $-1 $15 $16 $17 $18 reversed $5 $-1 #
face $-1 $19 $20 $2 $-1 $21 forward single #
loop $-1 $-1 $22 $7 #
cone-surface $-1 -44.64101615137669654 -40 -25.00000000000004974 0 0 1 -2.588190451025159877 -9.659258262890700664 0 1 I I 0 -1 10.00000000000000533 forward I I I I #
coedge $-1 $23 $24 $25 $26 forward $8 $-1 #
coedge $-1 $27 $10 $28 $29 reversed $5 $-1 #
coedge $-1 $10 $30 $31 $32 reversed $5 $-1 #
coedge $-1 $33 $34 $10 $18 forward $35 $-1 #
edge $-1 $36 0 $37 40 $17 $38 forward 7 unknown #
face $-1 $39 $40 $2 $-1 $41 forward single #
loop $-1 $-1 $42 $11 #
plane-surface $-1 -44.64101615137669654 -50 -25.00000000000004974 0 -1 0 0 0 -1 forward_v I I I I #
coedge $-1 $43 $44 $45 $46 forward $12 $-1 #
coedge $-1 $47 $14 $44 $48 reversed $8 $-1 #
coedge $-1 $14 $47 $49 $50 forward $8 $-1 #
coedge $-1 $51 $45 $14 $26 reversed $5 $-1 #
edge $-1 $52 -66.98929172439252966 $53 -14.61324865405173412 $14 $54 forward 7 unknown #
coedge $-1 $55 $15 $56 $57 reversed $5 $-1 #
coedge $-1 $58 $59 $15 $29 forward $60 $-1 #
edge $-1 $61 -0.785398163397448279 $36 0.785398163397448279 $28 $62 forward 7 unknown #
coedge $-1 $16 $63 $64 $65 reversed $5 $-1 #
coedge $-1 $66 $67 $16 $32 forward $68 $-1 #
edge $-1 $37 0 $69 10 $31 $70 forward 7 unknown #
coedge $-1 $71 $17 $67 $72 reversed $35 $-1 #
coedge $-1 $17 $71 $58 $73 forward $35 $-1 #
loop $-1 $-1 $17 $74 #
vertex $-1 $73 $75 #
vertex $-1 $72 $76 #
straight-curve $-1 90 30 25.00100000000035294 -1 0 0 I I #
face $-1 $77 $78 $2 $-1 $79 forward single #
loop $-1 $-1 $80 $19 #
plane-surface $-1 -100.0010000000000048 -50 -25.00000000000004974 -1 0 0 0 0 1 forward_v I I I I #
coedge $-1 $81 $82 $83 $84 forward $20 $-1 #
coedge $-1 $85 $22 $82 $86 reversed $12 $-1 #
coedge $-1 $22 $85 $23 $48 forward $12 $-1 #
coedge $-1 $25 $83 $22 $46 reversed $5 $-1 #
edge $-1 $53 -0.261799387799145078 $87 0.2617993877991443563 $22 $88 forward 7 unknown #
coedge $-1 $24 $23 $89 $90 forward $8 $-1 #
edge $-1 $91 0 $53 50.00100000000040268 $44 $92 forward 7 unknown #
coedge $-1 $93 $94 $24 $50 reversed $95 $-1 #
edge $-1 $96 0 $52 50.00100000000040268 $24 $97 forward 7 unknown #
coedge $-1 $98 $25 $94 $99 reversed $5 $-1 #
vertex $-1 $50 $100 #
vertex $-1 $48 $101 #
straight-curve $-1 -36.98557158514900323 -55.96687836487019752 25.00100000000035294 0.8660254037844430375 -0.4999999999999920064 0 I I #
coedge $-1 $102 $27 $103 $104 reversed $5 $-1 #
coedge $-1 $105 $106 $27 $57 forward $107 $-1 #
edge $-1 $108 -10.00049999999999528 $61 20.00050000000000239 $56 $109 forward 7 unknown #
coedge $-1 $110 $28 $34 $73 reversed $60 $-1 #
coedge $-1 $28 $110 $105 $111 forward $60 $-1 #
loop $-1 $-1 $28 $112 #
vertex $-1 $111 $113 #
ellipse-curve $-1 90 20 25.00100000000035294 0 0 1 7.071067811865470176 7.071067811865470176 0 1 I I #
coedge $-1 $30 $114 $115 $116 reversed $5 $-1 #
coedge $-1 $117 $118 $30 $65 forward $119 $-1 #
edge $-1 $69 -0.785398163397448279 $120 0.785398163397448279 $64 $121 forward 7 unknown #
coedge $-1 $122 $31 $118 $123 reversed $68 $-1 #
coedge $-1 $31 $122 $33 $72 forward $68 $-1 #
loop $-1 $-1 $31 $124 #
vertex $-1 $123 $125 #
straight-curve $-1 50 30 25.00100000000035294 0 1 0 I I #
coedge $-1 $34 $33 $126 $127 forward $35 $-1 #
edge $-1 $128 0 $37 50.00100000000040268 $67 $129 forward 7 unknown #
edge $-1 $130 0 $36 50.00100000000040268 $34 $131 forward 7 unknown #
face $-1 $124 $35 $2 $-1 $132 forward single #
point $-1 90 30 25.00100000000035294 #
point $-1 50 30 25.00100000000035294 #
face $-1 $112 $107 $2 $-1 $133 forward single #
loop $-1 $-1 $103 $39 #
plane-surface $-1 -100.0010000000000048 50.00099999999999767 -25.00000000000004974 0 1 0 0 0 1 forward_v I I I I #
coedge $-1 $134 $135 $102 $136 forward $40 $-1 #
coedge $-1 $137 $42 $135 $138 reversed $20 $-1 #
coedge $-1 $42 $137 $43 $86 forward $20 $-1 #
coedge $-1 $45 $102 $42 $84 reversed $5 $-1 #
edge $-1 $87 67.32050807568839446 $139 122.6804919243117098 $42 $140 forward 7 unknown #
coedge $-1 $44 $43 $141 $142 forward $12 $-1 #
edge $-1 $143 0 $87 50.00100000000040268 $82 $144 forward 7 unknown #
vertex $-1 $86 $145 #
ellipse-curve $-1 -44.64101615137669654 -40 25.00100000000035294 0 0 1 -2.588190451025159877 -9.659258262890700664 0 1 I I #
coedge $-1 $141 $146 $47 $90 reversed $147 $-1 #
edge $-1 $91 -0.9804206071829206781 $96 51.39562246315787775 $47 $148 forward 7 unknown #
vertex $-1 $142 $149 #
straight-curve $-1 -49.64101615137659707 -48.66025403784440329 -25.00000000000004974 0 0 1 I I #
coedge $-1 $150 $49 $146 $151 forward $95 $-1 #
coedge $-1 $49 $150 $51 $99 forward $95 $-1 #
loop $-1 $-1 $94 $152 #
vertex $-1 $90 $153 #
straight-curve $-1 -94.99999999999990052 -22.47223250267450112 -25.00000000000004974 0 0 1 I I #
coedge $-1 $114 $51 $154 $155 reversed $5 $-1 #
edge $-1 $156 -0.5235987755983035896 $52 0.5235987755983034786 $94 $157 forward 7 unknown #
point $-1 -94.99999999999990052 -22.47223250267450112 25.00100000000035294 #
point $-1 -49.64101615137659707 -48.66025403784440329 25.00100000000035294 #
coedge $-1 $83 $55 $80 $136 reversed $5 $-1 #
coedge $-1 $158 $159 $55 $104 forward $78 $-1 #
edge $-1 $160 -95.00050000000000239 $108 105.0005000000000024 $103 $161 forward 7 unknown #
coedge $-1 $162 $56 $59 $111 reversed $107 $-1 #
coedge $-1 $56 $162 $158 $163 forward $107 $-1 #
loop $-1 $-1 $56 $77 #
vertex $-1 $163 $164 #
straight-curve $-1 100 40.00050000000000239 25.00100000000035294 0 -1 0 I I #
coedge $-1 $59 $58 $165 $166 forward $60 $-1 #
edge $-1 $167 0 $61 50.00100000000040268 $59 $168 forward 7 unknown #
face $-1 $74 $60 $2 $-1 $169 forward single #
point $-1 100 20 25.00100000000035294 #
coedge $-1 $63 $98 $170 $171 reversed $5 $-1 #
coedge $-1 $172 $173 $63 $116 forward $174 $-1 #
edge $-1 $120 25 $175 155 $115 $176 forward 7 unknown #
coedge $-1 $177 $64 $173 $178 reversed $119 $-1 #
coedge $-1 $64 $177 $66 $123 forward $119 $-1 #
loop $-1 $-1 $64 $179 #
vertex $-1 $178 $180 #
ellipse-curve $-1 40 40 25.00100000000035294 0 0 1 7.071067811865470176 7.071067811865470176 0 1 I I #
coedge $-1 $67 $66 $181 $182 forward $68 $-1 #
edge $-1 $183 0 $69 50.00100000000040268 $118 $184 forward 7 unknown #
face $-1 $179 $68 $2 $-1 $185 forward single #
point $-1 50 40 25.00100000000035294 #
coedge $-1 $181 $165 $71 $127 reversed $147 $-1 #
edge $-1 $128 -0.0002500000000011937118 $130 39.99974999999999881 $71 $186 forward 7 unknown #
vertex $-1 $182 $187 #
straight-curve $-1 50 30 -25.00000000000004974 0 0 1 I I #
vertex $-1 $166 $188 #
straight-curve $-1 90 30 -25.00000000000004974 0 0 1 I I #
plane-surface $-1 90 30 -25.00000000000004974 0 -1 0 0 0 -1 forward_v I I I I #
plane-surface $-1 100 50.00099999999999767 -25.00000000000004974 1 0 0 0 0 -1 forward_v I I I I #
coedge $-1 $189 $80 $159 $190 reversed $40 $-1 #
coedge $-1 $80 $189 $81 $138 forward $40 $-1 #
edge $-1 $139 -40 $160 60.00099999999999767 $80 $191 forward 7 unknown #
coedge $-1 $82 $81 $192 $193 forward $20 $-1 #
edge $-1 $194 0 $139 50.00100000000040268 $135 $195 forward 7 unknown #
vertex $-1 $138 $196 #
straight-curve $-1 22.67949192431170147 -50 25.00100000000035294 -1 0 0 I I #
coedge $-1 $192 $89 $85 $142 reversed $147 $-1 #
edge $-1 $143 -0.2617993877991443563 $91 0.261799387799145078 $85 $197 forward 7 unknown #
vertex $-1 $193 $198 #
straight-curve $-1 -44.64101615137669654 -50 -25.00000000000004974 0 0 1 I I #
point $-1 -44.64101615137669654 -50 25.00100000000035294 #
coedge $-1 $89 $199 $93 $151 reversed $147 $-1 #
loop $-1 $-1 $165 $200 #
straight-curve $-1 -50.49008530359080282 -48.17004373425299946 -25.00000000000014921 -0.8660254037844430375 0.4999999999999920064 0 I I #
point $-1 -49.64101615137659707 -48.66025403784440329 -25.00000000000004974 #
coedge $-1 $94 $93 $201 $202 forward $95 $-1 #
edge $-1 $96 -0.5235987755983034786 $203 0.5235987755983035896 $93 $204 forward 7 unknown #
face $-1 $200 $95 $2 $-1 $205 forward single #
point $-1 -94.99999999999990052 -22.47223250267450112 -25.00000000000004974 #
coedge $-1 $201 $206 $98 $155 forward $207 $-1 #
edge $-1 $208 -5 $156 48.81197846483009783 $154 $209 forward 7 unknown #
vertex $-1 $202 $210 #
ellipse-curve $-1 -90 -13.81197846483009961 25.00100000000035294 0 0 1 -8.660254037844360653 -5.000000000000039968 0 1 I I #
coedge $-1 $211 $103 $106 $163 reversed $78 $-1 #
coedge $-1 $103 $211 $134 $190 forward $78 $-1 #
vertex $-1 $190 $212 #
straight-curve $-1 -5.000499999999999723 50.00099999999999767 25.00100000000035294 1 0 0 I I #
coedge $-1 $106 $105 $213 $214 forward $107 $-1 #
edge $-1 $215 0 $108 50.00100000000040268 $106 $216 forward 7 unknown #
point $-1 100 50.00099999999999767 25.00100000000035294 #
coedge $-1 $126 $213 $110 $166 reversed $147 $-1 #
edge $-1 $130 -0.785398163397448279 $167 0.785398163397448279 $110 $217 forward 7 unknown #
vertex $-1 $166 $218 #
straight-curve $-1 100 20 -25.00000000000004974 0 0 1 I I #
cone-surface $-1 90 20 -25.00000000000004974 0 0 1 7.071067811865470176 7.071067811865470176 0 1 I I 0 -1 9.999999999999992895 forward I I I I #
coedge $-1 $219 $220 $114 $171 forward $221 $-1 #
edge $-1 $175 -0.785398163397448279 $208 0.785398163397448279 $170 $222 forward 7 unknown #
coedge $-1 $223 $115 $220 $224 reversed $174 $-1 #
coedge $-1 $115 $223 $117 $178 forward $174 $-1 #
loop $-1 $-1 $115 $225 #
vertex $-1 $224 $226 #
straight-curve $-1 65 50 25.00100000000035294 -1 0 0 I I #
coedge $-1 $118 $117 $227 $228 forward $119 $-1 #
edge $-1 $229 0 $120 50.00100000000040268 $173 $230 forward 7 unknown #
face $-1 $225 $119 $2 $-1 $231 forward single #
point $-1 40 50 25.00100000000035294 #
coedge $-1 $227 $126 $122 $182 reversed $147 $-1 #
edge $-1 $183 -0.0002500000000011937118 $128 9.999749999999998806 $122 $232 forward 7 unknown #
vertex $-1 $228 $233 #
straight-curve $-1 50 40 -25.00000000000004974 0 0 1 I I #
plane-surface $-1 50 30 -25.00000000000004974 -1 0 0 0 0 1 forward_v I I I I #
straight-curve $-1 50.00025000000000119 30 -25.00000000000004974 1 0 0 I I #
point $-1 50 30 -25.00000000000004974 #
point $-1 90 30 -25.00000000000004974 #
coedge $-1 $135 $134 $234 $235 forward $40 $-1 #
edge $-1 $236 0 $160 50.00100000000040268 $159 $237 forward 7 unknown #
straight-curve $-1 -100.0010000000000048 -10 25.00100000000035294 0 1 0 I I #
coedge $-1 $234 $141 $137 $193 reversed $147 $-1 #
edge $-1 $194 -100.0009999999999764 $143 -44.64101615137666101 $137 $238 forward 7 unknown #
vertex $-1 $235 $239 #
straight-curve $-1 -100.0010000000000048 -50 -25.00000000000004974 0 0 1 I I #
point $-1 -100.0010000000000048 -50 25.00100000000035294 #
ellipse-curve $-1 -44.64101615137669654 -40 -25.00000000000004974 -0 -0 -1 -2.588190451025159877 -9.659258262890700664 0 1 I I #
point $-1 -44.64101615137669654 -50 -25.00000000000004974 #
coedge $-1 $146 $240 $241 $242 reversed $147 $-1 #
face $-1 $-1 $147 $2 $-1 $243 reversed single #
coedge $-1 $241 $154 $150 $202 reversed $207 $-1 #
edge $-1 $203 0 $156 50.00100000000040268 $150 $244 forward 7 unknown #
vertex $-1 $151 $245 #
ellipse-curve $-1 -90 -13.81197846483009961 -25.00000000000004974 -0 -0 -1 -8.660254037844360653 -5.000000000000039968 0 1 I I #
cone-surface $-1 -90 -13.81197846483009961 -25.00000000000004974 0 0 1 -8.660254037844360653 -5.000000000000039968 0 1 I I 0 -1 9.999999999999998224 forward I I I I #
coedge $-1 $154 $241 $219 $246 forward $207 $-1 #
loop $-1 $-1 $154 $247 #
vertex $-1 $246 $248 #
straight-curve $-1 -100 35 25.00100000000035294 0 -1 0 I I #
point $-1 -100 -13.81197846483009961 25.00100000000035294 #
coedge $-1 $159 $158 $249 $250 forward $78 $-1 #
point $-1 -100.0010000000000048 50.00099999999999767 25.00100000000035294 #
coedge $-1 $165 $249 $162 $214 reversed $147 $-1 #
edge $-1 $167 19.99999999999999645 $215 50.00099999999999767 $162 $251 forward 7 unknown #
vertex $-1 $214 $252 #
straight-curve $-1 100 50.00099999999999767 -25.00000000000004974 0 0 1 I I #
ellipse-curve $-1 90 20 -25.00000000000004974 -0 -0 -1 7.071067811865470176 7.071067811865470176 0 1 I I #
point $-1 100 20 -25.00000000000004974 #
coedge $-1 $253 $170 $206 $246 reversed $221 $-1 #
coedge $-1 $170 $253 $172 $224 forward $221 $-1 #
loop $-1 $-1 $170 $254 #
ellipse-curve $-1 -90 40 25.00100000000035294 0 0 1 -7.071067811865470176 7.071067811865470176 0 1 I I #
coedge $-1 $173 $172 $255 $256 forward $174 $-1 #
edge $-1 $257 0 $175 50.00100000000040268 $220 $258 forward 7 unknown #
face $-1 $254 $174 $2 $-1 $259 forward single #
point $-1 -90 50 25.00100000000035294 #
coedge $-1 $255 $181 $177 $228 reversed $147 $-1 #
edge $-1 $229 -0.785398163397448279 $183 0.785398163397448279 $177 $260 forward 7 unknown #
vertex $-1 $256 $261 #
straight-curve $-1 40 50 -25.00000000000004974 0 0 1 I I #
cone-surface $-1 40 40 -25.00000000000004974 0 0 1 7.071067811865470176 7.071067811865470176 0 1 I I 0 -1 9.999999999999992895 forward I I I I #
straight-curve $-1 50 39.99974999999999881 -25.00000000000004974 0 -1 0 I I #
point $-1 50 40 -25.00000000000004974 #
coedge $-1 $249 $192 $189 $235 reversed $147 $-1 #
edge $-1 $236 -50.00099999999999767 $194 50 $189 $262 forward 7 unknown #
vertex $-1 $250 $263 #
straight-curve $-1 -100.0010000000000048 50.00099999999999767 -25.00000000000004974 0 0 1 I I #
straight-curve $-1 -3.552713678800500298e-14 -50 -25.00000000000004974 1 0 0 I I #
point $-1 -100.0010000000000048 -50 -25.00000000000004974 #
coedge $-1 $199 $255 $253 $264 reversed $147 $-1 #
coedge $-1 $206 $201 $199 $242 forward $207 $-1 #
edge $-1 $203 -13.81172846483010552 $265 40.00024999999999409 $241 $266 forward 7 unknown #
plane-surface $-1 0.0004999999999313330416 -0.0004999999999881770026 -25.00000000000004974 0 0 1 1 0 0 forward_v I I I I #
straight-curve $-1 -100 -13.81197846483009961 -25.00000000000004974 0 0 1 I I #
point $-1 -100 -13.81197846483009961 -25.00000000000004974 #
edge $-1 $265 0 $208 50.00100000000040268 $206 $267 forward 7 unknown #
face $-1 $152 $207 $2 $-1 $268 forward single #
point $-1 -100 40 25.00100000000035294 #
coedge $-1 $213 $234 $211 $250 reversed $147 $-1 #
edge $-1 $215 -100.0000000000000284 $236 100.0009999999999764 $211 $269 forward 7 unknown #
straight-curve $-1 100 3.55271367880050014e-15 -25.00000000000004974 0 1 0 I I #
point $-1 100 50.00099999999999767 -25.00000000000004974 #
coedge $-1 $220 $219 $240 $264 forward $221 $-1 #
face $-1 $247 $221 $2 $-1 $270 forward single #
coedge $-1 $240 $227 $223 $256 reversed $147 $-1 #
edge $-1 $257 -90.00024999999996567 $229 39.99975000000003433 $223 $271 forward 7 unknown #
vertex $-1 $264 $272 #
straight-curve $-1 -90 50 -25.00000000000004974 0 0 1 I I #
plane-surface $-1 40 50 -25.00000000000004974 0 -1 0 0 0 -1 forward_v I I I I #
ellipse-curve $-1 40 40 -25.00000000000004974 -0 -0 -1 7.071067811865470176 7.071067811865470176 0 1 I I #
point $-1 40 50 -25.00000000000004974 #
straight-curve $-1 -100.0010000000000048 3.55271367880050014e-15 -25.00000000000004974 0 -1 0 I I #
point $-1 -100.0010000000000048 50.00099999999999767 -25.00000000000004974 #
edge $-1 $265 -0.785398163397448279 $257 0.785398163397448279 $253 $273 forward 7 unknown #
vertex $-1 $242 $274 #
straight-curve $-1 -100 -0.0002499999999940880134 -25.00000000000004974 0 1 0 I I #
straight-curve $-1 -100 40 -25.00000000000004974 0 0 1 I I #
plane-surface $-1 -100 40 -25.00000000000004974 1 0 0 0 0 -1 forward_v I I I I #
straight-curve $-1 -3.552713678800500298e-14 50.00099999999999767 -25.00000000000004974 -1 0 0 I I #
cone-surface $-1 -90 40 -25.00000000000004974 0 0 1 -7.071067811865470176 7.071067811865470176 0 1 I I 0 -1 9.999999999999992895 forward I I I I #
straight-curve $-1 0.0002499999999656670087 50 -25.00000000000004974 1 0 0 I I #
point $-1 -90 50 -25.00000000000004974 #
ellipse-curve $-1 -90 40 -25.00000000000004974 -0 -0 -1 -7.071067811865470176 7.071067811865470176 0 1 I I #
point $-1 -100 40 -25.00000000000004974 #
End-of-ACIS-data 