105 582 1 0                             
body $-1 $1 $-1 $-1 #
lump $-1 $-1 $2 $0 #
shell $-1 $-1 $-1 $3 $1 #
face $-1 $4 $5 $2 $-1 $6 forward single #
face $-1 $7 $8 $2 $-1 $9 forward single #
loop $-1 $-1 $10 $3 #
cone-surface $-1 40 40 -12.4999999999999 0 0 -1 7.07106781186547 7.07106781186547 0 1 0 1 0 #
face $-1 $11 $12 $2 $-1 $13 reversed single #
loop $-1 $-1 $14 $4 #
plane-surface $-1 50 80 0 1 0 0 0 0 -1 0 #
coedge $-1 $15 $16 $17 $18 0 $5 $-1 #
face $-1 $19 $20 $2 $-1 $21 forward single #
loop $-1 $-1 $22 $7 #
cone-surface $-1 0 50 25 -1 0 -3.49148133884313e-15 -8.72870334710783e-14 0 25 1 0 1 0 #
coedge $-1 $23 $24 $25 $26 1 $8 $-1 #
coedge $-1 $25 $10 $22 $27 0 $5 $-1 #
coedge $-1 $10 $25 $28 $29 0 $5 $-1 #
coedge $-1 $30 $31 $10 $18 1 $32 $-1 #
edge $-1 $33 $34 $17 $35 0 #
face $-1 $36 $37 $2 $-1 $38 reversed single #
loop $-1 $-1 $39 $11 #
cone-surface $-1 -90 40 -12.5000000000002 0 0 -1 -7.07106781186547 7.07106781186547 0 1 0 1 0 #
coedge $-1 $40 $41 $15 $27 1 $12 $-1 #
coedge $-1 $42 $14 $41 $43 0 $8 $-1 #
coedge $-1 $14 $42 $44 $45 1 $8 $-1 #
coedge $-1 $16 $15 $14 $26 0 $5 $-1 #
edge $-1 $46 $47 $14 $48 0 #
edge $-1 $34 $46 $22 $49 0 #
coedge $-1 $44 $50 $16 $29 1 $51 $-1 #
edge $-1 $47 $33 $28 $52 0 #
coedge $-1 $53 $17 $50 $54 1 $32 $-1 #
coedge $-1 $17 $53 $40 $55 0 $32 $-1 #
loop $-1 $-1 $17 $56 #
vertex $-1 $54 $57 #
vertex $-1 $55 $58 #
straight-curve $-1 40 50 0 0 0 1 #
face $-1 $59 $51 $2 $-1 $60 reversed single #
loop $-1 $-1 $61 $19 #
plane-surface $-1 -100 0 0 1 0 0 0 0 -1 0 #
coedge $-1 $62 $63 $61 $64 0 $20 $-1 #
coedge $-1 $65 $22 $31 $55 1 $12 $-1 #
coedge $-1 $22 $66 $23 $43 1 $12 $-1 #
coedge $-1 $24 $23 $67 $68 0 $8 $-1 #
edge $-1 $46 $69 $23 $70 0 #
coedge $-1 $71 $28 $24 $45 0 $51 $-1 #
edge $-1 $47 $72 $44 $73 0 #
vertex $-1 $27 $74 #
vertex $-1 $26 $75 #
straight-curve $-1 50 40 0 0 0 -1 #
intcurve-curve $-1 0 { surfintcur nubs 3 open 9 
	32.510431783228 3 34.3958992300115 2 36.281366676795 2 38.1668341235785 2 40.052301570362 2 
	42.0046585124902 2 43.9570154546184 2 45.9093723967465 2 47.8617293388747 3 
	40 50 1.39659253553725e-13 
	40.6284891489278 50 1.41802781870244e-13 
	41.2783831646975 49.9397913386988 -0.000248832573650126 
	42.5708993111032 49.6862888716105 0.00164701221422967 
	43.2135317865487 49.4930481356511 0.00383457716689699 
	44.4456410323769 48.9822616514629 0.0194176319383774 
	45.0361088625297 48.6642992243727 0.0329963165375727 
	46.1274053677151 47.9301561758844 0.0831158440093972 
	46.6281970431368 47.5139385805942 0.119920363643136 
	47.5296500171793 46.6124856065516 0.226264501412551 
	47.9562806420395 46.095009058308 0.300312812728819 
	48.7001971143359 44.9757519250829 0.50346080166076 
	49.0175234712561 44.3740465103801 0.632826195538023 
	49.5200143449044 43.1332627089361 0.95299533308658 
	49.7057699199605 42.492919486549 1.14431552348849 
	49.9457138946979 41.2244968046697 1.58119381012252 
	49.9999999999999 40.5964548980583 1.82680726627058 
	49.9999999999999 40 2.087121525221 
	0.001 
	cone 40 40 -12.4999999999999 0 0 -1 7.07106781186547 7.07106781186547 0 1 0 1 0 
	cone 0 50 25 -1 0 -3.49148133884313e-15 -8.72870334710783e-14 0 25 1 -0 -1 0 
	nullbs 
	nullbs 
	} #
coedge $-1 $28 $76 $30 $54 0 $51 $-1 #
loop $-1 $-1 $28 $36 #
ellipse-curve $-1 40 40 -25 0 0 1 7.07106781186547 7.07106781186547 0 1 #
coedge $-1 $31 $30 $77 $78 1 $32 $-1 #
edge $-1 $79 $33 $30 $80 0 #
edge $-1 $81 $34 $31 $82 0 #
face $-1 $83 $32 $2 $-1 $84 reversed single #
point $-1 40 50 -25 #
point $-1 40 50 1.39659253553725e-13 #
face $-1 $85 $86 $2 $-1 $87 forward single #
plane-surface $-1 0 0 -25 0 0 1 1 0 0 0 #
coedge $-1 $88 $89 $39 $64 1 $37 $-1 #
coedge $-1 $77 $39 $65 $90 0 $20 $-1 #
coedge $-1 $39 $77 $76 $91 0 $20 $-1 #
edge $-1 $92 $93 $61 $94 0 #
coedge $-1 $95 $40 $62 $90 1 $12 $-1 #
coedge $-1 $41 $96 $97 $98 1 $12 $-1 #
coedge $-1 $97 $99 $42 $68 1 $100 $-1 #
edge $-1 $69 $72 $42 $101 0 #
vertex $-1 $43 $102 #
ellipse-curve $-1 49.9999999999999 50 25.0000000000002 -1 -0 -0 -8.72870334710783e-14 0 25 1 #
coedge $-1 $103 $44 $99 $104 0 $51 $-1 #
vertex $-1 $104 $105 #
straight-curve $-1 50 40 -25 0 -1 0 #
point $-1 49.9999999999999 40 2.087121525221 #
point $-1 50 40 -25 #
coedge $-1 $50 $106 $63 $91 1 $51 $-1 #
coedge $-1 $63 $62 $53 $78 0 $20 $-1 #
edge $-1 $81 $79 $53 $107 0 #
vertex $-1 $91 $108 #
straight-curve $-1 0 50 -25 1 0 0 #
vertex $-1 $78 $109 #
straight-curve $-1 8.72870334710783e-14 50 0 1 -0 3.49148133884313e-15 #
face $-1 $110 $111 $2 $-1 $112 forward single #
plane-surface $-1 0 50 0 0 -1 0 0 0 -1 0 #
face $-1 $113 $114 $2 $-1 $115 reversed single #
loop $-1 $-1 $116 $59 #
cone-surface $-1 90 20 -7.49999999999985 0 0 1 7.07106781186547 7.07106781186547 0 1 0 1 0 #
coedge $-1 $117 $61 $106 $118 1 $37 $-1 #
coedge $-1 $61 $119 $95 $120 0 $37 $-1 #
edge $-1 $93 $81 $65 $121 0 #
edge $-1 $79 $92 $76 $122 0 #
vertex $-1 $118 $123 #
vertex $-1 $120 $124 #
straight-curve $-1 -100 40 0 0 0 1 #
coedge $-1 $125 $65 $89 $120 1 $12 $-1 #
coedge $-1 $66 $126 $127 $128 1 $12 $-1 #
coedge $-1 $129 $67 $66 $98 0 $100 $-1 #
edge $-1 $69 $130 $97 $131 0 #
coedge $-1 $67 $129 $71 $104 1 $100 $-1 #
loop $-1 $-1 $129 $132 #
straight-curve $-1 50 30 0 0 0 -1 #
point $-1 50 30 10.0000000000002 #
coedge $-1 $133 $71 $134 $135 1 $51 $-1 #
edge $-1 $72 $136 $71 $137 0 #
point $-1 50 30 -25 #
coedge $-1 $76 $138 $88 $118 0 $51 $-1 #
straight-curve $-1 -90 50 0 0 0 -1 #
point $-1 -90 50 -25 #
point $-1 -90 50 -3.14233320495882e-13 #
face $-1 $139 $140 $2 $-1 $141 forward single #
loop $-1 $142 $143 $83 #
cone-surface $-1 -50 0 0 0 0 1 15 0 0 1 0 1 0 #
face $-1 $144 $145 $2 $-1 $146 forward single #
loop $-1 $-1 $147 $85 #
plane-surface $-1 100 0 0 -1 0 0 0 -0 1 0 #
coedge $-1 $134 $148 $147 $149 0 $86 $-1 #
coedge $-1 $119 $88 $150 $151 1 $37 $-1 #
edge $-1 $152 $92 $88 $153 0 #
coedge $-1 $89 $117 $154 $155 1 $37 $-1 #
edge $-1 $156 $93 $89 $157 0 #
intcurve-curve $-1 0 { surfintcur nubs 3 open 9 
	17.1401744590532 3 19.0925314011814 2 21.0448883433096 2 22.9972452854378 2 24.949602227566 2 
	26.8350696743494 2 28.7205371211329 2 30.6060045679164 2 32.4914720146998 3 
	-100 40 2.0871215252205 
	-100 40.5964548980583 1.82680726627008 
	-99.9457138946979 41.2244968046699 1.58119381012196 
	-99.7057699199604 42.4929194865492 1.14431552348793 
	-99.5200143449044 43.1332627089363 0.952995333086022 
	-99.017523471256 44.3740465103802 0.632826195537476 
	-98.7001971143359 44.975751925083 0.503460801660218 
	-97.9562806420394 46.0950090583081 0.300312812728288 
	-97.5296500171793 46.6124856065517 0.226264501412032 
	-96.6281970431367 47.5139385805943 0.119920363642628 
	-96.127405367715 47.9301561758845 0.0831158440088938 
	-95.0361088625297 48.6642992243727 0.03299631653708 
	-94.4456410323768 48.9822616514629 0.0194176319378932 
	-93.2135317865487 49.4930481356511 0.00383457716642233 
	-92.5708993111032 49.6862888716105 0.00164701221375986 
	-91.2783831646975 49.9397913386988 -0.000248832574111034 
	-90.6284891489278 50 -3.16376848812401e-13 
	-90 50 -3.14233320495882e-13 
	0.001 
	cone -90 40 -12.5000000000002 0 0 -1 -7.07106781186547 7.07106781186547 0 1 0 1 0 
	cone 0 50 25 -1 0 -3.49148133884313e-15 -8.72870334710783e-14 0 25 1 -0 -1 0 
	nullbs 
	nullbs 
	} #
ellipse-curve $-1 -90 40 -25 0 0 1 -7.07106781186547 7.07106781186547 0 1 #
point $-1 -100 40 -25 #
point $-1 -100 40 2.0871215252205 #
coedge $-1 $158 $95 $159 $160 1 $12 $-1 #
coedge $-1 $96 $161 $162 $163 1 $12 $-1 #
coedge $-1 $148 $164 $96 $128 0 $86 $-1 #
edge $-1 $130 $165 $96 $166 0 #
coedge $-1 $99 $97 $164 $167 1 $100 $-1 #
vertex $-1 $98 $168 #
straight-curve $-1 5.13612674927132e-14 30 10 1 -0 3.49148133884313e-15 #
face $-1 $-1 $100 $2 $-1 $169 forward single #
coedge $-1 $170 $103 $171 $172 0 $51 $-1 #
coedge $-1 $164 $116 $103 $135 0 $86 $-1 #
edge $-1 $173 $136 $103 $174 0 #
vertex $-1 $104 $175 #
straight-curve $-1 50 30 -25 1 0 0 #
coedge $-1 $106 $176 $177 $178 1 $51 $-1 #
face $-1 $179 $180 $2 $-1 $181 reversed single #
loop $-1 $-1 $182 $110 #
plane-surface $-1 -50 0 20 0 0 1 1 0 0 0 #
loop $-1 $-1 $183 $83 #
coedge $-1 $143 $143 $182 $184 1 $111 $-1 #
face $-1 $185 $186 $2 $-1 $187 forward single #
loop $-1 $-1 $188 $113 #
plane-surface $-1 0 0 25 0 0 1 1 0 0 0 #
coedge $-1 $189 $171 $116 $149 1 $114 $-1 #
coedge $-1 $116 $127 $188 $190 0 $86 $-1 #
edge $-1 $191 $173 $147 $192 0 #
coedge $-1 $177 $193 $117 $151 0 $186 $-1 #
edge $-1 $194 $152 $117 $195 0 #
vertex $-1 $178 $196 #
straight-curve $-1 -100 0 -25 0 1 0 #
coedge $-1 $197 $159 $119 $155 0 $145 $-1 #
edge $-1 $156 $194 $119 $198 0 #
vertex $-1 $120 $199 #
ellipse-curve $-1 -100 50 24.9999999999997 1 0 0 -8.72870334710783e-14 0 25 1 #
coedge $-1 $200 $125 $201 $202 1 $12 $-1 #
coedge $-1 $154 $203 $125 $160 0 $145 $-1 #
edge $-1 $204 $156 $159 $205 0 #
coedge $-1 $126 $206 $207 $208 1 $12 $-1 #
coedge $-1 $209 $188 $126 $163 0 $145 $-1 #
edge $-1 $165 $210 $162 $205 0 #
coedge $-1 $127 $134 $129 $167 0 $86 $-1 #
vertex $-1 $128 $211 #
intcurve-curve $-1 0 { surfintcur nubs 3 open 13 
	20.7234649342255 3 21.8886337922002 2 23.053802650175 2 24.2189715081497 2 25.3841403661245 2 
	27.2747506465135 2 29.1653609269024 2 31.0559712072914 2 32.9465814876804 2 34.8371917680694 2 
	36.7278020484584 2 38.6184123288474 2 40.5090226092364 3 
	90 30 10.0000000000003 
	90.3883896193249 30 10.0000000000003 
	90.7894619935681 29.9768899349142 10.0306484664169 
	91.5877107089773 29.8813338009156 10.1593230472287 
	91.9848905997524 29.80892072424 10.25735163968 
	92.7491989754416 29.6227131724321 10.515816994126 
	93.1169819014672 29.5088495240526 10.6764936511619 
	93.8033532636453 29.2557171163606 11.0456168298687 
	94.121983806052 29.1165718659468 11.2540697432024 
	94.8760788423836 28.7460889972912 11.8299298944711 
	95.2831332940588 28.5017674754747 12.2298515843964 
	96.0056890747509 28.0076991883961 13.1008656911505 
	96.3208346234263 27.7577990708136 13.5721662059565 
	96.8758547318498 27.2704207193127 14.5751684015842 
	97.1154909587437 27.0330073488844 15.1067510588555 
	97.5316962959033 26.5853591290492 16.2185582656687 
	97.7082375182139 26.3751218013989 16.7987922570599 
	98.0089222896258 25.99301821943 17.9957509946338 
	98.1330288347308 25.8212045244178 18.6123453997596 
	98.3378077444254 25.5239064218325 19.8680291216368 
	98.4184929808347 25.3984205552208 20.5071159937518 
	98.5437294683473 25.197947199084 21.7934605906874 
	98.5882871867868 25.122950411203 22.4407624802335 
	98.6465566962044 25.0239780072358 23.7289302365673 
	98.6602540378444 25 24.369796573204 
	98.6602540378444 25 25.0000000000003 
	0.001 
	cone 90 20 -7.49999999999985 0 0 1 7.07106781186547 7.07106781186547 0 1 0 1 0 
	cone 0 50 25 -1 0 -3.49148133884313e-15 -8.72870334710783e-14 0 25 1 -0 -1 0 
	nullbs 
	nullbs 
	} #
edge $-1 $136 $130 $129 $212 0 #
point $-1 90 30 10.0000000000003 #
plane-surface $-1 100 30 0 0 1 0 0 0 1 0 #
coedge $-1 $213 $133 $214 $215 1 $51 $-1 #
coedge $-1 $147 $216 $133 $172 1 $114 $-1 #
edge $-1 $173 $217 $171 $218 0 #
vertex $-1 $135 $219 #
ellipse-curve $-1 90 20 -25 0 0 1 7.07106781186547 7.07106781186547 0 1 #
point $-1 90 30 -25 #
coedge $-1 $138 $220 $221 $222 0 $51 $-1 #
coedge $-1 $223 $150 $138 $178 0 $186 $-1 #
edge $-1 $152 $224 $138 $225 0 #
face $-1 $226 $227 $2 $-1 $228 reversed single #
loop $-1 $-1 $229 $139 #
plane-surface $-1 -62.5000000000001 -29.6891108675442 10 -0.499999999999992 -0.866025403784443 0 0 0 1 0 #
coedge $-1 $182 $182 $143 $184 0 $140 $-1 #
coedge $-1 $183 $183 $230 $231 1 $142 $-1 #
edge $-1 $232 $232 $182 $233 0 #
face $-1 $234 $235 $2 $-1 $236 forward single #
loop $-1 $-1 $150 $144 #
cone-surface $-1 -90 -13.8119784648301 0 0 0 1 -8.66025403784436 -5.00000000000004 0 1 0 1 0 #
coedge $-1 $162 $237 $148 $190 1 $145 $-1 #
coedge $-1 $216 $147 $237 $238 1 $114 $-1 #
edge $-1 $165 $191 $188 $239 0 #
vertex $-1 $238 $240 #
straight-curve $-1 100 20 0 0 0 -1 #
coedge $-1 $150 $223 $197 $241 0 $186 $-1 #
vertex $-1 $155 $242 #
straight-curve $-1 -100 -13.8119784648301 0 0 0 -1 #
point $-1 -100 -13.8119784648301 -25 #
coedge $-1 $243 $154 $193 $241 1 $145 $-1 #
straight-curve $-1 -100 0 25 0 -1 0 #
point $-1 -100 25 25 #
coedge $-1 $206 $158 $244 $245 0 $12 $-1 #
coedge $-1 $246 $247 $158 $202 0 $248 $-1 #
edge $-1 $249 $204 $201 $250 0 #
coedge $-1 $159 $251 $246 $252 0 $145 $-1 #
vertex $-1 $252 $253 #
straight-curve $-1 0 25 25 -1 0 -3.49148133884313e-15 #
coedge $-1 $161 $200 $254 $255 1 $12 $-1 #
coedge $-1 $256 $257 $161 $208 0 $227 $-1 #
edge $-1 $210 $258 $207 $259 0 #
coedge $-1 $260 $162 $261 $262 1 $145 $-1 #
vertex $-1 $163 $263 #
point $-1 98.6602540378444 25 25.0000000000003 #
straight-curve $-1 90 30 0 0 0 1 #
coedge $-1 $220 $170 $264 $265 0 $51 $-1 #
coedge $-1 $266 $267 $170 $215 0 $268 $-1 #
edge $-1 $269 $217 $170 $270 0 #
coedge $-1 $171 $189 $266 $271 1 $114 $-1 #
vertex $-1 $172 $272 #
straight-curve $-1 100 0 -25 0 -1 0 #
point $-1 100 20 -25 #
coedge $-1 $176 $213 $273 $274 1 $51 $-1 #
coedge $-1 $275 $276 $176 $222 1 $235 $-1 #
edge $-1 $277 $224 $176 $278 0 #
coedge $-1 $193 $177 $276 $279 0 $186 $-1 #
vertex $-1 $222 $280 #
ellipse-curve $-1 -90 -13.8119784648301 -25 0 0 1 -8.66025403784436 -5.00000000000004 0 1 #
face $-1 $132 $281 $2 $-1 $282 forward single #
loop $-1 $-1 $257 $179 #
plane-surface $-1 40 80 10 1 0 0 0 0 -1 0 #
coedge $-1 $283 $284 $285 $286 1 $180 $-1 #
coedge $-1 $230 $230 $183 $231 0 $287 $-1 #
edge $-1 $288 $288 $230 $289 0 #
vertex $-1 $184 $290 #
ellipse-curve $-1 -50 0 20 0 0 1 15 0 0 1 #
face $-1 $291 $292 $2 $-1 $293 forward single #
loop $-1 $-1 $276 $185 #
plane-surface $-1 -67.5000000000001 -38.3493649053887 0 -0.499999999999992 -0.866025403784443 0 0 0 1 0 #
coedge $-1 $188 $294 $189 $238 0 $145 $-1 #
edge $-1 $295 $191 $189 $296 0 #
ellipse-curve $-1 90 20 25 -0 -0 -1 7.07106781186547 7.07106781186547 0 1 #
point $-1 100 20 25 #
edge $-1 $297 $194 $197 $298 0 #
point $-1 -100 -13.8119784648301 25 #
coedge $-1 $299 $197 $300 $301 0 $145 $-1 #
coedge $-1 $302 $303 $200 $245 1 $304 $-1 #
edge $-1 $249 $305 $200 $306 0 #
coedge $-1 $307 $201 $203 $252 1 $248 $-1 #
coedge $-1 $201 $308 $302 $309 1 $248 $-1 #
loop $-1 $-1 $247 $310 #
vertex $-1 $245 $311 #
ellipse-curve $-1 -90.0000000000001 50 24.9999999999997 -1 -0 -0 -8.72870334710783e-14 0 25 1 #
coedge $-1 $203 $312 $313 $314 0 $145 $-1 #
edge $-1 $315 $204 $203 $316 0 #
point $-1 -90 25 25 #
coedge $-1 $317 $318 $206 $255 0 $319 $-1 #
edge $-1 $258 $305 $254 $320 0 #
coedge $-1 $321 $207 $318 $322 0 $227 $-1 #
coedge $-1 $207 $321 $323 $324 1 $227 $-1 #
vertex $-1 $208 $325 #
ellipse-curve $-1 40 50 25.0000000000001 1 0 0 -8.72870334710783e-14 0 25 1 #
coedge $-1 $326 $209 $327 $328 0 $145 $-1 #
coedge $-1 $323 $329 $209 $262 0 $330 $-1 #
edge $-1 $331 $210 $209 $332 0 #
point $-1 40 25 25 #
coedge $-1 $333 $334 $213 $265 1 $335 $-1 #
edge $-1 $269 $336 $264 $337 0 #
coedge $-1 $338 $214 $216 $271 0 $268 $-1 #
coedge $-1 $214 $338 $333 $339 0 $268 $-1 #
loop $-1 $-1 $266 $340 #
vertex $-1 $339 $341 #
ellipse-curve $-1 90 -40 -25 0 0 1 7.07106781186547 -7.07106781186547 0 1 #
edge $-1 $217 $295 $216 $342 0 #
point $-1 100 -40 -25 #
coedge $-1 $343 $344 $220 $274 0 $292 $-1 #
edge $-1 $277 $336 $220 $345 0 #
coedge $-1 $300 $221 $344 $346 1 $235 $-1 #
coedge $-1 $221 $300 $223 $279 1 $235 $-1 #
vertex $-1 $274 $347 #
straight-curve $-1 -50.4903810567662 -48.1698729810776 -25 -0.866025403784443 0.499999999999992 0 #
edge $-1 $224 $297 $276 $348 0 #
point $-1 -94.9999999999999 -22.4722325026745 -25 #
loop $-1 $-1 $349 $226 #
plane-surface $-1 90 0 10 -1 0 0 0 0 1 0 #
coedge $-1 $350 $229 $312 $351 1 $180 $-1 #
coedge $-1 $229 $350 $352 $353 0 $180 $-1 #
coedge $-1 $354 $313 $229 $286 0 $355 $-1 #
edge $-1 $356 $357 $229 $358 0 #
loop $-1 $359 $230 $360 #
vertex $-1 $231 $361 #
ellipse-curve $-1 -50 0 -15 -0 -0 -1 15 0 0 1 #
point $-1 -35 0 20 #
face $-1 $340 $335 $2 $-1 $362 reversed single #
loop $-1 $-1 $343 $234 #
cone-surface $-1 -44.6410161513767 -40 0 0 -0 -1 -2.58819045102516 -9.6592582628907 0 1 0 1 0 #
coedge $-1 $237 $363 $338 $364 1 $145 $-1 #
vertex $-1 $364 $365 #
straight-curve $-1 100 0 25 0 1 0 #
vertex $-1 $279 $366 #
ellipse-curve $-1 -90 -13.8119784648301 25 -0 -0 -1 -8.66025403784436 -5.00000000000004 0 1 #
coedge $-1 $363 $243 $367 $368 1 $145 $-1 #
coedge $-1 $276 $275 $243 $301 1 $235 $-1 #
edge $-1 $297 $369 $243 $370 0 #
coedge $-1 $371 $244 $247 $309 0 $304 $-1 #
coedge $-1 $244 $371 $317 $372 0 $304 $-1 #
loop $-1 $-1 $303 $373 #
vertex $-1 $255 $374 #
intcurve-curve $-1 1 { surfintcur nubs 3 open 9 
	17.3211247100621 3 18.2494484597186 2 19.177772209375 2 20.1060959590315 2 21.034419708688 2 
	22.1541106882564 2 23.2738016678247 2 24.393492647393 2 25.5131836269614 3 
	-85 40 2.0871215252205 
	-85.3094412498855 40 2.0871215252205 
	-85.628608268658 39.9707786055434 2.09980029010447 
	-86.2613203877923 39.8490059986895 2.1535177910886 
	-86.5748695228377 39.7564785277078 2.19456282133745 
	-87.1736848809102 39.5143542224907 2.30486987307994 
	-87.459505485019 39.3645411688016 2.37428697237172 
	-87.9856807022876 39.0229463802541 2.53802839470625 
	-88.2260272924015 38.8311867973273 2.63242470367625 
	-88.6937133997081 38.3882876433699 2.85858952342497 
	-88.9261451081735 38.116171247097 3.00258370656302 
	-89.3257772295857 37.5323487122897 3.32814311615973 
	-89.4930242940559 37.2207107040568 3.5097732456738 
	-89.7552653865742 36.5831213089474 3.90195627057497 
	-89.8505178092039 36.256721214532 4.11284675189599 
	-89.9728590778893 35.6144459437201 4.54989689307893 
	-90.0000000000001 35.2985842612182 4.77606180408603 
	-90.0000000000001 35 4.9999999999997 
	0.001 
	cone -85 35 -6.45643923738976 -0 0 -1 -3.53553390593274 3.53553390593274 0 1 0 -1 0 
	cone 0 50 25 -1 0 -3.49148133884313e-15 -8.72870334710783e-14 0 25 1 -0 -1 0 
	nullbs 
	nullbs 
	} #
coedge $-1 $308 $246 $375 $376 1 $248 $-1 #
coedge $-1 $247 $307 $377 $378 0 $248 $-1 #
edge $-1 $249 $379 $247 $380 0 #
face $-1 $381 $248 $2 $-1 $382 forward single #
point $-1 -90.0000000000001 35 4.9999999999997 #
coedge $-1 $251 $383 $283 $351 0 $145 $-1 #
coedge $-1 $285 $375 $251 $314 1 $355 $-1 #
edge $-1 $356 $315 $251 $384 0 #
vertex $-1 $252 $385 #
straight-curve $-1 -90 0 25 0 1 0 #
coedge $-1 $386 $254 $303 $372 1 $319 $-1 #
coedge $-1 $254 $386 $256 $322 1 $319 $-1 #
loop $-1 $-1 $317 $387 #
straight-curve $-1 7.99998876138721e-14 40 2.0871215252208 -1 0 -3.49148133884313e-15 #
coedge $-1 $257 $256 $388 $389 0 $227 $-1 #
edge $-1 $258 $390 $318 $391 0 #
coedge $-1 $392 $261 $257 $324 0 $330 $-1 #
edge $-1 $210 $393 $257 $394 0 #
point $-1 40 40 2.08712152522094 #
coedge $-1 $395 $260 $396 $397 0 $145 $-1 #
coedge $-1 $398 $399 $260 $328 1 $400 $-1 #
edge $-1 $331 $401 $260 $402 0 #
coedge $-1 $261 $392 $398 $403 0 $330 $-1 #
loop $-1 $-1 $329 $404 #
vertex $-1 $403 $405 #
ellipse-curve $-1 45 25 25 -0 -0 -1 -3.53553390593274 -3.53553390593274 0 1 #
coedge $-1 $406 $264 $267 $339 1 $335 $-1 #
coedge $-1 $264 $406 $343 $407 1 $335 $-1 #
loop $-1 $408 $334 $291 #
vertex $-1 $265 $409 #
straight-curve $-1 0 -50 -25 -1 0 0 #
coedge $-1 $267 $266 $294 $364 0 $268 $-1 #
edge $-1 $410 $269 $333 $411 0 #
face $-1 $412 $268 $2 $-1 $413 forward single #
point $-1 90 -50 -25 #
straight-curve $-1 100 -40 0 0 0 1 #
coedge $-1 $367 $273 $334 $407 0 $292 $-1 #
coedge $-1 $273 $367 $275 $346 0 $292 $-1 #
ellipse-curve $-1 -44.6410161513767 -40 -25 0 0 1 -2.58819045102516 -9.6592582628907 0 1 #
edge $-1 $369 $277 $275 $414 0 #
point $-1 -49.6410161513767 -48.6602540378445 -25 #
straight-curve $-1 -94.9999999999999 -22.4722325026745 0 0 0 1 #
coedge $-1 $415 $416 $417 $418 1 $281 $-1 #
coedge $-1 $284 $283 $419 $420 1 $180 $-1 #
edge $-1 $421 $356 $312 $422 0 #
coedge $-1 $423 $424 $284 $353 1 $359 $-1 #
edge $-1 $425 $357 $352 $426 0 #
coedge $-1 $375 $285 $424 $427 1 $355 $-1 #
loop $-1 $-1 $285 $381 #
vertex $-1 $351 $428 #
vertex $-1 $353 $429 #
straight-curve $-1 -87.5 -15.2553541378041 10 -0 -0 -1 #
loop $-1 $-1 $430 $360 #
face $-1 $310 $287 $2 $-1 $431 forward single #
point $-1 -65 -1.04744440165294e-13 -15 #
plane-surface $-1 0 -50 0 0 1 -0 -0 0 1 0 #
coedge $-1 $294 $299 $406 $432 0 $145 $-1 #
edge $-1 $295 $410 $294 $433 0 #
point $-1 100 -40 25 #
point $-1 -94.9999999999999 -22.4722325026745 25 #
coedge $-1 $344 $343 $299 $368 0 $292 $-1 #
edge $-1 $434 $369 $299 $435 0 #
vertex $-1 $301 $436 #
straight-curve $-1 -50.4903810567662 -48.1698729810776 25 0.866025403784443 -0.499999999999992 0 #
coedge $-1 $303 $302 $430 $437 1 $304 $-1 #
edge $-1 $438 $305 $317 $439 0 #
face $-1 $360 $304 $2 $-1 $440 forward single #
point $-1 -85 40 2.0871215252205 #
coedge $-1 $313 $354 $307 $376 0 $355 $-1 #
edge $-1 $441 $315 $307 $442 0 #
coedge $-1 $424 $430 $308 $378 1 $359 $-1 #
edge $-1 $441 $379 $308 $443 0 #
vertex $-1 $378 $444 #
straight-curve $-1 -90 35 10 0 0 -1 #
face $-1 $445 $355 $2 $-1 $446 forward single #
plane-surface $-1 -90 0 10 1 0 0 0 0 -1 0 #
coedge $-1 $312 $447 $448 $449 0 $145 $-1 #
ellipse-curve $-1 -85 -10.9252271188818 25 -0 -0 -1 -4.33012701892218 -2.50000000000002 0 1 #
point $-1 -90 -10.9252271188818 25 #
coedge $-1 $318 $317 $450 $451 0 $319 $-1 #
face $-1 $56 $319 $2 $-1 $452 forward single #
coedge $-1 $450 $453 $321 $389 1 $359 $-1 #
edge $-1 $390 $393 $388 $454 0 #
vertex $-1 $451 $455 #
straight-curve $-1 40 40 10 0 0 -1 #
coedge $-1 $329 $323 $453 $456 1 $330 $-1 #
vertex $-1 $389 $457 #
straight-curve $-1 40 25 10 0 0 -1 #
coedge $-1 $458 $326 $415 $459 0 $145 $-1 #
coedge $-1 $460 $461 $326 $397 1 $462 $-1 #
edge $-1 $401 $463 $326 $464 0 #
coedge $-1 $465 $327 $329 $403 1 $400 $-1 #
coedge $-1 $327 $465 $460 $466 1 $400 $-1 #
loop $-1 $-1 $399 $467 #
vertex $-1 $328 $468 #
straight-curve $-1 50 20 25 1 0 0 #
edge $-1 $469 $331 $398 $470 0 #
face $-1 $387 $330 $2 $-1 $471 forward single #
point $-1 45 20 25 #
coedge $-1 $334 $333 $363 $432 1 $335 $-1 #
edge $-1 $336 $434 $334 $472 0 #
loop $-1 $-1 $473 $291 #
point $-1 -44.6410161513767 -50 -25 #
vertex $-1 $432 $474 #
straight-curve $-1 90 -50 0 0 0 -1 #
face $-1 $475 $476 $2 $-1 $477 forward single #
cone-surface $-1 90 -40 0 0 0 -1 7.07106781186547 -7.07106781186547 0 1 0 1 0 #
straight-curve $-1 -49.6410161513766 -48.6602540378444 0 0 0 -1 #
coedge $-1 $478 $349 $395 $459 1 $281 $-1 #
coedge $-1 $349 $478 $479 $480 0 $281 $-1 #
coedge $-1 $481 $482 $349 $418 0 $483 $-1 #
edge $-1 $484 $485 $349 $486 0 #
coedge $-1 $448 $487 $350 $420 0 $488 $-1 #
edge $-1 $425 $421 $350 $489 0 #
vertex $-1 $351 $490 #
straight-curve $-1 -45.4903810567663 -39.5096189432331 25 -0.866025403784443 0.499999999999992 0 #
coedge $-1 $491 $352 $487 $492 0 $359 $-1 #
coedge $-1 $352 $377 $354 $427 0 $359 $-1 #
vertex $-1 $492 $493 #
straight-curve $-1 -45.4903810567663 -39.5096189432331 -15 -0.866025403784443 0.499999999999992 0 #
edge $-1 $441 $357 $424 $494 0 #
point $-1 -87.5 -15.2553541378041 25 #
point $-1 -87.5 -15.2553541378041 -15 #
coedge $-1 $377 $450 $371 $437 0 $359 $-1 #
plane-surface $-1 0 0 -15 0 0 1 1 0 0 0 #
edge $-1 $434 $410 $406 $495 0 #
ellipse-curve $-1 90 -40 25 -0 -0 -1 7.07106781186547 -7.07106781186547 0 1 #
vertex $-1 $407 $496 #
ellipse-curve $-1 -44.6410161513767 -40 25 -0 -0 -1 -2.58819045102516 -9.6592582628907 0 1 #
point $-1 -49.6410161513767 -48.6602540378445 25 #
edge $-1 $438 $379 $430 $497 0 #
vertex $-1 $372 $498 #
straight-curve $-1 -85 40 10 0 0 1 #
cone-surface $-1 -85 35 -6.45643923738976 -0 0 -1 -3.53553390593274 3.53553390593274 0 1 0 -1 0 #
vertex $-1 $427 $499 #
straight-curve $-1 -90 -10.9252271188818 10 0 0 1 #
straight-curve $-1 -90 0 -15 0 1 0 #
point $-1 -90 35 -15 #
face $-1 $500 $488 $2 $-1 $501 forward single #
cone-surface $-1 -85 -10.9252271188818 5 0 -0 1 -4.33012701892218 -2.50000000000002 0 1 0 -1 0 #
coedge $-1 $383 $458 $502 $503 0 $145 $-1 #
coedge $-1 $504 $419 $383 $449 1 $488 $-1 #
edge $-1 $505 $421 $383 $506 0 #
coedge $-1 $430 $388 $386 $451 1 $359 $-1 #
edge $-1 $438 $390 $386 $507 0 #
plane-surface $-1 0 40 10 0 -1 0 0 0 -1 0 #
coedge $-1 $388 $508 $392 $456 0 $359 $-1 #
straight-curve $-1 40 40 -15 0 -1 0 #
point $-1 40 40 -15 #
edge $-1 $469 $393 $453 $509 0 #
point $-1 40 25 -15 #
coedge $-1 $447 $395 $482 $510 0 $145 $-1 #
edge $-1 $463 $484 $395 $511 0 #
coedge $-1 $512 $396 $399 $466 0 $462 $-1 #
coedge $-1 $396 $512 $478 $513 0 $462 $-1 #
loop $-1 $-1 $460 $514 #
vertex $-1 $459 $515 #
ellipse-curve $-1 85 15 25 -0 -0 -1 3.53553390593274 3.53553390593274 0 1 #
coedge $-1 $399 $398 $508 $516 0 $400 $-1 #
edge $-1 $401 $517 $399 $518 0 #
face $-1 $404 $400 $2 $-1 $519 reversed single #
point $-1 85 20 25 #
vertex $-1 $456 $520 #
straight-curve $-1 45 20 10 0 0 1 #
cone-surface $-1 45 25 5 -0 -0 -1 -3.53553390593274 -3.53553390593274 0 1 0 1 0 #
straight-curve $-1 -44.6410161513767 -50 0 0 0 1 #
coedge $-1 $473 $473 $521 $522 1 $408 $-1 #
point $-1 90 -50 25 #
face $-1 $373 $523 $2 $-1 $524 reversed single #
loop $-1 $525 $526 $412 #
cone-surface $-1 20 -47.5 4.99999999999998 0 1 -0 12.5 0 2.66453525910038e-15 1 0.707106781186547 -0.707106781186547 0 #
coedge $-1 $416 $415 $461 $513 1 $281 $-1 #
coedge $-1 $527 $528 $416 $480 1 $359 $-1 #
edge $-1 $529 $485 $416 $530 0 #
coedge $-1 $531 $417 $528 $532 1 $483 $-1 #
coedge $-1 $417 $531 $458 $510 1 $483 $-1 #
loop $-1 $-1 $531 $533 #
vertex $-1 $459 $534 #
vertex $-1 $480 $535 #
straight-curve $-1 90 -35 10 0 0 -1 #
coedge $-1 $419 $504 $423 $492 1 $488 $-1 #
loop $-1 $-1 $419 $445 #
straight-curve $-1 -45.801270189221 -39.3301270189222 10 0 0 1 #
point $-1 -45.801270189221 -39.3301270189223 25 #
coedge $-1 $528 $423 $536 $537 1 $359 $-1 #
edge $-1 $425 $538 $423 $539 0 #
point $-1 -45.801270189221 -39.3301270189223 -15 #
ellipse-curve $-1 -85 -10.9252271188818 -15 0 0 1 -4.33012701892218 -2.50000000000002 0 1 #
straight-curve $-1 0 -50 25 1 0 0 #
point $-1 -44.6410161513767 -50 25 #
ellipse-curve $-1 -85 35 -15 0 0 1 -3.53553390593274 3.53553390593274 0 1 #
point $-1 -85 40 -15 #
point $-1 -90 -10.9252271188818 -15 #
face $-1 $533 $540 $2 $-1 $541 forward single #
cone-surface $-1 -43.301270189221 -35 5 -0 -0 -1 -1.29409522551258 -4.82962913144535 0 1 0 -1 0 #
coedge $-1 $542 $543 $447 $503 1 $544 $-1 #
edge $-1 $545 $505 $447 $546 0 #
coedge $-1 $487 $448 $543 $547 0 $488 $-1 #
vertex $-1 $503 $548 #
ellipse-curve $-1 -43.301270189221 -35 25 -0 -0 -1 -1.29409522551258 -4.82962913144535 0 1 #
straight-curve $-1 0 40 -15 1 0 0 #
coedge $-1 $453 $527 $465 $516 1 $359 $-1 #
ellipse-curve $-1 45 25 -15 -0 -0 -1 -3.53553390593274 -3.53553390593274 0 1 #
edge $-1 $484 $545 $458 $549 0 #
straight-curve $-1 90 0 25 0 -1 0 #
coedge $-1 $461 $460 $527 $550 1 $462 $-1 #
edge $-1 $529 $463 $478 $551 0 #
face $-1 $467 $462 $2 $-1 $552 forward single #
point $-1 90 15 25 #
edge $-1 $469 $517 $508 $553 0 #
vertex $-1 $516 $554 #
straight-curve $-1 85 20 10 -0 -0 -1 #
plane-surface $-1 100 20 10 0 1 0 0 0 1 0 #
point $-1 45 20 -15 #
coedge $-1 $521 $521 $473 $522 0 $525 $-1 #
edge $-1 $555 $555 $473 $556 0 #
loop $-1 $557 $558 $475 #
cone-surface $-1 20 -45 5 0 -1 -3.49148133884313e-15 10 0 0 1 0 1 0 #
loop $-1 $-1 $521 $412 #
coedge $-1 $526 $526 $559 $560 0 $476 $-1 #
coedge $-1 $508 $479 $512 $550 0 $359 $-1 #
coedge $-1 $479 $491 $481 $532 0 $359 $-1 #
vertex $-1 $550 $561 #
straight-curve $-1 90 0 -15 0 -1 0 #
coedge $-1 $482 $481 $542 $562 0 $483 $-1 #
edge $-1 $563 $485 $528 $564 0 #
face $-1 $514 $483 $2 $-1 $565 forward single #
point $-1 90 -35 25 #
point $-1 90 -35 -15 #
coedge $-1 $543 $542 $491 $537 0 $544 $-1 #
edge $-1 $563 $538 $536 $566 0 #
vertex $-1 $537 $567 #
ellipse-curve $-1 -43.301270189221 -35 -15 0 0 1 -1.29409522551258 -4.82962913144535 0 1 #
loop $-1 $544 $568 $500 #
plane-surface $-1 0 -40 10 0 1 0 0 0 1 0 #
coedge $-1 $536 $502 $531 $562 1 $544 $-1 #
coedge $-1 $502 $536 $504 $547 1 $544 $-1 #
loop $-1 $-1 $543 $500 #
vertex $-1 $503 $569 #
straight-curve $-1 0 -40 25 -1 0 0 #
edge $-1 $505 $538 $543 $570 0 #
point $-1 -43.301270189221 -40 25 #
ellipse-curve $-1 85 -35 25 -0 -0 -1 3.53553390593274 -3.53553390593274 0 1 #
edge $-1 $529 $517 $527 $571 0 #
straight-curve $-1 90 15 10 0 0 1 #
cone-surface $-1 85 15 5 -0 -0 1 3.53553390593274 3.53553390593274 0 1 0 -1 0 #
straight-curve $-1 50 20 -15 1 0 0 #
point $-1 85 20 -15 #
vertex $-1 $522 $572 #
ellipse-curve $-1 20 -50 4.99999999999998 -0 -1 0 15 0 0 1 #
loop $-1 $-1 $559 $475 #
coedge $-1 $558 $558 $568 $573 1 $523 $-1 #
coedge $-1 $559 $559 $526 $560 1 $557 $-1 #
edge $-1 $574 $574 $559 $575 0 #
point $-1 90 15 -15 #
edge $-1 $563 $545 $542 $576 0 #
vertex $-1 $532 $577 #
ellipse-curve $-1 85 -35 -15 0 0 1 3.53553390593274 -3.53553390593274 0 1 #
cone-surface $-1 85 -35 5 0 -0 -1 3.53553390593274 -3.53553390593274 0 1 0 -1 0 #
straight-curve $-1 0 -40 -15 -1 0 0 #
point $-1 -43.301270189221 -40 -15 #
coedge $-1 $568 $568 $558 $573 0 $540 $-1 #
point $-1 85 -40 25 #
straight-curve $-1 -43.301270189221 -40 10 0 0 -1 #
ellipse-curve $-1 85 15 -15 0 0 1 3.53553390593274 3.53553390593274 0 1 #
point $-1 5 -50 4.99999999999987 #
edge $-1 $578 $578 $568 $579 0 #
vertex $-1 $560 $580 #
ellipse-curve $-1 20 -45 4.99999999999998 0 1 -0 10 0 0 1 #
straight-curve $-1 85 -40 10 0 0 1 #
point $-1 85 -40 -15 #
vertex $-1 $573 $581 #
ellipse-curve $-1 20 -40 5.00000000000002 -0 -1 -0 10 0 0 1 #
point $-1 10 -45 4.99999999999991 #
point $-1 10 -40 5.00000000000009 #
