600 0 1 0           
75 GICL ACIS Healer - Source: /gicl/data5/repository/tmp/acis_thing2.sat - 6 0 18 ACIS 6.0.3 Solaris 24 Sun Apr 14 00:16:47 2002 
1 9.999999999999999547e-07 1.000000000000000036e-10 
body $-1 $1 $-1 $-1 #
lump $-1 $-1 $2 $0 #
shell $-1 $-1 $-1 $3 $-1 $1 #
face $-1 $4 $5 $2 $-1 $6 forward single #
face $-1 $7 $8 $2 $-1 $9 forward single #
loop $-1 $-1 $10 $3 #
cone-surface $-1 40 40 -12.49999999999990052 0 0 -1 7.071067811865470176 7.071067811865470176 0 1 I I 0 1 9.999999999999992895 forward I I I I #
face $-1 $11 $12 $2 $-1 $13 reversed single #
loop $-1 $-1 $14 $4 #
plane-surface $-1 50 80 0 1 0 0 0 0 -1 forward_v I I I I #
coedge $-1 $15 $16 $17 $18 forward $5 $-1 #
face $-1 $19 $20 $2 $-1 $21 forward single #
loop $-1 $-1 $22 $7 #
cone-surface $-1 0 50 25 -1 0 -3.491481338843129805e-15 -8.728703347107829602e-14 0 25 1 I I 0 1 25 forward I I I I #
coedge $-1 $23 $24 $25 $26 reversed $8 $-1 #
coedge $-1 $25 $10 $22 $27 forward $5 $-1 #
coedge $-1 $10 $25 $28 $29 forward $5 $-1 #
coedge $-1 $30 $31 $10 $18 reversed $32 $-1 #
edge $-1 $33 -25 $34 1.39659253553725006e-13 $17 $35 forward 7 unknown #
face $-1 $36 $37 $2 $-1 $38 reversed single #
loop $-1 $-1 $39 $11 #
cone-surface $-1 -90 40 -12.50000000000020073 0 0 -1 -7.071067811865470176 7.071067811865470176 0 1 I I 0 1 9.999999999999992895 forward I I I I #
coedge $-1 $40 $41 $15 $27 reversed $12 $-1 #
coedge $-1 $42 $14 $41 $43 forward $8 $-1 #
coedge $-1 $14 $42 $44 $45 reversed $8 $-1 #
coedge $-1 $16 $15 $14 $26 forward $5 $-1 #
edge $-1 $46 -2.087121525220999807 $47 25 $14 $48 forward 7 unknown #
edge $-1 $34 32.51043178322800031 $46 47.86172933887470293 $22 $49 forward 7 unknown #
coedge $-1 $44 $50 $16 $29 reversed $51 $-1 #
edge $-1 $47 -0.785398163397448279 $33 0.785398163397448279 $28 $52 forward 7 unknown #
coedge $-1 $53 $17 $50 $54 reversed $32 $-1 #
coedge $-1 $17 $53 $40 $55 forward $32 $-1 #
loop $-1 $-1 $17 $56 #
vertex $-1 $54 $57 #
vertex $-1 $55 $58 #
straight-curve $-1 40 50 0 0 0 1 I I #
face $-1 $59 $51 $2 $-1 $60 reversed single #
loop $-1 $-1 $61 $19 #
plane-surface $-1 -100 0 0 1 0 0 0 0 -1 forward_v I I I I #
coedge $-1 $62 $63 $61 $64 forward $20 $-1 #
coedge $-1 $65 $22 $31 $55 reversed $12 $-1 #
coedge $-1 $22 $66 $23 $43 reversed $12 $-1 #
coedge $-1 $24 $23 $67 $68 forward $8 $-1 #
edge $-1 $46 -2.730075807522305276 $69 -2.214297435588180818 $23 $70 forward 7 unknown #
coedge $-1 $71 $28 $24 $45 forward $51 $-1 #
edge $-1 $47 0 $72 10 $44 $73 forward 7 unknown #
vertex $-1 $27 $74 #
vertex $-1 $26 $75 #
straight-curve $-1 50 40 0 0 0 -1 I I #
intcurve-curve $-1 forward { surfintcur full nubs 3 open 9 
	32.51043178322800031 3 34.3958992300115014 2 36.28136667679500249 2 38.16683412357849647 2 40.05230157036199756 2 
	42.00465851249020233 2 43.95701545461839999 2 45.90937239674649817 2 47.86172933887470293 3 
	40 50 1.39659253553725006e-13 
	40.62848914892779817 50 1.418027818702439962e-13 
	41.27838316469750168 49.93979133869879661 -0.0002488325736501259826 
	42.57089931110319725 49.68628887161050045 0.001647012214229670026 
	43.21353178654869964 49.49304813565110095 0.003834577166896990189 
	44.44564103237689778 48.98226165146289901 0.01941763193837740126 
	45.03610886252970147 48.66429922437269795 0.03299631653757269939 
	46.12740536771509881 47.93015617588439881 0.08311584400939719952 
	46.62819704313680091 47.51393858059419983 0.1199203636431360048 
	47.52965001717929994 46.61248560655160134 0.2262645014125510001 
	47.95628064203950203 46.09500905830800122 0.3003128127288189897 
	48.70019711433590004 44.97575192508290343 0.5034608016607600156 
	49.01752347125609788 44.37404651038009717 0.6328261955380229953 
	49.52001434490440346 43.13326270893610115 0.952995333086580021 
	49.70576991996050253 42.49291948654899898 1.144315523488490083 
	49.9457138946979029 41.22449680466969824 1.581193810122520027 
	49.99999999999990052 40.59645489805829754 1.826807266270580099 
	49.99999999999990052 40 2.087121525220999807 
	0.001000000000000000021 
	cone 40 40 -12.49999999999990052 0 0 -1 7.071067811865470176 7.071067811865470176 0 1 I I 0 1 9.999999999999992895 forward I I I I 
	cone 0 50 25 -1 0 -3.491481338843129805e-15 -8.728703347107829602e-14 0 25 1 I I -0 -1 25 forward I I I I 
	nullbs 
	nullbs 
	I I 
	0 
	0 
	0 
	} I I #
coedge $-1 $28 $76 $30 $54 forward $51 $-1 #
loop $-1 $-1 $28 $36 #
ellipse-curve $-1 40 40 -25 0 0 1 7.071067811865470176 7.071067811865470176 0 1 I I #
coedge $-1 $31 $30 $77 $78 reversed $32 $-1 #
edge $-1 $79 -90 $33 40 $30 $80 forward 7 unknown #
edge $-1 $81 -90.00000000000008527 $34 39.99999999999991473 $31 $82 forward 7 unknown #
face $-1 $83 $32 $2 $-1 $84 reversed single #
point $-1 40 50 -25 #
point $-1 40 50 1.39659253553725006e-13 #
face $-1 $85 $86 $2 $-1 $87 forward single #
plane-surface $-1 0 0 -25 0 0 1 1 0 0 forward_v I I I I #
coedge $-1 $88 $89 $39 $64 reversed $37 $-1 #
coedge $-1 $77 $39 $65 $90 forward $20 $-1 #
coedge $-1 $39 $77 $76 $91 forward $20 $-1 #
edge $-1 $92 -25 $93 2.087121525220500207 $61 $94 forward 7 unknown #
coedge $-1 $95 $40 $62 $90 reversed $12 $-1 #
coedge $-1 $41 $96 $97 $98 reversed $12 $-1 #
coedge $-1 $97 $99 $42 $68 reversed $100 $-1 #
edge $-1 $69 -10.00000000000020073 $72 25 $42 $101 forward 7 unknown #
vertex $-1 $43 $102 #
ellipse-curve $-1 49.99999999999990052 50 25.00000000000019895 -1 -0 -0 -8.728703347107829602e-14 0 25 1 I I #
coedge $-1 $103 $44 $99 $104 forward $51 $-1 #
vertex $-1 $104 $105 #
straight-curve $-1 50 40 -25 0 -1 0 I I #
point $-1 49.99999999999990052 40 2.087121525220999807 #
point $-1 50 40 -25 #
coedge $-1 $50 $106 $63 $91 reversed $51 $-1 #
coedge $-1 $63 $62 $53 $78 forward $20 $-1 #
edge $-1 $81 3.142333204958819767e-13 $79 25 $53 $107 forward 7 unknown #
vertex $-1 $91 $108 #
straight-curve $-1 0 50 -25 1 0 0 I I #
vertex $-1 $78 $109 #
straight-curve $-1 8.728703347107829602e-14 50 0 1 -0 3.491481338843129805e-15 I I #
face $-1 $110 $111 $2 $-1 $112 forward single #
plane-surface $-1 0 50 0 0 -1 0 0 0 -1 forward_v I I I I #
face $-1 $113 $114 $2 $-1 $115 reversed single #
loop $-1 $-1 $116 $59 #
cone-surface $-1 90 20 -7.499999999999849898 0 0 1 7.071067811865470176 7.071067811865470176 0 1 I I 0 1 9.999999999999992895 forward I I I I #
coedge $-1 $117 $61 $106 $118 reversed $37 $-1 #
coedge $-1 $61 $119 $95 $120 forward $37 $-1 #
edge $-1 $93 17.14017445905319903 $81 32.49147201469980217 $65 $121 forward 7 unknown #
edge $-1 $79 -0.785398163397448279 $92 0.785398163397448279 $76 $122 forward 7 unknown #
vertex $-1 $118 $123 #
vertex $-1 $120 $124 #
straight-curve $-1 -100 40 0 0 0 1 I I #
coedge $-1 $125 $65 $89 $120 reversed $12 $-1 #
coedge $-1 $66 $126 $127 $128 reversed $12 $-1 #
coedge $-1 $129 $67 $66 $98 forward $100 $-1 #
edge $-1 $69 49.99999999999995026 $130 89.99999999999994316 $97 $131 forward 7 unknown #
coedge $-1 $67 $129 $71 $104 reversed $100 $-1 #
loop $-1 $-1 $129 $132 #
straight-curve $-1 50 30 0 0 0 -1 I I #
point $-1 50 30 10.00000000000020073 #
coedge $-1 $133 $71 $134 $135 reversed $51 $-1 #
edge $-1 $72 0 $136 40 $71 $137 forward 7 unknown #
point $-1 50 30 -25 #
coedge $-1 $76 $138 $88 $118 forward $51 $-1 #
straight-curve $-1 -90 50 0 0 0 -1 I I #
point $-1 -90 50 -25 #
point $-1 -90 50 -3.142333204958819767e-13 #
face $-1 $139 $140 $2 $-1 $141 forward single #
loop $-1 $142 $143 $83 #
cone-surface $-1 -50 0 0 0 0 1 15 0 0 1 I I 0 1 15 forward I I I I #
face $-1 $144 $145 $2 $-1 $146 forward single #
loop $-1 $-1 $147 $85 #
plane-surface $-1 100 0 0 -1 0 0 0 -0 1 forward_v I I I I #
coedge $-1 $134 $148 $147 $149 forward $86 $-1 #
coedge $-1 $119 $88 $150 $151 reversed $37 $-1 #
edge $-1 $152 -13.81197846483009961 $92 40 $88 $153 forward 7 unknown #
coedge $-1 $89 $117 $154 $155 reversed $37 $-1 #
edge $-1 $156 1.57079632679488479 $93 2.730075807522305276 $89 $157 forward 7 unknown #
intcurve-curve $-1 forward { surfintcur full nubs 3 open 9 
	17.14017445905319903 3 19.09253140118140024 2 21.04488834330960145 2 22.99724528543779911 2 24.94960222756600032 2 
	26.83506967434939838 2 28.72053712113289947 2 30.60600456791640056 2 32.49147201469980217 3 
	-100 40 2.087121525220500207 
	-100 40.59645489805829754 1.826807266270080055 
	-99.9457138946979029 41.22449680466989719 1.581193810121960031 
	-99.70576991996040306 42.49291948654919793 1.144315523487930086 
	-99.52001434490439635 43.1332627089363001 0.9529953330860220229 
	-99.0175234712559984 44.37404651038019665 0.6328261955374759884 
	-98.70019711433589293 44.9757519250830029 0.5034608016602180047 
	-97.95628064203940255 46.09500905830810069 0.3003128127282880255 
	-97.52965001717930704 46.61248560655170081 0.2262645014120319986 
	-96.62819704313669433 47.51393858059429931 0.1199203636426279945 
	-96.12740536771499933 47.93015617588449828 0.08311584400889379665 
	-95.03610886252970147 48.66429922437269795 0.03299631653708000323 
	-94.44564103237679831 48.98226165146289901 0.0194176319378931983 
	-93.21353178654869964 49.49304813565110095 0.003834577166422329948 
	-92.57089931110320435 49.68628887161050045 0.001647012213759860072 
	-91.27838316469750168 49.93979133869879661 -0.0002488325741110339871 
	-90.62848914892779817 50 -3.163768488124009922e-13 
	-90 50 -3.142333204958819767e-13 
	0.001000000000000000021 
	cone -90 40 -12.50000000000020073 0 0 -1 -7.071067811865470176 7.071067811865470176 0 1 I I 0 1 9.999999999999992895 forward I I I I 
	cone 0 50 25 -1 0 -3.491481338843129805e-15 -8.728703347107829602e-14 0 25 1 I I -0 -1 25 forward I I I I 
	nullbs 
	nullbs 
	I I 
	0 
	0 
	0 
	} I I #
ellipse-curve $-1 -90 40 -25 0 0 1 -7.071067811865470176 7.071067811865470176 0 1 I I #
point $-1 -100 40 -25 #
point $-1 -100 40 2.087121525220500207 #
coedge $-1 $158 $95 $159 $160 reversed $12 $-1 #
coedge $-1 $96 $161 $162 $163 reversed $12 $-1 #
coedge $-1 $148 $164 $96 $128 forward $86 $-1 #
edge $-1 $130 20.7234649342255004 $165 40.50902260923640341 $96 $166 forward 7 unknown #
coedge $-1 $99 $97 $164 $167 reversed $100 $-1 #
vertex $-1 $98 $168 #
straight-curve $-1 5.136126749271320083e-14 30 10 1 -0 3.491481338843129805e-15 I I #
face $-1 $-1 $100 $2 $-1 $169 forward single #
coedge $-1 $170 $103 $171 $172 forward $51 $-1 #
coedge $-1 $164 $116 $103 $135 forward $86 $-1 #
edge $-1 $173 -0.785398163397448279 $136 0.785398163397448279 $103 $174 forward 7 unknown #
vertex $-1 $104 $175 #
straight-curve $-1 50 30 -25 1 0 0 I I #
coedge $-1 $106 $176 $177 $178 reversed $51 $-1 #
face $-1 $179 $180 $2 $-1 $181 reversed single #
loop $-1 $-1 $182 $110 #
plane-surface $-1 -50 0 20 0 0 1 1 0 0 forward_v I I I I #
loop $-1 $-1 $183 $83 #
coedge $-1 $143 $143 $182 $184 reversed $111 $-1 #
face $-1 $185 $186 $2 $-1 $187 forward single #
loop $-1 $-1 $188 $113 #
plane-surface $-1 0 0 25 0 0 1 1 0 0 forward_v I I I I #
coedge $-1 $189 $171 $116 $149 reversed $114 $-1 #
coedge $-1 $116 $127 $188 $190 forward $86 $-1 #
edge $-1 $191 -25 $173 25 $147 $192 forward 7 unknown #
coedge $-1 $177 $193 $117 $151 forward $186 $-1 #
edge $-1 $194 -25 $152 25 $117 $195 forward 7 unknown #
vertex $-1 $178 $196 #
straight-curve $-1 -100 0 -25 0 1 0 I I #
coedge $-1 $197 $159 $119 $155 forward $145 $-1 #
edge $-1 $156 -25 $194 13.81197846483009961 $119 $198 forward 7 unknown #
vertex $-1 $120 $199 #
ellipse-curve $-1 -100 50 24.99999999999970157 1 0 0 -8.728703347107829602e-14 0 25 1 I I #
coedge $-1 $200 $125 $201 $202 reversed $12 $-1 #
coedge $-1 $154 $203 $125 $160 forward $145 $-1 #
edge $-1 $204 90 $156 100 $159 $205 forward 7 unknown #
coedge $-1 $126 $206 $207 $208 reversed $12 $-1 #
coedge $-1 $209 $188 $126 $163 forward $145 $-1 #
edge $-1 $165 -98.66025403784439618 $210 -40 $162 $205 forward 7 unknown #
coedge $-1 $127 $134 $129 $167 forward $86 $-1 #
vertex $-1 $128 $211 #
intcurve-curve $-1 forward { surfintcur full nubs 3 open 13 
	20.7234649342255004 3 21.88863379220019922 2 23.05380265017500108 2 24.2189715081496999 2 25.38414036612450175 2 
	27.27475064651349967 2 29.16536092690240167 2 31.05597120729139959 2 32.94658148768039752 2 34.83719176806940254 2 
	36.72780204845840046 2 38.61841232884739838 2 40.50902260923640341 3 
	90 30 10.0000000000003002 
	90.38838961932489724 30 10.0000000000003002 
	90.78946199356809643 29.97688993491420106 10.03064846641690089 
	91.58771070897729771 29.88133380091559843 10.15932304722869972 
	91.98489059975240423 29.80892072424000006 10.25735163967999952 
	92.74919897544160108 29.62271317243209978 10.51581699412600024 
	93.11698190146719867 29.50884952405260009 10.67649365116190019 
	93.80335326364530601 29.25571711636060002 11.04561682986870075 
	94.12198380605200043 29.11657186594679914 11.25406974320240039 
	94.87607884238360612 28.74608899729119926 11.82992989447109977 
	95.28313329405879983 28.50176747547470057 12.22985158439639974 
	96.00568907475090441 28.00769918839609929 13.10086569115049926 
	96.32083462342629332 27.75779907081360065 13.57216620595649914 
	96.8758547318497989 27.27042071931269973 14.57516840158420024 
	97.11549095874370607 27.03300734888440005 15.10675105885549918 
	97.53169629590330203 26.5853591290491984 16.21855826566870107 
	97.70823751821390601 26.37512180139890106 16.79879225705990109 
	98.00892228962580077 25.99301821942999879 17.99575099463379857 
	98.13302883473079419 25.82120452441780145 18.61234539975960089 
	98.33780774442540462 25.5239064218324998 19.86802912163679835 
	98.41849298083469932 25.39842055522079889 20.50711599375179972 
	98.54372946834729419 25.19794719908399827 21.79346059068739905 
	98.58828718678680048 25.12295041120299999 22.44076248023349862 
	98.64655669620439937 25.0239780072358009 23.72893023656730094 
	98.66025403784439618 25 24.36979657320399895 
	98.66025403784439618 25 25.00000000000029843 
	0.001000000000000000021 
	cone 90 20 -7.499999999999849898 0 0 1 7.071067811865470176 7.071067811865470176 0 1 I I 0 1 9.999999999999992895 forward I I I I 
	cone 0 50 25 -1 0 -3.491481338843129805e-15 -8.728703347107829602e-14 0 25 1 I I -0 -1 25 forward I I I I 
	nullbs 
	nullbs 
	I I 
	0 
	0 
	0 
	} I I #
edge $-1 $136 -25 $130 10.0000000000003002 $129 $212 forward 7 unknown #
point $-1 90 30 10.0000000000003002 #
plane-surface $-1 100 30 0 0 1 0 0 0 1 forward_v I I I I #
coedge $-1 $213 $133 $214 $215 reversed $51 $-1 #
coedge $-1 $147 $216 $133 $172 reversed $114 $-1 #
edge $-1 $173 -20 $217 40 $171 $218 forward 7 unknown #
vertex $-1 $135 $219 #
ellipse-curve $-1 90 20 -25 0 0 1 7.071067811865470176 7.071067811865470176 0 1 I I #
point $-1 90 30 -25 #
coedge $-1 $138 $220 $221 $222 forward $51 $-1 #
coedge $-1 $223 $150 $138 $178 forward $186 $-1 #
edge $-1 $152 -0.5235987755983035896 $224 0.5235987755983034786 $138 $225 forward 7 unknown #
face $-1 $226 $227 $2 $-1 $228 reversed single #
loop $-1 $-1 $229 $139 #
plane-surface $-1 -62.50000000000009948 -29.68911086754420126 10 -0.4999999999999921174 -0.8660254037844432595 0 0 0 1 forward_v I I I I #
coedge $-1 $182 $182 $143 $184 forward $140 $-1 #
coedge $-1 $183 $183 $230 $231 reversed $142 $-1 #
edge $-1 $232 0 $232 6.283185307179586232 $182 $233 forward 7 unknown #
face $-1 $234 $235 $2 $-1 $236 forward single #
loop $-1 $-1 $150 $144 #
cone-surface $-1 -90 -13.81197846483009961 0 0 0 1 -8.660254037844360653 -5.000000000000039968 0 1 I I 0 1 9.999999999999998224 forward I I I I #
coedge $-1 $162 $237 $148 $190 reversed $145 $-1 #
coedge $-1 $216 $147 $237 $238 reversed $114 $-1 #
edge $-1 $165 0.2617993877991499629 $191 0.785398163397448279 $188 $239 forward 7 unknown #
vertex $-1 $238 $240 #
straight-curve $-1 100 20 0 0 0 -1 I I #
coedge $-1 $150 $223 $197 $241 forward $186 $-1 #
vertex $-1 $155 $242 #
straight-curve $-1 -100 -13.81197846483009961 0 0 0 -1 I I #
point $-1 -100 -13.81197846483009961 -25 #
coedge $-1 $243 $154 $193 $241 reversed $145 $-1 #
straight-curve $-1 -100 0 25 0 -1 0 I I #
point $-1 -100 25 25 #
coedge $-1 $206 $158 $244 $245 forward $12 $-1 #
coedge $-1 $246 $247 $158 $202 forward $248 $-1 #
edge $-1 $249 -2.498091544796508856 $204 -1.57079632679488479 $201 $250 forward 7 unknown #
coedge $-1 $159 $251 $246 $252 forward $145 $-1 #
vertex $-1 $252 $253 #
straight-curve $-1 0 25 25 -1 0 -3.491481338843129805e-15 I I #
coedge $-1 $161 $200 $254 $255 reversed $12 $-1 #
coedge $-1 $256 $257 $161 $208 forward $227 $-1 #
edge $-1 $210 1.570796326794900777 $258 2.730075807522304387 $207 $259 forward 7 unknown #
coedge $-1 $260 $162 $261 $262 reversed $145 $-1 #
vertex $-1 $163 $263 #
point $-1 98.66025403784439618 25 25.00000000000029843 #
straight-curve $-1 90 30 0 0 0 1 I I #
coedge $-1 $220 $170 $264 $265 forward $51 $-1 #
coedge $-1 $266 $267 $170 $215 forward $268 $-1 #
edge $-1 $269 -0.785398163397448279 $217 0.785398163397448279 $170 $270 forward 7 unknown #
coedge $-1 $171 $189 $266 $271 reversed $114 $-1 #
vertex $-1 $172 $272 #
straight-curve $-1 100 0 -25 0 -1 0 I I #
point $-1 100 20 -25 #
coedge $-1 $176 $213 $273 $274 reversed $51 $-1 #
coedge $-1 $275 $276 $176 $222 reversed $235 $-1 #
edge $-1 $277 -0.9807621135337294405 $224 51.39528095680702791 $176 $278 forward 7 unknown #
coedge $-1 $193 $177 $276 $279 forward $186 $-1 #
vertex $-1 $222 $280 #
ellipse-curve $-1 -90 -13.81197846483009961 -25 0 0 1 -8.660254037844360653 -5.000000000000039968 0 1 I I #
face $-1 $132 $281 $2 $-1 $282 forward single #
loop $-1 $-1 $257 $179 #
plane-surface $-1 40 80 10 1 0 0 0 0 -1 forward_v I I I I #
coedge $-1 $283 $284 $285 $286 reversed $180 $-1 #
coedge $-1 $230 $230 $183 $231 forward $287 $-1 #
edge $-1 $288 -3.141592653589799777 $288 3.141592653589786455 $230 $289 forward 7 unknown #
vertex $-1 $184 $290 #
ellipse-curve $-1 -50 0 20 0 0 1 15 0 0 1 I I #
face $-1 $291 $292 $2 $-1 $293 forward single #
loop $-1 $-1 $276 $185 #
plane-surface $-1 -67.50000000000009948 -38.34936490538869691 0 -0.4999999999999921174 -0.8660254037844432595 0 0 0 1 forward_v I I I I #
coedge $-1 $188 $294 $189 $238 forward $145 $-1 #
edge $-1 $295 -40 $191 20 $189 $296 forward 7 unknown #
ellipse-curve $-1 90 20 25 -0 -0 -1 7.071067811865470176 7.071067811865470176 0 1 I I #
point $-1 100 20 25 #
edge $-1 $297 -0.5235987755983034786 $194 0.5235987755983035896 $197 $298 forward 7 unknown #
point $-1 -100 -13.81197846483009961 25 #
coedge $-1 $299 $197 $300 $301 forward $145 $-1 #
coedge $-1 $302 $303 $200 $245 reversed $304 $-1 #
edge $-1 $249 -25.51318362696139985 $305 -17.32112471006210086 $200 $306 forward 7 unknown #
coedge $-1 $307 $201 $203 $252 reversed $248 $-1 #
coedge $-1 $201 $308 $302 $309 reversed $248 $-1 #
loop $-1 $-1 $247 $310 #
vertex $-1 $245 $311 #
ellipse-curve $-1 -90.00000000000009948 50 24.99999999999970157 -1 -0 -0 -8.728703347107829602e-14 0 25 1 I I #
coedge $-1 $203 $312 $313 $314 forward $145 $-1 #
edge $-1 $315 -10.92522711888179998 $204 25 $203 $316 forward 7 unknown #
point $-1 -90 25 25 #
coedge $-1 $317 $318 $206 $255 forward $319 $-1 #
edge $-1 $258 -39.99999999999992184 $305 85.00000000000008527 $254 $320 forward 7 unknown #
coedge $-1 $321 $207 $318 $322 forward $227 $-1 #
coedge $-1 $207 $321 $323 $324 reversed $227 $-1 #
vertex $-1 $208 $325 #
ellipse-curve $-1 40 50 25.00000000000009948 1 0 0 -8.728703347107829602e-14 0 25 1 I I #
coedge $-1 $326 $209 $327 $328 forward $145 $-1 #
coedge $-1 $323 $329 $209 $262 forward $330 $-1 #
edge $-1 $331 -0.785398163397448279 $210 0.785398163397448279 $209 $332 forward 7 unknown #
point $-1 40 25 25 #
coedge $-1 $333 $334 $213 $265 reversed $335 $-1 #
edge $-1 $269 -90 $336 44.64101615137669654 $264 $337 forward 7 unknown #
coedge $-1 $338 $214 $216 $271 forward $268 $-1 #
coedge $-1 $214 $338 $333 $339 forward $268 $-1 #
loop $-1 $-1 $266 $340 #
vertex $-1 $339 $341 #
ellipse-curve $-1 90 -40 -25 0 0 1 7.071067811865470176 -7.071067811865470176 0 1 I I #
edge $-1 $217 -25 $295 25 $216 $342 forward 7 unknown #
point $-1 100 -40 -25 #
coedge $-1 $343 $344 $220 $274 forward $292 $-1 #
edge $-1 $277 -0.2617993877991487417 $336 0.2617993877991443563 $220 $345 forward 7 unknown #
coedge $-1 $300 $221 $344 $346 reversed $235 $-1 #
coedge $-1 $221 $300 $223 $279 reversed $235 $-1 #
vertex $-1 $274 $347 #
straight-curve $-1 -50.49038105676620347 -48.16987298107760296 -25 -0.8660254037844430375 0.4999999999999920064 0 I I #
edge $-1 $224 -25 $297 25 $276 $348 forward 7 unknown #
point $-1 -94.99999999999990052 -22.47223250267450112 -25 #
loop $-1 $-1 $349 $226 #
plane-surface $-1 90 0 10 -1 0 0 0 0 1 forward_v I I I I #
coedge $-1 $350 $229 $312 $351 reversed $180 $-1 #
coedge $-1 $229 $350 $352 $353 forward $180 $-1 #
coedge $-1 $354 $313 $229 $286 forward $355 $-1 #
edge $-1 $356 -15 $357 25 $229 $358 forward 7 unknown #
loop $-1 $359 $230 $360 #
vertex $-1 $231 $361 #
ellipse-curve $-1 -50 0 -15 -0 -0 -1 15 0 0 1 I I #
point $-1 -35 0 20 #
face $-1 $340 $335 $2 $-1 $362 reversed single #
loop $-1 $-1 $343 $234 #
cone-surface $-1 -44.64101615137669654 -40 0 0 -0 -1 -2.588190451025159877 -9.659258262890700664 0 1 I I 0 1 10.00000000000000533 forward I I I I #
coedge $-1 $237 $363 $338 $364 reversed $145 $-1 #
vertex $-1 $364 $365 #
straight-curve $-1 100 0 25 0 1 0 I I #
vertex $-1 $279 $366 #
ellipse-curve $-1 -90 -13.81197846483009961 25 -0 -0 -1 -8.660254037844360653 -5.000000000000039968 0 1 I I #
coedge $-1 $363 $243 $367 $368 reversed $145 $-1 #
coedge $-1 $276 $275 $243 $301 reversed $235 $-1 #
edge $-1 $297 -51.39528095680702791 $369 0.9807621135337294405 $243 $370 forward 7 unknown #
coedge $-1 $371 $244 $247 $309 forward $304 $-1 #
coedge $-1 $244 $371 $317 $372 forward $304 $-1 #
loop $-1 $-1 $303 $373 #
vertex $-1 $255 $374 #
intcurve-curve $-1 reversed { surfintcur full nubs 3 open 9 
	17.32112471006210086 3 18.24944845971860019 2 19.17777220937500005 2 20.10609595903149938 2 21.03441970868799871 2 
	22.15411068825639873 2 23.27380166782469928 2 24.39349264739299983 2 25.51318362696139985 3 
	-85 40 2.087121525220500207 
	-85.30944124988549504 40 2.087121525220500207 
	-85.62860826865799879 39.97077860554340134 2.099800290104469891 
	-86.26132038779229561 39.84900599868949911 2.153517791088599864 
	-86.57486952283770165 39.75647852770779878 2.194562821337449954 
	-87.1736848809102014 39.51435422249070228 2.304869873079939957 
	-87.45950548501899391 39.36454116880160115 2.37428697237172015 
	-87.98568070228759552 39.02294638025409768 2.538028394706250079 
	-88.22602729240149699 38.83118679732729817 2.632424703676250033 
	-88.69371339970810197 38.38828764336989963 2.858589523424969858 
	-88.92614510817350038 38.11617124709700022 3.002583706563020094 
	-89.32577722958569666 37.53234871228970349 3.32814311615973013 
	-89.49302429405589976 37.22071070405679905 3.509773245673800002 
	-89.75526538657419451 36.58312130894739767 3.901956270574970187 
	-89.85051780920389319 36.25672121453199992 4.112846751895990138 
	-89.97285907788929649 35.61444594372009931 4.549896893078930304 
	-90.00000000000009948 35.29858426121820258 4.776061804086030094 
	-90.00000000000009948 35 4.999999999999699796 
	0.001000000000000000021 
	cone -85 35 -6.456439237389759889 -0 0 -1 -3.535533905932739973 3.535533905932739973 0 1 I I 0 -1 5.000000000000003553 forward I I I I 
	cone 0 50 25 -1 0 -3.491481338843129805e-15 -8.728703347107829602e-14 0 25 1 I I -0 -1 25 forward I I I I 
	nullbs 
	nullbs 
	I I 
	0 
	0 
	0 
	} I I #
coedge $-1 $308 $246 $375 $376 reversed $248 $-1 #
coedge $-1 $247 $307 $377 $378 forward $248 $-1 #
edge $-1 $249 5.000000000000300204 $379 25 $247 $380 forward 7 unknown #
face $-1 $381 $248 $2 $-1 $382 forward single #
point $-1 -90.00000000000009948 35 4.999999999999699796 #
coedge $-1 $251 $383 $283 $351 forward $145 $-1 #
coedge $-1 $285 $375 $251 $314 reversed $355 $-1 #
edge $-1 $356 -0.5235987755983048109 $315 0.5235987755983035896 $251 $384 forward 7 unknown #
vertex $-1 $252 $385 #
straight-curve $-1 -90 0 25 0 1 0 I I #
coedge $-1 $386 $254 $303 $372 reversed $319 $-1 #
coedge $-1 $254 $386 $256 $322 reversed $319 $-1 #
loop $-1 $-1 $317 $387 #
straight-curve $-1 7.999988761387209498e-14 40 2.087121525220799967 -1 0 -3.491481338843129805e-15 I I #
coedge $-1 $257 $256 $388 $389 forward $227 $-1 #
edge $-1 $258 7.912878474779059701 $390 25 $318 $391 forward 7 unknown #
coedge $-1 $392 $261 $257 $324 forward $330 $-1 #
edge $-1 $210 -15 $393 25 $257 $394 forward 7 unknown #
point $-1 40 40 2.087121525220939855 #
coedge $-1 $395 $260 $396 $397 forward $145 $-1 #
coedge $-1 $398 $399 $260 $328 reversed $400 $-1 #
edge $-1 $331 -5 $401 35 $260 $402 forward 7 unknown #
coedge $-1 $261 $392 $398 $403 forward $330 $-1 #
loop $-1 $-1 $329 $404 #
vertex $-1 $403 $405 #
ellipse-curve $-1 45 25 25 -0 -0 -1 -3.535533905932739973 -3.535533905932739973 0 1 I I #
coedge $-1 $406 $264 $267 $339 reversed $335 $-1 #
coedge $-1 $264 $406 $343 $407 reversed $335 $-1 #
loop $-1 $408 $334 $291 #
vertex $-1 $265 $409 #
straight-curve $-1 0 -50 -25 -1 0 0 I I #
coedge $-1 $267 $266 $294 $364 forward $268 $-1 #
edge $-1 $410 -25 $269 25 $333 $411 forward 7 unknown #
face $-1 $412 $268 $2 $-1 $413 forward single #
point $-1 90 -50 -25 #
straight-curve $-1 100 -40 0 0 0 1 I I #
coedge $-1 $367 $273 $334 $407 forward $292 $-1 #
coedge $-1 $273 $367 $275 $346 forward $292 $-1 #
ellipse-curve $-1 -44.64101615137669654 -40 -25 0 0 1 -2.588190451025159877 -9.659258262890700664 0 1 I I #
edge $-1 $369 -25 $277 25 $275 $414 forward 7 unknown #
point $-1 -49.64101615137669654 -48.66025403784450276 -25 #
straight-curve $-1 -94.99999999999990052 -22.47223250267450112 0 0 0 1 I I #
coedge $-1 $415 $416 $417 $418 reversed $281 $-1 #
coedge $-1 $284 $283 $419 $420 reversed $180 $-1 #
edge $-1 $421 0.3589838486216744839 $356 48.50852961085887927 $312 $422 forward 7 unknown #
coedge $-1 $423 $424 $284 $353 reversed $359 $-1 #
edge $-1 $425 0.3589838486216744839 $357 48.50852961085887927 $352 $426 forward 7 unknown #
coedge $-1 $375 $285 $424 $427 reversed $355 $-1 #
loop $-1 $-1 $285 $381 #
vertex $-1 $351 $428 #
vertex $-1 $353 $429 #
straight-curve $-1 -87.5 -15.25535413780409932 10 -0 -0 -1 I I #
loop $-1 $-1 $430 $360 #
face $-1 $310 $287 $2 $-1 $431 forward single #
point $-1 -65 -1.047444401652940007e-13 -15 #
plane-surface $-1 0 -50 0 0 1 -0 -0 0 1 forward_v I I I I #
coedge $-1 $294 $299 $406 $432 forward $145 $-1 #
edge $-1 $295 -0.785398163397448279 $410 0.785398163397448279 $294 $433 forward 7 unknown #
point $-1 100 -40 25 #
point $-1 -94.99999999999990052 -22.47223250267450112 25 #
coedge $-1 $344 $343 $299 $368 forward $292 $-1 #
edge $-1 $434 -0.2617993877991443563 $369 0.2617993877991487417 $299 $435 forward 7 unknown #
vertex $-1 $301 $436 #
straight-curve $-1 -50.49038105676620347 -48.16987298107760296 25 0.8660254037844430375 -0.4999999999999920064 0 I I #
coedge $-1 $303 $302 $430 $437 reversed $304 $-1 #
edge $-1 $438 -25 $305 -7.912878474779500237 $317 $439 forward 7 unknown #
face $-1 $360 $304 $2 $-1 $440 forward single #
point $-1 -85 40 2.087121525220500207 #
coedge $-1 $313 $354 $307 $376 forward $355 $-1 #
edge $-1 $441 -25 $315 15 $307 $442 forward 7 unknown #
coedge $-1 $424 $430 $308 $378 reversed $359 $-1 #
edge $-1 $441 -10.92522711888179998 $379 35 $308 $443 forward 7 unknown #
vertex $-1 $378 $444 #
straight-curve $-1 -90 35 10 0 0 -1 I I #
face $-1 $445 $355 $2 $-1 $446 forward single #
plane-surface $-1 -90 0 10 1 0 0 0 0 -1 forward_v I I I I #
coedge $-1 $312 $447 $448 $449 forward $145 $-1 #
ellipse-curve $-1 -85 -10.92522711888179998 25 -0 -0 -1 -4.330127018922180326 -2.500000000000019984 0 1 I I #
point $-1 -90 -10.92522711888179998 25 #
coedge $-1 $318 $317 $450 $451 forward $319 $-1 #
face $-1 $56 $319 $2 $-1 $452 forward single #
coedge $-1 $450 $453 $321 $389 reversed $359 $-1 #
edge $-1 $390 0 $393 15 $388 $454 forward 7 unknown #
vertex $-1 $451 $455 #
straight-curve $-1 40 40 10 0 0 -1 I I #
coedge $-1 $329 $323 $453 $456 reversed $330 $-1 #
vertex $-1 $389 $457 #
straight-curve $-1 40 25 10 0 0 -1 I I #
coedge $-1 $458 $326 $415 $459 forward $145 $-1 #
coedge $-1 $460 $461 $326 $397 reversed $462 $-1 #
edge $-1 $401 -0.785398163397448279 $463 0.785398163397448279 $326 $464 forward 7 unknown #
coedge $-1 $465 $327 $329 $403 reversed $400 $-1 #
coedge $-1 $327 $465 $460 $466 reversed $400 $-1 #
loop $-1 $-1 $399 $467 #
vertex $-1 $328 $468 #
straight-curve $-1 50 20 25 1 0 0 I I #
edge $-1 $469 -25 $331 15 $398 $470 forward 7 unknown #
face $-1 $387 $330 $2 $-1 $471 forward single #
point $-1 45 20 25 #
coedge $-1 $334 $333 $363 $432 reversed $335 $-1 #
edge $-1 $336 -25 $434 25 $334 $472 forward 7 unknown #
loop $-1 $-1 $473 $291 #
point $-1 -44.64101615137669654 -50 -25 #
vertex $-1 $432 $474 #
straight-curve $-1 90 -50 0 0 0 -1 I I #
face $-1 $475 $476 $2 $-1 $477 forward single #
cone-surface $-1 90 -40 0 0 0 -1 7.071067811865470176 -7.071067811865470176 0 1 I I 0 1 9.999999999999992895 forward I I I I #
straight-curve $-1 -49.64101615137659707 -48.66025403784440329 0 0 0 -1 I I #
coedge $-1 $478 $349 $395 $459 reversed $281 $-1 #
coedge $-1 $349 $478 $479 $480 forward $281 $-1 #
coedge $-1 $481 $482 $349 $418 forward $483 $-1 #
edge $-1 $484 -15 $485 25 $349 $486 forward 7 unknown #
coedge $-1 $448 $487 $350 $420 forward $488 $-1 #
edge $-1 $425 -25 $421 15 $350 $489 forward 7 unknown #
vertex $-1 $351 $490 #
straight-curve $-1 -45.49038105676630295 -39.5096189432331002 25 -0.8660254037844430375 0.4999999999999920064 0 I I #
coedge $-1 $491 $352 $487 $492 forward $359 $-1 #
coedge $-1 $352 $377 $354 $427 forward $359 $-1 #
vertex $-1 $492 $493 #
straight-curve $-1 -45.49038105676630295 -39.5096189432331002 -15 -0.8660254037844430375 0.4999999999999920064 0 I I #
edge $-1 $441 -0.5235987755983035896 $357 0.5235987755983048109 $424 $494 forward 7 unknown #
point $-1 -87.5 -15.25535413780409932 25 #
point $-1 -87.5 -15.25535413780409932 -15 #
coedge $-1 $377 $450 $371 $437 forward $359 $-1 #
plane-surface $-1 0 0 -15 0 0 1 1 0 0 forward_v I I I I #
edge $-1 $434 -44.64101615137669654 $410 90 $406 $495 forward 7 unknown #
ellipse-curve $-1 90 -40 25 -0 -0 -1 7.071067811865470176 -7.071067811865470176 0 1 I I #
vertex $-1 $407 $496 #
ellipse-curve $-1 -44.64101615137669654 -40 25 -0 -0 -1 -2.588190451025159877 -9.659258262890700664 0 1 I I #
point $-1 -49.64101615137669654 -48.66025403784450276 25 #
edge $-1 $438 -0.785398163397448279 $379 0.785398163397448279 $430 $497 forward 7 unknown #
vertex $-1 $372 $498 #
straight-curve $-1 -85 40 10 0 0 1 I I #
cone-surface $-1 -85 35 -6.456439237389759889 -0 0 -1 -3.535533905932739973 3.535533905932739973 0 1 I I 0 -1 5.000000000000003553 forward I I I I #
vertex $-1 $427 $499 #
straight-curve $-1 -90 -10.92522711888179998 10 0 0 1 I I #
straight-curve $-1 -90 0 -15 0 1 0 I I #
point $-1 -90 35 -15 #
face $-1 $500 $488 $2 $-1 $501 forward single #
cone-surface $-1 -85 -10.92522711888179998 5 0 -0 1 -4.330127018922180326 -2.500000000000019984 0 1 I I 0 -1 4.999999999999999112 forward I I I I #
coedge $-1 $383 $458 $502 $503 forward $145 $-1 #
coedge $-1 $504 $419 $383 $449 reversed $488 $-1 #
edge $-1 $505 -0.2617993877991443563 $421 0.2617993877991440788 $383 $506 forward 7 unknown #
coedge $-1 $430 $388 $386 $451 reversed $359 $-1 #
edge $-1 $438 -85 $390 40 $386 $507 forward 7 unknown #
plane-surface $-1 0 40 10 0 -1 0 0 0 -1 forward_v I I I I #
coedge $-1 $388 $508 $392 $456 forward $359 $-1 #
straight-curve $-1 40 40 -15 0 -1 0 I I #
point $-1 40 40 -15 #
edge $-1 $469 -0.785398163397448279 $393 0.785398163397448279 $453 $509 forward 7 unknown #
point $-1 40 25 -15 #
coedge $-1 $447 $395 $482 $510 forward $145 $-1 #
edge $-1 $463 -15 $484 35 $395 $511 forward 7 unknown #
coedge $-1 $512 $396 $399 $466 forward $462 $-1 #
coedge $-1 $396 $512 $478 $513 forward $462 $-1 #
loop $-1 $-1 $460 $514 #
vertex $-1 $459 $515 #
ellipse-curve $-1 85 15 25 -0 -0 -1 3.535533905932739973 3.535533905932739973 0 1 I I #
coedge $-1 $399 $398 $508 $516 forward $400 $-1 #
edge $-1 $401 -15 $517 25 $399 $518 forward 7 unknown #
face $-1 $404 $400 $2 $-1 $519 reversed single #
point $-1 85 20 25 #
vertex $-1 $456 $520 #
straight-curve $-1 45 20 10 0 0 1 I I #
cone-surface $-1 45 25 5 -0 -0 -1 -3.535533905932739973 -3.535533905932739973 0 1 I I 0 1 5.000000000000003553 forward I I I I #
straight-curve $-1 -44.64101615137669654 -50 0 0 0 1 I I #
coedge $-1 $473 $473 $521 $522 reversed $408 $-1 #
point $-1 90 -50 25 #
face $-1 $373 $523 $2 $-1 $524 reversed single #
loop $-1 $525 $526 $412 #
cone-surface $-1 20 -47.5 4.999999999999979572 0 1 -0 12.5 0 2.664535259100380036e-15 1 I I 0.7071067811865470176 -0.7071067811865470176 12.5 forward I I I I #
coedge $-1 $416 $415 $461 $513 reversed $281 $-1 #
coedge $-1 $527 $528 $416 $480 reversed $359 $-1 #
edge $-1 $529 -15 $485 35 $416 $530 forward 7 unknown #
coedge $-1 $531 $417 $528 $532 reversed $483 $-1 #
coedge $-1 $417 $531 $458 $510 reversed $483 $-1 #
loop $-1 $-1 $531 $533 #
vertex $-1 $459 $534 #
vertex $-1 $480 $535 #
straight-curve $-1 90 -35 10 0 0 -1 I I #
coedge $-1 $419 $504 $423 $492 reversed $488 $-1 #
loop $-1 $-1 $419 $445 #
straight-curve $-1 -45.80127018922100035 -39.33012701892219809 10 0 0 1 I I #
point $-1 -45.80127018922100035 -39.33012701892229757 25 #
coedge $-1 $528 $423 $536 $537 reversed $359 $-1 #
edge $-1 $425 -0.2617993877991440788 $538 0.2617993877991443563 $423 $539 forward 7 unknown #
point $-1 -45.80127018922100035 -39.33012701892229757 -15 #
ellipse-curve $-1 -85 -10.92522711888179998 -15 0 0 1 -4.330127018922180326 -2.500000000000019984 0 1 I I #
straight-curve $-1 0 -50 25 1 0 0 I I #
point $-1 -44.64101615137669654 -50 25 #
ellipse-curve $-1 -85 35 -15 0 0 1 -3.535533905932739973 3.535533905932739973 0 1 I I #
point $-1 -85 40 -15 #
point $-1 -90 -10.92522711888179998 -15 #
face $-1 $533 $540 $2 $-1 $541 forward single #
cone-surface $-1 -43.30127018922100035 -35 5 -0 -0 -1 -1.294095225512579939 -4.829629131445350332 0 1 I I 0 -1 5.000000000000002665 forward I I I I #
coedge $-1 $542 $543 $447 $503 reversed $544 $-1 #
edge $-1 $545 -85 $505 43.30127018922100035 $447 $546 forward 7 unknown #
coedge $-1 $487 $448 $543 $547 forward $488 $-1 #
vertex $-1 $503 $548 #
ellipse-curve $-1 -43.30127018922100035 -35 25 -0 -0 -1 -1.294095225512579939 -4.829629131445350332 0 1 I I #
straight-curve $-1 0 40 -15 1 0 0 I I #
coedge $-1 $453 $527 $465 $516 reversed $359 $-1 #
ellipse-curve $-1 45 25 -15 -0 -0 -1 -3.535533905932739973 -3.535533905932739973 0 1 I I #
edge $-1 $484 -0.785398163397448279 $545 0.785398163397448279 $458 $549 forward 7 unknown #
straight-curve $-1 90 0 25 0 -1 0 I I #
coedge $-1 $461 $460 $527 $550 reversed $462 $-1 #
edge $-1 $529 -25 $463 15 $478 $551 forward 7 unknown #
face $-1 $467 $462 $2 $-1 $552 forward single #
point $-1 90 15 25 #
edge $-1 $469 -5 $517 35 $508 $553 forward 7 unknown #
vertex $-1 $516 $554 #
straight-curve $-1 85 20 10 -0 -0 -1 I I #
plane-surface $-1 100 20 10 0 1 0 0 0 1 forward_v I I I I #
point $-1 45 20 -15 #
coedge $-1 $521 $521 $473 $522 forward $525 $-1 #
edge $-1 $555 -3.141592653589786011 $555 3.141592653589800221 $473 $556 forward 7 unknown #
loop $-1 $557 $558 $475 #
cone-surface $-1 20 -45 5 0 -1 -3.491481338843129805e-15 10 0 0 1 I I 0 1 10 forward I I I I #
loop $-1 $-1 $521 $412 #
coedge $-1 $526 $526 $559 $560 forward $476 $-1 #
coedge $-1 $508 $479 $512 $550 forward $359 $-1 #
coedge $-1 $479 $491 $481 $532 forward $359 $-1 #
vertex $-1 $550 $561 #
straight-curve $-1 90 0 -15 0 -1 0 I I #
coedge $-1 $482 $481 $542 $562 forward $483 $-1 #
edge $-1 $563 -0.785398163397448279 $485 0.785398163397448279 $528 $564 forward 7 unknown #
face $-1 $514 $483 $2 $-1 $565 forward single #
point $-1 90 -35 25 #
point $-1 90 -35 -15 #
coedge $-1 $543 $542 $491 $537 forward $544 $-1 #
edge $-1 $563 -85 $538 43.30127018922100035 $536 $566 forward 7 unknown #
vertex $-1 $537 $567 #
ellipse-curve $-1 -43.30127018922100035 -35 -15 0 0 1 -1.294095225512579939 -4.829629131445350332 0 1 I I #
loop $-1 $544 $568 $500 #
plane-surface $-1 0 -40 10 0 1 0 0 0 1 forward_v I I I I #
coedge $-1 $536 $502 $531 $562 reversed $544 $-1 #
coedge $-1 $502 $536 $504 $547 reversed $544 $-1 #
loop $-1 $-1 $543 $500 #
vertex $-1 $503 $569 #
straight-curve $-1 0 -40 25 -1 0 0 I I #
edge $-1 $505 -15 $538 25 $543 $570 forward 7 unknown #
point $-1 -43.30127018922100035 -40 25 #
ellipse-curve $-1 85 -35 25 -0 -0 -1 3.535533905932739973 -3.535533905932739973 0 1 I I #
edge $-1 $529 -0.785398163397448279 $517 0.785398163397448279 $527 $571 forward 7 unknown #
straight-curve $-1 90 15 10 0 0 1 I I #
cone-surface $-1 85 15 5 -0 -0 1 3.535533905932739973 3.535533905932739973 0 1 I I 0 -1 5.000000000000003553 forward I I I I #
straight-curve $-1 50 20 -15 1 0 0 I I #
point $-1 85 20 -15 #
vertex $-1 $522 $572 #
ellipse-curve $-1 20 -50 4.999999999999979572 -0 -1 0 15 0 0 1 I I #
loop $-1 $-1 $559 $475 #
coedge $-1 $558 $558 $568 $573 reversed $523 $-1 #
coedge $-1 $559 $559 $526 $560 reversed $557 $-1 #
edge $-1 $574 -3.141592653589799777 $574 3.141592653589786455 $559 $575 forward 7 unknown #
point $-1 90 15 -15 #
edge $-1 $563 -25 $545 15 $542 $576 forward 7 unknown #
vertex $-1 $532 $577 #
ellipse-curve $-1 85 -35 -15 0 0 1 3.535533905932739973 -3.535533905932739973 0 1 I I #
cone-surface $-1 85 -35 5 0 -0 -1 3.535533905932739973 -3.535533905932739973 0 1 I I 0 -1 5.000000000000003553 forward I I I I #
straight-curve $-1 0 -40 -15 -1 0 0 I I #
point $-1 -43.30127018922100035 -40 -15 #
coedge $-1 $568 $568 $558 $573 forward $540 $-1 #
point $-1 85 -40 25 #
straight-curve $-1 -43.30127018922100035 -40 10 0 0 -1 I I #
ellipse-curve $-1 85 15 -15 0 0 1 3.535533905932739973 3.535533905932739973 0 1 I I #
point $-1 5 -50 4.999999999999870326 #
edge $-1 $578 -3.141592653589799777 $578 3.141592653589786455 $568 $579 forward 7 unknown #
vertex $-1 $560 $580 #
ellipse-curve $-1 20 -45 4.999999999999979572 0 1 -0 10 0 0 1 I I #
straight-curve $-1 85 -40 10 0 0 1 I I #
point $-1 85 -40 -15 #
vertex $-1 $573 $581 #
ellipse-curve $-1 20 -40 5.000000000000020428 -0 -1 -0 10 0 0 1 I I #
point $-1 10 -45 4.999999999999910294 #
point $-1 10 -40 5.000000000000089706 #
End-of-ACIS-data 