105 782 1 0                             
body $-1 $1 $-1 $2 #
lump $-1 $-1 $3 $0 #
transform $-1 1 0 0 0 1 0 0 0 1 0 0 0 150 0 0 0 #
shell $-1 $-1 $-1 $4 $1 #
face $-1 $5 $6 $3 $-1 $7 forward single #
face $-1 $8 $9 $3 $-1 $7 forward single #
loop $-1 $10 $11 $4 #
plane-surface $-1 -0.315 -0.394912 0.16 0 0 1 1 0 0 0 #
face $-1 $12 $13 $3 $-1 $14 reversed single #
loop $-1 $-1 $15 $5 #
loop $-1 $16 $17 $4 #
coedge $-1 $11 $11 $18 $19 0 $6 $-1 #
face $-1 $20 $21 $3 $-1 $22 reversed single #
loop $-1 $-1 $23 $8 #
plane-surface $-1 -0.315 0.394912 0.18 0 0 -1 -1 0 0 0 #
coedge $-1 $24 $25 $26 $27 1 $9 $-1 #
loop $-1 $28 $29 $4 #
coedge $-1 $17 $17 $30 $31 0 $10 $-1 #
coedge $-1 $18 $18 $11 $19 1 $32 $-1 #
edge $-1 $33 $33 $18 $34 1 #
face $-1 $35 $36 $3 $-1 $37 reversed single #
loop $-1 $-1 $38 $12 #
plane-surface $-1 0.315 0.29 0.16 0 1 0 0 0 1 0 #
coedge $-1 $39 $40 $41 $42 1 $13 $-1 #
coedge $-1 $43 $15 $44 $45 1 $9 $-1 #
coedge $-1 $15 $43 $46 $47 1 $9 $-1 #
coedge $-1 $48 $49 $15 $27 0 $50 $-1 #
edge $-1 $51 $52 $15 $53 0 #
loop $-1 $-1 $54 $4 #
coedge $-1 $55 $56 $57 $58 1 $16 $-1 #
coedge $-1 $30 $30 $17 $31 1 $59 $-1 #
edge $-1 $60 $60 $30 $61 0 #
loop $-1 $-1 $18 $62 #
vertex $-1 $19 $63 #
ellipse-curve $-1 0 0.36 0.16 3.44789759200359e-16 -2.37759956098883e-31 1 -0.0805 5.55111512312578e-17 2.77555756156289e-17 1 #
face $-1 $64 $65 $3 $-1 $66 reversed single #
loop $-1 $-1 $67 $20 #
plane-surface $-1 0.265 0.29 0.16 1 0 0 0 0 -1 0 #
coedge $-1 $68 $69 $70 $71 0 $21 $-1 #
coedge $-1 $72 $23 $68 $73 1 $13 $-1 #
coedge $-1 $23 $72 $74 $75 1 $13 $-1 #
coedge $-1 $76 $67 $23 $42 0 $36 $-1 #
edge $-1 $77 $78 $23 $79 0 #
coedge $-1 $25 $24 $80 $81 0 $9 $-1 #
coedge $-1 $82 $83 $24 $45 0 $84 $-1 #
edge $-1 $85 $51 $24 $86 1 #
coedge $-1 $87 $88 $25 $47 0 $89 $-1 #
edge $-1 $52 $90 $25 $91 0 #
coedge $-1 $92 $26 $88 $93 1 $50 $-1 #
coedge $-1 $26 $94 $95 $96 0 $50 $-1 #
loop $-1 $-1 $92 $97 #
vertex $-1 $96 $98 #
vertex $-1 $93 $99 #
straight-curve $-1 -0.266 -0.59 0.16 0 -1 0 #
coedge $-1 $100 $101 $102 $103 1 $28 $-1 #
coedge $-1 $104 $29 $105 $106 1 $16 $-1 #
coedge $-1 $29 $107 $108 $109 1 $16 $-1 #
coedge $-1 $110 $111 $29 $58 0 $112 $-1 #
edge $-1 $113 $114 $29 $115 0 #
loop $-1 $116 $30 $64 #
vertex $-1 $31 $117 #
ellipse-curve $-1 0 -0.36 0.16 -3.44789759200359e-16 0 -1 -0.0805 0 2.77555756156289e-17 1 #
face $-1 $-1 $118 $3 $-1 $119 reversed single #
point $-1 -0.0805 0.36 0.16 #
face $-1 $120 $59 $3 $-1 $121 reversed single #
loop $-1 $-1 $122 $35 #
plane-surface $-1 0.265 0.59 0.16 0 -1 0 0 0 -1 0 #
coedge $-1 $41 $123 $124 $125 0 $36 $-1 #
coedge $-1 $124 $38 $39 $73 0 $21 $-1 #
coedge $-1 $38 $124 $126 $127 0 $21 $-1 #
coedge $-1 $128 $129 $38 $71 1 $130 $-1 #
edge $-1 $131 $132 $70 $133 0 #
coedge $-1 $40 $39 $129 $134 0 $13 $-1 #
edge $-1 $132 $77 $39 $135 0 #
coedge $-1 $136 $122 $40 $75 0 $65 $-1 #
edge $-1 $78 $137 $40 $138 0 #
coedge $-1 $123 $41 $122 $139 0 $36 $-1 #
vertex $-1 $125 $140 #
vertex $-1 $139 $141 #
straight-curve $-1 0.265 0.29 0.18 0 1 0 #
coedge $-1 $142 $143 $43 $81 1 $144 $-1 #
edge $-1 $85 $90 $80 $145 0 #
coedge $-1 $146 $44 $147 $148 1 $84 $-1 #
coedge $-1 $44 $149 $142 $150 0 $84 $-1 #
loop $-1 $-1 $146 $151 #
vertex $-1 $45 $152 #
straight-curve $-1 -0.266 -0.59 0.16 -1 0 0 #
coedge $-1 $153 $46 $143 $154 0 $89 $-1 #
coedge $-1 $46 $155 $48 $93 0 $89 $-1 #
loop $-1 $-1 $153 $156 #
vertex $-1 $47 $157 #
straight-curve $-1 -0.266 -0.68 0.16 -1 0 0 #
coedge $-1 $94 $48 $158 $159 0 $50 $-1 #
edge $-1 $160 $52 $48 $161 0 #
coedge $-1 $49 $92 $162 $163 0 $50 $-1 #
coedge $-1 $164 $147 $49 $96 1 $165 $-1 #
edge $-1 $166 $51 $95 $167 0 #
face $-1 $168 $50 $3 $-1 $169 reversed single #
point $-1 -0.266 -0.59 0.16 #
point $-1 -0.266 -0.68 0.16 #
coedge $-1 $170 $54 $171 $172 1 $28 $-1 #
coedge $-1 $54 $173 $174 $175 1 $28 $-1 #
coedge $-1 $176 $177 $54 $103 0 $178 $-1 #
edge $-1 $179 $180 $54 $181 1 #
coedge $-1 $182 $55 $183 $184 1 $16 $-1 #
coedge $-1 $185 $186 $55 $106 0 $187 $-1 #
edge $-1 $188 $113 $55 $189 0 #
coedge $-1 $56 $190 $191 $192 1 $16 $-1 #
coedge $-1 $193 $194 $56 $109 0 $195 $-1 #
edge $-1 $114 $196 $56 $197 0 #
coedge $-1 $198 $57 $194 $199 0 $112 $-1 #
coedge $-1 $57 $198 $185 $200 0 $112 $-1 #
loop $-1 $-1 $110 $201 #
vertex $-1 $200 $202 #
vertex $-1 $199 $203 #
straight-curve $-1 -0.158 -0.225 0.16 1 0 0 #
loop $-1 $-1 $204 $64 #
point $-1 0.0805 -0.36 0.16 #
loop $-1 $32 $205 $62 #
cone-surface $-1 0 0.36 0 0 0 1 0.0805 0 0 1 0 1 0 #
face $-1 $201 $195 $3 $-1 $206 reversed single #
cone-surface $-1 0 -0.36 0 0 0 -1 0.0805 0 0 1 0 1 0 #
coedge $-1 $74 $207 $76 $139 1 $65 $-1 #
coedge $-1 $67 $76 $208 $209 0 $36 $-1 #
coedge $-1 $69 $68 $67 $125 1 $21 $-1 #
edge $-1 $210 $77 $124 $211 0 #
coedge $-1 $208 $212 $69 $127 1 $28 $-1 #
edge $-1 $210 $131 $126 $213 1 #
coedge $-1 $214 $70 $212 $215 1 $130 $-1 #
coedge $-1 $70 $216 $72 $134 1 $130 $-1 #
loop $-1 $-1 $217 $218 #
vertex $-1 $127 $219 #
vertex $-1 $73 $220 #
straight-curve $-1 0.315 0.29 0.16 0 0 1 #
edge $-1 $132 $137 $129 $221 1 #
straight-curve $-1 0.315 0.29 0.18 -1 0 0 #
coedge $-1 $207 $74 $216 $222 0 $65 $-1 #
vertex $-1 $75 $223 #
straight-curve $-1 0.265 0.59 0.18 1 0 0 #
edge $-1 $78 $224 $122 $225 1 #
point $-1 0.265 0.29 0.18 #
point $-1 0.265 0.59 0.18 #
coedge $-1 $226 $80 $83 $150 1 $144 $-1 #
coedge $-1 $80 $227 $87 $154 1 $144 $-1 #
loop $-1 $-1 $80 $228 #
straight-curve $-1 -0.315 -0.59 0.16 0 -1 0 #
coedge $-1 $149 $82 $229 $230 1 $84 $-1 #
coedge $-1 $95 $231 $82 $148 0 $165 $-1 #
edge $-1 $232 $51 $82 $233 0 #
coedge $-1 $83 $146 $234 $235 0 $84 $-1 #
edge $-1 $236 $85 $142 $237 1 #
face $-1 $228 $84 $3 $-1 $238 reversed single #
point $-1 -0.315 -0.59 0.16 #
coedge $-1 $239 $87 $240 $241 0 $89 $-1 #
edge $-1 $90 $242 $143 $243 1 #
coedge $-1 $88 $244 $245 $246 0 $89 $-1 #
face $-1 $247 $89 $3 $-1 $248 reversed single #
point $-1 -0.315 -0.68 0.16 #
coedge $-1 $245 $249 $92 $159 1 $250 $-1 #
edge $-1 $160 $251 $158 $252 1 #
vertex $-1 $93 $253 #
straight-curve $-1 -0.266 -0.68 0.1 0 0 1 #
coedge $-1 $254 $255 $94 $163 1 $256 $-1 #
edge $-1 $251 $166 $162 $257 1 #
coedge $-1 $231 $95 $255 $258 1 $165 $-1 #
loop $-1 $-1 $95 $259 #
vertex $-1 $163 $260 #
straight-curve $-1 -0.266 -0.55 0.16 0 -1 0 #
face $-1 $62 $261 $3 $-1 $7 forward single #
plane-surface $-1 -0.266 -0.55 0.16 -1 0 0 0 0 1 0 #
coedge $-1 $262 $100 $263 $264 1 $28 $-1 #
coedge $-1 $265 $266 $100 $172 0 $267 $-1 #
edge $-1 $268 $179 $100 $269 1 #
coedge $-1 $101 $270 $271 $272 1 $28 $-1 #
coedge $-1 $244 $273 $101 $175 0 $89 $-1 #
edge $-1 $180 $274 $101 $275 0 #
coedge $-1 $276 $102 $273 $277 1 $178 $-1 #
coedge $-1 $102 $276 $265 $278 0 $178 $-1 #
loop $-1 $-1 $276 $279 #
vertex $-1 $278 $280 #
vertex $-1 $277 $281 #
straight-curve $-1 0.166 -0.68 0.16 0 1 0 #
coedge $-1 $282 $104 $283 $284 1 $16 $-1 #
coedge $-1 $285 $286 $104 $184 0 $287 $-1 #
edge $-1 $288 $188 $104 $289 0 #
coedge $-1 $290 $105 $111 $200 1 $187 $-1 #
coedge $-1 $105 $290 $285 $291 0 $187 $-1 #
loop $-1 $-1 $185 $292 #
vertex $-1 $291 $293 #
ellipse-curve $-1 -0.158 -0.158 0.16 0 0 1 -0.067 0 0 1 #
coedge $-1 $107 $282 $294 $295 1 $16 $-1 #
coedge $-1 $296 $297 $107 $192 0 $298 $-1 #
edge $-1 $196 $299 $107 $300 0 #
coedge $-1 $301 $108 $297 $302 1 $195 $-1 #
coedge $-1 $108 $301 $110 $199 1 $195 $-1 #
loop $-1 $-1 $193 $120 #
vertex $-1 $302 $303 #
ellipse-curve $-1 0.158 -0.158 0.16 0 0 1 2.77555756156289e-17 -0.067 0 1 #
coedge $-1 $111 $110 $304 $305 0 $112 $-1 #
edge $-1 $114 $306 $194 $307 0 #
edge $-1 $308 $113 $185 $309 1 #
face $-1 $292 $112 $3 $-1 $310 reversed single #
point $-1 -0.158 -0.225 0.16 #
point $-1 0.158 -0.225 0.16 #
coedge $-1 $204 $204 $311 $312 1 $116 $-1 #
coedge $-1 $205 $205 $313 $314 1 $118 $-1 #
cone-surface $-1 0.158 -0.158 0.25 0 0 1 -0.067 0 0 1 0 1 0 #
coedge $-1 $122 $136 $315 $316 0 $65 $-1 #
coedge $-1 $315 $126 $123 $209 1 $28 $-1 #
edge $-1 $224 $210 $208 $317 1 #
vertex $-1 $125 $318 #
straight-curve $-1 0.265 0.29 0.16 0 0 1 #
coedge $-1 $126 $262 $128 $215 0 $28 $-1 #
straight-curve $-1 0.315 0.29 0.16 -1 0 0 #
coedge $-1 $319 $128 $320 $321 1 $130 $-1 #
edge $-1 $322 $131 $128 $323 1 #
coedge $-1 $129 $324 $136 $222 1 $130 $-1 #
coedge $-1 $325 $326 $327 $328 1 $130 $-1 #
face $-1 $329 $130 $3 $-1 $330 reversed single #
point $-1 0.315 0.29 0.16 #
point $-1 0.315 0.29 0.18 #
straight-curve $-1 0.315 0.59 0.18 0 -1 0 #
edge $-1 $137 $331 $216 $332 1 #
point $-1 0.315 0.59 0.18 #
vertex $-1 $139 $333 #
straight-curve $-1 0.265 0.59 0.16 0 0 1 #
coedge $-1 $334 $142 $335 $336 1 $144 $-1 #
coedge $-1 $143 $337 $338 $339 1 $144 $-1 #
face $-1 $340 $144 $3 $-1 $341 reversed single #
coedge $-1 $342 $343 $146 $230 0 $344 $-1 #
edge $-1 $345 $232 $146 $346 1 #
coedge $-1 $147 $164 $342 $347 0 $165 $-1 #
vertex $-1 $347 $348 #
straight-curve $-1 -0.265 -0.59 0.16 -1 0 0 #
coedge $-1 $349 $335 $149 $235 1 $350 $-1 #
edge $-1 $345 $236 $234 $351 0 #
vertex $-1 $235 $352 #
straight-curve $-1 -0.315 -0.59 0.16 0 0 1 #
plane-surface $-1 -0.265 -0.59 0.16 0 1 0 0 0 1 0 #
coedge $-1 $353 $153 $326 $354 0 $89 $-1 #
coedge $-1 $338 $327 $153 $241 1 $355 $-1 #
edge $-1 $242 $356 $240 $357 0 #
vertex $-1 $241 $358 #
straight-curve $-1 -0.315 -0.68 0.07 0 0 1 #
coedge $-1 $155 $174 $359 $360 0 $89 $-1 #
coedge $-1 $361 $158 $155 $246 1 $250 $-1 #
edge $-1 $362 $160 $245 $363 0 #
face $-1 $218 $355 $3 $-1 $364 forward single #
plane-surface $-1 0 -0.68 0 0 1 0 0 0 1 0 #
coedge $-1 $158 $361 $254 $365 1 $250 $-1 #
loop $-1 $-1 $361 $366 #
vertex $-1 $163 $367 #
straight-curve $-1 -0.266 -0.55 0.1 0 -1 0 #
point $-1 -0.266 -0.68 0.1 #
coedge $-1 $368 $162 $249 $365 0 $256 $-1 #
coedge $-1 $162 $369 $164 $258 0 $256 $-1 #
loop $-1 $-1 $255 $370 #
straight-curve $-1 -0.266 -0.55 0.16 0 0 -1 #
edge $-1 $371 $166 $164 $372 0 #
face $-1 $370 $165 $3 $-1 $373 reversed single #
point $-1 -0.266 -0.55 0.16 #
loop $-1 $-1 $374 $168 #
coedge $-1 $212 $170 $375 $376 1 $28 $-1 #
coedge $-1 $377 $378 $170 $264 0 $379 $-1 #
edge $-1 $380 $268 $170 $381 0 #
coedge $-1 $382 $171 $177 $278 1 $267 $-1 #
coedge $-1 $171 $383 $384 $385 0 $267 $-1 #
loop $-1 $-1 $265 $386 #
vertex $-1 $385 $387 #
ellipse-curve $-1 0.216 -0.55 0.16 0 0 -1 -0.05 -1.11022302462516e-16 0 1 #
coedge $-1 $173 $388 $369 $389 1 $28 $-1 #
coedge $-1 $390 $359 $173 $272 0 $391 $-1 #
edge $-1 $274 $392 $173 $393 0 #
coedge $-1 $174 $394 $176 $277 0 $89 $-1 #
vertex $-1 $360 $395 #
straight-curve $-1 0.166 -0.68 0.16 -1 0 0 #
coedge $-1 $177 $176 $396 $397 0 $178 $-1 #
edge $-1 $398 $180 $176 $399 0 #
edge $-1 $400 $179 $265 $401 1 #
face $-1 $386 $178 $3 $-1 $402 forward single #
point $-1 0.166 -0.55 0.16 #
point $-1 0.166 -0.68 0.16 #
coedge $-1 $190 $182 $403 $404 1 $16 $-1 #
coedge $-1 $405 $406 $182 $284 0 $407 $-1 #
edge $-1 $408 $288 $182 $409 0 #
coedge $-1 $410 $183 $186 $291 1 $287 $-1 #
coedge $-1 $183 $410 $405 $411 0 $287 $-1 #
loop $-1 $-1 $285 $412 #
vertex $-1 $411 $413 #
straight-curve $-1 -0.225 0.158 0.16 0 -1 0 #
coedge $-1 $186 $185 $414 $415 0 $187 $-1 #
edge $-1 $416 $188 $285 $417 1 #
face $-1 $412 $187 $3 $-1 $418 reversed single #
point $-1 -0.225 -0.158 0.16 #
coedge $-1 $419 $420 $190 $295 0 $421 $-1 #
edge $-1 $299 $422 $190 $423 0 #
coedge $-1 $424 $191 $420 $425 1 $298 $-1 #
coedge $-1 $191 $424 $193 $302 0 $298 $-1 #
loop $-1 $-1 $296 $426 #
vertex $-1 $425 $427 #
straight-curve $-1 0.225 -0.158 0.16 0 1 0 #
coedge $-1 $194 $193 $428 $429 0 $195 $-1 #
edge $-1 $430 $196 $193 $431 1 #
point $-1 0.225 -0.158 0.16 #
coedge $-1 $428 $414 $198 $305 1 $432 $-1 #
edge $-1 $306 $308 $304 $433 1 #
vertex $-1 $199 $434 #
straight-curve $-1 0.158 -0.225 0.16 0 0 -1 #
vertex $-1 $200 $435 #
straight-curve $-1 -0.158 -0.225 0.16 0 0 -1 #
plane-surface $-1 -0.158 -0.225 0.25 0 -1 0 0 0 -1 0 #
coedge $-1 $311 $311 $204 $312 0 $436 $-1 #
edge $-1 $437 $437 $204 $438 1 #
coedge $-1 $313 $313 $205 $314 0 $439 $-1 #
edge $-1 $440 $440 $205 $441 0 #
coedge $-1 $442 $208 $207 $316 1 $28 $-1 #
edge $-1 $331 $224 $315 $443 1 #
straight-curve $-1 0.265 0.29 0.16 0 1 0 #
point $-1 0.265 0.29 0.16 #
coedge $-1 $444 $214 $445 $446 1 $130 $-1 #
coedge $-1 $375 $447 $214 $321 0 $448 $-1 #
edge $-1 $449 $322 $214 $450 1 #
vertex $-1 $376 $451 #
straight-curve $-1 0.315 0.29 0.16 0 -1 0 #
coedge $-1 $216 $325 $442 $452 1 $130 $-1 #
coedge $-1 $324 $217 $453 $454 1 $130 $-1 #
coedge $-1 $217 $455 $239 $354 1 $130 $-1 #
coedge $-1 $240 $456 $217 $328 0 $355 $-1 #
edge $-1 $457 $356 $217 $458 0 #
face $-1 $459 $460 $3 $-1 $461 reversed single #
plane-surface $-1 0.315 0.7525 0.25 -1 0 0 0 0 1 0 #
vertex $-1 $316 $462 #
straight-curve $-1 0.315 0.59 0.16 0 0 1 #
point $-1 0.265 0.59 0.16 #
coedge $-1 $463 $226 $464 $465 1 $144 $-1 #
coedge $-1 $234 $466 $226 $336 0 $350 $-1 #
edge $-1 $467 $236 $226 $468 1 #
coedge $-1 $227 $469 $470 $471 1 $144 $-1 #
coedge $-1 $456 $240 $227 $339 0 $355 $-1 #
edge $-1 $242 $472 $227 $473 0 #
face $-1 $474 $475 $3 $-1 $476 reversed single #
plane-surface $-1 -0.315 -0.7525 0.25 1 0 0 0 0 -1 0 #
coedge $-1 $477 $229 $231 $347 1 $344 $-1 #
coedge $-1 $229 $478 $349 $479 0 $344 $-1 #
loop $-1 $-1 $477 $474 #
vertex $-1 $230 $480 #
straight-curve $-1 -0.265 -0.59 0.16 0 0 1 #
edge $-1 $371 $232 $342 $481 1 #
point $-1 -0.265 -0.59 0.16 #
coedge $-1 $466 $234 $343 $479 1 $350 $-1 #
loop $-1 $-1 $349 $482 #
straight-curve $-1 -0.265 -0.59 0.18 -1 0 0 #
point $-1 -0.315 -0.59 0.18 #
coedge $-1 $483 $239 $484 $485 0 $89 $-1 #
edge $-1 $356 $486 $326 $487 0 #
loop $-1 $432 $338 $247 #
vertex $-1 $241 $488 #
straight-curve $-1 -0.315 -0.68 0.07 1 0 0 #
point $-1 -0.315 -0.68 0.07 #
coedge $-1 $271 $489 $244 $360 1 $391 $-1 #
edge $-1 $274 $362 $359 $490 1 #
coedge $-1 $249 $245 $489 $491 1 $250 $-1 #
vertex $-1 $360 $492 #
straight-curve $-1 -0.166 -0.68 0.1 -1 0 0 #
plane-surface $-1 0 0 0.07 0 0 -1 -1 0 0 0 #
edge $-1 $251 $493 $249 $494 1 #
face $-1 $97 $250 $3 $-1 $495 forward single #
point $-1 -0.266 -0.55 0.1 #
coedge $-1 $369 $254 $390 $496 1 $256 $-1 #
coedge $-1 $255 $368 $270 $389 0 $256 $-1 #
face $-1 $497 $256 $3 $-1 $498 reversed single #
vertex $-1 $258 $499 #
ellipse-curve $-1 -0.216 -0.55 0.16 0 0 1 -0.049 0.00994987437106598 0 1 #
plane-surface $-1 -0.315 -0.394912 0.16 0 0 1 1 0 0 0 #
coedge $-1 $500 $484 $455 $501 0 $261 $-1 #
coedge $-1 $502 $320 $262 $376 0 $448 $-1 #
edge $-1 $322 $380 $262 $503 0 #
coedge $-1 $504 $263 $505 $506 1 $379 $-1 #
coedge $-1 $263 $507 $502 $508 0 $379 $-1 #
loop $-1 $-1 $504 $509 #
vertex $-1 $508 $510 #
straight-curve $-1 0.265 -0.29 0.16 0 -1 0 #
coedge $-1 $383 $265 $511 $512 0 $267 $-1 #
coedge $-1 $266 $382 $513 $514 1 $267 $-1 #
coedge $-1 $515 $505 $266 $385 1 $516 $-1 #
edge $-1 $517 $268 $384 $518 1 #
face $-1 $519 $267 $3 $-1 $520 reversed single #
point $-1 0.265 -0.540050125628934 0.16 #
coedge $-1 $270 $521 $477 $522 1 $28 $-1 #
edge $-1 $392 $371 $270 $523 0 #
coedge $-1 $489 $271 $368 $496 0 $391 $-1 #
loop $-1 $-1 $271 $497 #
vertex $-1 $496 $524 #
straight-curve $-1 -0.166 -0.68 0.16 0 1 0 #
coedge $-1 $273 $483 $525 $526 0 $89 $-1 #
point $-1 -0.166 -0.68 0.16 #
coedge $-1 $525 $511 $276 $397 1 $527 $-1 #
edge $-1 $398 $400 $396 $528 0 #
vertex $-1 $277 $529 #
straight-curve $-1 0.166 -0.68 0.1 0 0 1 #
vertex $-1 $278 $530 #
straight-curve $-1 0.166 -0.55 0.16 0 0 -1 #
plane-surface $-1 0.166 -0.806642135623731 0.16 1 0 0 0 0 -1 0 #
coedge $-1 $531 $532 $282 $404 0 $533 $-1 #
edge $-1 $422 $408 $282 $534 0 #
coedge $-1 $535 $283 $286 $411 1 $407 $-1 #
coedge $-1 $283 $535 $531 $536 0 $407 $-1 #
loop $-1 $-1 $405 $537 #
vertex $-1 $536 $538 #
ellipse-curve $-1 -0.158 0.158 0.16 0 0 1 0 0.067 0 1 #
coedge $-1 $286 $285 $539 $540 0 $287 $-1 #
edge $-1 $541 $288 $405 $542 1 #
face $-1 $537 $287 $3 $-1 $543 reversed single #
point $-1 -0.225 0.158 0.16 #
coedge $-1 $304 $539 $290 $415 1 $432 $-1 #
edge $-1 $308 $416 $414 $544 1 #
vertex $-1 $291 $545 #
straight-curve $-1 -0.225 -0.158 0.16 0 0 -1 #
cone-surface $-1 -0.158 -0.158 0.25 0 0 1 -0.067 0 0 1 0 1 0 #
coedge $-1 $546 $294 $532 $547 1 $421 $-1 #
coedge $-1 $294 $546 $296 $425 0 $421 $-1 #
loop $-1 $-1 $419 $548 #
vertex $-1 $547 $549 #
ellipse-curve $-1 0.158 0.158 0.16 0 0 1 0.067 -2.77555756156289e-17 0 1 #
coedge $-1 $297 $296 $550 $551 0 $298 $-1 #
edge $-1 $552 $299 $296 $553 1 #
face $-1 $554 $298 $3 $-1 $555 reversed single #
point $-1 0.225 0.158 0.16 #
coedge $-1 $550 $304 $301 $429 1 $432 $-1 #
edge $-1 $430 $306 $428 $556 1 #
vertex $-1 $302 $557 #
straight-curve $-1 0.225 -0.158 0.16 0 0 -1 #
loop $-1 $436 $550 $247 #
straight-curve $-1 -0.158 -0.225 0.07 1 0 0 #
point $-1 0.158 -0.225 0.07 #
point $-1 -0.158 -0.225 0.07 #
loop $-1 $439 $311 $247 #
vertex $-1 $312 $558 #
ellipse-curve $-1 0 -0.36 0.07 1.7239487960018e-16 0 -1 -0.0805 0 -1.38777878078145e-17 1 #
loop $-1 $-1 $313 $247 #
vertex $-1 $314 $559 #
ellipse-curve $-1 0 0.36 0.07 -1.7239487960018e-16 0 1 -0.0805 0 -1.38777878078145e-17 1 #
coedge $-1 $560 $315 $324 $452 0 $28 $-1 #
straight-curve $-1 0.265 0.59 0.16 1 0 0 #
coedge $-1 $455 $319 $561 $562 1 $130 $-1 #
coedge $-1 $563 $564 $319 $446 0 $565 $-1 #
edge $-1 $566 $449 $319 $567 0 #
coedge $-1 $320 $502 $563 $568 0 $448 $-1 #
loop $-1 $-1 $502 $519 #
vertex $-1 $568 $569 #
straight-curve $-1 0.315 -0.29 0.16 0 0 1 #
point $-1 0.315 -0.29 0.16 #
edge $-1 $331 $570 $324 $571 1 #
coedge $-1 $572 $573 $325 $454 0 $460 $-1 #
edge $-1 $570 $457 $325 $574 1 #
coedge $-1 $326 $444 $374 $501 1 $130 $-1 #
coedge $-1 $327 $338 $572 $575 1 $355 $-1 #
vertex $-1 $575 $576 #
straight-curve $-1 0.315 0.68 0.07 0 -1 0 #
face $-1 $577 $578 $3 $-1 $579 forward single #
loop $-1 $-1 $573 $329 #
plane-surface $-1 0 0.68 0 0 -1 0 0 0 -1 0 #
point $-1 0.315 0.59 0.16 #
coedge $-1 $580 $334 $581 $582 1 $144 $-1 #
coedge $-1 $583 $584 $334 $465 0 $475 $-1 #
edge $-1 $585 $467 $334 $586 0 #
coedge $-1 $335 $349 $583 $587 1 $350 $-1 #
vertex $-1 $587 $588 #
straight-curve $-1 -0.315 -0.59 0.18 0 1 0 #
coedge $-1 $337 $589 $590 $591 1 $144 $-1 #
coedge $-1 $573 $572 $337 $471 0 $460 $-1 #
edge $-1 $472 $592 $337 $593 0 #
vertex $-1 $575 $594 #
straight-curve $-1 -0.315 -0.68 0.07 0 1 0 #
face $-1 $259 $344 $3 $-1 $595 reversed single #
loop $-1 $-1 $464 $340 #
plane-surface $-1 -0.315 -0.29 0.16 0 -1 0 0 0 -1 0 #
coedge $-1 $478 $342 $388 $522 0 $344 $-1 #
coedge $-1 $343 $477 $596 $597 0 $344 $-1 #
edge $-1 $598 $345 $349 $599 0 #
point $-1 -0.265 -0.59 0.18 #
straight-curve $-1 -0.265 -0.59 0.16 0 1 0 #
face $-1 $151 $350 $3 $-1 $600 reversed single #
coedge $-1 $394 $353 $601 $602 0 $89 $-1 #
coedge $-1 $374 $603 $353 $485 1 $261 $-1 #
edge $-1 $486 $604 $484 $605 0 #
vertex $-1 $485 $606 #
straight-curve $-1 0.315 -0.68 0.07 0 0 1 #
point $-1 0.315 -0.68 0.07 #
coedge $-1 $359 $390 $361 $491 0 $391 $-1 #
straight-curve $-1 -0.166 -0.68 0.1 0 0 1 #
edge $-1 $493 $362 $361 $607 1 #
point $-1 -0.166 -0.68 0.1 #
vertex $-1 $496 $608 #
ellipse-curve $-1 -0.216 -0.55 0.1 2.77555756156289e-16 -6.16297582203915e-31 1 0.05 -1.11022302462516e-16 -1.38777878078145e-17 1 #
plane-surface $-1 -0.315 -0.394912 0.1 0 0 1 1 0 0 0 #
edge $-1 $392 $493 $368 $609 0 #
face $-1 $366 $391 $3 $-1 $610 reversed single #
cone-surface $-1 -0.216 -0.55 0.16 0 0 1 -0.05 0 0 1 0 1 0 #
point $-1 -0.265 -0.540050125628934 0.16 #
coedge $-1 $603 $374 $611 $612 1 $261 $-1 #
edge $-1 $486 $613 $455 $614 1 #
coedge $-1 $447 $375 $378 $508 1 $448 $-1 #
straight-curve $-1 0.315 -0.29 0.16 -1 0 0 #
coedge $-1 $507 $377 $615 $616 0 $379 $-1 #
coedge $-1 $384 $617 $377 $506 0 $516 $-1 #
edge $-1 $618 $268 $377 $619 0 #
coedge $-1 $378 $504 $620 $621 0 $379 $-1 #
edge $-1 $622 $380 $502 $623 1 #
face $-1 $624 $379 $3 $-1 $625 forward single #
point $-1 0.265 -0.29 0.16 #
coedge $-1 $396 $626 $382 $512 1 $527 $-1 #
edge $-1 $400 $627 $511 $628 0 #
coedge $-1 $629 $630 $383 $514 0 $631 $-1 #
edge $-1 $517 $627 $383 $632 0 #
coedge $-1 $617 $384 $630 $633 1 $516 $-1 #
loop $-1 $-1 $505 $624 #
vertex $-1 $514 $634 #
ellipse-curve $-1 0.216 -0.55 0.16 0 0 -1 0.049 0.00994987437106609 0 1 #
face $-1 $635 $448 $3 $-1 $636 forward single #
cone-surface $-1 0.216 -0.55 0.16 0 0 -1 0.05 0 0 1 0 1 0 #
coedge $-1 $388 $581 $584 $637 1 $28 $-1 #
edge $-1 $371 $638 $388 $639 1 #
ellipse-curve $-1 -0.216 -0.55 0.16 0 0 1 0.05 -1.11022302462516e-16 0 1 #
point $-1 -0.166 -0.55 0.16 #
coedge $-1 $626 $396 $394 $526 1 $527 $-1 #
edge $-1 $640 $398 $525 $641 1 #
loop $-1 $-1 $626 $554 #
straight-curve $-1 0.166 -0.68 0.1 0 1 0 #
point $-1 0.166 -0.68 0.1 #
point $-1 0.166 -0.55 0.1 #
coedge $-1 $642 $403 $406 $536 1 $533 $-1 #
coedge $-1 $403 $642 $419 $547 0 $533 $-1 #
loop $-1 $-1 $531 $643 #
straight-curve $-1 0.158 0.225 0.16 -1 0 0 #
coedge $-1 $406 $405 $644 $645 0 $407 $-1 #
edge $-1 $646 $408 $531 $647 1 #
face $-1 $643 $407 $3 $-1 $648 reversed single #
point $-1 -0.158 0.225 0.16 #
coedge $-1 $414 $644 $410 $540 1 $432 $-1 #
edge $-1 $416 $541 $539 $649 1 #
vertex $-1 $411 $650 #
straight-curve $-1 -0.225 0.158 0.16 0 0 -1 #
plane-surface $-1 -0.225 0.158 0.25 -1 0 0 0 0 1 0 #
ellipse-curve $-1 -0.158 -0.158 0.07 0 0 1 -0.067 0 0 1 #
point $-1 -0.225 -0.158 0.07 #
coedge $-1 $420 $419 $651 $652 0 $421 $-1 #
edge $-1 $653 $422 $419 $654 1 #
face $-1 $426 $421 $3 $-1 $655 reversed single #
point $-1 0.158 0.225 0.16 #
coedge $-1 $651 $428 $424 $551 1 $432 $-1 #
edge $-1 $552 $430 $550 $656 1 #
vertex $-1 $425 $657 #
straight-curve $-1 0.225 0.158 0.16 0 0 -1 #
face $-1 $279 $527 $3 $-1 $658 reversed single #
plane-surface $-1 0.225 -0.158 0.25 1 0 0 0 0 -1 0 #
ellipse-curve $-1 0.158 -0.158 0.07 0 0 1 0 -0.067 0 1 #
point $-1 0.225 -0.158 0.07 #
point $-1 0.0805 -0.36 0.07 #
point $-1 0.0805 0.36 0.07 #
coedge $-1 $590 $442 $573 $659 1 $28 $-1 #
coedge $-1 $660 $611 $444 $562 0 $661 $-1 #
edge $-1 $613 $566 $444 $662 0 #
coedge $-1 $620 $445 $447 $568 1 $565 $-1 #
coedge $-1 $445 $620 $660 $663 1 $565 $-1 #
loop $-1 $-1 $445 $635 #
vertex $-1 $663 $664 #
straight-curve $-1 0.315 -0.59 0.18 0 1 0 #
edge $-1 $622 $449 $563 $665 1 #
point $-1 0.315 -0.29 0.18 #
vertex $-1 $659 $666 #
straight-curve $-1 0.315 0.68 0.16 0 -1 0 #
coedge $-1 $470 $453 $456 $575 0 $460 $-1 #
coedge $-1 $453 $470 $560 $659 0 $460 $-1 #
straight-curve $-1 0.315 0.68 0.07 0 0 1 #
edge $-1 $457 $472 $456 $667 1 #
point $-1 0.315 0.68 0.07 #
face $-1 $668 $669 $3 $-1 $670 forward single #
loop $-1 $-1 $671 $459 #
plane-surface $-1 0.315 0.394912 0.18 0 0 1 1 0 0 0 #
coedge $-1 $672 $463 $673 $674 1 $144 $-1 #
coedge $-1 $521 $675 $463 $582 0 $28 $-1 #
edge $-1 $676 $585 $463 $677 0 #
coedge $-1 $596 $464 $466 $587 0 $475 $-1 #
coedge $-1 $464 $596 $521 $637 0 $475 $-1 #
vertex $-1 $637 $678 #
straight-curve $-1 -0.315 -0.29 0.16 0 0 1 #
edge $-1 $467 $598 $466 $679 0 #
point $-1 -0.315 -0.29 0.18 #
coedge $-1 $469 $672 $680 $681 1 $144 $-1 #
coedge $-1 $682 $560 $469 $591 0 $28 $-1 #
edge $-1 $592 $683 $469 $684 0 #
vertex $-1 $659 $685 #
straight-curve $-1 -0.315 0.68 0.07 0 0 1 #
point $-1 -0.315 0.68 0.07 #
plane-surface $-1 -0.265 -0.29 0.16 -1 0 0 0 0 1 0 #
coedge $-1 $584 $583 $478 $597 1 $475 $-1 #
edge $-1 $638 $598 $596 $686 0 #
vertex $-1 $597 $687 #
straight-curve $-1 -0.265 -0.29 0.18 0 -1 0 #
plane-surface $-1 0.315 -0.394912 0.18 0 0 -1 -1 0 0 0 #
coedge $-1 $688 $629 $483 $602 1 $631 $-1 #
edge $-1 $604 $640 $601 $689 1 #
coedge $-1 $484 $500 $688 $690 1 $261 $-1 #
vertex $-1 $602 $691 #
straight-curve $-1 0.315 -0.68 0.16 -1 0 0 #
point $-1 0.315 -0.68 0.16 #
straight-curve $-1 -0.166 -0.68 0.1 0 1 0 #
point $-1 -0.166 -0.55 0.1 #
straight-curve $-1 -0.166 -0.55 0.16 0 0 -1 #
plane-surface $-1 -0.166 -0.806642135623731 0.16 1 0 0 0 0 -1 0 #
coedge $-1 $561 $692 $500 $612 0 $661 $-1 #
edge $-1 $693 $613 $500 $694 0 #
vertex $-1 $612 $695 #
straight-curve $-1 0.315 -0.59 0.16 0 -1 0 #
coedge $-1 $692 $660 $504 $616 1 $661 $-1 #
edge $-1 $618 $696 $615 $697 0 #
coedge $-1 $505 $515 $692 $698 0 $516 $-1 #
vertex $-1 $506 $699 #
straight-curve $-1 0.265 -0.59 0.16 0 1 0 #
coedge $-1 $564 $563 $507 $621 1 $565 $-1 #
edge $-1 $696 $622 $620 $700 1 #
vertex $-1 $508 $701 #
straight-curve $-1 0.265 -0.29 0.16 0 0 1 #
face $-1 $702 $516 $3 $-1 $703 forward single #
plane-surface $-1 0.265 -0.29 0.16 -1 0 0 0 0 1 0 #
coedge $-1 $511 $525 $629 $704 1 $527 $-1 #
vertex $-1 $514 $705 #
ellipse-curve $-1 0.216 -0.55 0.1 2.77555756156289e-16 6.16297582203915e-31 -1 -0.05 -1.11022302462516e-16 -1.38777878078145e-17 1 #
coedge $-1 $601 $513 $626 $704 0 $631 $-1 #
coedge $-1 $513 $688 $515 $633 0 $631 $-1 #
loop $-1 $-1 $688 $702 #
straight-curve $-1 0.266 -0.55 0.16 0 0 -1 #
edge $-1 $693 $517 $515 $706 1 #
point $-1 0.266 -0.55 0.16 #
face $-1 $707 $565 $3 $-1 $708 forward single #
plane-surface $-1 0.315 -0.29 0.16 0 1 0 0 0 1 0 #
edge $-1 $638 $585 $521 $709 1 #
vertex $-1 $597 $710 #
straight-curve $-1 -0.265 -0.29 0.16 0 -1 0 #
vertex $-1 $602 $711 #
straight-curve $-1 0.166 -0.68 0.1 1 0 0 #
coedge $-1 $532 $531 $712 $713 0 $533 $-1 #
face $-1 $548 $533 $3 $-1 $714 reversed single #
coedge $-1 $539 $712 $535 $645 1 $432 $-1 #
edge $-1 $541 $646 $644 $715 1 #
vertex $-1 $536 $716 #
straight-curve $-1 -0.158 0.225 0.16 0 0 -1 #
cone-surface $-1 -0.158 0.158 0.25 0 0 1 -0.067 0 0 1 0 1 0 #
straight-curve $-1 -0.225 0.158 0.07 0 -1 0 #
point $-1 -0.225 0.158 0.07 #
coedge $-1 $712 $550 $546 $652 1 $432 $-1 #
edge $-1 $653 $552 $651 $717 1 #
vertex $-1 $547 $718 #
straight-curve $-1 0.158 0.225 0.16 0 0 -1 #
cone-surface $-1 0.158 0.158 0.25 0 0 1 -0.067 0 0 1 0 1 0 #
straight-curve $-1 0.225 -0.158 0.07 0 1 0 #
point $-1 0.225 0.158 0.07 #
plane-surface $-1 0.315 -0.394912 0.1 0 0 -1 -1 0 0 0 #
edge $-1 $592 $570 $560 $719 1 #
coedge $-1 $615 $561 $564 $663 0 $661 $-1 #
loop $-1 $-1 $611 $707 #
straight-curve $-1 0.315 -0.59 0.16 0 0 1 #
edge $-1 $566 $696 $564 $720 1 #
point $-1 0.315 -0.59 0.18 #
straight-curve $-1 0.315 -0.29 0.18 -1 0 0 #
point $-1 0.315 0.68 0.16 #
straight-curve $-1 -0.315 0.68 0.07 1 0 0 #
face $-1 $721 $722 $3 $-1 $723 forward single #
loop $-1 $-1 $680 $577 #
plane-surface $-1 -0.265 0.59 0.16 0 1 0 0 0 1 0 #
coedge $-1 $724 $725 $672 $726 0 $578 $-1 #
coedge $-1 $589 $580 $671 $726 1 $144 $-1 #
coedge $-1 $727 $728 $580 $674 0 $729 $-1 #
edge $-1 $730 $676 $580 $731 1 #
coedge $-1 $581 $732 $727 $733 1 $28 $-1 #
vertex $-1 $733 $734 #
straight-curve $-1 -0.315 0.29 0.16 0 -1 0 #
point $-1 -0.315 -0.29 0.16 #
straight-curve $-1 -0.315 -0.29 0.18 1 0 0 #
coedge $-1 $735 $736 $589 $681 0 $669 $-1 #
edge $-1 $683 $737 $589 $738 0 #
coedge $-1 $732 $590 $736 $739 1 $28 $-1 #
vertex $-1 $739 $740 #
straight-curve $-1 -0.315 0.68 0.16 0 -1 0 #
point $-1 -0.315 0.68 0.16 #
straight-curve $-1 -0.265 -0.29 0.16 0 0 1 #
point $-1 -0.265 -0.29 0.18 #
coedge $-1 $630 $601 $603 $690 0 $631 $-1 #
straight-curve $-1 0.266 -0.68 0.1 0 0 1 #
edge $-1 $604 $693 $603 $741 1 #
point $-1 0.266 -0.68 0.16 #
coedge $-1 $611 $615 $617 $698 1 $661 $-1 #
vertex $-1 $633 $742 #
straight-curve $-1 0.266 -0.59 0.16 1 0 0 #
point $-1 0.315 -0.59 0.16 #
vertex $-1 $616 $743 #
straight-curve $-1 0.265 -0.59 0.16 0 0 1 #
edge $-1 $693 $618 $692 $744 1 #
point $-1 0.265 -0.59 0.16 #
straight-curve $-1 0.265 -0.29 0.18 0 -1 0 #
point $-1 0.265 -0.29 0.18 #
face $-1 $156 $631 $3 $-1 $745 forward single #
plane-surface $-1 0.315 -0.394912 0.16 0 0 -1 -1 0 0 0 #
edge $-1 $627 $640 $626 $746 0 #
point $-1 0.266 -0.55 0.1 #
straight-curve $-1 0.266 -0.55 0.16 0 -1 0 #
face $-1 $509 $661 $3 $-1 $747 forward single #
plane-surface $-1 -0.315 -0.394912 0.18 0 0 1 1 0 0 0 #
straight-curve $-1 -0.315 -0.29 0.16 1 0 0 #
point $-1 -0.265 -0.29 0.16 #
point $-1 0.266 -0.68 0.1 #
coedge $-1 $644 $651 $642 $713 1 $432 $-1 #
edge $-1 $646 $653 $712 $748 1 #
plane-surface $-1 0.158 0.225 0.25 0 1 0 0 0 1 0 #
ellipse-curve $-1 -0.158 0.158 0.07 0 0 1 0 0.067 0 1 #
point $-1 -0.158 0.225 0.07 #
ellipse-curve $-1 0.158 0.158 0.07 0 0 1 0.067 0 0 1 #
point $-1 0.158 0.225 0.07 #
straight-curve $-1 0.315 0.68 0.16 -1 0 0 #
straight-curve $-1 0.265 -0.59 0.18 1 0 0 #
face $-1 $482 $729 $3 $-1 $749 forward single #
loop $-1 $-1 $750 $668 #
plane-surface $-1 -0.265 0.29 0.16 1 0 0 0 0 -1 0 #
coedge $-1 $751 $671 $728 $752 1 $578 $-1 #
coedge $-1 $671 $751 $735 $753 1 $578 $-1 #
edge $-1 $737 $730 $672 $754 0 #
coedge $-1 $755 $673 $675 $733 0 $729 $-1 #
coedge $-1 $673 $755 $724 $752 0 $729 $-1 #
loop $-1 $-1 $755 $721 #
vertex $-1 $752 $756 #
straight-curve $-1 -0.315 0.29 0.16 0 0 1 #
coedge $-1 $675 $682 $757 $758 1 $28 $-1 #
edge $-1 $676 $759 $675 $760 0 #
point $-1 -0.315 0.29 0.16 #
coedge $-1 $761 $680 $725 $753 0 $669 $-1 #
coedge $-1 $680 $761 $682 $739 0 $669 $-1 #
vertex $-1 $753 $762 #
straight-curve $-1 -0.315 0.59 0.16 0 0 1 #
edge $-1 $763 $683 $682 $764 0 #
point $-1 -0.315 0.59 0.16 #
straight-curve $-1 0.266 -0.59 0.16 0 -1 0 #
point $-1 0.266 -0.59 0.16 #
point $-1 0.265 -0.59 0.18 #
straight-curve $-1 0.265 -0.59 0.16 1 0 0 #
plane-surface $-1 0.266 -0.55 0.16 -1 0 0 0 0 1 0 #
straight-curve $-1 0.266 -0.55 0.1 0 -1 0 #
plane-surface $-1 0.265 -0.59 0.16 0 -1 0 0 0 -1 0 #
straight-curve $-1 0.158 0.225 0.07 -1 0 0 #
plane-surface $-1 -0.315 0.29 0.16 0 -1 0 0 0 -1 0 #
coedge $-1 $765 $757 $761 $766 0 $722 $-1 #
coedge $-1 $725 $724 $765 $767 1 $578 $-1 #
edge $-1 $768 $730 $724 $769 1 #
edge $-1 $737 $770 $725 $771 1 #
straight-curve $-1 -0.315 0.59 0.18 0 -1 0 #
coedge $-1 $728 $727 $772 $773 1 $729 $-1 #
point $-1 -0.315 0.29 0.18 #
coedge $-1 $750 $772 $732 $758 0 $722 $-1 #
edge $-1 $759 $763 $732 $774 0 #
vertex $-1 $773 $775 #
straight-curve $-1 -0.315 0.29 0.16 1 0 0 #
coedge $-1 $736 $735 $750 $766 1 $669 $-1 #
point $-1 -0.315 0.59 0.18 #
vertex $-1 $766 $776 #
straight-curve $-1 -0.265 0.59 0.16 -1 0 0 #
coedge $-1 $772 $750 $751 $767 0 $722 $-1 #
edge $-1 $763 $770 $761 $777 0 #
edge $-1 $770 $768 $751 $778 1 #
vertex $-1 $773 $779 #
straight-curve $-1 -0.315 0.29 0.18 1 0 0 #
vertex $-1 $766 $780 #
straight-curve $-1 -0.265 0.59 0.18 -1 0 0 #
coedge $-1 $757 $765 $755 $773 0 $722 $-1 #
edge $-1 $768 $759 $755 $781 1 #
straight-curve $-1 -0.265 0.29 0.16 0 1 0 #
point $-1 -0.265 0.29 0.16 #
point $-1 -0.265 0.59 0.16 #
straight-curve $-1 -0.265 0.59 0.16 0 0 1 #
straight-curve $-1 -0.265 0.29 0.18 0 1 0 #
point $-1 -0.265 0.29 0.18 #
point $-1 -0.265 0.59 0.18 #
straight-curve $-1 -0.265 0.29 0.16 0 0 1 #
