600 0 1 0           
70 GICL ACIS Healer - Source: /gicl/data5/repository/tmp/center.sat - 6 0 18 ACIS 6.0.3 Solaris 24 Sun Apr 14 00:17:19 2002 
1 9.999999999999999547e-07 1.000000000000000036e-10 
body $-1 $1 $-1 $2 #
lump $-1 $-1 $3 $0 #
transform $-1 1 0 0 0 1 0 0 0 1 0 0 0 1 no_rotate no_reflect no_shear #
shell $-1 $-1 $-1 $4 $-1 $1 #
face $-1 $5 $6 $3 $-1 $7 forward single #
face $-1 $8 $9 $3 $-1 $7 forward single #
loop $-1 $10 $11 $4 #
plane-surface $-1 -0.3150000000000000022 -0.3949119999999999853 0.1600000000000000033 0 0 1 1 0 0 forward_v I I I I #
face $-1 $12 $13 $3 $-1 $14 reversed single #
loop $-1 $-1 $15 $5 #
loop $-1 $16 $17 $4 #
coedge $-1 $11 $11 $18 $19 forward $6 $-1 #
face $-1 $20 $21 $3 $-1 $22 reversed single #
loop $-1 $-1 $23 $8 #
plane-surface $-1 -0.3150000000000000022 0.3949119999999999853 0.1799999999999999933 0 0 -1 -1 0 0 forward_v I I I I #
coedge $-1 $24 $25 $26 $27 reversed $9 $-1 #
loop $-1 $28 $29 $4 #
coedge $-1 $17 $17 $30 $31 forward $10 $-1 #
coedge $-1 $18 $18 $11 $19 reversed $32 $-1 #
edge $-1 $33 -6.28318530717958712 $33 -6.895795184007179733e-16 $18 $34 reversed 7 unknown #
face $-1 $35 $36 $3 $-1 $37 reversed single #
loop $-1 $-1 $38 $12 #
plane-surface $-1 0.3150000000000000022 0.28999999999999998 0.1600000000000000033 0 1 0 0 0 1 forward_v I I I I #
coedge $-1 $39 $40 $41 $42 reversed $13 $-1 #
coedge $-1 $43 $15 $44 $45 reversed $9 $-1 #
coedge $-1 $15 $43 $46 $47 reversed $9 $-1 #
coedge $-1 $48 $49 $15 $27 forward $50 $-1 #
edge $-1 $51 0 $52 0.09000000000000007994 $15 $53 forward 7 unknown #
loop $-1 $-1 $54 $4 #
coedge $-1 $55 $56 $57 $58 reversed $16 $-1 #
coedge $-1 $30 $30 $17 $31 reversed $59 $-1 #
edge $-1 $60 -3.141592653589793116 $60 3.141592653589793116 $30 $61 forward 7 unknown #
loop $-1 $-1 $18 $62 #
vertex $-1 $19 $63 #
ellipse-curve $-1 0 0.3599999999999999867 0.1600000000000000033 3.447897592003589866e-16 -2.377599560988829906e-31 1 -0.08050000000000000211 5.551115123125780237e-17 2.775557561562890118e-17 1 I I #
face $-1 $64 $65 $3 $-1 $66 reversed single #
loop $-1 $-1 $67 $20 #
plane-surface $-1 0.2650000000000000133 0.28999999999999998 0.1600000000000000033 1 0 0 0 0 -1 forward_v I I I I #
coedge $-1 $68 $69 $70 $71 forward $21 $-1 #
coedge $-1 $72 $23 $68 $73 reversed $13 $-1 #
coedge $-1 $23 $72 $74 $75 reversed $13 $-1 #
coedge $-1 $76 $67 $23 $42 forward $36 $-1 #
edge $-1 $77 0 $78 0.2999999999999999889 $23 $79 forward 7 unknown #
coedge $-1 $25 $24 $80 $81 forward $9 $-1 #
coedge $-1 $82 $83 $24 $45 forward $84 $-1 #
edge $-1 $85 -0.04899999999999998801 $51 -0 $24 $86 reversed 7 unknown #
coedge $-1 $87 $88 $25 $47 forward $89 $-1 #
edge $-1 $52 0 $90 0.04899999999999998801 $25 $91 forward 7 unknown #
coedge $-1 $92 $26 $88 $93 reversed $50 $-1 #
coedge $-1 $26 $94 $95 $96 forward $50 $-1 #
loop $-1 $-1 $92 $97 #
vertex $-1 $96 $98 #
vertex $-1 $93 $99 #
straight-curve $-1 -0.2660000000000000142 -0.5899999999999999689 0.1600000000000000033 0 -1 0 I I #
coedge $-1 $100 $101 $102 $103 reversed $28 $-1 #
coedge $-1 $104 $29 $105 $106 reversed $16 $-1 #
coedge $-1 $29 $107 $108 $109 reversed $16 $-1 #
coedge $-1 $110 $111 $29 $58 forward $112 $-1 #
edge $-1 $113 0 $114 0.3160000000000000031 $29 $115 forward 7 unknown #
loop $-1 $116 $30 $64 #
vertex $-1 $31 $117 #
ellipse-curve $-1 0 -0.3599999999999999867 0.1600000000000000033 -3.447897592003589866e-16 0 -1 -0.08050000000000000211 0 2.775557561562890118e-17 1 I I #
face $-1 $-1 $118 $3 $-1 $119 reversed single #
point $-1 -0.08050000000000000211 0.3599999999999999867 0.1600000000000000033 #
face $-1 $120 $59 $3 $-1 $121 reversed single #
loop $-1 $-1 $122 $35 #
plane-surface $-1 0.2650000000000000133 0.5899999999999999689 0.1600000000000000033 0 -1 0 0 0 -1 forward_v I I I I #
coedge $-1 $41 $123 $124 $125 forward $36 $-1 #
coedge $-1 $124 $38 $39 $73 forward $21 $-1 #
coedge $-1 $38 $124 $126 $127 forward $21 $-1 #
coedge $-1 $128 $129 $38 $71 reversed $130 $-1 #
edge $-1 $131 0 $132 0.01999999999999999001 $70 $133 forward 7 unknown #
coedge $-1 $40 $39 $129 $134 forward $13 $-1 #
edge $-1 $132 0 $77 0.0499999999999999889 $39 $135 forward 7 unknown #
coedge $-1 $136 $122 $40 $75 forward $65 $-1 #
edge $-1 $78 0 $137 0.0499999999999999889 $40 $138 forward 7 unknown #
coedge $-1 $123 $41 $122 $139 forward $36 $-1 #
vertex $-1 $125 $140 #
vertex $-1 $139 $141 #
straight-curve $-1 0.2650000000000000133 0.28999999999999998 0.1799999999999999933 0 1 0 I I #
coedge $-1 $142 $143 $43 $81 reversed $144 $-1 #
edge $-1 $85 0 $90 0.09000000000000007994 $80 $145 forward 7 unknown #
coedge $-1 $146 $44 $147 $148 reversed $84 $-1 #
coedge $-1 $44 $149 $142 $150 forward $84 $-1 #
loop $-1 $-1 $146 $151 #
vertex $-1 $45 $152 #
straight-curve $-1 -0.2660000000000000142 -0.5899999999999999689 0.1600000000000000033 -1 0 0 I I #
coedge $-1 $153 $46 $143 $154 forward $89 $-1 #
coedge $-1 $46 $155 $48 $93 forward $89 $-1 #
loop $-1 $-1 $153 $156 #
vertex $-1 $47 $157 #
straight-curve $-1 -0.2660000000000000142 -0.6800000000000000488 0.1600000000000000033 -1 0 0 I I #
coedge $-1 $94 $48 $158 $159 forward $50 $-1 #
edge $-1 $160 0 $52 0.05999999999999999778 $48 $161 forward 7 unknown #
coedge $-1 $49 $92 $162 $163 forward $50 $-1 #
coedge $-1 $164 $147 $49 $96 reversed $165 $-1 #
edge $-1 $166 0 $51 0.0399999999999999245 $95 $167 forward 7 unknown #
face $-1 $168 $50 $3 $-1 $169 reversed single #
point $-1 -0.2660000000000000142 -0.5899999999999999689 0.1600000000000000033 #
point $-1 -0.2660000000000000142 -0.6800000000000000488 0.1600000000000000033 #
coedge $-1 $170 $54 $171 $172 reversed $28 $-1 #
coedge $-1 $54 $173 $174 $175 reversed $28 $-1 #
coedge $-1 $176 $177 $54 $103 forward $178 $-1 #
edge $-1 $179 -0.1300000000000000044 $180 -0 $54 $181 reversed 7 unknown #
coedge $-1 $182 $55 $183 $184 reversed $16 $-1 #
coedge $-1 $185 $186 $55 $106 forward $187 $-1 #
edge $-1 $188 0 $113 1.570796326794896558 $55 $189 forward 7 unknown #
coedge $-1 $56 $190 $191 $192 reversed $16 $-1 #
coedge $-1 $193 $194 $56 $109 forward $195 $-1 #
edge $-1 $114 -4.142623226213268333e-16 $196 1.570796326794896114 $56 $197 forward 7 unknown #
coedge $-1 $198 $57 $194 $199 forward $112 $-1 #
coedge $-1 $57 $198 $185 $200 forward $112 $-1 #
loop $-1 $-1 $110 $201 #
vertex $-1 $200 $202 #
vertex $-1 $199 $203 #
straight-curve $-1 -0.1580000000000000016 -0.2250000000000000056 0.1600000000000000033 1 0 0 I I #
loop $-1 $-1 $204 $64 #
point $-1 0.08050000000000000211 -0.3599999999999999867 0.1600000000000000033 #
loop $-1 $32 $205 $62 #
cone-surface $-1 0 0.3599999999999999867 0 0 0 1 0.08050000000000000211 0 0 1 I I 0 1 0.08050000000000000211 forward I I I I #
face $-1 $201 $195 $3 $-1 $206 reversed single #
cone-surface $-1 0 -0.3599999999999999867 0 0 0 -1 0.08050000000000000211 0 0 1 I I 0 1 0.08050000000000000211 forward I I I I #
coedge $-1 $74 $207 $76 $139 reversed $65 $-1 #
coedge $-1 $67 $76 $208 $209 forward $36 $-1 #
coedge $-1 $69 $68 $67 $125 reversed $21 $-1 #
edge $-1 $210 0 $77 0.01999999999999999001 $124 $211 forward 7 unknown #
coedge $-1 $208 $212 $69 $127 reversed $28 $-1 #
edge $-1 $210 -0.0499999999999999889 $131 -0 $126 $213 reversed 7 unknown #
coedge $-1 $214 $70 $212 $215 reversed $130 $-1 #
coedge $-1 $70 $216 $72 $134 reversed $130 $-1 #
loop $-1 $-1 $217 $218 #
vertex $-1 $127 $219 #
vertex $-1 $73 $220 #
straight-curve $-1 0.3150000000000000022 0.28999999999999998 0.1600000000000000033 0 0 1 I I #
edge $-1 $132 -0.2999999999999999889 $137 -0 $129 $221 reversed 7 unknown #
straight-curve $-1 0.3150000000000000022 0.28999999999999998 0.1799999999999999933 -1 0 0 I I #
coedge $-1 $207 $74 $216 $222 forward $65 $-1 #
vertex $-1 $75 $223 #
straight-curve $-1 0.2650000000000000133 0.5899999999999999689 0.1799999999999999933 1 0 0 I I #
edge $-1 $78 -0.01999999999999999001 $224 -0 $122 $225 reversed 7 unknown #
point $-1 0.2650000000000000133 0.28999999999999998 0.1799999999999999933 #
point $-1 0.2650000000000000133 0.5899999999999999689 0.1799999999999999933 #
coedge $-1 $226 $80 $83 $150 reversed $144 $-1 #
coedge $-1 $80 $227 $87 $154 reversed $144 $-1 #
loop $-1 $-1 $80 $228 #
straight-curve $-1 -0.3150000000000000022 -0.5899999999999999689 0.1600000000000000033 0 -1 0 I I #
coedge $-1 $149 $82 $229 $230 reversed $84 $-1 #
coedge $-1 $95 $231 $82 $148 forward $165 $-1 #
edge $-1 $232 0 $51 0.001000000000000000888 $82 $233 forward 7 unknown #
coedge $-1 $83 $146 $234 $235 forward $84 $-1 #
edge $-1 $236 -0.01999999999999999001 $85 -0 $142 $237 reversed 7 unknown #
face $-1 $228 $84 $3 $-1 $238 reversed single #
point $-1 -0.3150000000000000022 -0.5899999999999999689 0.1600000000000000033 #
coedge $-1 $239 $87 $240 $241 forward $89 $-1 #
edge $-1 $90 -0.08999999999999999667 $242 -0 $143 $243 reversed 7 unknown #
coedge $-1 $88 $244 $245 $246 forward $89 $-1 #
face $-1 $247 $89 $3 $-1 $248 reversed single #
point $-1 -0.3150000000000000022 -0.6800000000000000488 0.1600000000000000033 #
coedge $-1 $245 $249 $92 $159 reversed $250 $-1 #
edge $-1 $160 -0.1300000000000000044 $251 -0 $158 $252 reversed 7 unknown #
vertex $-1 $93 $253 #
straight-curve $-1 -0.2660000000000000142 -0.6800000000000000488 0.1000000000000000056 0 0 1 I I #
coedge $-1 $254 $255 $94 $163 reversed $256 $-1 #
edge $-1 $251 -0.05999999999999999778 $166 -0 $162 $257 reversed 7 unknown #
coedge $-1 $231 $95 $255 $258 reversed $165 $-1 #
loop $-1 $-1 $95 $259 #
vertex $-1 $163 $260 #
straight-curve $-1 -0.2660000000000000142 -0.5500000000000000444 0.1600000000000000033 0 -1 0 I I #
face $-1 $62 $261 $3 $-1 $7 forward single #
plane-surface $-1 -0.2660000000000000142 -0.5500000000000000444 0.1600000000000000033 -1 0 0 0 0 1 forward_v I I I I #
coedge $-1 $262 $100 $263 $264 reversed $28 $-1 #
coedge $-1 $265 $266 $100 $172 forward $267 $-1 #
edge $-1 $268 -2.941257811266678068 $179 -2.220446049250319786e-15 $100 $269 reversed 7 unknown #
coedge $-1 $101 $270 $271 $272 reversed $28 $-1 #
coedge $-1 $244 $273 $101 $175 forward $89 $-1 #
edge $-1 $180 0 $274 0.3320000000000000173 $101 $275 forward 7 unknown #
coedge $-1 $276 $102 $273 $277 reversed $178 $-1 #
coedge $-1 $102 $276 $265 $278 forward $178 $-1 #
loop $-1 $-1 $276 $279 #
vertex $-1 $278 $280 #
vertex $-1 $277 $281 #
straight-curve $-1 0.1660000000000000087 -0.6800000000000000488 0.1600000000000000033 0 1 0 I I #
coedge $-1 $282 $104 $283 $284 reversed $16 $-1 #
coedge $-1 $285 $286 $104 $184 forward $287 $-1 #
edge $-1 $288 0 $188 0.3160000000000000031 $104 $289 forward 7 unknown #
coedge $-1 $290 $105 $111 $200 reversed $187 $-1 #
coedge $-1 $105 $290 $285 $291 forward $187 $-1 #
loop $-1 $-1 $185 $292 #
vertex $-1 $291 $293 #
ellipse-curve $-1 -0.1580000000000000016 -0.1580000000000000016 0.1600000000000000033 0 0 1 -0.067000000000000004 0 0 1 I I #
coedge $-1 $107 $282 $294 $295 reversed $16 $-1 #
coedge $-1 $296 $297 $107 $192 forward $298 $-1 #
edge $-1 $196 0 $299 0.3160000000000000031 $107 $300 forward 7 unknown #
coedge $-1 $301 $108 $297 $302 reversed $195 $-1 #
coedge $-1 $108 $301 $110 $199 reversed $195 $-1 #
loop $-1 $-1 $193 $120 #
vertex $-1 $302 $303 #
ellipse-curve $-1 0.1580000000000000016 -0.1580000000000000016 0.1600000000000000033 0 0 1 2.775557561562890118e-17 -0.067000000000000004 0 1 I I #
coedge $-1 $111 $110 $304 $305 forward $112 $-1 #
edge $-1 $114 0 $306 0.08999999999999999667 $194 $307 forward 7 unknown #
edge $-1 $308 -0.08999999999999999667 $113 -0 $185 $309 reversed 7 unknown #
face $-1 $292 $112 $3 $-1 $310 reversed single #
point $-1 -0.1580000000000000016 -0.2250000000000000056 0.1600000000000000033 #
point $-1 0.1580000000000000016 -0.2250000000000000056 0.1600000000000000033 #
coedge $-1 $204 $204 $311 $312 reversed $116 $-1 #
coedge $-1 $205 $205 $313 $314 reversed $118 $-1 #
cone-surface $-1 0.1580000000000000016 -0.1580000000000000016 0.25 0 0 1 -0.067000000000000004 0 0 1 I I 0 1 0.067000000000000004 forward I I I I #
coedge $-1 $122 $136 $315 $316 forward $65 $-1 #
coedge $-1 $315 $126 $123 $209 reversed $28 $-1 #
edge $-1 $224 -0.2999999999999999889 $210 -0 $208 $317 reversed 7 unknown #
vertex $-1 $125 $318 #
straight-curve $-1 0.2650000000000000133 0.28999999999999998 0.1600000000000000033 0 0 1 I I #
coedge $-1 $126 $262 $128 $215 forward $28 $-1 #
straight-curve $-1 0.3150000000000000022 0.28999999999999998 0.1600000000000000033 -1 0 0 I I #
coedge $-1 $319 $128 $320 $321 reversed $130 $-1 #
edge $-1 $322 -0.57999999999999996 $131 -0 $128 $323 reversed 7 unknown #
coedge $-1 $129 $324 $136 $222 reversed $130 $-1 #
coedge $-1 $325 $326 $327 $328 reversed $130 $-1 #
face $-1 $329 $130 $3 $-1 $330 reversed single #
point $-1 0.3150000000000000022 0.28999999999999998 0.1600000000000000033 #
point $-1 0.3150000000000000022 0.28999999999999998 0.1799999999999999933 #
straight-curve $-1 0.3150000000000000022 0.5899999999999999689 0.1799999999999999933 0 -1 0 I I #
edge $-1 $137 -0.01999999999999999001 $331 -0 $216 $332 reversed 7 unknown #
point $-1 0.3150000000000000022 0.5899999999999999689 0.1799999999999999933 #
vertex $-1 $139 $333 #
straight-curve $-1 0.2650000000000000133 0.5899999999999999689 0.1600000000000000033 0 0 1 I I #
coedge $-1 $334 $142 $335 $336 reversed $144 $-1 #
coedge $-1 $143 $337 $338 $339 reversed $144 $-1 #
face $-1 $340 $144 $3 $-1 $341 reversed single #
coedge $-1 $342 $343 $146 $230 forward $344 $-1 #
edge $-1 $345 -0.01999999999999999001 $232 -0 $146 $346 reversed 7 unknown #
coedge $-1 $147 $164 $342 $347 forward $165 $-1 #
vertex $-1 $347 $348 #
straight-curve $-1 -0.2650000000000000133 -0.5899999999999999689 0.1600000000000000033 -1 0 0 I I #
coedge $-1 $349 $335 $149 $235 reversed $350 $-1 #
edge $-1 $345 0 $236 0.0499999999999999889 $234 $351 forward 7 unknown #
vertex $-1 $235 $352 #
straight-curve $-1 -0.3150000000000000022 -0.5899999999999999689 0.1600000000000000033 0 0 1 I I #
plane-surface $-1 -0.2650000000000000133 -0.5899999999999999689 0.1600000000000000033 0 1 0 0 0 1 forward_v I I I I #
coedge $-1 $353 $153 $326 $354 forward $89 $-1 #
coedge $-1 $338 $327 $153 $241 reversed $355 $-1 #
edge $-1 $242 0 $356 0.6300000000000000044 $240 $357 forward 7 unknown #
vertex $-1 $241 $358 #
straight-curve $-1 -0.3150000000000000022 -0.6800000000000000488 0.07000000000000000666 0 0 1 I I #
coedge $-1 $155 $174 $359 $360 forward $89 $-1 #
coedge $-1 $361 $158 $155 $246 reversed $250 $-1 #
edge $-1 $362 0 $160 0.1000000000000000056 $245 $363 forward 7 unknown #
face $-1 $218 $355 $3 $-1 $364 forward single #
plane-surface $-1 0 -0.6800000000000000488 0 0 1 0 0 0 1 forward_v I I I I #
coedge $-1 $158 $361 $254 $365 reversed $250 $-1 #
loop $-1 $-1 $361 $366 #
vertex $-1 $163 $367 #
straight-curve $-1 -0.2660000000000000142 -0.5500000000000000444 0.1000000000000000056 0 -1 0 I I #
point $-1 -0.2660000000000000142 -0.6800000000000000488 0.1000000000000000056 #
coedge $-1 $368 $162 $249 $365 forward $256 $-1 #
coedge $-1 $162 $369 $164 $258 forward $256 $-1 #
loop $-1 $-1 $255 $370 #
straight-curve $-1 -0.2660000000000000142 -0.5500000000000000444 0.1600000000000000033 0 0 -1 I I #
edge $-1 $371 -2.168404344971011235e-15 $166 0.2003348423231152697 $164 $372 forward 7 unknown #
face $-1 $370 $165 $3 $-1 $373 reversed single #
point $-1 -0.2660000000000000142 -0.5500000000000000444 0.1600000000000000033 #
loop $-1 $-1 $374 $168 #
coedge $-1 $212 $170 $375 $376 reversed $28 $-1 #
coedge $-1 $377 $378 $170 $264 forward $379 $-1 #
edge $-1 $380 0 $268 0.2500501256289339724 $170 $381 forward 7 unknown #
coedge $-1 $382 $171 $177 $278 reversed $267 $-1 #
coedge $-1 $171 $383 $384 $385 forward $267 $-1 #
loop $-1 $-1 $265 $386 #
vertex $-1 $385 $387 #
ellipse-curve $-1 0.2159999999999999976 -0.5500000000000000444 0.1600000000000000033 0 0 -1 -0.05000000000000000278 -1.110223024625159992e-16 0 1 I I #
coedge $-1 $173 $388 $369 $389 reversed $28 $-1 #
coedge $-1 $390 $359 $173 $272 forward $391 $-1 #
edge $-1 $274 0 $392 0.1300000000000000044 $173 $393 forward 7 unknown #
coedge $-1 $174 $394 $176 $277 forward $89 $-1 #
vertex $-1 $360 $395 #
straight-curve $-1 0.1660000000000000087 -0.6800000000000000488 0.1600000000000000033 -1 0 0 I I #
coedge $-1 $177 $176 $396 $397 forward $178 $-1 #
edge $-1 $398 0 $180 0.05999999999999999778 $176 $399 forward 7 unknown #
edge $-1 $400 -0.05999999999999999778 $179 -0 $265 $401 reversed 7 unknown #
face $-1 $386 $178 $3 $-1 $402 forward single #
point $-1 0.1660000000000000087 -0.5500000000000000444 0.1600000000000000033 #
point $-1 0.1660000000000000087 -0.6800000000000000488 0.1600000000000000033 #
coedge $-1 $190 $182 $403 $404 reversed $16 $-1 #
coedge $-1 $405 $406 $182 $284 forward $407 $-1 #
edge $-1 $408 0 $288 1.570796326794896558 $182 $409 forward 7 unknown #
coedge $-1 $410 $183 $186 $291 reversed $287 $-1 #
coedge $-1 $183 $410 $405 $411 forward $287 $-1 #
loop $-1 $-1 $285 $412 #
vertex $-1 $411 $413 #
straight-curve $-1 -0.2250000000000000056 0.1580000000000000016 0.1600000000000000033 0 -1 0 I I #
coedge $-1 $186 $185 $414 $415 forward $187 $-1 #
edge $-1 $416 -0.08999999999999999667 $188 -0 $285 $417 reversed 7 unknown #
face $-1 $412 $187 $3 $-1 $418 reversed single #
point $-1 -0.2250000000000000056 -0.1580000000000000016 0.1600000000000000033 #
coedge $-1 $419 $420 $190 $295 forward $421 $-1 #
edge $-1 $299 4.142623226213268333e-16 $422 1.570796326794897224 $190 $423 forward 7 unknown #
coedge $-1 $424 $191 $420 $425 reversed $298 $-1 #
coedge $-1 $191 $424 $193 $302 forward $298 $-1 #
loop $-1 $-1 $296 $426 #
vertex $-1 $425 $427 #
straight-curve $-1 0.2250000000000000056 -0.1580000000000000016 0.1600000000000000033 0 1 0 I I #
coedge $-1 $194 $193 $428 $429 forward $195 $-1 #
edge $-1 $430 -0.08999999999999999667 $196 -0 $193 $431 reversed 7 unknown #
point $-1 0.2250000000000000056 -0.1580000000000000016 0.1600000000000000033 #
coedge $-1 $428 $414 $198 $305 reversed $432 $-1 #
edge $-1 $306 -0.3160000000000000031 $308 -0 $304 $433 reversed 7 unknown #
vertex $-1 $199 $434 #
straight-curve $-1 0.1580000000000000016 -0.2250000000000000056 0.1600000000000000033 0 0 -1 I I #
vertex $-1 $200 $435 #
straight-curve $-1 -0.1580000000000000016 -0.2250000000000000056 0.1600000000000000033 0 0 -1 I I #
plane-surface $-1 -0.1580000000000000016 -0.2250000000000000056 0.25 0 -1 0 0 0 -1 forward_v I I I I #
coedge $-1 $311 $311 $204 $312 forward $436 $-1 #
edge $-1 $437 -3.141592653589793116 $437 3.141592653589793116 $204 $438 reversed 7 unknown #
coedge $-1 $313 $313 $205 $314 forward $439 $-1 #
edge $-1 $440 -3.141592653589793116 $440 3.141592653589793116 $205 $441 forward 7 unknown #
coedge $-1 $442 $208 $207 $316 reversed $28 $-1 #
edge $-1 $331 -0.0499999999999999889 $224 -0 $315 $443 reversed 7 unknown #
straight-curve $-1 0.2650000000000000133 0.28999999999999998 0.1600000000000000033 0 1 0 I I #
point $-1 0.2650000000000000133 0.28999999999999998 0.1600000000000000033 #
coedge $-1 $444 $214 $445 $446 reversed $130 $-1 #
coedge $-1 $375 $447 $214 $321 forward $448 $-1 #
edge $-1 $449 -0.01999999999999999001 $322 -0 $214 $450 reversed 7 unknown #
vertex $-1 $376 $451 #
straight-curve $-1 0.3150000000000000022 0.28999999999999998 0.1600000000000000033 0 -1 0 I I #
coedge $-1 $216 $325 $442 $452 reversed $130 $-1 #
coedge $-1 $324 $217 $453 $454 reversed $130 $-1 #
coedge $-1 $217 $455 $239 $354 reversed $130 $-1 #
coedge $-1 $240 $456 $217 $328 forward $355 $-1 #
edge $-1 $457 0 $356 1.360000000000000098 $217 $458 forward 7 unknown #
face $-1 $459 $460 $3 $-1 $461 reversed single #
plane-surface $-1 0.3150000000000000022 0.7524999999999999467 0.25 -1 0 0 0 0 1 forward_v I I I I #
vertex $-1 $316 $462 #
straight-curve $-1 0.3150000000000000022 0.5899999999999999689 0.1600000000000000033 0 0 1 I I #
point $-1 0.2650000000000000133 0.5899999999999999689 0.1600000000000000033 #
coedge $-1 $463 $226 $464 $465 reversed $144 $-1 #
coedge $-1 $234 $466 $226 $336 forward $350 $-1 #
edge $-1 $467 -0.2999999999999999889 $236 -0 $226 $468 reversed 7 unknown #
coedge $-1 $227 $469 $470 $471 reversed $144 $-1 #
coedge $-1 $456 $240 $227 $339 forward $355 $-1 #
edge $-1 $242 0 $472 1.360000000000000098 $227 $473 forward 7 unknown #
face $-1 $474 $475 $3 $-1 $476 reversed single #
plane-surface $-1 -0.3150000000000000022 -0.7524999999999999467 0.25 1 0 0 0 0 -1 forward_v I I I I #
coedge $-1 $477 $229 $231 $347 reversed $344 $-1 #
coedge $-1 $229 $478 $349 $479 forward $344 $-1 #
loop $-1 $-1 $477 $474 #
vertex $-1 $230 $480 #
straight-curve $-1 -0.2650000000000000133 -0.5899999999999999689 0.1600000000000000033 0 0 1 I I #
edge $-1 $371 -0.04994987437106601647 $232 -0 $342 $481 reversed 7 unknown #
point $-1 -0.2650000000000000133 -0.5899999999999999689 0.1600000000000000033 #
coedge $-1 $466 $234 $343 $479 reversed $350 $-1 #
loop $-1 $-1 $349 $482 #
straight-curve $-1 -0.2650000000000000133 -0.5899999999999999689 0.1799999999999999933 -1 0 0 I I #
point $-1 -0.3150000000000000022 -0.5899999999999999689 0.1799999999999999933 #
coedge $-1 $483 $239 $484 $485 forward $89 $-1 #
edge $-1 $356 0 $486 0.08999999999999999667 $326 $487 forward 7 unknown #
loop $-1 $432 $338 $247 #
vertex $-1 $241 $488 #
straight-curve $-1 -0.3150000000000000022 -0.6800000000000000488 0.07000000000000000666 1 0 0 I I #
point $-1 -0.3150000000000000022 -0.6800000000000000488 0.07000000000000000666 #
coedge $-1 $271 $489 $244 $360 reversed $391 $-1 #
edge $-1 $274 -0.05999999999999999778 $362 -0 $359 $490 reversed 7 unknown #
coedge $-1 $249 $245 $489 $491 reversed $250 $-1 #
vertex $-1 $360 $492 #
straight-curve $-1 -0.1660000000000000087 -0.6800000000000000488 0.1000000000000000056 -1 0 0 I I #
plane-surface $-1 0 0 0.07000000000000000666 0 0 -1 -1 0 0 forward_v I I I I #
edge $-1 $251 -3.141592653589795336 $493 -2.220446049250319786e-15 $249 $494 reversed 7 unknown #
face $-1 $97 $250 $3 $-1 $495 forward single #
point $-1 -0.2660000000000000142 -0.5500000000000000444 0.1000000000000000056 #
coedge $-1 $369 $254 $390 $496 reversed $256 $-1 #
coedge $-1 $255 $368 $270 $389 forward $256 $-1 #
face $-1 $497 $256 $3 $-1 $498 reversed single #
vertex $-1 $258 $499 #
ellipse-curve $-1 -0.2159999999999999976 -0.5500000000000000444 0.1600000000000000033 0 0 1 -0.04900000000000000189 0.009949874371065979203 0 1 I I #
plane-surface $-1 -0.3150000000000000022 -0.3949119999999999853 0.1600000000000000033 0 0 1 1 0 0 forward_v I I I I #
coedge $-1 $500 $484 $455 $501 forward $261 $-1 #
coedge $-1 $502 $320 $262 $376 forward $448 $-1 #
edge $-1 $322 0 $380 0.0499999999999999889 $262 $503 forward 7 unknown #
coedge $-1 $504 $263 $505 $506 reversed $379 $-1 #
coedge $-1 $263 $507 $502 $508 forward $379 $-1 #
loop $-1 $-1 $504 $509 #
vertex $-1 $508 $510 #
straight-curve $-1 0.2650000000000000133 -0.28999999999999998 0.1600000000000000033 0 -1 0 I I #
coedge $-1 $383 $265 $511 $512 forward $267 $-1 #
coedge $-1 $266 $382 $513 $514 reversed $267 $-1 #
coedge $-1 $515 $505 $266 $385 reversed $516 $-1 #
edge $-1 $517 -0.2003348423231174347 $268 -2.168404344971010101e-17 $384 $518 reversed 7 unknown #
face $-1 $519 $267 $3 $-1 $520 reversed single #
point $-1 0.2650000000000000133 -0.5400501256289339524 0.1600000000000000033 #
coedge $-1 $270 $521 $477 $522 reversed $28 $-1 #
edge $-1 $392 2.220446049250319786e-15 $371 2.941257811266678068 $270 $523 forward 7 unknown #
coedge $-1 $489 $271 $368 $496 forward $391 $-1 #
loop $-1 $-1 $271 $497 #
vertex $-1 $496 $524 #
straight-curve $-1 -0.1660000000000000087 -0.6800000000000000488 0.1600000000000000033 0 1 0 I I #
coedge $-1 $273 $483 $525 $526 forward $89 $-1 #
point $-1 -0.1660000000000000087 -0.6800000000000000488 0.1600000000000000033 #
coedge $-1 $525 $511 $276 $397 reversed $527 $-1 #
edge $-1 $398 0 $400 0.1300000000000000044 $396 $528 forward 7 unknown #
vertex $-1 $277 $529 #
straight-curve $-1 0.1660000000000000087 -0.6800000000000000488 0.1000000000000000056 0 0 1 I I #
vertex $-1 $278 $530 #
straight-curve $-1 0.1660000000000000087 -0.5500000000000000444 0.1600000000000000033 0 0 -1 I I #
plane-surface $-1 0.1660000000000000087 -0.8066421356237309936 0.1600000000000000033 1 0 0 0 0 -1 forward_v I I I I #
coedge $-1 $531 $532 $282 $404 forward $533 $-1 #
edge $-1 $422 0 $408 0.3160000000000000031 $282 $534 forward 7 unknown #
coedge $-1 $535 $283 $286 $411 reversed $407 $-1 #
coedge $-1 $283 $535 $531 $536 forward $407 $-1 #
loop $-1 $-1 $405 $537 #
vertex $-1 $536 $538 #
ellipse-curve $-1 -0.1580000000000000016 0.1580000000000000016 0.1600000000000000033 0 0 1 0 0.067000000000000004 0 1 I I #
coedge $-1 $286 $285 $539 $540 forward $287 $-1 #
edge $-1 $541 -0.08999999999999999667 $288 -0 $405 $542 reversed 7 unknown #
face $-1 $537 $287 $3 $-1 $543 reversed single #
point $-1 -0.2250000000000000056 0.1580000000000000016 0.1600000000000000033 #
coedge $-1 $304 $539 $290 $415 reversed $432 $-1 #
edge $-1 $308 -1.570796326794896558 $416 -0 $414 $544 reversed 7 unknown #
vertex $-1 $291 $545 #
straight-curve $-1 -0.2250000000000000056 -0.1580000000000000016 0.1600000000000000033 0 0 -1 I I #
cone-surface $-1 -0.1580000000000000016 -0.1580000000000000016 0.25 0 0 1 -0.067000000000000004 0 0 1 I I 0 1 0.067000000000000004 forward I I I I #
coedge $-1 $546 $294 $532 $547 reversed $421 $-1 #
coedge $-1 $294 $546 $296 $425 forward $421 $-1 #
loop $-1 $-1 $419 $548 #
vertex $-1 $547 $549 #
ellipse-curve $-1 0.1580000000000000016 0.1580000000000000016 0.1600000000000000033 0 0 1 0.067000000000000004 -2.775557561562890118e-17 0 1 I I #
coedge $-1 $297 $296 $550 $551 forward $298 $-1 #
edge $-1 $552 -0.08999999999999999667 $299 -0 $296 $553 reversed 7 unknown #
face $-1 $554 $298 $3 $-1 $555 reversed single #
point $-1 0.2250000000000000056 0.1580000000000000016 0.1600000000000000033 #
coedge $-1 $550 $304 $301 $429 reversed $432 $-1 #
edge $-1 $430 -1.570796326794896558 $306 -0 $428 $556 reversed 7 unknown #
vertex $-1 $302 $557 #
straight-curve $-1 0.2250000000000000056 -0.1580000000000000016 0.1600000000000000033 0 0 -1 I I #
loop $-1 $436 $550 $247 #
straight-curve $-1 -0.1580000000000000016 -0.2250000000000000056 0.07000000000000000666 1 0 0 I I #
point $-1 0.1580000000000000016 -0.2250000000000000056 0.07000000000000000666 #
point $-1 -0.1580000000000000016 -0.2250000000000000056 0.07000000000000000666 #
loop $-1 $439 $311 $247 #
vertex $-1 $312 $558 #
ellipse-curve $-1 0 -0.3599999999999999867 0.07000000000000000666 1.72394879600180011e-16 0 -1 -0.08050000000000000211 0 -1.38777878078144999e-17 1 I I #
loop $-1 $-1 $313 $247 #
vertex $-1 $314 $559 #
ellipse-curve $-1 0 0.3599999999999999867 0.07000000000000000666 -1.72394879600180011e-16 0 1 -0.08050000000000000211 0 -1.38777878078144999e-17 1 I I #
coedge $-1 $560 $315 $324 $452 forward $28 $-1 #
straight-curve $-1 0.2650000000000000133 0.5899999999999999689 0.1600000000000000033 1 0 0 I I #
coedge $-1 $455 $319 $561 $562 reversed $130 $-1 #
coedge $-1 $563 $564 $319 $446 forward $565 $-1 #
edge $-1 $566 0 $449 0.2999999999999999889 $319 $567 forward 7 unknown #
coedge $-1 $320 $502 $563 $568 forward $448 $-1 #
loop $-1 $-1 $502 $519 #
vertex $-1 $568 $569 #
straight-curve $-1 0.3150000000000000022 -0.28999999999999998 0.1600000000000000033 0 0 1 I I #
point $-1 0.3150000000000000022 -0.28999999999999998 0.1600000000000000033 #
edge $-1 $331 -0.09000000000000007994 $570 -0 $324 $571 reversed 7 unknown #
coedge $-1 $572 $573 $325 $454 forward $460 $-1 #
edge $-1 $570 -0.08999999999999999667 $457 -0 $325 $574 reversed 7 unknown #
coedge $-1 $326 $444 $374 $501 reversed $130 $-1 #
coedge $-1 $327 $338 $572 $575 reversed $355 $-1 #
vertex $-1 $575 $576 #
straight-curve $-1 0.3150000000000000022 0.6800000000000000488 0.07000000000000000666 0 -1 0 I I #
face $-1 $577 $578 $3 $-1 $579 forward single #
loop $-1 $-1 $573 $329 #
plane-surface $-1 0 0.6800000000000000488 0 0 -1 0 0 0 -1 forward_v I I I I #
point $-1 0.3150000000000000022 0.5899999999999999689 0.1600000000000000033 #
coedge $-1 $580 $334 $581 $582 reversed $144 $-1 #
coedge $-1 $583 $584 $334 $465 forward $475 $-1 #
edge $-1 $585 0 $467 0.01999999999999999001 $334 $586 forward 7 unknown #
coedge $-1 $335 $349 $583 $587 reversed $350 $-1 #
vertex $-1 $587 $588 #
straight-curve $-1 -0.3150000000000000022 -0.5899999999999999689 0.1799999999999999933 0 1 0 I I #
coedge $-1 $337 $589 $590 $591 reversed $144 $-1 #
coedge $-1 $573 $572 $337 $471 forward $460 $-1 #
edge $-1 $472 0 $592 0.08999999999999999667 $337 $593 forward 7 unknown #
vertex $-1 $575 $594 #
straight-curve $-1 -0.3150000000000000022 -0.6800000000000000488 0.07000000000000000666 0 1 0 I I #
face $-1 $259 $344 $3 $-1 $595 reversed single #
loop $-1 $-1 $464 $340 #
plane-surface $-1 -0.3150000000000000022 -0.28999999999999998 0.1600000000000000033 0 -1 0 0 0 -1 forward_v I I I I #
coedge $-1 $478 $342 $388 $522 forward $344 $-1 #
coedge $-1 $343 $477 $596 $597 forward $344 $-1 #
edge $-1 $598 0 $345 0.2999999999999999889 $349 $599 forward 7 unknown #
point $-1 -0.2650000000000000133 -0.5899999999999999689 0.1799999999999999933 #
straight-curve $-1 -0.2650000000000000133 -0.5899999999999999689 0.1600000000000000033 0 1 0 I I #
face $-1 $151 $350 $3 $-1 $600 reversed single #
coedge $-1 $394 $353 $601 $602 forward $89 $-1 #
coedge $-1 $374 $603 $353 $485 reversed $261 $-1 #
edge $-1 $486 0 $604 0.04899999999999998801 $484 $605 forward 7 unknown #
vertex $-1 $485 $606 #
straight-curve $-1 0.3150000000000000022 -0.6800000000000000488 0.07000000000000000666 0 0 1 I I #
point $-1 0.3150000000000000022 -0.6800000000000000488 0.07000000000000000666 #
coedge $-1 $359 $390 $361 $491 forward $391 $-1 #
straight-curve $-1 -0.1660000000000000087 -0.6800000000000000488 0.1000000000000000056 0 0 1 I I #
edge $-1 $493 -0.1300000000000000044 $362 -0 $361 $607 reversed 7 unknown #
point $-1 -0.1660000000000000087 -0.6800000000000000488 0.1000000000000000056 #
vertex $-1 $496 $608 #
ellipse-curve $-1 -0.2159999999999999976 -0.5500000000000000444 0.1000000000000000056 2.775557561562889872e-16 -6.162975822039150351e-31 1 0.05000000000000000278 -1.110223024625159992e-16 -1.38777878078144999e-17 1 I I #
plane-surface $-1 -0.3150000000000000022 -0.3949119999999999853 0.1000000000000000056 0 0 1 1 0 0 forward_v I I I I #
edge $-1 $392 0 $493 0.05999999999999999778 $368 $609 forward 7 unknown #
face $-1 $366 $391 $3 $-1 $610 reversed single #
cone-surface $-1 -0.2159999999999999976 -0.5500000000000000444 0.1600000000000000033 0 0 1 -0.05000000000000000278 0 0 1 I I 0 1 0.05000000000000000278 forward I I I I #
point $-1 -0.2650000000000000133 -0.5400501256289339524 0.1600000000000000033 #
coedge $-1 $603 $374 $611 $612 reversed $261 $-1 #
edge $-1 $486 -0.09000000000000007994 $613 -0 $455 $614 reversed 7 unknown #
coedge $-1 $447 $375 $378 $508 reversed $448 $-1 #
straight-curve $-1 0.3150000000000000022 -0.28999999999999998 0.1600000000000000033 -1 0 0 I I #
coedge $-1 $507 $377 $615 $616 forward $379 $-1 #
coedge $-1 $384 $617 $377 $506 forward $516 $-1 #
edge $-1 $618 0 $268 0.04994987437106601647 $377 $619 forward 7 unknown #
coedge $-1 $378 $504 $620 $621 forward $379 $-1 #
edge $-1 $622 -0.01999999999999999001 $380 -0 $502 $623 reversed 7 unknown #
face $-1 $624 $379 $3 $-1 $625 forward single #
point $-1 0.2650000000000000133 -0.28999999999999998 0.1600000000000000033 #
coedge $-1 $396 $626 $382 $512 reversed $527 $-1 #
edge $-1 $400 2.220446049250319786e-15 $627 3.141592653589795336 $511 $628 forward 7 unknown #
coedge $-1 $629 $630 $383 $514 forward $631 $-1 #
edge $-1 $517 0 $627 0.05999999999999999778 $383 $632 forward 7 unknown #
coedge $-1 $617 $384 $630 $633 reversed $516 $-1 #
loop $-1 $-1 $505 $624 #
vertex $-1 $514 $634 #
ellipse-curve $-1 0.2159999999999999976 -0.5500000000000000444 0.1600000000000000033 0 0 -1 0.04900000000000000189 0.009949874371066090226 0 1 I I #
face $-1 $635 $448 $3 $-1 $636 forward single #
cone-surface $-1 0.2159999999999999976 -0.5500000000000000444 0.1600000000000000033 0 0 -1 0.05000000000000000278 0 0 1 I I 0 1 0.05000000000000000278 forward I I I I #
coedge $-1 $388 $581 $584 $637 reversed $28 $-1 #
edge $-1 $371 -0.2500501256289339724 $638 -0 $388 $639 reversed 7 unknown #
ellipse-curve $-1 -0.2159999999999999976 -0.5500000000000000444 0.1600000000000000033 0 0 1 0.05000000000000000278 -1.110223024625159992e-16 0 1 I I #
point $-1 -0.1660000000000000087 -0.5500000000000000444 0.1600000000000000033 #
coedge $-1 $626 $396 $394 $526 reversed $527 $-1 #
edge $-1 $640 -0.1000000000000000056 $398 -0 $525 $641 reversed 7 unknown #
loop $-1 $-1 $626 $554 #
straight-curve $-1 0.1660000000000000087 -0.6800000000000000488 0.1000000000000000056 0 1 0 I I #
point $-1 0.1660000000000000087 -0.6800000000000000488 0.1000000000000000056 #
point $-1 0.1660000000000000087 -0.5500000000000000444 0.1000000000000000056 #
coedge $-1 $642 $403 $406 $536 reversed $533 $-1 #
coedge $-1 $403 $642 $419 $547 forward $533 $-1 #
loop $-1 $-1 $531 $643 #
straight-curve $-1 0.1580000000000000016 0.2250000000000000056 0.1600000000000000033 -1 0 0 I I #
coedge $-1 $406 $405 $644 $645 forward $407 $-1 #
edge $-1 $646 -0.08999999999999999667 $408 -0 $531 $647 reversed 7 unknown #
face $-1 $643 $407 $3 $-1 $648 reversed single #
point $-1 -0.1580000000000000016 0.2250000000000000056 0.1600000000000000033 #
coedge $-1 $414 $644 $410 $540 reversed $432 $-1 #
edge $-1 $416 -0.3160000000000000031 $541 -0 $539 $649 reversed 7 unknown #
vertex $-1 $411 $650 #
straight-curve $-1 -0.2250000000000000056 0.1580000000000000016 0.1600000000000000033 0 0 -1 I I #
plane-surface $-1 -0.2250000000000000056 0.1580000000000000016 0.25 -1 0 0 0 0 1 forward_v I I I I #
ellipse-curve $-1 -0.1580000000000000016 -0.1580000000000000016 0.07000000000000000666 0 0 1 -0.067000000000000004 0 0 1 I I #
point $-1 -0.2250000000000000056 -0.1580000000000000016 0.07000000000000000666 #
coedge $-1 $420 $419 $651 $652 forward $421 $-1 #
edge $-1 $653 -0.08999999999999999667 $422 -0 $419 $654 reversed 7 unknown #
face $-1 $426 $421 $3 $-1 $655 reversed single #
point $-1 0.1580000000000000016 0.2250000000000000056 0.1600000000000000033 #
coedge $-1 $651 $428 $424 $551 reversed $432 $-1 #
edge $-1 $552 -0.3160000000000000031 $430 -0 $550 $656 reversed 7 unknown #
vertex $-1 $425 $657 #
straight-curve $-1 0.2250000000000000056 0.1580000000000000016 0.1600000000000000033 0 0 -1 I I #
face $-1 $279 $527 $3 $-1 $658 reversed single #
plane-surface $-1 0.2250000000000000056 -0.1580000000000000016 0.25 1 0 0 0 0 -1 forward_v I I I I #
ellipse-curve $-1 0.1580000000000000016 -0.1580000000000000016 0.07000000000000000666 0 0 1 0 -0.067000000000000004 0 1 I I #
point $-1 0.2250000000000000056 -0.1580000000000000016 0.07000000000000000666 #
point $-1 0.08050000000000000211 -0.3599999999999999867 0.07000000000000000666 #
point $-1 0.08050000000000000211 0.3599999999999999867 0.07000000000000000666 #
coedge $-1 $590 $442 $573 $659 reversed $28 $-1 #
coedge $-1 $660 $611 $444 $562 forward $661 $-1 #
edge $-1 $613 0 $566 0.01999999999999999001 $444 $662 forward 7 unknown #
coedge $-1 $620 $445 $447 $568 reversed $565 $-1 #
coedge $-1 $445 $620 $660 $663 reversed $565 $-1 #
loop $-1 $-1 $445 $635 #
vertex $-1 $663 $664 #
straight-curve $-1 0.3150000000000000022 -0.5899999999999999689 0.1799999999999999933 0 1 0 I I #
edge $-1 $622 -0.0499999999999999889 $449 -0 $563 $665 reversed 7 unknown #
point $-1 0.3150000000000000022 -0.28999999999999998 0.1799999999999999933 #
vertex $-1 $659 $666 #
straight-curve $-1 0.3150000000000000022 0.6800000000000000488 0.1600000000000000033 0 -1 0 I I #
coedge $-1 $470 $453 $456 $575 forward $460 $-1 #
coedge $-1 $453 $470 $560 $659 forward $460 $-1 #
straight-curve $-1 0.3150000000000000022 0.6800000000000000488 0.07000000000000000666 0 0 1 I I #
edge $-1 $457 -0.6300000000000000044 $472 -0 $456 $667 reversed 7 unknown #
point $-1 0.3150000000000000022 0.6800000000000000488 0.07000000000000000666 #
face $-1 $668 $669 $3 $-1 $670 forward single #
loop $-1 $-1 $671 $459 #
plane-surface $-1 0.3150000000000000022 0.3949119999999999853 0.1799999999999999933 0 0 1 1 0 0 forward_v I I I I #
coedge $-1 $672 $463 $673 $674 reversed $144 $-1 #
coedge $-1 $521 $675 $463 $582 forward $28 $-1 #
edge $-1 $676 0 $585 0.57999999999999996 $463 $677 forward 7 unknown #
coedge $-1 $596 $464 $466 $587 forward $475 $-1 #
coedge $-1 $464 $596 $521 $637 forward $475 $-1 #
vertex $-1 $637 $678 #
straight-curve $-1 -0.3150000000000000022 -0.28999999999999998 0.1600000000000000033 0 0 1 I I #
edge $-1 $467 0 $598 0.0499999999999999889 $466 $679 forward 7 unknown #
point $-1 -0.3150000000000000022 -0.28999999999999998 0.1799999999999999933 #
coedge $-1 $469 $672 $680 $681 reversed $144 $-1 #
coedge $-1 $682 $560 $469 $591 forward $28 $-1 #
edge $-1 $592 0 $683 0.09000000000000007994 $469 $684 forward 7 unknown #
vertex $-1 $659 $685 #
straight-curve $-1 -0.3150000000000000022 0.6800000000000000488 0.07000000000000000666 0 0 1 I I #
point $-1 -0.3150000000000000022 0.6800000000000000488 0.07000000000000000666 #
plane-surface $-1 -0.2650000000000000133 -0.28999999999999998 0.1600000000000000033 -1 0 0 0 0 1 forward_v I I I I #
coedge $-1 $584 $583 $478 $597 reversed $475 $-1 #
edge $-1 $638 0 $598 0.01999999999999999001 $596 $686 forward 7 unknown #
vertex $-1 $597 $687 #
straight-curve $-1 -0.2650000000000000133 -0.28999999999999998 0.1799999999999999933 0 -1 0 I I #
plane-surface $-1 0.3150000000000000022 -0.3949119999999999853 0.1799999999999999933 0 0 -1 -1 0 0 forward_v I I I I #
coedge $-1 $688 $629 $483 $602 reversed $631 $-1 #
edge $-1 $604 -0.05999999999999999778 $640 -0 $601 $689 reversed 7 unknown #
coedge $-1 $484 $500 $688 $690 reversed $261 $-1 #
vertex $-1 $602 $691 #
straight-curve $-1 0.3150000000000000022 -0.6800000000000000488 0.1600000000000000033 -1 0 0 I I #
point $-1 0.3150000000000000022 -0.6800000000000000488 0.1600000000000000033 #
straight-curve $-1 -0.1660000000000000087 -0.6800000000000000488 0.1000000000000000056 0 1 0 I I #
point $-1 -0.1660000000000000087 -0.5500000000000000444 0.1000000000000000056 #
straight-curve $-1 -0.1660000000000000087 -0.5500000000000000444 0.1600000000000000033 0 0 -1 I I #
plane-surface $-1 -0.1660000000000000087 -0.8066421356237309936 0.1600000000000000033 1 0 0 0 0 -1 forward_v I I I I #
coedge $-1 $561 $692 $500 $612 forward $661 $-1 #
edge $-1 $693 0 $613 0.04899999999999998801 $500 $694 forward 7 unknown #
vertex $-1 $612 $695 #
straight-curve $-1 0.3150000000000000022 -0.5899999999999999689 0.1600000000000000033 0 -1 0 I I #
coedge $-1 $692 $660 $504 $616 reversed $661 $-1 #
edge $-1 $618 0 $696 0.01999999999999999001 $615 $697 forward 7 unknown #
coedge $-1 $505 $515 $692 $698 forward $516 $-1 #
vertex $-1 $506 $699 #
straight-curve $-1 0.2650000000000000133 -0.5899999999999999689 0.1600000000000000033 0 1 0 I I #
coedge $-1 $564 $563 $507 $621 reversed $565 $-1 #
edge $-1 $696 -0.2999999999999999889 $622 -0 $620 $700 reversed 7 unknown #
vertex $-1 $508 $701 #
straight-curve $-1 0.2650000000000000133 -0.28999999999999998 0.1600000000000000033 0 0 1 I I #
face $-1 $702 $516 $3 $-1 $703 forward single #
plane-surface $-1 0.2650000000000000133 -0.28999999999999998 0.1600000000000000033 -1 0 0 0 0 1 forward_v I I I I #
coedge $-1 $511 $525 $629 $704 reversed $527 $-1 #
vertex $-1 $514 $705 #
ellipse-curve $-1 0.2159999999999999976 -0.5500000000000000444 0.1000000000000000056 2.775557561562889872e-16 6.162975822039150351e-31 -1 -0.05000000000000000278 -1.110223024625159992e-16 -1.38777878078144999e-17 1 I I #
coedge $-1 $601 $513 $626 $704 forward $631 $-1 #
coedge $-1 $513 $688 $515 $633 forward $631 $-1 #
loop $-1 $-1 $688 $702 #
straight-curve $-1 0.2660000000000000142 -0.5500000000000000444 0.1600000000000000033 0 0 -1 I I #
edge $-1 $693 -0.0399999999999999245 $517 -0 $515 $706 reversed 7 unknown #
point $-1 0.2660000000000000142 -0.5500000000000000444 0.1600000000000000033 #
face $-1 $707 $565 $3 $-1 $708 forward single #
plane-surface $-1 0.3150000000000000022 -0.28999999999999998 0.1600000000000000033 0 1 0 0 0 1 forward_v I I I I #
edge $-1 $638 -0.0499999999999999889 $585 -0 $521 $709 reversed 7 unknown #
vertex $-1 $597 $710 #
straight-curve $-1 -0.2650000000000000133 -0.28999999999999998 0.1600000000000000033 0 -1 0 I I #
vertex $-1 $602 $711 #
straight-curve $-1 0.1660000000000000087 -0.6800000000000000488 0.1000000000000000056 1 0 0 I I #
coedge $-1 $532 $531 $712 $713 forward $533 $-1 #
face $-1 $548 $533 $3 $-1 $714 reversed single #
coedge $-1 $539 $712 $535 $645 reversed $432 $-1 #
edge $-1 $541 -1.570796326794896558 $646 -0 $644 $715 reversed 7 unknown #
vertex $-1 $536 $716 #
straight-curve $-1 -0.1580000000000000016 0.2250000000000000056 0.1600000000000000033 0 0 -1 I I #
cone-surface $-1 -0.1580000000000000016 0.1580000000000000016 0.25 0 0 1 -0.067000000000000004 0 0 1 I I 0 1 0.067000000000000004 forward I I I I #
straight-curve $-1 -0.2250000000000000056 0.1580000000000000016 0.07000000000000000666 0 -1 0 I I #
point $-1 -0.2250000000000000056 0.1580000000000000016 0.07000000000000000666 #
coedge $-1 $712 $550 $546 $652 reversed $432 $-1 #
edge $-1 $653 -1.570796326794896558 $552 -0 $651 $717 reversed 7 unknown #
vertex $-1 $547 $718 #
straight-curve $-1 0.1580000000000000016 0.2250000000000000056 0.1600000000000000033 0 0 -1 I I #
cone-surface $-1 0.1580000000000000016 0.1580000000000000016 0.25 0 0 1 -0.067000000000000004 0 0 1 I I 0 1 0.067000000000000004 forward I I I I #
straight-curve $-1 0.2250000000000000056 -0.1580000000000000016 0.07000000000000000666 0 1 0 I I #
point $-1 0.2250000000000000056 0.1580000000000000016 0.07000000000000000666 #
plane-surface $-1 0.3150000000000000022 -0.3949119999999999853 0.1000000000000000056 0 0 -1 -1 0 0 forward_v I I I I #
edge $-1 $592 -0.6300000000000000044 $570 -0 $560 $719 reversed 7 unknown #
coedge $-1 $615 $561 $564 $663 forward $661 $-1 #
loop $-1 $-1 $611 $707 #
straight-curve $-1 0.3150000000000000022 -0.5899999999999999689 0.1600000000000000033 0 0 1 I I #
edge $-1 $566 -0.0499999999999999889 $696 -0 $564 $720 reversed 7 unknown #
point $-1 0.3150000000000000022 -0.5899999999999999689 0.1799999999999999933 #
straight-curve $-1 0.3150000000000000022 -0.28999999999999998 0.1799999999999999933 -1 0 0 I I #
point $-1 0.3150000000000000022 0.6800000000000000488 0.1600000000000000033 #
straight-curve $-1 -0.3150000000000000022 0.6800000000000000488 0.07000000000000000666 1 0 0 I I #
face $-1 $721 $722 $3 $-1 $723 forward single #
loop $-1 $-1 $680 $577 #
plane-surface $-1 -0.2650000000000000133 0.5899999999999999689 0.1600000000000000033 0 1 0 0 0 1 forward_v I I I I #
coedge $-1 $724 $725 $672 $726 forward $578 $-1 #
coedge $-1 $589 $580 $671 $726 reversed $144 $-1 #
coedge $-1 $727 $728 $580 $674 forward $729 $-1 #
edge $-1 $730 -0.01999999999999999001 $676 -0 $580 $731 reversed 7 unknown #
coedge $-1 $581 $732 $727 $733 reversed $28 $-1 #
vertex $-1 $733 $734 #
straight-curve $-1 -0.3150000000000000022 0.28999999999999998 0.1600000000000000033 0 -1 0 I I #
point $-1 -0.3150000000000000022 -0.28999999999999998 0.1600000000000000033 #
straight-curve $-1 -0.3150000000000000022 -0.28999999999999998 0.1799999999999999933 1 0 0 I I #
coedge $-1 $735 $736 $589 $681 forward $669 $-1 #
edge $-1 $683 0 $737 0.01999999999999999001 $589 $738 forward 7 unknown #
coedge $-1 $732 $590 $736 $739 reversed $28 $-1 #
vertex $-1 $739 $740 #
straight-curve $-1 -0.3150000000000000022 0.6800000000000000488 0.1600000000000000033 0 -1 0 I I #
point $-1 -0.3150000000000000022 0.6800000000000000488 0.1600000000000000033 #
straight-curve $-1 -0.2650000000000000133 -0.28999999999999998 0.1600000000000000033 0 0 1 I I #
point $-1 -0.2650000000000000133 -0.28999999999999998 0.1799999999999999933 #
coedge $-1 $630 $601 $603 $690 forward $631 $-1 #
straight-curve $-1 0.2660000000000000142 -0.6800000000000000488 0.1000000000000000056 0 0 1 I I #
edge $-1 $604 -0.09000000000000007994 $693 -0 $603 $741 reversed 7 unknown #
point $-1 0.2660000000000000142 -0.6800000000000000488 0.1600000000000000033 #
coedge $-1 $611 $615 $617 $698 reversed $661 $-1 #
vertex $-1 $633 $742 #
straight-curve $-1 0.2660000000000000142 -0.5899999999999999689 0.1600000000000000033 1 0 0 I I #
point $-1 0.3150000000000000022 -0.5899999999999999689 0.1600000000000000033 #
vertex $-1 $616 $743 #
straight-curve $-1 0.2650000000000000133 -0.5899999999999999689 0.1600000000000000033 0 0 1 I I #
edge $-1 $693 -0.001000000000000000888 $618 -0 $692 $744 reversed 7 unknown #
point $-1 0.2650000000000000133 -0.5899999999999999689 0.1600000000000000033 #
straight-curve $-1 0.2650000000000000133 -0.28999999999999998 0.1799999999999999933 0 -1 0 I I #
point $-1 0.2650000000000000133 -0.28999999999999998 0.1799999999999999933 #
face $-1 $156 $631 $3 $-1 $745 forward single #
plane-surface $-1 0.3150000000000000022 -0.3949119999999999853 0.1600000000000000033 0 0 -1 -1 0 0 forward_v I I I I #
edge $-1 $627 0 $640 0.1300000000000000044 $626 $746 forward 7 unknown #
point $-1 0.2660000000000000142 -0.5500000000000000444 0.1000000000000000056 #
straight-curve $-1 0.2660000000000000142 -0.5500000000000000444 0.1600000000000000033 0 -1 0 I I #
face $-1 $509 $661 $3 $-1 $747 forward single #
plane-surface $-1 -0.3150000000000000022 -0.3949119999999999853 0.1799999999999999933 0 0 1 1 0 0 forward_v I I I I #
straight-curve $-1 -0.3150000000000000022 -0.28999999999999998 0.1600000000000000033 1 0 0 I I #
point $-1 -0.2650000000000000133 -0.28999999999999998 0.1600000000000000033 #
point $-1 0.2660000000000000142 -0.6800000000000000488 0.1000000000000000056 #
coedge $-1 $644 $651 $642 $713 reversed $432 $-1 #
edge $-1 $646 -0.3160000000000000031 $653 -0 $712 $748 reversed 7 unknown #
plane-surface $-1 0.1580000000000000016 0.2250000000000000056 0.25 0 1 0 0 0 1 forward_v I I I I #
ellipse-curve $-1 -0.1580000000000000016 0.1580000000000000016 0.07000000000000000666 0 0 1 0 0.067000000000000004 0 1 I I #
point $-1 -0.1580000000000000016 0.2250000000000000056 0.07000000000000000666 #
ellipse-curve $-1 0.1580000000000000016 0.1580000000000000016 0.07000000000000000666 0 0 1 0.067000000000000004 0 0 1 I I #
point $-1 0.1580000000000000016 0.2250000000000000056 0.07000000000000000666 #
straight-curve $-1 0.3150000000000000022 0.6800000000000000488 0.1600000000000000033 -1 0 0 I I #
straight-curve $-1 0.2650000000000000133 -0.5899999999999999689 0.1799999999999999933 1 0 0 I I #
face $-1 $482 $729 $3 $-1 $749 forward single #
loop $-1 $-1 $750 $668 #
plane-surface $-1 -0.2650000000000000133 0.28999999999999998 0.1600000000000000033 1 0 0 0 0 -1 forward_v I I I I #
coedge $-1 $751 $671 $728 $752 reversed $578 $-1 #
coedge $-1 $671 $751 $735 $753 reversed $578 $-1 #
edge $-1 $737 0 $730 0.2999999999999999889 $672 $754 forward 7 unknown #
coedge $-1 $755 $673 $675 $733 forward $729 $-1 #
coedge $-1 $673 $755 $724 $752 forward $729 $-1 #
loop $-1 $-1 $755 $721 #
vertex $-1 $752 $756 #
straight-curve $-1 -0.3150000000000000022 0.28999999999999998 0.1600000000000000033 0 0 1 I I #
coedge $-1 $675 $682 $757 $758 reversed $28 $-1 #
edge $-1 $676 0 $759 0.0499999999999999889 $675 $760 forward 7 unknown #
point $-1 -0.3150000000000000022 0.28999999999999998 0.1600000000000000033 #
coedge $-1 $761 $680 $725 $753 forward $669 $-1 #
coedge $-1 $680 $761 $682 $739 forward $669 $-1 #
vertex $-1 $753 $762 #
straight-curve $-1 -0.3150000000000000022 0.5899999999999999689 0.1600000000000000033 0 0 1 I I #
edge $-1 $763 0 $683 0.0499999999999999889 $682 $764 forward 7 unknown #
point $-1 -0.3150000000000000022 0.5899999999999999689 0.1600000000000000033 #
straight-curve $-1 0.2660000000000000142 -0.5899999999999999689 0.1600000000000000033 0 -1 0 I I #
point $-1 0.2660000000000000142 -0.5899999999999999689 0.1600000000000000033 #
point $-1 0.2650000000000000133 -0.5899999999999999689 0.1799999999999999933 #
straight-curve $-1 0.2650000000000000133 -0.5899999999999999689 0.1600000000000000033 1 0 0 I I #
plane-surface $-1 0.2660000000000000142 -0.5500000000000000444 0.1600000000000000033 -1 0 0 0 0 1 forward_v I I I I #
straight-curve $-1 0.2660000000000000142 -0.5500000000000000444 0.1000000000000000056 0 -1 0 I I #
plane-surface $-1 0.2650000000000000133 -0.5899999999999999689 0.1600000000000000033 0 -1 0 0 0 -1 forward_v I I I I #
straight-curve $-1 0.1580000000000000016 0.2250000000000000056 0.07000000000000000666 -1 0 0 I I #
plane-surface $-1 -0.3150000000000000022 0.28999999999999998 0.1600000000000000033 0 -1 0 0 0 -1 forward_v I I I I #
coedge $-1 $765 $757 $761 $766 forward $722 $-1 #
coedge $-1 $725 $724 $765 $767 reversed $578 $-1 #
edge $-1 $768 -0.0499999999999999889 $730 -0 $724 $769 reversed 7 unknown #
edge $-1 $737 -0.0499999999999999889 $770 -0 $725 $771 reversed 7 unknown #
straight-curve $-1 -0.3150000000000000022 0.5899999999999999689 0.1799999999999999933 0 -1 0 I I #
coedge $-1 $728 $727 $772 $773 reversed $729 $-1 #
point $-1 -0.3150000000000000022 0.28999999999999998 0.1799999999999999933 #
coedge $-1 $750 $772 $732 $758 forward $722 $-1 #
edge $-1 $759 0 $763 0.2999999999999999889 $732 $774 forward 7 unknown #
vertex $-1 $773 $775 #
straight-curve $-1 -0.3150000000000000022 0.28999999999999998 0.1600000000000000033 1 0 0 I I #
coedge $-1 $736 $735 $750 $766 reversed $669 $-1 #
point $-1 -0.3150000000000000022 0.5899999999999999689 0.1799999999999999933 #
vertex $-1 $766 $776 #
straight-curve $-1 -0.2650000000000000133 0.5899999999999999689 0.1600000000000000033 -1 0 0 I I #
coedge $-1 $772 $750 $751 $767 forward $722 $-1 #
edge $-1 $763 0 $770 0.01999999999999999001 $761 $777 forward 7 unknown #
edge $-1 $770 -0.2999999999999999889 $768 -0 $751 $778 reversed 7 unknown #
vertex $-1 $773 $779 #
straight-curve $-1 -0.3150000000000000022 0.28999999999999998 0.1799999999999999933 1 0 0 I I #
vertex $-1 $766 $780 #
straight-curve $-1 -0.2650000000000000133 0.5899999999999999689 0.1799999999999999933 -1 0 0 I I #
coedge $-1 $757 $765 $755 $773 forward $722 $-1 #
edge $-1 $768 -0.01999999999999999001 $759 -0 $755 $781 reversed 7 unknown #
straight-curve $-1 -0.2650000000000000133 0.28999999999999998 0.1600000000000000033 0 1 0 I I #
point $-1 -0.2650000000000000133 0.28999999999999998 0.1600000000000000033 #
point $-1 -0.2650000000000000133 0.5899999999999999689 0.1600000000000000033 #
straight-curve $-1 -0.2650000000000000133 0.5899999999999999689 0.1600000000000000033 0 0 1 I I #
straight-curve $-1 -0.2650000000000000133 0.28999999999999998 0.1799999999999999933 0 1 0 I I #
point $-1 -0.2650000000000000133 0.28999999999999998 0.1799999999999999933 #
point $-1 -0.2650000000000000133 0.5899999999999999689 0.1799999999999999933 #
straight-curve $-1 -0.2650000000000000133 0.28999999999999998 0.1600000000000000033 0 0 1 I I #
End-of-ACIS-data 