600 0 1 0           
76 GICL ACIS Healer - Source: /gicl/data5/repository/tmp/delta_before.sat - 6 0 18 ACIS 6.0.3 Solaris 24 Sun Apr 14 00:16:20 2002 
1 9.999999999999999547e-07 1.000000000000000036e-10 
body $-1 $1 $-1 $-1 #
lump $-1 $-1 $2 $0 #
shell $-1 $-1 $-1 $3 $-1 $1 #
face $-1 $4 $5 $2 $-1 $6 reversed single #
face $-1 $7 $8 $2 $-1 $9 reversed single #
loop $-1 $-1 $10 $3 #
cone-surface $-1 40 39.99999999999999289 -12.49999999999995026 0 0 -1 7.071067811865470176 7.071067811865470176 0 1 I I 0 1 9.999999999999992895 forward I I I I #
face $-1 $11 $12 $2 $-1 $13 forward single #
loop $-1 $-1 $14 $4 #
plane-surface $-1 50 80 0 1 0 0 0 0 -1 forward_v I I I I #
coedge $-1 $15 $16 $17 $18 reversed $5 $-1 #
face $-1 $19 $20 $2 $-1 $21 reversed single #
loop $-1 $-1 $22 $7 #
cone-surface $-1 0 49.99999999999999289 24.99999999999995026 -1 0 -3.491481338843129805e-15 -8.728703347107829602e-14 0 25 1 I I 0 1 25 forward I I I I #
coedge $-1 $23 $24 $25 $26 forward $8 $-1 #
coedge $-1 $25 $10 $27 $28 reversed $5 $-1 #
coedge $-1 $10 $25 $22 $29 reversed $5 $-1 #
coedge $-1 $30 $31 $10 $18 forward $32 $-1 #
edge $-1 $33 -25.00000000000004974 $34 1.39659009183723537e-13 $17 $35 forward 7 unknown #
face $-1 $36 $37 $2 $-1 $38 forward single #
loop $-1 $-1 $39 $11 #
cone-surface $-1 -90 39.99999999999999289 -12.50000000000025047 0 0 -1 -7.071067811865470176 7.071067811865470176 0 1 I I 0 1 9.999999999999992895 forward I I I I #
coedge $-1 $40 $41 $16 $29 forward $12 $-1 #
coedge $-1 $42 $14 $43 $44 reversed $8 $-1 #
coedge $-1 $14 $42 $40 $45 reversed $8 $-1 #
coedge $-1 $16 $15 $14 $26 reversed $5 $-1 #
edge $-1 $46 -2.087121525220999807 $47 25.00000000000004974 $14 $48 forward 7 unknown #
coedge $-1 $49 $43 $15 $28 forward $50 $-1 #
edge $-1 $47 -0.785398163397448279 $33 0.785398163397448279 $27 $51 forward 7 unknown #
edge $-1 $34 32.51043178322800031 $46 47.86172933887470293 $22 $52 forward 7 unknown #
coedge $-1 $53 $17 $41 $54 reversed $32 $-1 #
coedge $-1 $17 $53 $49 $55 reversed $32 $-1 #
loop $-1 $-1 $17 $56 #
vertex $-1 $28 $57 #
vertex $-1 $54 $58 #
straight-curve $-1 40 49.99999999999999289 0 0 0 1 I I #
face $-1 $59 $60 $2 $-1 $61 reversed single #
loop $-1 $-1 $62 $19 #
plane-surface $-1 -100 0 0 1 0 0 0 0 -1 forward_v I I I I #
coedge $-1 $63 $64 $62 $65 reversed $20 $-1 #
coedge $-1 $66 $22 $24 $45 forward $12 $-1 #
coedge $-1 $22 $67 $30 $54 forward $12 $-1 #
coedge $-1 $24 $23 $68 $69 reversed $8 $-1 #
coedge $-1 $27 $70 $23 $44 forward $50 $-1 #
edge $-1 $71 -10.00024999999999764 $47 -0.0002500000000011937118 $43 $72 forward 7 unknown #
edge $-1 $46 -2.730075807522304387 $73 -2.214297435588179486 $24 $74 forward 7 unknown #
vertex $-1 $29 $75 #
vertex $-1 $28 $76 #
straight-curve $-1 50 39.99999999999999289 0 0 0 -1 I I #
coedge $-1 $77 $27 $31 $55 forward $50 $-1 #
loop $-1 $-1 $78 $79 #
ellipse-curve $-1 40 39.99999999999999289 -25.00000000000004974 0 0 1 7.071067811865470176 7.071067811865470176 0 1 I I #
intcurve-curve $-1 forward { surfintcur full nubs 3 open 9 
	32.51043178322800031 3 34.3958992300115014 2 36.28136667679500249 2 38.16683412357849647 2 40.05230157036199756 2 
	42.00465851249020233 2 43.95701545461839999 2 45.90937239674649817 2 47.86172933887470293 3 
	40 49.99999999999999289 1.39659009183723537e-13 
	40.62848914892779817 49.99999999999999289 1.41803018979813622e-13 
	41.27838316469749458 49.93979133869879661 -0.0002488325736501259284 
	42.57089931110319725 49.68628887161049335 0.001647012214229665039 
	43.21353178654869964 49.49304813565109384 0.00383457716689699496 
	44.44564103237689778 48.9822616514628919 0.01941763193837742554 
	45.03610886252969436 48.66429922437269795 0.03299631653757272715 
	46.12740536771509881 47.93015617588439881 0.08311584400939722728 
	46.62819704313680091 47.51393858059419273 0.1199203636431358244 
	47.52965001717929994 46.61248560655159423 0.2262645014125508336 
	47.95628064203949492 46.09500905830799411 0.3003128127288188232 
	48.70019711433590004 44.97575192508289632 0.5034608016607597936 
	49.01752347125609788 44.37404651038009717 0.6328261955380227732 
	49.52001434490439635 43.13326270893609404 0.9529953330865797989 
	49.70576991996049543 42.49291948654899187 1.144315523488489861 
	49.9457138946978958 41.22449680466969824 1.581193810122519805 
	49.99999999999990052 40.59645489805829754 1.826807266270579877 
	49.99999999999990052 39.99999999999999289 2.087121525220999807 
	0.001000000000000000021 
	cone 40 39.99999999999999289 -12.49999999999995026 0 0 -1 7.071067811865470176 7.071067811865470176 0 1 I I 0 1 9.999999999999992895 forward I I I I 
	cone 0 49.99999999999999289 24.99999999999995026 -1 0 -3.491481338843129805e-15 -8.728703347107829602e-14 0 25 1 I I -0 -1 25 forward I I I I 
	nullbs 
	nullbs 
	I I 
	0 
	0 
	0 
	} I I #
coedge $-1 $31 $30 $80 $81 forward $32 $-1 #
edge $-1 $82 -90.00000000000008527 $34 39.99999999999991473 $30 $83 forward 7 unknown #
edge $-1 $33 -40.00025000000000119 $84 89.99975000000000591 $49 $85 forward 7 unknown #
face $-1 $86 $32 $2 $-1 $87 forward single #
point $-1 40 49.99999999999999289 -25.00000000000004974 #
point $-1 40 49.99999999999999289 1.39659009183723537e-13 #
face $-1 $88 $89 $2 $-1 $90 reversed single #
loop $-1 $-1 $91 $36 #
cone-surface $-1 90 19.99999999999999645 -7.499999999999849898 0 0 1 7.071067811865470176 7.071067811865470176 0 1 I I 0 1 9.999999999999992895 forward I I I I #
coedge $-1 $92 $93 $39 $65 forward $37 $-1 #
coedge $-1 $80 $39 $77 $94 reversed $20 $-1 #
coedge $-1 $39 $80 $67 $95 reversed $20 $-1 #
edge $-1 $96 -25.00000000000004974 $97 2.087121525220499763 $62 $98 forward 7 unknown #
coedge $-1 $99 $40 $100 $101 forward $12 $-1 #
coedge $-1 $41 $102 $64 $95 forward $12 $-1 #
coedge $-1 $103 $100 $42 $69 forward $104 $-1 #
edge $-1 $73 -10.00000000000019895 $71 25.00000000000004974 $42 $105 forward 7 unknown #
coedge $-1 $43 $78 $103 $106 forward $50 $-1 #
vertex $-1 $44 $107 #
straight-curve $-1 50 40.00024999999999409 -25.00000000000004974 0 1 0 I I #
vertex $-1 $45 $108 #
ellipse-curve $-1 49.99999999999990052 49.99999999999999289 25.00000000000014921 -1 -0 -0 -8.728703347107829602e-14 0 25 1 I I #
point $-1 49.99999999999990052 39.99999999999999289 2.087121525220999807 #
point $-1 50 39.99999999999999289 -25.00000000000004974 #
coedge $-1 $109 $49 $63 $94 forward $50 $-1 #
coedge $-1 $70 $110 $111 $112 forward $50 $-1 #
face $-1 $113 $50 $2 $-1 $114 reversed single #
coedge $-1 $64 $63 $53 $81 reversed $20 $-1 #
edge $-1 $82 3.14232906188649519e-13 $84 25.00000000000004974 $53 $115 forward 7 unknown #
vertex $-1 $81 $116 #
straight-curve $-1 8.728705692268023952e-14 49.99999999999999289 0 1 0 3.491481338843129805e-15 I I #
vertex $-1 $94 $117 #
straight-curve $-1 -0.0002500000000011930071 49.99999999999999289 -25.00000000000004974 -1 0 0 I I #
face $-1 $118 $119 $2 $-1 $120 reversed single #
plane-surface $-1 0 49.99999999999999289 0 0 -1 0 0 0 -1 forward_v I I I I #
face $-1 $121 $122 $2 $-1 $123 reversed single #
loop $-1 $-1 $124 $59 #
plane-surface $-1 0 0 24.99999999999995026 0 0 1 1 0 0 forward_v I I I I #
coedge $-1 $125 $111 $126 $127 forward $60 $-1 #
coedge $-1 $128 $62 $102 $129 reversed $37 $-1 #
coedge $-1 $62 $130 $109 $131 reversed $37 $-1 #
edge $-1 $84 -0.785398163397448279 $96 0.785398163397448279 $77 $132 forward 7 unknown #
edge $-1 $97 17.14017445905319903 $82 32.49147201469980217 $67 $133 forward 7 unknown #
vertex $-1 $94 $134 #
vertex $-1 $129 $135 #
straight-curve $-1 -100 39.99999999999999289 0 0 0 1 I I #
coedge $-1 $136 $66 $137 $138 forward $12 $-1 #
coedge $-1 $68 $139 $66 $101 reversed $104 $-1 #
edge $-1 $73 49.99999999999995026 $140 89.99999999999994316 $100 $141 forward 7 unknown #
coedge $-1 $67 $142 $92 $129 forward $12 $-1 #
coedge $-1 $139 $68 $70 $106 reversed $104 $-1 #
loop $-1 $-1 $139 $143 #
straight-curve $-1 50 29.99999999999999645 0 0 0 -1 I I #
edge $-1 $144 -40.00025000000000119 $71 -0.0002500000000011937118 $70 $145 forward 7 unknown #
point $-1 50 29.99999999999999645 -25.00000000000004974 #
point $-1 50 29.99999999999999645 10.00000000000019895 #
coedge $-1 $146 $77 $93 $131 forward $50 $-1 #
coedge $-1 $78 $147 $148 $149 forward $50 $-1 #
coedge $-1 $91 $150 $78 $112 reversed $60 $-1 #
edge $-1 $151 -0.785398163397448279 $144 0.785398163397448279 $78 $152 forward 7 unknown #
face $-1 $153 $154 $2 $-1 $155 reversed single #
plane-surface $-1 -0.0005000000000023869899 0.0004999999999952819962 -25.00000000000004974 0 0 1 1 0 0 forward_v I I I I #
straight-curve $-1 -90 49.99999999999999289 0 0 0 -1 I I #
point $-1 -90 49.99999999999999289 -3.14232906188649519e-13 #
point $-1 -90 49.99999999999999289 -25.00000000000004974 #
face $-1 $156 $157 $2 $-1 $158 reversed single #
loop $-1 $159 $160 $86 #
cone-surface $-1 -50 0 0 0 0 1 15 0 0 1 I I 0 1 15 forward I I I I #
face $-1 $161 $162 $2 $-1 $163 reversed single #
loop $-1 $-1 $164 $88 #
cone-surface $-1 -90 -13.81197846483010494 0 0 0 1 -8.660254037844360653 -5.000000000000039968 0 1 I I 0 1 9.999999999999998224 forward I I I I #
coedge $-1 $165 $166 $125 $167 forward $89 $-1 #
coedge $-1 $137 $91 $124 $167 reversed $60 $-1 #
coedge $-1 $148 $168 $91 $127 reversed $169 $-1 #
edge $-1 $151 -17.50000000000019895 $170 32.49999999999980105 $126 $171 forward 7 unknown #
coedge $-1 $130 $92 $172 $173 forward $37 $-1 #
edge $-1 $174 1.57079632679488479 $97 2.730075807522304387 $92 $175 forward 7 unknown #
coedge $-1 $93 $128 $164 $176 forward $37 $-1 #
edge $-1 $96 -39.9997499999999917 $177 13.81222846483010258 $109 $178 forward 7 unknown #
ellipse-curve $-1 -90 39.99999999999999289 -25.00000000000004974 0 0 1 -7.071067811865470176 7.071067811865470176 0 1 I I #
intcurve-curve $-1 forward { surfintcur full nubs 3 open 9 
	17.14017445905319903 3 19.09253140118140024 2 21.04488834330960145 2 22.99724528543779911 2 24.94960222756600032 2 
	26.83506967434939838 2 28.72053712113289947 2 30.60600456791640056 2 32.49147201469980217 3 
	-100 39.99999999999999289 2.087121525220499763 
	-100 40.59645489805829754 1.826807266270079833 
	-99.9457138946979029 41.22449680466989719 1.581193810121959809 
	-99.70576991996040306 42.49291948654919793 1.144315523487929864 
	-99.52001434490439635 43.133262708936293 0.9529953330860218008 
	-99.0175234712559984 44.37404651038019665 0.6328261955374758774 
	-98.70019711433590714 44.9757519250829958 0.5034608016602177827 
	-97.95628064203940255 46.09500905830809359 0.3003128127282878035 
	-97.52965001717930704 46.61248560655169371 0.2262645014120318321 
	-96.62819704313670854 47.5139385805942922 0.119920363642627828 
	-96.12740536771499933 47.93015617588449828 0.0831158440088938244 
	-95.03610886252970147 48.66429922437269795 0.03299631653708002405 
	-94.44564103237679831 48.9822616514628919 0.01941763193789322606 
	-93.21353178654869964 49.49304813565109384 0.003834577166422325177 
	-92.57089931110320435 49.68628887161049335 0.001647012213759865059 
	-91.27838316469750168 49.93979133869879661 -0.0002488325741110339329 
	-90.62848914892779817 49.99999999999999289 -3.16376915984739604e-13 
	-90 49.99999999999999289 -3.14232906188649519e-13 
	0.001000000000000000021 
	cone -90 39.99999999999999289 -12.50000000000025047 0 0 -1 -7.071067811865470176 7.071067811865470176 0 1 I I 0 1 9.999999999999992895 forward I I I I 
	cone 0 49.99999999999999289 24.99999999999995026 -1 0 -3.491481338843129805e-15 -8.728703347107829602e-14 0 25 1 I I -0 -1 25 forward I I I I 
	nullbs 
	nullbs 
	I I 
	0 
	0 
	0 
	} I I #
point $-1 -100 39.99999999999999289 -25.00000000000004974 #
point $-1 -100 39.99999999999999289 2.087121525220499763 #
coedge $-1 $179 $99 $166 $180 forward $12 $-1 #
coedge $-1 $150 $125 $99 $138 reversed $60 $-1 #
edge $-1 $140 20.7234649342255004 $181 40.50902260923640341 $99 $182 forward 7 unknown #
coedge $-1 $100 $103 $150 $183 forward $104 $-1 #
vertex $-1 $101 $184 #
straight-curve $-1 5.13620179373730501e-14 29.99999999999999645 10 1 0 3.491481338843129805e-15 I I #
coedge $-1 $102 $185 $186 $187 forward $12 $-1 #
face $-1 $188 $104 $2 $-1 $189 reversed single #
vertex $-1 $112 $190 #
straight-curve $-1 49.99974999999999881 29.99999999999999645 -25.00000000000004974 -1 0 0 I I #
coedge $-1 $191 $109 $192 $193 forward $50 $-1 #
coedge $-1 $110 $194 $195 $196 forward $50 $-1 #
coedge $-1 $197 $126 $110 $149 reversed $169 $-1 #
edge $-1 $198 -50.00050000000000239 $151 -19.99950000000000117 $148 $199 forward 7 unknown #
coedge $-1 $111 $137 $139 $183 reversed $60 $-1 #
vertex $-1 $149 $200 #
ellipse-curve $-1 90 19.99999999999999645 -25.00000000000004974 0 0 1 7.071067811865470176 7.071067811865470176 0 1 I I #
face $-1 $201 $202 $2 $-1 $203 forward single #
loop $-1 $-1 $204 $113 #
plane-surface $-1 -0.0005000000000023869899 -50.00000000000000711 0.0005000000001498250413 0 1 0 0 0 1 forward_v I I I I #
face $-1 $205 $206 $2 $-1 $207 forward single #
loop $-1 $-1 $208 $118 #
plane-surface $-1 -50 0 19.99999999999995026 0 0 1 1 0 0 forward_v I I I I #
loop $-1 $-1 $209 $86 #
coedge $-1 $160 $160 $208 $210 forward $119 $-1 #
face $-1 $211 $212 $2 $-1 $213 reversed single #
loop $-1 $-1 $214 $121 #
plane-surface $-1 -67.50000000000009948 -38.34936490538870402 0 -0.4999999999999921174 -0.8660254037844432595 0 0 0 1 forward_v I I I I #
coedge $-1 $215 $192 $130 $176 reversed $122 $-1 #
coedge $-1 $216 $124 $168 $217 reversed $89 $-1 #
coedge $-1 $124 $218 $136 $180 reversed $89 $-1 #
edge $-1 $181 0.2617993877991499629 $170 0.785398163397448279 $124 $219 forward 7 unknown #
coedge $-1 $126 $220 $165 $217 forward $169 $-1 #
loop $-1 $-1 $126 $221 #
vertex $-1 $127 $222 #
straight-curve $-1 100 19.99999999999999645 -7.499999999999849898 0 0 1 I I #
coedge $-1 $186 $223 $128 $173 reversed $89 $-1 #
edge $-1 $174 -24.99999999999999645 $224 13.81197846483010494 $128 $225 forward 7 unknown #
vertex $-1 $129 $226 #
ellipse-curve $-1 -100 49.99999999999999289 24.99999999999965183 1 0 0 -8.728703347107829602e-14 0 25 1 I I #
edge $-1 $224 -24.99999999999995026 $177 25.00000000000004974 $130 $227 forward 7 unknown #
vertex $-1 $131 $228 #
straight-curve $-1 -100 0.0002499999999976409981 -25.00000000000004974 0 -1 0 I I #
coedge $-1 $229 $136 $230 $231 forward $12 $-1 #
edge $-1 $181 -98.66025403784439618 $232 -40 $166 $233 forward 7 unknown #
vertex $-1 $138 $234 #
intcurve-curve $-1 forward { surfintcur full nubs 3 open 13 
	20.7234649342255004 3 21.88863379220019922 2 23.05380265017500108 2 24.2189715081496999 2 25.38414036612450175 2 
	27.27475064651349967 2 29.16536092690240167 2 31.05597120729139959 2 32.94658148768039752 2 34.83719176806940254 2 
	36.72780204845840046 2 38.61841232884739838 2 40.50902260923640341 3 
	90 29.99999999999999645 10.0000000000003002 
	90.38838961932489724 29.99999999999999645 10.0000000000003002 
	90.78946199356809643 29.97688993491419396 10.03064846641695063 
	91.58771070897729771 29.88133380091559488 10.15932304722864998 
	91.98489059975240423 29.8089207242399965 10.25735163967994978 
	92.74919897544160108 29.62271317243209623 10.51581699412604998 
	93.11698190146719867 29.50884952405259654 10.67649365116194993 
	93.8033532636452918 29.25571711636059646 11.04561682986875049 
	94.12198380605200043 29.11657186594679558 11.25406974320245013 
	94.8760788423835919 28.74608899729119571 11.82992989447105003 
	95.28313329405879983 28.50176747547469702 12.22985158439635001 
	96.00568907475090441 28.00769918839609574 13.10086569115044952 
	96.32083462342629332 27.75779907081359354 13.5721662059564494 
	96.8758547318497989 27.27042071931269618 14.57516840158424998 
	97.11549095874369186 27.03300734888439649 15.10675105885544944 
	97.53169629590330203 26.58535912904919485 16.21855826566874725 
	97.7082375182138918 26.37512180139889395 16.79879225705985135 
	98.00892228962580077 25.99301821942999524 17.99575099463385186 
	98.13302883473079419 25.82120452441779435 18.61234539975964708 
	98.33780774442540462 25.52390642183249625 19.86802912163685164 
	98.41849298083469932 25.39842055522079534 20.50711599375185301 
	98.54372946834729419 25.19794719908399472 21.79346059068745234 
	98.58828718678680048 25.12295041120299643 22.44076248023355191 
	98.64655669620439937 25.0239780072357938 23.7289302365672512 
	98.66025403784439618 24.99999999999999645 24.36979657320394921 
	98.66025403784439618 24.99999999999999645 25.00000000000024869 
	0.001000000000000000021 
	cone 90 19.99999999999999645 -7.499999999999849898 0 0 1 7.071067811865470176 7.071067811865470176 0 1 I I 0 1 9.999999999999992895 forward I I I I 
	cone 0 49.99999999999999289 24.99999999999995026 -1 0 -3.491481338843129805e-15 -8.728703347107829602e-14 0 25 1 I I -0 -1 25 forward I I I I 
	nullbs 
	nullbs 
	I I 
	0 
	0 
	0 
	} I I #
edge $-1 $144 -25.00000000000004974 $140 10.0000000000003002 $139 $235 forward 7 unknown #
point $-1 90 29.99999999999999645 10.0000000000003002 #
coedge $-1 $142 $236 $237 $238 forward $12 $-1 #
coedge $-1 $239 $172 $142 $187 reversed $89 $-1 #
edge $-1 $240 90 $174 100 $186 $233 forward 7 unknown #
face $-1 $79 $241 $2 $-1 $114 reversed single #
plane-surface $-1 100 29.99999999999999645 0 0 1 0 0 0 1 forward_v I I I I #
point $-1 90 29.99999999999999645 -25.00000000000004974 #
coedge $-1 $242 $146 $243 $244 forward $50 $-1 #
coedge $-1 $164 $245 $146 $193 reversed $122 $-1 #
edge $-1 $177 -0.5235987755983035896 $246 0.5235987755983034786 $146 $247 forward 7 unknown #
coedge $-1 $147 $248 $249 $250 forward $50 $-1 #
coedge $-1 $251 $252 $147 $196 reversed $253 $-1 #
edge $-1 $254 -100.0005000000000024 $198 100.0005000000000024 $195 $255 forward 7 unknown #
coedge $-1 $256 $148 $252 $257 reversed $169 $-1 #
vertex $-1 $149 $258 #
straight-curve $-1 100 0.0004999999999952819962 -25.00000000000004974 0 -1 0 I I #
point $-1 100 19.99999999999999645 -25.00000000000004974 #
face $-1 $259 $260 $2 $-1 $155 reversed single #
loop $-1 $-1 $261 $153 #
plane-surface $-1 -0.0005000000000023869899 0.0004999999999952819962 25.00100000000035294 0 0 1 1 0 0 forward_v I I I I #
coedge $-1 $204 $204 $262 $263 forward $154 $-1 #
face $-1 $264 $265 $2 $-1 $266 forward single #
loop $-1 $-1 $267 $156 #
plane-surface $-1 -62.50000000000009948 -29.68911086754420481 10 -0.4999999999999921174 -0.8660254037844432595 0 0 0 1 forward_v I I I I #
coedge $-1 $208 $208 $160 $210 reversed $157 $-1 #
coedge $-1 $209 $209 $268 $269 forward $159 $-1 #
edge $-1 $270 0 $270 6.283185307179586232 $208 $271 forward 7 unknown #
face $-1 $272 $273 $2 $-1 $274 reversed single #
loop $-1 $-1 $275 $161 #
cone-surface $-1 -44.64101615137670365 -40.00000000000000711 0 0 0 -1 -2.588190451025159877 -9.659258262890700664 0 1 I I 0 1 10.00000000000000533 forward I I I I #
coedge $-1 $276 $243 $245 $277 forward $162 $-1 #
coedge $-1 $245 $164 $223 $278 reversed $122 $-1 #
coedge $-1 $279 $165 $280 $281 forward $89 $-1 #
edge $-1 $282 -40.0002500000000083 $170 19.99974999999999881 $168 $283 forward 7 unknown #
coedge $-1 $166 $284 $285 $286 forward $89 $-1 #
ellipse-curve $-1 90 19.99999999999999645 24.99999999999995026 -0 -0 -1 7.071067811865470176 7.071067811865470176 0 1 I I #
coedge $-1 $168 $287 $288 $289 reversed $169 $-1 #
face $-1 $-1 $169 $2 $-1 $290 reversed single #
point $-1 100 19.99999999999999645 24.99999999999995026 #
coedge $-1 $172 $291 $215 $278 forward $89 $-1 #
vertex $-1 $173 $292 #
straight-curve $-1 -100 0 24.99999999999995026 0 -1 0 I I #
point $-1 -100 24.99999999999999645 24.99999999999995026 #
straight-curve $-1 -100 -13.81197846483010494 0 0 0 -1 I I #
point $-1 -100 -13.81197846483010494 -25.00000000000004974 #
coedge $-1 $236 $179 $293 $294 forward $12 $-1 #
coedge $-1 $295 $296 $179 $231 reversed $265 $-1 #
edge $-1 $232 1.570796326794900777 $297 2.730075807522303499 $230 $298 forward 7 unknown #
vertex $-1 $180 $299 #
straight-curve $-1 0 24.99999999999999645 24.99999999999995026 -1 0 -3.491481338843129805e-15 I I #
point $-1 98.66025403784439618 24.99999999999999645 25.00000000000024869 #
straight-curve $-1 90 29.99999999999999645 0 0 0 1 I I #
coedge $-1 $185 $229 $300 $301 reversed $12 $-1 #
coedge $-1 $302 $303 $185 $238 reversed $304 $-1 #
edge $-1 $305 -2.498091544796507524 $240 -1.57079632679488479 $237 $306 forward 7 unknown #
coedge $-1 $307 $186 $303 $308 reversed $89 $-1 #
vertex $-1 $308 $309 #
loop $-1 $-1 $310 $188 #
coedge $-1 $248 $191 $311 $312 forward $50 $-1 #
coedge $-1 $214 $313 $191 $244 reversed $162 $-1 #
edge $-1 $246 -51.39493945045604306 $314 0.9811036198847042922 $191 $315 forward 7 unknown #
coedge $-1 $192 $215 $214 $277 reversed $122 $-1 #
vertex $-1 $193 $316 #
ellipse-curve $-1 -90 -13.81197846483010494 -25.00000000000004974 0 0 1 -8.660254037844360653 -5.000000000000039968 0 1 I I #
coedge $-1 $194 $242 $317 $318 forward $50 $-1 #
coedge $-1 $319 $320 $194 $250 reversed $321 $-1 #
edge $-1 $322 -50.00050000000000239 $254 50.00050000000000239 $249 $323 forward 7 unknown #
coedge $-1 $324 $195 $320 $325 reversed $253 $-1 #
coedge $-1 $195 $324 $197 $257 forward $253 $-1 #
loop $-1 $-1 $252 $326 #
vertex $-1 $196 $327 #
straight-curve $-1 -0.0005000000000023869899 50.00099999999999767 -25.00000000000004974 1 0 0 I I #
coedge $-1 $328 $197 $261 $329 reversed $169 $-1 #
edge $-1 $330 -25.00050000000020134 $198 25.00050000000020134 $197 $331 forward 7 unknown #
point $-1 100 50.00099999999999767 -25.00000000000004974 #
face $-1 $326 $321 $2 $-1 $332 reversed single #
loop $-1 $-1 $333 $201 #
coedge $-1 $334 $335 $256 $329 forward $202 $-1 #
coedge $-1 $262 $262 $204 $263 reversed $336 $-1 #
edge $-1 $337 -3.141592653589786011 $337 3.141592653589800221 $204 $338 forward 7 unknown #
face $-1 $143 $339 $2 $-1 $340 reversed single #
loop $-1 $-1 $295 $205 #
plane-surface $-1 40 80 10 1 0 0 0 0 -1 forward_v I I I I #
coedge $-1 $341 $342 $343 $344 forward $206 $-1 #
coedge $-1 $268 $268 $209 $269 reversed $345 $-1 #
edge $-1 $346 -3.141592653589799777 $346 3.141592653589786455 $268 $347 forward 7 unknown #
vertex $-1 $210 $348 #
ellipse-curve $-1 -50 0 19.99999999999995026 0 0 1 15 0 0 1 I I #
face $-1 $349 $350 $2 $-1 $351 reversed single #
loop $-1 $-1 $288 $211 #
cone-surface $-1 90 -40.00000000000000711 0 0 0 -1 7.071067811865470176 -7.071067811865470176 0 1 I I 0 1 9.999999999999992895 forward I I I I #
coedge $-1 $311 $352 $353 $354 forward $212 $-1 #
coedge $-1 $313 $214 $291 $355 forward $162 $-1 #
edge $-1 $246 -25.00000000000004974 $356 24.99999999999995026 $214 $357 forward 7 unknown #
edge $-1 $356 -0.5235987755983034786 $224 0.5235987755983035896 $223 $358 forward 7 unknown #
coedge $-1 $359 $216 $360 $361 reversed $89 $-1 #
coedge $-1 $288 $362 $216 $281 reversed $273 $-1 #
edge $-1 $282 -0.785398163397448279 $363 0.785398163397448279 $216 $364 forward 7 unknown #
vertex $-1 $217 $365 #
straight-curve $-1 100 0.0002499999999976409981 24.99999999999995026 0 1 0 I I #
coedge $-1 $218 $366 $367 $368 reversed $89 $-1 #
coedge $-1 $369 $370 $218 $286 reversed $371 $-1 #
edge $-1 $372 -0.785398163397448279 $232 0.785398163397448279 $218 $373 forward 7 unknown #
coedge $-1 $220 $328 $374 $375 reversed $169 $-1 #
coedge $-1 $376 $280 $220 $289 forward $273 $-1 #
edge $-1 $282 -24.99999999999995026 $377 25.00000000000004974 $220 $378 forward 7 unknown #
plane-surface $-1 100 0.0004999999999952819962 0.0005000000001498250413 -1 0 0 0 0 1 forward_v I I I I #
coedge $-1 $223 $359 $276 $355 reversed $89 $-1 #
point $-1 -100 -13.81197846483010494 24.99999999999995026 #
coedge $-1 $379 $380 $229 $294 reversed $381 $-1 #
edge $-1 $297 -39.99999999999992184 $382 85.00000000000008527 $293 $383 forward 7 unknown #
coedge $-1 $384 $230 $370 $385 forward $265 $-1 #
coedge $-1 $230 $384 $379 $386 reversed $265 $-1 #
vertex $-1 $231 $387 #
ellipse-curve $-1 40 49.99999999999999289 25.00000000000004974 1 0 0 -8.728703347107829602e-14 0 25 1 I I #
point $-1 40 24.99999999999999645 24.99999999999995026 #
coedge $-1 $388 $389 $236 $301 forward $390 $-1 #
edge $-1 $305 -25.51318362696139985 $382 -17.32112471006210086 $236 $391 forward 7 unknown #
coedge $-1 $392 $237 $389 $393 forward $304 $-1 #
coedge $-1 $237 $394 $239 $308 forward $304 $-1 #
loop $-1 $-1 $302 $395 #
vertex $-1 $301 $396 #
ellipse-curve $-1 -90.00000000000009948 49.99999999999999289 24.99999999999965183 -1 -0 -0 -8.728703347107829602e-14 0 25 1 I I #
coedge $-1 $397 $239 $398 $399 reversed $89 $-1 #
edge $-1 $400 -10.92522711888180531 $240 24.99999999999999645 $239 $401 forward 7 unknown #
point $-1 -90 24.99999999999999645 24.99999999999995026 #
coedge $-1 $374 $402 $376 $403 forward $241 $-1 #
coedge $-1 $404 $275 $242 $312 reversed $212 $-1 #
edge $-1 $314 -0.2617993877991490748 $405 0.2617993877991443563 $242 $406 forward 7 unknown #
coedge $-1 $243 $276 $404 $407 forward $162 $-1 #
vertex $-1 $244 $408 #
straight-curve $-1 -50.4906768099417036 -48.16970222790210698 -25.00000000000004974 0.8660254037844430375 -0.4999999999999920064 0 I I #
point $-1 -94.99999999999990052 -22.47223250267450467 -25.00000000000004974 #
coedge $-1 $353 $409 $248 $318 reversed $260 $-1 #
edge $-1 $405 44.64051615137670126 $322 100.0005000000000024 $317 $410 forward 7 unknown #
coedge $-1 $411 $249 $409 $412 reversed $321 $-1 #
coedge $-1 $249 $411 $251 $325 forward $321 $-1 #
loop $-1 $-1 $320 $259 #
vertex $-1 $250 $413 #
straight-curve $-1 -100.0010000000000048 0.0004999999999952819962 -25.00000000000004974 0 1 0 I I #
coedge $-1 $252 $251 $334 $414 reversed $253 $-1 #
edge $-1 $415 -25.00050000000020134 $254 25.00050000000020134 $251 $416 forward 7 unknown #
face $-1 $221 $253 $2 $-1 $417 reversed single #
point $-1 -100.0010000000000048 50.00099999999999767 -25.00000000000004974 #
coedge $-1 $287 $256 $418 $419 forward $169 $-1 #
edge $-1 $420 -50.00050000000000239 $330 50.00050000000000239 $256 $421 forward 7 unknown #
vertex $-1 $329 $422 #
straight-curve $-1 100 50.00099999999999767 0.0005000000001498250413 0 0 -1 I I #
plane-surface $-1 -100.0010000000000048 0.0004999999999952819962 0.0005000000001498250413 1 0 0 0 0 -1 forward_v I I I I #
coedge $-1 $423 $360 $362 $424 forward $260 $-1 #
coedge $-1 $425 $261 $324 $414 forward $202 $-1 #
coedge $-1 $261 $425 $426 $427 forward $202 $-1 #
loop $-1 $-1 $262 $272 #
vertex $-1 $263 $428 #
ellipse-curve $-1 19.99999999999999645 -50.00000000000000711 4.999999999999979572 0 -1 0 15 0 3.197442310920459987e-15 1 I I #
loop $-1 $-1 $429 $264 #
plane-surface $-1 90 0 10 -1 0 0 0 0 1 forward_v I I I I #
coedge $-1 $430 $267 $431 $432 reversed $206 $-1 #
coedge $-1 $267 $430 $397 $433 forward $206 $-1 #
coedge $-1 $398 $434 $267 $344 reversed $435 $-1 #
edge $-1 $436 -14.99999999999995026 $437 24.99999999999995026 $267 $438 forward 7 unknown #
loop $-1 $439 $268 $440 #
vertex $-1 $269 $441 #
ellipse-curve $-1 -50 0 -14.99999999999995026 -0 -0 -1 15 0 0 1 I I #
point $-1 -35 0 19.99999999999995026 #
face $-1 $442 $443 $2 $-1 $444 forward single #
loop $-1 $336 $445 $272 #
cone-surface $-1 19.99999999999999645 -47.50000000000000711 4.999999999999979572 0 1 0 12.5 0 2.664535259100380036e-15 1 I I 0.7071067811865470176 -0.7071067811865470176 12.5 forward I I I I #
coedge $-1 $275 $404 $359 $446 reversed $212 $-1 #
coedge $-1 $360 $317 $275 $354 reversed $260 $-1 #
edge $-1 $447 -24.99999999999995026 $405 25.00000000000004974 $353 $448 forward 7 unknown #
edge $-1 $356 -51.39528095680702791 $449 0.9807621135337232232 $291 $450 forward 7 unknown #
vertex $-1 $277 $451 #
straight-curve $-1 -94.99999999999990052 -22.47223250267450467 0 0 0 1 I I #
ellipse-curve $-1 -90 -13.81197846483010494 24.99999999999995026 -0 -0 -1 -8.660254037844360653 -5.000000000000039968 0 1 I I #
coedge $-1 $291 $279 $352 $446 forward $89 $-1 #
coedge $-1 $333 $353 $279 $361 forward $260 $-1 #
edge $-1 $447 -44.64076615137670245 $363 90.00024999999999409 $360 $452 forward 7 unknown #
coedge $-1 $280 $376 $333 $424 reversed $273 $-1 #
vertex $-1 $361 $453 #
ellipse-curve $-1 90 -40.00000000000000711 24.99999999999995026 -0 -0 -1 7.071067811865470176 -7.071067811865470176 0 1 I I #
point $-1 100 -40.00000000000000711 24.99999999999995026 #
coedge $-1 $284 $454 $455 $456 reversed $89 $-1 #
coedge $-1 $457 $458 $284 $368 forward $459 $-1 #
edge $-1 $372 -5 $460 35 $284 $461 forward 7 unknown #
coedge $-1 $462 $285 $458 $463 reversed $371 $-1 #
coedge $-1 $285 $462 $295 $385 reversed $371 $-1 #
loop $-1 $-1 $369 $464 #
vertex $-1 $463 $465 #
ellipse-curve $-1 45 24.99999999999999645 24.99999999999995026 -0 -0 -1 -3.535533905932739973 -3.535533905932739973 0 1 I I #
coedge $-1 $402 $310 $287 $375 forward $241 $-1 #
edge $-1 $377 40.00050000000000239 $466 50.00050000000000239 $287 $199 forward 7 unknown #
coedge $-1 $362 $288 $310 $403 reversed $273 $-1 #
vertex $-1 $403 $467 #
straight-curve $-1 100 -40.00000000000000711 0 0 0 -1 I I #
coedge $-1 $468 $293 $296 $386 forward $381 $-1 #
coedge $-1 $293 $468 $388 $469 forward $381 $-1 #
loop $-1 $-1 $380 $470 #
vertex $-1 $294 $471 #
straight-curve $-1 8.000002570118791567e-14 39.99999999999999289 2.087121525220799967 -1 0 -3.491481338843129805e-15 I I #
coedge $-1 $296 $295 $472 $473 reversed $265 $-1 #
edge $-1 $232 -14.99999999999995026 $474 24.99999999999995026 $295 $475 forward 7 unknown #
edge $-1 $297 7.912878474779059701 $476 24.99999999999995026 $379 $477 forward 7 unknown #
point $-1 40 39.99999999999999289 2.087121525220939855 #
coedge $-1 $478 $300 $380 $469 reversed $390 $-1 #
coedge $-1 $300 $478 $302 $393 reversed $390 $-1 #
loop $-1 $-1 $388 $442 #
intcurve-curve $-1 reversed { surfintcur full nubs 3 open 9 
	17.32112471006210086 3 18.24944845971860019 2 19.17777220937500005 2 20.10609595903149938 2 21.03441970868799871 2 
	22.15411068825639873 2 23.27380166782469928 2 24.39349264739299983 2 25.51318362696139985 3 
	-85 39.99999999999999289 2.087121525220499763 
	-85.30944124988550925 39.99999999999999289 2.087121525220499763 
	-85.62860826865799879 39.97077860554339424 2.099800290104469891 
	-86.26132038779229561 39.849005998689492 2.153517791088599864 
	-86.57486952283770165 39.75647852770779878 2.194562821337449954 
	-87.1736848809102014 39.51435422249069518 2.304869873079939957 
	-87.45950548501900812 39.36454116880159404 2.374286972371719706 
	-87.98568070228759552 39.02294638025409768 2.538028394706249635 
	-88.22602729240149699 38.83118679732729817 2.632424703676250033 
	-88.69371339970810197 38.38828764336989252 2.858589523424969858 
	-88.92614510817350038 38.11617124709699311 3.00258370656301965 
	-89.32577722958569666 37.53234871228969638 3.328143116159729686 
	-89.49302429405589976 37.22071070405679194 3.509773245673800002 
	-89.75526538657420872 36.58312130894739767 3.901956270574969743 
	-89.8505178092039074 36.25672121453199281 4.112846751895990138 
	-89.97285907788929649 35.6144459437200922 4.549896893078929416 
	-90.00000000000009948 35.29858426121819548 4.776061804086030094 
	-90.00000000000009948 34.99999999999999289 4.999999999999699796 
	0.001000000000000000021 
	cone -85 34.99999999999999289 -6.456439237389759889 0 0 -1 -3.535533905932739973 3.535533905932739973 0 1 I I 0 -1 5.000000000000003553 forward I I I I 
	cone 0 49.99999999999999289 24.99999999999995026 -1 0 -3.491481338843129805e-15 -8.728703347107829602e-14 0 25 1 I I -0 -1 25 forward I I I I 
	nullbs 
	nullbs 
	I I 
	0 
	0 
	0 
	} I I #
coedge $-1 $394 $302 $479 $480 reversed $304 $-1 #
edge $-1 $305 5.000000000000300204 $481 24.99999999999995026 $302 $482 forward 7 unknown #
coedge $-1 $303 $392 $483 $484 forward $304 $-1 #
face $-1 $485 $304 $2 $-1 $486 reversed single #
point $-1 -90.00000000000009948 34.99999999999999289 4.999999999999699796 #
coedge $-1 $487 $307 $342 $433 reversed $89 $-1 #
coedge $-1 $483 $343 $307 $399 forward $435 $-1 #
edge $-1 $436 -0.5235987755983048109 $400 0.5235987755983035896 $307 $488 forward 7 unknown #
vertex $-1 $308 $489 #
straight-curve $-1 -90 0 24.99999999999995026 0 1 0 I I #
coedge $-1 $310 $374 $423 $490 forward $241 $-1 #
edge $-1 $491 -0.785398163397448279 $377 0.785398163397448279 $310 $492 forward 7 unknown #
coedge $-1 $352 $311 $313 $407 reversed $212 $-1 #
vertex $-1 $354 $493 #
ellipse-curve $-1 -44.64101615137670365 -40.00000000000000711 -25.00000000000004974 0 0 1 -2.588190451025159877 -9.659258262890700664 0 1 I I #
edge $-1 $449 -24.99999999999995026 $314 25.00000000000004974 $313 $494 forward 7 unknown #
point $-1 -49.64101615137670365 -48.66025403784450276 -25.00000000000004974 #
coedge $-1 $317 $426 $319 $412 forward $260 $-1 #
straight-curve $-1 -0.0005000000000023869899 -50.00000000000000711 -25.00000000000004974 -1 0 0 I I #
coedge $-1 $320 $319 $425 $495 reversed $321 $-1 #
edge $-1 $496 -25.00050000000020134 $322 25.00050000000020134 $319 $497 forward 7 unknown #
point $-1 -100.0010000000000048 -50.00000000000000711 -25.00000000000004974 #
edge $-1 $330 -100.0005000000000024 $415 100.0005000000000024 $324 $498 forward 7 unknown #
vertex $-1 $414 $499 #
straight-curve $-1 -100.0010000000000048 50.00099999999999767 0.0005000000001498250413 0 0 -1 I I #
plane-surface $-1 -0.0005000000000023869899 50.00099999999999767 0.0005000000001498250413 0 -1 0 0 0 -1 forward_v I I I I #
coedge $-1 $426 $423 $328 $419 reversed $260 $-1 #
edge $-1 $420 -25.00050000000020134 $466 25.00050000000020134 $328 $500 forward 7 unknown #
vertex $-1 $329 $501 #
straight-curve $-1 100 0.0004999999999952819962 25.00100000000035294 0 1 0 I I #
point $-1 100 50.00099999999999767 25.00100000000035294 #
coedge $-1 $418 $333 $402 $490 reversed $260 $-1 #
edge $-1 $363 -24.99999999999995026 $491 25.00000000000004974 $333 $502 forward 7 unknown #
coedge $-1 $335 $334 $411 $495 forward $202 $-1 #
coedge $-1 $409 $418 $335 $427 reversed $260 $-1 #
edge $-1 $496 -100.0005000000000024 $420 100.0005000000000024 $426 $503 forward 7 unknown #
point $-1 4.999999999999997335 -50.00000000000000711 4.999999999999869438 #
coedge $-1 $504 $505 $506 $507 forward $339 $-1 #
coedge $-1 $342 $341 $508 $509 forward $206 $-1 #
coedge $-1 $510 $511 $341 $432 forward $439 $-1 #
edge $-1 $512 0.3589838486216744839 $437 48.50852961085887927 $431 $513 forward 7 unknown #
edge $-1 $514 0.3589838486216744839 $436 48.50852961085887927 $397 $515 forward 7 unknown #
coedge $-1 $343 $483 $510 $516 forward $435 $-1 #
loop $-1 $-1 $343 $485 #
vertex $-1 $433 $517 #
vertex $-1 $432 $518 #
straight-curve $-1 -87.5 -15.25535413780410465 10 -0 -0 -1 I I #
loop $-1 $-1 $519 $440 #
face $-1 $395 $345 $2 $-1 $520 reversed single #
point $-1 -65 -1.047440129423038435e-13 -14.99999999999995026 #
face $-1 $440 $390 $2 $-1 $521 reversed single #
loop $-1 $522 $523 $349 #
cone-surface $-1 19.99999999999999645 -45.00000000000000711 5 0 -1 -3.491481338843129805e-15 10 0 0 1 I I 0 1 10 forward I I I I #
coedge $-1 $445 $445 $524 $525 reversed $350 $-1 #
edge $-1 $447 -0.2617993877991443563 $449 0.2617993877991490748 $359 $526 forward 7 unknown #
vertex $-1 $361 $527 #
straight-curve $-1 -44.64101615137670365 -50.00000000000000711 0 0 0 -1 I I #
vertex $-1 $355 $528 #
straight-curve $-1 -50.49038105676620347 -48.16987298107760296 24.99999999999995026 0.8660254037844430375 -0.4999999999999920064 0 I I #
point $-1 -94.99999999999990052 -22.47223250267450467 24.99999999999995026 #
straight-curve $-1 -0.0002500000000011930071 -50.00000000000000711 24.99999999999995026 1 0 0 I I #
point $-1 90 -50.00000000000000711 24.99999999999995026 #
coedge $-1 $366 $529 $505 $530 reversed $89 $-1 #
coedge $-1 $531 $532 $366 $456 forward $533 $-1 #
edge $-1 $460 -0.785398163397448279 $534 0.785398163397448279 $366 $535 forward 7 unknown #
coedge $-1 $536 $367 $532 $537 forward $459 $-1 #
coedge $-1 $367 $536 $369 $463 forward $459 $-1 #
loop $-1 $-1 $457 $538 #
vertex $-1 $368 $539 #
straight-curve $-1 50 19.99999999999999645 24.99999999999995026 1 0 0 I I #
coedge $-1 $370 $369 $540 $541 forward $371 $-1 #
edge $-1 $542 -24.99999999999995026 $372 14.99999999999995026 $458 $543 forward 7 unknown #
face $-1 $470 $371 $2 $-1 $544 reversed single #
point $-1 45 19.99999999999999645 24.99999999999995026 #
vertex $-1 $419 $545 #
point $-1 100 -40.00000000000000711 -25.00000000000004974 #
coedge $-1 $380 $379 $546 $547 reversed $381 $-1 #
edge $-1 $548 -24.99999999999995026 $382 -7.912878474779500237 $380 $549 forward 7 unknown #
face $-1 $56 $381 $2 $-1 $550 reversed single #
point $-1 -85 39.99999999999999289 2.087121525220499763 #
coedge $-1 $540 $546 $384 $473 forward $439 $-1 #
edge $-1 $476 0 $474 14.99999999999999645 $472 $551 forward 7 unknown #
vertex $-1 $473 $552 #
straight-curve $-1 40 24.99999999999999645 10 0 0 -1 I I #
vertex $-1 $547 $553 #
straight-curve $-1 40 39.99999999999999289 10 0 0 -1 I I #
coedge $-1 $389 $388 $519 $554 forward $390 $-1 #
coedge $-1 $519 $510 $392 $480 forward $439 $-1 #
edge $-1 $555 -10.92522711888180531 $481 34.99999999999999289 $392 $556 forward 7 unknown #
vertex $-1 $480 $557 #
straight-curve $-1 -90 34.99999999999999289 10 0 0 -1 I I #
coedge $-1 $434 $398 $394 $484 reversed $435 $-1 #
edge $-1 $555 -24.99999999999995026 $400 14.99999999999995026 $394 $558 forward 7 unknown #
face $-1 $559 $435 $2 $-1 $560 reversed single #
plane-surface $-1 -90 0 10 1 0 0 0 0 -1 forward_v I I I I #
coedge $-1 $561 $397 $562 $563 reversed $89 $-1 #
ellipse-curve $-1 -85 -10.92522711888180531 24.99999999999995026 -0 -0 -1 -4.330127018922180326 -2.500000000000019984 0 1 I I #
point $-1 -90 -10.92522711888180531 24.99999999999995026 #
edge $-1 $466 -100.0005000000000024 $491 -90.00050000000000239 $423 $410 forward 7 unknown #
vertex $-1 $490 $564 #
ellipse-curve $-1 90 -40.00000000000000711 -25.00000000000004974 0 0 1 7.071067811865470176 -7.071067811865470176 0 1 I I #
point $-1 -44.64101615137670365 -50.00000000000000711 -25.00000000000004974 #
straight-curve $-1 -49.64101615137660417 -48.66025403784440329 0 0 0 -1 I I #
edge $-1 $415 -50.00050000000000239 $496 50.00050000000000239 $411 $565 forward 7 unknown #
vertex $-1 $495 $566 #
straight-curve $-1 -100.0010000000000048 -50.00000000000000711 0.0005000000001498250413 0 0 -1 I I #
straight-curve $-1 -0.0005000000000023869899 50.00099999999999767 25.00100000000035294 -1 0 0 I I #
point $-1 -100.0010000000000048 50.00099999999999767 25.00100000000035294 #
straight-curve $-1 100 -50.00000000000000711 0.0005000000001498250413 0 0 -1 I I #
point $-1 100 -50.00000000000000711 25.00100000000035294 #
straight-curve $-1 90 -50.00000000000000711 0 0 0 -1 I I #
straight-curve $-1 -0.0005000000000023869899 -50.00000000000000711 25.00100000000035294 1 0 0 I I #
coedge $-1 $567 $429 $568 $569 reversed $339 $-1 #
coedge $-1 $429 $567 $454 $530 forward $339 $-1 #
coedge $-1 $570 $571 $429 $507 reversed $572 $-1 #
edge $-1 $573 -14.99999999999995026 $574 24.99999999999995026 $429 $575 forward 7 unknown #
coedge $-1 $576 $562 $430 $509 reversed $577 $-1 #
edge $-1 $512 -24.99999999999995026 $514 14.99999999999995026 $430 $578 forward 7 unknown #
coedge $-1 $479 $431 $434 $516 reversed $439 $-1 #
coedge $-1 $431 $579 $576 $580 reversed $439 $-1 #
vertex $-1 $580 $581 #
straight-curve $-1 -45.49038105676630295 -39.5096189432331073 -14.99999999999995026 -0.8660254037844430375 0.4999999999999920064 0 I I #
vertex $-1 $433 $582 #
straight-curve $-1 -45.49038105676630295 -39.5096189432331073 24.99999999999995026 -0.8660254037844430375 0.4999999999999920064 0 I I #
edge $-1 $555 -0.5235987755983035896 $437 0.5235987755983048109 $510 $583 forward 7 unknown #
point $-1 -87.5 -15.25535413780410465 24.99999999999995026 #
point $-1 -87.5 -15.25535413780410465 -14.99999999999995026 #
coedge $-1 $546 $479 $478 $554 reversed $439 $-1 #
plane-surface $-1 0 0 -14.99999999999995026 0 0 1 1 0 0 forward_v I I I I #
cone-surface $-1 -85 34.99999999999999289 -6.456439237389759889 0 0 -1 -3.535533905932739973 3.535533905932739973 0 1 I I 0 -1 5.000000000000003553 forward I I I I #
loop $-1 $-1 $524 $349 #
coedge $-1 $523 $523 $584 $585 forward $443 $-1 #
coedge $-1 $524 $524 $445 $525 forward $522 $-1 #
edge $-1 $586 -3.141592653589800221 $586 3.141592653589786011 $524 $587 forward 7 unknown #
ellipse-curve $-1 -44.64101615137670365 -40.00000000000000711 24.99999999999995026 -0 -0 -1 -2.588190451025159877 -9.659258262890700664 0 1 I I #
point $-1 -44.64101615137670365 -50.00000000000000711 24.99999999999995026 #
point $-1 -49.64101615137670365 -48.66025403784450276 24.99999999999995026 #
coedge $-1 $454 $561 $570 $588 reversed $89 $-1 #
edge $-1 $534 -14.99999999999999467 $573 35.00000000000000711 $454 $589 forward 7 unknown #
coedge $-1 $590 $455 $567 $591 reversed $533 $-1 #
coedge $-1 $455 $590 $457 $537 reversed $533 $-1 #
loop $-1 $-1 $532 $592 #
vertex $-1 $530 $593 #
ellipse-curve $-1 85 14.99999999999999467 24.99999999999995026 -0 -0 -1 3.535533905932739973 3.535533905932739973 0 1 I I #
coedge $-1 $458 $457 $594 $595 reversed $459 $-1 #
edge $-1 $460 -14.99999999999995026 $596 24.99999999999995026 $457 $597 forward 7 unknown #
face $-1 $464 $459 $2 $-1 $598 forward single #
point $-1 85 19.99999999999999645 24.99999999999995026 #
coedge $-1 $594 $472 $462 $541 reversed $439 $-1 #
edge $-1 $542 -0.785398163397448279 $474 0.785398163397448279 $540 $599 forward 7 unknown #
vertex $-1 $541 $600 #
straight-curve $-1 45 19.99999999999999645 10 0 0 1 I I #
cone-surface $-1 45 24.99999999999999645 5 -0 -0 -1 -3.535533905932739973 -3.535533905932739973 0 1 I I 0 1 5.000000000000003553 forward I I I I #
point $-1 100 -50.00000000000000711 -25.00000000000004974 #
coedge $-1 $472 $519 $468 $547 forward $439 $-1 #
edge $-1 $548 -85 $476 40 $468 $601 forward 7 unknown #
vertex $-1 $469 $602 #
straight-curve $-1 -85 39.99999999999999289 10 0 0 1 I I #
plane-surface $-1 0 39.99999999999999289 10 0 -1 0 0 0 -1 forward_v I I I I #
straight-curve $-1 40 39.99999999999999289 -14.99999999999995026 0 -1 0 I I #
point $-1 40 24.99999999999999645 -14.99999999999995026 #
point $-1 40 39.99999999999999289 -14.99999999999995026 #
edge $-1 $548 -0.785398163397448279 $481 0.785398163397448279 $519 $603 forward 7 unknown #
vertex $-1 $516 $604 #
straight-curve $-1 -90 0 -14.99999999999995026 0 1 0 I I #
point $-1 -90 34.99999999999999289 -14.99999999999995026 #
straight-curve $-1 -90 -10.92522711888180531 10 0 0 1 I I #
face $-1 $605 $577 $2 $-1 $606 reversed single #
cone-surface $-1 -85 -10.92522711888180531 5 0 0 1 -4.330127018922180326 -2.500000000000019984 0 1 I I 0 -1 4.999999999999999112 forward I I I I #
coedge $-1 $529 $487 $607 $608 reversed $89 $-1 #
coedge $-1 $508 $609 $487 $563 forward $577 $-1 #
edge $-1 $610 -0.2617993877991443563 $514 0.2617993877991440788 $487 $611 forward 7 unknown #
point $-1 90 -50.00000000000000711 -25.00000000000004974 #
straight-curve $-1 -100.0010000000000048 0.0004999999999952819962 25.00100000000035294 0 -1 0 I I #
point $-1 -100.0010000000000048 -50.00000000000000711 25.00100000000035294 #
coedge $-1 $505 $504 $531 $591 forward $339 $-1 #
coedge $-1 $612 $613 $504 $569 forward $439 $-1 #
edge $-1 $614 -14.99999999999999467 $574 35.00000000000000711 $504 $615 forward 7 unknown #
coedge $-1 $616 $506 $529 $588 forward $572 $-1 #
coedge $-1 $506 $616 $612 $617 forward $572 $-1 #
loop $-1 $-1 $616 $618 #
vertex $-1 $530 $619 #
vertex $-1 $569 $620 #
straight-curve $-1 90 -35.00000000000000711 10 0 0 -1 I I #
coedge $-1 $609 $508 $511 $580 forward $577 $-1 #
loop $-1 $-1 $508 $559 #
straight-curve $-1 -45.80127018922100035 -39.3301270189222052 10 0 0 1 I I #
coedge $-1 $511 $612 $621 $622 forward $439 $-1 #
edge $-1 $512 -0.2617993877991440788 $623 0.2617993877991443563 $511 $624 forward 7 unknown #
point $-1 -45.80127018922100035 -39.33012701892230467 -14.99999999999995026 #
point $-1 -45.80127018922100035 -39.33012701892230467 24.99999999999995026 #
ellipse-curve $-1 -85 -10.92522711888180531 -14.99999999999995026 0 0 1 -4.330127018922180326 -2.500000000000019984 0 1 I I #
coedge $-1 $584 $584 $523 $585 reversed $625 $-1 #
edge $-1 $626 -3.141592653589800221 $626 3.141592653589786011 $584 $627 forward 7 unknown #
vertex $-1 $525 $628 #
ellipse-curve $-1 19.99999999999999645 -45.00000000000000711 4.999999999999979572 0 1 0 10 0 0 1 I I #
edge $-1 $573 -0.785398163397448279 $629 0.785398163397448279 $529 $630 forward 7 unknown #
straight-curve $-1 90 0 24.99999999999995026 0 -1 0 I I #
coedge $-1 $532 $531 $613 $631 forward $533 $-1 #
edge $-1 $614 -24.99999999999995026 $534 14.99999999999995026 $567 $632 forward 7 unknown #
face $-1 $538 $533 $2 $-1 $633 reversed single #
point $-1 90 14.99999999999999467 24.99999999999995026 #
coedge $-1 $613 $540 $536 $595 forward $439 $-1 #
edge $-1 $542 -5 $596 35 $594 $634 forward 7 unknown #
vertex $-1 $595 $635 #
straight-curve $-1 85 19.99999999999999645 10 -0 -0 -1 I I #
plane-surface $-1 100 19.99999999999999645 10 0 1 0 0 0 1 forward_v I I I I #
ellipse-curve $-1 45 24.99999999999999645 -14.99999999999995026 -0 -0 -1 -3.535533905932739973 -3.535533905932739973 0 1 I I #
point $-1 45 19.99999999999999645 -14.99999999999995026 #
straight-curve $-1 0 39.99999999999999289 -14.99999999999995026 1 0 0 I I #
point $-1 -85 39.99999999999999289 -14.99999999999995026 #
ellipse-curve $-1 -85 34.99999999999999289 -14.99999999999995026 0 0 1 -3.535533905932739973 3.535533905932739973 0 1 I I #
point $-1 -90 -10.92522711888180531 -14.99999999999995026 #
face $-1 $618 $625 $2 $-1 $636 reversed single #
cone-surface $-1 -43.30127018922100035 -35.00000000000000711 5 -0 -0 -1 -1.294095225512579939 -4.829629131445350332 0 1 I I 0 -1 5.000000000000002665 forward I I I I #
coedge $-1 $637 $638 $561 $608 forward $639 $-1 #
edge $-1 $629 -85 $610 43.30127018922100035 $561 $640 forward 7 unknown #
coedge $-1 $562 $576 $637 $641 reversed $577 $-1 #
vertex $-1 $608 $642 #
ellipse-curve $-1 -43.30127018922100035 -35.00000000000000711 24.99999999999995026 -0 -0 -1 -1.294095225512579939 -4.829629131445350332 0 1 I I #
coedge $-1 $579 $568 $571 $617 reversed $439 $-1 #
coedge $-1 $568 $594 $590 $631 reversed $439 $-1 #
vertex $-1 $631 $643 #
straight-curve $-1 90 0 -14.99999999999995026 0 -1 0 I I #
coedge $-1 $571 $570 $638 $644 reversed $572 $-1 #
edge $-1 $645 -0.785398163397448279 $574 0.785398163397448279 $612 $646 forward 7 unknown #
face $-1 $592 $572 $2 $-1 $647 reversed single #
point $-1 90 -35.00000000000000711 24.99999999999995026 #
point $-1 90 -35.00000000000000711 -14.99999999999995026 #
coedge $-1 $638 $637 $579 $622 reversed $639 $-1 #
edge $-1 $645 -85 $623 43.30127018922100035 $621 $648 forward 7 unknown #
vertex $-1 $622 $649 #
ellipse-curve $-1 -43.30127018922100035 -35.00000000000000711 -14.99999999999995026 0 0 1 -1.294095225512579939 -4.829629131445350332 0 1 I I #
loop $-1 $639 $584 $605 #
vertex $-1 $585 $650 #
ellipse-curve $-1 19.99999999999999645 -40.00000000000000711 5.00000000000001954 -0 -1 -0 10 0 0 1 I I #
point $-1 9.999999999999998224 -45.00000000000000711 4.999999999999909406 #
vertex $-1 $608 $651 #
ellipse-curve $-1 85 -35.00000000000000711 24.99999999999995026 -0 -0 -1 3.535533905932739973 -3.535533905932739973 0 1 I I #
edge $-1 $614 -0.785398163397448279 $596 0.785398163397448279 $613 $652 forward 7 unknown #
straight-curve $-1 90 14.99999999999999467 10 0 0 1 I I #
cone-surface $-1 85 14.99999999999999467 5 0 0 1 3.535533905932739973 3.535533905932739973 0 1 I I 0 -1 5.000000000000003553 forward I I I I #
straight-curve $-1 50 19.99999999999999645 -14.99999999999995026 1 0 0 I I #
point $-1 85 19.99999999999999645 -14.99999999999995026 #
plane-surface $-1 0 -40.00000000000000711 10 0 1 0 0 0 1 forward_v I I I I #
coedge $-1 $621 $607 $609 $641 forward $639 $-1 #
coedge $-1 $607 $621 $616 $644 forward $639 $-1 #
loop $-1 $-1 $637 $605 #
straight-curve $-1 0 -40.00000000000000711 24.99999999999995026 -1 0 0 I I #
edge $-1 $610 -14.99999999999995026 $623 24.99999999999995026 $637 $653 forward 7 unknown #
point $-1 -43.30127018922100035 -40.00000000000000711 24.99999999999995026 #
point $-1 90 14.99999999999999467 -14.99999999999995026 #
edge $-1 $645 -24.99999999999995026 $629 14.99999999999995026 $638 $654 forward 7 unknown #
vertex $-1 $617 $655 #
ellipse-curve $-1 85 -35.00000000000000711 -14.99999999999995026 0 0 1 3.535533905932739973 -3.535533905932739973 0 1 I I #
cone-surface $-1 85 -35.00000000000000711 5 0 0 -1 3.535533905932739973 -3.535533905932739973 0 1 I I 0 -1 5.000000000000003553 forward I I I I #
straight-curve $-1 0 -40.00000000000000711 -14.99999999999995026 -1 0 0 I I #
point $-1 -43.30127018922100035 -40.00000000000000711 -14.99999999999995026 #
point $-1 9.999999999999998224 -40.00000000000000711 5.000000000000089706 #
point $-1 85 -40.00000000000000711 24.99999999999995026 #
ellipse-curve $-1 85 14.99999999999999467 -14.99999999999995026 0 0 1 3.535533905932739973 3.535533905932739973 0 1 I I #
straight-curve $-1 -43.30127018922100035 -40.00000000000000711 10 0 0 -1 I I #
straight-curve $-1 85 -40.00000000000000711 10 0 0 1 I I #
point $-1 85 -40.00000000000000711 -14.99999999999995026 #
End-of-ACIS-data 