600 0 1 0           
75 GICL ACIS Healer - Source: /gicl/data5/repository/tmp/delta_after.sat - 6 0 18 ACIS 6.0.3 Solaris 24 Sun Apr 14 00:16:19 2002 
1 9.999999999999999547e-07 1.000000000000000036e-10 
body $-1 $1 $-1 $-1 #
lump $-1 $-1 $2 $0 #
shell $-1 $-1 $-1 $3 $-1 $1 #
face $-1 $4 $5 $2 $-1 $6 reversed single #
face $-1 $7 $8 $2 $-1 $9 reversed single #
loop $-1 $-1 $10 $3 #
cone-surface $-1 -90 39.99999999999999289 25.00100000000035294 0 0 -1 -7.071067811865470176 7.071067811865470176 0 1 I I 0 -1 9.999999999999992895 forward I I I I #
face $-1 $11 $12 $2 $-1 $13 reversed single #
loop $-1 $-1 $14 $4 #
plane-surface $-1 -100 -13.81197846483010494 25.00100000000035294 1 0 0 0 0 -1 forward_v I I I I #
coedge $-1 $15 $16 $17 $18 reversed $5 $-1 #
face $-1 $19 $20 $2 $-1 $21 reversed single #
loop $-1 $-1 $22 $7 #
plane-surface $-1 -90 49.99999999999999289 25.00100000000035294 0 -1 0 0 0 -1 forward_v I I I I #
coedge $-1 $23 $24 $25 $26 reversed $8 $-1 #
coedge $-1 $27 $10 $24 $28 reversed $5 $-1 #
coedge $-1 $10 $27 $29 $30 reversed $5 $-1 #
coedge $-1 $31 $25 $10 $18 forward $32 $-1 #
edge $-1 $33 17.14017445905319903 $34 32.49147201469980217 $17 $35 forward 7 unknown #
face $-1 $36 $37 $2 $-1 $38 reversed single #
loop $-1 $-1 $39 $11 #
cone-surface $-1 40 39.99999999999999289 25.00100000000035294 0 0 -1 7.071067811865470176 7.071067811865470176 0 1 I I 0 -1 9.999999999999992895 forward I I I I #
coedge $-1 $29 $40 $31 $41 reversed $12 $-1 #
coedge $-1 $24 $14 $42 $43 forward $8 $-1 #
coedge $-1 $14 $23 $15 $28 forward $8 $-1 #
coedge $-1 $17 $44 $14 $26 forward $32 $-1 #
edge $-1 $45 1.57079632679488479 $33 2.730075807522304387 $25 $46 forward 7 unknown #
coedge $-1 $16 $15 $47 $48 forward $5 $-1 #
edge $-1 $49 0.001000000000303202796 $33 22.91387847477985318 $15 $50 forward 7 unknown #
coedge $-1 $51 $22 $16 $30 forward $12 $-1 #
edge $-1 $34 -25.00100000000066558 $52 -0.001000000000303202796 $29 $53 reversed 7 unknown #
coedge $-1 $54 $17 $22 $41 forward $32 $-1 #
loop $-1 $-1 $54 $55 #
vertex $-1 $26 $56 #
vertex $-1 $41 $57 #
intcurve-curve $-1 forward { surfintcur full nubs 3 open 9 
	17.14017445905319903 3 19.09253140118140024 2 21.04488834330960145 2 22.99724528543779911 2 24.94960222756600032 2 
	26.83506967434939838 2 28.72053712113289947 2 30.60600456791640056 2 32.49147201469980217 3 
	-100 39.99999999999999289 2.087121525220499763 
	-100 40.59645489805829754 1.826807266270079833 
	-99.9457138946979029 41.22449680466989719 1.581193810121959809 
	-99.70576991996040306 42.49291948654919793 1.144315523487929864 
	-99.52001434490439635 43.133262708936293 0.9529953330860218008 
	-99.0175234712559984 44.37404651038019665 0.6328261955374758774 
	-98.70019711433590714 44.9757519250829958 0.5034608016602177827 
	-97.95628064203940255 46.09500905830809359 0.3003128127282878035 
	-97.52965001717930704 46.61248560655169371 0.2262645014120318321 
	-96.62819704313670854 47.5139385805942922 0.119920363642627828 
	-96.12740536771499933 47.93015617588449828 0.0831158440088938244 
	-95.03610886252970147 48.66429922437269795 0.03299631653708002405 
	-94.44564103237679831 48.9822616514628919 0.01941763193789322606 
	-93.21353178654869964 49.49304813565109384 0.003834577166422325177 
	-92.57089931110320435 49.68628887161049335 0.001647012213759865059 
	-91.27838316469750168 49.93979133869879661 -0.0002488325741110339329 
	-90.62848914892779817 49.99999999999999289 -3.16376915984739604e-13 
	-90 49.99999999999999289 -3.14232906188649519e-13 
	0.001000000000000000021 
	cone -90 39.99999999999999289 -12.50000000000025047 0 0 -1 -7.071067811865470176 7.071067811865470176 0 1 I I 0 1 9.999999999999992895 forward I I I I 
	cone 0 49.99999999999999289 24.99999999999995026 -1 0 -3.491481338843129805e-15 -8.728703347107829602e-14 0 25 1 I I -0 -1 25 forward I I I I 
	nullbs 
	nullbs 
	I I 
	0 
	0 
	0 
	} I I #
face $-1 $58 $59 $2 $-1 $60 reversed single #
loop $-1 $-1 $61 $19 #
plane-surface $-1 50 39.99999999999999289 25.00100000000035294 -1 0 0 0 0 1 forward_v I I I I #
coedge $-1 $62 $63 $54 $64 reversed $20 $-1 #
coedge $-1 $22 $51 $62 $65 forward $12 $-1 #
edge $-1 $34 -90.00000000000008527 $66 39.99999999999991473 $31 $67 forward 7 unknown #
coedge $-1 $68 $47 $23 $43 reversed $69 $-1 #
edge $-1 $45 31.90598923241505247 $49 46.90598923241504536 $42 $70 forward 7 unknown #
coedge $-1 $25 $71 $68 $72 forward $32 $-1 #
vertex $-1 $26 $73 #
ellipse-curve $-1 -100 49.99999999999999289 24.99999999999965183 1 0 0 -8.728703347107829602e-14 0 25 1 I I #
coedge $-1 $42 $74 $27 $48 reversed $69 $-1 #
edge $-1 $49 -0.785398163397448279 $52 0.785398163397448279 $47 $75 forward 7 unknown #
vertex $-1 $43 $76 #
straight-curve $-1 -100 39.99999999999999289 25.00100000000035294 0 0 -1 I I #
coedge $-1 $40 $29 $74 $77 forward $12 $-1 #
vertex $-1 $48 $78 #
straight-curve $-1 -90 49.99999999999999289 25.00100000000035294 0 0 -1 I I #
coedge $-1 $79 $31 $39 $64 forward $32 $-1 #
face $-1 $80 $32 $2 $-1 $81 forward single #
point $-1 -100 39.99999999999999289 2.087121525220499763 #
point $-1 -90 49.99999999999999289 -3.14232906188649519e-13 #
face $-1 $82 $83 $2 $-1 $84 reversed single #
loop $-1 $-1 $85 $36 #
plane-surface $-1 50 29.99999999999999645 25.00100000000035294 0 -1 0 0 0 -1 forward_v I I I I #
coedge $-1 $86 $87 $79 $88 reversed $37 $-1 #
coedge $-1 $89 $39 $40 $65 reversed $20 $-1 #
coedge $-1 $39 $89 $86 $90 reversed $20 $-1 #
edge $-1 $66 32.51043178322800031 $91 47.86172933887470293 $54 $92 forward 7 unknown #
edge $-1 $93 0.001000000000303202796 $66 25.00100000000021438 $62 $94 forward 7 unknown #
vertex $-1 $41 $95 #
straight-curve $-1 8.728705692268023952e-14 49.99999999999999289 0 1 0 3.491481338843129805e-15 I I #
coedge $-1 $96 $42 $44 $72 reversed $69 $-1 #
loop $-1 $-1 $68 $82 #
straight-curve $-1 -100 -6.905989232415055135 25.00000000000004974 0 1 0 I I #
coedge $-1 $44 $97 $98 $99 forward $32 $-1 #
edge $-1 $100 90 $45 100 $44 $101 forward 7 unknown #
point $-1 -100 24.99999999999999645 24.99999999999995026 #
coedge $-1 $47 $102 $51 $77 reversed $69 $-1 #
ellipse-curve $-1 -90 39.99999999999999289 25.00000000000004974 0 0 -1 -7.071067811865470176 7.071067811865470176 0 1 I I #
point $-1 -100 39.99999999999999289 25.00000000000004974 #
edge $-1 $52 -45 $93 85 $74 $103 forward 7 unknown #
point $-1 -90 49.99999999999999289 25.00000000000004974 #
coedge $-1 $104 $54 $61 $88 forward $32 $-1 #
face $-1 $105 $106 $2 $-1 $107 reversed single #
cone-surface $-1 0 49.99999999999999289 24.99999999999995026 -1 0 -3.491481338843129805e-15 -8.728703347107829602e-14 0 25 1 I I 0 1 25 forward I I I I #
face $-1 $55 $69 $2 $-1 $108 reversed single #
loop $-1 $-1 $109 $58 #
cone-surface $-1 90 19.99999999999999645 25.00100000000035294 0 0 -1 7.071067811865470176 7.071067811865470176 0 1 I I 0 -1 9.999999999999992895 forward I I I I #
coedge $-1 $110 $111 $104 $112 reversed $59 $-1 #
coedge $-1 $113 $61 $63 $90 forward $37 $-1 #
coedge $-1 $61 $113 $110 $114 forward $37 $-1 #
edge $-1 $91 -2.730075807522304387 $115 -2.214297435588179486 $79 $116 forward 7 unknown #
coedge $-1 $63 $62 $102 $117 forward $20 $-1 #
edge $-1 $91 -22.91387847477935225 $118 -0.001000000000303202796 $86 $119 reversed 7 unknown #
vertex $-1 $64 $120 #
intcurve-curve $-1 forward { surfintcur full nubs 3 open 9 
	32.51043178322800031 3 34.3958992300115014 2 36.28136667679500249 2 38.16683412357849647 2 40.05230157036199756 2 
	42.00465851249020233 2 43.95701545461839999 2 45.90937239674649817 2 47.86172933887470293 3 
	40 49.99999999999999289 1.39659009183723537e-13 
	40.62848914892779817 49.99999999999999289 1.41803018979813622e-13 
	41.27838316469749458 49.93979133869879661 -0.0002488325736501259284 
	42.57089931110319725 49.68628887161049335 0.001647012214229665039 
	43.21353178654869964 49.49304813565109384 0.00383457716689699496 
	44.44564103237689778 48.9822616514628919 0.01941763193837742554 
	45.03610886252969436 48.66429922437269795 0.03299631653757272715 
	46.12740536771509881 47.93015617588439881 0.08311584400939722728 
	46.62819704313680091 47.51393858059419273 0.1199203636431358244 
	47.52965001717929994 46.61248560655159423 0.2262645014125508336 
	47.95628064203949492 46.09500905830799411 0.3003128127288188232 
	48.70019711433590004 44.97575192508289632 0.5034608016607597936 
	49.01752347125609788 44.37404651038009717 0.6328261955380227732 
	49.52001434490439635 43.13326270893609404 0.9529953330865797989 
	49.70576991996049543 42.49291948654899187 1.144315523488489861 
	49.9457138946978958 41.22449680466969824 1.581193810122519805 
	49.99999999999990052 40.59645489805829754 1.826807266270579877 
	49.99999999999990052 39.99999999999999289 2.087121525220999807 
	0.001000000000000000021 
	cone 40 39.99999999999999289 -12.49999999999995026 0 0 -1 7.071067811865470176 7.071067811865470176 0 1 I I 0 1 9.999999999999992895 forward I I I I 
	cone 0 49.99999999999999289 24.99999999999995026 -1 0 -3.491481338843129805e-15 -8.728703347107829602e-14 0 25 1 I I -0 -1 25 forward I I I I 
	nullbs 
	nullbs 
	I I 
	0 
	0 
	0 
	} I I #
vertex $-1 $77 $121 #
straight-curve $-1 40 49.99999999999999289 25.00100000000035294 0 0 -1 I I #
point $-1 40 49.99999999999999289 1.39659009183723537e-13 #
coedge $-1 $122 $68 $123 $124 reversed $69 $-1 #
coedge $-1 $71 $125 $126 $127 reversed $32 $-1 #
coedge $-1 $128 $123 $71 $99 reversed $129 $-1 #
edge $-1 $130 -2.498091544796507524 $100 -1.57079632679488479 $98 $131 forward 7 unknown #
vertex $-1 $124 $132 #
straight-curve $-1 0 24.99999999999999645 24.99999999999995026 -1 0 -3.491481338843129805e-15 I I #
coedge $-1 $74 $133 $89 $117 reversed $69 $-1 #
straight-curve $-1 -45 49.99999999999999289 25.00000000000004974 1 0 0 I I #
coedge $-1 $134 $79 $85 $112 forward $32 $-1 #
face $-1 $135 $136 $2 $-1 $137 forward single #
loop $-1 $138 $139 $80 #
cone-surface $-1 19.99999999999999645 -47.50000000000000711 4.999999999999979572 0 1 0 12.5 0 2.664535259100380036e-15 1 I I 0.7071067811865470176 -0.7071067811865470176 12.5 forward I I I I #
plane-surface $-1 0 0 25.00000000000004974 0 0 -1 -1 0 0 forward_v I I I I #
coedge $-1 $140 $141 $134 $142 reversed $83 $-1 #
coedge $-1 $143 $85 $87 $114 reversed $59 $-1 #
coedge $-1 $85 $143 $140 $144 reversed $59 $-1 #
edge $-1 $115 49.99999999999995026 $145 89.99999999999994316 $104 $146 forward 7 unknown #
coedge $-1 $87 $86 $133 $147 forward $37 $-1 #
edge $-1 $148 0.001000000000303202796 $115 15.00100000000015399 $110 $149 forward 7 unknown #
vertex $-1 $88 $150 #
ellipse-curve $-1 49.99999999999990052 49.99999999999999289 25.00000000000014921 -1 -0 -0 -8.728703347107829602e-14 0 25 1 I I #
edge $-1 $93 -0.785398163397448279 $118 0.785398163397448279 $102 $151 forward 7 unknown #
vertex $-1 $117 $152 #
straight-curve $-1 50 39.99999999999999289 25.00100000000035294 0 0 -1 I I #
point $-1 49.99999999999990052 39.99999999999999289 2.087121525220999807 #
point $-1 40 49.99999999999999289 25.00000000000004974 #
coedge $-1 $153 $96 $154 $155 reversed $69 $-1 #
coedge $-1 $98 $156 $96 $124 forward $129 $-1 #
edge $-1 $157 -10.92522711888180531 $100 24.99999999999999645 $123 $158 forward 7 unknown #
coedge $-1 $97 $159 $160 $161 forward $32 $-1 #
coedge $-1 $162 $163 $97 $127 forward $164 $-1 #
edge $-1 $130 -25.51318362696139985 $165 -17.32112471006210086 $97 $166 forward 7 unknown #
coedge $-1 $167 $98 $163 $168 forward $129 $-1 #
loop $-1 $-1 $128 $169 #
vertex $-1 $127 $170 #
ellipse-curve $-1 -90.00000000000009948 49.99999999999999289 24.99999999999965183 -1 -0 -0 -8.728703347107829602e-14 0 25 1 I I #
point $-1 -90 24.99999999999999645 24.99999999999995026 #
coedge $-1 $102 $171 $113 $147 reversed $69 $-1 #
coedge $-1 $172 $104 $109 $142 forward $32 $-1 #
face $-1 $173 $164 $2 $-1 $174 reversed single #
loop $-1 $175 $176 $105 #
cone-surface $-1 19.99999999999999645 -45.00000000000000711 5 0 -1 -3.491481338843129805e-15 10 0 0 1 I I 0 1 10 forward I I I I #
loop $-1 $-1 $177 $80 #
coedge $-1 $139 $139 $178 $179 reversed $106 $-1 #
coedge $-1 $141 $109 $111 $144 forward $83 $-1 #
coedge $-1 $109 $140 $180 $181 forward $83 $-1 #
edge $-1 $145 20.7234649342255004 $182 40.50902260923640341 $134 $183 forward 7 unknown #
coedge $-1 $111 $110 $171 $184 forward $59 $-1 #
edge $-1 $145 -15.00100000000005274 $185 -0.001000000000303202796 $140 $186 reversed 7 unknown #
vertex $-1 $112 $187 #
straight-curve $-1 5.13620179373730501e-14 29.99999999999999645 10 1 0 3.491481338843129805e-15 I I #
edge $-1 $118 -19.99999999999999645 $148 -10 $133 $188 forward 7 unknown #
vertex $-1 $147 $189 #
straight-curve $-1 50 29.99999999999999645 25.00100000000035294 0 0 -1 I I #
point $-1 50 29.99999999999999645 10.00000000000019895 #
ellipse-curve $-1 40 39.99999999999999289 25.00000000000004974 0 0 -1 7.071067811865470176 7.071067811865470176 0 1 I I #
point $-1 50 39.99999999999999289 25.00000000000004974 #
coedge $-1 $190 $122 $191 $192 reversed $69 $-1 #
coedge $-1 $193 $194 $122 $155 forward $195 $-1 #
edge $-1 $196 -0.5235987755983048109 $157 0.5235987755983035896 $154 $197 forward 7 unknown #
coedge $-1 $123 $167 $193 $198 forward $129 $-1 #
vertex $-1 $124 $199 #
straight-curve $-1 -90 0 24.99999999999995026 0 1 0 I I #
coedge $-1 $125 $172 $200 $201 forward $32 $-1 #
coedge $-1 $202 $203 $125 $161 reversed $204 $-1 #
edge $-1 $205 -39.99999999999992184 $165 85.00000000000008527 $160 $206 forward 7 unknown #
coedge $-1 $207 $126 $203 $208 reversed $164 $-1 #
coedge $-1 $126 $207 $128 $168 reversed $164 $-1 #
loop $-1 $-1 $162 $135 #
vertex $-1 $161 $209 #
intcurve-curve $-1 reversed { surfintcur full nubs 3 open 9 
	17.32112471006210086 3 18.24944845971860019 2 19.17777220937500005 2 20.10609595903149938 2 21.03441970868799871 2 
	22.15411068825639873 2 23.27380166782469928 2 24.39349264739299983 2 25.51318362696139985 3 
	-85 39.99999999999999289 2.087121525220499763 
	-85.30944124988550925 39.99999999999999289 2.087121525220499763 
	-85.62860826865799879 39.97077860554339424 2.099800290104469891 
	-86.26132038779229561 39.849005998689492 2.153517791088599864 
	-86.57486952283770165 39.75647852770779878 2.194562821337449954 
	-87.1736848809102014 39.51435422249069518 2.304869873079939957 
	-87.45950548501900812 39.36454116880159404 2.374286972371719706 
	-87.98568070228759552 39.02294638025409768 2.538028394706249635 
	-88.22602729240149699 38.83118679732729817 2.632424703676250033 
	-88.69371339970810197 38.38828764336989252 2.858589523424969858 
	-88.92614510817350038 38.11617124709699311 3.00258370656301965 
	-89.32577722958569666 37.53234871228969638 3.328143116159729686 
	-89.49302429405589976 37.22071070405679194 3.509773245673800002 
	-89.75526538657420872 36.58312130894739767 3.901956270574969743 
	-89.8505178092039074 36.25672121453199281 4.112846751895990138 
	-89.97285907788929649 35.6144459437200922 4.549896893078929416 
	-90.00000000000009948 35.29858426121819548 4.776061804086030094 
	-90.00000000000009948 34.99999999999999289 4.999999999999699796 
	0.001000000000000000021 
	cone -85 34.99999999999999289 -6.456439237389759889 0 0 -1 -3.535533905932739973 3.535533905932739973 0 1 I I 0 -1 5.000000000000003553 forward I I I I 
	cone 0 49.99999999999999289 24.99999999999995026 -1 0 -3.491481338843129805e-15 -8.728703347107829602e-14 0 25 1 I I -0 -1 25 forward I I I I 
	nullbs 
	nullbs 
	I I 
	0 
	0 
	0 
	} I I #
coedge $-1 $156 $128 $210 $211 reversed $129 $-1 #
edge $-1 $130 5.000000000000300204 $212 24.99999999999995026 $128 $213 forward 7 unknown #
face $-1 $214 $129 $2 $-1 $215 reversed single #
point $-1 -90.00000000000009948 34.99999999999999289 4.999999999999699796 #
coedge $-1 $133 $180 $143 $184 reversed $69 $-1 #
coedge $-1 $159 $134 $216 $217 forward $32 $-1 #
face $-1 $169 $218 $2 $-1 $219 reversed single #
cone-surface $-1 -85 34.99999999999999289 -6.456439237389759889 0 0 -1 -3.535533905932739973 3.535533905932739973 0 1 I I 0 -1 5.000000000000003553 forward I I I I #
loop $-1 $-1 $178 $105 #
coedge $-1 $176 $176 $220 $221 forward $136 $-1 #
coedge $-1 $177 $177 $222 $223 reversed $138 $-1 #
coedge $-1 $178 $178 $139 $179 forward $175 $-1 #
edge $-1 $224 -3.141592653589800221 $224 3.141592653589786011 $178 $225 forward 7 unknown #
coedge $-1 $171 $216 $141 $181 reversed $69 $-1 #
edge $-1 $185 -0.785398163397448279 $182 0.2617993877991499629 $180 $226 forward 7 unknown #
vertex $-1 $142 $227 #
intcurve-curve $-1 forward { surfintcur full nubs 3 open 13 
	20.7234649342255004 3 21.88863379220019922 2 23.05380265017500108 2 24.2189715081496999 2 25.38414036612450175 2 
	27.27475064651349967 2 29.16536092690240167 2 31.05597120729139959 2 32.94658148768039752 2 34.83719176806940254 2 
	36.72780204845840046 2 38.61841232884739838 2 40.50902260923640341 3 
	90 29.99999999999999645 10.0000000000003002 
	90.38838961932489724 29.99999999999999645 10.0000000000003002 
	90.78946199356809643 29.97688993491419396 10.03064846641695063 
	91.58771070897729771 29.88133380091559488 10.15932304722864998 
	91.98489059975240423 29.8089207242399965 10.25735163967994978 
	92.74919897544160108 29.62271317243209623 10.51581699412604998 
	93.11698190146719867 29.50884952405259654 10.67649365116194993 
	93.8033532636452918 29.25571711636059646 11.04561682986875049 
	94.12198380605200043 29.11657186594679558 11.25406974320245013 
	94.8760788423835919 28.74608899729119571 11.82992989447105003 
	95.28313329405879983 28.50176747547469702 12.22985158439635001 
	96.00568907475090441 28.00769918839609574 13.10086569115044952 
	96.32083462342629332 27.75779907081359354 13.5721662059564494 
	96.8758547318497989 27.27042071931269618 14.57516840158424998 
	97.11549095874369186 27.03300734888439649 15.10675105885544944 
	97.53169629590330203 26.58535912904919485 16.21855826566874725 
	97.7082375182138918 26.37512180139889395 16.79879225705985135 
	98.00892228962580077 25.99301821942999524 17.99575099463385186 
	98.13302883473079419 25.82120452441779435 18.61234539975964708 
	98.33780774442540462 25.52390642183249625 19.86802912163685164 
	98.41849298083469932 25.39842055522079534 20.50711599375185301 
	98.54372946834729419 25.19794719908399472 21.79346059068745234 
	98.58828718678680048 25.12295041120299643 22.44076248023355191 
	98.64655669620439937 25.0239780072357938 23.7289302365672512 
	98.66025403784439618 24.99999999999999645 24.36979657320394921 
	98.66025403784439618 24.99999999999999645 25.00000000000024869 
	0.001000000000000000021 
	cone 90 19.99999999999999645 -7.499999999999849898 0 0 1 7.071067811865470176 7.071067811865470176 0 1 I I 0 1 9.999999999999992895 forward I I I I 
	cone 0 49.99999999999999289 24.99999999999995026 -1 0 -3.491481338843129805e-15 -8.728703347107829602e-14 0 25 1 I I -0 -1 25 forward I I I I 
	nullbs 
	nullbs 
	I I 
	0 
	0 
	0 
	} I I #
edge $-1 $148 25.00000000000000355 $185 65 $171 $228 forward 7 unknown #
vertex $-1 $184 $229 #
straight-curve $-1 90 29.99999999999999645 25.00100000000035294 0 0 -1 I I #
point $-1 90 29.99999999999999645 10.0000000000003002 #
straight-curve $-1 50 19.99999999999999645 25.00000000000004974 -0 -1 -0 I I #
point $-1 50 29.99999999999999645 25.00000000000004974 #
coedge $-1 $230 $153 $231 $232 reversed $69 $-1 #
coedge $-1 $233 $234 $153 $192 forward $235 $-1 #
edge $-1 $236 0.3589838486216744839 $196 48.50852961085887927 $191 $237 forward 7 unknown #
coedge $-1 $238 $154 $156 $198 reversed $195 $-1 #
coedge $-1 $154 $238 $233 $239 reversed $195 $-1 #
loop $-1 $-1 $194 $214 #
vertex $-1 $192 $240 #
ellipse-curve $-1 -85 -10.92522711888180531 24.99999999999995026 -0 -0 -1 -4.330127018922180326 -2.500000000000019984 0 1 I I #
edge $-1 $241 -24.99999999999995026 $157 14.99999999999995026 $156 $242 forward 7 unknown #
point $-1 -90 -10.92522711888180531 24.99999999999995026 #
coedge $-1 $243 $244 $159 $201 reversed $245 $-1 #
edge $-1 $246 1.570796326794900777 $205 2.730075807522303499 $200 $247 forward 7 unknown #
coedge $-1 $248 $160 $244 $249 forward $204 $-1 #
coedge $-1 $160 $248 $162 $208 forward $204 $-1 #
loop $-1 $-1 $203 $250 #
vertex $-1 $201 $251 #
straight-curve $-1 8.000002570118791567e-14 39.99999999999999289 2.087121525220799967 -1 0 -3.491481338843129805e-15 I I #
coedge $-1 $163 $162 $252 $253 forward $164 $-1 #
edge $-1 $254 -24.99999999999995026 $165 -7.912878474779500237 $203 $255 forward 7 unknown #
point $-1 -85 39.99999999999999289 2.087121525220499763 #
coedge $-1 $252 $256 $167 $211 forward $257 $-1 #
edge $-1 $241 -10.92522711888180531 $212 34.99999999999999289 $167 $258 forward 7 unknown #
vertex $-1 $211 $259 #
straight-curve $-1 -90 34.99999999999999289 10 0 0 -1 I I #
face $-1 $260 $195 $2 $-1 $261 reversed single #
plane-surface $-1 -90 0 10 1 0 0 0 0 -1 forward_v I I I I #
coedge $-1 $180 $262 $172 $217 reversed $69 $-1 #
edge $-1 $182 -98.66025403784439618 $246 -40 $172 $101 forward 7 unknown #
loop $-1 $257 $263 $173 #
plane-surface $-1 0 0 -14.99999999999995026 0 0 1 1 0 0 forward_v I I I I #
coedge $-1 $220 $220 $176 $221 reversed $264 $-1 #
edge $-1 $265 -3.141592653589800221 $265 3.141592653589786011 $220 $266 forward 7 unknown #
coedge $-1 $222 $222 $177 $223 forward $267 $-1 #
edge $-1 $268 -3.141592653589786011 $268 3.141592653589800221 $222 $269 forward 7 unknown #
vertex $-1 $179 $270 #
ellipse-curve $-1 19.99999999999999645 -45.00000000000000711 4.999999999999979572 0 1 0 10 0 0 1 I I #
ellipse-curve $-1 90 19.99999999999999645 25.00000000000004974 0 0 -1 7.071067811865470176 7.071067811865470176 0 1 I I #
point $-1 98.66025403784439618 24.99999999999999645 25.00000000000024869 #
straight-curve $-1 24.99999999999999645 29.99999999999999645 25.00000000000004974 1 0 0 I I #
point $-1 90 29.99999999999999645 25.00000000000004974 #
coedge $-1 $271 $190 $272 $273 reversed $69 $-1 #
coedge $-1 $274 $275 $190 $232 forward $276 $-1 #
edge $-1 $277 -0.2617993877991443563 $236 0.2617993877991440788 $231 $278 forward 7 unknown #
coedge $-1 $279 $191 $194 $239 forward $235 $-1 #
coedge $-1 $191 $279 $274 $280 forward $235 $-1 #
loop $-1 $-1 $233 $281 #
vertex $-1 $192 $282 #
straight-curve $-1 -45.49038105676630295 -39.5096189432331073 24.99999999999995026 -0.8660254037844430375 0.4999999999999920064 0 I I #
coedge $-1 $194 $193 $256 $283 forward $195 $-1 #
edge $-1 $196 -14.99999999999995026 $284 24.99999999999995026 $233 $285 forward 7 unknown #
point $-1 -87.5 -15.25535413780410465 24.99999999999995026 #
vertex $-1 $283 $286 #
straight-curve $-1 -90 -10.92522711888180531 10 0 0 1 I I #
coedge $-1 $287 $200 $288 $289 forward $245 $-1 #
coedge $-1 $200 $287 $202 $249 reversed $245 $-1 #
loop $-1 $-1 $243 $290 #
vertex $-1 $217 $291 #
ellipse-curve $-1 40 49.99999999999999289 25.00000000000004974 1 0 0 -8.728703347107829602e-14 0 25 1 I I #
coedge $-1 $203 $202 $292 $293 reversed $204 $-1 #
edge $-1 $205 7.912878474779059701 $294 24.99999999999995026 $202 $295 forward 7 unknown #
face $-1 $296 $204 $2 $-1 $297 reversed single #
point $-1 40 39.99999999999999289 2.087121525220939855 #
coedge $-1 $292 $210 $207 $253 reversed $257 $-1 #
edge $-1 $254 -0.785398163397448279 $212 0.785398163397448279 $252 $298 forward 7 unknown #
vertex $-1 $208 $299 #
straight-curve $-1 -85 39.99999999999999289 10 0 0 1 I I #
coedge $-1 $210 $300 $238 $283 reversed $257 $-1 #
loop $-1 $-1 $252 $173 #
straight-curve $-1 -90 0 -14.99999999999995026 0 1 0 I I #
point $-1 -90 34.99999999999999289 -14.99999999999995026 #
face $-1 $301 $276 $2 $-1 $302 reversed single #
cone-surface $-1 -85 -10.92522711888180531 5 0 0 1 -4.330127018922180326 -2.500000000000019984 0 1 I I 0 -1 4.999999999999999112 forward I I I I #
coedge $-1 $216 $303 $304 $305 reversed $69 $-1 #
coedge $-1 $263 $263 $306 $307 reversed $218 $-1 #
loop $-1 $308 $220 $301 #
vertex $-1 $221 $309 #
ellipse-curve $-1 19.99999999999999645 -40.00000000000000711 5.00000000000001954 -0 -1 -0 10 0 0 1 I I #
loop $-1 $-1 $222 $310 #
vertex $-1 $223 $311 #
ellipse-curve $-1 19.99999999999999645 -50.00000000000000711 4.999999999999979572 0 -1 0 15 0 3.197442310920459987e-15 1 I I #
point $-1 9.999999999999998224 -45.00000000000000711 4.999999999999909406 #
coedge $-1 $312 $230 $313 $314 reversed $69 $-1 #
coedge $-1 $315 $316 $230 $273 forward $308 $-1 #
edge $-1 $317 -85 $277 43.30127018922100035 $272 $318 forward 7 unknown #
coedge $-1 $319 $231 $234 $280 reversed $276 $-1 #
coedge $-1 $231 $319 $315 $320 reversed $276 $-1 #
loop $-1 $-1 $274 $260 #
vertex $-1 $273 $321 #
ellipse-curve $-1 -43.30127018922100035 -35.00000000000000711 24.99999999999995026 -0 -0 -1 -1.294095225512579939 -4.829629131445350332 0 1 I I #
coedge $-1 $234 $233 $300 $322 reversed $235 $-1 #
edge $-1 $323 -24.99999999999995026 $236 14.99999999999995026 $234 $324 forward 7 unknown #
face $-1 $290 $235 $2 $-1 $325 forward single #
point $-1 -45.80127018922100035 -39.33012701892230467 24.99999999999995026 #
edge $-1 $241 -0.5235987755983035896 $284 0.5235987755983048109 $256 $326 forward 7 unknown #
vertex $-1 $322 $327 #
straight-curve $-1 -87.5 -15.25535413780410465 10 -0 -0 -1 I I #
point $-1 -90 -10.92522711888180531 -14.99999999999995026 #
coedge $-1 $244 $243 $328 $329 reversed $245 $-1 #
coedge $-1 $304 $330 $243 $289 reversed $331 $-1 #
edge $-1 $246 -14.99999999999995026 $332 24.99999999999995026 $243 $333 forward 7 unknown #
face $-1 $334 $245 $2 $-1 $335 forward single #
point $-1 40 24.99999999999999645 24.99999999999995026 #
coedge $-1 $328 $252 $248 $293 forward $257 $-1 #
edge $-1 $254 -85 $294 40 $248 $336 forward 7 unknown #
vertex $-1 $293 $337 #
straight-curve $-1 40 39.99999999999999289 10 0 0 -1 I I #
face $-1 $338 $339 $2 $-1 $340 reversed single #
plane-surface $-1 0 39.99999999999999289 10 0 -1 0 0 0 -1 forward_v I I I I #
ellipse-curve $-1 -85 34.99999999999999289 -14.99999999999995026 0 0 1 -3.535533905932739973 3.535533905932739973 0 1 I I #
point $-1 -85 39.99999999999999289 -14.99999999999995026 #
coedge $-1 $256 $341 $279 $322 forward $257 $-1 #
face $-1 $342 $264 $2 $-1 $343 reversed single #
cone-surface $-1 -43.30127018922100035 -35.00000000000000711 5 -0 -0 -1 -1.294095225512579939 -4.829629131445350332 0 1 I I 0 -1 5.000000000000002665 forward I I I I #
coedge $-1 $262 $344 $345 $346 reversed $69 $-1 #
coedge $-1 $347 $288 $262 $305 forward $331 $-1 #
edge $-1 $246 -0.785398163397448279 $348 0.785398163397448279 $304 $349 reversed 7 unknown #
coedge $-1 $306 $306 $263 $307 forward $350 $-1 #
edge $-1 $351 -3.141592653589799777 $351 3.141592653589786455 $263 $352 forward 7 unknown #
loop $-1 $-1 $315 $301 #
point $-1 9.999999999999998224 -40.00000000000000711 5.000000000000089706 #
face $-1 $-1 $267 $2 $-1 $353 reversed single #
point $-1 4.999999999999997335 -50.00000000000000711 4.999999999999869438 #
coedge $-1 $344 $271 $354 $355 reversed $69 $-1 #
coedge $-1 $356 $357 $271 $314 forward $358 $-1 #
edge $-1 $359 -0.785398163397448279 $317 0.785398163397448279 $313 $360 forward 7 unknown #
coedge $-1 $361 $272 $275 $320 forward $308 $-1 #
coedge $-1 $272 $361 $356 $362 forward $308 $-1 #
vertex $-1 $273 $363 #
straight-curve $-1 0 -40.00000000000000711 24.99999999999995026 -1 0 0 I I #
coedge $-1 $275 $274 $341 $364 forward $276 $-1 #
edge $-1 $277 -14.99999999999995026 $365 24.99999999999995026 $315 $366 forward 7 unknown #
point $-1 -43.30127018922100035 -40.00000000000000711 24.99999999999995026 #
edge $-1 $323 0.3589838486216744839 $284 48.50852961085887927 $300 $367 forward 7 unknown #
vertex $-1 $364 $368 #
straight-curve $-1 -45.80127018922100035 -39.3301270189222052 10 0 0 1 I I #
plane-surface $-1 -62.50000000000009948 -29.68911086754420481 10 -0.4999999999999921174 -0.8660254037844432595 0 0 0 1 forward_v I I I I #
ellipse-curve $-1 -85 -10.92522711888180531 -14.99999999999995026 0 0 1 -4.330127018922180326 -2.500000000000019984 0 1 I I #
point $-1 -87.5 -15.25535413780410465 -14.99999999999995026 #
coedge $-1 $369 $292 $287 $329 forward $257 $-1 #
edge $-1 $294 0 $332 14.99999999999999645 $328 $370 forward 7 unknown #
coedge $-1 $288 $347 $369 $371 forward $331 $-1 #
loop $-1 $-1 $347 $372 #
vertex $-1 $329 $373 #
straight-curve $-1 40 24.99999999999999645 10 0 0 -1 I I #
face $-1 $310 $374 $2 $-1 $375 reversed single #
plane-surface $-1 40 80 10 1 0 0 0 0 -1 forward_v I I I I #
straight-curve $-1 0 39.99999999999999289 -14.99999999999995026 1 0 0 I I #
point $-1 40 39.99999999999999289 -14.99999999999995026 #
face $-1 $281 $376 $2 $-1 $377 reversed single #
loop $-1 $350 $378 $296 #
cone-surface $-1 -50 0 0 0 0 1 15 0 0 1 I I 0 1 15 forward I I I I #
coedge $-1 $300 $379 $319 $364 reversed $257 $-1 #
face $-1 $380 $358 $2 $-1 $381 reversed single #
plane-surface $-1 0 -40.00000000000000711 10 0 1 0 0 0 1 forward_v I I I I #
coedge $-1 $303 $312 $382 $383 reversed $69 $-1 #
coedge $-1 $384 $385 $303 $346 forward $386 $-1 #
edge $-1 $348 -5 $387 35 $345 $388 forward 7 unknown #
coedge $-1 $330 $304 $385 $389 reversed $331 $-1 #
vertex $-1 $389 $390 #
ellipse-curve $-1 45 24.99999999999999645 24.99999999999995026 -0 -0 -1 -3.535533905932739973 -3.535533905932739973 0 1 I I #
loop $-1 $-1 $306 $296 #
vertex $-1 $307 $391 #
ellipse-curve $-1 -50 0 -14.99999999999995026 -0 -0 -1 15 0 0 1 I I #
plane-surface $-1 -0.0005000000000023869899 -50.00000000000000711 0.0005000000001498250413 0 1 0 0 0 1 forward_v I I I I #
coedge $-1 $392 $393 $312 $355 forward $374 $-1 #
edge $-1 $394 -14.99999999999999467 $359 35.00000000000000711 $354 $395 forward 7 unknown #
coedge $-1 $396 $313 $316 $362 reversed $358 $-1 #
coedge $-1 $313 $396 $392 $397 reversed $358 $-1 #
loop $-1 $-1 $356 $342 #
vertex $-1 $355 $398 #
ellipse-curve $-1 85 -35.00000000000000711 24.99999999999995026 -0 -0 -1 3.535533905932739973 -3.535533905932739973 0 1 I I #
coedge $-1 $316 $315 $379 $399 reversed $308 $-1 #
edge $-1 $400 -24.99999999999995026 $317 14.99999999999995026 $316 $401 forward 7 unknown #
point $-1 85 -40.00000000000000711 24.99999999999995026 #
edge $-1 $323 -0.2617993877991440788 $365 0.2617993877991443563 $341 $402 forward 7 unknown #
vertex $-1 $399 $403 #
straight-curve $-1 -43.30127018922100035 -40.00000000000000711 10 0 0 -1 I I #
straight-curve $-1 -45.49038105676630295 -39.5096189432331073 -14.99999999999995026 -0.8660254037844430375 0.4999999999999920064 0 I I #
point $-1 -45.80127018922100035 -39.33012701892230467 -14.99999999999995026 #
coedge $-1 $404 $328 $330 $371 reversed $257 $-1 #
straight-curve $-1 40 39.99999999999999289 -14.99999999999995026 0 -1 0 I I #
edge $-1 $405 -0.785398163397448279 $332 0.785398163397448279 $369 $406 forward 7 unknown #
face $-1 $250 $331 $2 $-1 $407 reversed single #
point $-1 40 24.99999999999999645 -14.99999999999995026 #
loop $-1 $-1 $392 $334 #
plane-surface $-1 90 0 10 -1 0 0 0 0 1 forward_v I I I I #
loop $-1 $-1 $408 $338 #
plane-surface $-1 -50 0 19.99999999999995026 0 0 1 1 0 0 forward_v I I I I #
coedge $-1 $378 $378 $408 $409 forward $339 $-1 #
coedge $-1 $341 $410 $361 $399 forward $257 $-1 #
face $-1 $411 $412 $2 $-1 $413 reversed single #
cone-surface $-1 85 -35.00000000000000711 5 0 0 -1 3.535533905932739973 -3.535533905932739973 0 1 I I 0 -1 5.000000000000003553 forward I I I I #
coedge $-1 $414 $415 $344 $383 forward $412 $-1 #
edge $-1 $387 -0.785398163397448279 $394 0.785398163397448279 $382 $416 forward 7 unknown #
coedge $-1 $417 $345 $415 $418 forward $386 $-1 #
coedge $-1 $345 $417 $347 $389 forward $386 $-1 #
loop $-1 $-1 $384 $411 #
vertex $-1 $346 $419 #
straight-curve $-1 50 19.99999999999999645 24.99999999999995026 1 0 0 I I #
edge $-1 $405 -24.99999999999995026 $348 14.99999999999995026 $385 $420 forward 7 unknown #
point $-1 45 19.99999999999999645 24.99999999999995026 #
point $-1 -65 -1.047440129423038435e-13 -14.99999999999995026 #
coedge $-1 $421 $354 $357 $397 forward $374 $-1 #
coedge $-1 $354 $421 $414 $422 forward $374 $-1 #
vertex $-1 $355 $423 #
straight-curve $-1 90 0 24.99999999999995026 0 -1 0 I I #
coedge $-1 $357 $356 $410 $424 forward $358 $-1 #
edge $-1 $359 -14.99999999999995026 $425 24.99999999999995026 $392 $426 forward 7 unknown #
point $-1 90 -35.00000000000000711 24.99999999999995026 #
edge $-1 $400 -85 $365 43.30127018922100035 $361 $427 forward 7 unknown #
vertex $-1 $424 $428 #
straight-curve $-1 85 -40.00000000000000711 10 0 0 1 I I #
ellipse-curve $-1 -43.30127018922100035 -35.00000000000000711 -14.99999999999995026 0 0 1 -1.294095225512579939 -4.829629131445350332 0 1 I I #
point $-1 -43.30127018922100035 -40.00000000000000711 -14.99999999999995026 #
coedge $-1 $429 $369 $417 $430 forward $257 $-1 #
vertex $-1 $371 $431 #
ellipse-curve $-1 45 24.99999999999999645 -14.99999999999995026 -0 -0 -1 -3.535533905932739973 -3.535533905932739973 0 1 I I #
cone-surface $-1 45 24.99999999999999645 5 -0 -0 -1 -3.535533905932739973 -3.535533905932739973 0 1 I I 0 1 5.000000000000003553 forward I I I I #
coedge $-1 $408 $408 $378 $409 reversed $376 $-1 #
edge $-1 $432 0 $432 6.283185307179586232 $408 $433 forward 7 unknown #
coedge $-1 $379 $434 $396 $424 reversed $257 $-1 #
face $-1 $372 $386 $2 $-1 $435 forward single #
loop $-1 $-1 $415 $380 #
cone-surface $-1 85 14.99999999999999467 5 0 0 1 3.535533905932739973 3.535533905932739973 0 1 I I 0 -1 5.000000000000003553 forward I I I I #
coedge $-1 $436 $382 $393 $422 reversed $412 $-1 #
coedge $-1 $382 $436 $384 $418 reversed $412 $-1 #
ellipse-curve $-1 85 14.99999999999999467 24.99999999999995026 -0 -0 -1 3.535533905932739973 3.535533905932739973 0 1 I I #
coedge $-1 $385 $384 $404 $430 reversed $386 $-1 #
edge $-1 $387 -14.99999999999995026 $437 24.99999999999995026 $384 $438 forward 7 unknown #
point $-1 85 19.99999999999999645 24.99999999999995026 #
straight-curve $-1 45 19.99999999999999645 10 0 0 1 I I #
coedge $-1 $393 $392 $434 $439 reversed $374 $-1 #
edge $-1 $440 -24.99999999999995026 $394 14.99999999999995026 $393 $441 forward 7 unknown #
point $-1 90 14.99999999999999467 24.99999999999995026 #
edge $-1 $400 -0.785398163397448279 $425 0.785398163397448279 $410 $442 forward 7 unknown #
vertex $-1 $439 $443 #
straight-curve $-1 90 -35.00000000000000711 10 0 0 -1 I I #
straight-curve $-1 0 -40.00000000000000711 -14.99999999999995026 -1 0 0 I I #
point $-1 85 -40.00000000000000711 -14.99999999999995026 #
coedge $-1 $434 $404 $436 $444 reversed $257 $-1 #
edge $-1 $405 -5 $437 35 $404 $445 forward 7 unknown #
point $-1 45 19.99999999999999645 -14.99999999999995026 #
vertex $-1 $409 $446 #
ellipse-curve $-1 -50 0 19.99999999999995026 0 0 1 15 0 0 1 I I #
coedge $-1 $410 $429 $421 $439 forward $257 $-1 #
plane-surface $-1 100 19.99999999999999645 10 0 1 0 0 0 1 forward_v I I I I #
coedge $-1 $415 $414 $429 $444 forward $412 $-1 #
vertex $-1 $430 $447 #
straight-curve $-1 85 19.99999999999999645 10 -0 -0 -1 I I #
edge $-1 $440 -14.99999999999999467 $425 35.00000000000000711 $421 $448 forward 7 unknown #
vertex $-1 $444 $449 #
straight-curve $-1 90 14.99999999999999467 10 0 0 1 I I #
ellipse-curve $-1 85 -35.00000000000000711 -14.99999999999995026 0 0 1 3.535533905932739973 -3.535533905932739973 0 1 I I #
point $-1 90 -35.00000000000000711 -14.99999999999995026 #
edge $-1 $440 -0.785398163397448279 $437 0.785398163397448279 $429 $450 forward 7 unknown #
straight-curve $-1 50 19.99999999999999645 -14.99999999999995026 1 0 0 I I #
point $-1 -35 0 19.99999999999995026 #
point $-1 85 19.99999999999999645 -14.99999999999995026 #
straight-curve $-1 90 0 -14.99999999999995026 0 -1 0 I I #
point $-1 90 14.99999999999999467 -14.99999999999995026 #
ellipse-curve $-1 85 14.99999999999999467 -14.99999999999995026 0 0 1 3.535533905932739973 3.535533905932739973 0 1 I I #
End-of-ACIS-data 