105 452 1 0                             
body $-1 $1 $-1 $2 #
lump $-1 $-1 $3 $0 #
transform $-1 1 0 0 0 1 0 0 0 1 -0.000500000000002387 0.000499999999995282 0.000500000000149825 1 0 0 0 #
shell $-1 $-1 $-1 $4 $1 #
face $-1 $5 $6 $3 $-1 $7 reversed single #
face $-1 $8 $9 $3 $-1 $10 reversed single #
loop $-1 $-1 $11 $4 #
cone-surface $-1 -89.9995 39.9995 25.0005000000002 0 0 -1 -7.07106781186547 7.07106781186547 0 1 0 -1 0 #
face $-1 $12 $13 $3 $-1 $14 reversed single #
loop $-1 $-1 $15 $5 #
plane-surface $-1 -99.9995 -13.8124784648301 25.0005000000002 1 0 0 0 0 -1 0 #
coedge $-1 $16 $17 $18 $19 1 $6 $-1 #
face $-1 $20 $21 $3 $-1 $22 reversed single #
loop $-1 $-1 $23 $8 #
plane-surface $-1 -89.9995 49.9995 25.0005000000002 0 -1 0 0 0 -1 0 #
coedge $-1 $24 $25 $26 $27 1 $9 $-1 #
coedge $-1 $28 $11 $25 $29 1 $6 $-1 #
coedge $-1 $11 $28 $30 $31 1 $6 $-1 #
coedge $-1 $32 $26 $11 $19 0 $33 $-1 #
edge $-1 $34 $35 $18 $36 0 #
face $-1 $37 $38 $3 $-1 $39 reversed single #
loop $-1 $-1 $40 $12 #
cone-surface $-1 40.0005 39.9995 25.0005000000002 0 0 -1 7.07106781186547 7.07106781186547 0 1 0 -1 0 #
coedge $-1 $30 $41 $32 $42 1 $13 $-1 #
coedge $-1 $25 $15 $43 $44 0 $9 $-1 #
coedge $-1 $15 $24 $16 $29 0 $9 $-1 #
coedge $-1 $18 $45 $15 $27 0 $33 $-1 #
edge $-1 $46 $34 $26 $47 0 #
coedge $-1 $17 $16 $48 $49 0 $6 $-1 #
edge $-1 $50 $34 $16 $51 0 #
coedge $-1 $52 $23 $17 $31 0 $13 $-1 #
edge $-1 $35 $53 $30 $54 1 #
coedge $-1 $55 $18 $23 $42 0 $33 $-1 #
loop $-1 $-1 $55 $56 #
vertex $-1 $27 $57 #
vertex $-1 $42 $58 #
intcurve-curve $-1 0 { surfintcur nubs 3 open 9 
	17.1401744590532 3 19.0925314011814 2 21.0448883433096 2 22.9972452854378 2 24.949602227566 2 
	26.8350696743494 2 28.7205371211329 2 30.6060045679164 2 32.4914720146998 3 
	-99.9995 39.9995 2.08662152522035 
	-99.9995 40.5959548980583 1.82630726626993 
	-99.9452138946979 41.2239968046699 1.58069381012181 
	-99.7052699199604 42.4924194865492 1.14381552348778 
	-99.5195143449044 43.1327627089363 0.952495333085872 
	-99.017023471256 44.3735465103802 0.632326195537326 
	-98.6996971143359 44.975251925083 0.502960801660068 
	-97.9557806420394 46.0945090583081 0.299812812728138 
	-97.5291500171793 46.6119856065517 0.225764501411882 
	-96.6276970431367 47.5134385805943 0.119420363642478 
	-96.126905367715 47.9296561758845 0.082615844008744 
	-95.0356088625297 48.6637992243727 0.0324963165369302 
	-94.4451410323768 48.9817616514629 0.0189176319377434 
	-93.2130317865487 49.4925481356511 0.0033345771662725 
	-92.5703993111032 49.6857888716105 0.00114701221361004 
	-91.2778831646975 49.9392913386988 -0.000748832574260859 
	-90.6279891489278 49.9995 -0.000500000000466202 
	-89.9995 49.9995 -0.000500000000464058 
	0.001 
	cone -89.9995 39.9995 -12.5005000000004 0 0 -1 -7.07106781186547 7.07106781186547 0 1 0 1 0 
	cone 0.000500000000002387 49.9995 24.9994999999998 -1 0 -3.49148133884313e-15 -8.72870334710783e-14 0 25 1 -0 -1 0 
	nullbs 
	nullbs 
	} #
face $-1 $59 $60 $3 $-1 $61 reversed single #
loop $-1 $-1 $62 $20 #
plane-surface $-1 50.0005 39.9995 25.0005000000002 -1 0 0 0 0 1 0 #
coedge $-1 $63 $64 $55 $65 1 $21 $-1 #
coedge $-1 $23 $52 $63 $66 0 $13 $-1 #
edge $-1 $35 $67 $32 $68 0 #
coedge $-1 $69 $48 $24 $44 1 $70 $-1 #
edge $-1 $46 $50 $43 $71 0 #
coedge $-1 $26 $72 $69 $73 0 $33 $-1 #
vertex $-1 $27 $74 #
ellipse-curve $-1 -99.9995 49.9995 24.9994999999995 1 0 0 -8.72870334710783e-14 0 25 1 #
coedge $-1 $43 $75 $28 $49 1 $70 $-1 #
edge $-1 $50 $53 $48 $76 0 #
vertex $-1 $44 $77 #
straight-curve $-1 -99.9995 39.9995 25.0005000000002 0 0 -1 #
coedge $-1 $41 $30 $75 $78 0 $13 $-1 #
vertex $-1 $49 $79 #
straight-curve $-1 -89.9995 49.9995 25.0005000000002 0 0 -1 #
coedge $-1 $80 $32 $40 $65 0 $33 $-1 #
face $-1 $81 $33 $3 $-1 $82 forward single #
point $-1 -99.9995 39.9995 2.08662152522035 #
point $-1 -89.9995 49.9995 -0.000500000000464058 #
face $-1 $83 $84 $3 $-1 $85 reversed single #
loop $-1 $-1 $86 $37 #
plane-surface $-1 50.0005 29.9995 25.0005000000002 0 -1 0 0 0 -1 0 #
coedge $-1 $87 $88 $80 $89 1 $38 $-1 #
coedge $-1 $90 $40 $41 $66 1 $21 $-1 #
coedge $-1 $40 $90 $87 $91 1 $21 $-1 #
edge $-1 $67 $92 $55 $93 0 #
edge $-1 $94 $67 $63 $95 0 #
vertex $-1 $42 $96 #
straight-curve $-1 0.000500000000089674 49.9995 -0.000500000000149825 1 0 3.49148133884313e-15 #
coedge $-1 $97 $43 $45 $73 1 $70 $-1 #
loop $-1 $-1 $69 $83 #
straight-curve $-1 -99.9995 -6.90648923241505 24.9994999999999 0 1 0 #
coedge $-1 $45 $98 $99 $100 0 $33 $-1 #
edge $-1 $101 $46 $45 $102 0 #
point $-1 -99.9995 24.9995 24.9994999999998 #
coedge $-1 $48 $103 $52 $78 1 $70 $-1 #
ellipse-curve $-1 -89.9995 39.9995 24.9994999999999 0 0 -1 -7.07106781186547 7.07106781186547 0 1 #
point $-1 -99.9995 39.9995 24.9994999999999 #
edge $-1 $53 $94 $75 $104 0 #
point $-1 -89.9995 49.9995 24.9994999999999 #
coedge $-1 $105 $55 $62 $89 0 $33 $-1 #
face $-1 $106 $107 $3 $-1 $108 reversed single #
cone-surface $-1 0.000500000000002387 49.9995 24.9994999999998 -1 0 -3.49148133884313e-15 -8.72870334710783e-14 0 25 1 0 1 0 #
face $-1 $56 $70 $3 $-1 $109 reversed single #
loop $-1 $-1 $110 $59 #
cone-surface $-1 90.0005 19.9995 25.0005000000002 0 0 -1 7.07106781186547 7.07106781186547 0 1 0 -1 0 #
coedge $-1 $111 $112 $105 $113 1 $60 $-1 #
coedge $-1 $114 $62 $64 $91 0 $38 $-1 #
coedge $-1 $62 $114 $111 $115 0 $38 $-1 #
edge $-1 $92 $116 $80 $117 0 #
coedge $-1 $64 $63 $103 $118 0 $21 $-1 #
edge $-1 $92 $119 $87 $120 1 #
vertex $-1 $65 $121 #
intcurve-curve $-1 0 { surfintcur nubs 3 open 9 
	32.510431783228 3 34.3958992300115 2 36.281366676795 2 38.1668341235785 2 40.052301570362 2 
	42.0046585124902 2 43.9570154546184 2 45.9093723967465 2 47.8617293388747 3 
	40.0005 49.9995 -0.000500000000010166 
	40.6289891489278 49.9995 -0.000500000000008022 
	41.2788831646975 49.9392913386988 -0.000748832573799951 
	42.5713993111032 49.6857888716105 0.00114701221407984 
	43.2140317865487 49.4925481356511 0.00333457716674717 
	44.4461410323769 48.9817616514629 0.0189176319382276 
	45.0366088625297 48.6637992243727 0.0324963165374229 
	46.1279053677151 47.9296561758844 0.0826158440092474 
	46.6286970431368 47.5134385805942 0.119420363642986 
	47.5301500171793 46.6119856065516 0.225764501412401 
	47.9567806420395 46.094509058308 0.299812812728669 
	48.7006971143359 44.9752519250829 0.50296080166061 
	49.0180234712561 44.3735465103801 0.632326195537873 
	49.5205143449044 43.1327627089361 0.95249533308643 
	49.7062699199605 42.492419486549 1.14381552348834 
	49.9462138946979 41.2239968046697 1.58069381012237 
	50.0004999999999 40.5959548980583 1.82630726627043 
	50.0004999999999 39.9995 2.08662152522085 
	0.001 
	cone 40.0005 39.9995 -12.5005000000001 0 0 -1 7.07106781186547 7.07106781186547 0 1 0 1 0 
	cone 0.000500000000002387 49.9995 24.9994999999998 -1 0 -3.49148133884313e-15 -8.72870334710783e-14 0 25 1 -0 -1 0 
	nullbs 
	nullbs 
	} #
vertex $-1 $78 $122 #
straight-curve $-1 40.0005 49.9995 25.0005000000002 0 0 -1 #
point $-1 40.0005 49.9995 -0.000500000000010166 #
coedge $-1 $123 $69 $124 $125 1 $70 $-1 #
coedge $-1 $72 $126 $127 $128 1 $33 $-1 #
coedge $-1 $129 $124 $72 $100 1 $130 $-1 #
edge $-1 $131 $101 $99 $132 0 #
vertex $-1 $125 $133 #
straight-curve $-1 0.000500000000002387 24.9995 24.9994999999998 -1 0 -3.49148133884313e-15 #
coedge $-1 $75 $134 $90 $118 1 $70 $-1 #
straight-curve $-1 -44.9995 49.9995 24.9994999999999 1 0 0 #
coedge $-1 $135 $80 $86 $113 0 $33 $-1 #
face $-1 $136 $137 $3 $-1 $138 forward single #
loop $-1 $139 $140 $81 #
cone-surface $-1 20.0005 -47.5005 4.99949999999983 0 1 0 12.5 0 2.66453525910038e-15 1 0.707106781186547 -0.707106781186547 0 #
plane-surface $-1 0.000500000000002387 -0.000499999999995282 24.9994999999999 0 0 -1 -1 0 0 0 #
coedge $-1 $141 $142 $135 $143 1 $84 $-1 #
coedge $-1 $144 $86 $88 $115 1 $60 $-1 #
coedge $-1 $86 $144 $141 $145 1 $60 $-1 #
edge $-1 $116 $146 $105 $147 0 #
coedge $-1 $88 $87 $134 $148 0 $38 $-1 #
edge $-1 $149 $116 $111 $150 0 #
vertex $-1 $89 $151 #
ellipse-curve $-1 50.0004999999999 49.9995 24.9995 -1 -0 -0 -8.72870334710783e-14 0 25 1 #
edge $-1 $94 $119 $103 $152 0 #
vertex $-1 $118 $153 #
straight-curve $-1 50.0005 39.9995 25.0005000000002 0 0 -1 #
point $-1 50.0004999999999 39.9995 2.08662152522085 #
point $-1 40.0005 49.9995 24.9994999999999 #
coedge $-1 $154 $97 $155 $156 1 $70 $-1 #
coedge $-1 $99 $157 $97 $125 0 $130 $-1 #
edge $-1 $158 $101 $124 $159 0 #
coedge $-1 $98 $160 $161 $162 0 $33 $-1 #
coedge $-1 $163 $164 $98 $128 0 $165 $-1 #
edge $-1 $131 $166 $98 $167 0 #
coedge $-1 $168 $99 $164 $169 0 $130 $-1 #
loop $-1 $-1 $129 $170 #
vertex $-1 $128 $171 #
ellipse-curve $-1 -89.9995000000001 49.9995 24.9994999999995 -1 -0 -0 -8.72870334710783e-14 0 25 1 #
point $-1 -89.9995 24.9995 24.9994999999998 #
coedge $-1 $103 $172 $114 $148 1 $70 $-1 #
coedge $-1 $173 $105 $110 $143 0 $33 $-1 #
face $-1 $174 $165 $3 $-1 $175 reversed single #
loop $-1 $176 $177 $106 #
cone-surface $-1 20.0005 -45.0005 4.99949999999985 0 -1 -3.49148133884313e-15 10 0 0 1 0 1 0 #
loop $-1 $-1 $178 $81 #
coedge $-1 $140 $140 $179 $180 1 $107 $-1 #
coedge $-1 $142 $110 $112 $145 0 $84 $-1 #
coedge $-1 $110 $141 $181 $182 0 $84 $-1 #
edge $-1 $146 $183 $135 $184 0 #
coedge $-1 $112 $111 $172 $185 0 $60 $-1 #
edge $-1 $146 $186 $141 $187 1 #
vertex $-1 $113 $188 #
straight-curve $-1 0.000500000000053749 29.9995 9.99949999999985 1 0 3.49148133884313e-15 #
edge $-1 $119 $149 $134 $189 0 #
vertex $-1 $148 $190 #
straight-curve $-1 50.0005 29.9995 25.0005000000002 0 0 -1 #
point $-1 50.0005 29.9995 9.99950000000005 #
ellipse-curve $-1 40.0005 39.9995 24.9994999999999 0 0 -1 7.07106781186547 7.07106781186547 0 1 #
point $-1 50.0005 39.9995 24.9994999999999 #
coedge $-1 $191 $123 $192 $193 1 $70 $-1 #
coedge $-1 $194 $195 $123 $156 0 $196 $-1 #
edge $-1 $197 $158 $155 $198 0 #
coedge $-1 $124 $168 $194 $199 0 $130 $-1 #
vertex $-1 $125 $200 #
straight-curve $-1 -89.9995 -0.000499999999995282 24.9994999999998 0 1 0 #
coedge $-1 $126 $173 $201 $202 0 $33 $-1 #
coedge $-1 $203 $204 $126 $162 1 $205 $-1 #
edge $-1 $206 $166 $161 $207 0 #
coedge $-1 $208 $127 $204 $209 1 $165 $-1 #
coedge $-1 $127 $208 $129 $169 1 $165 $-1 #
loop $-1 $-1 $163 $136 #
vertex $-1 $162 $210 #
intcurve-curve $-1 1 { surfintcur nubs 3 open 9 
	17.3211247100621 3 18.2494484597186 2 19.177772209375 2 20.1060959590315 2 21.034419708688 2 
	22.1541106882564 2 23.2738016678247 2 24.393492647393 2 25.5131836269614 3 
	-84.9995 39.9995 2.08662152522035 
	-85.3089412498855 39.9995 2.08662152522035 
	-85.628108268658 39.9702786055434 2.09930029010432 
	-86.2608203877923 39.8485059986895 2.15301779108845 
	-86.5743695228377 39.7559785277078 2.1940628213373 
	-87.1731848809102 39.5138542224907 2.30436987307979 
	-87.459005485019 39.3640411688016 2.37378697237157 
	-87.9851807022876 39.0224463802541 2.5375283947061 
	-88.2255272924015 38.8306867973273 2.6319247036761 
	-88.6932133997081 38.3877876433699 2.85808952342482 
	-88.9256451081735 38.115671247097 3.00208370656287 
	-89.3252772295857 37.5318487122897 3.32764311615958 
	-89.4925242940559 37.2202107040568 3.50927324567365 
	-89.7547653865742 36.5826213089474 3.90145627057482 
	-89.8500178092039 36.256221214532 4.11234675189584 
	-89.9723590778893 35.6139459437201 4.54939689307878 
	-89.9995000000001 35.2980842612182 4.77556180408588 
	-89.9995000000001 34.9995 4.99949999999955 
	0.001 
	cone -84.9995 34.9995 -6.45693923738991 0 0 -1 -3.53553390593274 3.53553390593274 0 1 0 -1 0 
	cone 0.000500000000002387 49.9995 24.9994999999998 -1 0 -3.49148133884313e-15 -8.72870334710783e-14 0 25 1 -0 -1 0 
	nullbs 
	nullbs 
	} #
coedge $-1 $157 $129 $211 $212 1 $130 $-1 #
edge $-1 $131 $213 $129 $214 0 #
face $-1 $215 $130 $3 $-1 $216 reversed single #
point $-1 -89.9995000000001 34.9995 4.99949999999955 #
coedge $-1 $134 $181 $144 $185 1 $70 $-1 #
coedge $-1 $160 $135 $217 $218 0 $33 $-1 #
face $-1 $170 $219 $3 $-1 $220 reversed single #
cone-surface $-1 -84.9995 34.9995 -6.45693923738991 0 0 -1 -3.53553390593274 3.53553390593274 0 1 0 -1 0 #
loop $-1 $-1 $179 $106 #
coedge $-1 $177 $177 $221 $222 0 $137 $-1 #
coedge $-1 $178 $178 $223 $224 1 $139 $-1 #
coedge $-1 $179 $179 $140 $180 0 $176 $-1 #
edge $-1 $225 $225 $179 $226 0 #
coedge $-1 $172 $217 $142 $182 1 $70 $-1 #
edge $-1 $186 $183 $181 $227 0 #
vertex $-1 $143 $228 #
intcurve-curve $-1 0 { surfintcur nubs 3 open 13 
	20.7234649342255 3 21.8886337922002 2 23.053802650175 2 24.2189715081497 2 25.3841403661245 2 
	27.2747506465135 2 29.1653609269024 2 31.0559712072914 2 32.9465814876804 2 34.8371917680694 2 
	36.7278020484584 2 38.6184123288474 2 40.5090226092364 3 
	90.0005 29.9995 9.99950000000015 
	90.3888896193249 29.9995 9.99950000000015 
	90.7899619935681 29.9763899349142 10.0301484664168 
	91.5882107089773 29.8808338009156 10.1588230472285 
	91.9853905997524 29.80842072424 10.2568516396798 
	92.7496989754416 29.6222131724321 10.5153169941259 
	93.1174819014672 29.5083495240526 10.6759936511618 
	93.8038532636453 29.2552171163606 11.0451168298686 
	94.122483806052 29.1160718659468 11.2535697432023 
	94.8765788423836 28.7455889972912 11.8294298944709 
	95.2836332940588 28.5012674754747 12.2293515843962 
	96.0061890747509 28.0071991883961 13.1003656911503 
	96.3213346234263 27.7572990708136 13.5716662059563 
	96.8763547318498 27.2699207193127 14.5746684015841 
	97.1159909587437 27.0325073488844 15.1062510588553 
	97.5321962959033 26.5848591290492 16.2180582656686 
	97.7087375182139 26.3746218013989 16.7982922570597 
	98.0094222896258 25.99251821943 17.9952509946337 
	98.1335288347308 25.8207045244178 18.6118453997595 
	98.3383077444254 25.5234064218325 19.8675291216367 
	98.4189929808347 25.3979205552208 20.5066159937517 
	98.5442294683473 25.197447199084 21.7929605906873 
	98.5887871867868 25.122450411203 22.4402624802334 
	98.6470566962044 25.0234780072358 23.7284302365671 
	98.6607540378444 24.9995 24.3692965732038 
	98.6607540378444 24.9995 24.9995000000001 
	0.001 
	cone 90.0005 19.9995 -7.5005 0 0 1 7.07106781186547 7.07106781186547 0 1 0 1 0 
	cone 0.000500000000002387 49.9995 24.9994999999998 -1 0 -3.49148133884313e-15 -8.72870334710783e-14 0 25 1 -0 -1 0 
	nullbs 
	nullbs 
	} #
edge $-1 $149 $186 $172 $229 0 #
vertex $-1 $185 $230 #
straight-curve $-1 90.0005 29.9995 25.0005000000002 0 0 -1 #
point $-1 90.0005 29.9995 9.99950000000015 #
straight-curve $-1 50.0005 19.9995 24.9994999999999 -0 -1 -0 #
point $-1 50.0005 29.9995 24.9994999999999 #
coedge $-1 $231 $154 $232 $233 1 $70 $-1 #
coedge $-1 $234 $235 $154 $193 0 $236 $-1 #
edge $-1 $237 $197 $192 $238 0 #
coedge $-1 $239 $155 $157 $199 1 $196 $-1 #
coedge $-1 $155 $239 $234 $240 1 $196 $-1 #
loop $-1 $-1 $195 $215 #
vertex $-1 $193 $241 #
ellipse-curve $-1 -84.9995 -10.9257271188818 24.9994999999998 -0 -0 -1 -4.33012701892218 -2.50000000000002 0 1 #
edge $-1 $242 $158 $157 $243 0 #
point $-1 -89.9995 -10.9257271188818 24.9994999999998 #
coedge $-1 $244 $245 $160 $202 1 $246 $-1 #
edge $-1 $247 $206 $201 $248 0 #
coedge $-1 $249 $161 $245 $250 0 $205 $-1 #
coedge $-1 $161 $249 $163 $209 0 $205 $-1 #
loop $-1 $-1 $204 $251 #
vertex $-1 $202 $252 #
straight-curve $-1 0.000500000000082387 39.9995 2.08662152522065 -1 0 -3.49148133884313e-15 #
coedge $-1 $164 $163 $253 $254 0 $165 $-1 #
edge $-1 $255 $166 $204 $256 0 #
point $-1 -84.9995 39.9995 2.08662152522035 #
coedge $-1 $253 $257 $168 $212 0 $258 $-1 #
edge $-1 $242 $213 $168 $259 0 #
vertex $-1 $212 $260 #
straight-curve $-1 -89.9995 34.9995 9.99949999999985 0 0 -1 #
face $-1 $261 $196 $3 $-1 $262 reversed single #
plane-surface $-1 -89.9995 -0.000499999999995282 9.99949999999985 1 0 0 0 0 -1 0 #
coedge $-1 $181 $263 $173 $218 1 $70 $-1 #
edge $-1 $183 $247 $173 $102 0 #
loop $-1 $258 $264 $174 #
plane-surface $-1 0.000500000000002387 -0.000499999999995282 -15.0005000000001 0 0 1 1 0 0 0 #
coedge $-1 $221 $221 $177 $222 1 $265 $-1 #
edge $-1 $266 $266 $221 $267 0 #
coedge $-1 $223 $223 $178 $224 0 $268 $-1 #
edge $-1 $269 $269 $223 $270 0 #
vertex $-1 $180 $271 #
ellipse-curve $-1 20.0005 -45.0005 4.99949999999983 0 1 0 10 0 0 1 #
ellipse-curve $-1 90.0005 19.9995 24.9994999999999 0 0 -1 7.07106781186547 7.07106781186547 0 1 #
point $-1 98.6607540378444 24.9995 24.9995000000001 #
straight-curve $-1 25.0005 29.9995 24.9994999999999 1 0 0 #
point $-1 90.0005 29.9995 24.9994999999999 #
coedge $-1 $272 $191 $273 $274 1 $70 $-1 #
coedge $-1 $275 $276 $191 $233 0 $277 $-1 #
edge $-1 $278 $237 $232 $279 0 #
coedge $-1 $280 $192 $195 $240 0 $236 $-1 #
coedge $-1 $192 $280 $275 $281 0 $236 $-1 #
loop $-1 $-1 $234 $282 #
vertex $-1 $193 $283 #
straight-curve $-1 -45.4898810567663 -39.5101189432331 24.9994999999998 -0.866025403784443 0.499999999999992 0 #
coedge $-1 $195 $194 $257 $284 0 $196 $-1 #
edge $-1 $197 $285 $234 $286 0 #
point $-1 -87.4995 -15.2558541378041 24.9994999999998 #
vertex $-1 $284 $287 #
straight-curve $-1 -89.9995 -10.9257271188818 9.99949999999985 0 0 1 #
coedge $-1 $288 $201 $289 $290 0 $246 $-1 #
coedge $-1 $201 $288 $203 $250 1 $246 $-1 #
loop $-1 $-1 $244 $291 #
vertex $-1 $218 $292 #
ellipse-curve $-1 40.0005 49.9995 24.9994999999999 1 0 0 -8.72870334710783e-14 0 25 1 #
coedge $-1 $204 $203 $293 $294 1 $205 $-1 #
edge $-1 $206 $295 $203 $296 0 #
face $-1 $297 $205 $3 $-1 $298 reversed single #
point $-1 40.0005 39.9995 2.08662152522079 #
coedge $-1 $293 $211 $208 $254 1 $258 $-1 #
edge $-1 $255 $213 $253 $299 0 #
vertex $-1 $209 $300 #
straight-curve $-1 -84.9995 39.9995 9.99949999999985 0 0 1 #
coedge $-1 $211 $301 $239 $284 1 $258 $-1 #
loop $-1 $-1 $253 $174 #
straight-curve $-1 -89.9995 -0.000499999999995282 -15.0005000000001 0 1 0 #
point $-1 -89.9995 34.9995 -15.0005000000001 #
face $-1 $302 $277 $3 $-1 $303 reversed single #
cone-surface $-1 -84.9995 -10.9257271188818 4.99949999999985 0 0 1 -4.33012701892218 -2.50000000000002 0 1 0 -1 0 #
coedge $-1 $217 $304 $305 $306 1 $70 $-1 #
coedge $-1 $264 $264 $307 $308 1 $219 $-1 #
loop $-1 $309 $221 $302 #
vertex $-1 $222 $310 #
ellipse-curve $-1 20.0005 -40.0005 4.99949999999987 -0 -1 -0 10 0 0 1 #
loop $-1 $-1 $223 $311 #
vertex $-1 $224 $312 #
ellipse-curve $-1 20.0005 -50.0005 4.99949999999983 -0 -1 0 15 0 3.19744231092046e-15 1 #
point $-1 10.0005 -45.0005 4.99949999999976 #
coedge $-1 $313 $231 $314 $315 1 $70 $-1 #
coedge $-1 $316 $317 $231 $274 0 $309 $-1 #
edge $-1 $318 $278 $273 $319 0 #
coedge $-1 $320 $232 $235 $281 1 $277 $-1 #
coedge $-1 $232 $320 $316 $321 1 $277 $-1 #
loop $-1 $-1 $275 $261 #
vertex $-1 $274 $322 #
ellipse-curve $-1 -43.300770189221 -35.0005 24.9994999999998 -0 -0 -1 -1.29409522551258 -4.82962913144535 0 1 #
coedge $-1 $235 $234 $301 $323 1 $236 $-1 #
edge $-1 $324 $237 $235 $325 0 #
face $-1 $291 $236 $3 $-1 $326 forward single #
point $-1 -45.800770189221 -39.3306270189223 24.9994999999998 #
edge $-1 $242 $285 $257 $327 0 #
vertex $-1 $323 $328 #
straight-curve $-1 -87.4995 -15.2558541378041 9.99949999999985 -0 -0 -1 #
point $-1 -89.9995 -10.9257271188818 -15.0005000000001 #
coedge $-1 $245 $244 $329 $330 1 $246 $-1 #
coedge $-1 $305 $331 $244 $290 1 $332 $-1 #
edge $-1 $247 $333 $244 $334 0 #
face $-1 $335 $246 $3 $-1 $336 forward single #
point $-1 40.0005 24.9995 24.9994999999998 #
coedge $-1 $329 $253 $249 $294 0 $258 $-1 #
edge $-1 $255 $295 $249 $337 0 #
vertex $-1 $294 $338 #
straight-curve $-1 40.0005 39.9995 9.99949999999985 0 0 -1 #
face $-1 $339 $340 $3 $-1 $341 reversed single #
plane-surface $-1 0.000500000000002387 39.9995 9.99949999999985 0 -1 0 0 0 -1 0 #
ellipse-curve $-1 -84.9995 34.9995 -15.0005000000001 0 0 1 -3.53553390593274 3.53553390593274 0 1 #
point $-1 -84.9995 39.9995 -15.0005000000001 #
coedge $-1 $257 $342 $280 $323 0 $258 $-1 #
face $-1 $343 $265 $3 $-1 $344 reversed single #
cone-surface $-1 -43.300770189221 -35.0005 4.99949999999985 -0 -0 -1 -1.29409522551258 -4.82962913144535 0 1 0 -1 0 #
coedge $-1 $263 $345 $346 $347 1 $70 $-1 #
coedge $-1 $348 $289 $263 $306 0 $332 $-1 #
edge $-1 $247 $349 $305 $350 1 #
coedge $-1 $307 $307 $264 $308 0 $351 $-1 #
edge $-1 $352 $352 $264 $353 0 #
loop $-1 $-1 $316 $302 #
point $-1 10.0005 -40.0005 4.99949999999994 #
face $-1 $-1 $268 $3 $-1 $354 reversed single #
point $-1 5.0005 -50.0005 4.99949999999972 #
coedge $-1 $345 $272 $355 $356 1 $70 $-1 #
coedge $-1 $357 $358 $272 $315 0 $359 $-1 #
edge $-1 $360 $318 $314 $361 0 #
coedge $-1 $362 $273 $276 $321 0 $309 $-1 #
coedge $-1 $273 $362 $357 $363 0 $309 $-1 #
vertex $-1 $274 $364 #
straight-curve $-1 0.000500000000002387 -40.0005 24.9994999999998 -1 0 0 #
coedge $-1 $276 $275 $342 $365 0 $277 $-1 #
edge $-1 $278 $366 $316 $367 0 #
point $-1 -43.300770189221 -40.0005 24.9994999999998 #
edge $-1 $324 $285 $301 $368 0 #
vertex $-1 $365 $369 #
straight-curve $-1 -45.800770189221 -39.3306270189222 9.99949999999985 0 0 1 #
plane-surface $-1 -62.4995000000001 -29.6896108675442 9.99949999999985 -0.499999999999992 -0.866025403784443 0 0 0 1 0 #
ellipse-curve $-1 -84.9995 -10.9257271188818 -15.0005000000001 0 0 1 -4.33012701892218 -2.50000000000002 0 1 #
point $-1 -87.4995 -15.2558541378041 -15.0005000000001 #
coedge $-1 $370 $293 $288 $330 0 $258 $-1 #
edge $-1 $295 $333 $329 $371 0 #
coedge $-1 $289 $348 $370 $372 0 $332 $-1 #
loop $-1 $-1 $348 $373 #
vertex $-1 $330 $374 #
straight-curve $-1 40.0005 24.9995 9.99949999999985 0 0 -1 #
face $-1 $311 $375 $3 $-1 $376 reversed single #
plane-surface $-1 40.0005 79.9995 9.99949999999985 1 0 0 0 0 -1 0 #
straight-curve $-1 0.000500000000002387 39.9995 -15.0005000000001 1 0 0 #
point $-1 40.0005 39.9995 -15.0005000000001 #
face $-1 $282 $377 $3 $-1 $378 reversed single #
loop $-1 $351 $379 $297 #
cone-surface $-1 -49.9995 -0.000499999999995282 -0.000500000000149825 0 0 1 15 0 0 1 0 1 0 #
coedge $-1 $301 $380 $320 $365 1 $258 $-1 #
face $-1 $381 $359 $3 $-1 $382 reversed single #
plane-surface $-1 0.000500000000002387 -40.0005 9.99949999999985 0 1 0 0 0 1 0 #
coedge $-1 $304 $313 $383 $384 1 $70 $-1 #
coedge $-1 $385 $386 $304 $347 0 $387 $-1 #
edge $-1 $349 $388 $346 $389 0 #
coedge $-1 $331 $305 $386 $390 1 $332 $-1 #
vertex $-1 $390 $391 #
ellipse-curve $-1 45.0005 24.9995 24.9994999999998 -0 -0 -1 -3.53553390593274 -3.53553390593274 0 1 #
loop $-1 $-1 $307 $297 #
vertex $-1 $308 $392 #
ellipse-curve $-1 -49.9995 -0.000499999999995282 -15.0005000000001 -0 -0 -1 15 0 0 1 #
plane-surface $-1 0 -50.0005 0 0 1 -0 -0 0 1 0 #
coedge $-1 $393 $394 $313 $356 0 $375 $-1 #
edge $-1 $395 $360 $355 $396 0 #
coedge $-1 $397 $314 $317 $363 1 $359 $-1 #
coedge $-1 $314 $397 $393 $398 1 $359 $-1 #
loop $-1 $-1 $357 $343 #
vertex $-1 $356 $399 #
ellipse-curve $-1 85.0005 -35.0005 24.9994999999998 -0 -0 -1 3.53553390593274 -3.53553390593274 0 1 #
coedge $-1 $317 $316 $380 $400 1 $309 $-1 #
edge $-1 $401 $318 $317 $402 0 #
point $-1 85.0005 -40.0005 24.9994999999998 #
edge $-1 $324 $366 $342 $403 0 #
vertex $-1 $400 $404 #
straight-curve $-1 -43.300770189221 -40.0005 9.99949999999985 0 0 -1 #
straight-curve $-1 -45.4898810567663 -39.5101189432331 -15.0005000000001 -0.866025403784443 0.499999999999992 0 #
point $-1 -45.800770189221 -39.3306270189223 -15.0005000000001 #
coedge $-1 $405 $329 $331 $372 1 $258 $-1 #
straight-curve $-1 40.0005 39.9995 -15.0005000000001 0 -1 0 #
edge $-1 $406 $333 $370 $407 0 #
face $-1 $251 $332 $3 $-1 $408 reversed single #
point $-1 40.0005 24.9995 -15.0005000000001 #
loop $-1 $-1 $393 $335 #
plane-surface $-1 90.0005 -0.000499999999995282 9.99949999999985 -1 0 0 0 0 1 0 #
loop $-1 $-1 $409 $339 #
plane-surface $-1 -49.9995 -0.000499999999995282 19.9994999999998 0 0 1 1 0 0 0 #
coedge $-1 $379 $379 $409 $410 0 $340 $-1 #
coedge $-1 $342 $411 $362 $400 0 $258 $-1 #
face $-1 $412 $413 $3 $-1 $414 reversed single #
cone-surface $-1 85.0005 -35.0005 4.99949999999985 0 0 -1 3.53553390593274 -3.53553390593274 0 1 0 -1 0 #
coedge $-1 $415 $416 $345 $384 0 $413 $-1 #
edge $-1 $388 $395 $383 $417 0 #
coedge $-1 $418 $346 $416 $419 0 $387 $-1 #
coedge $-1 $346 $418 $348 $390 0 $387 $-1 #
loop $-1 $-1 $385 $412 #
vertex $-1 $347 $420 #
straight-curve $-1 50.0005 19.9995 24.9994999999998 1 0 0 #
edge $-1 $406 $349 $386 $421 0 #
point $-1 45.0005 19.9995 24.9994999999998 #
point $-1 -64.9995 -0.000500000000100026 -15.0005000000001 #
coedge $-1 $422 $355 $358 $398 0 $375 $-1 #
coedge $-1 $355 $422 $415 $423 0 $375 $-1 #
vertex $-1 $356 $424 #
straight-curve $-1 90.0005 -0.000499999999995282 24.9994999999998 0 -1 0 #
coedge $-1 $358 $357 $411 $425 0 $359 $-1 #
edge $-1 $360 $426 $393 $427 0 #
point $-1 90.0005 -35.0005 24.9994999999998 #
edge $-1 $401 $366 $362 $428 0 #
vertex $-1 $425 $429 #
straight-curve $-1 85.0005 -40.0005 9.99949999999985 0 0 1 #
ellipse-curve $-1 -43.300770189221 -35.0005 -15.0005000000001 0 0 1 -1.29409522551258 -4.82962913144535 0 1 #
point $-1 -43.300770189221 -40.0005 -15.0005000000001 #
coedge $-1 $430 $370 $418 $431 0 $258 $-1 #
vertex $-1 $372 $432 #
ellipse-curve $-1 45.0005 24.9995 -15.0005000000001 -0 -0 -1 -3.53553390593274 -3.53553390593274 0 1 #
cone-surface $-1 45.0005 24.9995 4.99949999999985 -0 -0 -1 -3.53553390593274 -3.53553390593274 0 1 0 1 0 #
coedge $-1 $409 $409 $379 $410 1 $377 $-1 #
edge $-1 $433 $433 $409 $434 0 #
coedge $-1 $380 $435 $397 $425 1 $258 $-1 #
face $-1 $373 $387 $3 $-1 $436 forward single #
loop $-1 $-1 $416 $381 #
cone-surface $-1 85.0005 14.9995 4.99949999999985 0 0 1 3.53553390593274 3.53553390593274 0 1 0 -1 0 #
coedge $-1 $437 $383 $394 $423 1 $413 $-1 #
coedge $-1 $383 $437 $385 $419 1 $413 $-1 #
ellipse-curve $-1 85.0005 14.9995 24.9994999999998 -0 -0 -1 3.53553390593274 3.53553390593274 0 1 #
coedge $-1 $386 $385 $405 $431 1 $387 $-1 #
edge $-1 $388 $438 $385 $439 0 #
point $-1 85.0005 19.9995 24.9994999999998 #
straight-curve $-1 45.0005 19.9995 9.99949999999985 0 0 1 #
coedge $-1 $394 $393 $435 $440 1 $375 $-1 #
edge $-1 $441 $395 $394 $442 0 #
point $-1 90.0005 14.9995 24.9994999999998 #
edge $-1 $401 $426 $411 $443 0 #
vertex $-1 $440 $444 #
straight-curve $-1 90.0005 -35.0005 9.99949999999985 0 0 -1 #
straight-curve $-1 0.000500000000002387 -40.0005 -15.0005000000001 -1 0 0 #
point $-1 85.0005 -40.0005 -15.0005000000001 #
coedge $-1 $435 $405 $437 $445 1 $258 $-1 #
edge $-1 $406 $438 $405 $446 0 #
point $-1 45.0005 19.9995 -15.0005000000001 #
vertex $-1 $410 $447 #
ellipse-curve $-1 -49.9995 -0.000499999999995282 19.9994999999998 0 0 1 15 0 0 1 #
coedge $-1 $411 $430 $422 $440 0 $258 $-1 #
plane-surface $-1 100.0005 19.9995 9.99949999999985 0 1 0 0 0 1 0 #
coedge $-1 $416 $415 $430 $445 0 $413 $-1 #
vertex $-1 $431 $448 #
straight-curve $-1 85.0005 19.9995 9.99949999999985 -0 -0 -1 #
edge $-1 $441 $426 $422 $449 0 #
vertex $-1 $445 $450 #
straight-curve $-1 90.0005 14.9995 9.99949999999985 0 0 1 #
ellipse-curve $-1 85.0005 -35.0005 -15.0005000000001 0 0 1 3.53553390593274 -3.53553390593274 0 1 #
point $-1 90.0005 -35.0005 -15.0005000000001 #
edge $-1 $441 $438 $430 $451 0 #
straight-curve $-1 50.0005 19.9995 -15.0005000000001 1 0 0 #
point $-1 -34.9995 -0.000499999999995282 19.9994999999998 #
point $-1 85.0005 19.9995 -15.0005000000001 #
straight-curve $-1 90.0005 -0.000499999999995282 -15.0005000000001 0 -1 0 #
point $-1 90.0005 14.9995 -15.0005000000001 #
ellipse-curve $-1 85.0005 14.9995 -15.0005000000001 0 0 1 3.53553390593274 3.53553390593274 0 1 #
