600 0 4 0           
71 GICL ACIS Healer - Source: /gicl/data5/repository/tmp/Fig_3_1.sat - 6 0 18 ACIS 6.0.3 Solaris 24 Sun Apr 14 00:16:23 2002 
1 9.999999999999999547e-07 1.000000000000000036e-10 
body $4 $5 $-1 $-1 #
body $6 $7 $-1 $-1 #
body $8 $9 $-1 $-1 #
body $10 $11 $-1 $-1 #
rgb_color-st-attrib $-1 $-1 $-1 $0 0 1 0 #
lump $-1 $-1 $12 $0 #
rgb_color-st-attrib $-1 $-1 $-1 $1 0 1 0 #
lump $-1 $-1 $13 $1 #
rgb_color-st-attrib $-1 $-1 $-1 $2 0 1 0 #
lump $-1 $-1 $14 $2 #
rgb_color-st-attrib $-1 $-1 $-1 $3 0 1 0 #
lump $-1 $-1 $15 $3 #
shell $-1 $-1 $-1 $16 $-1 $5 #
shell $-1 $-1 $-1 $17 $-1 $7 #
shell $-1 $-1 $-1 $18 $-1 $9 #
shell $-1 $-1 $-1 $19 $-1 $11 #
face $-1 $20 $21 $12 $-1 $22 forward single #
face $-1 $23 $24 $13 $-1 $25 forward single #
face $-1 $26 $27 $14 $-1 $28 forward single #
face $-1 $29 $30 $15 $-1 $31 forward single #
face $-1 $32 $33 $12 $-1 $34 forward single #
loop $-1 $-1 $35 $16 #
plane-surface $-1 12.5 -5 30 0 -1 0 0 0 -1 forward_v I I I I #
face $-1 $36 $37 $13 $-1 $38 reversed single #
loop $-1 $-1 $39 $17 #
plane-surface $-1 0 0 40 0 0 1 1 0 0 forward_v I I I I #
face $-1 $40 $41 $14 $-1 $42 reversed single #
loop $-1 $-1 $43 $18 #
plane-surface $-1 -12.5 7.5 40 0 0 1 1 0 0 forward_v I I I I #
face $-1 $44 $45 $15 $-1 $46 reversed single #
loop $-1 $-1 $47 $19 #
plane-surface $-1 12.5 -12.5 40 0 0 1 1 0 0 forward_v I I I I #
face $-1 $48 $49 $12 $-1 $50 forward single #
loop $-1 $-1 $51 $20 #
plane-surface $-1 12.5 -20 30 0 1 0 0 0 1 forward_v I I I I #
coedge $-1 $52 $53 $54 $55 reversed $21 $-1 #
face $-1 $56 $57 $13 $-1 $58 reversed single #
loop $-1 $-1 $59 $23 #
plane-surface $-1 0 0 20 0 0 1 1 0 0 forward_v I I I I #
coedge $-1 $60 $61 $62 $63 forward $24 $-1 #
face $-1 $64 $65 $14 $-1 $66 reversed single #
loop $-1 $-1 $67 $26 #
plane-surface $-1 -12.5 7.5 20 0 0 1 1 0 0 forward_v I I I I #
coedge $-1 $68 $69 $70 $71 forward $27 $-1 #
face $-1 $72 $73 $15 $-1 $74 reversed single #
loop $-1 $-1 $75 $29 #
plane-surface $-1 12.5 -12.5 20 0 0 1 1 0 0 forward_v I I I I #
coedge $-1 $76 $77 $78 $79 forward $30 $-1 #
face $-1 $80 $81 $12 $-1 $82 forward single #
loop $-1 $-1 $54 $32 #
plane-surface $-1 15 0 30 -1 0 0 0 0 1 forward_v I I I I #
coedge $-1 $83 $84 $85 $86 reversed $33 $-1 #
coedge $-1 $87 $35 $88 $89 forward $21 $-1 #
coedge $-1 $35 $87 $90 $91 reversed $21 $-1 #
coedge $-1 $92 $93 $35 $55 forward $49 $-1 #
edge $-1 $94 -10 $95 10 $54 $96 forward 7 unknown #
face $-1 $97 $98 $13 $-1 $99 reversed single #
loop $-1 $-1 $100 $36 #
plane-surface $-1 0 -30 30 0 1 0 0 0 1 forward_v I I I I #
coedge $-1 $101 $102 $103 $104 forward $37 $-1 #
coedge $-1 $105 $39 $106 $107 forward $24 $-1 #
coedge $-1 $39 $105 $108 $109 forward $24 $-1 #
coedge $-1 $110 $111 $39 $63 reversed $112 $-1 #
edge $-1 $113 -30 $114 30 $62 $115 forward 7 unknown #
face $-1 $116 $117 $14 $-1 $118 reversed single #
loop $-1 $-1 $119 $40 #
plane-surface $-1 -12.5 0 30 0 1 0 0 0 1 forward_v I I I I #
coedge $-1 $120 $121 $122 $123 forward $41 $-1 #
coedge $-1 $124 $43 $125 $126 forward $27 $-1 #
coedge $-1 $43 $124 $127 $128 forward $27 $-1 #
coedge $-1 $129 $130 $43 $71 reversed $131 $-1 #
edge $-1 $132 -7.5 $133 7.5 $70 $134 forward 7 unknown #
face $-1 $135 $136 $15 $-1 $137 reversed single #
loop $-1 $-1 $138 $44 #
plane-surface $-1 12.5 -20 30 0 1 0 0 0 1 forward_v I I I I #
coedge $-1 $139 $140 $141 $142 forward $45 $-1 #
coedge $-1 $143 $47 $144 $145 forward $30 $-1 #
coedge $-1 $47 $143 $146 $147 forward $30 $-1 #
coedge $-1 $148 $149 $47 $79 reversed $150 $-1 #
edge $-1 $151 -7.5 $152 7.5 $78 $153 forward 7 unknown #
face $-1 $154 $155 $12 $-1 $156 forward single #
loop $-1 $-1 $90 $48 #
plane-surface $-1 0 0 40 0 0 1 1 0 0 forward_v I I I I #
coedge $-1 $157 $51 $158 $159 reversed $33 $-1 #
coedge $-1 $51 $157 $160 $161 forward $33 $-1 #
coedge $-1 $162 $163 $51 $86 forward $164 $-1 #
edge $-1 $165 -10 $166 10 $85 $167 forward 7 unknown #
coedge $-1 $53 $52 $168 $169 reversed $21 $-1 #
coedge $-1 $170 $171 $52 $89 reversed $172 $-1 #
edge $-1 $94 2.5 $173 27.5 $52 $174 forward 7 unknown #
coedge $-1 $175 $176 $53 $91 forward $81 $-1 #
edge $-1 $95 8.75 $177 33.75 $90 $178 forward 7 unknown #
coedge $-1 $179 $54 $176 $180 reversed $49 $-1 #
coedge $-1 $54 $179 $170 $181 forward $49 $-1 #
vertex $-1 $181 $182 #
vertex $-1 $91 $183 #
straight-curve $-1 15 -5 30 0 0 1 I I #
face $-1 $184 $185 $13 $-1 $186 reversed single #
loop $-1 $-1 $187 $56 #
plane-surface $-1 -15 0 30 1 0 0 0 0 -1 forward_v I I I I #
coedge $-1 $188 $108 $189 $190 forward $57 $-1 #
coedge $-1 $191 $59 $188 $192 forward $37 $-1 #
coedge $-1 $59 $191 $193 $194 forward $37 $-1 #
coedge $-1 $111 $110 $59 $104 reversed $112 $-1 #
edge $-1 $195 -30 $196 30 $103 $197 forward 7 unknown #
coedge $-1 $61 $60 $198 $199 forward $24 $-1 #
coedge $-1 $200 $201 $60 $107 reversed $185 $-1 #
edge $-1 $114 -15 $202 15 $106 $203 forward 7 unknown #
coedge $-1 $100 $204 $61 $109 reversed $57 $-1 #
edge $-1 $205 -15 $113 15 $108 $206 forward 7 unknown #
coedge $-1 $103 $62 $204 $207 forward $112 $-1 #
coedge $-1 $62 $103 $200 $208 reversed $112 $-1 #
loop $-1 $-1 $110 $184 #
vertex $-1 $63 $209 #
vertex $-1 $63 $210 #
straight-curve $-1 15 0 40 0 1 0 I I #
face $-1 $211 $212 $14 $-1 $213 reversed single #
loop $-1 $-1 $214 $64 #
plane-surface $-1 -40 7.5 30 1 0 0 0 0 -1 forward_v I I I I #
coedge $-1 $215 $127 $216 $217 forward $65 $-1 #
coedge $-1 $218 $67 $215 $219 forward $41 $-1 #
coedge $-1 $67 $218 $220 $221 forward $41 $-1 #
coedge $-1 $130 $129 $67 $123 reversed $131 $-1 #
edge $-1 $222 -7.5 $223 7.5 $122 $224 forward 7 unknown #
coedge $-1 $69 $68 $225 $226 forward $27 $-1 #
coedge $-1 $227 $228 $68 $126 reversed $212 $-1 #
edge $-1 $133 -27.5 $229 27.5 $125 $230 forward 7 unknown #
coedge $-1 $119 $231 $69 $128 reversed $65 $-1 #
edge $-1 $232 -27.5 $132 27.5 $127 $233 forward 7 unknown #
coedge $-1 $122 $70 $231 $234 forward $131 $-1 #
coedge $-1 $70 $122 $227 $235 reversed $131 $-1 #
loop $-1 $-1 $129 $211 #
vertex $-1 $71 $236 #
vertex $-1 $71 $237 #
straight-curve $-1 15 7.5 40 0 1 0 I I #
face $-1 $238 $239 $15 $-1 $240 reversed single #
loop $-1 $-1 $241 $72 #
plane-surface $-1 -15 -12.5 30 1 0 0 0 0 -1 forward_v I I I I #
coedge $-1 $242 $146 $243 $244 forward $73 $-1 #
coedge $-1 $245 $75 $242 $246 forward $45 $-1 #
coedge $-1 $75 $245 $247 $248 forward $45 $-1 #
coedge $-1 $149 $148 $75 $142 reversed $150 $-1 #
edge $-1 $249 -7.5 $250 7.5 $141 $251 forward 7 unknown #
coedge $-1 $77 $76 $252 $253 forward $30 $-1 #
coedge $-1 $254 $255 $76 $145 reversed $239 $-1 #
edge $-1 $152 -27.5 $256 27.5 $144 $257 forward 7 unknown #
coedge $-1 $138 $258 $77 $147 reversed $73 $-1 #
edge $-1 $259 -27.5 $151 27.5 $146 $260 forward 7 unknown #
coedge $-1 $141 $78 $258 $261 forward $150 $-1 #
coedge $-1 $78 $141 $254 $262 reversed $150 $-1 #
loop $-1 $-1 $148 $238 #
vertex $-1 $79 $263 #
vertex $-1 $79 $264 #
straight-curve $-1 40 -12.5 40 0 1 0 I I #
face $-1 $265 $266 $12 $-1 $267 forward single #
loop $-1 $-1 $268 $80 #
plane-surface $-1 -12.5 0 30 0 1 0 0 0 1 forward_v I I I I #
coedge $-1 $84 $83 $269 $270 reversed $33 $-1 #
coedge $-1 $271 $272 $83 $159 forward $273 $-1 #
edge $-1 $274 -33.75 $165 -8.75 $158 $275 forward 7 unknown #
coedge $-1 $171 $276 $84 $161 reversed $172 $-1 #
edge $-1 $277 -27.5 $166 -2.5 $84 $278 forward 7 unknown #
coedge $-1 $279 $85 $276 $280 forward $164 $-1 #
coedge $-1 $85 $279 $271 $281 reversed $164 $-1 #
loop $-1 $-1 $85 $282 #
vertex $-1 $281 $283 #
vertex $-1 $280 $284 #
straight-curve $-1 15 -20 30 0 0 -1 I I #
coedge $-1 $285 $286 $87 $169 forward $287 $-1 #
edge $-1 $177 -15 $173 5 $168 $288 forward 7 unknown #
coedge $-1 $289 $88 $93 $181 reversed $172 $-1 #
coedge $-1 $88 $160 $285 $290 reversed $172 $-1 #
loop $-1 $-1 $291 $292 #
vertex $-1 $290 $293 #
straight-curve $-1 12.5 -5 20 1 0 0 I I #
coedge $-1 $294 $90 $286 $295 forward $81 $-1 #
coedge $-1 $90 $294 $92 $180 forward $81 $-1 #
vertex $-1 $295 $296 #
straight-curve $-1 6.25 -5 40 1 0 0 I I #
coedge $-1 $93 $92 $297 $298 reversed $49 $-1 #
edge $-1 $299 -30 $95 5 $176 $300 forward 7 unknown #
edge $-1 $301 -30 $94 5 $93 $302 forward 7 unknown #
point $-1 15 -5 20 #
point $-1 15 -5 40 #
face $-1 $-1 $112 $13 $-1 $303 reversed single #
loop $-1 $-1 $200 $97 #
plane-surface $-1 0 30 30 0 -1 0 0 0 -1 forward_v I I I I #
coedge $-1 $304 $198 $201 $305 forward $98 $-1 #
coedge $-1 $204 $100 $101 $192 reversed $57 $-1 #
coedge $-1 $198 $304 $100 $190 reversed $98 $-1 #
edge $-1 $205 -10 $306 10 $189 $307 forward 7 unknown #
coedge $-1 $102 $101 $304 $308 forward $37 $-1 #
edge $-1 $196 -15 $306 15 $188 $309 forward 7 unknown #
coedge $-1 $201 $200 $102 $194 reversed $185 $-1 #
edge $-1 $310 -15 $195 15 $193 $311 forward 7 unknown #
vertex $-1 $104 $312 #
vertex $-1 $207 $313 #
straight-curve $-1 15 0 20 0 -1 0 I I #
coedge $-1 $187 $189 $105 $199 reversed $98 $-1 #
edge $-1 $202 -30 $205 30 $198 $314 forward 7 unknown #
coedge $-1 $193 $106 $111 $208 forward $185 $-1 #
coedge $-1 $106 $193 $187 $305 reversed $185 $-1 #
vertex $-1 $107 $315 #
straight-curve $-1 0 30 40 -1 0 0 I I #
coedge $-1 $108 $188 $110 $207 reversed $57 $-1 #
vertex $-1 $199 $316 #
straight-curve $-1 0 -30 40 1 0 0 I I #
edge $-1 $113 -10 $196 10 $110 $317 forward 7 unknown #
edge $-1 $114 -10 $195 10 $111 $318 forward 7 unknown #
point $-1 15 -30 40 #
point $-1 15 30 40 #
face $-1 $-1 $131 $14 $-1 $319 reversed single #
loop $-1 $-1 $227 $116 #
plane-surface $-1 -12.5 15 30 0 -1 0 0 0 -1 forward_v I I I I #
coedge $-1 $320 $225 $228 $321 forward $117 $-1 #
coedge $-1 $231 $119 $120 $219 reversed $65 $-1 #
coedge $-1 $225 $320 $119 $217 reversed $117 $-1 #
edge $-1 $232 -10 $322 10 $216 $323 forward 7 unknown #
coedge $-1 $121 $120 $320 $324 forward $41 $-1 #
edge $-1 $223 -27.5 $322 27.5 $215 $325 forward 7 unknown #
coedge $-1 $228 $227 $121 $221 reversed $212 $-1 #
edge $-1 $326 -27.5 $222 27.5 $220 $327 forward 7 unknown #
vertex $-1 $123 $328 #
vertex $-1 $234 $329 #
straight-curve $-1 15 7.5 20 0 -1 0 I I #
coedge $-1 $214 $216 $124 $226 reversed $117 $-1 #
edge $-1 $229 -7.5 $232 7.5 $225 $330 forward 7 unknown #
coedge $-1 $220 $125 $130 $235 forward $212 $-1 #
coedge $-1 $125 $220 $214 $321 reversed $212 $-1 #
vertex $-1 $126 $331 #
straight-curve $-1 -12.5 15 40 -1 0 0 I I #
coedge $-1 $127 $215 $129 $234 reversed $65 $-1 #
vertex $-1 $226 $332 #
straight-curve $-1 -12.5 0 40 1 0 0 I I #
edge $-1 $132 -10 $223 10 $129 $333 forward 7 unknown #
edge $-1 $133 -10 $222 10 $130 $334 forward 7 unknown #
point $-1 15 0 40 #
point $-1 15 15 40 #
face $-1 $-1 $150 $15 $-1 $335 reversed single #
loop $-1 $-1 $254 $135 #
plane-surface $-1 12.5 -5 30 0 -1 0 0 0 -1 forward_v I I I I #
coedge $-1 $336 $252 $255 $337 forward $136 $-1 #
coedge $-1 $258 $138 $139 $246 reversed $73 $-1 #
coedge $-1 $252 $336 $138 $244 reversed $136 $-1 #
edge $-1 $259 -10 $338 10 $243 $339 forward 7 unknown #
coedge $-1 $140 $139 $336 $340 forward $45 $-1 #
edge $-1 $250 -27.5 $338 27.5 $242 $341 forward 7 unknown #
coedge $-1 $255 $254 $140 $248 reversed $239 $-1 #
edge $-1 $342 -27.5 $249 27.5 $247 $343 forward 7 unknown #
vertex $-1 $142 $344 #
vertex $-1 $261 $345 #
straight-curve $-1 40 -12.5 20 0 -1 0 I I #
coedge $-1 $241 $243 $143 $253 reversed $136 $-1 #
edge $-1 $256 -7.5 $259 7.5 $252 $346 forward 7 unknown #
coedge $-1 $247 $144 $149 $262 forward $239 $-1 #
coedge $-1 $144 $247 $241 $337 reversed $239 $-1 #
vertex $-1 $145 $347 #
straight-curve $-1 12.5 -5 40 -1 0 0 I I #
coedge $-1 $146 $242 $148 $261 reversed $73 $-1 #
vertex $-1 $253 $348 #
straight-curve $-1 12.5 -20 40 1 0 0 I I #
edge $-1 $151 -10 $250 10 $148 $349 forward 7 unknown #
edge $-1 $152 -10 $249 10 $149 $350 forward 7 unknown #
point $-1 40 -20 40 #
point $-1 40 -5 40 #
face $-1 $351 $352 $12 $-1 $353 forward single #
loop $-1 $-1 $354 $154 #
plane-surface $-1 -12.5 15 30 0 -1 0 0 0 -1 forward_v I I I I #
coedge $-1 $355 $356 $357 $358 reversed $155 $-1 #
coedge $-1 $359 $285 $157 $270 forward $287 $-1 #
edge $-1 $277 -5 $274 15 $269 $360 forward 7 unknown #
coedge $-1 $361 $158 $163 $281 forward $273 $-1 #
coedge $-1 $158 $361 $359 $362 forward $273 $-1 #
loop $-1 $-1 $158 $363 #
vertex $-1 $270 $364 #
straight-curve $-1 6.25 -20 40 -1 0 0 I I #
coedge $-1 $160 $365 $162 $280 reversed $172 $-1 #
vertex $-1 $290 $366 #
straight-curve $-1 12.5 -20 20 -1 0 0 I I #
coedge $-1 $163 $162 $367 $368 reversed $164 $-1 #
edge $-1 $166 20 $369 30 $162 $302 forward 7 unknown #
edge $-1 $165 20 $370 30 $271 $300 forward 7 unknown #
face $-1 $371 $164 $12 $-1 $50 forward single #
point $-1 15 -20 40 #
point $-1 15 -20 20 #
coedge $-1 $269 $168 $171 $290 forward $287 $-1 #
coedge $-1 $168 $372 $175 $295 reversed $287 $-1 #
loop $-1 $-1 $269 $373 #
straight-curve $-1 40 -5 25 -0 -0 -1 I I #
coedge $-1 $374 $170 $375 $376 reversed $172 $-1 #
edge $-1 $173 -1.25 $277 13.75 $285 $377 forward 7 unknown #
coedge $-1 $365 $378 $379 $380 reversed $172 $-1 #
face $-1 $381 $172 $12 $-1 $382 forward single #
point $-1 40 -5 20 #
coedge $-1 $176 $175 $383 $384 forward $81 $-1 #
edge $-1 $177 -5 $385 30 $286 $386 forward 7 unknown #
point $-1 40 -5 40 #
coedge $-1 $383 $375 $179 $298 forward $387 $-1 #
edge $-1 $301 -5 $299 15 $297 $388 forward 7 unknown #
vertex $-1 $298 $389 #
straight-curve $-1 15 0 40 0 -1 0 I I #
vertex $-1 $376 $390 #
straight-curve $-1 15 0 20 0 -1 0 I I #
plane-surface $-1 15 0 30 -1 0 0 0 0 1 forward_v I I I I #
coedge $-1 $189 $187 $191 $308 reversed $98 $-1 #
edge $-1 $202 -10 $310 10 $201 $391 forward 7 unknown #
vertex $-1 $308 $392 #
straight-curve $-1 -15 -30 30 0 0 -1 I I #
edge $-1 $306 -30 $310 30 $304 $393 forward 7 unknown #
straight-curve $-1 0 -30 20 -1 0 0 I I #
vertex $-1 $194 $394 #
straight-curve $-1 0 30 20 1 0 0 I I #
point $-1 15 30 20 #
point $-1 15 -30 20 #
straight-curve $-1 -15 0 40 0 -1 0 I I #
point $-1 -15 30 40 #
point $-1 -15 -30 40 #
straight-curve $-1 15 -30 30 0 0 -1 I I #
straight-curve $-1 15 30 30 0 0 -1 I I #
plane-surface $-1 15 7.5 30 -1 0 0 0 0 1 forward_v I I I I #
coedge $-1 $216 $214 $218 $324 reversed $117 $-1 #
edge $-1 $229 -10 $326 10 $228 $395 forward 7 unknown #
vertex $-1 $324 $396 #
straight-curve $-1 -40 0 30 0 0 -1 I I #
edge $-1 $322 -7.5 $326 7.5 $320 $397 forward 7 unknown #
straight-curve $-1 -12.5 0 20 -1 0 0 I I #
vertex $-1 $221 $398 #
straight-curve $-1 -12.5 15 20 1 0 0 I I #
point $-1 15 15 20 #
point $-1 15 0 20 #
straight-curve $-1 -40 7.5 40 0 -1 0 I I #
point $-1 -40 15 40 #
point $-1 -40 0 40 #
straight-curve $-1 15 0 30 0 0 -1 I I #
straight-curve $-1 15 15 30 0 0 -1 I I #
plane-surface $-1 40 -12.5 30 -1 0 0 0 0 1 forward_v I I I I #
coedge $-1 $243 $241 $245 $340 reversed $136 $-1 #
edge $-1 $256 -10 $342 10 $255 $399 forward 7 unknown #
vertex $-1 $340 $400 #
straight-curve $-1 -15 -20 30 0 0 -1 I I #
edge $-1 $338 -7.5 $342 7.5 $336 $401 forward 7 unknown #
straight-curve $-1 12.5 -20 20 -1 0 0 I I #
vertex $-1 $248 $402 #
straight-curve $-1 12.5 -5 20 1 0 0 I I #
point $-1 40 -5 20 #
point $-1 40 -20 20 #
straight-curve $-1 -15 -12.5 40 0 -1 0 I I #
point $-1 -15 -5 40 #
point $-1 -15 -20 40 #
straight-curve $-1 40 -20 30 0 0 -1 I I #
straight-curve $-1 40 -5 30 0 0 -1 I I #
face $-1 $292 $403 $12 $-1 $82 forward single #
loop $-1 $-1 $404 $265 #
plane-surface $-1 -15 0 30 1 0 0 0 0 -1 forward_v I I I I #
coedge $-1 $405 $406 $407 $408 reversed $266 $-1 #
coedge $-1 $409 $268 $378 $410 forward $155 $-1 #
coedge $-1 $268 $409 $411 $412 reversed $155 $-1 #
coedge $-1 $404 $379 $268 $358 forward $352 $-1 #
edge $-1 $413 -10 $414 10 $357 $415 forward 7 unknown #
coedge $-1 $416 $269 $272 $362 reversed $287 $-1 #
straight-curve $-1 40 -20 25 0 0 1 I I #
coedge $-1 $272 $271 $417 $418 forward $273 $-1 #
edge $-1 $419 -30 $274 -20 $359 $386 forward 7 unknown #
face $-1 $420 $273 $12 $-1 $82 forward single #
point $-1 40 -20 40 #
coedge $-1 $276 $291 $421 $422 reversed $172 $-1 #
point $-1 40 -20 20 #
coedge $-1 $421 $417 $279 $368 forward $423 $-1 #
edge $-1 $370 -15 $369 5 $367 $424 forward 7 unknown #
vertex $-1 $422 $425 #
vertex $-1 $418 $426 #
face $-1 $427 $423 $12 $-1 $428 reversed single #
coedge $-1 $286 $429 $430 $431 reversed $287 $-1 #
face $-1 $-1 $287 $12 $-1 $432 reversed single #
coedge $-1 $433 $289 $434 $435 reversed $172 $-1 #
coedge $-1 $297 $436 $289 $376 forward $387 $-1 #
edge $-1 $437 -15 $301 15 $375 $438 forward 7 unknown #
straight-curve $-1 40 -6.25 20 0 -1 0 I I #
coedge $-1 $291 $439 $355 $410 reversed $172 $-1 #
coedge $-1 $357 $440 $291 $380 forward $352 $-1 #
edge $-1 $441 -30 $413 0 $379 $442 forward 7 unknown #
face $-1 $282 $443 $12 $-1 $353 forward single #
plane-surface $-1 0 0 20 0 0 1 1 0 0 forward_v I I I I #
coedge $-1 $430 $297 $294 $384 reversed $387 $-1 #
edge $-1 $385 -40 $299 -15 $383 $444 forward 7 unknown #
vertex $-1 $295 $445 #
straight-curve $-1 40 0 40 0 1 0 I I #
loop $-1 $-1 $297 $446 #
straight-curve $-1 15 30 25 0 0 1 I I #
point $-1 15 30 40 #
point $-1 15 30 20 #
straight-curve $-1 -15 30 30 0 0 -1 I I #
point $-1 -15 -30 20 #
straight-curve $-1 -15 0 20 0 1 0 I I #
point $-1 -15 30 20 #
straight-curve $-1 -40 15 30 0 0 -1 I I #
point $-1 -40 0 20 #
straight-curve $-1 -40 7.5 20 0 1 0 I I #
point $-1 -40 15 20 #
straight-curve $-1 -15 -5 30 0 0 -1 I I #
point $-1 -15 -20 20 #
straight-curve $-1 -15 -12.5 20 0 1 0 I I #
point $-1 -15 -5 20 #
loop $-1 $-1 $411 $351 #
coedge $-1 $440 $357 $447 $448 reversed $352 $-1 #
coedge $-1 $449 $354 $450 $451 reversed $266 $-1 #
coedge $-1 $354 $449 $433 $452 forward $266 $-1 #
coedge $-1 $434 $453 $354 $408 forward $443 $-1 #
edge $-1 $454 -10 $455 10 $407 $456 forward 7 unknown #
coedge $-1 $356 $355 $457 $458 reversed $155 $-1 #
edge $-1 $413 2.5 $459 27.5 $355 $460 forward 7 unknown #
coedge $-1 $461 $447 $356 $412 forward $403 $-1 #
edge $-1 $414 8.75 $462 33.75 $411 $463 forward 7 unknown #
vertex $-1 $380 $464 #
vertex $-1 $412 $465 #
straight-curve $-1 -15 0 30 0 0 1 I I #
coedge $-1 $429 $359 $466 $467 forward $287 $-1 #
coedge $-1 $367 $466 $361 $418 reversed $423 $-1 #
edge $-1 $370 15 $419 40 $417 $468 forward 7 unknown #
vertex $-1 $362 $469 #
face $-1 $470 $471 $12 $-1 $472 reversed single #
coedge $-1 $473 $367 $365 $422 forward $423 $-1 #
edge $-1 $369 -15 $441 15 $421 $474 forward 7 unknown #
loop $-1 $-1 $367 $371 #
straight-curve $-1 15 -30 25 0 0 -1 I I #
point $-1 15 -30 20 #
point $-1 15 -30 40 #
face $-1 $363 $475 $12 $-1 $82 forward single #
plane-surface $-1 0 -30 20 0 1 0 0 0 1 forward_v I I I I #
coedge $-1 $372 $416 $476 $477 reversed $287 $-1 #
coedge $-1 $478 $383 $372 $431 forward $387 $-1 #
edge $-1 $385 -20 $479 20 $372 $480 forward 7 unknown #
plane-surface $-1 40 0 20 -1 0 0 0 0 1 forward_v I I I I #
coedge $-1 $439 $374 $406 $452 reversed $172 $-1 #
coedge $-1 $481 $407 $374 $435 forward $443 $-1 #
edge $-1 $455 15 $437 30 $434 $442 forward 7 unknown #
coedge $-1 $375 $482 $481 $483 forward $387 $-1 #
vertex $-1 $376 $484 #
straight-curve $-1 0 30 20 1 0 0 I I #
coedge $-1 $378 $433 $485 $486 reversed $172 $-1 #
coedge $-1 $379 $404 $473 $487 reversed $352 $-1 #
vertex $-1 $422 $488 #
straight-curve $-1 -15 0 20 0 1 0 I I #
loop $-1 $-1 $407 $381 #
straight-curve $-1 0 30 40 -1 0 0 I I #
point $-1 40 30 40 #
face $-1 $373 $387 $12 $-1 $489 reversed single #
coedge $-1 $411 $490 $404 $448 forward $403 $-1 #
edge $-1 $491 -30 $414 0 $447 $492 forward 7 unknown #
coedge $-1 $406 $405 $493 $494 reversed $266 $-1 #
coedge $-1 $495 $496 $405 $451 forward $475 $-1 #
edge $-1 $497 -33.75 $454 -8.75 $450 $498 forward 7 unknown #
edge $-1 $499 -27.5 $455 -2.5 $406 $500 forward 7 unknown #
coedge $-1 $407 $481 $495 $501 reversed $443 $-1 #
vertex $-1 $501 $502 #
vertex $-1 $435 $503 #
straight-curve $-1 -15 15 30 0 0 -1 I I #
coedge $-1 $485 $504 $409 $458 forward $505 $-1 #
edge $-1 $462 -15 $459 5 $457 $506 forward 7 unknown #
vertex $-1 $486 $507 #
straight-curve $-1 -12.5 0 20 -1 0 0 I I #
coedge $-1 $490 $411 $504 $508 forward $403 $-1 #
vertex $-1 $508 $509 #
straight-curve $-1 -6.25 0 40 -1 0 0 I I #
point $-1 -15 0 20 #
point $-1 -15 0 40 #
coedge $-1 $417 $510 $416 $467 reversed $423 $-1 #
edge $-1 $419 -20 $511 20 $416 $512 forward 7 unknown #
straight-curve $-1 0 -30 40 1 0 0 I I #
point $-1 40 -30 40 #
face $-1 $446 $505 $12 $-1 $513 reversed single #
loop $-1 $-1 $476 $420 #
plane-surface $-1 0 0 0 0 0 1 1 0 0 forward_v I I I I #
coedge $-1 $514 $421 $440 $487 forward $423 $-1 #
straight-curve $-1 0 -30 20 -1 0 0 I I #
loop $-1 $-1 $450 $427 #
coedge $-1 $515 $516 $429 $477 forward $471 $-1 #
edge $-1 $479 -30 $511 30 $429 $517 forward 7 unknown #
coedge $-1 $518 $430 $516 $519 reversed $387 $-1 #
vertex $-1 $477 $520 #
straight-curve $-1 40 30 20 0 0 -1 I I #
coedge $-1 $453 $434 $436 $483 reversed $443 $-1 #
coedge $-1 $436 $518 $521 $522 reversed $387 $-1 #
edge $-1 $523 -15 $437 5 $436 $524 forward 7 unknown #
point $-1 -15 30 20 #
coedge $-1 $493 $457 $439 $486 forward $505 $-1 #
edge $-1 $459 -3.75 $499 11.25 $485 $525 forward 7 unknown #
edge $-1 $441 -5 $491 15 $473 $526 forward 7 unknown #
point $-1 -15 -30 20 #
plane-surface $-1 0 30 20 0 -1 0 0 0 -1 forward_v I I I I #
coedge $-1 $447 $461 $514 $527 forward $403 $-1 #
vertex $-1 $448 $528 #
straight-curve $-1 -15 0 40 0 1 0 I I #
coedge $-1 $529 $485 $449 $494 forward $505 $-1 #
edge $-1 $499 -5 $497 15 $493 $530 forward 7 unknown #
coedge $-1 $521 $450 $453 $501 forward $475 $-1 #
coedge $-1 $450 $521 $529 $531 forward $475 $-1 #
vertex $-1 $494 $532 #
straight-curve $-1 -6.25 15 40 1 0 0 I I #
vertex $-1 $486 $533 #
straight-curve $-1 -12.5 15 20 1 0 0 I I #
edge $-1 $454 15 $523 30 $495 $492 forward 7 unknown #
point $-1 -15 15 40 #
point $-1 -15 15 20 #
coedge $-1 $457 $534 $461 $508 reversed $505 $-1 #
loop $-1 $-1 $493 $470 #
straight-curve $-1 -40 0 25 0 0 -1 I I #
point $-1 -40 0 20 #
edge $-1 $462 0 $535 30 $504 $536 forward 7 unknown #
point $-1 -40 0 40 #
coedge $-1 $466 $537 $515 $538 reversed $423 $-1 #
vertex $-1 $467 $539 #
straight-curve $-1 40 -30 20 0 0 -1 I I #
plane-surface $-1 -40 0 20 1 0 0 0 0 -1 forward_v I I I I #
coedge $-1 $537 $473 $490 $527 reversed $423 $-1 #
coedge $-1 $540 $476 $510 $538 forward $471 $-1 #
coedge $-1 $476 $540 $478 $519 forward $471 $-1 #
straight-curve $-1 40 0 0 0 -1 0 I I #
coedge $-1 $482 $478 $541 $542 reversed $387 $-1 #
edge $-1 $543 -40 $479 40 $478 $544 forward 7 unknown #
point $-1 40 30 0 #
coedge $-1 $496 $495 $482 $522 forward $475 $-1 #
edge $-1 $523 15 $545 40 $482 $444 forward 7 unknown #
vertex $-1 $522 $546 #
straight-curve $-1 -15 30 25 0 0 -1 I I #
straight-curve $-1 -40 3.75 20 0 1 0 I I #
straight-curve $-1 -15 -30 25 0 0 1 I I #
edge $-1 $535 -40 $491 -15 $514 $468 forward 7 unknown #
point $-1 -15 -30 40 #
coedge $-1 $541 $493 $496 $531 reversed $505 $-1 #
straight-curve $-1 -40 15 25 0 0 1 I I #
edge $-1 $545 -30 $497 -15 $529 $536 forward 7 unknown #
point $-1 -40 15 40 #
point $-1 -40 15 20 #
coedge $-1 $504 $547 $537 $548 reversed $505 $-1 #
vertex $-1 $508 $549 #
straight-curve $-1 -40 0 40 0 -1 0 I I #
coedge $-1 $510 $514 $534 $548 forward $423 $-1 #
edge $-1 $511 -40 $550 40 $510 $551 forward 7 unknown #
point $-1 40 -30 0 #
coedge $-1 $516 $515 $547 $552 forward $471 $-1 #
coedge $-1 $547 $529 $518 $542 forward $505 $-1 #
edge $-1 $545 -20 $543 20 $518 $553 forward 7 unknown #
vertex $-1 $519 $554 #
straight-curve $-1 0 30 0 1 0 0 I I #
vertex $-1 $522 $555 #
point $-1 -15 30 40 #
coedge $-1 $534 $541 $540 $552 reversed $505 $-1 #
edge $-1 $535 -20 $550 20 $534 $556 forward 7 unknown #
point $-1 -40 -30 40 #
vertex $-1 $552 $557 #
straight-curve $-1 0 -30 0 -1 0 0 I I #
edge $-1 $550 -30 $543 30 $547 $558 forward 7 unknown #
straight-curve $-1 -40 30 20 0 0 -1 I I #
point $-1 -40 30 0 #
point $-1 -40 30 40 #
straight-curve $-1 -40 -30 20 0 0 -1 I I #
point $-1 -40 -30 0 #
straight-curve $-1 -40 0 0 0 1 0 I I #
End-of-ACIS-data 