200 0 5 0           
7 Unknown 16 ACIS 2.0 Solaris 24 Fri Oct 11 14:47:06 1996 
-1 9.999999999999999547e-07 1.000000000000000036e-10 
body $5 $6 $-1 $7 #
body $8 $9 $-1 $10 #
body $11 $12 $-1 $13 #
body $14 $15 $-1 $16 #
body $17 $18 $-1 $19 #
display_attribute-st-attrib $-1 $20 $-1 $0 2 #
lump $-1 $-1 $21 $0 #
transform $-1 1 0 0 0 1 0 0 0 1 0 0 20 1 rotate no_reflect no_shear #
display_attribute-st-attrib $-1 $22 $-1 $1 1 #
lump $-1 $-1 $23 $1 #
transform $-1 1 0 0 0 1 0 0 0 1 -17.5 0 30 1 rotate no_reflect no_shear #
display_attribute-st-attrib $-1 $24 $-1 $2 1 #
lump $-1 $-1 $25 $2 #
transform $-1 1 0 0 0 1 0 0 0 1 17.5 0 30 1 rotate no_reflect no_shear #
display_attribute-st-attrib $-1 $26 $-1 $3 1 #
lump $-1 $-1 $27 $3 #
transform $-1 1 0 0 0 1 0 0 0 1 -25 7.5 30 1 rotate no_reflect no_shear #
display_attribute-st-attrib $-1 $28 $-1 $4 1 #
lump $-1 $-1 $29 $4 #
transform $-1 1 0 0 0 1 0 0 0 1 25 7.5 30 1 rotate no_reflect no_shear #
rgb_color-st-attrib $-1 $30 $5 $0 0 1 0 #
shell $-1 $-1 $-1 $31 $-1 $6 #
rgb_color-st-attrib $-1 $32 $8 $1 0 1 0 #
shell $-1 $-1 $-1 $33 $-1 $9 #
rgb_color-st-attrib $-1 $34 $11 $2 0 1 0 #
shell $-1 $-1 $-1 $35 $-1 $12 #
rgb_color-st-attrib $-1 $36 $14 $3 0 1 0 #
shell $-1 $-1 $-1 $37 $-1 $15 #
rgb_color-st-attrib $-1 $38 $17 $4 0 1 0 #
shell $-1 $-1 $-1 $39 $-1 $18 #
id_attribute-st-attrib $-1 $-1 $20 $0 6 #
face $-1 $40 $41 $21 $-1 $42 forward single #
id_attribute-st-attrib $-1 $-1 $22 $1 7 #
face $-1 $43 $44 $23 $-1 $45 forward single #
id_attribute-st-attrib $-1 $-1 $24 $2 8 #
face $-1 $46 $47 $25 $-1 $48 forward single #
id_attribute-st-attrib $-1 $-1 $26 $3 9 #
face $-1 $49 $50 $27 $-1 $51 forward single #
id_attribute-st-attrib $-1 $-1 $28 $4 10 #
face $-1 $52 $53 $29 $-1 $54 forward single #
face $-1 $55 $56 $21 $-1 $57 forward single #
loop $-1 $-1 $58 $31 #
plane-surface $-1 25 15 10 0 -1 0 0 0 -1 forward_v I I I I #
face $-1 $59 $60 $23 $-1 $61 reversed single #
loop $-1 $-1 $62 $33 #
plane-surface $-1 0 0 10 0 0 1 1 0 0 forward_v I I I I #
face $-1 $63 $64 $25 $-1 $65 reversed single #
loop $-1 $-1 $66 $35 #
plane-surface $-1 0 0 10 0 0 1 1 0 0 forward_v I I I I #
face $-1 $67 $68 $27 $-1 $69 reversed single #
loop $-1 $-1 $70 $37 #
plane-surface $-1 0 0 10 0 0 1 1 0 0 forward_v I I I I #
face $-1 $71 $72 $29 $-1 $73 reversed single #
loop $-1 $-1 $74 $39 #
plane-surface $-1 0 0 10 0 0 1 1 0 0 forward_v I I I I #
face $-1 $75 $76 $21 $-1 $77 forward single #
loop $-1 $-1 $78 $40 #
plane-surface $-1 25 0 10 0 1 0 0 0 1 forward_v I I I I #
coedge $-1 $79 $80 $81 $82 1 $41 $-1 #
face $-1 $83 $84 $23 $-1 $85 reversed single #
loop $-1 $-1 $86 $43 #
plane-surface $-1 0 0 -10 0 0 1 1 0 0 forward_v I I I I #
coedge $-1 $87 $88 $89 $90 0 $44 $-1 #
face $-1 $91 $92 $25 $-1 $93 reversed single #
loop $-1 $-1 $94 $46 #
plane-surface $-1 0 0 -10 0 0 1 1 0 0 forward_v I I I I #
coedge $-1 $95 $96 $97 $98 0 $47 $-1 #
face $-1 $99 $100 $27 $-1 $101 reversed single #
loop $-1 $-1 $102 $49 #
plane-surface $-1 0 0 -10 0 0 1 1 0 0 forward_v I I I I #
coedge $-1 $103 $104 $105 $106 0 $50 $-1 #
face $-1 $107 $108 $29 $-1 $109 reversed single #
loop $-1 $-1 $110 $52 #
plane-surface $-1 0 0 -10 0 0 1 1 0 0 forward_v I I I I #
coedge $-1 $111 $112 $113 $114 0 $53 $-1 #
face $-1 $115 $116 $21 $-1 $117 forward single #
loop $-1 $-1 $81 $55 #
plane-surface $-1 25 0 10 -1 0 0 0 0 1 forward_v I I I I #
coedge $-1 $118 $119 $120 $121 1 $56 $-1 #
coedge $-1 $122 $58 $123 $124 0 $41 $-1 #
coedge $-1 $58 $122 $125 $126 1 $41 $-1 #
coedge $-1 $127 $128 $58 $82 0 $76 $-1 #
edge $-1 $129 $130 $81 $131 forward #
face $-1 $132 $133 $23 $-1 $134 reversed single #
loop $-1 $-1 $135 $59 #
plane-surface $-1 0 -30 0 0 1 -0 -0 0 1 forward_v I I I I #
coedge $-1 $136 $137 $138 $139 0 $60 $-1 #
coedge $-1 $140 $62 $141 $142 0 $44 $-1 #
coedge $-1 $62 $140 $143 $144 0 $44 $-1 #
coedge $-1 $145 $146 $62 $90 1 $147 $-1 #
edge $-1 $148 $149 $89 $150 forward #
face $-1 $151 $152 $25 $-1 $153 reversed single #
loop $-1 $-1 $154 $63 #
plane-surface $-1 0 -30 0 0 1 -0 -0 0 1 forward_v I I I I #
coedge $-1 $155 $156 $157 $158 0 $64 $-1 #
coedge $-1 $159 $66 $160 $161 0 $47 $-1 #
coedge $-1 $66 $159 $162 $163 0 $47 $-1 #
coedge $-1 $164 $165 $66 $98 1 $166 $-1 #
edge $-1 $167 $168 $97 $169 forward #
face $-1 $170 $171 $27 $-1 $172 reversed single #
loop $-1 $-1 $173 $67 #
plane-surface $-1 0 -7.5 0 0 1 -0 -0 0 1 forward_v I I I I #
coedge $-1 $174 $175 $176 $177 0 $68 $-1 #
coedge $-1 $178 $70 $179 $180 0 $50 $-1 #
coedge $-1 $70 $178 $181 $182 0 $50 $-1 #
coedge $-1 $183 $184 $70 $106 1 $185 $-1 #
edge $-1 $186 $187 $105 $188 forward #
face $-1 $189 $190 $29 $-1 $191 reversed single #
loop $-1 $-1 $192 $71 #
plane-surface $-1 0 -7.5 0 0 1 -0 -0 0 1 forward_v I I I I #
coedge $-1 $193 $194 $195 $196 0 $72 $-1 #
coedge $-1 $197 $74 $198 $199 0 $53 $-1 #
coedge $-1 $74 $197 $200 $201 0 $53 $-1 #
coedge $-1 $202 $203 $74 $114 1 $204 $-1 #
edge $-1 $205 $206 $113 $207 forward #
face $-1 $208 $209 $21 $-1 $210 forward single #
loop $-1 $-1 $125 $75 #
plane-surface $-1 0 0 20 0 0 1 1 0 0 forward_v I I I I #
coedge $-1 $211 $78 $212 $213 1 $56 $-1 #
coedge $-1 $78 $211 $214 $215 0 $56 $-1 #
coedge $-1 $216 $217 $78 $121 0 $218 $-1 #
edge $-1 $219 $220 $120 $221 forward #
coedge $-1 $80 $79 $222 $223 1 $41 $-1 #
coedge $-1 $224 $225 $79 $124 1 $226 $-1 #
edge $-1 $129 $227 $79 $228 forward #
coedge $-1 $229 $230 $80 $126 0 $116 $-1 #
edge $-1 $130 $231 $125 $232 forward #
coedge $-1 $233 $81 $230 $234 1 $76 $-1 #
coedge $-1 $81 $233 $224 $235 0 $76 $-1 #
vertex $-1 $235 $236 #
vertex $-1 $126 $237 #
straight-curve $-1 25 15 10 0 0 1 I I #
face $-1 $238 $239 $23 $-1 $240 reversed single #
loop $-1 $-1 $241 $83 #
plane-surface $-1 -7.5 0 0 1 0 0 0 0 -1 forward_v I I I I #
coedge $-1 $242 $143 $243 $244 0 $84 $-1 #
coedge $-1 $245 $86 $242 $246 0 $60 $-1 #
coedge $-1 $86 $245 $247 $248 0 $60 $-1 #
coedge $-1 $146 $145 $86 $139 1 $147 $-1 #
edge $-1 $249 $250 $138 $251 forward #
coedge $-1 $88 $87 $252 $253 0 $44 $-1 #
coedge $-1 $254 $255 $87 $142 1 $239 $-1 #
edge $-1 $149 $256 $141 $257 forward #
coedge $-1 $135 $258 $88 $144 1 $84 $-1 #
edge $-1 $259 $148 $143 $260 forward #
coedge $-1 $138 $89 $258 $261 0 $147 $-1 #
coedge $-1 $89 $138 $254 $262 1 $147 $-1 #
loop $-1 $-1 $145 $238 #
vertex $-1 $90 $263 #
vertex $-1 $90 $264 #
straight-curve $-1 7.5 0 10 0 1 0 I I #
face $-1 $265 $266 $25 $-1 $267 reversed single #
loop $-1 $-1 $268 $91 #
plane-surface $-1 -7.5 0 0 1 0 0 0 0 -1 forward_v I I I I #
coedge $-1 $269 $162 $270 $271 0 $92 $-1 #
coedge $-1 $272 $94 $269 $273 0 $64 $-1 #
coedge $-1 $94 $272 $274 $275 0 $64 $-1 #
coedge $-1 $165 $164 $94 $158 1 $166 $-1 #
edge $-1 $276 $277 $157 $278 forward #
coedge $-1 $96 $95 $279 $280 0 $47 $-1 #
coedge $-1 $281 $282 $95 $161 1 $266 $-1 #
edge $-1 $168 $283 $160 $284 forward #
coedge $-1 $154 $285 $96 $163 1 $92 $-1 #
edge $-1 $286 $167 $162 $287 forward #
coedge $-1 $157 $97 $285 $288 0 $166 $-1 #
coedge $-1 $97 $157 $281 $289 1 $166 $-1 #
loop $-1 $-1 $164 $265 #
vertex $-1 $98 $290 #
vertex $-1 $98 $291 #
straight-curve $-1 7.5 0 10 0 1 0 I I #
face $-1 $292 $293 $27 $-1 $294 reversed single #
loop $-1 $-1 $295 $99 #
plane-surface $-1 -15 0 0 1 0 0 0 0 -1 forward_v I I I I #
coedge $-1 $296 $181 $297 $298 0 $100 $-1 #
coedge $-1 $299 $102 $296 $300 0 $68 $-1 #
coedge $-1 $102 $299 $301 $302 0 $68 $-1 #
coedge $-1 $184 $183 $102 $177 1 $185 $-1 #
edge $-1 $303 $304 $176 $305 forward #
coedge $-1 $104 $103 $306 $307 0 $50 $-1 #
coedge $-1 $308 $309 $103 $180 1 $293 $-1 #
edge $-1 $187 $310 $179 $311 forward #
coedge $-1 $173 $312 $104 $182 1 $100 $-1 #
edge $-1 $313 $186 $181 $314 forward #
coedge $-1 $176 $105 $312 $315 0 $185 $-1 #
coedge $-1 $105 $176 $308 $316 1 $185 $-1 #
loop $-1 $-1 $183 $292 #
vertex $-1 $106 $317 #
vertex $-1 $106 $318 #
straight-curve $-1 15 0 10 0 1 0 I I #
face $-1 $319 $320 $29 $-1 $321 reversed single #
loop $-1 $-1 $322 $107 #
plane-surface $-1 -15 0 0 1 0 0 0 0 -1 forward_v I I I I #
coedge $-1 $323 $200 $324 $325 0 $108 $-1 #
coedge $-1 $326 $110 $323 $327 0 $72 $-1 #
coedge $-1 $110 $326 $328 $329 0 $72 $-1 #
coedge $-1 $203 $202 $110 $196 1 $204 $-1 #
edge $-1 $330 $331 $195 $332 forward #
coedge $-1 $112 $111 $333 $334 0 $53 $-1 #
coedge $-1 $335 $336 $111 $199 1 $320 $-1 #
edge $-1 $206 $337 $198 $338 forward #
coedge $-1 $192 $339 $112 $201 1 $108 $-1 #
edge $-1 $340 $205 $200 $341 forward #
coedge $-1 $195 $113 $339 $342 0 $204 $-1 #
coedge $-1 $113 $195 $335 $343 1 $204 $-1 #
loop $-1 $-1 $202 $319 #
vertex $-1 $114 $344 #
vertex $-1 $114 $345 #
straight-curve $-1 15 0 10 0 1 0 I I #
face $-1 $346 $347 $21 $-1 $348 forward single #
loop $-1 $-1 $349 $115 #
plane-surface $-1 -25 0 10 0 1 0 0 0 1 forward_v I I I I #
coedge $-1 $119 $118 $350 $351 1 $56 $-1 #
coedge $-1 $352 $353 $118 $213 0 $354 $-1 #
edge $-1 $355 $219 $212 $356 forward #
coedge $-1 $225 $357 $119 $215 1 $226 $-1 #
edge $-1 $358 $220 $119 $359 forward #
coedge $-1 $360 $120 $357 $361 0 $218 $-1 #
coedge $-1 $120 $360 $352 $362 1 $218 $-1 #
loop $-1 $-1 $120 $363 #
vertex $-1 $362 $364 #
vertex $-1 $361 $365 #
straight-curve $-1 25 0 10 0 0 -1 I I #
coedge $-1 $366 $367 $122 $223 0 $368 $-1 #
edge $-1 $231 $227 $222 $369 forward #
coedge $-1 $370 $123 $128 $235 1 $226 $-1 #
coedge $-1 $123 $214 $366 $371 1 $226 $-1 #
loop $-1 $-1 $372 $373 #
vertex $-1 $371 $374 #
straight-curve $-1 25 15 0 1 0 0 I I #
coedge $-1 $375 $125 $367 $376 0 $116 $-1 #
coedge $-1 $125 $375 $127 $234 0 $116 $-1 #
vertex $-1 $376 $377 #
straight-curve $-1 12.5 15 20 1 0 -0 I I #
coedge $-1 $128 $127 $378 $379 1 $76 $-1 #
edge $-1 $380 $130 $230 $381 forward #
edge $-1 $382 $129 $128 $383 forward #
point $-1 25 15 0 #
point $-1 25 15 20 #
face $-1 $-1 $147 $23 $-1 $384 reversed single #
loop $-1 $-1 $254 $132 #
plane-surface $-1 0 30 0 0 -1 0 0 0 -1 forward_v I I I I #
coedge $-1 $385 $252 $255 $386 0 $133 $-1 #
coedge $-1 $258 $135 $136 $246 1 $84 $-1 #
coedge $-1 $252 $385 $135 $244 1 $133 $-1 #
edge $-1 $259 $387 $243 $388 forward #
coedge $-1 $137 $136 $385 $389 0 $60 $-1 #
edge $-1 $250 $387 $242 $390 forward #
coedge $-1 $255 $254 $137 $248 1 $239 $-1 #
edge $-1 $391 $249 $247 $392 forward #
vertex $-1 $139 $393 #
vertex $-1 $261 $394 #
straight-curve $-1 7.5 0 -10 0 -1 0 I I #
coedge $-1 $241 $243 $140 $253 1 $133 $-1 #
edge $-1 $256 $259 $252 $395 forward #
coedge $-1 $247 $141 $146 $262 0 $239 $-1 #
coedge $-1 $141 $247 $241 $386 1 $239 $-1 #
vertex $-1 $142 $396 #
straight-curve $-1 0 30 10 -1 0 0 I I #
coedge $-1 $143 $242 $145 $261 1 $84 $-1 #
vertex $-1 $253 $397 #
straight-curve $-1 0 -30 10 1 0 0 I I #
edge $-1 $148 $250 $145 $398 forward #
edge $-1 $149 $249 $146 $399 forward #
point $-1 7.5 -30 10 #
point $-1 7.5 30 10 #
face $-1 $-1 $166 $25 $-1 $400 reversed single #
loop $-1 $-1 $281 $151 #
plane-surface $-1 0 30 0 0 -1 0 0 0 -1 forward_v I I I I #
coedge $-1 $401 $279 $282 $402 0 $152 $-1 #
coedge $-1 $285 $154 $155 $273 1 $92 $-1 #
coedge $-1 $279 $401 $154 $271 1 $152 $-1 #
edge $-1 $286 $403 $270 $404 forward #
coedge $-1 $156 $155 $401 $405 0 $64 $-1 #
edge $-1 $277 $403 $269 $406 forward #
coedge $-1 $282 $281 $156 $275 1 $266 $-1 #
edge $-1 $407 $276 $274 $408 forward #
vertex $-1 $158 $409 #
vertex $-1 $288 $410 #
straight-curve $-1 7.5 0 -10 0 -1 0 I I #
coedge $-1 $268 $270 $159 $280 1 $152 $-1 #
edge $-1 $283 $286 $279 $411 forward #
coedge $-1 $274 $160 $165 $289 0 $266 $-1 #
coedge $-1 $160 $274 $268 $402 1 $266 $-1 #
vertex $-1 $161 $412 #
straight-curve $-1 0 30 10 -1 0 0 I I #
coedge $-1 $162 $269 $164 $288 1 $92 $-1 #
vertex $-1 $280 $413 #
straight-curve $-1 0 -30 10 1 0 0 I I #
edge $-1 $167 $277 $164 $414 forward #
edge $-1 $168 $276 $165 $415 forward #
point $-1 7.5 -30 10 #
point $-1 7.5 30 10 #
face $-1 $-1 $185 $27 $-1 $416 reversed single #
loop $-1 $-1 $308 $170 #
plane-surface $-1 0 7.5 0 0 -1 0 0 0 -1 forward_v I I I I #
coedge $-1 $417 $306 $309 $418 0 $171 $-1 #
coedge $-1 $312 $173 $174 $300 1 $100 $-1 #
coedge $-1 $306 $417 $173 $298 1 $171 $-1 #
edge $-1 $313 $419 $297 $420 forward #
coedge $-1 $175 $174 $417 $421 0 $68 $-1 #
edge $-1 $304 $419 $296 $422 forward #
coedge $-1 $309 $308 $175 $302 1 $293 $-1 #
edge $-1 $423 $303 $301 $424 forward #
vertex $-1 $177 $425 #
vertex $-1 $315 $426 #
straight-curve $-1 15 0 -10 0 -1 0 I I #
coedge $-1 $295 $297 $178 $307 1 $171 $-1 #
edge $-1 $310 $313 $306 $427 forward #
coedge $-1 $301 $179 $184 $316 0 $293 $-1 #
coedge $-1 $179 $301 $295 $418 1 $293 $-1 #
vertex $-1 $180 $428 #
straight-curve $-1 0 7.5 10 -1 0 0 I I #
coedge $-1 $181 $296 $183 $315 1 $100 $-1 #
vertex $-1 $307 $429 #
straight-curve $-1 0 -7.5 10 1 0 0 I I #
edge $-1 $186 $304 $183 $430 forward #
edge $-1 $187 $303 $184 $431 forward #
point $-1 15 -7.5 10 #
point $-1 15 7.5 10 #
face $-1 $-1 $204 $29 $-1 $432 reversed single #
loop $-1 $-1 $335 $189 #
plane-surface $-1 0 7.5 0 0 -1 0 0 0 -1 forward_v I I I I #
coedge $-1 $433 $333 $336 $434 0 $190 $-1 #
coedge $-1 $339 $192 $193 $327 1 $108 $-1 #
coedge $-1 $333 $433 $192 $325 1 $190 $-1 #
edge $-1 $340 $435 $324 $436 forward #
coedge $-1 $194 $193 $433 $437 0 $72 $-1 #
edge $-1 $331 $435 $323 $438 forward #
coedge $-1 $336 $335 $194 $329 1 $320 $-1 #
edge $-1 $439 $330 $328 $440 forward #
vertex $-1 $196 $441 #
vertex $-1 $342 $442 #
straight-curve $-1 15 0 -10 0 -1 0 I I #
coedge $-1 $322 $324 $197 $334 1 $190 $-1 #
edge $-1 $337 $340 $333 $443 forward #
coedge $-1 $328 $198 $203 $343 0 $320 $-1 #
coedge $-1 $198 $328 $322 $434 1 $320 $-1 #
vertex $-1 $199 $444 #
straight-curve $-1 0 7.5 10 -1 0 0 I I #
coedge $-1 $200 $323 $202 $342 1 $108 $-1 #
vertex $-1 $334 $445 #
straight-curve $-1 0 -7.5 10 1 0 0 I I #
edge $-1 $205 $331 $202 $446 forward #
edge $-1 $206 $330 $203 $447 forward #
point $-1 15 -7.5 10 #
point $-1 15 7.5 10 #
face $-1 $448 $449 $21 $-1 $450 forward single #
loop $-1 $-1 $451 $208 #
plane-surface $-1 -25 15 10 0 -1 0 0 0 -1 forward_v I I I I #
coedge $-1 $452 $453 $454 $455 1 $209 $-1 #
coedge $-1 $456 $366 $211 $351 0 $368 $-1 #
edge $-1 $358 $355 $350 $457 forward #
coedge $-1 $458 $212 $217 $362 0 $354 $-1 #
coedge $-1 $212 $458 $456 $459 0 $354 $-1 #
loop $-1 $-1 $212 $460 #
vertex $-1 $351 $461 #
straight-curve $-1 12.5 0 20 -1 0 0 I I #
coedge $-1 $214 $462 $216 $361 1 $226 $-1 #
vertex $-1 $371 $463 #
straight-curve $-1 25 0 0 -1 0 0 I I #
coedge $-1 $217 $216 $464 $465 1 $218 $-1 #
edge $-1 $220 $466 $216 $383 forward #
edge $-1 $219 $467 $352 $381 forward #
face $-1 $468 $218 $21 $-1 $77 forward single #
point $-1 25 0 20 #
point $-1 25 0 0 #
coedge $-1 $350 $222 $225 $371 0 $368 $-1 #
coedge $-1 $222 $469 $229 $376 1 $368 $-1 #
loop $-1 $-1 $350 $470 #
straight-curve $-1 40 15 5 -0 -0 -1 I I #
coedge $-1 $372 $224 $471 $472 1 $226 $-1 #
edge $-1 $227 $358 $366 $473 forward #
coedge $-1 $462 $370 $474 $475 1 $226 $-1 #
face $-1 $476 $226 $21 $-1 $477 forward single #
point $-1 40 15 0 #
coedge $-1 $230 $229 $478 $479 0 $116 $-1 #
edge $-1 $231 $480 $367 $481 forward #
point $-1 40 15 20 #
coedge $-1 $478 $471 $233 $379 0 $482 $-1 #
edge $-1 $382 $380 $378 $483 forward #
vertex $-1 $379 $484 #
straight-curve $-1 25 0 20 0 -1 0 I I #
vertex $-1 $472 $485 #
straight-curve $-1 25 0 0 0 -1 0 I I #
plane-surface $-1 7.5 0 0 -1 0 0 0 -0 1 forward_v I I I I #
coedge $-1 $243 $241 $245 $389 1 $133 $-1 #
edge $-1 $256 $391 $255 $486 forward #
vertex $-1 $389 $487 #
straight-curve $-1 -7.5 -30 0 0 0 -1 I I #
edge $-1 $387 $391 $385 $488 forward #
straight-curve $-1 0 -30 -10 -1 0 0 I I #
vertex $-1 $248 $489 #
straight-curve $-1 0 30 -10 1 0 0 I I #
point $-1 7.5 30 -10 #
point $-1 7.5 -30 -10 #
straight-curve $-1 -7.5 0 10 0 -1 0 I I #
point $-1 -7.5 30 10 #
point $-1 -7.5 -30 10 #
straight-curve $-1 7.5 -30 0 0 0 -1 I I #
straight-curve $-1 7.5 30 0 0 0 -1 I I #
plane-surface $-1 7.5 0 0 -1 0 0 0 -0 1 forward_v I I I I #
coedge $-1 $270 $268 $272 $405 1 $152 $-1 #
edge $-1 $283 $407 $282 $490 forward #
vertex $-1 $405 $491 #
straight-curve $-1 -7.5 -30 0 0 0 -1 I I #
edge $-1 $403 $407 $401 $492 forward #
straight-curve $-1 0 -30 -10 -1 0 0 I I #
vertex $-1 $275 $493 #
straight-curve $-1 0 30 -10 1 0 0 I I #
point $-1 7.5 30 -10 #
point $-1 7.5 -30 -10 #
straight-curve $-1 -7.5 0 10 0 -1 0 I I #
point $-1 -7.5 30 10 #
point $-1 -7.5 -30 10 #
straight-curve $-1 7.5 -30 0 0 0 -1 I I #
straight-curve $-1 7.5 30 0 0 0 -1 I I #
plane-surface $-1 15 0 0 -1 0 0 0 -0 1 forward_v I I I I #
coedge $-1 $297 $295 $299 $421 1 $171 $-1 #
edge $-1 $310 $423 $309 $494 forward #
vertex $-1 $421 $495 #
straight-curve $-1 -15 -7.5 0 0 0 -1 I I #
edge $-1 $419 $423 $417 $496 forward #
straight-curve $-1 0 -7.5 -10 -1 0 0 I I #
vertex $-1 $302 $497 #
straight-curve $-1 0 7.5 -10 1 0 0 I I #
point $-1 15 7.5 -10 #
point $-1 15 -7.5 -10 #
straight-curve $-1 -15 0 10 0 -1 0 I I #
point $-1 -15 7.5 10 #
point $-1 -15 -7.5 10 #
straight-curve $-1 15 -7.5 0 0 0 -1 I I #
straight-curve $-1 15 7.5 0 0 0 -1 I I #
plane-surface $-1 15 0 0 -1 0 0 0 -0 1 forward_v I I I I #
coedge $-1 $324 $322 $326 $437 1 $190 $-1 #
edge $-1 $337 $439 $336 $498 forward #
vertex $-1 $437 $499 #
straight-curve $-1 -15 -7.5 0 0 0 -1 I I #
edge $-1 $435 $439 $433 $500 forward #
straight-curve $-1 0 -7.5 -10 -1 0 0 I I #
vertex $-1 $329 $501 #
straight-curve $-1 0 7.5 -10 1 0 0 I I #
point $-1 15 7.5 -10 #
point $-1 15 -7.5 -10 #
straight-curve $-1 -15 0 10 0 -1 0 I I #
point $-1 -15 7.5 10 #
point $-1 -15 -7.5 10 #
straight-curve $-1 15 -7.5 0 0 0 -1 I I #
straight-curve $-1 15 7.5 0 0 0 -1 I I #
face $-1 $373 $502 $21 $-1 $117 forward single #
loop $-1 $-1 $454 $346 #
plane-surface $-1 -25 0 10 1 0 0 0 0 -1 forward_v I I I I #
coedge $-1 $503 $504 $505 $506 1 $347 $-1 #
coedge $-1 $507 $349 $508 $509 0 $209 $-1 #
coedge $-1 $349 $507 $510 $511 1 $209 $-1 #
coedge $-1 $512 $513 $349 $455 0 $449 $-1 #
edge $-1 $514 $515 $454 $516 forward #
coedge $-1 $517 $350 $353 $459 1 $368 $-1 #
straight-curve $-1 40 0 5 0 -0 1 I I #
coedge $-1 $353 $352 $518 $519 0 $354 $-1 #
edge $-1 $520 $355 $456 $481 forward #
face $-1 $521 $354 $21 $-1 $117 forward single #
point $-1 40 0 20 #
coedge $-1 $357 $372 $522 $523 1 $226 $-1 #
point $-1 40 0 0 #
coedge $-1 $522 $518 $360 $465 0 $524 $-1 #
edge $-1 $467 $466 $464 $525 forward #
vertex $-1 $523 $526 #
vertex $-1 $519 $527 #
face $-1 $528 $524 $21 $-1 $529 reversed single #
coedge $-1 $367 $530 $531 $532 1 $368 $-1 #
face $-1 $-1 $368 $21 $-1 $533 reversed single #
coedge $-1 $378 $534 $370 $472 0 $482 $-1 #
edge $-1 $535 $382 $471 $536 forward #
straight-curve $-1 40 3.75 0 0 -1 0 I I #
coedge $-1 $537 $538 $372 $475 0 $539 $-1 #
edge $-1 $540 $535 $474 $541 forward #
face $-1 $363 $539 $21 $-1 $542 forward single #
plane-surface $-1 17.5 0 0 0 0 1 1 0 0 forward_v I I I I #
coedge $-1 $531 $378 $375 $479 1 $482 $-1 #
edge $-1 $480 $380 $478 $543 forward #
vertex $-1 $376 $544 #
straight-curve $-1 40 0 20 0 1 0 I I #
loop $-1 $-1 $378 $545 #
straight-curve $-1 25 30 5 0 0 1 I I #
point $-1 25 30 20 #
point $-1 25 30 0 #
straight-curve $-1 -7.5 30 0 0 0 -1 I I #
point $-1 -7.5 -30 -10 #
straight-curve $-1 -7.5 0 -10 0 1 0 I I #
point $-1 -7.5 30 -10 #
straight-curve $-1 -7.5 30 0 0 0 -1 I I #
point $-1 -7.5 -30 -10 #
straight-curve $-1 -7.5 0 -10 0 1 0 I I #
point $-1 -7.5 30 -10 #
straight-curve $-1 -15 7.5 0 0 0 -1 I I #
point $-1 -15 -7.5 -10 #
straight-curve $-1 -15 0 -10 0 1 0 I I #
point $-1 -15 7.5 -10 #
straight-curve $-1 -15 7.5 0 0 0 -1 I I #
point $-1 -15 -7.5 -10 #
straight-curve $-1 -15 0 -10 0 1 0 I I #
point $-1 -15 7.5 -10 #
loop $-1 $-1 $510 $448 #
coedge $-1 $546 $451 $547 $548 1 $347 $-1 #
coedge $-1 $451 $546 $549 $550 0 $347 $-1 #
coedge $-1 $551 $552 $451 $506 0 $553 $-1 #
edge $-1 $554 $555 $505 $556 forward #
coedge $-1 $453 $452 $557 $558 1 $209 $-1 #
coedge $-1 $559 $560 $452 $509 1 $561 $-1 #
edge $-1 $514 $562 $452 $563 forward #
coedge $-1 $564 $565 $453 $511 0 $502 $-1 #
edge $-1 $515 $566 $510 $567 forward #
coedge $-1 $568 $454 $565 $569 1 $449 $-1 #
coedge $-1 $454 $568 $559 $570 0 $449 $-1 #
vertex $-1 $570 $571 #
vertex $-1 $511 $572 #
straight-curve $-1 -25 0 10 0 0 1 I I #
coedge $-1 $530 $456 $573 $574 0 $368 $-1 #
coedge $-1 $464 $573 $458 $519 1 $524 $-1 #
edge $-1 $467 $520 $518 $575 forward #
vertex $-1 $459 $576 #
face $-1 $577 $578 $21 $-1 $579 reversed single #
coedge $-1 $580 $464 $462 $523 0 $524 $-1 #
edge $-1 $466 $540 $522 $581 forward #
loop $-1 $-1 $464 $468 #
straight-curve $-1 25 -30 5 -0 0 -1 I I #
point $-1 25 -30 0 #
point $-1 25 -30 20 #
face $-1 $582 $583 $21 $-1 $117 forward single #
plane-surface $-1 0 -30 0 0 1 -0 -0 0 1 forward_v I I I I #
coedge $-1 $469 $517 $584 $585 1 $368 $-1 #
coedge $-1 $586 $478 $469 $532 0 $482 $-1 #
edge $-1 $480 $587 $469 $588 forward #
plane-surface $-1 40 0 0 -1 0 0 0 -0 1 forward_v I I I I #
coedge $-1 $471 $589 $537 $590 0 $482 $-1 #
vertex $-1 $472 $591 #
straight-curve $-1 8.75 30 0 1 0 -0 I I #
coedge $-1 $592 $474 $534 $590 1 $539 $-1 #
coedge $-1 $474 $592 $580 $593 1 $539 $-1 #
loop $-1 $-1 $592 $476 #
vertex $-1 $523 $594 #
straight-curve $-1 10 0 0 0 1 0 I I #
plane-surface $-1 10 0 10 1 0 0 0 0 -1 forward_v I I I I #
straight-curve $-1 0 30 20 -1 0 0 I I #
point $-1 40 30 20 #
face $-1 $470 $482 $21 $-1 $595 reversed single #
coedge $-1 $504 $503 $596 $597 1 $347 $-1 #
coedge $-1 $598 $599 $503 $548 0 $600 $-1 #
edge $-1 $601 $554 $547 $602 forward #
coedge $-1 $560 $603 $504 $550 1 $561 $-1 #
edge $-1 $604 $555 $504 $605 forward #
coedge $-1 $606 $505 $603 $607 0 $553 $-1 #
coedge $-1 $505 $606 $598 $608 1 $553 $-1 #
loop $-1 $-1 $505 $609 #
vertex $-1 $608 $610 #
vertex $-1 $607 $611 #
straight-curve $-1 -25 15 10 0 0 -1 I I #
coedge $-1 $612 $613 $507 $558 0 $614 $-1 #
edge $-1 $566 $562 $557 $615 forward #
coedge $-1 $616 $508 $513 $570 1 $561 $-1 #
coedge $-1 $508 $549 $612 $617 1 $561 $-1 #
loop $-1 $-1 $618 $582 #
vertex $-1 $617 $619 #
straight-curve $-1 -25 0 0 -1 0 0 I I #
coedge $-1 $620 $510 $613 $621 0 $502 $-1 #
coedge $-1 $510 $620 $512 $569 0 $502 $-1 #
vertex $-1 $621 $622 #
straight-curve $-1 -12.5 0 20 -1 0 0 I I #
coedge $-1 $513 $512 $623 $624 1 $449 $-1 #
edge $-1 $625 $515 $565 $626 forward #
edge $-1 $627 $514 $513 $628 forward #
point $-1 -25 0 0 #
point $-1 -25 0 20 #
coedge $-1 $518 $629 $517 $574 1 $524 $-1 #
edge $-1 $520 $630 $517 $631 forward #
straight-curve $-1 0 -30 20 1 0 0 I I #
point $-1 40 -30 20 #
face $-1 $545 $614 $21 $-1 $632 reversed single #
loop $-1 $-1 $584 $521 #
plane-surface $-1 0 0 -20 0 0 1 1 0 0 forward_v I I I I #
coedge $-1 $633 $522 $538 $593 0 $524 $-1 #
straight-curve $-1 8.75 -30 0 -1 0 0 I I #
face $-1 $609 $561 $21 $-1 $634 forward single #
loop $-1 $-1 $635 $528 #
coedge $-1 $636 $637 $530 $585 0 $578 $-1 #
edge $-1 $587 $630 $530 $638 forward #
coedge $-1 $639 $531 $637 $640 1 $482 $-1 #
vertex $-1 $585 $641 #
straight-curve $-1 40 30 0 0 0 -1 I I #
coedge $-1 $534 $642 $643 $644 1 $482 $-1 #
edge $-1 $645 $535 $534 $646 forward #
point $-1 10 30 0 #
coedge $-1 $538 $537 $635 $647 1 $539 $-1 #
edge $-1 $540 $648 $580 $649 forward #
point $-1 10 -30 0 #
plane-surface $-1 0 30 0 0 -1 0 0 0 -1 forward_v I I I I #
coedge $-1 $650 $612 $546 $597 0 $614 $-1 #
edge $-1 $604 $601 $596 $651 forward #
coedge $-1 $652 $547 $552 $608 0 $600 $-1 #
coedge $-1 $547 $652 $650 $653 0 $600 $-1 #
loop $-1 $-1 $547 $654 #
vertex $-1 $597 $655 #
straight-curve $-1 -12.5 15 20 1 0 -0 I I #
coedge $-1 $549 $656 $551 $607 1 $561 $-1 #
vertex $-1 $617 $657 #
straight-curve $-1 -25 15 0 1 0 0 I I #
coedge $-1 $552 $551 $658 $659 1 $553 $-1 #
edge $-1 $555 $660 $551 $628 forward #
edge $-1 $554 $661 $598 $626 forward #
face $-1 $662 $553 $21 $-1 $450 forward single #
point $-1 -25 15 20 #
point $-1 -25 15 0 #
coedge $-1 $596 $557 $560 $617 0 $614 $-1 #
coedge $-1 $557 $663 $564 $621 1 $614 $-1 #
loop $-1 $-1 $596 $577 #
straight-curve $-1 -40 0 5 0 0 -1 I I #
coedge $-1 $618 $559 $664 $665 1 $561 $-1 #
edge $-1 $562 $604 $612 $666 forward #
coedge $-1 $656 $616 $667 $668 1 $561 $-1 #
point $-1 -40 0 0 #
coedge $-1 $565 $564 $669 $670 0 $502 $-1 #
edge $-1 $566 $671 $613 $672 forward #
point $-1 -40 0 20 #
coedge $-1 $669 $664 $568 $624 0 $524 $-1 #
edge $-1 $627 $625 $623 $673 forward #
vertex $-1 $569 $674 #
straight-curve $-1 -25 0 20 0 1 0 I I #
vertex $-1 $665 $675 #
straight-curve $-1 -25 0 0 0 1 0 I I #
coedge $-1 $573 $676 $636 $677 1 $524 $-1 #
vertex $-1 $574 $678 #
straight-curve $-1 40 -30 0 0 0 -1 I I #
plane-surface $-1 -40 0 0 1 0 0 0 0 -1 forward_v I I I I #
coedge $-1 $679 $580 $680 $681 1 $524 $-1 #
plane-surface $-1 -17.5 0 0 0 0 1 1 0 0 forward_v I I I I #
coedge $-1 $643 $680 $592 $647 0 $583 $-1 #
coedge $-1 $682 $584 $629 $677 0 $578 $-1 #
coedge $-1 $584 $682 $586 $640 0 $578 $-1 #
straight-curve $-1 40 0 -20 0 -1 0 I I #
coedge $-1 $683 $586 $684 $685 1 $482 $-1 #
edge $-1 $686 $587 $586 $687 forward #
point $-1 40 30 -20 #
coedge $-1 $589 $688 $689 $690 0 $482 $-1 #
coedge $-1 $691 $635 $589 $644 0 $583 $-1 #
edge $-1 $645 $692 $589 $543 forward #
vertex $-1 $644 $693 #
straight-curve $-1 10 30 5 0 0 -1 I I #
edge $-1 $648 $645 $635 $694 forward #
vertex $-1 $647 $695 #
straight-curve $-1 10 -30 5 -0 0 1 I I #
coedge $-1 $684 $596 $599 $653 1 $614 $-1 #
straight-curve $-1 -40 15 5 -0 0 1 I I #
coedge $-1 $599 $598 $683 $696 0 $600 $-1 #
edge $-1 $697 $601 $650 $672 forward #
face $-1 $460 $600 $21 $-1 $117 forward single #
point $-1 -40 15 20 #
coedge $-1 $603 $618 $688 $698 1 $561 $-1 #
point $-1 -40 15 0 #
coedge $-1 $688 $683 $606 $659 0 $482 $-1 #
edge $-1 $661 $660 $658 $699 forward #
vertex $-1 $698 $700 #
vertex $-1 $696 $701 #
face $-1 $654 $702 $21 $-1 $703 forward single #
coedge $-1 $613 $704 $676 $705 1 $614 $-1 #
coedge $-1 $623 $679 $616 $665 0 $524 $-1 #
edge $-1 $706 $627 $664 $707 forward #
straight-curve $-1 -40 3.75 0 0 1 0 I I #
coedge $-1 $708 $689 $618 $668 0 $702 $-1 #
edge $-1 $709 $706 $667 $710 forward #
coedge $-1 $676 $623 $620 $670 1 $524 $-1 #
edge $-1 $671 $625 $669 $575 forward #
vertex $-1 $621 $711 #
straight-curve $-1 -40 0 20 0 -1 0 I I #
straight-curve $-1 -25 -30 5 -0 0 1 I I #
point $-1 -25 -30 20 #
point $-1 -25 -30 0 #
coedge $-1 $629 $669 $663 $705 0 $524 $-1 #
edge $-1 $630 $712 $629 $713 forward #
point $-1 40 -30 -20 #
coedge $-1 $664 $633 $708 $714 0 $524 $-1 #
coedge $-1 $635 $691 $633 $681 0 $583 $-1 #
edge $-1 $715 $648 $633 $575 forward #
coedge $-1 $637 $636 $704 $716 0 $578 $-1 #
coedge $-1 $658 $639 $652 $696 1 $482 $-1 #
coedge $-1 $704 $650 $639 $685 0 $614 $-1 #
edge $-1 $697 $686 $639 $717 forward #
vertex $-1 $640 $718 #
straight-curve $-1 0 30 -20 1 0 0 I I #
coedge $-1 $642 $658 $656 $698 0 $482 $-1 #
coedge $-1 $667 $719 $642 $690 1 $702 $-1 #
edge $-1 $709 $692 $642 $720 forward #
coedge $-1 $680 $643 $719 $721 0 $583 $-1 #
vertex $-1 $690 $722 #
point $-1 10 30 20 #
straight-curve $-1 10 0 20 0 1 0 I I #
point $-1 10 -30 20 #
edge $-1 $661 $697 $683 $543 forward #
vertex $-1 $696 $723 #
edge $-1 $660 $709 $688 $724 forward #
straight-curve $-1 -25 30 5 0 0 -1 I I #
point $-1 -25 30 0 #
point $-1 -25 30 20 #
loop $-1 $-1 $719 $662 #
plane-surface $-1 -10 0 10 -1 0 0 0 0 1 forward_v I I I I #
coedge $-1 $663 $684 $682 $716 1 $614 $-1 #
edge $-1 $671 $712 $663 $725 forward #
vertex $-1 $665 $726 #
straight-curve $-1 -8.75 -30 0 -1 0 0 I I #
coedge $-1 $719 $667 $679 $714 1 $702 $-1 #
vertex $-1 $698 $727 #
straight-curve $-1 -10 0 0 0 -1 0 I I #
point $-1 -40 -30 20 #
vertex $-1 $716 $728 #
straight-curve $-1 0 -30 -20 -1 0 0 I I #
edge $-1 $715 $706 $679 $729 forward #
vertex $-1 $681 $730 #
edge $-1 $712 $686 $704 $731 forward #
straight-curve $-1 -40 30 0 0 0 -1 I I #
point $-1 -40 30 -20 #
coedge $-1 $689 $708 $691 $721 1 $702 $-1 #
straight-curve $-1 -10 30 5 0 0 1 I I #
edge $-1 $692 $715 $691 $732 forward #
point $-1 -10 30 20 #
point $-1 -40 30 20 #
straight-curve $-1 -8.75 30 0 1 0 -0 I I #
straight-curve $-1 -40 -30 0 0 0 -1 I I #
point $-1 -10 -30 0 #
point $-1 -10 30 0 #
point $-1 -40 -30 -20 #
straight-curve $-1 -10 -30 5 -0 0 -1 I I #
point $-1 -10 -30 20 #
straight-curve $-1 -40 0 -20 0 1 0 I I #
straight-curve $-1 -10 0 20 0 -1 0 I I #
End-of-ACIS-data 
