200 0 4 0           
7 Unknown 16 ACIS 2.0 Solaris 24 Fri Oct 11 17:50:52 1996 
-1 9.999999999999999547e-07 1.000000000000000036e-10 
body $4 $5 $-1 $6 #
body $7 $8 $-1 $9 #
body $10 $11 $-1 $12 #
body $13 $14 $-1 $15 #
display_attribute-st-attrib $-1 $16 $-1 $0 2 #
lump $-1 $-1 $17 $0 #
transform $-1 1 0 0 0 1 0 0 0 1 0 0 20 1 rotate no_reflect no_shear #
display_attribute-st-attrib $-1 $18 $-1 $1 1 #
lump $-1 $-1 $19 $1 #
transform $-1 1 0 0 0 1 0 0 0 1 0 0 30 1 rotate no_reflect no_shear #
display_attribute-st-attrib $-1 $20 $-1 $2 1 #
lump $-1 $-1 $21 $2 #
transform $-1 1 0 0 0 1 0 0 0 1 -12.5 7.5 30 1 rotate no_reflect no_shear #
display_attribute-st-attrib $-1 $22 $-1 $3 1 #
lump $-1 $-1 $23 $3 #
transform $-1 1 0 0 0 1 0 0 0 1 12.5 -12.5 30 1 rotate no_reflect no_shear #
rgb_color-st-attrib $-1 $24 $4 $0 0 1 0 #
shell $-1 $-1 $-1 $25 $-1 $5 #
rgb_color-st-attrib $-1 $26 $7 $1 0 1 0 #
shell $-1 $-1 $-1 $27 $-1 $8 #
rgb_color-st-attrib $-1 $28 $10 $2 0 1 0 #
shell $-1 $-1 $-1 $29 $-1 $11 #
rgb_color-st-attrib $-1 $30 $13 $3 0 1 0 #
shell $-1 $-1 $-1 $31 $-1 $14 #
id_attribute-st-attrib $-1 $-1 $16 $0 1 #
face $-1 $32 $33 $17 $-1 $34 forward single #
id_attribute-st-attrib $-1 $-1 $18 $1 2 #
face $-1 $35 $36 $19 $-1 $37 forward single #
id_attribute-st-attrib $-1 $-1 $20 $2 3 #
face $-1 $38 $39 $21 $-1 $40 forward single #
id_attribute-st-attrib $-1 $-1 $22 $3 4 #
face $-1 $41 $42 $23 $-1 $43 forward single #
face $-1 $44 $45 $17 $-1 $46 forward single #
loop $-1 $-1 $47 $25 #
plane-surface $-1 12.5 -5 10 0 -1 0 0 0 -1 forward_v I I I I #
face $-1 $48 $49 $19 $-1 $50 reversed single #
loop $-1 $-1 $51 $27 #
plane-surface $-1 0 0 10 0 0 1 1 0 0 forward_v I I I I #
face $-1 $52 $53 $21 $-1 $54 reversed single #
loop $-1 $-1 $55 $29 #
plane-surface $-1 0 0 10 0 0 1 1 0 0 forward_v I I I I #
face $-1 $56 $57 $23 $-1 $58 reversed single #
loop $-1 $-1 $59 $31 #
plane-surface $-1 0 0 10 0 0 1 1 0 0 forward_v I I I I #
face $-1 $60 $61 $17 $-1 $62 forward single #
loop $-1 $-1 $63 $32 #
plane-surface $-1 12.5 -20 10 0 1 0 0 0 1 forward_v I I I I #
coedge $-1 $64 $65 $66 $67 1 $33 $-1 #
face $-1 $68 $69 $19 $-1 $70 reversed single #
loop $-1 $-1 $71 $35 #
plane-surface $-1 0 0 -10 0 0 1 1 0 0 forward_v I I I I #
coedge $-1 $72 $73 $74 $75 0 $36 $-1 #
face $-1 $76 $77 $21 $-1 $78 reversed single #
loop $-1 $-1 $79 $38 #
plane-surface $-1 0 0 -10 0 0 1 1 0 0 forward_v I I I I #
coedge $-1 $80 $81 $82 $83 0 $39 $-1 #
face $-1 $84 $85 $23 $-1 $86 reversed single #
loop $-1 $-1 $87 $41 #
plane-surface $-1 0 0 -10 0 0 1 1 0 0 forward_v I I I I #
coedge $-1 $88 $89 $90 $91 0 $42 $-1 #
face $-1 $92 $93 $17 $-1 $94 forward single #
loop $-1 $-1 $66 $44 #
plane-surface $-1 15 0 10 -1 0 0 0 0 1 forward_v I I I I #
coedge $-1 $95 $96 $97 $98 1 $45 $-1 #
coedge $-1 $99 $47 $100 $101 0 $33 $-1 #
coedge $-1 $47 $99 $102 $103 1 $33 $-1 #
coedge $-1 $104 $105 $47 $67 0 $61 $-1 #
edge $-1 $106 $107 $66 $108 forward #
face $-1 $109 $110 $19 $-1 $111 reversed single #
loop $-1 $-1 $112 $48 #
plane-surface $-1 0 -30 0 0 1 -0 -0 0 1 forward_v I I I I #
coedge $-1 $113 $114 $115 $116 0 $49 $-1 #
coedge $-1 $117 $51 $118 $119 0 $36 $-1 #
coedge $-1 $51 $117 $120 $121 0 $36 $-1 #
coedge $-1 $122 $123 $51 $75 1 $124 $-1 #
edge $-1 $125 $126 $74 $127 forward #
face $-1 $128 $129 $21 $-1 $130 reversed single #
loop $-1 $-1 $131 $52 #
plane-surface $-1 0 -7.5 0 0 1 -0 -0 0 1 forward_v I I I I #
coedge $-1 $132 $133 $134 $135 0 $53 $-1 #
coedge $-1 $136 $55 $137 $138 0 $39 $-1 #
coedge $-1 $55 $136 $139 $140 0 $39 $-1 #
coedge $-1 $141 $142 $55 $83 1 $143 $-1 #
edge $-1 $144 $145 $82 $146 forward #
face $-1 $147 $148 $23 $-1 $149 reversed single #
loop $-1 $-1 $150 $56 #
plane-surface $-1 0 -7.5 0 0 1 -0 -0 0 1 forward_v I I I I #
coedge $-1 $151 $152 $153 $154 0 $57 $-1 #
coedge $-1 $155 $59 $156 $157 0 $42 $-1 #
coedge $-1 $59 $155 $158 $159 0 $42 $-1 #
coedge $-1 $160 $161 $59 $91 1 $162 $-1 #
edge $-1 $163 $164 $90 $165 forward #
face $-1 $166 $167 $17 $-1 $168 forward single #
loop $-1 $-1 $102 $60 #
plane-surface $-1 0 0 20 0 0 1 1 0 0 forward_v I I I I #
coedge $-1 $169 $63 $170 $171 1 $45 $-1 #
coedge $-1 $63 $169 $172 $173 0 $45 $-1 #
coedge $-1 $174 $175 $63 $98 0 $176 $-1 #
edge $-1 $177 $178 $97 $179 forward #
coedge $-1 $65 $64 $180 $181 1 $33 $-1 #
coedge $-1 $182 $183 $64 $101 1 $184 $-1 #
edge $-1 $106 $185 $64 $186 forward #
coedge $-1 $187 $188 $65 $103 0 $93 $-1 #
edge $-1 $107 $189 $102 $190 forward #
coedge $-1 $191 $66 $188 $192 1 $61 $-1 #
coedge $-1 $66 $191 $182 $193 0 $61 $-1 #
vertex $-1 $193 $194 #
vertex $-1 $103 $195 #
straight-curve $-1 15 -5 10 0 0 1 I I #
face $-1 $196 $197 $19 $-1 $198 reversed single #
loop $-1 $-1 $199 $68 #
plane-surface $-1 -15 0 0 1 0 0 0 0 -1 forward_v I I I I #
coedge $-1 $200 $120 $201 $202 0 $69 $-1 #
coedge $-1 $203 $71 $200 $204 0 $49 $-1 #
coedge $-1 $71 $203 $205 $206 0 $49 $-1 #
coedge $-1 $123 $122 $71 $116 1 $124 $-1 #
edge $-1 $207 $208 $115 $209 forward #
coedge $-1 $73 $72 $210 $211 0 $36 $-1 #
coedge $-1 $212 $213 $72 $119 1 $197 $-1 #
edge $-1 $126 $214 $118 $215 forward #
coedge $-1 $112 $216 $73 $121 1 $69 $-1 #
edge $-1 $217 $125 $120 $218 forward #
coedge $-1 $115 $74 $216 $219 0 $124 $-1 #
coedge $-1 $74 $115 $212 $220 1 $124 $-1 #
loop $-1 $-1 $122 $196 #
vertex $-1 $75 $221 #
vertex $-1 $75 $222 #
straight-curve $-1 15 0 10 0 1 0 I I #
face $-1 $223 $224 $21 $-1 $225 reversed single #
loop $-1 $-1 $226 $76 #
plane-surface $-1 -27.5 0 0 1 0 0 0 0 -1 forward_v I I I I #
coedge $-1 $227 $139 $228 $229 0 $77 $-1 #
coedge $-1 $230 $79 $227 $231 0 $53 $-1 #
coedge $-1 $79 $230 $232 $233 0 $53 $-1 #
coedge $-1 $142 $141 $79 $135 1 $143 $-1 #
edge $-1 $234 $235 $134 $236 forward #
coedge $-1 $81 $80 $237 $238 0 $39 $-1 #
coedge $-1 $239 $240 $80 $138 1 $224 $-1 #
edge $-1 $145 $241 $137 $242 forward #
coedge $-1 $131 $243 $81 $140 1 $77 $-1 #
edge $-1 $244 $144 $139 $245 forward #
coedge $-1 $134 $82 $243 $246 0 $143 $-1 #
coedge $-1 $82 $134 $239 $247 1 $143 $-1 #
loop $-1 $-1 $141 $223 #
vertex $-1 $83 $248 #
vertex $-1 $83 $249 #
straight-curve $-1 27.5 0 10 0 1 0 I I #
face $-1 $250 $251 $23 $-1 $252 reversed single #
loop $-1 $-1 $253 $84 #
plane-surface $-1 -27.5 0 0 1 0 0 0 0 -1 forward_v I I I I #
coedge $-1 $254 $158 $255 $256 0 $85 $-1 #
coedge $-1 $257 $87 $254 $258 0 $57 $-1 #
coedge $-1 $87 $257 $259 $260 0 $57 $-1 #
coedge $-1 $161 $160 $87 $154 1 $162 $-1 #
edge $-1 $261 $262 $153 $263 forward #
coedge $-1 $89 $88 $264 $265 0 $42 $-1 #
coedge $-1 $266 $267 $88 $157 1 $251 $-1 #
edge $-1 $164 $268 $156 $269 forward #
coedge $-1 $150 $270 $89 $159 1 $85 $-1 #
edge $-1 $271 $163 $158 $272 forward #
coedge $-1 $153 $90 $270 $273 0 $162 $-1 #
coedge $-1 $90 $153 $266 $274 1 $162 $-1 #
loop $-1 $-1 $160 $250 #
vertex $-1 $91 $275 #
vertex $-1 $91 $276 #
straight-curve $-1 27.5 0 10 0 1 0 I I #
face $-1 $277 $278 $17 $-1 $279 forward single #
loop $-1 $-1 $280 $92 #
plane-surface $-1 -12.5 0 10 0 1 0 0 0 1 forward_v I I I I #
coedge $-1 $96 $95 $281 $282 1 $45 $-1 #
coedge $-1 $283 $284 $95 $171 0 $285 $-1 #
edge $-1 $286 $177 $170 $287 forward #
coedge $-1 $183 $288 $96 $173 1 $184 $-1 #
edge $-1 $289 $178 $96 $290 forward #
coedge $-1 $291 $97 $288 $292 0 $176 $-1 #
coedge $-1 $97 $291 $283 $293 1 $176 $-1 #
loop $-1 $-1 $97 $294 #
vertex $-1 $293 $295 #
vertex $-1 $292 $296 #
straight-curve $-1 15 -20 10 0 0 -1 I I #
coedge $-1 $297 $298 $99 $181 0 $299 $-1 #
edge $-1 $189 $185 $180 $300 forward #
coedge $-1 $301 $100 $105 $193 1 $184 $-1 #
coedge $-1 $100 $172 $297 $302 1 $184 $-1 #
loop $-1 $-1 $303 $304 #
vertex $-1 $302 $305 #
straight-curve $-1 12.5 -5 0 1 0 0 I I #
coedge $-1 $306 $102 $298 $307 0 $93 $-1 #
coedge $-1 $102 $306 $104 $192 0 $93 $-1 #
vertex $-1 $307 $308 #
straight-curve $-1 6.25 -5 20 1 0 -0 I I #
coedge $-1 $105 $104 $309 $310 1 $61 $-1 #
edge $-1 $311 $107 $188 $312 forward #
edge $-1 $313 $106 $105 $314 forward #
point $-1 15 -5 0 #
point $-1 15 -5 20 #
face $-1 $-1 $124 $19 $-1 $315 reversed single #
loop $-1 $-1 $212 $109 #
plane-surface $-1 0 30 0 0 -1 0 0 0 -1 forward_v I I I I #
coedge $-1 $316 $210 $213 $317 0 $110 $-1 #
coedge $-1 $216 $112 $113 $204 1 $69 $-1 #
coedge $-1 $210 $316 $112 $202 1 $110 $-1 #
edge $-1 $217 $318 $201 $319 forward #
coedge $-1 $114 $113 $316 $320 0 $49 $-1 #
edge $-1 $208 $318 $200 $321 forward #
coedge $-1 $213 $212 $114 $206 1 $197 $-1 #
edge $-1 $322 $207 $205 $323 forward #
vertex $-1 $116 $324 #
vertex $-1 $219 $325 #
straight-curve $-1 15 0 -10 0 -1 0 I I #
coedge $-1 $199 $201 $117 $211 1 $110 $-1 #
edge $-1 $214 $217 $210 $326 forward #
coedge $-1 $205 $118 $123 $220 0 $197 $-1 #
coedge $-1 $118 $205 $199 $317 1 $197 $-1 #
vertex $-1 $119 $327 #
straight-curve $-1 0 30 10 -1 0 0 I I #
coedge $-1 $120 $200 $122 $219 1 $69 $-1 #
vertex $-1 $211 $328 #
straight-curve $-1 0 -30 10 1 0 0 I I #
edge $-1 $125 $208 $122 $329 forward #
edge $-1 $126 $207 $123 $330 forward #
point $-1 15 -30 10 #
point $-1 15 30 10 #
face $-1 $-1 $143 $21 $-1 $331 reversed single #
loop $-1 $-1 $239 $128 #
plane-surface $-1 0 7.5 0 0 -1 0 0 0 -1 forward_v I I I I #
coedge $-1 $332 $237 $240 $333 0 $129 $-1 #
coedge $-1 $243 $131 $132 $231 1 $77 $-1 #
coedge $-1 $237 $332 $131 $229 1 $129 $-1 #
edge $-1 $244 $334 $228 $335 forward #
coedge $-1 $133 $132 $332 $336 0 $53 $-1 #
edge $-1 $235 $334 $227 $337 forward #
coedge $-1 $240 $239 $133 $233 1 $224 $-1 #
edge $-1 $338 $234 $232 $339 forward #
vertex $-1 $135 $340 #
vertex $-1 $246 $341 #
straight-curve $-1 27.5 0 -10 0 -1 0 I I #
coedge $-1 $226 $228 $136 $238 1 $129 $-1 #
edge $-1 $241 $244 $237 $342 forward #
coedge $-1 $232 $137 $142 $247 0 $224 $-1 #
coedge $-1 $137 $232 $226 $333 1 $224 $-1 #
vertex $-1 $138 $343 #
straight-curve $-1 0 7.5 10 -1 0 0 I I #
coedge $-1 $139 $227 $141 $246 1 $77 $-1 #
vertex $-1 $238 $344 #
straight-curve $-1 0 -7.5 10 1 0 0 I I #
edge $-1 $144 $235 $141 $345 forward #
edge $-1 $145 $234 $142 $346 forward #
point $-1 27.5 -7.5 10 #
point $-1 27.5 7.5 10 #
face $-1 $-1 $162 $23 $-1 $347 reversed single #
loop $-1 $-1 $266 $147 #
plane-surface $-1 0 7.5 0 0 -1 0 0 0 -1 forward_v I I I I #
coedge $-1 $348 $264 $267 $349 0 $148 $-1 #
coedge $-1 $270 $150 $151 $258 1 $85 $-1 #
coedge $-1 $264 $348 $150 $256 1 $148 $-1 #
edge $-1 $271 $350 $255 $351 forward #
coedge $-1 $152 $151 $348 $352 0 $57 $-1 #
edge $-1 $262 $350 $254 $353 forward #
coedge $-1 $267 $266 $152 $260 1 $251 $-1 #
edge $-1 $354 $261 $259 $355 forward #
vertex $-1 $154 $356 #
vertex $-1 $273 $357 #
straight-curve $-1 27.5 0 -10 0 -1 0 I I #
coedge $-1 $253 $255 $155 $265 1 $148 $-1 #
edge $-1 $268 $271 $264 $358 forward #
coedge $-1 $259 $156 $161 $274 0 $251 $-1 #
coedge $-1 $156 $259 $253 $349 1 $251 $-1 #
vertex $-1 $157 $359 #
straight-curve $-1 0 7.5 10 -1 0 0 I I #
coedge $-1 $158 $254 $160 $273 1 $85 $-1 #
vertex $-1 $265 $360 #
straight-curve $-1 0 -7.5 10 1 0 0 I I #
edge $-1 $163 $262 $160 $361 forward #
edge $-1 $164 $261 $161 $362 forward #
point $-1 27.5 -7.5 10 #
point $-1 27.5 7.5 10 #
face $-1 $363 $364 $17 $-1 $365 forward single #
loop $-1 $-1 $366 $166 #
plane-surface $-1 -12.5 15 10 0 -1 0 0 0 -1 forward_v I I I I #
coedge $-1 $367 $368 $369 $370 1 $167 $-1 #
coedge $-1 $371 $297 $169 $282 0 $299 $-1 #
edge $-1 $289 $286 $281 $372 forward #
coedge $-1 $373 $170 $175 $293 0 $285 $-1 #
coedge $-1 $170 $373 $371 $374 0 $285 $-1 #
loop $-1 $-1 $170 $375 #
vertex $-1 $282 $376 #
straight-curve $-1 6.25 -20 20 -1 0 0 I I #
coedge $-1 $172 $377 $174 $292 1 $184 $-1 #
vertex $-1 $302 $378 #
straight-curve $-1 12.5 -20 0 -1 0 0 I I #
coedge $-1 $175 $174 $379 $380 1 $176 $-1 #
edge $-1 $178 $381 $174 $314 forward #
edge $-1 $177 $382 $283 $312 forward #
face $-1 $383 $176 $17 $-1 $62 forward single #
point $-1 15 -20 20 #
point $-1 15 -20 0 #
coedge $-1 $281 $180 $183 $302 0 $299 $-1 #
coedge $-1 $180 $384 $187 $307 1 $299 $-1 #
loop $-1 $-1 $281 $385 #
straight-curve $-1 40 -5 5 -0 -0 -1 I I #
coedge $-1 $386 $182 $387 $388 1 $184 $-1 #
edge $-1 $185 $289 $297 $389 forward #
coedge $-1 $377 $390 $391 $392 1 $184 $-1 #
face $-1 $393 $184 $17 $-1 $394 forward single #
point $-1 40 -5 0 #
coedge $-1 $188 $187 $395 $396 0 $93 $-1 #
edge $-1 $189 $397 $298 $398 forward #
point $-1 40 -5 20 #
coedge $-1 $395 $387 $191 $310 0 $399 $-1 #
edge $-1 $313 $311 $309 $400 forward #
vertex $-1 $310 $401 #
straight-curve $-1 15 0 20 0 -1 0 I I #
vertex $-1 $388 $402 #
straight-curve $-1 15 0 0 0 -1 0 I I #
plane-surface $-1 15 0 0 -1 0 0 0 -0 1 forward_v I I I I #
coedge $-1 $201 $199 $203 $320 1 $110 $-1 #
edge $-1 $214 $322 $213 $403 forward #
vertex $-1 $320 $404 #
straight-curve $-1 -15 -30 0 0 0 -1 I I #
edge $-1 $318 $322 $316 $405 forward #
straight-curve $-1 0 -30 -10 -1 0 0 I I #
vertex $-1 $206 $406 #
straight-curve $-1 0 30 -10 1 0 0 I I #
point $-1 15 30 -10 #
point $-1 15 -30 -10 #
straight-curve $-1 -15 0 10 0 -1 0 I I #
point $-1 -15 30 10 #
point $-1 -15 -30 10 #
straight-curve $-1 15 -30 0 0 0 -1 I I #
straight-curve $-1 15 30 0 0 0 -1 I I #
plane-surface $-1 27.5 0 0 -1 0 0 0 -0 1 forward_v I I I I #
coedge $-1 $228 $226 $230 $336 1 $129 $-1 #
edge $-1 $241 $338 $240 $407 forward #
vertex $-1 $336 $408 #
straight-curve $-1 -27.5 -7.5 0 0 0 -1 I I #
edge $-1 $334 $338 $332 $409 forward #
straight-curve $-1 0 -7.5 -10 -1 0 0 I I #
vertex $-1 $233 $410 #
straight-curve $-1 0 7.5 -10 1 0 0 I I #
point $-1 27.5 7.5 -10 #
point $-1 27.5 -7.5 -10 #
straight-curve $-1 -27.5 0 10 0 -1 0 I I #
point $-1 -27.5 7.5 10 #
point $-1 -27.5 -7.5 10 #
straight-curve $-1 27.5 -7.5 0 0 0 -1 I I #
straight-curve $-1 27.5 7.5 0 0 0 -1 I I #
plane-surface $-1 27.5 0 0 -1 0 0 0 -0 1 forward_v I I I I #
coedge $-1 $255 $253 $257 $352 1 $148 $-1 #
edge $-1 $268 $354 $267 $411 forward #
vertex $-1 $352 $412 #
straight-curve $-1 -27.5 -7.5 0 0 0 -1 I I #
edge $-1 $350 $354 $348 $413 forward #
straight-curve $-1 0 -7.5 -10 -1 0 0 I I #
vertex $-1 $260 $414 #
straight-curve $-1 0 7.5 -10 1 0 0 I I #
point $-1 27.5 7.5 -10 #
point $-1 27.5 -7.5 -10 #
straight-curve $-1 -27.5 0 10 0 -1 0 I I #
point $-1 -27.5 7.5 10 #
point $-1 -27.5 -7.5 10 #
straight-curve $-1 27.5 -7.5 0 0 0 -1 I I #
straight-curve $-1 27.5 7.5 0 0 0 -1 I I #
face $-1 $304 $415 $17 $-1 $94 forward single #
loop $-1 $-1 $416 $277 #
plane-surface $-1 -15 0 10 1 0 0 0 0 -1 forward_v I I I I #
coedge $-1 $417 $418 $419 $420 1 $278 $-1 #
coedge $-1 $421 $280 $390 $422 0 $167 $-1 #
coedge $-1 $280 $421 $423 $424 1 $167 $-1 #
coedge $-1 $416 $391 $280 $370 0 $364 $-1 #
edge $-1 $425 $426 $369 $427 forward #
coedge $-1 $428 $281 $284 $374 1 $299 $-1 #
straight-curve $-1 40 -20 5 0 -0 1 I I #
coedge $-1 $284 $283 $429 $430 0 $285 $-1 #
edge $-1 $431 $286 $371 $398 forward #
face $-1 $432 $285 $17 $-1 $94 forward single #
point $-1 40 -20 20 #
coedge $-1 $288 $303 $433 $434 1 $184 $-1 #
point $-1 40 -20 0 #
coedge $-1 $433 $429 $291 $380 0 $435 $-1 #
edge $-1 $382 $381 $379 $436 forward #
vertex $-1 $434 $437 #
vertex $-1 $430 $438 #
face $-1 $439 $435 $17 $-1 $440 reversed single #
coedge $-1 $298 $441 $442 $443 1 $299 $-1 #
face $-1 $-1 $299 $17 $-1 $444 reversed single #
coedge $-1 $445 $301 $446 $447 1 $184 $-1 #
coedge $-1 $309 $448 $301 $388 0 $399 $-1 #
edge $-1 $449 $313 $387 $450 forward #
straight-curve $-1 40 -6.25 0 0 -1 0 I I #
coedge $-1 $303 $451 $367 $422 1 $184 $-1 #
coedge $-1 $369 $452 $303 $392 0 $364 $-1 #
edge $-1 $453 $425 $391 $454 forward #
face $-1 $294 $455 $17 $-1 $365 forward single #
plane-surface $-1 0 0 0 0 0 1 1 0 0 forward_v I I I I #
coedge $-1 $442 $309 $306 $396 1 $399 $-1 #
edge $-1 $397 $311 $395 $456 forward #
vertex $-1 $307 $457 #
straight-curve $-1 40 0 20 0 1 0 I I #
loop $-1 $-1 $309 $458 #
straight-curve $-1 15 30 5 0 0 1 I I #
point $-1 15 30 20 #
point $-1 15 30 0 #
straight-curve $-1 -15 30 0 0 0 -1 I I #
point $-1 -15 -30 -10 #
straight-curve $-1 -15 0 -10 0 1 0 I I #
point $-1 -15 30 -10 #
straight-curve $-1 -27.5 7.5 0 0 0 -1 I I #
point $-1 -27.5 -7.5 -10 #
straight-curve $-1 -27.5 0 -10 0 1 0 I I #
point $-1 -27.5 7.5 -10 #
straight-curve $-1 -27.5 7.5 0 0 0 -1 I I #
point $-1 -27.5 -7.5 -10 #
straight-curve $-1 -27.5 0 -10 0 1 0 I I #
point $-1 -27.5 7.5 -10 #
loop $-1 $-1 $423 $363 #
coedge $-1 $452 $369 $459 $460 1 $364 $-1 #
coedge $-1 $461 $366 $462 $463 1 $278 $-1 #
coedge $-1 $366 $461 $445 $464 0 $278 $-1 #
coedge $-1 $446 $465 $366 $420 0 $455 $-1 #
edge $-1 $466 $467 $419 $468 forward #
coedge $-1 $368 $367 $469 $470 1 $167 $-1 #
edge $-1 $425 $471 $367 $472 forward #
coedge $-1 $473 $459 $368 $424 0 $415 $-1 #
edge $-1 $426 $474 $423 $475 forward #
vertex $-1 $392 $476 #
vertex $-1 $424 $477 #
straight-curve $-1 -15 0 10 0 0 1 I I #
coedge $-1 $441 $371 $478 $479 0 $299 $-1 #
coedge $-1 $379 $478 $373 $430 1 $435 $-1 #
edge $-1 $382 $431 $429 $480 forward #
vertex $-1 $374 $481 #
face $-1 $482 $483 $17 $-1 $484 reversed single #
coedge $-1 $485 $379 $377 $434 0 $435 $-1 #
edge $-1 $381 $453 $433 $486 forward #
loop $-1 $-1 $379 $383 #
straight-curve $-1 15 -30 5 -0 0 -1 I I #
point $-1 15 -30 0 #
point $-1 15 -30 20 #
face $-1 $375 $487 $17 $-1 $94 forward single #
plane-surface $-1 0 -30 0 0 1 -0 -0 0 1 forward_v I I I I #
coedge $-1 $384 $428 $488 $489 1 $299 $-1 #
coedge $-1 $490 $395 $384 $443 0 $399 $-1 #
edge $-1 $397 $491 $384 $492 forward #
plane-surface $-1 40 0 0 -1 0 0 0 -0 1 forward_v I I I I #
coedge $-1 $451 $386 $418 $464 1 $184 $-1 #
coedge $-1 $493 $419 $386 $447 0 $455 $-1 #
edge $-1 $467 $449 $446 $454 forward #
coedge $-1 $387 $494 $493 $495 0 $399 $-1 #
vertex $-1 $388 $496 #
straight-curve $-1 0 30 0 1 0 -0 I I #
coedge $-1 $390 $445 $497 $498 1 $184 $-1 #
coedge $-1 $391 $416 $485 $499 1 $364 $-1 #
vertex $-1 $434 $500 #
straight-curve $-1 -15 0 0 0 1 0 I I #
loop $-1 $-1 $419 $393 #
straight-curve $-1 0 30 20 -1 0 0 I I #
point $-1 40 30 20 #
face $-1 $385 $399 $17 $-1 $501 reversed single #
coedge $-1 $423 $502 $416 $460 0 $415 $-1 #
edge $-1 $503 $426 $459 $504 forward #
coedge $-1 $418 $417 $505 $506 1 $278 $-1 #
coedge $-1 $507 $508 $417 $463 0 $487 $-1 #
edge $-1 $509 $466 $462 $510 forward #
edge $-1 $511 $467 $418 $512 forward #
coedge $-1 $419 $493 $507 $513 1 $455 $-1 #
vertex $-1 $513 $514 #
vertex $-1 $447 $515 #
straight-curve $-1 -15 15 10 0 0 -1 I I #
coedge $-1 $497 $516 $421 $470 0 $517 $-1 #
edge $-1 $474 $471 $469 $518 forward #
vertex $-1 $498 $519 #
straight-curve $-1 -12.5 0 0 -1 0 0 I I #
coedge $-1 $502 $423 $516 $520 0 $415 $-1 #
vertex $-1 $520 $521 #
straight-curve $-1 -6.25 0 20 -1 0 0 I I #
point $-1 -15 0 0 #
point $-1 -15 0 20 #
coedge $-1 $429 $522 $428 $479 1 $435 $-1 #
edge $-1 $431 $523 $428 $524 forward #
straight-curve $-1 0 -30 20 1 0 0 I I #
point $-1 40 -30 20 #
face $-1 $458 $517 $17 $-1 $525 reversed single #
loop $-1 $-1 $488 $432 #
plane-surface $-1 0 0 -20 0 0 1 1 0 0 forward_v I I I I #
coedge $-1 $526 $433 $452 $499 0 $435 $-1 #
straight-curve $-1 0 -30 0 -1 0 0 I I #
loop $-1 $-1 $462 $439 #
coedge $-1 $527 $528 $441 $489 0 $483 $-1 #
edge $-1 $491 $523 $441 $529 forward #
coedge $-1 $530 $442 $528 $531 1 $399 $-1 #
vertex $-1 $489 $532 #
straight-curve $-1 40 30 0 0 0 -1 I I #
coedge $-1 $465 $446 $448 $495 1 $455 $-1 #
coedge $-1 $448 $530 $533 $534 1 $399 $-1 #
edge $-1 $535 $449 $448 $536 forward #
point $-1 -15 30 0 #
coedge $-1 $505 $469 $451 $498 0 $517 $-1 #
edge $-1 $471 $511 $497 $537 forward #
edge $-1 $453 $503 $485 $538 forward #
point $-1 -15 -30 0 #
plane-surface $-1 0 30 0 0 -1 0 0 0 -1 forward_v I I I I #
coedge $-1 $459 $473 $526 $539 0 $415 $-1 #
vertex $-1 $460 $540 #
straight-curve $-1 -15 0 20 0 1 0 I I #
coedge $-1 $541 $497 $461 $506 0 $517 $-1 #
edge $-1 $511 $509 $505 $542 forward #
coedge $-1 $533 $462 $465 $513 0 $487 $-1 #
coedge $-1 $462 $533 $541 $543 0 $487 $-1 #
vertex $-1 $506 $544 #
straight-curve $-1 -6.25 15 20 1 0 -0 I I #
vertex $-1 $498 $545 #
straight-curve $-1 -12.5 15 0 1 0 0 I I #
edge $-1 $466 $535 $507 $504 forward #
point $-1 -15 15 20 #
point $-1 -15 15 0 #
coedge $-1 $469 $546 $473 $520 1 $517 $-1 #
loop $-1 $-1 $505 $482 #
straight-curve $-1 -40 0 5 0 0 -1 I I #
point $-1 -40 0 0 #
edge $-1 $474 $547 $516 $548 forward #
point $-1 -40 0 20 #
coedge $-1 $478 $549 $527 $550 1 $435 $-1 #
vertex $-1 $479 $551 #
straight-curve $-1 40 -30 0 0 0 -1 I I #
plane-surface $-1 -40 0 0 1 0 0 0 0 -1 forward_v I I I I #
coedge $-1 $549 $485 $502 $539 1 $435 $-1 #
coedge $-1 $552 $488 $522 $550 0 $483 $-1 #
coedge $-1 $488 $552 $490 $531 0 $483 $-1 #
straight-curve $-1 40 0 -20 0 -1 0 I I #
coedge $-1 $494 $490 $553 $554 1 $399 $-1 #
edge $-1 $555 $491 $490 $556 forward #
point $-1 40 30 -20 #
coedge $-1 $508 $507 $494 $534 0 $487 $-1 #
edge $-1 $535 $557 $494 $456 forward #
vertex $-1 $534 $558 #
straight-curve $-1 -15 30 5 0 0 -1 I I #
straight-curve $-1 -40 3.75 0 0 1 0 I I #
straight-curve $-1 -15 -30 5 -0 0 1 I I #
edge $-1 $547 $503 $526 $480 forward #
point $-1 -15 -30 20 #
coedge $-1 $553 $505 $508 $543 1 $517 $-1 #
straight-curve $-1 -40 15 5 -0 0 1 I I #
edge $-1 $557 $509 $541 $548 forward #
point $-1 -40 15 20 #
point $-1 -40 15 0 #
coedge $-1 $516 $559 $549 $560 1 $517 $-1 #
vertex $-1 $520 $561 #
straight-curve $-1 -40 0 20 0 -1 0 I I #
coedge $-1 $522 $526 $546 $560 0 $435 $-1 #
edge $-1 $523 $562 $522 $563 forward #
point $-1 40 -30 -20 #
coedge $-1 $528 $527 $559 $564 0 $483 $-1 #
coedge $-1 $559 $541 $530 $554 0 $517 $-1 #
edge $-1 $557 $555 $530 $565 forward #
vertex $-1 $531 $566 #
straight-curve $-1 0 30 -20 1 0 0 I I #
vertex $-1 $534 $567 #
point $-1 -15 30 20 #
coedge $-1 $546 $553 $552 $564 1 $517 $-1 #
edge $-1 $547 $562 $546 $568 forward #
point $-1 -40 -30 20 #
vertex $-1 $564 $569 #
straight-curve $-1 0 -30 -20 -1 0 0 I I #
edge $-1 $562 $555 $559 $570 forward #
straight-curve $-1 -40 30 0 0 0 -1 I I #
point $-1 -40 30 -20 #
point $-1 -40 30 20 #
straight-curve $-1 -40 -30 0 0 0 -1 I I #
point $-1 -40 -30 -20 #
straight-curve $-1 -40 0 -20 0 1 0 I I #
End-of-ACIS-data 
