600 0 5 0           
71 GICL ACIS Healer - Source: /gicl/data5/repository/tmp/Fig_3_0.sat - 6 0 18 ACIS 6.0.3 Solaris 24 Sun Apr 14 00:16:22 2002 
1 9.999999999999999547e-07 1.000000000000000036e-10 
body $5 $6 $-1 $-1 #
body $7 $8 $-1 $-1 #
body $9 $10 $-1 $-1 #
body $11 $12 $-1 $-1 #
body $13 $14 $-1 $-1 #
rgb_color-st-attrib $-1 $-1 $-1 $0 0 1 0 #
lump $-1 $-1 $15 $0 #
rgb_color-st-attrib $-1 $-1 $-1 $1 0 1 0 #
lump $-1 $-1 $16 $1 #
rgb_color-st-attrib $-1 $-1 $-1 $2 0 1 0 #
lump $-1 $-1 $17 $2 #
rgb_color-st-attrib $-1 $-1 $-1 $3 0 1 0 #
lump $-1 $-1 $18 $3 #
rgb_color-st-attrib $-1 $-1 $-1 $4 0 1 0 #
lump $-1 $-1 $19 $4 #
shell $-1 $-1 $-1 $20 $-1 $6 #
shell $-1 $-1 $-1 $21 $-1 $8 #
shell $-1 $-1 $-1 $22 $-1 $10 #
shell $-1 $-1 $-1 $23 $-1 $12 #
shell $-1 $-1 $-1 $24 $-1 $14 #
face $-1 $25 $26 $15 $-1 $27 forward single #
face $-1 $28 $29 $16 $-1 $30 forward single #
face $-1 $31 $32 $17 $-1 $33 forward single #
face $-1 $34 $35 $18 $-1 $36 forward single #
face $-1 $37 $38 $19 $-1 $39 forward single #
face $-1 $40 $41 $15 $-1 $42 forward single #
loop $-1 $-1 $43 $20 #
plane-surface $-1 25 15 30 0 -1 0 0 0 -1 forward_v I I I I #
face $-1 $44 $45 $16 $-1 $46 reversed single #
loop $-1 $-1 $47 $21 #
plane-surface $-1 -17.5 0 40 0 0 1 1 0 0 forward_v I I I I #
face $-1 $48 $49 $17 $-1 $50 reversed single #
loop $-1 $-1 $51 $22 #
plane-surface $-1 17.5 0 40 0 0 1 1 0 0 forward_v I I I I #
face $-1 $52 $53 $18 $-1 $54 reversed single #
loop $-1 $-1 $55 $23 #
plane-surface $-1 -25 7.5 40 0 0 1 1 0 0 forward_v I I I I #
face $-1 $56 $57 $19 $-1 $58 reversed single #
loop $-1 $-1 $59 $24 #
plane-surface $-1 25 7.5 40 0 0 1 1 0 0 forward_v I I I I #
face $-1 $60 $61 $15 $-1 $62 forward single #
loop $-1 $-1 $63 $25 #
plane-surface $-1 25 0 30 0 1 0 0 0 1 forward_v I I I I #
coedge $-1 $64 $65 $66 $67 reversed $26 $-1 #
face $-1 $68 $69 $16 $-1 $70 reversed single #
loop $-1 $-1 $71 $28 #
plane-surface $-1 -17.5 0 20 0 0 1 1 0 0 forward_v I I I I #
coedge $-1 $72 $73 $74 $75 forward $29 $-1 #
face $-1 $76 $77 $17 $-1 $78 reversed single #
loop $-1 $-1 $79 $31 #
plane-surface $-1 17.5 0 20 0 0 1 1 0 0 forward_v I I I I #
coedge $-1 $80 $81 $82 $83 forward $32 $-1 #
face $-1 $84 $85 $18 $-1 $86 reversed single #
loop $-1 $-1 $87 $34 #
plane-surface $-1 -25 7.5 20 0 0 1 1 0 0 forward_v I I I I #
coedge $-1 $88 $89 $90 $91 forward $35 $-1 #
face $-1 $92 $93 $19 $-1 $94 reversed single #
loop $-1 $-1 $95 $37 #
plane-surface $-1 25 7.5 20 0 0 1 1 0 0 forward_v I I I I #
coedge $-1 $96 $97 $98 $99 forward $38 $-1 #
face $-1 $100 $101 $15 $-1 $102 forward single #
loop $-1 $-1 $66 $40 #
plane-surface $-1 25 0 30 -1 0 0 0 0 1 forward_v I I I I #
coedge $-1 $103 $104 $105 $106 reversed $41 $-1 #
coedge $-1 $107 $43 $108 $109 forward $26 $-1 #
coedge $-1 $43 $107 $110 $111 reversed $26 $-1 #
coedge $-1 $112 $113 $43 $67 forward $61 $-1 #
edge $-1 $114 -10 $115 10 $66 $116 forward 7 unknown #
face $-1 $117 $118 $16 $-1 $119 reversed single #
loop $-1 $-1 $120 $44 #
plane-surface $-1 -17.5 -30 30 0 1 0 0 0 1 forward_v I I I I #
coedge $-1 $121 $122 $123 $124 forward $45 $-1 #
coedge $-1 $125 $47 $126 $127 forward $29 $-1 #
coedge $-1 $47 $125 $128 $129 forward $29 $-1 #
coedge $-1 $130 $131 $47 $75 reversed $132 $-1 #
edge $-1 $133 -30 $134 30 $74 $135 forward 7 unknown #
face $-1 $136 $137 $17 $-1 $138 reversed single #
loop $-1 $-1 $139 $48 #
plane-surface $-1 17.5 -30 30 0 1 0 0 0 1 forward_v I I I I #
coedge $-1 $140 $141 $142 $143 forward $49 $-1 #
coedge $-1 $144 $51 $145 $146 forward $32 $-1 #
coedge $-1 $51 $144 $147 $148 forward $32 $-1 #
coedge $-1 $149 $150 $51 $83 reversed $151 $-1 #
edge $-1 $152 -30 $153 30 $82 $154 forward 7 unknown #
face $-1 $155 $156 $18 $-1 $157 reversed single #
loop $-1 $-1 $158 $52 #
plane-surface $-1 -25 0 30 0 1 0 0 0 1 forward_v I I I I #
coedge $-1 $159 $160 $161 $162 forward $53 $-1 #
coedge $-1 $163 $55 $164 $165 forward $35 $-1 #
coedge $-1 $55 $163 $166 $167 forward $35 $-1 #
coedge $-1 $168 $169 $55 $91 reversed $170 $-1 #
edge $-1 $171 -7.5 $172 7.5 $90 $173 forward 7 unknown #
face $-1 $174 $175 $19 $-1 $176 reversed single #
loop $-1 $-1 $177 $56 #
plane-surface $-1 25 0 30 0 1 0 0 0 1 forward_v I I I I #
coedge $-1 $178 $179 $180 $181 forward $57 $-1 #
coedge $-1 $182 $59 $183 $184 forward $38 $-1 #
coedge $-1 $59 $182 $185 $186 forward $38 $-1 #
coedge $-1 $187 $188 $59 $99 reversed $189 $-1 #
edge $-1 $190 -7.5 $191 7.5 $98 $192 forward 7 unknown #
face $-1 $193 $194 $15 $-1 $195 forward single #
loop $-1 $-1 $110 $60 #
plane-surface $-1 0 0 40 0 0 1 1 0 0 forward_v I I I I #
coedge $-1 $196 $63 $197 $198 reversed $41 $-1 #
coedge $-1 $63 $196 $199 $200 forward $41 $-1 #
coedge $-1 $201 $202 $63 $106 forward $203 $-1 #
edge $-1 $204 -10 $205 10 $105 $206 forward 7 unknown #
coedge $-1 $65 $64 $207 $208 reversed $26 $-1 #
coedge $-1 $209 $210 $64 $109 reversed $211 $-1 #
edge $-1 $114 0 $212 15 $64 $213 forward 7 unknown #
coedge $-1 $214 $215 $65 $111 forward $101 $-1 #
edge $-1 $115 12.5 $216 27.5 $110 $217 forward 7 unknown #
coedge $-1 $218 $66 $215 $219 reversed $61 $-1 #
coedge $-1 $66 $218 $209 $220 forward $61 $-1 #
vertex $-1 $220 $221 #
vertex $-1 $111 $222 #
straight-curve $-1 25 15 30 0 0 1 I I #
face $-1 $223 $224 $16 $-1 $225 reversed single #
loop $-1 $-1 $226 $68 #
plane-surface $-1 -25 0 30 1 0 0 0 0 -1 forward_v I I I I #
coedge $-1 $227 $128 $228 $229 forward $69 $-1 #
coedge $-1 $230 $71 $227 $231 forward $45 $-1 #
coedge $-1 $71 $230 $232 $233 forward $45 $-1 #
coedge $-1 $131 $130 $71 $124 reversed $132 $-1 #
edge $-1 $234 -30 $235 30 $123 $236 forward 7 unknown #
coedge $-1 $73 $72 $237 $238 forward $29 $-1 #
coedge $-1 $239 $240 $72 $127 reversed $224 $-1 #
edge $-1 $134 -7.5 $241 7.5 $126 $242 forward 7 unknown #
coedge $-1 $120 $243 $73 $129 reversed $69 $-1 #
edge $-1 $244 -7.5 $133 7.5 $128 $245 forward 7 unknown #
coedge $-1 $123 $74 $243 $246 forward $132 $-1 #
coedge $-1 $74 $123 $239 $247 reversed $132 $-1 #
loop $-1 $-1 $130 $223 #
vertex $-1 $75 $248 #
vertex $-1 $75 $249 #
straight-curve $-1 -10 0 40 0 1 0 I I #
face $-1 $250 $251 $17 $-1 $252 reversed single #
loop $-1 $-1 $253 $76 #
plane-surface $-1 10 0 30 1 0 0 0 0 -1 forward_v I I I I #
coedge $-1 $254 $147 $255 $256 forward $77 $-1 #
coedge $-1 $257 $79 $254 $258 forward $49 $-1 #
coedge $-1 $79 $257 $259 $260 forward $49 $-1 #
coedge $-1 $150 $149 $79 $143 reversed $151 $-1 #
edge $-1 $261 -30 $262 30 $142 $263 forward 7 unknown #
coedge $-1 $81 $80 $264 $265 forward $32 $-1 #
coedge $-1 $266 $267 $80 $146 reversed $251 $-1 #
edge $-1 $153 -7.5 $268 7.5 $145 $269 forward 7 unknown #
coedge $-1 $139 $270 $81 $148 reversed $77 $-1 #
edge $-1 $271 -7.5 $152 7.5 $147 $272 forward 7 unknown #
coedge $-1 $142 $82 $270 $273 forward $151 $-1 #
coedge $-1 $82 $142 $266 $274 reversed $151 $-1 #
loop $-1 $-1 $149 $250 #
vertex $-1 $83 $275 #
vertex $-1 $83 $276 #
straight-curve $-1 25 0 40 0 1 0 I I #
face $-1 $277 $278 $18 $-1 $279 reversed single #
loop $-1 $-1 $280 $84 #
plane-surface $-1 -40 7.5 30 1 0 0 0 0 -1 forward_v I I I I #
coedge $-1 $281 $166 $282 $283 forward $85 $-1 #
coedge $-1 $284 $87 $281 $285 forward $53 $-1 #
coedge $-1 $87 $284 $286 $287 forward $53 $-1 #
coedge $-1 $169 $168 $87 $162 reversed $170 $-1 #
edge $-1 $288 -7.5 $289 7.5 $161 $290 forward 7 unknown #
coedge $-1 $89 $88 $291 $292 forward $35 $-1 #
coedge $-1 $293 $294 $88 $165 reversed $278 $-1 #
edge $-1 $172 -15 $295 15 $164 $296 forward 7 unknown #
coedge $-1 $158 $297 $89 $167 reversed $85 $-1 #
edge $-1 $298 -15 $171 15 $166 $299 forward 7 unknown #
coedge $-1 $161 $90 $297 $300 forward $170 $-1 #
coedge $-1 $90 $161 $293 $301 reversed $170 $-1 #
loop $-1 $-1 $168 $277 #
vertex $-1 $91 $302 #
vertex $-1 $91 $303 #
straight-curve $-1 -10 7.5 40 0 1 0 I I #
face $-1 $304 $305 $19 $-1 $306 reversed single #
loop $-1 $-1 $307 $92 #
plane-surface $-1 10 7.5 30 1 0 0 0 0 -1 forward_v I I I I #
coedge $-1 $308 $185 $309 $310 forward $93 $-1 #
coedge $-1 $311 $95 $308 $312 forward $57 $-1 #
coedge $-1 $95 $311 $313 $314 forward $57 $-1 #
coedge $-1 $188 $187 $95 $181 reversed $189 $-1 #
edge $-1 $315 -7.5 $316 7.5 $180 $317 forward 7 unknown #
coedge $-1 $97 $96 $318 $319 forward $38 $-1 #
coedge $-1 $320 $321 $96 $184 reversed $305 $-1 #
edge $-1 $191 -15 $322 15 $183 $323 forward 7 unknown #
coedge $-1 $177 $324 $97 $186 reversed $93 $-1 #
edge $-1 $325 -15 $190 15 $185 $326 forward 7 unknown #
coedge $-1 $180 $98 $324 $327 forward $189 $-1 #
coedge $-1 $98 $180 $320 $328 reversed $189 $-1 #
loop $-1 $-1 $187 $304 #
vertex $-1 $99 $329 #
vertex $-1 $99 $330 #
straight-curve $-1 40 7.5 40 0 1 0 I I #
face $-1 $331 $332 $15 $-1 $333 forward single #
loop $-1 $-1 $334 $100 #
plane-surface $-1 -25 0 30 0 1 0 0 0 1 forward_v I I I I #
coedge $-1 $104 $103 $335 $336 reversed $41 $-1 #
coedge $-1 $337 $338 $103 $198 forward $339 $-1 #
edge $-1 $340 -27.5 $204 -12.5 $197 $341 forward 7 unknown #
coedge $-1 $210 $342 $104 $200 reversed $211 $-1 #
edge $-1 $343 -15 $205 0 $104 $344 forward 7 unknown #
coedge $-1 $345 $105 $342 $346 forward $203 $-1 #
coedge $-1 $105 $345 $337 $347 reversed $203 $-1 #
loop $-1 $-1 $105 $348 #
vertex $-1 $347 $349 #
vertex $-1 $346 $350 #
straight-curve $-1 25 0 30 0 0 -1 I I #
coedge $-1 $351 $352 $107 $208 forward $353 $-1 #
edge $-1 $216 -15 $212 5 $207 $354 forward 7 unknown #
coedge $-1 $355 $108 $113 $220 reversed $211 $-1 #
coedge $-1 $108 $199 $351 $356 reversed $211 $-1 #
loop $-1 $-1 $357 $358 #
vertex $-1 $356 $359 #
straight-curve $-1 25 15 20 1 0 0 I I #
coedge $-1 $360 $110 $352 $361 forward $101 $-1 #
coedge $-1 $110 $360 $112 $219 forward $101 $-1 #
vertex $-1 $361 $362 #
straight-curve $-1 12.5 15 40 1 0 0 I I #
coedge $-1 $113 $112 $363 $364 reversed $61 $-1 #
edge $-1 $365 -30 $115 -15 $215 $366 forward 7 unknown #
edge $-1 $367 -30 $114 -15 $113 $368 forward 7 unknown #
point $-1 25 15 20 #
point $-1 25 15 40 #
face $-1 $-1 $132 $16 $-1 $369 reversed single #
loop $-1 $-1 $239 $117 #
plane-surface $-1 -17.5 30 30 0 -1 0 0 0 -1 forward_v I I I I #
coedge $-1 $370 $237 $240 $371 forward $118 $-1 #
coedge $-1 $243 $120 $121 $231 reversed $69 $-1 #
coedge $-1 $237 $370 $120 $229 reversed $118 $-1 #
edge $-1 $244 -10 $372 10 $228 $373 forward 7 unknown #
coedge $-1 $122 $121 $370 $374 forward $45 $-1 #
edge $-1 $235 -7.5 $372 7.5 $227 $375 forward 7 unknown #
coedge $-1 $240 $239 $122 $233 reversed $224 $-1 #
edge $-1 $376 -7.5 $234 7.5 $232 $377 forward 7 unknown #
vertex $-1 $124 $378 #
vertex $-1 $246 $379 #
straight-curve $-1 -10 0 20 0 -1 0 I I #
coedge $-1 $226 $228 $125 $238 reversed $118 $-1 #
edge $-1 $241 -30 $244 30 $237 $380 forward 7 unknown #
coedge $-1 $232 $126 $131 $247 forward $224 $-1 #
coedge $-1 $126 $232 $226 $371 reversed $224 $-1 #
vertex $-1 $127 $381 #
straight-curve $-1 -17.5 30 40 -1 0 0 I I #
coedge $-1 $128 $227 $130 $246 reversed $69 $-1 #
vertex $-1 $238 $382 #
straight-curve $-1 -17.5 -30 40 1 0 0 I I #
edge $-1 $133 -10 $235 10 $130 $383 forward 7 unknown #
edge $-1 $134 -10 $234 10 $131 $384 forward 7 unknown #
point $-1 -10 -30 40 #
point $-1 -10 30 40 #
face $-1 $-1 $151 $17 $-1 $385 reversed single #
loop $-1 $-1 $266 $136 #
plane-surface $-1 17.5 30 30 0 -1 0 0 0 -1 forward_v I I I I #
coedge $-1 $386 $264 $267 $387 forward $137 $-1 #
coedge $-1 $270 $139 $140 $258 reversed $77 $-1 #
coedge $-1 $264 $386 $139 $256 reversed $137 $-1 #
edge $-1 $271 -10 $388 10 $255 $389 forward 7 unknown #
coedge $-1 $141 $140 $386 $390 forward $49 $-1 #
edge $-1 $262 -7.5 $388 7.5 $254 $391 forward 7 unknown #
coedge $-1 $267 $266 $141 $260 reversed $251 $-1 #
edge $-1 $392 -7.5 $261 7.5 $259 $393 forward 7 unknown #
vertex $-1 $143 $394 #
vertex $-1 $273 $395 #
straight-curve $-1 25 0 20 0 -1 0 I I #
coedge $-1 $253 $255 $144 $265 reversed $137 $-1 #
edge $-1 $268 -30 $271 30 $264 $396 forward 7 unknown #
coedge $-1 $259 $145 $150 $274 forward $251 $-1 #
coedge $-1 $145 $259 $253 $387 reversed $251 $-1 #
vertex $-1 $146 $397 #
straight-curve $-1 17.5 30 40 -1 0 0 I I #
coedge $-1 $147 $254 $149 $273 reversed $77 $-1 #
vertex $-1 $265 $398 #
straight-curve $-1 17.5 -30 40 1 0 0 I I #
edge $-1 $152 -10 $262 10 $149 $399 forward 7 unknown #
edge $-1 $153 -10 $261 10 $150 $400 forward 7 unknown #
point $-1 25 -30 40 #
point $-1 25 30 40 #
face $-1 $-1 $170 $18 $-1 $401 reversed single #
loop $-1 $-1 $293 $155 #
plane-surface $-1 -25 15 30 0 -1 0 0 0 -1 forward_v I I I I #
coedge $-1 $402 $291 $294 $403 forward $156 $-1 #
coedge $-1 $297 $158 $159 $285 reversed $85 $-1 #
coedge $-1 $291 $402 $158 $283 reversed $156 $-1 #
edge $-1 $298 -10 $404 10 $282 $405 forward 7 unknown #
coedge $-1 $160 $159 $402 $406 forward $53 $-1 #
edge $-1 $289 -15 $404 15 $281 $407 forward 7 unknown #
coedge $-1 $294 $293 $160 $287 reversed $278 $-1 #
edge $-1 $408 -15 $288 15 $286 $409 forward 7 unknown #
vertex $-1 $162 $410 #
vertex $-1 $300 $411 #
straight-curve $-1 -10 7.5 20 0 -1 0 I I #
coedge $-1 $280 $282 $163 $292 reversed $156 $-1 #
edge $-1 $295 -7.5 $298 7.5 $291 $412 forward 7 unknown #
coedge $-1 $286 $164 $169 $301 forward $278 $-1 #
coedge $-1 $164 $286 $280 $403 reversed $278 $-1 #
vertex $-1 $165 $413 #
straight-curve $-1 -25 15 40 -1 0 0 I I #
coedge $-1 $166 $281 $168 $300 reversed $85 $-1 #
vertex $-1 $292 $414 #
straight-curve $-1 -25 0 40 1 0 0 I I #
edge $-1 $171 -10 $289 10 $168 $415 forward 7 unknown #
edge $-1 $172 -10 $288 10 $169 $416 forward 7 unknown #
point $-1 -10 0 40 #
point $-1 -10 15 40 #
face $-1 $-1 $189 $19 $-1 $417 reversed single #
loop $-1 $-1 $320 $174 #
plane-surface $-1 25 15 30 0 -1 0 0 0 -1 forward_v I I I I #
coedge $-1 $418 $318 $321 $419 forward $175 $-1 #
coedge $-1 $324 $177 $178 $312 reversed $93 $-1 #
coedge $-1 $318 $418 $177 $310 reversed $175 $-1 #
edge $-1 $325 -10 $420 10 $309 $421 forward 7 unknown #
coedge $-1 $179 $178 $418 $422 forward $57 $-1 #
edge $-1 $316 -15 $420 15 $308 $423 forward 7 unknown #
coedge $-1 $321 $320 $179 $314 reversed $305 $-1 #
edge $-1 $424 -15 $315 15 $313 $425 forward 7 unknown #
vertex $-1 $181 $426 #
vertex $-1 $327 $427 #
straight-curve $-1 40 7.5 20 0 -1 0 I I #
coedge $-1 $307 $309 $182 $319 reversed $175 $-1 #
edge $-1 $322 -7.5 $325 7.5 $318 $428 forward 7 unknown #
coedge $-1 $313 $183 $188 $328 forward $305 $-1 #
coedge $-1 $183 $313 $307 $419 reversed $305 $-1 #
vertex $-1 $184 $429 #
straight-curve $-1 25 15 40 -1 0 0 I I #
coedge $-1 $185 $308 $187 $327 reversed $93 $-1 #
vertex $-1 $319 $430 #
straight-curve $-1 25 0 40 1 0 0 I I #
edge $-1 $190 -10 $316 10 $187 $431 forward 7 unknown #
edge $-1 $191 -10 $315 10 $188 $432 forward 7 unknown #
point $-1 40 0 40 #
point $-1 40 15 40 #
face $-1 $433 $434 $15 $-1 $435 forward single #
loop $-1 $-1 $436 $193 #
plane-surface $-1 -25 15 30 0 -1 0 0 0 -1 forward_v I I I I #
coedge $-1 $437 $438 $439 $440 reversed $194 $-1 #
coedge $-1 $441 $351 $196 $336 forward $353 $-1 #
edge $-1 $343 -5 $340 15 $335 $442 forward 7 unknown #
coedge $-1 $443 $197 $202 $347 forward $339 $-1 #
coedge $-1 $197 $443 $441 $444 forward $339 $-1 #
loop $-1 $-1 $197 $445 #
vertex $-1 $336 $446 #
straight-curve $-1 12.5 0 40 -1 0 0 I I #
coedge $-1 $199 $447 $201 $346 reversed $211 $-1 #
vertex $-1 $356 $448 #
straight-curve $-1 25 0 20 -1 0 0 I I #
coedge $-1 $202 $201 $449 $450 reversed $203 $-1 #
edge $-1 $205 0 $451 30 $201 $368 forward 7 unknown #
edge $-1 $204 0 $452 30 $337 $366 forward 7 unknown #
face $-1 $453 $203 $15 $-1 $62 forward single #
point $-1 25 0 40 #
point $-1 25 0 20 #
coedge $-1 $335 $207 $210 $356 forward $353 $-1 #
coedge $-1 $207 $454 $214 $361 reversed $353 $-1 #
loop $-1 $-1 $335 $455 #
straight-curve $-1 40 15 25 -0 -0 -1 I I #
coedge $-1 $357 $209 $456 $457 reversed $211 $-1 #
edge $-1 $212 -11.25 $343 3.75 $351 $458 forward 7 unknown #
coedge $-1 $447 $355 $459 $460 reversed $211 $-1 #
face $-1 $461 $211 $15 $-1 $462 forward single #
point $-1 40 15 20 #
coedge $-1 $215 $214 $463 $464 forward $101 $-1 #
edge $-1 $216 15 $465 30 $352 $466 forward 7 unknown #
point $-1 40 15 40 #
coedge $-1 $463 $456 $218 $364 forward $467 $-1 #
edge $-1 $367 -5 $365 15 $363 $468 forward 7 unknown #
vertex $-1 $364 $469 #
straight-curve $-1 25 0 40 0 -1 0 I I #
vertex $-1 $457 $470 #
straight-curve $-1 25 0 20 0 -1 0 I I #
plane-surface $-1 -10 0 30 -1 0 0 0 0 1 forward_v I I I I #
coedge $-1 $228 $226 $230 $374 reversed $118 $-1 #
edge $-1 $241 -10 $376 10 $240 $471 forward 7 unknown #
vertex $-1 $374 $472 #
straight-curve $-1 -25 -30 30 0 0 -1 I I #
edge $-1 $372 -30 $376 30 $370 $473 forward 7 unknown #
straight-curve $-1 -17.5 -30 20 -1 0 0 I I #
vertex $-1 $233 $474 #
straight-curve $-1 -17.5 30 20 1 0 0 I I #
point $-1 -10 30 20 #
point $-1 -10 -30 20 #
straight-curve $-1 -25 0 40 0 -1 0 I I #
point $-1 -25 30 40 #
point $-1 -25 -30 40 #
straight-curve $-1 -10 -30 30 0 0 -1 I I #
straight-curve $-1 -10 30 30 0 0 -1 I I #
plane-surface $-1 25 0 30 -1 0 0 0 0 1 forward_v I I I I #
coedge $-1 $255 $253 $257 $390 reversed $137 $-1 #
edge $-1 $268 -10 $392 10 $267 $475 forward 7 unknown #
vertex $-1 $390 $476 #
straight-curve $-1 10 -30 30 0 0 -1 I I #
edge $-1 $388 -30 $392 30 $386 $477 forward 7 unknown #
straight-curve $-1 17.5 -30 20 -1 0 0 I I #
vertex $-1 $260 $478 #
straight-curve $-1 17.5 30 20 1 0 0 I I #
point $-1 25 30 20 #
point $-1 25 -30 20 #
straight-curve $-1 10 0 40 0 -1 0 I I #
point $-1 10 30 40 #
point $-1 10 -30 40 #
straight-curve $-1 25 -30 30 0 0 -1 I I #
straight-curve $-1 25 30 30 0 0 -1 I I #
plane-surface $-1 -10 7.5 30 -1 0 0 0 0 1 forward_v I I I I #
coedge $-1 $282 $280 $284 $406 reversed $156 $-1 #
edge $-1 $295 -10 $408 10 $294 $479 forward 7 unknown #
vertex $-1 $406 $480 #
straight-curve $-1 -40 0 30 0 0 -1 I I #
edge $-1 $404 -7.5 $408 7.5 $402 $481 forward 7 unknown #
straight-curve $-1 -25 0 20 -1 0 0 I I #
vertex $-1 $287 $482 #
straight-curve $-1 -25 15 20 1 0 0 I I #
point $-1 -10 15 20 #
point $-1 -10 0 20 #
straight-curve $-1 -40 7.5 40 0 -1 0 I I #
point $-1 -40 15 40 #
point $-1 -40 0 40 #
straight-curve $-1 -10 0 30 0 0 -1 I I #
straight-curve $-1 -10 15 30 0 0 -1 I I #
plane-surface $-1 40 7.5 30 -1 0 0 0 0 1 forward_v I I I I #
coedge $-1 $309 $307 $311 $422 reversed $175 $-1 #
edge $-1 $322 -10 $424 10 $321 $483 forward 7 unknown #
vertex $-1 $422 $484 #
straight-curve $-1 10 0 30 0 0 -1 I I #
edge $-1 $420 -7.5 $424 7.5 $418 $485 forward 7 unknown #
straight-curve $-1 25 0 20 -1 0 0 I I #
vertex $-1 $314 $486 #
straight-curve $-1 25 15 20 1 0 0 I I #
point $-1 40 15 20 #
point $-1 40 0 20 #
straight-curve $-1 10 7.5 40 0 -1 0 I I #
point $-1 10 15 40 #
point $-1 10 0 40 #
straight-curve $-1 40 0 30 0 0 -1 I I #
straight-curve $-1 40 15 30 0 0 -1 I I #
face $-1 $358 $487 $15 $-1 $102 forward single #
loop $-1 $-1 $439 $331 #
plane-surface $-1 -25 0 30 1 0 0 0 0 -1 forward_v I I I I #
coedge $-1 $488 $489 $490 $491 reversed $332 $-1 #
coedge $-1 $492 $334 $493 $494 forward $194 $-1 #
coedge $-1 $334 $492 $495 $496 reversed $194 $-1 #
coedge $-1 $497 $498 $334 $440 forward $434 $-1 #
edge $-1 $499 -10 $500 10 $439 $501 forward 7 unknown #
coedge $-1 $502 $335 $338 $444 reversed $353 $-1 #
straight-curve $-1 40 0 25 0 0 1 I I #
coedge $-1 $338 $337 $503 $504 forward $339 $-1 #
edge $-1 $505 -30 $340 0 $441 $466 forward 7 unknown #
face $-1 $506 $339 $15 $-1 $102 forward single #
point $-1 40 0 40 #
coedge $-1 $342 $357 $507 $508 reversed $211 $-1 #
point $-1 40 0 20 #
coedge $-1 $507 $503 $345 $450 forward $509 $-1 #
edge $-1 $452 -15 $451 5 $449 $510 forward 7 unknown #
vertex $-1 $508 $511 #
vertex $-1 $504 $512 #
face $-1 $513 $509 $15 $-1 $514 reversed single #
coedge $-1 $352 $515 $516 $517 reversed $353 $-1 #
face $-1 $-1 $353 $15 $-1 $518 reversed single #
coedge $-1 $363 $519 $355 $457 forward $467 $-1 #
edge $-1 $520 1.25 $367 16.25 $456 $521 forward 7 unknown #
straight-curve $-1 40 3.75 20 0 -1 0 I I #
coedge $-1 $522 $523 $357 $460 forward $524 $-1 #
edge $-1 $525 -30 $520 30 $459 $526 forward 7 unknown #
face $-1 $348 $524 $15 $-1 $527 forward single #
plane-surface $-1 17.5 0 20 0 0 1 1 0 0 forward_v I I I I #
coedge $-1 $516 $363 $360 $464 reversed $467 $-1 #
edge $-1 $465 -40 $365 -25 $463 $528 forward 7 unknown #
vertex $-1 $361 $529 #
straight-curve $-1 40 0 40 0 1 0 I I #
loop $-1 $-1 $363 $530 #
straight-curve $-1 25 30 25 0 0 1 I I #
point $-1 25 30 40 #
point $-1 25 30 20 #
straight-curve $-1 -25 30 30 0 0 -1 I I #
point $-1 -25 -30 20 #
straight-curve $-1 -25 0 20 0 1 0 I I #
point $-1 -25 30 20 #
straight-curve $-1 10 30 30 0 0 -1 I I #
point $-1 10 -30 20 #
straight-curve $-1 10 0 20 0 1 0 I I #
point $-1 10 30 20 #
straight-curve $-1 -40 15 30 0 0 -1 I I #
point $-1 -40 0 20 #
straight-curve $-1 -40 7.5 20 0 1 0 I I #
point $-1 -40 15 20 #
straight-curve $-1 10 15 30 0 0 -1 I I #
point $-1 10 0 20 #
straight-curve $-1 10 7.5 20 0 1 0 I I #
point $-1 10 15 20 #
loop $-1 $-1 $495 $433 #
coedge $-1 $531 $436 $532 $533 reversed $332 $-1 #
coedge $-1 $436 $531 $534 $535 forward $332 $-1 #
coedge $-1 $536 $537 $436 $491 forward $538 $-1 #
edge $-1 $539 -10 $540 10 $490 $541 forward 7 unknown #
coedge $-1 $438 $437 $542 $543 reversed $194 $-1 #
coedge $-1 $544 $545 $437 $494 reversed $546 $-1 #
edge $-1 $499 0 $547 15 $437 $548 forward 7 unknown #
coedge $-1 $549 $550 $438 $496 forward $487 $-1 #
edge $-1 $500 12.5 $551 27.5 $495 $552 forward 7 unknown #
coedge $-1 $553 $439 $550 $554 reversed $434 $-1 #
coedge $-1 $439 $553 $544 $555 forward $434 $-1 #
vertex $-1 $555 $556 #
vertex $-1 $496 $557 #
straight-curve $-1 -25 0 30 0 0 1 I I #
coedge $-1 $515 $441 $558 $559 forward $353 $-1 #
coedge $-1 $449 $558 $443 $504 reversed $509 $-1 #
edge $-1 $452 25 $505 40 $503 $560 forward 7 unknown #
vertex $-1 $444 $561 #
face $-1 $562 $563 $15 $-1 $564 reversed single #
coedge $-1 $565 $449 $447 $508 forward $509 $-1 #
edge $-1 $451 -16.25 $525 -1.25 $507 $566 forward 7 unknown #
loop $-1 $-1 $449 $453 #
straight-curve $-1 25 -30 25 0 0 -1 I I #
point $-1 25 -30 20 #
point $-1 25 -30 40 #
face $-1 $567 $568 $15 $-1 $102 forward single #
plane-surface $-1 0 -30 20 0 1 0 0 0 1 forward_v I I I I #
coedge $-1 $454 $502 $569 $570 reversed $353 $-1 #
coedge $-1 $571 $463 $454 $517 forward $467 $-1 #
edge $-1 $465 -20 $572 20 $454 $573 forward 7 unknown #
plane-surface $-1 40 0 20 -1 0 0 0 0 1 forward_v I I I I #
coedge $-1 $456 $574 $522 $575 forward $467 $-1 #
vertex $-1 $457 $576 #
straight-curve $-1 8.75 30 20 1 0 0 I I #
coedge $-1 $577 $459 $519 $575 reversed $524 $-1 #
coedge $-1 $459 $577 $565 $578 reversed $524 $-1 #
loop $-1 $-1 $577 $461 #
vertex $-1 $508 $579 #
straight-curve $-1 10 0 20 0 1 0 I I #
plane-surface $-1 10 0 30 1 0 0 0 0 -1 forward_v I I I I #
straight-curve $-1 0 30 40 -1 0 0 I I #
point $-1 40 30 40 #
face $-1 $455 $467 $15 $-1 $580 reversed single #
coedge $-1 $489 $488 $581 $582 reversed $332 $-1 #
coedge $-1 $583 $584 $488 $533 forward $585 $-1 #
edge $-1 $586 -27.5 $539 -12.5 $532 $587 forward 7 unknown #
coedge $-1 $545 $588 $489 $535 reversed $546 $-1 #
edge $-1 $589 -15 $540 0 $489 $590 forward 7 unknown #
coedge $-1 $591 $490 $588 $592 forward $538 $-1 #
coedge $-1 $490 $591 $583 $593 reversed $538 $-1 #
loop $-1 $-1 $490 $594 #
vertex $-1 $593 $595 #
vertex $-1 $592 $596 #
straight-curve $-1 -25 15 30 0 0 -1 I I #
coedge $-1 $597 $598 $492 $543 forward $599 $-1 #
edge $-1 $551 -15 $547 5 $542 $600 forward 7 unknown #
coedge $-1 $601 $493 $498 $555 reversed $546 $-1 #
coedge $-1 $493 $534 $597 $602 reversed $546 $-1 #
loop $-1 $-1 $603 $567 #
vertex $-1 $602 $604 #
straight-curve $-1 -25 0 20 -1 0 0 I I #
coedge $-1 $605 $495 $598 $606 forward $487 $-1 #
coedge $-1 $495 $605 $497 $554 forward $487 $-1 #
vertex $-1 $606 $607 #
straight-curve $-1 -12.5 0 40 -1 0 0 I I #
coedge $-1 $498 $497 $608 $609 reversed $434 $-1 #
edge $-1 $610 -30 $500 0 $550 $611 forward 7 unknown #
edge $-1 $612 -30 $499 0 $498 $613 forward 7 unknown #
point $-1 -25 0 20 #
point $-1 -25 0 40 #
coedge $-1 $503 $614 $502 $559 reversed $509 $-1 #
edge $-1 $505 -20 $615 20 $502 $616 forward 7 unknown #
straight-curve $-1 0 -30 40 1 0 0 I I #
point $-1 40 -30 40 #
face $-1 $530 $599 $15 $-1 $617 reversed single #
loop $-1 $-1 $569 $506 #
plane-surface $-1 0 0 0 0 0 1 1 0 0 forward_v I I I I #
coedge $-1 $618 $507 $523 $578 forward $509 $-1 #
straight-curve $-1 8.75 -30 20 -1 0 0 I I #
face $-1 $594 $546 $15 $-1 $619 forward single #
loop $-1 $-1 $620 $513 #
coedge $-1 $621 $622 $515 $570 forward $563 $-1 #
edge $-1 $572 -30 $615 30 $515 $623 forward 7 unknown #
coedge $-1 $624 $516 $622 $625 reversed $467 $-1 #
vertex $-1 $570 $626 #
straight-curve $-1 40 30 20 0 0 -1 I I #
coedge $-1 $519 $627 $628 $629 reversed $467 $-1 #
edge $-1 $630 -15 $520 5 $519 $631 forward 7 unknown #
point $-1 10 30 20 #
coedge $-1 $523 $522 $620 $632 reversed $524 $-1 #
edge $-1 $525 -5 $633 15 $565 $634 forward 7 unknown #
point $-1 10 -30 20 #
plane-surface $-1 0 30 20 0 -1 0 0 0 -1 forward_v I I I I #
coedge $-1 $635 $597 $531 $582 forward $599 $-1 #
edge $-1 $589 -5 $586 15 $581 $636 forward 7 unknown #
coedge $-1 $637 $532 $537 $593 forward $585 $-1 #
coedge $-1 $532 $637 $635 $638 forward $585 $-1 #
loop $-1 $-1 $532 $639 #
vertex $-1 $582 $640 #
straight-curve $-1 -12.5 15 40 1 0 0 I I #
coedge $-1 $534 $641 $536 $592 reversed $546 $-1 #
vertex $-1 $602 $642 #
straight-curve $-1 -25 15 20 1 0 0 I I #
coedge $-1 $537 $536 $643 $644 reversed $538 $-1 #
edge $-1 $540 15 $645 30 $536 $613 forward 7 unknown #
edge $-1 $539 15 $646 30 $583 $611 forward 7 unknown #
face $-1 $647 $538 $15 $-1 $435 forward single #
point $-1 -25 15 40 #
point $-1 -25 15 20 #
coedge $-1 $581 $542 $545 $602 forward $599 $-1 #
coedge $-1 $542 $648 $549 $606 reversed $599 $-1 #
loop $-1 $-1 $581 $562 #
straight-curve $-1 -40 0 25 0 0 -1 I I #
coedge $-1 $603 $544 $649 $650 reversed $546 $-1 #
edge $-1 $547 -3.75 $589 11.25 $597 $651 forward 7 unknown #
coedge $-1 $641 $601 $652 $653 reversed $546 $-1 #
point $-1 -40 0 20 #
coedge $-1 $550 $549 $654 $655 forward $487 $-1 #
edge $-1 $551 0 $656 30 $598 $657 forward 7 unknown #
point $-1 -40 0 40 #
coedge $-1 $654 $649 $553 $609 forward $509 $-1 #
edge $-1 $612 -5 $610 15 $608 $658 forward 7 unknown #
vertex $-1 $554 $659 #
straight-curve $-1 -25 0 40 0 1 0 I I #
vertex $-1 $650 $660 #
straight-curve $-1 -25 0 20 0 1 0 I I #
coedge $-1 $558 $661 $621 $662 reversed $509 $-1 #
vertex $-1 $559 $663 #
straight-curve $-1 40 -30 20 0 0 -1 I I #
plane-surface $-1 -40 0 20 1 0 0 0 0 -1 forward_v I I I I #
coedge $-1 $664 $565 $665 $666 reversed $509 $-1 #
plane-surface $-1 -17.5 0 20 0 0 1 1 0 0 forward_v I I I I #
coedge $-1 $628 $665 $577 $632 forward $568 $-1 #
coedge $-1 $667 $569 $614 $662 forward $563 $-1 #
coedge $-1 $569 $667 $571 $625 forward $563 $-1 #
straight-curve $-1 40 0 0 0 -1 0 I I #
coedge $-1 $668 $571 $669 $670 reversed $467 $-1 #
edge $-1 $671 -40 $572 40 $571 $672 forward 7 unknown #
point $-1 40 30 0 #
coedge $-1 $574 $673 $674 $675 forward $467 $-1 #
coedge $-1 $676 $620 $574 $629 forward $568 $-1 #
edge $-1 $630 -10 $677 10 $574 $528 forward 7 unknown #
vertex $-1 $629 $678 #
straight-curve $-1 10 30 25 0 0 -1 I I #
edge $-1 $633 -30 $630 30 $620 $679 forward 7 unknown #
vertex $-1 $632 $680 #
straight-curve $-1 10 -30 25 0 0 1 I I #
coedge $-1 $669 $581 $584 $638 reversed $599 $-1 #
straight-curve $-1 -40 15 25 0 0 1 I I #
coedge $-1 $584 $583 $668 $681 forward $585 $-1 #
edge $-1 $682 -30 $586 -15 $635 $657 forward 7 unknown #
face $-1 $445 $585 $15 $-1 $102 forward single #
point $-1 -40 15 40 #
coedge $-1 $588 $603 $673 $683 reversed $546 $-1 #
point $-1 -40 15 20 #
coedge $-1 $673 $668 $591 $644 forward $467 $-1 #
edge $-1 $646 -15 $645 5 $643 $684 forward 7 unknown #
vertex $-1 $683 $685 #
vertex $-1 $681 $686 #
face $-1 $639 $687 $15 $-1 $688 forward single #
coedge $-1 $598 $689 $661 $690 reversed $599 $-1 #
coedge $-1 $608 $664 $601 $650 forward $509 $-1 #
edge $-1 $691 1.25 $612 16.25 $649 $692 forward 7 unknown #
straight-curve $-1 -40 3.75 20 0 1 0 I I #
coedge $-1 $693 $674 $603 $653 forward $687 $-1 #
edge $-1 $694 -30 $691 30 $652 $695 forward 7 unknown #
coedge $-1 $661 $608 $605 $655 reversed $509 $-1 #
edge $-1 $656 -40 $610 -25 $654 $560 forward 7 unknown #
vertex $-1 $606 $696 #
straight-curve $-1 -40 0 40 0 -1 0 I I #
straight-curve $-1 -25 -30 25 0 0 1 I I #
point $-1 -25 -30 40 #
point $-1 -25 -30 20 #
coedge $-1 $614 $654 $648 $690 forward $509 $-1 #
edge $-1 $615 -40 $697 40 $614 $698 forward 7 unknown #
point $-1 40 -30 0 #
coedge $-1 $649 $618 $693 $699 forward $509 $-1 #
coedge $-1 $620 $676 $618 $666 forward $568 $-1 #
edge $-1 $700 -10 $633 10 $618 $560 forward 7 unknown #
coedge $-1 $622 $621 $689 $701 forward $563 $-1 #
coedge $-1 $643 $624 $637 $681 reversed $467 $-1 #
coedge $-1 $689 $635 $624 $670 forward $599 $-1 #
edge $-1 $682 -20 $671 20 $624 $702 forward 7 unknown #
vertex $-1 $625 $703 #
straight-curve $-1 0 30 0 1 0 0 I I #
coedge $-1 $627 $643 $641 $683 forward $467 $-1 #
coedge $-1 $652 $704 $627 $675 reversed $687 $-1 #
edge $-1 $694 -5 $677 15 $627 $705 forward 7 unknown #
coedge $-1 $665 $628 $704 $706 forward $568 $-1 #
vertex $-1 $675 $707 #
point $-1 10 30 40 #
straight-curve $-1 10 0 40 0 1 0 I I #
point $-1 10 -30 40 #
edge $-1 $646 25 $682 40 $668 $528 forward 7 unknown #
vertex $-1 $681 $708 #
edge $-1 $645 -16.25 $694 -1.25 $673 $709 forward 7 unknown #
straight-curve $-1 -25 30 25 0 0 -1 I I #
point $-1 -25 30 20 #
point $-1 -25 30 40 #
loop $-1 $-1 $704 $647 #
plane-surface $-1 -10 0 30 -1 0 0 0 0 1 forward_v I I I I #
coedge $-1 $648 $669 $667 $701 reversed $599 $-1 #
edge $-1 $656 -20 $697 20 $648 $710 forward 7 unknown #
vertex $-1 $650 $711 #
straight-curve $-1 -8.75 -30 20 -1 0 0 I I #
coedge $-1 $704 $652 $664 $699 reversed $687 $-1 #
vertex $-1 $683 $712 #
straight-curve $-1 -10 0 20 0 -1 0 I I #
point $-1 -40 -30 40 #
vertex $-1 $701 $713 #
straight-curve $-1 0 -30 0 -1 0 0 I I #
edge $-1 $700 -15 $691 5 $664 $714 forward 7 unknown #
vertex $-1 $666 $715 #
edge $-1 $697 -30 $671 30 $689 $716 forward 7 unknown #
straight-curve $-1 -40 30 20 0 0 -1 I I #
point $-1 -40 30 0 #
coedge $-1 $674 $693 $676 $706 reversed $687 $-1 #
straight-curve $-1 -10 30 25 0 0 1 I I #
edge $-1 $677 -30 $700 30 $676 $717 forward 7 unknown #
point $-1 -10 30 40 #
point $-1 -40 30 40 #
straight-curve $-1 -8.75 30 20 1 0 0 I I #
straight-curve $-1 -40 -30 20 0 0 -1 I I #
point $-1 -10 -30 20 #
point $-1 -10 30 20 #
point $-1 -40 -30 0 #
straight-curve $-1 -10 -30 25 0 0 -1 I I #
point $-1 -10 -30 40 #
straight-curve $-1 -40 0 0 0 1 0 I I #
straight-curve $-1 -10 0 40 0 -1 0 I I #
End-of-ACIS-data 