106 0 1 0           
body $-1 $1 $-1 $2 #
lump $-1 $-1 $3 $0 #
transform $-1 0 1 0 0 0 1 1 0 0 -12.7819 -6.1613000000000007 -10 1 1 0 0 #
shell $-1 $-1 $-1 $4 $1 #
face $-1 $5 $6 $3 $-1 $7 reversed single #
face $-1 $8 $9 $3 $-1 $10 reversed single #
loop $-1 $11 $12 $4 #
cone-surface $-1 0.033829294506589669 -7.8856403150520684 1.8715248658465011 0.0040679695398452469 0.60410276712798083 -0.79689603987731017 -1.4999804563884007 0 -0.0076570524906744777 1 I I 0 1 0 I I I I #
face $-1 $13 $14 $3 $-1 $15 reversed single #
loop $-1 $-1 $16 $5 #
plane-surface $-1 0.048067187896048032 -5.7712806301041351 -0.91761127372408424 0.0040679695398452469 0.60410276712798083 -0.79689603987731017 -0.99998697092560052 0 -0.0051047016604496521 0 I I I I #
loop $-1 $-1 $17 $4 #
coedge $-1 $18 $18 $19 $20 1 $6 $-1 #
face $-1 $21 $22 $3 $-1 $23 reversed single #
loop $-1 $-1 $24 $8 #
plane-surface $-1 0 -10 0 0 1 0 0 0 1 0 I I I I #
coedge $-1 $16 $16 $17 $25 1 $9 $-1 #
coedge $-1 $17 $17 $16 $25 0 $11 $-1 #
coedge $-1 $12 $12 $24 $26 1 $6 $-1 #
coedge $-1 $27 $28 $12 $20 0 $29 $-1 #
edge $-1 $30 $31 $19 $32 0 #
face $-1 $33 $34 $3 $-1 $35 reversed single #
loop $-1 $36 $37 $13 #
cone-surface $-1 1.925298068383956 -4.0864000003865399 0.26840193200258478 -0.70710678118654746 0 0.70710678118654757 0.53033008588991082 0 0.53033008588991071 1 I I -0.85716730070211233 0.51503807491005416 0 I I I I #
coedge $-1 $38 $39 $18 $26 0 $14 $-1 #
edge $-1 $40 $40 $16 $41 0 #
edge $-1 $31 $30 $24 $42 0 #
coedge $-1 $43 $19 $39 $44 0 $29 $-1 #
coedge $-1 $19 $45 $38 $46 0 $29 $-1 #
loop $-1 $-1 $19 $47 #
vertex $-1 $20 $48 #
vertex $-1 $44 $49 #
ellipse-curve $-1 0.017859154218454871 -10.257242620572599 5 0 0 -1 -0.012674960404622616 -1.8822605672611452 -7.3290882978442222e-021 0.79689603987730995 I I #
face $-1 $50 $51 $3 $-1 $52 reversed single #
loop $-1 $53 $54 $21 #
cone-surface $-1 4.7188262662336236 -4.0864000003865399 -2.5251262658470832 -0.70710678118654746 0 0.70710678118654757 1.0606601717798216 0 1.0606601717798214 1 I I 0 1 0 I I I I #
loop $-1 $-1 $55 $13 #
coedge $-1 $37 $37 $56 $57 1 $22 $-1 #
coedge $-1 $58 $24 $28 $46 1 $14 $-1 #
coedge $-1 $24 $59 $27 $44 1 $14 $-1 #
vertex $-1 $25 $60 #
ellipse-curve $-1 0.048067187896048032 -5.7712806301041351 -0.91761127372408424 0.0040679695398452469 0.60410276712798083 -0.79689603987731017 -1.4999804563884007 0 -0.0076570524906744777 1 I I #
ellipse-curve $-1 0.019591401117131313 -10 4.6606610054170847 0 1 0 -0.012675082630522552 0 2.4829888853507369 0.60410276712798083 I I #
coedge $-1 $61 $27 $62 $63 0 $29 $-1 #
edge $-1 $31 $64 $39 $65 0 #
coedge $-1 $28 $61 $66 $67 0 $29 $-1 #
edge $-1 $68 $30 $38 $65 0 #
face $-1 $-1 $29 $3 $-1 $69 forward single #
point $-1 -1.4674469707776927 -10 5 #
point $-1 1.5044296330349505 -10 5 #
face $-1 $70 $71 $3 $-1 $72 reversed single #
loop $-1 $-1 $73 $33 #
plane-surface $-1 0 0 -5 0 0 1 1 0 0 0 I I I I #
loop $-1 $-1 $56 $21 #
coedge $-1 $74 $74 $75 $76 1 $34 $-1 #
coedge $-1 $55 $55 $-1 $77 0 $36 $-1 #
coedge $-1 $56 $56 $37 $57 0 $53 $-1 #
edge $-1 $78 $78 $56 $79 0 #
coedge $-1 $80 $38 $81 $82 0 $14 $-1 #
coedge $-1 $39 $80 $83 $84 1 $14 $-1 #
point $-1 -1.4519132684923526 -5.7712806301041351 -0.92526832621475874 #
coedge $-1 $45 $43 $85 $86 0 $29 $-1 #
coedge $-1 $83 $87 $43 $63 1 $88 $-1 #
edge $-1 $64 $89 $62 $90 0 #
vertex $-1 $63 $91 #
straight-curve $-1 0 -10 5 1 0 0 I I #
coedge $-1 $92 $81 $45 $67 1 $93 $-1 #
edge $-1 $94 $68 $66 $95 0 #
vertex $-1 $67 $96 #
plane-surface $-1 0 0 5 0 0 1 1 0 0 0 I I I I #
face $-1 $97 $98 $3 $-1 $99 reversed single #
loop $-1 $100 $101 $50 #
cone-surface $-1 3.4667859900607461 3.396233910655206 -0.80490492760776777 0 -0.86871401015345862 0.49531401006139197 0.75 0 0 1 I I -0.85716730070211233 0.51503807491005416 0 I I I I #
coedge $-1 $102 $103 $74 $104 0 $51 $-1 #
coedge $-1 $54 $54 $73 $104 1 $34 $-1 #
coedge $-1 $105 $106 $54 $76 0 $107 $-1 #
edge $-1 $108 $109 $75 $110 0 #
edge $-1 $111 $111 $55 $-1 0 #
vertex $-1 $57 $112 #
ellipse-curve $-1 2.2439525320807072 -4.0864000003865399 -0.050252531694166436 -0.70710678118654746 0 0.70710678118654757 1.0606601717798216 0 1.0606601717798214 1 I I #
coedge $-1 $59 $58 $113 $114 1 $14 $-1 #
coedge $-1 $66 $115 $58 $82 1 $93 $-1 #
edge $-1 $68 $116 $81 $117 0 #
coedge $-1 $118 $62 $59 $84 0 $88 $-1 #
edge $-1 $64 $119 $83 $120 0 #
coedge $-1 $121 $122 $61 $86 1 $123 $-1 #
edge $-1 $89 $94 $85 $124 0 #
coedge $-1 $62 $118 $121 $125 1 $88 $-1 #
loop $-1 $-1 $118 $126 #
vertex $-1 $63 $127 #
straight-curve $-1 10 0 5 0 1 0 I I #
point $-1 10 -10 5 #
coedge $-1 $128 $66 $122 $129 0 $93 $-1 #
loop $-1 $130 $131 $132 #
vertex $-1 $86 $133 #
straight-curve $-1 -10 0 5 0 -1 0 I I #
point $-1 -10 -10 5 #
face $-1 $134 $123 $3 $-1 $135 reversed single #
loop $-1 $136 $137 $70 #
cone-surface $-1 3.4667859900607461 6.8282149746163521 -2.7617149748465231 0 -0.86871401015345862 0.49531401006139197 1.5 0 0 1 I I 0 1 0 I I I I #
loop $-1 $-1 $138 $50 #
coedge $-1 $101 $101 $139 $140 1 $71 $-1 #
coedge $-1 $141 $73 $106 $142 1 $51 $-1 #
coedge $-1 $73 $143 $105 $144 1 $51 $-1 #
edge $-1 $109 $108 $73 $145 0 #
coedge $-1 $146 $75 $103 $144 0 $107 $-1 #
coedge $-1 $75 $147 $102 $142 0 $107 $-1 #
loop $-1 $-1 $75 $148 #
vertex $-1 $76 $149 #
vertex $-1 $144 $150 #
intcurve-curve $-1 0 { surfintcur nubs 3 open 7 
	0.85023908899534073 3 1.0031769441833349 2 1.330978009161478 2 1.6587790741396211 2 1.9865801391177642 2 
	2.3143812040959073 2 2.4673190592839012 3 
	9 -4.8729368117934877 -5 
	9.0365030996544231 -4.8310217050016453 -5 
	9.0692123275456318 -4.7862016192595522 -4.9979726682702958 
	9.1543117955325446 -4.650668624778131 -4.9897406106113991 
	9.2015910007231838 -4.5418273758884444 -4.9799679242163597 
	9.2623670563173874 -4.3143014686022481 -4.9654736506760164 
	9.2761382651745699 -4.1956670220459209 -4.9611179212283885 
	9.2761382651745699 -3.977132978727159 -4.9611179212283885 
	9.2623670563173874 -3.8584985321708336 -4.9654736506760164 
	9.2015910007231838 -3.6309726248846368 -4.9799679242163597 
	9.1543117955325446 -3.5221313759949489 -4.9897406106113991 
	9.06921232754563 -3.3865983815135281 -4.997972668270295 
	9.0365030996544249 -3.341778295771435 -5 
	9 -3.2998631889795917 -5 
	0.001 
	cone 4.7188262662336236 -4.0864000003865399 -2.5251262658470832 -0.70710678118654746 0 0.70710678118654757 1.0606601717798216 0 1.0606601717798214 1 I I 0 1 0 I I I I 
	cone 9 0 -4 0 -1 0 0.70710678118654746 0 -0.70710678118654746 1 I I 0 1 0 I I I I 
	nullbs 
	nullbs 
	} I I #
vertex $-1 $77 $151 #
point $-1 3.3046127038605286 -4.0864000003865399 1.0104076400856554 #
coedge $-1 $152 $153 $80 $114 0 $154 $-1 #
edge $-1 $119 $116 $80 $155 0 #
coedge $-1 $81 $131 $156 $157 1 $93 $-1 #
vertex $-1 $157 $158 #
straight-curve $-1 -10 -10 0 0 0 -1 I I #
coedge $-1 $87 $83 $159 $160 1 $88 $-1 #
vertex $-1 $160 $161 #
straight-curve $-1 10 -10 0 0 0 -1 I I #
coedge $-1 $162 $85 $87 $125 0 $123 $-1 #
coedge $-1 $85 $163 $92 $129 1 $123 $-1 #
loop $-1 $164 $165 $97 #
straight-curve $-1 0 10 5 -1 0 0 I I #
edge $-1 $89 $166 $87 $167 0 #
face $-1 $47 $88 $3 $-1 $168 reversed single #
point $-1 10 10 5 #
coedge $-1 $131 $92 $169 $170 1 $93 $-1 #
edge $-1 $94 $171 $122 $172 0 #
loop $-1 $173 $174 $132 #
coedge $-1 $115 $128 $175 $176 0 $93 $-1 #
face $-1 $177 $93 $3 $-1 $178 reversed single #
point $-1 -10 10 5 #
face $-1 $179 $180 $3 $-1 $181 forward single #
plane-surface $-1 0 10 0 0 -1 0 0 0 -1 0 I I I I #
loop $-1 $-1 $139 $70 #
coedge $-1 $182 $183 $184 $185 1 $98 $-1 #
coedge $-1 $138 $138 $-1 $186 0 $100 $-1 #
coedge $-1 $139 $139 $101 $140 0 $136 $-1 #
edge $-1 $187 $187 $139 $188 0 #
coedge $-1 $189 $102 $190 $191 1 $51 $-1 #
edge $-1 $192 $108 $102 $193 0 #
coedge $-1 $103 $194 $195 $196 1 $51 $-1 #
edge $-1 $109 $197 $103 $193 0 #
ellipse-curve $-1 7.1937000003865403 -4.0864000003865399 -5 0 0 1 2.1213203435596428 0 0 0.70710678118654768 I I #
coedge $-1 $159 $105 $198 $199 0 $107 $-1 #
coedge $-1 $106 $159 $153 $200 1 $107 $-1 #
face $-1 $126 $107 $3 $-1 $201 forward single #
point $-1 9 -4.8729368117934877 -5 #
point $-1 9 -3.2998631889795917 -5 #
point $-1 1.6066436046872048 -4.0864000003865399 0.58705639569933599 #
coedge $-1 $190 $113 $202 $203 1 $154 $-1 #
coedge $-1 $113 $190 $147 $200 0 $154 $-1 #
loop $-1 $-1 $190 $204 #
straight-curve $-1 0 -10 -4 -1 0 0 F -13.1 F 13.1 #
coedge $-1 $205 $202 $115 $157 0 $206 $-1 #
edge $-1 $116 $207 $115 $208 0 #
point $-1 -10 -10 -4 #
coedge $-1 $147 $146 $118 $160 0 $107 $-1 #
edge $-1 $166 $119 $118 $209 0 #
point $-1 10 -10 -4 #
coedge $-1 $165 $121 $210 $211 1 $123 $-1 #
coedge $-1 $122 $165 $212 $213 1 $123 $-1 #
loop $-1 $-1 $214 $97 #
coedge $-1 $163 $162 $182 $215 0 $123 $-1 #
vertex $-1 $211 $216 #
straight-curve $-1 10 10 0 0 0 -1 I I #
plane-surface $-1 10 0 0 -1 0 0 0 0 1 0 I I I I #
coedge $-1 $217 $218 $128 $170 0 $219 $-1 #
edge $-1 $220 $171 $128 $208 0 #
vertex $-1 $213 $221 #
straight-curve $-1 -10 10 0 0 0 -1 I I #
loop $-1 $-1 $222 $132 #
coedge $-1 $174 $174 $223 $224 0 $130 $-1 #
coedge $-1 $225 $226 $131 $176 1 $227 $-1 #
edge $-1 $220 $207 $131 $228 0 #
face $-1 $229 $206 $3 $-1 $230 forward single #
plane-surface $-1 -10 0 0 1 0 0 0 0 -1 0 I I I I #
face $-1 $231 $232 $3 $-1 $181 forward single #
loop $-1 $-1 $184 $134 #
cone-surface $-1 0 9 -4 1 0 0 0 0.70710678118654746 -0.70710678118654746 1 I I 0 1 0 I I I I #
coedge $-1 $233 $137 $165 $215 1 $98 $-1 #
coedge $-1 $137 $233 $194 $234 1 $98 $-1 #
coedge $-1 $235 $212 $137 $185 0 $180 $-1 #
edge $-1 $236 $237 $184 $238 0 #
edge $-1 $239 $239 $138 $-1 0 #
vertex $-1 $140 $240 #
ellipse-curve $-1 3.4667859900607461 3.7877159390792468 -1.0281159396316513 0 -0.86871401015345862 0.49531401006139197 1.5 0 0 1 I I #
coedge $-1 $241 $141 $242 $243 1 $51 $-1 #
coedge $-1 $153 $152 $141 $191 0 $154 $-1 #
edge $-1 $244 $192 $141 $245 0 #
vertex $-1 $191 $246 #
straight-curve $-1 9 0 -5 0 1 0 F -13.1 F 13.1 #
coedge $-1 $143 $247 $183 $234 0 $51 $-1 #
coedge $-1 $248 $198 $143 $196 0 $232 $-1 #
edge $-1 $197 $249 $143 $250 0 #
vertex $-1 $196 $251 #
coedge $-1 $195 $210 $146 $199 1 $232 $-1 #
edge $-1 $197 $166 $146 $252 0 #
edge $-1 $192 $119 $153 $253 0 #
cone-surface $-1 9 0 -4 0 -1 0 0.70710678118654746 0 -0.70710678118654746 1 I I 0 1 0 I I I I #
coedge $-1 $156 $242 $152 $203 0 $206 $-1 #
edge $-1 $244 $116 $202 $254 0 #
face $-1 $148 $154 $3 $-1 $255 forward single #
coedge $-1 $242 $156 $226 $256 0 $206 $-1 #
loop $-1 $-1 $205 $177 #
vertex $-1 $256 $257 #
straight-curve $-1 -10 0 -4 0 1 0 F -13.1 F 13.1 #
straight-curve $-1 10 0 -4 0 -1 0 F -13.1 F 13.1 #
coedge $-1 $198 $248 $162 $211 0 $232 $-1 #
edge $-1 $258 $166 $162 $259 0 #
coedge $-1 $184 $260 $163 $213 0 $180 $-1 #
edge $-1 $171 $236 $163 $259 0 #
coedge $-1 $214 $214 $261 $262 0 $164 $-1 #
edge $-1 $258 $236 $165 $263 0 #
point $-1 10 10 -4 #
coedge $-1 $264 $169 $260 $265 1 $219 $-1 #
coedge $-1 $169 $264 $225 $266 0 $219 $-1 #
loop $-1 $-1 $218 $229 #
vertex $-1 $170 $267 #
point $-1 -10 10 -4 #
coedge $-1 $222 $222 $268 $269 0 $173 $-1 #
coedge $-1 $223 $223 $174 $224 1 $270 $-1 #
edge $-1 $271 $271 $174 $272 0 #
coedge $-1 $273 $175 $218 $266 1 $227 $-1 #
coedge $-1 $175 $273 $205 $256 1 $227 $-1 #
loop $-1 $274 $226 $231 #
ellipse-curve $-1 -10 -5.744585083693261 -4.5437755323666487 1 0 0 0 0 -1.7074268993434016 0.87851491655474767 I I #
face $-1 $275 $219 $3 $-1 $230 forward single #
cone-surface $-1 -9 0 -4 0 1 0 -0.70710678118654746 0 -0.70710678118654746 1 I I 0 1 0 I I I I #
face $-1 $276 $227 $3 $-1 $277 reversed single #
loop $-1 $-1 $248 $179 #
coedge $-1 $183 $182 $248 $278 1 $98 $-1 #
edge $-1 $237 $249 $194 $279 0 #
coedge $-1 $260 $184 $247 $280 0 $180 $-1 #
vertex $-1 $185 $281 #
vertex $-1 $280 $282 #
intcurve-curve $-1 0 { surfintcur nubs 3 open 6 
	1.0623319095478556 3 1.1792417088826359 2 1.5694287138326761 2 1.9596157187827146 2 2.3498027237327528 2 
	2.6254525344500044 3 
	2.0509244038042009 10 -4 
	2.0389684963498294 10 -4.039341046280394 
	2.0278924764632476 9.9976683217775584 -4.0790569419293012 
	1.9851075349419447 9.9771289913808108 -4.2509047162758442 
	1.9667859900607463 9.9331357068520063 -4.3823270374680865 
	1.9667859900607458 9.8042923134549085 -4.608300982654697 
	1.9851075349419436 9.7136009002335832 -4.7130974671334638 
	2.0509495124424872 9.5021149774009395 -4.8749941249566753 
	2.0979263550066083 9.3813784770034445 -4.9323905522296903 
	2.1763959762602743 9.1811347728289334 -4.9872068742180176 
	2.211794852374251 9.091372955007694 -5 
	2.2439466839525792 9 -5 
	0.001 
	cone 0 9 -4 1 0 0 0 0.70710678118654746 -0.70710678118654746 1 I I 0 1 0 I I I I 
	cone 3.4667859900607461 6.8282149746163521 -2.7617149748465231 0 -0.86871401015345862 0.49531401006139197 1.5 0 0 1 I I 0 -1 0 I I I I 
	nullbs 
	nullbs 
	} I I #
vertex $-1 $186 $283 #
point $-1 4.9667859900607461 3.7877159390792468 -1.0281159396316513 #
coedge $-1 $284 $189 $273 $285 0 $51 $-1 #
coedge $-1 $202 $205 $189 $243 0 $206 $-1 #
edge $-1 $286 $244 $189 $287 0 #
vertex $-1 $243 $288 #
straight-curve $-1 0 -9 -5 1 0 0 F -13.1 F 13.1 #
point $-1 9 -9 -5 #
coedge $-1 $194 $284 $235 $280 1 $51 $-1 #
coedge $-1 $210 $195 $233 $278 0 $232 $-1 #
vertex $-1 $234 $289 #
straight-curve $-1 0 9 -5 -1 0 0 F -13.1 F 13.1 #
point $-1 9 9 -5 #
ellipse-curve $-1 9 9 -4 0.70710678118654746 -0.70710678118654746 0 0.99999999999999989 0.99999999999999989 -1.1102230246251565e-016 0.70710678118654746 I I #
ellipse-curve $-1 9 -9 -4 -0.70710678118654746 -0.70710678118654746 0 0.99999999999999989 -0.99999999999999989 -1.1102230246251565e-016 0.70710678118654746 I I #
ellipse-curve $-1 -9 -9 -4 -0.70710678118654746 0.70710678118654746 0 -0.99999999999999989 -0.99999999999999989 -1.1102230246251565e-016 0.70710678118654746 I I #
cone-surface $-1 0 -9 -4 -1 0 0 0 -0.70710678118654746 -0.70710678118654746 1 I I 0 1 0 I I I I #
edge $-1 $207 $286 $205 $290 0 #
point $-1 -10 -7.1664811623886049 -4 #
vertex $-1 $211 $291 #
straight-curve $-1 0 10 -4 1 0 0 F -13.1 F 13.1 #
coedge $-1 $212 $235 $217 $265 0 $180 $-1 #
coedge $-1 $261 $261 $214 $262 1 $292 $-1 #
edge $-1 $293 $293 $214 $294 0 #
ellipse-curve $-1 3.4667859900607461 10 -4.5701692435855819 0 -1 0 0 0 1.7266902369112529 0.86871401015345862 I I #
coedge $-1 $218 $217 $284 $295 0 $219 $-1 #
edge $-1 $296 $171 $260 $297 0 #
edge $-1 $298 $220 $218 $299 0 #
point $-1 -10 -4.3226890049979172 -4 #
coedge $-1 $268 $268 $222 $269 1 $300 $-1 #
edge $-1 $301 $301 $222 $302 0 #
loop $-1 $303 $223 $304 #
vertex $-1 $224 $305 #
ellipse-curve $-1 -10 2.3531999998263986 0.85740000017359819 1 0 0 0 0 -1.5 1 I I #
coedge $-1 $226 $225 $241 $285 1 $227 $-1 #
loop $-1 $-1 $306 $231 #
face $-1 $307 $300 $3 $-1 $308 reversed single #
face $-1 $132 $309 $3 $-1 $310 reversed single #
cone-surface $-1 -6.8037127086131282 -5.744585083693261 -2.8057127088959994 0.87851491655474778 0 0.47771491644159975 0.71657237466239965 0 -1.3177723748321217 1 I I 0 1 0 I I I I #
edge $-1 $249 $258 $248 $311 0 #
ellipse-curve $-1 3.4667859900607461 10.753865209760132 -5 0 0 1 0 3.0283819345511378 0 0.49531401006139197 I I #
edge $-1 $237 $296 $247 $250 0 #
point $-1 2.0509244038042009 10 -4 #
point $-1 2.2439466839525792 9 -5 #
point $-1 3.4667859900607461 3.0047518822311652 -0.58169391558388428 #
coedge $-1 $247 $241 $264 $295 1 $51 $-1 #
edge $-1 $286 $298 $241 $312 0 #
vertex $-1 $243 $313 #
straight-curve $-1 -9 0 -5 0 -1 0 F -13.1 F 13.1 #
point $-1 -9 -9 -5 #
point $-1 4.6896252961689129 9 -5 #
intcurve-curve $-1 0 { surfintcur nubs 3 open 6 
	1.082252221985972 3 1.1792417088826348 2 1.5694287138326741 2 1.9596157187827146 2 2.349802723732755 2 
	2.6456814980977965 3 
	-10 -7.1664811623886049 -4 
	-10 -7.1761437511485111 -4.0327373416536192 
	-9.998387650450562 -7.1851593205679505 -4.0657103522142215 
	-9.9819847389722138 -7.226263538812062 -4.2311713971753733 
	-9.9406476340435184 -7.244585083693261 -4.3634532150767882 
	-9.8163821990659805 -7.244585083693261 -4.5919766178064094 
	-9.727820113128482 -7.2262635388120637 -4.6985786465187607 
	-9.5196382007444278 -7.1604215613115185 -4.8647024398983367 
	-9.4000823392161585 -7.113444718747397 -4.9245192299005911 
	-9.1949345577556052 -7.0325910912651093 -4.9851455550500265 
	-9.0983273606192867 -6.9943432683578735 -5 
	-9 -6.9604023155956574 -5 
	0.001 
	cone -9 0 -4 0 1 0 -0.70710678118654746 0 -0.70710678118654746 1 I I 0 1 0 I I I I 
	cone -6.8037127086131282 -5.744585083693261 -2.8057127088959994 0.87851491655474778 0 0.47771491644159975 0.71657237466239965 0 -1.3177723748321217 1 I I 0 -1 0 I I I I 
	nullbs 
	nullbs 
	} I I #
point $-1 4.8826475763172912 10 -4 #
loop $-1 $314 $261 $315 #
vertex $-1 $262 $316 #
ellipse-curve $-1 0.053400000201472508 10 0.77730000020147116 0 -1 0 0 0 -1.5 1 I I #
edge $-1 $296 $298 $284 $287 0 #
vertex $-1 $280 $317 #
ellipse-curve $-1 -9 9 -4 0.70710678118654746 0.70710678118654746 0 -0.99999999999999989 0.99999999999999989 -1.1102230246251565e-016 0.70710678118654746 I I #
vertex $-1 $285 $318 #
intcurve-curve $-1 0 { surfintcur nubs 3 open 6 
	3.6320333572329 3 3.9279121315979424 2 4.3180991365479828 2 4.7082861414980233 2 5.0984731464480628 2 
	5.195462633344726 3 
	-9 -4.5287678517908647 -5 
	-9.0983273606192849 -4.4948268990286486 -5 
	-9.1949345577556052 -4.4565790761214128 -4.9851455550500274 
	-9.4000823392161585 -4.375725448639125 -4.9245192299005911 
	-9.5196382007444278 -4.3287486060750036 -4.8647024398983367 
	-9.727820113128482 -4.2629066285744583 -4.6985786465187607 
	-9.8163821990659805 -4.244585083693261 -4.5919766178064094 
	-9.9406476340435184 -4.244585083693261 -4.3634532150767882 
	-9.9819847389722138 -4.2629066285744601 -4.2311713971753733 
	-9.998387650450562 -4.3040108468185716 -4.0657103522142215 
	-10 -4.3130264162380101 -4.0327373416536201 
	-10 -4.3226890049979172 -4 
	0.001 
	cone -9 0 -4 0 1 0 -0.70710678118654746 0 -0.70710678118654746 1 I I 0 1 0 I I I I 
	cone -6.8037127086131282 -5.744585083693261 -2.8057127088959994 0.87851491655474778 0 0.47771491644159975 0.71657237466239965 0 -1.3177723748321217 1 I I 0 -1 0 I I I I 
	nullbs 
	nullbs 
	} I I #
loop $-1 $319 $268 $275 #
vertex $-1 $269 $320 #
ellipse-curve $-1 -10 -3.2401000002406022 0.85730000024059905 1 0 0 0 0 -1.5 1 I I #
loop $-1 $-1 $321 $304 #
face $-1 $204 $270 $3 $-1 $322 reversed single #
point $-1 -10 2.3531999998264093 2.3574000001735982 #
coedge $-1 $306 $306 $323 $324 0 $274 $-1 #
face $-1 $325 $326 $3 $-1 $327 reversed single #
cone-surface $-1 -6.5 -3.2401000002406022 0.85730000024059905 1 0 0 0 0 -1.5 1 I I 0 1 0 I I I I #
loop $-1 $-1 $323 $276 #
plane-surface $-1 -3.7289105006715109 -5.744585083693261 -1.1337105013504003 0.87851491655474778 0 0.47771491644159975 0.47771491644159975 0 -0.87851491655474778 0 I I I I #
intcurve-curve $-1 0 { surfintcur nubs 3 open 6 
	3.6522623208806944 3 3.9279121315979459 2 4.3180991365479837 2 4.7082861414980224 2 5.0984731464480628 2 
	5.2153829457828422 3 
	4.6896252961689129 9 -5 
	4.7217771277472407 9.091372955007694 -5 
	4.7571760038612165 9.1811347728289334 -4.9872068742180184 
	4.8356456251148838 9.3813784770034445 -4.9323905522296903 
	4.8826224676790044 9.5021149774009395 -4.8749941249566753 
	4.9484644451795479 9.7136009002335832 -4.7130974671334629 
	4.9667859900607461 9.8042923134549085 -4.608300982654697 
	4.9667859900607461 9.9331357068520063 -4.3823270374680865 
	4.948464445179547 9.9771289913808143 -4.2509047162758424 
	4.9056795036582441 9.9976683217775602 -4.0790569419293004 
	4.8946034837716628 10 -4.0393410462803923 
	4.8826475763172912 10 -4 
	0.001 
	cone 0 9 -4 1 0 0 0 0.70710678118654746 -0.70710678118654746 1 I I 0 1 0 I I I I 
	cone 3.4667859900607461 6.8282149746163521 -2.7617149748465231 0 -0.86871401015345862 0.49531401006139197 1.5 0 0 1 I I 0 -1 0 I I I I 
	nullbs 
	nullbs 
	} I I #
ellipse-curve $-1 -10.838994107821929 -5.744585083693261 -5 0 0 1 3.1399480074291839 0 0 0.47771491644159969 I I #
point $-1 -9 -6.9604023155956574 -5 #
loop $-1 $-1 $328 $315 #
face $-1 $329 $292 $3 $-1 $330 reversed single #
point $-1 0.053400000201482986 10 2.2773000002014712 #
point $-1 -9 9 -5 #
point $-1 -9 -4.5287678517908647 -5 #
loop $-1 $-1 $331 $275 #
point $-1 -10 -3.2401000002405915 2.357300000240599 #
coedge $-1 $321 $321 $332 $333 0 $303 $-1 #
cone-surface $-1 -6.5 2.3531999998263986 0.85740000017359819 1 0 0 0 0 -1.5 1 I I 0 1 0 I I I I #
coedge $-1 $323 $323 $306 $324 1 $309 $-1 #
edge $-1 $334 $334 $323 $335 0 #
face $-1 $315 $336 $3 $-1 $337 reversed single #
loop $-1 $-1 $338 $307 #
plane-surface $-1 -3 -3.2401000002406022 0.85730000024059905 1 0 0 0 0 -1 0 I I I I #
coedge $-1 $328 $328 $339 $340 0 $314 $-1 #
face $-1 $304 $341 $3 $-1 $342 reversed single #
cone-surface $-1 0.053400000201472508 6.5 0.77730000020147116 0 -1 0 0 0 -1.5 1 I I 0 1 0 I I I I #
coedge $-1 $331 $331 $338 $343 0 $319 $-1 #
coedge $-1 $332 $332 $321 $333 1 $341 $-1 #
edge $-1 $344 $344 $321 $345 0 #
vertex $-1 $324 $346 #
ellipse-curve $-1 -3.7289105006715109 -5.744585083693261 -1.1337105013504003 0.87851491655474778 0 0.47771491644159975 0.71657237466239965 0 -1.3177723748321217 1 I I #
loop $-1 $347 $339 $325 #
cone-surface $-1 0.053400000201472508 2.5493545357293299 0.77730000020147116 0 -1 0 0 0 -0.75 1 I I -0.85716730070211233 0.51503807491005416 0 I I I I #
coedge $-1 $338 $338 $331 $343 1 $326 $-1 #
coedge $-1 $339 $339 $328 $340 1 $336 $-1 #
edge $-1 $348 $348 $328 $349 0 #
loop $-1 $350 $332 $329 #
cone-surface $-1 -2.5493545357293299 2.3531999998263986 0.85740000017359819 1 0 0 0 0 -0.75 1 I I -0.85716730070211233 0.51503807491005416 0 I I I I #
edge $-1 $351 $351 $338 $352 0 #
vertex $-1 $333 $353 #
ellipse-curve $-1 -3 2.3531999998263986 0.85740000017359819 1 0 0 0 0 -1.5 1 I I #
point $-1 -3.0123381260091113 -5.744585083693261 -2.451482876182522 #
loop $-1 $-1 $354 $325 #
vertex $-1 $340 $355 #
ellipse-curve $-1 0.053400000201472508 3 0.77730000020147116 0 -1 0 0 0 -1.5 1 I I #
loop $-1 $-1 $356 $329 #
vertex $-1 $343 $357 #
ellipse-curve $-1 -3 -3.2401000002406022 0.85730000024059905 1 0 0 0 0 -1.5 1 I I #
point $-1 -3 2.3531999998263986 -0.64259999982640181 #
coedge $-1 $354 $354 $-1 $358 0 $347 $-1 #
point $-1 0.053400000201472508 3 -0.72269999979852884 #
coedge $-1 $356 $356 $-1 $359 0 $350 $-1 #
point $-1 -3 -3.2401000002406022 -0.64269999975940095 #
edge $-1 $360 $360 $354 $-1 0 #
edge $-1 $361 $361 $356 $-1 0 #
vertex $-1 $358 $362 #
vertex $-1 $359 $363 #
point $-1 0.053400000201472508 2.0987090714586598 0.77730000020147116 #
point $-1 -2.0987090714586598 2.3531999998263986 0.85740000017359819 #
End-of-ACIS-data 