600 0 1 0           
73 GICL ACIS Healer - Source: /gicl/data5/repository/tmp/hole_test.sat - 6 0 18 ACIS 6.0.3 Solaris 24 Sun Apr 14 00:16:24 2002 
1 9.999999999999999547e-07 1.000000000000000036e-10 
body $-1 $1 $-1 $-1 #
lump $-1 $-1 $2 $0 #
shell $-1 $-1 $-1 $3 $-1 $1 #
face $-1 $4 $5 $2 $-1 $6 reversed single #
face $-1 $7 $8 $2 $-1 $9 reversed single #
loop $-1 $10 $11 $3 #
cone-surface $-1 -10.91037513415349913 -6.127470705493410996 -17.88564031505206842 -0.7968960398773101694 0.004067969539845246903 0.6041027671279808331 -0.00765705249067447774 -1.499980456388400718 0 1 I I 0 1 1.5 forward I I I I #
face $-1 $12 $13 $2 $-1 $14 reversed single #
loop $-1 $-1 $15 $4 #
plane-surface $-1 -13.6995112737240845 -6.113232812103952973 -15.77128063010413506 -0.7968960398773101694 0.004067969539845246903 0.6041027671279808331 -0.005104701660449652116 -0.9999869709256005157 0 forward_v I I I I #
loop $-1 $-1 $16 $3 #
coedge $-1 $17 $17 $18 $19 reversed $5 $-1 #
face $-1 $20 $21 $2 $-1 $22 reversed single #
loop $-1 $-1 $23 $7 #
plane-surface $-1 -12.78190000000000026 -6.161300000000000665 -20 0 0 1 1 0 0 forward_v I I I I #
coedge $-1 $15 $15 $16 $24 reversed $8 $-1 #
coedge $-1 $16 $16 $15 $24 forward $10 $-1 #
coedge $-1 $11 $11 $23 $25 reversed $5 $-1 #
coedge $-1 $26 $27 $11 $19 forward $28 $-1 #
edge $-1 $29 1.702524076178925982 $30 4.569928892475624949 $18 $31 forward 7 unknown #
face $-1 $32 $33 $2 $-1 $34 reversed single #
loop $-1 $35 $36 $12 #
cone-surface $-1 -12.51349806799741593 -4.236001931616044658 -14.08640000038653994 0.7071067811865475727 -0.7071067811865474617 0 0.5303300858899107073 0.5303300858899108183 0 1 I I -0.8571673007021123336 0.5150380749100541555 0.750000000000000111 forward I I I I #
coedge $-1 $37 $38 $17 $25 forward $13 $-1 #
edge $-1 $39 -1.87097739615609662e-16 $39 6.283185307179586232 $15 $40 forward 7 unknown #
edge $-1 $30 1.436786202950457225 $29 4.852566693833345823 $23 $41 forward 7 unknown #
coedge $-1 $42 $18 $38 $43 forward $28 $-1 #
coedge $-1 $18 $44 $37 $45 forward $28 $-1 #
loop $-1 $-1 $18 $46 #
vertex $-1 $19 $47 #
vertex $-1 $43 $48 #
ellipse-curve $-1 -7.781900000000000261 -6.143440845781546145 -20.2572426205725975 -1 0 0 -7.329088297844222173e-21 -0.01267496040462261567 -1.882260567261145212 0.7968960398773099474 I I #
face $-1 $49 $50 $2 $-1 $51 reversed single #
loop $-1 $52 $53 $20 #
cone-surface $-1 -15.30702626584708348 -1.442473733766377109 -14.08640000038653994 0.7071067811865475727 -0.7071067811865474617 0 1.060660171779821415 1.060660171779821637 0 1 I I 0 1 1.500000000000000222 forward I I I I #
loop $-1 $-1 $54 $12 #
coedge $-1 $36 $36 $55 $56 reversed $21 $-1 #
coedge $-1 $57 $23 $27 $45 reversed $13 $-1 #
coedge $-1 $23 $58 $26 $43 reversed $13 $-1 #
vertex $-1 $24 $59 #
ellipse-curve $-1 -13.6995112737240845 -6.113232812103952973 -15.77128063010413506 -0.7968960398773101694 0.004067969539845246903 0.6041027671279808331 -0.00765705249067447774 -1.499980456388400718 0 1 I I #
ellipse-curve $-1 -8.121238994582915538 -6.141708598882869019 -20 0 0 1 2.482988885350736918 -0.01267508263052255155 0 0.6041027671279808331 I I #
coedge $-1 $60 $26 $61 $62 forward $28 $-1 #
edge $-1 $30 1.504429633034950697 $63 10 $38 $64 forward 7 unknown #
coedge $-1 $27 $60 $65 $66 forward $28 $-1 #
edge $-1 $67 -10 $29 -1.467446970777692705 $37 $64 forward 7 unknown #
face $-1 $-1 $28 $2 $-1 $68 forward single #
point $-1 -7.781900000000000261 -7.62874697077769337 -20 #
point $-1 -7.781900000000000261 -4.656870366965049968 -20 #
face $-1 $69 $70 $2 $-1 $71 reversed single #
loop $-1 $-1 $72 $32 #
plane-surface $-1 -17.78190000000000026 -6.161300000000000665 -10 1 0 0 0 1 0 forward_v I I I I #
loop $-1 $-1 $55 $20 #
coedge $-1 $73 $73 $74 $75 reversed $33 $-1 #
coedge $-1 $54 $54 $-1 $76 forward $35 $-1 #
coedge $-1 $55 $55 $36 $56 forward $52 $-1 #
edge $-1 $77 0 $77 6.283185307179586232 $55 $78 forward 7 unknown #
coedge $-1 $79 $37 $80 $81 forward $13 $-1 #
coedge $-1 $38 $79 $82 $83 reversed $13 $-1 #
point $-1 -13.70716832621475945 -7.613213268492353691 -15.77128063010413506 #
coedge $-1 $44 $42 $84 $85 forward $28 $-1 #
coedge $-1 $82 $86 $42 $62 reversed $87 $-1 #
edge $-1 $63 -10 $88 10 $61 $89 forward 7 unknown #
vertex $-1 $62 $90 #
straight-curve $-1 -7.781900000000000261 -6.161300000000000665 -20 0 1 0 I I #
coedge $-1 $91 $80 $44 $66 reversed $92 $-1 #
edge $-1 $93 -10 $67 10 $65 $94 forward 7 unknown #
vertex $-1 $66 $95 #
plane-surface $-1 -7.781900000000000261 -6.161300000000000665 -10 1 0 0 0 1 0 forward_v I I I I #
face $-1 $96 $97 $2 $-1 $98 reversed single #
loop $-1 $99 $100 $49 #
cone-surface $-1 -13.58680492760776737 -2.694514009939254606 -6.603766089344794032 0.4953140100613919738 0 -0.8687140101534586156 0 0.75 0 1 I I -0.8571673007021123336 0.5150380749100541555 0.75 forward I I I I #
coedge $-1 $101 $102 $73 $103 forward $50 $-1 #
coedge $-1 $53 $53 $72 $103 reversed $33 $-1 #
coedge $-1 $104 $105 $53 $75 forward $106 $-1 #
edge $-1 $107 0.8502390889953407305 $108 2.467319059283901161 $74 $109 forward 7 unknown #
edge $-1 $110 1 $110 0 $54 $-1 forward 7 unknown #
vertex $-1 $56 $111 #
ellipse-curve $-1 -12.8321525316941667 -3.917347467919293447 -14.08640000038653994 0.7071067811865475727 -0.7071067811865474617 0 1.060660171779821415 1.060660171779821637 0 1 I I #
coedge $-1 $58 $57 $112 $113 reversed $13 $-1 #
coedge $-1 $65 $114 $57 $81 reversed $92 $-1 #
edge $-1 $67 -5 $115 4 $80 $116 forward 7 unknown #
coedge $-1 $117 $61 $58 $83 forward $87 $-1 #
edge $-1 $63 -5 $118 4 $82 $119 forward 7 unknown #
coedge $-1 $120 $121 $60 $85 reversed $122 $-1 #
edge $-1 $88 -10 $93 10 $84 $123 forward 7 unknown #
coedge $-1 $61 $117 $120 $124 reversed $87 $-1 #
loop $-1 $-1 $117 $125 #
vertex $-1 $62 $126 #
straight-curve $-1 -7.781900000000000261 3.838699999999999335 -10 0 0 1 I I #
point $-1 -7.781900000000000261 3.838699999999999335 -20 #
coedge $-1 $127 $65 $121 $128 forward $92 $-1 #
loop $-1 $129 $130 $131 #
vertex $-1 $85 $132 #
straight-curve $-1 -7.781900000000000261 -16.16130000000000067 -10 0 0 -1 I I #
point $-1 -7.781900000000000261 -16.16130000000000067 -20 #
face $-1 $133 $122 $2 $-1 $134 reversed single #
loop $-1 $135 $136 $69 #
cone-surface $-1 -15.54361497484652332 -2.694514009939254606 -3.171785025383647927 0.4953140100613919738 0 -0.8687140101534586156 0 1.5 0 1 I I 0 1 1.5 forward I I I I #
loop $-1 $-1 $137 $49 #
coedge $-1 $100 $100 $138 $139 reversed $70 $-1 #
coedge $-1 $140 $72 $105 $141 reversed $50 $-1 #
coedge $-1 $72 $142 $104 $143 reversed $50 $-1 #
edge $-1 $108 0.5519608248103888837 $107 5.731224482369198014 $72 $144 forward 7 unknown #
coedge $-1 $145 $74 $102 $143 forward $106 $-1 #
coedge $-1 $74 $146 $101 $141 forward $106 $-1 #
loop $-1 $-1 $74 $147 #
vertex $-1 $75 $148 #
vertex $-1 $143 $149 #
intcurve-curve $-1 forward { surfintcur full nubs 3 open 7 
	0.8502390889953407305 3 1.003176944183334918 2 1.330978009161478015 2 1.658779074139621112 2 1.98658013911776421 2 
	2.314381204095907307 2 2.467319059283901161 3 
	-17.78190000000000026 2.838699999999999335 -14.87293681179348681 
	-17.78190000000000026 2.875203099654422445 -14.83102170500164618 
	-17.779872668270297 2.907912327545631115 -14.78620161925955223 
	-17.77164061061139932 2.993011795532543928 -14.65066862477813103 
	-17.76186792421636085 3.040291000723183146 -14.54182737588844532 
	-17.74737365067601758 3.101067056317386772 -14.31430146860224895 
	-17.74301792122838961 3.114838265174569187 -14.1956670220459209 
	-17.74301792122838961 3.114838265174569187 -13.97713297872715899 
	-17.74737365067601758 3.101067056317386772 -13.85849853217083449 
	-17.76186792421636085 3.040291000723183146 -13.63097262488463635 
	-17.77164061061139932 2.993011795532543928 -13.52213137599494885 
	-17.77987266827029345 2.907912327545629338 -13.38659838151352766 
	-17.78190000000000026 2.875203099654424221 -13.34177829577143548 
	-17.78190000000000026 2.838699999999999335 -13.2998631889795913 
	0.001000000000000000021 
	cone -15.30702626584708348 -1.442473733766377109 -14.08640000038653994 0.7071067811865475727 -0.7071067811865474617 0 1.060660171779821415 1.060660171779821637 0 1 I I 0 1 1.500000000000000222 forward I I I I 
	cone -16.78190000000000026 2.838699999999999335 -10 0 0 -1 -0.7071067811865474617 0.7071067811865474617 0 1 I I 0 1 0.999999999999999889 forward I I I I 
	nullbs 
	nullbs 
	I I 
	0 
	0 
	0 
	} I I #
vertex $-1 $76 $150 #
point $-1 -11.77149235991434395 -2.856687296139472032 -14.08640000038653994 #
coedge $-1 $151 $152 $79 $113 forward $153 $-1 #
edge $-1 $118 -10 $115 10 $79 $154 forward 7 unknown #
coedge $-1 $80 $130 $155 $156 reversed $92 $-1 #
vertex $-1 $156 $157 #
straight-curve $-1 -12.78190000000000026 -16.16130000000000067 -20 -1 0 0 I I #
coedge $-1 $86 $82 $158 $159 reversed $87 $-1 #
vertex $-1 $159 $160 #
straight-curve $-1 -12.78190000000000026 3.838699999999999335 -20 -1 0 0 I I #
coedge $-1 $161 $84 $86 $124 forward $122 $-1 #
coedge $-1 $84 $162 $91 $128 reversed $122 $-1 #
loop $-1 $163 $164 $96 #
straight-curve $-1 -7.781900000000000261 -6.161300000000000665 0 0 -1 0 I I #
edge $-1 $88 -5 $165 4 $86 $166 forward 7 unknown #
face $-1 $46 $87 $2 $-1 $167 reversed single #
point $-1 -7.781900000000000261 3.838699999999999335 0 #
coedge $-1 $130 $91 $168 $169 reversed $92 $-1 #
edge $-1 $93 -5 $170 4 $121 $171 forward 7 unknown #
loop $-1 $172 $173 $131 #
coedge $-1 $114 $127 $174 $175 forward $92 $-1 #
face $-1 $176 $92 $2 $-1 $177 reversed single #
point $-1 -7.781900000000000261 -16.16130000000000067 0 #
face $-1 $178 $179 $2 $-1 $180 forward single #
plane-surface $-1 -12.78190000000000026 -6.161300000000000665 0 0 0 -1 -1 0 0 forward_v I I I I #
loop $-1 $-1 $138 $69 #
coedge $-1 $181 $182 $183 $184 reversed $97 $-1 #
coedge $-1 $137 $137 $-1 $185 forward $99 $-1 #
coedge $-1 $138 $138 $100 $139 forward $135 $-1 #
edge $-1 $186 0 $186 6.283185307179586232 $138 $187 forward 7 unknown #
coedge $-1 $188 $101 $189 $190 reversed $50 $-1 #
edge $-1 $191 -9 $107 -4.872936811793486811 $101 $192 forward 7 unknown #
coedge $-1 $102 $193 $194 $195 reversed $50 $-1 #
edge $-1 $108 -3.2998631889795913 $196 9 $102 $192 forward 7 unknown #
ellipse-curve $-1 -17.78190000000000026 1.032400000386539674 -14.08640000038653994 1 0 0 0 2.121320343559642829 0 0.7071067811865476838 I I #
coedge $-1 $158 $104 $197 $198 forward $106 $-1 #
coedge $-1 $105 $158 $152 $199 reversed $106 $-1 #
face $-1 $125 $106 $2 $-1 $200 forward single #
point $-1 -17.78190000000000026 2.838699999999999335 -14.87293681179348681 #
point $-1 -17.78190000000000026 2.838699999999999335 -13.2998631889795913 #
point $-1 -12.19484360430066516 -4.554656395312795425 -14.08640000038653994 #
coedge $-1 $189 $112 $201 $202 reversed $153 $-1 #
coedge $-1 $112 $189 $146 $199 forward $153 $-1 #
loop $-1 $-1 $189 $203 #
straight-curve $-1 -16.78190000000000026 -6.161300000000000665 -20 0 -1 0 F -13.09999999999999964 F 13.09999999999999964 #
coedge $-1 $204 $201 $114 $156 forward $205 $-1 #
edge $-1 $115 -10 $206 -7.166481162388606663 $114 $207 forward 7 unknown #
point $-1 -16.78190000000000026 -16.16130000000000067 -20 #
coedge $-1 $146 $145 $117 $159 forward $106 $-1 #
edge $-1 $165 -10 $118 10 $117 $208 forward 7 unknown #
point $-1 -16.78190000000000026 3.838699999999999335 -20 #
coedge $-1 $164 $120 $209 $210 reversed $122 $-1 #
coedge $-1 $121 $164 $211 $212 reversed $122 $-1 #
loop $-1 $-1 $213 $96 #
coedge $-1 $162 $161 $181 $214 forward $122 $-1 #
vertex $-1 $210 $215 #
straight-curve $-1 -12.78190000000000026 3.838699999999999335 0 -1 0 0 I I #
plane-surface $-1 -12.78190000000000026 3.838699999999999335 -10 0 -1 0 1 0 0 forward_v I I I I #
coedge $-1 $216 $217 $127 $169 forward $218 $-1 #
edge $-1 $219 -4.322689004997917195 $170 10 $127 $207 forward 7 unknown #
vertex $-1 $212 $220 #
straight-curve $-1 -12.78190000000000026 -16.16130000000000067 0 -1 0 0 I I #
loop $-1 $-1 $221 $131 #
coedge $-1 $173 $173 $222 $223 forward $129 $-1 #
coedge $-1 $224 $225 $130 $175 reversed $226 $-1 #
edge $-1 $219 1.894918311403440914 $206 4.388266995776145762 $130 $227 forward 7 unknown #
face $-1 $228 $205 $2 $-1 $229 forward single #
plane-surface $-1 -12.78190000000000026 -16.16130000000000067 -10 0 1 0 -1 0 0 forward_v I I I I #
face $-1 $230 $231 $2 $-1 $180 forward single #
loop $-1 $-1 $183 $133 #
cone-surface $-1 -16.78190000000000026 -6.161300000000000665 -1 0 1 0 -0.7071067811865474617 0 0.7071067811865474617 1 I I 0 1 0.999999999999999889 forward I I I I #
coedge $-1 $232 $136 $164 $214 reversed $97 $-1 #
coedge $-1 $136 $232 $193 $233 reversed $97 $-1 #
coedge $-1 $234 $211 $136 $184 forward $179 $-1 #
edge $-1 $235 1.062331909547855613 $236 2.625452534450004372 $183 $237 forward 7 unknown #
edge $-1 $238 1 $238 0 $137 $-1 forward 7 unknown #
vertex $-1 $139 $239 #
ellipse-curve $-1 -13.81001593963165064 -2.694514009939254606 -6.212284060920753248 0.4953140100613919738 0 -0.8687140101534586156 0 1.5 0 1 I I #
coedge $-1 $240 $140 $241 $242 reversed $50 $-1 #
coedge $-1 $152 $151 $140 $190 forward $153 $-1 #
edge $-1 $243 -9 $191 9 $140 $244 forward 7 unknown #
vertex $-1 $190 $245 #
straight-curve $-1 -17.78190000000000026 2.838699999999999335 -10 0 0 1 F -13.09999999999999964 F 13.09999999999999964 #
coedge $-1 $142 $246 $182 $233 forward $50 $-1 #
coedge $-1 $247 $197 $142 $195 forward $231 $-1 #
edge $-1 $196 -9 $248 -4.689625296168912882 $142 $249 forward 7 unknown #
vertex $-1 $195 $250 #
coedge $-1 $194 $209 $145 $198 reversed $231 $-1 #
edge $-1 $196 -1.570796326794896558 $165 1.110223024625157033e-16 $145 $251 forward 7 unknown #
edge $-1 $191 -1.570796326794896558 $118 1.110223024625157033e-16 $152 $252 forward 7 unknown #
cone-surface $-1 -16.78190000000000026 2.838699999999999335 -10 0 0 -1 -0.7071067811865474617 0.7071067811865474617 0 1 I I 0 1 0.999999999999999889 forward I I I I #
coedge $-1 $155 $241 $151 $202 forward $205 $-1 #
edge $-1 $243 -1.570796326794896558 $115 1.110223024625157033e-16 $201 $253 forward 7 unknown #
face $-1 $147 $153 $2 $-1 $254 forward single #
coedge $-1 $241 $155 $225 $255 forward $205 $-1 #
loop $-1 $-1 $204 $176 #
vertex $-1 $255 $256 #
straight-curve $-1 -16.78190000000000026 -16.16130000000000067 -10 0 0 1 F -13.09999999999999964 F 13.09999999999999964 #
straight-curve $-1 -16.78190000000000026 3.838699999999999335 -10 0 0 -1 F -13.09999999999999964 F 13.09999999999999964 #
coedge $-1 $197 $247 $161 $210 forward $231 $-1 #
edge $-1 $257 4.882647576317291183 $165 10 $161 $258 forward 7 unknown #
coedge $-1 $183 $259 $162 $212 forward $179 $-1 #
edge $-1 $170 -10 $235 2.050924403804200935 $162 $258 forward 7 unknown #
coedge $-1 $213 $213 $260 $261 forward $163 $-1 #
edge $-1 $257 -1.234270980045026223 $235 1.234270980045026223 $164 $262 forward 7 unknown #
point $-1 -16.78190000000000026 3.838699999999999335 0 #
coedge $-1 $263 $168 $259 $264 reversed $218 $-1 #
coedge $-1 $168 $263 $224 $265 forward $218 $-1 #
loop $-1 $-1 $217 $228 #
vertex $-1 $169 $266 #
point $-1 -16.78190000000000026 -16.16130000000000067 0 #
coedge $-1 $221 $221 $267 $268 forward $172 $-1 #
coedge $-1 $222 $222 $173 $223 reversed $269 $-1 #
edge $-1 $270 -3.141592653589800221 $270 3.141592653589786011 $173 $271 forward 7 unknown #
coedge $-1 $272 $174 $217 $265 reversed $226 $-1 #
coedge $-1 $174 $272 $204 $255 reversed $226 $-1 #
loop $-1 $273 $225 $230 #
ellipse-curve $-1 -17.32567553236664892 -16.16130000000000067 -15.74458508369326104 0 1 0 -1.707426899343401638 0 0 0.8785149165547476713 I I #
face $-1 $274 $218 $2 $-1 $229 forward single #
cone-surface $-1 -16.78190000000000026 -15.16130000000000067 -10 0 0 1 -0.7071067811865474617 -0.7071067811865474617 0 1 I I 0 1 0.999999999999999889 forward I I I I #
face $-1 $275 $226 $2 $-1 $276 reversed single #
loop $-1 $-1 $247 $178 #
coedge $-1 $182 $181 $247 $277 reversed $97 $-1 #
edge $-1 $236 2.188472981590639854 $248 4.094712325588946378 $193 $278 forward 7 unknown #
coedge $-1 $259 $183 $246 $279 forward $179 $-1 #
vertex $-1 $184 $280 #
vertex $-1 $279 $281 #
intcurve-curve $-1 forward { surfintcur full nubs 3 open 6 
	1.062331909547855613 3 1.179241708882635908 2 1.569428713832676126 2 1.959615718782714566 2 2.349802723732752785 2 
	2.625452534450004372 3 
	-16.78190000000000026 -4.11037559619579973 0 
	-16.82124104628039518 -4.122331503650171314 0 
	-16.86095694192930239 -4.133407523536753558 -0.002331678222441624371 
	-17.03280471627584447 -4.176192465058056413 -0.0228710086191892259 
	-17.16422703746808764 -4.194514009939254606 -0.06686429314799369195 
	-17.39020098265469727 -4.194514009939254606 -0.1957076865450915193 
	-17.49499746713346582 -4.176192465058057302 -0.2863990997664167537 
	-17.65689412495667554 -4.110350487557512977 -0.4978850225990605338 
	-17.7142905522296914 -4.063373644993392375 -0.618621522996555484 
	-17.76910687421801782 -3.984904023739726409 -0.8188652271710665786 
	-17.78190000000000026 -3.949505147625749668 -0.9086270449923059545 
	-17.78190000000000026 -3.91735331604742143 -1 
	0.001000000000000000021 
	cone -16.78190000000000026 -6.161300000000000665 -1 0 1 0 -0.7071067811865474617 0 0.7071067811865474617 1 I I 0 1 0.999999999999999889 forward I I I I 
	cone -15.54361497484652332 -2.694514009939254606 -3.171785025383647927 0.4953140100613919738 0 -0.8687140101534586156 0 1.5 0 1 I I 0 -1 1.5 forward I I I I 
	nullbs 
	nullbs 
	I I 
	0 
	0 
	0 
	} I I #
vertex $-1 $185 $282 #
point $-1 -13.81001593963165064 -1.194514009939254606 -6.212284060920753248 #
coedge $-1 $283 $188 $272 $284 forward $50 $-1 #
coedge $-1 $201 $204 $188 $242 forward $205 $-1 #
edge $-1 $285 6.960402315595658251 $243 9 $188 $286 forward 7 unknown #
vertex $-1 $242 $287 #
straight-curve $-1 -17.78190000000000026 -6.161300000000000665 -19 0 1 0 F -13.09999999999999964 F 13.09999999999999964 #
point $-1 -17.78190000000000026 2.838699999999999335 -19 #
coedge $-1 $193 $283 $234 $279 reversed $50 $-1 #
coedge $-1 $209 $194 $232 $277 forward $231 $-1 #
vertex $-1 $233 $288 #
straight-curve $-1 -17.78190000000000026 -6.161300000000000665 -1 0 -1 0 F -13.09999999999999964 F 13.09999999999999964 #
point $-1 -17.78190000000000026 2.838699999999999335 -1 #
ellipse-curve $-1 -16.78190000000000026 2.838699999999999335 -1 0 0.7071067811865475727 -0.7071067811865475727 -1.11022302462515654e-16 0.999999999999999889 0.999999999999999889 0.7071067811865474617 I I #
ellipse-curve $-1 -16.78190000000000026 2.838699999999999335 -19 0 -0.7071067811865475727 -0.7071067811865475727 -1.11022302462515654e-16 0.999999999999999889 -0.999999999999999889 0.7071067811865474617 I I #
ellipse-curve $-1 -16.78190000000000026 -15.16130000000000067 -19 0 -0.7071067811865475727 0.7071067811865475727 -1.11022302462515654e-16 -0.999999999999999889 -0.999999999999999889 0.7071067811865474617 I I #
cone-surface $-1 -16.78190000000000026 -6.161300000000000665 -19 0 -1 0 -0.7071067811865474617 0 -0.7071067811865474617 1 I I 0 1 0.999999999999999889 forward I I I I #
edge $-1 $206 1.08225222198597204 $285 2.645681498097796513 $204 $289 forward 7 unknown #
point $-1 -16.78190000000000026 -16.16130000000000067 -17.16648116238860666 #
vertex $-1 $210 $290 #
straight-curve $-1 -16.78190000000000026 -6.161300000000000665 0 0 1 0 F -13.09999999999999964 F 13.09999999999999964 #
coedge $-1 $211 $234 $216 $264 forward $179 $-1 #
coedge $-1 $260 $260 $213 $261 reversed $291 $-1 #
edge $-1 $292 -3.141592653589800221 $292 3.141592653589786011 $213 $293 forward 7 unknown #
ellipse-curve $-1 -17.35206924358558211 -2.694514009939254606 0 0 0 -1 1.726690236911252896 0 0 0.8687140101534586156 I I #
coedge $-1 $217 $216 $283 $294 forward $218 $-1 #
edge $-1 $295 -1.570796326794896558 $170 1.110223024625157033e-16 $259 $296 forward 7 unknown #
edge $-1 $297 3.632033357232899995 $219 5.195462633344726022 $217 $298 forward 7 unknown #
point $-1 -16.78190000000000026 -16.16130000000000067 -14.32268900499791719 #
coedge $-1 $267 $267 $221 $268 reversed $299 $-1 #
edge $-1 $300 -3.141592653589800221 $300 3.141592653589786011 $221 $301 forward 7 unknown #
loop $-1 $302 $222 $303 #
vertex $-1 $223 $304 #
ellipse-curve $-1 -11.92449999982640207 -16.16130000000000067 -7.646800000173601397 0 1 0 -1.5 0 0 1 I I #
coedge $-1 $225 $224 $240 $284 reversed $226 $-1 #
loop $-1 $-1 $305 $230 #
face $-1 $306 $299 $2 $-1 $307 reversed single #
face $-1 $131 $308 $2 $-1 $309 reversed single #
cone-surface $-1 -15.5876127088959997 -12.96501270861312882 -15.74458508369326104 0.4777149164415997462 0.8785149165547477823 0 -1.317772374832121729 0.7165723746623996471 0 1 I I 0 1 1.5 forward I I I I #
edge $-1 $248 3.652262320880694357 $257 5.215382945782842228 $247 $310 forward 7 unknown #
ellipse-curve $-1 -17.78190000000000026 -2.694514009939254606 0.75386520976013216 1 0 0 0 0 3.0283819345511378 0.4953140100613919738 I I #
edge $-1 $236 -2.243946683952579235 $295 9 $246 $249 forward 7 unknown #
point $-1 -16.78190000000000026 -4.11037559619579973 0 #
point $-1 -17.78190000000000026 -3.91735331604742143 -1 #
point $-1 -13.3635939155838841 -2.694514009939254606 -6.995248117768834817 #
coedge $-1 $246 $240 $263 $294 reversed $50 $-1 #
edge $-1 $285 -0.9450817597467597864 $297 0.9450817597467597864 $240 $311 forward 7 unknown #
vertex $-1 $242 $312 #
straight-curve $-1 -17.78190000000000026 -15.16130000000000067 -10 0 0 -1 F -13.09999999999999964 F 13.09999999999999964 #
point $-1 -17.78190000000000026 -15.16130000000000067 -19 #
point $-1 -17.78190000000000026 -1.471674703831087783 -1 #
intcurve-curve $-1 forward { surfintcur full nubs 3 open 6 
	1.08225222198597204 3 1.179241708882634798 2 1.569428713832674127 2 1.959615718782714566 2 2.349802723732755005 2 
	2.645681498097796513 3 
	-16.78190000000000026 -16.16130000000000067 -17.16648116238860666 
	-16.81463734165361856 -16.16130000000000067 -17.176143751148512 
	-16.84761035221422176 -16.15968765045056443 -17.18515932056795137 
	-17.01307139717537353 -16.14328473897221272 -17.22626353881206285 
	-17.14535321507678844 -16.10194763404351903 -17.24458508369325926 
	-17.37387661780640968 -15.97768219906598119 -17.24458508369325926 
	-17.48047864651876182 -15.88912011312848271 -17.22626353881206285 
	-17.64660243989833788 -15.68093820074442846 -17.16042156131151941 
	-17.70641922990058958 -15.56138233921615921 -17.11344471874739526 
	-17.76704555505002503 -15.35623455775560586 -17.03259109126511106 
	-17.78190000000000026 -15.25962736061928737 -16.99434326835787346 
	-17.78190000000000026 -15.16130000000000067 -16.96040231559565825 
	0.001000000000000000021 
	cone -16.78190000000000026 -15.16130000000000067 -10 0 0 1 -0.7071067811865474617 -0.7071067811865474617 0 1 I I 0 1 0.999999999999999889 forward I I I I 
	cone -15.5876127088959997 -12.96501270861312882 -15.74458508369326104 0.4777149164415997462 0.8785149165547477823 0 -1.317772374832121729 0.7165723746623996471 0 1 I I 0 -1 1.5 forward I I I I 
	nullbs 
	nullbs 
	I I 
	0 
	0 
	0 
	} I I #
point $-1 -16.78190000000000026 -1.278652423682709482 0 #
loop $-1 $313 $260 $314 #
vertex $-1 $261 $315 #
ellipse-curve $-1 -12.0045999997985291 -6.107899999798528157 0 0 0 -1 -1.5 0 0 1 I I #
edge $-1 $295 -9 $297 4.52876785179086383 $283 $286 forward 7 unknown #
vertex $-1 $279 $316 #
ellipse-curve $-1 -16.78190000000000026 -15.16130000000000067 -1 0 0.7071067811865475727 0.7071067811865475727 -1.11022302462515654e-16 -0.999999999999999889 0.999999999999999889 0.7071067811865474617 I I #
vertex $-1 $284 $317 #
intcurve-curve $-1 forward { surfintcur full nubs 3 open 6 
	3.632033357232899995 3 3.927912131597942391 2 4.31809913654798283 2 4.708286141498023269 2 5.09847314644806282 2 
	5.195462633344726022 3 
	-17.78190000000000026 -15.16130000000000067 -14.52876785179086383 
	-17.78190000000000026 -15.2596273606192856 -14.49482689902864863 
	-17.76704555505002858 -15.35623455775560586 -14.4565790761214128 
	-17.70641922990058958 -15.56138233921615921 -14.37572544863912505 
	-17.64660243989833788 -15.68093820074442846 -14.32874860607500267 
	-17.48047864651876182 -15.88912011312848271 -14.26290662857445923 
	-17.37387661780640968 -15.97768219906598119 -14.24458508369326104 
	-17.14535321507678844 -16.10194763404351903 -14.24458508369326104 
	-17.01307139717537353 -16.14328473897221272 -14.26290662857445923 
	-16.84761035221422176 -16.15968765045056443 -14.30401084681857071 
	-16.81463734165362212 -16.16130000000000067 -14.31302641623801009 
	-16.78190000000000026 -16.16130000000000067 -14.32268900499791719 
	0.001000000000000000021 
	cone -16.78190000000000026 -15.16130000000000067 -10 0 0 1 -0.7071067811865474617 -0.7071067811865474617 0 1 I I 0 1 0.999999999999999889 forward I I I I 
	cone -15.5876127088959997 -12.96501270861312882 -15.74458508369326104 0.4777149164415997462 0.8785149165547477823 0 -1.317772374832121729 0.7165723746623996471 0 1 I I 0 -1 1.5 forward I I I I 
	nullbs 
	nullbs 
	I I 
	0 
	0 
	0 
	} I I #
loop $-1 $318 $267 $274 #
vertex $-1 $268 $319 #
ellipse-curve $-1 -11.92459999975940121 -16.16130000000000067 -13.24010000024060218 0 1 0 -1.5 0 0 1 I I #
loop $-1 $-1 $320 $303 #
face $-1 $203 $269 $2 $-1 $321 reversed single #
point $-1 -10.42449999982640207 -16.16130000000000067 -7.646800000173590739 #
coedge $-1 $305 $305 $322 $323 forward $273 $-1 #
face $-1 $324 $325 $2 $-1 $326 reversed single #
cone-surface $-1 -11.92459999975940121 -12.66130000000000067 -13.24010000024060218 0 1 0 -1.5 0 0 1 I I 0 1 1.5 forward I I I I #
loop $-1 $-1 $322 $275 #
plane-surface $-1 -13.91561050135040034 -9.890210500671511085 -15.74458508369326104 0.4777149164415997462 0.8785149165547477823 0 -0.8785149165547477823 0.4777149164415997462 0 forward_v I I I I #
intcurve-curve $-1 forward { surfintcur full nubs 3 open 6 
	3.652262320880694357 3 3.927912131597945944 2 4.318099136547983719 2 4.708286141498022381 2 5.09847314644806282 2 
	5.215382945782842228 3 
	-17.78190000000000026 -1.471674703831087783 -1 
	-17.78190000000000026 -1.439522872252759988 -0.9086270449923059545 
	-17.76910687421801782 -1.404123996138784136 -0.8188652271710665786 
	-17.7142905522296914 -1.325654374885116837 -0.618621522996555484 
	-17.65689412495667554 -1.278677532320996235 -0.4978850225990605338 
	-17.49499746713346227 -1.212835554820452799 -0.2863990997664167537 
	-17.39020098265469727 -1.194514009939254606 -0.1957076865450915193 
	-17.16422703746808764 -1.194514009939254606 -0.06686429314799369195 
	-17.03280471627584092 -1.212835554820453687 -0.02287100861918567318 
	-16.86095694192930239 -1.255620496341756542 -0.002331678222439848014 
	-16.82124104628039163 -1.266696516228337899 0 
	-16.78190000000000026 -1.278652423682709482 0 
	0.001000000000000000021 
	cone -16.78190000000000026 -6.161300000000000665 -1 0 1 0 -0.7071067811865474617 0 0.7071067811865474617 1 I I 0 1 0.999999999999999889 forward I I I I 
	cone -15.54361497484652332 -2.694514009939254606 -3.171785025383647927 0.4953140100613919738 0 -0.8687140101534586156 0 1.5 0 1 I I 0 -1 1.5 forward I I I I 
	nullbs 
	nullbs 
	I I 
	0 
	0 
	0 
	} I I #
ellipse-curve $-1 -17.78190000000000026 -17.0002941078219294 -15.74458508369326104 1 0 0 0 3.139948007429183896 0 0.4777149164415996907 I I #
point $-1 -17.78190000000000026 -15.16130000000000067 -16.96040231559565825 #
loop $-1 $-1 $327 $314 #
face $-1 $328 $291 $2 $-1 $329 reversed single #
point $-1 -10.5045999997985291 -6.107899999798517499 0 #
point $-1 -17.78190000000000026 -15.16130000000000067 -1 #
point $-1 -17.78190000000000026 -15.16130000000000067 -14.52876785179086383 #
loop $-1 $-1 $330 $274 #
point $-1 -10.42459999975940121 -16.16130000000000067 -13.24010000024059153 #
coedge $-1 $320 $320 $331 $332 forward $302 $-1 #
cone-surface $-1 -11.92449999982640207 -12.66130000000000067 -7.646800000173601397 0 1 0 -1.5 0 0 1 I I 0 1 1.5 forward I I I I #
coedge $-1 $322 $322 $305 $323 reversed $308 $-1 #
edge $-1 $333 0 $333 6.283185307179586232 $322 $334 forward 7 unknown #
face $-1 $314 $335 $2 $-1 $336 reversed single #
loop $-1 $-1 $337 $306 #
plane-surface $-1 -11.92459999975940121 -9.161300000000000665 -13.24010000024060218 0 1 0 -1 0 0 forward_v I I I I #
coedge $-1 $327 $327 $338 $339 forward $313 $-1 #
face $-1 $303 $340 $2 $-1 $341 reversed single #
cone-surface $-1 -12.0045999997985291 -6.107899999798528157 -3.5 0 0 -1 -1.5 0 0 1 I I 0 1 1.5 forward I I I I #
coedge $-1 $330 $330 $337 $342 forward $318 $-1 #
coedge $-1 $331 $331 $320 $332 reversed $340 $-1 #
edge $-1 $343 0 $343 6.283185307179586232 $320 $344 forward 7 unknown #
vertex $-1 $323 $345 #
ellipse-curve $-1 -13.91561050135040034 -9.890210500671511085 -15.74458508369326104 0.4777149164415997462 0.8785149165547477823 0 -1.317772374832121729 0.7165723746623996471 0 1 I I #
loop $-1 $346 $338 $324 #
cone-surface $-1 -12.0045999997985291 -6.107899999798528157 -7.450645464270669649 0 0 -1 -0.75 0 0 1 I I -0.8571673007021123336 0.5150380749100541555 0.75 forward I I I I #
coedge $-1 $337 $337 $330 $342 reversed $325 $-1 #
coedge $-1 $338 $338 $327 $339 reversed $335 $-1 #
edge $-1 $347 0 $347 6.283185307179586232 $327 $348 forward 7 unknown #
loop $-1 $349 $331 $328 #
cone-surface $-1 -11.92449999982640207 -8.710654535729331016 -7.646800000173601397 0 1 0 -0.75 0 0 1 I I -0.8571673007021123336 0.5150380749100541555 0.75 forward I I I I #
edge $-1 $350 0 $350 6.283185307179586232 $337 $351 forward 7 unknown #
vertex $-1 $332 $352 #
ellipse-curve $-1 -11.92449999982640207 -9.161300000000000665 -7.646800000173601397 0 1 0 -1.5 0 0 1 I I #
point $-1 -15.23338287618252274 -9.173638126009112881 -15.74458508369326104 #
loop $-1 $-1 $353 $324 #
vertex $-1 $339 $354 #
ellipse-curve $-1 -12.0045999997985291 -6.107899999798528157 -7 0 0 -1 -1.5 0 0 1 I I #
loop $-1 $-1 $355 $328 #
vertex $-1 $342 $356 #
ellipse-curve $-1 -11.92459999975940121 -9.161300000000000665 -13.24010000024060218 0 1 0 -1.5 0 0 1 I I #
point $-1 -13.42449999982640207 -9.161300000000000665 -7.646800000173601397 #
coedge $-1 $353 $353 $-1 $357 forward $346 $-1 #
point $-1 -13.5045999997985291 -6.107899999798528157 -7 #
coedge $-1 $355 $355 $-1 $358 forward $349 $-1 #
point $-1 -13.42459999975940121 -9.161300000000000665 -13.24010000024060218 #
edge $-1 $359 1 $359 0 $353 $-1 forward 7 unknown #
edge $-1 $360 1 $360 0 $355 $-1 forward 7 unknown #
vertex $-1 $357 $361 #
vertex $-1 $358 $362 #
point $-1 -12.0045999997985291 -6.107899999798528157 -7.901290928541340186 #
point $-1 -11.92449999982640207 -8.260009071458661367 -7.646800000173601397 #
End-of-ACIS-data 