105 89 1 0          
body $1 $2 $-1 $3 #
display_attribute-st-attrib $-1 $4 $-1 $0 1 #
lump $-1 $-1 $5 $0 #
transform $-1 1 0 0 0 1 0 0 0 1 -1 -1 4.5 1 1 0 0 #
rgb_color-st-attrib $-1 $6 $1 $0 0 1 0 #
shell $-1 $-1 $-1 $7 $2 #
id_attribute-st-attrib $-1 $-1 $4 $0 1 #
face $-1 $8 $9 $5 $-1 $10 forward single #
face $-1 $11 $12 $5 $-1 $13 reversed single #
loop $-1 $-1 $14 $7 #
plane-surface $-1 0 0 2.5 0 0 1 1 0 0 0 #
face $-1 $15 $16 $5 $-1 $17 reversed single #
loop $-1 $-1 $18 $8 #
plane-surface $-1 0 0 -2.5 0 0 1 1 0 0 0 #
coedge $-1 $19 $20 $21 $22 0 $9 $-1 #
face $-1 $23 $24 $5 $-1 $25 reversed single #
loop $-1 $-1 $26 $11 #
plane-surface $-1 0 -7.5 0 0 1 -0 -0 0 1 0 #
coedge $-1 $27 $28 $29 $30 0 $12 $-1 #
coedge $-1 $31 $14 $32 $33 0 $9 $-1 #
coedge $-1 $14 $31 $34 $35 0 $9 $-1 #
coedge $-1 $36 $37 $14 $22 1 $38 $-1 #
edge $-1 $39 $40 $21 $41 0 #
face $-1 $42 $43 $5 $-1 $44 reversed single #
loop $-1 $-1 $45 $15 #
plane-surface $-1 -5 0 0 1 0 0 0 0 -1 0 #
coedge $-1 $46 $34 $47 $48 0 $16 $-1 #
coedge $-1 $49 $18 $46 $50 0 $12 $-1 #
coedge $-1 $18 $49 $51 $52 0 $12 $-1 #
coedge $-1 $37 $36 $18 $30 1 $38 $-1 #
edge $-1 $53 $54 $29 $55 0 #
coedge $-1 $20 $19 $56 $57 0 $9 $-1 #
coedge $-1 $58 $59 $19 $33 1 $43 $-1 #
edge $-1 $40 $60 $32 $61 0 #
coedge $-1 $26 $62 $20 $35 1 $16 $-1 #
edge $-1 $63 $39 $34 $64 0 #
coedge $-1 $29 $21 $62 $65 0 $38 $-1 #
coedge $-1 $21 $29 $58 $66 1 $38 $-1 #
loop $-1 $-1 $36 $42 #
vertex $-1 $22 $67 #
vertex $-1 $22 $68 #
straight-curve $-1 5 0 2.5 0 1 0 #
face $-1 $-1 $38 $5 $-1 $69 reversed single #
loop $-1 $-1 $58 $23 #
plane-surface $-1 0 7.5 0 0 -1 0 0 0 -1 0 #
coedge $-1 $70 $56 $59 $71 0 $24 $-1 #
coedge $-1 $62 $26 $27 $50 1 $16 $-1 #
coedge $-1 $56 $70 $26 $48 1 $24 $-1 #
edge $-1 $63 $72 $47 $73 0 #
coedge $-1 $28 $27 $70 $74 0 $12 $-1 #
edge $-1 $54 $72 $46 $75 0 #
coedge $-1 $59 $58 $28 $52 1 $43 $-1 #
edge $-1 $76 $53 $51 $77 0 #
vertex $-1 $30 $78 #
vertex $-1 $65 $79 #
straight-curve $-1 5 0 -2.5 0 -1 0 #
coedge $-1 $45 $47 $31 $57 1 $24 $-1 #
edge $-1 $60 $63 $56 $80 0 #
coedge $-1 $51 $32 $37 $66 0 $43 $-1 #
coedge $-1 $32 $51 $45 $71 1 $43 $-1 #
vertex $-1 $33 $81 #
straight-curve $-1 0 7.5 2.5 -1 0 0 #
coedge $-1 $34 $46 $36 $65 1 $16 $-1 #
vertex $-1 $57 $82 #
straight-curve $-1 0 -7.5 2.5 1 0 0 #
edge $-1 $39 $54 $36 $83 0 #
edge $-1 $40 $53 $37 $84 0 #
point $-1 5 -7.5 2.5 #
point $-1 5 7.5 2.5 #
plane-surface $-1 5 0 0 -1 0 0 0 -0 1 0 #
coedge $-1 $47 $45 $49 $74 1 $24 $-1 #
edge $-1 $60 $76 $59 $85 0 #
vertex $-1 $74 $86 #
straight-curve $-1 -5 -7.5 0 0 0 -1 #
edge $-1 $72 $76 $70 $87 0 #
straight-curve $-1 0 -7.5 -2.5 -1 0 0 #
vertex $-1 $52 $88 #
straight-curve $-1 0 7.5 -2.5 1 0 0 #
point $-1 5 7.5 -2.5 #
point $-1 5 -7.5 -2.5 #
straight-curve $-1 -5 0 2.5 0 -1 0 #
point $-1 -5 7.5 2.5 #
point $-1 -5 -7.5 2.5 #
straight-curve $-1 5 -7.5 0 0 0 -1 #
straight-curve $-1 5 7.5 0 0 0 -1 #
straight-curve $-1 -5 7.5 0 0 0 -1 #
point $-1 -5 -7.5 -2.5 #
straight-curve $-1 -5 0 -2.5 0 1 0 #
point $-1 -5 7.5 -2.5 #
