600 0 1 0           
75 GICL ACIS Healer - Source: /gicl/data5/repository/tmp/mediatorTmp.sat - 6 0 18 ACIS 6.0.3 Solaris 24 Sun Apr 14 00:16:26 2002 
1 9.999999999999999547e-07 1.000000000000000036e-10 
body $-1 $1 $-1 $2 #
lump $-1 $-1 $3 $0 #
transform $-1 1 0 0 0 1 0 0 0 1 0 0 0 1 rotate no_reflect no_shear #
shell $-1 $-1 $-1 $4 $-1 $1 #
face $5 $6 $7 $3 $-1 $8 forward single #
MM-bsi-attrib $-1 $-1 $-1 $4 9 1 #
face $9 $10 $11 $3 $-1 $12 forward single #
loop $-1 $-1 $13 $4 #
cone-surface $-1 0.75 -0.25 7 -0 -0 -1 0.1767766952966368654 0.1767766952966368654 0 1 I I 0 -1 0.2499999999999999722 forward I I I I #
MM-bsi-attrib $-1 $-1 $-1 $6 9 2 #
face $14 $15 $16 $3 $-1 $17 reversed single #
loop $-1 $-1 $18 $6 #
cone-surface $-1 -2.75 -0.25 7 0 0 -1 -0.1767766952966368654 0.1767766952966368654 0 1 I I 0 -1 0.2499999999999999722 forward I I I I #
coedge $-1 $19 $20 $21 $22 forward $7 $-1 #
MM-bsi-attrib $-1 $-1 $-1 $10 3 1 #
face $23 $24 $25 $3 $-1 $26 reversed single #
loop $-1 $-1 $21 $10 #
plane-surface $-1 1 -9 7 1 0 0 0 0 -1 forward_v I I I I #
coedge $-1 $27 $28 $29 $30 forward $11 $-1 #
coedge $-1 $31 $13 $32 $33 reversed $7 $-1 #
coedge $-1 $13 $31 $34 $35 reversed $7 $-1 #
coedge $-1 $36 $37 $13 $22 reversed $16 $-1 #
edge $-1 $38 -2.5 $39 0 $21 $40 forward 7 unknown #
MM-bsi-attrib $-1 $-1 $-1 $15 8 1 #
face $41 $42 $43 $3 $-1 $44 reversed single #
loop $-1 $45 $46 $15 #
cone-surface $-1 -1 2.999999999630006631 3.75 0 0 -1 -0.5 0 0 1 I I 0 1 0.5 forward I I I I #
coedge $-1 $47 $18 $48 $49 reversed $11 $-1 #
coedge $-1 $18 $47 $50 $51 reversed $11 $-1 #
coedge $-1 $52 $53 $18 $30 reversed $54 $-1 #
edge $-1 $55 -2.5 $56 0 $29 $57 forward 7 unknown #
coedge $-1 $20 $19 $58 $59 forward $7 $-1 #
coedge $-1 $60 $61 $19 $33 forward $62 $-1 #
edge $-1 $63 -0.785398163397448279 $39 0.785398163397448279 $32 $64 forward 7 unknown #
coedge $-1 $65 $66 $20 $35 forward $67 $-1 #
edge $-1 $38 -0.785398163397448279 $68 0.785398163397448279 $34 $69 forward 7 unknown #
coedge $-1 $70 $21 $66 $71 reversed $16 $-1 #
coedge $-1 $21 $70 $60 $72 reversed $16 $-1 #
vertex $-1 $71 $73 #
vertex $-1 $72 $74 #
straight-curve $-1 1 -0.25 7 -0 -0 1 F -3.274999999999999911 F 0.7750000000000003553 #
MM-bsi-attrib $-1 $-1 $-1 $24 7 1 #
face $75 $76 $77 $3 $-1 $78 reversed single #
loop $-1 $-1 $79 $24 #
plane-surface $-1 2 4 7 1 0 0 0 0 -1 forward_v I I I I #
loop $-1 $-1 $80 $15 #
coedge $-1 $46 $46 $81 $82 reversed $25 $-1 #
coedge $-1 $28 $27 $83 $84 forward $11 $-1 #
coedge $-1 $61 $85 $27 $49 forward $62 $-1 #
edge $-1 $86 -0.785398163397448279 $56 0.785398163397448279 $48 $87 forward 7 unknown #
coedge $-1 $88 $65 $28 $51 forward $67 $-1 #
edge $-1 $55 -0.785398163397448279 $89 0.785398163397448279 $50 $90 forward 7 unknown #
coedge $-1 $58 $29 $65 $91 reversed $54 $-1 #
coedge $-1 $29 $58 $61 $92 reversed $54 $-1 #
loop $-1 $-1 $58 $93 #
vertex $-1 $91 $94 #
vertex $-1 $92 $95 #
straight-curve $-1 -2.75 0 7 -0 -0 1 F -3.274999999999999911 F 0.7750000000000003553 #
coedge $-1 $53 $52 $31 $59 reversed $54 $-1 #
edge $-1 $63 0 $68 2.5 $58 $96 forward 7 unknown #
coedge $-1 $97 $32 $37 $72 forward $62 $-1 #
coedge $-1 $32 $48 $53 $92 forward $62 $-1 #
loop $-1 $-1 $60 $98 #
vertex $-1 $92 $99 #
ellipse-curve $-1 0.75 -0.25 7 0 0 -1 0.1767766952966368654 0.1767766952966368654 0 1 I I #
coedge $-1 $50 $34 $52 $91 forward $67 $-1 #
coedge $-1 $34 $100 $36 $71 forward $67 $-1 #
loop $-1 $-1 $34 $101 #
vertex $-1 $35 $102 #
ellipse-curve $-1 0.75 -0.25 4.5 -0 -0 1 0.1767766952966368654 0.1767766952966368654 0 1 I I #
coedge $-1 $37 $36 $103 $104 reversed $16 $-1 #
edge $-1 $105 -2 $38 -0.25 $36 $106 forward 7 unknown #
edge $-1 $39 -4.75 $107 -3 $60 $108 forward 7 unknown #
point $-1 1 -0.25 4.5 #
point $-1 1 -0.25 7 #
MM-bsi-attrib $-1 $-1 $-1 $42 7 2 #
face $109 $110 $111 $3 $-1 $112 reversed single #
loop $-1 $-1 $113 $42 #
cone-surface $-1 1 2 7 0 0 1 0 -1 0 1 I I 0 1 1 forward I I I I #
coedge $-1 $114 $115 $116 $117 reversed $43 $-1 #
coedge $-1 $80 $80 $118 $119 reversed $45 $-1 #
coedge $-1 $81 $81 $46 $82 forward $120 $-1 #
edge $-1 $121 -3.141592653589800221 $121 3.141592653589786011 $81 $122 forward 7 unknown #
coedge $-1 $123 $124 $47 $84 reversed $125 $-1 #
edge $-1 $86 0 $89 2.5 $83 $126 forward 7 unknown #
coedge $-1 $48 $127 $123 $128 forward $62 $-1 #
vertex $-1 $128 $129 #
ellipse-curve $-1 -2.75 -0.25 7 0 0 -1 -0.1767766952966368654 0.1767766952966368654 0 1 I I #
coedge $-1 $130 $50 $124 $131 forward $67 $-1 #
vertex $-1 $51 $132 #
ellipse-curve $-1 -2.75 -0.25 4.5 -0 -0 1 -0.1767766952966368654 0.1767766952966368654 0 1 I I #
edge $-1 $68 -3.75 $55 -0.25 $52 $133 forward 7 unknown #
edge $-1 $56 -2.75 $63 0.75 $61 $134 forward 7 unknown #
face $135 $136 $54 $3 $-1 $137 reversed single #
point $-1 -2.75 0 4.5 #
point $-1 -2.75 0 7 #
straight-curve $-1 0.75 0 7 0 0 -1 F -0.7750000000000003553 F 3.274999999999999911 #
coedge $-1 $138 $60 $139 $140 forward $62 $-1 #
face $141 $-1 $142 $3 $-1 $143 reversed single #
point $-1 0.75 0 7 #
coedge $-1 $66 $144 $145 $146 forward $67 $-1 #
face $147 $93 $67 $3 $-1 $148 reversed single #
point $-1 0.75 0 4.5 #
coedge $-1 $145 $139 $70 $104 forward $149 $-1 #
edge $-1 $107 4.999999999988347099e-05 $105 2.500049999999999883 $103 $150 forward 7 unknown #
vertex $-1 $146 $151 #
straight-curve $-1 1 0 4.5 0 1 0 I I #
vertex $-1 $104 $152 #
straight-curve $-1 1 -5 7 0 -1 0 I I #
MM-bsi-attrib $-1 $-1 $-1 $76 7 3 #
face $153 $154 $155 $3 $-1 $156 reversed single #
loop $-1 $-1 $157 $76 #
plane-surface $-1 1 1 7 0 -1 0 0 0 -1 forward_v I I I I #
coedge $-1 $158 $159 $160 $161 reversed $77 $-1 #
coedge $-1 $162 $79 $163 $164 reversed $43 $-1 #
coedge $-1 $79 $162 $158 $165 forward $43 $-1 #
coedge $-1 $160 $166 $79 $117 forward $142 $-1 #
edge $-1 $167 -2.5 $168 -0.5 $116 $169 forward 7 unknown #
coedge $-1 $118 $118 $80 $119 forward $170 $-1 #
edge $-1 $171 -3.141592653589800221 $171 3.141592653589786011 $118 $172 forward 7 unknown #
loop $-1 $173 $81 $174 #
vertex $-1 $82 $175 #
ellipse-curve $-1 -1 2.999999999630006631 4.5 0 0 -1 -0.5 0 0 1 I I #
coedge $-1 $176 $83 $85 $128 reversed $125 $-1 #
coedge $-1 $83 $176 $88 $131 reversed $125 $-1 #
loop $-1 $-1 $83 $136 #
straight-curve $-1 -3 -0.25 7 -0 0 -1 F -0.7750000000000003553 F 3.274999999999999911 #
coedge $-1 $85 $177 $178 $179 forward $62 $-1 #
edge $-1 $180 -1.5 $86 0.25 $85 $181 forward 7 unknown #
point $-1 -3 -0.25 7 #
coedge $-1 $182 $88 $183 $184 forward $67 $-1 #
edge $-1 $89 -8.75 $185 -7 $124 $186 forward 7 unknown #
point $-1 -3 -0.25 4.5 #
straight-curve $-1 -3 0 4.5 -1 -0 -0 I I #
straight-curve $-1 0 0 7 1 0 0 I I #
MM-bsi-attrib $-1 $-1 $-1 $93 3 2 #
face $187 $188 $125 $3 $-1 $189 reversed single #
plane-surface $-1 1 0 7 0 1 0 0 0 1 forward_v I I I I #
coedge $-1 $190 $97 $191 $192 forward $62 $-1 #
coedge $-1 $103 $193 $97 $140 reversed $149 $-1 #
edge $-1 $107 -0.5 $194 2.5 $97 $195 forward 7 unknown #
MM-bsi-attrib $-1 $-1 $-1 $98 1 5 #
loop $-1 $62 $196 $98 #
plane-surface $-1 -1 -1 7 0 0 -1 0 1 0 forward_v I I I I #
coedge $-1 $100 $197 $198 $199 reversed $67 $-1 #
coedge $-1 $193 $103 $100 $146 reversed $149 $-1 #
edge $-1 $200 0 $105 3 $145 $201 forward 7 unknown #
MM-bsi-attrib $-1 $202 $-1 $101 2 6 #
plane-surface $-1 -6 -2 4.5 0 0 -1 -1 0 0 forward_v I I I I #
loop $-1 $-1 $103 $203 #
straight-curve $-1 1 -2 7.000049999999999883 0 0 -1 I I #
point $-1 1 -2 4.5 #
point $-1 1 -2 7 #
MM-bsi-attrib $-1 $-1 $-1 $110 7 4 #
face $204 $205 $206 $3 $-1 $207 reversed single #
loop $-1 $-1 $208 $110 #
cone-surface $-1 -3 2 7 0 0 1 0 -1 0 1 I I 0 1 1 forward I I I I #
coedge $-1 $209 $210 $211 $212 reversed $111 $-1 #
coedge $-1 $213 $113 $115 $165 reversed $77 $-1 #
coedge $-1 $113 $213 $209 $214 forward $77 $-1 #
coedge $-1 $211 $116 $113 $161 forward $142 $-1 #
edge $-1 $168 -1.570796326794896558 $215 0 $160 $216 forward 7 unknown #
coedge $-1 $115 $114 $217 $218 reversed $43 $-1 #
coedge $-1 $219 $220 $114 $164 forward $221 $-1 #
edge $-1 $222 -2.5 $167 0 $114 $223 forward 7 unknown #
edge $-1 $224 -2.5 $168 0 $158 $225 forward 7 unknown #
coedge $-1 $116 $226 $219 $227 forward $142 $-1 #
vertex $-1 $227 $228 #
vertex $-1 $117 $229 #
straight-curve $-1 2 1.5 7 0 -1 0 I I #
loop $-1 $230 $118 $231 #
vertex $-1 $119 $232 #
ellipse-curve $-1 -1 2.999999999630006631 3 0 0 1 -0.5 0 0 1 I I #
loop $-1 $-1 $233 $174 #
face $234 $235 $120 $3 $-1 $236 forward single #
point $-1 -0.5 2.999999999630010183 4.5 #
coedge $-1 $124 $123 $237 $238 reversed $125 $-1 #
coedge $-1 $127 $190 $239 $240 reversed $62 $-1 #
coedge $-1 $241 $237 $127 $179 reversed $242 $-1 #
edge $-1 $243 -7.5 $180 -4.5 $127 $195 forward 7 unknown #
vertex $-1 $179 $244 #
straight-curve $-1 -3 -0.5 7 0 1 0 I I #
coedge $-1 $197 $130 $245 $246 reversed $67 $-1 #
coedge $-1 $237 $241 $130 $184 reversed $242 $-1 #
edge $-1 $185 7 $247 10 $183 $201 forward 7 unknown #
vertex $-1 $184 $248 #
straight-curve $-1 -3 -9 4.5 -0 -1 -0 I I #
MM-bsi-attrib $-1 $-1 $-1 $136 3 3 #
face $249 $203 $242 $3 $-1 $250 reversed single #
plane-surface $-1 -3 0 7 -1 0 0 0 0 1 forward_v I I I I #
coedge $-1 $177 $138 $251 $252 reversed $62 $-1 #
coedge $-1 $253 $254 $138 $192 reversed $255 $-1 #
edge $-1 $194 -1 $256 7.5 $191 $257 forward 7 unknown #
coedge $-1 $139 $145 $253 $258 reversed $149 $-1 #
vertex $-1 $140 $259 #
straight-curve $-1 1.5 -2 7 1 0 0 I I #
coedge $-1 $260 $261 $262 $263 forward $142 $-1 #
coedge $-1 $144 $182 $264 $265 forward $67 $-1 #
coedge $-1 $266 $253 $144 $199 forward $255 $-1 #
edge $-1 $200 0.5 $267 2.5 $198 $268 forward 7 unknown #
vertex $-1 $258 $269 #
straight-curve $-1 4 -2 4.5 -1 0 0 I I #
MM-bsi-attrib $-1 $-1 $147 $101 2 2 #
face $270 $271 $149 $3 $-1 $250 reversed single #
MM-bsi-attrib $-1 $-1 $-1 $154 7 5 #
face $272 $273 $274 $3 $-1 $275 reversed single #
loop $-1 $-1 $262 $154 #
plane-surface $-1 -4 2 7 -1 0 0 0 -0 1 forward_v I I I I #
coedge $-1 $276 $277 $261 $278 reversed $155 $-1 #
coedge $-1 $279 $157 $159 $214 reversed $111 $-1 #
coedge $-1 $157 $279 $276 $280 forward $111 $-1 #
coedge $-1 $261 $160 $157 $212 forward $142 $-1 #
edge $-1 $215 -1 $281 3 $211 $282 forward 7 unknown #
coedge $-1 $159 $158 $283 $284 reversed $77 $-1 #
edge $-1 $285 -2.5 $215 0 $209 $286 forward 7 unknown #
vertex $-1 $161 $287 #
ellipse-curve $-1 1 2 7 0 0 -1 0 -1 0 1 I I #
coedge $-1 $288 $283 $162 $218 forward $173 $-1 #
edge $-1 $224 0 $222 2 $162 $289 forward 7 unknown #
coedge $-1 $290 $163 $166 $227 reversed $221 $-1 #
coedge $-1 $163 $290 $288 $291 reversed $221 $-1 #
loop $-1 $-1 $219 $292 #
vertex $-1 $164 $293 #
straight-curve $-1 2 4 7 0 0 1 I I #
vertex $-1 $165 $294 #
straight-curve $-1 2 2 7 0 0 1 I I #
coedge $-1 $166 $260 $295 $296 forward $142 $-1 #
edge $-1 $297 -3.141592653589793116 $167 -1.570796326794896558 $166 $298 forward 7 unknown #
point $-1 2 4 7 #
point $-1 2 2 7 #
loop $-1 $-1 $299 $231 #
face $300 $301 $170 $3 $-1 $302 reversed single #
point $-1 -0.5 2.999999999630003078 3 #
coedge $-1 $283 $303 $279 $304 forward $173 $-1 #
MM-bsi-attrib $-1 $-1 $-1 $174 7 9 #
face $305 $231 $306 $3 $-1 $307 reversed single #
plane-surface $-1 -3 1 4.5 -0 -0 1 1 -0 0 forward_v I I I I #
coedge $-1 $178 $183 $176 $238 forward $242 $-1 #
edge $-1 $185 -2.500049999999999883 $180 -4.999999999988347099e-05 $237 $308 forward 7 unknown #
coedge $-1 $309 $310 $177 $240 forward $311 $-1 #
edge $-1 $243 -1 $312 7.5 $177 $313 forward 7 unknown #
coedge $-1 $183 $178 $310 $314 reversed $242 $-1 #
loop $-1 $-1 $237 $188 #
vertex $-1 $314 $315 #
point $-1 -3 -2 7 #
coedge $-1 $310 $316 $182 $246 forward $311 $-1 #
edge $-1 $317 -2.5 $247 -0.5 $245 $318 forward 7 unknown #
vertex $-1 $314 $319 #
point $-1 -3 -2 4.5 #
MM-bsi-attrib $-1 $320 $-1 $188 2 3 #
plane-surface $-1 4 -2 7.000099999999999767 0 1 0 0 0 1 forward_v I I I I #
coedge $-1 $321 $322 $190 $252 forward $323 $-1 #
edge $-1 $312 -5 $256 5 $190 $324 forward 7 unknown #
coedge $-1 $198 $191 $193 $258 forward $255 $-1 #
coedge $-1 $191 $325 $321 $326 reversed $255 $-1 #
loop $-1 $-1 $325 $271 #
vertex $-1 $326 $327 #
straight-curve $-1 4 -1 7 0 1 0 I I #
edge $-1 $194 -1.249950000000000117 $200 1.250049999999999883 $253 $328 forward 7 unknown #
point $-1 4 -2 7 #
coedge $-1 $226 $196 $329 $330 forward $142 $-1 #
coedge $-1 $196 $211 $208 $278 forward $142 $-1 #
coedge $-1 $331 $332 $196 $263 reversed $206 $-1 #
edge $-1 $333 1.5 $334 3.5 $196 $335 forward 7 unknown #
coedge $-1 $336 $337 $197 $265 reversed $338 $-1 #
edge $-1 $317 0 $267 10 $197 $339 forward 7 unknown #
coedge $-1 $340 $198 $337 $341 forward $255 $-1 #
vertex $-1 $199 $342 #
straight-curve $-1 4 -1.5 4.5 -0 -1 -0 I I #
point $-1 4 -2 4.5 #
MM-bsi-attrib $-1 $343 $-1 $203 2 4 #
face $344 $98 $255 $3 $-1 $345 reversed single #
MM-bsi-attrib $-1 $-1 $-1 $205 7 6 #
face $346 $292 $347 $3 $-1 $348 reversed single #
loop $-1 $-1 $329 $205 #
cone-surface $-1 -3 4 7 0 0 1 0 -1 0 1 I I 0 1 1 forward I I I I #
coedge $-1 $349 $208 $210 $280 reversed $155 $-1 #
coedge $-1 $208 $349 $331 $350 reversed $155 $-1 #
edge $-1 $281 0 $333 1.570796326794896558 $261 $351 forward 7 unknown #
coedge $-1 $210 $209 $233 $304 reversed $111 $-1 #
edge $-1 $352 -2.5 $281 0 $276 $353 forward 7 unknown #
vertex $-1 $212 $354 #
straight-curve $-1 0 1 7 -1 -0 -0 I I #
coedge $-1 $217 $233 $213 $284 forward $173 $-1 #
edge $-1 $285 0 $224 1.570796326794896558 $213 $355 forward 7 unknown #
vertex $-1 $214 $356 #
straight-curve $-1 1 1 7 0 0 1 I I #
point $-1 1 1 7 #
coedge $-1 $357 $217 $220 $291 forward $173 $-1 #
straight-curve $-1 2 2 4.5 0 1 0 I I #
coedge $-1 $220 $219 $358 $359 reversed $221 $-1 #
edge $-1 $222 1.570796326794896558 $360 3.141592653589793116 $220 $361 forward 7 unknown #
face $362 $174 $221 $3 $-1 $363 reversed single #
point $-1 2 4 4.5 #
point $-1 2 2 4.5 #
coedge $-1 $364 $358 $226 $296 reversed $347 $-1 #
edge $-1 $365 -1 $297 3 $226 $366 forward 7 unknown #
vertex $-1 $296 $367 #
ellipse-curve $-1 1 4 7 0 0 -1 0 -1 0 1 I I #
coedge $-1 $368 $369 $370 $371 reversed $230 $-1 #
MM-bsi-attrib $-1 $-1 $-1 $231 6 2 #
face $372 $373 $323 $3 $-1 $374 reversed single #
plane-surface $-1 -6 1 3 0 0 1 1 0 0 forward_v I I I I #
coedge $-1 $233 $375 $349 $376 forward $173 $-1 #
edge $-1 $352 0 $285 4 $279 $377 forward 7 unknown #
MM-bsi-attrib $-1 $-1 $-1 $235 6 1 #
loop $-1 $-1 $378 $235 #
plane-surface $-1 -6 1 2 0 -1 0 0 0 -1 forward_v I I I I #
straight-curve $-1 -3 -2 7.000049999999999883 0 0 1 I I #
coedge $-1 $379 $239 $322 $380 reversed $311 $-1 #
coedge $-1 $239 $245 $241 $314 forward $311 $-1 #
loop $-1 $-1 $379 $373 #
vertex $-1 $252 $381 #
straight-curve $-1 -6 -1 7 0 1 0 I I #
edge $-1 $247 -1.250049999999999883 $243 1.249950000000000117 $310 $382 forward 7 unknown #
point $-1 -6 -2 7 #
coedge $-1 $245 $383 $336 $384 forward $311 $-1 #
vertex $-1 $265 $385 #
straight-curve $-1 -6 -1.5 4.5 0 1 0 I I #
point $-1 -6 -2 4.5 #
MM-bsi-attrib $-1 $-1 $249 $188 2 1 #
coedge $-1 $370 $251 $254 $326 forward $323 $-1 #
coedge $-1 $251 $370 $309 $380 forward $323 $-1 #
loop $-1 $-1 $370 $301 #
straight-curve $-1 -1 6.5 7 1 0 0 I I #
coedge $-1 $254 $386 $368 $387 forward $255 $-1 #
edge $-1 $256 -2.5 $388 1.5 $254 $389 forward 7 unknown #
point $-1 4 6.5 7 #
straight-curve $-1 4 -2 5.750049999999999883 0 0 -1 I I #
coedge $-1 $390 $391 $260 $330 reversed $274 $-1 #
edge $-1 $334 1.570796326794896558 $365 3.141592653589793116 $260 $392 forward 7 unknown #
coedge $-1 $393 $262 $277 $350 forward $206 $-1 #
coedge $-1 $262 $393 $390 $394 forward $206 $-1 #
vertex $-1 $263 $395 #
vertex $-1 $263 $396 #
straight-curve $-1 -4 0.5 7 0 1 0 I I #
coedge $-1 $397 $264 $316 $384 reversed $338 $-1 #
coedge $-1 $264 $397 $266 $341 reversed $338 $-1 #
loop $-1 $-1 $264 $398 #
straight-curve $-1 -6 -4 4.5 1 0 0 I I #
coedge $-1 $399 $266 $400 $401 forward $255 $-1 #
edge $-1 $267 1.25 $402 2.25 $266 $403 forward 7 unknown #
point $-1 4 -4 4.5 #
MM-bsi-attrib $-1 $-1 $270 $203 2 1 #
MM-bsi-attrib $-1 $-1 $-1 $271 1 6 #
plane-surface $-1 4 -1 4.5 -1 0 0 0 -1 0 forward_v I I I I #
MM-bsi-attrib $-1 $-1 $-1 $273 7 7 #
loop $-1 $-1 $295 $273 #
plane-surface $-1 -3 5 7 -2.775557561562891351e-17 1 0 0 -0 1 forward_v I I I I #
coedge $-1 $277 $276 $303 $376 reversed $155 $-1 #
edge $-1 $333 0 $404 2.5 $277 $405 forward 7 unknown #
ellipse-curve $-1 -3 2 7 0 0 -1 0 -1 0 1 I I #
vertex $-1 $280 $406 #
straight-curve $-1 -3 1 7 0 0 1 I I #
point $-1 -3 1 7 #
ellipse-curve $-1 1 2 4.5 0 0 1 0 -1 0 1 I I #
point $-1 1 1 4.5 #
coedge $-1 $407 $288 $408 $409 forward $173 $-1 #
coedge $-1 $295 $408 $290 $359 forward $347 $-1 #
edge $-1 $360 -2.5 $297 0 $290 $410 forward 7 unknown #
vertex $-1 $359 $411 #
ellipse-curve $-1 1 4 4.5 0 0 1 0 -1 0 1 I I #
MM-bsi-attrib $-1 $-1 $-1 $292 7 8 #
cone-surface $-1 1 4 7 0 0 1 0 -1 0 1 I I 0 1 1 forward I I I I #
coedge $-1 $408 $295 $391 $412 reversed $347 $-1 #
vertex $-1 $330 $413 #
straight-curve $-1 -2 5 7 1 2.775557561562891351e-17 0 I I #
point $-1 1 5 7 #
coedge $-1 $414 $299 $325 $387 reversed $230 $-1 #
coedge $-1 $299 $414 $379 $415 reversed $230 $-1 #
coedge $-1 $322 $321 $299 $371 forward $323 $-1 #
edge $-1 $388 -7.5 $416 2.5 $370 $417 forward 7 unknown #
MM-bsi-attrib $-1 $-1 $-1 $301 1 2 #
face $418 $419 $311 $3 $-1 $420 reversed single #
plane-surface $-1 -1 6.5 4.5 0 -1 0 1 0 0 forward_v I I I I #
coedge $-1 $303 $407 $393 $421 forward $173 $-1 #
edge $-1 $404 -1.570796326794896558 $352 0 $349 $422 forward 7 unknown #
straight-curve $-1 -3 1 4.5 1 0 0 I I #
coedge $-1 $423 $424 $386 $425 reversed $306 $-1 #
coedge $-1 $426 $309 $369 $415 forward $311 $-1 #
edge $-1 $416 -1.5 $312 2.5 $309 $427 forward 7 unknown #
point $-1 -6 6.5 7 #
straight-curve $-1 -6 -2 5.750049999999999883 0 0 1 I I #
coedge $-1 $316 $428 $429 $430 forward $311 $-1 #
edge $-1 $431 -2.25 $317 -1.25 $316 $432 forward 7 unknown #
point $-1 -6 -4 4.5 #
coedge $-1 $325 $433 $378 $425 forward $255 $-1 #
edge $-1 $434 1 $388 6.5 $325 $435 forward 7 unknown #
vertex $-1 $326 $436 #
straight-curve $-1 4 6.5 4.5 0 0 -1 I I #
coedge $-1 $437 $329 $332 $394 reversed $274 $-1 #
coedge $-1 $329 $437 $364 $412 forward $274 $-1 #
ellipse-curve $-1 -3 4 7 0 0 -1 0 -1 0 1 I I #
coedge $-1 $332 $331 $375 $421 reversed $206 $-1 #
edge $-1 $438 -2.5 $334 0 $390 $439 forward 7 unknown #
point $-1 -4 2 7 #
point $-1 -4 4 7 #
coedge $-1 $337 $336 $440 $441 reversed $338 $-1 #
face $442 $443 $338 $3 $-1 $444 reversed single #
coedge $-1 $445 $340 $446 $447 forward $255 $-1 #
coedge $-1 $440 $448 $340 $401 reversed $449 $-1 #
edge $-1 $402 1.5 $450 3.5 $340 $451 forward 7 unknown #
vertex $-1 $341 $452 #
straight-curve $-1 4 -4 5.75 0 0 -1 I I #
vertex $-1 $350 $453 #
straight-curve $-1 -4 2 7 0 0 -1 I I #
point $-1 -3 1 4.5 #
coedge $-1 $375 $357 $437 $454 forward $173 $-1 #
coedge $-1 $358 $364 $357 $409 reversed $347 $-1 #
edge $-1 $360 0 $455 4 $408 $456 forward 7 unknown #
straight-curve $-1 1 5 7 0 0 1 I I #
point $-1 1 5 4.5 #
edge $-1 $455 -2.5 $365 0 $364 $457 forward 7 unknown #
point $-1 -3 5 7 #
coedge $-1 $369 $368 $424 $458 reversed $230 $-1 #
edge $-1 $416 -6.5 $459 -1 $379 $460 forward 7 unknown #
vertex $-1 $415 $461 #
straight-curve $-1 -3.5 6.5 3 -1 0 0 I I #
MM-bsi-attrib $-1 $-1 $-1 $373 1 4 #
face $462 $463 $464 $3 $-1 $465 reversed single #
plane-surface $-1 -6 -1 4.5 1 0 0 0 1 0 forward_v I I I I #
edge $-1 $438 0 $404 2 $393 $466 forward 7 unknown #
ellipse-curve $-1 -3 2 4.5 0 0 1 0 -1 0 1 I I #
coedge $-1 $467 $378 $468 $469 reversed $306 $-1 #
coedge $-1 $378 $467 $414 $458 forward $306 $-1 #
edge $-1 $470 -1.25 $434 -0.25 $386 $471 forward 7 unknown #
coedge $-1 $472 $379 $467 $473 forward $311 $-1 #
straight-curve $-1 -6 6.5 4.5 0 0 1 I I #
coedge $-1 $383 $474 $475 $476 forward $311 $-1 #
coedge $-1 $448 $440 $383 $430 reversed $449 $-1 #
edge $-1 $477 -3.5 $431 -1.5 $383 $478 forward 7 unknown #
vertex $-1 $384 $479 #
straight-curve $-1 -6 -4 5.75 0 0 1 I I #
coedge $-1 $386 $480 $481 $482 forward $255 $-1 #
vertex $-1 $425 $483 #
straight-curve $-1 4 0 3 0 1 0 I I #
point $-1 4 6.5 3 #
coedge $-1 $391 $390 $407 $454 reversed $274 $-1 #
vertex $-1 $394 $484 #
straight-curve $-1 -4 4 7 0 0 1 I I #
coedge $-1 $429 $400 $397 $441 forward $449 $-1 #
edge $-1 $402 0 $431 10 $397 $485 forward 7 unknown #
MM-bsi-attrib $-1 $-1 $-1 $398 4 1 #
face $486 $487 $488 $3 $-1 $489 reversed single #
plane-surface $-1 -6 -4 7 0 1 0 0 0 1 forward_v I I I I #
coedge $-1 $480 $399 $490 $491 forward $255 $-1 #
coedge $-1 $492 $493 $399 $447 reversed $488 $-1 #
edge $-1 $450 -2.25 $494 -1.25 $399 $495 forward 7 unknown #
coedge $-1 $400 $429 $492 $496 forward $449 $-1 #
loop $-1 $-1 $429 $487 #
vertex $-1 $447 $497 #
straight-curve $-1 4 -2.5 3.5 -0 -1 -0 I I #
point $-1 4 -4 3.5 #
point $-1 -4 2 4.5 #
edge $-1 $455 -3.141592653589793116 $438 -1.570796326794896558 $437 $498 forward 7 unknown #
vertex $-1 $412 $499 #
straight-curve $-1 1 5 4.5 -1 -2.775557561562891351e-17 0 I I #
straight-curve $-1 -3 5 7 0 0 1 I I #
edge $-1 $459 0 $434 10 $414 $500 forward 7 unknown #
vertex $-1 $473 $501 #
straight-curve $-1 -6 0 3 0 -1 0 I I #
point $-1 -6 6.5 3 #
MM-bsi-attrib $-1 $-1 $-1 $419 1 3 #
face $502 $503 $504 $3 $-1 $505 reversed single #
loop $-1 $-1 $468 $419 #
plane-surface $-1 -1 -1 2 0 0 1 0 -1 0 forward_v I I I I #
straight-curve $-1 -4 4 4.5 0 -1 0 I I #
coedge $-1 $424 $423 $426 $473 reversed $306 $-1 #
coedge $-1 $481 $506 $423 $469 forward $464 $-1 #
edge $-1 $507 -2.5 $470 7.5 $468 $508 forward 7 unknown #
vertex $-1 $482 $509 #
straight-curve $-1 4 1 3.25 0 0 1 I I #
coedge $-1 $510 $426 $506 $511 reversed $311 $-1 #
edge $-1 $459 0.25 $507 1.25 $426 $512 forward 7 unknown #
coedge $-1 $428 $510 $513 $514 forward $311 $-1 #
coedge $-1 $493 $492 $428 $476 reversed $488 $-1 #
edge $-1 $515 1.25 $477 2.25 $428 $516 forward 7 unknown #
vertex $-1 $476 $517 #
straight-curve $-1 -6 -2.5 3.5 0 1 0 I I #
point $-1 -6 -4 3.5 #
coedge $-1 $433 $445 $518 $519 reversed $255 $-1 #
coedge $-1 $520 $468 $433 $482 reversed $464 $-1 #
edge $-1 $521 -7.5 $470 2 $433 $522 forward 7 unknown #
point $-1 4 1 3 #
point $-1 -4 4 4.5 #
straight-curve $-1 4 -4 3.5 -1 0 0 I I #
MM-bsi-attrib $-1 $-1 $-1 $443 4 2 #
face $523 $101 $449 $3 $-1 $524 reversed single #
loop $-1 $-1 $493 $443 #
plane-surface $-1 4 -6 7 0 -1 0 0 0 -1 forward_v I I I I #
coedge $-1 $525 $526 $445 $491 reversed $527 $-1 #
edge $-1 $494 4.5 $528 7 $445 $268 forward 7 unknown #
coedge $-1 $475 $446 $448 $496 reversed $488 $-1 #
coedge $-1 $446 $475 $525 $529 reversed $488 $-1 #
vertex $-1 $447 $530 #
straight-curve $-1 4 -6 5.75 0 0 1 I I #
edge $-1 $477 0 $450 10 $492 $531 forward 7 unknown #
point $-1 4 -6 3.5 #
ellipse-curve $-1 -3 4 4.5 0 0 1 0 -1 0 1 I I #
point $-1 -3 5 4.5 #
straight-curve $-1 -6 1 3 1 0 0 I I #
point $-1 -6 1 3 #
MM-bsi-attrib $-1 $-1 $-1 $463 5 1 #
face $532 $533 $534 $3 $-1 $535 reversed single #
loop $-1 $-1 $536 $463 #
plane-surface $-1 -2 -8 7 -1 0 0 0 0 1 forward_v I I I I #
coedge $-1 $468 $537 $472 $511 forward $464 $-1 #
vertex $-1 $511 $538 #
straight-curve $-1 -3.5 1 2 1 0 0 I I #
point $-1 4 1 2 #
coedge $-1 $474 $472 $539 $540 reversed $311 $-1 #
edge $-1 $541 -7.5 $507 2 $472 $542 forward 7 unknown #
straight-curve $-1 -6 1 3.25 0 0 -1 I I #
coedge $-1 $543 $525 $474 $514 reversed $527 $-1 #
edge $-1 $544 -7 $515 -4.5 $474 $318 forward 7 unknown #
vertex $-1 $514 $545 #
straight-curve $-1 -6 -6 5.75 0 0 -1 I I #
point $-1 -6 -6 3.5 #
coedge $-1 $546 $547 $480 $519 forward $548 $-1 #
edge $-1 $521 -2.5 $528 0 $480 $549 forward 7 unknown #
coedge $-1 $550 $481 $547 $551 reversed $464 $-1 #
vertex $-1 $519 $552 #
straight-curve $-1 4 -1 2 0 1 0 I I #
MM-bsi-attrib $-1 $-1 $-1 $487 4 3 #
plane-surface $-1 -6 -4 3.5 0 0 -1 -1 0 0 forward_v I I I I #
coedge $-1 $513 $490 $493 $529 forward $527 $-1 #
coedge $-1 $490 $553 $546 $554 reversed $527 $-1 #
loop $-1 $-1 $555 $556 #
vertex $-1 $519 $557 #
edge $-1 $494 -5 $515 5 $525 $558 forward 7 unknown #
point $-1 4 -6 4.5 #
straight-curve $-1 -6 -6 3.5 1 0 0 I I #
MM-bsi-attrib $-1 $-1 $-1 $503 5 2 #
face $559 $556 $560 $3 $-1 $561 reversed single #
loop $-1 $-1 $562 $503 #
plane-surface $-1 0 -9 7 1 0 0 0 0 -1 forward_v I I I I #
coedge $-1 $563 $564 $565 $566 reversed $504 $-1 #
coedge $-1 $506 $565 $567 $568 reversed $464 $-1 #
point $-1 -6 1 2 #
coedge $-1 $567 $569 $510 $540 forward $570 $-1 #
edge $-1 $544 0 $541 2.5 $510 $571 forward 7 unknown #
vertex $-1 $540 $572 #
straight-curve $-1 -6 -1 2 0 1 0 I I #
coedge $-1 $555 $513 $569 $573 reversed $527 $-1 #
vertex $-1 $514 $574 #
point $-1 -6 -6 4.5 #
coedge $-1 $575 $518 $526 $554 forward $548 $-1 #
coedge $-1 $518 $575 $520 $551 forward $548 $-1 #
loop $-1 $-1 $575 $576 #
straight-curve $-1 4 -8.5 4.5 0 0 1 I I #
coedge $-1 $577 $520 $562 $578 forward $464 $-1 #
edge $-1 $579 1 $521 5 $520 $580 forward 7 unknown #
point $-1 4 -8.5 2 #
coedge $-1 $526 $581 $582 $583 forward $527 $-1 #
edge $-1 $528 -7.5 $584 -3.5 $546 $585 forward 7 unknown #
coedge $-1 $581 $543 $586 $587 forward $527 $-1 #
face $588 $576 $527 $3 $-1 $148 reversed single #
point $-1 4 -8.5 4.5 #
straight-curve $-1 -1 -6 4.5 -1 -0 -0 I I #
MM-bsi-attrib $-1 $-1 $-1 $533 5 3 #
loop $-1 $-1 $589 $533 #
plane-surface $-1 0 -8 7 0 1 0 0 0 1 forward_v I I I I #
coedge $-1 $590 $591 $550 $578 reversed $534 $-1 #
coedge $-1 $586 $536 $592 $593 reversed $504 $-1 #
coedge $-1 $536 $586 $594 $595 reversed $504 $-1 #
coedge $-1 $537 $577 $536 $566 forward $464 $-1 #
edge $-1 $596 3.5 $597 4 $565 $598 forward 7 unknown #
coedge $-1 $594 $539 $537 $568 forward $570 $-1 #
edge $-1 $541 -5 $597 -1 $537 $580 forward 7 unknown #
coedge $-1 $539 $594 $543 $573 forward $570 $-1 #
loop $-1 $-1 $594 $599 #
straight-curve $-1 -6 -8.5 4.5 0 0 -1 I I #
point $-1 -6 -8.5 2 #
edge $-1 $600 -1.5 $544 2.5 $569 $585 forward 7 unknown #
point $-1 -6 -8.5 4.5 #
coedge $-1 $547 $546 $590 $601 forward $548 $-1 #
face $602 $599 $548 $3 $-1 $603 forward single #
coedge $-1 $565 $550 $589 $604 forward $464 $-1 #
edge $-1 $579 -3.5 $605 -3 $550 $606 forward 7 unknown #
vertex $-1 $601 $607 #
straight-curve $-1 -1 -8.5 2 1 0 0 I I #
coedge $-1 $553 $555 $608 $609 forward $527 $-1 #
coedge $-1 $591 $590 $553 $583 reversed $534 $-1 #
edge $-1 $610 2.5 $584 3 $553 $611 forward 7 unknown #
vertex $-1 $554 $612 #
straight-curve $-1 -3.5 -8.5 4.5 -1 -0 -0 I I #
coedge $-1 $564 $563 $555 $587 reversed $504 $-1 #
edge $-1 $600 -3.5 $613 -3 $555 $614 forward 7 unknown #
MM-bsi-attrib $-1 $615 $-1 $556 2 2 #
coedge $-1 $616 $592 $577 $604 reversed $560 $-1 #
coedge $-1 $582 $562 $575 $601 reversed $534 $-1 #
coedge $-1 $562 $582 $616 $617 forward $534 $-1 #
coedge $-1 $589 $608 $563 $593 forward $560 $-1 #
edge $-1 $613 2.5 $596 5 $563 $618 forward 7 unknown #
coedge $-1 $569 $567 $564 $595 forward $570 $-1 #
edge $-1 $597 -3.75 $600 -1.25 $594 $619 forward 7 unknown #
vertex $-1 $604 $620 #
vertex $-1 $568 $621 #
straight-curve $-1 -2 -4.5 2 0 -1 0 I I #
face $622 $398 $570 $3 $-1 $603 forward single #
vertex $-1 $587 $623 #
edge $-1 $584 1.25 $579 3.75 $575 $624 forward 7 unknown #
MM-bsi-attrib $-1 $625 $-1 $576 1 7 #
plane-surface $-1 -1 -8.5 4.5 0 -1 0 1 0 0 forward_v I I I I #
edge $-1 $605 -0.5 $596 1.5 $577 $626 forward 7 unknown #
vertex $-1 $578 $627 #
straight-curve $-1 0 -5 2 0 1 0 I I #
point $-1 0 -8.5 2 #
coedge $-1 $592 $616 $581 $609 reversed $560 $-1 #
edge $-1 $613 1 $610 3 $581 $628 forward 7 unknown #
vertex $-1 $583 $629 #
straight-curve $-1 0 -5.5 4.5 0 -1 0 I I #
point $-1 0 -8.5 4.5 #
vertex $-1 $609 $630 #
straight-curve $-1 -2 -5 4.5 0 1 0 I I #
MM-bsi-attrib $-1 $-1 $588 $556 2 5 #
coedge $-1 $608 $589 $591 $617 reversed $560 $-1 #
edge $-1 $610 2.5 $605 5 $616 $631 forward 7 unknown #
straight-curve $-1 -2 -8 7 0 0 -1 I I #
straight-curve $-1 -2 -8.5 5.75 0 0 1 I I #
point $-1 -2 -8 2 #
point $-1 -2 -8.5 2 #
MM-bsi-attrib $-1 $632 $-1 $599 1 8 #
point $-1 -2 -8.5 4.5 #
straight-curve $-1 0 -8.5 5.75 0 0 -1 I I #
MM-bsi-attrib $-1 $-1 $602 $576 1 1 #
straight-curve $-1 -0.5 -8 2 -1 0 0 I I #
point $-1 0 -8 2 #
straight-curve $-1 -3 -8 4.5 1 0 0 I I #
point $-1 0 -8 4.5 #
point $-1 -2 -8 4.5 #
straight-curve $-1 0 -8 7 0 0 -1 I I #
MM-bsi-attrib $-1 $-1 $622 $599 1 1 #
End-of-ACIS-data 