106 0 1 0           
body $-1 $1 $-1 $2 #
lump $-1 $-1 $3 $0 #
transform $-1 1 0 0 0 1 0 0 0 1 0 0 0 1 1 0 0 #
shell $-1 $-1 $-1 $4 $1 #
face $5 $6 $7 $3 $-1 $8 forward single #
MM-bsi-attrib $-1 $-1 $-1 $4 9 1 #
face $9 $10 $11 $3 $-1 $12 forward single #
loop $-1 $-1 $13 $4 #
cone-surface $-1 0.75 -0.25 7 -0 -0 -1 0.1767766952966368654 0.1767766952966368654 0 1 I I 0 -1 0 I I I I #
MM-bsi-attrib $-1 $-1 $-1 $6 9 2 #
face $14 $15 $16 $3 $-1 $17 reversed single #
loop $-1 $-1 $18 $6 #
cone-surface $-1 -2.75 -0.25 7 0 0 -1 -0.1767766952966368654 0.1767766952966368654 0 1 I I 0 -1 0 I I I I #
coedge $-1 $19 $20 $21 $22 0 $7 $-1 #
MM-bsi-attrib $-1 $-1 $-1 $10 3 1 #
face $23 $24 $25 $3 $-1 $26 reversed single #
loop $-1 $-1 $21 $10 #
plane-surface $-1 1 -9 7 1 0 0 0 0 -1 0 I I I I #
coedge $-1 $27 $28 $29 $30 0 $11 $-1 #
coedge $-1 $31 $13 $32 $33 1 $7 $-1 #
coedge $-1 $13 $31 $34 $35 1 $7 $-1 #
coedge $-1 $36 $37 $13 $22 1 $16 $-1 #
edge $-1 $38 $39 $21 $40 0 #
MM-bsi-attrib $-1 $-1 $-1 $15 8 1 #
face $41 $42 $43 $3 $-1 $44 reversed single #
loop $-1 $45 $46 $15 #
cone-surface $-1 -1 2.999999999630006631 3.75 0 0 -1 -0.5 0 0 1 I I 0 1 0 I I I I #
coedge $-1 $47 $18 $48 $49 1 $11 $-1 #
coedge $-1 $18 $47 $50 $51 1 $11 $-1 #
coedge $-1 $52 $53 $18 $30 1 $54 $-1 #
edge $-1 $55 $56 $29 $57 0 #
coedge $-1 $20 $19 $58 $59 0 $7 $-1 #
coedge $-1 $60 $61 $19 $33 0 $62 $-1 #
edge $-1 $63 $39 $32 $64 0 #
coedge $-1 $65 $66 $20 $35 0 $67 $-1 #
edge $-1 $38 $68 $34 $69 0 #
coedge $-1 $70 $21 $66 $71 1 $16 $-1 #
coedge $-1 $21 $70 $60 $72 1 $16 $-1 #
vertex $-1 $71 $73 #
vertex $-1 $72 $74 #
straight-curve $-1 1 -0.25 7 -0 -0 1 F -3.274999999999999911 F 0.7750000000000003553 #
MM-bsi-attrib $-1 $-1 $-1 $24 7 1 #
face $75 $76 $77 $3 $-1 $78 reversed single #
loop $-1 $-1 $79 $24 #
plane-surface $-1 2 4 7 1 0 0 0 0 -1 0 I I I I #
loop $-1 $-1 $80 $15 #
coedge $-1 $46 $46 $81 $82 1 $25 $-1 #
coedge $-1 $28 $27 $83 $84 0 $11 $-1 #
coedge $-1 $61 $85 $27 $49 0 $62 $-1 #
edge $-1 $86 $56 $48 $87 0 #
coedge $-1 $88 $65 $28 $51 0 $67 $-1 #
edge $-1 $55 $89 $50 $90 0 #
coedge $-1 $58 $29 $65 $91 1 $54 $-1 #
coedge $-1 $29 $58 $61 $92 1 $54 $-1 #
loop $-1 $-1 $58 $93 #
vertex $-1 $91 $94 #
vertex $-1 $92 $95 #
straight-curve $-1 -2.75 0 7 -0 -0 1 F -3.274999999999999911 F 0.7750000000000003553 #
coedge $-1 $53 $52 $31 $59 1 $54 $-1 #
edge $-1 $63 $68 $58 $96 0 #
coedge $-1 $97 $32 $37 $72 0 $62 $-1 #
coedge $-1 $32 $48 $53 $92 0 $62 $-1 #
loop $-1 $-1 $60 $98 #
vertex $-1 $92 $99 #
ellipse-curve $-1 0.75 -0.25 7 0 0 -1 0.1767766952966368654 0.1767766952966368654 0 1 I I #
coedge $-1 $50 $34 $52 $91 0 $67 $-1 #
coedge $-1 $34 $100 $36 $71 0 $67 $-1 #
loop $-1 $-1 $34 $101 #
vertex $-1 $35 $102 #
ellipse-curve $-1 0.75 -0.25 4.5 -0 -0 1 0.1767766952966368654 0.1767766952966368654 0 1 I I #
coedge $-1 $37 $36 $103 $104 1 $16 $-1 #
edge $-1 $105 $38 $36 $106 0 #
edge $-1 $39 $107 $60 $108 0 #
point $-1 1 -0.25 4.5 #
point $-1 1 -0.25 7 #
MM-bsi-attrib $-1 $-1 $-1 $42 7 2 #
face $109 $110 $111 $3 $-1 $112 reversed single #
loop $-1 $-1 $113 $42 #
cone-surface $-1 1 2 7 0 0 1 0 -1 0 1 I I 0 1 0 I I I I #
coedge $-1 $114 $115 $116 $117 1 $43 $-1 #
coedge $-1 $80 $80 $118 $119 1 $45 $-1 #
coedge $-1 $81 $81 $46 $82 0 $120 $-1 #
edge $-1 $121 $121 $81 $122 0 #
coedge $-1 $123 $124 $47 $84 1 $125 $-1 #
edge $-1 $86 $89 $83 $126 0 #
coedge $-1 $48 $127 $123 $128 0 $62 $-1 #
vertex $-1 $128 $129 #
ellipse-curve $-1 -2.75 -0.25 7 0 0 -1 -0.1767766952966368654 0.1767766952966368654 0 1 I I #
coedge $-1 $130 $50 $124 $131 0 $67 $-1 #
vertex $-1 $51 $132 #
ellipse-curve $-1 -2.75 -0.25 4.5 -0 -0 1 -0.1767766952966368654 0.1767766952966368654 0 1 I I #
edge $-1 $68 $55 $52 $133 0 #
edge $-1 $56 $63 $61 $134 0 #
face $135 $136 $54 $3 $-1 $137 reversed single #
point $-1 -2.75 0 4.5 #
point $-1 -2.75 0 7 #
straight-curve $-1 0.75 0 7 0 0 -1 F -0.7750000000000003553 F 3.274999999999999911 #
coedge $-1 $138 $60 $139 $140 0 $62 $-1 #
face $141 $-1 $142 $3 $-1 $143 reversed single #
point $-1 0.75 0 7 #
coedge $-1 $66 $144 $145 $146 0 $67 $-1 #
face $147 $93 $67 $3 $-1 $148 reversed single #
point $-1 0.75 0 4.5 #
coedge $-1 $145 $139 $70 $104 0 $149 $-1 #
edge $-1 $107 $105 $103 $150 0 #
vertex $-1 $146 $151 #
straight-curve $-1 1 0 4.5 0 1 0 I I #
vertex $-1 $104 $152 #
straight-curve $-1 1 -5 7 0 -1 0 I I #
MM-bsi-attrib $-1 $-1 $-1 $76 7 3 #
face $153 $154 $155 $3 $-1 $156 reversed single #
loop $-1 $-1 $157 $76 #
plane-surface $-1 1 1 7 0 -1 0 0 0 -1 0 I I I I #
coedge $-1 $158 $159 $160 $161 1 $77 $-1 #
coedge $-1 $162 $79 $163 $164 1 $43 $-1 #
coedge $-1 $79 $162 $158 $165 0 $43 $-1 #
coedge $-1 $160 $166 $79 $117 0 $142 $-1 #
edge $-1 $167 $168 $116 $169 0 #
coedge $-1 $118 $118 $80 $119 0 $170 $-1 #
edge $-1 $171 $171 $118 $172 0 #
loop $-1 $173 $81 $174 #
vertex $-1 $82 $175 #
ellipse-curve $-1 -1 2.999999999630006631 4.5 0 0 -1 -0.5 0 0 1 I I #
coedge $-1 $176 $83 $85 $128 1 $125 $-1 #
coedge $-1 $83 $176 $88 $131 1 $125 $-1 #
loop $-1 $-1 $83 $136 #
straight-curve $-1 -3 -0.25 7 -0 0 -1 F -0.7750000000000003553 F 3.274999999999999911 #
coedge $-1 $85 $177 $178 $179 0 $62 $-1 #
edge $-1 $180 $86 $85 $181 0 #
point $-1 -3 -0.25 7 #
coedge $-1 $182 $88 $183 $184 0 $67 $-1 #
edge $-1 $89 $185 $124 $186 0 #
point $-1 -3 -0.25 4.5 #
straight-curve $-1 -3 0 4.5 -1 -0 -0 I I #
straight-curve $-1 0 0 7 1 0 0 I I #
MM-bsi-attrib $-1 $-1 $-1 $93 3 2 #
face $187 $188 $125 $3 $-1 $189 reversed single #
plane-surface $-1 1 0 7 0 1 0 0 0 1 0 I I I I #
coedge $-1 $190 $97 $191 $192 0 $62 $-1 #
coedge $-1 $103 $193 $97 $140 1 $149 $-1 #
edge $-1 $107 $194 $97 $195 0 #
MM-bsi-attrib $-1 $-1 $-1 $98 1 5 #
loop $-1 $62 $196 $98 #
plane-surface $-1 -1 -1 7 0 0 -1 0 1 0 0 I I I I #
coedge $-1 $100 $197 $198 $199 1 $67 $-1 #
coedge $-1 $193 $103 $100 $146 1 $149 $-1 #
edge $-1 $200 $105 $145 $201 0 #
MM-bsi-attrib $-1 $202 $-1 $101 2 6 #
plane-surface $-1 -6 -2 4.5 0 0 -1 -1 0 0 0 I I I I #
loop $-1 $-1 $103 $203 #
straight-curve $-1 1 -2 7.000049999999999883 0 0 -1 I I #
point $-1 1 -2 4.5 #
point $-1 1 -2 7 #
MM-bsi-attrib $-1 $-1 $-1 $110 7 4 #
face $204 $205 $206 $3 $-1 $207 reversed single #
loop $-1 $-1 $208 $110 #
cone-surface $-1 -3 2 7 0 0 1 0 -1 0 1 I I 0 1 0 I I I I #
coedge $-1 $209 $210 $211 $212 1 $111 $-1 #
coedge $-1 $213 $113 $115 $165 1 $77 $-1 #
coedge $-1 $113 $213 $209 $214 0 $77 $-1 #
coedge $-1 $211 $116 $113 $161 0 $142 $-1 #
edge $-1 $168 $215 $160 $216 0 #
coedge $-1 $115 $114 $217 $218 1 $43 $-1 #
coedge $-1 $219 $220 $114 $164 0 $221 $-1 #
edge $-1 $222 $167 $114 $223 0 #
edge $-1 $224 $168 $158 $225 0 #
coedge $-1 $116 $226 $219 $227 0 $142 $-1 #
vertex $-1 $227 $228 #
vertex $-1 $117 $229 #
straight-curve $-1 2 1.5 7 0 -1 0 I I #
loop $-1 $230 $118 $231 #
vertex $-1 $119 $232 #
ellipse-curve $-1 -1 2.999999999630006631 3 0 0 1 -0.5 0 0 1 I I #
loop $-1 $-1 $233 $174 #
face $234 $235 $120 $3 $-1 $236 forward single #
point $-1 -0.5 2.999999999630010183 4.5 #
coedge $-1 $124 $123 $237 $238 1 $125 $-1 #
coedge $-1 $127 $190 $239 $240 1 $62 $-1 #
coedge $-1 $241 $237 $127 $179 1 $242 $-1 #
edge $-1 $243 $180 $127 $195 0 #
vertex $-1 $179 $244 #
straight-curve $-1 -3 -0.5 7 0 1 0 I I #
coedge $-1 $197 $130 $245 $246 1 $67 $-1 #
coedge $-1 $237 $241 $130 $184 1 $242 $-1 #
edge $-1 $185 $247 $183 $201 0 #
vertex $-1 $184 $248 #
straight-curve $-1 -3 -9 4.5 -0 -1 -0 I I #
MM-bsi-attrib $-1 $-1 $-1 $136 3 3 #
face $249 $203 $242 $3 $-1 $250 reversed single #
plane-surface $-1 -3 0 7 -1 0 0 0 0 1 0 I I I I #
coedge $-1 $177 $138 $251 $252 1 $62 $-1 #
coedge $-1 $253 $254 $138 $192 1 $255 $-1 #
edge $-1 $194 $256 $191 $257 0 #
coedge $-1 $139 $145 $253 $258 1 $149 $-1 #
vertex $-1 $140 $259 #
straight-curve $-1 1.5 -2 7 1 0 0 I I #
coedge $-1 $260 $261 $262 $263 0 $142 $-1 #
coedge $-1 $144 $182 $264 $265 0 $67 $-1 #
coedge $-1 $266 $253 $144 $199 0 $255 $-1 #
edge $-1 $200 $267 $198 $268 0 #
vertex $-1 $258 $269 #
straight-curve $-1 4 -2 4.5 -1 0 0 I I #
MM-bsi-attrib $-1 $-1 $147 $101 2 2 #
face $270 $271 $149 $3 $-1 $250 reversed single #
MM-bsi-attrib $-1 $-1 $-1 $154 7 5 #
face $272 $273 $274 $3 $-1 $275 reversed single #
loop $-1 $-1 $262 $154 #
plane-surface $-1 -4 2 7 -1 0 0 0 -0 1 0 I I I I #
coedge $-1 $276 $277 $261 $278 1 $155 $-1 #
coedge $-1 $279 $157 $159 $214 1 $111 $-1 #
coedge $-1 $157 $279 $276 $280 0 $111 $-1 #
coedge $-1 $261 $160 $157 $212 0 $142 $-1 #
edge $-1 $215 $281 $211 $282 0 #
coedge $-1 $159 $158 $283 $284 1 $77 $-1 #
edge $-1 $285 $215 $209 $286 0 #
vertex $-1 $161 $287 #
ellipse-curve $-1 1 2 7 0 0 -1 0 -1 0 1 I I #
coedge $-1 $288 $283 $162 $218 0 $173 $-1 #
edge $-1 $224 $222 $162 $289 0 #
coedge $-1 $290 $163 $166 $227 1 $221 $-1 #
coedge $-1 $163 $290 $288 $291 1 $221 $-1 #
loop $-1 $-1 $219 $292 #
vertex $-1 $164 $293 #
straight-curve $-1 2 4 7 0 0 1 I I #
vertex $-1 $165 $294 #
straight-curve $-1 2 2 7 0 0 1 I I #
coedge $-1 $166 $260 $295 $296 0 $142 $-1 #
edge $-1 $297 $167 $166 $298 0 #
point $-1 2 4 7 #
point $-1 2 2 7 #
loop $-1 $-1 $299 $231 #
face $300 $301 $170 $3 $-1 $302 reversed single #
point $-1 -0.5 2.999999999630003078 3 #
coedge $-1 $283 $303 $279 $304 0 $173 $-1 #
MM-bsi-attrib $-1 $-1 $-1 $174 7 9 #
face $305 $231 $306 $3 $-1 $307 reversed single #
plane-surface $-1 -3 1 4.5 -0 -0 1 1 -0 0 0 I I I I #
coedge $-1 $178 $183 $176 $238 0 $242 $-1 #
edge $-1 $185 $180 $237 $308 0 #
coedge $-1 $309 $310 $177 $240 0 $311 $-1 #
edge $-1 $243 $312 $177 $313 0 #
coedge $-1 $183 $178 $310 $314 1 $242 $-1 #
loop $-1 $-1 $237 $188 #
vertex $-1 $314 $315 #
point $-1 -3 -2 7 #
coedge $-1 $310 $316 $182 $246 0 $311 $-1 #
edge $-1 $317 $247 $245 $318 0 #
vertex $-1 $314 $319 #
point $-1 -3 -2 4.5 #
MM-bsi-attrib $-1 $320 $-1 $188 2 3 #
plane-surface $-1 4 -2 7.000099999999999767 0 1 0 0 0 1 0 I I I I #
coedge $-1 $321 $322 $190 $252 0 $323 $-1 #
edge $-1 $312 $256 $190 $324 0 #
coedge $-1 $198 $191 $193 $258 0 $255 $-1 #
coedge $-1 $191 $325 $321 $326 1 $255 $-1 #
loop $-1 $-1 $325 $271 #
vertex $-1 $326 $327 #
straight-curve $-1 4 -1 7 0 1 0 I I #
edge $-1 $194 $200 $253 $328 0 #
point $-1 4 -2 7 #
coedge $-1 $226 $196 $329 $330 0 $142 $-1 #
coedge $-1 $196 $211 $208 $278 0 $142 $-1 #
coedge $-1 $331 $332 $196 $263 1 $206 $-1 #
edge $-1 $333 $334 $196 $335 0 #
coedge $-1 $336 $337 $197 $265 1 $338 $-1 #
edge $-1 $317 $267 $197 $339 0 #
coedge $-1 $340 $198 $337 $341 0 $255 $-1 #
vertex $-1 $199 $342 #
straight-curve $-1 4 -1.5 4.5 -0 -1 -0 I I #
point $-1 4 -2 4.5 #
MM-bsi-attrib $-1 $343 $-1 $203 2 4 #
face $344 $98 $255 $3 $-1 $345 reversed single #
MM-bsi-attrib $-1 $-1 $-1 $205 7 6 #
face $346 $292 $347 $3 $-1 $348 reversed single #
loop $-1 $-1 $329 $205 #
cone-surface $-1 -3 4 7 0 0 1 0 -1 0 1 I I 0 1 0 I I I I #
coedge $-1 $349 $208 $210 $280 1 $155 $-1 #
coedge $-1 $208 $349 $331 $350 1 $155 $-1 #
edge $-1 $281 $333 $261 $351 0 #
coedge $-1 $210 $209 $233 $304 1 $111 $-1 #
edge $-1 $352 $281 $276 $353 0 #
vertex $-1 $212 $354 #
straight-curve $-1 0 1 7 -1 -0 -0 I I #
coedge $-1 $217 $233 $213 $284 0 $173 $-1 #
edge $-1 $285 $224 $213 $355 0 #
vertex $-1 $214 $356 #
straight-curve $-1 1 1 7 0 0 1 I I #
point $-1 1 1 7 #
coedge $-1 $357 $217 $220 $291 0 $173 $-1 #
straight-curve $-1 2 2 4.5 0 1 0 I I #
coedge $-1 $220 $219 $358 $359 1 $221 $-1 #
edge $-1 $222 $360 $220 $361 0 #
face $362 $174 $221 $3 $-1 $363 reversed single #
point $-1 2 4 4.5 #
point $-1 2 2 4.5 #
coedge $-1 $364 $358 $226 $296 1 $347 $-1 #
edge $-1 $365 $297 $226 $366 0 #
vertex $-1 $296 $367 #
ellipse-curve $-1 1 4 7 0 0 -1 0 -1 0 1 I I #
coedge $-1 $368 $369 $370 $371 1 $230 $-1 #
MM-bsi-attrib $-1 $-1 $-1 $231 6 2 #
face $372 $373 $323 $3 $-1 $374 reversed single #
plane-surface $-1 -6 1 3 0 0 1 1 0 0 0 I I I I #
coedge $-1 $233 $375 $349 $376 0 $173 $-1 #
edge $-1 $352 $285 $279 $377 0 #
MM-bsi-attrib $-1 $-1 $-1 $235 6 1 #
loop $-1 $-1 $378 $235 #
plane-surface $-1 -6 1 2 0 -1 0 0 0 -1 0 I I I I #
straight-curve $-1 -3 -2 7.000049999999999883 0 0 1 I I #
coedge $-1 $379 $239 $322 $380 1 $311 $-1 #
coedge $-1 $239 $245 $241 $314 0 $311 $-1 #
loop $-1 $-1 $379 $373 #
vertex $-1 $252 $381 #
straight-curve $-1 -6 -1 7 0 1 0 I I #
edge $-1 $247 $243 $310 $382 0 #
point $-1 -6 -2 7 #
coedge $-1 $245 $383 $336 $384 0 $311 $-1 #
vertex $-1 $265 $385 #
straight-curve $-1 -6 -1.5 4.5 0 1 0 I I #
point $-1 -6 -2 4.5 #
MM-bsi-attrib $-1 $-1 $249 $188 2 1 #
coedge $-1 $370 $251 $254 $326 0 $323 $-1 #
coedge $-1 $251 $370 $309 $380 0 $323 $-1 #
loop $-1 $-1 $370 $301 #
straight-curve $-1 -1 6.5 7 1 0 0 I I #
coedge $-1 $254 $386 $368 $387 0 $255 $-1 #
edge $-1 $256 $388 $254 $389 0 #
point $-1 4 6.5 7 #
straight-curve $-1 4 -2 5.750049999999999883 0 0 -1 I I #
coedge $-1 $390 $391 $260 $330 1 $274 $-1 #
edge $-1 $334 $365 $260 $392 0 #
coedge $-1 $393 $262 $277 $350 0 $206 $-1 #
coedge $-1 $262 $393 $390 $394 0 $206 $-1 #
vertex $-1 $263 $395 #
vertex $-1 $263 $396 #
straight-curve $-1 -4 0.5 7 0 1 0 I I #
coedge $-1 $397 $264 $316 $384 1 $338 $-1 #
coedge $-1 $264 $397 $266 $341 1 $338 $-1 #
loop $-1 $-1 $264 $398 #
straight-curve $-1 -6 -4 4.5 1 0 0 I I #
coedge $-1 $399 $266 $400 $401 0 $255 $-1 #
edge $-1 $267 $402 $266 $403 0 #
point $-1 4 -4 4.5 #
MM-bsi-attrib $-1 $-1 $270 $203 2 1 #
MM-bsi-attrib $-1 $-1 $-1 $271 1 6 #
plane-surface $-1 4 -1 4.5 -1 0 0 0 -1 0 0 I I I I #
MM-bsi-attrib $-1 $-1 $-1 $273 7 7 #
loop $-1 $-1 $295 $273 #
plane-surface $-1 -3 5 7 -2.775557561562891351e-17 1 0 0 -0 1 0 I I I I #
coedge $-1 $277 $276 $303 $376 1 $155 $-1 #
edge $-1 $333 $404 $277 $405 0 #
ellipse-curve $-1 -3 2 7 0 0 -1 0 -1 0 1 I I #
vertex $-1 $280 $406 #
straight-curve $-1 -3 1 7 0 0 1 I I #
point $-1 -3 1 7 #
ellipse-curve $-1 1 2 4.5 0 0 1 0 -1 0 1 I I #
point $-1 1 1 4.5 #
coedge $-1 $407 $288 $408 $409 0 $173 $-1 #
coedge $-1 $295 $408 $290 $359 0 $347 $-1 #
edge $-1 $360 $297 $290 $410 0 #
vertex $-1 $359 $411 #
ellipse-curve $-1 1 4 4.5 0 0 1 0 -1 0 1 I I #
MM-bsi-attrib $-1 $-1 $-1 $292 7 8 #
cone-surface $-1 1 4 7 0 0 1 0 -1 0 1 I I 0 1 0 I I I I #
coedge $-1 $408 $295 $391 $412 1 $347 $-1 #
vertex $-1 $330 $413 #
straight-curve $-1 -2 5 7 1 2.775557561562891351e-17 0 I I #
point $-1 1 5 7 #
coedge $-1 $414 $299 $325 $387 1 $230 $-1 #
coedge $-1 $299 $414 $379 $415 1 $230 $-1 #
coedge $-1 $322 $321 $299 $371 0 $323 $-1 #
edge $-1 $388 $416 $370 $417 0 #
MM-bsi-attrib $-1 $-1 $-1 $301 1 2 #
face $418 $419 $311 $3 $-1 $420 reversed single #
plane-surface $-1 -1 6.5 4.5 0 -1 0 1 0 0 0 I I I I #
coedge $-1 $303 $407 $393 $421 0 $173 $-1 #
edge $-1 $404 $352 $349 $422 0 #
straight-curve $-1 -3 1 4.5 1 0 0 I I #
coedge $-1 $423 $424 $386 $425 1 $306 $-1 #
coedge $-1 $426 $309 $369 $415 0 $311 $-1 #
edge $-1 $416 $312 $309 $427 0 #
point $-1 -6 6.5 7 #
straight-curve $-1 -6 -2 5.750049999999999883 0 0 1 I I #
coedge $-1 $316 $428 $429 $430 0 $311 $-1 #
edge $-1 $431 $317 $316 $432 0 #
point $-1 -6 -4 4.5 #
coedge $-1 $325 $433 $378 $425 0 $255 $-1 #
edge $-1 $434 $388 $325 $435 0 #
vertex $-1 $326 $436 #
straight-curve $-1 4 6.5 4.5 0 0 -1 I I #
coedge $-1 $437 $329 $332 $394 1 $274 $-1 #
coedge $-1 $329 $437 $364 $412 0 $274 $-1 #
ellipse-curve $-1 -3 4 7 0 0 -1 0 -1 0 1 I I #
coedge $-1 $332 $331 $375 $421 1 $206 $-1 #
edge $-1 $438 $334 $390 $439 0 #
point $-1 -4 2 7 #
point $-1 -4 4 7 #
coedge $-1 $337 $336 $440 $441 1 $338 $-1 #
face $442 $443 $338 $3 $-1 $444 reversed single #
coedge $-1 $445 $340 $446 $447 0 $255 $-1 #
coedge $-1 $440 $448 $340 $401 1 $449 $-1 #
edge $-1 $402 $450 $340 $451 0 #
vertex $-1 $341 $452 #
straight-curve $-1 4 -4 5.75 0 0 -1 I I #
vertex $-1 $350 $453 #
straight-curve $-1 -4 2 7 0 0 -1 I I #
point $-1 -3 1 4.5 #
coedge $-1 $375 $357 $437 $454 0 $173 $-1 #
coedge $-1 $358 $364 $357 $409 1 $347 $-1 #
edge $-1 $360 $455 $408 $456 0 #
straight-curve $-1 1 5 7 0 0 1 I I #
point $-1 1 5 4.5 #
edge $-1 $455 $365 $364 $457 0 #
point $-1 -3 5 7 #
coedge $-1 $369 $368 $424 $458 1 $230 $-1 #
edge $-1 $416 $459 $379 $460 0 #
vertex $-1 $415 $461 #
straight-curve $-1 -3.5 6.5 3 -1 0 0 I I #
MM-bsi-attrib $-1 $-1 $-1 $373 1 4 #
face $462 $463 $464 $3 $-1 $465 reversed single #
plane-surface $-1 -6 -1 4.5 1 0 0 0 1 0 0 I I I I #
edge $-1 $438 $404 $393 $466 0 #
ellipse-curve $-1 -3 2 4.5 0 0 1 0 -1 0 1 I I #
coedge $-1 $467 $378 $468 $469 1 $306 $-1 #
coedge $-1 $378 $467 $414 $458 0 $306 $-1 #
edge $-1 $470 $434 $386 $471 0 #
coedge $-1 $472 $379 $467 $473 0 $311 $-1 #
straight-curve $-1 -6 6.5 4.5 0 0 1 I I #
coedge $-1 $383 $474 $475 $476 0 $311 $-1 #
coedge $-1 $448 $440 $383 $430 1 $449 $-1 #
edge $-1 $477 $431 $383 $478 0 #
vertex $-1 $384 $479 #
straight-curve $-1 -6 -4 5.75 0 0 1 I I #
coedge $-1 $386 $480 $481 $482 0 $255 $-1 #
vertex $-1 $425 $483 #
straight-curve $-1 4 0 3 0 1 0 I I #
point $-1 4 6.5 3 #
coedge $-1 $391 $390 $407 $454 1 $274 $-1 #
vertex $-1 $394 $484 #
straight-curve $-1 -4 4 7 0 0 1 I I #
coedge $-1 $429 $400 $397 $441 0 $449 $-1 #
edge $-1 $402 $431 $397 $485 0 #
MM-bsi-attrib $-1 $-1 $-1 $398 4 1 #
face $486 $487 $488 $3 $-1 $489 reversed single #
plane-surface $-1 -6 -4 7 0 1 0 0 0 1 0 I I I I #
coedge $-1 $480 $399 $490 $491 0 $255 $-1 #
coedge $-1 $492 $493 $399 $447 1 $488 $-1 #
edge $-1 $450 $494 $399 $495 0 #
coedge $-1 $400 $429 $492 $496 0 $449 $-1 #
loop $-1 $-1 $429 $487 #
vertex $-1 $447 $497 #
straight-curve $-1 4 -2.5 3.5 -0 -1 -0 I I #
point $-1 4 -4 3.5 #
point $-1 -4 2 4.5 #
edge $-1 $455 $438 $437 $498 0 #
vertex $-1 $412 $499 #
straight-curve $-1 1 5 4.5 -1 -2.775557561562891351e-17 0 I I #
straight-curve $-1 -3 5 7 0 0 1 I I #
edge $-1 $459 $434 $414 $500 0 #
vertex $-1 $473 $501 #
straight-curve $-1 -6 0 3 0 -1 0 I I #
point $-1 -6 6.5 3 #
MM-bsi-attrib $-1 $-1 $-1 $419 1 3 #
face $502 $503 $504 $3 $-1 $505 reversed single #
loop $-1 $-1 $468 $419 #
plane-surface $-1 -1 -1 2 0 0 1 0 -1 0 0 I I I I #
straight-curve $-1 -4 4 4.5 0 -1 0 I I #
coedge $-1 $424 $423 $426 $473 1 $306 $-1 #
coedge $-1 $481 $506 $423 $469 0 $464 $-1 #
edge $-1 $507 $470 $468 $508 0 #
vertex $-1 $482 $509 #
straight-curve $-1 4 1 3.25 0 0 1 I I #
coedge $-1 $510 $426 $506 $511 1 $311 $-1 #
edge $-1 $459 $507 $426 $512 0 #
coedge $-1 $428 $510 $513 $514 0 $311 $-1 #
coedge $-1 $493 $492 $428 $476 1 $488 $-1 #
edge $-1 $515 $477 $428 $516 0 #
vertex $-1 $476 $517 #
straight-curve $-1 -6 -2.5 3.5 0 1 0 I I #
point $-1 -6 -4 3.5 #
coedge $-1 $433 $445 $518 $519 1 $255 $-1 #
coedge $-1 $520 $468 $433 $482 1 $464 $-1 #
edge $-1 $521 $470 $433 $522 0 #
point $-1 4 1 3 #
point $-1 -4 4 4.5 #
straight-curve $-1 4 -4 3.5 -1 0 0 I I #
MM-bsi-attrib $-1 $-1 $-1 $443 4 2 #
face $523 $101 $449 $3 $-1 $524 reversed single #
loop $-1 $-1 $493 $443 #
plane-surface $-1 4 -6 7 0 -1 0 0 0 -1 0 I I I I #
coedge $-1 $525 $526 $445 $491 1 $527 $-1 #
edge $-1 $494 $528 $445 $268 0 #
coedge $-1 $475 $446 $448 $496 1 $488 $-1 #
coedge $-1 $446 $475 $525 $529 1 $488 $-1 #
vertex $-1 $447 $530 #
straight-curve $-1 4 -6 5.75 0 0 1 I I #
edge $-1 $477 $450 $492 $531 0 #
point $-1 4 -6 3.5 #
ellipse-curve $-1 -3 4 4.5 0 0 1 0 -1 0 1 I I #
point $-1 -3 5 4.5 #
straight-curve $-1 -6 1 3 1 0 0 I I #
point $-1 -6 1 3 #
MM-bsi-attrib $-1 $-1 $-1 $463 5 1 #
face $532 $533 $534 $3 $-1 $535 reversed single #
loop $-1 $-1 $536 $463 #
plane-surface $-1 -2 -8 7 -1 0 0 0 0 1 0 I I I I #
coedge $-1 $468 $537 $472 $511 0 $464 $-1 #
vertex $-1 $511 $538 #
straight-curve $-1 -3.5 1 2 1 0 0 I I #
point $-1 4 1 2 #
coedge $-1 $474 $472 $539 $540 1 $311 $-1 #
edge $-1 $541 $507 $472 $542 0 #
straight-curve $-1 -6 1 3.25 0 0 -1 I I #
coedge $-1 $543 $525 $474 $514 1 $527 $-1 #
edge $-1 $544 $515 $474 $318 0 #
vertex $-1 $514 $545 #
straight-curve $-1 -6 -6 5.75 0 0 -1 I I #
point $-1 -6 -6 3.5 #
coedge $-1 $546 $547 $480 $519 0 $548 $-1 #
edge $-1 $521 $528 $480 $549 0 #
coedge $-1 $550 $481 $547 $551 1 $464 $-1 #
vertex $-1 $519 $552 #
straight-curve $-1 4 -1 2 0 1 0 I I #
MM-bsi-attrib $-1 $-1 $-1 $487 4 3 #
plane-surface $-1 -6 -4 3.5 0 0 -1 -1 0 0 0 I I I I #
coedge $-1 $513 $490 $493 $529 0 $527 $-1 #
coedge $-1 $490 $553 $546 $554 1 $527 $-1 #
loop $-1 $-1 $555 $556 #
vertex $-1 $519 $557 #
edge $-1 $494 $515 $525 $558 0 #
point $-1 4 -6 4.5 #
straight-curve $-1 -6 -6 3.5 1 0 0 I I #
MM-bsi-attrib $-1 $-1 $-1 $503 5 2 #
face $559 $556 $560 $3 $-1 $561 reversed single #
loop $-1 $-1 $562 $503 #
plane-surface $-1 0 -9 7 1 0 0 0 0 -1 0 I I I I #
coedge $-1 $563 $564 $565 $566 1 $504 $-1 #
coedge $-1 $506 $565 $567 $568 1 $464 $-1 #
point $-1 -6 1 2 #
coedge $-1 $567 $569 $510 $540 0 $570 $-1 #
edge $-1 $544 $541 $510 $571 0 #
vertex $-1 $540 $572 #
straight-curve $-1 -6 -1 2 0 1 0 I I #
coedge $-1 $555 $513 $569 $573 1 $527 $-1 #
vertex $-1 $514 $574 #
point $-1 -6 -6 4.5 #
coedge $-1 $575 $518 $526 $554 0 $548 $-1 #
coedge $-1 $518 $575 $520 $551 0 $548 $-1 #
loop $-1 $-1 $575 $576 #
straight-curve $-1 4 -8.5 4.5 0 0 1 I I #
coedge $-1 $577 $520 $562 $578 0 $464 $-1 #
edge $-1 $579 $521 $520 $580 0 #
point $-1 4 -8.5 2 #
coedge $-1 $526 $581 $582 $583 0 $527 $-1 #
edge $-1 $528 $584 $546 $585 0 #
coedge $-1 $581 $543 $586 $587 0 $527 $-1 #
face $588 $576 $527 $3 $-1 $148 reversed single #
point $-1 4 -8.5 4.5 #
straight-curve $-1 -1 -6 4.5 -1 -0 -0 I I #
MM-bsi-attrib $-1 $-1 $-1 $533 5 3 #
loop $-1 $-1 $589 $533 #
plane-surface $-1 0 -8 7 0 1 0 0 0 1 0 I I I I #
coedge $-1 $590 $591 $550 $578 1 $534 $-1 #
coedge $-1 $586 $536 $592 $593 1 $504 $-1 #
coedge $-1 $536 $586 $594 $595 1 $504 $-1 #
coedge $-1 $537 $577 $536 $566 0 $464 $-1 #
edge $-1 $596 $597 $565 $598 0 #
coedge $-1 $594 $539 $537 $568 0 $570 $-1 #
edge $-1 $541 $597 $537 $580 0 #
coedge $-1 $539 $594 $543 $573 0 $570 $-1 #
loop $-1 $-1 $594 $599 #
straight-curve $-1 -6 -8.5 4.5 0 0 -1 I I #
point $-1 -6 -8.5 2 #
edge $-1 $600 $544 $569 $585 0 #
point $-1 -6 -8.5 4.5 #
coedge $-1 $547 $546 $590 $601 0 $548 $-1 #
face $602 $599 $548 $3 $-1 $603 forward single #
coedge $-1 $565 $550 $589 $604 0 $464 $-1 #
edge $-1 $579 $605 $550 $606 0 #
vertex $-1 $601 $607 #
straight-curve $-1 -1 -8.5 2 1 0 0 I I #
coedge $-1 $553 $555 $608 $609 0 $527 $-1 #
coedge $-1 $591 $590 $553 $583 1 $534 $-1 #
edge $-1 $610 $584 $553 $611 0 #
vertex $-1 $554 $612 #
straight-curve $-1 -3.5 -8.5 4.5 -1 -0 -0 I I #
coedge $-1 $564 $563 $555 $587 1 $504 $-1 #
edge $-1 $600 $613 $555 $614 0 #
MM-bsi-attrib $-1 $615 $-1 $556 2 2 #
coedge $-1 $616 $592 $577 $604 1 $560 $-1 #
coedge $-1 $582 $562 $575 $601 1 $534 $-1 #
coedge $-1 $562 $582 $616 $617 0 $534 $-1 #
coedge $-1 $589 $608 $563 $593 0 $560 $-1 #
edge $-1 $613 $596 $563 $618 0 #
coedge $-1 $569 $567 $564 $595 0 $570 $-1 #
edge $-1 $597 $600 $594 $619 0 #
vertex $-1 $604 $620 #
vertex $-1 $568 $621 #
straight-curve $-1 -2 -4.5 2 0 -1 0 I I #
face $622 $398 $570 $3 $-1 $603 forward single #
vertex $-1 $587 $623 #
edge $-1 $584 $579 $575 $624 0 #
MM-bsi-attrib $-1 $625 $-1 $576 1 7 #
plane-surface $-1 -1 -8.5 4.5 0 -1 0 1 0 0 0 I I I I #
edge $-1 $605 $596 $577 $626 0 #
vertex $-1 $578 $627 #
straight-curve $-1 0 -5 2 0 1 0 I I #
point $-1 0 -8.5 2 #
coedge $-1 $592 $616 $581 $609 1 $560 $-1 #
edge $-1 $613 $610 $581 $628 0 #
vertex $-1 $583 $629 #
straight-curve $-1 0 -5.5 4.5 0 -1 0 I I #
point $-1 0 -8.5 4.5 #
vertex $-1 $609 $630 #
straight-curve $-1 -2 -5 4.5 0 1 0 I I #
MM-bsi-attrib $-1 $-1 $588 $556 2 5 #
coedge $-1 $608 $589 $591 $617 1 $560 $-1 #
edge $-1 $610 $605 $616 $631 0 #
straight-curve $-1 -2 -8 7 0 0 -1 I I #
straight-curve $-1 -2 -8.5 5.75 0 0 1 I I #
point $-1 -2 -8 2 #
point $-1 -2 -8.5 2 #
MM-bsi-attrib $-1 $632 $-1 $599 1 8 #
point $-1 -2 -8.5 4.5 #
straight-curve $-1 0 -8.5 5.75 0 0 -1 I I #
MM-bsi-attrib $-1 $-1 $602 $576 1 1 #
straight-curve $-1 -0.5 -8 2 -1 0 0 I I #
point $-1 0 -8 2 #
straight-curve $-1 -3 -8 4.5 1 0 0 I I #
point $-1 0 -8 4.5 #
point $-1 -2 -8 4.5 #
straight-curve $-1 0 -8 7 0 0 -1 I I #
MM-bsi-attrib $-1 $-1 $622 $599 1 1 #
End-of-ACIS-data 