106 0 1 0           
-0 body $-1 $1 $-1 $-1 #
-1 lump $-1 $-1 $2 $0 #
-2 shell $-1 $-1 $-1 $3 $1 #
-3 face $-1 $4 $5 $2 $-1 $6 forward single #
-4 face $-1 $7 $8 $2 $-1 $9 forward single #
-5 loop $-1 $-1 $10 $3 #
-6 cone-surface $-1 -0.0153162 -0.0158242 -0.0026670000000000001 0 0 -1 0.0032512000000000001 0 0 1 I I 0 1 0 I I I I #
-7 face $-1 $11 $12 $2 $-1 $13 reversed single #
-8 loop $-1 $-1 $14 $4 #
-9 plane-surface $-1 -0.0136779 -0.012573000000000001 -0.0026670000000000001 0 1 0 0 0 1 0 I I I I #
-10 coedge $-1 $15 $16 $17 $18 1 $5 $-1 #
-11 face $-1 $19 $20 $2 $-1 $21 forward single #
-12 loop $-1 $-1 $22 $7 #
-13 cone-surface $-1 -0.012039599999999999 -0.0062230000000000002 -0.0026670000000000001 0 0 -1 0.0063499999999999997 0 0 1 I I 0 1 0 I I I I #
-14 coedge $-1 $23 $24 $25 $26 1 $8 $-1 #
-15 coedge $-1 $25 $10 $27 $28 1 $5 $-1 #
-16 coedge $-1 $10 $25 $29 $30 0 $5 $-1 #
-17 coedge $-1 $31 $32 $10 $18 0 $33 $-1 #
-18 edge $-1 $34 $35 $10 $36 0 #
-19 face $-1 $37 $33 $2 $-1 $38 forward single #
-20 loop $-1 $-1 $39 $11 #
-21 plane-surface $-1 -0.0056896000000000004 -0.0006223 -0.0026670000000000001 -1 0 0 0 0 1 0 I I I I #
-22 coedge $-1 $40 $41 $42 $43 1 $12 $-1 #
-23 coedge $-1 $42 $14 $44 $45 0 $8 $-1 #
-24 coedge $-1 $14 $42 $46 $47 1 $8 $-1 #
-25 coedge $-1 $16 $15 $14 $26 0 $5 $-1 #
-26 edge $-1 $48 $49 $25 $50 0 #
-27 coedge $-1 $51 $44 $15 $28 0 $52 $-1 #
-28 edge $-1 $48 $34 $15 $53 0 #
-29 coedge $-1 $46 $54 $16 $30 1 $55 $-1 #
-30 edge $-1 $49 $35 $16 $56 0 #
-31 coedge $-1 $57 $17 $54 $58 1 $33 $-1 #
-32 coedge $-1 $17 $57 $51 $59 0 $33 $-1 #
-33 loop $-1 $-1 $32 $19 #
-34 vertex $-1 $18 $60 #
-35 vertex $-1 $18 $61 #
-36 straight-curve $-1 -0.018567400000000001 -0.0158242 -0.0026670000000000001 0 0 -1 I I #
-37 face $-1 $62 $55 $2 $-1 $63 forward single #
-38 plane-surface $-1 -0.018567400000000001 -0.025930579346839001 -0.0026670000000000001 -1 0 0 0 0 1 0 I I I I #
-39 coedge $-1 $64 $65 $66 $67 1 $20 $-1 #
-40 coedge $-1 $66 $22 $68 $69 0 $12 $-1 #
-41 coedge $-1 $22 $66 $70 $71 1 $12 $-1 #
-42 coedge $-1 $24 $23 $22 $43 0 $8 $-1 #
-43 edge $-1 $72 $73 $42 $74 0 #
-44 coedge $-1 $27 $68 $23 $45 1 $52 $-1 #
-45 edge $-1 $48 $72 $23 $75 0 #
-46 coedge $-1 $70 $29 $24 $47 0 $55 $-1 #
-47 edge $-1 $49 $73 $24 $76 0 #
-48 vertex $-1 $28 $77 #
-49 vertex $-1 $26 $78 #
-50 straight-curve $-1 -0.0153162 -0.012573000000000001 -0.0026670000000000001 0 0 -1 I I #
-51 coedge $-1 $79 $27 $32 $59 1 $52 $-1 #
-52 loop $-1 $-1 $80 $62 #
-53 ellipse-curve $-1 -0.0153162 -0.0158242 -0.0026670000000000001 0 0 1 0.0032512000000000001 0 0 1 I I #
-54 coedge $-1 $29 $81 $31 $58 0 $55 $-1 #
-55 loop $-1 $-1 $54 $37 #
-56 ellipse-curve $-1 -0.0153162 -0.0158242 -0.0043179999999999998 0 0 1 0.0032512000000000001 0 0 1 I I #
-57 coedge $-1 $32 $31 $82 $83 1 $33 $-1 #
-58 edge $-1 $84 $35 $31 $85 0 #
-59 edge $-1 $86 $34 $32 $87 0 #
-60 point $-1 -0.018567400000000001 -0.0158242 -0.0026670000000000001 #
-61 point $-1 -0.018567400000000001 -0.0158242 -0.0043179999999999998 #
-62 face $-1 $88 $89 $2 $-1 $90 forward single #
-63 plane-surface $-1 -0.0153162 -0.0158242 -0.0043179999999999998 0 0 1 1 0 0 0 I I I I #
-64 coedge $-1 $91 $39 $92 $93 0 $20 $-1 #
-65 coedge $-1 $39 $91 $94 $95 1 $20 $-1 #
-66 coedge $-1 $41 $40 $39 $67 0 $12 $-1 #
-67 edge $-1 $96 $97 $66 $98 0 #
-68 coedge $-1 $44 $92 $40 $69 1 $52 $-1 #
-69 edge $-1 $72 $96 $40 $99 0 #
-70 coedge $-1 $94 $46 $41 $71 0 $55 $-1 #
-71 edge $-1 $73 $97 $41 $100 0 #
-72 vertex $-1 $45 $101 #
-73 vertex $-1 $43 $102 #
-74 straight-curve $-1 -0.012039599999999999 -0.012573000000000001 -0.0026670000000000001 0 0 -1 I I #
-75 straight-curve $-1 -0.0153162 -0.012573000000000001 -0.0026670000000000001 1 0 0 I I #
-76 straight-curve $-1 -0.0153162 -0.012573000000000001 -0.0043179999999999998 1 0 0 I I #
-77 point $-1 -0.0153162 -0.012573000000000001 -0.0026670000000000001 #
-78 point $-1 -0.0153162 -0.012573000000000001 -0.0043179999999999998 #
-79 coedge $-1 $103 $51 $104 $105 0 $52 $-1 #
-80 coedge $-1 $92 $106 $107 $108 1 $52 $-1 #
-81 coedge $-1 $54 $109 $110 $111 0 $55 $-1 #
-82 coedge $-1 $110 $104 $57 $83 0 $112 $-1 #
-83 edge $-1 $86 $84 $57 $113 0 #
-84 vertex $-1 $58 $114 #
-85 straight-curve $-1 -0.018567400000000001 -0.036036958693677998 -0.0043179999999999998 0 1 0 I I #
-86 vertex $-1 $59 $115 #
-87 straight-curve $-1 -0.018567400000000001 -0.036036958693677998 -0.0026670000000000001 0 1 0 I I #
-88 face $-1 $116 $112 $2 $-1 $117 reversed single #
-89 loop $-1 $118 $119 $62 #
-90 plane-surface $-1 -0.012039599999999999 -0.0062230000000000002 -0.0026670000000000001 0 0 1 1 0 0 0 I I I I #
-91 coedge $-1 $65 $64 $120 $121 1 $20 $-1 #
-92 coedge $-1 $68 $80 $64 $93 1 $52 $-1 #
-93 edge $-1 $96 $122 $64 $123 0 #
-94 coedge $-1 $124 $70 $65 $95 0 $55 $-1 #
-95 edge $-1 $97 $125 $65 $126 0 #
-96 vertex $-1 $69 $127 #
-97 vertex $-1 $67 $128 #
-98 straight-curve $-1 -0.0056896000000000004 -0.0062230000000000002 -0.0026670000000000001 0 0 -1 I I #
-99 ellipse-curve $-1 -0.012039599999999999 -0.0062230000000000002 -0.0026670000000000001 0 0 1 0.0063499999999999997 0 0 1 I I #
-100 ellipse-curve $-1 -0.012039599999999999 -0.0062230000000000002 -0.0043179999999999998 0 0 1 0.0063499999999999997 0 0 1 I I #
-101 point $-1 -0.012039599999999999 -0.012573000000000001 -0.0026670000000000001 #
-102 point $-1 -0.012039599999999999 -0.012573000000000001 -0.0043179999999999998 #
-103 coedge $-1 $129 $79 $130 $131 1 $52 $-1 #
-104 coedge $-1 $82 $132 $79 $105 1 $112 $-1 #
-105 edge $-1 $86 $133 $79 $134 0 #
-106 coedge $-1 $80 $135 $136 $137 0 $52 $-1 #
-107 coedge $-1 $138 $120 $80 $108 0 $139 $-1 #
-108 edge $-1 $122 $140 $80 $141 0 #
-109 coedge $-1 $81 $142 $143 $144 1 $55 $-1 #
-110 coedge $-1 $145 $82 $81 $111 1 $112 $-1 #
-111 edge $-1 $146 $84 $81 $147 0 #
-112 loop $-1 $-1 $82 $88 #
-113 straight-curve $-1 -0.018567400000000001 -0.036036958693677998 -0.0026670000000000001 0 0 -1 I I #
-114 point $-1 -0.018567400000000001 -0.036036958693677998 -0.0043179999999999998 #
-115 point $-1 -0.018567400000000001 -0.036036958693677998 -0.0026670000000000001 #
-116 face $-1 $148 $149 $2 $-1 $150 forward single #
-117 plane-surface $-1 -0.019071636280033999 -0.036637884091924998 0 -0.76604444311897824 0.64278760968653914 0 0 0 1 0 I I I I #
-118 loop $-1 $151 $152 $62 #
-119 coedge $-1 $119 $119 $153 $154 1 $89 $-1 #
-120 coedge $-1 $107 $155 $91 $121 0 $139 $-1 #
-121 edge $-1 $125 $122 $91 $156 0 #
-122 vertex $-1 $93 $157 #
-123 straight-curve $-1 -0.0056896000000000004 -0.0062230000000000002 -0.0026670000000000001 0 1 0 I I #
-124 coedge $-1 $158 $94 $155 $159 1 $55 $-1 #
-125 vertex $-1 $121 $160 #
-126 straight-curve $-1 -0.0056896000000000004 -0.0062230000000000002 -0.0043179999999999998 0 1 0 I I #
-127 point $-1 -0.0056896000000000004 -0.0062230000000000002 -0.0026670000000000001 #
-128 point $-1 -0.0056896000000000004 -0.0062230000000000002 -0.0043179999999999998 #
-129 coedge $-1 $161 $103 $162 $163 0 $52 $-1 #
-130 coedge $-1 $164 $165 $103 $131 0 $166 $-1 #
-131 edge $-1 $167 $133 $103 $168 0 #
-132 coedge $-1 $104 $169 $164 $170 1 $112 $-1 #
-133 vertex $-1 $105 $171 #
-134 straight-curve $-1 -0.020091399999999999 -0.037853191168791003 -0.0026670000000000001 0.64278760968653814 0.76604444311897912 0 I I #
-135 coedge $-1 $106 $172 $173 $174 0 $52 $-1 #
-136 coedge $-1 $175 $176 $106 $137 1 $177 $-1 #
-137 edge $-1 $178 $140 $106 $179 0 #
-138 coedge $-1 $180 $107 $176 $181 0 $139 $-1 #
-139 loop $-1 $-1 $155 $182 #
-140 vertex $-1 $108 $183 #
-141 straight-curve $-1 -0.0072135999999999997 0.0049784 -0.0026670000000000001 1 0 0 I I #
-142 coedge $-1 $109 $184 $185 $186 0 $55 $-1 #
-143 coedge $-1 $187 $188 $109 $144 0 $149 $-1 #
-144 edge $-1 $146 $189 $109 $190 0 #
-145 coedge $-1 $169 $110 $188 $191 0 $112 $-1 #
-146 vertex $-1 $144 $192 #
-147 straight-curve $-1 -0.020091399999999999 -0.037853191168791003 -0.0043179999999999998 0.64278760968653814 0.76604444311897912 0 I I #
-148 face $-1 $193 $194 $2 $-1 $195 forward single #
-149 loop $-1 $-1 $188 $116 #
-150 plane-surface $-1 -0.020091399999999999 -0.026838695584396 0 -1 0 0 0 0 1 0 I I I I #
-151 loop $-1 $196 $197 $62 #
-152 coedge $-1 $152 $152 $198 $199 1 $118 $-1 #
-153 coedge $-1 $153 $153 $119 $154 0 $200 $-1 #
-154 edge $-1 $201 $201 $119 $202 0 #
-155 coedge $-1 $120 $203 $124 $159 0 $139 $-1 #
-156 straight-curve $-1 -0.0056896000000000004 0.0049784 0 0 0 1 I I #
-157 point $-1 -0.0056896000000000004 0.0049784 -0.0026670000000000001 #
-158 coedge $-1 $204 $124 $205 $206 1 $55 $-1 #
-159 edge $-1 $207 $125 $124 $208 0 #
-160 point $-1 -0.0056896000000000004 0.0049784 -0.0043179999999999998 #
-161 coedge $-1 $209 $129 $210 $211 0 $52 $-1 #
-162 coedge $-1 $212 $213 $129 $163 1 $214 $-1 #
-163 edge $-1 $167 $215 $129 $216 0 #
-164 coedge $-1 $217 $130 $132 $170 0 $166 $-1 #
-165 coedge $-1 $130 $217 $212 $218 1 $166 $-1 #
-166 loop $-1 $-1 $165 $219 #
-167 vertex $-1 $131 $220 #
-168 ellipse-curve $-1 -0.012954 -0.039700199999999998 -0.0026670000000000001 0 0 1 0.0066547999999999998 0 0 1 I I #
-169 coedge $-1 $132 $145 $221 $222 0 $112 $-1 #
-170 edge $-1 $133 $223 $132 $224 0 #
-171 point $-1 -0.018051872560067999 -0.035422577015058 -0.0026670000000000001 #
-172 coedge $-1 $135 $225 $226 $227 0 $52 $-1 #
-173 coedge $-1 $228 $229 $135 $174 1 $230 $-1 #
-174 edge $-1 $231 $178 $135 $232 0 #
-175 coedge $-1 $233 $136 $229 $234 0 $177 $-1 #
-176 coedge $-1 $136 $233 $138 $181 1 $177 $-1 #
-177 loop $-1 $-1 $136 $235 #
-178 vertex $-1 $174 $236 #
-179 ellipse-curve $-1 0.013659523396631 0.00053339999999999995 -0.0026670000000000001 0 0 1 0.0044450000000000002 0 0 1 I I #
-180 coedge $-1 $203 $138 $237 $238 1 $139 $-1 #
-181 edge $-1 $140 $239 $138 $240 0 #
-182 face $-1 $241 $139 $2 $-1 $242 forward single #
-183 point $-1 0.013659523396631 0.0049784 -0.0026670000000000001 #
-184 coedge $-1 $142 $204 $243 $244 1 $55 $-1 #
-185 coedge $-1 $245 $246 $142 $186 1 $194 $-1 #
-186 edge $-1 $247 $189 $142 $248 0 #
-187 coedge $-1 $249 $143 $246 $250 0 $149 $-1 #
-188 coedge $-1 $143 $249 $145 $191 1 $149 $-1 #
-189 vertex $-1 $186 $251 #
-190 straight-curve $-1 -0.020091399999999999 -0.037853191168791003 -0.0043179999999999998 0 1 0 I I #
-191 edge $-1 $146 $252 $145 $253 0 #
-192 point $-1 -0.020091399999999999 -0.037853191168791003 -0.0043179999999999998 #
-193 face $-1 $254 $255 $2 $-1 $256 forward single #
-194 loop $-1 $-1 $185 $148 #
-195 cone-surface $-1 -0.0153162 -0.0158242 0 0 0 -1 0.0047752000000000003 0 0 1 I I 0 1 0 I I I I #
-196 loop $-1 $257 $258 $62 #
-197 coedge $-1 $197 $197 $259 $260 1 $151 $-1 #
-198 coedge $-1 $198 $198 $152 $199 0 $261 $-1 #
-199 edge $-1 $262 $262 $152 $263 0 #
-200 loop $-1 $264 $153 $265 #
-201 vertex $-1 $154 $266 #
-202 ellipse-curve $-1 0 0 -0.0026670000000000001 0 0 1 0.0015874999999999999 0 0 1 I I #
-203 coedge $-1 $155 $180 $267 $268 1 $139 $-1 #
-204 coedge $-1 $184 $158 $269 $270 1 $55 $-1 #
-205 coedge $-1 $267 $271 $158 $206 0 $272 $-1 #
-206 edge $-1 $273 $207 $158 $274 0 #
-207 vertex $-1 $159 $275 #
-208 straight-curve $-1 -0.0072135999999999997 0.0049784 -0.0043179999999999998 1 0 0 I I #
-209 coedge $-1 $276 $161 $277 $278 0 $52 $-1 #
-210 coedge $-1 $279 $280 $161 $211 1 $281 $-1 #
-211 edge $-1 $215 $282 $161 $283 0 #
-212 coedge $-1 $284 $162 $165 $218 0 $214 $-1 #
-213 coedge $-1 $162 $284 $279 $285 1 $214 $-1 #
-214 loop $-1 $-1 $162 $286 #
-215 vertex $-1 $163 $287 #
-216 straight-curve $-1 -0.0086763770150580007 -0.034602327439932003 -0.0026670000000000001 0.76604444311897868 -0.6427876096865387 0 I I #
-217 coedge $-1 $165 $164 $288 $289 1 $166 $-1 #
-218 edge $-1 $167 $290 $212 $291 0 #
-219 face $-1 $-1 $166 $2 $-1 $292 reversed single #
-220 point $-1 -0.0086763770150580007 -0.034602327439932003 -0.0026670000000000001 #
-221 coedge $-1 $293 $288 $169 $222 1 $294 $-1 #
-222 edge $-1 $252 $223 $169 $295 0 #
-223 vertex $-1 $222 $296 #
-224 straight-curve $-1 -0.018051872560067999 -0.035422577015058 0 0 0 -1 I I #
-225 coedge $-1 $172 $297 $298 $299 1 $52 $-1 #
-226 coedge $-1 $300 $301 $172 $227 1 $302 $-1 #
-227 edge $-1 $303 $231 $172 $304 0 #
-228 coedge $-1 $305 $173 $301 $306 1 $230 $-1 #
-229 coedge $-1 $173 $307 $175 $234 1 $230 $-1 #
-230 loop $-1 $-1 $228 $308 #
-231 vertex $-1 $227 $309 #
-232 ellipse-curve $-1 -0.058166000000000002 -0.019050000000000001 -0.0026670000000000001 0 0 1 0.078892400000000001 0 0 1 I I #
-233 coedge $-1 $176 $175 $310 $311 0 $177 $-1 #
-234 edge $-1 $178 $312 $175 $313 0 #
-235 face $-1 $308 $177 $2 $-1 $314 forward single #
-236 point $-1 0.017947980098920999 0.001702657932446 -0.0026670000000000001 #
-237 coedge $-1 $310 $315 $180 $238 0 $294 $-1 #
-238 edge $-1 $316 $239 $180 $317 0 #
-239 vertex $-1 $181 $318 #
-240 straight-curve $-1 0.013659523396631 0.0049784 0 0 0 -1 I I #
-241 face $-1 $319 $320 $2 $-1 $321 reversed single #
-242 plane-surface $-1 0.003222961698316 0.0049784 0 0 1 0 0 0 1 0 I I I I #
-243 coedge $-1 $322 $323 $184 $244 0 $255 $-1 #
-244 edge $-1 $247 $324 $184 $325 0 #
-245 coedge $-1 $326 $185 $323 $327 0 $194 $-1 #
-246 coedge $-1 $185 $326 $187 $250 1 $194 $-1 #
-247 vertex $-1 $244 $328 #
-248 ellipse-curve $-1 -0.0153162 -0.0158242 -0.0043179999999999998 0 0 1 0.0047752000000000003 0 0 1 I I #
-249 coedge $-1 $188 $187 $293 $329 1 $149 $-1 #
-250 edge $-1 $189 $330 $187 $331 0 #
-251 point $-1 -0.020091399999999999 -0.0158242 -0.0043179999999999998 #
-252 vertex $-1 $191 $332 #
-253 straight-curve $-1 -0.020091399999999999 -0.037853191168791003 0 0 0 -1 I I #
-254 face $-1 $333 $334 $2 $-1 $335 reversed single #
-255 loop $-1 $-1 $323 $193 #
-256 plane-surface $-1 -0.0136779 -0.011049 0 0 1 0 0 0 1 0 I I I I #
-257 loop $-1 $336 $337 $62 #
-258 coedge $-1 $258 $258 $338 $339 1 $196 $-1 #
-259 coedge $-1 $259 $259 $197 $260 0 $340 $-1 #
-260 edge $-1 $341 $341 $197 $342 0 #
-261 loop $-1 $343 $198 $344 #
-262 vertex $-1 $199 $345 #
-263 ellipse-curve $-1 0.0069849999999999999 -0.038100000000000002 -0.0026670000000000001 0 0 1 0.0015874999999999999 0 0 1 I I #
-264 loop $-1 $-1 $346 $265 #
-265 face $-1 $347 $200 $2 $-1 $348 reversed single #
-266 point $-1 0.0015874999999999999 0 -0.0026670000000000001 #
-267 coedge $-1 $349 $205 $203 $268 0 $272 $-1 #
-268 edge $-1 $207 $316 $267 $350 0 #
-269 coedge $-1 $351 $352 $204 $270 0 $334 $-1 #
-270 edge $-1 $324 $273 $204 $353 0 #
-271 coedge $-1 $205 $349 $351 $354 1 $272 $-1 #
-272 loop $-1 $-1 $271 $333 #
-273 vertex $-1 $206 $355 #
-274 straight-curve $-1 -0.0072135999999999997 -0.0062230000000000002 -0.0043179999999999998 0 1 0 I I #
-275 point $-1 -0.0072135999999999997 0.0049784 -0.0043179999999999998 #
-276 coedge $-1 $356 $209 $357 $358 0 $52 $-1 #
-277 coedge $-1 $359 $360 $209 $278 1 $361 $-1 #
-278 edge $-1 $282 $362 $209 $363 0 #
-279 coedge $-1 $364 $210 $213 $285 0 $281 $-1 #
-280 coedge $-1 $210 $364 $359 $365 1 $281 $-1 #
-281 loop $-1 $-1 $210 $366 #
-282 vertex $-1 $211 $367 #
-283 ellipse-curve $-1 0.0036252857696779999 -0.037033200000000002 -0.0026670000000000001 0 0 1 0.0060451999999999997 0 0 1 I I #
-284 coedge $-1 $213 $212 $368 $369 0 $214 $-1 #
-285 edge $-1 $215 $370 $279 $371 0 #
-286 face $-1 $219 $214 $2 $-1 $372 reversed single #
-287 point $-1 -0.00026049388839900002 -0.041664091867543003 -0.0026670000000000001 #
-288 coedge $-1 $221 $368 $217 $289 0 $294 $-1 #
-289 edge $-1 $290 $223 $288 $373 0 #
-290 vertex $-1 $369 $374 #
-291 straight-curve $-1 -0.0086763770150580007 -0.034602327439932003 0 0 0 -1 I I #
-292 cone-surface $-1 -0.012954 -0.039700199999999998 0 0 0 -1 0.0066547999999999998 0 0 1 I I 0 1 0 I I I I #
-293 coedge $-1 $375 $221 $249 $329 0 $294 $-1 #
-294 loop $-1 $376 $237 $377 #
-295 straight-curve $-1 -0.020091399999999999 -0.037853191168791003 -0.0057149999999999996 0.64278760968653814 0.76604444311897912 0 I I #
-296 point $-1 -0.018051872560067999 -0.035422577015058 -0.0057149999999999996 #
-297 coedge $-1 $225 $378 $379 $380 0 $52 $-1 #
-298 coedge $-1 $381 $382 $225 $299 0 $383 $-1 #
-299 edge $-1 $303 $384 $225 $385 0 #
-300 coedge $-1 $386 $226 $382 $387 1 $302 $-1 #
-301 coedge $-1 $226 $386 $228 $306 0 $302 $-1 #
-302 loop $-1 $-1 $300 $388 #
-303 vertex $-1 $299 $389 #
-304 straight-curve $-1 0.015417800000000001 -0.0055880000000000001 -0.0026670000000000001 1 0 0 I I #
-305 coedge $-1 $390 $228 $391 $392 1 $230 $-1 #
-306 edge $-1 $393 $231 $301 $394 0 #
-307 coedge $-1 $229 $395 $396 $397 0 $230 $-1 #
-308 face $-1 $398 $230 $2 $-1 $399 forward single #
-309 point $-1 0.019569354464748001 -0.0055880000000000001 -0.0026670000000000001 #
-310 coedge $-1 $396 $237 $233 $311 1 $294 $-1 #
-311 edge $-1 $312 $239 $310 $400 0 #
-312 vertex $-1 $311 $401 #
-313 straight-curve $-1 0.017947980098920999 0.001702657932446 0 0 0 -1 I I #
-314 cone-surface $-1 0.013659523396631 0.00053339999999999995 0 0 0 -1 0.0044450000000000002 0 0 1 I I 0 1 0 I I I I #
-315 coedge $-1 $237 $402 $349 $403 0 $294 $-1 #
-316 vertex $-1 $268 $404 #
-317 straight-curve $-1 -0.0072135999999999997 0.0049784 -0.0057149999999999996 1 0 0 I I #
-318 point $-1 0.013659523396631 0.0049784 -0.0057149999999999996 #
-319 face $-1 $405 $406 $2 $-1 $407 reversed single #
-320 loop $-1 $-1 $408 $241 #
-321 plane-surface $-1 0.00381 -0.034924999999999998 -0.0031749999999999999 -2.0000000000000002e-015 0 1 1 0 2.0000000000000002e-015 0 I I I I #
-322 coedge $-1 $409 $243 $352 $410 0 $255 $-1 #
-323 coedge $-1 $243 $409 $245 $327 1 $255 $-1 #
-324 vertex $-1 $270 $411 #
-325 straight-curve $-1 -0.0153162 -0.011049 -0.0043179999999999998 1 0 0 I I #
-326 coedge $-1 $246 $245 $375 $412 0 $194 $-1 #
-327 edge $-1 $247 $413 $245 $414 0 #
-328 point $-1 -0.0153162 -0.011049 -0.0043179999999999998 #
-329 edge $-1 $252 $330 $249 $415 0 #
-330 vertex $-1 $250 $416 #
-331 straight-curve $-1 -0.020091399999999999 -0.0158242 0 0 0 -1 I I #
-332 point $-1 -0.020091399999999999 -0.037853191168791003 -0.0057149999999999996 #
-333 face $-1 $182 $272 $2 $-1 $417 forward single #
-334 loop $-1 $-1 $352 $254 #
-335 cone-surface $-1 -0.012039599999999999 -0.0062230000000000002 0 0 0 -1 0.0048260000000000004 0 0 1 I I 0 1 0 I I I I #
-336 loop $-1 $52 $418 $62 #
-337 coedge $-1 $337 $337 $419 $420 1 $257 $-1 #
-338 coedge $-1 $338 $338 $258 $339 0 $421 $-1 #
-339 edge $-1 $422 $422 $258 $423 0 #
-340 loop $-1 $424 $259 $425 #
-341 vertex $-1 $260 $426 #
-342 ellipse-curve $-1 0.00381 -0.0059690000000000003 -0.0026670000000000001 0 0 1 0.0041554399999999998 0 0 1 I I #
-343 loop $-1 $-1 $427 $344 #
-344 face $-1 $265 $261 $2 $-1 $428 reversed single #
-345 point $-1 0.0085725000000000003 -0.038100000000000002 -0.0026670000000000001 #
-346 coedge $-1 $346 $346 $429 $430 1 $264 $-1 #
-347 face $-1 $431 $432 $2 $-1 $433 reversed single #
-348 cone-surface $-1 0 0 0 0 0 -1 0.0015874999999999999 0 0 1 I I 0 1 0 I I I I #
-349 coedge $-1 $271 $267 $315 $403 1 $272 $-1 #
-350 straight-curve $-1 -0.0072135999999999997 0.0049784 0 0 0 -1 I I #
-351 coedge $-1 $434 $269 $271 $354 0 $334 $-1 #
-352 coedge $-1 $269 $434 $322 $410 1 $334 $-1 #
-353 ellipse-curve $-1 -0.012039599999999999 -0.0062230000000000002 -0.0043179999999999998 0 0 1 0.0048260000000000004 0 0 1 I I #
-354 edge $-1 $273 $435 $351 $436 0 #
-355 point $-1 -0.0072135999999999997 -0.0062230000000000002 -0.0043179999999999998 #
-356 coedge $-1 $437 $276 $438 $439 0 $52 $-1 #
-357 coedge $-1 $440 $441 $276 $358 1 $442 $-1 #
-358 edge $-1 $362 $443 $276 $444 0 #
-359 coedge $-1 $445 $277 $280 $365 0 $361 $-1 #
-360 coedge $-1 $277 $445 $440 $446 1 $361 $-1 #
-361 loop $-1 $-1 $277 $447 #
-362 vertex $-1 $278 $448 #
-363 straight-curve $-1 0.0036252857696779999 -0.043078400000000003 -0.0026670000000000001 1 0 0 I I #
-364 coedge $-1 $280 $279 $449 $450 0 $281 $-1 #
-365 edge $-1 $282 $451 $359 $452 0 #
-366 face $-1 $286 $281 $2 $-1 $453 forward single #
-367 point $-1 0.0036252857696779999 -0.043078400000000003 -0.0026670000000000001 #
-368 coedge $-1 $288 $449 $284 $369 1 $294 $-1 #
-369 edge $-1 $290 $370 $368 $454 0 #
-370 vertex $-1 $450 $455 #
-371 straight-curve $-1 -0.00026049388839900002 -0.041664091867543003 0 0 0 -1 I I #
-372 plane-surface $-1 -0.0044684354517280003 -0.038133209653737003 0 0.6427876096865387 0.76604444311897868 0 0 0 -1 0 I I I I #
-373 ellipse-curve $-1 -0.012954 -0.039700199999999998 -0.0057149999999999996 0 0 1 0.0066547999999999998 0 0 1 I I #
-374 point $-1 -0.0086763770150580007 -0.034602327439932003 -0.0057149999999999996 #
-375 coedge $-1 $456 $293 $326 $412 1 $294 $-1 #
-376 loop $-1 $-1 $457 $377 #
-377 face $-1 $458 $459 $2 $-1 $460 reversed single #
-378 coedge $-1 $297 $437 $461 $462 1 $52 $-1 #
-379 coedge $-1 $463 $464 $297 $380 1 $465 $-1 #
-380 edge $-1 $466 $384 $297 $467 0 #
-381 coedge $-1 $468 $298 $464 $469 1 $383 $-1 #
-382 coedge $-1 $298 $468 $300 $387 0 $383 $-1 #
-383 loop $-1 $-1 $381 $470 #
-384 vertex $-1 $380 $471 #
-385 ellipse-curve $-1 0.015417800000000001 -0.006731 -0.0026670000000000001 0 0 1 0.0011429999999999999 0 0 1 I I #
-386 coedge $-1 $301 $300 $472 $473 0 $302 $-1 #
-387 edge $-1 $474 $303 $382 $475 0 #
-388 face $-1 $235 $302 $2 $-1 $476 forward single #
-389 point $-1 0.015417800000000001 -0.0055880000000000001 -0.0026670000000000001 #
-390 coedge $-1 $438 $305 $477 $478 0 $230 $-1 #
-391 coedge $-1 $472 $479 $305 $392 0 $480 $-1 #
-392 edge $-1 $481 $393 $391 $482 0 #
-393 vertex $-1 $392 $483 #
-394 straight-curve $-1 0.019569354464748001 -0.0055880000000000001 0 0 0 -1 I I #
-395 coedge $-1 $307 $438 $441 $484 0 $230 $-1 #
-396 coedge $-1 $485 $310 $307 $397 1 $294 $-1 #
-397 edge $-1 $486 $312 $396 $487 0 #
-398 face $-1 $447 $442 $2 $-1 $488 forward single #
-399 cone-surface $-1 -0.058166000000000002 -0.019050000000000001 0 0 0 -1 0.078892400000000001 0 0 1 I I 0 1 0 I I I I #
-400 ellipse-curve $-1 0.013659523396631 0.00053339999999999995 -0.0057149999999999996 0 0 1 0.0044450000000000002 0 0 1 I I #
-401 point $-1 0.017947980098920999 0.001702657932446 -0.0057149999999999996 #
-402 coedge $-1 $315 $456 $434 $489 0 $294 $-1 #
-403 edge $-1 $435 $316 $349 $490 0 #
-404 point $-1 -0.0072135999999999997 0.0049784 -0.0057149999999999996 #
-405 face $-1 $491 $492 $2 $-1 $493 reversed single #
-406 loop $-1 $494 $495 $319 #
-407 cone-surface $-1 0.00381 -0.028892500000000002 -0.0057149999999999996 -2.0000000000000002e-015 0 1 0.0015874999999999999 0 3.1750000000000001e-018 1 I I 0 1 0 I I I I #
-408 coedge $-1 $408 $408 $495 $496 0 $320 $-1 #
-409 coedge $-1 $323 $322 $456 $497 1 $255 $-1 #
-410 edge $-1 $324 $498 $322 $499 0 #
-411 point $-1 -0.012039599999999999 -0.011049 -0.0043179999999999998 #
-412 edge $-1 $413 $330 $326 $500 0 #
-413 vertex $-1 $327 $501 #
-414 straight-curve $-1 -0.0153162 -0.011049 0 0 0 -1 I I #
-415 straight-curve $-1 -0.020091399999999999 -0.037853191168791003 -0.0057149999999999996 0 1 0 I I #
-416 point $-1 -0.020091399999999999 -0.0158242 -0.0057149999999999996 #
-417 plane-surface $-1 -0.0072135999999999997 -0.0006223 0 -1 1.0000000000000001e-015 0 0 0 1 0 I I I I #
-418 coedge $-1 $418 $418 $502 $503 1 $336 $-1 #
-419 coedge $-1 $419 $419 $337 $420 0 $504 $-1 #
-420 edge $-1 $505 $505 $337 $506 0 #
-421 loop $-1 $507 $338 $508 #
-422 vertex $-1 $339 $509 #
-423 ellipse-curve $-1 0.0133604 -0.00050799999999999999 -0.0026670000000000001 0 0 1 0.0041554399999999998 0 0 1 I I #
-424 loop $-1 $-1 $510 $425 #
-425 face $-1 $344 $340 $2 $-1 $511 reversed single #
-426 point $-1 0.0079654400000000007 -0.0059690000000000003 -0.0026670000000000001 #
-427 coedge $-1 $427 $427 $512 $513 1 $343 $-1 #
-428 cone-surface $-1 0.0069849999999999999 -0.038100000000000002 0 0 0 -1 0.0015874999999999999 0 0 1 I I 0 1 0 I I I I #
-429 coedge $-1 $429 $429 $346 $430 0 $514 $-1 #
-430 edge $-1 $515 $515 $346 $516 0 #
-431 face $-1 $517 $518 $2 $-1 $519 reversed single #
-432 loop $-1 $-1 $520 $347 #
-433 cone-surface $-1 0.0163068 -0.03048 0 0 0 -1 0.0012700000000000001 0 0 1 I I 0 1 0 I I I I #
-434 coedge $-1 $352 $351 $402 $489 1 $334 $-1 #
-435 vertex $-1 $354 $521 #
-436 straight-curve $-1 -0.0072135999999999997 -0.0062230000000000002 0 0 0 -1 I I #
-437 coedge $-1 $378 $356 $522 $523 1 $52 $-1 #
-438 coedge $-1 $395 $390 $356 $439 1 $230 $-1 #
-439 edge $-1 $443 $524 $356 $525 0 #
-440 coedge $-1 $526 $357 $360 $446 0 $442 $-1 #
-441 coedge $-1 $357 $526 $395 $484 1 $442 $-1 #
-442 loop $-1 $-1 $357 $398 #
-443 vertex $-1 $358 $527 #
-444 ellipse-curve $-1 0.013659523396631 -0.038633399999999998 -0.0026670000000000001 0 0 1 0.0044450000000000002 0 0 1 I I #
-445 coedge $-1 $360 $359 $528 $529 0 $361 $-1 #
-446 edge $-1 $362 $530 $440 $531 0 #
-447 face $-1 $366 $361 $2 $-1 $532 reversed single #
-448 point $-1 0.013659523396631 -0.043078400000000003 -0.0026670000000000001 #
-449 coedge $-1 $368 $528 $364 $450 1 $294 $-1 #
-450 edge $-1 $370 $451 $449 $533 0 #
-451 vertex $-1 $529 $534 #
-452 straight-curve $-1 0.0036252857696779999 -0.043078400000000003 0 0 0 -1 I I #
-453 cone-surface $-1 0.0036252857696779999 -0.037033200000000002 0 0 0 -1 0.0060451999999999997 0 0 1 I I 0 1 0 I I I I #
-454 straight-curve $-1 -0.0086763770150580007 -0.034602327439932003 -0.0057149999999999996 0.76604444311897868 -0.6427876096865387 0 I I #
-455 point $-1 -0.00026049388839900002 -0.041664091867543003 -0.0057149999999999996 #
-456 coedge $-1 $402 $375 $409 $497 0 $294 $-1 #
-457 coedge $-1 $535 $536 $520 $537 1 $376 $-1 #
-458 face $-1 $538 $539 $2 $-1 $540 reversed single #
-459 loop $-1 $541 $542 $377 #
-460 plane-surface $-1 0.013659523396631 0.00053339999999999995 -0.0057149999999999996 0 0 1 1 0 0 0 I I I I #
-461 coedge $-1 $543 $544 $378 $462 0 $545 $-1 #
-462 edge $-1 $466 $546 $378 $547 0 #
-463 coedge $-1 $548 $379 $544 $549 1 $465 $-1 #
-464 coedge $-1 $379 $548 $381 $469 0 $465 $-1 #
-465 loop $-1 $-1 $463 $550 #
-466 vertex $-1 $462 $551 #
-467 straight-curve $-1 0.014274800000000001 -0.031369000000000001 -0.0026670000000000001 0 1 0 I I #
-468 coedge $-1 $382 $381 $552 $553 1 $383 $-1 #
-469 edge $-1 $554 $384 $464 $555 0 #
-470 face $-1 $388 $383 $2 $-1 $556 forward single #
-471 point $-1 0.014274800000000001 -0.006731 -0.0026670000000000001 #
-472 coedge $-1 $552 $391 $386 $473 1 $480 $-1 #
-473 edge $-1 $474 $393 $472 $557 0 #
-474 vertex $-1 $473 $558 #
-475 straight-curve $-1 0.015417800000000001 -0.0055880000000000001 0 0 0 -1 I I #
-476 plane-surface $-1 0.017493577232374002 -0.0055880000000000001 0 0 1 0 0 0 1 0 I I I I #
-477 coedge $-1 $559 $522 $390 $478 1 $539 $-1 #
-478 edge $-1 $481 $524 $477 $560 0 #
-479 coedge $-1 $391 $561 $559 $562 0 $480 $-1 #
-480 loop $-1 $563 $479 $564 #
-481 vertex $-1 $562 $565 #
-482 ellipse-curve $-1 -0.058166000000000002 -0.019050000000000001 0 0 0 1 0.078892400000000001 0 0 1 I I #
-483 point $-1 0.019569354464748001 -0.0055880000000000001 0 #
-484 edge $-1 $443 $486 $395 $566 0 #
-485 coedge $-1 $528 $396 $526 $567 1 $294 $-1 #
-486 vertex $-1 $397 $568 #
-487 ellipse-curve $-1 -0.058166000000000002 -0.019050000000000001 -0.0057149999999999996 0 0 1 0.078892400000000001 0 0 1 I I #
-488 cone-surface $-1 0.013659523396631 -0.038633399999999998 0 0 0 -1 0.0044450000000000002 0 0 1 I I 0 1 0 I I I I #
-489 edge $-1 $498 $435 $434 $569 0 #
-490 straight-curve $-1 -0.0072135999999999997 -0.0062230000000000002 -0.0057149999999999996 0 1 0 I I #
-491 face $-1 $570 $571 $2 $-1 $572 reversed single #
-492 loop $-1 $-1 $573 $405 #
-493 plane-surface $-1 -0.00381 -0.0092075000000000004 -0.0031749999999999999 -2.0000000000000002e-015 0 1 1 0 2.0000000000000002e-015 0 I I I I #
-494 loop $-1 $-1 $574 $319 #
-495 coedge $-1 $495 $495 $408 $496 1 $406 $-1 #
-496 edge $-1 $575 $575 $408 $576 0 #
-497 edge $-1 $413 $498 $409 $577 0 #
-498 vertex $-1 $410 $578 #
-499 straight-curve $-1 -0.012039599999999999 -0.011049 0 0 0 -1 I I #
-500 ellipse-curve $-1 -0.0153162 -0.0158242 -0.0057149999999999996 0 0 1 0.0047752000000000003 0 0 1 I I #
-501 point $-1 -0.0153162 -0.011049 -0.0057149999999999996 #
-502 coedge $-1 $502 $502 $418 $503 0 $579 $-1 #
-503 edge $-1 $580 $580 $418 $581 0 #
-504 loop $-1 $582 $419 $583 #
-505 vertex $-1 $420 $584 #
-506 ellipse-curve $-1 0.0133604 -0.037592 -0.0026670000000000001 0 0 1 0.0041554399999999998 0 0 1 I I #
-507 loop $-1 $-1 $585 $508 #
-508 face $-1 $586 $421 $2 $-1 $587 reversed single #
-509 point $-1 0.017515840000000001 -0.00050799999999999999 -0.0026670000000000001 #
-510 coedge $-1 $510 $510 $588 $589 1 $424 $-1 #
-511 cone-surface $-1 0.00381 -0.0059690000000000003 0.99384617182862101 0 0 1 1.191753592594208 0 0 1 I I 0.76604444311897757 0.64278760968653992 0 I I I I #
-512 coedge $-1 $512 $512 $427 $513 0 $590 $-1 #
-513 edge $-1 $591 $591 $427 $592 0 #
-514 loop $-1 $294 $429 $377 #
-515 vertex $-1 $430 $593 #
-516 ellipse-curve $-1 0 0 -0.0057149999999999996 0 0 1 0.0015874999999999999 0 0 1 I I #
-517 face $-1 $594 $595 $2 $-1 $596 reversed single #
-518 loop $-1 $-1 $597 $431 #
-519 plane-surface $-1 0.015036799999999999 -0.019050000000000001 0 -1 0 0 0 0 1 0 I I I I #
-520 coedge $-1 $598 $599 $457 $537 0 $432 $-1 #
-521 point $-1 -0.0072135999999999997 -0.0062230000000000002 -0.0057149999999999996 #
-522 coedge $-1 $477 $600 $437 $523 0 $539 $-1 #
-523 edge $-1 $546 $524 $437 $601 0 #
-524 vertex $-1 $439 $602 #
-525 ellipse-curve $-1 -0.058166000000000002 -0.019050000000000001 -0.0026670000000000001 0 0 1 0.078892400000000001 0 0 1 I I #
-526 coedge $-1 $441 $440 $485 $567 0 $442 $-1 #
-527 point $-1 0.017947980098920999 -0.039802657932446001 -0.0026670000000000001 #
-528 coedge $-1 $449 $485 $445 $529 1 $294 $-1 #
-529 edge $-1 $451 $530 $528 $603 0 #
-530 vertex $-1 $567 $604 #
-531 straight-curve $-1 0.013659523396631 -0.043078400000000003 0 0 0 -1 I I #
-532 plane-surface $-1 0.0086424045831549993 -0.043078400000000003 0 0 1 0 0 0 1 0 I I I I #
-533 ellipse-curve $-1 0.0036252857696779999 -0.037033200000000002 -0.0057149999999999996 0 0 1 0.0060451999999999997 0 0 1 I I #
-534 point $-1 0.0036252857696779999 -0.043078400000000003 -0.0057149999999999996 #
-535 coedge $-1 $605 $457 $606 $607 1 $376 $-1 #
-536 coedge $-1 $457 $605 $608 $609 0 $376 $-1 #
-537 edge $-1 $610 $611 $520 $612 0 #
-538 face $-1 $550 $545 $2 $-1 $613 forward single #
-539 loop $-1 $-1 $477 $458 #
-540 plane-surface $-1 0.017493577232374002 -0.032511999999999999 0 5e-015 1 0 0 0 1 0 I I I I #
-541 loop $-1 $614 $615 $377 #
-542 coedge $-1 $542 $542 $574 $616 0 $459 $-1 #
-543 coedge $-1 $617 $461 $600 $618 1 $545 $-1 #
-544 coedge $-1 $461 $617 $463 $549 0 $545 $-1 #
-545 loop $-1 $-1 $543 $538 #
-546 vertex $-1 $523 $619 #
-547 ellipse-curve $-1 0.015417800000000001 -0.031369000000000001 -0.0026670000000000001 0 0 1 0.0011429999999999999 0 0 1 I I #
-548 coedge $-1 $464 $463 $620 $621 0 $465 $-1 #
-549 edge $-1 $622 $466 $544 $623 0 #
-550 face $-1 $470 $465 $2 $-1 $624 forward single #
-551 point $-1 0.014274800000000001 -0.031369000000000001 -0.0026670000000000001 #
-552 coedge $-1 $620 $472 $468 $553 0 $480 $-1 #
-553 edge $-1 $474 $554 $552 $625 0 #
-554 vertex $-1 $553 $626 #
-555 straight-curve $-1 0.014274800000000001 -0.006731 0 0 0 -1 I I #
-556 cone-surface $-1 0.015417800000000001 -0.006731 0 0 0 -1 0.0011429999999999999 0 0 1 I I 0 1 0 I I I I #
-557 straight-curve $-1 0.015417800000000001 -0.0055880000000000001 0 1 0 0 I I #
-558 point $-1 0.015417800000000001 -0.0055880000000000001 0 #
-559 coedge $-1 $600 $477 $479 $562 1 $539 $-1 #
-560 straight-curve $-1 0.019569354464748001 -0.032511999999999999 0 0 0 -1 I I #
-561 coedge $-1 $479 $620 $617 $627 0 $480 $-1 #
-562 edge $-1 $628 $481 $479 $629 0 #
-563 loop $-1 $-1 $630 $564 #
-564 face $-1 $377 $480 $2 $-1 $631 forward single #
-565 point $-1 0.019569354464748001 -0.032511999999999999 0 #
-566 straight-curve $-1 0.017947980098920999 -0.039802657932446001 0 0 0 -1 I I #
-567 edge $-1 $530 $486 $485 $632 0 #
-568 point $-1 0.017947980098920999 -0.039802657932446001 -0.0057149999999999996 #
-569 ellipse-curve $-1 -0.012039599999999999 -0.0062230000000000002 -0.0057149999999999996 0 0 1 0.0048260000000000004 0 0 1 I I #
-570 face $-1 $633 $634 $2 $-1 $635 reversed single #
-571 loop $-1 $636 $637 $491 #
-572 cone-surface $-1 -0.00381 -0.0092075000000000004 -0.0057149999999999996 -2.0000000000000002e-015 0 1 0.0015874999999999999 0 3.1750000000000001e-018 1 I I 0 1 0 I I I I #
-573 coedge $-1 $573 $573 $637 $638 0 $492 $-1 #
-574 coedge $-1 $574 $574 $542 $616 1 $494 $-1 #
-575 vertex $-1 $496 $639 #
-576 ellipse-curve $-1 0.00381 -0.028892500000000002 -0.0031749999999999999 2.0000000000000002e-015 0 -1 0.0015874999999999999 0 3.1750000000000001e-018 1 I I #
-577 straight-curve $-1 -0.0153162 -0.011049 -0.0057149999999999996 1 0 0 I I #
-578 point $-1 -0.012039599999999999 -0.011049 -0.0057149999999999996 #
-579 loop $-1 $640 $502 $633 #
-580 vertex $-1 $503 $641 #
-581 ellipse-curve $-1 -0.00381 -0.032131 -0.0026670000000000001 0 0 1 0.0041554399999999998 0 0 1 I I #
-582 loop $-1 $-1 $642 $583 #
-583 face $-1 $643 $504 $2 $-1 $644 reversed single #
-584 point $-1 0.017515840000000001 -0.037592 -0.0026670000000000001 #
-585 coedge $-1 $585 $585 $645 $646 1 $507 $-1 #
-586 face $-1 $425 $647 $2 $-1 $648 reversed single #
-587 cone-surface $-1 0.0133604 -0.00050799999999999999 0.99384617182862101 0 0 1 1.191753592594208 0 0 1 I I 0.76604444311897757 0.64278760968653992 0 I I I I #
-588 coedge $-1 $588 $588 $510 $589 0 $647 $-1 #
-589 edge $-1 $649 $649 $588 $650 0 #
-590 loop $-1 $514 $512 $377 #
-591 vertex $-1 $513 $651 #
-592 ellipse-curve $-1 0.0069849999999999999 -0.038100000000000002 -0.0057149999999999996 0 0 1 0.0015874999999999999 0 0 1 I I #
-593 point $-1 0.0015874999999999999 0 -0.0057149999999999996 #
-594 face $-1 $564 $652 $2 $-1 $653 forward single #
-595 loop $-1 $-1 $654 $517 #
-596 cone-surface $-1 0.0163068 -0.00762 0 0 0 -1 0.0012700000000000001 0 0 1 I I 0 1 0 I I I I #
-597 coedge $-1 $655 $608 $656 $657 1 $518 $-1 #
-598 coedge $-1 $658 $520 $659 $660 1 $432 $-1 #
-599 coedge $-1 $520 $658 $661 $662 0 $432 $-1 #
-600 coedge $-1 $522 $559 $543 $618 0 $539 $-1 #
-601 straight-curve $-1 0.015417800000000001 -0.032511999999999999 -0.0026670000000000001 1 0 0 I I #
-602 point $-1 0.019569354464748001 -0.032511999999999999 -0.0026670000000000001 #
-603 straight-curve $-1 0.0036252857696779999 -0.043078400000000003 -0.0057149999999999996 1 0 0 I I #
-604 point $-1 0.013659523396631 -0.043078400000000003 -0.0057149999999999996 #
-605 coedge $-1 $536 $535 $654 $663 1 $376 $-1 #
-606 coedge $-1 $661 $664 $535 $607 0 $652 $-1 #
-607 edge $-1 $665 $610 $606 $666 0 #
-608 coedge $-1 $597 $659 $536 $609 1 $518 $-1 #
-609 edge $-1 $667 $611 $608 $668 0 #
-610 vertex $-1 $537 $669 #
-611 vertex $-1 $537 $670 #
-612 ellipse-curve $-1 0.0163068 -0.03048 -0.0057149999999999996 0 0 -1 0.0012700000000000001 0 0 1 I I #
-613 cone-surface $-1 0.015417800000000001 -0.031369000000000001 0 0 0 -1 0.0011429999999999999 0 0 1 I I 0 1 0 I I I I #
-614 loop $-1 $671 $672 $377 #
-615 coedge $-1 $615 $615 $673 $674 0 $541 $-1 #
-616 edge $-1 $675 $675 $574 $676 0 #
-617 coedge $-1 $544 $543 $561 $627 1 $545 $-1 #
-618 edge $-1 $628 $546 $600 $677 0 #
-619 point $-1 0.015417800000000001 -0.032511999999999999 -0.0026670000000000001 #
-620 coedge $-1 $561 $552 $548 $621 1 $480 $-1 #
-621 edge $-1 $622 $554 $620 $678 0 #
-622 vertex $-1 $621 $679 #
-623 straight-curve $-1 0.014274800000000001 -0.031369000000000001 0 0 0 -1 I I #
-624 plane-surface $-1 0.014274800000000001 -0.019050000000000001 0 -1 0 0 0 0 1 0 I I I I #
-625 ellipse-curve $-1 0.015417800000000001 -0.006731 0 0 0 1 0.0011429999999999999 0 0 1 I I #
-626 point $-1 0.014274800000000001 -0.006731 0 #
-627 edge $-1 $622 $628 $561 $680 0 #
-628 vertex $-1 $562 $681 #
-629 straight-curve $-1 0.015417800000000001 -0.032511999999999999 0 1 0 0 I I #
-630 coedge $-1 $682 $683 $684 $685 1 $563 $-1 #
-631 plane-surface $-1 0.013659523396631 0.00053339999999999995 0 0 0 1 1 0 0 0 I I I I #
-632 ellipse-curve $-1 0.013659523396631 -0.038633399999999998 -0.0057149999999999996 0 0 1 0.0044450000000000002 0 0 1 I I #
-633 face $-1 $686 $579 $2 $-1 $687 reversed single #
-634 loop $-1 $688 $689 $570 #
-635 cone-surface $-1 -0.00381 -0.032131 -0.0026670000000000001 0 0 -1 0.0021462999999999999 0 0 1 I I 0 1 0 I I I I #
-636 loop $-1 $-1 $673 $491 #
-637 coedge $-1 $637 $637 $573 $638 1 $571 $-1 #
-638 edge $-1 $690 $690 $573 $691 0 #
-639 point $-1 0.0053975000000000004 -0.028892500000000002 -0.0031749999999999999 #
-640 loop $-1 $-1 $692 $633 #
-641 point $-1 0.00034544000000000003 -0.032131 -0.0026670000000000001 #
-642 coedge $-1 $642 $642 $693 $694 1 $582 $-1 #
-643 face $-1 $508 $695 $2 $-1 $696 reversed single #
-644 cone-surface $-1 0.0133604 -0.037592 0.99384617182862101 0 0 1 1.191753592594208 0 0 1 I I 0.76604444311897757 0.64278760968653992 0 I I I I #
-645 coedge $-1 $645 $645 $585 $646 0 $695 $-1 #
-646 edge $-1 $697 $697 $645 $698 0 #
-647 loop $-1 $699 $588 $586 #
-648 cone-surface $-1 0.00381 -0.0059690000000000003 -0.0026670000000000001 0 0 -1 0.0021462999999999999 0 0 1 I I 0 1 0 I I I I #
-649 vertex $-1 $589 $700 #
-650 ellipse-curve $-1 0.00381 -0.0059690000000000003 -0.0043528686329839996 0 0 1 0.0021462999999999999 0 0 1 I I #
-651 point $-1 0.0085725000000000003 -0.038100000000000002 -0.0057149999999999996 #
-652 loop $-1 $-1 $606 $594 #
-653 plane-surface $-1 0.0175768 -0.019050000000000001 0 -1 0 0 0 0 1 0 I I I I #
-654 coedge $-1 $701 $656 $605 $663 0 $595 $-1 #
-655 coedge $-1 $659 $597 $702 $703 1 $518 $-1 #
-656 coedge $-1 $654 $704 $597 $657 0 $595 $-1 #
-657 edge $-1 $705 $667 $597 $706 0 #
-658 coedge $-1 $599 $598 $682 $707 1 $432 $-1 #
-659 coedge $-1 $608 $655 $598 $660 0 $518 $-1 #
-660 edge $-1 $708 $611 $598 $709 0 #
-661 coedge $-1 $684 $606 $599 $662 1 $652 $-1 #
-662 edge $-1 $710 $610 $599 $711 0 #
-663 edge $-1 $667 $665 $654 $712 0 #
-664 coedge $-1 $606 $684 $701 $713 0 $652 $-1 #
-665 vertex $-1 $663 $714 #
-666 straight-curve $-1 0.0175768 0.00053339999999999995 -0.0057149999999999996 0 -1 0 I I #
-667 vertex $-1 $657 $715 #
-668 straight-curve $-1 0.015036799999999999 0.00053339999999999995 -0.0057149999999999996 0 -1 0 I I #
-669 point $-1 0.0175768 -0.03048 -0.0057149999999999996 #
-670 point $-1 0.015036799999999999 -0.03048 -0.0057149999999999996 #
-671 loop $-1 $716 $717 $377 #
-672 coedge $-1 $672 $672 $718 $719 0 $614 $-1 #
-673 coedge $-1 $673 $673 $615 $674 1 $636 $-1 #
-674 edge $-1 $720 $720 $673 $721 0 #
-675 vertex $-1 $616 $722 #
-676 ellipse-curve $-1 0.00381 -0.028892500000000002 -0.0057149999999999996 0 0 1 0.0015874999999999999 0 0 1 I I #
-677 straight-curve $-1 0.015417800000000001 -0.032511999999999999 0 0 0 -1 I I #
-678 straight-curve $-1 0.014274800000000001 -0.031369000000000001 0 0 1 0 I I #
-679 point $-1 0.014274800000000001 -0.031369000000000001 0 #
-680 ellipse-curve $-1 0.015417800000000001 -0.031369000000000001 0 0 0 1 0.0011429999999999999 0 0 1 I I #
-681 point $-1 0.015417800000000001 -0.032511999999999999 0 #
-682 coedge $-1 $702 $630 $658 $707 0 $563 $-1 #
-683 coedge $-1 $630 $702 $704 $723 1 $563 $-1 #
-684 coedge $-1 $664 $661 $630 $685 0 $652 $-1 #
-685 edge $-1 $710 $724 $684 $725 0 #
-686 face $-1 $583 $726 $2 $-1 $727 reversed single #
-687 cone-surface $-1 -0.00381 -0.032131 0.99384617182862101 0 0 1 1.191753592594208 0 0 1 I I 0.76604444311897757 0.64278760968653992 0 I I I I #
-688 loop $-1 $-1 $718 $570 #
-689 coedge $-1 $689 $689 $692 $728 0 $634 $-1 #
-690 vertex $-1 $638 $729 #
-691 ellipse-curve $-1 -0.00381 -0.0092075000000000004 -0.0031749999999999999 2.0000000000000002e-015 0 -1 0.0015874999999999999 0 3.1750000000000001e-018 1 I I #
-692 coedge $-1 $692 $692 $689 $728 1 $640 $-1 #
-693 coedge $-1 $693 $693 $642 $694 0 $726 $-1 #
-694 edge $-1 $730 $730 $693 $731 0 #
-695 loop $-1 $732 $645 $643 #
-696 cone-surface $-1 0.0133604 -0.00050799999999999999 -0.0026670000000000001 0 0 -1 0.0021462999999999999 0 0 1 I I 0 1 0 I I I I #
-697 vertex $-1 $646 $733 #
-698 ellipse-curve $-1 0.0133604 -0.00050799999999999999 -0.0043528686329839996 0 0 1 0.0021462999999999999 0 0 1 I I #
-699 loop $-1 $-1 $734 $586 #
-700 point $-1 0.0059563000000000003 -0.0059690000000000003 -0.0043528686329839996 #
-701 coedge $-1 $704 $654 $664 $713 1 $595 $-1 #
-702 coedge $-1 $683 $682 $655 $703 0 $563 $-1 #
-703 edge $-1 $708 $705 $655 $735 0 #
-704 coedge $-1 $656 $701 $683 $723 0 $595 $-1 #
-705 vertex $-1 $657 $736 #
-706 straight-curve $-1 0.015036799999999999 -0.00762 0 0 0 -1 I I #
-707 edge $-1 $710 $708 $658 $737 0 #
-708 vertex $-1 $660 $738 #
-709 straight-curve $-1 0.015036799999999999 -0.03048 0 0 0 -1 I I #
-710 vertex $-1 $707 $739 #
-711 straight-curve $-1 0.0175768 -0.03048 0 0 0 -1 I I #
-712 ellipse-curve $-1 0.0163068 -0.00762 -0.0057149999999999996 0 0 -1 0.0012700000000000001 0 0 1 I I #
-713 edge $-1 $724 $665 $701 $740 0 #
-714 point $-1 0.0175768 -0.00762 -0.0057149999999999996 #
-715 point $-1 0.015036799999999999 -0.00762 -0.0057149999999999996 #
-716 loop $-1 $741 $742 $377 #
-717 coedge $-1 $717 $717 $743 $744 0 $671 $-1 #
-718 coedge $-1 $718 $718 $672 $719 1 $688 $-1 #
-719 edge $-1 $745 $745 $718 $746 0 #
-720 vertex $-1 $674 $747 #
-721 ellipse-curve $-1 -0.00381 -0.0092075000000000004 -0.0057149999999999996 0 0 1 0.0015874999999999999 0 0 1 I I #
-722 point $-1 0.0053975000000000004 -0.028892500000000002 -0.0057149999999999996 #
-723 edge $-1 $724 $705 $704 $748 0 #
-724 vertex $-1 $713 $749 #
-725 straight-curve $-1 0.0175768 -0.03048 0 0 1 0 I I #
-726 loop $-1 $750 $693 $686 #
-727 cone-surface $-1 0.0133604 -0.037592 -0.0026670000000000001 0 0 -1 0.0021462999999999999 0 0 1 I I 0 1 0 I I I I #
-728 edge $-1 $751 $751 $689 $752 0 #
-729 point $-1 -0.0053975000000000004 -0.0092075000000000004 -0.0031749999999999999 #
-730 vertex $-1 $694 $753 #
-731 ellipse-curve $-1 0.0133604 -0.037592 -0.0043528686329839996 0 0 1 0.0021462999999999999 0 0 1 I I #
-732 loop $-1 $-1 $754 $643 #
-733 point $-1 0.0155067 -0.00050799999999999999 -0.0043528686329839996 #
-734 coedge $-1 $734 $734 $755 $756 1 $699 $-1 #
-735 straight-curve $-1 0.015036799999999999 -0.03048 0 0 1 0 I I #
-736 point $-1 0.015036799999999999 -0.00762 0 #
-737 ellipse-curve $-1 0.0163068 -0.03048 0 0 0 -1 0.0012700000000000001 0 0 1 I I #
-738 point $-1 0.015036799999999999 -0.03048 0 #
-739 point $-1 0.0175768 -0.03048 0 #
-740 straight-curve $-1 0.0175768 -0.00762 0 0 0 -1 I I #
-741 loop $-1 $590 $755 $377 #
-742 coedge $-1 $742 $742 $754 $757 0 $716 $-1 #
-743 coedge $-1 $743 $743 $717 $744 1 $750 $-1 #
-744 edge $-1 $758 $758 $743 $759 0 #
-745 vertex $-1 $719 $760 #
-746 ellipse-curve $-1 -0.00381 -0.032131 -0.0057149999999999996 0 0 1 0.0021462999999999999 0 0 1 I I #
-747 point $-1 -0.0022225000000000001 -0.0092075000000000004 -0.0057149999999999996 #
-748 ellipse-curve $-1 0.0163068 -0.00762 0 0 0 1 0.0012700000000000001 0 0 1 I I #
-749 point $-1 0.0175768 -0.00762 0 #
-750 loop $-1 $-1 $743 $686 #
-751 vertex $-1 $728 $761 #
-752 ellipse-curve $-1 -0.00381 -0.032131 -0.0043528686329839996 0 0 1 0.0021462999999999999 0 0 1 I I #
-753 point $-1 0.0155067 -0.037592 -0.0043528686329839996 #
-754 coedge $-1 $754 $754 $742 $757 1 $732 $-1 #
-755 coedge $-1 $755 $755 $734 $756 0 $741 $-1 #
-756 edge $-1 $762 $762 $734 $763 0 #
-757 edge $-1 $764 $764 $754 $765 0 #
-758 vertex $-1 $744 $766 #
-759 ellipse-curve $-1 0.0133604 -0.037592 -0.0057149999999999996 0 0 1 0.0021462999999999999 0 0 1 I I #
-760 point $-1 -0.0016636999999999999 -0.032131 -0.0057149999999999996 #
-761 point $-1 -0.0016636999999999999 -0.032131 -0.0043528686329839996 #
-762 vertex $-1 $756 $767 #
-763 ellipse-curve $-1 0.00381 -0.0059690000000000003 -0.0057149999999999996 0 0 1 0.0021462999999999999 0 0 1 I I #
-764 vertex $-1 $757 $768 #
-765 ellipse-curve $-1 0.0133604 -0.00050799999999999999 -0.0057149999999999996 0 0 1 0.0021462999999999999 0 0 1 I I #
-766 point $-1 0.0155067 -0.037592 -0.0057149999999999996 #
-767 point $-1 0.0059563000000000003 -0.0059690000000000003 -0.0057149999999999996 #
-768 point $-1 0.0155067 -0.00050799999999999999 -0.0057149999999999996 #
End-of-ACIS-data 