400 0 1 0           
7 Unknown 11 ACIS 4.0 NT 24 Wed Oct 14 16:39:53 1998 
-1 9.9999999999999995e-007 1e-010 
body $1 $2 $-1 $-1 #
display_attribute-st-attrib $-1 $3 $-1 $0 1 #
lump $-1 $-1 $4 $0 #
id_attribute-st-attrib $-1 $-1 $1 $0 5 #
shell $-1 $-1 $-1 $5 $-1 $2 #
face $-1 $6 $7 $4 $-1 $8 reversed single #
face $-1 $9 $10 $4 $-1 $11 reversed single #
loop $-1 $12 $13 $5 #
torus-surface $-1 -208.66141732283501 0 31.496062992125999 0 0 1 243.41859221771699 29.5275590551181 1 0 0 forward_v I I I I #
face $-1 $14 $15 $4 $-1 $16 reversed single #
loop $-1 $17 $18 $6 #
torus-surface $-1 -208.66141732283501 0 11.8110236220472 0 0 1 250 9.8425196850393704 1 0 0 forward_v I I I I #
loop $-1 $-1 $19 $5 #
coedge $-1 $13 $13 $20 $21 forward $7 $-1 #
face $-1 $22 $23 $4 $-1 $24 reversed single #
loop $-1 $25 $26 $9 #
torus-surface $-1 -208.66141732283501 0 4.9212598425196896 0 0 1 298.36013131795301 3.9370078740157499 1 0 0 forward_v I I I I #
loop $-1 $-1 $27 $6 #
coedge $-1 $18 $18 $28 $29 forward $10 $-1 #
coedge $-1 $19 $19 $30 $31 reversed $12 $-1 #
coedge $-1 $20 $20 $13 $21 reversed $32 $-1 #
edge $-1 $33 $33 $13 $34 forward #
face $-1 $35 $36 $4 $-1 $37 reversed single #
loop $-1 $38 $39 $14 #
torus-surface $-1 -208.66141732283501 0 -4.9212598425196896 0 0 1 298.36013131795301 3.9370078740157499 1 0 0 forward_v I I I I #
loop $-1 $-1 $40 $9 #
coedge $-1 $26 $26 $41 $42 reversed $15 $-1 #
coedge $-1 $27 $27 $43 $44 reversed $17 $-1 #
coedge $-1 $28 $28 $18 $29 reversed $45 $-1 #
edge $-1 $46 $46 $18 $47 forward #
coedge $-1 $30 $30 $19 $31 forward $48 $-1 #
edge $-1 $49 $49 $19 $50 forward #
loop $-1 $51 $20 $52 #
vertex $-1 $21 $53 #
ellipse-curve $-1 -208.66141732283501 0 1.9685039370078701 0 0 1 243.41859221771699 0 0 1 I I #
face $-1 $54 $55 $4 $-1 $56 reversed single #
loop $-1 $57 $58 $22 #
torus-surface $-1 -208.66141732283501 0 -31.496062992125999 0 0 1 243.41859221771699 29.5275590551181 1 0 0 forward_v I I I I #
loop $-1 $-1 $59 $14 #
coedge $-1 $39 $39 $60 $61 reversed $23 $-1 #
coedge $-1 $40 $40 $62 $63 reversed $25 $-1 #
coedge $-1 $41 $41 $26 $42 forward $64 $-1 #
edge $-1 $65 $65 $26 $66 forward #
coedge $-1 $43 $43 $27 $44 forward $51 $-1 #
edge $-1 $67 $67 $27 $68 forward #
loop $-1 $69 $28 $70 #
vertex $-1 $29 $71 #
ellipse-curve $-1 -208.66141732283501 0 5.9055118110236204 0 0 1 257.87401574803198 0 0 1 I I #
loop $-1 $-1 $30 $72 #
vertex $-1 $31 $73 #
ellipse-curve $-1 -208.66141732283501 0 7.3818897637795304 0 0 1 226.37795275590599 0 0 1 I I #
loop $-1 $-1 $43 $52 #
face $-1 $70 $32 $4 $-1 $74 reversed single #
point $-1 34.757174894881899 0 1.9685039370078701 #
face $-1 $75 $76 $4 $-1 $77 reversed single #
loop $-1 $78 $79 $35 #
torus-surface $-1 -208.66141732283501 0 -5.9055118110236204 0 0 1 261.811023622047 3.9370078740157499 1 0 0 forward_v I I I I #
loop $-1 $-1 $80 $22 #
coedge $-1 $58 $58 $81 $82 reversed $36 $-1 #
coedge $-1 $59 $59 $83 $84 reversed $38 $-1 #
coedge $-1 $60 $60 $39 $61 forward $85 $-1 #
edge $-1 $86 $86 $39 $87 forward #
coedge $-1 $62 $62 $40 $63 forward $88 $-1 #
edge $-1 $89 $89 $40 $90 forward #
loop $-1 $91 $41 $92 #
vertex $-1 $42 $93 #
ellipse-curve $-1 -208.66141732283501 0 1.1366591981015299 0 0 -1 299.444948796765 0 0 1 I I #
vertex $-1 $44 $94 #
ellipse-curve $-1 -208.66141732283501 0 1.9685039370078701 0 0 1 250 0 0 1 I I #
loop $-1 $-1 $95 $70 #
face $-1 $96 $45 $4 $-1 $97 reversed single #
point $-1 49.212598425196902 0 5.9055118110236204 #
face $-1 $52 $98 $4 $-1 $99 reversed single #
point $-1 17.716535433070899 0 7.3818897637795304 #
plane-surface $-1 38.047878786023603 0 1.9685039370078701 0 0 -1 -1 0 0 forward_v I I I I #
face $-1 $100 $101 $4 $-1 $102 forward single #
loop $-1 $103 $104 $54 #
torus-surface $-1 -208.66141732283501 0 -16.929133858267701 0 0 -1 264.96062992126002 0.78740157480314998 -1 0 0 forward_v I I I I #
loop $-1 $-1 $105 $35 #
coedge $-1 $79 $79 $106 $107 reversed $55 $-1 #
coedge $-1 $80 $80 $108 $109 forward $57 $-1 #
coedge $-1 $81 $81 $58 $82 forward $110 $-1 #
edge $-1 $111 $111 $58 $112 forward #
coedge $-1 $83 $83 $59 $84 forward $113 $-1 #
edge $-1 $114 $114 $59 $115 forward #
loop $-1 $116 $60 $117 #
vertex $-1 $61 $118 #
ellipse-curve $-1 -208.66141732283501 0 -1.9685039370078701 0 0 -1 -295.75604538186599 0 0 1 I I #
loop $-1 $119 $62 $120 #
vertex $-1 $63 $121 #
ellipse-curve $-1 -208.66141732283501 0 1.9685039370078701 0 0 1 295.75604538186599 0 0 1 I I #
loop $-1 $-1 $122 $92 #
face $-1 $123 $64 $4 $-1 $124 forward single #
point $-1 90.783531473930694 0 1.1366591981015299 #
point $-1 41.338582677165299 0 1.9685039370078701 #
coedge $-1 $95 $95 $125 $126 forward $69 $-1 #
face $-1 $120 $127 $4 $-1 $128 forward single #
plane-surface $-1 51.181102362204697 0 5.9055118110236204 0 0 -1 -1 0 0 forward_v I I I I #
loop $-1 $48 $129 $72 #
plane-surface $-1 8.8582677165354298 0 7.3818897637795304 0 0 -1 -1 0 0 forward_v I I I I #
face $-1 $130 $131 $4 $-1 $132 reversed single #
loop $-1 $133 $134 $75 #
torus-surface $-1 -208.66141732283501 0 -18.503937007874001 0 0 1 266.53543307086602 1.1811023622047201 1 0 0 forward_v I I I I #
loop $-1 $-1 $135 $54 #
coedge $-1 $104 $104 $136 $137 reversed $76 $-1 #
coedge $-1 $105 $105 $138 $139 reversed $78 $-1 #
coedge $-1 $106 $106 $79 $107 forward $140 $-1 #
edge $-1 $141 $141 $79 $142 forward #
coedge $-1 $108 $108 $80 $109 reversed $143 $-1 #
edge $-1 $144 $144 $80 $145 forward #
loop $-1 $-1 $81 $146 #
vertex $-1 $82 $147 #
ellipse-curve $-1 -208.66141732283501 0 -1.9685039370078701 0 0 1 243.41859221771699 0 0 1 I I #
loop $-1 $148 $83 $149 #
vertex $-1 $84 $150 #
ellipse-curve $-1 -208.66141732283501 0 -1.1366591981015299 0 0 1 -299.444948796765 0 0 1 I I #
loop $-1 $-1 $151 $117 #
face $-1 $152 $85 $4 $-1 $153 reversed single #
point $-1 -504.41746270469997 0 -1.9685039370078701 #
loop $-1 $-1 $154 $120 #
face $-1 $92 $88 $4 $-1 $155 reversed single #
point $-1 87.094628059031095 0 1.9685039370078701 #
coedge $-1 $122 $122 $156 $157 forward $91 $-1 #
face $-1 $158 $159 $4 $-1 $160 reversed single #
cone-surface $-1 -208.66141732283501 0 1.47637795275591 0 0 -1 -298.54613745623999 0 0 1 I I 0.93541434669416601 0.35355339059147201 298.54613745623999 forward I I I I #
coedge $-1 $125 $125 $95 $126 reversed $161 $-1 #
edge $-1 $162 $162 $95 $163 forward #
loop $-1 $161 $164 $96 #
cone-surface $-1 -208.66141732283501 0 3.9370078740157499 0 0 1 261.811023622047 0 0 1 I I 0 1 261.811023622047 forward I I I I #
coedge $-1 $129 $129 $165 $166 reversed $98 $-1 #
face $-1 $167 $168 $4 $-1 $169 reversed single #
loop $-1 $170 $171 $100 #
torus-surface $-1 -208.66141732283501 0 -3.1496062992125999 0 0 1 268.89763779527601 1.1811023622047201 1 0 0 forward_v I I I I #
loop $-1 $-1 $172 $75 #
coedge $-1 $134 $134 $173 $174 reversed $101 $-1 #
coedge $-1 $135 $135 $175 $176 reversed $103 $-1 #
coedge $-1 $136 $136 $104 $137 forward $177 $-1 #
edge $-1 $178 $178 $104 $179 forward #
coedge $-1 $138 $138 $105 $139 forward $180 $-1 #
edge $-1 $181 $181 $105 $182 forward #
loop $-1 $110 $106 $146 #
vertex $-1 $107 $183 #
ellipse-curve $-1 -208.66141732283501 0 -1.9685039370078701 0 0 -1 261.811023622047 0 0 1 I I #
loop $-1 $184 $108 $185 #
vertex $-1 $109 $186 #
ellipse-curve $-1 -208.66141732283501 0 -7.3818897637795304 0 0 1 226.37795275590599 0 0 1 I I #
face $-1 $185 $140 $4 $-1 $187 reversed single #
point $-1 34.757174894881899 0 -1.9685039370078701 #
loop $-1 $-1 $188 $149 #
face $-1 $117 $113 $4 $-1 $189 forward single #
point $-1 -508.10636611960001 0 -1.1366591981015299 #
coedge $-1 $151 $151 $190 $191 forward $116 $-1 #
face $-1 $192 $193 $4 $-1 $194 forward single #
plane-surface $-1 73.818897637795303 0 -1.9685039370078701 0 0 1 1 0 0 forward_v I I I I #
coedge $-1 $154 $154 $195 $196 forward $119 $-1 #
plane-surface $-1 70.866141732283495 0 1.9685039370078701 0 0 -1 -1 0 0 forward_v I I I I #
coedge $-1 $156 $156 $122 $157 reversed $197 $-1 #
edge $-1 $198 $198 $122 $199 forward #
face $-1 $200 $201 $4 $-1 $202 reversed single #
loop $-1 $197 $203 $123 #
plane-surface $-1 116.459523283012 0 0.98425196850393704 0 0 -1 -1 0 0 forward_v I I I I #
loop $-1 $-1 $125 $96 #
vertex $-1 $126 $204 #
ellipse-curve $-1 -208.66141732283501 0 5.9055118110236204 0 0 1 261.811023622047 0 0 1 I I #
coedge $-1 $164 $164 $205 $206 forward $127 $-1 #
coedge $-1 $165 $165 $129 $166 forward $207 $-1 #
edge $-1 $208 $208 $165 $209 forward #
face $-1 $210 $211 $4 $-1 $212 reversed single #
loop $-1 $213 $214 $130 #
torus-surface $-1 -208.66141732283501 0 -12.795275590551199 0 0 1 338.58267716535403 11.8110236220472 1 0 0 forward_v I I I I #
loop $-1 $-1 $190 $100 #
coedge $-1 $171 $171 $215 $216 reversed $131 $-1 #
coedge $-1 $172 $172 $217 $218 reversed $133 $-1 #
coedge $-1 $173 $173 $134 $174 forward $219 $-1 #
edge $-1 $220 $220 $134 $221 forward #
coedge $-1 $175 $175 $135 $176 forward $222 $-1 #
edge $-1 $223 $223 $135 $224 forward #
loop $-1 $180 $136 $225 #
vertex $-1 $137 $226 #
ellipse-curve $-1 -208.66141732283501 0 -16.929133858267701 0 0 -1 -265.74803149606299 0 0 1 I I #
loop $-1 $-1 $138 $225 #
vertex $-1 $139 $227 #
ellipse-curve $-1 -208.66141732283501 0 -5.9055118110236204 0 0 1 265.74803149606299 0 0 1 I I #
point $-1 53.1496062992126 0 -1.9685039370078701 #
loop $-1 $-1 $228 $185 #
face $-1 $-1 $143 $4 $-1 $229 reversed single #
point $-1 17.716535433070899 0 -7.3818897637795304 #
plane-surface $-1 45.921894534055099 0 -1.9685039370078701 0 0 1 1 0 0 forward_v I I I I #
coedge $-1 $188 $188 $230 $231 reversed $148 $-1 #
cone-surface $-1 -208.66141732283501 0 -1.47637795275591 0 0 1 298.54613745623999 0 0 1 I I 0.93541434669416601 0.35355339059147201 298.54613745623999 forward I I I I #
coedge $-1 $190 $190 $151 $191 reversed $170 $-1 #
edge $-1 $232 $232 $190 $233 forward #
face $-1 $234 $219 $4 $-1 $235 reversed single #
loop $-1 $236 $215 $152 #
cone-surface $-1 -208.66141732283501 0 -10.8267716535433 0 0 1 267.71653543307099 0 0 1 I I 0 1 267.71653543307099 forward I I I I #
coedge $-1 $195 $195 $154 $196 reversed $237 $-1 #
edge $-1 $238 $238 $195 $239 forward #
loop $-1 $-1 $156 $123 #
vertex $-1 $157 $240 #
ellipse-curve $-1 -208.66141732283501 0 0.98425196850393704 0 0 1 299.848180424291 0 0 1 I I #
face $-1 $241 $242 $4 $-1 $243 reversed single #
loop $-1 $244 $245 $158 #
plane-surface $-1 149.606299212598 0 12.795275590551199 0 0 -1 -1 0 0 forward_v I I I I #
coedge $-1 $203 $203 $246 $247 forward $159 $-1 #
point $-1 53.1496062992126 0 5.9055118110236204 #
coedge $-1 $205 $205 $164 $206 reversed $248 $-1 #
edge $-1 $249 $249 $205 $250 forward #
loop $-1 $-1 $165 $251 #
vertex $-1 $166 $252 #
ellipse-curve $-1 -208.66141732283501 0 7.3818897637795304 0 0 1 208.66141732283501 0 0 1 I I #
face $-1 $253 $254 $4 $-1 $255 reversed single #
loop $-1 $256 $257 $167 #
torus-surface $-1 -208.66141732283501 0 -13.9763779527559 0 0 1 351.72697982218 1.1811023622047201 1 0 0 forward_v I I I I #
loop $-1 $-1 $258 $130 #
coedge $-1 $214 $214 $259 $260 reversed $168 $-1 #
coedge $-1 $215 $215 $171 $216 forward $193 $-1 #
edge $-1 $261 $261 $171 $262 forward #
coedge $-1 $217 $217 $172 $218 forward $236 $-1 #
edge $-1 $263 $263 $172 $264 forward #
loop $-1 $265 $173 $192 #
vertex $-1 $174 $266 #
ellipse-curve $-1 -208.66141732283501 0 -19.685039370078702 0 0 -1 266.53543307086602 0 0 1 I I #
loop $-1 $267 $175 $268 #
vertex $-1 $176 $269 #
ellipse-curve $-1 -208.66141732283501 0 -17.716535433070899 0 0 1 -264.96062992126002 0 0 1 I I #
face $-1 $146 $177 $4 $-1 $270 reversed single #
point $-1 -474.409448818898 0 -16.929133858267701 #
point $-1 57.086614173228398 0 -5.9055118110236204 #
coedge $-1 $228 $228 $271 $272 forward $184 $-1 #
plane-surface $-1 8.8582677165354298 0 -7.3818897637795304 0 0 1 1 0 0 forward_v I I I I #
coedge $-1 $230 $230 $188 $231 forward $273 $-1 #
edge $-1 $274 $274 $230 $275 forward #
vertex $-1 $191 $276 #
ellipse-curve $-1 -208.66141732283501 0 -1.9685039370078701 0 0 1 268.89763779527601 0 0 1 I I #
face $-1 $268 $277 $4 $-1 $278 reversed single #
plane-surface $-1 52.165354330708702 0 -19.685039370078702 0 0 1 1 0 0 forward_v I I I I #
loop $-1 $-1 $217 $152 #
loop $-1 $248 $195 $279 #
vertex $-1 $196 $280 #
ellipse-curve $-1 -208.66141732283501 0 1.9685039370078701 0 0 -1 -262.59842519684997 0 0 1 I I #
point $-1 91.186763101456705 0 0.98425196850393704 #
face $-1 $281 $282 $4 $-1 $283 reversed single #
loop $-1 $284 $285 $200 #
cone-surface $-1 -208.66141732283501 0 17.2244094488189 0 0 -1 -366.14173228346499 0 0 1 I I 0 1 366.14173228346499 forward I I I I #
loop $-1 $-1 $286 $158 #
coedge $-1 $245 $245 $287 $288 forward $201 $-1 #
coedge $-1 $246 $246 $203 $247 reversed $289 $-1 #
edge $-1 $290 $290 $246 $291 forward #
loop $-1 $-1 $205 $279 #
vertex $-1 $206 $292 #
ellipse-curve $-1 -208.66141732283501 0 2.7559055118110201 0 0 1 -261.811023622047 0 0 1 I I #
face $-1 $72 $293 $4 $-1 $294 reversed single #
point $-1 0 0 7.3818897637795304 #
face $-1 $295 $296 $4 $-1 $297 reversed single #
loop $-1 $298 $299 $210 #
torus-surface $-1 -208.66141732283501 0 -21.8509493928007 0 0 -1 365.16151206648601 3.1496062992125999 -1 0 0 forward_v I I I I #
loop $-1 $-1 $300 $167 #
coedge $-1 $257 $257 $301 $302 reversed $211 $-1 #
coedge $-1 $258 $258 $303 $304 reversed $213 $-1 #
coedge $-1 $259 $259 $214 $260 forward $305 $-1 #
edge $-1 $306 $306 $214 $307 forward #
vertex $-1 $216 $308 #
ellipse-curve $-1 -208.66141732283501 0 -3.1496062992125999 0 0 -1 267.71653543307099 0 0 1 I I #
vertex $-1 $218 $309 #
ellipse-curve $-1 -208.66141732283501 0 -18.503937007874001 0 0 1 267.71653543307099 0 0 1 I I #
loop $-1 $-1 $310 $192 #
point $-1 57.874015748031503 0 -19.685039370078702 #
loop $-1 $-1 $311 $268 #
face $-1 $225 $222 $4 $-1 $312 reversed single #
point $-1 -473.62204724409497 0 -17.716535433070899 #
cone-surface $-1 -208.66141732283501 0 -9.8425196850393704 0 0 -1 -265.74803149606299 0 0 1 I I 0 1 265.74803149606299 forward I I I I #
coedge $-1 $271 $271 $228 $272 reversed $293 $-1 #
edge $-1 $313 $313 $271 $314 forward #
loop $-1 $-1 $230 $315 #
vertex $-1 $231 $316 #
ellipse-curve $-1 -208.66141732283501 0 -0.98425196850393704 0 0 1 299.848180424291 0 0 1 I I #
point $-1 60.236220472440998 0 -1.9685039370078701 #
loop $-1 $317 $318 $234 #
cone-surface $-1 -208.66141732283501 0 -18.7007874015748 0 0 -1 -253.93700787401599 0 0 1 I I 0 1 253.93700787401599 forward I I I I #
face $-1 $251 $237 $4 $-1 $319 reversed single #
point $-1 -471.25984251968498 0 1.9685039370078701 #
face $-1 $320 $321 $4 $-1 $322 forward single #
loop $-1 $323 $324 $241 #
plane-surface $-1 158.46456692913401 0 21.653543307086601 0 0 -1 -1 0 0 forward_v I I I I #
loop $-1 $-1 $325 $200 #
coedge $-1 $285 $285 $326 $327 forward $242 $-1 #
coedge $-1 $286 $286 $328 $329 reversed $244 $-1 #
coedge $-1 $287 $287 $245 $288 reversed $330 $-1 #
edge $-1 $331 $331 $287 $332 forward #
loop $-1 $-1 $246 $295 #
vertex $-1 $247 $333 #
ellipse-curve $-1 -208.66141732283501 0 0.98425196850393704 0 0 1 -338.58267716535403 0 0 1 I I #
point $-1 -470.47244094488201 0 2.7559055118110201 #
loop $-1 $207 $271 $251 #
cone-surface $-1 -208.66141732283501 0 0 0 0 -1 -208.66141732283501 0 0 1 I I 0 1 208.66141732283501 forward I I I I #
face $-1 $279 $334 $4 $-1 $335 reversed single #
loop $-1 $330 $326 $253 #
torus-surface $-1 -208.66141732283501 0 15.944881889763799 0 0 -1 362.99212598425203 3.1496062992125999 -1 0 0 forward_v I I I I #
loop $-1 $-1 $336 $210 #
coedge $-1 $299 $299 $337 $338 reversed $254 $-1 #
coedge $-1 $300 $300 $339 $340 reversed $256 $-1 #
coedge $-1 $301 $301 $257 $302 forward $341 $-1 #
edge $-1 $342 $342 $257 $343 forward #
coedge $-1 $303 $303 $258 $304 forward $344 $-1 #
edge $-1 $345 $345 $258 $346 forward #
loop $-1 $273 $259 $315 #
vertex $-1 $260 $347 #
ellipse-curve $-1 -208.66141732283501 0 -0.98425196850393704 0 0 -1 338.58267716535403 0 0 1 I I #
point $-1 59.055118110236201 0 -3.1496062992125999 #
point $-1 59.055118110236201 0 -18.503937007874001 #
coedge $-1 $310 $310 $318 $348 forward $265 $-1 #
coedge $-1 $311 $311 $349 $350 reversed $267 $-1 #
plane-surface $-1 51.181102362204697 0 -17.716535433070899 0 0 -1 -1 0 0 forward_v I I I I #
vertex $-1 $272 $351 #
ellipse-curve $-1 -208.66141732283501 0 -7.3818897637795304 0 0 1 208.66141732283501 0 0 1 I I #
face $-1 $149 $305 $4 $-1 $352 reversed single #
point $-1 91.186763101456705 0 -0.98425196850393704 #
loop $-1 $-1 $349 $234 #
coedge $-1 $318 $318 $310 $348 reversed $277 $-1 #
torus-surface $-1 -208.66141732283501 0 2.7559055118110201 0 0 -1 262.59842519684997 0.78740157480314998 -1 0 0 forward_v I I I I #
face $-1 $353 $354 $4 $-1 $355 reversed single #
loop $-1 $356 $357 $281 #
cone-surface $-1 -208.66141732283501 0 -0.98425196850393704 0 0 -1 -369.29133858267699 0 0 1 I I 0.0521030459390237 0.99864171383127998 369.29133858267699 forward I I I I #
loop $-1 $-1 $358 $241 #
coedge $-1 $324 $324 $325 $359 reversed $282 $-1 #
coedge $-1 $325 $325 $324 $359 forward $284 $-1 #
coedge $-1 $326 $326 $285 $327 reversed $296 $-1 #
edge $-1 $360 $360 $326 $361 forward #
coedge $-1 $328 $328 $286 $329 forward $334 $-1 #
edge $-1 $362 $362 $328 $363 forward #
loop $-1 $-1 $287 $253 #
vertex $-1 $288 $364 #
ellipse-curve $-1 -208.66141732283501 0 12.795275590551199 0 0 1 -362.99212598425203 0 0 1 I I #
point $-1 -547.24409448818903 0 0.98425196850393704 #
loop $-1 $289 $328 $295 #
torus-surface $-1 -208.66141732283501 0 12.795275590551199 0 0 -1 338.58267716535403 11.8110236220472 -1 0 0 forward_v I I I I #
coedge $-1 $336 $336 $365 $366 reversed $298 $-1 #
coedge $-1 $337 $337 $299 $338 forward $367 $-1 #
edge $-1 $368 $368 $299 $369 forward #
coedge $-1 $339 $339 $300 $340 forward $370 $-1 #
edge $-1 $371 $371 $300 $372 forward #
loop $-1 $344 $301 $373 #
vertex $-1 $302 $374 #
ellipse-curve $-1 -208.66141732283501 0 -12.795275590551199 0 0 -1 351.72697982218 0 0 1 I I #
loop $-1 $-1 $303 $373 #
vertex $-1 $304 $375 #
ellipse-curve $-1 -208.66141732283501 0 -12.795275590551199 0 0 1 350.393700787402 0 0 1 I I #
point $-1 129.92125984251999 0 -0.98425196850393704 #
edge $-1 $376 $376 $310 $377 forward #
coedge $-1 $349 $349 $311 $350 forward $317 $-1 #
edge $-1 $378 $378 $349 $379 forward #
point $-1 0 0 -7.3818897637795304 #
plane-surface $-1 116.459523283012 0 -0.98425196850393704 0 0 1 1 0 0 forward_v I I I I #
face $-1 $380 $381 $4 $-1 $382 reversed single #
loop $-1 $383 $384 $320 #
plane-surface $-1 160.82677165354301 0 -23.6220472440945 0 0 1 1 0 0 forward_v I I I I #
loop $-1 $-1 $385 $281 #
coedge $-1 $357 $357 $358 $386 reversed $321 $-1 #
coedge $-1 $358 $358 $357 $386 forward $323 $-1 #
edge $-1 $387 $387 $325 $388 forward #
vertex $-1 $327 $389 #
ellipse-curve $-1 -208.66141732283501 0 15.944881889763799 0 0 -1 -366.14173228346499 0 0 1 I I #
vertex $-1 $329 $390 #
ellipse-curve $-1 -208.66141732283501 0 12.795275590551199 0 0 1 350.393700787402 0 0 1 I I #
point $-1 -571.65354330708703 0 12.795275590551199 #
coedge $-1 $365 $365 $336 $366 forward $381 $-1 #
edge $-1 $391 $391 $336 $392 forward #
loop $-1 $370 $337 $380 #
vertex $-1 $338 $393 #
ellipse-curve $-1 -208.66141732283501 0 -18.954180325657301 0 0 -1 -366.39793788782799 0 0 1 I I #
loop $-1 $-1 $339 $380 #
vertex $-1 $340 $394 #
ellipse-curve $-1 -208.66141732283501 0 -12.8900895525772 0 0 1 -352.19063950518301 0 0 1 I I #
face $-1 $315 $341 $4 $-1 $395 reversed single #
point $-1 143.06556249934499 0 -12.795275590551199 #
point $-1 141.73228346456699 0 -12.795275590551199 #
vertex $-1 $348 $396 #
ellipse-curve $-1 -208.66141732283501 0 -19.685039370078702 0 0 1 253.93700787401599 0 0 1 I I #
vertex $-1 $350 $397 #
ellipse-curve $-1 -208.66141732283501 0 -17.716535433070899 0 0 1 253.93700787401599 0 0 1 I I #
face $-1 $373 $367 $4 $-1 $398 reversed single #
loop $-1 $399 $365 $353 #
cone-surface $-1 -208.66141732283501 0 -21.653543307086601 0 0 -1 -368.30708661417299 0 0 1 I I 0.099503719020996806 0.99503719020998904 368.30708661417299 forward I I I I #
loop $-1 $-1 $400 $320 #
coedge $-1 $384 $384 $385 $401 reversed $354 $-1 #
coedge $-1 $385 $385 $384 $401 forward $356 $-1 #
edge $-1 $402 $402 $358 $403 forward #
vertex $-1 $359 $404 #
ellipse-curve $-1 -208.66141732283501 0 21.653543307086601 0 0 1 366.14173228346499 0 0 1 I I #
point $-1 -574.80314960629903 0 15.944881889763799 #
point $-1 141.73228346456699 0 12.795275590551199 #
vertex $-1 $366 $405 #
ellipse-curve $-1 -208.66141732283501 0 -21.537551852577 0 0 1 -368.295487468722 0 0 1 I I #
point $-1 -575.05935521066203 0 -18.954180325657301 #
point $-1 -560.85205682801802 0 -12.8900895525772 #
plane-surface $-1 142.51968503936999 0 -12.795275590551199 0 0 1 1 0 0 forward_v I I I I #
point $-1 45.275590551181097 0 -19.685039370078702 #
point $-1 45.275590551181097 0 -17.716535433070899 #
cone-surface $-1 -208.66141732283501 0 -16.240157480314998 0 0 -1 -360.03937007873998 0 0 1 I I 0.91972417881804602 0.39256519827599501 360.03937007873998 forward I I I I #
loop $-1 $-1 $406 $353 #
coedge $-1 $400 $400 $406 $407 forward $383 $-1 #
edge $-1 $408 $408 $385 $409 forward #
vertex $-1 $386 $410 #
ellipse-curve $-1 -208.66141732283501 0 21.653543307086601 0 0 1 368.11023622047202 0 0 1 I I #
point $-1 157.48031496063001 0 21.653543307086601 #
point $-1 -576.95690479155701 0 -21.537551852577 #
coedge $-1 $406 $406 $400 $407 reversed $399 $-1 #
edge $-1 $411 $411 $400 $412 forward #
vertex $-1 $401 $413 #
ellipse-curve $-1 -208.66141732283501 0 -23.6220472440945 0 0 1 370.47244094488201 0 0 1 I I #
point $-1 159.44881889763801 0 21.653543307086601 #
vertex $-1 $407 $414 #
ellipse-curve $-1 -208.66141732283501 0 -23.6220472440945 0 0 1 368.50393700787401 0 0 1 I I #
point $-1 161.811023622047 0 -23.6220472440945 #
point $-1 159.84251968503901 0 -23.6220472440945 #
End-of-ACIS-data 