600 0 1 0           
76 GICL ACIS Healer - Source: /gicl/data5/repository/tmp/sigman96Part.sat - 6 0 18 ACIS 6.0.3 Solaris 24 Sun Apr 14 00:18:44 2002 
1 9.999999999999999547e-07 1.000000000000000036e-10 
body $1 $2 $-1 $-1 #
named_string_attribute-named_attribute-st-attrib $-1 $3 $-1 $0 4 name 8 sigman96 #
lump $-1 $-1 $4 $0 #
rgb_color-st-attrib $-1 $-1 $1 $0 0 1 0 #
shell $-1 $-1 $-1 $5 $-1 $2 #
face $-1 $6 $7 $4 $-1 $8 forward single #
face $-1 $9 $10 $4 $-1 $11 reversed single #
loop $-1 $-1 $12 $5 #
cone-surface $-1 3 6 1 -1 0 0 0 0.7071067811865474617 0.7071067811865474617 1 I I 0 -1 0.999999999999999889 forward I I I I #
face $-1 $13 $14 $4 $-1 $15 forward single #
loop $-1 $-1 $16 $6 #
plane-surface $-1 3 5 2 0 0 1 1 0 0 forward_v I I I I #
coedge $-1 $17 $18 $19 $20 forward $7 $-1 #
face $-1 $21 $22 $4 $-1 $23 forward single #
loop $-1 $-1 $24 $9 #
cone-surface $-1 3 4 1 1 0 0 0 -0.7071067811865474617 0.7071067811865474617 1 I I 0 -1 0.999999999999999889 forward I I I I #
coedge $-1 $25 $26 $27 $28 reversed $10 $-1 #
coedge $-1 $27 $12 $29 $30 reversed $7 $-1 #
coedge $-1 $12 $27 $31 $32 reversed $7 $-1 #
coedge $-1 $33 $34 $12 $20 reversed $22 $-1 #
edge $-1 $35 -1.758198889747161209 $36 1.758198889747163207 $19 $37 forward 7 unknown #
face $-1 $38 $39 $4 $-1 $40 forward single #
loop $-1 $-1 $19 $13 #
plane-surface $-1 3 7 1 0 -1 0 0 0 -1 forward_v I I I I #
coedge $-1 $41 $42 $43 $44 forward $14 $-1 #
coedge $-1 $45 $16 $46 $47 reversed $10 $-1 #
coedge $-1 $16 $45 $48 $49 reversed $10 $-1 #
coedge $-1 $18 $17 $16 $28 forward $7 $-1 #
edge $-1 $50 -2.016397779494324638 $51 2.016397779494321973 $16 $52 forward 7 unknown #
coedge $-1 $53 $46 $17 $30 forward $54 $-1 #
edge $-1 $50 -1.11022302462515654e-16 $36 1.570796326794896558 $29 $55 forward 7 unknown #
coedge $-1 $48 $56 $18 $32 forward $57 $-1 #
edge $-1 $35 -1.570796326794896558 $51 1.11022302462515654e-16 $31 $58 forward 7 unknown #
coedge $-1 $59 $19 $56 $60 reversed $22 $-1 #
coedge $-1 $19 $59 $53 $61 reversed $22 $-1 #
vertex $-1 $32 $62 #
vertex $-1 $61 $63 #
straight-curve $-1 3 7 1 1 0 0 F -5.116397779494322506 F 5.116397779494324283 #
face $-1 $64 $54 $4 $-1 $65 forward single #
loop $-1 $-1 $43 $21 #
plane-surface $-1 3 3 1 0 1 0 0 0 1 forward_v I I I I #
coedge $-1 $66 $24 $67 $68 reversed $14 $-1 #
coedge $-1 $24 $66 $69 $70 reversed $14 $-1 #
coedge $-1 $71 $72 $24 $44 reversed $39 $-1 #
edge $-1 $73 -1.758198889747163207 $74 1.758198889747161209 $43 $75 forward 7 unknown #
coedge $-1 $26 $25 $66 $76 reversed $10 $-1 #
coedge $-1 $29 $69 $25 $47 forward $54 $-1 #
edge $-1 $77 -1 $50 1 $46 $78 forward 7 unknown #
coedge $-1 $67 $31 $26 $49 forward $57 $-1 #
edge $-1 $51 -1 $79 1 $48 $80 forward 7 unknown #
vertex $-1 $30 $81 #
vertex $-1 $49 $82 #
straight-curve $-1 3 6 2 -1 0 0 F -5.116397779494324283 F 5.116397779494322506 #
coedge $-1 $83 $29 $34 $61 forward $54 $-1 #
loop $-1 $-1 $84 $38 #
ellipse-curve $-1 4.758198889747163207 6 1 -0.9682458365518542553 1.185759164520979713e-16 0.2500000000000003886 0.2581988897471615418 1.11022302462515654e-16 0.999999999999999889 0.9682458365518542553 I I #
coedge $-1 $31 $85 $33 $60 forward $57 $-1 #
loop $-1 $-1 $56 $86 #
ellipse-curve $-1 1.241801110252838791 6 1 0.9682458365518542553 0 0.2499999999999999445 -0.2581988897471610978 1.11022302462515654e-16 0.999999999999999889 0.9682458365518542553 I I #
coedge $-1 $34 $33 $87 $88 reversed $22 $-1 #
edge $-1 $89 -1.796622918275927239 $35 -0.7638273592872828477 $56 $90 forward 7 unknown #
edge $-1 $36 0.7638273592872824036 $91 1.796622918275927017 $53 $92 forward 7 unknown #
point $-1 1.241801110252838791 7 1 #
point $-1 4.758198889747163207 7 1 #
face $-1 $86 $93 $4 $-1 $94 reversed single #
plane-surface $-1 5.250000000000002665 5 2.904737509655562988 0.9682458365518542553 -1.185759164520979713e-16 -0.2500000000000003886 0.2500000000000003886 -3.061616997868387948e-17 0.9682458365518542553 forward_v I I I I #
coedge $-1 $42 $41 $45 $76 forward $14 $-1 #
coedge $-1 $95 $48 $41 $68 forward $57 $-1 #
edge $-1 $79 -1.11022302462515654e-16 $74 1.570796326794896558 $67 $96 forward 7 unknown #
coedge $-1 $46 $84 $42 $70 forward $54 $-1 #
edge $-1 $73 -1.570796326794896558 $77 1.110223024625156294e-16 $69 $97 forward 7 unknown #
coedge $-1 $98 $43 $84 $99 reversed $39 $-1 #
coedge $-1 $43 $98 $95 $100 reversed $39 $-1 #
vertex $-1 $70 $101 #
vertex $-1 $100 $102 #
straight-curve $-1 3 3 1 -1 0 0 F -5.116397779494324283 F 5.116397779494322506 #
edge $-1 $79 -2.016397779494321973 $77 2.016397779494324638 $45 $103 forward 7 unknown #
vertex $-1 $47 $104 #
straight-curve $-1 5.016397779494324638 5 2 1.224646799147353207e-16 1 0 I I #
vertex $-1 $68 $105 #
straight-curve $-1 0.9836022205056780265 5 2 0 -1 0 I I #
point $-1 5.016397779494324638 6 2 #
point $-1 0.9836022205056780265 6 2 #
coedge $-1 $106 $53 $107 $108 reversed $54 $-1 #
coedge $-1 $69 $109 $71 $99 forward $54 $-1 #
coedge $-1 $56 $110 $111 $112 reversed $57 $-1 #
face $-1 $113 $57 $4 $-1 $114 forward single #
coedge $-1 $111 $107 $59 $88 forward $93 $-1 #
edge $-1 $91 -1.500000000000001776 $89 1.500000000000000222 $87 $115 forward 7 unknown #
vertex $-1 $112 $116 #
straight-curve $-1 1.050844270431018135 7 1.739572660474308918 -0.2499999999999999445 0 0.9682458365518542553 I I #
vertex $-1 $88 $117 #
straight-curve $-1 4.949155729568984086 7 1.739572660474308252 -0.2500000000000003886 -0 -0.9682458365518542553 I I #
loop $-1 $-1 $87 $64 #
plane-surface $-1 3 5 0 0 0 1 1 0 0 forward_v I I I I #
coedge $-1 $118 $67 $72 $100 forward $57 $-1 #
ellipse-curve $-1 1.241801110252838791 4 1 0.9682458365518542553 0 0.2499999999999999445 -0.2581988897471610978 -1.11022302462515654e-16 0.999999999999999889 0.9682458365518542553 I I #
ellipse-curve $-1 4.758198889747163207 4 1 -0.9682458365518542553 1.185759164520979713e-16 0.2500000000000003886 0.2581988897471614863 -1.11022302462515654e-16 0.999999999999999889 0.9682458365518542553 I I #
coedge $-1 $72 $71 $119 $120 reversed $39 $-1 #
edge $-1 $121 -1.796622918275927461 $73 -0.7638273592872826256 $84 $122 forward 7 unknown #
edge $-1 $74 0.7638273592872828477 $123 1.796622918275927239 $95 $124 forward 7 unknown #
point $-1 4.758198889747163207 3 1 #
point $-1 1.241801110252838791 3 1 #
straight-curve $-1 3 4 2 1 0 0 F -5.116397779494322506 F 5.116397779494324283 #
point $-1 5.016397779494324638 4 2 #
point $-1 0.9836022205056780265 4 2 #
coedge $-1 $125 $83 $126 $127 reversed $54 $-1 #
coedge $-1 $87 $128 $83 $108 forward $93 $-1 #
edge $-1 $129 -5 $91 -2 $107 $130 forward 7 unknown #
coedge $-1 $84 $131 $132 $133 reversed $54 $-1 #
coedge $-1 $85 $134 $135 $136 reversed $57 $-1 #
coedge $-1 $128 $87 $85 $112 forward $93 $-1 #
edge $-1 $89 2 $137 5 $111 $138 forward 7 unknown #
face $-1 $139 $140 $4 $-1 $94 reversed single #
plane-surface $-1 0.75 5 2.904737509655562988 -0.9682458365518542553 0 -0.2499999999999999445 -0.2499999999999999445 0 0.9682458365518542553 forward_v I I I I #
straight-curve $-1 3 7 0 -1 0 0 I I #
point $-1 1.499999999999999778 7 0 #
point $-1 4.500000000000001776 7 0 #
coedge $-1 $141 $95 $142 $143 reversed $57 $-1 #
coedge $-1 $132 $142 $98 $120 forward $140 $-1 #
edge $-1 $123 -1.500000000000000222 $121 1.500000000000000888 $119 $144 forward 7 unknown #
vertex $-1 $133 $145 #
straight-curve $-1 4.949155729568984086 3 1.739572660474308474 0.2500000000000003886 0 0.9682458365518542553 I I #
vertex $-1 $100 $146 #
straight-curve $-1 1.050844270431018135 3 1.739572660474308918 0.2499999999999999445 0 -0.9682458365518542553 I I #
coedge $-1 $131 $106 $147 $148 reversed $54 $-1 #
coedge $-1 $149 $150 $106 $127 forward $151 $-1 #
edge $-1 $152 -1.850436399402724641 $129 2.280745836551854033 $126 $153 forward 7 unknown #
coedge $-1 $107 $111 $149 $154 forward $93 $-1 #
vertex $-1 $108 $155 #
straight-curve $-1 4.500000000000002665 5 0 -1.224646799147353207e-16 -1 0 I I #
coedge $-1 $109 $125 $156 $157 reversed $54 $-1 #
coedge $-1 $158 $119 $109 $133 forward $140 $-1 #
edge $-1 $121 2 $159 5 $132 $130 forward 7 unknown #
coedge $-1 $110 $141 $160 $161 reversed $57 $-1 #
coedge $-1 $150 $149 $110 $136 forward $151 $-1 #
edge $-1 $137 -2.280745836551854477 $162 1.850436399402723531 $135 $163 forward 7 unknown #
vertex $-1 $154 $164 #
straight-curve $-1 1.500000000000000444 5 0 0 1 0 I I #
face $-1 $165 $166 $4 $-1 $167 reversed single #
loop $-1 $-1 $119 $113 #
coedge $-1 $134 $118 $168 $169 reversed $57 $-1 #
coedge $-1 $119 $158 $118 $143 forward $140 $-1 #
edge $-1 $170 -5 $123 -2 $142 $138 forward 7 unknown #
straight-curve $-1 3 3 0 1 0 0 I I #
point $-1 4.500000000000000888 3 0 #
point $-1 1.499999999999999778 3 0 #
coedge $-1 $171 $172 $125 $148 forward $173 $-1 #
edge $-1 $174 -5 $152 5 $147 $175 forward 7 unknown #
coedge $-1 $135 $126 $128 $154 reversed $151 $-1 #
coedge $-1 $126 $135 $171 $176 reversed $151 $-1 #
loop $-1 $-1 $126 $165 #
vertex $-1 $176 $177 #
straight-curve $-1 5.070186459137966395 10 2.20832266047430803 -0.2500000000000003886 -0 -0.9682458365518542553 I I #
edge $-1 $137 -1.5 $129 1.500000000000001776 $149 $178 forward 7 unknown #
point $-1 4.500000000000001776 10 0 #
coedge $-1 $179 $180 $131 $157 forward $166 $-1 #
edge $-1 $159 -2.280745836551854477 $174 1.850436399402724419 $156 $181 forward 7 unknown #
coedge $-1 $142 $132 $180 $182 forward $140 $-1 #
vertex $-1 $182 $183 #
coedge $-1 $172 $171 $134 $161 forward $173 $-1 #
edge $-1 $162 -5 $184 5 $160 $185 forward 7 unknown #
vertex $-1 $136 $186 #
straight-curve $-1 0.9298135408620362696 10 2.208322660474308918 -0.2499999999999999445 0 0.9682458365518542553 I I #
point $-1 1.5 10 0 #
face $-1 $187 $151 $4 $-1 $188 reversed single #
loop $-1 $-1 $156 $139 #
plane-surface $-1 3 0 2 0 1 0 0 0 1 forward_v I I I I #
coedge $-1 $180 $179 $141 $169 forward $166 $-1 #
edge $-1 $184 -1.850436399402723531 $170 2.280745836551854477 $168 $189 forward 7 unknown #
vertex $-1 $143 $190 #
coedge $-1 $160 $147 $150 $176 forward $173 $-1 #
coedge $-1 $147 $160 $179 $191 forward $173 $-1 #
loop $-1 $-1 $147 $187 #
vertex $-1 $157 $192 #
straight-curve $-1 5.5327955589886475 5 4 1.224646799147353207e-16 1 0 I I #
edge $-1 $152 -2.5327955589886475 $162 2.532795558988644391 $150 $193 forward 7 unknown #
point $-1 5.5327955589886475 10 4 #
straight-curve $-1 3 10 0 1 0 0 I I #
coedge $-1 $168 $156 $172 $191 reversed $166 $-1 #
coedge $-1 $156 $168 $158 $182 reversed $166 $-1 #
straight-curve $-1 5.070186459137964619 0 2.208322660474308474 0.2500000000000003886 0 0.9682458365518542553 I I #
edge $-1 $159 -1.500000000000000888 $170 1.5 $180 $194 forward 7 unknown #
point $-1 4.500000000000000888 0 0 #
vertex $-1 $191 $195 #
straight-curve $-1 0.4672044410113551649 5 4 0 -1 0 I I #
point $-1 0.467204441011355609 10 4 #
face $-1 $-1 $173 $4 $-1 $196 forward single #
plane-surface $-1 3 10 2 0 -1 0 0 0 -1 forward_v I I I I #
straight-curve $-1 0.9298135408620362696 0 2.208322660474308918 0.2499999999999999445 0 -0.9682458365518542553 I I #
point $-1 1.5 0 0 #
edge $-1 $184 -2.532795558988644391 $174 2.532795558988646611 $179 $197 forward 7 unknown #
point $-1 5.532795558988646611 0 4 #
straight-curve $-1 3 10 4 -1 0 0 I I #
straight-curve $-1 3 0 0 -1 0 0 I I #
point $-1 0.467204441011355609 0 4 #
plane-surface $-1 3 5 4 0 0 1 1 0 0 forward_v I I I I #
straight-curve $-1 3 0 4 1 0 0 I I #
End-of-ACIS-data 