200 0 1 0           
7 Unknown 16 ACIS 2.0 Solaris 24 Thu Aug 29 09:59:02 1996 
-1 9.999999999999999547e-07 1.000000000000000036e-10 
body $1 $2 $-1 $3 #
display_attribute-st-attrib $-1 $4 $-1 $0 1 #
lump $-1 $-1 $5 $0 #
transform $-1 1 0 0 0 1 0 0 0 1 3 5 2 1 rotate no_reflect no_shear #
named_string_attribute-named_attribute-st-attrib $-1 $6 $1 $0 4 name 8 sigman96 #
shell $-1 $-1 $-1 $7 $-1 $2 #
rgb_color-st-attrib $-1 $8 $4 $0 0 1 0 #
face $-1 $9 $10 $5 $-1 $11 forward single #
id_attribute-st-attrib $-1 $-1 $6 $0 1 #
face $-1 $12 $13 $5 $-1 $14 reversed single #
loop $-1 $-1 $15 $7 #
cone-surface $-1 0 1 -1 -1 0 0 0 0.7071067811865474617 0.7071067811865474617 1 I I 0 -1 forward I I I I #
face $-1 $16 $17 $5 $-1 $18 forward single #
loop $-1 $-1 $19 $9 #
plane-surface $-1 0 0 0 0 0 1 1 0 0 forward_v I I I I #
coedge $-1 $20 $21 $22 $23 0 $10 $-1 #
face $-1 $24 $25 $5 $-1 $26 forward single #
loop $-1 $-1 $27 $12 #
cone-surface $-1 0 -1 -1 1 0 0 0 -0.7071067811865474617 0.7071067811865474617 1 I I 0 -1 forward I I I I #
coedge $-1 $28 $29 $30 $31 1 $13 $-1 #
coedge $-1 $30 $15 $32 $33 1 $10 $-1 #
coedge $-1 $15 $30 $34 $35 1 $10 $-1 #
coedge $-1 $36 $37 $15 $23 1 $25 $-1 #
edge $-1 $38 $39 $22 $40 forward #
face $-1 $41 $42 $5 $-1 $43 forward single #
loop $-1 $-1 $22 $16 #
plane-surface $-1 0 2 -1 0 -1 0 0 0 -1 forward_v I I I I #
coedge $-1 $44 $45 $46 $47 0 $17 $-1 #
coedge $-1 $48 $19 $49 $50 1 $13 $-1 #
coedge $-1 $19 $48 $51 $52 1 $13 $-1 #
coedge $-1 $21 $20 $19 $31 0 $10 $-1 #
edge $-1 $53 $54 $19 $55 forward #
coedge $-1 $56 $49 $20 $33 0 $57 $-1 #
edge $-1 $53 $39 $32 $58 forward #
coedge $-1 $51 $59 $21 $35 0 $60 $-1 #
edge $-1 $38 $54 $34 $61 forward #
coedge $-1 $62 $22 $59 $63 1 $25 $-1 #
coedge $-1 $22 $62 $56 $64 1 $25 $-1 #
vertex $-1 $35 $65 #
vertex $-1 $64 $66 #
straight-curve $-1 0 2 -1 1 -0 -0 F -5.116397779494322506 F 5.116397779494324283 #
face $-1 $67 $57 $5 $-1 $68 forward single #
loop $-1 $-1 $46 $24 #
plane-surface $-1 0 -2 -1 0 1 0 0 0 1 forward_v I I I I #
coedge $-1 $69 $27 $70 $71 1 $17 $-1 #
coedge $-1 $27 $69 $72 $73 1 $17 $-1 #
coedge $-1 $74 $75 $27 $47 1 $42 $-1 #
edge $-1 $76 $77 $46 $78 forward #
coedge $-1 $29 $28 $69 $79 1 $13 $-1 #
coedge $-1 $32 $72 $28 $50 0 $57 $-1 #
edge $-1 $80 $53 $49 $81 forward #
coedge $-1 $70 $34 $29 $52 0 $60 $-1 #
edge $-1 $54 $82 $51 $83 forward #
vertex $-1 $33 $84 #
vertex $-1 $52 $85 #
straight-curve $-1 0 1 0 -1 0 0 F -5.116397779494324283 F 5.116397779494322506 #
coedge $-1 $86 $32 $37 $64 0 $57 $-1 #
loop $-1 $-1 $87 $41 #
ellipse-curve $-1 1.758198889747162763 1 -1 -0.9682458365518542553 1.185759164520979713e-16 0.2500000000000003886 0.2581988897471615418 1.11022302462515654e-16 0.999999999999999889 0.9682458365518542553 I I #
coedge $-1 $34 $88 $36 $63 0 $60 $-1 #
loop $-1 $-1 $59 $89 #
ellipse-curve $-1 -1.758198889747161209 1 -1 0.9682458365518542553 0 0.2499999999999999445 -0.2581988897471610978 1.11022302462515654e-16 0.999999999999999889 0.9682458365518542553 I I #
coedge $-1 $37 $36 $90 $91 1 $25 $-1 #
edge $-1 $92 $38 $59 $93 forward #
edge $-1 $39 $94 $56 $95 forward #
point $-1 -1.758198889747161209 2 -1 #
point $-1 1.758198889747163207 2 -1 #
face $-1 $89 $96 $5 $-1 $97 reversed single #
plane-surface $-1 2.250000000000002665 1.185759164520979713e-16 0.9047375096555629881 0.9682458365518542553 -1.185759164520979713e-16 -0.2500000000000003886 0.2500000000000003886 -3.061616997868387948e-17 0.9682458365518542553 forward_v I I I I #
coedge $-1 $45 $44 $48 $79 0 $17 $-1 #
coedge $-1 $98 $51 $44 $71 0 $60 $-1 #
edge $-1 $82 $77 $70 $99 forward #
coedge $-1 $49 $87 $45 $73 0 $57 $-1 #
edge $-1 $76 $80 $72 $100 forward #
coedge $-1 $101 $46 $87 $102 1 $42 $-1 #
coedge $-1 $46 $101 $98 $103 1 $42 $-1 #
vertex $-1 $73 $104 #
vertex $-1 $103 $105 #
straight-curve $-1 0 -2 -1 -1 0 0 F -5.116397779494324283 F 5.116397779494322506 #
edge $-1 $82 $80 $48 $106 forward #
vertex $-1 $50 $107 #
straight-curve $-1 2.016397779494324194 -4.987678551642909418e-17 0 1.224646799147353207e-16 1 -0 I I #
vertex $-1 $71 $108 #
straight-curve $-1 -2.016397779494321973 0 0 -0 -1 0 I I #
point $-1 2.016397779494324194 1 0 #
point $-1 -2.016397779494321973 1 0 #
coedge $-1 $109 $56 $110 $111 1 $57 $-1 #
coedge $-1 $72 $112 $74 $102 0 $57 $-1 #
coedge $-1 $59 $113 $114 $115 1 $60 $-1 #
face $-1 $116 $60 $5 $-1 $117 forward single #
coedge $-1 $114 $110 $62 $91 0 $96 $-1 #
edge $-1 $94 $92 $90 $118 forward #
vertex $-1 $115 $119 #
straight-curve $-1 -1.949155729568981865 2 -0.2604273395256911372 -0.2499999999999999445 0 0.9682458365518542553 I I #
vertex $-1 $91 $120 #
straight-curve $-1 1.949155729568984086 2 -0.2604273395256917478 -0.2500000000000003886 -0 -0.9682458365518542553 I I #
loop $-1 $-1 $90 $67 #
plane-surface $-1 0 0 -2 0 0 1 1 0 0 forward_v I I I I #
coedge $-1 $121 $70 $75 $103 0 $60 $-1 #
ellipse-curve $-1 -1.758198889747161209 -1 -1 0.9682458365518542553 0 0.2499999999999999445 -0.2581988897471610978 -1.11022302462515654e-16 0.999999999999999889 0.9682458365518542553 I I #
ellipse-curve $-1 1.758198889747162763 -1 -1 -0.9682458365518542553 1.185759164520979713e-16 0.2500000000000003886 0.2581988897471614863 -1.11022302462515654e-16 0.999999999999999889 0.9682458365518542553 I I #
coedge $-1 $75 $74 $122 $123 1 $42 $-1 #
edge $-1 $124 $76 $87 $125 forward #
edge $-1 $77 $126 $98 $127 forward #
point $-1 1.758198889747162763 -2 -1 #
point $-1 -1.758198889747161209 -2 -1 #
straight-curve $-1 0 -1 0 1 0 0 F -5.116397779494322506 F 5.116397779494324283 #
point $-1 2.016397779494324194 -1 0 #
point $-1 -2.016397779494321973 -1 0 #
coedge $-1 $128 $86 $129 $130 1 $57 $-1 #
coedge $-1 $90 $131 $86 $111 0 $96 $-1 #
edge $-1 $132 $94 $110 $133 forward #
coedge $-1 $87 $134 $135 $136 1 $57 $-1 #
coedge $-1 $88 $137 $138 $139 1 $60 $-1 #
coedge $-1 $131 $90 $88 $115 0 $96 $-1 #
edge $-1 $92 $140 $114 $141 forward #
face $-1 $142 $143 $5 $-1 $97 reversed single #
plane-surface $-1 -2.25 0 0.9047375096555629881 -0.9682458365518542553 0 -0.2499999999999999445 -0.2499999999999999445 0 0.9682458365518542553 forward_v I I I I #
straight-curve $-1 0 2 -2 -1 0 0 I I #
point $-1 -1.500000000000000222 2 -2 #
point $-1 1.500000000000001776 2 -2 #
coedge $-1 $144 $98 $145 $146 1 $60 $-1 #
coedge $-1 $135 $145 $101 $123 0 $143 $-1 #
edge $-1 $126 $124 $122 $147 forward #
vertex $-1 $136 $148 #
straight-curve $-1 1.949155729568983642 -2 -0.2604273395256916368 0.2500000000000003886 -0 0.9682458365518542553 I I #
vertex $-1 $103 $149 #
straight-curve $-1 -1.949155729568981865 -2 -0.2604273395256911372 0.2499999999999999445 0 -0.9682458365518542553 I I #
coedge $-1 $134 $109 $150 $151 1 $57 $-1 #
coedge $-1 $152 $153 $109 $130 0 $154 $-1 #
edge $-1 $155 $132 $129 $156 forward #
coedge $-1 $110 $114 $152 $157 0 $96 $-1 #
vertex $-1 $111 $158 #
straight-curve $-1 1.500000000000002887 1.336370325802304932e-17 -2 -1.224646799147353207e-16 -1 0 I I #
coedge $-1 $112 $128 $159 $160 1 $57 $-1 #
coedge $-1 $161 $122 $112 $136 0 $143 $-1 #
edge $-1 $124 $162 $135 $133 forward #
coedge $-1 $113 $144 $163 $164 1 $60 $-1 #
coedge $-1 $153 $152 $113 $139 0 $154 $-1 #
edge $-1 $140 $165 $138 $166 forward #
vertex $-1 $157 $167 #
straight-curve $-1 -1.499999999999999556 0 -2 0 1 -0 I I #
face $-1 $168 $169 $5 $-1 $170 reversed single #
loop $-1 $-1 $122 $116 #
coedge $-1 $137 $121 $171 $172 1 $60 $-1 #
coedge $-1 $122 $161 $121 $146 0 $143 $-1 #
edge $-1 $173 $126 $145 $141 forward #
straight-curve $-1 0 -2 -2 1 0 0 I I #
point $-1 1.500000000000000888 -2 -2 #
point $-1 -1.500000000000000222 -2 -2 #
coedge $-1 $174 $175 $128 $151 0 $176 $-1 #
edge $-1 $177 $155 $150 $178 forward #
coedge $-1 $138 $129 $131 $157 1 $154 $-1 #
coedge $-1 $129 $138 $174 $179 1 $154 $-1 #
loop $-1 $-1 $129 $168 #
vertex $-1 $179 $180 #
straight-curve $-1 2.070186459137966395 5 0.2083226604743080579 -0.2500000000000003886 -0 -0.9682458365518542553 I I #
edge $-1 $140 $132 $152 $181 forward #
point $-1 1.500000000000001998 5 -2 #
coedge $-1 $182 $183 $134 $160 0 $169 $-1 #
edge $-1 $162 $177 $159 $184 forward #
coedge $-1 $145 $135 $183 $185 0 $143 $-1 #
vertex $-1 $185 $186 #
coedge $-1 $175 $174 $137 $164 0 $176 $-1 #
edge $-1 $165 $187 $163 $188 forward #
vertex $-1 $139 $189 #
straight-curve $-1 -2.07018645913796373 5 0.2083226604743088628 -0.2499999999999999445 0 0.9682458365518542553 I I #
point $-1 -1.5 5 -2 #
face $-1 $190 $154 $5 $-1 $191 reversed single #
loop $-1 $-1 $159 $142 #
plane-surface $-1 0 -5 0 0 1 -0 -0 0 1 forward_v I I I I #
coedge $-1 $183 $182 $144 $172 0 $169 $-1 #
edge $-1 $187 $173 $171 $192 forward #
vertex $-1 $146 $193 #
coedge $-1 $163 $150 $153 $179 0 $176 $-1 #
coedge $-1 $150 $163 $182 $194 0 $176 $-1 #
loop $-1 $-1 $150 $190 #
vertex $-1 $160 $195 #
straight-curve $-1 2.532795558988647944 -1.131172742908814934e-16 2 1.224646799147353207e-16 1 -0 I I #
edge $-1 $155 $165 $153 $196 forward #
point $-1 2.532795558988647944 5 2 #
straight-curve $-1 0 5 -2 1 0 0 I I #
coedge $-1 $171 $159 $175 $194 1 $169 $-1 #
coedge $-1 $159 $171 $161 $185 1 $169 $-1 #
straight-curve $-1 2.070186459137965063 -5 0.2083226604743083354 0.2500000000000003886 0 0.9682458365518542553 I I #
edge $-1 $162 $173 $183 $197 forward #
point $-1 1.500000000000000666 -5 -2 #
vertex $-1 $194 $198 #
straight-curve $-1 -2.532795558988644835 0 2 -0 -1 0 I I #
point $-1 -2.532795558988644391 5 2 #
face $-1 $-1 $176 $5 $-1 $199 forward single #
plane-surface $-1 0 5 0 0 -1 0 0 0 -1 forward_v I I I I #
straight-curve $-1 -2.07018645913796373 -5 0.2083226604743088628 0.2499999999999999445 -0 -0.9682458365518542553 I I #
point $-1 -1.5 -5 -2 #
edge $-1 $187 $177 $182 $200 forward #
point $-1 2.532795558988646611 -5 2 #
straight-curve $-1 0 5 2 -1 0 0 I I #
straight-curve $-1 0 -5 -2 -1 0 0 I I #
point $-1 -2.532795558988644391 -5 2 #
plane-surface $-1 0 0 2 0 0 1 1 0 0 forward_v I I I I #
straight-curve $-1 0 -5 2 1 0 0 I I #
End-of-ACIS-data 