400 0 1 0
7 Unknown 11 ACIS 4.0 NT 24 Wed Oct 14 16:40:57 1998
-1 9.9999999999999995e-007 1e-010
body $1 $2 $-1 $-1 #
display_attribute-st-attrib $-1 $3 $-1 $0 1 #
lump $-1 $-1 $4 $0 #
id_attribute-st-attrib $-1 $-1 $1 $0 6 #
shell $-1 $-1 $-1 $5 $-1 $2 #
face $-1 $6 $7 $4 $-1 $8 reversed single #
face $-1 $9 $10 $4 $-1 $11 reversed single #
loop $-1 $12 $13 $5 #
cone-surface $-1 -75 0 0 0 0 1 10 0 0 1 I I 0 1 10 forward I I I I #
face $-1 $14 $15 $4 $-1 $16 forward single #
loop $-1 $17 $18 $6 #
cone-surface $-1 75 0 0 0 0 1 10 0 0 1 I I 0 1 10 forward I I I I #
loop $-1 $-1 $19 $5 #
coedge $-1 $13 $13 $20 $21 reversed $7 $-1 #
face $-1 $22 $23 $4 $-1 $24 forward single #
loop $-1 $-1 $25 $9 #
plane-surface $-1 27.5 0 62.5 -1 0 0 0 0 1 forward_v I I I I #
loop $-1 $-1 $26 $6 #
coedge $-1 $18 $18 $27 $28 reversed $10 $-1 #
coedge $-1 $19 $19 $29 $30 reversed $12 $-1 #
coedge $-1 $20 $20 $13 $21 forward $31 $-1 #
edge $-1 $32 $32 $20 $33 forward #
face $-1 $34 $35 $4 $-1 $24 forward single #
loop $-1 $-1 $36 $14 #
plane-surface $-1 0 0 50 0 0 1 1 0 0 forward_v I I I I #
coedge $-1 $37 $38 $39 $40 reversed $15 $-1 #
coedge $-1 $26 $26 $41 $42 reversed $17 $-1 #
coedge $-1 $27 $27 $18 $28 forward $43 $-1 #
edge $-1 $44 $44 $27 $45 forward #
coedge $-1 $29 $29 $19 $30 forward $46 $-1 #
edge $-1 $47 $47 $29 $48 forward #
loop $-1 $49 $20 $50 #
vertex $-1 $21 $51 #
ellipse-curve $-1 -75 0 25 0 0 -1 10 0 0 1 I I #
face $-1 $52 $53 $4 $-1 $24 forward single #
loop $-1 $-1 $54 $22 #
coedge $-1 $55 $56 $57 $58 reversed $23 $-1 #
coedge $-1 $59 $25 $60 $61 forward $15 $-1 #
coedge $-1 $25 $62 $63 $64 forward $15 $-1 #
coedge $-1 $65 $66 $25 $40 forward $67 $-1 #
edge $-1 $68 $69 $39 $70 forward #
coedge $-1 $41 $41 $26 $42 forward $71 $-1 #
edge $-1 $72 $72 $41 $73 forward #
loop $-1 $74 $27 $75 #
vertex $-1 $28 $76 #
ellipse-curve $-1 75 0 -25 0 0 1 10 0 0 1 I I #
loop $-1 $77 $29 $78 #
vertex $-1 $30 $79 #
ellipse-curve $-1 -75 0 -25 0 0 1 10 0 0 1 I I #
loop $-1 $-1 $80 $50 #
face $-1 $81 $31 $4 $-1 $82 forward single #
point $-1 -85 -6.9829626776862705e-014 25 #
face $-1 $83 $84 $4 $-1 $24 forward single #
loop $-1 $-1 $85 $34 #
coedge $-1 $86 $87 $88 $89 reversed $35 $-1 #
coedge $-1 $90 $36 $91 $92 reversed $23 $-1 #
coedge $-1 $36 $90 $93 $94 reversed $23 $-1 #
coedge $-1 $95 $96 $36 $58 forward $97 $-1 #
edge $-1 $98 $99 $57 $100 forward #
coedge $-1 $101 $37 $102 $103 reversed $15 $-1 #
coedge $-1 $85 $104 $37 $61 reversed $53 $-1 #
edge $-1 $68 $105 $37 $106 forward #
coedge $-1 $38 $101 $107 $108 reversed $15 $-1 #
coedge $-1 $109 $110 $38 $64 reversed $84 $-1 #
edge $-1 $111 $69 $38 $106 forward #
coedge $-1 $112 $39 $110 $113 forward $67 $-1 #
coedge $-1 $39 $112 $85 $114 forward $67 $-1 #
loop $-1 $115 $65 $116 #
vertex $-1 $114 $117 #
vertex $-1 $113 $118 #
ellipse-curve $-1 27.5 50 50.000000000000298 -1 0 0 -5.2372220082647e-014 0 -15 1 I I #
loop $-1 $119 $41 $120 #
vertex $-1 $42 $121 #
ellipse-curve $-1 75 0 25 0 0 -1 10 0 0 1 I I #
loop $-1 $-1 $122 $75 #
face $-1 $123 $43 $4 $-1 $124 reversed single #
point $-1 65 6.9829626776862705e-014 -25 #
loop $-1 $-1 $125 $78 #
face $-1 $126 $46 $4 $-1 $127 reversed single #
point $-1 -85 6.9829626776862705e-014 -25 #
coedge $-1 $128 $129 $130 $131 reversed $49 $-1 #
face $-1 $78 $132 $4 $-1 $133 forward single #
plane-surface $-1 -75 0 25 0 0 1 1 0 0 forward_v I I I I #
face $-1 $134 $135 $4 $-1 $24 forward single #
loop $-1 $-1 $110 $52 #
coedge $-1 $136 $60 $66 $114 reversed $53 $-1 #
coedge $-1 $137 $54 $138 $139 reversed $35 $-1 #
coedge $-1 $54 $137 $140 $141 reversed $35 $-1 #
coedge $-1 $142 $143 $54 $89 forward $144 $-1 #
edge $-1 $145 $146 $88 $147 forward #
coedge $-1 $56 $55 $148 $149 reversed $23 $-1 #
coedge $-1 $150 $151 $55 $92 forward $152 $-1 #
edge $-1 $153 $98 $91 $106 forward #
coedge $-1 $154 $155 $56 $94 forward $156 $-1 #
edge $-1 $99 $157 $93 $158 forward #
coedge $-1 $159 $57 $155 $160 forward $97 $-1 #
coedge $-1 $57 $161 $150 $162 forward $97 $-1 #
loop $-1 $-1 $163 $164 #
vertex $-1 $58 $165 #
vertex $-1 $58 $166 #
ellipse-curve $-1 0 0 50 0 0 -1 100 0 0 1 I I #
coedge $-1 $62 $59 $167 $168 reversed $15 $-1 #
coedge $-1 $169 $170 $59 $103 forward $171 $-1 #
edge $-1 $172 $105 $102 $173 forward #
coedge $-1 $60 $136 $169 $174 reversed $53 $-1 #
vertex $-1 $174 $175 #
straight-curve $-1 27.5 0 50 0 -1 0 I I #
coedge $-1 $176 $177 $62 $108 forward $97 $-1 #
edge $-1 $111 $178 $107 $179 forward #
coedge $-1 $180 $63 $177 $181 reversed $84 $-1 #
coedge $-1 $63 $180 $65 $113 reversed $84 $-1 #
vertex $-1 $181 $182 #
coedge $-1 $66 $65 $183 $184 reversed $67 $-1 #
edge $-1 $69 $185 $65 $186 forward #
edge $-1 $187 $68 $66 $188 forward #
loop $-1 $-1 $189 $116 #
face $-1 $190 $67 $4 $-1 $191 reversed single #
point $-1 27.5 35 50 #
point $-1 27.5 65 50 #
loop $-1 $-1 $192 $120 #
face $-1 $193 $71 $4 $-1 $194 forward single #
point $-1 65 -6.9829626776862705e-014 25 #
coedge $-1 $195 $196 $197 $198 reversed $74 $-1 #
face $-1 $120 $199 $4 $-1 $200 forward single #
plane-surface $-1 75 0 -25 0 0 1 1 0 0 forward_v I I I I #
coedge $-1 $201 $202 $203 $204 reversed $77 $-1 #
face $-1 $75 $205 $4 $-1 $206 forward single #
plane-surface $-1 -75 0 -25 0 0 1 1 0 0 forward_v I I I I #
coedge $-1 $129 $80 $207 $208 reversed $49 $-1 #
coedge $-1 $80 $128 $209 $210 reversed $49 $-1 #
coedge $-1 $211 $207 $80 $131 forward $97 $-1 #
edge $-1 $212 $213 $130 $214 forward #
loop $-1 $215 $216 $81 #
plane-surface $-1 -50 0 50 -1 0 0 0 0 1 forward_v I I I I #
face $-1 $217 $218 $4 $-1 $24 forward single #
loop $-1 $-1 $219 $83 #
coedge $-1 $104 $85 $220 $221 reversed $53 $-1 #
coedge $-1 $87 $86 $222 $223 reversed $35 $-1 #
coedge $-1 $151 $224 $86 $139 forward $152 $-1 #
edge $-1 $225 $145 $138 $106 forward #
coedge $-1 $226 $154 $87 $141 forward $156 $-1 #
edge $-1 $146 $227 $140 $158 forward #
coedge $-1 $148 $88 $154 $228 reversed $144 $-1 #
coedge $-1 $88 $148 $151 $229 forward $144 $-1 #
loop $-1 $-1 $148 $230 #
vertex $-1 $89 $231 #
vertex $-1 $228 $232 #
straight-curve $-1 100 -35 50 -1 0 3.4914813388431298e-015 I I #
coedge $-1 $143 $142 $90 $149 forward $144 $-1 #
edge $-1 $157 $153 $148 $233 forward #
coedge $-1 $234 $91 $96 $162 reversed $152 $-1 #
coedge $-1 $91 $138 $143 $229 reversed $152 $-1 #
loop $-1 $-1 $150 $235 #
vertex $-1 $149 $236 #
coedge $-1 $140 $93 $142 $228 forward $156 $-1 #
coedge $-1 $93 $237 $95 $160 reversed $156 $-1 #
loop $-1 $-1 $93 $238 #
vertex $-1 $149 $239 #
straight-curve $-1 20 0 50 0 1 0 I I #
coedge $-1 $240 $95 $241 $242 forward $97 $-1 #
edge $-1 $99 $243 $95 $244 forward #
coedge $-1 $96 $245 $246 $247 reversed $97 $-1 #
edge $-1 $248 $98 $96 $249 forward #
coedge $-1 $250 $251 $252 $253 forward $97 $-1 #
face $-1 $254 $255 $4 $-1 $256 forward single #
point $-1 27.5 -96.144422615147107 50 #
point $-1 20 -97.979589711327094 50 #
coedge $-1 $257 $258 $101 $168 forward $259 $-1 #
edge $-1 $178 $172 $167 $260 forward #
coedge $-1 $261 $102 $104 $174 forward $171 $-1 #
coedge $-1 $102 $262 $257 $263 reversed $171 $-1 #
loop $-1 $-1 $264 $265 #
vertex $-1 $103 $266 #
straight-curve $-1 27.5 25.495097567963899 0 0 0 -1 I I #
edge $-1 $105 $267 $169 $268 forward #
point $-1 27.5 25.495097567963899 50 #
coedge $-1 $269 $107 $258 $270 reversed $97 $-1 #
coedge $-1 $107 $271 $109 $181 forward $97 $-1 #
vertex $-1 $270 $272 #
straight-curve $-1 27.5 96.144422615147107 0 0 0 1 I I #
coedge $-1 $110 $109 $273 $274 reversed $84 $-1 #
edge $-1 $275 $111 $177 $276 forward #
point $-1 27.5 96.144422615147107 50 #
coedge $-1 $273 $220 $112 $184 forward $277 $-1 #
edge $-1 $187 $185 $183 $278 forward #
vertex $-1 $184 $279 #
straight-curve $-1 100 65 50 -1 0 3.4914813388431298e-015 I I #
vertex $-1 $221 $280 #
straight-curve $-1 100 35 50 1 0 -3.4914813388431298e-015 I I #
coedge $-1 $189 $189 $281 $282 reversed $115 $-1 #
face $-1 $283 $284 $4 $-1 $285 forward single #
cone-surface $-1 100 50 50 1 0 -3.4914813388431298e-015 -5.2372220082647e-014 0 -15 1 I I 0 1 15 forward I I I I #
coedge $-1 $286 $287 $288 $289 reversed $119 $-1 #
face $-1 $290 $291 $4 $-1 $292 forward single #
plane-surface $-1 75 0 25 0 0 1 1 0 0 forward_v I I I I #
coedge $-1 $196 $122 $293 $294 reversed $74 $-1 #
coedge $-1 $122 $195 $295 $296 reversed $74 $-1 #
coedge $-1 $295 $297 $122 $198 forward $255 $-1 #
edge $-1 $298 $299 $197 $300 forward #
loop $-1 $-1 $301 $123 #
plane-surface $-1 50 0 -50 1 0 0 0 0 -1 forward_v I I I I #
coedge $-1 $202 $125 $302 $303 reversed $77 $-1 #
coedge $-1 $125 $201 $304 $305 reversed $77 $-1 #
coedge $-1 $304 $306 $125 $204 forward $255 $-1 #
edge $-1 $307 $308 $203 $309 forward #
loop $-1 $-1 $310 $126 #
plane-surface $-1 -50 0 -50 -1 0 0 0 0 1 forward_v I I I I #
coedge $-1 $130 $311 $128 $208 forward $97 $-1 #
edge $-1 $312 $212 $207 $214 forward #
coedge $-1 $313 $314 $129 $210 forward $315 $-1 #
edge $-1 $213 $312 $209 $316 forward #
coedge $-1 $317 $130 $314 $318 forward $97 $-1 #
vertex $-1 $208 $319 #
vertex $-1 $131 $320 #
ellipse-curve $-1 0 0 25 0 0 -1 100 0 0 1 I I #
loop $-1 $315 $321 $81 #
coedge $-1 $216 $216 $322 $323 forward $132 $-1 #
face $-1 $324 $325 $4 $-1 $24 forward single #
loop $-1 $-1 $326 $134 #
coedge $-1 $327 $328 $329 $330 reversed $135 $-1 #
coedge $-1 $183 $331 $136 $221 forward $277 $-1 #
edge $-1 $267 $187 $220 $332 forward #
coedge $-1 $262 $333 $137 $223 forward $171 $-1 #
edge $-1 $227 $225 $222 $334 forward #
coedge $-1 $138 $234 $262 $335 reversed $152 $-1 #
vertex $-1 $223 $336 #
coedge $-1 $237 $140 $333 $337 forward $156 $-1 #
vertex $-1 $223 $338 #
edge $-1 $157 $146 $154 $339 forward #
edge $-1 $153 $145 $143 $340 forward #
face $-1 $238 $341 $4 $-1 $342 reversed single #
point $-1 27.5 -35 50 #
point $-1 20 -35 50 #
straight-curve $-1 100 -65 50 1 0 -3.4914813388431298e-015 I I #
coedge $-1 $224 $150 $343 $344 reversed $152 $-1 #
face $-1 $345 $152 $4 $-1 $16 forward single #
point $-1 27.5 -65 50 #
coedge $-1 $155 $226 $346 $347 forward $156 $-1 #
face $-1 $348 $156 $4 $-1 $349 forward single #
point $-1 20 -65 50 #
coedge $-1 $251 $159 $350 $351 forward $97 $-1 #
coedge $-1 $346 $350 $159 $242 reversed $284 $-1 #
edge $-1 $243 $352 $159 $353 forward #
vertex $-1 $242 $354 #
straight-curve $-1 20 -97.979589711327094 0 0 0 -1 I I #
coedge $-1 $161 $288 $355 $356 forward $97 $-1 #
coedge $-1 $357 $343 $161 $247 forward $259 $-1 #
edge $-1 $248 $358 $246 $359 forward #
vertex $-1 $344 $360 #
straight-curve $-1 27.5 -96.144422615147107 0 0 0 -1 I I #
coedge $-1 $361 $163 $362 $363 forward $97 $-1 #
coedge $-1 $163 $240 $364 $365 forward $97 $-1 #
coedge $-1 $366 $367 $163 $253 reversed $368 $-1 #
edge $-1 $369 $370 $163 $100 forward #
face $-1 $371 $372 $4 $-1 $373 reversed single #
loop $-1 $97 $306 $164 #
cone-surface $-1 0 0 0 0 0 1 100 0 0 1 I I 0 1 100 forward I I I I #
coedge $-1 $343 $167 $170 $263 forward $259 $-1 #
coedge $-1 $167 $357 $176 $270 forward $259 $-1 #
loop $-1 $-1 $343 $374 #
straight-curve $-1 27.5 0 75 0 -1 0 I I #
coedge $-1 $375 $169 $331 $376 reversed $171 $-1 #
coedge $-1 $170 $222 $224 $335 forward $171 $-1 #
edge $-1 $172 $377 $257 $378 forward #
coedge $-1 $379 $380 $381 $382 forward $171 $-1 #
face $-1 $383 $384 $4 $-1 $385 reversed single #
point $-1 27.5 25.495097567963899 75 #
vertex $-1 $376 $386 #
ellipse-curve $-1 0 0 50 0 0 1 37.5 0 0 1 I I #
coedge $-1 $387 $176 $388 $389 forward $97 $-1 #
edge $-1 $390 $178 $258 $359 forward #
coedge $-1 $177 $391 $392 $393 forward $97 $-1 #
point $-1 27.5 96.144422615147107 75 #
coedge $-1 $392 $183 $180 $274 forward $277 $-1 #
edge $-1 $185 $275 $273 $332 forward #
vertex $-1 $393 $394 #
ellipse-curve $-1 0 0 50 0 0 -1 100 0 0 1 I I #
loop $-1 $-1 $273 $348 #
ellipse-curve $-1 20 50 50.000000000000298 1 0 0 -5.2372220082647e-014 0 -15 1 I I #
point $-1 20 65 50 #
point $-1 20 35 50 #
coedge $-1 $281 $281 $189 $282 forward $291 $-1 #
edge $-1 $395 $395 $281 $396 forward #
face $-1 $374 $397 $4 $-1 $285 forward single #
loop $-1 $-1 $398 $190 #
plane-surface $-1 0 0 0 0 0 1 1 0 0 forward_v I I I I #
coedge $-1 $287 $192 $387 $399 reversed $119 $-1 #
coedge $-1 $192 $286 $400 $401 reversed $119 $-1 #
coedge $-1 $245 $387 $192 $289 forward $97 $-1 #
edge $-1 $402 $403 $288 $404 forward #
face $-1 $-1 $405 $4 $-1 $406 forward single #
loop $-1 $407 $281 $193 #
plane-surface $-1 50 0 50 1 0 0 0 0 -1 forward_v I I I I #
coedge $-1 $301 $408 $195 $294 forward $199 $-1 #
edge $-1 $409 $298 $293 $410 forward #
coedge $-1 $411 $197 $196 $296 forward $255 $-1 #
edge $-1 $299 $409 $295 $300 forward #
coedge $-1 $197 $412 $301 $413 forward $255 $-1 #
vertex $-1 $198 $414 #
vertex $-1 $198 $415 #
ellipse-curve $-1 0 0 -25 0 0 1 100 0 0 1 I I #
coedge $-1 $416 $293 $297 $413 reversed $199 $-1 #
coedge $-1 $310 $417 $201 $303 forward $205 $-1 #
edge $-1 $418 $307 $302 $419 forward #
coedge $-1 $420 $203 $202 $305 forward $255 $-1 #
edge $-1 $308 $418 $304 $309 forward #
coedge $-1 $203 $421 $310 $422 forward $255 $-1 #
vertex $-1 $204 $423 #
vertex $-1 $204 $424 #
ellipse-curve $-1 0 0 -25 0 0 1 100 0 0 1 I I #
coedge $-1 $425 $302 $306 $422 reversed $205 $-1 #
coedge $-1 $207 $361 $313 $426 forward $97 $-1 #
vertex $-1 $208 $427 #
coedge $-1 $428 $209 $311 $426 reversed $315 $-1 #
coedge $-1 $209 $428 $211 $318 reversed $315 $-1 #
loop $-1 $-1 $314 $81 #
straight-curve $-1 -50 0 25 0 -1 0 I I #
coedge $-1 $429 $211 $430 $431 reversed $97 $-1 #
edge $-1 $213 $432 $211 $433 forward #
point $-1 -100 0 25 #
point $-1 -50 86.602540378443905 25 #
coedge $-1 $321 $321 $434 $435 forward $215 $-1 #
coedge $-1 $322 $322 $216 $323 reversed $436 $-1 #
edge $-1 $437 $437 $216 $438 forward #
face $-1 $439 $368 $4 $-1 $24 forward single #
loop $-1 $-1 $440 $217 #
coedge $-1 $441 $442 $443 $444 reversed $218 $-1 #
coedge $-1 $445 $219 $446 $447 reversed $135 $-1 #
coedge $-1 $219 $445 $448 $449 reversed $135 $-1 #
coedge $-1 $450 $429 $219 $330 forward $97 $-1 #
edge $-1 $451 $452 $329 $276 forward #
coedge $-1 $220 $453 $261 $376 forward $277 $-1 #
straight-curve $-1 20 0 50 0 1 0 I I #
coedge $-1 $222 $454 $226 $337 reversed $171 $-1 #
ellipse-curve $-1 0 0 50 0 0 1 37.5 0 0 1 I I #
edge $-1 $225 $377 $262 $455 forward #
point $-1 27.5 -25.495097567963899 50 #
edge $-1 $227 $456 $226 $457 forward #
point $-1 20 -31.721443851123801 50 #
ellipse-curve $-1 20 -50 50.000000000000298 1 0 0 -5.2372220082647e-014 0 -15 1 I I #
ellipse-curve $-1 27.5 -50 50.000000000000298 -1 0 0 -5.2372220082647e-014 0 -15 1 I I #
loop $-1 $144 $458 $230 #
cone-surface $-1 100 -50 50 1 0 -3.4914813388431298e-015 -5.2372220082647e-014 0 -15 1 I I 0 1 15 forward I I I I #
coedge $-1 $246 $257 $234 $344 forward $259 $-1 #
edge $-1 $377 $248 $343 $260 forward #
face $-1 $230 $459 $4 $-1 $460 forward single #
coedge $-1 $398 $241 $237 $347 reversed $284 $-1 #
edge $-1 $456 $243 $237 $461 forward #
face $-1 $164 $277 $4 $-1 $349 forward single #
plane-surface $-1 20 0 37.5 -1 0 0 0 0 1 forward_v I I I I #
coedge $-1 $241 $462 $240 $351 reversed $284 $-1 #
edge $-1 $352 $463 $240 $353 forward #
vertex $-1 $242 $464 #
ellipse-curve $-1 0 0 0 0 0 -1 100 0 0 1 I I #
point $-1 20 -97.979589711327094 0 #
coedge $-1 $400 $465 $245 $356 reversed $466 $-1 #
edge $-1 $403 $358 $245 $467 forward #
coedge $-1 $258 $246 $465 $468 forward $259 $-1 #
vertex $-1 $247 $469 #
ellipse-curve $-1 0 0 75 0 0 1 100 0 0 1 I I #
point $-1 27.5 -96.144422615147107 75 #
coedge $-1 $311 $250 $470 $471 reversed $97 $-1 #
coedge $-1 $472 $473 $250 $363 reversed $474 $-1 #
edge $-1 $370 $475 $250 $476 forward #
coedge $-1 $477 $478 $251 $365 reversed $459 $-1 #
edge $-1 $463 $369 $251 $479 forward #
coedge $-1 $480 $252 $478 $481 reversed $368 $-1 #
coedge $-1 $252 $480 $472 $482 reversed $368 $-1 #
loop $-1 $-1 $480 $324 #
vertex $-1 $365 $483 #
vertex $-1 $253 $484 #
face $-1 $265 $485 $4 $-1 $486 forward single #
loop $-1 $487 $434 $254 #
cone-surface $-1 -100 50 50 1 0 -3.4914813388431298e-015 -3.4914813388431302e-014 0 -10 1 I I 0 1 10 forward I I I I #
face $-1 $50 $259 $4 $-1 $486 forward single #
coedge $-1 $488 $261 $489 $490 reversed $171 $-1 #
edge $-1 $491 $267 $331 $492 forward #
vertex $-1 $263 $493 #
ellipse-curve $-1 0 0 75 0 0 -1 37.5 0 0 1 I I #
coedge $-1 $494 $264 $495 $496 forward $171 $-1 #
coedge $-1 $264 $497 $498 $499 reversed $171 $-1 #
coedge $-1 $473 $500 $264 $382 reversed $474 $-1 #
edge $-1 $501 $502 $264 $503 forward #
face $-1 $504 $505 $4 $-1 $460 forward single #
loop $-1 $171 $506 $265 #
cone-surface $-1 0 0 0 0 0 1 37.5 0 0 1 I I 0 1 37.5 forward I I I I #
point $-1 20 31.721443851123801 50 #
coedge $-1 $288 $269 $286 $399 forward $97 $-1 #
coedge $-1 $465 $400 $269 $389 reversed $466 $-1 #
edge $-1 $390 $507 $269 $508 forward #
vertex $-1 $389 $509 #
coedge $-1 $271 $510 $511 $512 forward $97 $-1 #
coedge $-1 $453 $273 $271 $393 reversed $277 $-1 #
edge $-1 $513 $275 $271 $514 forward #
point $-1 20 97.979589711327094 50 #
vertex $-1 $282 $515 #
ellipse-curve $-1 50 50 50.000000000000199 -1 0 0 -5.2372220082647e-014 0 -15 1 I I #
loop $-1 $-1 $489 $283 #
coedge $-1 $462 $346 $454 $516 forward $284 $-1 #
edge $-1 $507 $402 $387 $404 forward #
coedge $-1 $388 $355 $287 $401 forward $466 $-1 #
edge $-1 $403 $507 $400 $517 forward #
vertex $-1 $399 $518 #
vertex $-1 $289 $519 #
ellipse-curve $-1 0 0 25 0 0 -1 100 0 0 1 I I #
loop $-1 $520 $521 $290 #
plane-surface $-1 0 0 -75 0 0 -1 -1 0 0 forward_v I I I I #
loop $-1 $466 $522 $193 #
coedge $-1 $293 $416 $411 $523 reversed $199 $-1 #
vertex $-1 $296 $524 #
straight-curve $-1 50 0 -25 0 -1 0 I I #
coedge $-1 $421 $295 $408 $523 forward $255 $-1 #
coedge $-1 $297 $420 $525 $526 reversed $255 $-1 #
edge $-1 $527 $298 $297 $528 forward #
point $-1 50 -86.602540378443905 -25 #
point $-1 100 0 -25 #
coedge $-1 $408 $301 $529 $530 reversed $199 $-1 #
coedge $-1 $302 $425 $420 $531 reversed $205 $-1 #
vertex $-1 $305 $532 #
straight-curve $-1 -50 0 -25 0 1 0 I I #
coedge $-1 $412 $304 $417 $531 forward $255 $-1 #
coedge $-1 $306 $411 $533 $534 reversed $255 $-1 #
edge $-1 $535 $307 $306 $536 forward #
point $-1 -50 86.602540378443905 -25 #
point $-1 -100 0 -25 #
coedge $-1 $417 $310 $537 $538 reversed $205 $-1 #
edge $-1 $539 $312 $311 $540 forward #
point $-1 -50 -86.602540378443905 25 #
coedge $-1 $314 $313 $541 $542 reversed $315 $-1 #
coedge $-1 $329 $317 $543 $544 forward $97 $-1 #
coedge $-1 $541 $545 $317 $431 forward $485 $-1 #
edge $-1 $546 $432 $430 $359 forward #
vertex $-1 $431 $547 #
straight-curve $-1 -50 86.602540378443905 0 0 0 1 I I #
coedge $-1 $434 $434 $321 $435 reversed $372 $-1 #
edge $-1 $548 $548 $321 $549 forward #
loop $-1 $-1 $322 $504 #
vertex $-1 $323 $550 #
ellipse-curve $-1 -50 -50 49.999999999999801 1 0 0 -3.4914813388431302e-014 0 -10 1 I I #
face $-1 $551 $552 $4 $-1 $553 forward single #
coedge $-1 $554 $555 $556 $557 reversed $325 $-1 #
coedge $-1 $558 $326 $559 $560 reversed $218 $-1 #
coedge $-1 $326 $558 $561 $562 reversed $218 $-1 #
coedge $-1 $563 $564 $326 $444 forward $487 $-1 #
edge $-1 $565 $566 $443 $567 forward #
coedge $-1 $328 $327 $568 $569 reversed $135 $-1 #
coedge $-1 $543 $570 $327 $447 forward $552 $-1 #
edge $-1 $571 $451 $446 $572 forward #
coedge $-1 $573 $574 $328 $449 forward $505 $-1 #
edge $-1 $452 $575 $448 $576 forward #
coedge $-1 $510 $329 $574 $577 forward $97 $-1 #
vertex $-1 $330 $578 #
vertex $-1 $330 $579 #
coedge $-1 $331 $392 $580 $581 forward $277 $-1 #
coedge $-1 $333 $494 $398 $516 reversed $171 $-1 #
straight-curve $-1 27.5 -25.495097567963899 0 0 0 1 I I #
vertex $-1 $337 $582 #
straight-curve $-1 20 -31.721443851123801 0 0 0 -1 I I #
coedge $-1 $458 $458 $522 $583 reversed $341 $-1 #
loop $-1 $-1 $478 $345 #
plane-surface $-1 -20 0 37.5 1 0 0 0 0 -1 forward_v I I I I #
straight-curve $-1 20 0 0 0 -1 0 I I #
coedge $-1 $350 $398 $477 $584 reversed $284 $-1 #
vertex $-1 $351 $585 #
point $-1 0 -100 0 #
coedge $-1 $355 $388 $357 $468 reversed $466 $-1 #
loop $-1 $-1 $355 $193 #
straight-curve $-1 50 -86.602540378443905 0 0 0 1 I I #
edge $-1 $358 $390 $357 $586 forward #
point $-1 50 -86.602540378443905 75 #
coedge $-1 $587 $541 $361 $471 forward $485 $-1 #
edge $-1 $539 $475 $470 $359 forward #
coedge $-1 $588 $362 $367 $482 forward $474 $-1 #
coedge $-1 $362 $381 $587 $589 reversed $474 $-1 #
loop $-1 $-1 $588 $551 #
vertex $-1 $471 $590 #
straight-curve $-1 -27.5 -96.144422615147107 0 0 0 1 I I #
coedge $-1 $591 $364 $462 $584 forward $459 $-1 #
coedge $-1 $364 $592 $366 $481 forward $459 $-1 #
straight-curve $-1 -20 -97.979589711327094 0 0 0 1 I I #
coedge $-1 $367 $366 $593 $594 reversed $368 $-1 #
edge $-1 $595 $369 $478 $596 forward #
edge $-1 $370 $597 $472 $572 forward #
point $-1 -20 -97.979589711327094 50 #
point $-1 -27.5 -96.144422615147107 50 #
loop $-1 $-1 $587 $371 #
plane-surface $-1 0 0 75 0 0 1 1 0 0 forward_v I I I I #
loop $-1 $-1 $568 $254 #
coedge $-1 $598 $375 $599 $600 reversed $171 $-1 #
coedge $-1 $580 $601 $375 $490 forward $397 $-1 #
edge $-1 $602 $491 $489 $603 forward #
vertex $-1 $581 $604 #
straight-curve $-1 20 31.721443851123801 0 0 0 1 I I #
point $-1 27.5 -25.495097567963899 75 #
coedge $-1 $454 $379 $591 $605 reversed $171 $-1 #
coedge $-1 $555 $554 $379 $496 reversed $325 $-1 #
edge $-1 $502 $606 $379 $334 forward #
coedge $-1 $380 $598 $607 $608 forward $171 $-1 #
coedge $-1 $545 $587 $380 $499 forward $485 $-1 #
edge $-1 $501 $609 $498 $610 forward #
coedge $-1 $381 $588 $555 $611 forward $474 $-1 #
vertex $-1 $382 $612 #
vertex $-1 $496 $613 #
straight-curve $-1 -27.5 -25.495097567963899 0 0 0 -1 I I #
face $-1 $116 $614 $4 $-1 $615 reversed single #
loop $-1 $-1 $448 $383 #
coedge $-1 $506 $506 $521 $616 reversed $384 $-1 #
vertex $-1 $399 $617 #
straight-curve $-1 50 86.602540378443905 0 0 0 -1 I I #
point $-1 50 86.602540378443905 75 #
coedge $-1 $391 $450 $618 $619 forward $97 $-1 #
coedge $-1 $618 $580 $391 $512 reversed $397 $-1 #
edge $-1 $620 $513 $391 $621 forward #
vertex $-1 $512 $622 #
straight-curve $-1 20 97.979589711327094 0 0 0 1 I I #
point $-1 50 49.999999999999901 65.000000000000199 #
edge $-1 $456 $623 $398 $624 forward #
straight-curve $-1 50 0 25 0 1 0 I I #
point $-1 100 0 25 #
point $-1 50 -86.602540378443905 25 #
loop $-1 $-1 $537 $290 #
coedge $-1 $521 $521 $506 $616 forward $405 $-1 #
coedge $-1 $522 $522 $458 $583 forward $407 $-1 #
edge $-1 $409 $625 $411 $626 forward #
point $-1 50 86.602540378443905 -25 #
coedge $-1 $537 $529 $412 $526 forward $520 $-1 #
edge $-1 $527 $627 $525 $628 forward #
vertex $-1 $530 $629 #
straight-curve $-1 50 -86.602540378443905 0 0 0 1 I I #
coedge $-1 $525 $533 $416 $530 forward $520 $-1 #
edge $-1 $625 $527 $529 $630 forward #
edge $-1 $418 $627 $420 $631 forward #
point $-1 -50 -86.602540378443905 -25 #
coedge $-1 $529 $537 $421 $534 forward $520 $-1 #
edge $-1 $535 $625 $533 $628 forward #
vertex $-1 $538 $632 #
straight-curve $-1 -50 86.602540378443905 0 0 0 1 I I #
coedge $-1 $533 $525 $425 $538 forward $520 $-1 #
edge $-1 $627 $535 $537 $633 forward #
vertex $-1 $426 $634 #
straight-curve $-1 -50 -86.602540378443905 0 0 0 -1 I I #
coedge $-1 $470 $430 $428 $542 forward $485 $-1 #
edge $-1 $432 $539 $541 $635 forward #
coedge $-1 $636 $446 $429 $544 reversed $552 $-1 #
edge $-1 $546 $451 $429 $637 forward #
coedge $-1 $430 $498 $636 $638 forward $485 $-1 #
vertex $-1 $638 $639 #
point $-1 -50 86.602540378443905 75 #
vertex $-1 $435 $640 #
ellipse-curve $-1 -50 50 49.999999999999801 1 0 0 -3.4914813388431302e-014 0 -10 1 I I #
point $-1 -50 -49.999999999999901 59.999999999999801 #
face $-1 $235 $474 $4 $-1 $553 forward single #
loop $-1 $-1 $543 $439 #
plane-surface $-1 -27.5 0 62.5 1 0 0 0 0 -1 forward_v I I I I #
coedge $-1 $495 $440 $641 $642 reversed $325 $-1 #
coedge $-1 $440 $495 $500 $611 reversed $325 $-1 #
coedge $-1 $643 $644 $440 $557 forward $614 $-1 #
edge $-1 $645 $646 $556 $647 forward #
coedge $-1 $442 $441 $598 $648 reversed $218 $-1 #
coedge $-1 $570 $607 $441 $560 forward $552 $-1 #
edge $-1 $649 $565 $559 $572 forward #
coedge $-1 $599 $573 $442 $562 forward $505 $-1 #
edge $-1 $566 $650 $561 $576 forward #
coedge $-1 $568 $443 $573 $651 reversed $487 $-1 #
coedge $-1 $443 $568 $570 $652 forward $487 $-1 #
vertex $-1 $444 $653 #
vertex $-1 $651 $654 #
straight-curve $-1 -100 40 50 1 0 -3.4914813388431298e-015 I I #
coedge $-1 $564 $563 $445 $569 forward $487 $-1 #
edge $-1 $575 $571 $568 $655 forward #
coedge $-1 $446 $559 $564 $652 reversed $552 $-1 #
vertex $-1 $569 $656 #
straight-curve $-1 -27.5 0 50 0 1 0 I I #
coedge $-1 $561 $448 $563 $651 forward $505 $-1 #
coedge $-1 $448 $657 $450 $577 reversed $505 $-1 #
vertex $-1 $569 $658 #
straight-curve $-1 -20 0 50 0 -1 0 I I #
edge $-1 $452 $659 $450 $660 forward #
point $-1 -27.5 96.144422615147107 50 #
point $-1 -20 97.979589711327094 50 #
coedge $-1 $511 $489 $453 $581 reversed $397 $-1 #
edge $-1 $513 $491 $453 $461 forward #
point $-1 20 -31.721443851123801 0 #
edge $-1 $661 $661 $522 $662 forward #
edge $-1 $463 $623 $477 $663 forward #
point $-1 -20 -97.979589711327094 0 #
straight-curve $-1 50 0 75 0 1 0 I I #
coedge $-1 $498 $470 $473 $589 forward $485 $-1 #
coedge $-1 $500 $472 $643 $664 reversed $474 $-1 #
edge $-1 $475 $501 $587 $665 forward #
point $-1 -27.5 -96.144422615147107 75 #
coedge $-1 $641 $477 $494 $605 forward $459 $-1 #
coedge $-1 $478 $641 $644 $666 forward $459 $-1 #
coedge $-1 $644 $643 $480 $594 forward $614 $-1 #
edge $-1 $597 $595 $593 $667 forward #
vertex $-1 $666 $668 #
straight-curve $-1 -20 0 50 0 -1 0 I I #
vertex $-1 $594 $669 #
coedge $-1 $497 $488 $558 $648 forward $171 $-1 #
coedge $-1 $657 $561 $488 $600 forward $505 $-1 #
edge $-1 $650 $602 $599 $670 forward #
coedge $-1 $489 $618 $657 $671 reversed $397 $-1 #
vertex $-1 $490 $672 #
ellipse-curve $-1 0 0 0 0 0 -1 37.5 0 0 1 I I #
point $-1 20 31.721443851123801 0 #
edge $-1 $623 $606 $591 $673 forward #
vertex $-1 $605 $674 #
coedge $-1 $559 $636 $497 $608 reversed $552 $-1 #
edge $-1 $649 $609 $497 $675 forward #
vertex $-1 $499 $676 #
ellipse-curve $-1 0 0 75 0 0 -1 37.5 0 0 1 I I #
edge $-1 $646 $502 $500 $572 forward #
point $-1 -27.5 -25.495097567963899 75 #
point $-1 -27.5 -25.495097567963899 50 #
loop $-1 $436 $593 $504 #
cone-surface $-1 -100 -50 50 1 0 -3.4914813388431298e-015 -3.4914813388431302e-014 0 -10 1 I I 0 1 10 forward I I I I #
edge $-1 $677 $677 $521 $678 forward #
point $-1 50 86.602540378443905 25 #
coedge $-1 $601 $511 $510 $619 reversed $397 $-1 #
edge $-1 $659 $620 $510 $621 forward #
vertex $-1 $619 $679 #
ellipse-curve $-1 0 0 0 0 0 -1 100 0 0 1 I I #
point $-1 20 97.979589711327094 0 #
vertex $-1 $584 $680 #
ellipse-curve $-1 0 0 0 0 0 -1 37.5 0 0 1 I I #
vertex $-1 $534 $681 #
straight-curve $-1 50 86.602540378443905 0 0 0 -1 I I #
vertex $-1 $526 $682 #
ellipse-curve $-1 0 0 -75 0 0 -1 100 0 0 1 I I #
point $-1 50 -86.602540378443905 -75 #
straight-curve $-1 50 0 -75 0 -1 0 I I #
straight-curve $-1 -50 -86.602540378443905 0 0 0 -1 I I #
point $-1 -50 86.602540378443905 -75 #
straight-curve $-1 -50 0 -75 0 1 0 I I #
point $-1 -50 -86.602540378443905 75 #
straight-curve $-1 -50 0 75 0 -1 0 I I #
coedge $-1 $607 $543 $545 $638 reversed $552 $-1 #
straight-curve $-1 -27.5 96.144422615147107 0 0 0 -1 I I #
edge $-1 $609 $546 $545 $665 forward #
point $-1 -27.5 96.144422615147107 75 #
point $-1 -50 50.000000000000099 59.999999999999801 #
coedge $-1 $592 $591 $554 $642 forward $459 $-1 #
edge $-1 $606 $645 $641 $596 forward #
coedge $-1 $593 $556 $588 $664 forward $614 $-1 #
coedge $-1 $556 $593 $592 $666 reversed $614 $-1 #
vertex $-1 $642 $683 #
vertex $-1 $557 $684 #
straight-curve $-1 -100 -40 50 -1 0 3.4914813388431298e-015 I I #
edge $-1 $650 $649 $598 $268 forward #
vertex $-1 $648 $685 #
vertex $-1 $648 $686 #
edge $-1 $575 $566 $573 $687 forward #
edge $-1 $571 $565 $564 $688 forward #
point $-1 -27.5 40 50 #
point $-1 -20 40 50 #
straight-curve $-1 -100 60 50 -1 0 3.4914813388431298e-015 I I #
point $-1 -27.5 60 50 #
coedge $-1 $574 $599 $601 $671 forward $505 $-1 #
point $-1 -20 60 50 #
vertex $-1 $619 $689 #
straight-curve $-1 -20 97.979589711327094 0 0 0 -1 I I #
vertex $-1 $583 $690 #
ellipse-curve $-1 50 -50 50.000000000000199 -1 0 0 -5.2372220082647e-014 0 -15 1 I I #
straight-curve $-1 -20 0 0 0 1 0 I I #
edge $-1 $646 $597 $643 $691 forward #
straight-curve $-1 -27.5 0 75 0 1 0 I I #
edge $-1 $645 $595 $592 $692 forward #
straight-curve $-1 -100 -60 50 1 0 -3.4914813388431298e-015 I I #
point $-1 -20 -60 50 #
point $-1 -27.5 -60 50 #
straight-curve $-1 -20 31.721443851123801 0 0 0 -1 I I #
edge $-1 $602 $659 $657 $663 forward #
point $-1 -20 31.721443851123801 0 #
straight-curve $-1 -20 -31.721443851123801 0 0 0 1 I I #
point $-1 -20 -31.721443851123801 50 #
straight-curve $-1 -27.5 25.495097567963899 0 0 0 1 I I #
point $-1 -27.5 25.495097567963899 75 #
vertex $-1 $616 $693 #
ellipse-curve $-1 0 0 -75 0 0 1 37.5 0 0 1 I I #
point $-1 0 100 0 #
point $-1 -20 -31.721443851123801 0 #
point $-1 50 86.602540378443905 -75 #
point $-1 -50 -86.602540378443905 -75 #
point $-1 -20 -40 50 #
point $-1 -27.5 -40 50 #
point $-1 -27.5 25.495097567963899 50 #
point $-1 -20 31.721443851123801 50 #
ellipse-curve $-1 -20 50 49.999999999999702 -1 0 0 -3.4914813388431302e-014 0 -10 1 I I #
ellipse-curve $-1 -27.5 50 49.999999999999702 1 0 0 -3.4914813388431302e-014 0 -10 1 I I #
point $-1 -20 97.979589711327094 0 #
point $-1 50 -50.000000000000099 65.000000000000199 #
ellipse-curve $-1 -27.5 -50 49.999999999999702 1 0 0 -3.4914813388431302e-014 0 -10 1 I I #
ellipse-curve $-1 -20 -50 49.999999999999702 -1 0 0 -3.4914813388431302e-014 0 -10 1 I I #
point $-1 -37.5 2.6186110041323501e-013 -75 #
End-of-ACIS-data
