104 302 0 0                             
body $-1 $1 $-1 $2 #
lump $-1 $-1 $3 $0 #
transform $-1 1 0 0 0 1 0 0 0 1 0 0 0 1 0 0 0 #
shell $-1 $-1 $-1 $4 $1 #
face $5 $6 $7 $3 $-1 $8 1 #
face_name-twe-attrib $-1 $-1 $-1 $4 1 #
face $9 $10 $11 $3 $-1 $12 0 #
loop $13 $-1 $14 $4 #
plane-surface $15 0 0 0 0 0 1 1 0 0 0 #
face_name-twe-attrib $-1 $-1 $-1 $6 2 #
face $16 $17 $18 $3 $-1 $19 0 #
loop $20 $-1 $21 $6 #
plane-surface $22 0 0 2 0 0 1 1 0 0 0 #
loop_type-twe-attrib $-1 $-1 $-1 $7 0 #
coedge $-1 $23 $24 $25 $26 0 $7 $-1 #
surf-twe-attrib $-1 $-1 $-1 $8 4 #
face_name-twe-attrib $-1 $-1 $-1 $10 3 #
face $27 $28 $29 $3 $-1 $30 0 #
loop $31 $-1 $25 $10 #
plane-surface $32 0 0 0 -1 0 0 0 0 1 0 #
loop_type-twe-attrib $-1 $-1 $-1 $11 0 #
coedge $-1 $33 $34 $35 $36 1 $11 $-1 #
surf-twe-attrib $-1 $-1 $-1 $12 6 #
coedge $-1 $37 $14 $38 $39 0 $7 $-1 #
coedge $-1 $14 $40 $41 $42 0 $7 $-1 #
coedge $-1 $43 $44 $14 $26 1 $18 $-1 #
edge $45 $46 $47 $25 $48 0 #
face_name-twe-attrib $-1 $-1 $-1 $17 4 #
face $49 $50 $51 $3 $-1 $52 0 #
loop $53 $-1 $41 $17 #
plane-surface $54 0 -0.875 0 0 -1 0 0 0 -1 0 #
loop_type-twe-attrib $-1 $-1 $-1 $18 0 #
surf-twe-attrib $-1 $-1 $-1 $19 10 #
coedge $-1 $55 $21 $56 $57 1 $11 $-1 #
coedge $-1 $21 $58 $59 $60 1 $11 $-1 #
coedge $-1 $44 $43 $21 $36 0 $18 $-1 #
edge $61 $62 $63 $35 $64 0 #
coedge $-1 $65 $23 $66 $67 0 $7 $-1 #
coedge $-1 $68 $69 $23 $39 1 $70 $-1 #
edge $71 $47 $72 $38 $73 0 #
coedge $-1 $24 $74 $75 $76 0 $7 $-1 #
coedge $-1 $77 $78 $24 $42 1 $29 $-1 #
edge $79 $80 $46 $41 $81 0 #
coedge $-1 $35 $25 $78 $82 1 $18 $-1 #
coedge $-1 $25 $35 $68 $83 0 $18 $-1 #
edge_name-twe-attrib $-1 $-1 $-1 $26 1 8704 #
vertex $-1 $82 $84 #
vertex $-1 $83 $85 #
straight-curve $86 0 0 0 0 1 0 #
face_name-twe-attrib $-1 $-1 $-1 $28 5 #
face $87 $88 $89 $3 $-1 $90 0 #
loop $91 $-1 $75 $28 #
plane-surface $92 4 -0.875 0 1 0 0 0 0 -1 0 #
loop_type-twe-attrib $-1 $-1 $-1 $29 0 #
surf-twe-attrib $-1 $-1 $-1 $30 17 #
coedge $-1 $93 $33 $94 $95 1 $11 $-1 #
coedge $-1 $78 $77 $33 $57 0 $29 $-1 #
edge $96 $97 $62 $56 $98 0 #
coedge $-1 $34 $99 $100 $101 1 $11 $-1 #
coedge $-1 $69 $68 $34 $60 0 $70 $-1 #
edge $102 $63 $103 $59 $104 0 #
edge_name-twe-attrib $-1 $-1 $-1 $36 2 8704 #
vertex $-1 $82 $105 #
vertex $-1 $83 $106 #
straight-curve $107 0 0 2 0 1 0 #
coedge $-1 $108 $37 $109 $110 0 $7 $-1 #
coedge $-1 $111 $112 $37 $67 1 $113 $-1 #
edge $114 $72 $115 $66 $116 0 #
coedge $-1 $59 $38 $44 $83 1 $70 $-1 #
coedge $-1 $38 $59 $111 $117 0 $70 $-1 #
loop $118 $-1 $38 $119 #
edge_name-twe-attrib $-1 $-1 $-1 $39 27 8704 #
vertex $-1 $117 $120 #
straight-curve $121 2.09375 0 0 1 0 0 #
coedge $-1 $40 $122 $123 $124 0 $7 $-1 #
coedge $-1 $125 $126 $40 $76 1 $51 $-1 #
edge $127 $128 $80 $75 $129 0 #
coedge $-1 $56 $41 $126 $130 1 $29 $-1 #
coedge $-1 $41 $56 $43 $82 0 $29 $-1 #
edge_name-twe-attrib $-1 $-1 $-1 $42 3 8704 #
vertex $-1 $130 $131 #
straight-curve $132 0 -0.875 0 -1 0 0 #
edge $133 $62 $46 $78 $134 0 #
edge $135 $63 $47 $68 $136 0 #
point $-1 0 -0.875 0 #
point $-1 0 0 0 #
cur-twe-attrib $-1 $-1 $-1 $48 26 #
face_name-twe-attrib $-1 $-1 $-1 $50 6 #
face $137 $138 $139 $3 $-1 $140 1 #
loop $141 $-1 $123 $50 #
plane-surface $142 4 0 0 0 1 0 0 0 1 0 #
loop_type-twe-attrib $-1 $-1 $-1 $51 0 #
surf-twe-attrib $-1 $-1 $-1 $52 28 #
coedge $-1 $143 $55 $144 $145 1 $11 $-1 #
coedge $-1 $126 $125 $55 $95 0 $51 $-1 #
edge $146 $147 $97 $94 $148 0 #
edge_name-twe-attrib $-1 $-1 $-1 $57 4 8704 #
vertex $-1 $130 $149 #
straight-curve $150 0 -0.875 2 -1 0 0 #
coedge $-1 $58 $151 $152 $153 1 $11 $-1 #
coedge $-1 $112 $111 $58 $101 0 $113 $-1 #
edge $154 $103 $155 $100 $156 0 #
edge_name-twe-attrib $-1 $-1 $-1 $60 29 8704 #
vertex $-1 $117 $157 #
straight-curve $158 2.09375 0 2 1 0 0 #
point $-1 0 -0.875 2 #
point $-1 0 0 2 #
cur-twe-attrib $-1 $-1 $-1 $64 36 #
coedge $-1 $159 $65 $160 $161 0 $7 $-1 #
coedge $-1 $162 $163 $65 $110 1 $164 $-1 #
edge $165 $115 $166 $109 $167 0 #
coedge $-1 $100 $66 $69 $117 1 $113 $-1 #
coedge $-1 $66 $100 $162 $168 0 $113 $-1 #
loop $169 $-1 $66 $170 #
edge_name-twe-attrib $-1 $-1 $-1 $67 24 8704 #
vertex $-1 $168 $171 #
ellipse-curve $172 2.09375 0.03125 0 0 0 1 0.03125 0 0 1 #
edge $173 $103 $72 $69 $174 0 #
loop_type-twe-attrib $-1 $-1 $-1 $70 0 #
face $175 $-1 $70 $3 $-1 $176 0 #
point $-1 2.09375 0 0 #
cur-twe-attrib $-1 $177 $-1 $73 39 #
coedge $-1 $74 $159 $178 $179 0 $7 $-1 #
coedge $-1 $180 $181 $74 $124 1 $89 $-1 #
edge $182 $183 $128 $123 $184 0 #
coedge $-1 $94 $75 $181 $185 1 $51 $-1 #
coedge $-1 $75 $94 $77 $130 0 $51 $-1 #
edge_name-twe-attrib $-1 $-1 $-1 $76 6 8704 #
vertex $-1 $185 $186 #
straight-curve $187 4 -0.875 0 0 -1 0 #
edge $188 $97 $80 $126 $189 0 #
point $-1 4 -0.875 0 #
cur-twe-attrib $-1 $-1 $-1 $81 42 #
edge_name-twe-attrib $-1 $-1 $-1 $82 5 8704 #
straight-curve $190 0 -0.875 0 0 0 -1 #
edge_name-twe-attrib $-1 $-1 $-1 $83 28 8704 #
straight-curve $191 0 0 0 0 0 -1 #
face_name-twe-attrib $-1 $-1 $-1 $88 7 #
face $192 $193 $194 $3 $-1 $195 0 #
loop $196 $-1 $178 $88 #
cone-surface $197 3.03125 0.03125 0 0 0 1 0.03125 0 0 1 0 1 0 #
loop_type-twe-attrib $-1 $-1 $-1 $89 0 #
surf-twe-attrib $-1 $198 $-1 $90 119 #
coedge $-1 $199 $93 $200 $201 1 $11 $-1 #
coedge $-1 $181 $180 $93 $145 0 $89 $-1 #
edge $202 $203 $147 $144 $204 0 #
edge_name-twe-attrib $-1 $-1 $-1 $95 7 8704 #
vertex $-1 $185 $205 #
straight-curve $206 4 -0.875 2 0 -1 0 #
point $-1 4 -0.875 2 #
cur-twe-attrib $-1 $-1 $-1 $98 57 #
coedge $-1 $99 $199 $207 $208 1 $11 $-1 #
coedge $-1 $163 $162 $99 $153 0 $164 $-1 #
edge $209 $155 $210 $152 $211 0 #
edge_name-twe-attrib $-1 $-1 $-1 $101 25 8704 #
vertex $-1 $168 $212 #
ellipse-curve $213 2.09375 0.03125 2 0 0 1 0.03125 0 0 1 #
point $-1 2.09375 0 2 #
cur-twe-attrib $-1 $214 $-1 $104 60 #
coedge $-1 $122 $108 $215 $216 0 $7 $-1 #
coedge $-1 $217 $218 $108 $161 1 $219 $-1 #
edge $220 $166 $221 $160 $222 0 #
coedge $-1 $152 $109 $112 $168 1 $164 $-1 #
coedge $-1 $109 $152 $217 $223 0 $164 $-1 #
loop $224 $-1 $109 $225 #
edge_name-twe-attrib $-1 $-1 $-1 $110 21 8704 #
vertex $-1 $223 $226 #
straight-curve $227 2.125 2.125 0 0 1 0 #
edge $228 $155 $115 $112 $229 0 #
loop_type-twe-attrib $-1 $-1 $-1 $113 0 #
face $230 $119 $113 $3 $-1 $231 1 #
point $-1 2.125 0.03125 0 #
cur-twe-attrib $-1 $-1 $-1 $116 67 #
edge_name-twe-attrib $-1 $-1 $-1 $117 30 20480 #
straight-curve $232 2.09375 0 0 0 0 -1 #
face_name-twe-attrib $-1 $-1 $-1 $119 12 #
plane-surface $233 2.09375 0 0 0 1 0 0 0 1 0 #
cur-twe-attrib $-1 $-1 $121 $73 124 #
coedge $-1 $234 $235 $122 $179 1 $139 $-1 #
edge $236 $237 $183 $178 $238 0 #
coedge $-1 $144 $123 $235 $239 1 $89 $-1 #
coedge $-1 $123 $144 $125 $185 0 $89 $-1 #
edge_name-twe-attrib $-1 $-1 $-1 $124 9 8704 #
vertex $-1 $239 $240 #
straight-curve $241 4 0 0 1 0 0 #
edge $242 $147 $128 $181 $243 0 #
point $-1 4 0 0 #
cur-twe-attrib $-1 $-1 $-1 $129 76 #
edge_name-twe-attrib $-1 $-1 $-1 $130 8 8704 #
straight-curve $244 4 -0.875 0 0 0 -1 #
cur-twe-attrib $-1 $-1 $-1 $134 82 #
cur-twe-attrib $-1 $-1 $-1 $136 83 #
face_name-twe-attrib $-1 $-1 $-1 $138 8 #
face $245 $225 $219 $3 $-1 $246 0 #
loop $247 $-1 $215 $138 #
plane-surface $248 3 0.03125 0 1 0 0 0 0 -1 0 #
loop_type-twe-attrib $-1 $-1 $-1 $139 0 #
surf-twe-attrib $-1 $-1 $-1 $140 88 #
surf-twe-attrib $-1 $-1 $142 $90 50 #
coedge $-1 $151 $143 $249 $250 1 $11 $-1 #
coedge $-1 $235 $234 $143 $201 0 $139 $-1 #
edge $251 $252 $203 $200 $253 0 #
edge_name-twe-attrib $-1 $-1 $-1 $145 10 8704 #
vertex $-1 $239 $254 #
straight-curve $255 4 0 2 1 -3.58136459556502e-18 0 #
point $-1 4 0 2 #
cur-twe-attrib $-1 $-1 $-1 $148 95 #
coedge $-1 $218 $217 $151 $208 0 $219 $-1 #
edge $256 $210 $257 $207 $258 0 #
edge_name-twe-attrib $-1 $-1 $-1 $153 22 8704 #
vertex $-1 $223 $259 #
straight-curve $260 2.125 2.125 2 0 1 0 #
point $-1 2.125 0.03125 2 #
cur-twe-attrib $-1 $-1 $-1 $156 101 #
cur-twe-attrib $-1 $-1 $158 $104 145 #
coedge $-1 $261 $262 $159 $216 1 $194 $-1 #
edge $263 $221 $237 $215 $264 0 #
coedge $-1 $207 $160 $163 $223 1 $219 $-1 #
coedge $-1 $160 $207 $261 $265 0 $219 $-1 #
loop $266 $-1 $160 $193 #
edge_name-twe-attrib $-1 $-1 $-1 $161 18 8704 #
vertex $-1 $265 $267 #
straight-curve $268 3 2.125 0 1 0 0 #
edge $269 $210 $166 $163 $270 0 #
loop_type-twe-attrib $-1 $-1 $-1 $164 0 #
face $271 $170 $164 $3 $-1 $272 0 #
point $-1 2.125 2.125 0 #
cur-twe-attrib $-1 $-1 $-1 $167 110 #
edge_name-twe-attrib $-1 $-1 $-1 $168 26 20480 #
straight-curve $273 2.125 0.03125 0 0 0 -1 #
face_name-twe-attrib $-1 $-1 $-1 $170 11 #
cone-surface $274 2.09375 0.03125 0 0 0 1 0.03125 0 0 1 0 1 0 #
cur-twe-attrib $-1 $-1 $-1 $174 117 #
surf-twe-attrib $-1 $275 $-1 $176 119 #
coedge $-1 $200 $178 $262 $276 1 $139 $-1 #
coedge $-1 $178 $200 $180 $239 0 $139 $-1 #
edge_name-twe-attrib $-1 $-1 $-1 $179 12 8704 #
vertex $-1 $276 $277 #
ellipse-curve $278 3.03125 0.03125 0 0 0 1 0 -0.03125 0 1 #
edge $279 $203 $183 $235 $280 0 #
point $-1 3.03125 0 0 #
cur-twe-attrib $-1 $281 $-1 $184 39 #
edge_name-twe-attrib $-1 $-1 $-1 $185 11 8704 #
straight-curve $282 4 0 0 0 0 -1 #
cur-twe-attrib $-1 $-1 $-1 $189 130 #
face_name-twe-attrib $-1 $-1 $-1 $193 9 #
plane-surface $283 3 2.125 0 0 1 0 0 0 1 0 #
loop_type-twe-attrib $-1 $-1 $-1 $194 0 #
surf-twe-attrib $-1 $-1 $-1 $195 138 #
coedge $-1 $262 $261 $199 $250 0 $194 $-1 #
edge $284 $257 $252 $249 $285 0 #
edge_name-twe-attrib $-1 $-1 $-1 $201 13 8704 #
vertex $-1 $276 $286 #
ellipse-curve $287 3.03125 0.03125 2 0 0 1 0 -0.03125 0 1 #
point $-1 3.03125 3.46944695195361e-18 2 #
cur-twe-attrib $-1 $288 $-1 $204 60 #
edge_name-twe-attrib $-1 $-1 $-1 $208 19 8704 #
vertex $-1 $265 $289 #
straight-curve $290 3 2.125 2 1 0 0 #
point $-1 2.125 2.125 2 #
cur-twe-attrib $-1 $-1 $-1 $211 153 #
coedge $-1 $249 $215 $218 $265 1 $194 $-1 #
coedge $-1 $215 $249 $234 $276 0 $194 $-1 #
edge_name-twe-attrib $-1 $-1 $-1 $216 15 8704 #
straight-curve $291 3 0.03125 0 0 -1 0 #
edge $292 $257 $221 $218 $293 0 #
loop_type-twe-attrib $-1 $-1 $-1 $219 0 #
point $-1 3 2.125 0 #
cur-twe-attrib $-1 $-1 $-1 $222 161 #
edge_name-twe-attrib $-1 $-1 $-1 $223 23 8704 #
straight-curve $294 2.125 2.125 0 0 0 -1 #
face_name-twe-attrib $-1 $-1 $-1 $225 10 #
plane-surface $295 2.125 2.125 0 -1 0 0 0 0 1 0 #
cur-twe-attrib $-1 $-1 $-1 $229 168 #
surf-twe-attrib $-1 $-1 $-1 $231 170 #
surf-twe-attrib $-1 $-1 $233 $176 50 #
edge $296 $252 $237 $262 $297 0 #
point $-1 3 0.03125 0 #
cur-twe-attrib $-1 $-1 $-1 $238 179 #
edge_name-twe-attrib $-1 $-1 $-1 $239 14 20480 #
straight-curve $298 3.03125 0 0 0 -1.73472347597681e-18 -1 #
cur-twe-attrib $-1 $-1 $241 $184 124 #
cur-twe-attrib $-1 $-1 $-1 $243 185 #
surf-twe-attrib $-1 $-1 $-1 $246 193 #
edge_name-twe-attrib $-1 $-1 $-1 $250 16 8704 #
straight-curve $299 3 0.03125 2 0 -1 0 #
point $-1 3 0.03125 2 #
cur-twe-attrib $-1 $-1 $-1 $253 201 #
cur-twe-attrib $-1 $-1 $255 $204 145 #
point $-1 3 2.125 2 #
cur-twe-attrib $-1 $-1 $-1 $258 208 #
cur-twe-attrib $-1 $-1 $-1 $264 216 #
edge_name-twe-attrib $-1 $-1 $-1 $265 20 8704 #
straight-curve $300 3 2.125 0 0 0 -1 #
cur-twe-attrib $-1 $-1 $-1 $270 223 #
surf-twe-attrib $-1 $-1 $-1 $272 225 #
edge_name-twe-attrib $-1 $-1 $-1 $276 17 20480 #
straight-curve $301 3 0.03125 0 0 6.93889390390723e-18 -1 #
cur-twe-attrib $-1 $-1 $-1 $280 239 #
cur-twe-attrib $-1 $-1 $-1 $285 250 #
cur-twe-attrib $-1 $-1 $-1 $293 265 #
cur-twe-attrib $-1 $-1 $-1 $297 276 #
