107 0 1 0           
body $1 $2 $-1 $-1 #
display_attribute-st-attrib $-1 $3 $-1 $0 1 #
lump $-1 $-1 $4 $0 #
id_attribute-st-attrib $-1 $-1 $1 $0 25 #
shell $-1 $-1 $-1 $5 $-1 $2 #
face $-1 $6 $7 $4 $-1 $8 forward single #
face $-1 $9 $10 $4 $-1 $11 forward single #
loop $-1 $-1 $12 $5 #
plane-surface $-1 -1.5 -0.875 0 -1 0 0 0 0 1 0 I I I I #
face $-1 $13 $14 $4 $-1 $15 forward single #
loop $-1 $-1 $16 $6 #
plane-surface $-1 -1.5 1 0 0 1 0 0 0 1 0 I I I I #
coedge $-1 $17 $18 $19 $20 0 $7 $-1 #
face $-1 $21 $22 $4 $-1 $23 forward single #
loop $-1 $-1 $24 $9 #
plane-surface $-1 1.5 1 0 1 0 0 0 0 -1 0 I I I I #
coedge $-1 $25 $26 $27 $28 0 $10 $-1 #
coedge $-1 $29 $12 $26 $30 1 $7 $-1 #
coedge $-1 $12 $29 $31 $32 0 $7 $-1 #
coedge $-1 $33 $27 $12 $20 1 $34 $-1 #
edge $-1 $35 $36 $12 $37 0 #
face $-1 $38 $39 $4 $-1 $40 forward single #
loop $-1 $-1 $41 $13 #
plane-surface $-1 1.5 -0.875 0 0 -1 0 0 0 -1 0 I I I I #
coedge $-1 $42 $43 $44 $45 0 $14 $-1 #
coedge $-1 $46 $16 $43 $47 1 $10 $-1 #
coedge $-1 $16 $46 $17 $30 0 $10 $-1 #
coedge $-1 $19 $44 $16 $28 1 $34 $-1 #
edge $-1 $36 $48 $16 $49 0 #
coedge $-1 $18 $17 $-1 $50 0 $7 $-1 #
edge $-1 $51 $36 $26 $52 0 #
coedge $-1 $53 $41 $18 $32 1 $22 $-1 #
edge $-1 $54 $35 $18 $55 0 #
coedge $-1 $44 $19 $41 $56 1 $34 $-1 #
loop $-1 $-1 $19 $57 #
vertex $-1 $32 $58 #
vertex $-1 $30 $59 #
straight-curve $-1 -1.5 0 10 0 1 0 I I #
face $-1 $60 $61 $4 $-1 $62 forward single #
loop $-1 $-1 $63 $21 #
plane-surface $-1 -1.25 0.5625 0 1 0 0 0 0 -1 0 I I I I #
coedge $-1 $31 $64 $33 $56 0 $22 $-1 #
coedge $-1 $65 $24 $64 $66 1 $14 $-1 #
coedge $-1 $24 $65 $25 $47 0 $14 $-1 #
coedge $-1 $27 $33 $24 $45 1 $34 $-1 #
edge $-1 $48 $67 $24 $68 0 #
coedge $-1 $26 $25 $-1 $69 0 $10 $-1 #
edge $-1 $70 $48 $43 $71 0 #
vertex $-1 $47 $72 #
straight-curve $-1 0 1 10 1 0 0 I I #
edge $-1 $51 $54 $29 $73 0 #
vertex $-1 $69 $74 #
straight-curve $-1 -1.5 1 0 0 0 1 I I #
coedge $-1 $64 $31 $-1 $75 0 $22 $-1 #
vertex $-1 $75 $76 #
straight-curve $-1 -1.5 -0.875 0 0 0 1 I I #
edge $-1 $67 $35 $41 $77 0 #
face $-1 $-1 $78 $4 $-1 $79 forward single #
point $-1 -1.5 -0.875 10 #
point $-1 -1.5 1 10 #
face $-1 $80 $81 $4 $-1 $82 forward single #
loop $-1 $-1 $83 $38 #
cone-surface $-1 -1.0625 -0.5625 0 0 0 1 -0.13258252147247801 -0.13258252147247801 0 1 I I 0 -1 0 I I I I #
coedge $-1 $84 $85 $86 $87 0 $39 $-1 #
coedge $-1 $41 $53 $42 $66 0 $22 $-1 #
coedge $-1 $43 $42 $-1 $88 0 $14 $-1 #
edge $-1 $89 $67 $64 $90 0 #
vertex $-1 $66 $91 #
straight-curve $-1 1.5 0 10 0 -1 0 I I #
edge $-1 $70 $51 $46 $92 0 #
vertex $-1 $88 $93 #
straight-curve $-1 1.5 1 0 0 0 1 I I #
point $-1 1.5 1 10 #
straight-curve $-1 -1.5 0 0 0 -1 0 I I #
point $-1 -1.5 1 0 #
edge $-1 $54 $89 $53 $94 0 #
point $-1 -1.5 -0.875 0 #
straight-curve $-1 0 -0.875 10 -1 0 0 I I #
loop $-1 $34 $86 $57 #
plane-surface $-1 -1.25 0.5625 10 0 0 1 1 0 0 0 I I I I #
face $-1 $95 $96 $4 $-1 $97 forward single #
loop $-1 $-1 $98 $60 #
plane-surface $-1 -1.0625 -0.75 0 0 1 0 0 0 1 0 I I I I #
coedge $-1 $99 $100 $101 $102 0 $61 $-1 #
coedge $-1 $103 $63 $100 $104 1 $39 $-1 #
coedge $-1 $63 $103 $105 $106 0 $39 $-1 #
coedge $-1 $107 $101 $63 $87 1 $78 $-1 #
edge $-1 $108 $109 $63 $110 0 #
edge $-1 $89 $70 $65 $111 0 #
vertex $-1 $75 $112 #
straight-curve $-1 1.5 -0.875 0 0 0 1 I I #
point $-1 1.5 -0.875 10 #
straight-curve $-1 0 1 0 -1 0 0 I I #
point $-1 1.5 1 0 #
straight-curve $-1 0 -0.875 0 1 0 0 I I #
face $-1 $113 $114 $4 $-1 $115 forward single #
loop $-1 $-1 $116 $80 #
cone-surface $-1 1.0625 -0.5625 0 0 0 1 0.13258252147247801 -0.13258252147247801 0 1 I I 0 -1 0 I I I I #
coedge $-1 $117 $118 $119 $120 0 $81 $-1 #
coedge $-1 $121 $83 $118 $122 1 $61 $-1 #
coedge $-1 $83 $121 $84 $104 0 $61 $-1 #
coedge $-1 $86 $119 $83 $102 1 $78 $-1 #
edge $-1 $109 $123 $83 $124 0 #
coedge $-1 $85 $84 $-1 $125 0 $39 $-1 #
edge $-1 $126 $109 $100 $127 0 #
coedge $-1 $128 $129 $85 $106 1 $130 $-1 #
edge $-1 $131 $108 $85 $132 0 #
coedge $-1 $133 $86 $129 $134 1 $78 $-1 #
vertex $-1 $106 $135 #
vertex $-1 $104 $136 #
straight-curve $-1 -1.25 0 10 0 -1 0 I I #
straight-curve $-1 1.5 0 0 0 1 0 I I #
point $-1 1.5 -0.875 0 #
face $-1 $137 $138 $4 $-1 $139 forward single #
loop $-1 $-1 $140 $95 #
plane-surface $-1 1.25 -0.5625 0 -1 0 0 0 0 1 0 I I I I #
coedge $-1 $141 $142 $143 $144 0 $96 $-1 #
coedge $-1 $145 $98 $142 $146 1 $81 $-1 #
coedge $-1 $98 $145 $99 $122 0 $81 $-1 #
coedge $-1 $101 $143 $98 $120 1 $78 $-1 #
edge $-1 $123 $147 $98 $148 0 #
coedge $-1 $100 $99 $-1 $149 0 $61 $-1 #
edge $-1 $150 $123 $118 $151 0 #
vertex $-1 $122 $152 #
ellipse-curve $-1 -1.0625 -0.5625 10 0 0 1 -0.13258252147247801 -0.13258252147247801 0 1 F -0.78539816339744828 F 0.78539816339744828 #
edge $-1 $126 $131 $103 $153 0 #
vertex $-1 $149 $154 #
straight-curve $-1 -1.25 -0.5625 0 0 0 1 I I #
coedge $-1 $155 $105 $-1 $156 0 $130 $-1 #
coedge $-1 $105 $155 $107 $134 0 $130 $-1 #
loop $-1 $-1 $129 $157 #
vertex $-1 $156 $158 #
straight-curve $-1 -1.25 0.5625 0 0 0 1 I I #
coedge $-1 $159 $107 $160 $161 1 $78 $-1 #
edge $-1 $162 $108 $129 $163 0 #
point $-1 -1.25 0.5625 10 #
point $-1 -1.25 -0.5625 10 #
face $-1 $157 $164 $4 $-1 $165 forward single #
loop $-1 $-1 $166 $113 #
cone-surface $-1 1.0625 0.5625 0 0 0 1 0.13258252147247801 0.13258252147247801 0 1 I I 0 -1 0 I I I I #
coedge $-1 $167 $168 $169 $170 0 $114 $-1 #
coedge $-1 $171 $116 $168 $172 1 $96 $-1 #
coedge $-1 $116 $171 $117 $146 0 $96 $-1 #
coedge $-1 $119 $169 $116 $144 1 $78 $-1 #
edge $-1 $147 $173 $116 $174 0 #
coedge $-1 $118 $117 $-1 $175 0 $81 $-1 #
edge $-1 $176 $147 $142 $177 0 #
vertex $-1 $146 $178 #
straight-curve $-1 0 -0.75 10 1 0 0 I I #
edge $-1 $150 $126 $121 $179 0 #
vertex $-1 $175 $180 #
straight-curve $-1 -1.0625 -0.75 0 0 0 1 I I #
point $-1 -1.0625 -0.75 10 #
straight-curve $-1 -1.25 0 0 0 1 0 I I #
point $-1 -1.25 -0.5625 0 #
coedge $-1 $129 $128 $181 $182 0 $130 $-1 #
edge $-1 $131 $183 $128 $184 0 #
face $-1 $57 $130 $4 $-1 $185 forward single #
point $-1 -1.25 0.5625 0 #
coedge $-1 $169 $133 $166 $186 1 $78 $-1 #
coedge $-1 $181 $187 $133 $161 0 $164 $-1 #
edge $-1 $188 $162 $160 $189 0 #
vertex $-1 $182 $190 #
ellipse-curve $-1 -1.0625 0.5625 10 0 0 1 -0.13258252147247801 0.13258252147247801 0 1 F -0.78539816339744828 F 0.78539816339744828 #
loop $-1 $-1 $160 $137 #
plane-surface $-1 1.0625 0.75 0 0 -1 0 0 0 -1 0 I I I I #
coedge $-1 $191 $192 $159 $186 0 $138 $-1 #
coedge $-1 $193 $140 $192 $194 1 $114 $-1 #
coedge $-1 $140 $193 $141 $172 0 $114 $-1 #
coedge $-1 $143 $159 $140 $170 1 $78 $-1 #
edge $-1 $173 $195 $140 $196 0 #
coedge $-1 $142 $141 $-1 $197 0 $96 $-1 #
edge $-1 $198 $173 $168 $199 0 #
vertex $-1 $172 $200 #
ellipse-curve $-1 1.0625 -0.5625 10 0 0 1 0.13258252147247801 -0.13258252147247801 0 1 F -0.78539816339744828 F 0.78539816339744828 #
edge $-1 $176 $150 $145 $201 0 #
vertex $-1 $197 $202 #
straight-curve $-1 1.0625 -0.75 0 0 0 1 I I #
point $-1 1.0625 -0.75 10 #
ellipse-curve $-1 -1.0625 -0.5625 0 0 0 -1 -0.13258252147247801 -0.13258252147247801 0 1 F -0.78539816339744828 F 0.78539816339744828 #
point $-1 -1.0625 -0.75 0 #
coedge $-1 $203 $160 $155 $182 1 $164 $-1 #
edge $-1 $183 $162 $155 $204 0 #
vertex $-1 $156 $205 #
ellipse-curve $-1 -1.0625 0.5625 0 0 0 -1 -0.13258252147247801 0.13258252147247801 0 1 F -0.78539816339744828 F 0.78539816339744828 #
cone-surface $-1 -1.0625 0.5625 0 0 0 1 -0.13258252147247801 0.13258252147247801 0 1 I I 0 -1 0 I I I I #
edge $-1 $195 $188 $166 $206 0 #
coedge $-1 $160 $203 $191 $207 0 $164 $-1 #
vertex $-1 $207 $208 #
straight-curve $-1 0 0.75 10 -1 0 0 I I #
point $-1 -1.0625 0.75 10 #
coedge $-1 $209 $166 $187 $207 1 $138 $-1 #
coedge $-1 $166 $209 $167 $194 0 $138 $-1 #
coedge $-1 $168 $167 $-1 $210 0 $114 $-1 #
edge $-1 $211 $195 $192 $212 0 #
vertex $-1 $194 $213 #
straight-curve $-1 1.25 0 10 0 1 0 I I #
edge $-1 $198 $176 $171 $214 0 #
vertex $-1 $210 $215 #
straight-curve $-1 1.25 -0.5625 0 0 0 1 I I #
point $-1 1.25 -0.5625 10 #
straight-curve $-1 0 -0.75 0 -1 0 0 I I #
point $-1 1.0625 -0.75 0 #
coedge $-1 $187 $181 $-1 $216 0 $164 $-1 #
straight-curve $-1 -1.0625 0.75 0 0 0 1 I I #
point $-1 -1.0625 0.75 0 #
ellipse-curve $-1 1.0625 0.5625 10 0 0 1 0.13258252147247801 0.13258252147247801 0 1 F -0.78539816339744828 F 0.78539816339744828 #
edge $-1 $217 $188 $187 $218 0 #
point $-1 1.0625 0.75 10 #
coedge $-1 $192 $191 $-1 $219 0 $138 $-1 #
edge $-1 $211 $198 $193 $220 0 #
vertex $-1 $219 $221 #
straight-curve $-1 1.25 0.5625 0 0 0 1 I I #
point $-1 1.25 0.5625 10 #
ellipse-curve $-1 1.0625 -0.5625 0 0 0 -1 0.13258252147247801 -0.13258252147247801 0 1 F -0.78539816339744828 F 0.78539816339744828 #
point $-1 1.25 -0.5625 0 #
edge $-1 $183 $217 $203 $222 0 #
vertex $-1 $216 $223 #
straight-curve $-1 1.0625 0.75 0 0 0 1 I I #
edge $-1 $217 $211 $209 $224 0 #
straight-curve $-1 1.25 0 0 0 -1 0 I I #
point $-1 1.25 0.5625 0 #
straight-curve $-1 0 0.75 0 1 0 0 I I #
point $-1 1.0625 0.75 0 #
ellipse-curve $-1 1.0625 0.5625 0 0 0 -1 0.13258252147247801 0.13258252147247801 0 1 F -0.78539816339744828 F 0.78539816339744828 #
End-of-ACIS-data 