600 0 1 0           
68 GICL ACIS Healer - Source: /gicl/data5/repository/tmp/tmp2.sat - 6 0 18 ACIS 6.0.3 Solaris 24 Sun Apr 14 00:16:41 2002 
1 9.999999999999999547e-07 1.000000000000000036e-10 
body $-1 $1 $-1 $-1 #
lump $-1 $-1 $2 $0 #
shell $-1 $-1 $-1 $3 $-1 $1 #
face $-1 $4 $5 $2 $-1 $6 forward double out #
face $-1 $7 $8 $2 $-1 $9 forward double out #
loop $-1 $-1 $10 $3 #
plane-surface $-1 -1.5 -0.875 0 -1 0 0 0 0 1 forward_v I I I I #
face $-1 $11 $12 $2 $-1 $13 forward double out #
loop $-1 $-1 $14 $4 #
plane-surface $-1 -1.5 1 0 0 1 0 0 0 1 forward_v I I I I #
coedge $-1 $15 $16 $17 $18 forward $5 $-1 #
face $-1 $19 $20 $2 $-1 $21 forward double out #
loop $-1 $-1 $22 $7 #
plane-surface $-1 1.5 1 0 1 0 0 0 0 -1 forward_v I I I I #
coedge $-1 $23 $24 $25 $26 forward $8 $-1 #
coedge $-1 $27 $10 $24 $28 reversed $5 $-1 #
coedge $-1 $10 $27 $29 $30 forward $5 $-1 #
coedge $-1 $31 $25 $10 $18 reversed $32 $-1 #
edge $-1 $33 -0.71875 $34 1.15625 $10 $35 forward 7 unknown #
face $-1 $36 $37 $2 $-1 $38 forward double out #
loop $-1 $-1 $39 $11 #
plane-surface $-1 1.5 -0.875 0 0 -1 0 0 0 -1 forward_v I I I I #
coedge $-1 $40 $41 $42 $43 forward $12 $-1 #
coedge $-1 $44 $14 $41 $45 reversed $8 $-1 #
coedge $-1 $14 $44 $15 $28 forward $8 $-1 #
coedge $-1 $17 $42 $14 $26 reversed $32 $-1 #
edge $-1 $34 -0.125 $46 2.875 $14 $47 forward 7 unknown #
coedge $-1 $16 $15 $-1 $48 forward $5 $-1 #
edge $-1 $49 0 $34 10 $24 $50 forward 7 unknown #
coedge $-1 $51 $39 $16 $30 reversed $20 $-1 #
edge $-1 $52 0 $33 10 $16 $53 forward 7 unknown #
coedge $-1 $42 $17 $39 $54 reversed $32 $-1 #
loop $-1 $-1 $17 $55 #
vertex $-1 $30 $56 #
vertex $-1 $28 $57 #
straight-curve $-1 -1.5 -0.15625 10 0 1 -0 I I #
face $-1 $58 $59 $2 $-1 $60 forward double out #
loop $-1 $-1 $61 $19 #
plane-surface $-1 -1.25 0.5625 0 1 0 0 0 0 -1 forward_v I I I I #
coedge $-1 $29 $62 $31 $54 forward $20 $-1 #
coedge $-1 $63 $22 $62 $64 reversed $12 $-1 #
coedge $-1 $22 $63 $23 $45 forward $12 $-1 #
coedge $-1 $25 $31 $22 $43 reversed $32 $-1 #
edge $-1 $46 -0.21875 $65 1.65625 $22 $66 forward 7 unknown #
coedge $-1 $24 $23 $67 $68 forward $8 $-1 #
edge $-1 $69 0 $46 10 $41 $70 forward 7 unknown #
vertex $-1 $45 $71 #
straight-curve $-1 -1.375 1 10 1 0 0 I I #
edge $-1 $49 -0 $52 1.875 $27 $72 forward 7 unknown #
vertex $-1 $68 $73 #
straight-curve $-1 -1.5 1 0 0 -0 1 I I #
coedge $-1 $62 $29 $74 $75 forward $20 $-1 #
vertex $-1 $75 $76 #
straight-curve $-1 -1.5 -0.875 0 0 0 1 I I #
edge $-1 $65 -1.375 $33 1.625 $39 $77 forward 7 unknown #
face $-1 $-1 $78 $2 $-1 $79 forward double out #
point $-1 -1.5 -0.875 10 #
point $-1 -1.5 1 10 #
face $-1 $80 $81 $2 $-1 $82 forward double out #
loop $-1 $-1 $83 $36 #
cone-surface $-1 -1.0625 -0.5625 0 0 0 1 -0.1325825214724780099 -0.1325825214724780099 0 1 I I 0 -1 0.1875000000000004996 forward I I I I #
coedge $-1 $84 $85 $86 $87 forward $37 $-1 #
coedge $-1 $39 $51 $40 $64 forward $20 $-1 #
coedge $-1 $41 $40 $-1 $88 forward $12 $-1 #
edge $-1 $89 0 $65 10 $62 $90 forward 7 unknown #
vertex $-1 $64 $91 #
straight-curve $-1 1.5 0.78125 10 0 -1 0 I I #
coedge $-1 $92 $93 $44 $68 reversed $94 $-1 #
edge $-1 $69 -1.5 $49 1.5 $44 $95 forward 7 unknown #
vertex $-1 $88 $96 #
straight-curve $-1 1.5 1 0 0 0 1 I I #
point $-1 1.5 1 10 #
straight-curve $-1 -1.5 1 0 -0 -1 -0 I I #
point $-1 -1.5 1 0 #
coedge $-1 $97 $98 $51 $75 reversed $81 $-1 #
edge $-1 $52 -1.5 $89 1.5 $51 $99 forward 7 unknown #
point $-1 -1.5 -0.875 0 #
straight-curve $-1 0.125 -0.875 10 -1 0 0 I I #
loop $-1 $32 $86 $55 #
plane-surface $-1 -1.25 0.5625 10 0 0 1 1 0 0 forward_v I I I I #
face $-1 $100 $101 $2 $-1 $102 forward double out #
loop $-1 $-1 $103 $58 #
plane-surface $-1 -1.0625 -0.75 0 0 1 0 0 0 1 forward_v I I I I #
coedge $-1 $104 $105 $106 $107 forward $59 $-1 #
coedge $-1 $108 $61 $105 $109 reversed $37 $-1 #
coedge $-1 $61 $108 $110 $111 forward $37 $-1 #
coedge $-1 $112 $106 $61 $87 reversed $78 $-1 #
edge $-1 $113 0 $114 1.125 $61 $115 forward 7 unknown #
edge $-1 $89 0 $69 1.875 $63 $116 forward 7 unknown #
vertex $-1 $75 $117 #
straight-curve $-1 1.5 -0.875 0 -0 0 1 I I #
point $-1 1.5 -0.875 10 #
coedge $-1 $118 $67 $119 $120 forward $94 $-1 #
coedge $-1 $67 $118 $121 $122 reversed $94 $-1 #
loop $-1 $-1 $118 $123 #
straight-curve $-1 0 1 0 -1 0 0 I I #
point $-1 1.5 1 0 #
coedge $-1 $103 $74 $104 $124 forward $81 $-1 #
coedge $-1 $74 $103 $125 $126 reversed $81 $-1 #
straight-curve $-1 0 -0.875 0 1 0 0 I I #
face $-1 $127 $128 $2 $-1 $129 forward double out #
loop $-1 $-1 $130 $80 #
cone-surface $-1 1.0625 -0.5625 0 0 0 1 0.1325825214724780099 -0.1325825214724780099 0 1 I I 0 -1 0.1875000000000004996 forward I I I I #
coedge $-1 $98 $97 $131 $132 forward $81 $-1 #
coedge $-1 $133 $83 $97 $124 reversed $59 $-1 #
coedge $-1 $83 $133 $84 $109 forward $59 $-1 #
coedge $-1 $86 $131 $83 $107 reversed $78 $-1 #
edge $-1 $114 -0.785398163397448279 $134 0.785398163397448279 $83 $135 forward 7 unknown #
coedge $-1 $85 $84 $-1 $136 forward $37 $-1 #
edge $-1 $137 -0 $114 10 $105 $138 reversed 7 unknown #
coedge $-1 $139 $140 $85 $111 reversed $141 $-1 #
edge $-1 $142 -0 $113 10 $85 $143 reversed 7 unknown #
coedge $-1 $144 $86 $140 $145 reversed $78 $-1 #
vertex $-1 $111 $146 #
vertex $-1 $109 $147 #
straight-curve $-1 -1.25 0.5625 10 0 -1 0 I I #
straight-curve $-1 1.5 -0.875 0 -0 1 -0 I I #
point $-1 1.5 -0.875 0 #
coedge $-1 $93 $92 $144 $148 forward $94 $-1 #
coedge $-1 $149 $150 $92 $120 reversed $151 $-1 #
edge $-1 $69 -0 $152 10 $92 $153 reversed 7 unknown #
coedge $-1 $140 $139 $93 $122 forward $141 $-1 #
edge $-1 $49 -0 $154 10 $121 $155 reversed 7 unknown #
face $-1 $156 $94 $2 $-1 $157 forward double out #
edge $-1 $52 -0 $134 10 $97 $158 reversed 7 unknown #
coedge $-1 $130 $159 $98 $126 forward $101 $-1 #
edge $-1 $89 -0 $160 10 $125 $161 reversed 7 unknown #
face $-1 $123 $151 $2 $-1 $162 forward double out #
loop $-1 $-1 $163 $100 #
plane-surface $-1 1.25 -0.5625 0 -1 0 0 0 0 1 forward_v I I I I #
coedge $-1 $164 $125 $165 $166 forward $101 $-1 #
coedge $-1 $106 $165 $103 $132 reversed $78 $-1 #
edge $-1 $134 0.09375 $160 2.21875 $103 $167 forward 7 unknown #
coedge $-1 $105 $104 $-1 $168 forward $59 $-1 #
vertex $-1 $124 $169 #
ellipse-curve $-1 -1.0625 -0.5625 10 0 0 1 -0.1325825214724780099 -0.1325825214724780099 0 1 I I #
edge $-1 $137 -0.5625 $142 0.5625 $108 $170 forward 7 unknown #
vertex $-1 $168 $171 #
straight-curve $-1 -1.25 -0.5625 0 -0 0 -1 I I #
coedge $-1 $121 $110 $-1 $172 forward $141 $-1 #
coedge $-1 $110 $121 $112 $145 forward $141 $-1 #
loop $-1 $-1 $140 $156 #
vertex $-1 $172 $173 #
straight-curve $-1 -1.25 0.5625 0 -0 0 -1 I I #
coedge $-1 $174 $112 $118 $148 reversed $78 $-1 #
edge $-1 $154 -0.785398163397448279 $113 0.785398163397448279 $140 $175 forward 7 unknown #
point $-1 -1.25 0.5625 10 #
point $-1 -1.250000000000000444 -0.5625 10 #
edge $-1 $152 -1.15625 $154 0.96875 $118 $176 forward 7 unknown #
coedge $-1 $177 $119 $-1 $178 forward $151 $-1 #
coedge $-1 $119 $177 $174 $179 forward $151 $-1 #
loop $-1 $-1 $150 $127 #
vertex $-1 $120 $180 #
straight-curve $-1 1.0625 0.75 0 0 0 -1 I I #
vertex $-1 $122 $181 #
straight-curve $-1 -1.0625 0.75 0 0 0 -1 I I #
face $-1 $55 $141 $2 $-1 $182 forward double out #
plane-surface $-1 1.0625 0.75 0 0 -1 0 0 0 -1 forward_v I I I I #
straight-curve $-1 -1.0625 -0.75 0 0 -0 -1 I I #
coedge $-1 $125 $164 $-1 $183 forward $101 $-1 #
vertex $-1 $126 $184 #
straight-curve $-1 1.0625 -0.75 0 0 -0 -1 I I #
cone-surface $-1 1.0625 0.5625 0 0 0 1 0.1325825214724780099 0.1325825214724780099 0 1 I I 0 -1 0.1875000000000004996 forward I I I I #
coedge $-1 $185 $186 $187 $188 forward $128 $-1 #
coedge $-1 $159 $130 $186 $189 reversed $101 $-1 #
coedge $-1 $131 $187 $130 $166 reversed $78 $-1 #
edge $-1 $160 -0.785398163397448279 $190 0.785398163397448279 $130 $191 forward 7 unknown #
straight-curve $-1 -1.15625 -0.75 10 1 0 0 I I #
edge $-1 $52 -0.785398163397448279 $137 0.785398163397448057 $133 $192 forward 7 unknown #
point $-1 -1.0625 -0.75 10 #
straight-curve $-1 -1.25 0 0 0 1 0 I I #
point $-1 -1.25 -0.5625 0 #
edge $-1 $142 -0.785398163397448279 $49 0 $139 $193 forward 7 unknown #
point $-1 -1.25 0.5625 0 #
coedge $-1 $187 $144 $150 $179 reversed $78 $-1 #
ellipse-curve $-1 -1.0625 0.5625 10 0 0 1 -0.1325825214724780099 0.1325825214724780099 0 1 I I #
straight-curve $-1 -0.09375 0.75 10 -1 0 0 I I #
coedge $-1 $150 $149 $185 $194 forward $151 $-1 #
edge $-1 $69 -0.785398163397448279 $195 0.785398163397448057 $149 $196 forward 7 unknown #
edge $-1 $197 -0.785398163397448279 $152 0.785398163397448279 $150 $198 forward 7 unknown #
point $-1 1.0625 0.75 10 #
point $-1 -1.0625 0.7500000000000004441 10 #
cone-surface $-1 -1.0625 0.5625 0 0 0 1 -0.1325825214724780099 0.1325825214724780099 0 1 I I 0 -1 0.1875000000000004996 forward I I I I #
edge $-1 $199 -0.785398163397448279 $89 -0.1651486774146267711 $159 $200 forward 7 unknown #
point $-1 1.0625 -0.7500000000000004441 10 #
coedge $-1 $201 $163 $177 $194 reversed $128 $-1 #
coedge $-1 $163 $201 $164 $189 forward $128 $-1 #
coedge $-1 $165 $174 $163 $188 reversed $78 $-1 #
edge $-1 $190 -0.5625 $197 0.5625 $163 $202 forward 7 unknown #
edge $-1 $199 -0 $190 10 $186 $203 reversed 7 unknown #
vertex $-1 $189 $204 #
ellipse-curve $-1 1.0625 -0.5625 10 0 0 1 0.1325825214724780099 -0.1325825214724780099 0 1 I I #
intcurve-curve $-1 forward { surfcur full nurbs 2 open 2 
	-0.785398163397448279 2 0.785398163397448057 2 
	-1.25 -0.5625 0 1 
	-1.250000000000000444 -0.7500000000000004441 0 0.7071067811865503483 
	-1.5 -0.875 0 1 
	0.01000000000000000021 
	cone -1.0625 -0.5625 0 0 0 1 -0.1325825214724780099 -0.1325825214724780099 0 1 I I 0 -1 0.1875000000000004996 forward I I I I 
	null_surface 
	nullbs 
	nullbs 
	I I 
	0 
	0 
	0 
	surf1 } I I #
ellipse-curve $-1 -1.0625 0.5625 0 0 0 -1 -0.1325825214724780099 0.1325825214724780099 0 1 I I #
edge $-1 $195 -0 $197 10 $177 $205 reversed 7 unknown #
vertex $-1 $178 $206 #
intcurve-curve $-1 forward { surfcur full nurbs 2 open 2 
	-0.785398163397448279 2 0.785398163397448057 2 
	1.5 1 0 1 
	1.250000000000000444 0.7500000000000004441 0 0.7071067811865503483 
	1.25 0.5625 0 1 
	0.01000000000000000021 
	cone 1.0625 0.5625 0 0 0 1 0.1325825214724780099 0.1325825214724780099 0 1 I I 0 -1 0.1875000000000004996 forward I I I I 
	null_surface 
	nullbs 
	nullbs 
	I I 
	0 
	0 
	0 
	surf1 } I I #
vertex $-1 $194 $207 #
ellipse-curve $-1 1.0625 0.5625 10 0 0 1 0.1325825214724780099 0.1325825214724780099 0 1 I I #
vertex $-1 $208 $209 #
ellipse-curve $-1 1.0625 -0.5625 0 0 0 -1 0.1325825214724780099 -0.1325825214724780099 0 1 I I #
coedge $-1 $186 $185 $-1 $208 forward $128 $-1 #
straight-curve $-1 1.25 0 10 0 1 -0 I I #
straight-curve $-1 1.25 -0.5625 0 0 0 -1 I I #
point $-1 1.25 -0.5625 10 #
straight-curve $-1 1.25 0.5625 0 0 0 -1 I I #
point $-1 1.25 0.5625 0 #
point $-1 1.250000000000000444 0.5625 10 #
edge $-1 $195 -0.5625 $199 0.5625 $201 $210 forward 7 unknown #
point $-1 1.25 -0.5625 0 #
straight-curve $-1 1.25 0 0 0 -1 0 I I #
End-of-ACIS-data 