600 0 1 0           
112 GICL Pro/E ACIS Translator - Source: f:/data5/repository/PTC/V20/web_demos/models/holemaking/prt0001.prt.2 - 6 0 13 ACIS 6.0.3 NT 24 Thu Apr 04 13:12:59 2002 
1 9.9999999999999995e-007 1e-010 
body $-1 $1 $-1 $2 #
lump $-1 $-1 $3 $0 #
transform $-1 1 0 0 0 1 0 0 0 1 0 0 0 25.399999999999999 no_rotate no_reflect no_shear #
shell $-1 $-1 $-1 $4 $-1 $1 #
face $-1 $5 $6 $3 $-1 $7 reversed single #
face $-1 $8 $9 $3 $-1 $10 forward single #
loop $-1 $-1 $11 $4 #
plane-surface $-1 0 0 -3 0 0 1 1 0 0 forward_v I I I I #
face $-1 $12 $13 $3 $-1 $14 reversed single #
loop $-1 $-1 $15 $5 #
plane-surface $-1 -7.5 3 -3 -1 0 0 0 -1 0 forward_v I I I I #
coedge $-1 $16 $17 $18 $19 reversed $6 $-1 #
face $-1 $20 $21 $3 $-1 $22 reversed single #
loop $-1 $-1 $23 $8 #
plane-surface $-1 7.5 0.5 -1.1699999999999999 0 0 1 0 -1 0 forward_v I I I I #
coedge $-1 $24 $25 $23 $26 reversed $9 $-1 #
coedge $-1 $27 $11 $28 $29 forward $6 $-1 #
coedge $-1 $11 $27 $30 $31 reversed $6 $-1 #
coedge $-1 $25 $32 $11 $19 forward $9 $-1 #
edge $-1 $33 0 $34 0.56999999999999984 $11 $35 forward 7 unknown #
face $-1 $36 $37 $3 $-1 $38 forward single #
loop $-1 $39 $40 $12 #
plane-surface $-1 7.5 0.5 -3 0 1 0 0 0 1 forward_v I I I I #
coedge $-1 $41 $42 $15 $26 forward $13 $-1 #
coedge $-1 $43 $15 $44 $45 forward $9 $-1 #
coedge $-1 $15 $18 $46 $47 forward $9 $-1 #
edge $-1 $48 0 $49 0.5 $15 $50 forward 7 unknown #
coedge $-1 $17 $16 $51 $52 reversed $6 $-1 #
coedge $-1 $53 $54 $16 $29 reversed $55 $-1 #
edge $-1 $33 0 $56 15 $16 $57 forward 7 unknown #
coedge $-1 $40 $46 $17 $31 forward $21 $-1 #
edge $-1 $34 0 $58 15 $17 $59 forward 7 unknown #
coedge $-1 $18 $60 $53 $61 reversed $9 $-1 #
vertex $-1 $29 $62 #
vertex $-1 $31 $63 #
straight-curve $-1 -7.5 1.0699999999999998 -3 0 -1 0 I I #
face $-1 $64 $55 $3 $-1 $65 reversed single #
loop $-1 $-1 $51 $20 #
plane-surface $-1 7.5 0 -3 1 0 0 0 1 0 forward_v I I I I #
loop $-1 $66 $67 $12 #
coedge $-1 $68 $30 $69 $70 forward $21 $-1 #
coedge $-1 $71 $23 $68 $72 reversed $13 $-1 #
coedge $-1 $23 $71 $73 $74 reversed $13 $-1 #
coedge $-1 $75 $24 $76 $77 reversed $9 $-1 #
coedge $-1 $73 $78 $24 $45 reversed $79 $-1 #
edge $-1 $48 0 $80 4.1699999999999999 $44 $81 forward 7 unknown #
coedge $-1 $30 $68 $25 $47 reversed $21 $-1 #
edge $-1 $34 0 $49 1.8300000000000001 $25 $82 forward 7 unknown #
vertex $-1 $74 $83 #
vertex $-1 $47 $84 #
straight-curve $-1 -7.5 0 -1.1699999999999999 0 1 0 I I #
coedge $-1 $85 $69 $27 $52 forward $37 $-1 #
edge $-1 $58 0 $56 0.56999999999999984 $27 $86 forward 7 unknown #
coedge $-1 $87 $28 $32 $61 forward $55 $-1 #
coedge $-1 $28 $87 $85 $88 reversed $55 $-1 #
loop $-1 $89 $53 $36 #
vertex $-1 $52 $90 #
straight-curve $-1 -7.5 1.0699999999999998 -3 1 0 0 I I #
vertex $-1 $31 $91 #
straight-curve $-1 -7.5 0.5 -3 1 0 0 I I #
coedge $-1 $32 $92 $93 $94 forward $9 $-1 #
edge $-1 $33 0 $95 1.8300000000000001 $32 $96 forward 7 unknown #
point $-1 -7.5 1.0699999999999998 -3 #
point $-1 -7.5 0.5 -3 #
face $-1 $97 $98 $3 $-1 $99 reversed single #
plane-surface $-1 7.5 1.0699999999999998 -1.1699999999999999 0 -1 0 0 0 -1 forward_v I I I I #
loop $-1 $100 $101 $12 #
coedge $-1 $102 $102 $103 $104 reversed $39 $-1 #
coedge $-1 $46 $40 $41 $72 forward $21 $-1 #
coedge $-1 $51 $105 $40 $70 reversed $37 $-1 #
edge $-1 $58 0 $106 1.8300000000000001 $69 $107 forward 7 unknown #
coedge $-1 $42 $41 $105 $108 reversed $13 $-1 #
edge $-1 $106 0 $49 15 $68 $109 forward 7 unknown #
coedge $-1 $110 $44 $42 $74 forward $79 $-1 #
edge $-1 $48 0 $111 15 $73 $112 forward 7 unknown #
coedge $-1 $113 $43 $114 $115 reversed $9 $-1 #
coedge $-1 $116 $117 $43 $77 forward $118 $-1 #
edge $-1 $119 0 $80 3 $76 $120 forward 7 unknown #
coedge $-1 $44 $110 $116 $121 reversed $79 $-1 #
loop $-1 $-1 $110 $122 #
vertex $-1 $121 $123 #
straight-curve $-1 -7.5 0 -1.1699999999999999 0 0 1 I I #
straight-curve $-1 -7.5 0.5 -3 0 0 1 I I #
point $-1 -7.5 0 -1.1699999999999999 #
point $-1 -7.5 0.5 -1.1699999999999999 #
coedge $-1 $124 $51 $54 $88 forward $37 $-1 #
straight-curve $-1 7.5 0.5 -3 0 1 0 I I #
coedge $-1 $54 $53 $125 $126 reversed $55 $-1 #
edge $-1 $56 0 $127 1.8300000000000001 $85 $128 forward 7 unknown #
loop $-1 $129 $130 $36 #
point $-1 7.5 1.0699999999999998 -3 #
point $-1 7.5 0.5 -3 #
coedge $-1 $60 $113 $131 $132 forward $9 $-1 #
coedge $-1 $133 $125 $60 $94 reversed $98 $-1 #
edge $-1 $134 0 $95 1.5 $60 $135 forward 7 unknown #
vertex $-1 $61 $136 #
straight-curve $-1 -7.5 1.0699999999999998 -3 0 0 1 I I #
face $-1 $137 $138 $3 $-1 $139 reversed single #
loop $-1 $-1 $125 $64 #
plane-surface $-1 7.5 2.5699999999999998 -1.1699999999999999 0 0 1 0 -1 0 forward_v I I I I #
loop $-1 $140 $141 $12 #
coedge $-1 $142 $142 $143 $144 reversed $66 $-1 #
coedge $-1 $67 $67 $145 $146 reversed $39 $-1 #
coedge $-1 $147 $148 $67 $104 forward $149 $-1 #
edge $-1 $150 0 $151 3.1415926535897913 $103 $152 forward 7 unknown #
coedge $-1 $69 $153 $71 $108 forward $37 $-1 #
vertex $-1 $70 $154 #
straight-curve $-1 7.5 0.5 -3 0 0 1 I I #
edge $-1 $111 0 $106 0.5 $105 $155 forward 7 unknown #
straight-curve $-1 7.5 0.5 -1.1699999999999999 -1 0 0 I I #
coedge $-1 $78 $73 $153 $156 forward $79 $-1 #
vertex $-1 $74 $157 #
straight-curve $-1 -7.5 0 -1.1699999999999999 1 0 0 I I #
coedge $-1 $92 $75 $158 $159 forward $9 $-1 #
coedge $-1 $160 $161 $75 $115 forward $162 $-1 #
edge $-1 $163 0 $119 6 $114 $164 forward 7 unknown #
coedge $-1 $165 $76 $78 $121 forward $118 $-1 #
coedge $-1 $76 $165 $160 $166 forward $118 $-1 #
loop $-1 $-1 $165 $167 #
vertex $-1 $77 $168 #
straight-curve $-1 -7.5 3 3 0 -1 0 I I #
edge $-1 $80 0 $169 15 $116 $170 forward 7 unknown #
face $-1 $171 $79 $3 $-1 $172 forward single #
point $-1 -7.5 0 3 #
coedge $-1 $173 $85 $174 $175 reversed $37 $-1 #
coedge $-1 $93 $174 $87 $126 forward $98 $-1 #
edge $-1 $127 0 $95 15 $125 $176 forward 7 unknown #
vertex $-1 $175 $177 #
straight-curve $-1 7.5 1.0699999999999998 -3 0 0 1 I I #
loop $-1 $178 $179 $36 #
coedge $-1 $180 $180 $181 $182 forward $89 $-1 #
coedge $-1 $183 $184 $92 $132 reversed $138 $-1 #
edge $-1 $185 0 $134 1.8300000000000001 $92 $186 forward 7 unknown #
coedge $-1 $174 $93 $184 $187 reversed $98 $-1 #
vertex $-1 $94 $188 #
straight-curve $-1 -7.5 2.5699999999999998 -1.1699999999999999 0 -1 0 I I #
point $-1 -7.5 1.0699999999999998 -1.1699999999999999 #
face $-1 $189 $190 $3 $-1 $191 reversed single #
loop $-1 $192 $193 $97 #
plane-surface $-1 7.5 2.5699999999999998 -3 0 1 0 0 0 1 forward_v I I I I #
loop $-1 $-1 $194 $12 #
coedge $-1 $195 $195 $196 $197 reversed $100 $-1 #
coedge $-1 $101 $101 $198 $199 reversed $66 $-1 #
coedge $-1 $200 $201 $101 $144 forward $202 $-1 #
edge $-1 $203 0 $204 3.1415926535897913 $143 $205 forward 7 unknown #
coedge $-1 $206 $207 $102 $146 forward $208 $-1 #
edge $-1 $151 0 $150 3.1415926535897913 $145 $209 forward 7 unknown #
coedge $-1 $181 $103 $207 $210 reversed $149 $-1 #
coedge $-1 $103 $181 $206 $211 forward $149 $-1 #
loop $-1 $-1 $147 $212 #
vertex $-1 $146 $213 #
vertex $-1 $146 $214 #
ellipse-curve $-1 5.6600000000000001 0.5 -2.3299999999999996 0 -1 0 -0.5 0 -4.4408920985006262e-016 1 I I #
coedge $-1 $105 $215 $110 $156 reversed $37 $-1 #
point $-1 7.5 0.5 -1.1699999999999999 #
straight-curve $-1 7.5 0 -1.1699999999999999 0 1 0 I I #
edge $-1 $111 0 $169 4.1699999999999999 $110 $216 forward 7 unknown #
point $-1 7.5 0 -1.1699999999999999 #
coedge $-1 $217 $218 $113 $159 reversed $190 $-1 #
edge $-1 $163 0 $185 0.43000000000000016 $158 $219 forward 7 unknown #
coedge $-1 $220 $114 $117 $166 reversed $162 $-1 #
coedge $-1 $114 $220 $217 $221 forward $162 $-1 #
loop $-1 $222 $114 $189 #
vertex $-1 $221 $223 #
straight-curve $-1 -7.5 3 -3 0 0 1 I I #
coedge $-1 $117 $116 $215 $224 forward $118 $-1 #
edge $-1 $225 0 $119 15 $117 $226 forward 7 unknown #
face $-1 $122 $118 $3 $-1 $227 forward single #
point $-1 -7.5 3 3 #
vertex $-1 $121 $228 #
straight-curve $-1 -7.5 0 3 1 0 0 I I #
face $-1 $229 $230 $3 $-1 $231 reversed single #
plane-surface $-1 -7.5 0 -3 0 -1 0 1 0 0 forward_v I I I I #
coedge $-1 $232 $124 $193 $233 reversed $37 $-1 #
coedge $-1 $125 $133 $124 $175 forward $98 $-1 #
edge $-1 $234 0 $127 1.5 $124 $235 forward 7 unknown #
straight-curve $-1 7.5 1.0699999999999998 -1.1699999999999999 -1 0 0 I I #
point $-1 7.5 1.0699999999999998 -1.1699999999999999 #
loop $-1 $236 $237 $36 #
coedge $-1 $238 $238 $239 $240 forward $129 $-1 #
coedge $-1 $130 $130 $241 $242 forward $89 $-1 #
coedge $-1 $148 $147 $130 $182 reversed $149 $-1 #
edge $-1 $243 0 $244 3.1415926535897913 $181 $245 forward 7 unknown #
coedge $-1 $193 $131 $218 $246 forward $138 $-1 #
coedge $-1 $131 $193 $133 $187 forward $138 $-1 #
vertex $-1 $246 $247 #
straight-curve $-1 -7.5 2.5699999999999998 -3 0 0 1 I I #
edge $-1 $234 0 $134 15 $184 $248 forward 7 unknown #
point $-1 -7.5 2.5699999999999998 -1.1699999999999999 #
face $-1 $249 $250 $3 $-1 $251 forward single #
loop $-1 $-1 $158 $137 #
plane-surface $-1 0 0 -3 0 0 1 1 0 0 forward_v I I I I #
loop $-1 $252 $253 $97 #
coedge $-1 $184 $183 $173 $233 forward $138 $-1 #
coedge $-1 $254 $254 $255 $256 reversed $140 $-1 #
coedge $-1 $141 $141 $257 $258 reversed $100 $-1 #
coedge $-1 $259 $260 $141 $197 forward $261 $-1 #
edge $-1 $262 0 $263 3.1415926535897913 $196 $264 forward 7 unknown #
coedge $-1 $265 $266 $142 $199 forward $267 $-1 #
edge $-1 $204 0 $203 3.1415926535897913 $198 $268 forward 7 unknown #
coedge $-1 $239 $143 $266 $269 reversed $202 $-1 #
coedge $-1 $143 $239 $265 $270 forward $202 $-1 #
loop $-1 $-1 $200 $271 #
vertex $-1 $199 $272 #
vertex $-1 $199 $273 #
ellipse-curve $-1 2.6600000000000001 0.5 -2.3299999999999996 0 -1 0 -0.5 0 -4.4408920985006262e-016 1 I I #
coedge $-1 $241 $145 $148 $211 reversed $208 $-1 #
coedge $-1 $145 $241 $147 $210 forward $208 $-1 #
loop $-1 $-1 $206 $274 #
ellipse-curve $-1 5.6600000000000001 0.5 -2.3300000000000005 0 -1 0 0.5 0 4.4408920985006262e-016 1 I I #
edge $-1 $244 0 $151 0.56999999999999984 $207 $275 forward 7 unknown #
edge $-1 $243 0 $150 0.56999999999999984 $206 $276 forward 7 unknown #
face $-1 $274 $149 $3 $-1 $277 reversed single #
point $-1 5.1600000000000001 0.5 -2.3300000000000001 #
point $-1 6.1600000000000001 0.5 -2.3300000000000001 #
coedge $-1 $153 $278 $165 $224 reversed $37 $-1 #
straight-curve $-1 7.5 0 -1.1699999999999999 0 0 1 I I #
coedge $-1 $279 $158 $161 $221 reversed $190 $-1 #
coedge $-1 $158 $279 $183 $246 reversed $190 $-1 #
straight-curve $-1 -7.5 3 -3 0 -1 0 I I #
coedge $-1 $161 $160 $278 $280 reversed $162 $-1 #
edge $-1 $281 0 $163 15 $217 $282 forward 7 unknown #
loop $-1 $-1 $283 $189 #
point $-1 -7.5 3 -3 #
edge $-1 $169 0 $225 3 $165 $284 forward 7 unknown #
vertex $-1 $166 $285 #
straight-curve $-1 7.5 3 3 -1 0 0 I I #
plane-surface $-1 0 0 3 0 0 1 1 0 0 forward_v I I I I #
point $-1 7.5 0 3 #
face $-1 $212 $286 $3 $-1 $287 reversed single #
loop $-1 $-1 $288 $171 #
cone-surface $-1 5.6600000000000001 3 -2.3300000000000001 0 -1 0 0.5 0 0 1 I I 0 1 0.5 forward I I I I #
coedge $-1 $278 $173 $279 $289 forward $37 $-1 #
edge $-1 $290 0 $234 1.8300000000000001 $173 $291 forward 7 unknown #
vertex $-1 $233 $292 #
straight-curve $-1 7.5 2.5699999999999998 -1.1699999999999999 0 -1 0 I I #
loop $-1 $-1 $293 $36 #
coedge $-1 $294 $294 $295 $296 forward $178 $-1 #
coedge $-1 $179 $179 $297 $298 forward $129 $-1 #
coedge $-1 $201 $200 $179 $240 reversed $202 $-1 #
edge $-1 $299 0 $300 3.1415926535897913 $239 $301 forward 7 unknown #
coedge $-1 $207 $206 $180 $242 reversed $208 $-1 #
edge $-1 $244 0 $243 3.1415926535897913 $241 $302 forward 7 unknown #
vertex $-1 $242 $303 #
vertex $-1 $210 $304 #
ellipse-curve $-1 5.6600000000000001 1.0699999999999998 -2.3299999999999996 0 -1 0 -0.5 0 -4.4408920985006262e-016 1 I I #
edge $-1 $185 0 $290 15 $218 $305 forward 7 unknown #
point $-1 -7.5 2.5699999999999998 -3 #
straight-curve $-1 7.5 2.5699999999999998 -1.1699999999999999 -1 0 0 I I #
face $-1 $306 $307 $3 $-1 $308 reversed single #
loop $-1 $309 $310 $189 #
plane-surface $-1 7.5 3 -3 0 1 0 -1 0 0 forward_v I I I I #
loop $-1 $311 $312 $97 #
coedge $-1 $313 $313 $314 $315 reversed $192 $-1 #
coedge $-1 $194 $194 $316 $317 reversed $140 $-1 #
coedge $-1 $318 $319 $194 $256 forward $320 $-1 #
edge $-1 $321 0 $322 3.1415926535897913 $255 $323 forward 7 unknown #
coedge $-1 $324 $325 $195 $258 forward $326 $-1 #
edge $-1 $263 0 $262 3.1415926535897913 $257 $327 forward 7 unknown #
coedge $-1 $295 $196 $325 $328 reversed $261 $-1 #
coedge $-1 $196 $295 $324 $329 forward $261 $-1 #
loop $-1 $-1 $259 $330 #
vertex $-1 $258 $331 #
vertex $-1 $258 $332 #
ellipse-curve $-1 -0.33999999999999986 0.5 -2.3299999999999996 0 -1 0 -0.5 0 -4.4408920985006262e-016 1 I I #
coedge $-1 $297 $198 $201 $270 reversed $267 $-1 #
coedge $-1 $198 $297 $200 $269 forward $267 $-1 #
loop $-1 $-1 $265 $333 #
ellipse-curve $-1 2.6600000000000001 0.5 -2.3300000000000005 0 -1 0 0.5 0 4.4408920985006262e-016 1 I I #
edge $-1 $300 0 $204 0.56999999999999984 $266 $334 forward 7 unknown #
edge $-1 $299 0 $203 0.56999999999999984 $265 $335 forward 7 unknown #
face $-1 $333 $202 $3 $-1 $336 reversed single #
point $-1 2.1600000000000001 0.5 -2.3300000000000001 #
point $-1 3.1600000000000001 0.5 -2.3300000000000001 #
face $-1 $271 $208 $3 $-1 $337 reversed single #
straight-curve $-1 6.1600000000000001 1.0699999999999998 -2.3300000000000001 0 -1 0 I I #
straight-curve $-1 5.1600000000000001 1.0699999999999998 -2.3300000000000001 0 -1 0 I I #
cone-surface $-1 5.6600000000000001 3 -2.3300000000000001 0 -1 0 0.5 0 0 1 I I 0 1 0.5 forward I I I I #
coedge $-1 $215 $232 $220 $280 forward $37 $-1 #
coedge $-1 $218 $217 $232 $289 reversed $190 $-1 #
edge $-1 $281 0 $225 6 $278 $338 forward 7 unknown #
vertex $-1 $289 $339 #
straight-curve $-1 7.5 3 -3 -1 0 0 I I #
coedge $-1 $340 $340 $341 $342 forward $222 $-1 #
straight-curve $-1 7.5 0 3 0 1 0 I I #
point $-1 7.5 3 3 #
loop $-1 $-1 $343 $229 #
cone-surface $-1 5.6600000000000001 3 -2.3300000000000001 0 -1 0 0.5 0 0 1 I I 0 1 0.5 forward I I I I #
coedge $-1 $341 $314 $344 $345 reversed $230 $-1 #
edge $-1 $290 0 $281 0.43000000000000016 $279 $346 forward 7 unknown #
vertex $-1 $246 $347 #
straight-curve $-1 7.5 2.5699999999999998 -3 0 0 1 I I #
point $-1 7.5 2.5699999999999998 -1.1699999999999999 #
coedge $-1 $348 $348 $349 $350 forward $236 $-1 #
coedge $-1 $237 $237 $351 $352 forward $178 $-1 #
coedge $-1 $260 $259 $237 $296 reversed $261 $-1 #
edge $-1 $353 0 $354 3.1415926535897913 $295 $355 forward 7 unknown #
coedge $-1 $266 $265 $238 $298 reversed $267 $-1 #
edge $-1 $300 0 $299 3.1415926535897913 $297 $356 forward 7 unknown #
vertex $-1 $298 $357 #
vertex $-1 $269 $358 #
ellipse-curve $-1 2.6600000000000001 1.0699999999999998 -2.3299999999999996 0 -1 0 -0.5 0 -4.4408920985006262e-016 1 I I #
ellipse-curve $-1 5.6600000000000001 1.0699999999999998 -2.3300000000000005 0 -1 0 0.5 0 4.4408920985006262e-016 1 I I #
point $-1 5.1600000000000001 1.0699999999999998 -2.3300000000000001 #
point $-1 6.1600000000000001 1.0699999999999998 -2.3300000000000001 #
straight-curve $-1 -7.5 2.5699999999999998 -3 1 0 0 I I #
face $-1 $359 $360 $3 $-1 $361 reversed single #
loop $-1 $-1 $362 $249 #
cone-surface $-1 -3.3399999999999999 3 -2.3300000000000001 0 -1 0 0.5 0 0 1 I I 0 1 0.5 forward I I I I #
loop $-1 $363 $364 $189 #
coedge $-1 $365 $365 $366 $367 forward $250 $-1 #
loop $-1 $368 $369 $97 #
coedge $-1 $370 $370 $371 $372 reversed $252 $-1 #
coedge $-1 $253 $253 $373 $374 reversed $192 $-1 #
coedge $-1 $288 $375 $253 $315 forward $230 $-1 #
edge $-1 $376 0 $377 3.1415926535897913 $314 $378 forward 7 unknown #
coedge $-1 $379 $380 $254 $317 forward $381 $-1 #
edge $-1 $322 0 $321 3.1415926535897913 $316 $382 forward 7 unknown #
coedge $-1 $349 $255 $380 $383 reversed $320 $-1 #
coedge $-1 $255 $349 $379 $384 forward $320 $-1 #
loop $-1 $-1 $318 $385 #
vertex $-1 $317 $386 #
vertex $-1 $317 $387 #
ellipse-curve $-1 -3.3399999999999999 0.5 -2.3299999999999996 0 -1 0 -0.5 0 -4.4408920985006262e-016 1 I I #
coedge $-1 $351 $257 $260 $329 reversed $326 $-1 #
coedge $-1 $257 $351 $259 $328 forward $326 $-1 #
loop $-1 $-1 $324 $388 #
ellipse-curve $-1 -0.33999999999999986 0.5 -2.3300000000000005 0 -1 0 0.5 0 4.4408920985006262e-016 1 I I #
edge $-1 $354 0 $263 0.56999999999999984 $325 $389 forward 7 unknown #
edge $-1 $353 0 $262 0.56999999999999984 $324 $390 forward 7 unknown #
face $-1 $388 $261 $3 $-1 $391 reversed single #
point $-1 -0.83999999999999986 0.5 -2.3300000000000001 #
point $-1 0.16000000000000014 0.5 -2.3300000000000001 #
face $-1 $330 $267 $3 $-1 $392 reversed single #
straight-curve $-1 3.1600000000000001 1.0699999999999998 -2.3300000000000001 0 -1 0 I I #
straight-curve $-1 2.1600000000000001 1.0699999999999998 -2.3300000000000001 0 -1 0 I I #
cone-surface $-1 2.6600000000000001 3 -2.3300000000000001 0 -1 0 0.5 0 0 1 I I 0 1 0.5 forward I I I I #
cone-surface $-1 5.6600000000000001 3 -2.3300000000000001 0 -1 0 0.5 0 0 1 I I 0 1 0.5 forward I I I I #
straight-curve $-1 7.5 3 -3 0 0 1 I I #
point $-1 7.5 3 -3 #
coedge $-1 $283 $283 $393 $394 forward $222 $-1 #
coedge $-1 $375 $288 $283 $342 reversed $230 $-1 #
edge $-1 $395 0 $396 3.1415926535897931 $283 $397 forward 7 unknown #
coedge $-1 $393 $373 $375 $398 reversed $286 $-1 #
coedge $-1 $373 $393 $288 $345 forward $286 $-1 #
edge $-1 $396 0 $377 0.43000000000000016 $344 $399 forward 7 unknown #
straight-curve $-1 7.5 2.5699999999999998 -3 0 1 0 I I #
point $-1 7.5 2.5699999999999998 -3 #
coedge $-1 $293 $293 $400 $401 forward $236 $-1 #
coedge $-1 $319 $318 $293 $350 reversed $320 $-1 #
edge $-1 $402 0 $403 3.1415926535897913 $349 $404 forward 7 unknown #
coedge $-1 $325 $324 $294 $352 reversed $326 $-1 #
edge $-1 $354 0 $353 3.1415926535897913 $351 $405 forward 7 unknown #
vertex $-1 $352 $406 #
vertex $-1 $328 $407 #
ellipse-curve $-1 -0.33999999999999986 1.0699999999999998 -2.3299999999999996 0 -1 0 -0.5 0 -4.4408920985006262e-016 1 I I #
ellipse-curve $-1 2.6600000000000001 1.0699999999999998 -2.3300000000000005 0 -1 0 0.5 0 4.4408920985006262e-016 1 I I #
point $-1 2.1600000000000001 1.0699999999999998 -2.3300000000000001 #
point $-1 3.1600000000000001 1.0699999999999998 -2.3300000000000001 #
face $-1 $408 $409 $3 $-1 $410 reversed single #
loop $-1 $-1 $411 $306 #
cone-surface $-1 -3.3399999999999999 3 -2.3300000000000001 0 -1 0 0.5 0 0 1 I I 0 1 0.5 forward I I I I #
coedge $-1 $366 $412 $413 $414 reversed $307 $-1 #
loop $-1 $162 $415 $189 #
coedge $-1 $416 $416 $417 $418 forward $309 $-1 #
coedge $-1 $310 $310 $419 $420 forward $250 $-1 #
coedge $-1 $421 $362 $310 $367 reversed $307 $-1 #
edge $-1 $422 0 $423 3.1415926535897931 $310 $424 forward 7 unknown #
loop $-1 $-1 $425 $97 #
coedge $-1 $426 $426 $427 $428 reversed $311 $-1 #
coedge $-1 $312 $312 $429 $430 reversed $252 $-1 #
coedge $-1 $431 $432 $312 $372 forward $433 $-1 #
edge $-1 $434 0 $435 3.1415926535897913 $371 $436 forward 7 unknown #
coedge $-1 $343 $344 $313 $374 forward $286 $-1 #
edge $-1 $377 0 $376 3.1415926535897913 $373 $437 forward 7 unknown #
coedge $-1 $314 $341 $343 $398 forward $230 $-1 #
vertex $-1 $374 $438 #
vertex $-1 $374 $439 #
ellipse-curve $-1 5.6600000000000001 2.5699999999999998 -2.3299999999999996 0 -1 0 -0.5 0 -4.4408920985006262e-016 1 I I #
coedge $-1 $400 $316 $319 $384 reversed $381 $-1 #
coedge $-1 $316 $400 $318 $383 forward $381 $-1 #
loop $-1 $-1 $379 $440 #
ellipse-curve $-1 -3.3399999999999999 0.5 -2.3300000000000005 0 -1 0 0.5 0 4.4408920985006262e-016 1 I I #
edge $-1 $403 0 $322 0.56999999999999984 $380 $441 forward 7 unknown #
edge $-1 $402 0 $321 0.56999999999999984 $379 $442 forward 7 unknown #
face $-1 $440 $320 $3 $-1 $443 reversed single #
point $-1 -3.8399999999999999 0.5 -2.3300000000000001 #
point $-1 -2.8399999999999999 0.5 -2.3300000000000001 #
face $-1 $385 $326 $3 $-1 $444 reversed single #
straight-curve $-1 0.16000000000000014 1.0699999999999998 -2.3300000000000001 0 -1 0 I I #
straight-curve $-1 -0.83999999999999986 1.0699999999999998 -2.3300000000000001 0 -1 0 I I #
cone-surface $-1 -0.33999999999999986 3 -2.3300000000000001 0 -1 0 0.5 0 0 1 I I 0 1 0.5 forward I I I I #
cone-surface $-1 2.6600000000000001 3 -2.3300000000000001 0 -1 0 0.5 0 0 1 I I 0 1 0.5 forward I I I I #
coedge $-1 $344 $343 $340 $394 reversed $286 $-1 #
edge $-1 $396 0 $395 3.1415926535897931 $340 $445 forward 7 unknown #
vertex $-1 $394 $446 #
vertex $-1 $394 $447 #
ellipse-curve $-1 5.6600000000000001 3 -2.3300000000000001 0 -1 0 -0.5 0 0 1 I I #
edge $-1 $395 0 $376 0.43000000000000016 $343 $448 forward 7 unknown #
straight-curve $-1 6.1600000000000001 3 -2.3300000000000001 0 -1 0 I I #
coedge $-1 $380 $379 $348 $401 reversed $381 $-1 #
edge $-1 $403 0 $402 3.1415926535897913 $400 $449 forward 7 unknown #
vertex $-1 $401 $450 #
vertex $-1 $383 $451 #
ellipse-curve $-1 -3.3399999999999999 1.0699999999999998 -2.3299999999999996 0 -1 0 -0.5 0 -4.4408920985006262e-016 1 I I #
ellipse-curve $-1 -0.33999999999999986 1.0699999999999998 -2.3300000000000005 0 -1 0 0.5 0 4.4408920985006262e-016 1 I I #
point $-1 -0.83999999999999986 1.0699999999999998 -2.3300000000000001 #
point $-1 0.16000000000000014 1.0699999999999998 -2.3300000000000001 #
face $-1 $452 $453 $3 $-1 $454 reversed single #
loop $-1 $-1 $455 $359 #
cone-surface $-1 -0.33999999999999986 3 -2.3300000000000001 0 -1 0 0.5 0 0 1 I I 0 1 0.5 forward I I I I #
coedge $-1 $419 $456 $421 $457 reversed $360 $-1 #
coedge $-1 $362 $421 $425 $458 forward $307 $-1 #
coedge $-1 $456 $419 $362 $414 forward $360 $-1 #
edge $-1 $423 0 $459 0.43000000000000016 $413 $460 forward 7 unknown #
coedge $-1 $461 $461 $462 $463 forward $363 $-1 #
coedge $-1 $364 $364 $464 $465 forward $309 $-1 #
coedge $-1 $466 $455 $364 $418 reversed $409 $-1 #
edge $-1 $467 0 $468 3.1415926535897931 $364 $469 forward 7 unknown #
coedge $-1 $413 $411 $365 $420 reversed $360 $-1 #
edge $-1 $423 0 $422 3.1415926535897931 $365 $470 forward 7 unknown #
coedge $-1 $412 $366 $411 $457 forward $307 $-1 #
vertex $-1 $420 $471 #
vertex $-1 $420 $472 #
ellipse-curve $-1 -3.3399999999999999 3 -2.3300000000000001 0 -1 0 -0.5 0 0 1 I I #
coedge $-1 $473 $473 $412 $458 reversed $368 $-1 #
coedge $-1 $369 $369 $474 $475 reversed $311 $-1 #
coedge $-1 $455 $466 $369 $428 forward $409 $-1 #
edge $-1 $476 0 $477 3.1415926535897913 $427 $478 forward 7 unknown #
coedge $-1 $479 $480 $370 $430 forward $481 $-1 #
edge $-1 $435 0 $434 3.1415926535897913 $429 $482 forward 7 unknown #
coedge $-1 $462 $371 $480 $483 reversed $433 $-1 #
coedge $-1 $371 $462 $479 $484 forward $433 $-1 #
loop $-1 $-1 $431 $452 #
vertex $-1 $430 $485 #
vertex $-1 $430 $486 #
ellipse-curve $-1 2.6600000000000001 2.5699999999999998 -2.3299999999999996 0 -1 0 -0.5 0 -4.4408920985006262e-016 1 I I #
ellipse-curve $-1 5.6600000000000001 2.5699999999999998 -2.3300000000000005 0 -1 0 0.5 0 4.4408920985006262e-016 1 I I #
point $-1 5.1600000000000001 2.5699999999999998 -2.3300000000000001 #
point $-1 6.1600000000000001 2.5699999999999998 -2.3300000000000001 #
face $-1 $-1 $381 $3 $-1 $487 reversed single #
straight-curve $-1 -2.8399999999999999 1.0699999999999998 -2.3300000000000001 0 -1 0 I I #
straight-curve $-1 -3.8399999999999999 1.0699999999999998 -2.3300000000000001 0 -1 0 I I #
cone-surface $-1 -3.3399999999999999 3 -2.3300000000000001 0 -1 0 0.5 0 0 1 I I 0 1 0.5 forward I I I I #
cone-surface $-1 -0.33999999999999986 3 -2.3300000000000001 0 -1 0 0.5 0 0 1 I I 0 1 0.5 forward I I I I #
ellipse-curve $-1 5.6600000000000001 3 -2.3300000000000001 0 -1 0 0.5 0 0 1 I I #
point $-1 5.1600000000000001 3 -2.3300000000000001 #
point $-1 6.1600000000000001 3 -2.3300000000000001 #
straight-curve $-1 5.1600000000000001 3 -2.3300000000000001 0 -1 0 I I #
ellipse-curve $-1 -3.3399999999999999 1.0699999999999998 -2.3300000000000005 0 -1 0 0.5 0 4.4408920985006262e-016 1 I I #
point $-1 -3.8399999999999999 1.0699999999999998 -2.3300000000000001 #
point $-1 -2.8399999999999999 1.0699999999999998 -2.3300000000000001 #
face $-1 $488 $433 $3 $-1 $489 reversed single #
loop $-1 $-1 $490 $408 #
cone-surface $-1 -0.33999999999999986 3 -2.3300000000000001 0 -1 0 0.5 0 0 1 I I 0 1 0.5 forward I I I I #
coedge $-1 $417 $427 $491 $492 reversed $409 $-1 #
coedge $-1 $411 $413 $473 $493 forward $360 $-1 #
edge $-1 $422 0 $494 0.43000000000000016 $411 $495 forward 7 unknown #
edge $-1 $494 0 $459 3.1415926535897913 $412 $496 forward 7 unknown #
vertex $-1 $493 $497 #
straight-curve $-1 -2.8399999999999999 3 -2.3300000000000001 0 -1 0 I I #
coedge $-1 $415 $415 $498 $499 forward $363 $-1 #
coedge $-1 $432 $431 $415 $463 reversed $433 $-1 #
edge $-1 $500 0 $501 3.1415926535897931 $415 $502 forward 7 unknown #
coedge $-1 $491 $490 $416 $465 reversed $453 $-1 #
edge $-1 $468 0 $467 3.1415926535897931 $416 $503 forward 7 unknown #
coedge $-1 $427 $417 $490 $504 forward $409 $-1 #
vertex $-1 $465 $505 #
vertex $-1 $465 $506 #
ellipse-curve $-1 -0.33999999999999986 3 -2.3300000000000001 0 -1 0 -0.5 0 0 1 I I #
ellipse-curve $-1 -3.3399999999999999 3 -2.3300000000000001 0 -1 0 0.5 0 0 1 I I #
point $-1 -3.8399999999999999 3 -2.3300000000000001 #
point $-1 -2.8399999999999999 3 -2.3300000000000001 #
coedge $-1 $425 $425 $456 $493 reversed $368 $-1 #
coedge $-1 $490 $491 $426 $475 forward $453 $-1 #
edge $-1 $477 0 $476 3.1415926535897913 $474 $507 forward 7 unknown #
vertex $-1 $475 $508 #
vertex $-1 $475 $509 #
ellipse-curve $-1 -0.33999999999999986 2.5699999999999998 -2.3299999999999996 0 -1 0 -0.5 0 -4.4408920985006262e-016 1 I I #
coedge $-1 $498 $429 $432 $484 reversed $481 $-1 #
coedge $-1 $429 $498 $431 $483 forward $481 $-1 #
loop $-1 $-1 $479 $488 #
ellipse-curve $-1 2.6600000000000001 2.5699999999999998 -2.3300000000000005 0 -1 0 0.5 0 4.4408920985006262e-016 1 I I #
edge $-1 $501 0 $435 0.43000000000000016 $480 $510 forward 7 unknown #
edge $-1 $500 0 $434 0.43000000000000016 $479 $511 forward 7 unknown #
point $-1 2.1600000000000001 2.5699999999999998 -2.3300000000000001 #
point $-1 3.1600000000000001 2.5699999999999998 -2.3300000000000001 #
cone-surface $-1 -3.3399999999999999 3 -2.3300000000000001 0 -1 0 0.5 0 0 1 I I 0 1 0.5 forward I I I I #
face $-1 $167 $481 $3 $-1 $512 reversed single #
cone-surface $-1 2.6600000000000001 3 -2.3300000000000001 0 -1 0 0.5 0 0 1 I I 0 1 0.5 forward I I I I #
coedge $-1 $464 $474 $466 $504 reversed $453 $-1 #
coedge $-1 $474 $464 $455 $492 forward $453 $-1 #
edge $-1 $468 0 $477 0.43000000000000016 $491 $513 forward 7 unknown #
edge $-1 $459 0 $494 3.1415926535897913 $456 $514 forward 7 unknown #
vertex $-1 $493 $515 #
straight-curve $-1 -3.8399999999999999 3 -2.3300000000000001 0 -1 0 I I #
ellipse-curve $-1 -3.3399999999999999 2.5699999999999998 -2.3299999999999996 0 -1 0 -0.5 0 -4.4408920985006262e-016 1 I I #
point $-1 -2.8399999999999999 2.5699999999999998 -2.3300000000000001 #
coedge $-1 $480 $479 $461 $499 reversed $481 $-1 #
edge $-1 $501 0 $500 3.1415926535897931 $461 $516 forward 7 unknown #
vertex $-1 $499 $517 #
vertex $-1 $499 $518 #
ellipse-curve $-1 2.6600000000000001 3 -2.3300000000000001 0 -1 0 -0.5 0 0 1 I I #
ellipse-curve $-1 -0.33999999999999986 3 -2.3300000000000001 0 -1 0 0.5 0 0 1 I I #
edge $-1 $467 0 $476 0.43000000000000016 $490 $519 forward 7 unknown #
point $-1 -0.83999999999999986 3 -2.3300000000000001 #
point $-1 0.16000000000000014 3 -2.3300000000000001 #
ellipse-curve $-1 -0.33999999999999986 2.5699999999999998 -2.3300000000000005 0 -1 0 0.5 0 4.4408920985006262e-016 1 I I #
point $-1 -0.83999999999999986 2.5699999999999998 -2.3300000000000001 #
point $-1 0.16000000000000014 2.5699999999999998 -2.3300000000000001 #
straight-curve $-1 3.1600000000000001 3 -2.3300000000000001 0 -1 0 I I #
straight-curve $-1 2.1600000000000001 3 -2.3300000000000001 0 -1 0 I I #
cone-surface $-1 2.6600000000000001 3 -2.3300000000000001 0 -1 0 0.5 0 0 1 I I 0 1 0.5 forward I I I I #
straight-curve $-1 0.16000000000000014 3 -2.3300000000000001 0 -1 0 I I #
ellipse-curve $-1 -3.3399999999999999 2.5699999999999998 -2.3300000000000005 0 -1 0 0.5 0 4.4408920985006262e-016 1 I I #
point $-1 -3.8399999999999999 2.5699999999999998 -2.3300000000000001 #
ellipse-curve $-1 2.6600000000000001 3 -2.3300000000000001 0 -1 0 0.5 0 0 1 I I #
point $-1 2.1600000000000001 3 -2.3300000000000001 #
point $-1 3.1600000000000001 3 -2.3300000000000001 #
straight-curve $-1 -0.83999999999999986 3 -2.3300000000000001 0 -1 0 I I #
End-of-ACIS-data 