600 0 1 0           
112 GICL Pro/E ACIS Translator - Source: f:/data5/repository/PTC/V20/web_demos/models/holemaking/prt0002.prt.2 - 6 0 13 ACIS 6.0.3 NT 24 Thu Apr 04 13:12:41 2002 
1 9.9999999999999995e-007 1e-010 
body $-1 $1 $-1 $2 #
lump $-1 $-1 $3 $0 #
transform $-1 1 0 0 0 1 0 0 0 1 0 0 0 25.399999999999999 no_rotate no_reflect no_shear #
shell $-1 $-1 $-1 $4 $-1 $1 #
face $-1 $5 $6 $3 $-1 $7 reversed single #
face $-1 $8 $9 $3 $-1 $10 forward single #
loop $-1 $-1 $11 $4 #
plane-surface $-1 0 0 3 0 0 -1 -1 0 0 forward_v I I I I #
face $-1 $12 $13 $3 $-1 $14 forward single #
loop $-1 $-1 $15 $5 #
plane-surface $-1 7.5 0 3 0 -1 0 -1 0 0 forward_v I I I I #
coedge $-1 $16 $17 $18 $19 reversed $6 $-1 #
face $-1 $20 $21 $3 $-1 $22 reversed single #
loop $-1 $-1 $23 $8 #
plane-surface $-1 7.5 3 3 1 0 0 0 -1 0 forward_v I I I I #
coedge $-1 $18 $24 $25 $26 reversed $9 $-1 #
coedge $-1 $27 $11 $28 $29 reversed $6 $-1 #
coedge $-1 $11 $27 $30 $31 reversed $6 $-1 #
coedge $-1 $32 $15 $11 $19 forward $9 $-1 #
edge $-1 $33 0 $34 15 $11 $35 forward 7 unknown #
face $-1 $36 $37 $3 $-1 $38 reversed single #
loop $-1 $-1 $39 $12 #
plane-surface $-1 -7.5 0.5 -1.1699999999999999 0 1 0 0 0 -1 forward_v I I I I #
coedge $-1 $40 $41 $42 $43 reversed $13 $-1 #
coedge $-1 $15 $32 $44 $45 reversed $9 $-1 #
coedge $-1 $41 $28 $15 $26 forward $13 $-1 #
edge $-1 $33 0 $46 4.1699999999999999 $25 $47 forward 7 unknown #
coedge $-1 $17 $16 $48 $49 reversed $6 $-1 #
coedge $-1 $25 $50 $16 $29 forward $13 $-1 #
edge $-1 $51 0 $33 3 $16 $52 forward 7 unknown #
coedge $-1 $53 $54 $17 $31 forward $55 $-1 #
edge $-1 $34 0 $56 3 $17 $57 forward 7 unknown #
coedge $-1 $24 $18 $54 $58 forward $9 $-1 #
vertex $-1 $29 $59 #
vertex $-1 $31 $60 #
straight-curve $-1 7.5 0 3 -1 0 0 I I #
face $-1 $61 $55 $3 $-1 $62 forward single #
loop $-1 $-1 $63 $20 #
plane-surface $-1 0 0 -3 0 0 1 1 0 0 forward_v I I I I #
coedge $-1 $42 $64 $65 $66 forward $21 $-1 #
coedge $-1 $67 $23 $68 $69 reversed $13 $-1 #
coedge $-1 $23 $25 $70 $71 forward $13 $-1 #
coedge $-1 $72 $39 $23 $43 forward $21 $-1 #
edge $-1 $73 0 $74 1.8300000000000001 $23 $75 forward 7 unknown #
coedge $-1 $76 $70 $24 $45 forward $77 $-1 #
edge $-1 $46 0 $78 15 $24 $79 forward 7 unknown #
vertex $-1 $71 $80 #
straight-curve $-1 7.5 0 3 0 0 -1 I I #
coedge $-1 $81 $82 $27 $49 forward $83 $-1 #
edge $-1 $56 0 $51 15 $27 $84 forward 7 unknown #
coedge $-1 $28 $85 $81 $86 reversed $13 $-1 #
vertex $-1 $49 $87 #
straight-curve $-1 7.5 3 3 0 -1 0 I I #
coedge $-1 $88 $30 $82 $89 forward $55 $-1 #
coedge $-1 $30 $90 $32 $58 reversed $55 $-1 #
loop $-1 $-1 $54 $36 #
vertex $-1 $31 $91 #
straight-curve $-1 -7.5 0 3 0 1 0 I I #
edge $-1 $34 0 $78 4.1699999999999999 $54 $92 forward 7 unknown #
point $-1 7.5 0 3 #
point $-1 -7.5 0 3 #
face $-1 $93 $83 $3 $-1 $94 forward single #
plane-surface $-1 -7.5 0 3 -1 0 0 0 1 0 forward_v I I I I #
coedge $-1 $95 $65 $96 $97 forward $37 $-1 #
coedge $-1 $39 $72 $98 $99 reversed $21 $-1 #
coedge $-1 $63 $68 $39 $66 reversed $37 $-1 #
edge $-1 $100 0 $73 15 $65 $101 forward 7 unknown #
coedge $-1 $102 $40 $103 $104 forward $13 $-1 #
coedge $-1 $65 $95 $40 $69 forward $37 $-1 #
edge $-1 $105 0 $73 0.56999999999999984 $68 $106 forward 7 unknown #
coedge $-1 $44 $107 $41 $71 reversed $77 $-1 #
edge $-1 $46 0 $74 0.5 $41 $108 forward 7 unknown #
coedge $-1 $64 $42 $107 $109 reversed $21 $-1 #
vertex $-1 $66 $110 #
vertex $-1 $71 $111 #
straight-curve $-1 7.5 0.5 -3 0 0 1 I I #
coedge $-1 $107 $44 $90 $112 forward $77 $-1 #
loop $-1 $-1 $107 $113 #
vertex $-1 $112 $114 #
straight-curve $-1 7.5 0 -1.1699999999999999 -1 0 0 I I #
point $-1 7.5 0 -1.1699999999999999 #
coedge $-1 $115 $48 $50 $86 forward $83 $-1 #
coedge $-1 $48 $115 $53 $89 reversed $83 $-1 #
loop $-1 $-1 $81 $61 #
straight-curve $-1 -7.5 3 3 1 0 0 I I #
coedge $-1 $50 $116 $117 $118 reversed $13 $-1 #
edge $-1 $51 0 $119 6 $81 $120 forward 7 unknown #
point $-1 7.5 3 3 #
coedge $-1 $121 $53 $122 $123 reversed $55 $-1 #
edge $-1 $56 0 $124 6 $53 $125 forward 7 unknown #
coedge $-1 $54 $98 $76 $112 reversed $55 $-1 #
point $-1 -7.5 3 3 #
straight-curve $-1 -7.5 0 3 0 0 -1 I I #
face $-1 $126 $127 $3 $-1 $128 reversed single #
plane-surface $-1 -7.5 3 3 0 1 0 1 0 0 forward_v I I I I #
coedge $-1 $68 $63 $129 $130 forward $37 $-1 #
coedge $-1 $98 $131 $63 $97 reversed $55 $-1 #
edge $-1 $100 0 $132 0.56999999999999984 $63 $133 forward 7 unknown #
coedge $-1 $90 $96 $64 $99 forward $55 $-1 #
edge $-1 $100 0 $134 1.8300000000000001 $98 $135 forward 7 unknown #
vertex $-1 $66 $136 #
straight-curve $-1 -7.5 0.5 -3 1 0 0 I I #
coedge $-1 $116 $67 $137 $138 forward $13 $-1 #
coedge $-1 $129 $139 $67 $104 reversed $140 $-1 #
edge $-1 $105 0 $141 1.8300000000000001 $67 $142 forward 7 unknown #
vertex $-1 $69 $143 #
straight-curve $-1 7.5 1.0699999999999998 -3 0 -1 0 I I #
coedge $-1 $70 $76 $72 $109 forward $77 $-1 #
straight-curve $-1 7.5 0 -1.1699999999999999 0 1 0 I I #
edge $-1 $134 0 $74 15 $107 $144 forward 7 unknown #
point $-1 7.5 0.5 -3 #
point $-1 7.5 0.5 -1.1699999999999999 #
edge $-1 $78 0 $134 0.5 $90 $145 forward 7 unknown #
face $-1 $-1 $77 $3 $-1 $146 reversed single #
point $-1 -7.5 0 -1.1699999999999999 #
coedge $-1 $82 $81 $147 $148 reversed $83 $-1 #
coedge $-1 $85 $102 $149 $150 reversed $13 $-1 #
coedge $-1 $151 $147 $85 $118 forward $127 $-1 #
edge $-1 $119 0 $152 0.43000000000000016 $117 $153 forward 7 unknown #
vertex $-1 $118 $154 #
straight-curve $-1 7.5 3 3 0 0 -1 I I #
coedge $-1 $155 $88 $156 $157 forward $55 $-1 #
coedge $-1 $147 $151 $88 $123 forward $127 $-1 #
edge $-1 $158 0 $124 0.43000000000000016 $122 $159 forward 7 unknown #
vertex $-1 $148 $160 #
straight-curve $-1 -7.5 3 3 0 0 -1 I I #
face $-1 $161 $162 $3 $-1 $163 reversed single #
loop $-1 $-1 $122 $93 #
plane-surface $-1 0 0 -3 0 0 1 1 0 0 forward_v I I I I #
coedge $-1 $164 $103 $95 $130 reversed $140 $-1 #
edge $-1 $132 0 $105 15 $95 $165 forward 7 unknown #
coedge $-1 $96 $155 $164 $166 reversed $55 $-1 #
vertex $-1 $130 $167 #
straight-curve $-1 -7.5 0.5 -3 0 1 0 I I #
vertex $-1 $112 $168 #
straight-curve $-1 -7.5 0.5 -3 0 0 1 I I #
point $-1 -7.5 0.5 -3 #
coedge $-1 $169 $170 $102 $138 reversed $171 $-1 #
edge $-1 $141 0 $172 1.5 $102 $173 forward 7 unknown #
coedge $-1 $103 $164 $169 $174 forward $140 $-1 #
loop $-1 $-1 $139 $175 #
vertex $-1 $138 $176 #
straight-curve $-1 7.5 1.0699999999999998 -3 0 0 1 I I #
point $-1 7.5 1.0699999999999998 -3 #
straight-curve $-1 -7.5 0.5 -1.1699999999999999 1 0 0 I I #
straight-curve $-1 -7.5 0 -1.1699999999999999 0 1 0 I I #
plane-surface $-1 -7.5 0 -1.1699999999999999 0 0 1 0 1 0 forward_v I I I I #
coedge $-1 $117 $122 $115 $148 forward $127 $-1 #
edge $-1 $124 0 $119 15 $147 $177 forward 7 unknown #
coedge $-1 $178 $179 $116 $150 forward $162 $-1 #
edge $-1 $152 0 $172 1.8300000000000001 $116 $180 forward 7 unknown #
coedge $-1 $122 $117 $179 $181 reversed $127 $-1 #
vertex $-1 $181 $182 #
straight-curve $-1 7.5 3 -3 0 -1 0 I I #
point $-1 7.5 3 -3 #
coedge $-1 $131 $121 $183 $184 reversed $55 $-1 #
coedge $-1 $179 $178 $121 $157 reversed $162 $-1 #
edge $-1 $158 0 $185 1.8300000000000001 $121 $186 forward 7 unknown #
vertex $-1 $181 $187 #
straight-curve $-1 -7.5 2.5699999999999998 -3 0 1 0 I I #
point $-1 -7.5 3 -3 #
face $-1 $175 $171 $3 $-1 $188 reversed single #
loop $-1 $-1 $179 $126 #
plane-surface $-1 -7.5 2.5699999999999998 -1.1699999999999999 0 1 0 0 0 -1 forward_v I I I I #
coedge $-1 $139 $129 $131 $166 forward $140 $-1 #
straight-curve $-1 -7.5 1.0699999999999998 -3 1 0 0 I I #
edge $-1 $132 0 $189 1.8300000000000001 $131 $190 forward 7 unknown #
point $-1 -7.5 1.0699999999999998 -3 #
point $-1 -7.5 0.5 -1.1699999999999999 #
coedge $-1 $183 $137 $139 $174 reversed $171 $-1 #
coedge $-1 $137 $183 $178 $191 forward $171 $-1 #
loop $-1 $-1 $170 $161 #
vertex $-1 $150 $192 #
straight-curve $-1 7.5 1.0699999999999998 -1.1699999999999999 0 1 0 I I #
edge $-1 $189 0 $141 15 $139 $193 forward 7 unknown #
face $-1 $113 $140 $3 $-1 $194 reversed single #
point $-1 7.5 1.0699999999999998 -1.1699999999999999 #
straight-curve $-1 -7.5 3 -3 1 0 0 I I #
coedge $-1 $156 $149 $170 $191 reversed $162 $-1 #
coedge $-1 $149 $156 $151 $181 forward $162 $-1 #
straight-curve $-1 7.5 2.5699999999999998 -3 0 0 1 I I #
edge $-1 $158 0 $152 15 $151 $195 forward 7 unknown #
point $-1 7.5 2.5699999999999998 -3 #
coedge $-1 $170 $169 $155 $184 forward $171 $-1 #
edge $-1 $189 0 $185 1.5 $155 $196 forward 7 unknown #
vertex $-1 $184 $197 #
straight-curve $-1 -7.5 2.5699999999999998 -3 0 0 1 I I #
point $-1 -7.5 2.5699999999999998 -3 #
plane-surface $-1 -7.5 1.0699999999999998 -1.1699999999999999 0 0 1 0 1 0 forward_v I I I I #
vertex $-1 $166 $198 #
straight-curve $-1 -7.5 1.0699999999999998 -3 0 0 1 I I #
edge $-1 $185 0 $172 15 $170 $199 forward 7 unknown #
point $-1 7.5 2.5699999999999998 -1.1699999999999999 #
straight-curve $-1 -7.5 1.0699999999999998 -1.1699999999999999 1 0 0 I I #
plane-surface $-1 -7.5 1.0699999999999998 -3 0 -1 0 0 0 1 forward_v I I I I #
straight-curve $-1 -7.5 2.5699999999999998 -3 1 0 0 I I #
straight-curve $-1 -7.5 1.0699999999999998 -1.1699999999999999 0 1 0 I I #
point $-1 -7.5 2.5699999999999998 -1.1699999999999999 #
point $-1 -7.5 1.0699999999999998 -1.1699999999999999 #
straight-curve $-1 -7.5 2.5699999999999998 -1.1699999999999999 1 0 0 I I #
End-of-ACIS-data 