700 0 2 0           
24 FBMach with ACIS - 7.0.3 13 ACIS 7.0.3 NT 24 Wed May 15 18:13:01 2002 
1 9.9999999999999995e-007 1e-010 
body $2 -1 $-1 $3 $-1 $4 #
bdycol-kcp $-1 -1 1 2 $5 $6 #
model_id-kcp-attrib $-1 -1 $-1 $-1 $0 1 1021500781 1021500781 -281739263 1 #
lump $-1 -1 $-1 $-1 $7 $0 #
transform $-1 -1 1 0 0 0 1 0 0 0 1 0 0 0 1 rotate no_reflect no_shear #
body $8 -1 $-1 $9 $-1 $10 #
body $11 -1 $-1 $12 $-1 $13 #
shell $-1 -1 $-1 $-1 $-1 $14 $-1 $3 #
model_id-kcp-attrib $-1 -1 $-1 $-1 $5 1 1021500781 1021500781 -281739262 1 #
lump $-1 -1 $-1 $-1 $15 $5 #
transform $-1 -1 1 0 0 0 1 0 0 0 1 18.200000000000003 0 4.4408920985006262e-016 1 no_rotate no_reflect no_shear #
rgb_color-st-attrib $-1 -1 $16 $-1 $6 0.5 1 1 #
lump $-1 -1 $-1 $-1 $17 $6 #
transform $-1 -1 1 0 0 0 1 0 0 0 1 18.200000000000003 0 4.4408920985006262e-016 1 no_rotate no_reflect no_shear #
face $18 -1 $-1 $19 $20 $7 $-1 $21 reversed single #
shell $-1 -1 $-1 $-1 $-1 $22 $-1 $9 #
model_id-kcp-attrib $-1 -1 $-1 $11 $6 1 1021500781 1021500781 -275841021 1 #
shell $-1 -1 $-1 $-1 $-1 $23 $-1 $12 #
model_id-kcp-attrib $-1 -1 $-1 $-1 $14 1 1021500781 1021500781 -281739263 2 #
face $24 -1 $-1 $25 $26 $7 $-1 $27 forward single #
loop $-1 -1 $-1 $-1 $28 $14 #
plane-surface $-1 -1 $-1 -26.799999999999997 0 0 1 0 0 0 0 1 forward_v I I I I #
face $-1 -1 $-1 $29 $30 $15 $-1 $31 forward single #
face $-1 -1 $-1 $32 $33 $17 $-1 $34 reversed single #
model_id-kcp-attrib $-1 -1 $-1 $-1 $19 1 1021500781 1021500781 -281739263 3 #
face $35 -1 $-1 $36 $37 $7 $-1 $38 forward single #
loop $-1 -1 $-1 $-1 $39 $19 #
cone-surface $-1 -1 $-1 -30.799999999999997 0 0 -1 0 0 0 0 0.99999999999999989 1 I I -0.70710678118654746 0.70710678118654757 0.99999999999999989 forward I I I I #
coedge $-1 -1 $-1 $40 $40 $41 $42 reversed $20 $-1 #
face $-1 -1 $-1 $43 $44 $15 $-1 $45 reversed single #
loop $-1 -1 $-1 $-1 $46 $22 #
plane-surface $-1 -1 $-1 0 0 5.9999999999999982 0 0 1 1 0 0 forward_v I I I I #
face $-1 -1 $-1 $47 $48 $17 $-1 $34 reversed single #
loop $-1 -1 $-1 $-1 $49 $23 #
cone-surface $-1 -1 $-1 -45 1.7798098252346837e-032 0 -1 0 0 0 -5.9999999999999982 -7.6707303703349439e-017 1 I I 0 1 5.9999999999999982 forward I I I I #
model_id-kcp-attrib $-1 -1 $-1 $-1 $25 1 1021500781 1021500781 -281739263 4 #
face $50 -1 $-1 $51 $52 $7 $-1 $53 forward single #
loop $-1 -1 $-1 $-1 $54 $25 #
cone-surface $-1 -1 $-1 -30.799999999999997 0 0 -1 0 0 0 0 0.99999999999999989 1 I I -0.70710678118654746 0.70710678118654757 0.99999999999999989 forward I I I I #
coedge $-1 -1 $-1 $55 $41 $56 $57 forward $26 $-1 #
coedge $-1 -1 $-1 $28 $28 $58 $59 reversed $20 $-1 #
coedge $-1 -1 $-1 $39 $60 $28 $42 forward $26 $-1 #
edge $61 -1 $-1 $62 -1.7763568394002503e-015 $63 3.1415926535897931 $28 $64 forward @7 unknown #
face $-1 -1 $-1 $65 $66 $15 $-1 $67 reversed single #
loop $-1 -1 $-1 $-1 $68 $29 #
plane-surface $-1 -1 $-1 0 0 -5.9999999999999982 0 0 1 1 0 0 forward_v I I I I #
coedge $-1 -1 $-1 $69 $70 $71 $72 forward $30 $-1 #
face $-1 -1 $-1 $73 $74 $17 $-1 $34 reversed single #
loop $-1 -1 $-1 $-1 $75 $32 #
coedge $-1 -1 $-1 $76 $77 $78 $79 reversed $33 $-1 #
model_id-kcp-attrib $-1 -1 $-1 $-1 $36 1 1021500781 1021500781 -281739263 5 #
face $80 -1 $-1 $81 $82 $7 $-1 $83 forward single #
loop $-1 -1 $-1 $-1 $84 $36 #
cone-surface $-1 -1 $-1 -26.799999999999997 0 0 1 0 0 0 0 6 1 I I 0 1 6 forward I I I I #
coedge $-1 -1 $-1 $85 $58 $60 $86 forward $37 $-1 #
coedge $-1 -1 $-1 $60 $39 $87 $88 reversed $26 $-1 #
coedge $-1 -1 $-1 $58 $85 $39 $57 reversed $37 $-1 #
edge $-1 -1 $-1 $63 0 $89 1.4142135623730954 $39 $90 forward @7 unknown #
coedge $-1 -1 $-1 $54 $56 $40 $59 forward $37 $-1 #
edge $91 -1 $-1 $63 0 $62 3.1415926535897918 $40 $92 forward @7 unknown #
coedge $-1 -1 $-1 $41 $55 $54 $86 reversed $26 $-1 #
attrib_edge_convexity-kcp-attrib $-1 -1 $93 $-1 $42 1 #
vertex $-1 -1 $-1 $59 $94 #
vertex $-1 -1 $-1 $59 $95 #
ellipse-curve $-1 -1 $-1 -26.799999999999997 -2.2204460492503131e-016 -4.4408920985006262e-016 1 0 0 0 4.9999999999999991 -4.7436555551672013e-016 1 I I #
face $96 -1 $-1 $97 $98 $15 $-1 $99 reversed single #
loop $-1 -1 $-1 $-1 $100 $43 #
plane-surface $-1 -1 $-1 0 -6 0 0 1 0 0 0 1 forward_v I I I I #
coedge $-1 -1 $-1 $101 $102 $103 $104 forward $44 $-1 #
coedge $-1 -1 $-1 $105 $46 $106 $107 forward $30 $-1 #
coedge $-1 -1 $-1 $46 $105 $108 $109 forward $30 $-1 #
coedge $-1 -1 $-1 $110 $111 $46 $72 reversed $112 $-1 #
edge $-1 -1 $-1 $113 -6 $114 6 $71 $115 forward @7 unknown #
face $-1 -1 $-1 $116 $117 $17 $-1 $34 reversed single #
loop $-1 -1 $-1 $-1 $118 $47 #
coedge $-1 -1 $-1 $119 $120 $121 $122 reversed $48 $-1 #
coedge $-1 -1 $-1 $123 $49 $124 $125 forward $33 $-1 #
coedge $-1 -1 $-1 $49 $123 $126 $127 reversed $33 $-1 #
coedge $-1 -1 $-1 $128 $129 $49 $79 forward $130 $-1 #
edge $-1 -1 $-1 $131 1.5707963267948966 $132 3.1415926535897931 $78 $133 forward @7 unknown #
model_id-kcp-attrib $-1 -1 $-1 $-1 $51 1 1021500781 1021500781 -281739263 6 #
face $134 -1 $-1 $135 $136 $7 $-1 $137 forward single #
loop $-1 -1 $-1 $-1 $138 $51 #
cone-surface $-1 -1 $-1 -26.799999999999997 0 0 1 0 0 0 0 6 1 I I 0 1 6 forward I I I I #
coedge $-1 -1 $-1 $139 $140 $141 $142 forward $52 $-1 #
coedge $-1 -1 $-1 $56 $54 $140 $143 reversed $37 $-1 #
edge $-1 -1 $-1 $62 0 $144 1.4142135623730954 $60 $145 forward @7 unknown #
coedge $-1 -1 $-1 $138 $141 $55 $88 forward $82 $-1 #
edge $-1 -1 $-1 $144 0 $89 3.1415926535897931 $87 $146 forward @7 unknown #
vertex $-1 -1 $-1 $143 $147 #
straight-curve $-1 -1 $-1 -26.799999999999997 -4.9999999999999991 3.0615158845559427e-016 0.70710678118654746 -0.70710678118654746 4.3296372853596771e-017 I I #
attrib_edge_convexity-kcp-attrib $-1 -1 $148 $-1 $59 1 #
ellipse-curve $-1 -1 $-1 -26.799999999999997 -2.2204460492503131e-016 -6.6613381477509392e-016 1 0 0 0 -4.9999999999999991 9.7228540323068824e-016 1 I I #
convexity-sys-attrib $-1 -1 $-1 $61 $42 #
point $-1 -1 $-1 -26.799999999999997 4.9999999999999991 -9.8002389623680337e-015 #
point $-1 -1 $-1 -26.799999999999997 -4.9999999999999991 3.0615158845559427e-016 #
model_id-kcp-attrib $-1 -1 $-1 $-1 $65 1 1021500781 1021500781 -281739262 2 #
face $-1 -1 $-1 $149 $150 $15 $-1 $151 reversed single #
loop $-1 -1 $-1 $-1 $152 $65 #
plane-surface $-1 -1 $-1 -45 0 0 1 0 0 0 0 -1 forward_v I I I I #
coedge $-1 -1 $-1 $153 $108 $154 $155 forward $66 $-1 #
coedge $-1 -1 $-1 $156 $68 $153 $157 forward $44 $-1 #
coedge $-1 -1 $-1 $68 $156 $158 $159 forward $44 $-1 #
coedge $-1 -1 $-1 $111 $110 $68 $104 reversed $112 $-1 #
edge $-1 -1 $-1 $160 -6 $161 6 $103 $162 forward @7 unknown #
coedge $-1 -1 $-1 $70 $69 $163 $164 forward $30 $-1 #
coedge $-1 -1 $-1 $165 $166 $69 $107 reversed $150 $-1 #
edge $-1 -1 $-1 $114 -45 $167 45 $106 $168 forward @7 unknown #
coedge $-1 -1 $-1 $100 $169 $70 $109 reversed $66 $-1 #
edge $-1 -1 $-1 $170 -45 $113 45 $108 $171 forward @7 unknown #
coedge $-1 -1 $-1 $103 $71 $169 $172 forward $112 $-1 #
coedge $-1 -1 $-1 $71 $103 $165 $173 reversed $112 $-1 #
loop $-1 -1 $-1 $-1 $110 $149 #
vertex $-1 -1 $-1 $72 $174 #
vertex $-1 -1 $-1 $72 $175 #
straight-curve $-1 -1 $-1 45 0 5.9999999999999982 0 1 0 I I #
face $-1 -1 $-1 $176 $177 $17 $-1 $178 reversed single #
loop $-1 -1 $-1 $-1 $179 $73 #
coedge $-1 -1 $-1 $180 $181 $179 $182 forward $74 $-1 #
coedge $-1 -1 $-1 $183 $75 $184 $185 reversed $48 $-1 #
coedge $-1 -1 $-1 $75 $183 $77 $127 forward $48 $-1 #
coedge $-1 -1 $-1 $186 $187 $75 $122 forward $188 $-1 #
edge $-1 -1 $-1 $189 1.5707963267948966 $190 3.1415926535897931 $121 $191 forward @7 unknown #
coedge $-1 -1 $-1 $77 $76 $192 $193 reversed $33 $-1 #
coedge $-1 -1 $-1 $181 $180 $194 $125 reversed $74 $-1 #
edge $-1 -1 $-1 $131 -90 $195 0 $194 $196 forward @7 unknown #
coedge $-1 -1 $-1 $197 $198 $199 $127 forward $200 $-1 #
edge $-1 -1 $-1 $132 -90 $190 0 $126 $201 forward @7 unknown #
coedge $-1 -1 $-1 $129 $78 $198 $202 reversed $130 $-1 #
coedge $-1 -1 $-1 $78 $128 $203 $204 reversed $130 $-1 #
loop $-1 -1 $-1 $-1 $78 $205 #
vertex $-1 -1 $-1 $204 $206 #
vertex $-1 -1 $-1 $207 $208 #
ellipse-curve $-1 -1 $-1 45 1.7798098252346837e-032 0 -1 0 0 0 -5.9999999999999982 -7.6707303703349439e-017 1 I I #
model_id-kcp-attrib $-1 -1 $-1 $-1 $81 1 1021500781 1021500781 -281739263 7 #
face $209 -1 $-1 $210 $211 $7 $-1 $212 forward single #
loop $-1 -1 $-1 $-1 $213 $81 #
cone-surface $-1 -1 $-1 67.199999999999989 0 0 1 0 0 0 0 0.99999999999999989 1 I I -0.70710678118654746 0.70710678118654757 0.99999999999999989 forward I I I I #
coedge $-1 -1 $-1 $214 $87 $215 $216 forward $82 $-1 #
coedge $-1 -1 $-1 $215 $84 $217 $218 reversed $52 $-1 #
coedge $-1 -1 $-1 $84 $215 $85 $143 forward $52 $-1 #
coedge $-1 -1 $-1 $87 $214 $84 $142 reversed $82 $-1 #
edge $-1 -1 $-1 $144 0 $219 87.999999999999986 $84 $220 forward @7 unknown #
edge $-1 -1 $-1 $89 0 $144 3.1415926535897931 $140 $221 forward @7 unknown #
vertex $-1 -1 $-1 $143 $222 #
straight-curve $-1 -1 $-1 -26.799999999999997 4.9999999999999991 -9.8002389623680337e-015 0.70710678118654746 0.70710678118654746 6.1504807161743082e-015 I I #
ellipse-curve $-1 -1 $-1 -25.799999999999997 -4.4408920985006262e-016 -8.8817841970012523e-016 1 0 0 0 6 -2.139672987400141e-016 1 I I #
point $-1 -1 $-1 -25.799999999999997 -5.9999999999999991 3.6738190614671313e-016 #
convexity-sys-attrib $-1 -1 $-1 $91 $59 #
face $223 -1 $-1 $-1 $112 $15 $-1 $224 reversed single #
loop $-1 -1 $-1 $-1 $165 $97 #
plane-surface $-1 -1 $-1 0 6 0 0 -1 0 0 0 -1 forward_v I I I I #
coedge $-1 -1 $-1 $225 $163 $166 $226 forward $98 $-1 #
coedge $-1 -1 $-1 $169 $100 $101 $157 reversed $66 $-1 #
coedge $-1 -1 $-1 $163 $225 $100 $155 reversed $98 $-1 #
edge $-1 -1 $-1 $170 -5.9999999999999982 $227 5.9999999999999982 $154 $228 forward @7 unknown #
coedge $-1 -1 $-1 $102 $101 $225 $229 forward $44 $-1 #
edge $-1 -1 $-1 $161 -45 $227 45 $153 $230 forward @7 unknown #
coedge $-1 -1 $-1 $166 $165 $102 $159 reversed $150 $-1 #
edge $-1 -1 $-1 $231 -45 $160 45 $158 $232 forward @7 unknown #
vertex $-1 -1 $-1 $104 $233 #
vertex $-1 -1 $-1 $172 $234 #
straight-curve $-1 -1 $-1 45 0 -5.9999999999999982 0 -1 0 I I #
coedge $-1 -1 $-1 $152 $154 $105 $164 reversed $98 $-1 #
edge $-1 -1 $-1 $167 -6 $170 6 $163 $235 forward @7 unknown #
coedge $-1 -1 $-1 $158 $106 $111 $173 forward $150 $-1 #
coedge $-1 -1 $-1 $106 $158 $152 $226 reversed $150 $-1 #
vertex $-1 -1 $-1 $107 $236 #
straight-curve $-1 -1 $-1 0 6 5.9999999999999982 -1 0 0 I I #
coedge $-1 -1 $-1 $108 $153 $110 $172 reversed $66 $-1 #
vertex $-1 -1 $-1 $164 $237 #
straight-curve $-1 -1 $-1 0 -6 5.9999999999999982 1 0 0 I I #
edge $-1 -1 $-1 $113 -5.9999999999999982 $161 5.9999999999999982 $110 $238 forward @7 unknown #
edge $-1 -1 $-1 $114 -5.9999999999999982 $160 5.9999999999999982 $111 $239 forward @7 unknown #
point $-1 -1 $-1 45 -6 5.9999999999999982 #
point $-1 -1 $-1 45 6 5.9999999999999982 #
face $-1 -1 $-1 $240 $241 $17 $-1 $242 forward single #
loop $-1 -1 $-1 $-1 $199 $116 #
plane-surface $-1 -1 $-1 0 6 0 0 -1 0 0 0 -1 forward_v I I I I #
coedge $-1 -1 $-1 $243 $244 $245 $182 reversed $117 $-1 #
coedge $-1 -1 $-1 $124 $118 $246 $247 reversed $74 $-1 #
coedge $-1 -1 $-1 $118 $124 $248 $249 reversed $74 $-1 #
edge $-1 -1 $-1 $250 -90 $251 0 $245 $252 forward @7 unknown #
coedge $-1 -1 $-1 $120 $119 $253 $254 reversed $48 $-1 #
coedge $-1 -1 $-1 $255 $256 $257 $185 forward $258 $-1 #
edge $-1 -1 $-1 $259 -90 $189 0 $184 $260 forward @7 unknown #
coedge $-1 -1 $-1 $187 $121 $261 $262 forward $188 $-1 #
coedge $-1 -1 $-1 $121 $186 $255 $263 reversed $188 $-1 #
loop $-1 -1 $-1 $-1 $121 $264 #
vertex $-1 -1 $-1 $263 $265 #
vertex $-1 -1 $-1 $262 $266 #
ellipse-curve $-1 -1 $-1 -45 1.7798098252346837e-032 0 1 0 0 0 -5.9999999999999982 -7.6707303703349439e-017 1 I I #
coedge $-1 -1 $-1 $267 $268 $123 $193 forward $269 $-1 #
edge $-1 -1 $-1 $190 -3.1415926535897931 $195 -1.5707963267948966 $192 $191 forward @7 unknown #
coedge $-1 -1 $-1 $270 $271 $272 $125 forward $241 $-1 #
vertex $-1 -1 $-1 $273 $274 #
straight-curve $-1 -1 $-1 -45 1.7798098252346837e-032 5.9999999999999982 -1 0 0 I I #
coedge $-1 -1 $-1 $275 $126 $268 $276 reversed $200 $-1 #
coedge $-1 -1 $-1 $126 $275 $128 $202 forward $200 $-1 #
coedge $-1 -1 $-1 $277 $261 $120 $127 reversed $177 $-1 #
loop $-1 -1 $-1 $-1 $126 $278 #
straight-curve $-1 -1 $-1 -45 6 0 -1 0 0 I I #
edge $-1 -1 $-1 $279 -5.9999999999999982 $132 0 $128 $280 forward @7 unknown #
coedge $-1 -1 $-1 $281 $272 $129 $204 forward $282 $-1 #
edge $-1 -1 $-1 $131 1.7798098252346837e-032 $279 6 $129 $283 forward @7 unknown #
face $-1 -1 $-1 $284 $130 $17 $-1 $285 reversed single #
point $-1 -1 $-1 45 1.7798098252346837e-032 5.9999999999999982 #
edge $-1 -1 $-1 $132 0 $286 5.9999999999999982 $287 $280 forward @7 unknown #
point $-1 -1 $-1 45 6 0 #
model_id-kcp-attrib $-1 -1 $-1 $-1 $135 1 1021500781 1021500781 -281739263 8 #
face $288 -1 $-1 $-1 $289 $7 $-1 $290 forward single #
loop $-1 -1 $-1 $-1 $291 $135 #
cone-surface $-1 -1 $-1 67.199999999999989 0 0 1 0 0 0 0 0.99999999999999989 1 I I -0.70710678118654746 0.70710678118654757 0.99999999999999989 forward I I I I #
coedge $-1 -1 $-1 $292 $293 $294 $295 forward $136 $-1 #
coedge $-1 -1 $-1 $141 $138 $292 $296 reversed $82 $-1 #
coedge $-1 -1 $-1 $140 $139 $138 $216 reversed $52 $-1 #
edge $-1 -1 $-1 $89 -7.4643028994574767e-049 $297 87.999999999999986 $215 $298 forward @7 unknown #
coedge $-1 -1 $-1 $294 $291 $139 $218 forward $211 $-1 #
edge $-1 -1 $-1 $297 0 $219 3.1415926535897931 $139 $299 forward @7 unknown #
vertex $-1 -1 $-1 $218 $300 #
straight-curve $-1 -1 $-1 -25.799999999999997 6 -1.1021457184401395e-015 1 0 0 I I #
ellipse-curve $-1 -1 $-1 -25.799999999999997 -4.4408920985006262e-016 4.4408920985006262e-016 1 0 0 0 -5.9999999999999982 -7.6707303703349488e-017 1 I I #
point $-1 -1 $-1 -25.799999999999997 5.9999999999999991 -1.1021457184401393e-015 #
model_id-kcp-attrib $-1 -1 $-1 $-1 $149 1 1021500781 1021500781 -281739262 3 #
plane-surface $-1 -1 $-1 45 0 0 -1 0 0 0 0 1 forward_v I I I I #
coedge $-1 -1 $-1 $154 $152 $156 $229 reversed $98 $-1 #
edge $-1 -1 $-1 $167 -5.9999999999999982 $231 5.9999999999999982 $166 $301 forward @7 unknown #
vertex $-1 -1 $-1 $229 $302 #
straight-curve $-1 -1 $-1 -45 -6 0 0 0 -1 I I #
edge $-1 -1 $-1 $227 -6 $231 6 $225 $303 forward @7 unknown #
straight-curve $-1 -1 $-1 0 -6 -5.9999999999999982 -1 0 0 I I #
vertex $-1 -1 $-1 $159 $304 #
straight-curve $-1 -1 $-1 0 6 -5.9999999999999982 1 0 0 I I #
point $-1 -1 $-1 45 6 -5.9999999999999982 #
point $-1 -1 $-1 45 -6 -5.9999999999999982 #
straight-curve $-1 -1 $-1 -45 0 5.9999999999999982 0 -1 0 I I #
point $-1 -1 $-1 -45 6 5.9999999999999982 #
point $-1 -1 $-1 -45 -6 5.9999999999999982 #
straight-curve $-1 -1 $-1 45 -6 0 0 0 -1 I I #
straight-curve $-1 -1 $-1 45 6 0 0 0 -1 I I #
face $-1 -1 $-1 $264 $305 $17 $-1 $306 reversed single #
loop $-1 -1 $-1 $-1 $194 $176 #
plane-surface $-1 -1 $-1 0 0 5.9999999999999982 0 0 1 1 0 0 forward_v I I I I #
coedge $-1 -1 $-1 $307 $179 $308 $309 reversed $117 $-1 #
coedge $-1 -1 $-1 $179 $307 $310 $311 reversed $117 $-1 #
coedge $-1 -1 $-1 $312 $313 $314 $182 forward $315 $-1 #
coedge $-1 -1 $-1 $316 $317 $180 $247 forward $318 $-1 #
edge $-1 -1 $-1 $195 -1.5707963267948966 $251 -1.2784550617224912e-017 $246 $191 forward @7 unknown #
coedge $-1 -1 $-1 $319 $320 $181 $249 forward $321 $-1 #
edge $-1 -1 $-1 $250 1.2784550617224912e-017 $131 1.5707963267948966 $248 $133 forward @7 unknown #
vertex $-1 -1 $-1 $322 $323 #
vertex $-1 -1 $-1 $324 $325 #
straight-curve $-1 -1 $-1 -45 -6 0 -1 0 0 I I #
coedge $-1 -1 $-1 $326 $287 $183 $254 forward $327 $-1 #
edge $-1 -1 $-1 $132 -3.1415926535897931 $259 -1.5707963267948966 $253 $133 forward @7 unknown #
coedge $-1 -1 $-1 $328 $184 $187 $263 forward $258 $-1 #
coedge $-1 -1 $-1 $184 $328 $326 $329 forward $258 $-1 #
coedge $-1 -1 $-1 $330 $331 $307 $185 reversed $332 $-1 #
loop $-1 -1 $-1 $-1 $184 $333 #
vertex $-1 -1 $-1 $334 $335 #
straight-curve $-1 -1 $-1 -45 1.7798098252346837e-032 -5.9999999999999982 -1 0 0 I I #
coedge $-1 -1 $-1 $199 $336 $186 $262 reversed $177 $-1 #
edge $-1 -1 $-1 $190 0 $337 5.9999999999999982 $261 $338 forward @7 unknown #
edge $-1 -1 $-1 $189 1.7798098252346837e-032 $337 6 $187 $339 forward @7 unknown #
face $-1 -1 $-1 $340 $188 $17 $-1 $306 reversed single #
point $-1 -1 $-1 -45 1.7798098252346837e-032 -5.9999999999999982 #
point $-1 -1 $-1 -45 6 0 #
coedge $-1 -1 $-1 $268 $192 $341 $342 reversed $269 $-1 #
coedge $-1 -1 $-1 $192 $267 $197 $276 forward $269 $-1 #
loop $-1 -1 $-1 $-1 $192 $340 #
coedge $-1 -1 $-1 $343 $194 $317 $273 forward $241 $-1 #
coedge $-1 -1 $-1 $194 $343 $319 $344 forward $241 $-1 #
coedge $-1 -1 $-1 $203 $341 $76 $125 reversed $282 $-1 #
edge $-1 -1 $-1 $195 -1.7798098252346837e-032 $345 6 $317 $346 forward @7 unknown #
point $-1 -1 $-1 -45 1.7798098252346837e-032 5.9999999999999982 #
coedge $-1 -1 $-1 $198 $197 $281 $347 reversed $200 $-1 #
edge $-1 -1 $-1 $348 -5.9999999999999982 $190 0 $197 $338 forward @7 unknown #
coedge $-1 -1 $-1 $336 $199 $287 $207 forward $177 $-1 #
face $-1 -1 $-1 $-1 $200 $17 $-1 $178 reversed single #
vertex $-1 -1 $-1 $204 $349 #
straight-curve $-1 -1 $-1 45 6 0 0 0 -1 I I #
coedge $-1 -1 $-1 $341 $203 $275 $347 forward $282 $-1 #
loop $-1 -1 $-1 $-1 $272 $350 #
straight-curve $-1 -1 $-1 45 0 5.9999999999999982 0 1 0 I I #
face $-1 -1 $-1 $351 $327 $17 $-1 $285 reversed single #
plane-surface $-1 -1 $-1 45 0 0 -1 0 0 0 0 1 forward_v I I I I #
vertex $-1 -1 $-1 $329 $352 #
coedge $-1 -1 $-1 $253 $326 $277 $207 reversed $327 $-1 #
model_id-kcp-attrib $-1 -1 $-1 $-1 $210 1 1021500781 1021500781 -281739263 9 #
loop $-1 -1 $-1 $-1 $353 $210 #
plane-surface $-1 -1 $-1 63.199999999999996 0 0 1 0 0 0 0 1 forward_v I I I I #
coedge $-1 -1 $-1 $217 $354 $355 $356 forward $211 $-1 #
coedge $-1 -1 $-1 $355 $213 $214 $296 forward $136 $-1 #
coedge $-1 -1 $-1 $213 $355 $353 $357 reversed $136 $-1 #
coedge $-1 -1 $-1 $354 $217 $213 $295 reversed $211 $-1 #
edge $-1 -1 $-1 $358 0 $219 1.4142135623730954 $213 $359 forward @7 unknown #
edge $-1 -1 $-1 $219 0 $297 3.1415926535897931 $214 $360 forward @7 unknown #
vertex $-1 -1 $-1 $216 $361 #
straight-curve $-1 -1 $-1 -25.799999999999997 -6 3.6738190614671318e-016 1 0 1.5139404881252134e-017 I I #
ellipse-curve $-1 -1 $-1 62.199999999999989 -4.4408920985006262e-016 4.4408920985006262e-016 1 0 0 0 -5.9999999999999982 -7.6707303703349488e-017 1 I I #
point $-1 -1 $-1 62.199999999999989 5.9999999999999991 -1.1021457184401393e-015 #
straight-curve $-1 -1 $-1 -45 6 0 0 0 -1 I I #
point $-1 -1 $-1 -45 -6 -5.9999999999999982 #
straight-curve $-1 -1 $-1 -45 0 -5.9999999999999982 0 1 0 I I #
point $-1 -1 $-1 -45 6 -5.9999999999999982 #
loop $-1 -1 $-1 $-1 $310 $240 #
plane-surface $-1 -1 $-1 -45 0 0 1 0 0 0 0 -1 forward_v I I I I #
coedge $-1 -1 $-1 $244 $243 $119 $185 forward $117 $-1 #
coedge $-1 -1 $-1 $362 $363 $243 $309 forward $364 $-1 #
edge $-1 -1 $-1 $259 -1.5707963267948966 $250 1.2784550617224912e-017 $308 $133 forward @7 unknown #
coedge $-1 -1 $-1 $365 $366 $244 $311 forward $305 $-1 #
edge $-1 -1 $-1 $251 -1.2784550617224912e-017 $189 1.5707963267948966 $310 $191 forward @7 unknown #
coedge $-1 -1 $-1 $367 $245 $366 $324 forward $315 $-1 #
coedge $-1 -1 $-1 $245 $367 $362 $322 reversed $315 $-1 #
coedge $-1 -1 $-1 $368 $369 $118 $182 reversed $370 $-1 #
loop $-1 -1 $-1 $-1 $245 $371 #
coedge $-1 -1 $-1 $317 $246 $369 $372 reversed $318 $-1 #
coedge $-1 -1 $-1 $246 $316 $270 $273 reversed $318 $-1 #
loop $-1 -1 $-1 $-1 $246 $373 #
coedge $-1 -1 $-1 $320 $248 $271 $344 reversed $321 $-1 #
coedge $-1 -1 $-1 $248 $319 $368 $374 forward $321 $-1 #
loop $-1 -1 $-1 $-1 $248 $375 #
edge $-1 -1 $-1 $250 0 $376 5.9999999999999982 $362 $377 forward @7 unknown #
point $-1 -1 $-1 45 -6 0 #
edge $-1 -1 $-1 $251 0 $378 5.9999999999999982 $366 $379 forward @7 unknown #
point $-1 -1 $-1 -45 -6 0 #
coedge $-1 -1 $-1 $287 $253 $256 $329 reversed $327 $-1 #
loop $-1 -1 $-1 $-1 $253 $284 #
coedge $-1 -1 $-1 $256 $255 $336 $380 forward $258 $-1 #
edge $-1 -1 $-1 $286 -6 $259 -1.7798098252346837e-032 $326 $381 forward @7 unknown #
coedge $-1 -1 $-1 $382 $257 $363 $334 forward $332 $-1 #
coedge $-1 -1 $-1 $257 $382 $365 $383 forward $332 $-1 #
loop $-1 -1 $-1 $-1 $257 $384 #
face $-1 -1 $-1 $371 $258 $17 $-1 $385 reversed single #
edge $-1 -1 $-1 $259 -1.7798098252346837e-032 $376 6 $363 $381 forward @7 unknown #
point $-1 -1 $-1 45 1.7798098252346837e-032 -5.9999999999999982 #
coedge $-1 -1 $-1 $261 $277 $328 $380 reversed $177 $-1 #
vertex $-1 -1 $-1 $380 $386 #
straight-curve $-1 -1 $-1 -45 6 0 0 0 -1 I I #
straight-curve $-1 -1 $-1 -45 0 -5.9999999999999982 0 1 0 I I #
face $-1 -1 $-1 $373 $269 $17 $-1 $306 reversed single #
coedge $-1 -1 $-1 $272 $281 $267 $342 forward $282 $-1 #
edge $-1 -1 $-1 $348 -6 $195 -1.7798098252346837e-032 $267 $346 forward @7 unknown #
coedge $-1 -1 $-1 $271 $270 $387 $388 forward $241 $-1 #
edge $-1 -1 $-1 $389 -6 $131 1.7798098252346837e-032 $319 $283 forward @7 unknown #
vertex $-1 -1 $-1 $273 $390 #
straight-curve $-1 -1 $-1 -45 0 5.9999999999999982 0 -1 0 I I #
edge $-1 -1 $-1 $279 -45 $348 45 $275 $391 forward @7 unknown #
vertex $-1 -1 $-1 $347 $392 #
point $-1 -1 $-1 45 6 5.9999999999999982 #
face $-1 -1 $-1 $333 $282 $17 $-1 $242 forward single #
face $-1 -1 $-1 $393 $364 $17 $-1 $285 reversed single #
point $-1 -1 $-1 45 6 -5.9999999999999982 #
coedge $-1 -1 $-1 $394 $394 $293 $357 forward $289 $-1 #
coedge $-1 -1 $-1 $291 $294 $394 $395 reversed $211 $-1 #
coedge $-1 -1 $-1 $293 $292 $291 $356 reversed $136 $-1 #
edge $-1 -1 $-1 $396 0 $297 1.4142135623730954 $355 $397 forward @7 unknown #
edge $-1 -1 $-1 $358 -1.7763568394002503e-015 $396 3.1415926535897931 $353 $398 forward @7 unknown #
vertex $-1 -1 $-1 $395 $399 #
straight-curve $-1 -1 $-1 63.199999999999989 4.9999999999999991 -9.8002389623680337e-015 -0.70710678118654746 0.70710678118654746 6.1504807161743082e-015 I I #
ellipse-curve $-1 -1 $-1 62.199999999999989 -4.4408920985006262e-016 -8.8817841970012523e-016 1 0 0 0 6 -2.139672987400141e-016 1 I I #
point $-1 -1 $-1 62.199999999999989 -5.9999999999999991 3.6738190614671313e-016 #
coedge $-1 -1 $-1 $363 $308 $313 $322 forward $364 $-1 #
coedge $-1 -1 $-1 $308 $362 $330 $334 reversed $364 $-1 #
loop $-1 -1 $-1 $-1 $308 $351 #
coedge $-1 -1 $-1 $366 $310 $331 $383 reversed $305 $-1 #
coedge $-1 -1 $-1 $310 $365 $312 $324 reversed $305 $-1 #
coedge $-1 -1 $-1 $313 $312 $382 $400 reversed $315 $-1 #
coedge $-1 -1 $-1 $387 $314 $320 $374 reversed $370 $-1 #
coedge $-1 -1 $-1 $314 $387 $316 $372 forward $370 $-1 #
loop $-1 -1 $-1 $-1 $314 $393 #
face $-1 -1 $-1 $278 $315 $17 $-1 $401 reversed single #
edge $-1 -1 $-1 $345 -5.9999999999999982 $251 0 $316 $379 forward @7 unknown #
face $-1 -1 $-1 $384 $318 $17 $-1 $306 reversed single #
edge $-1 -1 $-1 $389 -5.9999999999999982 $250 0 $320 $377 forward @7 unknown #
face $-1 -1 $-1 $205 $321 $17 $-1 $285 reversed single #
vertex $-1 -1 $-1 $322 $402 #
straight-curve $-1 -1 $-1 45 -6 0 0 0 -1 I I #
vertex $-1 -1 $-1 $383 $403 #
straight-curve $-1 -1 $-1 -45 -6 0 0 0 -1 I I #
edge $-1 -1 $-1 $337 -45 $286 45 $336 $404 forward @7 unknown #
straight-curve $-1 -1 $-1 45 0 -5.9999999999999982 0 -1 0 I I #
coedge $-1 -1 $-1 $331 $330 $367 $400 forward $332 $-1 #
edge $-1 -1 $-1 $378 -6 $189 1.7798098252346837e-032 $365 $339 forward @7 unknown #
face $-1 -1 $-1 $375 $332 $17 $-1 $385 reversed single #
plane-surface $-1 -1 $-1 0 0 -5.9999999999999982 0 0 1 1 0 0 forward_v I I I I #
point $-1 -1 $-1 -45 6 -5.9999999999999982 #
coedge $-1 -1 $-1 $369 $368 $343 $388 reversed $370 $-1 #
edge $-1 -1 $-1 $345 -45 $389 45 $387 $405 forward @7 unknown #
vertex $-1 -1 $-1 $344 $406 #
point $-1 -1 $-1 -45 -6 5.9999999999999982 #
straight-curve $-1 -1 $-1 0 6 5.9999999999999982 -1 0 0 I I #
point $-1 -1 $-1 -45 6 5.9999999999999982 #
face $-1 -1 $-1 $350 $370 $17 $-1 $401 reversed single #
coedge $-1 -1 $-1 $353 $353 $354 $395 forward $289 $-1 #
edge $-1 -1 $-1 $396 0 $358 3.1415926535897918 $394 $407 forward @7 unknown #
vertex $-1 -1 $-1 $395 $408 #
straight-curve $-1 -1 $-1 63.199999999999989 -4.9999999999999991 3.0615158845559427e-016 -0.70710678118654746 -0.70710678118654746 4.3296372853596771e-017 I I #
ellipse-curve $-1 -1 $-1 63.199999999999996 -2.2204460492503131e-016 -4.4408920985006262e-016 1 1.4210854715202005e-015 -1.3482279982688405e-031 -7.1054273576010019e-015 4.9999999999999991 -4.7436555551672013e-016 1 I I #
point $-1 -1 $-1 63.199999999999989 4.9999999999999991 -9.8002389623680337e-015 #
edge $-1 -1 $-1 $376 -45 $378 45 $367 $409 forward @7 unknown #
plane-surface $-1 -1 $-1 0 -6 0 0 1 0 0 0 1 forward_v I I I I #
point $-1 -1 $-1 45 -6 -5.9999999999999982 #
point $-1 -1 $-1 -45 -6 -5.9999999999999982 #
straight-curve $-1 -1 $-1 0 6 -5.9999999999999982 1 0 0 I I #
straight-curve $-1 -1 $-1 0 -6 5.9999999999999982 1 0 0 I I #
point $-1 -1 $-1 45 -6 5.9999999999999982 #
ellipse-curve $-1 -1 $-1 63.199999999999996 -2.2204460492503131e-016 -6.6613381477509392e-016 1 -1.4210854715202005e-015 2.7634013214045822e-031 -7.1054273576010019e-015 -4.9999999999999991 9.7228540323068824e-016 1 I I #
point $-1 -1 $-1 63.199999999999989 -4.9999999999999991 3.0615158845559427e-016 #
straight-curve $-1 -1 $-1 0 -6 -5.9999999999999982 -1 0 0 I I #
End-of-ACIS-data 