600 0 1 0           
91 GICL Pro/E ACIS Translator - Source: f:/data5/repository/PTC/V18/drill-demo/shaft.prt - 6 0 13 ACIS 6.0.3 NT 24 Thu Apr 04 10:01:51 2002 
1 9.9999999999999995e-007 1e-010 
body $-1 $1 $-1 $-1 #
lump $-1 $-1 $2 $0 #
shell $-1 $-1 $-1 $3 $-1 $1 #
face $-1 $4 $5 $2 $-1 $6 reversed single #
face $-1 $7 $8 $2 $-1 $9 forward single #
loop $-1 $-1 $10 $3 #
plane-surface $-1 -26.799999999999997 0 0 1 0 0 0 0 1 forward_v I I I I #
face $-1 $11 $12 $2 $-1 $13 forward single #
loop $-1 $-1 $14 $4 #
cone-surface $-1 -30.799999999999997 0 0 -1 0 0 0 0 0.99999999999999989 1 I I -0.70710678118654746 0.70710678118654757 0.99999999999999989 forward I I I I #
coedge $-1 $15 $15 $16 $17 reversed $5 $-1 #
face $-1 $18 $19 $2 $-1 $20 forward single #
loop $-1 $-1 $21 $7 #
cone-surface $-1 -30.799999999999997 0 0 -1 0 0 0 0 0.99999999999999989 1 I I -0.70710678118654746 0.70710678118654757 0.99999999999999989 forward I I I I #
coedge $-1 $22 $16 $23 $24 forward $8 $-1 #
coedge $-1 $10 $10 $25 $26 reversed $5 $-1 #
coedge $-1 $14 $27 $10 $17 forward $8 $-1 #
edge $-1 $28 -1.7763568394002503e-015 $29 3.1415926535897931 $10 $30 forward 7 unknown #
face $-1 $31 $32 $2 $-1 $33 forward single #
loop $-1 $-1 $34 $11 #
cone-surface $-1 -26.799999999999997 0 0 1 0 0 0 0 6 1 I I 0 1 6 forward I I I I #
coedge $-1 $35 $25 $27 $36 forward $12 $-1 #
coedge $-1 $27 $14 $37 $38 reversed $8 $-1 #
coedge $-1 $25 $35 $14 $24 reversed $12 $-1 #
edge $-1 $29 0 $39 1.4142135623730954 $14 $40 forward 7 unknown #
coedge $-1 $21 $23 $15 $26 forward $12 $-1 #
edge $-1 $29 0 $28 3.1415926535897918 $15 $41 forward 7 unknown #
coedge $-1 $16 $22 $21 $36 reversed $8 $-1 #
vertex $-1 $26 $42 #
vertex $-1 $26 $43 #
ellipse-curve $-1 -26.799999999999997 -2.2204460492503131e-016 -4.4408920985006262e-016 1 0 0 0 4.9999999999999991 -4.7436555551672013e-016 1 I I #
face $-1 $44 $45 $2 $-1 $46 forward single #
loop $-1 $-1 $47 $18 #
cone-surface $-1 -26.799999999999997 0 0 1 0 0 0 0 6 1 I I 0 1 6 forward I I I I #
coedge $-1 $48 $49 $50 $51 forward $19 $-1 #
coedge $-1 $23 $21 $49 $52 reversed $12 $-1 #
edge $-1 $28 0 $53 1.4142135623730954 $27 $54 forward 7 unknown #
coedge $-1 $47 $50 $22 $38 forward $32 $-1 #
edge $-1 $53 0 $39 3.1415926535897931 $37 $55 forward 7 unknown #
vertex $-1 $52 $56 #
straight-curve $-1 -26.799999999999997 -4.9999999999999991 3.0615158845559427e-016 0.70710678118654746 -0.70710678118654746 4.3296372853596771e-017 I I #
ellipse-curve $-1 -26.799999999999997 -2.2204460492503131e-016 -6.6613381477509392e-016 1 0 0 0 -4.9999999999999991 9.7228540323068824e-016 1 I I #
point $-1 -26.799999999999997 4.9999999999999991 -9.8002389623680337e-015 #
point $-1 -26.799999999999997 -4.9999999999999991 3.0615158845559427e-016 #
face $-1 $57 $58 $2 $-1 $59 forward single #
loop $-1 $-1 $60 $31 #
cone-surface $-1 67.199999999999989 0 0 1 0 0 0 0 0.99999999999999989 1 I I -0.70710678118654746 0.70710678118654757 0.99999999999999989 forward I I I I #
coedge $-1 $61 $37 $62 $63 forward $32 $-1 #
coedge $-1 $62 $34 $64 $65 reversed $19 $-1 #
coedge $-1 $34 $62 $35 $52 forward $19 $-1 #
coedge $-1 $37 $61 $34 $51 reversed $32 $-1 #
edge $-1 $53 0 $66 87.999999999999986 $34 $67 forward 7 unknown #
edge $-1 $39 0 $53 3.1415926535897931 $49 $68 forward 7 unknown #
vertex $-1 $52 $69 #
straight-curve $-1 -26.799999999999997 4.9999999999999991 -9.8002389623680337e-015 0.70710678118654746 0.70710678118654746 6.1504807161743082e-015 I I #
ellipse-curve $-1 -25.799999999999997 -4.4408920985006262e-016 -8.8817841970012523e-016 1 0 0 0 6 -2.139672987400141e-016 1 I I #
point $-1 -25.799999999999997 -5.9999999999999991 3.6738190614671313e-016 #
face $-1 $-1 $70 $2 $-1 $71 forward single #
loop $-1 $-1 $72 $44 #
cone-surface $-1 67.199999999999989 0 0 1 0 0 0 0 0.99999999999999989 1 I I -0.70710678118654746 0.70710678118654757 0.99999999999999989 forward I I I I #
coedge $-1 $73 $74 $75 $76 forward $45 $-1 #
coedge $-1 $50 $47 $73 $77 reversed $32 $-1 #
coedge $-1 $49 $48 $47 $63 reversed $19 $-1 #
edge $-1 $39 -7.4643028994574767e-049 $78 87.999999999999986 $62 $79 forward 7 unknown #
coedge $-1 $75 $72 $48 $65 forward $58 $-1 #
edge $-1 $78 0 $66 3.1415926535897931 $48 $80 forward 7 unknown #
vertex $-1 $65 $81 #
straight-curve $-1 -25.799999999999997 6 -1.1021457184401395e-015 1 0 0 I I #
ellipse-curve $-1 -25.799999999999997 -4.4408920985006262e-016 4.4408920985006262e-016 1 0 0 0 -5.9999999999999982 -7.6707303703349488e-017 1 I I #
point $-1 -25.799999999999997 5.9999999999999991 -1.1021457184401393e-015 #
loop $-1 $-1 $82 $57 #
plane-surface $-1 63.199999999999996 0 0 1 0 0 0 0 1 forward_v I I I I #
coedge $-1 $64 $83 $84 $85 forward $58 $-1 #
coedge $-1 $84 $60 $61 $77 forward $45 $-1 #
coedge $-1 $60 $84 $82 $86 reversed $45 $-1 #
coedge $-1 $83 $64 $60 $76 reversed $58 $-1 #
edge $-1 $87 0 $66 1.4142135623730954 $60 $88 forward 7 unknown #
edge $-1 $66 0 $78 3.1415926535897931 $61 $89 forward 7 unknown #
vertex $-1 $63 $90 #
straight-curve $-1 -25.799999999999997 -6 3.6738190614671318e-016 1 0 1.5139404881252134e-017 I I #
ellipse-curve $-1 62.199999999999989 -4.4408920985006262e-016 4.4408920985006262e-016 1 0 0 0 -5.9999999999999982 -7.6707303703349488e-017 1 I I #
point $-1 62.199999999999989 5.9999999999999991 -1.1021457184401393e-015 #
coedge $-1 $91 $91 $74 $86 forward $70 $-1 #
coedge $-1 $72 $75 $91 $92 reversed $58 $-1 #
coedge $-1 $74 $73 $72 $85 reversed $45 $-1 #
edge $-1 $93 0 $78 1.4142135623730954 $84 $94 forward 7 unknown #
edge $-1 $87 -1.7763568394002503e-015 $93 3.1415926535897931 $82 $95 forward 7 unknown #
vertex $-1 $92 $96 #
straight-curve $-1 63.199999999999989 4.9999999999999991 -9.8002389623680337e-015 -0.70710678118654746 0.70710678118654746 6.1504807161743082e-015 I I #
ellipse-curve $-1 62.199999999999989 -4.4408920985006262e-016 -8.8817841970012523e-016 1 0 0 0 6 -2.139672987400141e-016 1 I I #
point $-1 62.199999999999989 -5.9999999999999991 3.6738190614671313e-016 #
coedge $-1 $82 $82 $83 $92 forward $70 $-1 #
edge $-1 $93 0 $87 3.1415926535897918 $91 $97 forward 7 unknown #
vertex $-1 $92 $98 #
straight-curve $-1 63.199999999999989 -4.9999999999999991 3.0615158845559427e-016 -0.70710678118654746 -0.70710678118654746 4.3296372853596771e-017 I I #
ellipse-curve $-1 63.199999999999996 -2.2204460492503131e-016 -4.4408920985006262e-016 1 1.4210854715202005e-015 -1.3482279982688405e-031 -7.1054273576010019e-015 4.9999999999999991 -4.7436555551672013e-016 1 I I #
point $-1 63.199999999999989 4.9999999999999991 -9.8002389623680337e-015 #
ellipse-curve $-1 63.199999999999996 -2.2204460492503131e-016 -6.6613381477509392e-016 1 -1.4210854715202005e-015 2.7634013214045822e-031 -7.1054273576010019e-015 -4.9999999999999991 9.7228540323068824e-016 1 I I #
point $-1 63.199999999999989 -4.9999999999999991 3.0615158845559427e-016 #
End-of-ACIS-data 