600 0 1 0           
84 GICL ACIS Healer - Source: /gicl/data5/repository/PTC/V18/drill-demo/shaft.sat - 6 0 18 ACIS 6.0.3 Solaris 24 Sat Apr 13 22:09:50 2002 
1 9.999999999999999547e-07 1.000000000000000036e-10 
body $-1 $1 $-1 $-1 #
lump $-1 $-1 $2 $0 #
shell $-1 $-1 $-1 $3 $-1 $1 #
face $-1 $4 $5 $2 $-1 $6 reversed single #
face $-1 $7 $8 $2 $-1 $9 forward single #
loop $-1 $-1 $10 $3 #
plane-surface $-1 -26.79999999999999716 0 0 1 0 0 0 0 1 forward_v I I I I #
face $-1 $11 $12 $2 $-1 $13 forward single #
loop $-1 $-1 $14 $4 #
cone-surface $-1 -30.79999999999999716 0 0 -1 0 0 0 0 0.999999999999999889 1 I I -0.7071067811865474617 0.7071067811865475727 0.999999999999999889 forward I I I I #
coedge $-1 $15 $15 $16 $17 reversed $5 $-1 #
face $-1 $18 $19 $2 $-1 $20 forward single #
loop $-1 $-1 $21 $7 #
cone-surface $-1 -30.79999999999999716 0 0 -1 0 0 0 0 0.999999999999999889 1 I I -0.7071067811865474617 0.7071067811865475727 0.999999999999999889 forward I I I I #
coedge $-1 $22 $16 $23 $24 forward $8 $-1 #
coedge $-1 $10 $10 $25 $26 reversed $5 $-1 #
coedge $-1 $14 $27 $10 $17 forward $8 $-1 #
edge $-1 $28 -1.776356839400250267e-15 $29 3.141592653589793116 $10 $30 forward 7 unknown #
face $-1 $31 $32 $2 $-1 $33 forward single #
loop $-1 $-1 $34 $11 #
cone-surface $-1 -26.79999999999999716 0 0 1 0 0 0 0 6 1 I I 0 1 6 forward I I I I #
coedge $-1 $35 $25 $27 $36 forward $12 $-1 #
coedge $-1 $27 $14 $37 $38 reversed $8 $-1 #
coedge $-1 $25 $35 $14 $24 reversed $12 $-1 #
edge $-1 $29 0 $39 1.414213562373095368 $14 $40 forward 7 unknown #
coedge $-1 $21 $23 $15 $26 forward $12 $-1 #
edge $-1 $29 0 $28 3.141592653589791784 $15 $41 forward 7 unknown #
coedge $-1 $16 $22 $21 $36 reversed $8 $-1 #
vertex $-1 $26 $42 #
vertex $-1 $26 $43 #
ellipse-curve $-1 -26.79999999999999716 -2.220446049250313081e-16 -4.440892098500626162e-16 1 0 0 0 4.999999999999999112 -4.743655555167201303e-16 1 I I #
face $-1 $44 $45 $2 $-1 $46 forward single #
loop $-1 $-1 $47 $18 #
cone-surface $-1 -26.79999999999999716 0 0 1 0 0 0 0 6 1 I I 0 1 6 forward I I I I #
coedge $-1 $48 $49 $50 $51 forward $19 $-1 #
coedge $-1 $23 $21 $49 $52 reversed $12 $-1 #
edge $-1 $28 0 $53 1.414213562373095368 $27 $54 forward 7 unknown #
coedge $-1 $47 $50 $22 $38 forward $32 $-1 #
edge $-1 $53 0 $39 3.141592653589793116 $37 $55 forward 7 unknown #
vertex $-1 $52 $56 #
straight-curve $-1 -26.79999999999999716 -4.999999999999999112 3.061515884555942652e-16 0.7071067811865474617 -0.7071067811865474617 4.329637285359677091e-17 I I #
ellipse-curve $-1 -26.79999999999999716 -2.220446049250313081e-16 -6.661338147750939243e-16 1 0 0 0 -4.999999999999999112 9.722854032306882388e-16 1 I I #
point $-1 -26.79999999999999716 4.999999999999999112 -9.800238962368033689e-15 #
point $-1 -26.79999999999999716 -4.999999999999999112 3.061515884555942652e-16 #
face $-1 $57 $58 $2 $-1 $59 forward single #
loop $-1 $-1 $60 $31 #
cone-surface $-1 67.19999999999998863 0 0 1 0 0 0 0 0.999999999999999889 1 I I -0.7071067811865474617 0.7071067811865475727 0.999999999999999889 forward I I I I #
coedge $-1 $61 $37 $62 $63 forward $32 $-1 #
coedge $-1 $62 $34 $64 $65 reversed $19 $-1 #
coedge $-1 $34 $62 $35 $52 forward $19 $-1 #
coedge $-1 $37 $61 $34 $51 reversed $32 $-1 #
edge $-1 $53 0 $66 87.99999999999998579 $34 $67 forward 7 unknown #
edge $-1 $39 0 $53 3.141592653589793116 $49 $68 forward 7 unknown #
vertex $-1 $52 $69 #
straight-curve $-1 -26.79999999999999716 4.999999999999999112 -9.800238962368033689e-15 0.7071067811865474617 0.7071067811865474617 6.150480716174308179e-15 I I #
ellipse-curve $-1 -25.79999999999999716 -4.440892098500626162e-16 -8.881784197001252323e-16 1 0 0 0 6 -2.139672987400141028e-16 1 I I #
point $-1 -25.79999999999999716 -5.999999999999999112 3.673819061467131282e-16 #
face $-1 $-1 $70 $2 $-1 $71 forward single #
loop $-1 $-1 $72 $44 #
cone-surface $-1 67.19999999999998863 0 0 1 0 0 0 0 0.999999999999999889 1 I I -0.7071067811865474617 0.7071067811865475727 0.999999999999999889 forward I I I I #
coedge $-1 $73 $74 $75 $76 forward $45 $-1 #
coedge $-1 $50 $47 $73 $77 reversed $32 $-1 #
coedge $-1 $49 $48 $47 $63 reversed $19 $-1 #
edge $-1 $39 -7.464302899457476743e-49 $78 87.99999999999998579 $62 $79 forward 7 unknown #
coedge $-1 $75 $72 $48 $65 forward $58 $-1 #
edge $-1 $78 0 $66 3.141592653589793116 $48 $80 forward 7 unknown #
vertex $-1 $65 $81 #
straight-curve $-1 -25.79999999999999716 6 -1.102145718440139532e-15 1 0 0 I I #
ellipse-curve $-1 -25.79999999999999716 -4.440892098500626162e-16 4.440892098500626162e-16 1 0 0 0 -5.999999999999998224 -7.670730370334948801e-17 1 I I #
point $-1 -25.79999999999999716 5.999999999999999112 -1.102145718440139335e-15 #
loop $-1 $-1 $82 $57 #
plane-surface $-1 63.19999999999999574 0 0 1 0 0 0 0 1 forward_v I I I I #
coedge $-1 $64 $83 $84 $85 forward $58 $-1 #
coedge $-1 $84 $60 $61 $77 forward $45 $-1 #
coedge $-1 $60 $84 $82 $86 reversed $45 $-1 #
coedge $-1 $83 $64 $60 $76 reversed $58 $-1 #
edge $-1 $87 0 $66 1.414213562373095368 $60 $88 forward 7 unknown #
edge $-1 $66 0 $78 3.141592653589793116 $61 $89 forward 7 unknown #
vertex $-1 $63 $90 #
straight-curve $-1 -25.79999999999999716 -6 3.673819061467131775e-16 1 0 1.513940488125213352e-17 I I #
ellipse-curve $-1 62.19999999999998863 -4.440892098500626162e-16 4.440892098500626162e-16 1 0 0 0 -5.999999999999998224 -7.670730370334948801e-17 1 I I #
point $-1 62.19999999999998863 5.999999999999999112 -1.102145718440139335e-15 #
coedge $-1 $91 $91 $74 $86 forward $70 $-1 #
coedge $-1 $72 $75 $91 $92 reversed $58 $-1 #
coedge $-1 $74 $73 $72 $85 reversed $45 $-1 #
edge $-1 $93 0 $78 1.414213562373095368 $84 $94 forward 7 unknown #
edge $-1 $87 -1.776356839400250267e-15 $93 3.141592653589793116 $82 $95 forward 7 unknown #
vertex $-1 $92 $96 #
straight-curve $-1 63.19999999999998863 4.999999999999999112 -9.800238962368033689e-15 -0.7071067811865474617 0.7071067811865474617 6.150480716174308179e-15 I I #
ellipse-curve $-1 62.19999999999998863 -4.440892098500626162e-16 -8.881784197001252323e-16 1 0 0 0 6 -2.139672987400141028e-16 1 I I #
point $-1 62.19999999999998863 -5.999999999999999112 3.673819061467131282e-16 #
coedge $-1 $82 $82 $83 $92 forward $70 $-1 #
edge $-1 $93 0 $87 3.141592653589791784 $91 $97 forward 7 unknown #
vertex $-1 $92 $98 #
straight-curve $-1 63.19999999999998863 -4.999999999999999112 3.061515884555942652e-16 -0.7071067811865474617 -0.7071067811865474617 4.329637285359677091e-17 I I #
ellipse-curve $-1 63.19999999999999574 -2.220446049250313081e-16 -4.440892098500626162e-16 1 1.421085471520200451e-15 -1.348227998268840517e-31 -7.105427357601001859e-15 4.999999999999999112 -4.743655555167201303e-16 1 I I #
point $-1 63.19999999999998863 4.999999999999999112 -9.800238962368033689e-15 #
ellipse-curve $-1 63.19999999999999574 -2.220446049250313081e-16 -6.661338147750939243e-16 1 -1.421085471520200451e-15 2.76340132140458221e-31 -7.105427357601001859e-15 -4.999999999999999112 9.722854032306882388e-16 1 I I #
point $-1 63.19999999999998863 -4.999999999999999112 3.061515884555942652e-16 #
End-of-ACIS-data 