  0
SECTION
  2
HEADER
  9
$ACADVER
  1
AC1009
  9
$INSBASE
 10
0.0
 20
0.0
 30
0.0
  9
$EXTMIN
 10
0.0
 20
0.0
 30
0.0
  9
$EXTMAX
 10
14.0
 20
26.0
 30
4.0
  9
$LIMMIN
 10
0.0
 20
0.0
  9
$LIMMAX
 10
12.0
 20
9.0
  9
$ORTHOMODE
 70
     0
  9
$REGENMODE
 70
     1
  9
$FILLMODE
 70
     1
  9
$QTEXTMODE
 70
     0
  9
$MIRRTEXT
 70
     1
  9
$DRAGMODE
 70
     2
  9
$LTSCALE
 40
1.0
  9
$OSMODE
 70
     0
  9
$ATTMODE
 70
     1
  9
$TEXTSIZE
 40
0.2
  9
$TRACEWID
 40
0.05
  9
$TEXTSTYLE
  7
STANDARD
  9
$CLAYER
  8
0
  9
$CELTYPE
  6
BYLAYER
  9
$CECOLOR
 62
   256
  9
$DIMSCALE
 40
1.0
  9
$DIMASZ
 40
0.18
  9
$DIMEXO
 40
0.0625
  9
$DIMDLI
 40
0.38
  9
$DIMRND
 40
0.0
  9
$DIMDLE
 40
0.0
  9
$DIMEXE
 40
0.18
  9
$DIMTP
 40
0.0
  9
$DIMTM
 40
0.0
  9
$DIMTXT
 40
0.18
  9
$DIMCEN
 40
0.09
  9
$DIMTSZ
 40
0.0
  9
$DIMTOL
 70
     0
  9
$DIMLIM
 70
     0
  9
$DIMTIH
 70
     1
  9
$DIMTOH
 70
     1
  9
$DIMSE1
 70
     0
  9
$DIMSE2
 70
     0
  9
$DIMTAD
 70
     0
  9
$DIMZIN
 70
     0
  9
$DIMBLK
  1

  9
$DIMASO
 70
     1
  9
$DIMSHO
 70
     1
  9
$DIMPOST
  1

  9
$DIMAPOST
  1

  9
$DIMALT
 70
     0
  9
$DIMALTD
 70
     2
  9
$DIMALTF
 40
25.4
  9
$DIMLFAC
 40
1.0
  9
$DIMTOFL
 70
     0
  9
$DIMTVP
 40
0.0
  9
$DIMTIX
 70
     0
  9
$DIMSOXD
 70
     0
  9
$DIMSAH
 70
     0
  9
$DIMBLK1
  1

  9
$DIMBLK2
  1

  9
$DIMSTYLE
  2
*UNNAMED
  9
$DIMCLRD
 70
     0
  9
$DIMCLRE
 70
     0
  9
$DIMCLRT
 70
     0
  9
$DIMTFAC
 40
1.0
  9
$DIMGAP
 40
0.09
  9
$LUNITS
 70
     2
  9
$LUPREC
 70
     4
  9
$SKETCHINC
 40
0.1
  9
$FILLETRAD
 40
0.0
  9
$AUNITS
 70
     0
  9
$AUPREC
 70
     0
  9
$MENU
  1
acad
  9
$ELEVATION
 40
0.0
  9
$PELEVATION
 40
0.0
  9
$THICKNESS
 40
0.0
  9
$LIMCHECK
 70
     0
  9
$BLIPMODE
 70
     1
  9
$CHAMFERA
 40
0.0
  9
$CHAMFERB
 40
0.0
  9
$SKPOLY
 70
     0
  9
$TDCREATE
 40
2449378.569568461
  9
$TDUPDATE
 40
2449378.601000486
  9
$TDINDWG
 40
0.0314320255
  9
$TDUSRTIMER
 40
0.0314320255
  9
$USRTIMER
 70
     1
  9
$ANGBASE
 50
0.0
  9
$ANGDIR
 70
     0
  9
$PDMODE
 70
     0
  9
$PDSIZE
 40
0.0
  9
$PLINEWID
 40
0.0
  9
$COORDS
 70
     1
  9
$SPLFRAME
 70
     0
  9
$SPLINETYPE
 70
     6
  9
$SPLINESEGS
 70
     8
  9
$ATTDIA
 70
     0
  9
$ATTREQ
 70
     1
  9
$HANDLING
 70
     1
  9
$HANDSEED
  5
1EF
  9
$SURFTAB1
 70
     6
  9
$SURFTAB2
 70
     6
  9
$SURFTYPE
 70
     6
  9
$SURFU
 70
     6
  9
$SURFV
 70
     6
  9
$UCSNAME
  2

  9
$UCSORG
 10
0.0
 20
0.0
 30
0.0
  9
$UCSXDIR
 10
1.0
 20
0.0
 30
0.0
  9
$UCSYDIR
 10
0.0
 20
1.0
 30
0.0
  9
$PUCSNAME
  2

  9
$PUCSORG
 10
0.0
 20
0.0
 30
0.0
  9
$PUCSXDIR
 10
1.0
 20
0.0
 30
0.0
  9
$PUCSYDIR
 10
0.0
 20
1.0
 30
0.0
  9
$USERI1
 70
     0
  9
$USERI2
 70
     0
  9
$USERI3
 70
     0
  9
$USERI4
 70
     0
  9
$USERI5
 70
     0
  9
$USERR1
 40
0.0
  9
$USERR2
 40
0.0
  9
$USERR3
 40
0.0
  9
$USERR4
 40
0.0
  9
$USERR5
 40
0.0
  9
$WORLDVIEW
 70
     1
  9
$SHADEDGE
 70
     3
  9
$SHADEDIF
 70
    70
  9
$TILEMODE
 70
     1
  9
$MAXACTVP
 70
    16
  9
$PINSBASE
 10
0.0
 20
0.0
 30
0.0
  9
$PLIMCHECK
 70
     0
  9
$PEXTMIN
 10
1.000000E+20
 20
1.000000E+20
 30
1.000000E+20
  9
$PEXTMAX
 10
-1.000000E+20
 20
-1.000000E+20
 30
-1.000000E+20
  9
$PLIMMIN
 10
0.0
 20
0.0
  9
$PLIMMAX
 10
12.0
 20
9.0
  9
$UNITMODE
 70
     0
  9
$VISRETAIN
 70
     0
  9
$PLINEGEN
 70
     0
  9
$PSLTSCALE
 70
     1
  9
$TREEDEPTH
 70
  3020
  9
$DWGCODEPAGE
  3
ascii
  0
ENDSEC
  0
SECTION
  2
TABLES
  0
TABLE
  2
VPORT
 70
     2
  0
VPORT
  2
*ACTIVE
 70
     0
 10
0.0
 20
0.0
 11
1.0
 21
1.0
 12
2.864605
 22
-2.402425
 13
0.0
 23
0.0
 14
1.0
 24
1.0
 15
0.0
 25
0.0
 16
1.0
 26
2.0
 36
1.0
 17
0.0
 27
0.0
 37
0.0
 40
19.294943
 41
1.594883
 42
50.0
 43
0.0
 44
0.0
 50
0.0
 51
0.0
 71
     0
 72
   100
 73
     1
 74
     1
 75
     0
 76
     0
 77
     0
 78
     0
  0
ENDTAB
  0
TABLE
  2
LTYPE
 70
     1
  0
LTYPE
  2
CONTINUOUS
 70
    64
  3
Solid line
 72
    65
 73
     0
 40
0.0
  0
ENDTAB
  0
TABLE
  2
LAYER
 70
     2
  0
LAYER
  2
0
 70
    64
 62
     7
  6
CONTINUOUS
  0
LAYER
  2
AME_FRZ
 70
    65
 62
     7
  6
CONTINUOUS
  0
ENDTAB
  0
TABLE
  2
STYLE
 70
     1
  0
STYLE
  2
STANDARD
 70
     0
 40
0.0
 41
1.0
 50
0.0
 71
     0
 42
0.2
  3
txt
  4

  0
ENDTAB
  0
TABLE
  2
VIEW
 70
     0
  0
ENDTAB
  0
TABLE
  2
UCS
 70
     0
  0
ENDTAB
  0
TABLE
  2
APPID
 70
     3
  0
APPID
  2
ACAD
 70
    64
  0
APPID
  2
AME_SOL
 70
    64
  0
APPID
  2
AVE_INVOKE
 70
    64
  0
ENDTAB
  0
TABLE
  2
DIMSTYLE
 70
     0
  0
ENDTAB
  0
ENDSEC
  0
SECTION
  2
BLOCKS
  0
BLOCK
  8
0
  5
11F
  2
AME_NIL
 70
    64
 10
0.0
 20
0.0
 30
0.0
  1
AME_NIL
  3
AME_NIL
  0
ENDBLK
  8
0
  5
120
  0
BLOCK
  8
0
  5
122
  2
AME_SOL
 70
    64
 10
0.0
 20
0.0
 30
0.0
  1
AME_SOL
  3
AME_SOL
  0
ENDBLK
  8
0
  5
123
  0
BLOCK
  8
0
  5
182
  2
AME_JNK
 70
     0
 10
0.0
 20
0.0
 30
0.0
  1
AME_JNK
  3
AME_JNK
  0
ENDBLK
  8
0
  5
183
  0
BLOCK
  8
0
  5
1B9
  2
*U12
 70
    65
 10
0.0
 20
0.0
 30
0.0
  1
*U
  3
*U
  0
LINE
  8
0
 62
     7
  5
1BA
 10
14.0
 20
26.0
 30
0.0
 11
14.0
 21
26.0
 31
4.0
1001
AME_SOL
1070
     1
1071
       49
  0
LINE
  8
0
 62
     7
  5
1BB
 10
14.0
 20
26.0
 30
4.0
 11
14.0
 21
0.0
 31
4.0
1001
AME_SOL
1070
     1
1071
       48
  0
LINE
  8
0
 62
     7
  5
1BC
 10
0.0
 20
26.0
 30
4.0
 11
14.0
 21
26.0
 31
4.0
1001
AME_SOL
1070
     1
1071
       47
  0
LINE
  8
0
 62
     7
  5
1BD
 10
0.0
 20
26.0
 30
0.0
 11
0.0
 21
26.0
 31
4.0
1001
AME_SOL
1070
     1
1071
       46
  0
LINE
  8
0
 62
     7
  5
1BE
 10
0.0
 20
26.0
 30
4.0
 11
0.0
 21
0.0
 31
4.0
1001
AME_SOL
1070
     1
1071
       45
  0
LINE
  8
0
 62
     7
  5
1BF
 10
0.0
 20
0.0
 30
0.0
 11
0.0
 21
0.0
 31
4.0
1001
AME_SOL
1070
     1
1071
       44
  0
LINE
  8
0
 62
     7
  5
1C0
 10
14.0
 20
0.0
 30
4.0
 11
14.0
 21
0.0
 31
0.0
1001
AME_SOL
1070
     1
1071
       43
  0
LINE
  8
0
 62
     7
  5
1C1
 10
0.0
 20
0.0
 30
4.0
 11
14.0
 21
0.0
 31
4.0
1001
AME_SOL
1070
     1
1071
       42
  0
LINE
  8
0
 62
     7
  5
1C2
 10
0.0
 20
0.0
 30
0.0
 11
14.0
 21
0.0
 31
0.0
1001
AME_SOL
1070
     1
1071
       41
  0
LINE
  8
0
 62
     7
  5
1C3
 10
0.0
 20
26.0
 30
0.0
 11
0.0
 21
0.0
 31
0.0
1001
AME_SOL
1070
     1
1071
       40
  0
LINE
  8
0
 62
     7
  5
1C4
 10
14.0
 20
0.0
 30
0.0
 11
14.0
 21
26.0
 31
0.0
1001
AME_SOL
1070
     1
1071
       39
  0
LINE
  8
0
 62
     7
  5
1C5
 10
14.0
 20
26.0
 30
0.0
 11
0.0
 21
26.0
 31
0.0
1001
AME_SOL
1070
     1
1071
       38
  0
ARC
  8
0
 62
     7
  5
1C6
 10
7.0
 20
19.0
 30
0.0
 40
5.0
 50
334.608443
 51
205.391557
1001
AME_SOL
1070
     1
1071
       37
  0
ARC
  8
0
 62
     7
  5
1C7
 10
7.0
 20
19.0
 30
4.0
 40
5.0
 50
334.608443
 51
205.391557
1001
AME_SOL
1070
     1
1071
       36
  0
ARC
  8
0
 62
     7
  5
1C8
 10
7.0
 20
13.0
 30
0.0
 40
5.0
 50
154.608443
 51
205.391557
1001
AME_SOL
1070
     1
1071
       35
  0
ARC
  8
0
 62
     7
  5
1C9
 10
7.0
 20
13.0
 30
0.0
 40
5.0
 50
334.608443
 51
25.391557
1001
AME_SOL
1070
     1
1071
       34
  0
ARC
  8
0
 62
     7
  5
1CA
 10
7.0
 20
13.0
 30
4.0
 40
5.0
 50
154.608443
 51
205.391557
1001
AME_SOL
1070
     1
1071
       33
  0
ARC
  8
0
 62
     7
  5
1CB
 10
7.0
 20
13.0
 30
4.0
 40
5.0
 50
334.608443
 51
25.391557
1001
AME_SOL
1070
     1
1071
       32
  0
ARC
  8
0
 62
     7
  5
1CC
 10
7.0
 20
7.0
 30
0.0
 40
5.0
 50
154.608443
 51
25.391557
1001
AME_SOL
1070
     1
1071
       31
  0
ARC
  8
0
 62
     7
  5
1CD
 10
7.0
 20
7.0
 30
4.0
 40
5.0
 50
154.608443
 51
25.391557
1001
AME_SOL
1070
     1
1071
       30
  0
ARC
  8
0
 62
     7
  5
1CE
 10
3.0
 20
16.0
 30
0.0
 40
1.0
 50
121.130727
 51
238.869273
1001
AME_SOL
1070
     1
1071
       29
  0
ARC
  8
0
 62
     7
  5
1CF
 10
3.0
 20
16.0
 30
4.0
 40
1.0
 50
121.130727
 51
238.869273
1001
AME_SOL
1070
     1
1071
       28
  0
LINE
  8
0
 62
     7
  5
1D0
 10
2.483008
 20
16.85599
 30
0.0
 11
2.483008
 21
16.85599
 31
4.0
1001
AME_SOL
1070
     1
1071
       27
  0
LINE
  8
0
 62
     7
  5
1D1
 10
2.483008
 20
15.14401
 30
0.0
 11
2.483008
 21
15.14401
 31
4.0
1001
AME_SOL
1070
     1
1071
       26
  0
ARC
  8
0
 62
     7
  5
1D2
 10
3.0
 20
10.0
 30
0.0
 40
1.0
 50
121.130727
 51
238.869273
1001
AME_SOL
1070
     1
1071
       25
  0
ARC
  8
0
 62
     7
  5
1D3
 10
3.0
 20
10.0
 30
4.0
 40
1.0
 50
121.130727
 51
238.869273
1001
AME_SOL
1070
     1
1071
       24
  0
LINE
  8
0
 62
     7
  5
1D4
 10
2.483008
 20
10.85599
 30
0.0
 11
2.483008
 21
10.85599
 31
4.0
1001
AME_SOL
1070
     1
1071
       23
  0
LINE
  8
0
 62
     7
  5
1D5
 10
2.483008
 20
9.14401
 30
0.0
 11
2.483008
 21
9.14401
 31
4.0
1001
AME_SOL
1070
     1
1071
       22
  0
ARC
  8
0
 62
     7
  5
1D6
 10
11.0
 20
16.0
 30
0.0
 40
1.0
 50
301.130727
 51
58.869273
1001
AME_SOL
1070
     1
1071
       21
  0
ARC
  8
0
 62
     7
  5
1D7
 10
11.0
 20
16.0
 30
4.0
 40
1.0
 50
301.130727
 51
58.869273
1001
AME_SOL
1070
     1
1071
       20
  0
LINE
  8
0
 62
     7
  5
1D8
 10
11.516992
 20
16.85599
 30
0.0
 11
11.516992
 21
16.85599
 31
4.0
1001
AME_SOL
1070
     1
1071
       19
  0
LINE
  8
0
 62
     7
  5
1D9
 10
11.516992
 20
15.14401
 30
0.0
 11
11.516992
 21
15.14401
 31
4.0
1001
AME_SOL
1070
     1
1071
       18
  0
ARC
  8
0
 62
     7
  5
1DA
 10
11.0
 20
10.0
 30
0.0
 40
1.0
 50
301.130727
 51
58.869273
1001
AME_SOL
1070
     1
1071
       17
  0
ARC
  8
0
 62
     7
  5
1DB
 10
11.0
 20
10.0
 30
4.0
 40
1.0
 50
301.130727
 51
58.869273
1001
AME_SOL
1070
     1
1071
       16
  0
LINE
  8
0
 62
     7
  5
1DC
 10
11.516992
 20
10.85599
 30
0.0
 11
11.516992
 21
10.85599
 31
4.0
1001
AME_SOL
1070
     1
1071
       15
  0
LINE
  8
0
 62
     7
  5
1DD
 10
11.516992
 20
9.14401
 30
0.0
 11
11.516992
 21
9.14401
 31
4.0
1001
AME_SOL
1070
     1
1071
       14
  0
LINE
  8
0
 62
     7
  5
1DE
 10
7.0
 20
24.0
 30
0.0
 11
7.0
 21
24.0
 31
4.0
1001
AME_SOL
1070
     0
1071
        7
  0
LINE
  8
0
 62
     7
  5
1DF
 10
12.0
 20
19.0
 30
0.0
 11
12.0
 21
19.0
 31
4.0
1001
AME_SOL
1070
     0
1071
        7
  0
LINE
  8
0
 62
     7
  5
1E0
 10
2.0
 20
19.0
 30
0.0
 11
2.0
 21
19.0
 31
4.0
1001
AME_SOL
1070
     0
1071
        7
  0
LINE
  8
0
 62
     7
  5
1E1
 10
12.0
 20
13.0
 30
0.0
 11
12.0
 21
13.0
 31
4.0
1001
AME_SOL
1070
     0
1071
        6
  0
LINE
  8
0
 62
     7
  5
1E2
 10
2.0
 20
13.0
 30
0.0
 11
2.0
 21
13.0
 31
4.0
1001
AME_SOL
1070
     0
1071
        6
  0
LINE
  8
0
 62
     7
  5
1E3
 10
12.0
 20
7.0
 30
0.0
 11
12.0
 21
7.0
 31
4.0
1001
AME_SOL
1070
     0
1071
        5
  0
LINE
  8
0
 62
     7
  5
1E4
 10
7.0
 20
2.0
 30
0.0
 11
7.0
 21
2.0
 31
4.0
1001
AME_SOL
1070
     0
1071
        5
  0
LINE
  8
0
 62
     7
  5
1E5
 10
2.0
 20
7.0
 30
0.0
 11
2.0
 21
7.0
 31
4.0
1001
AME_SOL
1070
     0
1071
        5
  0
LINE
  8
0
 62
     7
  5
1E6
 10
2.0
 20
16.0
 30
0.0
 11
2.0
 21
16.0
 31
4.0
1001
AME_SOL
1070
     0
1071
        4
  0
LINE
  8
0
 62
     7
  5
1E7
 10
2.0
 20
10.0
 30
0.0
 11
2.0
 21
10.0
 31
4.0
1001
AME_SOL
1070
     0
1071
        3
  0
LINE
  8
0
 62
     7
  5
1E8
 10
12.0
 20
16.0
 30
0.0
 11
12.0
 21
16.0
 31
4.0
1001
AME_SOL
1070
     0
1071
        2
  0
LINE
  8
0
 62
     7
  5
1E9
 10
12.0
 20
10.0
 30
0.0
 11
12.0
 21
10.0
 31
4.0
1001
AME_SOL
1070
     0
1071
        1
  0
ENDBLK
  8
0
  5
1EA
  0
ENDSEC
  0
SECTION
  2
ENTITIES
  0
INSERT
  8
AME_FRZ
  5
121
  2
AME_NIL
 10
0.0
 20
0.0
 30
0.0
  0
INSERT
  8
AME_FRZ
  5
124
  2
AME_SOL
 10
0.0
 20
0.0
 30
0.0
1001
AME_SOL
1000
R2.1
1000
AME2
1000
sq cm
1070
     3
1070
     0
1070
     3
1000
wire
1040
45.0
1000
U
1040
1.0
1000
cm
1000
gm
1000
MILD_STEEL
1070
    25
1000
CSG
1070
     1
1070
     3
1070
     3
1070
     3
1070
     0
1000
cu cm
1070
     1
1070
     0
1005
121
  0
INSERT
  8
AME_FRZ
  5
133
  2
AME_NIL
 10
0.0
 20
0.0
 30
0.0
1001
AME_SOL
1002
{
1070
     1
1071
  2488400
1070
  1536
1070
     1
1010
14.0
1020
26.0
1030
4.0
1005
0
1005
0
1005
17F
1040
0.0
1040
1.0
1070
     0
1000
MILD_STEEL
1000
0
1010
0.0
1020
0.0
1030
0.0
1010
0.0
1020
0.0
1030
1.0
1040
0.0
1002
}
1001
AVE_INVOKE
1000
SOLAVEMESH
  0
INSERT
  8
AME_FRZ
  5
13F
  2
AME_NIL
 10
7.0
 20
7.0
 30
0.0
1001
AME_SOL
1002
{
1070
     1
1071
  2477760
1070
  1538
1070
     1
1010
5.0
1020
5.0
1030
4.0
1005
0
1005
0
1005
15B
1040
0.0
1040
1.0
1070
     0
1000
MILD_STEEL
1000
0
1010
7.0
1020
7.0
1030
0.0
1010
0.0
1020
0.0
1030
1.0
1040
0.0
1002
}
1001
AVE_INVOKE
1000
SOLAVEMESH
  0
INSERT
  8
AME_FRZ
  5
14B
  2
AME_NIL
 10
7.0
 20
13.0
 30
0.0
1001
AME_SOL
1002
{
1070
     1
1071
  2482776
1070
  1538
1070
     1
1010
5.0
1020
5.0
1030
4.0
1005
0
1005
0
1005
15A
1040
0.0
1040
1.0
1070
     0
1000
MILD_STEEL
1000
0
1010
7.0
1020
13.0
1030
0.0
1010
0.0
1020
0.0
1030
1.0
1040
0.0
1002
}
1001
AVE_INVOKE
1000
SOLAVEMESH
  0
INSERT
  8
AME_FRZ
  5
157
  2
AME_NIL
 10
7.0
 20
19.0
 30
0.0
1001
AME_SOL
1002
{
1070
     1
1071
  2493160
1070
  1538
1070
     1
1010
5.0
1020
5.0
1030
4.0
1005
0
1005
0
1005
15A
1040
0.0
1040
1.0
1070
     0
1000
MILD_STEEL
1000
0
1010
7.0
1020
19.0
1030
0.0
1010
0.0
1020
0.0
1030
1.0
1040
0.0
1002
}
1001
AVE_INVOKE
1000
SOLAVEMESH
  0
INSERT
  8
AME_FRZ
  5
15A
  2
AME_NIL
 10
0.0
 20
0.0
 30
0.0
1001
AME_SOL
1002
{
1070
     1
1071
  2504144
1070
   775
1070
     0
1070
     2
1005
157
1005
14B
1005
0
1005
0
1005
15B
1040
0.0
1040
1.0
1070
     0
1000
MILD_STEEL
1000
0
1010
0.0
1020
0.0
1030
0.0
1010
0.0
1020
0.0
1030
1.0
1040
0.0
1002
}
  0
INSERT
  8
AME_FRZ
  5
15B
  2
AME_NIL
 10
0.0
 20
0.0
 30
0.0
1001
AME_SOL
1002
{
1070
     1
1071
  2506624
1070
   775
1070
     0
1070
     2
1005
15A
1005
13F
1005
0
1005
0
1005
17F
1040
0.0
1040
1.0
1070
     0
1000
MILD_STEEL
1000
0
1010
0.0
1020
0.0
1030
0.0
1010
0.0
1020
0.0
1030
1.0
1040
0.0
1002
}
  0
INSERT
  8
AME_FRZ
  5
17F
  2
AME_NIL
 10
0.0
 20
0.0
 30
0.0
1001
AME_SOL
1002
{
1070
     1
1071
  2389160
1070
  1543
1070
     1
1070
     0
1005
133
1005
15B
1005
0
1005
0
1005
1EB
1040
0.0
1040
1.0
1070
     0
1000
MILD_STEEL
1000
0
1010
0.0
1020
0.0
1030
0.0
1010
0.0
1020
0.0
1030
1.0
1040
0.0
1002
}
1001
AVE_INVOKE
1000
SOLAVEMESH
  0
INSERT
  8
AME_FRZ
  5
18E
  2
AME_NIL
 10
3.0
 20
10.0
 30
0.0
1001
AME_SOL
1002
{
1070
     1
1071
  2499128
1070
  1538
1070
     1
1010
1.0
1020
1.0
1030
4.0
1005
0
1005
0
1005
1B5
1040
0.0
1040
1.0
1070
     0
1000
MILD_STEEL
1000
0
1010
3.0
1020
10.0
1030
0.0
1010
0.0
1020
0.0
1030
1.0
1040
0.0
1002
}
1001
AVE_INVOKE
1000
SOLAVEMESH
  0
INSERT
  8
AME_FRZ
  5
19A
  2
AME_NIL
 10
3.0
 20
16.0
 30
0.0
1001
AME_SOL
1002
{
1070
     1
1071
  2496352
1070
  1538
1070
     1
1010
1.0
1020
1.0
1030
4.0
1005
0
1005
0
1005
1B5
1040
0.0
1040
1.0
1070
     0
1000
MILD_STEEL
1000
0
1010
3.0
1020
16.0
1030
0.0
1010
0.0
1020
0.0
1030
1.0
1040
0.0
1002
}
1001
AVE_INVOKE
1000
SOLAVEMESH
  0
INSERT
  8
AME_FRZ
  5
1A6
  2
AME_NIL
 10
11.0
 20
10.0
 30
0.0
1001
AME_SOL
1002
{
1070
     1
1071
  2501384
1070
  1538
1070
     1
1010
1.0
1020
1.0
1030
4.0
1005
0
1005
0
1005
1B6
1040
0.0
1040
1.0
1070
     0
1000
MILD_STEEL
1000
0
1010
11.0
1020
10.0
1030
0.0
1010
0.0
1020
0.0
1030
1.0
1040
0.0
1002
}
1001
AVE_INVOKE
1000
SOLAVEMESH
  0
INSERT
  8
AME_FRZ
  5
1B2
  2
AME_NIL
 10
11.0
 20
16.0
 30
0.0
1001
AME_SOL
1002
{
1070
     1
1071
  2503144
1070
  1538
1070
     1
1010
1.0
1020
1.0
1030
4.0
1005
0
1005
0
1005
1B6
1040
0.0
1040
1.0
1070
     0
1000
MILD_STEEL
1000
0
1010
11.0
1020
16.0
1030
0.0
1010
0.0
1020
0.0
1030
1.0
1040
0.0
1002
}
1001
AVE_INVOKE
1000
SOLAVEMESH
  0
INSERT
  8
AME_FRZ
  5
1B5
  2
AME_NIL
 10
0.0
 20
0.0
 30
0.0
1001
AME_SOL
1002
{
1070
     1
1071
  2394624
1070
   775
1070
     0
1070
     2
1005
19A
1005
18E
1005
0
1005
0
1005
1B7
1040
0.0
1040
1.0
1070
     0
1000
MILD_STEEL
1000
0
1010
0.0
1020
0.0
1030
0.0
1010
0.0
1020
0.0
1030
1.0
1040
0.0
1002
}
  0
INSERT
  8
AME_FRZ
  5
1B6
  2
AME_NIL
 10
0.0
 20
0.0
 30
0.0
1001
AME_SOL
1002
{
1070
     1
1071
  2397048
1070
   775
1070
     0
1070
     2
1005
1B2
1005
1A6
1005
0
1005
0
1005
1B7
1040
0.0
1040
1.0
1070
     0
1000
MILD_STEEL
1000
0
1010
0.0
1020
0.0
1030
0.0
1010
0.0
1020
0.0
1030
1.0
1040
0.0
1002
}
  0
INSERT
  8
AME_FRZ
  5
1B7
  2
AME_NIL
 10
0.0
 20
0.0
 30
0.0
1001
AME_SOL
1002
{
1070
     1
1071
  2448056
1070
   775
1070
     0
1070
     2
1005
1B5
1005
1B6
1005
0
1005
0
1005
1EB
1040
0.0
1040
1.0
1070
     0
1000
MILD_STEEL
1000
0
1010
0.0
1020
0.0
1030
0.0
1010
0.0
1020
0.0
1030
1.0
1040
0.0
1002
}
  0
INSERT
  8
0
  5
1EB
  2
*U12
 10
0.0
 20
0.0
 30
0.0
1001
AME_SOL
1002
{
1070
     1
1071
  2450568
1070
  1543
1070
     1
1070
     0
1005
17F
1005
1B7
1005
0
1005
1EC
1005
0
1040
0.0
1040
1.0
1070
     0
1000
MILD_STEEL
1000
0
1002
}
1001
AVE_INVOKE
1000
SOLAVEMESH
  0
INSERT
  8
AME_FRZ
  5
1EC
  2
AME_NIL
 10
1.0
 20
1.0
 30
1.0
1001
AME_SOL
1004
C7CF01007501BA01B901B701B301AB019D0102008901D9006A009E018A01080070015F005401AA0011005400AC019F018B0171015501B200F80056017C003801D000440093008C01DB00720157013901B60078003A011E01380039001F013B008E000400A0018D0173010A0058012300260033002000B401
1004
AD01A1018E01740159013B012001D50011010701DE00A9001800E80030008300A0008F0109007501DF00C400A2019001030076019F00B0009101770182005A01E300700078015B015D007D005C013C01310087003D01F50021011B001F00AE01A30127009201280079010B004100FF00B801B501AF01A401
1004
010093017A015D013E012201520057002301B1008500E6002A007B015E012100C8005F013F010F0015004001BE007700A50194017C01600141017E00AE004201F2002401DD002500E0007500F000B001A601100095017D0161011400FB00C0007E0162014D003A00A8004000B601B101A70196017F016301
1004
43012501F70012015000BB0024001C00990080012C00EE009701810164014401320007007100650145016000E9004601F100D80082016601470166002601D3008B00480127018100DC0028017F00D6006701490129014500C6002A01F3004B004A012B015C0064002C016900ED00A8019801830168014B01
1004
2D01720013012E003C002E0114013E00420015014900B3004C012F0116016500670017016B00CB0030011801AF00900019010801BA000C0009010D00B80069014D0131011A010A01340047000B01C50048001B010C0161006D000D018F009A0098000500BF003F00B201A9019901840196008000E2009A01
1004
4F0085016A014E01EB0032011C010E0101010001170002011E0029000F01030153005500040158005900C100A4006B01FC004F0122008400AA019B0186016C015001620033012B00D400510134012F00F9003501D200EC006D0152013601E7004C002D00AB008701EA006E011D00EF009C01FE0088016F01
1004
5301FA0037011D01100105015A00680006017B00E1000E0019004E00FD0000007A28F45080AA942EE39CFA20600D1EA1CB0772F9D0645A960EE5F3A0C8B52C1DCBE741916A8C72F9D06A312D4649CC4508AD59B93BF952B8EA2D0EA94885E92F640ADE6F7192D25EC815BCDEE8C5960EE5F3A0C8B51DCBE7
1004
41A86963B97CE835066B37277F2A571D45A17A7EABBC33273E844A1BD3F7FD36FFFFFFFF4DBFFFC66BFD815FFB4FFA6DFE9B7FFFFFEF4FDFF4DBFFFFFFFD36FFFF19AFF6057FED3FE9B7FA6DFFFFFE9B5563D7B825FF4DBFFFFFFFD36FFDF1CE739D23AFF19AFFC08C02245018A124C3008914062848521F
1004
D58F487704BFE9B7FFFFFFFA6DFFFE697FB02BFF02300891406284930C02245018A1215FE07180448A0314249BFFF5163008914062848521FFFF51605A4AF8E7692BE39D0FFFFA8B563D01DC12FFA6DFFFFFFFE9B7FEF8E739CE91D7FBBCBFF02300891406284930C02245018A121487F563D14EE097FD36
1004
FFFFFFFF4DBFFFD8158BFD815FF81180448A0314249860112280C5090A43FAA52217A4BD902B79BDC64B497B2056F37BBCAB2C1DCBE741916A3B97CE8350D2D4649CC45085E2CDC9DFCA95C751685E9FAE2F18C9CFA160086F4FDFF4DBFFFFFFFD36FFFF19AFF20AFFDA7FD36FF4DBFFFFFF7A7EFFA6DFFF
1004
FFFFE9B7FFF8CD7F9057FED3FE9B7FA6DFFFFFE9B5563D7B825FF4DBFFFFFFFD36FFDF1CE739D23AFF2F17FE0460112280C50926180448A031424290FEAC7A43B825FF4DBFFFFFFFD36FFFF34BFC82BFF02300891406284930C02245018A1215FE07180448A0314249BFFF5163008914062848521FFFF516
1004
0493E39C93E39D0FFFFA8B563D01DC12FFA6DFFFFFFFE9B7FEF8E739CE91D7FB412FFC08C02245018A124C3008914062848521FD58F453B825FF4DBFFFFFFFD36FFFF605607C82BFF02300891406284930C02245018A121487F54A442F7F6308E25C2E9DB497B2056F37BA316583B97CE8322D4DC9DFCA95
1004
C75163B97CE835066B37277F2A571D45A17A7EB2EF14C9CFA16A06F4FDFF4DBFFFFFFFD36FFFF08BFD815FFB4FFA6DFE9B7FFFFFEF4FDFF4DBFFFFFFFD36FFFF08BFD815FFB4FFA6DFE9B7FFFFFA6D558F5EE097FD36FFFFFFFF4DBFF109CE739D915FE335FF81180448A0314249860112280C5090A43FAB
1004
1E90EE097FD36FFFFFFFF4DBFFFD45FEC0AFFC08C02245018A124C3008914062848521FD58F407704BFE9B7FFFFFFFA6DFF884E739CEC8AFF7797FE0460112280C50926180448A031424290FEAC7A29DC12FFA6DFFFFFFFE9B7FFFD62FF6057FE0460112280C50926180448A0314242BFC0E300891406284
1004
937FFEA2C60112280C5090A43FFFEA2C09BBF9CE6EFE73A1FFFF516A94885EFEC611C4B85D3B692F640ADE6F77956583B97CE8322D4DC9DFCA95C7516A324E622842F166E4EFE54AE3A8B42F4FD651F83273E8464537A7EFFA6DFFFFFFFE9B7FFF845FE415FFB4FFA6DFE9B7FFFFFEF4FDFF4DBFFFFFFFD3
1004
6FFFF08BFC82BFF69FF4DBFD36FFFFFF4DAAB1EBDC12FFA6DFFFFFFFE9B7FE2139CE73B22BFCBC5FF81180448A0314249860112280C5090A43FAB1E90EE097FD36FFFFFFFF4DBFFFD45FE415FF81180448A0314249860112280C5090A43FAB1E80EE097FD36FFFFFFFF4DBFF109CE739D915FED04BFF0230
1004
0891406284930C02245018A121487F563D14EE097FD36FFFFFFFF4DBFFFEB03E415FF81180448A0314249860112280C5090AFF038C02245018A124DFFFA8B180448A031424290FFFFA8B02919DC73A46771CE87FFFD45AA52217BFB184712E174EDBFB184712E174ED960EE5F3A0C8B51DCBE741A86963B9
1004
7CE8350D2CDC9DFCA95C751685E9FA56323539F42E85F7A7EFFA6DFFFFFFFE9B7FFFB057FB057FED3FEA85FEA85FFFFFFBD3F7FD36FFFFFFFF4DBFFFD82BFD82BFF69FF542FF542FFFFFF4DAAB1E8A7704BFE9B7FFFFFFFA6DFFFF59AFB057FE04D8112280C50926360448A0314242BFC0E6C08914062849
1004
37FFEA2CD8112280C5090A43FFFEA2C0A22549CE8895273A1FFFF516AC7A03B825FF4DBFFFFFFFD36FFD9F9CE739CBF2FFAFFC09B02245018A124C6C0891406284857F81CD8112280C50926FFFD459B02245018A121487FFFD4581444A939D112A4E743FFFEA2D58F487704BFE9B7FFFFFFFA6DFFFE697FB
1004
057FE04D8112280C50926360448A0314242BFC0E6C0891406284937FFEA2CD8112280C5090A43FFFEA2C0A22549CE8895273A1FFFF516AC7AF704BFE9B7FFFFFFFA6DFFB3F39CE7397E5FE697FE04D8112280C50926360448A031424290FEA948825FD8C238970BA76DA8B601944424C5FD6583B97CE8322
1004
D4772F9D06A1A5A8C93988A119059B93BF952B8EA2D0BD3F5A5623539F42EC8B4F7A7EFFA6DFFFFFFFE9B7FFFB057FA2AFFDA7FD50BFD50BFFFFFF7A7EFFA6DFFFFFFFE9B7FFFB057FA2AFFDA7FD50BFD50BFFFFFD36AAC7A29DC12FFA6DFFFFFFFE9B7FFFD68EFD157FE04D8112280C50926360448A0314
1004
242BFC0E6C0891406284937FFEA2CD8112280C5090A43FFFEA2C0B2AFC1CECABF073A1FFFF516AC7A03B825FF4DBFFFFFFFD36FFD9F9CE739CBF2FF1D7FE04D8112280C50926360448A031424290FEAC7A43B825FF4DBFFFFFFFD36FFFF34BFD157FE04D8112280C50926360448A0314242BFC0E6C089140
1004
6284937FFEA2CD8112280C5090A43FFFEA2C0B2AFC1CECABF073A1FFFF516AC7AF704BFE9B7FFFFFFFA6DFFB3F39CE7397E5FEC82FFC09B02245018A124C6C08914062848521FD52910BDFD8C238970BA76D25EC815BCDEEF096583B97CE8322D4772F9D06A1A5A8C93988A105A2CDC9DFCA95C751685E9F
1004
A233206A73E85F9269EF4FDFF4DBFFFFFFFD36FFFF60AFF1ABFF69FF542FF542FFFFFFDE9FBFE9B7FFFFFFFA6DFFFEC15FE357FED3FEA85FEA85FFFFFE9B5563D14EE097FD36FFFFFFFF4DBFFFEB18F8D5FF81360448A03142498D8112280C5090AFF039B02245018A124DFFFA8B360448A031424290FFFF
1004
A8B0288DF839D11BF073A1FFFF516AC7A03B825FF4DBFFFFFFFD36FFD9F9CE739CBF2FF625FF81360448A03142498D8112280C5090A43FAB1E90EE097FD36FFFFFFFF4DBFFFCD2FF1ABFF026C0891406284931B02245018A1215FE07360448A0314249BFFF5166C08914062848521FFFF5160511BF073A23
1004
7E0E743FFFEA2D58F5EE097FD36FFFFFFFF4DBFF67E739CE72FCBFC5A2FFC09B02245018A124C6C0891406284857F81CD8112280C50926FFFD459B02245018A121487FFFD4581446FC1CE88DF839D0FFFFA8B54A44D1D960EE5F3A0C8B52C1DCBE741916A583B97CE8322D518E5F3A0D4625A8C93988A115
1004
AB2C1DCBE741916D0BBEFD46A24CA1D0B969EEFBF7FFFD36FFFF4DBFFFFFFFFFF69FFFFFFFFFFDDF7EFFFFA6DFFFE9B7FFFFFFFFFED3FFFFFFFFFE9B6A94885E583B97CE8322D4B0772F9D0645A960EE5F3A0C8B546397CE8351896583B97CE8322D9B93BF952B8EA2D0BBEFD49790650E85F9369EEFBF7F
1004
D36FFFFFFFFFF4DBFFFFFF69FFFFFFFFFFDDF7EFFA6DFFFFFFFFFE9B7FFFFFED3FFFFFFFFFE9B6A94885E583B97CE8322D4B0772F9D0645A960EE5F3A0C8B52C1DCBE741916D4649CC4508AD59B93BF952B8EA2D0BBEFD10902650E8525A7BBEFDFFFFFF4DBFFFD36FFFFFFFFDA7FFFFFFFFFF77DFBFFFFF
1004
E9B7FFFA6DFFFFFFFFB4FFFFFFFFFFA6DAA52268ECB0772F9D0645A960EE5F3A0C8B54811F17554851E47168C72F9D06A312D4649CC4508AD59B93BF952B8EA2D0BBEFD51E8CA1D09334F77DFBFE9B5FEE3FDC7FB8FE9B5FEE3FB12FF56AFF516D3FFFFFFFFFFBBEFDFF4DAFF71FEE3FDC7F4DAFF71FD897
1004
FAB57FA8B69FFFFFFFFFF4DB54A442F2C1DCBE741916A98B7B2E401800B55960EE5F3A0C8B546397CE8351896A324E6228456ACDC9DFCA95C751685DF7E9A760CA1D09011A7BBEFDFFB8FF71FD36BFA6D7FB8FF71FD897FAB57FA8B69FFFFFFFFFFDDF7EFFDC7FB8FE9B5FD36BFDC7FB8FEC4BFD5ABFD45B
1004
4FFFFFFFFFFA6DAA52217A4BD902B79BDDE12CB0772F9D0645A960EE5F3A0C8B546397CE8351896A324E6228456ACDC9DFCA95C751685DF7EADE39943A148CD3DDF7EFFDC7F4DAFF71FEE3FDC7F4DAFEC4BFD5ABFD45B4FFFFFFFFFFEEFBF7FEE3FA6D7FB8FF71FEE3FA6D7F625FEAD5FEA2DA7FFFFFFFFF
1004
D36DDAC692F640ADE6F7192D25EC815BCDEE8C5960EE5F3A0C8B51DCBE741A86963B97CE835066B37277F2A571D45FFFEA2C0B82508CFCCE84E75778664AC646B812B191AABBC332739CE739CEE097FD36FFFFFFFF4DBFF68D68968A6836870862DB68B2DB46301B433BCBFF03FFFA8B76B1A4BD902B79BD
1004
C64B497B2056F37BA316583B97CE8322D4772F9D06A1A58EE5F3A0D419ACDC9DFCA95C7517FFFA8B02E09442CFCCE73A15778665A56235C0ABBC332D2B11A9CE739CE73B825FF4DBFFFFFFFD36FFDA35A25A29A0DA1C218B766D2069330108E2C2475FF81FFFD45BB58D25EC815BCDEE325A4BD902B79BDD
1004
18B4811F17554851E47163B97CE8350D2C772F9D06A0CD66E4EFE54AE3A8B20A3A170B088B69B5766FCC2E161116D36C0BB92DF99AE84E7577866547A338151E8CABBC3328739CE77725FF4DBFFFFFFFD36FFFF19AFF6057FA8B17FE9B7FA6D9051D0B858445B4DABB37E6170B088B69B6ED63497B2056F3
1004
7B8C9692F640ADE6F7462CB0772F9D0645A8EE5F3A0D434B1DCBE741A8335960EE5F3A0C8B6414742E161116D36AECDF985C2C222DA6D817725119E499CE742AEF0CCA35126702AEF0CCA351264E739D0EEE4BFE9B7FFFFFFFA6DFFFE335FEC0AFFC5FFA6DFE9B6414742E161116D36AECDF985C2C222DA6
1004
DBB58D25EC815BCDEE325A4BD902B79BDDE55960EE5F3A0C8B51DCBE741A8696A324E622842F166E4EFE54AE3A8BFFFD4581704ACBA6674273B8BC632D2B11AE05A562357178C64E739CE739DC12FFA6DFFFFFFFE9B7FED1AD12D14D06D0E10C5ADA2CB6D18C06D0CD04BFF03FFFA8B76B1A4BD902B79BDC
1004
64B497B2056F37BBCAB2C1DCBE741916A3B97CE8350D2D4649CC45085E2CDC9DFCA95C7517FFFA8B02E095C5F90339CE85C5E3191199035C0B8BC632233206A739CE739CEE097FD36FFFFFFFF4DBFF68D68968A6836870862D94693B484D3BC2882BFF03FFFA8B76B1A4BD902B79BDC64B497B2056F37BBC
1004
AB4811F17554851E47163B97CE8350D2D4649CC45085E2CDC9DFCA95C7516414742E161116D36AECDF985C2C222DA6D8177255158674273B8BC632A3D19C0A8F465C5E319439CE73BB92FFA6DFFFFFFFE9B7FFF8CD7F9057FA8B17FE9B7FA6D9051D0B858445B4DABB37E6170B088B69B6ED63497B2056F3
1004
7B8C9692F640ADE6F77956583B97CE8322D4772F9D06A1A5A8C93988A10BC5960EE5F3A0C8B6414742E161116D36AECDF985C2C222DA6D81772510BA339CE85C5E31946A24CE05C5E31946A24C9CE73A1DDC97FD36FFFFFFFF4DBFFFC66BFC82BFF17FE9B7FA6D9051D0B858445B4DABB37E6170B088B69B
1004
6ED637F6308E25C2E9DB497B2056F37BA316583B97CE8322D4DC9DFCA95C75163B97CE835066B37277F2A571D45FFFEA2C0B82510B0119CE742CBBC532563235C0B2EF14C958C8D4E739CE739DC12FFA6DFFFFFFFE9B7FED1C781103F28D48C516D2268B2DB46301B433BCBFF03FFFA8B76B1BFB184712E1
1004
74EDA4BD902B79BDD18B2C1DCBE741916A6E4EFE54AE3A8B1DCBE741A83359B93BF952B8EA2FFFF51605C129A440674273B2EF14CB4AC46B8169588D59778A64E739CE739DC12FFA6DFFFFFFFE9B7FEAAD24440FCA3523145AAB481A4CC04238B091D7FE07FFF516ED637F6308E25C2E9DB497B2056F37BA
1004
3169023E2EAA90A3C8E2CDC9DFCA95C75163B97CE835066B37277F2A571D459A794470D528C24AA20788CC06FEF032CD40BB92ABBB28674273B2EF14CA8F46702A3D1965DE299439CE73BB92ECC8591619C8D66692D9A792CE8233867AEC35FF34F259D04670CF5D86D990B22C3391ACCD25BFEE3F845FEC
1004
0AFF5162FFD36FF4DB34F288E1AA518495440F11980DFDE0659ABB58DFD8C238970BA76D25EC815BCDEE8C5960EE5F3A0C8B537277F2A571D458EE5F3A0D419ACB0772F9D0645B34F288E1AA518495440F11980DFDE0659A81772510866739D0B2EF14CA35126702CBBC5328D449939CE743BB92ECC85916
1004
19C8D66692D9A792CE8233867AEC35FF34F259D04670CF5D86D990B22C3391ACCD25BFEE3F845FEC0AFFC5FFA6DFE9B669E511C354A3092A881E23301BFBC0CB3576B1BFB184712E174EDA4BD902B79BDDE55960EE5F3A0C8B537277F2A571D45A8C93988A10BC59B93BF952B8EA2FFFF51605C12885D953
1004
39CE85947E0CB4AC46B81651F832D2B11A9CE739CE73B825FF4DBFFFFFFFD36FFDA38F02207E51A918A2DA44D165B68C6036866825FF81FFFD45BB58DFD8C238970BA76D25EC815BCDEEF2ACB0772F9D0645A9B93BF952B8EA2D4649CC45085E2CDC9DFCA95C7517FFFA8B02E094D22133A139D947E0C88C
1004
C81AE0446640D5947E0C9CE739CE73B825FF4DBFFFFFFFD36FFD55A48881F946A4628B651A4ED2134EF0A20AFFC0FFFEA2DDAC6FEC611C4B85D3B692F640ADE6F779569023E2EAA90A3C8E2CDC9DFCA95C7516A324E622842F166E4EFE54AE3A8B34F288E1AA518495440F11980DFDE0659A817725577658
1004
CE84E7651F832A3D19C0A8F465947E0CA1CE739DDC976642C8B0CE46B33496CD3C9674119C33D761AFF9A792CE8233867AEC36CC8591619C8D66692DFF71FC22FF20AFF5162FFD36FF4DB34F288E1AA518495440F11980DFDE0659ABB58DFD8C238970BA76D25EC815BCDEEF2ACB0772F9D0645A9B93BF95
1004
2B8EA2D4649CC45085E2CB0772F9D0645B34F288E1AA518495440F11980DFDE0659A81772510BB2E6739D0B28FC1946A24CE05947E0CA351264E739D0EEE4BB32164586723599A4B669E4B3A08CE19EBB0D7FCD3C9674119C33D761B6642C8B0CE46B33496FFB8FE117F9057FE2FFD36FF4DB34F288E1AA5
1004
18495440F11980DFDE0659ABB58DF3184712E174EDBE6308E25C2E9DB4811F17554851E47163B97CE8350D2C772F9D06A1A59B93BF952B8EA2D9B17C5A621017AC8AAB420D66037F781966C0BB929A24674273958C8D547A338151E8C958C8D50E739CEEE4BB406161616161655B67C3468D1A34B4D7FD9F
1004
0D1A3468D2D36D018585858585956FFFF60AFF60AFF5162FFD50BFD50B66C5F16988405EB22AAD0835980DFDE0659B76B1BE6308E25C2E9DB7CC611C4B85D3B6423B97CE8322D4772F9D06A1A58EE5F3A0D434B211DCBE741916D9B17C5A621017AC8AAB420D66037F781966C0BB92847648CE73A12B191A
1004
A3512670256323546A24C9CE73A1DDC97680C2C2C2C2C2CAB6CF868D1A346969AFFB3E1A3468D1A5A6DA030B0B0B0B0B2ADFFFEC15FEC15FF8BFF542FF542D9B17C5A621017AC8AAB420D66037F781966DDAC6F98C238970BA76DA8B601944424C5FD69023E2EAA90A3C8E2C772F9D06A1A5A8C93988A119
1004
059B93BF952B8EA2D2B346766CCDD9E3356A959A33B3666ECF19AB605DC945A17F33A139DA5623551E8CE0547A32D2B11AA1CE739DDC97FD36FFFFFFFF4DBFFFD82BFD157FA8B17FEA85FEA85A5668CECD99BB3C66AD52B346766CCDD9E3356DDAC6F98C238970BA76DA8B601944424C5FD69023E2EAA90A
1004
3C8E2C772F9D06A1A5A8C93988A119059B93BF952B8EA2D9B17C5A621017AC8AABBC8E85C2C222DD540BB928B2399D09CED2B11AA8F46702A3D1969588D50E739CEEE4BB406161616161655B67C3468D1A34B4D7FD9F0D1A3468D2D36D018585858585956FFFF60AFF455FEA2C5FFAA17FAA16CD8BE2D310
1004
80BD64555DE4742E161116EAAED637CC611C4B85D3B6D45B00CA221262FEB211DCBE741916A3B97CE8350D2D4649CC4508C82C84772F9D0645B4ACD19D9B337678CD5AA5668CECD99BB3C66AD81772546A30CE73A169588D51A89338169588D51A8932739CE877725FF4DBFFFFFFFD36FFFF60AFF455FF8B
1004
FF542FF542D2B346766CCDD9E3356A959A33B3666ECF19AB6ED637CC611C4B85D3B6D45B00CA221262FEB211DCBE741916A3B97CE8350D2D4649CC4508C82C84772F9D0645B66C5F16988405EB22AAEF23A170B088B75502EE4A40632339CE85A5623546A24CE05A5623546A24C9CE73A1DDC97680C2C2C2
1004
C2C2CAB6CF868D1A346969AFFB3E1A3468D1A5A6DA030B0B0B0B0B2ADFFFEC15FE8ABFF17FEA85FEA85B362F8B4C4202F591557791D0B858445BAABB58DF3184712E174EDA4BD902B79BDDE12D2047C5D55214791C58EE5F3A0D434B51927311420B459B93BF952B8EA2CB0BE2D31080BD64555A146B301B
1004
FBC0CB3605DC95F91604CE84E7119903551E8CE0547A32233206A8739CE77725D2B0B0B0B0B0B2AD5A2068D1A346969BFF6881A3468D1A5A6A958585858585956BFFFB057F8D5FEA2C5FFAA17FAA16585F16988405EB22AAD0A35980DFDE0659B76B1BE6308E25C2E9DB497B2056F37BBC25908EE5F3A0C8
1004
B51DCBE741A8696A324E62284168B211DCBE741916CB0BE2D31080BD64555A146B301BFBC0CB3605DC95A3E91CCE73A1119903546A24CE0446640D51A8932739CE877725D2B0B0B0B0B0B2AD5A2068D1A346969BFF6881A3468D1A5A6A958585858585956BFFFB057F8D5FF8BFF542FF542CB0BE2D31080B
1004
D64555A146B301BFBC0CB36ED63211DCBE741916A98B7B2E401800B55908EE5F3A0C8B5779CBE741A8C4B51927311422B56423B97CE8322DFEC155FD82B02E095A3E33339CE851A893269D8338146A24C9A760CA1D0EE097FFFD36FFFFFFFF4DAFEC15FEAD5FF81FD82ABFB056ED63497B2056F37BBC2590
1004
8EE5F3A0C8B5211DCBE741916AEF397CE8351896A324E6228456AC84772F9D0645BFD1557F45581704A40986739D0A3512656F1CCE051A8932B78E650E87704BFE9B7FFFFFFFFFA6D7F625FE8ABFF03FA2AAFE8AB76B1908EE5F3A0C8B5211DCBE741916A423B97CE8322D484772F9D0645B51927311422B
1004
56423B97CE8322DFEAD55FEE205C12901BB266739D0A351264424099C0A35126442409943A1DC12FFA6D7FFFFFFFFF4DAFFFFFF81FD5AABFDC5DAC6423B97CE8322D484772F9D0645A908EE5F3A0C8B5779CBE741A8C4B211DCBE741916C84772F9D0645BFFFD89605C12B48D14CE73A146A24CA4BC83381
1004
46A24CA4BC8328743B825FFFF4DAFFFFFFFE9B5FFFFFF03FFFB12DDAC6423B97CE8322D484772F9D0645AA408F8BAAA428F238B779CBE741A8C4B211DCBE741916CDC9DFCA95C7517FB0557F60AC0B825165E119CE74292F20CA8F4670292F20CA8F4650E87704BFFFFFE9B7FFFA6D7FFF60AFFFF51607F6
1004
0AAFEC15BB58D25EC815BCDEEF096423B97CE8322D484772F9D0645ABBCE5F3A0D4625908EE5F3A0C8B66E4EFE54AE3A8BFEABFD605C12ABB119CE74292F20CADE399C0A4BC832B78E650E87704BFE9B7FFFFFFFA6D7FFF625FFFF581FEABFD6ED63211DCBE741916A423B97CE8322D484772F9D0645A908
1004
EE5F3A0C8B6423B97CE8322D9B93BF952B8EA2FFFF51605C12B2EF299CE74292F20C884813381497906442409943A1DC12FFA6D7FFFFFFF4DAFFFFFFFF81FFFD45BB58C84772F9D0645A908EE5F3A0C8B54811F17554851E4716423B97CE8322DA8C93988A115AB37277F2A571D45FE8AABFA2AC0B82508F
1004
10CE73A1109026547A3381109026547A328743B825FFFFFF4DBFD36BFFFFFFFA2AFF51607F4555FD156ED63211DCBE741916A98B7B2E401800B55908EE5F3A0C8B5211DCBE741916D4649CC4508AD59B93BF952B8EA2FFAAFF581704A2118339CE8442409934EC19C0884813269D8328743B825FFFF4DBFF
1004
FD36BFFFFFFFAB57FD607FAAFF5BB58C84772F9D0645AA62DECB9006002D569023E2EAA90A3C8E2DDE72F9D06A312D4649CC4508AD59B93BF952B8EA2FF6255FEE205C129026C6739D0A8F464D3B06702A3D1934EC1943A1DC12FFFFA6DFFFFFFFE9B7FB12FF56AFF51607F6255FEE2ED63497B2056F37BB
1004
C25908EE5F3A0C8B54811F17554851E4716EF397CE8351896A324E6228456ACDC9DFCA95C7517FFFAB5605C12901B478CE73A151E8CADE399C0A8F4656F1CCA1D0EE097FD36FFFFFFFFFF4DBFD897FAB57FA8B03FFFAB56ED63497B2056F37BBC25A62DECB9006002D56423B97CE8322D5DE72F9D06A312D
1004
4649CC4508AD59B93BF952B8EA2FF5157FB881704AD237E5339CE84D3B0656F1CCE04D3B0656F1CCA1D0EE097FD36FFFFFFFF4DBFFFD897FAB57FA8B03FA8ABFDC5F9BB9D908
1005
1ED
  0
INSERT
  8
AME_FRZ
  5
1ED
  2
AME_NIL
 10
1.0
 20
1.0
 30
1.0
1001
AME_SOL
1004

1005
0
  0
ENDSEC
  0
EOF
