  0
SECTION
  2
HEADER
  9
$ACADVER
  1
AC1009
  9
$INSBASE
 10
0.0
 20
0.0
 30
0.0
  9
$EXTMIN
 10
0.0
 20
0.0
 30
0.0
  9
$EXTMAX
 10
3.0
 20
3.0
 30
4.0
  9
$LIMMIN
 10
0.0
 20
0.0
  9
$LIMMAX
 10
12.0
 20
9.0
  9
$ORTHOMODE
 70
     0
  9
$REGENMODE
 70
     1
  9
$FILLMODE
 70
     1
  9
$QTEXTMODE
 70
     0
  9
$MIRRTEXT
 70
     1
  9
$DRAGMODE
 70
     2
  9
$LTSCALE
 40
1.0
  9
$OSMODE
 70
     0
  9
$ATTMODE
 70
     1
  9
$TEXTSIZE
 40
0.2
  9
$TRACEWID
 40
0.05
  9
$TEXTSTYLE
  7
STANDARD
  9
$CLAYER
  8
0
  9
$CELTYPE
  6
BYLAYER
  9
$CECOLOR
 62
   256
  9
$DIMSCALE
 40
1.0
  9
$DIMASZ
 40
0.18
  9
$DIMEXO
 40
0.0625
  9
$DIMDLI
 40
0.38
  9
$DIMRND
 40
0.0
  9
$DIMDLE
 40
0.0
  9
$DIMEXE
 40
0.18
  9
$DIMTP
 40
0.0
  9
$DIMTM
 40
0.0
  9
$DIMTXT
 40
0.18
  9
$DIMCEN
 40
0.09
  9
$DIMTSZ
 40
0.0
  9
$DIMTOL
 70
     0
  9
$DIMLIM
 70
     0
  9
$DIMTIH
 70
     1
  9
$DIMTOH
 70
     1
  9
$DIMSE1
 70
     0
  9
$DIMSE2
 70
     0
  9
$DIMTAD
 70
     0
  9
$DIMZIN
 70
     0
  9
$DIMBLK
  1

  9
$DIMASO
 70
     1
  9
$DIMSHO
 70
     1
  9
$DIMPOST
  1

  9
$DIMAPOST
  1

  9
$DIMALT
 70
     0
  9
$DIMALTD
 70
     2
  9
$DIMALTF
 40
25.4
  9
$DIMLFAC
 40
1.0
  9
$DIMTOFL
 70
     0
  9
$DIMTVP
 40
0.0
  9
$DIMTIX
 70
     0
  9
$DIMSOXD
 70
     0
  9
$DIMSAH
 70
     0
  9
$DIMBLK1
  1

  9
$DIMBLK2
  1

  9
$DIMSTYLE
  2
*UNNAMED
  9
$DIMCLRD
 70
     0
  9
$DIMCLRE
 70
     0
  9
$DIMCLRT
 70
     0
  9
$DIMTFAC
 40
1.0
  9
$DIMGAP
 40
0.09
  9
$LUNITS
 70
     2
  9
$LUPREC
 70
     4
  9
$SKETCHINC
 40
0.1
  9
$FILLETRAD
 40
0.0
  9
$AUNITS
 70
     0
  9
$AUPREC
 70
     0
  9
$MENU
  1
acad
  9
$ELEVATION
 40
0.0
  9
$PELEVATION
 40
0.0
  9
$THICKNESS
 40
0.0
  9
$LIMCHECK
 70
     0
  9
$BLIPMODE
 70
     1
  9
$CHAMFERA
 40
0.0
  9
$CHAMFERB
 40
0.0
  9
$SKPOLY
 70
     0
  9
$TDCREATE
 40
2449373.534554768
  9
$TDUPDATE
 40
2449373.543702280
  9
$TDINDWG
 40
0.0091475116
  9
$TDUSRTIMER
 40
0.0091475116
  9
$USRTIMER
 70
     1
  9
$ANGBASE
 50
0.0
  9
$ANGDIR
 70
     0
  9
$PDMODE
 70
     0
  9
$PDSIZE
 40
0.0
  9
$PLINEWID
 40
0.0
  9
$COORDS
 70
     1
  9
$SPLFRAME
 70
     0
  9
$SPLINETYPE
 70
     6
  9
$SPLINESEGS
 70
     8
  9
$ATTDIA
 70
     0
  9
$ATTREQ
 70
     1
  9
$HANDLING
 70
     1
  9
$HANDSEED
  5
14F
  9
$SURFTAB1
 70
     6
  9
$SURFTAB2
 70
     6
  9
$SURFTYPE
 70
     6
  9
$SURFU
 70
     6
  9
$SURFV
 70
     6
  9
$UCSNAME
  2

  9
$UCSORG
 10
0.0
 20
0.0
 30
0.0
  9
$UCSXDIR
 10
1.0
 20
0.0
 30
0.0
  9
$UCSYDIR
 10
0.0
 20
1.0
 30
0.0
  9
$PUCSNAME
  2

  9
$PUCSORG
 10
0.0
 20
0.0
 30
0.0
  9
$PUCSXDIR
 10
1.0
 20
0.0
 30
0.0
  9
$PUCSYDIR
 10
0.0
 20
1.0
 30
0.0
  9
$USERI1
 70
     0
  9
$USERI2
 70
     0
  9
$USERI3
 70
     0
  9
$USERI4
 70
     0
  9
$USERI5
 70
     0
  9
$USERR1
 40
0.0
  9
$USERR2
 40
0.0
  9
$USERR3
 40
0.0
  9
$USERR4
 40
0.0
  9
$USERR5
 40
0.0
  9
$WORLDVIEW
 70
     1
  9
$SHADEDGE
 70
     3
  9
$SHADEDIF
 70
    70
  9
$TILEMODE
 70
     1
  9
$MAXACTVP
 70
    16
  9
$PINSBASE
 10
0.0
 20
0.0
 30
0.0
  9
$PLIMCHECK
 70
     0
  9
$PEXTMIN
 10
1.000000E+20
 20
1.000000E+20
 30
1.000000E+20
  9
$PEXTMAX
 10
-1.000000E+20
 20
-1.000000E+20
 30
-1.000000E+20
  9
$PLIMMIN
 10
0.0
 20
0.0
  9
$PLIMMAX
 10
12.0
 20
9.0
  9
$UNITMODE
 70
     0
  9
$VISRETAIN
 70
     0
  9
$PLINEGEN
 70
     0
  9
$PSLTSCALE
 70
     1
  9
$TREEDEPTH
 70
  3020
  9
$DWGCODEPAGE
  3
ascii
  0
ENDSEC
  0
SECTION
  2
TABLES
  0
TABLE
  2
VPORT
 70
     2
  0
VPORT
  2
*ACTIVE
 70
     0
 10
0.0
 20
0.0
 11
1.0
 21
1.0
 12
7.896686
 22
4.951264
 13
0.0
 23
0.0
 14
1.0
 24
1.0
 15
0.0
 25
0.0
 16
0.0
 26
0.0
 36
1.0
 17
0.0
 27
0.0
 37
0.0
 40
9.902529
 41
1.594883
 42
50.0
 43
0.0
 44
0.0
 50
0.0
 51
0.0
 71
     0
 72
   100
 73
     1
 74
     1
 75
     0
 76
     0
 77
     0
 78
     0
  0
ENDTAB
  0
TABLE
  2
LTYPE
 70
     1
  0
LTYPE
  2
CONTINUOUS
 70
    64
  3
Solid line
 72
    65
 73
     0
 40
0.0
  0
ENDTAB
  0
TABLE
  2
LAYER
 70
     2
  0
LAYER
  2
0
 70
    64
 62
     7
  6
CONTINUOUS
  0
LAYER
  2
AME_FRZ
 70
    65
 62
     7
  6
CONTINUOUS
  0
ENDTAB
  0
TABLE
  2
STYLE
 70
     1
  0
STYLE
  2
STANDARD
 70
     0
 40
0.0
 41
1.0
 50
0.0
 71
     0
 42
0.2
  3
txt
  4

  0
ENDTAB
  0
TABLE
  2
VIEW
 70
     0
  0
ENDTAB
  0
TABLE
  2
UCS
 70
     0
  0
ENDTAB
  0
TABLE
  2
APPID
 70
     3
  0
APPID
  2
ACAD
 70
    64
  0
APPID
  2
AME_SOL
 70
    64
  0
APPID
  2
AVE_INVOKE
 70
    64
  0
ENDTAB
  0
TABLE
  2
DIMSTYLE
 70
     0
  0
ENDTAB
  0
ENDSEC
  0
SECTION
  2
BLOCKS
  0
BLOCK
  8
0
  5
10F
  2
AME_NIL
 70
    64
 10
0.0
 20
0.0
 30
0.0
  1
AME_NIL
  3
AME_NIL
  0
ENDBLK
  8
0
  5
110
  0
BLOCK
  8
0
  5
112
  2
AME_SOL
 70
    64
 10
0.0
 20
0.0
 30
0.0
  1
AME_SOL
  3
AME_SOL
  0
ENDBLK
  8
0
  5
113
  0
BLOCK
  8
0
  5
133
  2
*U4
 70
    65
 10
0.0
 20
0.0
 30
0.0
  1
*U
  3
*U
  0
LINE
  8
0
 62
     7
  5
134
 10
2.0
 20
2.0
 30
0.0
 11
2.0
 21
2.0
 31
2.0
1001
AME_SOL
1070
     1
1071
       26
  0
LINE
  8
0
 62
     7
  5
135
 10
2.0
 20
1.0
 30
4.0
 11
2.0
 21
0.0
 31
4.0
1001
AME_SOL
1070
     1
1071
       25
  0
LINE
  8
0
 62
     7
  5
136
 10
0.0
 20
2.0
 30
4.0
 11
1.0
 21
2.0
 31
4.0
1001
AME_SOL
1070
     1
1071
       24
  0
LINE
  8
0
 62
     7
  5
137
 10
0.0
 20
2.0
 30
0.0
 11
0.0
 21
2.0
 31
4.0
1001
AME_SOL
1070
     1
1071
       23
  0
LINE
  8
0
 62
     7
  5
138
 10
0.0
 20
2.0
 30
4.0
 11
0.0
 21
0.0
 31
4.0
1001
AME_SOL
1070
     1
1071
       22
  0
LINE
  8
0
 62
     7
  5
139
 10
0.0
 20
0.0
 30
0.0
 11
0.0
 21
0.0
 31
4.0
1001
AME_SOL
1070
     1
1071
       21
  0
LINE
  8
0
 62
     7
  5
13A
 10
2.0
 20
0.0
 30
4.0
 11
2.0
 21
0.0
 31
0.0
1001
AME_SOL
1070
     1
1071
       20
  0
LINE
  8
0
 62
     7
  5
13B
 10
0.0
 20
0.0
 30
4.0
 11
2.0
 21
0.0
 31
4.0
1001
AME_SOL
1070
     1
1071
       19
  0
LINE
  8
0
 62
     7
  5
13C
 10
0.0
 20
0.0
 30
0.0
 11
2.0
 21
0.0
 31
0.0
1001
AME_SOL
1070
     1
1071
       18
  0
LINE
  8
0
 62
     7
  5
13D
 10
0.0
 20
2.0
 30
0.0
 11
0.0
 21
0.0
 31
0.0
1001
AME_SOL
1070
     1
1071
       17
  0
LINE
  8
0
 62
     7
  5
13E
 10
2.0
 20
0.0
 30
0.0
 11
2.0
 21
2.0
 31
0.0
1001
AME_SOL
1070
     1
1071
       16
  0
LINE
  8
0
 62
     7
  5
13F
 10
2.0
 20
2.0
 30
0.0
 11
0.0
 21
2.0
 31
0.0
1001
AME_SOL
1070
     1
1071
       15
  0
LINE
  8
0
 62
     7
  5
140
 10
2.0
 20
1.0
 30
2.0
 11
2.0
 21
2.0
 31
2.0
1001
AME_SOL
1070
     1
1071
       14
  0
LINE
  8
0
 62
     7
  5
141
 10
2.0
 20
2.0
 30
2.0
 11
1.0
 21
2.0
 31
2.0
1001
AME_SOL
1070
     1
1071
       13
  0
LINE
  8
0
 62
     7
  5
142
 10
2.0
 20
1.0
 30
2.0
 11
2.0
 21
1.0
 31
4.0
1001
AME_SOL
1070
     1
1071
       12
  0
LINE
  8
0
 62
     7
  5
143
 10
1.0
 20
2.0
 30
2.0
 11
1.0
 21
2.0
 31
4.0
1001
AME_SOL
1070
     1
1071
       11
  0
ARC
  8
0
 62
     7
  5
144
 10
2.0
 20
2.0
 30
4.0
 40
1.0
 50
180.0
 51
270.0
1001
AME_SOL
1070
     1
1071
       10
  0
ARC
  8
0
 62
     7
  5
145
 10
2.0
 20
2.0
 30
2.0
 40
1.0
 50
180.0
 51
270.0
1001
AME_SOL
1070
     1
1071
        9
  0
LINE
  8
0
 62
     7
  5
146
 10
2.0
 20
1.0
 30
2.0
 11
2.0
 21
1.0
 31
4.0
1001
AME_SOL
1070
     0
1071
        1
  0
LINE
  8
0
 62
     7
  5
147
 10
1.0
 20
2.0
 30
2.0
 11
1.0
 21
2.0
 31
4.0
1001
AME_SOL
1070
     0
1071
        1
  0
ENDBLK
  8
0
  5
148
  0
BLOCK
  8
0
  5
14C
  2
AME_JNK
 70
     0
 10
0.0
 20
0.0
 30
0.0
  1
AME_JNK
  3
AME_JNK
  0
ENDBLK
  8
0
  5
14D
  0
ENDSEC
  0
SECTION
  2
ENTITIES
  0
INSERT
  8
AME_FRZ
  5
111
  2
AME_NIL
 10
0.0
 20
0.0
 30
0.0
  0
INSERT
  8
AME_FRZ
  5
114
  2
AME_SOL
 10
0.0
 20
0.0
 30
0.0
1001
AME_SOL
1000
R2.1
1000
AME2
1000
sq cm
1070
     3
1070
     0
1070
     3
1000
wire
1040
45.0
1000
U
1040
1.0
1000
cm
1000
gm
1000
MILD_STEEL
1070
    25
1000
CSG
1070
     1
1070
     3
1070
     3
1070
     3
1070
     0
1000
cu cm
1070
     1
1070
     0
1005
111
  0
INSERT
  8
AME_FRZ
  5
123
  2
AME_NIL
 10
0.0
 20
0.0
 30
0.0
1001
AME_SOL
1002
{
1070
     1
1071
  2388344
1070
  1536
1070
     1
1010
2.0
1020
2.0
1030
4.0
1005
0
1005
0
1005
149
1040
0.0
1040
1.0
1070
     0
1000
MILD_STEEL
1000
0
1010
0.0
1020
0.0
1030
0.0
1010
0.0
1020
0.0
1030
1.0
1040
0.0
1002
}
1001
AVE_INVOKE
1000
SOLAVEMESH
  0
INSERT
  8
AME_FRZ
  5
12F
  2
AME_NIL
 10
2.0
 20
2.0
 30
2.0
1001
AME_SOL
1002
{
1070
     1
1071
  2400584
1070
  1538
1070
     1
1010
1.0
1020
1.0
1030
2.0
1005
0
1005
0
1005
149
1040
0.0
1040
1.0
1070
     0
1000
MILD_STEEL
1000
0
1010
2.0
1020
2.0
1030
2.0
1010
0.0
1020
0.0
1030
1.0
1040
0.0
1002
}
1001
AVE_INVOKE
1000
SOLAVEMESH
  0
INSERT
  8
0
  5
149
  2
*U4
 10
0.0
 20
0.0
 30
0.0
1001
AME_SOL
1002
{
1070
     1
1071
  2443584
1070
  1543
1070
     1
1070
     0
1005
123
1005
12F
1005
0
1005
14A
1005
0
1040
0.0
1040
1.0
1070
     0
1000
MILD_STEEL
1000
0
1002
}
1001
AVE_INVOKE
1000
SOLAVEMESH
  0
INSERT
  8
AME_FRZ
  5
14A
  2
AME_NIL
 10
1.0
 20
1.0
 30
1.0
1001
AME_SOL
1004
C7CF0100DB006D016C016A016601FF005F01F000550128004701370124014400F20025012100180103004D003801260119010900F9001A012E000F01F800300027011B0110013500D80011010101000116000201170019001C01120103017800F70004011C002000130105012F00310006013200DE006701
1004
6001020056010A004801390128011D01140107019800DD000801DC00380015010901DB00D6000A01D100A9001E0116010B01CF00CD000C014800CB0017010D01CA004B000E01C8005200FB00050061015701180049019600100058014A013A01A400EE003B012901460015002A01EA00BD004B013C012B01
1004
C6006000A8003D01700006006B01680162013F0059014C0175001400240063015A014D013E012C01E8008800E70080004E013F01D90084004001EB004E004000690164015B014F017F00500050010C0041012D01BC0008002E01580079005C01510142012F015C0082003001EF002D0043013101E400B000
1004
32011F010400FC0020010F00F5005201440133012101F300ED002201DF00AF003401D300DA0045013501CE00D7005F0065015D01BF0001005E0153017400A0005401FE004601360125002301C5005400C00000003B0EC761D8B1CB5DB5A0019678FCB36EF20CF5F018F1C20CF5F018F1C20CF5F018F1C3AB
1004
1060C8A66ACEAC41832299AB28F4107E5CDADDE5A396B2D57096E375A486AB84B71BAD242A37BB5156041D58830645335675620C1914CD5947A083F2E6D6ECECAE793A3F201BB2CBE7657FF123FFFFFFF123FFFAFFAFFACBFF123F123FFFFFCECAFFE247FFFFFFE247FFF5FF5FF597FE247E247FFFFE2707
1004
73B0EDCD24FF123FFFFFFF123FFF120DFEBFEB25A0CC6A33DA27CCE6C9A0CC6A33DA27CCE6FFF2768331A8CF689F339B2FEFFFD6D0663519ED13E673793FF7FFF247A771E9DFFFFAC91E9DC7C0003BFFFFAC773B139A49FE247FFFFFFE247F880000011F891FD64B4198D467B44F99CD934198D467B44F99
1004
CDFFE4ED0663519ED13E67365FDFFFADA0CC6A33DA27CCE6F27FEFFFD492D37769BBFF53FD648F800069BBBBFFA9FEB1DCECEF3493FC48FFFFFFFC48FF77ECD5FF5FF592D0663519ED13E67364D0663519ED13E6737BBFC773B79A49FE247FFFFFFE247F880000010EFD9ABFEB25A0CC6A33DA27CCE6C9A0
1004
CC6A33DA27CCE6F77F968E476B55C25B8DD6921AAE12DC6EB490A8DEED45581075620C1914CD59D58830645335695883064556ED555CF9FA4E01BB2CCEAAAFFE247FFFFF53F89CFEA7FAFFAFFACBFFFFFFFFFFD555FFC48FFFFFEA7F139FD4FF5FF5FF597FFFFFFFFFE270B472D64833D7C063C70833D7C0
1004
63C70833D7C063C712B1060C8AAD2B1060C8AAC833D7C063C43B5557509E13BBDD8FF3BAAABFFFF891FFF891FFFFFFFFFE5FFFFFFFFFFEAAAFFFFE247FFE247FFFFFFFFF97FFFFFFFFFE24168E5AC9067AF80C78E1067AF80C78E1067AF80C78E25620C191559067AF80C78828F4107E5CDADDAAABA80EE9
1004
DDEEC7F5DD555FFC48FFFFFFFFFC48FFFFFF2FFFFFFFFFFF5557FF123FFFFFFFFF123FFFFFCBFFFFFFFFFF120B472D64833D7C063C70833D7C063C70833D7C063C70833D7C063C425620C19155947A083F2E6D6ED555EE2777BB1EEEEAAAFFFFFFE247FFE247FFFFFFF97FFFFFFFFFFAAABFFFFFF891FFF8
1004
91FFFFFFFE5FFFFFFFFFF8905A392F20CF5F018F1C20CF5F018F1C6C5B3A96C1AF6B96958830645569588306455651E820FCB9B5BB555731FD3BBDD8FE3BAAABFF89CFEA7FA9FEA7F139FD4FF5FF5FE6D65FFFFFFFFFFEAAAFFE273FA9FEA7FA9FC4E7F53FD7FD7F9B597FFFFFFFFFE24168E4FE419EBE03
1004
1E38A8DEED455810419EBE031E38958830645569588306455651E820FCB9B5BB55575B6D3BBDD8F4EEAAAFFF53FD4FE273F139FD4FF53FD7FD7F9B597FFFFFFFFFFAAABFFD4FF53F89CFC4E7F53FD4FF5FF5FE6D65FFFFFFFFFF8905A393FAA37BB5156041067AF80C78E1067AF80C78E25620C19155A562
1004
0C19155947A083F2E6D6ED555EDA4EEF76D3775557FFA9FC4E7F53FD4FF53F89CFEBFEBFCDACBFFFFFFFFFFD555FFEA7F139FD4FF53FD4FE273FAFFAFF36B2FFFFFFFFFFC4838396AB84B71BAD24355C25B8DD692151BDDA8AB020EAC41832299AB3AB1060C8A66AD2B1060C8AAC6698E1FB2D1D0F0FE634
1004
C70FD968E8797096B522CB35F9C01D9E4E8FC9F3F49F24F2747E4F9FA4E00000000D6A4FF123FFFFFFF123FFFAFFAFFADACFE247E240CD31C3F65A3A1E1FCC698E1FB2D1D0F2E1C1CB55C25B8DD6921AAE12DC6EB490D8B6752D835ED72D2B1060C8AAD2B1060C8AACA3D041F9736B19A6387ECB4743C3F9
1004
8D31C3F65A3A1E5C25AD4859C3D93EEC00F2747E4C7F4F9263FA73C9D1F977800035A93FC48FFFFFFFC48FFFEBFEBFCDADACFE247E240CD31C3F65A3A1E1FCC698E1FB2D1D0F2E1C1CB55C25B8DD692151BDDA8AB02151BDDA8AB0212B1060C8AAD2B1060C8AACA3D041F9736BFFFEB24D243658A9F76007
1004
93A3F2B6DA7C95B6D39E4E8FCBBC0000D24FF123FFFFFFF123FFF123FAFFAC9FFFEB3839546F76A2AC086AB84B71BAD242A37BB51560425620C19155A5620C19155947A083F2E6D7FFFD649A483F6DD4F803B3C9D1F9B693E49E4E8FCDB49C0001DE6927F891FFFFFFF891FFFD7F891FD64FFFF59C1CB55C
1004
25B8DD692151BDDA8AB02151BDDA8AB0212B1060C8AAD2B1060C8AAD2B1060C8AAFFFF120934907B8F94FBB003E7E93ADB69F256DB4E7CFD277780001A49FFFE247FFFFFFE273FAFFAFFAC9FFFC483839546F76A2AC086AB84B71BAD242A37BB51560425620C19155A5620C19155A5620C19155FE273FA92
1004
4D241F25929F76007CFD27B693E4DB49CF9FA4EEF00003493FC48FFFFFFFFFC4E7F5FF5FF593F89CFEA4E0E4833D7C063C7151BDDA8AB020833D7C063C712B1060C8AAD2B1060C8AAC833D7C063C47E273F1209349140DC4F803B509E13ADB69F2542784EB6DA777BBCD24FFFF123FFFFFFF139F891FD7FE
1004
4FE273F120E0E551BDDA8AB020833D7C063C70833D7C063C712B1060C8AAD2B1060C8AAC833D7C063C47E273F120934907B16427C01DA84F09EDA4F92A13C27B693BBDDE6927F891FFFFFFFFF89CFEBFC48FF27F139F8907072419EBE031E38419EBE031E38419EBE031E38419EBE031E212B1060C8AAC83
1004
3D7C063C47F7FFEA4934919A58C9F0076A13C27B89F2542784F713BBDDE6927F89CFFFFFFFFFC4E7FFFFF93FDFFFA9383920CF5F018F1C20CF5F018F1C20CF5F018F1C4AC418322AB20CF5F018F10419EBE031E23FFFAC934907E0B113E00ED42784EA03BA7C9509E13A80EE9DDEEF3493FFFC4E7FFFFFFE
1004
273FFFFFC9FFFEB383920CF5F018F1C20CF5F018F1C6C5B3A96C1AF6B9695883064556419EBE031E20A3D041F9736BFC4E7E2412692284B093E00ED40774E63FA7C9501DD398FE9DDEEF3493FFFFFC48FFFC4E7FFE247FFE6D64FE273F120E0E551BDDA8AB020833D7C063C70833D7C063C712B1060C8AAC
1004
833D7C063C4147A083F2E6D7FDFFFAC93490B00B053E00ED40774F6D27C9501DD3DB49DDEEF3493FC48FFFFFFFC4E7FFF5FFFF593FDFFFACE0E4833D7C063C70833D7C063C70833D7C063C70833D7C063C41067AF80C78828F4107E5CDAFFFF36B24D243D1FF4F803B501DD3DC4F92A03BA7B89DDEEF3493
1004
FC4E7FFFFFFE273FFFFFFFC9FFFCDACE0E4833D7C063C70833D7C063C71B16CEA5B06BDAE59067AF80C7884AC418322AB28F4107E5CDAFF139F89049A48B1F67E7007771398FE9F26E2731FD3BBDDE6927FFFFF891F89CFFFFFFFC48FCDAC9FC4E7E241C1C9067AF80C78E2A37BB5156041067AF80C78E10
1004
67AF80C7884AC418322AB28F4107E5CDAFFBFFF5926921650FD3F3803BB89D6DB4F93713ADB69DDEEF3493FFFC48FFFC4E7FFFFFFF5FF593FDFFFACE0E4833D7C063C7151BDDA8AB021B16CEA5B06BDAE5A5620C19155A5620C19155947A083F2E6D7FDFFF13849A483257E7007663FA75B6D3E498FE9D6D
1004
B4EEF779A49FFFE247FFFFFFE247F5FF5FE6D64FF7FFC4E1C1CAA37BB5156041067AF80C78E362D9D4B60D7B5CB4AC418322AB4AC418322AB28F4107E5CDAFF123FAC9349063ABF3803B31FD3DB49F24C7F4F6D2777BBCD24FF123FFFFFA9FFFC48FEBFEBFCDAC9FC48FEB3839546F76A2AC08546F76A2AC
1004
0820CF5F018F1C4AC418322AB4AC418322AB28F4107E5CDAFF36FFFDFC93490B0C7D5F9C01DADB69EDA4F92B6DA7B693BBDDE6927F891FFFFFFF891FFFD7FD7F9B593F9B7FFEFE3EED68FA7F
1005
14B
  0
INSERT
  8
AME_FRZ
  5
14B
  2
AME_NIL
 10
1.0
 20
1.0
 30
1.0
1001
AME_SOL
1004

1005
0
  0
ENDSEC
  0
EOF
