600 0 1 0           
126 GICL ACIS STEP Translator - Source: f:/data5/repository/Parasolid/NIST/Pete_Brown/Torpedo_Motor/intersect/intersect.step - 6 0 13 ACIS 6.0.3 NT 24 Mon Apr 08 10:52:24 2002 
1 9.9999999999999995e-007 1e-010 
body $-1 $1 $-1 $-1 #
lump $-1 $-1 $2 $0 #
shell $-1 $-1 $-1 $3 $-1 $1 #
face $-1 $4 $5 $2 $-1 $6 reversed single #
face $-1 $7 $8 $2 $-1 $9 reversed single #
loop $-1 $-1 $10 $3 #
plane-surface $-1 6999.99999999999 1699.9999999999995 4500.0000000000082 0 -1 -6.12303176911189e-017 0 1.5552500693544201e-015 -25.399999999999999 forward_v I I I I #
face $-1 $11 $12 $2 $-1 $13 reversed single #
loop $-1 $-1 $14 $4 #
cone-surface $-1 6999.99999999999 1699.9999999999995 4500.0000000000082 0 1 6.12303176911189e-017 1499.9999999999993 0 0 1 I I 0 1 1499.9999999999993 forward I I I I #
coedge $-1 $15 $15 $14 $16 forward $5 $-1 #
face $-1 $17 $18 $2 $-1 $19 reversed single #
loop $-1 $-1 $20 $7 #
cone-surface $-1 6999.99999999999 1699.9999999999995 4500.0000000000082 0 1 6.12303176911189e-017 1499.9999999999993 0 0 1 I I 0 1 1499.9999999999993 forward I I I I #
coedge $-1 $21 $22 $10 $16 reversed $8 $-1 #
coedge $-1 $10 $10 $23 $24 reversed $5 $-1 #
edge $-1 $25 -2.4118649973628248 $26 -0.72972765622695712 $10 $27 forward 7 unknown #
face $-1 $28 $29 $2 $-1 $30 reversed single #
loop $-1 $-1 $31 $11 #
plane-surface $-1 6999.99999999999 1699.9999999999995 4500.0000000000082 0 -1 -6.12303176911189e-017 0 1.5552500693544201e-015 -25.399999999999999 forward_v I I I I #
coedge $-1 $32 $33 $31 $34 reversed $12 $-1 #
coedge $-1 $35 $14 $36 $37 reversed $8 $-1 #
coedge $-1 $14 $35 $38 $39 reversed $8 $-1 #
coedge $-1 $38 $36 $15 $24 forward $40 $-1 #
edge $-1 $25 -24.332046801177 $26 63.70212554133397 $15 $41 forward 7 unknown #
vertex $-1 $16 $42 #
vertex $-1 $16 $43 #
ellipse-curve $-1 6999.99999999999 1699.9999999999995 4500.0000000000082 0 1 6.12303176911189e-017 1499.9999999999993 0 0 1 I I #
face $-1 $44 $40 $2 $-1 $45 reversed single #
loop $-1 $46 $47 $17 #
cone-surface $-1 2000.0000000000011 0 4500.0000000000082 0 1 6.12303176911189e-017 1499.9999999999993 0 0 1 I I 0 1 1499.9999999999993 forward I I I I #
coedge $-1 $48 $48 $20 $34 forward $18 $-1 #
coedge $-1 $49 $20 $50 $51 reversed $12 $-1 #
coedge $-1 $20 $49 $52 $53 reversed $12 $-1 #
edge $-1 $54 0.72972765622696967 $55 2.4118649973628123 $20 $56 forward 7 unknown #
coedge $-1 $22 $21 $57 $58 reversed $8 $-1 #
coedge $-1 $23 $59 $21 $37 forward $40 $-1 #
edge $-1 $60 -11.811023622047301 $25 0 $21 $61 forward 7 unknown #
coedge $-1 $62 $23 $22 $39 forward $40 $-1 #
edge $-1 $26 0 $63 11.811023622047301 $22 $64 forward 7 unknown #
loop $-1 $-1 $23 $28 #
straight-curve $-1 6500.00000000001 1699.9999999999995 5499.9999999999955 25.399999999999999 0 0 I I #
point $-1 5881.9660112501142 1699.9999999999995 5499.9999999999955 #
point $-1 8118.0339887498922 1699.9999999999995 5499.9999999999955 #
face $-1 $65 $66 $2 $-1 $67 reversed single #
plane-surface $-1 6500.00000000001 2249.9999999999991 5499.9999999999955 0 0 1 25.399999999999999 0 0 forward_v I I I I #
loop $-1 $-1 $68 $17 #
coedge $-1 $47 $47 $69 $70 reversed $29 $-1 #
coedge $-1 $31 $31 $71 $72 reversed $18 $-1 #
coedge $-1 $33 $32 $73 $74 reversed $12 $-1 #
coedge $-1 $71 $75 $32 $51 forward $76 $-1 #
edge $-1 $77 -11.811023622047301 $54 0 $32 $78 forward 7 unknown #
coedge $-1 $79 $71 $33 $53 forward $76 $-1 #
edge $-1 $55 0 $80 11.811023622047301 $33 $81 forward 7 unknown #
vertex $-1 $34 $82 #
vertex $-1 $34 $83 #
ellipse-curve $-1 6999.99999999999 1699.9999999999995 4500.0000000000082 0 1 6.12303176911189e-017 1499.9999999999993 0 0 1 I I #
coedge $-1 $84 $85 $35 $58 forward $86 $-1 #
edge $-1 $63 2.3005239830218538 $60 3.9826613241577213 $35 $87 forward 7 unknown #
coedge $-1 $36 $88 $84 $89 reversed $40 $-1 #
vertex $-1 $37 $90 #
straight-curve $-1 5881.9660112501142 1699.9999999999995 5499.9999999999955 0 -25.399999999999999 -1.5552500693544201e-015 I I #
coedge $-1 $91 $38 $85 $92 reversed $40 $-1 #
vertex $-1 $58 $93 #
straight-curve $-1 8118.0339887498922 1699.9999999999995 5499.9999999999955 0 25.399999999999999 1.5552500693544201e-015 I I #
face $-1 $94 $95 $2 $-1 $96 reversed single #
loop $-1 $-1 $97 $44 #
plane-surface $-1 6500.00000000001 2249.9999999999991 3499.999999999995 0 0 -1 -25.399999999999999 0 0 forward_v I I I I #
coedge $-1 $98 $99 $100 $101 reversed $46 $-1 #
coedge $-1 $69 $69 $47 $70 forward $102 $-1 #
edge $-1 $103 0 $103 6.2831853071795862 $47 $104 forward 7 unknown #
coedge $-1 $52 $50 $48 $72 forward $76 $-1 #
edge $-1 $54 -63.70212554133397 $55 24.332046801177 $48 $105 forward 7 unknown #
coedge $-1 $106 $107 $49 $74 forward $108 $-1 #
edge $-1 $80 -0.84106867056791568 $77 0.84106867056792689 $49 $109 forward 7 unknown #
coedge $-1 $50 $110 $106 $111 reversed $76 $-1 #
loop $-1 $-1 $71 $112 #
vertex $-1 $51 $113 #
straight-curve $-1 8118.0339887498922 1699.9999999999995 3499.999999999995 0 -25.399999999999999 -1.5552500693544201e-015 I I #
coedge $-1 $114 $52 $107 $115 reversed $76 $-1 #
vertex $-1 $74 $116 #
straight-curve $-1 5881.9660112501142 1699.9999999999995 3499.999999999995 0 25.399999999999999 1.5552500693544201e-015 I I #
point $-1 8118.0339887498922 1699.9999999999995 3499.999999999995 #
point $-1 5881.9660112501142 1699.9999999999995 3499.999999999995 #
coedge $-1 $117 $57 $59 $89 forward $86 $-1 #
coedge $-1 $57 $118 $62 $92 forward $86 $-1 #
loop $-1 $-1 $85 $119 #
ellipse-curve $-1 6999.99999999999 2000.0000000000011 4500.0000000000082 0 -1 0 0 0 -1499.9999999999993 1 I I #
coedge $-1 $59 $120 $121 $122 forward $40 $-1 #
edge $-1 $60 24.332046801177 $123 133.14826815945301 $59 $124 forward 7 unknown #
point $-1 5881.9660112501142 2000.0000000000011 5499.9999999999955 #
coedge $-1 $125 $62 $126 $127 reversed $40 $-1 #
edge $-1 $128 -177.16535433070797 $63 -63.70212554133397 $62 $129 forward 7 unknown #
point $-1 8118.0339887498922 2000.0000000000011 5499.9999999999955 #
face $-1 $112 $130 $2 $-1 $131 reversed single #
loop $-1 $-1 $132 $65 #
plane-surface $-1 6500.00000000001 1499.9999999999993 3499.999999999995 0 -1 0 0 0 -25.399999999999999 forward_v I I I I #
coedge $-1 $133 $134 $135 $136 forward $66 $-1 #
coedge $-1 $137 $68 $138 $139 reversed $46 $-1 #
coedge $-1 $68 $140 $141 $142 reversed $46 $-1 #
coedge $-1 $143 $144 $68 $101 forward $145 $-1 #
edge $-1 $146 -1.5707963267948966 $147 -0.72972765622696034 $68 $148 forward 7 unknown #
loop $-1 $149 $69 $150 #
vertex $-1 $70 $151 #
ellipse-curve $-1 2000.0000000000011 0 4500.0000000000082 0 1 6.12303176911189e-017 1499.9999999999993 0 0 1 I I #
straight-curve $-1 6500.00000000001 1699.9999999999995 3499.999999999995 -25.399999999999999 0 0 I I #
coedge $-1 $152 $73 $75 $111 forward $108 $-1 #
coedge $-1 $73 $153 $79 $115 forward $108 $-1 #
loop $-1 $-1 $107 $154 #
ellipse-curve $-1 6999.99999999999 2000.0000000000011 4500.0000000000082 0 -1 0 0 0 -1499.9999999999993 1 I I #
coedge $-1 $75 $155 $156 $157 reversed $76 $-1 #
edge $-1 $77 63.70212554133397 $158 177.16535433070797 $75 $159 forward 7 unknown #
face $-1 $160 $76 $2 $-1 $161 reversed single #
point $-1 8118.0339887498922 2000.0000000000011 3499.999999999995 #
coedge $-1 $162 $79 $163 $164 forward $76 $-1 #
edge $-1 $165 -133.14826815945301 $80 -24.332046801177 $79 $166 forward 7 unknown #
point $-1 5881.9660112501142 2000.0000000000011 3499.999999999995 #
coedge $-1 $167 $84 $137 $168 forward $86 $-1 #
coedge $-1 $85 $169 $170 $171 reversed $86 $-1 #
face $-1 $172 $86 $2 $-1 $173 reversed single #
coedge $-1 $88 $174 $175 $176 forward $40 $-1 #
coedge $-1 $177 $137 $88 $122 reversed $46 $-1 #
edge $-1 $178 59.055118110236201 $123 78.740157480315006 $121 $179 forward 7 unknown #
vertex $-1 $168 $180 #
straight-curve $-1 6500.00000000001 2000.0000000000011 5499.9999999999955 -25.399999999999999 0 0 I I #
coedge $-1 $174 $91 $181 $182 forward $40 $-1 #
coedge $-1 $170 $183 $91 $127 forward $184 $-1 #
edge $-1 $185 -19.6850393700783 $128 19.685039370078698 $91 $186 forward 7 unknown #
vertex $-1 $92 $187 #
straight-curve $-1 6500.00000000001 2000.0000000000011 5499.9999999999955 -25.399999999999999 0 0 I I #
loop $-1 $-1 $188 $94 #
plane-surface $-1 6500.00000000001 2249.9999999999991 5499.9999999999955 0 0 1 25.399999999999999 0 0 forward_v I I I I #
coedge $-1 $189 $190 $162 $191 reversed $95 $-1 #
coedge $-1 $192 $97 $193 $194 forward $66 $-1 #
coedge $-1 $97 $192 $195 $196 forward $66 $-1 #
coedge $-1 $197 $198 $97 $136 reversed $199 $-1 #
edge $-1 $200 -255.90551181102401 $201 -221.18244050196472 $97 $202 forward 7 unknown #
coedge $-1 $121 $98 $117 $168 reversed $46 $-1 #
coedge $-1 $203 $204 $98 $139 forward $205 $-1 #
edge $-1 $206 78.740157480315006 $146 118.110236220472 $98 $207 forward 7 unknown #
coedge $-1 $99 $193 $198 $208 reversed $46 $-1 #
coedge $-1 $209 $188 $99 $142 forward $130 $-1 #
edge $-1 $147 -118.110236220472 $210 -59.055118110236201 $99 $211 forward 7 unknown #
coedge $-1 $212 $100 $188 $213 reversed $145 $-1 #
coedge $-1 $100 $214 $203 $215 reversed $145 $-1 #
loop $-1 $-1 $100 $216 #
vertex $-1 $101 $217 #
vertex $-1 $101 $218 #
ellipse-curve $-1 2000.0000000000011 2999.9999999999886 4500.0000000000082 0 -1 -6.12303176911189e-017 -1499.9999999999993 0 0 1 I I #
loop $-1 $-1 $219 $150 #
face $-1 $220 $102 $2 $-1 $221 forward single #
point $-1 3499.999999999995 0 4500.0000000000082 #
coedge $-1 $222 $106 $223 $224 reversed $108 $-1 #
coedge $-1 $107 $225 $226 $227 forward $108 $-1 #
face $-1 $228 $108 $2 $-1 $229 reversed single #
coedge $-1 $110 $230 $231 $232 forward $76 $-1 #
coedge $-1 $233 $223 $110 $157 forward $234 $-1 #
edge $-1 $158 -19.685039370078698 $235 19.6850393700783 $110 $236 forward 7 unknown #
vertex $-1 $157 $237 #
straight-curve $-1 6500.00000000001 2000.0000000000011 3499.999999999995 25.399999999999999 0 0 I I #
face $-1 $119 $199 $2 $-1 $238 reversed single #
plane-surface $-1 6500.00000000001 2249.9999999999991 3499.999999999995 0 0 -1 -25.399999999999999 0 0 forward_v I I I I #
coedge $-1 $230 $114 $132 $191 forward $76 $-1 #
coedge $-1 $226 $177 $114 $164 reversed $46 $-1 #
edge $-1 $165 -78.740157480315006 $239 -59.055118110236201 $163 $240 forward 7 unknown #
vertex $-1 $164 $241 #
straight-curve $-1 6500.00000000001 2000.0000000000011 3499.999999999995 25.399999999999999 0 0 I I #
coedge $-1 $169 $117 $204 $242 forward $86 $-1 #
edge $-1 $123 2.3005239830218538 $206 3.1415926535897931 $137 $243 forward 7 unknown #
coedge $-1 $118 $167 $244 $245 reversed $86 $-1 #
coedge $-1 $246 $126 $118 $171 forward $184 $-1 #
edge $-1 $128 216.53543307086599 $247 354.33070866141702 $118 $248 forward 7 unknown #
face $-1 $249 $205 $2 $-1 $250 reversed single #
plane-surface $-1 6500.00000000001 2000.0000000000011 0 0 -1 0 0 0 -25.399999999999999 forward_v I I I I #
coedge $-1 $120 $125 $251 $252 forward $40 $-1 #
coedge $-1 $190 $189 $120 $176 reversed $95 $-1 #
edge $-1 $253 -255.90551181102299 $178 133.14826815945301 $120 $254 forward 7 unknown #
coedge $-1 $163 $121 $189 $255 reversed $46 $-1 #
vertex $-1 $122 $256 #
straight-curve $-1 3118.0339887499031 0 5499.9999999999955 0 25.399999999999999 1.5552500693544201e-015 I I #
point $-1 3118.0339887499031 2000.0000000000011 5499.9999999999955 #
coedge $-1 $257 $258 $125 $182 reversed $259 $-1 #
edge $-1 $185 177.16535433070797 $260 255.90551181102299 $125 $261 forward 7 unknown #
coedge $-1 $126 $246 $257 $262 reversed $184 $-1 #
loop $-1 $-1 $183 $249 #
vertex $-1 $127 $263 #
straight-curve $-1 10999.999999999991 2500 5499.9999999999955 0 -25.399999999999999 0 I I #
point $-1 10999.999999999991 2000.0000000000011 5499.9999999999955 #
coedge $-1 $141 $264 $143 $213 forward $130 $-1 #
coedge $-1 $175 $132 $177 $255 forward $95 $-1 #
coedge $-1 $132 $175 $265 $266 reversed $95 $-1 #
edge $-1 $239 -133.14826815945301 $267 255.90551181102299 $132 $268 forward 7 unknown #
coedge $-1 $134 $133 $269 $270 forward $66 $-1 #
coedge $-1 $140 $271 $133 $194 reversed $46 $-1 #
edge $-1 $201 59.055118110236201 $272 118.110236220472 $193 $273 forward 7 unknown #
coedge $-1 $274 $275 $134 $196 reversed $276 $-1 #
edge $-1 $277 -29.527559055117706 $200 29.527559055118097 $134 $278 forward 7 unknown #
coedge $-1 $279 $135 $275 $280 forward $199 $-1 #
coedge $-1 $135 $279 $140 $208 forward $199 $-1 #
loop $-1 $-1 $279 $160 #
vertex $-1 $136 $281 #
vertex $-1 $194 $282 #
straight-curve $-1 6500.00000000001 1499.9999999999993 3499.999999999995 25.399999999999999 0 0 I I #
coedge $-1 $283 $138 $144 $215 forward $205 $-1 #
coedge $-1 $138 $283 $167 $242 reversed $205 $-1 #
loop $-1 $-1 $204 $172 #
vertex $-1 $139 $284 #
straight-curve $-1 2000.0000000000011 -9.1845476536678257e-014 6000.0000000000027 0 25.399999999999999 1.5552500693544201e-015 I I #
edge $-1 $210 -2.3005239830218569 $201 -0.84106867056792378 $140 $285 forward 7 unknown #
coedge $-1 $264 $141 $279 $286 forward $130 $-1 #
vertex $-1 $208 $287 #
straight-curve $-1 881.96601125010613 0 5499.9999999999955 0 -25.399999999999999 -1.5552500693544201e-015 I I #
coedge $-1 $214 $143 $288 $289 forward $145 $-1 #
edge $-1 $290 -255.90551181102401 $147 -221.18244050196472 $188 $291 forward 7 unknown #
coedge $-1 $144 $212 $292 $293 forward $145 $-1 #
edge $-1 $146 236.220472440945 $294 354.33070866141702 $203 $295 forward 7 unknown #
face $-1 $296 $145 $2 $-1 $297 forward single #
point $-1 2000.0000000000011 2999.9999999999886 6000.0000000000027 #
point $-1 881.96601125010613 2999.9999999999886 5499.9999999999955 #
coedge $-1 $298 $299 $300 $301 forward $149 $-1 #
face $-1 $302 $276 $2 $-1 $303 forward single #
plane-surface $-1 6500.00000000001 0 0 0 -1 0 0 0 -25.399999999999999 forward_v I I I I #
coedge $-1 $225 $152 $304 $305 reversed $108 $-1 #
coedge $-1 $156 $306 $152 $224 forward $234 $-1 #
edge $-1 $307 0 $158 137.795275590551 $152 $308 forward 7 unknown #
coedge $-1 $153 $222 $309 $310 forward $108 $-1 #
coedge $-1 $311 $163 $153 $227 reversed $46 $-1 #
edge $-1 $312 0 $165 0.84106867056792711 $226 $313 forward 7 unknown #
face $-1 $314 $315 $2 $-1 $316 reversed single #
plane-surface $-1 6500.00000000001 2000.0000000000011 0 0 -1 0 0 0 -25.399999999999999 forward_v I I I I #
coedge $-1 $155 $162 $317 $318 forward $76 $-1 #
coedge $-1 $319 $320 $155 $232 reversed $321 $-1 #
edge $-1 $322 -255.90551181102299 $235 -177.16535433070797 $155 $323 forward 7 unknown #
coedge $-1 $306 $156 $320 $324 reversed $234 $-1 #
loop $-1 $-1 $223 $314 #
vertex $-1 $232 $325 #
straight-curve $-1 10999.999999999991 2500 3499.999999999995 0 25.399999999999999 0 I I #
point $-1 10999.999999999991 2000.0000000000011 3499.999999999995 #
plane-surface $-1 6500.00000000001 1499.9999999999993 3499.999999999995 0 -1 0 0 0 -25.399999999999999 forward_v I I I I #
vertex $-1 $255 $326 #
straight-curve $-1 3118.0339887499031 0 3499.999999999995 0 -25.399999999999999 -1.5552500693544201e-015 I I #
point $-1 3118.0339887499031 2000.0000000000011 3499.999999999995 #
edge $-1 $206 236.220472440945 $327 354.33070866141702 $167 $328 forward 7 unknown #
ellipse-curve $-1 2000.0000000000011 2000.0000000000011 4500.0000000000082 0 -1 0 0 0 -1499.9999999999993 1 I I #
coedge $-1 $329 $330 $169 $245 forward $331 $-1 #
edge $-1 $247 -177.16535433070797 $327 177.16535433070902 $169 $332 forward 7 unknown #
coedge $-1 $183 $170 $330 $333 reversed $184 $-1 #
vertex $-1 $245 $334 #
straight-curve $-1 10999.999999999991 2000.0000000000011 0 0 0 25.399999999999999 I I #
face $-1 $216 $184 $2 $-1 $335 reversed single #
plane-surface $-1 2000.0000000000011 2500 0 -1 0 0 0 0 25.399999999999999 forward_v I I I I #
coedge $-1 $336 $265 $174 $252 reversed $337 $-1 #
edge $-1 $260 -29.527559055117706 $253 29.527559055118097 $174 $338 forward 7 unknown #
vertex $-1 $252 $339 #
straight-curve $-1 6500.00000000001 1499.9999999999993 5499.9999999999955 -25.399999999999999 0 0 I I #
edge $-1 $239 0.84106867056792711 $178 2.3005239830218538 $177 $340 forward 7 unknown #
point $-1 3118.0339887499031 1499.9999999999993 5499.9999999999955 #
coedge $-1 $341 $181 $183 $262 forward $259 $-1 #
coedge $-1 $181 $341 $336 $342 reversed $259 $-1 #
loop $-1 $-1 $181 $296 #
vertex $-1 $182 $343 #
straight-curve $-1 6500.00000000001 2999.9999999999886 5499.9999999999955 25.399999999999999 0 0 I I #
edge $-1 $185 216.53543307086599 $344 354.33070866141702 $183 $345 forward 7 unknown #
point $-1 10999.999999999991 2999.9999999999886 5499.9999999999955 #
coedge $-1 $188 $209 $346 $347 forward $130 $-1 #
coedge $-1 $251 $317 $190 $266 forward $337 $-1 #
edge $-1 $267 0 $253 78.740157480314991 $190 $348 forward 7 unknown #
vertex $-1 $191 $349 #
straight-curve $-1 6500.00000000001 1499.9999999999993 3499.999999999995 25.399999999999999 0 0 I I #
coedge $-1 $350 $351 $192 $270 reversed $352 $-1 #
edge $-1 $272 221.18244050196472 $277 255.90551181102401 $192 $353 forward 7 unknown #
coedge $-1 $193 $311 $350 $354 reversed $46 $-1 #
vertex $-1 $354 $355 #
straight-curve $-1 881.96601125010613 0 3499.999999999995 0 25.399999999999999 1.5552500693544201e-015 I I #
coedge $-1 $356 $195 $351 $357 reversed $276 $-1 #
coedge $-1 $195 $346 $197 $280 reversed $276 $-1 #
loop $-1 $-1 $346 $220 #
vertex $-1 $270 $358 #
straight-curve $-1 0 2249.9999999999991 3499.999999999995 0 -25.399999999999999 0 I I #
coedge $-1 $198 $197 $209 $286 reversed $199 $-1 #
edge $-1 $200 0 $359 78.740157480314991 $197 $360 forward 7 unknown #
point $-1 0 1499.9999999999993 3499.999999999995 #
point $-1 881.96601125010613 1499.9999999999993 3499.999999999995 #
coedge $-1 $204 $203 $329 $361 reversed $205 $-1 #
point $-1 2000.0000000000011 2000.0000000000011 6000.0000000000027 #
ellipse-curve $-1 2000.0000000000011 1499.9999999999993 4500.0000000000082 0 -1 0 0 0 -1499.9999999999993 1 I I #
edge $-1 $210 221.18244050196472 $359 255.90551181102401 $209 $362 forward 7 unknown #
point $-1 881.96601125010613 1499.9999999999993 5499.9999999999955 #
coedge $-1 $346 $363 $212 $289 reversed $276 $-1 #
edge $-1 $290 216.53543307086599 $364 354.33070866141702 $212 $365 forward 7 unknown #
vertex $-1 $213 $366 #
straight-curve $-1 6500.00000000001 2999.9999999999886 5499.9999999999955 25.399999999999999 0 0 I I #
coedge $-1 $367 $329 $214 $293 reversed $331 $-1 #
edge $-1 $364 -255.90551181102401 $294 -177.16535433070902 $214 $368 forward 7 unknown #
vertex $-1 $215 $369 #
straight-curve $-1 2000.0000000000011 2999.9999999999886 0 0 0 25.399999999999999 I I #
face $-1 $154 $259 $2 $-1 $370 forward single #
plane-surface $-1 6500.00000000001 2999.9999999999886 0 0 1 0 0 0 25.399999999999999 forward_v I I I I #
coedge $-1 $371 $219 $372 $373 forward $149 $-1 #
coedge $-1 $219 $371 $374 $375 forward $149 $-1 #
coedge $-1 $376 $377 $219 $301 reversed $337 $-1 #
edge $-1 $378 0 $379 354.33070866141702 $219 $380 forward 7 unknown #
face $-1 $381 $321 $2 $-1 $382 forward single #
plane-surface $-1 0 1499.9999999999993 0 -1 0 0 0 0 25.399999999999999 forward_v I I I I #
coedge $-1 $383 $384 $222 $305 forward $385 $-1 #
edge $-1 $386 -177.16535433070902 $307 177.16535433070797 $222 $387 forward 7 unknown #
coedge $-1 $223 $233 $383 $388 reversed $234 $-1 #
vertex $-1 $224 $389 #
straight-curve $-1 10999.999999999991 2000.0000000000011 0 0 0 25.399999999999999 I I #
coedge $-1 $390 $391 $225 $310 reversed $315 $-1 #
edge $-1 $386 0 $312 118.110236220472 $225 $392 forward 7 unknown #
coedge $-1 $271 $226 $391 $393 reversed $46 $-1 #
vertex $-1 $227 $394 #
ellipse-curve $-1 2000.0000000000011 2000.0000000000011 4500.0000000000082 0 -1 0 0 0 -1499.9999999999993 1 I I #
face $-1 $395 $234 $2 $-1 $396 reversed single #
loop $-1 $-1 $397 $228 #
plane-surface $-1 2000.0000000000011 2500 0 -1 0 0 0 0 25.399999999999999 forward_v I I I I #
coedge $-1 $265 $398 $230 $318 reversed $337 $-1 #
edge $-1 $267 -29.527559055118097 $322 29.527559055117706 $230 $399 forward 7 unknown #
coedge $-1 $400 $231 $398 $401 reversed $321 $-1 #
coedge $-1 $231 $400 $233 $324 forward $321 $-1 #
loop $-1 $-1 $231 $302 #
vertex $-1 $318 $402 #
straight-curve $-1 6500.00000000001 2999.9999999999886 3499.999999999995 -25.399999999999999 0 0 I I #
edge $-1 $403 0 $235 137.795275590551 $233 $404 forward 7 unknown #
point $-1 10999.999999999991 2999.9999999999886 3499.999999999995 #
point $-1 3118.0339887499031 1499.9999999999993 3499.999999999995 #
vertex $-1 $242 $405 #
straight-curve $-1 2000.0000000000011 2000.0000000000011 0 0 0 25.399999999999999 I I #
coedge $-1 $292 $244 $283 $361 forward $331 $-1 #
coedge $-1 $244 $406 $246 $333 forward $331 $-1 #
loop $-1 $-1 $329 $407 #
straight-curve $-1 6500.00000000001 2000.0000000000011 8999.9999999999909 -25.399999999999999 0 0 I I #
edge $-1 $344 -19.6850393700783 $247 19.685039370078698 $246 $408 forward 7 unknown #
point $-1 10999.999999999991 2000.0000000000011 8999.9999999999909 #
plane-surface $-1 10999.999999999991 2500 0 1 0 0 0 0 -25.399999999999999 forward_v I I I I #
coedge $-1 $377 $251 $258 $342 forward $337 $-1 #
loop $-1 $-1 $251 $409 #
straight-curve $-1 12999.999999999993 2249.9999999999991 5499.9999999999955 0 -25.399999999999999 0 I I #
point $-1 12999.999999999993 1499.9999999999993 5499.9999999999955 #
ellipse-curve $-1 2000.0000000000011 1499.9999999999993 4500.0000000000082 0 -1 0 0 0 -1499.9999999999993 1 I I #
coedge $-1 $258 $257 $406 $410 forward $259 $-1 #
edge $-1 $260 216.53543307086599 $411 354.33070866141702 $258 $412 forward 7 unknown #
point $-1 12999.999999999993 2999.9999999999886 5499.9999999999955 #
vertex $-1 $262 $413 #
straight-curve $-1 10999.999999999991 2999.9999999999886 0 0 0 25.399999999999999 I I #
coedge $-1 $275 $288 $264 $347 reversed $276 $-1 #
edge $-1 $359 -29.527559055118097 $290 29.527559055117706 $264 $414 forward 7 unknown #
straight-curve $-1 12999.999999999993 1499.9999999999993 3499.999999999995 0 0 25.399999999999999 I I #
point $-1 12999.999999999993 1499.9999999999993 3499.999999999995 #
coedge $-1 $415 $269 $271 $354 forward $352 $-1 #
coedge $-1 $269 $416 $274 $357 forward $352 $-1 #
loop $-1 $-1 $350 $395 #
straight-curve $-1 6500.00000000001 2999.9999999999886 3499.999999999995 -25.399999999999999 0 0 I I #
edge $-1 $272 0.72972765622697278 $417 1.5707963267948966 $271 $418 forward 7 unknown #
point $-1 881.96601125010613 2999.9999999999886 3499.999999999995 #
coedge $-1 $419 $274 $420 $421 forward $276 $-1 #
edge $-1 $422 0 $277 137.795275590551 $351 $423 forward 7 unknown #
point $-1 0 2999.9999999999886 3499.999999999995 #
vertex $-1 $286 $424 #
straight-curve $-1 0 1499.9999999999993 3499.999999999995 0 0 25.399999999999999 I I #
edge $-1 $327 -19.685039370078698 $294 19.6850393700783 $283 $425 forward 7 unknown #
straight-curve $-1 6500.00000000001 1499.9999999999993 5499.9999999999955 -25.399999999999999 0 0 I I #
coedge $-1 $288 $419 $367 $426 forward $276 $-1 #
vertex $-1 $289 $427 #
straight-curve $-1 0 2999.9999999999886 0 0 0 25.399999999999999 I I #
point $-1 0 2999.9999999999886 5499.9999999999955 #
coedge $-1 $372 $292 $363 $426 reversed $331 $-1 #
straight-curve $-1 6500.00000000001 2999.9999999999886 8999.9999999999909 25.399999999999999 0 0 I I #
point $-1 2000.0000000000011 2999.9999999999886 8999.9999999999909 #
plane-surface $-1 6500.00000000001 2999.9999999999886 0 0 1 0 0 0 25.399999999999999 forward_v I I I I #
coedge $-1 $299 $298 $419 $428 reversed $149 $-1 #
coedge $-1 $429 $367 $298 $373 reversed $331 $-1 #
edge $-1 $379 -255.90551181102299 $430 255.90551181102401 $372 $431 forward 7 unknown #
coedge $-1 $420 $432 $299 $375 reversed $385 $-1 #
edge $-1 $433 -255.90551181102401 $378 255.90551181102299 $299 $434 forward 7 unknown #
coedge $-1 $398 $300 $432 $435 forward $337 $-1 #
coedge $-1 $300 $336 $429 $436 forward $337 $-1 #
vertex $-1 $301 $437 #
vertex $-1 $373 $438 #
straight-curve $-1 12999.999999999993 0 0 0 0 25.399999999999999 I I #
face $-1 $409 $385 $2 $-1 $439 forward single #
plane-surface $-1 6500.00000000001 2999.9999999999886 0 0 1 0 0 0 25.399999999999999 forward_v I I I I #
coedge $-1 $440 $304 $306 $388 forward $385 $-1 #
coedge $-1 $304 $441 $390 $442 forward $385 $-1 #
loop $-1 $-1 $384 $381 #
vertex $-1 $305 $443 #
straight-curve $-1 6500.00000000001 2000.0000000000011 0 25.399999999999999 0 0 I I #
edge $-1 $307 -19.685039370078698 $403 19.6850393700783 $306 $444 forward 7 unknown #
point $-1 10999.999999999991 2000.0000000000011 0 #
coedge $-1 $397 $309 $384 $442 reversed $315 $-1 #
coedge $-1 $309 $397 $311 $393 forward $315 $-1 #
straight-curve $-1 2000.0000000000011 2000.0000000000011 0 0 0 25.399999999999999 I I #
edge $-1 $417 -118.110236220472 $312 -78.740157480315006 $311 $445 forward 7 unknown #
point $-1 2000.0000000000011 2000.0000000000011 2999.9999999999886 #
face $-1 $407 $352 $2 $-1 $446 forward single #
plane-surface $-1 10999.999999999991 2500 0 1 0 0 0 0 -25.399999999999999 forward_v I I I I #
coedge $-1 $391 $390 $415 $447 forward $315 $-1 #
coedge $-1 $317 $376 $319 $401 forward $337 $-1 #
straight-curve $-1 12999.999999999993 2249.9999999999991 3499.999999999995 0 25.399999999999999 0 I I #
coedge $-1 $320 $319 $440 $448 forward $321 $-1 #
edge $-1 $449 0 $322 137.795275590551 $319 $450 forward 7 unknown #
point $-1 12999.999999999993 2999.9999999999886 3499.999999999995 #
vertex $-1 $324 $451 #
straight-curve $-1 10999.999999999991 2999.9999999999886 0 0 0 25.399999999999999 I I #
point $-1 2000.0000000000011 2000.0000000000011 8999.9999999999909 #
coedge $-1 $330 $429 $341 $410 reversed $331 $-1 #
face $-1 $150 $331 $2 $-1 $452 forward single #
straight-curve $-1 10999.999999999991 2500 8999.9999999999909 0 -25.399999999999999 0 I I #
face $-1 $-1 $337 $2 $-1 $453 forward single #
edge $-1 $344 177.16535433070797 $411 255.90551181102299 $341 $454 forward 7 unknown #
vertex $-1 $410 $455 #
straight-curve $-1 12999.999999999993 2999.9999999999886 0 0 0 25.399999999999999 I I #
point $-1 10999.999999999991 2999.9999999999886 8999.9999999999909 #
straight-curve $-1 0 2249.9999999999991 5499.9999999999955 0 25.399999999999999 0 I I #
coedge $-1 $416 $350 $397 $447 reversed $352 $-1 #
coedge $-1 $351 $415 $441 $456 forward $352 $-1 #
vertex $-1 $393 $457 #
ellipse-curve $-1 2000.0000000000011 2999.9999999999886 4500.0000000000082 0 -1 -6.12303176911189e-017 -1499.9999999999993 0 0 1 I I #
coedge $-1 $363 $356 $371 $428 forward $276 $-1 #
coedge $-1 $441 $374 $356 $421 reversed $385 $-1 #
edge $-1 $422 -59.055118110235803 $433 59.055118110236201 $356 $458 forward 7 unknown #
vertex $-1 $456 $459 #
straight-curve $-1 0 2999.9999999999886 0 0 0 25.399999999999999 I I #
point $-1 0 1499.9999999999993 5499.9999999999955 #
straight-curve $-1 2000.0000000000011 2500 8999.9999999999909 0 25.399999999999999 0 I I #
edge $-1 $430 -59.055118110236201 $364 59.055118110235803 $367 $460 forward 7 unknown #
point $-1 0 2999.9999999999886 8999.9999999999909 #
edge $-1 $433 0 $430 354.33070866141702 $371 $461 forward 7 unknown #
coedge $-1 $406 $372 $377 $436 reversed $331 $-1 #
vertex $-1 $426 $462 #
straight-curve $-1 6500.00000000001 0 8999.9999999999909 -25.399999999999999 0 0 I I #
coedge $-1 $374 $440 $376 $435 reversed $385 $-1 #
vertex $-1 $428 $463 #
straight-curve $-1 6500.00000000001 0 0 25.399999999999999 0 0 I I #
edge $-1 $378 -59.055118110236201 $449 59.055118110235803 $432 $464 forward 7 unknown #
edge $-1 $411 -59.055118110235803 $379 59.055118110236201 $429 $465 forward 7 unknown #
point $-1 12999.999999999993 0 0 #
point $-1 12999.999999999993 0 8999.9999999999909 #
plane-surface $-1 6500.00000000001 1499.9999999999993 0 0 0 -1 -25.399999999999999 0 0 forward_v I I I I #
coedge $-1 $432 $383 $400 $448 reversed $385 $-1 #
coedge $-1 $384 $420 $416 $456 reversed $385 $-1 #
edge $-1 $466 -19.6850393700783 $386 19.685039370078698 $390 $467 forward 7 unknown #
point $-1 2000.0000000000011 2000.0000000000011 0 #
straight-curve $-1 10999.999999999991 2500 0 0 25.399999999999999 0 I I #
straight-curve $-1 2000.0000000000011 9.1845476536678257e-014 2999.9999999999886 0 -25.399999999999999 -1.5552500693544201e-015 I I #
plane-surface $-1 6500.00000000001 2999.9999999999886 0 0 1 0 0 0 25.399999999999999 forward_v I I I I #
edge $-1 $466 0 $417 118.110236220472 $397 $468 forward 7 unknown #
edge $-1 $449 -255.90551181102299 $403 -177.16535433070797 $400 $469 forward 7 unknown #
vertex $-1 $401 $470 #
straight-curve $-1 12999.999999999993 2999.9999999999886 0 0 0 25.399999999999999 I I #
point $-1 10999.999999999991 2999.9999999999886 0 #
plane-surface $-1 6500.00000000001 1499.9999999999993 8999.9999999999909 0 0 1 25.399999999999999 0 0 forward_v I I I I #
plane-surface $-1 12999.999999999993 1499.9999999999993 0 1 0 0 0 0 -25.399999999999999 forward_v I I I I #
straight-curve $-1 6500.00000000001 2999.9999999999886 8999.9999999999909 25.399999999999999 0 0 I I #
point $-1 12999.999999999993 2999.9999999999886 8999.9999999999909 #
edge $-1 $466 177.16535433070902 $422 255.90551181102401 $416 $471 forward 7 unknown #
point $-1 2000.0000000000011 2999.9999999999886 2999.9999999999886 #
straight-curve $-1 0 1499.9999999999993 0 0 -25.399999999999999 0 I I #
point $-1 0 2999.9999999999886 0 #
straight-curve $-1 0 1499.9999999999993 8999.9999999999909 0 25.399999999999999 0 I I #
straight-curve $-1 0 0 0 0 0 25.399999999999999 I I #
point $-1 0 0 8999.9999999999909 #
point $-1 0 0 0 #
straight-curve $-1 12999.999999999993 1499.9999999999993 0 0 25.399999999999999 0 I I #
straight-curve $-1 12999.999999999993 1499.9999999999993 8999.9999999999909 0 -25.399999999999999 0 I I #
vertex $-1 $447 $472 #
straight-curve $-1 2000.0000000000011 2500 0 0 -25.399999999999999 0 I I #
straight-curve $-1 2000.0000000000011 2999.9999999999886 0 0 0 25.399999999999999 I I #
straight-curve $-1 6500.00000000001 2999.9999999999886 0 -25.399999999999999 0 0 I I #
point $-1 12999.999999999993 2999.9999999999886 0 #
straight-curve $-1 6500.00000000001 2999.9999999999886 0 -25.399999999999999 0 0 I I #
point $-1 2000.0000000000011 2999.9999999999886 0 #
End-of-ACIS-data 