600 0 1 0           
124 GICL ACIS Healer - Source: /gicl/data5/repository/Parasolid/NIST/Pete_Brown/Torpedo_Motor/intersect/intersect.step.sat - 6 0 18 ACIS 6.0.3 Solaris 24 Sun Apr 14 00:23:03 2002 
1 9.999999999999999547e-07 1.000000000000000036e-10 
body $-1 $1 $-1 $-1 #
lump $-1 $-1 $2 $0 #
shell $-1 $-1 $-1 $3 $-1 $1 #
face $-1 $4 $5 $2 $-1 $6 reversed single #
face $-1 $7 $8 $2 $-1 $9 reversed single #
loop $-1 $-1 $10 $3 #
plane-surface $-1 6999.999999999989996 1699.999999999999545 4500.000000000008185 0 -1 -6.123031769111889989e-17 0 1.555250069354420065e-15 -25.39999999999999858 forward_v I I I I #
face $-1 $11 $12 $2 $-1 $13 reversed single #
loop $-1 $-1 $14 $4 #
cone-surface $-1 6999.999999999989996 1699.999999999999545 4500.000000000008185 0 1 6.123031769111889989e-17 1499.999999999999318 0 0 1 I I 0 1 1499.999999999999318 forward I I I I #
coedge $-1 $15 $15 $14 $16 forward $5 $-1 #
face $-1 $17 $18 $2 $-1 $19 reversed single #
loop $-1 $-1 $20 $7 #
cone-surface $-1 6999.999999999989996 1699.999999999999545 4500.000000000008185 0 1 6.123031769111889989e-17 1499.999999999999318 0 0 1 I I 0 1 1499.999999999999318 forward I I I I #
coedge $-1 $21 $22 $10 $16 reversed $8 $-1 #
coedge $-1 $10 $10 $23 $24 reversed $5 $-1 #
edge $-1 $25 -2.411864997362824781 $26 -0.729727656226956789 $10 $27 forward 7 unknown #
face $-1 $28 $29 $2 $-1 $30 reversed single #
loop $-1 $-1 $31 $11 #
plane-surface $-1 6999.999999999989996 1699.999999999999545 4500.000000000008185 0 -1 -6.123031769111889989e-17 0 1.555250069354420065e-15 -25.39999999999999858 forward_v I I I I #
coedge $-1 $32 $33 $31 $34 reversed $12 $-1 #
coedge $-1 $35 $14 $36 $37 reversed $8 $-1 #
coedge $-1 $14 $35 $38 $39 reversed $8 $-1 #
coedge $-1 $38 $36 $15 $24 forward $40 $-1 #
edge $-1 $25 -24.33204680117700036 $26 63.70212554133394889 $15 $41 forward 7 unknown #
vertex $-1 $16 $42 #
vertex $-1 $16 $43 #
ellipse-curve $-1 6999.999999999989996 1699.999999999999545 4500.000000000008185 0 1 6.123031769111889989e-17 1499.999999999999318 0 0 1 I I #
face $-1 $44 $40 $2 $-1 $45 reversed single #
loop $-1 $46 $47 $17 #
cone-surface $-1 2000.000000000001137 0 4500.000000000008185 0 1 6.123031769111889989e-17 1499.999999999999318 0 0 1 I I 0 1 1499.999999999999318 forward I I I I #
coedge $-1 $48 $48 $20 $34 forward $18 $-1 #
coedge $-1 $49 $20 $50 $51 reversed $12 $-1 #
coedge $-1 $20 $49 $52 $53 reversed $12 $-1 #
edge $-1 $54 0.7297276562269696676 $55 2.411864997362811902 $20 $56 forward 7 unknown #
coedge $-1 $22 $21 $57 $58 reversed $8 $-1 #
coedge $-1 $23 $59 $21 $37 forward $40 $-1 #
edge $-1 $60 -11.8110236220473066 $25 0 $21 $61 forward 7 unknown #
coedge $-1 $62 $23 $22 $39 forward $40 $-1 #
edge $-1 $26 0 $63 11.8110236220473066 $22 $64 forward 7 unknown #
loop $-1 $-1 $23 $28 #
straight-curve $-1 6500.000000000010004 1699.999999999999545 5499.999999999995453 25.39999999999999858 0 0 I I #
point $-1 5881.966011250114207 1699.999999999999545 5499.999999999995453 #
point $-1 8118.03398874989216 1699.999999999999545 5499.999999999995453 #
face $-1 $65 $66 $2 $-1 $67 reversed single #
plane-surface $-1 6500.000000000010004 2249.999999999999091 5499.999999999995453 0 0 1 25.39999999999999858 0 0 forward_v I I I I #
loop $-1 $-1 $68 $17 #
coedge $-1 $47 $47 $69 $70 reversed $29 $-1 #
coedge $-1 $31 $31 $71 $72 reversed $18 $-1 #
coedge $-1 $33 $32 $73 $74 reversed $12 $-1 #
coedge $-1 $71 $75 $32 $51 forward $76 $-1 #
edge $-1 $77 -11.8110236220473066 $54 0 $32 $78 forward 7 unknown #
coedge $-1 $79 $71 $33 $53 forward $76 $-1 #
edge $-1 $55 0 $80 11.8110236220473066 $33 $81 forward 7 unknown #
vertex $-1 $34 $82 #
vertex $-1 $34 $83 #
ellipse-curve $-1 6999.999999999989996 1699.999999999999545 4500.000000000008185 0 1 6.123031769111889989e-17 1499.999999999999318 0 0 1 I I #
coedge $-1 $84 $85 $35 $58 forward $86 $-1 #
edge $-1 $63 2.300523983021853347 $60 3.982661324157721339 $35 $87 forward 7 unknown #
coedge $-1 $36 $88 $84 $89 reversed $40 $-1 #
vertex $-1 $37 $90 #
straight-curve $-1 5881.966011250114207 1699.999999999999545 5499.999999999995453 0 -25.39999999999999858 -1.555250069354420065e-15 I I #
coedge $-1 $91 $38 $85 $92 reversed $40 $-1 #
vertex $-1 $58 $93 #
straight-curve $-1 8118.03398874989216 1699.999999999999545 5499.999999999995453 0 25.39999999999999858 1.555250069354420065e-15 I I #
face $-1 $94 $95 $2 $-1 $96 reversed single #
loop $-1 $-1 $97 $44 #
plane-surface $-1 6500.000000000010004 2249.999999999999091 3499.999999999994998 0 0 -1 -25.39999999999999858 0 0 forward_v I I I I #
coedge $-1 $98 $99 $100 $101 reversed $46 $-1 #
coedge $-1 $69 $69 $47 $70 forward $102 $-1 #
edge $-1 $103 0 $103 6.283185307179586232 $47 $104 forward 7 unknown #
coedge $-1 $52 $50 $48 $72 forward $76 $-1 #
edge $-1 $54 -63.70212554133394889 $55 24.33204680117700036 $48 $105 forward 7 unknown #
coedge $-1 $106 $107 $49 $74 forward $108 $-1 #
edge $-1 $80 -0.8410686705679152331 $77 0.8410686705679268904 $49 $109 forward 7 unknown #
coedge $-1 $50 $110 $106 $111 reversed $76 $-1 #
loop $-1 $-1 $71 $112 #
vertex $-1 $51 $113 #
straight-curve $-1 8118.03398874989216 1699.999999999999545 3499.999999999994998 0 -25.39999999999999858 -1.555250069354420065e-15 I I #
coedge $-1 $114 $52 $107 $115 reversed $76 $-1 #
vertex $-1 $74 $116 #
straight-curve $-1 5881.966011250114207 1699.999999999999545 3499.999999999994998 0 25.39999999999999858 1.555250069354420065e-15 I I #
point $-1 8118.03398874989216 1699.999999999999545 3499.999999999994998 #
point $-1 5881.966011250114207 1699.999999999999545 3499.999999999994998 #
coedge $-1 $117 $57 $59 $89 forward $86 $-1 #
coedge $-1 $57 $118 $62 $92 forward $86 $-1 #
loop $-1 $-1 $85 $119 #
ellipse-curve $-1 6999.999999999989996 2000.000000000001137 4500.000000000008185 0 -1 0 0 0 -1499.999999999999318 1 I I #
coedge $-1 $59 $120 $121 $122 forward $40 $-1 #
edge $-1 $60 24.33204680117700036 $123 133.1482681594530391 $59 $124 forward 7 unknown #
point $-1 5881.966011250114207 2000.000000000001137 5499.999999999995453 #
coedge $-1 $125 $62 $126 $127 reversed $40 $-1 #
edge $-1 $128 -177.1653543307079133 $63 -63.70212554133394889 $62 $129 forward 7 unknown #
point $-1 8118.03398874989216 2000.000000000001137 5499.999999999995453 #
face $-1 $112 $130 $2 $-1 $131 reversed single #
loop $-1 $-1 $132 $65 #
plane-surface $-1 6500.000000000010004 1499.999999999999318 3499.999999999994998 0 -1 0 0 0 -25.39999999999999858 forward_v I I I I #
coedge $-1 $133 $134 $135 $136 forward $66 $-1 #
coedge $-1 $137 $68 $138 $139 reversed $46 $-1 #
coedge $-1 $68 $140 $141 $142 reversed $46 $-1 #
coedge $-1 $143 $144 $68 $101 forward $145 $-1 #
edge $-1 $146 -1.570796326794896558 $147 -0.7297276562269600086 $68 $148 forward 7 unknown #
loop $-1 $149 $69 $150 #
vertex $-1 $70 $151 #
ellipse-curve $-1 2000.000000000001137 0 4500.000000000008185 0 1 6.123031769111889989e-17 1499.999999999999318 0 0 1 I I #
straight-curve $-1 6500.000000000010004 1699.999999999999545 3499.999999999994998 -25.39999999999999858 0 0 I I #
coedge $-1 $152 $73 $75 $111 forward $108 $-1 #
coedge $-1 $73 $153 $79 $115 forward $108 $-1 #
loop $-1 $-1 $107 $154 #
ellipse-curve $-1 6999.999999999989996 2000.000000000001137 4500.000000000008185 0 -1 0 0 0 -1499.999999999999318 1 I I #
coedge $-1 $75 $155 $156 $157 reversed $76 $-1 #
edge $-1 $77 63.70212554133394889 $158 177.1653543307079133 $75 $159 forward 7 unknown #
face $-1 $160 $76 $2 $-1 $161 reversed single #
point $-1 8118.03398874989216 2000.000000000001137 3499.999999999994998 #
coedge $-1 $162 $79 $163 $164 forward $76 $-1 #
edge $-1 $165 -133.1482681594530391 $80 -24.33204680117700036 $79 $166 forward 7 unknown #
point $-1 5881.966011250114207 2000.000000000001137 3499.999999999994998 #
coedge $-1 $167 $84 $137 $168 forward $86 $-1 #
coedge $-1 $85 $169 $170 $171 reversed $86 $-1 #
face $-1 $172 $86 $2 $-1 $173 reversed single #
coedge $-1 $88 $174 $175 $176 forward $40 $-1 #
coedge $-1 $177 $137 $88 $122 reversed $46 $-1 #
edge $-1 $178 59.05511811023619373 $123 78.7401574803150055 $121 $179 forward 7 unknown #
vertex $-1 $168 $180 #
straight-curve $-1 6500.000000000010004 2000.000000000001137 5499.999999999995453 -25.39999999999999858 0 0 I I #
coedge $-1 $174 $91 $181 $182 forward $40 $-1 #
coedge $-1 $170 $183 $91 $127 forward $184 $-1 #
edge $-1 $185 -19.68503937007829308 $128 19.68503937007869808 $91 $186 forward 7 unknown #
vertex $-1 $92 $187 #
straight-curve $-1 6500.000000000010004 2000.000000000001137 5499.999999999995453 -25.39999999999999858 0 0 I I #
loop $-1 $-1 $188 $94 #
plane-surface $-1 6500.000000000010004 2249.999999999999091 5499.999999999995453 0 0 1 25.39999999999999858 0 0 forward_v I I I I #
coedge $-1 $189 $190 $162 $191 reversed $95 $-1 #
coedge $-1 $192 $97 $193 $194 forward $66 $-1 #
coedge $-1 $97 $192 $195 $196 forward $66 $-1 #
coedge $-1 $197 $198 $97 $136 reversed $199 $-1 #
edge $-1 $200 -255.9055118110240414 $201 -221.1824405019647486 $97 $202 forward 7 unknown #
coedge $-1 $121 $98 $117 $168 reversed $46 $-1 #
coedge $-1 $203 $204 $98 $139 forward $205 $-1 #
edge $-1 $206 78.7401574803150055 $146 118.1102362204720038 $98 $207 forward 7 unknown #
coedge $-1 $99 $193 $198 $208 reversed $46 $-1 #
coedge $-1 $209 $188 $99 $142 forward $130 $-1 #
edge $-1 $147 -118.1102362204720038 $210 -59.05511811023619373 $99 $211 forward 7 unknown #
coedge $-1 $212 $100 $188 $213 reversed $145 $-1 #
coedge $-1 $100 $214 $203 $215 reversed $145 $-1 #
loop $-1 $-1 $100 $216 #
vertex $-1 $101 $217 #
vertex $-1 $101 $218 #
ellipse-curve $-1 2000.000000000001137 2999.999999999988631 4500.000000000008185 0 -1 -6.123031769111889989e-17 -1499.999999999999318 0 0 1 I I #
loop $-1 $-1 $219 $150 #
face $-1 $220 $102 $2 $-1 $221 forward single #
point $-1 3499.999999999994998 0 4500.000000000008185 #
coedge $-1 $222 $106 $223 $224 reversed $108 $-1 #
coedge $-1 $107 $225 $226 $227 forward $108 $-1 #
face $-1 $228 $108 $2 $-1 $229 reversed single #
coedge $-1 $110 $230 $231 $232 forward $76 $-1 #
coedge $-1 $233 $223 $110 $157 forward $234 $-1 #
edge $-1 $158 -19.68503937007869808 $235 19.68503937007829308 $110 $236 forward 7 unknown #
vertex $-1 $157 $237 #
straight-curve $-1 6500.000000000010004 2000.000000000001137 3499.999999999994998 25.39999999999999858 0 0 I I #
face $-1 $119 $199 $2 $-1 $238 reversed single #
plane-surface $-1 6500.000000000010004 2249.999999999999091 3499.999999999994998 0 0 -1 -25.39999999999999858 0 0 forward_v I I I I #
coedge $-1 $230 $114 $132 $191 forward $76 $-1 #
coedge $-1 $226 $177 $114 $164 reversed $46 $-1 #
edge $-1 $165 -78.7401574803150055 $239 -59.05511811023619373 $163 $240 forward 7 unknown #
vertex $-1 $164 $241 #
straight-curve $-1 6500.000000000010004 2000.000000000001137 3499.999999999994998 25.39999999999999858 0 0 I I #
coedge $-1 $169 $117 $204 $242 forward $86 $-1 #
edge $-1 $123 2.300523983021853347 $206 3.141592653589793116 $137 $243 forward 7 unknown #
coedge $-1 $118 $167 $244 $245 reversed $86 $-1 #
coedge $-1 $246 $126 $118 $171 forward $184 $-1 #
edge $-1 $128 216.5354330708659631 $247 354.3307086614169634 $118 $248 forward 7 unknown #
face $-1 $249 $205 $2 $-1 $250 reversed single #
plane-surface $-1 6500.000000000010004 2000.000000000001137 0 0 -1 0 0 0 -25.39999999999999858 forward_v I I I I #
coedge $-1 $120 $125 $251 $252 forward $40 $-1 #
coedge $-1 $190 $189 $120 $176 reversed $95 $-1 #
edge $-1 $253 -255.9055118110229614 $178 133.1482681594530391 $120 $254 forward 7 unknown #
coedge $-1 $163 $121 $189 $255 reversed $46 $-1 #
vertex $-1 $122 $256 #
straight-curve $-1 3118.033988749903074 0 5499.999999999995453 0 25.39999999999999858 1.555250069354420065e-15 I I #
point $-1 3118.033988749903074 2000.000000000001137 5499.999999999995453 #
coedge $-1 $257 $258 $125 $182 reversed $259 $-1 #
edge $-1 $185 177.1653543307079133 $260 255.9055118110229614 $125 $261 forward 7 unknown #
coedge $-1 $126 $246 $257 $262 reversed $184 $-1 #
loop $-1 $-1 $183 $249 #
vertex $-1 $127 $263 #
straight-curve $-1 10999.99999999999091 2500 5499.999999999995453 0 -25.39999999999999858 0 I I #
point $-1 10999.99999999999091 2000.000000000001137 5499.999999999995453 #
coedge $-1 $141 $264 $143 $213 forward $130 $-1 #
coedge $-1 $175 $132 $177 $255 forward $95 $-1 #
coedge $-1 $132 $175 $265 $266 reversed $95 $-1 #
edge $-1 $239 -133.1482681594530391 $267 255.9055118110229614 $132 $268 forward 7 unknown #
coedge $-1 $134 $133 $269 $270 forward $66 $-1 #
coedge $-1 $140 $271 $133 $194 reversed $46 $-1 #
edge $-1 $201 59.05511811023619373 $272 118.1102362204720038 $193 $273 forward 7 unknown #
coedge $-1 $274 $275 $134 $196 reversed $276 $-1 #
edge $-1 $277 -29.52755905511769896 $200 29.52755905511810397 $134 $278 forward 7 unknown #
coedge $-1 $279 $135 $275 $280 forward $199 $-1 #
coedge $-1 $135 $279 $140 $208 forward $199 $-1 #
loop $-1 $-1 $279 $160 #
vertex $-1 $136 $281 #
vertex $-1 $194 $282 #
straight-curve $-1 6500.000000000010004 1499.999999999999318 3499.999999999994998 25.39999999999999858 0 0 I I #
coedge $-1 $283 $138 $144 $215 forward $205 $-1 #
coedge $-1 $138 $283 $167 $242 reversed $205 $-1 #
loop $-1 $-1 $204 $172 #
vertex $-1 $139 $284 #
straight-curve $-1 2000.000000000001137 -9.18454765366782565e-14 6000.000000000002728 0 25.39999999999999858 1.555250069354420065e-15 I I #
edge $-1 $210 -2.3005239830218569 $201 -0.8410686705679236708 $140 $285 forward 7 unknown #
coedge $-1 $264 $141 $279 $286 forward $130 $-1 #
vertex $-1 $208 $287 #
straight-curve $-1 881.9660112501061349 0 5499.999999999995453 0 -25.39999999999999858 -1.555250069354420065e-15 I I #
coedge $-1 $214 $143 $288 $289 forward $145 $-1 #
edge $-1 $290 -255.9055118110240414 $147 -221.1824405019647486 $188 $291 forward 7 unknown #
coedge $-1 $144 $212 $292 $293 forward $145 $-1 #
edge $-1 $146 236.2204724409450023 $294 354.3307086614169634 $203 $295 forward 7 unknown #
face $-1 $296 $145 $2 $-1 $297 forward single #
point $-1 2000.000000000001137 2999.999999999988631 6000.000000000002728 #
point $-1 881.9660112501061349 2999.999999999988631 5499.999999999995453 #
coedge $-1 $298 $299 $300 $301 forward $149 $-1 #
face $-1 $302 $276 $2 $-1 $303 forward single #
plane-surface $-1 6500.000000000010004 0 0 0 -1 0 0 0 -25.39999999999999858 forward_v I I I I #
coedge $-1 $225 $152 $304 $305 reversed $108 $-1 #
coedge $-1 $156 $306 $152 $224 forward $234 $-1 #
edge $-1 $307 0 $158 137.7952755905510003 $152 $308 forward 7 unknown #
coedge $-1 $153 $222 $309 $310 forward $108 $-1 #
coedge $-1 $311 $163 $153 $227 reversed $46 $-1 #
edge $-1 $312 0 $165 0.8410686705679267794 $226 $313 forward 7 unknown #
face $-1 $314 $315 $2 $-1 $316 reversed single #
plane-surface $-1 6500.000000000010004 2000.000000000001137 0 0 -1 0 0 0 -25.39999999999999858 forward_v I I I I #
coedge $-1 $155 $162 $317 $318 forward $76 $-1 #
coedge $-1 $319 $320 $155 $232 reversed $321 $-1 #
edge $-1 $322 -255.9055118110229614 $235 -177.1653543307079133 $155 $323 forward 7 unknown #
coedge $-1 $306 $156 $320 $324 reversed $234 $-1 #
loop $-1 $-1 $223 $314 #
vertex $-1 $232 $325 #
straight-curve $-1 10999.99999999999091 2500 3499.999999999994998 0 25.39999999999999858 0 I I #
point $-1 10999.99999999999091 2000.000000000001137 3499.999999999994998 #
plane-surface $-1 6500.000000000010004 1499.999999999999318 3499.999999999994998 0 -1 0 0 0 -25.39999999999999858 forward_v I I I I #
vertex $-1 $255 $326 #
straight-curve $-1 3118.033988749903074 0 3499.999999999994998 0 -25.39999999999999858 -1.555250069354420065e-15 I I #
point $-1 3118.033988749903074 2000.000000000001137 3499.999999999994998 #
edge $-1 $206 236.2204724409450023 $327 354.3307086614169634 $167 $328 forward 7 unknown #
ellipse-curve $-1 2000.000000000001137 2000.000000000001137 4500.000000000008185 0 -1 0 0 0 -1499.999999999999318 1 I I #
coedge $-1 $329 $330 $169 $245 forward $331 $-1 #
edge $-1 $247 -177.1653543307079133 $327 177.1653543307090217 $169 $332 forward 7 unknown #
coedge $-1 $183 $170 $330 $333 reversed $184 $-1 #
vertex $-1 $245 $334 #
straight-curve $-1 10999.99999999999091 2000.000000000001137 0 0 0 25.39999999999999858 I I #
face $-1 $216 $184 $2 $-1 $335 reversed single #
plane-surface $-1 2000.000000000001137 2500 0 -1 0 0 0 0 25.39999999999999858 forward_v I I I I #
coedge $-1 $336 $265 $174 $252 reversed $337 $-1 #
edge $-1 $260 -29.52755905511769896 $253 29.52755905511810397 $174 $338 forward 7 unknown #
vertex $-1 $252 $339 #
straight-curve $-1 6500.000000000010004 1499.999999999999318 5499.999999999995453 -25.39999999999999858 0 0 I I #
edge $-1 $239 0.8410686705679267794 $178 2.300523983021853347 $177 $340 forward 7 unknown #
point $-1 3118.033988749903074 1499.999999999999318 5499.999999999995453 #
coedge $-1 $341 $181 $183 $262 forward $259 $-1 #
coedge $-1 $181 $341 $336 $342 reversed $259 $-1 #
loop $-1 $-1 $181 $296 #
vertex $-1 $182 $343 #
straight-curve $-1 6500.000000000010004 2999.999999999988631 5499.999999999995453 25.39999999999999858 0 0 I I #
edge $-1 $185 216.5354330708659631 $344 354.3307086614169634 $183 $345 forward 7 unknown #
point $-1 10999.99999999999091 2999.999999999988631 5499.999999999995453 #
coedge $-1 $188 $209 $346 $347 forward $130 $-1 #
coedge $-1 $251 $317 $190 $266 forward $337 $-1 #
edge $-1 $267 0 $253 78.74015748031497708 $190 $348 forward 7 unknown #
vertex $-1 $191 $349 #
straight-curve $-1 6500.000000000010004 1499.999999999999318 3499.999999999994998 25.39999999999999858 0 0 I I #
coedge $-1 $350 $351 $192 $270 reversed $352 $-1 #
edge $-1 $272 221.1824405019647486 $277 255.9055118110240414 $192 $353 forward 7 unknown #
coedge $-1 $193 $311 $350 $354 reversed $46 $-1 #
vertex $-1 $354 $355 #
straight-curve $-1 881.9660112501061349 0 3499.999999999994998 0 25.39999999999999858 1.555250069354420065e-15 I I #
coedge $-1 $356 $195 $351 $357 reversed $276 $-1 #
coedge $-1 $195 $346 $197 $280 reversed $276 $-1 #
loop $-1 $-1 $346 $220 #
vertex $-1 $270 $358 #
straight-curve $-1 0 2249.999999999999091 3499.999999999994998 0 -25.39999999999999858 0 I I #
coedge $-1 $198 $197 $209 $286 reversed $199 $-1 #
edge $-1 $200 0 $359 78.74015748031497708 $197 $360 forward 7 unknown #
point $-1 0 1499.999999999999318 3499.999999999994998 #
point $-1 881.9660112501061349 1499.999999999999318 3499.999999999994998 #
coedge $-1 $204 $203 $329 $361 reversed $205 $-1 #
point $-1 2000.000000000001137 2000.000000000001137 6000.000000000002728 #
ellipse-curve $-1 2000.000000000001137 1499.999999999999318 4500.000000000008185 0 -1 0 0 0 -1499.999999999999318 1 I I #
edge $-1 $210 221.1824405019647486 $359 255.9055118110240414 $209 $362 forward 7 unknown #
point $-1 881.9660112501061349 1499.999999999999318 5499.999999999995453 #
coedge $-1 $346 $363 $212 $289 reversed $276 $-1 #
edge $-1 $290 216.5354330708659631 $364 354.3307086614169634 $212 $365 forward 7 unknown #
vertex $-1 $213 $366 #
straight-curve $-1 6500.000000000010004 2999.999999999988631 5499.999999999995453 25.39999999999999858 0 0 I I #
coedge $-1 $367 $329 $214 $293 reversed $331 $-1 #
edge $-1 $364 -255.9055118110240414 $294 -177.1653543307090217 $214 $368 forward 7 unknown #
vertex $-1 $215 $369 #
straight-curve $-1 2000.000000000001137 2999.999999999988631 0 0 0 25.39999999999999858 I I #
face $-1 $154 $259 $2 $-1 $370 forward single #
plane-surface $-1 6500.000000000010004 2999.999999999988631 0 0 1 0 0 0 25.39999999999999858 forward_v I I I I #
coedge $-1 $371 $219 $372 $373 forward $149 $-1 #
coedge $-1 $219 $371 $374 $375 forward $149 $-1 #
coedge $-1 $376 $377 $219 $301 reversed $337 $-1 #
edge $-1 $378 0 $379 354.3307086614169634 $219 $380 forward 7 unknown #
face $-1 $381 $321 $2 $-1 $382 forward single #
plane-surface $-1 0 1499.999999999999318 0 -1 0 0 0 0 25.39999999999999858 forward_v I I I I #
coedge $-1 $383 $384 $222 $305 forward $385 $-1 #
edge $-1 $386 -177.1653543307090217 $307 177.1653543307079133 $222 $387 forward 7 unknown #
coedge $-1 $223 $233 $383 $388 reversed $234 $-1 #
vertex $-1 $224 $389 #
straight-curve $-1 10999.99999999999091 2000.000000000001137 0 0 0 25.39999999999999858 I I #
coedge $-1 $390 $391 $225 $310 reversed $315 $-1 #
edge $-1 $386 0 $312 118.1102362204720038 $225 $392 forward 7 unknown #
coedge $-1 $271 $226 $391 $393 reversed $46 $-1 #
vertex $-1 $227 $394 #
ellipse-curve $-1 2000.000000000001137 2000.000000000001137 4500.000000000008185 0 -1 0 0 0 -1499.999999999999318 1 I I #
face $-1 $395 $234 $2 $-1 $396 reversed single #
loop $-1 $-1 $397 $228 #
plane-surface $-1 2000.000000000001137 2500 0 -1 0 0 0 0 25.39999999999999858 forward_v I I I I #
coedge $-1 $265 $398 $230 $318 reversed $337 $-1 #
edge $-1 $267 -29.52755905511810397 $322 29.52755905511769896 $230 $399 forward 7 unknown #
coedge $-1 $400 $231 $398 $401 reversed $321 $-1 #
coedge $-1 $231 $400 $233 $324 forward $321 $-1 #
loop $-1 $-1 $231 $302 #
vertex $-1 $318 $402 #
straight-curve $-1 6500.000000000010004 2999.999999999988631 3499.999999999994998 -25.39999999999999858 0 0 I I #
edge $-1 $403 0 $235 137.7952755905510003 $233 $404 forward 7 unknown #
point $-1 10999.99999999999091 2999.999999999988631 3499.999999999994998 #
point $-1 3118.033988749903074 1499.999999999999318 3499.999999999994998 #
vertex $-1 $242 $405 #
straight-curve $-1 2000.000000000001137 2000.000000000001137 0 0 0 25.39999999999999858 I I #
coedge $-1 $292 $244 $283 $361 forward $331 $-1 #
coedge $-1 $244 $406 $246 $333 forward $331 $-1 #
loop $-1 $-1 $329 $407 #
straight-curve $-1 6500.000000000010004 2000.000000000001137 8999.999999999990905 -25.39999999999999858 0 0 I I #
edge $-1 $344 -19.68503937007829308 $247 19.68503937007869808 $246 $408 forward 7 unknown #
point $-1 10999.99999999999091 2000.000000000001137 8999.999999999990905 #
plane-surface $-1 10999.99999999999091 2500 0 1 0 0 0 0 -25.39999999999999858 forward_v I I I I #
coedge $-1 $377 $251 $258 $342 forward $337 $-1 #
loop $-1 $-1 $251 $409 #
straight-curve $-1 12999.99999999999272 2249.999999999999091 5499.999999999995453 0 -25.39999999999999858 0 I I #
point $-1 12999.99999999999272 1499.999999999999318 5499.999999999995453 #
ellipse-curve $-1 2000.000000000001137 1499.999999999999318 4500.000000000008185 0 -1 0 0 0 -1499.999999999999318 1 I I #
coedge $-1 $258 $257 $406 $410 forward $259 $-1 #
edge $-1 $260 216.5354330708659631 $411 354.3307086614169634 $258 $412 forward 7 unknown #
point $-1 12999.99999999999272 2999.999999999988631 5499.999999999995453 #
vertex $-1 $262 $413 #
straight-curve $-1 10999.99999999999091 2999.999999999988631 0 0 0 25.39999999999999858 I I #
coedge $-1 $275 $288 $264 $347 reversed $276 $-1 #
edge $-1 $359 -29.52755905511810397 $290 29.52755905511769896 $264 $414 forward 7 unknown #
straight-curve $-1 12999.99999999999272 1499.999999999999318 3499.999999999994998 0 0 25.39999999999999858 I I #
point $-1 12999.99999999999272 1499.999999999999318 3499.999999999994998 #
coedge $-1 $415 $269 $271 $354 forward $352 $-1 #
coedge $-1 $269 $416 $274 $357 forward $352 $-1 #
loop $-1 $-1 $350 $395 #
straight-curve $-1 6500.000000000010004 2999.999999999988631 3499.999999999994998 -25.39999999999999858 0 0 I I #
edge $-1 $272 0.7297276562269729983 $417 1.570796326794896558 $271 $418 forward 7 unknown #
point $-1 881.9660112501061349 2999.999999999988631 3499.999999999994998 #
coedge $-1 $419 $274 $420 $421 forward $276 $-1 #
edge $-1 $422 0 $277 137.7952755905510003 $351 $423 forward 7 unknown #
point $-1 0 2999.999999999988631 3499.999999999994998 #
vertex $-1 $286 $424 #
straight-curve $-1 0 1499.999999999999318 3499.999999999994998 0 0 25.39999999999999858 I I #
edge $-1 $327 -19.68503937007869808 $294 19.68503937007829308 $283 $425 forward 7 unknown #
straight-curve $-1 6500.000000000010004 1499.999999999999318 5499.999999999995453 -25.39999999999999858 0 0 I I #
coedge $-1 $288 $419 $367 $426 forward $276 $-1 #
vertex $-1 $289 $427 #
straight-curve $-1 0 2999.999999999988631 0 0 0 25.39999999999999858 I I #
point $-1 0 2999.999999999988631 5499.999999999995453 #
coedge $-1 $372 $292 $363 $426 reversed $331 $-1 #
straight-curve $-1 6500.000000000010004 2999.999999999988631 8999.999999999990905 25.39999999999999858 0 0 I I #
point $-1 2000.000000000001137 2999.999999999988631 8999.999999999990905 #
plane-surface $-1 6500.000000000010004 2999.999999999988631 0 0 1 0 0 0 25.39999999999999858 forward_v I I I I #
coedge $-1 $299 $298 $419 $428 reversed $149 $-1 #
coedge $-1 $429 $367 $298 $373 reversed $331 $-1 #
edge $-1 $379 -255.9055118110229614 $430 255.9055118110240414 $372 $431 forward 7 unknown #
coedge $-1 $420 $432 $299 $375 reversed $385 $-1 #
edge $-1 $433 -255.9055118110240414 $378 255.9055118110229614 $299 $434 forward 7 unknown #
coedge $-1 $398 $300 $432 $435 forward $337 $-1 #
coedge $-1 $300 $336 $429 $436 forward $337 $-1 #
vertex $-1 $301 $437 #
vertex $-1 $373 $438 #
straight-curve $-1 12999.99999999999272 0 0 0 0 25.39999999999999858 I I #
face $-1 $409 $385 $2 $-1 $439 forward single #
plane-surface $-1 6500.000000000010004 2999.999999999988631 0 0 1 0 0 0 25.39999999999999858 forward_v I I I I #
coedge $-1 $440 $304 $306 $388 forward $385 $-1 #
coedge $-1 $304 $441 $390 $442 forward $385 $-1 #
loop $-1 $-1 $384 $381 #
vertex $-1 $305 $443 #
straight-curve $-1 6500.000000000010004 2000.000000000001137 0 25.39999999999999858 0 0 I I #
edge $-1 $307 -19.68503937007869808 $403 19.68503937007829308 $306 $444 forward 7 unknown #
point $-1 10999.99999999999091 2000.000000000001137 0 #
coedge $-1 $397 $309 $384 $442 reversed $315 $-1 #
coedge $-1 $309 $397 $311 $393 forward $315 $-1 #
straight-curve $-1 2000.000000000001137 2000.000000000001137 0 0 0 25.39999999999999858 I I #
edge $-1 $417 -118.1102362204720038 $312 -78.7401574803150055 $311 $445 forward 7 unknown #
point $-1 2000.000000000001137 2000.000000000001137 2999.999999999988631 #
face $-1 $407 $352 $2 $-1 $446 forward single #
plane-surface $-1 10999.99999999999091 2500 0 1 0 0 0 0 -25.39999999999999858 forward_v I I I I #
coedge $-1 $391 $390 $415 $447 forward $315 $-1 #
coedge $-1 $317 $376 $319 $401 forward $337 $-1 #
straight-curve $-1 12999.99999999999272 2249.999999999999091 3499.999999999994998 0 25.39999999999999858 0 I I #
coedge $-1 $320 $319 $440 $448 forward $321 $-1 #
edge $-1 $449 0 $322 137.7952755905510003 $319 $450 forward 7 unknown #
point $-1 12999.99999999999272 2999.999999999988631 3499.999999999994998 #
vertex $-1 $324 $451 #
straight-curve $-1 10999.99999999999091 2999.999999999988631 0 0 0 25.39999999999999858 I I #
point $-1 2000.000000000001137 2000.000000000001137 8999.999999999990905 #
coedge $-1 $330 $429 $341 $410 reversed $331 $-1 #
face $-1 $150 $331 $2 $-1 $452 forward single #
straight-curve $-1 10999.99999999999091 2500 8999.999999999990905 0 -25.39999999999999858 0 I I #
face $-1 $-1 $337 $2 $-1 $453 forward single #
edge $-1 $344 177.1653543307079133 $411 255.9055118110229614 $341 $454 forward 7 unknown #
vertex $-1 $410 $455 #
straight-curve $-1 12999.99999999999272 2999.999999999988631 0 0 0 25.39999999999999858 I I #
point $-1 10999.99999999999091 2999.999999999988631 8999.999999999990905 #
straight-curve $-1 0 2249.999999999999091 5499.999999999995453 0 25.39999999999999858 0 I I #
coedge $-1 $416 $350 $397 $447 reversed $352 $-1 #
coedge $-1 $351 $415 $441 $456 forward $352 $-1 #
vertex $-1 $393 $457 #
ellipse-curve $-1 2000.000000000001137 2999.999999999988631 4500.000000000008185 0 -1 -6.123031769111889989e-17 -1499.999999999999318 0 0 1 I I #
coedge $-1 $363 $356 $371 $428 forward $276 $-1 #
coedge $-1 $441 $374 $356 $421 reversed $385 $-1 #
edge $-1 $422 -59.05511811023580293 $433 59.05511811023619373 $356 $458 forward 7 unknown #
vertex $-1 $456 $459 #
straight-curve $-1 0 2999.999999999988631 0 0 0 25.39999999999999858 I I #
point $-1 0 1499.999999999999318 5499.999999999995453 #
straight-curve $-1 2000.000000000001137 2500 8999.999999999990905 0 25.39999999999999858 0 I I #
edge $-1 $430 -59.05511811023619373 $364 59.05511811023580293 $367 $460 forward 7 unknown #
point $-1 0 2999.999999999988631 8999.999999999990905 #
edge $-1 $433 0 $430 354.3307086614169634 $371 $461 forward 7 unknown #
coedge $-1 $406 $372 $377 $436 reversed $331 $-1 #
vertex $-1 $426 $462 #
straight-curve $-1 6500.000000000010004 0 8999.999999999990905 -25.39999999999999858 0 0 I I #
coedge $-1 $374 $440 $376 $435 reversed $385 $-1 #
vertex $-1 $428 $463 #
straight-curve $-1 6500.000000000010004 0 0 25.39999999999999858 0 0 I I #
edge $-1 $378 -59.05511811023619373 $449 59.05511811023580293 $432 $464 forward 7 unknown #
edge $-1 $411 -59.05511811023580293 $379 59.05511811023619373 $429 $465 forward 7 unknown #
point $-1 12999.99999999999272 0 0 #
point $-1 12999.99999999999272 0 8999.999999999990905 #
plane-surface $-1 6500.000000000010004 1499.999999999999318 0 0 0 -1 -25.39999999999999858 0 0 forward_v I I I I #
coedge $-1 $432 $383 $400 $448 reversed $385 $-1 #
coedge $-1 $384 $420 $416 $456 reversed $385 $-1 #
edge $-1 $466 -19.68503937007829308 $386 19.68503937007869808 $390 $467 forward 7 unknown #
point $-1 2000.000000000001137 2000.000000000001137 0 #
straight-curve $-1 10999.99999999999091 2500 0 0 25.39999999999999858 0 I I #
straight-curve $-1 2000.000000000001137 9.18454765366782565e-14 2999.999999999988631 0 -25.39999999999999858 -1.555250069354420065e-15 I I #
plane-surface $-1 6500.000000000010004 2999.999999999988631 0 0 1 0 0 0 25.39999999999999858 forward_v I I I I #
edge $-1 $466 0 $417 118.1102362204720038 $397 $468 forward 7 unknown #
edge $-1 $449 -255.9055118110229614 $403 -177.1653543307079133 $400 $469 forward 7 unknown #
vertex $-1 $401 $470 #
straight-curve $-1 12999.99999999999272 2999.999999999988631 0 0 0 25.39999999999999858 I I #
point $-1 10999.99999999999091 2999.999999999988631 0 #
plane-surface $-1 6500.000000000010004 1499.999999999999318 8999.999999999990905 0 0 1 25.39999999999999858 0 0 forward_v I I I I #
plane-surface $-1 12999.99999999999272 1499.999999999999318 0 1 0 0 0 0 -25.39999999999999858 forward_v I I I I #
straight-curve $-1 6500.000000000010004 2999.999999999988631 8999.999999999990905 25.39999999999999858 0 0 I I #
point $-1 12999.99999999999272 2999.999999999988631 8999.999999999990905 #
edge $-1 $466 177.1653543307090217 $422 255.9055118110240414 $416 $471 forward 7 unknown #
point $-1 2000.000000000001137 2999.999999999988631 2999.999999999988631 #
straight-curve $-1 0 1499.999999999999318 0 0 -25.39999999999999858 0 I I #
point $-1 0 2999.999999999988631 0 #
straight-curve $-1 0 1499.999999999999318 8999.999999999990905 0 25.39999999999999858 0 I I #
straight-curve $-1 0 0 0 0 0 25.39999999999999858 I I #
point $-1 0 0 8999.999999999990905 #
point $-1 0 0 0 #
straight-curve $-1 12999.99999999999272 1499.999999999999318 0 0 25.39999999999999858 0 I I #
straight-curve $-1 12999.99999999999272 1499.999999999999318 8999.999999999990905 0 -25.39999999999999858 0 I I #
vertex $-1 $447 $472 #
straight-curve $-1 2000.000000000001137 2500 0 0 -25.39999999999999858 0 I I #
straight-curve $-1 2000.000000000001137 2999.999999999988631 0 0 0 25.39999999999999858 I I #
straight-curve $-1 6500.000000000010004 2999.999999999988631 0 -25.39999999999999858 0 0 I I #
point $-1 12999.99999999999272 2999.999999999988631 0 #
straight-curve $-1 6500.000000000010004 2999.999999999988631 0 -25.39999999999999858 0 0 I I #
point $-1 2000.000000000001137 2999.999999999988631 0 #
End-of-ACIS-data 