  0
SECTION
  2
HEADER
  9
$ACADVER
  1
AC1009
  9
$INSBASE
 10
0.0
 20
0.0
 30
0.0
  9
$EXTMIN
 10
0.0
 20
0.0
 30
0.0
  9
$EXTMAX
 10
6.0
 20
5.0
 30
2.0
  9
$LIMMIN
 10
0.0
 20
0.0
  9
$LIMMAX
 10
12.0
 20
9.0
  9
$ORTHOMODE
 70
     0
  9
$REGENMODE
 70
     1
  9
$FILLMODE
 70
     1
  9
$QTEXTMODE
 70
     0
  9
$MIRRTEXT
 70
     1
  9
$DRAGMODE
 70
     2
  9
$LTSCALE
 40
1.0
  9
$OSMODE
 70
     0
  9
$ATTMODE
 70
     1
  9
$TEXTSIZE
 40
0.2
  9
$TRACEWID
 40
0.05
  9
$TEXTSTYLE
  7
STANDARD
  9
$CLAYER
  8
0
  9
$CELTYPE
  6
BYLAYER
  9
$CECOLOR
 62
   256
  9
$DIMSCALE
 40
1.0
  9
$DIMASZ
 40
0.18
  9
$DIMEXO
 40
0.0625
  9
$DIMDLI
 40
0.38
  9
$DIMRND
 40
0.0
  9
$DIMDLE
 40
0.0
  9
$DIMEXE
 40
0.18
  9
$DIMTP
 40
0.0
  9
$DIMTM
 40
0.0
  9
$DIMTXT
 40
0.18
  9
$DIMCEN
 40
0.09
  9
$DIMTSZ
 40
0.0
  9
$DIMTOL
 70
     0
  9
$DIMLIM
 70
     0
  9
$DIMTIH
 70
     1
  9
$DIMTOH
 70
     1
  9
$DIMSE1
 70
     0
  9
$DIMSE2
 70
     0
  9
$DIMTAD
 70
     0
  9
$DIMZIN
 70
     0
  9
$DIMBLK
  1

  9
$DIMASO
 70
     1
  9
$DIMSHO
 70
     1
  9
$DIMPOST
  1

  9
$DIMAPOST
  1

  9
$DIMALT
 70
     0
  9
$DIMALTD
 70
     2
  9
$DIMALTF
 40
25.4
  9
$DIMLFAC
 40
1.0
  9
$DIMTOFL
 70
     0
  9
$DIMTVP
 40
0.0
  9
$DIMTIX
 70
     0
  9
$DIMSOXD
 70
     0
  9
$DIMSAH
 70
     0
  9
$DIMBLK1
  1

  9
$DIMBLK2
  1

  9
$DIMSTYLE
  2
*UNNAMED
  9
$DIMCLRD
 70
     0
  9
$DIMCLRE
 70
     0
  9
$DIMCLRT
 70
     0
  9
$DIMTFAC
 40
1.0
  9
$DIMGAP
 40
0.09
  9
$LUNITS
 70
     2
  9
$LUPREC
 70
     4
  9
$SKETCHINC
 40
0.1
  9
$FILLETRAD
 40
0.0
  9
$AUNITS
 70
     0
  9
$AUPREC
 70
     0
  9
$MENU
  1
acad
  9
$ELEVATION
 40
0.0
  9
$PELEVATION
 40
0.0
  9
$THICKNESS
 40
0.0
  9
$LIMCHECK
 70
     0
  9
$BLIPMODE
 70
     1
  9
$CHAMFERA
 40
0.0
  9
$CHAMFERB
 40
0.0
  9
$SKPOLY
 70
     0
  9
$TDCREATE
 40
2449622.554324305
  9
$TDUPDATE
 40
2449622.554324305
  9
$TDINDWG
 40
0.0000000000
  9
$TDUSRTIMER
 40
0.0000000000
  9
$USRTIMER
 70
     1
  9
$ANGBASE
 50
0.0
  9
$ANGDIR
 70
     0
  9
$PDMODE
 70
     0
  9
$PDSIZE
 40
0.0
  9
$PLINEWID
 40
0.0
  9
$COORDS
 70
     1
  9
$SPLFRAME
 70
     0
  9
$SPLINETYPE
 70
     6
  9
$SPLINESEGS
 70
     8
  9
$ATTDIA
 70
     0
  9
$ATTREQ
 70
     1
  9
$HANDLING
 70
     1
  9
$HANDSEED
  5
86
  9
$SURFTAB1
 70
     6
  9
$SURFTAB2
 70
     6
  9
$SURFTYPE
 70
     6
  9
$SURFU
 70
     6
  9
$SURFV
 70
     6
  9
$UCSNAME
  2

  9
$UCSORG
 10
0.0
 20
0.0
 30
0.0
  9
$UCSXDIR
 10
1.0
 20
0.0
 30
0.0
  9
$UCSYDIR
 10
0.0
 20
1.0
 30
0.0
  9
$PUCSNAME
  2

  9
$PUCSORG
 10
0.0
 20
0.0
 30
0.0
  9
$PUCSXDIR
 10
1.0
 20
0.0
 30
0.0
  9
$PUCSYDIR
 10
0.0
 20
1.0
 30
0.0
  9
$USERI1
 70
     0
  9
$USERI2
 70
     0
  9
$USERI3
 70
     0
  9
$USERI4
 70
     0
  9
$USERI5
 70
     0
  9
$USERR1
 40
0.0
  9
$USERR2
 40
0.0
  9
$USERR3
 40
0.0
  9
$USERR4
 40
0.0
  9
$USERR5
 40
0.0
  9
$WORLDVIEW
 70
     1
  9
$SHADEDGE
 70
     3
  9
$SHADEDIF
 70
    70
  9
$TILEMODE
 70
     1
  9
$MAXACTVP
 70
    16
  9
$PINSBASE
 10
0.0
 20
0.0
 30
0.0
  9
$PLIMCHECK
 70
     0
  9
$PEXTMIN
 10
1.000000E+20
 20
1.000000E+20
 30
1.000000E+20
  9
$PEXTMAX
 10
-1.000000E+20
 20
-1.000000E+20
 30
-1.000000E+20
  9
$PLIMMIN
 10
0.0
 20
0.0
  9
$PLIMMAX
 10
12.0
 20
9.0
  9
$UNITMODE
 70
     0
  9
$VISRETAIN
 70
     0
  9
$PLINEGEN
 70
     0
  9
$PSLTSCALE
 70
     1
  9
$TREEDEPTH
 70
  3020
  9
$DWGCODEPAGE
  3
iso8859-1
  0
ENDSEC
  0
SECTION
  2
TABLES
  0
TABLE
  2
VPORT
 70
     2
  0
VPORT
  2
*ACTIVE
 70
     0
 10
0.0
 20
0.0
 11
1.0
 21
1.0
 12
7.176972
 22
4.5
 13
0.0
 23
0.0
 14
1.0
 24
1.0
 15
0.0
 25
0.0
 16
0.0
 26
0.0
 36
1.0
 17
0.0
 27
0.0
 37
0.0
 40
9.0
 41
1.594883
 42
50.0
 43
0.0
 44
0.0
 50
0.0
 51
0.0
 71
     0
 72
   100
 73
     1
 74
     1
 75
     0
 76
     0
 77
     0
 78
     0
  0
ENDTAB
  0
TABLE
  2
LTYPE
 70
     1
  0
LTYPE
  2
CONTINUOUS
 70
    64
  3
Solid line
 72
    65
 73
     0
 40
0.0
  0
ENDTAB
  0
TABLE
  2
LAYER
 70
     2
  0
LAYER
  2
0
 70
    64
 62
     7
  6
CONTINUOUS
  0
LAYER
  2
AME_FRZ
 70
    65
 62
     7
  6
CONTINUOUS
  0
ENDTAB
  0
TABLE
  2
STYLE
 70
     1
  0
STYLE
  2
STANDARD
 70
     0
 40
0.0
 41
1.0
 50
0.0
 71
     0
 42
0.2
  3
txt
  4

  0
ENDTAB
  0
TABLE
  2
VIEW
 70
     0
  0
ENDTAB
  0
TABLE
  2
UCS
 70
     0
  0
ENDTAB
  0
TABLE
  2
APPID
 70
     3
  0
APPID
  2
ACAD
 70
    64
  0
APPID
  2
AME_SOL
 70
    64
  0
APPID
  2
AVE_INVOKE
 70
    64
  0
ENDTAB
  0
TABLE
  2
DIMSTYLE
 70
     0
  0
ENDTAB
  0
ENDSEC
  0
SECTION
  2
BLOCKS
  0
BLOCK
  8
0
  5
1
  2
AME_NIL
 70
    64
 10
0.0
 20
0.0
 30
0.0
  1
AME_NIL
  3
AME_NIL
  0
ENDBLK
  8
0
  5
2
  0
BLOCK
  8
0
  5
4
  2
AME_SOL
 70
    64
 10
0.0
 20
0.0
 30
0.0
  1
AME_SOL
  3
AME_SOL
  0
ENDBLK
  8
0
  5
5
  0
BLOCK
  8
0
  5
4E
  2
*U6
 70
    65
 10
0.0
 20
0.0
 30
0.0
  1
*U
  3
*U
  0
LINE
  8
0
 62
     7
  5
4F
 10
6.0
 20
5.0
 30
0.0
 11
6.0
 21
5.0
 31
1.0
1001
AME_SOL
1070
     1
1071
       67
  0
LINE
  8
0
 62
     7
  5
50
 10
6.0
 20
5.0
 30
1.0
 11
6.0
 21
0.0
 31
1.0
1001
AME_SOL
1070
     1
1071
       66
  0
LINE
  8
0
 62
     7
  5
51
 10
0.0
 20
5.0
 30
1.0
 11
6.0
 21
5.0
 31
1.0
1001
AME_SOL
1070
     1
1071
       65
  0
LINE
  8
0
 62
     7
  5
52
 10
0.0
 20
5.0
 30
0.0
 11
0.0
 21
5.0
 31
1.0
1001
AME_SOL
1070
     1
1071
       64
  0
LINE
  8
0
 62
     7
  5
53
 10
0.0
 20
5.0
 30
1.0
 11
0.0
 21
0.0
 31
1.0
1001
AME_SOL
1070
     1
1071
       63
  0
LINE
  8
0
 62
     7
  5
54
 10
0.0
 20
0.0
 30
0.0
 11
0.0
 21
0.0
 31
1.0
1001
AME_SOL
1070
     1
1071
       62
  0
LINE
  8
0
 62
     7
  5
55
 10
6.0
 20
0.0
 30
1.0
 11
6.0
 21
0.0
 31
0.0
1001
AME_SOL
1070
     1
1071
       61
  0
LINE
  8
0
 62
     7
  5
56
 10
0.0
 20
0.0
 30
1.0
 11
6.0
 21
0.0
 31
1.0
1001
AME_SOL
1070
     1
1071
       60
  0
LINE
  8
0
 62
     7
  5
57
 10
0.0
 20
0.0
 30
0.0
 11
6.0
 21
0.0
 31
0.0
1001
AME_SOL
1070
     1
1071
       59
  0
LINE
  8
0
 62
     7
  5
58
 10
0.0
 20
5.0
 30
0.0
 11
0.0
 21
0.0
 31
0.0
1001
AME_SOL
1070
     1
1071
       58
  0
LINE
  8
0
 62
     7
  5
59
 10
6.0
 20
0.0
 30
0.0
 11
6.0
 21
5.0
 31
0.0
1001
AME_SOL
1070
     1
1071
       57
  0
LINE
  8
0
 62
     7
  5
5A
 10
6.0
 20
5.0
 30
0.0
 11
0.0
 21
5.0
 31
0.0
1001
AME_SOL
1070
     1
1071
       56
  0
LINE
  8
0
 62
     7
  5
5B
 10
3.0
 20
3.0
 30
1.0
 11
3.0
 21
4.0
 31
1.0
1001
AME_SOL
1070
     1
1071
       55
  0
LINE
  8
0
 62
     7
  5
5C
 10
3.0
 20
4.0
 30
1.0
 11
3.0
 21
4.0
 31
2.0
1001
AME_SOL
1070
     1
1071
       54
  0
LINE
  8
0
 62
     7
  5
5D
 10
3.0
 20
4.0
 30
1.0
 11
1.0
 21
4.0
 31
1.0
1001
AME_SOL
1070
     1
1071
       53
  0
LINE
  8
0
 62
     7
  5
5E
 10
3.0
 20
4.0
 30
2.0
 11
3.0
 21
3.0
 31
2.0
1001
AME_SOL
1070
     1
1071
       52
  0
LINE
  8
0
 62
     7
  5
5F
 10
1.0
 20
4.0
 30
2.0
 11
3.0
 21
4.0
 31
2.0
1001
AME_SOL
1070
     1
1071
       51
  0
LINE
  8
0
 62
     7
  5
60
 10
1.0
 20
4.0
 30
1.0
 11
1.0
 21
4.0
 31
2.0
1001
AME_SOL
1070
     1
1071
       50
  0
LINE
  8
0
 62
     7
  5
61
 10
1.0
 20
4.0
 30
2.0
 11
1.0
 21
2.0
 31
2.0
1001
AME_SOL
1070
     1
1071
       49
  0
LINE
  8
0
 62
     7
  5
62
 10
1.0
 20
4.0
 30
1.0
 11
1.0
 21
2.0
 31
1.0
1001
AME_SOL
1070
     1
1071
       48
  0
LINE
  8
0
 62
     7
  5
63
 10
1.0
 20
2.0
 30
1.0
 11
1.0
 21
2.0
 31
2.0
1001
AME_SOL
1070
     1
1071
       47
  0
LINE
  8
0
 62
     7
  5
64
 10
1.0
 20
2.0
 30
2.0
 11
2.0
 21
2.0
 31
2.0
1001
AME_SOL
1070
     1
1071
       46
  0
LINE
  8
0
 62
     7
  5
65
 10
1.0
 20
2.0
 30
1.0
 11
2.0
 21
2.0
 31
1.0
1001
AME_SOL
1070
     1
1071
       45
  0
LINE
  8
0
 62
     7
  5
66
 10
5.0
 20
1.0
 30
2.0
 11
5.0
 21
3.0
 31
2.0
1001
AME_SOL
1070
     1
1071
       44
  0
LINE
  8
0
 62
     7
  5
67
 10
5.0
 20
1.0
 30
1.0
 11
5.0
 21
3.0
 31
1.0
1001
AME_SOL
1070
     1
1071
       43
  0
LINE
  8
0
 62
     7
  5
68
 10
5.0
 20
3.0
 30
1.0
 11
5.0
 21
3.0
 31
2.0
1001
AME_SOL
1070
     1
1071
       42
  0
LINE
  8
0
 62
     7
  5
69
 10
5.0
 20
3.0
 30
2.0
 11
4.0
 21
3.0
 31
2.0
1001
AME_SOL
1070
     1
1071
       41
  0
LINE
  8
0
 62
     7
  5
6A
 10
5.0
 20
3.0
 30
1.0
 11
4.0
 21
3.0
 31
1.0
1001
AME_SOL
1070
     1
1071
       40
  0
LINE
  8
0
 62
     7
  5
6B
 10
3.0
 20
2.0
 30
2.0
 11
3.0
 21
1.0
 31
2.0
1001
AME_SOL
1070
     1
1071
       39
  0
LINE
  8
0
 62
     7
  5
6C
 10
3.0
 20
2.0
 30
1.0
 11
3.0
 21
1.0
 31
1.0
1001
AME_SOL
1070
     1
1071
       38
  0
LINE
  8
0
 62
     7
  5
6D
 10
5.0
 20
1.0
 30
2.0
 11
5.0
 21
1.0
 31
1.0
1001
AME_SOL
1070
     1
1071
       37
  0
LINE
  8
0
 62
     7
  5
6E
 10
3.0
 20
1.0
 30
2.0
 11
5.0
 21
1.0
 31
2.0
1001
AME_SOL
1070
     1
1071
       36
  0
LINE
  8
0
 62
     7
  5
6F
 10
3.0
 20
1.0
 30
1.0
 11
3.0
 21
1.0
 31
2.0
1001
AME_SOL
1070
     1
1071
       35
  0
LINE
  8
0
 62
     7
  5
70
 10
3.0
 20
1.0
 30
1.0
 11
5.0
 21
1.0
 31
1.0
1001
AME_SOL
1070
     1
1071
       34
  0
LINE
  8
0
 62
     7
  5
71
 10
4.0
 20
3.0
 30
2.0
 11
4.0
 21
3.0
 31
1.0
1001
AME_SOL
1070
     1
1071
       33
  0
LINE
  8
0
 62
     7
  5
72
 10
4.0
 20
2.0
 30
2.0
 11
4.0
 21
3.0
 31
2.0
1001
AME_SOL
1070
     1
1071
       32
  0
LINE
  8
0
 62
     7
  5
73
 10
4.0
 20
2.0
 30
1.0
 11
4.0
 21
3.0
 31
1.0
1001
AME_SOL
1070
     1
1071
       31
  0
LINE
  8
0
 62
     7
  5
74
 10
3.0
 20
3.0
 30
1.0
 11
3.0
 21
3.0
 31
2.0
1001
AME_SOL
1070
     1
1071
       30
  0
LINE
  8
0
 62
     7
  5
75
 10
3.0
 20
3.0
 30
2.0
 11
2.0
 21
3.0
 31
2.0
1001
AME_SOL
1070
     1
1071
       29
  0
LINE
  8
0
 62
     7
  5
76
 10
3.0
 20
3.0
 30
1.0
 11
2.0
 21
3.0
 31
1.0
1001
AME_SOL
1070
     1
1071
       28
  0
LINE
  8
0
 62
     7
  5
77
 10
2.0
 20
2.0
 30
2.0
 11
2.0
 21
2.0
 31
1.0
1001
AME_SOL
1070
     1
1071
       27
  0
LINE
  8
0
 62
     7
  5
78
 10
2.0
 20
3.0
 30
2.0
 11
2.0
 21
2.0
 31
2.0
1001
AME_SOL
1070
     1
1071
       26
  0
LINE
  8
0
 62
     7
  5
79
 10
2.0
 20
3.0
 30
1.0
 11
2.0
 21
3.0
 31
2.0
1001
AME_SOL
1070
     1
1071
       25
  0
LINE
  8
0
 62
     7
  5
7A
 10
2.0
 20
3.0
 30
1.0
 11
2.0
 21
2.0
 31
1.0
1001
AME_SOL
1070
     1
1071
       24
  0
LINE
  8
0
 62
     7
  5
7B
 10
3.0
 20
2.0
 30
2.0
 11
4.0
 21
2.0
 31
2.0
1001
AME_SOL
1070
     1
1071
       23
  0
LINE
  8
0
 62
     7
  5
7C
 10
3.0
 20
2.0
 30
1.0
 11
3.0
 21
2.0
 31
2.0
1001
AME_SOL
1070
     1
1071
       22
  0
LINE
  8
0
 62
     7
  5
7D
 10
4.0
 20
2.0
 30
2.0
 11
4.0
 21
2.0
 31
1.0
1001
AME_SOL
1070
     1
1071
       21
  0
LINE
  8
0
 62
     7
  5
7E
 10
3.0
 20
2.0
 30
1.0
 11
4.0
 21
2.0
 31
1.0
1001
AME_SOL
1070
     1
1071
       20
  0
ENDBLK
  8
0
  5
7F
  0
BLOCK
  8
0
  5
83
  2
AME_JNK
 70
     0
 10
0.0
 20
0.0
 30
0.0
  1
AME_JNK
  3
AME_JNK
  0
ENDBLK
  8
0
  5
84
  0
ENDSEC
  0
SECTION
  2
ENTITIES
  0
INSERT
  8
AME_FRZ
  5
3
  2
AME_NIL
 10
0.0
 20
0.0
 30
0.0
  0
INSERT
  8
AME_FRZ
  5
6
  2
AME_SOL
 10
0.0
 20
0.0
 30
0.0
1001
AME_SOL
1000
R2.1
1000
AME2
1000
sq cm
1070
     3
1070
     0
1070
     3
1000
wire
1040
45.0
1000
U
1040
1.0
1000
cm
1000
gm
1000
MILD_STEEL
1070
    25
1000
CSG
1070
     1
1070
     3
1070
     3
1070
     3
1070
     0
1000
cu cm
1070
     1
1070
     0
1005
3
  0
INSERT
  8
AME_FRZ
  5
15
  2
AME_NIL
 10
0.0
 20
0.0
 30
0.0
1001
AME_SOL
1002
{
1070
     1
1071
  2371472
1070
  1536
1070
     1
1010
6.0
1020
5.0
1030
1.0
1005
0
1005
0
1005
4B
1040
0.0
1040
1.0
1070
     0
1000
MILD_STEEL
1000
0
1010
0.0
1020
0.0
1030
0.0
1010
0.0
1020
0.0
1030
1.0
1040
0.0
1002
}
1001
AVE_INVOKE
1000
SOLAVEMESH
  0
INSERT
  8
AME_FRZ
  5
26
  2
AME_NIL
 10
1.0
 20
2.0
 30
1.0
1001
AME_SOL
1002
{
1070
     1
1071
  2447424
1070
  1536
1070
     1
1010
2.0
1020
2.0
1030
1.0
1005
0
1005
0
1005
4B
1040
0.0
1040
1.0
1070
     0
1000
MILD_STEEL
1000
0
1010
1.0
1020
2.0
1030
1.0
1010
0.0
1020
0.0
1030
1.0
1040
0.0
1002
}
1001
AVE_INVOKE
1000
SOLAVEMESH
  0
INSERT
  8
AME_FRZ
  5
37
  2
AME_NIL
 10
3.0
 20
1.0
 30
1.0
1001
AME_SOL
1002
{
1070
     1
1071
  2373608
1070
  1536
1070
     1
1010
2.0
1020
2.0
1030
1.0
1005
0
1005
0
1005
4C
1040
0.0
1040
1.0
1070
     0
1000
MILD_STEEL
1000
0
1010
3.0
1020
1.0
1030
1.0
1010
0.0
1020
0.0
1030
1.0
1040
0.0
1002
}
1001
AVE_INVOKE
1000
SOLAVEMESH
  0
INSERT
  8
AME_FRZ
  5
48
  2
AME_NIL
 10
2.0
 20
2.0
 30
1.0
1001
AME_SOL
1002
{
1070
     1
1071
  2382104
1070
  1536
1070
     1
1010
2.0
1020
1.0
1030
1.0
1005
0
1005
0
1005
80
1040
0.0
1040
1.0
1070
     0
1000
MILD_STEEL
1000
0
1010
2.0
1020
2.0
1030
1.0
1010
0.0
1020
0.0
1030
1.0
1040
0.0
1002
}
1001
AVE_INVOKE
1000
SOLAVEMESH
  0
INSERT
  8
AME_FRZ
  5
4B
  2
AME_NIL
 10
0.0
 20
0.0
 30
0.0
1001
AME_SOL
1002
{
1070
     1
1071
  2349416
1070
   775
1070
     0
1070
     2
1005
15
1005
26
1005
0
1005
0
1005
4C
1040
0.0
1040
1.0
1070
     0
1000
MILD_STEEL
1000
0
1010
0.0
1020
0.0
1030
0.0
1010
0.0
1020
0.0
1030
1.0
1040
0.0
1002
}
  0
INSERT
  8
AME_FRZ
  5
4C
  2
AME_NIL
 10
0.0
 20
0.0
 30
0.0
1001
AME_SOL
1002
{
1070
     1
1071
  2445128
1070
   775
1070
     0
1070
     2
1005
4B
1005
37
1005
0
1005
0
1005
80
1040
0.0
1040
1.0
1070
     0
1000
MILD_STEEL
1000
0
1010
0.0
1020
0.0
1030
0.0
1010
0.0
1020
0.0
1030
1.0
1040
0.0
1002
}
  0
INSERT
  8
0
  5
80
  2
*U6
 10
0.0
 20
0.0
 30
0.0
1001
AME_SOL
1002
{
1070
     1
1071
  2432560
1070
  1543
1070
     1
1070
     0
1005
4C
1005
48
1005
0
1005
81
1005
0
1040
0.0
1040
1.0
1070
     0
1000
MILD_STEEL
1000
0
1002
}
1001
AVE_INVOKE
1000
SOLAVEMESH
  0
INSERT
  8
AME_FRZ
  5
81
  2
AME_NIL
 10
1.0
 20
1.0
 30
1.0
1001
AME_SOL
1004
C7CF010009018401830181017D017501BF006A015A0184004A013E01A00030012A0120010D015A005B000E01A9005C0021010F015D00C2001001C100BD00FA005000FE0076016B015B0188004B013F013101F9002800320182008A00ED005C01EF0024006C015D014C0140013301A800CB00200005004D01
1004
41013401B800E80035016800D30042013601D4002B011700F10037011300E20080007E0177016D015E010300FD005F013C004E01430138013800F7008300C5003F0078016E01600196007500610112004F01A400E1006F0162015001EE0044013901D0006000C00004000F0082017F017901700163017F00
1004
5101DA00140064010800520110004501E0003A010C000E00710125006501530118007E00540123004601E3003B01D80076007A01F000400080017B0172010200660155014701FB00F2004E0056015F007C00FF007C0173016701570189004801DF003C012C0122011101BE00FC00CE00230112011600EA00
1004
13013000DD002D0124011401DC00DB001501D900900025011601B000D1001701CD005800070068011E0058011F00B50074016901F8005901C30049013D012E0126011801CC0070001901C800CA0027011A010101000119000201EC00EB001B010301E600E5000401E400DE002F0128011C010501D700D600
1004
0601D500D2001D0107014800780008019100CF0029011E010901520092000A01930094001F010B019500C9000C01C400590085000100000071A9071A900A9321FB8C5AD6EF6C132375FE409288A049340409288A049340409288A0493407B3B599C1CA62D1F676B33839435BA78180D1F5BFD90C93B273D8
1004
1D08DDA5273D81D08DDA510EC76EEF428A7B3B599C1CA32DD3C0C068FADD3C0C068FADF84651025A56B77EE3EE1197FD45FFFFFFFFFD45FEBFEBFD4519FFFFFFFFFF8465FF517FFFFFFFFF517F517FAFF51467FFFFFFFFFA80C8649D939EC0E846ED2939EC0E846ED288763B777A14574F0301A3EB74F030
1004
1A3D12DD3C0C068FADF8465180994EB5BBF7B0708CBFFFFFEA2FFFEA2FFFF5FF5FEA28CFFFFFFFFFFC232FFFFFFA8BFFFA8BFFFD7FD7FA8A33FFFFFFFFFD4064324EC9CF60742376953CE5F589A9CAC43B1DBBBD0A29ECED6670728CB74F0301A3D12DD3C0C068FADF8465188C22ED6EFDEC7C232FFC7FE3
1004
FEA07EA07F1FF8FFA32FF44BFEB19FFFFFFFFFF8465FF8FFC7FD40FD40FE3FF1DFFA1AFF44BFEB19FFFFFFFFFEA0321927637B97D626A3D64E7B03A11BB4A21D8EDDDE8514F676B33839465BA78180D1E896E9E060347D6FC2329CA24275ADDFBDBBC232FFC7FD40FE3FF1FF8FFA81FA32FF44BFEB19FFFF
1004
FFFFFF8465FF8FFA81FC7FE3FF1FF503F465FE897FD633FFFFFFFFFD4064324ED3CE5F589A9CAC43B1DBBBD0A288763B777A1453D9DACCE0E50D649445024E94574F0301A3EB7E1194490AD3AFF7EF6E3F8465FF517FFFFFFFFF517F44BFD45FD4519FFFFFFFFFF8465FF517FFFFFFFFF517F44BFD45FD45
1004
19FFFFFFFFFEA2B2192769E72FAC4D4E5621D8EDDDE851443B1DBBBD0A2BA78180D1E896E9E060347A25BA78180D1F5BF08CAB64275FEFDEDB7F08CBFFFFFEA2FFFEA2FFFE897FA8BFA8A33FFFFFFFFFF08CBFFFEA2FFFF1FF8FFA81FA25FE8CBFEB19FFFFFFFFFEA2B2192769E72FAC4D4E569E72FAC4D4
1004
E5621D8EDDDE8514F676B33839435BA78180D1E896E9E060347D6FC2328D01A75FEFDED97F08CBFF1FF8FFA81FA81FC7FE3FE86BFD12FFAC67FFFFFFFFFE1197FE3FF1FF503F503F8FFC77FE86BFD12FFAC67FFFFFFFFFA8AC8649DB249B0A27EF06E588763B777A14510EC76EEF428A7B3B599C1CA1ADD3
1004
C0C068F44B74F0301A3EB7E1194E46A75FEFDED67F08CBFF1FF503F8FFC7FE3FEA07E86BFD12FFAC67FFFFFFFFFE1197FE3FEA07F1FF8FFC7FD407FE86BFD12FFAC67FFFFFFFFFA8AC8649D88763B777A145273D81D08DDA510EC76EEF428AE9E060347A25BA78180D1F5BA78180D1F5BF08CA34C5DFEFC2
1004
A8C61197FD45FFFFFFFFFD45FD45FEBFD4519FFFFFFFFFF8465FF517FFFFFFFFF517F517FAFF51467FFFFFFFFFA8AC8649D88763B777A145273D81D08DDA510EC76EEF428A49445024E9453D9DACCE0E5196E9E060347D6FC232D8177FBF0A9B18465FFFFFF517FFF517FFF517FAFF51467FFFFFFFFFE119
1004
7FFFFFD45FFFD45FFFD45FEBFD4519FFFFFFFFFEA2B21928F53CE5F589A9CAC43B1DBBBD0A2939EC0E846ED29ECED66707286B74F0301A3D12DD3C0C068FADF84654C202EFF62F6D3F8465FF503F8FFC7FE3FEA07F1FF435FE897FD633FFFFFFFFFF0A8B18465FF503F8FFC7FE3FEA07F1FF44BFD197FD63
1004
3FFFFFFFFFF08CBFEA07F1FF8FFC7FD40FE3FE897FA32FFAC67FFFFFFFFFA8AC8649D88763B777A1451BDCBEB1351EB10EC76EEF428AE9E060347A259ECED6670728CB74F0301A3EB7E11953E4095FEFC2A0C61197FE3FF1FF503F503F8FFC7FD12FF465FF58CFFFFFFFFFFC232FFC7FE3FEA07EA07F1FF8
1004
FFA25FE8CBFEB19FFFFFFFFFEA2B2192769E72FAC4D4E564E7B03A11BB4A21D8EDDDE8515D3C0C068F44B3D9DACCE0E5196E9E060347D6FC232A874AFF7EF6FB18465FF8FFA81FC7FE3FF1FF503F44BFD197FD633FFFFFFFFFF08CBFF1FF503F8FFC7FE3FEA07E897FA32FFAC67FFFFFFFFFA8AC8649D902
1004
4A228124D01024A228124D01024A228124D01ECED66707298B47D9DACCE0E50D6409288A04934AFC232A21292BFDF85558C232FFFFA8BFFFA8BFFFFFFFFFE33FFFFFFFFFF08CBFFFEA2FFFEA2FFFFFFFFFF8CFFFFFFFFFF51590C93B20494450249A020494450249A020494450249A03D9DACCE0E5316409
1004
288A04934A49445024E9457E1194624D4AFF7E1566308CBFEA2FFFFFFFFFEA2FFFFFF8CFFFFFFFFFFC232FFA8BFFFFFFFFFA8BFFFFFE33FFFFFFFFFD4564324EC81251140926808125114092680812511409268081251140926951F676B33839435925114093A515F84652602257FBF39B18465FFFFFF517
1004
FFF517FFFFFFFC67FFFFFFFFFE1197FFFFFD45FFFD45FFFFFFFF19FFFFFFFFFEA2B21928D273D81D08DDA5273D81D08DDA510EC76EEF428A7B3B599C1CA32DD3C0C068F44B24A2281274A2BF08CA16F74AFF62E33C232FFFFA8BFFFA8BFFFFFD7FD7FA8A33FFFFFFFFFF0318465FF503F8FFC7FE3FEA07F1
1004
FF4C5FE86BFD4519FFFFFFFFFF8465FF503F8FFC7FE3FEA07F1FF4C5FE86BFD4519FFFFFFFFFEA2B219276409288A04934036C9B0A27EF06E59024A228124D01ECED66707298B47D9DACCE0E50D649445024E9457E11946A1AC5DFEFDC60C61197FE3FF1FF503F503F8FFC7FD317FA1AFF51467FFFFFFFFF
1004
E1197FE3FF1FF503F503F8FFC7FD317FA1AFF51467FFFFFFFFFA8AC8649DB249B0A27EF06D2C81251140926808125114092680F676B338394C5A3ECED66707286B24A2281274A2BF08CA38D82EFF7E1576308CBFF1FF503F8FFC7FE3FEA07E98BFD0D7FA8A33FFFFFFFFFF08CBFF1FF503F8FFC7FE3FEA07
1004
E98BFD0D7FA8A33FFFFFFFFFD453638273D81D08DDA5273D81D08DDA510EC76EEF428A7B3B599C1CA32DD3C0C068FAC9288A049D28A1B5AD6B5C400DAD6B5AE22B1306519E92ED6BF1025A50B7BA5D88812D285BDD2B5AD6BFCC19FFFFFF517FFF503FFF4797FD7FA8AC436B5AD6B8801B5AD6B5C4536381
1004
BDCBEB1351EB273D81D08DDA510EC76EEF428A7B3B599C1CA32DD3C0C068FADD3C0C068FAC36B5AD6B880FFD1C56260CB8FDEDE4BBF6B4409694E51213BB1394484E8812D2B5AD6B5AD69833FEA2FFFFFFFEA07FFE8CBFEBFDE15886D6B5AD7101FFA38A6C709E72FAC4D4E564E7B03A11BB4A21D8EDDDE8
1004
515D3C0C068F44B74F0301A3EB74F0301A3EB7FE8E006D6B5AD711589832B3945F7ED68812D2AD909DD8AD909D1025A57FB5AD69833FEA07FFFFFFEA07FFE897FD7FBC2B17FE8E006D6B5AD7114D8E09CF60742376949CF60742376949CF6074237694F676B33839465BA78180D1F5BA78180D1F5BFF517F
1004
AD89832F62229DDFB5A204B4A98405F6298405C409695FED6B5A60CFFFFFFA8BFFFA81FFFD7FD7FD6C5FFA8BFD66C704E7B03A11BB4A4E7B03A11BB4A21D8EDDDE8515D3C0C068FADD3C0C068F44B24A2281274A286D6B5AD7117F7856260CA24F85F6B5F8C04CA742DEE9762301329D0B7BA56B5AD7F983
1004
3FFFFFEA2FEA07FFFFF5FE8F2FF515886D6B5AD7117F7853638273D81D08DDA54F397D626A72B10EC76EEF428AE9E060347D6E9E060347A25BA78180D1F5BFF470036B5AD6B88AC4C19789F0BEFDAD180994E8C46117D88C46117180994EB5AD6B5AD69833FFFEA2FFFEA07FFFFF5FE897FBC2B17FE8E006
1004
D6B5AD7114D8E09CF60742376949CF60742376949CF6074237695D3C0C068FADD3C0C068F44B74F0301A3EBFF7FEA2B130646971D0BEFDAD180994EA61017D8A61017180994EBFDAD6B4C19FFFFFF517F503FFFFFAFF44BFEB63FEFFD453638273D81D08DDA5273D81D08DDA510EC76EEF428AE9E060347D
1004
6E9E060347D6E9E060347D7FA81FEC4C194F9085F7ED68C04CA74698BEC4698B8C04CA75FED6B5A60CFFFFA81FFFA81FFFFFD7FD7FA8AC7F503FCD8E09CF60742376953CE5F589A9CAC43B1DBBBD0A29ECED6670728CB74F0301A3D12C9288A049D28AFFCEADFFA3CB6260CBD89C722FB5AFC62308B85BDD
1004
2EC462308B85BDD2B5AD6BFCC19FFFFFF517FFF517F8FFB8D17FA25FEA2B17FE756FFD1E59B1C139EC0E846ED2A79CBEB135395939EC0E846ED29ECED6670728CB74F0301A3D12DD3C0C068FAC87D4563F5B130646871C0BEFDAD188C22E98405F6298405C62308BBFDAD6B4C19FFFFFF517FFF517F8EFFD
1004
197FA25FF5B121F5158FD66C709E72FAC4D4E569E72FAC4D4E5621D8EDDDE8515D3C0C068F44B74F0301A3D12DD3C0C068FAFF503F8EC4C19261C6E2FBF6B462308BA874BB150E9462308BBFDAD6B4C19FF517FFFFFFF517FFF44BFD12FFAD8FEA07F1CD8E06F72FAC4D47AC9CF607423769443B1DBBBD0A
1004
29ECED6670728CB74F0301A3D12C9288A049D28BFCE61B5AD6B450189832F617B1A5DAD7E728909D0B7BA5D89CA242742DEE95AD6B5FE60CFFFFFFA8BFA8BFFFFFA32FF465FEA2B1FE730DAD6B5A2806C7037B97D626A3D64E7B03A11BB4A4E7B03A11BB4A7B3B599C1CA32DD3C0C068F44B74F0301A3EBF
1004
DE0036B5AD6B880C4C19394614BBF6B4E51213A98405F6298405CE51213AFF6B5AD3067FFFFFD45FD45FFFFFD197FA3CBFEB63FBC006D6B5AD7100D8E06F72FAC4D47AD3CE5F589A9CAC43B1DBBBD0A29ECED6670728CB74F0301A3D12DD3C0C068FAFFFF5158983216F604BBF6B4E51213A34069DD88D01
1004
A74E51213AFF6B5AD3067FFFD45FFFD45FE3FFFE8CBFD12FFAD8FFFEA29B1C279CBEB13539588763B777A14510EC76EEF428A7B3B599C1CA1AC9288A049D28A49445024E94563EF001B5AD6B5C456260CADC7C977ED689215A742DEE976216F74A248569D7FBFCC19FFFFFF517FFF503FDFF9A5FEA2FEA2B
1004
163EF001B5AD6B5C4536384F397D626A72B10EC76EEF428A21D8EDDDE8515D3C0C068F44B24A2281274A2BA78180D1F5BFF470036B5AD6B88AC4C1971B38CA5DAD7E248569D5B213BB11242B4EAD909D7FBFCC19FF503FFFFFFF503FFF44BFD45FDE158BFF470036B5AD6B88A6C709E72FAC4D4E5621D8ED
1004
DDE85149CF6074237694F676B33839435925114093A515D3C0C068FAFFDFFD6C4C1918BDAE976B5F89215A753080BEC4490AD3A98405DFEFF3067FFFFFD45FFFD40FFFD12FF517FAD8FFBFFACD8E1924D8513F78372C43B1DBBBD0A288763B777A1453D9DACCE0E50D649445024E94574F0301A3EB0DAD6B
1004
5AE203FF4715898328C7225DAD7E248569D391A9DD889215A74E46A75FEFF3067FD45FFFFFFFD40FF7FE86B0DAD6B5A28BFBC2B10DAD6B5AE203FF4714D8E13CE5F589A9CAC43B1DBBBD0A288763B777A14574F0301A3D12DD3C0C068F44B24A2281274A2FE757FA3CB6260CDC7A977ED6AD909D0B7BA5D8
1004
85BDD2AD909D7FBFCC19FFFFFF517F503FFFFF44BFCD2FF5158FE757FA3CB36384F397D626A72B10EC76EEF428A4E7B03A11BB4AE9E060347A25BA78180D1E896E9E060347D7FD7FA25B130654E3D4BB5AFD6C84EA61017D8AD909D4C202EFF7F9833FFFFFEA2FEA07FFFFE897FA32FFAD8FF5FE8966C709
1004
E72FAC4D4E569E72FAC4D4E5621D8EDDDE8514F676B33839435BA78180D1E89649445024E9450DAD6B5AE22B1F7856260CA39ED34BBF6B4680D3A16F74BB10B7BA51A034EBFDFE60CFFFFFFA8BFFFA8BFC7FDC68BFD12FF515886D6B5AD71158FBC29B1C279CBEB135395A79CBEB135395939EC0E846ED29
1004
ECED66707286B74F0301A3D12DD3C0C068FAC36B5AD68A07EE324989832720D6976B5F8D01A753080BEC4680D3A98405DFEFF3067FFFFFD45FFFD45FE3BFF465FE897FD6C436B5AD68A07EE3248D8E1924D8513F78372D3CE5F589A9CAC43B1DBBBD0A29ECED66707286B74F0301A3D12DD3C0C068FAFF50
1004
3F8EC4C19398D8976B5F8D01A74E46A776234069D391A9D7FBFCC19FF517FFFFFFF517FDFFA1AFF44BFEB63FA81FC7363864936144FDE0DCB10EC76EEF428A21D8EDDDE8514F676B33839435BA78180D1E89649445024E945FD11CC36B5AD68A0313065C78F6925DFB5A72353A16F74BB10B7BA5391A9D7F
1004
BFCC19FFFFFF517F517FFFDFFA1AFF465FEA2B1FD11CC36B5AD68A01B1C3249B0A27EF06E588763B777A145273D81D08DDA53D9DACCE0E50D6E9E060347A25BA78180D1F5BFF3A730DAD6B5AE2031306428F68A5DAD7E72353A98405F6272353A98405DFEFF3067FFFFFD45FD45FFFF7FE86BFD1E5FF5B17
1004
FE74E61B5AD6B5C40363810EC76EEF428A4E7B03A11BB4A21D8EDDDE8515D3C0C068F44B74F0301A3EB24A2281274A2BFF3A73FDE0189832E3B7B412EFDAD1A62E16F74BB10B7BA51A62EFF7F9833FFFFFEA2FFFEA07FFE8F2FFAFF5158BFF3A73FDE00D8E043B1DBBBD0A2939EC0E846ED2939EC0E846ED
1004
2BA78180D1E896E9E060347D6E9E060347D7FA81FEC4C191D3E4BB5AFC698BA61017D88D3174C202EFF7F9833FFFFFEA2FFFEA07FFF5FF5FF5B1FD40FF363810EC76EEF428A4E7B03A11BB4A21D8EDDDE85149288A049D28AE9E060347D6E9E060347D7FFFA8AC4C197B0B8E92ED6BF1A62F605F6234C5EC
1004
0BBFDFE60CFFA81FFFFFFFA81FFFA8BFD7FA8AC7FFF514D8E043B1DBBBD0A2939EC0E846ED288763B777A14524A2281274A29ECED6670728CB24A2281274A286D6B5AD7103F7856260C9CA84977ED6D8170B7BA5D885BDD2D8177FBFCC19FFFFFF517F503FFFFF517F4797FA8AC436B5AD6B881FBC29B1C0
1004
8763B777A145273D81D08DDA5273D81D08DDA524A2281274A29ECED6670728CB74F0301A3EB0DAD6B5A280FFD456260C85B8E52ED6BFB02E98405F63605D3080BBFDFE60CFFFFFFA8BFA81FFFFFA8BFA25FF5B10DAD6B5A280FFD45363810EC76EEF428A37B97D626A3D621D8EDDDE85149288A049D28A7B
1004
3B599C1CA32DD3C0C068FADFFA3801B5AD6B5C456260CADC70976B5FD8174F9025D8D8174F90257FBFCC19FFFF517FFF503FFFFF517F465FEF0AC5FFA3801B5AD6B5C45363810EC76EEF428A37B97D626A3D64E7B03A11BB4AE9E060347A259ECED6670728CB74F0301A3EB7FF39FF1D89832E3671BA5DAD
1004
7E98405D3E40976298405D3E4095FEFF3067FFFD45FFFFFFFD45FD12FF465FF5B17FF39FF1CD8E13CE5F589A9CAC9CF60742376949CF6074237695D3C0C068F44B3D9DACCE0E5196E9E060347D7FE1B5AD6B451589832317B3D2ED6BF4C202EA1D2EC53080BA874AFF7F9833FEA2FFFFFF1FFFF517F44BFD
1004
197FD6C7FC36B5AD68A29B1C08763B777A1451BDCBEB1351EB10EC76EEF428AE9E060347A259ECED6670728CB24A2281274A2B1F78563E8F2D898328CE24BBF6B53E40942DEE976216F74A9F204AFF7F9833FFFFFEA2FFFEA2FF1DFF9A5FE8CBFD4562C7DE158FA3CB36384F397D626A72B1BDCBEB1351EB
1004
10EC76EEF428AE9E060347A259ECED6670728CB74F0301A3EBFD40FE3B130668E4BB5AFD3E409543A5D8A7C812A874AFF7F9833FEA2FFFFFFFEA2FFFE897FA32FFAD8FEA07F1CD8E13CE5F589A9CAC9CF607423769443B1DBBBD0A2BA78180D1E8967B3B599C1CA32C9288A049D28A1B5AD6B499006D6B5A
1004
D710189832A4725DFB5AA1D285BDD2EC42DEE9543A57FBFCC19FFFFFF517F517FFFFF44BFCD2FF515886D6B5AD26401B5AD6B5C40363820494450249A01B64D8513F78372C8125114092680F676B338394C5A3ECED66707286B20494450249A5FD11CFF44B6260CA38DD2ED6BF4425251A86B17D8A212928
1004
D4358BBFDFE60CFFFFA8BFFFFFFFA81FA25FE86BFF63FA239FE8966C70C926C289FBC1B4B20494450249A020494450249A03D9DACCE0E53168FB3B599C1CA1AC8125114092697F3A73FCEAD89832720DE976B5FA212928E360BEC510949471B05DFEFF3067FD45FFFFFFFFFD40FD317F9D5FFB1FCE9CFF3A
1004
B363820494450249A020494450249A020494450249A020494450249A547D9DACCE0E50D6409288A04934BFA19CFF8EC4C1939A792ED6BF442525260225D8A21292930112BFDFE60CFFA81FFFFFFFFFA81FFFFFEC7F4339FF1CD8E0812511409268081251140926808125114092680F676B338394C59024A2
1004
28124D29024A228124D2FFFE98B6260CB8F1ECE4BB5AFD109494624D4BB1442525189352BFDFE60CFFFFA81FFFFFFFA81FFFFFEC7FFF4C59B1C1024A228124D01024A228124D008763B777A1453D9DACCE0E5316409288A04934A49445024E945FD11CFF44B6260C851ECD4BB5AFC624D4A16F74BB118935
1004
285BDD2BFDFE60CFFFFFFA8BFFFA81FFFA25FFFEA2B1FD11CFF44B363864936144FDE0DA59024A228124D01024A228124D01ECED66707298B20494450249A524A2281274A2FE8E07E8E2B13065C76F6625DAD7E3126A51C6C17D88C49A9471B05DFEFF3067FD45FFFFFFFD40FFFD317FFFA38AC7F4703F47
1004
14D8E0812511409268081251140926808125114092680812511409269481251140926949288A049D28BFFFA8AC4C1910F65A5DAD7E3126A5260225D88C49A94980895FEFF3067FD40FFFFFFFD40FFFFFFFF63FFFA8A6C70409288A049340409288A04934021D8EDDDE851481251140926951F676B3383943
1004
5925114093A517F3A73FCEAD89832F6ABD94976B5F93011285BDD2EC49808942DEE95FEFF3067FFFFFD45FD40FFFFFFFCEAFF5158FE74E7F9D59B1C1024A228124D00DB26C289FBC1B96409288A049340409288A04934A8FB3B599C1CA1AC9288A049D28BFA381FA38AC4C191A84D2ED6BF2602251A86B17
1004
D89301128D4358BBFDFE60CFFFFA8BFFFA81FFFFFFFA1AFF47158FE8E07E8E29B1C1024A228124D00DB26C289FBC1B9621D8EDDDE8514F676B338394C5A3ECED66707286B24A2281274A2FE9873FE3B13065C7E70976B5F85BDD28D4358BEC42DEE946A1AC5DFEFF3067FFFD45FFFFFFFD45FD317FA1AFF5
1004
158FE9873FE39B1C3249B0A27EF06D2C812511409268043B1DBBBD0A29ECED66707298B47D9DACCE0E50D649445024E945FFFD0D6C4C197B50525DAD7E16F74A38D82FB10B7BA51C6C177FBFCC19FF517FFFFF8FFFFA8BFA62FF435FEA2B1FFFD0D66C70C926C289FBC1B4B1B64D8513F78372C812511409
1004
2680F676B338394C5A3ECED66707286B24A2281274A2FEA07F1D898324C292ED6BF1A86B171C6C17D88D4358B8E360BBFDFE60CFFA8BFFFFFFFA8BFFFA62FF435FEA2B1FD40FE3BD92E317B22C
1005
82
  0
INSERT
  8
AME_FRZ
  5
82
  2
AME_NIL
 10
1.0
 20
1.0
 30
1.0
1001
AME_SOL
1004

1005
0
  0
ENDSEC
  0
EOF
