  0
SECTION
  2
HEADER
  9
$ACADVER
  1
AC1009
  9
$INSBASE
 10
0.0
 20
0.0
 30
0.0
  9
$EXTMIN
 10
-0.5
 20
-0.5
 30
0.0
  9
$EXTMAX
 10
8.0
 20
4.5
 30
4.0
  9
$LIMMIN
 10
0.0
 20
0.0
  9
$LIMMAX
 10
12.0
 20
9.0
  9
$ORTHOMODE
 70
     0
  9
$REGENMODE
 70
     1
  9
$FILLMODE
 70
     1
  9
$QTEXTMODE
 70
     0
  9
$MIRRTEXT
 70
     1
  9
$DRAGMODE
 70
     2
  9
$LTSCALE
 40
1.0
  9
$OSMODE
 70
     0
  9
$ATTMODE
 70
     1
  9
$TEXTSIZE
 40
0.2
  9
$TRACEWID
 40
0.05
  9
$TEXTSTYLE
  7
STANDARD
  9
$CLAYER
  8
0
  9
$CELTYPE
  6
BYLAYER
  9
$CECOLOR
 62
   256
  9
$DIMSCALE
 40
1.0
  9
$DIMASZ
 40
0.18
  9
$DIMEXO
 40
0.0625
  9
$DIMDLI
 40
0.38
  9
$DIMRND
 40
0.0
  9
$DIMDLE
 40
0.0
  9
$DIMEXE
 40
0.18
  9
$DIMTP
 40
0.0
  9
$DIMTM
 40
0.0
  9
$DIMTXT
 40
0.18
  9
$DIMCEN
 40
0.09
  9
$DIMTSZ
 40
0.0
  9
$DIMTOL
 70
     0
  9
$DIMLIM
 70
     0
  9
$DIMTIH
 70
     1
  9
$DIMTOH
 70
     1
  9
$DIMSE1
 70
     0
  9
$DIMSE2
 70
     0
  9
$DIMTAD
 70
     0
  9
$DIMZIN
 70
     0
  9
$DIMBLK
  1

  9
$DIMASO
 70
     1
  9
$DIMSHO
 70
     1
  9
$DIMPOST
  1

  9
$DIMAPOST
  1

  9
$DIMALT
 70
     0
  9
$DIMALTD
 70
     2
  9
$DIMALTF
 40
25.4
  9
$DIMLFAC
 40
1.0
  9
$DIMTOFL
 70
     0
  9
$DIMTVP
 40
0.0
  9
$DIMTIX
 70
     0
  9
$DIMSOXD
 70
     0
  9
$DIMSAH
 70
     0
  9
$DIMBLK1
  1

  9
$DIMBLK2
  1

  9
$DIMSTYLE
  2
*UNNAMED
  9
$DIMCLRD
 70
     0
  9
$DIMCLRE
 70
     0
  9
$DIMCLRT
 70
     0
  9
$DIMTFAC
 40
1.0
  9
$DIMGAP
 40
0.09
  9
$LUNITS
 70
     2
  9
$LUPREC
 70
     4
  9
$SKETCHINC
 40
0.1
  9
$FILLETRAD
 40
0.0
  9
$AUNITS
 70
     0
  9
$AUPREC
 70
     0
  9
$MENU
  1
acad
  9
$ELEVATION
 40
0.0
  9
$PELEVATION
 40
0.0
  9
$THICKNESS
 40
0.0
  9
$LIMCHECK
 70
     0
  9
$BLIPMODE
 70
     1
  9
$CHAMFERA
 40
0.0
  9
$CHAMFERB
 40
0.0
  9
$SKPOLY
 70
     0
  9
$TDCREATE
 40
2449408.819505567
  9
$TDUPDATE
 40
2449408.820240567
  9
$TDINDWG
 40
0.0007350000
  9
$TDUSRTIMER
 40
0.0007350000
  9
$USRTIMER
 70
     1
  9
$ANGBASE
 50
0.0
  9
$ANGDIR
 70
     0
  9
$PDMODE
 70
     0
  9
$PDSIZE
 40
0.0
  9
$PLINEWID
 40
0.0
  9
$COORDS
 70
     1
  9
$SPLFRAME
 70
     0
  9
$SPLINETYPE
 70
     6
  9
$SPLINESEGS
 70
     8
  9
$ATTDIA
 70
     0
  9
$ATTREQ
 70
     1
  9
$HANDLING
 70
     1
  9
$HANDSEED
  5
4C
  9
$SURFTAB1
 70
     6
  9
$SURFTAB2
 70
     6
  9
$SURFTYPE
 70
     6
  9
$SURFU
 70
     6
  9
$SURFV
 70
     6
  9
$UCSNAME
  2

  9
$UCSORG
 10
0.0
 20
0.0
 30
0.0
  9
$UCSXDIR
 10
1.0
 20
0.0
 30
0.0
  9
$UCSYDIR
 10
0.0
 20
1.0
 30
0.0
  9
$PUCSNAME
  2

  9
$PUCSORG
 10
0.0
 20
0.0
 30
0.0
  9
$PUCSXDIR
 10
1.0
 20
0.0
 30
0.0
  9
$PUCSYDIR
 10
0.0
 20
1.0
 30
0.0
  9
$USERI1
 70
     0
  9
$USERI2
 70
     0
  9
$USERI3
 70
     0
  9
$USERI4
 70
     0
  9
$USERI5
 70
     0
  9
$USERR1
 40
0.0
  9
$USERR2
 40
0.0
  9
$USERR3
 40
0.0
  9
$USERR4
 40
0.0
  9
$USERR5
 40
0.0
  9
$WORLDVIEW
 70
     1
  9
$SHADEDGE
 70
     3
  9
$SHADEDIF
 70
    70
  9
$TILEMODE
 70
     1
  9
$MAXACTVP
 70
    16
  9
$PINSBASE
 10
0.0
 20
0.0
 30
0.0
  9
$PLIMCHECK
 70
     0
  9
$PEXTMIN
 10
1.000000E+20
 20
1.000000E+20
 30
1.000000E+20
  9
$PEXTMAX
 10
-1.000000E+20
 20
-1.000000E+20
 30
-1.000000E+20
  9
$PLIMMIN
 10
0.0
 20
0.0
  9
$PLIMMAX
 10
12.0
 20
9.0
  9
$UNITMODE
 70
     0
  9
$VISRETAIN
 70
     0
  9
$PLINEGEN
 70
     0
  9
$PSLTSCALE
 70
     1
  9
$TREEDEPTH
 70
  3020
  9
$DWGCODEPAGE
  3
ascii
  0
ENDSEC
  0
SECTION
  2
TABLES
  0
TABLE
  2
VPORT
 70
     2
  0
VPORT
  2
*ACTIVE
 70
     0
 10
0.0
 20
0.0
 11
1.0
 21
1.0
 12
-0.465625
 22
0.53033
 13
0.0
 23
0.0
 14
1.0
 24
1.0
 15
0.0
 25
0.0
 16
2.0
 26
2.0
 36
1.0
 17
0.0
 27
0.0
 37
0.0
 40
6.953217
 41
1.594883
 42
50.0
 43
0.0
 44
0.0
 50
0.0
 51
0.0
 71
     0
 72
   100
 73
     1
 74
     1
 75
     0
 76
     0
 77
     0
 78
     0
  0
ENDTAB
  0
TABLE
  2
LTYPE
 70
     1
  0
LTYPE
  2
CONTINUOUS
 70
    64
  3
Solid line
 72
    65
 73
     0
 40
0.0
  0
ENDTAB
  0
TABLE
  2
LAYER
 70
     2
  0
LAYER
  2
0
 70
    64
 62
     7
  6
CONTINUOUS
  0
LAYER
  2
AME_FRZ
 70
    65
 62
     7
  6
CONTINUOUS
  0
ENDTAB
  0
TABLE
  2
STYLE
 70
     1
  0
STYLE
  2
STANDARD
 70
     0
 40
0.0
 41
1.0
 50
0.0
 71
     0
 42
0.2
  3
txt
  4

  0
ENDTAB
  0
TABLE
  2
VIEW
 70
     0
  0
ENDTAB
  0
TABLE
  2
UCS
 70
     0
  0
ENDTAB
  0
TABLE
  2
APPID
 70
     3
  0
APPID
  2
ACAD
 70
    64
  0
APPID
  2
AME_SOL
 70
    64
  0
APPID
  2
AVE_INVOKE
 70
    64
  0
ENDTAB
  0
TABLE
  2
DIMSTYLE
 70
     0
  0
ENDTAB
  0
ENDSEC
  0
SECTION
  2
BLOCKS
  0
BLOCK
  8
0
  5
1
  2
AME_NIL
 70
    64
 10
0.0
 20
0.0
 30
0.0
  1
AME_NIL
  3
AME_NIL
  0
ENDBLK
  8
0
  5
2
  0
BLOCK
  8
0
  5
4
  2
AME_SOL
 70
    64
 10
0.0
 20
0.0
 30
0.0
  1
AME_SOL
  3
AME_SOL
  0
ENDBLK
  8
0
  5
5
  0
BLOCK
  8
0
  5
25
  2
*U4
 70
    65
 10
0.0
 20
0.0
 30
0.0
  1
*U
  3
*U
  0
LINE
  8
0
 62
     7
  5
26
 10
8.0
 20
4.0
 30
0.0
 11
8.0
 21
4.0
 31
4.0
1001
AME_SOL
1070
     1
1071
       38
  0
LINE
  8
0
 62
     7
  5
27
 10
8.0
 20
4.0
 30
4.0
 11
8.0
 21
0.0
 31
4.0
1001
AME_SOL
1070
     1
1071
       37
  0
LINE
  8
0
 62
     7
  5
28
 10
3.5
 20
4.0
 30
4.0
 11
8.0
 21
4.0
 31
4.0
1001
AME_SOL
1070
     1
1071
       36
  0
LINE
  8
0
 62
     7
  5
29
 10
0.0
 20
4.0
 30
4.0
 11
0.5
 21
4.0
 31
4.0
1001
AME_SOL
1070
     1
1071
       35
  0
LINE
  8
0
 62
     7
  5
2A
 10
0.0
 20
4.0
 30
0.0
 11
0.0
 21
4.0
 31
4.0
1001
AME_SOL
1070
     1
1071
       34
  0
LINE
  8
0
 62
     7
  5
2B
 10
0.0
 20
0.5
 30
4.0
 11
0.0
 21
0.0
 31
4.0
1001
AME_SOL
1070
     1
1071
       33
  0
LINE
  8
0
 62
     7
  5
2C
 10
0.0
 20
4.0
 30
4.0
 11
0.0
 21
3.5
 31
4.0
1001
AME_SOL
1070
     1
1071
       32
  0
LINE
  8
0
 62
     7
  5
2D
 10
0.0
 20
0.0
 30
0.0
 11
0.0
 21
0.0
 31
4.0
1001
AME_SOL
1070
     1
1071
       31
  0
LINE
  8
0
 62
     7
  5
2E
 10
8.0
 20
0.0
 30
4.0
 11
8.0
 21
0.0
 31
0.0
1001
AME_SOL
1070
     1
1071
       30
  0
LINE
  8
0
 62
     7
  5
2F
 10
3.5
 20
0.0
 30
4.0
 11
8.0
 21
0.0
 31
4.0
1001
AME_SOL
1070
     1
1071
       29
  0
LINE
  8
0
 62
     7
  5
30
 10
0.0
 20
0.0
 30
4.0
 11
0.5
 21
0.0
 31
4.0
1001
AME_SOL
1070
     1
1071
       28
  0
LINE
  8
0
 62
     7
  5
31
 10
0.0
 20
0.0
 30
0.0
 11
8.0
 21
0.0
 31
0.0
1001
AME_SOL
1070
     1
1071
       27
  0
LINE
  8
0
 62
     7
  5
32
 10
0.0
 20
4.0
 30
0.0
 11
0.0
 21
0.0
 31
0.0
1001
AME_SOL
1070
     1
1071
       26
  0
LINE
  8
0
 62
     7
  5
33
 10
8.0
 20
0.0
 30
0.0
 11
8.0
 21
4.0
 31
0.0
1001
AME_SOL
1070
     1
1071
       25
  0
LINE
  8
0
 62
     7
  5
34
 10
8.0
 20
4.0
 30
0.0
 11
0.0
 21
4.0
 31
0.0
1001
AME_SOL
1070
     1
1071
       24
  0
LINE
  8
0
 62
     7
  5
35
 10
0.5
 20
0.0
 30
1.0
 11
3.5
 21
0.0
 31
1.0
1001
AME_SOL
1070
     1
1071
       23
  0
LINE
  8
0
 62
     7
  5
36
 10
0.0
 20
3.5
 30
1.0
 11
0.0
 21
0.5
 31
1.0
1001
AME_SOL
1070
     1
1071
       22
  0
LINE
  8
0
 62
     7
  5
37
 10
3.5
 20
4.0
 30
1.0
 11
0.5
 21
4.0
 31
1.0
1001
AME_SOL
1070
     1
1071
       21
  0
ARC
  8
0
 62
     7
  5
38
 10
2.0
 20
2.0
 30
1.0
 40
2.5
 50
126.869898
 51
143.130102
1001
AME_SOL
1070
     1
1071
       20
  0
ARC
  8
0
 62
     7
  5
39
 10
2.0
 20
2.0
 30
1.0
 40
2.5
 50
306.869898
 51
53.130102
1001
AME_SOL
1070
     1
1071
       19
  0
ARC
  8
0
 62
     7
  5
3A
 10
2.0
 20
2.0
 30
1.0
 40
2.5
 50
216.869898
 51
233.130102
1001
AME_SOL
1070
     1
1071
       18
  0
LINE
  8
0
 62
     7
  5
3B
 10
0.5
 20
0.0
 30
1.0
 11
0.5
 21
0.0
 31
4.0
1001
AME_SOL
1070
     1
1071
       17
  0
LINE
  8
0
 62
     7
  5
3C
 10
3.5
 20
0.0
 30
1.0
 11
3.5
 21
0.0
 31
4.0
1001
AME_SOL
1070
     1
1071
       16
  0
LINE
  8
0
 62
     7
  5
3D
 10
0.0
 20
0.5
 30
1.0
 11
0.0
 21
0.5
 31
4.0
1001
AME_SOL
1070
     1
1071
       15
  0
LINE
  8
0
 62
     7
  5
3E
 10
0.0
 20
3.5
 30
1.0
 11
0.0
 21
3.5
 31
4.0
1001
AME_SOL
1070
     1
1071
       14
  0
LINE
  8
0
 62
     7
  5
3F
 10
3.5
 20
4.0
 30
1.0
 11
3.5
 21
4.0
 31
4.0
1001
AME_SOL
1070
     1
1071
       13
  0
LINE
  8
0
 62
     7
  5
40
 10
0.5
 20
4.0
 30
1.0
 11
0.5
 21
4.0
 31
4.0
1001
AME_SOL
1070
     1
1071
       12
  0
ARC
  8
0
 62
     7
  5
41
 10
2.0
 20
2.0
 30
4.0
 40
2.5
 50
126.869898
 51
143.130102
1001
AME_SOL
1070
     1
1071
       11
  0
ARC
  8
0
 62
     7
  5
42
 10
2.0
 20
2.0
 30
4.0
 40
2.5
 50
306.869898
 51
53.130102
1001
AME_SOL
1070
     1
1071
       10
  0
ARC
  8
0
 62
     7
  5
43
 10
2.0
 20
2.0
 30
4.0
 40
2.5
 50
216.869898
 51
233.130102
1001
AME_SOL
1070
     1
1071
        9
  0
LINE
  8
0
 62
     7
  5
44
 10
4.5
 20
2.0
 30
1.0
 11
4.5
 21
2.0
 31
4.0
1001
AME_SOL
1070
     0
1071
        1
  0
ENDBLK
  8
0
  5
45
  0
BLOCK
  8
0
  5
49
  2
AME_JNK
 70
     0
 10
0.0
 20
0.0
 30
0.0
  1
AME_JNK
  3
AME_JNK
  0
ENDBLK
  8
0
  5
4A
  0
ENDSEC
  0
SECTION
  2
ENTITIES
  0
INSERT
  8
AME_FRZ
  5
3
  2
AME_NIL
 10
0.0
 20
0.0
 30
0.0
  0
INSERT
  8
AME_FRZ
  5
6
  2
AME_SOL
 10
0.0
 20
0.0
 30
0.0
1001
AME_SOL
1000
R2.1
1000
AME2
1000
sq cm
1070
     3
1070
     0
1070
     3
1000
wire
1040
45.0
1000
U
1040
1.0
1000
cm
1000
gm
1000
MILD_STEEL
1070
    25
1000
CSG
1070
     1
1070
     3
1070
     3
1070
     3
1070
     0
1000
cu cm
1070
     1
1070
     0
1005
3
  0
INSERT
  8
AME_FRZ
  5
15
  2
AME_NIL
 10
0.0
 20
0.0
 30
0.0
1001
AME_SOL
1002
{
1070
     1
1071
  2481864
1070
  1536
1070
     1
1010
8.0
1020
4.0
1030
4.0
1005
0
1005
0
1005
46
1040
0.0
1040
1.0
1070
     0
1000
MILD_STEEL
1000
0
1010
0.0
1020
0.0
1030
0.0
1010
0.0
1020
0.0
1030
1.0
1040
0.0
1002
}
1001
AVE_INVOKE
1000
SOLAVEMESH
  0
INSERT
  8
AME_FRZ
  5
21
  2
AME_NIL
 10
2.0
 20
2.0
 30
1.0
1001
AME_SOL
1002
{
1070
     1
1071
  2462352
1070
  1538
1070
     1
1010
2.5
1020
2.5
1030
3.0
1005
0
1005
0
1005
46
1040
0.0
1040
1.0
1070
     0
1000
MILD_STEEL
1000
0
1010
2.0
1020
2.0
1030
1.0
1010
0.0
1020
0.0
1030
1.0
1040
0.0
1002
}
1001
AVE_INVOKE
1000
SOLAVEMESH
  0
INSERT
  8
0
  5
46
  2
*U4
 10
0.0
 20
0.0
 30
0.0
1001
AME_SOL
1002
{
1070
     1
1071
  2426536
1070
  1543
1070
     1
1070
     0
1005
15
1005
21
1005
0
1005
47
1005
0
1040
0.0
1040
1.0
1070
     0
1000
MILD_STEEL
1000
0
1002
}
1001
AVE_INVOKE
1000
SOLAVEMESH
  0
INSERT
  8
AME_FRZ
  5
47
  2
AME_NIL
 10
1.0
 20
1.0
 30
1.0
1001
AME_SOL
1004
C7CF010007018301820180017C017501020069015B014901B00060004A0178004E00FE0076016A0128005C014B013501FA009F0036016300DB004C016600370125011B010E01AE00AA009000FD00ED006B0110005D0196004D015F0012007D01FF0077016C015E010500800084006D0150005F014E010400
1004
EB004F013801EF009C00EE0081017E0178016E01240060015001A4003901030026011C010F01AD00F800F9001700510161003A0127018500BE002801B60051006F01BF006101750052013B012901F200BB002A01670031003C012B017A001D014D0010011E0030002C011E011101350038001201DA00D100
1004
1F0113019800BC001401B4000101000119007901400070016201530120003D012D012001150102012100220003012D002E00160104012F0032000501E3009300210117010601E20094000701D700950018010801D600D00009019700CF00060054013E016800B1003F01A800C500F0007F017A0171016301
1004
550140016F002E01220119010A01CB0048000B01CA00C8001A010C0152006D000D01B900B800FB00410144006B0014006401560142012F01AC0086003001EA00920043010800E0000C0072010100650157014401D8003101E100540045010F00D90058014601E700AF0047013201A9008D00330162002301
1004
F700F5007B0173013F0066017F0059012500C000740167010A00180068015A01480134012401F3001F00DF00FC00E800A000000064914C9229BC60DABE488B60A37E655AE2932282151CCB4852645042A399690047E193D35278B62716661614C4E274CDE0FA989C4E99BC194D760D386714991410A8E65A
1004
42932282151CCB4825D189F5BA7C7189C4E99BC1F531389D33783EA62713A66F065356482DF459DA45B560876482FFD773FFFFFFF5DCFFFEAFEAFD770C7F3C57E78AFFFFFF6482FFD773FFFFFFF5DCFFFEAFEAFD770C7F3C57E78AFFFFFD7493D3248AE3937FAEE7FFFFFFEBB9FE1911113E2909FABF5DC0
1004
584DEB0C568CD9B7CF8B09BD618AD19B36F879AFE9E992071C9BFD773FFFFFFF5DCFF4FA222222703222227C52FD77016137AC315A3366DF3E2C26F5862B466CDBE1E6BFA7A649AE3937FAEE7FFFFFFEBB9FFF8FABFABF5DC0584DEB0C568CD9B7CF8B09BD618AD19B36F87BDAFFAE97F83B09BD618AD19B
1004
36F9F1FD749AFB294C26F5862B466CDBE1E6BFFB5F652814F82224F82226BFFB5F65293D325E3937FAEE7FFFFFFEBB9FE9F4444444E7E3EAFD77016137AC315A3366DF3E2C26F5862B466CDBE1E6BFB069C2CE2932282151CCB4852645042A3996904BA313EB74F8E31389D33783EA62713A66F07D47285D
1004
24EC45DC6A68585233B48B6AC12E685FFAEE7FFFFF33FAE97F33FD5FD5FAEE18FFFFFFFFFF9A17FEBB9FFFFFCCFEBA5FCCFF57F57EBB863FFFFFFFFFAE93069C1E4023F0C9E9A90047E193D352008FC327A6A4F16C4E2CCC2C2989C4E99BC194011F864F4D71A9A16EEC8A16BB5592B59A17FFFEBB9FFFAE
1004
E7FFFFFFFFF98FFFFFFFFFF9A17FFFEBB9FFFAEE7FFFFFFFFF98FFFFFFFFFEBB8C1A70CA8047E193D352008FC327A6A4011F864F4D49E2D89C59985850047E193D35C62713A66F06535342DB0C042D76A9DB59A17FEBB9FFFFFFFFFAEE7FFFFF98FFFFFFFFFF9A17FEBB9FFFFFFFFFAEE7FFFFF98FFFFFFF
1004
FFEBB8C1A70CA8047E193D352008FC327A6A4011F864F4D48023F0C9E9AE31389D337832989C4E99BC194D4D0B7D5BA16BB54F76B342FFFFFFD773FFF5DCFFFFFFFF31FFFFFFFFFF342FFFFFFD773FFF5DCFFFFFFFF31FFFFFFFFFD771834E1E4023F0C9E9A90047E193D3526D8F356E1EB694F16C4E2CCC
1004
2C2989C4E99BC194C4E274CDE0CA6A6859C1085AED5648D6685FFAE97F33FCCFF33FAE97F33FAC2BF195F8CA31FFFFFFFFFF342FFD74BF99FE67F99FD74BF99FD615F8CAFC6518FFFFFFFFFEBB8C1A70CA8047E193D3526D8F356E1EB694011F864F4D49E2D89C599858531389D337832989C4E99BC194D4
1004
D0B5A2D50B5DAAC8DACD0BFF99FE67F5D2FD74BF99FE67F5857E32BF19463FFFFFFFFFE685FFCCFF33FAE97EBA5FCCFF33FAC2BF195F8CA31FFFFFFFFFD771834E0F22F6ECCBE06FEF854011F864F4D48023F0C9E9A93C5B138B330B0A62713A66F06531389D3378329A9A1614DE216BB5591359A17FF33F
1004
AE97F33FCCFF33FAE97EB0AFC657E328C7FFFFFFFFFCD0BFF99FD74BF99FE67F99FD74BF5857E32BF19463FFFFFFFFFAEE221F8047E193D352008FC327A6A4DB1E6ADC3D6D2989C4E99BC1F531389D337832989C4E99BC194128E278C345DF28A776123A7AC9B648F34EE0BE5327E2C85DBB5227D16769C1
1004
08704E0842FA2CED6B91113E537FAEE7FFFFFFEBB9FFFD5FD5F8CA3CFE78AFCF14128E278C345DF28A776123A7AC9B648F34EE887E011F864F4D48023F0C9E9A936C79AB70F5B4A62713A66F07D4C4E274CDE0CA62713A66F06523E9CA3184E99017A48FA728C613A6405EE02F94CCB60ABB76A44FA2CED3
1004
8210E09C1085F459DAD722227CA6FF5DCFFFFFFFD773FFFABFABF19479FCF15F9E291F4E518C274C80BD247D3946309D3202F7110FC023F0C9E9A90047E193D3526D8F356E1EB694C4E274CDE0FA989C4E99BC194C4E274CDE0CA6123A7AC9B648F34A094713C61A2EF9452817CA60A5903B76A44FA2CED3
1004
8210E09C1085F459DAD722227CA6FF5DCFFFFFFFD773FFFABFABF19479FCF15F9E29848E9EB26D923CD28251C4F1868BBE514A443F008FC327A6A4DB1E6ADC3D6D2825D189F5BA7C7189C4E99BC1F531389D337832989C4E99BC195FED7D94A047260A74876A44FA2CED5A2D50E0AD16A85F459DAD722221
1004
C9BFD773FFFFFFF5DCFF3CFB2DCFC657EBB80FFB5F652910FC023F0C9E9A936C79AB70F5B4A0974627D6E9F1C62713A66F07D4C4E274CDE0CA62713A66F0657FB5F652811C98E1714391357D1676AD16A8705F459DAB45AA122226B8E4DFEBB9FFFFFFFAEE7FFECD5F8CAFD7701FF6BECA5221F8047E193D
1004
352008FC327A6A412E8C4FADD3E38011F864F4D7189C4E99BC194C4E274CDE0CAFF6BECA502393196410E44D5F459DAFAB74382FA2CED7D5BA122226B8E4DFEBB9FFFFFFFAEE7FFFFECD5FAEE03FED7D94A443F008FC327A6A4011F864F4D4825D189F5BA7C70023F0C9E9AE31389D337832989C4E99BC19
1004
5FED7D94A04726328B0876A44FA2CED7D5BA1C17D5BA17D1676B5C8888726FF5DCFFFFFFFD773FFFC1F65B9FAEE03FED7D94A443F008FC327A6A4011F864F4D4825D189F5BA7C7189C4E99BC1F50047E193D35C62713A66F0657FB5F652811C985C8B821DA913E8B3B5B0C04382D860217D1676B5C888872
1004
6FF5DCFFFFFFFD773FFF66AFD3F93F7F5DC07FDAFB294887E011F864F4D48023F0C9E9A904BA313EB74F8E31389D33783EA008FC327A6B8C4E274CDE0CAFF6BECA50239327BB750E44D5F459DAD86021C17D1676B6180848889AE3937FAEE7FFFFFFEBB9FE79F65B9FA7F27EFEBB80FFB5F652910FC52645
1004
042A399690A4C8A0854732D20974627D6E9F1C62713A66F07D4C4E274CDE0FA8E50BA49D88BB8128E278C345DF28A776123A7AC9B648F34EE0BE532D825DB91357D167685233B705F459DA148CED222222227CA6FF5DCFFFFFFFD773FFFABFABF5DC3CFE78AFCF14128E278C345DF28A776123A7AC9B648F
1004
34EE887E2932282151CCB4852645042A3996904BA313EB74F8E31389D33783EA62713A66F07D47285D24EC45DC47D3946309D3202F491F4E518C274C80BDC05F2993F079DB91357D167685233B705F459DA148CED222222227CA6FF5DCFFFFFFFD773FFFABFABF5DC3CFE78AFCF148FA728C613A6405E923
1004
E9CA3184E99017B8887E2932282151CCB4852645042A3996904BA313EB74F8E31389D33783EA62713A66F07D47285D24EC45DC6123A7AC9B648F34A094713C61A2EF9452817CA67D60B21C89ABE8B3B42919DB82FA2CED0A4676911111113E537FAEE7FFFFFFEBB9FFFD5FD5FAEE1E7F3C57E78A6123A7AC
1004
9B648F34A094713C61A2EF9452910FC023F0C9E9A936C79AB70F5B4A0974627D6E9F1C62713A66F07D4C4E274CDE0CA3942E927622EE35F45973F1F5023932C0AD0ED4882919DAB45AA1C15A2D5085233B5AE44443937FFFAEE7FFFFFFEBA5FB157E32BF5DC05AFA2CB9F8FA910FC023F0C9E9A90047E193
1004
D3520974627D6E9F1C008FC327A6B8C4E274CDE0CA3942E927622EE111111229DD16911113E2E02393040AD0ED4882919DAFAB74382FAB742148CED6B91110E4DFEBA5FFFFFFFFFAE97FFEBB9FAEE024444448A7745A44444F8B8887E011F864F4D48023F0C9E9A904BA313EB74F8E31389D33783EA008FC
1004
327A6B87285D24EC45DC45A44444F8A44444448A502393305DF50ED4882919DAD86021C16C301085233B5AE44443937FFFAE97FFFFFFEBA5FAEE7FFEBB80A2D222227C52222222452910FC023F0C9E9A936C79AB70F5B4A008FC327A6A4F16C4E2CCC2C2989C4E99BC194011F864F4D73F19DFF19408E4CC
1004
136C90E44D5DD9142B45AA1C1776450AD16A85AED71C9BFFFD773FFFFFFF5D2FC657E32BFC1FC677FC65221F8BDBB32F81BFBE150047E193D352008FC327A6A4F16C4E2CCC2C2989C4E99BC194011F864F4D73FBBFF50239336165087226AEEC8A10A6F10E0BBB228429BC42D76B8E4DFEBB9FFFFFFFFFAE
1004
97EB0AFEAFF07FBBFF5221F8047E193D352008FC327A6A4011F864F4D48023F0C9E9AE31389D3378328023F0C9E9AE7E33BFF3208E4CFAB26439135776450BEADD0E0BBB2285F56E85AED71C9BFD74BFFFFFFFFF5D2FFFFFF07F19DFF99443F008FC327A6A4011F864F4D48023F0C9E9A93C5B138B330B0A
1004
008FC327A6B8011F864F4D73FFF585023931959621C89ABBB2285B0C04382EEC8A16C3010B5DAE3937FFFAE97FFFFFFEBA5FFFFFE0FFFEB0A443F008FC327A6A4011F864F4D49B63CD5B87ADA53C5B138B330B0A008FC327A6B8C4E274CDE0CAFC677FD9BB823930B959521C89AB618084E084382D860213
1004
8210B5DAE3937FFFFFAEE7FFEBA5FFF8CAFFFC6503F8CEFFB377443F008FC327A6A4011F864F4D49B63CD5B87ADA53C5B138B330B0A008FC327A6B8C4E274CDE0CA3CFB2D2FC65023933F6C21C89AB618084E084382D8602138210B5DAE3937FFFFFAEE7FFEBA5FFF8CAFFFC650279F65A5F8CA443F17B76
1004
65F037F7C2A008FC327A6A4011F864F4D49E2D89C59985850047E193D35C62713A66F0657F77FEA047264F9597A1C89AB61808429BC4382D860210A6F10B5DAE3937FAEE7FFFFFFEBA5FFFAC2BFFFA81FEEFFD4887E011F864F4D48023F0C9E9A90047E193D352008FC327A6B8011F864F4D7189C4E99BC1
1004
95FFF8CA047264F9596A1C89AB618085F56E8705B0C042FAB742D76B8E4DFEBA5FFFFFFFAE97FFFFFFF83FFF8CA443F008FC327A6A4011F864F4D49B63CD5B87ADA50047E193D35C62713A66F06531389D337832BFBB8644444DF9204726608A7DA1C89ABEADD09C108705F56E84E0842D76B8E4DFFFFFEB
1004
B9FAE97FFFFFFF57E3281FEEE19111137E4910FC023F0C9E9A90047E193D3526D8F356E1EB694011F864F4D7189C4E99BC194C4E274CDE0CA0C88889BF39FD408E4CFA9F687226AFAB74270421C17D5BA138210B5DAE3937FFFFFAEE7EBA5FFFFFFFD5F8CA043222226FCE7F5221F8047E193D3526D8F356
1004
E1EB694011F864F4D48023F0C9E9AE31389D337832989C4E99BC195FDDFFA811C985CB2687226AFAB742B45AA1C17D5BA15A2D50B5DAE3937FFFAEE7FFEBA5FFFFFFF8CAFEA07FBBFF5221F8047E193D3526D8F356E1EB694DB1E6ADC3D6D29E2D89C599858531389D337832989C4E99BC195FAC3BFE9ECE
1004
E08E4CFD64E87226A704215A2D50E09C108568B542D76B8E4DFFFEBB9FFFFFFFAEE7EB0AFC657E3281FD61DFF4F677443F008FC327A6A4DB1E6ADC3D6D29B63CD5B87ADA53C5B138B330B0A62713A66F06531389D33783281F1F77FE6411C982165287226A704215A2D50E09C108568B542D76B8E4DFFFEB
1004
B9FFFFFFFAEE7EB0AFC657E328107C7DDFF99443F17B7665F037F7C2A008FC327A6A4DB1E6ADC3D6D29E2D89C599858531389D337832989C4E99BC195FFF8CA0472665ACAD0E44D4E084214DE21C1382108537885AED71C9BFD773FFFFF99FFFD773F5857E32BF1940FFFE32910FC5EDD997C0DFDF0A9B63
1004
CD5B87ADA50047E193D35278B62716661614C4E274CDE0CA62713A66F0657E33BFF3208E4C32CB90E44D568B54214DE21C15A2D508537885AED71C9BFD773FFFFFFF5DCFFFD615F8CAFC6503F8CEFFCCA7FDF29FE7
1005
48
  0
INSERT
  8
AME_FRZ
  5
48
  2
AME_NIL
 10
1.0
 20
1.0
 30
1.0
1001
AME_SOL
1004

1005
0
  0
ENDSEC
  0
EOF
