106 0 1 0           
body $-1 $1 $-1 $-1 #
lump $-1 $-1 $2 $0 #
shell $-1 $-1 $-1 $3 $1 #
face $-1 $4 $5 $2 $-1 $6 forward single #
face $-1 $7 $8 $2 $-1 $9 forward single #
loop $-1 $-1 $10 $3 #
plane-surface $-1 0 5 15 0 -1 0 0 0 -1 0 I I I I #
face $-1 $11 $12 $2 $-1 $13 forward single #
loop $-1 $-1 $14 $4 #
plane-surface $-1 0 0 10 0 0 1 1 0 0 0 I I I I #
coedge $-1 $15 $16 $17 $18 1 $5 $-1 #
face $-1 $19 $20 $2 $-1 $21 reversed single #
loop $-1 $-1 $22 $7 #
plane-surface $-1 0 -5 15 0 1 0 0 0 1 0 I I I I #
coedge $-1 $23 $24 $25 $26 1 $8 $-1 #
coedge $-1 $27 $10 $24 $28 0 $5 $-1 #
coedge $-1 $10 $27 $29 $30 1 $5 $-1 #
coedge $-1 $31 $25 $10 $18 0 $20 $-1 #
edge $-1 $32 $33 $17 $34 0 #
face $-1 $35 $36 $2 $-1 $37 reversed single #
loop $-1 $38 $39 $11 #
cone-surface $-1 -40 0 0 0 0 1 30 0 0 1 I I 0 1 0 I I I I #
coedge $-1 $40 $41 $39 $42 1 $12 $-1 #
coedge $-1 $43 $14 $41 $44 1 $8 $-1 #
coedge $-1 $14 $43 $15 $28 1 $8 $-1 #
coedge $-1 $17 $39 $14 $26 0 $20 $-1 #
edge $-1 $45 $32 $25 $46 0 #
coedge $-1 $16 $15 $47 $48 1 $5 $-1 #
edge $-1 $32 $49 $15 $50 0 #
coedge $-1 $51 $52 $16 $30 0 $53 $-1 #
edge $-1 $33 $54 $29 $55 0 #
coedge $-1 $39 $17 $52 $56 1 $20 $-1 #
vertex $-1 $26 $57 #
vertex $-1 $56 $58 #
straight-curve $-1 -10.41960108450192 5 0 0 0 1 I I #
face $-1 $59 $60 $2 $-1 $61 forward single #
loop $-1 $62 $63 $19 #
cone-surface $-1 40 0 0 0 0 1 30 0 0 1 I I 0 1 0 I I I I #
loop $-1 $-1 $64 $11 #
coedge $-1 $25 $31 $22 $42 0 $20 $-1 #
coedge $-1 $65 $22 $66 $67 1 $12 $-1 #
coedge $-1 $22 $65 $23 $44 0 $12 $-1 #
edge $-1 $68 $45 $39 $69 0 #
coedge $-1 $24 $23 $70 $71 1 $8 $-1 #
edge $-1 $72 $45 $41 $73 0 #
vertex $-1 $26 $74 #
ellipse-curve $-1 -40 0 10 0 0 1 30 0 0 1 I I #
coedge $-1 $70 $75 $27 $48 0 $36 $-1 #
edge $-1 $54 $49 $47 $76 0 #
vertex $-1 $71 $77 #
straight-curve $-1 0 5 10 1 0 0 I I #
coedge $-1 $66 $29 $75 $78 0 $53 $-1 #
coedge $-1 $29 $66 $31 $56 0 $53 $-1 #
loop $-1 $79 $66 $80 #
vertex $-1 $48 $81 #
straight-curve $-1 0 5 20 1 0 0 I I #
edge $-1 $68 $33 $52 $82 0 #
point $-1 -10.41960108450192 5 10 #
point $-1 -10.41960108450192 5 20 #
face $-1 $80 $83 $2 $-1 $84 forward single #
loop $-1 $-1 $85 $35 #
cone-surface $-1 -40 0 0 0 0 1 40 0 0 1 I I 0 1 0 I I I I #
loop $-1 $-1 $86 $19 #
coedge $-1 $75 $70 $65 $87 0 $36 $-1 #
coedge $-1 $64 $64 $88 $89 1 $38 $-1 #
coedge $-1 $41 $40 $63 $87 1 $12 $-1 #
coedge $-1 $52 $51 $40 $67 0 $53 $-1 #
edge $-1 $90 $68 $66 $91 0 #
vertex $-1 $67 $92 #
straight-curve $-1 -10.41960108450192 -5 0 0 0 -1 I I #
coedge $-1 $63 $47 $43 $71 0 $36 $-1 #
edge $-1 $49 $72 $70 $93 0 #
vertex $-1 $71 $94 #
straight-curve $-1 0 -5 10 -1 0 0 I I #
point $-1 -10.41960108450192 -5 10 #
coedge $-1 $47 $63 $51 $78 1 $36 $-1 #
straight-curve $-1 10.41960108450192 5 0 0 0 -1 I I #
point $-1 10.41960108450192 5 10 #
edge $-1 $54 $90 $51 $95 0 #
loop $-1 $-1 $96 $80 #
face $-1 $97 $53 $2 $-1 $98 forward single #
point $-1 10.41960108450192 5 20 #
ellipse-curve $-1 -40 0 20 0 0 -1 30 0 0 1 I I #
loop $-1 $-1 $99 $59 #
cone-surface $-1 40 0 0 0 0 1 40 0 0 1 I I 0 1 0 I I I I #
coedge $-1 $100 $101 $102 $103 1 $60 $-1 #
coedge $-1 $86 $86 $104 $105 1 $62 $-1 #
edge $-1 $72 $90 $63 $106 0 #
coedge $-1 $88 $88 $64 $89 0 $107 $-1 #
edge $-1 $108 $108 $88 $109 0 #
vertex $-1 $78 $110 #
straight-curve $-1 0 -5 20 -1 0 0 I I #
point $-1 -10.41960108450192 -5 20 #
ellipse-curve $-1 40 0 10 0 0 1 30 0 0 1 I I #
point $-1 10.41960108450192 -5 10 #
ellipse-curve $-1 40 0 20 0 0 -1 30 0 0 1 I I #
coedge $-1 $111 $112 $113 $114 0 $79 $-1 #
face $-1 $115 $107 $2 $-1 $116 reversed single #
plane-surface $-1 0 0 20 0 0 1 1 0 0 0 I I I I #
coedge $-1 $117 $118 $119 $120 0 $83 $-1 #
coedge $-1 $121 $85 $122 $123 1 $60 $-1 #
coedge $-1 $85 $121 $112 $124 1 $60 $-1 #
coedge $-1 $125 $126 $85 $103 0 $127 $-1 #
edge $-1 $128 $129 $102 $130 1 #
coedge $-1 $104 $104 $86 $105 0 $131 $-1 #
edge $-1 $132 $132 $104 $133 0 #
straight-curve $-1 10.41960108450192 -5 0 0 0 1 I I #
loop $-1 $131 $88 $97 #
vertex $-1 $89 $134 #
ellipse-curve $-1 -40 0 -20 0 0 1 30 0 0 1 I I #
point $-1 10.41960108450192 -5 20 #
coedge $-1 $135 $96 $117 $136 0 $79 $-1 #
coedge $-1 $96 $135 $101 $124 0 $79 $-1 #
coedge $-1 $137 $138 $96 $114 1 $139 $-1 #
edge $-1 $140 $141 $113 $142 0 #
face $-1 $143 $139 $2 $-1 $144 reversed single #
plane-surface $-1 0 0 -20 0 0 1 1 0 0 0 I I I I #
coedge $-1 $145 $99 $111 $136 1 $83 $-1 #
coedge $-1 $99 $145 $146 $147 1 $83 $-1 #
coedge $-1 $126 $125 $99 $120 1 $127 $-1 #
edge $-1 $148 $149 $119 $150 1 #
coedge $-1 $101 $100 $137 $151 0 $60 $-1 #
coedge $-1 $152 $153 $100 $123 0 $154 $-1 #
edge $-1 $155 $128 $122 $156 0 #
edge $-1 $129 $140 $112 $157 0 #
coedge $-1 $119 $102 $135 $158 1 $127 $-1 #
coedge $-1 $102 $119 $152 $159 1 $127 $-1 #
loop $-1 $-1 $119 $143 #
vertex $-1 $159 $160 #
vertex $-1 $158 $161 #
straight-curve $-1 -40 40 0 0 0 -1 I I #
loop $-1 $154 $104 $97 #
vertex $-1 $105 $162 #
ellipse-curve $-1 40 0 -20 0 0 1 30 0 0 1 I I #
point $-1 -10 0 -20 #
coedge $-1 $112 $111 $125 $158 0 $79 $-1 #
edge $-1 $141 $149 $111 $163 0 #
coedge $-1 $164 $113 $121 $151 1 $139 $-1 #
coedge $-1 $113 $164 $145 $165 0 $139 $-1 #
loop $-1 $-1 $137 $115 #
vertex $-1 $114 $166 #
vertex $-1 $136 $167 #
straight-curve $-1 0 -40 20 1 0 0 I I #
face $-1 $-1 $127 $2 $-1 $168 reversed single #
plane-surface $-1 0 -40 0 0 1 0 0 0 1 0 I I I I #
coedge $-1 $118 $117 $138 $165 1 $83 $-1 #
coedge $-1 $153 $152 $118 $147 0 $154 $-1 #
edge $-1 $148 $169 $146 $170 0 #
vertex $-1 $147 $171 #
vertex $-1 $158 $172 #
straight-curve $-1 40 40 0 0 0 -1 I I #
edge $-1 $155 $140 $137 $173 1 #
coedge $-1 $146 $122 $126 $159 0 $154 $-1 #
coedge $-1 $122 $146 $164 $174 0 $154 $-1 #
loop $-1 $-1 $152 $97 #
vertex $-1 $123 $175 #
ellipse-curve $-1 -40 0 -20 0 0 -1 40 0 0 1 I I #
ellipse-curve $-1 -40 0 20 0 0 1 40 0 0 1 I I #
edge $-1 $149 $129 $125 $176 0 #
edge $-1 $128 $148 $126 $177 0 #
point $-1 -40 40 -20 #
point $-1 -40 40 20 #
point $-1 70 0 -20 #
ellipse-curve $-1 40 0 20 0 0 1 40 0 0 1 I I #
coedge $-1 $138 $137 $153 $174 1 $139 $-1 #
edge $-1 $169 $141 $138 $178 1 #
point $-1 -40 -40 20 #
point $-1 40 -40 20 #
plane-surface $-1 0 40 0 0 -1 0 0 0 -1 0 I I I I #
vertex $-1 $165 $179 #
ellipse-curve $-1 40 0 -20 0 0 -1 40 0 0 1 I I #
point $-1 40 40 -20 #
point $-1 40 40 20 #
straight-curve $-1 -40 -40 0 0 0 -1 I I #
edge $-1 $169 $155 $164 $180 0 #
point $-1 -40 -40 -20 #
straight-curve $-1 0 40 20 -1 0 0 I I #
straight-curve $-1 0 40 -20 1 0 0 I I #
straight-curve $-1 40 -40 0 0 0 -1 I I #
point $-1 40 -40 -20 #
straight-curve $-1 0 -40 -20 -1 0 0 I I #
End-of-ACIS-data 