600 0 2 0           
24 FBMach with ACIS - 6.0.3 13 ACIS 6.0.3 NT 24 Wed May 23 20:18:52 2001 
1 9.9999999999999995e-007 1e-010 
body $2 $3 $-1 $4 #
bdycol-kcp $-1 1 5 $5 $6 $7 $8 $9 #
model_id-kcp-attrib $-1 $-1 $-1 $0 1 990663531 50 -1557004287 1 #
lump $-1 $-1 $10 $0 #
transform $-1 1 0 0 0 1 0 0 0 1 0 0 0 1 no_rotate no_reflect no_shear #
body $11 $12 $-1 $13 #
body $14 $15 $-1 $16 #
body $17 $18 $-1 $19 #
body $20 $21 $-1 $22 #
body $23 $24 $-1 $25 #
shell $-1 $-1 $-1 $26 $-1 $3 #
model_id-kcp-attrib $-1 $-1 $-1 $5 1 990663531 50 -1557004286 1 #
lump $-1 $-1 $27 $5 #
transform $-1 1 0 0 0 1 0 0 0 1 0 0 0 1 no_rotate no_reflect no_shear #
rgb_color-st-attrib $-1 $28 $-1 $6 0.5 1 1 #
lump $-1 $-1 $29 $6 #
transform $-1 1 0 0 0 1 0 0 0 1 -40 0 0 1 no_rotate no_reflect no_shear #
rgb_color-st-attrib $-1 $30 $-1 $7 0.5 1 1 #
lump $-1 $-1 $31 $7 #
transform $-1 1 0 0 0 1 0 0 0 1 40 0 0 1 no_rotate no_reflect no_shear #
rgb_color-st-attrib $-1 $32 $-1 $8 0.5 1 1 #
lump $-1 $33 $34 $8 #
transform $-1 1 0 0 0 1 0 0 0 1 0 0 0 1 no_rotate no_reflect no_shear #
rgb_color-st-attrib $-1 $35 $-1 $9 0 0 1 #
lump $-1 $-1 $36 $9 #
transform $-1 1 0 0 0 1 0 0 0 1 0 0 0 1 no_rotate no_reflect no_shear #
face $37 $38 $39 $10 $-1 $40 forward single #
shell $-1 $-1 $-1 $41 $-1 $12 #
model_id-kcp-attrib $-1 $-1 $14 $6 1 990663531 90 -1554382845 1 #
shell $-1 $-1 $-1 $42 $-1 $15 #
model_id-kcp-attrib $-1 $-1 $17 $7 1 990663531 90 -1554382844 1 #
shell $-1 $-1 $-1 $43 $-1 $18 #
model_id-kcp-attrib $-1 $-1 $20 $8 1 990663531 190 -1547829243 1 #
lump $-1 $-1 $44 $8 #
shell $-1 $-1 $-1 $45 $-1 $21 #
model_id-kcp-attrib $-1 $-1 $23 $9 1 990663531 370 -1552809978 1 #
shell $-1 $-1 $-1 $46 $-1 $24 #
model_id-kcp-attrib $-1 $-1 $-1 $26 1 990663531 50 -1557004287 2 #
face $47 $48 $49 $10 $-1 $50 forward single #
loop $51 $-1 $52 $26 #
plane-surface $-1 0 5 15 0 -1 0 0 0 -1 forward_v I I I I #
face $53 $54 $55 $27 $-1 $56 forward single #
face $-1 $57 $58 $29 $-1 $59 forward single #
face $-1 $60 $61 $31 $-1 $62 forward single #
shell $-1 $-1 $-1 $63 $-1 $33 #
face $-1 $64 $65 $34 $-1 $66 reversed single #
face $-1 $67 $68 $36 $-1 $69 forward single #
model_id-kcp-attrib $-1 $-1 $-1 $38 1 990663531 50 -1557004287 3 #
face $70 $71 $72 $10 $-1 $73 forward single #
loop $74 $-1 $75 $38 #
plane-surface $-1 0 0 10 0 0 1 1 0 0 forward_v I I I I #
model_id-kcp-attrib $-1 $76 $-1 $39 1 990663531 50 -1557004287 28 #
coedge $-1 $77 $78 $79 $80 reversed $39 $-1 #
model_id-kcp-attrib $-1 $-1 $-1 $41 1 990663531 50 -1557004286 2 #
face $81 $82 $83 $27 $-1 $84 reversed single #
loop $-1 $-1 $85 $41 #
plane-surface $-1 0 0 20 0 0 1 1 0 0 forward_v I I I I #
face $-1 $86 $87 $29 $-1 $88 forward single #
loop $-1 $89 $90 $42 #
cone-surface $-1 0 0 0 0 0 1 30 0 0 1 I I 0 1 30 forward I I I I #
face $-1 $91 $92 $31 $-1 $93 forward single #
loop $-1 $94 $95 $43 #
cone-surface $-1 0 0 0 0 0 1 30 0 0 1 I I 0 1 30 forward I I I I #
face $-1 $96 $97 $44 $-1 $98 reversed single #
face $-1 $99 $100 $34 $-1 $66 reversed single #
loop $-1 $-1 $101 $45 #
cone-surface $-1 -40 0 20 0 0 1 0 -40 0 1 I I 0 1 40 forward I I I I #
face $-1 $102 $103 $36 $-1 $104 forward single #
loop $-1 $-1 $105 $46 #
plane-surface $-1 -10.41960108450192 5 10 0 1 0 0 0 1 forward_v I I I I #
model_id-kcp-attrib $-1 $-1 $-1 $48 1 990663531 50 -1557004287 4 #
face $106 $107 $108 $10 $-1 $109 reversed single #
loop $110 $-1 $111 $48 #
plane-surface $-1 0 -5 15 0 1 0 0 0 1 forward_v I I I I #
model_id-kcp-attrib $-1 $112 $-1 $49 1 990663531 50 -1557004287 29 #
coedge $-1 $113 $114 $115 $116 reversed $49 $-1 #
model_id-kcp-attrib $-1 $-1 $51 $39 1 990663531 50 -1557004287 21 #
coedge $-1 $117 $52 $114 $118 forward $39 $-1 #
coedge $-1 $52 $117 $119 $120 reversed $39 $-1 #
coedge $-1 $121 $115 $52 $80 forward $108 $-1 #
edge $122 $123 10 $124 20 $79 $125 forward 7 unknown #
model_id-kcp-attrib $-1 $-1 $-1 $54 1 990663531 50 -1557004286 3 #
face $126 $127 $128 $27 $-1 $129 reversed single #
loop $-1 $-1 $130 $54 #
plane-surface $-1 0 0 -20 0 0 1 1 0 0 forward_v I I I I #
coedge $-1 $131 $132 $133 $134 forward $55 $-1 #
face $-1 $-1 $135 $29 $-1 $136 forward single #
loop $-1 $-1 $137 $57 #
plane-surface $-1 0 0 -20 0 0 -1 -1 0 0 forward_v I I I I #
loop $-1 $-1 $138 $42 #
coedge $-1 $90 $90 $137 $139 reversed $58 $-1 #
face $-1 $-1 $140 $31 $-1 $141 forward single #
loop $-1 $-1 $142 $60 #
plane-surface $-1 0 0 -20 0 0 -1 -1 0 0 forward_v I I I I #
loop $-1 $-1 $143 $43 #
coedge $-1 $95 $95 $142 $144 reversed $61 $-1 #
face $-1 $145 $146 $44 $-1 $147 reversed single #
loop $-1 $-1 $148 $63 #
plane-surface $-1 80 0 0 -1 0 0 0 0 1 forward_v I I I I #
face $-1 $149 $150 $34 $-1 $151 reversed single #
loop $-1 $-1 $152 $64 #
coedge $-1 $153 $154 $155 $156 reversed $65 $-1 #
face $-1 $157 $158 $36 $-1 $159 forward single #
loop $-1 $-1 $160 $67 #
cone-surface $-1 40 0 10 0 0 1 30 0 0 1 I I 0 1 30 forward I I I I #
coedge $-1 $161 $162 $163 $164 forward $68 $-1 #
model_id-kcp-attrib $-1 $-1 $-1 $71 1 990663531 50 -1557004287 5 #
face $165 $166 $167 $10 $-1 $168 reversed single #
loop $169 $170 $171 $71 #
cone-surface $-1 -40 0 0 0 0 1 30 0 0 1 I I 0 1 30 forward I I I I #
model_id-kcp-attrib $-1 $172 $-1 $72 1 990663531 50 -1557004287 26 #
coedge $-1 $173 $174 $171 $175 reversed $72 $-1 #
model_id-kcp-attrib $-1 $-1 $74 $49 1 990663531 50 -1557004287 20 #
coedge $-1 $176 $75 $174 $177 reversed $49 $-1 #
coedge $-1 $75 $176 $77 $118 reversed $49 $-1 #
coedge $-1 $79 $171 $75 $116 forward $108 $-1 #
edge $178 $179 -0.16744807921968935 $123 0.16744807921968935 $115 $180 forward 7 unknown #
coedge $-1 $78 $77 $181 $182 reversed $39 $-1 #
edge $-1 $123 -10.41960108450192 $183 10.41960108450192 $77 $184 forward 7 unknown #
coedge $-1 $185 $186 $78 $120 forward $187 $-1 #
edge $188 $124 -10.41960108450192 $189 10.41960108450192 $119 $190 forward 7 unknown #
coedge $-1 $171 $79 $186 $191 reversed $108 $-1 #
attrib_edge_convexity-kcp-attrib $-1 $192 $-1 $80 1 #
vertex $-1 $116 $193 #
vertex $-1 $191 $194 #
straight-curve $-1 -10.41960108450192 5 0 0 0 1 I I #
model_id-kcp-attrib $-1 $-1 $-1 $82 1 990663531 50 -1557004286 4 #
face $-1 $195 $196 $27 $-1 $197 reversed single #
loop $-1 $-1 $198 $82 #
plane-surface $-1 0 -40 0 0 1 0 0 0 1 forward_v I I I I #
coedge $-1 $199 $200 $201 $202 forward $83 $-1 #
coedge $-1 $203 $85 $204 $205 forward $55 $-1 #
coedge $-1 $85 $203 $206 $207 forward $55 $-1 #
coedge $-1 $208 $209 $85 $134 reversed $210 $-1 #
edge $-1 $211 -40 $212 40 $133 $213 forward 7 unknown #
loop $-1 $-1 $214 $86 #
plane-surface $-1 0 0 20 0 0 1 1 0 0 forward_v I I I I #
coedge $-1 $137 $137 $90 $139 forward $87 $-1 #
coedge $-1 $138 $138 $214 $215 reversed $89 $-1 #
edge $-1 $216 0 $216 6.2831853071795862 $137 $217 forward 7 unknown #
loop $-1 $-1 $218 $91 #
plane-surface $-1 0 0 20 0 0 1 1 0 0 forward_v I I I I #
coedge $-1 $142 $142 $95 $144 forward $92 $-1 #
coedge $-1 $143 $143 $218 $219 reversed $94 $-1 #
edge $-1 $220 0 $220 6.2831853071795862 $142 $221 forward 7 unknown #
face $-1 $222 $223 $44 $-1 $147 reversed single #
loop $-1 $-1 $224 $96 #
plane-surface $-1 0 0 -20 0 0 1 1 0 0 forward_v I I I I #
coedge $-1 $225 $226 $227 $228 forward $97 $-1 #
face $-1 $229 $230 $34 $-1 $231 reversed single #
loop $-1 $-1 $232 $99 #
plane-surface $-1 -80 0 0 1 0 0 0 0 -1 forward_v I I I I #
coedge $-1 $233 $234 $235 $236 reversed $100 $-1 #
coedge $-1 $237 $101 $238 $239 reversed $65 $-1 #
coedge $-1 $101 $237 $233 $240 forward $65 $-1 #
coedge $-1 $241 $242 $101 $156 forward $243 $-1 #
edge $-1 $244 0 $245 1.5707963267948966 $155 $246 forward 7 unknown #
face $-1 $247 $248 $36 $-1 $249 forward single #
loop $-1 $-1 $250 $102 #
plane-surface $-1 10.41960108450192 -5 10 0 -1 0 0 0 -1 forward_v I I I I #
coedge $-1 $251 $252 $253 $254 forward $103 $-1 #
coedge $-1 $255 $105 $252 $256 reversed $68 $-1 #
coedge $-1 $105 $255 $257 $258 forward $68 $-1 #
coedge $-1 $259 $253 $105 $164 reversed $260 $-1 #
edge $-1 $261 -10.41960108450192 $262 10.41960108450192 $105 $263 forward 7 unknown #
model_id-kcp-attrib $-1 $-1 $-1 $107 1 990663531 50 -1557004287 6 #
face $264 $265 $266 $10 $-1 $267 forward single #
loop $268 $269 $270 $107 #
cone-surface $-1 40 0 0 0 0 1 30 0 0 1 I I 0 1 30 forward I I I I #
model_id-kcp-attrib $-1 $-1 $-1 $108 1 990663531 50 -1557004287 17 #
loop $271 $-1 $272 $71 #
coedge $-1 $115 $121 $111 $175 forward $108 $-1 #
model_id-kcp-attrib $-1 $-1 $110 $72 1 990663531 50 -1557004287 19 #
coedge $-1 $273 $111 $274 $275 reversed $72 $-1 #
coedge $-1 $111 $273 $113 $177 forward $72 $-1 #
edge $276 $277 -20 $179 -10 $171 $278 forward 7 unknown #
coedge $-1 $114 $113 $279 $280 reversed $49 $-1 #
edge $-1 $281 -10.41960108450192 $179 10.41960108450192 $174 $282 forward 7 unknown #
attrib_edge_convexity-kcp-attrib $-1 $283 $-1 $116 1 #
vertex $-1 $116 $284 #
ellipse-curve $-1 -40 0 10 0 0 1 30 0 0 1 I I #
coedge $-1 $279 $285 $117 $182 forward $167 $-1 #
edge $286 $189 -20 $183 -10 $181 $287 forward 7 unknown #
vertex $-1 $280 $288 #
straight-curve $-1 0 5 10 1 0 0 I I #
coedge $-1 $274 $119 $285 $289 forward $187 $-1 #
coedge $-1 $119 $274 $121 $191 forward $187 $-1 #
loop $290 $291 $274 $292 #
attrib_edge_convexity-kcp-attrib $-1 $293 $-1 $120 1 #
vertex $-1 $182 $294 #
straight-curve $-1 0 5 20 1 0 0 I I #
edge $295 $277 0.16744807921968935 $124 6.1157372279598965 $186 $296 forward 7 unknown #
convexity-sys-attrib $-1 $-1 $122 $80 #
point $-1 -10.41960108450192 5 10 #
point $-1 -10.41960108450192 5 20 #
face $297 $298 $299 $27 $-1 $300 reversed single #
loop $-1 $-1 $301 $127 #
plane-surface $-1 -80 0 0 1 0 0 0 0 -1 forward_v I I I I #
coedge $-1 $302 $206 $303 $304 forward $128 $-1 #
coedge $-1 $305 $130 $302 $306 forward $83 $-1 #
coedge $-1 $130 $305 $307 $308 forward $83 $-1 #
coedge $-1 $209 $208 $130 $202 reversed $210 $-1 #
edge $-1 $309 -40 $310 40 $201 $311 forward 7 unknown #
coedge $-1 $132 $131 $312 $313 forward $55 $-1 #
coedge $-1 $314 $315 $131 $205 reversed $299 $-1 #
edge $-1 $212 -80 $316 80 $204 $317 forward 7 unknown #
coedge $-1 $198 $318 $132 $207 reversed $128 $-1 #
edge $-1 $319 -80 $211 80 $206 $320 forward 7 unknown #
coedge $-1 $201 $133 $318 $321 forward $210 $-1 #
coedge $-1 $133 $201 $314 $322 reversed $210 $-1 #
loop $-1 $-1 $208 $298 #
vertex $-1 $134 $323 #
vertex $-1 $134 $324 #
straight-curve $-1 80 0 20 0 1 0 I I #
coedge $-1 $214 $214 $138 $215 forward $135 $-1 #
edge $-1 $325 0 $325 6.2831853071795862 $214 $326 forward 7 unknown #
vertex $-1 $139 $327 #
ellipse-curve $-1 0 0 -20 0 0 -1 30 0 0 1 I I #
coedge $-1 $218 $218 $143 $219 forward $140 $-1 #
edge $-1 $328 0 $328 6.2831853071795862 $218 $329 forward 7 unknown #
vertex $-1 $144 $330 #
ellipse-curve $-1 0 0 -20 0 0 -1 30 0 0 1 I I #
face $-1 $331 $332 $44 $-1 $333 reversed single #
loop $-1 $-1 $334 $145 #
coedge $-1 $335 $336 $337 $338 forward $146 $-1 #
coedge $-1 $339 $148 $340 $341 reversed $97 $-1 #
coedge $-1 $148 $339 $342 $343 reversed $97 $-1 #
coedge $-1 $344 $345 $346 $228 reversed $347 $-1 #
edge $-1 $348 -40 $349 0 $148 $350 forward 7 unknown #
face $-1 $351 $243 $34 $-1 $352 forward single #
loop $-1 $-1 $353 $149 #
plane-surface $-1 0 40 0 0 -1 0 0 0 -1 forward_v I I I I #
coedge $-1 $354 $355 $154 $240 reversed $150 $-1 #
coedge $-1 $356 $152 $357 $240 reversed $100 $-1 #
coedge $-1 $152 $356 $353 $358 forward $100 $-1 #
coedge $-1 $359 $360 $152 $236 forward $361 $-1 #
edge $-1 $245 1.5707963267948966 $362 3.1415926535897931 $235 $246 forward 7 unknown #
coedge $-1 $154 $153 $363 $364 reversed $65 $-1 #
coedge $-1 $365 $366 $153 $239 forward $367 $-1 #
edge $-1 $368 -40 $244 0 $238 $369 forward 7 unknown #
edge $-1 $370 -40 $245 0 $357 $371 forward 7 unknown #
coedge $-1 $242 $155 $355 $372 forward $243 $-1 #
coedge $-1 $155 $241 $365 $373 forward $243 $-1 #
loop $-1 $-1 $155 $229 #
vertex $-1 $239 $374 #
vertex $-1 $372 $375 #
ellipse-curve $-1 -40 0 20 0 0 -1 0 -40 0 1 I I #
face $-1 $376 $260 $36 $-1 $377 forward single #
loop $-1 $-1 $378 $157 #
cone-surface $-1 -40 0 10 0 0 1 30 0 0 1 I I 0 1 30 forward I I I I #
coedge $-1 $379 $380 $381 $382 forward $158 $-1 #
coedge $-1 $383 $160 $380 $384 reversed $103 $-1 #
coedge $-1 $160 $383 $161 $256 forward $103 $-1 #
coedge $-1 $163 $381 $160 $254 reversed $260 $-1 #
edge $-1 $262 -2.9741445743701038 $385 2.9741445743701038 $160 $386 forward 7 unknown #
coedge $-1 $162 $161 $387 $388 reversed $68 $-1 #
edge $389 $390 0 $262 10 $252 $391 forward 7 unknown #
coedge $-1 $392 $378 $162 $258 reversed $248 $-1 #
edge $-1 $393 0 $261 10 $162 $394 forward 7 unknown #
coedge $-1 $381 $163 $378 $395 reversed $260 $-1 #
loop $-1 $-1 $163 $247 #
vertex $-1 $258 $396 #
vertex $-1 $256 $397 #
straight-curve $-1 0 5 20 1 0 0 I I #
model_id-kcp-attrib $-1 $-1 $-1 $166 1 990663531 50 -1557004287 7 #
face $398 $292 $399 $10 $-1 $400 forward single #
loop $-1 $-1 $401 $166 #
cone-surface $-1 -40 0 0 0 0 1 40 0 0 1 I I 0 1 40 forward I I I I #
model_id-kcp-attrib $-1 $-1 $-1 $167 1 990663531 50 -1557004287 24 #
loop $402 $-1 $403 $107 #
coedge $-1 $285 $279 $273 $404 forward $167 $-1 #
model_id-kcp-attrib $-1 $-1 $-1 $170 1 990663531 50 -1557004287 18 #
coedge $-1 $272 $272 $405 $406 reversed $170 $-1 #
coedge $-1 $174 $173 $270 $404 reversed $72 $-1 #
coedge $-1 $186 $185 $173 $275 forward $187 $-1 #
edge $407 $408 -10.41960108450192 $277 10.41960108450192 $274 $409 forward 7 unknown #
attrib_edge_convexity-kcp-attrib $-1 $410 $-1 $175 1 #
vertex $-1 $275 $411 #
straight-curve $-1 -10.41960108450192 -5 0 0 0 -1 I I #
coedge $-1 $270 $181 $176 $280 forward $167 $-1 #
edge $412 $183 2.9741445743701038 $281 3.3090407328094824 $279 $413 forward 7 unknown #
vertex $-1 $280 $414 #
straight-curve $-1 0 -5 10 -1 0 0 I I #
convexity-sys-attrib $-1 $-1 $178 $116 #
point $-1 -10.41960108450192 -5 10 #
coedge $-1 $181 $270 $185 $289 reversed $167 $-1 #
attrib_edge_convexity-kcp-attrib $-1 $415 $-1 $182 1 #
straight-curve $-1 10.41960108450192 5 0 0 0 -1 I I #
point $-1 10.41960108450192 5 10 #
edge $416 $189 -2.9741445743701038 $408 2.9741445743701038 $185 $417 forward 7 unknown #
model_id-kcp-attrib $-1 $418 $-1 $187 1 990663531 50 -1557004287 27 #
loop $-1 $-1 $419 $292 #
face $420 $421 $187 $10 $-1 $422 forward single #
convexity-sys-attrib $-1 $-1 $188 $120 #
point $-1 10.41960108450192 5 20 #
attrib_edge_convexity-kcp-attrib $-1 $423 $-1 $191 1 #
ellipse-curve $-1 -40 0 20 0 0 -1 30 0 0 1 I I #
model_id-kcp-attrib $-1 $-1 $-1 $195 1 990663531 50 -1557004286 5 #
face $-1 $-1 $210 $27 $-1 $424 reversed single #
loop $-1 $-1 $314 $195 #
plane-surface $-1 0 40 0 0 -1 0 0 0 -1 forward_v I I I I #
coedge $-1 $425 $312 $315 $426 forward $196 $-1 #
coedge $-1 $318 $198 $199 $306 reversed $128 $-1 #
coedge $-1 $312 $425 $198 $304 reversed $196 $-1 #
edge $-1 $319 -20 $427 20 $303 $428 forward 7 unknown #
coedge $-1 $200 $199 $425 $429 forward $83 $-1 #
edge $-1 $310 -80 $427 80 $302 $430 forward 7 unknown #
coedge $-1 $315 $314 $200 $308 reversed $299 $-1 #
edge $-1 $431 -80 $309 80 $307 $432 forward 7 unknown #
vertex $-1 $202 $433 #
vertex $-1 $321 $434 #
straight-curve $-1 80 0 -20 0 -1 0 I I #
coedge $-1 $301 $303 $203 $313 reversed $196 $-1 #
edge $-1 $316 -40 $319 40 $312 $435 forward 7 unknown #
coedge $-1 $307 $204 $209 $322 forward $299 $-1 #
coedge $-1 $204 $307 $301 $426 reversed $299 $-1 #
vertex $-1 $205 $436 #
straight-curve $-1 0 40 20 -1 0 0 I I #
coedge $-1 $206 $302 $208 $321 reversed $128 $-1 #
vertex $-1 $313 $437 #
straight-curve $-1 0 -40 20 1 0 0 I I #
edge $-1 $211 -20 $310 20 $208 $438 forward 7 unknown #
edge $-1 $212 -20 $309 20 $209 $439 forward 7 unknown #
point $-1 80 -40 20 #
point $-1 80 40 20 #
vertex $-1 $215 $440 #
ellipse-curve $-1 0 0 20 0 0 1 30 0 0 1 I I #
point $-1 30 0 -20 #
vertex $-1 $219 $441 #
ellipse-curve $-1 0 0 20 0 0 1 30 0 0 1 I I #
point $-1 30 0 -20 #
face $-1 $442 $443 $44 $-1 $352 forward single #
loop $-1 $-1 $444 $222 #
plane-surface $-1 0 -40 0 0 1 0 0 0 1 forward_v I I I I #
coedge $-1 $342 $445 $446 $447 forward $223 $-1 #
coedge $-1 $336 $224 $448 $449 forward $146 $-1 #
coedge $-1 $224 $335 $344 $450 forward $146 $-1 #
coedge $-1 $346 $451 $224 $338 reversed $452 $-1 #
edge $-1 $348 -1.5707963267948966 $453 0 $224 $454 forward 7 unknown #
coedge $-1 $226 $225 $455 $456 forward $97 $-1 #
coedge $-1 $457 $458 $225 $341 forward $459 $-1 #
edge $-1 $460 -40 $349 0 $225 $461 forward 7 unknown #
coedge $-1 $445 $334 $226 $343 forward $223 $-1 #
edge $-1 $348 0 $462 40 $226 $463 forward 7 unknown #
coedge $-1 $464 $227 $336 $450 reversed $347 $-1 #
coedge $-1 $227 $464 $465 $466 reversed $347 $-1 #
coedge $-1 $467 $337 $468 $228 forward $452 $-1 #
loop $-1 $-1 $227 $469 #
vertex $-1 $343 $470 #
vertex $-1 $466 $471 #
straight-curve $-1 80 0 20 0 0 1 I I #
face $-1 $472 $473 $34 $-1 $147 reversed single #
plane-surface $-1 0 0 20 0 0 1 1 0 0 forward_v I I I I #
coedge $-1 $474 $475 $234 $358 reversed $230 $-1 #
coedge $-1 $476 $232 $477 $478 reversed $150 $-1 #
coedge $-1 $232 $476 $241 $372 reversed $150 $-1 #
coedge $-1 $234 $233 $479 $480 reversed $100 $-1 #
coedge $-1 $481 $482 $232 $240 forward $483 $-1 #
edge $-1 $484 -40 $362 0 $353 $485 forward 7 unknown #
coedge $-1 $360 $235 $475 $486 forward $361 $-1 #
coedge $-1 $235 $359 $481 $487 forward $361 $-1 #
loop $-1 $-1 $235 $472 #
vertex $-1 $486 $488 #
coedge $-1 $489 $477 $237 $364 forward $473 $-1 #
edge $-1 $370 -1.5707963267948966 $368 0 $363 $490 forward 7 unknown #
coedge $-1 $491 $238 $242 $373 reversed $367 $-1 #
coedge $-1 $238 $491 $489 $492 reversed $367 $-1 #
loop $-1 $-1 $238 $493 #
vertex $-1 $492 $494 #
straight-curve $-1 -40 -40 20 0 0 1 I I #
vertex $-1 $495 $496 #
straight-curve $-1 -80 0 20 0 0 1 I I #
edge $-1 $245 0 $497 40 $355 $498 forward 7 unknown #
edge $-1 $497 -80 $244 -40 $365 $499 forward 7 unknown #
point $-1 -40 -40 20 #
point $-1 -80 0 20 #
face $-1 $-1 $500 $36 $-1 $501 reversed single #
plane-surface $-1 -3.586486530348732e-015 -1.27675647831893e-015 20 0 0 1 1 0 0 forward_v I I I I #
coedge $-1 $257 $502 $259 $395 forward $248 $-1 #
coedge $-1 $503 $250 $502 $504 reversed $158 $-1 #
coedge $-1 $250 $503 $251 $384 forward $158 $-1 #
coedge $-1 $253 $259 $250 $382 reversed $260 $-1 #
edge $-1 $385 -10.41960108450192 $505 10.41960108450192 $250 $506 forward 7 unknown #
coedge $-1 $252 $251 $507 $508 reversed $103 $-1 #
edge $-1 $509 0 $385 10 $380 $510 forward 7 unknown #
vertex $-1 $384 $511 #
ellipse-curve $-1 40 0 20 0 0 -1 30 0 0 1 I I #
coedge $-1 $507 $512 $255 $388 forward $500 $-1 #
edge $513 $393 -10.41960108450192 $390 10.41960108450192 $255 $514 forward 7 unknown #
convexity-sys-attrib $-1 $-1 $-1 $256 #
vertex $-1 $388 $515 #
straight-curve $-1 10.41960108450192 5 10 0 0 1 I I #
coedge $-1 $502 $257 $512 $516 reversed $248 $-1 #
vertex $-1 $516 $517 #
straight-curve $-1 -10.41960108450192 5 10 0 0 1 I I #
edge $-1 $505 0.16744807921968935 $261 6.1157372279598965 $378 $518 forward 7 unknown #
point $-1 -10.41960108450192 5 20 #
point $-1 10.41960108450192 5 20 #
model_id-kcp-attrib $-1 $-1 $-1 $265 1 990663531 50 -1557004287 8 #
loop $-1 $-1 $519 $265 #
cone-surface $-1 40 0 0 0 0 1 40 0 0 1 I I 0 1 40 forward I I I I #
coedge $-1 $520 $521 $522 $523 reversed $266 $-1 #
model_id-kcp-attrib $-1 $-1 $-1 $269 1 990663531 50 -1557004287 25 #
coedge $-1 $403 $403 $524 $525 reversed $269 $-1 #
edge $526 $281 10 $408 20 $270 $527 forward 7 unknown #
coedge $-1 $405 $405 $272 $406 forward $528 $-1 #
edge $529 $530 0 $530 6.2831853071795862 $405 $531 forward 7 unknown #
attrib_edge_convexity-kcp-attrib $-1 $532 $-1 $275 1 #
vertex $-1 $289 $533 #
straight-curve $-1 0 -5 20 -1 0 0 I I #
convexity-sys-attrib $-1 $-1 $276 $175 #
point $-1 -10.41960108450192 -5 20 #
attrib_edge_convexity-kcp-attrib $-1 $534 $-1 $280 1 #
ellipse-curve $-1 40 0 10 0 0 1 30 0 0 1 I I #
point $-1 10.41960108450192 -5 10 #
convexity-sys-attrib $-1 $-1 $286 $182 #
attrib_edge_convexity-kcp-attrib $-1 $535 $-1 $289 1 #
ellipse-curve $-1 40 0 20 0 0 -1 30 0 0 1 I I #
model_id-kcp-attrib $-1 $-1 $290 $187 1 990663531 50 -1557004287 22 #
coedge $-1 $536 $537 $538 $539 forward $291 $-1 #
model_id-kcp-attrib $-1 $540 $-1 $292 1 990663531 50 -1557004287 13 #
face $541 $542 $528 $10 $-1 $543 reversed single #
plane-surface $-1 0 0 20 0 0 1 1 0 0 forward_v I I I I #
convexity-sys-attrib $-1 $-1 $295 $191 #
plane-surface $-1 80 0 0 -1 0 0 0 0 1 forward_v I I I I #
coedge $-1 $303 $301 $305 $429 reversed $196 $-1 #
edge $-1 $316 -20 $431 20 $315 $544 forward 7 unknown #
vertex $-1 $429 $545 #
straight-curve $-1 -80 -40 0 0 0 -1 I I #
edge $-1 $427 -40 $431 40 $425 $546 forward 7 unknown #
straight-curve $-1 0 -40 -20 -1 0 0 I I #
vertex $-1 $308 $547 #
straight-curve $-1 0 40 -20 1 0 0 I I #
point $-1 80 40 -20 #
point $-1 80 -40 -20 #
straight-curve $-1 -80 0 20 0 -1 0 I I #
point $-1 -80 40 20 #
point $-1 -80 -40 20 #
straight-curve $-1 80 -40 0 0 0 -1 I I #
straight-curve $-1 80 40 0 0 0 -1 I I #
point $-1 30 0 20 #
point $-1 30 0 20 #
face $-1 $469 $459 $44 $-1 $352 forward single #
loop $-1 $-1 $548 $331 #
coedge $-1 $549 $550 $551 $552 reversed $332 $-1 #
coedge $-1 $334 $342 $549 $553 forward $223 $-1 #
coedge $-1 $551 $468 $334 $447 reversed $554 $-1 #
edge $-1 $555 -3.1415926535897931 $348 -1.5707963267948966 $334 $454 forward 7 unknown #
coedge $-1 $556 $557 $335 $449 reversed $558 $-1 #
edge $-1 $453 40 $559 80 $448 $560 forward 7 unknown #
edge $-1 $559 -40 $348 0 $344 $463 forward 7 unknown #
coedge $-1 $337 $467 $556 $561 reversed $452 $-1 #
loop $-1 $-1 $467 $562 #
vertex $-1 $449 $563 #
ellipse-curve $-1 40 0 -20 0 0 1 0 40 0 1 I I #
coedge $-1 $550 $549 $339 $456 reversed $332 $-1 #
edge $-1 $460 -20 $462 20 $339 $564 forward 7 unknown #
coedge $-1 $458 $340 $565 $566 forward $459 $-1 #
coedge $-1 $340 $457 $550 $567 forward $459 $-1 #
loop $-1 $-1 $457 $442 #
vertex $-1 $341 $568 #
straight-curve $-1 80 0 20 0 1 0 I I #
vertex $-1 $456 $569 #
straight-curve $-1 80 0 -20 0 -1 0 I I #
coedge $-1 $345 $344 $557 $570 reversed $347 $-1 #
coedge $-1 $571 $548 $345 $466 forward $443 $-1 #
edge $-1 $349 0 $572 40 $345 $461 forward 7 unknown #
coedge $-1 $451 $346 $548 $573 reversed $452 $-1 #
coedge $-1 $446 $565 $148 $228 reversed $554 $-1 #
face $-1 $574 $347 $44 $-1 $98 reversed single #
point $-1 80 0 -20 #
point $-1 80 0 20 #
face $-1 $575 $361 $34 $-1 $352 forward single #
loop $-1 $-1 $363 $351 #
coedge $-1 $576 $353 $577 $578 reversed $230 $-1 #
coedge $-1 $353 $576 $359 $486 reversed $230 $-1 #
coedge $-1 $355 $354 $491 $579 reversed $150 $-1 #
coedge $-1 $363 $489 $354 $478 forward $473 $-1 #
edge $-1 $580 -40 $370 0 $354 $581 forward 7 unknown #
coedge $-1 $582 $577 $356 $480 forward $583 $-1 #
edge $-1 $484 -3.1415926535897931 $370 -1.5707963267948966 $479 $490 forward 7 unknown #
coedge $-1 $584 $357 $360 $487 reversed $483 $-1 #
coedge $-1 $357 $584 $582 $495 reversed $483 $-1 #
loop $-1 $-1 $357 $585 #
vertex $-1 $358 $586 #
straight-curve $-1 -40 40 20 0 0 1 I I #
edge $-1 $362 40 $587 80 $475 $588 forward 7 unknown #
edge $-1 $587 -40 $245 0 $481 $498 forward 7 unknown #
point $-1 -40 40 20 #
coedge $-1 $477 $363 $366 $492 forward $473 $-1 #
ellipse-curve $-1 -40 0 -20 0 0 1 0 -40 0 1 I I #
coedge $-1 $366 $365 $476 $579 forward $367 $-1 #
edge $-1 $368 40 $580 80 $366 $589 forward 7 unknown #
face $-1 $585 $367 $34 $-1 $333 reversed single #
point $-1 -40 -40 -20 #
edge $-1 $370 0 $590 40 $482 $581 forward 7 unknown #
point $-1 -80 0 -20 #
vertex $-1 $372 $591 #
straight-curve $-1 -80 0 20 0 -1 0 I I #
straight-curve $-1 0 -40 20 1 0 0 I I #
loop $-1 $-1 $512 $376 #
plane-surface $-1 -3.586486530348732e-015 -1.27675647831893e-015 9.9999999999999982 0 0 1 1 0 0 forward_v I I I I #
coedge $-1 $378 $392 $379 $504 forward $248 $-1 #
coedge $-1 $380 $379 $592 $593 reversed $158 $-1 #
edge $-1 $594 0 $505 10 $502 $595 forward 7 unknown #
vertex $-1 $504 $596 #
straight-curve $-1 0 -5 20 -1 0 0 I I #
coedge $-1 $592 $387 $383 $508 forward $500 $-1 #
edge $597 $390 -2.9741445743701038 $509 2.9741445743701038 $383 $598 forward 7 unknown #
vertex $-1 $508 $599 #
straight-curve $-1 10.41960108450192 -5 10 0 0 1 I I #
point $-1 10.41960108450192 -5 20 #
coedge $-1 $387 $592 $392 $516 forward $500 $-1 #
convexity-sys-attrib $-1 $-1 $-1 $388 #
straight-curve $-1 0 5 10 1 0 0 I I #
point $-1 10.41960108450192 5 10 #
edge $600 $594 0.16744807921968935 $393 6.1157372279598965 $392 $601 forward 7 unknown #
point $-1 -10.41960108450192 5 10 #
ellipse-curve $-1 -40 0 20 0 0 -1 30 0 0 1 I I #
coedge $-1 $602 $603 $604 $605 forward $399 $-1 #
coedge $-1 $606 $401 $607 $608 reversed $266 $-1 #
coedge $-1 $401 $606 $537 $609 reversed $266 $-1 #
coedge $-1 $610 $611 $401 $523 forward $612 $-1 #
edge $-1 $613 -20 $614 20 $522 $615 reversed 7 unknown #
coedge $-1 $524 $524 $403 $525 forward $616 $-1 #
edge $617 $618 0 $618 6.2831853071795862 $524 $619 forward 7 unknown #
attrib_edge_convexity-kcp-attrib $-1 $620 $-1 $404 1 #
straight-curve $-1 10.41960108450192 -5 0 0 0 1 I I #
loop $621 $616 $405 $421 #
attrib_edge_convexity-kcp-attrib $-1 $622 $-1 $406 1 #
vertex $-1 $406 $623 #
ellipse-curve $-1 -40 0 -20 0 0 1 30 0 0 1 I I #
convexity-sys-attrib $-1 $-1 $407 $275 #
point $-1 10.41960108450192 -5 20 #
convexity-sys-attrib $-1 $-1 $412 $280 #
convexity-sys-attrib $-1 $-1 $416 $289 #
coedge $-1 $624 $419 $602 $625 forward $291 $-1 #
coedge $-1 $419 $624 $521 $609 forward $291 $-1 #
coedge $-1 $626 $627 $419 $539 reversed $628 $-1 #
edge $629 $630 -40 $631 40 $538 $632 forward 7 unknown #
model_id-kcp-attrib $-1 $-1 $420 $292 1 990663531 50 -1557004287 9 #
model_id-kcp-attrib $-1 $633 $-1 $421 1 990663531 50 -1557004287 16 #
face $634 $635 $628 $10 $-1 $636 reversed single #
plane-surface $-1 0 0 -20 0 0 1 1 0 0 forward_v I I I I #
straight-curve $-1 -80 40 0 0 0 -1 I I #
point $-1 -80 -40 -20 #
straight-curve $-1 -80 0 -20 0 1 0 I I #
point $-1 -80 40 -20 #
coedge $-1 $465 $571 $467 $573 forward $443 $-1 #
coedge $-1 $455 $444 $445 $553 reversed $332 $-1 #
coedge $-1 $444 $455 $458 $567 reversed $332 $-1 #
coedge $-1 $565 $446 $444 $552 forward $554 $-1 #
edge $-1 $555 -40 $637 0 $444 $638 forward 7 unknown #
edge $-1 $462 -80 $555 -40 $549 $589 forward 7 unknown #
loop $-1 $-1 $565 $639 #
vertex $-1 $447 $640 #
coedge $-1 $641 $448 $451 $561 forward $558 $-1 #
coedge $-1 $448 $641 $464 $570 forward $558 $-1 #
loop $-1 $-1 $556 $574 #
vertex $-1 $450 $642 #
straight-curve $-1 0 40 -20 1 0 0 I I #
edge $-1 $453 -40 $643 0 $556 $644 forward 7 unknown #
face $-1 $639 $452 $44 $-1 $645 reversed single #
point $-1 40 40 -20 #
straight-curve $-1 80 -40 0 0 0 -1 I I #
coedge $-1 $468 $551 $457 $566 reversed $554 $-1 #
edge $-1 $349 1.5707963267948966 $637 3.1415926535897931 $457 $646 forward 7 unknown #
edge $-1 $637 40 $460 80 $550 $499 forward 7 unknown #
point $-1 80 -40 20 #
point $-1 80 -40 -20 #
edge $-1 $572 -20 $559 20 $464 $647 forward 7 unknown #
coedge $-1 $548 $465 $641 $648 forward $443 $-1 #
vertex $-1 $466 $649 #
edge $-1 $643 0 $349 1.5707963267948966 $548 $646 forward 7 unknown #
face $-1 $562 $558 $44 $-1 $231 reversed single #
face $-1 $493 $583 $34 $-1 $147 reversed single #
coedge $-1 $475 $474 $584 $650 reversed $230 $-1 #
coedge $-1 $479 $582 $474 $578 forward $583 $-1 #
edge $-1 $590 -80 $484 -40 $474 $560 forward 7 unknown #
edge $-1 $497 -20 $580 20 $476 $651 forward 7 unknown #
vertex $-1 $478 $652 #
straight-curve $-1 -80 0 -20 0 1 0 I I #
coedge $-1 $577 $479 $482 $495 forward $583 $-1 #
loop $-1 $-1 $479 $575 #
coedge $-1 $482 $481 $576 $650 forward $483 $-1 #
face $-1 $-1 $483 $34 $-1 $151 reversed single #
point $-1 -40 40 -20 #
vertex $-1 $486 $653 #
straight-curve $-1 0 40 20 -1 0 0 I I #
straight-curve $-1 0 -40 -20 -1 0 0 I I #
vertex $-1 $578 $654 #
point $-1 -80 -40 20 #
coedge $-1 $512 $507 $503 $593 forward $500 $-1 #
edge $655 $509 -10.41960108450192 $594 10.41960108450192 $503 $656 forward 7 unknown #
vertex $-1 $516 $657 #
straight-curve $-1 -10.41960108450192 -5 10 0 0 1 I I #
point $-1 -10.41960108450192 -5 20 #
convexity-sys-attrib $-1 $-1 $-1 $508 #
ellipse-curve $-1 40 0 10 0 0 -1 30 0 0 1 I I #
point $-1 10.41960108450192 -5 10 #
convexity-sys-attrib $-1 $-1 $-1 $516 #
ellipse-curve $-1 -40 0 10 0 0 -1 30 0 0 1 I I #
coedge $-1 $658 $519 $536 $625 reversed $399 $-1 #
coedge $-1 $519 $658 $659 $660 reversed $399 $-1 #
coedge $-1 $611 $610 $519 $605 reversed $612 $-1 #
edge $-1 $661 -20 $662 20 $604 $663 reversed 7 unknown #
coedge $-1 $521 $520 $626 $664 forward $266 $-1 #
coedge $-1 $665 $666 $520 $608 forward $667 $-1 #
edge $-1 $668 1.5707963267948966 $613 4.7123889803846897 $607 $669 forward 7 unknown #
edge $670 $614 1.5707963267948966 $630 4.7123889803846897 $537 $671 forward 7 unknown #
coedge $-1 $604 $522 $624 $672 reversed $612 $-1 #
coedge $-1 $522 $604 $665 $673 reversed $612 $-1 #
loop $-1 $-1 $604 $635 #
vertex $-1 $673 $674 #
vertex $-1 $672 $675 #
straight-curve $-1 -40 40 0 0 0 -1 I I #
loop $676 $667 $524 $421 #
attrib_edge_convexity-kcp-attrib $-1 $677 $-1 $525 1 #
vertex $-1 $525 $678 #
ellipse-curve $-1 40 0 -20 0 0 1 30 0 0 1 I I #
convexity-sys-attrib $-1 $-1 $526 $404 #
model_id-kcp-attrib $-1 $-1 $-1 $528 1 990663531 50 -1557004287 23 #
convexity-sys-attrib $-1 $-1 $529 $406 #
point $-1 -10 0 -20 #
coedge $-1 $537 $536 $610 $672 forward $291 $-1 #
edge $679 $631 -1.5707963267948966 $662 1.5707963267948966 $536 $680 forward 7 unknown #
coedge $-1 $681 $538 $606 $664 reversed $628 $-1 #
coedge $-1 $538 $681 $658 $682 forward $628 $-1 #
loop $-1 $-1 $626 $542 #
attrib_edge_convexity-kcp-attrib $-1 $683 $-1 $539 1 #
vertex $-1 $539 $684 #
vertex $-1 $625 $685 #
straight-curve $-1 0 -40 20 1 0 0 I I #
model_id-kcp-attrib $-1 $-1 $541 $421 1 990663531 50 -1557004287 10 #
model_id-kcp-attrib $-1 $-1 $-1 $542 1 990663531 50 -1557004287 11 #
face $686 $-1 $612 $10 $-1 $687 reversed single #
plane-surface $-1 0 -40 0 0 1 0 0 0 1 forward_v I I I I #
vertex $-1 $567 $688 #
straight-curve $-1 40 -40 20 0 0 1 I I #
face $-1 $-1 $554 $44 $-1 $645 reversed single #
point $-1 40 -40 -20 #
coedge $-1 $557 $556 $571 $648 reversed $558 $-1 #
point $-1 80 40 -20 #
vertex $-1 $573 $689 #
straight-curve $-1 40 40 20 0 0 1 I I #
cone-surface $-1 40 0 20 0 0 1 0 40 0 1 I I 0 1 40 forward I I I I #
ellipse-curve $-1 40 0 20 0 0 -1 0 40 0 1 I I #
straight-curve $-1 80 40 0 0 0 -1 I I #
edge $-1 $572 -80 $643 -40 $641 $588 forward 7 unknown #
point $-1 80 40 20 #
edge $-1 $587 -20 $590 20 $576 $690 forward 7 unknown #
straight-curve $-1 -80 -40 0 0 0 -1 I I #
point $-1 -80 -40 -20 #
point $-1 -80 40 20 #
point $-1 -80 40 -20 #
convexity-sys-attrib $-1 $-1 $-1 $593 #
straight-curve $-1 0 -5 10 -1 0 0 I I #
point $-1 -10.41960108450192 -5 10 #
coedge $-1 $603 $602 $627 $682 reversed $399 $-1 #
coedge $-1 $666 $665 $603 $660 forward $667 $-1 #
edge $-1 $661 -1.5707963267948966 $691 1.5707963267948966 $659 $692 forward 7 unknown #
vertex $-1 $660 $693 #
vertex $-1 $672 $694 #
straight-curve $-1 40 40 0 0 0 -1 I I #
edge $695 $668 -20 $630 20 $626 $696 reversed 7 unknown #
coedge $-1 $659 $607 $611 $673 forward $667 $-1 #
coedge $-1 $607 $659 $681 $697 forward $667 $-1 #
loop $-1 $-1 $665 $421 #
vertex $-1 $608 $698 #
ellipse-curve $-1 -40 0 -20 0 0 -1 40 0 0 1 I I #
attrib_edge_convexity-kcp-attrib $-1 $699 $-1 $609 1 #
ellipse-curve $-1 -40 0 20 0 0 1 40 0 0 1 I I #
edge $700 $662 -40 $614 40 $610 $701 forward 7 unknown #
edge $702 $613 -40 $661 40 $611 $703 forward 7 unknown #
point $-1 -40 40 -20 #
point $-1 -40 40 20 #
model_id-kcp-attrib $-1 $-1 $-1 $616 1 990663531 50 -1557004287 30 #
convexity-sys-attrib $-1 $-1 $617 $525 #
point $-1 70 0 -20 #
attrib_edge_convexity-kcp-attrib $-1 $704 $-1 $625 1 #
ellipse-curve $-1 40 0 20 0 0 1 40 0 0 1 I I #
coedge $-1 $627 $626 $666 $697 reversed $628 $-1 #
edge $705 $691 -20 $631 20 $627 $706 reversed 7 unknown #
convexity-sys-attrib $-1 $-1 $629 $539 #
point $-1 -40 -40 20 #
point $-1 40 -40 20 #
model_id-kcp-attrib $-1 $-1 $-1 $635 1 990663531 50 -1557004287 12 #
plane-surface $-1 0 40 0 0 -1 0 0 0 -1 forward_v I I I I #
point $-1 40 -40 20 #
point $-1 40 40 20 #
straight-curve $-1 -80 40 0 0 0 -1 I I #
vertex $-1 $682 $707 #
ellipse-curve $-1 40 0 -20 0 0 -1 40 0 0 1 I I #
point $-1 40 40 -20 #
point $-1 40 40 20 #
attrib_edge_convexity-kcp-attrib $-1 $708 $-1 $664 3 #
straight-curve $-1 -40 -40 0 0 0 -1 I I #
edge $709 $691 -40 $668 40 $681 $710 forward 7 unknown #
point $-1 -40 -40 -20 #
convexity-sys-attrib $-1 $-1 $670 $609 #
attrib_edge_convexity-kcp-attrib $-1 $711 $-1 $672 1 #
straight-curve $-1 0 40 20 -1 0 0 I I #
model_id-kcp-attrib $-1 $-1 $-1 $673 1 990663531 50 -1557004287 14 #
straight-curve $-1 0 40 -20 1 0 0 I I #
convexity-sys-attrib $-1 $-1 $679 $625 #
attrib_edge_convexity-kcp-attrib $-1 $712 $-1 $682 3 #
straight-curve $-1 40 -40 0 0 0 -1 I I #
point $-1 40 -40 -20 #
convexity-sys-attrib $-1 $-1 $695 $664 #
model_id-kcp-attrib $-1 $713 $-1 $697 1 990663531 50 -1557004287 15 #
straight-curve $-1 0 -40 -20 -1 0 0 I I #
convexity-sys-attrib $-1 $-1 $700 $672 #
convexity-sys-attrib $-1 $-1 $705 $682 #
attrib_edge_convexity-kcp-attrib $-1 $714 $709 $697 1 #
convexity-sys-attrib $-1 $-1 $713 $697 #
End-of-ACIS-data 