600 0 1 0           
81 GICL ACIS Healer - Source: /gicl/data5/repository/Heriot_Watt/ex24/ex24.sat - 6 0 18 ACIS 6.0.3 Solaris 24 Sat Apr 13 23:38:47 2002 
1 9.999999999999999547e-07 1.000000000000000036e-10 
body $-1 $1 $-1 $-1 #
lump $-1 $-1 $2 $0 #
shell $-1 $-1 $-1 $3 $-1 $1 #
face $-1 $4 $5 $2 $-1 $6 forward single #
face $-1 $7 $8 $2 $-1 $9 forward single #
loop $-1 $-1 $10 $3 #
plane-surface $-1 0 5 15 0 -1 0 0 0 -1 forward_v I I I I #
face $-1 $11 $12 $2 $-1 $13 forward single #
loop $-1 $-1 $14 $4 #
plane-surface $-1 0 0 10 0 0 1 1 0 0 forward_v I I I I #
coedge $-1 $15 $16 $17 $18 reversed $5 $-1 #
face $-1 $19 $20 $2 $-1 $21 reversed single #
loop $-1 $-1 $22 $7 #
plane-surface $-1 0 -5 15 0 1 0 0 0 1 forward_v I I I I #
coedge $-1 $23 $24 $25 $26 reversed $8 $-1 #
coedge $-1 $27 $10 $24 $28 forward $5 $-1 #
coedge $-1 $10 $27 $29 $30 reversed $5 $-1 #
coedge $-1 $31 $25 $10 $18 forward $20 $-1 #
edge $-1 $32 10 $33 20 $17 $34 forward 7 unknown #
face $-1 $35 $36 $2 $-1 $37 reversed single #
loop $-1 $38 $39 $11 #
cone-surface $-1 -40 0 0 0 0 1 30 0 0 1 I I 0 1 30 forward I I I I #
coedge $-1 $40 $41 $39 $42 reversed $12 $-1 #
coedge $-1 $43 $14 $41 $44 reversed $8 $-1 #
coedge $-1 $14 $43 $15 $28 reversed $8 $-1 #
coedge $-1 $17 $39 $14 $26 forward $20 $-1 #
edge $-1 $45 -0.1674480792196893497 $32 0.1674480792196893497 $25 $46 forward 7 unknown #
coedge $-1 $16 $15 $47 $48 reversed $5 $-1 #
edge $-1 $32 -10.41960108450192024 $49 10.41960108450192024 $15 $50 forward 7 unknown #
coedge $-1 $51 $52 $16 $30 forward $53 $-1 #
edge $-1 $33 -10.41960108450192024 $54 10.41960108450192024 $29 $55 forward 7 unknown #
coedge $-1 $39 $17 $52 $56 reversed $20 $-1 #
vertex $-1 $26 $57 #
vertex $-1 $56 $58 #
straight-curve $-1 -10.41960108450192024 5 0 0 0 1 I I #
face $-1 $59 $60 $2 $-1 $61 forward single #
loop $-1 $62 $63 $19 #
cone-surface $-1 40 0 0 0 0 1 30 0 0 1 I I 0 1 30 forward I I I I #
loop $-1 $-1 $64 $11 #
coedge $-1 $25 $31 $22 $42 forward $20 $-1 #
coedge $-1 $65 $22 $66 $67 reversed $12 $-1 #
coedge $-1 $22 $65 $23 $44 forward $12 $-1 #
edge $-1 $68 -20 $45 -10 $39 $69 forward 7 unknown #
coedge $-1 $24 $23 $70 $71 reversed $8 $-1 #
edge $-1 $72 -10.41960108450192024 $45 10.41960108450192024 $41 $73 forward 7 unknown #
vertex $-1 $26 $74 #
ellipse-curve $-1 -40 0 10 0 0 1 30 0 0 1 I I #
coedge $-1 $70 $75 $27 $48 forward $36 $-1 #
edge $-1 $54 -20 $49 -10 $47 $76 forward 7 unknown #
vertex $-1 $71 $77 #
straight-curve $-1 0 5 10 1 0 0 I I #
coedge $-1 $66 $29 $75 $78 forward $53 $-1 #
coedge $-1 $29 $66 $31 $56 forward $53 $-1 #
loop $-1 $79 $66 $80 #
vertex $-1 $48 $81 #
straight-curve $-1 0 5 20 1 0 0 I I #
edge $-1 $68 0.1674480792196893497 $33 6.115737227959896494 $52 $82 forward 7 unknown #
point $-1 -10.41960108450192024 5 10 #
point $-1 -10.41960108450192024 5 20 #
face $-1 $80 $83 $2 $-1 $84 forward single #
loop $-1 $-1 $85 $35 #
cone-surface $-1 -40 0 0 0 0 1 40 0 0 1 I I 0 1 40 forward I I I I #
loop $-1 $-1 $86 $19 #
coedge $-1 $75 $70 $65 $87 forward $36 $-1 #
coedge $-1 $64 $64 $88 $89 reversed $38 $-1 #
coedge $-1 $41 $40 $63 $87 reversed $12 $-1 #
coedge $-1 $52 $51 $40 $67 forward $53 $-1 #
edge $-1 $90 -10.41960108450192024 $68 10.41960108450192024 $66 $91 forward 7 unknown #
vertex $-1 $67 $92 #
straight-curve $-1 -10.41960108450192024 -5 0 0 0 -1 I I #
coedge $-1 $63 $47 $43 $71 forward $36 $-1 #
edge $-1 $49 2.974144574370103822 $72 3.30904073280948241 $70 $93 forward 7 unknown #
vertex $-1 $71 $94 #
straight-curve $-1 0 -5 10 -1 0 0 I I #
point $-1 -10.41960108450192024 -5 10 #
coedge $-1 $47 $63 $51 $78 reversed $36 $-1 #
straight-curve $-1 10.41960108450192024 5 0 0 0 -1 I I #
point $-1 10.41960108450192024 5 10 #
edge $-1 $54 -2.974144574370103822 $90 2.974144574370103822 $51 $95 forward 7 unknown #
loop $-1 $-1 $96 $80 #
face $-1 $97 $53 $2 $-1 $98 forward single #
point $-1 10.41960108450192024 5 20 #
ellipse-curve $-1 -40 0 20 0 0 -1 30 0 0 1 I I #
loop $-1 $-1 $99 $59 #
cone-surface $-1 40 0 0 0 0 1 40 0 0 1 I I 0 1 40 forward I I I I #
coedge $-1 $100 $101 $102 $103 reversed $60 $-1 #
coedge $-1 $86 $86 $104 $105 reversed $62 $-1 #
edge $-1 $72 10 $90 20 $63 $106 forward 7 unknown #
coedge $-1 $88 $88 $64 $89 forward $107 $-1 #
edge $-1 $108 0 $108 6.283185307179586232 $88 $109 forward 7 unknown #
vertex $-1 $78 $110 #
straight-curve $-1 0 -5 20 -1 0 0 I I #
point $-1 -10.41960108450192024 -5 20 #
ellipse-curve $-1 40 0 10 0 0 1 30 0 0 1 I I #
point $-1 10.41960108450192024 -5 10 #
ellipse-curve $-1 40 0 20 0 0 -1 30 0 0 1 I I #
coedge $-1 $111 $112 $113 $114 forward $79 $-1 #
face $-1 $115 $107 $2 $-1 $116 reversed single #
plane-surface $-1 0 0 20 0 0 1 1 0 0 forward_v I I I I #
coedge $-1 $117 $118 $119 $120 forward $83 $-1 #
coedge $-1 $121 $85 $122 $123 reversed $60 $-1 #
coedge $-1 $85 $121 $112 $124 reversed $60 $-1 #
coedge $-1 $125 $126 $85 $103 forward $127 $-1 #
edge $-1 $128 -20 $129 20 $102 $130 reversed 7 unknown #
coedge $-1 $104 $104 $86 $105 forward $131 $-1 #
edge $-1 $132 0 $132 6.283185307179586232 $104 $133 forward 7 unknown #
straight-curve $-1 10.41960108450192024 -5 0 0 0 1 I I #
loop $-1 $131 $88 $97 #
vertex $-1 $89 $134 #
ellipse-curve $-1 -40 0 -20 0 0 1 30 0 0 1 I I #
point $-1 10.41960108450192024 -5 20 #
coedge $-1 $135 $96 $117 $136 forward $79 $-1 #
coedge $-1 $96 $135 $101 $124 forward $79 $-1 #
coedge $-1 $137 $138 $96 $114 reversed $139 $-1 #
edge $-1 $140 -40 $141 40 $113 $142 forward 7 unknown #
face $-1 $143 $139 $2 $-1 $144 reversed single #
plane-surface $-1 0 0 -20 0 0 1 1 0 0 forward_v I I I I #
coedge $-1 $145 $99 $111 $136 reversed $83 $-1 #
coedge $-1 $99 $145 $146 $147 reversed $83 $-1 #
coedge $-1 $126 $125 $99 $120 reversed $127 $-1 #
edge $-1 $148 -20 $149 20 $119 $150 reversed 7 unknown #
coedge $-1 $101 $100 $137 $151 forward $60 $-1 #
coedge $-1 $152 $153 $100 $123 forward $154 $-1 #
edge $-1 $155 1.570796326794896558 $128 4.712388980384689674 $122 $156 forward 7 unknown #
edge $-1 $129 1.570796326794896558 $140 4.712388980384689674 $112 $157 forward 7 unknown #
coedge $-1 $119 $102 $135 $158 reversed $127 $-1 #
coedge $-1 $102 $119 $152 $159 reversed $127 $-1 #
loop $-1 $-1 $119 $143 #
vertex $-1 $159 $160 #
vertex $-1 $158 $161 #
straight-curve $-1 -40 40 0 0 0 -1 I I #
loop $-1 $154 $104 $97 #
vertex $-1 $105 $162 #
ellipse-curve $-1 40 0 -20 0 0 1 30 0 0 1 I I #
point $-1 -10 0 -20 #
coedge $-1 $112 $111 $125 $158 forward $79 $-1 #
edge $-1 $141 -1.570796326794896558 $149 1.570796326794896558 $111 $163 forward 7 unknown #
coedge $-1 $164 $113 $121 $151 reversed $139 $-1 #
coedge $-1 $113 $164 $145 $165 forward $139 $-1 #
loop $-1 $-1 $137 $115 #
vertex $-1 $114 $166 #
vertex $-1 $136 $167 #
straight-curve $-1 0 -40 20 1 0 0 I I #
face $-1 $-1 $127 $2 $-1 $168 reversed single #
plane-surface $-1 0 -40 0 0 1 0 0 0 1 forward_v I I I I #
coedge $-1 $118 $117 $138 $165 reversed $83 $-1 #
coedge $-1 $153 $152 $118 $147 forward $154 $-1 #
edge $-1 $148 -1.570796326794896558 $169 1.570796326794896558 $146 $170 forward 7 unknown #
vertex $-1 $147 $171 #
vertex $-1 $158 $172 #
straight-curve $-1 40 40 0 0 0 -1 I I #
edge $-1 $155 -20 $140 20 $137 $173 reversed 7 unknown #
coedge $-1 $146 $122 $126 $159 forward $154 $-1 #
coedge $-1 $122 $146 $164 $174 forward $154 $-1 #
loop $-1 $-1 $152 $97 #
vertex $-1 $123 $175 #
ellipse-curve $-1 -40 0 -20 0 0 -1 40 0 0 1 I I #
ellipse-curve $-1 -40 0 20 0 0 1 40 0 0 1 I I #
edge $-1 $149 -40 $129 40 $125 $176 forward 7 unknown #
edge $-1 $128 -40 $148 40 $126 $177 forward 7 unknown #
point $-1 -40 40 -20 #
point $-1 -40 40 20 #
point $-1 70 0 -20 #
ellipse-curve $-1 40 0 20 0 0 1 40 0 0 1 I I #
coedge $-1 $138 $137 $153 $174 reversed $139 $-1 #
edge $-1 $169 -20 $141 20 $138 $178 reversed 7 unknown #
point $-1 -40 -40 20 #
point $-1 40 -40 20 #
plane-surface $-1 0 40 0 0 -1 0 0 0 -1 forward_v I I I I #
vertex $-1 $165 $179 #
ellipse-curve $-1 40 0 -20 0 0 -1 40 0 0 1 I I #
point $-1 40 40 -20 #
point $-1 40 40 20 #
straight-curve $-1 -40 -40 0 0 0 -1 I I #
edge $-1 $169 -40 $155 40 $164 $180 forward 7 unknown #
point $-1 -40 -40 -20 #
straight-curve $-1 0 40 20 -1 0 0 I I #
straight-curve $-1 0 40 -20 1 0 0 I I #
straight-curve $-1 40 -40 0 0 0 -1 I I #
point $-1 40 -40 -20 #
straight-curve $-1 0 -40 -20 -1 0 0 I I #
End-of-ACIS-data 