700 0 2 0           
24 FBMach with ACIS - 7.0.3 13 ACIS 7.0.3 NT 24 Tue May 14 09:20:02 2002 
1 9.9999999999999995e-007 1e-010 
body $2 -1 $-1 $3 $-1 $4 #
bdycol-kcp $-1 -1 1 5 $5 $6 $7 $8 $9 #
model_id-kcp-attrib $-1 -1 $-1 $-1 $0 1 1021382401 1021382401 1957036033 1 #
lump $-1 -1 $-1 $-1 $10 $0 #
transform $-1 -1 1 0 0 0 1 0 0 0 1 0 0 0 1 rotate no_reflect no_shear #
body $11 -1 $-1 $12 $-1 $13 #
body $14 -1 $-1 $15 $-1 $16 #
body $17 -1 $-1 $18 $-1 $19 #
body $20 -1 $-1 $21 $-1 $22 #
body $23 -1 $-1 $24 $-1 $25 #
shell $-1 -1 $-1 $-1 $-1 $26 $-1 $3 #
rgb_color-st-attrib $-1 -1 $27 $-1 $5 0.5 1 1 #
lump $-1 -1 $-1 $28 $29 $5 #
transform $-1 -1 1 0 0 0 1 0 0 0 1 0 0 0 1 no_rotate no_reflect no_shear #
model_id-kcp-attrib $-1 -1 $-1 $-1 $6 1 1021382401 1021382401 1957036034 1 #
lump $-1 -1 $-1 $-1 $30 $6 #
transform $-1 -1 1 0 0 0 1 0 0 0 1 0 0 0 1 no_rotate no_reflect no_shear #
rgb_color-st-attrib $-1 -1 $31 $-1 $7 0.5 1 1 #
lump $-1 -1 $-1 $-1 $32 $7 #
transform $-1 -1 1 0 0 0 1 0 0 0 1 -40 0 0 1 no_rotate no_reflect no_shear #
rgb_color-st-attrib $-1 -1 $33 $-1 $8 0.5 1 1 #
lump $-1 -1 $-1 $-1 $34 $8 #
transform $-1 -1 1 0 0 0 1 0 0 0 1 40 0 0 1 no_rotate no_reflect no_shear #
rgb_color-st-attrib $-1 -1 $35 $-1 $9 0 0 1 #
lump $-1 -1 $-1 $-1 $36 $9 #
transform $-1 -1 1 0 0 0 1 0 0 0 1 0 0 0 1 no_rotate no_reflect no_shear #
face $37 -1 $-1 $38 $39 $10 $-1 $40 forward single #
model_id-kcp-attrib $-1 -1 $-1 $11 $5 1 1021382401 1021382401 1950089221 1 #
lump $-1 -1 $-1 $-1 $41 $5 #
shell $-1 -1 $-1 $-1 $-1 $42 $-1 $12 #
shell $-1 -1 $-1 $-1 $-1 $43 $-1 $15 #
model_id-kcp-attrib $-1 -1 $-1 $17 $7 1 1021382401 1021382401 1959657475 1 #
shell $-1 -1 $-1 $-1 $-1 $44 $-1 $18 #
model_id-kcp-attrib $-1 -1 $-1 $20 $8 1 1021382401 1021382401 1959657476 1 #
shell $-1 -1 $-1 $-1 $-1 $45 $-1 $21 #
model_id-kcp-attrib $-1 -1 $-1 $23 $9 1 1021382401 1021382402 1947992070 1 #
shell $-1 -1 $-1 $-1 $-1 $46 $-1 $24 #
model_id-kcp-attrib $-1 -1 $-1 $-1 $26 1 1021382401 1021382401 1957036033 2 #
face $47 -1 $-1 $48 $49 $10 $-1 $50 forward single #
loop $51 -1 $-1 $-1 $52 $26 #
plane-surface $-1 -1 $-1 0 5 15 0 -1 0 0 0 -1 forward_v I I I I #
shell $-1 -1 $-1 $-1 $-1 $53 $-1 $28 #
face $-1 -1 $-1 $54 $55 $29 $-1 $56 reversed single #
face $57 -1 $-1 $58 $59 $30 $-1 $60 forward single #
face $-1 -1 $-1 $61 $62 $32 $-1 $63 forward single #
face $-1 -1 $-1 $64 $65 $34 $-1 $66 forward single #
face $-1 -1 $-1 $67 $68 $36 $-1 $69 forward single #
model_id-kcp-attrib $-1 -1 $-1 $-1 $38 1 1021382401 1021382401 1957036033 3 #
face $70 -1 $-1 $71 $72 $10 $-1 $73 forward single #
loop $74 -1 $-1 $-1 $75 $38 #
plane-surface $-1 -1 $-1 0 0 10 0 0 1 1 0 0 forward_v I I I I #
model_id-kcp-attrib $-1 -1 $-1 $-1 $39 1 1021382401 1021382401 1957036033 21 #
coedge $-1 -1 $-1 $76 $77 $78 $79 reversed $39 $-1 #
face $-1 -1 $-1 $80 $81 $41 $-1 $82 reversed single #
face $-1 -1 $-1 $83 $84 $29 $-1 $56 reversed single #
loop $-1 -1 $-1 $-1 $85 $42 #
cone-surface $-1 -1 $-1 -40 0 20 0 0 1 0 -40 0 1 I I 0 1 40 forward I I I I #
model_id-kcp-attrib $-1 -1 $-1 $-1 $43 1 1021382401 1021382401 1957036034 2 #
face $86 -1 $-1 $87 $88 $30 $-1 $89 reversed single #
loop $-1 -1 $-1 $-1 $90 $43 #
plane-surface $-1 -1 $-1 0 0 20 0 0 1 1 0 0 forward_v I I I I #
face $-1 -1 $-1 $91 $92 $32 $-1 $93 forward single #
loop $-1 -1 $-1 $94 $95 $44 #
cone-surface $-1 -1 $-1 0 0 0 0 0 1 30 0 0 1 I I 0 1 30 forward I I I I #
face $-1 -1 $-1 $96 $97 $34 $-1 $98 forward single #
loop $-1 -1 $-1 $99 $100 $45 #
cone-surface $-1 -1 $-1 0 0 0 0 0 1 30 0 0 1 I I 0 1 30 forward I I I I #
face $-1 -1 $-1 $101 $102 $36 $-1 $103 forward single #
loop $-1 -1 $-1 $-1 $104 $46 #
plane-surface $-1 -1 $-1 -10.41960108450192 5 10 0 1 0 0 0 1 forward_v I I I I #
model_id-kcp-attrib $-1 -1 $-1 $-1 $48 1 1021382401 1021382401 1957036033 4 #
face $105 -1 $-1 $106 $107 $10 $-1 $108 reversed single #
loop $109 -1 $-1 $-1 $110 $48 #
plane-surface $-1 -1 $-1 0 -5 15 0 1 0 0 0 1 forward_v I I I I #
model_id-kcp-attrib $-1 -1 $-1 $-1 $49 1 1021382401 1021382401 1957036033 20 #
coedge $-1 -1 $-1 $111 $112 $113 $114 reversed $49 $-1 #
coedge $-1 -1 $-1 $115 $52 $112 $116 forward $39 $-1 #
coedge $-1 -1 $-1 $52 $115 $117 $118 reversed $39 $-1 #
coedge $-1 -1 $-1 $119 $113 $52 $79 forward $107 $-1 #
edge $120 -1 $-1 $121 10 $122 20 $78 $123 forward @7 unknown #
face $-1 -1 $-1 $124 $125 $41 $-1 $126 reversed single #
loop $-1 -1 $-1 $-1 $127 $53 #
plane-surface $-1 -1 $-1 80 0 0 -1 0 0 0 0 1 forward_v I I I I #
face $-1 -1 $-1 $128 $129 $29 $-1 $130 reversed single #
loop $-1 -1 $-1 $-1 $131 $54 #
coedge $-1 -1 $-1 $132 $133 $134 $135 reversed $55 $-1 #
model_id-kcp-attrib $-1 -1 $-1 $-1 $58 1 1021382401 1021382401 1957036034 3 #
face $136 -1 $-1 $137 $138 $30 $-1 $139 reversed single #
loop $-1 -1 $-1 $-1 $140 $58 #
plane-surface $-1 -1 $-1 0 0 -20 0 0 1 1 0 0 forward_v I I I I #
coedge $-1 -1 $-1 $141 $142 $143 $144 forward $59 $-1 #
face $-1 -1 $-1 $-1 $145 $32 $-1 $146 forward single #
loop $-1 -1 $-1 $-1 $147 $61 #
plane-surface $-1 -1 $-1 0 0 -20 0 0 -1 -1 0 0 forward_v I I I I #
loop $-1 -1 $-1 $-1 $148 $44 #
coedge $-1 -1 $-1 $95 $95 $147 $149 reversed $62 $-1 #
face $-1 -1 $-1 $-1 $150 $34 $-1 $151 forward single #
loop $-1 -1 $-1 $-1 $152 $64 #
plane-surface $-1 -1 $-1 0 0 -20 0 0 -1 -1 0 0 forward_v I I I I #
loop $-1 -1 $-1 $-1 $153 $45 #
coedge $-1 -1 $-1 $100 $100 $152 $154 reversed $65 $-1 #
face $-1 -1 $-1 $155 $156 $36 $-1 $157 forward single #
loop $-1 -1 $-1 $-1 $158 $67 #
cone-surface $-1 -1 $-1 40 0 10 0 0 1 30 0 0 1 I I 0 1 30 forward I I I I #
coedge $-1 -1 $-1 $159 $160 $161 $162 forward $68 $-1 #
model_id-kcp-attrib $-1 -1 $-1 $-1 $71 1 1021382401 1021382401 1957036033 5 #
face $163 -1 $-1 $164 $165 $10 $-1 $166 reversed single #
loop $167 -1 $-1 $168 $169 $71 #
cone-surface $-1 -1 $-1 -40 0 0 0 0 1 30 0 0 1 I I 0 1 30 forward I I I I #
model_id-kcp-attrib $-1 -1 $-1 $-1 $72 1 1021382401 1021382401 1957036033 19 #
coedge $-1 -1 $-1 $170 $171 $169 $172 reversed $72 $-1 #
coedge $-1 -1 $-1 $173 $75 $171 $174 reversed $49 $-1 #
coedge $-1 -1 $-1 $75 $173 $76 $116 reversed $49 $-1 #
coedge $-1 -1 $-1 $78 $169 $75 $114 forward $107 $-1 #
edge $175 -1 $-1 $176 -0.16744807921968935 $121 0.16744807921968935 $113 $177 forward @7 unknown #
coedge $-1 -1 $-1 $77 $76 $178 $179 reversed $39 $-1 #
edge $180 -1 $-1 $121 -10.41960108450192 $181 10.41960108450192 $76 $182 forward @7 unknown #
coedge $-1 -1 $-1 $183 $184 $77 $118 forward $185 $-1 #
edge $186 -1 $-1 $122 -10.41960108450192 $187 10.41960108450192 $117 $188 forward @7 unknown #
coedge $-1 -1 $-1 $169 $78 $184 $189 reversed $107 $-1 #
attrib_edge_convexity-kcp-attrib $-1 -1 $190 $-1 $79 1 #
vertex $-1 -1 $-1 $114 $191 #
vertex $-1 -1 $-1 $189 $192 #
straight-curve $-1 -1 $-1 -10.41960108450192 5 0 0 0 1 I I #
face $-1 -1 $-1 $193 $194 $41 $-1 $126 reversed single #
loop $-1 -1 $-1 $-1 $195 $80 #
plane-surface $-1 -1 $-1 0 0 -20 0 0 1 1 0 0 forward_v I I I I #
coedge $-1 -1 $-1 $196 $197 $198 $199 forward $81 $-1 #
face $-1 -1 $-1 $200 $201 $29 $-1 $202 reversed single #
loop $-1 -1 $-1 $-1 $203 $83 #
plane-surface $-1 -1 $-1 -80 0 0 1 0 0 0 0 -1 forward_v I I I I #
coedge $-1 -1 $-1 $204 $205 $206 $207 reversed $84 $-1 #
coedge $-1 -1 $-1 $208 $85 $209 $210 reversed $55 $-1 #
coedge $-1 -1 $-1 $85 $208 $204 $211 forward $55 $-1 #
coedge $-1 -1 $-1 $212 $213 $85 $135 forward $214 $-1 #
edge $-1 -1 $-1 $215 0 $216 1.5707963267948966 $134 $217 forward @7 unknown #
model_id-kcp-attrib $-1 -1 $-1 $-1 $87 1 1021382401 1021382401 1957036034 4 #
face $-1 -1 $-1 $218 $219 $30 $-1 $220 reversed single #
loop $-1 -1 $-1 $-1 $221 $87 #
plane-surface $-1 -1 $-1 0 -40 0 0 1 0 0 0 1 forward_v I I I I #
coedge $-1 -1 $-1 $222 $223 $224 $225 forward $88 $-1 #
coedge $-1 -1 $-1 $226 $90 $227 $228 forward $59 $-1 #
coedge $-1 -1 $-1 $90 $226 $229 $230 forward $59 $-1 #
coedge $-1 -1 $-1 $231 $232 $90 $144 reversed $233 $-1 #
edge $-1 -1 $-1 $234 -40 $235 40 $143 $236 forward @7 unknown #
loop $-1 -1 $-1 $-1 $237 $91 #
plane-surface $-1 -1 $-1 0 0 20 0 0 1 1 0 0 forward_v I I I I #
coedge $-1 -1 $-1 $147 $147 $95 $149 forward $92 $-1 #
coedge $-1 -1 $-1 $148 $148 $237 $238 reversed $94 $-1 #
edge $-1 -1 $-1 $239 0 $239 6.2831853071795862 $147 $240 forward @7 unknown #
loop $-1 -1 $-1 $-1 $241 $96 #
plane-surface $-1 -1 $-1 0 0 20 0 0 1 1 0 0 forward_v I I I I #
coedge $-1 -1 $-1 $152 $152 $100 $154 forward $97 $-1 #
coedge $-1 -1 $-1 $153 $153 $241 $242 reversed $99 $-1 #
edge $-1 -1 $-1 $243 0 $243 6.2831853071795862 $152 $244 forward @7 unknown #
face $-1 -1 $-1 $245 $246 $36 $-1 $247 forward single #
loop $-1 -1 $-1 $-1 $248 $101 #
plane-surface $-1 -1 $-1 10.41960108450192 -5 10 0 -1 0 0 0 -1 forward_v I I I I #
coedge $-1 -1 $-1 $249 $250 $251 $252 forward $102 $-1 #
coedge $-1 -1 $-1 $253 $104 $250 $254 reversed $68 $-1 #
coedge $-1 -1 $-1 $104 $253 $255 $256 forward $68 $-1 #
coedge $-1 -1 $-1 $257 $251 $104 $162 reversed $258 $-1 #
edge $-1 -1 $-1 $259 -10.41960108450192 $260 10.41960108450192 $104 $261 forward @7 unknown #
model_id-kcp-attrib $-1 -1 $-1 $-1 $106 1 1021382401 1021382401 1957036033 6 #
face $262 -1 $-1 $263 $264 $10 $-1 $265 forward single #
loop $266 -1 $-1 $267 $268 $106 #
cone-surface $-1 -1 $-1 40 0 0 0 0 1 30 0 0 1 I I 0 1 30 forward I I I I #
model_id-kcp-attrib $-1 -1 $-1 $-1 $107 1 1021382401 1021382401 1957036033 17 #
loop $269 -1 $-1 $-1 $270 $71 #
coedge $-1 -1 $-1 $113 $119 $110 $172 forward $107 $-1 #
coedge $-1 -1 $-1 $271 $110 $272 $273 reversed $72 $-1 #
coedge $-1 -1 $-1 $110 $271 $111 $174 forward $72 $-1 #
edge $274 -1 $-1 $275 -20 $176 -10 $169 $276 forward @7 unknown #
coedge $-1 -1 $-1 $112 $111 $277 $278 reversed $49 $-1 #
edge $279 -1 $-1 $280 -10.41960108450192 $176 10.41960108450192 $171 $281 forward @7 unknown #
attrib_edge_convexity-kcp-attrib $-1 -1 $282 $-1 $114 1 #
vertex $-1 -1 $-1 $114 $283 #
ellipse-curve $-1 -1 $-1 -40 0 10 0 0 1 30 0 0 1 I I #
coedge $-1 -1 $-1 $277 $284 $115 $179 forward $165 $-1 #
edge $285 -1 $-1 $187 -20 $181 -10 $178 $286 forward @7 unknown #
attrib_edge_convexity-kcp-attrib $-1 -1 $287 $-1 $116 2 #
vertex $-1 -1 $-1 $278 $288 #
straight-curve $-1 -1 $-1 0 5 10 1 0 0 I I #
coedge $-1 -1 $-1 $272 $117 $284 $289 forward $185 $-1 #
coedge $-1 -1 $-1 $117 $272 $119 $189 forward $185 $-1 #
loop $290 -1 $-1 $291 $272 $292 #
attrib_edge_convexity-kcp-attrib $-1 -1 $293 $-1 $118 1 #
vertex $-1 -1 $-1 $179 $294 #
straight-curve $-1 -1 $-1 0 5 20 1 0 0 I I #
edge $295 -1 $-1 $275 0.16744807921968935 $122 6.1157372279598965 $184 $296 forward @7 unknown #
convexity-sys-attrib $-1 -1 $-1 $120 $79 #
point $-1 -1 $-1 -10.41960108450192 5 10 #
point $-1 -1 $-1 -10.41960108450192 5 20 #
face $-1 -1 $-1 $297 $298 $41 $-1 $299 reversed single #
loop $-1 -1 $-1 $-1 $300 $124 #
coedge $-1 -1 $-1 $301 $302 $303 $304 forward $125 $-1 #
coedge $-1 -1 $-1 $305 $127 $306 $307 reversed $81 $-1 #
coedge $-1 -1 $-1 $127 $305 $308 $309 reversed $81 $-1 #
coedge $-1 -1 $-1 $310 $311 $312 $199 reversed $313 $-1 #
edge $-1 -1 $-1 $314 -40 $315 0 $127 $316 forward @7 unknown #
face $-1 -1 $-1 $317 $214 $29 $-1 $318 forward single #
loop $-1 -1 $-1 $-1 $319 $128 #
plane-surface $-1 -1 $-1 0 40 0 0 -1 0 0 0 -1 forward_v I I I I #
coedge $-1 -1 $-1 $320 $321 $133 $211 reversed $129 $-1 #
coedge $-1 -1 $-1 $322 $131 $323 $211 reversed $84 $-1 #
coedge $-1 -1 $-1 $131 $322 $319 $324 forward $84 $-1 #
coedge $-1 -1 $-1 $325 $326 $131 $207 forward $327 $-1 #
edge $-1 -1 $-1 $216 1.5707963267948966 $328 3.1415926535897931 $206 $217 forward @7 unknown #
coedge $-1 -1 $-1 $133 $132 $329 $330 reversed $55 $-1 #
coedge $-1 -1 $-1 $331 $332 $132 $210 forward $333 $-1 #
edge $-1 -1 $-1 $334 -40 $215 0 $209 $335 forward @7 unknown #
edge $-1 -1 $-1 $336 -40 $216 0 $323 $337 forward @7 unknown #
coedge $-1 -1 $-1 $213 $134 $321 $338 forward $214 $-1 #
coedge $-1 -1 $-1 $134 $212 $331 $339 forward $214 $-1 #
loop $-1 -1 $-1 $-1 $134 $200 #
vertex $-1 -1 $-1 $210 $340 #
vertex $-1 -1 $-1 $338 $341 #
ellipse-curve $-1 -1 $-1 -40 0 20 0 0 -1 0 -40 0 1 I I #
face $342 -1 $-1 $343 $344 $30 $-1 $345 reversed single #
loop $-1 -1 $-1 $-1 $346 $137 #
plane-surface $-1 -1 $-1 -80 0 0 1 0 0 0 0 -1 forward_v I I I I #
coedge $-1 -1 $-1 $347 $229 $348 $349 forward $138 $-1 #
coedge $-1 -1 $-1 $350 $140 $347 $351 forward $88 $-1 #
coedge $-1 -1 $-1 $140 $350 $352 $353 forward $88 $-1 #
coedge $-1 -1 $-1 $232 $231 $140 $225 reversed $233 $-1 #
edge $-1 -1 $-1 $354 -40 $355 40 $224 $356 forward @7 unknown #
coedge $-1 -1 $-1 $142 $141 $357 $358 forward $59 $-1 #
coedge $-1 -1 $-1 $359 $360 $141 $228 reversed $344 $-1 #
edge $-1 -1 $-1 $235 -80 $361 80 $227 $362 forward @7 unknown #
coedge $-1 -1 $-1 $221 $363 $142 $230 reversed $138 $-1 #
edge $-1 -1 $-1 $364 -80 $234 80 $229 $365 forward @7 unknown #
coedge $-1 -1 $-1 $224 $143 $363 $366 forward $233 $-1 #
coedge $-1 -1 $-1 $143 $224 $359 $367 reversed $233 $-1 #
loop $-1 -1 $-1 $-1 $231 $343 #
vertex $-1 -1 $-1 $144 $368 #
vertex $-1 -1 $-1 $144 $369 #
straight-curve $-1 -1 $-1 80 0 20 0 1 0 I I #
coedge $-1 -1 $-1 $237 $237 $148 $238 forward $145 $-1 #
edge $-1 -1 $-1 $370 0 $370 6.2831853071795862 $237 $371 forward @7 unknown #
vertex $-1 -1 $-1 $149 $372 #
ellipse-curve $-1 -1 $-1 0 0 -20 0 0 -1 30 0 0 1 I I #
coedge $-1 -1 $-1 $241 $241 $153 $242 forward $150 $-1 #
edge $-1 -1 $-1 $373 0 $373 6.2831853071795862 $241 $374 forward @7 unknown #
vertex $-1 -1 $-1 $154 $375 #
ellipse-curve $-1 -1 $-1 0 0 -20 0 0 -1 30 0 0 1 I I #
face $-1 -1 $-1 $376 $258 $36 $-1 $377 forward single #
loop $-1 -1 $-1 $-1 $378 $155 #
cone-surface $-1 -1 $-1 -40 0 10 0 0 1 30 0 0 1 I I 0 1 30 forward I I I I #
coedge $-1 -1 $-1 $379 $380 $381 $382 forward $156 $-1 #
coedge $-1 -1 $-1 $383 $158 $380 $384 reversed $102 $-1 #
coedge $-1 -1 $-1 $158 $383 $159 $254 forward $102 $-1 #
coedge $-1 -1 $-1 $161 $381 $158 $252 reversed $258 $-1 #
edge $-1 -1 $-1 $260 -2.9741445743701038 $385 2.9741445743701038 $158 $386 forward @7 unknown #
coedge $-1 -1 $-1 $160 $159 $387 $388 reversed $68 $-1 #
edge $389 -1 $-1 $390 0 $260 10 $250 $391 forward @7 unknown #
coedge $-1 -1 $-1 $392 $378 $160 $256 reversed $246 $-1 #
edge $-1 -1 $-1 $393 0 $259 10 $160 $394 forward @7 unknown #
coedge $-1 -1 $-1 $381 $161 $378 $395 reversed $258 $-1 #
loop $-1 -1 $-1 $-1 $161 $245 #
vertex $-1 -1 $-1 $256 $396 #
vertex $-1 -1 $-1 $254 $397 #
straight-curve $-1 -1 $-1 0 5 20 1 0 0 I I #
model_id-kcp-attrib $-1 -1 $-1 $-1 $164 1 1021382401 1021382401 1957036033 7 #
face $398 -1 $-1 $292 $399 $10 $-1 $400 forward single #
loop $-1 -1 $-1 $-1 $401 $164 #
cone-surface $-1 -1 $-1 -40 0 0 0 0 1 40 0 0 1 I I 0 1 40 forward I I I I #
model_id-kcp-attrib $-1 -1 $-1 $-1 $165 1 1021382401 1021382401 1957036033 24 #
loop $402 -1 $-1 $-1 $403 $106 #
coedge $-1 -1 $-1 $284 $277 $271 $404 forward $165 $-1 #
model_id-kcp-attrib $-1 -1 $-1 $-1 $168 1 1021382401 1021382401 1957036033 18 #
coedge $-1 -1 $-1 $270 $270 $405 $406 reversed $168 $-1 #
coedge $-1 -1 $-1 $171 $170 $268 $404 reversed $72 $-1 #
coedge $-1 -1 $-1 $184 $183 $170 $273 forward $185 $-1 #
edge $407 -1 $-1 $408 -10.41960108450192 $275 10.41960108450192 $272 $409 forward @7 unknown #
attrib_edge_convexity-kcp-attrib $-1 -1 $410 $-1 $172 1 #
vertex $-1 -1 $-1 $273 $411 #
straight-curve $-1 -1 $-1 -10.41960108450192 -5 0 0 0 -1 I I #
coedge $-1 -1 $-1 $268 $178 $173 $278 forward $165 $-1 #
edge $412 -1 $-1 $181 2.9741445743701038 $280 3.3090407328094824 $277 $413 forward @7 unknown #
attrib_edge_convexity-kcp-attrib $-1 -1 $414 $-1 $174 2 #
vertex $-1 -1 $-1 $278 $415 #
straight-curve $-1 -1 $-1 0 -5 10 -1 0 0 I I #
convexity-sys-attrib $-1 -1 $-1 $175 $114 #
point $-1 -1 $-1 -10.41960108450192 -5 10 #
coedge $-1 -1 $-1 $178 $268 $183 $289 reversed $165 $-1 #
attrib_edge_convexity-kcp-attrib $-1 -1 $416 $-1 $179 1 #
straight-curve $-1 -1 $-1 10.41960108450192 5 0 0 0 -1 I I #
convexity-sys-attrib $-1 -1 $-1 $180 $116 #
point $-1 -1 $-1 10.41960108450192 5 10 #
edge $417 -1 $-1 $187 -2.9741445743701038 $408 2.9741445743701038 $183 $418 forward @7 unknown #
model_id-kcp-attrib $-1 -1 $-1 $-1 $185 1 1021382401 1021382401 1957036033 22 #
loop $-1 -1 $-1 $-1 $419 $292 #
face $420 -1 $-1 $421 $185 $10 $-1 $422 forward single #
convexity-sys-attrib $-1 -1 $-1 $186 $118 #
point $-1 -1 $-1 10.41960108450192 5 20 #
attrib_edge_convexity-kcp-attrib $-1 -1 $423 $-1 $189 1 #
ellipse-curve $-1 -1 $-1 -40 0 20 0 0 -1 30 0 0 1 I I #
face $-1 -1 $-1 $424 $425 $41 $-1 $318 forward single #
loop $-1 -1 $-1 $-1 $426 $193 #
plane-surface $-1 -1 $-1 0 -40 0 0 1 0 0 0 1 forward_v I I I I #
coedge $-1 -1 $-1 $308 $427 $428 $429 forward $194 $-1 #
coedge $-1 -1 $-1 $302 $195 $430 $431 forward $125 $-1 #
coedge $-1 -1 $-1 $195 $301 $310 $432 forward $125 $-1 #
coedge $-1 -1 $-1 $312 $433 $195 $304 reversed $434 $-1 #
edge $-1 -1 $-1 $314 -1.5707963267948966 $435 0 $195 $436 forward @7 unknown #
coedge $-1 -1 $-1 $197 $196 $437 $438 forward $81 $-1 #
coedge $-1 -1 $-1 $439 $440 $196 $307 forward $441 $-1 #
edge $-1 -1 $-1 $442 -40 $315 0 $196 $443 forward @7 unknown #
coedge $-1 -1 $-1 $427 $300 $197 $309 forward $194 $-1 #
edge $-1 -1 $-1 $314 0 $444 40 $197 $445 forward @7 unknown #
coedge $-1 -1 $-1 $446 $198 $302 $432 reversed $313 $-1 #
coedge $-1 -1 $-1 $198 $446 $447 $448 reversed $313 $-1 #
coedge $-1 -1 $-1 $449 $303 $450 $199 forward $434 $-1 #
loop $-1 -1 $-1 $-1 $198 $451 #
vertex $-1 -1 $-1 $309 $452 #
vertex $-1 -1 $-1 $448 $453 #
straight-curve $-1 -1 $-1 80 0 20 0 0 1 I I #
face $-1 -1 $-1 $454 $455 $29 $-1 $126 reversed single #
plane-surface $-1 -1 $-1 0 0 20 0 0 1 1 0 0 forward_v I I I I #
coedge $-1 -1 $-1 $456 $457 $205 $324 reversed $201 $-1 #
coedge $-1 -1 $-1 $458 $203 $459 $460 reversed $129 $-1 #
coedge $-1 -1 $-1 $203 $458 $212 $338 reversed $129 $-1 #
coedge $-1 -1 $-1 $205 $204 $461 $462 reversed $84 $-1 #
coedge $-1 -1 $-1 $463 $464 $203 $211 forward $465 $-1 #
edge $-1 -1 $-1 $466 -40 $328 0 $319 $467 forward @7 unknown #
coedge $-1 -1 $-1 $326 $206 $457 $468 forward $327 $-1 #
coedge $-1 -1 $-1 $206 $325 $463 $469 forward $327 $-1 #
loop $-1 -1 $-1 $-1 $206 $454 #
vertex $-1 -1 $-1 $468 $470 #
coedge $-1 -1 $-1 $471 $459 $208 $330 forward $455 $-1 #
edge $-1 -1 $-1 $336 -1.5707963267948966 $334 0 $329 $472 forward @7 unknown #
coedge $-1 -1 $-1 $473 $209 $213 $339 reversed $333 $-1 #
coedge $-1 -1 $-1 $209 $473 $471 $474 reversed $333 $-1 #
loop $-1 -1 $-1 $-1 $209 $475 #
vertex $-1 -1 $-1 $474 $476 #
straight-curve $-1 -1 $-1 -40 -40 20 0 0 1 I I #
vertex $-1 -1 $-1 $477 $478 #
straight-curve $-1 -1 $-1 -80 0 20 0 0 1 I I #
edge $-1 -1 $-1 $216 0 $479 40 $321 $480 forward @7 unknown #
edge $-1 -1 $-1 $479 -80 $215 -40 $331 $481 forward @7 unknown #
point $-1 -1 $-1 -40 -40 20 #
point $-1 -1 $-1 -80 0 20 #
model_id-kcp-attrib $-1 -1 $-1 $-1 $218 1 1021382401 1021382401 1957036034 5 #
face $-1 -1 $-1 $-1 $233 $30 $-1 $482 reversed single #
loop $-1 -1 $-1 $-1 $359 $218 #
plane-surface $-1 -1 $-1 0 40 0 0 -1 0 0 0 -1 forward_v I I I I #
coedge $-1 -1 $-1 $483 $357 $360 $484 forward $219 $-1 #
coedge $-1 -1 $-1 $363 $221 $222 $351 reversed $138 $-1 #
coedge $-1 -1 $-1 $357 $483 $221 $349 reversed $219 $-1 #
edge $-1 -1 $-1 $364 -20 $485 20 $348 $486 forward @7 unknown #
coedge $-1 -1 $-1 $223 $222 $483 $487 forward $88 $-1 #
edge $-1 -1 $-1 $355 -80 $485 80 $347 $488 forward @7 unknown #
coedge $-1 -1 $-1 $360 $359 $223 $353 reversed $344 $-1 #
edge $-1 -1 $-1 $489 -80 $354 80 $352 $490 forward @7 unknown #
vertex $-1 -1 $-1 $225 $491 #
vertex $-1 -1 $-1 $366 $492 #
straight-curve $-1 -1 $-1 80 0 -20 0 -1 0 I I #
coedge $-1 -1 $-1 $346 $348 $226 $358 reversed $219 $-1 #
edge $-1 -1 $-1 $361 -40 $364 40 $357 $493 forward @7 unknown #
coedge $-1 -1 $-1 $352 $227 $232 $367 forward $344 $-1 #
coedge $-1 -1 $-1 $227 $352 $346 $484 reversed $344 $-1 #
vertex $-1 -1 $-1 $228 $494 #
straight-curve $-1 -1 $-1 0 40 20 -1 0 0 I I #
coedge $-1 -1 $-1 $229 $347 $231 $366 reversed $138 $-1 #
vertex $-1 -1 $-1 $358 $495 #
straight-curve $-1 -1 $-1 0 -40 20 1 0 0 I I #
edge $-1 -1 $-1 $234 -20 $355 20 $231 $496 forward @7 unknown #
edge $-1 -1 $-1 $235 -20 $354 20 $232 $497 forward @7 unknown #
point $-1 -1 $-1 80 -40 20 #
point $-1 -1 $-1 80 40 20 #
vertex $-1 -1 $-1 $238 $498 #
ellipse-curve $-1 -1 $-1 0 0 20 0 0 1 30 0 0 1 I I #
point $-1 -1 $-1 30 0 -20 #
vertex $-1 -1 $-1 $242 $499 #
ellipse-curve $-1 -1 $-1 0 0 20 0 0 1 30 0 0 1 I I #
point $-1 -1 $-1 30 0 -20 #
face $-1 -1 $-1 $-1 $500 $36 $-1 $501 reversed single #
plane-surface $-1 -1 $-1 -3.586486530348732e-015 -1.27675647831893e-015 20 0 0 1 1 0 0 forward_v I I I I #
coedge $-1 -1 $-1 $255 $502 $257 $395 forward $246 $-1 #
coedge $-1 -1 $-1 $503 $248 $502 $504 reversed $156 $-1 #
coedge $-1 -1 $-1 $248 $503 $249 $384 forward $156 $-1 #
coedge $-1 -1 $-1 $251 $257 $248 $382 reversed $258 $-1 #
edge $-1 -1 $-1 $385 -10.41960108450192 $505 10.41960108450192 $248 $506 forward @7 unknown #
coedge $-1 -1 $-1 $250 $249 $507 $508 reversed $102 $-1 #
edge $-1 -1 $-1 $509 0 $385 10 $380 $510 forward @7 unknown #
vertex $-1 -1 $-1 $384 $511 #
ellipse-curve $-1 -1 $-1 40 0 20 0 0 -1 30 0 0 1 I I #
coedge $-1 -1 $-1 $507 $512 $253 $388 forward $500 $-1 #
edge $513 -1 $-1 $393 -10.41960108450192 $390 10.41960108450192 $253 $514 forward @7 unknown #
convexity-sys-attrib $-1 -1 $-1 $-1 $254 #
vertex $-1 -1 $-1 $388 $515 #
straight-curve $-1 -1 $-1 10.41960108450192 5 10 0 0 1 I I #
coedge $-1 -1 $-1 $502 $255 $512 $516 reversed $246 $-1 #
vertex $-1 -1 $-1 $516 $517 #
straight-curve $-1 -1 $-1 -10.41960108450192 5 10 0 0 1 I I #
edge $-1 -1 $-1 $505 0.16744807921968935 $259 6.1157372279598965 $378 $518 forward @7 unknown #
point $-1 -1 $-1 -10.41960108450192 5 20 #
point $-1 -1 $-1 10.41960108450192 5 20 #
model_id-kcp-attrib $-1 -1 $-1 $-1 $263 1 1021382401 1021382401 1957036033 8 #
loop $-1 -1 $-1 $-1 $519 $263 #
cone-surface $-1 -1 $-1 40 0 0 0 0 1 40 0 0 1 I I 0 1 40 forward I I I I #
coedge $-1 -1 $-1 $520 $521 $522 $523 reversed $264 $-1 #
model_id-kcp-attrib $-1 -1 $-1 $-1 $267 1 1021382401 1021382401 1957036033 25 #
coedge $-1 -1 $-1 $403 $403 $524 $525 reversed $267 $-1 #
edge $526 -1 $-1 $280 10 $408 20 $268 $527 forward @7 unknown #
coedge $-1 -1 $-1 $405 $405 $270 $406 forward $528 $-1 #
edge $529 -1 $-1 $530 0 $530 6.2831853071795862 $405 $531 forward @7 unknown #
attrib_edge_convexity-kcp-attrib $-1 -1 $532 $-1 $273 1 #
vertex $-1 -1 $-1 $289 $533 #
straight-curve $-1 -1 $-1 0 -5 20 -1 0 0 I I #
convexity-sys-attrib $-1 -1 $-1 $274 $172 #
point $-1 -1 $-1 -10.41960108450192 -5 20 #
attrib_edge_convexity-kcp-attrib $-1 -1 $534 $-1 $278 1 #
ellipse-curve $-1 -1 $-1 40 0 10 0 0 1 30 0 0 1 I I #
convexity-sys-attrib $-1 -1 $-1 $279 $174 #
point $-1 -1 $-1 10.41960108450192 -5 10 #
convexity-sys-attrib $-1 -1 $-1 $285 $179 #
attrib_edge_convexity-kcp-attrib $-1 -1 $535 $-1 $289 1 #
ellipse-curve $-1 -1 $-1 40 0 20 0 0 -1 30 0 0 1 I I #
coedge $-1 -1 $-1 $536 $537 $538 $539 forward $291 $-1 #
model_id-kcp-attrib $-1 -1 $-1 $-1 $292 1 1021382401 1021382401 1957036033 9 #
face $540 -1 $-1 $541 $528 $10 $-1 $542 reversed single #
plane-surface $-1 -1 $-1 0 0 20 0 0 1 1 0 0 forward_v I I I I #
convexity-sys-attrib $-1 -1 $-1 $295 $189 #
face $-1 -1 $-1 $451 $441 $41 $-1 $318 forward single #
loop $-1 -1 $-1 $-1 $543 $297 #
coedge $-1 -1 $-1 $544 $545 $546 $547 reversed $298 $-1 #
coedge $-1 -1 $-1 $300 $308 $544 $548 forward $194 $-1 #
coedge $-1 -1 $-1 $546 $450 $300 $429 reversed $549 $-1 #
edge $-1 -1 $-1 $550 -3.1415926535897931 $314 -1.5707963267948966 $300 $436 forward @7 unknown #
coedge $-1 -1 $-1 $551 $552 $301 $431 reversed $553 $-1 #
edge $-1 -1 $-1 $435 40 $554 80 $430 $555 forward @7 unknown #
edge $-1 -1 $-1 $554 -40 $314 0 $310 $445 forward @7 unknown #
coedge $-1 -1 $-1 $303 $449 $551 $556 reversed $434 $-1 #
loop $-1 -1 $-1 $-1 $449 $557 #
vertex $-1 -1 $-1 $431 $558 #
ellipse-curve $-1 -1 $-1 40 0 -20 0 0 1 0 40 0 1 I I #
coedge $-1 -1 $-1 $545 $544 $305 $438 reversed $298 $-1 #
edge $-1 -1 $-1 $442 -20 $444 20 $305 $559 forward @7 unknown #
coedge $-1 -1 $-1 $440 $306 $560 $561 forward $441 $-1 #
coedge $-1 -1 $-1 $306 $439 $545 $562 forward $441 $-1 #
loop $-1 -1 $-1 $-1 $439 $424 #
vertex $-1 -1 $-1 $307 $563 #
straight-curve $-1 -1 $-1 80 0 20 0 1 0 I I #
vertex $-1 -1 $-1 $438 $564 #
straight-curve $-1 -1 $-1 80 0 -20 0 -1 0 I I #
coedge $-1 -1 $-1 $311 $310 $552 $565 reversed $313 $-1 #
coedge $-1 -1 $-1 $566 $543 $311 $448 forward $425 $-1 #
edge $-1 -1 $-1 $315 0 $567 40 $311 $443 forward @7 unknown #
coedge $-1 -1 $-1 $433 $312 $543 $568 reversed $434 $-1 #
coedge $-1 -1 $-1 $428 $560 $127 $199 reversed $549 $-1 #
face $-1 -1 $-1 $569 $313 $41 $-1 $82 reversed single #
point $-1 -1 $-1 80 0 -20 #
point $-1 -1 $-1 80 0 20 #
face $-1 -1 $-1 $570 $327 $29 $-1 $318 forward single #
loop $-1 -1 $-1 $-1 $329 $317 #
coedge $-1 -1 $-1 $571 $319 $572 $573 reversed $201 $-1 #
coedge $-1 -1 $-1 $319 $571 $325 $468 reversed $201 $-1 #
coedge $-1 -1 $-1 $321 $320 $473 $574 reversed $129 $-1 #
coedge $-1 -1 $-1 $329 $471 $320 $460 forward $455 $-1 #
edge $-1 -1 $-1 $575 -40 $336 0 $320 $576 forward @7 unknown #
coedge $-1 -1 $-1 $577 $572 $322 $462 forward $578 $-1 #
edge $-1 -1 $-1 $466 -3.1415926535897931 $336 -1.5707963267948966 $461 $472 forward @7 unknown #
coedge $-1 -1 $-1 $579 $323 $326 $469 reversed $465 $-1 #
coedge $-1 -1 $-1 $323 $579 $577 $477 reversed $465 $-1 #
loop $-1 -1 $-1 $-1 $323 $580 #
vertex $-1 -1 $-1 $324 $581 #
straight-curve $-1 -1 $-1 -40 40 20 0 0 1 I I #
edge $-1 -1 $-1 $328 40 $582 80 $457 $583 forward @7 unknown #
edge $-1 -1 $-1 $582 -40 $216 0 $463 $480 forward @7 unknown #
point $-1 -1 $-1 -40 40 20 #
coedge $-1 -1 $-1 $459 $329 $332 $474 forward $455 $-1 #
ellipse-curve $-1 -1 $-1 -40 0 -20 0 0 1 0 -40 0 1 I I #
coedge $-1 -1 $-1 $332 $331 $458 $574 forward $333 $-1 #
edge $-1 -1 $-1 $334 40 $575 80 $332 $584 forward @7 unknown #
face $-1 -1 $-1 $580 $333 $29 $-1 $299 reversed single #
point $-1 -1 $-1 -40 -40 -20 #
edge $-1 -1 $-1 $336 0 $585 40 $464 $576 forward @7 unknown #
point $-1 -1 $-1 -80 0 -20 #
vertex $-1 -1 $-1 $338 $586 #
straight-curve $-1 -1 $-1 -80 0 20 0 -1 0 I I #
straight-curve $-1 -1 $-1 0 -40 20 1 0 0 I I #
plane-surface $-1 -1 $-1 80 0 0 -1 0 0 0 0 1 forward_v I I I I #
coedge $-1 -1 $-1 $348 $346 $350 $487 reversed $219 $-1 #
edge $-1 -1 $-1 $361 -20 $489 20 $360 $587 forward @7 unknown #
vertex $-1 -1 $-1 $487 $588 #
straight-curve $-1 -1 $-1 -80 -40 0 0 0 -1 I I #
edge $-1 -1 $-1 $485 -40 $489 40 $483 $589 forward @7 unknown #
straight-curve $-1 -1 $-1 0 -40 -20 -1 0 0 I I #
vertex $-1 -1 $-1 $353 $590 #
straight-curve $-1 -1 $-1 0 40 -20 1 0 0 I I #
point $-1 -1 $-1 80 40 -20 #
point $-1 -1 $-1 80 -40 -20 #
straight-curve $-1 -1 $-1 -80 0 20 0 -1 0 I I #
point $-1 -1 $-1 -80 40 20 #
point $-1 -1 $-1 -80 -40 20 #
straight-curve $-1 -1 $-1 80 -40 0 0 0 -1 I I #
straight-curve $-1 -1 $-1 80 40 0 0 0 -1 I I #
point $-1 -1 $-1 30 0 20 #
point $-1 -1 $-1 30 0 20 #
loop $-1 -1 $-1 $-1 $512 $376 #
plane-surface $-1 -1 $-1 -3.586486530348732e-015 -1.27675647831893e-015 9.9999999999999982 0 0 1 1 0 0 forward_v I I I I #
coedge $-1 -1 $-1 $378 $392 $379 $504 forward $246 $-1 #
coedge $-1 -1 $-1 $380 $379 $591 $592 reversed $156 $-1 #
edge $-1 -1 $-1 $593 0 $505 10 $502 $594 forward @7 unknown #
vertex $-1 -1 $-1 $504 $595 #
straight-curve $-1 -1 $-1 0 -5 20 -1 0 0 I I #
coedge $-1 -1 $-1 $591 $387 $383 $508 forward $500 $-1 #
edge $596 -1 $-1 $390 -2.9741445743701038 $509 2.9741445743701038 $383 $597 forward @7 unknown #
vertex $-1 -1 $-1 $508 $598 #
straight-curve $-1 -1 $-1 10.41960108450192 -5 10 0 0 1 I I #
point $-1 -1 $-1 10.41960108450192 -5 20 #
coedge $-1 -1 $-1 $387 $591 $392 $516 forward $500 $-1 #
convexity-sys-attrib $-1 -1 $-1 $-1 $388 #
straight-curve $-1 -1 $-1 0 5 10 1 0 0 I I #
point $-1 -1 $-1 10.41960108450192 5 10 #
edge $599 -1 $-1 $593 0.16744807921968935 $393 6.1157372279598965 $392 $600 forward @7 unknown #
point $-1 -1 $-1 -10.41960108450192 5 10 #
ellipse-curve $-1 -1 $-1 -40 0 20 0 0 -1 30 0 0 1 I I #
coedge $-1 -1 $-1 $601 $602 $603 $604 forward $399 $-1 #
coedge $-1 -1 $-1 $605 $401 $606 $607 reversed $264 $-1 #
coedge $-1 -1 $-1 $401 $605 $537 $608 reversed $264 $-1 #
coedge $-1 -1 $-1 $609 $610 $401 $523 forward $611 $-1 #
edge $-1 -1 $-1 $612 -20 $613 20 $522 $614 reversed @7 unknown #
coedge $-1 -1 $-1 $524 $524 $403 $525 forward $615 $-1 #
edge $616 -1 $-1 $617 0 $617 6.2831853071795862 $524 $618 forward @7 unknown #
attrib_edge_convexity-kcp-attrib $-1 -1 $619 $-1 $404 1 #
straight-curve $-1 -1 $-1 10.41960108450192 -5 0 0 0 1 I I #
loop $620 -1 $-1 $615 $405 $421 #
attrib_edge_convexity-kcp-attrib $-1 -1 $621 $-1 $406 1 #
vertex $-1 -1 $-1 $406 $622 #
ellipse-curve $-1 -1 $-1 -40 0 -20 0 0 1 30 0 0 1 I I #
convexity-sys-attrib $-1 -1 $-1 $407 $273 #
point $-1 -1 $-1 10.41960108450192 -5 20 #
convexity-sys-attrib $-1 -1 $-1 $412 $278 #
convexity-sys-attrib $-1 -1 $-1 $417 $289 #
coedge $-1 -1 $-1 $623 $419 $601 $624 forward $291 $-1 #
coedge $-1 -1 $-1 $419 $623 $521 $608 forward $291 $-1 #
coedge $-1 -1 $-1 $625 $626 $419 $539 reversed $627 $-1 #
edge $628 -1 $-1 $629 -40 $630 40 $538 $631 forward @7 unknown #
model_id-kcp-attrib $-1 -1 $-1 $-1 $421 1 1021382401 1021382401 1957036033 10 #
face $632 -1 $-1 $633 $627 $10 $-1 $634 reversed single #
plane-surface $-1 -1 $-1 0 0 -20 0 0 1 1 0 0 forward_v I I I I #
coedge $-1 -1 $-1 $447 $566 $449 $568 forward $425 $-1 #
coedge $-1 -1 $-1 $437 $426 $427 $548 reversed $298 $-1 #
coedge $-1 -1 $-1 $426 $437 $440 $562 reversed $298 $-1 #
coedge $-1 -1 $-1 $560 $428 $426 $547 forward $549 $-1 #
edge $-1 -1 $-1 $550 -40 $635 0 $426 $636 forward @7 unknown #
edge $-1 -1 $-1 $444 -80 $550 -40 $544 $584 forward @7 unknown #
loop $-1 -1 $-1 $-1 $560 $637 #
vertex $-1 -1 $-1 $429 $638 #
coedge $-1 -1 $-1 $639 $430 $433 $556 forward $553 $-1 #
coedge $-1 -1 $-1 $430 $639 $446 $565 forward $553 $-1 #
loop $-1 -1 $-1 $-1 $551 $569 #
vertex $-1 -1 $-1 $432 $640 #
straight-curve $-1 -1 $-1 0 40 -20 1 0 0 I I #
edge $-1 -1 $-1 $435 -40 $641 0 $551 $642 forward @7 unknown #
face $-1 -1 $-1 $637 $434 $41 $-1 $643 reversed single #
point $-1 -1 $-1 40 40 -20 #
straight-curve $-1 -1 $-1 80 -40 0 0 0 -1 I I #
coedge $-1 -1 $-1 $450 $546 $439 $561 reversed $549 $-1 #
edge $-1 -1 $-1 $315 1.5707963267948966 $635 3.1415926535897931 $439 $644 forward @7 unknown #
edge $-1 -1 $-1 $635 40 $442 80 $545 $481 forward @7 unknown #
point $-1 -1 $-1 80 -40 20 #
point $-1 -1 $-1 80 -40 -20 #
edge $-1 -1 $-1 $567 -20 $554 20 $446 $645 forward @7 unknown #
coedge $-1 -1 $-1 $543 $447 $639 $646 forward $425 $-1 #
vertex $-1 -1 $-1 $448 $647 #
edge $-1 -1 $-1 $641 0 $315 1.5707963267948966 $543 $644 forward @7 unknown #
face $-1 -1 $-1 $557 $553 $41 $-1 $202 reversed single #
face $-1 -1 $-1 $475 $578 $29 $-1 $126 reversed single #
coedge $-1 -1 $-1 $457 $456 $579 $648 reversed $201 $-1 #
coedge $-1 -1 $-1 $461 $577 $456 $573 forward $578 $-1 #
edge $-1 -1 $-1 $585 -80 $466 -40 $456 $555 forward @7 unknown #
edge $-1 -1 $-1 $479 -20 $575 20 $458 $649 forward @7 unknown #
vertex $-1 -1 $-1 $460 $650 #
straight-curve $-1 -1 $-1 -80 0 -20 0 1 0 I I #
coedge $-1 -1 $-1 $572 $461 $464 $477 forward $578 $-1 #
loop $-1 -1 $-1 $-1 $461 $570 #
coedge $-1 -1 $-1 $464 $463 $571 $648 forward $465 $-1 #
face $-1 -1 $-1 $-1 $465 $29 $-1 $130 reversed single #
point $-1 -1 $-1 -40 40 -20 #
vertex $-1 -1 $-1 $468 $651 #
straight-curve $-1 -1 $-1 0 40 20 -1 0 0 I I #
straight-curve $-1 -1 $-1 0 -40 -20 -1 0 0 I I #
vertex $-1 -1 $-1 $573 $652 #
point $-1 -1 $-1 -80 -40 20 #
straight-curve $-1 -1 $-1 -80 40 0 0 0 -1 I I #
point $-1 -1 $-1 -80 -40 -20 #
straight-curve $-1 -1 $-1 -80 0 -20 0 1 0 I I #
point $-1 -1 $-1 -80 40 -20 #
coedge $-1 -1 $-1 $512 $507 $503 $592 forward $500 $-1 #
edge $653 -1 $-1 $509 -10.41960108450192 $593 10.41960108450192 $503 $654 forward @7 unknown #
vertex $-1 -1 $-1 $516 $655 #
straight-curve $-1 -1 $-1 -10.41960108450192 -5 10 0 0 1 I I #
point $-1 -1 $-1 -10.41960108450192 -5 20 #
convexity-sys-attrib $-1 -1 $-1 $-1 $508 #
ellipse-curve $-1 -1 $-1 40 0 10 0 0 -1 30 0 0 1 I I #
point $-1 -1 $-1 10.41960108450192 -5 10 #
convexity-sys-attrib $-1 -1 $-1 $-1 $516 #
ellipse-curve $-1 -1 $-1 -40 0 10 0 0 -1 30 0 0 1 I I #
coedge $-1 -1 $-1 $656 $519 $536 $624 reversed $399 $-1 #
coedge $-1 -1 $-1 $519 $656 $657 $658 reversed $399 $-1 #
coedge $-1 -1 $-1 $610 $609 $519 $604 reversed $611 $-1 #
edge $-1 -1 $-1 $659 -20 $660 20 $603 $661 reversed @7 unknown #
coedge $-1 -1 $-1 $521 $520 $625 $662 forward $264 $-1 #
coedge $-1 -1 $-1 $663 $664 $520 $607 forward $665 $-1 #
edge $-1 -1 $-1 $666 1.5707963267948966 $612 4.7123889803846897 $606 $667 forward @7 unknown #
edge $668 -1 $-1 $613 1.5707963267948966 $629 4.7123889803846897 $537 $669 forward @7 unknown #
coedge $-1 -1 $-1 $603 $522 $623 $670 reversed $611 $-1 #
coedge $-1 -1 $-1 $522 $603 $663 $671 reversed $611 $-1 #
loop $-1 -1 $-1 $-1 $603 $633 #
vertex $-1 -1 $-1 $671 $672 #
vertex $-1 -1 $-1 $670 $673 #
straight-curve $-1 -1 $-1 -40 40 0 0 0 -1 I I #
loop $674 -1 $-1 $665 $524 $421 #
attrib_edge_convexity-kcp-attrib $-1 -1 $675 $-1 $525 1 #
vertex $-1 -1 $-1 $525 $676 #
ellipse-curve $-1 -1 $-1 40 0 -20 0 0 1 30 0 0 1 I I #
convexity-sys-attrib $-1 -1 $-1 $526 $404 #
model_id-kcp-attrib $-1 -1 $-1 $-1 $528 1 1021382401 1021382401 1957036033 23 #
convexity-sys-attrib $-1 -1 $-1 $529 $406 #
point $-1 -1 $-1 -10 0 -20 #
coedge $-1 -1 $-1 $537 $536 $609 $670 forward $291 $-1 #
edge $677 -1 $-1 $630 -1.5707963267948966 $660 1.5707963267948966 $536 $678 forward @7 unknown #
coedge $-1 -1 $-1 $679 $538 $605 $662 reversed $627 $-1 #
coedge $-1 -1 $-1 $538 $679 $656 $680 forward $627 $-1 #
loop $-1 -1 $-1 $-1 $625 $541 #
attrib_edge_convexity-kcp-attrib $-1 -1 $681 $-1 $539 1 #
vertex $-1 -1 $-1 $539 $682 #
vertex $-1 -1 $-1 $624 $683 #
straight-curve $-1 -1 $-1 0 -40 20 1 0 0 I I #
model_id-kcp-attrib $-1 -1 $-1 $-1 $541 1 1021382401 1021382401 1957036033 11 #
face $684 -1 $-1 $-1 $611 $10 $-1 $685 reversed single #
plane-surface $-1 -1 $-1 0 -40 0 0 1 0 0 0 1 forward_v I I I I #
vertex $-1 -1 $-1 $562 $686 #
straight-curve $-1 -1 $-1 40 -40 20 0 0 1 I I #
face $-1 -1 $-1 $-1 $549 $41 $-1 $643 reversed single #
point $-1 -1 $-1 40 -40 -20 #
coedge $-1 -1 $-1 $552 $551 $566 $646 reversed $553 $-1 #
point $-1 -1 $-1 80 40 -20 #
vertex $-1 -1 $-1 $568 $687 #
straight-curve $-1 -1 $-1 40 40 20 0 0 1 I I #
cone-surface $-1 -1 $-1 40 0 20 0 0 1 0 40 0 1 I I 0 1 40 forward I I I I #
ellipse-curve $-1 -1 $-1 40 0 20 0 0 -1 0 40 0 1 I I #
straight-curve $-1 -1 $-1 80 40 0 0 0 -1 I I #
edge $-1 -1 $-1 $567 -80 $641 -40 $639 $583 forward @7 unknown #
point $-1 -1 $-1 80 40 20 #
edge $-1 -1 $-1 $582 -20 $585 20 $571 $688 forward @7 unknown #
straight-curve $-1 -1 $-1 -80 -40 0 0 0 -1 I I #
point $-1 -1 $-1 -80 -40 -20 #
point $-1 -1 $-1 -80 40 20 #
point $-1 -1 $-1 -80 40 -20 #
convexity-sys-attrib $-1 -1 $-1 $-1 $592 #
straight-curve $-1 -1 $-1 0 -5 10 -1 0 0 I I #
point $-1 -1 $-1 -10.41960108450192 -5 10 #
coedge $-1 -1 $-1 $602 $601 $626 $680 reversed $399 $-1 #
coedge $-1 -1 $-1 $664 $663 $602 $658 forward $665 $-1 #
edge $-1 -1 $-1 $659 -1.5707963267948966 $689 1.5707963267948966 $657 $690 forward @7 unknown #
vertex $-1 -1 $-1 $658 $691 #
vertex $-1 -1 $-1 $670 $692 #
straight-curve $-1 -1 $-1 40 40 0 0 0 -1 I I #
edge $693 -1 $-1 $666 -20 $629 20 $625 $694 reversed @7 unknown #
coedge $-1 -1 $-1 $657 $606 $610 $671 forward $665 $-1 #
coedge $-1 -1 $-1 $606 $657 $679 $695 forward $665 $-1 #
loop $-1 -1 $-1 $-1 $663 $421 #
vertex $-1 -1 $-1 $607 $696 #
ellipse-curve $-1 -1 $-1 -40 0 -20 0 0 -1 40 0 0 1 I I #
attrib_edge_convexity-kcp-attrib $-1 -1 $697 $-1 $608 1 #
ellipse-curve $-1 -1 $-1 -40 0 20 0 0 1 40 0 0 1 I I #
edge $698 -1 $-1 $660 -40 $613 40 $609 $699 forward @7 unknown #
edge $700 -1 $-1 $612 -40 $659 40 $610 $701 forward @7 unknown #
point $-1 -1 $-1 -40 40 -20 #
point $-1 -1 $-1 -40 40 20 #
model_id-kcp-attrib $-1 -1 $-1 $-1 $615 1 1021382401 1021382401 1957036033 30 #
convexity-sys-attrib $-1 -1 $-1 $616 $525 #
point $-1 -1 $-1 70 0 -20 #
attrib_edge_convexity-kcp-attrib $-1 -1 $702 $-1 $624 1 #
ellipse-curve $-1 -1 $-1 40 0 20 0 0 1 40 0 0 1 I I #
coedge $-1 -1 $-1 $626 $625 $664 $695 reversed $627 $-1 #
edge $703 -1 $-1 $689 -20 $630 20 $626 $704 reversed @7 unknown #
convexity-sys-attrib $-1 -1 $-1 $628 $539 #
point $-1 -1 $-1 -40 -40 20 #
point $-1 -1 $-1 40 -40 20 #
model_id-kcp-attrib $-1 -1 $-1 $-1 $633 1 1021382401 1021382401 1957036033 12 #
plane-surface $-1 -1 $-1 0 40 0 0 -1 0 0 0 -1 forward_v I I I I #
point $-1 -1 $-1 40 -40 20 #
point $-1 -1 $-1 40 40 20 #
straight-curve $-1 -1 $-1 -80 40 0 0 0 -1 I I #
vertex $-1 -1 $-1 $680 $705 #
ellipse-curve $-1 -1 $-1 40 0 -20 0 0 -1 40 0 0 1 I I #
point $-1 -1 $-1 40 40 -20 #
point $-1 -1 $-1 40 40 20 #
attrib_edge_convexity-kcp-attrib $-1 -1 $706 $-1 $662 3 #
straight-curve $-1 -1 $-1 -40 -40 0 0 0 -1 I I #
edge $707 -1 $-1 $689 -40 $666 40 $679 $708 forward @7 unknown #
point $-1 -1 $-1 -40 -40 -20 #
convexity-sys-attrib $-1 -1 $-1 $668 $608 #
attrib_edge_convexity-kcp-attrib $-1 -1 $709 $-1 $670 1 #
straight-curve $-1 -1 $-1 0 40 20 -1 0 0 I I #
model_id-kcp-attrib $-1 -1 $-1 $-1 $671 1 1021382401 1021382401 1957036033 14 #
straight-curve $-1 -1 $-1 0 40 -20 1 0 0 I I #
convexity-sys-attrib $-1 -1 $-1 $677 $624 #
attrib_edge_convexity-kcp-attrib $-1 -1 $710 $-1 $680 3 #
straight-curve $-1 -1 $-1 40 -40 0 0 0 -1 I I #
point $-1 -1 $-1 40 -40 -20 #
convexity-sys-attrib $-1 -1 $-1 $693 $662 #
model_id-kcp-attrib $-1 -1 $711 $-1 $695 1 1021382401 1021382401 1957036033 15 #
straight-curve $-1 -1 $-1 0 -40 -20 -1 0 0 I I #
convexity-sys-attrib $-1 -1 $-1 $698 $670 #
convexity-sys-attrib $-1 -1 $-1 $703 $680 #
attrib_edge_convexity-kcp-attrib $-1 -1 $712 $707 $695 1 #
convexity-sys-attrib $-1 -1 $-1 $711 $695 #
End-of-ACIS-data 