600 0 2 0           
24 FBMach with ACIS - 6.0.3 13 ACIS 6.0.3 NT 24 Sun Mar 31 23:25:57 2002 
1 9.9999999999999995e-007 1e-010 
body $2 $3 $-1 $4 #
bdycol-kcp $-1 1 1 $5 #
model_id-kcp-attrib $-1 $6 $-1 $0 1 1017635157 70 -330956799 1 #
lump $-1 $-1 $7 $0 #
transform $-1 1 0 0 0 1 0 0 0 1 0 0 0 1 rotate no_reflect no_shear #
body $8 $9 $-1 $10 #
aggregate_advspl_attribute-aggregate_geombuild_base_attribute-aggregate_body_attribute-attrib_HH-attrib $-1 $11 $2 $0 F #
shell $-1 $-1 $-1 $12 $-1 $3 #
model_id-kcp-attrib $-1 $-1 $-1 $5 1 1017635157 80 -330301438 1 #
lump $-1 $-1 $13 $5 #
transform $-1 1 0 0 0 1 0 0 0 1 2.1316282072803006e-014 1.7763568394002505e-014 0 1 no_rotate no_reflect no_shear #
aggregate_secndry_attribute-aggregate_geombuild_base_attribute-aggregate_body_attribute-attrib_HH-attrib $-1 $14 $6 $0 F #
face $15 $16 $17 $7 $-1 $18 forward single #
shell $-1 $-1 $-1 $19 $-1 $9 #
aggregate_sharped_attribute-aggregate_geombuild_base_attribute-aggregate_body_attribute-attrib_HH-attrib $-1 $20 $11 $0 F #
model_id-kcp-attrib $-1 $21 $-1 $12 1 1017635157 70 -330956799 2 #
face $22 $23 $24 $7 $-1 $25 forward single #
loop $-1 $-1 $26 $12 #
cone-surface $-1 15 15 0 0 0 1 15 0 0 1 I I 0 1 15 forward I I I I #
face $27 $28 $29 $13 $-1 $30 forward single #
aggregate_reblend_attribute-aggregate_geombuild_base_attribute-aggregate_body_attribute-attrib_HH-attrib $-1 $31 $14 $0 F #
attrib_hh_face_geombuild-attrib_entity_geombuild-individual_entity_attribute-attrib_HH-attrib $-1 $-1 $15 $12 F #
model_id-kcp-attrib $-1 $32 $-1 $16 1 1017635157 70 -330956799 3 #
face $33 $34 $35 $7 $-1 $36 forward single #
loop $-1 $-1 $37 $16 #
plane-surface $-1 0 0 25 0 0 1 1 0 0 forward_v I I I I #
coedge $38 $39 $40 $41 $42 reversed $17 $-1 #
model_id-kcp-attrib $-1 $-1 $-1 $19 1 1017635157 80 -330301438 2 #
face $43 $44 $45 $13 $-1 $46 reversed single #
loop $-1 $-1 $47 $19 #
plane-surface $-1 0 0 25 0 0 1 1 0 0 forward_v I I I I #
aggregate_isospline_attribute-aggregate_geombuild_base_attribute-aggregate_body_attribute-attrib_HH-attrib $-1 $48 $20 $0 F #
attrib_hh_face_geombuild-attrib_entity_geombuild-individual_entity_attribute-attrib_HH-attrib $-1 $-1 $22 $16 F #
model_id-kcp-attrib $-1 $49 $-1 $23 1 1017635157 70 -330956799 4 #
face $50 $51 $52 $7 $-1 $53 forward single #
loop $-1 $-1 $54 $23 #
plane-surface $-1 0 0 -25 0 0 -1 -1 0 0 forward_v I I I I #
coedge $55 $56 $57 $58 $59 forward $24 $-1 #
attrib_hh_coedge_geombuild-attrib_entity_geombuild-individual_entity_attribute-attrib_HH-attrib $-1 $-1 $-1 $26 F #
coedge $60 $61 $26 $62 $63 reversed $17 $-1 #
coedge $64 $26 $65 $66 $67 reversed $17 $-1 #
coedge $68 $69 $70 $26 $42 forward $71 $-1 #
edge $72 $73 -25 $74 25 $41 $75 forward 7 unknown #
model_id-kcp-attrib $-1 $-1 $-1 $28 1 1017635157 80 -330301438 3 #
face $-1 $76 $77 $13 $-1 $78 reversed single #
loop $-1 $-1 $79 $28 #
plane-surface $-1 0 0 -25 0 0 1 1 0 0 forward_v I I I I #
coedge $-1 $80 $81 $82 $83 forward $29 $-1 #
aggregate_analytic_solver_attribute-aggregate_geombuild_base_attribute-aggregate_body_attribute-attrib_HH-attrib $-1 $84 $31 $0 F #
attrib_hh_face_geombuild-attrib_entity_geombuild-individual_entity_attribute-attrib_HH-attrib $-1 $-1 $33 $23 F #
model_id-kcp-attrib $-1 $85 $-1 $34 1 1017635157 70 -330956799 5 #
face $86 $87 $88 $7 $-1 $89 forward single #
loop $-1 $-1 $90 $34 #
cone-surface $-1 -5.4903810567666298 20.490381056766601 0 0 0 1 7.4999999999999698 12.9903810567666 0 1 I I 0 1 15.000000000000002 forward I I I I #
coedge $91 $92 $62 $70 $93 forward $35 $-1 #
attrib_hh_coedge_geombuild-attrib_entity_geombuild-individual_entity_attribute-attrib_HH-attrib $-1 $-1 $-1 $37 F #
coedge $94 $95 $37 $96 $97 forward $24 $-1 #
coedge $98 $37 $66 $65 $99 forward $24 $-1 #
coedge $100 $90 $96 $37 $59 reversed $52 $-1 #
edge $101 $102 -0.5235987755983017 $103 6.3159354289786658e-017 $37 $104 forward 7 unknown #
attrib_hh_coedge_geombuild-attrib_entity_geombuild-individual_entity_attribute-attrib_HH-attrib $-1 $-1 $-1 $39 F #
coedge $105 $106 $39 $107 $108 reversed $17 $-1 #
coedge $109 $54 $107 $39 $63 forward $35 $-1 #
edge $110 $111 0 $73 0.52359877559830048 $62 $112 forward 7 unknown #
attrib_hh_coedge_geombuild-attrib_entity_geombuild-individual_entity_attribute-attrib_HH-attrib $-1 $-1 $-1 $40 F #
coedge $113 $40 $106 $57 $99 reversed $17 $-1 #
coedge $114 $57 $115 $40 $67 forward $24 $-1 #
edge $116 $74 -0.52359877559830048 $117 0 $66 $118 forward 7 unknown #
attrib_hh_coedge_geombuild-attrib_entity_geombuild-individual_entity_attribute-attrib_HH-attrib $-1 $-1 $-1 $41 F #
coedge $119 $120 $41 $115 $121 reversed $71 $-1 #
coedge $122 $41 $123 $54 $93 reversed $71 $-1 #
loop $-1 $-1 $41 $124 #
attrib_hh_edge_geombuild-attrib_entity_geombuild-individual_entity_attribute-attrib_HH-attrib $-1 $-1 $-1 $42 F #
vertex $125 $93 $126 #
vertex $127 $121 $128 #
straight-curve $-1 27.990381056766601 7.49999999999996 0 0 0 1 I I #
face $-1 $129 $130 $13 $-1 $131 reversed single #
loop $-1 $-1 $132 $44 #
plane-surface $-1 0 -35.49038105676658 0 0 1 0 0 0 1 forward_v I I I I #
coedge $-1 $133 $134 $135 $136 forward $45 $-1 #
coedge $-1 $137 $47 $138 $139 forward $29 $-1 #
coedge $-1 $47 $137 $140 $141 forward $29 $-1 #
coedge $-1 $142 $143 $47 $83 reversed $144 $-1 #
edge $-1 $145 -35.49038105676658 $146 35.49038105676658 $82 $147 forward 7 unknown #
aggregate_geombuild_attribute-aggregate_geombuild_base_attribute-aggregate_body_attribute-attrib_HH-attrib $-1 $148 $48 $0 #
attrib_hh_face_geombuild-attrib_entity_geombuild-individual_entity_attribute-attrib_HH-attrib $-1 $-1 $50 $34 F #
model_id-kcp-attrib $-1 $149 $-1 $51 1 1017635157 70 -330956799 6 #
face $150 $151 $152 $7 $-1 $153 forward single #
loop $-1 $-1 $154 $51 #
cone-surface $-1 -20.490381056766601 5.4903810567664904 0 0 0 1 -7.5000000000000604 12.9903810567665 0 1 I I 0 1 14.999999999999961 forward I I I I #
coedge $155 $156 $58 $106 $157 forward $52 $-1 #
attrib_hh_coedge_geombuild-attrib_entity_geombuild-individual_entity_attribute-attrib_HH-attrib $-1 $-1 $-1 $54 F #
coedge $158 $159 $54 $123 $160 forward $35 $-1 #
edge $161 $73 -2.0943951023931984 $162 3.2211270687791333e-015 $54 $163 forward 7 unknown #
attrib_hh_coedge_geombuild-attrib_entity_geombuild-individual_entity_attribute-attrib_HH-attrib $-1 $-1 $-1 $56 F #
coedge $164 $165 $56 $166 $167 forward $24 $-1 #
coedge $168 $58 $169 $56 $97 reversed $52 $-1 #
edge $170 $103 6.3159354289786658e-017 $171 2.0943951023932001 $56 $104 forward 7 unknown #
attrib_hh_coedge_geombuild-attrib_entity_geombuild-individual_entity_attribute-attrib_HH-attrib $-1 $-1 $-1 $57 F #
edge $172 $117 0 $102 2.0943951023931975 $57 $118 forward 7 unknown #
attrib_hh_coedge_geombuild-attrib_entity_geombuild-individual_entity_attribute-attrib_HH-attrib $-1 $-1 $-1 $58 F #
attrib_edge_convexity-kcp-attrib $-1 $173 $-1 $59 1 #
vertex $174 $59 $175 #
vertex $176 $59 $177 #
ellipse-curve $-1 -5.4903810567666298 20.490381056766601 25 0 0 1 7.4999999999999698 12.9903810567666 0 1 I I #
attrib_hh_coedge_geombuild-attrib_entity_geombuild-individual_entity_attribute-attrib_HH-attrib $-1 $-1 $-1 $61 F #
coedge $178 $65 $61 $90 $157 reversed $17 $-1 #
coedge $179 $62 $180 $61 $108 forward $35 $-1 #
edge $181 $182 -2.0943951023931975 $111 0 $107 $112 forward 7 unknown #
attrib_hh_coedge_geombuild-attrib_entity_geombuild-individual_entity_attribute-attrib_HH-attrib $-1 $-1 $-1 $62 F #
attrib_hh_edge_geombuild-attrib_entity_geombuild-individual_entity_attribute-attrib_HH-attrib $-1 $-1 $-1 $63 F #
vertex $183 $108 $184 #
ellipse-curve $-1 15 15 -25 0 0 -1 15 0 0 1 I I #
attrib_hh_coedge_geombuild-attrib_entity_geombuild-individual_entity_attribute-attrib_HH-attrib $-1 $-1 $-1 $65 F #
attrib_hh_coedge_geombuild-attrib_entity_geombuild-individual_entity_attribute-attrib_HH-attrib $-1 $-1 $-1 $66 F #
coedge $185 $66 $186 $69 $121 forward $24 $-1 #
attrib_edge_convexity-kcp-attrib $-1 $187 $-1 $67 1 #
vertex $188 $67 $189 #
ellipse-curve $-1 15 15 25 0 0 1 15 0 0 1 I I #
attrib_hh_coedge_geombuild-attrib_entity_geombuild-individual_entity_attribute-attrib_HH-attrib $-1 $-1 $-1 $69 F #
coedge $190 $191 $69 $186 $192 reversed $71 $-1 #
edge $193 $194 -3.2211270687791333e-015 $74 2.0943951023931984 $115 $195 forward 7 unknown #
attrib_hh_coedge_geombuild-attrib_entity_geombuild-individual_entity_attribute-attrib_HH-attrib $-1 $-1 $-1 $70 F #
coedge $196 $70 $191 $92 $160 reversed $71 $-1 #
face $197 $-1 $71 $7 $-1 $198 forward single #
attrib_hh_vertex_geombuild-attrib_entity_geombuild-individual_entity_attribute-attrib_HH-attrib $-1 $-1 $-1 $73 F #
point $-1 27.990381056766601 7.49999999999996 -25 #
attrib_hh_vertex_geombuild-attrib_entity_geombuild-individual_entity_attribute-attrib_HH-attrib $-1 $-1 $-1 $74 F #
point $-1 27.990381056766601 7.49999999999996 25 #
face $-1 $199 $200 $13 $-1 $201 reversed single #
loop $-1 $-1 $202 $76 #
plane-surface $-1 -35.490381056766587 0 0 1 0 0 0 0 -1 forward_v I I I I #
coedge $-1 $203 $140 $204 $205 forward $77 $-1 #
coedge $-1 $206 $79 $203 $207 forward $45 $-1 #
coedge $-1 $79 $206 $208 $209 forward $45 $-1 #
coedge $-1 $143 $142 $79 $136 reversed $144 $-1 #
edge $-1 $210 -35.49038105676658 $211 35.49038105676658 $135 $212 forward 7 unknown #
coedge $-1 $81 $80 $213 $214 forward $29 $-1 #
coedge $-1 $215 $216 $80 $139 reversed $200 $-1 #
edge $-1 $146 -35.490381056766587 $217 35.490381056766587 $138 $218 forward 7 unknown #
coedge $-1 $132 $219 $81 $141 reversed $77 $-1 #
edge $-1 $220 -35.490381056766587 $145 35.490381056766587 $140 $221 forward 7 unknown #
coedge $-1 $135 $82 $219 $222 forward $144 $-1 #
coedge $-1 $82 $135 $215 $223 reversed $144 $-1 #
loop $-1 $-1 $142 $199 #
vertex $-1 $83 $224 #
vertex $-1 $83 $225 #
straight-curve $-1 35.490381056766587 0 25 0 1 0 I I #
aggregate_stitch_attribute-aggregate_stitch_base_attribute-aggregate_body_attribute-attrib_HH-attrib $-1 $226 $84 $0 F #
attrib_hh_face_geombuild-attrib_entity_geombuild-individual_entity_attribute-attrib_HH-attrib $-1 $-1 $86 $51 F #
model_id-kcp-attrib $-1 $227 $-1 $87 1 1017635157 70 -330956799 7 #
face $228 $124 $229 $7 $-1 $230 forward single #
loop $-1 $-1 $231 $87 #
cone-surface $-1 -15.000000000000099 -14.999999999999901 0 0 0 1 -15 1.04744440165294e-013 0 1 I I 0 1 15 forward I I I I #
coedge $232 $233 $166 $169 $234 forward $88 $-1 #
attrib_hh_coedge_geombuild-attrib_entity_geombuild-individual_entity_attribute-attrib_HH-attrib $-1 $-1 $-1 $90 F #
coedge $235 $236 $90 $180 $237 reversed $52 $-1 #
edge $238 $102 -25 $182 25 $90 $239 forward 7 unknown #
attrib_hh_coedge_geombuild-attrib_entity_geombuild-individual_entity_attribute-attrib_HH-attrib $-1 $-1 $-1 $92 F #
coedge $240 $241 $92 $242 $243 forward $35 $-1 #
edge $244 $162 3.2211270687791333e-015 $245 0.52359877559830337 $92 $163 forward 7 unknown #
attrib_hh_edge_geombuild-attrib_entity_geombuild-individual_entity_attribute-attrib_HH-attrib $-1 $-1 $-1 $93 F #
vertex $246 $93 $247 #
ellipse-curve $-1 20.490381056766601 -5.4903810567666298 -25 0 0 -1 7.4999999999999698 -12.9903810567666 0 1 I I #
attrib_hh_coedge_geombuild-attrib_entity_geombuild-individual_entity_attribute-attrib_HH-attrib $-1 $-1 $-1 $95 F #
coedge $248 $249 $95 $250 $251 forward $24 $-1 #
coedge $252 $154 $250 $95 $167 reversed $88 $-1 #
edge $253 $171 -0.52359877559830503 $254 1.9579399829833939e-015 $95 $255 forward 7 unknown #
attrib_hh_coedge_geombuild-attrib_entity_geombuild-individual_entity_attribute-attrib_HH-attrib $-1 $-1 $-1 $96 F #
coedge $256 $96 $236 $154 $234 reversed $52 $-1 #
attrib_edge_convexity-kcp-attrib $-1 $257 $-1 $97 1 #
vertex $258 $167 $259 #
attrib_edge_convexity-kcp-attrib $-1 $260 $-1 $99 1 #
convexity-sys-attrib $-1 $261 $101 $59 #
attrib_hh_vertex_geombuild-attrib_entity_geombuild-individual_entity_attribute-attrib_HH-attrib $-1 $-1 $-1 $102 F #
point $-1 7.49999999999996 27.990381056766601 25 #
attrib_hh_vertex_geombuild-attrib_entity_geombuild-individual_entity_attribute-attrib_HH-attrib $-1 $-1 $-1 $103 F #
point $-1 2.00961894323334 33.480762113533203 25 #
attrib_hh_coedge_geombuild-attrib_entity_geombuild-individual_entity_attribute-attrib_HH-attrib $-1 $-1 $-1 $106 F #
attrib_hh_coedge_geombuild-attrib_entity_geombuild-individual_entity_attribute-attrib_HH-attrib $-1 $-1 $-1 $107 F #
coedge $262 $107 $263 $156 $237 forward $35 $-1 #
attrib_hh_edge_geombuild-attrib_entity_geombuild-individual_entity_attribute-attrib_HH-attrib $-1 $-1 $-1 $108 F #
vertex $264 $237 $265 #
attrib_hh_vertex_geombuild-attrib_entity_geombuild-individual_entity_attribute-attrib_HH-attrib $-1 $-1 $-1 $111 F #
point $-1 30 15 -25 #
attrib_hh_coedge_geombuild-attrib_entity_geombuild-individual_entity_attribute-attrib_HH-attrib $-1 $-1 $-1 $115 F #
coedge $266 $115 $267 $120 $192 forward $24 $-1 #
convexity-sys-attrib $-1 $268 $116 $67 #
attrib_hh_vertex_geombuild-attrib_entity_geombuild-individual_entity_attribute-attrib_HH-attrib $-1 $-1 $-1 $117 F #
point $-1 30 15 25 #
attrib_hh_coedge_geombuild-attrib_entity_geombuild-individual_entity_attribute-attrib_HH-attrib $-1 $-1 $-1 $120 F #
coedge $269 $123 $120 $270 $271 forward $71 $-1 #
edge $272 $273 -0.52359877559830337 $194 -3.2211270687791333e-015 $186 $195 forward 7 unknown #
attrib_edge_convexity-kcp-attrib $-1 $274 $-1 $121 1 #
vertex $275 $192 $276 #
ellipse-curve $-1 20.490381056766601 -5.4903810567666298 25 0 0 1 7.4999999999999698 -12.9903810567666 0 1 I I #
attrib_hh_coedge_geombuild-attrib_entity_geombuild-individual_entity_attribute-attrib_HH-attrib $-1 $-1 $-1 $123 F #
model_id-kcp-attrib $-1 $277 $-1 $124 1 1017635157 70 -330956799 9 #
cone-surface $-1 20.490381056766601 -5.4903810567666298 0 0 0 1 7.4999999999999698 -12.9903810567666 0 1 I I 0 1 15.000000000000002 forward I I I I #
face $-1 $-1 $144 $13 $-1 $278 reversed single #
loop $-1 $-1 $215 $129 #
plane-surface $-1 0 35.49038105676658 0 0 -1 0 0 0 -1 forward_v I I I I #
coedge $-1 $279 $213 $216 $280 forward $130 $-1 #
coedge $-1 $219 $132 $133 $207 reversed $77 $-1 #
coedge $-1 $213 $279 $132 $205 reversed $130 $-1 #
edge $-1 $220 -25 $281 25 $204 $282 forward 7 unknown #
coedge $-1 $134 $133 $279 $283 forward $45 $-1 #
edge $-1 $211 -35.490381056766587 $281 35.490381056766587 $203 $284 forward 7 unknown #
coedge $-1 $216 $215 $134 $209 reversed $200 $-1 #
edge $-1 $285 -35.490381056766587 $210 35.490381056766587 $208 $286 forward 7 unknown #
vertex $-1 $136 $287 #
vertex $-1 $222 $288 #
straight-curve $-1 35.490381056766587 0 -25 0 -1 0 I I #
coedge $-1 $202 $204 $137 $214 reversed $130 $-1 #
edge $-1 $217 -35.49038105676658 $220 35.49038105676658 $213 $289 forward 7 unknown #
coedge $-1 $208 $138 $143 $223 forward $200 $-1 #
coedge $-1 $138 $208 $202 $280 reversed $200 $-1 #
vertex $-1 $139 $290 #
straight-curve $-1 0 35.49038105676658 25 -1 0 0 I I #
coedge $-1 $140 $203 $142 $222 reversed $77 $-1 #
vertex $-1 $214 $291 #
straight-curve $-1 0 -35.49038105676658 25 1 0 0 I I #
edge $-1 $145 -25 $211 25 $142 $292 forward 7 unknown #
edge $-1 $146 -25 $210 25 $143 $293 forward 7 unknown #
point $-1 35.490381056766587 -35.49038105676658 25 #
point $-1 35.490381056766587 35.49038105676658 25 #
aggregate_simgeom_attribute-aggregate_simgeom_base_attribute-aggregate_body_attribute-attrib_HH-attrib $-1 $-1 $148 $0 F #
attrib_hh_face_geombuild-attrib_entity_geombuild-individual_entity_attribute-attrib_HH-attrib $-1 $-1 $150 $87 F #
model_id-kcp-attrib $-1 $294 $-1 $151 1 1017635157 70 -330956799 8 #
loop $-1 $-1 $295 $151 #
cone-surface $-1 5.4903810567664904 -20.490381056766601 0 0 0 1 -7.5000000000000604 -12.9903810567665 0 1 I I 0 1 14.999999999999961 forward I I I I #
coedge $296 $297 $298 $299 $300 forward $152 $-1 #
attrib_hh_coedge_geombuild-attrib_entity_geombuild-individual_entity_attribute-attrib_HH-attrib $-1 $-1 $-1 $154 F #
coedge $301 $302 $154 $303 $304 reversed $88 $-1 #
edge $305 $171 -25 $306 25 $154 $307 forward 7 unknown #
attrib_hh_coedge_geombuild-attrib_entity_geombuild-individual_entity_attribute-attrib_HH-attrib $-1 $-1 $-1 $156 F #
coedge $308 $169 $156 $263 $309 reversed $52 $-1 #
edge $310 $311 -6.3159354289786658e-017 $182 0.5235987755983017 $180 $312 forward 7 unknown #
attrib_hh_edge_geombuild-attrib_entity_geombuild-individual_entity_attribute-attrib_HH-attrib $-1 $-1 $-1 $157 F #
straight-curve $-1 7.49999999999996 27.990381056766601 0 0 0 -1 I I #
attrib_hh_coedge_geombuild-attrib_entity_geombuild-individual_entity_attribute-attrib_HH-attrib $-1 $-1 $-1 $159 F #
coedge $313 $314 $159 $315 $316 forward $35 $-1 #
coedge $317 $270 $315 $159 $243 reversed $229 $-1 #
edge $318 $245 -2.0943951023932019 $319 -3.3474457773586917e-015 $159 $320 forward 7 unknown #
attrib_hh_edge_geombuild-attrib_entity_geombuild-individual_entity_attribute-attrib_HH-attrib $-1 $-1 $-1 $160 F #
vertex $321 $160 $322 #
attrib_hh_vertex_geombuild-attrib_entity_geombuild-individual_entity_attribute-attrib_HH-attrib $-1 $-1 $-1 $162 F #
point $-1 27.990381056766498 -18.480762113533199 -25 #
attrib_hh_coedge_geombuild-attrib_entity_geombuild-individual_entity_attribute-attrib_HH-attrib $-1 $-1 $-1 $165 F #
coedge $323 $324 $165 $298 $325 forward $24 $-1 #
coedge $326 $166 $299 $165 $251 reversed $88 $-1 #
edge $327 $254 1.9579399829833939e-015 $328 2.0943951023931753 $165 $255 forward 7 unknown #
attrib_hh_coedge_geombuild-attrib_entity_geombuild-individual_entity_attribute-attrib_HH-attrib $-1 $-1 $-1 $166 F #
attrib_edge_convexity-kcp-attrib $-1 $329 $-1 $167 1 #
vertex $330 $167 $331 #
ellipse-curve $-1 -20.490381056766601 5.4903810567664904 25 0 0 1 -7.5000000000000604 12.9903810567665 0 1 I I #
attrib_hh_coedge_geombuild-attrib_entity_geombuild-individual_entity_attribute-attrib_HH-attrib $-1 $-1 $-1 $169 F #
convexity-sys-attrib $-1 $332 $170 $97 #
attrib_hh_vertex_geombuild-attrib_entity_geombuild-individual_entity_attribute-attrib_HH-attrib $-1 $-1 $-1 $171 F #
point $-1 -20.490381056766601 20.490381056766498 25 #
convexity-sys-attrib $-1 $333 $172 $99 #
attrib_hh_edge_geombuild-attrib_entity_geombuild-individual_entity_attribute-attrib_HH-attrib $-1 $-1 $173 $59 F #
attrib_hh_coedge_geombuild-attrib_entity_geombuild-individual_entity_attribute-attrib_HH-attrib $-1 $-1 $-1 $180 F #
coedge $334 $180 $303 $236 $309 forward $35 $-1 #
attrib_hh_vertex_geombuild-attrib_entity_geombuild-individual_entity_attribute-attrib_HH-attrib $-1 $-1 $-1 $182 F #
point $-1 7.49999999999996 27.990381056766601 -25 #
attrib_hh_coedge_geombuild-attrib_entity_geombuild-individual_entity_attribute-attrib_HH-attrib $-1 $-1 $-1 $186 F #
coedge $335 $186 $336 $337 $338 forward $24 $-1 #
attrib_hh_edge_geombuild-attrib_entity_geombuild-individual_entity_attribute-attrib_HH-attrib $-1 $-1 $187 $67 F #
attrib_hh_coedge_geombuild-attrib_entity_geombuild-individual_entity_attribute-attrib_HH-attrib $-1 $-1 $-1 $191 F #
coedge $339 $337 $242 $191 $271 reversed $229 $-1 #
edge $340 $273 -25 $245 25 $191 $341 forward 7 unknown #
attrib_edge_convexity-kcp-attrib $-1 $342 $-1 $192 1 #
vertex $343 $192 $344 #
convexity-sys-attrib $-1 $345 $193 $121 #
attrib_hh_vertex_geombuild-attrib_entity_geombuild-individual_entity_attribute-attrib_HH-attrib $-1 $-1 $-1 $194 F #
point $-1 27.990381056766498 -18.480762113533199 25 #
attrib_hh_face_geombuild-attrib_entity_geombuild-individual_entity_attribute-attrib_HH-attrib $-1 $-1 $197 $124 F #
plane-surface $-1 35.490381056766587 0 0 -1 0 0 0 0 1 forward_v I I I I #
coedge $-1 $204 $202 $206 $283 reversed $130 $-1 #
edge $-1 $217 -25 $285 25 $216 $346 forward 7 unknown #
vertex $-1 $283 $347 #
straight-curve $-1 -35.490381056766587 -35.49038105676658 0 0 0 -1 I I #
edge $-1 $281 -35.49038105676658 $285 35.49038105676658 $279 $348 forward 7 unknown #
straight-curve $-1 0 -35.49038105676658 -25 -1 0 0 I I #
vertex $-1 $209 $349 #
straight-curve $-1 0 35.49038105676658 -25 1 0 0 I I #
point $-1 35.490381056766587 35.49038105676658 -25 #
point $-1 35.490381056766587 -35.49038105676658 -25 #
straight-curve $-1 -35.490381056766587 0 25 0 -1 0 I I #
point $-1 -35.490381056766587 35.49038105676658 25 #
point $-1 -35.490381056766587 -35.49038105676658 25 #
straight-curve $-1 35.490381056766587 -35.49038105676658 0 0 0 -1 I I #
straight-curve $-1 35.490381056766587 35.49038105676658 0 0 0 -1 I I #
attrib_hh_face_geombuild-attrib_entity_geombuild-individual_entity_attribute-attrib_HH-attrib $-1 $-1 $228 $151 F #
coedge $350 $315 $351 $352 $353 forward $229 $-1 #
attrib_hh_coedge_geombuild-attrib_entity_geombuild-individual_entity_attribute-attrib_HH-attrib $-1 $-1 $-1 $231 F #
coedge $354 $355 $231 $356 $357 reversed $152 $-1 #
coedge $358 $231 $359 $249 $325 reversed $152 $-1 #
coedge $360 $250 $302 $231 $300 reversed $88 $-1 #
edge $361 $328 -25 $362 25 $231 $363 forward 7 unknown #
attrib_hh_coedge_geombuild-attrib_entity_geombuild-individual_entity_attribute-attrib_HH-attrib $-1 $-1 $-1 $233 F #
coedge $364 $299 $233 $365 $366 reversed $88 $-1 #
coedge $367 $263 $365 $233 $304 forward $35 $-1 #
edge $368 $369 -1.9579399829833939e-015 $306 0.52359877559830503 $303 $370 forward 7 unknown #
attrib_hh_edge_geombuild-attrib_entity_geombuild-individual_entity_attribute-attrib_HH-attrib $-1 $-1 $-1 $234 F #
vertex $371 $304 $372 #
straight-curve $-1 -20.490381056766601 20.490381056766498 0 0 0 -1 I I #
attrib_hh_coedge_geombuild-attrib_entity_geombuild-individual_entity_attribute-attrib_HH-attrib $-1 $-1 $-1 $236 F #
edge $373 $306 -2.0943951023932001 $311 -6.3159354289786658e-017 $263 $312 forward 7 unknown #
attrib_hh_edge_geombuild-attrib_entity_geombuild-individual_entity_attribute-attrib_HH-attrib $-1 $-1 $-1 $237 F #
vertex $374 $309 $375 #
ellipse-curve $-1 -5.4903810567666298 20.490381056766601 -25 0 0 -1 7.4999999999999698 12.9903810567666 0 1 I I #
attrib_hh_coedge_geombuild-attrib_entity_geombuild-individual_entity_attribute-attrib_HH-attrib $-1 $-1 $-1 $241 F #
coedge $376 $356 $241 $355 $377 forward $35 $-1 #
coedge $378 $242 $295 $241 $316 reversed $229 $-1 #
edge $379 $319 -3.3474457773586917e-015 $380 0.52359877559830104 $241 $320 forward 7 unknown #
attrib_hh_coedge_geombuild-attrib_entity_geombuild-individual_entity_attribute-attrib_HH-attrib $-1 $-1 $-1 $242 F #
attrib_hh_edge_geombuild-attrib_entity_geombuild-individual_entity_attribute-attrib_HH-attrib $-1 $-1 $-1 $243 F #
vertex $381 $243 $382 #
ellipse-curve $-1 5.4903810567664904 -20.490381056766601 -25 0 0 -1 -7.5000000000000604 -12.9903810567665 0 1 I I #
attrib_hh_vertex_geombuild-attrib_entity_geombuild-individual_entity_attribute-attrib_HH-attrib $-1 $-1 $-1 $245 F #
point $-1 20.490381056766498 -20.490381056766601 -25 #
attrib_hh_coedge_geombuild-attrib_entity_geombuild-individual_entity_attribute-attrib_HH-attrib $-1 $-1 $-1 $249 F #
coedge $383 $336 $249 $359 $384 forward $24 $-1 #
edge $385 $328 -0.5235987755982815 $386 2.3280668796531482e-016 $249 $387 forward 7 unknown #
attrib_hh_coedge_geombuild-attrib_entity_geombuild-individual_entity_attribute-attrib_HH-attrib $-1 $-1 $-1 $250 F #
attrib_edge_convexity-kcp-attrib $-1 $388 $-1 $251 1 #
vertex $389 $325 $390 #
convexity-sys-attrib $-1 $391 $253 $167 #
attrib_hh_vertex_geombuild-attrib_entity_geombuild-individual_entity_attribute-attrib_HH-attrib $-1 $-1 $-1 $254 F #
point $-1 -27.990381056766701 18.480762113533 25 #
attrib_hh_edge_geombuild-attrib_entity_geombuild-individual_entity_attribute-attrib_HH-attrib $-1 $-1 $257 $97 F #
attrib_hh_edge_geombuild-attrib_entity_geombuild-individual_entity_attribute-attrib_HH-attrib $-1 $-1 $260 $99 F #
attrib_hh_coedge_geombuild-attrib_entity_geombuild-individual_entity_attribute-attrib_HH-attrib $-1 $-1 $-1 $263 F #
attrib_hh_coedge_geombuild-attrib_entity_geombuild-individual_entity_attribute-attrib_HH-attrib $-1 $-1 $-1 $267 F #
coedge $392 $267 $324 $351 $393 forward $24 $-1 #
coedge $394 $351 $270 $267 $338 reversed $229 $-1 #
edge $395 $396 3.3474457773586917e-015 $273 2.0943951023932019 $267 $397 forward 7 unknown #
attrib_hh_coedge_geombuild-attrib_entity_geombuild-individual_entity_attribute-attrib_HH-attrib $-1 $-1 $-1 $270 F #
attrib_hh_edge_geombuild-attrib_entity_geombuild-individual_entity_attribute-attrib_HH-attrib $-1 $-1 $-1 $271 F #
straight-curve $-1 20.490381056766498 -20.490381056766601 0 0 0 -1 I I #
convexity-sys-attrib $-1 $398 $272 $192 #
attrib_hh_vertex_geombuild-attrib_entity_geombuild-individual_entity_attribute-attrib_HH-attrib $-1 $-1 $-1 $273 F #
point $-1 20.490381056766498 -20.490381056766601 25 #
attrib_hh_edge_geombuild-attrib_entity_geombuild-individual_entity_attribute-attrib_HH-attrib $-1 $-1 $274 $121 F #
straight-curve $-1 -35.490381056766587 35.49038105676658 0 0 0 -1 I I #
point $-1 -35.490381056766587 -35.49038105676658 -25 #
straight-curve $-1 -35.490381056766587 0 -25 0 1 0 I I #
point $-1 -35.490381056766587 35.49038105676658 -25 #
attrib_hh_coedge_geombuild-attrib_entity_geombuild-individual_entity_attribute-attrib_HH-attrib $-1 $-1 $-1 $295 F #
coedge $399 $295 $337 $336 $393 reversed $229 $-1 #
coedge $400 $359 $355 $295 $353 reversed $152 $-1 #
edge $401 $402 -25 $380 25 $295 $403 forward 7 unknown #
attrib_hh_coedge_geombuild-attrib_entity_geombuild-individual_entity_attribute-attrib_HH-attrib $-1 $-1 $-1 $297 F #
coedge $404 $352 $297 $314 $377 reversed $152 $-1 #
coedge $405 $365 $314 $297 $357 forward $35 $-1 #
edge $406 $407 -2.3280668796531482e-016 $362 0.5235987755982815 $356 $408 forward 7 unknown #
attrib_hh_coedge_geombuild-attrib_entity_geombuild-individual_entity_attribute-attrib_HH-attrib $-1 $-1 $-1 $298 F #
coedge $409 $298 $352 $324 $384 reversed $152 $-1 #
attrib_hh_coedge_geombuild-attrib_entity_geombuild-individual_entity_attribute-attrib_HH-attrib $-1 $-1 $-1 $299 F #
attrib_hh_edge_geombuild-attrib_entity_geombuild-individual_entity_attribute-attrib_HH-attrib $-1 $-1 $-1 $300 F #
vertex $410 $357 $411 #
straight-curve $-1 -27.9903810567668 -7.5000000000000098 0 0 0 -1 I I #
attrib_hh_coedge_geombuild-attrib_entity_geombuild-individual_entity_attribute-attrib_HH-attrib $-1 $-1 $-1 $302 F #
coedge $412 $303 $356 $302 $366 forward $35 $-1 #
edge $413 $362 -2.0943951023931753 $369 -1.9579399829833939e-015 $365 $370 forward 7 unknown #
attrib_hh_coedge_geombuild-attrib_entity_geombuild-individual_entity_attribute-attrib_HH-attrib $-1 $-1 $-1 $303 F #
attrib_hh_edge_geombuild-attrib_entity_geombuild-individual_entity_attribute-attrib_HH-attrib $-1 $-1 $-1 $304 F #
vertex $414 $366 $415 #
ellipse-curve $-1 -20.490381056766601 5.4903810567664904 -25 0 0 -1 -7.5000000000000604 12.9903810567665 0 1 I I #
attrib_hh_vertex_geombuild-attrib_entity_geombuild-individual_entity_attribute-attrib_HH-attrib $-1 $-1 $-1 $306 F #
point $-1 -20.490381056766601 20.490381056766498 -25 #
attrib_hh_edge_geombuild-attrib_entity_geombuild-individual_entity_attribute-attrib_HH-attrib $-1 $-1 $-1 $309 F #
attrib_hh_vertex_geombuild-attrib_entity_geombuild-individual_entity_attribute-attrib_HH-attrib $-1 $-1 $-1 $311 F #
point $-1 2.00961894323334 33.480762113533203 -25 #
attrib_hh_coedge_geombuild-attrib_entity_geombuild-individual_entity_attribute-attrib_HH-attrib $-1 $-1 $-1 $314 F #
edge $416 $380 -2.0943951023931984 $407 -2.3280668796531482e-016 $314 $408 forward 7 unknown #
attrib_hh_coedge_geombuild-attrib_entity_geombuild-individual_entity_attribute-attrib_HH-attrib $-1 $-1 $-1 $315 F #
attrib_hh_edge_geombuild-attrib_entity_geombuild-individual_entity_attribute-attrib_HH-attrib $-1 $-1 $-1 $316 F #
vertex $417 $316 $418 #
attrib_hh_vertex_geombuild-attrib_entity_geombuild-individual_entity_attribute-attrib_HH-attrib $-1 $-1 $-1 $319 F #
point $-1 -2.00961894323357 -33.480762113533203 -25 #
attrib_hh_coedge_geombuild-attrib_entity_geombuild-individual_entity_attribute-attrib_HH-attrib $-1 $-1 $-1 $324 F #
edge $419 $386 2.3280668796531482e-016 $402 2.0943951023931984 $324 $387 forward 7 unknown #
attrib_edge_convexity-kcp-attrib $-1 $420 $-1 $325 1 #
vertex $421 $325 $422 #
ellipse-curve $-1 -15.000000000000099 -14.999999999999901 25 0 0 1 -15 1.04744440165294e-013 0 1 I I #
convexity-sys-attrib $-1 $423 $327 $251 #
attrib_hh_vertex_geombuild-attrib_entity_geombuild-individual_entity_attribute-attrib_HH-attrib $-1 $-1 $-1 $328 F #
point $-1 -27.9903810567668 -7.5000000000000098 25 #
attrib_hh_edge_geombuild-attrib_entity_geombuild-individual_entity_attribute-attrib_HH-attrib $-1 $-1 $329 $167 F #
attrib_hh_coedge_geombuild-attrib_entity_geombuild-individual_entity_attribute-attrib_HH-attrib $-1 $-1 $-1 $336 F #
edge $424 $402 -0.52359877559830104 $396 3.3474457773586917e-015 $336 $397 forward 7 unknown #
attrib_hh_coedge_geombuild-attrib_entity_geombuild-individual_entity_attribute-attrib_HH-attrib $-1 $-1 $-1 $337 F #
attrib_edge_convexity-kcp-attrib $-1 $425 $-1 $338 1 #
vertex $426 $393 $427 #
ellipse-curve $-1 5.4903810567664904 -20.490381056766601 25 0 0 1 -7.5000000000000604 -12.9903810567665 0 1 I I #
attrib_hh_edge_geombuild-attrib_entity_geombuild-individual_entity_attribute-attrib_HH-attrib $-1 $-1 $342 $192 F #
attrib_hh_coedge_geombuild-attrib_entity_geombuild-individual_entity_attribute-attrib_HH-attrib $-1 $-1 $-1 $351 F #
attrib_hh_coedge_geombuild-attrib_entity_geombuild-individual_entity_attribute-attrib_HH-attrib $-1 $-1 $-1 $352 F #
attrib_hh_edge_geombuild-attrib_entity_geombuild-individual_entity_attribute-attrib_HH-attrib $-1 $-1 $-1 $353 F #
vertex $428 $393 $429 #
straight-curve $-1 -7.5000000000001599 -27.990381056766498 0 0 0 -1 I I #
attrib_hh_coedge_geombuild-attrib_entity_geombuild-individual_entity_attribute-attrib_HH-attrib $-1 $-1 $-1 $355 F #
attrib_hh_coedge_geombuild-attrib_entity_geombuild-individual_entity_attribute-attrib_HH-attrib $-1 $-1 $-1 $356 F #
attrib_hh_edge_geombuild-attrib_entity_geombuild-individual_entity_attribute-attrib_HH-attrib $-1 $-1 $-1 $357 F #
vertex $430 $377 $431 #
ellipse-curve $-1 -15.000000000000099 -14.999999999999901 -25 0 0 -1 -15 1.04744440165294e-013 0 1 I I #
attrib_hh_coedge_geombuild-attrib_entity_geombuild-individual_entity_attribute-attrib_HH-attrib $-1 $-1 $-1 $359 F #
attrib_hh_vertex_geombuild-attrib_entity_geombuild-individual_entity_attribute-attrib_HH-attrib $-1 $-1 $-1 $362 F #
point $-1 -27.9903810567668 -7.5000000000000098 -25 #
attrib_hh_coedge_geombuild-attrib_entity_geombuild-individual_entity_attribute-attrib_HH-attrib $-1 $-1 $-1 $365 F #
attrib_hh_edge_geombuild-attrib_entity_geombuild-individual_entity_attribute-attrib_HH-attrib $-1 $-1 $-1 $366 F #
attrib_hh_vertex_geombuild-attrib_entity_geombuild-individual_entity_attribute-attrib_HH-attrib $-1 $-1 $-1 $369 F #
point $-1 -27.990381056766701 18.480762113533 -25 #
attrib_hh_edge_geombuild-attrib_entity_geombuild-individual_entity_attribute-attrib_HH-attrib $-1 $-1 $-1 $377 F #
attrib_hh_vertex_geombuild-attrib_entity_geombuild-individual_entity_attribute-attrib_HH-attrib $-1 $-1 $-1 $380 F #
point $-1 -7.5000000000001599 -27.990381056766498 -25 #
attrib_edge_convexity-kcp-attrib $-1 $432 $-1 $384 1 #
convexity-sys-attrib $-1 $433 $385 $325 #
attrib_hh_vertex_geombuild-attrib_entity_geombuild-individual_entity_attribute-attrib_HH-attrib $-1 $-1 $-1 $386 F #
point $-1 -30.000000000000099 -14.999999999999799 25 #
attrib_hh_edge_geombuild-attrib_entity_geombuild-individual_entity_attribute-attrib_HH-attrib $-1 $-1 $388 $251 F #
attrib_edge_convexity-kcp-attrib $-1 $434 $-1 $393 1 #
convexity-sys-attrib $-1 $435 $395 $338 #
attrib_hh_vertex_geombuild-attrib_entity_geombuild-individual_entity_attribute-attrib_HH-attrib $-1 $-1 $-1 $396 F #
point $-1 -2.00961894323357 -33.480762113533203 25 #
attrib_hh_vertex_geombuild-attrib_entity_geombuild-individual_entity_attribute-attrib_HH-attrib $-1 $-1 $-1 $402 F #
point $-1 -7.5000000000001599 -27.990381056766498 25 #
attrib_hh_vertex_geombuild-attrib_entity_geombuild-individual_entity_attribute-attrib_HH-attrib $-1 $-1 $-1 $407 F #
point $-1 -30.000000000000099 -14.999999999999799 -25 #
convexity-sys-attrib $-1 $436 $419 $384 #
attrib_hh_edge_geombuild-attrib_entity_geombuild-individual_entity_attribute-attrib_HH-attrib $-1 $-1 $420 $325 F #
convexity-sys-attrib $-1 $437 $424 $393 #
attrib_hh_edge_geombuild-attrib_entity_geombuild-individual_entity_attribute-attrib_HH-attrib $-1 $-1 $425 $338 F #
attrib_hh_edge_geombuild-attrib_entity_geombuild-individual_entity_attribute-attrib_HH-attrib $-1 $-1 $432 $384 F #
attrib_hh_edge_geombuild-attrib_entity_geombuild-individual_entity_attribute-attrib_HH-attrib $-1 $-1 $434 $393 F #
End-of-ACIS-data 