105 183 1 0                             
body $-1 $1 $-1 $-1 #
lump $-1 $-1 $2 $0 #
shell $-1 $-1 $-1 $3 $1 #
face $-1 $4 $5 $2 $-1 $6 forward single #
face $-1 $7 $8 $2 $-1 $9 forward single #
loop $-1 $-1 $10 $3 #
cone-surface $-1 15 15 0 0 0 1 15 0 0 1 0 1 0 #
face $-1 $11 $12 $2 $-1 $13 forward single #
loop $-1 $-1 $14 $4 #
plane-surface $-1 0 0 25 0 0 1 1 0 0 0 #
coedge $-1 $15 $16 $17 $18 1 $5 $-1 #
face $-1 $19 $20 $2 $-1 $21 forward single #
loop $-1 $-1 $22 $7 #
plane-surface $-1 0 0 -25 0 0 -1 -1 0 0 0 #
coedge $-1 $23 $24 $25 $26 0 $8 $-1 #
coedge $-1 $27 $10 $28 $29 1 $5 $-1 #
coedge $-1 $10 $30 $31 $32 1 $5 $-1 #
coedge $-1 $33 $34 $10 $18 0 $35 $-1 #
edge $-1 $36 $37 $17 $38 0 #
face $-1 $39 $40 $2 $-1 $41 forward single #
loop $-1 $-1 $42 $11 #
cone-surface $-1 -5.49038105676663 20.4903810567666 0 0 0 1 7.49999999999997 12.9903810567666 0 1 0 1 0 #
coedge $-1 $43 $28 $34 $44 0 $12 $-1 #
coedge $-1 $45 $14 $46 $47 0 $8 $-1 #
coedge $-1 $14 $31 $30 $48 0 $8 $-1 #
coedge $-1 $42 $46 $14 $26 1 $20 $-1 #
edge $-1 $49 $50 $14 $51 0 #
coedge $-1 $52 $15 $53 $54 1 $5 $-1 #
coedge $-1 $22 $53 $15 $29 0 $12 $-1 #
edge $-1 $55 $36 $28 $56 0 #
coedge $-1 $16 $52 $24 $48 1 $5 $-1 #
coedge $-1 $24 $57 $16 $32 0 $8 $-1 #
edge $-1 $37 $58 $31 $59 0 #
coedge $-1 $60 $17 $57 $61 1 $35 $-1 #
coedge $-1 $17 $62 $22 $44 1 $35 $-1 #
loop $-1 $-1 $17 $63 #
vertex $-1 $44 $64 #
vertex $-1 $61 $65 #
straight-curve $-1 27.9903810567666 7.49999999999996 0 0 0 1 #
face $-1 $66 $67 $2 $-1 $68 forward single #
loop $-1 $-1 $69 $19 #
cone-surface $-1 -20.4903810567666 5.49038105676649 0 0 0 1 -7.50000000000006 12.9903810567665 0 1 0 1 0 #
coedge $-1 $70 $25 $52 $71 0 $20 $-1 #
coedge $-1 $72 $22 $62 $73 0 $12 $-1 #
edge $-1 $36 $74 $22 $75 0 #
coedge $-1 $76 $23 $77 $78 0 $8 $-1 #
coedge $-1 $25 $79 $23 $47 1 $20 $-1 #
edge $-1 $50 $80 $23 $51 0 #
edge $-1 $58 $49 $24 $59 0 #
vertex $-1 $26 $81 #
vertex $-1 $26 $82 #
ellipse-curve $-1 -5.49038105676663 20.4903810567666 25 0 0 1 7.49999999999997 12.9903810567666 0 1 #
coedge $-1 $30 $27 $42 $71 1 $5 $-1 #
coedge $-1 $28 $83 $27 $54 0 $12 $-1 #
edge $-1 $84 $55 $53 $56 0 #
vertex $-1 $54 $85 #
ellipse-curve $-1 15 15 -25 0 0 -1 15 0 0 1 #
coedge $-1 $31 $86 $33 $61 0 $8 $-1 #
vertex $-1 $32 $87 #
ellipse-curve $-1 15 15 25 0 0 1 15 0 0 1 #
coedge $-1 $88 $33 $86 $89 1 $35 $-1 #
edge $-1 $90 $37 $57 $91 0 #
coedge $-1 $34 $88 $43 $73 1 $35 $-1 #
face $-1 $-1 $35 $2 $-1 $92 forward single #
point $-1 27.9903810567666 7.49999999999996 -25 #
point $-1 27.9903810567666 7.49999999999996 25 #
face $-1 $63 $93 $2 $-1 $94 forward single #
loop $-1 $-1 $95 $39 #
cone-surface $-1 -15.0000000000001 -14.9999999999999 0 0 0 1 -15 1.04744440165294e-13 0 1 0 1 0 #
coedge $-1 $96 $77 $79 $97 0 $40 $-1 #
coedge $-1 $98 $42 $83 $99 1 $20 $-1 #
edge $-1 $49 $84 $42 $100 0 #
coedge $-1 $101 $43 $102 $103 0 $12 $-1 #
edge $-1 $74 $104 $43 $75 0 #
vertex $-1 $44 $105 #
ellipse-curve $-1 20.4903810567666 -5.49038105676663 -25 0 0 -1 7.49999999999997 -12.9903810567666 0 1 #
coedge $-1 $106 $45 $107 $108 0 $8 $-1 #
coedge $-1 $69 $107 $45 $78 1 $40 $-1 #
edge $-1 $80 $109 $45 $110 0 #
coedge $-1 $46 $98 $69 $97 1 $20 $-1 #
vertex $-1 $78 $111 #
point $-1 7.49999999999996 27.9903810567666 25 #
point $-1 2.00961894323334 33.4807621135332 25 #
coedge $-1 $53 $112 $70 $99 0 $12 $-1 #
vertex $-1 $99 $113 #
point $-1 30 15 -25 #
coedge $-1 $57 $114 $60 $89 0 $8 $-1 #
point $-1 30 15 25 #
coedge $-1 $62 $60 $115 $116 0 $35 $-1 #
edge $-1 $117 $90 $86 $91 0 #
vertex $-1 $89 $118 #
ellipse-curve $-1 20.4903810567666 -5.49038105676663 25 0 0 1 7.49999999999997 -12.9903810567666 0 1 #
cone-surface $-1 20.4903810567666 -5.49038105676663 0 0 0 1 7.49999999999997 -12.9903810567666 0 1 0 1 0 #
loop $-1 $-1 $119 $66 #
cone-surface $-1 5.49038105676649 -20.4903810567666 0 0 0 1 -7.50000000000006 -12.9903810567665 0 1 0 1 0 #
coedge $-1 $120 $121 $122 $123 0 $67 $-1 #
coedge $-1 $124 $69 $125 $126 1 $40 $-1 #
edge $-1 $80 $127 $69 $128 0 #
coedge $-1 $79 $70 $112 $129 1 $20 $-1 #
edge $-1 $130 $84 $83 $131 0 #
straight-curve $-1 7.49999999999996 27.9903810567666 0 -0 -0 -1 #
coedge $-1 $132 $72 $133 $134 0 $12 $-1 #
coedge $-1 $115 $133 $72 $103 1 $93 $-1 #
edge $-1 $104 $135 $72 $136 0 #
vertex $-1 $73 $137 #
point $-1 27.9903810567665 -18.4807621135332 -25 #
coedge $-1 $138 $76 $121 $139 0 $8 $-1 #
coedge $-1 $77 $122 $76 $108 1 $40 $-1 #
edge $-1 $109 $140 $76 $110 0 #
vertex $-1 $78 $141 #
ellipse-curve $-1 -20.4903810567666 5.49038105676649 25 0 0 1 -7.50000000000006 12.9903810567665 0 1 #
point $-1 -20.4903810567666 20.4903810567665 25 #
coedge $-1 $83 $125 $98 $129 0 $12 $-1 #
point $-1 7.49999999999996 27.9903810567666 -25 #
coedge $-1 $86 $142 $143 $144 0 $8 $-1 #
coedge $-1 $143 $102 $88 $116 1 $93 $-1 #
edge $-1 $117 $104 $88 $145 0 #
vertex $-1 $89 $146 #
point $-1 27.9903810567665 -18.4807621135332 25 #
coedge $-1 $133 $147 $148 $149 0 $93 $-1 #
coedge $-1 $150 $95 $151 $152 1 $67 $-1 #
coedge $-1 $95 $153 $106 $139 1 $67 $-1 #
coedge $-1 $107 $124 $95 $123 1 $40 $-1 #
edge $-1 $140 $154 $95 $155 0 #
coedge $-1 $122 $96 $156 $157 1 $40 $-1 #
coedge $-1 $112 $156 $96 $126 0 $12 $-1 #
edge $-1 $158 $127 $125 $159 0 #
vertex $-1 $126 $160 #
straight-curve $-1 -20.4903810567666 20.4903810567665 0 -0 -0 -1 #
edge $-1 $127 $130 $112 $131 0 #
vertex $-1 $129 $161 #
ellipse-curve $-1 -5.49038105676663 20.4903810567666 -25 0 0 -1 7.49999999999997 12.9903810567666 0 1 #
coedge $-1 $151 $101 $150 $162 0 $12 $-1 #
coedge $-1 $102 $119 $101 $134 1 $93 $-1 #
edge $-1 $135 $163 $101 $136 0 #
vertex $-1 $103 $164 #
ellipse-curve $-1 5.49038105676649 -20.4903810567666 -25 0 -0 -1 -7.50000000000006 -12.9903810567665 0 1 #
point $-1 20.4903810567665 -20.4903810567666 -25 #
coedge $-1 $142 $106 $153 $165 0 $8 $-1 #
edge $-1 $140 $166 $106 $167 0 #
vertex $-1 $139 $168 #
point $-1 -27.9903810567667 18.480762113533 25 #
coedge $-1 $114 $138 $147 $169 0 $8 $-1 #
coedge $-1 $147 $115 $114 $144 1 $93 $-1 #
edge $-1 $170 $117 $114 $171 0 #
straight-curve $-1 20.4903810567665 -20.4903810567666 0 -0 -0 -1 #
point $-1 20.4903810567665 -20.4903810567666 25 #
coedge $-1 $119 $143 $142 $169 1 $93 $-1 #
coedge $-1 $153 $150 $119 $149 1 $67 $-1 #
edge $-1 $172 $163 $119 $173 0 #
coedge $-1 $148 $120 $132 $162 1 $67 $-1 #
coedge $-1 $156 $132 $120 $152 0 $12 $-1 #
edge $-1 $174 $154 $151 $175 0 #
coedge $-1 $121 $148 $138 $165 1 $67 $-1 #
vertex $-1 $152 $176 #
straight-curve $-1 -27.9903810567668 -7.50000000000001 0 -0 -0 -1 #
coedge $-1 $125 $151 $124 $157 0 $12 $-1 #
edge $-1 $154 $158 $156 $159 0 #
vertex $-1 $157 $177 #
ellipse-curve $-1 -20.4903810567666 5.49038105676649 -25 -0 0 -1 -7.50000000000006 12.9903810567665 0 1 #
point $-1 -20.4903810567666 20.4903810567665 -25 #
point $-1 2.00961894323334 33.4807621135332 -25 #
edge $-1 $163 $174 $132 $175 0 #
vertex $-1 $134 $178 #
point $-1 -2.00961894323357 -33.4807621135332 -25 #
edge $-1 $166 $172 $138 $167 0 #
vertex $-1 $139 $179 #
ellipse-curve $-1 -15.0000000000001 -14.9999999999999 25 0 0 1 -15 1.04744440165294e-13 0 1 #
point $-1 -27.9903810567668 -7.50000000000001 25 #
edge $-1 $172 $170 $142 $171 0 #
vertex $-1 $169 $180 #
ellipse-curve $-1 5.49038105676649 -20.4903810567666 25 0 0 1 -7.50000000000006 -12.9903810567665 0 1 #
vertex $-1 $169 $181 #
straight-curve $-1 -7.50000000000016 -27.9903810567665 0 -0 -0 -1 #
vertex $-1 $162 $182 #
ellipse-curve $-1 -15.0000000000001 -14.9999999999999 -25 -0 0 -1 -15 1.04744440165294e-13 0 1 #
point $-1 -27.9903810567668 -7.50000000000001 -25 #
point $-1 -27.9903810567667 18.480762113533 -25 #
point $-1 -7.50000000000016 -27.9903810567665 -25 #
point $-1 -30.0000000000001 -14.9999999999998 25 #
point $-1 -2.00961894323357 -33.4807621135332 25 #
point $-1 -7.50000000000016 -27.9903810567665 25 #
point $-1 -30.0000000000001 -14.9999999999998 -25 #
