600 0 1 0           
95 GICL ACIS Healer - Source: /gicl/data5/repository/UMD/tmp/clover_pocket/clover_pocket.sat - 6 0 18 ACIS 6.0.3 Solaris 24 Sun Apr 14 00:34:14 2002 
1 9.999999999999999547e-07 1.000000000000000036e-10 
body $-1 $1 $-1 $-1 #
lump $-1 $-1 $2 $0 #
shell $-1 $-1 $-1 $3 $-1 $1 #
face $-1 $4 $5 $2 $-1 $6 forward single #
face $-1 $7 $8 $2 $-1 $9 forward single #
loop $-1 $-1 $10 $3 #
cone-surface $-1 15 15 0 0 0 1 15 0 0 1 I I 0 1 15 forward I I I I #
face $-1 $11 $12 $2 $-1 $13 forward single #
loop $-1 $-1 $14 $4 #
plane-surface $-1 0 0 25 0 0 1 1 0 0 forward_v I I I I #
coedge $-1 $15 $16 $17 $18 reversed $5 $-1 #
face $-1 $19 $20 $2 $-1 $21 forward single #
loop $-1 $-1 $22 $7 #
plane-surface $-1 0 0 -25 0 0 -1 -1 0 0 forward_v I I I I #
coedge $-1 $23 $24 $25 $26 forward $8 $-1 #
coedge $-1 $27 $10 $28 $29 reversed $5 $-1 #
coedge $-1 $10 $30 $31 $32 reversed $5 $-1 #
coedge $-1 $33 $34 $10 $18 forward $35 $-1 #
edge $-1 $36 -25 $37 25 $17 $38 forward 7 unknown #
face $-1 $39 $40 $2 $-1 $41 forward single #
loop $-1 $-1 $42 $11 #
cone-surface $-1 -5.490381056766629797 20.49038105676660138 0 0 0 1 7.499999999999969802 12.9903810567665996 0 1 I I 0 1 15.00000000000000178 forward I I I I #
coedge $-1 $43 $28 $34 $44 forward $12 $-1 #
coedge $-1 $45 $14 $46 $47 forward $8 $-1 #
coedge $-1 $14 $31 $30 $48 forward $8 $-1 #
coedge $-1 $42 $46 $14 $26 reversed $20 $-1 #
edge $-1 $49 -0.5235987755983017022 $50 6.315935428978665848e-17 $14 $51 forward 7 unknown #
coedge $-1 $52 $15 $53 $54 reversed $5 $-1 #
coedge $-1 $22 $53 $15 $29 forward $12 $-1 #
edge $-1 $55 0 $36 0.523598775598300481 $28 $56 forward 7 unknown #
coedge $-1 $16 $52 $24 $48 reversed $5 $-1 #
coedge $-1 $24 $57 $16 $32 forward $8 $-1 #
edge $-1 $37 -0.523598775598300481 $58 0 $31 $59 forward 7 unknown #
coedge $-1 $60 $17 $57 $61 reversed $35 $-1 #
coedge $-1 $17 $62 $22 $44 reversed $35 $-1 #
loop $-1 $-1 $17 $63 #
vertex $-1 $44 $64 #
vertex $-1 $61 $65 #
straight-curve $-1 27.99038105676660138 7.499999999999960032 0 0 0 1 I I #
face $-1 $66 $67 $2 $-1 $68 forward single #
loop $-1 $-1 $69 $19 #
cone-surface $-1 -20.49038105676660138 5.490381056766490353 0 0 0 1 -7.500000000000060396 12.99038105676650012 0 1 I I 0 1 14.99999999999996092 forward I I I I #
coedge $-1 $70 $25 $52 $71 forward $20 $-1 #
coedge $-1 $72 $22 $62 $73 forward $12 $-1 #
edge $-1 $36 -2.094395102393198371 $74 3.221127068779133301e-15 $22 $75 forward 7 unknown #
coedge $-1 $76 $23 $77 $78 forward $8 $-1 #
coedge $-1 $25 $79 $23 $47 reversed $20 $-1 #
edge $-1 $50 6.315935428978665848e-17 $80 2.094395102393200148 $23 $51 forward 7 unknown #
edge $-1 $58 0 $49 2.094395102393197483 $24 $59 forward 7 unknown #
vertex $-1 $26 $81 #
vertex $-1 $26 $82 #
ellipse-curve $-1 -5.490381056766629797 20.49038105676660138 25 0 0 1 7.499999999999969802 12.9903810567665996 0 1 I I #
coedge $-1 $30 $27 $42 $71 reversed $5 $-1 #
coedge $-1 $28 $83 $27 $54 forward $12 $-1 #
edge $-1 $84 -2.094395102393197483 $55 0 $53 $56 forward 7 unknown #
vertex $-1 $54 $85 #
ellipse-curve $-1 15 15 -25 0 0 -1 15 0 0 1 I I #
coedge $-1 $31 $86 $33 $61 forward $8 $-1 #
vertex $-1 $32 $87 #
ellipse-curve $-1 15 15 25 0 0 1 15 0 0 1 I I #
coedge $-1 $88 $33 $86 $89 reversed $35 $-1 #
edge $-1 $90 -3.221127068779133301e-15 $37 2.094395102393198371 $57 $91 forward 7 unknown #
coedge $-1 $34 $88 $43 $73 reversed $35 $-1 #
face $-1 $-1 $35 $2 $-1 $92 forward single #
point $-1 27.99038105676660138 7.499999999999960032 -25 #
point $-1 27.99038105676660138 7.499999999999960032 25 #
face $-1 $63 $93 $2 $-1 $94 forward single #
loop $-1 $-1 $95 $39 #
cone-surface $-1 -15.00000000000009948 -14.99999999999990052 0 0 0 1 -15 1.047444401652940007e-13 0 1 I I 0 1 15 forward I I I I #
coedge $-1 $96 $77 $79 $97 forward $40 $-1 #
coedge $-1 $98 $42 $83 $99 reversed $20 $-1 #
edge $-1 $49 -25 $84 25 $42 $100 forward 7 unknown #
coedge $-1 $101 $43 $102 $103 forward $12 $-1 #
edge $-1 $74 3.221127068779133301e-15 $104 0.5235987755983033676 $43 $75 forward 7 unknown #
vertex $-1 $44 $105 #
ellipse-curve $-1 20.49038105676660138 -5.490381056766629797 -25 0 0 -1 7.499999999999969802 -12.9903810567665996 0 1 I I #
coedge $-1 $106 $45 $107 $108 forward $8 $-1 #
coedge $-1 $69 $107 $45 $78 reversed $40 $-1 #
edge $-1 $80 -0.5235987755983050329 $109 1.95793998298339387e-15 $45 $110 forward 7 unknown #
coedge $-1 $46 $98 $69 $97 reversed $20 $-1 #
vertex $-1 $78 $111 #
point $-1 7.499999999999960032 27.99038105676660138 25 #
point $-1 2.009618943233340005 33.48076211353320275 25 #
coedge $-1 $53 $112 $70 $99 forward $12 $-1 #
vertex $-1 $99 $113 #
point $-1 30 15 -25 #
coedge $-1 $57 $114 $60 $89 forward $8 $-1 #
point $-1 30 15 25 #
coedge $-1 $62 $60 $115 $116 forward $35 $-1 #
edge $-1 $117 -0.5235987755983033676 $90 -3.221127068779133301e-15 $86 $91 forward 7 unknown #
vertex $-1 $89 $118 #
ellipse-curve $-1 20.49038105676660138 -5.490381056766629797 25 0 0 1 7.499999999999969802 -12.9903810567665996 0 1 I I #
cone-surface $-1 20.49038105676660138 -5.490381056766629797 0 0 0 1 7.499999999999969802 -12.9903810567665996 0 1 I I 0 1 15.00000000000000178 forward I I I I #
loop $-1 $-1 $119 $66 #
cone-surface $-1 5.490381056766490353 -20.49038105676660138 0 0 0 1 -7.500000000000060396 -12.99038105676650012 0 1 I I 0 1 14.99999999999996092 forward I I I I #
coedge $-1 $120 $121 $122 $123 forward $67 $-1 #
coedge $-1 $124 $69 $125 $126 reversed $40 $-1 #
edge $-1 $80 -25 $127 25 $69 $128 forward 7 unknown #
coedge $-1 $79 $70 $112 $129 reversed $20 $-1 #
edge $-1 $130 -6.315935428978665848e-17 $84 0.5235987755983017022 $83 $131 forward 7 unknown #
straight-curve $-1 7.499999999999960032 27.99038105676660138 0 -0 -0 -1 I I #
coedge $-1 $132 $72 $133 $134 forward $12 $-1 #
coedge $-1 $115 $133 $72 $103 reversed $93 $-1 #
edge $-1 $104 -2.094395102393201924 $135 -3.347445777358691704e-15 $72 $136 forward 7 unknown #
vertex $-1 $73 $137 #
point $-1 27.99038105676649835 -18.4807621135331992 -25 #
coedge $-1 $138 $76 $121 $139 forward $8 $-1 #
coedge $-1 $77 $122 $76 $108 reversed $40 $-1 #
edge $-1 $109 1.95793998298339387e-15 $140 2.094395102393175279 $76 $110 forward 7 unknown #
vertex $-1 $78 $141 #
ellipse-curve $-1 -20.49038105676660138 5.490381056766490353 25 0 0 1 -7.500000000000060396 12.99038105676650012 0 1 I I #
point $-1 -20.49038105676660138 20.49038105676649835 25 #
coedge $-1 $83 $125 $98 $129 forward $12 $-1 #
point $-1 7.499999999999960032 27.99038105676660138 -25 #
coedge $-1 $86 $142 $143 $144 forward $8 $-1 #
coedge $-1 $143 $102 $88 $116 reversed $93 $-1 #
edge $-1 $117 -25 $104 25 $88 $145 forward 7 unknown #
vertex $-1 $89 $146 #
point $-1 27.99038105676649835 -18.4807621135331992 25 #
coedge $-1 $133 $147 $148 $149 forward $93 $-1 #
coedge $-1 $150 $95 $151 $152 reversed $67 $-1 #
coedge $-1 $95 $153 $106 $139 reversed $67 $-1 #
coedge $-1 $107 $124 $95 $123 reversed $40 $-1 #
edge $-1 $140 -25 $154 25 $95 $155 forward 7 unknown #
coedge $-1 $122 $96 $156 $157 reversed $40 $-1 #
coedge $-1 $112 $156 $96 $126 forward $12 $-1 #
edge $-1 $158 -1.95793998298339387e-15 $127 0.5235987755983050329 $125 $159 forward 7 unknown #
vertex $-1 $126 $160 #
straight-curve $-1 -20.49038105676660138 20.49038105676649835 0 -0 -0 -1 I I #
edge $-1 $127 -2.094395102393200148 $130 -6.315935428978665848e-17 $112 $131 forward 7 unknown #
vertex $-1 $129 $161 #
ellipse-curve $-1 -5.490381056766629797 20.49038105676660138 -25 0 0 -1 7.499999999999969802 12.9903810567665996 0 1 I I #
coedge $-1 $151 $101 $150 $162 forward $12 $-1 #
coedge $-1 $102 $119 $101 $134 reversed $93 $-1 #
edge $-1 $135 -3.347445777358691704e-15 $163 0.5235987755983010361 $101 $136 forward 7 unknown #
vertex $-1 $103 $164 #
ellipse-curve $-1 5.490381056766490353 -20.49038105676660138 -25 0 -0 -1 -7.500000000000060396 -12.99038105676650012 0 1 I I #
point $-1 20.49038105676649835 -20.49038105676660138 -25 #
coedge $-1 $142 $106 $153 $165 forward $8 $-1 #
edge $-1 $140 -0.5235987755982814962 $166 2.328066879653148166e-16 $106 $167 forward 7 unknown #
vertex $-1 $139 $168 #
point $-1 -27.99038105676670085 18.48076211353300025 25 #
coedge $-1 $114 $138 $147 $169 forward $8 $-1 #
coedge $-1 $147 $115 $114 $144 reversed $93 $-1 #
edge $-1 $170 3.347445777358691704e-15 $117 2.094395102393201924 $114 $171 forward 7 unknown #
straight-curve $-1 20.49038105676649835 -20.49038105676660138 0 -0 -0 -1 I I #
point $-1 20.49038105676649835 -20.49038105676660138 25 #
coedge $-1 $119 $143 $142 $169 reversed $93 $-1 #
coedge $-1 $153 $150 $119 $149 reversed $67 $-1 #
edge $-1 $172 -25 $163 25 $119 $173 forward 7 unknown #
coedge $-1 $148 $120 $132 $162 reversed $67 $-1 #
coedge $-1 $156 $132 $120 $152 forward $12 $-1 #
edge $-1 $174 -2.328066879653148166e-16 $154 0.5235987755982814962 $151 $175 forward 7 unknown #
coedge $-1 $121 $148 $138 $165 reversed $67 $-1 #
vertex $-1 $152 $176 #
straight-curve $-1 -27.99038105676680033 -7.50000000000000977 0 -0 -0 -1 I I #
coedge $-1 $125 $151 $124 $157 forward $12 $-1 #
edge $-1 $154 -2.094395102393175279 $158 -1.95793998298339387e-15 $156 $159 forward 7 unknown #
vertex $-1 $157 $177 #
ellipse-curve $-1 -20.49038105676660138 5.490381056766490353 -25 -0 0 -1 -7.500000000000060396 12.99038105676650012 0 1 I I #
point $-1 -20.49038105676660138 20.49038105676649835 -25 #
point $-1 2.009618943233340005 33.48076211353320275 -25 #
edge $-1 $163 -2.094395102393198371 $174 -2.328066879653148166e-16 $132 $175 forward 7 unknown #
vertex $-1 $134 $178 #
point $-1 -2.009618943233570043 -33.48076211353320275 -25 #
edge $-1 $166 2.328066879653148166e-16 $172 2.094395102393198371 $138 $167 forward 7 unknown #
vertex $-1 $139 $179 #
ellipse-curve $-1 -15.00000000000009948 -14.99999999999990052 25 0 0 1 -15 1.047444401652940007e-13 0 1 I I #
point $-1 -27.99038105676680033 -7.50000000000000977 25 #
edge $-1 $172 -0.5235987755983010361 $170 3.347445777358691704e-15 $142 $171 forward 7 unknown #
vertex $-1 $169 $180 #
ellipse-curve $-1 5.490381056766490353 -20.49038105676660138 25 0 0 1 -7.500000000000060396 -12.99038105676650012 0 1 I I #
vertex $-1 $169 $181 #
straight-curve $-1 -7.500000000000159872 -27.99038105676649835 0 -0 -0 -1 I I #
vertex $-1 $162 $182 #
ellipse-curve $-1 -15.00000000000009948 -14.99999999999990052 -25 -0 0 -1 -15 1.047444401652940007e-13 0 1 I I #
point $-1 -27.99038105676680033 -7.50000000000000977 -25 #
point $-1 -27.99038105676670085 18.48076211353300025 -25 #
point $-1 -7.500000000000159872 -27.99038105676649835 -25 #
point $-1 -30.00000000000009948 -14.99999999999979927 25 #
point $-1 -2.009618943233570043 -33.48076211353320275 25 #
point $-1 -7.500000000000159872 -27.99038105676649835 25 #
point $-1 -30.00000000000009948 -14.99999999999979927 -25 #
End-of-ACIS-data 