600 0 2 0           
24 FBMach with ACIS - 6.0.3 13 ACIS 6.0.3 NT 24 Tue May 22 12:25:12 2001 
1 9.9999999999999995e-007 1e-010 
body $2 $3 $-1 $4 #
bdycol-kcp $-1 1 1 $5 #
model_id-kcp-attrib $-1 $-1 $-1 $0 1 990548712 50 -1590558719 1 #
lump $-1 $-1 $6 $0 #
transform $-1 1 0 0 0 1 0 0 0 1 0 0 0 1 no_rotate no_reflect no_shear #
body $7 $8 $-1 $9 #
shell $-1 $-1 $-1 $10 $-1 $3 #
model_id-kcp-attrib $-1 $-1 $-1 $5 1 990548712 60 -1589903358 1 #
lump $-1 $-1 $11 $5 #
transform $-1 1 0 0 0 1 0 0 0 1 2.1316282072803006e-014 1.7763568394002505e-014 0 1 no_rotate no_reflect no_shear #
face $12 $13 $14 $6 $-1 $15 forward single #
shell $-1 $-1 $-1 $16 $-1 $8 #
model_id-kcp-attrib $-1 $-1 $-1 $10 1 990548712 50 -1590558719 2 #
face $17 $18 $19 $6 $-1 $20 forward single #
loop $-1 $-1 $21 $10 #
cone-surface $-1 15 15 0 0 0 1 15 0 0 1 I I 0 1 15 forward I I I I #
face $22 $23 $24 $11 $-1 $25 forward single #
model_id-kcp-attrib $-1 $-1 $-1 $13 1 990548712 50 -1590558719 3 #
face $26 $27 $28 $6 $-1 $29 forward single #
loop $-1 $-1 $30 $13 #
plane-surface $-1 0 0 25 0 0 1 1 0 0 forward_v I I I I #
coedge $-1 $31 $32 $33 $34 reversed $14 $-1 #
model_id-kcp-attrib $-1 $-1 $-1 $16 1 990548712 60 -1589903358 2 #
face $35 $36 $37 $11 $-1 $38 reversed single #
loop $-1 $-1 $39 $16 #
plane-surface $-1 0 0 25 0 0 1 1 0 0 forward_v I I I I #
model_id-kcp-attrib $-1 $-1 $-1 $18 1 990548712 50 -1590558719 4 #
face $40 $41 $42 $6 $-1 $43 forward single #
loop $-1 $-1 $44 $18 #
plane-surface $-1 0 0 -25 0 0 -1 -1 0 0 forward_v I I I I #
coedge $-1 $45 $46 $47 $48 forward $19 $-1 #
coedge $-1 $49 $21 $50 $51 reversed $14 $-1 #
coedge $-1 $21 $52 $53 $54 reversed $14 $-1 #
coedge $-1 $55 $56 $21 $34 forward $57 $-1 #
edge $-1 $58 -25 $59 25 $33 $60 forward 7 unknown #
model_id-kcp-attrib $-1 $-1 $-1 $23 1 990548712 60 -1589903358 3 #
face $-1 $61 $62 $11 $-1 $63 reversed single #
loop $-1 $-1 $64 $23 #
plane-surface $-1 0 0 -25 0 0 1 1 0 0 forward_v I I I I #
coedge $-1 $65 $66 $67 $68 forward $24 $-1 #
model_id-kcp-attrib $-1 $-1 $-1 $27 1 990548712 50 -1590558719 5 #
face $69 $70 $71 $6 $-1 $72 forward single #
loop $-1 $-1 $73 $27 #
cone-surface $-1 -5.4903810567666298 20.490381056766601 0 0 0 1 7.4999999999999698 12.9903810567666 0 1 I I 0 1 15.000000000000002 forward I I I I #
coedge $-1 $74 $50 $56 $75 forward $28 $-1 #
coedge $-1 $76 $30 $77 $78 forward $19 $-1 #
coedge $-1 $30 $53 $52 $79 forward $19 $-1 #
coedge $-1 $73 $77 $30 $48 reversed $42 $-1 #
edge $80 $81 -0.5235987755983017 $82 6.3159354289786658e-017 $30 $83 forward 7 unknown #
coedge $-1 $84 $31 $85 $86 reversed $14 $-1 #
coedge $-1 $44 $85 $31 $51 forward $28 $-1 #
edge $-1 $87 0 $58 0.52359877559830048 $50 $88 forward 7 unknown #
coedge $-1 $32 $84 $46 $79 reversed $14 $-1 #
coedge $-1 $46 $89 $32 $54 forward $19 $-1 #
edge $90 $59 -0.52359877559830048 $91 0 $53 $92 forward 7 unknown #
coedge $-1 $93 $33 $89 $94 reversed $57 $-1 #
coedge $-1 $33 $95 $44 $75 reversed $57 $-1 #
loop $-1 $-1 $33 $96 #
vertex $-1 $75 $97 #
vertex $-1 $94 $98 #
straight-curve $-1 27.990381056766601 7.49999999999996 0 0 0 1 I I #
face $-1 $99 $100 $11 $-1 $101 reversed single #
loop $-1 $-1 $102 $36 #
plane-surface $-1 0 -35.49038105676658 0 0 1 0 0 0 1 forward_v I I I I #
coedge $-1 $103 $104 $105 $106 forward $37 $-1 #
coedge $-1 $107 $39 $108 $109 forward $24 $-1 #
coedge $-1 $39 $107 $110 $111 forward $24 $-1 #
coedge $-1 $112 $113 $39 $68 reversed $114 $-1 #
edge $-1 $115 -35.49038105676658 $116 35.49038105676658 $67 $117 forward 7 unknown #
model_id-kcp-attrib $-1 $-1 $-1 $41 1 990548712 50 -1590558719 6 #
face $118 $119 $120 $6 $-1 $121 forward single #
loop $-1 $-1 $122 $41 #
cone-surface $-1 -20.490381056766601 5.4903810567664904 0 0 0 1 -7.5000000000000604 12.9903810567665 0 1 I I 0 1 14.999999999999961 forward I I I I #
coedge $-1 $123 $47 $84 $124 forward $42 $-1 #
coedge $-1 $125 $44 $95 $126 forward $28 $-1 #
edge $-1 $58 -2.0943951023931984 $127 3.2211270687791333e-015 $44 $128 forward 7 unknown #
coedge $-1 $129 $45 $130 $131 forward $19 $-1 #
coedge $-1 $47 $132 $45 $78 reversed $42 $-1 #
edge $133 $82 6.3159354289786658e-017 $134 2.0943951023932001 $45 $83 forward 7 unknown #
edge $135 $91 0 $81 2.094395102393197 $46 $92 forward 7 unknown #
attrib_edge_convexity-kcp-attrib $-1 $136 $-1 $48 1 #
vertex $-1 $48 $137 #
vertex $-1 $48 $138 #
ellipse-curve $-1 -5.4903810567666298 20.490381056766601 25 0 0 1 7.4999999999999698 12.9903810567666 0 1 I I #
coedge $-1 $52 $49 $73 $124 reversed $14 $-1 #
coedge $-1 $50 $139 $49 $86 forward $28 $-1 #
edge $-1 $140 -2.094395102393197 $87 0 $85 $88 forward 7 unknown #
vertex $-1 $86 $141 #
ellipse-curve $-1 15 15 -25 0 0 -1 15 0 0 1 I I #
coedge $-1 $53 $142 $55 $94 forward $19 $-1 #
attrib_edge_convexity-kcp-attrib $-1 $143 $-1 $54 1 #
vertex $-1 $54 $144 #
ellipse-curve $-1 15 15 25 0 0 1 15 0 0 1 I I #
coedge $-1 $145 $55 $142 $146 reversed $57 $-1 #
edge $147 $148 -3.2211270687791333e-015 $59 2.0943951023931984 $89 $149 forward 7 unknown #
coedge $-1 $56 $145 $74 $126 reversed $57 $-1 #
face $150 $-1 $57 $6 $-1 $151 forward single #
point $-1 27.990381056766601 7.49999999999996 -25 #
point $-1 27.990381056766601 7.49999999999996 25 #
face $-1 $152 $153 $11 $-1 $154 reversed single #
loop $-1 $-1 $155 $61 #
plane-surface $-1 -35.490381056766587 0 0 1 0 0 0 0 -1 forward_v I I I I #
coedge $-1 $156 $110 $157 $158 forward $62 $-1 #
coedge $-1 $159 $64 $156 $160 forward $37 $-1 #
coedge $-1 $64 $159 $161 $162 forward $37 $-1 #
coedge $-1 $113 $112 $64 $106 reversed $114 $-1 #
edge $-1 $163 -35.49038105676658 $164 35.49038105676658 $105 $165 forward 7 unknown #
coedge $-1 $66 $65 $166 $167 forward $24 $-1 #
coedge $-1 $168 $169 $65 $109 reversed $153 $-1 #
edge $-1 $116 -35.490381056766587 $170 35.490381056766587 $108 $171 forward 7 unknown #
coedge $-1 $102 $172 $66 $111 reversed $62 $-1 #
edge $-1 $173 -35.490381056766587 $115 35.490381056766587 $110 $174 forward 7 unknown #
coedge $-1 $105 $67 $172 $175 forward $114 $-1 #
coedge $-1 $67 $105 $168 $176 reversed $114 $-1 #
loop $-1 $-1 $112 $152 #
vertex $-1 $68 $177 #
vertex $-1 $68 $178 #
straight-curve $-1 35.490381056766587 0 25 0 1 0 I I #
model_id-kcp-attrib $-1 $-1 $-1 $70 1 990548712 50 -1590558719 7 #
face $179 $96 $180 $6 $-1 $181 forward single #
loop $-1 $-1 $182 $70 #
cone-surface $-1 -15.000000000000099 -14.999999999999901 0 0 0 1 -15 1.04744440165294e-013 0 1 I I 0 1 15 forward I I I I #
coedge $-1 $183 $130 $132 $184 forward $71 $-1 #
coedge $-1 $185 $73 $139 $186 reversed $42 $-1 #
edge $-1 $81 -25 $140 25 $73 $187 forward 7 unknown #
coedge $-1 $188 $74 $189 $190 forward $28 $-1 #
edge $-1 $127 3.2211270687791333e-015 $191 0.52359877559830337 $74 $128 forward 7 unknown #
vertex $-1 $75 $192 #
ellipse-curve $-1 20.490381056766601 -5.4903810567666298 -25 0 0 -1 7.4999999999999698 -12.9903810567666 0 1 I I #
coedge $-1 $193 $76 $194 $195 forward $19 $-1 #
coedge $-1 $122 $194 $76 $131 reversed $71 $-1 #
edge $196 $134 -0.52359877559830503 $197 1.9579399829833939e-015 $76 $198 forward 7 unknown #
coedge $-1 $77 $185 $122 $184 reversed $42 $-1 #
attrib_edge_convexity-kcp-attrib $-1 $199 $-1 $78 1 #
vertex $-1 $131 $200 #
attrib_edge_convexity-kcp-attrib $-1 $201 $-1 $79 1 #
convexity-sys-attrib $-1 $-1 $80 $48 #
point $-1 7.49999999999996 27.990381056766601 25 #
point $-1 2.00961894323334 33.480762113533203 25 #
coedge $-1 $85 $202 $123 $186 forward $28 $-1 #
vertex $-1 $186 $203 #
point $-1 30 15 -25 #
coedge $-1 $89 $204 $93 $146 forward $19 $-1 #
convexity-sys-attrib $-1 $-1 $90 $54 #
point $-1 30 15 25 #
coedge $-1 $95 $93 $205 $206 forward $57 $-1 #
edge $207 $208 -0.52359877559830337 $148 -3.2211270687791333e-015 $142 $149 forward 7 unknown #
attrib_edge_convexity-kcp-attrib $-1 $209 $-1 $94 1 #
vertex $-1 $146 $210 #
ellipse-curve $-1 20.490381056766601 -5.4903810567666298 25 0 0 1 7.4999999999999698 -12.9903810567666 0 1 I I #
model_id-kcp-attrib $-1 $-1 $-1 $96 1 990548712 50 -1590558719 9 #
cone-surface $-1 20.490381056766601 -5.4903810567666298 0 0 0 1 7.4999999999999698 -12.9903810567666 0 1 I I 0 1 15.000000000000002 forward I I I I #
face $-1 $-1 $114 $11 $-1 $211 reversed single #
loop $-1 $-1 $168 $99 #
plane-surface $-1 0 35.49038105676658 0 0 -1 0 0 0 -1 forward_v I I I I #
coedge $-1 $212 $166 $169 $213 forward $100 $-1 #
coedge $-1 $172 $102 $103 $160 reversed $62 $-1 #
coedge $-1 $166 $212 $102 $158 reversed $100 $-1 #
edge $-1 $173 -25 $214 25 $157 $215 forward 7 unknown #
coedge $-1 $104 $103 $212 $216 forward $37 $-1 #
edge $-1 $164 -35.490381056766587 $214 35.490381056766587 $156 $217 forward 7 unknown #
coedge $-1 $169 $168 $104 $162 reversed $153 $-1 #
edge $-1 $218 -35.490381056766587 $163 35.490381056766587 $161 $219 forward 7 unknown #
vertex $-1 $106 $220 #
vertex $-1 $175 $221 #
straight-curve $-1 35.490381056766587 0 -25 0 -1 0 I I #
coedge $-1 $155 $157 $107 $167 reversed $100 $-1 #
edge $-1 $170 -35.49038105676658 $173 35.49038105676658 $166 $222 forward 7 unknown #
coedge $-1 $161 $108 $113 $176 forward $153 $-1 #
coedge $-1 $108 $161 $155 $213 reversed $153 $-1 #
vertex $-1 $109 $223 #
straight-curve $-1 0 35.49038105676658 25 -1 0 0 I I #
coedge $-1 $110 $156 $112 $175 reversed $62 $-1 #
vertex $-1 $167 $224 #
straight-curve $-1 0 -35.49038105676658 25 1 0 0 I I #
edge $-1 $115 -25 $164 25 $112 $225 forward 7 unknown #
edge $-1 $116 -25 $163 25 $113 $226 forward 7 unknown #
point $-1 35.490381056766587 -35.49038105676658 25 #
point $-1 35.490381056766587 35.49038105676658 25 #
model_id-kcp-attrib $-1 $-1 $-1 $119 1 990548712 50 -1590558719 8 #
loop $-1 $-1 $227 $119 #
cone-surface $-1 5.4903810567664904 -20.490381056766601 0 0 0 1 -7.5000000000000604 -12.9903810567665 0 1 I I 0 1 14.999999999999961 forward I I I I #
coedge $-1 $228 $229 $230 $231 forward $120 $-1 #
coedge $-1 $232 $122 $233 $234 reversed $71 $-1 #
edge $-1 $134 -25 $235 25 $122 $236 forward 7 unknown #
coedge $-1 $132 $123 $202 $237 reversed $42 $-1 #
edge $-1 $238 -6.3159354289786658e-017 $140 0.5235987755983017 $139 $239 forward 7 unknown #
straight-curve $-1 7.49999999999996 27.990381056766601 0 0 0 -1 I I #
coedge $-1 $240 $125 $241 $242 forward $28 $-1 #
coedge $-1 $205 $241 $125 $190 reversed $180 $-1 #
edge $-1 $191 -2.0943951023932015 $243 -3.3474457773586917e-015 $125 $244 forward 7 unknown #
vertex $-1 $126 $245 #
point $-1 27.990381056766498 -18.480762113533199 -25 #
coedge $-1 $246 $129 $229 $247 forward $19 $-1 #
coedge $-1 $130 $230 $129 $195 reversed $71 $-1 #
edge $248 $197 1.9579399829833939e-015 $249 2.0943951023931753 $129 $198 forward 7 unknown #
attrib_edge_convexity-kcp-attrib $-1 $250 $-1 $131 1 #
vertex $-1 $131 $251 #
ellipse-curve $-1 -20.490381056766601 5.4903810567664904 25 0 0 1 -7.5000000000000604 12.9903810567665 0 1 I I #
convexity-sys-attrib $-1 $-1 $133 $78 #
point $-1 -20.490381056766601 20.490381056766498 25 #
convexity-sys-attrib $-1 $-1 $135 $79 #
coedge $-1 $139 $233 $185 $237 forward $28 $-1 #
point $-1 7.49999999999996 27.990381056766601 -25 #
coedge $-1 $142 $252 $253 $254 forward $19 $-1 #
coedge $-1 $253 $189 $145 $206 reversed $180 $-1 #
edge $-1 $208 -25 $191 25 $145 $255 forward 7 unknown #
attrib_edge_convexity-kcp-attrib $-1 $256 $-1 $146 1 #
vertex $-1 $146 $257 #
convexity-sys-attrib $-1 $-1 $147 $94 #
point $-1 27.990381056766498 -18.480762113533199 25 #
plane-surface $-1 35.490381056766587 0 0 -1 0 0 0 0 1 forward_v I I I I #
coedge $-1 $157 $155 $159 $216 reversed $100 $-1 #
edge $-1 $170 -25 $218 25 $169 $258 forward 7 unknown #
vertex $-1 $216 $259 #
straight-curve $-1 -35.490381056766587 -35.49038105676658 0 0 0 -1 I I #
edge $-1 $214 -35.49038105676658 $218 35.49038105676658 $212 $260 forward 7 unknown #
straight-curve $-1 0 -35.49038105676658 -25 -1 0 0 I I #
vertex $-1 $162 $261 #
straight-curve $-1 0 35.49038105676658 -25 1 0 0 I I #
point $-1 35.490381056766587 35.49038105676658 -25 #
point $-1 35.490381056766587 -35.49038105676658 -25 #
straight-curve $-1 -35.490381056766587 0 25 0 -1 0 I I #
point $-1 -35.490381056766587 35.49038105676658 25 #
point $-1 -35.490381056766587 -35.49038105676658 25 #
straight-curve $-1 35.490381056766587 -35.49038105676658 0 0 0 -1 I I #
straight-curve $-1 35.490381056766587 35.49038105676658 0 0 0 -1 I I #
coedge $-1 $241 $262 $263 $264 forward $180 $-1 #
coedge $-1 $265 $182 $266 $267 reversed $120 $-1 #
coedge $-1 $182 $268 $193 $247 reversed $120 $-1 #
coedge $-1 $194 $232 $182 $231 reversed $71 $-1 #
edge $-1 $249 -25 $269 25 $182 $270 forward 7 unknown #
coedge $-1 $230 $183 $271 $272 reversed $71 $-1 #
coedge $-1 $202 $271 $183 $234 forward $28 $-1 #
edge $-1 $273 -1.9579399829833939e-015 $235 0.52359877559830503 $233 $274 forward 7 unknown #
vertex $-1 $234 $275 #
straight-curve $-1 -20.490381056766601 20.490381056766498 0 0 0 -1 I I #
edge $-1 $235 -2.0943951023932001 $238 -6.3159354289786658e-017 $202 $239 forward 7 unknown #
vertex $-1 $237 $276 #
ellipse-curve $-1 -5.4903810567666298 20.490381056766601 -25 0 0 -1 7.4999999999999698 12.9903810567666 0 1 I I #
coedge $-1 $266 $188 $265 $277 forward $28 $-1 #
coedge $-1 $189 $227 $188 $242 reversed $180 $-1 #
edge $-1 $243 -3.3474457773586917e-015 $278 0.52359877559830104 $188 $244 forward 7 unknown #
vertex $-1 $190 $279 #
ellipse-curve $-1 5.4903810567664904 -20.490381056766601 -25 0 0 -1 -7.5000000000000604 -12.9903810567665 0 1 I I #
point $-1 20.490381056766498 -20.490381056766601 -25 #
coedge $-1 $252 $193 $268 $280 forward $19 $-1 #
edge $281 $249 -0.5235987755982815 $282 2.3280668796531482e-016 $193 $283 forward 7 unknown #
attrib_edge_convexity-kcp-attrib $-1 $284 $-1 $195 1 #
vertex $-1 $247 $285 #
convexity-sys-attrib $-1 $-1 $196 $131 #
point $-1 -27.990381056766701 18.480762113533 25 #
coedge $-1 $204 $246 $262 $286 forward $19 $-1 #
coedge $-1 $262 $205 $204 $254 reversed $180 $-1 #
edge $287 $288 3.3474457773586917e-015 $208 2.0943951023932015 $204 $289 forward 7 unknown #
straight-curve $-1 20.490381056766498 -20.490381056766601 0 0 0 -1 I I #
convexity-sys-attrib $-1 $-1 $207 $146 #
point $-1 20.490381056766498 -20.490381056766601 25 #
straight-curve $-1 -35.490381056766587 35.49038105676658 0 0 0 -1 I I #
point $-1 -35.490381056766587 -35.49038105676658 -25 #
straight-curve $-1 -35.490381056766587 0 -25 0 1 0 I I #
point $-1 -35.490381056766587 35.49038105676658 -25 #
coedge $-1 $227 $253 $252 $286 reversed $180 $-1 #
coedge $-1 $268 $265 $227 $264 reversed $120 $-1 #
edge $-1 $290 -25 $278 25 $227 $291 forward 7 unknown #
coedge $-1 $263 $228 $240 $277 reversed $120 $-1 #
coedge $-1 $271 $240 $228 $267 forward $28 $-1 #
edge $-1 $292 -2.3280668796531482e-016 $269 0.5235987755982815 $266 $293 forward 7 unknown #
coedge $-1 $229 $263 $246 $280 reversed $120 $-1 #
vertex $-1 $267 $294 #
straight-curve $-1 -27.9903810567668 -7.5000000000000098 0 0 0 -1 I I #
coedge $-1 $233 $266 $232 $272 forward $28 $-1 #
edge $-1 $269 -2.0943951023931753 $273 -1.9579399829833939e-015 $271 $274 forward 7 unknown #
vertex $-1 $272 $295 #
ellipse-curve $-1 -20.490381056766601 5.4903810567664904 -25 0 0 -1 -7.5000000000000604 12.9903810567665 0 1 I I #
point $-1 -20.490381056766601 20.490381056766498 -25 #
point $-1 2.00961894323334 33.480762113533203 -25 #
edge $-1 $278 -2.0943951023931984 $292 -2.3280668796531482e-016 $240 $293 forward 7 unknown #
vertex $-1 $242 $296 #
point $-1 -2.00961894323357 -33.480762113533203 -25 #
edge $297 $282 2.3280668796531482e-016 $290 2.0943951023931984 $246 $283 forward 7 unknown #
attrib_edge_convexity-kcp-attrib $-1 $298 $-1 $247 1 #
vertex $-1 $247 $299 #
ellipse-curve $-1 -15.000000000000099 -14.999999999999901 25 0 0 1 -15 1.04744440165294e-013 0 1 I I #
convexity-sys-attrib $-1 $-1 $248 $195 #
point $-1 -27.9903810567668 -7.5000000000000098 25 #
edge $300 $290 -0.52359877559830104 $288 3.3474457773586917e-015 $252 $289 forward 7 unknown #
attrib_edge_convexity-kcp-attrib $-1 $301 $-1 $254 1 #
vertex $-1 $286 $302 #
ellipse-curve $-1 5.4903810567664904 -20.490381056766601 25 0 0 1 -7.5000000000000604 -12.9903810567665 0 1 I I #
vertex $-1 $286 $303 #
straight-curve $-1 -7.5000000000001599 -27.990381056766498 0 0 0 -1 I I #
vertex $-1 $277 $304 #
ellipse-curve $-1 -15.000000000000099 -14.999999999999901 -25 0 0 -1 -15 1.04744440165294e-013 0 1 I I #
point $-1 -27.9903810567668 -7.5000000000000098 -25 #
point $-1 -27.990381056766701 18.480762113533 -25 #
point $-1 -7.5000000000001599 -27.990381056766498 -25 #
attrib_edge_convexity-kcp-attrib $-1 $305 $-1 $280 1 #
convexity-sys-attrib $-1 $-1 $281 $247 #
point $-1 -30.000000000000099 -14.999999999999799 25 #
attrib_edge_convexity-kcp-attrib $-1 $306 $-1 $286 1 #
convexity-sys-attrib $-1 $-1 $287 $254 #
point $-1 -2.00961894323357 -33.480762113533203 25 #
point $-1 -7.5000000000001599 -27.990381056766498 25 #
point $-1 -30.000000000000099 -14.999999999999799 -25 #
convexity-sys-attrib $-1 $-1 $297 $280 #
convexity-sys-attrib $-1 $-1 $300 $286 #
End-of-ACIS-data 