  0
SECTION
  2
HEADER
  9
$ACADVER
  1
AC1009
  9
$INSBASE
 10
0.0
 20
0.0
 30
0.0
  9
$EXTMIN
 10
-2.0
 20
-2.0
 30
0.0
  9
$EXTMAX
 10
18.0
 20
18.0
 30
10.0
  9
$LIMMIN
 10
0.0
 20
0.0
  9
$LIMMAX
 10
12.0
 20
9.0
  9
$ORTHOMODE
 70
     0
  9
$REGENMODE
 70
     1
  9
$FILLMODE
 70
     1
  9
$QTEXTMODE
 70
     0
  9
$MIRRTEXT
 70
     1
  9
$DRAGMODE
 70
     2
  9
$LTSCALE
 40
1.0
  9
$OSMODE
 70
     0
  9
$ATTMODE
 70
     1
  9
$TEXTSIZE
 40
0.2
  9
$TRACEWID
 40
0.05
  9
$TEXTSTYLE
  7
STANDARD
  9
$CLAYER
  8
0
  9
$CELTYPE
  6
BYLAYER
  9
$CECOLOR
 62
   256
  9
$DIMSCALE
 40
1.0
  9
$DIMASZ
 40
0.18
  9
$DIMEXO
 40
0.0625
  9
$DIMDLI
 40
0.38
  9
$DIMRND
 40
0.0
  9
$DIMDLE
 40
0.0
  9
$DIMEXE
 40
0.18
  9
$DIMTP
 40
0.0
  9
$DIMTM
 40
0.0
  9
$DIMTXT
 40
0.18
  9
$DIMCEN
 40
0.09
  9
$DIMTSZ
 40
0.0
  9
$DIMTOL
 70
     0
  9
$DIMLIM
 70
     0
  9
$DIMTIH
 70
     1
  9
$DIMTOH
 70
     1
  9
$DIMSE1
 70
     0
  9
$DIMSE2
 70
     0
  9
$DIMTAD
 70
     0
  9
$DIMZIN
 70
     0
  9
$DIMBLK
  1

  9
$DIMASO
 70
     1
  9
$DIMSHO
 70
     1
  9
$DIMPOST
  1

  9
$DIMAPOST
  1

  9
$DIMALT
 70
     0
  9
$DIMALTD
 70
     2
  9
$DIMALTF
 40
25.4
  9
$DIMLFAC
 40
1.0
  9
$DIMTOFL
 70
     0
  9
$DIMTVP
 40
0.0
  9
$DIMTIX
 70
     0
  9
$DIMSOXD
 70
     0
  9
$DIMSAH
 70
     0
  9
$DIMBLK1
  1

  9
$DIMBLK2
  1

  9
$DIMSTYLE
  2
*UNNAMED
  9
$DIMCLRD
 70
     0
  9
$DIMCLRE
 70
     0
  9
$DIMCLRT
 70
     0
  9
$DIMTFAC
 40
1.0
  9
$DIMGAP
 40
0.09
  9
$LUNITS
 70
     2
  9
$LUPREC
 70
     4
  9
$SKETCHINC
 40
0.1
  9
$FILLETRAD
 40
0.0
  9
$AUNITS
 70
     0
  9
$AUPREC
 70
     0
  9
$MENU
  1
acad
  9
$ELEVATION
 40
0.0
  9
$PELEVATION
 40
0.0
  9
$THICKNESS
 40
0.0
  9
$LIMCHECK
 70
     0
  9
$BLIPMODE
 70
     1
  9
$CHAMFERA
 40
0.0
  9
$CHAMFERB
 40
0.0
  9
$SKPOLY
 70
     0
  9
$TDCREATE
 40
2449411.036646840
  9
$TDUPDATE
 40
2449411.037957847
  9
$TDINDWG
 40
0.0013110069
  9
$TDUSRTIMER
 40
0.0013110069
  9
$USRTIMER
 70
     1
  9
$ANGBASE
 50
0.0
  9
$ANGDIR
 70
     0
  9
$PDMODE
 70
     0
  9
$PDSIZE
 40
0.0
  9
$PLINEWID
 40
0.0
  9
$COORDS
 70
     1
  9
$SPLFRAME
 70
     0
  9
$SPLINETYPE
 70
     6
  9
$SPLINESEGS
 70
     8
  9
$ATTDIA
 70
     0
  9
$ATTREQ
 70
     1
  9
$HANDLING
 70
     1
  9
$HANDSEED
  5
51
  9
$SURFTAB1
 70
     6
  9
$SURFTAB2
 70
     6
  9
$SURFTYPE
 70
     6
  9
$SURFU
 70
     6
  9
$SURFV
 70
     6
  9
$UCSNAME
  2

  9
$UCSORG
 10
0.0
 20
0.0
 30
0.0
  9
$UCSXDIR
 10
1.0
 20
0.0
 30
0.0
  9
$UCSYDIR
 10
0.0
 20
1.0
 30
0.0
  9
$PUCSNAME
  2

  9
$PUCSORG
 10
0.0
 20
0.0
 30
0.0
  9
$PUCSXDIR
 10
1.0
 20
0.0
 30
0.0
  9
$PUCSYDIR
 10
0.0
 20
1.0
 30
0.0
  9
$USERI1
 70
     0
  9
$USERI2
 70
     0
  9
$USERI3
 70
     0
  9
$USERI4
 70
     0
  9
$USERI5
 70
     0
  9
$USERR1
 40
0.0
  9
$USERR2
 40
0.0
  9
$USERR3
 40
0.0
  9
$USERR4
 40
0.0
  9
$USERR5
 40
0.0
  9
$WORLDVIEW
 70
     1
  9
$SHADEDGE
 70
     3
  9
$SHADEDIF
 70
    70
  9
$TILEMODE
 70
     1
  9
$MAXACTVP
 70
    16
  9
$PINSBASE
 10
0.0
 20
0.0
 30
0.0
  9
$PLIMCHECK
 70
     0
  9
$PEXTMIN
 10
1.000000E+20
 20
1.000000E+20
 30
1.000000E+20
  9
$PEXTMAX
 10
-1.000000E+20
 20
-1.000000E+20
 30
-1.000000E+20
  9
$PLIMMIN
 10
0.0
 20
0.0
  9
$PLIMMAX
 10
12.0
 20
9.0
  9
$UNITMODE
 70
     0
  9
$VISRETAIN
 70
     0
  9
$PLINEGEN
 70
     0
  9
$PSLTSCALE
 70
     1
  9
$TREEDEPTH
 70
  3020
  9
$DWGCODEPAGE
  3
ascii
  0
ENDSEC
  0
SECTION
  2
TABLES
  0
TABLE
  2
VPORT
 70
     2
  0
VPORT
  2
*ACTIVE
 70
     0
 10
0.0
 20
0.0
 11
1.0
 21
1.0
 12
-0.978974
 22
0.182574
 13
0.0
 23
0.0
 14
1.0
 24
1.0
 15
0.0
 25
0.0
 16
1.0
 26
2.0
 36
1.0
 17
0.0
 27
0.0
 37
0.0
 40
20.08316
 41
1.594883
 42
50.0
 43
0.0
 44
0.0
 50
0.0
 51
0.0
 71
     0
 72
   100
 73
     1
 74
     1
 75
     0
 76
     0
 77
     0
 78
     0
  0
ENDTAB
  0
TABLE
  2
LTYPE
 70
     1
  0
LTYPE
  2
CONTINUOUS
 70
    64
  3
Solid line
 72
    65
 73
     0
 40
0.0
  0
ENDTAB
  0
TABLE
  2
LAYER
 70
     2
  0
LAYER
  2
0
 70
    64
 62
     7
  6
CONTINUOUS
  0
LAYER
  2
AME_FRZ
 70
    65
 62
     7
  6
CONTINUOUS
  0
ENDTAB
  0
TABLE
  2
STYLE
 70
     1
  0
STYLE
  2
STANDARD
 70
     0
 40
0.0
 41
1.0
 50
0.0
 71
     0
 42
0.2
  3
txt
  4

  0
ENDTAB
  0
TABLE
  2
VIEW
 70
     0
  0
ENDTAB
  0
TABLE
  2
UCS
 70
     0
  0
ENDTAB
  0
TABLE
  2
APPID
 70
     3
  0
APPID
  2
ACAD
 70
    64
  0
APPID
  2
AME_SOL
 70
    64
  0
APPID
  2
AVE_INVOKE
 70
    64
  0
ENDTAB
  0
TABLE
  2
DIMSTYLE
 70
     0
  0
ENDTAB
  0
ENDSEC
  0
SECTION
  2
BLOCKS
  0
BLOCK
  8
0
  5
1
  2
AME_NIL
 70
    64
 10
0.0
 20
0.0
 30
0.0
  1
AME_NIL
  3
AME_NIL
  0
ENDBLK
  8
0
  5
2
  0
BLOCK
  8
0
  5
4
  2
AME_SOL
 70
    64
 10
0.0
 20
0.0
 30
0.0
  1
AME_SOL
  3
AME_SOL
  0
ENDBLK
  8
0
  5
5
  0
BLOCK
  8
0
  5
25
  2
*U4
 70
    65
 10
0.0
 20
0.0
 30
0.0
  1
*U
  3
*U
  0
LINE
  8
0
 62
     7
  5
26
 10
16.0
 20
16.0
 30
0.0
 11
16.0
 21
16.0
 31
10.0
1001
AME_SOL
1070
     1
1071
       45
  0
LINE
  8
0
 62
     7
  5
27
 10
16.0
 20
16.0
 30
10.0
 11
16.0
 21
0.0
 31
10.0
1001
AME_SOL
1070
     1
1071
       44
  0
LINE
  8
0
 62
     7
  5
28
 10
0.0
 20
16.0
 30
10.0
 11
16.0
 21
16.0
 31
10.0
1001
AME_SOL
1070
     1
1071
       43
  0
LINE
  8
0
 62
     7
  5
29
 10
0.0
 20
16.0
 30
0.0
 11
0.0
 21
16.0
 31
10.0
1001
AME_SOL
1070
     1
1071
       42
  0
LINE
  8
0
 62
     7
  5
2A
 10
0.0
 20
16.0
 30
10.0
 11
0.0
 21
0.0
 31
10.0
1001
AME_SOL
1070
     1
1071
       41
  0
LINE
  8
0
 62
     7
  5
2B
 10
0.0
 20
0.0
 30
0.0
 11
0.0
 21
0.0
 31
10.0
1001
AME_SOL
1070
     1
1071
       40
  0
LINE
  8
0
 62
     7
  5
2C
 10
16.0
 20
0.0
 30
10.0
 11
16.0
 21
0.0
 31
0.0
1001
AME_SOL
1070
     1
1071
       39
  0
LINE
  8
0
 62
     7
  5
2D
 10
0.0
 20
0.0
 30
10.0
 11
16.0
 21
0.0
 31
10.0
1001
AME_SOL
1070
     1
1071
       38
  0
LINE
  8
0
 62
     7
  5
2E
 10
0.0
 20
0.0
 30
0.0
 11
16.0
 21
0.0
 31
0.0
1001
AME_SOL
1070
     1
1071
       37
  0
LINE
  8
0
 62
     7
  5
2F
 10
0.0
 20
16.0
 30
0.0
 11
0.0
 21
0.0
 31
0.0
1001
AME_SOL
1070
     1
1071
       36
  0
LINE
  8
0
 62
     7
  5
30
 10
16.0
 20
0.0
 30
0.0
 11
16.0
 21
16.0
 31
0.0
1001
AME_SOL
1070
     1
1071
       35
  0
LINE
  8
0
 62
     7
  5
31
 10
16.0
 20
16.0
 30
0.0
 11
0.0
 21
16.0
 31
0.0
1001
AME_SOL
1070
     1
1071
       34
  0
LINE
  8
0
 62
     7
  5
32
 10
14.0
 20
0.0
 30
7.0
 11
2.0
 21
0.0
 31
7.0
1001
AME_SOL
1070
     1
1071
       33
  0
LINE
  8
0
 62
     7
  5
33
 10
0.0
 20
2.0
 30
7.0
 11
0.0
 21
14.0
 31
7.0
1001
AME_SOL
1070
     1
1071
       32
  0
LINE
  8
0
 62
     7
  5
34
 10
16.0
 20
14.0
 30
7.0
 11
16.0
 21
2.0
 31
7.0
1001
AME_SOL
1070
     1
1071
       31
  0
LINE
  8
0
 62
     7
  5
35
 10
2.0
 20
16.0
 30
7.0
 11
14.0
 21
16.0
 31
7.0
1001
AME_SOL
1070
     1
1071
       30
  0
LINE
  8
0
 62
     7
  5
36
 10
2.0
 20
0.0
 30
3.0
 11
14.0
 21
0.0
 31
3.0
1001
AME_SOL
1070
     1
1071
       29
  0
LINE
  8
0
 62
     7
  5
37
 10
0.0
 20
14.0
 30
3.0
 11
0.0
 21
2.0
 31
3.0
1001
AME_SOL
1070
     1
1071
       28
  0
LINE
  8
0
 62
     7
  5
38
 10
16.0
 20
2.0
 30
3.0
 11
16.0
 21
14.0
 31
3.0
1001
AME_SOL
1070
     1
1071
       27
  0
LINE
  8
0
 62
     7
  5
39
 10
14.0
 20
16.0
 30
3.0
 11
2.0
 21
16.0
 31
3.0
1001
AME_SOL
1070
     1
1071
       26
  0
ARC
  8
0
 62
     7
  5
3A
 10
8.0
 20
8.0
 30
3.0
 40
10.0
 50
126.869898
 51
143.130102
1001
AME_SOL
1070
     1
1071
       25
  0
ARC
  8
0
 62
     7
  5
3B
 10
8.0
 20
8.0
 30
3.0
 40
10.0
 50
36.869898
 51
53.130102
1001
AME_SOL
1070
     1
1071
       24
  0
ARC
  8
0
 62
     7
  5
3C
 10
8.0
 20
8.0
 30
3.0
 40
10.0
 50
306.869898
 51
323.130102
1001
AME_SOL
1070
     1
1071
       23
  0
ARC
  8
0
 62
     7
  5
3D
 10
8.0
 20
8.0
 30
3.0
 40
10.0
 50
216.869898
 51
233.130102
1001
AME_SOL
1070
     1
1071
       22
  0
LINE
  8
0
 62
     7
  5
3E
 10
2.0
 20
0.0
 30
3.0
 11
2.0
 21
0.0
 31
7.0
1001
AME_SOL
1070
     1
1071
       21
  0
LINE
  8
0
 62
     7
  5
3F
 10
14.0
 20
0.0
 30
3.0
 11
14.0
 21
0.0
 31
7.0
1001
AME_SOL
1070
     1
1071
       20
  0
LINE
  8
0
 62
     7
  5
40
 10
0.0
 20
2.0
 30
3.0
 11
0.0
 21
2.0
 31
7.0
1001
AME_SOL
1070
     1
1071
       19
  0
LINE
  8
0
 62
     7
  5
41
 10
0.0
 20
14.0
 30
3.0
 11
0.0
 21
14.0
 31
7.0
1001
AME_SOL
1070
     1
1071
       18
  0
LINE
  8
0
 62
     7
  5
42
 10
16.0
 20
2.0
 30
3.0
 11
16.0
 21
2.0
 31
7.0
1001
AME_SOL
1070
     1
1071
       17
  0
LINE
  8
0
 62
     7
  5
43
 10
16.0
 20
14.0
 30
3.0
 11
16.0
 21
14.0
 31
7.0
1001
AME_SOL
1070
     1
1071
       16
  0
LINE
  8
0
 62
     7
  5
44
 10
14.0
 20
16.0
 30
3.0
 11
14.0
 21
16.0
 31
7.0
1001
AME_SOL
1070
     1
1071
       15
  0
LINE
  8
0
 62
     7
  5
45
 10
2.0
 20
16.0
 30
3.0
 11
2.0
 21
16.0
 31
7.0
1001
AME_SOL
1070
     1
1071
       14
  0
ARC
  8
0
 62
     7
  5
46
 10
8.0
 20
8.0
 30
7.0
 40
10.0
 50
126.869898
 51
143.130102
1001
AME_SOL
1070
     1
1071
       13
  0
ARC
  8
0
 62
     7
  5
47
 10
8.0
 20
8.0
 30
7.0
 40
10.0
 50
36.869898
 51
53.130102
1001
AME_SOL
1070
     1
1071
       12
  0
ARC
  8
0
 62
     7
  5
48
 10
8.0
 20
8.0
 30
7.0
 40
10.0
 50
306.869898
 51
323.130102
1001
AME_SOL
1070
     1
1071
       11
  0
ARC
  8
0
 62
     7
  5
49
 10
8.0
 20
8.0
 30
7.0
 40
10.0
 50
216.869898
 51
233.130102
1001
AME_SOL
1070
     1
1071
       10
  0
ENDBLK
  8
0
  5
4A
  0
BLOCK
  8
0
  5
4E
  2
AME_JNK
 70
     0
 10
0.0
 20
0.0
 30
0.0
  1
AME_JNK
  3
AME_JNK
  0
ENDBLK
  8
0
  5
4F
  0
ENDSEC
  0
SECTION
  2
ENTITIES
  0
INSERT
  8
AME_FRZ
  5
3
  2
AME_NIL
 10
0.0
 20
0.0
 30
0.0
  0
INSERT
  8
AME_FRZ
  5
6
  2
AME_SOL
 10
0.0
 20
0.0
 30
0.0
1001
AME_SOL
1000
R2.1
1000
AME2
1000
sq cm
1070
     3
1070
     0
1070
     3
1000
wire
1040
45.0
1000
U
1040
1.0
1000
cm
1000
gm
1000
MILD_STEEL
1070
    25
1000
CSG
1070
     1
1070
     3
1070
     3
1070
     3
1070
     0
1000
cu cm
1070
     1
1070
     0
1005
3
  0
INSERT
  8
AME_FRZ
  5
15
  2
AME_NIL
 10
0.0
 20
0.0
 30
0.0
1001
AME_SOL
1002
{
1070
     1
1071
  2393448
1070
  1536
1070
     1
1010
16.0
1020
16.0
1030
10.0
1005
0
1005
0
1005
4B
1040
0.0
1040
1.0
1070
     0
1000
MILD_STEEL
1000
0
1010
0.0
1020
0.0
1030
0.0
1010
0.0
1020
0.0
1030
1.0
1040
0.0
1002
}
1001
AVE_INVOKE
1000
SOLAVEMESH
  0
INSERT
  8
AME_FRZ
  5
21
  2
AME_NIL
 10
8.0
 20
8.0
 30
3.0
1001
AME_SOL
1002
{
1070
     1
1071
  2387760
1070
  1538
1070
     1
1010
10.0
1020
10.0
1030
4.0
1005
0
1005
0
1005
4B
1040
0.0
1040
1.0
1070
     0
1000
MILD_STEEL
1000
0
1010
8.0
1020
8.0
1030
3.0
1010
0.0
1020
0.0
1030
1.0
1040
0.0
1002
}
1001
AVE_INVOKE
1000
SOLAVEMESH
  0
INSERT
  8
0
  5
4B
  2
*U4
 10
0.0
 20
0.0
 30
0.0
1001
AME_SOL
1002
{
1070
     1
1071
  2414488
1070
  1543
1070
     1
1070
     0
1005
15
1005
21
1005
0
1005
4C
1005
0
1040
0.0
1040
1.0
1070
     0
1000
MILD_STEEL
1000
0
1002
}
1001
AVE_INVOKE
1000
SOLAVEMESH
  0
INSERT
  8
AME_FRZ
  5
4C
  2
AME_NIL
 10
1.0
 20
1.0
 30
1.0
1001
AME_SOL
1004
C7CF01001F018F018E018C01880181017401A000FE0075013000660153013B01230026011D0110016500A9001101700019008F007800540132004E00820176011800670155011C003C0104000C009600770168018000C0002500890183017801690156013D017F0050003E01A30027016100920057013F01
1004
28018C00B60029015D00F90040012A0197009E002B01850067006A01580141012C01E400E1002D014400AC0042012E016B00BB002F011E012C00DF001F0148004D00590143013001200112011F00F7001301DA00D40021011401BC00B8001501680001010900000131012201160102010F00110003011300
1004
1500170104011E00220005019800F800230118010601F6002D0007012E00380019010801E800D80009015200D000FD0079012400F00084017A016B015A01990090005B01310044016D0021006C015C014501490051004601320124011A010A01CB007D000B017C007B001B010C01CA0079000D01C9006200
1004
600007005D01A400EE007B016D015E014701D700B1004801CE00B0005F014901330117001B003401F400F2004A013501EA00E70036017A00E00028008D018A01FF0085017C016E010600A8006F0160014B0137017200D90038017E0025011C010E01760064000F0174007300EC00080075007D01BF000100
1004
8B0186017E01700161014C012F003901FB0003001400940071010A0062014D011000AF004E01F300F5007F01720163014F0184003A0158005F005001BE004F0005003F00870140008001730164015101EB00260020006501C8005201FC00ED00020000003B1833B1830C96097BD911326F130933ABF69B89
1004
D0C8F8D69B89D0C8F8D7CF0014118ACC94A36A1A873992946D4350E7309050802B645397EC11D6CCB4DC4E8647C6B4DC4E8647C69C567E72381ADCC94A36A1A873992946D4350E71E00282308A3979D81EF46055135E6A0E7607FF96DFFFFFFFE5B7FFFBCBBF7972FF55735FE53BF29DFFFFFE7607FF96DF
1004
FFFFFFE5B7FFFBCBBF7972FF55735FE53BF29DFFFFF96B12F3B183E2D5FF96DFFFFFFFE5B7FE0A222222C7FDE5CBFD55CFD507811421088854896AA0F0228421110A9346BFF25E763FC5ABFF2DBFFFFFFFCB6FFC98911110981C0A222222CBFD55CFD507811421088854896AA0F0228421110A9346BFF25E
1004
762FC5ABFF2DBFFFFFFFCB6FFFF0E77EF2E5FEAAE7EA83C08A1084442A44B55078114210888549A35FF92F3B3C5ABFF2DBFFFFFFFCB6FFC98911110981DF87397FAAB9FAA0F0228421110A912D541E04508422215268D7FEC11D6AB69B89D0C8F8D69B89D0C8F8D38ACFCE47035B992946D4350E732528DA
1004
86A1CE34B89D0C8F5572F680786B48AA26BCD49DA01FFE5B7FFFFFC67E5ADFC67EF2EFDE5CBFD55CD7FFFFFFFFFED00FFF2DBFFFFFE33F2D6FE33F7977EF2E5FEAAE6BFFFFFFFFFCB59823AD56D3713A191F1AD3713A191F1AA8B46BCED781D2E64A51B50D439CC94A36A1A8738F0014118451CBDA01E62B
1004
1544D79A9BB403FFCB6FFFFFFFF2DBFFFDE5DFBCBBF14735FFFFFFFFFFB403FFCB6FFFFFFFF2DBFFFDE5DFBCB97F8A39AFFFFFFFFFF2D6608EB155F3C0050462B3E7800A08C567CF0014118ACC94A36A1A84E64A51B50D4273E7800A08C5B5ED00F2DA21EBF5E1CBED00FFFFF2DBFFFCB6FFFFFFFFFFDAFF
1004
FFFFFFFFDA01FFFFE5B7FFF96DFFFFFFFFFFB5FFFFFFFFFE5B6C11D6AB7CF0014118ACF9E002823159F3C0050462B32528DA86A139F3C0050462DB09050802B645397B403C2330F5FAF325F6807FF96DFFFFFFFFFE5B7FFFFFED7FFFFFFFFFED00FFF2DBFFFFFFFFFCB6FFFFFFDAFFFFFFFFFF2DB608EB55
1004
BE7800A08C567CF0014118ACF9E002823159F3C0050462DB2528DA86A139848284015B229CBDA01E73340F5FAF097DA01FFFFFFE5B7FFF96DFFFFFFFFB5FFFFFFFFFFB403FFFFFFCB6FFFF2DBFFFFFFFF6BFFFFFFFFFCB6D823AC557CF0014118ACF9E00282315953B36319CCF0C3992946D43509CC94A36
1004
A1A84E6120A10056C8A72F6807868E3D7EBD80BED00FFF2D6FE33F8CFE33F2D6FE33F09DF84EFCA735FFFFFFFFFFB403FFCB5BF8CFE33F8CFCB5BF8CFC277E13BF29CD7FFFFFFFFF96DB0475AADF3C0050462B3DD9B18CE67B01CF9E00282315992946D43509CC94A36A1A84E6120A10056C8A72F680798B
1004
C47AFD793697DA01FFF19FC67E5ADF96B7F19FC67E13BF09DF94E6BFFFFFFFFFF6807FFC67F19F96B7E5ADFC67F19F84EFC277E539AFFFFFFFFFF2DB608EB55BDD9B18CE67B01CF9E002823159F3C0050462B32528DA86A13992946D43509CC2414200AD914E5ED00F7A338F5FAF26CAFB403FFE33F2D6FE
1004
33F8CFE33F2D6FC277E13BF29CD7FFFFFFFFFED00FFF8CFCB5BF8CFE33F8CFCB5BF09DF84EFCA735FFFFFFFFFE5B66C6ED3713A191F1AD3713A191F1AA8B46BCED781D2E64A51B50D439CC94A36A1A8738F0014118451C6A91C77128743D9831A49349E04392244AE35FBD9593293507EBD11E8C0A98AC57
1004
7E62B157A302A88888888F657FE5B7FFFFFFF96DFFFEF2EFDE5CBFC51C2AFE53BF29C6A91C77128743D9831A49349E04392244AE34D8DDA6E274323E35A6E274323E355168D79DAF03A5CC94A36A1A873992946D4350E71E00282308A38D24A90CD48F24DEEB1DE46BC48419918482CFDECAC971A9C7EBD1
1004
1E8C0A98AC577E62B157A302A88888888F657FE5B7FFFFFFF96DFFFEF2EFDE5CBFC51C2AFE53BF29C69254866A47926F758EF235E2420CC8C2416363769B89D0C8F8D69B89D0C8F8D545A35E76BC0E9732528DA86A1CE64A51B50D439C7800A08C228E3BC8D7890833230906CD24A90CD48F24DEEDBF7B2B
1004
26B2A647EBD11E8C0A98AC577E62B157A302A88888888F657FE5B7FFFFFFF96DFFFEF2EFDE5CBFC51C2AFE53BF29C7791AF12106646120D9A495219A91E49BDDB363769B89D0C8F8D69B89D0C8F8D545A35E76BC0E9732528DA86A1CE64A51B50D439C7800A08C228E249A4F021C91225771AA471DC4A1D0
1004
F660DCFDECAD48640FD7A23D18153158AEFCC562AF4605511111111ECAFFCB6FFFFFFFF2DBFFFDE5DFBCB97F8A3855FCA77E53892693C087244895DC6A91C77128743D98371B1BBE7800A08C567BB36319CCF6038E2B3F391C0D6E64A51B50D42732528DA86A138F0014118451DFFFB31CFC5AB1AD31FAF4
1004
47A302A62F11FBF31788F7A302ABF444416AFFCB6FFFFFFFF2DBFF157EEFC272FF5573FFFFD98E36377CF0014118ACF766C63399EC071C567E72381ADCC94A36A1A84E64A51B50D4271E00282308A3BFFF6639F8B567326A8FD117BD181531788FDFBD181531788F44445F8B57FE5B7FFFFFFF96DFFFE4B1
1004
DF84E5FEAAE7FFFFB31C6C6EF766C63399EC073E7800A08C5638ACFCE47035B992946D43509CC94A36A1A84E3C00504611477FFECC73F16AC994543F5E88F46055E8CE3F7EF4671EF460557E88882D5FF96DFFFFFFFE5B7FFF84EFC96397FAAB9FFFFECC71B1BBDD9B18CE67B01CF9E002823158E2B3F391
1004
C0D6E64A51B50D42732528DA86A138F0014118451DFFFB31CFC5AB25C4D01FA22F7A302AF4671FBF7A302AF4671E8888BF16AFFCB6FFFFFFFF2DBFFFC270ABF72FF5573FFFFD98E36377CF0014118ACF9E002823158E2B3F391C0D6E7CF0014118B6C94A36A1A84E3C00504611477FFECC73F16ADA2660FD
1004
117BD1815399A07EFDE8C0A9CCD03D11117E2D5FF96DFFFFFFFE5B7FFFFF92C72FF5573FFFFD98E36377CF0014118ACF9E002823158E2B3F391C0D6E7CF0014118B6C94A36A1A84E3C00504611477FFECC73F16AC9989A23F5E88F46054E6681FBF399A07BD18155FA2220B57FE5B7FFFFFFF96DFFFFBFFB
1004
97FAAB9FFFFECC71B1BBE7800A08C567CF0014118AC7159F9C8E06B732528DA86A139F3C0050462D9E00282308A3BFFF6639F8B56F44D21FAF447A302A11987EFC2330F7A302ABF444416AFFCB6FFFFFFFF2DBFFFC963BF2632645FEAAE7FFFFB31C6C6EF9E002823159F3C0050462B1C567E72381ADCC94
1004
A36A1A84E7CF0014118B67800A08C228EFFFD98E7E2D59375847E88BDE8C0A84661FBF7A302A11987A2222FC5ABFF2DBFFFFFFFCB6FFC55FBBF2632645FEAAE7FFFFB31C6C6ED3713A191F1AD3713A191F1A7159F9C8E06B732528DA86A1CE64A51B50D439C69713A191EAAE3548E3B8943A1ECC18D249A4
1004
F021C9122571AFDECAC9B84D31FA22F7A302A1AD22BBF7A302A1AD22A88888888F657FE5B7FFFFFFF96DFFFEF2EFDE5CBFD55C2AFE53BF29C6A91C77128743D9831A49349E04392244AE34D8DDA6E274323E35A6E274323E34E2B3F391C0D6E64A51B50D439CC94A36A1A8738D2E274323D55C69254866A4
1004
7926F758EF235E2420CC8C24167EF656AA740FD117BD18150D6915DFBD18150D6915444444447B2BFF2DBFFFFFFFCB6FFFF7977EF2E5FEAAE157F29DF94E3492A433523C937BAC7791AF12106646120B1B1BB4DC4E8647C6B4DC4E8647C69C567E72381ADCC94A36A1A873992946D4350E71A5C4E8647AAB
1004
8EF235E2420CC8C241B3492A433523C937BB6FDECACF107E88BDE8C0A86B48AEFDE8C0A86B48AA22222223D95FF96DFFFFFFFE5B7FFFBCBBF7972FF5570ABF94EFCA71DE46BC48419918483669254866A47926F76CD8DDA6E274323E35A6E274323E34E2B3F391C0D6E64A51B50D439CC94A36A1A8738D2E
1004
274323D55C49349E04392244AEE3548E3B8943A1ECC1B9FBD9592E0CB1FA22F7A302A1AD22BBF7A302A1AD22A88888888F657FE5B7FFFFFFF96DFFFEF2EFDE5CBFD55C2AFE53BF29C49349E04392244AEE3548E3B8943A1ECC1B8D8DDF3C0050462B3DD9B18CE67B01C7159F9C8E06B732528DA86A139929
1004
46D43509C69713A191EAAE3A91111116FCA73F16AC46715D7A206B48A98BC47EFCC5E23C35A4557E88882D5FFFF96DFFFFFFFE5ACBFCF77E1397FAAB9F9D4888888B7E538D8DDEECD8C6733D80E7CF0014118AC7159F9C8E06B732528DA86A13992946D43509C69713A191EAAEFCA1A7522222236FC5AB3C
1004
EA2BAF440D69157A338FDFBD19C786B48AAFD11105ABFF2DBFFFFFFFFFCB5BF09CBFCF72FF5573FFCA1A75222222366C6EF9E002823159F3C0050462B1C567E72381ADCF9E00282316D92946D43509C69713A191EAAE4444440C0D22D111111B7E2D5936D9E575E881AD22A73340FDF9CCD03C35A4557E88
1004
882D5FF96B7FFFFFFFFE5ADFFFB31CBFD55CFD11111030348B4444446CD8DDF3C0050462B3E7800A08C5638ACFCE47035B992946D43509CF9E00282316CD2E274323D55C45A222222C8888881873F16AC971360AEBD1035A4542330FDF84661E1AD22ABF444416AFFFFCB5BFFFFFFF2D6FD98EFF5FEAAE7E
1004
45A222222C8888881871B1BBE7800A08C567BB36319CCF60395168D79DAF03A5CC94A36A1A84E64A51B50D4271E00282308A3BF2869D4888888DBF16ADA22612BAF443158A98BC47EFCC5E23CC562ABF444416AFFFFCB6FFFFFFFF2DB5FE7BBF09CBFC51CFFF2869D4888888D9B1BBDD9B18CE67B01CF9E0
1004
028231595168D79DAF03A5CC94A36A1A84E64A51B50D4271E00282308A38EA4444445BF29CFC5AB26626B95D7A218AC55E8CE3F7EF4671E62B155FA2220B57FE5B7FFFFFC67FFE5B7F84E5FE7B97F8A39F9D4888888B7E538D8DDF3C0050462B3E7800A08C56545A35E76BC0E973E7800A08C5B64A51B50D
1004
4271E00282308A388B4444445911111030E7E2D58D5407EBD10C562A73340FDF9CCD03CC562ABF444416AFFCB5BFFFFFFFFF2DBFFFD98E5FE28E7E45A222222C8888881871B1BBE7800A08C567CF0014118ACA8B46BCED781D2E64A51B50D4273E7800A08C5B3C00504611472222220606916888888DBF16
1004
AC6AA6C7EBD10C562A11987EFC2330F3158AAFD11105ABFFFF2D6FFFFFFFCB6FF663BFD7F8A39FA222220606916888888D9B1BBE7800A08C567BB36319CCF6039F3C0050462B32528DA86A13992946D43509CF9E00282316FF791BFBCB9F8B564DF54D0FD11796D10F31788FDF96D10F31788F5FAFC5ABFF
1004
FF2DBFFFFFFFCB5BF7977E13BFDFFEF237F7971B1BBDD9B18CE67B01CF9E002823159F3C0050462B32528DA86A13992946D43509CF9E00282316FF791BFBCB9F8B5677AB1FA22F2DA21EF4671FBF2DA21EF4671EBF5F8B57FE5B7FFFFFFFFF96B7E13BF7977FBFFDE46FEF2E36377CF0014118ACF9E00282
1004
3159F3C0050462B3E7800A08C5B64A51B50D4273E7800A08C5BFC21BFC63F16ACB54C0FD11796D10F399A07EFCB68879CCD03D7EBF16AFFCB5BFFFFFFFFF2D6FFFFFF7FF8437F8C36377CF0014118ACF9E002823159F3C0050462B32528DA86A139F3C0050462DBE7800A08C5BFFFC273F16AE1A3F445E5B
1004
443C2330FDF96D10F08CC3D7EBF16AFFFFCB5BFFFFFFF2D6FFFFFF7FFFF84E36377CF0014118ACF9E00282315953B36319CCF0C3992946D43509CF9E00282316D848284015B229DFBC8DFDE5CFC5AB661A947E88BC2330F0D1C7EFC2330F0D1C7AFD7E2D5FFFFFF96DFFFE5ADFFFBCBBFFF29CFFF791BFBC
1004
B8D8DDEECD8C6733D80E7CF0014118ACF9E00282315992946D43509CF9E00282316D848284015B229DFB08DFD85CFC5AB793B87E88BC2330F7A338FDF84661EF4671EBF5F8B57FE5B7FFFFFFF96B7FFE13BFFF6173FFD846FEC2E36377CF0014118ACF9E002823159F3C0050462B3E7800A08C5B7CF00141
1004
18B6C2414200AD914EFFFCA73F16AC23518FD11784661E73340FDF84661E73340F5FAFC5ABFF2D6FFFFFFFCB5BFFFFFFFDFFFFE538D8DDF3C0050462B3E7800A08C5654ECD8C6733C30E7CF0014118B6C94A36A1A84E6120A10056C8A77EF237F7973F16ADC6A21FA22F399A07868E3F7E73340F0D1C7AFD
1004
7E2D5FFFFFF96DFE5ADFFFFFFFBCBBF29CFFF791BFBCB8D8DDF3C0050462B3DD9B18CE67B01CF9E002823159F3C0050462DB2528DA86A139848284015B229DFB08DFD85CFC5AB209A847E88BCE6681E62F11FBF399A0798BC47AFD7E2D5FFFF96DFFFE5ADFFFFFFF84EFD85CFFF611BFB0B8D8DDF3C00504
1004
62B3DD9B18CE67B01CA9D9B18CE67861CC94A36A1A84E64A51B50D427309050802B6453BF086FF18FC5AB355521FA22F0D1C798BC47EFC3471E62F11EBF5F8B57FFFE5B7FFFFFFF96DFE13BF09DF94E7FF8437F8C36377BB36319CCF6039F3C0050462B2A766C63399E18732528DA86A13992946D43509CC
1004
2414200AD914EFFFC273F16AC328803F445E1A38F7A338FDF868E3DE8CE3D7EBF16AFFCB6FFFFFF8CFFFCB6FF09DF84EFCA73FFFFC271B1BBDD9B18CE67B01CF766C63399EC073E7800A08C5664A51B50D42732528DA86A139848284015B229DF9437F8C7E2D58C183F445E62F11EF4671FBF31788F7A338
1004
F5FAFC5ABFF2DBFFFFFFFCB6FFFF09DF84EFCA73FFCA1BFC6065BD899E
1005
4D
  0
INSERT
  8
AME_FRZ
  5
4D
  2
AME_NIL
 10
1.0
 20
1.0
 30
1.0
1001
AME_SOL
1004

1005
0
  0
ENDSEC
  0
EOF
