600 0 1 0           
116 GICL Pro/E ACIS Translator - Source: f:/data5/repository/PTC/V20/web_demos/models/4axismill/cone_casting.prt.1 - 6 0 13 ACIS 6.0.3 NT 24 Thu Apr 04 13:11:51 2002 
1 9.9999999999999995e-007 1e-010 
body $-1 $1 $-1 $2 #
lump $-1 $-1 $3 $0 #
transform $-1 1 0 0 0 1 0 0 0 1 0 0 0 25.399999999999999 no_rotate no_reflect no_shear #
shell $-1 $-1 $-1 $4 $-1 $1 #
face $-1 $5 $6 $3 $-1 $7 reversed single #
face $-1 $8 $9 $3 $-1 $10 forward single #
loop $-1 $-1 $11 $4 #
plane-surface $-1 0 0 0 1 0 0 0 -1 0 forward_v I I I I #
face $-1 $12 $13 $3 $-1 $14 forward single #
loop $-1 $-1 $15 $5 #
cone-surface $-1 3.2375455818158212 0 0 1 0 0 0 -2.25 0 1 I I 0 1 2.25 forward I I I I #
coedge $-1 $16 $16 $15 $17 reversed $6 $-1 #
face $-1 $18 $19 $3 $-1 $20 forward single #
loop $-1 $-1 $21 $8 #
cone-surface $-1 3.2375455818158212 0 0 1 0 0 0 -2.25 0 1 I I 0 1 2.25 forward I I I I #
coedge $-1 $22 $23 $11 $17 forward $9 $-1 #
coedge $-1 $11 $11 $21 $24 reversed $6 $-1 #
edge $-1 $25 0 $26 3.1415926535897931 $11 $27 forward 7 unknown #
face $-1 $28 $29 $3 $-1 $30 forward single #
loop $-1 $-1 $31 $12 #
cone-surface $-1 0.79393302709895286 0 0 1 0 0 0 -2.7474774194546292 0 1 I I -0.93969262078590865 0.34202014332566799 2.7474774194546292 forward I I I I #
coedge $-1 $32 $33 $16 $24 forward $13 $-1 #
coedge $-1 $34 $15 $33 $35 reversed $9 $-1 #
coedge $-1 $15 $34 $32 $36 reversed $9 $-1 #
edge $-1 $26 0 $25 3.1415926535897927 $16 $37 forward 7 unknown #
vertex $-1 $24 $38 #
vertex $-1 $24 $39 #
ellipse-curve $-1 0 -1.1102230246251565e-016 3.3306690738754696e-016 1 0 0 0 -2.25 -3.3306690738754696e-016 1 I I #
face $-1 $40 $41 $3 $-1 $42 reversed single #
loop $-1 $-1 $43 $18 #
cone-surface $-1 0.79393302709895286 0 0 1 0 0 0 -2.7474774194546292 0 1 I I -0.93969262078590865 0.34202014332566799 2.7474774194546292 forward I I I I #
coedge $-1 $44 $45 $46 $47 forward $19 $-1 #
coedge $-1 $46 $21 $23 $36 forward $13 $-1 #
coedge $-1 $21 $46 $22 $35 forward $13 $-1 #
coedge $-1 $23 $22 $48 $49 forward $9 $-1 #
edge $-1 $50 0 $26 0.97499999999999964 $33 $51 forward 7 unknown #
edge $-1 $25 0 $52 0.97499999999999964 $32 $53 forward 7 unknown #
ellipse-curve $-1 0 0 -4.4408920985006262e-016 1 0 0 0 2.25 4.4408920985006262e-016 1 I I #
point $-1 0 -2.25 0 #
point $-1 0 2.25 0 #
face $-1 $54 $55 $3 $-1 $56 forward single #
loop $-1 $-1 $57 $28 #
torus-surface $-1 1.4222551308482207 0 0 1 0 0 1.7521277273000615 0.25 0 -1 0 forward_v I I I I #
coedge $-1 $58 $59 $60 $61 forward $29 $-1 #
coedge $-1 $62 $31 $58 $63 forward $19 $-1 #
coedge $-1 $31 $62 $59 $64 reversed $19 $-1 #
coedge $-1 $33 $32 $31 $47 reversed $13 $-1 #
edge $-1 $50 -3.8956094084988246e-032 $52 3.1415926535897931 $46 $65 forward 7 unknown #
coedge $-1 $59 $58 $34 $49 reversed $29 $-1 #
edge $-1 $50 1.9478047042494123e-032 $52 3.1415926535897931 $34 $66 forward 7 unknown #
vertex $-1 $35 $67 #
straight-curve $-1 0.97499999999999964 2.25 2.7553642961003488e-016 -1 0 0 I I #
vertex $-1 $47 $68 #
straight-curve $-1 0 -2.25 -5.5107285922006977e-016 1 0 0 I I #
face $-1 $69 $70 $3 $-1 $71 forward single #
loop $-1 $-1 $72 $40 #
cone-surface $-1 0.7230815738695453 0 0 -1 0 0 0 -0.83909963117727915 0 1 I I -0.64278760968653892 0.76604444311897835 0.83909963117727915 forward I I I I #
coedge $-1 $73 $74 $75 $76 forward $41 $-1 #
coedge $-1 $48 $43 $44 $63 reversed $29 $-1 #
coedge $-1 $43 $48 $45 $64 forward $29 $-1 #
coedge $-1 $74 $73 $43 $61 reversed $41 $-1 #
edge $-1 $77 0 $78 3.1415926535897931 $43 $79 forward 7 unknown #
coedge $-1 $45 $44 $80 $81 reversed $19 $-1 #
edge $-1 $52 -4.9325108106789933e-016 $78 0.620817165011324 $44 $82 forward 7 unknown #
edge $-1 $50 -4.9325108106789933e-016 $77 0.62081716470589088 $45 $83 forward 7 unknown #
ellipse-curve $-1 0.97499999999999987 0 -2.2204460492503131e-016 1 0 0 0 2.2499999999999996 4.9758103453506619e-016 1 I I #
ellipse-curve $-1 0.97499999999999987 0 -1.1102230246251565e-016 -1 0 0 0 2.2499999999999996 3.8655873207255049e-016 1 I I #
point $-1 0.97499999999999964 2.25 2.7553642961003488e-016 #
point $-1 0.97499999999999964 -2.25 -5.5107285922006977e-016 #
face $-1 $84 $85 $3 $-1 $86 reversed single #
loop $-1 $-1 $87 $54 #
cone-surface $-1 4.497595264191645 0 0 1 0 0 0 -0.57735026918962595 0 1 I I -0.50000000000000011 0.8660254037844386 0.57735026918962595 forward I I I I #
coedge $-1 $88 $89 $90 $91 forward $55 $-1 #
coedge $-1 $60 $57 $92 $93 reversed $41 $-1 #
coedge $-1 $57 $60 $94 $95 forward $41 $-1 #
coedge $-1 $89 $88 $57 $76 reversed $55 $-1 #
edge $-1 $96 0 $97 3.1415926535897931 $57 $98 forward 7 unknown #
vertex $-1 $64 $99 #
vertex $-1 $81 $100 #
ellipse-curve $-1 1.187331975756208 0 0 -1 0 0 0 1.6666226911816309 2.0409567370455749e-016 1 I I #
coedge $-1 $92 $94 $62 $81 forward $101 $-1 #
edge $-1 $77 0 $78 3.1415926535897931 $62 $102 forward 7 unknown #
straight-curve $-1 0.97499999999999987 -2.2499999999999996 -5.5107285922006967e-016 0.34202014332566777 0.93969262078590865 2.3015071081088514e-016 I I #
straight-curve $-1 0.97499999999999987 2.2499999999999996 2.7553642961003483e-016 0.34202014332566777 -0.93969262078590865 -1.1507535540544257e-016 I I #
face $-1 $103 $104 $3 $-1 $105 reversed single #
loop $-1 $-1 $106 $69 #
cone-surface $-1 3.1102246899993649 0 0 -1 0 0 0 -5.671281819617759 0 1 I I -0.98480775301220835 0.17364817766692889 5.671281819617759 forward I I I I #
coedge $-1 $107 $108 $109 $110 forward $70 $-1 #
coedge $-1 $75 $72 $111 $112 reversed $55 $-1 #
coedge $-1 $72 $75 $113 $114 forward $55 $-1 #
coedge $-1 $108 $107 $72 $91 reversed $70 $-1 #
edge $-1 $115 0 $116 3.1415926535897931 $72 $117 forward 7 unknown #
coedge $-1 $118 $80 $73 $93 forward $101 $-1 #
edge $-1 $78 0 $97 1.9198621759720274 $92 $119 forward 7 unknown #
coedge $-1 $80 $118 $74 $95 reversed $101 $-1 #
edge $-1 $77 -1.2217323264174197e-009 $96 1.919862175972028 $94 $120 forward 7 unknown #
vertex $-1 $95 $121 #
vertex $-1 $122 $123 #
ellipse-curve $-1 1.5829520332698552 0 0 -1 0 0 0 1.5606166165203168 1.9111410244715605e-016 1 I I #
point $-1 1.1873319756517433 1.6666226914686439 2.0409567373970528e-016 #
point $-1 1.187331975756208 -1.6666226911816309 0 #
loop $-1 $-1 $80 $124 #
ellipse-curve $-1 1.187331975756208 0 0 1 0 0 0 1.6666226911816309 2.0409567370455749e-016 1 I I #
face $-1 $125 $126 $3 $-1 $127 forward single #
loop $-1 $-1 $128 $84 #
torus-surface $-1 2.5835203326781468 0 0 1 0 0 0.95656182868537609 0.29999999999999999 0 -1 0 forward_v I I I I #
coedge $-1 $129 $130 $131 $132 forward $85 $-1 #
coedge $-1 $90 $87 $133 $134 reversed $70 $-1 #
coedge $-1 $87 $90 $135 $136 forward $70 $-1 #
coedge $-1 $130 $129 $87 $110 reversed $85 $-1 #
edge $-1 $137 -4.3034467156472535e-032 $138 3.1415926535897931 $87 $139 forward 7 unknown #
coedge $-1 $140 $141 $88 $112 forward $142 $-1 #
edge $-1 $97 -6.0175087665568561e-032 $116 0.64466610313437922 $111 $143 forward 7 unknown #
coedge $-1 $141 $140 $89 $114 reversed $142 $-1 #
edge $-1 $96 1.7009603572736919e-016 $115 0.64466610313437878 $113 $144 forward 7 unknown #
vertex $-1 $114 $145 #
vertex $-1 $146 $147 #
ellipse-curve $-1 2.0767949192431123 0 0 -1 0 0 0 1.9750000000000005 2.4185975487991959e-016 1 I I #
coedge $-1 $94 $92 $141 $122 reversed $101 $-1 #
ellipse-curve $-1 1.422255130848221 -1.7521277273000615 -4.2913334951200342e-016 -1.1093356479670457e-031 2.449212707644756e-016 -1 -0.234923155092013 0.085505036118430633 2.0942002102888441e-017 1 I I #
ellipse-curve $-1 1.422255130848221 1.7521277273000615 2.1456667475600171e-016 -5.5466782398352283e-032 -1.224606353822378e-016 1 -0.234923155092013 -0.085505036118430633 -1.0471001051444221e-017 1 I I #
point $-1 1.5829520332698555 1.5606166165203168 1.9111410244715605e-016 #
edge $-1 $96 0 $97 3.1415926535897931 $118 $148 forward 7 unknown #
point $-1 1.5829520332698552 -1.5606166165203168 0 #
face $-1 $149 $101 $3 $-1 $150 reversed single #
face $-1 $151 $152 $3 $-1 $153 forward single #
loop $-1 $-1 $154 $103 #
cone-surface $-1 1.1726939789902104 0 0 -1 0 0 0 -0.26794919243112292 0 1 I I -0.25881904510252096 0.9659258262890682 0.26794919243112292 forward I I I I #
coedge $-1 $155 $156 $157 $158 forward $104 $-1 #
coedge $-1 $109 $106 $159 $160 reversed $85 $-1 #
coedge $-1 $106 $109 $161 $162 forward $85 $-1 #
coedge $-1 $156 $155 $106 $132 reversed $104 $-1 #
edge $-1 $163 2.4230593952389587e-032 $164 3.1415926535897931 $106 $165 forward 7 unknown #
coedge $-1 $166 $167 $107 $134 forward $168 $-1 #
edge $-1 $116 5.9236598511974514e-032 $138 0.39999999999999986 $133 $169 forward 7 unknown #
coedge $-1 $167 $166 $108 $136 reversed $168 $-1 #
edge $-1 $115 3.3306690738754716e-016 $137 0.39999999999999947 $135 $170 forward 7 unknown #
vertex $-1 $136 $171 #
vertex $-1 $172 $173 #
ellipse-curve $-1 2.4232050807568877 0 1.6653345369377348e-016 -1 0 0 0 1.7750000000000008 5.0834174109698502e-017 1 I I #
coedge $-1 $113 $111 $167 $146 reversed $142 $-1 #
coedge $-1 $111 $113 $118 $122 forward $142 $-1 #
loop $-1 $-1 $141 $174 #
straight-curve $-1 1.5829520332698552 -1.5606166165203168 -3.8222820489431209e-016 0.76604444311897846 -0.64278760968653881 -1.5743235819608669e-016 I I #
straight-curve $-1 1.5829520332698552 1.5606166165203168 1.9111410244715605e-016 0.76604444311897846 0.64278760968653881 7.8716179098043346e-017 I I #
point $-1 2.0767949192431123 1.9749999999999999 2.4185975487991949e-016 #
edge $-1 $115 0 $116 3.1415926535897931 $140 $175 forward 7 unknown #
point $-1 2.0767949192431123 -1.9750000000000005 0 #
ellipse-curve $-1 1.5829520332698552 0 0 1 0 0 0 1.5606166165203168 1.9111410244715605e-016 1 I I #
face $-1 $-1 $176 $3 $-1 $177 forward single #
torus-surface $-1 1.4222551308482207 0 0 1 0 0 1.7521277273000615 0.25 0 -1 0 forward_v I I I I #
face $-1 $178 $179 $3 $-1 $180 forward single #
loop $-1 $-1 $181 $125 #
cone-surface $-1 2.5571265983079225 0 0 1 0 0 0 -1.4281480067421144 0 1 I I -0.8191520442889918 0.57357643635104616 1.4281480067421144 forward I I I I #
coedge $-1 $182 $183 $184 $185 forward $126 $-1 #
coedge $-1 $131 $128 $186 $187 reversed $104 $-1 #
coedge $-1 $128 $131 $188 $189 forward $104 $-1 #
coedge $-1 $183 $182 $128 $158 reversed $126 $-1 #
edge $-1 $190 4.1585437354747903e-032 $191 3.1415926535897931 $128 $192 forward 7 unknown #
coedge $-1 $193 $194 $129 $160 forward $195 $-1 #
edge $-1 $138 1.0485830290742108e-031 $164 0.77816580512343514 $159 $196 forward 7 unknown #
coedge $-1 $194 $193 $130 $162 reversed $195 $-1 #
edge $-1 $137 7.7115282012009789e-017 $163 0.77816580512343514 $161 $197 forward 7 unknown #
vertex $-1 $162 $198 #
vertex $-1 $199 $200 #
ellipse-curve $-1 2.2880780067744846 0 0 -1 0 0 0 1.0086562819854548 1.2352068917422433e-016 1 I I #
coedge $-1 $135 $133 $194 $172 reversed $168 $-1 #
coedge $-1 $133 $135 $140 $146 forward $168 $-1 #
loop $-1 $-1 $167 $201 #
straight-curve $-1 2.0767949192431123 -1.9750000000000005 -4.8371950975983917e-016 0.86602540378443849 0.50000000000000011 1.2246063538223782e-016 I I #
straight-curve $-1 2.0767949192431123 1.9750000000000005 2.4185975487991959e-016 0.86602540378443849 -0.50000000000000011 -6.1230317691118912e-017 I I #
point $-1 2.4232050807568872 1.7750000000000008 2.1736762780347206e-016 #
edge $-1 $137 6.2595588591232775e-032 $138 3.1415926535897931 $166 $202 forward 7 unknown #
point $-1 2.4232050807568877 -1.7750000000000008 0 #
face $-1 $124 $142 $3 $-1 $203 forward single #
ellipse-curve $-1 2.0767949192431123 1.1102230246251565e-016 5.5511151231257827e-017 1 0 0 0 1.9750000000000005 1.8634860364866176e-016 1 I I #
loop $-1 $-1 $204 $149 #
plane-surface $-1 3.2375455818158212 0 0 1 0 0 0 -1 0 forward_v I I I I #
face $-1 $205 $206 $3 $-1 $207 forward single #
loop $-1 $-1 $208 $151 #
cone-surface $-1 2.5571265983079225 0 0 1 0 0 0 -1.4281480067421144 0 1 I I -0.8191520442889918 0.57357643635104616 1.4281480067421144 forward I I I I #
coedge $-1 $184 $209 $210 $211 reversed $152 $-1 #
coedge $-1 $157 $154 $212 $213 reversed $126 $-1 #
coedge $-1 $154 $157 $214 $215 forward $126 $-1 #
coedge $-1 $216 $181 $154 $185 reversed $152 $-1 #
edge $-1 $217 -4.2279402765730063e-032 $218 3.1415926535897931 $154 $219 forward 7 unknown #
coedge $-1 $220 $221 $155 $187 forward $222 $-1 #
edge $-1 $164 0 $191 2.0071286397934784 $186 $223 forward 7 unknown #
coedge $-1 $221 $220 $156 $189 reversed $222 $-1 #
edge $-1 $163 0 $190 2.0071286397934784 $188 $224 forward 7 unknown #
vertex $-1 $189 $225 #
vertex $-1 $226 $227 #
ellipse-curve $-1 2.6611660462089031 0 0 -1 0 0 0 0.6667840807986557 8.1654802197364722e-017 1 I I #
coedge $-1 $161 $159 $221 $199 reversed $195 $-1 #
coedge $-1 $159 $161 $166 $172 forward $195 $-1 #
loop $-1 $-1 $194 $228 #
straight-curve $-1 2.4232050807568877 -1.7750000000000008 -4.3473525560694397e-016 -0.173648177666929 0.98480775301220835 2.4120036632645762e-016 I I #
straight-curve $-1 2.4232050807568877 1.7750000000000008 2.1736762780347198e-016 -0.173648177666929 -0.98480775301220835 -1.2060018316322881e-016 I I #
point $-1 2.2880780067744846 1.0086562819854548 1.2352068917422431e-016 #
edge $-1 $163 -2.4230593952389587e-032 $164 3.1415926535897931 $193 $229 forward 7 unknown #
point $-1 2.2880780067744846 -1.0086562819854548 0 #
face $-1 $174 $168 $3 $-1 $230 forward single #
ellipse-curve $-1 2.4232050807568877 0 -1.6653345369377348e-016 1 0 0 0 1.7750000000000008 3.8390108149724546e-016 1 I I #
cone-surface $-1 0.7230815738695453 0 0 -1 0 0 0 -0.83909963117727915 0 1 I I -0.64278760968653892 0.76604444311897835 0.83909963117727915 forward I I I I #
coedge $-1 $231 $231 $209 $232 forward $176 $-1 #
face $-1 $228 $222 $3 $-1 $233 reversed single #
loop $-1 $-1 $234 $178 #
cone-surface $-1 1.1726939789902104 0 0 -1 0 0 0 -0.26794919243112292 0 1 I I -0.25881904510252096 0.9659258262890682 0.26794919243112292 forward I I I I #
coedge $-1 $235 $236 $216 $237 reversed $179 $-1 #
coedge $-1 $181 $216 $204 $232 reversed $152 $-1 #
coedge $-1 $236 $235 $181 $211 forward $179 $-1 #
edge $-1 $218 3.7521339426048985e-032 $238 0.375 $210 $239 forward 7 unknown #
coedge $-1 $240 $234 $182 $213 forward $206 $-1 #
edge $-1 $191 -1.0352243088391895e-032 $218 0.37403324576514052 $212 $241 forward 7 unknown #
coedge $-1 $234 $240 $183 $215 reversed $206 $-1 #
edge $-1 $190 -2.8734686308431594e-017 $217 0.37403324576514063 $214 $242 forward 7 unknown #
coedge $-1 $209 $184 $208 $237 forward $152 $-1 #
vertex $-1 $215 $243 #
vertex $-1 $244 $245 #
ellipse-curve $-1 3.0224544181841786 5.5511151231257827e-017 2.7755575615628914e-017 -1 0 0 0 0.76359100830418569 6.5754264433465223e-017 1 I I #
coedge $-1 $188 $186 $234 $226 reversed $222 $-1 #
coedge $-1 $186 $188 $193 $199 forward $222 $-1 #
loop $-1 $-1 $221 $205 #
ellipse-curve $-1 2.5835203326781468 -0.95656182868537587 -2.3428233864641271e-016 8.5596886417210589e-033 2.449212707644756e-016 -1 -0.29544232590366226 -0.052094453300078891 -1.2759039702035955e-017 1 I I #
ellipse-curve $-1 2.5835203326781468 0.95656182868537587 1.1714116932320635e-016 4.2798443208605294e-033 -1.224606353822378e-016 1 -0.29544232590366226 0.052094453300078891 6.3795198510179775e-018 1 I I #
point $-1 2.6611660462089031 0.66678408079865559 8.1654802197364685e-017 #
edge $-1 $190 -4.1585437354747903e-032 $191 3.1415926535897931 $220 $246 forward 7 unknown #
point $-1 2.6611660462089031 -0.6667840807986557 0 #
face $-1 $201 $195 $3 $-1 $247 reversed single #
ellipse-curve $-1 2.2880780067744846 0 0 1 0 0 0 1.0086562819854548 1.2352068917422433e-016 1 I I #
cone-surface $-1 4.497595264191645 0 0 1 0 0 0 -0.57735026918962595 0 1 I I -0.50000000000000011 0.8660254037844386 0.57735026918962595 forward I I I I #
coedge $-1 $204 $204 $236 $248 forward $176 $-1 #
edge $-1 $238 0 $249 3.1415926535897931 $204 $250 forward 7 unknown #
torus-surface $-1 2.5835203326781468 0 0 1 0 0 0.95656182868537609 0.29999999999999999 0 -1 0 forward_v I I I I #
coedge $-1 $212 $214 $220 $226 forward $206 $-1 #
coedge $-1 $210 $208 $240 $244 forward $179 $-1 #
coedge $-1 $208 $210 $231 $248 reversed $179 $-1 #
edge $-1 $217 -2.7283243807152134e-016 $249 0.375 $208 $251 forward 7 unknown #
vertex $-1 $248 $252 #
straight-curve $-1 3.0224544181841786 -0.76359100830418569 -1.8701968009818827e-016 0.57357643635104638 0.81915204428899158 2.0062775963657777e-016 I I #
coedge $-1 $214 $212 $235 $244 reversed $206 $-1 #
straight-curve $-1 2.6611660462089031 -0.6667840807986557 -1.6330960439472944e-016 0.9659258262890682 -0.25881904510252124 -6.3390289424557551e-017 I I #
straight-curve $-1 2.6611660462089031 0.6667840807986557 8.1654802197364722e-017 0.9659258262890682 0.25881904510252124 3.1695144712278776e-017 I I #
point $-1 3.0224544181841786 0.76359100830418603 9.3509840049094186e-017 #
edge $-1 $217 2.1139701382865026e-032 $218 3.1415926535897931 $240 $253 forward 7 unknown #
point $-1 3.0224544181841786 -0.76359100830418569 0 #
ellipse-curve $-1 2.6611660462089031 0 0 1 0 0 0 0.6667840807986557 8.1654802197364722e-017 1 I I #
cone-surface $-1 3.1102246899993649 0 0 -1 0 0 0 -5.671281819617759 0 1 I I -0.98480775301220835 0.17364817766692889 5.671281819617759 forward I I I I #
edge $-1 $249 0 $238 3.1415926535897931 $231 $254 forward 7 unknown #
vertex $-1 $248 $255 #
ellipse-curve $-1 3.2375455818158212 4.163336342344337e-017 1.3877787807814457e-017 1 0 0 0 -0.456408991695814 -1.3877787807814457e-017 1 I I #
straight-curve $-1 3.0224544181841786 0.76359100830418569 9.3509840049094136e-017 0.57357643635104638 -0.81915204428899158 -1.0031387981828889e-016 I I #
point $-1 3.2375455818158212 -0.45640899169581395 0 #
ellipse-curve $-1 3.0224544181841786 0 2.7755575615628914e-017 1 0 0 0 0.76359100830418569 6.5754264433465223e-017 1 I I #
ellipse-curve $-1 3.2375455818158212 0 1.3877787807814457e-017 1 0 0 0 0.45640899169581395 -1.3877787807814457e-017 1 I I #
point $-1 3.2375455818158212 0.45640899169581395 0 #
End-of-ACIS-data 