600 0 1 0           
113 GICL Pro/E ACIS Translator - Source: f:/data5/repository/PTC/V20/web_demos/models/4axismill/sieve_ep.prt.13 - 6 0 13 ACIS 6.0.3 NT 24 Thu Apr 04 13:11:49 2002 
1 9.9999999999999995e-007 1e-010 
body $-1 $1 $-1 $2 #
lump $-1 $-1 $3 $0 #
transform $-1 1 0 0 0 1 0 0 0 1 0 0 0 25.399999999999999 no_rotate no_reflect no_shear #
shell $-1 $-1 $-1 $4 $-1 $1 #
face $-1 $5 $6 $3 $-1 $7 forward single #
face $-1 $8 $9 $3 $-1 $10 reversed single #
loop $-1 $-1 $11 $4 #
cone-surface $-1 0 0 1.0499999999999998 0 0 -1 0.222 0 0 1 I I 0 1 0.222 forward I I I I #
face $-1 $12 $13 $3 $-1 $14 forward single #
loop $-1 $15 $16 $5 #
plane-surface $-1 0 0 0.152 0 0 -1 1 0 0 forward_v I I I I #
coedge $-1 $17 $18 $19 $20 forward $6 $-1 #
face $-1 $21 $22 $3 $-1 $23 forward single #
loop $-1 $-1 $24 $8 #
cone-surface $-1 0 0 1.0499999999999998 0 0 -1 0.21199999999999999 0 0 1 I I 0 1 0.21199999999999999 forward I I I I #
loop $-1 $-1 $19 $5 #
coedge $-1 $25 $25 $24 $26 reversed $9 $-1 #
coedge $-1 $27 $11 $28 $29 reversed $6 $-1 #
coedge $-1 $11 $27 $30 $31 forward $6 $-1 #
coedge $-1 $32 $32 $11 $20 reversed $15 $-1 #
edge $-1 $33 1.2246063538223773e-016 $34 3.1415926535897931 $11 $35 forward 7 unknown #
face $-1 $36 $37 $3 $-1 $38 forward single #
loop $-1 $-1 $39 $12 #
cone-surface $-1 0 0 1.0499999999999998 0 0 -1 0.21199999999999999 0 0 1 I I 0 1 0.21199999999999999 forward I I I I #
coedge $-1 $40 $41 $16 $26 forward $13 $-1 #
coedge $-1 $16 $16 $42 $43 forward $9 $-1 #
edge $-1 $44 0 $45 3.1415926535897931 $16 $46 forward 7 unknown #
coedge $-1 $18 $17 $47 $48 reversed $6 $-1 #
coedge $-1 $49 $50 $17 $29 forward $51 $-1 #
edge $-1 $52 0 $34 0.11999999999999997 $17 $53 forward 7 unknown #
coedge $-1 $50 $49 $18 $31 reversed $51 $-1 #
edge $-1 $54 0 $33 0.12 $18 $55 forward 7 unknown #
coedge $-1 $19 $19 $49 $56 forward $15 $-1 #
vertex $-1 $31 $57 #
vertex $-1 $29 $58 #
ellipse-curve $-1 0 0 0.152 0 0 -1 -0.222 0 0 1 I I #
face $-1 $59 $60 $3 $-1 $61 forward single #
loop $-1 $62 $63 $21 #
plane-surface $-1 0 0 0.53799999999999992 0 0 -1 1 0 0 forward_v I I I I #
coedge $-1 $64 $65 $66 $67 forward $22 $-1 #
coedge $-1 $68 $24 $64 $69 forward $13 $-1 #
coedge $-1 $24 $68 $65 $70 reversed $13 $-1 #
coedge $-1 $65 $64 $25 $43 reversed $22 $-1 #
edge $-1 $44 0 $45 3.1415926535897931 $25 $71 forward 7 unknown #
vertex $-1 $43 $72 #
vertex $-1 $43 $73 #
ellipse-curve $-1 0 -2.0816681711721685e-017 0.152 1.3092252648881564e-016 -2.8888386736329183e-032 1 -0.21199999999999999 4.6778336412756078e-017 2.7755575615628914e-017 1 I I #
coedge $-1 $74 $74 $27 $48 forward $75 $-1 #
edge $-1 $54 0 $52 3.1415926535897931 $27 $76 forward 7 unknown #
coedge $-1 $30 $28 $32 $56 reversed $51 $-1 #
coedge $-1 $28 $30 $74 $77 forward $51 $-1 #
loop $-1 $-1 $50 $78 #
vertex $-1 $48 $79 #
straight-curve $-1 0.222 -5.4372522109713549e-017 0.032000000000000028 0 0 1 I I #
vertex $-1 $31 $80 #
straight-curve $-1 -0.222 2.7186261054856775e-017 0.032000000000000028 0 0 1 I I #
edge $-1 $33 -1.2246063538223773e-016 $34 3.1415926535897931 $32 $81 forward 7 unknown #
point $-1 -0.222 2.7186261054856775e-017 0.15200000000000002 #
point $-1 0.222 0 0.152 #
face $-1 $82 $83 $3 $-1 $84 forward single #
loop $-1 $-1 $85 $36 #
cone-surface $-1 0 0 1.0499999999999998 0 0 -1 0.222 0 0 1 I I 0 1 0.222 forward I I I I #
loop $-1 $-1 $66 $21 #
coedge $-1 $86 $86 $85 $87 reversed $37 $-1 #
coedge $-1 $42 $39 $40 $69 reversed $22 $-1 #
coedge $-1 $39 $42 $41 $70 forward $22 $-1 #
coedge $-1 $88 $88 $39 $67 reversed $62 $-1 #
edge $-1 $89 1.2246063538223773e-016 $90 3.1415926535897931 $39 $91 forward 7 unknown #
coedge $-1 $41 $40 $88 $92 reversed $13 $-1 #
edge $-1 $45 0 $90 0.3859999999999999 $64 $93 forward 7 unknown #
edge $-1 $44 0 $89 0.3859999999999999 $65 $94 forward 7 unknown #
ellipse-curve $-1 0 0 0.152 -1.3092252648881564e-016 1.6032855779668211e-032 -1 -0.21199999999999999 2.5961654701034396e-017 2.7755575615628914e-017 1 I I #
point $-1 -0.21199999999999999 2.5961654701034396e-017 0.15200000000000002 #
point $-1 0.21199999999999999 0 0.15200000000000002 #
coedge $-1 $47 $47 $50 $77 reversed $75 $-1 #
loop $-1 $95 $74 $96 #
ellipse-curve $-1 6.9388939039072284e-018 -6.9388939039072284e-018 0.032000000000000028 0 0 -1 -0.222 3.4125154958764006e-017 0 1 I I #
edge $-1 $54 0 $52 3.1415926535897931 $74 $97 forward 7 unknown #
face $-1 $-1 $51 $3 $-1 $98 forward single #
point $-1 0.222 0 0.032000000000000028 #
point $-1 -0.222 2.7186261054856775e-017 0.032000000000000028 #
ellipse-curve $-1 0 0 0.152 0 0 1 -0.222 0 0 1 I I #
face $-1 $99 $100 $3 $-1 $101 forward single #
loop $-1 $-1 $102 $59 #
cone-surface $-1 0 0 1.0499999999999998 0 0 -1 0.222 0 0 1 I I 0 1 0.222 forward I I I I #
coedge $-1 $103 $104 $63 $87 forward $60 $-1 #
coedge $-1 $63 $63 $105 $106 forward $37 $-1 #
edge $-1 $107 0 $108 3.1415926535897931 $63 $109 forward 7 unknown #
coedge $-1 $66 $66 $68 $92 forward $62 $-1 #
vertex $-1 $70 $110 #
vertex $-1 $69 $111 #
ellipse-curve $-1 0 0 0.53799999999999992 0 0 -1 -0.21199999999999999 0 0 1 I I #
edge $-1 $89 -1.2246063538223773e-016 $90 3.1415926535897931 $88 $112 forward 7 unknown #
straight-curve $-1 0.21199999999999999 -5.1923309402068791e-017 0.15200000000000002 0 0 1 I I #
straight-curve $-1 -0.21199999999999999 2.5961654701034396e-017 0.15200000000000002 0 0 1 I I #
loop $-1 $-1 $113 $96 #
face $-1 $78 $75 $3 $-1 $114 reversed single #
ellipse-curve $-1 0 -6.9388939039072284e-018 0.032000000000000028 0 0 1 -0.222 3.4125154958764006e-017 0 1 I I #
cone-surface $-1 0 0 1.0499999999999998 0 0 -1 0.222 0 0 1 I I 0 1 0.222 forward I I I I #
face $-1 $115 $116 $3 $-1 $117 forward single #
loop $-1 $118 $119 $82 #
plane-surface $-1 0 0 0.96799999999999997 0 0 -1 1 0 0 forward_v I I I I #
coedge $-1 $120 $121 $122 $123 forward $83 $-1 #
coedge $-1 $124 $85 $120 $125 forward $60 $-1 #
coedge $-1 $85 $124 $121 $126 reversed $60 $-1 #
coedge $-1 $121 $120 $86 $106 reversed $83 $-1 #
edge $-1 $107 0 $108 3.1415926535897931 $86 $127 forward 7 unknown #
vertex $-1 $106 $128 #
vertex $-1 $106 $129 #
ellipse-curve $-1 0 -6.9388939039072284e-018 0.53799999999999992 0 0 1 -0.222 3.4125154958764006e-017 0 1 I I #
point $-1 -0.21199999999999999 2.5961654701034396e-017 0.53799999999999992 #
point $-1 0.21199999999999999 0 0.53799999999999992 #
ellipse-curve $-1 0 0 0.53799999999999992 0 0 1 -0.21199999999999999 0 0 1 I I #
coedge $-1 $130 $130 $131 $132 reversed $95 $-1 #
plane-surface $-1 0 0 0.032000000000000028 0 0 -1 1 0 0 forward_v I I I I #
face $-1 $133 $134 $3 $-1 $135 forward single #
loop $-1 $-1 $136 $99 #
cone-surface $-1 0 0 1.0499999999999998 0 0 -1 0.24199999999999999 0 0 1 I I 0 1 0.24199999999999999 forward I I I I #
loop $-1 $-1 $122 $82 #
coedge $-1 $137 $137 $136 $138 reversed $100 $-1 #
coedge $-1 $105 $102 $103 $125 reversed $83 $-1 #
coedge $-1 $102 $105 $104 $126 forward $83 $-1 #
coedge $-1 $139 $139 $102 $123 reversed $118 $-1 #
edge $-1 $140 1.2246063538223773e-016 $141 3.1415926535897931 $102 $142 forward 7 unknown #
coedge $-1 $104 $103 $139 $143 reversed $60 $-1 #
edge $-1 $108 0 $141 0.43000000000000005 $120 $144 forward 7 unknown #
edge $-1 $107 0 $140 0.43000000000000005 $121 $145 forward 7 unknown #
ellipse-curve $-1 6.9388939039072284e-018 -6.9388939039072284e-018 0.53799999999999992 0 0 -1 -0.222 3.4125154958764006e-017 0 1 I I #
point $-1 -0.222 2.7186261054856775e-017 0.53799999999999992 #
point $-1 0.222 0 0.53799999999999992 #
coedge $-1 $113 $113 $146 $147 forward $95 $-1 #
coedge $-1 $148 $149 $113 $132 forward $150 $-1 #
edge $-1 $151 1.2246063538223773e-016 $152 3.1415926535897931 $131 $153 forward 7 unknown #
face $-1 $154 $155 $3 $-1 $156 reversed single #
loop $-1 $-1 $157 $115 #
cone-surface $-1 0 0 1.0499999999999998 0 0 -1 0.24199999999999999 0 0 1 I I 0 1 0.24199999999999999 forward I I I I #
coedge $-1 $158 $159 $119 $138 forward $116 $-1 #
coedge $-1 $119 $119 $160 $161 forward $100 $-1 #
edge $-1 $162 0 $163 3.1415926535897931 $119 $164 forward 7 unknown #
coedge $-1 $122 $122 $124 $143 forward $118 $-1 #
vertex $-1 $126 $165 #
vertex $-1 $125 $166 #
ellipse-curve $-1 0 0 0.96799999999999997 0 0 -1 -0.222 0 0 1 I I #
edge $-1 $140 -1.2246063538223773e-016 $141 3.1415926535897931 $139 $167 forward 7 unknown #
straight-curve $-1 0.222 -5.4372522109713549e-017 0.53799999999999992 0 0 1 I I #
straight-curve $-1 -0.222 2.7186261054856775e-017 0.53799999999999992 0 0 1 I I #
coedge $-1 $168 $169 $130 $147 reversed $170 $-1 #
edge $-1 $151 -1.2246063538223773e-016 $152 3.1415926535897931 $130 $171 forward 7 unknown #
coedge $-1 $172 $131 $169 $173 reversed $150 $-1 #
coedge $-1 $131 $172 $168 $174 forward $150 $-1 #
loop $-1 $-1 $131 $175 #
vertex $-1 $174 $176 #
vertex $-1 $173 $177 #
ellipse-curve $-1 0 0 0.032000000000000028 0 0 -1 -0.24199999999999999 0 0 1 I I #
face $-1 $178 $179 $3 $-1 $180 reversed single #
loop $-1 $181 $182 $133 #
plane-surface $-1 0 0 1.002 0 0 -1 1 0 0 forward_v I I I I #
coedge $-1 $183 $184 $185 $186 forward $134 $-1 #
coedge $-1 $187 $136 $183 $188 forward $116 $-1 #
coedge $-1 $136 $187 $184 $189 reversed $116 $-1 #
coedge $-1 $184 $183 $137 $161 reversed $134 $-1 #
edge $-1 $162 0 $163 3.1415926535897931 $137 $190 forward 7 unknown #
vertex $-1 $161 $191 #
vertex $-1 $161 $192 #
ellipse-curve $-1 1.3877787807814457e-017 6.9388939039072284e-018 0.96799999999999997 0 0 1 -0.24199999999999999 2.2696579858594301e-017 0 1 I I #
point $-1 -0.222 2.7186261054856775e-017 0.96799999999999997 #
point $-1 0.222 0 0.96799999999999997 #
ellipse-curve $-1 0 0 0.96799999999999997 0 0 1 -0.222 0 0 1 I I #
coedge $-1 $193 $146 $149 $174 reversed $170 $-1 #
coedge $-1 $146 $193 $148 $173 forward $170 $-1 #
loop $-1 $-1 $193 $194 #
ellipse-curve $-1 0 0 0.032000000000000028 0 0 1 -0.24199999999999999 0 0 1 I I #
coedge $-1 $149 $148 $195 $196 reversed $150 $-1 #
edge $-1 $197 0 $152 0.03400000000000003 $148 $198 forward 7 unknown #
edge $-1 $199 0 $151 0.03400000000000003 $149 $200 forward 7 unknown #
face $-1 $96 $150 $3 $-1 $201 forward single #
point $-1 -0.24199999999999999 2.963547376250153e-017 0.032000000000000028 #
point $-1 0.24199999999999999 0 0.032000000000000028 #
face $-1 $202 $203 $3 $-1 $204 reversed single #
loop $-1 $-1 $205 $154 #
cone-surface $-1 0 0 1.0499999999999998 0 0 -1 0.1855 0 0 1 I I 0 1 0.1855 forward I I I I #
loop $-1 $-1 $185 $133 #
coedge $-1 $206 $206 $205 $207 reversed $155 $-1 #
coedge $-1 $160 $157 $158 $188 reversed $134 $-1 #
coedge $-1 $157 $160 $159 $189 forward $134 $-1 #
coedge $-1 $208 $208 $157 $186 reversed $181 $-1 #
edge $-1 $209 1.2246063538223773e-016 $210 3.1415926535897931 $157 $211 forward 7 unknown #
coedge $-1 $159 $158 $208 $212 reversed $116 $-1 #
edge $-1 $163 0 $210 0.03400000000000003 $183 $213 forward 7 unknown #
edge $-1 $162 0 $209 0.03400000000000003 $184 $214 forward 7 unknown #
ellipse-curve $-1 -1.3877787807814457e-017 -6.9388939039072284e-018 0.96799999999999997 0 0 -1 -0.24199999999999999 3.6574367666408758e-017 0 1 I I #
point $-1 -0.24199999999999999 2.963547376250153e-017 0.96799999999999997 #
point $-1 0.24199999999999999 0 0.96799999999999997 #
coedge $-1 $169 $168 $215 $216 forward $170 $-1 #
face $-1 $175 $170 $3 $-1 $217 forward single #
coedge $-1 $215 $215 $172 $196 forward $218 $-1 #
edge $-1 $199 0 $197 3.1415926535897931 $195 $219 forward 7 unknown #
vertex $-1 $196 $220 #
straight-curve $-1 0.24199999999999999 -5.9270947525003059e-017 -0.0020000000000000018 0 0 1 I I #
vertex $-1 $196 $221 #
straight-curve $-1 -0.24199999999999999 2.963547376250153e-017 -0.0020000000000000018 0 0 1 I I #
cone-surface $-1 0 0 1.0499999999999998 0 0 -1 0.24199999999999999 0 0 1 I I 0 1 0.24199999999999999 forward I I I I #
face $-1 $194 $218 $3 $-1 $222 forward single #
loop $-1 $-1 $223 $178 #
cone-surface $-1 0 0 1.0499999999999998 0 0 -1 0.1855 0 0 1 I I 0 1 0.1855 forward I I I I #
coedge $-1 $224 $225 $182 $207 forward $179 $-1 #
coedge $-1 $182 $182 $226 $227 forward $155 $-1 #
edge $-1 $228 0 $229 3.1415926535897931 $182 $230 forward 7 unknown #
coedge $-1 $185 $185 $187 $212 forward $181 $-1 #
vertex $-1 $189 $231 #
vertex $-1 $188 $232 #
ellipse-curve $-1 0 0 1.002 0 0 -1 -0.24199999999999999 0 0 1 I I #
edge $-1 $209 -1.2246063538223773e-016 $210 3.1415926535897931 $208 $233 forward 7 unknown #
straight-curve $-1 0.24199999999999999 -5.9270947525003059e-017 0.96799999999999997 0 0 1 I I #
straight-curve $-1 -0.24199999999999999 2.963547376250153e-017 0.96799999999999997 0 0 1 I I #
coedge $-1 $195 $195 $193 $216 reversed $218 $-1 #
edge $-1 $199 0 $197 3.1415926535897931 $215 $234 forward 7 unknown #
cone-surface $-1 0 0 1.0499999999999998 0 0 -1 0.24199999999999999 0 0 1 I I 0 1 0.24199999999999999 forward I I I I #
loop $-1 $235 $215 $202 #
ellipse-curve $-1 -1.3877787807814457e-017 -6.9388939039072284e-018 -0.002 7.1682788263504433e-018 -1.0833688650011328e-033 -1 -0.24199999999999999 3.6574367666408758e-017 -1.7347234759768071e-018 1 I I #
point $-1 0.24199999999999999 0 -0.0020000000000000018 #
point $-1 -0.24199999999999999 2.963547376250153e-017 -0.0020000000000000018 #
plane-surface $-1 0 0 -0.002 0 0 -1 1 0 0 forward_v I I I I #
coedge $-1 $236 $237 $238 $239 forward $203 $-1 #
coedge $-1 $240 $205 $236 $241 forward $179 $-1 #
coedge $-1 $205 $240 $237 $242 reversed $179 $-1 #
coedge $-1 $237 $236 $206 $227 reversed $203 $-1 #
edge $-1 $228 0 $229 3.1415926535897931 $206 $243 forward 7 unknown #
vertex $-1 $227 $244 #
vertex $-1 $227 $245 #
ellipse-curve $-1 0 0 1.002 0 0 1 -0.1855 2.2716447863405097e-017 0 1 I I #
point $-1 -0.24199999999999999 2.963547376250153e-017 1.002 #
point $-1 0.24199999999999999 0 1.002 #
ellipse-curve $-1 0 0 1.002 0 0 1 -0.24199999999999999 0 0 1 I I #
ellipse-curve $-1 1.3877787807814457e-017 6.9388939039072284e-018 -0.002 -7.1682788263504433e-018 6.7229509434270024e-034 1 -0.24199999999999999 2.2696579858594301e-017 -1.7347234759768071e-018 1 I I #
loop $-1 $-1 $238 $202 #
coedge $-1 $226 $223 $224 $241 reversed $203 $-1 #
coedge $-1 $223 $226 $225 $242 forward $203 $-1 #
coedge $-1 $246 $246 $223 $239 reversed $235 $-1 #
edge $-1 $247 1.2246063538223773e-016 $248 3.1415926535897931 $223 $249 forward 7 unknown #
coedge $-1 $225 $224 $246 $250 reversed $179 $-1 #
edge $-1 $229 0 $248 1.004 $236 $251 forward 7 unknown #
edge $-1 $228 0 $247 1.004 $237 $252 forward 7 unknown #
ellipse-curve $-1 -1.3877787807814457e-017 0 1.002 0 0 -1 -0.1855 2.2716447863405097e-017 0 1 I I #
point $-1 -0.1855 2.2716447863405097e-017 1.002 #
point $-1 0.1855 0 1.002 #
coedge $-1 $238 $238 $240 $250 forward $235 $-1 #
vertex $-1 $242 $253 #
vertex $-1 $241 $254 #
ellipse-curve $-1 6.9388939039072284e-018 -6.9388939039072284e-018 -0.002 0 0 -1 -0.1855 6.9388939039072284e-018 0 1 I I #
edge $-1 $247 -1.2246063538223773e-016 $248 3.1415926535897931 $246 $255 forward 7 unknown #
straight-curve $-1 0.1855 -4.5432895726810193e-017 1.002 0 0 -1 I I #
straight-curve $-1 -0.1855 2.2716447863405097e-017 1.002 0 0 -1 I I #
point $-1 -0.1855 2.2716447863405097e-017 -0.0020000000000000018 #
point $-1 0.1855 0 -0.002 #
ellipse-curve $-1 -6.9388939039072284e-018 2.7755575615628914e-017 -0.002 0 0 1 -0.1855 -2.7755575615628914e-017 0 1 I I #
End-of-ACIS-data 