600 0 1 0           
117 GICL Pro/E ACIS Translator - Source: f:/data5/repository/NIST/Manfred_Osti/spectrometer/spacer_67/spacer_67.prt - 6 0 13 ACIS 6.0.3 NT 24 Thu Apr 04 13:52:40 2002 
1 9.9999999999999995e-007 1e-010 
body $-1 $1 $-1 $2 #
lump $-1 $-1 $3 $0 #
transform $-1 1 0 0 0 1 0 0 0 1 0 0 0 25.399999999999999 no_rotate no_reflect no_shear #
shell $-1 $-1 $-1 $4 $-1 $1 #
face $-1 $5 $6 $3 $-1 $7 reversed single #
face $-1 $8 $9 $3 $-1 $10 forward single #
loop $-1 $-1 $11 $4 #
plane-surface $-1 0 0 0 0 0 1 1 0 0 forward_v I I I I #
face $-1 $12 $13 $3 $-1 $14 forward single #
loop $-1 $15 $16 $5 #
plane-surface $-1 0.96850000000000003 0 0 0 1 0 -1 0 0 forward_v I I I I #
coedge $-1 $17 $18 $19 $20 reversed $6 $-1 #
face $-1 $21 $22 $3 $-1 $23 forward single #
loop $-1 $-1 $24 $8 #
plane-surface $-1 -0.96850000000000003 0 0 -1 0 0 0 -1 0 forward_v I I I I #
loop $-1 $25 $26 $5 #
coedge $-1 $27 $19 $28 $29 forward $9 $-1 #
coedge $-1 $30 $11 $31 $32 reversed $6 $-1 #
coedge $-1 $11 $33 $34 $35 reversed $6 $-1 #
coedge $-1 $16 $36 $11 $20 forward $9 $-1 #
edge $-1 $37 0 $38 1.9370000000000001 $11 $39 forward 7 unknown #
face $-1 $40 $41 $3 $-1 $42 forward single #
loop $-1 $43 $44 $12 #
plane-surface $-1 -0.96850000000000003 -0.5 0 0 -1 0 1 0 0 forward_v I I I I #
coedge $-1 $45 $34 $46 $47 forward $13 $-1 #
loop $-1 $48 $49 $5 #
coedge $-1 $50 $50 $51 $52 forward $15 $-1 #
coedge $-1 $36 $16 $53 $54 reversed $9 $-1 #
coedge $-1 $34 $45 $16 $29 reversed $13 $-1 #
edge $-1 $38 0 $55 1.5 $28 $56 forward 7 unknown #
coedge $-1 $57 $17 $58 $59 reversed $6 $-1 #
coedge $-1 $60 $61 $17 $32 forward $62 $-1 #
edge $-1 $63 0 $37 1.093 $17 $64 forward 7 unknown #
coedge $-1 $18 $65 $66 $67 reversed $6 $-1 #
coedge $-1 $24 $28 $18 $35 forward $13 $-1 #
edge $-1 $38 0 $68 0.5 $18 $69 forward 7 unknown #
coedge $-1 $19 $27 $60 $70 reversed $9 $-1 #
vertex $-1 $32 $71 #
vertex $-1 $35 $72 #
straight-curve $-1 0.96850000000000003 0 0 -1 0 0 I I #
face $-1 $73 $74 $3 $-1 $75 forward single #
loop $-1 $76 $77 $21 #
plane-surface $-1 0.068500000000000116 -0.5 0 -1 0 0 0 -1 0 forward_v I I I I #
loop $-1 $78 $79 $12 #
coedge $-1 $80 $66 $81 $82 forward $22 $-1 #
coedge $-1 $28 $24 $83 $84 reversed $13 $-1 #
coedge $-1 $66 $80 $24 $47 reversed $22 $-1 #
edge $-1 $68 0 $85 1.5 $24 $86 forward 7 unknown #
loop $-1 $87 $88 $5 #
coedge $-1 $89 $89 $90 $91 forward $25 $-1 #
coedge $-1 $26 $26 $92 $93 forward $15 $-1 #
coedge $-1 $94 $95 $26 $52 reversed $96 $-1 #
edge $-1 $97 0 $98 3.1415926535897931 $26 $99 forward 7 unknown #
coedge $-1 $83 $100 $27 $54 forward $101 $-1 #
edge $-1 $102 0 $55 1.9370000000000001 $53 $103 forward 7 unknown #
vertex $-1 $84 $104 #
straight-curve $-1 -0.96850000000000003 0 0 0 0 1 I I #
coedge $-1 $105 $30 $106 $107 reversed $6 $-1 #
coedge $-1 $108 $109 $30 $59 forward $110 $-1 #
edge $-1 $111 0 $63 0.68000000000000005 $30 $112 forward 7 unknown #
coedge $-1 $113 $31 $36 $70 forward $62 $-1 #
coedge $-1 $31 $113 $108 $114 reversed $62 $-1 #
loop $-1 $-1 $60 $115 #
vertex $-1 $59 $116 #
straight-curve $-1 0.96850000000000003 -1.093 0 0 1 0 I I #
coedge $-1 $33 $105 $117 $118 reversed $6 $-1 #
coedge $-1 $44 $46 $33 $67 forward $22 $-1 #
edge $-1 $68 0 $119 1.0370000000000001 $33 $120 forward 7 unknown #
vertex $-1 $35 $121 #
straight-curve $-1 -0.96850000000000003 0 0 0 -1 0 I I #
edge $-1 $37 0 $102 1.5 $60 $122 forward 7 unknown #
point $-1 0.96850000000000003 0 0 #
point $-1 -0.96850000000000003 0 0 #
face $-1 $123 $124 $3 $-1 $125 forward single #
loop $-1 $-1 $126 $40 #
plane-surface $-1 0.068500000000000116 -1.593 0 0 -1 0 1 0 0 forward_v I I I I #
loop $-1 $-1 $127 $21 #
coedge $-1 $128 $117 $129 $130 forward $41 $-1 #
loop $-1 $-1 $131 $12 #
coedge $-1 $132 $132 $133 $134 reversed $43 $-1 #
coedge $-1 $46 $44 $135 $136 reversed $22 $-1 #
coedge $-1 $117 $128 $44 $82 reversed $41 $-1 #
edge $-1 $119 0 $137 1.5 $44 $138 forward 7 unknown #
coedge $-1 $135 $53 $45 $84 forward $101 $-1 #
edge $-1 $55 0 $85 0.5 $83 $139 forward 7 unknown #
vertex $-1 $84 $140 #
straight-curve $-1 -0.96850000000000003 -0.5 0 0 0 1 I I #
loop $-1 $141 $142 $5 #
coedge $-1 $143 $143 $144 $145 forward $48 $-1 #
coedge $-1 $49 $49 $146 $147 forward $25 $-1 #
coedge $-1 $148 $149 $49 $91 reversed $150 $-1 #
edge $-1 $151 0 $152 3.1415926535897931 $49 $153 forward 7 unknown #
coedge $-1 $154 $155 $50 $93 reversed $156 $-1 #
edge $-1 $98 0 $97 3.1415926535897931 $50 $157 forward 7 unknown #
coedge $-1 $158 $51 $155 $159 forward $96 $-1 #
coedge $-1 $51 $158 $154 $160 reversed $96 $-1 #
loop $-1 $-1 $94 $161 #
vertex $-1 $93 $162 #
vertex $-1 $93 $163 #
ellipse-curve $-1 -0.62150000000000005 0 0.75 0 -1 0 -0.0625 0 0 1 I I #
coedge $-1 $53 $164 $113 $165 forward $101 $-1 #
loop $-1 $-1 $135 $166 #
vertex $-1 $54 $167 #
straight-curve $-1 0.96850000000000003 0 1.5 -1 0 0 I I #
point $-1 -0.96850000000000003 0 1.5 #
coedge $-1 $65 $57 $168 $169 reversed $6 $-1 #
coedge $-1 $170 $171 $57 $107 forward $124 $-1 #
edge $-1 $172 0 $111 0.5 $57 $173 forward 7 unknown #
coedge $-1 $174 $58 $61 $114 forward $110 $-1 #
coedge $-1 $58 $174 $170 $175 reversed $110 $-1 #
loop $-1 $176 $108 $123 #
vertex $-1 $107 $177 #
straight-curve $-1 0.28849999999999998 -1.093 0 1 0 0 I I #
coedge $-1 $61 $60 $100 $165 reversed $62 $-1 #
edge $-1 $63 0 $178 1.5 $108 $179 forward 7 unknown #
face $-1 $166 $62 $3 $-1 $180 forward single #
point $-1 0.96850000000000003 -1.093 0 #
coedge $-1 $77 $81 $65 $118 forward $41 $-1 #
edge $-1 $119 0 $181 1.093 $65 $182 forward 7 unknown #
vertex $-1 $67 $183 #
straight-curve $-1 -0.96850000000000003 -0.5 0 1 0 0 I I #
point $-1 -0.96850000000000003 -0.5 0 #
straight-curve $-1 0.96850000000000003 0 0 0 0 1 I I #
face $-1 $115 $110 $3 $-1 $184 forward single #
loop $-1 $185 $170 $73 #
plane-surface $-1 0.28849999999999998 -1.593 0 1 0 0 0 1 0 forward_v I I I I #
coedge $-1 $186 $168 $171 $187 forward $74 $-1 #
coedge $-1 $188 $188 $189 $190 reversed $76 $-1 #
coedge $-1 $81 $77 $191 $192 reversed $41 $-1 #
coedge $-1 $168 $186 $77 $130 reversed $74 $-1 #
edge $-1 $181 0 $193 1.5 $77 $194 forward 7 unknown #
coedge $-1 $195 $195 $196 $197 reversed $78 $-1 #
coedge $-1 $79 $79 $198 $199 reversed $43 $-1 #
coedge $-1 $200 $201 $79 $134 forward $202 $-1 #
edge $-1 $203 0 $204 3.1415926535897931 $79 $205 forward 7 unknown #
coedge $-1 $191 $83 $80 $136 forward $101 $-1 #
edge $-1 $85 0 $137 1.0370000000000001 $135 $206 forward 7 unknown #
vertex $-1 $192 $207 #
straight-curve $-1 0.068500000000000116 -0.5 0 0 0 1 I I #
straight-curve $-1 -0.96850000000000003 0 1.5 0 -1 0 I I #
point $-1 -0.96850000000000003 -0.5 1.5 #
loop $-1 $208 $209 $5 #
coedge $-1 $210 $210 $211 $212 forward $87 $-1 #
coedge $-1 $88 $88 $213 $214 forward $48 $-1 #
coedge $-1 $215 $216 $88 $145 reversed $217 $-1 #
edge $-1 $218 0 $219 3.1415926535897931 $88 $220 forward 7 unknown #
coedge $-1 $221 $222 $89 $147 reversed $223 $-1 #
edge $-1 $152 0 $151 3.1415926535897931 $89 $224 forward 7 unknown #
coedge $-1 $225 $90 $222 $226 forward $150 $-1 #
coedge $-1 $90 $225 $221 $227 reversed $150 $-1 #
loop $-1 $-1 $148 $228 #
vertex $-1 $147 $229 #
vertex $-1 $147 $230 #
ellipse-curve $-1 0 0 0.75 0 -1 0 -0.062500000000000111 0 0 1 I I #
coedge $-1 $231 $92 $95 $160 forward $156 $-1 #
coedge $-1 $92 $231 $94 $159 reversed $156 $-1 #
loop $-1 $-1 $154 $232 #
ellipse-curve $-1 -0.62150000000000005 0 0.75 0 -1 0 0.0625 0 0 1 I I #
coedge $-1 $95 $94 $233 $234 forward $96 $-1 #
edge $-1 $97 0 $235 0.38 $155 $236 forward 7 unknown #
edge $-1 $98 0 $237 0.38 $154 $238 forward 7 unknown #
face $-1 $232 $96 $3 $-1 $239 reversed single #
point $-1 -0.68400000000000005 0 0.75 #
point $-1 -0.55900000000000005 0 0.75 #
coedge $-1 $100 $240 $174 $241 forward $101 $-1 #
edge $-1 $178 0 $102 1.093 $100 $242 forward 7 unknown #
face $-1 $243 $101 $3 $-1 $244 forward single #
point $-1 0.96850000000000003 0 1.5 #
coedge $-1 $126 $129 $105 $169 forward $74 $-1 #
edge $-1 $181 0 $172 0.21999999999999986 $105 $245 forward 7 unknown #
coedge $-1 $246 $106 $109 $175 forward $124 $-1 #
coedge $-1 $106 $246 $126 $187 reversed $124 $-1 #
vertex $-1 $169 $247 #
straight-curve $-1 0.28849999999999998 -1.593 0 0 1 0 I I #
coedge $-1 $109 $108 $164 $241 reversed $110 $-1 #
edge $-1 $111 0 $248 1.5 $170 $249 forward 7 unknown #
loop $-1 $250 $251 $123 #
point $-1 0.28849999999999998 -1.093 0 #
vertex $-1 $165 $252 #
straight-curve $-1 0.96850000000000003 -1.093 0 0 0 1 I I #
plane-surface $-1 0.96850000000000003 -1.093 0 1 0 0 0 1 0 forward_v I I I I #
vertex $-1 $118 $253 #
straight-curve $-1 0.068500000000000116 -0.5 0 0 -1 0 I I #
point $-1 0.068500000000000116 -0.5 0 #
plane-surface $-1 0.28849999999999998 -1.093 0 0 -1 0 1 0 0 forward_v I I I I #
loop $-1 $-1 $254 $73 #
coedge $-1 $129 $126 $255 $256 reversed $74 $-1 #
edge $-1 $172 0 $257 1.5 $126 $258 forward 7 unknown #
coedge $-1 $127 $127 $259 $260 reversed $76 $-1 #
coedge $-1 $261 $262 $127 $190 forward $263 $-1 #
edge $-1 $264 0 $265 3.1415926535897931 $127 $266 forward 7 unknown #
coedge $-1 $255 $135 $128 $192 forward $101 $-1 #
edge $-1 $137 0 $193 1.093 $191 $267 forward 7 unknown #
vertex $-1 $256 $268 #
straight-curve $-1 0.068500000000000116 -1.593 0 0 0 1 I I #
coedge $-1 $131 $131 $269 $270 reversed $78 $-1 #
coedge $-1 $271 $272 $131 $197 forward $273 $-1 #
edge $-1 $274 0 $275 3.1415926535897931 $131 $276 forward 7 unknown #
coedge $-1 $277 $278 $132 $199 forward $279 $-1 #
edge $-1 $204 0 $203 3.1415926535897931 $132 $280 forward 7 unknown #
coedge $-1 $211 $133 $278 $281 reversed $202 $-1 #
coedge $-1 $133 $211 $277 $282 forward $202 $-1 #
loop $-1 $-1 $200 $283 #
vertex $-1 $199 $284 #
vertex $-1 $199 $285 #
ellipse-curve $-1 -0.62150000000000005 -0.5 0.34399999999999997 0 -1 0 -0.125 0 0 1 I I #
straight-curve $-1 -0.96850000000000003 -0.5 1.5 1 0 0 I I #
point $-1 0.068500000000000116 -0.5 1.5 #
loop $-1 $286 $287 $5 #
coedge $-1 $288 $288 $289 $290 forward $141 $-1 #
coedge $-1 $142 $142 $291 $292 forward $87 $-1 #
coedge $-1 $201 $200 $142 $212 reversed $202 $-1 #
edge $-1 $293 0 $294 3.1415926535897927 $142 $295 forward 7 unknown #
coedge $-1 $296 $297 $143 $214 reversed $298 $-1 #
edge $-1 $219 0 $218 3.1415926535897931 $143 $299 forward 7 unknown #
coedge $-1 $300 $144 $297 $301 forward $217 $-1 #
coedge $-1 $144 $300 $296 $302 reversed $217 $-1 #
loop $-1 $-1 $215 $303 #
vertex $-1 $214 $304 #
vertex $-1 $214 $305 #
ellipse-curve $-1 0.62850000000000006 0 0.75 0 -1 0 -0.125 0 0 1 I I #
coedge $-1 $306 $146 $149 $227 forward $223 $-1 #
coedge $-1 $146 $306 $148 $226 reversed $223 $-1 #
loop $-1 $-1 $221 $307 #
ellipse-curve $-1 0 0 0.75 0 -1 0 0.0625 0 0 1 I I #
coedge $-1 $149 $148 $308 $309 forward $150 $-1 #
edge $-1 $151 0 $310 0.38 $222 $311 forward 7 unknown #
edge $-1 $152 0 $312 0.38 $221 $313 forward 7 unknown #
face $-1 $307 $150 $3 $-1 $314 reversed single #
point $-1 -0.062500000000000111 0 0.75 #
point $-1 0.0625 0 0.75 #
coedge $-1 $155 $154 $315 $316 forward $156 $-1 #
face $-1 $317 $156 $3 $-1 $318 reversed single #
coedge $-1 $315 $315 $158 $234 reversed $319 $-1 #
edge $-1 $235 0 $237 3.1415926535897931 $233 $320 forward 7 unknown #
vertex $-1 $316 $321 #
straight-curve $-1 -0.68400000000000005 0 0.75 0 -1 0 I I #
vertex $-1 $316 $322 #
straight-curve $-1 -0.55900000000000005 0 0.75 0 -1 0 I I #
cone-surface $-1 -0.62150000000000005 0 0.75 0 -1 0 0.0625 0 0 1 I I 0 1 0.0625 forward I I I I #
coedge $-1 $164 $255 $246 $323 forward $101 $-1 #
edge $-1 $248 0 $178 0.68000000000000005 $164 $324 forward 7 unknown #
straight-curve $-1 0.96850000000000003 -1.093 1.5 0 1 0 I I #
face $-1 $325 $326 $3 $-1 $327 reversed single #
plane-surface $-1 0 0 1.5 0 0 1 1 0 0 forward_v I I I I #
straight-curve $-1 0.068500000000000116 -1.593 0 1 0 0 I I #
coedge $-1 $171 $170 $240 $323 reversed $124 $-1 #
point $-1 0.28849999999999998 -1.593 0 #
vertex $-1 $241 $328 #
straight-curve $-1 0.28849999999999998 -1.093 0 0 0 1 I I #
loop $-1 $-1 $329 $123 #
coedge $-1 $330 $330 $331 $332 reversed $176 $-1 #
point $-1 0.96850000000000003 -1.093 1.5 #
point $-1 0.068500000000000116 -1.593 0 #
coedge $-1 $333 $333 $334 $335 forward $185 $-1 #
coedge $-1 $240 $191 $186 $256 forward $101 $-1 #
edge $-1 $193 0 $257 0.21999999999999986 $255 $336 forward 7 unknown #
vertex $-1 $323 $337 #
straight-curve $-1 0.28849999999999998 -1.593 0 0 0 1 I I #
coedge $-1 $338 $339 $188 $260 forward $340 $-1 #
edge $-1 $265 0 $264 3.1415926535897931 $188 $341 forward 7 unknown #
coedge $-1 $334 $189 $339 $342 reversed $263 $-1 #
coedge $-1 $189 $334 $338 $343 forward $263 $-1 #
loop $-1 $-1 $261 $344 #
vertex $-1 $260 $345 #
vertex $-1 $260 $346 #
ellipse-curve $-1 0.068500000000000116 -1.343 0.75 -1 0 0 0 0.125 0 1 I I #
straight-curve $-1 0.068500000000000116 -0.5 1.5 0 -1 0 I I #
point $-1 0.068500000000000116 -1.593 1.5 #
coedge $-1 $347 $348 $195 $270 forward $349 $-1 #
edge $-1 $275 0 $274 3.1415926535897931 $195 $350 forward 7 unknown #
coedge $-1 $289 $196 $348 $351 reversed $273 $-1 #
coedge $-1 $196 $289 $347 $352 forward $273 $-1 #
loop $-1 $-1 $271 $353 #
vertex $-1 $270 $354 #
vertex $-1 $270 $355 #
ellipse-curve $-1 -0.62150000000000005 -0.5 1.1560000000000001 0 -1 0 -0.125 0 0 1 I I #
coedge $-1 $291 $198 $201 $282 reversed $279 $-1 #
coedge $-1 $198 $291 $200 $281 forward $279 $-1 #
loop $-1 $-1 $277 $356 #
ellipse-curve $-1 -0.62150000000000005 -0.5 0.34399999999999997 0 -1 0 0.125 0 0 1 I I #
edge $-1 $294 0 $204 0.5 $278 $357 forward 7 unknown #
edge $-1 $293 0 $203 0.5 $277 $358 forward 7 unknown #
face $-1 $356 $202 $3 $-1 $359 reversed single #
point $-1 -0.74650000000000005 -0.5 0.34399999999999997 #
point $-1 -0.49650000000000005 -0.5 0.34399999999999997 #
loop $-1 $-1 $360 $5 #
coedge $-1 $361 $361 $362 $363 forward $208 $-1 #
coedge $-1 $209 $209 $364 $365 forward $141 $-1 #
coedge $-1 $272 $271 $209 $290 reversed $273 $-1 #
edge $-1 $366 0 $367 3.1415926535897931 $209 $368 forward 7 unknown #
coedge $-1 $278 $277 $210 $292 reversed $279 $-1 #
edge $-1 $294 0 $293 3.1415926535897936 $210 $369 forward 7 unknown #
vertex $-1 $292 $370 #
vertex $-1 $292 $371 #
ellipse-curve $-1 -0.62150000000000005 0 0.34399999999999997 0 -1 0 -0.125 0 0 1 I I #
coedge $-1 $372 $213 $216 $302 forward $298 $-1 #
coedge $-1 $213 $372 $215 $301 reversed $298 $-1 #
loop $-1 $-1 $296 $373 #
ellipse-curve $-1 0.62850000000000006 0 0.75 0 -1 0 0.125 0 0 1 I I #
coedge $-1 $216 $215 $374 $375 forward $217 $-1 #
edge $-1 $218 0 $376 0.62 $297 $377 forward 7 unknown #
edge $-1 $219 0 $378 0.62 $296 $379 forward 7 unknown #
face $-1 $373 $217 $3 $-1 $380 reversed single #
point $-1 0.50350000000000006 0 0.75 #
point $-1 0.75350000000000006 0 0.75 #
coedge $-1 $222 $221 $381 $382 forward $223 $-1 #
face $-1 $383 $223 $3 $-1 $384 reversed single #
coedge $-1 $381 $381 $225 $309 reversed $385 $-1 #
edge $-1 $310 0 $312 3.1415926535897931 $308 $386 forward 7 unknown #
vertex $-1 $382 $387 #
straight-curve $-1 -0.0625 0 0.75 0 -1 0 I I #
vertex $-1 $382 $388 #
straight-curve $-1 0.0625 0 0.75 0 -1 0 I I #
cone-surface $-1 0 0 0.75 0 -1 0 0.0625 0 0 1 I I 0 1 0.0625 forward I I I I #
coedge $-1 $233 $233 $231 $316 reversed $319 $-1 #
edge $-1 $237 0 $235 3.1415926535897931 $315 $389 forward 7 unknown #
face $-1 $228 $319 $3 $-1 $390 reversed single #
cone-surface $-1 -0.62150000000000005 0 0.75 0 -1 0 0.0625 0 0 1 I I 0 1 0.0625 forward I I I I #
loop $-1 $-1 $233 $317 #
ellipse-curve $-1 -0.62150000000000016 -0.38 0.75 0 -1 0 -0.062499999999999889 0 0 1 I I #
point $-1 -0.68400000000000005 -0.38 0.75 #
point $-1 -0.55900000000000005 -0.38 0.75 #
edge $-1 $257 0 $248 0.5 $240 $391 forward 7 unknown #
straight-curve $-1 0.28849999999999998 -1.093 1.5 1 0 0 I I #
face $-1 $392 $393 $3 $-1 $394 reversed single #
loop $-1 $-1 $395 $243 #
cone-surface $-1 0.62850000000000006 0 0.34399999999999997 0 -1 0 0.140625 0 0 1 I I 0 1 0.140625 forward I I I I #
point $-1 0.28849999999999998 -1.093 1.5 #
coedge $-1 $396 $396 $397 $398 reversed $250 $-1 #
coedge $-1 $251 $251 $399 $400 reversed $176 $-1 #
coedge $-1 $401 $395 $251 $332 forward $326 $-1 #
edge $-1 $402 0 $403 3.1415926535897931 $251 $404 forward 7 unknown #
coedge $-1 $254 $254 $405 $406 forward $185 $-1 #
coedge $-1 $262 $261 $254 $335 reversed $263 $-1 #
edge $-1 $407 0 $408 3.1415926535897931 $254 $409 forward 7 unknown #
straight-curve $-1 0.068500000000000116 -1.593 1.5 1 0 0 I I #
point $-1 0.28849999999999998 -1.593 1.5 #
coedge $-1 $405 $259 $262 $343 reversed $340 $-1 #
coedge $-1 $259 $405 $261 $342 forward $340 $-1 #
loop $-1 $-1 $338 $410 #
ellipse-curve $-1 0.068500000000000116 -1.343 0.75 -1 0 0 0 -0.125 0 1 I I #
edge $-1 $408 0 $265 0.21999999999999986 $339 $411 forward 7 unknown #
edge $-1 $407 0 $264 0.21999999999999986 $338 $412 forward 7 unknown #
face $-1 $410 $263 $3 $-1 $413 reversed single #
point $-1 0.068500000000000116 -1.218 0.75 #
point $-1 0.068500000000000116 -1.468 0.75 #
coedge $-1 $364 $269 $272 $352 reversed $349 $-1 #
coedge $-1 $269 $364 $271 $351 forward $349 $-1 #
loop $-1 $-1 $347 $414 #
ellipse-curve $-1 -0.62150000000000005 -0.5 1.1560000000000001 0 -1 0 0.125 0 0 1 I I #
edge $-1 $367 0 $275 0.5 $348 $415 forward 7 unknown #
edge $-1 $366 0 $274 0.5 $347 $416 forward 7 unknown #
face $-1 $414 $273 $3 $-1 $417 reversed single #
point $-1 -0.74650000000000005 -0.5 1.1560000000000001 #
point $-1 -0.49650000000000005 -0.5 1.1560000000000001 #
face $-1 $353 $279 $3 $-1 $418 reversed single #
straight-curve $-1 -0.49650000000000005 0 0.34399999999999997 0 -1 0 I I #
straight-curve $-1 -0.74650000000000005 0 0.34399999999999997 0 -1 0 I I #
cone-surface $-1 -0.62150000000000005 0 0.34399999999999997 0 -1 0 0.125 0 0 1 I I 0 1 0.125 forward I I I I #
coedge $-1 $419 $419 $420 $421 forward $286 $-1 #
coedge $-1 $287 $287 $422 $423 forward $208 $-1 #
coedge $-1 $424 $425 $287 $363 reversed $426 $-1 #
edge $-1 $427 0 $428 3.1415926535897931 $287 $429 forward 7 unknown #
coedge $-1 $348 $347 $288 $365 reversed $349 $-1 #
edge $-1 $367 0 $366 3.1415926535897931 $288 $430 forward 7 unknown #
vertex $-1 $365 $431 #
vertex $-1 $365 $432 #
ellipse-curve $-1 -0.62150000000000005 0 1.1560000000000001 0 -1 0 -0.125 0 0 1 I I #
ellipse-curve $-1 -0.62150000000000005 0 0.34399999999999997 0 -1 0 0.125 0 -5.5511151231257827e-017 1 I I #
point $-1 -0.74650000000000005 0 0.34399999999999997 #
point $-1 -0.49650000000000005 0 0.34399999999999992 #
coedge $-1 $297 $296 $433 $434 forward $298 $-1 #
face $-1 $435 $298 $3 $-1 $436 reversed single #
coedge $-1 $433 $433 $300 $375 reversed $437 $-1 #
edge $-1 $376 0 $378 3.1415926535897913 $374 $438 forward 7 unknown #
vertex $-1 $434 $439 #
straight-curve $-1 0.50350000000000006 0 0.75 0 -1 0 I I #
vertex $-1 $434 $440 #
straight-curve $-1 0.75350000000000006 0 0.75 0 -1 0 I I #
cone-surface $-1 0.62850000000000006 0 0.75 0 -1 0 0.125 0 0 1 I I 0 1 0.125 forward I I I I #
coedge $-1 $308 $308 $306 $382 reversed $385 $-1 #
edge $-1 $312 0 $310 3.1415926535897967 $381 $441 forward 7 unknown #
face $-1 $303 $385 $3 $-1 $442 reversed single #
cone-surface $-1 0 0 0.75 0 -1 0 0.0625 0 0 1 I I 0 1 0.0625 forward I I I I #
loop $-1 $-1 $308 $383 #
ellipse-curve $-1 0 -0.38 0.75 0 -1 0 -0.0625 0 0 1 I I #
point $-1 -0.0625 -0.38 0.75 #
point $-1 0.0625 -0.38 0.75 #
ellipse-curve $-1 -0.62149999999999994 -0.38 0.75 0 -1 0 0.062499999999999889 0 0 1 I I #
plane-surface $-1 -0.62150000000000005 -0.38 0.75 0 -1 0 1 0 0 forward_v I I I I #
straight-curve $-1 0.28849999999999998 -1.593 1.5 0 1 0 I I #
face $-1 $443 $444 $3 $-1 $445 reversed single #
loop $-1 $-1 $446 $325 #
cone-surface $-1 0.62850000000000006 0 0.34399999999999997 0 -1 0 0.140625 0 0 1 I I 0 1 0.140625 forward I I I I #
coedge $-1 $331 $447 $448 $449 forward $326 $-1 #
coedge $-1 $329 $329 $450 $451 reversed $250 $-1 #
coedge $-1 $452 $453 $329 $398 forward $454 $-1 #
edge $-1 $455 0 $456 3.1415926535897931 $329 $457 forward 7 unknown #
coedge $-1 $448 $446 $330 $400 forward $393 $-1 #
edge $-1 $403 0 $402 3.1415926535897931 $330 $458 forward 7 unknown #
coedge $-1 $447 $331 $446 $459 reversed $326 $-1 #
vertex $-1 $400 $460 #
vertex $-1 $400 $461 #
ellipse-curve $-1 0.62850000000000006 -1.093 0.34399999999999997 0 -1 0 -0.140625 0 -5.5511151231257827e-017 1 I I #
coedge $-1 $339 $338 $333 $406 reversed $340 $-1 #
edge $-1 $408 0 $407 3.1415926535897931 $333 $462 forward 7 unknown #
vertex $-1 $406 $463 #
vertex $-1 $406 $464 #
ellipse-curve $-1 0.28849999999999998 -1.343 0.75 -1 0 0 0 0.125 0 1 I I #
face $-1 $283 $340 $3 $-1 $465 reversed single #
straight-curve $-1 0.28849999999999998 -1.468 0.75 -1 0 0 I I #
straight-curve $-1 0.28849999999999998 -1.218 0.75 -1 0 0 I I #
cone-surface $-1 0.28849999999999998 -1.343 0.75 -1 0 0 0 -0.125 0 1 I I 0 1 0.125 forward I I I I #
face $-1 $161 $349 $3 $-1 $466 reversed single #
straight-curve $-1 -0.49650000000000005 0 1.1560000000000001 0 -1 0 I I #
straight-curve $-1 -0.74650000000000005 0 1.1560000000000001 0 -1 0 I I #
cone-surface $-1 -0.62150000000000005 0 1.1560000000000001 0 -1 0 0.125 0 0 1 I I 0 1 0.125 forward I I I I #
cone-surface $-1 -0.62150000000000005 0 0.34399999999999997 0 -1 0 0.125 0 0 1 I I 0 1 0.125 forward I I I I #
coedge $-1 $360 $360 $467 $468 forward $286 $-1 #
coedge $-1 $469 $470 $360 $421 reversed $471 $-1 #
edge $-1 $472 0 $473 3.1415926535897931 $360 $474 forward 7 unknown #
coedge $-1 $475 $476 $361 $423 reversed $477 $-1 #
edge $-1 $428 0 $427 3.1415926535897931 $361 $478 forward 7 unknown #
coedge $-1 $479 $362 $476 $480 forward $426 $-1 #
coedge $-1 $362 $479 $475 $481 reversed $426 $-1 #
loop $-1 $-1 $424 $443 #
vertex $-1 $423 $482 #
vertex $-1 $423 $483 #
ellipse-curve $-1 0.62850000000000006 0 0.34399999999999997 0 -1 0 -0.203125 0 0 1 I I #
ellipse-curve $-1 -0.62150000000000005 0 1.1560000000000001 0 -1 0 0.125 0 0 1 I I #
point $-1 -0.74650000000000005 0 1.1560000000000001 #
point $-1 -0.49650000000000005 0 1.1560000000000001 #
coedge $-1 $374 $374 $372 $434 reversed $437 $-1 #
edge $-1 $378 0 $376 3.1415926535897913 $433 $484 forward 7 unknown #
face $-1 $-1 $437 $3 $-1 $485 reversed single #
cone-surface $-1 0.62850000000000006 0 0.75 0 -1 0 0.125 0 0 1 I I 0 1 0.125 forward I I I I #
loop $-1 $-1 $374 $435 #
ellipse-curve $-1 0.62850000000000006 -0.62 0.75000000000000011 0 -1 0 -0.125 0 -1.1102230246251565e-016 1 I I #
point $-1 0.50350000000000006 -0.62 0.75 #
point $-1 0.75350000000000006 -0.62 0.75 #
ellipse-curve $-1 1.7347234759768071e-018 -0.38 0.75000000000000011 0 -1 0 0.0625 0 -1.1102230246251565e-016 1 I I #
plane-surface $-1 0 -0.38 0.75 0 -1 0 1 0 0 forward_v I I I I #
face $-1 $486 $426 $3 $-1 $487 reversed single #
loop $-1 $488 $489 $392 #
plane-surface $-1 0.62850000000000006 -0.59299999999999997 0.34399999999999997 0 -1 0 1 0 0 forward_v I I I I #
coedge $-1 $399 $490 $401 $459 forward $393 $-1 #
coedge $-1 $395 $401 $491 $492 reversed $326 $-1 #
coedge $-1 $490 $399 $395 $449 reversed $393 $-1 #
edge $-1 $493 0 $402 0.5 $448 $494 forward 7 unknown #
coedge $-1 $495 $496 $396 $451 forward $497 $-1 #
edge $-1 $456 0 $455 3.1415926535897931 $396 $498 forward 7 unknown #
coedge $-1 $499 $397 $496 $500 reversed $454 $-1 #
coedge $-1 $397 $499 $495 $501 forward $454 $-1 #
loop $-1 $-1 $453 $502 #
vertex $-1 $451 $503 #
vertex $-1 $451 $504 #
ellipse-curve $-1 0.62850000000000006 -1.093 1.1560000000000001 0 -1 0 -0.140625 0 0 1 I I #
ellipse-curve $-1 0.62850000000000006 -1.093 0.34399999999999997 0 -1 0 0.140625 0 5.5511151231257827e-017 1 I I #
edge $-1 $505 0 $403 0.5 $446 $506 forward 7 unknown #
point $-1 0.48787500000000006 -1.093 0.34399999999999992 #
point $-1 0.76912500000000006 -1.093 0.34400000000000003 #
ellipse-curve $-1 0.28849999999999998 -1.343 0.75 -1 0 0 0 -0.125 0 1 I I #
point $-1 0.28849999999999998 -1.218 0.75 #
point $-1 0.28849999999999998 -1.468 0.75 #
cone-surface $-1 0.28849999999999998 -1.343 0.75 -1 0 0 0 -0.125 0 1 I I 0 1 0.125 forward I I I I #
cone-surface $-1 -0.62150000000000005 0 1.1560000000000001 0 -1 0 0.125 0 0 1 I I 0 1 0.125 forward I I I I #
coedge $-1 $507 $508 $419 $468 reversed $509 $-1 #
edge $-1 $473 0 $472 3.1415926535897931 $419 $510 forward 7 unknown #
coedge $-1 $511 $420 $508 $512 forward $471 $-1 #
coedge $-1 $420 $511 $507 $513 reversed $471 $-1 #
loop $-1 $-1 $469 $514 #
vertex $-1 $468 $515 #
vertex $-1 $468 $516 #
ellipse-curve $-1 0.62850000000000006 0 1.1560000000000001 0 -1 0 -0.203125 0 0 1 I I #
coedge $-1 $517 $422 $425 $481 forward $477 $-1 #
coedge $-1 $422 $517 $424 $480 reversed $477 $-1 #
loop $-1 $-1 $475 $486 #
ellipse-curve $-1 0.62850000000000006 0 0.34399999999999997 0 -1 0 0.203125 0 0 1 I I #
coedge $-1 $425 $424 $489 $518 forward $426 $-1 #
edge $-1 $427 0 $519 0.59299999999999997 $476 $520 forward 7 unknown #
edge $-1 $428 0 $521 0.59299999999999997 $475 $522 forward 7 unknown #
point $-1 0.42537500000000006 0 0.34399999999999997 #
point $-1 0.83162500000000006 0 0.34399999999999997 #
ellipse-curve $-1 0.62850000000000006 -0.62 0.74999999999999989 0 -1 0 0.125 0 1.1102230246251565e-016 1 I I #
plane-surface $-1 0.62850000000000006 -0.62 0.75 0 -1 0 1 0 0 forward_v I I I I #
face $-1 $502 $477 $3 $-1 $523 reversed single #
cone-surface $-1 0.62850000000000006 0 0.34399999999999997 0 -1 0 0.203125 0 0 1 I I 0 1 0.203125 forward I I I I #
loop $-1 $-1 $491 $392 #
coedge $-1 $524 $524 $479 $518 reversed $444 $-1 #
coedge $-1 $446 $448 $525 $526 reversed $393 $-1 #
coedge $-1 $525 $525 $447 $492 forward $488 $-1 #
edge $-1 $493 0 $505 3.1415926535897931 $447 $527 forward 7 unknown #
vertex $-1 $526 $528 #
straight-curve $-1 0.48787500000000006 -0.59299999999999997 0.34399999999999997 0 -1 -1.1102230246251565e-016 I I #
coedge $-1 $529 $450 $453 $501 reversed $497 $-1 #
coedge $-1 $450 $529 $452 $500 forward $497 $-1 #
loop $-1 $-1 $496 $530 #
ellipse-curve $-1 0.62850000000000006 -1.093 1.1560000000000001 0 -1 0 0.140625 0 0 1 I I #
coedge $-1 $453 $452 $531 $532 reversed $454 $-1 #
edge $-1 $533 0 $456 0.5 $496 $534 forward 7 unknown #
edge $-1 $535 0 $455 0.5 $495 $536 forward 7 unknown #
face $-1 $530 $454 $3 $-1 $537 reversed single #
point $-1 0.48787500000000006 -1.093 1.1560000000000001 #
point $-1 0.76912500000000006 -1.093 1.1560000000000001 #
vertex $-1 $526 $538 #
straight-curve $-1 0.76912500000000006 -0.59299999999999997 0.34399999999999997 0 -1 0 I I #
coedge $-1 $539 $467 $470 $513 forward $509 $-1 #
coedge $-1 $467 $539 $469 $512 reversed $509 $-1 #
loop $-1 $-1 $507 $540 #
ellipse-curve $-1 0.62850000000000006 0 1.1560000000000001 0 -1 0 0.203125 0 0 1 I I #
coedge $-1 $470 $469 $541 $542 forward $471 $-1 #
edge $-1 $472 0 $543 0.59299999999999997 $508 $544 forward 7 unknown #
edge $-1 $473 0 $545 0.59299999999999997 $507 $546 forward 7 unknown #
face $-1 $540 $471 $3 $-1 $547 reversed single #
point $-1 0.42537500000000006 0 1.1560000000000001 #
point $-1 0.83162500000000006 0 1.1560000000000001 #
coedge $-1 $476 $475 $524 $548 forward $477 $-1 #
edge $-1 $519 0 $521 3.1415926535897931 $489 $549 forward 7 unknown #
vertex $-1 $548 $550 #
straight-curve $-1 0.42537500000000006 0 0.34399999999999997 0 -1 0 I I #
vertex $-1 $548 $551 #
straight-curve $-1 0.83162500000000006 0 0.34399999999999997 0 -1 0 I I #
cone-surface $-1 0.62850000000000006 0 0.34399999999999997 0 -1 0 0.203125 0 0 1 I I 0 1 0.203125 forward I I I I #
coedge $-1 $489 $489 $517 $548 reversed $444 $-1 #
coedge $-1 $491 $491 $490 $526 forward $488 $-1 #
edge $-1 $505 0 $493 3.1415926535897931 $490 $552 forward 7 unknown #
ellipse-curve $-1 0.62850000000000006 -0.59299999999999997 0.34399999999999997 0 -1 0 -0.140625 0 0 1 I I #
point $-1 0.48787500000000006 -0.59299999999999997 0.34399999999999997 #
coedge $-1 $496 $495 $553 $554 reversed $497 $-1 #
face $-1 $555 $497 $3 $-1 $556 reversed single #
coedge $-1 $553 $553 $499 $532 forward $557 $-1 #
edge $-1 $535 0 $533 3.1415926535897931 $499 $558 forward 7 unknown #
vertex $-1 $554 $559 #
straight-curve $-1 0.76912500000000006 -0.59299999999999997 1.1560000000000001 0 -1 0 I I #
vertex $-1 $554 $560 #
straight-curve $-1 0.48787500000000006 -0.59299999999999997 1.1560000000000001 0 -1 0 I I #
cone-surface $-1 0.62850000000000006 0 1.1560000000000001 0 -1 0 0.140625 0 0 1 I I 0 1 0.140625 forward I I I I #
point $-1 0.76912500000000006 -0.59299999999999997 0.34399999999999997 #
coedge $-1 $508 $507 $561 $562 forward $509 $-1 #
face $-1 $344 $509 $3 $-1 $563 reversed single #
coedge $-1 $561 $561 $511 $542 reversed $564 $-1 #
edge $-1 $543 0 $545 3.1415926535897931 $541 $565 forward 7 unknown #
vertex $-1 $562 $566 #
straight-curve $-1 0.42537500000000006 0 1.1560000000000001 0 -1 0 I I #
vertex $-1 $562 $567 #
straight-curve $-1 0.83162500000000006 0 1.1560000000000001 0 -1 0 I I #
cone-surface $-1 0.62850000000000006 0 1.1560000000000001 0 -1 0 0.203125 0 0 1 I I 0 1 0.203125 forward I I I I #
edge $-1 $521 0 $519 3.1415926535897936 $524 $568 forward 7 unknown #
ellipse-curve $-1 0.62850000000000006 -0.59299999999999997 0.34399999999999997 0 -1 0 -0.203125 0 0 1 I I #
point $-1 0.42537500000000006 -0.59299999999999997 0.34399999999999997 #
point $-1 0.83162500000000006 -0.59299999999999997 0.34399999999999997 #
ellipse-curve $-1 0.62850000000000006 -0.59299999999999997 0.34399999999999997 0 -1 0 0.140625 0 0 1 I I #
coedge $-1 $531 $531 $529 $554 forward $557 $-1 #
edge $-1 $533 0 $535 3.1415926535897931 $529 $569 forward 7 unknown #
face $-1 $514 $564 $3 $-1 $570 reversed single #
cone-surface $-1 0.62850000000000006 0 1.1560000000000001 0 -1 0 0.140625 0 0 1 I I 0 1 0.140625 forward I I I I #
loop $-1 $-1 $531 $555 #
ellipse-curve $-1 0.62850000000000006 -0.59299999999999997 1.1560000000000001 0 -1 0 -0.140625 0 0 1 I I #
point $-1 0.76912500000000006 -0.59299999999999997 1.1560000000000001 #
point $-1 0.48787500000000006 -0.59299999999999997 1.1560000000000001 #
coedge $-1 $541 $541 $539 $562 reversed $564 $-1 #
edge $-1 $545 0 $543 3.1415926535897931 $561 $571 forward 7 unknown #
cone-surface $-1 0.62850000000000006 0 1.1560000000000001 0 -1 0 0.203125 0 0 1 I I 0 1 0.203125 forward I I I I #
loop $-1 $557 $541 $555 #
ellipse-curve $-1 0.62850000000000006 -0.59299999999999997 1.1560000000000001 0 -1 0 -0.203125 0 0 1 I I #
point $-1 0.42537500000000006 -0.59299999999999997 1.1560000000000001 #
point $-1 0.83162500000000006 -0.59299999999999997 1.1560000000000001 #
ellipse-curve $-1 0.62850000000000006 -0.59299999999999997 0.34400000000000003 0 -1 0 0.203125 0 -5.5511151231257827e-017 1 I I #
ellipse-curve $-1 0.62850000000000006 -0.59299999999999997 1.1560000000000001 0 -1 0 0.140625 0 0 1 I I #
plane-surface $-1 0.62850000000000006 -0.59299999999999997 1.1560000000000001 0 -1 0 1 0 0 forward_v I I I I #
ellipse-curve $-1 0.62850000000000006 -0.59299999999999997 1.1560000000000001 0 -1 0 0.203125 0 0 1 I I #
End-of-ACIS-data 