  0
SECTION
  2
HEADER
  9
$ACADVER
  1
AC1009
  9
$INSBASE
 10
0.0
 20
0.0
 30
0.0
  9
$EXTMIN
 10
0.0
 20
0.0
 30
0.0
  9
$EXTMAX
 10
4.5
 20
4.5
 30
4.0
  9
$LIMMIN
 10
0.0
 20
0.0
  9
$LIMMAX
 10
12.0
 20
9.0
  9
$ORTHOMODE
 70
     0
  9
$REGENMODE
 70
     1
  9
$FILLMODE
 70
     1
  9
$QTEXTMODE
 70
     0
  9
$MIRRTEXT
 70
     1
  9
$DRAGMODE
 70
     2
  9
$LTSCALE
 40
1.0
  9
$OSMODE
 70
     0
  9
$ATTMODE
 70
     1
  9
$TEXTSIZE
 40
0.2
  9
$TRACEWID
 40
0.05
  9
$TEXTSTYLE
  7
STANDARD
  9
$CLAYER
  8
0
  9
$CELTYPE
  6
BYLAYER
  9
$CECOLOR
 62
   256
  9
$DIMSCALE
 40
1.0
  9
$DIMASZ
 40
0.18
  9
$DIMEXO
 40
0.0625
  9
$DIMDLI
 40
0.38
  9
$DIMRND
 40
0.0
  9
$DIMDLE
 40
0.0
  9
$DIMEXE
 40
0.18
  9
$DIMTP
 40
0.0
  9
$DIMTM
 40
0.0
  9
$DIMTXT
 40
0.18
  9
$DIMCEN
 40
0.09
  9
$DIMTSZ
 40
0.0
  9
$DIMTOL
 70
     0
  9
$DIMLIM
 70
     0
  9
$DIMTIH
 70
     1
  9
$DIMTOH
 70
     1
  9
$DIMSE1
 70
     0
  9
$DIMSE2
 70
     0
  9
$DIMTAD
 70
     0
  9
$DIMZIN
 70
     0
  9
$DIMBLK
  1

  9
$DIMASO
 70
     1
  9
$DIMSHO
 70
     1
  9
$DIMPOST
  1

  9
$DIMAPOST
  1

  9
$DIMALT
 70
     0
  9
$DIMALTD
 70
     2
  9
$DIMALTF
 40
25.4
  9
$DIMLFAC
 40
1.0
  9
$DIMTOFL
 70
     0
  9
$DIMTVP
 40
0.0
  9
$DIMTIX
 70
     0
  9
$DIMSOXD
 70
     0
  9
$DIMSAH
 70
     0
  9
$DIMBLK1
  1

  9
$DIMBLK2
  1

  9
$DIMSTYLE
  2
*UNNAMED
  9
$DIMCLRD
 70
     0
  9
$DIMCLRE
 70
     0
  9
$DIMCLRT
 70
     0
  9
$DIMTFAC
 40
1.0
  9
$DIMGAP
 40
0.09
  9
$LUNITS
 70
     2
  9
$LUPREC
 70
     4
  9
$SKETCHINC
 40
0.1
  9
$FILLETRAD
 40
0.0
  9
$AUNITS
 70
     0
  9
$AUPREC
 70
     0
  9
$MENU
  1
acad
  9
$ELEVATION
 40
0.0
  9
$PELEVATION
 40
0.0
  9
$THICKNESS
 40
0.0
  9
$LIMCHECK
 70
     0
  9
$BLIPMODE
 70
     1
  9
$CHAMFERA
 40
0.0
  9
$CHAMFERB
 40
0.0
  9
$SKPOLY
 70
     0
  9
$TDCREATE
 40
2449406.946245659
  9
$TDUPDATE
 40
2449406.946245659
  9
$TDINDWG
 40
0.0000000000
  9
$TDUSRTIMER
 40
0.0000000000
  9
$USRTIMER
 70
     1
  9
$ANGBASE
 50
0.0
  9
$ANGDIR
 70
     0
  9
$PDMODE
 70
     0
  9
$PDSIZE
 40
0.0
  9
$PLINEWID
 40
0.0
  9
$COORDS
 70
     1
  9
$SPLFRAME
 70
     0
  9
$SPLINETYPE
 70
     6
  9
$SPLINESEGS
 70
     8
  9
$ATTDIA
 70
     0
  9
$ATTREQ
 70
     1
  9
$HANDLING
 70
     1
  9
$HANDSEED
  5
53
  9
$SURFTAB1
 70
     6
  9
$SURFTAB2
 70
     6
  9
$SURFTYPE
 70
     6
  9
$SURFU
 70
     6
  9
$SURFV
 70
     6
  9
$UCSNAME
  2

  9
$UCSORG
 10
0.0
 20
0.0
 30
0.0
  9
$UCSXDIR
 10
1.0
 20
0.0
 30
0.0
  9
$UCSYDIR
 10
0.0
 20
1.0
 30
0.0
  9
$PUCSNAME
  2

  9
$PUCSORG
 10
0.0
 20
0.0
 30
0.0
  9
$PUCSXDIR
 10
1.0
 20
0.0
 30
0.0
  9
$PUCSYDIR
 10
0.0
 20
1.0
 30
0.0
  9
$USERI1
 70
     0
  9
$USERI2
 70
     0
  9
$USERI3
 70
     0
  9
$USERI4
 70
     0
  9
$USERI5
 70
     0
  9
$USERR1
 40
0.0
  9
$USERR2
 40
0.0
  9
$USERR3
 40
0.0
  9
$USERR4
 40
0.0
  9
$USERR5
 40
0.0
  9
$WORLDVIEW
 70
     1
  9
$SHADEDGE
 70
     3
  9
$SHADEDIF
 70
    70
  9
$TILEMODE
 70
     1
  9
$MAXACTVP
 70
    16
  9
$PINSBASE
 10
0.0
 20
0.0
 30
0.0
  9
$PLIMCHECK
 70
     0
  9
$PEXTMIN
 10
1.000000E+20
 20
1.000000E+20
 30
1.000000E+20
  9
$PEXTMAX
 10
-1.000000E+20
 20
-1.000000E+20
 30
-1.000000E+20
  9
$PLIMMIN
 10
0.0
 20
0.0
  9
$PLIMMAX
 10
12.0
 20
9.0
  9
$UNITMODE
 70
     0
  9
$VISRETAIN
 70
     0
  9
$PLINEGEN
 70
     0
  9
$PSLTSCALE
 70
     1
  9
$TREEDEPTH
 70
  3020
  9
$DWGCODEPAGE
  3
ascii
  0
ENDSEC
  0
SECTION
  2
TABLES
  0
TABLE
  2
VPORT
 70
     2
  0
VPORT
  2
*ACTIVE
 70
     0
 10
0.0
 20
0.0
 11
1.0
 21
1.0
 12
0.852417
 22
0.593366
 13
0.0
 23
0.0
 14
1.0
 24
1.0
 15
0.0
 25
0.0
 16
1.0
 26
2.0
 36
1.0
 17
0.0
 27
0.0
 37
0.0
 40
6.116235
 41
1.594883
 42
50.0
 43
0.0
 44
0.0
 50
0.0
 51
0.0
 71
     0
 72
   100
 73
     1
 74
     1
 75
     0
 76
     0
 77
     0
 78
     0
  0
ENDTAB
  0
TABLE
  2
LTYPE
 70
     1
  0
LTYPE
  2
CONTINUOUS
 70
    64
  3
Solid line
 72
    65
 73
     0
 40
0.0
  0
ENDTAB
  0
TABLE
  2
LAYER
 70
     2
  0
LAYER
  2
0
 70
    64
 62
     7
  6
CONTINUOUS
  0
LAYER
  2
AME_FRZ
 70
    65
 62
     7
  6
CONTINUOUS
  0
ENDTAB
  0
TABLE
  2
STYLE
 70
     1
  0
STYLE
  2
STANDARD
 70
     0
 40
0.0
 41
1.0
 50
0.0
 71
     0
 42
0.2
  3
txt
  4

  0
ENDTAB
  0
TABLE
  2
VIEW
 70
     0
  0
ENDTAB
  0
TABLE
  2
UCS
 70
     0
  0
ENDTAB
  0
TABLE
  2
APPID
 70
     3
  0
APPID
  2
ACAD
 70
    64
  0
APPID
  2
AME_SOL
 70
    64
  0
APPID
  2
AVE_INVOKE
 70
    64
  0
ENDTAB
  0
TABLE
  2
DIMSTYLE
 70
     0
  0
ENDTAB
  0
ENDSEC
  0
SECTION
  2
BLOCKS
  0
BLOCK
  8
0
  5
1
  2
AME_NIL
 70
    64
 10
0.0
 20
0.0
 30
0.0
  1
AME_NIL
  3
AME_NIL
  0
ENDBLK
  8
0
  5
2
  0
BLOCK
  8
0
  5
4
  2
AME_SOL
 70
    64
 10
0.0
 20
0.0
 30
0.0
  1
AME_SOL
  3
AME_SOL
  0
ENDBLK
  8
0
  5
5
  0
BLOCK
  8
0
  5
31
  2
*U4
 70
    65
 10
0.0
 20
0.0
 30
0.0
  1
*U
  3
*U
  0
LINE
  8
0
 62
     7
  5
32
 10
4.0
 20
4.0
 30
0.0
 11
4.0
 21
4.0
 31
4.0
1001
AME_SOL
1070
     1
1071
       33
  0
LINE
  8
0
 62
     7
  5
33
 10
4.0
 20
4.0
 30
4.0
 11
4.0
 21
0.0
 31
4.0
1001
AME_SOL
1070
     1
1071
       32
  0
LINE
  8
0
 62
     7
  5
34
 10
0.0
 20
4.0
 30
4.0
 11
4.0
 21
4.0
 31
4.0
1001
AME_SOL
1070
     1
1071
       31
  0
LINE
  8
0
 62
     7
  5
35
 10
0.0
 20
4.0
 30
0.0
 11
0.0
 21
4.0
 31
4.0
1001
AME_SOL
1070
     1
1071
       30
  0
LINE
  8
0
 62
     7
  5
36
 10
0.0
 20
4.0
 30
4.0
 11
0.0
 21
0.0
 31
4.0
1001
AME_SOL
1070
     1
1071
       29
  0
LINE
  8
0
 62
     7
  5
37
 10
0.0
 20
0.0
 30
0.0
 11
0.0
 21
0.0
 31
4.0
1001
AME_SOL
1070
     1
1071
       28
  0
LINE
  8
0
 62
     7
  5
38
 10
4.0
 20
0.0
 30
4.0
 11
4.0
 21
0.0
 31
0.0
1001
AME_SOL
1070
     1
1071
       27
  0
LINE
  8
0
 62
     7
  5
39
 10
0.0
 20
0.0
 30
4.0
 11
4.0
 21
0.0
 31
4.0
1001
AME_SOL
1070
     1
1071
       26
  0
LINE
  8
0
 62
     7
  5
3A
 10
0.0
 20
0.0
 30
0.0
 11
4.0
 21
0.0
 31
0.0
1001
AME_SOL
1070
     1
1071
       25
  0
LINE
  8
0
 62
     7
  5
3B
 10
0.0
 20
4.0
 30
0.0
 11
0.0
 21
0.0
 31
0.0
1001
AME_SOL
1070
     1
1071
       24
  0
LINE
  8
0
 62
     7
  5
3C
 10
4.0
 20
0.0
 30
0.0
 11
4.0
 21
4.0
 31
0.0
1001
AME_SOL
1070
     1
1071
       23
  0
LINE
  8
0
 62
     7
  5
3D
 10
4.0
 20
4.0
 30
0.0
 11
0.0
 21
4.0
 31
0.0
1001
AME_SOL
1070
     1
1071
       22
  0
LINE
  8
0
 62
     7
  5
3E
 10
4.0
 20
3.8
 30
3.0
 11
4.0
 21
2.6
 31
3.0
1001
AME_SOL
1070
     1
1071
       21
  0
LINE
  8
0
 62
     7
  5
3F
 10
2.6
 20
4.0
 30
3.0
 11
3.8
 21
4.0
 31
3.0
1001
AME_SOL
1070
     1
1071
       20
  0
LINE
  8
0
 62
     7
  5
40
 10
4.0
 20
2.6
 30
1.0
 11
4.0
 21
3.8
 31
1.0
1001
AME_SOL
1070
     1
1071
       19
  0
LINE
  8
0
 62
     7
  5
41
 10
3.8
 20
4.0
 30
1.0
 11
2.6
 21
4.0
 31
1.0
1001
AME_SOL
1070
     1
1071
       18
  0
ARC
  8
0
 62
     7
  5
42
 10
3.2
 20
3.2
 30
1.0
 40
1.0
 50
126.869898
 51
323.130102
1001
AME_SOL
1070
     1
1071
       17
  0
ARC
  8
0
 62
     7
  5
43
 10
3.2
 20
3.2
 30
1.0
 40
1.0
 50
36.869898
 51
53.130102
1001
AME_SOL
1070
     1
1071
       16
  0
LINE
  8
0
 62
     7
  5
44
 10
4.0
 20
2.6
 30
1.0
 11
4.0
 21
2.6
 31
3.0
1001
AME_SOL
1070
     1
1071
       15
  0
LINE
  8
0
 62
     7
  5
45
 10
4.0
 20
3.8
 30
1.0
 11
4.0
 21
3.8
 31
3.0
1001
AME_SOL
1070
     1
1071
       14
  0
LINE
  8
0
 62
     7
  5
46
 10
3.8
 20
4.0
 30
1.0
 11
3.8
 21
4.0
 31
3.0
1001
AME_SOL
1070
     1
1071
       13
  0
LINE
  8
0
 62
     7
  5
47
 10
2.6
 20
4.0
 30
1.0
 11
2.6
 21
4.0
 31
3.0
1001
AME_SOL
1070
     1
1071
       12
  0
ARC
  8
0
 62
     7
  5
48
 10
3.2
 20
3.2
 30
3.0
 40
1.0
 50
126.869898
 51
323.130102
1001
AME_SOL
1070
     1
1071
       11
  0
ARC
  8
0
 62
     7
  5
49
 10
3.2
 20
3.2
 30
3.0
 40
1.0
 50
36.869898
 51
53.130102
1001
AME_SOL
1070
     1
1071
       10
  0
LINE
  8
0
 62
     7
  5
4A
 10
3.2
 20
2.2
 30
1.0
 11
3.2
 21
2.2
 31
3.0
1001
AME_SOL
1070
     0
1071
        1
  0
LINE
  8
0
 62
     7
  5
4B
 10
2.2
 20
3.2
 30
1.0
 11
2.2
 21
3.2
 31
3.0
1001
AME_SOL
1070
     0
1071
        1
  0
ENDBLK
  8
0
  5
4C
  0
BLOCK
  8
0
  5
50
  2
AME_JNK
 70
     0
 10
0.0
 20
0.0
 30
0.0
  1
AME_JNK
  3
AME_JNK
  0
ENDBLK
  8
0
  5
51
  0
ENDSEC
  0
SECTION
  2
ENTITIES
  0
INSERT
  8
AME_FRZ
  5
3
  2
AME_NIL
 10
0.0
 20
0.0
 30
0.0
  0
INSERT
  8
AME_FRZ
  5
6
  2
AME_SOL
 10
0.0
 20
0.0
 30
0.0
1001
AME_SOL
1000
R2.1
1000
AME2
1000
sq cm
1070
     3
1070
     0
1070
     3
1000
wire
1040
45.0
1000
U
1040
1.0
1000
cm
1000
gm
1000
MILD_STEEL
1070
    25
1000
CSG
1070
     1
1070
     3
1070
     3
1070
     3
1070
     0
1000
cu cm
1070
     1
1070
     0
1005
3
  0
INSERT
  8
AME_FRZ
  5
15
  2
AME_NIL
 10
0.0
 20
0.0
 30
0.0
1001
AME_SOL
1002
{
1070
     1
1071
  2388872
1070
  1536
1070
     1
1010
4.0
1020
4.0
1030
4.0
1005
0
1005
0
1005
4D
1040
0.0
1040
1.0
1070
     0
1000
MILD_STEEL
1000
0
1010
0.0
1020
0.0
1030
0.0
1010
0.0
1020
0.0
1030
1.0
1040
0.0
1002
}
1001
AVE_INVOKE
1000
SOLAVEMESH
  0
INSERT
  8
AME_FRZ
  5
2D
  2
AME_NIL
 10
3.2
 20
3.2
 30
1.0
1001
AME_SOL
1002
{
1070
     1
1071
  2391216
1070
  1538
1070
     1
1010
1.0
1020
1.0
1030
2.0
1005
0
1005
0
1005
4D
1040
0.0
1040
1.0
1070
     0
1000
MILD_STEEL
1000
0
1010
3.2
1020
3.2
1030
1.0
1010
0.0
1020
0.0
1030
1.0
1040
0.0
1002
}
1001
AVE_INVOKE
1000
SOLAVEMESH
  0
INSERT
  8
0
  5
4D
  2
*U4
 10
0.0
 20
0.0
 30
0.0
1001
AME_SOL
1002
{
1070
     1
1071
  2427392
1070
  1543
1070
     1
1070
     0
1005
15
1005
2D
1005
0
1005
4E
1005
0
1040
0.0
1040
1.0
1070
     0
1000
MILD_STEEL
1000
0
1002
}
1001
AVE_INVOKE
1000
SOLAVEMESH
  0
INSERT
  8
AME_FRZ
  5
4E
  2
AME_NIL
 10
1.0
 20
1.0
 30
1.0
1001
AME_SOL
1004
C7CF01002301910190018E018A0182017601740065014F013B01660030003C012A0114002D002B0139003E005001A300700077016601960051014900C000670152018D009A00530187003D010300FC0083017801680154010F009B0055011900A400690156018400EE0057013E0104005C003F0182009800
1004
99008B0184017901BF006A01580140017F002C01DF005F00080059018F00D7003F0085017A016B015A014E0041017600CE005B01AF00F50025007B016C015C01F3004201FB005800CC006D015D017900090006008F018C0186017C016E015E010C0043012D011B011001AB00A9002100E900D30075006F01
1004
A000FE007D01100070015F01ED0044014800D10060014501E400BC0046012E01BE001C01260029002F011D019700BB001E01AE00670087014000FF008D0188017E0171016101470130011F01E3003500200138009E00310121014400610022014D00D200480132012301C40054002401AC00110194000E00
1004
330125011201CD00680013016A000101000111002601140102019000F8000301F7002E00150104012F0031000501320037000A007201280062014901340127011601060188003A0007013B003C00170108013D004100090142004300280118010A01450046000B017E007D0019010C017C0047000D01D800
1004
5200E8004A01E00024007F01010073018000180089018001F00002008101740163014B0178003501720077004C0136011A00F2003701EA00C900A8007501050064014D013801600029011A010E01CB00CA000F01C800B800070033004E013901500015003A01EF00B00000007983CF3079044E4D43EB5AF6
1004
67B0E8F6D77592246B6E010EB2448D6DC021D64891ADB80413807501069B4944E01D4041A6D25317AB29F7C929AE72794961C141A24184CD28382834483099A53FE43B3193BFC52700EA020D369289C03A80834DA4A7F5FC592101892A9ABCC60CD0667D6BDABF23BCC61FEE17FFFFFFF70BFE22318C633D
1004
5088C6318CF55FB857DFDC2FEE17FFFFFDE630FF70BFFFFFFFB85FF1118C6319EA8446318C67AAFDC2BEFEE17F70BFFFFFB843067983DC221FF70BFFFFFFFB85FF1118C631B4A41018C6319EABF70AEC5A9D4E1E0B81CE6490B53A9C3C17039CC93F77FEE11FFFD4D7C954EF16A7538782E0739925FB8435
1004
F2550B53A9C3C17039CC936BFFFF53B602B5AD80AD6B6BFFFF5306799DE110FFB85FFFFFFFDC2FFB0B0C6318CF5422318C63695FB85762D4EA70F05C0E732485A9D4E1E0B81CE649FBBFF708FEDBFA9AF92A9DE2D4EA70F05C0E7324BF7086BE4AA16A7538782E0739926D7FEDBFA9DB015AD6C056B5B5FF
1004
B6FEA60CF335C221FF70BFFFFFFFB85FF6183A74E9D3A928446318C67AAFDC2BB16A7538782E07399242D4EA70F05C0E7324DAFEC19E6F0887FDC2FFFFFFFEE17FD8586318C67AA6183A74E9D3A92BF70AEC5A9D4E1E0B81CE6490B53A9C3C17039CC936BF9C9E5164382834483099A507050689061334A7
1004
FC87663277F8A4E01D4041A6D2513807501069B494C91235B7051C2B5143017BC86D6BDABF278A187FB85FFFFFEDBF708FED8446318C67AA1118C6319EABF70AFBFFFFFFFFFE2861FEE17FFFFFB6FDC23FB61118C6319EA8446318C67AAFDC2BEFFFFFFFFFEE1072794590E0A0D120C266941C141A24184C
1004
D2930CAD8E0CDF9A89C03A80834DA4A2700EA020D36929FD7F164840624AA6A2860FC3C46D6BDABCFC50C3FDC2FFFFFFFEE17FC446318C67AA1118C6319EABF2553EFFFFFFFFFF8A187FB85FFFFFFFDC2FF888C6318CF5422318C633D535F2553EFFFFFFFFFEE1072794597592246B6E010EB2448D6DC021
1004
D64891ADB804317AB29F7C9298BD594FBE494EB2448D6DC02B514306E01B6BB561F358A187FFFB85FFFDC2FFFFFFFFFFBEFFFFFFFFFF8A187FFFB85FFFDC2FFFFFFFFFFBEFFFFFFFFFEE14E4F28B2EB2448D6DC021D64891ADB8043AC91235B700862F5653EF9253AC91235B700AC5EACA7DF24A6A286009
1004
426DAED587AD62861FEE17FFFFFFFFF70BFFFFFEFBFFFFFFFFFE2861FEE17FFFFFFFFF70BFFFFFEFBFFFFFFFFFB85393CA2CBAC91235B70087592246B6E010EB2448D6DC021D64891ADB80562F5653EF925317AB29F7C929A8A18268C46DAED412D62861FFFFFEE17FFF70BFFFFFFFEFBFFFFFFFFFE2861F
1004
FFFFEE17FFF70BFFFFFFFEFBFFFFFFFFFB85393CA2CBAC91235B70087592246B6E01098656C706620A62F5653EF925317AB29F7C9298BD594FBE494D450C01DE336D76AC3C6B1430FF708FEDBFB6FEDBF708FEDBF495FA4AFD253EFFFFFFFFFF8A187FB847F6DFDB7F6DFB847F6DFA4AFD257E929F7FFFFF
1004
FFFF70A7279496EB2448D6DC02130CAD8E0CC414EB2448D6DC0218BD594FBE494C5EACA7DF24A62F5653EF9253514307AF036D76AC3B6B1430FFB6FEDBF708FDC23FB6FEDBF495FA4AFD253EFFFFFFFFFF8A187FDB7F6DFB847EE11FDB7F6DFA4AFD257E929F7FFFFFFFFF70A727949698656C706620A759
1004
2246B6E010EB2448D6DC0218BD594FBE494C5EACA7DF24A62F5653EF925351430671E1B6BB5055AC50C3FEDBF708FEDBFB6FEDBF708FD257E92BF494FBFFFFFFFFFE2861FF6DFB847F6DFDB7F6DFB847E92BF495FA4A7DFFFFFFFFFDC2898A87050689061334A0E0A0D120C2669498656C7066FCD44E01D4
1004
041A6D2513807501069B494FEBF8B24203125520AC0D3D031327C4E15349F582BE4FEC2930AEC3E845EC3737B55AD9A0CCFBF0F11BDDBF0F11B668333EB5AD6B5AD61F43FEE17FFFFFFF70BFE22318C633D5088C6318CF54D7C9542CFEE17F70A82B034F40C4C9F13854D27D60AF93FB0A4C2898A8705068
1004
9061334A0E0A0D120C2669498656C7066FCD44E01D4041A6D2513807501069B494FEBF8B2420312553205582309392093D0B05C16313084FC9ED8395D87D0B0E03ECFED56B668333EFC3C46F76FC3C46D9A0CCFAD6B5AD6B587D0E7DFAFD7EBF5FAC00A9D18C631A0A47FA746318C68294FBF5FAFD7EBF58
1004
017FB61118C6319EA8446318C67AA6BE4AA167F70BFB85640AB04612724127A160B82C626109F93DB072898A87050689061334A4C32B638331053FE43B3193BFC562F5653EF925317AB29F7C929FD7F164840624AAFF6BF53B088593330DED56B668333EF5E06F76F5E06D9A0CCFB5D6B5AC221FF70BFFFF
1004
FFFB85FF3A74E9D3A7458AFD257EE15DFFB5FA84C54382834483099A526195B1C198829FF21D98C9DFE2B17AB29F7C9298BD594FBE494FEBF8B2420312557FB5FA9D8442C099966F5ADAB34199F7AF037BB668333EF5E06D6B5ADAE110FFB85FFFFFFFDC2FFB0D02010080402185D5FA4AFDC2BBFF6BF509
1004
8AA6195B1C198828382834483099A53FE43B3193BFC562F5653EF925317AB29F7C929FD7F164840624AAFF6BF53B088534CCA37B55AD9A0CCFB38F0DEED9C786D9A0CCFB5D6B5AC221FF70BFFFFFFFB85FFFD2530D02010080402185D5FB8577FED7EA13154C32B6383310507050689061334A7FC8766327
1004
7F8AC5EACA7DF24A62F5653EF9253FAFE2C9080C4955FED7EA761109CC906F5ADAB34199F671E1BDDB34199F671E1B5AD6B6B8443FEE17FFFFFFF70BFFFA4A3A74E9D3A7458AFDC2BBFF6BF5098A87050689061334A0E0A0D120C26694FF90ECC64EFF149C03A80834DA4A2700EA020D3692992246B6E0A3
1004
8541581A7A06264F89C2A693EB057C9FD852615D87D0B0E4906F5ADAB34199F17BC86F76CD0667C5EF21B5AD6B5AD6B0FA1FF70BFFFFFFFB85FF1118C6319EA8446318C67AAFDC28B3FB85FDC2A0AC0D3D031327C4E15349F582BE4FEC2930A262A1C141A24184CD28382834483099A53FE43B3193BFC527
1004
00EA020D369289C03A80834DA4A64891ADB828E15902AC11849C9049E8582E0B1898427E4F6C1CAEC3E849587E6F5ADAB34199F17BC86F76CD0667C5EF21B5AD6B5AD6B0FA1CFBF5FAFD7EBF580153A318C634148FF4E8C6318D0529F7EBF5FAFD7EB002FF6C22318C633D5088C6318CF55FB85167F70BFB
1004
85640AB04612724127A160B82C626109F93DB072898A87050689061334A4C32B638331053FE43B3193BFC562F5653EF925317AB29F7C92992246B6E0A3854F06318C6F3901EFB8576110B26046F6AB58BDE436F5E06F76F5E06C5EF21B6BAD6B58443FFFEE17FFFFFFF708319D3A74E9D4057E92BF70AED3
1004
C18C631BCE407BEE144C5530CAD8E0CC4141C141A24184CD29FF21D98C9DFE2B17AB29F7C9298BD594FBE494C91235B7051C287BEE109E0C6318DE72BB08858102C6F6AB58BDE436CE3C37BB671E1B17BC86DAEB5AD6110FFB85FFFFFFFFFDC23F494633A74E9D3A80AFDC2BB0F7DC213C18C631BCE51315
1004
0E0A0D120C2669498656C706620A4C32B638337E6A62F5653EF925317AB29F7C929FD7F164840624AA0F7DC213C18C631BCE576110A699826F6AB5BF0F11B7AF037BB7AF036FC3C46DAEB5AD6110FFFFB85FFFFFFFDC298CE9D3A74EA02BF494D7C954EC3DF7084F06318C6F3944C5530CAD8E0CC4141C14
1004
1A24184CD2930CAD8E0CDF9A98BD594FBE494C5EACA7DF24A7F5FC592101892A93C18C631BCE407BEE15D8442736611BDAAD6FC3C46D9C786F76CE3C36FC3C46DAEB5AD6110FFB85FFFFFEDBFFF70BFA4A319D3A74E9D40535F2553B4F06318C6F3901EFB8513157592246B6E01098656C706620A7592246
1004
B6E010C5EACA7DF24A62F5653EF9253AC91235B700BFC2FFA9D8442C32CC337AD6D5B806DEBC0DEEDB806DEBC0DB5DAE110FFFFB85FFFFFFFDC23FABF495FEEFF85FF5098AA6195B1C198829D64891ADB8043AC91235B700862F5653EF925317AB29F7C929D64891ADB805FE17FD4EC221783310DEB5B56E
1004
01B671E1BDDB700DB38F0DB5DAE110FFB85FFFFFFFFFDC23F495FD5FEEFF85FF5098ABAC91235B70087592246B6E010EB2448D6DC021D64891ADB80562F5653EF9253AC91235B700BFA417FDB3B08859800B9BD6B6ADC0369A311BDDB700DA68C46DAED70887FDC23FFFFFFFFF708FFFFFF77FA417FDB098
1004
ABAC91235B70087592246B6E010EB2448D6DC0218BD594FBE494EB2448D6DC02BAC91235B700BFFFA4A761108BCA6F5ADAB700D82509BDDB700D82509B6BB5C221FFFF708FFFFFFFDC23FFFFFDDFFFE9284C55D64891ADB8043AC91235B70084C32B63833105317AB29F7C929D64891ADB80562F5653EF92
1004
57F0BFEA76110BD51BD6B6A09426C1DE337BB04A1360EF19B6BB5C221FFFFFF70BFFFB847FFF57FFE929DFF0BFEA13154C32B638331053AC91235B70087592246B6E010C5EACA7DF24A7592246B6E0158BD594FBE495FC2FFA9D8442FCB6629BD6B6A09426D9C786F7609426D9C786DAED70887FDC2FFFFF
1004
FFEE11FFFA4AFFFEA77FC2FFA84C55D64891ADB8043AC91235B70087592246B6E010EB2448D6DC02BAC91235B700AC5EACA7DF24AFFFD253B0885F94CC637AD6D41284DA68C46F7609426D346236D76B8443FEE11FFFFFFFB847FFFFFFFBBFFFD25098ABAC91235B70087592246B6E01098656C706620A75
1004
92246B6E0158BD594FBE494C5EACA7DF24AFE17FD4EC221667331CDEB5B54D188D83BC66F769A311B0778CDB5DAE110FFFFFFB85FDC23FFFFFFFABF494EFF85FF5098ABAC91235B70084C32B638331053AC91235B70087592246B6E0158BD594FBE494C5EACA7DF24AFE17FD4EC221256641BD6B6A9A311B
1004
7AF037BB4D188DBD781B6BB5C221FFFF70BFFFB847FFFFFFE92BFA9DFF0BFEA13157592246B6E01098656C706620A4C32B63833105317AB29F7C9298BD594FBE494C5EACA7DF24AFD20BFED9D8442C099926F5ADA83BC66DEBC0DEEC1DE336F5E06DAED70887FFFDC2FFFFFFFEE17F495FA4AFD253BFD20B
1004
FED84C5530CAD8E0CC414EB2448D6DC02130CAD8E0CC414C5EACA7DF24A62F5653EF925317AB29F7C92BFFF494EC2216196669BD6B6A0EF19B671E1BDD83BC66D9C786DAED70887FDC2FFFFFF6DFFFB85FD257E92BF494EFFFF494262A98656C706620A4C32B638331053AC91235B700862F5653EF925317
1004
AB29F7C9298BD594FBE495FA417FDB3B08845E9A37AD6D5EBC0DB38F0DEEDEBC0DB38F0DB5DAE110FFB85FFFFFFFDC2FFFE92BF495FA4A77FA417FDB0907D86C
1005
4F
  0
INSERT
  8
AME_FRZ
  5
4F
  2
AME_NIL
 10
1.0
 20
1.0
 30
1.0
1001
AME_SOL
1004

1005
0
  0
ENDSEC
  0
EOF
