600 0 1 0           
101 GICL ACIS Healer - Source: /gicl/data5/repository/Parasolid/NIST/Bill_Regli/design1/design1.sat - 6 0 18 ACIS 6.0.3 Solaris 24 Sun Apr 14 00:19:14 2002 
1 9.999999999999999547e-07 1.000000000000000036e-10 
body $-1 $1 $-1 $-1 #
lump $-1 $-1 $2 $0 #
shell $-1 $-1 $-1 $3 $-1 $1 #
face $-1 $4 $5 $2 $-1 $6 reversed single #
face $-1 $7 $8 $2 $-1 $9 reversed single #
loop $-1 $-1 $10 $3 #
cone-surface $-1 116.5354330708660058 68.30708661417320116 48.81889763779530256 0 0 -1 -11.81102362204720002 0 0 1 I I 0 1 11.81102362204720002 forward I I I I #
face $-1 $11 $12 $2 $-1 $13 reversed single #
loop $-1 $-1 $14 $4 #
cone-surface $-1 116.5354330708660058 128.1496062992129907 48.81889763779530256 0 0 -1 -11.81102362204720002 0 0 1 I I 0 1 11.81102362204720002 forward I I I I #
coedge $-1 $15 $16 $17 $18 forward $5 $-1 #
face $-1 $19 $20 $2 $-1 $21 reversed single #
loop $-1 $-1 $22 $7 #
plane-surface $-1 128.3464566929129944 98.2283464566929041 48.81889763779530256 1 0 0 0 0 -1 forward_v I I I I #
coedge $-1 $23 $24 $25 $26 forward $8 $-1 #
coedge $-1 $27 $10 $28 $29 forward $5 $-1 #
coedge $-1 $10 $27 $30 $31 reversed $5 $-1 #
coedge $-1 $32 $33 $10 $18 reversed $20 $-1 #
edge $-1 $34 -29.13385826771660092 $35 0 $10 $36 forward 7 unknown #
face $-1 $37 $38 $2 $-1 $39 reversed single #
loop $-1 $-1 $40 $11 #
plane-surface $-1 69.29133858267719859 56.49606299212599936 48.81889763779530256 0 -1 0 0 0 -1 forward_v I I I I #
coedge $-1 $41 $42 $27 $43 reversed $12 $-1 #
coedge $-1 $44 $14 $45 $46 forward $8 $-1 #
coedge $-1 $14 $44 $47 $48 reversed $8 $-1 #
coedge $-1 $42 $41 $14 $26 reversed $12 $-1 #
edge $-1 $49 -29.13385826771660092 $50 0 $14 $51 forward 7 unknown #
coedge $-1 $16 $15 $22 $43 forward $5 $-1 #
coedge $-1 $52 $53 $15 $29 reversed $54 $-1 #
edge $-1 $35 -0.785398163397448279 $55 0.785398163397448279 $15 $56 forward 7 unknown #
coedge $-1 $57 $58 $16 $31 forward $59 $-1 #
edge $-1 $34 -0.785398163397448279 $60 0.785398163397448279 $16 $61 forward 7 unknown #
coedge $-1 $62 $17 $58 $63 reversed $20 $-1 #
coedge $-1 $17 $64 $52 $65 reversed $20 $-1 #
vertex $-1 $18 $66 #
vertex $-1 $18 $67 #
straight-curve $-1 116.5354330708660058 56.49606299212599936 48.81889763779530256 0 0 1 I I #
face $-1 $68 $69 $2 $-1 $70 reversed single #
loop $-1 $-1 $71 $19 #
plane-surface $-1 69.29133858267719859 139.9606299212599936 48.81889763779530256 0 1 0 0 0 1 forward_v I I I I #
coedge $-1 $64 $62 $72 $73 reversed $20 $-1 #
coedge $-1 $25 $22 $53 $74 reversed $12 $-1 #
coedge $-1 $22 $25 $57 $75 reversed $12 $-1 #
edge $-1 $55 0 $60 29.13385826771660092 $27 $76 forward 7 unknown #
coedge $-1 $24 $23 $77 $78 forward $8 $-1 #
coedge $-1 $53 $79 $23 $46 reversed $54 $-1 #
edge $-1 $50 -0.785398163397448279 $80 0.785398163397448279 $23 $81 forward 7 unknown #
coedge $-1 $82 $57 $24 $48 forward $59 $-1 #
edge $-1 $49 -0.785398163397448279 $83 0.785398163397448279 $24 $84 forward 7 unknown #
vertex $-1 $26 $85 #
vertex $-1 $26 $86 #
straight-curve $-1 128.3464566929129944 128.1496062992129907 48.81889763779530256 0 0 1 I I #
coedge $-1 $87 $28 $33 $65 forward $54 $-1 #
coedge $-1 $28 $45 $41 $74 forward $54 $-1 #
loop $-1 $-1 $53 $88 #
vertex $-1 $29 $89 #
ellipse-curve $-1 116.5354330708660058 68.30708661417320116 48.81889763779530256 0 0 1 8.351654895904070841 -8.351654895904070841 0 1 I I #
coedge $-1 $47 $30 $42 $75 forward $59 $-1 #
coedge $-1 $30 $90 $32 $63 forward $59 $-1 #
loop $-1 $-1 $90 $91 #
vertex $-1 $43 $92 #
ellipse-curve $-1 116.5354330708660058 68.30708661417320116 19.68503937007870164 0 0 1 8.351654895904070841 -8.351654895904070841 0 1 I I #
coedge $-1 $40 $32 $93 $94 reversed $20 $-1 #
edge $-1 $95 -68.45868869891098996 $34 -61.02362204724398964 $32 $96 forward 7 unknown #
coedge $-1 $33 $40 $97 $98 reversed $20 $-1 #
edge $-1 $35 -47.24409448818880719 $99 47.24409448818899904 $33 $100 forward 7 unknown #
point $-1 116.5354330708660058 56.49606299212599936 19.68503937007870164 #
point $-1 116.5354330708660058 56.49606299212599936 48.81889763779530256 #
face $-1 $101 $102 $2 $-1 $103 reversed single #
loop $-1 $-1 $104 $37 #
cone-surface $-1 22.04724409448819955 128.1496062992129907 48.81889763779530256 0 0 -1 -11.81102362204720002 0 0 1 I I 0 1 11.81102362204720002 forward I I I I #
coedge $-1 $77 $105 $82 $106 reversed $38 $-1 #
coedge $-1 $107 $108 $40 $73 forward $109 $-1 #
edge $-1 $110 -47.24409448818899904 $111 39.80902783652180688 $40 $112 forward 7 unknown #
edge $-1 $50 -29.92125984252008664 $55 29.92125984251970294 $41 $113 forward 7 unknown #
edge $-1 $60 -29.92125984251970294 $49 29.92125984252008664 $42 $114 forward 7 unknown #
straight-curve $-1 128.3464566929129944 68.30708661417320116 48.81889763779530256 0 0 -1 I I #
coedge $-1 $115 $71 $44 $78 reversed $38 $-1 #
edge $-1 $80 0 $83 29.13385826771660092 $44 $116 forward 7 unknown #
coedge $-1 $45 $117 $115 $118 forward $54 $-1 #
vertex $-1 $46 $119 #
ellipse-curve $-1 116.5354330708660058 128.1496062992129907 48.81889763779530256 0 0 1 8.351654895904070841 8.351654895904070841 0 1 I I #
coedge $-1 $120 $47 $71 $106 forward $59 $-1 #
vertex $-1 $78 $121 #
ellipse-curve $-1 116.5354330708660058 128.1496062992129907 19.68503937007870164 0 0 1 8.351654895904070841 8.351654895904070841 0 1 I I #
point $-1 128.3464566929129944 128.1496062992129907 19.68503937007870164 #
point $-1 128.3464566929129944 128.1496062992129907 48.81889763779530256 #
coedge $-1 $122 $52 $123 $124 reversed $54 $-1 #
face $-1 $125 $54 $2 $-1 $126 reversed single #
point $-1 128.3464566929129944 68.30708661417320116 48.81889763779530256 #
coedge $-1 $58 $127 $128 $129 reversed $59 $-1 #
face $-1 $130 $59 $2 $-1 $131 reversed single #
point $-1 128.3464566929129944 68.30708661417320116 19.68503937007870164 #
coedge $-1 $128 $132 $62 $94 forward $133 $-1 #
edge $-1 $111 -19.68503937007870164 $95 0 $62 $134 forward 7 unknown #
vertex $-1 $63 $135 #
straight-curve $-1 177.5590551181099954 56.49606299212599936 19.68503937007870164 1 0 0 I I #
coedge $-1 $136 $123 $64 $98 forward $102 $-1 #
edge $-1 $99 0 $110 48.81889763779530256 $64 $137 forward 7 unknown #
vertex $-1 $98 $138 #
straight-curve $-1 69.29133858267719859 56.49606299212599936 48.81889763779530256 -1 0 0 I I #
face $-1 $88 $139 $2 $-1 $140 reversed single #
loop $-1 $-1 $123 $68 #
cone-surface $-1 22.04724409448819955 68.30708661417320116 48.81889763779530256 0 0 -1 -11.81102362204720002 0 0 1 I I 0 1 11.81102362204720002 forward I I I I #
coedge $-1 $141 $142 $117 $143 forward $69 $-1 #
coedge $-1 $71 $144 $145 $146 reversed $38 $-1 #
edge $-1 $83 61.02362204724398964 $147 68.45868869891098996 $71 $148 forward 7 unknown #
coedge $-1 $149 $72 $132 $150 reversed $109 $-1 #
coedge $-1 $72 $151 $136 $152 reversed $109 $-1 #
loop $-1 $-1 $72 $153 #
vertex $-1 $73 $154 #
vertex $-1 $73 $155 #
straight-curve $-1 69.29133858267719859 56.49606299212599936 0 1 0 0 I I #
straight-curve $-1 128.3464566929129944 98.2283464566929041 48.81889763779530256 0 -1 0 I I #
straight-curve $-1 128.3464566929129944 98.2283464566929041 19.68503937007870164 0 1 0 I I #
coedge $-1 $156 $77 $79 $118 reversed $38 $-1 #
straight-curve $-1 116.5354330708660058 139.9606299212599936 48.81889763779530256 0 0 -1 I I #
coedge $-1 $79 $122 $104 $143 reversed $54 $-1 #
edge $-1 $157 -47.24409448818899904 $80 47.24409448818880719 $115 $158 forward 7 unknown #
point $-1 116.5354330708660058 139.9606299212599936 48.81889763779530256 #
coedge $-1 $159 $82 $160 $161 reversed $59 $-1 #
point $-1 116.5354330708660058 139.9606299212599936 19.68503937007870164 #
coedge $-1 $117 $87 $162 $163 forward $54 $-1 #
coedge $-1 $97 $164 $87 $124 forward $102 $-1 #
edge $-1 $165 -0.7853981633974478349 $99 0.7853981633974488341 $123 $166 forward 7 unknown #
face $-1 $167 $168 $2 $-1 $169 reversed single #
plane-surface $-1 69.29133858267719859 98.2283464566929041 48.81889763779530256 0 0 1 1 0 0 forward_v I I I I #
coedge $-1 $90 $170 $171 $172 forward $59 $-1 #
coedge $-1 $173 $93 $90 $129 forward $133 $-1 #
edge $-1 $95 -0.6796106835183968187 $174 0.6796106835183968187 $128 $175 forward 7 unknown #
face $-1 $176 $177 $2 $-1 $178 reversed single #
plane-surface $-1 177.5590551181099954 98.2283464566929041 19.68503937007870164 0 0 1 1 0 0 forward_v I I I I #
coedge $-1 $93 $173 $107 $150 forward $133 $-1 #
loop $-1 $-1 $132 $167 #
straight-curve $-1 109.1003664191990055 56.49606299212599936 19.68503937007870164 0 0 1 I I #
point $-1 109.1003664191990055 56.49606299212599936 19.68503937007870164 #
coedge $-1 $164 $97 $108 $152 forward $102 $-1 #
straight-curve $-1 22.04724409448819955 56.49606299212599936 48.81889763779530256 0 0 -1 I I #
point $-1 22.04724409448819955 56.49606299212599936 48.81889763779530256 #
loop $-1 $-1 $179 $101 #
plane-surface $-1 10.23622047244090005 98.2283464566929041 48.81889763779530256 -1 0 0 0 -0 1 forward_v I I I I #
coedge $-1 $180 $104 $181 $182 forward $69 $-1 #
coedge $-1 $104 $180 $156 $183 forward $69 $-1 #
edge $-1 $157 -0.785398163397448279 $184 0.785398163397448279 $104 $185 forward 7 unknown #
coedge $-1 $105 $156 $186 $187 reversed $38 $-1 #
coedge $-1 $188 $160 $105 $146 forward $168 $-1 #
edge $-1 $147 0 $189 19.68503937007870164 $105 $190 forward 7 unknown #
vertex $-1 $106 $191 #
straight-curve $-1 177.5590551181099954 139.9606299212599936 19.68503937007870164 -1 0 0 I I #
coedge $-1 $192 $107 $193 $194 forward $109 $-1 #
edge $-1 $195 -0.6796106835183968187 $111 0.6796106835183968187 $132 $196 forward 7 unknown #
coedge $-1 $108 $197 $179 $198 forward $109 $-1 #
edge $-1 $110 -0.785398163397448279 $199 0.785398163397448279 $136 $200 forward 7 unknown #
face $-1 $201 $109 $2 $-1 $202 forward single #
point $-1 22.04724409448819955 56.49606299212599936 0 #
point $-1 109.1003664191990055 56.49606299212599936 0 #
coedge $-1 $144 $115 $142 $183 reversed $38 $-1 #
vertex $-1 $118 $203 #
straight-curve $-1 69.29133858267719859 139.9606299212599936 48.81889763779530256 1 0 0 I I #
coedge $-1 $170 $120 $204 $205 forward $59 $-1 #
coedge $-1 $145 $206 $120 $161 forward $168 $-1 #
edge $-1 $207 -0.6796106835183827188 $147 0.6796106835183866046 $160 $208 forward 7 unknown #
coedge $-1 $209 $181 $122 $163 reversed $139 $-1 #
edge $-1 $165 -29.92125984251970294 $184 29.92125984252008664 $162 $210 forward 7 unknown #
coedge $-1 $123 $136 $209 $211 forward $102 $-1 #
vertex $-1 $124 $212 #
ellipse-curve $-1 22.04724409448819955 68.30708661417320116 48.81889763779530256 0 0 1 -8.351654895904079723 -8.351654895904070841 0 1 I I #
face $-1 $213 $133 $2 $-1 $214 reversed single #
loop $-1 $-1 $160 $125 #
cone-surface $-1 128.3464566929129944 135.8267716535430054 19.68503937007870164 0 0 -1 -19.68503937007870164 0 0 1 I I 0 1 19.68503937007870164 forward I I I I #
coedge $-1 $127 $159 $215 $216 forward $59 $-1 #
coedge $-1 $217 $218 $127 $172 reversed $219 $-1 #
edge $-1 $220 -29.5275590551180187 $174 49.21259842519700101 $171 $221 forward 7 unknown #
coedge $-1 $132 $128 $218 $222 forward $133 $-1 #
vertex $-1 $129 $223 #
ellipse-curve $-1 128.3464566929129944 60.62992125984249725 19.68503937007870164 0 0 1 -12.37185540352009916 -15.31136730915750022 0 1 I I #
face $-1 $224 $225 $2 $-1 $226 forward single #
loop $-1 $-1 $227 $130 #
plane-surface $-1 177.5590551181099954 155.5118110236219877 19.68503937007870164 0 1 0 0 0 1 forward_v I I I I #
coedge $-1 $181 $209 $151 $198 reversed $139 $-1 #
coedge $-1 $142 $141 $197 $228 forward $69 $-1 #
coedge $-1 $162 $179 $141 $182 reversed $139 $-1 #
edge $-1 $184 0 $229 48.81889763779530256 $141 $230 forward 7 unknown #
edge $-1 $231 -48.81889763779530256 $157 0 $156 $232 forward 7 unknown #
vertex $-1 $143 $233 #
ellipse-curve $-1 22.04724409448819955 128.1496062992129907 48.81889763779530256 0 0 1 -8.351654895904070841 8.351654895904070841 0 1 I I #
coedge $-1 $197 $234 $144 $187 forward $109 $-1 #
edge $-1 $189 -39.80902783652180688 $231 47.24409448818899904 $144 $235 forward 7 unknown #
coedge $-1 $206 $145 $234 $236 forward $168 $-1 #
vertex $-1 $187 $237 #
straight-curve $-1 109.1003664191990055 139.9606299212599936 19.68503937007870164 0 0 -1 I I #
point $-1 109.1003664191990055 139.9606299212599936 19.68503937007870164 #
coedge $-1 $238 $149 $239 $240 reversed $109 $-1 #
coedge $-1 $218 $217 $149 $194 reversed $219 $-1 #
edge $-1 $195 -49.21259842519700101 $241 29.5275590551180187 $193 $242 forward 7 unknown #
vertex $-1 $150 $243 #
ellipse-curve $-1 128.3464566929129944 60.62992125984249725 0 0 0 -1 -12.37185540352009916 -15.31136730915750022 0 1 I I #
coedge $-1 $151 $186 $180 $228 reversed $109 $-1 #
edge $-1 $229 -29.92125984252008664 $199 29.92125984251970294 $179 $244 forward 7 unknown #
vertex $-1 $152 $245 #
ellipse-curve $-1 22.04724409448819955 68.30708661417320116 0 0 0 -1 -8.351654895904070841 -8.351654895904070841 0 1 I I #
face $-1 $-1 $246 $2 $-1 $247 forward single #
plane-surface $-1 103.5433070866140071 98.2283464566929041 0 0 0 -1 -1 0 0 forward_v I I I I #
point $-1 22.04724409448819955 139.9606299212599936 48.81889763779530256 #
coedge $-1 $248 $227 $159 $205 reversed $177 $-1 #
edge $-1 $207 -49.21259842519700101 $249 29.5275590551180187 $159 $250 forward 7 unknown #
coedge $-1 $160 $188 $248 $251 forward $168 $-1 #
vertex $-1 $161 $252 #
ellipse-curve $-1 128.3464566929129944 135.8267716535430054 19.68503937007870164 0 0 1 -12.37185540351990021 15.31136730915769917 0 1 I I #
coedge $-1 $179 $162 $164 $211 reversed $139 $-1 #
straight-curve $-1 10.23622047244090005 98.2283464566929041 48.81889763779530256 0 1 0 I I #
edge $-1 $199 -48.81889763779530256 $165 0 $164 $253 forward 7 unknown #
point $-1 10.23622047244090005 68.30708661417320116 48.81889763779530256 #
face $-1 $91 $219 $2 $-1 $254 reversed single #
cone-surface $-1 128.3464566929129944 60.62992125984249725 19.68503937007870164 0 0 -1 -19.68503937007870164 0 0 1 I I 0 1 19.68503937007870164 forward I I I I #
coedge $-1 $255 $256 $170 $216 reversed $246 $-1 #
edge $-1 $249 -57.28346456692908362 $220 57.28346456692910493 $170 $257 forward 7 unknown #
coedge $-1 $193 $171 $256 $258 forward $219 $-1 #
coedge $-1 $171 $193 $173 $222 reversed $219 $-1 #
loop $-1 $-1 $217 $213 #
vertex $-1 $258 $259 #
straight-curve $-1 177.5590551181099954 40.94488188976379917 19.68503937007870164 -1 0 0 I I #
edge $-1 $174 0 $195 19.68503937007870164 $173 $260 forward 7 unknown #
point $-1 128.3464566929129944 40.94488188976379917 19.68503937007870164 #
face $-1 $261 $262 $2 $-1 $263 forward single #
loop $-1 $-1 $264 $176 #
plane-surface $-1 103.5433070866140071 98.2283464566929041 59.05511811023620083 0 0 1 1 0 0 forward_v I I I I #
coedge $-1 $204 $265 $255 $266 forward $177 $-1 #
edge $-1 $229 -0.785398163397448279 $231 0.785398163397448279 $180 $267 forward 7 unknown #
vertex $-1 $182 $268 #
straight-curve $-1 10.23622047244090005 128.1496062992129907 48.81889763779530256 0 0 -1 I I #
vertex $-1 $183 $269 #
straight-curve $-1 22.04724409448819955 139.9606299212599936 48.81889763779530256 0 0 1 I I #
point $-1 10.23622047244090005 128.1496062992129907 48.81889763779530256 #
coedge $-1 $186 $270 $188 $236 reversed $109 $-1 #
straight-curve $-1 69.29133858267719859 139.9606299212599936 0 -1 0 0 I I #
edge $-1 $189 -0.6796106835183866046 $271 0.6796106835183827188 $188 $272 forward 7 unknown #
point $-1 109.1003664191990055 139.9606299212599936 0 #
coedge $-1 $273 $192 $274 $275 reversed $109 $-1 #
coedge $-1 $256 $276 $192 $240 forward $246 $-1 #
edge $-1 $277 -98.2283464566929041 $241 -57.28346456692910493 $192 $278 forward 7 unknown #
vertex $-1 $258 $279 #
straight-curve $-1 177.5590551181099954 40.94488188976379917 0 1 0 0 I I #
point $-1 128.3464566929129944 40.94488188976379917 0 #
straight-curve $-1 10.23622047244090005 98.2283464566929041 0 0 -1 0 I I #
point $-1 10.23622047244090005 68.30708661417320116 0 #
loop $-1 $-1 $256 $201 #
plane-surface $-1 207.0866141732280141 98.2283464566929041 0 1 0 0 0 0 -1 forward_v I I I I #
coedge $-1 $265 $204 $206 $251 reversed $177 $-1 #
vertex $-1 $205 $280 #
straight-curve $-1 177.5590551181099954 155.5118110236219877 19.68503937007870164 1 0 0 I I #
edge $-1 $271 -19.68503937007870164 $207 0 $206 $281 forward 7 unknown #
point $-1 128.3464566929129944 155.5118110236219877 19.68503937007870164 #
straight-curve $-1 10.23622047244090005 68.30708661417320116 48.81889763779530256 0 0 1 I I #
plane-surface $-1 177.5590551181099954 40.94488188976379917 19.68503937007870164 0 -1 0 0 0 -1 forward_v I I I I #
coedge $-1 $282 $215 $227 $266 reversed $246 $-1 #
coedge $-1 $215 $239 $217 $258 reversed $246 $-1 #
straight-curve $-1 207.0866141732280141 98.2283464566929041 19.68503937007870164 0 -1 0 I I #
edge $-1 $220 -19.68503937007870164 $241 0 $217 $283 forward 7 unknown #
point $-1 207.0866141732280141 40.94488188976379917 19.68503937007870164 #
straight-curve $-1 128.3464566929129944 40.94488188976379917 19.68503937007870164 0 0 -1 I I #
face $-1 $284 $285 $2 $-1 $286 forward single #
loop $-1 $-1 $287 $224 #
plane-surface $-1 103.5433070866140071 0 0 0 -1 0 0 0 -1 forward_v I I I I #
coedge $-1 $288 $289 $290 $291 reversed $225 $-1 #
coedge $-1 $227 $248 $270 $292 forward $177 $-1 #
edge $-1 $293 0 $249 19.68503937007870164 $227 $294 forward 7 unknown #
ellipse-curve $-1 22.04724409448819955 128.1496062992129907 0 0 0 -1 -8.351654895904070841 8.351654895904070841 0 1 I I #
point $-1 10.23622047244090005 128.1496062992129907 0 #
point $-1 22.04724409448819955 139.9606299212599936 0 #
coedge $-1 $234 $295 $265 $292 reversed $109 $-1 #
vertex $-1 $236 $296 #
ellipse-curve $-1 128.3464566929129944 135.8267716535430054 0 0 0 -1 -12.37185540351990021 15.31136730915769917 0 1 I I #
coedge $-1 $297 $238 $298 $299 reversed $109 $-1 #
coedge $-1 $287 $300 $238 $275 forward $262 $-1 #
edge $-1 $301 -103.5433070866140071 $277 103.5433070866140071 $274 $302 forward 7 unknown #
coedge $-1 $239 $303 $287 $304 reversed $246 $-1 #
vertex $-1 $304 $305 #
straight-curve $-1 207.0866141732280141 98.2283464566929041 0 0 1 0 I I #
point $-1 207.0866141732280141 40.94488188976379917 0 #
point $-1 207.0866141732280141 155.5118110236219877 19.68503937007870164 #
straight-curve $-1 128.3464566929129944 155.5118110236219877 19.68503937007870164 0 0 1 I I #
coedge $-1 $306 $255 $295 $307 forward $246 $-1 #
straight-curve $-1 207.0866141732280141 40.94488188976379917 0 0 0 -1 I I #
face $-1 $153 $308 $2 $-1 $309 forward single #
loop $-1 $-1 $310 $261 #
plane-surface $-1 0 98.2283464566929041 0 -1 0 0 0 -0 1 forward_v I I I I #
coedge $-1 $290 $274 $276 $304 forward $262 $-1 #
coedge $-1 $311 $264 $303 $312 reversed $225 $-1 #
coedge $-1 $264 $311 $313 $314 reversed $225 $-1 #
coedge $-1 $300 $287 $264 $291 forward $262 $-1 #
edge $-1 $315 -103.5433070866140071 $316 103.5433070866140071 $264 $317 forward 7 unknown #
edge $-1 $271 24.80314960629898735 $293 103.5433070866140071 $265 $318 forward 7 unknown #
vertex $-1 $266 $319 #
straight-curve $-1 207.0866141732280141 155.5118110236219877 0 0 0 1 I I #
coedge $-1 $270 $297 $282 $307 reversed $109 $-1 #
point $-1 128.3464566929129944 155.5118110236219877 0 #
coedge $-1 $295 $273 $320 $321 reversed $109 $-1 #
coedge $-1 $310 $322 $273 $299 forward $285 $-1 #
edge $-1 $323 -98.22834645669310305 $301 98.2283464566929041 $298 $324 forward 7 unknown #
coedge $-1 $274 $290 $310 $325 reversed $262 $-1 #
vertex $-1 $325 $326 #
straight-curve $-1 103.5433070866140071 0 0 1 0 0 I I #
coedge $-1 $276 $306 $288 $312 forward $246 $-1 #
edge $-1 $277 0 $315 59.05511811023620083 $287 $327 forward 7 unknown #
point $-1 207.0866141732280141 0 0 #
coedge $-1 $303 $282 $328 $329 forward $246 $-1 #
edge $-1 $293 57.28346456692908362 $330 98.22834645669310305 $295 $331 forward 7 unknown #
loop $-1 $-1 $332 $284 #
plane-surface $-1 103.5433070866140071 196.4566929133860071 0 0 1 0 0 0 1 forward_v I I I I #
coedge $-1 $313 $298 $300 $325 forward $285 $-1 #
coedge $-1 $289 $288 $333 $334 reversed $225 $-1 #
edge $-1 $335 -98.22834645669310305 $315 98.2283464566929041 $288 $336 forward 7 unknown #
coedge $-1 $322 $310 $289 $314 forward $285 $-1 #
edge $-1 $316 -98.2283464566929041 $337 98.22834645669310305 $289 $338 forward 7 unknown #
vertex $-1 $291 $339 #
vertex $-1 $291 $340 #
straight-curve $-1 103.5433070866140071 0 59.05511811023620083 -1 0 0 I I #
straight-curve $-1 103.5433070866140071 155.5118110236219877 0 1 0 0 I I #
point $-1 207.0866141732280141 155.5118110236219877 0 #
coedge $-1 $332 $328 $297 $321 forward $308 $-1 #
edge $-1 $330 -103.5433070866140071 $323 103.5433070866140071 $320 $341 forward 7 unknown #
coedge $-1 $298 $313 $332 $342 reversed $285 $-1 #
vertex $-1 $342 $343 #
straight-curve $-1 0 98.2283464566929041 0 0 -1 0 I I #
edge $-1 $301 0 $316 59.05511811023620083 $300 $344 forward 7 unknown #
point $-1 0 0 0 #
straight-curve $-1 207.0866141732280141 0 0 0 0 1 I I #
coedge $-1 $320 $333 $306 $329 reversed $308 $-1 #
edge $-1 $330 0 $335 59.05511811023620083 $328 $345 forward 7 unknown #
vertex $-1 $329 $346 #
straight-curve $-1 207.0866141732280141 98.2283464566929041 0 0 1 0 I I #
coedge $-1 $333 $320 $322 $342 forward $308 $-1 #
coedge $-1 $328 $332 $311 $334 forward $308 $-1 #
edge $-1 $337 -103.5433070866140071 $335 103.5433070866140071 $311 $347 forward 7 unknown #
vertex $-1 $312 $348 #
straight-curve $-1 207.0866141732280141 98.2283464566929041 59.05511811023620083 0 -1 0 I I #
vertex $-1 $334 $349 #
straight-curve $-1 0 98.2283464566929041 59.05511811023620083 0 1 0 I I #
point $-1 207.0866141732280141 0 59.05511811023620083 #
point $-1 0 0 59.05511811023620083 #
straight-curve $-1 103.5433070866140071 196.4566929133860071 0 -1 0 0 I I #
edge $-1 $323 0 $337 59.05511811023620083 $322 $350 forward 7 unknown #
point $-1 0 196.4566929133860071 0 #
straight-curve $-1 0 0 0 0 0 1 I I #
straight-curve $-1 207.0866141732280141 196.4566929133860071 0 0 0 1 I I #
point $-1 207.0866141732280141 196.4566929133860071 0 #
straight-curve $-1 103.5433070866140071 196.4566929133860071 59.05511811023620083 1 0 0 I I #
point $-1 207.0866141732280141 196.4566929133860071 59.05511811023620083 #
point $-1 0 196.4566929133860071 59.05511811023620083 #
straight-curve $-1 0 196.4566929133860071 0 0 0 1 I I #
End-of-ACIS-data 