105 351 1 0                             
body $-1 $1 $-1 $-1 #
lump $-1 $-1 $2 $0 #
shell $-1 $-1 $-1 $3 $1 #
face $-1 $4 $5 $2 $-1 $6 reversed single #
face $-1 $7 $8 $2 $-1 $9 reversed single #
loop $-1 $-1 $10 $3 #
cone-surface $-1 116.535433070866 68.3070866141732 48.8188976377953 0 0 -1 -11.8110236220472 0 0 1 0 1 0 #
face $-1 $11 $12 $2 $-1 $13 reversed single #
loop $-1 $-1 $14 $4 #
cone-surface $-1 116.535433070866 128.149606299213 48.8188976377953 0 0 -1 -11.8110236220472 0 0 1 0 1 0 #
coedge $-1 $15 $16 $17 $18 0 $5 $-1 #
face $-1 $19 $20 $2 $-1 $21 reversed single #
loop $-1 $-1 $22 $7 #
plane-surface $-1 128.346456692913 98.2283464566929 48.8188976377953 1 0 0 0 0 -1 0 #
coedge $-1 $23 $24 $25 $26 0 $8 $-1 #
coedge $-1 $27 $10 $28 $29 0 $5 $-1 #
coedge $-1 $10 $27 $30 $31 1 $5 $-1 #
coedge $-1 $32 $33 $10 $18 1 $20 $-1 #
edge $-1 $34 $35 $10 $36 0 #
face $-1 $37 $38 $2 $-1 $39 reversed single #
loop $-1 $-1 $40 $11 #
plane-surface $-1 69.2913385826772 56.496062992126 48.8188976377953 0 -1 0 0 0 -1 0 #
coedge $-1 $41 $42 $27 $43 1 $12 $-1 #
coedge $-1 $44 $14 $45 $46 0 $8 $-1 #
coedge $-1 $14 $44 $47 $48 1 $8 $-1 #
coedge $-1 $42 $41 $14 $26 1 $12 $-1 #
edge $-1 $49 $50 $14 $51 0 #
coedge $-1 $16 $15 $22 $43 0 $5 $-1 #
coedge $-1 $52 $53 $15 $29 1 $54 $-1 #
edge $-1 $35 $55 $15 $56 0 #
coedge $-1 $57 $58 $16 $31 0 $59 $-1 #
edge $-1 $34 $60 $16 $61 0 #
coedge $-1 $62 $17 $58 $63 1 $20 $-1 #
coedge $-1 $17 $64 $52 $65 1 $20 $-1 #
vertex $-1 $18 $66 #
vertex $-1 $18 $67 #
straight-curve $-1 116.535433070866 56.496062992126 48.8188976377953 0 0 1 #
face $-1 $68 $69 $2 $-1 $70 reversed single #
loop $-1 $-1 $71 $19 #
plane-surface $-1 69.2913385826772 139.96062992126 48.8188976377953 0 1 0 0 0 1 0 #
coedge $-1 $64 $62 $72 $73 1 $20 $-1 #
coedge $-1 $25 $22 $53 $74 1 $12 $-1 #
coedge $-1 $22 $25 $57 $75 1 $12 $-1 #
edge $-1 $55 $60 $27 $76 0 #
coedge $-1 $24 $23 $77 $78 0 $8 $-1 #
coedge $-1 $53 $79 $23 $46 1 $54 $-1 #
edge $-1 $50 $80 $23 $81 0 #
coedge $-1 $82 $57 $24 $48 0 $59 $-1 #
edge $-1 $49 $83 $24 $84 0 #
vertex $-1 $26 $85 #
vertex $-1 $26 $86 #
straight-curve $-1 128.346456692913 128.149606299213 48.8188976377953 0 0 1 #
coedge $-1 $87 $28 $33 $65 0 $54 $-1 #
coedge $-1 $28 $45 $41 $74 0 $54 $-1 #
loop $-1 $-1 $53 $88 #
vertex $-1 $29 $89 #
ellipse-curve $-1 116.535433070866 68.3070866141732 48.8188976377953 0 0 1 8.35165489590407 -8.35165489590407 0 1 #
coedge $-1 $47 $30 $42 $75 0 $59 $-1 #
coedge $-1 $30 $90 $32 $63 0 $59 $-1 #
loop $-1 $-1 $90 $91 #
vertex $-1 $43 $92 #
ellipse-curve $-1 116.535433070866 68.3070866141732 19.6850393700787 0 0 1 8.35165489590407 -8.35165489590407 0 1 #
coedge $-1 $40 $32 $93 $94 1 $20 $-1 #
edge $-1 $95 $34 $32 $96 0 #
coedge $-1 $33 $40 $97 $98 1 $20 $-1 #
edge $-1 $35 $99 $33 $100 0 #
point $-1 116.535433070866 56.496062992126 19.6850393700787 #
point $-1 116.535433070866 56.496062992126 48.8188976377953 #
face $-1 $101 $102 $2 $-1 $103 reversed single #
loop $-1 $-1 $104 $37 #
cone-surface $-1 22.0472440944882 128.149606299213 48.8188976377953 0 0 -1 -11.8110236220472 0 0 1 0 1 0 #
coedge $-1 $77 $105 $82 $106 1 $38 $-1 #
coedge $-1 $107 $108 $40 $73 0 $109 $-1 #
edge $-1 $110 $111 $40 $112 0 #
edge $-1 $50 $55 $41 $113 0 #
edge $-1 $60 $49 $42 $114 0 #
straight-curve $-1 128.346456692913 68.3070866141732 48.8188976377953 0 0 -1 #
coedge $-1 $115 $71 $44 $78 1 $38 $-1 #
edge $-1 $80 $83 $44 $116 0 #
coedge $-1 $45 $117 $115 $118 0 $54 $-1 #
vertex $-1 $46 $119 #
ellipse-curve $-1 116.535433070866 128.149606299213 48.8188976377953 0 0 1 8.35165489590407 8.35165489590407 0 1 #
coedge $-1 $120 $47 $71 $106 0 $59 $-1 #
vertex $-1 $78 $121 #
ellipse-curve $-1 116.535433070866 128.149606299213 19.6850393700787 0 0 1 8.35165489590407 8.35165489590407 0 1 #
point $-1 128.346456692913 128.149606299213 19.6850393700787 #
point $-1 128.346456692913 128.149606299213 48.8188976377953 #
coedge $-1 $122 $52 $123 $124 1 $54 $-1 #
face $-1 $125 $54 $2 $-1 $126 reversed single #
point $-1 128.346456692913 68.3070866141732 48.8188976377953 #
coedge $-1 $58 $127 $128 $129 1 $59 $-1 #
face $-1 $130 $59 $2 $-1 $131 reversed single #
point $-1 128.346456692913 68.3070866141732 19.6850393700787 #
coedge $-1 $128 $132 $62 $94 0 $133 $-1 #
edge $-1 $111 $95 $62 $134 0 #
vertex $-1 $63 $135 #
straight-curve $-1 177.55905511811 56.496062992126 19.6850393700787 1 0 0 #
coedge $-1 $136 $123 $64 $98 0 $102 $-1 #
edge $-1 $99 $110 $64 $137 0 #
vertex $-1 $98 $138 #
straight-curve $-1 69.2913385826772 56.496062992126 48.8188976377953 -1 0 0 #
face $-1 $88 $139 $2 $-1 $140 reversed single #
loop $-1 $-1 $123 $68 #
cone-surface $-1 22.0472440944882 68.3070866141732 48.8188976377953 0 0 -1 -11.8110236220472 0 0 1 0 1 0 #
coedge $-1 $141 $142 $117 $143 0 $69 $-1 #
coedge $-1 $71 $144 $145 $146 1 $38 $-1 #
edge $-1 $83 $147 $71 $148 0 #
coedge $-1 $149 $72 $132 $150 1 $109 $-1 #
coedge $-1 $72 $151 $136 $152 1 $109 $-1 #
loop $-1 $-1 $72 $153 #
vertex $-1 $73 $154 #
vertex $-1 $73 $155 #
straight-curve $-1 69.2913385826772 56.496062992126 0 1 0 0 #
straight-curve $-1 128.346456692913 98.2283464566929 48.8188976377953 0 -1 0 #
straight-curve $-1 128.346456692913 98.2283464566929 19.6850393700787 0 1 0 #
coedge $-1 $156 $77 $79 $118 1 $38 $-1 #
straight-curve $-1 116.535433070866 139.96062992126 48.8188976377953 0 0 -1 #
coedge $-1 $79 $122 $104 $143 1 $54 $-1 #
edge $-1 $157 $80 $115 $158 0 #
point $-1 116.535433070866 139.96062992126 48.8188976377953 #
coedge $-1 $159 $82 $160 $161 1 $59 $-1 #
point $-1 116.535433070866 139.96062992126 19.6850393700787 #
coedge $-1 $117 $87 $162 $163 0 $54 $-1 #
coedge $-1 $97 $164 $87 $124 0 $102 $-1 #
edge $-1 $165 $99 $123 $166 0 #
face $-1 $167 $168 $2 $-1 $169 reversed single #
plane-surface $-1 69.2913385826772 98.2283464566929 48.8188976377953 0 0 1 1 0 0 0 #
coedge $-1 $90 $170 $171 $172 0 $59 $-1 #
coedge $-1 $173 $93 $90 $129 0 $133 $-1 #
edge $-1 $95 $174 $128 $175 0 #
face $-1 $176 $177 $2 $-1 $178 reversed single #
plane-surface $-1 177.55905511811 98.2283464566929 19.6850393700787 0 0 1 1 0 0 0 #
coedge $-1 $93 $173 $107 $150 0 $133 $-1 #
loop $-1 $-1 $132 $167 #
straight-curve $-1 109.100366419199 56.496062992126 19.6850393700787 0 0 1 #
point $-1 109.100366419199 56.496062992126 19.6850393700787 #
coedge $-1 $164 $97 $108 $152 0 $102 $-1 #
straight-curve $-1 22.0472440944882 56.496062992126 48.8188976377953 0 0 -1 #
point $-1 22.0472440944882 56.496062992126 48.8188976377953 #
loop $-1 $-1 $179 $101 #
plane-surface $-1 10.2362204724409 98.2283464566929 48.8188976377953 -1 0 0 0 -0 1 0 #
coedge $-1 $180 $104 $181 $182 0 $69 $-1 #
coedge $-1 $104 $180 $156 $183 0 $69 $-1 #
edge $-1 $157 $184 $104 $185 0 #
coedge $-1 $105 $156 $186 $187 1 $38 $-1 #
coedge $-1 $188 $160 $105 $146 0 $168 $-1 #
edge $-1 $147 $189 $105 $190 0 #
vertex $-1 $106 $191 #
straight-curve $-1 177.55905511811 139.96062992126 19.6850393700787 -1 0 0 #
coedge $-1 $192 $107 $193 $194 0 $109 $-1 #
edge $-1 $195 $111 $132 $196 0 #
coedge $-1 $108 $197 $179 $198 0 $109 $-1 #
edge $-1 $110 $199 $136 $200 0 #
face $-1 $201 $109 $2 $-1 $202 forward single #
point $-1 22.0472440944882 56.496062992126 0 #
point $-1 109.100366419199 56.496062992126 0 #
coedge $-1 $144 $115 $142 $183 1 $38 $-1 #
vertex $-1 $118 $203 #
straight-curve $-1 69.2913385826772 139.96062992126 48.8188976377953 1 0 0 #
coedge $-1 $170 $120 $204 $205 0 $59 $-1 #
coedge $-1 $145 $206 $120 $161 0 $168 $-1 #
edge $-1 $207 $147 $160 $208 0 #
coedge $-1 $209 $181 $122 $163 1 $139 $-1 #
edge $-1 $165 $184 $162 $210 0 #
coedge $-1 $123 $136 $209 $211 0 $102 $-1 #
vertex $-1 $124 $212 #
ellipse-curve $-1 22.0472440944882 68.3070866141732 48.8188976377953 0 0 1 -8.35165489590408 -8.35165489590407 0 1 #
face $-1 $213 $133 $2 $-1 $214 reversed single #
loop $-1 $-1 $160 $125 #
cone-surface $-1 128.346456692913 135.826771653543 19.6850393700787 0 0 -1 -19.6850393700787 0 0 1 0 1 0 #
coedge $-1 $127 $159 $215 $216 0 $59 $-1 #
coedge $-1 $217 $218 $127 $172 1 $219 $-1 #
edge $-1 $220 $174 $171 $221 0 #
coedge $-1 $132 $128 $218 $222 0 $133 $-1 #
vertex $-1 $129 $223 #
ellipse-curve $-1 128.346456692913 60.6299212598425 19.6850393700787 0 0 1 -12.3718554035201 -15.3113673091575 0 1 #
face $-1 $224 $225 $2 $-1 $226 forward single #
loop $-1 $-1 $227 $130 #
plane-surface $-1 177.55905511811 155.511811023622 19.6850393700787 0 1 0 0 0 1 0 #
coedge $-1 $181 $209 $151 $198 1 $139 $-1 #
coedge $-1 $142 $141 $197 $228 0 $69 $-1 #
coedge $-1 $162 $179 $141 $182 1 $139 $-1 #
edge $-1 $184 $229 $141 $230 0 #
edge $-1 $231 $157 $156 $232 0 #
vertex $-1 $143 $233 #
ellipse-curve $-1 22.0472440944882 128.149606299213 48.8188976377953 0 0 1 -8.35165489590407 8.35165489590407 0 1 #
coedge $-1 $197 $234 $144 $187 0 $109 $-1 #
edge $-1 $189 $231 $144 $235 0 #
coedge $-1 $206 $145 $234 $236 0 $168 $-1 #
vertex $-1 $187 $237 #
straight-curve $-1 109.100366419199 139.96062992126 19.6850393700787 0 0 -1 #
point $-1 109.100366419199 139.96062992126 19.6850393700787 #
coedge $-1 $238 $149 $239 $240 1 $109 $-1 #
coedge $-1 $218 $217 $149 $194 1 $219 $-1 #
edge $-1 $195 $241 $193 $242 0 #
vertex $-1 $150 $243 #
ellipse-curve $-1 128.346456692913 60.6299212598425 0 0 0 -1 -12.3718554035201 -15.3113673091575 0 1 #
coedge $-1 $151 $186 $180 $228 1 $109 $-1 #
edge $-1 $229 $199 $179 $244 0 #
vertex $-1 $152 $245 #
ellipse-curve $-1 22.0472440944882 68.3070866141732 0 0 0 -1 -8.35165489590407 -8.35165489590407 0 1 #
face $-1 $-1 $246 $2 $-1 $247 forward single #
plane-surface $-1 103.543307086614 98.2283464566929 0 0 0 -1 -1 0 0 0 #
point $-1 22.0472440944882 139.96062992126 48.8188976377953 #
coedge $-1 $248 $227 $159 $205 1 $177 $-1 #
edge $-1 $207 $249 $159 $250 0 #
coedge $-1 $160 $188 $248 $251 0 $168 $-1 #
vertex $-1 $161 $252 #
ellipse-curve $-1 128.346456692913 135.826771653543 19.6850393700787 0 0 1 -12.3718554035199 15.3113673091577 0 1 #
coedge $-1 $179 $162 $164 $211 1 $139 $-1 #
straight-curve $-1 10.2362204724409 98.2283464566929 48.8188976377953 0 1 0 #
edge $-1 $199 $165 $164 $253 0 #
point $-1 10.2362204724409 68.3070866141732 48.8188976377953 #
face $-1 $91 $219 $2 $-1 $254 reversed single #
cone-surface $-1 128.346456692913 60.6299212598425 19.6850393700787 0 0 -1 -19.6850393700787 0 0 1 0 1 0 #
coedge $-1 $255 $256 $170 $216 1 $246 $-1 #
edge $-1 $249 $220 $170 $257 0 #
coedge $-1 $193 $171 $256 $258 0 $219 $-1 #
coedge $-1 $171 $193 $173 $222 1 $219 $-1 #
loop $-1 $-1 $217 $213 #
vertex $-1 $258 $259 #
straight-curve $-1 177.55905511811 40.9448818897638 19.6850393700787 -1 0 0 #
edge $-1 $174 $195 $173 $260 0 #
point $-1 128.346456692913 40.9448818897638 19.6850393700787 #
face $-1 $261 $262 $2 $-1 $263 forward single #
loop $-1 $-1 $264 $176 #
plane-surface $-1 103.543307086614 98.2283464566929 59.0551181102362 0 0 1 1 0 0 0 #
coedge $-1 $204 $265 $255 $266 0 $177 $-1 #
edge $-1 $229 $231 $180 $267 0 #
vertex $-1 $182 $268 #
straight-curve $-1 10.2362204724409 128.149606299213 48.8188976377953 0 0 -1 #
vertex $-1 $183 $269 #
straight-curve $-1 22.0472440944882 139.96062992126 48.8188976377953 0 0 1 #
point $-1 10.2362204724409 128.149606299213 48.8188976377953 #
coedge $-1 $186 $270 $188 $236 1 $109 $-1 #
straight-curve $-1 69.2913385826772 139.96062992126 0 -1 0 0 #
edge $-1 $189 $271 $188 $272 0 #
point $-1 109.100366419199 139.96062992126 0 #
coedge $-1 $273 $192 $274 $275 1 $109 $-1 #
coedge $-1 $256 $276 $192 $240 0 $246 $-1 #
edge $-1 $277 $241 $192 $278 0 #
vertex $-1 $258 $279 #
straight-curve $-1 177.55905511811 40.9448818897638 0 1 0 0 #
point $-1 128.346456692913 40.9448818897638 0 #
straight-curve $-1 10.2362204724409 98.2283464566929 0 0 -1 0 #
point $-1 10.2362204724409 68.3070866141732 0 #
loop $-1 $-1 $256 $201 #
plane-surface $-1 207.086614173228 98.2283464566929 0 1 0 0 0 0 -1 0 #
coedge $-1 $265 $204 $206 $251 1 $177 $-1 #
vertex $-1 $205 $280 #
straight-curve $-1 177.55905511811 155.511811023622 19.6850393700787 1 0 0 #
edge $-1 $271 $207 $206 $281 0 #
point $-1 128.346456692913 155.511811023622 19.6850393700787 #
straight-curve $-1 10.2362204724409 68.3070866141732 48.8188976377953 0 0 1 #
plane-surface $-1 177.55905511811 40.9448818897638 19.6850393700787 0 -1 0 0 0 -1 0 #
coedge $-1 $282 $215 $227 $266 1 $246 $-1 #
coedge $-1 $215 $239 $217 $258 1 $246 $-1 #
straight-curve $-1 207.086614173228 98.2283464566929 19.6850393700787 0 -1 0 #
edge $-1 $220 $241 $217 $283 0 #
point $-1 207.086614173228 40.9448818897638 19.6850393700787 #
straight-curve $-1 128.346456692913 40.9448818897638 19.6850393700787 0 0 -1 #
face $-1 $284 $285 $2 $-1 $286 forward single #
loop $-1 $-1 $287 $224 #
plane-surface $-1 103.543307086614 0 0 0 -1 0 0 0 -1 0 #
coedge $-1 $288 $289 $290 $291 1 $225 $-1 #
coedge $-1 $227 $248 $270 $292 0 $177 $-1 #
edge $-1 $293 $249 $227 $294 0 #
ellipse-curve $-1 22.0472440944882 128.149606299213 0 0 0 -1 -8.35165489590407 8.35165489590407 0 1 #
point $-1 10.2362204724409 128.149606299213 0 #
point $-1 22.0472440944882 139.96062992126 0 #
coedge $-1 $234 $295 $265 $292 1 $109 $-1 #
vertex $-1 $236 $296 #
ellipse-curve $-1 128.346456692913 135.826771653543 0 0 0 -1 -12.3718554035199 15.3113673091577 0 1 #
coedge $-1 $297 $238 $298 $299 1 $109 $-1 #
coedge $-1 $287 $300 $238 $275 0 $262 $-1 #
edge $-1 $301 $277 $274 $302 0 #
coedge $-1 $239 $303 $287 $304 1 $246 $-1 #
vertex $-1 $304 $305 #
straight-curve $-1 207.086614173228 98.2283464566929 0 0 1 0 #
point $-1 207.086614173228 40.9448818897638 0 #
point $-1 207.086614173228 155.511811023622 19.6850393700787 #
straight-curve $-1 128.346456692913 155.511811023622 19.6850393700787 0 0 1 #
coedge $-1 $306 $255 $295 $307 0 $246 $-1 #
straight-curve $-1 207.086614173228 40.9448818897638 0 0 0 -1 #
face $-1 $153 $308 $2 $-1 $309 forward single #
loop $-1 $-1 $310 $261 #
plane-surface $-1 0 98.2283464566929 0 -1 0 0 0 -0 1 0 #
coedge $-1 $290 $274 $276 $304 0 $262 $-1 #
coedge $-1 $311 $264 $303 $312 1 $225 $-1 #
coedge $-1 $264 $311 $313 $314 1 $225 $-1 #
coedge $-1 $300 $287 $264 $291 0 $262 $-1 #
edge $-1 $315 $316 $264 $317 0 #
edge $-1 $271 $293 $265 $318 0 #
vertex $-1 $266 $319 #
straight-curve $-1 207.086614173228 155.511811023622 0 0 0 1 #
coedge $-1 $270 $297 $282 $307 1 $109 $-1 #
point $-1 128.346456692913 155.511811023622 0 #
coedge $-1 $295 $273 $320 $321 1 $109 $-1 #
coedge $-1 $310 $322 $273 $299 0 $285 $-1 #
edge $-1 $323 $301 $298 $324 0 #
coedge $-1 $274 $290 $310 $325 1 $262 $-1 #
vertex $-1 $325 $326 #
straight-curve $-1 103.543307086614 0 0 1 0 0 #
coedge $-1 $276 $306 $288 $312 0 $246 $-1 #
edge $-1 $277 $315 $287 $327 0 #
point $-1 207.086614173228 0 0 #
coedge $-1 $303 $282 $328 $329 0 $246 $-1 #
edge $-1 $293 $330 $295 $331 0 #
loop $-1 $-1 $332 $284 #
plane-surface $-1 103.543307086614 196.456692913386 0 0 1 0 0 0 1 0 #
coedge $-1 $313 $298 $300 $325 0 $285 $-1 #
coedge $-1 $289 $288 $333 $334 1 $225 $-1 #
edge $-1 $335 $315 $288 $336 0 #
coedge $-1 $322 $310 $289 $314 0 $285 $-1 #
edge $-1 $316 $337 $289 $338 0 #
vertex $-1 $291 $339 #
vertex $-1 $291 $340 #
straight-curve $-1 103.543307086614 0 59.0551181102362 -1 0 0 #
straight-curve $-1 103.543307086614 155.511811023622 0 1 0 0 #
point $-1 207.086614173228 155.511811023622 0 #
coedge $-1 $332 $328 $297 $321 0 $308 $-1 #
edge $-1 $330 $323 $320 $341 0 #
coedge $-1 $298 $313 $332 $342 1 $285 $-1 #
vertex $-1 $342 $343 #
straight-curve $-1 0 98.2283464566929 0 0 -1 0 #
edge $-1 $301 $316 $300 $344 0 #
point $-1 0 0 0 #
straight-curve $-1 207.086614173228 0 0 0 0 1 #
coedge $-1 $320 $333 $306 $329 1 $308 $-1 #
edge $-1 $330 $335 $328 $345 0 #
vertex $-1 $329 $346 #
straight-curve $-1 207.086614173228 98.2283464566929 0 0 1 0 #
coedge $-1 $333 $320 $322 $342 0 $308 $-1 #
coedge $-1 $328 $332 $311 $334 0 $308 $-1 #
edge $-1 $337 $335 $311 $347 0 #
vertex $-1 $312 $348 #
straight-curve $-1 207.086614173228 98.2283464566929 59.0551181102362 0 -1 0 #
vertex $-1 $334 $349 #
straight-curve $-1 0 98.2283464566929 59.0551181102362 0 1 0 #
point $-1 207.086614173228 0 59.0551181102362 #
point $-1 0 0 59.0551181102362 #
straight-curve $-1 103.543307086614 196.456692913386 0 -1 0 0 #
edge $-1 $323 $337 $322 $350 0 #
point $-1 0 196.456692913386 0 #
straight-curve $-1 0 0 0 0 0 1 #
straight-curve $-1 207.086614173228 196.456692913386 0 0 0 1 #
point $-1 207.086614173228 196.456692913386 0 #
straight-curve $-1 103.543307086614 196.456692913386 59.0551181102362 1 0 0 #
point $-1 207.086614173228 196.456692913386 59.0551181102362 #
point $-1 0 196.456692913386 59.0551181102362 #
straight-curve $-1 0 196.456692913386 0 0 0 1 #
