600 0 2 0           
34 FBMach with ACIS3D/Toolkit - 6.0.3 13 ACIS 6.0.3 NT 24 Mon Apr 16 11:18:19 2001 
1 9.9999999999999995e-007 1e-010 
body $2 $3 $-1 $4 #
bdycol-kcp $-1 1 3 $5 $6 $7 #
model_id-kcp-attrib $-1 $-1 $-1 $0 1 987434290 218 -86376447 1 #
lump $-1 $-1 $8 $0 #
transform $-1 1 0 0 0 1 0 0 0 1 0 0 0 1 no_rotate no_reflect no_shear #
body $9 $10 $-1 $11 #
body $12 $13 $-1 $14 #
body $15 $16 $-1 $17 #
shell $-1 $-1 $-1 $18 $-1 $3 #
model_id-kcp-attrib $-1 $-1 $-1 $5 1 987434290 234 -85327870 1 #
lump $-1 $-1 $19 $5 #
transform $-1 1 0 0 0 1 0 0 0 1 103.54330708661401 98.228346456693004 29.5275590551181 1 no_rotate no_reflect no_shear #
rgb_color-st-attrib $-1 $20 $-1 $6 0 0 1 #
lump $-1 $-1 $21 $6 #
transform $-1 1 0 0 0 1 0 0 0 1 103.54330708661401 98.228346456693004 29.5275590551181 1 no_rotate no_reflect no_shear #
rgb_color-st-attrib $-1 $22 $-1 $7 0.59999999999999998 0.90000000000000002 1 #
lump $-1 $-1 $23 $7 #
transform $-1 1 0 0 0 1 0 0 0 1 103.54330708661401 98.228346456693004 29.5275590551181 1 no_rotate no_reflect no_shear #
face $24 $25 $26 $8 $-1 $27 reversed single #
shell $-1 $-1 $-1 $28 $-1 $10 #
model_id-kcp-attrib $-1 $-1 $12 $6 1 987434290 4828 -86245373 1 #
shell $-1 $-1 $-1 $29 $-1 $13 #
model_id-kcp-attrib $-1 $-1 $15 $7 1 987434290 8640 -88080380 1 #
shell $-1 $-1 $-1 $30 $-1 $16 #
model_id-kcp-attrib $-1 $-1 $-1 $18 1 987434290 218 -86376447 2 #
face $31 $32 $33 $8 $-1 $34 reversed single #
loop $-1 $-1 $35 $18 #
cone-surface $-1 116.53543307086601 68.307086614173201 48.818897637795303 0 0 -1 -11.8110236220472 0 0 1 I I 0 1 11.8110236220472 forward I I I I #
face $36 $37 $38 $19 $-1 $39 forward single #
face $-1 $40 $41 $21 $-1 $42 forward single #
face $-1 $43 $44 $23 $-1 $45 forward single #
model_id-kcp-attrib $-1 $-1 $-1 $25 1 987434290 218 -86376447 3 #
face $46 $47 $48 $8 $-1 $49 reversed single #
loop $-1 $-1 $50 $25 #
cone-surface $-1 116.53543307086601 128.14960629921299 48.818897637795303 0 0 -1 -11.8110236220472 0 0 1 I I 0 1 11.8110236220472 forward I I I I #
coedge $-1 $51 $52 $53 $54 forward $26 $-1 #
model_id-kcp-attrib $-1 $-1 $-1 $28 1 987434290 234 -85327870 2 #
face $55 $56 $57 $19 $-1 $58 reversed single #
loop $-1 $-1 $59 $28 #
plane-surface $-1 0 0 29.5275590551181 0 0 1 1 0 0 forward_v I I I I #
face $-1 $60 $61 $21 $-1 $62 forward single #
loop $-1 $-1 $63 $29 #
plane-surface $-1 12.992125984251999 41.73228346456699 19.291338582677202 0 1 0 0 0 1 forward_v I I I I #
face $-1 $64 $65 $23 $-1 $66 forward single #
loop $-1 $-1 $67 $30 #
plane-surface $-1 103.54330708661401 -57.283464566929204 -9.8425196850393988 1 0 0 0 0 -1 forward_v I I I I #
model_id-kcp-attrib $-1 $-1 $-1 $32 1 987434290 218 -86376447 4 #
face $68 $69 $70 $8 $-1 $71 reversed single #
loop $-1 $-1 $72 $32 #
plane-surface $-1 128.34645669291299 98.228346456692904 48.818897637795303 1 0 0 0 0 -1 forward_v I I I I #
coedge $-1 $73 $74 $75 $76 forward $33 $-1 #
coedge $-1 $77 $35 $78 $79 forward $26 $-1 #
coedge $-1 $35 $77 $80 $81 reversed $26 $-1 #
coedge $-1 $82 $83 $35 $54 reversed $70 $-1 #
edge $-1 $84 -29.133858267716601 $85 0 $35 $86 forward 7 unknown #
model_id-kcp-attrib $-1 $-1 $-1 $37 1 987434290 234 -85327870 6 #
face $87 $88 $89 $19 $-1 $90 reversed single #
loop $-1 $-1 $91 $37 #
plane-surface $-1 0 0 -29.5275590551181 0 0 1 1 0 0 forward_v I I I I #
coedge $-1 $92 $93 $94 $95 forward $38 $-1 #
face $-1 $96 $97 $21 $-1 $98 forward single #
loop $-1 $-1 $99 $40 #
cone-surface $-1 -81.496062992125815 29.921259842519987 19.291338582677213 0 0 -1 -11.8110236220472 0 0 1 I I 0 1 11.8110236220472 forward I I I I #
coedge $-1 $100 $101 $102 $103 forward $41 $-1 #
face $-1 $104 $105 $23 $-1 $106 forward single #
loop $-1 $-1 $107 $43 #
plane-surface $-1 103.54330708661401 57.283464566928991 -9.8425196850393988 0 1 0 0 0 1 forward_v I I I I #
coedge $-1 $108 $109 $110 $111 forward $44 $-1 #
model_id-kcp-attrib $-1 $-1 $-1 $47 1 987434290 218 -86376447 5 #
face $112 $113 $114 $8 $-1 $115 reversed single #
loop $-1 $-1 $116 $47 #
plane-surface $-1 69.291338582677199 56.496062992125999 48.818897637795303 0 -1 0 0 0 -1 forward_v I I I I #
coedge $-1 $117 $118 $77 $119 reversed $48 $-1 #
coedge $-1 $120 $50 $121 $122 forward $33 $-1 #
coedge $-1 $50 $120 $123 $124 reversed $33 $-1 #
coedge $-1 $118 $117 $50 $76 reversed $48 $-1 #
edge $-1 $125 -29.133858267716601 $126 0 $50 $127 forward 7 unknown #
coedge $-1 $52 $51 $72 $119 forward $26 $-1 #
coedge $-1 $128 $129 $51 $79 reversed $130 $-1 #
edge $-1 $85 -0.78539816339744828 $131 0.78539816339744828 $51 $132 forward 7 unknown #
coedge $-1 $133 $134 $52 $81 forward $135 $-1 #
edge $-1 $84 -0.78539816339744828 $136 0.78539816339744828 $52 $137 forward 7 unknown #
coedge $-1 $138 $53 $134 $139 reversed $70 $-1 #
coedge $-1 $53 $140 $128 $141 reversed $70 $-1 #
vertex $-1 $54 $142 #
vertex $-1 $54 $143 #
straight-curve $-1 116.53543307086601 56.496062992125999 48.818897637795303 0 0 1 I I #
model_id-kcp-attrib $-1 $-1 $-1 $56 1 987434290 234 -85327870 3 #
face $144 $145 $146 $19 $-1 $147 reversed single #
loop $-1 $-1 $148 $56 #
plane-surface $-1 0 -98.228346456693004 0 0 1 0 0 0 1 forward_v I I I I #
coedge $-1 $149 $150 $151 $152 forward $57 $-1 #
coedge $-1 $153 $59 $154 $155 forward $38 $-1 #
coedge $-1 $59 $153 $156 $157 forward $38 $-1 #
coedge $-1 $158 $159 $59 $95 reversed $160 $-1 #
edge $-1 $161 -98.228346456693004 $162 98.228346456693004 $94 $163 forward 7 unknown #
face $-1 $164 $165 $21 $-1 $166 forward single #
loop $-1 $-1 $167 $60 #
plane-surface $-1 -93.307086614173102 29.921259842519987 19.291338582677202 -1 0 0 0 0 1 forward_v I I I I #
coedge $-1 $168 $169 $170 $171 forward $61 $-1 #
coedge $-1 $172 $63 $169 $173 reversed $41 $-1 #
coedge $-1 $63 $172 $174 $175 forward $41 $-1 #
coedge $-1 $176 $170 $63 $103 reversed $177 $-1 #
edge $-1 $178 -47.244094488188885 $179 47.244094488188928 $63 $180 forward 7 unknown #
face $-1 $181 $182 $23 $-1 $183 forward single #
loop $-1 $-1 $184 $64 #
cone-surface $-1 24.803149606298987 37.598425196850002 -9.8425196850394059 0 0 -1 -19.685039370078702 0 0 1 I I 0 1 19.685039370078702 forward I I I I #
coedge $-1 $185 $186 $187 $188 forward $65 $-1 #
coedge $-1 $189 $67 $186 $190 reversed $44 $-1 #
coedge $-1 $67 $189 $191 $192 forward $44 $-1 #
coedge $-1 $193 $187 $67 $111 reversed $194 $-1 #
edge $-1 $195 -57.283464566929148 $196 57.283464566929048 $67 $197 forward 7 unknown #
model_id-kcp-attrib $-1 $-1 $-1 $69 1 987434290 218 -86376447 6 #
face $198 $199 $200 $8 $-1 $201 reversed single #
loop $-1 $-1 $202 $69 #
plane-surface $-1 69.291338582677199 139.96062992125999 48.818897637795303 0 1 0 0 0 1 forward_v I I I I #
coedge $-1 $140 $138 $203 $204 reversed $70 $-1 #
coedge $-1 $75 $72 $129 $205 reversed $48 $-1 #
coedge $-1 $72 $75 $133 $206 reversed $48 $-1 #
edge $-1 $131 0 $136 29.133858267716601 $77 $207 forward 7 unknown #
coedge $-1 $74 $73 $208 $209 forward $33 $-1 #
coedge $-1 $129 $210 $73 $122 reversed $130 $-1 #
edge $-1 $126 -0.78539816339744828 $211 0.78539816339744828 $73 $212 forward 7 unknown #
coedge $-1 $213 $133 $74 $124 forward $135 $-1 #
edge $-1 $125 -0.78539816339744828 $214 0.78539816339744828 $74 $215 forward 7 unknown #
vertex $-1 $76 $216 #
vertex $-1 $76 $217 #
straight-curve $-1 128.34645669291299 128.14960629921299 48.818897637795303 0 0 1 I I #
coedge $-1 $218 $78 $83 $141 forward $130 $-1 #
coedge $-1 $78 $121 $117 $205 forward $130 $-1 #
loop $-1 $-1 $129 $219 #
vertex $-1 $79 $220 #
ellipse-curve $-1 116.53543307086601 68.307086614173201 48.818897637795303 0 0 1 8.3516548959040708 -8.3516548959040708 0 1 I I #
coedge $-1 $123 $80 $118 $206 forward $135 $-1 #
coedge $-1 $80 $221 $82 $139 forward $135 $-1 #
loop $-1 $-1 $221 $222 #
vertex $-1 $119 $223 #
ellipse-curve $-1 116.53543307086601 68.307086614173201 19.685039370078702 0 0 1 8.3516548959040708 -8.3516548959040708 0 1 I I #
coedge $-1 $116 $82 $224 $225 reversed $70 $-1 #
edge $-1 $226 -68.45868869891099 $84 -61.02362204724399 $82 $227 forward 7 unknown #
coedge $-1 $83 $116 $228 $229 reversed $70 $-1 #
edge $-1 $85 -47.244094488188807 $230 47.244094488188999 $83 $231 forward 7 unknown #
point $-1 116.53543307086601 56.496062992125999 19.685039370078702 #
point $-1 116.53543307086601 56.496062992125999 48.818897637795303 #
model_id-kcp-attrib $-1 $-1 $-1 $88 1 987434290 234 -85327870 4 #
face $232 $233 $234 $19 $-1 $235 reversed single #
loop $-1 $-1 $236 $88 #
plane-surface $-1 -103.54330708661401 0 0 1 0 0 0 0 -1 forward_v I I I I #
coedge $-1 $237 $156 $238 $239 forward $89 $-1 #
coedge $-1 $240 $91 $237 $241 forward $57 $-1 #
coedge $-1 $91 $240 $242 $243 forward $57 $-1 #
coedge $-1 $159 $158 $91 $152 reversed $160 $-1 #
edge $-1 $244 -98.228346456693004 $245 98.228346456693004 $151 $246 forward 7 unknown #
coedge $-1 $93 $92 $247 $248 forward $38 $-1 #
coedge $-1 $249 $250 $92 $155 reversed $234 $-1 #
edge $-1 $162 -103.54330708661401 $251 103.54330708661401 $154 $252 forward 7 unknown #
coedge $-1 $148 $253 $93 $157 reversed $89 $-1 #
edge $-1 $254 -103.54330708661401 $161 103.54330708661401 $156 $255 forward 7 unknown #
coedge $-1 $151 $94 $253 $256 forward $160 $-1 #
coedge $-1 $94 $151 $249 $257 reversed $160 $-1 #
loop $-1 $-1 $158 $233 #
vertex $-1 $95 $258 #
vertex $-1 $95 $259 #
straight-curve $-1 103.54330708661401 0 29.5275590551181 0 1 0 I I #
face $-1 $260 $261 $21 $-1 $262 forward single #
loop $-1 $-1 $263 $96 #
cone-surface $-1 -81.496062992125815 -29.921259842519802 19.291338582677213 0 0 -1 -11.8110236220472 0 0 1 I I 0 1 11.8110236220472 forward I I I I #
coedge $-1 $264 $265 $266 $267 forward $97 $-1 #
coedge $-1 $268 $99 $265 $269 reversed $61 $-1 #
coedge $-1 $99 $268 $100 $173 forward $61 $-1 #
coedge $-1 $102 $266 $99 $171 reversed $177 $-1 #
edge $-1 $179 -1.5707963267948966 $270 0 $99 $271 forward 7 unknown #
coedge $-1 $101 $100 $272 $273 reversed $41 $-1 #
edge $274 $275 0 $179 29.133858267716601 $169 $276 forward 7 unknown #
coedge $-1 $277 $278 $101 $175 reversed $279 $-1 #
edge $-1 $280 0 $178 29.133858267716601 $101 $281 forward 7 unknown #
coedge $-1 $282 $102 $278 $283 reversed $177 $-1 #
loop $-1 $-1 $102 $284 #
vertex $-1 $175 $285 #
vertex $-1 $173 $286 #
straight-curve $-1 -34.251968503936887 41.73228346456699 -9.8425196850393881 -1 0 0 I I #
face $-1 $287 $288 $23 $-1 $289 forward single #
loop $-1 $-1 $290 $104 #
plane-surface $-1 5.5570593325849984 41.732283464566997 -9.8425196850393988 0 1 0 0 0 1 forward_v I I I I #
coedge $-1 $291 $292 $293 $294 forward $105 $-1 #
coedge $-1 $295 $107 $292 $296 reversed $65 $-1 #
coedge $-1 $107 $295 $108 $190 forward $65 $-1 #
coedge $-1 $110 $293 $107 $188 reversed $194 $-1 #
edge $-1 $196 -63.97637795275579 $297 14.76377952755923 $107 $298 forward 7 unknown #
coedge $-1 $109 $108 $299 $300 reversed $44 $-1 #
edge $-1 $301 0 $196 19.685039370078702 $186 $302 forward 7 unknown #
coedge $-1 $303 $304 $109 $192 reversed $305 $-1 #
edge $-1 $306 0 $195 19.685039370078702 $109 $307 forward 7 unknown #
coedge $-1 $308 $110 $304 $309 reversed $194 $-1 #
loop $-1 $-1 $110 $310 #
vertex $-1 $192 $311 #
vertex $-1 $190 $312 #
straight-curve $-1 103.54330708661401 -5.6843418860808015e-014 -29.527559055118108 0 1 0 I I #
model_id-kcp-attrib $-1 $-1 $-1 $113 1 987434290 218 -86376447 7 #
face $313 $314 $315 $8 $-1 $316 reversed single #
loop $-1 $-1 $317 $113 #
cone-surface $-1 22.0472440944882 128.14960629921299 48.818897637795303 0 0 -1 -11.8110236220472 0 0 1 I I 0 1 11.8110236220472 forward I I I I #
coedge $-1 $208 $318 $213 $319 reversed $114 $-1 #
coedge $-1 $320 $321 $116 $204 forward $322 $-1 #
edge $-1 $323 -47.244094488188999 $324 39.809027836521807 $116 $325 forward 7 unknown #
edge $-1 $126 -29.921259842520087 $131 29.921259842519703 $117 $326 forward 7 unknown #
edge $-1 $136 -29.921259842519703 $125 29.921259842520087 $118 $327 forward 7 unknown #
straight-curve $-1 128.34645669291299 68.307086614173201 48.818897637795303 0 0 -1 I I #
coedge $-1 $328 $202 $120 $209 reversed $114 $-1 #
edge $-1 $211 0 $214 29.133858267716601 $120 $329 forward 7 unknown #
coedge $-1 $121 $330 $328 $331 forward $130 $-1 #
vertex $-1 $122 $332 #
ellipse-curve $-1 116.53543307086601 128.14960629921299 48.818897637795303 0 0 1 8.3516548959040708 8.3516548959040708 0 1 I I #
coedge $-1 $333 $123 $202 $319 forward $135 $-1 #
vertex $-1 $209 $334 #
ellipse-curve $-1 116.53543307086601 128.14960629921299 19.685039370078702 0 0 1 8.3516548959040708 8.3516548959040708 0 1 I I #
point $-1 128.34645669291299 128.14960629921299 19.685039370078702 #
point $-1 128.34645669291299 128.14960629921299 48.818897637795303 #
coedge $-1 $335 $128 $336 $337 reversed $130 $-1 #
face $338 $339 $130 $8 $-1 $340 reversed single #
point $-1 128.34645669291299 68.307086614173201 48.818897637795303 #
coedge $-1 $134 $341 $342 $343 reversed $135 $-1 #
face $344 $345 $135 $8 $-1 $346 reversed single #
point $-1 128.34645669291299 68.307086614173201 19.685039370078702 #
coedge $-1 $342 $347 $138 $225 forward $348 $-1 #
edge $-1 $324 -19.685039370078702 $226 0 $138 $349 forward 7 unknown #
vertex $-1 $139 $350 #
straight-curve $-1 177.55905511811 56.496062992125999 19.685039370078702 1 0 0 I I #
coedge $-1 $351 $336 $140 $229 forward $315 $-1 #
edge $-1 $230 0 $323 48.818897637795303 $140 $352 forward 7 unknown #
vertex $-1 $229 $353 #
straight-curve $-1 69.291338582677199 56.496062992125999 48.818897637795303 -1 0 0 I I #
model_id-kcp-attrib $-1 $-1 $-1 $145 1 987434290 234 -85327870 5 #
face $354 $-1 $160 $19 $-1 $355 reversed single #
loop $-1 $-1 $249 $145 #
plane-surface $-1 0 98.228346456693004 0 0 -1 0 0 0 -1 forward_v I I I I #
coedge $-1 $356 $247 $250 $357 forward $146 $-1 #
coedge $-1 $253 $148 $149 $241 reversed $89 $-1 #
coedge $-1 $247 $356 $148 $239 reversed $146 $-1 #
edge $-1 $254 -29.5275590551181 $358 29.5275590551181 $238 $359 forward 7 unknown #
coedge $-1 $150 $149 $356 $360 forward $57 $-1 #
edge $-1 $245 -103.54330708661401 $358 103.54330708661401 $237 $361 forward 7 unknown #
coedge $-1 $250 $249 $150 $243 reversed $234 $-1 #
edge $-1 $362 -103.54330708661401 $244 103.54330708661401 $242 $363 forward 7 unknown #
vertex $-1 $152 $364 #
vertex $-1 $256 $365 #
straight-curve $-1 103.54330708661401 0 -29.5275590551181 0 -1 0 I I #
coedge $-1 $236 $238 $153 $248 reversed $146 $-1 #
edge $-1 $251 -98.228346456693004 $254 98.228346456693004 $247 $366 forward 7 unknown #
coedge $-1 $242 $154 $159 $257 forward $234 $-1 #
coedge $-1 $154 $242 $236 $357 reversed $234 $-1 #
vertex $-1 $155 $367 #
straight-curve $-1 0 98.228346456693004 29.5275590551181 -1 0 0 I I #
coedge $-1 $156 $237 $158 $256 reversed $89 $-1 #
vertex $-1 $248 $368 #
straight-curve $-1 0 -98.228346456693004 29.5275590551181 1 0 0 I I #
edge $-1 $161 -29.5275590551181 $245 29.5275590551181 $158 $369 forward 7 unknown #
edge $-1 $162 -29.5275590551181 $244 29.5275590551181 $159 $370 forward 7 unknown #
point $-1 103.54330708661401 -98.228346456693004 29.5275590551181 #
point $-1 103.54330708661401 98.228346456693004 29.5275590551181 #
face $-1 $371 $372 $21 $-1 $373 forward single #
loop $-1 $-1 $374 $164 #
plane-surface $-1 -81.496062992125815 -41.732283464567004 19.291338582677202 0 -1 0 0 0 -1 forward_v I I I I #
coedge $-1 $375 $376 $377 $378 forward $165 $-1 #
coedge $-1 $379 $167 $376 $380 reversed $97 $-1 #
coedge $-1 $167 $379 $168 $269 forward $97 $-1 #
coedge $-1 $170 $377 $167 $267 reversed $177 $-1 #
edge $-1 $270 -29.921259842519994 $381 29.921259842519795 $167 $382 forward 7 unknown #
coedge $-1 $169 $168 $383 $384 reversed $61 $-1 #
edge $-1 $385 0 $270 29.133858267716601 $265 $386 forward 7 unknown #
vertex $-1 $269 $387 #
ellipse-curve $-1 -81.496062992125815 29.921259842519987 -9.8425196850393881 0 0 1 -11.8110236220472 0 0 1 I I #
coedge $-1 $383 $388 $172 $273 forward $389 $-1 #
edge $390 $280 -47.244094488188885 $275 47.244094488188928 $172 $391 forward 7 unknown #
convexity-sys-attrib $-1 $-1 $-1 $173 #
vertex $-1 $273 $392 #
straight-curve $-1 -81.496062992125815 41.73228346456699 19.291338582677202 0 0 -1 I I #
coedge $-1 $393 $174 $388 $394 reversed $279 $-1 #
coedge $-1 $174 $393 $176 $283 forward $279 $-1 #
loop $-1 $-1 $278 $395 #
vertex $-1 $394 $396 #
straight-curve $-1 12.992125984251999 41.73228346456699 19.291338582677202 0 0 -1 I I #
coedge $-1 $397 $176 $398 $399 reversed $177 $-1 #
edge $-1 $400 -3.1415926535897931 $178 -1.5707963267948966 $278 $401 forward 7 unknown #
face $-1 $402 $177 $21 $-1 $403 reversed single #
point $-1 12.992125984251999 41.73228346456699 -9.8425196850393988 #
point $-1 -81.496062992125815 41.73228346456699 -9.8425196850393988 #
face $-1 $404 $405 $23 $-1 $406 forward single #
loop $-1 $-1 $407 $181 #
cone-surface $-1 -81.496062992125815 29.921259842519987 -9.8425196850394059 0 0 -1 -11.8110236220472 0 0 1 I I 0 1 11.8110236220472 forward I I I I #
coedge $-1 $408 $409 $410 $411 forward $182 $-1 #
coedge $-1 $412 $184 $409 $413 reversed $105 $-1 #
coedge $-1 $184 $412 $185 $296 forward $105 $-1 #
coedge $-1 $187 $410 $184 $294 reversed $194 $-1 #
edge $-1 $297 -1.5707963267948966 $414 -0.21157495975812773 $184 $415 forward 7 unknown #
coedge $-1 $186 $185 $416 $417 reversed $65 $-1 #
edge $418 $419 0 $297 19.685039370078702 $292 $420 forward 7 unknown #
vertex $-1 $296 $421 #
straight-curve $-1 39.566929133858217 57.283464566928984 -29.527559055118108 -1 0 0 I I #
coedge $-1 $416 $422 $189 $300 forward $423 $-1 #
edge $424 $306 -57.283464566929148 $301 57.283464566929041 $189 $425 forward 7 unknown #
vertex $-1 $300 $426 #
straight-curve $-1 103.54330708661401 57.283464566928991 -9.8425196850393988 0 0 -1 I I #
coedge $-1 $427 $191 $422 $428 reversed $305 $-1 #
coedge $-1 $191 $427 $193 $309 forward $305 $-1 #
loop $-1 $-1 $304 $429 #
vertex $-1 $428 $430 #
straight-curve $-1 103.54330708661401 -57.283464566929204 -9.8425196850393988 0 0 -1 I I #
coedge $-1 $431 $193 $432 $433 reversed $194 $-1 #
edge $-1 $434 -14.76377952755923 $195 63.97637795275579 $304 $435 forward 7 unknown #
face $-1 $436 $194 $23 $-1 $437 reversed single #
point $-1 103.54330708661401 -57.283464566929204 -29.5275590551181 #
point $-1 103.54330708661401 57.283464566928991 -29.5275590551181 #
model_id-kcp-attrib $-1 $-1 $-1 $199 1 987434290 218 -86376447 8 #
face $438 $219 $439 $8 $-1 $440 reversed single #
loop $-1 $-1 $336 $199 #
cone-surface $-1 22.0472440944882 68.307086614173201 48.818897637795303 0 0 -1 -11.8110236220472 0 0 1 I I 0 1 11.8110236220472 forward I I I I #
coedge $-1 $441 $442 $330 $443 forward $200 $-1 #
coedge $-1 $202 $444 $445 $446 reversed $114 $-1 #
edge $-1 $214 61.02362204724399 $447 68.45868869891099 $202 $448 forward 7 unknown #
coedge $-1 $449 $203 $347 $450 reversed $322 $-1 #
coedge $-1 $203 $451 $351 $452 reversed $322 $-1 #
loop $-1 $-1 $203 $453 #
vertex $-1 $204 $454 #
vertex $-1 $204 $455 #
straight-curve $-1 69.291338582677199 56.496062992125999 0 1 0 0 I I #
straight-curve $-1 128.34645669291299 98.228346456692904 48.818897637795303 0 -1 0 I I #
straight-curve $-1 128.34645669291299 98.228346456692904 19.685039370078702 0 1 0 I I #
coedge $-1 $456 $208 $210 $331 reversed $114 $-1 #
straight-curve $-1 116.53543307086601 139.96062992125999 48.818897637795303 0 0 -1 I I #
coedge $-1 $210 $335 $317 $443 reversed $130 $-1 #
edge $-1 $457 -47.244094488188999 $211 47.244094488188807 $328 $458 forward 7 unknown #
point $-1 116.53543307086601 139.96062992125999 48.818897637795303 #
coedge $-1 $459 $213 $460 $461 reversed $135 $-1 #
point $-1 116.53543307086601 139.96062992125999 19.685039370078702 #
coedge $-1 $330 $218 $462 $463 forward $130 $-1 #
coedge $-1 $228 $464 $218 $337 forward $315 $-1 #
edge $-1 $465 -0.78539816339744783 $230 0.78539816339744883 $336 $466 forward 7 unknown #
model_id-kcp-attrib $-1 $-1 $-1 $219 1 987434290 218 -86376447 10 #
face $467 $468 $469 $8 $-1 $470 reversed single #
plane-surface $-1 69.291338582677199 98.228346456692904 48.818897637795303 0 0 1 1 0 0 forward_v I I I I #
coedge $-1 $221 $471 $472 $473 forward $135 $-1 #
coedge $-1 $474 $224 $221 $343 forward $348 $-1 #
edge $-1 $226 -0.67961068351839682 $475 0.67961068351839693 $342 $476 forward 7 unknown #
model_id-kcp-attrib $-1 $-1 $-1 $222 1 987434290 218 -86376447 14 #
face $477 $478 $479 $8 $-1 $480 reversed single #
plane-surface $-1 177.55905511811 98.228346456692904 19.685039370078702 0 0 1 1 0 0 forward_v I I I I #
coedge $-1 $224 $474 $320 $450 forward $348 $-1 #
loop $-1 $-1 $347 $468 #
straight-curve $-1 109.10036641919901 56.496062992125999 19.685039370078702 0 0 1 I I #
point $-1 109.10036641919901 56.496062992125999 19.685039370078702 #
coedge $-1 $464 $228 $321 $452 forward $315 $-1 #
straight-curve $-1 22.0472440944882 56.496062992125999 48.818897637795303 0 0 -1 I I #
point $-1 22.0472440944882 56.496062992125999 48.818897637795303 #
model_id-kcp-attrib $-1 $-1 $-1 $233 1 987434290 234 -85327870 7 #
plane-surface $-1 103.54330708661401 0 0 -1 0 0 0 0 1 forward_v I I I I #
coedge $-1 $238 $236 $240 $360 reversed $146 $-1 #
edge $-1 $251 -29.5275590551181 $362 29.5275590551181 $250 $481 forward 7 unknown #
vertex $-1 $360 $482 #
straight-curve $-1 -103.54330708661401 -98.228346456693004 0 0 0 -1 I I #
edge $-1 $358 -98.228346456693004 $362 98.228346456693004 $356 $483 forward 7 unknown #
straight-curve $-1 0 -98.228346456693004 -29.5275590551181 -1 0 0 I I #
vertex $-1 $243 $484 #
straight-curve $-1 0 98.228346456693004 -29.5275590551181 1 0 0 I I #
point $-1 103.54330708661401 98.228346456693004 -29.5275590551181 #
point $-1 103.54330708661401 -98.228346456693004 -29.5275590551181 #
straight-curve $-1 -103.54330708661401 0 29.5275590551181 0 -1 0 I I #
point $-1 -103.54330708661401 98.228346456693004 29.5275590551181 #
point $-1 -103.54330708661401 -98.228346456693004 29.5275590551181 #
straight-curve $-1 103.54330708661401 -98.228346456693004 0 0 0 -1 I I #
straight-curve $-1 103.54330708661401 98.228346456693004 0 0 0 -1 I I #
face $-1 $395 $485 $21 $-1 $486 forward single #
loop $-1 $-1 $487 $260 #
cone-surface $-1 12.992125984251999 -29.921259842519802 19.291338582677213 0 0 -1 -11.8110236220472 0 0 1 I I 0 1 11.8110236220472 forward I I I I #
coedge $-1 $488 $489 $490 $491 forward $261 $-1 #
coedge $-1 $492 $263 $489 $493 reversed $165 $-1 #
coedge $-1 $263 $492 $264 $380 forward $165 $-1 #
coedge $-1 $266 $490 $263 $378 reversed $177 $-1 #
edge $-1 $381 0 $494 1.5707963267948966 $263 $495 forward 7 unknown #
coedge $-1 $265 $264 $496 $497 reversed $97 $-1 #
edge $-1 $498 0 $381 29.133858267716601 $376 $499 forward 7 unknown #
vertex $-1 $380 $500 #
straight-curve $-1 -93.307086614173102 -7.1054273576010019e-015 -9.8425196850393881 0 -1 0 I I #
coedge $-1 $496 $272 $268 $384 forward $389 $-1 #
edge $501 $275 -1.5707963267948966 $385 0 $268 $502 forward 7 unknown #
vertex $-1 $384 $503 #
straight-curve $-1 -93.307086614173102 29.921259842519987 19.291338582677202 0 0 -1 I I #
point $-1 -93.307086614173102 29.921259842519987 -9.8425196850393988 #
coedge $-1 $272 $504 $277 $394 forward $389 $-1 #
loop $-1 $-1 $388 $402 #
convexity-sys-attrib $-1 $-1 $-1 $273 #
straight-curve $-1 -34.251968503936887 41.73228346456699 19.291338582677213 -1 0 0 I I #
point $-1 -81.496062992125815 41.73228346456699 19.291338582677202 #
coedge $-1 $278 $277 $505 $506 forward $279 $-1 #
edge $507 $508 -3.1415926535897931 $280 -1.5707963267948966 $277 $509 forward 7 unknown #
face $-1 $284 $279 $21 $-1 $510 forward single #
point $-1 12.992125984251999 41.73228346456699 19.291338582677202 #
coedge $-1 $490 $282 $487 $511 reversed $177 $-1 #
coedge $-1 $505 $512 $282 $399 forward $485 $-1 #
edge $-1 $513 -29.921259842519795 $400 29.921259842519994 $398 $514 forward 7 unknown #
vertex $-1 $506 $515 #
ellipse-curve $-1 12.992125984251999 29.921259842519987 -9.8425196850393881 0 0 1 -11.8110236220472 0 0 1 I I #
face $-1 $-1 $389 $21 $-1 $516 forward single #
plane-surface $-1 -34.251968503936958 4.4408920985006262e-014 -9.8425196850393881 2.5961641620622098e-031 -5.8005912347797069e-032 1 1 0 -2.5961641620622098e-031 forward_v I I I I #
face $-1 $517 $518 $23 $-1 $519 forward single #
loop $-1 $-1 $520 $287 #
plane-surface $-1 -93.307086614173102 29.921259842519994 -9.8425196850393988 -1 0 0 0 0 1 forward_v I I I I #
coedge $-1 $521 $522 $523 $524 forward $288 $-1 #
coedge $-1 $525 $290 $522 $526 reversed $182 $-1 #
coedge $-1 $290 $525 $291 $413 forward $182 $-1 #
coedge $-1 $293 $523 $290 $411 reversed $194 $-1 #
edge $-1 $414 -20.12398846644318 $527 66.929133858267633 $290 $528 forward 7 unknown #
coedge $-1 $292 $291 $529 $530 reversed $105 $-1 #
edge $-1 $531 0 $414 19.685039370078702 $409 $532 forward 7 unknown #
vertex $-1 $413 $533 #
ellipse-curve $-1 24.803149606298987 37.598425196850002 -29.527559055118108 0 0 1 -19.685039370078702 0 0 1 I I #
coedge $-1 $529 $299 $295 $417 forward $423 $-1 #
edge $534 $301 -63.97637795275579 $419 14.76377952755923 $295 $535 forward 7 unknown #
convexity-sys-attrib $-1 $-1 $-1 $296 #
vertex $-1 $417 $536 #
straight-curve $-1 24.803149606298987 57.283464566928991 -9.8425196850393988 0 0 -1 I I #
point $-1 24.803149606298987 57.283464566928991 -29.5275590551181 #
coedge $-1 $299 $537 $303 $428 forward $423 $-1 #
loop $-1 $-1 $422 $436 #
convexity-sys-attrib $-1 $-1 $-1 $300 #
straight-curve $-1 103.54330708661401 -5.6843418860808015e-014 -9.8425196850394059 0 1 0 I I #
point $-1 103.54330708661401 57.283464566928984 -9.8425196850393988 #
coedge $-1 $304 $303 $538 $539 forward $305 $-1 #
edge $540 $541 -14.76377952755923 $306 63.97637795275579 $303 $542 forward 7 unknown #
face $-1 $310 $305 $23 $-1 $543 forward single #
point $-1 103.54330708661401 -57.283464566929204 -9.8425196850393988 #
coedge $-1 $544 $308 $545 $546 reversed $194 $-1 #
coedge $-1 $538 $547 $308 $433 forward $548 $-1 #
edge $-1 $549 0.21157495975810303 $434 1.5707963267948966 $432 $550 forward 7 unknown #
vertex $-1 $539 $551 #
straight-curve $-1 39.566929133858217 -57.283464566929204 -29.527559055118108 1 0 0 I I #
face $-1 $-1 $423 $23 $-1 $552 forward single #
plane-surface $-1 12.071374433574704 -8.9848733957571859e-014 -29.527559055118104 0 0 1 1 0 0 forward_v I I I I #
model_id-kcp-attrib $-1 $-1 $-1 $314 1 987434290 218 -86376447 9 #
loop $-1 $-1 $553 $314 #
plane-surface $-1 10.2362204724409 98.228346456692904 48.818897637795303 -1 0 0 0 0 1 forward_v I I I I #
coedge $-1 $554 $317 $555 $556 forward $200 $-1 #
coedge $-1 $317 $554 $456 $557 forward $200 $-1 #
edge $-1 $457 -0.78539816339744828 $558 0.78539816339744828 $317 $559 forward 7 unknown #
coedge $-1 $318 $456 $560 $561 reversed $114 $-1 #
coedge $-1 $562 $460 $318 $446 forward $469 $-1 #
edge $-1 $447 0 $563 19.685039370078702 $318 $564 forward 7 unknown #
vertex $-1 $319 $565 #
straight-curve $-1 177.55905511811 139.96062992125999 19.685039370078702 -1 0 0 I I #
coedge $-1 $566 $320 $567 $568 forward $322 $-1 #
edge $-1 $569 -0.67961068351839693 $324 0.67961068351839682 $347 $570 forward 7 unknown #
coedge $-1 $321 $571 $553 $572 forward $322 $-1 #
edge $-1 $323 -0.78539816339744828 $573 0.78539816339744828 $351 $574 forward 7 unknown #
face $575 $576 $322 $8 $-1 $577 forward single #
point $-1 22.0472440944882 56.496062992125999 0 #
point $-1 109.10036641919901 56.496062992125999 0 #
coedge $-1 $444 $328 $442 $557 reversed $114 $-1 #
vertex $-1 $331 $578 #
straight-curve $-1 69.291338582677199 139.96062992125999 48.818897637795303 1 0 0 I I #
coedge $-1 $471 $333 $579 $580 forward $135 $-1 #
coedge $-1 $445 $581 $333 $461 forward $469 $-1 #
edge $-1 $582 -0.67961068351838272 $447 0.6796106835183866 $460 $583 forward 7 unknown #
coedge $-1 $584 $555 $335 $463 reversed $439 $-1 #
edge $-1 $465 -29.921259842519703 $558 29.921259842520087 $462 $585 forward 7 unknown #
coedge $-1 $336 $351 $584 $586 forward $315 $-1 #
vertex $-1 $337 $587 #
ellipse-curve $-1 22.0472440944882 68.307086614173201 48.818897637795303 0 0 1 -8.3516548959040797 -8.3516548959040708 0 1 I I #
model_id-kcp-attrib $-1 $-1 $-1 $339 1 987434290 218 -86376447 11 #
face $588 $589 $348 $8 $-1 $590 reversed single #
loop $-1 $-1 $460 $339 #
cone-surface $-1 128.34645669291299 135.82677165354301 19.685039370078702 0 0 -1 -19.685039370078702 0 0 1 I I 0 1 19.685039370078702 forward I I I I #
coedge $-1 $341 $459 $591 $592 forward $135 $-1 #
coedge $-1 $593 $594 $341 $473 reversed $595 $-1 #
edge $-1 $596 -29.527559055118019 $475 49.212598425197001 $472 $597 forward 7 unknown #
coedge $-1 $347 $342 $594 $598 forward $348 $-1 #
vertex $-1 $343 $599 #
ellipse-curve $-1 128.34645669291299 60.629921259842497 19.685039370078702 0 0 1 -12.371855403520099 -15.3113673091575 0 1 I I #
model_id-kcp-attrib $-1 $-1 $-1 $345 1 987434290 218 -86376447 15 #
face $600 $601 $602 $8 $-1 $603 forward single #
loop $-1 $-1 $604 $345 #
plane-surface $-1 177.55905511811 155.51181102362199 19.685039370078702 0 1 0 0 0 1 forward_v I I I I #
straight-curve $-1 -103.54330708661401 98.228346456693004 0 0 0 -1 I I #
point $-1 -103.54330708661401 -98.228346456693004 -29.5275590551181 #
straight-curve $-1 -103.54330708661401 0 -29.5275590551181 0 1 0 I I #
point $-1 -103.54330708661401 98.228346456693004 -29.5275590551181 #
loop $-1 $-1 $398 $371 #
plane-surface $-1 24.803149606298987 -29.921259842519802 19.291338582677202 1 0 0 0 0 -1 forward_v I I I I #
coedge $-1 $605 $606 $397 $511 forward $372 $-1 #
coedge $-1 $607 $374 $606 $608 reversed $261 $-1 #
coedge $-1 $374 $607 $375 $493 forward $261 $-1 #
coedge $-1 $377 $397 $374 $491 reversed $177 $-1 #
edge $-1 $494 -47.244094488188928 $609 47.244094488188885 $374 $610 forward 7 unknown #
coedge $-1 $376 $375 $611 $612 reversed $165 $-1 #
edge $-1 $613 0 $494 29.133858267716601 $489 $614 forward 7 unknown #
vertex $-1 $493 $615 #
ellipse-curve $-1 -81.496062992125815 -29.921259842519802 -9.8425196850393881 0 0 1 -11.8110236220472 0 0 1 I I #
coedge $-1 $611 $383 $379 $497 forward $389 $-1 #
edge $616 $385 -29.921259842519994 $498 29.921259842519795 $379 $617 forward 7 unknown #
vertex $-1 $497 $618 #
straight-curve $-1 -93.307086614173102 -29.921259842519802 19.291338582677202 0 0 -1 I I #
point $-1 -93.307086614173102 -29.921259842519802 -9.8425196850393988 #
convexity-sys-attrib $-1 $-1 $-1 $384 #
ellipse-curve $-1 -81.496062992125815 29.921259842519987 19.291338582677213 0 0 1 -11.8110236220472 0 0 1 I I #
point $-1 -93.307086614173102 29.921259842519987 19.291338582677202 #
coedge $-1 $388 $619 $620 $621 forward $389 $-1 #
coedge $-1 $620 $398 $393 $506 reversed $485 $-1 #
edge $-1 $508 0 $400 29.133858267716601 $393 $622 forward 7 unknown #
convexity-sys-attrib $-1 $-1 $-1 $394 #
vertex $-1 $394 $623 #
ellipse-curve $-1 12.992125984251999 29.921259842519987 19.291338582677213 0 0 1 -11.8110236220472 0 0 1 I I #
cone-surface $-1 12.992125984251999 29.921259842519987 19.291338582677213 0 0 -1 -11.8110236220472 0 0 1 I I 0 1 11.8110236220472 forward I I I I #
edge $-1 $609 1.5707963267948966 $513 3.1415926535897931 $487 $624 forward 7 unknown #
coedge $-1 $398 $620 $605 $625 forward $485 $-1 #
vertex $-1 $625 $626 #
straight-curve $-1 24.803149606298987 -7.1054273576010019e-015 -9.8425196850393881 0 1 0 I I #
point $-1 24.803149606298987 29.921259842519987 -9.8425196850393988 #
plane-surface $-1 -34.251968503936958 4.4408920985006262e-014 19.291338582677213 2.5961641620622098e-031 -5.8005912347797069e-032 1 1 0 -2.5961641620622098e-031 forward_v I I I I #
face $-1 $627 $628 $23 $-1 $629 forward single #
loop $-1 $-1 $630 $404 #
cone-surface $-1 -81.496062992125815 -29.921259842519802 -9.8425196850394059 0 0 -1 -11.8110236220472 0 0 1 I I 0 1 11.8110236220472 forward I I I I #
coedge $-1 $631 $632 $633 $634 forward $405 $-1 #
coedge $-1 $635 $407 $632 $636 reversed $288 $-1 #
coedge $-1 $407 $635 $408 $526 forward $288 $-1 #
coedge $-1 $410 $633 $407 $524 reversed $194 $-1 #
edge $-1 $527 -1.5707963267948966 $637 -6.01592849610216e-016 $407 $638 forward 7 unknown #
coedge $-1 $409 $408 $639 $640 reversed $182 $-1 #
edge $-1 $641 0 $527 19.685039370078702 $522 $642 forward 7 unknown #
vertex $-1 $526 $643 #
straight-curve $-1 -14.566929133858181 41.73228346456699 -29.527559055118108 -1 0 0 I I #
coedge $-1 $639 $416 $412 $530 forward $423 $-1 #
edge $644 $419 -1.5707963267948966 $531 -0.21157495975812737 $412 $645 forward 7 unknown #
vertex $-1 $530 $646 #
straight-curve $-1 5.5570593325849984 41.732283464566997 -9.8425196850393988 0 0 -1 I I #
point $-1 5.5570593325849984 41.732283464566997 -29.5275590551181 #
convexity-sys-attrib $-1 $-1 $-1 $417 #
straight-curve $-1 39.566929133858217 57.283464566928984 -9.8425196850394059 -1 0 0 I I #
point $-1 24.803149606298987 57.283464566928984 -9.8425196850393988 #
coedge $-1 $422 $647 $648 $649 forward $423 $-1 #
coedge $-1 $648 $432 $427 $539 reversed $548 $-1 #
edge $-1 $541 0 $434 19.685039370078702 $427 $650 forward 7 unknown #
convexity-sys-attrib $-1 $-1 $-1 $428 #
vertex $-1 $428 $651 #
straight-curve $-1 39.566929133858217 -57.283464566929204 -9.8425196850394059 1 0 0 I I #
plane-surface $-1 24.803149606298987 -57.283464566929204 -9.8425196850393988 0 -1 0 0 0 -1 forward_v I I I I #
coedge $-1 $633 $431 $630 $652 reversed $194 $-1 #
coedge $-1 $653 $654 $431 $546 forward $628 $-1 #
edge $-1 $655 -66.929133858267633 $549 20.12398846644318 $545 $656 forward 7 unknown #
coedge $-1 $432 $648 $653 $657 forward $548 $-1 #
loop $-1 $-1 $432 $627 #
vertex $-1 $657 $658 #
ellipse-curve $-1 24.803149606298987 -37.598425196850506 -29.527559055118108 0 0 1 -19.685039370078702 0 0 1 I I #
point $-1 24.803149606298987 -57.283464566929204 -29.5275590551181 #
plane-surface $-1 12.071374433574704 -8.9848733957571859e-014 -9.8425196850394041 0 0 1 1 0 0 forward_v I I I I #
coedge $-1 $555 $584 $451 $572 reversed $439 $-1 #
coedge $-1 $442 $441 $571 $659 forward $200 $-1 #
coedge $-1 $462 $553 $441 $556 reversed $439 $-1 #
edge $-1 $558 0 $660 48.818897637795303 $441 $661 forward 7 unknown #
edge $-1 $662 -48.818897637795303 $457 0 $456 $663 forward 7 unknown #
vertex $-1 $443 $664 #
ellipse-curve $-1 22.0472440944882 128.14960629921299 48.818897637795303 0 0 1 -8.3516548959040708 8.3516548959040708 0 1 I I #
coedge $-1 $571 $665 $444 $561 forward $322 $-1 #
edge $-1 $563 -39.809027836521807 $662 47.244094488188999 $444 $666 forward 7 unknown #
coedge $-1 $581 $445 $665 $667 forward $469 $-1 #
vertex $-1 $561 $668 #
straight-curve $-1 109.10036641919901 139.96062992125999 19.685039370078702 0 0 -1 I I #
point $-1 109.10036641919901 139.96062992125999 19.685039370078702 #
coedge $-1 $669 $449 $670 $671 reversed $322 $-1 #
coedge $-1 $594 $593 $449 $568 reversed $595 $-1 #
edge $-1 $569 -49.212598425197001 $672 29.527559055118019 $567 $673 forward 7 unknown #
vertex $-1 $450 $674 #
ellipse-curve $-1 128.34645669291299 60.629921259842497 0 0 0 -1 -12.371855403520099 -15.3113673091575 0 1 I I #
coedge $-1 $451 $560 $554 $659 reversed $322 $-1 #
edge $-1 $660 -29.921259842520087 $573 29.921259842519703 $553 $675 forward 7 unknown #
vertex $-1 $452 $676 #
ellipse-curve $-1 22.0472440944882 68.307086614173201 0 0 0 -1 -8.3516548959040708 -8.3516548959040708 0 1 I I #
model_id-kcp-attrib $-1 $-1 $-1 $453 1 987434290 218 -86376447 20 #
face $677 $-1 $678 $8 $-1 $679 forward single #
plane-surface $-1 103.54330708661401 98.228346456692904 0 0 0 -1 -1 0 0 forward_v I I I I #
point $-1 22.0472440944882 139.96062992125999 48.818897637795303 #
coedge $-1 $680 $604 $459 $580 reversed $479 $-1 #
edge $-1 $582 -49.212598425197001 $681 29.527559055118019 $459 $682 forward 7 unknown #
coedge $-1 $460 $562 $680 $683 forward $469 $-1 #
vertex $-1 $461 $684 #
ellipse-curve $-1 128.34645669291299 135.82677165354301 19.685039370078702 0 0 1 -12.3718554035199 15.311367309157699 0 1 I I #
coedge $-1 $553 $462 $464 $586 reversed $439 $-1 #
straight-curve $-1 10.2362204724409 98.228346456692904 48.818897637795303 0 1 0 I I #
edge $-1 $573 -48.818897637795303 $465 0 $464 $685 forward 7 unknown #
point $-1 10.2362204724409 68.307086614173201 48.818897637795303 #
model_id-kcp-attrib $-1 $-1 $-1 $468 1 987434290 218 -86376447 12 #
face $686 $222 $595 $8 $-1 $687 reversed single #
cone-surface $-1 128.34645669291299 60.629921259842497 19.685039370078702 0 0 -1 -19.685039370078702 0 0 1 I I 0 1 19.685039370078702 forward I I I I #
coedge $-1 $688 $689 $471 $592 reversed $678 $-1 #
edge $-1 $681 -57.283464566929084 $596 57.283464566929105 $471 $690 forward 7 unknown #
coedge $-1 $567 $472 $689 $691 forward $595 $-1 #
coedge $-1 $472 $567 $474 $598 reversed $595 $-1 #
loop $-1 $-1 $593 $589 #
vertex $-1 $691 $692 #
straight-curve $-1 177.55905511811 40.944881889763799 19.685039370078702 -1 0 0 I I #
edge $-1 $475 0 $569 19.685039370078702 $474 $693 forward 7 unknown #
point $-1 128.34645669291299 40.944881889763799 19.685039370078702 #
model_id-kcp-attrib $-1 $-1 $-1 $478 1 987434290 218 -86376447 16 #
face $694 $695 $696 $8 $-1 $697 forward single #
loop $-1 $-1 $698 $478 #
plane-surface $-1 103.54330708661401 98.228346456692904 59.055118110236201 0 0 1 1 0 0 forward_v I I I I #
coedge $-1 $579 $699 $688 $700 forward $479 $-1 #
coedge $-1 $701 $487 $512 $625 reversed $372 $-1 #
coedge $-1 $487 $701 $488 $608 forward $372 $-1 #
coedge $-1 $489 $488 $702 $703 reversed $261 $-1 #
edge $-1 $704 0 $609 29.133858267716601 $606 $705 forward 7 unknown #
vertex $-1 $608 $706 #
straight-curve $-1 -34.251968503936887 -41.732283464567004 -9.8425196850393881 1 0 0 I I #
coedge $-1 $702 $496 $492 $612 forward $389 $-1 #
edge $707 $498 0 $613 1.5707963267948966 $492 $708 forward 7 unknown #
vertex $-1 $612 $709 #
straight-curve $-1 -81.496062992125815 -41.732283464567004 19.291338582677202 0 0 -1 I I #
point $-1 -81.496062992125815 -41.732283464567004 -9.8425196850393988 #
convexity-sys-attrib $-1 $-1 $-1 $497 #
straight-curve $-1 -93.307086614173102 -7.1054273576010019e-015 19.291338582677213 0 -1 0 I I #
point $-1 -93.307086614173102 -29.921259842519802 19.291338582677202 #
coedge $-1 $504 $702 $701 $710 forward $389 $-1 #
coedge $-1 $512 $505 $504 $621 reversed $485 $-1 #
edge $711 $712 -29.921259842519795 $508 29.921259842519994 $620 $713 forward 7 unknown #
straight-curve $-1 24.803149606298987 29.921259842519987 19.291338582677202 0 0 -1 I I #
point $-1 24.803149606298987 29.921259842519987 19.291338582677202 #
ellipse-curve $-1 12.992125984251999 -29.921259842519802 -9.8425196850393881 0 0 1 -11.8110236220472 0 0 1 I I #
edge $-1 $712 0 $513 29.133858267716601 $512 $714 forward 7 unknown #
point $-1 24.803149606298987 -29.921259842519802 -9.8425196850393988 #
face $-1 $429 $548 $23 $-1 $715 forward single #
loop $-1 $-1 $545 $517 #
plane-surface $-1 -81.496062992125815 -41.732283464567004 -9.8425196850393988 0 -1 0 0 0 -1 forward_v I I I I #
coedge $-1 $716 $717 $544 $652 forward $518 $-1 #
coedge $-1 $718 $520 $717 $719 reversed $405 $-1 #
coedge $-1 $520 $718 $521 $636 forward $405 $-1 #
coedge $-1 $523 $544 $520 $634 reversed $194 $-1 #
edge $-1 $637 -29.921259842520101 $720 29.921259842519696 $520 $721 forward 7 unknown #
coedge $-1 $522 $521 $722 $723 reversed $288 $-1 #
edge $-1 $724 0 $637 19.685039370078702 $632 $725 forward 7 unknown #
vertex $-1 $636 $726 #
ellipse-curve $-1 -81.496062992125815 29.921259842519987 -29.527559055118108 0 0 1 -11.8110236220472 0 0 1 I I #
coedge $-1 $722 $529 $525 $640 forward $423 $-1 #
edge $727 $531 -20.12398846644318 $641 66.929133858267633 $525 $728 forward 7 unknown #
vertex $-1 $640 $729 #
straight-curve $-1 -81.496062992125815 41.732283464566997 -9.8425196850393988 0 0 -1 I I #
point $-1 -81.496062992125815 41.732283464566997 -29.5275590551181 #
convexity-sys-attrib $-1 $-1 $-1 $530 #
ellipse-curve $-1 24.803149606298987 37.598425196850002 -9.8425196850394059 0 0 1 -19.685039370078702 0 0 1 I I #
point $-1 5.5570593325849984 41.73228346456699 -9.8425196850393988 #
coedge $-1 $537 $730 $731 $732 forward $423 $-1 #
coedge $-1 $547 $538 $537 $649 reversed $548 $-1 #
edge $733 $734 0.21157495975810303 $541 1.5707963267948966 $648 $735 forward 7 unknown #
straight-curve $-1 24.803149606298987 -57.283464566929204 -9.8425196850393988 0 0 -1 I I #
point $-1 24.803149606298987 -57.283464566929204 -9.8425196850393988 #
edge $-1 $720 0 $655 1.5707963267948966 $630 $736 forward 7 unknown #
coedge $-1 $731 $545 $547 $657 reversed $628 $-1 #
coedge $-1 $545 $731 $716 $737 forward $628 $-1 #
vertex $-1 $737 $738 #
straight-curve $-1 -14.566929133858181 -41.732283464567004 -29.527559055118108 1 0 0 I I #
edge $-1 $734 0 $549 19.685039370078702 $547 $739 forward 7 unknown #
point $-1 5.5570593325849984 -41.732283464567004 -29.5275590551181 #
edge $-1 $660 -0.78539816339744828 $662 0.78539816339744828 $554 $740 forward 7 unknown #
vertex $-1 $556 $741 #
straight-curve $-1 10.2362204724409 128.14960629921299 48.818897637795303 0 0 -1 I I #
vertex $-1 $557 $742 #
straight-curve $-1 22.0472440944882 139.96062992125999 48.818897637795303 0 0 1 I I #
point $-1 10.2362204724409 128.14960629921299 48.818897637795303 #
coedge $-1 $560 $743 $562 $667 reversed $322 $-1 #
straight-curve $-1 69.291338582677199 139.96062992125999 0 -1 0 0 I I #
edge $-1 $563 -0.6796106835183866 $744 0.67961068351838272 $562 $745 forward 7 unknown #
point $-1 109.10036641919901 139.96062992125999 0 #
coedge $-1 $746 $566 $747 $748 reversed $322 $-1 #
coedge $-1 $689 $749 $566 $671 forward $678 $-1 #
edge $-1 $750 -98.228346456692904 $672 -57.283464566929105 $566 $751 forward 7 unknown #
vertex $-1 $691 $752 #
straight-curve $-1 177.55905511811 40.944881889763799 0 1 0 0 I I #
point $-1 128.34645669291299 40.944881889763799 0 #
straight-curve $-1 10.2362204724409 98.228346456692904 0 0 -1 0 I I #
point $-1 10.2362204724409 68.307086614173201 0 #
model_id-kcp-attrib $-1 $-1 $-1 $576 1 987434290 218 -86376447 21 #
loop $-1 $-1 $689 $576 #
plane-surface $-1 207.08661417322801 98.228346456692904 0 1 0 0 0 0 -1 forward_v I I I I #
coedge $-1 $699 $579 $581 $683 reversed $479 $-1 #
vertex $-1 $580 $753 #
straight-curve $-1 177.55905511811 155.51181102362199 19.685039370078702 1 0 0 I I #
edge $-1 $744 -19.685039370078702 $582 0 $581 $754 forward 7 unknown #
point $-1 128.34645669291299 155.51181102362199 19.685039370078702 #
straight-curve $-1 10.2362204724409 68.307086614173201 48.818897637795303 0 0 1 I I #
model_id-kcp-attrib $-1 $-1 $-1 $589 1 987434290 218 -86376447 13 #
plane-surface $-1 177.55905511811 40.944881889763799 19.685039370078702 0 -1 0 0 0 -1 forward_v I I I I #
coedge $-1 $755 $591 $604 $700 reversed $678 $-1 #
coedge $-1 $591 $670 $593 $691 reversed $678 $-1 #
straight-curve $-1 207.08661417322801 98.228346456692904 19.685039370078702 0 -1 0 I I #
edge $-1 $596 -19.685039370078702 $672 0 $593 $756 forward 7 unknown #
point $-1 207.08661417322801 40.944881889763799 19.685039370078702 #
straight-curve $-1 128.34645669291299 40.944881889763799 19.685039370078702 0 0 -1 I I #
model_id-kcp-attrib $-1 $-1 $-1 $601 1 987434290 218 -86376447 17 #
face $757 $758 $759 $8 $-1 $760 forward single #
loop $-1 $-1 $761 $601 #
plane-surface $-1 103.54330708661401 0 0 0 -1 0 0 0 -1 forward_v I I I I #
coedge $-1 $762 $763 $764 $765 reversed $602 $-1 #
coedge $-1 $604 $680 $743 $766 forward $479 $-1 #
edge $-1 $767 0 $681 19.685039370078702 $604 $768 forward 7 unknown #
coedge $-1 $606 $605 $619 $710 reversed $372 $-1 #
coedge $-1 $619 $611 $607 $703 forward $389 $-1 #
edge $769 $613 -47.244094488188928 $704 47.244094488188885 $607 $770 forward 7 unknown #
vertex $-1 $703 $771 #
straight-curve $-1 12.992125984251999 -41.732283464567004 19.291338582677202 0 0 -1 I I #
point $-1 12.992125984251999 -41.732283464567004 -9.8425196850393988 #
convexity-sys-attrib $-1 $-1 $-1 $612 #
ellipse-curve $-1 -81.496062992125815 -29.921259842519802 19.291338582677213 0 0 1 -11.8110236220472 0 0 1 I I #
point $-1 -81.496062992125815 -41.732283464567004 19.291338582677202 #
edge $772 $704 1.5707963267948966 $712 3.1415926535897931 $701 $773 forward 7 unknown #
convexity-sys-attrib $-1 $-1 $-1 $621 #
vertex $-1 $710 $774 #
straight-curve $-1 24.803149606298987 -7.1054273576010019e-015 19.291338582677213 0 1 0 I I #
straight-curve $-1 24.803149606298987 -29.921259842519802 19.291338582677202 0 0 -1 I I #
cone-surface $-1 24.803149606298987 -37.598425196850506 -9.8425196850394059 0 0 -1 -19.685039370078702 0 0 1 I I 0 1 19.685039370078702 forward I I I I #
coedge $-1 $775 $630 $654 $737 reversed $518 $-1 #
coedge $-1 $630 $775 $631 $719 forward $518 $-1 #
coedge $-1 $632 $631 $776 $777 reversed $405 $-1 #
edge $-1 $778 0 $720 19.685039370078702 $717 $779 forward 7 unknown #
vertex $-1 $719 $780 #
straight-curve $-1 -93.307086614173102 -1.0658141036401503e-013 -29.527559055118108 0 -1 0 I I #
coedge $-1 $776 $639 $635 $723 forward $423 $-1 #
edge $781 $641 -1.5707963267948966 $724 0 $635 $782 forward 7 unknown #
vertex $-1 $723 $783 #
straight-curve $-1 -93.307086614173102 29.921259842519994 -9.8425196850393988 0 0 -1 I I #
point $-1 -93.307086614173102 29.921259842519994 -29.5275590551181 #
convexity-sys-attrib $-1 $-1 $-1 $640 #
straight-curve $-1 -14.566929133858181 41.73228346456699 -9.8425196850394059 -1 0 0 I I #
point $-1 -81.496062992125815 41.73228346456699 -9.8425196850393988 #
coedge $-1 $647 $776 $775 $784 forward $423 $-1 #
coedge $-1 $654 $653 $647 $732 reversed $628 $-1 #
edge $785 $786 -66.929133858267633 $734 20.12398846644318 $731 $787 forward 7 unknown #
convexity-sys-attrib $-1 $-1 $-1 $649 #
vertex $-1 $732 $788 #
ellipse-curve $-1 24.803149606298987 -37.598425196850506 -9.8425196850394059 0 0 1 -19.685039370078702 0 0 1 I I #
ellipse-curve $-1 -81.496062992125815 -29.921259842519802 -29.527559055118108 0 0 1 -11.8110236220472 0 0 1 I I #
edge $-1 $786 0 $655 19.685039370078702 $654 $789 forward 7 unknown #
point $-1 -81.496062992125815 -41.732283464567004 -29.5275590551181 #
straight-curve $-1 5.5570593325849984 -41.732283464567004 -9.8425196850393988 0 0 -1 I I #
ellipse-curve $-1 22.0472440944882 128.14960629921299 0 0 0 -1 -8.3516548959040708 8.3516548959040708 0 1 I I #
point $-1 10.2362204724409 128.14960629921299 0 #
point $-1 22.0472440944882 139.96062992125999 0 #
coedge $-1 $665 $790 $699 $766 reversed $322 $-1 #
vertex $-1 $667 $791 #
ellipse-curve $-1 128.34645669291299 135.82677165354301 0 0 0 -1 -12.3718554035199 15.311367309157699 0 1 I I #
coedge $-1 $792 $669 $793 $794 reversed $322 $-1 #
coedge $-1 $761 $795 $669 $748 forward $696 $-1 #
edge $796 $797 -103.54330708661401 $750 103.54330708661401 $747 $798 forward 7 unknown #
coedge $-1 $670 $799 $761 $800 reversed $678 $-1 #
vertex $-1 $800 $801 #
straight-curve $-1 207.08661417322801 98.228346456692904 0 0 1 0 I I #
point $-1 207.08661417322801 40.944881889763799 0 #
point $-1 207.08661417322801 155.51181102362199 19.685039370078702 #
straight-curve $-1 128.34645669291299 155.51181102362199 19.685039370078702 0 0 1 I I #
coedge $-1 $802 $688 $790 $803 forward $678 $-1 #
straight-curve $-1 207.08661417322801 40.944881889763799 0 0 0 -1 I I #
model_id-kcp-attrib $-1 $-1 $-1 $695 1 987434290 218 -86376447 18 #
face $804 $453 $805 $8 $-1 $806 forward single #
loop $-1 $-1 $807 $695 #
plane-surface $-1 0 98.228346456692904 0 -1 0 0 0 0 1 forward_v I I I I #
coedge $-1 $764 $747 $749 $800 forward $696 $-1 #
coedge $-1 $808 $698 $799 $809 reversed $602 $-1 #
coedge $-1 $698 $808 $810 $811 reversed $602 $-1 #
coedge $-1 $795 $761 $698 $765 forward $696 $-1 #
edge $812 $813 -103.54330708661401 $814 103.54330708661401 $698 $815 forward 7 unknown #
edge $-1 $744 24.803149606298987 $767 103.54330708661401 $699 $816 forward 7 unknown #
vertex $-1 $700 $817 #
straight-curve $-1 207.08661417322801 155.51181102362199 0 0 0 1 I I #
convexity-sys-attrib $-1 $-1 $-1 $703 #
straight-curve $-1 -34.251968503936887 -41.732283464567004 19.291338582677213 1 0 0 I I #
point $-1 12.992125984251999 -41.732283464567004 19.291338582677202 #
convexity-sys-attrib $-1 $-1 $-1 $710 #
ellipse-curve $-1 12.992125984251999 -29.921259842519802 19.291338582677213 0 0 1 -11.8110236220472 0 0 1 I I #
point $-1 24.803149606298987 -29.921259842519802 19.291338582677202 #
coedge $-1 $717 $716 $730 $784 reversed $518 $-1 #
coedge $-1 $730 $722 $718 $777 forward $423 $-1 #
edge $818 $724 -29.921259842520094 $778 29.921259842519696 $718 $819 forward 7 unknown #
vertex $-1 $777 $820 #
straight-curve $-1 -93.307086614173102 -29.921259842519802 -9.8425196850393988 0 0 -1 I I #
point $-1 -93.307086614173102 -29.921259842519802 -29.5275590551181 #
convexity-sys-attrib $-1 $-1 $-1 $723 #
ellipse-curve $-1 -81.496062992125815 29.921259842519987 -9.8425196850394059 0 0 1 -11.8110236220472 0 0 1 I I #
point $-1 -93.307086614173102 29.921259842519987 -9.8425196850393988 #
edge $821 $778 0 $786 1.5707963267948966 $775 $822 forward 7 unknown #
convexity-sys-attrib $-1 $-1 $-1 $732 #
vertex $-1 $784 $823 #
straight-curve $-1 -14.566929133858181 -41.732283464567004 -9.8425196850394059 1 0 0 I I #
point $-1 5.5570593325849984 -41.732283464567004 -9.8425196850393988 #
straight-curve $-1 -81.496062992125815 -41.732283464567004 -9.8425196850393988 0 0 -1 I I #
coedge $-1 $743 $792 $755 $803 reversed $322 $-1 #
point $-1 128.34645669291299 155.51181102362199 0 #
coedge $-1 $790 $746 $824 $825 reversed $322 $-1 #
coedge $-1 $807 $826 $746 $794 forward $759 $-1 #
edge $827 $828 -98.228346456693103 $797 98.228346456692904 $793 $829 forward 7 unknown #
coedge $-1 $747 $764 $807 $830 reversed $696 $-1 #
attrib_edge_convexity-kcp-attrib $-1 $831 $-1 $748 1 #
vertex $-1 $830 $832 #
straight-curve $-1 103.54330708661401 0 0 1 0 0 I I #
coedge $-1 $749 $802 $762 $809 forward $678 $-1 #
edge $833 $750 0 $813 59.055118110236201 $761 $834 forward 7 unknown #
point $-1 207.08661417322801 0 0 #
coedge $-1 $799 $755 $835 $836 forward $678 $-1 #
edge $-1 $767 57.283464566929084 $837 98.228346456693103 $790 $838 forward 7 unknown #
model_id-kcp-attrib $-1 $-1 $-1 $758 1 987434290 218 -86376447 19 #
loop $-1 $-1 $839 $758 #
plane-surface $-1 103.54330708661401 196.45669291338601 0 0 1 0 0 0 1 forward_v I I I I #
coedge $-1 $810 $793 $795 $830 forward $759 $-1 #
coedge $-1 $763 $762 $840 $841 reversed $602 $-1 #
edge $842 $843 -98.228346456693103 $813 98.228346456692904 $762 $844 forward 7 unknown #
coedge $-1 $826 $807 $763 $811 forward $759 $-1 #
edge $845 $814 -98.228346456692904 $846 98.228346456693103 $763 $847 forward 7 unknown #
attrib_edge_convexity-kcp-attrib $-1 $848 $-1 $765 1 #
vertex $-1 $765 $849 #
vertex $-1 $765 $850 #
straight-curve $-1 103.54330708661401 0 59.055118110236201 -1 0 0 I I #
straight-curve $-1 103.54330708661401 155.51181102362199 0 1 0 0 I I #
point $-1 207.08661417322801 155.51181102362199 0 #
convexity-sys-attrib $-1 $-1 $-1 $777 #
straight-curve $-1 -93.307086614173102 -1.0658141036401503e-013 -9.8425196850394059 0 -1 0 I I #
point $-1 -93.307086614173102 -29.921259842519802 -9.8425196850393988 #
convexity-sys-attrib $-1 $-1 $-1 $784 #
ellipse-curve $-1 -81.496062992125815 -29.921259842519802 -9.8425196850394059 0 0 1 -11.8110236220472 0 0 1 I I #
point $-1 -81.496062992125815 -41.732283464567004 -9.8425196850393988 #
coedge $-1 $839 $835 $792 $825 forward $805 $-1 #
edge $-1 $837 -103.54330708661401 $828 103.54330708661401 $824 $851 forward 7 unknown #
coedge $-1 $793 $810 $839 $852 reversed $759 $-1 #
attrib_edge_convexity-kcp-attrib $-1 $853 $-1 $794 1 #
vertex $-1 $852 $854 #
straight-curve $-1 0 98.228346456692904 0 0 -1 0 I I #
edge $855 $797 0 $814 59.055118110236201 $795 $856 forward 7 unknown #
convexity-sys-attrib $-1 $-1 $796 $748 #
point $-1 0 0 0 #
attrib_edge_convexity-kcp-attrib $-1 $857 $-1 $800 1 #
straight-curve $-1 207.08661417322801 0 0 0 0 1 I I #
coedge $-1 $824 $840 $802 $836 reversed $805 $-1 #
edge $-1 $837 0 $843 59.055118110236201 $835 $858 forward 7 unknown #
vertex $-1 $836 $859 #
straight-curve $-1 207.08661417322801 98.228346456692904 0 0 1 0 I I #
coedge $-1 $840 $824 $826 $852 forward $805 $-1 #
coedge $-1 $835 $839 $808 $841 forward $805 $-1 #
edge $860 $846 -103.54330708661401 $843 103.54330708661401 $808 $861 forward 7 unknown #
attrib_edge_convexity-kcp-attrib $-1 $862 $-1 $809 1 #
vertex $-1 $809 $863 #
straight-curve $-1 207.08661417322801 98.228346456692904 59.055118110236201 0 -1 0 I I #
attrib_edge_convexity-kcp-attrib $-1 $864 $-1 $811 1 #
vertex $-1 $841 $865 #
straight-curve $-1 0 98.228346456692904 59.055118110236201 0 1 0 I I #
convexity-sys-attrib $-1 $-1 $812 $765 #
point $-1 207.08661417322801 0 59.055118110236201 #
point $-1 0 0 59.055118110236201 #
straight-curve $-1 103.54330708661401 196.45669291338601 0 -1 0 0 I I #
edge $866 $828 0 $846 59.055118110236201 $826 $867 forward 7 unknown #
convexity-sys-attrib $-1 $-1 $827 $794 #
point $-1 0 196.45669291338601 0 #
attrib_edge_convexity-kcp-attrib $-1 $868 $-1 $830 1 #
straight-curve $-1 0 0 0 0 0 1 I I #
convexity-sys-attrib $-1 $-1 $833 $800 #
straight-curve $-1 207.08661417322801 196.45669291338601 0 0 0 1 I I #
point $-1 207.08661417322801 196.45669291338601 0 #
attrib_edge_convexity-kcp-attrib $-1 $869 $-1 $841 1 #
straight-curve $-1 103.54330708661401 196.45669291338601 59.055118110236201 1 0 0 I I #
convexity-sys-attrib $-1 $-1 $842 $809 #
point $-1 207.08661417322801 196.45669291338601 59.055118110236201 #
convexity-sys-attrib $-1 $-1 $845 $811 #
point $-1 0 196.45669291338601 59.055118110236201 #
attrib_edge_convexity-kcp-attrib $-1 $870 $-1 $852 1 #
straight-curve $-1 0 196.45669291338601 0 0 0 1 I I #
convexity-sys-attrib $-1 $-1 $855 $830 #
convexity-sys-attrib $-1 $-1 $860 $841 #
convexity-sys-attrib $-1 $-1 $866 $852 #
End-of-ACIS-data 