700 0 2 0           
24 FBMach with ACIS - 7.0.3 13 ACIS 7.0.3 NT 24 Tue May 14 12:15:10 2002 
1 9.9999999999999995e-007 1e-010 
body $2 -1 $-1 $3 $-1 $4 #
bdycol-kcp $-1 -1 1 3 $5 $6 $7 #
model_id-kcp-attrib $-1 -1 $-1 $-1 $0 1 1021392910 1021392910 -1731592191 1 #
lump $-1 -1 $-1 $-1 $8 $0 #
transform $-1 -1 1 0 0 0 1 0 0 0 1 0 0 0 1 rotate no_reflect no_shear #
body $9 -1 $-1 $10 $-1 $11 #
body $12 -1 $-1 $13 $-1 $14 #
body $15 -1 $-1 $16 $-1 $17 #
shell $-1 -1 $-1 $-1 $-1 $18 $-1 $3 #
model_id-kcp-attrib $-1 -1 $-1 $-1 $5 1 1021392910 1021392910 -1731592190 1 #
lump $-1 -1 $-1 $-1 $19 $5 #
transform $-1 -1 1 0 0 0 1 0 0 0 1 0 0 0 1 no_rotate no_reflect no_shear #
rgb_color-st-attrib $-1 -1 $20 $-1 $6 0.5 1 1 #
lump $-1 -1 $-1 $-1 $21 $6 #
transform $-1 -1 -1 0 -1.2246063538223773e-016 0 1 0 1.2246063538223773e-016 0 -1 0 0 0 1 rotate no_reflect no_shear #
rgb_color-st-attrib $-1 -1 $22 $-1 $7 0.5 1 1 #
lump $-1 -1 $-1 $-1 $23 $7 #
transform $-1 -1 1 0 0 0 1 0 0 0 1 0 0 0 1 no_rotate no_reflect no_shear #
face $24 -1 $-1 $25 $26 $8 $-1 $27 reversed single #
shell $-1 -1 $-1 $-1 $-1 $28 $-1 $10 #
model_id-kcp-attrib $-1 -1 $-1 $12 $6 1 1021392910 1021392910 -1730215933 1 #
shell $-1 -1 $-1 $-1 $-1 $29 $-1 $13 #
model_id-kcp-attrib $-1 -1 $-1 $15 $7 1 1021392910 1021392910 -1728249852 1 #
shell $-1 -1 $-1 $-1 $-1 $30 $-1 $16 #
model_id-kcp-attrib $-1 -1 $31 $-1 $18 1 1021392910 1021392910 -1731592191 2 #
face $32 -1 $-1 $33 $34 $8 $-1 $35 forward single #
loop $36 -1 $-1 $37 $38 $18 #
cone-surface $39 -1 $-1 0 0 0 0 0 -1 0 13.87129 0 1 I I 0 1 13.87129 forward I I I I #
face $40 -1 $-1 $41 $42 $19 $-1 $43 forward single #
face $-1 -1 $-1 $44 $45 $21 $-1 $46 forward single #
face $-1 -1 $-1 $47 $48 $23 $-1 $49 reversed single #
face_name-twe-attrib $-1 -1 $-1 $24 $18 1 #
model_id-kcp-attrib $-1 -1 $50 $-1 $25 1 1021392910 1021392910 -1731592191 3 #
face $51 -1 $-1 $52 $53 $8 $-1 $54 forward single #
loop $55 -1 $-1 $56 $57 $25 #
cone-surface $58 -1 $-1 0 0 0 0 0 1 15.012499999999999 0 0 1 I I 0 1 15.012499999999999 forward I I I I #
model_id-kcp-attrib $-1 -1 $59 $-1 $26 1 1021392910 1021392910 -1731592191 8 #
loop $60 -1 $-1 $-1 $61 $18 #
coedge $-1 -1 $-1 $38 $38 $62 $63 reversed $26 $-1 #
surf-twe-attrib $-1 -1 $-1 $-1 $27 4 #
model_id-kcp-attrib $-1 -1 $-1 $-1 $28 1 1021392910 1021392910 -1731592190 3 #
face $64 -1 $-1 $65 $66 $19 $-1 $67 reversed single #
loop $-1 -1 $-1 $-1 $68 $28 #
plane-surface $-1 -1 $-1 0 0 0.56899999999999995 0 0 1 1 0 0 forward_v I I I I #
face $-1 -1 $-1 $69 $70 $21 $-1 $71 forward single #
loop $-1 -1 $-1 $72 $73 $29 #
cone-surface $-1 -1 $-1 0 0 0 0 0 1 13.87129 0 0 1 I I 0 1 13.87129 forward I I I I #
face $-1 -1 $-1 $74 $75 $23 $-1 $49 reversed single #
loop $-1 -1 $-1 $-1 $76 $30 #
cone-surface $-1 -1 $-1 -5.6284141465887087e-032 0 -0.56899999999999995 0 0 -1 15.012499999999999 0 0 1 I I 0 1 15.012499999999999 forward I I I I #
face_name-twe-attrib $-1 -1 $-1 $32 $25 2 #
model_id-kcp-attrib $-1 -1 $77 $-1 $33 1 1021392910 1021392910 -1731592191 4 #
face $78 -1 $-1 $-1 $79 $8 $-1 $80 forward single #
loop $81 -1 $-1 $82 $83 $33 #
plane-surface $84 -1 $-1 0 0 -0.56899999999999995 0 0 -1 -1 0 0 forward_v I I I I #
loop_type-twe-attrib $-1 -1 $-1 $-1 $34 0 #
loop $85 -1 $-1 $-1 $86 $25 #
coedge $-1 -1 $-1 $57 $57 $87 $88 reversed $34 $-1 #
surf-twe-attrib $-1 -1 $-1 $-1 $35 6 #
loop_type-twe-attrib $-1 -1 $-1 $36 $26 0 #
model_id-kcp-attrib $-1 -1 $89 $-1 $37 1 1021392910 1021392910 -1731592191 9 #
coedge $-1 -1 $-1 $61 $61 $83 $90 reversed $37 $-1 #
coedge $-1 -1 $-1 $62 $62 $38 $63 forward $79 $-1 #
edge $91 -1 $-1 $92 0 $92 6.2831853071795862 $62 $93 forward @7 unknown #
model_id-kcp-attrib $-1 -1 $-1 $-1 $41 1 1021392910 1021392910 -1731592190 2 #
face $-1 -1 $-1 $94 $95 $19 $-1 $96 reversed single #
loop $-1 -1 $-1 $-1 $97 $41 #
plane-surface $-1 -1 $-1 0 0 -0.56899999999999995 0 0 1 1 0 0 forward_v I I I I #
coedge $-1 -1 $-1 $98 $99 $100 $101 forward $42 $-1 #
face $-1 -1 $-1 $-1 $102 $21 $-1 $103 forward single #
loop $-1 -1 $-1 $-1 $104 $44 #
plane-surface $-1 -1 $-1 0 0 -0.56900000000000162 0 0 -1 -1 0 0 forward_v I I I I #
loop $-1 -1 $-1 $-1 $105 $29 #
coedge $-1 -1 $-1 $73 $73 $104 $106 reversed $45 $-1 #
face $-1 -1 $-1 $107 $108 $23 $-1 $49 reversed single #
loop $-1 -1 $-1 $-1 $109 $47 #
coedge $-1 -1 $-1 $110 $111 $112 $113 forward $48 $-1 #
face_name-twe-attrib $-1 -1 $-1 $51 $33 3 #
model_id-kcp-attrib $-1 -1 $114 $-1 $52 1 1021392910 1021392910 -1731592191 5 #
loop $115 -1 $-1 $116 $62 $52 #
plane-surface $117 -1 $-1 0 0 0.56899999999999995 0 0 1 1 0 0 forward_v I I I I #
model_id-kcp-attrib $-1 -1 $118 $-1 $53 1 1021392910 1021392910 -1731592191 11 #
loop $119 -1 $-1 $-1 $87 $33 #
coedge $-1 -1 $-1 $83 $83 $61 $90 forward $53 $-1 #
surf-twe-attrib $-1 -1 $-1 $-1 $54 10 #
loop_type-twe-attrib $-1 -1 $-1 $-1 $56 1 #
coedge $-1 -1 $-1 $86 $86 $120 $121 reversed $56 $-1 #
coedge $-1 -1 $-1 $87 $87 $57 $88 forward $82 $-1 #
edge $122 -1 $-1 $123 0 $123 6.2831853071795862 $87 $124 forward @7 unknown #
loop_type-twe-attrib $-1 -1 $-1 $60 $37 1 #
edge $125 -1 $-1 $126 0 $126 6.2831853071795862 $83 $127 forward @7 unknown #
attrib_edge_convexity-kcp-attrib $-1 -1 $128 $-1 $63 1 #
vertex $129 -1 $-1 $63 $130 #
ellipse-curve $131 -1 $-1 0 0 0.56899999999999995 0 0 -1 0 13.87129 0 1 I I #
face $-1 -1 $-1 $132 $133 $19 $-1 $134 reversed single #
loop $-1 -1 $-1 $-1 $135 $65 #
plane-surface $-1 -1 $-1 0 -15.012499999999999 0 0 1 0 0 0 1 forward_v I I I I #
coedge $-1 -1 $-1 $136 $137 $138 $139 forward $66 $-1 #
coedge $-1 -1 $-1 $140 $68 $141 $142 forward $42 $-1 #
coedge $-1 -1 $-1 $68 $140 $143 $144 forward $42 $-1 #
coedge $-1 -1 $-1 $145 $146 $68 $101 reversed $147 $-1 #
edge $-1 -1 $-1 $148 -15.012499999999999 $149 15.012499999999999 $100 $150 forward @7 unknown #
loop $-1 -1 $-1 $-1 $151 $69 #
plane-surface $-1 -1 $-1 0 0 0.56900000000000162 0 0 1 1 0 0 forward_v I I I I #
coedge $-1 -1 $-1 $104 $104 $73 $106 forward $70 $-1 #
coedge $-1 -1 $-1 $105 $105 $151 $152 reversed $72 $-1 #
edge $-1 -1 $-1 $153 0 $153 6.2831853071795862 $104 $154 forward @7 unknown #
face $-1 -1 $-1 $155 $156 $23 $-1 $49 reversed single #
loop $-1 -1 $-1 $-1 $157 $74 #
coedge $-1 -1 $-1 $158 $112 $159 $160 reversed $75 $-1 #
coedge $-1 -1 $-1 $161 $76 $162 $163 reversed $48 $-1 #
coedge $-1 -1 $-1 $76 $161 $164 $165 reversed $48 $-1 #
coedge $-1 -1 $-1 $109 $166 $167 $113 reversed $75 $-1 #
edge $-1 -1 $-1 $168 -1.1379999999999999 $169 0 $167 $170 forward @7 unknown #
face_name-twe-attrib $-1 -1 $-1 $78 $52 4 #
model_id-kcp-attrib $-1 -1 $171 $-1 $79 1 1021392910 1021392910 -1731592191 10 #
loop $172 -1 $-1 $-1 $120 $52 #
surf-twe-attrib $-1 -1 $-1 $-1 $80 18 #
loop_type-twe-attrib $-1 -1 $-1 $81 $53 1 #
loop_type-twe-attrib $-1 -1 $-1 $-1 $82 0 #
coedge $-1 -1 $-1 $120 $120 $86 $121 forward $116 $-1 #
edge $173 -1 $-1 $174 0 $174 6.2831853071795862 $120 $175 forward @7 unknown #
attrib_edge_convexity-kcp-attrib $-1 -1 $176 $-1 $88 1 #
vertex $-1 -1 $-1 $88 $177 #
ellipse-curve $178 -1 $-1 0 0 -0.56899999999999995 0 0 -1 15.012499999999999 0 0 1 I I #
attrib_edge_convexity-kcp-attrib $-1 -1 $179 $-1 $90 1 #
vertex $180 -1 $-1 $90 $181 #
ellipse-curve $182 -1 $-1 0 0 -0.56899999999999995 0 0 1 0 13.87129 0 1 I I #
convexity-sys-attrib $-1 -1 $183 $91 $63 #
model_id-kcp-attrib $-1 -1 $-1 $-1 $92 1 1021392910 1021392910 -1731592191 12 #
point $-1 -1 $-1 0 13.87129 0.56899999999999995 #
cur-twe-attrib $-1 -1 $-1 $-1 $93 28 #
face $-1 -1 $-1 $184 $185 $19 $-1 $186 reversed single #
loop $-1 -1 $-1 $-1 $187 $94 #
plane-surface $-1 -1 $-1 -15.012499999999999 0 0 1 0 0 0 0 -1 forward_v I I I I #
coedge $-1 -1 $-1 $188 $143 $189 $190 forward $95 $-1 #
coedge $-1 -1 $-1 $191 $97 $188 $192 forward $66 $-1 #
coedge $-1 -1 $-1 $97 $191 $193 $194 forward $66 $-1 #
coedge $-1 -1 $-1 $146 $145 $97 $139 reversed $147 $-1 #
edge $-1 -1 $-1 $195 -15.012499999999999 $196 15.012499999999999 $138 $197 forward @7 unknown #
coedge $-1 -1 $-1 $99 $98 $198 $199 forward $42 $-1 #
coedge $-1 -1 $-1 $200 $201 $98 $142 reversed $185 $-1 #
edge $-1 -1 $-1 $149 -15.012499999999999 $202 15.012499999999999 $141 $203 forward @7 unknown #
coedge $-1 -1 $-1 $135 $204 $99 $144 reversed $95 $-1 #
edge $-1 -1 $-1 $205 -15.012499999999999 $148 15.012499999999999 $143 $206 forward @7 unknown #
coedge $-1 -1 $-1 $138 $100 $204 $207 forward $147 $-1 #
coedge $-1 -1 $-1 $100 $138 $200 $208 reversed $147 $-1 #
loop $-1 -1 $-1 $-1 $145 $184 #
vertex $-1 -1 $-1 $101 $209 #
vertex $-1 -1 $-1 $101 $210 #
straight-curve $-1 -1 $-1 15.012499999999999 0 0.56899999999999995 0 1 0 I I #
coedge $-1 -1 $-1 $151 $151 $105 $152 forward $102 $-1 #
edge $-1 -1 $-1 $211 0 $211 6.2831853071795862 $151 $212 forward @7 unknown #
vertex $-1 -1 $-1 $106 $213 #
ellipse-curve $-1 -1 $-1 0 0 -0.56900000000000162 0 0 -1 13.87129 0 0 1 I I #
face $-1 -1 $-1 $214 $215 $23 $-1 $216 reversed single #
loop $-1 -1 $-1 $-1 $217 $107 #
coedge $-1 -1 $-1 $218 $219 $220 $221 reversed $108 $-1 #
coedge $-1 -1 $-1 $166 $109 $222 $223 forward $75 $-1 #
coedge $-1 -1 $-1 $224 $225 $109 $160 forward $226 $-1 #
edge $-1 -1 $-1 $227 -3.1415926535897931 $168 -1.5707963267948966 $159 $228 forward @7 unknown #
coedge $-1 -1 $-1 $111 $110 $229 $230 reversed $48 $-1 #
coedge $-1 -1 $-1 $231 $232 $110 $163 forward $233 $-1 #
edge $-1 -1 $-1 $234 0 $169 1.5707963267948966 $162 $235 forward @7 unknown #
coedge $-1 -1 $-1 $236 $237 $111 $165 forward $238 $-1 #
edge $-1 -1 $-1 $168 -1.5707963267948966 $239 0 $164 $228 forward @7 unknown #
coedge $-1 -1 $-1 $112 $158 $240 $241 reversed $75 $-1 #
coedge $-1 -1 $-1 $242 $243 $244 $113 forward $245 $-1 #
vertex $-1 -1 $-1 $246 $247 #
vertex $-1 -1 $-1 $248 $249 #
straight-curve $-1 -1 $-1 -5.6284141465887087e-032 15.012499999999999 -0.56899999999999995 0 0 -1 I I #
loop_type-twe-attrib $-1 -1 $-1 $115 $79 1 #
loop_type-twe-attrib $-1 -1 $-1 $-1 $116 0 #
edge_name-twe-attrib $-1 -1 $-1 $-1 $121 4 8704 #
vertex $-1 -1 $-1 $121 $250 #
ellipse-curve $251 -1 $-1 0 0 0.56899999999999995 0 0 1 15.012499999999999 0 0 1 I I #
convexity-sys-attrib $-1 -1 $252 $122 $88 #
point $-1 -1 $-1 15.012499999999999 0 -0.56899999999999995 #
cur-twe-attrib $-1 -1 $-1 $-1 $124 39 #
convexity-sys-attrib $-1 -1 $253 $125 $90 #
model_id-kcp-attrib $-1 -1 $-1 $-1 $126 1 1021392910 1021392910 -1731592191 13 #
point $-1 -1 $-1 0 13.87129 -0.56899999999999995 #
cur-twe-attrib $-1 -1 $-1 $-1 $127 40 #
edge_name-twe-attrib $-1 -1 $-1 $128 $63 3 8704 #
face $-1 -1 $-1 $-1 $147 $19 $-1 $254 reversed single #
loop $-1 -1 $-1 $-1 $200 $132 #
plane-surface $-1 -1 $-1 0 15.012499999999999 0 0 -1 0 0 0 -1 forward_v I I I I #
coedge $-1 -1 $-1 $255 $198 $201 $256 forward $133 $-1 #
coedge $-1 -1 $-1 $204 $135 $136 $192 reversed $95 $-1 #
coedge $-1 -1 $-1 $198 $255 $135 $190 reversed $133 $-1 #
edge $-1 -1 $-1 $205 -0.56899999999999995 $257 0.56899999999999995 $189 $258 forward @7 unknown #
coedge $-1 -1 $-1 $137 $136 $255 $259 forward $66 $-1 #
edge $-1 -1 $-1 $196 -15.012499999999999 $257 15.012499999999999 $188 $260 forward @7 unknown #
coedge $-1 -1 $-1 $201 $200 $137 $194 reversed $185 $-1 #
edge $-1 -1 $-1 $261 -15.012499999999999 $195 15.012499999999999 $193 $262 forward @7 unknown #
vertex $-1 -1 $-1 $139 $263 #
vertex $-1 -1 $-1 $207 $264 #
straight-curve $-1 -1 $-1 15.012499999999999 0 -0.56899999999999995 0 -1 0 I I #
coedge $-1 -1 $-1 $187 $189 $140 $199 reversed $133 $-1 #
edge $-1 -1 $-1 $202 -15.012499999999999 $205 15.012499999999999 $198 $265 forward @7 unknown #
coedge $-1 -1 $-1 $193 $141 $146 $208 forward $185 $-1 #
coedge $-1 -1 $-1 $141 $193 $187 $256 reversed $185 $-1 #
vertex $-1 -1 $-1 $142 $266 #
straight-curve $-1 -1 $-1 0 15.012499999999999 0.56899999999999995 -1 0 0 I I #
coedge $-1 -1 $-1 $143 $188 $145 $207 reversed $95 $-1 #
vertex $-1 -1 $-1 $199 $267 #
straight-curve $-1 -1 $-1 0 -15.012499999999999 0.56899999999999995 1 0 0 I I #
edge $-1 -1 $-1 $148 -0.56899999999999995 $196 0.56899999999999995 $145 $268 forward @7 unknown #
edge $-1 -1 $-1 $149 -0.56899999999999995 $195 0.56899999999999995 $146 $269 forward @7 unknown #
point $-1 -1 $-1 15.012499999999999 -15.012499999999999 0.56899999999999995 #
point $-1 -1 $-1 15.012499999999999 15.012499999999999 0.56899999999999995 #
vertex $-1 -1 $-1 $152 $270 #
ellipse-curve $-1 -1 $-1 0 0 0.56900000000000162 0 0 1 13.87129 0 0 1 I I #
point $-1 -1 $-1 13.87129 0 -0.56900000000000162 #
face $-1 -1 $-1 $271 $245 $23 $-1 $272 reversed single #
loop $-1 -1 $-1 $-1 $229 $155 #
plane-surface $-1 -1 $-1 15.012499999999999 0 0 -1 0 0 0 0 1 forward_v I I I I #
coedge $-1 -1 $-1 $222 $273 $274 $275 reversed $156 $-1 #
coedge $-1 -1 $-1 $276 $157 $277 $278 reversed $108 $-1 #
coedge $-1 -1 $-1 $157 $276 $161 $230 forward $108 $-1 #
coedge $-1 -1 $-1 $279 $280 $157 $221 forward $281 $-1 #
edge $-1 -1 $-1 $282 -1.5707963267948966 $234 0 $220 $235 forward @7 unknown #
coedge $-1 -1 $-1 $283 $217 $284 $223 reversed $156 $-1 #
edge $-1 -1 $-1 $227 -1.1379999999999999 $285 0 $284 $286 forward @7 unknown #
coedge $-1 -1 $-1 $225 $159 $243 $246 forward $226 $-1 #
coedge $-1 -1 $-1 $159 $224 $287 $288 forward $226 $-1 #
loop $-1 -1 $-1 $-1 $159 $289 #
vertex $-1 -1 $-1 $290 $291 #
ellipse-curve $-1 -1 $-1 -5.6284141465887087e-032 0 0.56899999999999995 0 0 -1 15.012499999999999 0 0 1 I I #
coedge $-1 -1 $-1 $292 $293 $294 $230 forward $215 $-1 #
edge $-1 -1 $-1 $239 -1.1379999999999999 $234 0 $229 $295 forward @7 unknown #
coedge $-1 -1 $-1 $232 $162 $296 $248 forward $233 $-1 #
coedge $-1 -1 $-1 $162 $231 $292 $297 forward $233 $-1 #
loop $-1 -1 $-1 $-1 $162 $298 #
vertex $-1 -1 $-1 $299 $300 #
ellipse-curve $-1 -1 $-1 -5.6284141465887087e-032 0 -0.56899999999999995 0 0 1 15.012499999999999 0 0 1 I I #
coedge $-1 -1 $-1 $237 $164 $293 $301 forward $238 $-1 #
coedge $-1 -1 $-1 $164 $236 $302 $303 forward $238 $-1 #
loop $-1 -1 $-1 $-1 $164 $304 #
vertex $-1 -1 $-1 $301 $305 #
coedge $-1 -1 $-1 $306 $307 $166 $241 forward $308 $-1 #
edge $-1 -1 $-1 $169 1.5707963267948966 $285 3.1415926535897931 $240 $235 forward @7 unknown #
coedge $-1 -1 $-1 $309 $167 $307 $310 reversed $245 $-1 #
coedge $-1 -1 $-1 $167 $309 $224 $246 reversed $245 $-1 #
coedge $-1 -1 $-1 $302 $296 $76 $113 reversed $311 $-1 #
loop $-1 -1 $-1 $-1 $167 $214 #
edge $-1 -1 $-1 $168 5.6284141465887087e-032 $312 15.012499999999999 $243 $313 forward @7 unknown #
point $-1 -1 $-1 -5.6284141465887087e-032 15.012499999999999 0.56899999999999995 #
edge $-1 -1 $-1 $169 -5.6284141465887087e-032 $314 15.012499999999999 $296 $315 forward @7 unknown #
point $-1 -1 $-1 -5.6284141465887087e-032 15.012499999999999 -0.56899999999999995 #
point $-1 -1 $-1 15.012499999999999 0 0.56899999999999995 #
cur-twe-attrib $-1 -1 $-1 $-1 $175 49 #
edge_name-twe-attrib $-1 -1 $-1 $176 $88 2 8704 #
edge_name-twe-attrib $-1 -1 $-1 $179 $90 1 8704 #
plane-surface $-1 -1 $-1 15.012499999999999 0 0 -1 0 0 0 0 1 forward_v I I I I #
coedge $-1 -1 $-1 $189 $187 $191 $259 reversed $133 $-1 #
edge $-1 -1 $-1 $202 -0.56899999999999995 $261 0.56899999999999995 $201 $316 forward @7 unknown #
vertex $-1 -1 $-1 $259 $317 #
straight-curve $-1 -1 $-1 -15.012499999999999 -15.012499999999999 0 0 0 -1 I I #
edge $-1 -1 $-1 $257 -15.012499999999999 $261 15.012499999999999 $255 $318 forward @7 unknown #
straight-curve $-1 -1 $-1 0 -15.012499999999999 -0.56899999999999995 -1 0 0 I I #
vertex $-1 -1 $-1 $194 $319 #
straight-curve $-1 -1 $-1 0 15.012499999999999 -0.56899999999999995 1 0 0 I I #
point $-1 -1 $-1 15.012499999999999 15.012499999999999 -0.56899999999999995 #
point $-1 -1 $-1 15.012499999999999 -15.012499999999999 -0.56899999999999995 #
straight-curve $-1 -1 $-1 -15.012499999999999 0 0.56899999999999995 0 -1 0 I I #
point $-1 -1 $-1 -15.012499999999999 15.012499999999999 0.56899999999999995 #
point $-1 -1 $-1 -15.012499999999999 -15.012499999999999 0.56899999999999995 #
straight-curve $-1 -1 $-1 15.012499999999999 -15.012499999999999 0 0 0 -1 I I #
straight-curve $-1 -1 $-1 15.012499999999999 15.012499999999999 0 0 0 -1 I I #
point $-1 -1 $-1 13.87129 0 0.56900000000000162 #
face $-1 -1 $-1 $320 $321 $23 $-1 $322 reversed single #
plane-surface $-1 -1 $-1 0 15.012499999999999 0 0 -1 0 0 0 -1 forward_v I I I I #
coedge $-1 -1 $-1 $217 $283 $218 $278 forward $156 $-1 #
coedge $-1 -1 $-1 $323 $324 $217 $275 forward $325 $-1 #
edge $-1 -1 $-1 $285 -3.1415926535897931 $282 -1.5707963267948966 $274 $235 forward @7 unknown #
coedge $-1 -1 $-1 $219 $218 $326 $327 reversed $108 $-1 #
coedge $-1 -1 $-1 $328 $329 $330 $278 forward $331 $-1 #
edge $-1 -1 $-1 $332 -1.1379999999999999 $282 0 $277 $333 forward @7 unknown #
coedge $-1 -1 $-1 $280 $220 $334 $299 forward $281 $-1 #
coedge $-1 -1 $-1 $220 $279 $328 $335 forward $281 $-1 #
loop $-1 -1 $-1 $-1 $220 $336 #
vertex $-1 -1 $-1 $337 $338 #
coedge $-1 -1 $-1 $273 $222 $339 $340 reversed $156 $-1 #
coedge $-1 -1 $-1 $341 $342 $343 $223 forward $321 $-1 #
vertex $-1 -1 $-1 $344 $345 #
straight-curve $-1 -1 $-1 -15.012499999999999 0 -0.56899999999999995 0 0 -1 I I #
coedge $-1 -1 $-1 $346 $343 $225 $288 reversed $347 $-1 #
edge $-1 -1 $-1 $312 -15.012499999999999 $227 0 $287 $348 forward @7 unknown #
face $-1 -1 $-1 $304 $226 $23 $-1 $349 forward single #
edge $-1 -1 $-1 $227 0 $350 15.012499999999999 $342 $348 forward @7 unknown #
point $-1 -1 $-1 -15.012499999999999 0 0.56899999999999995 #
coedge $-1 -1 $-1 $351 $229 $232 $297 reversed $215 $-1 #
coedge $-1 -1 $-1 $229 $351 $236 $301 reversed $215 $-1 #
coedge $-1 -1 $-1 $352 $334 $219 $230 reversed $353 $-1 #
straight-curve $-1 -1 $-1 15.012499999999999 0 -0.56899999999999995 0 0 -1 I I #
coedge $-1 -1 $-1 $244 $354 $231 $248 reversed $311 $-1 #
edge $-1 -1 $-1 $314 -15.012499999999999 $234 0 $292 $355 forward @7 unknown #
face $-1 -1 $-1 $356 $233 $23 $-1 $357 reversed single #
edge $-1 -1 $-1 $234 0 $358 15.012499999999999 $334 $355 forward @7 unknown #
point $-1 -1 $-1 15.012499999999999 0 -0.56899999999999995 #
edge $-1 -1 $-1 $239 0 $359 15.012499999999999 $293 $360 forward @7 unknown #
coedge $-1 -1 $-1 $354 $244 $237 $303 reversed $311 $-1 #
edge $-1 -1 $-1 $359 -15.012499999999999 $168 5.6284141465887087e-032 $302 $313 forward @7 unknown #
face $-1 -1 $-1 $361 $238 $23 $-1 $349 forward single #
point $-1 -1 $-1 15.012499999999999 0 0.56899999999999995 #
coedge $-1 -1 $-1 $307 $240 $362 $344 forward $308 $-1 #
coedge $-1 -1 $-1 $240 $306 $242 $310 forward $308 $-1 #
loop $-1 -1 $-1 $-1 $240 $356 #
coedge $-1 -1 $-1 $243 $242 $346 $363 reversed $245 $-1 #
edge $-1 -1 $-1 $364 -15.012499999999999 $169 -5.6284141465887087e-032 $242 $315 forward @7 unknown #
loop $-1 -1 $-1 $-1 $244 $365 #
vertex $-1 -1 $-1 $246 $366 #
straight-curve $-1 -1 $-1 0 15.012499999999999 0.56899999999999995 -1 0 0 I I #
vertex $-1 -1 $-1 $297 $367 #
straight-curve $-1 -1 $-1 0 15.012499999999999 -0.56899999999999995 1 0 0 I I #
straight-curve $-1 -1 $-1 -15.012499999999999 15.012499999999999 0 0 0 -1 I I #
point $-1 -1 $-1 -15.012499999999999 -15.012499999999999 -0.56899999999999995 #
straight-curve $-1 -1 $-1 -15.012499999999999 0 -0.56899999999999995 0 1 0 I I #
point $-1 -1 $-1 -15.012499999999999 15.012499999999999 -0.56899999999999995 #
face $-1 -1 $-1 $289 $368 $23 $-1 $349 forward single #
loop $-1 -1 $-1 $-1 $284 $271 #
plane-surface $-1 -1 $-1 -15.012499999999999 0 0 1 0 0 0 0 -1 forward_v I I I I #
coedge $-1 -1 $-1 $324 $274 $369 $337 forward $325 $-1 #
coedge $-1 -1 $-1 $274 $323 $341 $370 forward $325 $-1 #
loop $-1 -1 $-1 $-1 $274 $371 #
coedge $-1 -1 $-1 $372 $373 $276 $327 forward $374 $-1 #
edge $-1 -1 $-1 $239 0 $332 1.5707963267948966 $326 $228 forward @7 unknown #
coedge $-1 -1 $-1 $375 $277 $280 $335 reversed $331 $-1 #
coedge $-1 -1 $-1 $277 $375 $372 $376 reversed $331 $-1 #
coedge $-1 -1 $-1 $377 $369 $273 $278 reversed $378 $-1 #
loop $-1 -1 $-1 $-1 $277 $379 #
vertex $-1 -1 $-1 $376 $380 #
straight-curve $-1 -1 $-1 -5.6284141465887087e-032 -15.012499999999999 -0.56899999999999995 0 0 -1 I I #
coedge $-1 -1 $-1 $294 $381 $279 $299 reversed $353 $-1 #
edge $-1 -1 $-1 $358 -15.012499999999999 $282 5.6284141465887087e-032 $328 $382 forward @7 unknown #
face $-1 -1 $-1 $298 $281 $23 $-1 $357 reversed single #
edge $-1 -1 $-1 $282 5.6284141465887087e-032 $383 15.012499999999999 $369 $382 forward @7 unknown #
point $-1 -1 $-1 -5.6284141465887087e-032 -15.012499999999999 -0.56899999999999995 #
coedge $-1 -1 $-1 $384 $385 $283 $340 forward $368 $-1 #
edge $-1 -1 $-1 $332 1.5707963267948966 $227 3.1415926535897931 $339 $228 forward @7 unknown #
coedge $-1 -1 $-1 $386 $284 $324 $370 reversed $321 $-1 #
coedge $-1 -1 $-1 $284 $386 $384 $290 reversed $321 $-1 #
coedge $-1 -1 $-1 $287 $362 $158 $223 reversed $347 $-1 #
edge $-1 -1 $-1 $285 0 $364 15.012499999999999 $362 $387 forward @7 unknown #
point $-1 -1 $-1 -15.012499999999999 0 -0.56899999999999995 #
coedge $-1 -1 $-1 $362 $287 $309 $363 forward $347 $-1 #
loop $-1 -1 $-1 $-1 $343 $388 #
straight-curve $-1 -1 $-1 -15.012499999999999 0 0.56899999999999995 0 -1 0 I I #
plane-surface $-1 -1 $-1 0 0 0.56899999999999995 0 0 1 1 0 0 forward_v I I I I #
vertex $-1 -1 $-1 $290 $389 #
coedge $-1 -1 $-1 $293 $292 $354 $390 reversed $215 $-1 #
coedge $-1 -1 $-1 $381 $294 $373 $391 reversed $353 $-1 #
loop $-1 -1 $-1 $-1 $294 $392 #
coedge $-1 -1 $-1 $296 $302 $351 $390 forward $311 $-1 #
straight-curve $-1 -1 $-1 15.012499999999999 0 -0.56899999999999995 0 -1 0 I I #
face $-1 -1 $-1 $393 $308 $23 $-1 $357 reversed single #
plane-surface $-1 -1 $-1 0 0 -0.56899999999999995 0 0 1 1 0 0 forward_v I I I I #
vertex $-1 -1 $-1 $394 $395 #
vertex $-1 -1 $-1 $301 $396 #
straight-curve $-1 -1 $-1 15.012499999999999 0 0.56899999999999995 0 1 0 I I #
face $-1 -1 $-1 $379 $374 $23 $-1 $349 forward single #
coedge $-1 -1 $-1 $343 $346 $306 $344 reversed $347 $-1 #
edge $-1 -1 $-1 $312 -0.56899999999999995 $364 0.56899999999999995 $309 $397 forward @7 unknown #
vertex $-1 -1 $-1 $310 $398 #
face $-1 -1 $-1 $392 $311 $23 $-1 $272 reversed single #
point $-1 -1 $-1 -15.012499999999999 15.012499999999999 0.56899999999999995 #
point $-1 -1 $-1 15.012499999999999 15.012499999999999 -0.56899999999999995 #
loop $-1 -1 $-1 $-1 $339 $320 #
coedge $-1 -1 $-1 $330 $399 $323 $337 reversed $378 $-1 #
edge $-1 -1 $-1 $383 -15.012499999999999 $285 0 $341 $387 forward @7 unknown #
face $-1 -1 $-1 $336 $325 $23 $-1 $357 reversed single #
coedge $-1 -1 $-1 $373 $326 $329 $376 forward $374 $-1 #
coedge $-1 -1 $-1 $326 $372 $352 $391 forward $374 $-1 #
loop $-1 -1 $-1 $-1 $326 $361 #
coedge $-1 -1 $-1 $329 $328 $381 $394 reversed $331 $-1 #
edge $-1 -1 $-1 $332 -5.6284141465887087e-032 $400 15.012499999999999 $329 $401 forward @7 unknown #
coedge $-1 -1 $-1 $399 $330 $385 $402 reversed $378 $-1 #
loop $-1 -1 $-1 $-1 $330 $393 #
face $-1 -1 $-1 $371 $331 $23 $-1 $403 reversed single #
point $-1 -1 $-1 -5.6284141465887087e-032 -15.012499999999999 0.56899999999999995 #
coedge $-1 -1 $-1 $334 $352 $375 $394 forward $353 $-1 #
straight-curve $-1 -1 $-1 0 -15.012499999999999 -0.56899999999999995 -1 0 0 I I #
vertex $-1 -1 $-1 $370 $404 #
coedge $-1 -1 $-1 $385 $339 $342 $290 forward $368 $-1 #
coedge $-1 -1 $-1 $339 $384 $377 $402 forward $368 $-1 #
coedge $-1 -1 $-1 $342 $341 $399 $405 reversed $321 $-1 #
straight-curve $-1 -1 $-1 -15.012499999999999 0 -0.56899999999999995 0 1 0 I I #
face $-1 -1 $-1 $365 $347 $23 $-1 $322 reversed single #
point $-1 -1 $-1 -15.012499999999999 -15.012499999999999 0.56899999999999995 #
edge $-1 -1 $-1 $359 -0.56899999999999995 $314 0.56899999999999995 $351 $406 forward @7 unknown #
edge $-1 -1 $-1 $400 -15.012499999999999 $239 0 $352 $360 forward @7 unknown #
face $-1 -1 $-1 $-1 $353 $23 $-1 $216 reversed single #
face $-1 -1 $-1 $388 $378 $23 $-1 $403 reversed single #
edge $-1 -1 $-1 $400 -0.56899999999999995 $358 0.56899999999999995 $381 $407 forward @7 unknown #
point $-1 -1 $-1 15.012499999999999 -15.012499999999999 -0.56899999999999995 #
point $-1 -1 $-1 15.012499999999999 15.012499999999999 0.56899999999999995 #
straight-curve $-1 -1 $-1 -15.012499999999999 15.012499999999999 0 0 0 -1 I I #
point $-1 -1 $-1 -15.012499999999999 15.012499999999999 -0.56899999999999995 #
coedge $-1 -1 $-1 $369 $377 $386 $405 forward $378 $-1 #
vertex $-1 -1 $-1 $391 $408 #
straight-curve $-1 -1 $-1 0 -15.012499999999999 0.56899999999999995 1 0 0 I I #
edge $-1 -1 $-1 $350 -15.012499999999999 $332 -5.6284141465887087e-032 $377 $401 forward @7 unknown #
plane-surface $-1 -1 $-1 0 -15.012499999999999 0 0 1 0 0 0 1 forward_v I I I I #
point $-1 -1 $-1 -15.012499999999999 -15.012499999999999 -0.56899999999999995 #
edge $-1 -1 $-1 $350 -0.56899999999999995 $383 0.56899999999999995 $386 $409 forward @7 unknown #
straight-curve $-1 -1 $-1 15.012499999999999 15.012499999999999 0 0 0 -1 I I #
straight-curve $-1 -1 $-1 15.012499999999999 -15.012499999999999 0 0 0 -1 I I #
point $-1 -1 $-1 15.012499999999999 -15.012499999999999 0.56899999999999995 #
straight-curve $-1 -1 $-1 -15.012499999999999 -15.012499999999999 0 0 0 -1 I I #
End-of-ACIS-data 