600 0 1 0           
89 GICL ACIS Healer - Source: /gicl/data5/repository/ASME97/WISC/PART2/demo2/demo2.sat - 6 0 18 ACIS 6.0.3 Solaris 24 Sat Apr 13 23:05:16 2002 
1 9.999999999999999547e-07 1.000000000000000036e-10 
body $-1 $1 $-1 $-1 #
lump $-1 $-1 $2 $0 #
shell $-1 $-1 $-1 $3 $-1 $1 #
face $-1 $4 $5 $2 $-1 $6 reversed single #
face $-1 $7 $8 $2 $-1 $9 reversed single #
loop $-1 $-1 $10 $3 #
plane-surface $-1 0 -5 5 0 1 0 0 0 1 forward_v I I I I #
face $-1 $11 $12 $2 $-1 $13 reversed single #
loop $-1 $-1 $14 $4 #
plane-surface $-1 -5 -15.00000000000001776 5 1 3.552713678800500929e-15 0 0 0 -1 forward_v I I I I #
coedge $-1 $15 $16 $17 $18 reversed $5 $-1 #
face $-1 $19 $20 $2 $-1 $21 reversed single #
loop $-1 $-1 $22 $7 #
plane-surface $-1 5.329070518200751394e-14 -30 5 -3.552713678800500929e-15 1 0 0 0 -1 forward_v I I I I #
coedge $-1 $23 $24 $25 $26 reversed $8 $-1 #
coedge $-1 $27 $10 $24 $28 forward $5 $-1 #
coedge $-1 $10 $27 $29 $30 forward $5 $-1 #
coedge $-1 $31 $25 $10 $18 forward $32 $-1 #
edge $-1 $33 5.000000000000035527 $34 15 $17 $35 forward 7 unknown #
face $-1 $36 $37 $2 $-1 $6 reversed single #
loop $-1 $-1 $38 $11 #
plane-surface $-1 5 -14.99999999999998224 5 -1 -3.552713678800500929e-15 0 0 0 1 forward_v I I I I #
coedge $-1 $39 $40 $41 $42 reversed $12 $-1 #
coedge $-1 $43 $14 $40 $44 reversed $8 $-1 #
coedge $-1 $14 $43 $15 $28 reversed $8 $-1 #
coedge $-1 $17 $41 $14 $26 forward $32 $-1 #
edge $-1 $45 -22.5 $33 2.500000000000017764 $25 $46 forward 7 unknown #
coedge $-1 $16 $15 $47 $48 reversed $5 $-1 #
edge $-1 $33 5 $49 10 $15 $50 forward 7 unknown #
coedge $-1 $51 $52 $16 $30 reversed $53 $-1 #
edge $-1 $54 -10 $34 -5 $29 $55 forward 7 unknown #
coedge $-1 $56 $17 $52 $57 forward $32 $-1 #
loop $-1 $58 $56 $59 #
vertex $-1 $26 $60 #
vertex $-1 $18 $61 #
straight-curve $-1 0 -5 10 -1 0 0 I I #
face $-1 $62 $53 $2 $-1 $63 reversed single #
loop $-1 $-1 $64 $19 #
coedge $-1 $65 $66 $67 $68 reversed $20 $-1 #
coedge $-1 $69 $22 $66 $70 reversed $12 $-1 #
coedge $-1 $22 $69 $23 $44 forward $12 $-1 #
coedge $-1 $25 $67 $22 $42 forward $32 $-1 #
edge $-1 $71 -4.999999999999973355 $45 5.000000000000026645 $41 $72 forward 7 unknown #
coedge $-1 $24 $23 $73 $74 reversed $8 $-1 #
edge $-1 $75 -10 $45 -5 $23 $76 forward 7 unknown #
vertex $-1 $26 $77 #
straight-curve $-1 -5.000000000000026645 -7.500000000000017764 10 -3.552713678800500929e-15 1 0 I I #
coedge $-1 $73 $78 $27 $48 forward $79 $-1 #
edge $-1 $54 -15 $49 -5.000000000000035527 $27 $80 forward 7 unknown #
vertex $-1 $48 $81 #
straight-curve $-1 -5.000000000000035527 -5 5 0 0 1 I I #
coedge $-1 $82 $29 $78 $83 reversed $53 $-1 #
coedge $-1 $29 $82 $31 $57 reversed $53 $-1 #
loop $-1 $-1 $52 $36 #
vertex $-1 $83 $84 #
straight-curve $-1 -15 -5 5 0 0 -1 I I #
coedge $-1 $85 $31 $86 $87 forward $32 $-1 #
edge $-1 $34 -5 $88 5 $31 $89 forward 7 unknown #
loop $-1 $-1 $90 $59 #
face $-1 $91 $32 $2 $-1 $92 forward single #
point $-1 -5.000000000000035527 -5 10 #
point $-1 -15 -5 10 #
face $-1 $93 $94 $2 $-1 $95 reversed single #
plane-surface $-1 -15 0 5 1 0 0 0 0 -1 forward_v I I I I #
coedge $-1 $96 $97 $98 $99 reversed $37 $-1 #
coedge $-1 $100 $38 $97 $101 reversed $20 $-1 #
coedge $-1 $38 $100 $39 $70 forward $20 $-1 #
coedge $-1 $41 $98 $38 $68 forward $32 $-1 #
edge $-1 $102 -2.499999999999982236 $71 22.5 $67 $103 forward 7 unknown #
coedge $-1 $40 $39 $104 $105 reversed $12 $-1 #
edge $-1 $106 -10 $71 -5 $39 $107 forward 7 unknown #
vertex $-1 $68 $108 #
straight-curve $-1 7.993605777301127091e-14 -30 10 -1 -3.552713678800500929e-15 0 I I #
coedge $-1 $104 $47 $43 $74 forward $79 $-1 #
edge $-1 $49 -10.00000000000001776 $75 15 $43 $109 forward 7 unknown #
vertex $-1 $74 $110 #
straight-curve $-1 -4.999999999999946709 -30.00000000000001776 5 0 0 -1 I I #
point $-1 -4.999999999999946709 -30.00000000000001776 10 #
coedge $-1 $47 $111 $51 $83 forward $79 $-1 #
loop $-1 $-1 $112 $93 #
straight-curve $-1 0 -5 15 1 0 0 I I #
point $-1 -5.000000000000035527 -5 15 #
coedge $-1 $52 $51 $113 $114 forward $53 $-1 #
edge $-1 $115 -5 $54 5 $51 $116 forward 7 unknown #
point $-1 -15 -5 15 #
coedge $-1 $98 $56 $117 $118 forward $32 $-1 #
coedge $-1 $113 $119 $56 $87 reversed $94 $-1 #
edge $-1 $88 -15 $120 15 $56 $121 forward 7 unknown #
vertex $-1 $57 $122 #
straight-curve $-1 -15 0 10 0 1 0 I I #
coedge $-1 $123 $124 $125 $126 forward $58 $-1 #
face $-1 $127 $128 $2 $-1 $129 reversed single #
plane-surface $-1 0 0 10 0 0 1 1 0 0 forward_v I I I I #
face $-1 $130 $79 $2 $-1 $131 forward single #
loop $-1 $-1 $86 $62 #
plane-surface $-1 0 5 5 0 -1 0 0 0 -1 forward_v I I I I #
coedge $-1 $132 $64 $133 $134 forward $37 $-1 #
coedge $-1 $64 $132 $65 $101 forward $37 $-1 #
coedge $-1 $67 $85 $64 $99 forward $32 $-1 #
edge $-1 $135 -15 $102 -4.999999999999964473 $98 $136 forward 7 unknown #
coedge $-1 $66 $65 $137 $138 reversed $20 $-1 #
edge $-1 $139 -10 $102 -5 $97 $140 forward 7 unknown #
vertex $-1 $68 $141 #
straight-curve $-1 4.999999999999973355 -7.499999999999982236 10 3.552713678800500929e-15 -1 0 I I #
coedge $-1 $137 $73 $69 $105 forward $79 $-1 #
edge $-1 $75 -5 $106 5 $69 $142 forward 7 unknown #
vertex $-1 $105 $143 #
straight-curve $-1 5.000000000000053291 -29.99999999999998224 5 0 0 -1 I I #
point $-1 5.000000000000053291 -29.99999999999998224 10 #
straight-curve $-1 -5 -15.00000000000001776 15 3.552713678800500929e-15 -1 0 I I #
point $-1 -4.999999999999946709 -30.00000000000001776 15 #
coedge $-1 $78 $112 $144 $145 forward $79 $-1 #
coedge $-1 $111 $146 $147 $148 forward $79 $-1 #
coedge $-1 $144 $86 $82 $114 reversed $94 $-1 #
edge $-1 $115 -10 $88 -5 $113 $149 forward 7 unknown #
vertex $-1 $145 $150 #
straight-curve $-1 -15 0 15 0 -1 0 I I #
coedge $-1 $151 $133 $85 $118 reversed $152 $-1 #
edge $-1 $120 -1.570796326794896558 $135 1.570796326794896558 $85 $153 forward 7 unknown #
coedge $-1 $86 $144 $151 $154 reversed $94 $-1 #
vertex $-1 $154 $155 #
straight-curve $-1 0 5 10 1 0 0 I I #
point $-1 -15 5 10 #
coedge $-1 $156 $90 $157 $158 forward $58 $-1 #
coedge $-1 $90 $159 $160 $161 forward $58 $-1 #
coedge $-1 $162 $163 $90 $126 reversed $164 $-1 #
edge $-1 $165 9 $166 16 $90 $167 forward 7 unknown #
face $-1 $168 $169 $2 $-1 $170 reversed single #
loop $-1 $-1 $171 $91 #
plane-surface $-1 0 0 -10 0 0 1 1 0 0 forward_v I I I I #
face $-1 $172 $152 $2 $-1 $173 forward single #
plane-surface $-1 15 0 15 0 0 1 1 0 0 forward_v I I I I #
coedge $-1 $97 $96 $146 $174 reversed $37 $-1 #
coedge $-1 $117 $147 $96 $134 reversed $152 $-1 #
edge $-1 $135 5 $175 10 $133 $176 forward 7 unknown #
vertex $-1 $118 $177 #
straight-curve $-1 0 -5 10 -1 0 0 I I #
coedge $-1 $146 $104 $100 $138 forward $79 $-1 #
edge $-1 $106 -15 $139 9.999999999999982236 $100 $178 forward 7 unknown #
vertex $-1 $174 $179 #
straight-curve $-1 4.999999999999964473 -5 5 0 0 -1 I I #
point $-1 4.999999999999964473 -5 10 #
straight-curve $-1 5.329070518200751394e-14 -30 15 1 3.552713678800500929e-15 0 I I #
point $-1 5.000000000000053291 -29.99999999999998224 15 #
coedge $-1 $119 $113 $111 $145 reversed $94 $-1 #
edge $-1 $180 -15 $115 15 $144 $181 forward 7 unknown #
coedge $-1 $112 $137 $132 $174 forward $79 $-1 #
coedge $-1 $133 $151 $112 $148 reversed $152 $-1 #
edge $-1 $175 -1.570796326794896558 $180 1.570796326794896558 $112 $182 forward 7 unknown #
straight-curve $-1 -15 5 5 0 0 -1 I I #
point $-1 -15 5 15 #
coedge $-1 $147 $117 $119 $154 forward $152 $-1 #
loop $-1 $-1 $151 $130 #
ellipse-curve $-1 15 0 10 0 0 -1 5 0 0 1 I I #
edge $-1 $120 5 $180 10 $151 $183 forward 7 unknown #
point $-1 15 5 10 #
coedge $-1 $184 $123 $185 $186 forward $58 $-1 #
coedge $-1 $187 $188 $123 $158 reversed $189 $-1 #
edge $-1 $166 -7.5 $190 -2.5 $123 $191 forward 7 unknown #
coedge $-1 $124 $192 $193 $194 forward $58 $-1 #
coedge $-1 $195 $196 $124 $161 reversed $197 $-1 #
edge $-1 $198 2.5 $165 7.5 $124 $199 forward 7 unknown #
coedge $-1 $200 $125 $196 $201 reversed $164 $-1 #
coedge $-1 $125 $200 $187 $202 reversed $164 $-1 #
loop $-1 $-1 $163 $203 #
vertex $-1 $161 $204 #
vertex $-1 $126 $205 #
straight-curve $-1 -2.5 20 10 -1 0 0 I I #
face $-1 $-1 $206 $2 $-1 $207 reversed single #
loop $-1 $208 $209 $127 #
plane-surface $-1 0 -35 0 0 1 0 0 0 1 forward_v I I I I #
coedge $-1 $210 $211 $212 $213 forward $128 $-1 #
face $-1 $214 $215 $2 $-1 $216 forward single #
cone-surface $-1 15 0 5 0 0 1 5 0 0 1 I I 0 1 5 forward I I I I #
edge $-1 $139 4.999999999999964473 $175 15 $132 $80 forward 7 unknown #
vertex $-1 $148 $217 #
straight-curve $-1 15 -5 5 0 0 1 I I #
point $-1 15 -5 10 #
straight-curve $-1 5 -14.99999999999998224 15 -3.552713678800500929e-15 1 0 I I #
point $-1 4.999999999999964473 -5 15 #
vertex $-1 $148 $218 #
straight-curve $-1 0 5 15 -1 0 0 I I #
ellipse-curve $-1 15 0 15 0 0 1 5 0 0 1 I I #
straight-curve $-1 15 5 5 0 0 1 I I #
coedge $-1 $219 $156 $220 $221 forward $58 $-1 #
coedge $-1 $222 $223 $156 $186 reversed $224 $-1 #
edge $-1 $190 8.5 $225 11.5 $156 $226 forward 7 unknown #
coedge $-1 $227 $157 $163 $202 forward $189 $-1 #
coedge $-1 $157 $228 $222 $229 forward $189 $-1 #
loop $-1 $-1 $187 $230 #
vertex $-1 $186 $231 #
straight-curve $-1 -18.5 12.5 10 0 -1 0 I I #
coedge $-1 $159 $232 $233 $234 forward $58 $-1 #
coedge $-1 $235 $236 $159 $194 reversed $237 $-1 #
edge $-1 $238 3.5 $198 6.5 $159 $239 forward 7 unknown #
coedge $-1 $240 $160 $236 $241 reversed $197 $-1 #
coedge $-1 $160 $242 $162 $201 forward $197 $-1 #
loop $-1 $-1 $196 $243 #
vertex $-1 $194 $244 #
straight-curve $-1 -11.5 12.5 10 0 1 0 I I #
coedge $-1 $163 $162 $245 $246 reversed $164 $-1 #
edge $-1 $247 -5.5 $165 1.5 $196 $248 forward 7 unknown #
edge $-1 $166 -1.5 $249 5.5 $187 $250 forward 7 unknown #
face $-1 $251 $164 $2 $-1 $252 reversed single #
point $-1 -11.5 20 10 #
point $-1 -18.5 20 10 #
loop $-1 $-1 $253 $168 #
plane-surface $-1 35 0 0 -1 0 0 0 0 1 forward_v I I I I #
loop $-1 $254 $255 $127 #
coedge $-1 $209 $209 $256 $257 forward $169 $-1 #
coedge $-1 $258 $171 $259 $260 forward $128 $-1 #
coedge $-1 $171 $258 $261 $262 forward $128 $-1 #
coedge $-1 $263 $253 $171 $213 reversed $206 $-1 #
edge $-1 $264 -35 $265 35 $212 $266 forward 7 unknown #
face $-1 $267 $268 $2 $-1 $216 forward single #
loop $-1 $-1 $269 $172 #
plane-surface $-1 -5 23 17 0 0 1 1 0 0 forward_v I I I I #
point $-1 15 -5 15 #
point $-1 15 5 15 #
coedge $-1 $270 $184 $271 $272 forward $58 $-1 #
coedge $-1 $273 $274 $184 $221 reversed $275 $-1 #
edge $-1 $225 2.5 $276 7.5 $184 $277 forward 7 unknown #
coedge $-1 $278 $185 $188 $229 reversed $224 $-1 #
coedge $-1 $185 $278 $273 $279 forward $224 $-1 #
loop $-1 $-1 $185 $280 #
vertex $-1 $186 $281 #
straight-curve $-1 -10 15 10 -1 0 0 I I #
coedge $-1 $282 $187 $283 $284 forward $189 $-1 #
coedge $-1 $188 $285 $286 $287 reversed $189 $-1 #
edge $-1 $288 -10 $190 0 $188 $289 forward 7 unknown #
face $-1 $290 $189 $2 $-1 $291 reversed single #
point $-1 -18.5 15 10 #
coedge $-1 $192 $292 $293 $294 forward $58 $-1 #
coedge $-1 $295 $296 $192 $234 reversed $297 $-1 #
edge $-1 $298 -7.5 $238 -2.5 $192 $299 forward 7 unknown #
coedge $-1 $300 $193 $296 $301 reversed $237 $-1 #
coedge $-1 $193 $300 $195 $241 forward $237 $-1 #
loop $-1 $-1 $193 $302 #
vertex $-1 $194 $303 #
straight-curve $-1 -5 15 10 -1 0 0 I I #
coedge $-1 $304 $195 $305 $306 reversed $197 $-1 #
edge $-1 $307 -10 $198 0 $195 $308 forward 7 unknown #
coedge $-1 $196 $309 $310 $311 forward $197 $-1 #
face $-1 $302 $197 $2 $-1 $312 reversed single #
point $-1 -11.5 15 10 #
coedge $-1 $310 $283 $200 $246 forward $313 $-1 #
edge $-1 $249 -13.5 $247 -6.5 $200 $314 forward 7 unknown #
vertex $-1 $311 $315 #
straight-curve $-1 -11.5 20 11.5 0 0 -1 I I #
vertex $-1 $284 $316 #
straight-curve $-1 -18.5 20 11.5 0 0 1 I I #
face $-1 $317 $313 $2 $-1 $216 forward single #
plane-surface $-1 -5 20 13 0 1 0 0 0 1 forward_v I I I I #
coedge $-1 $212 $318 $319 $320 forward $206 $-1 #
loop $-1 $321 $322 $127 #
coedge $-1 $255 $255 $323 $324 forward $208 $-1 #
coedge $-1 $256 $256 $209 $257 reversed $325 $-1 #
edge $-1 $326 -3.141592653589800221 $326 3.141592653589786011 $209 $327 forward 7 unknown #
coedge $-1 $211 $210 $328 $329 forward $128 $-1 #
coedge $-1 $319 $330 $210 $260 reversed $331 $-1 #
edge $-1 $265 -35 $332 35 $259 $333 forward 7 unknown #
coedge $-1 $334 $335 $211 $262 reversed $336 $-1 #
edge $-1 $337 -35 $264 35 $261 $338 forward 7 unknown #
coedge $-1 $318 $212 $335 $339 reversed $206 $-1 #
vertex $-1 $213 $340 #
vertex $-1 $320 $341 #
straight-curve $-1 35 0 -10 0 -1 0 I I #
face $-1 $342 $343 $2 $-1 $216 forward single #
loop $-1 $-1 $344 $214 #
coedge $-1 $345 $346 $347 $348 reversed $215 $-1 #
coedge $-1 $349 $219 $350 $351 forward $58 $-1 #
coedge $-1 $352 $353 $219 $272 reversed $354 $-1 #
edge $-1 $276 19 $355 27.5 $219 $167 forward 7 unknown #
coedge $-1 $356 $220 $223 $279 reversed $275 $-1 #
coedge $-1 $220 $347 $352 $357 forward $275 $-1 #
loop $-1 $-1 $358 $359 #
vertex $-1 $221 $360 #
straight-curve $-1 -21.5 12.5 10 0 1 0 I I #
coedge $-1 $223 $222 $361 $362 reversed $224 $-1 #
edge $-1 $363 -10 $225 0 $273 $364 forward 7 unknown #
face $-1 $365 $224 $2 $-1 $366 reversed single #
point $-1 -21.5 15 10 #
coedge $-1 $367 $227 $368 $369 forward $189 $-1 #
coedge $-1 $245 $370 $227 $284 reversed $313 $-1 #
edge $-1 $249 -4 $371 2 $227 $372 forward 7 unknown #
coedge $-1 $228 $367 $373 $374 reversed $189 $-1 #
coedge $-1 $375 $361 $228 $287 forward $376 $-1 #
edge $-1 $288 -10 $377 5 $228 $378 forward 7 unknown #
vertex $-1 $287 $379 #
straight-curve $-1 -18.5 15 10 0 0 -1 I I #
face $-1 $380 $297 $2 $-1 $381 reversed single #
plane-surface $-1 -18.5 25 10 -1 0 0 0 0 1 forward_v I I I I #
coedge $-1 $232 $382 $383 $384 forward $58 $-1 #
coedge $-1 $385 $386 $232 $294 reversed $387 $-1 #
edge $-1 $388 -1 $298 6 $232 $167 forward 7 unknown #
coedge $-1 $389 $233 $386 $390 forward $297 $-1 #
coedge $-1 $233 $391 $235 $301 forward $297 $-1 #
loop $-1 $-1 $295 $290 #
vertex $-1 $294 $392 #
straight-curve $-1 -8.5 12.5 10 0 -1 0 I I #
coedge $-1 $236 $235 $393 $394 reversed $237 $-1 #
edge $-1 $395 -10 $238 0 $296 $396 forward 7 unknown #
face $-1 $397 $237 $2 $-1 $398 reversed single #
point $-1 -8.5 15 10 #
coedge $-1 $399 $240 $400 $401 reversed $197 $-1 #
coedge $-1 $393 $402 $240 $306 forward $403 $-1 #
edge $-1 $404 -5 $307 10 $240 $405 forward 7 unknown #
vertex $-1 $306 $406 #
straight-curve $-1 -11.5 15 10 0 0 -1 I I #
coedge $-1 $242 $399 $407 $408 forward $197 $-1 #
coedge $-1 $370 $245 $242 $311 reversed $313 $-1 #
edge $-1 $409 -2 $247 4 $242 $410 forward 7 unknown #
plane-surface $-1 -11.5 25 10 1 0 0 0 0 -1 forward_v I I I I #
loop $-1 $-1 $283 $251 #
straight-curve $-1 -5 20 17 1 0 0 I I #
point $-1 -11.5 20 17 #
point $-1 -18.5 20 17 #
face $-1 $411 $412 $2 $-1 $413 reversed single #
coedge $-1 $253 $263 $414 $415 reversed $206 $-1 #
coedge $-1 $416 $259 $253 $320 reversed $331 $-1 #
edge $-1 $417 -10 $265 10 $253 $418 forward 7 unknown #
loop $-1 $419 $420 $127 #
coedge $-1 $322 $322 $421 $422 forward $254 $-1 #
coedge $-1 $323 $323 $255 $324 reversed $423 $-1 #
edge $-1 $424 -3.141592653589800221 $424 3.141592653589786011 $255 $425 forward 7 unknown #
loop $-1 $-1 $256 $426 #
vertex $-1 $257 $427 #
ellipse-curve $-1 25 -35 -5 0 1 0 0 0 2 1 I I #
coedge $-1 $428 $429 $258 $329 reversed $430 $-1 #
edge $-1 $332 -35 $337 35 $328 $431 forward 7 unknown #
coedge $-1 $259 $432 $428 $433 forward $331 $-1 #
loop $-1 $-1 $330 $127 #
vertex $-1 $329 $434 #
straight-curve $-1 0 -35 -10 -1 0 0 I I #
coedge $-1 $435 $261 $429 $436 reversed $336 $-1 #
coedge $-1 $261 $437 $263 $339 forward $336 $-1 #
loop $-1 $-1 $334 $438 #
vertex $-1 $262 $439 #
straight-curve $-1 0 35 -10 1 0 0 I I #
edge $-1 $440 -10 $264 10 $263 $441 forward 7 unknown #
point $-1 35 35 -10 #
point $-1 35 -35 -10 #
face $-1 $442 $443 $2 $-1 $216 forward single #
loop $-1 $-1 $444 $267 #
coedge $-1 $445 $446 $389 $447 reversed $268 $-1 #
coedge $-1 $448 $269 $449 $450 forward $215 $-1 #
coedge $-1 $269 $448 $451 $452 forward $215 $-1 #
coedge $-1 $274 $358 $269 $348 forward $275 $-1 #
edge $-1 $453 -2 $454 4 $347 $455 forward 7 unknown #
coedge $-1 $456 $270 $457 $458 forward $58 $-1 #
coedge $-1 $459 $460 $270 $351 reversed $461 $-1 #
edge $-1 $355 -20 $462 30 $270 $463 forward 7 unknown #
coedge $-1 $451 $271 $274 $357 reversed $354 $-1 #
coedge $-1 $271 $451 $459 $464 reversed $354 $-1 #
loop $-1 $-1 $352 $465 #
vertex $-1 $464 $466 #
coedge $-1 $467 $273 $468 $469 reversed $275 $-1 #
edge $-1 $454 -5.5 $276 1.5 $274 $470 forward 7 unknown #
coedge $-1 $347 $471 $472 $473 forward $275 $-1 #
face $-1 $474 $275 $2 $-1 $475 reversed single #
point $-1 -21.5 20 10 #
coedge $-1 $286 $468 $278 $362 forward $376 $-1 #
edge $-1 $363 -1.5 $288 1.5 $278 $476 forward 7 unknown #
vertex $-1 $469 $477 #
straight-curve $-1 -21.5 15 10 0 0 -1 I I #
face $-1 $478 $376 $2 $-1 $479 forward single #
plane-surface $-1 -20 15 10 0 1 0 0 0 1 forward_v I I I I #
coedge $-1 $285 $282 $480 $481 reversed $189 $-1 #
coedge $-1 $482 $483 $282 $369 reversed $412 $-1 #
edge $-1 $371 -5.5 $484 1.5 $282 $485 forward 7 unknown #
coedge $-1 $283 $310 $482 $486 forward $313 $-1 #
vertex $-1 $284 $487 #
straight-curve $-1 -18.5 24 17 0 1 0 I I #
coedge $-1 $488 $489 $285 $374 forward $490 $-1 #
edge $-1 $377 -7 $491 3 $373 $492 forward 7 unknown #
coedge $-1 $468 $286 $489 $493 reversed $376 $-1 #
loop $-1 $-1 $375 $365 #
vertex $-1 $493 $494 #
straight-curve $-1 -18.5 25 20 0 1 0 I I #
point $-1 -18.5 15 20 #
face $-1 $359 $495 $2 $-1 $496 reversed single #
plane-surface $-1 -8.5 25 10 -1 0 0 0 0 1 forward_v I I I I #
coedge $-1 $292 $497 $498 $499 forward $58 $-1 #
coedge $-1 $500 $501 $292 $384 reversed $502 $-1 #
edge $-1 $503 2.5 $388 7.5 $292 $504 forward 7 unknown #
coedge $-1 $505 $293 $501 $506 reversed $387 $-1 #
coedge $-1 $293 $505 $295 $390 reversed $387 $-1 #
loop $-1 $-1 $386 $507 #
vertex $-1 $384 $508 #
coedge $-1 $509 $295 $344 $447 forward $297 $-1 #
edge $-1 $298 -1.5 $510 5.5 $295 $511 forward 7 unknown #
coedge $-1 $296 $512 $513 $514 reversed $297 $-1 #
point $-1 -8.5 20 10 #
coedge $-1 $513 $305 $300 $394 forward $403 $-1 #
edge $-1 $307 -1.5 $395 1.5 $300 $515 forward 7 unknown #
vertex $-1 $514 $516 #
straight-curve $-1 -8.5 15 10 0 0 -1 I I #
face $-1 $517 $403 $2 $-1 $518 forward single #
plane-surface $-1 -10 15 10 0 1 0 0 0 1 forward_v I I I I #
coedge $-1 $309 $304 $519 $520 reversed $197 $-1 #
coedge $-1 $521 $488 $304 $401 forward $490 $-1 #
edge $-1 $522 -3 $404 7 $400 $523 forward 7 unknown #
coedge $-1 $305 $513 $521 $524 reversed $403 $-1 #
loop $-1 $-1 $402 $397 #
vertex $-1 $524 $525 #
straight-curve $-1 -11.5 25 20 0 -1 0 I I #
point $-1 -11.5 15 20 #
coedge $-1 $483 $482 $309 $408 reversed $412 $-1 #
edge $-1 $526 -1.5 $409 5.5 $309 $527 forward 7 unknown #
vertex $-1 $311 $528 #
straight-curve $-1 -11.5 24 17 0 -1 0 I I #
face $-1 $230 $529 $2 $-1 $530 reversed single #
loop $-1 $-1 $368 $317 #
plane-surface $-1 -5 26 13 0 -1 0 0 0 -1 forward_v I I I I #
coedge $-1 $531 $532 $318 $415 forward $58 $-1 #
edge $-1 $417 -35 $440 35 $318 $533 forward 7 unknown #
coedge $-1 $534 $319 $532 $535 reversed $331 $-1 #
vertex $-1 $415 $536 #
straight-curve $-1 35 -35 0 0 0 -1 I I #
loop $-1 $537 $538 $127 #
coedge $-1 $420 $420 $539 $540 forward $321 $-1 #
coedge $-1 $421 $421 $322 $422 reversed $541 $-1 #
edge $-1 $542 -3.141592653589800221 $542 3.141592653589786011 $322 $543 forward 7 unknown #
loop $-1 $-1 $323 $544 #
vertex $-1 $324 $545 #
ellipse-curve $-1 20 -35 -5 0 1 0 0 0 2 1 I I #
face $-1 $544 $325 $2 $-1 $546 forward single #
point $-1 25.00000000000001421 -35 -7 #
coedge $-1 $547 $328 $330 $433 reversed $430 $-1 #
coedge $-1 $328 $547 $334 $436 forward $430 $-1 #
loop $-1 $-1 $429 $548 #
straight-curve $-1 -35 0 -10 0 1 0 I I #
coedge $-1 $330 $534 $549 $550 reversed $331 $-1 #
edge $-1 $551 -10 $332 26 $428 $552 forward 7 unknown #
point $-1 -35 -35 -10 #
coedge $-1 $553 $334 $554 $555 reversed $336 $-1 #
edge $-1 $556 -10 $337 26 $334 $557 forward 7 unknown #
coedge $-1 $335 $553 $531 $558 reversed $336 $-1 #
face $-1 $59 $336 $2 $-1 $559 reversed single #
point $-1 -35 35 -10 #
vertex $-1 $415 $560 #
straight-curve $-1 35 35 0 0 0 -1 I I #
face $-1 $561 $562 $2 $-1 $413 reversed single #
loop $-1 $-1 $563 $342 #
coedge $-1 $564 $565 $566 $567 reversed $343 $-1 #
coedge $-1 $568 $344 $505 $569 forward $268 $-1 #
coedge $-1 $344 $568 $570 $571 forward $268 $-1 #
edge $-1 $510 -4 $572 2 $389 $573 forward 7 unknown #
coedge $-1 $346 $345 $574 $575 reversed $215 $-1 #
coedge $-1 $472 $576 $345 $450 reversed $562 $-1 #
edge $-1 $453 16.5 $577 25 $449 $578 forward 7 unknown #
coedge $-1 $353 $352 $346 $452 reversed $354 $-1 #
edge $-1 $579 -25 $454 -16.5 $451 $314 forward 7 unknown #
vertex $-1 $348 $580 #
vertex $-1 $348 $581 #
straight-curve $-1 -21.5 24 17 0 -1 0 I I #
coedge $-1 $532 $349 $582 $583 forward $58 $-1 #
coedge $-1 $584 $585 $349 $458 reversed $586 $-1 #
edge $-1 $462 -31.25 $587 -16.25 $349 $588 forward 7 unknown #
coedge $-1 $574 $350 $353 $464 forward $461 $-1 #
coedge $-1 $350 $589 $584 $590 forward $461 $-1 #
loop $-1 $-1 $591 $592 #
vertex $-1 $458 $593 #
straight-curve $-1 -30 0 10 0 -1 0 I I #
edge $-1 $355 -4.5 $579 2.5 $459 $594 forward 7 unknown #
face $-1 $203 $354 $2 $-1 $252 reversed single #
point $-1 -30 20 10 #
coedge $-1 $471 $356 $595 $596 reversed $275 $-1 #
coedge $-1 $361 $375 $356 $469 forward $376 $-1 #
edge $-1 $597 -5 $363 10 $356 $598 forward 7 unknown #
straight-curve $-1 -21.5 20 11.5 0 0 -1 I I #
coedge $-1 $358 $467 $599 $600 reversed $275 $-1 #
coedge $-1 $601 $449 $358 $473 reversed $562 $-1 #
edge $-1 $602 -1.5 $453 5.5 $358 $603 forward 7 unknown #
face $-1 $604 $605 $2 $-1 $92 forward single #
plane-surface $-1 -21.5 25 10 1 0 0 0 0 -1 forward_v I I I I #
straight-curve $-1 -20 15 20 1 0 0 I I #
point $-1 -21.5 15 20 #
face $-1 $243 $490 $2 $-1 $606 forward single #
plane-surface $-1 -20 25 20 0 0 1 1 0 0 forward_v I I I I #
coedge $-1 $607 $608 $367 $481 forward $609 $-1 #
edge $-1 $491 -17.5 $484 -13.5 $480 $191 forward 7 unknown #
coedge $-1 $407 $368 $370 $486 reversed $412 $-1 #
coedge $-1 $368 $407 $607 $610 reversed $412 $-1 #
vertex $-1 $481 $611 #
straight-curve $-1 -18.5 26 11.5 0 0 -1 I I #
edge $-1 $409 6.5 $371 13.5 $482 $578 forward 7 unknown #
point $-1 -18.5 26 17 #
coedge $-1 $400 $373 $608 $612 reversed $490 $-1 #
coedge $-1 $373 $595 $375 $493 forward $490 $-1 #
loop $-1 $-1 $595 $478 #
vertex $-1 $612 $613 #
straight-curve $-1 -18.5 30 13 0 0 -1 I I #
edge $-1 $597 -12.75 $377 -9.75 $489 $614 forward 7 unknown #
point $-1 -18.5 30 20 #
loop $-1 $-1 $615 $380 #
plane-surface $-1 8.5 25 10 1 0 0 0 0 -1 forward_v I I I I #
coedge $-1 $382 $616 $617 $618 forward $58 $-1 #
coedge $-1 $619 $620 $382 $499 reversed $621 $-1 #
edge $-1 $622 -1.5 $503 1.5 $382 $623 forward 7 unknown #
coedge $-1 $624 $383 $620 $625 reversed $502 $-1 #
coedge $-1 $383 $626 $385 $506 forward $502 $-1 #
loop $-1 $-1 $501 $627 #
vertex $-1 $499 $628 #
straight-curve $-1 -1.5 12.5 10 0 1 0 I I #
coedge $-1 $386 $385 $445 $569 reversed $387 $-1 #
edge $-1 $629 -5.5 $388 1.5 $501 $630 forward 7 unknown #
face $-1 $631 $387 $2 $-1 $252 reversed single #
point $-1 -1.5 20 10 #
coedge $-1 $632 $389 $633 $634 forward $297 $-1 #
vertex $-1 $447 $635 #
straight-curve $-1 -8.5 20 11.5 0 0 1 I I #
coedge $-1 $391 $632 $636 $637 reversed $297 $-1 #
coedge $-1 $402 $393 $391 $514 forward $403 $-1 #
edge $-1 $395 -10 $638 5 $391 $639 forward 7 unknown #
straight-curve $-1 -10 15 20 1 0 0 I I #
point $-1 -8.5 15 20 #
face $-1 $640 $641 $2 $-1 $642 reversed single #
plane-surface $-1 -10 25 20 0 0 1 1 0 0 forward_v I I I I #
coedge $-1 $608 $607 $399 $520 forward $609 $-1 #
edge $-1 $526 13.5 $522 17.5 $519 $199 forward 7 unknown #
coedge $-1 $636 $400 $402 $524 forward $490 $-1 #
vertex $-1 $520 $643 #
straight-curve $-1 -11.5 30 13 0 0 1 I I #
edge $-1 $404 -7.75 $638 -4.75 $521 $644 forward 7 unknown #
point $-1 -11.5 30 20 #
vertex $-1 $408 $645 #
straight-curve $-1 -11.5 26 11.5 0 0 1 I I #
point $-1 -11.5 26 17 #
loop $-1 $-1 $646 $411 #
plane-surface $-1 20 23 13 -1 0 0 0 0 1 forward_v I I I I #
coedge $-1 $647 $414 $437 $558 forward $58 $-1 #
coedge $-1 $414 $456 $416 $535 forward $58 $-1 #
straight-curve $-1 35 0 10 0 1 0 I I #
coedge $-1 $432 $416 $648 $649 forward $331 $-1 #
edge $-1 $650 -15 $417 35 $416 $651 forward 7 unknown #
point $-1 35 -35 10 #
loop $-1 $331 $652 $127 #
coedge $-1 $538 $538 $653 $654 forward $419 $-1 #
coedge $-1 $539 $539 $420 $540 reversed $655 $-1 #
edge $-1 $656 -3.141592653589800221 $656 3.141592653589786011 $420 $657 forward 7 unknown #
loop $-1 $-1 $421 $658 #
vertex $-1 $422 $659 #
ellipse-curve $-1 15 -35 -5 0 1 0 0 0 2 1 I I #
face $-1 $658 $423 $2 $-1 $660 forward single #
point $-1 20.00000000000001421 -35 -7 #
sphere-surface $-1 25 -35 -5 2 1 0 0 0 0 1 forward_v I I I I #
coedge $-1 $429 $428 $661 $662 reversed $430 $-1 #
face $-1 $438 $430 $2 $-1 $663 reversed single #
coedge $-1 $664 $661 $432 $550 forward $665 $-1 #
edge $-1 $551 -35 $666 -15 $432 $667 forward 7 unknown #
vertex $-1 $662 $668 #
straight-curve $-1 -35 -35 16 0 0 -1 I I #
coedge $-1 $437 $435 $669 $670 forward $336 $-1 #
coedge $-1 $661 $671 $435 $555 forward $665 $-1 #
edge $-1 $672 -25 $556 35 $435 $673 forward 7 unknown #
vertex $-1 $555 $674 #
straight-curve $-1 -35 35 16 0 0 -1 I I #
edge $-1 $440 -35 $675 -25 $437 $676 forward 7 unknown #
plane-surface $-1 0 35 0 0 -1 0 0 0 -1 forward_v I I I I #
point $-1 35 35 10 #
face $-1 $677 $678 $2 $-1 $413 reversed single #
loop $-1 $-1 $472 $442 #
coedge $-1 $679 $680 $681 $682 reversed $443 $-1 #
coedge $-1 $683 $444 $684 $685 forward $343 $-1 #
coedge $-1 $444 $683 $686 $687 forward $343 $-1 #
coedge $-1 $688 $615 $444 $567 forward $495 $-1 #
edge $-1 $689 -2 $690 4 $566 $691 forward 7 unknown #
coedge $-1 $446 $445 $626 $692 reversed $268 $-1 #
edge $-1 $510 -3.5 $629 3.5 $505 $314 forward 7 unknown #
coedge $-1 $693 $633 $446 $571 reversed $694 $-1 #
edge $-1 $695 -3.5 $572 3.5 $570 $578 forward 7 unknown #
vertex $-1 $447 $696 #
straight-curve $-1 -8.5 24 17 0 1 0 I I #
coedge $-1 $591 $459 $448 $575 forward $461 $-1 #
edge $-1 $579 8.5 $577 14.5 $574 $697 forward 7 unknown #
coedge $-1 $449 $601 $591 $698 reversed $562 $-1 #
vertex $-1 $575 $699 #
straight-curve $-1 -5 26 17 -1 0 0 I I #
vertex $-1 $575 $700 #
point $-1 -21.5 26 17 #
point $-1 -21.5 20 17 #
coedge $-1 $701 $648 $456 $583 reversed $702 $-1 #
edge $-1 $587 25 $650 30 $456 $703 forward 7 unknown #
coedge $-1 $704 $457 $460 $590 reversed $586 $-1 #
coedge $-1 $457 $704 $701 $705 forward $586 $-1 #
loop $-1 $-1 $457 $706 #
vertex $-1 $583 $707 #
straight-curve $-1 1.25 -30 10 1 0 0 I I #
coedge $-1 $460 $708 $709 $710 reversed $461 $-1 #
edge $-1 $711 -10 $462 6 $460 $712 forward 7 unknown #
coedge $-1 $713 $574 $576 $698 forward $461 $-1 #
face $-1 $714 $461 $2 $-1 $715 forward single #
point $-1 -30 -30 10 #
straight-curve $-1 -30 20 14.5 0 0 1 I I #
coedge $-1 $489 $716 $467 $596 forward $490 $-1 #
edge $-1 $717 -3 $597 7 $595 $718 forward 7 unknown #
vertex $-1 $493 $719 #
straight-curve $-1 -21.5 25 20 0 -1 0 I I #
coedge $-1 $720 $721 $471 $600 forward $722 $-1 #
edge $-1 $602 13.5 $717 17.5 $599 $277 forward 7 unknown #
coedge $-1 $576 $472 $721 $723 reversed $562 $-1 #
vertex $-1 $723 $724 #
straight-curve $-1 -21.5 26 11.5 0 0 1 I I #
face $-1 $725 $722 $2 $-1 $92 forward single #
loop $-1 $-1 $726 $474 #
plane-surface $-1 2.5 30 16 0 -1 0 0 0 -1 forward_v I I I I #
coedge $-1 $519 $480 $483 $610 forward $609 $-1 #
coedge $-1 $480 $519 $488 $612 forward $609 $-1 #
loop $-1 $-1 $607 $727 #
edge $-1 $484 -16 $526 -9 $607 $728 forward 7 unknown #
point $-1 -18.5 26 10 #
edge $-1 $522 12.75 $491 19.75 $608 $729 forward 7 unknown #
point $-1 -18.5 30 10 #
straight-curve $-1 -8.75 30 20 1 0 0 I I #
coedge $-1 $566 $730 $731 $732 forward $495 $-1 #
coedge $-1 $497 $733 $734 $735 forward $58 $-1 #
coedge $-1 $736 $737 $497 $618 reversed $738 $-1 #
edge $-1 $739 -7.5 $622 -2.5 $497 $740 forward 7 unknown #
coedge $-1 $741 $498 $737 $742 reversed $621 $-1 #
coedge $-1 $498 $741 $500 $625 forward $621 $-1 #
loop $-1 $-1 $498 $743 #
vertex $-1 $499 $744 #
straight-curve $-1 0 15 10 -1 0 0 I I #
coedge $-1 $745 $500 $746 $747 reversed $502 $-1 #
edge $-1 $748 -10 $503 0 $500 $749 forward 7 unknown #
coedge $-1 $501 $750 $568 $692 forward $502 $-1 #
face $-1 $743 $502 $2 $-1 $751 reversed single #
point $-1 -1.5 15 10 #
vertex $-1 $692 $752 #
straight-curve $-1 -1.5 20 11.5 0 0 -1 I I #
face $-1 $753 $754 $2 $-1 $252 reversed single #
coedge $-1 $512 $509 $755 $756 reversed $297 $-1 #
coedge $-1 $570 $757 $509 $634 reversed $694 $-1 #
edge $-1 $572 -5.5 $758 1.5 $509 $759 forward 7 unknown #
point $-1 -8.5 20 17 #
coedge $-1 $760 $521 $512 $637 forward $490 $-1 #
edge $-1 $638 -7 $761 3 $636 $762 forward 7 unknown #
vertex $-1 $524 $763 #
straight-curve $-1 -8.5 25 20 0 1 0 I I #
face $-1 $764 $765 $2 $-1 $766 forward single #
loop $-1 $-1 $767 $517 #
plane-surface $-1 10 15 10 0 1 0 0 0 1 forward_v I I I I #
point $-1 -11.5 30 10 #
straight-curve $-1 -3.75 30 20 1 0 0 I I #
point $-1 -11.5 26 10 #
coedge $-1 $768 $769 $770 $771 reversed $529 $-1 #
coedge $-1 $772 $531 $773 $774 forward $58 $-1 #
coedge $-1 $582 $775 $534 $649 reversed $702 $-1 #
edge $-1 $650 -6 $666 10 $534 $776 forward 7 unknown #
vertex $-1 $649 $777 #
straight-curve $-1 0 -35 10 1 0 0 I I #
coedge $-1 $652 $652 $778 $779 forward $537 $-1 #
coedge $-1 $653 $653 $538 $654 reversed $780 $-1 #
edge $-1 $781 -3.141592653589800221 $781 3.141592653589786011 $538 $782 forward 7 unknown #
loop $-1 $-1 $539 $783 #
vertex $-1 $540 $784 #
ellipse-curve $-1 10 -35 -5 0 1 0 0 0 2 1 I I #
face $-1 $783 $541 $2 $-1 $785 forward single #
point $-1 15.00000000000001421 -35 -7 #
sphere-surface $-1 20 -35 -5 2 1 0 0 0 0 1 forward_v I I I I #
coedge $-1 $549 $554 $547 $662 forward $665 $-1 #
edge $-1 $556 -35 $551 35 $547 $786 forward 7 unknown #
plane-surface $-1 -35 0 0 1 0 0 0 0 -1 forward_v I I I I #
coedge $-1 $787 $549 $775 $788 forward $665 $-1 #
loop $-1 $-1 $664 $789 #
vertex $-1 $550 $790 #
straight-curve $-1 0 -35 26 1 0 0 I I #
point $-1 -35 -35 26 #
coedge $-1 $791 $773 $553 $670 reversed $792 $-1 #
edge $-1 $672 -10 $675 6 $553 $793 forward 7 unknown #
coedge $-1 $554 $794 $791 $795 forward $665 $-1 #
vertex $-1 $670 $796 #
straight-curve $-1 0 35 26 -1 0 0 I I #
point $-1 -35 35 26 #
vertex $-1 $558 $797 #
straight-curve $-1 0 35 10 -1 0 0 I I #
face $-1 $798 $799 $2 $-1 $413 reversed single #
loop $-1 $-1 $731 $561 #
coedge $-1 $800 $563 $801 $802 forward $443 $-1 #
coedge $-1 $563 $800 $803 $804 forward $443 $-1 #
coedge $-1 $805 $806 $563 $682 forward $807 $-1 #
edge $-1 $808 -4 $809 2 $681 $810 forward 7 unknown #
coedge $-1 $565 $564 $811 $812 reversed $343 $-1 #
coedge $-1 $731 $813 $564 $685 reversed $678 $-1 #
edge $-1 $689 -13.5 $814 -6.5 $684 $578 forward 7 unknown #
coedge $-1 $815 $816 $565 $687 reversed $754 $-1 #
edge $-1 $817 6.5 $690 13.5 $686 $314 forward 7 unknown #
coedge $-1 $818 $566 $816 $819 forward $495 $-1 #
vertex $-1 $567 $820 #
vertex $-1 $567 $821 #
straight-curve $-1 8.5 24 17 0 -1 0 I I #
edge $-1 $695 -2 $629 4 $626 $822 forward 7 unknown #
coedge $-1 $757 $570 $750 $823 reversed $694 $-1 #
loop $-1 $-1 $633 $798 #
vertex $-1 $692 $824 #
point $-1 -8.5 26 17 #
straight-curve $-1 -30 11.5 17 0 1 0 I I #
edge $-1 $577 -2.5 $825 4.5 $591 $826 forward 7 unknown #
point $-1 -30 26 17 #
point $-1 -30 20 17 #
coedge $-1 $775 $582 $585 $705 reversed $702 $-1 #
loop $-1 $-1 $582 $827 #
straight-curve $-1 -15 -5 10 0 -1 0 I I #
coedge $-1 $585 $584 $787 $828 reversed $586 $-1 #
edge $-1 $829 -10 $587 6 $585 $830 forward 7 unknown #
face $-1 $592 $586 $2 $-1 $831 forward single #
point $-1 -15 -30 10 #
coedge $-1 $589 $713 $832 $833 reversed $461 $-1 #
coedge $-1 $794 $787 $589 $710 forward $665 $-1 #
edge $-1 $711 -30 $834 30 $709 $835 forward 7 unknown #
vertex $-1 $828 $836 #
straight-curve $-1 -30 -30 16 0 0 -1 I I #
coedge $-1 $708 $591 $837 $838 reversed $461 $-1 #
face $-1 $827 $792 $2 $-1 $839 forward single #
plane-surface $-1 -30 0 16 1 0 0 0 0 -1 forward_v I I I I #
coedge $-1 $595 $832 $720 $840 reversed $490 $-1 #
vertex $-1 $600 $841 #
straight-curve $-1 -21.5 30 13 0 0 1 I I #
point $-1 -21.5 30 20 #
coedge $-1 $837 $599 $716 $840 forward $722 $-1 #
coedge $-1 $599 $837 $601 $723 forward $722 $-1 #
loop $-1 $-1 $721 $604 #
edge $-1 $825 -27.5 $602 -19 $721 $728 forward 7 unknown #
point $-1 -21.5 26 10 #
face $-1 $727 $842 $2 $-1 $92 forward single #
coedge $-1 $843 $755 $757 $844 forward $605 $-1 #
face $-1 $426 $609 $2 $-1 $92 forward single #
straight-curve $-1 -2.5 26 10 1 0 0 I I #
straight-curve $-1 1.25 30 10 -1 0 0 I I #
coedge $-1 $615 $845 $846 $847 reversed $495 $-1 #
coedge $-1 $848 $684 $615 $732 reversed $678 $-1 #
edge $-1 $849 -1.5 $689 5.5 $615 $850 forward 7 unknown #
coedge $-1 $616 $851 $818 $852 forward $58 $-1 #
coedge $-1 $816 $815 $616 $735 reversed $754 $-1 #
edge $-1 $853 -11 $739 -4 $616 $167 forward 7 unknown #
coedge $-1 $811 $617 $815 $854 forward $738 $-1 #
coedge $-1 $617 $855 $619 $742 forward $738 $-1 #
loop $-1 $-1 $856 $857 #
vertex $-1 $854 $858 #
straight-curve $-1 1.5 12.5 10 0 -1 0 I I #
coedge $-1 $620 $619 $859 $860 reversed $621 $-1 #
edge $-1 $861 -10 $622 0 $737 $862 forward 7 unknown #
face $-1 $863 $621 $2 $-1 $864 reversed single #
point $-1 1.5 15 10 #
coedge $-1 $865 $624 $866 $867 reversed $502 $-1 #
coedge $-1 $859 $868 $624 $747 forward $869 $-1 #
edge $-1 $870 -5 $748 10 $624 $871 forward 7 unknown #
vertex $-1 $747 $872 #
straight-curve $-1 -1.5 15 10 0 0 -1 I I #
coedge $-1 $626 $865 $693 $823 forward $502 $-1 #
plane-surface $-1 -1.5 25 10 1 0 0 0 0 -1 forward_v I I I I #
point $-1 -1.5 20 17 #
face $-1 $465 $873 $2 $-1 $252 reversed single #
loop $-1 $-1 $816 $631 #
coedge $-1 $726 $874 $632 $756 forward $605 $-1 #
edge $-1 $761 -17.5 $758 -13.5 $755 $299 forward 7 unknown #
coedge $-1 $633 $693 $726 $844 reversed $694 $-1 #
vertex $-1 $756 $875 #
straight-curve $-1 -8.5 26 11.5 0 0 -1 I I #
coedge $-1 $866 $636 $874 $876 reversed $490 $-1 #
vertex $-1 $876 $877 #
straight-curve $-1 -8.5 30 13 0 0 -1 I I #
point $-1 -8.5 30 20 #
face $-1 $627 $807 $2 $-1 $878 reversed single #
loop $-1 $-1 $879 $640 #
plane-surface $-1 10 25 20 0 0 1 1 0 0 forward_v I I I I #
coedge $-1 $880 $881 $851 $882 reversed $641 $-1 #
coedge $-1 $883 $646 $884 $885 reversed $529 $-1 #
coedge $-1 $646 $883 $886 $887 forward $529 $-1 #
coedge $-1 $888 $889 $646 $771 forward $58 $-1 #
edge $-1 $890 -14.5 $891 -8.5 $770 $892 forward 7 unknown #
coedge $-1 $893 $647 $894 $895 forward $58 $-1 #
coedge $-1 $669 $896 $647 $774 reversed $792 $-1 #
edge $-1 $675 -35 $897 -30 $647 $898 forward 7 unknown #
coedge $-1 $648 $701 $664 $788 reversed $702 $-1 #
straight-curve $-1 -15 -35 16 0 0 1 I I #
point $-1 -15 -35 10 #
coedge $-1 $778 $778 $652 $779 reversed $899 $-1 #
edge $-1 $900 -3.141592653589800221 $900 3.141592653589786011 $652 $901 forward 7 unknown #
loop $-1 $-1 $653 $902 #
vertex $-1 $654 $903 #
ellipse-curve $-1 5 -35 -5 0 1 0 0 0 2 1 I I #
face $-1 $902 $655 $2 $-1 $904 forward single #
point $-1 10.00000000000001421 -35 -7 #
sphere-surface $-1 15 -35 -5 2 1 0 0 0 0 1 forward_v I I I I #
straight-curve $-1 -35 0 26 0 -1 0 I I #
coedge $-1 $709 $664 $704 $828 forward $665 $-1 #
edge $-1 $666 -30 $829 -25 $664 $905 forward 7 unknown #
face $-1 $548 $665 $2 $-1 $906 forward single #
point $-1 -15 -35 26 #
coedge $-1 $896 $669 $671 $795 reversed $792 $-1 #
loop $-1 $-1 $773 $714 #
straight-curve $-1 25 35 16 0 0 -1 I I #
coedge $-1 $671 $709 $907 $908 forward $665 $-1 #
edge $-1 $909 30 $672 35 $671 $910 forward 7 unknown #
point $-1 25 35 26 #
point $-1 25 35 10 #
face $-1 $507 $694 $2 $-1 $413 reversed single #
loop $-1 $-1 $911 $677 #
coedge $-1 $680 $679 $883 $912 forward $443 $-1 #
coedge $-1 $913 $886 $679 $802 reversed $873 $-1 #
edge $-1 $808 16.5 $914 25 $801 $314 forward 7 unknown #
coedge $-1 $884 $915 $680 $804 reversed $799 $-1 #
edge $-1 $916 -25 $809 -16.5 $803 $578 forward 7 unknown #
coedge $-1 $917 $681 $915 $918 forward $807 $-1 #
coedge $-1 $681 $919 $913 $920 forward $807 $-1 #
loop $-1 $-1 $805 $764 #
vertex $-1 $682 $921 #
vertex $-1 $682 $922 #
straight-curve $-1 11.5 24 17 0 1 0 I I #
coedge $-1 $856 $736 $683 $812 forward $738 $-1 #
edge $-1 $817 -4 $814 2 $811 $923 forward 7 unknown #
coedge $-1 $684 $848 $856 $924 reversed $678 $-1 #
vertex $-1 $812 $925 #
coedge $-1 $734 $686 $736 $854 reversed $754 $-1 #
coedge $-1 $686 $734 $688 $819 reversed $754 $-1 #
vertex $-1 $812 $926 #
coedge $-1 $927 $688 $733 $852 reversed $495 $-1 #
edge $-1 $690 -5.5 $853 1.5 $688 $928 forward 7 unknown #
point $-1 8.5 26 17 #
point $-1 8.5 20 17 #
straight-curve $-1 -1.5 24 17 0 -1 0 I I #
edge $-1 $929 -1.5 $695 5.5 $750 $930 forward 7 unknown #
point $-1 -1.5 26 17 #
vertex $-1 $838 $931 #
straight-curve $-1 -30 26 14.5 0 0 -1 I I #
face $-1 $789 $702 $2 $-1 $932 forward single #
edge $-1 $829 16.25 $711 31.25 $787 $933 forward 7 unknown #
vertex $-1 $705 $934 #
straight-curve $-1 -15 -30 16 0 0 -1 I I #
plane-surface $-1 2.5 -30 16 0 1 0 0 0 1 forward_v I I I I #
coedge $-1 $716 $907 $708 $833 forward $490 $-1 #
edge $-1 $834 -10 $935 6 $832 $936 forward 7 unknown #
vertex $-1 $710 $937 #
straight-curve $-1 -30 0 26 0 1 0 I I #
point $-1 -30 -30 26 #
coedge $-1 $721 $720 $713 $838 forward $722 $-1 #
edge $-1 $935 -30 $825 -26 $837 $463 forward 7 unknown #
plane-surface $-1 25 0 16 1 0 0 0 0 -1 forward_v I I I I #
edge $-1 $717 22.75 $935 31.25 $720 $729 forward 7 unknown #
point $-1 -21.5 30 10 #
loop $-1 $-1 $938 $725 #
coedge $-1 $874 $726 $865 $939 forward $605 $-1 #
edge $-1 $758 -6 $929 1 $726 $728 forward 7 unknown #
coedge $-1 $730 $940 $941 $942 reversed $495 $-1 #
coedge $-1 $943 $938 $730 $847 forward $842 $-1 #
edge $-1 $849 13.5 $944 17.5 $846 $945 forward 7 unknown #
coedge $-1 $813 $731 $938 $946 reversed $678 $-1 #
vertex $-1 $946 $947 #
straight-curve $-1 8.5 26 11.5 0 0 1 I I #
coedge $-1 $733 $948 $767 $882 forward $58 $-1 #
edge $-1 $949 2.5 $853 7.5 $733 $945 forward 7 unknown #
vertex $-1 $852 $950 #
edge $-1 $739 -1.5 $817 5.5 $736 $951 forward 7 unknown #
coedge $-1 $737 $952 $953 $954 reversed $738 $-1 #
coedge $-1 $955 $811 $813 $924 forward $738 $-1 #
face $-1 $706 $738 $2 $-1 $956 reversed single #
point $-1 1.5 20 10 #
coedge $-1 $953 $746 $741 $860 forward $869 $-1 #
edge $-1 $748 -1.5 $861 1.5 $741 $957 forward 7 unknown #
vertex $-1 $954 $958 #
straight-curve $-1 1.5 15 10 0 0 -1 I I #
face $-1 $857 $869 $2 $-1 $959 forward single #
plane-surface $-1 0 15 10 0 1 0 0 0 1 forward_v I I I I #
coedge $-1 $750 $745 $843 $939 reversed $502 $-1 #
coedge $-1 $960 $760 $745 $867 forward $490 $-1 #
edge $-1 $961 -3 $870 7 $866 $962 forward 7 unknown #
coedge $-1 $746 $953 $960 $963 reversed $869 $-1 #
loop $-1 $-1 $868 $863 #
vertex $-1 $963 $964 #
straight-curve $-1 -1.5 25 20 0 -1 0 I I #
point $-1 -1.5 15 20 #
loop $-1 $-1 $965 $753 #
coedge $-1 $755 $843 $760 $876 forward $605 $-1 #
point $-1 -8.5 26 10 #
edge $-1 $961 2.75 $761 9.75 $874 $729 forward 7 unknown #
point $-1 -8.5 30 10 #
plane-surface $-1 11.5 25 10 -1 0 0 0 0 1 forward_v I I I I #
coedge $-1 $966 $967 $968 $969 reversed $765 $-1 #
coedge $-1 $970 $767 $971 $972 reversed $641 $-1 #
coedge $-1 $767 $970 $927 $973 forward $641 $-1 #
edge $-1 $974 -6.5 $949 -3.5 $851 $975 forward 7 unknown #
coedge $-1 $769 $768 $800 $912 reversed $529 $-1 #
coedge $-1 $911 $803 $768 $885 forward $799 $-1 #
edge $-1 $916 -4 $890 3 $768 $976 forward 7 unknown #
coedge $-1 $801 $965 $769 $887 reversed $873 $-1 #
edge $-1 $914 -4 $891 3 $769 $977 forward 7 unknown #
coedge $-1 $948 $770 $965 $978 forward $58 $-1 #
coedge $-1 $770 $893 $911 $979 forward $58 $-1 #
vertex $-1 $979 $980 #
vertex $-1 $978 $981 #
straight-curve $-1 20 11.5 10 0 -1 0 I I #
coedge $-1 $889 $772 $917 $982 forward $58 $-1 #
coedge $-1 $983 $984 $772 $895 reversed $490 $-1 #
edge $-1 $897 -23.75 $985 -10.25 $772 $729 forward 7 unknown #
coedge $-1 $773 $791 $983 $986 reversed $792 $-1 #
vertex $-1 $774 $987 #
straight-curve $-1 25 0 10 0 -1 0 I I #
loop $-1 $-1 $778 $988 #
vertex $-1 $779 $989 #
ellipse-curve $-1 0 -35 -5 0 1 0 0 0 2 1 I I #
face $-1 $988 $780 $2 $-1 $990 forward single #
point $-1 5.000000000000014211 -35 -7 #
sphere-surface $-1 10 -35 -5 2 1 0 0 0 0 1 forward_v I I I I #
straight-curve $-1 -15 -5 26 0 1 0 I I #
plane-surface $-1 0 0 26 0 0 1 1 0 0 forward_v I I I I #
coedge $-1 $832 $983 $794 $908 reversed $490 $-1 #
edge $-1 $834 -31.25 $909 23.75 $794 $991 forward 7 unknown #
vertex $-1 $908 $992 #
straight-curve $-1 25 0 26 0 1 0 I I #
coedge $-1 $915 $884 $889 $979 reversed $799 $-1 #
edge $-1 $914 -3 $916 3 $883 $993 forward 7 unknown #
coedge $-1 $965 $801 $806 $920 reversed $873 $-1 #
vertex $-1 $912 $994 #
coedge $-1 $803 $911 $805 $918 reversed $799 $-1 #
vertex $-1 $912 $995 #
coedge $-1 $996 $805 $893 $982 reversed $807 $-1 #
edge $-1 $809 -5.5 $997 1.5 $805 $998 forward 7 unknown #
coedge $-1 $806 $971 $948 $999 reversed $807 $-1 #
edge $-1 $1000 -1.5 $808 5.5 $806 $1001 forward 7 unknown #
point $-1 11.5 20 17 #
point $-1 11.5 26 17 #
straight-curve $-1 1.5 24 17 0 1 0 I I #
edge $-1 $814 -5.5 $1002 1.5 $856 $1003 forward 7 unknown #
point $-1 1.5 26 17 #
point $-1 1.5 20 17 #
coedge $-1 $940 $818 $881 $973 reversed $495 $-1 #
straight-curve $-1 8.5 20 11.5 0 0 -1 I I #
vertex $-1 $823 $1004 #
straight-curve $-1 -1.5 26 11.5 0 0 1 I I #
point $-1 -30 26 10 #
plane-surface $-1 -15 -10 16 1 0 0 0 0 -1 forward_v I I I I #
straight-curve $-1 1.25 -30 26 -1 0 0 I I #
point $-1 -15 -30 26 #
vertex $-1 $838 $1005 #
straight-curve $-1 -30 30 16 0 0 -1 I I #
point $-1 -30 30 26 #
coedge $-1 $846 $1006 $848 $946 forward $842 $-1 #
edge $-1 $929 13.5 $961 17.5 $843 $504 forward 7 unknown #
coedge $-1 $845 $927 $966 $1007 reversed $495 $-1 #
coedge $-1 $968 $1008 $845 $942 forward $490 $-1 #
edge $-1 $944 -3 $1009 7 $941 $1010 forward 7 unknown #
coedge $-1 $1006 $846 $1008 $1011 forward $842 $-1 #
vertex $-1 $847 $1012 #
straight-curve $-1 8.5 12.5 10 0 1 0 I I #
edge $-1 $1002 4 $849 11 $938 $728 forward 7 unknown #
point $-1 8.5 26 10 #
coedge $-1 $851 $888 $919 $999 forward $58 $-1 #
vertex $-1 $882 $1013 #
point $-1 8.5 20 10 #
straight-curve $-1 1.5 20 11.5 0 0 1 I I #
coedge $-1 $855 $955 $1014 $1015 reversed $738 $-1 #
coedge $-1 $868 $859 $855 $954 forward $869 $-1 #
edge $-1 $861 -10 $1016 5 $855 $1017 forward 7 unknown #
coedge $-1 $952 $856 $1006 $1018 reversed $738 $-1 #
plane-surface $-1 1.5 25 10 -1 0 0 0 0 1 forward_v I I I I #
straight-curve $-1 0 15 20 1 0 0 I I #
point $-1 1.5 15 20 #
plane-surface $-1 0 25 20 0 0 1 1 0 0 forward_v I I I I #
coedge $-1 $1014 $866 $868 $963 forward $490 $-1 #
vertex $-1 $939 $1019 #
straight-curve $-1 -1.5 30 13 0 0 1 I I #
edge $-1 $870 -2.75 $1016 0.25 $960 $1020 forward 7 unknown #
point $-1 -1.5 30 20 #
coedge $-1 $886 $913 $888 $978 reversed $873 $-1 #
coedge $-1 $1021 $879 $940 $1007 forward $765 $-1 #
coedge $-1 $879 $1021 $1022 $1023 forward $765 $-1 #
coedge $-1 $984 $941 $879 $969 forward $490 $-1 #
edge $-1 $1009 2.25 $1024 5.25 $968 $1025 forward 7 unknown #
coedge $-1 $881 $880 $1021 $1026 reversed $641 $-1 #
coedge $-1 $919 $1022 $880 $972 forward $807 $-1 #
edge $-1 $1027 -10 $974 0 $971 $1028 forward 7 unknown #
edge $-1 $1029 -10 $949 0 $927 $1030 forward 7 unknown #
vertex $-1 $882 $1031 #
straight-curve $-1 5 15 10 -1 0 0 I I #
straight-curve $-1 20 26 13 0 0 -1 I I #
straight-curve $-1 20 20 13 0 0 -1 I I #
edge $-1 $891 -22.5 $1000 -14 $888 $167 forward 7 unknown #
edge $-1 $997 14 $890 22.5 $889 $728 forward 7 unknown #
point $-1 20 26 10 #
point $-1 20 20 10 #
edge $-1 $985 -17.5 $997 -13.5 $893 $1032 forward 7 unknown #
coedge $-1 $907 $894 $896 $986 forward $490 $-1 #
coedge $-1 $894 $968 $996 $1033 forward $490 $-1 #
vertex $-1 $895 $1034 #
edge $-1 $897 -6 $909 10 $983 $1035 forward 7 unknown #
point $-1 25 30 10 #
face $-1 $280 $899 $2 $-1 $1036 forward single #
point $-1 1.421085471520200372e-14 -35 -7 #
sphere-surface $-1 5 -35 -5 2 1 0 0 0 0 1 forward_v I I I I #
straight-curve $-1 1.25 30 26 1 0 0 I I #
point $-1 25 30 26 #
straight-curve $-1 20 23 17 0 1 0 I I #
point $-1 20 20 17 #
point $-1 20 26 17 #
coedge $-1 $1022 $917 $984 $1033 reversed $807 $-1 #
vertex $-1 $982 $1037 #
straight-curve $-1 11.5 26 11.5 0 0 -1 I I #
edge $-1 $1000 -7.5 $974 -2.5 $948 $1032 forward 7 unknown #
vertex $-1 $920 $1038 #
straight-curve $-1 11.5 20 11.5 0 0 1 I I #
vertex $-1 $1018 $1039 #
straight-curve $-1 1.5 26 11.5 0 0 -1 I I #
point $-1 -1.5 26 10 #
point $-1 -30 30 10 #
coedge $-1 $938 $943 $955 $1018 forward $842 $-1 #
edge $-1 $1009 -5 $1029 10 $940 $1040 forward 7 unknown #
coedge $-1 $941 $1014 $943 $1011 reversed $490 $-1 #
vertex $-1 $969 $1041 #
straight-curve $-1 8.5 30 13 0 0 1 I I #
edge $-1 $944 -7.25 $1042 -0.25 $943 $729 forward 7 unknown #
point $-1 8.5 30 10 #
point $-1 8.5 15 10 #
coedge $-1 $1008 $960 $952 $1015 forward $490 $-1 #
edge $-1 $1016 -7 $1042 3 $1014 $1043 forward 7 unknown #
vertex $-1 $963 $1044 #
straight-curve $-1 1.5 25 20 0 1 0 I I #
edge $-1 $1042 -17.5 $1002 -13.5 $1006 $740 forward 7 unknown #
point $-1 -1.5 30 10 #
straight-curve $-1 1.25 30 20 1 0 0 I I #
coedge $-1 $967 $966 $970 $1026 forward $765 $-1 #
coedge $-1 $971 $996 $967 $1023 reversed $807 $-1 #
edge $-1 $1027 -10 $1024 5 $1022 $1045 forward 7 unknown #
vertex $-1 $969 $1046 #
straight-curve $-1 6.25 30 20 1 0 0 I I #
edge $-1 $1029 -1.5 $1027 1.5 $970 $1047 forward 7 unknown #
vertex $-1 $1023 $1048 #
straight-curve $-1 11.5 15 10 0 0 -1 I I #
vertex $-1 $1007 $1049 #
straight-curve $-1 8.5 15 10 0 0 -1 I I #
point $-1 11.5 15 10 #
straight-curve $-1 11.5 12.5 10 0 -1 0 I I #
edge $-1 $1024 -7 $985 3 $984 $1050 forward 7 unknown #
point $-1 11.5 30 10 #
straight-curve $-1 25 30 16 0 0 1 I I #
sphere-surface $-1 0 -35 -5 2 1 0 0 0 0 1 forward_v I I I I #
point $-1 11.5 26 10 #
point $-1 11.5 20 10 #
point $-1 1.5 26 10 #
straight-curve $-1 8.5 25 20 0 -1 0 I I #
point $-1 8.5 30 20 #
vertex $-1 $1011 $1051 #
straight-curve $-1 1.5 30 13 0 0 -1 I I #
point $-1 1.5 30 20 #
straight-curve $-1 11.5 25 20 0 1 0 I I #
point $-1 11.5 30 20 #
straight-curve $-1 10 15 20 1 0 0 I I #
point $-1 11.5 15 20 #
point $-1 8.5 15 20 #
straight-curve $-1 11.5 30 13 0 0 -1 I I #
point $-1 1.5 30 10 #
End-of-ACIS-data 