600 0 1 0           
110 GICL ACIS Healer - Source: /gicl/data5/repository/PTC/V20/web_demos/models/simpreps/cone_casting.prt.sat - 6 0 18 ACIS 6.0.3 Solaris 24 Sat Apr 13 20:48:52 2002 
1 9.999999999999999547e-07 1.000000000000000036e-10 
body $-1 $1 $-1 $-1 #
lump $-1 $-1 $2 $0 #
shell $-1 $-1 $-1 $3 $-1 $1 #
face $-1 $4 $5 $2 $-1 $6 reversed single #
face $-1 $7 $8 $2 $-1 $9 forward single #
loop $-1 $-1 $10 $3 #
plane-surface $-1 0 0 0 1 0 0 0 -25.39999999999999858 0 forward_v I I I I #
face $-1 $11 $12 $2 $-1 $9 forward single #
loop $-1 $-1 $13 $4 #
cone-surface $-1 -4.444999999999999396 0 0 1 0 0 0 -60.32499999999999574 0 1 I I 0 1 60.32499999999999574 forward I I I I #
coedge $-1 $14 $14 $15 $16 reversed $5 $-1 #
face $-1 $17 $18 $2 $-1 $19 forward single #
loop $-1 $-1 $20 $7 #
coedge $-1 $15 $21 $22 $23 forward $8 $-1 #
coedge $-1 $10 $10 $24 $25 forward $5 $-1 #
coedge $-1 $26 $13 $10 $16 forward $8 $-1 #
edge $-1 $27 -3.141592653589793116 $28 0 $10 $29 forward 7 unknown #
face $-1 $30 $31 $2 $-1 $19 forward single #
loop $-1 $-1 $32 $11 #
torus-surface $-1 42.95096834287633669 0 0 1 0 0 53.97499999999999432 6.349999999999999645 0 0.9999888830837656561 0.004715263394859123616 forward_v I I I I #
coedge $-1 $24 $33 $26 $34 forward $12 $-1 #
coedge $-1 $13 $26 $35 $36 forward $8 $-1 #
coedge $-1 $33 $24 $13 $23 reversed $12 $-1 #
edge $-1 $37 -1.118964938204882167e-15 $27 1.690983005625052549 $13 $38 forward 7 unknown #
coedge $-1 $22 $20 $14 $25 reversed $12 $-1 #
edge $-1 $27 -3.141592653589793116 $28 -0 $14 $39 reversed 7 unknown #
coedge $-1 $21 $15 $20 $34 reversed $8 $-1 #
vertex $-1 $25 $40 #
vertex $-1 $25 $41 #
ellipse-curve $-1 0 0 0 1 0 0 0 -60.32499999999999574 0 1 I I #
face $-1 $42 $43 $2 $-1 $44 forward single #
loop $-1 $-1 $45 $17 #
coedge $-1 $46 $47 $48 $49 forward $18 $-1 #
coedge $-1 $20 $22 $47 $50 forward $12 $-1 #
edge $-1 $51 -1.958188641858543891e-15 $28 1.690983005625052549 $26 $52 forward 7 unknown #
coedge $-1 $45 $48 $21 $36 reversed $31 $-1 #
edge $-1 $51 -1.298136434947557236e-12 $37 3.141592653592718776 $21 $53 reversed 7 unknown #
vertex $-1 $36 $54 #
straight-curve $-1 42.95096834287632959 60.32499999999999574 7.387437829433490179e-15 -25.39999999999999858 0 0 I I #
ellipse-curve $-1 0 0 0 1 0 0 0 -60.32499999999999574 0 1 I I #
point $-1 0 60.32499999999999574 0 #
point $-1 0 -60.32499999999999574 0 #
face $-1 $55 $56 $2 $-1 $44 forward single #
loop $-1 $-1 $57 $30 #
cone-surface $-1 139.6999999999999886 0 0 1 0 0 0 -12.70000000000000284 0 1 I I -0.4472135954999580387 0.8944271909999158554 12.70000000000000284 forward I I I I #
coedge $-1 $58 $35 $59 $60 forward $31 $-1 #
coedge $-1 $59 $32 $61 $62 forward $18 $-1 #
coedge $-1 $32 $59 $33 $50 reversed $18 $-1 #
coedge $-1 $35 $58 $32 $49 reversed $31 $-1 #
edge $-1 $37 -3.783498239679363905e-15 $63 0.4636476090011222295 $48 $64 forward 7 unknown #
edge $-1 $37 -3.141592653586867456 $51 -1.298136434947557236e-12 $33 $65 reversed 7 unknown #
vertex $-1 $36 $66 #
straight-curve $-1 42.95096834287632959 -60.32499999999999574 -1.477487565886698036e-14 -25.39999999999999858 0 0 I I #
ellipse-curve $-1 42.95096834287633669 0 0 1 0 0 0 -60.32499999999999574 0 1 I I #
point $-1 42.95096834287635801 60.32499999999999574 -1.765059839300158946e-10 #
face $-1 $67 $68 $2 $-1 $69 forward single #
loop $-1 $-1 $70 $42 #
coedge $-1 $71 $72 $73 $74 reversed $43 $-1 #
coedge $-1 $48 $45 $72 $75 forward $31 $-1 #
coedge $-1 $47 $46 $45 $60 reversed $18 $-1 #
edge $-1 $51 -1.194078953678057249e-36 $76 0.4636476090009817863 $45 $77 forward 7 unknown #
coedge $-1 $70 $73 $46 $62 reversed $56 $-1 #
edge $-1 $63 -3.141592653590007611 $76 -1.07342566208250676e-12 $61 $78 reversed 7 unknown #
vertex $-1 $75 $79 #
ellipse-curve $-1 42.95096834287636511 53.97500000000014353 1.255348581841947274e-09 -4.878463057093175796e-11 -1.853609833196639208e-10 -1 1.691979889528738315e-14 6.349999999999853095 -1.177042244079839606e-09 1 I I #
ellipse-curve $-1 42.95096834287633669 0 0 1 0 0 0 -60.32499999999999574 0 1 I I #
point $-1 42.95096834287637932 -60.32499999999999574 -7.831008043821138232e-11 #
face $-1 $80 $81 $2 $-1 $69 forward single #
loop $-1 $-1 $82 $55 #
torus-surface $-1 82.54999999999999716 0 0 1 0 0 34.17548417143816408 6.349999999999999645 0 0.9999832957210265105 0.005779989525426602534 forward_v I I I I #
coedge $-1 $83 $61 $84 $85 reversed $56 $-1 #
coedge $-1 $84 $57 $86 $87 forward $43 $-1 #
coedge $-1 $57 $84 $58 $75 reversed $43 $-1 #
coedge $-1 $61 $83 $57 $74 forward $56 $-1 #
edge $-1 $88 -1.052125340664426352e-13 $76 1.743033988749852492 $57 $89 forward 7 unknown #
edge $-1 $76 -1.07342566208250676e-12 $63 3.141592653589578621 $72 $90 reversed 7 unknown #
vertex $-1 $75 $91 #
ellipse-curve $-1 42.95096834287637932 -53.97500000000016485 -1.255504428253679393e-09 -4.879029983454978212e-11 1.853849366638581853e-10 1 0 -6.349999999999830891 1.177194347815467997e-09 1 I I #
ellipse-curve $-1 45.79077467430107617 0 0 1 0 0 0 -59.65461266284947328 0 1 I I #
point $-1 45.79077467430284543 59.654612662848578 1.280667596763012792e-11 #
face $-1 $-1 $92 $2 $-1 $93 forward single #
loop $-1 $-1 $94 $67 #
coedge $-1 $95 $96 $97 $98 forward $68 $-1 #
coedge $-1 $73 $70 $96 $99 forward $56 $-1 #
coedge $-1 $72 $71 $70 $85 forward $43 $-1 #
edge $-1 $100 -8.331931948662310701e-14 $63 1.743033988749816965 $84 $101 forward 7 unknown #
coedge $-1 $94 $97 $71 $87 reversed $81 $-1 #
edge $-1 $88 4.30176878590095432e-12 $100 3.141592653586074757 $71 $102 reversed 7 unknown #
vertex $-1 $87 $103 #
straight-curve $-1 85.38980633142473664 -39.85509683428763594 -9.761360963094949373e-15 -22.71845065139786257 -11.35922532569893129 -2.782115901670195125e-15 I I #
ellipse-curve $-1 45.79077467430107617 0 0 1 0 0 0 -59.65461266284947328 0 1 I I #
point $-1 45.79077467430203541 -59.65461266284898301 -6.403479209389416108e-11 #
loop $-1 $-1 $104 $80 #
plane-surface $-1 88.89999999999999147 0 0 1 0 0 0 -25.39999999999999858 0 forward_v I I I I #
coedge $-1 $105 $86 $106 $107 forward $81 $-1 #
coedge $-1 $106 $82 $108 $109 forward $68 $-1 #
coedge $-1 $82 $106 $83 $99 reversed $68 $-1 #
coedge $-1 $86 $105 $82 $98 reversed $81 $-1 #
edge $-1 $100 8.943887497249363831e-16 $110 1.107148717793752901 $82 $111 forward 7 unknown #
edge $-1 $100 -3.141592653593511475 $88 4.30176878590095432e-12 $83 $112 reversed 7 unknown #
vertex $-1 $85 $113 #
straight-curve $-1 85.38980633142473664 39.85509683428763594 4.880680481547474686e-15 -22.71845065139786257 11.35922532569893129 1.391057950835097563e-15 I I #
ellipse-curve $-1 85.38980633142473664 0 0 1 0 0 0 -39.85509683428763594 0 1 I I #
point $-1 85.38980633142712406 -39.85509683428643513 1.714474115207933254e-10 #
coedge $-1 $108 $108 $105 $114 reversed $92 $-1 #
coedge $-1 $97 $94 $104 $114 forward $81 $-1 #
coedge $-1 $96 $95 $94 $107 reversed $68 $-1 #
edge $-1 $88 8.494892039596712749e-14 $115 1.107148717793758008 $106 $116 forward 7 unknown #
coedge $-1 $104 $104 $95 $109 reversed $92 $-1 #
edge $-1 $110 -1.570796326794896114 $115 1.570796326794896114 $108 $117 reversed 7 unknown #
vertex $-1 $109 $118 #
ellipse-curve $-1 82.54999999999996874 34.17548417143815698 2.948726615591246458e-08 -4.643666345071051201e-09 -2.84384841704006389e-09 -1 2.839806331426652619 5.679612662848528615 -2.933907056840812436e-08 1 I I #
ellipse-curve $-1 85.38980633142473664 0 0 1 0 0 0 -39.85509683428763594 0 1 I I #
point $-1 85.38980633142662668 39.85509683428668382 1.481955875043406093e-10 #
edge $-1 $115 -4.712388980384689674 $110 -1.570796326794896114 $104 $119 reversed 7 unknown #
vertex $-1 $109 $120 #
ellipse-curve $-1 82.55000000000001137 -34.17548417143817119 -2.948736856173626564e-08 -4.6436776702578963e-09 2.843860753205336011e-09 1 2.839806331426629971 -5.679612662848505522 2.933917279438575084e-08 1 I I #
ellipse-curve $-1 88.89999999999999147 0 0 1 0 0 0 0 -34.17548417143816408 1 I I #
point $-1 88.89999999999999147 34.17548417143816408 -1.513528885555004359e-14 #
ellipse-curve $-1 88.89999999999999147 0 0 1 0 0 0 0 -34.17548417143816408 1 I I #
point $-1 88.89999999999999147 -34.17548417143815698 -1.938726956751679293e-14 #
End-of-ACIS-data 