700 0 2 0           
24 FBMach with ACIS - 7.0.3 13 ACIS 7.0.3 NT 24 Tue May 14 15:28:50 2002 
1 9.9999999999999995e-007 1e-010 
body $2 -1 $-1 $3 $-1 $4 #
bdycol-kcp $-1 -1 1 2 $5 $6 #
model_id-kcp-attrib $-1 -1 $-1 $-1 $0 1 1021404529 1021404530 -1139081215 1 #
lump $-1 -1 $-1 $-1 $7 $0 #
transform $-1 -1 1 0 0 0 1 0 0 0 1 0 0 0 1 rotate no_reflect no_shear #
body $8 -1 $-1 $9 $-1 $10 #
body $11 -1 $-1 $12 $-1 $13 #
shell $-1 -1 $-1 $-1 $-1 $14 $-1 $3 #
model_id-kcp-attrib $-1 -1 $-1 $-1 $5 1 1021404529 1021404530 -1138425854 1 #
lump $-1 -1 $-1 $-1 $15 $5 #
transform $-1 -1 1 0 0 0 1 0 0 0 1 44.450000000000003 0 0 1 no_rotate no_reflect no_shear #
rgb_color-st-attrib $-1 -1 $16 $-1 $6 0.5 1 1 #
lump $-1 -1 $-1 $-1 $17 $6 #
transform $-1 -1 1 0 0 0 1 0 0 0 1 44.450000000000003 0 0 1 no_rotate no_reflect no_shear #
face $18 -1 $-1 $19 $20 $7 $-1 $21 reversed single #
shell $-1 -1 $-1 $-1 $-1 $22 $-1 $9 #
model_id-kcp-attrib $-1 -1 $-1 $11 $6 1 1021404529 1021404530 -1131216893 1 #
shell $-1 -1 $-1 $-1 $-1 $23 $-1 $12 #
model_id-kcp-attrib $-1 -1 $-1 $-1 $14 1 1021404529 1021404530 -1139081215 2 #
face $24 -1 $-1 $25 $26 $7 $-1 $27 forward single #
loop $-1 -1 $-1 $-1 $28 $14 #
plane-surface $-1 -1 $-1 0 0 0 1 0 0 0 -25.399999999999999 0 forward_v I I I I #
face $-1 -1 $-1 $29 $30 $15 $-1 $31 forward single #
face $-1 -1 $-1 $32 $33 $17 $-1 $34 reversed single #
model_id-kcp-attrib $-1 -1 $-1 $-1 $19 1 1021404529 1021404530 -1139081215 3 #
face $35 -1 $-1 $36 $37 $7 $-1 $27 forward single #
loop $-1 -1 $-1 $-1 $38 $19 #
cone-surface $-1 -1 $-1 -4.4449999999999994 0 0 1 0 0 0 -60.324999999999996 0 1 I I 0 1 60.324999999999996 forward I I I I #
coedge $-1 -1 $-1 $39 $39 $40 $41 reversed $20 $-1 #
face $-1 -1 $-1 $42 $43 $15 $-1 $44 reversed single #
loop $-1 -1 $-1 $-1 $45 $22 #
plane-surface $-1 -1 $-1 0 0 60.324999999999996 0 0 1 1 0 0 forward_v I I I I #
face $-1 -1 $-1 $46 $47 $17 $-1 $34 reversed single #
loop $-1 -1 $-1 $-1 $48 $23 #
cone-surface $-1 -1 $-1 -44.450000000000003 1.0368424424286028e-022 0 -1 0 0 0 60.324999999999996 -1.7649780971457215e-010 1 I I 0 1 60.324999999999996 forward I I I I #
model_id-kcp-attrib $-1 -1 $-1 $-1 $25 1 1021404529 1021404530 -1139081215 4 #
face $49 -1 $-1 $50 $51 $7 $-1 $52 forward single #
loop $-1 -1 $-1 $-1 $53 $25 #
coedge $-1 -1 $-1 $40 $54 $55 $56 forward $26 $-1 #
coedge $-1 -1 $-1 $28 $28 $57 $58 forward $20 $-1 #
coedge $-1 -1 $-1 $59 $38 $28 $41 forward $26 $-1 #
edge $60 -1 $-1 $61 -3.1415926535897931 $62 0 $28 $63 forward @7 unknown #
face $-1 -1 $-1 $64 $65 $15 $-1 $66 reversed single #
loop $-1 -1 $-1 $-1 $67 $29 #
plane-surface $-1 -1 $-1 0 0 -60.324999999999996 0 0 1 1 0 0 forward_v I I I I #
coedge $-1 -1 $-1 $68 $69 $70 $71 forward $30 $-1 #
face $-1 -1 $-1 $72 $73 $17 $-1 $34 reversed single #
loop $-1 -1 $-1 $-1 $74 $32 #
coedge $-1 -1 $-1 $75 $76 $77 $78 reversed $33 $-1 #
model_id-kcp-attrib $-1 -1 $-1 $-1 $36 1 1021404529 1021404530 -1139081215 5 #
face $79 -1 $-1 $80 $81 $7 $-1 $52 forward single #
loop $-1 -1 $-1 $-1 $82 $36 #
torus-surface $-1 -1 $-1 42.950968342876337 0 0 1 0 0 53.974999999999994 6.3499999999999996 0 0.99998888308376566 0.0047152633948591236 forward_v I I I I #
coedge $-1 -1 $-1 $57 $83 $59 $84 forward $37 $-1 #
coedge $-1 -1 $-1 $38 $59 $85 $86 forward $26 $-1 #
coedge $-1 -1 $-1 $83 $57 $38 $56 reversed $37 $-1 #
edge $-1 -1 $-1 $87 -1.1189649382048822e-015 $61 1.6909830056250525 $38 $88 forward @7 unknown #
coedge $-1 -1 $-1 $55 $53 $39 $58 reversed $37 $-1 #
edge $89 -1 $-1 $61 -3.1415926535897931 $62 0 $39 $90 reversed @7 unknown #
coedge $-1 -1 $-1 $54 $40 $53 $84 reversed $26 $-1 #
attrib_edge_convexity-kcp-attrib $-1 -1 $91 $-1 $41 1 #
vertex $-1 -1 $-1 $58 $92 #
vertex $-1 -1 $-1 $58 $93 #
ellipse-curve $-1 -1 $-1 0 0 0 1 0 0 0 -60.324999999999996 0 1 I I #
face $94 -1 $-1 $95 $96 $15 $-1 $97 reversed single #
loop $-1 -1 $-1 $-1 $98 $42 #
plane-surface $-1 -1 $-1 0 -60.324999999999996 0 0 1 0 0 0 1 forward_v I I I I #
coedge $-1 -1 $-1 $99 $100 $101 $102 forward $43 $-1 #
coedge $-1 -1 $-1 $103 $45 $104 $105 forward $30 $-1 #
coedge $-1 -1 $-1 $45 $103 $106 $107 forward $30 $-1 #
coedge $-1 -1 $-1 $108 $109 $45 $71 reversed $110 $-1 #
edge $-1 -1 $-1 $111 -60.324999999999996 $112 60.324999999999996 $70 $113 forward @7 unknown #
face $-1 -1 $-1 $114 $115 $17 $-1 $34 reversed single #
loop $-1 -1 $-1 $-1 $116 $46 #
coedge $-1 -1 $-1 $117 $118 $119 $120 reversed $47 $-1 #
coedge $-1 -1 $-1 $121 $48 $122 $123 forward $33 $-1 #
coedge $-1 -1 $-1 $48 $121 $124 $125 reversed $33 $-1 #
coedge $-1 -1 $-1 $126 $127 $48 $78 forward $128 $-1 #
edge $-1 -1 $-1 $129 -1.5707963267978224 $130 -2.9257821751275948e-012 $77 $131 forward @7 unknown #
model_id-kcp-attrib $-1 -1 $-1 $-1 $50 1 1021404529 1021404530 -1139081215 6 #
face $132 -1 $-1 $133 $134 $7 $-1 $135 forward single #
loop $-1 -1 $-1 $-1 $136 $50 #
coedge $-1 -1 $-1 $137 $138 $139 $140 forward $51 $-1 #
coedge $-1 -1 $-1 $53 $55 $138 $141 forward $37 $-1 #
edge $-1 -1 $-1 $142 -1.9581886418585439e-015 $62 1.6909830056250525 $59 $143 forward @7 unknown #
coedge $-1 -1 $-1 $136 $139 $54 $86 reversed $81 $-1 #
edge $-1 -1 $-1 $142 -1.2981364349475572e-012 $87 3.1415926535927188 $54 $144 reversed @7 unknown #
vertex $-1 -1 $-1 $86 $145 #
straight-curve $-1 -1 $-1 42.95096834287633 60.324999999999996 7.3874378294334902e-015 -25.399999999999999 0 0 I I #
attrib_edge_convexity-kcp-attrib $-1 -1 $146 $-1 $58 1 #
ellipse-curve $-1 -1 $-1 0 0 0 1 0 0 0 -60.324999999999996 0 1 I I #
convexity-sys-attrib $-1 -1 $-1 $60 $41 #
point $-1 -1 $-1 0 60.324999999999996 0 #
point $-1 -1 $-1 0 -60.324999999999996 0 #
model_id-kcp-attrib $-1 -1 $-1 $-1 $64 1 1021404529 1021404530 -1138425854 2 #
face $-1 -1 $-1 $147 $148 $15 $-1 $149 reversed single #
loop $-1 -1 $-1 $-1 $150 $64 #
plane-surface $-1 -1 $-1 -44.450000000000003 0 0 1 0 0 0 0 -1 forward_v I I I I #
coedge $-1 -1 $-1 $151 $106 $152 $153 forward $65 $-1 #
coedge $-1 -1 $-1 $154 $67 $151 $155 forward $43 $-1 #
coedge $-1 -1 $-1 $67 $154 $156 $157 forward $43 $-1 #
coedge $-1 -1 $-1 $109 $108 $67 $102 reversed $110 $-1 #
edge $-1 -1 $-1 $158 -60.324999999999996 $159 60.324999999999996 $101 $160 forward @7 unknown #
coedge $-1 -1 $-1 $69 $68 $161 $162 forward $30 $-1 #
coedge $-1 -1 $-1 $163 $164 $68 $105 reversed $148 $-1 #
edge $-1 -1 $-1 $112 -44.450000000000003 $165 44.450000000000003 $104 $166 forward @7 unknown #
coedge $-1 -1 $-1 $98 $167 $69 $107 reversed $65 $-1 #
edge $-1 -1 $-1 $168 -44.450000000000003 $111 44.450000000000003 $106 $169 forward @7 unknown #
coedge $-1 -1 $-1 $101 $70 $167 $170 forward $110 $-1 #
coedge $-1 -1 $-1 $70 $101 $163 $171 reversed $110 $-1 #
loop $-1 -1 $-1 $-1 $108 $147 #
vertex $-1 -1 $-1 $71 $172 #
vertex $-1 -1 $-1 $71 $173 #
straight-curve $-1 -1 $-1 44.450000000000003 0 60.324999999999996 0 1 0 I I #
face $-1 -1 $-1 $174 $175 $17 $-1 $176 reversed single #
loop $-1 -1 $-1 $-1 $177 $72 #
coedge $-1 -1 $-1 $178 $179 $177 $180 forward $73 $-1 #
coedge $-1 -1 $-1 $181 $74 $182 $183 reversed $47 $-1 #
coedge $-1 -1 $-1 $74 $181 $76 $125 forward $47 $-1 #
coedge $-1 -1 $-1 $184 $185 $74 $120 forward $186 $-1 #
edge $-1 -1 $-1 $187 -1.5707963267919709 $188 2.9257821751275948e-012 $119 $189 forward @7 unknown #
coedge $-1 -1 $-1 $76 $75 $190 $191 reversed $33 $-1 #
coedge $-1 -1 $-1 $179 $178 $192 $123 reversed $73 $-1 #
edge $-1 -1 $-1 $129 -88.900000000000006 $193 0 $192 $194 forward @7 unknown #
coedge $-1 -1 $-1 $195 $196 $197 $125 forward $198 $-1 #
edge $-1 -1 $-1 $130 -88.900000000000006 $188 0 $124 $199 forward @7 unknown #
coedge $-1 -1 $-1 $127 $77 $196 $200 reversed $128 $-1 #
coedge $-1 -1 $-1 $77 $126 $201 $202 reversed $128 $-1 #
loop $-1 -1 $-1 $-1 $77 $203 #
vertex $-1 -1 $-1 $202 $204 #
vertex $-1 -1 $-1 $205 $206 #
ellipse-curve $-1 -1 $-1 44.450000000000003 1.0368424424286028e-022 0 -1 0 0 0 60.324999999999996 -1.7649780971457215e-010 1 I I #
model_id-kcp-attrib $-1 -1 $-1 $-1 $80 1 1021404529 1021404530 -1139081215 7 #
face $207 -1 $-1 $208 $209 $7 $-1 $135 forward single #
loop $-1 -1 $-1 $-1 $210 $80 #
cone-surface $-1 -1 $-1 139.69999999999999 0 0 1 0 0 0 -12.700000000000003 0 1 I I -0.44721359549995804 0.89442719099991586 12.700000000000003 forward I I I I #
coedge $-1 -1 $-1 $211 $85 $212 $213 forward $81 $-1 #
coedge $-1 -1 $-1 $212 $82 $214 $215 forward $51 $-1 #
coedge $-1 -1 $-1 $82 $212 $83 $141 reversed $51 $-1 #
coedge $-1 -1 $-1 $85 $211 $82 $140 reversed $81 $-1 #
edge $-1 -1 $-1 $87 -3.7834982396793639e-015 $216 0.46364760900112223 $139 $217 forward @7 unknown #
edge $-1 -1 $-1 $87 -3.1415926535868675 $142 -1.2981364349475572e-012 $83 $218 reversed @7 unknown #
vertex $-1 -1 $-1 $86 $219 #
straight-curve $-1 -1 $-1 42.95096834287633 -60.324999999999996 -1.477487565886698e-014 -25.399999999999999 0 0 I I #
ellipse-curve $-1 -1 $-1 42.950968342876337 0 0 1 0 0 0 -60.324999999999996 0 1 I I #
point $-1 -1 $-1 42.950968342876358 60.324999999999996 -1.7650598393001589e-010 #
convexity-sys-attrib $-1 -1 $-1 $89 $58 #
face $220 -1 $-1 $-1 $110 $15 $-1 $221 reversed single #
loop $-1 -1 $-1 $-1 $163 $95 #
plane-surface $-1 -1 $-1 0 60.324999999999996 0 0 -1 0 0 0 -1 forward_v I I I I #
coedge $-1 -1 $-1 $222 $161 $164 $223 forward $96 $-1 #
coedge $-1 -1 $-1 $167 $98 $99 $155 reversed $65 $-1 #
coedge $-1 -1 $-1 $161 $222 $98 $153 reversed $96 $-1 #
edge $-1 -1 $-1 $168 -60.324999999999996 $224 60.324999999999996 $152 $225 forward @7 unknown #
coedge $-1 -1 $-1 $100 $99 $222 $226 forward $43 $-1 #
edge $-1 -1 $-1 $159 -44.450000000000003 $224 44.450000000000003 $151 $227 forward @7 unknown #
coedge $-1 -1 $-1 $164 $163 $100 $157 reversed $148 $-1 #
edge $-1 -1 $-1 $228 -44.450000000000003 $158 44.450000000000003 $156 $229 forward @7 unknown #
vertex $-1 -1 $-1 $102 $230 #
vertex $-1 -1 $-1 $170 $231 #
straight-curve $-1 -1 $-1 44.450000000000003 0 -60.324999999999996 0 -1 0 I I #
coedge $-1 -1 $-1 $150 $152 $103 $162 reversed $96 $-1 #
edge $-1 -1 $-1 $165 -60.324999999999996 $168 60.324999999999996 $161 $232 forward @7 unknown #
coedge $-1 -1 $-1 $156 $104 $109 $171 forward $148 $-1 #
coedge $-1 -1 $-1 $104 $156 $150 $223 reversed $148 $-1 #
vertex $-1 -1 $-1 $105 $233 #
straight-curve $-1 -1 $-1 0 60.324999999999996 60.324999999999996 -1 0 0 I I #
coedge $-1 -1 $-1 $106 $151 $108 $170 reversed $65 $-1 #
vertex $-1 -1 $-1 $162 $234 #
straight-curve $-1 -1 $-1 0 -60.324999999999996 60.324999999999996 1 0 0 I I #
edge $-1 -1 $-1 $111 -60.324999999999996 $159 60.324999999999996 $108 $235 forward @7 unknown #
edge $-1 -1 $-1 $112 -60.324999999999996 $158 60.324999999999996 $109 $236 forward @7 unknown #
point $-1 -1 $-1 44.450000000000003 -60.324999999999996 60.324999999999996 #
point $-1 -1 $-1 44.450000000000003 60.324999999999996 60.324999999999996 #
face $-1 -1 $-1 $237 $238 $17 $-1 $239 reversed single #
loop $-1 -1 $-1 $-1 $197 $114 #
plane-surface $-1 -1 $-1 0 60.324999999999996 0 0 -1 0 0 0 -1 forward_v I I I I #
coedge $-1 -1 $-1 $240 $241 $242 $180 reversed $115 $-1 #
coedge $-1 -1 $-1 $122 $116 $243 $244 reversed $73 $-1 #
coedge $-1 -1 $-1 $116 $122 $245 $246 reversed $73 $-1 #
edge $-1 -1 $-1 $247 -88.900000000000006 $248 0 $242 $249 forward @7 unknown #
coedge $-1 -1 $-1 $118 $117 $250 $251 reversed $47 $-1 #
coedge $-1 -1 $-1 $252 $253 $254 $183 forward $238 $-1 #
edge $-1 -1 $-1 $255 -88.900000000000006 $187 0 $182 $256 forward @7 unknown #
coedge $-1 -1 $-1 $185 $119 $257 $258 forward $186 $-1 #
coedge $-1 -1 $-1 $119 $184 $252 $259 reversed $186 $-1 #
loop $-1 -1 $-1 $-1 $119 $260 #
vertex $-1 -1 $-1 $259 $261 #
vertex $-1 -1 $-1 $258 $262 #
ellipse-curve $-1 -1 $-1 -44.450000000000003 1.0368424424286028e-022 0 1 0 0 0 60.324999999999996 -1.7649780971457215e-010 1 I I #
coedge $-1 -1 $-1 $263 $264 $121 $191 forward $265 $-1 #
edge $-1 -1 $-1 $188 2.9257821751275948e-012 $193 1.5707963267978224 $190 $189 forward @7 unknown #
coedge $-1 -1 $-1 $266 $267 $268 $123 forward $269 $-1 #
vertex $-1 -1 $-1 $270 $271 #
straight-curve $-1 -1 $-1 -44.450000000000003 1.0368424424286028e-022 60.324999999999996 -1 0 0 I I #
coedge $-1 -1 $-1 $272 $124 $264 $273 reversed $198 $-1 #
coedge $-1 -1 $-1 $124 $272 $126 $200 forward $198 $-1 #
coedge $-1 -1 $-1 $274 $257 $118 $125 reversed $175 $-1 #
loop $-1 -1 $-1 $-1 $124 $275 #
straight-curve $-1 -1 $-1 -44.450000000000003 60.324999999999996 0 -1 0 0 I I #
edge $-1 -1 $-1 $276 -60.324999999999996 $130 0 $126 $277 forward @7 unknown #
coedge $-1 -1 $-1 $278 $268 $127 $202 forward $279 $-1 #
edge $-1 -1 $-1 $129 1.0368424424286028e-022 $276 60.324999999999996 $127 $280 forward @7 unknown #
face $-1 -1 $-1 $281 $128 $17 $-1 $282 reversed single #
point $-1 -1 $-1 44.450000000000003 1.0368424424286028e-022 60.324999999999996 #
edge $-1 -1 $-1 $130 0 $283 60.324999999999996 $284 $277 forward @7 unknown #
point $-1 -1 $-1 44.450000000000003 60.324999999999996 0 #
model_id-kcp-attrib $-1 -1 $-1 $-1 $133 1 1021404529 1021404530 -1139081215 8 #
face $285 -1 $-1 $286 $287 $7 $-1 $288 forward single #
loop $-1 -1 $-1 $-1 $289 $133 #
coedge $-1 -1 $-1 $290 $291 $292 $293 reversed $134 $-1 #
coedge $-1 -1 $-1 $139 $136 $291 $294 forward $81 $-1 #
coedge $-1 -1 $-1 $138 $137 $136 $213 reversed $51 $-1 #
edge $-1 -1 $-1 $142 -1.1940789536780572e-036 $295 0.46364760900098179 $136 $296 forward @7 unknown #
coedge $-1 -1 $-1 $289 $292 $137 $215 reversed $209 $-1 #
edge $-1 -1 $-1 $216 -3.1415926535900076 $295 -1.0734256620825068e-012 $214 $297 reversed @7 unknown #
vertex $-1 -1 $-1 $294 $298 #
ellipse-curve $-1 -1 $-1 42.950968342876365 53.975000000000144 1.2553485818419473e-009 -4.8784630570931758e-011 -1.8536098331966392e-010 -1 1.6919798895287383e-014 6.3499999999998531 -1.1770422440798396e-009 1 I I #
ellipse-curve $-1 -1 $-1 42.950968342876337 0 0 1 0 0 0 -60.324999999999996 0 1 I I #
point $-1 -1 $-1 42.950968342876379 -60.324999999999996 -7.8310080438211382e-011 #
model_id-kcp-attrib $-1 -1 $-1 $-1 $147 1 1021404529 1021404530 -1138425854 3 #
plane-surface $-1 -1 $-1 44.450000000000003 0 0 -1 0 0 0 0 1 forward_v I I I I #
coedge $-1 -1 $-1 $152 $150 $154 $226 reversed $96 $-1 #
edge $-1 -1 $-1 $165 -60.324999999999996 $228 60.324999999999996 $164 $299 forward @7 unknown #
vertex $-1 -1 $-1 $226 $300 #
straight-curve $-1 -1 $-1 -44.450000000000003 -60.324999999999996 0 0 0 -1 I I #
edge $-1 -1 $-1 $224 -60.324999999999996 $228 60.324999999999996 $222 $301 forward @7 unknown #
straight-curve $-1 -1 $-1 0 -60.324999999999996 -60.324999999999996 -1 0 0 I I #
vertex $-1 -1 $-1 $157 $302 #
straight-curve $-1 -1 $-1 0 60.324999999999996 -60.324999999999996 1 0 0 I I #
point $-1 -1 $-1 44.450000000000003 60.324999999999996 -60.324999999999996 #
point $-1 -1 $-1 44.450000000000003 -60.324999999999996 -60.324999999999996 #
straight-curve $-1 -1 $-1 -44.450000000000003 0 60.324999999999996 0 -1 0 I I #
point $-1 -1 $-1 -44.450000000000003 60.324999999999996 60.324999999999996 #
point $-1 -1 $-1 -44.450000000000003 -60.324999999999996 60.324999999999996 #
straight-curve $-1 -1 $-1 44.450000000000003 -60.324999999999996 0 0 0 -1 I I #
straight-curve $-1 -1 $-1 44.450000000000003 60.324999999999996 0 0 0 -1 I I #
face $-1 -1 $-1 $260 $303 $17 $-1 $304 reversed single #
loop $-1 -1 $-1 $-1 $182 $174 #
plane-surface $-1 -1 $-1 0 0 -60.324999999999996 0 0 1 1 0 0 forward_v I I I I #
coedge $-1 -1 $-1 $305 $177 $306 $307 reversed $115 $-1 #
coedge $-1 -1 $-1 $177 $305 $308 $309 reversed $115 $-1 #
coedge $-1 -1 $-1 $310 $311 $312 $180 forward $313 $-1 #
coedge $-1 -1 $-1 $314 $315 $178 $244 forward $316 $-1 #
edge $-1 -1 $-1 $193 1.5707963267978224 $248 3.1415926535927188 $243 $189 forward @7 unknown #
coedge $-1 -1 $-1 $317 $318 $179 $246 forward $319 $-1 #
edge $-1 -1 $-1 $247 -3.1415926535927188 $129 -1.5707963267978224 $245 $131 forward @7 unknown #
vertex $-1 -1 $-1 $320 $321 #
vertex $-1 -1 $-1 $322 $323 #
straight-curve $-1 -1 $-1 -44.450000000000003 -60.324999999999996 0 -1 0 0 I I #
coedge $-1 -1 $-1 $324 $284 $181 $251 forward $325 $-1 #
edge $-1 -1 $-1 $130 -2.9257821751275948e-012 $255 1.5707963267919709 $250 $131 forward @7 unknown #
coedge $-1 -1 $-1 $326 $182 $185 $259 forward $238 $-1 #
coedge $-1 -1 $-1 $182 $326 $324 $327 forward $238 $-1 #
coedge $-1 -1 $-1 $328 $329 $305 $183 reversed $330 $-1 #
vertex $-1 -1 $-1 $331 $332 #
straight-curve $-1 -1 $-1 -44.450000000000003 1.0368424424286028e-022 -60.324999999999996 -1 0 0 I I #
coedge $-1 -1 $-1 $197 $333 $184 $258 reversed $175 $-1 #
edge $-1 -1 $-1 $188 0 $334 60.324999999999996 $257 $335 forward @7 unknown #
edge $-1 -1 $-1 $187 1.0368424424286028e-022 $334 60.324999999999996 $185 $336 forward @7 unknown #
face $-1 -1 $-1 $337 $186 $17 $-1 $304 reversed single #
point $-1 -1 $-1 -44.450000000000003 1.0368424424286028e-022 -60.324999999999996 #
point $-1 -1 $-1 -44.450000000000003 60.324999999999996 0 #
coedge $-1 -1 $-1 $264 $190 $338 $339 reversed $265 $-1 #
coedge $-1 -1 $-1 $190 $263 $195 $273 forward $265 $-1 #
loop $-1 -1 $-1 $-1 $190 $337 #
coedge $-1 -1 $-1 $340 $192 $315 $270 forward $269 $-1 #
coedge $-1 -1 $-1 $192 $340 $317 $341 forward $269 $-1 #
coedge $-1 -1 $-1 $201 $338 $75 $123 reversed $279 $-1 #
loop $-1 -1 $-1 $-1 $192 $342 #
edge $-1 -1 $-1 $193 -1.0368424424286028e-022 $343 60.324999999999996 $315 $344 forward @7 unknown #
point $-1 -1 $-1 -44.450000000000003 1.0368424424286028e-022 60.324999999999996 #
coedge $-1 -1 $-1 $196 $195 $278 $345 reversed $198 $-1 #
edge $-1 -1 $-1 $346 -60.324999999999996 $188 0 $195 $335 forward @7 unknown #
coedge $-1 -1 $-1 $333 $197 $284 $205 forward $175 $-1 #
face $-1 -1 $-1 $-1 $198 $17 $-1 $176 reversed single #
vertex $-1 -1 $-1 $202 $347 #
straight-curve $-1 -1 $-1 44.450000000000003 60.324999999999996 0 0 0 -1 I I #
coedge $-1 -1 $-1 $338 $201 $272 $345 forward $279 $-1 #
loop $-1 -1 $-1 $-1 $268 $348 #
straight-curve $-1 -1 $-1 44.450000000000003 0 60.324999999999996 0 1 0 I I #
face $-1 -1 $-1 $349 $325 $17 $-1 $282 reversed single #
plane-surface $-1 -1 $-1 44.450000000000003 0 0 -1 0 0 0 0 1 forward_v I I I I #
vertex $-1 -1 $-1 $327 $350 #
coedge $-1 -1 $-1 $250 $324 $274 $205 reversed $325 $-1 #
model_id-kcp-attrib $-1 -1 $-1 $-1 $208 1 1021404529 1021404530 -1139081215 9 #
face $351 -1 $-1 $352 $353 $7 $-1 $288 forward single #
loop $-1 -1 $-1 $-1 $354 $208 #
torus-surface $-1 -1 $-1 82.549999999999997 0 0 1 0 0 34.175484171438164 6.3499999999999996 0 0.99998329572102651 0.0057799895254266025 forward_v I I I I #
coedge $-1 -1 $-1 $355 $214 $356 $357 reversed $209 $-1 #
coedge $-1 -1 $-1 $356 $210 $358 $359 forward $134 $-1 #
coedge $-1 -1 $-1 $210 $356 $211 $294 reversed $134 $-1 #
coedge $-1 -1 $-1 $214 $355 $210 $293 forward $209 $-1 #
edge $-1 -1 $-1 $360 -1.0521253406644264e-013 $295 1.7430339887498525 $210 $361 forward @7 unknown #
edge $-1 -1 $-1 $295 -1.0734256620825068e-012 $216 3.1415926535895786 $291 $362 reversed @7 unknown #
vertex $-1 -1 $-1 $294 $363 #
ellipse-curve $-1 -1 $-1 42.950968342876379 -53.975000000000165 -1.2555044282536794e-009 -4.8790299834549782e-011 1.8538493666385819e-010 1 0 -6.3499999999998309 1.177194347815468e-009 1 I I #
ellipse-curve $-1 -1 $-1 45.790774674301076 0 0 1 0 0 0 -59.654612662849473 0 1 I I #
point $-1 -1 $-1 45.790774674302845 59.654612662848578 1.2806675967630128e-011 #
straight-curve $-1 -1 $-1 -44.450000000000003 60.324999999999996 0 0 0 -1 I I #
point $-1 -1 $-1 -44.450000000000003 -60.324999999999996 -60.324999999999996 #
straight-curve $-1 -1 $-1 -44.450000000000003 0 -60.324999999999996 0 1 0 I I #
point $-1 -1 $-1 -44.450000000000003 60.324999999999996 -60.324999999999996 #
loop $-1 -1 $-1 $-1 $308 $237 #
plane-surface $-1 -1 $-1 -44.450000000000003 0 0 1 0 0 0 0 -1 forward_v I I I I #
coedge $-1 -1 $-1 $241 $240 $117 $183 forward $115 $-1 #
coedge $-1 -1 $-1 $364 $365 $240 $307 forward $366 $-1 #
edge $-1 -1 $-1 $255 1.5707963267919709 $247 3.1415926535868675 $306 $131 forward @7 unknown #
coedge $-1 -1 $-1 $367 $368 $241 $309 forward $303 $-1 #
edge $-1 -1 $-1 $248 -3.1415926535868675 $187 -1.5707963267919709 $308 $189 forward @7 unknown #
coedge $-1 -1 $-1 $369 $242 $368 $322 forward $313 $-1 #
coedge $-1 -1 $-1 $242 $369 $364 $320 reversed $313 $-1 #
coedge $-1 -1 $-1 $370 $371 $116 $180 reversed $372 $-1 #
loop $-1 -1 $-1 $-1 $242 $373 #
coedge $-1 -1 $-1 $315 $243 $371 $374 reversed $316 $-1 #
coedge $-1 -1 $-1 $243 $314 $266 $270 reversed $316 $-1 #
loop $-1 -1 $-1 $-1 $243 $375 #
coedge $-1 -1 $-1 $318 $245 $267 $341 reversed $319 $-1 #
coedge $-1 -1 $-1 $245 $317 $370 $376 forward $319 $-1 #
loop $-1 -1 $-1 $-1 $245 $377 #
edge $-1 -1 $-1 $247 0 $378 60.324999999999996 $364 $379 forward @7 unknown #
point $-1 -1 $-1 44.450000000000003 -60.324999999999996 0 #
edge $-1 -1 $-1 $248 0 $380 60.324999999999996 $368 $381 forward @7 unknown #
point $-1 -1 $-1 -44.450000000000003 -60.324999999999996 0 #
coedge $-1 -1 $-1 $284 $250 $253 $327 reversed $325 $-1 #
loop $-1 -1 $-1 $-1 $250 $281 #
coedge $-1 -1 $-1 $253 $252 $333 $382 forward $238 $-1 #
edge $-1 -1 $-1 $283 -60.324999999999996 $255 -1.0368424424286028e-022 $324 $383 forward @7 unknown #
coedge $-1 -1 $-1 $384 $254 $365 $331 forward $330 $-1 #
coedge $-1 -1 $-1 $254 $384 $367 $385 forward $330 $-1 #
loop $-1 -1 $-1 $-1 $254 $386 #
edge $-1 -1 $-1 $255 -1.0368424424286028e-022 $378 60.324999999999996 $365 $383 forward @7 unknown #
point $-1 -1 $-1 44.450000000000003 1.0368424424286028e-022 -60.324999999999996 #
coedge $-1 -1 $-1 $257 $274 $326 $382 reversed $175 $-1 #
vertex $-1 -1 $-1 $382 $387 #
straight-curve $-1 -1 $-1 -44.450000000000003 60.324999999999996 0 0 0 -1 I I #
straight-curve $-1 -1 $-1 -44.450000000000003 0 -60.324999999999996 0 1 0 I I #
face $-1 -1 $-1 $375 $265 $17 $-1 $304 reversed single #
coedge $-1 -1 $-1 $268 $278 $263 $339 forward $279 $-1 #
edge $-1 -1 $-1 $346 -60.324999999999996 $193 -1.0368424424286028e-022 $263 $344 forward @7 unknown #
coedge $-1 -1 $-1 $267 $266 $388 $389 forward $269 $-1 #
edge $-1 -1 $-1 $390 -60.324999999999996 $129 1.0368424424286028e-022 $317 $280 forward @7 unknown #
face $-1 -1 $-1 $386 $269 $17 $-1 $391 forward single #
vertex $-1 -1 $-1 $270 $392 #
straight-curve $-1 -1 $-1 -44.450000000000003 0 60.324999999999996 0 -1 0 I I #
edge $-1 -1 $-1 $276 -44.450000000000003 $346 44.450000000000003 $272 $393 forward @7 unknown #
vertex $-1 -1 $-1 $345 $394 #
point $-1 -1 $-1 44.450000000000003 60.324999999999996 60.324999999999996 #
face $-1 -1 $-1 $377 $279 $17 $-1 $391 forward single #
face $-1 -1 $-1 $395 $366 $17 $-1 $282 reversed single #
point $-1 -1 $-1 44.450000000000003 60.324999999999996 -60.324999999999996 #
model_id-kcp-attrib $-1 -1 $-1 $-1 $286 1 1021404529 1021404530 -1139081215 10 #
face $396 -1 $-1 $-1 $397 $7 $-1 $398 forward single #
loop $-1 -1 $-1 $-1 $399 $286 #
coedge $-1 -1 $-1 $400 $401 $402 $403 forward $287 $-1 #
coedge $-1 -1 $-1 $292 $289 $401 $404 forward $209 $-1 #
coedge $-1 -1 $-1 $291 $290 $289 $357 forward $134 $-1 #
edge $-1 -1 $-1 $405 -8.3319319486623107e-014 $216 1.743033988749817 $356 $406 forward @7 unknown #
coedge $-1 -1 $-1 $399 $402 $290 $359 reversed $353 $-1 #
edge $-1 -1 $-1 $360 4.3017687859009543e-012 $405 3.1415926535860748 $290 $407 reversed @7 unknown #
vertex $-1 -1 $-1 $359 $408 #
straight-curve $-1 -1 $-1 85.389806331424737 -39.855096834287636 -9.7613609630949494e-015 -22.718450651397863 -11.359225325698931 -2.7821159016701951e-015 I I #
ellipse-curve $-1 -1 $-1 45.790774674301076 0 0 1 0 0 0 -59.654612662849473 0 1 I I #
point $-1 -1 $-1 45.790774674302035 -59.654612662848983 -6.4034792093894161e-011 #
coedge $-1 -1 $-1 $365 $306 $311 $320 forward $366 $-1 #
coedge $-1 -1 $-1 $306 $364 $328 $331 reversed $366 $-1 #
loop $-1 -1 $-1 $-1 $306 $349 #
coedge $-1 -1 $-1 $368 $308 $329 $385 reversed $303 $-1 #
coedge $-1 -1 $-1 $308 $367 $310 $322 reversed $303 $-1 #
coedge $-1 -1 $-1 $311 $310 $384 $409 reversed $313 $-1 #
coedge $-1 -1 $-1 $388 $312 $318 $376 reversed $372 $-1 #
coedge $-1 -1 $-1 $312 $388 $314 $374 forward $372 $-1 #
loop $-1 -1 $-1 $-1 $312 $395 #
face $-1 -1 $-1 $275 $313 $17 $-1 $410 reversed single #
edge $-1 -1 $-1 $343 -60.324999999999996 $248 0 $314 $381 forward @7 unknown #
face $-1 -1 $-1 $348 $316 $17 $-1 $304 reversed single #
edge $-1 -1 $-1 $390 -60.324999999999996 $247 0 $318 $379 forward @7 unknown #
face $-1 -1 $-1 $203 $319 $17 $-1 $282 reversed single #
vertex $-1 -1 $-1 $320 $411 #
straight-curve $-1 -1 $-1 44.450000000000003 -60.324999999999996 0 0 0 -1 I I #
vertex $-1 -1 $-1 $385 $412 #
straight-curve $-1 -1 $-1 -44.450000000000003 -60.324999999999996 0 0 0 -1 I I #
edge $-1 -1 $-1 $334 -44.450000000000003 $283 44.450000000000003 $333 $413 forward @7 unknown #
straight-curve $-1 -1 $-1 44.450000000000003 0 -60.324999999999996 0 -1 0 I I #
coedge $-1 -1 $-1 $329 $328 $369 $409 forward $330 $-1 #
edge $-1 -1 $-1 $380 -60.324999999999996 $187 1.0368424424286028e-022 $367 $336 forward @7 unknown #
face $-1 -1 $-1 $373 $330 $17 $-1 $239 reversed single #
point $-1 -1 $-1 -44.450000000000003 60.324999999999996 -60.324999999999996 #
coedge $-1 -1 $-1 $371 $370 $340 $389 reversed $372 $-1 #
edge $-1 -1 $-1 $343 -44.450000000000003 $390 44.450000000000003 $388 $414 forward @7 unknown #
vertex $-1 -1 $-1 $341 $415 #
plane-surface $-1 -1 $-1 0 0 60.324999999999996 0 0 1 1 0 0 forward_v I I I I #
point $-1 -1 $-1 -44.450000000000003 -60.324999999999996 60.324999999999996 #
straight-curve $-1 -1 $-1 0 60.324999999999996 60.324999999999996 -1 0 0 I I #
point $-1 -1 $-1 -44.450000000000003 60.324999999999996 60.324999999999996 #
face $-1 -1 $-1 $342 $372 $17 $-1 $410 reversed single #
model_id-kcp-attrib $-1 -1 $-1 $-1 $352 1 1021404529 1021404530 -1139081215 11 #
loop $-1 -1 $-1 $-1 $416 $352 #
plane-surface $-1 -1 $-1 88.899999999999991 0 0 1 0 0 0 -25.399999999999999 0 forward_v I I I I #
coedge $-1 -1 $-1 $417 $358 $418 $419 forward $353 $-1 #
coedge $-1 -1 $-1 $418 $354 $420 $421 forward $287 $-1 #
coedge $-1 -1 $-1 $354 $418 $355 $404 reversed $287 $-1 #
coedge $-1 -1 $-1 $358 $417 $354 $403 reversed $353 $-1 #
edge $-1 -1 $-1 $405 8.9438874972493638e-016 $422 1.1071487177937529 $354 $423 forward @7 unknown #
edge $-1 -1 $-1 $405 -3.1415926535935115 $360 4.3017687859009543e-012 $355 $424 reversed @7 unknown #
vertex $-1 -1 $-1 $357 $425 #
straight-curve $-1 -1 $-1 85.389806331424737 39.855096834287636 4.8806804815474747e-015 -22.718450651397863 11.359225325698931 1.3910579508350976e-015 I I #
ellipse-curve $-1 -1 $-1 85.389806331424737 0 0 1 0 0 0 -39.855096834287636 0 1 I I #
point $-1 -1 $-1 85.389806331427124 -39.855096834286435 1.7144741152079333e-010 #
edge $-1 -1 $-1 $378 -44.450000000000003 $380 44.450000000000003 $369 $426 forward @7 unknown #
plane-surface $-1 -1 $-1 0 -60.324999999999996 0 0 1 0 0 0 1 forward_v I I I I #
point $-1 -1 $-1 44.450000000000003 -60.324999999999996 -60.324999999999996 #
point $-1 -1 $-1 -44.450000000000003 -60.324999999999996 -60.324999999999996 #
straight-curve $-1 -1 $-1 0 60.324999999999996 -60.324999999999996 1 0 0 I I #
straight-curve $-1 -1 $-1 0 -60.324999999999996 60.324999999999996 1 0 0 I I #
point $-1 -1 $-1 44.450000000000003 -60.324999999999996 60.324999999999996 #
coedge $-1 -1 $-1 $420 $420 $417 $427 reversed $397 $-1 #
coedge $-1 -1 $-1 $402 $399 $416 $427 forward $353 $-1 #
coedge $-1 -1 $-1 $401 $400 $399 $419 reversed $287 $-1 #
edge $-1 -1 $-1 $360 8.4948920395967127e-014 $428 1.107148717793758 $418 $429 forward @7 unknown #
coedge $-1 -1 $-1 $416 $416 $400 $421 reversed $397 $-1 #
edge $-1 -1 $-1 $422 -1.5707963267948961 $428 1.5707963267948961 $420 $430 reversed @7 unknown #
vertex $-1 -1 $-1 $421 $431 #
ellipse-curve $-1 -1 $-1 82.549999999999969 34.175484171438157 2.9487266155912465e-008 -4.6436663450710512e-009 -2.8438484170400639e-009 -1 2.8398063314266526 5.6796126628485286 -2.9339070568408124e-008 1 I I #
ellipse-curve $-1 -1 $-1 85.389806331424737 0 0 1 0 0 0 -39.855096834287636 0 1 I I #
point $-1 -1 $-1 85.389806331426627 39.855096834286684 1.4819558750434061e-010 #
straight-curve $-1 -1 $-1 0 -60.324999999999996 -60.324999999999996 -1 0 0 I I #
edge $-1 -1 $-1 $428 -4.7123889803846897 $422 -1.5707963267948961 $416 $432 reversed @7 unknown #
vertex $-1 -1 $-1 $421 $433 #
ellipse-curve $-1 -1 $-1 82.550000000000011 -34.175484171438171 -2.9487368561736266e-008 -4.6436776702578963e-009 2.843860753205336e-009 1 2.83980633142663 -5.6796126628485055 2.9339172794385751e-008 1 I I #
ellipse-curve $-1 -1 $-1 88.899999999999991 0 0 1 0 0 0 0 -34.175484171438164 1 I I #
point $-1 -1 $-1 88.899999999999991 34.175484171438164 -1.5135288855550044e-014 #
ellipse-curve $-1 -1 $-1 88.899999999999991 0 0 1 0 0 0 0 -34.175484171438164 1 I I #
point $-1 -1 $-1 88.899999999999991 -34.175484171438157 -1.9387269567516793e-014 #
End-of-ACIS-data 