600 0 1 0           
114 GICL Pro/E ACIS Translator - Source: f:/data5/repository/PTC/V20/web_demos/models/simpreps/simp_rep_wp.prt.3 - 6 0 13 ACIS 6.0.3 NT 24 Thu Apr 04 13:10:23 2002 
1 9.9999999999999995e-007 1e-010 
body $-1 $1 $-1 $2 #
lump $-1 $-1 $3 $0 #
transform $-1 1 0 0 0 1 0 0 0 1 0 0 0 25.399999999999999 no_rotate no_reflect no_shear #
shell $-1 $-1 $-1 $4 $-1 $1 #
face $-1 $5 $6 $3 $-1 $7 reversed single #
face $-1 $8 $9 $3 $-1 $10 forward single #
loop $-1 $-1 $11 $4 #
plane-surface $-1 0 0 0 1 0 0 0 -1 0 forward_v I I I I #
face $-1 $12 $13 $3 $-1 $14 forward single #
loop $-1 $-1 $15 $5 #
cone-surface $-1 -0.17499999999999999 0 0 1 0 0 0 -2.375 0 1 I I 0 1 2.375 forward I I I I #
coedge $-1 $16 $16 $17 $18 reversed $6 $-1 #
face $-1 $19 $20 $3 $-1 $21 forward single #
loop $-1 $-1 $22 $8 #
cone-surface $-1 -0.17499999999999999 0 0 1 0 0 0 -2.375 0 1 I I 0 1 2.375 forward I I I I #
coedge $-1 $17 $23 $24 $25 forward $9 $-1 #
coedge $-1 $11 $11 $26 $27 forward $6 $-1 #
coedge $-1 $28 $15 $11 $18 forward $9 $-1 #
edge $-1 $29 0 $30 3.1415926535897931 $11 $31 forward 7 unknown #
face $-1 $32 $33 $3 $-1 $34 forward single #
loop $-1 $-1 $35 $12 #
torus-surface $-1 1.6909830056250528 0 0 1 0 0 2.125 0.25 0 0.99998888308376555 0.0047152633948591227 forward_v I I I I #
coedge $-1 $26 $36 $28 $37 forward $13 $-1 #
coedge $-1 $15 $28 $38 $39 forward $9 $-1 #
coedge $-1 $36 $26 $15 $25 reversed $13 $-1 #
edge $-1 $40 -1.1102230246251565e-015 $29 1.6909830056250525 $15 $41 forward 7 unknown #
coedge $-1 $24 $22 $16 $27 reversed $13 $-1 #
edge $-1 $29 0 $30 3.1415926535897931 $16 $42 forward 7 unknown #
coedge $-1 $23 $17 $22 $37 reversed $9 $-1 #
vertex $-1 $27 $43 #
vertex $-1 $27 $44 #
ellipse-curve $-1 0 0 0 1 0 0 0 2.375 0 1 I I #
face $-1 $45 $46 $3 $-1 $47 forward single #
loop $-1 $-1 $48 $19 #
torus-surface $-1 1.6909830056250528 0 0 1 0 0 2.125 0.25 0 -0.99998888308376555 -0.0047152633948591852 forward_v I I I I #
coedge $-1 $49 $50 $51 $52 forward $20 $-1 #
coedge $-1 $22 $24 $50 $53 forward $13 $-1 #
edge $-1 $54 -1.7763568394002505e-015 $30 1.6909830056250525 $28 $55 forward 7 unknown #
coedge $-1 $48 $51 $23 $39 reversed $33 $-1 #
edge $-1 $54 0 $40 3.1415926535940168 $23 $56 forward 7 unknown #
vertex $-1 $39 $57 #
straight-curve $-1 1.6909830056250525 2.375 2.908440090328146e-016 -1 0 0 I I #
ellipse-curve $-1 0 0 0 -1 0 0 0 2.375 0 1 I I #
point $-1 0 2.375 0 #
point $-1 0 -2.375 0 #
face $-1 $58 $59 $3 $-1 $60 forward single #
loop $-1 $-1 $61 $32 #
cone-surface $-1 5.5 0 0 1 0 0 0 -0.50000000000000011 0 1 I I -0.44721359549995804 0.89442719099991586 0.50000000000000011 forward I I I I #
coedge $-1 $62 $38 $63 $64 forward $33 $-1 #
coedge $-1 $63 $35 $65 $66 forward $20 $-1 #
coedge $-1 $35 $63 $36 $53 reversed $20 $-1 #
coedge $-1 $38 $62 $35 $52 reversed $33 $-1 #
edge $-1 $40 -3.5527117211746018e-015 $67 0.46364760900112201 $51 $68 forward 7 unknown #
edge $-1 $40 4.2239920711499977e-012 $54 3.1415926535897931 $36 $69 forward 7 unknown #
vertex $-1 $39 $70 #
straight-curve $-1 1.6909830056250525 -2.375 -5.816880180656292e-016 -1 0 0 I I #
ellipse-curve $-1 1.6909830056249595 0 0 -1 -3.9921282653889838e-014 -5.1823271542854303e-026 9.4813046302988369e-014 -2.375 -3.0830740330004481e-012 1 I I #
point $-1 1.6909830056250537 2.375 -6.9490544854336971e-012 #
face $-1 $71 $72 $3 $-1 $73 forward single #
loop $-1 $-1 $74 $45 #
cone-surface $-1 5.5 0 0 1 0 0 0 -0.50000000000000011 0 1 I I -0.44721359549995804 0.89442719099991586 0.50000000000000011 forward I I I I #
coedge $-1 $75 $76 $77 $78 reversed $46 $-1 #
coedge $-1 $51 $48 $76 $79 forward $33 $-1 #
coedge $-1 $50 $49 $48 $64 reversed $20 $-1 #
edge $-1 $54 0 $80 0.46364760900098168 $48 $81 forward 7 unknown #
coedge $-1 $74 $77 $49 $66 reversed $59 $-1 #
edge $-1 $67 8.5868322256576384e-013 $80 3.1415926535897931 $65 $82 forward 7 unknown #
vertex $-1 $79 $83 #
ellipse-curve $-1 1.6909830056250539 2.1250000000000058 4.9423172513462495e-011 -4.8784630570931758e-011 -1.8536098331966392e-010 -1 6.6613381477509392e-016 0.24999999999999423 -4.6340245829914946e-011 1 I I #
ellipse-curve $-1 1.6909830056249597 0 0 -1 3.9921282653889838e-014 5.1820794751629825e-026 9.4813046302988369e-014 2.375 3.0829266835475474e-012 1 I I #
point $-1 1.6909830056250543 -2.375 -3.0830740330004481e-012 #
face $-1 $84 $85 $3 $-1 $86 forward single #
loop $-1 $-1 $87 $58 #
torus-surface $-1 3.25 0 0 1 0 0 1.3454915028125263 0.25 0 0.99998329572102651 0.0057799895254266025 forward_v I I I I #
coedge $-1 $88 $65 $89 $90 reversed $59 $-1 #
coedge $-1 $89 $61 $91 $92 forward $46 $-1 #
coedge $-1 $61 $89 $62 $79 reversed $46 $-1 #
coedge $-1 $65 $88 $61 $78 forward $59 $-1 #
edge $-1 $93 -1.0496154399929547e-013 $80 1.7430339887498532 $61 $94 forward 7 unknown #
edge $-1 $80 6.8058749244688955e-054 $67 3.1415926535906515 $76 $95 forward 7 unknown #
vertex $-1 $79 $96 #
ellipse-curve $-1 1.6909830056250543 -2.1250000000000067 -4.9429308198963761e-011 -4.8790299834549782e-011 1.8538493666385819e-010 1 0 -0.24999999999999334 4.6346234165963312e-011 1 I I #
ellipse-curve $-1 1.802786404499672 0 0 -1 1.7367570409745036e-013 1.8641718249214347e-025 4.0789593924728251e-013 2.3486067977499601 2.5209090948770789e-012 1 I I #
point $-1 1.8027864045001121 2.3486067977499441 5.0419984124528067e-013 #
face $-1 $-1 $97 $3 $-1 $98 forward single #
loop $-1 $-1 $99 $71 #
torus-surface $-1 3.25 0 0 1 0 0 1.3454915028125263 0.25 0 -0.99998329572102651 -0.0057799895254266069 forward_v I I I I #
coedge $-1 $100 $101 $102 $103 forward $72 $-1 #
coedge $-1 $77 $74 $101 $104 forward $59 $-1 #
coedge $-1 $76 $75 $74 $90 forward $46 $-1 #
edge $-1 $105 -8.31152434507184e-014 $67 1.7430339887498174 $89 $106 forward 7 unknown #
coedge $-1 $99 $102 $75 $92 reversed $85 $-1 #
edge $-1 $93 8.0201330384506274e-012 $105 3.1415926535897931 $75 $107 forward 7 unknown #
vertex $-1 $92 $108 #
straight-curve $-1 3.36180339887499 -1.5690983005625054 -3.8430554972814763e-016 -0.89442719099991586 -0.44721359549995793 -1.0953212211299982e-016 I I #
ellipse-curve $-1 1.8027864044996713 0 0 -1 -1.7405387656146225e-013 -1.868338976860145e-025 4.0878411766698264e-013 -2.3486067977499601 -2.521054806846227e-012 1 I I #
point $-1 1.8027864045000801 -2.3486067977499601 -2.521054806846227e-012 #
loop $-1 $-1 $109 $84 #
plane-surface $-1 3.5 0 0 1 0 0 0 -1 0 forward_v I I I I #
coedge $-1 $110 $91 $111 $112 forward $85 $-1 #
coedge $-1 $111 $87 $113 $114 forward $72 $-1 #
coedge $-1 $87 $111 $88 $104 reversed $72 $-1 #
coedge $-1 $91 $110 $87 $103 reversed $85 $-1 #
edge $-1 $105 0 $115 1.1071487177937522 $87 $116 forward 7 unknown #
edge $-1 $105 0 $93 3.1415926535978129 $88 $117 forward 7 unknown #
vertex $-1 $90 $118 #
straight-curve $-1 3.36180339887499 1.5690983005625054 1.9215277486407381e-016 -0.89442719099991586 0.44721359549995793 5.4766061056499909e-017 I I #
ellipse-curve $-1 3.3618033989789504 0 0 -1 6.6207317172535134e-011 2.4618292143157267e-022 -1.0388578886022515e-010 -1.5690983005624677 -5.8344790295479212e-012 1 I I #
point $-1 3.3618033988750837 -1.5690983005624581 6.7498980913698165e-012 #
coedge $-1 $113 $113 $110 $119 reversed $97 $-1 #
coedge $-1 $102 $99 $109 $119 forward $85 $-1 #
coedge $-1 $101 $100 $99 $112 reversed $72 $-1 #
edge $-1 $93 8.5376150593674803e-014 $120 1.1071487177937582 $111 $121 forward 7 unknown #
coedge $-1 $109 $109 $100 $114 reversed $97 $-1 #
edge $-1 $115 0 $120 3.1415926530205156 $113 $122 forward 7 unknown #
vertex $-1 $114 $123 #
ellipse-curve $-1 3.2499999999999991 1.3454915028125258 1.1609159903902546e-009 -4.6436663450710512e-009 -2.8438484170400639e-009 -1 0.11180339887506507 0.22360679774994208 -1.1550815184412648e-009 1 I I #
ellipse-curve $-1 3.3618033989789509 0 0 -1 -6.6207883216370217e-011 -2.4618472742557482e-022 -1.0388667703864485e-010 1.5690983005624679 5.8344719489897885e-012 1 I I #
point $-1 3.3618033988750642 1.5690983005624679 5.8344719489897885e-012 #
edge $-1 $120 -1.1796967701232876e-016 $115 3.1415926530205183 $109 $124 forward 7 unknown #
vertex $-1 $114 $125 #
ellipse-curve $-1 3.2500000000000004 -1.3454915028125265 -1.1609200221156011e-009 -4.6436776702578963e-009 2.843860753205336e-009 1 0.11180339887506419 -0.22360679774994119 1.1550855430860533e-009 1 I I #
ellipse-curve $-1 3.5 2.7755575615628914e-016 3.8297853777180535e-010 -1 0 0 0 1.3454915028125261 -3.8297913364931935e-010 1 I I #
point $-1 3.5 1.3454915028125263 -5.9587751399803324e-016 #
ellipse-curve $-1 3.5 2.2204460492503131e-016 -3.8297803817144427e-010 -1 0 0 0 -1.3454915028125261 3.8297743362031289e-010 1 I I #
point $-1 3.5 -1.3454915028125258 -7.6327832942979502e-016 #
End-of-ACIS-data 