600 0 1 0           
85 GICL ACIS Healer - Source: /gicl/data5/repository/UMD/inf-feats2/inf-feats2.sat - 6 0 18 ACIS 6.0.3 Solaris 24 Sun Apr 14 00:34:26 2002 
1 9.999999999999999547e-07 1.000000000000000036e-10 
body $-1 $1 $-1 $-1 #
lump $-1 $-1 $2 $0 #
shell $-1 $-1 $-1 $3 $-1 $1 #
face $-1 $4 $5 $2 $-1 $6 forward single #
face $-1 $7 $8 $2 $-1 $9 reversed single #
loop $-1 $-1 $10 $3 #
cone-surface $-1 26.99112508461480076 22 7.74999999999999023 0.4999999999999978906 -0 0.8660254037844398178 1.837117307087390072 2.121320343559640165 -1.060660171779820082 1 I I 0 -1 3.000000000000001776 forward I I I I #
face $-1 $11 $12 $2 $-1 $13 forward single #
loop $-1 $-1 $14 $4 #
plane-surface $-1 24.99999999999990052 25 -1.698729810778009996 0.8660254037844398178 0 -0.4999999999999978906 -0.4999999999999980016 0 -0.8660254037844400399 forward_v I I I I #
coedge $-1 $15 $16 $17 $18 forward $5 $-1 #
face $-1 $19 $20 $2 $-1 $21 forward single #
loop $-1 $-1 $22 $7 #
cone-surface $-1 14.86676943163280029 -28 4.75000000000000977 0.4999999999999978906 -0 0.8660254037844398178 -1.837117307087390072 2.121320343559640165 1.060660171779820082 1 I I 0 1 3.000000000000001776 forward I I I I #
coedge $-1 $23 $24 $25 $26 reversed $8 $-1 #
coedge $-1 $25 $10 $27 $28 reversed $5 $-1 #
coedge $-1 $10 $25 $29 $30 reversed $5 $-1 #
coedge $-1 $31 $32 $10 $18 reversed $33 $-1 #
edge $-1 $34 -35.08791260193248007 $35 -20.65415587219185056 $17 $36 forward 7 unknown #
face $-1 $37 $38 $2 $-1 $39 reversed single #
loop $-1 $-1 $40 $11 #
plane-surface $-1 12.5 -25 6.65063509461100022 -0.8660254037844398178 0 0.4999999999999978906 0.4999999999999980016 0 0.8660254037844400399 forward_v I I I I #
coedge $-1 $41 $42 $43 $44 forward $12 $-1 #
coedge $-1 $45 $14 $46 $47 forward $8 $-1 #
coedge $-1 $14 $45 $48 $49 reversed $8 $-1 #
coedge $-1 $16 $15 $14 $26 forward $5 $-1 #
edge $-1 $50 22.38620667976070777 $51 36.81996340950133373 $14 $52 forward 7 unknown #
coedge $-1 $53 $46 $15 $28 forward $38 $-1 #
edge $-1 $50 0 $35 1.570796326794896558 $27 $54 forward 7 unknown #
coedge $-1 $48 $55 $16 $30 forward $56 $-1 #
edge $-1 $34 -1.570796326794896558 $51 0 $29 $57 forward 7 unknown #
coedge $-1 $58 $17 $55 $59 reversed $33 $-1 #
coedge $-1 $17 $58 $53 $60 forward $33 $-1 #
loop $-1 $-1 $17 $61 #
vertex $-1 $59 $62 #
vertex $-1 $60 $63 #
straight-curve $-1 12.18958256229939963 25 -17.88702367904170032 -0.4999999999999980016 -0 -0.8660254037844400399 I I #
face $-1 $64 $65 $2 $-1 $66 forward single #
loop $-1 $-1 $67 $19 #
plane-surface $-1 0 0 0 0 0 1 1 0 0 forward_v I I I I #
coedge $-1 $68 $69 $70 $71 reversed $20 $-1 #
coedge $-1 $70 $22 $67 $72 forward $12 $-1 #
coedge $-1 $22 $70 $73 $74 forward $12 $-1 #
coedge $-1 $75 $76 $22 $44 reversed $77 $-1 #
edge $-1 $78 -8.976696669764836045 $79 5.457060059975794353 $43 $80 forward 7 unknown #
coedge $-1 $24 $23 $81 $82 reversed $8 $-1 #
coedge $-1 $27 $83 $23 $47 reversed $38 $-1 #
edge $-1 $50 -9.5 $84 34.5 $23 $85 forward 7 unknown #
coedge $-1 $86 $29 $24 $49 forward $56 $-1 #
edge $-1 $51 -9.5 $87 34.5 $48 $88 forward 7 unknown #
vertex $-1 $28 $89 #
vertex $-1 $49 $90 #
straight-curve $-1 14.78765877365269965 22 -19.38702367904170032 0.4999999999999980016 0 0.8660254037844400399 I I #
coedge $-1 $91 $27 $32 $60 reversed $38 $-1 #
ellipse-curve $-1 22.51666049839530004 22 -8.881784197001250351e-16 0 0 1 3.464101615137749945 0 0 0.8660254037844400399 I I #
coedge $-1 $29 $92 $31 $59 forward $56 $-1 #
loop $-1 $-1 $73 $93 #
ellipse-curve $-1 29.73353886326560058 22 12.5 -0 -0 -1 3.464101615137749945 0 0 0.8660254037844400399 I I #
coedge $-1 $32 $31 $94 $95 reversed $33 $-1 #
edge $-1 $96 -34.30885641057112423 $34 25.15822131596008049 $55 $97 forward 7 unknown #
edge $-1 $98 -27.09197804570082013 $35 17.94134295108977994 $32 $99 forward 7 unknown #
face $-1 $100 $33 $2 $-1 $101 forward single #
point $-1 29.73353886326560058 25 12.5 #
point $-1 22.51666049839530004 25 0 #
face $-1 $102 $103 $2 $-1 $104 forward single #
loop $-1 $-1 $105 $37 #
cone-surface $-1 26.99112508461480076 -22 7.74999999999999023 -0.4999999999999978906 -0 -0.8660254037844398178 1.837117307087390072 -2.121320343559640165 -1.060660171779820082 1 I I 0 -1 3.000000000000001776 forward I I I I #
coedge $-1 $106 $107 $41 $72 reversed $38 $-1 #
coedge $-1 $108 $40 $107 $109 forward $20 $-1 #
coedge $-1 $40 $108 $110 $111 reversed $20 $-1 #
coedge $-1 $42 $41 $40 $71 forward $12 $-1 #
edge $-1 $112 -7.189110867544680872 $113 7.244645862195929098 $40 $114 forward 7 unknown #
edge $-1 $79 -1.570796326794896558 $112 7.401486830834365432e-17 $67 $115 forward 7 unknown #
coedge $-1 $110 $116 $42 $74 reversed $56 $-1 #
edge $-1 $113 -7.401486830834365432e-17 $78 1.570796326794896558 $73 $117 forward 7 unknown #
coedge $-1 $118 $43 $116 $119 reversed $77 $-1 #
coedge $-1 $43 $118 $106 $120 forward $77 $-1 #
loop $-1 $-1 $43 $121 #
vertex $-1 $119 $122 #
vertex $-1 $120 $123 #
straight-curve $-1 14.85288568296999934 -25 4.725952641916469688 -0.4999999999999980016 -0 -0.8660254037844400399 I I #
coedge $-1 $124 $125 $45 $82 forward $65 $-1 #
edge $-1 $87 -36.81996340950133373 $84 -22.38620667976070777 $45 $126 forward 7 unknown #
coedge $-1 $46 $106 $124 $127 forward $38 $-1 #
vertex $-1 $47 $128 #
straight-curve $-1 25.98076211353300025 12.5 0 0 -1 0 I I #
coedge $-1 $116 $48 $125 $129 forward $56 $-1 #
vertex $-1 $49 $130 #
straight-curve $-1 33.19764047840330079 12.5 12.5 0 -1 0 I I #
point $-1 25.98076211353300025 22 0 #
point $-1 33.19764047840330079 22 12.5 #
coedge $-1 $131 $53 $132 $133 forward $38 $-1 #
coedge $-1 $55 $134 $135 $136 forward $56 $-1 #
face $-1 $121 $56 $2 $-1 $137 forward single #
coedge $-1 $135 $132 $58 $95 forward $138 $-1 #
edge $-1 $98 25.22947341949737421 $96 39.66323014923800372 $58 $139 forward 7 unknown #
vertex $-1 $59 $140 #
straight-curve $-1 4.575317547305520094 25 12.5 1 0 -0 I I #
vertex $-1 $133 $141 #
straight-curve $-1 4.575317547305520094 25 0 1 0 -0 I I #
face $-1 $142 $143 $2 $-1 $144 reversed single #
plane-surface $-1 9.150635094611040188 25 -10.84936490538910014 0 -1 0 -0.8660254037844400399 0 -0.4999999999999980016 forward_v I I I I #
face $-1 $145 $146 $2 $-1 $147 reversed single #
loop $-1 $-1 $148 $64 #
cone-surface $-1 -14.86676943163280029 -28 4.75000000000000977 0.4999999999999978906 0 -0.8660254037844398178 1.837117307087390072 2.121320343559640165 1.060660171779820082 1 I I 0 1 3.000000000000001776 forward I I I I #
coedge $-1 $125 $124 $118 $149 forward $65 $-1 #
coedge $-1 $83 $67 $76 $120 reversed $38 $-1 #
coedge $-1 $67 $150 $68 $109 reversed $38 $-1 #
coedge $-1 $69 $68 $151 $152 reversed $20 $-1 #
edge $-1 $112 15.5 $153 37.5 $68 $154 forward 7 unknown #
coedge $-1 $155 $73 $69 $111 forward $56 $-1 #
edge $-1 $113 15.5 $156 37.5 $110 $157 forward 7 unknown #
vertex $-1 $72 $158 #
vertex $-1 $71 $159 #
straight-curve $-1 12.25480947161669931 -28 6.225952641916469688 0.4999999999999980016 0 0.8660254037844400399 I I #
ellipse-curve $-1 12.12435565298209994 -28 0 0 0 1 -3.464101615137749945 2.220446049250310123e-16 0 0.8660254037844400399 I I #
coedge $-1 $73 $86 $75 $119 forward $56 $-1 #
ellipse-curve $-1 19.34123401785240048 -28 12.5 -0 -0 -1 -3.464101615137749945 2.220446049250310123e-16 0 0.8660254037844400399 I I #
coedge $-1 $76 $75 $105 $149 reversed $77 $-1 #
edge $-1 $160 -29.73353886326560058 $78 -19.34123401785240048 $116 $161 forward 7 unknown #
edge $-1 $162 -22.51666049839530004 $79 -12.12435565298209994 $76 $163 forward 7 unknown #
face $-1 $164 $77 $2 $-1 $147 reversed single #
point $-1 19.34123401785240048 -25 12.5 #
point $-1 12.12435565298209994 -25 0 #
coedge $-1 $105 $81 $83 $127 reversed $65 $-1 #
coedge $-1 $81 $105 $86 $129 reversed $65 $-1 #
straight-curve $-1 14.78765877365269965 -22 -19.38702367904170032 -0.4999999999999980016 0 -0.8660254037844400399 I I #
edge $-1 $162 -1.570796326794896558 $84 0 $83 $165 forward 7 unknown #
point $-1 25.98076211353300025 -22 0 #
edge $-1 $87 0 $160 1.570796326794896558 $86 $166 forward 7 unknown #
point $-1 33.19764047840330079 -22 12.5 #
coedge $-1 $167 $91 $168 $169 reversed $38 $-1 #
coedge $-1 $94 $170 $91 $133 reversed $138 $-1 #
edge $-1 $98 -1.570796326794896336 $171 4.440892098500633064e-16 $91 $172 forward 7 unknown #
coedge $-1 $92 $173 $174 $175 forward $56 $-1 #
coedge $-1 $170 $94 $92 $136 reversed $138 $-1 #
edge $-1 $176 -4.440892098500633064e-16 $96 1.570796326794896336 $92 $177 forward 7 unknown #
plane-surface $-1 0 0 12.5 0 0 1 1 0 0 forward_v I I I I #
loop $-1 $-1 $170 $178 #
straight-curve $-1 -9.901923788646630697 25 -21.84936490538899889 -0.4999999999999980016 0 0.8660254037844400399 I I #
point $-1 -29.73353886326560058 25 12.5 #
point $-1 -22.51666049839530004 25 0 #
face $-1 $179 $180 $2 $-1 $181 reversed single #
loop $-1 $-1 $182 $100 #
plane-surface $-1 0 50 0 0 -1 0 0 0 -1 forward_v I I I I #
face $-1 $183 $184 $2 $-1 $185 forward single #
loop $-1 $-1 $186 $102 #
plane-surface $-1 1.77635683940025007e-15 -25 12.73502691896250028 0 -1 0 -0.8660254037844400399 0 -0.4999999999999980016 forward_v I I I I #
coedge $-1 $187 $188 $186 $189 forward $103 $-1 #
edge $-1 $162 20.65415587219185056 $160 35.08791260193248007 $118 $190 forward 7 unknown #
coedge $-1 $107 $191 $192 $193 reversed $38 $-1 #
coedge $-1 $192 $194 $108 $152 forward $195 $-1 #
edge $-1 $156 -12.75907427704606434 $153 1.674682452694545631 $151 $196 forward 7 unknown #
vertex $-1 $152 $197 #
straight-curve $-1 8.660254037844339337 -12.5 0 0 -1 0 I I #
coedge $-1 $198 $110 $194 $199 forward $56 $-1 #
vertex $-1 $111 $200 #
straight-curve $-1 15.8771324027146008 -12.5 12.5 0 -1 0 I I #
point $-1 8.660254037844339337 -28 0 #
point $-1 15.8771324027146008 -28 12.5 #
vertex $-1 $119 $201 #
straight-curve $-1 8.881784197001250351e-16 -25 12.5 -1 0 0 I I #
vertex $-1 $127 $202 #
straight-curve $-1 8.881784197001250351e-16 -25 0 -1 0 0 I I #
face $-1 $203 $195 $2 $-1 $204 reversed single #
ellipse-curve $-1 22.51666049839530004 -22 -8.881784197001250351e-16 0 0 1 3.464101615137749945 0 0 0.8660254037844400399 I I #
ellipse-curve $-1 29.73353886326560058 -22 12.5 -0 -0 -1 3.464101615137749945 0 0 0.8660254037844400399 I I #
coedge $-1 $205 $131 $206 $207 forward $38 $-1 #
coedge $-1 $208 $209 $131 $169 forward $210 $-1 #
edge $-1 $211 -9.5 $171 34.5 $168 $212 forward 7 unknown #
coedge $-1 $132 $135 $208 $213 forward $138 $-1 #
vertex $-1 $169 $214 #
ellipse-curve $-1 -22.51666049839530004 22 -8.881784197001250351e-16 0 0 1 -3.464101615137749945 1.332267629550190018e-15 0 0.8660254037844400399 I I #
coedge $-1 $134 $215 $216 $217 forward $56 $-1 #
coedge $-1 $209 $208 $134 $175 reversed $210 $-1 #
edge $-1 $218 -9.5 $176 34.5 $134 $219 forward 7 unknown #
vertex $-1 $175 $220 #
ellipse-curve $-1 -29.73353886326560058 22 12.5 -0 -0 -1 -3.464101615137749945 1.332267629550190018e-15 0 0.8660254037844400399 I I #
face $-1 $61 $138 $2 $-1 $221 forward single #
face $-1 $222 $223 $2 $-1 $204 reversed single #
loop $-1 $-1 $224 $142 #
plane-surface $-1 -50 0 0 1 0 0 0 0 -1 forward_v I I I I #
coedge $-1 $225 $226 $227 $228 forward $143 $-1 #
face $-1 $178 $210 $2 $-1 $229 reversed single #
loop $-1 $-1 $230 $145 #
cone-surface $-1 -26.99112508461480076 -22 7.74999999999999023 -0.4999999999999978906 -0 0.8660254037844398178 -1.837117307087390072 -2.121320343559640165 -1.060660171779820082 1 I I 0 -1 3.000000000000001776 forward I I I I #
coedge $-1 $231 $232 $148 $189 reversed $146 $-1 #
coedge $-1 $233 $148 $234 $235 forward $103 $-1 #
coedge $-1 $148 $233 $236 $237 forward $103 $-1 #
edge $-1 $238 -5.457060059975794353 $239 8.976696669764836045 $186 $240 forward 7 unknown #
straight-curve $-1 12.18958256229939963 -25 -17.88702367904170032 0.4999999999999980016 0 0.8660254037844400399 I I #
coedge $-1 $150 $227 $241 $242 reversed $38 $-1 #
coedge $-1 $243 $151 $150 $193 forward $195 $-1 #
edge $-1 $153 8.660254037844339337 $244 50 $192 $245 forward 7 unknown #
coedge $-1 $151 $243 $155 $199 reversed $195 $-1 #
loop $-1 $-1 $192 $164 #
straight-curve $-1 9.497595264191609488 -50 1.450317547305510102 -0.4999999999999980016 0 -0.8660254037844400399 I I #
point $-1 8.660254037844339337 -50 0 #
coedge $-1 $246 $155 $247 $248 forward $56 $-1 #
edge $-1 $156 15.8771324027146008 $249 50 $194 $250 forward 7 unknown #
point $-1 15.8771324027146008 -50 12.5 #
point $-1 29.73353886326560058 -25 12.5 #
point $-1 22.51666049839530004 -25 0 #
face $-1 $-1 $251 $2 $-1 $252 reversed single #
plane-surface $-1 0 -50 0 0 1 -0 -0 0 1 forward_v I I I I #
coedge $-1 $236 $167 $231 $253 reversed $38 $-1 #
coedge $-1 $254 $230 $167 $207 reversed $184 $-1 #
edge $-1 $211 0 $255 1.570796326794896558 $167 $256 forward 7 unknown #
coedge $-1 $174 $168 $170 $213 reversed $210 $-1 #
coedge $-1 $168 $174 $254 $257 reversed $210 $-1 #
loop $-1 $-1 $209 $183 #
vertex $-1 $207 $258 #
straight-curve $-1 -25.98076211353300025 -12.5 0 0 1 -0 I I #
edge $-1 $176 -41.39528095680682895 $171 -26.96152422706619944 $208 $259 forward 7 unknown #
point $-1 -25.98076211353300025 22 0 #
coedge $-1 $173 $234 $232 $260 forward $56 $-1 #
coedge $-1 $230 $254 $173 $217 reversed $184 $-1 #
edge $-1 $261 -1.570796326794896558 $218 0 $173 $262 forward 7 unknown #
vertex $-1 $175 $263 #
straight-curve $-1 -33.19764047840330079 -12.5 12.5 0 1 -0 I I #
point $-1 -33.19764047840330079 22 12.5 #
cone-surface $-1 -26.99112508461480076 22 7.74999999999999023 -0.4999999999999978906 -0 0.8660254037844398178 -1.83711730708738008 2.121320343559640165 -1.060660171779820082 1 I I 0 -1 2.999999999999996003 forward I I I I #
face $-1 $93 $264 $2 $-1 $265 forward single #
loop $-1 $-1 $266 $179 #
coedge $-1 $267 $268 $269 $270 forward $180 $-1 #
coedge $-1 $271 $182 $268 $272 reversed $143 $-1 #
coedge $-1 $182 $271 $273 $274 forward $143 $-1 #
coedge $-1 $191 $269 $182 $228 reversed $38 $-1 #
edge $-1 $275 -50 $276 50 $182 $277 forward 7 unknown #
plane-surface $-1 -24.99999999999990052 -25 -1.698729810778009996 -0.8660254037844398178 0 -0.4999999999999978906 -0.4999999999999980016 0 0.8660254037844400399 forward_v I I I I #
coedge $-1 $206 $216 $278 $279 forward $184 $-1 #
coedge $-1 $278 $186 $205 $253 forward $146 $-1 #
coedge $-1 $186 $278 $215 $260 reversed $146 $-1 #
coedge $-1 $188 $187 $280 $281 forward $103 $-1 #
coedge $-1 $215 $282 $187 $235 reversed $56 $-1 #
edge $-1 $239 -1.570796326794897002 $283 -5.181040781584064184e-16 $234 $284 forward 7 unknown #
coedge $-1 $285 $205 $188 $237 reversed $38 $-1 #
edge $-1 $286 5.181040781584064184e-16 $238 1.570796326794897002 $236 $287 forward 7 unknown #
vertex $-1 $237 $288 #
vertex $-1 $189 $289 #
straight-curve $-1 -14.85288568296999934 -25 4.725952641916469688 -0.4999999999999980016 0 0.8660254037844400399 I I #
coedge $-1 $273 $290 $191 $242 forward $251 $-1 #
edge $-1 $244 -50 $275 50 $241 $291 forward 7 unknown #
coedge $-1 $194 $192 $290 $292 reversed $195 $-1 #
vertex $-1 $292 $293 #
straight-curve $-1 0 -50 0 1 -0 0 I I #
coedge $-1 $294 $198 $271 $295 forward $56 $-1 #
coedge $-1 $290 $273 $198 $248 reversed $251 $-1 #
edge $-1 $249 -50 $296 50 $247 $297 forward 7 unknown #
vertex $-1 $248 $298 #
straight-curve $-1 0 -50 12.5 1 0 0 I I #
loop $-1 $-1 $241 $203 #
plane-surface $-1 50 0 0 -1 0 0 0 -0 1 forward_v I I I I #
edge $-1 $238 12.12435565298209994 $255 22.51666049839530004 $231 $299 forward 7 unknown #
coedge $-1 $216 $206 $209 $257 forward $184 $-1 #
vertex $-1 $253 $300 #
ellipse-curve $-1 -22.51666049839530004 -22 -8.881784197001250351e-16 0 0 1 -3.464101615137749945 0 0 0.8660254037844400399 I I #
edge $-1 $211 1.961524227066238524 $218 16.39528095680686803 $209 $301 forward 7 unknown #
point $-1 -25.98076211353300025 -22 0 #
straight-curve $-1 -12.5 22 -23.34936490538899889 0.4999999999999980016 0 -0.8660254037844400399 I I #
edge $-1 $239 19.34123401785240048 $261 29.73353886326560058 $215 $161 forward 7 unknown #
vertex $-1 $260 $302 #
ellipse-curve $-1 -29.73353886326560058 -22 12.5 -0 -0 -1 -3.464101615137749945 0 0 0.8660254037844400399 I I #
point $-1 -33.19764047840330079 -22 12.5 #
loop $-1 $-1 $280 $222 #
plane-surface $-1 -12.5 -25 6.65063509461100022 0.8660254037844398178 0 0.4999999999999978906 0.4999999999999980016 0 -0.8660254037844400399 forward_v I I I I #
coedge $-1 $303 $304 $305 $306 forward $223 $-1 #
coedge $-1 $307 $224 $304 $308 reversed $180 $-1 #
coedge $-1 $224 $307 $225 $272 forward $180 $-1 #
coedge $-1 $227 $305 $224 $270 reversed $38 $-1 #
edge $-1 $276 -50 $309 50 $224 $310 forward 7 unknown #
coedge $-1 $226 $225 $246 $295 reversed $143 $-1 #
edge $-1 $311 -12.5 $276 0 $225 $312 forward 7 unknown #
coedge $-1 $247 $241 $226 $274 reversed $251 $-1 #
edge $-1 $296 -12.5 $275 0 $273 $313 forward 7 unknown #
vertex $-1 $274 $314 #
vertex $-1 $272 $315 #
straight-curve $-1 0 50 0 -1 0 0 I I #
coedge $-1 $232 $231 $230 $279 reversed $146 $-1 #
edge $-1 $261 -14.66323014923801615 $255 -0.2294734194973861163 $278 $316 forward 7 unknown #
coedge $-1 $317 $318 $233 $281 reversed $264 $-1 #
edge $-1 $283 -7.244645862195929098 $286 7.189110867544680872 $280 $319 forward 7 unknown #
coedge $-1 $234 $320 $317 $321 forward $56 $-1 #
vertex $-1 $321 $322 #
ellipse-curve $-1 -19.34123401785240048 -28 12.5 -0 -0 -1 3.464101615137749945 -1.554312234475219945e-15 0 0.8660254037844400399 I I #
coedge $-1 $305 $236 $318 $323 reversed $38 $-1 #
vertex $-1 $323 $324 #
ellipse-curve $-1 -12.12435565298209994 -28 0 0 0 1 3.464101615137749945 -1.554312234475219945e-15 0 0.8660254037844400399 I I #
point $-1 -12.12435565298209994 -25 0 #
point $-1 -19.34123401785240048 -25 12.5 #
coedge $-1 $241 $247 $243 $292 forward $251 $-1 #
straight-curve $-1 50 0 0 0 1 -0 I I #
edge $-1 $249 -12.5 $244 0 $290 $325 forward 7 unknown #
point $-1 50 -50 0 #
coedge $-1 $320 $246 $307 $326 forward $56 $-1 #
edge $-1 $296 -50 $311 50 $271 $327 forward 7 unknown #
vertex $-1 $248 $328 #
straight-curve $-1 50 0 12.5 0 1 0 I I #
point $-1 50 -50 12.5 #
straight-curve $-1 8.881784197001250351e-16 -25 0 -1 0 0 I I #
point $-1 -22.51666049839530004 -25 0 #
straight-curve $-1 -24.99999999999990052 -22 -1.698729810778009996 -0.4999999999999980016 0 0.8660254037844400399 I I #
point $-1 -29.73353886326560058 -25 12.5 #
coedge $-1 $329 $266 $330 $331 forward $223 $-1 #
coedge $-1 $266 $329 $267 $308 forward $223 $-1 #
coedge $-1 $269 $285 $266 $306 reversed $38 $-1 #
edge $-1 $309 -50 $332 -8.660254037844339337 $266 $333 forward 7 unknown #
coedge $-1 $268 $267 $294 $326 reversed $180 $-1 #
edge $-1 $334 -12.5 $309 0 $267 $335 forward 7 unknown #
vertex $-1 $308 $336 #
straight-curve $-1 -50 0 0 0 -1 0 I I #
vertex $-1 $295 $337 #
straight-curve $-1 -50 50 0 0 0 -1 I I #
straight-curve $-1 50 50 0 0 0 -1 I I #
point $-1 50 50 0 #
point $-1 -50 50 0 #
straight-curve $-1 -22.40192378864659872 -25 -0.1987298107780149925 0.4999999999999980016 0 -0.8660254037844400399 I I #
coedge $-1 $330 $280 $282 $321 reversed $264 $-1 #
coedge $-1 $280 $330 $285 $323 forward $264 $-1 #
straight-curve $-1 -12.25480947161669931 -28 6.225952641916469688 0.4999999999999980016 0 -0.8660254037844400399 I I #
coedge $-1 $282 $294 $329 $338 forward $56 $-1 #
edge $-1 $339 -37.5 $283 -15.5 $282 $340 forward 7 unknown #
point $-1 -15.8771324027146008 -28 12.5 #
edge $-1 $332 -37.5 $286 -15.5 $318 $341 forward 7 unknown #
point $-1 -8.660254037844339337 -28 0 #
straight-curve $-1 50 -50 0 0 0 -1 I I #
edge $-1 $311 -50 $334 50 $307 $342 forward 7 unknown #
straight-curve $-1 0 50 12.5 -1 0 0 I I #
point $-1 50 50 12.5 #
coedge $-1 $304 $303 $320 $338 reversed $223 $-1 #
coedge $-1 $318 $317 $303 $331 reversed $264 $-1 #
edge $-1 $332 -1.674682452694545631 $339 12.75907427704606434 $303 $343 forward 7 unknown #
vertex $-1 $323 $344 #
straight-curve $-1 0 -50 0 1 -0 0 I I #
vertex $-1 $326 $345 #
straight-curve $-1 -50 -50 0 0 0 -1 I I #
point $-1 -50 -50 0 #
point $-1 -50 50 12.5 #
edge $-1 $334 -50 $339 -15.8771324027146008 $329 $250 forward 7 unknown #
vertex $-1 $338 $346 #
straight-curve $-1 -15.8771324027146008 -12.5 12.5 0 1 0 I I #
straight-curve $-1 -8.660254037844339337 -12.5 0 0 1 0 I I #
straight-curve $-1 -50 0 12.5 0 -1 0 I I #
straight-curve $-1 -9.497595264191609488 -50 1.450317547305510102 -0.4999999999999980016 0 0.8660254037844400399 I I #
point $-1 -8.660254037844339337 -50 0 #
point $-1 -50 -50 12.5 #
point $-1 -15.8771324027146008 -50 12.5 #
End-of-ACIS-data 