105 347 1 0                             
body $-1 $1 $-1 $-1 #
lump $-1 $-1 $2 $0 #
shell $-1 $-1 $-1 $3 $1 #
face $-1 $4 $5 $2 $-1 $6 forward single #
face $-1 $7 $8 $2 $-1 $9 reversed single #
loop $-1 $-1 $10 $3 #
cone-surface $-1 26.9911250846148 22 7.74999999999999 0.499999999999998 -0 0.86602540378444 1.83711730708739 2.12132034355964 -1.06066017177982 1 0 -1 0 #
face $-1 $11 $12 $2 $-1 $13 forward single #
loop $-1 $-1 $14 $4 #
plane-surface $-1 24.9999999999999 25 -1.69872981077801 0.86602540378444 0 -0.499999999999998 -0.499999999999998 0 -0.86602540378444 0 #
coedge $-1 $15 $16 $17 $18 0 $5 $-1 #
face $-1 $19 $20 $2 $-1 $21 forward single #
loop $-1 $-1 $22 $7 #
cone-surface $-1 14.8667694316328 -28 4.75000000000001 0.499999999999998 -0 0.86602540378444 -1.83711730708739 2.12132034355964 1.06066017177982 1 0 1 0 #
coedge $-1 $23 $24 $25 $26 1 $8 $-1 #
coedge $-1 $25 $10 $27 $28 1 $5 $-1 #
coedge $-1 $10 $25 $29 $30 1 $5 $-1 #
coedge $-1 $31 $32 $10 $18 1 $33 $-1 #
edge $-1 $34 $35 $17 $36 0 #
face $-1 $37 $38 $2 $-1 $39 reversed single #
loop $-1 $-1 $40 $11 #
plane-surface $-1 12.5 -25 6.650635094611 -0.86602540378444 0 0.499999999999998 0.499999999999998 0 0.86602540378444 0 #
coedge $-1 $41 $42 $43 $44 0 $12 $-1 #
coedge $-1 $45 $14 $46 $47 0 $8 $-1 #
coedge $-1 $14 $45 $48 $49 1 $8 $-1 #
coedge $-1 $16 $15 $14 $26 0 $5 $-1 #
edge $-1 $50 $51 $14 $52 0 #
coedge $-1 $53 $46 $15 $28 0 $38 $-1 #
edge $-1 $50 $35 $27 $54 0 #
coedge $-1 $48 $55 $16 $30 0 $56 $-1 #
edge $-1 $34 $51 $29 $57 0 #
coedge $-1 $58 $17 $55 $59 1 $33 $-1 #
coedge $-1 $17 $58 $53 $60 0 $33 $-1 #
loop $-1 $-1 $17 $61 #
vertex $-1 $59 $62 #
vertex $-1 $60 $63 #
straight-curve $-1 12.1895825622994 25 -17.8870236790417 -0.499999999999998 -0 -0.86602540378444 #
face $-1 $64 $65 $2 $-1 $66 forward single #
loop $-1 $-1 $67 $19 #
plane-surface $-1 0 0 0 0 0 1 1 0 0 0 #
coedge $-1 $68 $69 $70 $71 1 $20 $-1 #
coedge $-1 $70 $22 $67 $72 0 $12 $-1 #
coedge $-1 $22 $70 $73 $74 0 $12 $-1 #
coedge $-1 $75 $76 $22 $44 1 $77 $-1 #
edge $-1 $78 $79 $43 $80 0 #
coedge $-1 $24 $23 $81 $82 1 $8 $-1 #
coedge $-1 $27 $83 $23 $47 1 $38 $-1 #
edge $-1 $50 $84 $23 $85 0 #
coedge $-1 $86 $29 $24 $49 0 $56 $-1 #
edge $-1 $51 $87 $48 $88 0 #
vertex $-1 $28 $89 #
vertex $-1 $49 $90 #
straight-curve $-1 14.7876587736527 22 -19.3870236790417 0.499999999999998 0 0.86602540378444 #
coedge $-1 $91 $27 $32 $60 1 $38 $-1 #
ellipse-curve $-1 22.5166604983953 22 -8.88178419700125e-16 0 0 1 3.46410161513775 0 0 0.86602540378444 #
coedge $-1 $29 $92 $31 $59 0 $56 $-1 #
loop $-1 $-1 $73 $93 #
ellipse-curve $-1 29.7335388632656 22 12.5 -0 -0 -1 3.46410161513775 0 0 0.86602540378444 #
coedge $-1 $32 $31 $94 $95 1 $33 $-1 #
edge $-1 $96 $34 $55 $97 0 #
edge $-1 $98 $35 $32 $99 0 #
face $-1 $100 $33 $2 $-1 $101 forward single #
point $-1 29.7335388632656 25 12.5 #
point $-1 22.5166604983953 25 0 #
face $-1 $102 $103 $2 $-1 $104 forward single #
loop $-1 $-1 $105 $37 #
cone-surface $-1 26.9911250846148 -22 7.74999999999999 -0.499999999999998 -0 -0.86602540378444 1.83711730708739 -2.12132034355964 -1.06066017177982 1 0 -1 0 #
coedge $-1 $106 $107 $41 $72 1 $38 $-1 #
coedge $-1 $108 $40 $107 $109 0 $20 $-1 #
coedge $-1 $40 $108 $110 $111 1 $20 $-1 #
coedge $-1 $42 $41 $40 $71 0 $12 $-1 #
edge $-1 $112 $113 $40 $114 0 #
edge $-1 $79 $112 $67 $115 0 #
coedge $-1 $110 $116 $42 $74 1 $56 $-1 #
edge $-1 $113 $78 $73 $117 0 #
coedge $-1 $118 $43 $116 $119 1 $77 $-1 #
coedge $-1 $43 $118 $106 $120 0 $77 $-1 #
loop $-1 $-1 $43 $121 #
vertex $-1 $119 $122 #
vertex $-1 $120 $123 #
straight-curve $-1 14.85288568297 -25 4.72595264191647 -0.499999999999998 -0 -0.86602540378444 #
coedge $-1 $124 $125 $45 $82 0 $65 $-1 #
edge $-1 $87 $84 $45 $126 0 #
coedge $-1 $46 $106 $124 $127 0 $38 $-1 #
vertex $-1 $47 $128 #
straight-curve $-1 25.980762113533 12.5 0 0 -1 0 #
coedge $-1 $116 $48 $125 $129 0 $56 $-1 #
vertex $-1 $49 $130 #
straight-curve $-1 33.1976404784033 12.5 12.5 0 -1 0 #
point $-1 25.980762113533 22 0 #
point $-1 33.1976404784033 22 12.5 #
coedge $-1 $131 $53 $132 $133 0 $38 $-1 #
coedge $-1 $55 $134 $135 $136 0 $56 $-1 #
face $-1 $121 $56 $2 $-1 $137 forward single #
coedge $-1 $135 $132 $58 $95 0 $138 $-1 #
edge $-1 $98 $96 $58 $139 0 #
vertex $-1 $59 $140 #
straight-curve $-1 4.57531754730552 25 12.5 1 0 -0 #
vertex $-1 $133 $141 #
straight-curve $-1 4.57531754730552 25 0 1 0 -0 #
face $-1 $142 $143 $2 $-1 $144 reversed single #
plane-surface $-1 9.15063509461104 25 -10.8493649053891 0 -1 0 -0.86602540378444 0 -0.499999999999998 0 #
face $-1 $145 $146 $2 $-1 $147 reversed single #
loop $-1 $-1 $148 $64 #
cone-surface $-1 -14.8667694316328 -28 4.75000000000001 0.499999999999998 0 -0.86602540378444 1.83711730708739 2.12132034355964 1.06066017177982 1 0 1 0 #
coedge $-1 $125 $124 $118 $149 0 $65 $-1 #
coedge $-1 $83 $67 $76 $120 1 $38 $-1 #
coedge $-1 $67 $150 $68 $109 1 $38 $-1 #
coedge $-1 $69 $68 $151 $152 1 $20 $-1 #
edge $-1 $112 $153 $68 $154 0 #
coedge $-1 $155 $73 $69 $111 0 $56 $-1 #
edge $-1 $113 $156 $110 $157 0 #
vertex $-1 $72 $158 #
vertex $-1 $71 $159 #
straight-curve $-1 12.2548094716167 -28 6.22595264191647 0.499999999999998 0 0.86602540378444 #
ellipse-curve $-1 12.1243556529821 -28 0 0 0 1 -3.46410161513775 2.22044604925031e-16 0 0.86602540378444 #
coedge $-1 $73 $86 $75 $119 0 $56 $-1 #
ellipse-curve $-1 19.3412340178524 -28 12.5 -0 -0 -1 -3.46410161513775 2.22044604925031e-16 0 0.86602540378444 #
coedge $-1 $76 $75 $105 $149 1 $77 $-1 #
edge $-1 $160 $78 $116 $161 0 #
edge $-1 $162 $79 $76 $163 0 #
face $-1 $164 $77 $2 $-1 $147 reversed single #
point $-1 19.3412340178524 -25 12.5 #
point $-1 12.1243556529821 -25 0 #
coedge $-1 $105 $81 $83 $127 1 $65 $-1 #
coedge $-1 $81 $105 $86 $129 1 $65 $-1 #
straight-curve $-1 14.7876587736527 -22 -19.3870236790417 -0.499999999999998 0 -0.86602540378444 #
edge $-1 $162 $84 $83 $165 0 #
point $-1 25.980762113533 -22 0 #
edge $-1 $87 $160 $86 $166 0 #
point $-1 33.1976404784033 -22 12.5 #
coedge $-1 $167 $91 $168 $169 1 $38 $-1 #
coedge $-1 $94 $170 $91 $133 1 $138 $-1 #
edge $-1 $98 $171 $91 $172 0 #
coedge $-1 $92 $173 $174 $175 0 $56 $-1 #
coedge $-1 $170 $94 $92 $136 1 $138 $-1 #
edge $-1 $176 $96 $92 $177 0 #
plane-surface $-1 0 0 12.5 0 0 1 1 0 0 0 #
loop $-1 $-1 $170 $178 #
straight-curve $-1 -9.90192378864663 25 -21.849364905389 -0.499999999999998 0 0.86602540378444 #
point $-1 -29.7335388632656 25 12.5 #
point $-1 -22.5166604983953 25 0 #
face $-1 $179 $180 $2 $-1 $181 reversed single #
loop $-1 $-1 $182 $100 #
plane-surface $-1 0 50 0 0 -1 0 0 0 -1 0 #
face $-1 $183 $184 $2 $-1 $185 forward single #
loop $-1 $-1 $186 $102 #
plane-surface $-1 1.77635683940025e-15 -25 12.7350269189625 0 -1 0 -0.86602540378444 0 -0.499999999999998 0 #
coedge $-1 $187 $188 $186 $189 0 $103 $-1 #
edge $-1 $162 $160 $118 $190 0 #
coedge $-1 $107 $191 $192 $193 1 $38 $-1 #
coedge $-1 $192 $194 $108 $152 0 $195 $-1 #
edge $-1 $156 $153 $151 $196 0 #
vertex $-1 $152 $197 #
straight-curve $-1 8.66025403784434 -12.5 0 0 -1 0 #
coedge $-1 $198 $110 $194 $199 0 $56 $-1 #
vertex $-1 $111 $200 #
straight-curve $-1 15.8771324027146 -12.5 12.5 0 -1 0 #
point $-1 8.66025403784434 -28 0 #
point $-1 15.8771324027146 -28 12.5 #
vertex $-1 $119 $201 #
straight-curve $-1 8.88178419700125e-16 -25 12.5 -1 0 0 #
vertex $-1 $127 $202 #
straight-curve $-1 8.88178419700125e-16 -25 0 -1 0 0 #
face $-1 $203 $195 $2 $-1 $204 reversed single #
ellipse-curve $-1 22.5166604983953 -22 -8.88178419700125e-16 0 0 1 3.46410161513775 0 0 0.86602540378444 #
ellipse-curve $-1 29.7335388632656 -22 12.5 -0 -0 -1 3.46410161513775 0 0 0.86602540378444 #
coedge $-1 $205 $131 $206 $207 0 $38 $-1 #
coedge $-1 $208 $209 $131 $169 0 $210 $-1 #
edge $-1 $211 $171 $168 $212 0 #
coedge $-1 $132 $135 $208 $213 0 $138 $-1 #
vertex $-1 $169 $214 #
ellipse-curve $-1 -22.5166604983953 22 -8.88178419700125e-16 0 0 1 -3.46410161513775 1.33226762955019e-15 0 0.86602540378444 #
coedge $-1 $134 $215 $216 $217 0 $56 $-1 #
coedge $-1 $209 $208 $134 $175 1 $210 $-1 #
edge $-1 $218 $176 $134 $219 0 #
vertex $-1 $175 $220 #
ellipse-curve $-1 -29.7335388632656 22 12.5 -0 -0 -1 -3.46410161513775 1.33226762955019e-15 0 0.86602540378444 #
face $-1 $61 $138 $2 $-1 $221 forward single #
face $-1 $222 $223 $2 $-1 $204 reversed single #
loop $-1 $-1 $224 $142 #
plane-surface $-1 -50 0 0 1 0 0 0 0 -1 0 #
coedge $-1 $225 $226 $227 $228 0 $143 $-1 #
face $-1 $178 $210 $2 $-1 $229 reversed single #
loop $-1 $-1 $230 $145 #
cone-surface $-1 -26.9911250846148 -22 7.74999999999999 -0.499999999999998 -0 0.86602540378444 -1.83711730708739 -2.12132034355964 -1.06066017177982 1 0 -1 0 #
coedge $-1 $231 $232 $148 $189 1 $146 $-1 #
coedge $-1 $233 $148 $234 $235 0 $103 $-1 #
coedge $-1 $148 $233 $236 $237 0 $103 $-1 #
edge $-1 $238 $239 $186 $240 0 #
straight-curve $-1 12.1895825622994 -25 -17.8870236790417 0.499999999999998 0 0.86602540378444 #
coedge $-1 $150 $227 $241 $242 1 $38 $-1 #
coedge $-1 $243 $151 $150 $193 0 $195 $-1 #
edge $-1 $153 $244 $192 $245 0 #
coedge $-1 $151 $243 $155 $199 1 $195 $-1 #
loop $-1 $-1 $192 $164 #
straight-curve $-1 9.49759526419161 -50 1.45031754730551 -0.499999999999998 0 -0.86602540378444 #
point $-1 8.66025403784434 -50 0 #
coedge $-1 $246 $155 $247 $248 0 $56 $-1 #
edge $-1 $156 $249 $194 $250 0 #
point $-1 15.8771324027146 -50 12.5 #
point $-1 29.7335388632656 -25 12.5 #
point $-1 22.5166604983953 -25 0 #
face $-1 $-1 $251 $2 $-1 $252 reversed single #
plane-surface $-1 0 -50 0 0 1 -0 -0 0 1 0 #
coedge $-1 $236 $167 $231 $253 1 $38 $-1 #
coedge $-1 $254 $230 $167 $207 1 $184 $-1 #
edge $-1 $211 $255 $167 $256 0 #
coedge $-1 $174 $168 $170 $213 1 $210 $-1 #
coedge $-1 $168 $174 $254 $257 1 $210 $-1 #
loop $-1 $-1 $209 $183 #
vertex $-1 $207 $258 #
straight-curve $-1 -25.980762113533 -12.5 0 0 1 -0 #
edge $-1 $176 $171 $208 $259 0 #
point $-1 -25.980762113533 22 0 #
coedge $-1 $173 $234 $232 $260 0 $56 $-1 #
coedge $-1 $230 $254 $173 $217 1 $184 $-1 #
edge $-1 $261 $218 $173 $262 0 #
vertex $-1 $175 $263 #
straight-curve $-1 -33.1976404784033 -12.5 12.5 0 1 -0 #
point $-1 -33.1976404784033 22 12.5 #
cone-surface $-1 -26.9911250846148 22 7.74999999999999 -0.499999999999998 -0 0.86602540378444 -1.83711730708738 2.12132034355964 -1.06066017177982 1 0 -1 0 #
face $-1 $93 $264 $2 $-1 $265 forward single #
loop $-1 $-1 $266 $179 #
coedge $-1 $267 $268 $269 $270 0 $180 $-1 #
coedge $-1 $271 $182 $268 $272 1 $143 $-1 #
coedge $-1 $182 $271 $273 $274 0 $143 $-1 #
coedge $-1 $191 $269 $182 $228 1 $38 $-1 #
edge $-1 $275 $276 $182 $277 0 #
plane-surface $-1 -24.9999999999999 -25 -1.69872981077801 -0.86602540378444 0 -0.499999999999998 -0.499999999999998 0 0.86602540378444 0 #
coedge $-1 $206 $216 $278 $279 0 $184 $-1 #
coedge $-1 $278 $186 $205 $253 0 $146 $-1 #
coedge $-1 $186 $278 $215 $260 1 $146 $-1 #
coedge $-1 $188 $187 $280 $281 0 $103 $-1 #
coedge $-1 $215 $282 $187 $235 1 $56 $-1 #
edge $-1 $239 $283 $234 $284 0 #
coedge $-1 $285 $205 $188 $237 1 $38 $-1 #
edge $-1 $286 $238 $236 $287 0 #
vertex $-1 $237 $288 #
vertex $-1 $189 $289 #
straight-curve $-1 -14.85288568297 -25 4.72595264191647 -0.499999999999998 0 0.86602540378444 #
coedge $-1 $273 $290 $191 $242 0 $251 $-1 #
edge $-1 $244 $275 $241 $291 0 #
coedge $-1 $194 $192 $290 $292 1 $195 $-1 #
vertex $-1 $292 $293 #
straight-curve $-1 0 -50 0 1 -0 0 #
coedge $-1 $294 $198 $271 $295 0 $56 $-1 #
coedge $-1 $290 $273 $198 $248 1 $251 $-1 #
edge $-1 $249 $296 $247 $297 0 #
vertex $-1 $248 $298 #
straight-curve $-1 0 -50 12.5 1 0 0 #
loop $-1 $-1 $241 $203 #
plane-surface $-1 50 0 0 -1 0 0 0 -0 1 0 #
edge $-1 $238 $255 $231 $299 0 #
coedge $-1 $216 $206 $209 $257 0 $184 $-1 #
vertex $-1 $253 $300 #
ellipse-curve $-1 -22.5166604983953 -22 -8.88178419700125e-16 0 0 1 -3.46410161513775 0 0 0.86602540378444 #
edge $-1 $211 $218 $209 $301 0 #
point $-1 -25.980762113533 -22 0 #
straight-curve $-1 -12.5 22 -23.349364905389 0.499999999999998 0 -0.86602540378444 #
edge $-1 $239 $261 $215 $161 0 #
vertex $-1 $260 $302 #
ellipse-curve $-1 -29.7335388632656 -22 12.5 -0 -0 -1 -3.46410161513775 0 0 0.86602540378444 #
point $-1 -33.1976404784033 -22 12.5 #
loop $-1 $-1 $280 $222 #
plane-surface $-1 -12.5 -25 6.650635094611 0.86602540378444 0 0.499999999999998 0.499999999999998 0 -0.86602540378444 0 #
coedge $-1 $303 $304 $305 $306 0 $223 $-1 #
coedge $-1 $307 $224 $304 $308 1 $180 $-1 #
coedge $-1 $224 $307 $225 $272 0 $180 $-1 #
coedge $-1 $227 $305 $224 $270 1 $38 $-1 #
edge $-1 $276 $309 $224 $310 0 #
coedge $-1 $226 $225 $246 $295 1 $143 $-1 #
edge $-1 $311 $276 $225 $312 0 #
coedge $-1 $247 $241 $226 $274 1 $251 $-1 #
edge $-1 $296 $275 $273 $313 0 #
vertex $-1 $274 $314 #
vertex $-1 $272 $315 #
straight-curve $-1 0 50 0 -1 0 0 #
coedge $-1 $232 $231 $230 $279 1 $146 $-1 #
edge $-1 $261 $255 $278 $316 0 #
coedge $-1 $317 $318 $233 $281 1 $264 $-1 #
edge $-1 $283 $286 $280 $319 0 #
coedge $-1 $234 $320 $317 $321 0 $56 $-1 #
vertex $-1 $321 $322 #
ellipse-curve $-1 -19.3412340178524 -28 12.5 -0 -0 -1 3.46410161513775 -1.55431223447522e-15 0 0.86602540378444 #
coedge $-1 $305 $236 $318 $323 1 $38 $-1 #
vertex $-1 $323 $324 #
ellipse-curve $-1 -12.1243556529821 -28 0 0 0 1 3.46410161513775 -1.55431223447522e-15 0 0.86602540378444 #
point $-1 -12.1243556529821 -25 0 #
point $-1 -19.3412340178524 -25 12.5 #
coedge $-1 $241 $247 $243 $292 0 $251 $-1 #
straight-curve $-1 50 0 0 0 1 -0 #
edge $-1 $249 $244 $290 $325 0 #
point $-1 50 -50 0 #
coedge $-1 $320 $246 $307 $326 0 $56 $-1 #
edge $-1 $296 $311 $271 $327 0 #
vertex $-1 $248 $328 #
straight-curve $-1 50 0 12.5 0 1 0 #
point $-1 50 -50 12.5 #
straight-curve $-1 8.88178419700125e-16 -25 0 -1 0 0 #
point $-1 -22.5166604983953 -25 0 #
straight-curve $-1 -24.9999999999999 -22 -1.69872981077801 -0.499999999999998 0 0.86602540378444 #
point $-1 -29.7335388632656 -25 12.5 #
coedge $-1 $329 $266 $330 $331 0 $223 $-1 #
coedge $-1 $266 $329 $267 $308 0 $223 $-1 #
coedge $-1 $269 $285 $266 $306 1 $38 $-1 #
edge $-1 $309 $332 $266 $333 0 #
coedge $-1 $268 $267 $294 $326 1 $180 $-1 #
edge $-1 $334 $309 $267 $335 0 #
vertex $-1 $308 $336 #
straight-curve $-1 -50 0 0 0 -1 0 #
vertex $-1 $295 $337 #
straight-curve $-1 -50 50 0 0 0 -1 #
straight-curve $-1 50 50 0 0 0 -1 #
point $-1 50 50 0 #
point $-1 -50 50 0 #
straight-curve $-1 -22.4019237886466 -25 -0.198729810778015 0.499999999999998 0 -0.86602540378444 #
coedge $-1 $330 $280 $282 $321 1 $264 $-1 #
coedge $-1 $280 $330 $285 $323 0 $264 $-1 #
straight-curve $-1 -12.2548094716167 -28 6.22595264191647 0.499999999999998 0 -0.86602540378444 #
coedge $-1 $282 $294 $329 $338 0 $56 $-1 #
edge $-1 $339 $283 $282 $340 0 #
point $-1 -15.8771324027146 -28 12.5 #
edge $-1 $332 $286 $318 $341 0 #
point $-1 -8.66025403784434 -28 0 #
straight-curve $-1 50 -50 0 0 0 -1 #
edge $-1 $311 $334 $307 $342 0 #
straight-curve $-1 0 50 12.5 -1 0 0 #
point $-1 50 50 12.5 #
coedge $-1 $304 $303 $320 $338 1 $223 $-1 #
coedge $-1 $318 $317 $303 $331 1 $264 $-1 #
edge $-1 $332 $339 $303 $343 0 #
vertex $-1 $323 $344 #
straight-curve $-1 0 -50 0 1 -0 0 #
vertex $-1 $326 $345 #
straight-curve $-1 -50 -50 0 0 0 -1 #
point $-1 -50 -50 0 #
point $-1 -50 50 12.5 #
edge $-1 $334 $339 $329 $250 0 #
vertex $-1 $338 $346 #
straight-curve $-1 -15.8771324027146 -12.5 12.5 0 1 0 #
straight-curve $-1 -8.66025403784434 -12.5 0 0 1 0 #
straight-curve $-1 -50 0 12.5 0 -1 0 #
straight-curve $-1 -9.49759526419161 -50 1.45031754730551 -0.499999999999998 0 0.86602540378444 #
point $-1 -8.66025403784434 -50 0 #
point $-1 -50 -50 12.5 #
point $-1 -15.8771324027146 -50 12.5 #
