600 0 2 0           
24 FBMach with ACIS - 6.0.3 13 ACIS 6.0.3 NT 24 Tue May 22 12:25:24 2001 
1 9.9999999999999995e-007 1e-010 
body $2 $3 $-1 $4 #
bdycol-kcp $-1 1 3 $5 $6 $7 #
model_id-kcp-attrib $-1 $-1 $-1 $0 1 990548723 80 38797313 1 #
lump $-1 $-1 $8 $0 #
transform $-1 1 0 0 0 1 0 0 0 1 0 0 0 1 no_rotate no_reflect no_shear #
body $9 $10 $-1 $11 #
body $12 $13 $-1 $14 #
body $15 $16 $-1 $17 #
shell $-1 $-1 $-1 $18 $-1 $3 #
model_id-kcp-attrib $-1 $-1 $-1 $5 1 990548723 80 38797314 1 #
lump $-1 $-1 $19 $5 #
transform $-1 1 0 0 0 1 0 0 0 1 0 0 0 1 no_rotate no_reflect no_shear #
rgb_color-st-attrib $-1 $20 $-1 $6 0 0 1 #
lump $-1 $-1 $21 $6 #
transform $-1 1 0 0 0 1 0 0 0 1 0 0 0 1 no_rotate no_reflect no_shear #
rgb_color-st-attrib $-1 $22 $-1 $7 1 0 0 #
lump $-1 $-1 $23 $7 #
transform $-1 1 0 0 0 1 0 0 0 1 0 0 116.9693845669907 1 no_rotate no_reflect no_shear #
face $24 $25 $26 $8 $-1 $27 reversed single #
shell $-1 $-1 $-1 $28 $-1 $10 #
model_id-kcp-attrib $-1 $-1 $12 $6 1 990548723 680 44564483 1 #
shell $-1 $-1 $-1 $29 $-1 $13 #
model_id-kcp-attrib $-1 $-1 $15 $7 1 990548723 831 37683204 1 #
shell $-1 $-1 $-1 $30 $-1 $16 #
model_id-kcp-attrib $-1 $-1 $-1 $18 1 990548723 80 38797313 2 #
face $31 $32 $33 $8 $-1 $34 forward single #
loop $-1 $-1 $35 $18 #
cone-surface $-1 21.5 8.5 16 0 0 -1 1.0606601717798201 1.0606601717798201 0 1 I I 0 1 1.4999999999999982 forward I I I I #
face $36 $37 $38 $19 $-1 $39 forward single #
face $-1 $40 $41 $21 $-1 $42 forward single #
face $-1 $43 $44 $23 $-1 $45 reversed single #
model_id-kcp-attrib $-1 $-1 $-1 $25 1 990548723 80 38797313 3 #
face $46 $47 $48 $8 $-1 $49 reversed single #
loop $-1 $-1 $50 $25 #
plane-surface $-1 23 0 16 -1 0 0 0 0 1 forward_v I I I I #
coedge $-1 $51 $52 $53 $54 reversed $26 $-1 #
model_id-kcp-attrib $-1 $55 $-1 $28 1 990548723 80 38797314 4 #
face $56 $57 $58 $19 $-1 $59 reversed single #
loop $-1 $-1 $60 $28 #
plane-surface $-1 0 0 50 0 0 1 1 0 0 forward_v I I I I #
face $-1 $61 $62 $21 $-1 $63 forward single #
loop $-1 $-1 $64 $29 #
plane-surface $-1 -8.5 18 -34 0 1 0 0 0 1 forward_v I I I I #
face $-1 $65 $66 $23 $-1 $67 forward single #
loop $-1 $-1 $68 $30 #
plane-surface $-1 0 -20 -116.9693845669907 0 1 0 0 0 1 forward_v I I I I #
model_id-kcp-attrib $-1 $-1 $-1 $32 1 990548723 80 38797313 4 #
face $69 $70 $71 $8 $-1 $72 forward single #
loop $-1 $-1 $73 $32 #
cone-surface $-1 21.5 -8.5 16 0 0 -1 1.0606601717798201 -1.0606601717798201 0 1 I I 0 1 1.4999999999999982 forward I I I I #
coedge $-1 $74 $75 $76 $77 reversed $33 $-1 #
coedge $-1 $78 $35 $79 $80 reversed $26 $-1 #
coedge $-1 $35 $78 $74 $81 reversed $26 $-1 #
coedge $-1 $76 $82 $35 $54 forward $83 $-1 #
edge $-1 $84 -0.78539816339744828 $85 0.78539816339744828 $53 $86 forward 7 unknown #
model_id-kcp-attrib $-1 $-1 $36 $28 1 990548723 80 38797314 3 #
model_id-kcp-attrib $-1 $-1 $-1 $37 1 990548723 80 38797314 5 #
face $87 $88 $89 $19 $-1 $90 reversed single #
loop $-1 $-1 $91 $37 #
plane-surface $-1 0 0 -50 0 0 1 1 0 0 forward_v I I I I #
coedge $-1 $92 $93 $94 $95 forward $38 $-1 #
face $-1 $96 $97 $21 $-1 $98 forward single #
loop $-1 $-1 $99 $40 #
cone-surface $-1 8.5 16.5 -34 0 0 1 1.0606601717798201 1.0606601717798201 0 1 I I 0 1 1.4999999999999982 forward I I I I #
coedge $-1 $100 $101 $102 $103 forward $41 $-1 #
face $-1 $104 $105 $23 $-1 $106 reversed single #
loop $-1 $-1 $107 $43 #
plane-surface $-1 0 0 -66.969384566990698 0 0 1 1 0 0 forward_v I I I I #
coedge $-1 $108 $109 $110 $111 forward $44 $-1 #
model_id-kcp-attrib $-1 $-1 $-1 $47 1 990548723 80 38797313 5 #
face $112 $113 $114 $8 $-1 $115 forward single #
loop $-1 $-1 $116 $47 #
plane-surface $-1 0 -10 16 0 1 0 0 0 1 forward_v I I I I #
coedge $-1 $117 $118 $119 $120 reversed $48 $-1 #
coedge $-1 $121 $50 $52 $81 forward $33 $-1 #
coedge $-1 $50 $121 $117 $122 forward $33 $-1 #
coedge $-1 $119 $53 $50 $77 forward $83 $-1 #
edge $-1 $85 -8.5 $123 8.5 $76 $124 forward 7 unknown #
coedge $-1 $52 $51 $125 $126 reversed $26 $-1 #
coedge $-1 $127 $128 $51 $80 forward $129 $-1 #
edge $-1 $130 -50 $84 -46 $79 $131 forward 7 unknown #
edge $-1 $85 46 $132 50 $74 $133 forward 7 unknown #
coedge $-1 $53 $134 $127 $135 forward $83 $-1 #
loop $-1 $136 $137 $138 #
vertex $-1 $54 $139 #
vertex $-1 $54 $140 #
ellipse-curve $-1 21.5 8.5 -30 0 0 -1 1.0606601717798201 1.0606601717798201 0 1 I I #
model_id-kcp-attrib $-1 $-1 $-1 $57 1 990548723 80 38797314 6 #
face $141 $142 $143 $19 $-1 $144 reversed single #
loop $-1 $-1 $145 $57 #
plane-surface $-1 0 -20 0 0 1 0 0 0 1 forward_v I I I I #
coedge $-1 $146 $147 $148 $149 forward $58 $-1 #
coedge $-1 $150 $60 $151 $152 forward $38 $-1 #
coedge $-1 $60 $150 $153 $154 forward $38 $-1 #
coedge $-1 $155 $156 $60 $95 reversed $157 $-1 #
edge $-1 $158 -20 $159 20 $94 $160 forward 7 unknown #
face $-1 $161 $162 $21 $-1 $163 forward single #
loop $-1 $-1 $164 $61 #
plane-surface $-1 10 16.5 -34 1 0 0 0 0 -1 forward_v I I I I #
coedge $-1 $165 $166 $167 $168 forward $62 $-1 #
coedge $-1 $169 $64 $166 $170 reversed $41 $-1 #
coedge $-1 $64 $169 $171 $172 forward $41 $-1 #
coedge $-1 $173 $167 $64 $103 reversed $174 $-1 #
edge $-1 $175 -8.5 $176 8.5 $64 $177 forward 7 unknown #
face $-1 $178 $179 $23 $-1 $180 reversed single #
loop $-1 $-1 $181 $65 #
plane-surface $-1 0 20 -116.9693845669907 0 -1 0 0 0 -1 forward_v I I I I #
coedge $-1 $182 $183 $184 $185 forward $66 $-1 #
coedge $-1 $186 $68 $187 $188 forward $44 $-1 #
coedge $-1 $68 $186 $182 $189 reversed $44 $-1 #
coedge $-1 $184 $190 $68 $111 reversed $191 $-1 #
edge $-1 $192 8.4846922834953489 $193 88.484692283495349 $110 $194 forward 7 unknown #
model_id-kcp-attrib $-1 $-1 $-1 $70 1 990548723 80 38797313 6 #
face $195 $196 $197 $8 $-1 $198 reversed single #
loop $-1 $-1 $199 $70 #
plane-surface $-1 10 0 16 -1 0 0 0 0 1 forward_v I I I I #
coedge $-1 $200 $201 $202 $203 reversed $71 $-1 #
coedge $-1 $204 $73 $75 $122 reversed $48 $-1 #
coedge $-1 $73 $204 $200 $205 reversed $48 $-1 #
coedge $-1 $202 $76 $73 $120 forward $83 $-1 #
edge $-1 $123 -0.78539816339744828 $206 0.78539816339744828 $119 $207 forward 7 unknown #
coedge $-1 $75 $74 $208 $209 forward $33 $-1 #
edge $-1 $210 -50 $123 -46 $75 $211 forward 7 unknown #
vertex $-1 $77 $212 #
straight-curve $-1 23 0 -30 0 -1 0 I I #
coedge $-1 $213 $208 $78 $126 forward $214 $-1 #
edge $-1 $132 -0.78539816339744828 $130 0.78539816339744828 $125 $215 forward 7 unknown #
coedge $-1 $216 $79 $82 $135 reversed $129 $-1 #
coedge $-1 $79 $216 $213 $217 forward $129 $-1 #
loop $-1 $-1 $127 $218 #
vertex $-1 $217 $219 #
straight-curve $-1 21.5 10 16 0 0 1 I I #
vertex $-1 $81 $220 #
straight-curve $-1 23 8.5 16 0 0 -1 I I #
coedge $-1 $82 $221 $222 $223 forward $83 $-1 #
edge $-1 $224 10 $84 21.5 $82 $225 forward 7 unknown #
loop $-1 $-1 $226 $138 #
coedge $-1 $227 $228 $229 $230 forward $83 $-1 #
face $231 $232 $83 $8 $-1 $233 forward single #
point $-1 21.5 10 -30 #
point $-1 23 8.5 -30 #
model_id-kcp-attrib $-1 $-1 $-1 $88 1 990548723 80 38797314 7 #
face $234 $235 $236 $19 $-1 $237 reversed single #
loop $-1 $-1 $238 $88 #
plane-surface $-1 -50 0 0 1 0 0 0 0 -1 forward_v I I I I #
coedge $-1 $239 $153 $240 $241 forward $89 $-1 #
coedge $-1 $242 $91 $239 $243 forward $58 $-1 #
coedge $-1 $91 $242 $244 $245 forward $58 $-1 #
coedge $-1 $156 $155 $91 $149 reversed $157 $-1 #
edge $-1 $246 -20 $247 20 $148 $248 forward 7 unknown #
coedge $-1 $93 $92 $249 $250 forward $38 $-1 #
coedge $-1 $251 $252 $92 $152 reversed $236 $-1 #
edge $-1 $159 -50 $253 50 $151 $254 forward 7 unknown #
coedge $-1 $145 $255 $93 $154 reversed $89 $-1 #
edge $-1 $256 -50 $158 50 $153 $257 forward 7 unknown #
coedge $-1 $148 $94 $255 $258 forward $157 $-1 #
coedge $-1 $94 $148 $251 $259 reversed $157 $-1 #
loop $-1 $-1 $155 $235 #
vertex $-1 $95 $260 #
vertex $-1 $95 $261 #
straight-curve $-1 50 0 50 0 1 0 I I #
face $-1 $262 $263 $21 $-1 $264 forward single #
loop $-1 $-1 $265 $96 #
plane-surface $-1 10 10 -34 0 1 0 0 0 1 forward_v I I I I #
coedge $-1 $266 $267 $268 $269 forward $97 $-1 #
coedge $-1 $270 $99 $267 $271 reversed $62 $-1 #
coedge $-1 $99 $270 $100 $170 forward $62 $-1 #
coedge $-1 $102 $268 $99 $168 reversed $174 $-1 #
edge $-1 $176 -0.78539816339744828 $272 0.78539816339744828 $99 $273 forward 7 unknown #
coedge $-1 $101 $100 $274 $275 reversed $41 $-1 #
edge $276 $277 0 $176 4 $166 $278 forward 7 unknown #
coedge $-1 $279 $280 $101 $172 reversed $281 $-1 #
edge $-1 $282 0 $175 4 $101 $283 forward 7 unknown #
coedge $-1 $284 $102 $280 $285 reversed $174 $-1 #
loop $-1 $-1 $102 $286 #
vertex $-1 $172 $287 #
vertex $-1 $170 $288 #
straight-curve $-1 0 18 -30 1 0 0 I I #
face $-1 $289 $290 $23 $-1 $291 reversed single #
loop $-1 $-1 $292 $104 #
plane-surface $-1 0 0 -146.9693845669907 0 0 1 1 0 0 forward_v I I I I #
coedge $-1 $293 $294 $295 $296 forward $105 $-1 #
coedge $-1 $297 $107 $109 $189 forward $66 $-1 #
coedge $-1 $107 $297 $293 $298 forward $66 $-1 #
coedge $-1 $295 $110 $107 $185 reversed $191 $-1 #
edge $-1 $299 -20 $192 20 $184 $300 forward 7 unknown #
coedge $-1 $109 $108 $301 $302 forward $44 $-1 #
coedge $-1 $303 $304 $108 $188 reversed $179 $-1 #
edge $305 $193 -25 $306 25 $187 $307 forward 7 unknown #
edge $-1 $192 -25 $308 25 $109 $309 forward 7 unknown #
coedge $-1 $110 $295 $303 $310 reversed $191 $-1 #
loop $-1 $-1 $295 $289 #
vertex $-1 $111 $311 #
vertex $-1 $310 $312 #
straight-curve $-1 -25 -20 -58.484692283495349 0 0 -1 I I #
model_id-kcp-attrib $-1 $-1 $-1 $113 1 990548723 80 38797313 7 #
face $313 $314 $315 $8 $-1 $316 forward single #
loop $-1 $-1 $317 $113 #
cone-surface $-1 8.5 -16.5 16 0 0 -1 1.0606601717798201 -1.0606601717798201 0 1 I I 0 1 1.4999999999999982 forward I I I I #
coedge $-1 $318 $319 $320 $321 reversed $114 $-1 #
coedge $-1 $322 $116 $118 $205 forward $71 $-1 #
coedge $-1 $116 $322 $318 $323 reversed $71 $-1 #
coedge $-1 $320 $119 $116 $203 forward $83 $-1 #
edge $-1 $206 -21.5 $324 -10 $202 $325 forward 7 unknown #
coedge $-1 $118 $117 $326 $327 reversed $48 $-1 #
edge $-1 $206 46 $328 50 $200 $329 forward 7 unknown #
vertex $-1 $120 $330 #
ellipse-curve $-1 21.5 -8.5 -30 0 0 -1 1.0606601717798201 -1.0606601717798201 0 1 I I #
coedge $-1 $125 $326 $121 $209 reversed $214 $-1 #
edge $-1 $132 -8.5 $210 8.5 $121 $331 forward 7 unknown #
vertex $-1 $209 $332 #
straight-curve $-1 23 -8.5 16 0 0 1 I I #
point $-1 23 -8.5 -30 #
coedge $-1 $333 $125 $128 $217 reversed $214 $-1 #
loop $-1 $-1 $334 $335 #
ellipse-curve $-1 21.5 8.5 -34 0 0 1 1.0606601717798201 1.0606601717798201 0 1 I I #
coedge $-1 $128 $127 $336 $337 reversed $129 $-1 #
edge $-1 $338 10 $130 21.5 $128 $339 forward 7 unknown #
face $340 $341 $129 $8 $-1 $342 forward single #
point $-1 21.5 10 -34 #
point $-1 23 8.5 -34 #
coedge $-1 $134 $343 $344 $345 forward $83 $-1 #
coedge $-1 $346 $336 $134 $223 reversed $347 $-1 #
edge $-1 $348 -16.5 $224 -10 $134 $349 forward 7 unknown #
vertex $-1 $223 $350 #
straight-curve $-1 0 10 -30 1 0 0 I I #
coedge $-1 $351 $352 $353 $354 reversed $136 $-1 #
coedge $-1 $355 $137 $356 $357 forward $83 $-1 #
coedge $-1 $137 $358 $359 $360 forward $83 $-1 #
coedge $-1 $361 $362 $137 $230 reversed $363 $-1 #
edge $-1 $364 -0.78539816339744828 $365 0.78539816339744828 $137 $366 forward 7 unknown #
model_id-kcp-attrib $-1 $-1 $-1 $138 1 990548723 80 38797313 24 #
face $367 $368 $369 $8 $-1 $370 forward single #
plane-surface $-1 0 0 -30 0 0 1 1 0 0 forward_v I I I I #
model_id-kcp-attrib $-1 $-1 $-1 $142 1 990548723 80 38797314 2 #
face $371 $-1 $157 $19 $-1 $372 reversed single #
loop $-1 $-1 $251 $142 #
plane-surface $-1 0 20 0 0 -1 0 0 0 -1 forward_v I I I I #
coedge $-1 $373 $249 $252 $374 forward $143 $-1 #
coedge $-1 $255 $145 $146 $243 reversed $89 $-1 #
coedge $-1 $249 $373 $145 $241 reversed $143 $-1 #
edge $-1 $256 -50 $375 50 $240 $376 forward 7 unknown #
coedge $-1 $147 $146 $373 $377 forward $58 $-1 #
edge $-1 $247 -50 $375 50 $239 $378 forward 7 unknown #
coedge $-1 $252 $251 $147 $245 reversed $236 $-1 #
edge $-1 $379 -50 $246 50 $244 $380 forward 7 unknown #
vertex $-1 $149 $381 #
vertex $-1 $258 $382 #
straight-curve $-1 50 0 -50 0 -1 0 I I #
coedge $-1 $238 $240 $150 $250 reversed $143 $-1 #
edge $-1 $253 -20 $256 20 $249 $383 forward 7 unknown #
coedge $-1 $244 $151 $156 $259 forward $236 $-1 #
coedge $-1 $151 $244 $238 $374 reversed $236 $-1 #
vertex $-1 $152 $384 #
straight-curve $-1 0 20 50 -1 0 0 I I #
coedge $-1 $153 $239 $155 $258 reversed $89 $-1 #
vertex $-1 $250 $385 #
straight-curve $-1 0 -20 50 1 0 0 I I #
edge $-1 $158 -50 $247 50 $155 $386 forward 7 unknown #
edge $-1 $159 -50 $246 50 $156 $387 forward 7 unknown #
point $-1 50 -20 50 #
point $-1 50 20 50 #
face $-1 $388 $389 $21 $-1 $390 forward single #
loop $-1 $-1 $391 $161 #
cone-surface $-1 21.5 8.5 -34 0 0 1 1.0606601717798201 1.0606601717798201 0 1 I I 0 1 1.4999999999999982 forward I I I I #
coedge $-1 $392 $393 $394 $395 forward $162 $-1 #
coedge $-1 $396 $164 $393 $397 reversed $97 $-1 #
coedge $-1 $164 $396 $165 $271 forward $97 $-1 #
coedge $-1 $167 $394 $164 $269 reversed $174 $-1 #
edge $-1 $272 -16.5 $398 -10 $164 $399 forward 7 unknown #
coedge $-1 $166 $165 $400 $401 reversed $62 $-1 #
edge $-1 $402 0 $272 4 $267 $403 forward 7 unknown #
vertex $-1 $271 $404 #
ellipse-curve $-1 8.5 16.5 -30 0 0 -1 1.0606601717798201 1.0606601717798201 0 1 I I #
coedge $-1 $400 $405 $169 $275 forward $406 $-1 #
edge $407 $282 -8.5 $277 8.5 $169 $408 forward 7 unknown #
convexity-sys-attrib $-1 $-1 $-1 $170 #
vertex $-1 $275 $409 #
straight-curve $-1 8.5 18 -34 0 0 1 I I #
coedge $-1 $410 $171 $405 $411 reversed $281 $-1 #
coedge $-1 $171 $410 $173 $285 forward $281 $-1 #
loop $-1 $-1 $280 $412 #
vertex $-1 $411 $413 #
straight-curve $-1 -8.5 18 -34 0 0 1 I I #
coedge $-1 $414 $173 $415 $416 reversed $174 $-1 #
edge $-1 $417 -0.78539816339744828 $175 0.78539816339744828 $280 $418 forward 7 unknown #
face $-1 $419 $174 $21 $-1 $420 forward single #
point $-1 -8.5 18 -30 #
point $-1 8.5 18 -30 #
face $-1 $-1 $191 $23 $-1 $421 reversed single #
loop $-1 $-1 $422 $178 #
plane-surface $-1 25 0 0 -1 0 0 0 0 1 forward_v I I I I #
coedge $-1 $304 $303 $294 $423 reversed $179 $-1 #
coedge $-1 $424 $181 $183 $298 reversed $105 $-1 #
coedge $-1 $181 $424 $292 $423 forward $105 $-1 #
coedge $-1 $190 $184 $181 $296 reversed $191 $-1 #
edge $-1 $425 -88.484692283495349 $299 -8.4846922834953489 $295 $426 forward 7 unknown #
coedge $-1 $183 $182 $427 $428 forward $66 $-1 #
edge $-1 $429 -25 $299 25 $293 $430 forward 7 unknown #
vertex $-1 $185 $431 #
straight-curve $-1 -25 0 -66.969384566990698 0 -1 0 I I #
coedge $-1 $432 $427 $186 $302 reversed $290 $-1 #
edge $-1 $306 -88.484692283495349 $308 -8.4846922834953489 $301 $433 forward 7 unknown #
coedge $-1 $292 $187 $190 $310 forward $179 $-1 #
coedge $-1 $187 $292 $432 $434 forward $179 $-1 #
convexity-sys-attrib $-1 $-1 $-1 $188 #
vertex $-1 $188 $435 #
straight-curve $-1 0 -20 -146.9693845669907 1 0 0 I I #
vertex $-1 $302 $436 #
straight-curve $-1 0 -20 -66.969384566990698 1 0 0 I I #
edge $437 $193 -20 $425 20 $190 $438 forward 7 unknown #
point $-1 -25 -20 -66.969384566990698 #
point $-1 -25 -20 -146.9693845669907 #
model_id-kcp-attrib $-1 $-1 $-1 $196 1 990548723 80 38797313 8 #
face $439 $440 $441 $8 $-1 $442 reversed single #
loop $-1 $-1 $443 $196 #
plane-surface $-1 0 -18 16 0 1 0 0 0 1 forward_v I I I I #
coedge $-1 $444 $445 $446 $447 reversed $197 $-1 #
coedge $-1 $448 $199 $201 $323 forward $114 $-1 #
coedge $-1 $199 $448 $444 $449 forward $114 $-1 #
coedge $-1 $446 $202 $199 $321 forward $83 $-1 #
edge $-1 $324 10 $450 16.5 $320 $451 forward 7 unknown #
coedge $-1 $201 $200 $452 $453 forward $71 $-1 #
edge $-1 $324 46 $454 50 $201 $455 forward 7 unknown #
vertex $-1 $321 $456 #
straight-curve $-1 0 -10 -30 -1 0 0 I I #
coedge $-1 $208 $452 $204 $327 forward $214 $-1 #
edge $-1 $328 -0.78539816339744828 $210 0.78539816339744828 $326 $457 forward 7 unknown #
vertex $-1 $327 $458 #
straight-curve $-1 21.5 -10 16 0 0 -1 I I #
point $-1 21.5 -10 -30 #
straight-curve $-1 23 0 -34 0 -1 0 I I #
point $-1 23 -8.5 -34 #
coedge $-1 $459 $213 $460 $461 reversed $214 $-1 #
coedge $-1 $462 $463 $464 $465 forward $214 $-1 #
face $466 $467 $214 $8 $-1 $468 forward single #
coedge $-1 $222 $460 $216 $337 forward $347 $-1 #
edge $-1 $338 -50 $224 -46 $216 $469 forward 7 unknown #
vertex $-1 $217 $470 #
straight-curve $-1 0 10 -34 1 0 0 I I #
model_id-kcp-attrib $-1 $-1 $-1 $218 1 990548723 80 38797313 21 #
face $471 $472 $473 $8 $-1 $474 forward single #
plane-surface $-1 0 10 16 0 -1 0 0 0 -1 forward_v I I I I #
coedge $-1 $221 $475 $476 $477 forward $83 $-1 #
coedge $-1 $478 $479 $221 $345 reversed $480 $-1 #
edge $-1 $481 -0.78539816339744828 $348 0.78539816339744828 $221 $482 forward 7 unknown #
coedge $-1 $460 $222 $479 $483 forward $347 $-1 #
loop $-1 $-1 $222 $484 #
vertex $-1 $345 $485 #
straight-curve $-1 10 0 -30 0 -1 0 I I #
point $-1 10 10 -30 #
coedge $-1 $486 $226 $487 $488 reversed $136 $-1 #
coedge $-1 $226 $486 $489 $490 reversed $136 $-1 #
coedge $-1 $491 $492 $226 $354 forward $493 $-1 #
edge $-1 $494 -25 $495 25 $353 $496 forward 7 unknown #
coedge $-1 $497 $227 $498 $499 forward $83 $-1 #
coedge $-1 $500 $501 $227 $357 reversed $473 $-1 #
edge $-1 $365 -8.5 $502 8.5 $227 $503 forward 7 unknown #
coedge $-1 $228 $504 $505 $506 forward $83 $-1 #
coedge $-1 $507 $508 $228 $360 reversed $509 $-1 #
edge $-1 $510 10 $364 21.5 $228 $511 forward 7 unknown #
coedge $-1 $512 $229 $508 $513 reversed $363 $-1 #
coedge $-1 $229 $512 $500 $514 reversed $363 $-1 #
loop $-1 $-1 $229 $515 #
vertex $-1 $230 $516 #
vertex $-1 $230 $517 #
ellipse-curve $-1 -21.5 -8.5 -30 0 0 -1 -1.0606601717798201 -1.0606601717798201 0 1 I I #
model_id-kcp-attrib $-1 $-1 $-1 $232 1 990548723 80 38797313 25 #
face $518 $519 $520 $8 $-1 $521 reversed single #
loop $-1 $-1 $522 $232 #
plane-surface $-1 25 0 20 -1 0 0 0 0 1 forward_v I I I I #
model_id-kcp-attrib $-1 $-1 $-1 $235 1 990548723 80 38797314 8 #
plane-surface $-1 50 0 0 -1 0 0 0 0 1 forward_v I I I I #
coedge $-1 $240 $238 $242 $377 reversed $143 $-1 #
edge $-1 $253 -50 $379 50 $252 $523 forward 7 unknown #
vertex $-1 $377 $524 #
straight-curve $-1 -50 -20 0 0 0 -1 I I #
edge $-1 $375 -20 $379 20 $373 $525 forward 7 unknown #
straight-curve $-1 0 -20 -50 -1 0 0 I I #
vertex $-1 $245 $526 #
straight-curve $-1 0 20 -50 1 0 0 I I #
point $-1 50 20 -50 #
point $-1 50 -20 -50 #
straight-curve $-1 -50 0 50 0 -1 0 I I #
point $-1 -50 20 50 #
point $-1 -50 -20 50 #
straight-curve $-1 50 -20 0 0 0 -1 I I #
straight-curve $-1 50 20 0 0 0 -1 I I #
face $-1 $527 $528 $21 $-1 $529 forward single #
loop $-1 $-1 $530 $262 #
plane-surface $-1 23 8.5 -34 1 0 0 0 0 -1 forward_v I I I I #
coedge $-1 $531 $532 $533 $534 forward $263 $-1 #
coedge $-1 $535 $265 $532 $536 reversed $162 $-1 #
coedge $-1 $265 $535 $266 $397 forward $162 $-1 #
coedge $-1 $268 $533 $265 $395 reversed $174 $-1 #
edge $-1 $398 10 $537 21.5 $265 $538 forward 7 unknown #
coedge $-1 $267 $266 $539 $540 reversed $97 $-1 #
edge $-1 $541 0 $398 4 $393 $542 forward 7 unknown #
vertex $-1 $397 $543 #
straight-curve $-1 10 0 -30 0 -1 0 I I #
coedge $-1 $539 $274 $270 $401 forward $406 $-1 #
edge $544 $277 -0.78539816339744828 $402 0.78539816339744828 $270 $545 forward 7 unknown #
vertex $-1 $401 $546 #
straight-curve $-1 10 16.5 -34 0 0 1 I I #
point $-1 10 16.5 -30 #
coedge $-1 $274 $547 $279 $411 forward $406 $-1 #
loop $-1 $-1 $405 $419 #
convexity-sys-attrib $-1 $-1 $-1 $275 #
straight-curve $-1 0 18 -34 1 0 0 I I #
point $-1 8.5 18 -34 #
coedge $-1 $280 $279 $548 $549 forward $281 $-1 #
edge $550 $551 -0.78539816339744828 $282 0.78539816339744828 $279 $552 forward 7 unknown #
face $-1 $286 $281 $21 $-1 $553 forward single #
point $-1 -8.5 18 -34 #
coedge $-1 $554 $284 $555 $556 reversed $174 $-1 #
coedge $-1 $548 $557 $284 $416 forward $558 $-1 #
edge $-1 $559 10 $417 16.5 $415 $560 forward 7 unknown #
vertex $-1 $549 $561 #
ellipse-curve $-1 -8.5 16.5 -30 0 0 -1 -1.0606601717798201 1.0606601717798201 0 1 I I #
face $-1 $-1 $406 $21 $-1 $562 reversed single #
plane-surface $-1 3.0531133177191805e-016 2.2204460492503131e-016 -29.999999999999993 0 0 1 1 0 0 forward_v I I I I #
plane-surface $-1 -25 0 0 1 0 0 0 0 -1 forward_v I I I I #
coedge $-1 $427 $432 $424 $563 reversed $290 $-1 #
edge $564 $565 -25 $425 25 $292 $566 forward 7 unknown #
coedge $-1 $294 $293 $422 $563 forward $105 $-1 #
vertex $-1 $423 $567 #
straight-curve $-1 -25 20 -58.484692283495349 0 0 1 I I #
coedge $-1 $301 $422 $297 $428 reversed $290 $-1 #
edge $-1 $308 -20 $429 20 $427 $568 forward 7 unknown #
vertex $-1 $428 $569 #
straight-curve $-1 0 20 -66.969384566990698 -1 0 0 I I #
point $-1 -25 20 -66.969384566990698 #
coedge $-1 $422 $301 $304 $434 reversed $290 $-1 #
straight-curve $-1 25 -20 -58.484692283495349 0 0 1 I I #
edge $570 $565 -20 $306 20 $432 $571 forward 7 unknown #
point $-1 25 -20 -146.9693845669907 #
point $-1 25 -20 -66.969384566990698 #
convexity-sys-attrib $-1 $-1 $-1 $310 #
straight-curve $-1 -25 0 -146.9693845669907 0 1 0 I I #
model_id-kcp-attrib $-1 $-1 $-1 $314 1 990548723 80 38797313 9 #
face $572 $573 $574 $8 $-1 $575 forward single #
loop $-1 $-1 $576 $314 #
cone-surface $-1 -8.5 -16.5 16 0 0 -1 -1.0606601717798201 -1.0606601717798201 0 1 I I 0 1 1.4999999999999982 forward I I I I #
coedge $-1 $577 $578 $579 $580 reversed $315 $-1 #
coedge $-1 $581 $317 $319 $449 reversed $197 $-1 #
coedge $-1 $317 $581 $577 $582 reversed $197 $-1 #
coedge $-1 $579 $320 $317 $447 forward $83 $-1 #
edge $-1 $450 -0.78539816339744828 $583 0.78539816339744828 $446 $584 forward 7 unknown #
coedge $-1 $319 $318 $585 $586 forward $114 $-1 #
edge $-1 $587 -50 $450 -46 $319 $588 forward 7 unknown #
vertex $-1 $447 $589 #
straight-curve $-1 10 0 -30 0 -1 0 I I #
coedge $-1 $326 $585 $322 $453 reversed $214 $-1 #
edge $-1 $328 -21.5 $454 -10 $322 $590 forward 7 unknown #
vertex $-1 $453 $591 #
straight-curve $-1 10 -10 16 0 0 -1 I I #
point $-1 10 -10 -30 #
ellipse-curve $-1 21.5 -8.5 -34 0 0 1 1.0606601717798201 -1.0606601717798201 0 1 I I #
point $-1 21.5 -10 -34 #
coedge $-1 $592 $333 $593 $594 forward $214 $-1 #
coedge $-1 $336 $346 $333 $461 forward $347 $-1 #
edge $-1 $595 -16.5 $338 -10 $460 $596 forward 7 unknown #
coedge $-1 $597 $334 $598 $599 reversed $214 $-1 #
coedge $-1 $334 $600 $601 $602 reversed $214 $-1 #
coedge $-1 $603 $604 $334 $465 reversed $605 $-1 #
edge $-1 $606 -0.78539816339744828 $607 0.78539816339744828 $334 $608 forward 7 unknown #
model_id-kcp-attrib $-1 $-1 $-1 $335 1 990548723 80 38797313 15 #
face $609 $610 $611 $8 $-1 $612 forward single #
plane-surface $-1 0 0 -34 0 0 1 1 0 0 forward_v I I I I #
straight-curve $-1 10 10 16 0 0 1 I I #
point $-1 10 10 -34 #
model_id-kcp-attrib $-1 $-1 $-1 $341 1 990548723 80 38797313 22 #
face $613 $138 $614 $8 $-1 $615 forward single #
loop $-1 $-1 $356 $341 #
plane-surface $-1 -23 0 16 1 0 0 0 0 -1 forward_v I I I I #
coedge $-1 $343 $616 $617 $618 forward $83 $-1 #
coedge $-1 $619 $620 $343 $477 reversed $611 $-1 #
edge $-1 $621 -8.5 $481 8.5 $343 $622 forward 7 unknown #
coedge $-1 $593 $344 $620 $623 reversed $480 $-1 #
coedge $-1 $344 $593 $346 $483 reversed $480 $-1 #
loop $-1 $-1 $344 $610 #
vertex $-1 $477 $624 #
ellipse-curve $-1 8.5 16.5 -30 0 0 -1 1.0606601717798201 1.0606601717798201 0 1 I I #
edge $-1 $348 46 $595 50 $346 $625 forward 7 unknown #
face $626 $218 $347 $8 $-1 $115 forward single #
point $-1 10 16.5 -30 #
coedge $-1 $352 $351 $627 $628 reversed $136 $-1 #
coedge $-1 $522 $629 $351 $488 forward $369 $-1 #
edge $-1 $630 -20 $494 20 $487 $631 forward 7 unknown #
coedge $-1 $632 $633 $352 $490 forward $614 $-1 #
edge $-1 $495 -20 $634 20 $489 $635 forward 7 unknown #
coedge $-1 $636 $353 $633 $637 forward $493 $-1 #
coedge $-1 $353 $638 $522 $639 forward $493 $-1 #
loop $-1 $-1 $491 $640 #
vertex $-1 $354 $641 #
vertex $-1 $354 $642 #
straight-curve $-1 0 -20 -30 -1 0 0 I I #
coedge $-1 $616 $355 $643 $644 forward $83 $-1 #
coedge $-1 $604 $603 $355 $499 reversed $605 $-1 #
edge $-1 $502 -0.78539816339744828 $645 0.78539816339744828 $355 $646 forward 7 unknown #
coedge $-1 $598 $356 $362 $514 forward $473 $-1 #
coedge $-1 $356 $598 $604 $647 forward $473 $-1 #
vertex $-1 $499 $648 #
straight-curve $-1 -23 0 -30 0 1 0 I I #
coedge $-1 $358 $579 $576 $649 forward $83 $-1 #
coedge $-1 $650 $651 $358 $506 reversed $574 $-1 #
edge $-1 $652 -16.5 $510 -10 $358 $653 forward 7 unknown #
coedge $-1 $654 $359 $651 $655 reversed $509 $-1 #
coedge $-1 $359 $654 $361 $513 forward $509 $-1 #
loop $-1 $-1 $359 $573 #
vertex $-1 $360 $656 #
straight-curve $-1 0 -10 -30 -1 0 0 I I #
coedge $-1 $362 $361 $597 $657 reversed $363 $-1 #
edge $-1 $658 -50 $364 -46 $508 $659 forward 7 unknown #
edge $-1 $365 46 $660 50 $500 $661 forward 7 unknown #
face $662 $663 $363 $8 $-1 $664 reversed single #
point $-1 -21.5 -10 -30 #
point $-1 -23 -8.5 -30 #
model_id-kcp-attrib $-1 $-1 $-1 $368 1 990548723 80 38797313 26 #
face $665 $666 $667 $8 $-1 $668 forward single #
loop $-1 $-1 $669 $368 #
plane-surface $-1 0 20 0 0 -1 0 0 0 -1 forward_v I I I I #
coedge $-1 $670 $487 $492 $639 reversed $369 $-1 #
straight-curve $-1 -50 20 0 0 0 -1 I I #
point $-1 -50 -20 -50 #
straight-curve $-1 -50 0 -50 0 1 0 I I #
point $-1 -50 20 -50 #
face $-1 $671 $672 $21 $-1 $673 forward single #
loop $-1 $-1 $674 $388 #
cone-surface $-1 21.5 -8.5 -34 0 0 1 1.0606601717798201 -1.0606601717798201 0 1 I I 0 1 1.4999999999999982 forward I I I I #
coedge $-1 $675 $676 $677 $678 forward $389 $-1 #
coedge $-1 $679 $391 $676 $680 reversed $263 $-1 #
coedge $-1 $391 $679 $392 $536 forward $263 $-1 #
coedge $-1 $394 $677 $391 $534 reversed $174 $-1 #
edge $-1 $537 -0.78539816339744828 $681 0.78539816339744828 $391 $682 forward 7 unknown #
coedge $-1 $393 $392 $683 $684 reversed $162 $-1 #
edge $-1 $685 0 $537 4 $532 $686 forward 7 unknown #
vertex $-1 $536 $687 #
straight-curve $-1 0 10 -30 1 0 0 I I #
coedge $-1 $683 $400 $396 $540 forward $406 $-1 #
edge $688 $402 -16.5 $541 -10 $396 $689 forward 7 unknown #
vertex $-1 $540 $690 #
straight-curve $-1 10 10 -34 0 0 1 I I #
point $-1 10 10 -30 #
convexity-sys-attrib $-1 $-1 $-1 $401 #
ellipse-curve $-1 8.5 16.5 -34 0 0 -1 1.0606601717798201 1.0606601717798201 0 1 I I #
point $-1 10 16.5 -34 #
coedge $-1 $405 $691 $692 $693 forward $406 $-1 #
coedge $-1 $692 $415 $410 $549 reversed $558 $-1 #
edge $-1 $551 0 $417 4 $410 $694 forward 7 unknown #
convexity-sys-attrib $-1 $-1 $-1 $411 #
vertex $-1 $411 $695 #
ellipse-curve $-1 -8.5 16.5 -34 0 0 -1 -1.0606601717798201 1.0606601717798201 0 1 I I #
cone-surface $-1 -8.5 16.5 -34 0 0 1 -1.0606601717798201 1.0606601717798201 0 1 I I 0 1 1.4999999999999982 forward I I I I #
coedge $-1 $696 $414 $697 $698 reversed $174 $-1 #
coedge $-1 $699 $700 $414 $556 forward $701 $-1 #
edge $-1 $702 -21.5 $559 -10 $555 $703 forward 7 unknown #
coedge $-1 $415 $692 $699 $704 forward $558 $-1 #
loop $-1 $-1 $415 $705 #
vertex $-1 $704 $706 #
straight-curve $-1 -10 0 -30 0 1 0 I I #
point $-1 -10 16.5 -30 #
plane-surface $-1 3.0531133177191805e-016 2.2204460492503131e-016 -33.999999999999993 0 0 1 1 0 0 forward_v I I I I #
edge $-1 $429 8.4846922834953489 $565 88.484692283495349 $422 $707 forward 7 unknown #
convexity-sys-attrib $-1 $-1 $-1 $423 #
vertex $-1 $434 $708 #
straight-curve $-1 0 20 -146.9693845669907 -1 0 0 I I #
point $-1 -25 20 -146.9693845669907 #
straight-curve $-1 25 0 -66.969384566990698 0 1 0 I I #
point $-1 25 20 -66.969384566990698 #
convexity-sys-attrib $-1 $-1 $-1 $434 #
straight-curve $-1 25 0 -146.9693845669907 0 -1 0 I I #
model_id-kcp-attrib $-1 $-1 $-1 $440 1 990548723 80 38797313 10 #
face $709 $710 $509 $8 $-1 $72 forward single #
loop $-1 $-1 $505 $440 #
plane-surface $-1 -10 0 16 1 0 0 0 0 -1 forward_v I I I I #
coedge $-1 $711 $712 $504 $649 reversed $441 $-1 #
coedge $-1 $713 $443 $445 $582 forward $315 $-1 #
coedge $-1 $443 $713 $711 $714 forward $315 $-1 #
coedge $-1 $504 $446 $443 $580 forward $83 $-1 #
edge $-1 $583 -8.5 $715 8.5 $579 $716 forward 7 unknown #
coedge $-1 $445 $444 $717 $718 reversed $197 $-1 #
edge $-1 $583 46 $719 50 $577 $720 forward 7 unknown #
vertex $-1 $580 $721 #
ellipse-curve $-1 8.5 -16.5 -30 0 0 -1 1.0606601717798201 -1.0606601717798201 0 1 I I #
coedge $-1 $452 $717 $448 $586 reversed $214 $-1 #
edge $-1 $454 10 $587 16.5 $448 $596 forward 7 unknown #
vertex $-1 $586 $722 #
straight-curve $-1 10 -16.5 16 0 0 1 I I #
point $-1 10 -16.5 -30 #
straight-curve $-1 0 -10 -34 -1 0 0 I I #
point $-1 10 -10 -34 #
coedge $-1 $723 $459 $724 $725 reversed $214 $-1 #
coedge $-1 $479 $478 $459 $594 reversed $480 $-1 #
edge $-1 $595 -0.78539816339744828 $726 0.78539816339744828 $459 $727 forward 7 unknown #
vertex $-1 $594 $728 #
straight-curve $-1 10 0 -34 0 -1 0 I I #
coedge $-1 $729 $462 $512 $657 forward $214 $-1 #
coedge $-1 $501 $500 $462 $599 forward $473 $-1 #
edge $-1 $660 -8.5 $607 8.5 $598 $730 forward 7 unknown #
coedge $-1 $463 $723 $731 $732 reversed $214 $-1 #
coedge $-1 $733 $734 $463 $602 forward $735 $-1 #
edge $-1 $606 -21.5 $736 -10 $601 $339 forward 7 unknown #
coedge $-1 $498 $464 $734 $737 reversed $605 $-1 #
coedge $-1 $464 $498 $501 $647 reversed $605 $-1 #
loop $-1 $-1 $498 $710 #
vertex $-1 $737 $738 #
vertex $-1 $599 $739 #
ellipse-curve $-1 -21.5 8.5 -34 0 0 1 -1.0606601717798201 1.0606601717798201 0 1 I I #
model_id-kcp-attrib $-1 $-1 $-1 $467 1 990548723 80 38797313 16 #
face $740 $515 $480 $8 $-1 $741 reversed single #
loop $-1 $-1 $476 $467 #
plane-surface $-1 0 18 16 0 -1 0 0 0 -1 forward_v I I I I #
model_id-kcp-attrib $-1 $-1 $-1 $472 1 990548723 80 38797313 23 #
loop $-1 $-1 $633 $472 #
plane-surface $-1 -25 0 20 1 0 0 0 0 -1 forward_v I I I I #
coedge $-1 $475 $497 $742 $743 forward $83 $-1 #
coedge $-1 $744 $745 $475 $618 reversed $746 $-1 #
edge $-1 $747 -0.78539816339744828 $621 0.78539816339744828 $475 $748 forward 7 unknown #
coedge $-1 $724 $476 $745 $749 forward $611 $-1 #
coedge $-1 $476 $724 $478 $623 forward $611 $-1 #
vertex $-1 $618 $750 #
straight-curve $-1 0 18 -30 1 0 0 I I #
edge $-1 $726 -50 $481 -46 $620 $751 forward 7 unknown #
point $-1 8.5 18 -30 #
straight-curve $-1 10 16.5 16 0 0 -1 I I #
model_id-kcp-attrib $-1 $-1 $-1 $484 1 990548723 80 38797313 20 #
coedge $-1 $752 $669 $486 $628 forward $520 $-1 #
edge $753 $634 -25 $630 25 $627 $754 forward 7 unknown #
coedge $-1 $487 $670 $752 $755 reversed $369 $-1 #
vertex $-1 $628 $756 #
straight-curve $-1 25 0 -30 0 -1 0 I I #
coedge $-1 $757 $489 $669 $758 reversed $614 $-1 #
coedge $-1 $489 $757 $491 $637 reversed $614 $-1 #
vertex $-1 $628 $759 #
straight-curve $-1 -25 0 -30 0 1 0 I I #
coedge $-1 $760 $491 $761 $762 reversed $493 $-1 #
edge $-1 $495 -40 $763 40 $491 $764 forward 7 unknown #
coedge $-1 $492 $765 $766 $767 reversed $493 $-1 #
edge $-1 $768 -40 $494 40 $492 $769 forward 7 unknown #
face $770 $771 $493 $8 $-1 $772 reversed single #
point $-1 25 -20 -30 #
point $-1 -25 -20 -30 #
coedge $-1 $734 $733 $497 $644 reversed $735 $-1 #
edge $-1 $645 -21.5 $773 -10 $497 $774 forward 7 unknown #
vertex $-1 $499 $775 #
ellipse-curve $-1 -21.5 8.5 -30 0 0 -1 -1.0606601717798201 1.0606601717798201 0 1 I I #
edge $-1 $607 -50 $502 -46 $501 $776 forward 7 unknown #
point $-1 -23 8.5 -30 #
edge $-1 $715 -0.78539816339744828 $652 0.78539816339744828 $504 $777 forward 7 unknown #
coedge $-1 $778 $505 $712 $779 forward $574 $-1 #
coedge $-1 $505 $778 $507 $655 forward $574 $-1 #
vertex $-1 $649 $780 #
straight-curve $-1 -10 0 -30 0 1 0 I I #
coedge $-1 $508 $507 $729 $781 forward $509 $-1 #
edge $-1 $782 -50 $510 -46 $507 $783 forward 7 unknown #
point $-1 -10 -10 -30 #
edge $-1 $660 -0.78539816339744828 $658 0.78539816339744828 $597 $784 forward 7 unknown #
vertex $-1 $781 $785 #
straight-curve $-1 -21.5 -10 16 0 0 1 I I #
vertex $-1 $657 $786 #
straight-curve $-1 -23 -8.5 16 0 0 -1 I I #
model_id-kcp-attrib $-1 $-1 $-1 $515 1 990548723 80 38797313 18 #
face $787 $484 $788 $8 $-1 $575 forward single #
cone-surface $-1 -21.5 -8.5 16 0 0 -1 -1.0606601717798201 -1.0606601717798201 0 1 I I 0 1 1.4999999999999982 forward I I I I #
model_id-kcp-attrib $-1 $-1 $-1 $519 1 990548723 80 38797313 27 #
face $789 $790 $791 $8 $-1 $668 forward single #
loop $-1 $-1 $792 $519 #
plane-surface $-1 0 0 50 0 0 1 1 0 0 forward_v I I I I #
coedge $-1 $627 $793 $632 $758 forward $520 $-1 #
coedge $-1 $629 $522 $792 $794 reversed $369 $-1 #
face $-1 $795 $796 $21 $-1 $797 forward single #
loop $-1 $-1 $798 $527 #
plane-surface $-1 21.5 -10 -34 0 -1 0 0 0 -1 forward_v I I I I #
coedge $-1 $799 $800 $801 $802 forward $528 $-1 #
coedge $-1 $803 $530 $800 $804 reversed $389 $-1 #
coedge $-1 $530 $803 $531 $680 forward $389 $-1 #
coedge $-1 $533 $801 $530 $678 reversed $174 $-1 #
edge $-1 $681 -8.5 $805 8.5 $530 $806 forward 7 unknown #
coedge $-1 $532 $531 $807 $808 reversed $263 $-1 #
edge $-1 $809 0 $681 4 $676 $810 forward 7 unknown #
vertex $-1 $680 $811 #
ellipse-curve $-1 21.5 8.5 -30 0 0 -1 1.0606601717798201 1.0606601717798201 0 1 I I #
coedge $-1 $807 $539 $535 $684 forward $406 $-1 #
edge $812 $541 10 $685 21.5 $535 $813 forward 7 unknown #
vertex $-1 $684 $814 #
straight-curve $-1 21.5 10 -34 0 0 1 I I #
point $-1 21.5 10 -30 #
convexity-sys-attrib $-1 $-1 $-1 $540 #
straight-curve $-1 10 0 -34 0 -1 0 I I #
point $-1 10 10 -34 #
coedge $-1 $547 $815 $816 $817 forward $406 $-1 #
coedge $-1 $557 $548 $547 $693 reversed $558 $-1 #
edge $818 $819 10 $551 16.5 $692 $820 forward 7 unknown #
straight-curve $-1 -10 16.5 -34 0 0 1 I I #
point $-1 -10 16.5 -34 #
coedge $-1 $821 $554 $822 $823 reversed $174 $-1 #
coedge $-1 $824 $825 $554 $698 forward $826 $-1 #
edge $-1 $827 -0.78539816339744828 $702 0.78539816339744828 $697 $828 forward 7 unknown #
coedge $-1 $816 $555 $557 $704 reversed $701 $-1 #
coedge $-1 $555 $816 $824 $829 forward $701 $-1 #
loop $-1 $-1 $555 $830 #
vertex $-1 $829 $831 #
straight-curve $-1 0 10 -30 1 0 0 I I #
edge $-1 $819 0 $559 4 $557 $832 forward 7 unknown #
face $-1 $412 $558 $21 $-1 $833 forward single #
point $-1 -10 10 -30 #
straight-curve $-1 25 20 -58.484692283495349 0 0 -1 I I #
point $-1 25 20 -146.9693845669907 #
model_id-kcp-attrib $-1 $-1 $-1 $573 1 990548723 80 38797313 11 #
face $834 $835 $605 $8 $-1 $836 reversed single #
coedge $-1 $837 $576 $578 $714 reversed $441 $-1 #
coedge $-1 $576 $837 $650 $779 reversed $441 $-1 #
coedge $-1 $578 $577 $838 $839 forward $315 $-1 #
edge $-1 $840 -50 $715 -46 $578 $841 forward 7 unknown #
vertex $-1 $649 $842 #
straight-curve $-1 0 -18 -30 -1 0 0 I I #
coedge $-1 $585 $838 $581 $718 forward $214 $-1 #
edge $-1 $719 -0.78539816339744828 $587 0.78539816339744828 $717 $843 forward 7 unknown #
vertex $-1 $718 $844 #
straight-curve $-1 8.5 -18 16 0 0 -1 I I #
point $-1 8.5 -18 -30 #
point $-1 10 -16.5 -34 #
coedge $-1 $600 $592 $845 $846 forward $214 $-1 #
coedge $-1 $620 $619 $592 $725 forward $611 $-1 #
edge $-1 $847 -8.5 $726 8.5 $724 $848 forward 7 unknown #
vertex $-1 $725 $849 #
ellipse-curve $-1 8.5 16.5 -34 0 0 1 1.0606601717798201 1.0606601717798201 0 1 I I #
point $-1 10 16.5 -34 #
coedge $-1 $850 $597 $654 $781 reversed $214 $-1 #
straight-curve $-1 -23 0 -34 0 1 0 I I #
coedge $-1 $851 $852 $600 $732 forward $788 $-1 #
edge $-1 $736 10 $853 16.5 $731 $854 forward 7 unknown #
coedge $-1 $643 $601 $852 $855 reversed $735 $-1 #
coedge $-1 $601 $643 $603 $737 forward $735 $-1 #
loop $-1 $-1 $643 $835 #
vertex $-1 $602 $856 #
edge $-1 $645 46 $606 50 $734 $857 forward 7 unknown #
point $-1 -21.5 10 -34 #
point $-1 -23 8.5 -34 #
model_id-kcp-attrib $-1 $-1 $-1 $610 1 990548723 80 38797313 17 #
cone-surface $-1 8.5 16.5 16 0 0 -1 1.0606601717798201 1.0606601717798201 0 1 I I 0 1 1.4999999999999982 forward I I I I #
coedge $-1 $852 $851 $616 $743 reversed $788 $-1 #
edge $-1 $773 10 $747 16.5 $616 $858 forward 7 unknown #
coedge $-1 $845 $617 $851 $859 reversed $746 $-1 #
coedge $-1 $617 $845 $619 $749 reversed $746 $-1 #
loop $-1 $-1 $617 $860 #
vertex $-1 $618 $861 #
ellipse-curve $-1 -8.5 16.5 -30 0 0 -1 -1.0606601717798201 1.0606601717798201 0 1 I I #
edge $-1 $621 46 $847 50 $619 $862 forward 7 unknown #
point $-1 -8.5 18 -30 #
straight-curve $-1 8.5 18 16 0 0 1 I I #
coedge $-1 $863 $627 $629 $755 forward $520 $-1 #
attrib_edge_convexity-kcp-attrib $-1 $864 $-1 $628 1 #
straight-curve $-1 0 20 -30 1 0 0 I I #
edge $865 $630 -40 $866 40 $752 $867 forward 7 unknown #
point $-1 25 20 -30 #
coedge $-1 $633 $632 $868 $869 reversed $614 $-1 #
edge $870 $871 -40 $634 40 $669 $872 forward 7 unknown #
point $-1 -25 20 -30 #
coedge $-1 $873 $636 $874 $875 forward $493 $-1 #
coedge $-1 $868 $876 $636 $762 forward $791 $-1 #
edge $-1 $877 -50 $763 -25 $636 $878 forward 7 unknown #
vertex $-1 $762 $879 #
straight-curve $-1 -25 -20 10 0 0 1 I I #
coedge $-1 $638 $873 $880 $881 reversed $493 $-1 #
coedge $-1 $882 $792 $638 $767 forward $667 $-1 #
edge $883 $768 25 $884 50 $638 $878 forward 7 unknown #
vertex $-1 $794 $885 #
straight-curve $-1 25 -20 10 0 0 -1 I I #
model_id-kcp-attrib $-1 $-1 $-1 $640 1 990548723 80 38797313 30 #
face $886 $887 $888 $8 $-1 $889 reversed single #
plane-surface $-1 0 -20 0 0 1 0 0 0 1 forward_v I I I I #
vertex $-1 $644 $890 #
straight-curve $-1 0 10 -30 1 0 0 I I #
point $-1 -21.5 10 -30 #
straight-curve $-1 -23 8.5 16 0 0 1 I I #
ellipse-curve $-1 -8.5 -16.5 -30 0 0 -1 -1.0606601717798201 -1.0606601717798201 0 1 I I #
coedge $-1 $651 $650 $850 $891 forward $574 $-1 #
edge $-1 $652 46 $892 50 $650 $893 forward 7 unknown #
point $-1 -10 -16.5 -30 #
edge $-1 $782 10 $658 21.5 $654 $590 forward 7 unknown #
vertex $-1 $781 $894 #
straight-curve $-1 -10 -10 16 0 0 1 I I #
ellipse-curve $-1 -21.5 -8.5 -34 0 0 1 -1.0606601717798201 -1.0606601717798201 0 1 I I #
point $-1 -21.5 -10 -34 #
point $-1 -23 -8.5 -34 #
model_id-kcp-attrib $-1 $-1 $-1 $663 1 990548723 80 38797313 19 #
loop $-1 $-1 $742 $663 #
model_id-kcp-attrib $-1 $-1 $-1 $666 1 990548723 80 38797313 28 #
face $895 $640 $896 $8 $-1 $897 reversed single #
loop $-1 $-1 $868 $666 #
coedge $-1 $766 $898 $670 $794 forward $667 $-1 #
coedge $-1 $669 $899 $900 $901 reversed $520 $-1 #
edge $902 $866 -20 $768 20 $792 $903 forward 7 unknown #
face $-1 $904 $905 $21 $-1 $906 forward single #
loop $-1 $-1 $907 $671 #
plane-surface $-1 10 -10 -34 1 0 0 0 0 -1 forward_v I I I I #
coedge $-1 $908 $909 $910 $911 forward $672 $-1 #
coedge $-1 $912 $674 $909 $913 reversed $528 $-1 #
coedge $-1 $674 $912 $675 $804 forward $528 $-1 #
coedge $-1 $677 $910 $674 $802 reversed $174 $-1 #
edge $-1 $805 -0.78539816339744828 $914 0.78539816339744828 $674 $915 forward 7 unknown #
coedge $-1 $676 $675 $916 $917 reversed $389 $-1 #
edge $-1 $918 0 $805 4 $800 $919 forward 7 unknown #
vertex $-1 $804 $920 #
straight-curve $-1 23 0 -30 0 -1 0 I I #
coedge $-1 $916 $683 $679 $808 forward $406 $-1 #
edge $921 $685 -0.78539816339744828 $809 0.78539816339744828 $679 $922 forward 7 unknown #
vertex $-1 $808 $923 #
straight-curve $-1 23 8.5 -34 0 0 1 I I #
point $-1 23 8.5 -30 #
convexity-sys-attrib $-1 $-1 $-1 $684 #
straight-curve $-1 0 10 -34 1 0 0 I I #
point $-1 21.5 10 -34 #
coedge $-1 $691 $924 $925 $926 forward $406 $-1 #
coedge $-1 $700 $699 $691 $817 reversed $701 $-1 #
edge $927 $928 -21.5 $819 -10 $816 $929 forward 7 unknown #
convexity-sys-attrib $-1 $-1 $-1 $693 #
vertex $-1 $817 $930 #
straight-curve $-1 -10 0 -34 0 1 0 I I #
coedge $-1 $931 $696 $932 $933 reversed $174 $-1 #
coedge $-1 $934 $935 $696 $823 forward $936 $-1 #
edge $-1 $937 -8.5 $827 8.5 $822 $938 forward 7 unknown #
coedge $-1 $925 $697 $700 $829 reversed $826 $-1 #
coedge $-1 $697 $925 $934 $939 forward $826 $-1 #
loop $-1 $-1 $697 $940 #
vertex $-1 $939 $941 #
ellipse-curve $-1 -21.5 8.5 -30 0 0 -1 -1.0606601717798201 1.0606601717798201 0 1 I I #
edge $-1 $928 0 $702 4 $700 $942 forward 7 unknown #
face $-1 $705 $701 $21 $-1 $943 forward single #
point $-1 -21.5 10 -30 #
straight-curve $-1 -10 10 -34 0 0 1 I I #
plane-surface $-1 -10 10 -34 -1 0 0 0 0 1 forward_v I I I I #
model_id-kcp-attrib $-1 $-1 $-1 $710 1 990548723 80 38797313 12 #
face $944 $860 $735 $8 $-1 $342 forward single #
cone-surface $-1 -21.5 8.5 16 0 0 -1 -1.0606601717798201 1.0606601717798201 0 1 I I 0 1 1.4999999999999982 forward I I I I #
coedge $-1 $712 $711 $945 $946 reversed $441 $-1 #
coedge $-1 $717 $945 $713 $839 reversed $214 $-1 #
edge $-1 $719 -8.5 $840 8.5 $713 $947 forward 7 unknown #
vertex $-1 $839 $948 #
straight-curve $-1 -8.5 -18 16 0 0 1 I I #
point $-1 -8.5 -18 -30 #
ellipse-curve $-1 8.5 -16.5 -34 0 0 1 1.0606601717798201 -1.0606601717798201 0 1 I I #
point $-1 8.5 -18 -34 #
coedge $-1 $745 $744 $723 $846 reversed $746 $-1 #
edge $-1 $847 -0.78539816339744828 $853 0.78539816339744828 $723 $949 forward 7 unknown #
vertex $-1 $749 $950 #
straight-curve $-1 0 18 -34 1 0 0 I I #
point $-1 8.5 18 -34 #
coedge $-1 $945 $729 $778 $891 reversed $214 $-1 #
coedge $-1 $742 $731 $744 $859 forward $788 $-1 #
coedge $-1 $731 $742 $733 $855 forward $788 $-1 #
vertex $-1 $732 $951 #
straight-curve $-1 -10 0 -34 0 1 0 I I #
edge $-1 $773 46 $736 50 $733 $952 forward 7 unknown #
point $-1 -10 10 -34 #
straight-curve $-1 -21.5 10 16 0 0 -1 I I #
straight-curve $-1 -10 0 -30 0 1 0 I I #
edge $-1 $853 -50 $747 -46 $851 $953 forward 7 unknown #
face $954 $335 $746 $8 $-1 $955 reversed single #
point $-1 -10 16.5 -30 #
straight-curve $-1 -8.5 18 16 0 0 -1 I I #
coedge $-1 $956 $752 $898 $957 reversed $520 $-1 #
convexity-sys-attrib $-1 $-1 $753 $628 #
attrib_edge_convexity-kcp-attrib $-1 $958 $-1 $755 1 #
vertex $-1 $957 $959 #
straight-curve $-1 25 20 10 0 0 1 I I #
coedge $-1 $900 $761 $757 $869 forward $791 $-1 #
edge $-1 $763 -20 $871 20 $868 $960 forward 7 unknown #
attrib_edge_convexity-kcp-attrib $-1 $961 $-1 $758 1 #
vertex $-1 $758 $962 #
straight-curve $-1 -25 20 10 0 0 -1 I I #
coedge $-1 $765 $760 $963 $964 reversed $493 $-1 #
coedge $-1 $965 $966 $760 $875 reversed $888 $-1 #
edge $967 $877 -50 $968 50 $874 $969 forward 7 unknown #
coedge $-1 $761 $900 $965 $970 forward $791 $-1 #
vertex $-1 $970 $971 #
straight-curve $-1 0 -20 50 1 0 0 I I #
point $-1 -25 -20 50 #
coedge $-1 $972 $973 $765 $881 forward $974 $-1 #
edge $-1 $884 -50 $975 50 $880 $976 forward 7 unknown #
coedge $-1 $898 $766 $973 $977 forward $667 $-1 #
attrib_edge_convexity-kcp-attrib $-1 $978 $-1 $767 1 #
vertex $-1 $977 $979 #
point $-1 25 -20 50 #
model_id-kcp-attrib $-1 $-1 $-1 $771 1 990548723 80 38797313 31 #
face $980 $-1 $974 $8 $-1 $981 reversed single #
loop $-1 $-1 $982 $771 #
plane-surface $-1 -50 0 0 1 0 0 0 0 -1 forward_v I I I I #
point $-1 -10 10 -30 #
edge $-1 $892 -16.5 $782 -10 $778 $854 forward 7 unknown #
vertex $-1 $946 $983 #
straight-curve $-1 -10 -16.5 16 0 0 -1 I I #
point $-1 -10 -10 -34 #
model_id-kcp-attrib $-1 $-1 $-1 $790 1 990548723 80 38797313 29 #
loop $-1 $-1 $984 $790 #
plane-surface $-1 0 0 -50 0 0 1 1 0 0 forward_v I I I I #
coedge $-1 $792 $882 $863 $957 forward $667 $-1 #
coedge $-1 $793 $985 $982 $986 reversed $520 $-1 #
coedge $-1 $876 $868 $793 $901 forward $791 $-1 #
edge $987 $871 25 $988 50 $793 $989 forward 7 unknown #
attrib_edge_convexity-kcp-attrib $-1 $990 $-1 $794 1 #
straight-curve $-1 25 0 50 0 -1 0 I I #
face $-1 $991 $992 $21 $-1 $993 forward single #
loop $-1 $-1 $994 $795 #
cone-surface $-1 8.5 -16.5 -34 0 0 1 1.0606601717798201 -1.0606601717798201 0 1 I I 0 1 1.4999999999999982 forward I I I I #
coedge $-1 $995 $996 $997 $998 forward $796 $-1 #
coedge $-1 $999 $798 $996 $1000 reversed $672 $-1 #
coedge $-1 $798 $999 $799 $913 forward $672 $-1 #
coedge $-1 $801 $997 $798 $911 reversed $174 $-1 #
edge $-1 $914 -21.5 $1001 -10 $798 $1002 forward 7 unknown #
coedge $-1 $800 $799 $1003 $1004 reversed $528 $-1 #
edge $-1 $1005 0 $914 4 $909 $1006 forward 7 unknown #
vertex $-1 $913 $1007 #
ellipse-curve $-1 21.5 -8.5 -30 0 0 -1 1.0606601717798201 -1.0606601717798201 0 1 I I #
coedge $-1 $1003 $807 $803 $917 forward $406 $-1 #
edge $1008 $809 -8.5 $918 8.5 $803 $1009 forward 7 unknown #
vertex $-1 $917 $1010 #
straight-curve $-1 23 -8.5 -34 0 0 1 I I #
point $-1 23 -8.5 -30 #
convexity-sys-attrib $-1 $-1 $-1 $808 #
ellipse-curve $-1 21.5 8.5 -34 0 0 -1 1.0606601717798201 1.0606601717798201 0 1 I I #
point $-1 23 8.5 -34 #
coedge $-1 $815 $1011 $1012 $1013 forward $406 $-1 #
coedge $-1 $825 $824 $815 $926 reversed $826 $-1 #
edge $1014 $1015 -0.78539816339744828 $928 0.78539816339744828 $925 $1016 forward 7 unknown #
convexity-sys-attrib $-1 $-1 $-1 $817 #
vertex $-1 $926 $1017 #
straight-curve $-1 0 10 -34 1 0 0 I I #
point $-1 -10 10 -34 #
coedge $-1 $1018 $821 $1019 $1020 reversed $174 $-1 #
coedge $-1 $1021 $1022 $821 $933 forward $1023 $-1 #
edge $-1 $1024 -0.78539816339744828 $937 0.78539816339744828 $932 $1025 forward 7 unknown #
coedge $-1 $1012 $822 $825 $939 reversed $936 $-1 #
coedge $-1 $822 $1012 $1021 $1026 forward $936 $-1 #
loop $-1 $-1 $822 $1027 #
vertex $-1 $1026 $1028 #
straight-curve $-1 -23 0 -30 0 1 0 I I #
edge $-1 $1015 0 $827 4 $825 $1029 forward 7 unknown #
face $-1 $830 $826 $21 $-1 $1030 forward single #
point $-1 -23 8.5 -30 #
straight-curve $-1 -21.5 10 -34 0 0 1 I I #
plane-surface $-1 -21.5 10 -34 0 1 0 0 0 1 forward_v I I I I #
model_id-kcp-attrib $-1 $-1 $-1 $835 1 990548723 80 38797313 13 #
coedge $-1 $838 $850 $837 $946 forward $214 $-1 #
edge $-1 $892 -0.78539816339744828 $840 0.78539816339744828 $945 $1031 forward 7 unknown #
straight-curve $-1 0 -18 -34 -1 0 0 I I #
point $-1 -8.5 -18 -34 #
ellipse-curve $-1 -8.5 16.5 -34 0 0 1 -1.0606601717798201 1.0606601717798201 0 1 I I #
point $-1 -8.5 18 -34 #
point $-1 -10 16.5 -34 #
straight-curve $-1 -10 10 16 0 0 -1 I I #
straight-curve $-1 -10 16.5 16 0 0 1 I I #
model_id-kcp-attrib $-1 $-1 $-1 $860 1 990548723 80 38797313 14 #
cone-surface $-1 -8.5 16.5 16 0 0 -1 -1.0606601717798201 1.0606601717798201 0 1 I I 0 1 1.4999999999999982 forward I I I I #
coedge $-1 $985 $863 $1032 $1033 forward $520 $-1 #
edge $1034 $1035 -50 $866 -25 $863 $989 forward 7 unknown #
convexity-sys-attrib $-1 $-1 $865 $755 #
point $-1 25 20 50 #
straight-curve $-1 -25 0 50 0 1 0 I I #
convexity-sys-attrib $-1 $-1 $870 $758 #
point $-1 -25 20 50 #
coedge $-1 $1036 $984 $873 $964 forward $896 $-1 #
edge $-1 $975 -50 $968 50 $873 $1037 forward 7 unknown #
coedge $-1 $982 $874 $876 $970 reversed $888 $-1 #
coedge $-1 $874 $982 $1036 $1038 reversed $888 $-1 #
attrib_edge_convexity-kcp-attrib $-1 $1039 $-1 $875 1 #
vertex $-1 $1038 $1040 #
straight-curve $-1 -50 -20 0 0 0 -1 I I #
edge $1041 $988 -20 $877 20 $965 $1042 forward 7 unknown #
point $-1 -50 -20 50 #
coedge $-1 $1032 $880 $984 $1043 reversed $974 $-1 #
coedge $-1 $880 $1032 $882 $977 reversed $974 $-1 #
loop $-1 $-1 $880 $887 #
vertex $-1 $881 $1044 #
straight-curve $-1 50 -20 0 0 0 -1 I I #
edge $1045 $884 -20 $1035 20 $973 $1046 forward 7 unknown #
convexity-sys-attrib $-1 $-1 $883 $767 #
point $-1 50 -20 50 #
model_id-kcp-attrib $-1 $-1 $-1 $887 1 990548723 80 38797313 32 #
plane-surface $-1 50 0 0 -1 0 0 0 0 1 forward_v I I I I #
coedge $-1 $966 $965 $899 $986 forward $888 $-1 #
point $-1 -10 -16.5 -34 #
coedge $-1 $963 $1047 $972 $1043 forward $896 $-1 #
coedge $-1 $899 $956 $1047 $1048 reversed $520 $-1 #
edge $1049 $988 -50 $1050 50 $899 $1051 forward 7 unknown #
attrib_edge_convexity-kcp-attrib $-1 $1052 $-1 $901 1 #
vertex $-1 $901 $1053 #
straight-curve $-1 0 20 50 -1 0 0 I I #
convexity-sys-attrib $-1 $-1 $902 $794 #
face $-1 $1054 $1055 $21 $-1 $1056 forward single #
loop $-1 $-1 $1057 $904 #
plane-surface $-1 8.5 -18 -34 0 -1 0 0 0 -1 forward_v I I I I #
coedge $-1 $1058 $1059 $1060 $1061 forward $905 $-1 #
coedge $-1 $1062 $907 $1059 $1063 reversed $796 $-1 #
coedge $-1 $907 $1062 $908 $1000 forward $796 $-1 #
coedge $-1 $910 $1060 $907 $998 reversed $174 $-1 #
edge $-1 $1001 10 $1064 16.5 $907 $1065 forward 7 unknown #
coedge $-1 $909 $908 $1066 $1067 reversed $672 $-1 #
edge $-1 $1068 0 $1001 4 $996 $1069 forward 7 unknown #
vertex $-1 $1000 $1070 #
straight-curve $-1 0 -10 -30 -1 0 0 I I #
coedge $-1 $1066 $916 $912 $1004 forward $406 $-1 #
edge $1071 $918 -0.78539816339744828 $1005 0.78539816339744828 $912 $1072 forward 7 unknown #
vertex $-1 $1004 $1073 #
straight-curve $-1 21.5 -10 -34 0 0 1 I I #
point $-1 21.5 -10 -30 #
convexity-sys-attrib $-1 $-1 $-1 $917 #
straight-curve $-1 23 0 -34 0 -1 0 I I #
point $-1 23 -8.5 -34 #
coedge $-1 $924 $1074 $1075 $1076 forward $406 $-1 #
coedge $-1 $935 $934 $924 $1013 reversed $936 $-1 #
edge $1077 $1078 -8.5 $1015 8.5 $1012 $1079 forward 7 unknown #
convexity-sys-attrib $-1 $-1 $-1 $926 #
vertex $-1 $1013 $1080 #
ellipse-curve $-1 -21.5 8.5 -34 0 0 -1 -1.0606601717798201 1.0606601717798201 0 1 I I #
point $-1 -21.5 10 -34 #
coedge $-1 $1081 $931 $1082 $1083 reversed $174 $-1 #
coedge $-1 $1084 $1085 $931 $1020 forward $1086 $-1 #
edge $-1 $1087 10 $1024 21.5 $1019 $1088 forward 7 unknown #
coedge $-1 $1075 $932 $935 $1026 reversed $1023 $-1 #
coedge $-1 $932 $1075 $1084 $1089 forward $1023 $-1 #
loop $-1 $-1 $932 $1090 #
vertex $-1 $1089 $1091 #
ellipse-curve $-1 -21.5 -8.5 -30 0 0 -1 -1.0606601717798201 -1.0606601717798201 0 1 I I #
edge $-1 $1078 0 $937 4 $935 $1092 forward 7 unknown #
face $-1 $940 $936 $21 $-1 $1093 forward single #
point $-1 -23 -8.5 -30 #
straight-curve $-1 -23 8.5 -34 0 0 1 I I #
cone-surface $-1 -21.5 8.5 -34 0 0 1 -1.0606601717798201 1.0606601717798201 0 1 I I 0 1 1.4999999999999982 forward I I I I #
ellipse-curve $-1 -8.5 -16.5 -34 0 0 1 -1.0606601717798201 -1.0606601717798201 0 1 I I #
coedge $-1 $973 $972 $956 $1033 reversed $974 $-1 #
edge $1094 $1035 -50 $1095 50 $1032 $1096 forward 7 unknown #
attrib_edge_convexity-kcp-attrib $-1 $1097 $-1 $957 1 #
vertex $-1 $977 $1098 #
coedge $-1 $1047 $963 $966 $1038 forward $896 $-1 #
straight-curve $-1 0 -20 -50 -1 0 0 I I #
edge $1099 $968 -20 $1050 20 $966 $1100 forward 7 unknown #
convexity-sys-attrib $-1 $-1 $967 $875 #
point $-1 -50 -20 -50 #
attrib_edge_convexity-kcp-attrib $-1 $1101 $-1 $970 1 #
straight-curve $-1 -50 0 50 0 -1 0 I I #
edge $-1 $1095 -20 $975 20 $972 $1102 forward 7 unknown #
point $-1 50 -20 -50 #
attrib_edge_convexity-kcp-attrib $-1 $1103 $-1 $977 1 #
straight-curve $-1 50 0 50 0 1 0 I I #
coedge $-1 $984 $1036 $985 $1048 forward $896 $-1 #
edge $1104 $1050 -50 $1095 50 $985 $1105 forward 7 unknown #
attrib_edge_convexity-kcp-attrib $-1 $1106 $-1 $986 1 #
vertex $-1 $1048 $1107 #
straight-curve $-1 -50 20 0 0 0 -1 I I #
convexity-sys-attrib $-1 $-1 $987 $901 #
point $-1 -50 20 50 #
face $-1 $1108 $1109 $21 $-1 $1110 forward single #
loop $-1 $-1 $1111 $991 #
cone-surface $-1 -8.5 -16.5 -34 0 0 1 -1.0606601717798201 -1.0606601717798201 0 1 I I 0 1 1.4999999999999982 forward I I I I #
coedge $-1 $1112 $1113 $1114 $1115 forward $992 $-1 #
coedge $-1 $1116 $994 $1113 $1117 reversed $905 $-1 #
coedge $-1 $994 $1116 $995 $1063 forward $905 $-1 #
coedge $-1 $997 $1114 $994 $1061 reversed $174 $-1 #
edge $-1 $1064 -0.78539816339744828 $1118 0.78539816339744828 $994 $1119 forward 7 unknown #
coedge $-1 $996 $995 $1120 $1121 reversed $796 $-1 #
edge $-1 $1122 0 $1064 4 $1059 $1123 forward 7 unknown #
vertex $-1 $1063 $1124 #
straight-curve $-1 10 0 -30 0 -1 0 I I #
coedge $-1 $1120 $1003 $999 $1067 forward $406 $-1 #
edge $1125 $1005 -21.5 $1068 -10 $999 $1126 forward 7 unknown #
vertex $-1 $1067 $1127 #
straight-curve $-1 10 -10 -34 0 0 1 I I #
point $-1 10 -10 -30 #
convexity-sys-attrib $-1 $-1 $-1 $1004 #
ellipse-curve $-1 21.5 -8.5 -34 0 0 -1 1.0606601717798201 -1.0606601717798201 0 1 I I #
point $-1 21.5 -10 -34 #
coedge $-1 $1011 $1128 $1129 $1130 forward $406 $-1 #
coedge $-1 $1022 $1021 $1011 $1076 reversed $1023 $-1 #
edge $1131 $1132 -0.78539816339744828 $1078 0.78539816339744828 $1075 $1133 forward 7 unknown #
convexity-sys-attrib $-1 $-1 $-1 $1013 #
vertex $-1 $1076 $1134 #
straight-curve $-1 -23 0 -34 0 1 0 I I #
point $-1 -23 8.5 -34 #
coedge $-1 $1114 $1018 $1111 $1135 reversed $174 $-1 #
coedge $-1 $1136 $1137 $1018 $1083 forward $1109 $-1 #
edge $-1 $1138 -16.5 $1087 -10 $1082 $1139 forward 7 unknown #
coedge $-1 $1129 $1019 $1022 $1089 reversed $1086 $-1 #
coedge $-1 $1019 $1129 $1136 $1140 forward $1086 $-1 #
loop $-1 $-1 $1019 $1108 #
vertex $-1 $1140 $1141 #
straight-curve $-1 0 -10 -30 -1 0 0 I I #
edge $-1 $1132 0 $1024 4 $1022 $1142 forward 7 unknown #
face $-1 $1027 $1023 $21 $-1 $1143 forward single #
point $-1 -21.5 -10 -30 #
straight-curve $-1 -23 -8.5 -34 0 0 1 I I #
plane-surface $-1 -23 -8.5 -34 -1 0 0 0 0 1 forward_v I I I I #
attrib_edge_convexity-kcp-attrib $-1 $1144 $-1 $1033 1 #
vertex $-1 $1043 $1145 #
straight-curve $-1 50 20 0 0 0 -1 I I #
convexity-sys-attrib $-1 $-1 $1034 $957 #
point $-1 50 20 50 #
attrib_edge_convexity-kcp-attrib $-1 $1146 $-1 $1038 1 #
straight-curve $-1 -50 0 -50 0 1 0 I I #
convexity-sys-attrib $-1 $-1 $1041 $970 #
straight-curve $-1 50 0 -50 0 -1 0 I I #
convexity-sys-attrib $-1 $-1 $1045 $977 #
attrib_edge_convexity-kcp-attrib $-1 $1147 $-1 $1048 1 #
straight-curve $-1 0 20 -50 1 0 0 I I #
convexity-sys-attrib $-1 $-1 $1049 $986 #
point $-1 -50 20 -50 #
face $-1 $1090 $1086 $21 $-1 $1148 forward single #
loop $-1 $-1 $1082 $1054 #
plane-surface $-1 -10 -16.5 -34 -1 0 0 0 0 1 forward_v I I I I #
coedge $-1 $1149 $1150 $1081 $1135 forward $1055 $-1 #
coedge $-1 $1151 $1057 $1150 $1152 reversed $992 $-1 #
coedge $-1 $1057 $1151 $1058 $1117 forward $992 $-1 #
coedge $-1 $1060 $1081 $1057 $1115 reversed $174 $-1 #
edge $-1 $1118 -8.5 $1153 8.5 $1057 $1154 forward 7 unknown #
coedge $-1 $1059 $1058 $1155 $1156 reversed $905 $-1 #
edge $-1 $1157 0 $1118 4 $1113 $1158 forward 7 unknown #
vertex $-1 $1117 $1159 #
ellipse-curve $-1 8.5 -16.5 -30 0 0 -1 1.0606601717798201 -1.0606601717798201 0 1 I I #
coedge $-1 $1155 $1066 $1062 $1121 forward $406 $-1 #
edge $1160 $1068 10 $1122 16.5 $1062 $1161 forward 7 unknown #
vertex $-1 $1121 $1162 #
straight-curve $-1 10 -16.5 -34 0 0 1 I I #
point $-1 10 -16.5 -30 #
convexity-sys-attrib $-1 $-1 $-1 $1067 #
straight-curve $-1 0 -10 -34 -1 0 0 I I #
point $-1 10 -10 -34 #
coedge $-1 $1074 $1163 $1164 $1165 forward $406 $-1 #
coedge $-1 $1085 $1084 $1074 $1130 reversed $1086 $-1 #
edge $1166 $1167 10 $1132 21.5 $1129 $1168 forward 7 unknown #
convexity-sys-attrib $-1 $-1 $-1 $1076 #
vertex $-1 $1130 $1169 #
ellipse-curve $-1 -21.5 -8.5 -34 0 0 -1 -1.0606601717798201 -1.0606601717798201 0 1 I I #
point $-1 -23 -8.5 -34 #
edge $-1 $1153 -0.78539816339744828 $1138 0.78539816339744828 $1111 $1170 forward 7 unknown #
coedge $-1 $1164 $1082 $1085 $1140 reversed $1109 $-1 #
coedge $-1 $1082 $1164 $1149 $1171 forward $1109 $-1 #
vertex $-1 $1171 $1172 #
straight-curve $-1 -10 0 -30 0 1 0 I I #
edge $-1 $1167 0 $1087 4 $1085 $1173 forward 7 unknown #
point $-1 -10 -10 -30 #
straight-curve $-1 -21.5 -10 -34 0 0 1 I I #
cone-surface $-1 -21.5 -8.5 -34 0 0 1 -1.0606601717798201 -1.0606601717798201 0 1 I I 0 1 1.4999999999999982 forward I I I I #
convexity-sys-attrib $-1 $-1 $1094 $1033 #
point $-1 50 20 -50 #
convexity-sys-attrib $-1 $-1 $1099 $1038 #
convexity-sys-attrib $-1 $-1 $1104 $1048 #
plane-surface $-1 -10 -10 -34 0 -1 0 0 0 -1 forward_v I I I I #
coedge $-1 $1174 $1111 $1137 $1171 reversed $1055 $-1 #
coedge $-1 $1111 $1174 $1112 $1152 forward $1055 $-1 #
coedge $-1 $1113 $1112 $1175 $1176 reversed $992 $-1 #
edge $-1 $1177 0 $1153 4 $1150 $1178 forward 7 unknown #
vertex $-1 $1152 $1179 #
straight-curve $-1 0 -18 -30 -1 0 0 I I #
coedge $-1 $1175 $1120 $1116 $1156 forward $406 $-1 #
edge $1180 $1122 -0.78539816339744828 $1157 0.78539816339744828 $1116 $1181 forward 7 unknown #
vertex $-1 $1156 $1182 #
straight-curve $-1 8.5 -18 -34 0 0 1 I I #
point $-1 8.5 -18 -30 #
convexity-sys-attrib $-1 $-1 $-1 $1121 #
straight-curve $-1 10 0 -34 0 -1 0 I I #
point $-1 10 -16.5 -34 #
coedge $-1 $1128 $1175 $1174 $1183 forward $406 $-1 #
coedge $-1 $1137 $1136 $1128 $1165 reversed $1109 $-1 #
edge $1184 $1185 -16.5 $1167 -10 $1164 $1186 forward 7 unknown #
convexity-sys-attrib $-1 $-1 $-1 $1130 #
vertex $-1 $1165 $1187 #
straight-curve $-1 0 -10 -34 -1 0 0 I I #
point $-1 -21.5 -10 -34 #
ellipse-curve $-1 -8.5 -16.5 -30 0 0 -1 -1.0606601717798201 -1.0606601717798201 0 1 I I #
edge $-1 $1185 0 $1138 4 $1137 $1188 forward 7 unknown #
point $-1 -10 -16.5 -30 #
straight-curve $-1 -10 -10 -34 0 0 1 I I #
coedge $-1 $1150 $1149 $1163 $1183 reversed $1055 $-1 #
coedge $-1 $1163 $1155 $1151 $1176 forward $406 $-1 #
edge $1189 $1157 -8.5 $1177 8.5 $1151 $1190 forward 7 unknown #
vertex $-1 $1176 $1191 #
straight-curve $-1 -8.5 -18 -34 0 0 1 I I #
point $-1 -8.5 -18 -30 #
convexity-sys-attrib $-1 $-1 $-1 $1156 #
ellipse-curve $-1 8.5 -16.5 -34 0 0 -1 1.0606601717798201 -1.0606601717798201 0 1 I I #
point $-1 8.5 -18 -34 #
edge $1192 $1177 -0.78539816339744828 $1185 0.78539816339744828 $1174 $1193 forward 7 unknown #
convexity-sys-attrib $-1 $-1 $-1 $1165 #
vertex $-1 $1183 $1194 #
straight-curve $-1 -10 0 -34 0 1 0 I I #
point $-1 -10 -10 -34 #
straight-curve $-1 -10 -16.5 -34 0 0 1 I I #
convexity-sys-attrib $-1 $-1 $-1 $1176 #
straight-curve $-1 0 -18 -34 -1 0 0 I I #
point $-1 -8.5 -18 -34 #
convexity-sys-attrib $-1 $-1 $-1 $1183 #
ellipse-curve $-1 -8.5 -16.5 -34 0 0 -1 -1.0606601717798201 -1.0606601717798201 0 1 I I #
point $-1 -10 -16.5 -34 #
End-of-ACIS-data 