105 534 1 0                             
body $-1 $1 $-1 $-1 #
lump $-1 $-1 $2 $0 #
shell $-1 $-1 $-1 $3 $1 #
face $-1 $4 $5 $2 $-1 $6 reversed single #
face $-1 $7 $8 $2 $-1 $9 forward single #
loop $-1 $-1 $10 $3 #
cone-surface $-1 21.5 8.5 16 0 0 -1 1.06066017177982 1.06066017177982 0 1 0 1 0 #
face $-1 $11 $12 $2 $-1 $13 reversed single #
loop $-1 $-1 $14 $4 #
plane-surface $-1 23 0 16 -1 0 0 0 0 1 0 #
coedge $-1 $15 $16 $17 $18 1 $5 $-1 #
face $-1 $19 $20 $2 $-1 $21 forward single #
loop $-1 $-1 $22 $7 #
cone-surface $-1 21.5 -8.5 16 0 0 -1 1.06066017177982 -1.06066017177982 0 1 0 1 0 #
coedge $-1 $23 $24 $25 $26 1 $8 $-1 #
coedge $-1 $27 $10 $28 $29 1 $5 $-1 #
coedge $-1 $10 $27 $23 $30 1 $5 $-1 #
coedge $-1 $25 $31 $10 $18 0 $32 $-1 #
edge $-1 $33 $34 $17 $35 0 #
face $-1 $36 $37 $2 $-1 $38 forward single #
loop $-1 $-1 $39 $11 #
plane-surface $-1 0 -10 16 0 1 0 0 0 1 0 #
coedge $-1 $40 $41 $42 $43 1 $12 $-1 #
coedge $-1 $44 $14 $16 $30 0 $8 $-1 #
coedge $-1 $14 $44 $40 $45 0 $8 $-1 #
coedge $-1 $42 $17 $14 $26 0 $32 $-1 #
edge $-1 $34 $46 $25 $47 0 #
coedge $-1 $16 $15 $48 $49 1 $5 $-1 #
coedge $-1 $50 $51 $15 $29 0 $52 $-1 #
edge $-1 $53 $33 $28 $54 0 #
edge $-1 $34 $55 $23 $56 0 #
coedge $-1 $17 $57 $50 $58 0 $32 $-1 #
loop $-1 $59 $60 $61 #
vertex $-1 $18 $62 #
vertex $-1 $18 $63 #
ellipse-curve $-1 21.5 8.5 -30 -0 -0 -1 1.06066017177982 1.06066017177982 0 1 #
face $-1 $64 $65 $2 $-1 $66 reversed single #
loop $-1 $-1 $67 $19 #
plane-surface $-1 10 0 16 -1 0 0 0 0 1 0 #
coedge $-1 $68 $69 $70 $71 1 $20 $-1 #
coedge $-1 $72 $22 $24 $45 1 $12 $-1 #
coedge $-1 $22 $72 $68 $73 1 $12 $-1 #
coedge $-1 $70 $25 $22 $43 0 $32 $-1 #
edge $-1 $46 $74 $42 $75 0 #
coedge $-1 $24 $23 $76 $77 0 $8 $-1 #
edge $-1 $78 $46 $24 $79 0 #
vertex $-1 $26 $80 #
straight-curve $-1 23 0 -30 0 -1 0 #
coedge $-1 $81 $76 $27 $49 0 $82 $-1 #
edge $-1 $55 $53 $48 $83 0 #
coedge $-1 $84 $28 $31 $58 1 $52 $-1 #
coedge $-1 $28 $84 $81 $85 0 $52 $-1 #
loop $-1 $-1 $50 $86 #
vertex $-1 $85 $87 #
straight-curve $-1 21.5 10 16 0 0 1 #
vertex $-1 $30 $88 #
straight-curve $-1 23 8.5 16 0 0 -1 #
coedge $-1 $31 $89 $90 $91 0 $32 $-1 #
edge $-1 $92 $33 $31 $93 0 #
loop $-1 $-1 $94 $61 #
coedge $-1 $95 $96 $97 $98 0 $32 $-1 #
face $-1 $99 $32 $2 $-1 $100 forward single #
point $-1 21.5 10 -30 #
point $-1 23 8.5 -30 #
face $-1 $101 $102 $2 $-1 $103 forward single #
loop $-1 $-1 $104 $36 #
cone-surface $-1 8.5 -16.5 16 0 0 -1 1.06066017177982 -1.06066017177982 0 1 0 1 0 #
coedge $-1 $105 $106 $107 $108 1 $37 $-1 #
coedge $-1 $109 $39 $41 $73 0 $20 $-1 #
coedge $-1 $39 $109 $105 $110 1 $20 $-1 #
coedge $-1 $107 $42 $39 $71 0 $32 $-1 #
edge $-1 $74 $111 $70 $112 0 #
coedge $-1 $41 $40 $113 $114 1 $12 $-1 #
edge $-1 $74 $115 $68 $116 0 #
vertex $-1 $43 $117 #
ellipse-curve $-1 21.5 -8.5 -30 -0 -0 -1 1.06066017177982 -1.06066017177982 0 1 #
coedge $-1 $48 $113 $44 $77 1 $82 $-1 #
edge $-1 $55 $78 $44 $118 0 #
vertex $-1 $77 $119 #
straight-curve $-1 23 -8.5 16 0 0 1 #
point $-1 23 -8.5 -30 #
coedge $-1 $120 $48 $51 $85 1 $82 $-1 #
loop $-1 $-1 $121 $122 #
ellipse-curve $-1 21.5 8.5 -34 0 0 1 1.06066017177982 1.06066017177982 0 1 #
coedge $-1 $51 $50 $123 $124 1 $52 $-1 #
edge $-1 $125 $53 $51 $126 0 #
face $-1 $127 $52 $2 $-1 $128 forward single #
point $-1 21.5 10 -34 #
point $-1 23 8.5 -34 #
coedge $-1 $57 $129 $130 $131 0 $32 $-1 #
coedge $-1 $132 $123 $57 $91 1 $133 $-1 #
edge $-1 $134 $92 $57 $135 0 #
vertex $-1 $91 $136 #
straight-curve $-1 0 10 -30 1 0 -0 #
coedge $-1 $137 $138 $139 $140 1 $59 $-1 #
coedge $-1 $141 $60 $142 $143 0 $32 $-1 #
coedge $-1 $60 $144 $145 $146 0 $32 $-1 #
coedge $-1 $147 $148 $60 $98 1 $149 $-1 #
edge $-1 $150 $151 $60 $152 0 #
face $-1 $153 $154 $2 $-1 $155 forward single #
plane-surface $-1 0 0 -30 0 0 1 1 0 0 0 #
face $-1 $156 $157 $2 $-1 $158 reversed single #
loop $-1 $-1 $159 $64 #
plane-surface $-1 0 -18 16 0 1 0 0 0 1 0 #
coedge $-1 $160 $161 $162 $163 1 $65 $-1 #
coedge $-1 $164 $67 $69 $110 0 $37 $-1 #
coedge $-1 $67 $164 $160 $165 0 $37 $-1 #
coedge $-1 $162 $70 $67 $108 0 $32 $-1 #
edge $-1 $111 $166 $107 $167 0 #
coedge $-1 $69 $68 $168 $169 0 $20 $-1 #
edge $-1 $111 $170 $69 $171 0 #
vertex $-1 $108 $172 #
straight-curve $-1 0 -10 -30 -1 0 0 #
coedge $-1 $76 $168 $72 $114 0 $82 $-1 #
edge $-1 $115 $78 $113 $173 0 #
vertex $-1 $114 $174 #
straight-curve $-1 21.5 -10 16 0 0 -1 #
point $-1 21.5 -10 -30 #
straight-curve $-1 23 0 -34 0 -1 0 #
point $-1 23 -8.5 -34 #
coedge $-1 $175 $81 $176 $177 1 $82 $-1 #
coedge $-1 $178 $179 $180 $181 0 $82 $-1 #
face $-1 $182 $82 $2 $-1 $183 forward single #
coedge $-1 $90 $176 $84 $124 0 $133 $-1 #
edge $-1 $125 $92 $84 $184 0 #
vertex $-1 $85 $185 #
straight-curve $-1 0 10 -34 1 0 0 #
face $-1 $186 $187 $2 $-1 $188 forward single #
plane-surface $-1 0 10 16 0 -1 0 0 0 -1 0 #
coedge $-1 $89 $189 $190 $191 0 $32 $-1 #
coedge $-1 $192 $193 $89 $131 1 $194 $-1 #
edge $-1 $195 $134 $89 $196 0 #
coedge $-1 $176 $90 $193 $197 0 $133 $-1 #
loop $-1 $-1 $90 $198 #
vertex $-1 $131 $199 #
straight-curve $-1 10 0 -30 0 -1 0 #
point $-1 10 10 -30 #
coedge $-1 $200 $94 $201 $202 1 $59 $-1 #
coedge $-1 $94 $200 $203 $204 1 $59 $-1 #
coedge $-1 $205 $206 $94 $140 0 $207 $-1 #
edge $-1 $208 $209 $139 $210 0 #
coedge $-1 $211 $95 $212 $213 0 $32 $-1 #
coedge $-1 $214 $215 $95 $143 1 $187 $-1 #
edge $-1 $151 $216 $95 $217 0 #
coedge $-1 $96 $218 $219 $220 0 $32 $-1 #
coedge $-1 $221 $222 $96 $146 1 $223 $-1 #
edge $-1 $224 $150 $96 $225 0 #
coedge $-1 $226 $97 $222 $227 1 $149 $-1 #
coedge $-1 $97 $226 $214 $228 1 $149 $-1 #
loop $-1 $-1 $97 $229 #
vertex $-1 $98 $230 #
vertex $-1 $98 $231 #
ellipse-curve $-1 -21.5 -8.5 -30 -0 -0 -1 -1.06066017177982 -1.06066017177982 0 1 #
face $-1 $232 $233 $2 $-1 $234 reversed single #
loop $-1 $-1 $235 $99 #
plane-surface $-1 25 0 20 -1 0 0 0 0 1 0 #
face $-1 $236 $237 $2 $-1 $238 forward single #
loop $-1 $-1 $239 $101 #
cone-surface $-1 -8.5 -16.5 16 -0 -0 -1 -1.06066017177982 -1.06066017177982 0 1 0 1 0 #
coedge $-1 $240 $241 $242 $243 1 $102 $-1 #
coedge $-1 $244 $104 $106 $165 1 $65 $-1 #
coedge $-1 $104 $244 $240 $245 1 $65 $-1 #
coedge $-1 $242 $107 $104 $163 0 $32 $-1 #
edge $-1 $166 $246 $162 $247 0 #
coedge $-1 $106 $105 $248 $249 0 $37 $-1 #
edge $-1 $250 $166 $106 $251 0 #
vertex $-1 $163 $252 #
straight-curve $-1 10 0 -30 0 -1 0 #
coedge $-1 $113 $248 $109 $169 1 $82 $-1 #
edge $-1 $115 $170 $109 $253 0 #
vertex $-1 $169 $254 #
straight-curve $-1 10 -10 16 0 0 -1 #
point $-1 10 -10 -30 #
ellipse-curve $-1 21.5 -8.5 -34 0 0 1 1.06066017177982 -1.06066017177982 0 1 #
point $-1 21.5 -10 -34 #
coedge $-1 $255 $120 $256 $257 0 $82 $-1 #
coedge $-1 $123 $132 $120 $177 0 $133 $-1 #
edge $-1 $258 $125 $176 $259 0 #
coedge $-1 $260 $121 $261 $262 1 $82 $-1 #
coedge $-1 $121 $263 $264 $265 1 $82 $-1 #
coedge $-1 $266 $267 $121 $181 1 $268 $-1 #
edge $-1 $269 $270 $121 $271 0 #
face $-1 $272 $273 $2 $-1 $274 forward single #
plane-surface $-1 0 0 -34 0 0 1 1 0 0 0 #
straight-curve $-1 10 10 16 0 0 1 #
point $-1 10 10 -34 #
face $-1 $61 $275 $2 $-1 $276 forward single #
loop $-1 $-1 $142 $127 #
plane-surface $-1 -23 0 16 1 0 0 0 0 -1 0 #
coedge $-1 $129 $277 $278 $279 0 $32 $-1 #
coedge $-1 $280 $281 $129 $191 1 $273 $-1 #
edge $-1 $282 $195 $129 $283 0 #
coedge $-1 $256 $130 $281 $284 1 $194 $-1 #
coedge $-1 $130 $256 $132 $197 1 $194 $-1 #
loop $-1 $-1 $130 $272 #
vertex $-1 $191 $285 #
ellipse-curve $-1 8.5 16.5 -30 -0 -0 -1 1.06066017177982 1.06066017177982 0 1 #
edge $-1 $134 $258 $132 $286 0 #
face $-1 $86 $133 $2 $-1 $38 forward single #
point $-1 10 16.5 -30 #
coedge $-1 $138 $137 $287 $288 1 $59 $-1 #
coedge $-1 $235 $289 $137 $202 0 $154 $-1 #
edge $-1 $290 $208 $201 $291 0 #
coedge $-1 $292 $293 $138 $204 0 $275 $-1 #
edge $-1 $209 $294 $203 $295 0 #
coedge $-1 $296 $139 $293 $297 0 $207 $-1 #
coedge $-1 $139 $298 $235 $299 0 $207 $-1 #
loop $-1 $-1 $205 $300 #
vertex $-1 $140 $301 #
vertex $-1 $140 $302 #
straight-curve $-1 0 -20 -30 -1 0 0 #
coedge $-1 $277 $141 $303 $304 0 $32 $-1 #
coedge $-1 $267 $266 $141 $213 1 $268 $-1 #
edge $-1 $216 $305 $141 $306 0 #
coedge $-1 $261 $142 $148 $228 0 $187 $-1 #
coedge $-1 $142 $261 $267 $307 0 $187 $-1 #
vertex $-1 $213 $308 #
straight-curve $-1 -23 0 -30 0 1 0 #
coedge $-1 $144 $242 $239 $309 0 $32 $-1 #
coedge $-1 $310 $311 $144 $220 1 $237 $-1 #
edge $-1 $312 $224 $144 $313 0 #
coedge $-1 $314 $145 $311 $315 1 $223 $-1 #
coedge $-1 $145 $314 $147 $227 0 $223 $-1 #
loop $-1 $-1 $145 $236 #
vertex $-1 $146 $316 #
straight-curve $-1 0 -10 -30 -1 0 0 #
coedge $-1 $148 $147 $260 $317 1 $149 $-1 #
edge $-1 $318 $150 $222 $319 0 #
edge $-1 $151 $320 $214 $321 0 #
face $-1 $322 $149 $2 $-1 $323 reversed single #
point $-1 -21.5 -10 -30 #
point $-1 -23 -8.5 -30 #
face $-1 $324 $325 $2 $-1 $326 forward single #
loop $-1 $-1 $327 $153 #
plane-surface $-1 0 20 0 0 -1 0 0 0 -1 0 #
coedge $-1 $328 $201 $206 $299 1 $154 $-1 #
face $-1 $329 $223 $2 $-1 $21 forward single #
loop $-1 $-1 $219 $156 #
plane-surface $-1 -10 0 16 1 0 0 0 0 -1 0 #
coedge $-1 $330 $331 $218 $309 1 $157 $-1 #
coedge $-1 $332 $159 $161 $245 0 $102 $-1 #
coedge $-1 $159 $332 $330 $333 0 $102 $-1 #
coedge $-1 $218 $162 $159 $243 0 $32 $-1 #
edge $-1 $246 $334 $242 $335 0 #
coedge $-1 $161 $160 $336 $337 1 $65 $-1 #
edge $-1 $246 $338 $240 $339 0 #
vertex $-1 $243 $340 #
ellipse-curve $-1 8.5 -16.5 -30 -0 -0 -1 1.06066017177982 -1.06066017177982 0 1 #
coedge $-1 $168 $336 $164 $249 1 $82 $-1 #
edge $-1 $170 $250 $164 $259 0 #
vertex $-1 $249 $341 #
straight-curve $-1 10 -16.5 16 0 0 1 #
point $-1 10 -16.5 -30 #
straight-curve $-1 0 -10 -34 -1 0 0 #
point $-1 10 -10 -34 #
coedge $-1 $342 $175 $343 $344 1 $82 $-1 #
coedge $-1 $193 $192 $175 $257 1 $194 $-1 #
edge $-1 $258 $345 $175 $346 0 #
vertex $-1 $257 $347 #
straight-curve $-1 10 0 -34 0 -1 0 #
coedge $-1 $348 $178 $226 $317 0 $82 $-1 #
coedge $-1 $215 $214 $178 $262 0 $187 $-1 #
edge $-1 $320 $270 $261 $349 0 #
coedge $-1 $179 $342 $350 $351 1 $82 $-1 #
coedge $-1 $352 $353 $179 $265 0 $354 $-1 #
edge $-1 $269 $355 $264 $126 0 #
coedge $-1 $212 $180 $353 $356 1 $268 $-1 #
coedge $-1 $180 $212 $215 $307 1 $268 $-1 #
loop $-1 $-1 $212 $329 #
vertex $-1 $356 $357 #
vertex $-1 $262 $358 #
ellipse-curve $-1 -21.5 8.5 -34 0 0 1 -1.06066017177982 1.06066017177982 0 1 #
face $-1 $229 $194 $2 $-1 $359 reversed single #
loop $-1 $-1 $190 $182 #
plane-surface $-1 0 18 16 0 -1 0 0 0 -1 0 #
loop $-1 $-1 $293 $186 #
plane-surface $-1 -25 0 20 1 0 0 0 0 -1 0 #
coedge $-1 $189 $211 $360 $361 0 $32 $-1 #
coedge $-1 $362 $363 $189 $279 1 $364 $-1 #
edge $-1 $365 $282 $189 $366 0 #
coedge $-1 $343 $190 $363 $367 0 $273 $-1 #
coedge $-1 $190 $343 $192 $284 0 $273 $-1 #
vertex $-1 $279 $368 #
straight-curve $-1 0 18 -30 1 0 -0 #
edge $-1 $345 $195 $281 $369 0 #
point $-1 8.5 18 -30 #
straight-curve $-1 10 16.5 16 0 0 -1 #
coedge $-1 $370 $327 $200 $288 0 $233 $-1 #
edge $-1 $294 $290 $287 $371 0 #
coedge $-1 $201 $328 $370 $372 1 $154 $-1 #
vertex $-1 $288 $373 #
straight-curve $-1 25 0 -30 0 -1 0 #
coedge $-1 $374 $203 $327 $375 1 $275 $-1 #
coedge $-1 $203 $374 $205 $297 1 $275 $-1 #
vertex $-1 $288 $376 #
straight-curve $-1 -25 0 -30 0 1 0 #
coedge $-1 $377 $205 $378 $379 1 $207 $-1 #
edge $-1 $209 $380 $205 $381 0 #
coedge $-1 $206 $382 $383 $384 1 $207 $-1 #
edge $-1 $385 $208 $206 $386 0 #
face $-1 $387 $207 $2 $-1 $388 reversed single #
point $-1 25 -20 -30 #
point $-1 -25 -20 -30 #
coedge $-1 $353 $352 $211 $304 1 $354 $-1 #
edge $-1 $305 $389 $211 $390 0 #
vertex $-1 $213 $391 #
ellipse-curve $-1 -21.5 8.5 -30 -0 -0 -1 -1.06066017177982 1.06066017177982 0 1 #
edge $-1 $270 $216 $215 $392 0 #
point $-1 -23 8.5 -30 #
edge $-1 $334 $312 $218 $393 0 #
coedge $-1 $394 $219 $331 $395 0 $237 $-1 #
coedge $-1 $219 $394 $221 $315 0 $237 $-1 #
vertex $-1 $309 $396 #
straight-curve $-1 -10 0 -30 0 1 0 #
coedge $-1 $222 $221 $348 $397 0 $223 $-1 #
edge $-1 $398 $224 $221 $399 0 #
point $-1 -10 -10 -30 #
edge $-1 $320 $318 $260 $400 0 #
vertex $-1 $397 $401 #
straight-curve $-1 -21.5 -10 16 0 0 1 #
vertex $-1 $317 $402 #
straight-curve $-1 -23 -8.5 16 0 0 -1 #
face $-1 $198 $403 $2 $-1 $238 forward single #
cone-surface $-1 -21.5 -8.5 16 -0 -0 -1 -1.06066017177982 -1.06066017177982 0 1 0 1 0 #
face $-1 $404 $405 $2 $-1 $326 forward single #
loop $-1 $-1 $406 $232 #
plane-surface $-1 0 0 50 0 0 1 1 0 0 0 #
coedge $-1 $287 $407 $292 $375 0 $233 $-1 #
coedge $-1 $289 $235 $406 $408 1 $154 $-1 #
face $-1 $409 $268 $2 $-1 $410 reversed single #
coedge $-1 $411 $239 $241 $333 1 $157 $-1 #
coedge $-1 $239 $411 $310 $395 1 $157 $-1 #
coedge $-1 $241 $240 $412 $413 0 $102 $-1 #
edge $-1 $414 $334 $241 $415 0 #
vertex $-1 $309 $416 #
straight-curve $-1 0 -18 -30 -1 0 0 #
coedge $-1 $248 $412 $244 $337 0 $82 $-1 #
edge $-1 $338 $250 $336 $417 0 #
vertex $-1 $337 $418 #
straight-curve $-1 8.5 -18 16 0 0 -1 #
point $-1 8.5 -18 -30 #
point $-1 10 -16.5 -34 #
coedge $-1 $263 $255 $419 $420 0 $82 $-1 #
coedge $-1 $281 $280 $255 $344 0 $273 $-1 #
edge $-1 $421 $345 $343 $422 0 #
vertex $-1 $344 $423 #
ellipse-curve $-1 8.5 16.5 -34 0 0 1 1.06066017177982 1.06066017177982 0 1 #
point $-1 10 16.5 -34 #
coedge $-1 $424 $260 $314 $397 1 $82 $-1 #
straight-curve $-1 -23 0 -34 0 1 0 #
coedge $-1 $425 $426 $263 $351 0 $403 $-1 #
edge $-1 $355 $427 $350 $428 0 #
coedge $-1 $303 $264 $426 $429 1 $354 $-1 #
coedge $-1 $264 $303 $266 $356 0 $354 $-1 #
loop $-1 $-1 $303 $409 #
vertex $-1 $265 $430 #
edge $-1 $305 $269 $353 $431 0 #
point $-1 -21.5 10 -34 #
point $-1 -23 8.5 -34 #
cone-surface $-1 8.5 16.5 16 0 0 -1 1.06066017177982 1.06066017177982 0 1 0 1 0 #
coedge $-1 $426 $425 $277 $361 1 $403 $-1 #
edge $-1 $389 $365 $277 $432 0 #
coedge $-1 $419 $278 $425 $433 1 $364 $-1 #
coedge $-1 $278 $419 $280 $367 1 $364 $-1 #
loop $-1 $-1 $278 $434 #
vertex $-1 $279 $435 #
ellipse-curve $-1 -8.5 16.5 -30 -0 -0 -1 -1.06066017177982 1.06066017177982 0 1 #
edge $-1 $282 $421 $280 $436 0 #
point $-1 -8.5 18 -30 #
straight-curve $-1 8.5 18 16 0 0 1 #
coedge $-1 $437 $287 $289 $372 0 $233 $-1 #
straight-curve $-1 0 20 -30 1 0 -0 #
edge $-1 $290 $438 $370 $439 0 #
point $-1 25 20 -30 #
coedge $-1 $293 $292 $440 $441 1 $275 $-1 #
edge $-1 $442 $294 $327 $443 0 #
point $-1 -25 20 -30 #
coedge $-1 $444 $296 $445 $446 0 $207 $-1 #
coedge $-1 $440 $447 $296 $379 0 $405 $-1 #
edge $-1 $448 $380 $296 $449 0 #
vertex $-1 $379 $450 #
straight-curve $-1 -25 -20 10 -0 0 1 #
coedge $-1 $298 $444 $451 $452 1 $207 $-1 #
coedge $-1 $453 $406 $298 $384 0 $325 $-1 #
edge $-1 $385 $454 $298 $449 0 #
vertex $-1 $408 $455 #
straight-curve $-1 25 -20 10 -0 0 -1 #
face $-1 $456 $457 $2 $-1 $458 reversed single #
plane-surface $-1 0 -20 0 0 1 -0 -0 0 1 0 #
vertex $-1 $304 $459 #
straight-curve $-1 0 10 -30 1 0 -0 #
point $-1 -21.5 10 -30 #
straight-curve $-1 -23 8.5 16 0 0 1 #
ellipse-curve $-1 -8.5 -16.5 -30 -0 -0 -1 -1.06066017177982 -1.06066017177982 0 1 #
coedge $-1 $311 $310 $424 $460 0 $237 $-1 #
edge $-1 $312 $461 $310 $462 0 #
point $-1 -10 -16.5 -30 #
edge $-1 $398 $318 $314 $253 0 #
vertex $-1 $397 $463 #
straight-curve $-1 -10 -10 16 0 0 1 #
ellipse-curve $-1 -21.5 -8.5 -34 0 0 1 -1.06066017177982 -1.06066017177982 0 1 #
point $-1 -21.5 -10 -34 #
point $-1 -23 -8.5 -34 #
loop $-1 $-1 $360 $322 #
face $-1 $300 $464 $2 $-1 $465 reversed single #
loop $-1 $-1 $440 $324 #
coedge $-1 $383 $466 $328 $408 0 $325 $-1 #
coedge $-1 $327 $467 $468 $469 1 $233 $-1 #
edge $-1 $438 $385 $406 $470 0 #
face $-1 $434 $354 $2 $-1 $128 forward single #
cone-surface $-1 -21.5 8.5 16 0 0 -1 -1.06066017177982 1.06066017177982 0 1 0 1 0 #
coedge $-1 $331 $330 $471 $472 1 $157 $-1 #
coedge $-1 $336 $471 $332 $413 1 $82 $-1 #
edge $-1 $338 $414 $332 $473 0 #
vertex $-1 $413 $474 #
straight-curve $-1 -8.5 -18 16 0 0 1 #
point $-1 -8.5 -18 -30 #
ellipse-curve $-1 8.5 -16.5 -34 0 0 1 1.06066017177982 -1.06066017177982 0 1 #
point $-1 8.5 -18 -34 #
coedge $-1 $363 $362 $342 $420 1 $364 $-1 #
edge $-1 $421 $427 $342 $475 0 #
vertex $-1 $367 $476 #
straight-curve $-1 0 18 -34 1 0 0 #
point $-1 8.5 18 -34 #
coedge $-1 $471 $348 $394 $460 1 $82 $-1 #
coedge $-1 $360 $350 $362 $433 0 $403 $-1 #
coedge $-1 $350 $360 $352 $429 0 $403 $-1 #
vertex $-1 $351 $477 #
straight-curve $-1 -10 0 -34 0 1 0 #
edge $-1 $389 $355 $352 $478 0 #
point $-1 -10 10 -34 #
straight-curve $-1 -21.5 10 16 0 0 -1 #
straight-curve $-1 -10 0 -30 0 1 0 #
edge $-1 $427 $365 $425 $479 0 #
face $-1 $122 $364 $2 $-1 $480 reversed single #
point $-1 -10 16.5 -30 #
straight-curve $-1 -8.5 18 16 0 0 -1 #
coedge $-1 $481 $370 $466 $482 1 $233 $-1 #
vertex $-1 $482 $483 #
straight-curve $-1 25 20 10 0 0 1 #
coedge $-1 $468 $378 $374 $441 0 $405 $-1 #
edge $-1 $380 $442 $440 $484 0 #
vertex $-1 $375 $485 #
straight-curve $-1 -25 20 10 0 0 -1 #
coedge $-1 $382 $377 $486 $487 1 $207 $-1 #
coedge $-1 $488 $489 $377 $446 1 $457 $-1 #
edge $-1 $448 $490 $445 $491 0 #
coedge $-1 $378 $468 $488 $492 0 $405 $-1 #
vertex $-1 $492 $493 #
straight-curve $-1 0 -20 50 1 0 0 #
point $-1 -25 -20 50 #
coedge $-1 $494 $495 $382 $452 0 $496 $-1 #
edge $-1 $454 $497 $451 $498 0 #
coedge $-1 $466 $383 $495 $499 0 $325 $-1 #
vertex $-1 $499 $500 #
point $-1 25 -20 50 #
face $-1 $-1 $496 $2 $-1 $501 reversed single #
loop $-1 $-1 $502 $387 #
plane-surface $-1 -50 0 0 1 0 0 0 0 -1 0 #
point $-1 -10 10 -30 #
edge $-1 $461 $398 $394 $428 0 #
vertex $-1 $472 $503 #
straight-curve $-1 -10 -16.5 16 0 0 -1 #
point $-1 -10 -10 -34 #
loop $-1 $-1 $504 $404 #
plane-surface $-1 0 0 -50 0 0 1 1 0 0 0 #
coedge $-1 $406 $453 $437 $482 0 $325 $-1 #
coedge $-1 $407 $505 $502 $506 1 $233 $-1 #
coedge $-1 $447 $440 $407 $469 0 $405 $-1 #
edge $-1 $442 $507 $407 $508 0 #
straight-curve $-1 25 0 50 0 -1 0 #
coedge $-1 $412 $424 $411 $472 0 $82 $-1 #
edge $-1 $461 $414 $471 $509 0 #
straight-curve $-1 0 -18 -34 -1 0 0 #
point $-1 -8.5 -18 -34 #
ellipse-curve $-1 -8.5 16.5 -34 0 0 1 -1.06066017177982 1.06066017177982 0 1 #
point $-1 -8.5 18 -34 #
point $-1 -10 16.5 -34 #
straight-curve $-1 -10 10 16 0 0 -1 #
straight-curve $-1 -10 16.5 16 0 0 1 #
cone-surface $-1 -8.5 16.5 16 0 0 -1 -1.06066017177982 1.06066017177982 0 1 0 1 0 #
coedge $-1 $505 $437 $510 $511 0 $233 $-1 #
edge $-1 $512 $438 $437 $508 0 #
point $-1 25 20 50 #
straight-curve $-1 -25 0 50 0 1 0 #
point $-1 -25 20 50 #
coedge $-1 $513 $504 $444 $487 0 $464 $-1 #
edge $-1 $497 $490 $444 $514 0 #
coedge $-1 $502 $445 $447 $492 1 $457 $-1 #
coedge $-1 $445 $502 $513 $515 1 $457 $-1 #
vertex $-1 $515 $516 #
straight-curve $-1 -50 -20 0 0 0 -1 #
edge $-1 $507 $448 $488 $517 0 #
point $-1 -50 -20 50 #
coedge $-1 $510 $451 $504 $518 1 $496 $-1 #
coedge $-1 $451 $510 $453 $499 1 $496 $-1 #
loop $-1 $-1 $451 $456 #
vertex $-1 $452 $519 #
straight-curve $-1 50 -20 0 0 0 -1 #
edge $-1 $454 $512 $495 $520 0 #
point $-1 50 -20 50 #
plane-surface $-1 50 0 0 -1 0 0 0 -0 1 0 #
coedge $-1 $489 $488 $467 $506 0 $457 $-1 #
point $-1 -10 -16.5 -34 #
coedge $-1 $486 $521 $494 $518 0 $464 $-1 #
coedge $-1 $467 $481 $521 $522 1 $233 $-1 #
edge $-1 $507 $523 $467 $524 0 #
vertex $-1 $469 $525 #
straight-curve $-1 0 20 50 -1 0 0 #
ellipse-curve $-1 -8.5 -16.5 -34 0 0 1 -1.06066017177982 -1.06066017177982 0 1 #
coedge $-1 $495 $494 $481 $511 1 $496 $-1 #
edge $-1 $512 $526 $510 $527 0 #
vertex $-1 $499 $528 #
coedge $-1 $521 $486 $489 $515 0 $464 $-1 #
straight-curve $-1 0 -20 -50 -1 0 0 #
edge $-1 $490 $523 $489 $529 0 #
point $-1 -50 -20 -50 #
straight-curve $-1 -50 0 50 0 -1 0 #
edge $-1 $526 $497 $494 $530 0 #
point $-1 50 -20 -50 #
straight-curve $-1 50 0 50 0 1 0 #
coedge $-1 $504 $513 $505 $522 0 $464 $-1 #
edge $-1 $523 $526 $505 $531 0 #
vertex $-1 $522 $532 #
straight-curve $-1 -50 20 0 0 0 -1 #
point $-1 -50 20 50 #
vertex $-1 $518 $533 #
straight-curve $-1 50 20 0 0 0 -1 #
point $-1 50 20 50 #
straight-curve $-1 -50 0 -50 0 1 0 #
straight-curve $-1 50 0 -50 0 -1 0 #
straight-curve $-1 0 20 -50 1 0 0 #
point $-1 -50 20 -50 #
point $-1 50 20 -50 #
