600 0 1 0           
89 GICL ACIS Healer - Source: /gicl/data5/repository/UMD/access-prob1/access-prob1.sat - 6 0 18 ACIS 6.0.3 Solaris 24 Sun Apr 14 00:34:25 2002 
1 9.999999999999999547e-07 1.000000000000000036e-10 
body $-1 $1 $-1 $-1 #
lump $-1 $-1 $2 $0 #
shell $-1 $-1 $-1 $3 $-1 $1 #
face $-1 $4 $5 $2 $-1 $6 reversed single #
face $-1 $7 $8 $2 $-1 $9 forward single #
loop $-1 $-1 $10 $3 #
cone-surface $-1 21.5 8.5 16 0 0 -1 1.060660171779820082 1.060660171779820082 0 1 I I 0 1 1.499999999999998224 forward I I I I #
face $-1 $11 $12 $2 $-1 $13 reversed single #
loop $-1 $-1 $14 $4 #
plane-surface $-1 23 0 16 -1 0 0 0 0 1 forward_v I I I I #
coedge $-1 $15 $16 $17 $18 reversed $5 $-1 #
face $-1 $19 $20 $2 $-1 $21 forward single #
loop $-1 $-1 $22 $7 #
cone-surface $-1 21.5 -8.5 16 0 0 -1 1.060660171779820082 -1.060660171779820082 0 1 I I 0 1 1.499999999999998224 forward I I I I #
coedge $-1 $23 $24 $25 $26 reversed $8 $-1 #
coedge $-1 $27 $10 $28 $29 reversed $5 $-1 #
coedge $-1 $10 $27 $23 $30 reversed $5 $-1 #
coedge $-1 $25 $31 $10 $18 forward $32 $-1 #
edge $-1 $33 -0.785398163397448279 $34 0.785398163397448279 $17 $35 forward 7 unknown #
face $-1 $36 $37 $2 $-1 $38 forward single #
loop $-1 $-1 $39 $11 #
plane-surface $-1 0 -10 16 0 1 0 0 0 1 forward_v I I I I #
coedge $-1 $40 $41 $42 $43 reversed $12 $-1 #
coedge $-1 $44 $14 $16 $30 forward $8 $-1 #
coedge $-1 $14 $44 $40 $45 forward $8 $-1 #
coedge $-1 $42 $17 $14 $26 forward $32 $-1 #
edge $-1 $34 -8.5 $46 8.5 $25 $47 forward 7 unknown #
coedge $-1 $16 $15 $48 $49 reversed $5 $-1 #
coedge $-1 $50 $51 $15 $29 forward $52 $-1 #
edge $-1 $53 -50 $33 -46 $28 $54 forward 7 unknown #
edge $-1 $34 46 $55 50 $23 $56 forward 7 unknown #
coedge $-1 $17 $57 $50 $58 forward $32 $-1 #
loop $-1 $59 $60 $61 #
vertex $-1 $18 $62 #
vertex $-1 $18 $63 #
ellipse-curve $-1 21.5 8.5 -30 -0 -0 -1 1.060660171779820082 1.060660171779820082 0 1 I I #
face $-1 $64 $65 $2 $-1 $66 reversed single #
loop $-1 $-1 $67 $19 #
plane-surface $-1 10 0 16 -1 0 0 0 0 1 forward_v I I I I #
coedge $-1 $68 $69 $70 $71 reversed $20 $-1 #
coedge $-1 $72 $22 $24 $45 reversed $12 $-1 #
coedge $-1 $22 $72 $68 $73 reversed $12 $-1 #
coedge $-1 $70 $25 $22 $43 forward $32 $-1 #
edge $-1 $46 -0.785398163397448279 $74 0.785398163397448279 $42 $75 forward 7 unknown #
coedge $-1 $24 $23 $76 $77 forward $8 $-1 #
edge $-1 $78 -50 $46 -46 $24 $79 forward 7 unknown #
vertex $-1 $26 $80 #
straight-curve $-1 23 0 -30 0 -1 0 I I #
coedge $-1 $81 $76 $27 $49 forward $82 $-1 #
edge $-1 $55 -0.785398163397448279 $53 0.785398163397448279 $48 $83 forward 7 unknown #
coedge $-1 $84 $28 $31 $58 reversed $52 $-1 #
coedge $-1 $28 $84 $81 $85 forward $52 $-1 #
loop $-1 $-1 $50 $86 #
vertex $-1 $85 $87 #
straight-curve $-1 21.5 10 16 0 0 1 I I #
vertex $-1 $30 $88 #
straight-curve $-1 23 8.5 16 0 0 -1 I I #
coedge $-1 $31 $89 $90 $91 forward $32 $-1 #
edge $-1 $92 10 $33 21.5 $31 $93 forward 7 unknown #
loop $-1 $-1 $94 $61 #
coedge $-1 $95 $96 $97 $98 forward $32 $-1 #
face $-1 $99 $32 $2 $-1 $100 forward single #
point $-1 21.5 10 -30 #
point $-1 23 8.5 -30 #
face $-1 $101 $102 $2 $-1 $103 forward single #
loop $-1 $-1 $104 $36 #
cone-surface $-1 8.5 -16.5 16 0 0 -1 1.060660171779820082 -1.060660171779820082 0 1 I I 0 1 1.499999999999998224 forward I I I I #
coedge $-1 $105 $106 $107 $108 reversed $37 $-1 #
coedge $-1 $109 $39 $41 $73 forward $20 $-1 #
coedge $-1 $39 $109 $105 $110 reversed $20 $-1 #
coedge $-1 $107 $42 $39 $71 forward $32 $-1 #
edge $-1 $74 -21.5 $111 -10 $70 $112 forward 7 unknown #
coedge $-1 $41 $40 $113 $114 reversed $12 $-1 #
edge $-1 $74 46 $115 50 $68 $116 forward 7 unknown #
vertex $-1 $43 $117 #
ellipse-curve $-1 21.5 -8.5 -30 -0 -0 -1 1.060660171779820082 -1.060660171779820082 0 1 I I #
coedge $-1 $48 $113 $44 $77 reversed $82 $-1 #
edge $-1 $55 -8.5 $78 8.5 $44 $118 forward 7 unknown #
vertex $-1 $77 $119 #
straight-curve $-1 23 -8.5 16 0 0 1 I I #
point $-1 23 -8.5 -30 #
coedge $-1 $120 $48 $51 $85 reversed $82 $-1 #
loop $-1 $-1 $121 $122 #
ellipse-curve $-1 21.5 8.5 -34 0 0 1 1.060660171779820082 1.060660171779820082 0 1 I I #
coedge $-1 $51 $50 $123 $124 reversed $52 $-1 #
edge $-1 $125 10 $53 21.5 $51 $126 forward 7 unknown #
face $-1 $127 $52 $2 $-1 $128 forward single #
point $-1 21.5 10 -34 #
point $-1 23 8.5 -34 #
coedge $-1 $57 $129 $130 $131 forward $32 $-1 #
coedge $-1 $132 $123 $57 $91 reversed $133 $-1 #
edge $-1 $134 -16.5 $92 -10 $57 $135 forward 7 unknown #
vertex $-1 $91 $136 #
straight-curve $-1 0 10 -30 1 0 -0 I I #
coedge $-1 $137 $138 $139 $140 reversed $59 $-1 #
coedge $-1 $141 $60 $142 $143 forward $32 $-1 #
coedge $-1 $60 $144 $145 $146 forward $32 $-1 #
coedge $-1 $147 $148 $60 $98 reversed $149 $-1 #
edge $-1 $150 -0.785398163397448279 $151 0.785398163397448279 $60 $152 forward 7 unknown #
face $-1 $153 $154 $2 $-1 $155 forward single #
plane-surface $-1 0 0 -30 0 0 1 1 0 0 forward_v I I I I #
face $-1 $156 $157 $2 $-1 $158 reversed single #
loop $-1 $-1 $159 $64 #
plane-surface $-1 0 -18 16 0 1 0 0 0 1 forward_v I I I I #
coedge $-1 $160 $161 $162 $163 reversed $65 $-1 #
coedge $-1 $164 $67 $69 $110 forward $37 $-1 #
coedge $-1 $67 $164 $160 $165 forward $37 $-1 #
coedge $-1 $162 $70 $67 $108 forward $32 $-1 #
edge $-1 $111 10 $166 16.5 $107 $167 forward 7 unknown #
coedge $-1 $69 $68 $168 $169 forward $20 $-1 #
edge $-1 $111 46 $170 50 $69 $171 forward 7 unknown #
vertex $-1 $108 $172 #
straight-curve $-1 0 -10 -30 -1 0 0 I I #
coedge $-1 $76 $168 $72 $114 forward $82 $-1 #
edge $-1 $115 -0.785398163397448279 $78 0.785398163397448279 $113 $173 forward 7 unknown #
vertex $-1 $114 $174 #
straight-curve $-1 21.5 -10 16 0 0 -1 I I #
point $-1 21.5 -10 -30 #
straight-curve $-1 23 0 -34 0 -1 0 I I #
point $-1 23 -8.5 -34 #
coedge $-1 $175 $81 $176 $177 reversed $82 $-1 #
coedge $-1 $178 $179 $180 $181 forward $82 $-1 #
face $-1 $182 $82 $2 $-1 $183 forward single #
coedge $-1 $90 $176 $84 $124 forward $133 $-1 #
edge $-1 $125 -50 $92 -46 $84 $184 forward 7 unknown #
vertex $-1 $85 $185 #
straight-curve $-1 0 10 -34 1 0 0 I I #
face $-1 $186 $187 $2 $-1 $188 forward single #
plane-surface $-1 0 10 16 0 -1 0 0 0 -1 forward_v I I I I #
coedge $-1 $89 $189 $190 $191 forward $32 $-1 #
coedge $-1 $192 $193 $89 $131 reversed $194 $-1 #
edge $-1 $195 -0.785398163397448279 $134 0.785398163397448279 $89 $196 forward 7 unknown #
coedge $-1 $176 $90 $193 $197 forward $133 $-1 #
loop $-1 $-1 $90 $198 #
vertex $-1 $131 $199 #
straight-curve $-1 10 0 -30 0 -1 0 I I #
point $-1 10 10 -30 #
coedge $-1 $200 $94 $201 $202 reversed $59 $-1 #
coedge $-1 $94 $200 $203 $204 reversed $59 $-1 #
coedge $-1 $205 $206 $94 $140 forward $207 $-1 #
edge $-1 $208 -25 $209 25 $139 $210 forward 7 unknown #
coedge $-1 $211 $95 $212 $213 forward $32 $-1 #
coedge $-1 $214 $215 $95 $143 reversed $187 $-1 #
edge $-1 $151 -8.5 $216 8.5 $95 $217 forward 7 unknown #
coedge $-1 $96 $218 $219 $220 forward $32 $-1 #
coedge $-1 $221 $222 $96 $146 reversed $223 $-1 #
edge $-1 $224 10 $150 21.5 $96 $225 forward 7 unknown #
coedge $-1 $226 $97 $222 $227 reversed $149 $-1 #
coedge $-1 $97 $226 $214 $228 reversed $149 $-1 #
loop $-1 $-1 $97 $229 #
vertex $-1 $98 $230 #
vertex $-1 $98 $231 #
ellipse-curve $-1 -21.5 -8.5 -30 -0 -0 -1 -1.060660171779820082 -1.060660171779820082 0 1 I I #
face $-1 $232 $233 $2 $-1 $234 reversed single #
loop $-1 $-1 $235 $99 #
plane-surface $-1 25 0 20 -1 0 0 0 0 1 forward_v I I I I #
face $-1 $236 $237 $2 $-1 $238 forward single #
loop $-1 $-1 $239 $101 #
cone-surface $-1 -8.5 -16.5 16 -0 -0 -1 -1.060660171779820082 -1.060660171779820082 0 1 I I 0 1 1.499999999999998224 forward I I I I #
coedge $-1 $240 $241 $242 $243 reversed $102 $-1 #
coedge $-1 $244 $104 $106 $165 reversed $65 $-1 #
coedge $-1 $104 $244 $240 $245 reversed $65 $-1 #
coedge $-1 $242 $107 $104 $163 forward $32 $-1 #
edge $-1 $166 -0.785398163397448279 $246 0.785398163397448279 $162 $247 forward 7 unknown #
coedge $-1 $106 $105 $248 $249 forward $37 $-1 #
edge $-1 $250 -50 $166 -46 $106 $251 forward 7 unknown #
vertex $-1 $163 $252 #
straight-curve $-1 10 0 -30 0 -1 0 I I #
coedge $-1 $113 $248 $109 $169 reversed $82 $-1 #
edge $-1 $115 -21.5 $170 -10 $109 $253 forward 7 unknown #
vertex $-1 $169 $254 #
straight-curve $-1 10 -10 16 0 0 -1 I I #
point $-1 10 -10 -30 #
ellipse-curve $-1 21.5 -8.5 -34 0 0 1 1.060660171779820082 -1.060660171779820082 0 1 I I #
point $-1 21.5 -10 -34 #
coedge $-1 $255 $120 $256 $257 forward $82 $-1 #
coedge $-1 $123 $132 $120 $177 forward $133 $-1 #
edge $-1 $258 -16.5 $125 -10 $176 $259 forward 7 unknown #
coedge $-1 $260 $121 $261 $262 reversed $82 $-1 #
coedge $-1 $121 $263 $264 $265 reversed $82 $-1 #
coedge $-1 $266 $267 $121 $181 reversed $268 $-1 #
edge $-1 $269 -0.785398163397448279 $270 0.785398163397448279 $121 $271 forward 7 unknown #
face $-1 $272 $273 $2 $-1 $274 forward single #
plane-surface $-1 0 0 -34 0 0 1 1 0 0 forward_v I I I I #
straight-curve $-1 10 10 16 0 0 1 I I #
point $-1 10 10 -34 #
face $-1 $61 $275 $2 $-1 $276 forward single #
loop $-1 $-1 $142 $127 #
plane-surface $-1 -23 0 16 1 0 0 0 0 -1 forward_v I I I I #
coedge $-1 $129 $277 $278 $279 forward $32 $-1 #
coedge $-1 $280 $281 $129 $191 reversed $273 $-1 #
edge $-1 $282 -8.5 $195 8.5 $129 $283 forward 7 unknown #
coedge $-1 $256 $130 $281 $284 reversed $194 $-1 #
coedge $-1 $130 $256 $132 $197 reversed $194 $-1 #
loop $-1 $-1 $130 $272 #
vertex $-1 $191 $285 #
ellipse-curve $-1 8.5 16.5 -30 -0 -0 -1 1.060660171779820082 1.060660171779820082 0 1 I I #
edge $-1 $134 46 $258 50 $132 $286 forward 7 unknown #
face $-1 $86 $133 $2 $-1 $38 forward single #
point $-1 10 16.5 -30 #
coedge $-1 $138 $137 $287 $288 reversed $59 $-1 #
coedge $-1 $235 $289 $137 $202 forward $154 $-1 #
edge $-1 $290 -20 $208 20 $201 $291 forward 7 unknown #
coedge $-1 $292 $293 $138 $204 forward $275 $-1 #
edge $-1 $209 -20 $294 20 $203 $295 forward 7 unknown #
coedge $-1 $296 $139 $293 $297 forward $207 $-1 #
coedge $-1 $139 $298 $235 $299 forward $207 $-1 #
loop $-1 $-1 $205 $300 #
vertex $-1 $140 $301 #
vertex $-1 $140 $302 #
straight-curve $-1 0 -20 -30 -1 0 0 I I #
coedge $-1 $277 $141 $303 $304 forward $32 $-1 #
coedge $-1 $267 $266 $141 $213 reversed $268 $-1 #
edge $-1 $216 -0.785398163397448279 $305 0.785398163397448279 $141 $306 forward 7 unknown #
coedge $-1 $261 $142 $148 $228 forward $187 $-1 #
coedge $-1 $142 $261 $267 $307 forward $187 $-1 #
vertex $-1 $213 $308 #
straight-curve $-1 -23 0 -30 0 1 0 I I #
coedge $-1 $144 $242 $239 $309 forward $32 $-1 #
coedge $-1 $310 $311 $144 $220 reversed $237 $-1 #
edge $-1 $312 -16.5 $224 -10 $144 $313 forward 7 unknown #
coedge $-1 $314 $145 $311 $315 reversed $223 $-1 #
coedge $-1 $145 $314 $147 $227 forward $223 $-1 #
loop $-1 $-1 $145 $236 #
vertex $-1 $146 $316 #
straight-curve $-1 0 -10 -30 -1 0 0 I I #
coedge $-1 $148 $147 $260 $317 reversed $149 $-1 #
edge $-1 $318 -50 $150 -46 $222 $319 forward 7 unknown #
edge $-1 $151 46 $320 50 $214 $321 forward 7 unknown #
face $-1 $322 $149 $2 $-1 $323 reversed single #
point $-1 -21.5 -10 -30 #
point $-1 -23 -8.5 -30 #
face $-1 $324 $325 $2 $-1 $326 forward single #
loop $-1 $-1 $327 $153 #
plane-surface $-1 0 20 0 0 -1 0 0 0 -1 forward_v I I I I #
coedge $-1 $328 $201 $206 $299 reversed $154 $-1 #
face $-1 $329 $223 $2 $-1 $21 forward single #
loop $-1 $-1 $219 $156 #
plane-surface $-1 -10 0 16 1 0 0 0 0 -1 forward_v I I I I #
coedge $-1 $330 $331 $218 $309 reversed $157 $-1 #
coedge $-1 $332 $159 $161 $245 forward $102 $-1 #
coedge $-1 $159 $332 $330 $333 forward $102 $-1 #
coedge $-1 $218 $162 $159 $243 forward $32 $-1 #
edge $-1 $246 -8.5 $334 8.5 $242 $335 forward 7 unknown #
coedge $-1 $161 $160 $336 $337 reversed $65 $-1 #
edge $-1 $246 46 $338 50 $240 $339 forward 7 unknown #
vertex $-1 $243 $340 #
ellipse-curve $-1 8.5 -16.5 -30 -0 -0 -1 1.060660171779820082 -1.060660171779820082 0 1 I I #
coedge $-1 $168 $336 $164 $249 reversed $82 $-1 #
edge $-1 $170 10 $250 16.5 $164 $259 forward 7 unknown #
vertex $-1 $249 $341 #
straight-curve $-1 10 -16.5 16 0 0 1 I I #
point $-1 10 -16.5 -30 #
straight-curve $-1 0 -10 -34 -1 0 0 I I #
point $-1 10 -10 -34 #
coedge $-1 $342 $175 $343 $344 reversed $82 $-1 #
coedge $-1 $193 $192 $175 $257 reversed $194 $-1 #
edge $-1 $258 -0.785398163397448279 $345 0.785398163397448279 $175 $346 forward 7 unknown #
vertex $-1 $257 $347 #
straight-curve $-1 10 0 -34 0 -1 0 I I #
coedge $-1 $348 $178 $226 $317 forward $82 $-1 #
coedge $-1 $215 $214 $178 $262 forward $187 $-1 #
edge $-1 $320 -8.5 $270 8.5 $261 $349 forward 7 unknown #
coedge $-1 $179 $342 $350 $351 reversed $82 $-1 #
coedge $-1 $352 $353 $179 $265 forward $354 $-1 #
edge $-1 $269 -21.5 $355 -10 $264 $126 forward 7 unknown #
coedge $-1 $212 $180 $353 $356 reversed $268 $-1 #
coedge $-1 $180 $212 $215 $307 reversed $268 $-1 #
loop $-1 $-1 $212 $329 #
vertex $-1 $356 $357 #
vertex $-1 $262 $358 #
ellipse-curve $-1 -21.5 8.5 -34 0 0 1 -1.060660171779820082 1.060660171779820082 0 1 I I #
face $-1 $229 $194 $2 $-1 $359 reversed single #
loop $-1 $-1 $190 $182 #
plane-surface $-1 0 18 16 0 -1 0 0 0 -1 forward_v I I I I #
loop $-1 $-1 $293 $186 #
plane-surface $-1 -25 0 20 1 0 0 0 0 -1 forward_v I I I I #
coedge $-1 $189 $211 $360 $361 forward $32 $-1 #
coedge $-1 $362 $363 $189 $279 reversed $364 $-1 #
edge $-1 $365 -0.785398163397448279 $282 0.785398163397448279 $189 $366 forward 7 unknown #
coedge $-1 $343 $190 $363 $367 forward $273 $-1 #
coedge $-1 $190 $343 $192 $284 forward $273 $-1 #
vertex $-1 $279 $368 #
straight-curve $-1 0 18 -30 1 0 -0 I I #
edge $-1 $345 -50 $195 -46 $281 $369 forward 7 unknown #
point $-1 8.5 18 -30 #
straight-curve $-1 10 16.5 16 0 0 -1 I I #
coedge $-1 $370 $327 $200 $288 forward $233 $-1 #
edge $-1 $294 -25 $290 25 $287 $371 forward 7 unknown #
coedge $-1 $201 $328 $370 $372 reversed $154 $-1 #
vertex $-1 $288 $373 #
straight-curve $-1 25 0 -30 0 -1 0 I I #
coedge $-1 $374 $203 $327 $375 reversed $275 $-1 #
coedge $-1 $203 $374 $205 $297 reversed $275 $-1 #
vertex $-1 $288 $376 #
straight-curve $-1 -25 0 -30 0 1 0 I I #
coedge $-1 $377 $205 $378 $379 reversed $207 $-1 #
edge $-1 $209 -40 $380 40 $205 $381 forward 7 unknown #
coedge $-1 $206 $382 $383 $384 reversed $207 $-1 #
edge $-1 $385 -40 $208 40 $206 $386 forward 7 unknown #
face $-1 $387 $207 $2 $-1 $388 reversed single #
point $-1 25 -20 -30 #
point $-1 -25 -20 -30 #
coedge $-1 $353 $352 $211 $304 reversed $354 $-1 #
edge $-1 $305 -21.5 $389 -10 $211 $390 forward 7 unknown #
vertex $-1 $213 $391 #
ellipse-curve $-1 -21.5 8.5 -30 -0 -0 -1 -1.060660171779820082 1.060660171779820082 0 1 I I #
edge $-1 $270 -50 $216 -46 $215 $392 forward 7 unknown #
point $-1 -23 8.5 -30 #
edge $-1 $334 -0.785398163397448279 $312 0.785398163397448279 $218 $393 forward 7 unknown #
coedge $-1 $394 $219 $331 $395 forward $237 $-1 #
coedge $-1 $219 $394 $221 $315 forward $237 $-1 #
vertex $-1 $309 $396 #
straight-curve $-1 -10 0 -30 0 1 0 I I #
coedge $-1 $222 $221 $348 $397 forward $223 $-1 #
edge $-1 $398 -50 $224 -46 $221 $399 forward 7 unknown #
point $-1 -10 -10 -30 #
edge $-1 $320 -0.785398163397448279 $318 0.785398163397448279 $260 $400 forward 7 unknown #
vertex $-1 $397 $401 #
straight-curve $-1 -21.5 -10 16 0 0 1 I I #
vertex $-1 $317 $402 #
straight-curve $-1 -23 -8.5 16 0 0 -1 I I #
face $-1 $198 $403 $2 $-1 $238 forward single #
cone-surface $-1 -21.5 -8.5 16 -0 -0 -1 -1.060660171779820082 -1.060660171779820082 0 1 I I 0 1 1.499999999999998224 forward I I I I #
face $-1 $404 $405 $2 $-1 $326 forward single #
loop $-1 $-1 $406 $232 #
plane-surface $-1 0 0 50 0 0 1 1 0 0 forward_v I I I I #
coedge $-1 $287 $407 $292 $375 forward $233 $-1 #
coedge $-1 $289 $235 $406 $408 reversed $154 $-1 #
face $-1 $409 $268 $2 $-1 $410 reversed single #
coedge $-1 $411 $239 $241 $333 reversed $157 $-1 #
coedge $-1 $239 $411 $310 $395 reversed $157 $-1 #
coedge $-1 $241 $240 $412 $413 forward $102 $-1 #
edge $-1 $414 -50 $334 -46 $241 $415 forward 7 unknown #
vertex $-1 $309 $416 #
straight-curve $-1 0 -18 -30 -1 0 0 I I #
coedge $-1 $248 $412 $244 $337 forward $82 $-1 #
edge $-1 $338 -0.785398163397448279 $250 0.785398163397448279 $336 $417 forward 7 unknown #
vertex $-1 $337 $418 #
straight-curve $-1 8.5 -18 16 0 0 -1 I I #
point $-1 8.5 -18 -30 #
point $-1 10 -16.5 -34 #
coedge $-1 $263 $255 $419 $420 forward $82 $-1 #
coedge $-1 $281 $280 $255 $344 forward $273 $-1 #
edge $-1 $421 -8.5 $345 8.5 $343 $422 forward 7 unknown #
vertex $-1 $344 $423 #
ellipse-curve $-1 8.5 16.5 -34 0 0 1 1.060660171779820082 1.060660171779820082 0 1 I I #
point $-1 10 16.5 -34 #
coedge $-1 $424 $260 $314 $397 reversed $82 $-1 #
straight-curve $-1 -23 0 -34 0 1 0 I I #
coedge $-1 $425 $426 $263 $351 forward $403 $-1 #
edge $-1 $355 10 $427 16.5 $350 $428 forward 7 unknown #
coedge $-1 $303 $264 $426 $429 reversed $354 $-1 #
coedge $-1 $264 $303 $266 $356 forward $354 $-1 #
loop $-1 $-1 $303 $409 #
vertex $-1 $265 $430 #
edge $-1 $305 46 $269 50 $353 $431 forward 7 unknown #
point $-1 -21.5 10 -34 #
point $-1 -23 8.5 -34 #
cone-surface $-1 8.5 16.5 16 0 0 -1 1.060660171779820082 1.060660171779820082 0 1 I I 0 1 1.499999999999998224 forward I I I I #
coedge $-1 $426 $425 $277 $361 reversed $403 $-1 #
edge $-1 $389 10 $365 16.5 $277 $432 forward 7 unknown #
coedge $-1 $419 $278 $425 $433 reversed $364 $-1 #
coedge $-1 $278 $419 $280 $367 reversed $364 $-1 #
loop $-1 $-1 $278 $434 #
vertex $-1 $279 $435 #
ellipse-curve $-1 -8.5 16.5 -30 -0 -0 -1 -1.060660171779820082 1.060660171779820082 0 1 I I #
edge $-1 $282 46 $421 50 $280 $436 forward 7 unknown #
point $-1 -8.5 18 -30 #
straight-curve $-1 8.5 18 16 0 0 1 I I #
coedge $-1 $437 $287 $289 $372 forward $233 $-1 #
straight-curve $-1 0 20 -30 1 0 -0 I I #
edge $-1 $290 -40 $438 40 $370 $439 forward 7 unknown #
point $-1 25 20 -30 #
coedge $-1 $293 $292 $440 $441 reversed $275 $-1 #
edge $-1 $442 -40 $294 40 $327 $443 forward 7 unknown #
point $-1 -25 20 -30 #
coedge $-1 $444 $296 $445 $446 forward $207 $-1 #
coedge $-1 $440 $447 $296 $379 forward $405 $-1 #
edge $-1 $448 -50 $380 -25 $296 $449 forward 7 unknown #
vertex $-1 $379 $450 #
straight-curve $-1 -25 -20 10 -0 0 1 I I #
coedge $-1 $298 $444 $451 $452 reversed $207 $-1 #
coedge $-1 $453 $406 $298 $384 forward $325 $-1 #
edge $-1 $385 25 $454 50 $298 $449 forward 7 unknown #
vertex $-1 $408 $455 #
straight-curve $-1 25 -20 10 -0 0 -1 I I #
face $-1 $456 $457 $2 $-1 $458 reversed single #
plane-surface $-1 0 -20 0 0 1 -0 -0 0 1 forward_v I I I I #
vertex $-1 $304 $459 #
straight-curve $-1 0 10 -30 1 0 -0 I I #
point $-1 -21.5 10 -30 #
straight-curve $-1 -23 8.5 16 0 0 1 I I #
ellipse-curve $-1 -8.5 -16.5 -30 -0 -0 -1 -1.060660171779820082 -1.060660171779820082 0 1 I I #
coedge $-1 $311 $310 $424 $460 forward $237 $-1 #
edge $-1 $312 46 $461 50 $310 $462 forward 7 unknown #
point $-1 -10 -16.5 -30 #
edge $-1 $398 10 $318 21.5 $314 $253 forward 7 unknown #
vertex $-1 $397 $463 #
straight-curve $-1 -10 -10 16 0 0 1 I I #
ellipse-curve $-1 -21.5 -8.5 -34 0 0 1 -1.060660171779820082 -1.060660171779820082 0 1 I I #
point $-1 -21.5 -10 -34 #
point $-1 -23 -8.5 -34 #
loop $-1 $-1 $360 $322 #
face $-1 $300 $464 $2 $-1 $465 reversed single #
loop $-1 $-1 $440 $324 #
coedge $-1 $383 $466 $328 $408 forward $325 $-1 #
coedge $-1 $327 $467 $468 $469 reversed $233 $-1 #
edge $-1 $438 -20 $385 20 $406 $470 forward 7 unknown #
face $-1 $434 $354 $2 $-1 $128 forward single #
cone-surface $-1 -21.5 8.5 16 0 0 -1 -1.060660171779820082 1.060660171779820082 0 1 I I 0 1 1.499999999999998224 forward I I I I #
coedge $-1 $331 $330 $471 $472 reversed $157 $-1 #
coedge $-1 $336 $471 $332 $413 reversed $82 $-1 #
edge $-1 $338 -8.5 $414 8.5 $332 $473 forward 7 unknown #
vertex $-1 $413 $474 #
straight-curve $-1 -8.5 -18 16 0 0 1 I I #
point $-1 -8.5 -18 -30 #
ellipse-curve $-1 8.5 -16.5 -34 0 0 1 1.060660171779820082 -1.060660171779820082 0 1 I I #
point $-1 8.5 -18 -34 #
coedge $-1 $363 $362 $342 $420 reversed $364 $-1 #
edge $-1 $421 -0.785398163397448279 $427 0.785398163397448279 $342 $475 forward 7 unknown #
vertex $-1 $367 $476 #
straight-curve $-1 0 18 -34 1 0 0 I I #
point $-1 8.5 18 -34 #
coedge $-1 $471 $348 $394 $460 reversed $82 $-1 #
coedge $-1 $360 $350 $362 $433 forward $403 $-1 #
coedge $-1 $350 $360 $352 $429 forward $403 $-1 #
vertex $-1 $351 $477 #
straight-curve $-1 -10 0 -34 0 1 0 I I #
edge $-1 $389 46 $355 50 $352 $478 forward 7 unknown #
point $-1 -10 10 -34 #
straight-curve $-1 -21.5 10 16 0 0 -1 I I #
straight-curve $-1 -10 0 -30 0 1 0 I I #
edge $-1 $427 -50 $365 -46 $425 $479 forward 7 unknown #
face $-1 $122 $364 $2 $-1 $480 reversed single #
point $-1 -10 16.5 -30 #
straight-curve $-1 -8.5 18 16 0 0 -1 I I #
coedge $-1 $481 $370 $466 $482 reversed $233 $-1 #
vertex $-1 $482 $483 #
straight-curve $-1 25 20 10 0 0 1 I I #
coedge $-1 $468 $378 $374 $441 forward $405 $-1 #
edge $-1 $380 -20 $442 20 $440 $484 forward 7 unknown #
vertex $-1 $375 $485 #
straight-curve $-1 -25 20 10 0 0 -1 I I #
coedge $-1 $382 $377 $486 $487 reversed $207 $-1 #
coedge $-1 $488 $489 $377 $446 reversed $457 $-1 #
edge $-1 $448 -50 $490 50 $445 $491 forward 7 unknown #
coedge $-1 $378 $468 $488 $492 forward $405 $-1 #
vertex $-1 $492 $493 #
straight-curve $-1 0 -20 50 1 0 0 I I #
point $-1 -25 -20 50 #
coedge $-1 $494 $495 $382 $452 forward $496 $-1 #
edge $-1 $454 -50 $497 50 $451 $498 forward 7 unknown #
coedge $-1 $466 $383 $495 $499 forward $325 $-1 #
vertex $-1 $499 $500 #
point $-1 25 -20 50 #
face $-1 $-1 $496 $2 $-1 $501 reversed single #
loop $-1 $-1 $502 $387 #
plane-surface $-1 -50 0 0 1 0 0 0 0 -1 forward_v I I I I #
point $-1 -10 10 -30 #
edge $-1 $461 -16.5 $398 -10 $394 $428 forward 7 unknown #
vertex $-1 $472 $503 #
straight-curve $-1 -10 -16.5 16 0 0 -1 I I #
point $-1 -10 -10 -34 #
loop $-1 $-1 $504 $404 #
plane-surface $-1 0 0 -50 0 0 1 1 0 0 forward_v I I I I #
coedge $-1 $406 $453 $437 $482 forward $325 $-1 #
coedge $-1 $407 $505 $502 $506 reversed $233 $-1 #
coedge $-1 $447 $440 $407 $469 forward $405 $-1 #
edge $-1 $442 25 $507 50 $407 $508 forward 7 unknown #
straight-curve $-1 25 0 50 0 -1 0 I I #
coedge $-1 $412 $424 $411 $472 forward $82 $-1 #
edge $-1 $461 -0.785398163397448279 $414 0.785398163397448279 $471 $509 forward 7 unknown #
straight-curve $-1 0 -18 -34 -1 0 0 I I #
point $-1 -8.5 -18 -34 #
ellipse-curve $-1 -8.5 16.5 -34 0 0 1 -1.060660171779820082 1.060660171779820082 0 1 I I #
point $-1 -8.5 18 -34 #
point $-1 -10 16.5 -34 #
straight-curve $-1 -10 10 16 0 0 -1 I I #
straight-curve $-1 -10 16.5 16 0 0 1 I I #
cone-surface $-1 -8.5 16.5 16 0 0 -1 -1.060660171779820082 1.060660171779820082 0 1 I I 0 1 1.499999999999998224 forward I I I I #
coedge $-1 $505 $437 $510 $511 forward $233 $-1 #
edge $-1 $512 -50 $438 -25 $437 $508 forward 7 unknown #
point $-1 25 20 50 #
straight-curve $-1 -25 0 50 0 1 0 I I #
point $-1 -25 20 50 #
coedge $-1 $513 $504 $444 $487 forward $464 $-1 #
edge $-1 $497 -50 $490 50 $444 $514 forward 7 unknown #
coedge $-1 $502 $445 $447 $492 reversed $457 $-1 #
coedge $-1 $445 $502 $513 $515 reversed $457 $-1 #
vertex $-1 $515 $516 #
straight-curve $-1 -50 -20 0 0 0 -1 I I #
edge $-1 $507 -20 $448 20 $488 $517 forward 7 unknown #
point $-1 -50 -20 50 #
coedge $-1 $510 $451 $504 $518 reversed $496 $-1 #
coedge $-1 $451 $510 $453 $499 reversed $496 $-1 #
loop $-1 $-1 $451 $456 #
vertex $-1 $452 $519 #
straight-curve $-1 50 -20 0 0 0 -1 I I #
edge $-1 $454 -20 $512 20 $495 $520 forward 7 unknown #
point $-1 50 -20 50 #
plane-surface $-1 50 0 0 -1 0 0 0 -0 1 forward_v I I I I #
coedge $-1 $489 $488 $467 $506 forward $457 $-1 #
point $-1 -10 -16.5 -34 #
coedge $-1 $486 $521 $494 $518 forward $464 $-1 #
coedge $-1 $467 $481 $521 $522 reversed $233 $-1 #
edge $-1 $507 -50 $523 50 $467 $524 forward 7 unknown #
vertex $-1 $469 $525 #
straight-curve $-1 0 20 50 -1 0 0 I I #
ellipse-curve $-1 -8.5 -16.5 -34 0 0 1 -1.060660171779820082 -1.060660171779820082 0 1 I I #
coedge $-1 $495 $494 $481 $511 reversed $496 $-1 #
edge $-1 $512 -50 $526 50 $510 $527 forward 7 unknown #
vertex $-1 $499 $528 #
coedge $-1 $521 $486 $489 $515 forward $464 $-1 #
straight-curve $-1 0 -20 -50 -1 0 0 I I #
edge $-1 $490 -20 $523 20 $489 $529 forward 7 unknown #
point $-1 -50 -20 -50 #
straight-curve $-1 -50 0 50 0 -1 0 I I #
edge $-1 $526 -20 $497 20 $494 $530 forward 7 unknown #
point $-1 50 -20 -50 #
straight-curve $-1 50 0 50 0 1 0 I I #
coedge $-1 $504 $513 $505 $522 forward $464 $-1 #
edge $-1 $523 -50 $526 50 $505 $531 forward 7 unknown #
vertex $-1 $522 $532 #
straight-curve $-1 -50 20 0 0 0 -1 I I #
point $-1 -50 20 50 #
vertex $-1 $518 $533 #
straight-curve $-1 50 20 0 0 0 -1 I I #
point $-1 50 20 50 #
straight-curve $-1 -50 0 -50 0 1 0 I I #
straight-curve $-1 50 0 -50 0 -1 0 I I #
straight-curve $-1 0 20 -50 1 0 0 I I #
point $-1 -50 20 -50 #
point $-1 50 20 -50 #
End-of-ACIS-data 