  0
SECTION
  2
HEADER
  9
$ACADVER
  1
AC1009
  9
$INSBASE
 10
0.0
 20
0.0
 30
0.0
  9
$EXTMIN
 10
0.0
 20
0.0
 30
0.0
  9
$EXTMAX
 10
4.0
 20
4.0
 30
4.0
  9
$LIMMIN
 10
0.0
 20
0.0
  9
$LIMMAX
 10
12.0
 20
9.0
  9
$ORTHOMODE
 70
     0
  9
$REGENMODE
 70
     1
  9
$FILLMODE
 70
     1
  9
$QTEXTMODE
 70
     0
  9
$MIRRTEXT
 70
     1
  9
$DRAGMODE
 70
     2
  9
$LTSCALE
 40
1.0
  9
$OSMODE
 70
     0
  9
$ATTMODE
 70
     1
  9
$TEXTSIZE
 40
0.2
  9
$TRACEWID
 40
0.05
  9
$TEXTSTYLE
  7
STANDARD
  9
$CLAYER
  8
0
  9
$CELTYPE
  6
BYLAYER
  9
$CECOLOR
 62
   256
  9
$DIMSCALE
 40
1.0
  9
$DIMASZ
 40
0.18
  9
$DIMEXO
 40
0.0625
  9
$DIMDLI
 40
0.38
  9
$DIMRND
 40
0.0
  9
$DIMDLE
 40
0.0
  9
$DIMEXE
 40
0.18
  9
$DIMTP
 40
0.0
  9
$DIMTM
 40
0.0
  9
$DIMTXT
 40
0.18
  9
$DIMCEN
 40
0.09
  9
$DIMTSZ
 40
0.0
  9
$DIMTOL
 70
     0
  9
$DIMLIM
 70
     0
  9
$DIMTIH
 70
     1
  9
$DIMTOH
 70
     1
  9
$DIMSE1
 70
     0
  9
$DIMSE2
 70
     0
  9
$DIMTAD
 70
     0
  9
$DIMZIN
 70
     0
  9
$DIMBLK
  1

  9
$DIMASO
 70
     1
  9
$DIMSHO
 70
     1
  9
$DIMPOST
  1

  9
$DIMAPOST
  1

  9
$DIMALT
 70
     0
  9
$DIMALTD
 70
     2
  9
$DIMALTF
 40
25.4
  9
$DIMLFAC
 40
1.0
  9
$DIMTOFL
 70
     0
  9
$DIMTVP
 40
0.0
  9
$DIMTIX
 70
     0
  9
$DIMSOXD
 70
     0
  9
$DIMSAH
 70
     0
  9
$DIMBLK1
  1

  9
$DIMBLK2
  1

  9
$DIMSTYLE
  2
*UNNAMED
  9
$DIMCLRD
 70
     0
  9
$DIMCLRE
 70
     0
  9
$DIMCLRT
 70
     0
  9
$DIMTFAC
 40
1.0
  9
$DIMGAP
 40
0.09
  9
$LUNITS
 70
     2
  9
$LUPREC
 70
     4
  9
$SKETCHINC
 40
0.1
  9
$FILLETRAD
 40
0.0
  9
$AUNITS
 70
     0
  9
$AUPREC
 70
     0
  9
$MENU
  1
acad
  9
$ELEVATION
 40
0.0
  9
$PELEVATION
 40
0.0
  9
$THICKNESS
 40
0.0
  9
$LIMCHECK
 70
     0
  9
$BLIPMODE
 70
     1
  9
$CHAMFERA
 40
0.0
  9
$CHAMFERB
 40
0.0
  9
$SKPOLY
 70
     0
  9
$TDCREATE
 40
2449358.637347384
  9
$TDUPDATE
 40
2449358.640604734
  9
$TDINDWG
 40
0.0032573495
  9
$TDUSRTIMER
 40
0.0032573495
  9
$USRTIMER
 70
     1
  9
$ANGBASE
 50
0.0
  9
$ANGDIR
 70
     0
  9
$PDMODE
 70
     0
  9
$PDSIZE
 40
0.0
  9
$PLINEWID
 40
0.0
  9
$COORDS
 70
     1
  9
$SPLFRAME
 70
     0
  9
$SPLINETYPE
 70
     6
  9
$SPLINESEGS
 70
     8
  9
$ATTDIA
 70
     0
  9
$ATTREQ
 70
     1
  9
$HANDLING
 70
     1
  9
$HANDSEED
  5
61
  9
$SURFTAB1
 70
     6
  9
$SURFTAB2
 70
     6
  9
$SURFTYPE
 70
     6
  9
$SURFU
 70
     6
  9
$SURFV
 70
     6
  9
$UCSNAME
  2

  9
$UCSORG
 10
0.0
 20
0.0
 30
0.0
  9
$UCSXDIR
 10
1.0
 20
0.0
 30
0.0
  9
$UCSYDIR
 10
0.0
 20
1.0
 30
0.0
  9
$PUCSNAME
  2

  9
$PUCSORG
 10
0.0
 20
0.0
 30
0.0
  9
$PUCSXDIR
 10
1.0
 20
0.0
 30
0.0
  9
$PUCSYDIR
 10
0.0
 20
1.0
 30
0.0
  9
$USERI1
 70
     0
  9
$USERI2
 70
     0
  9
$USERI3
 70
     0
  9
$USERI4
 70
     0
  9
$USERI5
 70
     0
  9
$USERR1
 40
0.0
  9
$USERR2
 40
0.0
  9
$USERR3
 40
0.0
  9
$USERR4
 40
0.0
  9
$USERR5
 40
0.0
  9
$WORLDVIEW
 70
     1
  9
$SHADEDGE
 70
     3
  9
$SHADEDIF
 70
    70
  9
$TILEMODE
 70
     1
  9
$MAXACTVP
 70
    16
  9
$PINSBASE
 10
0.0
 20
0.0
 30
0.0
  9
$PLIMCHECK
 70
     0
  9
$PEXTMIN
 10
1.000000E+20
 20
1.000000E+20
 30
1.000000E+20
  9
$PEXTMAX
 10
-1.000000E+20
 20
-1.000000E+20
 30
-1.000000E+20
  9
$PLIMMIN
 10
0.0
 20
0.0
  9
$PLIMMAX
 10
12.0
 20
9.0
  9
$UNITMODE
 70
     0
  9
$VISRETAIN
 70
     0
  9
$PLINEGEN
 70
     0
  9
$PSLTSCALE
 70
     1
  9
$TREEDEPTH
 70
  3020
  9
$DWGCODEPAGE
  3
ascii
  0
ENDSEC
  0
SECTION
  2
TABLES
  0
TABLE
  2
VPORT
 70
     2
  0
VPORT
  2
*ACTIVE
 70
     0
 10
0.0
 20
0.0
 11
1.0
 21
1.0
 12
2.380438
 22
0.0
 13
0.0
 23
0.0
 14
1.0
 24
1.0
 15
0.0
 25
0.0
 16
1.0
 26
1.0
 36
1.0
 17
0.0
 27
0.0
 37
0.0
 40
6.531973
 41
1.594883
 42
50.0
 43
0.0
 44
0.0
 50
0.0
 51
0.0
 71
     0
 72
   100
 73
     1
 74
     1
 75
     0
 76
     0
 77
     0
 78
     0
  0
ENDTAB
  0
TABLE
  2
LTYPE
 70
     1
  0
LTYPE
  2
CONTINUOUS
 70
    64
  3
Solid line
 72
    65
 73
     0
 40
0.0
  0
ENDTAB
  0
TABLE
  2
LAYER
 70
     2
  0
LAYER
  2
0
 70
    64
 62
     7
  6
CONTINUOUS
  0
LAYER
  2
AME_FRZ
 70
    65
 62
     7
  6
CONTINUOUS
  0
ENDTAB
  0
TABLE
  2
STYLE
 70
     1
  0
STYLE
  2
STANDARD
 70
     0
 40
0.0
 41
1.0
 50
0.0
 71
     0
 42
0.2
  3
txt
  4

  0
ENDTAB
  0
TABLE
  2
VIEW
 70
     0
  0
ENDTAB
  0
TABLE
  2
UCS
 70
     0
  0
ENDTAB
  0
TABLE
  2
APPID
 70
     3
  0
APPID
  2
ACAD
 70
    64
  0
APPID
  2
AME_SOL
 70
    64
  0
APPID
  2
AVE_INVOKE
 70
    64
  0
ENDTAB
  0
TABLE
  2
DIMSTYLE
 70
     0
  0
ENDTAB
  0
ENDSEC
  0
SECTION
  2
BLOCKS
  0
BLOCK
  8
0
  5
1
  2
AME_NIL
 70
    64
 10
0.0
 20
0.0
 30
0.0
  1
AME_NIL
  3
AME_NIL
  0
ENDBLK
  8
0
  5
2
  0
BLOCK
  8
0
  5
4
  2
AME_SOL
 70
    64
 10
0.0
 20
0.0
 30
0.0
  1
AME_SOL
  3
AME_SOL
  0
ENDBLK
  8
0
  5
5
  0
BLOCK
  8
0
  5
37
  2
*U5
 70
    65
 10
0.0
 20
0.0
 30
0.0
  1
*U
  3
*U
  0
LINE
  8
0
 62
     7
  5
38
 10
4.0
 20
4.0
 30
0.0
 11
4.0
 21
4.0
 31
4.0
1001
AME_SOL
1070
     1
1071
       33
  0
LINE
  8
0
 62
     7
  5
39
 10
4.0
 20
4.0
 30
4.0
 11
4.0
 21
0.0
 31
4.0
1001
AME_SOL
1070
     1
1071
       32
  0
LINE
  8
0
 62
     7
  5
3A
 10
3.0
 20
4.0
 30
4.0
 11
4.0
 21
4.0
 31
4.0
1001
AME_SOL
1070
     1
1071
       31
  0
LINE
  8
0
 62
     7
  5
3B
 10
0.0
 20
4.0
 30
4.0
 11
1.0
 21
4.0
 31
4.0
1001
AME_SOL
1070
     1
1071
       30
  0
LINE
  8
0
 62
     7
  5
3C
 10
0.0
 20
4.0
 30
0.0
 11
0.0
 21
4.0
 31
4.0
1001
AME_SOL
1070
     1
1071
       29
  0
LINE
  8
0
 62
     7
  5
3D
 10
0.0
 20
4.0
 30
4.0
 11
0.0
 21
0.0
 31
4.0
1001
AME_SOL
1070
     1
1071
       28
  0
LINE
  8
0
 62
     7
  5
3E
 10
0.0
 20
0.0
 30
0.0
 11
0.0
 21
0.0
 31
4.0
1001
AME_SOL
1070
     1
1071
       27
  0
LINE
  8
0
 62
     7
  5
3F
 10
4.0
 20
0.0
 30
4.0
 11
4.0
 21
0.0
 31
0.0
1001
AME_SOL
1070
     1
1071
       26
  0
LINE
  8
0
 62
     7
  5
40
 10
0.0
 20
0.0
 30
4.0
 11
4.0
 21
0.0
 31
4.0
1001
AME_SOL
1070
     1
1071
       25
  0
LINE
  8
0
 62
     7
  5
41
 10
0.0
 20
0.0
 30
0.0
 11
4.0
 21
0.0
 31
0.0
1001
AME_SOL
1070
     1
1071
       24
  0
LINE
  8
0
 62
     7
  5
42
 10
0.0
 20
4.0
 30
0.0
 11
0.0
 21
0.0
 31
0.0
1001
AME_SOL
1070
     1
1071
       23
  0
LINE
  8
0
 62
     7
  5
43
 10
4.0
 20
0.0
 30
0.0
 11
4.0
 21
4.0
 31
0.0
1001
AME_SOL
1070
     1
1071
       22
  0
LINE
  8
0
 62
     7
  5
44
 10
1.0
 20
4.0
 30
0.0
 11
0.0
 21
4.0
 31
0.0
1001
AME_SOL
1070
     1
1071
       21
  0
LINE
  8
0
 62
     7
  5
45
 10
4.0
 20
4.0
 30
0.0
 11
3.0
 21
4.0
 31
0.0
1001
AME_SOL
1070
     1
1071
       20
  0
LINE
  8
0
 62
     7
  5
46
 10
3.0
 20
4.0
 30
0.0
 11
3.0
 21
2.0
 31
0.0
1001
AME_SOL
1070
     1
1071
       19
  0
LINE
  8
0
 62
     7
  5
47
 10
3.0
 20
4.0
 30
4.0
 11
3.0
 21
4.0
 31
0.0
1001
AME_SOL
1070
     1
1071
       18
  0
LINE
  8
0
 62
     7
  5
48
 10
3.0
 20
2.0
 30
4.0
 11
3.0
 21
4.0
 31
4.0
1001
AME_SOL
1070
     1
1071
       17
  0
LINE
  8
0
 62
     7
  5
49
 10
1.0
 20
2.0
 30
0.0
 11
1.0
 21
4.0
 31
0.0
1001
AME_SOL
1070
     1
1071
       16
  0
LINE
  8
0
 62
     7
  5
4A
 10
1.0
 20
4.0
 30
0.0
 11
1.0
 21
4.0
 31
4.0
1001
AME_SOL
1070
     1
1071
       15
  0
LINE
  8
0
 62
     7
  5
4B
 10
1.0
 20
4.0
 30
4.0
 11
1.0
 21
2.0
 31
4.0
1001
AME_SOL
1070
     1
1071
       14
  0
ARC
  8
0
 62
     7
  5
4C
 10
2.0
 20
2.0
 30
0.0
 40
1.0
 50
180.0
 51
0.0
1001
AME_SOL
1070
     1
1071
       13
  0
LINE
  8
0
 62
     7
  5
4D
 10
1.0
 20
2.0
 30
0.0
 11
1.0
 21
2.0
 31
4.0
1001
AME_SOL
1070
     1
1071
       12
  0
ARC
  8
0
 62
     7
  5
4E
 10
2.0
 20
2.0
 30
4.0
 40
1.0
 50
180.0
 51
0.0
1001
AME_SOL
1070
     1
1071
       11
  0
LINE
  8
0
 62
     7
  5
4F
 10
3.0
 20
2.0
 30
0.0
 11
3.0
 21
2.0
 31
4.0
1001
AME_SOL
1070
     1
1071
       10
  0
LINE
  8
0
 62
     7
  5
50
 10
1.0
 20
2.0
 30
0.0
 11
1.0
 21
2.0
 31
4.0
1001
AME_SOL
1070
     0
1071
        1
  0
LINE
  8
0
 62
     7
  5
51
 10
2.0
 20
1.0
 30
0.0
 11
2.0
 21
1.0
 31
4.0
1001
AME_SOL
1070
     0
1071
        1
  0
LINE
  8
0
 62
     7
  5
52
 10
3.0
 20
2.0
 30
0.0
 11
3.0
 21
2.0
 31
4.0
1001
AME_SOL
1070
     0
1071
        1
  0
ENDBLK
  8
0
  5
53
  0
BLOCK
  8
0
  5
57
  2
AME_JNK
 70
     0
 10
0.0
 20
0.0
 30
0.0
  1
AME_JNK
  3
AME_JNK
  0
ENDBLK
  8
0
  5
58
  0
BLOCK
  8
0
  5
5E
  2
AME_MAT
 70
    64
 10
0.0
 20
0.0
 30
0.0
  1
AME_MAT
  3
AME_MAT
  0
ENDBLK
  8
0
  5
5F
  0
ENDSEC
  0
SECTION
  2
ENTITIES
  0
INSERT
  8
AME_FRZ
  5
3
  2
AME_NIL
 10
0.0
 20
0.0
 30
0.0
  0
INSERT
  8
AME_FRZ
  5
6
  2
AME_SOL
 10
0.0
 20
0.0
 30
0.0
1001
AME_SOL
1000
R2.1
1000
AME2
1000
sq cm
1070
     3
1070
     0
1070
     3
1000
wire
1040
45.0
1000
U
1040
1.0
1000
cm
1000
gm
1000
MILD_STEEL
1070
    25
1000
CSG
1070
     1
1070
     3
1070
     3
1070
     3
1070
     0
1000
cu cm
1070
     1
1070
     0
1005
3
  0
INSERT
  8
AME_FRZ
  5
15
  2
AME_NIL
 10
0.0
 20
0.0
 30
0.0
1001
AME_SOL
1002
{
1070
     1
1071
  2388864
1070
  1536
1070
     1
1010
4.0
1020
4.0
1030
4.0
1005
0
1005
0
1005
54
1040
0.0
1040
1.0
1070
     0
1000
MILD_STEEL
1000
0
1010
0.0
1020
0.0
1030
0.0
1010
0.0
1020
0.0
1030
1.0
1040
0.0
1002
}
1001
AVE_INVOKE
1000
SOLAVEMESH
  0
INSERT
  8
AME_FRZ
  5
26
  2
AME_NIL
 10
1.0
 20
2.0
 30
0.0
1001
AME_SOL
1002
{
1070
     1
1071
  2403536
1070
  1536
1070
     1
1010
2.0
1020
2.0
1030
4.0
1005
0
1005
0
1005
35
1040
0.0
1040
1.0
1070
     0
1000
MILD_STEEL
1000
0
1010
1.0
1020
2.0
1030
0.0
1010
0.0
1020
0.0
1030
1.0
1040
0.0
1002
}
1001
AVE_INVOKE
1000
SOLAVEMESH
  0
INSERT
  8
AME_FRZ
  5
32
  2
AME_NIL
 10
2.0
 20
2.0
 30
0.0
1001
AME_SOL
1002
{
1070
     1
1071
  2420512
1070
  1538
1070
     1
1010
1.0
1020
1.0
1030
4.0
1005
0
1005
0
1005
35
1040
0.0
1040
1.0
1070
     0
1000
MILD_STEEL
1000
0
1010
2.0
1020
2.0
1030
0.0
1010
0.0
1020
0.0
1030
1.0
1040
0.0
1002
}
1001
AVE_INVOKE
1000
SOLAVEMESH
  0
INSERT
  8
AME_FRZ
  5
35
  2
AME_NIL
 10
0.0
 20
0.0
 30
0.0
1001
AME_SOL
1002
{
1070
     1
1071
  2442584
1070
   775
1070
     0
1070
     2
1005
26
1005
32
1005
0
1005
0
1005
54
1040
0.0
1040
1.0
1070
     0
1000
MILD_STEEL
1000
0
1010
0.0
1020
0.0
1030
0.0
1010
0.0
1020
0.0
1030
1.0
1040
0.0
1002
}
  0
INSERT
  8
0
  5
54
  2
*U5
 10
0.0
 20
0.0
 30
0.0
1001
AME_SOL
1002
{
1070
     1
1071
  2428920
1070
  1543
1070
     1
1070
     0
1005
15
1005
35
1005
0
1005
55
1005
0
1040
0.0
1040
1.0
1070
     0
1000
MILD_STEEL
1000
0
1002
}
1001
AVE_INVOKE
1000
SOLAVEMESH
  0
INSERT
  8
AME_FRZ
  5
55
  2
AME_NIL
 10
1.0
 20
1.0
 30
1.0
1001
AME_SOL
1004
C7CF0100DF006F016E016C016801FF00610156014A013B012A01D900D600B000C000A000570118004B013C012B014800D8002C011F0107000900200114002D00A40069016201020058010500280063015901FE004C013D012D01F800CE000F003E012E01210117010E01A300520003001801B8000F01A700
1004
F700F60084003F006D016A0164015A014D0196003F01EE002F010C0015004E01750040014E0030017F0070005B01BF004F014101D700AF004201ED00F300650140005C01500143013101BC00FB0032017900250044013301E4006800340182002201FC00DF0024006B0166015D0151014501F50050004601
1004
080035015B005F0001005E01520147013601EF0023010400EB0037012401E70019015400210025011A014D00D1001B01440010015800010100016F000600F00067015F0153014801380126011C0111010201FA00F90003016C0019001201040126002700050129002A001D01130106012C002F000701E800
1004
8800140108019100DC0009013800D40027011E0115010A019400D0000B015C00B70016010C01980059000D01AA00A900F2006000A80010006001540149013901C300AE003A0128018300EA0029019200E0008000550174000A000000794D8BCA6C5C2EB166B700066C26CE3AD9E42C530067C910B14C019F
1004
2442C530067C93F72076A53AA7EE40ED4A754FDC81DA94EA99EB170DA288A449A531A071148934A6340E42C530067C921D8411C867EC4A43B082390CFD894FDC81DA94EA99BCA8C3936AF00D9B8259DE546FF6CFFFFFFFFB67FFFEAFEAFF2BFB67FDB3FFFFFFBCA8DFED9FFFFFFFF6CFFFFD5FD5FE57F6CF
1004
FB67FFFFFDB49A63CBE8117FB67FFFFFFFDB3FFB6000000767EC4AFF258CB05A2C96C8F5AADEC6582D164B647AD58ECFF698F2B3D022FF6CFFFFFFFFB67FF67EC4AFEAFF258CB05A2C96C8F5AADEC6582D164B647AD58FFE4EC6582D164B647AD56FFFFDD531960B4592D91EB563B3FFFF7544B4D3001A7E
1004
60033FFFF754D31E527408BFDB3FFFFFFFED9FFDB0000003FED9FFC9632C168B25B23D6AB7B1960B4592D91EB563FF93B1960B4592D91EB55BFFFF754C6582D164B647AD58ECFFFFDD512D34C0069A60033FFFF754D31E5363D022FF6CFFFFFFFFB67FFFDB3BBFABFC9632C168B25B23D6AB7B1960B4592D
1004
91EB563FF93B1960B4592D91EB55BFFFF754C6582D164B647AD58ECFFFFDD512E023001A69800CFFFFDD52C5C368A22912694C681C40C766D234607216298033E48B14C018766CEFDC81DA94EA9FB903B529D53337461110AF00D9B8419CDD1BFFFFFDB3FFFED9FFFF6CFFD5FE57FFFFFFFFFCDD1BFFFFFD
1004
B3FFFED9FFFF6CFFD5FE57FFFFFFFFF6D258B86D153936F53D807450818ECDA468C0E42C530067C921D8411C867EC4A7EE40ED4A754FDC81DA94EA999BA31A1E2BC0366E0C673746FFBDFDB4BFBDFEF7FBDFDB4BF6257EEABF75457FFFFFFFFFCDD1BFEF7F6D2FEF7FBDFEF7F6D267EC4AFDD57EEA8AFFFF
1004
FFFFFEDA4B170D8A42C530067C910B14C019F2442C530067C93F72076A53AA7EE40ED4A75442C530067C7666E8CC2F05ECF66E00673746FFFF6CFFFFB67FFFFFFFFFF2BFFFFFFFFFE6E8DFFFED9FFFF6CFFFFFFFFFFE57FFFFFFFFF6CEB170DA290B14C019F2442C530067C910B14C019F24FDC81DA94EA8
1004
858A600CF8EFDC81DA94EA999BA33CEF22F67B3700B39BA37FB67FFFFFFFFFDB3FFFFFF95FFFFFFFFFF3746FF6CFFFFFFFFFFB67FFFFFF2BFFFFFFFFFB6758B86D14858A600CF92216298033E48858A600CF92216298033E3BF72076A53AA7EE40ED4A754CCDD1870F32F67B334339BA37FFFFFB67FFFDB3
1004
FFFFFFFF95FFFFFFFFFF3746FFFFFF6CFFFFB67FFFFFFFF2BFFFFFFFFFB6758B86C5216298033E48858A600CF924E4DBD4F603553F72076A53AA7EE40ED4A754FDC81DA94EA999BA3388F5ECF666CECE6E8DFEDA5FDEFF7BFDEFEDA5FDEFEEABF755FBAA2BFFFFFFFFFE6E8DFEDA5FDEFF7BFDEFEDA5FDEF
1004
EEABF755FBAA2BFFFFFFFFFB6758B86C5216298033E493936F53D80D5442C530067C93F72076A53AA7EE40ED4A754FDC81DA94EA999BA338A62F67B336B39BA37FDEFF7BFB697EDA5FDEFF7BFBAAFDD57EEA8AFFFFFFFFFF9BA37FDEFF7BFB697EDA5FDEFF7BFBAAFDD57EEA8AFFFFFFFFFED9D62E1B454E
1004
4DBD4F6035510B14C019F2442C530067C93F72076A53AA7EE40ED4A754FDC81DA94EA999BA30978AF67B360673746FFBDFDB4BFBDFEF7FBDFDB4BF755FBAAFDD515FFFFFFFFFF3746FFBDFDB4BFBDFEF7FBDFDB4BF755FBAAFDD515FFFFFFFFFDB38F424E4DBD4F601D142063B3691A30390B14C019F2487
1004
61047219FB1290EC208E433F6253F72076A53AAFFFDD5128111B2706AF6600CC726D5E6878AFC91C9B579A1E2BC00000001022FF6CFFFFFFFFB67FF67EC4AFEAFF27FFF7543D0845224D298D0388A449A531A074E4DBD4F6035521D8411C867EC4A43B082390CFD894FDC81DA94EA8B1DDA734A58B4B1D44
1004
FF92B7228F59F66003936AF711EBF25C47AF1C9B57B3C00016E45FED9FFFFFFFF6CFFFFD5FD5FBAA68BFB67FDB3963BB4E694B16963A89FF1E8422912694C681C40C766D234607216298033E48B14C018766CE8761047219FB129FB903B529D57FFEEA894089C22205ECD9800E4DABC4442BF244442BC726
1004
D5E000000008117FB67FFFFFFFDB3FFFED9FFABFC9FFFDD50F421148934A6340E22912694C681C858A600CF9243B082390CFD8948761047219FB128858A600CF8E58EED39A52C5A58EA27FC95B913936659F00663936AF61782FC91C9B57B0BC17800033D6E45FED9FFFFFFFF6CFFFFD5FD5FED17F6CFFB6
1004
72C7769CD2962D2C7513FE3D0845224D298D038818ECDA468C0E9C9B7A9EC06AA2C530061D9B3BF72076A53AA7EE40ED4A754600000341227DB3928111A1E0BF660022215EE23D7E4B88F5E22215ECF0000408BFFFFFDB3FEDA5FFFE600000340ECFD895FBAA24C0000068244FB671E8422912694C681D39
1004
36F53D80D5442C530067C916298030ECD9DFB903B529D53F72076A53AAFE27FA89408AE135FB3001110AF714C5F92E298BC4442BD9E00008117FFFB67FFFDB4BFFFFF6CFFBAAFEA27F89FEA1E8422912694C681C40C766D234607216298033E48B14C018766CEFDC81DA94EA8858A600CF8FFB6767EC4A25
1004
0227AE0F5FB3001110AF61782FC961782F1110AF6780002045FFFFFEDA5FB697FFFFED9FF6CFFE4FED9D9FB1287A12726DEA7B00E8A1031D9B48D181D3936F53D80D548761047219FB129FB903B529D53F72076A53AAFE27FBD2502270A38597ECC00D0F15EE23D7E4B88F5E6878AF6780002045FFFFFED9
1004
FF6CFFFFECFD895FBAAFDD513FC4FF7A3D093936F53D807452726DEA7B01AA8858A600CF9243B082390CFD894FDC81DA94EA9FB903B529D57FFEEA8940884ADCBF66006878AF714C5F92E298BCD0F15ECF0000408BFFFDB3FFFED9FFBDFF67EC4AFDD57EEA89FFFDD50F424E4DBD4F601D142063B3691A30
1004
390B14C019F248761047219FB129FB903B529D510B14C019F1FF89FEF494089D2967D9801A1E2BD85E0BF2585E0BCD0F15ECF0000408BFFFFFDB4BF6CFFFFECFD895FD5FE4FF13FDE8F42216298033E493936F53D80D5442C530067C93F72076A53AA7EE40ED4A75442C530067C7FE249F6D2250222CDABF
1004
0066C2F05EE298BF2585E0BDC5317B3D9E8117FFFB67FFFFFFFDB4BFABF755FE4FF124FB690F42216298033E493936F53D80D5442C530067C93F72076A53AA7EE40ED4A75442C530067C7FDB3FF5128113936AFC019B0BC17B8A62FC961782F714C5ECF67A045FFFED9FFFFFFFF6D2FEAFDD57F93FB67FEA
1004
1E849C9B7A9EC06AA216298033E48858A600CF927EE40ED4A754FDC81DA94EA8858A600CF8FFC4FF5128111B23605F803361782F12F15F92C2F05E25E2BD9ECF408BFDB3FFFFFFFFFEDA5FBAAFEAFF27F89FEA1E8442C530067C910B14C019F2442C530067C910B14C019F1DFB903B529D510B14C019F1FF
1004
744FF7A4A0445B81167C019B0BC178E1E65F92C2F05E387997B3D9E8117FB697FFFFFFFFEDA5FFFFFE4FEE89FEF47A110B14C019F2442C530067C910B14C019F24FDC81DA94EA8858A600CF8E42C530067C7FFFDD51281134F381567C019B0BC17BCEF22FC961782F79DE45ECF67A045FFFEDA5FFFFFFFB6
1004
97FFFFF93FFFBAA1E8442C530067C910B14C019F249C9B7A9EC06AA7EE40ED4A75442C530067C77EE40ED4A755FC4FF512811382CB59F0066F3BC8BDC47AFC979DE45EE23D7B3D9E8117FFFFFB67FFFDB4BFFFABFFF7544FF13FD43D093936F53D80D5442C530067C910B14C019F24FDC81DA94EA8858A60
1004
0CF8EFDC81DA94EABF89FEA25022364E0659F0066F3BC8BC4BC57E4BCEF22F12F15ECF67A045FED9FFFFFFFF6D2FFFDD57FFF513FC4FF50F42216298033E48858A600CF92216298033E48858A600CF8E42C530067C77EE40ED4A755FFFBAA25022705381D67C019BCEF22F1C3CCBF25E779178E1E65ECF67
1004
A045FEDA5FFFFFFFB697FFFFFFF93FFFBAA1E8442C530067C910B14C019F249C9B7A9EC06AA216298033E3BF72076A53AA7EE40ED4A755FC4FF5128110CE0859F0066387997B88F5F92387997B88F5ECF67A045FFFFFED9FF6D2FFFFFFFEAFDD513FC4FF50F42216298033E493936F53D80D5442C530067C
1004
910B14C019F1DFB903B529D53F72076A53AAFE27FA894088703BACF80331C3CCBDC5317E48E1E65EE298BD9ECF408BFFFDB3FFFEDA5FFFFFFFBAAFEA27F89FEA1E8442C530067C92726DEA7B01AA93936F53D80D54FDC81DA94EA9FB903B529D53F72076A53AAFDD12CFD884928113969E59F0066E23D7B8
1004
A62FC9711EBDC5317B3D9E8117FFFB67FFFFFFFDB3FEEABF755FBAA27F744B3F62123D08858A600CF924E4DBD4F603552726DEA7B01AA9FB903B529D53F72076A53AA7EE40ED4A7546000003412FEF49408872E1559F0066E23D7B8A62FC9711EBDC5317B3D9E8117FFFB67FFFFFFFDB3FEEABF755FBAA24
1004
C000006825FDE8F424E4DBD4F6035510B14C019F249C9B7A9EC06AA7EE40ED4A754FDC81DA94EA9FB903B529D57FFEEA894089898CB3E00CDC47AF12F15F92E23D78978AF67B3D022FF6CFFFFFFDEFFFED9FF755FBAAFDD513FFFBAA1E849C9B7A9EC06AA4E4DBD4F6035510B14C019F24FDC81DA94EA9FB
1004
903B529D53F72076A53AAFDD13FDE928113839C24B3E00CDC53178978AFC9714C5E25E2BD9ECF408BFDB3FFFFFFFED9FFFF755FBAAFDD513FBA27FBD701ADCD3EB
1005
56
  0
INSERT
  8
AME_FRZ
  5
56
  2
AME_NIL
 10
1.0
 20
1.0
 30
1.0
1001
AME_SOL
1004

1005
0
  0
INSERT
  8
AME_FRZ
  5
5A
  2
AME_NIL
 10
0.0
 20
0.0
 30
0.0
1001
AME_SOL
1002
{
1070
     1
1071
  2389808
1070
   512
1070
     0
1010
1.0
1020
1.0
1030
4.0
1005
0
1005
0
1005
0
1040
0.0
1040
1.0
1070
     0
1000
MILD_STEEL
1000
0
1002
}
1001
AVE_INVOKE
1000
SOLAVEMESH
  0
INSERT
  8
AME_FRZ
  5
5B
  2
AME_NIL
 10
0.0
 20
1.0
 30
0.0
1001
AME_SOL
1002
{
1070
     1
1071
  2455552
1070
   512
1070
     0
1010
1.0
1020
1.0
1030
4.0
1005
0
1005
0
1005
0
1040
0.0
1040
1.0
1070
     0
1000
MILD_STEEL
1000
0
1002
}
1001
AVE_INVOKE
1000
SOLAVEMESH
  0
INSERT
  8
AME_FRZ
  5
5C
  2
AME_NIL
 10
0.0
 20
2.0
 30
0.0
1001
AME_SOL
1002
{
1070
     1
1071
  2481248
1070
   512
1070
     0
1010
1.0
1020
1.0
1030
4.0
1005
0
1005
0
1005
0
1040
0.0
1040
1.0
1070
     0
1000
MILD_STEEL
1000
0
1002
}
1001
AVE_INVOKE
1000
SOLAVEMESH
  0
INSERT
  8
AME_FRZ
  5
5D
  2
AME_NIL
 10
0.0
 20
3.0
 30
0.0
1001
AME_SOL
1002
{
1070
     1
1071
  2478928
1070
   512
1070
     0
1010
1.0
1020
1.0
1030
4.0
1005
0
1005
0
1005
0
1040
0.0
1040
1.0
1070
     0
1000
MILD_STEEL
1000
0
1002
}
1001
AVE_INVOKE
1000
SOLAVEMESH
  0
INSERT
  8
AME_FRZ
  5
60
  2
AME_MAT
 10
0.0
 20
0.0
 30
0.0
1001
AME_SOL
1000
MILD_STEEL
1040
7860.0
1040
220.0
1040
0.275
1040
207.0
1040
345.0
1040
56.0
1040
12.0
1040
0.46
  0
ENDSEC
  0
EOF
