**ABCDEFGHIJKLMNOPQRSTUVWXYZabcdefghijklmnopqrstuvwxyz**************************
**PARASOLID !"#$%&'()*+,-./:;<=>?@[\]^_`{|}~0123456789**************************
**PART1;
MC=unknown;
MC_MODEL=unknown;
MC_ID=unknown;
OS=WindowsNT;
OS_RELEASE=4.0;
FRU=unknown;
APPL=IronCAD;
SITE=Visionary Design Systems Inc, Atlanta, GA;
USER=Ratnakars;
FORMAT=text;
GUISE=transmit;
KEY=D:\ICS3\chamber;
FILE=D:\ICS3\chamber.X_T;
DATE=unknown;
**PART2;
SCH=SCH_1100129_11004;
USFLD_SIZE=0;
**PART3;
**END_OF_HEADER*****************************************************************
T51 : TRANSMIT FILE created by modeller version 110012917 SCH_1100129_110040 12
 1 1841 0 0 0 0 0 0 1e3 1e-8 0 2 0 1 0 1 1 3 4 5 6 7 8 9 13 3 457 0 1 0 10 0 0 1
1 0 59 4 1522 0 1 12 0 13 +0 14 38 5 1521 0 8 15 0 0 +4 16 17 18 18 29 6 1227 0
 9 19 0 .0300861220230549 -.0656256540198947 .0905517690619622 19 7 841 0 1 11 0
 20 V16 8 1518 0 ?21 0 22 5 0 0 1 18 9 1225 0 23 0 24 6 ?1 17 23 0 25 26 27 9 28
 29 0 30 +18 24 1078 0 31 9 32 19 ?1 17 31 0 33 34 35 24 36 37 0 38 -18 32 1075
 0 39 24 40 41 ?1 29 19 1080 0 24 41 6 .03414546313796685 -.0926567749763231 .06
82792066728726 29 41 1077 0 32 42 19 .00838976427088559 -.0643970667133011 .0965
389149358945 29 42 1074 0 40 43 41 .00838976427088563 -.0926567749763231 .068279
2066728725 18 40 1072 0 34 32 44 42 ?1 29 43 787 0 44 45 42 .0885304315527972 -.
082632644729221 .0158434413453121 18 44 785 0 46 40 47 43 ?1 29 45 784 0 47 48 4
3 .0885304315527973 -.00960307535163638 .01584344134531205 18 47 782 0 49 44 50
 45 ?1 29 48 781 0 50 51 45 .1091705390248322 -.00960307535163638 .0158434413453
1205 18 50 779 0 52 47 53 48 ?1 29 51 778 0 53 54 48 .1091705390248322 -.0826326
44729221 .01584344134531205 18 53 776 0 55 50 56 51 ?1 29 54 765 0 56 57 51 .113
1310131180424 -.0614366860952471 .002404479535336345 18 56 763 0 58 53 59 54 ?1
 29 57 759 0 59 60 54 .0845699574595871 -.0307990339856103 .00240447953533636 18
 59 757 0 61 56 62 57 ?1 29 60 18 0 62 63 57 .00838976427088557 -.06422499965103
28 .105078412242203 18 62 15 0 64 59 65 60 ?1 29 63 13 0 65 66 60 .0083897642708
8564 -.1011962722826314 .0681071396106039 18 65 10 0 67 62 68 63 ?1 29 66 8 0 68
 69 63 .00838976427088564 -.1008974268632292 .0657543346005579 18 68 5 0 70 65 7
1 66 ?1 29 69 4 0 71 72 66 .00838976427088557 -.0618721946409853 .10477956682280
1 18 71 2 0 73 68 74 69 ?1 29 72 353 0 74 75 69 .00538976427088557 -.06422499965
10328 .105078412242203 18 74 320 0 76 71 77 72 ?1 29 75 354 0 77 78 72 .00538976
427088564 -.1011962722826314 .0681071396106039 18 77 321 0 79 74 80 75 ?1 29 78
 355 0 80 81 75 .00538976427088564 -.1008974268632292 .0657543346005579 18 80 32
2 0 82 77 83 78 ?1 29 81 356 0 83 84 78 .00538976427088557 -.0618721946409853 .1
04779566822801 18 83 323 0 85 80 86 81 ?1 29 84 742 0 86 87 81 .0918291449876833
 -.1002869436504156 .01584344134531215 18 86 689 0 88 83 89 84 ?1 29 87 744 0 89
 90 84 .0918291449876834 .00805122356955824 .01584344134531215 18 89 693 0 91 86
 92 87 ?1 29 90 745 0 92 93 87 .1058718255899462 .00805122356955824 .01584344134
531215 18 92 695 0 94 89 95 90 ?1 29 93 747 0 95 96 90 .1058718255899462 -.10028
69436504156 .01584344134531215 18 95 699 0 97 92 98 93 ?1 29 96 748 0 98 99 93 .
0918291449876833 -.1002869436504156 .00240447953533644 18 98 701 0 100 95 101 96
 ?1 29 99 750 0 101 102 96 .0918291449876834 .00805122356955824 .002404479535336
42 18 101 705 0 103 98 104 99 ?1 29 102 751 0 104 105 99 .1058718255899462 .0080
5122356955824 .002404479535336415 18 104 707 0 106 101 107 102 ?1 29 105 753 0 1
07 108 102 .1058718255899462 -.1002869436504156 .002404479535336435 18 107 711 0
 109 104 110 105 ?1 29 108 933 0 110 111 105 .0845699574595871 -.061436686095247
1 .00240447953533637 18 110 871 0 112 107 113 108 ?1 29 111 937 0 113 114 108 .1
131310131180424 -.0307990339856103 .00240447953533634 18 113 873 0 115 110 116 1
11 ?1 29 114 1187 0 116 117 111 .03377361086509415 -.0643970667133011 .096538914
9358945 18 116 1129 0 35 113 118 114 ?1 29 117 1411 0 119 120 114 .0302486697052
4395 -.0664005808411582 .0912869378486667 18 119 1343 0 121 122 123 117 ?1 29 12
0 1412 0 124 125 117 .0301001540550179 -.0660667947052295 .091449246141993 18 12
4 1341 0 28 123 126 120 ?1 29 125 1414 0 123 127 120 .0303882297184722 -.0866696
291023908 .0695077939794662 18 123 1337 0 128 119 124 125 ?1 29 127 1415 0 126 1
29 125 .03040543459551795 -.08757077952599 .0699413005123433 18 126 1335 0 130 1
24 131 127 ?1 29 129 1416 0 118 132 127 .03054901935215075 -.0874047978890953 .0
702827208007297 18 118 1333 0 133 116 134 129 ?1 29 132 1417 0 134 135 129 .0309
11445632612 -.0903249968300602 .0733608445237498 18 134 1331 0 136 118 122 132 ?
1 29 135 1418 0 122 137 132 .03061597984206365 -.0694787045641784 .0942071367896
317 18 122 1329 0 138 134 119 135 ?1 29 137 1419 0 131 139 135 .0053897642708856
 -.0874047978890953 .0702827208007296 18 131 1325 0 140 126 141 137 ?1 29 139 14
20 0 141 142 137 .00538976427088559 -.0903249968300603 .0733608445237498 18 141
 1327 0 143 131 144 139 ?1 29 142 1421 0 144 145 139 .00538976427088556 -.065625
6540198948 .0905517690619622 18 144 1319 0 146 141 147 142 ?1 29 145 1422 0 147
 148 142 .00538976427088556 -.0694787045641784 .0942071367896317 18 147 1345 0 1
49 144 150 145 ?1 29 148 1423 0 150 151 145 .00538976427088556 -.066400580841158
2 .0912869378486667 18 150 1315 0 152 147 153 148 ?1 29 151 1424 0 153 154 148 .
0053897642708856 -.0866696291023908 .0695077939794662 18 153 1321 0 155 150 156
 151 ?1 29 154 1425 0 156 157 151 .00538976427088556 -.0660667947052296 .0914492
46141993 18 156 1317 0 158 153 159 154 ?1 29 157 1426 0 159 0 154 .0053897642708
856 -.08757077952599 .0699413005123432 18 159 1323 0 160 156 0 157 ?1 17 160 0 1
61 162 130 159 163 164 0 165 +15 161 1364 0 162 166 0 17 162 0 161 167 160 131 1
68 169 0 170 +17 130 0 161 160 167 126 171 172 0 163 -17 163 0 173 128 165 126 1
60 164 0 174 -16 164 1285 0 ?160 175 176 177 0 0 1 17 165 0 173 163 155 159 178
 179 0 168 -15 173 1361 0 165 180 0 17 155 0 173 165 128 153 181 175 0 178 +17 1
78 0 182 183 168 153 165 179 0 184 +16 179 1283 0 ?178 185 186 187 0 0 1 17 168
 0 182 178 170 159 162 169 0 0 -15 182 1094 0 183 188 0 17 170 0 182 168 189 131
 190 191 0 0 -16 169 1309 0 ?162 191 192 193 192 192 1 16 191 1311 0 ?190 194 16
9 195 0 0 1 16 192 1303 0 ?196 169 185 193 169 169 1 31 193 1410 0 169 197 198 0
 -.0053897642708856 -.0461178600404286 .05 1 555111512312578e-30 116573417585641
4e-30 555111512312578e-30 -1 -555111512312578e-31 .046 31 197 1466 0 186 199 193
 0 +.0882923009219075 -.03653843860248265 .1228753074966332 162370117351429e-29
 .1303283350959732 .99147088967408 .969019344812989 .244878275414617 -.032189122
51317115 .0075 30 198 1409 0 185 193 187 0 +.00538976427088556 -.066066794705229
6 .091449246141993 851127537406181e-30 .441125199148154 -.897445574214114 16 185
 1305 0 ?146 192 179 198 0 0 1 30 187 1408 0 179 198 200 0 +.0053897642708856 -.
08757077952599 .0699413005123432 2917885307279825e-32 .901150423599157 -.4335065
328770265 30 200 1407 0 194 187 195 0 +.00538976427088556 -.0656256540198948 .09
05517690619622 -437805913659824e-30 -.725472204779346 .688251465739518 16 194 12
67 0 ?201 202 191 200 0 0 1 30 195 1406 0 191 200 203 0 +.0053897642708856 -.086
6696291023908 .0695077939794662 -503923228020754e-30 -.688251465739518 .72547220
4779346 31 203 1404 0 202 195 204 0 +.00538976427088558 -.0779376651938234 .0818
198051533948 -1 -555111512312578e-30 -1165734175856414e-30 -555111512312578e-30
 1 555111512312578e-31 .015 16 202 1313 0 ?149 205 194 203 0 0 1 30 204 1403 0 1
76 203 206 0 +.033322672623601 -.0874047978890953 .0702827208007297 -1 -55511151
2312578e-30 -1165734175856414e-30 16 176 1289 0 ?140 164 207 204 0 0 1 30 206 14
02 0 207 204 208 0 +.033322672623601 -.0903249968300602 .0733608445237498 -1 -55
5111512312578e-30 -1165734175856414e-30 16 207 1293 0 ?143 176 209 206 0 0 1 30
 208 1401 0 210 206 211 0 +.03332267262360095 -.0656256540198948 .09055176906196
23 -1 -555111512312578e-30 -1165734175856414e-30 16 210 1277 0 ?212 213 175 208
 0 0 1 30 211 1400 0 209 208 214 0 +.03332267262360095 -.0694787045641784 .09420
71367896317 -1 -555111512312578e-30 -1165734175856414e-30 16 209 1297 0 ?215 207
 216 211 0 0 1 30 214 1399 0 217 211 218 0 +.03332267262360095 -.066400580841158
2 .0912869378486667 -1 -555111512312578e-30 -1165734175856414e-30 16 217 1269 0
 ?152 219 213 214 0 0 1 30 218 1398 0 175 214 220 0 +.033322672623601 -.08666962
91023908 .0695077939794662 -1 -555111512312578e-30 -1165734175856414e-30 16 175
 1281 0 ?155 210 164 218 0 0 1 30 220 1397 0 213 218 177 0 +.03332267262360095 -
.0660667947052295 .091449246141993 -1 -555111512312578e-30 -1165734175856414e-30
 16 213 1273 0 ?158 217 210 220 0 0 1 30 177 1396 0 164 220 221 0 +.033322672623
601 -.08757077952599 .0699413005123433 -1 -555111512312578e-30 -1165734175856414
e-30 31 221 1395 0 222 177 223 0 +-.01066056164368564 -.0705204468345218 .095195
4319162585 126803585201678e-29 -.688251465739518 -.725472204779346 4378059136598
24e-30 .725472204779346 -.688251465739518 .0413015112464413 16 222 1299 0 ?224 2
16 225 221 0 0 1 38 223 1394 0 216 221 226 0 +227 228 229 230 231 16 216 1295 0
 ?138 209 222 223 0 0 1 31 226 1393 0 225 223 232 0 +-.0106605616436856 -.091298
2513474108 .0743867327864868 124324185913143e-29 -.725472204779346 -.68825146573
9518 503923228020754e-30 .688251465739518 -.725472204779346 .0415960510152551 51
 227 1386 0 233 234 235 236 -.03332267262360095 -.0779376651938234 .081819805153
3948 -1 -555111512312578e-30 -1165734175856414e-30 .015 555111512312578e-30 -1 -
555111512312578e-31 53 228 1379 0 237 238 239 240 --.01066056164368562 -.0809289
860780284 .0842239973615852 .04398323426728655 1 555111512312578e-30 11657341758
56414e-30 -555111512312578e-30 1 555111512312578e-31 40 10 229 0 1 10 .000852790
940759207 .3386682166651935 ??.030911445632612 -.0903249968300602 .0733608445237
498 .03132581664198935 -.0924284279072478 .0779445250366513 .03164569486839825 -
.0928932079131901 .0829738164051581 .03183641411492885 -.0916657044049451 .08786
47153609911 .0318789383701797 -.0888974407006271 .0920610609768016 .031770131483
39395 -.0849081326794253 .0951018450205299 .03152150006732815 -.0801418341433808
 .0966569760172019 .03115805681615695 -.075122221691935 .0965532120196859 .03071
70890316697 -.070405758705529 .0947917126712423 .03061597984206365 -.06947870456
41784 .0942071367896317 41 1 230 L.030911445632612 -.0903249968300602 .073360844
5237498 41 1 231 L.03061597984206365 -.0694787045641784 .0942071367896317 14 237
 1371 0 ?241 233 25 3 228 +0 0 241 233 20 50 238 1380 0 180 242 228 0 +.03332267
2623601 -.08757077952599 .0699413005123433 1341170210886294e-30 -.43350653287702
65 -.901150423599157 -2917885307279825e-32 -.901150423599157 .4335065328770265 5
1 239 1167 0 243 228 244 245 -.03332267262360095 -.0779376651938234 .08181980515
33948 -1 -555111512312578e-30 -1165734175856414e-30 .02 555111512312578e-30 -1 -
555111512312578e-31 141 240 223 246 247 228 141 246 248 249 240 228 141 247 232
 240 249 228 38 232 1392 0 172 226 250 0 +251 228 252 253 254 141 249 255 247 24
6 228 38 255 1390 0 256 250 257 0 +258 228 259 260 261 16 256 1279 0 ?26 225 172
 255 0 0 1 31 250 1391 0 205 232 255 0 +-.0106605616436856 -.0877567656298833 .0
700307708038181 -1341170210886294e-30 .4335065328770265 .901150423599157 -291788
5307279825e-32 -.901150423599157 .4335065328770265 .0410665148616507 31 257 1389
 0 29 255 248 0 +-.01066056164368562 -.066098476135523 .091513700313862 -1036904
45804053e-29 .897445574214114 .441125199148154 -851127537406181e-30 -.4411251991
48154 .897445574214114 .04076077897101365 51 258 1383 0 1 262 251 263 +.03332267
2623601 -.0461178600404285 .05 -1 -555111512312578e-30 -1165734175856414e-30 .04
5 555111512312578e-30 -1 -555111512312578e-31 40 4 259 0 1 4 .00179079169084897
 .3461259824782595 ??.03008612202305495 -.0656256540198948 .0905517690619623 .03
278001543921425 -.0741150982088513 .0852300249068977 .0328576433326913 -.0814513
909789117 .0778664958582753 .0303882297184722 -.0866696291023908 .06950779397946
62 41 1 260 L.03008612202305495 -.0656256540198948 .0905517690619623 41 1 261 L.
0303882297184722 -.0866696291023908 .0695077939794662 50 262 1384 0 264 235 258
 0 +.033322672623601 -.0866696291023908 .0695077939794662 -124324185913143e-29 .
725472204779346 .688251465739518 503923228020754e-30 .688251465739518 -.72547220
4779346 51 251 1382 0 166 258 242 265 -.033322672623601 -.0461178600404285 .05 -
1 -555111512312578e-30 -1165734175856414e-30 .046 555111512312578e-30 -1 -555111
512312578e-31 141 263 255 263 263 258 14 166 1362 0 ?264 180 161 3 251 +266 266
 264 180 20 50 242 1381 0 267 251 238 0 +.03332267262360095 -.0660667947052295 .
091449246141993 103690445804053e-29 -.897445574214114 -.441125199148154 -8511275
37406181e-30 -.441125199148154 .897445574214114 141 265 232 268 268 251 141 268
 248 265 265 251 38 248 1388 0 269 257 270 0 +251 228 271 272 273 16 269 1271 0
 ?27 172 29 248 0 0 1 38 270 1179 0 219 248 274 0 +239 244 275 276 277 40 2 271
 0 1 2 2356050448342155e-21 .01177850699341046 ??.03024866970524395 -.0664005808
411582 .0912869378486667 .0301001540550179 -.0660667947052295 .091449246141993 4
1 1 272 L.03024866970524395 -.0664005808411582 .0912869378486667 41 1 273 L.0301
001540550179 -.0660667947052295 .091449246141993 16 219 1101 0 ?278 37 217 270 0
 0 1 38 274 1172 0 37 270 279 0 +16 244 280 281 282 53 244 1165 0 283 239 284 28
5 --.01066056164368562 -.0809289860780284 .0842239973615852 .0489832342672866 1
 555111512312578e-30 1165734175856414e-30 -555111512312578e-30 1 555111512312578
e-31 40 12 275 0 1 12 .001138121035423696 .338526915785609 ??.0336892687202651 -
.088583494661873 .0648885820747981 .03426760593083005 -.0936011014217572 .069383
6978229859 .0347966073520329 -.0968430327935994 .0752939277474563 .0352183815383
347 -.0979372787684351 .0819441307991991 .0354882246547865 -.0967651829270581 .0
885669953837595 .03557943016919845 -.0934750894201491 .0944129957106438 .0354841
0181895525 -.0884491420328039 .0988347648848657 .03521249115283835 -.08225062618
93986 .1013492282746916 .0347917764146054 -.0755638069458953 .1016784253728044 .
03426464298211225 -.0691297262917265 .0997758685386953 .03368703967834715 -.0636
743352232265 .0958396988102623 .03332267262360095 -.0610064421152266 .0924656346
214444 41 1 276 L.0336892687202651 -.088583494661873 .0648885820747981 41 1 277
 L.03332267262360095 -.0610064421152266 .0924656346214444 14 283 1144 0 ?286 243
 287 3 244 -0 0 286 243 20 54 284 1039 0 288 244 289 0 +.1299874641459126 -.0461
178600404287 .05 -1 0 161813672923165e-29 .038 .012 161813672923165e-29 0 1 141
 285 274 290 290 244 141 290 270 285 285 244 14 288 1032 0 ?243 291 292 3 284 +0
 0 243 291 20 51 289 981 0 293 284 294 0 -.00538976427088552 -.0461178600404287
 .05 1 0 -161554255216634e-29 .045 -161554255216634e-29 0 -1 14 293 1234 0 ?295
 188 296 3 289 +0 0 295 188 20 53 294 980 0 291 289 16 0 -.0828172642708855 -.04
61178600404287 .05 .0675725 -1 0 161554255216634e-29 161554255216634e-29 0 1 14
 291 975 0 ?288 297 298 3 294 +0 0 288 297 20 51 16 907 0 10 294 299 300 -.00538
976427088552 -.0461178600404287 .05 1 0 -161554255216634e-29 .05 -16155425521663
4e-29 0 -1 14 10 1439 0 ?188 0 301 3 16 -0 0 188 0 20 53 299 906 0 302 16 303 0
 -.0828172642708855 -.0461178600404287 .05 .0725725 -1 0 161554255216634e-29 161
554255216634e-29 0 1 141 300 274 304 305 16 141 304 5 305 300 16 141 305 14 300
 304 16 56 14 1539 0 306 307 308 309 +R234 16 310 -.002 -.002 1 1 0 0 0 0 14 306
 1530 0 ?311 241 312 3 14 -0 0 311 241 20 51 307 1627 0 313 314 14 0 -.088292856
6919676 -.03621477967305445 .1253542689025466 -176594849854439e-29 -.13032833509
5973 -.99147088967408 .0175 -.969019344812989 -.244878275414617 .032189122513171
25 51 308 1538 0 1 14 315 316 -.0882923009219075 -.03653843860248265 .1228753074
966332 -162370117351429e-29 -.1303283350959732 -.99147088967408 .0095 -.96901934
4812989 -.244878275414617 .03218912251317115 141 309 12 317 317 14 51 234 1463 0
 241 318 227 319 -.0882923009219075 -.03653843860248265 .1228753074966332 -16237
0117351429e-29 -.1303283350959732 -.99147088967408 .0075 -.969019344812989 -.244
878275414617 .03218912251317115 38 310 1540 0 1 320 199 321 +308 315 322 323 323
 31 320 1635 0 324 325 310 0 +.0912566747279579 -.047743833336012 .1268697570371
7 -176594849854439e-29 -.130328335095973 -.99147088967408 -.969019344812989 -.24
4878275414617 .03218912251317125 .00200586232155292 31 199 1495 0 326 310 197 0
 +.0882923009219075 -.04015371089994295 .0953721767420093 162370117351429e-29 .1
303283350959732 .99147088967408 .969019344812989 .244878275414617 -.032189122513
17115 .0045 141 321 14 321 321 310 51 315 1537 0 1 308 327 328 -.005389764270885
52 -.0461178600404287 .05 1 0 -161554255216634e-29 .052 -161554255216634e-29 0 -
1 40 20 322 0 1 20 .000548243575450199 .3426511590757475 ??.0791302798311537 -.0
418387226369211 .1018236334415284 .0788150583778467 -.0386897618981515 .10146672
08785316 .0795472769323935 -.03567831653259525 .1009412988777086 .08123717844586
54 -.03308394609432175 .100340014772003 .0837389420410056 -.0311619015596762 .09
98028041973743 .0867725811852685 -.0301542267169876 .0994890130343566 .089941372
7657195 -.03017539802548375 .0994958372482175 .0928951644142281 -.03118832068082
705 .0998107303149643 .0953632291562833 -.03310108592445365 .1003444494618192 .0
970688343927495 -.03575212079060585 .1009563680986456 .0976973626685415 -.038014
7561633428 .101364771074708 .097618805558488 -.0411367603505409 .101760879492908
4 .0965192944328256 -.04407903761663445 .1019600154265202 .0945076488779426 -.04
65291744612707 .1019983732480854 .0917681388727025 -.0482053520652394 .101958082
8846326 .0886374093678322 -.0488674484719471 .1019272545341774 .0855131802939868
 -.0484519337961197 .1019475899316126 .0827080405010136 -.0470351074303274 .1019
91909536251 .0804883368706842 -.04474885207920175 .101981975887822 .079130279831
1537 -.0418387226369211 .1018236334415284 41 1 323 H.0791302798311537 -.04183872
26369211 .1018236334415284 50 327 1493 0 329 315 318 0 +.0882923009219075 -.0401
5371089994295 .0953721767420093 162370117351429e-29 .1303283350959732 .991470889
67408 .969019344812989 .244878275414617 -.03218912251317115 141 328 310 328 328
 315 14 329 1486 0 ?330 331 332 3 327 +0 0 330 331 20 51 318 1491 0 330 327 234
 0 -.0882923009219075 -.03653843860248265 .1228753074966332 -162370117351429e-29
 -.1303283350959732 -.99147088967408 .0045 -.969019344812989 -.244878275414617 .
03218912251317115 14 330 1479 0 ?0 329 333 3 318 +0 0 0 329 20 15 333 1482 0 334
 330 335 13 20 3 0 0 0 0 0 0 7 10 17 334 0 333 334 334 0 336 326 0 0 -15 335 159
1 0 337 330 0 17 337 0 335 337 337 0 338 339 0 0 -17 338 0 340 338 338 0 337 339
 0 0 +16 339 1575 0 ?338 341 342 343 0 0 1 16 341 1571 0 ?344 345 339 346 0 0 1
 16 342 1573 0 ?347 339 348 349 0 0 1 31 343 1639 0 339 349 346 0 +.088292300921
9075 -.03621261776474275 .1253539847208184 -176594849854439e-29 -.13032833509597
3 -.99147088967408 -.969019344812989 -.244878275414617 .03218912251317125 .0045
 31 349 1640 0 342 350 343 0 +.0882928566919676 -.03621477967305445 .12535426890
25466 176594849854439e-29 .130328335095973 .99147088967408 .969019344812989 .244
878275414617 -.03218912251317125 .0175 31 346 1638 0 341 343 351 0 +.09992108882
97234 -.03327624036807905 .1249679994323886 -176594849854439e-29 -.1303283350959
73 -.99147088967408 -.969019344812989 -.244878275414617 .03218912251317125 .0020
05862321552925 31 351 1637 0 345 346 325 0 +.0853290386559772 -.0246857260100969
 .1238387807679234 -176594849854439e-29 -.130328335095973 -.99147088967408 -.969
019344812989 -.244878275414617 .03218912251317125 .002005862321552925 16 345 157
7 0 ?352 353 341 351 0 0 1 31 325 1636 0 353 351 320 0 +.0766646245542117 -.0391
5331897802985 .1257405383727048 -176594849854439e-29 -.130328335095973 -.9914708
8967408 -.969019344812989 -.244878275414617 .03218912251317125 .0020058623215529
2 16 353 1569 0 ?354 324 345 325 0 0 1 17 354 0 355 354 354 0 356 353 0 0 +16 32
4 1579 0 ?357 326 353 320 0 0 1 17 357 0 358 357 357 0 359 324 0 0 +16 326 1475
 0 ?336 186 324 199 0 0 1 17 336 0 332 336 336 0 334 326 0 0 +16 186 1445 0 ?360
 179 326 197 0 0 1 17 360 0 361 360 360 0 362 186 0 0 +15 361 1588 0 360 311 0 1
7 362 0 363 362 362 0 360 186 0 0 -15 363 1449 0 362 241 0 14 241 1447 0 ?306 23
7 364 3 234 -0 0 306 237 20 15 364 1512 0 365 241 363 17 365 0 364 365 365 0 366
 22 0 0 +17 366 0 367 366 366 0 365 22 0 0 -16 22 1511 0 ?365 8 368 15 0 0 1 16
 368 1021 0 ?369 22 370 371 0 0 1 38 15 1514 0 22 371 5 0 +12 234 372 373 373 31
 371 1024 0 368 374 15 0 -.1393323384453112 -.0461178600404287 .05 -1 0 16181367
2923165e-29 161813672923165e-29 0 1 .0455281687234306 59 12 1515 0 1 375 4 376 +
1 14 40 20 372 0 1 20 .000438520500549668 .345685367133126 ??.0810425265768142 -
.0412529640163273 .1017503808689044 .0820845605297212 -.0435493949340282 .101833
3472077156 .0838169525149037 -.0453810875264312 .1017838143527322 .0860815655067
218 -.0465505042372179 .1016988099592716 .0885776581685016 -.0468853247418802 .1
01666819304971 .0909861968906864 -.0463798144442495 .1017138074294818 .093102493
2193247 -.0451129206250146 .1017974487988286 .0947320646754203 -.043182182649996
7 .10183096030528 .095646121191886 -.0408061282112718 .10171530777409 .095722019
3327629 -.0383272876068396 .1014069328696998 .0949947650054483 -.036026747281041
2 .1009443119105556 .0935385749581825 -.03408478587557315 .1004166786597916 .091
4620760171341 -.0326950583916 .0999589985471033 .089016000381745 -.0320524403846
8235 .0997240439042322 .0865417704509606 -.03221793278971565 .0997859845332684 .
0842872515017109 -.03313510249906805 .1001113115962508 .0824345357061942 -.03474
133361873565 .1006094378414656 .0812080653776121 -.03691155244354285 .1011427295
616532 .080792343838304 -.03936594362097375 .101559783121704 .0810425265768142 -
.0412529640163273 .1017503808689044 41 1 373 H.0810425265768142 -.04125296401632
73 .1017503808689044 51 375 456 0 377 378 12 0 +.00838976427088557 -.06270137014
62783 .1076627019187404 -1 -555111512312578e-30 -1165734175856414e-30 .003000000
00000274 555111512312578e-30 -1 -555111512312578e-31 141 376 15 376 376 12 14 37
7 424 0 ?379 295 380 3 375 -0 0 379 295 20 51 378 455 0 379 381 375 0 -.00838976
427088563 -.0461178600404288 .05 -1 -555111512312578e-30 -1165734175856414e-30 .
057 555111512312578e-30 -1 -555111512312578e-31 14 379 422 0 ?382 377 383 3 378
 -0 0 382 377 20 51 381 454 0 382 384 378 0 +.00838976427088564 -.10378056195916
32 .0665835101058506 -1 -555111512312578e-30 -1165734175856414e-30 .002999999999
997275 555111512312578e-30 -1 -555111512312578e-31 14 382 420 0 ?385 379 386 3 3
81 -0 0 385 379 20 51 384 453 0 387 388 381 0 -.00838976427088561 -.077937665193
8234 .0818198051533948 -1 -555111512312578e-30 -1165734175856414e-30 .027 555111
512312578e-30 -1 -555111512312578e-31 14 387 418 0 ?302 389 390 3 384 -0 0 302 3
89 20 51 388 444 0 385 391 384 0 +.0083897642708857 -.0461178600404287 -.0026719
8473393386 -1 -555111512312578e-30 -1165734175856414e-30 .0018530351624481 55511
1512312578e-30 -1 -555111512312578e-31 14 385 398 0 ?392 382 393 3 388 -0 0 392
 382 20 51 391 443 0 392 394 388 0 +.0083897642708857 -.0833625776243478 .012755
28241608108 -1 -555111512312578e-30 -1165734175856414e-30 .001853035162448095 55
5111512312578e-30 -1 -555111512312578e-31 14 392 394 0 ?395 385 396 3 391 -0 0 3
95 385 20 51 394 442 0 395 397 391 0 +.00838976427088566 -.00887314245650966 .01
275528241608114 -1 -555111512312578e-30 -1165734175856414e-30 .00185303516244808
 555111512312578e-30 -1 -555111512312578e-31 14 395 390 0 ?398 392 399 3 394 -0
 0 398 392 20 51 397 441 0 398 400 394 0 +.0083897642708856 .00655412469350528 .
05 -1 -555111512312578e-30 -1165734175856414e-30 .00185303516244807 555111512312
578e-30 -1 -555111512312578e-31 14 398 386 0 ?401 395 402 3 397 -0 0 401 395 20
 51 400 440 0 401 403 397 0 +.00838976427088557 -.0088731424565097 .087244717583
9192 -1 -555111512312578e-30 -1165734175856414e-30 .001853035162448055 555111512
312578e-30 -1 -555111512312578e-31 14 401 382 0 ?404 398 405 3 400 -0 0 404 398
 20 51 403 439 0 404 406 400 0 +.0083897642708856 -.0944013960266095 .0982835359
861808 -1 -555111512312578e-30 -1165734175856414e-30 .001853035162448055 5551115
12312578e-30 -1 -555111512312578e-31 14 404 378 0 ?407 401 408 3 403 -0 0 407 40
1 20 51 406 438 0 407 409 403 0 +.00838976427088557 -.0461178600404287 .10267198
4733934 -1 -555111512312578e-30 -1165734175856414e-30 .001853035162448055 555111
512312578e-30 -1 -555111512312578e-31 14 407 374 0 ?389 404 410 3 406 -0 0 389 4
04 20 51 409 437 0 389 411 406 0 +.00838976427088566 -.0987898447743627 .05 -1 -
555111512312578e-30 -1165734175856414e-30 .001853035162448045 555111512312578e-3
0 -1 -555111512312578e-31 14 389 370 0 ?387 407 412 3 409 -0 0 387 407 20 50 411
 24 0 295 413 409 0 +.0083897642708856 -.0544096150933535 .0788313509593703 -1 -
555111512312578e-30 -1165734175856414e-30 555111512312578e-30 -1 -55511151231257
8e-31 14 295 1091 0 ?377 293 414 3 411 -0 0 377 293 20 50 413 324 0 188 415 411
 0 +.0053897642708856 -.0544096150933535 .0788313509593703 -1 -555111512312578e-
30 -1165734175856414e-30 555111512312578e-30 -1 -555111512312578e-31 14 188 1264
 0 ?293 10 416 3 413 +0 0 293 10 20 50 415 713 0 297 417 413 0 +.091829144987683
3 -.1002869436504156 .01584344134531215 1036194676489494e-30 1 -1890965488781775
e-31 -1 1036194676489494e-30 86618893653692e-30 14 297 619 0 ?291 418 419 3 415
 -0 0 291 418 20 50 417 714 0 420 421 415 0 +.1058718255899462 -.100286943650415
6 .01584344134531215 -.982987648795081 .1836716698794865 504136237129713e-31 -.1
836716698794865 -.982987648795081 201789008817511e-30 14 420 810 0 ?422 423 424
 3 417 -0 0 422 423 20 50 421 715 0 423 425 417 0 +.115993342431672 -.0461178600
404287 .01584344134531215 -.982987648795081 -.183671669879485 1198769815147764e-
31 .183671669879485 -.982987648795081 1699701351365365e-31 14 423 806 0 ?420 426
 427 3 421 -0 0 420 426 20 51 425 716 0 428 429 421 0 -.0988504852888148 .006739
2830792767 .01584344134531215 -866188936536922e-31 -1890965488781775e-31 -1 .007
14285709463185 -727364132466213e-30 -1 1890965488781775e-31 14 428 628 0 ?430 30
2 431 3 425 -0 0 430 302 20 50 429 717 0 426 432 425 0 +.0918291449876834 .00805
122356955824 .01584344134531215 .982987648795081 -.1836716698794865 -50413623712
9713e-31 .1836716698794865 .982987648795081 -201789008817511e-30 14 426 802 0 ?4
23 433 434 3 429 -0 0 423 433 20 50 432 718 0 422 435 429 0 +.0817076281459576 -
.0461178600404287 .01584344134531215 .982987648795081 .183671669879485 -11987698
15147766e-31 -.183671669879485 .982987648795081 -1699701351365365e-31 14 422 798
 0 ?436 420 437 3 432 -0 0 436 420 20 51 435 719 0 430 438 432 0 +.0988504852888
148 .00673928307927668 .01584344134531215 -866188936536922e-31 -1890965488781775
e-31 -1 .0025 -727364132466213e-30 -1 1890965488781775e-31 14 430 634 0 ?439 428
 440 3 435 -0 0 439 428 20 50 438 720 0 436 303 435 0 +.0988504852888148 .006739
2830792767 .01584344134531215 866188936536922e-31 1890965488781775e-31 1 7273641
32466213e-30 1 -1890965488781775e-31 14 436 794 0 ?418 422 441 3 438 +433 433 41
8 422 20 50 303 721 0 418 299 438 0 +.0988504852888148 .0067392830792767 .002404
47953533642 866188936536922e-31 1890965488781775e-31 1 727364132466213e-30 1 -18
90965488781775e-31 14 418 774 0 ?297 436 442 3 303 -439 439 297 436 20 15 442 77
2 0 58 418 0 14 439 769 0 ?433 430 443 3 303 -418 418 433 430 20 14 433 790 0 ?4
26 439 444 3 438 +436 436 426 439 20 15 443 648 0 445 439 446 17 445 0 443 445 4
45 0 447 448 0 0 -15 446 767 0 61 439 0 17 61 0 446 449 115 59 450 451 0 452 -17
 449 0 446 453 61 101 452 454 0 0 -17 115 0 446 61 453 113 106 455 0 456 -17 450
 0 457 458 459 113 61 451 0 0 +16 451 766 0 ?450 460 461 462 0 0 1 17 452 0 434
 49 463 59 449 454 0 459 +15 434 801 0 49 426 0 17 49 0 434 464 452 47 459 465 0
 466 -17 463 0 434 452 464 101 467 468 0 449 +16 454 679 0 ?452 469 470 471 0 0
 1 17 459 0 457 450 472 59 49 465 0 0 +15 457 886 0 472 10 473 17 472 0 457 459
 458 47 52 474 0 0 -16 465 847 0 ?459 475 476 477 0 0 1 16 475 849 0 ?458 474 46
5 478 0 0 1 16 476 1220 0 ?184 465 479 480 0 0 1 32 477 922 0 465 481 478 0 -.08
17076281459576 -.0461178600404287 .05 .982987648795081 -.1836716698794865 -50413
6237129713e-31 .1836716698794865 .982987648795081 -852601048247116e-29 .05086533
90114196 .05 31 481 983 0 479 480 477 0 +.1332260210126462 -.0461178600404287 .0
5 -1 0 161554255216634e-29 161554255216634e-29 0 1 .045 32 478 921 0 475 477 482
 0 -.115993342431672 -.0461178600404287 .05 -.982987648795081 -.183671669879485
 1198769815147764e-31 .183671669879485 -.982987648795081 -815425133851719e-29 .0
508653390114195 .05 30 482 920 0 474 478 483 0 +.00538976427088552 -.00960307535
163638 .01584344134531215 1 0 -161554255216634e-29 16 474 857 0 ?52 484 475 482
 0 0 1 32 483 919 0 484 482 485 0 -.0817076281459576 -.0461178600404287 .05 .982
987648795081 .183671669879485 -1198769815147766e-31 .183671669879485 -.982987648
795081 -815425133851718e-29 .0508653390114195 .05 16 484 852 0 ?486 487 474 483
 0 0 1 32 485 918 0 487 483 488 0 -.115993342431672 -.0461178600404287 .05 -.982
987648795081 .1836716698794865 504136237129713e-31 .1836716698794865 .9829876487
95081 -852601048247116e-29 .0508653390114196 .05 16 487 850 0 ?489 490 484 485 0
 0 1 30 488 917 0 490 485 491 0 -.00538976427088552 -.082632644729221 .015843441
34531215 1 0 -161554255216634e-29 16 490 856 0 ?46 492 487 488 0 0 1 31 491 916
 0 492 488 493 0 -.00838976427088563 -.0461178600404287 .05 -1 -555111512312578e
-30 -1165734175856414e-30 -1165734175856414e-30 0 1 .05 16 492 1073 0 ?494 495 4
90 491 0 0 1 30 493 741 0 496 491 497 0 +.1058718255899462 -.1002869436504156 .0
02404479535336435 .1836716698794865 .982987648795081 -201789008817511e-30 16 496
 685 0 ?498 455 495 493 0 0 1 30 497 740 0 455 493 499 0 +.115993342431672 -.046
1178600404287 .002404479535336425 -.183671669879485 .982987648795081 -1699701351
365365e-31 16 455 761 0 ?106 470 496 497 0 0 1 31 499 739 0 470 497 471 0 +.0988
504852888148 .0067392830792767 .00240447953533642 866188936536922e-31 1890965488
781775e-31 1 -727364132466213e-30 -1 1890965488781775e-31 .00714285709463185 16
 470 681 0 ?103 454 455 499 0 0 1 30 471 738 0 454 499 500 0 +.0918291449876834
 .00805122356955824 .00240447953533642 -.1836716698794865 -.982987648795081 2017
89008817511e-30 30 500 737 0 469 471 501 0 +.0817076281459576 -.0461178600404287
 .00240447953533643 .183671669879485 -.982987648795081 1699701351365365e-31 16 4
69 755 0 ?100 448 454 500 0 0 1 30 501 736 0 495 500 502 0 +.0918291449876833 -.
1002869436504156 .00240447953533644 1 -1036194676489494e-30 -86618893653692e-30
 16 495 687 0 ?503 496 492 501 0 0 1 31 502 735 0 448 501 504 0 +.09885048528881
48 .00673928307927668 .00240447953533642 -866188936536922e-31 -1890965488781775e
-31 -1 -727364132466213e-30 -1 1890965488781775e-31 .0025 16 448 675 0 ?447 505
 469 502 0 0 1 30 504 734 0 506 502 507 0 +.1058718255899462 -.1002869436504156
 .01584344134531215 .1836716698794865 .982987648795081 -201789008817511e-30 16 5
06 671 0 ?508 509 505 504 0 0 1 30 507 733 0 509 504 510 0 +.115993342431672 -.0
461178600404287 .01584344134531215 -.183671669879485 .982987648795081 -169970135
1365365e-31 16 509 780 0 ?94 511 506 507 0 0 1 31 510 732 0 511 507 512 0 +.0988
504852888148 .0067392830792767 .01584344134531215 866188936536922e-31 1890965488
781775e-31 1 -727364132466213e-30 -1 1890965488781775e-31 .00714285709463185 16
 511 667 0 ?91 513 509 510 0 0 1 30 512 731 0 513 510 514 0 +.0918291449876834 .
00805122356955824 .01584344134531215 -.1836716698794865 -.982987648795081 201789
008817511e-30 16 513 665 0 ?466 515 511 512 0 0 1 30 514 730 0 515 512 516 0 +.0
817076281459576 -.0461178600404287 .01584344134531215 .183671669879485 -.9829876
48795081 1699701351365365e-31 16 515 786 0 ?88 517 513 514 0 0 1 30 516 729 0 50
5 514 518 0 +.0918291449876833 -.1002869436504156 .01584344134531215 1 -10361946
76489494e-30 -86618893653692e-30 16 505 673 0 ?519 506 448 516 0 0 1 31 518 728
 0 517 516 520 0 +.0988504852888148 .00673928307927668 .01584344134531215 -86618
8936536922e-31 -1890965488781775e-31 -1 -727364132466213e-30 -1 1890965488781775
e-31 .0025 16 517 661 0 ?521 522 515 518 0 0 1 30 520 727 0 522 518 523 0 +.0918
291449876833 -.1002869436504156 .01584344134531215 -866188936536922e-31 -1890965
488781775e-31 -1 16 522 659 0 ?524 468 517 520 0 0 1 30 523 725 0 468 520 525 0
 +.0918291449876834 .00805122356955824 .01584344134531215 -866188936536922e-31 -
1890965488781775e-31 -1 16 468 655 0 ?463 526 522 523 0 0 1 30 525 724 0 526 523
 527 0 +.1058718255899462 .00805122356955824 .01584344134531215 -866188936536922
e-31 -1890965488781775e-31 -1 16 526 653 0 ?528 529 468 525 0 0 1 30 527 722 0 5
29 525 530 0 +.1058718255899462 -.1002869436504156 .01584344134531215 -866188936
536922e-31 -1890965488781775e-31 -1 16 529 649 0 ?531 532 526 527 0 0 1 31 530 3
44 0 533 527 534 0 +.00538976427088563 -.0461178600404288 .05 -1 -55511151231257
8e-30 -1165734175856414e-30 555111512312578e-30 -1 -555111512312578e-31 .057 16
 533 308 0 ?535 536 532 530 0 0 1 31 534 343 0 536 530 537 0 +.00538976427088564
 -.1037805619591632 .0665835101058505 1 555111512312578e-30 1165734175856414e-30
 555111512312578e-30 -1 -555111512312578e-31 .002999999999997275 16 536 306 0 ?5
38 539 533 534 0 0 1 31 537 342 0 539 534 540 0 +.00538976427088561 -.0779376651
938234 .0818198051533948 -1 -555111512312578e-30 -1165734175856414e-30 -55511151
2312578e-30 1 555111512312578e-31 .027 16 539 304 0 ?76 541 536 537 0 0 1 31 540
 341 0 532 537 542 0 +.00538976427088557 -.0627013701462783 .1076627019187404 1
 555111512312578e-30 1165734175856414e-30 555111512312578e-30 -1 -55511151231257
8e-31 .00300000000000274 16 532 310 0 ?543 533 529 540 0 0 1 31 542 332 0 541 54
0 544 0 +.00538976427088569 -.0461178600404287 -.00267198473393386 1 55511151231
2578e-30 1165734175856414e-30 555111512312578e-30 -1 -555111512312578e-31 .00185
30351624481 16 541 286 0 ?545 546 539 542 0 0 1 31 544 331 0 546 542 547 0 +.005
38976427088569 -.0833625776243478 .01275528241608108 1 555111512312578e-30 11657
34175856414e-30 555111512312578e-30 -1 -555111512312578e-31 .001853035162448095
 16 546 284 0 ?548 549 541 544 0 0 1 31 547 330 0 549 544 550 0 +.00538976427088
565 -.00887314245650966 .01275528241608114 1 555111512312578e-30 116573417585641
4e-30 555111512312578e-30 -1 -555111512312578e-31 .00185303516244808 16 549 282
 0 ?551 552 546 547 0 0 1 31 550 329 0 552 547 553 0 +.0053897642708856 .0065541
2469350528 .05 1 555111512312578e-30 1165734175856414e-30 555111512312578e-30 -1
 -555111512312578e-31 .00185303516244807 16 552 280 0 ?554 555 549 550 0 0 1 31
 553 328 0 555 550 556 0 +.00538976427088556 -.0088731424565097 .087244717583919
2 1 555111512312578e-30 1165734175856414e-30 555111512312578e-30 -1 -55511151231
2578e-31 .001853035162448055 16 555 278 0 ?557 558 552 553 0 0 1 31 556 327 0 55
8 553 559 0 +.0053897642708856 -.0944013960266095 .0982835359861808 1 5551115123
12578e-30 1165734175856414e-30 555111512312578e-30 -1 -555111512312578e-31 .0018
53035162448055 16 558 276 0 ?560 561 555 556 0 0 1 31 559 326 0 561 556 562 0 +.
00538976427088556 -.0461178600404287 .102671984733934 1 555111512312578e-30 1165
734175856414e-30 555111512312578e-30 -1 -555111512312578e-31 .001853035162448055
 16 561 274 0 ?563 564 558 559 0 0 1 31 562 325 0 564 559 565 0 +.00538976427088
566 -.0987898447743627 .05 1 555111512312578e-30 1165734175856414e-30 5551115123
12578e-30 -1 -555111512312578e-31 .001853035162448045 16 564 272 0 ?566 567 561
 562 0 0 1 31 565 7 0 568 562 569 0 +.00838976427088563 -.0461178600404288 .05 -
1 -555111512312578e-30 -1165734175856414e-30 555111512312578e-30 -1 -55511151231
2578e-31 .057 16 568 6 0 ?570 571 567 565 0 0 1 31 569 12 0 571 565 572 0 +.0083
8976427088564 -.1037805619591632 .0665835101058506 1 555111512312578e-30 1165734
175856414e-30 555111512312578e-30 -1 -555111512312578e-31 .002999999999997275 16
 571 11 0 ?573 574 568 569 0 0 1 31 572 17 0 574 569 575 0 +.00838976427088561 -
.0779376651938234 .0818198051533948 -1 -555111512312578e-30 -1165734175856414e-3
0 -555111512312578e-30 1 555111512312578e-31 .027 16 574 16 0 ?64 576 571 572 0
 0 1 31 575 21 0 567 572 577 0 +.00838976427088557 -.0627013701462783 .107662701
9187404 1 555111512312578e-30 1165734175856414e-30 555111512312578e-30 -1 -55511
1512312578e-31 .00300000000000274 16 567 20 0 ?578 568 564 575 0 0 1 31 577 84 0
 576 575 579 0 +.0083897642708857 -.0461178600404287 -.00267198473393386 1 55511
1512312578e-30 1165734175856414e-30 555111512312578e-30 -1 -555111512312578e-31
 .0018530351624481 16 576 80 0 ?580 581 574 577 0 0 1 31 579 98 0 581 577 582 0
 +.0083897642708857 -.0833625776243478 .01275528241608108 1 555111512312578e-30
 1165734175856414e-30 555111512312578e-30 -1 -555111512312578e-31 .0018530351624
48095 16 581 94 0 ?583 584 576 579 0 0 1 31 582 114 0 584 579 585 0 +.0083897642
7088566 -.00887314245650966 .01275528241608114 1 555111512312578e-30 11657341758
56414e-30 555111512312578e-30 -1 -555111512312578e-31 .00185303516244808 16 584
 110 0 ?586 587 581 582 0 0 1 31 585 132 0 587 582 588 0 +.0083897642708856 .006
55412469350528 .05 1 555111512312578e-30 1165734175856414e-30 555111512312578e-3
0 -1 -555111512312578e-31 .00185303516244807 16 587 128 0 ?589 590 584 585 0 0 1
 31 588 152 0 590 585 591 0 +.00838976427088557 -.0088731424565097 .087244717583
9192 1 555111512312578e-30 1165734175856414e-30 555111512312578e-30 -1 -55511151
2312578e-31 .001853035162448055 16 590 148 0 ?592 593 587 588 0 0 1 31 591 174 0
 593 588 594 0 +.0083897642708856 -.0944013960266095 .0982835359861808 1 5551115
12312578e-30 1165734175856414e-30 555111512312578e-30 -1 -555111512312578e-31 .0
01853035162448055 16 593 170 0 ?595 596 590 591 0 0 1 31 594 198 0 596 591 597 0
 +.00838976427088557 -.0461178600404287 .102671984733934 1 555111512312578e-30 1
165734175856414e-30 555111512312578e-30 -1 -555111512312578e-31 .001853035162448
055 16 596 194 0 ?598 599 593 594 0 0 1 31 597 224 0 599 594 600 0 +.00838976427
088566 -.0987898447743627 .05 1 555111512312578e-30 1165734175856414e-30 5551115
12312578e-30 -1 -555111512312578e-31 .001853035162448045 16 599 220 0 ?601 602 5
96 597 0 0 1 30 600 433 0 602 597 603 0 +.00838976427088557 -.0642249996510328 .
105078412242203 -1 -555111512312578e-30 -1165734175856414e-30 16 602 365 0 ?604
 605 599 600 0 0 1 30 603 434 0 605 600 606 0 +.00838976427088564 -.101196272282
6314 .0681071396106039 -1 -555111512312578e-30 -1165734175856414e-30 16 605 366
 0 ?607 608 602 603 0 0 1 30 606 435 0 608 603 609 0 +.00838976427088564 -.10089
74268632292 .0657543346005579 -1 -555111512312578e-30 -1165734175856414e-30 16 6
08 367 0 ?610 461 605 606 0 0 1 30 609 436 0 461 606 462 0 +.00838976427088557 -
.0618721946409853 .104779566822801 -1 -555111512312578e-30 -1165734175856414e-30
 16 461 368 0 ?611 451 608 609 0 0 1 30 462 768 0 451 609 612 0 +.00538976427088
551 -.0307990339856103 .002404479535336425 1 0 -161554255216634e-29 30 612 773 0
 460 462 374 0 -.00538976427088551 -.0614366860952471 .00240447953533643 1 0 -16
1554255216634e-29 16 460 771 0 ?613 370 451 612 0 0 1 31 374 1018 0 370 612 371
 0 +.1299874641459126 -.0461178600404287 .05 -1 0 161813672923165e-29 1618136729
23165e-29 0 1 .05 16 370 1015 0 ?614 368 460 374 0 0 1 17 614 0 615 614 614 0 61
6 370 0 0 +15 615 1016 0 614 10 457 17 616 0 617 616 616 0 614 370 0 0 -15 617 1
034 0 616 288 0 17 613 0 473 486 489 110 58 460 0 0 +15 473 887 0 618 10 0 17 48
6 0 473 618 613 44 619 484 0 0 +17 489 0 473 613 618 56 55 487 0 0 +17 58 0 442
 109 112 56 613 460 0 498 -17 109 0 442 620 58 107 498 496 0 531 -17 112 0 442 5
8 620 110 100 469 0 619 -17 498 0 424 55 531 56 109 496 0 489 +15 424 809 0 55 4
20 0 17 55 0 424 97 498 53 489 487 0 508 -17 531 0 424 498 97 107 621 529 0 503
 +17 97 0 424 531 55 95 508 506 0 519 -17 621 0 419 622 503 95 531 529 0 0 -17 5
03 0 419 621 524 107 620 495 0 0 +15 419 621 0 503 297 0 17 524 0 419 503 622 98
 623 522 0 620 +17 620 0 442 112 109 98 503 495 0 0 -17 622 0 419 524 621 86 519
 505 0 0 -17 623 0 437 624 100 86 524 522 0 622 -15 437 797 0 619 422 0 17 624 0
 437 619 623 44 88 515 0 486 -17 100 0 437 623 619 98 112 469 0 524 +17 619 0 43
7 100 624 110 486 484 0 613 -17 88 0 441 519 46 86 624 515 0 623 +15 441 789 0 5
08 436 0 17 519 0 441 508 88 95 622 505 0 621 +17 46 0 441 88 508 44 618 490 0 6
24 +17 508 0 441 46 519 53 97 506 0 618 +17 618 0 473 489 486 53 46 490 0 0 -17
 611 0 380 625 578 83 626 461 0 543 +15 380 423 0 625 377 0 17 625 0 380 627 611
 74 543 532 0 0 -17 578 0 380 611 627 71 628 567 0 0 +17 626 0 383 570 85 71 611
 461 0 578 -17 543 0 629 535 76 83 625 532 0 0 +15 629 271 0 543 188 182 17 535
 0 629 538 543 80 85 533 0 0 +17 76 0 629 543 538 74 79 539 0 604 +17 538 0 629
 76 535 77 82 536 0 0 +17 79 0 390 630 604 77 76 539 0 607 -17 604 0 390 79 64 7
4 627 602 0 625 +15 390 417 0 79 387 0 17 64 0 390 604 630 62 67 574 0 628 +17 6
27 0 380 578 625 62 604 602 0 0 -17 630 0 390 64 79 65 607 605 0 573 -17 67 0 63
1 70 628 65 64 574 0 630 -17 628 0 631 67 73 62 578 567 0 627 -15 631 22 0 628 2
95 632 17 73 0 631 628 70 71 570 568 0 626 -17 70 0 631 73 67 68 573 571 0 633 -
17 570 0 383 610 626 68 73 568 0 0 +15 383 421 0 85 379 0 17 610 0 383 85 570 80
 633 608 0 535 +17 85 0 383 626 610 83 535 533 0 611 -17 633 0 386 573 82 68 610
 608 0 570 -15 386 419 0 82 382 0 17 573 0 386 607 633 65 70 571 0 0 +17 82 0 38
6 633 607 80 538 536 0 610 -17 607 0 386 82 573 77 630 605 0 538 +15 632 1090 0
 39 295 0 17 39 0 632 634 634 32 635 636 0 494 -17 634 0 632 39 39 40 494 492 0
 635 -17 635 0 637 38 638 40 39 636 0 0 +16 636 1099 0 ?635 639 640 641 0 0 1 17
 494 0 33 35 34 32 634 492 0 638 +15 33 1086 0 34 10 615 17 35 0 33 31 494 116 6
38 640 0 36 -17 34 0 33 494 31 40 38 639 0 634 -17 638 0 637 635 278 32 35 640 0
 0 +15 637 1143 0 635 243 0 17 278 0 637 638 38 116 642 219 0 0 +16 640 1102 0 ?
638 636 37 279 0 0 1 16 37 1103 0 ?36 640 219 274 0 0 1 30 279 1171 0 640 274 64
1 0 +.02105365773775385 -.0643970667133011 .0965389149358945 -1 -555111512312578
e-30 -1165734175856414e-30 31 641 1170 0 636 279 643 0 -.00838976427088561 -.077
9376651938234 .0818198051533948 -1 -555111512312578e-30 -1165734175856414e-30 -1
165734175856414e-30 0 1 .02 30 643 1169 0 639 641 480 0 -.0210536577377539 -.092
6567749763231 .0682792066728726 -1 -555111512312578e-30 -1165734175856414e-30 16
 639 1100 0 ?38 479 636 643 0 0 1 31 480 984 0 476 643 481 0 +.00538976427088552
 -.0461178600404287 .05 -1 0 161554255216634e-29 161554255216634e-29 0 1 .045 17
 38 0 637 278 635 24 34 639 0 642 +16 479 964 0 ?644 476 639 481 0 0 1 17 644 0
 298 644 644 0 645 479 0 0 +15 298 977 0 644 291 0 17 645 0 296 645 645 0 644 47
9 0 0 -15 296 971 0 645 293 646 15 646 1223 0 647 293 0 17 647 0 646 212 181 9 2
6 256 0 0 -17 212 0 646 184 647 144 30 210 0 183 +17 181 0 646 647 184 123 155 1
75 0 0 -17 26 0 25 174 23 123 647 256 0 181 +15 25 1373 0 648 237 0 17 174 0 25
 171 26 126 128 205 0 0 -17 171 0 25 649 174 118 130 172 0 0 +17 128 0 173 155 1
63 123 174 205 0 26 +16 205 1301 0 ?128 29 202 250 0 0 1 16 29 1275 0 ?23 269 20
5 257 0 0 1 17 649 0 25 138 171 134 133 225 0 0 +16 172 1287 0 ?171 256 269 232
 0 0 1 17 138 0 25 648 649 122 136 216 0 224 +17 133 0 650 140 651 118 649 225 0
 167 -16 225 1291 0 ?649 222 256 226 0 0 1 15 650 1367 0 190 264 0 17 140 0 650
 190 133 131 167 176 0 162 +17 651 0 650 133 190 134 143 207 0 649 -17 167 0 161
 130 162 118 140 176 0 171 -17 190 0 650 651 140 141 170 191 0 189 +17 143 0 652
 149 136 141 651 207 0 190 +15 652 1370 0 149 233 0 17 149 0 652 653 143 147 189
 202 0 215 +17 136 0 652 143 653 134 138 216 0 651 -17 653 0 652 136 149 122 215
 209 0 0 -17 215 0 654 655 224 147 653 209 0 201 +15 654 1349 0 655 286 0 17 655
 0 654 656 215 150 201 194 0 657 -17 224 0 654 215 656 122 648 222 0 653 +17 201
 0 182 189 657 147 655 194 0 0 +17 189 0 182 170 201 141 149 202 0 0 -17 657 0 1
82 201 658 150 196 192 0 0 -17 658 0 182 657 183 156 146 185 0 0 -17 196 0 659 6
60 152 156 657 192 0 658 +15 659 1352 0 196 266 0 17 660 0 659 121 196 124 158 2
13 0 27 -17 152 0 659 196 121 150 656 217 0 655 +17 121 0 659 152 660 119 27 269
 0 656 -17 656 0 654 224 655 119 152 217 0 648 -17 648 0 25 27 138 119 224 222 0
 0 -17 27 0 25 23 648 124 121 269 0 0 +17 158 0 661 146 28 156 660 213 0 196 +15
 661 1355 0 146 267 0 17 146 0 661 30 158 144 658 185 0 212 +17 28 0 661 158 30
 124 23 29 0 660 -17 30 0 661 28 146 9 212 210 0 647 -14 267 1353 0 ?180 266 661
 3 242 +0 0 180 266 20 14 180 1359 0 ?166 267 173 3 238 -0 0 166 267 20 14 266 1
350 0 ?267 286 659 3 251 +166 166 267 286 20 14 286 1347 0 ?266 283 654 3 235 -0
 0 266 283 20 50 235 1385 0 286 227 262 0 +.03332267262360095 -.0656256540198948
 .0905517690619623 -126803585201678e-29 .688251465739518 .725472204779346 437805
913659824e-30 .725472204779346 -.688251465739518 17 183 0 182 658 178 144 184 47
6 0 0 -17 184 0 646 181 212 153 183 476 0 0 +14 233 1368 0 ?237 264 652 3 227 +0
 0 237 264 20 14 264 1365 0 ?233 166 650 3 262 +0 0 233 166 20 17 642 0 287 36 3
6 24 278 219 0 0 -15 287 1146 0 642 283 0 17 36 0 287 642 642 116 31 37 0 278 +1
4 243 1141 0 ?283 288 637 3 239 -0 0 283 288 20 17 601 0 412 601 601 0 662 599 0
 0 +15 412 369 0 601 389 663 17 662 0 414 662 662 0 601 599 0 0 -15 414 221 0 66
2 295 664 15 664 195 0 665 295 666 17 665 0 664 665 665 0 598 596 0 0 -15 666 17
1 0 667 295 668 17 667 0 666 667 667 0 595 593 0 0 -15 668 149 0 669 295 670 17
 669 0 668 669 669 0 592 590 0 0 -15 670 129 0 671 295 672 17 671 0 670 671 671
 0 589 587 0 0 -15 672 111 0 673 295 674 17 673 0 672 673 673 0 586 584 0 0 -15
 674 95 0 675 295 676 17 675 0 674 675 675 0 583 581 0 0 -15 676 81 0 677 295 63
1 17 677 0 676 677 677 0 580 576 0 0 -17 580 0 393 580 580 0 677 576 0 0 +15 393
 397 0 580 385 678 15 678 399 0 679 385 0 17 679 0 678 679 679 0 545 541 0 0 -17
 545 0 680 545 545 0 679 541 0 0 +15 680 269 0 545 188 629 17 583 0 396 583 583
 0 675 581 0 0 +15 396 393 0 583 392 681 15 681 395 0 682 392 0 17 682 0 681 682
 682 0 548 546 0 0 -17 548 0 683 548 548 0 682 546 0 0 +15 683 268 0 548 188 680
 17 586 0 399 586 586 0 673 584 0 0 +15 399 389 0 586 395 684 15 684 391 0 685 3
95 0 17 685 0 684 685 685 0 551 549 0 0 -17 551 0 686 551 551 0 685 549 0 0 +15
 686 267 0 551 188 683 17 589 0 402 589 589 0 671 587 0 0 +15 402 385 0 589 398
 687 15 687 387 0 688 398 0 17 688 0 687 688 688 0 554 552 0 0 -17 554 0 689 554
 554 0 688 552 0 0 +15 689 266 0 554 188 686 17 592 0 405 592 592 0 669 590 0 0
 +15 405 381 0 592 401 690 15 690 383 0 691 401 0 17 691 0 690 691 691 0 557 555
 0 0 -17 557 0 692 557 557 0 691 555 0 0 +15 692 265 0 557 188 689 17 595 0 408
 595 595 0 667 593 0 0 +15 408 377 0 595 404 693 15 693 379 0 694 404 0 17 694 0
 693 694 694 0 560 558 0 0 -17 560 0 695 560 560 0 694 558 0 0 +15 695 264 0 560
 188 692 17 598 0 410 598 598 0 665 596 0 0 +15 410 373 0 598 407 696 15 696 375
 0 697 407 0 17 697 0 696 697 697 0 563 561 0 0 -17 563 0 698 563 563 0 697 561
 0 0 +15 698 263 0 563 188 695 15 663 371 0 699 389 0 17 699 0 663 699 699 0 566
 564 0 0 -17 566 0 416 566 566 0 699 564 0 0 +15 416 262 0 566 188 698 17 528 0
 431 103 700 104 701 526 0 453 +15 431 630 0 103 428 0 17 103 0 431 467 528 101
 453 470 0 463 +17 700 0 431 528 467 92 91 511 0 0 -17 701 0 427 702 106 92 528
 526 0 700 -17 453 0 446 115 449 104 103 470 0 0 -15 427 805 0 456 423 0 17 702
 0 427 456 701 50 94 509 0 458 -17 106 0 427 701 456 104 115 455 0 528 +17 456 0
 427 106 702 113 458 475 0 450 -17 458 0 457 472 450 50 456 475 0 0 +17 94 0 703
 91 52 92 702 509 0 701 +15 703 643 0 466 433 0 17 91 0 703 466 94 89 700 511 0
 467 +17 52 0 703 94 466 50 472 474 0 702 +17 466 0 703 52 91 47 464 513 0 472 +
17 464 0 434 463 49 89 466 513 0 0 -17 467 0 431 700 103 89 463 468 0 464 -17 52
1 0 444 521 521 0 704 517 0 0 +15 444 644 0 521 433 703 17 704 0 440 704 704 0 5
21 517 0 0 -15 440 636 0 704 430 705 15 705 637 0 447 430 0 17 447 0 705 447 447
 0 445 448 0 0 +14 302 901 0 ?428 387 706 3 299 -0 0 428 387 20 15 706 1022 0 36
9 302 0 17 369 0 706 369 369 0 707 368 0 0 +17 707 0 292 707 707 0 369 368 0 0 -
15 292 1033 0 707 288 617 15 367 1532 0 366 306 0 14 311 1581 0 ?313 306 708 3 7
09 -0 0 313 306 20 14 313 1593 0 ?710 311 711 3 307 -0 0 710 311 20 15 708 1583
 0 712 311 713 50 709 1634 0 311 0 714 0 +.0882928566919676 -.0365406005107944 .
1228755916783614 176594849854439e-29 .130328335095973 .99147088967408 .969019344
812989 .244878275414617 -.03218912251317125 50 714 1633 0 331 709 715 0 +.088292
8566919676 -.03621477967305445 .1253542689025466 176594849854439e-29 .1303283350
95973 .99147088967408 .969019344812989 .244878275414617 -.03218912251317125 14 3
31 1613 0 ?329 716 355 3 714 +0 0 329 716 20 51 715 1632 0 717 714 718 0 +.09125
66747279579 -.047743833336012 .12686975703717 -176594849854439e-29 -.13032833509
5973 -.99147088967408 .00200586232155292 -.969019344812989 -.244878275414617 .03
218912251317125 14 717 1605 0 ?716 719 720 3 715 -0 0 716 719 20 51 718 1631 0 7
19 715 721 0 +.0766646245542117 -.03915331897802985 .1257405383727048 -176594849
854439e-29 -.130328335095973 -.99147088967408 .00200586232155292 -.9690193448129
89 -.244878275414617 .03218912251317125 14 719 1601 0 ?717 710 722 3 718 -0 0 71
7 710 20 51 721 1630 0 716 718 314 0 +.0853290386559772 -.0246857260100969 .1238
387807679234 -176594849854439e-29 -.130328335095973 -.99147088967408 .0020058623
21552925 -.969019344812989 -.244878275414617 .03218912251317125 14 716 1609 0 ?3
31 717 723 3 721 -0 0 331 717 20 51 314 1629 0 710 721 307 0 +.0999210888297234
 -.03327624036807905 .1249679994323886 -176594849854439e-29 -.130328335095973 -.
99147088967408 .002005862321552925 -.969019344812989 -.244878275414617 .03218912
251317125 14 710 1597 0 ?719 313 724 3 314 -0 0 719 313 20 15 724 1599 0 725 710
 726 17 725 0 724 725 725 0 344 341 0 0 -15 726 1600 0 727 710 0 17 727 0 726 72
7 727 0 728 729 0 0 +17 728 0 730 728 728 0 727 729 0 0 -16 729 1561 0 ?727 731
 732 733 0 0 1 16 731 1567 0 ?734 735 729 736 0 0 1 16 732 1559 0 ?737 729 0 738
 0 0 1 31 733 1644 0 729 738 736 0 +.0999210888297234 -.033602061205819 .1224893
222082034 -176594849854439e-29 -.130328335095973 -.99147088967408 -.969019344812
989 -.244878275414617 .03218912251317125 .002005862321552925 31 738 1646 0 732 0
 733 0 +.0882928566919676 -.0365406005107944 .1228755916783614 176594849854439e-
29 .130328335095973 .99147088967408 .969019344812989 .244878275414617 -.03218912
251317125 .0175 31 736 1643 0 731 733 739 0 +.0853290386559772 -.025011546847836
85 .1213601035437382 -176594849854439e-29 -.130328335095973 -.99147088967408 -.9
69019344812989 -.244878275414617 .03218912251317125 .002005862321552925 31 739 1
642 0 735 736 350 0 +.0766646245542117 -.0394791398157698 .1232618611485196 -176
594849854439e-29 -.130328335095973 -.99147088967408 -.969019344812989 -.24487827
5414617 .03218912251317125 .00200586232155292 16 735 1563 0 ?740 348 731 739 0 0
 1 31 350 1641 0 348 739 349 0 +.0912566747279579 -.0480696541737519 .1243910798
129846 -176594849854439e-29 -.130328335095973 -.99147088967408 -.969019344812989
 -.244878275414617 .03218912251317125 .00200586232155292 16 348 1565 0 ?741 342
 735 350 0 0 1 17 741 0 742 741 741 0 712 348 0 0 +15 742 1608 0 741 717 0 17 71
2 0 708 712 712 0 741 348 0 0 -17 740 0 743 740 740 0 744 735 0 0 +15 743 1604 0
 740 719 0 17 744 0 745 744 744 0 740 735 0 0 -15 745 1587 0 744 311 361 17 737
 0 746 737 737 0 747 732 0 0 +15 746 1596 0 737 313 0 17 747 0 748 747 747 0 737
 732 0 0 -15 748 1585 0 747 311 730 15 730 1586 0 728 311 745 17 734 0 749 734 7
34 0 750 731 0 0 +15 749 1612 0 734 716 0 17 750 0 713 750 750 0 734 731 0 0 -15
 713 1584 0 750 311 748 17 344 0 751 344 344 0 725 341 0 0 +15 751 1616 0 344 33
1 752 15 752 1617 0 347 331 340 17 347 0 752 347 347 0 753 342 0 0 +15 340 1618
 0 338 331 754 15 754 1619 0 352 331 358 17 352 0 754 352 352 0 755 345 0 0 +15
 358 1620 0 357 331 0 17 755 0 723 755 755 0 352 345 0 0 -15 723 1611 0 755 716
 749 17 753 0 711 753 753 0 347 342 0 0 -15 711 1595 0 753 313 746 15 722 1603 0
 356 719 743 17 356 0 722 356 356 0 354 353 0 0 -15 720 1607 0 359 717 742 17 35
9 0 720 359 359 0 357 324 0 0 -15 355 1615 0 354 331 751 15 332 1488 0 336 329 0
 141 319 15 756 756 234 141 756 14 319 319 234 141 317 4 309 309 14 141 316 310
 316 316 308 15 312 1531 0 757 306 367 17 757 0 312 757 757 0 21 8 0 0 -17 21 0
 301 21 21 0 757 8 0 0 +15 301 1519 0 21 10 33 40 6 280 0 1 6 .00226537849663931
5 .3541625726711355 ??.0313409578638864 -.0944163669001528 .0629326808945859 .03
631393256276065 -.0900930780545496 .073794541403661 .03828816423568145 -.0827563
86335364 .0840237915426152 .0371564555790082 -.0735095283330321 .091829373747977
5 .03327135569135295 -.0633789993362313 .0969260382965673 .03134095786388645 -.0
598701473212782 .0980715570222662 41 1 281 L.0313409578638864 -.0944163669001528
 .0629326808945859 41 1 282 L.03134095786388645 -.0598701473212782 .098071557022
2662 40 2 252 0 1 2 2450694660657935e-21 .01206746137882644 ??.03040543459551795
 -.08757077952599 .0699413005123433 .03054901935215075 -.0874047978890953 .07028
27208007297 41 1 253 L.03040543459551795 -.08757077952599 .0699413005123433 41 1
 254 L.03054901935215075 -.0874047978890953 .0702827208007297 141 245 270 245 24
5 239 141 236 223 236 236 227 19 11 458 0 1 0 7 3 S40 20 17 0 1 20 .000565209316
770652 .3525151073786335 ??.0791092534181226 -.0419284735019889 .099824181282099
7 .0788102912294828 -.03904474983189905 .0994971828691087 .0794750550238733 -.03
624514110046655 .0990156038495142 .0810247263434867 -.0338139969746691 .09846251
08063855 .0833719726009663 -.0319341932484019 .0979460488083508 .086338782050301
1 -.03084328332621825 .0976097396149327 .0895838189469336 -.0307364487229261 .09
75753316949215 .0926971279487651 -.0316630462153424 .0978650013818248 .095303151
9734298 -.0335395278186306 .0983919989101305 .0970648856817745 -.036141814769919
45 .0989946784943094 .0977768431960639 -.0390853573501883 .0995029686575639 .097
4577626617817 -.04199123032026215 .0998294182903296 .0962196509199228 -.04462544
582991325 .0999777220351653 .0941489988899566 -.0468000921709985 .09999534537654
49 .0913758443121033 -.0482658195212889 .0999538413945172 .0881845520652453 -.04
87672221434202 .0999297594671477 .0849776894981781 -.0481852224438448 .099957241
8443306 .0821462648367018 -.0465710072201063 .0999979465341682 .0800437947989849
 -.04412131985579135 .099960122370658 .0791092534181226 -.0419284735019889 .0998
241812820997 41 1 18 H.0791092534181226 -.0419284735019889 .0998241812820997 141
 13 5 13 13 4 1 0 
