**ABCDEFGHIJKLMNOPQRSTUVWXYZabcdefghijklmnopqrstuvwxyz**************************
**PARASOLID !"#$%&'()*+,-./:;<=>?@[\]^_`{|}~0123456789**************************
**PART1;MC=sparc;MC_MODEL=sun4;MC_ID=bedlam;OS=SunOS;OS_RELEASE=4.1.1;FRU=sdl_pa
rasolid_test_sparc;APPL=unknown;SITE=sdl-cambridge-u.k.;USER=regli;FORMAT=text;G
UISE=transmit;KEY=vand_plus_ex;FILE=vand_plus_ex.xmt_txt;DATE=22-jan-1993;
**PART2;SCH=SCH_401021_4039;USFLD_SIZE=0;
**PART3;
**END_OF_HEADER*****************************************************************
T50 : TRANSMIT FILE created by modeller version 40102115 SCH_401021_40390 12 1 1
103 0 0 0 0 0 1e3 1e-8 2 2 0 0 0 1 3 1e-8 0 0 102 12 2 vand_plus_ex13 3 2 0 1 0
 4 5 6 7 8 9 14 4 961 0 10 0 11 3 12 -16 5 974 0 13 0 14 8 18 6 1006 0 15 0 16 9
 52 7 1037 0 17 18 0 3 +.125 0 .125 .1736481776669305 0 .984807753012208 .125 .8
32050294337844 .554700196225229 .984807753012208 0 -.1736481776669305 38 8 1041
 0 5 19 0 0 +1e-8 18 7 20 21 22 29 9 1073 0 6 23 0 -.2528807141208375 -.07610401
88242007 .3953522546888155 29 23 1074 0 16 24 9 -.1562349128525765 -.33301160814
92135 .405266662260917 18 16 1007 0 25 6 26 23 29 24 1075 0 26 27 23 .2762991630
4035 .453075858336987 .329878069672577 18 26 1008 0 28 16 29 24 29 27 1076 0 29
 30 24 -.169499292158861 -.3462759874554975 .531907832801044 18 29 1009 0 31 26
 32 27 29 30 1077 0 32 33 27 -.0712472720394235 -.424800662632697 .5306874237413
16 18 32 1010 0 34 29 35 30 29 33 1078 0 35 36 30 .524449511943205 .347672816646
568 .3210471749179095 18 35 1011 0 37 32 38 33 29 36 1079 0 38 39 33 .5352813869
37486 .358504691640849 .444706972430897 18 38 1012 0 40 35 41 36 29 39 1080 0 41
 42 36 -.0530353850785963 -.40658877567187 .791158561791796 18 41 1013 0 43 38 4
4 39 29 42 1081 0 44 45 39 .699321997574741 -.157854877416143 .650020483915204 1
8 44 1014 0 46 41 47 42 29 45 1082 0 47 48 42 .776281542366939 -.102194100642487
4 1 18 47 1015 0 49 44 50 45 29 48 1083 0 50 51 45 .671297181522384 .31774379092
911 1 18 50 1016 0 52 47 53 48 29 51 1084 0 53 54 48 .614596129182414 .261042738
5891405 .445829628345428 18 53 1017 0 55 50 56 51 29 54 1085 0 56 57 51 -.297113
390097266 -.120336694800629 .52582505994018 18 56 1018 0 58 53 59 54 29 57 1086
 0 59 60 54 -.3118764435781115 .0416769470151623 .516715574980063 18 59 1019 0 6
1 56 62 57 29 60 1087 0 62 63 57 -.2802212051119235 .0733321854813505 .675124818
01692 18 62 1020 0 64 59 65 60 29 63 1088 0 65 66 60 .02621988282449805 .4708879
4674107 .532958159888909 18 65 1021 0 67 62 68 63 29 66 1089 0 68 69 63 .1320451
863385276 .485598576931801 .85104747871079 18 68 1022 0 70 65 71 66 29 69 1091 0
 71 72 66 .1449582512636398 .498511641856913 .46019248968747 18 71 1024 0 73 68
 74 69 29 72 1095 0 74 75 69 -.1782816494515135 -.3550583447481505 .432333390523
5045 18 74 1028 0 76 71 77 72 29 75 1096 0 77 78 72 -.3069985093177695 -.1302218
140211328 .455029645789996 18 77 1029 0 13 74 79 75 29 78 1097 0 79 80 75 .30391
7881896065 .480694577192702 .3473086030619495 18 79 1030 0 81 77 82 78 29 80 109
8 0 82 83 78 .448507465807458 .411226631968887 .32181355828896 18 82 1031 0 84 7
9 85 80 29 83 1093 0 85 86 80 -.02034469754482045 -.4036440720840435 1 18 85 102
6 0 87 82 88 83 29 86 1092 0 88 89 83 -.03877233602244215 -.392325726615716 .981
238871255019 18 88 1025 0 90 85 91 86 29 89 757 0 91 92 86 .30776196014716 .4845
38655443797 .450985251582156 18 91 755 0 93 88 94 89 29 92 744 0 94 95 89 -.0373
208263083458 -.3908742169016195 1 18 94 742 0 96 91 97 92 29 95 716 0 97 98 92 -
2 -1.823223304703365 .736519226083776 18 97 662 0 99 94 100 95 29 98 717 0 100 1
01 95 1.823223304703365 2 .2634807739162245 18 100 663 0 102 97 103 98 29 101 71
8 0 103 104 98 -1.823223304703365 -2 .736519226083776 18 103 664 0 105 100 106 1
01 29 104 719 0 106 107 101 2 1.823223304703365 .2634807739162245 18 106 665 0 1
08 103 109 104 29 107 720 0 109 110 104 -2 -2 .622455309024516 18 109 666 0 111
 106 112 107 29 110 721 0 112 113 107 2 2 .127544690975484 18 112 667 0 114 109
 115 110 29 113 722 0 115 116 110 -2 -1.82322330470336 .611519226083776 18 115 6
68 0 117 112 118 113 29 116 723 0 118 119 113 1.823223304703365 2 .1384807739162
244 18 118 669 0 120 115 121 116 29 119 725 0 121 122 116 -1.823223304703365 -2
 .611519226083776 18 121 671 0 123 118 124 119 29 122 555 0 124 125 119 2 1.8232
23304703365 .1384807739162244 18 124 553 0 126 121 127 122 29 125 511 0 127 128
 122 -.388771080111069 -.0352176895177952 1 18 127 435 0 129 124 130 125 29 128
 512 0 130 131 125 -2 1.576011230371135 1 18 130 436 0 132 127 133 128 29 131 51
3 0 133 134 128 .160267025565589 .513820416158863 1 18 133 437 0 135 130 136 131
 29 134 514 0 136 137 131 -1.325912558275548 2 1 18 136 438 0 138 133 139 134 29
 137 517 0 139 140 134 -2 2 .284494731290749 18 139 441 0 141 136 142 137 29 140
 525 0 142 143 137 -.4389299783298015 -.0853765877365275 .735265505034664 18 142
 449 0 144 139 145 140 29 143 526 0 145 146 140 -2 1.372814602906628 .4637725462
39996 18 145 450 0 147 142 148 143 29 146 524 0 149 150 143 -.0733295480893635 -
.426882938682637 .798848778792227 18 149 448 0 151 152 153 146 29 150 523 0 152
 154 146 1.083279237066254 -1.50726800669512 1 18 152 447 0 155 156 149 150 29 1
54 522 0 148 157 150 2 -1.372814602906628 .876227453760004 18 148 446 0 158 145
 156 154 29 157 516 0 156 159 154 2 -1.325912558275548 1 18 156 440 0 160 148 15
2 157 29 159 280 0 153 161 157 -1.61077463575042 2 .248260818187954 18 153 278 0
 162 149 163 159 29 161 259 0 163 164 159 2 -1.80582040222857 1 18 163 257 0 165
 153 166 161 29 164 231 0 166 167 161 -2 -1.646446609406725 1 18 166 177 0 168 1
63 169 164 29 167 232 0 169 170 164 1.646446609406725 2 1 18 169 178 0 171 166 1
72 167 29 170 233 0 172 173 167 -1.646446609406725 -2 1 18 172 179 0 174 169 175
 170 29 173 234 0 175 176 170 2 1.646446609406725 1 18 175 180 0 177 172 178 173
 29 176 237 0 178 179 173 -2 -1.646446609406725 .725583143143035 18 178 183 0 18
0 175 181 176 29 179 238 0 181 182 176 1.646446609406725 2 .274416856856965 18 1
81 184 0 183 178 184 179 29 182 240 0 184 185 179 -1.646446609406725 -2 .7255831
43143035 18 184 186 0 186 181 187 182 29 185 70 0 187 188 182 2 1.64644660940672
5 .274416856856965 18 187 68 0 189 184 190 185 29 188 52 0 190 191 185 2 -2 1 18
 190 14 0 192 187 193 188 29 191 38 0 194 195 188 -2 -2 0 18 194 8 0 196 197 198
 191 29 195 37 0 197 199 191 -2 2 0 18 197 10 0 200 193 194 195 29 199 36 0 193
 201 195 2 2 0 18 193 12 0 202 190 197 199 29 201 35 0 198 0 199 2 -2 0 18 198 7
 0 203 194 0 201 17 203 204 192 205 198 206 207 0 15 204 601 0 123 208 0 17 192
 204 209 203 190 210 211 0 17 205 204 203 111 194 212 213 0 17 206 214 215 216 1
94 203 207 0 16 207 9 0 203 217 218 219 16 217 11 0 196 220 207 221 16 218 3 0 2
02 207 0 222 30 219 39 0 207 0 222 0 +1e-8 0 -2 0 1 0 0 30 222 40 0 218 219 223
 0 +1e-8 2 0 0 0 1 0 30 223 41 0 220 222 221 0 +1e-8 0 2 0 -1 0 0 16 220 13 0 20
0 211 217 223 30 221 42 0 217 223 224 0 +1e-8 -2 0 0 0 -1 0 30 224 47 0 211 221
 225 0 +1e-8 2 -2 0 0 0 1 16 211 15 0 192 226 220 224 30 225 48 0 226 224 227 0
 +1e-8 2 2 0 0 0 1 16 226 17 0 228 229 211 225 30 227 49 0 229 225 230 0 +1e-8 -
2 2 0 0 0 1 16 229 19 0 231 213 226 227 30 230 50 0 213 227 232 0 +1e-8 -2 -2 0
 0 0 1 16 213 21 0 212 233 229 230 30 232 59 0 233 230 234 0 +1e-8 0 -2 1 -1 0 0
 16 233 31 0 209 235 213 232 30 234 67 0 235 232 236 0 +1e-8 2 0 1 0 -1 0 16 235
 65 0 237 238 233 234 30 236 74 0 238 234 239 0 +1e-8 2 1.646446609406725 0 0 0
 -1 16 238 72 0 240 241 235 236 30 239 97 0 241 236 242 0 +1e-8 -2 0 1 0 1 0 16
 241 95 0 243 244 238 239 30 242 218 0 244 239 245 0 +1e-8 .176776695296637 -.17
6776695296637 .5 .704416026402759 .704416026402759 -.0871557427476582 16 244 164
 0 246 247 241 242 30 245 216 0 247 242 248 0 +1e-8 -.176776695296637 .176776695
296637 .5 -.704416026402759 -.704416026402759 .0871557427476582 16 247 162 0 249
 250 244 245 30 248 214 0 250 245 251 0 +1e-8 2 .0231889003738108 .3748377913607
57 0 .998091908585106 -.0617457854184491 16 250 160 0 252 253 247 248 30 251 212
 0 253 248 254 0 +1e-8 -2 .03843906844157545 .621349666622302 0 -.99809190858510
6 .0617457854184491 16 253 158 0 255 256 250 251 30 254 209 0 256 251 257 0 +1e-
8 .176776695296637 -.176776695296637 1 .707106781186548 .707106781186548 0 16 25
6 155 0 258 259 253 254 30 257 208 0 259 254 260 0 +1e-8 -1.646446609406725 -2 0
 0 0 1 16 259 154 0 261 262 256 257 30 260 207 0 262 257 263 0 +1e-8 1.646446609
406725 2 0 0 0 1 16 262 153 0 264 265 259 260 30 263 206 0 265 260 266 0 +1e-8 -
.176776695296637 .176776695296637 1 -.707106781186548 -.707106781186548 0 16 265
 152 0 267 268 262 263 30 266 205 0 268 263 269 0 +1e-8 -2 -1.646446609406725 0
 0 0 -1 16 268 151 0 270 271 265 266 30 269 260 0 271 266 272 0 +1e-8 2 0 1 0 -1
 0 16 271 258 0 273 274 268 269 30 272 277 0 274 269 275 0 +1e-8 0 2 1 1 0 0 16
 274 275 0 276 277 271 272 30 275 284 0 277 272 278 0 +1e-8 -1.490783116053636 2
 .564913451072026 -.354349320006915 0 -.935113126531029 16 277 282 0 279 280 274
 275 30 278 307 0 280 275 281 0 +1e-8 -.176776695296637 .176776695296637 1 -.707
106781186548 -.707106781186548 0 16 280 305 0 282 283 277 278 30 281 329 0 283 2
78 284 0 +1e-8 -.339927781757811 -1.04376605278481 1 .950845422663705 -.30966592
0306836 0 16 283 327 0 285 286 280 281 30 284 482 0 287 281 288 0 +1e-8 .3370437
20862226 .337043720862226 1 -.707106781186548 .707106781186548 0 16 287 406 0 28
9 290 291 284 30 288 483 0 290 284 292 0 +1e-8 2 -1.490783116053636 .56491345107
2026 0 .354349320006915 .935113126531029 16 290 407 0 293 294 287 288 30 292 485
 0 294 288 295 0 +1e-8 .212852253320647 -.1407011372726266 .690403796200459 .683
01270189222 .683012701892219 -.2588190451025205 16 294 409 0 296 297 290 292 30
 295 489 0 297 292 298 0 +1e-8 2 .127849896164443 .4472699977793845 0 .961490739
904451 -.2748373283926165 16 297 413 0 299 300 294 295 30 298 493 0 291 295 301
 0 +1e-8 .2561297632095825 .2561297632095825 .572942858086555 -.724945335755873
 .677169433544083 -.126078620072519 16 291 417 0 302 287 286 298 30 301 495 0 28
6 298 303 0 +1e-8 -.2561297632095825 -.2561297632095825 .767057141913445 .724945
335755873 -.677169433544083 .126078620072519 16 286 419 0 155 291 283 301 30 303
 497 0 300 301 304 0 +1e-8 -.2561297632095825 -.2561297632095825 .76705714191344
5 .724945335755873 -.677169433544083 .126078620072519 16 300 421 0 305 306 297 3
03 30 304 487 0 306 303 307 0 +1e-8 .00907327898944812 2 .097465330603047 -.9956
94866676568 0 .0926915987235714 16 306 411 0 308 309 300 304 30 307 486 0 309 30
4 310 0 +1e-8 -2 .2262498557831935 .791512355736108 0 -.961490739904451 .2748373
283926165 16 309 410 0 311 312 306 307 30 310 479 0 312 307 313 0 +1e-8 .3370437
20862226 .337043720862226 1 -.707106781186548 .707106781186548 0 16 312 403 0 31
4 315 309 310 30 313 478 0 315 310 316 0 +1e-8 .0493010297125172 .40285442030579
1 .4143306987648775 -.1830127018922195 -.1830127018922195 -.965925826289068 16 3
15 402 0 317 318 312 313 30 316 477 0 318 313 319 0 +1e-8 -2 1.04676513736245 -.
3966584406822795 0 .354349320006915 .935113126531029 16 318 401 0 320 321 315 31
6 30 319 476 0 321 316 322 0 +1e-8 -.211994384814432 -.211994384814432 1 .707106
781186548 -.707106781186548 0 16 321 400 0 323 324 318 319 30 322 475 0 324 319
 325 0 +1e-8 -.462958496706648 -.1094051061133736 .608444982591768 .183012701892
2195 .1830127018922195 .965925826289068 16 324 399 0 129 326 321 322 30 325 559
 0 326 322 327 0 +1e-8 2 1.823223304703365 0 0 0 -1 16 326 557 0 328 329 324 325
 30 327 565 0 329 325 330 0 +1e-8 .0231889003738108 2 .374837791360757 -.9980919
08585106 0 .0617457854184491 16 329 563 0 331 332 326 327 30 330 595 0 332 327 3
33 0 +1e-8 .03843906844157545 -2 .621349666622302 .998091908585106 0 -.061745785
4184491 16 332 593 0 334 335 329 330 30 333 703 0 335 330 336 0 +1e-8 .088388347
6483184 -.0883883476483185 .375 .704416026402759 .704416026402759 -.087155742747
6582 16 335 649 0 337 338 332 333 30 336 701 0 338 333 339 0 +1e-8 -.08838834764
83184 .0883883476483185 .375 -.704416026402759 -.704416026402759 .08715574274765
82 16 338 647 0 340 341 335 336 30 339 699 0 341 336 342 0 +1e-8 2 .015485404271
8875 .2503143591128745 0 .998091908585106 -.0617457854184491 16 341 645 0 343 34
4 338 339 30 342 698 0 344 339 345 0 +1e-8 .0154854042718875 2 .2503143591128745
 -.998091908585106 0 .0617457854184491 16 344 644 0 346 347 341 342 30 345 697 0
 347 342 348 0 +1e-8 -2 .03073557233965215 .49682623437442 0 -.998091908585106 .
0617457854184491 16 347 643 0 349 350 344 345 30 348 696 0 350 345 351 0 +1e-8 .
03073557233965215 -2 .49682623437442 .998091908585106 0 -.0617457854184491 16 35
0 642 0 352 353 347 348 30 351 694 0 353 348 354 0 +1e-8 .0883883476483184 -.088
3883476483185 .5 -.704416026402759 -.704416026402759 .0871557427476582 16 353 64
0 0 355 356 350 351 30 354 693 0 356 351 357 0 +1e-8 -1.823223304703365 -2 0 0 0
 1 16 356 639 0 358 359 353 354 30 357 692 0 359 354 360 0 +1e-8 1.8232233047033
65 2 0 0 0 1 16 359 638 0 361 362 356 357 30 360 691 0 362 357 363 0 +1e-8 -.088
3883476483184 .0883883476483185 .5 .704416026402759 .704416026402759 -.087155742
7476582 16 362 637 0 364 365 359 360 30 363 690 0 365 360 366 0 +1e-8 -2 -1.8232
23304703365 0 0 0 -1 16 365 636 0 367 368 362 363 30 366 741 0 368 363 369 0 +1e
-8 -.211994384814432 -.211994384814432 1 .707106781186548 -.707106781186548 0 16
 368 739 0 370 371 365 366 30 369 758 0 371 366 372 0 +1e-8 -.0883883476483184 .
0883883476483185 .5 .704416026402759 .704416026402759 -.0871557427476582 16 371
 756 0 102 373 368 369 30 372 766 0 373 369 374 0 +1e-8 -.176776695296637 .17677
6695296637 .5 -.704416026402759 -.704416026402759 .0871557427476582 16 373 764 0
 375 376 371 372 30 374 780 0 376 372 377 0 +1e-8 -.1094051061133736 -.462958496
706647 .608444982591768 -.1830127018922195 -.1830127018922195 -.965925826289068
 16 376 778 0 151 378 373 374 30 377 788 0 378 374 379 0 +1e-8 .176776695296637
 -.176776695296637 1 .707106781186548 .707106781186548 0 16 378 786 0 380 381 37
6 377 30 379 796 0 381 377 382 0 +1e-8 .176776695296637 -.176776695296637 .5 .70
4416026402759 .704416026402759 -.0871557427476582 16 381 794 0 383 384 378 379 3
2 382 809 0 384 379 385 0 +1e-8 .353553390593274 0 1.42119068888362 .70710678118
6548 -.707106781186548 0 .0874861007547339 .0874861007547339 .992316665359131 4.
072065659927795 .5 16 384 807 0 90 386 381 382 30 385 815 0 386 382 387 0 +1e-8
 -.1527481769197905 .200805213673483 .626820522442896 -.68301270189222 -.6830127
01892219 .2588190451025205 16 386 813 0 144 388 384 385 30 387 861 0 388 385 389
 0 +1e-8 .2561297632095825 .2561297632095825 .572942858086555 -.724945335755873
 .677169433544083 -.126078620072519 16 388 859 0 390 391 386 387 30 389 879 0 39
1 387 392 0 +1e-8 .0883883476483184 -.0883883476483185 .5 -.704416026402759 -.70
4416026402759 .0871557427476582 16 391 877 0 105 393 388 389 30 392 897 0 393 38
9 394 0 +1e-8 .0883883476483184 -.0883883476483185 .375 .704416026402759 .704416
026402759 -.0871557427476582 16 393 895 0 395 396 391 392 30 394 905 0 396 392 3
97 0 +1e-8 -.0883883476483184 .0883883476483185 .375 -.704416026402759 -.7044160
26402759 .0871557427476582 16 396 903 0 398 399 393 394 32 397 946 0 399 394 400
 0 +1e-8 -.176776695296637 0 -1.58646068562013 -.707106781186548 .70710678118654
8 0 .0874861007547339 .0874861007547339 .992316665359131 4.072065659927795 .5 16
 399 944 0 401 402 396 397 32 400 1064 0 402 397 403 0 +1e-8 .891329394317054 0
 4.47106996182896 -.683012701892219 -.683012701892219 .258819045102521 .26924331
78367385 .0939597328336293 .958477753735629 3.668833715619555 .5 16 402 997 0 87
 404 399 400 32 403 1066 0 404 400 405 0 +1e-8 .279286108119907 0 1 0 0 1 1 0 0
 .507713305942873 .5 16 404 999 0 406 407 402 403 31 405 1070 0 407 403 408 0 +1
e-8 .125 0 .125 .1736481776669305 0 .984807753012208 .984807753012208 0 -.173648
1776669305 .125 16 407 1003 0 409 410 404 405 31 408 1069 0 410 405 411 0 +1e-8
 .1684120444167325 0 .371201938253052 .1736481776669305 0 .984807753012208 .9848
07753012208 0 -.1736481776669305 .5 16 410 1002 0 412 413 407 408 31 411 1067 0
 413 408 414 0 +1e-8 .1684120444167325 0 .371201938253052 .1736481776669305 0 .9
84807753012208 .984807753012208 0 -.1736481776669305 .5 16 413 1000 0 415 416 41
0 411 32 414 1063 0 416 411 417 0 +1e-8 .189060298519234 0 .488304006351414 -.06
16284167162194 -.0616284167162194 -.996194698091746 .87846996924992 -.4771521039
06783 -.02482705909638625 .504153252585759 .5 16 416 996 0 93 418 413 414 32 417
 1062 0 418 414 419 0 +1e-8 -.353553390593274 0 -2.589011143788045 -.70710678118
6548 .707106781186548 0 .0874861007547339 .0874861007547339 .992316665359131 4.0
72065659927795 .5 16 418 995 0 73 420 416 417 32 419 1061 0 420 417 421 0 +1e-8
 -.0643000390034388 0 -.948573869653125 .683012701892219 .683012701892219 -.2588
19045102521 .2692433178367385 .0939597328336293 .958477753735629 3.6688337156195
55 .5 16 420 994 0 70 422 418 419 32 421 1059 0 422 419 423 0 +1e-8 .21752755552
94675 0 .649749843487939 -.0891510472159206 -.273742958498435 -.957662196942549
 .309676708836411 -.92145519559338 .2345648279649245 .521597216150017 .5 16 422
 992 0 67 424 420 421 32 423 1058 0 424 421 425 0 +1e-8 -.353553390593274 0 -2.5
89011143788045 -.707106781186548 .707106781186548 0 .0874861007547339 .087486100
7547339 .992316665359131 4.072065659927795 .5 16 424 991 0 64 426 422 423 32 425
 1057 0 426 423 427 0 +1e-8 .189060298519234 0 .488304006351414 -.06162841671621
94 -.0616284167162194 -.996194698091746 .87846996924992 -.477152103906783 -.0248
2705909638625 .504153252585759 .5 16 426 990 0 61 428 424 425 32 427 1056 0 428
 425 429 0 +1e-8 -.176776695296637 0 -1.58646068562013 -.707106781186548 .707106
781186548 0 .0874861007547339 .0874861007547339 .992316665359131 4.0720656599277
95 .5 16 428 989 0 58 430 426 427 32 429 1055 0 430 427 431 0 +1e-8 .35355339059
3274 0 1.42119068888362 .707106781186548 -.707106781186548 0 .0874861007547339 .
0874861007547339 .992316665359131 4.072065659927795 .5 16 430 988 0 52 432 428 4
29 32 431 1054 0 432 429 433 0 +1e-8 .279286108119907 0 1 0 0 1 1 0 0 .507713305
942873 .5 16 432 987 0 434 435 430 431 32 433 1053 0 435 431 436 0 +1e-8 -.06430
00390034388 0 -.948573869653125 .683012701892219 .683012701892219 -.258819045102
521 .2692433178367385 .0939597328336293 .958477753735629 3.668833715619555 .5 16
 435 986 0 46 437 432 433 32 436 1052 0 437 433 438 0 +1e-8 .2175275555294675 0
 .649749843487939 -.0891510472159206 -.273742958498435 -.957662196942549 .309676
708836411 -.92145519559338 .2345648279649245 .521597216150017 .5 16 437 985 0 43
 439 435 436 32 438 1051 0 439 436 440 0 +1e-8 .189060298519234 0 .4883040063514
14 -.0616284167162194 -.0616284167162194 -.996194698091746 .87846996924992 -.477
152103906783 -.02482705909638625 .504153252585759 .5 16 439 984 0 55 441 437 438
 32 440 1050 0 441 438 442 0 +1e-8 .176776695296637 0 .4186402307157025 .7071067
81186548 -.707106781186548 0 .0874861007547339 .0874861007547339 .99231666535913
1 4.072065659927795 .5 16 441 983 0 40 443 439 440 32 442 1049 0 443 440 444 0 +
1e-8 .353553390593274 0 1.42119068888362 .707106781186548 -.707106781186548 0 .0
874861007547339 .0874861007547339 .992316665359131 4.072065659927795 .5 16 443 9
82 0 34 445 441 442 32 444 1048 0 445 442 446 0 +1e-8 .189060298519234 0 .488304
006351414 -.0616284167162194 -.0616284167162194 -.996194698091746 .8784699692499
2 -.477152103906783 -.02482705909638625 .504153252585759 .5 16 445 981 0 31 447
 443 444 32 446 1047 0 447 444 448 0 +1e-8 .167257259193317 0 .364652825809931 -
.0616284167162194 -.0616284167162194 -.996194698091746 .87846996924992 -.4771521
03906783 -.02482705909638625 .504153252585759 .5 16 447 980 0 37 449 445 446 32
 448 1046 0 449 446 450 0 +1e-8 .176776695296637 0 .4186402307157025 .7071067811
86548 -.707106781186548 0 .0874861007547339 .0874861007547339 .992316665359131 4
.072065659927795 .5 16 449 979 0 76 451 447 448 32 450 1045 0 451 448 452 0 +1e-
8 .2546283584517715 -.0474567205381152 .3621835695797405 -.0616284167162194 -.06
16284167162194 -.996194698091746 .87846996924992 -.477152103906783 -.02482705909
638625 .513364051485528 .499488468078436 16 451 978 0 84 453 449 450 38 452 1044
 0 453 450 454 0 +1e-8 18 7 455 456 457 16 453 977 0 28 458 451 452 32 454 1043
 0 458 452 19 0 +1e-8 .2546283584517715 -.0474567205381152 .3621835695797405 -.0
616284167162194 -.0616284167162194 -.996194698091746 .87846996924992 -.477152103
906783 -.02482705909638625 .513364051485528 .499488468078436 50 18 0 0 3 459 7 2
 +-.0883883476483184 .0883883476483185 .375 -.707106781186548 .707106781186548 0
 .0616284167162194 .0616284167162194 .996194698091746 40 6 455 0 6 .078822327778
9422 .362706746707787 ??.323223504703363 .5000002 .359687104748797 .158401170388
9025 .3351778656855395 .2614759669777415 .0354686710216321 .212245366318269 .216
1700548301765 -.0474297578492576 .1293469374473792 .2247837645812015 -.148345848
9248152 .0284308463718216 .291271142492085 -.541758671302146 -.364981976005509 .
729678981790554 41 1 456 L.323223504703363 .5000002 .359687104748797 41 1 457 L-
.541758671302146 -.364981976005509 .729678981790554 50 459 0 0 3 12 18 1 +.08838
83476483184 -.0883883476483185 .375 .707106781186548 -.707106781186548 0 -.06162
84167162194 -.0616284167162194 -.996194698091746 51 12 1035 0 4 460 459 0 +.1684
120444167325 0 .371201938253052 .1736481776669305 0 .984807753012208 .5 .9848077
53012208 0 -.1736481776669305 51 460 1036 0 10 461 12 0 +.1684120444167325 0 .37
1201938253052 .1736481776669305 0 .984807753012208 .5 .984807753012208 0 -.17364
81776669305 14 10 963 0 462 4 463 3 460 -50 461 1038 0 462 464 460 0 +.125 0 .12
5 -.1736481776669305 0 -.984807753012208 -.984807753012208 0 .1736481776669305 1
4 462 965 0 17 10 465 3 461 -51 464 1039 0 466 467 461 0 +.1684120444167325 0 .3
71201938253052 .1736481776669305 0 .984807753012208 .5 .984807753012208 0 -.1736
481776669305 14 466 972 0 468 17 469 3 464 -50 467 680 0 470 471 464 0 +-.088388
3476483184 .0883883476483185 .375 -.707106781186548 .707106781186548 0 .06162841
67162194 .0616284167162194 .996194698091746 14 470 616 0 472 473 474 3 467 -50 4
71 681 0 472 475 467 0 +.0883883476483184 -.0883883476483185 .375 .7071067811865
48 -.707106781186548 0 -.0616284167162194 -.0616284167162194 -.996194698091746 1
4 472 618 0 476 470 477 3 471 -50 475 942 0 468 478 471 0 +-.0883883476483184 .0
883883476483185 .375 -.707106781186548 .707106781186548 0 .0616284167162194 .061
6284167162194 .996194698091746 14 468 941 0 479 466 480 3 475 -50 478 924 0 479
 481 475 0 +.0883883476483184 -.0883883476483185 .375 .707106781186548 -.7071067
81186548 0 -.0616284167162194 -.0616284167162194 -.996194698091746 14 479 923 0
 482 468 483 3 478 -50 481 914 0 482 484 478 0 +0 0 .375 -.0616284167162194 -.06
16284167162194 -.996194698091746 -.704416026402759 -.704416026402759 .0871557427
476582 14 482 913 0 485 479 486 3 481 -50 484 884 0 485 487 481 0 +0 0 .5 -.0616
284167162194 -.0616284167162194 -.996194698091746 -.704416026402759 -.7044160264
02759 .0871557427476582 14 485 883 0 488 482 489 3 484 -50 487 824 0 488 490 484
 0 +-.176776695296637 .176776695296637 .5 -.707106781186548 .707106781186548 0 .
0616284167162194 .0616284167162194 .996194698091746 14 488 823 0 491 485 492 3 4
87 -50 490 801 0 491 493 487 0 +.176776695296637 -.176776695296637 .5 .707106781
186548 -.707106781186548 0 -.0616284167162194 -.0616284167162194 -.9961946980917
46 14 491 800 0 473 488 494 3 490 -50 493 771 0 473 495 490 0 +0 0 .5 -.06162841
67162194 -.0616284167162194 -.996194698091746 -.704416026402759 -.70441602640275
9 .0871557427476582 14 473 770 0 470 491 496 3 493 -50 495 682 0 476 497 493 0 +
0 0 .375 -.0616284167162194 -.0616284167162194 -.996194698091746 -.7044160264027
59 -.704416026402759 .0871557427476582 14 476 620 0 498 472 499 3 495 -50 497 60
9 0 498 500 495 0 +0 0 .5 -.0616284167162194 -.0616284167162194 -.99619469809174
6 -.704416026402759 -.704416026402759 .0871557427476582 14 498 608 0 501 476 502
 3 497 -50 500 462 0 501 503 497 0 +.2561297632095825 .2561297632095825 .5729428
58086555 .683012701892219 .683012701892219 -.258819045102521 .0891510472159206 .
273742958498435 .957662196942549 14 501 375 0 504 498 505 3 500 -50 503 464 0 50
4 506 500 0 +0 0 .67 -.0891510472159206 -.273742958498435 -.957662196942549 -.72
4945335755873 .677169433544083 -.126078620072519 14 504 379 0 507 501 508 3 503
 -50 506 468 0 507 509 503 0 +-.2561297632095825 -.2561297632095825 .76705714191
3445 -.683012701892219 -.683012701892219 .258819045102521 -.0891510472159206 -.2
73742958498435 -.957662196942549 14 507 387 0 510 504 511 3 506 -50 509 470 0 51
2 513 506 0 +.2561297632095825 .2561297632095825 .572942858086555 .6830127018922
19 .683012701892219 -.258819045102521 .0891510472159206 .273742958498435 .957662
196942549 14 512 391 0 514 510 515 3 509 -50 513 465 0 510 516 509 0 +0 0 .67 -.
0891510472159206 -.273742958498435 -.957662196942549 -.724945335755873 .67716943
3544083 -.126078620072519 14 510 381 0 512 507 517 3 513 -50 516 460 0 514 518 5
13 0 +-.2561297632095825 -.2561297632095825 .767057141913445 -.683012701892219 -
.683012701892219 .258819045102521 -.0891510472159206 -.273742958498435 -.9576621
96942549 14 514 371 0 519 512 520 3 516 -50 518 334 0 519 521 516 0 +0 0 1 0 0 1
 1 0 0 14 519 333 0 522 514 523 3 518 +50 521 312 0 522 524 518 0 +0 0 1 0 0 1 1
 0 0 14 522 311 0 525 519 526 3 521 +50 524 195 0 525 527 521 0 +-.1767766952966
37 .176776695296637 .5 -.707106781186548 .707106781186548 0 .0616284167162194 .0
616284167162194 .996194698091746 14 525 131 0 528 522 529 3 524 -50 527 196 0 52
8 530 524 0 +.176776695296637 -.176776695296637 .5 .707106781186548 -.7071067811
86548 0 -.0616284167162194 -.0616284167162194 -.996194698091746 14 528 133 0 531
 525 532 3 527 -50 530 197 0 531 533 527 0 +0 0 .5 -.0616284167162194 -.06162841
67162194 -.996194698091746 -.704416026402759 -.704416026402759 .0871557427476582
 14 531 135 0 534 528 535 3 530 -50 533 124 0 534 536 530 0 +0 0 1 0 0 1 1 0 0 1
4 534 123 0 537 531 538 3 533 +50 536 51 0 537 539 533 0 +0 0 1 0 0 1 1 0 0 14 5
37 33 0 208 534 540 3 536 +50 539 46 0 208 541 536 0 +0 -2 0 0 -1 0 0 0 -1 14 20
8 30 0 542 537 204 3 539 +50 541 45 0 542 543 539 0 +-2 0 0 -1 0 0 0 0 1 14 542
 27 0 544 208 545 3 541 +50 543 44 0 544 546 541 0 +0 2 0 0 1 0 0 0 1 14 544 24
 0 547 542 548 3 543 +50 546 43 0 549 550 543 0 +2 0 0 1 0 0 0 0 -1 14 549 1 0 0
 547 551 3 546 +50 550 34 0 547 0 546 0 +0 0 0 0 0 -1 -1 0 0 14 547 6 0 549 544
 214 3 550 +15 214 5 0 216 547 0 17 216 214 206 552 198 202 218 0 17 552 214 216
 215 193 200 220 0 17 202 551 228 210 193 216 218 0 15 551 558 0 108 549 0 17 22
8 551 126 202 112 553 226 0 17 210 551 202 273 198 192 211 0 17 273 551 210 165
 190 554 271 0 17 165 551 273 158 163 299 297 0 17 554 538 555 556 163 273 271 0
 15 538 747 0 96 534 0 17 555 538 557 554 152 285 283 0 17 556 538 554 174 190 2
09 233 0 17 174 538 556 96 172 258 256 0 17 209 204 186 192 172 556 233 0 17 186
 204 558 209 184 261 259 0 17 558 204 123 186 103 334 332 0 17 261 494 258 559 1
72 186 259 0 15 494 798 0 258 491 0 17 258 494 90 261 94 174 256 0 17 559 494 26
1 34 184 246 244 0 17 34 494 559 296 32 560 443 0 17 246 489 31 334 32 559 244 0
 15 489 881 0 246 485 0 17 31 489 105 246 29 561 445 0 17 334 489 246 105 184 55
8 332 0 17 105 489 334 31 103 562 391 0 17 562 483 76 358 29 105 391 0 15 483 92
1 0 76 479 0 17 76 483 25 562 74 563 449 0 17 358 483 562 564 103 123 356 0 17 5
64 483 358 25 121 337 335 0 17 123 204 111 558 121 358 356 0 17 111 204 205 123
 109 352 350 0 17 352 486 337 349 121 111 350 0 15 486 911 0 337 482 0 17 337 48
6 15 352 16 564 335 0 17 349 486 352 398 109 117 347 0 17 398 486 349 15 115 565
 396 0 17 117 545 99 212 115 349 347 0 15 545 588 0 99 542 0 17 99 545 180 117 9
7 367 365 0 17 212 545 117 196 109 205 213 0 17 196 545 212 566 194 215 217 0 17
 566 545 196 141 197 231 229 0 17 215 214 552 206 197 196 217 0 17 141 545 566 1
47 139 311 309 0 17 231 548 162 200 139 566 229 0 15 548 571 0 120 544 0 17 162
 548 138 231 153 308 306 0 17 200 548 231 553 197 552 220 0 17 553 548 200 114 1
93 228 226 0 17 114 548 553 120 112 346 344 0 17 120 548 114 567 118 361 359 0 1
7 346 499 340 343 118 114 344 0 15 499 621 0 340 476 0 17 340 499 84 346 26 568
 338 0 17 343 499 346 395 112 126 341 0 17 395 499 343 37 124 569 393 0 17 126 5
51 108 228 124 343 341 0 17 108 551 189 126 106 328 326 0 17 189 551 177 108 187
 252 250 0 17 328 477 569 570 124 108 326 0 15 477 619 0 569 472 0 17 569 477 40
 328 35 395 393 0 17 570 477 328 40 106 355 353 0 17 40 477 570 569 38 571 441 0
 17 355 502 55 252 38 570 353 0 15 502 606 0 355 498 0 17 55 502 383 355 53 572
 439 0 17 252 502 355 383 106 189 250 0 17 383 502 252 55 187 573 381 0 17 573 5
32 52 240 53 383 381 0 15 532 341 0 573 528 0 17 52 532 380 573 50 574 430 0 17
 240 532 573 380 187 177 238 0 17 380 532 240 52 175 575 378 0 17 177 551 237 18
9 175 240 238 0 17 237 551 158 177 156 576 235 0 17 158 551 165 237 148 293 290
 0 17 576 523 575 160 175 237 235 0 15 523 835 0 49 519 0 17 575 523 49 576 50 3
80 378 0 17 160 523 576 49 156 289 287 0 17 49 523 160 575 47 434 432 0 17 289 5
15 46 293 47 160 287 0 15 515 392 0 289 512 0 17 46 515 577 289 44 578 435 0 17
 293 515 289 577 156 158 290 0 17 577 515 293 46 148 302 291 0 17 302 517 43 299
 44 577 291 0 15 517 382 0 302 510 0 17 43 517 579 302 41 580 437 0 17 299 517 3
02 285 148 165 297 0 17 285 517 299 155 163 555 283 0 17 155 517 285 579 152 581
 286 0 17 579 517 155 43 149 296 294 0 17 581 520 582 370 149 155 286 0 15 520 3
72 0 582 514 0 17 582 520 87 581 88 151 376 0 17 370 520 581 87 152 557 368 0 17
 87 520 370 582 85 583 402 0 17 557 538 96 555 85 370 368 0 17 96 538 174 557 94
 406 404 0 17 406 469 583 584 85 96 404 0 15 469 973 0 584 466 0 17 583 469 584
 406 88 87 402 0 17 584 469 406 583 94 90 384 0 17 90 494 151 258 88 584 384 0 1
7 151 494 296 90 149 582 376 0 17 296 494 34 151 41 579 294 0 17 580 11 578 560
 44 43 437 0 15 11 962 0 561 4 0 17 578 11 434 580 47 46 435 0 17 560 11 580 561
 41 34 443 0 17 561 11 560 563 32 31 445 0 17 563 11 561 585 29 76 449 0 17 585
 11 563 586 74 415 413 0 17 586 11 585 571 82 37 447 0 17 415 587 588 589 82 585
 413 0 15 587 969 0 590 17 0 17 588 587 81 415 26 84 451 0 17 589 587 415 590 74
 25 14 0 17 590 587 589 591 16 15 458 0 17 25 483 564 76 16 589 14 0 16 14 975 0
 25 5 458 19 16 458 976 0 15 14 453 454 38 19 1042 0 14 454 8 0 +1e-8 459 7 592
 593 594 40 4 592 0 4 .0408150021432158 .3270786534150635 ??-.1991975921296555 -
.3759742874262925 .458026227086517 -.0442772829359311 -.221053978232568 .2682511
653659125 .04134920310924145 -.1354274921873954 .1649520690424595 .1325603555354
98 -.0442163397611389 .0710705209080732 41 1 593 L-.1991975921296555 -.375974287
4262925 .458026227086517 41 1 594 L.132560355535498 -.0442163397611389 .07107052
09080732 17 15 486 398 337 6 590 458 0 17 591 587 590 412 6 13 5 0 17 412 587 59
1 81 77 595 410 0 17 13 474 58 565 77 591 5 0 15 474 617 0 565 470 0 17 58 474 5
96 13 56 597 428 0 17 565 474 13 367 6 398 396 0 17 367 474 565 596 115 99 365 0
 17 596 474 367 58 97 364 362 0 17 364 496 61 255 56 596 362 0 15 496 768 0 364
 473 0 17 61 496 375 364 59 598 426 0 17 255 496 364 375 97 180 253 0 17 375 496
 255 61 178 599 373 0 17 180 545 168 99 178 255 253 0 17 168 545 243 180 166 270
 268 0 17 243 545 147 168 130 600 241 0 17 270 529 599 282 178 168 268 0 15 529
 132 0 599 525 0 17 599 529 64 270 59 375 373 0 17 282 529 270 129 166 601 280 0
 17 129 529 282 144 127 602 324 0 17 601 526 132 600 127 282 280 0 15 526 314 0
 132 522 0 17 132 526 600 601 130 323 321 0 17 600 526 601 132 166 243 241 0 17
 323 511 602 320 127 132 321 0 15 511 388 0 603 507 0 17 602 511 603 323 142 129
 324 0 17 320 511 323 603 130 147 318 0 17 603 511 320 602 145 305 300 0 17 147
 545 141 243 145 320 318 0 17 305 508 604 311 142 603 300 0 15 508 380 0 604 504
 0 17 604 508 67 305 62 144 386 0 17 311 508 305 308 145 141 309 0 17 308 508 31
1 390 139 162 306 0 17 390 508 308 67 153 605 388 0 17 67 508 390 604 65 606 422
 0 17 605 505 70 279 65 390 388 0 15 505 376 0 605 501 0 17 70 505 607 605 68 60
8 420 0 17 279 505 605 314 153 138 277 0 17 314 505 279 607 136 135 312 0 17 138
 548 276 162 136 279 277 0 17 276 548 183 138 169 609 274 0 17 183 548 567 276 1
81 264 262 0 17 609 540 135 171 136 276 274 0 15 540 309 0 135 537 0 17 135 540
 171 609 133 314 312 0 17 171 540 609 135 169 267 265 0 17 267 492 317 264 133 1
71 265 0 15 492 821 0 317 488 0 17 317 492 73 267 68 607 315 0 17 264 492 267 61
0 169 183 262 0 17 610 492 264 73 181 249 247 0 17 73 492 610 317 71 611 418 0 1
7 249 535 93 331 71 610 247 0 15 535 136 0 249 531 0 17 93 535 102 249 91 612 41
6 0 17 331 535 249 102 181 567 329 0 17 102 535 331 93 100 613 371 0 17 567 548
 120 183 100 331 329 0 17 613 480 401 361 91 102 371 0 15 480 939 0 401 468 0 17
 401 480 28 613 79 614 399 0 17 361 480 613 568 100 120 359 0 17 568 480 361 28
 118 340 338 0 17 28 480 568 401 26 81 453 0 17 81 587 412 588 79 28 453 0 17 61
4 463 612 595 91 401 399 0 15 463 964 0 595 10 0 17 612 463 611 614 71 93 416 0
 17 595 463 614 597 79 412 410 0 17 597 463 595 598 77 58 428 0 17 598 463 597 6
15 56 61 426 0 17 615 463 598 606 59 64 424 0 17 606 463 615 608 62 67 422 0 17
 64 529 144 599 62 615 424 0 17 144 529 129 64 142 604 386 0 17 608 463 606 611
 65 70 420 0 17 611 463 608 612 68 73 418 0 17 607 505 314 70 133 317 315 0 17 8
4 499 37 340 82 588 451 0 17 37 499 395 84 35 586 447 0 14 17 967 0 466 462 616
 3 7 -15 616 968 0 617 17 587 17 617 616 617 617 0 409 407 0 17 409 465 409 409
 0 617 407 0 15 465 966 0 409 462 0 17 571 11 586 572 35 40 441 0 17 572 11 571
 574 38 55 439 0 17 574 11 572 434 53 52 430 0 17 434 11 574 578 50 49 432 0 40
 6 20 0 6 .0788223277789422 .362706746707787 ??.323223504703363 .5000002 .359687
104748797 .1584011703889025 .3351778656855395 .2614759669777415 .035468671021632
1 .212245366318269 .2161700548301765 -.0474297578492576 .1293469374473792 .22478
37645812015 -.1483458489248152 .0284308463718216 .291271142492085 -.541758671302
146 -.364981976005509 .729678981790554 41 1 21 L.323223504703363 .5000002 .35968
7104748797 41 1 22 L-.541758671302146 -.364981976005509 .729678981790554 1 0 
