600 0 1 0           
92 GICL ACIS Healer - Source: /gicl/data5/repository/PTC/V18/fly_small18/base_ccd.prt.sat - 6 0 18 ACIS 6.0.3 Solaris 24 Sat Apr 13 22:07:46 2002 
1 9.999999999999999547e-07 1.000000000000000036e-10 
body $-1 $1 $-1 $-1 #
lump $-1 $-1 $2 $0 #
shell $-1 $-1 $-1 $3 $-1 $1 #
face $-1 $4 $5 $2 $-1 $6 reversed single #
face $-1 $7 $8 $2 $-1 $9 reversed single #
loop $-1 $10 $11 $3 #
plane-surface $-1 0 0 0 0 0 -1 -1 0 0 forward_v I I I I #
face $-1 $12 $13 $2 $-1 $14 reversed single #
loop $-1 $-1 $15 $4 #
cone-surface $-1 0 -11 0 0 0 -1 -1 0 0 1 I I 0 1 1 forward I I I I #
loop $-1 $-1 $16 $3 #
coedge $-1 $17 $17 $18 $19 forward $5 $-1 #
face $-1 $20 $21 $2 $-1 $22 forward single #
loop $-1 $-1 $23 $7 #
cone-surface $-1 0 -11 0 0 0 -1 -1 0 0 1 I I 0 1 1 forward I I I I #
coedge $-1 $18 $24 $25 $26 reversed $8 $-1 #
coedge $-1 $27 $28 $29 $30 reversed $10 $-1 #
coedge $-1 $11 $11 $31 $32 forward $5 $-1 #
coedge $-1 $33 $15 $11 $19 reversed $8 $-1 #
edge $-1 $34 0 $35 3.141592653589793116 $11 $36 forward 7 unknown #
face $-1 $37 $38 $2 $-1 $39 reversed single #
loop $-1 $40 $41 $12 #
plane-surface $-1 0 0 -4 0 0 -1 -1 0 0 forward_v I I I I #
coedge $-1 $31 $42 $33 $43 reversed $13 $-1 #
coedge $-1 $15 $33 $44 $45 forward $8 $-1 #
coedge $-1 $42 $31 $15 $26 forward $13 $-1 #
edge $-1 $35 0 $46 4 $25 $47 forward 7 unknown #
coedge $-1 $48 $16 $49 $50 reversed $10 $-1 #
coedge $-1 $16 $51 $52 $53 forward $10 $-1 #
coedge $-1 $54 $55 $16 $30 forward $56 $-1 #
edge $-1 $57 0 $58 4 $16 $59 forward 7 unknown #
coedge $-1 $25 $23 $17 $32 reversed $13 $-1 #
edge $-1 $35 0 $34 3.141592653589793116 $17 $60 forward 7 unknown #
coedge $-1 $24 $18 $23 $43 forward $8 $-1 #
vertex $-1 $32 $61 #
vertex $-1 $32 $62 #
ellipse-curve $-1 0 -11 0 0 0 -1 1 0 0 1 I I #
face $-1 $63 $64 $2 $-1 $65 forward single #
loop $-1 $-1 $66 $20 #
cone-surface $-1 0 -11 -7 0 0 -1 -2 0 0 1 I I 0 1 2 forward I I I I #
loop $-1 $-1 $44 $12 #
coedge $-1 $67 $67 $68 $69 forward $21 $-1 #
coedge $-1 $23 $25 $70 $71 forward $13 $-1 #
edge $-1 $34 0 $72 4 $23 $73 forward 7 unknown #
coedge $-1 $70 $70 $24 $45 reversed $40 $-1 #
edge $-1 $72 0 $46 3.141592653589796669 $24 $74 forward 7 unknown #
vertex $-1 $71 $75 #
straight-curve $-1 -1 -11 0 0 0 -1 I I #
coedge $-1 $76 $27 $77 $78 reversed $10 $-1 #
coedge $-1 $79 $80 $27 $50 forward $81 $-1 #
edge $-1 $82 0 $57 3.141592653589793116 $27 $83 forward 7 unknown #
coedge $-1 $28 $84 $85 $86 reversed $10 $-1 #
coedge $-1 $87 $88 $28 $53 reversed $89 $-1 #
edge $-1 $90 0 $58 22 $28 $91 forward 7 unknown #
coedge $-1 $92 $29 $88 $93 forward $56 $-1 #
coedge $-1 $29 $94 $79 $95 reversed $56 $-1 #
loop $-1 $-1 $55 $96 #
vertex $-1 $50 $97 #
vertex $-1 $53 $98 #
straight-curve $-1 -2 -11 0 -1 0 0 I I #
ellipse-curve $-1 0 -11 0 0 0 -1 -1 0 0 1 I I #
point $-1 1 -11 0 #
point $-1 -1 -11 0 #
face $-1 $96 $99 $2 $-1 $100 forward single #
loop $-1 $-1 $101 $37 #
plane-surface $-1 6 -11 0 0 -1 0 -1 0 0 forward_v I I I I #
coedge $-1 $68 $102 $103 $104 reversed $38 $-1 #
coedge $-1 $41 $41 $105 $106 forward $21 $-1 #
coedge $-1 $107 $66 $41 $69 reversed $38 $-1 #
edge $-1 $108 0 $109 3.141592653589793116 $41 $110 forward 7 unknown #
coedge $-1 $44 $44 $42 $71 reversed $40 $-1 #
edge $-1 $46 0 $72 3.141592653589796669 $42 $111 forward 7 unknown #
vertex $-1 $71 $112 #
straight-curve $-1 1 -11 0 0 0 -1 I I #
ellipse-curve $-1 -2.775557561562891351e-17 -11.00000000000000178 -4 0 0 -1 1 1.776356839400250465e-15 0 1 I I #
point $-1 -1 -11 -4 #
coedge $-1 $113 $48 $114 $115 reversed $10 $-1 #
coedge $-1 $116 $117 $48 $78 forward $64 $-1 #
edge $-1 $118 0 $82 4 $48 $119 forward 7 unknown #
coedge $-1 $105 $49 $55 $95 forward $81 $-1 #
coedge $-1 $49 $105 $116 $120 reversed $81 $-1 #
loop $-1 $-1 $80 $121 #
vertex $-1 $78 $122 #
ellipse-curve $-1 0 -11 0 0 0 -1 2 0 0 1 I I #
coedge $-1 $51 $113 $123 $124 reversed $10 $-1 #
coedge $-1 $125 $126 $51 $86 forward $127 $-1 #
edge $-1 $90 0 $128 1 $51 $129 forward 7 unknown #
coedge $-1 $130 $52 $126 $131 forward $89 $-1 #
coedge $-1 $52 $132 $54 $93 reversed $89 $-1 #
loop $-1 $-1 $132 $133 #
vertex $-1 $53 $134 #
straight-curve $-1 -6 11 0 0 -1 0 I I #
coedge $-1 $94 $54 $135 $136 reversed $56 $-1 #
edge $-1 $58 0 $137 7 $54 $138 forward 7 unknown #
coedge $-1 $55 $92 $107 $139 reversed $56 $-1 #
edge $-1 $57 0 $108 4 $79 $140 forward 7 unknown #
face $-1 $121 $56 $2 $-1 $141 forward single #
point $-1 -2 -11 0 #
point $-1 -6 -11 0 #
loop $-1 $-1 $135 $63 #
plane-surface $-1 0 0 -7 0 0 -1 -1 0 0 forward_v I I I I #
coedge $-1 $117 $103 $142 $143 reversed $64 $-1 #
coedge $-1 $66 $107 $144 $145 forward $38 $-1 #
coedge $-1 $101 $116 $66 $104 forward $64 $-1 #
edge $-1 $109 0 $146 3 $103 $147 forward 7 unknown #
coedge $-1 $80 $79 $67 $106 reversed $81 $-1 #
edge $-1 $109 0 $108 3.141592653589793116 $105 $148 forward 7 unknown #
coedge $-1 $102 $68 $94 $139 forward $38 $-1 #
vertex $-1 $106 $149 #
vertex $-1 $104 $150 #
ellipse-curve $-1 0 -11 -4 0 0 -1 -2 0 0 1 I I #
ellipse-curve $-1 0 -10.99999999999999822 -4 0 0 -1 -1 -1.776356839400250465e-15 0 1 I I #
point $-1 1 -11 -4 #
coedge $-1 $84 $76 $151 $152 reversed $10 $-1 #
coedge $-1 $153 $154 $76 $115 forward $155 $-1 #
edge $-1 $156 0 $118 17 $76 $157 forward 7 unknown #
coedge $-1 $103 $77 $80 $120 forward $64 $-1 #
coedge $-1 $77 $101 $153 $158 reversed $64 $-1 #
vertex $-1 $115 $159 #
straight-curve $-1 6 -11 0 -1 0 0 I I #
edge $-1 $82 0 $109 4 $116 $160 forward 7 unknown #
face $-1 $133 $81 $2 $-1 $161 forward single #
point $-1 2 -11 0 #
coedge $-1 $162 $163 $84 $124 forward $164 $-1 #
edge $-1 $128 0 $165 5 $84 $166 forward 7 unknown #
coedge $-1 $167 $85 $163 $168 forward $127 $-1 #
coedge $-1 $85 $167 $87 $131 reversed $127 $-1 #
loop $-1 $-1 $125 $169 #
vertex $-1 $86 $170 #
straight-curve $-1 -6 11 0 1 0 0 I I #
coedge $-1 $171 $87 $172 $173 reversed $89 $-1 #
edge $-1 $90 0 $174 2 $87 $175 forward 7 unknown #
coedge $-1 $88 $171 $176 $177 reversed $89 $-1 #
face $-1 $169 $89 $2 $-1 $178 forward single #
point $-1 -6 11 0 #
coedge $-1 $176 $144 $92 $136 forward $99 $-1 #
edge $-1 $179 0 $137 4 $135 $180 forward 7 unknown #
vertex $-1 $177 $181 #
straight-curve $-1 -6 -11 0 0 0 -1 I I #
edge $-1 $108 0 $179 3 $94 $182 forward 7 unknown #
straight-curve $-1 -2 -11 0 0 0 -1 I I #
plane-surface $-1 -2 -11 0 0 -1 0 -1 0 0 forward_v I I I I #
coedge $-1 $144 $183 $101 $143 forward $99 $-1 #
edge $-1 $184 0 $146 4 $142 $185 forward 7 unknown #
coedge $-1 $135 $142 $102 $145 reversed $99 $-1 #
edge $-1 $179 0 $146 3.141592653589793116 $144 $186 forward 7 unknown #
vertex $-1 $145 $187 #
straight-curve $-1 2 -11 -4 0 0 -1 I I #
ellipse-curve $-1 0 -11 -4 0 0 -1 2 0 0 1 I I #
point $-1 -2 -11 -4 #
point $-1 2 -11 -4 #
coedge $-1 $188 $189 $113 $152 forward $190 $-1 #
edge $-1 $165 0 $156 11 $113 $191 forward 7 unknown #
coedge $-1 $192 $114 $117 $158 forward $155 $-1 #
coedge $-1 $114 $192 $188 $193 reversed $155 $-1 #
loop $-1 $-1 $153 $194 #
vertex $-1 $152 $195 #
straight-curve $-1 6 6 0 0 -1 0 I I #
edge $-1 $118 0 $184 7 $153 $196 forward 7 unknown #
point $-1 6 -11 0 #
straight-curve $-1 2 -11 0 0 0 -1 I I #
cone-surface $-1 0 -11 0 0 0 -1 -2 0 0 1 I I 0 1 2 forward I I I I #
coedge $-1 $197 $123 $189 $198 forward $164 $-1 #
coedge $-1 $123 $197 $125 $168 reversed $164 $-1 #
loop $-1 $-1 $162 $199 #
vertex $-1 $124 $200 #
straight-curve $-1 -5 11 0 0 -1 0 I I #
coedge $-1 $126 $125 $201 $202 reversed $127 $-1 #
edge $-1 $128 0 $203 2 $125 $204 forward 7 unknown #
face $-1 $199 $127 $2 $-1 $205 forward single #
point $-1 -5 11 0 #
coedge $-1 $132 $130 $206 $207 forward $89 $-1 #
coedge $-1 $201 $208 $130 $173 forward $209 $-1 #
edge $-1 $210 0 $174 5 $130 $211 forward 7 unknown #
vertex $-1 $173 $212 #
straight-curve $-1 -6 11 0 0 0 -1 I I #
coedge $-1 $213 $135 $132 $177 forward $99 $-1 #
edge $-1 $137 0 $214 17 $176 $215 forward 7 unknown #
plane-surface $-1 -6 -11 0 -1 0 0 0 1 0 forward_v I I I I #
vertex $-1 $145 $216 #
straight-curve $-1 -2 -11 -7 -1 0 0 I I #
point $-1 -6 -11 -7 #
straight-curve $-1 -2 -11 -4 0 0 -1 I I #
coedge $-1 $142 $213 $192 $217 forward $99 $-1 #
vertex $-1 $143 $218 #
straight-curve $-1 6 -11 -7 -1 0 0 I I #
ellipse-curve $-1 0 -11 -7 0 0 -1 -2 0 0 1 I I #
point $-1 2 -11 -7 #
coedge $-1 $219 $151 $154 $193 forward $190 $-1 #
coedge $-1 $151 $220 $162 $198 reversed $190 $-1 #
loop $-1 $-1 $189 $221 #
straight-curve $-1 -5 6 0 1 0 0 I I #
coedge $-1 $154 $153 $183 $217 reversed $155 $-1 #
edge $-1 $156 0 $222 7 $154 $223 forward 7 unknown #
face $-1 $224 $155 $2 $-1 $225 forward single #
point $-1 6 6 0 #
straight-curve $-1 6 -11 0 0 0 -1 I I #
coedge $-1 $163 $162 $226 $227 reversed $164 $-1 #
edge $-1 $165 0 $228 2 $189 $229 forward 7 unknown #
face $-1 $221 $164 $2 $-1 $230 forward single #
point $-1 -5 6 0 #
coedge $-1 $226 $172 $167 $202 forward $209 $-1 #
edge $-1 $174 0 $203 1 $201 $231 forward 7 unknown #
vertex $-1 $227 $232 #
straight-curve $-1 -5 11 0 0 0 -1 I I #
plane-surface $-1 -6 11 0 0 1 0 1 0 0 forward_v I I I I #
coedge $-1 $220 $219 $171 $207 reversed $190 $-1 #
edge $-1 $210 0 $214 5 $171 $233 forward 7 unknown #
coedge $-1 $172 $226 $220 $234 forward $209 $-1 #
loop $-1 $-1 $172 $224 #
vertex $-1 $207 $235 #
straight-curve $-1 -6 6 -2 0 1 0 I I #
point $-1 -6 11 -2 #
coedge $-1 $183 $176 $219 $236 forward $99 $-1 #
vertex $-1 $236 $237 #
straight-curve $-1 -6 -11 -7 0 1 0 I I #
point $-1 -2 -11 -7 #
edge $-1 $222 0 $184 17 $183 $238 forward 7 unknown #
point $-1 6 -11 -7 #
coedge $-1 $206 $188 $213 $236 reversed $190 $-1 #
coedge $-1 $189 $206 $208 $234 reversed $190 $-1 #
face $-1 $194 $190 $2 $-1 $239 forward single #
vertex $-1 $217 $240 #
straight-curve $-1 6 6 0 0 0 -1 I I #
face $-1 $-1 $209 $2 $-1 $241 forward single #
plane-surface $-1 6 6 0 1 0 0 0 -1 0 forward_v I I I I #
coedge $-1 $208 $201 $197 $227 forward $209 $-1 #
edge $-1 $203 0 $228 5 $226 $242 forward 7 unknown #
vertex $-1 $234 $243 #
straight-curve $-1 -5 6 0 0 0 -1 I I #
plane-surface $-1 -5 11 0 1 0 0 0 -1 0 forward_v I I I I #
straight-curve $-1 -6 11 -2 1 0 0 I I #
point $-1 -5 11 -2 #
straight-curve $-1 -6 6 -2 0 0 -1 I I #
edge $-1 $228 0 $210 1 $220 $244 forward 7 unknown #
point $-1 -6 6 -2 #
edge $-1 $214 0 $222 12 $213 $245 forward 7 unknown #
point $-1 -6 6 -7 #
straight-curve $-1 6 6 -7 0 -1 0 I I #
plane-surface $-1 -6 6 0 0 1 0 1 0 0 forward_v I I I I #
point $-1 6 6 -7 #
plane-surface $-1 0 0 -2 0 0 -1 -1 0 0 forward_v I I I I #
straight-curve $-1 -5 11 -2 0 -1 0 I I #
point $-1 -5 6 -2 #
straight-curve $-1 -5 6 -2 -1 0 0 I I #
straight-curve $-1 -6 6 -7 1 0 0 I I #
End-of-ACIS-data 