700 0 2 0           
24 FBMach with ACIS - 7.0.3 13 ACIS 7.0.3 NT 24 Wed May 15 17:56:19 2002 
1 9.9999999999999995e-007 1e-010 
body $2 -1 $-1 $3 $-1 $4 #
bdycol-kcp $-1 -1 1 5 $5 $6 $7 $8 $9 #
model_id-kcp-attrib $-1 -1 $-1 $-1 $0 1 1021499778 1021499778 596049921 1 #
lump $-1 -1 $-1 $-1 $10 $0 #
transform $-1 -1 1 0 0 0 1 0 0 0 1 0 0 0 1 rotate no_reflect no_shear #
body $11 -1 $-1 $12 $-1 $13 #
body $14 -1 $-1 $15 $-1 $16 #
body $17 -1 $-1 $18 $-1 $19 #
body $20 -1 $-1 $21 $-1 $22 #
body $23 -1 $-1 $24 $-1 $25 #
shell $-1 -1 $-1 $-1 $-1 $26 $-1 $3 #
rgb_color-st-attrib $-1 -1 $27 $-1 $5 0.5 1 1 #
lump $-1 -1 $-1 $-1 $28 $5 #
transform $-1 -1 1 0 0 0 1 0 0 0 1 0 0 0 1 no_rotate no_reflect no_shear #
model_id-kcp-attrib $-1 -1 $-1 $-1 $6 1 1021499778 1021499778 596049922 1 #
lump $-1 -1 $-1 $-1 $29 $6 #
transform $-1 -1 1 0 0 0 1 0 0 0 1 0 -1 -3.5 1 no_rotate no_reflect no_shear #
rgb_color-st-attrib $-1 -1 $30 $-1 $7 1 0.5 1 #
lump $-1 -1 $-1 $-1 $31 $7 #
transform $-1 -1 1 0 0 0 1 0 0 0 1 0 -1 -3.5 1 no_rotate no_reflect no_shear #
rgb_color-st-attrib $-1 -1 $32 $-1 $8 0.59999999999999998 0.90000000000000002 1 #
lump $-1 -1 $-1 $-1 $33 $8 #
transform $-1 -1 1 0 0 0 1 0 0 0 1 0 -1 -3.5 1 no_rotate no_reflect no_shear #
rgb_color-st-attrib $-1 -1 $34 $-1 $9 1 0.5 1 #
lump $-1 -1 $-1 $-1 $35 $9 #
transform $-1 -1 1 0 0 0 1 0 0 0 1 0 -1 -3.5 1 no_rotate no_reflect no_shear #
face $36 -1 $-1 $37 $38 $10 $-1 $39 reversed single #
model_id-kcp-attrib $-1 -1 $-1 $11 $5 1 1021499778 1021499778 588513283 1 #
shell $-1 -1 $-1 $-1 $-1 $40 $-1 $12 #
shell $-1 -1 $-1 $-1 $-1 $41 $-1 $15 #
model_id-kcp-attrib $-1 -1 $-1 $17 $7 1 1021499778 1021499778 599654404 1 #
shell $-1 -1 $-1 $-1 $-1 $42 $-1 $18 #
model_id-kcp-attrib $-1 -1 $-1 $20 $8 1 1021499778 1021499779 587333638 1 #
shell $-1 -1 $-1 $-1 $-1 $43 $-1 $21 #
model_id-kcp-attrib $-1 -1 $-1 $23 $9 1 1021499778 1021499779 594935813 1 #
shell $-1 -1 $-1 $-1 $-1 $44 $-1 $24 #
model_id-kcp-attrib $-1 -1 $-1 $-1 $26 1 1021499778 1021499778 596049921 2 #
face $45 -1 $-1 $46 $47 $10 $-1 $48 reversed single #
loop $-1 -1 $-1 $49 $50 $26 #
plane-surface $-1 -1 $-1 0 0 0 0 0 -1 -1 0 0 forward_v I I I I #
face $-1 -1 $-1 $51 $52 $28 $-1 $53 forward single #
face $54 -1 $-1 $55 $56 $29 $-1 $57 forward single #
face $-1 -1 $-1 $58 $59 $31 $-1 $60 forward single #
face $-1 -1 $-1 $61 $62 $33 $-1 $63 forward single #
face $-1 -1 $-1 $64 $65 $35 $-1 $66 reversed single #
model_id-kcp-attrib $-1 -1 $-1 $-1 $37 1 1021499778 1021499778 596049921 3 #
face $67 -1 $-1 $68 $69 $10 $-1 $70 reversed single #
loop $-1 -1 $-1 $-1 $71 $37 #
cone-surface $-1 -1 $-1 0 -11 0 0 0 -1 -1 0 0 1 I I 0 1 1 forward I I I I #
loop $-1 -1 $-1 $-1 $72 $26 #
coedge $-1 -1 $-1 $73 $73 $74 $75 forward $38 $-1 #
face $-1 -1 $-1 $76 $77 $28 $-1 $78 reversed single #
loop $-1 -1 $-1 $79 $80 $40 #
cone-surface $-1 -1 $-1 0 -11 0 0 0 -1 1 0 0 1 I I 0 1 1 forward I I I I #
model_id-kcp-attrib $-1 -1 $-1 $-1 $41 1 1021499778 1021499778 596049922 2 #
face $81 -1 $-1 $82 $83 $29 $-1 $84 reversed single #
loop $-1 -1 $-1 $-1 $85 $41 #
plane-surface $-1 -1 $-1 0 0 3.5 0 0 1 1 0 0 forward_v I I I I #
face $-1 -1 $-1 $86 $87 $31 $-1 $88 forward single #
loop $-1 -1 $-1 $-1 $89 $42 #
plane-surface $-1 -1 $-1 -6 7 1.5 -1 0 0 0 0 1 forward_v I I I I #
face $-1 -1 $-1 $90 $91 $33 $-1 $92 forward single #
loop $-1 -1 $-1 $-1 $93 $43 #
cone-surface $-1 -1 $-1 0 -10 -0.5 0 0 -1 -2 0 0 1 I I 0 1 2 forward I I I I #
face $-1 -1 $-1 $94 $95 $35 $-1 $96 forward single #
loop $-1 -1 $-1 $-1 $97 $44 #
plane-surface $-1 -1 $-1 0 -12 0 0 1 0 0 0 1 forward_v I I I I #
model_id-kcp-attrib $-1 -1 $-1 $-1 $46 1 1021499778 1021499778 596049921 4 #
face $98 -1 $-1 $99 $100 $10 $-1 $101 forward single #
loop $-1 -1 $-1 $-1 $102 $46 #
cone-surface $-1 -1 $-1 0 -11 0 0 0 -1 -1 0 0 1 I I 0 1 1 forward I I I I #
coedge $-1 -1 $-1 $74 $103 $104 $105 reversed $47 $-1 #
coedge $-1 -1 $-1 $106 $107 $108 $109 reversed $49 $-1 #
coedge $-1 -1 $-1 $50 $50 $110 $111 forward $38 $-1 #
coedge $-1 -1 $-1 $112 $71 $50 $75 reversed $47 $-1 #
edge $113 -1 $-1 $114 0 $115 3.1415926535897931 $50 $116 forward @7 unknown #
face $-1 -1 $-1 $-1 $117 $28 $-1 $118 forward single #
loop $-1 -1 $-1 $-1 $119 $51 #
plane-surface $-1 -1 $-1 0 -11 -4 0 0 1 1 0 0 forward_v I I I I #
loop $-1 -1 $-1 $-1 $120 $40 #
coedge $-1 -1 $-1 $80 $80 $119 $121 forward $52 $-1 #
model_id-kcp-attrib $-1 -1 $-1 $-1 $55 1 1021499778 1021499778 596049922 3 #
face $-1 -1 $-1 $122 $123 $29 $-1 $124 reversed single #
loop $-1 -1 $-1 $-1 $125 $55 #
plane-surface $-1 -1 $-1 0 0 -3.5 0 0 1 1 0 0 forward_v I I I I #
coedge $-1 -1 $-1 $126 $127 $128 $129 forward $56 $-1 #
face $-1 -1 $-1 $130 $131 $31 $-1 $132 forward single #
loop $-1 -1 $-1 $-1 $133 $58 #
plane-surface $-1 -1 $-1 -6 7 -3.5 0 0 -1 -1 0 0 forward_v I I I I #
coedge $-1 -1 $-1 $134 $135 $136 $137 forward $59 $-1 #
face $-1 -1 $-1 $138 $139 $33 $-1 $140 reversed single #
loop $-1 -1 $-1 $-1 $141 $61 #
plane-surface $-1 -1 $-1 -2 -10 -0.5 0 -1 0 0 0 -1 forward_v I I I I #
coedge $-1 -1 $-1 $142 $143 $144 $145 forward $62 $-1 #
face $-1 -1 $-1 $146 $147 $35 $-1 $148 forward single #
loop $-1 -1 $-1 $-1 $149 $64 #
plane-surface $-1 -1 $-1 -6 -10 -3.5 -1 0 0 0 0 1 forward_v I I I I #
coedge $-1 -1 $-1 $150 $151 $152 $153 forward $65 $-1 #
model_id-kcp-attrib $-1 -1 $-1 $-1 $68 1 1021499778 1021499778 596049921 5 #
face $154 -1 $-1 $155 $156 $10 $-1 $157 reversed single #
loop $-1 -1 $-1 $158 $159 $68 #
plane-surface $-1 -1 $-1 0 0 -4 0 0 -1 -1 0 0 forward_v I I I I #
coedge $-1 -1 $-1 $110 $160 $112 $161 reversed $69 $-1 #
coedge $-1 -1 $-1 $71 $112 $162 $163 forward $47 $-1 #
coedge $-1 -1 $-1 $160 $110 $71 $105 forward $69 $-1 #
edge $-1 -1 $-1 $115 0 $164 4 $104 $165 forward @7 unknown #
coedge $-1 -1 $-1 $166 $72 $167 $168 reversed $49 $-1 #
coedge $-1 -1 $-1 $72 $169 $170 $171 forward $49 $-1 #
coedge $-1 -1 $-1 $172 $173 $72 $109 forward $174 $-1 #
edge $175 -1 $-1 $176 0 $177 4 $72 $178 forward @7 unknown #
coedge $-1 -1 $-1 $104 $102 $73 $111 reversed $69 $-1 #
edge $179 -1 $-1 $115 0 $114 3.1415926535897931 $73 $180 forward @7 unknown #
coedge $-1 -1 $-1 $103 $74 $102 $161 forward $47 $-1 #
attrib_edge_convexity-kcp-attrib $-1 -1 $181 $-1 $75 1 #
vertex $-1 -1 $-1 $111 $182 #
vertex $-1 -1 $-1 $111 $183 #
ellipse-curve $-1 -1 $-1 0 -11 0 0 0 -1 1 0 0 1 I I #
loop $-1 -1 $-1 $-1 $184 $76 #
plane-surface $-1 -1 $-1 0 -11 0 0 0 1 1 0 0 forward_v I I I I #
coedge $-1 -1 $-1 $119 $119 $80 $121 reversed $77 $-1 #
coedge $-1 -1 $-1 $120 $120 $184 $185 forward $79 $-1 #
edge $-1 -1 $-1 $186 0 $186 6.2831853071795862 $80 $187 forward @7 unknown #
face $188 -1 $-1 $189 $190 $29 $-1 $191 reversed single #
loop $-1 -1 $-1 $-1 $192 $82 #
plane-surface $-1 -1 $-1 0 -12 0 0 1 0 0 0 1 forward_v I I I I #
coedge $-1 -1 $-1 $193 $194 $195 $196 forward $83 $-1 #
coedge $-1 -1 $-1 $197 $85 $198 $199 forward $56 $-1 #
coedge $-1 -1 $-1 $85 $197 $200 $201 forward $56 $-1 #
coedge $-1 -1 $-1 $202 $203 $85 $129 reversed $204 $-1 #
edge $-1 -1 $-1 $205 -12 $206 12 $128 $207 forward @7 unknown #
face $-1 -1 $-1 $208 $209 $31 $-1 $210 forward single #
loop $-1 -1 $-1 $-1 $211 $86 #
plane-surface $-1 -1 $-1 6 7 -3.5 1 0 0 0 0 -1 forward_v I I I I #
coedge $-1 -1 $-1 $212 $213 $214 $215 forward $87 $-1 #
coedge $-1 -1 $-1 $216 $89 $213 $217 reversed $59 $-1 #
coedge $-1 -1 $-1 $89 $216 $218 $219 forward $59 $-1 #
coedge $-1 -1 $-1 $220 $214 $89 $137 reversed $221 $-1 #
edge $-1 -1 $-1 $222 -1.5 $223 3.5 $89 $224 forward @7 unknown #
face $-1 -1 $-1 $-1 $225 $33 $-1 $226 forward single #
loop $-1 -1 $-1 $-1 $144 $90 #
plane-surface $-1 -1 $-1 4.7111954295117482e-017 -9.2985818451958799 -3.5 0 0 1 1 0 0 forward_v I I I I #
coedge $-1 -1 $-1 $227 $228 $229 $230 forward $91 $-1 #
coedge $-1 -1 $-1 $231 $93 $228 $232 reversed $62 $-1 #
coedge $-1 -1 $-1 $93 $231 $227 $233 forward $62 $-1 #
coedge $-1 -1 $-1 $229 $229 $93 $145 reversed $139 $-1 #
edge $-1 -1 $-1 $234 -3.1415926535897931 $235 0 $93 $236 forward @7 unknown #
face $-1 -1 $-1 $237 $238 $35 $-1 $239 forward single #
loop $-1 -1 $-1 $-1 $240 $94 #
plane-surface $-1 -1 $-1 -6 -10 3.5 0 0 1 1 0 0 forward_v I I I I #
coedge $-1 -1 $-1 $241 $242 $243 $244 reversed $95 $-1 #
coedge $-1 -1 $-1 $245 $97 $246 $247 forward $65 $-1 #
coedge $-1 -1 $-1 $97 $248 $249 $250 forward $65 $-1 #
coedge $-1 -1 $-1 $251 $252 $97 $153 reversed $253 $-1 #
edge $-1 -1 $-1 $254 -3.75 $255 0.25 $152 $256 forward @7 unknown #
model_id-kcp-attrib $-1 -1 $-1 $-1 $99 1 1021499778 1021499778 596049921 6 #
face $257 -1 $-1 $258 $259 $10 $-1 $260 forward single #
loop $-1 -1 $-1 $-1 $261 $99 #
cone-surface $-1 -1 $-1 0 -11 -7 0 0 -1 -2 0 0 1 I I 0 1 2 forward I I I I #
loop $-1 -1 $-1 $-1 $162 $68 #
coedge $-1 -1 $-1 $262 $262 $263 $264 forward $100 $-1 #
coedge $-1 -1 $-1 $102 $104 $265 $266 forward $69 $-1 #
edge $-1 -1 $-1 $114 0 $267 4 $102 $268 forward @7 unknown #
coedge $-1 -1 $-1 $265 $265 $103 $163 reversed $158 $-1 #
edge $269 -1 $-1 $267 0 $164 3.1415926535897967 $103 $270 forward @7 unknown #
vertex $-1 -1 $-1 $266 $271 #
straight-curve $-1 -1 $-1 -1 -11 0 0 0 -1 I I #
coedge $-1 -1 $-1 $272 $106 $273 $274 reversed $49 $-1 #
coedge $-1 -1 $-1 $275 $276 $106 $168 forward $277 $-1 #
edge $278 -1 $-1 $279 0 $176 3.1415926535897931 $106 $280 forward @7 unknown #
coedge $-1 -1 $-1 $107 $281 $282 $283 reversed $49 $-1 #
coedge $-1 -1 $-1 $284 $285 $107 $171 reversed $286 $-1 #
edge $287 -1 $-1 $288 0 $177 22 $107 $289 forward @7 unknown #
coedge $-1 -1 $-1 $290 $108 $285 $291 forward $174 $-1 #
coedge $-1 -1 $-1 $108 $292 $275 $293 reversed $174 $-1 #
loop $-1 -1 $-1 $-1 $173 $294 #
attrib_edge_convexity-kcp-attrib $-1 -1 $295 $-1 $109 1 #
vertex $-1 -1 $-1 $168 $296 #
vertex $-1 -1 $-1 $171 $297 #
straight-curve $-1 -1 $-1 -2 -11 0 -1 0 0 I I #
attrib_edge_convexity-kcp-attrib $-1 -1 $298 $-1 $111 1 #
ellipse-curve $-1 -1 $-1 0 -11 0 0 0 -1 -1 0 0 1 I I #
convexity-sys-attrib $-1 -1 $-1 $113 $75 #
point $-1 -1 $-1 1 -11 0 #
point $-1 -1 $-1 -1 -11 0 #
coedge $-1 -1 $-1 $184 $184 $120 $185 reversed $117 $-1 #
edge $-1 -1 $-1 $299 0 $299 6.2831853071795862 $120 $300 forward @7 unknown #
vertex $-1 -1 $-1 $121 $301 #
ellipse-curve $-1 -1 $-1 0 -11 -4 0 0 1 -1 0 0 1 I I #
model_id-kcp-attrib $-1 -1 $-1 $-1 $122 1 1021499778 1021499778 596049922 4 #
face $302 -1 $-1 $303 $304 $29 $-1 $305 reversed single #
loop $-1 -1 $-1 $-1 $306 $122 #
plane-surface $-1 -1 $-1 -6 0 0 1 0 0 0 0 -1 forward_v I I I I #
coedge $-1 -1 $-1 $307 $200 $308 $309 forward $123 $-1 #
coedge $-1 -1 $-1 $310 $125 $307 $311 forward $83 $-1 #
coedge $-1 -1 $-1 $125 $310 $312 $313 forward $83 $-1 #
coedge $-1 -1 $-1 $203 $202 $125 $196 reversed $204 $-1 #
edge $-1 -1 $-1 $314 -12 $315 12 $195 $316 forward @7 unknown #
coedge $-1 -1 $-1 $127 $126 $317 $318 forward $56 $-1 #
coedge $-1 -1 $-1 $319 $320 $126 $199 reversed $304 $-1 #
edge $-1 -1 $-1 $206 -6 $321 6 $198 $322 forward @7 unknown #
coedge $-1 -1 $-1 $192 $323 $127 $201 reversed $123 $-1 #
edge $-1 -1 $-1 $324 -6 $205 6 $200 $325 forward @7 unknown #
coedge $-1 -1 $-1 $195 $128 $323 $326 forward $204 $-1 #
coedge $-1 -1 $-1 $128 $195 $319 $327 reversed $204 $-1 #
loop $-1 -1 $-1 $-1 $202 $303 #
vertex $-1 -1 $-1 $129 $328 #
vertex $-1 -1 $-1 $129 $329 #
straight-curve $-1 -1 $-1 6 0 3.5 0 1 0 I I #
face $-1 -1 $-1 $330 $331 $31 $-1 $332 forward single #
loop $-1 -1 $-1 $-1 $333 $130 #
plane-surface $-1 -1 $-1 6 7 3.5 0 0 1 1 0 0 forward_v I I I I #
coedge $-1 -1 $-1 $334 $335 $336 $337 forward $131 $-1 #
coedge $-1 -1 $-1 $338 $133 $335 $339 reversed $87 $-1 #
coedge $-1 -1 $-1 $133 $338 $134 $217 forward $87 $-1 #
coedge $-1 -1 $-1 $136 $336 $133 $215 reversed $221 $-1 #
edge $-1 -1 $-1 $223 -6 $340 6 $133 $341 forward @7 unknown #
coedge $-1 -1 $-1 $135 $134 $342 $343 reversed $59 $-1 #
edge $-1 -1 $-1 $344 0 $223 5 $213 $345 forward @7 unknown #
coedge $-1 -1 $-1 $346 $347 $135 $219 reversed $348 $-1 #
edge $-1 -1 $-1 $349 0 $222 5 $135 $350 forward @7 unknown #
coedge $-1 -1 $-1 $351 $136 $347 $352 reversed $221 $-1 #
loop $-1 -1 $-1 $-1 $136 $353 #
vertex $-1 -1 $-1 $219 $354 #
vertex $-1 -1 $-1 $217 $355 #
straight-curve $-1 -1 $-1 -6 12 0 0 0 -1 I I #
loop $-1 -1 $-1 $-1 $356 $138 #
plane-surface $-1 -1 $-1 4.7111954295117482e-017 -9.2985818451958799 -0.5 0 0 1 1 0 0 forward_v I I I I #
coedge $-1 -1 $-1 $357 $141 $143 $233 reversed $91 $-1 #
coedge $-1 -1 $-1 $141 $357 $142 $232 forward $91 $-1 #
coedge $-1 -1 $-1 $144 $144 $141 $230 reversed $139 $-1 #
edge $-1 -1 $-1 $235 -2 $234 2 $141 $358 forward @7 unknown #
coedge $-1 -1 $-1 $143 $142 $359 $360 reversed $62 $-1 #
edge $-1 -1 $-1 $361 0 $235 3 $228 $362 forward @7 unknown #
edge $-1 -1 $-1 $363 0 $234 3 $143 $364 forward @7 unknown #
vertex $-1 -1 $-1 $233 $365 #
vertex $-1 -1 $-1 $232 $366 #
ellipse-curve $-1 -1 $-1 0 -10 -3.5 0 0 1 -2 0 0 1 I I #
face $-1 -1 $-1 $367 $368 $35 $-1 $369 forward single #
loop $-1 -1 $-1 $-1 $370 $146 #
plane-surface $-1 -1 $-1 -2 -10 3.5 1 0 0 0 0 -1 forward_v I I I I #
coedge $-1 -1 $-1 $371 $372 $373 $374 reversed $147 $-1 #
coedge $-1 -1 $-1 $375 $149 $372 $376 reversed $95 $-1 #
coedge $-1 -1 $-1 $149 $375 $377 $378 forward $95 $-1 #
coedge $-1 -1 $-1 $379 $373 $149 $244 forward $65 $-1 #
edge $-1 -1 $-1 $380 -5.25 $381 1.75 $149 $382 forward @7 unknown #
coedge $-1 -1 $-1 $373 $150 $370 $383 forward $65 $-1 #
coedge $-1 -1 $-1 $384 $385 $150 $247 reversed $368 $-1 #
edge $-1 -1 $-1 $255 -3 $386 1 $246 $387 forward @7 unknown #
coedge $-1 -1 $-1 $151 $379 $388 $389 forward $65 $-1 #
coedge $-1 -1 $-1 $390 $391 $151 $250 reversed $392 $-1 #
edge $-1 -1 $-1 $393 -5 $254 -1 $249 $394 forward @7 unknown #
coedge $-1 -1 $-1 $395 $152 $391 $396 reversed $253 $-1 #
coedge $-1 -1 $-1 $152 $395 $384 $397 forward $253 $-1 #
loop $-1 -1 $-1 $-1 $152 $398 #
vertex $-1 -1 $-1 $153 $399 #
vertex $-1 -1 $-1 $153 $400 #
straight-curve $-1 -1 $-1 2 -12 -0.25 0 0 -1 I I #
model_id-kcp-attrib $-1 -1 $-1 $-1 $155 1 1021499778 1021499778 596049921 7 #
face $401 -1 $-1 $294 $402 $10 $-1 $403 forward single #
loop $-1 -1 $-1 $-1 $404 $155 #
plane-surface $-1 -1 $-1 6 -11 0 0 -1 0 -1 0 0 forward_v I I I I #
coedge $-1 -1 $-1 $263 $405 $406 $407 reversed $156 $-1 #
coedge $-1 -1 $-1 $159 $159 $408 $409 forward $100 $-1 #
coedge $-1 -1 $-1 $410 $261 $159 $264 reversed $156 $-1 #
edge $411 -1 $-1 $412 0 $413 3.1415926535897931 $159 $414 forward @7 unknown #
coedge $-1 -1 $-1 $162 $162 $160 $266 reversed $158 $-1 #
edge $415 -1 $-1 $164 0 $267 3.1415926535897967 $160 $416 forward @7 unknown #
vertex $-1 -1 $-1 $266 $417 #
straight-curve $-1 -1 $-1 1 -11 0 0 0 -1 I I #
attrib_edge_convexity-kcp-attrib $-1 -1 $418 $-1 $163 1 #
ellipse-curve $-1 -1 $-1 -2.7755575615628914e-017 -11.000000000000002 -4 0 0 -1 1 1.7763568394002505e-015 0 1 I I #
point $-1 -1 $-1 -1 -11 -4 #
coedge $-1 -1 $-1 $419 $166 $420 $421 reversed $49 $-1 #
coedge $-1 -1 $-1 $422 $423 $166 $274 forward $259 $-1 #
edge $424 -1 $-1 $425 0 $279 4 $166 $426 forward @7 unknown #
coedge $-1 -1 $-1 $408 $167 $173 $293 forward $277 $-1 #
coedge $-1 -1 $-1 $167 $408 $422 $427 reversed $277 $-1 #
loop $-1 -1 $-1 $-1 $276 $428 #
attrib_edge_convexity-kcp-attrib $-1 -1 $429 $-1 $168 1 #
vertex $-1 -1 $-1 $274 $430 #
ellipse-curve $-1 -1 $-1 0 -11 0 0 0 -1 2 0 0 1 I I #
coedge $-1 -1 $-1 $169 $419 $431 $432 reversed $49 $-1 #
coedge $-1 -1 $-1 $433 $434 $169 $283 forward $435 $-1 #
edge $436 -1 $-1 $288 0 $437 1 $169 $438 forward @7 unknown #
coedge $-1 -1 $-1 $439 $170 $434 $440 forward $286 $-1 #
coedge $-1 -1 $-1 $170 $441 $172 $291 reversed $286 $-1 #
loop $-1 -1 $-1 $-1 $441 $442 #
attrib_edge_convexity-kcp-attrib $-1 -1 $443 $-1 $171 1 #
vertex $-1 -1 $-1 $171 $444 #
straight-curve $-1 -1 $-1 -6 11 0 0 -1 0 I I #
coedge $-1 -1 $-1 $292 $172 $445 $446 reversed $174 $-1 #
edge $447 -1 $-1 $177 0 $448 7 $172 $449 forward @7 unknown #
coedge $-1 -1 $-1 $173 $290 $410 $450 reversed $174 $-1 #
edge $451 -1 $-1 $176 0 $412 4 $275 $452 forward @7 unknown #
face $453 -1 $-1 $428 $174 $10 $-1 $454 forward single #
convexity-sys-attrib $-1 -1 $-1 $175 $109 #
point $-1 -1 $-1 -2 -11 0 #
point $-1 -1 $-1 -6 -11 0 #
convexity-sys-attrib $-1 -1 $-1 $179 $111 #
vertex $-1 -1 $-1 $185 $455 #
ellipse-curve $-1 -1 $-1 0 -11 0 0 0 -1 1 0 0 1 I I #
point $-1 -1 $-1 -1 -11 -4 #
model_id-kcp-attrib $-1 -1 $-1 $-1 $189 1 1021499778 1021499778 596049922 5 #
face $456 -1 $-1 $-1 $204 $29 $-1 $457 reversed single #
loop $-1 -1 $-1 $-1 $319 $189 #
plane-surface $-1 -1 $-1 0 12 0 0 -1 0 0 0 -1 forward_v I I I I #
coedge $-1 -1 $-1 $458 $317 $320 $459 forward $190 $-1 #
coedge $-1 -1 $-1 $323 $192 $193 $311 reversed $123 $-1 #
coedge $-1 -1 $-1 $317 $458 $192 $309 reversed $190 $-1 #
edge $-1 -1 $-1 $324 -3.5 $460 3.5 $308 $461 forward @7 unknown #
coedge $-1 -1 $-1 $194 $193 $458 $462 forward $83 $-1 #
edge $-1 -1 $-1 $315 -6 $460 6 $307 $463 forward @7 unknown #
coedge $-1 -1 $-1 $320 $319 $194 $313 reversed $304 $-1 #
edge $-1 -1 $-1 $464 -6 $314 6 $312 $465 forward @7 unknown #
vertex $-1 -1 $-1 $196 $466 #
vertex $-1 -1 $-1 $326 $467 #
straight-curve $-1 -1 $-1 6 0 -3.5 0 -1 0 I I #
coedge $-1 -1 $-1 $306 $308 $197 $318 reversed $190 $-1 #
edge $-1 -1 $-1 $321 -12 $324 12 $317 $468 forward @7 unknown #
coedge $-1 -1 $-1 $312 $198 $203 $327 forward $304 $-1 #
coedge $-1 -1 $-1 $198 $312 $306 $459 reversed $304 $-1 #
vertex $-1 -1 $-1 $199 $469 #
straight-curve $-1 -1 $-1 0 12 3.5 -1 0 0 I I #
coedge $-1 -1 $-1 $200 $307 $202 $326 reversed $123 $-1 #
vertex $-1 -1 $-1 $318 $470 #
straight-curve $-1 -1 $-1 0 -12 3.5 1 0 0 I I #
edge $-1 -1 $-1 $205 -3.5 $315 3.5 $202 $471 forward @7 unknown #
edge $-1 -1 $-1 $206 -3.5 $314 3.5 $203 $472 forward @7 unknown #
point $-1 -1 $-1 6 -12 3.5 #
point $-1 -1 $-1 6 12 3.5 #
face $-1 -1 $-1 $353 $348 $31 $-1 $473 forward single #
loop $-1 -1 $-1 $-1 $474 $208 #
plane-surface $-1 -1 $-1 -5 7 3.5 -1 0 0 0 0 1 forward_v I I I I #
coedge $-1 -1 $-1 $475 $476 $477 $478 forward $209 $-1 #
coedge $-1 -1 $-1 $479 $211 $476 $480 reversed $131 $-1 #
coedge $-1 -1 $-1 $211 $479 $212 $339 forward $131 $-1 #
coedge $-1 -1 $-1 $214 $477 $211 $337 reversed $221 $-1 #
edge $-1 -1 $-1 $340 -3.5 $481 3.5 $211 $482 forward @7 unknown #
coedge $-1 -1 $-1 $213 $212 $483 $484 reversed $87 $-1 #
edge $-1 -1 $-1 $485 0 $340 5 $335 $486 forward @7 unknown #
vertex $-1 -1 $-1 $339 $487 #
straight-curve $-1 -1 $-1 0 12 -3.5 1 0 0 I I #
coedge $-1 -1 $-1 $483 $488 $216 $343 forward $489 $-1 #
edge $490 -1 $-1 $349 -1.5 $344 3.5 $216 $491 forward @7 unknown #
vertex $-1 -1 $-1 $343 $492 #
straight-curve $-1 -1 $-1 -6 7 -3.5 0 1 0 I I #
coedge $-1 -1 $-1 $493 $218 $488 $494 reversed $348 $-1 #
coedge $-1 -1 $-1 $218 $493 $220 $352 forward $348 $-1 #
loop $-1 -1 $-1 $-1 $347 $330 #
vertex $-1 -1 $-1 $494 $495 #
straight-curve $-1 -1 $-1 -6 7 1.5 0 1 0 I I #
coedge $-1 -1 $-1 $477 $220 $474 $496 reversed $221 $-1 #
edge $-1 -1 $-1 $497 5 $222 6 $347 $498 forward @7 unknown #
face $-1 -1 $-1 $499 $221 $31 $-1 $500 forward single #
point $-1 -1 $-1 -6 12 1.5 #
point $-1 -1 $-1 -6 12 -3.5 #
coedge $-1 -1 $-1 $359 $359 $357 $501 forward $225 $-1 #
coedge $-1 -1 $-1 $228 $227 $356 $501 reversed $91 $-1 #
straight-curve $-1 -1 $-1 0 -10 -3.5 1 0 0 I I #
coedge $-1 -1 $-1 $356 $356 $231 $360 forward $225 $-1 #
edge $502 -1 $-1 $363 -3.1415926535897931 $361 0 $231 $503 forward @7 unknown #
vertex $-1 -1 $-1 $501 $504 #
straight-curve $-1 -1 $-1 -2 -10 -0.5 0 0 -1 I I #
vertex $-1 -1 $-1 $501 $505 #
straight-curve $-1 -1 $-1 2 -10 -0.5 0 0 -1 I I #
point $-1 -1 $-1 2 -10 -3.5 #
point $-1 -1 $-1 -2 -10 -3.5 #
face $-1 -1 $-1 $506 $392 $35 $-1 $507 forward single #
loop $-1 -1 $-1 $-1 $246 $237 #
plane-surface $-1 -1 $-1 -2 -10 -0.5 0 0 1 1 0 0 forward_v I I I I #
coedge $-1 -1 $-1 $508 $509 $245 $383 reversed $238 $-1 #
coedge $-1 -1 $-1 $510 $240 $509 $511 reversed $147 $-1 #
coedge $-1 -1 $-1 $240 $510 $241 $376 forward $147 $-1 #
coedge $-1 -1 $-1 $243 $245 $240 $374 forward $65 $-1 #
edge $-1 -1 $-1 $512 -1 $380 3 $240 $513 forward @7 unknown #
coedge $-1 -1 $-1 $242 $241 $514 $515 reversed $95 $-1 #
edge $-1 -1 $-1 $516 0 $380 2 $372 $517 forward @7 unknown #
coedge $-1 -1 $-1 $518 $519 $242 $378 reversed $520 $-1 #
edge $-1 -1 $-1 $521 0 $381 2 $242 $522 forward @7 unknown #
coedge $-1 -1 $-1 $248 $243 $519 $523 forward $65 $-1 #
vertex $-1 -1 $-1 $374 $524 #
vertex $-1 -1 $-1 $523 $525 #
straight-curve $-1 -1 $-1 -6 -12 -1.75 0 0 -1 I I #
edge $-1 -1 $-1 $386 -2.25 $512 1.75 $370 $526 forward @7 unknown #
coedge $-1 -1 $-1 $527 $246 $252 $397 reversed $368 $-1 #
coedge $-1 -1 $-1 $246 $527 $508 $528 forward $368 $-1 #
vertex $-1 -1 $-1 $247 $529 #
straight-curve $-1 -1 $-1 -1 -12 -0.5 -1 0 0 I I #
coedge $-1 -1 $-1 $530 $531 $248 $389 reversed $532 $-1 #
edge $-1 -1 $-1 $533 -5.25 $393 1.75 $388 $534 forward @7 unknown #
coedge $-1 -1 $-1 $535 $249 $531 $536 reversed $392 $-1 #
coedge $-1 -1 $-1 $249 $535 $251 $396 forward $392 $-1 #
loop $-1 -1 $-1 $-1 $249 $367 #
vertex $-1 -1 $-1 $250 $537 #
straight-curve $-1 -1 $-1 1 -12 3.5 -1 0 0 I I #
coedge $-1 -1 $-1 $252 $251 $538 $539 reversed $253 $-1 #
edge $-1 -1 $-1 $540 0 $254 2 $391 $541 forward @7 unknown #
edge $-1 -1 $-1 $542 0 $255 2 $252 $543 forward @7 unknown #
face $-1 -1 $-1 $544 $253 $35 $-1 $545 forward single #
point $-1 -1 $-1 2 -12 3.5 #
point $-1 -1 $-1 2 -12 -0.5 #
model_id-kcp-attrib $-1 -1 $-1 $-1 $258 1 1021499778 1021499778 596049921 8 #
loop $-1 -1 $-1 $-1 $445 $258 #
plane-surface $-1 -1 $-1 0 0 -7 0 0 -1 -1 0 0 forward_v I I I I #
coedge $-1 -1 $-1 $423 $406 $546 $547 reversed $259 $-1 #
coedge $-1 -1 $-1 $261 $410 $548 $549 forward $156 $-1 #
coedge $-1 -1 $-1 $404 $422 $261 $407 forward $259 $-1 #
edge $550 -1 $-1 $413 0 $551 3 $406 $552 forward @7 unknown #
coedge $-1 -1 $-1 $276 $275 $262 $409 reversed $277 $-1 #
edge $553 -1 $-1 $413 0 $412 3.1415926535897931 $408 $554 forward @7 unknown #
coedge $-1 -1 $-1 $405 $263 $292 $450 forward $156 $-1 #
attrib_edge_convexity-kcp-attrib $-1 -1 $555 $-1 $264 2 #
vertex $-1 -1 $-1 $409 $556 #
vertex $-1 -1 $-1 $407 $557 #
ellipse-curve $-1 -1 $-1 0 -11 -4 0 0 -1 -2 0 0 1 I I #
attrib_edge_convexity-kcp-attrib $-1 -1 $558 $-1 $266 1 #
ellipse-curve $-1 -1 $-1 0 -10.999999999999998 -4 0 0 -1 -1 -1.7763568394002505e-015 0 1 I I #
point $-1 -1 $-1 1 -11 -4 #
convexity-sys-attrib $-1 -1 $-1 $269 $163 #
coedge $-1 -1 $-1 $281 $272 $559 $560 reversed $49 $-1 #
coedge $-1 -1 $-1 $561 $562 $272 $421 forward $563 $-1 #
edge $564 -1 $-1 $565 0 $425 17 $272 $566 forward @7 unknown #
coedge $-1 -1 $-1 $406 $273 $276 $427 forward $259 $-1 #
coedge $-1 -1 $-1 $273 $404 $561 $567 reversed $259 $-1 #
attrib_edge_convexity-kcp-attrib $-1 -1 $568 $-1 $274 1 #
vertex $-1 -1 $-1 $421 $569 #
straight-curve $-1 -1 $-1 6 -11 0 -1 0 0 I I #
edge $570 -1 $-1 $279 0 $413 4 $422 $571 forward @7 unknown #
face $572 -1 $-1 $442 $277 $10 $-1 $573 forward single #
convexity-sys-attrib $-1 -1 $-1 $278 $168 #
point $-1 -1 $-1 2 -11 0 #
coedge $-1 -1 $-1 $574 $575 $281 $432 forward $576 $-1 #
edge $577 -1 $-1 $437 0 $578 5 $281 $579 forward @7 unknown #
coedge $-1 -1 $-1 $580 $282 $575 $581 forward $435 $-1 #
coedge $-1 -1 $-1 $282 $580 $284 $440 reversed $435 $-1 #
loop $-1 -1 $-1 $-1 $433 $582 #
attrib_edge_convexity-kcp-attrib $-1 -1 $583 $-1 $283 1 #
vertex $-1 -1 $-1 $283 $584 #
straight-curve $-1 -1 $-1 -6 11 0 1 0 0 I I #
coedge $-1 -1 $-1 $585 $284 $586 $587 reversed $286 $-1 #
edge $588 -1 $-1 $288 0 $589 2 $284 $590 forward @7 unknown #
coedge $-1 -1 $-1 $285 $585 $591 $592 reversed $286 $-1 #
face $593 -1 $-1 $582 $286 $10 $-1 $594 forward single #
convexity-sys-attrib $-1 -1 $-1 $287 $171 #
point $-1 -1 $-1 -6 11 0 #
coedge $-1 -1 $-1 $591 $548 $290 $446 forward $402 $-1 #
edge $595 -1 $-1 $596 0 $448 4 $445 $597 forward @7 unknown #
attrib_edge_convexity-kcp-attrib $-1 -1 $598 $-1 $291 1 #
vertex $-1 -1 $-1 $592 $599 #
straight-curve $-1 -1 $-1 -6 -11 0 0 0 -1 I I #
edge $600 -1 $-1 $412 0 $596 3 $292 $601 forward @7 unknown #
attrib_edge_convexity-kcp-attrib $-1 -1 $602 $-1 $293 2 #
straight-curve $-1 -1 $-1 -2 -11 0 0 0 -1 I I #
model_id-kcp-attrib $-1 -1 $-1 $-1 $294 1 1021499778 1021499778 596049921 9 #
plane-surface $-1 -1 $-1 -2 -11 0 0 -1 0 -1 0 0 forward_v I I I I #
point $-1 -1 $-1 1 -11 0 #
model_id-kcp-attrib $-1 -1 $-1 $-1 $303 1 1021499778 1021499778 596049922 6 #
plane-surface $-1 -1 $-1 6 0 0 -1 0 0 0 0 1 forward_v I I I I #
coedge $-1 -1 $-1 $308 $306 $310 $462 reversed $190 $-1 #
edge $-1 -1 $-1 $321 -3.5 $464 3.5 $320 $603 forward @7 unknown #
vertex $-1 -1 $-1 $462 $604 #
straight-curve $-1 -1 $-1 -6 -12 0 0 0 -1 I I #
edge $-1 -1 $-1 $460 -12 $464 12 $458 $605 forward @7 unknown #
straight-curve $-1 -1 $-1 0 -12 -3.5 -1 0 0 I I #
vertex $-1 -1 $-1 $313 $606 #
straight-curve $-1 -1 $-1 0 12 -3.5 1 0 0 I I #
point $-1 -1 $-1 6 12 -3.5 #
point $-1 -1 $-1 6 -12 -3.5 #
straight-curve $-1 -1 $-1 -6 0 3.5 0 -1 0 I I #
point $-1 -1 $-1 -6 12 3.5 #
point $-1 -1 $-1 -6 -12 3.5 #
straight-curve $-1 -1 $-1 6 -12 0 0 0 -1 I I #
straight-curve $-1 -1 $-1 6 12 0 0 0 -1 I I #
plane-surface $-1 -1 $-1 -5 7 1.5 0 0 1 1 0 0 forward_v I I I I #
coedge $-1 -1 $-1 $607 $608 $351 $496 forward $331 $-1 #
coedge $-1 -1 $-1 $609 $333 $608 $610 reversed $209 $-1 #
coedge $-1 -1 $-1 $333 $609 $334 $480 forward $209 $-1 #
coedge $-1 -1 $-1 $336 $351 $333 $478 reversed $221 $-1 #
edge $-1 -1 $-1 $481 -6 $611 5 $333 $612 forward @7 unknown #
coedge $-1 -1 $-1 $335 $334 $613 $614 reversed $131 $-1 #
edge $-1 -1 $-1 $615 0 $481 5 $476 $616 forward @7 unknown #
vertex $-1 -1 $-1 $480 $617 #
straight-curve $-1 -1 $-1 6 12 0 0 0 1 I I #
coedge $-1 -1 $-1 $613 $342 $338 $484 forward $489 $-1 #
edge $618 -1 $-1 $344 -6 $485 6 $338 $619 forward @7 unknown #
vertex $-1 -1 $-1 $484 $620 #
straight-curve $-1 -1 $-1 6 7 -3.5 0 1 0 I I #
point $-1 -1 $-1 6 12 -3.5 #
coedge $-1 -1 $-1 $342 $621 $346 $494 forward $489 $-1 #
loop $-1 -1 $-1 $-1 $488 $499 #
convexity-sys-attrib $-1 -1 $-1 $-1 $343 #
straight-curve $-1 -1 $-1 -6 7 0 0 0 -1 I I #
point $-1 -1 $-1 -6 7 -3.5 #
coedge $-1 -1 $-1 $347 $346 $607 $622 forward $348 $-1 #
edge $623 -1 $-1 $624 5 $349 6 $346 $625 forward @7 unknown #
point $-1 -1 $-1 -6 7 1.5 #
edge $-1 -1 $-1 $611 -1.75 $497 0.25 $474 $626 forward @7 unknown #
vertex $-1 -1 $-1 $622 $627 #
straight-curve $-1 -1 $-1 0 12 1.5 -1 0 0 I I #
face $-1 -1 $-1 $-1 $489 $31 $-1 $628 reversed single #
plane-surface $-1 -1 $-1 0.052631578947368141 12 -0.05263157894736839 0 1 0 0 0 1 forward_v I I I I #
edge $629 -1 $-1 $361 -2 $363 2 $357 $630 forward @7 unknown #
convexity-sys-attrib $-1 -1 $-1 $-1 $360 #
ellipse-curve $-1 -1 $-1 0 -10 -0.5 0 0 1 -2 0 0 1 I I #
point $-1 -1 $-1 -2 -10 -0.5 #
point $-1 -1 $-1 2 -10 -0.5 #
face $-1 -1 $-1 $631 $532 $35 $-1 $632 forward single #
plane-surface $-1 -1 $-1 2 -10 3.5 0 0 1 1 0 0 forward_v I I I I #
coedge $-1 -1 $-1 $633 $370 $385 $528 reversed $238 $-1 #
coedge $-1 -1 $-1 $370 $633 $371 $511 forward $238 $-1 #
coedge $-1 -1 $-1 $372 $371 $634 $635 reversed $147 $-1 #
edge $-1 -1 $-1 $636 0 $512 2 $509 $637 forward @7 unknown #
vertex $-1 -1 $-1 $383 $638 #
straight-curve $-1 -1 $-1 -3 -12 3.5 -1 0 0 I I #
coedge $-1 -1 $-1 $634 $639 $375 $515 forward $640 $-1 #
edge $641 -1 $-1 $521 -3.5 $516 3.5 $375 $642 forward @7 unknown #
vertex $-1 -1 $-1 $515 $643 #
straight-curve $-1 -1 $-1 -6 -10 3.5 0 -1 0 I I #
coedge $-1 -1 $-1 $644 $377 $639 $645 reversed $520 $-1 #
coedge $-1 -1 $-1 $377 $644 $379 $523 reversed $520 $-1 #
loop $-1 -1 $-1 $-1 $519 $631 #
vertex $-1 -1 $-1 $645 $646 #
straight-curve $-1 -1 $-1 -6 -10 -3.5 0 -1 0 I I #
edge $-1 -1 $-1 $381 -9 $533 3 $519 $647 forward @7 unknown #
point $-1 -1 $-1 -6 -12 3.5 #
point $-1 -1 $-1 -6 -12 -3.5 #
straight-curve $-1 -1 $-1 -2 -12 1.75 0 0 1 I I #
coedge $-1 -1 $-1 $385 $384 $648 $649 reversed $368 $-1 #
edge $-1 -1 $-1 $650 0 $386 2 $385 $651 forward @7 unknown #
point $-1 -1 $-1 -2 -12 -0.5 #
coedge $-1 -1 $-1 $652 $388 $644 $653 reversed $532 $-1 #
coedge $-1 -1 $-1 $388 $652 $390 $536 forward $532 $-1 #
loop $-1 -1 $-1 $-1 $388 $506 #
vertex $-1 -1 $-1 $389 $654 #
straight-curve $-1 -1 $-1 6 -12 1.75 0 0 1 I I #
coedge $-1 -1 $-1 $391 $390 $655 $656 reversed $392 $-1 #
edge $-1 -1 $-1 $657 0 $393 2 $531 $658 forward @7 unknown #
point $-1 -1 $-1 6 -12 3.5 #
coedge $-1 -1 $-1 $655 $648 $395 $539 forward $640 $-1 #
edge $659 -1 $-1 $542 -4 $540 0 $395 $660 forward @7 unknown #
vertex $-1 -1 $-1 $539 $661 #
straight-curve $-1 -1 $-1 2 -10 3.5 0 -1 0 I I #
vertex $-1 -1 $-1 $539 $662 #
straight-curve $-1 -1 $-1 2 -10 -0.5 0 -1 0 I I #
face $-1 -1 $-1 $-1 $640 $35 $-1 $663 forward single #
plane-surface $-1 -1 $-1 2 -10 -0.5 -1 0 0 0 0 1 forward_v I I I I #
coedge $-1 -1 $-1 $548 $664 $404 $547 forward $402 $-1 #
edge $665 -1 $-1 $666 0 $551 4 $546 $667 forward @7 unknown #
coedge $-1 -1 $-1 $445 $546 $405 $549 reversed $402 $-1 #
edge $-1 -1 $-1 $596 0 $551 3.1415926535897931 $548 $668 forward @7 unknown #
attrib_edge_convexity-kcp-attrib $-1 -1 $669 $-1 $407 1 #
vertex $-1 -1 $-1 $549 $670 #
straight-curve $-1 -1 $-1 2 -11 -4 0 0 -1 I I #
attrib_edge_convexity-kcp-attrib $-1 -1 $671 $-1 $409 1 #
ellipse-curve $-1 -1 $-1 0 -11 -4 0 0 -1 2 0 0 1 I I #
convexity-sys-attrib $-1 -1 $-1 $411 $264 #
point $-1 -1 $-1 -2 -11 -4 #
point $-1 -1 $-1 2 -11 -4 #
convexity-sys-attrib $-1 -1 $-1 $415 $266 #
coedge $-1 -1 $-1 $672 $673 $419 $560 forward $674 $-1 #
edge $675 -1 $-1 $578 0 $565 11 $419 $676 forward @7 unknown #
coedge $-1 -1 $-1 $677 $420 $423 $567 forward $563 $-1 #
coedge $-1 -1 $-1 $420 $677 $672 $678 reversed $563 $-1 #
loop $-1 -1 $-1 $-1 $561 $679 #
attrib_edge_convexity-kcp-attrib $-1 -1 $680 $-1 $421 1 #
vertex $-1 -1 $-1 $560 $681 #
straight-curve $-1 -1 $-1 6 6 0 0 -1 0 I I #
edge $682 -1 $-1 $425 0 $666 7 $561 $683 forward @7 unknown #
convexity-sys-attrib $-1 -1 $-1 $424 $274 #
point $-1 -1 $-1 6 -11 0 #
attrib_edge_convexity-kcp-attrib $-1 -1 $684 $-1 $427 2 #
straight-curve $-1 -1 $-1 2 -11 0 0 0 -1 I I #
model_id-kcp-attrib $-1 -1 $-1 $-1 $428 1 1021499778 1021499778 596049921 10 #
cone-surface $-1 -1 $-1 0 -11 0 0 0 -1 -2 0 0 1 I I 0 1 2 forward I I I I #
coedge $-1 -1 $-1 $685 $431 $673 $686 forward $576 $-1 #
coedge $-1 -1 $-1 $431 $685 $433 $581 reversed $576 $-1 #
loop $-1 -1 $-1 $-1 $574 $687 #
attrib_edge_convexity-kcp-attrib $-1 -1 $688 $-1 $432 1 #
vertex $-1 -1 $-1 $432 $689 #
straight-curve $-1 -1 $-1 -5 11 0 0 -1 0 I I #
coedge $-1 -1 $-1 $434 $433 $690 $691 reversed $435 $-1 #
edge $692 -1 $-1 $437 0 $693 2 $433 $694 forward @7 unknown #
face $695 -1 $-1 $687 $435 $10 $-1 $696 forward single #
convexity-sys-attrib $-1 -1 $-1 $436 $283 #
point $-1 -1 $-1 -5 11 0 #
coedge $-1 -1 $-1 $441 $439 $697 $698 forward $286 $-1 #
coedge $-1 -1 $-1 $690 $699 $439 $587 forward $700 $-1 #
edge $701 -1 $-1 $702 0 $589 5 $439 $703 forward @7 unknown #
attrib_edge_convexity-kcp-attrib $-1 -1 $704 $-1 $440 1 #
vertex $-1 -1 $-1 $587 $705 #
straight-curve $-1 -1 $-1 -6 11 0 0 0 -1 I I #
coedge $-1 -1 $-1 $706 $445 $441 $592 forward $402 $-1 #
edge $707 -1 $-1 $448 0 $708 17 $591 $709 forward @7 unknown #
model_id-kcp-attrib $-1 -1 $-1 $-1 $442 1 1021499778 1021499778 596049921 11 #
plane-surface $-1 -1 $-1 -6 -11 0 -1 0 0 0 1 0 forward_v I I I I #
attrib_edge_convexity-kcp-attrib $-1 -1 $710 $-1 $446 1 #
vertex $-1 -1 $-1 $549 $711 #
straight-curve $-1 -1 $-1 -2 -11 -7 -1 0 0 I I #
convexity-sys-attrib $-1 -1 $-1 $447 $291 #
point $-1 -1 $-1 -6 -11 -7 #
attrib_edge_convexity-kcp-attrib $-1 -1 $712 $-1 $450 1 #
straight-curve $-1 -1 $-1 -2 -11 -4 0 0 -1 I I #
convexity-sys-attrib $-1 -1 $-1 $451 $293 #
straight-curve $-1 -1 $-1 -6 12 0 0 0 -1 I I #
point $-1 -1 $-1 -6 -12 -3.5 #
straight-curve $-1 -1 $-1 -6 0 -3.5 0 1 0 I I #
point $-1 -1 $-1 -6 12 -3.5 #
coedge $-1 -1 $-1 $713 $474 $493 $622 reversed $331 $-1 #
coedge $-1 -1 $-1 $474 $713 $475 $610 forward $331 $-1 #
coedge $-1 -1 $-1 $476 $475 $714 $715 reversed $209 $-1 #
edge $-1 -1 $-1 $716 0 $611 5 $608 $717 forward @7 unknown #
vertex $-1 -1 $-1 $610 $718 #
straight-curve $-1 -1 $-1 0 12 3.5 -1 0 0 I I #
coedge $-1 -1 $-1 $714 $483 $479 $614 forward $489 $-1 #
edge $719 -1 $-1 $485 -3.5 $615 3.5 $479 $720 forward @7 unknown #
vertex $-1 -1 $-1 $614 $721 #
straight-curve $-1 -1 $-1 6 7 3.5 0 1 0 I I #
point $-1 -1 $-1 6 12 3.5 #
convexity-sys-attrib $-1 -1 $-1 $-1 $484 #
straight-curve $-1 -1 $-1 0 7 -3.5 1 0 0 I I #
point $-1 -1 $-1 6 7 -3.5 #
coedge $-1 -1 $-1 $488 $714 $713 $722 forward $489 $-1 #
edge $723 -1 $-1 $624 0 $497 5 $493 $724 forward @7 unknown #
convexity-sys-attrib $-1 -1 $-1 $-1 $494 #
vertex $-1 -1 $-1 $494 $725 #
straight-curve $-1 -1 $-1 0 7 1.5 -1 0 0 I I #
straight-curve $-1 -1 $-1 -5 12 1.75 0 0 -1 I I #
point $-1 -1 $-1 -5 12 1.5 #
plane-surface $-1 -1 $-1 0.052631578947368141 7 -0.05263157894736839 0 1 0 0 0 1 forward_v I I I I #
convexity-sys-attrib $-1 -1 $-1 $-1 $501 #
straight-curve $-1 -1 $-1 0 -10 -0.5 1 0 0 I I #
face $-1 -1 $-1 $398 $520 $35 $-1 $726 forward single #
plane-surface $-1 -1 $-1 6 -10 3.5 1 0 0 0 0 -1 forward_v I I I I #
coedge $-1 -1 $-1 $509 $508 $727 $728 reversed $238 $-1 #
coedge $-1 -1 $-1 $727 $514 $510 $635 forward $640 $-1 #
edge $729 -1 $-1 $516 -4 $636 0 $510 $730 forward @7 unknown #
vertex $-1 -1 $-1 $635 $731 #
straight-curve $-1 -1 $-1 -2 -10 3.5 0 -1 0 I I #
point $-1 -1 $-1 -2 -12 3.5 #
coedge $-1 -1 $-1 $514 $732 $518 $645 forward $640 $-1 #
loop $-1 -1 $-1 $-1 $538 $544 #
convexity-sys-attrib $-1 -1 $-1 $-1 $515 #
straight-curve $-1 -1 $-1 -6 -10 0 0 0 1 I I #
point $-1 -1 $-1 -6 -10 3.5 #
coedge $-1 -1 $-1 $519 $518 $530 $653 forward $520 $-1 #
edge $733 -1 $-1 $734 -8 $521 4 $518 $735 forward @7 unknown #
point $-1 -1 $-1 -6 -10 -3.5 #
straight-curve $-1 -1 $-1 3 -12 -3.5 1 0 0 I I #
coedge $-1 -1 $-1 $538 $727 $527 $649 forward $640 $-1 #
edge $736 -1 $-1 $650 0 $542 4 $527 $737 forward @7 unknown #
vertex $-1 -1 $-1 $728 $738 #
straight-curve $-1 -1 $-1 -2 -10 -0.5 0 -1 0 I I #
coedge $-1 -1 $-1 $531 $530 $732 $739 reversed $532 $-1 #
edge $-1 -1 $-1 $734 0 $533 2 $644 $740 forward @7 unknown #
point $-1 -1 $-1 6 -12 -3.5 #
coedge $-1 -1 $-1 $732 $538 $535 $656 forward $640 $-1 #
edge $741 -1 $-1 $540 4 $657 8 $535 $742 forward @7 unknown #
vertex $-1 -1 $-1 $656 $743 #
straight-curve $-1 -1 $-1 6 -10 3.5 0 -1 0 I I #
convexity-sys-attrib $-1 -1 $-1 $-1 $539 #
straight-curve $-1 -1 $-1 2 -10 3.5 0 0 1 I I #
point $-1 -1 $-1 2 -10 3.5 #
point $-1 -1 $-1 2 -10 -0.5 #
plane-surface $-1 -1 $-1 0 -10 -0.086956521739130321 0 1 0 0 0 1 forward_v I I I I #
coedge $-1 -1 $-1 $546 $706 $677 $744 forward $402 $-1 #
attrib_edge_convexity-kcp-attrib $-1 -1 $745 $-1 $547 1 #
vertex $-1 -1 $-1 $547 $746 #
straight-curve $-1 -1 $-1 6 -11 -7 -1 0 0 I I #
ellipse-curve $-1 -1 $-1 0 -11 -7 0 0 -1 -2 0 0 1 I I #
convexity-sys-attrib $-1 -1 $-1 $550 $407 #
point $-1 -1 $-1 2 -11 -7 #
convexity-sys-attrib $-1 -1 $-1 $553 $409 #
coedge $-1 -1 $-1 $747 $559 $562 $678 forward $674 $-1 #
coedge $-1 -1 $-1 $559 $748 $574 $686 reversed $674 $-1 #
loop $-1 -1 $-1 $-1 $673 $749 #
attrib_edge_convexity-kcp-attrib $-1 -1 $750 $-1 $560 1 #
straight-curve $-1 -1 $-1 -5 6 0 1 0 0 I I #
coedge $-1 -1 $-1 $562 $561 $664 $744 reversed $563 $-1 #
edge $751 -1 $-1 $565 0 $752 7 $562 $753 forward @7 unknown #
face $754 -1 $-1 $755 $563 $10 $-1 $756 forward single #
convexity-sys-attrib $-1 -1 $-1 $564 $421 #
point $-1 -1 $-1 6 6 0 #
attrib_edge_convexity-kcp-attrib $-1 -1 $757 $-1 $567 1 #
straight-curve $-1 -1 $-1 6 -11 0 0 0 -1 I I #
convexity-sys-attrib $-1 -1 $-1 $570 $427 #
coedge $-1 -1 $-1 $575 $574 $758 $759 reversed $576 $-1 #
edge $760 -1 $-1 $578 0 $761 2 $673 $762 forward @7 unknown #
face $763 -1 $-1 $749 $576 $10 $-1 $764 forward single #
convexity-sys-attrib $-1 -1 $-1 $577 $432 #
point $-1 -1 $-1 -5 6 0 #
coedge $-1 -1 $-1 $758 $586 $580 $691 forward $700 $-1 #
edge $765 -1 $-1 $589 0 $693 1 $690 $766 forward @7 unknown #
attrib_edge_convexity-kcp-attrib $-1 -1 $767 $-1 $581 1 #
vertex $-1 -1 $-1 $759 $768 #
straight-curve $-1 -1 $-1 -5 11 0 0 0 -1 I I #
model_id-kcp-attrib $-1 -1 $-1 $-1 $582 1 1021499778 1021499778 596049921 12 #
plane-surface $-1 -1 $-1 -6 11 0 0 1 0 1 0 0 forward_v I I I I #
coedge $-1 -1 $-1 $748 $747 $585 $698 reversed $674 $-1 #
edge $769 -1 $-1 $702 0 $708 5 $585 $770 forward @7 unknown #
coedge $-1 -1 $-1 $586 $758 $748 $771 forward $700 $-1 #
loop $-1 -1 $-1 $-1 $586 $755 #
attrib_edge_convexity-kcp-attrib $-1 -1 $772 $-1 $587 1 #
vertex $-1 -1 $-1 $698 $773 #
straight-curve $-1 -1 $-1 -6 6 -2 0 1 0 I I #
convexity-sys-attrib $-1 -1 $-1 $588 $440 #
point $-1 -1 $-1 -6 11 -2 #
coedge $-1 -1 $-1 $664 $591 $747 $774 forward $402 $-1 #
attrib_edge_convexity-kcp-attrib $-1 -1 $775 $-1 $592 1 #
vertex $-1 -1 $-1 $774 $776 #
straight-curve $-1 -1 $-1 -6 -11 -7 0 1 0 I I #
convexity-sys-attrib $-1 -1 $-1 $595 $446 #
point $-1 -1 $-1 -2 -11 -7 #
convexity-sys-attrib $-1 -1 $-1 $600 $450 #
coedge $-1 -1 $-1 $608 $607 $621 $722 reversed $331 $-1 #
coedge $-1 -1 $-1 $621 $613 $609 $715 forward $489 $-1 #
edge $777 -1 $-1 $615 -6 $716 5 $609 $778 forward @7 unknown #
vertex $-1 -1 $-1 $715 $779 #
straight-curve $-1 -1 $-1 -5 7 3.5 0 1 0 I I #
point $-1 -1 $-1 -5 12 3.5 #
convexity-sys-attrib $-1 -1 $-1 $-1 $614 #
straight-curve $-1 -1 $-1 6 7 0 0 0 1 I I #
point $-1 -1 $-1 6 7 3.5 #
edge $780 -1 $-1 $716 -1.75 $624 0.25 $713 $781 forward @7 unknown #
convexity-sys-attrib $-1 -1 $-1 $-1 $622 #
straight-curve $-1 -1 $-1 -5 7 1.5 0 1 0 I I #
point $-1 -1 $-1 -5 7 1.5 #
plane-surface $-1 -1 $-1 6 -10 -3.5 0 0 -1 -1 0 0 forward_v I I I I #
coedge $-1 -1 $-1 $648 $634 $633 $728 forward $640 $-1 #
edge $782 -1 $-1 $636 0 $650 4 $633 $783 forward @7 unknown #
convexity-sys-attrib $-1 -1 $-1 $-1 $635 #
straight-curve $-1 -1 $-1 -2 -10 3.5 1 0 0 I I #
point $-1 -1 $-1 -2 -10 3.5 #
coedge $-1 -1 $-1 $639 $655 $652 $739 forward $640 $-1 #
convexity-sys-attrib $-1 -1 $-1 $-1 $645 #
vertex $-1 -1 $-1 $739 $784 #
straight-curve $-1 -1 $-1 -2 -10 -3.5 -1 0 0 I I #
convexity-sys-attrib $-1 -1 $-1 $-1 $649 #
straight-curve $-1 -1 $-1 -2 -10 -0.5 1 0 0 I I #
point $-1 -1 $-1 -2 -10 -0.5 #
edge $785 -1 $-1 $657 -3.5 $734 3.5 $652 $786 forward @7 unknown #
straight-curve $-1 -1 $-1 6 -10 -3.5 0 -1 0 I I #
convexity-sys-attrib $-1 -1 $-1 $-1 $656 #
straight-curve $-1 -1 $-1 -2 -10 3.5 1 0 0 I I #
point $-1 -1 $-1 6 -10 3.5 #
edge $-1 -1 $-1 $752 0 $666 17 $664 $787 forward @7 unknown #
convexity-sys-attrib $-1 -1 $-1 $665 $547 #
point $-1 -1 $-1 6 -11 -7 #
coedge $-1 -1 $-1 $697 $672 $706 $774 reversed $674 $-1 #
coedge $-1 -1 $-1 $673 $697 $699 $771 reversed $674 $-1 #
face $788 -1 $-1 $679 $674 $10 $-1 $789 forward single #
convexity-sys-attrib $-1 -1 $-1 $675 $560 #
attrib_edge_convexity-kcp-attrib $-1 -1 $790 $-1 $678 1 #
vertex $-1 -1 $-1 $744 $791 #
straight-curve $-1 -1 $-1 6 6 0 0 0 -1 I I #
model_id-kcp-attrib $-1 -1 $-1 $-1 $679 1 1021499778 1021499778 596049921 15 #
face $792 -1 $-1 $-1 $700 $10 $-1 $793 forward single #
plane-surface $-1 -1 $-1 6 6 0 1 0 0 0 -1 0 forward_v I I I I #
convexity-sys-attrib $-1 -1 $-1 $682 $567 #
coedge $-1 -1 $-1 $699 $690 $685 $759 forward $700 $-1 #
edge $794 -1 $-1 $693 0 $761 5 $758 $795 forward @7 unknown #
attrib_edge_convexity-kcp-attrib $-1 -1 $796 $-1 $686 2 #
vertex $-1 -1 $-1 $771 $797 #
straight-curve $-1 -1 $-1 -5 6 0 0 0 -1 I I #
model_id-kcp-attrib $-1 -1 $-1 $-1 $687 1 1021499778 1021499778 596049921 13 #
plane-surface $-1 -1 $-1 -5 11 0 1 0 0 0 -1 0 forward_v I I I I #
attrib_edge_convexity-kcp-attrib $-1 -1 $798 $-1 $691 1 #
straight-curve $-1 -1 $-1 -6 11 -2 1 0 0 I I #
convexity-sys-attrib $-1 -1 $-1 $692 $581 #
point $-1 -1 $-1 -5 11 -2 #
attrib_edge_convexity-kcp-attrib $-1 -1 $799 $-1 $698 1 #
straight-curve $-1 -1 $-1 -6 6 -2 0 0 -1 I I #
edge $800 -1 $-1 $761 0 $702 1 $748 $801 forward @7 unknown #
convexity-sys-attrib $-1 -1 $-1 $701 $587 #
point $-1 -1 $-1 -6 6 -2 #
edge $802 -1 $-1 $708 0 $752 12 $706 $803 forward @7 unknown #
convexity-sys-attrib $-1 -1 $-1 $707 $592 #
point $-1 -1 $-1 -6 6 -7 #
convexity-sys-attrib $-1 -1 $-1 $-1 $715 #
straight-curve $-1 -1 $-1 0 7 3.5 -1 0 0 I I #
point $-1 -1 $-1 -5 7 3.5 #
convexity-sys-attrib $-1 -1 $-1 $-1 $722 #
straight-curve $-1 -1 $-1 -5 7 1.75 0 0 -1 I I #
convexity-sys-attrib $-1 -1 $-1 $-1 $728 #
straight-curve $-1 -1 $-1 -2 -10 3.5 0 0 -1 I I #
point $-1 -1 $-1 6 -10 -3.5 #
convexity-sys-attrib $-1 -1 $-1 $-1 $739 #
straight-curve $-1 -1 $-1 6 -10 0 0 0 -1 I I #
straight-curve $-1 -1 $-1 6 6 -7 0 -1 0 I I #
model_id-kcp-attrib $-1 -1 $-1 $-1 $749 1 1021499778 1021499778 596049921 14 #
plane-surface $-1 -1 $-1 -6 6 0 0 1 0 1 0 0 forward_v I I I I #
convexity-sys-attrib $-1 -1 $-1 $751 $678 #
point $-1 -1 $-1 6 6 -7 #
model_id-kcp-attrib $-1 -1 $-1 $-1 $755 1 1021499778 1021499778 596049921 16 #
plane-surface $-1 -1 $-1 0 0 -2 0 0 -1 -1 0 0 forward_v I I I I #
attrib_edge_convexity-kcp-attrib $-1 -1 $804 $-1 $759 1 #
straight-curve $-1 -1 $-1 -5 11 -2 0 -1 0 I I #
convexity-sys-attrib $-1 -1 $-1 $760 $686 #
point $-1 -1 $-1 -5 6 -2 #
convexity-sys-attrib $-1 -1 $-1 $765 $691 #
convexity-sys-attrib $-1 -1 $-1 $769 $698 #
attrib_edge_convexity-kcp-attrib $-1 -1 $805 $-1 $771 2 #
straight-curve $-1 -1 $-1 -5 6 -2 -1 0 0 I I #
attrib_edge_convexity-kcp-attrib $-1 -1 $806 $-1 $774 1 #
straight-curve $-1 -1 $-1 -6 6 -7 1 0 0 I I #
convexity-sys-attrib $-1 -1 $-1 $794 $759 #
convexity-sys-attrib $-1 -1 $-1 $800 $771 #
convexity-sys-attrib $-1 -1 $-1 $802 $774 #
End-of-ACIS-data 