700 0 2 0           
24 FBMach with ACIS - 7.0.3 13 ACIS 7.0.3 NT 24 Wed May 15 17:34:55 2002 
1 9.9999999999999995e-007 1e-010 
body $2 -1 $-1 $3 $-1 $4 #
bdycol-kcp $-1 -1 1 5 $5 $6 $7 $8 $9 #
model_id-kcp-attrib $-1 -1 $-1 $-1 $0 1 1021498494 1021498494 342753281 1 #
lump $-1 -1 $-1 $-1 $10 $0 #
transform $-1 -1 1 0 0 0 1 0 0 0 1 0 0 0 1 rotate no_reflect no_shear #
body $11 -1 $-1 $12 $-1 $13 #
body $14 -1 $-1 $15 $-1 $16 #
body $17 -1 $-1 $18 $-1 $19 #
body $20 -1 $-1 $21 $-1 $22 #
body $23 -1 $-1 $24 $-1 $25 #
shell $-1 -1 $-1 $-1 $-1 $26 $-1 $3 #
rgb_color-st-attrib $-1 -1 $27 $-1 $5 0.5 1 1 #
lump $-1 -1 $-1 $-1 $28 $5 #
transform $-1 -1 1 0 0 0 1 0 0 0 1 0 0 0 1 no_rotate no_reflect no_shear #
rgb_color-st-attrib $-1 -1 $29 $-1 $6 0.59999999999999998 0.90000000000000002 1 #
lump $-1 -1 $-1 $-1 $30 $6 #
transform $-1 -1 1 0 0 0 1 0 0 0 1 0 -1 -3.5 1 no_rotate no_reflect no_shear #
rgb_color-st-attrib $-1 -1 $31 $-1 $7 1 0.5 1 #
lump $-1 -1 $-1 $-1 $32 $7 #
transform $-1 -1 1 0 0 0 1 0 0 0 1 0 -1 -3.5 1 no_rotate no_reflect no_shear #
model_id-kcp-attrib $-1 -1 $-1 $-1 $8 1 1021498494 1021498494 343408642 1 #
lump $-1 -1 $-1 $-1 $33 $8 #
transform $-1 -1 1 0 0 0 1 0 0 0 1 0 -1 -3.5 1 no_rotate no_reflect no_shear #
rgb_color-st-attrib $-1 -1 $34 $-1 $9 1 0.5 1 #
lump $-1 -1 $-1 $-1 $35 $9 #
transform $-1 -1 1 0 0 0 1 0 0 0 1 0 -1 -3.5 1 no_rotate no_reflect no_shear #
face $36 -1 $-1 $37 $38 $10 $-1 $39 reversed single #
model_id-kcp-attrib $-1 -1 $-1 $11 $5 1 1021498494 1021498494 336527363 1 #
shell $-1 -1 $-1 $-1 $-1 $40 $-1 $12 #
model_id-kcp-attrib $-1 -1 $-1 $14 $6 1 1021498494 1021498494 337051654 1 #
shell $-1 -1 $-1 $-1 $-1 $41 $-1 $15 #
model_id-kcp-attrib $-1 -1 $-1 $17 $7 1 1021498494 1021498494 343343109 1 #
shell $-1 -1 $-1 $-1 $-1 $42 $-1 $18 #
shell $-1 -1 $-1 $-1 $-1 $43 $-1 $21 #
model_id-kcp-attrib $-1 -1 $-1 $23 $9 1 1021498494 1021498494 348979204 1 #
shell $-1 -1 $-1 $-1 $-1 $44 $-1 $24 #
model_id-kcp-attrib $-1 -1 $-1 $-1 $26 1 1021498494 1021498494 342753281 2 #
face $45 -1 $-1 $46 $47 $10 $-1 $48 reversed single #
loop $-1 -1 $-1 $49 $50 $26 #
plane-surface $-1 -1 $-1 0 0 0 0 0 -1 -1 0 0 forward_v I I I I #
face $-1 -1 $-1 $51 $52 $28 $-1 $53 forward single #
face $-1 -1 $-1 $54 $55 $30 $-1 $56 forward single #
face $-1 -1 $-1 $57 $58 $32 $-1 $59 reversed single #
face $60 -1 $-1 $61 $62 $33 $-1 $63 forward single #
face $-1 -1 $-1 $64 $65 $35 $-1 $66 forward single #
model_id-kcp-attrib $-1 -1 $-1 $-1 $37 1 1021498494 1021498494 342753281 3 #
face $67 -1 $-1 $68 $69 $10 $-1 $70 reversed single #
loop $-1 -1 $-1 $-1 $71 $37 #
cone-surface $-1 -1 $-1 0 -11 0 0 0 -1 -1 0 0 1 I I 0 1 1 forward I I I I #
loop $-1 -1 $-1 $-1 $72 $26 #
coedge $-1 -1 $-1 $73 $73 $74 $75 forward $38 $-1 #
face $-1 -1 $-1 $76 $77 $28 $-1 $78 reversed single #
loop $-1 -1 $-1 $79 $80 $40 #
cone-surface $-1 -1 $-1 0 -11 0 0 0 -1 1 0 0 1 I I 0 1 1 forward I I I I #
face $-1 -1 $-1 $81 $82 $30 $-1 $83 forward single #
loop $-1 -1 $-1 $-1 $84 $41 #
cone-surface $-1 -1 $-1 0 -10 -0.5 0 0 -1 -2 0 0 1 I I 0 1 2 forward I I I I #
face $-1 -1 $-1 $85 $86 $32 $-1 $87 forward single #
loop $-1 -1 $-1 $-1 $88 $42 #
plane-surface $-1 -1 $-1 0 -12 0 0 1 0 0 0 1 forward_v I I I I #
model_id-kcp-attrib $-1 -1 $-1 $-1 $43 1 1021498494 1021498494 343408642 2 #
face $89 -1 $-1 $90 $91 $33 $-1 $92 reversed single #
loop $-1 -1 $-1 $-1 $93 $43 #
plane-surface $-1 -1 $-1 0 0 3.5 0 0 1 1 0 0 forward_v I I I I #
face $-1 -1 $-1 $94 $95 $35 $-1 $96 forward single #
loop $-1 -1 $-1 $-1 $97 $44 #
plane-surface $-1 -1 $-1 -6 7 1.5 -1 0 0 0 0 1 forward_v I I I I #
model_id-kcp-attrib $-1 -1 $-1 $-1 $46 1 1021498494 1021498494 342753281 4 #
face $98 -1 $-1 $99 $100 $10 $-1 $101 forward single #
loop $-1 -1 $-1 $-1 $102 $46 #
cone-surface $-1 -1 $-1 0 -11 0 0 0 -1 -1 0 0 1 I I 0 1 1 forward I I I I #
coedge $-1 -1 $-1 $74 $103 $104 $105 reversed $47 $-1 #
coedge $-1 -1 $-1 $106 $107 $108 $109 reversed $49 $-1 #
coedge $-1 -1 $-1 $50 $50 $110 $111 forward $38 $-1 #
coedge $-1 -1 $-1 $112 $71 $50 $75 reversed $47 $-1 #
edge $113 -1 $-1 $114 0 $115 3.1415926535897931 $50 $116 forward @7 unknown #
face $-1 -1 $-1 $-1 $117 $28 $-1 $118 forward single #
loop $-1 -1 $-1 $-1 $119 $51 #
plane-surface $-1 -1 $-1 0 -11 -4 0 0 1 1 0 0 forward_v I I I I #
loop $-1 -1 $-1 $-1 $120 $40 #
coedge $-1 -1 $-1 $80 $80 $119 $121 forward $52 $-1 #
face $-1 -1 $-1 $122 $123 $30 $-1 $124 reversed single #
loop $-1 -1 $-1 $-1 $125 $54 #
plane-surface $-1 -1 $-1 -2 -10 -0.5 0 -1 0 0 0 -1 forward_v I I I I #
coedge $-1 -1 $-1 $126 $127 $128 $129 forward $55 $-1 #
face $-1 -1 $-1 $130 $131 $32 $-1 $132 forward single #
loop $-1 -1 $-1 $-1 $133 $57 #
plane-surface $-1 -1 $-1 -6 -10 -3.5 -1 0 0 0 0 1 forward_v I I I I #
coedge $-1 -1 $-1 $134 $135 $136 $137 forward $58 $-1 #
model_id-kcp-attrib $-1 -1 $-1 $-1 $61 1 1021498494 1021498494 343408642 3 #
face $-1 -1 $-1 $138 $139 $33 $-1 $140 reversed single #
loop $-1 -1 $-1 $-1 $141 $61 #
plane-surface $-1 -1 $-1 0 0 -3.5 0 0 1 1 0 0 forward_v I I I I #
coedge $-1 -1 $-1 $142 $143 $144 $145 forward $62 $-1 #
face $-1 -1 $-1 $146 $147 $35 $-1 $148 forward single #
loop $-1 -1 $-1 $-1 $149 $64 #
plane-surface $-1 -1 $-1 -6 7 -3.5 0 0 -1 -1 0 0 forward_v I I I I #
coedge $-1 -1 $-1 $150 $151 $152 $153 forward $65 $-1 #
model_id-kcp-attrib $-1 -1 $-1 $-1 $68 1 1021498494 1021498494 342753281 5 #
face $154 -1 $-1 $155 $156 $10 $-1 $157 reversed single #
loop $-1 -1 $-1 $158 $159 $68 #
plane-surface $-1 -1 $-1 0 0 -4 0 0 -1 -1 0 0 forward_v I I I I #
coedge $-1 -1 $-1 $110 $160 $112 $161 reversed $69 $-1 #
coedge $-1 -1 $-1 $71 $112 $162 $163 forward $47 $-1 #
coedge $-1 -1 $-1 $160 $110 $71 $105 forward $69 $-1 #
edge $-1 -1 $-1 $115 0 $164 4 $104 $165 forward @7 unknown #
coedge $-1 -1 $-1 $166 $72 $167 $168 reversed $49 $-1 #
coedge $-1 -1 $-1 $72 $169 $170 $171 forward $49 $-1 #
coedge $-1 -1 $-1 $172 $173 $72 $109 forward $174 $-1 #
edge $175 -1 $-1 $176 0 $177 4 $72 $178 forward @7 unknown #
coedge $-1 -1 $-1 $104 $102 $73 $111 reversed $69 $-1 #
edge $179 -1 $-1 $115 0 $114 3.1415926535897931 $73 $180 forward @7 unknown #
coedge $-1 -1 $-1 $103 $74 $102 $161 forward $47 $-1 #
attrib_edge_convexity-kcp-attrib $-1 -1 $181 $-1 $75 1 #
vertex $-1 -1 $-1 $111 $182 #
vertex $-1 -1 $-1 $111 $183 #
ellipse-curve $-1 -1 $-1 0 -11 0 0 0 -1 1 0 0 1 I I #
loop $-1 -1 $-1 $-1 $184 $76 #
plane-surface $-1 -1 $-1 0 -11 0 0 0 1 1 0 0 forward_v I I I I #
coedge $-1 -1 $-1 $119 $119 $80 $121 reversed $77 $-1 #
coedge $-1 -1 $-1 $120 $120 $184 $185 forward $79 $-1 #
edge $-1 -1 $-1 $186 0 $186 6.2831853071795862 $80 $187 forward @7 unknown #
face $-1 -1 $-1 $-1 $188 $30 $-1 $189 forward single #
loop $-1 -1 $-1 $-1 $128 $81 #
plane-surface $-1 -1 $-1 4.7111954295117482e-017 -9.2985818451958799 -3.5 0 0 1 1 0 0 forward_v I I I I #
coedge $-1 -1 $-1 $190 $191 $192 $193 forward $82 $-1 #
coedge $-1 -1 $-1 $194 $84 $191 $195 reversed $55 $-1 #
coedge $-1 -1 $-1 $84 $194 $190 $196 forward $55 $-1 #
coedge $-1 -1 $-1 $192 $192 $84 $129 reversed $123 $-1 #
edge $-1 -1 $-1 $197 -3.1415926535897931 $198 0 $84 $199 forward @7 unknown #
face $-1 -1 $-1 $200 $201 $32 $-1 $202 forward single #
loop $-1 -1 $-1 $-1 $203 $85 #
plane-surface $-1 -1 $-1 -6 -10 3.5 0 0 1 1 0 0 forward_v I I I I #
coedge $-1 -1 $-1 $204 $205 $206 $207 reversed $86 $-1 #
coedge $-1 -1 $-1 $208 $88 $209 $210 forward $58 $-1 #
coedge $-1 -1 $-1 $88 $211 $212 $213 forward $58 $-1 #
coedge $-1 -1 $-1 $214 $215 $88 $137 reversed $216 $-1 #
edge $-1 -1 $-1 $217 -3.75 $218 0.25 $136 $219 forward @7 unknown #
face $220 -1 $-1 $221 $222 $33 $-1 $223 reversed single #
loop $-1 -1 $-1 $-1 $224 $90 #
plane-surface $-1 -1 $-1 0 -12 0 0 1 0 0 0 1 forward_v I I I I #
coedge $-1 -1 $-1 $225 $226 $227 $228 forward $91 $-1 #
coedge $-1 -1 $-1 $229 $93 $230 $231 forward $62 $-1 #
coedge $-1 -1 $-1 $93 $229 $232 $233 forward $62 $-1 #
coedge $-1 -1 $-1 $234 $235 $93 $145 reversed $236 $-1 #
edge $-1 -1 $-1 $237 -12 $238 12 $144 $239 forward @7 unknown #
face $-1 -1 $-1 $240 $241 $35 $-1 $242 forward single #
loop $-1 -1 $-1 $-1 $243 $94 #
plane-surface $-1 -1 $-1 6 7 -3.5 1 0 0 0 0 -1 forward_v I I I I #
coedge $-1 -1 $-1 $244 $245 $246 $247 forward $95 $-1 #
coedge $-1 -1 $-1 $248 $97 $245 $249 reversed $65 $-1 #
coedge $-1 -1 $-1 $97 $248 $250 $251 forward $65 $-1 #
coedge $-1 -1 $-1 $252 $246 $97 $153 reversed $253 $-1 #
edge $-1 -1 $-1 $254 -1.5 $255 3.5 $97 $256 forward @7 unknown #
model_id-kcp-attrib $-1 -1 $-1 $-1 $99 1 1021498494 1021498494 342753281 6 #
face $257 -1 $-1 $258 $259 $10 $-1 $260 forward single #
loop $-1 -1 $-1 $-1 $261 $99 #
cone-surface $-1 -1 $-1 0 -11 -7 0 0 -1 -2 0 0 1 I I 0 1 2 forward I I I I #
loop $-1 -1 $-1 $-1 $162 $68 #
coedge $-1 -1 $-1 $262 $262 $263 $264 forward $100 $-1 #
coedge $-1 -1 $-1 $102 $104 $265 $266 forward $69 $-1 #
edge $-1 -1 $-1 $114 0 $267 4 $102 $268 forward @7 unknown #
coedge $-1 -1 $-1 $265 $265 $103 $163 reversed $158 $-1 #
edge $269 -1 $-1 $267 0 $164 3.1415926535897967 $103 $270 forward @7 unknown #
vertex $-1 -1 $-1 $266 $271 #
straight-curve $-1 -1 $-1 -1 -11 0 0 0 -1 I I #
coedge $-1 -1 $-1 $272 $106 $273 $274 reversed $49 $-1 #
coedge $-1 -1 $-1 $275 $276 $106 $168 forward $277 $-1 #
edge $278 -1 $-1 $279 0 $176 3.1415926535897931 $106 $280 forward @7 unknown #
coedge $-1 -1 $-1 $107 $281 $282 $283 reversed $49 $-1 #
coedge $-1 -1 $-1 $284 $285 $107 $171 reversed $286 $-1 #
edge $287 -1 $-1 $288 0 $177 22 $107 $289 forward @7 unknown #
coedge $-1 -1 $-1 $290 $108 $285 $291 forward $174 $-1 #
coedge $-1 -1 $-1 $108 $292 $275 $293 reversed $174 $-1 #
loop $-1 -1 $-1 $-1 $173 $294 #
attrib_edge_convexity-kcp-attrib $-1 -1 $295 $-1 $109 1 #
vertex $-1 -1 $-1 $168 $296 #
vertex $-1 -1 $-1 $171 $297 #
straight-curve $-1 -1 $-1 -2 -11 0 -1 0 0 I I #
attrib_edge_convexity-kcp-attrib $-1 -1 $298 $-1 $111 1 #
ellipse-curve $-1 -1 $-1 0 -11 0 0 0 -1 -1 0 0 1 I I #
convexity-sys-attrib $-1 -1 $-1 $113 $75 #
point $-1 -1 $-1 1 -11 0 #
point $-1 -1 $-1 -1 -11 0 #
coedge $-1 -1 $-1 $184 $184 $120 $185 reversed $117 $-1 #
edge $-1 -1 $-1 $299 0 $299 6.2831853071795862 $120 $300 forward @7 unknown #
vertex $-1 -1 $-1 $121 $301 #
ellipse-curve $-1 -1 $-1 0 -11 -4 0 0 1 -1 0 0 1 I I #
loop $-1 -1 $-1 $-1 $302 $122 #
plane-surface $-1 -1 $-1 4.7111954295117482e-017 -9.2985818451958799 -0.5 0 0 1 1 0 0 forward_v I I I I #
coedge $-1 -1 $-1 $303 $125 $127 $196 reversed $82 $-1 #
coedge $-1 -1 $-1 $125 $303 $126 $195 forward $82 $-1 #
coedge $-1 -1 $-1 $128 $128 $125 $193 reversed $123 $-1 #
edge $-1 -1 $-1 $198 -2 $197 2 $125 $304 forward @7 unknown #
coedge $-1 -1 $-1 $127 $126 $305 $306 reversed $55 $-1 #
edge $-1 -1 $-1 $307 0 $198 3 $191 $308 forward @7 unknown #
edge $-1 -1 $-1 $309 0 $197 3 $127 $310 forward @7 unknown #
vertex $-1 -1 $-1 $196 $311 #
vertex $-1 -1 $-1 $195 $312 #
ellipse-curve $-1 -1 $-1 0 -10 -3.5 0 0 1 -2 0 0 1 I I #
face $-1 -1 $-1 $313 $314 $32 $-1 $315 forward single #
loop $-1 -1 $-1 $-1 $316 $130 #
plane-surface $-1 -1 $-1 -2 -10 3.5 1 0 0 0 0 -1 forward_v I I I I #
coedge $-1 -1 $-1 $317 $318 $319 $320 reversed $131 $-1 #
coedge $-1 -1 $-1 $321 $133 $318 $322 reversed $86 $-1 #
coedge $-1 -1 $-1 $133 $321 $323 $324 forward $86 $-1 #
coedge $-1 -1 $-1 $325 $319 $133 $207 forward $58 $-1 #
edge $-1 -1 $-1 $326 -5.25 $327 1.75 $133 $328 forward @7 unknown #
coedge $-1 -1 $-1 $319 $134 $316 $329 forward $58 $-1 #
coedge $-1 -1 $-1 $330 $331 $134 $210 reversed $314 $-1 #
edge $-1 -1 $-1 $218 -3 $332 1 $209 $333 forward @7 unknown #
coedge $-1 -1 $-1 $135 $325 $334 $335 forward $58 $-1 #
coedge $-1 -1 $-1 $336 $337 $135 $213 reversed $338 $-1 #
edge $-1 -1 $-1 $339 -5 $217 -1 $212 $340 forward @7 unknown #
coedge $-1 -1 $-1 $341 $136 $337 $342 reversed $216 $-1 #
coedge $-1 -1 $-1 $136 $341 $330 $343 forward $216 $-1 #
loop $-1 -1 $-1 $-1 $136 $344 #
vertex $-1 -1 $-1 $137 $345 #
vertex $-1 -1 $-1 $137 $346 #
straight-curve $-1 -1 $-1 2 -12 -0.25 0 0 -1 I I #
model_id-kcp-attrib $-1 -1 $-1 $-1 $138 1 1021498494 1021498494 343408642 4 #
face $347 -1 $-1 $348 $349 $33 $-1 $350 reversed single #
loop $-1 -1 $-1 $-1 $351 $138 #
plane-surface $-1 -1 $-1 -6 0 0 1 0 0 0 0 -1 forward_v I I I I #
coedge $-1 -1 $-1 $352 $232 $353 $354 forward $139 $-1 #
coedge $-1 -1 $-1 $355 $141 $352 $356 forward $91 $-1 #
coedge $-1 -1 $-1 $141 $355 $357 $358 forward $91 $-1 #
coedge $-1 -1 $-1 $235 $234 $141 $228 reversed $236 $-1 #
edge $-1 -1 $-1 $359 -12 $360 12 $227 $361 forward @7 unknown #
coedge $-1 -1 $-1 $143 $142 $362 $363 forward $62 $-1 #
coedge $-1 -1 $-1 $364 $365 $142 $231 reversed $349 $-1 #
edge $-1 -1 $-1 $238 -6 $366 6 $230 $367 forward @7 unknown #
coedge $-1 -1 $-1 $224 $368 $143 $233 reversed $139 $-1 #
edge $-1 -1 $-1 $369 -6 $237 6 $232 $370 forward @7 unknown #
coedge $-1 -1 $-1 $227 $144 $368 $371 forward $236 $-1 #
coedge $-1 -1 $-1 $144 $227 $364 $372 reversed $236 $-1 #
loop $-1 -1 $-1 $-1 $234 $348 #
vertex $-1 -1 $-1 $145 $373 #
vertex $-1 -1 $-1 $145 $374 #
straight-curve $-1 -1 $-1 6 0 3.5 0 1 0 I I #
face $-1 -1 $-1 $375 $376 $35 $-1 $377 forward single #
loop $-1 -1 $-1 $-1 $378 $146 #
plane-surface $-1 -1 $-1 6 7 3.5 0 0 1 1 0 0 forward_v I I I I #
coedge $-1 -1 $-1 $379 $380 $381 $382 forward $147 $-1 #
coedge $-1 -1 $-1 $383 $149 $380 $384 reversed $95 $-1 #
coedge $-1 -1 $-1 $149 $383 $150 $249 forward $95 $-1 #
coedge $-1 -1 $-1 $152 $381 $149 $247 reversed $253 $-1 #
edge $-1 -1 $-1 $255 -6 $385 6 $149 $386 forward @7 unknown #
coedge $-1 -1 $-1 $151 $150 $387 $388 reversed $65 $-1 #
edge $-1 -1 $-1 $389 0 $255 5 $245 $390 forward @7 unknown #
coedge $-1 -1 $-1 $391 $392 $151 $251 reversed $393 $-1 #
edge $-1 -1 $-1 $394 0 $254 5 $151 $395 forward @7 unknown #
coedge $-1 -1 $-1 $396 $152 $392 $397 reversed $253 $-1 #
loop $-1 -1 $-1 $-1 $152 $398 #
vertex $-1 -1 $-1 $251 $399 #
vertex $-1 -1 $-1 $249 $400 #
straight-curve $-1 -1 $-1 -6 12 0 0 0 -1 I I #
model_id-kcp-attrib $-1 -1 $-1 $-1 $155 1 1021498494 1021498494 342753281 7 #
face $401 -1 $-1 $294 $402 $10 $-1 $403 forward single #
loop $-1 -1 $-1 $-1 $404 $155 #
plane-surface $-1 -1 $-1 6 -11 0 0 -1 0 -1 0 0 forward_v I I I I #
coedge $-1 -1 $-1 $263 $405 $406 $407 reversed $156 $-1 #
coedge $-1 -1 $-1 $159 $159 $408 $409 forward $100 $-1 #
coedge $-1 -1 $-1 $410 $261 $159 $264 reversed $156 $-1 #
edge $411 -1 $-1 $412 0 $413 3.1415926535897931 $159 $414 forward @7 unknown #
coedge $-1 -1 $-1 $162 $162 $160 $266 reversed $158 $-1 #
edge $415 -1 $-1 $164 0 $267 3.1415926535897967 $160 $416 forward @7 unknown #
vertex $-1 -1 $-1 $266 $417 #
straight-curve $-1 -1 $-1 1 -11 0 0 0 -1 I I #
attrib_edge_convexity-kcp-attrib $-1 -1 $418 $-1 $163 1 #
ellipse-curve $-1 -1 $-1 -2.7755575615628914e-017 -11.000000000000002 -4 0 0 -1 1 1.7763568394002505e-015 0 1 I I #
point $-1 -1 $-1 -1 -11 -4 #
coedge $-1 -1 $-1 $419 $166 $420 $421 reversed $49 $-1 #
coedge $-1 -1 $-1 $422 $423 $166 $274 forward $259 $-1 #
edge $424 -1 $-1 $425 0 $279 4 $166 $426 forward @7 unknown #
coedge $-1 -1 $-1 $408 $167 $173 $293 forward $277 $-1 #
coedge $-1 -1 $-1 $167 $408 $422 $427 reversed $277 $-1 #
loop $-1 -1 $-1 $-1 $276 $428 #
attrib_edge_convexity-kcp-attrib $-1 -1 $429 $-1 $168 1 #
vertex $-1 -1 $-1 $274 $430 #
ellipse-curve $-1 -1 $-1 0 -11 0 0 0 -1 2 0 0 1 I I #
coedge $-1 -1 $-1 $169 $419 $431 $432 reversed $49 $-1 #
coedge $-1 -1 $-1 $433 $434 $169 $283 forward $435 $-1 #
edge $436 -1 $-1 $288 0 $437 1 $169 $438 forward @7 unknown #
coedge $-1 -1 $-1 $439 $170 $434 $440 forward $286 $-1 #
coedge $-1 -1 $-1 $170 $441 $172 $291 reversed $286 $-1 #
loop $-1 -1 $-1 $-1 $441 $442 #
attrib_edge_convexity-kcp-attrib $-1 -1 $443 $-1 $171 1 #
vertex $-1 -1 $-1 $171 $444 #
straight-curve $-1 -1 $-1 -6 11 0 0 -1 0 I I #
coedge $-1 -1 $-1 $292 $172 $445 $446 reversed $174 $-1 #
edge $447 -1 $-1 $177 0 $448 7 $172 $449 forward @7 unknown #
coedge $-1 -1 $-1 $173 $290 $410 $450 reversed $174 $-1 #
edge $451 -1 $-1 $176 0 $412 4 $275 $452 forward @7 unknown #
face $453 -1 $-1 $428 $174 $10 $-1 $454 forward single #
convexity-sys-attrib $-1 -1 $-1 $175 $109 #
point $-1 -1 $-1 -2 -11 0 #
point $-1 -1 $-1 -6 -11 0 #
convexity-sys-attrib $-1 -1 $-1 $179 $111 #
vertex $-1 -1 $-1 $185 $455 #
ellipse-curve $-1 -1 $-1 0 -11 0 0 0 -1 1 0 0 1 I I #
point $-1 -1 $-1 -1 -11 -4 #
coedge $-1 -1 $-1 $305 $305 $303 $456 forward $188 $-1 #
coedge $-1 -1 $-1 $191 $190 $302 $456 reversed $82 $-1 #
straight-curve $-1 -1 $-1 0 -10 -3.5 1 0 0 I I #
coedge $-1 -1 $-1 $302 $302 $194 $306 forward $188 $-1 #
edge $457 -1 $-1 $309 -3.1415926535897931 $307 0 $194 $458 forward @7 unknown #
vertex $-1 -1 $-1 $456 $459 #
straight-curve $-1 -1 $-1 -2 -10 -0.5 0 0 -1 I I #
vertex $-1 -1 $-1 $456 $460 #
straight-curve $-1 -1 $-1 2 -10 -0.5 0 0 -1 I I #
point $-1 -1 $-1 2 -10 -3.5 #
point $-1 -1 $-1 -2 -10 -3.5 #
face $-1 -1 $-1 $461 $338 $32 $-1 $462 forward single #
loop $-1 -1 $-1 $-1 $209 $200 #
plane-surface $-1 -1 $-1 -2 -10 -0.5 0 0 1 1 0 0 forward_v I I I I #
coedge $-1 -1 $-1 $463 $464 $208 $329 reversed $201 $-1 #
coedge $-1 -1 $-1 $465 $203 $464 $466 reversed $131 $-1 #
coedge $-1 -1 $-1 $203 $465 $204 $322 forward $131 $-1 #
coedge $-1 -1 $-1 $206 $208 $203 $320 forward $58 $-1 #
edge $-1 -1 $-1 $467 -1 $326 3 $203 $468 forward @7 unknown #
coedge $-1 -1 $-1 $205 $204 $469 $470 reversed $86 $-1 #
edge $-1 -1 $-1 $471 0 $326 2 $318 $472 forward @7 unknown #
coedge $-1 -1 $-1 $473 $474 $205 $324 reversed $475 $-1 #
edge $-1 -1 $-1 $476 0 $327 2 $205 $477 forward @7 unknown #
coedge $-1 -1 $-1 $211 $206 $474 $478 forward $58 $-1 #
vertex $-1 -1 $-1 $320 $479 #
vertex $-1 -1 $-1 $478 $480 #
straight-curve $-1 -1 $-1 -6 -12 -1.75 0 0 -1 I I #
edge $-1 -1 $-1 $332 -2.25 $467 1.75 $316 $481 forward @7 unknown #
coedge $-1 -1 $-1 $482 $209 $215 $343 reversed $314 $-1 #
coedge $-1 -1 $-1 $209 $482 $463 $483 forward $314 $-1 #
vertex $-1 -1 $-1 $210 $484 #
straight-curve $-1 -1 $-1 -1 -12 -0.5 -1 0 0 I I #
coedge $-1 -1 $-1 $485 $486 $211 $335 reversed $487 $-1 #
edge $-1 -1 $-1 $488 -5.25 $339 1.75 $334 $489 forward @7 unknown #
coedge $-1 -1 $-1 $490 $212 $486 $491 reversed $338 $-1 #
coedge $-1 -1 $-1 $212 $490 $214 $342 forward $338 $-1 #
loop $-1 -1 $-1 $-1 $212 $313 #
vertex $-1 -1 $-1 $213 $492 #
straight-curve $-1 -1 $-1 1 -12 3.5 -1 0 0 I I #
coedge $-1 -1 $-1 $215 $214 $493 $494 reversed $216 $-1 #
edge $-1 -1 $-1 $495 0 $217 2 $337 $496 forward @7 unknown #
edge $-1 -1 $-1 $497 0 $218 2 $215 $498 forward @7 unknown #
face $-1 -1 $-1 $499 $216 $32 $-1 $500 forward single #
point $-1 -1 $-1 2 -12 3.5 #
point $-1 -1 $-1 2 -12 -0.5 #
model_id-kcp-attrib $-1 -1 $-1 $-1 $221 1 1021498494 1021498494 343408642 5 #
face $501 -1 $-1 $-1 $236 $33 $-1 $502 reversed single #
loop $-1 -1 $-1 $-1 $364 $221 #
plane-surface $-1 -1 $-1 0 12 0 0 -1 0 0 0 -1 forward_v I I I I #
coedge $-1 -1 $-1 $503 $362 $365 $504 forward $222 $-1 #
coedge $-1 -1 $-1 $368 $224 $225 $356 reversed $139 $-1 #
coedge $-1 -1 $-1 $362 $503 $224 $354 reversed $222 $-1 #
edge $-1 -1 $-1 $369 -3.5 $505 3.5 $353 $506 forward @7 unknown #
coedge $-1 -1 $-1 $226 $225 $503 $507 forward $91 $-1 #
edge $-1 -1 $-1 $360 -6 $505 6 $352 $508 forward @7 unknown #
coedge $-1 -1 $-1 $365 $364 $226 $358 reversed $349 $-1 #
edge $-1 -1 $-1 $509 -6 $359 6 $357 $510 forward @7 unknown #
vertex $-1 -1 $-1 $228 $511 #
vertex $-1 -1 $-1 $371 $512 #
straight-curve $-1 -1 $-1 6 0 -3.5 0 -1 0 I I #
coedge $-1 -1 $-1 $351 $353 $229 $363 reversed $222 $-1 #
edge $-1 -1 $-1 $366 -12 $369 12 $362 $513 forward @7 unknown #
coedge $-1 -1 $-1 $357 $230 $235 $372 forward $349 $-1 #
coedge $-1 -1 $-1 $230 $357 $351 $504 reversed $349 $-1 #
vertex $-1 -1 $-1 $231 $514 #
straight-curve $-1 -1 $-1 0 12 3.5 -1 0 0 I I #
coedge $-1 -1 $-1 $232 $352 $234 $371 reversed $139 $-1 #
vertex $-1 -1 $-1 $363 $515 #
straight-curve $-1 -1 $-1 0 -12 3.5 1 0 0 I I #
edge $-1 -1 $-1 $237 -3.5 $360 3.5 $234 $516 forward @7 unknown #
edge $-1 -1 $-1 $238 -3.5 $359 3.5 $235 $517 forward @7 unknown #
point $-1 -1 $-1 6 -12 3.5 #
point $-1 -1 $-1 6 12 3.5 #
face $-1 -1 $-1 $398 $393 $35 $-1 $518 forward single #
loop $-1 -1 $-1 $-1 $519 $240 #
plane-surface $-1 -1 $-1 -5 7 3.5 -1 0 0 0 0 1 forward_v I I I I #
coedge $-1 -1 $-1 $520 $521 $522 $523 forward $241 $-1 #
coedge $-1 -1 $-1 $524 $243 $521 $525 reversed $147 $-1 #
coedge $-1 -1 $-1 $243 $524 $244 $384 forward $147 $-1 #
coedge $-1 -1 $-1 $246 $522 $243 $382 reversed $253 $-1 #
edge $-1 -1 $-1 $385 -3.5 $526 3.5 $243 $527 forward @7 unknown #
coedge $-1 -1 $-1 $245 $244 $528 $529 reversed $95 $-1 #
edge $-1 -1 $-1 $530 0 $385 5 $380 $531 forward @7 unknown #
vertex $-1 -1 $-1 $384 $532 #
straight-curve $-1 -1 $-1 0 12 -3.5 1 0 0 I I #
coedge $-1 -1 $-1 $528 $533 $248 $388 forward $534 $-1 #
edge $535 -1 $-1 $394 -1.5 $389 3.5 $248 $536 forward @7 unknown #
vertex $-1 -1 $-1 $388 $537 #
straight-curve $-1 -1 $-1 -6 7 -3.5 0 1 0 I I #
coedge $-1 -1 $-1 $538 $250 $533 $539 reversed $393 $-1 #
coedge $-1 -1 $-1 $250 $538 $252 $397 forward $393 $-1 #
loop $-1 -1 $-1 $-1 $392 $375 #
vertex $-1 -1 $-1 $539 $540 #
straight-curve $-1 -1 $-1 -6 7 1.5 0 1 0 I I #
coedge $-1 -1 $-1 $522 $252 $519 $541 reversed $253 $-1 #
edge $-1 -1 $-1 $542 5 $254 6 $392 $543 forward @7 unknown #
face $-1 -1 $-1 $544 $253 $35 $-1 $545 forward single #
point $-1 -1 $-1 -6 12 1.5 #
point $-1 -1 $-1 -6 12 -3.5 #
model_id-kcp-attrib $-1 -1 $-1 $-1 $258 1 1021498494 1021498494 342753281 8 #
loop $-1 -1 $-1 $-1 $445 $258 #
plane-surface $-1 -1 $-1 0 0 -7 0 0 -1 -1 0 0 forward_v I I I I #
coedge $-1 -1 $-1 $423 $406 $546 $547 reversed $259 $-1 #
coedge $-1 -1 $-1 $261 $410 $548 $549 forward $156 $-1 #
coedge $-1 -1 $-1 $404 $422 $261 $407 forward $259 $-1 #
edge $550 -1 $-1 $413 0 $551 3 $406 $552 forward @7 unknown #
coedge $-1 -1 $-1 $276 $275 $262 $409 reversed $277 $-1 #
edge $553 -1 $-1 $413 0 $412 3.1415926535897931 $408 $554 forward @7 unknown #
coedge $-1 -1 $-1 $405 $263 $292 $450 forward $156 $-1 #
attrib_edge_convexity-kcp-attrib $-1 -1 $555 $-1 $264 2 #
vertex $-1 -1 $-1 $409 $556 #
vertex $-1 -1 $-1 $407 $557 #
ellipse-curve $-1 -1 $-1 0 -11 -4 0 0 -1 -2 0 0 1 I I #
attrib_edge_convexity-kcp-attrib $-1 -1 $558 $-1 $266 1 #
ellipse-curve $-1 -1 $-1 0 -10.999999999999998 -4 0 0 -1 -1 -1.7763568394002505e-015 0 1 I I #
point $-1 -1 $-1 1 -11 -4 #
convexity-sys-attrib $-1 -1 $-1 $269 $163 #
coedge $-1 -1 $-1 $281 $272 $559 $560 reversed $49 $-1 #
coedge $-1 -1 $-1 $561 $562 $272 $421 forward $563 $-1 #
edge $564 -1 $-1 $565 0 $425 17 $272 $566 forward @7 unknown #
coedge $-1 -1 $-1 $406 $273 $276 $427 forward $259 $-1 #
coedge $-1 -1 $-1 $273 $404 $561 $567 reversed $259 $-1 #
attrib_edge_convexity-kcp-attrib $-1 -1 $568 $-1 $274 1 #
vertex $-1 -1 $-1 $421 $569 #
straight-curve $-1 -1 $-1 6 -11 0 -1 0 0 I I #
edge $570 -1 $-1 $279 0 $413 4 $422 $571 forward @7 unknown #
face $572 -1 $-1 $442 $277 $10 $-1 $573 forward single #
convexity-sys-attrib $-1 -1 $-1 $278 $168 #
point $-1 -1 $-1 2 -11 0 #
coedge $-1 -1 $-1 $574 $575 $281 $432 forward $576 $-1 #
edge $577 -1 $-1 $437 0 $578 5 $281 $579 forward @7 unknown #
coedge $-1 -1 $-1 $580 $282 $575 $581 forward $435 $-1 #
coedge $-1 -1 $-1 $282 $580 $284 $440 reversed $435 $-1 #
loop $-1 -1 $-1 $-1 $433 $582 #
attrib_edge_convexity-kcp-attrib $-1 -1 $583 $-1 $283 1 #
vertex $-1 -1 $-1 $283 $584 #
straight-curve $-1 -1 $-1 -6 11 0 1 0 0 I I #
coedge $-1 -1 $-1 $585 $284 $586 $587 reversed $286 $-1 #
edge $588 -1 $-1 $288 0 $589 2 $284 $590 forward @7 unknown #
coedge $-1 -1 $-1 $285 $585 $591 $592 reversed $286 $-1 #
face $593 -1 $-1 $582 $286 $10 $-1 $594 forward single #
convexity-sys-attrib $-1 -1 $-1 $287 $171 #
point $-1 -1 $-1 -6 11 0 #
coedge $-1 -1 $-1 $591 $548 $290 $446 forward $402 $-1 #
edge $595 -1 $-1 $596 0 $448 4 $445 $597 forward @7 unknown #
attrib_edge_convexity-kcp-attrib $-1 -1 $598 $-1 $291 1 #
vertex $-1 -1 $-1 $592 $599 #
straight-curve $-1 -1 $-1 -6 -11 0 0 0 -1 I I #
edge $600 -1 $-1 $412 0 $596 3 $292 $601 forward @7 unknown #
attrib_edge_convexity-kcp-attrib $-1 -1 $602 $-1 $293 2 #
straight-curve $-1 -1 $-1 -2 -11 0 0 0 -1 I I #
model_id-kcp-attrib $-1 -1 $-1 $-1 $294 1 1021498494 1021498494 342753281 9 #
plane-surface $-1 -1 $-1 -2 -11 0 0 -1 0 -1 0 0 forward_v I I I I #
point $-1 -1 $-1 1 -11 0 #
edge $603 -1 $-1 $307 -2 $309 2 $303 $604 forward @7 unknown #
convexity-sys-attrib $-1 -1 $-1 $-1 $306 #
ellipse-curve $-1 -1 $-1 0 -10 -0.5 0 0 1 -2 0 0 1 I I #
point $-1 -1 $-1 -2 -10 -0.5 #
point $-1 -1 $-1 2 -10 -0.5 #
face $-1 -1 $-1 $605 $487 $32 $-1 $606 forward single #
plane-surface $-1 -1 $-1 2 -10 3.5 0 0 1 1 0 0 forward_v I I I I #
coedge $-1 -1 $-1 $607 $316 $331 $483 reversed $201 $-1 #
coedge $-1 -1 $-1 $316 $607 $317 $466 forward $201 $-1 #
coedge $-1 -1 $-1 $318 $317 $608 $609 reversed $131 $-1 #
edge $-1 -1 $-1 $610 0 $467 2 $464 $611 forward @7 unknown #
vertex $-1 -1 $-1 $329 $612 #
straight-curve $-1 -1 $-1 -3 -12 3.5 -1 0 0 I I #
coedge $-1 -1 $-1 $608 $613 $321 $470 forward $614 $-1 #
edge $615 -1 $-1 $476 -3.5 $471 3.5 $321 $616 forward @7 unknown #
vertex $-1 -1 $-1 $470 $617 #
straight-curve $-1 -1 $-1 -6 -10 3.5 0 -1 0 I I #
coedge $-1 -1 $-1 $618 $323 $613 $619 reversed $475 $-1 #
coedge $-1 -1 $-1 $323 $618 $325 $478 reversed $475 $-1 #
loop $-1 -1 $-1 $-1 $474 $605 #
vertex $-1 -1 $-1 $619 $620 #
straight-curve $-1 -1 $-1 -6 -10 -3.5 0 -1 0 I I #
edge $-1 -1 $-1 $327 -9 $488 3 $474 $621 forward @7 unknown #
point $-1 -1 $-1 -6 -12 3.5 #
point $-1 -1 $-1 -6 -12 -3.5 #
straight-curve $-1 -1 $-1 -2 -12 1.75 0 0 1 I I #
coedge $-1 -1 $-1 $331 $330 $622 $623 reversed $314 $-1 #
edge $-1 -1 $-1 $624 0 $332 2 $331 $625 forward @7 unknown #
point $-1 -1 $-1 -2 -12 -0.5 #
coedge $-1 -1 $-1 $626 $334 $618 $627 reversed $487 $-1 #
coedge $-1 -1 $-1 $334 $626 $336 $491 forward $487 $-1 #
loop $-1 -1 $-1 $-1 $334 $461 #
vertex $-1 -1 $-1 $335 $628 #
straight-curve $-1 -1 $-1 6 -12 1.75 0 0 1 I I #
coedge $-1 -1 $-1 $337 $336 $629 $630 reversed $338 $-1 #
edge $-1 -1 $-1 $631 0 $339 2 $486 $632 forward @7 unknown #
point $-1 -1 $-1 6 -12 3.5 #
coedge $-1 -1 $-1 $629 $622 $341 $494 forward $614 $-1 #
edge $633 -1 $-1 $497 -4 $495 0 $341 $634 forward @7 unknown #
vertex $-1 -1 $-1 $494 $635 #
straight-curve $-1 -1 $-1 2 -10 3.5 0 -1 0 I I #
vertex $-1 -1 $-1 $494 $636 #
straight-curve $-1 -1 $-1 2 -10 -0.5 0 -1 0 I I #
face $-1 -1 $-1 $-1 $614 $32 $-1 $637 forward single #
plane-surface $-1 -1 $-1 2 -10 -0.5 -1 0 0 0 0 1 forward_v I I I I #
model_id-kcp-attrib $-1 -1 $-1 $-1 $348 1 1021498494 1021498494 343408642 6 #
plane-surface $-1 -1 $-1 6 0 0 -1 0 0 0 0 1 forward_v I I I I #
coedge $-1 -1 $-1 $353 $351 $355 $507 reversed $222 $-1 #
edge $-1 -1 $-1 $366 -3.5 $509 3.5 $365 $638 forward @7 unknown #
vertex $-1 -1 $-1 $507 $639 #
straight-curve $-1 -1 $-1 -6 -12 0 0 0 -1 I I #
edge $-1 -1 $-1 $505 -12 $509 12 $503 $640 forward @7 unknown #
straight-curve $-1 -1 $-1 0 -12 -3.5 -1 0 0 I I #
vertex $-1 -1 $-1 $358 $641 #
straight-curve $-1 -1 $-1 0 12 -3.5 1 0 0 I I #
point $-1 -1 $-1 6 12 -3.5 #
point $-1 -1 $-1 6 -12 -3.5 #
straight-curve $-1 -1 $-1 -6 0 3.5 0 -1 0 I I #
point $-1 -1 $-1 -6 12 3.5 #
point $-1 -1 $-1 -6 -12 3.5 #
straight-curve $-1 -1 $-1 6 -12 0 0 0 -1 I I #
straight-curve $-1 -1 $-1 6 12 0 0 0 -1 I I #
plane-surface $-1 -1 $-1 -5 7 1.5 0 0 1 1 0 0 forward_v I I I I #
coedge $-1 -1 $-1 $642 $643 $396 $541 forward $376 $-1 #
coedge $-1 -1 $-1 $644 $378 $643 $645 reversed $241 $-1 #
coedge $-1 -1 $-1 $378 $644 $379 $525 forward $241 $-1 #
coedge $-1 -1 $-1 $381 $396 $378 $523 reversed $253 $-1 #
edge $-1 -1 $-1 $526 -6 $646 5 $378 $647 forward @7 unknown #
coedge $-1 -1 $-1 $380 $379 $648 $649 reversed $147 $-1 #
edge $-1 -1 $-1 $650 0 $526 5 $521 $651 forward @7 unknown #
vertex $-1 -1 $-1 $525 $652 #
straight-curve $-1 -1 $-1 6 12 0 0 0 1 I I #
coedge $-1 -1 $-1 $648 $387 $383 $529 forward $534 $-1 #
edge $653 -1 $-1 $389 -6 $530 6 $383 $654 forward @7 unknown #
vertex $-1 -1 $-1 $529 $655 #
straight-curve $-1 -1 $-1 6 7 -3.5 0 1 0 I I #
point $-1 -1 $-1 6 12 -3.5 #
coedge $-1 -1 $-1 $387 $656 $391 $539 forward $534 $-1 #
loop $-1 -1 $-1 $-1 $533 $544 #
convexity-sys-attrib $-1 -1 $-1 $-1 $388 #
straight-curve $-1 -1 $-1 -6 7 0 0 0 -1 I I #
point $-1 -1 $-1 -6 7 -3.5 #
coedge $-1 -1 $-1 $392 $391 $642 $657 forward $393 $-1 #
edge $658 -1 $-1 $659 5 $394 6 $391 $660 forward @7 unknown #
point $-1 -1 $-1 -6 7 1.5 #
edge $-1 -1 $-1 $646 -1.75 $542 0.25 $519 $661 forward @7 unknown #
vertex $-1 -1 $-1 $657 $662 #
straight-curve $-1 -1 $-1 0 12 1.5 -1 0 0 I I #
face $-1 -1 $-1 $-1 $534 $35 $-1 $663 reversed single #
plane-surface $-1 -1 $-1 0.052631578947368141 12 -0.05263157894736839 0 1 0 0 0 1 forward_v I I I I #
coedge $-1 -1 $-1 $548 $664 $404 $547 forward $402 $-1 #
edge $665 -1 $-1 $666 0 $551 4 $546 $667 forward @7 unknown #
coedge $-1 -1 $-1 $445 $546 $405 $549 reversed $402 $-1 #
edge $-1 -1 $-1 $596 0 $551 3.1415926535897931 $548 $668 forward @7 unknown #
attrib_edge_convexity-kcp-attrib $-1 -1 $669 $-1 $407 1 #
vertex $-1 -1 $-1 $549 $670 #
straight-curve $-1 -1 $-1 2 -11 -4 0 0 -1 I I #
attrib_edge_convexity-kcp-attrib $-1 -1 $671 $-1 $409 1 #
ellipse-curve $-1 -1 $-1 0 -11 -4 0 0 -1 2 0 0 1 I I #
convexity-sys-attrib $-1 -1 $-1 $411 $264 #
point $-1 -1 $-1 -2 -11 -4 #
point $-1 -1 $-1 2 -11 -4 #
convexity-sys-attrib $-1 -1 $-1 $415 $266 #
coedge $-1 -1 $-1 $672 $673 $419 $560 forward $674 $-1 #
edge $675 -1 $-1 $578 0 $565 11 $419 $676 forward @7 unknown #
coedge $-1 -1 $-1 $677 $420 $423 $567 forward $563 $-1 #
coedge $-1 -1 $-1 $420 $677 $672 $678 reversed $563 $-1 #
loop $-1 -1 $-1 $-1 $561 $679 #
attrib_edge_convexity-kcp-attrib $-1 -1 $680 $-1 $421 1 #
vertex $-1 -1 $-1 $560 $681 #
straight-curve $-1 -1 $-1 6 6 0 0 -1 0 I I #
edge $682 -1 $-1 $425 0 $666 7 $561 $683 forward @7 unknown #
convexity-sys-attrib $-1 -1 $-1 $424 $274 #
point $-1 -1 $-1 6 -11 0 #
attrib_edge_convexity-kcp-attrib $-1 -1 $684 $-1 $427 2 #
straight-curve $-1 -1 $-1 2 -11 0 0 0 -1 I I #
model_id-kcp-attrib $-1 -1 $-1 $-1 $428 1 1021498494 1021498494 342753281 10 #
cone-surface $-1 -1 $-1 0 -11 0 0 0 -1 -2 0 0 1 I I 0 1 2 forward I I I I #
coedge $-1 -1 $-1 $685 $431 $673 $686 forward $576 $-1 #
coedge $-1 -1 $-1 $431 $685 $433 $581 reversed $576 $-1 #
loop $-1 -1 $-1 $-1 $574 $687 #
attrib_edge_convexity-kcp-attrib $-1 -1 $688 $-1 $432 1 #
vertex $-1 -1 $-1 $432 $689 #
straight-curve $-1 -1 $-1 -5 11 0 0 -1 0 I I #
coedge $-1 -1 $-1 $434 $433 $690 $691 reversed $435 $-1 #
edge $692 -1 $-1 $437 0 $693 2 $433 $694 forward @7 unknown #
face $695 -1 $-1 $687 $435 $10 $-1 $696 forward single #
convexity-sys-attrib $-1 -1 $-1 $436 $283 #
point $-1 -1 $-1 -5 11 0 #
coedge $-1 -1 $-1 $441 $439 $697 $698 forward $286 $-1 #
coedge $-1 -1 $-1 $690 $699 $439 $587 forward $700 $-1 #
edge $701 -1 $-1 $702 0 $589 5 $439 $703 forward @7 unknown #
attrib_edge_convexity-kcp-attrib $-1 -1 $704 $-1 $440 1 #
vertex $-1 -1 $-1 $587 $705 #
straight-curve $-1 -1 $-1 -6 11 0 0 0 -1 I I #
coedge $-1 -1 $-1 $706 $445 $441 $592 forward $402 $-1 #
edge $707 -1 $-1 $448 0 $708 17 $591 $709 forward @7 unknown #
model_id-kcp-attrib $-1 -1 $-1 $-1 $442 1 1021498494 1021498494 342753281 11 #
plane-surface $-1 -1 $-1 -6 -11 0 -1 0 0 0 1 0 forward_v I I I I #
attrib_edge_convexity-kcp-attrib $-1 -1 $710 $-1 $446 1 #
vertex $-1 -1 $-1 $549 $711 #
straight-curve $-1 -1 $-1 -2 -11 -7 -1 0 0 I I #
convexity-sys-attrib $-1 -1 $-1 $447 $291 #
point $-1 -1 $-1 -6 -11 -7 #
attrib_edge_convexity-kcp-attrib $-1 -1 $712 $-1 $450 1 #
straight-curve $-1 -1 $-1 -2 -11 -4 0 0 -1 I I #
convexity-sys-attrib $-1 -1 $-1 $451 $293 #
convexity-sys-attrib $-1 -1 $-1 $-1 $456 #
straight-curve $-1 -1 $-1 0 -10 -0.5 1 0 0 I I #
face $-1 -1 $-1 $344 $475 $32 $-1 $713 forward single #
plane-surface $-1 -1 $-1 6 -10 3.5 1 0 0 0 0 -1 forward_v I I I I #
coedge $-1 -1 $-1 $464 $463 $714 $715 reversed $201 $-1 #
coedge $-1 -1 $-1 $714 $469 $465 $609 forward $614 $-1 #
edge $716 -1 $-1 $471 -4 $610 0 $465 $717 forward @7 unknown #
vertex $-1 -1 $-1 $609 $718 #
straight-curve $-1 -1 $-1 -2 -10 3.5 0 -1 0 I I #
point $-1 -1 $-1 -2 -12 3.5 #
coedge $-1 -1 $-1 $469 $719 $473 $619 forward $614 $-1 #
loop $-1 -1 $-1 $-1 $493 $499 #
convexity-sys-attrib $-1 -1 $-1 $-1 $470 #
straight-curve $-1 -1 $-1 -6 -10 0 0 0 1 I I #
point $-1 -1 $-1 -6 -10 3.5 #
coedge $-1 -1 $-1 $474 $473 $485 $627 forward $475 $-1 #
edge $720 -1 $-1 $721 -8 $476 4 $473 $722 forward @7 unknown #
point $-1 -1 $-1 -6 -10 -3.5 #
straight-curve $-1 -1 $-1 3 -12 -3.5 1 0 0 I I #
coedge $-1 -1 $-1 $493 $714 $482 $623 forward $614 $-1 #
edge $723 -1 $-1 $624 0 $497 4 $482 $724 forward @7 unknown #
vertex $-1 -1 $-1 $715 $725 #
straight-curve $-1 -1 $-1 -2 -10 -0.5 0 -1 0 I I #
coedge $-1 -1 $-1 $486 $485 $719 $726 reversed $487 $-1 #
edge $-1 -1 $-1 $721 0 $488 2 $618 $727 forward @7 unknown #
point $-1 -1 $-1 6 -12 -3.5 #
coedge $-1 -1 $-1 $719 $493 $490 $630 forward $614 $-1 #
edge $728 -1 $-1 $495 4 $631 8 $490 $729 forward @7 unknown #
vertex $-1 -1 $-1 $630 $730 #
straight-curve $-1 -1 $-1 6 -10 3.5 0 -1 0 I I #
convexity-sys-attrib $-1 -1 $-1 $-1 $494 #
straight-curve $-1 -1 $-1 2 -10 3.5 0 0 1 I I #
point $-1 -1 $-1 2 -10 3.5 #
point $-1 -1 $-1 2 -10 -0.5 #
plane-surface $-1 -1 $-1 0 -10 -0.086956521739130321 0 1 0 0 0 1 forward_v I I I I #
straight-curve $-1 -1 $-1 -6 12 0 0 0 -1 I I #
point $-1 -1 $-1 -6 -12 -3.5 #
straight-curve $-1 -1 $-1 -6 0 -3.5 0 1 0 I I #
point $-1 -1 $-1 -6 12 -3.5 #
coedge $-1 -1 $-1 $731 $519 $538 $657 reversed $376 $-1 #
coedge $-1 -1 $-1 $519 $731 $520 $645 forward $376 $-1 #
coedge $-1 -1 $-1 $521 $520 $732 $733 reversed $241 $-1 #
edge $-1 -1 $-1 $734 0 $646 5 $643 $735 forward @7 unknown #
vertex $-1 -1 $-1 $645 $736 #
straight-curve $-1 -1 $-1 0 12 3.5 -1 0 0 I I #
coedge $-1 -1 $-1 $732 $528 $524 $649 forward $534 $-1 #
edge $737 -1 $-1 $530 -3.5 $650 3.5 $524 $738 forward @7 unknown #
vertex $-1 -1 $-1 $649 $739 #
straight-curve $-1 -1 $-1 6 7 3.5 0 1 0 I I #
point $-1 -1 $-1 6 12 3.5 #
convexity-sys-attrib $-1 -1 $-1 $-1 $529 #
straight-curve $-1 -1 $-1 0 7 -3.5 1 0 0 I I #
point $-1 -1 $-1 6 7 -3.5 #
coedge $-1 -1 $-1 $533 $732 $731 $740 forward $534 $-1 #
edge $741 -1 $-1 $659 0 $542 5 $538 $742 forward @7 unknown #
convexity-sys-attrib $-1 -1 $-1 $-1 $539 #
vertex $-1 -1 $-1 $539 $743 #
straight-curve $-1 -1 $-1 0 7 1.5 -1 0 0 I I #
straight-curve $-1 -1 $-1 -5 12 1.75 0 0 -1 I I #
point $-1 -1 $-1 -5 12 1.5 #
plane-surface $-1 -1 $-1 0.052631578947368141 7 -0.05263157894736839 0 1 0 0 0 1 forward_v I I I I #
coedge $-1 -1 $-1 $546 $706 $677 $744 forward $402 $-1 #
attrib_edge_convexity-kcp-attrib $-1 -1 $745 $-1 $547 1 #
vertex $-1 -1 $-1 $547 $746 #
straight-curve $-1 -1 $-1 6 -11 -7 -1 0 0 I I #
ellipse-curve $-1 -1 $-1 0 -11 -7 0 0 -1 -2 0 0 1 I I #
convexity-sys-attrib $-1 -1 $-1 $550 $407 #
point $-1 -1 $-1 2 -11 -7 #
convexity-sys-attrib $-1 -1 $-1 $553 $409 #
coedge $-1 -1 $-1 $747 $559 $562 $678 forward $674 $-1 #
coedge $-1 -1 $-1 $559 $748 $574 $686 reversed $674 $-1 #
loop $-1 -1 $-1 $-1 $673 $749 #
attrib_edge_convexity-kcp-attrib $-1 -1 $750 $-1 $560 1 #
straight-curve $-1 -1 $-1 -5 6 0 1 0 0 I I #
coedge $-1 -1 $-1 $562 $561 $664 $744 reversed $563 $-1 #
edge $751 -1 $-1 $565 0 $752 7 $562 $753 forward @7 unknown #
face $754 -1 $-1 $755 $563 $10 $-1 $756 forward single #
convexity-sys-attrib $-1 -1 $-1 $564 $421 #
point $-1 -1 $-1 6 6 0 #
attrib_edge_convexity-kcp-attrib $-1 -1 $757 $-1 $567 1 #
straight-curve $-1 -1 $-1 6 -11 0 0 0 -1 I I #
convexity-sys-attrib $-1 -1 $-1 $570 $427 #
coedge $-1 -1 $-1 $575 $574 $758 $759 reversed $576 $-1 #
edge $760 -1 $-1 $578 0 $761 2 $673 $762 forward @7 unknown #
face $763 -1 $-1 $749 $576 $10 $-1 $764 forward single #
convexity-sys-attrib $-1 -1 $-1 $577 $432 #
point $-1 -1 $-1 -5 6 0 #
coedge $-1 -1 $-1 $758 $586 $580 $691 forward $700 $-1 #
edge $765 -1 $-1 $589 0 $693 1 $690 $766 forward @7 unknown #
attrib_edge_convexity-kcp-attrib $-1 -1 $767 $-1 $581 1 #
vertex $-1 -1 $-1 $759 $768 #
straight-curve $-1 -1 $-1 -5 11 0 0 0 -1 I I #
model_id-kcp-attrib $-1 -1 $-1 $-1 $582 1 1021498494 1021498494 342753281 12 #
plane-surface $-1 -1 $-1 -6 11 0 0 1 0 1 0 0 forward_v I I I I #
coedge $-1 -1 $-1 $748 $747 $585 $698 reversed $674 $-1 #
edge $769 -1 $-1 $702 0 $708 5 $585 $770 forward @7 unknown #
coedge $-1 -1 $-1 $586 $758 $748 $771 forward $700 $-1 #
loop $-1 -1 $-1 $-1 $586 $755 #
attrib_edge_convexity-kcp-attrib $-1 -1 $772 $-1 $587 1 #
vertex $-1 -1 $-1 $698 $773 #
straight-curve $-1 -1 $-1 -6 6 -2 0 1 0 I I #
convexity-sys-attrib $-1 -1 $-1 $588 $440 #
point $-1 -1 $-1 -6 11 -2 #
coedge $-1 -1 $-1 $664 $591 $747 $774 forward $402 $-1 #
attrib_edge_convexity-kcp-attrib $-1 -1 $775 $-1 $592 1 #
vertex $-1 -1 $-1 $774 $776 #
straight-curve $-1 -1 $-1 -6 -11 -7 0 1 0 I I #
convexity-sys-attrib $-1 -1 $-1 $595 $446 #
point $-1 -1 $-1 -2 -11 -7 #
convexity-sys-attrib $-1 -1 $-1 $600 $450 #
plane-surface $-1 -1 $-1 6 -10 -3.5 0 0 -1 -1 0 0 forward_v I I I I #
coedge $-1 -1 $-1 $622 $608 $607 $715 forward $614 $-1 #
edge $777 -1 $-1 $610 0 $624 4 $607 $778 forward @7 unknown #
convexity-sys-attrib $-1 -1 $-1 $-1 $609 #
straight-curve $-1 -1 $-1 -2 -10 3.5 1 0 0 I I #
point $-1 -1 $-1 -2 -10 3.5 #
coedge $-1 -1 $-1 $613 $629 $626 $726 forward $614 $-1 #
convexity-sys-attrib $-1 -1 $-1 $-1 $619 #
vertex $-1 -1 $-1 $726 $779 #
straight-curve $-1 -1 $-1 -2 -10 -3.5 -1 0 0 I I #
convexity-sys-attrib $-1 -1 $-1 $-1 $623 #
straight-curve $-1 -1 $-1 -2 -10 -0.5 1 0 0 I I #
point $-1 -1 $-1 -2 -10 -0.5 #
edge $780 -1 $-1 $631 -3.5 $721 3.5 $626 $781 forward @7 unknown #
straight-curve $-1 -1 $-1 6 -10 -3.5 0 -1 0 I I #
convexity-sys-attrib $-1 -1 $-1 $-1 $630 #
straight-curve $-1 -1 $-1 -2 -10 3.5 1 0 0 I I #
point $-1 -1 $-1 6 -10 3.5 #
coedge $-1 -1 $-1 $643 $642 $656 $740 reversed $376 $-1 #
coedge $-1 -1 $-1 $656 $648 $644 $733 forward $534 $-1 #
edge $782 -1 $-1 $650 -6 $734 5 $644 $783 forward @7 unknown #
vertex $-1 -1 $-1 $733 $784 #
straight-curve $-1 -1 $-1 -5 7 3.5 0 1 0 I I #
point $-1 -1 $-1 -5 12 3.5 #
convexity-sys-attrib $-1 -1 $-1 $-1 $649 #
straight-curve $-1 -1 $-1 6 7 0 0 0 1 I I #
point $-1 -1 $-1 6 7 3.5 #
edge $785 -1 $-1 $734 -1.75 $659 0.25 $731 $786 forward @7 unknown #
convexity-sys-attrib $-1 -1 $-1 $-1 $657 #
straight-curve $-1 -1 $-1 -5 7 1.5 0 1 0 I I #
point $-1 -1 $-1 -5 7 1.5 #
edge $-1 -1 $-1 $752 0 $666 17 $664 $787 forward @7 unknown #
convexity-sys-attrib $-1 -1 $-1 $665 $547 #
point $-1 -1 $-1 6 -11 -7 #
coedge $-1 -1 $-1 $697 $672 $706 $774 reversed $674 $-1 #
coedge $-1 -1 $-1 $673 $697 $699 $771 reversed $674 $-1 #
face $788 -1 $-1 $679 $674 $10 $-1 $789 forward single #
convexity-sys-attrib $-1 -1 $-1 $675 $560 #
attrib_edge_convexity-kcp-attrib $-1 -1 $790 $-1 $678 1 #
vertex $-1 -1 $-1 $744 $791 #
straight-curve $-1 -1 $-1 6 6 0 0 0 -1 I I #
model_id-kcp-attrib $-1 -1 $-1 $-1 $679 1 1021498494 1021498494 342753281 15 #
face $792 -1 $-1 $-1 $700 $10 $-1 $793 forward single #
plane-surface $-1 -1 $-1 6 6 0 1 0 0 0 -1 0 forward_v I I I I #
convexity-sys-attrib $-1 -1 $-1 $682 $567 #
coedge $-1 -1 $-1 $699 $690 $685 $759 forward $700 $-1 #
edge $794 -1 $-1 $693 0 $761 5 $758 $795 forward @7 unknown #
attrib_edge_convexity-kcp-attrib $-1 -1 $796 $-1 $686 2 #
vertex $-1 -1 $-1 $771 $797 #
straight-curve $-1 -1 $-1 -5 6 0 0 0 -1 I I #
model_id-kcp-attrib $-1 -1 $-1 $-1 $687 1 1021498494 1021498494 342753281 13 #
plane-surface $-1 -1 $-1 -5 11 0 1 0 0 0 -1 0 forward_v I I I I #
attrib_edge_convexity-kcp-attrib $-1 -1 $798 $-1 $691 1 #
straight-curve $-1 -1 $-1 -6 11 -2 1 0 0 I I #
convexity-sys-attrib $-1 -1 $-1 $692 $581 #
point $-1 -1 $-1 -5 11 -2 #
attrib_edge_convexity-kcp-attrib $-1 -1 $799 $-1 $698 1 #
straight-curve $-1 -1 $-1 -6 6 -2 0 0 -1 I I #
edge $800 -1 $-1 $761 0 $702 1 $748 $801 forward @7 unknown #
convexity-sys-attrib $-1 -1 $-1 $701 $587 #
point $-1 -1 $-1 -6 6 -2 #
edge $802 -1 $-1 $708 0 $752 12 $706 $803 forward @7 unknown #
convexity-sys-attrib $-1 -1 $-1 $707 $592 #
point $-1 -1 $-1 -6 6 -7 #
convexity-sys-attrib $-1 -1 $-1 $-1 $715 #
straight-curve $-1 -1 $-1 -2 -10 3.5 0 0 -1 I I #
point $-1 -1 $-1 6 -10 -3.5 #
convexity-sys-attrib $-1 -1 $-1 $-1 $726 #
straight-curve $-1 -1 $-1 6 -10 0 0 0 -1 I I #
convexity-sys-attrib $-1 -1 $-1 $-1 $733 #
straight-curve $-1 -1 $-1 0 7 3.5 -1 0 0 I I #
point $-1 -1 $-1 -5 7 3.5 #
convexity-sys-attrib $-1 -1 $-1 $-1 $740 #
straight-curve $-1 -1 $-1 -5 7 1.75 0 0 -1 I I #
straight-curve $-1 -1 $-1 6 6 -7 0 -1 0 I I #
model_id-kcp-attrib $-1 -1 $-1 $-1 $749 1 1021498494 1021498494 342753281 14 #
plane-surface $-1 -1 $-1 -6 6 0 0 1 0 1 0 0 forward_v I I I I #
convexity-sys-attrib $-1 -1 $-1 $751 $678 #
point $-1 -1 $-1 6 6 -7 #
model_id-kcp-attrib $-1 -1 $-1 $-1 $755 1 1021498494 1021498494 342753281 16 #
plane-surface $-1 -1 $-1 0 0 -2 0 0 -1 -1 0 0 forward_v I I I I #
attrib_edge_convexity-kcp-attrib $-1 -1 $804 $-1 $759 1 #
straight-curve $-1 -1 $-1 -5 11 -2 0 -1 0 I I #
convexity-sys-attrib $-1 -1 $-1 $760 $686 #
point $-1 -1 $-1 -5 6 -2 #
convexity-sys-attrib $-1 -1 $-1 $765 $691 #
convexity-sys-attrib $-1 -1 $-1 $769 $698 #
attrib_edge_convexity-kcp-attrib $-1 -1 $805 $-1 $771 2 #
straight-curve $-1 -1 $-1 -5 6 -2 -1 0 0 I I #
attrib_edge_convexity-kcp-attrib $-1 -1 $806 $-1 $774 1 #
straight-curve $-1 -1 $-1 -6 6 -7 1 0 0 I I #
convexity-sys-attrib $-1 -1 $-1 $794 $759 #
convexity-sys-attrib $-1 -1 $-1 $800 $771 #
convexity-sys-attrib $-1 -1 $-1 $802 $774 #
End-of-ACIS-data 