600 0 1 0           
87 GICL ACIS Healer - Source: /gicl/data5/repository/PTC/V18/fly_small18/battery.sat - 6 0 18 ACIS 6.0.3 Solaris 24 Sat Apr 13 22:05:16 2002 
1 9.999999999999999547e-07 1.000000000000000036e-10 
body $-1 $1 $-1 $-1 #
lump $-1 $-1 $2 $0 #
shell $-1 $-1 $-1 $3 $-1 $1 #
face $-1 $4 $5 $2 $-1 $6 forward single #
face $-1 $7 $8 $2 $-1 $9 forward single #
loop $-1 $10 $11 $3 #
plane-surface $-1 0 0 0 0 -1 0 -1 0 0 forward_v I I I I #
face $-1 $12 $13 $2 $-1 $14 forward single #
loop $-1 $-1 $15 $4 #
torus-surface $-1 0 0.5 0 0 -1 0 6.25 0.5 -1 0 0 forward_v I I I I #
loop $-1 $-1 $16 $3 #
coedge $-1 $17 $17 $18 $19 reversed $5 $-1 #
face $-1 $20 $21 $2 $-1 $22 forward single #
loop $-1 $-1 $23 $7 #
torus-surface $-1 0 0.5 0 0 -1 0 6.25 0.5 -1 0 0 forward_v I I I I #
coedge $-1 $18 $24 $25 $26 forward $8 $-1 #
coedge $-1 $27 $27 $28 $29 reversed $10 $-1 #
coedge $-1 $11 $11 $30 $31 forward $5 $-1 #
coedge $-1 $32 $15 $11 $19 forward $8 $-1 #
edge $-1 $33 0 $34 3.141592653589793116 $11 $35 forward 7 unknown #
face $-1 $36 $37 $2 $-1 $38 forward single #
loop $-1 $-1 $39 $12 #
cone-surface $-1 0 50.92499999999999716 0 0 -1 0 -6.75 0 0 1 I I 0 1 6.75 forward I I I I #
coedge $-1 $30 $40 $32 $41 forward $13 $-1 #
coedge $-1 $15 $32 $42 $43 reversed $8 $-1 #
coedge $-1 $40 $30 $15 $26 reversed $13 $-1 #
edge $-1 $44 1.421085471520197847e-14 $33 1.570796326794907882 $15 $45 forward 7 unknown #
coedge $-1 $16 $16 $46 $47 reversed $10 $-1 #
coedge $-1 $48 $49 $16 $29 forward $50 $-1 #
edge $-1 $51 0 $52 3.141592653589793116 $16 $53 forward 7 unknown #
coedge $-1 $25 $23 $17 $31 reversed $13 $-1 #
edge $-1 $33 0 $34 3.141592653589793116 $17 $54 forward 7 unknown #
coedge $-1 $24 $18 $23 $41 reversed $8 $-1 #
vertex $-1 $31 $55 #
vertex $-1 $31 $56 #
ellipse-curve $-1 0 0 -2.220446049250313081e-16 0 1 0 6.25 0 9.874235760640170945e-16 1 I I #
face $-1 $57 $58 $2 $-1 $59 forward single #
loop $-1 $-1 $60 $20 #
torus-surface $-1 0 46.5 0 0 -1 0 6.25 0.5 -1 0 0 forward_v I I I I #
coedge $-1 $61 $62 $63 $64 forward $21 $-1 #
coedge $-1 $23 $25 $65 $66 forward $13 $-1 #
edge $-1 $67 0 $34 1.570796326794907882 $32 $68 forward 7 unknown #
coedge $-1 $69 $70 $24 $43 forward $71 $-1 #
edge $-1 $44 0 $67 3.141592653589793116 $42 $72 forward 7 unknown #
vertex $-1 $73 $74 #
ellipse-curve $-1 6.249999999999999112 0.5000000000000006661 -6.558349989812687113e-15 1.476991855728574603e-14 -1.464745792190331267e-14 -1 0.5000000000000008882 6.439293542825907934e-15 7.384959278642792552e-15 1 I I #
coedge $-1 $75 $76 $27 $47 forward $77 $-1 #
edge $-1 $52 0 $51 3.141592653589793116 $27 $78 forward 7 unknown #
coedge $-1 $79 $28 $76 $80 forward $50 $-1 #
coedge $-1 $28 $79 $75 $81 reversed $50 $-1 #
loop $-1 $-1 $48 $82 #
vertex $-1 $47 $83 #
vertex $-1 $47 $84 #
ellipse-curve $-1 0 0 0 0 -1 0 0 0 4 1 I I #
ellipse-curve $-1 0 0 2.220446049250313081e-16 0 -1 0 6.25 0 5.433343662139544783e-16 1 I I #
point $-1 6.25 0 7.653789711389857864e-16 #
point $-1 -6.25 0 0 #
face $-1 $85 $71 $2 $-1 $86 forward single #
loop $-1 $-1 $87 $36 #
torus-surface $-1 0 46.5 0 0 -1 0 6.25 0.5 -1 0 0 forward_v I I I I #
coedge $-1 $63 $88 $89 $90 forward $37 $-1 #
coedge $-1 $65 $39 $69 $91 reversed $21 $-1 #
coedge $-1 $39 $65 $70 $73 forward $21 $-1 #
coedge $-1 $92 $60 $39 $64 reversed $37 $-1 #
edge $-1 $93 0 $94 3.141592653589793116 $39 $95 forward 7 unknown #
coedge $-1 $62 $61 $40 $66 reversed $21 $-1 #
edge $-1 $44 0 $67 3.141592653589793116 $65 $96 forward 7 unknown #
vertex $-1 $66 $97 #
ellipse-curve $-1 -6.249999999999999112 0.5000000000000006661 0 0 0 1 -0.5000000000000008882 6.439293542825907934e-15 0 1 I I #
coedge $-1 $98 $42 $61 $91 forward $71 $-1 #
coedge $-1 $42 $98 $62 $73 reversed $71 $-1 #
loop $-1 $-1 $42 $57 #
ellipse-curve $-1 0 0.5000000000000071054 0 0 1 0 6.75 0 8.266092888301046493e-16 1 I I #
edge $-1 $44 0 $93 46 $62 $99 forward 7 unknown #
point $-1 6.75 0.5 8.266092888301046493e-16 #
coedge $-1 $100 $46 $49 $81 forward $77 $-1 #
coedge $-1 $46 $100 $48 $80 reversed $77 $-1 #
loop $-1 $-1 $75 $101 #
ellipse-curve $-1 0 0 0 0 -1 0 0 0 -4 1 I I #
coedge $-1 $49 $48 $102 $103 reversed $50 $-1 #
edge $-1 $52 0 $104 0.2999999999999999889 $76 $105 forward 7 unknown #
edge $-1 $51 0 $106 0.2999999999999999889 $75 $107 forward 7 unknown #
face $-1 $101 $50 $2 $-1 $108 forward single #
point $-1 0 0 4 #
point $-1 0 0 -4 #
face $-1 $109 $110 $2 $-1 $111 reversed single #
cone-surface $-1 0 50.92499999999999716 0 0 -1 0 -6.75 0 0 1 I I 0 1 6.75 forward I I I I #
coedge $-1 $112 $113 $92 $114 forward $58 $-1 #
coedge $-1 $60 $92 $115 $116 forward $37 $-1 #
coedge $-1 $113 $112 $60 $90 reversed $58 $-1 #
edge $-1 $117 0 $94 1.570796326794900333 $60 $118 forward 7 unknown #
edge $-1 $67 7.105427357601001859e-15 $94 46 $61 $119 forward 7 unknown #
coedge $-1 $88 $63 $87 $114 reversed $37 $-1 #
vertex $-1 $73 $120 #
vertex $-1 $91 $121 #
ellipse-curve $-1 0 46.5 0 0 -1 0 6.75 0 8.266092888301046493e-16 1 I I #
ellipse-curve $-1 0 0.5000000000000071054 0 0 -1 0 6.75 0 8.266092888301046493e-16 1 I I #
point $-1 -6.75 0.5000000000000071054 -1.653218577660209299e-15 #
coedge $-1 $70 $69 $112 $122 reversed $71 $-1 #
straight-curve $-1 6.75 0.5 8.266092888301046493e-16 0 1 0 I I #
coedge $-1 $76 $75 $123 $124 reversed $77 $-1 #
face $-1 $125 $77 $2 $-1 $126 forward single #
coedge $-1 $123 $123 $79 $103 forward $127 $-1 #
edge $-1 $106 0 $104 3.141592653589793116 $102 $128 forward 7 unknown #
vertex $-1 $124 $129 #
straight-curve $-1 0 0 -4 0 -1 0 I I #
vertex $-1 $124 $130 #
straight-curve $-1 4.898425415289509033e-16 0 4 0 -1 0 I I #
cone-surface $-1 0 0 0 0 -1 0 0 0 -4 1 I I 0 1 4 forward I I I I #
face $-1 $131 $132 $2 $-1 $133 reversed single #
loop $-1 $134 $135 $85 #
plane-surface $-1 0 47 0 0 -1 0 -1 0 0 forward_v I I I I #
coedge $-1 $89 $87 $98 $122 forward $58 $-1 #
coedge $-1 $87 $89 $136 $137 reversed $58 $-1 #
edge $-1 $138 0 $93 1.570796326794900333 $92 $139 forward 7 unknown #
coedge $-1 $136 $136 $88 $116 reversed $134 $-1 #
edge $-1 $138 0 $117 3.141592653589793116 $115 $140 forward 7 unknown #
vertex $-1 $137 $141 #
ellipse-curve $-1 -6.250000000000001776 46.5 -1.530757942277971573e-15 -2.449212707644761912e-16 8.701351488741557858e-31 1 1.776356839400250465e-15 0.5 0 1 I I #
straight-curve $-1 -6.75 0.5 -1.653218577660209299e-15 0 1 0 I I #
point $-1 6.75 46.5 8.266092888301046493e-16 #
point $-1 -6.75 46.5 -1.653218577660209299e-15 #
edge $-1 $93 0 $94 3.141592653589793116 $98 $142 forward 7 unknown #
coedge $-1 $102 $102 $100 $124 forward $127 $-1 #
edge $-1 $104 0 $106 3.141592653589793116 $123 $143 forward 7 unknown #
face $-1 $-1 $127 $2 $-1 $144 forward single #
cone-surface $-1 0 0 0 0 -1 0 0 0 -4 1 I I 0 1 4 forward I I I I #
loop $-1 $-1 $102 $125 #
ellipse-curve $-1 -1.11022302462515654e-16 -0.2999999999999999889 0 0 -1 0 1.11022302462515654e-16 0 4 1 I I #
point $-1 0 -0.2999999999999999889 -4 #
point $-1 0 -0.2999999999999999889 4 #
face $-1 $145 $146 $2 $-1 $147 reversed single #
loop $-1 $-1 $148 $109 #
torus-surface $-1 0 47.5 0 0 -1 0 2.75 0.5 -1 0 0 forward_v I I I I #
loop $-1 $-1 $115 $85 #
coedge $-1 $149 $149 $150 $151 reversed $110 $-1 #
coedge $-1 $115 $115 $113 $137 forward $134 $-1 #
edge $-1 $138 0 $117 3.141592653589793116 $136 $152 forward 7 unknown #
vertex $-1 $137 $153 #
ellipse-curve $-1 6.250000000000001776 46.5 7.653789711389857864e-16 1.224606353822380956e-16 4.350675744370778929e-31 -1 -1.776356839400250465e-15 0.5 0 1 I I #
ellipse-curve $-1 0 47 2.220446049250313081e-16 0 -1 0 6.25 0 5.433343662139544783e-16 1 I I #
point $-1 -6.25 47 -1.530757942277971573e-15 #
ellipse-curve $-1 0 46.5 0 0 1 0 6.75 0 8.266092888301046493e-16 1 I I #
ellipse-curve $-1 3.330669073875469621e-16 -0.2999999999999999889 0 0 -1 0 -3.330669073875469621e-16 0 -4 1 I I #
plane-surface $-1 0 -0.2999999999999999889 0 0 -1 0 0 0 -1 forward_v I I I I #
face $-1 $154 $155 $2 $-1 $156 forward single #
loop $-1 $-1 $157 $131 #
torus-surface $-1 0 47.5 0 0 -1 0 2.75 0.5 -1 0 0 forward_v I I I I #
coedge $-1 $150 $158 $159 $160 forward $132 $-1 #
coedge $-1 $135 $135 $161 $162 forward $110 $-1 #
coedge $-1 $163 $148 $135 $151 forward $132 $-1 #
edge $-1 $164 0 $165 3.141592653589793116 $135 $166 forward 7 unknown #
ellipse-curve $-1 0 47 -2.220446049250313081e-16 0 1 0 6.25 0 9.874235760640170945e-16 1 I I #
point $-1 6.25 47 7.653789711389857864e-16 #
face $-1 $167 $168 $2 $-1 $169 forward single #
loop $-1 $-1 $170 $145 #
cone-surface $-1 0 50.92499999999999716 0 0 -1 0 -2.25 0 0 1 I I 0 1 2.25 forward I I I I #
coedge $-1 $161 $171 $163 $172 forward $146 $-1 #
coedge $-1 $148 $163 $173 $174 reversed $132 $-1 #
coedge $-1 $171 $161 $148 $160 reversed $146 $-1 #
edge $-1 $175 -2.112125961626304253e-46 $164 1.570796326794873465 $148 $176 forward 7 unknown #
coedge $-1 $159 $157 $149 $162 reversed $146 $-1 #
edge $-1 $164 0 $165 3.141592653589793116 $149 $177 forward 7 unknown #
coedge $-1 $158 $150 $157 $172 reversed $132 $-1 #
vertex $-1 $162 $178 #
vertex $-1 $162 $179 #
ellipse-curve $-1 1.11022302462515654e-16 47 -1.11022302462515654e-16 0 1 0 2.75 0 4.477890497636694001e-16 1 I I #
face $-1 $180 $181 $2 $-1 $182 forward single #
loop $-1 $-1 $183 $154 #
torus-surface $-1 0 48 0 0 -1 0 1.75 0.5 -1 0 0 forward_v I I I I #
coedge $-1 $184 $185 $186 $187 forward $155 $-1 #
coedge $-1 $157 $159 $188 $189 forward $146 $-1 #
edge $-1 $190 0 $165 1.570796326794873465 $163 $191 forward 7 unknown #
coedge $-1 $192 $193 $158 $174 forward $194 $-1 #
edge $-1 $175 0 $190 3.141592653589793116 $173 $195 forward 7 unknown #
vertex $-1 $196 $197 #
ellipse-curve $-1 2.750000000000004441 47.50000000000000711 3.367667473011542884e-16 -1.224606353822377258e-16 -1.553160516050350379e-32 1 -0.5000000000000044409 -7.105427357601001859e-15 -6.123031769111940525e-17 1 I I #
ellipse-curve $-1 -2.220446049250313081e-16 47 1.11022302462515654e-16 0 -1 0 2.75 0 2.25744444838638092e-16 1 I I #
point $-1 2.75 47 3.36766747301153746e-16 #
point $-1 -2.75 47 0 #
face $-1 $198 $194 $2 $-1 $199 forward single #
loop $-1 $-1 $200 $167 #
torus-surface $-1 0 48 0 0 -1 0 1.75 0.5 -1 0 0 forward_v I I I I #
coedge $-1 $186 $201 $202 $203 forward $168 $-1 #
coedge $-1 $188 $170 $192 $204 reversed $155 $-1 #
coedge $-1 $170 $188 $193 $196 forward $155 $-1 #
coedge $-1 $205 $183 $170 $187 reversed $168 $-1 #
edge $-1 $206 0 $207 3.141592653589793116 $170 $208 forward 7 unknown #
coedge $-1 $185 $184 $171 $189 reversed $155 $-1 #
edge $-1 $175 0 $190 3.141592653589793116 $188 $209 forward 7 unknown #
vertex $-1 $189 $210 #
ellipse-curve $-1 -2.750000000000004441 47.50000000000000711 0 0 0 -1 0.5000000000000044409 -7.105427357601001859e-15 0 1 I I #
coedge $-1 $211 $173 $184 $204 forward $194 $-1 #
coedge $-1 $173 $211 $185 $196 reversed $194 $-1 #
loop $-1 $-1 $173 $180 #
ellipse-curve $-1 0 47.5 0 0 1 0 2.25 0 2.755364296100348831e-16 1 I I #
edge $-1 $175 0 $206 0.5 $185 $212 forward 7 unknown #
point $-1 2.25 47.5 2.755364296100348831e-16 #
face $-1 $82 $213 $2 $-1 $214 reversed single #
cone-surface $-1 0 50.92499999999999716 0 0 -1 0 -2.25 0 0 1 I I 0 1 2.25 forward I I I I #
coedge $-1 $215 $216 $205 $217 forward $181 $-1 #
coedge $-1 $183 $205 $218 $219 forward $168 $-1 #
coedge $-1 $216 $215 $183 $203 reversed $181 $-1 #
edge $-1 $220 0 $207 1.570796326794902553 $202 $221 forward 7 unknown #
edge $-1 $190 0 $207 0.5 $184 $222 forward 7 unknown #
coedge $-1 $201 $186 $200 $217 reversed $168 $-1 #
vertex $-1 $196 $223 #
vertex $-1 $204 $224 #
ellipse-curve $-1 0 48 0 0 -1 0 2.25 0 2.755364296100348831e-16 1 I I #
ellipse-curve $-1 0 47.5 0 0 -1 0 2.25 0 2.755364296100348831e-16 1 I I #
point $-1 -2.25 47.5 -5.510728592200697662e-16 #
coedge $-1 $193 $192 $215 $225 reversed $194 $-1 #
straight-curve $-1 2.25 47.5 2.755364296100348831e-16 0 1 0 I I #
loop $-1 $-1 $218 $198 #
plane-surface $-1 0 48.5 0 0 -1 0 -1 0 0 forward_v I I I I #
coedge $-1 $202 $200 $211 $225 forward $181 $-1 #
coedge $-1 $200 $202 $226 $227 reversed $181 $-1 #
edge $-1 $228 -7.245330576117929792e-47 $206 1.570796326794902553 $200 $229 forward 7 unknown #
coedge $-1 $226 $226 $201 $219 reversed $213 $-1 #
edge $-1 $228 0 $220 3.141592653589793116 $218 $230 forward 7 unknown #
vertex $-1 $227 $231 #
ellipse-curve $-1 -1.750000000000002887 48 0 0 0 1 2.886579864025407005e-15 0.5 0 1 I I #
straight-curve $-1 -2.25 47.5 -5.510728592200697662e-16 0 1 0 I I #
point $-1 2.25 48 2.755364296100348831e-16 #
point $-1 -2.25 48 -5.510728592200697662e-16 #
edge $-1 $206 0 $207 3.141592653589793116 $211 $232 forward 7 unknown #
coedge $-1 $218 $218 $216 $227 forward $213 $-1 #
edge $-1 $228 0 $220 3.141592653589793116 $226 $233 forward 7 unknown #
vertex $-1 $227 $234 #
ellipse-curve $-1 1.750000000000002887 48 2.14306111918916316e-16 1.224606353822378244e-16 1.153391295444911126e-31 -1 -2.886579864025407005e-15 0.5 -2.95822839457879427e-31 1 I I #
ellipse-curve $-1 0 48.5 5.551115123125782702e-17 0 -1 0 1.75 0 1.587949606876581932e-16 1 I I #
point $-1 -1.75 48.5 -4.286122238378320404e-16 #
ellipse-curve $-1 0 48 0 0 1 0 2.25 0 2.755364296100348831e-16 1 I I #
ellipse-curve $-1 0 48.5 -5.551115123125782702e-17 0 1 0 1.75 0 2.698172631501738472e-16 1 I I #
point $-1 1.75 48.5 2.143061119189160202e-16 #
End-of-ACIS-data 