600 0 1 0           
94 GICL Pro/E ACIS Translator - Source: f:/data5/repository/PTC/V18/fly_small18/battery.prt - 6 0 13 ACIS 6.0.3 NT 24 Thu Apr 04 10:01:06 2002 
1 9.9999999999999995e-007 1e-010 
body $-1 $1 $-1 $-1 #
lump $-1 $-1 $2 $0 #
shell $-1 $-1 $-1 $3 $-1 $1 #
face $-1 $4 $5 $2 $-1 $6 forward single #
face $-1 $7 $8 $2 $-1 $9 forward single #
loop $-1 $10 $11 $3 #
plane-surface $-1 0 0 0 0 -1 0 -1 0 0 forward_v I I I I #
face $-1 $12 $13 $2 $-1 $14 forward single #
loop $-1 $-1 $15 $4 #
torus-surface $-1 0 0.5 0 0 -1 0 6.25 0.5 -1 0 0 forward_v I I I I #
loop $-1 $-1 $16 $3 #
coedge $-1 $17 $17 $18 $19 reversed $5 $-1 #
face $-1 $20 $21 $2 $-1 $22 forward single #
loop $-1 $-1 $23 $7 #
torus-surface $-1 0 0.5 0 0 -1 0 6.25 0.5 -1 0 0 forward_v I I I I #
coedge $-1 $18 $24 $25 $26 forward $8 $-1 #
coedge $-1 $27 $27 $28 $29 reversed $10 $-1 #
coedge $-1 $11 $11 $30 $31 forward $5 $-1 #
coedge $-1 $32 $15 $11 $19 forward $8 $-1 #
edge $-1 $33 0 $34 3.1415926535897931 $11 $35 forward 7 unknown #
face $-1 $36 $37 $2 $-1 $38 forward single #
loop $-1 $-1 $39 $12 #
cone-surface $-1 0 50.924999999999997 0 0 -1 0 -6.75 0 0 1 I I 0 1 6.75 forward I I I I #
coedge $-1 $30 $40 $32 $41 forward $13 $-1 #
coedge $-1 $15 $32 $42 $43 reversed $8 $-1 #
coedge $-1 $40 $30 $15 $26 reversed $13 $-1 #
edge $-1 $44 1.4210854715201978e-014 $33 1.5707963267949077 $15 $45 forward 7 unknown #
coedge $-1 $16 $16 $46 $47 reversed $10 $-1 #
coedge $-1 $48 $49 $16 $29 forward $50 $-1 #
edge $-1 $51 0 $52 3.1415926535897931 $16 $53 forward 7 unknown #
coedge $-1 $25 $23 $17 $31 reversed $13 $-1 #
edge $-1 $33 0 $34 3.1415926535897931 $17 $54 forward 7 unknown #
coedge $-1 $24 $18 $23 $41 reversed $8 $-1 #
vertex $-1 $31 $55 #
vertex $-1 $31 $56 #
ellipse-curve $-1 0 0 -2.2204460492503131e-016 0 1 0 6.25 0 9.8742357606401709e-016 1 I I #
face $-1 $57 $58 $2 $-1 $59 forward single #
loop $-1 $-1 $60 $20 #
torus-surface $-1 0 46.5 0 0 -1 0 6.25 0.5 -1 0 0 forward_v I I I I #
coedge $-1 $61 $62 $63 $64 forward $21 $-1 #
coedge $-1 $23 $25 $65 $66 forward $13 $-1 #
edge $-1 $67 0 $34 1.5707963267949077 $32 $68 forward 7 unknown #
coedge $-1 $69 $70 $24 $43 forward $71 $-1 #
edge $-1 $44 0 $67 3.1415926535897931 $42 $72 forward 7 unknown #
vertex $-1 $73 $74 #
ellipse-curve $-1 6.2499999999999991 0.50000000000000067 -6.5583499898126871e-015 1.4769918557285746e-014 -1.4647457921903313e-014 -1 0.50000000000000089 6.4392935428259079e-015 7.3849592786427926e-015 1 I I #
coedge $-1 $75 $76 $27 $47 forward $77 $-1 #
edge $-1 $52 0 $51 3.1415926535897931 $27 $78 forward 7 unknown #
coedge $-1 $79 $28 $76 $80 forward $50 $-1 #
coedge $-1 $28 $79 $75 $81 reversed $50 $-1 #
loop $-1 $-1 $48 $82 #
vertex $-1 $47 $83 #
vertex $-1 $47 $84 #
ellipse-curve $-1 0 0 0 0 -1 0 0 0 4 1 I I #
ellipse-curve $-1 0 0 2.2204460492503131e-016 0 -1 0 6.25 0 5.4333436621395448e-016 1 I I #
point $-1 6.25 0 7.6537897113898579e-016 #
point $-1 -6.25 0 0 #
face $-1 $85 $71 $2 $-1 $86 forward single #
loop $-1 $-1 $87 $36 #
torus-surface $-1 0 46.5 0 0 -1 0 6.25 0.5 -1 0 0 forward_v I I I I #
coedge $-1 $63 $88 $89 $90 forward $37 $-1 #
coedge $-1 $65 $39 $69 $91 reversed $21 $-1 #
coedge $-1 $39 $65 $70 $73 forward $21 $-1 #
coedge $-1 $92 $60 $39 $64 reversed $37 $-1 #
edge $-1 $93 0 $94 3.1415926535897931 $39 $95 forward 7 unknown #
coedge $-1 $62 $61 $40 $66 reversed $21 $-1 #
edge $-1 $44 0 $67 3.1415926535897931 $65 $96 forward 7 unknown #
vertex $-1 $66 $97 #
ellipse-curve $-1 -6.2499999999999991 0.50000000000000067 0 0 0 1 -0.50000000000000089 6.4392935428259079e-015 0 1 I I #
coedge $-1 $98 $42 $61 $91 forward $71 $-1 #
coedge $-1 $42 $98 $62 $73 reversed $71 $-1 #
loop $-1 $-1 $42 $57 #
ellipse-curve $-1 0 0.50000000000000711 0 0 1 0 6.75 0 8.2660928883010465e-016 1 I I #
edge $-1 $44 0 $93 46 $62 $99 forward 7 unknown #
point $-1 6.75 0.5 8.2660928883010465e-016 #
coedge $-1 $100 $46 $49 $81 forward $77 $-1 #
coedge $-1 $46 $100 $48 $80 reversed $77 $-1 #
loop $-1 $-1 $75 $101 #
ellipse-curve $-1 0 0 0 0 -1 0 0 0 -4 1 I I #
coedge $-1 $49 $48 $102 $103 reversed $50 $-1 #
edge $-1 $52 0 $104 0.29999999999999999 $76 $105 forward 7 unknown #
edge $-1 $51 0 $106 0.29999999999999999 $75 $107 forward 7 unknown #
face $-1 $101 $50 $2 $-1 $108 forward single #
point $-1 0 0 4 #
point $-1 0 0 -4 #
face $-1 $109 $110 $2 $-1 $111 reversed single #
cone-surface $-1 0 50.924999999999997 0 0 -1 0 -6.75 0 0 1 I I 0 1 6.75 forward I I I I #
coedge $-1 $112 $113 $92 $114 forward $58 $-1 #
coedge $-1 $60 $92 $115 $116 forward $37 $-1 #
coedge $-1 $113 $112 $60 $90 reversed $58 $-1 #
edge $-1 $117 0 $94 1.5707963267949001 $60 $118 forward 7 unknown #
edge $-1 $67 7.1054273576010019e-015 $94 46 $61 $119 forward 7 unknown #
coedge $-1 $88 $63 $87 $114 reversed $37 $-1 #
vertex $-1 $73 $120 #
vertex $-1 $91 $121 #
ellipse-curve $-1 0 46.5 0 0 -1 0 6.75 0 8.2660928883010465e-016 1 I I #
ellipse-curve $-1 0 0.50000000000000711 0 0 -1 0 6.75 0 8.2660928883010465e-016 1 I I #
point $-1 -6.75 0.50000000000000711 -1.6532185776602093e-015 #
coedge $-1 $70 $69 $112 $122 reversed $71 $-1 #
straight-curve $-1 6.75 0.5 8.2660928883010465e-016 0 1 0 I I #
coedge $-1 $76 $75 $123 $124 reversed $77 $-1 #
face $-1 $125 $77 $2 $-1 $126 forward single #
coedge $-1 $123 $123 $79 $103 forward $127 $-1 #
edge $-1 $106 0 $104 3.1415926535897931 $102 $128 forward 7 unknown #
vertex $-1 $124 $129 #
straight-curve $-1 0 0 -4 0 -1 0 I I #
vertex $-1 $124 $130 #
straight-curve $-1 4.898425415289509e-016 0 4 0 -1 0 I I #
cone-surface $-1 0 0 0 0 -1 0 0 0 -4 1 I I 0 1 4 forward I I I I #
face $-1 $131 $132 $2 $-1 $133 reversed single #
loop $-1 $134 $135 $85 #
plane-surface $-1 0 47 0 0 -1 0 -1 0 0 forward_v I I I I #
coedge $-1 $89 $87 $98 $122 forward $58 $-1 #
coedge $-1 $87 $89 $136 $137 reversed $58 $-1 #
edge $-1 $138 0 $93 1.5707963267949001 $92 $139 forward 7 unknown #
coedge $-1 $136 $136 $88 $116 reversed $134 $-1 #
edge $-1 $138 0 $117 3.1415926535897931 $115 $140 forward 7 unknown #
vertex $-1 $137 $141 #
ellipse-curve $-1 -6.2500000000000018 46.5 -1.5307579422779716e-015 -2.4492127076447619e-016 8.7013514887415579e-031 1 1.7763568394002505e-015 0.5 0 1 I I #
straight-curve $-1 -6.75 0.5 -1.6532185776602093e-015 0 1 0 I I #
point $-1 6.75 46.5 8.2660928883010465e-016 #
point $-1 -6.75 46.5 -1.6532185776602093e-015 #
edge $-1 $93 0 $94 3.1415926535897931 $98 $142 forward 7 unknown #
coedge $-1 $102 $102 $100 $124 forward $127 $-1 #
edge $-1 $104 0 $106 3.1415926535897931 $123 $143 forward 7 unknown #
face $-1 $-1 $127 $2 $-1 $144 forward single #
cone-surface $-1 0 0 0 0 -1 0 0 0 -4 1 I I 0 1 4 forward I I I I #
loop $-1 $-1 $102 $125 #
ellipse-curve $-1 -1.1102230246251565e-016 -0.29999999999999999 0 0 -1 0 1.1102230246251565e-016 0 4 1 I I #
point $-1 0 -0.29999999999999999 -4 #
point $-1 0 -0.29999999999999999 4 #
face $-1 $145 $146 $2 $-1 $147 reversed single #
loop $-1 $-1 $148 $109 #
torus-surface $-1 0 47.5 0 0 -1 0 2.75 0.5 -1 0 0 forward_v I I I I #
loop $-1 $-1 $115 $85 #
coedge $-1 $149 $149 $150 $151 reversed $110 $-1 #
coedge $-1 $115 $115 $113 $137 forward $134 $-1 #
edge $-1 $138 0 $117 3.1415926535897931 $136 $152 forward 7 unknown #
vertex $-1 $137 $153 #
ellipse-curve $-1 6.2500000000000018 46.5 7.6537897113898579e-016 1.224606353822381e-016 4.3506757443707789e-031 -1 -1.7763568394002505e-015 0.5 0 1 I I #
ellipse-curve $-1 0 47 2.2204460492503131e-016 0 -1 0 6.25 0 5.4333436621395448e-016 1 I I #
point $-1 -6.25 47 -1.5307579422779716e-015 #
ellipse-curve $-1 0 46.5 0 0 1 0 6.75 0 8.2660928883010465e-016 1 I I #
ellipse-curve $-1 3.3306690738754696e-016 -0.29999999999999999 0 0 -1 0 -3.3306690738754696e-016 0 -4 1 I I #
plane-surface $-1 0 -0.29999999999999999 0 0 -1 0 0 0 -1 forward_v I I I I #
face $-1 $154 $155 $2 $-1 $156 forward single #
loop $-1 $-1 $157 $131 #
torus-surface $-1 0 47.5 0 0 -1 0 2.75 0.5 -1 0 0 forward_v I I I I #
coedge $-1 $150 $158 $159 $160 forward $132 $-1 #
coedge $-1 $135 $135 $161 $162 forward $110 $-1 #
coedge $-1 $163 $148 $135 $151 forward $132 $-1 #
edge $-1 $164 0 $165 3.1415926535897931 $135 $166 forward 7 unknown #
ellipse-curve $-1 0 47 -2.2204460492503131e-016 0 1 0 6.25 0 9.8742357606401709e-016 1 I I #
point $-1 6.25 47 7.6537897113898579e-016 #
face $-1 $167 $168 $2 $-1 $169 forward single #
loop $-1 $-1 $170 $145 #
cone-surface $-1 0 50.924999999999997 0 0 -1 0 -2.25 0 0 1 I I 0 1 2.25 forward I I I I #
coedge $-1 $161 $171 $163 $172 forward $146 $-1 #
coedge $-1 $148 $163 $173 $174 reversed $132 $-1 #
coedge $-1 $171 $161 $148 $160 reversed $146 $-1 #
edge $-1 $175 0 $164 1.5707963267948735 $148 $176 forward 7 unknown #
coedge $-1 $159 $157 $149 $162 reversed $146 $-1 #
edge $-1 $164 0 $165 3.1415926535897931 $149 $177 forward 7 unknown #
coedge $-1 $158 $150 $157 $172 reversed $132 $-1 #
vertex $-1 $162 $178 #
vertex $-1 $162 $179 #
ellipse-curve $-1 1.1102230246251565e-016 47 -1.1102230246251565e-016 0 1 0 2.75 0 4.477890497636694e-016 1 I I #
face $-1 $180 $181 $2 $-1 $182 forward single #
loop $-1 $-1 $183 $154 #
torus-surface $-1 0 48 0 0 -1 0 1.75 0.5 -1 0 0 forward_v I I I I #
coedge $-1 $184 $185 $186 $187 forward $155 $-1 #
coedge $-1 $157 $159 $188 $189 forward $146 $-1 #
edge $-1 $190 0 $165 1.5707963267948735 $163 $191 forward 7 unknown #
coedge $-1 $192 $193 $158 $174 forward $194 $-1 #
edge $-1 $175 0 $190 3.1415926535897931 $173 $195 forward 7 unknown #
vertex $-1 $196 $197 #
ellipse-curve $-1 2.7500000000000044 47.500000000000007 3.3676674730115429e-016 -1.2246063538223773e-016 -1.5531605160503504e-032 1 -0.50000000000000444 -7.1054273576010019e-015 -6.1230317691119405e-017 1 I I #
ellipse-curve $-1 -2.2204460492503131e-016 47 1.1102230246251565e-016 0 -1 0 2.75 0 2.2574444483863809e-016 1 I I #
point $-1 2.75 47 3.3676674730115375e-016 #
point $-1 -2.75 47 0 #
face $-1 $198 $194 $2 $-1 $199 forward single #
loop $-1 $-1 $200 $167 #
torus-surface $-1 0 48 0 0 -1 0 1.75 0.5 -1 0 0 forward_v I I I I #
coedge $-1 $186 $201 $202 $203 forward $168 $-1 #
coedge $-1 $188 $170 $192 $204 reversed $155 $-1 #
coedge $-1 $170 $188 $193 $196 forward $155 $-1 #
coedge $-1 $205 $183 $170 $187 reversed $168 $-1 #
edge $-1 $206 0 $207 3.1415926535897931 $170 $208 forward 7 unknown #
coedge $-1 $185 $184 $171 $189 reversed $155 $-1 #
edge $-1 $175 0 $190 3.1415926535897931 $188 $209 forward 7 unknown #
vertex $-1 $189 $210 #
ellipse-curve $-1 -2.7500000000000044 47.500000000000007 0 0 0 -1 0.50000000000000444 -7.1054273576010019e-015 0 1 I I #
coedge $-1 $211 $173 $184 $204 forward $194 $-1 #
coedge $-1 $173 $211 $185 $196 reversed $194 $-1 #
loop $-1 $-1 $173 $180 #
ellipse-curve $-1 0 47.5 0 0 1 0 2.25 0 2.7553642961003488e-016 1 I I #
edge $-1 $175 0 $206 0.5 $185 $212 forward 7 unknown #
point $-1 2.25 47.5 2.7553642961003488e-016 #
face $-1 $82 $213 $2 $-1 $214 reversed single #
cone-surface $-1 0 50.924999999999997 0 0 -1 0 -2.25 0 0 1 I I 0 1 2.25 forward I I I I #
coedge $-1 $215 $216 $205 $217 forward $181 $-1 #
coedge $-1 $183 $205 $218 $219 forward $168 $-1 #
coedge $-1 $216 $215 $183 $203 reversed $181 $-1 #
edge $-1 $220 0 $207 1.5707963267949023 $202 $221 forward 7 unknown #
edge $-1 $190 0 $207 0.5 $184 $222 forward 7 unknown #
coedge $-1 $201 $186 $200 $217 reversed $168 $-1 #
vertex $-1 $196 $223 #
vertex $-1 $204 $224 #
ellipse-curve $-1 0 48 0 0 -1 0 2.25 0 2.7553642961003488e-016 1 I I #
ellipse-curve $-1 0 47.5 0 0 -1 0 2.25 0 2.7553642961003488e-016 1 I I #
point $-1 -2.25 47.5 -5.5107285922006977e-016 #
coedge $-1 $193 $192 $215 $225 reversed $194 $-1 #
straight-curve $-1 2.25 47.5 2.7553642961003488e-016 0 1 0 I I #
loop $-1 $-1 $218 $198 #
plane-surface $-1 0 48.5 0 0 -1 0 -1 0 0 forward_v I I I I #
coedge $-1 $202 $200 $211 $225 forward $181 $-1 #
coedge $-1 $200 $202 $226 $227 reversed $181 $-1 #
edge $-1 $228 0 $206 1.5707963267949023 $200 $229 forward 7 unknown #
coedge $-1 $226 $226 $201 $219 reversed $213 $-1 #
edge $-1 $228 0 $220 3.1415926535897931 $218 $230 forward 7 unknown #
vertex $-1 $227 $231 #
ellipse-curve $-1 -1.7500000000000029 48 0 0 0 1 2.886579864025407e-015 0.5 0 1 I I #
straight-curve $-1 -2.25 47.5 -5.5107285922006977e-016 0 1 0 I I #
point $-1 2.25 48 2.7553642961003488e-016 #
point $-1 -2.25 48 -5.5107285922006977e-016 #
edge $-1 $206 0 $207 3.1415926535897931 $211 $232 forward 7 unknown #
coedge $-1 $218 $218 $216 $227 forward $213 $-1 #
edge $-1 $228 0 $220 3.1415926535897931 $226 $233 forward 7 unknown #
vertex $-1 $227 $234 #
ellipse-curve $-1 1.7500000000000029 48 2.1430611191891632e-016 1.2246063538223782e-016 1.1533912954449111e-031 -1 -2.886579864025407e-015 0.5 -2.9582283945787943e-031 1 I I #
ellipse-curve $-1 0 48.5 5.5511151231257827e-017 0 -1 0 1.75 0 1.5879496068765819e-016 1 I I #
point $-1 -1.75 48.5 -4.2861222383783204e-016 #
ellipse-curve $-1 0 48 0 0 1 0 2.25 0 2.7553642961003488e-016 1 I I #
ellipse-curve $-1 0 48.5 -5.5511151231257827e-017 0 1 0 1.75 0 2.6981726315017385e-016 1 I I #
point $-1 1.75 48.5 2.1430611191891602e-016 #
End-of-ACIS-data 