600 0 1 0           
99 GICL Pro/E ACIS Translator - Source: f:/data5/repository/PTC/V18/fly_small18/blacket_gear.prt - 6 0 13 ACIS 6.0.3 NT 24 Thu Apr 04 13:35:47 2002 
1 9.9999999999999995e-007 1e-010 
body $-1 $1 $-1 $-1 #
lump $-1 $-1 $2 $0 #
shell $-1 $-1 $-1 $3 $-1 $1 #
face $-1 $4 $5 $2 $-1 $6 reversed single #
face $-1 $7 $8 $2 $-1 $9 forward single #
loop $-1 $-1 $10 $3 #
plane-surface $-1 0 0 0 0 0 -1 -1 0 0 forward_v I I I I #
face $-1 $11 $12 $2 $-1 $13 forward single #
loop $-1 $-1 $14 $4 #
plane-surface $-1 -4.0999999999999996 8 0 0 1 0 1 0 0 forward_v I I I I #
coedge $-1 $15 $16 $17 $18 reversed $5 $-1 #
face $-1 $19 $20 $2 $-1 $21 forward single #
loop $-1 $-1 $22 $7 #
plane-surface $-1 9.3999999999999986 8 0 1 0 0 0 -1 0 forward_v I I I I #
coedge $-1 $23 $17 $24 $25 forward $8 $-1 #
coedge $-1 $26 $10 $27 $28 reversed $5 $-1 #
coedge $-1 $10 $29 $30 $31 reversed $5 $-1 #
coedge $-1 $14 $32 $10 $18 forward $8 $-1 #
edge $-1 $33 0 $34 13.499999999999998 $10 $35 forward 7 unknown #
face $-1 $36 $37 $2 $-1 $38 forward single #
loop $-1 $-1 $39 $11 #
plane-surface $-1 9.3999999999999986 0 0 0 1 0 1 0 0 forward_v I I I I #
coedge $-1 $40 $30 $41 $42 forward $12 $-1 #
coedge $-1 $32 $14 $43 $44 reversed $8 $-1 #
coedge $-1 $30 $40 $14 $25 reversed $12 $-1 #
edge $-1 $34 0 $45 0.5 $24 $46 forward 7 unknown #
coedge $-1 $47 $15 $48 $49 reversed $5 $-1 #
coedge $-1 $50 $51 $15 $28 forward $52 $-1 #
edge $-1 $53 0 $33 3.1415926535897931 $15 $54 forward 7 unknown #
coedge $-1 $16 $55 $56 $57 reversed $5 $-1 #
coedge $-1 $22 $24 $16 $31 forward $12 $-1 #
edge $-1 $34 0 $58 8 $16 $59 forward 7 unknown #
coedge $-1 $17 $23 $50 $60 reversed $8 $-1 #
vertex $-1 $28 $61 #
vertex $-1 $31 $62 #
straight-curve $-1 -4.0999999999999996 8 0 1 0 0 I I #
face $-1 $63 $64 $2 $-1 $65 forward single #
loop $-1 $-1 $66 $19 #
cone-surface $-1 11.399999999999999 -1 0 0 0 -1 -1 0 0 1 I I 0 1 1 forward I I I I #
coedge $-1 $67 $56 $68 $69 forward $20 $-1 #
coedge $-1 $24 $22 $70 $71 reversed $12 $-1 #
coedge $-1 $56 $67 $22 $42 reversed $20 $-1 #
edge $-1 $58 0 $72 0.5 $22 $73 forward 7 unknown #
coedge $-1 $70 $74 $23 $44 forward $75 $-1 #
edge $-1 $76 0 $45 13.499999999999998 $43 $77 forward 7 unknown #
vertex $-1 $71 $78 #
straight-curve $-1 9.3999999999999986 8 0 0 0 -1 I I #
coedge $-1 $79 $26 $80 $81 reversed $5 $-1 #
coedge $-1 $82 $83 $26 $49 forward $84 $-1 #
edge $-1 $85 0 $53 2.0999999999999996 $26 $86 forward 7 unknown #
coedge $-1 $87 $27 $32 $60 forward $52 $-1 #
coedge $-1 $27 $87 $82 $88 reversed $52 $-1 #
loop $-1 $-1 $50 $89 #
vertex $-1 $49 $90 #
ellipse-curve $-1 -4.0999999999999996 7 0 0 0 -1 0 -1 0 1 I I #
coedge $-1 $29 $91 $92 $93 reversed $5 $-1 #
coedge $-1 $39 $41 $29 $57 forward $20 $-1 #
edge $-1 $58 0 $94 2 $29 $95 forward 7 unknown #
vertex $-1 $31 $96 #
straight-curve $-1 9.3999999999999986 8 0 0 -1 0 I I #
edge $-1 $33 0 $76 0.5 $50 $97 forward 7 unknown #
point $-1 -4.0999999999999996 8 0 #
point $-1 9.3999999999999986 8 0 #
face $-1 $98 $99 $2 $-1 $100 forward single #
loop $-1 $-1 $101 $36 #
plane-surface $-1 11.399999999999999 -2 0 0 -1 0 -1 0 0 forward_v I I I I #
coedge $-1 $102 $92 $103 $104 forward $37 $-1 #
coedge $-1 $41 $39 $105 $106 reversed $20 $-1 #
coedge $-1 $92 $102 $39 $69 reversed $37 $-1 #
edge $-1 $94 0 $107 0.5 $39 $108 forward 7 unknown #
coedge $-1 $105 $43 $40 $71 forward $75 $-1 #
edge $-1 $45 0 $72 8 $70 $109 forward 7 unknown #
vertex $-1 $71 $110 #
straight-curve $-1 9.3999999999999986 0 0 0 0 -1 I I #
coedge $-1 $43 $111 $87 $112 forward $75 $-1 #
loop $-1 $-1 $105 $113 #
vertex $-1 $44 $114 #
straight-curve $-1 -4.0999999999999996 8 -0.5 1 0 0 I I #
point $-1 9.3999999999999986 8 -0.5 #
coedge $-1 $115 $47 $116 $117 reversed $5 $-1 #
coedge $-1 $118 $119 $47 $81 forward $120 $-1 #
edge $-1 $121 0 $85 13 $47 $122 forward 7 unknown #
coedge $-1 $123 $48 $51 $88 forward $84 $-1 #
coedge $-1 $48 $123 $118 $124 reversed $84 $-1 #
loop $-1 $-1 $82 $125 #
vertex $-1 $81 $126 #
straight-curve $-1 -2 6 0 -1 0 0 I I #
coedge $-1 $51 $50 $74 $112 reversed $52 $-1 #
edge $-1 $53 0 $127 0.5 $82 $128 forward 7 unknown #
face $-1 $113 $52 $2 $-1 $129 forward single #
point $-1 -4.0999999999999996 6 0 #
coedge $-1 $55 $115 $130 $131 reversed $5 $-1 #
coedge $-1 $66 $68 $55 $93 forward $37 $-1 #
edge $-1 $94 0 $132 3.1415926535897931 $55 $133 forward 7 unknown #
vertex $-1 $57 $134 #
straight-curve $-1 9.3999999999999986 0 0 1 0 0 I I #
point $-1 9.3999999999999986 0 0 #
straight-curve $-1 -4.0999999999999996 8 0 0 0 -1 I I #
face $-1 $135 $136 $2 $-1 $137 forward single #
loop $-1 $-1 $138 $63 #
plane-surface $-1 7 -2 0 1 0 0 0 -1 0 forward_v I I I I #
coedge $-1 $139 $130 $140 $141 forward $64 $-1 #
coedge $-1 $68 $66 $142 $143 reversed $37 $-1 #
coedge $-1 $130 $139 $66 $104 reversed $64 $-1 #
edge $-1 $132 0 $144 0.5 $66 $145 forward 7 unknown #
coedge $-1 $142 $70 $67 $106 forward $75 $-1 #
edge $-1 $72 0 $107 2 $105 $146 forward 7 unknown #
vertex $-1 $143 $147 #
straight-curve $-1 11.399999999999999 0 0 0 0 -1 I I #
straight-curve $-1 9.3999999999999986 8 -0.5 0 -1 0 I I #
point $-1 9.3999999999999986 0 -0.5 #
coedge $-1 $74 $148 $123 $149 forward $75 $-1 #
edge $-1 $127 0 $76 3.1415926535897967 $74 $150 forward 7 unknown #
face $-1 $-1 $75 $2 $-1 $151 forward single #
point $-1 -4.0999999999999996 8 -0.5 #
coedge $-1 $91 $79 $152 $153 reversed $5 $-1 #
coedge $-1 $154 $155 $79 $117 forward $136 $-1 #
edge $-1 $156 0 $121 9 $79 $157 forward 7 unknown #
coedge $-1 $158 $80 $83 $124 forward $120 $-1 #
coedge $-1 $80 $158 $154 $159 reversed $120 $-1 #
loop $-1 $-1 $118 $135 #
vertex $-1 $117 $160 #
straight-curve $-1 -2 -7 0 0 1 0 I I #
coedge $-1 $83 $82 $111 $149 reversed $84 $-1 #
edge $-1 $85 0 $161 0.5 $118 $162 forward 7 unknown #
face $-1 $89 $84 $2 $-1 $163 forward single #
point $-1 -2 6 0 #
vertex $-1 $112 $164 #
straight-curve $-1 -4.0999999999999996 6 0 0 0 -1 I I #
cone-surface $-1 -4.0999999999999996 7 0 0 0 -1 -1 0 0 1 I I 0 1 1 forward I I I I #
coedge $-1 $101 $103 $91 $131 forward $64 $-1 #
edge $-1 $132 0 $165 4.3999999999999986 $91 $166 forward 7 unknown #
vertex $-1 $93 $167 #
ellipse-curve $-1 11.399999999999999 -1 0 0 0 -1 0 1 0 1 I I #
point $-1 11.399999999999999 0 0 #
face $-1 $125 $120 $2 $-1 $168 forward single #
loop $-1 $-1 $154 $98 #
plane-surface $-1 7 -7 0 0 -1 0 -1 0 0 forward_v I I I I #
coedge $-1 $169 $152 $155 $170 forward $99 $-1 #
coedge $-1 $103 $101 $171 $172 reversed $64 $-1 #
coedge $-1 $152 $169 $101 $141 reversed $99 $-1 #
edge $-1 $165 0 $173 0.5 $101 $174 forward 7 unknown #
coedge $-1 $171 $105 $102 $143 forward $75 $-1 #
edge $-1 $107 0 $144 3.1415926535897967 $142 $175 forward 7 unknown #
vertex $-1 $172 $176 #
straight-curve $-1 11.399999999999999 -2 0 0 0 -1 I I #
straight-curve $-1 9.3999999999999986 0 -0.5 1 0 0 I I #
point $-1 11.399999999999999 0 -0.5 #
coedge $-1 $111 $177 $158 $178 forward $75 $-1 #
edge $-1 $161 0 $127 2.0999999999999996 $111 $179 forward 7 unknown #
ellipse-curve $-1 -4.1000000000000014 7 -0.5 0 0 -1 1.7763568394002505e-015 -1 0 1 I I #
plane-surface $-1 0 0 -0.5 0 0 -1 -1 0 0 forward_v I I I I #
coedge $-1 $138 $140 $115 $153 forward $99 $-1 #
edge $-1 $165 0 $156 5 $115 $180 forward 7 unknown #
coedge $-1 $181 $116 $119 $159 forward $136 $-1 #
coedge $-1 $116 $181 $138 $170 reversed $136 $-1 #
vertex $-1 $153 $182 #
straight-curve $-1 7 -7 0 -1 0 0 I I #
coedge $-1 $119 $118 $148 $178 reversed $120 $-1 #
edge $-1 $121 0 $183 0.5 $154 $184 forward 7 unknown #
point $-1 -2 -7 0 #
vertex $-1 $149 $185 #
straight-curve $-1 -2 6 0 0 0 -1 I I #
plane-surface $-1 -2 6 0 0 -1 0 -1 0 0 forward_v I I I I #
point $-1 -4.0999999999999996 6 -0.5 #
vertex $-1 $131 $186 #
straight-curve $-1 11.399999999999999 -2 0 -1 0 0 I I #
point $-1 11.399999999999999 -2 0 #
plane-surface $-1 -2 -7 0 -1 0 0 0 1 0 forward_v I I I I #
coedge $-1 $140 $138 $187 $188 reversed $99 $-1 #
edge $-1 $156 0 $189 0.5 $138 $190 forward 7 unknown #
coedge $-1 $187 $142 $139 $172 forward $75 $-1 #
edge $-1 $144 0 $173 4.3999999999999986 $171 $191 forward 7 unknown #
vertex $-1 $188 $192 #
straight-curve $-1 7 -2 0 0 0 -1 I I #
ellipse-curve $-1 11.4 -1 -0.5 0 0 -1 -1.7763568394002505e-015 1 0 1 I I #
point $-1 11.399999999999999 -2 -0.5 #
coedge $-1 $148 $187 $181 $193 forward $75 $-1 #
edge $-1 $183 0 $161 13 $148 $194 forward 7 unknown #
straight-curve $-1 -2 6 -0.5 -1 0 0 I I #
straight-curve $-1 7 -2 0 0 -1 0 I I #
coedge $-1 $155 $154 $177 $193 reversed $136 $-1 #
point $-1 7 -7 0 #
vertex $-1 $178 $195 #
straight-curve $-1 -2 -7 0 0 0 -1 I I #
point $-1 -2 6 -0.5 #
point $-1 7 -2 0 #
coedge $-1 $177 $171 $169 $188 forward $75 $-1 #
edge $-1 $173 0 $189 5 $187 $196 forward 7 unknown #
vertex $-1 $193 $197 #
straight-curve $-1 7 -7 0 0 0 -1 I I #
straight-curve $-1 11.399999999999999 -2 -0.5 -1 0 0 I I #
point $-1 7 -2 -0.5 #
edge $-1 $189 0 $183 9 $177 $198 forward 7 unknown #
straight-curve $-1 -2 -7 -0.5 0 1 0 I I #
point $-1 -2 -7 -0.5 #
straight-curve $-1 7 -2 -0.5 0 -1 0 I I #
point $-1 7 -7 -0.5 #
straight-curve $-1 7 -7 -0.5 -1 0 0 I I #
End-of-ACIS-data 