700 0 2 0           
24 FBMach with ACIS - 7.0.3 13 ACIS 7.0.3 NT 24 Wed May 15 17:56:26 2002 
1 9.9999999999999995e-007 1e-010 
body $2 -1 $-1 $3 $-1 $4 #
bdycol-kcp $-1 -1 1 4 $5 $6 $7 $8 #
model_id-kcp-attrib $-1 -1 $-1 $-1 $0 1 1021499786 1021499786 -633470975 1 #
lump $-1 -1 $-1 $-1 $9 $0 #
transform $-1 -1 1 0 0 0 1 0 0 0 1 0 0 0 1 rotate no_reflect no_shear #
body $10 -1 $-1 $11 $-1 $12 #
body $13 -1 $-1 $14 $-1 $15 #
body $16 -1 $-1 $17 $-1 $18 #
body $19 -1 $-1 $20 $-1 $21 #
shell $-1 -1 $-1 $-1 $-1 $22 $-1 $3 #
rgb_color-st-attrib $-1 -1 $23 $-1 $5 1 0.5 1 #
lump $-1 -1 $-1 $-1 $24 $5 #
transform $-1 -1 1 0 0 0 1 0 0 0 1 3.6499999999999995 0.5 -0.25 1 no_rotate no_reflect no_shear #
model_id-kcp-attrib $-1 -1 $-1 $-1 $6 1 1021499786 1021499786 -633470974 1 #
lump $-1 -1 $-1 $-1 $25 $6 #
transform $-1 -1 1 0 0 0 1 0 0 0 1 3.6499999999999995 0.5 -0.25 1 no_rotate no_reflect no_shear #
rgb_color-st-attrib $-1 -1 $26 $-1 $7 1 0.5 1 #
lump $-1 -1 $-1 $-1 $27 $7 #
transform $-1 -1 1 0 0 0 1 0 0 0 1 3.6499999999999995 0.5 -0.25 1 no_rotate no_reflect no_shear #
rgb_color-st-attrib $-1 -1 $28 $-1 $8 1 0.5 1 #
lump $-1 -1 $-1 $-1 $29 $8 #
transform $-1 -1 1 0 0 0 1 0 0 0 1 3.6499999999999995 0.5 -0.25 1 no_rotate no_reflect no_shear #
face $30 -1 $-1 $31 $32 $9 $-1 $33 reversed single #
model_id-kcp-attrib $-1 -1 $-1 $10 $5 1 1021499786 1021499786 -636157947 1 #
shell $-1 -1 $-1 $-1 $-1 $34 $-1 $11 #
shell $-1 -1 $-1 $-1 $-1 $35 $-1 $14 #
model_id-kcp-attrib $-1 -1 $-1 $16 $7 1 1021499786 1021499786 -633143293 1 #
shell $-1 -1 $-1 $-1 $-1 $36 $-1 $17 #
model_id-kcp-attrib $-1 -1 $-1 $19 $8 1 1021499786 1021499786 -625934332 1 #
shell $-1 -1 $-1 $-1 $-1 $37 $-1 $20 #
model_id-kcp-attrib $-1 -1 $-1 $-1 $22 1 1021499786 1021499786 -633470975 2 #
face $38 -1 $-1 $39 $40 $9 $-1 $41 forward single #
loop $-1 -1 $-1 $-1 $42 $22 #
plane-surface $-1 -1 $-1 0 0 0 0 0 -1 -1 0 0 forward_v I I I I #
face $-1 -1 $-1 $43 $44 $24 $-1 $45 forward single #
face $46 -1 $-1 $47 $48 $25 $-1 $49 forward single #
face $-1 -1 $-1 $50 $51 $27 $-1 $52 forward single #
face $-1 -1 $-1 $53 $54 $29 $-1 $55 forward single #
model_id-kcp-attrib $-1 -1 $-1 $-1 $31 1 1021499786 1021499786 -633470975 3 #
face $56 -1 $-1 $57 $58 $9 $-1 $59 forward single #
loop $-1 -1 $-1 $-1 $60 $31 #
plane-surface $-1 -1 $-1 -4.0999999999999996 8 0 0 1 0 1 0 0 forward_v I I I I #
coedge $-1 -1 $-1 $61 $62 $63 $64 reversed $32 $-1 #
face $-1 -1 $-1 $65 $66 $24 $-1 $67 forward single #
loop $-1 -1 $-1 $-1 $68 $34 #
plane-surface $-1 -1 $-1 5.7499999999999991 -0.5 0.25 0 0 1 1 0 0 forward_v I I I I #
model_id-kcp-attrib $-1 -1 $-1 $-1 $35 1 1021499786 1021499786 -633470974 2 #
face $69 -1 $-1 $70 $71 $25 $-1 $72 reversed single #
loop $-1 -1 $-1 $-1 $73 $35 #
plane-surface $-1 -1 $-1 0 0 0.25 0 0 1 1 0 0 forward_v I I I I #
face $-1 -1 $-1 $74 $75 $27 $-1 $76 forward single #
loop $-1 -1 $-1 $-1 $77 $36 #
plane-surface $-1 -1 $-1 -5.6499999999999995 5.5 0.25 0 0 1 1 0 0 forward_v I I I I #
face $-1 -1 $-1 $78 $79 $29 $-1 $80 forward single #
loop $-1 -1 $-1 $-1 $81 $37 #
plane-surface $-1 -1 $-1 3.3500000000000005 -2.5 -0.25 0 0 -1 -1 0 0 forward_v I I I I #
model_id-kcp-attrib $-1 -1 $-1 $-1 $39 1 1021499786 1021499786 -633470975 4 #
face $82 -1 $-1 $83 $84 $9 $-1 $85 forward single #
loop $-1 -1 $-1 $-1 $86 $39 #
plane-surface $-1 -1 $-1 9.3999999999999986 8 0 1 0 0 0 -1 0 forward_v I I I I #
coedge $-1 -1 $-1 $87 $63 $88 $89 forward $40 $-1 #
coedge $-1 -1 $-1 $90 $42 $91 $92 reversed $32 $-1 #
coedge $-1 -1 $-1 $42 $93 $94 $95 reversed $32 $-1 #
coedge $-1 -1 $-1 $60 $96 $42 $64 forward $40 $-1 #
edge $97 -1 $-1 $98 0 $99 13.499999999999998 $42 $100 forward @7 unknown #
face $-1 -1 $-1 $101 $102 $24 $-1 $103 forward single #
loop $-1 -1 $-1 $-1 $104 $43 #
plane-surface $-1 -1 $-1 5.75 7.5 0.25 0 1 0 0 0 1 forward_v I I I I #
coedge $-1 -1 $-1 $105 $106 $107 $108 forward $44 $-1 #
model_id-kcp-attrib $-1 -1 $-1 $-1 $47 1 1021499786 1021499786 -633470974 5 #
face $109 -1 $-1 $110 $111 $25 $-1 $112 reversed single #
loop $-1 -1 $-1 $-1 $113 $47 #
plane-surface $-1 -1 $-1 0 0 -0.25 0 0 1 1 0 0 forward_v I I I I #
coedge $-1 -1 $-1 $114 $115 $116 $117 forward $48 $-1 #
face $-1 -1 $-1 $118 $119 $27 $-1 $120 forward single #
loop $-1 -1 $-1 $-1 $121 $50 #
plane-surface $-1 -1 $-1 -5.6499999999999986 -7.5 0.25 0 -1 0 0 0 -1 forward_v I I I I #
coedge $-1 -1 $-1 $122 $123 $124 $125 forward $51 $-1 #
face $-1 -1 $-1 $126 $127 $29 $-1 $128 forward single #
loop $-1 -1 $-1 $-1 $129 $53 #
plane-surface $-1 -1 $-1 3.3500000000000014 -7.5 -0.25 0 -1 0 0 0 -1 forward_v I I I I #
coedge $-1 -1 $-1 $130 $131 $132 $133 forward $54 $-1 #
model_id-kcp-attrib $-1 -1 $-1 $-1 $57 1 1021499786 1021499786 -633470975 5 #
face $134 -1 $-1 $135 $136 $9 $-1 $137 forward single #
loop $-1 -1 $-1 $-1 $138 $57 #
plane-surface $-1 -1 $-1 9.3999999999999986 0 0 0 1 0 1 0 0 forward_v I I I I #
coedge $-1 -1 $-1 $139 $94 $140 $141 forward $58 $-1 #
coedge $-1 -1 $-1 $96 $60 $142 $143 reversed $40 $-1 #
coedge $-1 -1 $-1 $94 $139 $60 $89 reversed $58 $-1 #
edge $144 -1 $-1 $99 0 $145 0.5 $88 $146 forward @7 unknown #
coedge $-1 -1 $-1 $147 $61 $148 $149 reversed $32 $-1 #
coedge $-1 -1 $-1 $150 $151 $61 $92 forward $152 $-1 #
edge $153 -1 $-1 $154 0 $98 3.1415926535897931 $61 $155 forward @7 unknown #
coedge $-1 -1 $-1 $62 $156 $157 $158 reversed $32 $-1 #
coedge $-1 -1 $-1 $86 $88 $62 $95 forward $58 $-1 #
edge $159 -1 $-1 $99 0 $160 8 $62 $161 forward @7 unknown #
coedge $-1 -1 $-1 $63 $87 $150 $162 reversed $40 $-1 #
attrib_edge_convexity-kcp-attrib $-1 -1 $163 $-1 $64 1 #
vertex $-1 -1 $-1 $92 $164 #
vertex $-1 -1 $-1 $95 $165 #
straight-curve $-1 -1 $-1 -4.0999999999999996 8 0 1 0 0 I I #
face $-1 -1 $-1 $166 $167 $24 $-1 $168 forward single #
loop $-1 -1 $-1 $-1 $169 $65 #
plane-surface $-1 -1 $-1 5.75 7.5 -0.25 0 0 -1 -1 0 0 forward_v I I I I #
coedge $-1 -1 $-1 $170 $171 $172 $173 forward $66 $-1 #
coedge $-1 -1 $-1 $174 $68 $171 $175 reversed $44 $-1 #
coedge $-1 -1 $-1 $68 $174 $176 $177 forward $44 $-1 #
coedge $-1 -1 $-1 $178 $172 $68 $108 reversed $179 $-1 #
edge $-1 -1 $-1 $180 -2.25 $181 5.75 $68 $182 forward @7 unknown #
model_id-kcp-attrib $-1 -1 $-1 $-1 $70 1 1021499786 1021499786 -633470974 4 #
face $-1 -1 $-1 $183 $184 $25 $-1 $185 reversed single #
loop $-1 -1 $-1 $-1 $186 $70 #
plane-surface $-1 -1 $-1 0 -7.5 0 0 1 0 0 0 1 forward_v I I I I #
coedge $-1 -1 $-1 $187 $188 $189 $190 forward $71 $-1 #
coedge $-1 -1 $-1 $191 $73 $192 $193 forward $48 $-1 #
coedge $-1 -1 $-1 $73 $191 $194 $195 forward $48 $-1 #
coedge $-1 -1 $-1 $196 $197 $73 $117 reversed $198 $-1 #
edge $-1 -1 $-1 $199 -7.5 $200 7.5 $116 $201 forward @7 unknown #
face $-1 -1 $-1 $202 $203 $27 $-1 $204 forward single #
loop $-1 -1 $-1 $-1 $205 $74 #
plane-surface $-1 -1 $-1 -5.6499999999999986 -7.5 -0.25 0 0 -1 -1 0 0 forward_v I I I I #
coedge $-1 -1 $-1 $206 $207 $208 $209 forward $75 $-1 #
coedge $-1 -1 $-1 $210 $77 $207 $211 reversed $51 $-1 #
coedge $-1 -1 $-1 $77 $210 $212 $213 forward $51 $-1 #
coedge $-1 -1 $-1 $214 $208 $77 $125 reversed $215 $-1 #
edge $-1 -1 $-1 $216 -6 $217 7 $77 $218 forward @7 unknown #
face $-1 -1 $-1 $219 $220 $29 $-1 $221 forward single #
loop $-1 -1 $-1 $-1 $222 $78 #
plane-surface $-1 -1 $-1 3.3500000000000014 -7.5 0.25 0 0 1 1 0 0 forward_v I I I I #
coedge $-1 -1 $-1 $223 $224 $225 $226 forward $79 $-1 #
coedge $-1 -1 $-1 $227 $81 $224 $228 reversed $54 $-1 #
coedge $-1 -1 $-1 $81 $227 $229 $230 forward $54 $-1 #
coedge $-1 -1 $-1 $231 $225 $81 $133 reversed $232 $-1 #
edge $-1 -1 $-1 $233 0 $234 5 $81 $235 forward @7 unknown #
model_id-kcp-attrib $-1 -1 $-1 $-1 $83 1 1021499786 1021499786 -633470975 6 #
face $236 -1 $-1 $237 $238 $9 $-1 $239 forward single #
loop $-1 -1 $-1 $-1 $240 $83 #
cone-surface $-1 -1 $-1 11.399999999999999 -1 0 0 0 -1 -1 0 0 1 I I 0 1 1 forward I I I I #
coedge $-1 -1 $-1 $241 $157 $242 $243 forward $84 $-1 #
coedge $-1 -1 $-1 $88 $86 $244 $245 reversed $58 $-1 #
coedge $-1 -1 $-1 $157 $241 $86 $141 reversed $84 $-1 #
edge $246 -1 $-1 $160 0 $247 0.5 $86 $248 forward @7 unknown #
coedge $-1 -1 $-1 $244 $249 $87 $143 forward $250 $-1 #
edge $251 -1 $-1 $252 0 $145 13.499999999999998 $142 $253 forward @7 unknown #
attrib_edge_convexity-kcp-attrib $-1 -1 $254 $-1 $89 1 #
vertex $-1 -1 $-1 $245 $255 #
straight-curve $-1 -1 $-1 9.3999999999999986 8 0 0 0 -1 I I #
coedge $-1 -1 $-1 $256 $90 $257 $258 reversed $32 $-1 #
coedge $-1 -1 $-1 $259 $260 $90 $149 forward $261 $-1 #
edge $262 -1 $-1 $263 0 $154 2.0999999999999996 $90 $264 forward @7 unknown #
coedge $-1 -1 $-1 $265 $91 $96 $162 forward $152 $-1 #
coedge $-1 -1 $-1 $91 $265 $259 $266 reversed $152 $-1 #
loop $-1 -1 $-1 $-1 $150 $267 #
attrib_edge_convexity-kcp-attrib $-1 -1 $268 $-1 $92 1 #
vertex $-1 -1 $-1 $149 $269 #
ellipse-curve $-1 -1 $-1 -4.0999999999999996 7 0 0 0 -1 0 -1 0 1 I I #
coedge $-1 -1 $-1 $93 $270 $271 $272 reversed $32 $-1 #
coedge $-1 -1 $-1 $138 $140 $93 $158 forward $84 $-1 #
edge $273 -1 $-1 $160 0 $274 2 $93 $275 forward @7 unknown #
attrib_edge_convexity-kcp-attrib $-1 -1 $276 $-1 $95 1 #
vertex $-1 -1 $-1 $95 $277 #
straight-curve $-1 -1 $-1 9.3999999999999986 8 0 0 -1 0 I I #
edge $278 -1 $-1 $98 0 $252 0.5 $150 $279 forward @7 unknown #
convexity-sys-attrib $-1 -1 $-1 $97 $64 #
point $-1 -1 $-1 -4.0999999999999996 8 0 #
point $-1 -1 $-1 9.3999999999999986 8 0 #
face $-1 -1 $-1 $280 $179 $24 $-1 $281 forward single #
loop $-1 -1 $-1 $-1 $282 $101 #
plane-surface $-1 -1 $-1 5.7499999999999991 -0.5 -0.25 0 -1 0 0 0 -1 forward_v I I I I #
coedge $-1 -1 $-1 $283 $284 $285 $286 forward $102 $-1 #
coedge $-1 -1 $-1 $287 $104 $284 $288 reversed $66 $-1 #
coedge $-1 -1 $-1 $104 $287 $105 $175 forward $66 $-1 #
coedge $-1 -1 $-1 $107 $285 $104 $173 reversed $179 $-1 #
edge $-1 -1 $-1 $181 -0.25 $289 0.25 $104 $290 forward @7 unknown #
coedge $-1 -1 $-1 $106 $105 $291 $292 reversed $44 $-1 #
edge $-1 -1 $-1 $293 0 $181 2 $171 $294 forward @7 unknown #
coedge $-1 -1 $-1 $295 $282 $106 $177 reversed $167 $-1 #
edge $-1 -1 $-1 $296 0 $180 2 $106 $297 forward @7 unknown #
coedge $-1 -1 $-1 $285 $107 $282 $298 reversed $179 $-1 #
loop $-1 -1 $-1 $-1 $107 $166 #
vertex $-1 -1 $-1 $177 $299 #
vertex $-1 -1 $-1 $175 $300 #
straight-curve $-1 -1 $-1 7.75 1.75 0.25 0 1 0 I I #
face $301 -1 $-1 $302 $303 $25 $-1 $304 reversed single #
loop $-1 -1 $-1 $-1 $305 $110 #
plane-surface $-1 -1 $-1 -8.75 0 0 1 0 0 0 0 -1 forward_v I I I I #
coedge $-1 -1 $-1 $306 $194 $307 $308 forward $111 $-1 #
coedge $-1 -1 $-1 $309 $113 $306 $310 forward $71 $-1 #
coedge $-1 -1 $-1 $113 $309 $311 $312 forward $71 $-1 #
coedge $-1 -1 $-1 $197 $196 $113 $190 reversed $198 $-1 #
edge $-1 -1 $-1 $313 -7.5 $314 7.5 $189 $315 forward @7 unknown #
coedge $-1 -1 $-1 $115 $114 $316 $317 forward $48 $-1 #
coedge $-1 -1 $-1 $318 $319 $114 $193 reversed $303 $-1 #
edge $-1 -1 $-1 $200 -8.75 $320 8.75 $192 $321 forward @7 unknown #
coedge $-1 -1 $-1 $186 $322 $115 $195 reversed $111 $-1 #
edge $-1 -1 $-1 $323 -8.75 $199 8.75 $194 $324 forward @7 unknown #
coedge $-1 -1 $-1 $189 $116 $322 $325 forward $198 $-1 #
coedge $-1 -1 $-1 $116 $189 $318 $326 reversed $198 $-1 #
loop $-1 -1 $-1 $-1 $196 $302 #
vertex $-1 -1 $-1 $117 $327 #
vertex $-1 -1 $-1 $117 $328 #
straight-curve $-1 -1 $-1 8.75 0 0.25 0 1 0 I I #
face $-1 -1 $-1 $329 $215 $27 $-1 $330 reversed single #
loop $-1 -1 $-1 $-1 $331 $118 #
plane-surface $-1 -1 $-1 -5.6499999999999995 5.5 -0.25 0 1 0 0 0 1 forward_v I I I I #
coedge $-1 -1 $-1 $332 $333 $334 $335 forward $119 $-1 #
coedge $-1 -1 $-1 $336 $121 $333 $337 reversed $75 $-1 #
coedge $-1 -1 $-1 $121 $336 $122 $211 forward $75 $-1 #
coedge $-1 -1 $-1 $124 $334 $121 $209 reversed $215 $-1 #
edge $-1 -1 $-1 $217 -0.25 $338 0.25 $121 $339 forward @7 unknown #
coedge $-1 -1 $-1 $123 $122 $340 $341 reversed $51 $-1 #
edge $-1 -1 $-1 $342 0 $217 2.0999999999999996 $207 $343 forward @7 unknown #
coedge $-1 -1 $-1 $344 $331 $123 $213 reversed $203 $-1 #
edge $-1 -1 $-1 $345 0 $216 2.0999999999999996 $123 $346 forward @7 unknown #
coedge $-1 -1 $-1 $334 $124 $331 $347 reversed $215 $-1 #
loop $-1 -1 $-1 $-1 $124 $202 #
vertex $-1 -1 $-1 $213 $348 #
vertex $-1 -1 $-1 $211 $349 #
straight-curve $-1 -1 $-1 -7.7499999999999982 -0.5 0.25 0 -1 0 I I #
face $-1 -1 $-1 $350 $232 $29 $-1 $351 forward single #
loop $-1 -1 $-1 $-1 $352 $126 #
plane-surface $-1 -1 $-1 3.3500000000000005 -2.5 0.25 0 1 0 0 0 1 forward_v I I I I #
coedge $-1 -1 $-1 $353 $354 $355 $356 forward $127 $-1 #
coedge $-1 -1 $-1 $357 $129 $354 $358 reversed $79 $-1 #
coedge $-1 -1 $-1 $129 $357 $130 $228 forward $79 $-1 #
coedge $-1 -1 $-1 $132 $355 $129 $226 reversed $232 $-1 #
edge $-1 -1 $-1 $234 -0.25 $359 0.25 $129 $360 forward @7 unknown #
coedge $-1 -1 $-1 $131 $130 $361 $362 reversed $54 $-1 #
edge $-1 -1 $-1 $363 0 $234 4.3999999999999986 $224 $364 forward @7 unknown #
coedge $-1 -1 $-1 $365 $352 $131 $230 reversed $220 $-1 #
edge $-1 -1 $-1 $366 0 $233 4.3999999999999986 $131 $367 forward @7 unknown #
coedge $-1 -1 $-1 $355 $132 $352 $368 reversed $232 $-1 #
loop $-1 -1 $-1 $-1 $132 $219 #
vertex $-1 -1 $-1 $230 $369 #
vertex $-1 -1 $-1 $228 $370 #
straight-curve $-1 -1 $-1 7.75 -2.5 -0.25 0 -1 0 I I #
model_id-kcp-attrib $-1 -1 $-1 $-1 $135 1 1021499786 1021499786 -633470975 7 #
face $371 -1 $-1 $372 $373 $9 $-1 $374 forward single #
loop $-1 -1 $-1 $-1 $375 $135 #
plane-surface $-1 -1 $-1 11.399999999999999 -2 0 0 -1 0 -1 0 0 forward_v I I I I #
coedge $-1 -1 $-1 $376 $271 $377 $378 forward $136 $-1 #
coedge $-1 -1 $-1 $140 $138 $379 $380 reversed $84 $-1 #
coedge $-1 -1 $-1 $271 $376 $138 $243 reversed $136 $-1 #
edge $381 -1 $-1 $274 0 $382 0.5 $138 $383 forward @7 unknown #
coedge $-1 -1 $-1 $379 $142 $139 $245 forward $250 $-1 #
edge $384 -1 $-1 $145 0 $247 8 $244 $385 forward @7 unknown #
attrib_edge_convexity-kcp-attrib $-1 -1 $386 $-1 $141 2 #
vertex $-1 -1 $-1 $245 $387 #
straight-curve $-1 -1 $-1 9.3999999999999986 0 0 0 0 -1 I I #
coedge $-1 -1 $-1 $142 $388 $265 $389 forward $250 $-1 #
loop $-1 -1 $-1 $-1 $379 $390 #
attrib_edge_convexity-kcp-attrib $-1 -1 $391 $-1 $143 1 #
vertex $-1 -1 $-1 $143 $392 #
straight-curve $-1 -1 $-1 -4.0999999999999996 8 -0.5 1 0 0 I I #
convexity-sys-attrib $-1 -1 $-1 $144 $89 #
point $-1 -1 $-1 9.3999999999999986 8 -0.5 #
coedge $-1 -1 $-1 $393 $147 $394 $395 reversed $32 $-1 #
coedge $-1 -1 $-1 $396 $397 $147 $258 forward $398 $-1 #
edge $399 -1 $-1 $400 0 $263 13 $147 $401 forward @7 unknown #
coedge $-1 -1 $-1 $402 $148 $151 $266 forward $261 $-1 #
coedge $-1 -1 $-1 $148 $402 $396 $403 reversed $261 $-1 #
loop $-1 -1 $-1 $-1 $259 $404 #
attrib_edge_convexity-kcp-attrib $-1 -1 $405 $-1 $149 1 #
vertex $-1 -1 $-1 $258 $406 #
straight-curve $-1 -1 $-1 -2 6 0 -1 0 0 I I #
coedge $-1 -1 $-1 $151 $150 $249 $389 reversed $152 $-1 #
edge $407 -1 $-1 $154 0 $408 0.5 $259 $409 forward @7 unknown #
face $410 -1 $-1 $390 $152 $9 $-1 $411 forward single #
convexity-sys-attrib $-1 -1 $-1 $153 $92 #
point $-1 -1 $-1 -4.0999999999999996 6 0 #
coedge $-1 -1 $-1 $156 $393 $412 $413 reversed $32 $-1 #
coedge $-1 -1 $-1 $240 $242 $156 $272 forward $136 $-1 #
edge $414 -1 $-1 $274 0 $415 3.1415926535897931 $156 $416 forward @7 unknown #
attrib_edge_convexity-kcp-attrib $-1 -1 $417 $-1 $158 1 #
vertex $-1 -1 $-1 $158 $418 #
straight-curve $-1 -1 $-1 9.3999999999999986 0 0 1 0 0 I I #
convexity-sys-attrib $-1 -1 $-1 $159 $95 #
point $-1 -1 $-1 9.3999999999999986 0 0 #
attrib_edge_convexity-kcp-attrib $-1 -1 $419 $-1 $162 3 #
straight-curve $-1 -1 $-1 -4.0999999999999996 8 0 0 0 -1 I I #
face $-1 -1 $-1 $-1 $420 $24 $-1 $421 reversed single #
plane-surface $-1 -1 $-1 7.75 3.5 0 1 0 0 0 0 -1 forward_v I I I I #
coedge $-1 -1 $-1 $176 $422 $178 $298 forward $167 $-1 #
coedge $-1 -1 $-1 $423 $169 $422 $424 reversed $102 $-1 #
coedge $-1 -1 $-1 $169 $423 $170 $288 forward $102 $-1 #
coedge $-1 -1 $-1 $172 $178 $169 $286 reversed $179 $-1 #
edge $-1 -1 $-1 $289 -5.75 $425 2.25 $169 $426 forward @7 unknown #
coedge $-1 -1 $-1 $171 $170 $427 $428 reversed $66 $-1 #
edge $-1 -1 $-1 $429 0 $289 2 $284 $430 forward @7 unknown #
vertex $-1 -1 $-1 $288 $431 #
straight-curve $-1 -1 $-1 7.75 7.5 0 0 0 -1 I I #
coedge $-1 -1 $-1 $427 $432 $174 $292 forward $420 $-1 #
edge $433 -1 $-1 $296 -2.25 $293 5.75 $174 $434 forward @7 unknown #
vertex $-1 -1 $-1 $292 $435 #
straight-curve $-1 -1 $-1 5.75 7.5 0.25 1 0 0 I I #
coedge $-1 -1 $-1 $422 $176 $432 $436 reversed $167 $-1 #
vertex $-1 -1 $-1 $436 $437 #
straight-curve $-1 -1 $-1 5.7499999999999991 -0.5 0.25 1 0 0 I I #
edge $-1 -1 $-1 $425 -0.375 $180 0.125 $282 $438 forward @7 unknown #
point $-1 -1 $-1 7.7499999999999991 -0.5 0.25 #
point $-1 -1 $-1 7.75 7.5 0.25 #
model_id-kcp-attrib $-1 -1 $-1 $-1 $183 1 1021499786 1021499786 -633470974 3 #
face $-1 -1 $-1 $-1 $198 $25 $-1 $439 reversed single #
loop $-1 -1 $-1 $-1 $318 $183 #
plane-surface $-1 -1 $-1 0 7.5 0 0 -1 0 0 0 -1 forward_v I I I I #
coedge $-1 -1 $-1 $440 $316 $319 $441 forward $184 $-1 #
coedge $-1 -1 $-1 $322 $186 $187 $310 reversed $111 $-1 #
coedge $-1 -1 $-1 $316 $440 $186 $308 reversed $184 $-1 #
edge $-1 -1 $-1 $323 -0.25 $442 0.25 $307 $443 forward @7 unknown #
coedge $-1 -1 $-1 $188 $187 $440 $444 forward $71 $-1 #
edge $-1 -1 $-1 $314 -8.75 $442 8.75 $306 $445 forward @7 unknown #
coedge $-1 -1 $-1 $319 $318 $188 $312 reversed $303 $-1 #
edge $-1 -1 $-1 $446 -8.75 $313 8.75 $311 $447 forward @7 unknown #
vertex $-1 -1 $-1 $190 $448 #
vertex $-1 -1 $-1 $325 $449 #
straight-curve $-1 -1 $-1 8.75 0 -0.25 0 -1 0 I I #
coedge $-1 -1 $-1 $305 $307 $191 $317 reversed $184 $-1 #
edge $-1 -1 $-1 $320 -7.5 $323 7.5 $316 $450 forward @7 unknown #
coedge $-1 -1 $-1 $311 $192 $197 $326 forward $303 $-1 #
coedge $-1 -1 $-1 $192 $311 $305 $441 reversed $303 $-1 #
vertex $-1 -1 $-1 $193 $451 #
straight-curve $-1 -1 $-1 0 7.5 0.25 -1 0 0 I I #
coedge $-1 -1 $-1 $194 $306 $196 $325 reversed $111 $-1 #
vertex $-1 -1 $-1 $317 $452 #
straight-curve $-1 -1 $-1 0 -7.5 0.25 1 0 0 I I #
edge $-1 -1 $-1 $199 -0.25 $314 0.25 $196 $453 forward @7 unknown #
edge $-1 -1 $-1 $200 -0.25 $313 0.25 $197 $454 forward @7 unknown #
point $-1 -1 $-1 8.75 -7.5 0.25 #
point $-1 -1 $-1 8.75 7.5 0.25 #
face $-1 -1 $-1 $-1 $455 $27 $-1 $456 forward single #
plane-surface $-1 -1 $-1 -7.7499999999999973 -1 0 1 0 0 0 0 -1 forward_v I I I I #
coedge $-1 -1 $-1 $212 $457 $214 $347 forward $203 $-1 #
coedge $-1 -1 $-1 $458 $205 $457 $459 reversed $119 $-1 #
coedge $-1 -1 $-1 $205 $458 $206 $337 forward $119 $-1 #
coedge $-1 -1 $-1 $208 $214 $205 $335 reversed $215 $-1 #
edge $-1 -1 $-1 $338 -7 $460 6 $205 $461 forward @7 unknown #
coedge $-1 -1 $-1 $207 $206 $462 $463 reversed $75 $-1 #
edge $-1 -1 $-1 $464 0 $338 2.0999999999999996 $333 $465 forward @7 unknown #
vertex $-1 -1 $-1 $337 $466 #
straight-curve $-1 -1 $-1 -7.7499999999999982 -7.5 0 0 0 -1 I I #
coedge $-1 -1 $-1 $462 $467 $210 $341 forward $455 $-1 #
edge $468 -1 $-1 $345 -6 $342 7 $210 $469 forward @7 unknown #
vertex $-1 -1 $-1 $341 $470 #
straight-curve $-1 -1 $-1 -5.6499999999999986 -7.5 0.25 -1 0 0 I I #
coedge $-1 -1 $-1 $457 $212 $467 $471 reversed $203 $-1 #
vertex $-1 -1 $-1 $471 $472 #
straight-curve $-1 -1 $-1 -5.6499999999999995 5.5 0.25 -1 0 0 I I #
edge $-1 -1 $-1 $460 -0.375 $216 0.125 $331 $473 forward @7 unknown #
point $-1 -1 $-1 -7.7499999999999991 5.5 0.25 #
point $-1 -1 $-1 -7.7499999999999982 -7.5 0.25 #
face $-1 -1 $-1 $-1 $474 $29 $-1 $475 reversed single #
plane-surface $-1 -1 $-1 7.75 -5 0 1 0 0 0 0 -1 forward_v I I I I #
coedge $-1 -1 $-1 $229 $476 $231 $368 forward $220 $-1 #
coedge $-1 -1 $-1 $477 $222 $476 $478 reversed $127 $-1 #
coedge $-1 -1 $-1 $222 $477 $223 $358 forward $127 $-1 #
coedge $-1 -1 $-1 $225 $231 $222 $356 reversed $232 $-1 #
edge $-1 -1 $-1 $359 -5 $479 0 $222 $480 forward @7 unknown #
coedge $-1 -1 $-1 $224 $223 $481 $482 reversed $79 $-1 #
edge $-1 -1 $-1 $483 0 $359 4.3999999999999986 $354 $484 forward @7 unknown #
vertex $-1 -1 $-1 $358 $485 #
straight-curve $-1 -1 $-1 7.75 -7.5 0 0 0 1 I I #
coedge $-1 -1 $-1 $481 $486 $227 $362 forward $474 $-1 #
edge $487 -1 $-1 $366 0 $363 5 $227 $488 forward @7 unknown #
vertex $-1 -1 $-1 $362 $489 #
straight-curve $-1 -1 $-1 3.3500000000000014 -7.5 -0.25 1 0 0 I I #
coedge $-1 -1 $-1 $476 $229 $486 $490 reversed $220 $-1 #
vertex $-1 -1 $-1 $490 $491 #
straight-curve $-1 -1 $-1 3.3500000000000005 -2.5 -0.25 1 0 0 I I #
edge $-1 -1 $-1 $479 -0.125 $233 0.375 $352 $492 forward @7 unknown #
point $-1 -1 $-1 7.7499999999999991 -2.5 -0.25 #
point $-1 -1 $-1 7.75 -7.5 -0.25 #
model_id-kcp-attrib $-1 -1 $-1 $-1 $237 1 1021499786 1021499786 -633470975 8 #
face $493 -1 $-1 $494 $495 $9 $-1 $496 forward single #
loop $-1 -1 $-1 $-1 $497 $237 #
plane-surface $-1 -1 $-1 7 -2 0 1 0 0 0 -1 0 forward_v I I I I #
coedge $-1 -1 $-1 $498 $412 $499 $500 forward $238 $-1 #
coedge $-1 -1 $-1 $242 $240 $501 $502 reversed $136 $-1 #
coedge $-1 -1 $-1 $412 $498 $240 $378 reversed $238 $-1 #
edge $503 -1 $-1 $415 0 $504 0.5 $240 $505 forward @7 unknown #
coedge $-1 -1 $-1 $501 $244 $241 $380 forward $250 $-1 #
edge $506 -1 $-1 $247 0 $382 2 $379 $507 forward @7 unknown #
attrib_edge_convexity-kcp-attrib $-1 -1 $508 $-1 $243 3 #
vertex $-1 -1 $-1 $502 $509 #
straight-curve $-1 -1 $-1 11.399999999999999 0 0 0 0 -1 I I #
attrib_edge_convexity-kcp-attrib $-1 -1 $510 $-1 $245 1 #
straight-curve $-1 -1 $-1 9.3999999999999986 8 -0.5 0 -1 0 I I #
convexity-sys-attrib $-1 -1 $-1 $246 $141 #
point $-1 -1 $-1 9.3999999999999986 0 -0.5 #
coedge $-1 -1 $-1 $249 $511 $402 $512 forward $250 $-1 #
edge $-1 -1 $-1 $408 0 $252 3.1415926535897967 $249 $513 forward @7 unknown #
face $514 -1 $-1 $-1 $250 $9 $-1 $515 forward single #
convexity-sys-attrib $-1 -1 $-1 $251 $143 #
point $-1 -1 $-1 -4.0999999999999996 8 -0.5 #
coedge $-1 -1 $-1 $270 $256 $516 $517 reversed $32 $-1 #
coedge $-1 -1 $-1 $518 $519 $256 $395 forward $495 $-1 #
edge $520 -1 $-1 $521 0 $400 9 $256 $522 forward @7 unknown #
coedge $-1 -1 $-1 $523 $257 $260 $403 forward $398 $-1 #
coedge $-1 -1 $-1 $257 $523 $518 $524 reversed $398 $-1 #
loop $-1 -1 $-1 $-1 $396 $494 #
attrib_edge_convexity-kcp-attrib $-1 -1 $525 $-1 $258 1 #
vertex $-1 -1 $-1 $395 $526 #
straight-curve $-1 -1 $-1 -2 -7 0 0 1 0 I I #
coedge $-1 -1 $-1 $260 $259 $388 $512 reversed $261 $-1 #
edge $527 -1 $-1 $263 0 $528 0.5 $396 $529 forward @7 unknown #
face $530 -1 $-1 $267 $261 $9 $-1 $531 forward single #
convexity-sys-attrib $-1 -1 $-1 $262 $149 #
point $-1 -1 $-1 -2 6 0 #
attrib_edge_convexity-kcp-attrib $-1 -1 $532 $-1 $266 3 #
vertex $-1 -1 $-1 $389 $533 #
straight-curve $-1 -1 $-1 -4.0999999999999996 6 0 0 0 -1 I I #
model_id-kcp-attrib $-1 -1 $-1 $-1 $267 1 1021499786 1021499786 -633470975 12 #
cone-surface $-1 -1 $-1 -4.0999999999999996 7 0 0 0 -1 -1 0 0 1 I I 0 1 1 forward I I I I #
coedge $-1 -1 $-1 $375 $377 $270 $413 forward $238 $-1 #
edge $534 -1 $-1 $415 0 $535 4.3999999999999986 $270 $536 forward @7 unknown #
attrib_edge_convexity-kcp-attrib $-1 -1 $537 $-1 $272 1 #
vertex $-1 -1 $-1 $272 $538 #
ellipse-curve $-1 -1 $-1 11.399999999999999 -1 0 0 0 -1 0 1 0 1 I I #
convexity-sys-attrib $-1 -1 $-1 $273 $158 #
point $-1 -1 $-1 11.399999999999999 0 0 #
convexity-sys-attrib $-1 -1 $-1 $278 $162 #
loop $-1 -1 $-1 $-1 $432 $280 #
plane-surface $-1 -1 $-1 5.75 3.5 0 1 0 0 0 0 -1 forward_v I I I I #
coedge $-1 -1 $-1 $282 $295 $283 $424 forward $167 $-1 #
coedge $-1 -1 $-1 $284 $283 $539 $540 reversed $102 $-1 #
edge $-1 -1 $-1 $541 0 $425 2 $422 $542 forward @7 unknown #
vertex $-1 -1 $-1 $424 $543 #
straight-curve $-1 -1 $-1 7.75 1.75 -0.25 0 -1 0 I I #
coedge $-1 -1 $-1 $539 $291 $287 $428 forward $420 $-1 #
edge $544 -1 $-1 $293 -0.25 $429 0.25 $287 $545 forward @7 unknown #
vertex $-1 -1 $-1 $428 $546 #
straight-curve $-1 -1 $-1 5.75 7.5 -0.25 1 0 0 I I #
point $-1 -1 $-1 7.75 7.5 -0.25 #
coedge $-1 -1 $-1 $291 $539 $295 $436 forward $420 $-1 #
convexity-sys-attrib $-1 -1 $-1 $-1 $292 #
straight-curve $-1 -1 $-1 5.75 1.75 0.25 0 1 0 I I #
point $-1 -1 $-1 5.75 7.5 0.25 #
edge $547 -1 $-1 $541 -0.375 $296 0.125 $295 $548 forward @7 unknown #
point $-1 -1 $-1 5.7499999999999991 -0.5 0.25 #
straight-curve $-1 -1 $-1 7.75 -0.5 0.125 0 0 1 I I #
plane-surface $-1 -1 $-1 8.75 0 0 -1 0 0 0 0 1 forward_v I I I I #
coedge $-1 -1 $-1 $307 $305 $309 $444 reversed $184 $-1 #
edge $-1 -1 $-1 $320 -0.25 $446 0.25 $319 $549 forward @7 unknown #
vertex $-1 -1 $-1 $444 $550 #
straight-curve $-1 -1 $-1 -8.75 -7.5 0 0 0 -1 I I #
edge $-1 -1 $-1 $442 -7.5 $446 7.5 $440 $551 forward @7 unknown #
straight-curve $-1 -1 $-1 0 -7.5 -0.25 -1 0 0 I I #
vertex $-1 -1 $-1 $312 $552 #
straight-curve $-1 -1 $-1 0 7.5 -0.25 1 0 0 I I #
point $-1 -1 $-1 8.75 7.5 -0.25 #
point $-1 -1 $-1 8.75 -7.5 -0.25 #
straight-curve $-1 -1 $-1 -8.75 0 0.25 0 -1 0 I I #
point $-1 -1 $-1 -8.75 7.5 0.25 #
point $-1 -1 $-1 -8.75 -7.5 0.25 #
straight-curve $-1 -1 $-1 8.75 -7.5 0 0 0 -1 I I #
straight-curve $-1 -1 $-1 8.75 7.5 0 0 0 -1 I I #
loop $-1 -1 $-1 $-1 $467 $329 #
plane-surface $-1 -1 $-1 -5.6499999999999977 -1 0 1 0 0 0 0 -1 forward_v I I I I #
coedge $-1 -1 $-1 $331 $344 $332 $459 forward $203 $-1 #
coedge $-1 -1 $-1 $333 $332 $553 $554 reversed $119 $-1 #
edge $-1 -1 $-1 $555 0 $460 2.0999999999999996 $457 $556 forward @7 unknown #
vertex $-1 -1 $-1 $459 $557 #
straight-curve $-1 -1 $-1 -7.7499999999999982 -0.5 -0.25 0 1 0 I I #
coedge $-1 -1 $-1 $553 $340 $336 $463 forward $455 $-1 #
edge $558 -1 $-1 $342 -0.25 $464 0.25 $336 $559 forward @7 unknown #
vertex $-1 -1 $-1 $463 $560 #
straight-curve $-1 -1 $-1 -5.6499999999999986 -7.5 -0.25 -1 0 0 I I #
point $-1 -1 $-1 -7.7499999999999982 -7.5 -0.25 #
coedge $-1 -1 $-1 $340 $553 $344 $471 forward $455 $-1 #
convexity-sys-attrib $-1 -1 $-1 $-1 $341 #
straight-curve $-1 -1 $-1 -5.6499999999999986 -0.5 0.25 0 -1 0 I I #
point $-1 -1 $-1 -5.6499999999999986 -7.5 0.25 #
edge $561 -1 $-1 $555 -0.375 $345 0.125 $344 $562 forward @7 unknown #
point $-1 -1 $-1 -5.6499999999999995 5.5 0.25 #
straight-curve $-1 -1 $-1 -7.7499999999999982 5.5 0.125 0 0 1 I I #
loop $-1 -1 $-1 $-1 $486 $350 #
plane-surface $-1 -1 $-1 3.3500000000000014 -5 0 1 0 0 0 0 -1 forward_v I I I I #
coedge $-1 -1 $-1 $352 $365 $353 $478 forward $220 $-1 #
coedge $-1 -1 $-1 $354 $353 $563 $564 reversed $127 $-1 #
edge $-1 -1 $-1 $565 0 $479 4.3999999999999986 $476 $566 forward @7 unknown #
vertex $-1 -1 $-1 $478 $567 #
straight-curve $-1 -1 $-1 7.75 -2.5 0.25 0 1 0 I I #
coedge $-1 -1 $-1 $563 $361 $357 $482 forward $474 $-1 #
edge $568 -1 $-1 $363 -0.25 $483 0.25 $357 $569 forward @7 unknown #
vertex $-1 -1 $-1 $482 $570 #
straight-curve $-1 -1 $-1 3.3500000000000014 -7.5 0.25 1 0 0 I I #
point $-1 -1 $-1 7.75 -7.5 0.25 #
coedge $-1 -1 $-1 $361 $563 $365 $490 forward $474 $-1 #
convexity-sys-attrib $-1 -1 $-1 $-1 $362 #
straight-curve $-1 -1 $-1 3.3500000000000014 -2.5 -0.25 0 -1 0 I I #
point $-1 -1 $-1 3.3500000000000014 -7.5 -0.25 #
edge $571 -1 $-1 $565 -0.125 $366 0.375 $365 $572 forward @7 unknown #
point $-1 -1 $-1 3.3500000000000005 -2.5 -0.25 #
straight-curve $-1 -1 $-1 7.75 -2.5 0.125 0 0 -1 I I #
model_id-kcp-attrib $-1 -1 $-1 $-1 $372 1 1021499786 1021499786 -633470975 9 #
face $573 -1 $-1 $404 $398 $9 $-1 $574 forward single #
loop $-1 -1 $-1 $-1 $518 $372 #
plane-surface $-1 -1 $-1 7 -7 0 0 -1 0 -1 0 0 forward_v I I I I #
coedge $-1 -1 $-1 $575 $516 $519 $576 forward $373 $-1 #
coedge $-1 -1 $-1 $377 $375 $577 $578 reversed $238 $-1 #
coedge $-1 -1 $-1 $516 $575 $375 $500 reversed $373 $-1 #
edge $579 -1 $-1 $535 0 $580 0.5 $375 $581 forward @7 unknown #
coedge $-1 -1 $-1 $577 $379 $376 $502 forward $250 $-1 #
edge $-1 -1 $-1 $382 0 $504 3.1415926535897967 $501 $582 forward @7 unknown #
attrib_edge_convexity-kcp-attrib $-1 -1 $583 $-1 $378 3 #
vertex $-1 -1 $-1 $578 $584 #
straight-curve $-1 -1 $-1 11.399999999999999 -2 0 0 0 -1 I I #
attrib_edge_convexity-kcp-attrib $-1 -1 $585 $-1 $380 1 #
straight-curve $-1 -1 $-1 9.3999999999999986 0 -0.5 1 0 0 I I #
convexity-sys-attrib $-1 -1 $-1 $381 $243 #
point $-1 -1 $-1 11.399999999999999 0 -0.5 #
convexity-sys-attrib $-1 -1 $-1 $384 $245 #
coedge $-1 -1 $-1 $388 $586 $523 $587 forward $250 $-1 #
edge $588 -1 $-1 $528 0 $408 2.0999999999999996 $388 $589 forward @7 unknown #
ellipse-curve $-1 -1 $-1 -4.1000000000000014 7 -0.5 0 0 -1 1.7763568394002505e-015 -1 0 1 I I #
model_id-kcp-attrib $-1 -1 $-1 $-1 $390 1 1021499786 1021499786 -633470975 13 #
plane-surface $-1 -1 $-1 0 0 -0.5 0 0 -1 -1 0 0 forward_v I I I I #
coedge $-1 -1 $-1 $497 $499 $393 $517 forward $373 $-1 #
edge $590 -1 $-1 $535 0 $521 5 $393 $591 forward @7 unknown #
coedge $-1 -1 $-1 $592 $394 $397 $524 forward $495 $-1 #
coedge $-1 -1 $-1 $394 $592 $497 $576 reversed $495 $-1 #
attrib_edge_convexity-kcp-attrib $-1 -1 $593 $-1 $395 1 #
vertex $-1 -1 $-1 $517 $594 #
straight-curve $-1 -1 $-1 7 -7 0 -1 0 0 I I #
coedge $-1 -1 $-1 $397 $396 $511 $587 reversed $398 $-1 #
edge $595 -1 $-1 $400 0 $596 0.5 $518 $597 forward @7 unknown #
convexity-sys-attrib $-1 -1 $-1 $399 $258 #
point $-1 -1 $-1 -2 -7 0 #
attrib_edge_convexity-kcp-attrib $-1 -1 $598 $-1 $403 2 #
vertex $-1 -1 $-1 $512 $599 #
straight-curve $-1 -1 $-1 -2 6 0 0 0 -1 I I #
model_id-kcp-attrib $-1 -1 $-1 $-1 $404 1 1021499786 1021499786 -633470975 11 #
plane-surface $-1 -1 $-1 -2 6 0 0 -1 0 -1 0 0 forward_v I I I I #
convexity-sys-attrib $-1 -1 $-1 $407 $266 #
point $-1 -1 $-1 -4.0999999999999996 6 -0.5 #
attrib_edge_convexity-kcp-attrib $-1 -1 $600 $-1 $413 1 #
vertex $-1 -1 $-1 $413 $601 #
straight-curve $-1 -1 $-1 11.399999999999999 -2 0 -1 0 0 I I #
convexity-sys-attrib $-1 -1 $-1 $414 $272 #
point $-1 -1 $-1 11.399999999999999 -2 0 #
coedge $-1 -1 $-1 $432 $427 $423 $540 forward $420 $-1 #
edge $602 -1 $-1 $429 -5.75 $541 2.25 $423 $603 forward @7 unknown #
vertex $-1 -1 $-1 $436 $604 #
straight-curve $-1 -1 $-1 5.7499999999999991 -0.5 -0.25 1 0 0 I I #
point $-1 -1 $-1 7.7499999999999991 -0.5 -0.25 #
convexity-sys-attrib $-1 -1 $-1 $-1 $428 #
straight-curve $-1 -1 $-1 5.75 7.5 0 0 0 -1 I I #
point $-1 -1 $-1 5.75 7.5 -0.25 #
convexity-sys-attrib $-1 -1 $-1 $-1 $436 #
straight-curve $-1 -1 $-1 5.75 -0.5 0.125 0 0 1 I I #
straight-curve $-1 -1 $-1 -8.75 7.5 0 0 0 -1 I I #
point $-1 -1 $-1 -8.75 -7.5 -0.25 #
straight-curve $-1 -1 $-1 -8.75 0 -0.25 0 1 0 I I #
point $-1 -1 $-1 -8.75 7.5 -0.25 #
coedge $-1 -1 $-1 $467 $462 $458 $554 forward $455 $-1 #
edge $605 -1 $-1 $464 -7 $555 6 $458 $606 forward @7 unknown #
vertex $-1 -1 $-1 $471 $607 #
straight-curve $-1 -1 $-1 -5.6499999999999995 5.5 -0.25 -1 0 0 I I #
point $-1 -1 $-1 -7.7499999999999991 5.5 -0.25 #
convexity-sys-attrib $-1 -1 $-1 $-1 $463 #
straight-curve $-1 -1 $-1 -5.6499999999999986 -7.5 0 0 0 -1 I I #
point $-1 -1 $-1 -5.6499999999999986 -7.5 -0.25 #
convexity-sys-attrib $-1 -1 $-1 $-1 $471 #
straight-curve $-1 -1 $-1 -5.6499999999999986 5.5 0.125 0 0 1 I I #
coedge $-1 -1 $-1 $486 $481 $477 $564 forward $474 $-1 #
edge $608 -1 $-1 $483 -5 $565 0 $477 $609 forward @7 unknown #
vertex $-1 -1 $-1 $490 $610 #
straight-curve $-1 -1 $-1 3.3500000000000005 -2.5 0.25 1 0 0 I I #
point $-1 -1 $-1 7.7499999999999991 -2.5 0.25 #
convexity-sys-attrib $-1 -1 $-1 $-1 $482 #
straight-curve $-1 -1 $-1 3.3500000000000014 -7.5 0 0 0 1 I I #
point $-1 -1 $-1 3.3500000000000014 -7.5 0.25 #
convexity-sys-attrib $-1 -1 $-1 $-1 $490 #
straight-curve $-1 -1 $-1 3.3500000000000014 -2.5 0.125 0 0 -1 I I #
model_id-kcp-attrib $-1 -1 $-1 $-1 $494 1 1021499786 1021499786 -633470975 10 #
plane-surface $-1 -1 $-1 -2 -7 0 -1 0 0 0 1 0 forward_v I I I I #
coedge $-1 -1 $-1 $499 $497 $611 $612 reversed $373 $-1 #
edge $613 -1 $-1 $521 0 $614 0.5 $497 $615 forward @7 unknown #
coedge $-1 -1 $-1 $611 $501 $498 $578 forward $250 $-1 #
edge $616 -1 $-1 $504 0 $580 4.3999999999999986 $577 $617 forward @7 unknown #
attrib_edge_convexity-kcp-attrib $-1 -1 $618 $-1 $500 2 #
vertex $-1 -1 $-1 $612 $619 #
straight-curve $-1 -1 $-1 7 -2 0 0 0 -1 I I #
ellipse-curve $-1 -1 $-1 11.4 -1 -0.5 0 0 -1 -1.7763568394002505e-015 1 0 1 I I #
convexity-sys-attrib $-1 -1 $-1 $503 $378 #
point $-1 -1 $-1 11.399999999999999 -2 -0.5 #
convexity-sys-attrib $-1 -1 $-1 $506 $380 #
coedge $-1 -1 $-1 $511 $611 $592 $620 forward $250 $-1 #
edge $621 -1 $-1 $596 0 $528 13 $511 $622 forward @7 unknown #
attrib_edge_convexity-kcp-attrib $-1 -1 $623 $-1 $512 1 #
straight-curve $-1 -1 $-1 -2 6 -0.5 -1 0 0 I I #
attrib_edge_convexity-kcp-attrib $-1 -1 $624 $-1 $517 1 #
straight-curve $-1 -1 $-1 7 -2 0 0 -1 0 I I #
coedge $-1 -1 $-1 $519 $518 $586 $620 reversed $495 $-1 #
convexity-sys-attrib $-1 -1 $-1 $520 $395 #
point $-1 -1 $-1 7 -7 0 #
attrib_edge_convexity-kcp-attrib $-1 -1 $625 $-1 $524 1 #
vertex $-1 -1 $-1 $587 $626 #
straight-curve $-1 -1 $-1 -2 -7 0 0 0 -1 I I #
convexity-sys-attrib $-1 -1 $-1 $527 $403 #
point $-1 -1 $-1 -2 6 -0.5 #
convexity-sys-attrib $-1 -1 $-1 $534 $413 #
point $-1 -1 $-1 7 -2 0 #
convexity-sys-attrib $-1 -1 $-1 $-1 $540 #
straight-curve $-1 -1 $-1 5.75 1.75 -0.25 0 -1 0 I I #
point $-1 -1 $-1 5.7499999999999991 -0.5 -0.25 #
convexity-sys-attrib $-1 -1 $-1 $-1 $554 #
straight-curve $-1 -1 $-1 -5.6499999999999986 -0.5 -0.25 0 1 0 I I #
point $-1 -1 $-1 -5.6499999999999995 5.5 -0.25 #
convexity-sys-attrib $-1 -1 $-1 $-1 $564 #
straight-curve $-1 -1 $-1 3.3500000000000014 -2.5 0.25 0 1 0 I I #
point $-1 -1 $-1 3.3500000000000005 -2.5 0.25 #
coedge $-1 -1 $-1 $586 $577 $575 $612 forward $250 $-1 #
edge $627 -1 $-1 $580 0 $614 5 $611 $628 forward @7 unknown #
attrib_edge_convexity-kcp-attrib $-1 -1 $629 $-1 $576 1 #
vertex $-1 -1 $-1 $620 $630 #
straight-curve $-1 -1 $-1 7 -7 0 0 0 -1 I I #
attrib_edge_convexity-kcp-attrib $-1 -1 $631 $-1 $578 1 #
straight-curve $-1 -1 $-1 11.399999999999999 -2 -0.5 -1 0 0 I I #
convexity-sys-attrib $-1 -1 $-1 $579 $500 #
point $-1 -1 $-1 7 -2 -0.5 #
edge $-1 -1 $-1 $614 0 $596 9 $586 $632 forward @7 unknown #
attrib_edge_convexity-kcp-attrib $-1 -1 $633 $-1 $587 1 #
straight-curve $-1 -1 $-1 -2 -7 -0.5 0 1 0 I I #
convexity-sys-attrib $-1 -1 $-1 $588 $512 #
convexity-sys-attrib $-1 -1 $-1 $590 $517 #
convexity-sys-attrib $-1 -1 $-1 $595 $524 #
point $-1 -1 $-1 -2 -7 -0.5 #
attrib_edge_convexity-kcp-attrib $-1 -1 $634 $-1 $612 1 #
straight-curve $-1 -1 $-1 7 -2 -0.5 0 -1 0 I I #
convexity-sys-attrib $-1 -1 $-1 $613 $576 #
point $-1 -1 $-1 7 -7 -0.5 #
convexity-sys-attrib $-1 -1 $-1 $616 $578 #
straight-curve $-1 -1 $-1 7 -7 -0.5 -1 0 0 I I #
convexity-sys-attrib $-1 -1 $-1 $621 $587 #
convexity-sys-attrib $-1 -1 $-1 $627 $612 #
End-of-ACIS-data 