600 0 1 0           
99 GICL Pro/E ACIS Translator - Source: f:/data5/repository/PTC/V18/fly_small18/door_memory_.prt - 6 0 13 ACIS 6.0.3 NT 24 Thu Apr 04 10:01:09 2002 
1 9.9999999999999995e-007 1e-010 
body $-1 $1 $-1 $-1 #
lump $-1 $-1 $2 $0 #
shell $-1 $-1 $-1 $3 $-1 $1 #
face $-1 $4 $5 $2 $-1 $6 reversed single #
face $-1 $7 $8 $2 $-1 $9 forward single #
loop $-1 $-1 $10 $3 #
plane-surface $-1 0 -13.5 0 0 1 0 1 0 0 forward_v I I I I #
face $-1 $11 $12 $2 $-1 $13 forward single #
loop $-1 $-1 $14 $4 #
plane-surface $-1 114 8.5 -72 0 0 -1 -1 0 0 forward_v I I I I #
coedge $-1 $15 $16 $17 $18 reversed $5 $-1 #
face $-1 $19 $20 $2 $-1 $21 reversed single #
loop $-1 $-1 $22 $7 #
plane-surface $-1 96.5 -10.199999999999999 -70.5 0 1 0 1 0 0 forward_v I I I I #
coedge $-1 $23 $24 $25 $26 forward $8 $-1 #
coedge $-1 $27 $10 $28 $29 reversed $5 $-1 #
coedge $-1 $10 $30 $31 $32 reversed $5 $-1 #
coedge $-1 $33 $34 $10 $18 forward $8 $-1 #
edge $-1 $35 0 $36 0.5 $10 $37 forward 7 unknown #
face $-1 $38 $39 $2 $-1 $40 forward single #
loop $-1 $-1 $41 $11 #
plane-surface $-1 114 8.5 -70.5 0 0 -1 -1 0 0 forward_v I I I I #
coedge $-1 $42 $43 $44 $45 forward $12 $-1 #
coedge $-1 $34 $14 $46 $47 forward $8 $-1 #
coedge $-1 $14 $48 $49 $50 reversed $8 $-1 #
coedge $-1 $43 $51 $14 $26 reversed $12 $-1 #
edge $-1 $52 0 $53 3.5 $14 $54 forward 7 unknown #
coedge $-1 $55 $15 $56 $57 forward $5 $-1 #
coedge $-1 $58 $59 $15 $29 forward $60 $-1 #
edge $-1 $61 0 $35 1.5 $15 $62 forward 7 unknown #
coedge $-1 $16 $63 $64 $65 reversed $5 $-1 #
coedge $-1 $66 $67 $16 $32 forward $68 $-1 #
edge $-1 $36 0 $69 57.5 $16 $70 forward 7 unknown #
coedge $-1 $48 $17 $67 $71 forward $8 $-1 #
coedge $-1 $17 $23 $58 $72 forward $8 $-1 #
vertex $-1 $29 $73 #
vertex $-1 $32 $74 #
straight-curve $-1 97 -13.5 -72 -1 0 0 I I #
face $-1 $75 $76 $2 $-1 $77 reversed single #
loop $-1 $-1 $78 $19 #
plane-surface $-1 0 -12.5 0 0 1 0 1 0 0 forward_v I I I I #
coedge $-1 $79 $80 $81 $82 forward $20 $-1 #
coedge $-1 $83 $22 $84 $85 forward $12 $-1 #
coedge $-1 $22 $25 $86 $87 reversed $12 $-1 #
coedge $-1 $88 $89 $22 $45 reversed $20 $-1 #
edge $-1 $90 0 $91 2.4686269665968581 $44 $92 forward 7 unknown #
coedge $-1 $93 $94 $23 $47 reversed $95 $-1 #
edge $-1 $53 0 $96 0.29999999999999538 $23 $97 forward 7 unknown #
coedge $-1 $24 $33 $98 $99 reversed $8 $-1 #
coedge $-1 $100 $86 $24 $50 forward $101 $-1 #
edge $-1 $52 0 $102 1.5707963267946123 $24 $103 forward 7 unknown #
coedge $-1 $25 $83 $93 $104 forward $12 $-1 #
vertex $-1 $50 $105 #
vertex $-1 $47 $106 #
straight-curve $-1 96.5 -10.199999999999999 -72 1 0 0 I I #
coedge $-1 $63 $27 $107 $108 reversed $5 $-1 #
coedge $-1 $109 $110 $27 $57 reversed $111 $-1 #
edge $-1 $61 0 $112 0.063508326896354106 $27 $113 forward 7 unknown #
coedge $-1 $114 $28 $34 $72 reversed $60 $-1 #
coedge $-1 $28 $114 $109 $115 forward $60 $-1 #
loop $-1 $-1 $28 $116 #
vertex $-1 $57 $117 #
straight-curve $-1 97 -13.5 -70.5 0 0 -1 I I #
coedge $-1 $30 $55 $118 $119 forward $5 $-1 #
coedge $-1 $120 $121 $30 $65 forward $122 $-1 #
edge $-1 $69 0 $123 0.5 $30 $124 forward 7 unknown #
coedge $-1 $125 $31 $121 $126 reversed $68 $-1 #
coedge $-1 $31 $127 $33 $71 reversed $68 $-1 #
loop $-1 $-1 $67 $128 #
vertex $-1 $32 $129 #
straight-curve $-1 96.5 -13.5 -72 0 0 1 I I #
edge $-1 $36 0 $130 2.3000000000000007 $67 $131 forward 7 unknown #
edge $-1 $96 -9.9475983006406186e-016 $35 0.876298061168304 $34 $132 forward 7 unknown #
point $-1 97 -13.5 -72 #
point $-1 96.5 -13.5 -72 #
face $-1 $133 $134 $2 $-1 $135 reversed single #
loop $-1 $-1 $136 $38 #
cone-surface $-1 95.298437881283576 -8.7984378812835757 -5 0 0 -1 0 4 0 1 I I 0 1 4 forward I I I I #
coedge $-1 $137 $138 $139 $140 forward $39 $-1 #
coedge $-1 $89 $41 $141 $142 forward $20 $-1 #
coedge $-1 $41 $143 $144 $145 reversed $20 $-1 #
coedge $-1 $146 $137 $41 $82 reversed $39 $-1 #
edge $-1 $147 0 $148 0.24425133880889405 $81 $149 forward 7 unknown #
coedge $-1 $51 $42 $150 $151 forward $12 $-1 #
coedge $-1 $152 $153 $42 $85 reversed $154 $-1 #
edge $-1 $91 0 $155 1.006310218936207 $84 $156 forward 7 unknown #
coedge $-1 $49 $157 $43 $87 forward $101 $-1 #
edge $-1 $90 0 $52 1.5 $43 $158 forward 7 unknown #
coedge $-1 $143 $44 $157 $159 reversed $20 $-1 #
coedge $-1 $44 $79 $160 $161 reversed $20 $-1 #
vertex $-1 $159 $162 #
vertex $-1 $161 $163 #
straight-curve $-1 96.5 -10.199999999999999 -70.5 1 0 0 I I #
coedge $-1 $164 $46 $51 $104 reversed $95 $-1 #
coedge $-1 $46 $164 $114 $165 forward $95 $-1 #
loop $-1 $-1 $94 $166 #
vertex $-1 $72 $167 #
straight-curve $-1 100 -10.199999999999999 -72 0 -1 0 I I #
coedge $-1 $168 $169 $48 $99 forward $170 $-1 #
edge $-1 $102 0 $130 1.5707963267946905 $48 $171 forward 7 unknown #
coedge $-1 $172 $49 $169 $173 forward $101 $-1 #
loop $-1 $-1 $49 $174 #
vertex $-1 $50 $175 #
ellipse-curve $-1 96.499999999999929 -10.70000000000007 -72 0 0 -1 7.1054273576010019e-014 0.50000000000007105 0 1 I I #
edge $-1 $176 0 $53 1.5 $51 $177 forward 7 unknown #
point $-1 96.5 -10.199999999999999 -72 #
point $-1 100 -10.199999999999999 -72 #
coedge $-1 $178 $179 $55 $108 forward $180 $-1 #
edge $-1 $181 0 $112 0.25268025514210712 $55 $182 forward 7 unknown #
coedge $-1 $183 $56 $59 $115 reversed $111 $-1 #
coedge $-1 $56 $184 $178 $185 forward $111 $-1 #
loop $-1 $-1 $110 $186 #
vertex $-1 $108 $187 #
straight-curve $-1 97 -13.5 -70.5 -1 0 0 I I #
coedge $-1 $59 $58 $94 $165 reversed $60 $-1 #
edge $-1 $188 0 $61 0.87629806116834064 $109 $189 forward 7 unknown #
face $-1 $166 $60 $2 $-1 $190 forward single #
point $-1 97 -13.5 -70.5 #
coedge $-1 $191 $192 $63 $119 reversed $193 $-1 #
edge $-1 $181 0 $123 55.5 $63 $194 forward 7 unknown #
coedge $-1 $195 $64 $192 $196 forward $122 $-1 #
coedge $-1 $64 $197 $66 $126 forward $122 $-1 #
loop $-1 $-1 $197 $198 #
vertex $-1 $65 $199 #
straight-curve $-1 96.5 -13.5 -14.5 1 0 0 I I #
coedge $-1 $200 $66 $201 $202 reversed $68 $-1 #
edge $-1 $203 0 $69 2.3000000000000007 $66 $204 forward 7 unknown #
coedge $-1 $67 $144 $168 $205 forward $68 $-1 #
face $-1 $198 $68 $2 $-1 $206 reversed single #
point $-1 96.5 -13.5 -14.5 #
vertex $-1 $205 $207 #
straight-curve $-1 96.5 -13.5 -72 0 1 0 I I #
ellipse-curve $-1 95.298437881283419 -8.7984378812834265 -72 0 0 -1 4.7015621187165806 -1.7015621187165735 0 1 I I #
face $-1 $208 $209 $2 $-1 $210 reversed single #
loop $-1 $-1 $211 $75 #
plane-surface $-1 99 -13.5 0 1 0 0 0 0 -1 forward_v I I I I #
coedge $-1 $212 $213 $214 $215 forward $76 $-1 #
coedge $-1 $81 $78 $216 $217 forward $39 $-1 #
coedge $-1 $78 $146 $218 $219 forward $39 $-1 #
coedge $-1 $213 $212 $78 $140 reversed $76 $-1 #
edge $-1 $220 0 $221 54 $78 $222 forward 7 unknown #
coedge $-1 $216 $223 $79 $142 reversed $224 $-1 #
edge $-1 $148 0 $225 1 $141 $226 forward 7 unknown #
coedge $-1 $80 $88 $227 $228 reversed $20 $-1 #
coedge $-1 $127 $229 $80 $145 forward $68 $-1 #
edge $-1 $147 0 $230 1.3000000000000007 $144 $231 forward 7 unknown #
coedge $-1 $138 $81 $229 $232 reversed $39 $-1 #
vertex $-1 $232 $233 #
tvertex-vertex $-1 $82 $234 1.0278725006057541e-005 #
straight-curve $-1 96.5 -12.5 -70.5 1 0 0 I I #
coedge $-1 $184 $183 $83 $151 reversed $111 $-1 #
edge $-1 $155 0 $176 0.025062814466906502 $150 $235 forward 7 unknown #
coedge $-1 $236 $84 $237 $238 reversed $154 $-1 #
coedge $-1 $84 $236 $239 $240 forward $154 $-1 #
loop $-1 $-1 $153 $241 #
vertex $-1 $240 $242 #
straight-curve $-1 98.968626966596858 -10.199999999999999 -70.5 1 0 0 I I #
coedge $-1 $86 $243 $88 $159 forward $101 $-1 #
straight-curve $-1 96.5 -10.199999999999999 -70.5 0 0 -1 I I #
edge $-1 $244 0 $90 1.5707963267948966 $88 $245 forward 7 unknown #
coedge $-1 $246 $237 $89 $161 forward $247 $-1 #
edge $-1 $91 0 $225 0.11449786732745793 $160 $248 forward 7 unknown #
point $-1 96.5 -10.199999999999999 -70.5 #
point $-1 98.968626966596858 -10.199999999999999 -70.5 #
coedge $-1 $94 $93 $183 $249 forward $95 $-1 #
edge $-1 $188 0 $96 1.5 $94 $250 forward 7 unknown #
face $-1 $241 $95 $2 $-1 $251 forward single #
point $-1 100 -10.499999999999995 -72 #
coedge $-1 $227 $98 $127 $205 reversed $170 $-1 #
coedge $-1 $98 $252 $100 $173 reversed $170 $-1 #
loop $-1 $-1 $227 $253 #
ellipse-curve $-1 96.499999999999943 -10.699999999999953 -72 0 0 -1 0.50000000000005684 -4.6185277824406512e-014 0 1 I I #
coedge $-1 $243 $100 $254 $255 reversed $101 $-1 #
edge $-1 $102 0 $256 1.5 $100 $257 forward 7 unknown #
face $-1 $258 $101 $2 $-1 $259 forward single #
point $-1 97 -10.699999999999999 -72 #
vertex $-1 $151 $260 #
straight-curve $-1 100 -10.199999999999999 -70.5 0 0 -1 I I #
coedge $-1 $261 $107 $110 $185 reversed $180 $-1 #
coedge $-1 $107 $261 $191 $262 reversed $180 $-1 #
loop $-1 $-1 $261 $263 #
vertex $-1 $119 $264 #
ellipse-curve $-1 95 -13.5 -70 0 1 0 2 0 0 1 I I #
coedge $-1 $150 $109 $164 $249 reversed $111 $-1 #
coedge $-1 $110 $150 $265 $266 forward $111 $-1 #
edge $-1 $267 0 $112 1 $178 $268 forward 7 unknown #
face $-1 $116 $111 $2 $-1 $269 reversed single #
point $-1 96.936491673103646 -13.5 -70.500000000000043 #
vertex $-1 $249 $270 #
ellipse-curve $-1 95.298437881283576 -8.7984378812835757 -70.5 0 0 -1 4.7015621187164243 -1.7015621187164243 0 1 I I #
cone-surface $-1 95.298437881283576 -8.7984378812835757 -70.5 0 0 -1 -5 0 0 1 I I 0 1 5 forward I I I I #
coedge $-1 $271 $118 $179 $262 forward $193 $-1 #
coedge $-1 $118 $271 $120 $196 reversed $193 $-1 #
loop $-1 $-1 $191 $272 #
straight-curve $-1 97 -13.5 -70 0 0 1 I I #
coedge $-1 $273 $120 $274 $275 forward $122 $-1 #
edge $-1 $123 0 $276 0.87629806116832309 $192 $277 forward 7 unknown #
coedge $-1 $121 $278 $279 $280 reversed $122 $-1 #
face $-1 $281 $122 $2 $-1 $282 forward single #
point $-1 97 -13.5 -14.5 #
coedge $-1 $229 $125 $283 $284 forward $68 $-1 #
coedge $-1 $279 $285 $125 $202 forward $286 $-1 #
edge $-1 $287 0 $203 1.5 $125 $288 forward 7 unknown #
vertex $-1 $202 $289 #
straight-curve $-1 96.5 -11.199999999999999 -14.5 0 -1 0 I I #
edge $-1 $230 0 $130 1.5 $127 $290 forward 7 unknown #
plane-surface $-1 96.5 -13.5 -72 1 0 0 0 0 1 forward_v I I I I #
point $-1 96.5 -11.199999999999999 -72 #
face $-1 $291 $292 $2 $-1 $293 forward single #
loop $-1 $-1 $294 $133 #
plane-surface $-1 114 8.5 -16 0 -1 0 0 0 -1 forward_v I I I I #
coedge $-1 $295 $296 $297 $298 reversed $134 $-1 #
coedge $-1 $139 $136 $299 $300 reversed $76 $-1 #
coedge $-1 $136 $139 $301 $302 reversed $76 $-1 #
coedge $-1 $303 $295 $136 $215 reversed $134 $-1 #
edge $-1 $304 5.8434141127482353e-032 $305 54 $214 $306 forward 7 unknown #
coedge $-1 $299 $141 $137 $217 reversed $224 $-1 #
edge $-1 $221 0 $148 0.2791646088773253 $137 $307 forward 7 unknown #
coedge $-1 $283 $301 $138 $219 reversed $308 $-1 #
edge $-1 $309 0 $220 0.31449786732753182 $138 $310 forward 7 unknown #
vertex $-1 $219 $311 #
vertex $-1 $217 $312 #
straight-curve $-1 96.814497867327532 -12.5 -16 -5.26327952414889e-016 0 -1 I I #
coedge $-1 $141 $299 $246 $313 reversed $224 $-1 #
loop $-1 $-1 $216 $314 #
tvertex-vertex $-1 $313 $315 1.4950141557650947e-005 #
intcurve-curve $-1 forward { surfintcur full nurbs 3 open 7 
	0 3 0.16100322524280763 1 0.32433587898390714 1 0.48985083373390864 1 0.65754678568580638 1 
	0.82766380913607573 1 1 3 
	96.744251338808894 -12.5 -70.499989777494818 1 
	96.864562241348082 -12.454315735754792 -70.499994876510868 0.99999999999999989 
	97.112404415653998 -12.341112605216836 -70.5000024296032 1.0000000000000002 
	97.511156679950645 -12.109529613972365 -70.499999278628934 1 
	97.916655695202024 -11.800796702832985 -70.500000414027781 1 
	98.311293638930536 -11.407572410312822 -70.499999060778634 1.0000000000000002 
	98.68044399135232 -10.914159373787582 -70.500003404975857 0.99999999999999978 
	98.878882708763555 -10.525339446698741 -70.499992599576458 1 
	98.968628835336801 -10.314497867327457 -70.499985167112769 1 
	0.001 
	torus 95 -8.7984378812835757 -70 0 1 0 0.29843788128354642 4 -1 0 0 forward_v I I I I 
	plane 114 8.5 -70.5 0 0 -1 -1 0 0 forward_v I I I I 
	nullbs 
	nullbs 
	I I 
	0 
	0 
	0 
	} I I #
coedge $-1 $316 $168 $143 $228 forward $170 $-1 #
edge $-1 $230 0 $244 1.5707963267948966 $143 $317 forward 7 unknown #
coedge $-1 $144 $200 $146 $232 forward $68 $-1 #
vertex $-1 $205 $318 #
straight-curve $-1 96.5 -12.5 -70.5 0 1 0 I I #
edge $-1 $309 0 $147 54.5 $146 $319 forward 7 unknown #
point $-1 96.5 -12.5 -70.5 #
point $-1 96.744251338808894 -12.5 -70.499989777494818 #
straight-curve $-1 99.974937185533065 -10.199999999999999 -70.5 1 0 0 I I #
coedge $-1 $153 $152 $320 $321 forward $154 $-1 #
coedge $-1 $160 $322 $152 $238 forward $247 $-1 #
edge $-1 $323 0 $91 18.199999999999999 $237 $324 forward 7 unknown #
coedge $-1 $325 $265 $153 $240 reversed $326 $-1 #
edge $-1 $327 0 $155 18.199999999999999 $239 $328 forward 7 unknown #
face $-1 $329 $154 $2 $-1 $330 reversed single #
point $-1 99.974937185533065 -10.199999999999999 -70.5 #
coedge $-1 $157 $172 $316 $331 reversed $101 $-1 #
vertex $-1 $228 $332 #
ellipse-curve $-1 96.5 -10.699999999999999 -70.5 0 0 -1 -0.5 0 0 1 I I #
coedge $-1 $333 $160 $223 $313 forward $247 $-1 #
loop $-1 $-1 $237 $329 #
straight-curve $-1 98.968626966596858 -10.199999999999999 -70.5 0 -1 0 I I #
edge $-1 $176 0 $188 0.30000000000000071 $183 $334 forward 7 unknown #
straight-curve $-1 100 -10.499999999999995 -70.5 0 0 -1 I I #
plane-surface $-1 100 -10.199999999999999 -70.5 1 5.9211894646675578e-015 0 5.9211894646675578e-015 -1 0 forward_v I I I I #
coedge $-1 $169 $316 $335 $336 reversed $170 $-1 #
face $-1 $174 $170 $2 $-1 $337 forward single #
coedge $-1 $335 $335 $172 $255 forward $338 $-1 #
edge $-1 $339 0 $256 3.1415926535897931 $254 $340 forward 7 unknown #
vertex $-1 $255 $341 #
straight-curve $-1 97 -10.699999999999999 -72 0 0 -1 I I #
face $-1 $342 $338 $2 $-1 $343 forward single #
cone-surface $-1 96.5 -10.699999999999999 -70.5 0 0 -1 -0.5 0 0 1 I I 0 1 0.5 forward I I I I #
point $-1 99.999999999999972 -10.199999999999999 -70.5 #
coedge $-1 $179 $178 $344 $345 forward $180 $-1 #
edge $-1 $181 5.3290705182007411e-015 $346 0.87629806116836173 $191 $347 forward 7 unknown #
face $-1 $348 $180 $2 $-1 $349 forward single #
point $-1 97 -13.5 -70 #
coedge $-1 $239 $344 $184 $266 reversed $326 $-1 #
edge $-1 $155 0 $267 0.29999999999992255 $265 $350 forward 7 unknown #
tvertex-vertex $-1 $266 $351 1.0233474238349684e-005 #
intcurve-curve $-1 forward { surfintcur full nurbs 3 open 9 
	0 3 0.12908040478604602 1 0.25709321800398799 1 0.38383946583704531 1 0.50933114432569737 1 
	0.63374341423845826 1 0.75702575411756468 1 0.87912268615155964 1 1 3 
	99.974938208870071 -10.499999999999922 -70.499989817820648 1 
	99.889247191588211 -10.73004870155731 -70.499994915957274 0.99999999999999989 
	99.697229959254017 -11.161739749317219 -70.50000234016008 1.0000000000000004 
	99.335467153881211 -11.732435238642438 -70.499999381818952 1 
	98.937675319966317 -12.210581440728514 -70.500000163178782 0.99999999999999978 
	98.522987513247273 -12.602884503374753 -70.499999956861799 1 
	98.100450603294973 -12.922502566745393 -70.500000011408062 0.99999999999999978 
	97.686732213788872 -13.173999254948647 -70.499999996972136 1 
	97.293383789818208 -13.364959259047644 -70.500000000852268 1 
	97.05227836885112 -13.460656474242789 -70.500000000000014 1 
	96.936491673103646 -13.5 -70.500000000000043 1 
	0.001 
	plane 114 8.5 -70.5 0 0 -1 -1 0 0 forward_v I I I I 
	torus 95 -8.7984378812835757 -70 0 1 0 0.29843788128354642 5 -1 0 0 forward_v I I I I 
	nullbs 
	nullbs 
	I I 
	0 
	0 
	0 
	} I I #
plane-surface $-1 114 8.5 -70.5 0 0 -1 -1 0 0 forward_v I I I I #
point $-1 100 -10.5 -70.5 #
coedge $-1 $192 $191 $352 $353 forward $193 $-1 #
face $-1 $263 $193 $2 $-1 $354 forward single #
coedge $-1 $278 $195 $355 $356 forward $122 $-1 #
coedge $-1 $352 $357 $195 $275 reversed $292 $-1 #
edge $-1 $276 0 $358 0.30000000000000071 $274 $359 forward 7 unknown #
vertex $-1 $353 $360 #
ellipse-curve $-1 95.29843788128349 -8.7984378812835313 -14.5 0 0 1 1.7015621187165095 -4.7015621187164687 0 1 I I #
coedge $-1 $197 $273 $361 $362 reversed $122 $-1 #
coedge $-1 $363 $201 $197 $280 forward $286 $-1 #
edge $-1 $203 0 $364 1.570796326794623 $197 $365 forward 7 unknown #
face $-1 $366 $286 $2 $-1 $367 forward single #
plane-surface $-1 114 -13.5 -14.5 0 0 1 1 0 0 forward_v I I I I #
coedge $-1 $368 $218 $200 $284 reversed $308 $-1 #
edge $-1 $287 0 $309 1.3000000000000007 $200 $369 forward 7 unknown #
coedge $-1 $201 $370 $368 $371 forward $286 $-1 #
loop $-1 $-1 $363 $281 #
vertex $-1 $284 $372 #
straight-curve $-1 96.5 -11.199999999999999 -16 0 0 1 I I #
point $-1 96.5 -11.199999999999999 -14.5 #
straight-curve $-1 96.5 -11.199999999999999 -70.5 0 0 -1 I I #
face $-1 $373 $374 $2 $-1 $375 reversed single #
loop $-1 $-1 $376 $208 #
plane-surface $-1 100 -13.5 0 1 0 0 0 0 -1 forward_v I I I I #
coedge $-1 $377 $378 $379 $380 reversed $209 $-1 #
coedge $-1 $214 $211 $333 $381 forward $134 $-1 #
coedge $-1 $211 $382 $383 $384 forward $134 $-1 #
coedge $-1 $378 $385 $211 $298 forward $209 $-1 #
edge $-1 $386 0 $387 53.5 $211 $388 forward 7 unknown #
coedge $-1 $223 $216 $212 $300 forward $224 $-1 #
edge $-1 $221 0 $305 0.79333303698281277 $212 $389 forward 7 unknown #
coedge $-1 $218 $390 $213 $302 forward $308 $-1 #
edge $-1 $304 0 $220 0.79333303698279178 $213 $391 forward 7 unknown #
coedge $-1 $382 $214 $390 $392 forward $134 $-1 #
vertex $-1 $392 $393 #
vertex $-1 $215 $394 #
straight-curve $-1 99 -10.314497867327526 -16 0 -3.2895497025930562e-017 -1 I I #
ellipse-curve $-1 95 -12.5 -70 0 1 0 1.8144978673275034 0 0 1 I I #
loop $-1 $-1 $390 $395 #
vertex $-1 $219 $396 #
straight-curve $-1 96.5 -12.5 -16 1 0 0 I I #
point $-1 96.814497867327532 -12.5 -16 #
point $-1 96.814497867327503 -12.5 -70 #
edge $-1 $225 0 $305 0.12532409363267685 $246 $397 forward 7 unknown #
face $-1 $398 $224 $2 $-1 $399 reversed single #
point $-1 98.968628835336801 -10.314497867327457 -70.499985167112769 #
coedge $-1 $252 $227 $243 $331 forward $170 $-1 #
ellipse-curve $-1 96.5 -10.699999999999999 -70.5 0 0 -1 0 -0.5 0 1 I I #
point $-1 96.5 -11.199999999999999 -70.5 #
straight-curve $-1 96.5 -12.5 -16 0 0 -1 I I #
coedge $-1 $400 $401 $236 $321 reversed $402 $-1 #
edge $-1 $323 0 $327 1.006310218936207 $236 $403 forward 7 unknown #
coedge $-1 $237 $333 $400 $404 forward $247 $-1 #
vertex $-1 $404 $405 #
straight-curve $-1 98.968626966596858 8 -70.5 0 -1 0 I I #
coedge $-1 $406 $239 $401 $407 forward $326 $-1 #
loop $-1 $-1 $406 $348 #
vertex $-1 $407 $408 #
straight-curve $-1 99.974937185533065 8 -70.5 0 -1 0 I I #
face $-1 $314 $247 $2 $-1 $409 reversed single #
plane-surface $-1 114 8.5 -70.5 0 0 1 0 -1 0 forward_v I I I I #
edge $-1 $244 0 $339 3 $243 $410 forward 7 unknown #
point $-1 96 -10.699999999999999 -70.5 #
coedge $-1 $322 $246 $295 $381 reversed $247 $-1 #
straight-curve $-1 100 -10.199999999999999 -70.5 0 -1 0 I I #
coedge $-1 $254 $254 $252 $336 forward $338 $-1 #
edge $-1 $256 0 $339 3.1415926535897931 $335 $411 forward 7 unknown #
cone-surface $-1 96.5 -10.699999999999999 -70.5 0 0 -1 -0.5 0 0 1 I I 0 1 0.5 forward I I I I #
loop $-1 $-1 $335 $258 #
vertex $-1 $255 $412 #
ellipse-curve $-1 96.5 -10.699999999999999 -73.5 0 0 -1 -0.5 0 0 1 I I #
point $-1 97 -10.699999999999999 -73.5 #
face $-1 $413 $414 $2 $-1 $415 forward single #
plane-surface $-1 114 8.5 -73.5 0 0 -1 -1 0 0 forward_v I I I I #
coedge $-1 $265 $406 $261 $345 reversed $326 $-1 #
edge $-1 $267 0 $346 0.10016537446671282 $344 $416 forward 7 unknown #
vertex $-1 $417 $418 #
ellipse-curve $-1 95.298437881283562 -8.7984378812835704 -70 0 0 1 1.7015621187164101 -4.7015621187164296 0 1 I I #
face $-1 $186 $326 $2 $-1 $419 forward single #
torus-surface $-1 95 -8.7984378812835757 -70 0 1 0 0.29843788128354642 5 -1 0 0 forward_v I I I I #
straight-curve $-1 99.974937185533065 -10.199999999999999 -70.5 0 -1 0 I I #
point $-1 99.974938208870071 -10.499999999999922 -70.499989817820648 #
coedge $-1 $420 $274 $271 $353 reversed $292 $-1 #
edge $-1 $346 0 $276 55.5 $352 $421 forward 7 unknown #
cone-surface $-1 95.298437881283576 -8.7984378812835757 -5 0 0 -1 0 5 0 1 I I 0 1 5 forward I I I I #
coedge $-1 $422 $423 $273 $356 reversed $424 $-1 #
edge $-1 $358 0 $425 3.4999999999999716 $273 $426 forward 7 unknown #
coedge $-1 $274 $376 $422 $427 forward $292 $-1 #
vertex $-1 $275 $428 #
straight-curve $-1 100 -10.5 -14.5 0 1 0 I I #
point $-1 99.999999999999972 -10.5 -14.5 #
coedge $-1 $429 $430 $278 $362 forward $431 $-1 #
edge $-1 $364 0 $425 1.5707963267946727 $278 $432 forward 7 unknown #
coedge $-1 $433 $279 $430 $434 forward $286 $-1 #
vertex $-1 $362 $435 #
ellipse-curve $-1 96.499999999999929 -10.699999999999934 -14.5 0 0 1 7.1054273576010019e-014 -0.50000000000006573 0 1 I I #
face $-1 $436 $431 $2 $-1 $437 forward single #
cone-surface $-1 96.5 -10.699999999999999 -16 0 0 1 0.5 0 0 1 I I 0 1 0.5 forward I I I I #
coedge $-1 $438 $283 $285 $371 reversed $308 $-1 #
straight-curve $-1 96.5 -11.199999999999999 -16 0 -1 0 I I #
coedge $-1 $285 $433 $439 $440 reversed $286 $-1 #
edge $-1 $441 0 $287 1.5707963267948966 $368 $442 forward 7 unknown #
point $-1 96.5 -11.199999999999999 -16 #
face $-1 $395 $424 $2 $-1 $443 forward single #
loop $-1 $-1 $444 $291 #
plane-surface $-1 114 -13.5 -16 0 0 -1 0 1 0 forward_v I I I I #
coedge $-1 $357 $445 $446 $447 reversed $292 $-1 #
coedge $-1 $448 $294 $449 $450 reversed $209 $-1 #
coedge $-1 $294 $297 $451 $452 forward $209 $-1 #
coedge $-1 $445 $453 $294 $380 forward $292 $-1 #
edge $-1 $454 0 $455 17.75 $379 $456 forward 7 unknown #
edge $-1 $386 0 $305 18.814497867327518 $295 $457 forward 7 unknown #
coedge $-1 $296 $303 $444 $458 forward $134 $-1 #
coedge $-1 $459 $451 $296 $384 reversed $414 $-1 #
edge $-1 $460 0 $387 1.5707963267948966 $296 $461 forward 7 unknown #
coedge $-1 $297 $462 $463 $464 reversed $209 $-1 #
vertex $-1 $381 $465 #
vertex $-1 $384 $466 #
straight-curve $-1 99 8.5 -70 0 0 1 I I #
ellipse-curve $-1 95.298437881283576 -8.7984378812835864 -70 0 0 1 1.5160599860439277 -3.7015621187164136 0 1 I I #
coedge $-1 $301 $467 $303 $392 reversed $308 $-1 #
ellipse-curve $-1 95.298437881283533 -8.7984378812835544 -16 0 0 -1 3.7015621187164385 -1.5160599860439739 0 1 I I #
edge $-1 $304 -1.7763568394002505e-015 $468 0.1144978673275272 $303 $469 forward 7 unknown #
point $-1 98.999999999999972 -10.314497867327528 -16 #
point $-1 98.999999999999986 -10.314497867327516 -70 #
face $-1 $128 $308 $2 $-1 $470 reversed single #
point $-1 96.5 -12.5 -16 #
ellipse-curve $-1 95 -10.314497867327471 -70 3.5248504873458948e-015 -1 -4.4407603559973523e-016 3.9686288353368013 1.4210854715202004e-014 -0.49998516711276864 1 I I #
face $-1 $253 $402 $2 $-1 $471 forward single #
torus-surface $-1 95 -8.7984378812835757 -70 0 1 0 0.29843788128354642 4 -1 0 0 forward_v I I I I #
coedge $-1 $463 $320 $322 $404 reversed $402 $-1 #
coedge $-1 $320 $463 $325 $407 reversed $402 $-1 #
loop $-1 $-1 $400 $398 #
straight-curve $-1 98.968626966596887 8 -70.5 1 0 0 I I #
edge $-1 $386 0 $323 0.99999999999999989 $322 $472 forward 7 unknown #
point $-1 98.968626966596887 8 -70.5 #
coedge $-1 $344 $325 $420 $417 forward $326 $-1 #
edge $-1 $327 0 $473 1 $325 $474 forward 7 unknown #
point $-1 99.974937185533093 8 -70.5 #
cone-surface $-1 95 13.527000660153167 -70 0 -1 0 4 0 0 1 I I 0 1 4 forward I I I I #
straight-curve $-1 96 -10.699999999999999 -70.5 0 0 -1 I I #
ellipse-curve $-1 96.5 -10.699999999999999 -73.5 0 0 -1 0.5 0 0 1 I I #
point $-1 96 -10.699999999999999 -73.5 #
face $-1 $475 $476 $2 $-1 $477 reversed single #
loop $-1 $-1 $383 $342 #
cone-surface $-1 98.998999905549056 8 -16.5 1 0 0 0 0 0.5 1 I I 0 1 0.5 forward I I I I #
ellipse-curve $-1 95 -10.499999999999911 -70 -2.1209437231008235e-015 -1 2.131584798038891e-016 4.9749382088700713 -1.0658141036401503e-014 -0.49998981782064789 1 I I #
edge $-1 $473 0 $346 18.999999999999908 $420 $478 forward 7 unknown #
point $-1 100.00000000000001 -10.499999999999909 -70 #
cone-surface $-1 95 13.527000660153167 -70 0 -1 0 5 0 0 1 I I 0 1 5 forward I I I I #
coedge $-1 $479 $352 $406 $417 reversed $292 $-1 #
straight-curve $-1 100 -10.5 -70 0 0 1 I I #
coedge $-1 $480 $355 $357 $427 reversed $424 $-1 #
coedge $-1 $355 $481 $429 $482 forward $424 $-1 #
loop $-1 $-1 $422 $373 #
vertex $-1 $362 $483 #
straight-curve $-1 99.999999999999972 -10.199999999999999 -14.5 -1 0 0 I I #
edge $-1 $484 0 $358 1.5 $357 $485 forward 7 unknown #
point $-1 99.999999999999972 -10.199999999999999 -14.5 #
coedge $-1 $486 $361 $423 $482 reversed $431 $-1 #
coedge $-1 $361 $487 $363 $434 reversed $431 $-1 #
loop $-1 $-1 $429 $366 #
ellipse-curve $-1 96.499999999999943 -10.700000000000054 -14.5 0 0 1 0.50000000000005684 5.5067062021407764e-014 0 1 I I #
coedge $-1 $370 $363 $488 $489 reversed $286 $-1 #
edge $-1 $364 0 $490 1.5 $430 $491 forward 7 unknown #
point $-1 97 -10.699999999999999 -14.5 #
face $-1 $272 $492 $2 $-1 $493 forward single #
cone-surface $-1 96.5 -10.699999999999999 -16 0 0 1 0.5 0 0 1 I I 0 1 0.5 forward I I I I #
coedge $-1 $467 $368 $486 $494 reversed $308 $-1 #
coedge $-1 $487 $486 $370 $440 forward $431 $-1 #
edge $-1 $441 0 $495 3 $439 $496 forward 7 unknown #
vertex $-1 $494 $497 #
ellipse-curve $-1 96.5 -10.699999999999999 -16 0 0 1 -0.5 0 0 1 I I #
plane-surface $-1 100 -10.199999999999999 -16 0 1 0 -1 0 0 forward_v I I I I #
coedge $-1 $498 $499 $382 $458 reversed $374 $-1 #
coedge $-1 $376 $379 $500 $501 forward $292 $-1 #
coedge $-1 $499 $498 $376 $447 forward $374 $-1 #
edge $-1 $484 0 $502 18.199999999999999 $376 $503 forward 7 unknown #
coedge $-1 $504 $377 $505 $506 reversed $209 $-1 #
coedge $-1 $507 $508 $377 $450 forward $509 $-1 #
edge $-1 $510 0 $454 1.4142135623730954 $377 $511 forward 7 unknown #
coedge $-1 $383 $500 $378 $452 reversed $414 $-1 #
edge $-1 $387 0 $455 1 $378 $512 forward 7 unknown #
coedge $-1 $379 $513 $507 $514 reversed $292 $-1 #
vertex $-1 $380 $515 #
vertex $-1 $501 $516 #
straight-curve $-1 100 8.5 -34.25 0 0 1 I I #
straight-curve $-1 99 8.5 -70 0 -1 0 I I #
edge $-1 $468 0 $460 18.199999999999999 $382 $517 forward 7 unknown #
coedge $-1 $500 $383 $499 $518 forward $414 $-1 #
vertex $-1 $384 $519 #
ellipse-curve $-1 99 8 -16.5 -1 0 0 0 0 0.5 1 I I #
coedge $-1 $385 $504 $479 $520 reversed $209 $-1 #
coedge $-1 $401 $400 $385 $464 forward $402 $-1 #
edge $-1 $386 0 $473 1 $385 $521 forward 7 unknown #
point $-1 99 8.5 -70 #
point $-1 99 8.5 -16.5 #
coedge $-1 $390 $438 $481 $522 reversed $308 $-1 #
vertex $-1 $458 $523 #
straight-curve $-1 99 -10.314497867327526 -16 0 1 0 I I #
plane-surface $-1 114 -13.5 -16 0 0 1 1 0 0 forward_v I I I I #
cone-surface $-1 82.1965 8 -70 1 0 0 0 0.5 0 1 I I 0 1 0.5 forward I I I I #
intcurve-curve $-1 forward { surfintcur full nurbs 3 open 6 
	0 3 0.19988891667361358 1 0.40021189307848803 1 0.59979249731754658 1 0.80011514438938136 1 
	0.99999999999999989 3 
	99 8.5 -70 1 
	98.999828658431895 8.4997558692121125 -70.053669088448601 1 
	98.998014260305965 8.4841018886276736 -70.155466801326753 1 
	98.989367928760132 8.4097821998819366 -70.300620723727292 0.99999999999999978 
	98.97932150383059 8.3006020422899258 -70.409796368898654 1 
	98.970628145525012 8.1554455706678386 -70.484107023249905 0.99999999999999978 
	98.968802924816018 8.0536601027464272 -70.499757365416428 1 
	98.968626966596887 8 -70.5 1 
	0.001 
	cone 82.1965 8 -70 1 0 0 0 0.5 0 1 I I 0 1 0.5 forward I I I I 
	cone 95 13.527000660153167 -70 0 -1 0 4 0 0 1 I I 0 1 4 forward I I I I 
	nullbs 
	nullbs 
	I I 
	0 
	0 
	0 
	} I I #
vertex $-1 $520 $524 #
intcurve-curve $-1 forward { surfintcur full nurbs 3 open 6 
	0 3 0.19988792225785079 1 0.4002091513347153 1 0.59978889538862079 1 0.80011007019675917 1 
	1 3 
	99.974937185533093 8 -70.5 1 
	99.975076580706343 8.0536433315656399 -70.499761980441448 0.99999999999999978 
	99.976532645471465 8.155408401192636 -70.484114982649345 1.0000000000000002 
	99.983469686202369 8.3005810694041795 -70.409818795206846 0.99999999999999978 
	99.991499585625036 8.4098125218151445 -70.300589050751128 1 
	99.998412468223492 8.4841123233453413 -70.155419059240529 1 
	99.99986297410662 8.499761146879008 -70.053647889132264 1 
	100 8.5 -70 1 
	0.001 
	cone 95 13.527000660153167 -70 0 -1 0 5 0 0 1 I I 0 1 5 forward I I I I 
	cone 82.1965 8 -70 1 0 0 0 0.5 0 1 I I 0 1 0.5 forward I I I I 
	nullbs 
	nullbs 
	I I 
	0 
	0 
	0 
	} I I #
face $-1 $525 $526 $2 $-1 $527 reversed single #
loop $-1 $-1 $528 $413 #
plane-surface $-1 101 7.5 -51.25 -0.70710678118654757 0 0.70710678118654757 0 1 0 forward_v I I I I #
straight-curve $-1 100 8.5 -70 0 -1 0 I I #
coedge $-1 $529 $420 $462 $520 forward $292 $-1 #
coedge $-1 $481 $422 $498 $530 reversed $424 $-1 #
coedge $-1 $423 $480 $467 $522 forward $424 $-1 #
edge $-1 $531 0 $425 1.5 $423 $532 forward 7 unknown #
point $-1 96.5 -10.199999999999999 -14.5 #
vertex $-1 $427 $533 #
straight-curve $-1 100 -10.199999999999999 -16 0 0 1 I I #
coedge $-1 $439 $429 $438 $494 forward $431 $-1 #
coedge $-1 $430 $439 $534 $535 reversed $431 $-1 #
coedge $-1 $534 $534 $433 $489 forward $492 $-1 #
edge $-1 $495 0 $490 3.1415926535897931 $488 $536 forward 7 unknown #
vertex $-1 $535 $537 #
straight-curve $-1 97 -10.699999999999999 -14.5 0 0 1 I I #
loop $-1 $-1 $488 $436 #
plane-surface $-1 114 -13.5 -13 0 0 1 1 0 0 forward_v I I I I #
edge $-1 $531 0 $441 1.5707963267948966 $438 $538 forward 7 unknown #
vertex $-1 $535 $539 #
straight-curve $-1 96 -10.699999999999999 -16 0 0 1 I I #
point $-1 96 -10.699999999999999 -16 #
coedge $-1 $446 $444 $480 $530 forward $374 $-1 #
coedge $-1 $444 $446 $459 $518 reversed $374 $-1 #
coedge $-1 $451 $459 $445 $501 reversed $414 $-1 #
edge $-1 $455 0 $502 1.5707963267949037 $445 $540 forward 7 unknown #
vertex $-1 $501 $541 #
straight-curve $-1 100 -10.199999999999999 -16 0 1 0 I I #
coedge $-1 $462 $448 $542 $543 forward $209 $-1 #
coedge $-1 $544 $545 $448 $506 forward $546 $-1 #
edge $-1 $547 0 $510 16 $448 $548 forward 7 unknown #
coedge $-1 $549 $449 $453 $514 forward $509 $-1 #
coedge $-1 $449 $550 $544 $551 reversed $509 $-1 #
loop $-1 $-1 $449 $525 #
vertex $-1 $506 $552 #
straight-curve $-1 101 8.5 -35.25 -0.70710678118654746 0 0.70710678118654746 I I #
straight-curve $-1 99 8.5 -16.5 1 0 0 I I #
coedge $-1 $453 $529 $553 $554 reversed $292 $-1 #
edge $-1 $454 0 $555 1 $453 $556 forward 7 unknown #
point $-1 100 8.5 -34.25 #
point $-1 100 8.5 -16.5 #
straight-curve $-1 99 -10.199999999999999 -16 0 1 0 I I #
edge $-1 $460 0 $502 1 $499 $557 forward 7 unknown #
point $-1 99 8 -16 #
edge $-1 $473 0 $558 17.75 $479 $559 forward 7 unknown #
straight-curve $-1 99 8.5 -70 1 0 0 I I #
edge $-1 $468 0 $531 2.4999999999999716 $467 $560 forward 7 unknown #
point $-1 98.999999999999972 -10.199999999999999 -16 #
point $-1 100 8.5 -70 #
face $-1 $561 $509 $2 $-1 $562 reversed single #
loop $-1 $-1 $563 $475 #
plane-surface $-1 101 8 -35.25 -0.70710678118654757 0.70710678118654757 0 0 0 -1 forward_v I I I I #
coedge $-1 $564 $565 $566 $567 forward $476 $-1 #
coedge $-1 $513 $479 $568 $569 reversed $292 $-1 #
edge $-1 $468 0 $484 1.0000000000000284 $498 $570 forward 7 unknown #
vertex $-1 $522 $571 #
straight-curve $-1 96.5 -10.199999999999999 -16 0 0 1 I I #
point $-1 100 -10.199999999999999 -16 #
coedge $-1 $488 $488 $487 $535 forward $492 $-1 #
edge $-1 $490 0 $495 3.1415926535897931 $534 $572 forward 7 unknown #
ellipse-curve $-1 96.5 -10.699999999999999 -13 0 0 1 -0.5 0 0 1 I I #
point $-1 97 -10.699999999999999 -13 #
ellipse-curve $-1 96.5 -10.699999999999999 -16 0 0 1 0 0.5 0 1 I I #
point $-1 96 -10.699999999999999 -13 #
ellipse-curve $-1 100 8 -16.499999999999996 1 0 0 0 0.5 -3.5527136788005009e-015 1 I I #
point $-1 100 8 -16 #
coedge $-1 $565 $568 $504 $543 reversed $476 $-1 #
edge $-1 $547 0 $558 1.4142135623730954 $504 $573 forward 7 unknown #
coedge $-1 $574 $505 $508 $551 forward $546 $-1 #
coedge $-1 $505 $574 $565 $575 forward $546 $-1 #
loop $-1 $-1 $574 $576 #
vertex $-1 $543 $577 #
straight-curve $-1 101 8.5 -51.25 0 0 1 I I #
coedge $-1 $550 $507 $578 $579 reversed $509 $-1 #
coedge $-1 $508 $549 $563 $580 reversed $509 $-1 #
edge $-1 $510 0 $581 0.5 $544 $582 forward 7 unknown #
point $-1 101 8.5 -35.25 #
coedge $-1 $583 $578 $513 $554 forward $584 $-1 #
edge $-1 $555 0 $585 18 $513 $586 forward 7 unknown #
vertex $-1 $514 $587 #
straight-curve $-1 100 8.5 -34.25 0 -1 0 I I #
straight-curve $-1 99 8 -16 1 0 0 I I #
vertex $-1 $569 $588 #
straight-curve $-1 100 8.5 -70 0 0 1 I I #
straight-curve $-1 98.999999999999972 -10.199999999999999 -16 -1 0 0 I I #
face $-1 $576 $584 $2 $-1 $589 forward single #
plane-surface $-1 101 8.5 -35.25 -0.70710678118654757 0 -0.70710678118654757 0 -1 0 forward_v I I I I #
coedge $-1 $590 $591 $550 $580 forward $526 $-1 #
coedge $-1 $568 $528 $583 $592 forward $476 $-1 #
coedge $-1 $528 $542 $545 $575 reversed $476 $-1 #
coedge $-1 $591 $590 $528 $567 reversed $526 $-1 #
edge $-1 $593 0 $594 0.86602540378444282 $528 $595 forward 7 unknown #
coedge $-1 $542 $564 $529 $569 forward $476 $-1 #
edge $-1 $585 0 $558 1 $529 $596 forward 7 unknown #
straight-curve $-1 98.999999999999972 -10.199999999999999 -16 1 0 0 I I #
point $-1 96.5 -10.199999999999999 -16 #
ellipse-curve $-1 96.5 -10.699999999999999 -13 0 0 1 0.5 0 0 1 I I #
straight-curve $-1 101 8.5 -51.25 -0.70710678118654746 0 -0.70710678118654746 I I #
coedge $-1 $545 $544 $591 $597 forward $546 $-1 #
edge $-1 $593 0 $547 0.5 $545 $598 forward 7 unknown #
face $-1 $-1 $546 $2 $-1 $599 forward single #
point $-1 101 8.5 -51.25 #
coedge $-1 $553 $600 $549 $579 forward $584 $-1 #
edge $-1 $601 0 $555 0.70710678118654258 $578 $602 forward 7 unknown #
edge $-1 $581 0 $601 0.86602540378444282 $550 $603 forward 7 unknown #
vertex $-1 $551 $604 #
straight-curve $-1 101 8.5 -35.25 0 -1 0 I I #
coedge $-1 $600 $553 $564 $592 reversed $584 $-1 #
loop $-1 $-1 $583 $561 #
vertex $-1 $554 $605 #
straight-curve $-1 100 7.5 -34.25 0 0 -1 I I #
point $-1 100 7.5 -34.25 #
point $-1 100 8.5 -52.25 #
plane-surface $-1 100 7.5 -34.25 0 -1 0 0 0 -1 forward_v I I I I #
coedge $-1 $566 $563 $600 $606 forward $526 $-1 #
coedge $-1 $563 $566 $574 $597 reversed $526 $-1 #
edge $-1 $594 0 $585 0.70710678118654258 $583 $607 forward 7 unknown #
vertex $-1 $575 $608 #
vertex $-1 $606 $609 #
straight-curve $-1 101 8 -51.25 -0.57735026918962584 -0.57735026918962584 -0.57735026918962584 I I #
straight-curve $-1 100 7.5 -52.25 0 1 0 I I #
edge $-1 $581 0 $593 16 $574 $610 forward 7 unknown #
straight-curve $-1 101 8 -51.25 0 1 0 I I #
plane-surface $-1 101 -13.5 0 1 0 0 0 0 -1 forward_v I I I I #
coedge $-1 $578 $583 $590 $606 reversed $584 $-1 #
vertex $-1 $579 $611 #
straight-curve $-1 100.5 7.5 -34.749999999999993 -0.70710678118655257 0 0.70710678118654258 I I #
straight-curve $-1 101 8 -35.25 -0.57735026918962584 -0.57735026918962584 0.57735026918962584 I I #
point $-1 101 8 -35.25 #
point $-1 100 7.5 -52.25 #
edge $-1 $601 0 $594 17.000000000000014 $600 $612 forward 7 unknown #
straight-curve $-1 100.5 7.5 -51.750000000000007 -0.70710678118655257 0 -0.70710678118654258 I I #
point $-1 101 8 -51.25 #
point $-1 100.5 7.5 -51.750000000000007 #
straight-curve $-1 101 8 -35.25 0 0 -1 I I #
point $-1 100.5 7.5 -34.749999999999993 #
straight-curve $-1 100.5 7.5 -34.749999999999993 0 0 -1 I I #
End-of-ACIS-data 