600 0 1 0           
96 GICL ACIS Healer - Source: /gicl/data5/repository/PTC/V18/fly_small18/door_memory_.prt.sat - 6 0 18 ACIS 6.0.3 Solaris 24 Sat Apr 13 22:08:00 2002 
1 9.999999999999999547e-07 1.000000000000000036e-10 
body $-1 $1 $-1 $-1 #
lump $-1 $-1 $2 $0 #
shell $-1 $-1 $-1 $3 $-1 $1 #
face $-1 $4 $5 $2 $-1 $6 reversed single #
face $-1 $7 $8 $2 $-1 $9 forward single #
loop $-1 $-1 $10 $3 #
plane-surface $-1 0 -13.5 0 0 1 0 1 0 0 forward_v I I I I #
face $-1 $11 $12 $2 $-1 $13 forward single #
loop $-1 $-1 $14 $4 #
plane-surface $-1 114 8.5 -72 0 0 -1 -1 0 0 forward_v I I I I #
coedge $-1 $15 $16 $17 $18 reversed $5 $-1 #
face $-1 $19 $20 $2 $-1 $21 reversed single #
loop $-1 $-1 $22 $7 #
plane-surface $-1 96.5 -10.19999999999999929 -70.5 0 1 0 1 0 0 forward_v I I I I #
coedge $-1 $23 $24 $25 $26 forward $8 $-1 #
coedge $-1 $27 $10 $28 $29 reversed $5 $-1 #
coedge $-1 $10 $30 $31 $32 reversed $5 $-1 #
coedge $-1 $33 $34 $10 $18 forward $8 $-1 #
edge $-1 $35 -40 $36 -39.5 $10 $37 forward 7 unknown #
face $-1 $38 $39 $2 $-1 $40 forward single #
loop $-1 $-1 $41 $11 #
plane-surface $-1 114 8.5 -70.5 0 0 -1 -1 0 0 forward_v I I I I #
coedge $-1 $42 $43 $44 $45 forward $12 $-1 #
coedge $-1 $34 $14 $46 $47 forward $8 $-1 #
coedge $-1 $14 $48 $49 $50 reversed $8 $-1 #
coedge $-1 $43 $51 $14 $26 reversed $12 $-1 #
edge $-1 $52 -8.75 $53 -5.25 $14 $54 forward 7 unknown #
coedge $-1 $55 $15 $56 $57 forward $5 $-1 #
coedge $-1 $58 $59 $15 $29 forward $60 $-1 #
edge $-1 $61 0 $35 1.5 $15 $62 forward 7 unknown #
coedge $-1 $16 $63 $64 $65 reversed $5 $-1 #
coedge $-1 $66 $67 $16 $32 forward $68 $-1 #
edge $-1 $36 -36 $69 21.5 $16 $70 reversed 7 unknown #
coedge $-1 $48 $17 $67 $71 forward $8 $-1 #
coedge $-1 $17 $23 $58 $72 forward $8 $-1 #
vertex $-1 $29 $73 #
vertex $-1 $32 $74 #
straight-curve $-1 57 -13.5 -72 -1 0 0 I I #
face $-1 $75 $76 $2 $-1 $77 reversed single #
loop $-1 $-1 $78 $19 #
plane-surface $-1 0 -12.5 0 0 1 0 1 0 0 forward_v I I I I #
coedge $-1 $79 $80 $81 $82 forward $20 $-1 #
coedge $-1 $83 $22 $84 $85 forward $12 $-1 #
coedge $-1 $22 $25 $86 $87 reversed $12 $-1 #
coedge $-1 $88 $89 $22 $45 reversed $20 $-1 #
edge $-1 $90 -8.75 $91 -6.281373033403113482 $44 $92 forward 7 unknown #
coedge $-1 $93 $94 $23 $47 reversed $95 $-1 #
edge $-1 $53 9.349999999999958789 $96 9.649999999999947065 $23 $97 forward 7 unknown #
coedge $-1 $24 $33 $98 $99 reversed $8 $-1 #
coedge $-1 $100 $86 $24 $50 forward $101 $-1 #
edge $-1 $52 1.570796326794896558 $102 3.141592653589793116 $24 $103 forward 7 unknown #
coedge $-1 $25 $83 $93 $104 forward $12 $-1 #
vertex $-1 $50 $105 #
vertex $-1 $47 $106 #
straight-curve $-1 105.25 -10.19999999999999929 -72 1 -0 0 I I #
coedge $-1 $63 $27 $107 $108 reversed $5 $-1 #
coedge $-1 $109 $110 $27 $57 reversed $111 $-1 #
edge $-1 $61 -40 $112 -39.93649167310367432 $27 $113 forward 7 unknown #
coedge $-1 $114 $28 $34 $72 reversed $60 $-1 #
coedge $-1 $28 $114 $109 $115 forward $60 $-1 #
loop $-1 $-1 $28 $116 #
vertex $-1 $57 $117 #
straight-curve $-1 97 -13.5 -70.5 0 0 -1 I I #
coedge $-1 $30 $55 $118 $119 forward $5 $-1 #
coedge $-1 $120 $121 $30 $65 forward $122 $-1 #
edge $-1 $69 39.5 $123 40 $30 $124 forward 7 unknown #
coedge $-1 $125 $31 $121 $126 reversed $68 $-1 #
coedge $-1 $31 $127 $33 $71 reversed $68 $-1 #
loop $-1 $-1 $67 $128 #
vertex $-1 $32 $129 #
straight-curve $-1 96.5 -13.5 -36 0 0 -1 I I #
edge $-1 $36 -11 $130 -8.699999999999999289 $67 $131 forward 7 unknown #
edge $-1 $96 -2.794343520776517487 $35 -1.91804545960817463 $34 $132 forward 7 unknown #
point $-1 97 -13.5 -72 #
point $-1 96.5 -13.5 -72 #
face $-1 $133 $134 $2 $-1 $135 reversed single #
loop $-1 $-1 $136 $38 #
cone-surface $-1 95.29843788128357573 -8.798437881283575734 -5 0 0 -1 0 4 0 1 I I 0 1 4 forward I I I I #
coedge $-1 $137 $138 $139 $140 forward $39 $-1 #
coedge $-1 $89 $41 $141 $142 forward $20 $-1 #
coedge $-1 $41 $143 $144 $145 reversed $20 $-1 #
coedge $-1 $146 $137 $41 $82 reversed $39 $-1 #
edge $-1 $147 39.5 $148 39.74424840849462726 $81 $149 reversed 7 unknown #
coedge $-1 $51 $42 $150 $151 forward $12 $-1 #
coedge $-1 $152 $153 $42 $85 reversed $154 $-1 #
edge $-1 $91 -6.281373033403113482 $155 -5.275062814466906502 $84 $156 reversed 7 unknown #
coedge $-1 $49 $157 $43 $87 forward $101 $-1 #
edge $-1 $90 0 $52 1.5 $43 $158 forward 7 unknown #
coedge $-1 $143 $44 $157 $159 reversed $20 $-1 #
coedge $-1 $44 $79 $160 $161 reversed $20 $-1 #
vertex $-1 $159 $162 #
vertex $-1 $161 $163 #
straight-curve $-1 105.25 -10.19999999999999929 -70.5 1 -0 0 I I #
coedge $-1 $164 $46 $51 $104 reversed $95 $-1 #
coedge $-1 $46 $164 $114 $165 forward $95 $-1 #
loop $-1 $-1 $94 $166 #
vertex $-1 $72 $167 #
straight-curve $-1 99.99999999999994316 -0.850000000000041056 -72 5.921189464667557821e-15 -1 0 I I #
coedge $-1 $168 $169 $48 $99 forward $170 $-1 #
edge $-1 $102 -3.141592653589793116 $130 -1.570796326794896558 $48 $171 forward 7 unknown #
coedge $-1 $172 $49 $169 $173 forward $101 $-1 #
loop $-1 $-1 $49 $174 #
vertex $-1 $50 $175 #
ellipse-curve $-1 96.5 -10.69999999999999929 -72 0 0 -1 -0.5 0 0 1 I I #
edge $-1 $176 0 $53 1.5 $51 $177 forward 7 unknown #
point $-1 96.5 -10.19999999999999929 -72 #
point $-1 100 -10.19999999999999929 -72 #
coedge $-1 $178 $179 $55 $108 forward $180 $-1 #
edge $-1 $181 1.570796326794896558 $112 1.82347658193697959 $55 $182 forward 7 unknown #
coedge $-1 $183 $56 $59 $115 reversed $111 $-1 #
coedge $-1 $56 $184 $178 $185 forward $111 $-1 #
loop $-1 $-1 $110 $186 #
vertex $-1 $108 $187 #
straight-curve $-1 57 -13.5 -70.5 -1 0 0 I I #
coedge $-1 $59 $58 $94 $165 reversed $60 $-1 #
edge $-1 $188 -2.794343520776517487 $61 -1.91804545960817463 $109 $189 forward 7 unknown #
face $-1 $166 $60 $2 $-1 $190 forward single #
point $-1 97 -13.5 -70.5 #
coedge $-1 $191 $192 $63 $119 reversed $193 $-1 #
edge $-1 $181 -65 $123 -9.5 $63 $194 reversed 7 unknown #
coedge $-1 $195 $64 $192 $196 forward $122 $-1 #
coedge $-1 $64 $197 $66 $126 forward $122 $-1 #
loop $-1 $-1 $197 $198 #
vertex $-1 $65 $199 #
straight-curve $-1 57 -13.5 -14.5 1 0 0 I I #
coedge $-1 $200 $66 $201 $202 reversed $68 $-1 #
edge $-1 $203 -2.300000000000000711 $69 0 $66 $204 forward 7 unknown #
coedge $-1 $67 $144 $168 $205 forward $68 $-1 #
face $-1 $198 $68 $2 $-1 $206 reversed single #
point $-1 96.5 -13.5 -14.5 #
vertex $-1 $205 $207 #
straight-curve $-1 96.5 -2.5 -72 -0 1 0 I I #
ellipse-curve $-1 95.29843788128357573 -8.798437881283575734 -72 0 0 -1 -5 0 0 1 I I #
face $-1 $208 $209 $2 $-1 $210 reversed single #
loop $-1 $-1 $211 $75 #
plane-surface $-1 99 -13.5 0 1 0 0 0 0 -1 forward_v I I I I #
coedge $-1 $212 $213 $214 $215 forward $76 $-1 #
coedge $-1 $81 $78 $216 $217 forward $39 $-1 #
coedge $-1 $78 $146 $218 $219 forward $39 $-1 #
coedge $-1 $213 $212 $78 $140 reversed $76 $-1 #
edge $-1 $220 11 $221 65 $78 $222 forward 7 unknown #
coedge $-1 $216 $223 $79 $142 reversed $224 $-1 #
edge $-1 $148 1.670933309396567035 $225 4.697019757067933732 $141 $226 forward 7 unknown #
coedge $-1 $80 $88 $227 $228 reversed $20 $-1 #
coedge $-1 $127 $229 $80 $145 forward $68 $-1 #
edge $-1 $147 -10 $230 -8.699999999999999289 $144 $231 forward 7 unknown #
coedge $-1 $138 $81 $229 $232 reversed $39 $-1 #
vertex $-1 $232 $233 #
vertex $-1 $82 $234 #
straight-curve $-1 57 -12.5 -70.5 -1 0 0 I I #
coedge $-1 $184 $183 $83 $151 reversed $111 $-1 #
edge $-1 $155 -5.275062814466906502 $176 -5.25 $150 $235 forward 7 unknown #
coedge $-1 $236 $84 $237 $238 reversed $154 $-1 #
coedge $-1 $84 $236 $239 $240 forward $154 $-1 #
loop $-1 $-1 $153 $241 #
vertex $-1 $240 $242 #
straight-curve $-1 105.25 -10.19999999999999929 -70.5 -1 0 0 I I #
coedge $-1 $86 $243 $88 $159 forward $101 $-1 #
straight-curve $-1 96.5 -10.19999999999999929 -70.5 0 0 -1 I I #
edge $-1 $244 0 $90 1.570796326794896558 $88 $245 forward 7 unknown #
coedge $-1 $246 $237 $89 $161 forward $247 $-1 #
edge $-1 $91 23.72700066015316622 $225 23.84149852748061704 $160 $248 reversed 7 unknown #
point $-1 96.5 -10.19999999999999929 -70.5 #
point $-1 98.96862696659688652 -10.19999999999999929 -70.5 #
coedge $-1 $94 $93 $183 $249 forward $95 $-1 #
edge $-1 $188 -0 $96 1.5 $94 $250 forward 7 unknown #
face $-1 $241 $95 $2 $-1 $251 forward single #
point $-1 100 -10.49999999999998757 -72 #
coedge $-1 $227 $98 $127 $205 reversed $170 $-1 #
coedge $-1 $98 $252 $100 $173 reversed $170 $-1 #
loop $-1 $-1 $227 $253 #
ellipse-curve $-1 96.5 -10.69999999999999929 -72 0 0 -1 -0.5 0 0 1 I I #
coedge $-1 $243 $100 $254 $255 reversed $101 $-1 #
edge $-1 $102 0 $256 1.5 $100 $257 forward 7 unknown #
face $-1 $258 $101 $2 $-1 $259 forward single #
point $-1 97 -10.69999999999999929 -72 #
vertex $-1 $151 $260 #
straight-curve $-1 100 -10.19999999999999929 -70.5 0 0 -1 I I #
coedge $-1 $261 $107 $110 $185 reversed $180 $-1 #
coedge $-1 $107 $261 $191 $262 reversed $180 $-1 #
loop $-1 $-1 $261 $263 #
vertex $-1 $119 $264 #
ellipse-curve $-1 95 -13.5 -70 0 1 0 0 0 1.999999999999970912 1 I I #
coedge $-1 $150 $109 $164 $249 reversed $111 $-1 #
coedge $-1 $110 $150 $265 $266 forward $111 $-1 #
edge $-1 $267 -6.023432412905132871 $112 -1.844855162446457308 $178 $268 reversed 7 unknown #
face $-1 $116 $111 $2 $-1 $269 reversed single #
point $-1 96.93649167310367432 -13.5 -70.5 #
vertex $-1 $249 $270 #
ellipse-curve $-1 95.29843788128357573 -8.798437881283575734 -70.5 0 0 -1 -5 0 0 1 I I #
cone-surface $-1 95.29843788128357573 -8.798437881283575734 -70.5 0 0 -1 -5 0 0 1 I I 0 1 5 forward I I I I #
coedge $-1 $271 $118 $179 $262 forward $193 $-1 #
coedge $-1 $118 $271 $120 $196 reversed $193 $-1 #
loop $-1 $-1 $191 $272 #
straight-curve $-1 97 -13.5 -5 0 0 -1 I I #
coedge $-1 $273 $120 $274 $275 forward $122 $-1 #
edge $-1 $123 -2.794343520776515266 $276 -1.91804545960817463 $192 $277 reversed 7 unknown #
coedge $-1 $121 $278 $279 $280 reversed $122 $-1 #
face $-1 $281 $122 $2 $-1 $282 forward single #
point $-1 97 -13.5 -14.5 #
coedge $-1 $229 $125 $283 $284 forward $68 $-1 #
coedge $-1 $279 $285 $125 $202 forward $286 $-1 #
edge $-1 $287 0 $203 1.5 $125 $288 reversed 7 unknown #
vertex $-1 $202 $289 #
straight-curve $-1 96.5 -13.5 -14.5 0 -1 0 I I #
edge $-1 $230 0 $130 1.5 $127 $290 forward 7 unknown #
plane-surface $-1 96.5 -13.5 -72 1 0 0 0 0 1 forward_v I I I I #
point $-1 96.5 -11.19999999999999929 -72 #
face $-1 $291 $292 $2 $-1 $293 forward single #
loop $-1 $-1 $294 $133 #
plane-surface $-1 114 8.5 -16 0 -1 0 0 0 -1 forward_v I I I I #
coedge $-1 $295 $296 $297 $298 reversed $134 $-1 #
coedge $-1 $139 $136 $299 $300 reversed $76 $-1 #
coedge $-1 $136 $139 $301 $302 reversed $76 $-1 #
coedge $-1 $303 $295 $136 $215 reversed $134 $-1 #
edge $-1 $304 11 $305 65 $214 $306 forward 7 unknown #
coedge $-1 $299 $141 $137 $217 reversed $224 $-1 #
edge $-1 $221 1.570796326794896558 $148 1.849966796360721144 $137 $307 forward 7 unknown #
coedge $-1 $283 $301 $138 $219 reversed $308 $-1 #
edge $-1 $309 39.5 $220 39.81449786732751761 $138 $310 forward 7 unknown #
vertex $-1 $219 $311 #
vertex $-1 $217 $312 #
straight-curve $-1 96.81449786732751761 -12.5 -5 0 0 -1 I I #
coedge $-1 $141 $299 $246 $313 reversed $224 $-1 #
loop $-1 $-1 $216 $314 #
vertex $-1 $313 $315 #
intcurve-curve $-1 forward { surfintcur full nubs 3 open 6 
	1.670933309396567035 3 1.916496480031157912 2 2.629920139155930592 2 3.343343798280702828 2 4.049950180995213422 2 
	4.697019757067933732 3 
	96.74423751456777154 -12.49997233135603736 -70.5 
	96.82334607890265943 -12.46882505447853262 -70.5 
	96.90022601752295373 -12.43568010641936183 -70.5 
	97.18977927261190075 -12.30024420445897348 -70.5 
	97.41559339318416733 -12.16969046481782257 -70.5 
	97.83578312286149981 -11.86521849343011681 -70.5 
	98.03015846287772206 -11.69129989032485639 -70.5 
	98.35405806579672117 -11.34612895927339871 -70.5 
	98.51392003056697888 -11.14318108455288403 -70.49999999999998579 
	98.77755608402280529 -10.7273667371118151 -70.49999999999998579 
	98.88492056365085148 -10.51677644058017869 -70.5 
	98.96860405898308954 -10.31448839080151991 -70.5 
	0.0003779336733052111744 
	torus 95 -8.798437881283575734 -70 0 1 0 0.2984378812835464245 4 -1 0 0 forward_v I I I I 
	plane 114 8.5 -70.5 0 0 -1 -1 0 0 forward_v I I I I 
	nullbs 
	nullbs 
	I I 
	0 
	0 
	0 
	} I I #
coedge $-1 $316 $168 $143 $228 forward $170 $-1 #
edge $-1 $230 -1.570796326794896558 $244 0 $143 $317 forward 7 unknown #
coedge $-1 $144 $200 $146 $232 forward $68 $-1 #
vertex $-1 $205 $318 #
straight-curve $-1 96.5 -2.5 -70.5 -0 1 0 I I #
edge $-1 $309 -20 $147 34.5 $146 $319 forward 7 unknown #
point $-1 96.5 -12.5 -70.5 #
point $-1 96.74424840849462726 -12.5 -70.5 #
straight-curve $-1 105.25 -10.19999999999999929 -70.5 1 -0 0 I I #
coedge $-1 $153 $152 $320 $321 forward $154 $-1 #
coedge $-1 $160 $322 $152 $238 forward $247 $-1 #
edge $-1 $323 5.527000660153166933 $91 23.72700066015316622 $237 $324 forward 7 unknown #
coedge $-1 $325 $265 $153 $240 reversed $326 $-1 #
edge $-1 $327 5.527000660153166933 $155 23.72700066015316622 $239 $328 forward 7 unknown #
face $-1 $329 $154 $2 $-1 $330 reversed single #
point $-1 99.9749371855330935 -10.19999999999999929 -70.5 #
coedge $-1 $157 $172 $316 $331 reversed $101 $-1 #
vertex $-1 $228 $332 #
ellipse-curve $-1 96.5 -10.69999999999999929 -70.5 0 0 -1 -0.5 0 0 1 I I #
coedge $-1 $333 $160 $223 $313 forward $247 $-1 #
loop $-1 $-1 $237 $329 #
straight-curve $-1 98.96862696659688652 13.52700066015316693 -70.5 -0 1 -0 I I #
edge $-1 $176 9.349999999999958789 $188 9.649999999999947065 $183 $334 forward 7 unknown #
straight-curve $-1 100.0000000000000142 -10.49999999999998401 -70.5 0 0 -1 I I #
plane-surface $-1 100 -10.19999999999999929 -70.5 1 5.921189464667557821e-15 0 5.921189464667557821e-15 -1 0 forward_v I I I I #
coedge $-1 $169 $316 $335 $336 reversed $170 $-1 #
face $-1 $174 $170 $2 $-1 $337 forward single #
coedge $-1 $335 $335 $172 $255 forward $338 $-1 #
edge $-1 $339 0 $256 3.141592653589793116 $254 $340 forward 7 unknown #
vertex $-1 $255 $341 #
straight-curve $-1 97 -10.69999999999999929 -72 0 0 -1 I I #
face $-1 $342 $338 $2 $-1 $343 forward single #
cone-surface $-1 96.5 -10.69999999999999929 -70.5 0 0 -1 -0.5 0 0 1 I I 0 1 0.5 forward I I I I #
point $-1 100 -10.19999999999999929 -70.5 #
coedge $-1 $179 $178 $344 $345 forward $180 $-1 #
edge $-1 $181 -1.223547193981618708 $346 -0.3472491328132779609 $191 $347 reversed 7 unknown #
face $-1 $348 $180 $2 $-1 $349 forward single #
point $-1 97 -13.5 -70 #
coedge $-1 $239 $344 $184 $266 reversed $326 $-1 #
edge $-1 $155 23.72700066015316622 $267 24.02700066015308522 $265 $350 reversed 7 unknown #
vertex $-1 $266 $351 #
intcurve-curve $-1 forward { surfintcur full nubs 3 open 7 
	1.844855162446457308 3 2.300203751744319458 2 3.196425800016796437 2 4.092647848289272972 2 4.983691343938090768 2 
	5.874734839586907675 2 6.023432412905132871 3 
	96.93648677807993863 -13.49998603875880221 -70.5 
	97.08766153235046659 -13.44698186490446012 -70.5 
	97.23333249701546777 -13.38778577168536543 -70.5 
	97.64272194926914494 -13.19971200489476004 -70.5 
	97.92742083884552073 -13.0375179089474198 -70.49999999999998579 
	98.45750648427085139 -12.6582080676585651 -70.49999999999998579 
	98.70289335363156624 -12.44109248094978781 -70.5 
	99.11284651448633554 -12.00881636322011303 -70.5 
	99.31561970940165907 -11.75385015290614987 -70.5 
	99.6648399811751915 -11.20789090083094663 -70.5 
	99.81128664527429351 -10.91689759505037571 -70.5 
	99.93957197409164905 -10.594933594269623 -70.5 
	99.95746978443233388 -10.54788271712881809 -70.5 
	99.9748409147015451 -10.49996509982645421 -70.5 
	0.0004511472473251617026 
	torus 95 -8.798437881283575734 -70 0 1 0 0.2984378812835464245 5 -1 0 0 forward_v I I I I 
	plane 114 8.5 -70.5 0 0 -1 -1 0 0 forward_v I I I I 
	nullbs 
	nullbs 
	I I 
	0 
	0 
	0 
	} I I #
plane-surface $-1 114 8.5 -70.5 0 0 -1 -1 0 0 forward_v I I I I #
point $-1 100 -10.49999999999998757 -70.5 #
coedge $-1 $192 $191 $352 $353 forward $193 $-1 #
face $-1 $263 $193 $2 $-1 $354 forward single #
coedge $-1 $278 $195 $355 $356 forward $122 $-1 #
coedge $-1 $352 $357 $195 $275 reversed $292 $-1 #
edge $-1 $276 3 $358 3.300000000000000711 $274 $359 reversed 7 unknown #
vertex $-1 $353 $360 #
ellipse-curve $-1 95.29843788128357573 -8.798437881283575734 -14.5 -0 -0 -1 0 5 0 1 I I #
coedge $-1 $197 $273 $361 $362 reversed $122 $-1 #
coedge $-1 $363 $201 $197 $280 forward $286 $-1 #
edge $-1 $203 -1.570796326794896558 $364 0 $197 $365 forward 7 unknown #
face $-1 $366 $286 $2 $-1 $367 forward single #
plane-surface $-1 114 -13.5 -14.5 0 0 1 1 0 0 forward_v I I I I #
coedge $-1 $368 $218 $200 $284 reversed $308 $-1 #
edge $-1 $287 -2.300000000000000711 $309 -1 $200 $369 forward 7 unknown #
coedge $-1 $201 $370 $368 $371 forward $286 $-1 #
loop $-1 $-1 $363 $281 #
vertex $-1 $284 $372 #
straight-curve $-1 96.5 -11.19999999999999929 -16 -0 -0 -1 I I #
point $-1 96.5 -11.19999999999999929 -14.5 #
straight-curve $-1 96.5 -11.19999999999999929 -70.5 0 0 -1 I I #
face $-1 $373 $374 $2 $-1 $375 reversed single #
loop $-1 $-1 $376 $208 #
plane-surface $-1 100 -13.5 0 1 0 0 0 0 -1 forward_v I I I I #
coedge $-1 $377 $378 $379 $380 reversed $209 $-1 #
coedge $-1 $214 $211 $333 $381 forward $134 $-1 #
coedge $-1 $211 $382 $383 $384 forward $134 $-1 #
coedge $-1 $378 $385 $211 $298 forward $209 $-1 #
edge $-1 $386 -62 $387 -8.5 $211 $388 reversed 7 unknown #
coedge $-1 $223 $216 $212 $300 forward $224 $-1 #
edge $-1 $221 -1.182064681888859381 $305 -0.3887316449060446155 $212 $389 reversed 7 unknown #
coedge $-1 $218 $390 $213 $302 forward $308 $-1 #
edge $-1 $304 1.959527971700941729 $220 2.7528610086837495 $213 $391 forward 7 unknown #
coedge $-1 $382 $214 $390 $392 forward $134 $-1 #
vertex $-1 $392 $393 #
vertex $-1 $215 $394 #
straight-curve $-1 99 -10.31449786732752294 -5 0 0 -1 I I #
ellipse-curve $-1 95 -12.5 -70 0 1 0 0 0 1.814497867327494296 1 I I #
loop $-1 $-1 $390 $395 #
vertex $-1 $219 $396 #
straight-curve $-1 57 -12.5 -16 1 0 0 I I #
point $-1 96.81449786732751761 -12.5 -16 #
point $-1 96.81449786732748919 -12.5 -70 #
edge $-1 $225 -0.1253278311680653678 $305 -0 $246 $397 reversed 7 unknown #
face $-1 $398 $224 $2 $-1 $399 reversed single #
point $-1 98.96862696659688652 -10.31449786732745189 -70.5 #
coedge $-1 $252 $227 $243 $331 forward $170 $-1 #
ellipse-curve $-1 96.5 -10.69999999999999929 -70.5 0 0 -1 -0.5 0 0 1 I I #
point $-1 96.5 -11.19999999999999929 -70.5 #
straight-curve $-1 96.5 -12.5 -36 0 0 -1 I I #
coedge $-1 $400 $401 $236 $321 reversed $402 $-1 #
edge $-1 $323 16.77212696659687197 $327 17.77843718553307895 $236 $403 forward 7 unknown #
coedge $-1 $237 $333 $400 $404 forward $247 $-1 #
vertex $-1 $404 $405 #
straight-curve $-1 98.96862696659688652 13.52700066015316693 -70.5 0 -1 0 I I #
coedge $-1 $406 $239 $401 $407 forward $326 $-1 #
loop $-1 $-1 $406 $348 #
vertex $-1 $407 $408 #
straight-curve $-1 99.9749371855330935 13.52700066015316693 -70.5 0 -1 0 I I #
face $-1 $314 $247 $2 $-1 $409 reversed single #
plane-surface $-1 114 8.5 -70.5 0 0 1 0 -1 0 forward_v I I I I #
edge $-1 $244 0 $339 3 $243 $410 forward 7 unknown #
point $-1 96 -10.69999999999999929 -70.5 #
coedge $-1 $322 $246 $295 $381 reversed $247 $-1 #
straight-curve $-1 99.99999999999994316 -0.850000000000041056 -70.5 5.921189464667557821e-15 -1 0 I I #
coedge $-1 $254 $254 $252 $336 forward $338 $-1 #
edge $-1 $256 -3.141592653589793116 $339 0 $335 $411 forward 7 unknown #
cone-surface $-1 96.5 -10.69999999999999929 -70.5 0 0 -1 -0.5 0 0 1 I I 0 1 0.5 forward I I I I #
loop $-1 $-1 $335 $258 #
vertex $-1 $255 $412 #
ellipse-curve $-1 96.5 -10.69999999999999929 -73.5 0 0 -1 -0.5 0 0 1 I I #
point $-1 97 -10.69999999999999929 -73.5 #
face $-1 $413 $414 $2 $-1 $415 forward single #
plane-surface $-1 114 8.5 -73.5 0 0 -1 -1 0 0 forward_v I I I I #
coedge $-1 $265 $406 $261 $345 reversed $326 $-1 #
edge $-1 $267 -0.1001674211615599247 $346 -0 $344 $416 reversed 7 unknown #
vertex $-1 $417 $418 #
ellipse-curve $-1 95.29843788128357573 -8.798437881283575734 -70 0 0 -1 5 0 0 1 I I #
face $-1 $186 $326 $2 $-1 $419 forward single #
torus-surface $-1 95 -8.798437881283575734 -70 0 1 0 0.2984378812835464245 5 -1 0 0 forward_v I I I I #
straight-curve $-1 99.9749371855330935 13.52700066015316693 -70.5 -0 1 -0 I I #
point $-1 99.9749371855330935 -10.49999999999992006 -70.5 #
coedge $-1 $420 $274 $271 $353 reversed $292 $-1 #
edge $-1 $346 -65 $276 -9.5 $352 $421 reversed 7 unknown #
cone-surface $-1 95.29843788128357573 -8.798437881283575734 -5 0 0 -1 0 5 0 1 I I 0 1 5 forward I I I I #
coedge $-1 $422 $423 $273 $356 reversed $424 $-1 #
edge $-1 $358 7 $425 10.5 $273 $426 forward 7 unknown #
coedge $-1 $274 $376 $422 $427 forward $292 $-1 #
vertex $-1 $275 $428 #
straight-curve $-1 100 -13.5 -14.5 0 -1 0 I I #
point $-1 100 -10.5 -14.5 #
coedge $-1 $429 $430 $278 $362 forward $431 $-1 #
edge $-1 $364 0 $425 1.570796326794896558 $278 $432 forward 7 unknown #
coedge $-1 $433 $279 $430 $434 forward $286 $-1 #
vertex $-1 $362 $435 #
ellipse-curve $-1 96.5 -10.69999999999999929 -14.5 0 0 1 0.5 0 0 1 I I #
face $-1 $436 $431 $2 $-1 $437 forward single #
cone-surface $-1 96.5 -10.69999999999999929 -16 0 0 1 0.5 0 0 1 I I 0 1 0.5 forward I I I I #
coedge $-1 $438 $283 $285 $371 reversed $308 $-1 #
straight-curve $-1 96.5 -13.5 -16 0 -1 0 I I #
coedge $-1 $285 $433 $439 $440 reversed $286 $-1 #
edge $-1 $441 -3.141592653589793116 $287 -1.570796326794896558 $368 $442 forward 7 unknown #
point $-1 96.5 -11.19999999999999929 -16 #
face $-1 $395 $424 $2 $-1 $443 forward single #
loop $-1 $-1 $444 $291 #
plane-surface $-1 114 -13.5 -16 0 0 -1 0 1 0 forward_v I I I I #
coedge $-1 $357 $445 $446 $447 reversed $292 $-1 #
coedge $-1 $448 $294 $449 $450 reversed $209 $-1 #
coedge $-1 $294 $297 $451 $452 forward $209 $-1 #
coedge $-1 $445 $453 $294 $380 forward $292 $-1 #
edge $-1 $454 -26.25 $455 -8.5 $379 $456 reversed 7 unknown #
edge $-1 $386 5.027000660153166933 $305 23.8414985274806881 $295 $457 forward 7 unknown #
coedge $-1 $296 $303 $444 $458 forward $134 $-1 #
coedge $-1 $459 $451 $296 $384 reversed $414 $-1 #
edge $-1 $460 -0 $387 1.570796326794896558 $296 $461 reversed 7 unknown #
coedge $-1 $297 $462 $463 $464 reversed $209 $-1 #
vertex $-1 $381 $465 #
vertex $-1 $384 $466 #
straight-curve $-1 99 8.5 -8 0 0 -1 I I #
ellipse-curve $-1 95.29843788128357573 -8.798437881283575734 -70 0 0 -1 4 0 0 1 I I #
coedge $-1 $301 $467 $303 $392 reversed $308 $-1 #
ellipse-curve $-1 95.29843788128357573 -8.798437881283575734 -16 -0 -0 -1 0 4 0 1 I I #
edge $-1 $304 3.18550213267247706 $468 3.300000000000000711 $303 $469 reversed 7 unknown #
point $-1 99 -10.31449786732752294 -16 #
point $-1 99 -10.31449786732752116 -70 #
face $-1 $128 $308 $2 $-1 $470 reversed single #
point $-1 96.5 -12.5 -16 #
ellipse-curve $-1 95 -10.31449786732745189 -70 -0 1 -0 4 0 0 1 I I #
face $-1 $253 $402 $2 $-1 $471 forward single #
torus-surface $-1 95 -8.798437881283575734 -70 0 1 0 0.2984378812835464245 4 -1 0 0 forward_v I I I I #
coedge $-1 $463 $320 $322 $404 reversed $402 $-1 #
coedge $-1 $320 $463 $325 $407 reversed $402 $-1 #
loop $-1 $-1 $400 $398 #
straight-curve $-1 82.19650000000001455 8 -70.5 1 0 0 I I #
edge $-1 $386 -2.262662895852250333 $323 -1.508441930568166667 $322 $472 reversed 7 unknown #
point $-1 98.96862696659688652 8 -70.5 #
coedge $-1 $344 $325 $420 $417 forward $326 $-1 #
edge $-1 $327 1.507828721975096098 $473 2.261743082962644369 $325 $474 forward 7 unknown #
point $-1 99.9749371855330935 8 -70.5 #
cone-surface $-1 95 13.52700066015316693 -70 0 -1 0 4 0 0 1 I I 0 1 4 forward I I I I #
straight-curve $-1 96 -10.69999999999999929 -70.5 0 0 -1 I I #
ellipse-curve $-1 96.5 -10.69999999999999929 -73.5 0 0 -1 -0.5 0 0 1 I I #
point $-1 96 -10.69999999999999929 -73.5 #
face $-1 $475 $476 $2 $-1 $477 reversed single #
loop $-1 $-1 $383 $342 #
cone-surface $-1 98.99899990554905571 8 -16.5 1 0 0 0 0 0.5 1 I I 0 1 0.5 forward I I I I #
ellipse-curve $-1 95 -10.49999999999992006 -70 -0 1 -0 5 0 0 1 I I #
edge $-1 $473 5.027000660153166933 $346 24.02700066015316693 $420 $478 forward 7 unknown #
point $-1 100 -10.5 -70 #
cone-surface $-1 95 13.52700066015316693 -70 0 -1 0 5 0 0 1 I I 0 1 5 forward I I I I #
coedge $-1 $479 $352 $406 $417 reversed $292 $-1 #
straight-curve $-1 100 -10.5 -5 0 0 -1 I I #
coedge $-1 $480 $355 $357 $427 reversed $424 $-1 #
coedge $-1 $355 $481 $429 $482 forward $424 $-1 #
loop $-1 $-1 $422 $373 #
vertex $-1 $362 $483 #
straight-curve $-1 107 -10.19999999999999929 -14.5 -1 0 0 I I #
edge $-1 $484 -8 $358 -6.5 $357 $485 forward 7 unknown #
point $-1 100 -10.19999999999999929 -14.5 #
coedge $-1 $486 $361 $423 $482 reversed $431 $-1 #
coedge $-1 $361 $487 $363 $434 reversed $431 $-1 #
loop $-1 $-1 $429 $366 #
ellipse-curve $-1 96.5 -10.69999999999999929 -14.5 0 0 1 0.5 0 0 1 I I #
coedge $-1 $370 $363 $488 $489 reversed $286 $-1 #
edge $-1 $364 0 $490 1.5 $430 $491 forward 7 unknown #
point $-1 97 -10.69999999999999929 -14.5 #
face $-1 $272 $492 $2 $-1 $493 forward single #
cone-surface $-1 96.5 -10.69999999999999929 -16 0 0 1 0.5 0 0 1 I I 0 1 0.5 forward I I I I #
coedge $-1 $467 $368 $486 $494 reversed $308 $-1 #
coedge $-1 $487 $486 $370 $440 forward $431 $-1 #
edge $-1 $441 0 $495 3 $439 $496 forward 7 unknown #
vertex $-1 $494 $497 #
ellipse-curve $-1 96.5 -10.69999999999999929 -16 0 0 1 0.5 0 0 1 I I #
plane-surface $-1 100 -10.19999999999999929 -16 0 1 0 -1 0 0 forward_v I I I I #
coedge $-1 $498 $499 $382 $458 reversed $374 $-1 #
coedge $-1 $376 $379 $500 $501 forward $292 $-1 #
coedge $-1 $499 $498 $376 $447 forward $374 $-1 #
edge $-1 $484 3.300000000000000711 $502 21.5 $376 $503 forward 7 unknown #
coedge $-1 $504 $377 $505 $506 reversed $209 $-1 #
coedge $-1 $507 $508 $377 $450 forward $509 $-1 #
edge $-1 $510 -2.209708691207961095 $454 -0.795495128834866061 $377 $511 reversed 7 unknown #
coedge $-1 $383 $500 $378 $452 reversed $414 $-1 #
edge $-1 $387 0.001000094450944288837 $455 1.001000094450944289 $378 $512 forward 7 unknown #
coedge $-1 $379 $513 $507 $514 reversed $292 $-1 #
vertex $-1 $380 $515 #
vertex $-1 $501 $516 #
straight-curve $-1 100 8.5 -8 0 0 -1 I I #
straight-curve $-1 99 13.52700066015316693 -70 0 -1 0 I I #
edge $-1 $468 3.300000000000000711 $460 21.5 $382 $517 forward 7 unknown #
coedge $-1 $500 $383 $499 $518 forward $414 $-1 #
vertex $-1 $384 $519 #
ellipse-curve $-1 99 8 -16.5 1 0 0 0 0 0.5 1 I I #
coedge $-1 $385 $504 $479 $520 reversed $209 $-1 #
coedge $-1 $401 $400 $385 $464 forward $402 $-1 #
edge $-1 $386 16.80349999999998545 $473 17.80349999999998545 $385 $521 forward 7 unknown #
point $-1 99 8.5 -70 #
point $-1 99 8.5 -16.5 #
coedge $-1 $390 $438 $481 $522 reversed $308 $-1 #
vertex $-1 $458 $523 #
straight-curve $-1 99 -13.5 -16 0 -1 0 I I #
plane-surface $-1 114 -13.5 -16 0 0 1 1 0 0 forward_v I I I I #
cone-surface $-1 82.19650000000000034 8 -70 1 0 0 0 0.5 0 1 I I 0 1 0.5 forward I I I I #
intcurve-curve $-1 forward { surfintcur full nubs 3 open 5 
	1.508441930568166667 3 1.696997959495813113 2 1.885553988423459781 2 2.074108442137855057 2 2.262662895852250333 3 
	98.96862696659687231 7.999999999999998224 -70.5 
	98.96862696659687231 8.062852009642547557 -70.5 
	98.9702741224752458 8.129848012290141313 -70.48742553489111629 
	98.97620851691570465 8.253017940938613961 -70.43637837387862533 
	98.98040841710914606 8.309197537264850553 -70.39790924392168847 
	98.98828027526425899 8.397908873369090088 -70.30919790781746315 
	98.99246581249290955 8.436378293632984082 -70.25301815039657072 
	98.9983672954354148 8.487425667585949185 -70.12984767627929727 
	99 8.5 -70.06285148457146761 
	99 8.5 -70 
	0.0002401047984878060303 
	cone 82.19650000000000034 8 -70 1 0 0 0 0.5 0 1 I I 0 1 0.5 forward I I I I 
	cone 95 13.52700066015316693 -70 0 -1 0 4 0 0 1 I I -0 -1 4 forward I I I I 
	nullbs 
	nullbs 
	I I 
	0 
	0 
	0 
	} I I #
vertex $-1 $520 $524 #
intcurve-curve $-1 forward { surfintcur full nubs 3 open 5 
	1.507828721975096098 3 1.69630763299024423 2 1.884786544005392361 2 2.073264813484018365 2 2.261743082962644369 3 
	99.9749371855330935 8 -70.5 
	99.9749371855330935 8.062826303671716488 -70.5 
	99.97624993987096786 8.129811429119110144 -70.48743554458704352 
	99.98098541153697738 8.25298857522826701 -70.43639569361158692 
	99.98433908660959446 8.309184190462513442 -70.39792259072403624 
	99.99062957431472398 8.397922439702030672 -70.30918434148452434 
	99.99397591808603636 8.436395660432076227 -70.25298866003670639 
	99.99869460568295665 8.487435599377892714 -70.12981129215494036 
	100 8.5 -70.06282608982621696 
	100 8.5 -70 
	0.0002389142706893071879 
	cone 82.19650000000000034 8 -70 1 0 0 0 0.5 0 1 I I 0 1 0.5 forward I I I I 
	cone 95 13.52700066015316693 -70 0 -1 0 5 0 0 1 I I -0 -1 5 forward I I I I 
	nullbs 
	nullbs 
	I I 
	0 
	0 
	0 
	} I I #
face $-1 $525 $526 $2 $-1 $527 reversed single #
loop $-1 $-1 $528 $413 #
plane-surface $-1 101 7.5 -51.25 -0.7071067811865475727 0 0.7071067811865475727 0 1 0 forward_v I I I I #
straight-curve $-1 100 13.52700066015316693 -70 0 -1 0 I I #
coedge $-1 $529 $420 $462 $520 forward $292 $-1 #
coedge $-1 $481 $422 $498 $530 reversed $424 $-1 #
coedge $-1 $423 $480 $467 $522 forward $424 $-1 #
edge $-1 $531 0 $425 1.5 $423 $532 forward 7 unknown #
point $-1 96.5 -10.19999999999999929 -14.5 #
vertex $-1 $427 $533 #
straight-curve $-1 100 -10.19999999999999929 -8 0 0 1 I I #
coedge $-1 $439 $429 $438 $494 forward $431 $-1 #
coedge $-1 $430 $439 $534 $535 reversed $431 $-1 #
coedge $-1 $534 $534 $433 $489 forward $492 $-1 #
edge $-1 $495 -3.141592653589793116 $490 0 $488 $536 forward 7 unknown #
vertex $-1 $535 $537 #
straight-curve $-1 97 -10.69999999999999929 -14.5 0 0 1 I I #
loop $-1 $-1 $488 $436 #
plane-surface $-1 114 -13.5 -13 0 0 1 1 0 0 forward_v I I I I #
edge $-1 $531 1.570796326794896558 $441 3.141592653589793116 $438 $538 forward 7 unknown #
vertex $-1 $535 $539 #
straight-curve $-1 96 -10.69999999999999929 -16 0 0 1 I I #
point $-1 96 -10.69999999999999929 -16 #
coedge $-1 $446 $444 $480 $530 forward $374 $-1 #
coedge $-1 $444 $446 $459 $518 reversed $374 $-1 #
coedge $-1 $451 $459 $445 $501 reversed $414 $-1 #
edge $-1 $455 -1.570796326794896558 $502 0 $445 $540 forward 7 unknown #
vertex $-1 $501 $541 #
straight-curve $-1 100 -13.5 -16 -0 1 0 I I #
coedge $-1 $462 $448 $542 $543 forward $209 $-1 #
coedge $-1 $544 $545 $448 $506 forward $546 $-1 #
edge $-1 $547 -43.25 $510 -27.25 $448 $548 forward 7 unknown #
coedge $-1 $549 $449 $453 $514 forward $509 $-1 #
coedge $-1 $449 $550 $544 $551 reversed $509 $-1 #
loop $-1 $-1 $449 $525 #
vertex $-1 $506 $552 #
straight-curve $-1 99.4375 8.5 -33.6875 0.7071067811865475727 0 -0.7071067811865475727 I I #
straight-curve $-1 98.99899990554905571 8.5 -16.5 1 0 0 I I #
coedge $-1 $453 $529 $553 $554 reversed $292 $-1 #
edge $-1 $454 -11 $555 -10 $453 $556 reversed 7 unknown #
point $-1 100 8.5 -34.25 #
point $-1 100 8.5 -16.5 #
straight-curve $-1 99 -13.5 -16 -0 1 0 I I #
edge $-1 $460 0.001000094450944288837 $502 1.001000094450944289 $499 $557 forward 7 unknown #
point $-1 99 8 -16 #
edge $-1 $473 -62 $558 -44.24999999999999289 $479 $559 reversed 7 unknown #
straight-curve $-1 82.19650000000001455 8.5 -70 1 0 0 I I #
edge $-1 $468 8 $531 10.5 $467 $560 forward 7 unknown #
point $-1 99 -10.19999999999999929 -16 #
point $-1 100 8.5 -70 #
face $-1 $561 $509 $2 $-1 $562 reversed single #
loop $-1 $-1 $563 $475 #
plane-surface $-1 101 8 -35.25 -0.7071067811865475727 0.7071067811865475727 0 0 0 -1 forward_v I I I I #
coedge $-1 $564 $565 $566 $567 forward $476 $-1 #
coedge $-1 $513 $479 $568 $569 reversed $292 $-1 #
edge $-1 $468 -8 $484 -7 $498 $570 forward 7 unknown #
vertex $-1 $522 $571 #
straight-curve $-1 96.5 -10.19999999999999929 -16 0 0 1 I I #
point $-1 100 -10.19999999999999929 -16 #
coedge $-1 $488 $488 $487 $535 forward $492 $-1 #
edge $-1 $490 0 $495 3.141592653589793116 $534 $572 forward 7 unknown #
ellipse-curve $-1 96.5 -10.69999999999999929 -13 0 0 1 0.5 0 0 1 I I #
point $-1 97 -10.69999999999999929 -13 #
ellipse-curve $-1 96.5 -10.69999999999999929 -16 0 0 1 0.5 0 0 1 I I #
point $-1 96 -10.69999999999999929 -13 #
ellipse-curve $-1 100 8 -16.5 1 0 0 0 0 0.5 1 I I #
point $-1 100 8 -16 #
coedge $-1 $565 $568 $504 $543 reversed $476 $-1 #
edge $-1 $547 17.05895109612546179 $558 18.47316465849855049 $504 $573 forward 7 unknown #
coedge $-1 $574 $505 $508 $551 forward $546 $-1 #
coedge $-1 $505 $574 $565 $575 forward $546 $-1 #
loop $-1 $-1 $574 $576 #
vertex $-1 $543 $577 #
straight-curve $-1 101 8.5 -8 -0 0 1 I I #
coedge $-1 $550 $507 $578 $579 reversed $509 $-1 #
coedge $-1 $508 $549 $563 $580 reversed $509 $-1 #
edge $-1 $510 -11 $581 -10.49999999999999822 $544 $582 reversed 7 unknown #
point $-1 101 8.5 -35.25 #
coedge $-1 $583 $578 $513 $554 forward $584 $-1 #
edge $-1 $555 17.125 $585 35.12499999999999289 $513 $586 forward 7 unknown #
vertex $-1 $514 $587 #
straight-curve $-1 100 -2.5 -34.25 -0 1 0 I I #
straight-curve $-1 98.99899990554905571 8 -16 1 0 0 I I #
vertex $-1 $569 $588 #
straight-curve $-1 100 8.5 -8 0 0 -1 I I #
straight-curve $-1 107 -10.19999999999999929 -16 -1 0 0 I I #
face $-1 $576 $584 $2 $-1 $589 forward single #
plane-surface $-1 101 8.5 -35.25 -0.7071067811865475727 0 -0.7071067811865475727 0 -1 0 forward_v I I I I #
coedge $-1 $590 $591 $550 $580 forward $526 $-1 #
coedge $-1 $568 $528 $583 $592 forward $476 $-1 #
coedge $-1 $528 $542 $545 $575 reversed $476 $-1 #
coedge $-1 $591 $590 $528 $567 reversed $526 $-1 #
edge $-1 $593 4.474464586219598417 $594 5.340489990004035903 $528 $595 forward 7 unknown #
coedge $-1 $542 $564 $529 $569 forward $476 $-1 #
edge $-1 $585 10.5 $558 11.5 $529 $596 reversed 7 unknown #
straight-curve $-1 107 -10.19999999999999929 -16 1 -0 0 I I #
point $-1 96.5 -10.19999999999999929 -16 #
ellipse-curve $-1 96.5 -10.69999999999999929 -13 0 0 1 0.5 0 0 1 I I #
straight-curve $-1 113.0625 8.5 -39.1875 -0.7071067811865475727 -0 -0.7071067811865475727 I I #
coedge $-1 $545 $544 $591 $597 forward $546 $-1 #
edge $-1 $593 10.99999999999999822 $547 11.5 $545 $598 reversed 7 unknown #
face $-1 $-1 $546 $2 $-1 $599 forward single #
point $-1 101 8.5 -51.25 #
coedge $-1 $553 $600 $549 $579 forward $584 $-1 #
edge $-1 $601 -0 $555 0.7071067811865475727 $578 $602 reversed 7 unknown #
edge $-1 $581 0.1443375672974064328 $601 1.01036297108184403 $550 $603 reversed 7 unknown #
vertex $-1 $551 $604 #
straight-curve $-1 101 -2.5 -35.25 -0 1 0 I I #
coedge $-1 $600 $553 $564 $592 reversed $584 $-1 #
loop $-1 $-1 $583 $561 #
vertex $-1 $554 $605 #
straight-curve $-1 100 7.5 -17.125 0 0 -1 I I #
point $-1 100 7.5 -34.25 #
point $-1 100 8.5 -52.24999999999999289 #
plane-surface $-1 100 7.5 -34.25 0 -1 0 0 0 -1 forward_v I I I I #
coedge $-1 $566 $563 $600 $606 forward $526 $-1 #
coedge $-1 $563 $566 $574 $597 reversed $526 $-1 #
edge $-1 $594 6.363961030678928488 $585 7.071067811865470176 $583 $607 forward 7 unknown #
vertex $-1 $575 $608 #
vertex $-1 $606 $609 #
straight-curve $-1 103.5833333333333286 10.58333333333333215 -48.6666666666666643 -0.5773502691896257311 -0.5773502691896257311 -0.5773502691896257311 I I #
straight-curve $-1 100 -3 -52.24999999999999289 0 -1 0 I I #
edge $-1 $581 17.625 $593 33.625 $574 $610 reversed 7 unknown #
straight-curve $-1 101 -3 -51.25 0 -1 0 I I #
plane-surface $-1 101 -13.5 0 1 0 0 0 0 -1 forward_v I I I I #
coedge $-1 $578 $583 $590 $606 reversed $584 $-1 #
vertex $-1 $579 $611 #
straight-curve $-1 100.5 7.5 -34.75 0.7071067811865475727 0 -0.7071067811865475727 I I #
straight-curve $-1 101.0833333333333286 8.083333333333333925 -35.3333333333333357 0.5773502691896257311 0.5773502691896257311 -0.5773502691896257311 I I #
point $-1 101 7.999999999999998224 -35.25 #
point $-1 100 7.5 -52.24999999999999289 #
edge $-1 $601 -0 $594 17 $600 $612 forward 7 unknown #
straight-curve $-1 105 7.5 -47.25 -0.7071067811865475727 -0 -0.7071067811865475727 I I #
point $-1 101 7.999999999999998224 -51.25 #
point $-1 100.5 7.5 -51.75 #
straight-curve $-1 101 7.999999999999998224 -17.625 0 -0 1 I I #
point $-1 100.5 7.5 -34.75 #
straight-curve $-1 100.5 7.5 -34.75 -0 -0 -1 I I #
End-of-ACIS-data 