700 0 2 0           
24 FBMach with ACIS - 7.0.3 13 ACIS 7.0.3 NT 24 Wed May 15 17:49:43 2002 
1 9.9999999999999995e-007 1e-010 
body $2 -1 $-1 $3 $-1 $4 #
bdycol-kcp $-1 -1 1 1 $5 #
model_id-kcp-attrib $-1 -1 $-1 $-1 $0 1 1021499383 1021499383 -2048327679 1 #
lump $-1 -1 $-1 $-1 $6 $0 #
transform $-1 -1 1 0 0 0 1 0 0 0 1 0 0 0 1 rotate no_reflect no_shear #
body $7 -1 $-1 $8 $-1 $9 #
shell $-1 -1 $-1 $-1 $-1 $10 $-1 $3 #
model_id-kcp-attrib $-1 -1 $-1 $-1 $5 1 1021499383 1021499383 -2048327678 1 #
lump $-1 -1 $-1 $-1 $11 $5 #
transform $-1 -1 1 0 0 0 1 0 0 0 1 0 0 0.37154021930624359 1 no_rotate no_reflect no_shear #
face $12 -1 $-1 $13 $14 $6 $-1 $15 reversed single #
shell $-1 -1 $-1 $-1 $-1 $16 $-1 $8 #
model_id-kcp-attrib $-1 -1 $-1 $-1 $10 1 1021499383 1021499383 -2048327679 2 #
face $17 -1 $-1 $18 $19 $6 $-1 $20 forward single #
loop $-1 -1 $-1 $-1 $21 $10 #
spline-surface $-1 -1 $-1 forward { exactsur full nurbs 3 3 both open open none none 5 5 
	-3.5 3 -1.75 2 0 2 1.75 2 3.5 3 
	-3.5 3 -2.25 2 -1 2 0.25 2 1.5 3 
	3.5 -2.5 1 1 
	2.9166666666666665 -2.5 1 1 
	2.3333333333333335 -2.5 1 1 
	1.1666666666666665 -2.5 1 1 
	0.58333333333333337 -2.5 1 1 
	-0.58333333333333337 -2.5 1 1 
	-1.1666666666666665 -2.5 1 1 
	-2.3333333333333335 -2.5 1 1 
	-2.9166666666666665 -2.5 1 1 
	-3.5 -2.5 1 1 
	3.5 -2.0833333333333335 1 1 
	2.9230136692173443 -2.0936253486573331 1.0824127565320052 1 
	2.3412670865216807 -2.1056360961201057 1.1430257139521955 1 
	1.1730136692173447 -2.1245115833836494 1.2230452505265725 1 
	0.58650683460867292 -2.1313763231844218 1.2424518296807596 1 
	-0.58650683460866981 -2.1313763231844209 1.2424518296807552 1 
	-1.1730136692173403 -2.1245115833836485 1.2230452505265641 1 
	-2.3412670865216758 -2.1056360961201048 1.1430257139521849 1 
	-2.9230136692173403 -2.0936253486573326 1.0824127565319963 1 
	-3.5 -2.0833333333333335 1 1 
	3.5 -1.6666666666666667 1 1 
	2.9310682848997609 -1.6795316858216665 1.1442576099593136 1 
	2.351335356124701 -1.6945451201501316 1.2513130947927844 1 
	1.1810682848997613 -1.7181394792295619 1.3932952594800683 1 
	0.59053414244988101 -1.7267204039805266 1.4282219393338813 1 
	-0.59053414244987801 -1.7267204039805266 1.4282219393338769 1 
	-1.1810682848997565 -1.7181394792295608 1.3932952594800589 1 
	-2.3513353561246961 -1.6945451201501305 1.2513130947927724 1 
	-2.9310682848997569 -1.6795316858216658 1.1442576099593038 1 
	-3.5 -1.6666666666666667 1 1 
	3.5 -0.83333333333333326 1 1 
	2.9440040149892543 -0.84362534865733352 1.2267409385479267 1 
	2.3675050187365683 -0.85563609612010549 1.3963749994978634 1 
	1.1940040149892548 -0.8745115833836492 1.6222726521237729 1 
	0.59700200749462817 -0.88137632318442094 1.6785362437997453 1 
	-0.59700200749462518 -0.88137632318442094 1.6785362437997418 1 
	-1.1940040149892517 -0.87451158338364854 1.6222726521237658 1 
	-2.3675050187365652 -0.85563609612010483 1.3963749994978545 1 
	-2.9440040149892521 -0.84362534865733285 1.2267409385479195 1 
	-3.5 -0.83333333333333326 1 1 
	3.5 -0.41666666666666669 1 1 
	2.9488851293963316 -0.42181267432866715 1.247379413709232 1 
	2.3736064117454152 -0.42781804806005208 1.4331495233623535 1 
	1.1988851293963321 -0.4372557916918246 1.6810000358139818 1 
	0.5994425646981657 -0.44068816159221075 1.7430804386124872 1 
	-0.5994425646981657 -0.44068816159221075 1.743080438612485 1 
	-1.1988851293963307 -0.43725579169182405 1.6810000358139778 1 
	-2.3736064117454143 -0.42781804806005153 1.4331495233623495 1 
	-2.9488851293963316 -0.42181267432866687 1.247379413709228 1 
	-3.5 -0.41666666666666669 1 1 
	3.5 0.41666666666666669 1 1 
	2.9488851293963316 0.42181267432866504 1.2473794137092298 1 
	2.3736064117454152 0.42781804806005208 1.4331495233623521 1 
	1.1988851293963321 0.4372557916918246 1.6810000358139805 1 
	0.5994425646981657 0.44068816159221075 1.7430804386124872 1 
	-0.5994425646981657 0.44068816159221075 1.743080438612485 1 
	-1.1988851293963307 0.43725579169182405 1.6810000358139756 1 
	-2.3736064117454143 0.42781804806005153 1.4331495233623455 1 
	-2.9488851293963316 0.42181267432866421 1.2473794137092249 1 
	-3.5 0.41666666666666669 1 1 
	3.5 0.83333333333333326 1 1 
	2.9440040149892543 0.84362534865733063 1.2267409385479227 1 
	2.3675050187365678 0.85563609612010316 1.3963749994978596 1 
	1.1940040149892548 0.87451158338364932 1.6222726521237705 1 
	0.59700200749462817 0.88137632318442216 1.6785362437997446 1 
	-0.5970020074946254 0.88137632318442216 1.6785362437997402 1 
	-1.1940040149892517 0.87451158338364809 1.6222726521237611 1 
	-2.3675050187365652 0.8556360961201015 1.3963749994978476 1 
	-2.9440040149892517 0.84362534865732941 1.2267409385479131 1 
	-3.5 0.83333333333333326 1 1 
	3.5 1.6666666666666667 1 1 
	2.9310682848997609 1.6795316858216636 1.1442576099593083 1 
	2.3513353561247006 1.6945451201501291 1.2513130947927793 1 
	1.1810682848997605 1.7181394792295612 1.3932952594800654 1 
	0.59053414244988078 1.726720403980528 1.4282219393338806 1 
	-0.59053414244987801 1.726720403980528 1.4282219393338744 1 
	-1.1810682848997565 1.7181394792295599 1.3932952594800529 1 
	-2.3513353561246961 1.6945451201501269 1.2513130947927633 1 
	-2.9310682848997565 1.679531685821662 1.1442576099592956 1 
	-3.5 1.6666666666666667 1 1 
	3.5 2.0833333333333335 1 1 
	2.9230136692173443 2.0936253486573309 1.0824127565320012 1 
	2.3412670865216803 2.1056360961201031 1.1430257139521915 1 
	1.1730136692173438 2.1245115833836494 1.2230452505265703 1 
	0.5865068346086727 2.1313763231844232 1.242451829680759 1 
	-0.5865068346086697 2.1313763231844223 1.2424518296807532 1 
	-1.1730136692173405 2.1245115833836477 1.2230452505265592 1 
	-2.3412670865216754 2.1056360961201013 1.1430257139521778 1 
	-2.9230136692173394 2.09362534865733 1.0824127565319899 1 
	-3.5 2.0833333333333335 1 1 
	3.5 2.5 1 1 
	2.9166666666666665 2.5 1 1 
	2.3333333333333335 2.5 1 1 
	1.1666666666666665 2.5 1 1 
	0.58333333333333337 2.5 1 1 
	-0.58333333333333337 2.5 1 1 
	-1.1666666666666665 2.5 1 1 
	-2.3333333333333335 2.5 1 1 
	-2.9166666666666665 2.5 1 1 
	-3.5 2.5 1 1 
	0 
	0 
	0 
	1 0 
	0 
	0 
	1 -1 
	F 1 F 0 F 1 F 0 } I I I I #
face $-1 -1 $-1 $22 $23 $11 $-1 $24 forward single #
model_id-kcp-attrib $-1 -1 $-1 $-1 $13 1 1021499383 1021499383 -2048327679 3 #
face $25 -1 $-1 $26 $27 $6 $-1 $28 forward single #
loop $-1 -1 $-1 $-1 $29 $13 #
plane-surface $-1 -1 $-1 -3.5 2.5 1 0 1 0 1 0 0 forward_v I I I I #
coedge $-1 -1 $-1 $30 $31 $32 $33 reversed $14 $34 #
face $-1 -1 $-1 $35 $36 $11 $-1 $37 reversed single #
loop $-1 -1 $-1 $-1 $38 $16 #
plane-surface $-1 -1 $-1 0 0 1.3715402193062436 0 0 1 1 0 0 forward_v I I I I #
model_id-kcp-attrib $-1 -1 $-1 $-1 $18 1 1021499383 1021499383 -2048327679 4 #
face $39 -1 $-1 $40 $41 $6 $-1 $42 forward single #
loop $-1 -1 $-1 $-1 $43 $18 #
plane-surface $-1 -1 $-1 3.5 2.5 1 1 0 0 0 -1 0 forward_v I I I I #
coedge $-1 -1 $-1 $44 $32 $45 $46 forward $19 $-1 #
coedge $-1 -1 $-1 $47 $21 $48 $49 reversed $14 $50 #
coedge $-1 -1 $-1 $21 $47 $51 $52 reversed $14 $53 #
coedge $-1 -1 $-1 $29 $54 $21 $33 forward $19 $-1 #
edge $55 -1 $-1 $56 0 $57 7 $21 $58 forward @7 unknown #
pcurve $-1 -1 $-1 0 forward { exppc nubs 1 open 2 
	-7 1 0 1 
	-3.5 1.5 
	3.5 1.5 
	0.0010000000000002221 
	spline forward { ref 0 } I I I I 
	} 0 0 #
face $59 -1 $-1 $60 $61 $11 $-1 $62 reversed single #
loop $-1 -1 $-1 $-1 $63 $22 #
plane-surface $-1 -1 $-1 0 0 -1.3715402193062436 0 0 1 1 0 0 forward_v I I I I #
coedge $-1 -1 $-1 $64 $65 $66 $67 forward $23 $-1 #
model_id-kcp-attrib $-1 -1 $-1 $-1 $26 1 1021499383 1021499383 -2048327679 5 #
face $68 -1 $-1 $69 $70 $6 $-1 $71 forward single #
loop $-1 -1 $-1 $-1 $72 $26 #
plane-surface $-1 -1 $-1 3.5 -2.5 1 0 -1 0 -1 0 0 forward_v I I I I #
coedge $-1 -1 $-1 $73 $51 $74 $75 forward $27 $-1 #
coedge $-1 -1 $-1 $54 $29 $76 $77 reversed $19 $-1 #
coedge $-1 -1 $-1 $51 $73 $29 $46 reversed $27 $-1 #
edge $78 -1 $-1 $57 0 $79 2 $45 $80 forward @7 unknown #
coedge $-1 -1 $-1 $31 $30 $81 $82 reversed $14 $83 #
coedge $-1 -1 $-1 $84 $85 $30 $49 forward $70 $-1 #
edge $-1 -1 $-1 $86 0 $56 5 $30 $87 forward @7 unknown #
pcurve $-1 -1 $-1 0 forward { exppc nubs 1 open 2 
	-5 1 0 1 
	3.5 1.5 
	3.5 -3.5 
	0.0010000000000002483 
	spline forward { ref 0 } I I I I 
	} 0 0 #
coedge $-1 -1 $-1 $43 $45 $31 $52 forward $27 $-1 #
edge $88 -1 $-1 $57 0 $89 5 $31 $90 forward @7 unknown #
pcurve $-1 -1 $-1 0 forward { exppc nubs 1 open 2 
	-5 1 0 1 
	-3.5 -3.5 
	-3.5 1.5 
	0.001 
	spline forward { ref 0 } I I I I 
	} 0 0 #
coedge $-1 -1 $-1 $32 $44 $84 $91 reversed $19 $-1 #
attrib_edge_convexity-kcp-attrib $-1 -1 $92 $-1 $33 1 #
vertex $-1 -1 $-1 $49 $93 #
vertex $-1 -1 $-1 $52 $94 #
straight-curve $-1 -1 $-1 -3.5 2.5 1 1 0 0 I I #
model_id-kcp-attrib $-1 -1 $-1 $-1 $35 1 1021499383 1021499383 -2048327678 4 #
face $95 -1 $-1 $96 $97 $11 $-1 $98 reversed single #
loop $-1 -1 $-1 $-1 $99 $35 #
plane-surface $-1 -1 $-1 0 -2.5 0 0 1 0 0 0 1 forward_v I I I I #
coedge $-1 -1 $-1 $100 $101 $102 $103 forward $36 $-1 #
coedge $-1 -1 $-1 $104 $38 $105 $106 forward $23 $-1 #
coedge $-1 -1 $-1 $38 $104 $107 $108 forward $23 $-1 #
coedge $-1 -1 $-1 $109 $110 $38 $67 reversed $111 $-1 #
edge $-1 -1 $-1 $112 -2.5 $113 2.5 $66 $114 forward @7 unknown #
model_id-kcp-attrib $-1 -1 $-1 $-1 $40 1 1021499383 1021499383 -2048327679 6 #
face $115 -1 $-1 $-1 $116 $6 $-1 $117 forward single #
loop $-1 -1 $-1 $-1 $84 $40 #
plane-surface $-1 -1 $-1 -3.5 -2.5 1 -1 0 0 0 1 0 forward_v I I I I #
coedge $-1 -1 $-1 $118 $81 $85 $119 forward $41 $-1 #
coedge $-1 -1 $-1 $45 $43 $120 $121 reversed $27 $-1 #
coedge $-1 -1 $-1 $81 $118 $43 $75 reversed $41 $-1 #
edge $122 -1 $-1 $89 0 $123 2 $43 $124 forward @7 unknown #
coedge $-1 -1 $-1 $120 $125 $44 $77 forward $116 $126 #
edge $127 -1 $-1 $128 0 $79 7 $76 $129 forward @7 unknown #
attrib_edge_convexity-kcp-attrib $-1 -1 $130 $-1 $46 1 #
vertex $-1 -1 $-1 $121 $131 #
straight-curve $-1 -1 $-1 3.5 2.5 1 0 0 -1 I I #
coedge $-1 -1 $-1 $72 $74 $47 $82 forward $41 $-1 #
edge $-1 -1 $-1 $89 0 $86 7 $47 $132 forward @7 unknown #
pcurve $-1 -1 $-1 0 forward { exppc nubs 1 open 2 
	-7 1 0 1 
	3.5 -3.5 
	-3.5 -3.5 
	0.0010000000000004441 
	spline forward { ref 0 } I I I I 
	} 0 0 #
coedge $-1 -1 $-1 $133 $48 $54 $91 forward $70 $-1 #
coedge $-1 -1 $-1 $48 $133 $72 $119 reversed $70 $-1 #
vertex $-1 -1 $-1 $82 $134 #
straight-curve $-1 -1 $-1 -3.5 -2.5 1 0 1 0 I I #
attrib_edge_convexity-kcp-attrib $-1 -1 $135 $-1 $52 1 #
vertex $-1 -1 $-1 $52 $136 #
straight-curve $-1 -1 $-1 3.5 2.5 1 0 -1 0 I I #
edge $137 -1 $-1 $56 0 $128 2 $84 $138 forward @7 unknown #
convexity-sys-attrib $-1 -1 $-1 $55 $33 #
point $-1 -1 $-1 -3.5 2.5 1 #
point $-1 -1 $-1 3.5 2.5 1 #
model_id-kcp-attrib $-1 -1 $-1 $-1 $60 1 1021499383 1021499383 -2048327678 5 #
face $139 -1 $-1 $140 $141 $11 $-1 $142 reversed single #
loop $-1 -1 $-1 $-1 $143 $60 #
plane-surface $-1 -1 $-1 -3.5 0 0 1 0 0 0 0 -1 forward_v I I I I #
coedge $-1 -1 $-1 $144 $107 $145 $146 forward $61 $-1 #
coedge $-1 -1 $-1 $147 $63 $144 $148 forward $36 $-1 #
coedge $-1 -1 $-1 $63 $147 $149 $150 forward $36 $-1 #
coedge $-1 -1 $-1 $110 $109 $63 $103 reversed $111 $-1 #
edge $-1 -1 $-1 $151 -2.5 $152 2.5 $102 $153 forward @7 unknown #
coedge $-1 -1 $-1 $65 $64 $154 $155 forward $23 $-1 #
coedge $-1 -1 $-1 $156 $157 $64 $106 reversed $141 $-1 #
edge $-1 -1 $-1 $113 -3.5 $158 3.5 $105 $159 forward @7 unknown #
coedge $-1 -1 $-1 $99 $160 $65 $108 reversed $61 $-1 #
edge $-1 -1 $-1 $161 -3.5 $112 3.5 $107 $162 forward @7 unknown #
coedge $-1 -1 $-1 $102 $66 $160 $163 forward $111 $-1 #
coedge $-1 -1 $-1 $66 $102 $156 $164 reversed $111 $-1 #
loop $-1 -1 $-1 $-1 $109 $140 #
vertex $-1 -1 $-1 $67 $165 #
vertex $-1 -1 $-1 $67 $166 #
straight-curve $-1 -1 $-1 3.5 0 1.3715402193062436 0 1 0 I I #
model_id-kcp-attrib $-1 -1 $-1 $-1 $69 1 1021499383 1021499383 -2048327679 7 #
loop $-1 -1 $-1 $-1 $167 $69 #
spline-surface $-1 -1 $-1 forward { exactsur full nurbs 3 3 both open open none none 5 5 
	-2.5 3 -1.25 2 0 2 1.25 2 2.5 3 
	-1.2797868020697711 3 0.47021319793022887 2 2.2202131979302289 2 3.9702131979302289 2 5.7202131979302289 3 
	-3.5 -2.5 -1 1 
	-3.5 -2.0833333333333335 -1 1 
	-3.5 -1.6666666666666667 -1 1 
	-3.5 -0.83333333333333326 -1 1 
	-3.5 -0.41666666666666669 -1 1 
	-3.5 0.41666666666666669 -1 1 
	-3.5 0.83333333333333326 -1 1 
	-3.5 1.6666666666666667 -1 1 
	-3.5 2.0833333333333335 -1 1 
	-3.5 2.5 -1 1 
	-2.9166666666666665 -2.5 -1 1 
	-2.9273204055040263 -2.0935487736887719 -0.90024840732380984 1 
	-2.939701731376088 -1.6794359671109651 -0.82722819405902037 1 
	-2.9591375137015312 -0.84354877368877212 -0.7310635638675359 1 
	-2.9661919701549122 -0.42177438684438601 -0.70791914694084124 1 
	-2.9661919701549122 0.42177438684438601 -0.70791914694084124 1 
	-2.9591375137015312 0.84354877368877157 -0.73106356386753601 1 
	-2.939701731376088 1.6794359671109653 -0.82722819405902048 1 
	-2.9273204055040267 2.0935487736887723 -0.90024840732381017 1 
	-2.9166666666666665 2.5 -1 1 
	-2.3333333333333335 -2.5 -1 1 
	-2.346650506880033 -2.1074823213868217 -0.82641623194233738 1 
	-2.36212716422011 -1.6968529017335272 -0.69775906049669378 1 
	-2.3864218921269136 -0.85748232138682168 -0.52723660163423769 1 
	-2.3952399626936405 -0.42874116069341078 -0.48537131421742541 1 
	-2.3952399626936405 0.42874116069341078 -0.48537131421742541 1 
	-2.3864218921269136 0.85748232138682112 -0.52723660163423824 1 
	-2.36212716422011 1.6968529017335268 -0.69775906049669456 1 
	-2.3466505068800334 2.1074823213868217 -0.82641623194233815 1 
	-2.3333333333333335 2.5 -1 1 
	-1.1666666666666665 -2.5 -1 1 
	-1.1773204055040267 -2.1302416966052014 -0.72862767751748803 1 
	-1.189701731376088 -1.7253021207565022 -0.52520669634253114 1 
	-1.2091375137015312 -0.88024169660520224 -0.2540508952338737 1 
	-1.2161919701549126 -0.44012084830260062 -0.18631607530017358 1 
	-1.2161919701549126 0.44012084830260062 -0.18631607530017358 1 
	-1.2091375137015312 0.88024169660520057 -0.25405089523387547 1 
	-1.189701731376088 1.7253021207565014 -0.52520669634253336 1 
	-1.1773204055040263 2.1302416966052005 -0.72862767751748991 1 
	-1.1666666666666665 2.5 -1 1 
	-0.58333333333333337 -2.5 -1 1 
	-0.58866020275201369 -2.1390675241255321 -0.70467129847411092 1 
	-0.5948508656880438 -1.736334405156915 -0.48212346575069476 1 
	-0.60456875685076517 -0.88906752412553258 -0.18469215106680825 1 
	-0.60809598507745588 -0.44453376206276696 -0.10980866910633685 1 
	-0.60809598507745588 0.44453376206276429 -0.10980866910633855 1 
	-0.60456875685076517 0.88906752412553047 -0.18469215106681075 1 
	-0.5948508656880438 1.7363344051569136 -0.48212346575069814 1 
	-0.58866020275201369 2.1390675241255304 -0.70467129847411347 1 
	-0.58333333333333337 2.5 -1 1 
	0.58333333333333337 -2.5 -1 1 
	0.58866020275201258 -2.1390675241255321 -0.70467129847411203 1 
	0.5948508656880438 -1.736334405156915 -0.48212346575069698 1 
	0.60456875685076517 -0.88906752412553258 -0.18469215106681047 1 
	0.60809598507745588 -0.44453376206276696 -0.10980866910634016 1 
	0.60809598507745588 0.44453376206276429 -0.10980866910634185 1 
	0.60456875685076517 0.88906752412552892 -0.18469215106681469 1 
	0.5948508656880438 1.7363344051569114 -0.48212346575070197 1 
	0.58866020275201247 2.1390675241255295 -0.70467129847411614 1 
	0.58333333333333337 2.5 -1 1 
	1.1666666666666665 -2.5 -1 1 
	1.1773204055040258 -2.1302416966052009 -0.72862767751749014 1 
	1.1897017313760867 -1.7253021207565018 -0.52520669634253458 1 
	1.2091375137015294 -0.88024169660520268 -0.25405089523387903 1 
	1.2161919701549109 -0.44012084830260201 -0.18631607530017905 1 
	1.2161919701549109 0.44012084830259779 -0.18631607530018138 1 
	1.209137513701529 0.88024169660519747 -0.2540508952338838 1 
	1.1897017313760858 1.7253021207564978 -0.52520669634254069 1 
	1.1773204055040249 2.1302416966051987 -0.72862767751749513 1 
	1.1666666666666665 2.5 -1 1 
	2.3333333333333335 -2.5 -1 1 
	2.3466505068800325 -2.1074823213868212 -0.82641623194234015 1 
	2.3621271642201092 -1.6968529017335268 -0.69775906049669789 1 
	2.3864218921269127 -0.85748232138682212 -0.52723660163424446 1 
	2.3952399626936387 -0.42874116069341195 -0.48537131421743274 1 
	2.3952399626936387 0.42874116069340773 -0.48537131421743496 1 
	2.3864218921269109 0.85748232138681735 -0.5272366016342489 1 
	2.3621271642201083 1.6968529017335232 -0.69775906049670366 1 
	2.3466505068800316 2.107482321386819 -0.8264162319423447 1 
	2.3333333333333335 2.5 -1 1 
	2.9166666666666665 -2.5 -1 1 
	2.9273204055040258 -2.0935487736887715 -0.90024840732381195 1 
	2.9397017313760871 -1.6794359671109649 -0.82722819405902348 1 
	2.9591375137015294 -0.84354877368877235 -0.73106356386754123 1 
	2.9661919701549113 -0.42177438684438695 -0.70791914694084723 1 
	2.9661919701549113 0.42177438684438362 -0.70791914694084901 1 
	2.9591375137015286 0.84354877368876857 -0.73106356386754467 1 
	2.9397017313760854 1.679435967110962 -0.82722819405902781 1 
	2.9273204055040254 2.0935487736887701 -0.90024840732381528 1 
	2.9166666666666665 2.5 -1 1 
	3.5 -2.5 -1 1 
	3.5 -2.0833333333333335 -1 1 
	3.5 -1.6666666666666667 -1 1 
	3.5 -0.83333333333333326 -1 1 
	3.5 -0.41666666666666669 -1 1 
	3.5 0.41666666666666669 -1 1 
	3.5 0.83333333333333326 -1 1 
	3.5 1.6666666666666667 -1 1 
	3.5 2.0833333333333335 -1 1 
	3.5 2.5 -1 1 
	0 
	0 
	0 
	1 0 
	0 
	0 
	1 2.2202131979302289 
	F 1 F 0 F 1 F 0 } I I I I #
coedge $-1 -1 $-1 $74 $72 $167 $168 reversed $41 $-1 #
edge $-1 -1 $-1 $86 0 $169 2 $72 $170 forward @7 unknown #
coedge $-1 -1 $-1 $167 $76 $73 $121 forward $116 $171 #
edge $172 -1 $-1 $79 0 $123 5 $120 $173 forward @7 unknown #
attrib_edge_convexity-kcp-attrib $-1 -1 $174 $-1 $75 1 #
vertex $-1 -1 $-1 $121 $175 #
straight-curve $-1 -1 $-1 3.5 -2.5 1 0 0 -1 I I #
coedge $-1 -1 $-1 $76 $167 $133 $176 forward $116 $177 #
pcurve $-1 -1 $-1 0 forward { exppc nubs 1 open 2 
	0 1 7 1 
	2.5 -1.2797868020697711 
	2.5 5.7202131979302289 
	0.0010000000000002221 
	spline forward { ref 5 } I I I I 
	} 0 0 #
attrib_edge_convexity-kcp-attrib $-1 -1 $178 $-1 $77 1 #
vertex $-1 -1 $-1 $77 $179 #
straight-curve $-1 -1 $-1 -3.5 2.5 -1 1 0 0 I I #
convexity-sys-attrib $-1 -1 $-1 $78 $46 #
point $-1 -1 $-1 3.5 2.5 -1 #
straight-curve $-1 -1 $-1 3.5 -2.5 1 -1 0 0 I I #
coedge $-1 -1 $-1 $85 $84 $125 $176 reversed $70 $-1 #
point $-1 -1 $-1 -3.5 -2.5 1 #
convexity-sys-attrib $-1 -1 $-1 $88 $52 #
point $-1 -1 $-1 3.5 -2.5 1 #
attrib_edge_convexity-kcp-attrib $-1 -1 $180 $-1 $91 1 #
straight-curve $-1 -1 $-1 -3.5 2.5 1 0 0 -1 I I #
model_id-kcp-attrib $-1 -1 $-1 $-1 $96 1 1021499383 1021499383 -2048327678 2 #
face $181 -1 $-1 $-1 $111 $11 $-1 $182 reversed single #
loop $-1 -1 $-1 $-1 $156 $96 #
plane-surface $-1 -1 $-1 0 2.5 0 0 -1 0 0 0 -1 forward_v I I I I #
coedge $-1 -1 $-1 $183 $154 $157 $184 forward $97 $-1 #
coedge $-1 -1 $-1 $160 $99 $100 $148 reversed $61 $-1 #
coedge $-1 -1 $-1 $154 $183 $99 $146 reversed $97 $-1 #
edge $-1 -1 $-1 $161 -1.3715402193062436 $185 1.3715402193062436 $145 $186 forward @7 unknown #
coedge $-1 -1 $-1 $101 $100 $183 $187 forward $36 $-1 #
edge $-1 -1 $-1 $152 -3.5 $185 3.5 $144 $188 forward @7 unknown #
coedge $-1 -1 $-1 $157 $156 $101 $150 reversed $141 $-1 #
edge $-1 -1 $-1 $189 -3.5 $151 3.5 $149 $190 forward @7 unknown #
vertex $-1 -1 $-1 $103 $191 #
vertex $-1 -1 $-1 $163 $192 #
straight-curve $-1 -1 $-1 3.5 0 -1.3715402193062436 0 -1 0 I I #
coedge $-1 -1 $-1 $143 $145 $104 $155 reversed $97 $-1 #
edge $-1 -1 $-1 $158 -2.5 $161 2.5 $154 $193 forward @7 unknown #
coedge $-1 -1 $-1 $149 $105 $110 $164 forward $141 $-1 #
coedge $-1 -1 $-1 $105 $149 $143 $184 reversed $141 $-1 #
vertex $-1 -1 $-1 $106 $194 #
straight-curve $-1 -1 $-1 0 2.5 1.3715402193062436 -1 0 0 I I #
coedge $-1 -1 $-1 $107 $144 $109 $163 reversed $61 $-1 #
vertex $-1 -1 $-1 $155 $195 #
straight-curve $-1 -1 $-1 0 -2.5 1.3715402193062436 1 0 0 I I #
edge $-1 -1 $-1 $112 -1.3715402193062436 $152 1.3715402193062436 $109 $196 forward @7 unknown #
edge $-1 -1 $-1 $113 -1.3715402193062436 $151 1.3715402193062436 $110 $197 forward @7 unknown #
point $-1 -1 $-1 3.5 -2.5 1.3715402193062436 #
point $-1 -1 $-1 3.5 2.5 1.3715402193062436 #
coedge $-1 -1 $-1 $125 $120 $118 $168 forward $116 $198 #
edge $-1 -1 $-1 $123 0 $169 7 $167 $199 forward @7 unknown #
vertex $-1 -1 $-1 $176 $200 #
straight-curve $-1 -1 $-1 -3.5 -2.5 1 0 0 -1 I I #
pcurve $-1 -1 $-1 0 forward { exppc nubs 1 open 2 
	0 1 5 1 
	2.5 5.7202131979302289 
	-2.5 5.7202131979302289 
	0.0010000000000009992 
	spline forward { ref 5 } I I I I 
	} 0 0 #
attrib_edge_convexity-kcp-attrib $-1 -1 $201 $-1 $121 1 #
straight-curve $-1 -1 $-1 3.5 2.5 -1 0 -1 0 I I #
convexity-sys-attrib $-1 -1 $-1 $122 $75 #
point $-1 -1 $-1 3.5 -2.5 -1 #
edge $-1 -1 $-1 $169 0 $128 5 $125 $202 forward @7 unknown #
pcurve $-1 -1 $-1 0 forward { exppc nubs 1 open 2 
	0 1 5 1 
	-2.5 -1.2797868020697711 
	2.5 -1.2797868020697711 
	0.001000000000000111 
	spline forward { ref 5 } I I I I 
	} 0 0 #
convexity-sys-attrib $-1 -1 $-1 $127 $77 #
point $-1 -1 $-1 -3.5 2.5 -1 #
convexity-sys-attrib $-1 -1 $-1 $137 $91 #
model_id-kcp-attrib $-1 -1 $-1 $-1 $140 1 1021499383 1021499383 -2048327678 3 #
plane-surface $-1 -1 $-1 3.5 0 0 -1 0 0 0 0 1 forward_v I I I I #
coedge $-1 -1 $-1 $145 $143 $147 $187 reversed $97 $-1 #
edge $-1 -1 $-1 $158 -1.3715402193062436 $189 1.3715402193062436 $157 $203 forward @7 unknown #
vertex $-1 -1 $-1 $187 $204 #
straight-curve $-1 -1 $-1 -3.5 -2.5 0 0 0 -1 I I #
edge $-1 -1 $-1 $185 -2.5 $189 2.5 $183 $205 forward @7 unknown #
straight-curve $-1 -1 $-1 0 -2.5 -1.3715402193062436 -1 0 0 I I #
vertex $-1 -1 $-1 $150 $206 #
straight-curve $-1 -1 $-1 0 2.5 -1.3715402193062436 1 0 0 I I #
point $-1 -1 $-1 3.5 2.5 -1.3715402193062436 #
point $-1 -1 $-1 3.5 -2.5 -1.3715402193062436 #
straight-curve $-1 -1 $-1 -3.5 0 1.3715402193062436 0 -1 0 I I #
point $-1 -1 $-1 -3.5 2.5 1.3715402193062436 #
point $-1 -1 $-1 -3.5 -2.5 1.3715402193062436 #
straight-curve $-1 -1 $-1 3.5 -2.5 0 0 0 -1 I I #
straight-curve $-1 -1 $-1 3.5 2.5 0 0 0 -1 I I #
pcurve $-1 -1 $-1 0 forward { exppc nubs 1 open 2 
	0 1 7 1 
	-2.5 5.7202131979302289 
	-2.5 -1.2797868020697711 
	0.001 
	spline forward { ref 5 } I I I I 
	} 0 0 #
straight-curve $-1 -1 $-1 3.5 -2.5 -1 -1 0 0 I I #
point $-1 -1 $-1 -3.5 -2.5 -1 #
convexity-sys-attrib $-1 -1 $-1 $172 $121 #
straight-curve $-1 -1 $-1 -3.5 -2.5 -1 0 1 0 I I #
straight-curve $-1 -1 $-1 -3.5 2.5 0 0 0 -1 I I #
point $-1 -1 $-1 -3.5 -2.5 -1.3715402193062436 #
straight-curve $-1 -1 $-1 -3.5 0 -1.3715402193062436 0 1 0 I I #
point $-1 -1 $-1 -3.5 2.5 -1.3715402193062436 #
End-of-ACIS-data 