700 0 2 0           
24 FBMach with ACIS - 7.0.3 13 ACIS 7.0.3 NT 24 Wed May 15 18:05:37 2002 
1 9.9999999999999995e-007 1e-010 
body $2 -1 $-1 $3 $-1 $4 #
bdycol-kcp $-1 -1 1 2 $5 $6 #
model_id-kcp-attrib $-1 -1 $-1 $-1 $0 1 1021500336 1021500336 -128188415 1 #
lump $-1 -1 $-1 $-1 $7 $0 #
transform $-1 -1 1 0 0 0 1 0 0 0 1 0 0 0 1 rotate no_reflect no_shear #
body $8 -1 $-1 $9 $-1 $10 #
body $11 -1 $-1 $12 $-1 $13 #
shell $-1 -1 $-1 $-1 $-1 $14 $-1 $3 #
model_id-kcp-attrib $-1 -1 $-1 $-1 $5 1 1021500336 1021500336 -128188414 1 #
lump $-1 -1 $-1 $-1 $15 $5 #
transform $-1 -1 1 0 0 0 1 0 0 0 1 0 0 -0.84999999999999998 1 no_rotate no_reflect no_shear #
rgb_color-st-attrib $-1 -1 $16 $-1 $6 0.5 1 1 #
lump $-1 -1 $-1 $-1 $17 $6 #
transform $-1 -1 1 0 0 0 1 0 0 0 1 0 0 -0.84999999999999998 1 no_rotate no_reflect no_shear #
face $18 -1 $-1 $19 $20 $7 $-1 $21 reversed single #
shell $-1 -1 $-1 $-1 $-1 $22 $-1 $9 #
model_id-kcp-attrib $-1 -1 $-1 $11 $6 1 1021500336 1021500337 -134217725 1 #
shell $-1 -1 $-1 $-1 $-1 $23 $-1 $12 #
model_id-kcp-attrib $-1 -1 $-1 $-1 $14 1 1021500336 1021500336 -128188415 2 #
face $24 -1 $-1 $25 $26 $7 $-1 $27 forward single #
loop $-1 -1 $-1 $-1 $28 $14 #
plane-surface $-1 -1 $-1 0 0 0 0 0 -1 -1 0 0 forward_v I I I I #
face $29 -1 $-1 $30 $31 $15 $-1 $32 forward single #
face $-1 -1 $-1 $33 $34 $17 $-1 $35 reversed single #
model_id-kcp-attrib $-1 -1 $-1 $-1 $19 1 1021500336 1021500336 -128188415 3 #
face $36 -1 $-1 $37 $38 $7 $-1 $39 forward single #
loop $-1 -1 $-1 $-1 $40 $19 #
plane-surface $-1 -1 $-1 -4 1.5 0 0 1 0 1 0 0 forward_v I I I I #
coedge $-1 -1 $-1 $41 $42 $43 $44 reversed $20 $-1 #
model_id-kcp-attrib $-1 -1 $-1 $-1 $22 1 1021500336 1021500336 -128188414 2 #
face $45 -1 $-1 $46 $47 $15 $-1 $48 reversed single #
loop $-1 -1 $-1 $-1 $49 $22 #
plane-surface $-1 -1 $-1 0 0 0.84999999999999998 0 0 1 1 0 0 forward_v I I I I #
face $-1 -1 $-1 $50 $51 $17 $-1 $52 reversed single #
loop $-1 -1 $-1 $-1 $53 $23 #
plane-surface $-1 -1 $-1 4 -0.39999999999999991 -0.15000000000000002 0 0 -1 1 0 0 forward_v I I I I #
model_id-kcp-attrib $-1 -1 $-1 $-1 $25 1 1021500336 1021500336 -128188415 4 #
face $54 -1 $-1 $55 $56 $7 $-1 $57 forward single #
loop $-1 -1 $-1 $-1 $58 $25 #
plane-surface $-1 -1 $-1 4 1.5 0 1 0 0 0 -1 0 forward_v I I I I #
coedge $-1 -1 $-1 $59 $43 $60 $61 forward $26 $-1 #
coedge $-1 -1 $-1 $62 $28 $63 $64 reversed $20 $-1 #
coedge $-1 -1 $-1 $28 $62 $65 $66 reversed $20 $-1 #
coedge $-1 -1 $-1 $40 $67 $28 $44 forward $26 $-1 #
edge $68 -1 $-1 $69 0 $70 8 $28 $71 forward @7 unknown #
model_id-kcp-attrib $-1 -1 $-1 $-1 $30 1 1021500336 1021500336 -128188414 7 #
face $72 -1 $-1 $73 $74 $15 $-1 $75 reversed single #
loop $-1 -1 $-1 $-1 $76 $30 #
plane-surface $-1 -1 $-1 0 0 -0.84999999999999998 0 0 1 1 0 0 forward_v I I I I #
coedge $-1 -1 $-1 $77 $78 $79 $80 forward $31 $-1 #
face $-1 -1 $-1 $81 $82 $17 $-1 $83 reversed single #
loop $-1 -1 $-1 $-1 $84 $33 #
plane-surface $-1 -1 $-1 0 1.5 0 0 -1 0 0 0 -1 forward_v I I I I #
coedge $-1 -1 $-1 $85 $86 $87 $88 reversed $34 $-1 #
model_id-kcp-attrib $-1 -1 $-1 $-1 $37 1 1021500336 1021500336 -128188415 5 #
face $89 -1 $-1 $90 $91 $7 $-1 $92 forward single #
loop $-1 -1 $-1 $-1 $93 $37 #
plane-surface $-1 -1 $-1 4 -1.5 0 0 -1 0 -1 0 0 forward_v I I I I #
coedge $-1 -1 $-1 $94 $65 $95 $96 forward $38 $-1 #
coedge $-1 -1 $-1 $67 $40 $97 $98 reversed $26 $-1 #
coedge $-1 -1 $-1 $65 $94 $40 $61 reversed $38 $-1 #
edge $99 -1 $-1 $70 0 $100 1 $60 $101 forward @7 unknown #
coedge $-1 -1 $-1 $42 $41 $102 $103 reversed $20 $-1 #
coedge $-1 -1 $-1 $104 $105 $41 $64 forward $91 $-1 #
edge $106 -1 $-1 $107 0 $69 3 $41 $108 forward @7 unknown #
coedge $-1 -1 $-1 $58 $60 $42 $66 forward $38 $-1 #
edge $109 -1 $-1 $70 0 $110 3 $42 $111 forward @7 unknown #
coedge $-1 -1 $-1 $43 $59 $104 $112 reversed $26 $-1 #
attrib_edge_convexity-kcp-attrib $-1 -1 $113 $-1 $44 1 #
vertex $-1 -1 $-1 $64 $114 #
vertex $-1 -1 $-1 $66 $115 #
straight-curve $-1 -1 $-1 -4 1.5 0 1 0 0 I I #
model_id-kcp-attrib $-1 -1 $-1 $-1 $46 1 1021500336 1021500336 -128188414 5 #
face $116 -1 $-1 $117 $118 $15 $-1 $119 reversed single #
loop $-1 -1 $-1 $-1 $120 $46 #
plane-surface $-1 -1 $-1 0 -1.5 0 0 1 0 0 0 1 forward_v I I I I #
coedge $-1 -1 $-1 $121 $122 $123 $124 forward $47 $-1 #
coedge $-1 -1 $-1 $125 $49 $126 $127 forward $31 $-1 #
coedge $-1 -1 $-1 $49 $125 $128 $129 forward $31 $-1 #
coedge $-1 -1 $-1 $130 $131 $49 $80 reversed $132 $-1 #
edge $-1 -1 $-1 $133 -1.5 $134 1.5 $79 $135 forward @7 unknown #
face $-1 -1 $-1 $136 $137 $17 $-1 $138 reversed single #
loop $-1 -1 $-1 $-1 $139 $50 #
plane-surface $-1 -1 $-1 4 0 0 -1 0 0 0 0 1 forward_v I I I I #
coedge $-1 -1 $-1 $140 $141 $86 $142 forward $51 $-1 #
coedge $-1 -1 $-1 $143 $53 $144 $145 reversed $34 $-1 #
coedge $-1 -1 $-1 $53 $143 $84 $142 reversed $34 $-1 #
coedge $-1 -1 $-1 $146 $147 $53 $88 forward $148 $-1 #
edge $-1 -1 $-1 $149 -1.3 $150 1.7 $87 $151 forward @7 unknown #
model_id-kcp-attrib $-1 -1 $-1 $-1 $55 1 1021500336 1021500336 -128188415 6 #
face $152 -1 $-1 $153 $154 $7 $-1 $155 forward single #
loop $-1 -1 $-1 $-1 $104 $55 #
plane-surface $-1 -1 $-1 -4 -1.5 0 -1 0 0 0 1 0 forward_v I I I I #
coedge $-1 -1 $-1 $156 $102 $105 $157 forward $56 $-1 #
coedge $-1 -1 $-1 $60 $58 $158 $159 reversed $38 $-1 #
coedge $-1 -1 $-1 $102 $156 $58 $96 reversed $56 $-1 #
edge $160 -1 $-1 $110 0 $161 1 $58 $162 forward @7 unknown #
coedge $-1 -1 $-1 $158 $163 $59 $98 forward $154 $-1 #
edge $164 -1 $-1 $165 0 $100 8 $97 $166 forward @7 unknown #
attrib_edge_convexity-kcp-attrib $-1 -1 $167 $-1 $61 1 #
vertex $-1 -1 $-1 $159 $168 #
straight-curve $-1 -1 $-1 4 1.5 0 0 0 -1 I I #
coedge $-1 -1 $-1 $93 $95 $62 $103 forward $56 $-1 #
edge $169 -1 $-1 $110 0 $107 8 $62 $170 forward @7 unknown #
coedge $-1 -1 $-1 $171 $63 $67 $112 forward $91 $-1 #
coedge $-1 -1 $-1 $63 $171 $93 $157 reversed $91 $-1 #
model_id-kcp-attrib $-1 -1 $172 $-1 $64 1 1021500336 1021500336 -128188415 20 #
vertex $-1 -1 $-1 $103 $173 #
straight-curve $-1 -1 $-1 -4 -1.5 0 0 1 0 I I #
attrib_edge_convexity-kcp-attrib $-1 -1 $174 $-1 $66 1 #
vertex $-1 -1 $-1 $66 $175 #
straight-curve $-1 -1 $-1 4 1.5 0 0 -1 0 I I #
edge $176 -1 $-1 $69 0 $165 1 $104 $177 forward @7 unknown #
convexity-sys-attrib $-1 -1 $-1 $68 $44 #
point $-1 -1 $-1 -4 1.5 0 #
point $-1 -1 $-1 4 1.5 0 #
model_id-kcp-attrib $-1 -1 $-1 $-1 $73 1 1021500336 1021500336 -128188414 6 #
face $178 -1 $-1 $179 $180 $15 $-1 $181 reversed single #
loop $-1 -1 $-1 $-1 $182 $73 #
plane-surface $-1 -1 $-1 -4 0 0 1 0 0 0 0 -1 forward_v I I I I #
coedge $-1 -1 $-1 $183 $128 $184 $185 forward $74 $-1 #
coedge $-1 -1 $-1 $186 $76 $183 $187 forward $47 $-1 #
coedge $-1 -1 $-1 $76 $186 $188 $189 forward $47 $-1 #
coedge $-1 -1 $-1 $131 $130 $76 $124 reversed $132 $-1 #
edge $-1 -1 $-1 $190 -1.5 $191 1.5 $123 $192 forward @7 unknown #
coedge $-1 -1 $-1 $78 $77 $193 $194 forward $31 $-1 #
coedge $-1 -1 $-1 $195 $196 $77 $127 reversed $180 $-1 #
edge $-1 -1 $-1 $134 -4 $197 4 $126 $198 forward @7 unknown #
coedge $-1 -1 $-1 $120 $199 $78 $129 reversed $74 $-1 #
edge $-1 -1 $-1 $200 -4 $133 4 $128 $201 forward @7 unknown #
coedge $-1 -1 $-1 $123 $79 $199 $202 forward $132 $-1 #
coedge $-1 -1 $-1 $79 $123 $195 $203 reversed $132 $-1 #
loop $-1 -1 $-1 $-1 $130 $179 #
vertex $-1 -1 $-1 $80 $204 #
vertex $-1 -1 $-1 $80 $205 #
straight-curve $-1 -1 $-1 4 0 0.84999999999999998 0 1 0 I I #
face $-1 -1 $-1 $206 $207 $17 $-1 $208 reversed single #
loop $-1 -1 $-1 $-1 $209 $81 #
plane-surface $-1 -1 $-1 0 0 -0.84999999999999998 0 0 1 1 0 0 forward_v I I I I #
coedge $-1 -1 $-1 $210 $211 $143 $212 forward $82 $-1 #
coedge $-1 -1 $-1 $213 $84 $211 $214 forward $51 $-1 #
coedge $-1 -1 $-1 $84 $213 $146 $215 reversed $51 $-1 #
edge $-1 -1 $-1 $150 -6 $216 2 $84 $217 forward @7 unknown #
coedge $-1 -1 $-1 $86 $85 $139 $212 reversed $34 $-1 #
coedge $-1 -1 $-1 $218 $219 $85 $145 forward $207 $-1 #
edge $-1 -1 $-1 $220 -2 $149 6 $144 $221 forward @7 unknown #
coedge $-1 -1 $-1 $222 $87 $141 $215 forward $148 $-1 #
coedge $-1 -1 $-1 $87 $222 $218 $223 reversed $148 $-1 #
loop $-1 -1 $-1 $-1 $87 $206 #
vertex $-1 -1 $-1 $223 $224 #
vertex $-1 -1 $-1 $215 $225 #
straight-curve $-1 -1 $-1 -4 -0.19999999999999996 -0.15000000000000002 0 1 0 I I #
model_id-kcp-attrib $-1 -1 $-1 $-1 $90 1 1021500336 1021500336 -128188415 7 #
face $226 -1 $-1 $227 $228 $7 $-1 $229 forward single #
loop $-1 -1 $-1 $230 $231 $90 #
plane-surface $-1 -1 $-1 0 0 -1 0 0 -1 -1 0 0 forward_v I I I I #
coedge $-1 -1 $-1 $95 $93 $231 $232 reversed $56 $-1 #
edge $233 -1 $-1 $107 0 $234 1 $93 $235 forward @7 unknown #
coedge $-1 -1 $-1 $231 $97 $94 $159 forward $154 $-1 #
edge $236 -1 $-1 $100 0 $161 3 $158 $237 forward @7 unknown #
attrib_edge_convexity-kcp-attrib $-1 -1 $238 $-1 $96 1 #
vertex $-1 -1 $-1 $159 $239 #
straight-curve $-1 -1 $-1 4 -1.5 0 0 0 -1 I I #
coedge $-1 -1 $-1 $97 $231 $171 $240 forward $154 $-1 #
attrib_edge_convexity-kcp-attrib $-1 -1 $241 $-1 $98 1 #
vertex $-1 -1 $-1 $98 $242 #
straight-curve $-1 -1 $-1 -4 1.5 -1 1 0 0 I I #
convexity-sys-attrib $-1 -1 $-1 $99 $61 #
point $-1 -1 $-1 4 1.5 -1 #
attrib_edge_convexity-kcp-attrib $-1 -1 $243 $-1 $103 1 #
straight-curve $-1 -1 $-1 4 -1.5 0 -1 0 0 I I #
coedge $-1 -1 $-1 $105 $104 $163 $240 reversed $91 $-1 #
attrib_edge_convexity-kcp-attrib $-1 -1 $244 $106 $64 1 #
point $-1 -1 $-1 -4 -1.5 0 #
convexity-sys-attrib $-1 -1 $-1 $109 $66 #
point $-1 -1 $-1 4 -1.5 0 #
model_id-kcp-attrib $-1 -1 $245 $-1 $112 1 1021500336 1021500336 -128188415 19 #
straight-curve $-1 -1 $-1 -4 1.5 0 0 0 -1 I I #
model_id-kcp-attrib $-1 -1 $-1 $-1 $117 1 1021500336 1021500336 -128188414 3 #
face $246 -1 $-1 $-1 $132 $15 $-1 $247 reversed single #
loop $-1 -1 $-1 $-1 $195 $117 #
plane-surface $-1 -1 $-1 0 1.5 0 0 -1 0 0 0 -1 forward_v I I I I #
coedge $-1 -1 $-1 $248 $193 $196 $249 forward $118 $-1 #
coedge $-1 -1 $-1 $199 $120 $121 $187 reversed $74 $-1 #
coedge $-1 -1 $-1 $193 $248 $120 $185 reversed $118 $-1 #
edge $-1 -1 $-1 $200 -0.84999999999999998 $250 0.84999999999999998 $184 $251 forward @7 unknown #
coedge $-1 -1 $-1 $122 $121 $248 $252 forward $47 $-1 #
edge $-1 -1 $-1 $191 -4 $250 4 $183 $253 forward @7 unknown #
coedge $-1 -1 $-1 $196 $195 $122 $189 reversed $180 $-1 #
edge $-1 -1 $-1 $254 -4 $190 4 $188 $255 forward @7 unknown #
vertex $-1 -1 $-1 $124 $256 #
vertex $-1 -1 $-1 $202 $257 #
straight-curve $-1 -1 $-1 4 0 -0.84999999999999998 0 -1 0 I I #
coedge $-1 -1 $-1 $182 $184 $125 $194 reversed $118 $-1 #
edge $-1 -1 $-1 $197 -1.5 $200 1.5 $193 $258 forward @7 unknown #
coedge $-1 -1 $-1 $188 $126 $131 $203 forward $180 $-1 #
coedge $-1 -1 $-1 $126 $188 $182 $249 reversed $180 $-1 #
vertex $-1 -1 $-1 $127 $259 #
straight-curve $-1 -1 $-1 0 1.5 0.84999999999999998 -1 0 0 I I #
coedge $-1 -1 $-1 $128 $183 $130 $202 reversed $74 $-1 #
vertex $-1 -1 $-1 $194 $260 #
straight-curve $-1 -1 $-1 0 -1.5 0.84999999999999998 1 0 0 I I #
edge $-1 -1 $-1 $133 -0.84999999999999998 $191 0.84999999999999998 $130 $261 forward @7 unknown #
edge $-1 -1 $-1 $134 -0.84999999999999998 $190 0.84999999999999998 $131 $262 forward @7 unknown #
point $-1 -1 $-1 4 -1.5 0.84999999999999998 #
point $-1 -1 $-1 4 1.5 0.84999999999999998 #
face $-1 -1 $-1 $-1 $148 $17 $-1 $263 reversed single #
loop $-1 -1 $-1 $-1 $144 $136 #
plane-surface $-1 -1 $-1 0 -1.5 0 0 1 0 0 0 1 forward_v I I I I #
coedge $-1 -1 $-1 $264 $265 $266 $267 forward $137 $-1 #
coedge $-1 -1 $-1 $266 $139 $219 $268 forward $82 $-1 #
coedge $-1 -1 $-1 $139 $266 $140 $214 reversed $82 $-1 #
edge $-1 -1 $-1 $216 -1.7 $220 1.3 $139 $269 forward @7 unknown #
coedge $-1 -1 $-1 $141 $140 $265 $270 reversed $51 $-1 #
edge $-1 -1 $-1 $216 0.15000000000000002 $271 0.84999999999999998 $211 $272 forward @7 unknown #
edge $-1 -1 $-1 $150 0.15000000000000002 $273 0.84999999999999998 $141 $274 forward @7 unknown #
vertex $-1 -1 $-1 $214 $275 #
straight-curve $-1 -1 $-1 2 1.5 -0.15000000000000002 1 0 0 I I #
coedge $-1 -1 $-1 $276 $144 $147 $223 forward $207 $-1 #
coedge $-1 -1 $-1 $144 $276 $210 $268 reversed $207 $-1 #
vertex $-1 -1 $-1 $268 $277 #
straight-curve $-1 -1 $-1 2 -1.5 -0.15000000000000002 -1 0 0 I I #
coedge $-1 -1 $-1 $147 $146 $278 $279 reversed $148 $-1 #
edge $-1 -1 $-1 $149 0.15000000000000002 $280 0.84999999999999998 $147 $281 forward @7 unknown #
point $-1 -1 $-1 -4 -1.5 -0.15000000000000002 #
point $-1 -1 $-1 -4 1.5 -0.15000000000000002 #
model_id-kcp-attrib $-1 -1 $-1 $-1 $153 1 1021500336 1021500336 -128188415 8 #
face $282 -1 $-1 $283 $284 $7 $-1 $285 forward single #
loop $-1 -1 $-1 $-1 $286 $153 #
cone-surface $-1 -1 $-1 -2.5 0 -1 0 0 -1 -0.39999999999999997 0 0 1 I I 0 1 0.39999999999999997 forward I I I I #
loop $-1 -1 $-1 $287 $288 $90 #
coedge $-1 -1 $-1 $163 $158 $156 $232 forward $154 $-1 #
edge $289 -1 $-1 $161 0 $234 8 $231 $290 forward @7 unknown #
model_id-kcp-attrib $-1 -1 $-1 $-1 $157 1 1021500336 1021500336 -128188415 21 #
vertex $-1 -1 $-1 $240 $291 #
straight-curve $-1 -1 $-1 -4 -1.5 0 0 0 -1 I I #
attrib_edge_convexity-kcp-attrib $-1 -1 $292 $-1 $159 1 #
straight-curve $-1 -1 $-1 4 1.5 -1 0 -1 0 I I #
convexity-sys-attrib $-1 -1 $-1 $160 $96 #
point $-1 -1 $-1 4 -1.5 -1 #
edge $293 -1 $-1 $234 0 $165 3 $163 $294 forward @7 unknown #
convexity-sys-attrib $-1 -1 $-1 $164 $98 #
point $-1 -1 $-1 -4 1.5 -1 #
convexity-sys-attrib $-1 -1 $-1 $169 $103 #
convexity-sys-attrib $-1 -1 $-1 $172 $64 #
attrib_edge_convexity-kcp-attrib $-1 -1 $295 $176 $112 1 #
model_id-kcp-attrib $-1 -1 $-1 $-1 $179 1 1021500336 1021500336 -128188414 4 #
plane-surface $-1 -1 $-1 4 0 0 -1 0 0 0 0 1 forward_v I I I I #
coedge $-1 -1 $-1 $184 $182 $186 $252 reversed $118 $-1 #
edge $-1 -1 $-1 $197 -0.84999999999999998 $254 0.84999999999999998 $196 $296 forward @7 unknown #
vertex $-1 -1 $-1 $252 $297 #
straight-curve $-1 -1 $-1 -4 -1.5 0 0 0 -1 I I #
edge $-1 -1 $-1 $250 -1.5 $254 1.5 $248 $298 forward @7 unknown #
straight-curve $-1 -1 $-1 0 -1.5 -0.84999999999999998 -1 0 0 I I #
vertex $-1 -1 $-1 $189 $299 #
straight-curve $-1 -1 $-1 0 1.5 -0.84999999999999998 1 0 0 I I #
point $-1 -1 $-1 4 1.5 -0.84999999999999998 #
point $-1 -1 $-1 4 -1.5 -0.84999999999999998 #
straight-curve $-1 -1 $-1 -4 0 0.84999999999999998 0 -1 0 I I #
point $-1 -1 $-1 -4 1.5 0.84999999999999998 #
point $-1 -1 $-1 -4 -1.5 0.84999999999999998 #
straight-curve $-1 -1 $-1 4 -1.5 0 0 0 -1 I I #
straight-curve $-1 -1 $-1 4 1.5 0 0 0 -1 I I #
plane-surface $-1 -1 $-1 -4 0 0 1 0 0 0 0 -1 forward_v I I I I #
coedge $-1 -1 $-1 $278 $209 $276 $300 forward $137 $-1 #
coedge $-1 -1 $-1 $209 $278 $213 $270 forward $137 $-1 #
coedge $-1 -1 $-1 $211 $210 $209 $267 reversed $82 $-1 #
edge $-1 -1 $-1 $271 -1.5 $301 1.5 $266 $302 forward @7 unknown #
edge $-1 -1 $-1 $220 0.15000000000000002 $301 0.84999999999999998 $210 $303 forward @7 unknown #
straight-curve $-1 -1 $-1 4 -0.19999999999999996 -0.15000000000000002 0 -1 0 I I #
edge $-1 -1 $-1 $273 -4 $271 4 $213 $304 forward @7 unknown #
vertex $-1 -1 $-1 $267 $305 #
straight-curve $-1 -1 $-1 4 1.5 0 0 0 -1 I I #
vertex $-1 -1 $-1 $270 $306 #
straight-curve $-1 -1 $-1 -4 1.5 0 0 0 -1 I I #
point $-1 -1 $-1 4 1.5 -0.15000000000000002 #
coedge $-1 -1 $-1 $219 $218 $264 $300 reversed $207 $-1 #
point $-1 -1 $-1 4 -1.5 -0.15000000000000002 #
coedge $-1 -1 $-1 $265 $264 $222 $279 forward $137 $-1 #
edge $-1 -1 $-1 $280 -1.5 $273 1.5 $222 $307 forward @7 unknown #
vertex $-1 -1 $-1 $279 $308 #
straight-curve $-1 -1 $-1 -4 -1.5 0 0 0 -1 I I #
model_id-kcp-attrib $-1 -1 $-1 $-1 $227 1 1021500336 1021500336 -128188415 9 #
face $309 -1 $-1 $310 $311 $7 $-1 $312 forward single #
loop $-1 -1 $-1 $-1 $313 $227 #
cone-surface $-1 -1 $-1 -2.5 0 -1 0 0 -1 -0.39999999999999997 0 0 1 I I 0 1 0.39999999999999997 forward I I I I #
coedge $-1 -1 $-1 $314 $315 $316 $317 reversed $228 $-1 #
loop $-1 -1 $-1 $-1 $318 $90 #
coedge $-1 -1 $-1 $319 $319 $314 $320 reversed $230 $-1 #
attrib_edge_convexity-kcp-attrib $-1 -1 $321 $-1 $232 1 #
straight-curve $-1 -1 $-1 4 -1.5 -1 -1 0 0 I I #
point $-1 -1 $-1 -4 -1.5 -1 #
convexity-sys-attrib $-1 -1 $-1 $236 $159 #
attrib_edge_convexity-kcp-attrib $-1 -1 $322 $-1 $240 1 #
straight-curve $-1 -1 $-1 -4 -1.5 -1 0 1 0 I I #
convexity-sys-attrib $-1 -1 $-1 $245 $112 #
straight-curve $-1 -1 $-1 -4 1.5 0 0 0 -1 I I #
point $-1 -1 $-1 -4 -1.5 -0.84999999999999998 #
straight-curve $-1 -1 $-1 -4 0 -0.84999999999999998 0 1 0 I I #
point $-1 -1 $-1 -4 1.5 -0.84999999999999998 #
edge $-1 -1 $-1 $301 -4 $280 4 $276 $323 forward @7 unknown #
vertex $-1 -1 $-1 $268 $324 #
straight-curve $-1 -1 $-1 4 0 -0.84999999999999998 0 -1 0 I I #
straight-curve $-1 -1 $-1 4 -1.5 0 0 0 -1 I I #
straight-curve $-1 -1 $-1 0 1.5 -0.84999999999999998 1 0 0 I I #
point $-1 -1 $-1 4 1.5 -0.84999999999999998 #
point $-1 -1 $-1 -4 1.5 -0.84999999999999998 #
straight-curve $-1 -1 $-1 -4 0 -0.84999999999999998 0 1 0 I I #
point $-1 -1 $-1 -4 -1.5 -0.84999999999999998 #
model_id-kcp-attrib $-1 -1 $-1 $-1 $283 1 1021500336 1021500336 -128188415 10 #
face $325 -1 $-1 $326 $327 $7 $-1 $328 forward single #
loop $-1 -1 $-1 $-1 $329 $283 #
torus-surface $-1 -1 $-1 -2.5 0 -1.5 0 0 -1 0.19999999999999996 0.19999999999999998 -0.99999563951296311 -0.0029531263196625962 0 forward_v I I I I #
coedge $-1 -1 $-1 $330 $331 $332 $333 reversed $284 $-1 #
coedge $-1 -1 $-1 $332 $286 $288 $320 forward $228 $-1 #
coedge $-1 -1 $-1 $286 $332 $334 $335 reversed $228 $-1 #
coedge $-1 -1 $-1 $331 $330 $286 $317 forward $284 $-1 #
edge $-1 -1 $-1 $336 0 $337 0.5 $316 $338 forward @7 unknown #
coedge $-1 -1 $-1 $339 $339 $340 $341 reversed $287 $-1 #
coedge $-1 -1 $-1 $288 $288 $330 $342 reversed $230 $-1 #
edge $343 -1 $-1 $336 0 $344 3.1415926535897931 $288 $345 forward @7 unknown #
convexity-sys-attrib $-1 -1 $-1 $289 $232 #
convexity-sys-attrib $-1 -1 $-1 $293 $240 #
straight-curve $-1 -1 $-1 0 -1.5 -0.84999999999999998 -1 0 0 I I #
point $-1 -1 $-1 4 -1.5 -0.84999999999999998 #
model_id-kcp-attrib $-1 -1 $-1 $-1 $310 1 1021500336 1021500336 -128188415 11 #
face $346 -1 $-1 $347 $348 $7 $-1 $349 forward single #
loop $-1 -1 $-1 $-1 $350 $310 #
torus-surface $-1 -1 $-1 -2.5 0 -1.5 0 0 -1 0.19999999999999996 0.19999999999999998 0.99999563951296311 0.0029531263196625811 0 forward_v I I I I #
coedge $-1 -1 $-1 $351 $352 $353 $354 forward $311 $-1 #
coedge $-1 -1 $-1 $316 $313 $319 $342 forward $284 $-1 #
coedge $-1 -1 $-1 $313 $316 $351 $355 reversed $284 $-1 #
coedge $-1 -1 $-1 $315 $314 $313 $333 forward $228 $-1 #
edge $-1 -1 $-1 $344 0 $356 0.5 $313 $357 forward @7 unknown #
coedge $-1 -1 $-1 $353 $350 $315 $335 forward $327 $-1 #
edge $-1 -1 $-1 $337 -5.5648302806076139e-014 $356 3.1415926535897931 $315 $358 forward @7 unknown #
vertex $-1 -1 $-1 $342 $359 #
vertex $-1 -1 $-1 $355 $360 #
straight-curve $-1 -1 $-1 -2.1000000000000001 4.8984254152895085e-017 -1 0 0 -1 I I #
coedge $-1 -1 $-1 $318 $318 $361 $362 reversed $287 $-1 #
coedge $-1 -1 $-1 $363 $364 $318 $341 forward $365 $-1 #
edge $366 -1 $-1 $367 0 $368 3.1415926535897931 $318 $369 forward @7 unknown #
edge $370 -1 $-1 $344 0 $336 3.1415926535897931 $319 $371 forward @7 unknown #
attrib_edge_convexity-kcp-attrib $-1 -1 $372 $-1 $320 2 #
vertex $-1 -1 $-1 $342 $373 #
ellipse-curve $-1 -1 $-1 -2.5 0 -1 0 0 -1 0.40000000000000036 0 0 1 I I #
model_id-kcp-attrib $-1 -1 $-1 $-1 $326 1 1021500336 1021500336 -128188415 12 #
face $374 -1 $-1 $375 $365 $7 $-1 $376 forward single #
loop $-1 -1 $-1 $-1 $377 $326 #
plane-surface $-1 -1 $-1 0 0 -1.7 0 0 -1 -1 0 0 forward_v I I I I #
coedge $-1 -1 $-1 $334 $378 $379 $380 forward $327 $-1 #
coedge $-1 -1 $-1 $379 $329 $331 $355 forward $311 $-1 #
coedge $-1 -1 $-1 $329 $379 $381 $382 reversed $311 $-1 #
coedge $-1 -1 $-1 $378 $334 $329 $354 reversed $327 $-1 #
edge $-1 -1 $-1 $383 -9.8607613152626308e-030 $356 1.5707963267949445 $329 $384 forward @7 unknown #
edge $-1 -1 $-1 $356 0 $337 3.1415926535897376 $331 $385 forward @7 unknown #
vertex $-1 -1 $-1 $355 $386 #
straight-curve $-1 -1 $-1 -2.8999999999999999 0 -1 0 0 -1 I I #
ellipse-curve $-1 -1 $-1 -2.5 0 -1.5 0 0 -1 0.40000000000000036 8.7086388447787932e-012 0 1 I I #
point $-1 -1 $-1 -2.0999999999999996 0 -1 #
point $-1 -1 $-1 -2.0999999999999996 8.7308981659012241e-012 -1.5 #
coedge $-1 -1 $-1 $387 $388 $339 $362 forward $389 $-1 #
edge $390 -1 $-1 $368 0 $367 3.1415926535897931 $339 $391 forward @7 unknown #
coedge $-1 -1 $-1 $392 $340 $388 $393 forward $365 $-1 #
coedge $-1 -1 $-1 $340 $392 $387 $394 reversed $365 $-1 #
loop $-1 -1 $-1 $-1 $364 $347 #
attrib_edge_convexity-kcp-attrib $-1 -1 $395 $-1 $341 2 #
vertex $-1 -1 $-1 $362 $396 #
vertex $-1 -1 $-1 $362 $397 #
ellipse-curve $-1 -1 $-1 1.5 0 -1 0 0 -1 0.39999999999999991 0 0 1 I I #
attrib_edge_convexity-kcp-attrib $-1 -1 $398 $-1 $342 2 #
ellipse-curve $-1 -1 $-1 -2.5 0 -1 0 0 -1 -0.39999999999999991 0 0 1 I I #
convexity-sys-attrib $-1 -1 $-1 $343 $320 #
point $-1 -1 $-1 -2.8999999999999999 0 -1 #
model_id-kcp-attrib $-1 -1 $-1 $-1 $347 1 1021500336 1021500336 -128188415 13 #
face $399 -1 $-1 $400 $389 $7 $-1 $401 forward single #
cone-surface $-1 -1 $-1 1.5 0 -1 0 0 -1 -0.39999999999999997 0 0 1 I I 0 1 0.39999999999999997 forward I I I I #
coedge $-1 -1 $-1 $381 $381 $378 $402 forward $348 $-1 #
coedge $-1 -1 $-1 $350 $353 $377 $402 reversed $327 $-1 #
coedge $-1 -1 $-1 $352 $351 $350 $380 reversed $311 $-1 #
edge $-1 -1 $-1 $403 -4.4408927948848229e-015 $337 1.5707963267949445 $379 $404 forward @7 unknown #
coedge $-1 -1 $-1 $377 $377 $352 $382 forward $348 $-1 #
edge $-1 -1 $-1 $383 0 $403 3.1415926536243903 $381 $405 forward @7 unknown #
vertex $-1 -1 $-1 $382 $406 #
ellipse-curve $-1 -1 $-1 -2.7000000000000002 -4.6713637294408893e-012 -1.4999999999999998 -2.0186405934350329e-011 1 6.0642900185543997e-012 9.7699626167013776e-015 1.2128580037110782e-012 -0.20000000000000018 1 I I #
ellipse-curve $-1 -1 $-1 -2.5 0 -1.5 0 0 -1 -0.40000000000000036 -8.7086449163109592e-012 0 1 I I #
point $-1 -1 $-1 -2.9000000000000004 -8.7086449163109592e-012 -1.5 #
coedge $-1 -1 $-1 $407 $361 $364 $394 forward $389 $-1 #
coedge $-1 -1 $-1 $361 $407 $363 $393 reversed $389 $-1 #
loop $-1 -1 $-1 $-1 $388 $375 #
attrib_edge_convexity-kcp-attrib $-1 -1 $408 $-1 $362 2 #
ellipse-curve $-1 -1 $-1 1.5 0 -1 0 0 -1 -0.40000000000000013 0 0 1 I I #
coedge $-1 -1 $-1 $364 $363 $409 $410 reversed $365 $-1 #
edge $-1 -1 $-1 $368 0 $411 0.5 $388 $412 forward @7 unknown #
edge $-1 -1 $-1 $367 0 $413 0.5 $387 $414 forward @7 unknown #
convexity-sys-attrib $-1 -1 $-1 $366 $341 #
point $-1 -1 $-1 1.8999999999999999 0 -1 #
point $-1 -1 $-1 1.0999999999999999 0 -1 #
convexity-sys-attrib $-1 -1 $-1 $370 $342 #
model_id-kcp-attrib $-1 -1 $-1 $-1 $375 1 1021500336 1021500336 -128188415 14 #
face $415 -1 $-1 $416 $417 $7 $-1 $418 forward single #
cone-surface $-1 -1 $-1 1.5 0 -1 0 0 -1 -0.39999999999999997 0 0 1 I I 0 1 0.39999999999999997 forward I I I I #
edge $-1 -1 $-1 $403 3.4497600631157284e-011 $383 3.1415926535898886 $377 $419 forward @7 unknown #
vertex $-1 -1 $-1 $382 $420 #
ellipse-curve $-1 -1 $-1 -2.2999999999999998 4.6713481823106485e-012 -1.4999999999999998 2.0186453312340706e-011 -1 6.0642274617336414e-012 -9.7699626167013776e-015 -1.2128454923469264e-012 -0.20000000000000018 1 I I #
ellipse-curve $-1 -1 $-1 -2.5000000000000004 9.9920072216264089e-015 -1.7 0 0 -1 -0.19999999999998996 -3.4684977329514375e-012 0 1 I I #
point $-1 -1 $-1 -2.6999999999999904 -3.4585057257298111e-012 -1.7 #
coedge $-1 -1 $-1 $388 $387 $421 $422 reversed $389 $-1 #
convexity-sys-attrib $-1 -1 $-1 $390 $362 #
coedge $-1 -1 $-1 $423 $424 $392 $410 forward $425 $-1 #
edge $-1 -1 $-1 $413 -5.5645592300627337e-014 $411 3.1415926535897931 $392 $426 forward @7 unknown #
vertex $-1 -1 $-1 $422 $427 #
straight-curve $-1 -1 $-1 1.1000000000000001 0 -1 0 0 -1 I I #
vertex $-1 -1 $-1 $422 $428 #
straight-curve $-1 -1 $-1 1.8999999999999999 4.8984254152895085e-017 -1 0 0 -1 I I #
model_id-kcp-attrib $-1 -1 $-1 $-1 $400 1 1021500336 1021500336 -128188415 15 #
face $429 -1 $-1 $430 $425 $7 $-1 $431 forward single #
loop $-1 -1 $-1 $-1 $432 $400 #
torus-surface $-1 -1 $-1 1.5 0 -1.5 0 0 -1 0.20000000000000015 0.19999999999999998 -0.99999563951296311 -0.0029531263196625932 0 forward_v I I I I #
ellipse-curve $-1 -1 $-1 -2.5 -9.5548569056802535e-015 -1.7 0 0 -1 0.19999999999999041 3.4680575468694024e-012 0 1 I I #
point $-1 -1 $-1 -2.3000000000000105 -3.4410174362673881e-012 -1.7 #
coedge $-1 -1 $-1 $433 $432 $407 $422 forward $417 $-1 #
edge $-1 -1 $-1 $411 0 $413 3.1415926535897376 $407 $434 forward @7 unknown #
coedge $-1 -1 $-1 $435 $409 $432 $436 reversed $425 $-1 #
coedge $-1 -1 $-1 $409 $435 $433 $437 forward $425 $-1 #
loop $-1 -1 $-1 $-1 $424 $416 #
ellipse-curve $-1 -1 $-1 1.5 0 -1.5 0 0 -1 0.39999999999999991 8.7086388447787932e-012 0 1 I I #
point $-1 -1 $-1 1.0999999999999999 -8.7086438321087834e-012 -1.5 #
point $-1 -1 $-1 1.9000000000000001 8.7308970816990484e-012 -1.5 #
model_id-kcp-attrib $-1 -1 $-1 $-1 $416 1 1021500336 1021500336 -128188415 16 #
face $438 -1 $-1 $-1 $439 $7 $-1 $440 forward single #
torus-surface $-1 -1 $-1 1.5 0 -1.5 0 0 -1 0.19999999999999996 0.19999999999999998 0.99999563951296311 0.0029531263196625811 0 forward_v I I I I #
coedge $-1 -1 $-1 $421 $441 $423 $436 forward $417 $-1 #
coedge $-1 -1 $-1 $441 $421 $424 $437 reversed $417 $-1 #
ellipse-curve $-1 -1 $-1 1.5 0 -1.5 0 0 -1 -0.40000000000000013 -8.7086438321087834e-012 0 1 I I #
coedge $-1 -1 $-1 $424 $423 $442 $443 reversed $425 $-1 #
edge $-1 -1 $-1 $444 0 $411 1.570796326794949 $432 $445 forward @7 unknown #
edge $-1 -1 $-1 $446 -2.2204467456344972e-015 $413 1.5707963267949445 $433 $447 forward @7 unknown #
model_id-kcp-attrib $-1 -1 $-1 $-1 $430 1 1021500336 1021500336 -128188415 17 #
loop $-1 -1 $-1 $-1 $442 $430 #
plane-surface $-1 -1 $-1 0 0 -1.7 0 0 -1 -1 0 0 forward_v I I I I #
coedge $-1 -1 $-1 $432 $433 $448 $449 reversed $417 $-1 #
coedge $-1 -1 $-1 $448 $448 $435 $443 forward $439 $-1 #
edge $-1 -1 $-1 $446 3.4497603341662754e-011 $444 3.1415926535898895 $442 $450 forward @7 unknown #
vertex $-1 -1 $-1 $449 $451 #
ellipse-curve $-1 -1 $-1 1.2999999999999996 -4.6710584926834054e-012 -1.5000000000000002 -2.018792669712689e-011 1 6.0636550489527615e-012 1.021405182655144e-014 1.2127310097907569e-012 -0.19999999999999973 1 I I #
vertex $-1 -1 $-1 $449 $452 #
ellipse-curve $-1 -1 $-1 1.7 4.6713486291450973e-012 -1.5 2.0186451078168484e-011 -1 6.0642296959058834e-012 -9.5479180117763462e-015 -1.2128459391813691e-012 -0.19999999999999996 1 I I #
coedge $-1 -1 $-1 $442 $442 $441 $449 forward $439 $-1 #
edge $-1 -1 $-1 $444 0 $446 3.1415926536243881 $448 $453 forward @7 unknown #
ellipse-curve $-1 -1 $-1 1.5 -9.5617957995841607e-015 -1.7 0 0 -1 0.19999999999999041 3.4680644857633123e-012 0 1 I I #
point $-1 -1 $-1 1.3000000000000098 -3.4583274828926484e-012 -1.7 #
point $-1 -1 $-1 1.69999999999999 -3.4410179783684837e-012 -1.7 #
ellipse-curve $-1 -1 $-1 1.4999999999999998 9.8393515557404498e-015 -1.7 0 0 -1 -0.19999999999998996 -3.4681668344483889e-012 0 1 I I #
End-of-ACIS-data 