600 0 1 0           
97 GICL Pro/E ACIS Translator - Source: f:/data5/repository/PTC/V18/fly_small18/fin_lenzu1.prt - 6 0 13 ACIS 6.0.3 NT 24 Thu Apr 04 10:01:35 2002 
1 9.9999999999999995e-007 1e-010 
body $-1 $1 $-1 $-1 #
lump $-1 $-1 $2 $0 #
shell $-1 $-1 $-1 $3 $-1 $1 #
face $-1 $4 $5 $2 $-1 $6 reversed single #
face $-1 $7 $8 $2 $-1 $9 forward single #
loop $-1 $-1 $10 $3 #
spline-surface $-1 forward { exactsur full nurbs 3 3 both open open none none 5 5 
	-3.5 3 -1.75 2 0 2 1.75 2 3.5 3 
	-3.5 3 -2.25 2 -1 2 0.25 2 1.5 3 
	3.5 -2.5 1 1 
	2.9166666666666665 -2.5 1 1 
	2.3333333333333335 -2.5 1 1 
	1.1666666666666665 -2.5 1 1 
	0.58333333333333337 -2.5 1 1 
	-0.58333333333333337 -2.5 1 1 
	-1.1666666666666665 -2.5 1 1 
	-2.3333333333333335 -2.5 1 1 
	-2.9166666666666665 -2.5 1 1 
	-3.5 -2.5 1 1 
	3.5 -2.0833333333333335 1 1 
	2.9230136692173443 -2.0936253486573331 1.0824127565320052 1 
	2.3412670865216807 -2.1056360961201057 1.1430257139521955 1 
	1.1730136692173447 -2.1245115833836494 1.2230452505265725 1 
	0.58650683460867292 -2.1313763231844218 1.2424518296807596 1 
	-0.58650683460866981 -2.1313763231844209 1.2424518296807552 1 
	-1.1730136692173403 -2.1245115833836485 1.2230452505265641 1 
	-2.3412670865216758 -2.1056360961201048 1.1430257139521849 1 
	-2.9230136692173403 -2.0936253486573326 1.0824127565319963 1 
	-3.5 -2.0833333333333335 1 1 
	3.5 -1.6666666666666667 1 1 
	2.9310682848997609 -1.6795316858216665 1.1442576099593136 1 
	2.351335356124701 -1.6945451201501316 1.2513130947927844 1 
	1.1810682848997613 -1.7181394792295619 1.3932952594800683 1 
	0.59053414244988101 -1.7267204039805266 1.4282219393338813 1 
	-0.59053414244987801 -1.7267204039805266 1.4282219393338769 1 
	-1.1810682848997565 -1.7181394792295608 1.3932952594800589 1 
	-2.3513353561246961 -1.6945451201501305 1.2513130947927724 1 
	-2.9310682848997569 -1.6795316858216658 1.1442576099593038 1 
	-3.5 -1.6666666666666667 1 1 
	3.5 -0.83333333333333326 1 1 
	2.9440040149892543 -0.84362534865733352 1.2267409385479267 1 
	2.3675050187365683 -0.85563609612010549 1.3963749994978634 1 
	1.1940040149892548 -0.8745115833836492 1.6222726521237729 1 
	0.59700200749462817 -0.88137632318442094 1.6785362437997453 1 
	-0.59700200749462518 -0.88137632318442094 1.6785362437997418 1 
	-1.1940040149892517 -0.87451158338364854 1.6222726521237658 1 
	-2.3675050187365652 -0.85563609612010483 1.3963749994978545 1 
	-2.9440040149892521 -0.84362534865733285 1.2267409385479195 1 
	-3.5 -0.83333333333333326 1 1 
	3.5 -0.41666666666666669 1 1 
	2.9488851293963316 -0.42181267432866715 1.247379413709232 1 
	2.3736064117454152 -0.42781804806005208 1.4331495233623535 1 
	1.1988851293963321 -0.4372557916918246 1.6810000358139818 1 
	0.5994425646981657 -0.44068816159221075 1.7430804386124872 1 
	-0.5994425646981657 -0.44068816159221075 1.743080438612485 1 
	-1.1988851293963307 -0.43725579169182405 1.6810000358139778 1 
	-2.3736064117454143 -0.42781804806005153 1.4331495233623495 1 
	-2.9488851293963316 -0.42181267432866687 1.247379413709228 1 
	-3.5 -0.41666666666666669 1 1 
	3.5 0.41666666666666669 1 1 
	2.9488851293963316 0.42181267432866504 1.2473794137092298 1 
	2.3736064117454152 0.42781804806005208 1.4331495233623521 1 
	1.1988851293963321 0.4372557916918246 1.6810000358139805 1 
	0.5994425646981657 0.44068816159221075 1.7430804386124872 1 
	-0.5994425646981657 0.44068816159221075 1.743080438612485 1 
	-1.1988851293963307 0.43725579169182405 1.6810000358139756 1 
	-2.3736064117454143 0.42781804806005153 1.4331495233623455 1 
	-2.9488851293963316 0.42181267432866421 1.2473794137092249 1 
	-3.5 0.41666666666666669 1 1 
	3.5 0.83333333333333326 1 1 
	2.9440040149892543 0.84362534865733063 1.2267409385479227 1 
	2.3675050187365678 0.85563609612010316 1.3963749994978596 1 
	1.1940040149892548 0.87451158338364932 1.6222726521237705 1 
	0.59700200749462817 0.88137632318442216 1.6785362437997446 1 
	-0.5970020074946254 0.88137632318442216 1.6785362437997402 1 
	-1.1940040149892517 0.87451158338364809 1.6222726521237611 1 
	-2.3675050187365652 0.8556360961201015 1.3963749994978476 1 
	-2.9440040149892517 0.84362534865732941 1.2267409385479131 1 
	-3.5 0.83333333333333326 1 1 
	3.5 1.6666666666666667 1 1 
	2.9310682848997609 1.6795316858216636 1.1442576099593083 1 
	2.3513353561247006 1.6945451201501291 1.2513130947927793 1 
	1.1810682848997605 1.7181394792295612 1.3932952594800654 1 
	0.59053414244988078 1.726720403980528 1.4282219393338806 1 
	-0.59053414244987801 1.726720403980528 1.4282219393338744 1 
	-1.1810682848997565 1.7181394792295599 1.3932952594800529 1 
	-2.3513353561246961 1.6945451201501269 1.2513130947927633 1 
	-2.9310682848997565 1.679531685821662 1.1442576099592956 1 
	-3.5 1.6666666666666667 1 1 
	3.5 2.0833333333333335 1 1 
	2.9230136692173443 2.0936253486573309 1.0824127565320012 1 
	2.3412670865216803 2.1056360961201031 1.1430257139521915 1 
	1.1730136692173438 2.1245115833836494 1.2230452505265703 1 
	0.5865068346086727 2.1313763231844232 1.242451829680759 1 
	-0.5865068346086697 2.1313763231844223 1.2424518296807532 1 
	-1.1730136692173405 2.1245115833836477 1.2230452505265592 1 
	-2.3412670865216754 2.1056360961201013 1.1430257139521778 1 
	-2.9230136692173394 2.09362534865733 1.0824127565319899 1 
	-3.5 2.0833333333333335 1 1 
	3.5 2.5 1 1 
	2.9166666666666665 2.5 1 1 
	2.3333333333333335 2.5 1 1 
	1.1666666666666665 2.5 1 1 
	0.58333333333333337 2.5 1 1 
	-0.58333333333333337 2.5 1 1 
	-1.1666666666666665 2.5 1 1 
	-2.3333333333333335 2.5 1 1 
	-2.9166666666666665 2.5 1 1 
	-3.5 2.5 1 1 
	0 
	0 
	0 
	1 0 
	0 
	0 
	1 -1 
	F 1 F 0 F 1 F 0 } I I I I #
face $-1 $11 $12 $2 $-1 $13 forward single #
loop $-1 $-1 $14 $4 #
plane-surface $-1 -3.5 2.5 1 0 1 0 1 0 0 forward_v I I I I #
coedge $-1 $15 $16 $17 $18 reversed $5 $19 #
face $-1 $20 $21 $2 $-1 $22 forward single #
loop $-1 $-1 $23 $7 #
plane-surface $-1 3.5 2.5 1 1 0 0 0 -1 0 forward_v I I I I #
coedge $-1 $24 $17 $25 $26 forward $8 $-1 #
coedge $-1 $27 $10 $28 $29 reversed $5 $30 #
coedge $-1 $10 $27 $31 $32 reversed $5 $33 #
coedge $-1 $14 $34 $10 $18 forward $8 $-1 #
edge $-1 $35 0 $36 7 $10 $37 forward 7 unknown #
pcurve $-1 0 forward { exppc nurbs 3 open 2 
	-7 3 0 3 
	-3.5 1.5 1 
	-1.1666666666666665 1.5 1 
	1.1666666666666665 1.5 1 
	3.5 1.5 1 
	0.001 
	spline forward { ref 0 } I I I I 
	} 0 0 #
face $-1 $38 $39 $2 $-1 $40 forward single #
loop $-1 $-1 $41 $11 #
plane-surface $-1 3.5 -2.5 1 0 -1 0 -1 0 0 forward_v I I I I #
coedge $-1 $42 $31 $43 $44 forward $12 $-1 #
coedge $-1 $34 $14 $45 $46 reversed $8 $-1 #
coedge $-1 $31 $42 $14 $26 reversed $12 $-1 #
edge $-1 $36 0 $47 2 $25 $48 forward 7 unknown #
coedge $-1 $16 $15 $49 $50 reversed $5 $51 #
coedge $-1 $52 $53 $15 $29 forward $39 $-1 #
edge $-1 $54 0 $35 5 $15 $55 forward 7 unknown #
pcurve $-1 0 forward { exppc nurbs 3 open 2 
	-5 3 0 3 
	3.5 1.5 1 
	3.4999999999999996 -0.16666666666666652 1 
	3.4999999999999996 -1.833333333333333 1 
	3.5 -3.5 1 
	0.001 
	spline forward { ref 0 } I I I I 
	} 0 0 #
coedge $-1 $23 $25 $16 $32 forward $12 $-1 #
edge $-1 $36 0 $56 5 $16 $57 forward 7 unknown #
pcurve $-1 0 forward { exppc nurbs 3 open 2 
	-5 3 0 3 
	-3.5 -3.5 1 
	-3.4999999999999996 -1.833333333333333 1 
	-3.4999999999999996 -0.16666666666666652 1 
	-3.5 1.5 1 
	0.001 
	spline forward { ref 0 } I I I I 
	} 0 0 #
coedge $-1 $17 $24 $52 $58 reversed $8 $-1 #
vertex $-1 $29 $59 #
vertex $-1 $32 $60 #
straight-curve $-1 -3.5 2.5 1 1 0 0 I I #
face $-1 $-1 $61 $2 $-1 $62 forward single #
loop $-1 $-1 $52 $20 #
plane-surface $-1 -3.5 -2.5 1 -1 0 0 0 1 0 forward_v I I I I #
coedge $-1 $63 $49 $53 $64 forward $21 $-1 #
coedge $-1 $25 $23 $65 $66 reversed $12 $-1 #
coedge $-1 $49 $63 $23 $44 reversed $21 $-1 #
edge $-1 $56 0 $67 2 $23 $68 forward 7 unknown #
coedge $-1 $65 $69 $24 $46 forward $61 $70 #
edge $-1 $71 0 $47 7 $45 $72 forward 7 unknown #
vertex $-1 $66 $73 #
straight-curve $-1 3.5 2.5 1 0 0 -1 I I #
coedge $-1 $41 $43 $27 $50 forward $21 $-1 #
edge $-1 $56 0 $54 7 $27 $74 forward 7 unknown #
pcurve $-1 0 forward { exppc nurbs 3 open 2 
	-7 3 0 3 
	3.5 -3.5 1 
	1.1666666666666665 -3.4999999999999996 1 
	-1.1666666666666665 -3.4999999999999996 1 
	-3.5 -3.5 1 
	0.001 
	spline forward { ref 0 } I I I I 
	} 0 0 #
coedge $-1 $75 $28 $34 $58 forward $39 $-1 #
coedge $-1 $28 $75 $41 $64 reversed $39 $-1 #
vertex $-1 $50 $76 #
straight-curve $-1 -3.5 -2.5 1 0 1 0 I I #
vertex $-1 $32 $77 #
straight-curve $-1 3.5 2.5 1 0 -1 0 I I #
edge $-1 $35 0 $71 2 $52 $78 forward 7 unknown #
point $-1 -3.5 2.5 1 #
point $-1 3.5 2.5 1 #
loop $-1 $-1 $79 $38 #
spline-surface $-1 forward { exactsur full nurbs 3 3 both open open none none 5 5 
	-2.5 3 -1.25 2 0 2 1.25 2 2.5 3 
	-1.2797868020697711 3 0.47021319793022887 2 2.2202131979302289 2 3.9702131979302289 2 5.7202131979302289 3 
	-3.5 -2.5 -1 1 
	-3.5 -2.0833333333333335 -1 1 
	-3.5 -1.6666666666666667 -1 1 
	-3.5 -0.83333333333333326 -1 1 
	-3.5 -0.41666666666666669 -1 1 
	-3.5 0.41666666666666669 -1 1 
	-3.5 0.83333333333333326 -1 1 
	-3.5 1.6666666666666667 -1 1 
	-3.5 2.0833333333333335 -1 1 
	-3.5 2.5 -1 1 
	-2.9166666666666665 -2.5 -1 1 
	-2.9273204055040263 -2.0935487736887719 -0.90024840732380984 1 
	-2.939701731376088 -1.6794359671109651 -0.82722819405902037 1 
	-2.9591375137015312 -0.84354877368877212 -0.7310635638675359 1 
	-2.9661919701549122 -0.42177438684438601 -0.70791914694084124 1 
	-2.9661919701549122 0.42177438684438601 -0.70791914694084124 1 
	-2.9591375137015312 0.84354877368877157 -0.73106356386753601 1 
	-2.939701731376088 1.6794359671109653 -0.82722819405902048 1 
	-2.9273204055040267 2.0935487736887723 -0.90024840732381017 1 
	-2.9166666666666665 2.5 -1 1 
	-2.3333333333333335 -2.5 -1 1 
	-2.346650506880033 -2.1074823213868217 -0.82641623194233738 1 
	-2.36212716422011 -1.6968529017335272 -0.69775906049669378 1 
	-2.3864218921269136 -0.85748232138682168 -0.52723660163423769 1 
	-2.3952399626936405 -0.42874116069341078 -0.48537131421742541 1 
	-2.3952399626936405 0.42874116069341078 -0.48537131421742541 1 
	-2.3864218921269136 0.85748232138682112 -0.52723660163423824 1 
	-2.36212716422011 1.6968529017335268 -0.69775906049669456 1 
	-2.3466505068800334 2.1074823213868217 -0.82641623194233815 1 
	-2.3333333333333335 2.5 -1 1 
	-1.1666666666666665 -2.5 -1 1 
	-1.1773204055040267 -2.1302416966052014 -0.72862767751748803 1 
	-1.189701731376088 -1.7253021207565022 -0.52520669634253114 1 
	-1.2091375137015312 -0.88024169660520224 -0.2540508952338737 1 
	-1.2161919701549126 -0.44012084830260062 -0.18631607530017358 1 
	-1.2161919701549126 0.44012084830260062 -0.18631607530017358 1 
	-1.2091375137015312 0.88024169660520057 -0.25405089523387547 1 
	-1.189701731376088 1.7253021207565014 -0.52520669634253336 1 
	-1.1773204055040263 2.1302416966052005 -0.72862767751748991 1 
	-1.1666666666666665 2.5 -1 1 
	-0.58333333333333337 -2.5 -1 1 
	-0.58866020275201369 -2.1390675241255321 -0.70467129847411092 1 
	-0.5948508656880438 -1.736334405156915 -0.48212346575069476 1 
	-0.60456875685076517 -0.88906752412553258 -0.18469215106680825 1 
	-0.60809598507745588 -0.44453376206276696 -0.10980866910633685 1 
	-0.60809598507745588 0.44453376206276429 -0.10980866910633855 1 
	-0.60456875685076517 0.88906752412553047 -0.18469215106681075 1 
	-0.5948508656880438 1.7363344051569136 -0.48212346575069814 1 
	-0.58866020275201369 2.1390675241255304 -0.70467129847411347 1 
	-0.58333333333333337 2.5 -1 1 
	0.58333333333333337 -2.5 -1 1 
	0.58866020275201258 -2.1390675241255321 -0.70467129847411203 1 
	0.5948508656880438 -1.736334405156915 -0.48212346575069698 1 
	0.60456875685076517 -0.88906752412553258 -0.18469215106681047 1 
	0.60809598507745588 -0.44453376206276696 -0.10980866910634016 1 
	0.60809598507745588 0.44453376206276429 -0.10980866910634185 1 
	0.60456875685076517 0.88906752412552892 -0.18469215106681469 1 
	0.5948508656880438 1.7363344051569114 -0.48212346575070197 1 
	0.58866020275201247 2.1390675241255295 -0.70467129847411614 1 
	0.58333333333333337 2.5 -1 1 
	1.1666666666666665 -2.5 -1 1 
	1.1773204055040258 -2.1302416966052009 -0.72862767751749014 1 
	1.1897017313760867 -1.7253021207565018 -0.52520669634253458 1 
	1.2091375137015294 -0.88024169660520268 -0.25405089523387903 1 
	1.2161919701549109 -0.44012084830260201 -0.18631607530017905 1 
	1.2161919701549109 0.44012084830259779 -0.18631607530018138 1 
	1.209137513701529 0.88024169660519747 -0.2540508952338838 1 
	1.1897017313760858 1.7253021207564978 -0.52520669634254069 1 
	1.1773204055040249 2.1302416966051987 -0.72862767751749513 1 
	1.1666666666666665 2.5 -1 1 
	2.3333333333333335 -2.5 -1 1 
	2.3466505068800325 -2.1074823213868212 -0.82641623194234015 1 
	2.3621271642201092 -1.6968529017335268 -0.69775906049669789 1 
	2.3864218921269127 -0.85748232138682212 -0.52723660163424446 1 
	2.3952399626936387 -0.42874116069341195 -0.48537131421743274 1 
	2.3952399626936387 0.42874116069340773 -0.48537131421743496 1 
	2.3864218921269109 0.85748232138681735 -0.5272366016342489 1 
	2.3621271642201083 1.6968529017335232 -0.69775906049670366 1 
	2.3466505068800316 2.107482321386819 -0.8264162319423447 1 
	2.3333333333333335 2.5 -1 1 
	2.9166666666666665 -2.5 -1 1 
	2.9273204055040258 -2.0935487736887715 -0.90024840732381195 1 
	2.9397017313760871 -1.6794359671109649 -0.82722819405902348 1 
	2.9591375137015294 -0.84354877368877235 -0.73106356386754123 1 
	2.9661919701549113 -0.42177438684438695 -0.70791914694084723 1 
	2.9661919701549113 0.42177438684438362 -0.70791914694084901 1 
	2.9591375137015286 0.84354877368876857 -0.73106356386754467 1 
	2.9397017313760854 1.679435967110962 -0.82722819405902781 1 
	2.9273204055040254 2.0935487736887701 -0.90024840732381528 1 
	2.9166666666666665 2.5 -1 1 
	3.5 -2.5 -1 1 
	3.5 -2.0833333333333335 -1 1 
	3.5 -1.6666666666666667 -1 1 
	3.5 -0.83333333333333326 -1 1 
	3.5 -0.41666666666666669 -1 1 
	3.5 0.41666666666666669 -1 1 
	3.5 0.83333333333333326 -1 1 
	3.5 1.6666666666666667 -1 1 
	3.5 2.0833333333333335 -1 1 
	3.5 2.5 -1 1 
	0 
	0 
	0 
	1 0 
	0 
	0 
	1 2.2202131979302289 
	F 1 F 0 F 1 F 0 } I I I I #
coedge $-1 $43 $41 $79 $80 reversed $21 $-1 #
edge $-1 $54 0 $81 2 $41 $82 forward 7 unknown #
coedge $-1 $79 $45 $42 $66 forward $61 $83 #
edge $-1 $47 0 $67 5 $65 $84 forward 7 unknown #
vertex $-1 $66 $85 #
straight-curve $-1 3.5 -2.5 1 0 0 -1 I I #
coedge $-1 $45 $79 $75 $86 forward $61 $87 #
pcurve $-1 0 forward { exppc nurbs 3 open 2 
	0 3 7 3 
	2.5 -1.2797868020697711 1 
	2.5 1.0535465312635623 1 
	2.5 3.3868798645968954 1 
	2.5 5.7202131979302289 1 
	0.001 
	spline forward { ref 5 } I I I I 
	} 0 0 #
vertex $-1 $46 $88 #
straight-curve $-1 -3.5 2.5 -1 1 0 0 I I #
point $-1 3.5 2.5 -1 #
straight-curve $-1 3.5 -2.5 1 -1 0 0 I I #
coedge $-1 $53 $52 $69 $86 reversed $39 $-1 #
point $-1 -3.5 -2.5 1 #
point $-1 3.5 -2.5 1 #
straight-curve $-1 -3.5 2.5 1 0 0 -1 I I #
coedge $-1 $69 $65 $63 $80 forward $61 $89 #
edge $-1 $67 0 $81 7 $79 $90 forward 7 unknown #
vertex $-1 $86 $91 #
straight-curve $-1 -3.5 -2.5 1 0 0 -1 I I #
pcurve $-1 0 forward { exppc nurbs 3 open 2 
	0 3 5 3 
	2.5 5.7202131979302289 1 
	0.83333333333333304 5.7202131979302289 1 
	-0.83333333333333304 5.7202131979302289 1 
	-2.5 5.7202131979302289 1 
	0.001 
	spline forward { ref 5 } I I I I 
	} 0 0 #
straight-curve $-1 3.5 2.5 -1 0 -1 0 I I #
point $-1 3.5 -2.5 -1 #
edge $-1 $81 0 $71 5 $69 $92 forward 7 unknown #
pcurve $-1 0 forward { exppc nurbs 3 open 2 
	0 3 5 3 
	-2.5 -1.2797868020697711 1 
	-0.83333333333333304 -1.2797868020697711 1 
	0.83333333333333304 -1.2797868020697711 1 
	2.5 -1.2797868020697711 1 
	0.001 
	spline forward { ref 5 } I I I I 
	} 0 0 #
point $-1 -3.5 2.5 -1 #
pcurve $-1 0 forward { exppc nurbs 3 open 2 
	0 3 7 3 
	-2.5 5.7202131979302289 1 
	-2.5 3.3868798645968954 1 
	-2.5 1.0535465312635623 1 
	-2.5 -1.2797868020697711 1 
	0.001 
	spline forward { ref 5 } I I I I 
	} 0 0 #
straight-curve $-1 3.5 -2.5 -1 -1 0 0 I I #
point $-1 -3.5 -2.5 -1 #
straight-curve $-1 -3.5 -2.5 -1 0 1 0 I I #
End-of-ACIS-data 