600 0 1 0           
97 GICL Pro/E ACIS Translator - Source: f:/data5/repository/PTC/V18/fly_small18/fin_slide1.prt - 6 0 13 ACIS 6.0.3 NT 24 Thu Apr 04 10:01:16 2002 
1 9.9999999999999995e-007 1e-010 
body $-1 $1 $-1 $-1 #
lump $-1 $-1 $2 $0 #
shell $-1 $-1 $-1 $3 $-1 $1 #
face $-1 $4 $5 $2 $-1 $6 reversed single #
face $-1 $7 $8 $2 $-1 $9 forward single #
loop $-1 $10 $11 $3 #
plane-surface $-1 0 0 0 0 0 -1 -1 0 0 forward_v I I I I #
face $-1 $12 $13 $2 $-1 $14 forward single #
loop $-1 $-1 $15 $4 #
plane-surface $-1 -7 -2.6999999999999997 0 -1 0 0 0 1 0 forward_v I I I I #
loop $-1 $16 $17 $3 #
coedge $-1 $18 $19 $20 $21 reversed $5 $-1 #
face $-1 $22 $23 $2 $-1 $24 forward single #
loop $-1 $-1 $25 $7 #
cone-surface $-1 -6.1999999999999993 -2 -5.0050001222505855 0 0 1 -0.79999999999999993 0 0 1 I I 0 1 0.79999999999999993 forward I I I I #
coedge $-1 $26 $27 $28 $29 reversed $8 $-1 #
loop $-1 $-1 $30 $3 #
coedge $-1 $31 $31 $32 $33 forward $10 $-1 #
coedge $-1 $34 $11 $35 $36 reversed $5 $-1 #
coedge $-1 $11 $37 $38 $39 forward $5 $-1 #
coedge $-1 $40 $41 $11 $21 forward $8 $-1 #
edge $-1 $42 0 $43 0.69999999999999973 $11 $44 forward 7 unknown #
face $-1 $45 $46 $2 $-1 $47 forward single #
loop $-1 $-1 $48 $12 #
plane-surface $-1 -7 -1.2 0 0 1 0 1 0 0 forward_v I I I I #
coedge $-1 $49 $50 $51 $52 reversed $13 $-1 #
coedge $-1 $41 $15 $53 $54 reversed $8 $-1 #
coedge $-1 $15 $55 $56 $57 reversed $8 $-1 #
coedge $-1 $50 $49 $15 $29 forward $13 $-1 #
edge $-1 $58 0 $59 0.99999999999999911 $15 $60 forward 7 unknown #
coedge $-1 $61 $62 $63 $64 reversed $16 $-1 #
coedge $-1 $17 $17 $65 $66 forward $10 $-1 #
coedge $-1 $67 $68 $17 $33 reversed $69 $-1 #
edge $-1 $70 0 $71 3.1415926535897931 $17 $72 forward 7 unknown #
coedge $-1 $73 $18 $74 $75 reversed $5 $-1 #
coedge $-1 $76 $77 $18 $36 forward $78 $-1 #
edge $-1 $79 0 $42 2.5 $18 $80 forward 7 unknown #
coedge $-1 $19 $81 $82 $83 reversed $5 $-1 #
coedge $-1 $84 $85 $19 $39 reversed $86 $-1 #
edge $-1 $87 0 $43 1.5707963267948972 $19 $88 forward 7 unknown #
coedge $-1 $89 $20 $85 $90 reversed $8 $-1 #
coedge $-1 $20 $26 $76 $91 reversed $8 $-1 #
vertex $-1 $36 $92 #
vertex $-1 $39 $93 #
straight-curve $-1 -7 -2.6999999999999997 0 0 1 0 I I #
face $-1 $94 $95 $2 $-1 $96 reversed single #
loop $-1 $-1 $97 $22 #
plane-surface $-1 -5.5 -2.6999999999999997 0 -1 0 0 0 0 1 forward_v I I I I #
coedge $-1 $98 $99 $100 $101 reversed $23 $-1 #
coedge $-1 $28 $25 $102 $103 reversed $13 $-1 #
coedge $-1 $25 $28 $104 $105 reversed $13 $-1 #
coedge $-1 $99 $106 $25 $52 forward $23 $-1 #
edge $-1 $107 0 $108 0.99999999999999911 $51 $109 forward 7 unknown #
coedge $-1 $102 $110 $26 $54 forward $111 $-1 #
edge $-1 $112 0 $58 0.69999999999999973 $53 $113 forward 7 unknown #
coedge $-1 $27 $89 $114 $115 reversed $8 $-1 #
coedge $-1 $116 $104 $27 $57 forward $95 $-1 #
edge $-1 $59 0 $117 0.40000000000000013 $27 $118 forward 7 unknown #
vertex $-1 $103 $119 #
vertex $-1 $57 $120 #
straight-curve $-1 -7 -2 -4.9999999999999991 0 0 1 I I #
coedge $-1 $121 $30 $122 $123 reversed $16 $-1 #
coedge $-1 $30 $121 $124 $125 reversed $16 $-1 #
coedge $-1 $126 $127 $30 $64 forward $128 $-1 #
edge $-1 $129 0 $130 5.5 $30 $131 forward 7 unknown #
coedge $-1 $132 $133 $31 $66 reversed $134 $-1 #
edge $-1 $71 0 $70 3.1415926535897931 $31 $135 forward 7 unknown #
coedge $-1 $136 $32 $133 $137 forward $69 $-1 #
coedge $-1 $32 $136 $132 $138 reversed $69 $-1 #
loop $-1 $-1 $68 $139 #
vertex $-1 $66 $140 #
vertex $-1 $66 $141 #
ellipse-curve $-1 -6.1999999999999993 -1.8999999999999999 0 0 0 -1 0.34999999999999964 0 0 1 I I #
coedge $-1 $142 $34 $143 $144 reversed $5 $-1 #
coedge $-1 $145 $146 $34 $75 forward $147 $-1 #
edge $-1 $148 0 $79 0.050000000000000266 $34 $149 forward 7 unknown #
coedge $-1 $150 $35 $41 $91 forward $78 $-1 #
coedge $-1 $35 $151 $145 $152 reversed $78 $-1 #
loop $-1 $-1 $35 $153 #
vertex $-1 $75 $154 #
straight-curve $-1 -4.5 -2.6999999999999997 0 -1 0 0 I I #
coedge $-1 $37 $155 $156 $157 reversed $5 $-1 #
coedge $-1 $158 $159 $37 $83 forward $23 $-1 #
edge $-1 $87 0 $160 1.6999999999999993 $37 $161 forward 7 unknown #
coedge $-1 $162 $38 $159 $163 reversed $86 $-1 #
coedge $-1 $38 $162 $40 $90 forward $86 $-1 #
loop $-1 $-1 $85 $164 #
vertex $-1 $39 $165 #
ellipse-curve $-1 -6.1999999999999993 -1.9999999999999996 0 0 0 1 0 0.79999999999999938 0 1 I I #
coedge $-1 $55 $40 $166 $167 forward $8 $-1 #
edge $-1 $168 0 $43 1 $40 $169 forward 7 unknown #
edge $-1 $42 0 $112 5 $76 $170 forward 7 unknown #
point $-1 -7 -2.6999999999999997 0 #
point $-1 -6.9999999999999991 -2 0 #
face $-1 $171 $172 $2 $-1 $173 reversed single #
loop $-1 $174 $116 $45 #
plane-surface $-1 -7 -1.2 -4 0 0 -1 0 -1 0 forward_v I I I I #
coedge $-1 $175 $100 $176 $177 forward $46 $-1 #
coedge $-1 $159 $48 $178 $179 reversed $23 $-1 #
coedge $-1 $48 $51 $180 $181 forward $23 $-1 #
coedge $-1 $97 $182 $48 $101 forward $46 $-1 #
edge $-1 $183 0 $184 3 $48 $185 forward 7 unknown #
coedge $-1 $186 $53 $49 $103 forward $111 $-1 #
edge $-1 $58 0 $107 1.5707963267948972 $102 $187 forward 7 unknown #
coedge $-1 $56 $180 $50 $105 forward $95 $-1 #
edge $-1 $108 1.1102230246251558e-015 $59 1.5707963267948959 $50 $188 forward 7 unknown #
coedge $-1 $51 $189 $186 $190 reversed $23 $-1 #
vertex $-1 $103 $191 #
vertex $-1 $181 $192 #
straight-curve $-1 -6.1999999999999993 -1.2 -4.9999999999999991 0 0 1 I I #
coedge $-1 $53 $193 $150 $194 forward $111 $-1 #
loop $-1 $195 $186 $196 #
vertex $-1 $54 $197 #
straight-curve $-1 -7 -2.6999999999999997 -5 0 1 0 I I #
coedge $-1 $198 $199 $55 $115 forward $172 $-1 #
edge $-1 $117 0 $200 3 $55 $201 forward 7 unknown #
coedge $-1 $176 $56 $199 $202 forward $95 $-1 #
vertex $-1 $57 $203 #
straight-curve $-1 -7 -1.9999999999999998 -4 0 -1 0 I I #
point $-1 -6.9999999999999991 -2 -4.9999999999999991 #
point $-1 -7 -1.9999999999999998 -4 #
coedge $-1 $62 $61 $204 $205 reversed $16 $-1 #
coedge $-1 $206 $207 $61 $123 forward $208 $-1 #
edge $-1 $209 0 $129 4.5 $61 $210 forward 7 unknown #
coedge $-1 $211 $212 $62 $125 forward $213 $-1 #
edge $-1 $130 0 $214 4.5 $62 $215 forward 7 unknown #
coedge $-1 $216 $63 $212 $217 forward $128 $-1 #
coedge $-1 $63 $216 $206 $218 reversed $128 $-1 #
loop $-1 $-1 $126 $219 #
vertex $-1 $123 $220 #
vertex $-1 $125 $221 #
straight-curve $-1 2.75 2.25 0 -1 0 0 I I #
coedge $-1 $222 $65 $68 $138 forward $134 $-1 #
coedge $-1 $65 $222 $67 $137 reversed $134 $-1 #
loop $-1 $-1 $133 $223 #
ellipse-curve $-1 -6.1999999999999993 -1.8999999999999999 0 0 0 -1 -0.35000000000000053 0 0 1 I I #
coedge $-1 $68 $67 $224 $225 forward $69 $-1 #
edge $-1 $70 0 $226 1 $133 $227 forward 7 unknown #
edge $-1 $71 0 $228 1 $132 $229 forward 7 unknown #
face $-1 $223 $69 $2 $-1 $230 reversed single #
point $-1 -5.8499999999999996 -1.8999999999999999 0 #
point $-1 -6.5499999999999998 -1.8999999999999999 0 #
coedge $-1 $155 $73 $231 $232 reversed $5 $-1 #
coedge $-1 $233 $234 $73 $144 forward $235 $-1 #
edge $-1 $236 0 $148 9 $73 $237 forward 7 unknown #
coedge $-1 $238 $74 $77 $152 forward $147 $-1 #
coedge $-1 $74 $238 $233 $239 reversed $147 $-1 #
loop $-1 $-1 $145 $240 #
vertex $-1 $144 $241 #
straight-curve $-1 -4.5 -2.75 0 0 1 0 I I #
coedge $-1 $242 $76 $110 $194 reversed $78 $-1 #
coedge $-1 $77 $242 $243 $244 reversed $78 $-1 #
edge $-1 $79 0 $245 4 $145 $246 forward 7 unknown #
face $-1 $247 $78 $2 $-1 $248 forward single #
point $-1 -4.5 -2.6999999999999997 0 #
coedge $-1 $81 $142 $249 $250 reversed $5 $-1 #
coedge $-1 $251 $252 $81 $157 forward $253 $-1 #
edge $-1 $160 -2.2204460492503131e-016 $254 3.9500000000000002 $81 $255 forward 7 unknown #
coedge $-1 $189 $82 $252 $256 forward $23 $-1 #
coedge $-1 $82 $98 $84 $163 forward $23 $-1 #
vertex $-1 $83 $257 #
straight-curve $-1 -6.1999999999999993 -1.2 0 1 0 0 I I #
coedge $-1 $85 $84 $258 $259 forward $86 $-1 #
edge $-1 $260 0 $87 1 $159 $261 forward 7 unknown #
face $-1 $139 $86 $2 $-1 $262 forward single #
point $-1 -6.1999999999999993 -1.2000000000000002 0 #
coedge $-1 $258 $263 $89 $167 reversed $264 $-1 #
edge $-1 $168 1.5543122344752192e-015 $200 0.40000000000000013 $89 $265 forward 7 unknown #
vertex $-1 $167 $266 #
straight-curve $-1 -7 -2 -1 0 0 1 I I #
straight-curve $-1 -7 -2.6999999999999997 0 0 0 -1 I I #
face $-1 $164 $264 $2 $-1 $267 reversed single #
loop $-1 $-1 $198 $94 #
plane-surface $-1 -7 -2.3999999999999999 -4 0 -1 0 0 0 1 forward_v I I I I #
loop $-1 $-1 $268 $45 #
coedge $-1 $182 $97 $269 $270 forward $46 $-1 #
coedge $-1 $180 $116 $97 $177 reversed $95 $-1 #
edge $-1 $184 2.2204460492503131e-016 $271 1.2000000000000002 $97 $272 forward 7 unknown #
coedge $-1 $273 $258 $98 $179 forward $264 $-1 #
edge $-1 $260 0 $183 0.70000000000000018 $98 $274 forward 7 unknown #
coedge $-1 $104 $176 $99 $181 reversed $95 $-1 #
edge $-1 $108 0 $184 0.70000000000000018 $99 $275 forward 7 unknown #
coedge $-1 $100 $175 $273 $276 forward $46 $-1 #
vertex $-1 $179 $277 #
vertex $-1 $181 $278 #
straight-curve $-1 -5.5 -1.2 -1 0 0 -1 I I #
coedge $-1 $279 $102 $106 $190 forward $111 $-1 #
ellipse-curve $-1 -6.1999999999999993 -1.9999999999999996 -5 -1.1102230246251569e-015 -6.1629758220391582e-031 -1 -0.79999999999999982 -4.4408920985006262e-016 8.8817841970012523e-016 1 I I #
ellipse-curve $-1 -6.1999999999999993 -2.0000000000000004 -4 0 0 1 0 0.80000000000000049 0 1 I I #
coedge $-1 $106 $158 $280 $281 forward $23 $-1 #
edge $-1 $107 0 $282 1.6999999999999993 $186 $283 forward 7 unknown #
point $-1 -6.1999999999999993 -1.2000000000000002 -4.9999999999999991 #
point $-1 -6.2000000000000002 -1.2 -4 #
coedge $-1 $110 $279 $284 $285 reversed $111 $-1 #
edge $-1 $286 0 $112 2.3000000000000007 $110 $287 forward 7 unknown #
loop $-1 $-1 $288 $196 #
face $-1 $289 $111 $2 $-1 $290 forward single #
point $-1 -7 -2.6999999999999997 -5 #
coedge $-1 $269 $114 $263 $291 forward $172 $-1 #
coedge $-1 $114 $269 $116 $202 reversed $172 $-1 #
vertex $-1 $115 $292 #
straight-curve $-1 -7 -2.3999999999999999 -4 0 0 1 I I #
edge $-1 $117 0 $271 1.5 $116 $293 forward 7 unknown #
point $-1 -7 -2.3999999999999999 -4 #
coedge $-1 $294 $295 $121 $205 forward $296 $-1 #
edge $-1 $214 0 $209 5.5 $121 $297 forward 7 unknown #
coedge $-1 $298 $122 $127 $218 forward $208 $-1 #
coedge $-1 $122 $298 $294 $299 reversed $208 $-1 #
loop $-1 $-1 $206 $300 #
vertex $-1 $205 $301 #
straight-curve $-1 2.75 -2.25 0 0 1 0 I I #
coedge $-1 $302 $124 $295 $303 forward $213 $-1 #
coedge $-1 $124 $302 $126 $217 reversed $213 $-1 #
loop $-1 $-1 $211 $304 #
vertex $-1 $125 $305 #
straight-curve $-1 -2.75 2.25 0 0 -1 0 I I #
coedge $-1 $127 $126 $306 $307 reversed $128 $-1 #
edge $-1 $130 0 $308 2.5 $212 $309 forward 7 unknown #
edge $-1 $129 0 $310 2.5 $206 $311 forward 7 unknown #
face $-1 $304 $128 $2 $-1 $312 reversed single #
point $-1 2.75 2.25 0 #
point $-1 -2.75 2.25 0 #
coedge $-1 $133 $132 $313 $314 forward $134 $-1 #
face $-1 $315 $134 $2 $-1 $316 reversed single #
coedge $-1 $313 $313 $136 $225 reversed $317 $-1 #
edge $-1 $226 0 $228 3.1415926535897967 $136 $318 forward 7 unknown #
vertex $-1 $314 $319 #
straight-curve $-1 -5.8499999999999996 -1.8999999999999999 0 0 0 -1 I I #
vertex $-1 $314 $320 #
straight-curve $-1 -6.5499999999999989 -1.8999999999999999 0 0 0 -1 I I #
cone-surface $-1 -6.1999999999999993 -1.8999999999999999 0 0 0 -1 -0.34999999999999998 0 0 1 I I 0 1 0.34999999999999998 forward I I I I #
coedge $-1 $321 $322 $142 $232 forward $323 $-1 #
edge $-1 $324 0 $236 5.5 $142 $325 forward 7 unknown #
coedge $-1 $326 $143 $146 $239 forward $235 $-1 #
coedge $-1 $143 $327 $321 $328 reversed $235 $-1 #
loop $-1 $-1 $143 $329 #
vertex $-1 $232 $330 #
straight-curve $-1 4.5 -2.75 0 -1 0 0 I I #
coedge $-1 $146 $145 $331 $332 reversed $147 $-1 #
edge $-1 $148 0 $333 4 $233 $334 forward 7 unknown #
face $-1 $153 $147 $2 $-1 $335 forward single #
point $-1 -4.5 -2.75 0 #
coedge $-1 $151 $150 $336 $337 reversed $78 $-1 #
coedge $-1 $338 $331 $151 $244 forward $339 $-1 #
edge $-1 $245 0 $340 0.19999999999999929 $243 $341 forward 7 unknown #
vertex $-1 $244 $342 #
straight-curve $-1 -4.5 -2.6999999999999997 0 0 0 -1 I I #
face $-1 $343 $344 $2 $-1 $345 reversed single #
plane-surface $-1 -4.5 -2.6999999999999997 0 0 -1 0 -1 0 0 forward_v I I I I #
coedge $-1 $346 $347 $155 $250 forward $348 $-1 #
edge $-1 $254 0 $324 9 $155 $349 forward 7 unknown #
coedge $-1 $350 $156 $347 $351 forward $253 $-1 #
coedge $-1 $156 $350 $158 $256 reversed $253 $-1 #
loop $-1 $-1 $156 $352 #
vertex $-1 $157 $353 #
straight-curve $-1 -4.5 -1.2 0 0 1 0 I I #
edge $-1 $160 0 $354 4 $252 $355 forward 7 unknown #
point $-1 -4.5 -1.2000000000000002 0 #
coedge $-1 $178 $166 $162 $259 reversed $264 $-1 #
edge $-1 $260 0 $168 1.5707963267948983 $162 $356 forward 7 unknown #
vertex $-1 $163 $357 #
straight-curve $-1 -6.1999999999999993 -1.2 -1 0 0 1 I I #
cone-surface $-1 -6.1999999999999993 -2 -5.0050001222505855 0 0 1 -0.79999999999999993 0 0 1 I I 0 1 0.79999999999999993 forward I I I I #
coedge $-1 $166 $273 $198 $291 reversed $264 $-1 #
loop $-1 $317 $258 $171 #
straight-curve $-1 -7 -1.9999999999999998 -1 0 -1 0 I I #
point $-1 -7 -2.0000000000000013 -1 #
plane-surface $-1 -7 -2.3999999999999999 -1 0 0 1 0 1 0 forward_v I I I I #
coedge $-1 $358 $358 $359 $360 forward $174 $-1 #
coedge $-1 $199 $198 $175 $270 reversed $172 $-1 #
edge $-1 $271 0 $361 3 $175 $362 forward 7 unknown #
vertex $-1 $270 $363 #
straight-curve $-1 -5.5 -1.1999999999999997 -4 0 -1 0 I I #
coedge $-1 $263 $178 $182 $276 reversed $264 $-1 #
straight-curve $-1 -6.2000000000000002 -1.2 -1 1 0 0 I I #
straight-curve $-1 -6.2000000000000002 -1.2 -4 1 0 0 I I #
edge $-1 $361 0 $183 1.2 $182 $364 forward 7 unknown #
point $-1 -5.5 -1.2 -1 #
point $-1 -5.5 -1.2 -4 #
coedge $-1 $193 $186 $365 $366 forward $111 $-1 #
coedge $-1 $367 $365 $189 $281 reversed $368 $-1 #
edge $-1 $354 0 $282 1 $280 $369 forward 7 unknown #
vertex $-1 $366 $370 #
straight-curve $-1 -6.1999999999999993 -1.2 -5 1 0 0 I I #
coedge $-1 $371 $336 $193 $285 forward $372 $-1 #
edge $-1 $286 0 $373 0.28284271247461834 $193 $374 forward 7 unknown #
vertex $-1 $194 $375 #
straight-curve $-1 -4.6999999999999993 -2.6999999999999997 -5 -1 0 0 I I #
coedge $-1 $376 $376 $377 $378 reversed $195 $-1 #
face $-1 $379 $368 $2 $-1 $380 forward single #
plane-surface $-1 0 0 -5 0 0 -1 -1 0 0 forward_v I I I I #
edge $-1 $200 0 $361 1.5 $198 $381 forward 7 unknown #
point $-1 -7 -2.3999999999999999 -1 #
straight-curve $-1 -7 -2.3999999999999999 -4 1 0 0 I I #
coedge $-1 $382 $204 $207 $299 forward $296 $-1 #
coedge $-1 $204 $382 $211 $303 reversed $296 $-1 #
loop $-1 $-1 $294 $383 #
straight-curve $-1 -2.75 -2.25 0 1 0 0 I I #
coedge $-1 $207 $206 $384 $385 reversed $208 $-1 #
edge $-1 $209 0 $386 2.5 $294 $387 forward 7 unknown #
face $-1 $219 $208 $2 $-1 $388 reversed single #
point $-1 2.75 -2.25 0 #
coedge $-1 $212 $211 $389 $390 reversed $213 $-1 #
edge $-1 $214 0 $391 2.5 $211 $392 forward 7 unknown #
face $-1 $393 $213 $2 $-1 $394 reversed single #
point $-1 -2.75 -2.25 0 #
coedge $-1 $389 $384 $216 $307 forward $395 $-1 #
edge $-1 $310 0 $308 5.5 $306 $396 forward 7 unknown #
vertex $-1 $390 $397 #
straight-curve $-1 -2.75 2.25 0 0 0 -1 I I #
vertex $-1 $307 $398 #
straight-curve $-1 2.75 2.25 0 0 0 -1 I I #
plane-surface $-1 2.75 2.25 0 0 1 0 -1 0 0 forward_v I I I I #
coedge $-1 $224 $224 $222 $314 reversed $317 $-1 #
edge $-1 $228 0 $226 3.1415926535897944 $222 $399 forward 7 unknown #
face $-1 $400 $401 $2 $-1 $402 reversed single #
cone-surface $-1 -6.1999999999999993 -1.8999999999999999 0 0 0 -1 -0.34999999999999998 0 0 1 I I 0 1 0.34999999999999998 forward I I I I #
loop $-1 $-1 $224 $171 #
ellipse-curve $-1 -6.2000000000000002 -1.9000000000000006 -1 0 0 -1 0.35000000000000053 6.6613381477509392e-016 0 1 I I #
point $-1 -5.8499999999999996 -1.8999999999999999 -1 #
point $-1 -6.5499999999999998 -1.8999999999999999 -1 #
coedge $-1 $403 $231 $234 $328 forward $323 $-1 #
coedge $-1 $231 $404 $346 $405 reversed $323 $-1 #
loop $-1 $-1 $406 $407 #
vertex $-1 $250 $408 #
straight-curve $-1 4.5 2.75 0 0 -1 0 I I #
coedge $-1 $409 $233 $410 $411 reversed $235 $-1 #
coedge $-1 $234 $412 $413 $414 forward $235 $-1 #
edge $-1 $236 0 $415 3 $321 $416 forward 7 unknown #
face $-1 $240 $235 $2 $-1 $417 forward single #
point $-1 4.5 -2.75 0 #
coedge $-1 $243 $410 $238 $332 forward $339 $-1 #
edge $-1 $333 0 $245 0.049999999999999822 $331 $418 forward 7 unknown #
vertex $-1 $332 $419 #
straight-curve $-1 -4.5 -2.75 0 0 0 -1 I I #
plane-surface $-1 -4.5 -2.75 0 -1 0 0 0 1 0 forward_v I I I I #
coedge $-1 $284 $420 $242 $337 forward $372 $-1 #
edge $-1 $340 0 $286 1 $242 $421 forward 7 unknown #
coedge $-1 $422 $243 $420 $423 forward $339 $-1 #
loop $-1 $-1 $410 $424 #
vertex $-1 $423 $425 #
straight-curve $-1 -4.5 -2.6999999999999997 -4 -1 0 0 I I #
point $-1 -4.5 -2.7000000000000002 -4 #
face $-1 $352 $348 $2 $-1 $426 forward single #
loop $-1 $-1 $427 $247 #
plane-surface $-1 -3 3.2999999999999998 -4 -1 0 0 0 0 1 forward_v I I I I #
coedge $-1 $428 $249 $322 $405 forward $348 $-1 #
coedge $-1 $249 $429 $251 $351 reversed $348 $-1 #
loop $-1 $-1 $429 $343 #
straight-curve $-1 -4.5 2.75 0 1 0 0 I I #
coedge $-1 $252 $251 $430 $431 reversed $253 $-1 #
edge $-1 $254 0 $432 4 $251 $433 forward 7 unknown #
face $-1 $407 $253 $2 $-1 $434 forward single #
point $-1 -4.5 2.75 0 #
vertex $-1 $431 $435 #
straight-curve $-1 -4.5 -1.2 0 0 0 -1 I I #
ellipse-curve $-1 -6.2000000000000002 -2 -1 0 0 1 0 0.80000000000000004 0 1 I I #
point $-1 -6.2000000000000002 -1.2 -1 #
coedge $-1 $268 $268 $436 $437 forward $174 $-1 #
coedge $-1 $438 $439 $268 $360 reversed $401 $-1 #
edge $-1 $440 0 $441 3.1415926535897953 $359 $442 forward 7 unknown #
vertex $-1 $276 $443 #
straight-curve $-1 -5.5 -2.3999999999999999 -4 0 0 1 I I #
point $-1 -5.5 -2.3999999999999999 -4 #
straight-curve $-1 -5.5 -2.3999999999999999 -1 0 1 0 I I #
coedge $-1 $280 $444 $279 $366 reversed $368 $-1 #
edge $-1 $282 0 $373 1.3 $279 $445 forward 7 unknown #
coedge $-1 $444 $280 $422 $446 reversed $368 $-1 #
loop $-1 $-1 $444 $289 #
straight-curve $-1 -4.5 -1.2 -4 0 0 -1 I I #
point $-1 -4.5 -1.2 -5 #
coedge $-1 $420 $284 $444 $447 reversed $372 $-1 #
loop $-1 $-1 $284 $379 #
vertex $-1 $285 $448 #
straight-curve $-1 -4.6999999999999993 -2.6999999999999997 -5 0.70710678118654835 0.70710678118654668 0 I I #
point $-1 -4.6999999999999993 -2.6999999999999997 -5 #
coedge $-1 $288 $288 $449 $450 reversed $195 $-1 #
coedge $-1 $439 $438 $288 $378 forward $401 $-1 #
edge $-1 $451 0 $452 3.1415926535897931 $288 $453 forward 7 unknown #
face $-1 $424 $372 $2 $-1 $454 forward single #
plane-surface $-1 -4.5 -1.2 0 1 0 0 0 -1 0 forward_v I I I I #
straight-curve $-1 -7 -2.3999999999999999 -1 1 0 0 I I #
coedge $-1 $295 $294 $455 $456 reversed $296 $-1 #
face $-1 $300 $296 $2 $-1 $457 reversed single #
coedge $-1 $306 $455 $298 $385 forward $395 $-1 #
edge $-1 $386 0 $310 4.5 $384 $458 forward 7 unknown #
vertex $-1 $385 $459 #
straight-curve $-1 2.75 -2.25 0 0 0 -1 I I #
plane-surface $-1 2.75 -2.25 0 1 0 0 0 1 0 forward_v I I I I #
coedge $-1 $455 $306 $302 $390 forward $395 $-1 #
edge $-1 $308 0 $391 4.5 $389 $460 forward 7 unknown #
vertex $-1 $390 $461 #
straight-curve $-1 -2.75 -2.25 0 0 0 -1 I I #
face $-1 $462 $463 $2 $-1 $464 reversed single #
plane-surface $-1 -2.75 2.25 0 -1 0 0 0 -1 0 forward_v I I I I #
loop $-1 $-1 $455 $465 #
straight-curve $-1 2.75 2.25 -2.5 -1 0 0 I I #
point $-1 -2.75 2.25 -2.5 #
point $-1 2.75 2.25 -2.5 #
ellipse-curve $-1 -6.2000000000000002 -1.8999999999999997 -1 0 0 -1 -0.34999999999999964 -2.2204460492503131e-016 0 1 I I #
face $-1 $196 $466 $2 $-1 $467 reversed single #
loop $-1 $-1 $438 $315 #
cone-surface $-1 -6.1999999999999993 -1.8999999999999999 0 0 0 -1 -0.34999999999999998 0 0 1 I I 0 1 0.34999999999999998 forward I I I I #
coedge $-1 $406 $321 $468 $469 forward $323 $-1 #
coedge $-1 $322 $406 $470 $471 reversed $323 $-1 #
edge $-1 $324 0 $472 4 $322 $473 forward 7 unknown #
coedge $-1 $404 $403 $474 $475 reversed $323 $-1 #
face $-1 $476 $323 $2 $-1 $477 forward single #
point $-1 4.5 2.75 0 #
coedge $-1 $478 $326 $479 $480 forward $235 $-1 #
coedge $-1 $331 $481 $326 $411 forward $339 $-1 #
edge $-1 $482 0 $333 1.5 $410 $483 forward 7 unknown #
coedge $-1 $327 $484 $485 $486 reversed $235 $-1 #
coedge $-1 $487 $468 $327 $414 reversed $488 $-1 #
edge $-1 $489 0 $415 1.5999999999999996 $327 $490 forward 7 unknown #
vertex $-1 $469 $491 #
straight-curve $-1 4.5 -2.75 0 0 0 -1 I I #
plane-surface $-1 4.5 -2.75 0 0 -1 0 -1 0 0 forward_v I I I I #
straight-curve $-1 -4.5 -2.75 -4 0 1 0 I I #
point $-1 -4.5 -2.75 -4 #
coedge $-1 $336 $371 $338 $423 reversed $372 $-1 #
straight-curve $-1 -4.6999999999999993 -2.6999999999999997 -4 0 0 -1 I I #
coedge $-1 $430 $338 $367 $446 forward $339 $-1 #
edge $-1 $340 0 $492 0.28284271247461834 $338 $493 forward 7 unknown #
face $-1 $329 $339 $2 $-1 $494 forward single #
point $-1 -4.6999999999999993 -2.6999999999999997 -4 #
plane-surface $-1 -4.5 2.75 0 0 1 0 1 0 0 forward_v I I I I #
coedge $-1 $495 $496 $497 $498 forward $344 $-1 #
coedge $-1 $499 $346 $500 $501 reversed $348 $-1 #
coedge $-1 $347 $497 $502 $503 reversed $348 $-1 #
coedge $-1 $502 $422 $350 $431 forward $339 $-1 #
edge $-1 $354 -2.2204460492503131e-016 $432 3.9500000000000002 $430 $504 forward 7 unknown #
vertex $-1 $503 $505 #
straight-curve $-1 -4.5 2.75 0 0 0 -1 I I #
plane-surface $-1 -4.5 -2.75 0 -1 0 0 0 1 0 forward_v I I I I #
point $-1 -4.5 -1.2000000000000002 -4 #
coedge $-1 $506 $507 $358 $437 reversed $466 $-1 #
edge $-1 $441 0 $440 3.1415926535897944 $436 $508 forward 7 unknown #
coedge $-1 $377 $359 $507 $509 forward $401 $-1 #
coedge $-1 $359 $377 $506 $510 reversed $401 $-1 #
vertex $-1 $437 $511 #
vertex $-1 $437 $512 #
ellipse-curve $-1 -6.2000000000000002 -1.9000000000000004 -4 0 0 -1 0.35000000000000053 4.4408920985006262e-016 0 1 I I #
point $-1 -5.5 -2.3999999999999999 -1 #
coedge $-1 $365 $367 $371 $447 forward $368 $-1 #
straight-curve $-1 -4.5 -1.2 -5 0 -1 0 I I #
edge $-1 $492 0 $354 1.2999999999999998 $422 $513 forward 7 unknown #
edge $-1 $492 0 $373 1 $444 $514 forward 7 unknown #
point $-1 -4.5 -2.5 -5 #
coedge $-1 $507 $506 $376 $450 forward $466 $-1 #
edge $-1 $452 0 $451 3.1415926535897918 $376 $515 forward 7 unknown #
vertex $-1 $450 $516 #
vertex $-1 $450 $517 #
ellipse-curve $-1 -6.2000000000000002 -1.8999999999999999 -5 0 0 -1 0.35000000000000053 0 0 1 I I #
plane-surface $-1 -4.6999999999999993 -2.6999999999999997 -4 0.7071067811865468 -0.70710678118654835 0 0 0 -1 forward_v I I I I #
coedge $-1 $384 $389 $382 $456 forward $395 $-1 #
edge $-1 $391 0 $386 5.5 $455 $518 forward 7 unknown #
plane-surface $-1 -2.75 -2.25 0 0 -1 0 1 0 0 forward_v I I I I #
straight-curve $-1 2.75 -2.25 -2.5 0 1 0 I I #
point $-1 2.75 -2.25 -2.5 #
straight-curve $-1 -2.75 2.25 -2.5 0 -1 0 I I #
point $-1 -2.75 -2.25 -2.5 #
face $-1 $519 $520 $2 $-1 $521 reversed single #
loop $-1 $-1 $522 $393 #
cone-surface $-1 5.5499999999999998 -1.6499999999999999 -4 0 0 1 0.34999999999999998 0 0 1 I I 0 1 0.34999999999999998 forward I I I I #
face $-1 $383 $523 $2 $-1 $524 reversed single #
loop $-1 $-1 $506 $400 #
cone-surface $-1 -6.1999999999999993 -1.8999999999999999 0 0 0 -1 -0.34999999999999998 0 0 1 I I 0 1 0.34999999999999998 forward I I I I #
coedge $-1 $413 $525 $403 $469 reversed $488 $-1 #
edge $-1 $415 0 $526 2 $403 $527 forward 7 unknown #
coedge $-1 $528 $500 $404 $471 forward $529 $-1 #
edge $-1 $472 0 $530 3.5 $470 $531 forward 7 unknown #
vertex $-1 $471 $532 #
straight-curve $-1 4.5 2.75 0 0 0 -1 I I #
coedge $-1 $533 $534 $406 $475 forward $535 $-1 #
edge $-1 $530 0 $526 1 $406 $536 forward 7 unknown #
face $-1 $537 $535 $2 $-1 $538 forward single #
plane-surface $-1 4.5 2.75 0 1 0 0 0 -1 0 forward_v I I I I #
coedge $-1 $539 $409 $540 $541 forward $235 $-1 #
coedge $-1 $496 $495 $409 $480 reversed $344 $-1 #
edge $-1 $482 0 $542 1.5 $409 $543 forward 7 unknown #
coedge $-1 $410 $502 $496 $544 reversed $339 $-1 #
vertex $-1 $544 $545 #
straight-curve $-1 -3 -2.75 -4 -1 0 0 I I #
coedge $-1 $412 $539 $546 $547 forward $235 $-1 #
coedge $-1 $548 $549 $412 $486 forward $550 $-1 #
edge $-1 $489 0 $551 1 $412 $552 forward 7 unknown #
coedge $-1 $525 $413 $549 $553 reversed $488 $-1 #
loop $-1 $554 $487 $519 #
vertex $-1 $414 $555 #
straight-curve $-1 6.0999999999999996 -2.75 -3 -1 0 0 I I #
point $-1 4.5 -2.75 -3 #
vertex $-1 $446 $556 #
straight-curve $-1 -4.6999999999999993 -2.6999999999999997 -4 0.70710678118654835 0.70710678118654668 0 I I #
plane-surface $-1 0 0 -4 0 0 -1 -1 0 0 forward_v I I I I #
coedge $-1 $479 $427 $557 $558 forward $344 $-1 #
coedge $-1 $427 $479 $481 $544 forward $344 $-1 #
coedge $-1 $429 $559 $427 $498 reversed $348 $-1 #
edge $-1 $560 0 $561 1.5 $497 $562 forward 7 unknown #
coedge $-1 $559 $428 $563 $564 forward $348 $-1 #
coedge $-1 $470 $565 $428 $501 forward $529 $-1 #
edge $-1 $566 0 $472 1.5 $500 $567 forward 7 unknown #
coedge $-1 $481 $430 $429 $503 forward $339 $-1 #
edge $-1 $432 0 $560 1.5 $502 $568 forward 7 unknown #
straight-curve $-1 -4.5 -1.2 -4 0 1 0 I I #
point $-1 -4.5 2.75 -4 #
coedge $-1 $449 $436 $439 $510 forward $466 $-1 #
coedge $-1 $436 $449 $438 $509 reversed $466 $-1 #
ellipse-curve $-1 -6.2000000000000002 -1.8999999999999997 -4 0 0 -1 -0.34999999999999964 -2.2204460492503131e-016 0 1 I I #
edge $-1 $440 0 $451 1 $507 $569 forward 7 unknown #
edge $-1 $441 0 $452 1 $506 $570 forward 7 unknown #
point $-1 -5.8499999999999996 -1.8999999999999999 -4 #
point $-1 -6.5499999999999998 -1.8999999999999999 -4 #
straight-curve $-1 -4.5 -2.5 -4 0 1 0 I I #
straight-curve $-1 -4.5 -2.5 -4 0 0 -1 I I #
ellipse-curve $-1 -6.2000000000000002 -1.9000000000000001 -5 0 0 -1 -0.34999999999999964 2.2204460492503131e-016 0 1 I I #
point $-1 -5.8499999999999996 -1.8999999999999999 -5 #
point $-1 -6.5499999999999998 -1.8999999999999999 -5 #
straight-curve $-1 -2.75 -2.25 -2.5 1 0 0 I I #
face $-1 $-1 $488 $2 $-1 $571 forward single #
loop $-1 $-1 $572 $462 #
cone-surface $-1 5.5499999999999998 -1.6499999999999999 -4 0 0 1 0.34999999999999998 0 0 1 I I 0 1 0.34999999999999998 forward I I I I #
coedge $-1 $573 $574 $575 $576 forward $463 $-1 #
loop $-1 $395 $557 $465 #
plane-surface $-1 -3 3.2999999999999998 -2.5 0 0 1 1 0 0 forward_v I I I I #
coedge $-1 $468 $487 $533 $577 forward $488 $-1 #
vertex $-1 $469 $578 #
straight-curve $-1 4.5 -2.75 -3 0 1 0 I I #
coedge $-1 $579 $470 $534 $580 reversed $529 $-1 #
loop $-1 $581 $565 $582 #
vertex $-1 $580 $583 #
straight-curve $-1 4.5 2.75 -4 0 -1 0 I I #
point $-1 4.5 2.75 -4 #
coedge $-1 $584 $474 $525 $577 reversed $535 $-1 #
coedge $-1 $474 $584 $528 $580 forward $535 $-1 #
loop $-1 $-1 $584 $476 #
straight-curve $-1 4.5 -0.75 -4 0 0 1 I I #
face $-1 $582 $550 $2 $-1 $585 reversed single #
plane-surface $-1 4.5 -0.75 -3 0 1 0 0 0 -1 forward_v I I I I #
coedge $-1 $484 $478 $586 $587 reversed $235 $-1 #
coedge $-1 $557 $588 $478 $541 reversed $523 $-1 #
edge $-1 $542 0 $589 6 $478 $590 forward 7 unknown #
vertex $-1 $541 $591 #
straight-curve $-1 -3 -2.75 -4 0 0 1 I I #
edge $-1 $482 0 $560 5.5 $481 $592 forward 7 unknown #
point $-1 -3 -2.75 -4 #
coedge $-1 $565 $579 $484 $547 reversed $529 $-1 #
edge $-1 $593 0 $551 3.0999999999999996 $546 $594 forward 7 unknown #
coedge $-1 $595 $485 $579 $596 forward $550 $-1 #
coedge $-1 $485 $595 $487 $553 forward $550 $-1 #
loop $-1 $-1 $548 $537 #
vertex $-1 $547 $597 #
straight-curve $-1 6.0999999999999996 -2.75 -3 0 0 -1 I I #
edge $-1 $598 0 $489 2 $549 $599 forward 7 unknown #
loop $-1 $-1 $600 $519 #
point $-1 6.0999999999999996 -2.75 -3 #
point $-1 -4.5 -2.5 -4 #
coedge $-1 $601 $540 $495 $558 reversed $523 $-1 #
edge $-1 $561 0 $542 5.5 $495 $602 forward 7 unknown #
coedge $-1 $497 $499 $601 $603 reversed $348 $-1 #
vertex $-1 $544 $604 #
vertex $-1 $498 $605 #
straight-curve $-1 -3 2.75 -4 0 0 1 I I #
coedge $-1 $606 $607 $499 $564 reversed $608 $-1 #
edge $-1 $566 0 $609 1.5 $499 $610 forward 7 unknown #
coedge $-1 $500 $546 $606 $611 forward $529 $-1 #
vertex $-1 $501 $612 #
straight-curve $-1 3 2.75 -4 1 0 0 I I #
straight-curve $-1 -4.5 2.75 -4 1 0 0 I I #
straight-curve $-1 -5.8499999999999996 -1.9000000000000001 -4 0 0 -1 I I #
straight-curve $-1 -6.5499999999999989 -1.8999999999999999 -4 0 0 -1 I I #
plane-surface $-1 4.5 -2.75 -3 0 0 1 0 1 0 forward_v I I I I #
coedge $-1 $613 $614 $615 $616 forward $520 $-1 #
coedge $-1 $615 $522 $600 $617 forward $463 $-1 #
coedge $-1 $522 $615 $618 $619 reversed $463 $-1 #
coedge $-1 $614 $613 $522 $576 reversed $520 $-1 #
edge $-1 $620 0 $621 1 $575 $622 forward 7 unknown #
edge $-1 $598 0 $526 1.5999999999999996 $525 $623 forward 7 unknown #
point $-1 4.5 -0.75 -3 #
coedge $-1 $546 $528 $548 $596 reversed $529 $-1 #
edge $-1 $624 0 $530 1.5999999999999996 $528 $625 forward 7 unknown #
loop $-1 $-1 $618 $582 #
face $-1 $626 $529 $2 $-1 $627 forward single #
point $-1 4.5 -0.75 -4 #
coedge $-1 $534 $533 $595 $628 reversed $535 $-1 #
plane-surface $-1 6.0999999999999996 2.75 0 -1 0 0 0 0 1 forward_v I I I I #
coedge $-1 $607 $606 $539 $587 forward $608 $-1 #
edge $-1 $593 0 $589 1.5 $539 $629 forward 7 unknown #
coedge $-1 $540 $601 $607 $630 forward $523 $-1 #
vertex $-1 $587 $631 #
straight-curve $-1 -3 -2.75 -2.5 1 0 0 I I #
point $-1 -3 -2.75 -2.5 #
straight-curve $-1 -3 -2.75 -4 0 1 0 I I #
vertex $-1 $547 $632 #
straight-curve $-1 3 -2.75 -4 1 0 0 I I #
coedge $-1 $549 $548 $584 $628 forward $550 $-1 #
edge $-1 $551 0 $624 2 $579 $633 forward 7 unknown #
point $-1 6.0999999999999996 -2.75 -4 #
vertex $-1 $553 $634 #
straight-curve $-1 6.0999999999999996 -0.75 -3 0 -1 0 I I #
coedge $-1 $635 $635 $573 $617 reversed $554 $-1 #
coedge $-1 $588 $557 $559 $603 forward $523 $-1 #
straight-curve $-1 -3 2.75 -2.5 0 -1 0 I I #
edge $-1 $561 0 $609 6 $559 $636 forward 7 unknown #
point $-1 -3 2.75 -4 #
point $-1 -3 2.75 -2.5 #
coedge $-1 $586 $563 $565 $611 reversed $608 $-1 #
coedge $-1 $563 $586 $588 $630 reversed $608 $-1 #
loop $-1 $-1 $586 $626 #
vertex $-1 $603 $637 #
straight-curve $-1 3 2.75 -4 0 0 1 I I #
edge $-1 $593 0 $566 5.5 $565 $638 forward 7 unknown #
point $-1 3 2.75 -4 #
coedge $-1 $575 $572 $635 $639 forward $520 $-1 #
coedge $-1 $572 $575 $640 $641 reversed $520 $-1 #
coedge $-1 $574 $573 $572 $616 reversed $463 $-1 #
edge $-1 $642 0 $643 1 $572 $644 forward 7 unknown #
edge $-1 $621 0 $643 3.1415926535897944 $600 $645 forward 7 unknown #
coedge $-1 $640 $640 $574 $619 forward $581 $-1 #
edge $-1 $620 0 $642 3.1415926535897931 $618 $646 forward 7 unknown #
vertex $-1 $641 $647 #
vertex $-1 $639 $648 #
straight-curve $-1 5.2000000000000002 -1.6499999999999999 -4 0 0 1 I I #
straight-curve $-1 6.0999999999999996 -0.75 -3 -1 0 0 I I #
vertex $-1 $596 $649 #
straight-curve $-1 6.0999999999999996 -0.75 -4 -1 0 0 I I #
face $-1 $465 $608 $2 $-1 $650 reversed single #
plane-surface $-1 0 0 -4 0 0 -1 -1 0 0 forward_v I I I I #
edge $-1 $624 0 $598 1 $595 $651 forward 7 unknown #
straight-curve $-1 3 -2.75 -4 0 0 1 I I #
edge $-1 $609 0 $589 5.5 $588 $652 forward 7 unknown #
point $-1 3 -2.75 -2.5 #
point $-1 3 -2.75 -4 #
straight-curve $-1 6.0999999999999996 -2.75 -4 0 1 0 I I #
point $-1 6.0999999999999996 -0.75 -3 #
coedge $-1 $600 $600 $613 $639 reversed $554 $-1 #
straight-curve $-1 -3 2.75 -2.5 1 0 0 I I #
point $-1 3 2.75 -2.5 #
straight-curve $-1 3 -2.75 -4 0 1 0 I I #
edge $-1 $643 0 $621 3.1415926535897953 $635 $653 forward 7 unknown #
coedge $-1 $618 $618 $614 $641 forward $581 $-1 #
edge $-1 $642 0 $620 3.1415926535897931 $640 $654 forward 7 unknown #
vertex $-1 $641 $655 #
vertex $-1 $639 $656 #
straight-curve $-1 5.8999999999999995 -1.6499999999999999 -4 0 0 1 I I #
ellipse-curve $-1 5.5500000000000007 -1.6500000000000004 -3 0 0 1 -0.34999999999999964 2.2204460492503131e-016 0 1 I I #
ellipse-curve $-1 5.5499999999999998 -1.6499999999999999 -4 0 0 1 -0.35000000000000053 0 0 1 I I #
point $-1 5.1999999999999993 -1.6499999999999999 -4 #
point $-1 5.2000000000000011 -1.6500000000000001 -3 #
point $-1 6.0999999999999996 -0.75 -4 #
plane-surface $-1 3 3.2999999999999998 -2.5 1 0 0 0 0 -1 forward_v I I I I #
straight-curve $-1 6.0999999999999996 -0.75 -4 0 0 1 I I #
straight-curve $-1 3 2.75 -2.5 0 -1 0 I I #
ellipse-curve $-1 5.5500000000000007 -1.6499999999999997 -3 0 0 1 0.34999999999999964 -4.4408920985006262e-016 0 1 I I #
ellipse-curve $-1 5.5499999999999998 -1.6499999999999999 -4 0 0 1 0.34999999999999964 0 0 1 I I #
point $-1 5.8999999999999995 -1.6499999999999999 -4 #
point $-1 5.9000000000000004 -1.6500000000000001 -3 #
End-of-ACIS-data 