700 0 2 0           
24 FBMach with ACIS - 7.0.3 13 ACIS 7.0.3 NT 24 Wed May 15 17:38:06 2002 
1 9.9999999999999995e-007 1e-010 
body $2 -1 $-1 $3 $-1 $4 #
bdycol-kcp $-1 -1 1 4 $5 $6 $7 $8 #
model_id-kcp-attrib $-1 -1 $-1 $-1 $0 1 1021498685 1021498685 74579969 1 #
lump $-1 -1 $-1 $-1 $9 $0 #
transform $-1 -1 1 0 0 0 1 0 0 0 1 0 0 0 1 rotate no_reflect no_shear #
body $10 -1 $-1 $11 $-1 $12 #
body $13 -1 $-1 $14 $-1 $15 #
body $16 -1 $-1 $17 $-1 $18 #
body $19 -1 $-1 $20 $-1 $21 #
shell $-1 -1 $-1 $-1 $-1 $22 $-1 $3 #
rgb_color-st-attrib $-1 -1 $23 $-1 $5 0.5 1 1 #
lump $-1 -1 $-1 $-1 $24 $5 #
transform $-1 -1 1 0 0 0 1 0 0 0 1 0 0 0 1 no_rotate no_reflect no_shear #
model_id-kcp-attrib $-1 -1 $-1 $-1 $6 1 1021498685 1021498685 74579970 1 #
lump $-1 -1 $-1 $-1 $25 $6 #
transform $-1 -1 1 0 0 0 1 0 0 0 1 0 -0.25 -6 1 no_rotate no_reflect no_shear #
rgb_color-st-attrib $-1 -1 $26 $-1 $7 1 0 0 #
lump $-1 -1 $-1 $-1 $27 $7 #
transform $-1 -1 1 0 0 0 1 0 0 0 1 0 -0.25 -6 1 no_rotate no_reflect no_shear #
rgb_color-st-attrib $-1 -1 $28 $-1 $8 0.59999999999999998 0.90000000000000002 1 #
lump $-1 -1 $-1 $-1 $29 $8 #
transform $-1 -1 1 0 0 0 1 0 0 0 1 0 -0.25 -6 1 no_rotate no_reflect no_shear #
face $30 -1 $-1 $31 $32 $9 $-1 $33 reversed single #
model_id-kcp-attrib $-1 -1 $-1 $10 $5 1 1021498685 1021498685 68288515 1 #
shell $-1 -1 $-1 $-1 $-1 $34 $-1 $11 #
shell $-1 -1 $-1 $-1 $-1 $35 $-1 $14 #
model_id-kcp-attrib $-1 -1 $-1 $16 $7 1 1021498685 1021498686 67502084 1 #
shell $-1 -1 $-1 $-1 $-1 $36 $-1 $17 #
model_id-kcp-attrib $-1 -1 $-1 $19 $8 1 1021498685 1021498686 79298565 1 #
shell $-1 -1 $-1 $-1 $-1 $37 $-1 $20 #
model_id-kcp-attrib $-1 -1 $-1 $-1 $22 1 1021498685 1021498685 74579969 2 #
face $38 -1 $-1 $39 $40 $9 $-1 $41 forward single #
loop $-1 -1 $-1 $42 $43 $22 #
plane-surface $-1 -1 $-1 0 0 0 0 0 -1 -1 0 0 forward_v I I I I #
face $-1 -1 $-1 $44 $45 $24 $-1 $46 forward single #
face $47 -1 $-1 $48 $49 $25 $-1 $50 forward single #
face $-1 -1 $-1 $51 $52 $27 $-1 $53 forward single #
face $-1 -1 $-1 $54 $55 $29 $-1 $56 forward single #
model_id-kcp-attrib $-1 -1 $-1 $-1 $31 1 1021498685 1021498685 74579969 3 #
face $57 -1 $-1 $58 $59 $9 $-1 $60 forward single #
loop $-1 -1 $-1 $-1 $61 $31 #
plane-surface $-1 -1 $-1 -5.5 3.5 0 0 1 0 1 0 0 forward_v I I I I #
loop $-1 -1 $-1 $-1 $62 $22 #
coedge $-1 -1 $-1 $63 $64 $65 $66 reversed $32 $-1 #
face $-1 -1 $-1 $67 $68 $24 $-1 $69 forward single #
loop $-1 -1 $-1 $-1 $70 $34 #
cone-surface $-1 -1 $-1 0.78125 0 0 0 0 -1 -3.28125 2.75 0 1 I I 0 1 4.28125 forward I I I I #
model_id-kcp-attrib $-1 -1 $-1 $-1 $35 1 1021498685 1021498685 74579970 2 #
face $71 -1 $-1 $72 $73 $25 $-1 $74 reversed single #
loop $-1 -1 $-1 $-1 $75 $35 #
plane-surface $-1 -1 $-1 0 0 6 0 0 1 1 0 0 forward_v I I I I #
face $-1 -1 $-1 $76 $77 $27 $-1 $78 forward single #
loop $-1 -1 $-1 $-1 $79 $36 #
plane-surface $-1 -1 $-1 -5.2999999999999998 -3.5499999999999998 5.7999999999999998 0 -1 0 0 0 -1 forward_v I I I I #
face $-1 -1 $-1 $80 $81 $29 $-1 $82 forward single #
loop $-1 -1 $-1 $-1 $83 $37 #
plane-surface $-1 -1 $-1 5.5 0.25 1 1 0 0 0 0 -1 forward_v I I I I #
model_id-kcp-attrib $-1 -1 $-1 $-1 $39 1 1021498685 1021498685 74579969 4 #
face $84 -1 $-1 $85 $86 $9 $-1 $87 reversed single #
loop $-1 -1 $-1 $-1 $88 $39 #
plane-surface $-1 -1 $-1 -5.5 -4 0 -1 0 0 0 1 0 forward_v I I I I #
coedge $-1 -1 $-1 $65 $89 $90 $91 reversed $40 $-1 #
coedge $-1 -1 $-1 $92 $93 $94 $95 reversed $42 $-1 #
coedge $-1 -1 $-1 $96 $43 $97 $98 reversed $32 $-1 #
coedge $-1 -1 $-1 $43 $96 $99 $100 reversed $32 $-1 #
coedge $-1 -1 $-1 $101 $61 $43 $66 forward $40 $-1 #
edge $102 -1 $-1 $103 0 $104 11 $43 $105 forward @7 unknown #
face $-1 -1 $-1 $106 $107 $24 $-1 $108 forward single #
loop $-1 -1 $-1 $-1 $109 $44 #
plane-surface $-1 -1 $-1 -2.5 -2.75 0 0 -1 0 0 0 -1 forward_v I I I I #
coedge $-1 -1 $-1 $110 $111 $112 $113 forward $45 $-1 #
model_id-kcp-attrib $-1 -1 $-1 $-1 $48 1 1021498685 1021498685 74579970 5 #
face $114 -1 $-1 $115 $116 $25 $-1 $117 reversed single #
loop $-1 -1 $-1 $-1 $118 $48 #
plane-surface $-1 -1 $-1 0 0 -6 0 0 1 1 0 0 forward_v I I I I #
coedge $-1 -1 $-1 $119 $120 $121 $122 forward $49 $-1 #
face $-1 -1 $-1 $123 $124 $27 $-1 $125 forward single #
loop $-1 -1 $-1 $-1 $126 $51 #
plane-surface $-1 -1 $-1 5.2999999999999998 -3.5499999999999998 5.7999999999999998 1 0 0 0 0 -1 forward_v I I I I #
coedge $-1 -1 $-1 $127 $128 $129 $130 forward $52 $-1 #
face $-1 -1 $-1 $131 $132 $29 $-1 $133 forward single #
loop $-1 -1 $-1 $-1 $134 $54 #
plane-surface $-1 -1 $-1 5.5 3.75 1 0 1 0 0 0 1 forward_v I I I I #
coedge $-1 -1 $-1 $135 $136 $137 $138 forward $55 $-1 #
model_id-kcp-attrib $-1 -1 $-1 $-1 $58 1 1021498685 1021498685 74579969 5 #
face $139 -1 $-1 $140 $141 $9 $-1 $142 reversed single #
loop $-1 -1 $-1 $-1 $143 $58 #
plane-surface $-1 -1 $-1 6.5999999999999996 0 -5 0 -1 0 0 0 -1 forward_v I I I I #
coedge $-1 -1 $-1 $144 $145 $143 $146 reversed $59 $-1 #
coedge $-1 -1 $-1 $61 $101 $147 $148 reversed $40 $-1 #
coedge $-1 -1 $-1 $145 $97 $61 $91 forward $59 $-1 #
edge $149 -1 $-1 $103 0 $150 5 $90 $151 forward @7 unknown #
coedge $-1 -1 $-1 $152 $62 $153 $154 reversed $42 $-1 #
coedge $-1 -1 $-1 $62 $152 $155 $156 reversed $42 $-1 #
coedge $-1 -1 $-1 $157 $158 $62 $95 forward $159 $-1 #
edge $160 -1 $-1 $161 0 $162 5 $62 $163 forward @7 unknown #
coedge $-1 -1 $-1 $64 $63 $164 $165 reversed $32 $-1 #
coedge $-1 -1 $-1 $90 $166 $63 $98 forward $59 $-1 #
edge $167 -1 $-1 $168 0 $103 7.5 $63 $169 forward @7 unknown #
coedge $-1 -1 $-1 $170 $171 $64 $100 forward $172 $-1 #
edge $173 -1 $-1 $104 0 $174 7.5 $64 $175 forward @7 unknown #
coedge $-1 -1 $-1 $89 $65 $171 $176 forward $40 $-1 #
attrib_edge_convexity-kcp-attrib $-1 -1 $177 $-1 $66 1 #
vertex $-1 -1 $-1 $98 $178 #
vertex $-1 -1 $-1 $100 $179 #
straight-curve $-1 -1 $-1 -5.5 3.5 0 1 0 0 I I #
face $-1 -1 $-1 $180 $181 $24 $-1 $182 forward single #
loop $-1 -1 $-1 $-1 $183 $67 #
cone-surface $-1 -1 $-1 -0.78125 0 0 0 0 -1 3.28125 -2.75 0 1 I I 0 1 4.28125 forward I I I I #
coedge $-1 -1 $-1 $184 $185 $186 $187 forward $68 $-1 #
coedge $-1 -1 $-1 $188 $70 $185 $189 reversed $45 $-1 #
coedge $-1 -1 $-1 $70 $188 $190 $191 forward $45 $-1 #
coedge $-1 -1 $-1 $192 $186 $70 $113 reversed $193 $-1 #
edge $-1 -1 $-1 $194 0 $195 1.395084014335628 $70 $196 forward @7 unknown #
model_id-kcp-attrib $-1 -1 $-1 $-1 $72 1 1021498685 1021498685 74579970 7 #
face $197 -1 $-1 $198 $199 $25 $-1 $200 reversed single #
loop $-1 -1 $-1 $-1 $201 $72 #
plane-surface $-1 -1 $-1 0 -3.75 0 0 1 0 0 0 1 forward_v I I I I #
coedge $-1 -1 $-1 $202 $203 $204 $205 forward $73 $-1 #
coedge $-1 -1 $-1 $206 $75 $207 $208 forward $49 $-1 #
coedge $-1 -1 $-1 $75 $206 $209 $210 forward $49 $-1 #
coedge $-1 -1 $-1 $211 $212 $75 $122 reversed $213 $-1 #
edge $-1 -1 $-1 $214 -3.75 $215 3.75 $121 $216 forward @7 unknown #
face $-1 -1 $-1 $217 $218 $27 $-1 $219 forward single #
loop $-1 -1 $-1 $-1 $220 $76 #
plane-surface $-1 -1 $-1 5.2999999999999998 3.5499999999999998 5.7999999999999998 0 1 0 0 0 1 forward_v I I I I #
coedge $-1 -1 $-1 $221 $222 $223 $224 forward $77 $-1 #
coedge $-1 -1 $-1 $225 $79 $222 $226 reversed $52 $-1 #
coedge $-1 -1 $-1 $79 $225 $227 $228 forward $52 $-1 #
coedge $-1 -1 $-1 $229 $223 $79 $130 reversed $230 $-1 #
edge $-1 -1 $-1 $231 -8.0500000000000007 $232 2.5499999999999998 $79 $233 forward @7 unknown #
face $-1 -1 $-1 $234 $235 $29 $-1 $236 forward single #
loop $-1 -1 $-1 $-1 $237 $80 #
plane-surface $-1 -1 $-1 -5.5000000000000009 3.75 1 -1 0 0 0 0 1 forward_v I I I I #
coedge $-1 -1 $-1 $238 $239 $240 $241 forward $81 $-1 #
coedge $-1 -1 $-1 $242 $83 $239 $243 reversed $55 $-1 #
coedge $-1 -1 $-1 $83 $242 $244 $245 forward $55 $-1 #
coedge $-1 -1 $-1 $246 $240 $83 $138 reversed $247 $-1 #
edge $-1 -1 $-1 $248 0.19999999999999996 $249 3.7000000000000002 $83 $250 forward @7 unknown #
model_id-kcp-attrib $-1 -1 $-1 $-1 $85 1 1021498685 1021498685 74579969 6 #
face $251 -1 $-1 $252 $253 $9 $-1 $254 reversed single #
loop $-1 -1 $-1 $-1 $255 $85 #
plane-surface $-1 -1 $-1 6.5999999999999996 3.5 -5 0 0 1 0 -1 0 forward_v I I I I #
coedge $-1 -1 $-1 $256 $257 $88 $146 forward $86 $-1 #
coedge $-1 -1 $-1 $166 $88 $258 $259 reversed $59 $-1 #
coedge $-1 -1 $-1 $88 $90 $260 $261 forward $59 $-1 #
edge $262 -1 $-1 $263 0 $264 7 $88 $265 forward @7 unknown #
coedge $-1 -1 $-1 $266 $260 $89 $148 forward $141 $-1 #
edge $267 -1 $-1 $150 0 $268 11 $89 $269 forward @7 unknown #
attrib_edge_convexity-kcp-attrib $-1 -1 $270 $-1 $91 1 #
vertex $-1 -1 $-1 $261 $271 #
straight-curve $-1 -1 $-1 -5.5 3.5 0 0 0 -1 I I #
coedge $-1 -1 $-1 $93 $92 $272 $273 reversed $42 $-1 #
coedge $-1 -1 $-1 $274 $275 $92 $154 forward $276 $-1 #
edge $277 -1 $-1 $278 0 $161 1.395084014335628 $92 $279 forward @7 unknown #
coedge $-1 -1 $-1 $280 $281 $93 $156 forward $282 $-1 #
edge $283 -1 $-1 $162 0 $284 1.395084014335628 $93 $285 forward @7 unknown #
coedge $-1 -1 $-1 $286 $94 $281 $287 forward $159 $-1 #
coedge $-1 -1 $-1 $94 $286 $274 $288 reversed $159 $-1 #
loop $-1 -1 $-1 $-1 $157 $289 #
attrib_edge_convexity-kcp-attrib $-1 -1 $290 $-1 $95 1 #
vertex $-1 -1 $-1 $154 $291 #
vertex $-1 -1 $-1 $156 $292 #
straight-curve $-1 -1 $-1 2.5 2.75 0 -1 0 0 I I #
coedge $-1 -1 $-1 $293 $294 $96 $165 forward $295 $-1 #
edge $296 -1 $-1 $174 0 $168 11 $96 $297 forward @7 unknown #
coedge $-1 -1 $-1 $97 $144 $293 $298 reversed $59 $-1 #
attrib_edge_convexity-kcp-attrib $-1 -1 $299 $-1 $98 1 #
vertex $-1 -1 $-1 $165 $300 #
straight-curve $-1 -1 $-1 -5.5 -4 0 0 1 0 I I #
coedge $-1 -1 $-1 $301 $99 $294 $302 forward $172 $-1 #
coedge $-1 -1 $-1 $99 $303 $101 $176 reversed $172 $-1 #
loop $-1 -1 $-1 $-1 $171 $304 #
attrib_edge_convexity-kcp-attrib $-1 -1 $305 $-1 $100 1 #
vertex $-1 -1 $-1 $100 $306 #
straight-curve $-1 -1 $-1 5.5 3.5 0 0 -1 0 I I #
edge $307 -1 $-1 $104 0 $268 5 $171 $308 forward @7 unknown #
convexity-sys-attrib $-1 -1 $-1 $102 $66 #
point $-1 -1 $-1 -5.5 3.5 0 #
point $-1 -1 $-1 5.5 3.5 0 #
face $-1 -1 $-1 $309 $193 $24 $-1 $310 reversed single #
loop $-1 -1 $-1 $-1 $311 $106 #
plane-surface $-1 -1 $-1 2.5 2.75 0 0 1 0 0 0 1 forward_v I I I I #
coedge $-1 -1 $-1 $312 $313 $314 $315 forward $107 $-1 #
coedge $-1 -1 $-1 $316 $109 $313 $317 reversed $68 $-1 #
coedge $-1 -1 $-1 $109 $316 $110 $189 forward $68 $-1 #
coedge $-1 -1 $-1 $112 $314 $109 $187 reversed $193 $-1 #
edge $-1 -1 $-1 $195 0 $318 5 $109 $319 forward @7 unknown #
coedge $-1 -1 $-1 $111 $110 $320 $321 reversed $45 $-1 #
edge $-1 -1 $-1 $322 0 $195 0.19999999999999998 $185 $323 forward @7 unknown #
coedge $-1 -1 $-1 $324 $311 $111 $191 reversed $181 $-1 #
edge $-1 -1 $-1 $325 0 $194 0.19999999999999998 $111 $326 forward @7 unknown #
coedge $-1 -1 $-1 $314 $112 $311 $327 reversed $193 $-1 #
loop $-1 -1 $-1 $-1 $112 $180 #
vertex $-1 -1 $-1 $191 $328 #
vertex $-1 -1 $-1 $189 $329 #
ellipse-curve $-1 -1 $-1 0.78125 0 -0.19999999999999998 0 0 1 -3.28125 2.75 0 1 I I #
model_id-kcp-attrib $-1 -1 $-1 $-1 $115 1 1021498685 1021498685 74579970 4 #
face $330 -1 $-1 $331 $332 $25 $-1 $333 reversed single #
loop $-1 -1 $-1 $-1 $334 $115 #
plane-surface $-1 -1 $-1 -5.5 0 0 1 0 0 0 0 -1 forward_v I I I I #
coedge $-1 -1 $-1 $335 $209 $336 $337 forward $116 $-1 #
coedge $-1 -1 $-1 $338 $118 $335 $339 forward $73 $-1 #
coedge $-1 -1 $-1 $118 $338 $340 $341 forward $73 $-1 #
coedge $-1 -1 $-1 $212 $211 $118 $205 reversed $213 $-1 #
edge $-1 -1 $-1 $342 -3.75 $343 3.75 $204 $344 forward @7 unknown #
coedge $-1 -1 $-1 $120 $119 $345 $346 forward $49 $-1 #
coedge $-1 -1 $-1 $347 $348 $119 $208 reversed $332 $-1 #
edge $-1 -1 $-1 $215 -5.5 $349 5.5 $207 $350 forward @7 unknown #
coedge $-1 -1 $-1 $201 $351 $120 $210 reversed $116 $-1 #
edge $-1 -1 $-1 $352 -5.5 $214 5.5 $209 $353 forward @7 unknown #
coedge $-1 -1 $-1 $204 $121 $351 $354 forward $213 $-1 #
coedge $-1 -1 $-1 $121 $204 $347 $355 reversed $213 $-1 #
loop $-1 -1 $-1 $-1 $211 $331 #
vertex $-1 -1 $-1 $122 $356 #
vertex $-1 -1 $-1 $122 $357 #
straight-curve $-1 -1 $-1 5.5 0 6 0 1 0 I I #
face $-1 -1 $-1 $358 $230 $27 $-1 $359 reversed single #
loop $-1 -1 $-1 $-1 $360 $123 #
plane-surface $-1 -1 $-1 -5.2999999999999998 3.5499999999999998 5.7999999999999998 -1 0 0 0 0 1 forward_v I I I I #
coedge $-1 -1 $-1 $361 $362 $363 $364 forward $124 $-1 #
coedge $-1 -1 $-1 $365 $126 $362 $366 reversed $77 $-1 #
coedge $-1 -1 $-1 $126 $365 $127 $226 forward $77 $-1 #
coedge $-1 -1 $-1 $129 $363 $126 $224 reversed $230 $-1 #
edge $-1 -1 $-1 $232 -5.4249999999999998 $367 1.6749999999999998 $126 $368 forward @7 unknown #
coedge $-1 -1 $-1 $128 $127 $369 $370 reversed $52 $-1 #
edge $371 -1 $-1 $372 0 $232 4.7999999999999998 $222 $373 forward @7 unknown #
coedge $-1 -1 $-1 $374 $360 $128 $228 reversed $218 $-1 #
edge $375 -1 $-1 $376 0 $231 4.7999999999999998 $128 $377 forward @7 unknown #
coedge $-1 -1 $-1 $363 $129 $360 $378 reversed $230 $-1 #
loop $-1 -1 $-1 $-1 $129 $217 #
vertex $-1 -1 $-1 $228 $379 #
vertex $-1 -1 $-1 $226 $380 #
straight-curve $-1 -1 $-1 2.75 -3.5499999999999998 1.0000000000000009 1 0 0 I I #
face $-1 -1 $-1 $381 $382 $29 $-1 $383 forward single #
loop $-1 -1 $-1 $-1 $384 $131 #
plane-surface $-1 -1 $-1 -5.5000000000000009 0.25 1 0 -1 0 0 0 -1 forward_v I I I I #
coedge $-1 -1 $-1 $385 $386 $387 $388 forward $132 $-1 #
coedge $-1 -1 $-1 $389 $134 $386 $390 reversed $81 $-1 #
coedge $-1 -1 $-1 $134 $389 $135 $243 forward $81 $-1 #
coedge $-1 -1 $-1 $137 $387 $134 $241 reversed $247 $-1 #
edge $-1 -1 $-1 $249 -5.5 $391 5.5000000000000009 $134 $392 forward @7 unknown #
coedge $-1 -1 $-1 $136 $135 $393 $394 reversed $55 $-1 #
edge $-1 -1 $-1 $395 0 $249 7 $239 $396 forward @7 unknown #
coedge $-1 -1 $-1 $397 $398 $136 $245 reversed $399 $-1 #
edge $-1 -1 $-1 $400 0 $248 7 $136 $401 forward @7 unknown #
coedge $-1 -1 $-1 $402 $137 $398 $403 reversed $247 $-1 #
loop $-1 -1 $-1 $-1 $137 $404 #
vertex $-1 -1 $-1 $245 $405 #
vertex $-1 -1 $-1 $243 $406 #
straight-curve $-1 -1 $-1 5.5 0.050000000000000044 -6 0 1 0 I I #
model_id-kcp-attrib $-1 -1 $-1 $-1 $140 1 1021498685 1021498685 74579969 7 #
face $407 -1 $-1 $408 $409 $9 $-1 $410 reversed single #
loop $-1 -1 $-1 $-1 $411 $140 #
plane-surface $-1 -1 $-1 6.5999999999999996 0 -5 0 -1 0 0 0 -1 forward_v I I I I #
coedge $-1 -1 $-1 $412 $266 $413 $414 forward $141 $-1 #
coedge $-1 -1 $-1 $415 $143 $416 $417 reversed $86 $-1 #
coedge $-1 -1 $-1 $143 $415 $418 $419 forward $86 $-1 #
coedge $-1 -1 $-1 $418 $420 $144 $259 forward $421 $-1 #
edge $422 -1 $-1 $423 0 $263 4 $144 $424 forward @7 unknown #
coedge $-1 -1 $-1 $147 $416 $145 $261 reversed $141 $-1 #
edge $425 -1 $-1 $150 0 $264 3.5 $145 $426 forward @7 unknown #
attrib_edge_convexity-kcp-attrib $-1 -1 $427 $-1 $146 1 #
vertex $-1 -1 $-1 $259 $428 #
vertex $-1 -1 $-1 $261 $429 #
straight-curve $-1 -1 $-1 -5.5 0 -12 0 0 1 I I #
coedge $-1 -1 $-1 $255 $147 $303 $430 forward $141 $-1 #
attrib_edge_convexity-kcp-attrib $-1 -1 $431 $-1 $148 1 #
vertex $-1 -1 $-1 $430 $432 #
straight-curve $-1 -1 $-1 -5.5 3.5 -5 1 0 0 I I #
convexity-sys-attrib $-1 -1 $-1 $149 $91 #
point $-1 -1 $-1 -5.5 3.5 -5 #
coedge $-1 -1 $-1 $433 $434 $152 $273 forward $435 $-1 #
edge $436 -1 $-1 $284 0 $278 5 $152 $437 forward @7 unknown #
coedge $-1 -1 $-1 $438 $153 $158 $288 forward $276 $-1 #
coedge $-1 -1 $-1 $153 $438 $433 $439 reversed $276 $-1 #
loop $-1 -1 $-1 $-1 $274 $440 #
attrib_edge_convexity-kcp-attrib $-1 -1 $441 $-1 $154 1 #
vertex $-1 -1 $-1 $273 $442 #
ellipse-curve $-1 -1 $-1 -0.78125 0 0 0 0 1 3.28125 -2.75 0 1 I I #
coedge $-1 -1 $-1 $443 $155 $434 $444 forward $282 $-1 #
coedge $-1 -1 $-1 $155 $443 $157 $287 reversed $282 $-1 #
loop $-1 -1 $-1 $-1 $280 $445 #
attrib_edge_convexity-kcp-attrib $-1 -1 $446 $-1 $156 1 #
vertex $-1 -1 $-1 $156 $447 #
ellipse-curve $-1 -1 $-1 0.78125 0 0 0 0 1 -3.28125 2.75 0 1 I I #
coedge $-1 -1 $-1 $158 $157 $448 $449 reversed $159 $-1 #
edge $-1 -1 $-1 $162 0 $450 0.19999999999999998 $281 $451 forward @7 unknown #
edge $-1 -1 $-1 $161 0 $452 0.19999999999999998 $274 $453 forward @7 unknown #
face $454 -1 $-1 $445 $159 $9 $-1 $455 reversed single #
convexity-sys-attrib $-1 -1 $-1 $160 $95 #
point $-1 -1 $-1 2.5 2.75 0 #
point $-1 -1 $-1 -2.5 2.75 0 #
coedge $-1 -1 $-1 $456 $164 $166 $298 forward $295 $-1 #
coedge $-1 -1 $-1 $164 $456 $170 $302 reversed $295 $-1 #
loop $-1 -1 $-1 $-1 $293 $457 #
attrib_edge_convexity-kcp-attrib $-1 -1 $458 $-1 $165 1 #
straight-curve $-1 -1 $-1 5.5 -4 0 -1 0 0 I I #
edge $459 -1 $-1 $168 0 $423 12 $293 $460 forward @7 unknown #
convexity-sys-attrib $-1 -1 $-1 $167 $98 #
point $-1 -1 $-1 -5.5 -4 0 #
coedge $-1 -1 $-1 $461 $170 $462 $463 reversed $172 $-1 #
edge $-1 -1 $-1 $174 0 $464 12 $170 $465 forward @7 unknown #
coedge $-1 -1 $-1 $171 $461 $266 $430 reversed $172 $-1 #
face $466 -1 $-1 $457 $172 $9 $-1 $467 forward single #
convexity-sys-attrib $-1 -1 $-1 $173 $100 #
point $-1 -1 $-1 5.5 -4 0 #
attrib_edge_convexity-kcp-attrib $-1 -1 $468 $-1 $176 1 #
straight-curve $-1 -1 $-1 5.5 3.5 0 0 0 -1 I I #
face $-1 -1 $-1 $-1 $469 $24 $-1 $470 forward single #
plane-surface $-1 -1 $-1 0 -1.0987650835334544e-017 -0.19999999999999998 0 0 1 1 0 0 forward_v I I I I #
coedge $-1 -1 $-1 $190 $471 $192 $327 forward $181 $-1 #
coedge $-1 -1 $-1 $472 $183 $471 $473 reversed $107 $-1 #
coedge $-1 -1 $-1 $183 $472 $184 $317 forward $107 $-1 #
coedge $-1 -1 $-1 $186 $192 $183 $315 reversed $193 $-1 #
edge $-1 -1 $-1 $318 0 $474 1.395084014335628 $183 $475 forward @7 unknown #
coedge $-1 -1 $-1 $185 $184 $476 $477 reversed $68 $-1 #
edge $-1 -1 $-1 $478 0 $318 0.19999999999999998 $313 $479 forward @7 unknown #
vertex $-1 -1 $-1 $317 $480 #
straight-curve $-1 -1 $-1 -2.5 -2.75 -0.19999999999999998 1 0 0 I I #
coedge $-1 -1 $-1 $476 $481 $188 $321 forward $469 $-1 #
edge $-1 -1 $-1 $325 0 $322 1.395084014335628 $188 $482 forward @7 unknown #
vertex $-1 -1 $-1 $477 $483 #
straight-curve $-1 -1 $-1 -2.5 -2.75 0 0 0 -1 I I #
coedge $-1 -1 $-1 $471 $190 $481 $484 reversed $181 $-1 #
vertex $-1 -1 $-1 $484 $485 #
straight-curve $-1 -1 $-1 -2.5 2.75 0 0 0 -1 I I #
edge $-1 -1 $-1 $474 0 $194 5 $311 $486 forward @7 unknown #
point $-1 -1 $-1 -2.5 2.75 -0.19999999999999998 #
point $-1 -1 $-1 -2.5 -2.75 -0.19999999999999998 #
model_id-kcp-attrib $-1 -1 $-1 $-1 $198 1 1021498685 1021498685 74579970 3 #
face $487 -1 $-1 $-1 $213 $25 $-1 $488 reversed single #
loop $-1 -1 $-1 $-1 $347 $198 #
plane-surface $-1 -1 $-1 0 3.75 0 0 -1 0 0 0 -1 forward_v I I I I #
coedge $-1 -1 $-1 $489 $345 $348 $490 forward $199 $-1 #
coedge $-1 -1 $-1 $351 $201 $202 $339 reversed $116 $-1 #
coedge $-1 -1 $-1 $345 $489 $201 $337 reversed $199 $-1 #
edge $-1 -1 $-1 $352 -6 $491 6 $336 $492 forward @7 unknown #
coedge $-1 -1 $-1 $203 $202 $489 $493 forward $73 $-1 #
edge $-1 -1 $-1 $343 -5.5 $491 5.5 $335 $494 forward @7 unknown #
coedge $-1 -1 $-1 $348 $347 $203 $341 reversed $332 $-1 #
edge $-1 -1 $-1 $495 -5.5 $342 5.5 $340 $496 forward @7 unknown #
vertex $-1 -1 $-1 $205 $497 #
vertex $-1 -1 $-1 $354 $498 #
straight-curve $-1 -1 $-1 5.5 0 -6 0 -1 0 I I #
coedge $-1 -1 $-1 $334 $336 $206 $346 reversed $199 $-1 #
edge $-1 -1 $-1 $349 -3.75 $352 3.75 $345 $499 forward @7 unknown #
coedge $-1 -1 $-1 $340 $207 $212 $355 forward $332 $-1 #
coedge $-1 -1 $-1 $207 $340 $334 $490 reversed $332 $-1 #
vertex $-1 -1 $-1 $208 $500 #
straight-curve $-1 -1 $-1 0 3.75 6 -1 0 0 I I #
coedge $-1 -1 $-1 $209 $335 $211 $354 reversed $116 $-1 #
vertex $-1 -1 $-1 $346 $501 #
straight-curve $-1 -1 $-1 0 -3.75 6 1 0 0 I I #
edge $-1 -1 $-1 $214 -6 $343 6 $211 $502 forward @7 unknown #
edge $-1 -1 $-1 $215 -6 $342 6 $212 $503 forward @7 unknown #
point $-1 -1 $-1 5.5 -3.75 6 #
point $-1 -1 $-1 5.5 3.75 6 #
face $-1 -1 $-1 $-1 $504 $27 $-1 $505 forward single #
plane-surface $-1 -1 $-1 1.0115745483744364e-016 0 1 1.6766170682104144e-032 -9.342625162870573e-033 1 1 0 -1.6766170682104144e-032 forward_v I I I I #
coedge $-1 -1 $-1 $227 $506 $229 $378 forward $218 $-1 #
coedge $-1 -1 $-1 $507 $220 $506 $508 reversed $124 $-1 #
coedge $-1 -1 $-1 $220 $507 $221 $366 forward $124 $-1 #
coedge $-1 -1 $-1 $223 $229 $220 $364 reversed $230 $-1 #
edge $-1 -1 $-1 $367 -8.0500000000000007 $509 2.5499999999999998 $220 $510 forward @7 unknown #
coedge $-1 -1 $-1 $222 $221 $511 $512 reversed $77 $-1 #
edge $513 -1 $-1 $514 0 $367 4.7999999999999998 $362 $515 forward @7 unknown #
vertex $-1 -1 $-1 $366 $516 #
straight-curve $-1 -1 $-1 5.2999999999999998 1.875 1.0000000000000009 0 1 0 I I #
coedge $-1 -1 $-1 $511 $517 $225 $370 forward $504 $-1 #
edge $518 -1 $-1 $376 -8.0500000000000007 $372 2.5499999999999998 $225 $519 forward @7 unknown #
convexity-sys-attrib $-1 -1 $-1 $-1 $226 #
vertex $-1 -1 $-1 $370 $520 #
straight-curve $-1 -1 $-1 5.2999999999999998 -3.5499999999999998 5.7999999999999998 0 0 -1 I I #
coedge $-1 -1 $-1 $506 $227 $517 $521 reversed $218 $-1 #
convexity-sys-attrib $-1 -1 $-1 $-1 $228 #
vertex $-1 -1 $-1 $521 $522 #
straight-curve $-1 -1 $-1 -5.2999999999999998 -3.5499999999999998 5.7999999999999998 0 0 -1 I I #
edge $-1 -1 $-1 $509 -5.4249999999999998 $231 1.6749999999999998 $360 $523 forward @7 unknown #
point $-1 -1 $-1 -5.2999999999999998 -3.5499999999999998 1 #
point $-1 -1 $-1 5.2999999999999998 -3.5499999999999998 1 #
face $-1 -1 $-1 $524 $525 $29 $-1 $526 forward single #
loop $-1 -1 $-1 $-1 $527 $234 #
plane-surface $-1 -1 $-1 -5.2999999999999998 0.25 1 -1 0 0 0 0 1 forward_v I I I I #
coedge $-1 -1 $-1 $528 $529 $530 $531 forward $235 $-1 #
coedge $-1 -1 $-1 $532 $237 $529 $533 reversed $132 $-1 #
coedge $-1 -1 $-1 $237 $532 $238 $390 forward $132 $-1 #
coedge $-1 -1 $-1 $240 $530 $237 $388 reversed $247 $-1 #
edge $-1 -1 $-1 $391 -3.7000000000000002 $534 -0.19999999999999996 $237 $535 forward @7 unknown #
coedge $-1 -1 $-1 $239 $238 $536 $537 reversed $81 $-1 #
edge $-1 -1 $-1 $538 0 $391 7 $386 $539 forward @7 unknown #
vertex $-1 -1 $-1 $390 $540 #
straight-curve $-1 -1 $-1 0 3.75 -6 -1 0 0 I I #
coedge $-1 -1 $-1 $536 $541 $242 $394 forward $542 $-1 #
edge $543 -1 $-1 $400 0.19999999999999996 $395 3.7000000000000002 $242 $544 forward @7 unknown #
vertex $-1 -1 $-1 $394 $545 #
straight-curve $-1 -1 $-1 5.5 3.75 1 0 0 -1 I I #
coedge $-1 -1 $-1 $546 $244 $541 $547 reversed $399 $-1 #
coedge $-1 -1 $-1 $244 $546 $246 $403 forward $399 $-1 #
loop $-1 -1 $-1 $-1 $398 $548 #
vertex $-1 -1 $-1 $547 $549 #
straight-curve $-1 -1 $-1 5.5 0.25 1 0 0 -1 I I #
coedge $-1 -1 $-1 $550 $246 $551 $552 reversed $247 $-1 #
edge $-1 -1 $-1 $553 2 $248 2.2000000000000002 $398 $554 forward @7 unknown #
face $-1 -1 $-1 $555 $247 $29 $-1 $556 reversed single #
point $-1 -1 $-1 5.5 0.25 -6 #
point $-1 -1 $-1 5.5 3.75 -6 #
model_id-kcp-attrib $-1 -1 $-1 $-1 $252 1 1021498685 1021498685 74579969 8 #
face $557 -1 $-1 $304 $421 $9 $-1 $558 forward single #
loop $-1 -1 $-1 $-1 $559 $252 #
plane-surface $-1 -1 $-1 5.2999999999999998 3.5 0 1 0 0 0 -1 0 forward_v I I I I #
coedge $-1 -1 $-1 $413 $560 $559 $561 forward $253 $-1 #
coedge $-1 -1 $-1 $562 $255 $563 $564 reversed $141 $-1 #
coedge $-1 -1 $-1 $565 $411 $255 $414 reversed $253 $-1 #
edge $566 -1 $-1 $567 0 $568 0.20000000000000018 $255 $569 forward @7 unknown #
coedge $-1 -1 $-1 $257 $256 $570 $571 reversed $86 $-1 #
coedge $-1 -1 $-1 $260 $572 $256 $417 forward $141 $-1 #
edge $573 -1 $-1 $574 8.8817841970012523e-016 $264 0.20000000000000107 $416 $575 forward @7 unknown #
coedge $-1 -1 $-1 $576 $258 $257 $419 reversed $421 $-1 #
edge $577 -1 $-1 $578 8.8817841970012523e-016 $263 0.20000000000000107 $418 $579 forward @7 unknown #
coedge $-1 -1 $-1 $258 $462 $456 $580 forward $421 $-1 #
loop $-1 -1 $-1 $-1 $462 $408 #
attrib_edge_convexity-kcp-attrib $-1 -1 $581 $-1 $259 1 #
vertex $-1 -1 $-1 $580 $582 #
straight-curve $-1 -1 $-1 -5.5 -4 -12 0 1 0 I I #
attrib_edge_convexity-kcp-attrib $-1 -1 $583 $-1 $261 1 #
straight-curve $-1 -1 $-1 -5.5 3.5 -5 0 -1 0 I I #
convexity-sys-attrib $-1 -1 $-1 $262 $146 #
point $-1 -1 $-1 -5.5 0 -12 #
point $-1 -1 $-1 -5.5 0 -5 #
edge $584 -1 $-1 $268 0 $567 3.5 $303 $585 forward @7 unknown #
convexity-sys-attrib $-1 -1 $-1 $267 $148 #
point $-1 -1 $-1 5.5 3.5 -5 #
coedge $-1 -1 $-1 $586 $272 $275 $439 forward $435 $-1 #
coedge $-1 -1 $-1 $272 $586 $280 $444 reversed $435 $-1 #
loop $-1 -1 $-1 $-1 $433 $587 #
attrib_edge_convexity-kcp-attrib $-1 -1 $588 $-1 $273 1 #
straight-curve $-1 -1 $-1 -2.5 -2.75 0 1 0 0 I I #
coedge $-1 -1 $-1 $275 $274 $589 $590 reversed $276 $-1 #
edge $-1 -1 $-1 $278 0 $591 0.19999999999999998 $433 $592 forward @7 unknown #
face $593 -1 $-1 $289 $276 $9 $-1 $594 reversed single #
convexity-sys-attrib $-1 -1 $-1 $277 $154 #
point $-1 -1 $-1 2.5 -2.75 0 #
coedge $-1 -1 $-1 $281 $280 $595 $596 reversed $282 $-1 #
edge $-1 -1 $-1 $284 7.8886090522101181e-030 $597 0.19999999999999998 $280 $598 forward @7 unknown #
face $599 -1 $-1 $-1 $282 $9 $-1 $600 reversed single #
convexity-sys-attrib $-1 -1 $-1 $283 $156 #
point $-1 -1 $-1 -2.5 -2.75 0 #
coedge $-1 -1 $-1 $595 $589 $286 $449 forward $601 $-1 #
edge $602 -1 $-1 $452 0 $450 5 $448 $603 forward @7 unknown #
vertex $-1 -1 $-1 $596 $604 #
straight-curve $-1 -1 $-1 -2.5 2.75 0 0 0 -1 I I #
vertex $-1 -1 $-1 $449 $605 #
straight-curve $-1 -1 $-1 2.5 2.75 0 0 0 -1 I I #
model_id-kcp-attrib $-1 -1 $-1 $-1 $289 1 1021498685 1021498685 74579969 18 #
plane-surface $-1 -1 $-1 2.5 2.75 0 0 1 0 -1 0 0 forward_v I I I I #
coedge $-1 -1 $-1 $294 $293 $420 $580 reversed $295 $-1 #
face $606 -1 $-1 $607 $295 $9 $-1 $608 forward single #
convexity-sys-attrib $-1 -1 $-1 $296 $165 #
attrib_edge_convexity-kcp-attrib $-1 -1 $609 $-1 $298 1 #
straight-curve $-1 -1 $-1 -5.5 -4 0 0 0 -1 I I #
coedge $-1 -1 $-1 $303 $301 $565 $610 forward $172 $-1 #
coedge $-1 -1 $-1 $420 $611 $301 $463 forward $421 $-1 #
edge $-1 -1 $-1 $612 0 $464 4 $301 $613 forward @7 unknown #
vertex $-1 -1 $-1 $463 $614 #
straight-curve $-1 -1 $-1 5.5 -4 0 0 0 -1 I I #
model_id-kcp-attrib $-1 -1 $-1 $-1 $304 1 1021498685 1021498685 74579969 10 #
plane-surface $-1 -1 $-1 5.5 3.5 0 1 0 0 0 -1 0 forward_v I I I I #
convexity-sys-attrib $-1 -1 $-1 $307 $176 #
loop $-1 -1 $-1 $-1 $481 $309 #
plane-surface $-1 -1 $-1 0 -1.0987650835334544e-017 0 0 0 1 1 0 0 forward_v I I I I #
coedge $-1 -1 $-1 $311 $324 $312 $473 forward $181 $-1 #
coedge $-1 -1 $-1 $313 $312 $615 $616 reversed $107 $-1 #
edge $-1 -1 $-1 $617 0 $474 0.19999999999999998 $471 $618 forward @7 unknown #
vertex $-1 -1 $-1 $473 $619 #
ellipse-curve $-1 -1 $-1 -0.78125 0 -0.19999999999999998 0 0 1 3.28125 -2.75 0 1 I I #
coedge $-1 -1 $-1 $615 $320 $316 $477 forward $469 $-1 #
edge $-1 -1 $-1 $322 0 $478 5 $316 $620 forward @7 unknown #
vertex $-1 -1 $-1 $616 $621 #
straight-curve $-1 -1 $-1 2.5 -2.75 0 0 0 -1 I I #
point $-1 -1 $-1 2.5 -2.75 -0.19999999999999998 #
coedge $-1 -1 $-1 $320 $615 $324 $484 forward $469 $-1 #
ellipse-curve $-1 -1 $-1 0.78125 0 0 0 0 1 -3.28125 2.75 0 1 I I #
point $-1 -1 $-1 -2.5 -2.75 0 #
edge $-1 -1 $-1 $617 0 $325 5 $324 $622 forward @7 unknown #
point $-1 -1 $-1 -2.5 2.75 0 #
straight-curve $-1 -1 $-1 2.5 2.75 -0.19999999999999998 -1 0 0 I I #
model_id-kcp-attrib $-1 -1 $-1 $-1 $331 1 1021498685 1021498685 74579970 6 #
plane-surface $-1 -1 $-1 5.5 0 0 -1 0 0 0 0 1 forward_v I I I I #
coedge $-1 -1 $-1 $336 $334 $338 $493 reversed $199 $-1 #
edge $-1 -1 $-1 $349 -6 $495 6 $348 $623 forward @7 unknown #
vertex $-1 -1 $-1 $493 $624 #
straight-curve $-1 -1 $-1 -5.5 -3.75 0 0 0 -1 I I #
edge $-1 -1 $-1 $491 -3.75 $495 3.75 $489 $625 forward @7 unknown #
straight-curve $-1 -1 $-1 0 -3.75 -6 -1 0 0 I I #
vertex $-1 -1 $-1 $341 $626 #
straight-curve $-1 -1 $-1 0 3.75 -6 1 0 0 I I #
point $-1 -1 $-1 5.5 3.75 -6 #
point $-1 -1 $-1 5.5 -3.75 -6 #
straight-curve $-1 -1 $-1 -5.5 0 6 0 -1 0 I I #
point $-1 -1 $-1 -5.5 3.75 6 #
point $-1 -1 $-1 -5.5 -3.75 6 #
straight-curve $-1 -1 $-1 5.5 -3.75 0 0 0 -1 I I #
straight-curve $-1 -1 $-1 5.5 3.75 0 0 0 -1 I I #
loop $-1 -1 $-1 $-1 $517 $358 #
plane-surface $-1 -1 $-1 1.0115745483744364e-016 0 5.7999999999999998 1.6766170682104144e-032 -9.342625162870573e-033 1 1 0 -1.6766170682104144e-032 forward_v I I I I #
coedge $-1 -1 $-1 $360 $374 $361 $508 forward $218 $-1 #
coedge $-1 -1 $-1 $362 $361 $627 $628 reversed $124 $-1 #
edge $629 -1 $-1 $630 0 $509 4.7999999999999998 $506 $631 forward @7 unknown #
vertex $-1 -1 $-1 $508 $632 #
straight-curve $-1 -1 $-1 -2.75 3.5499999999999998 1.0000000000000009 -1 0 0 I I #
coedge $-1 -1 $-1 $627 $369 $365 $512 forward $504 $-1 #
edge $633 -1 $-1 $372 -5.4249999999999998 $514 1.6749999999999998 $365 $634 forward @7 unknown #
convexity-sys-attrib $-1 -1 $-1 $-1 $366 #
vertex $-1 -1 $-1 $512 $635 #
straight-curve $-1 -1 $-1 5.2999999999999998 3.5499999999999998 5.7999999999999998 0 0 -1 I I #
point $-1 -1 $-1 5.2999999999999998 3.5499999999999998 1 #
coedge $-1 -1 $-1 $369 $627 $374 $521 forward $504 $-1 #
convexity-sys-attrib $-1 -1 $-1 $-1 $370 #
straight-curve $-1 -1 $-1 2.75 -3.5499999999999998 5.8000000000000007 1 0 0 I I #
point $-1 -1 $-1 5.2999999999999998 -3.5499999999999998 5.7999999999999998 #
edge $636 -1 $-1 $630 -5.4249999999999998 $376 1.6749999999999998 $374 $637 forward @7 unknown #
point $-1 -1 $-1 -5.2999999999999998 -3.5499999999999998 5.7999999999999998 #
straight-curve $-1 -1 $-1 -5.2999999999999998 -1.875 1.0000000000000009 0 -1 0 I I #
face $-1 -1 $-1 $548 $638 $29 $-1 $639 forward single #
loop $-1 -1 $-1 $-1 $640 $381 #
plane-surface $-1 -1 $-1 -5.2999999999999998 -3.5499999999999998 1 0 -1 0 0 0 -1 forward_v I I I I #
coedge $-1 -1 $-1 $641 $642 $643 $644 forward $382 $-1 #
coedge $-1 -1 $-1 $645 $384 $642 $646 reversed $235 $-1 #
coedge $-1 -1 $-1 $384 $645 $385 $533 forward $235 $-1 #
coedge $-1 -1 $-1 $387 $643 $384 $531 reversed $247 $-1 #
edge $-1 -1 $-1 $534 -8.8000000000000007 $647 -8.5999999999999996 $384 $648 forward @7 unknown #
coedge $-1 -1 $-1 $386 $385 $649 $650 reversed $132 $-1 #
edge $-1 -1 $-1 $651 0 $534 7 $529 $652 forward @7 unknown #
vertex $-1 -1 $-1 $533 $653 #
straight-curve $-1 -1 $-1 -5.5 0.050000000000000044 -6 0 -1 0 I I #
coedge $-1 -1 $-1 $649 $393 $389 $537 forward $542 $-1 #
edge $654 -1 $-1 $395 -5.5 $538 5.5 $389 $655 forward @7 unknown #
vertex $-1 -1 $-1 $537 $656 #
straight-curve $-1 -1 $-1 -5.5000000000000009 3.75 1 0 0 -1 I I #
point $-1 -1 $-1 -5.5000000000000009 3.75 -6 #
coedge $-1 -1 $-1 $393 $657 $397 $547 forward $542 $-1 #
loop $-1 -1 $-1 $-1 $541 $555 #
convexity-sys-attrib $-1 -1 $-1 $-1 $394 #
straight-curve $-1 -1 $-1 5.5 0.050000000000000044 1 0 1 0 I I #
point $-1 -1 $-1 5.5 3.75 1 #
coedge $-1 -1 $-1 $398 $397 $658 $659 forward $399 $-1 #
edge $660 -1 $-1 $661 2 $400 2.2000000000000002 $397 $662 forward @7 unknown #
face $-1 -1 $-1 $404 $399 $29 $-1 $663 forward single #
point $-1 -1 $-1 5.5 0.25 1 #
coedge $-1 -1 $-1 $643 $402 $640 $664 reversed $247 $-1 #
coedge $-1 -1 $-1 $658 $665 $402 $552 forward $638 $-1 #
edge $-1 -1 $-1 $666 -5.4749999999999996 $553 -1.675 $551 $667 forward @7 unknown #
vertex $-1 -1 $-1 $659 $668 #
straight-curve $-1 -1 $-1 3.2999999999999998 0.25 -6 1 0 0 I I #
face $-1 -1 $-1 $-1 $542 $29 $-1 $669 forward single #
plane-surface $-1 -1 $-1 -3.3306690738754696e-016 0.14153005464480858 -6 0 0 1 1 0 0 forward_v I I I I #
model_id-kcp-attrib $-1 -1 $-1 $-1 $408 1 1021498685 1021498685 74579969 9 #
plane-surface $-1 -1 $-1 0 0 -12 0 0 -1 -1 0 0 forward_v I I I I #
coedge $-1 -1 $-1 $670 $563 $411 $561 reversed $409 $-1 #
coedge $-1 -1 $-1 $411 $565 $611 $671 forward $253 $-1 #
edge $672 -1 $-1 $673 0 $568 7 $559 $674 forward @7 unknown #
coedge $-1 -1 $-1 $572 $412 $675 $676 reversed $141 $-1 #
coedge $-1 -1 $-1 $559 $677 $412 $564 forward $409 $-1 #
edge $678 -1 $-1 $679 0 $568 3.2999999999999998 $563 $680 forward @7 unknown #
coedge $-1 -1 $-1 $560 $413 $461 $610 reversed $253 $-1 #
attrib_edge_convexity-kcp-attrib $-1 -1 $681 $-1 $414 2 #
vertex $-1 -1 $-1 $430 $682 #
vertex $-1 -1 $-1 $564 $683 #
straight-curve $-1 -1 $-1 5.5 0 -5 -1 0 0 I I #
coedge $-1 -1 $-1 $684 $685 $415 $571 forward $686 $-1 #
edge $687 -1 $-1 $578 0 $574 7 $570 $688 forward @7 unknown #
coedge $-1 -1 $-1 $416 $562 $684 $689 forward $141 $-1 #
attrib_edge_convexity-kcp-attrib $-1 -1 $690 $-1 $417 2 #
vertex $-1 -1 $-1 $689 $691 #
straight-curve $-1 -1 $-1 -5.2999999999999989 0 -5 -1 0 0 I I #
coedge $-1 -1 $-1 $692 $418 $685 $693 reversed $421 $-1 #
attrib_edge_convexity-kcp-attrib $-1 -1 $694 $-1 $419 1 #
vertex $-1 -1 $-1 $693 $695 #
straight-curve $-1 -1 $-1 -5.2999999999999989 0 -12 -1 0 0 I I #
edge $-1 -1 $-1 $464 0 $423 11 $456 $696 forward @7 unknown #
convexity-sys-attrib $-1 -1 $-1 $422 $259 #
point $-1 -1 $-1 -5.5 -4 -12 #
convexity-sys-attrib $-1 -1 $-1 $425 $261 #
attrib_edge_convexity-kcp-attrib $-1 -1 $697 $-1 $430 1 #
straight-curve $-1 -1 $-1 5.5 3.5 -5 0 -1 0 I I #
coedge $-1 -1 $-1 $434 $433 $698 $699 reversed $435 $-1 #
face $700 -1 $-1 $440 $435 $9 $-1 $701 reversed single #
convexity-sys-attrib $-1 -1 $-1 $436 $273 #
coedge $-1 -1 $-1 $448 $698 $438 $590 forward $601 $-1 #
edge $702 -1 $-1 $591 3.8765824573410547e-016 $452 1.395084014335628 $589 $703 forward @7 unknown #
vertex $-1 -1 $-1 $590 $704 #
straight-curve $-1 -1 $-1 2.5000000000000018 -2.75 0 0 0 -1 I I #
model_id-kcp-attrib $-1 -1 $-1 $-1 $440 1 1021498685 1021498685 74579969 17 #
cone-surface $-1 -1 $-1 -0.78125 0 0 0 0 1 4.28125 0 0 1 I I 0 1 4.28125 forward I I I I #
coedge $-1 -1 $-1 $698 $448 $443 $596 forward $601 $-1 #
edge $705 -1 $-1 $450 0 $597 1.395084014335628 $595 $706 forward @7 unknown #
vertex $-1 -1 $-1 $596 $707 #
straight-curve $-1 -1 $-1 -2.5000000000000009 -2.7499999999999991 0 4.4408920985006262e-015 -4.4408920985006262e-015 -1 I I #
model_id-kcp-attrib $-1 -1 $-1 $-1 $445 1 1021498685 1021498685 74579969 19 #
cone-surface $-1 -1 $-1 0.78125 0 0 0 0 1 4.28125 0 0 1 I I 0 1 4.28125 forward I I I I #
loop $-1 -1 $-1 $-1 $698 $708 #
attrib_edge_convexity-kcp-attrib $-1 -1 $709 $-1 $449 1 #
straight-curve $-1 -1 $-1 2.5 2.75 -0.19999999999999998 -1 0 0 I I #
point $-1 -1 $-1 -2.5 2.75 -0.19999999999999998 #
point $-1 -1 $-1 2.5 2.75 -0.19999999999999998 #
model_id-kcp-attrib $-1 -1 $-1 $-1 $457 1 1021498685 1021498685 74579969 11 #
face $710 -1 $-1 $711 $686 $9 $-1 $712 reversed single #
plane-surface $-1 -1 $-1 5.5 -4 0 0 -1 0 -1 0 0 forward_v I I I I #
convexity-sys-attrib $-1 -1 $-1 $459 $298 #
edge $713 -1 $-1 $612 0 $567 7 $461 $714 forward @7 unknown #
coedge $-1 -1 $-1 $462 $715 $560 $671 reversed $421 $-1 #
vertex $-1 -1 $-1 $610 $716 #
straight-curve $-1 -1 $-1 5.5 0 -12 0 -1 0 I I #
point $-1 -1 $-1 5.5 -4 -12 #
coedge $-1 -1 $-1 $481 $476 $472 $616 forward $469 $-1 #
edge $-1 -1 $-1 $478 0 $617 1.395084014335628 $472 $717 forward @7 unknown #
vertex $-1 -1 $-1 $484 $718 #
straight-curve $-1 -1 $-1 2.5 2.75 0 0 0 -1 I I #
point $-1 -1 $-1 2.5 2.75 -0.19999999999999998 #
straight-curve $-1 -1 $-1 -2.5 -2.75 0 1 0 0 I I #
point $-1 -1 $-1 2.5 -2.75 0 #
straight-curve $-1 -1 $-1 2.5 2.75 0 -1 0 0 I I #
straight-curve $-1 -1 $-1 -5.5 3.75 0 0 0 -1 I I #
point $-1 -1 $-1 -5.5 -3.75 -6 #
straight-curve $-1 -1 $-1 -5.5 0 -6 0 1 0 I I #
point $-1 -1 $-1 -5.5 3.75 -6 #
coedge $-1 -1 $-1 $517 $511 $507 $628 forward $504 $-1 #
edge $719 -1 $-1 $514 -8.0500000000000007 $630 2.5499999999999998 $507 $720 forward @7 unknown #
convexity-sys-attrib $-1 -1 $-1 $-1 $508 #
vertex $-1 -1 $-1 $521 $721 #
straight-curve $-1 -1 $-1 -5.2999999999999998 3.5499999999999998 5.7999999999999998 0 0 -1 I I #
point $-1 -1 $-1 -5.2999999999999998 3.5499999999999998 1 #
convexity-sys-attrib $-1 -1 $-1 $-1 $512 #
straight-curve $-1 -1 $-1 5.2999999999999998 1.875 5.8000000000000007 0 1 0 I I #
point $-1 -1 $-1 5.2999999999999998 3.5499999999999998 5.7999999999999998 #
convexity-sys-attrib $-1 -1 $-1 $-1 $521 #
straight-curve $-1 -1 $-1 -5.2999999999999998 -1.875 5.8000000000000007 0 -1 0 I I #
loop $-1 -1 $-1 $-1 $551 $524 #
plane-surface $-1 -1 $-1 5.2999999999999998 -3.5499999999999998 1 1 0 0 0 0 -1 forward_v I I I I #
coedge $-1 -1 $-1 $722 $723 $550 $664 forward $525 $-1 #
coedge $-1 -1 $-1 $724 $527 $723 $725 reversed $382 $-1 #
coedge $-1 -1 $-1 $527 $724 $528 $646 forward $382 $-1 #
coedge $-1 -1 $-1 $530 $550 $527 $644 reversed $247 $-1 #
edge $-1 -1 $-1 $647 -2.0750000000000002 $726 1.7249999999999999 $527 $727 forward @7 unknown #
coedge $-1 -1 $-1 $529 $528 $728 $729 reversed $235 $-1 #
edge $730 -1 $-1 $731 0 $647 7 $642 $732 forward @7 unknown #
vertex $-1 -1 $-1 $646 $733 #
straight-curve $-1 -1 $-1 3.2999999999999998 0.25 -6 1 0 0 I I #
coedge $-1 -1 $-1 $728 $536 $532 $650 forward $542 $-1 #
edge $734 -1 $-1 $538 -3.7000000000000002 $651 -0.19999999999999996 $532 $735 forward @7 unknown #
vertex $-1 -1 $-1 $650 $736 #
straight-curve $-1 -1 $-1 -5.5000000000000009 0.25 1 0 0 -1 I I #
point $-1 -1 $-1 -5.5000000000000009 0.25 -6 #
convexity-sys-attrib $-1 -1 $-1 $-1 $537 #
straight-curve $-1 -1 $-1 0 3.75 1 -1 0 0 I I #
point $-1 -1 $-1 -5.5 3.75 1 #
coedge $-1 -1 $-1 $541 $737 $738 $739 forward $542 $-1 #
coedge $-1 -1 $-1 $738 $551 $546 $659 reversed $638 $-1 #
edge $-1 -1 $-1 $661 0 $553 7 $546 $740 forward @7 unknown #
convexity-sys-attrib $-1 -1 $-1 $-1 $547 #
vertex $-1 -1 $-1 $547 $741 #
straight-curve $-1 -1 $-1 3.2999999999999998 0.25 1 1 0 0 I I #
plane-surface $-1 -1 $-1 5.2999999999999998 0.25 1 0 -1 0 0 0 -1 forward_v I I I I #
edge $-1 -1 $-1 $726 -8.0500000000000007 $666 2.5499999999999998 $640 $742 forward @7 unknown #
coedge $-1 -1 $-1 $551 $738 $722 $743 forward $638 $-1 #
vertex $-1 -1 $-1 $743 $744 #
straight-curve $-1 -1 $-1 5.2999999999999998 1.925 -6 0 1 0 I I #
point $-1 -1 $-1 5.2999999999999998 0.25 -6 #
plane-surface $-1 -1 $-1 -3.3306690738754696e-016 0.14153005464480858 1 0 0 1 1 0 0 forward_v I I I I #
coedge $-1 -1 $-1 $745 $559 $715 $746 forward $409 $-1 #
edge $747 -1 $-1 $612 0 $673 0.20000000000000018 $611 $748 forward @7 unknown #
attrib_edge_convexity-kcp-attrib $-1 -1 $749 $-1 $561 1 #
vertex $-1 -1 $-1 $671 $750 #
straight-curve $-1 -1 $-1 5.2999999999999998 0 -12 0 0 1 I I #
coedge $-1 -1 $-1 $751 $752 $562 $676 forward $753 $-1 #
edge $754 -1 $-1 $755 -8.8817841970012523e-016 $679 10.599999999999998 $675 $756 forward @7 unknown #
coedge $-1 -1 $-1 $563 $757 $751 $758 forward $409 $-1 #
attrib_edge_convexity-kcp-attrib $-1 -1 $759 $-1 $564 1 #
vertex $-1 -1 $-1 $564 $760 #
straight-curve $-1 -1 $-1 5.2999999999999998 3.2999999999999998 -5 0 -1 0 I I #
convexity-sys-attrib $-1 -1 $-1 $566 $414 #
point $-1 -1 $-1 5.5 0 -5 #
point $-1 -1 $-1 5.2999999999999998 0 -5 #
coedge $-1 -1 $-1 $761 $570 $572 $689 reversed $686 $-1 #
coedge $-1 -1 $-1 $570 $762 $576 $693 forward $686 $-1 #
loop $-1 -1 $-1 $-1 $761 $607 #
attrib_edge_convexity-kcp-attrib $-1 -1 $763 $-1 $571 1 #
straight-curve $-1 -1 $-1 -5.2999999999999989 0 -12 0 0 1 I I #
edge $764 -1 $-1 $755 0 $574 3.2999999999999998 $684 $765 forward @7 unknown #
convexity-sys-attrib $-1 -1 $-1 $573 $417 #
point $-1 -1 $-1 -5.2999999999999998 0 -5 #
coedge $-1 -1 $-1 $715 $576 $766 $767 reversed $421 $-1 #
edge $-1 -1 $-1 $768 0 $578 3.7999999999999998 $576 $769 forward @7 unknown #
convexity-sys-attrib $-1 -1 $-1 $577 $419 #
point $-1 -1 $-1 -5.2999999999999998 0 -12 #
straight-curve $-1 -1 $-1 5.5 -4 -12 -1 0 0 I I #
convexity-sys-attrib $-1 -1 $-1 $584 $430 #
coedge $-1 -1 $-1 $589 $595 $586 $699 forward $601 $-1 #
edge $770 -1 $-1 $597 0 $591 5.0000000000000018 $698 $771 forward @7 unknown #
model_id-kcp-attrib $-1 -1 $-1 $-1 $587 1 1021498685 1021498685 74579969 16 #
plane-surface $-1 -1 $-1 -2.5 -2.75 0 0 -1 0 1 0 0 forward_v I I I I #
attrib_edge_convexity-kcp-attrib $-1 -1 $772 $-1 $590 1 #
ellipse-curve $-1 -1 $-1 -0.78125 1.1102230246251565e-016 -0.19999999999999998 0 0 1 3.28125 -2.75 0 1 I I #
point $-1 -1 $-1 2.5000000000000013 -2.7499999999999987 -0.19999999999999998 #
attrib_edge_convexity-kcp-attrib $-1 -1 $773 $-1 $596 1 #
ellipse-curve $-1 -1 $-1 0.78125 0 -0.19999999999999998 0 0 1 -3.28125 2.75 0 1 I I #
point $-1 -1 $-1 -2.5 -2.75 -0.19999999999999998 #
face $774 -1 $-1 $775 $776 $9 $-1 $777 forward single #
convexity-sys-attrib $-1 -1 $-1 $602 $449 #
model_id-kcp-attrib $-1 -1 $-1 $-1 $607 1 1021498685 1021498685 74579969 12 #
face $778 -1 $-1 $708 $753 $9 $-1 $779 reversed single #
plane-surface $-1 -1 $-1 -5.2999999999999998 -4 0 -1 0 0 0 1 0 forward_v I I I I #
attrib_edge_convexity-kcp-attrib $-1 -1 $780 $-1 $610 1 #
straight-curve $-1 -1 $-1 5.5 0 -12 0 0 1 I I #
coedge $-1 -1 $-1 $611 $692 $670 $746 reversed $421 $-1 #
point $-1 -1 $-1 5.5 0 -12 #
ellipse-curve $-1 -1 $-1 -0.78125 0 0 0 0 1 3.28125 -2.75 0 1 I I #
point $-1 -1 $-1 2.5 2.75 0 #
convexity-sys-attrib $-1 -1 $-1 $-1 $628 #
straight-curve $-1 -1 $-1 -2.75 3.5499999999999998 5.8000000000000007 -1 0 0 I I #
point $-1 -1 $-1 -5.2999999999999998 3.5499999999999998 5.7999999999999998 #
coedge $-1 -1 $-1 $781 $640 $665 $743 reversed $525 $-1 #
coedge $-1 -1 $-1 $640 $781 $641 $725 forward $525 $-1 #
coedge $-1 -1 $-1 $642 $641 $782 $783 reversed $382 $-1 #
edge $-1 -1 $-1 $784 0 $726 7 $723 $785 forward @7 unknown #
vertex $-1 -1 $-1 $725 $786 #
straight-curve $-1 -1 $-1 -5.2999999999999998 -1.825 -6 0 -1 0 I I #
coedge $-1 -1 $-1 $782 $649 $645 $729 forward $542 $-1 #
edge $787 -1 $-1 $651 -8.8000000000000007 $731 -8.5999999999999996 $645 $788 forward @7 unknown #
convexity-sys-attrib $-1 -1 $-1 $-1 $646 #
vertex $-1 -1 $-1 $729 $789 #
straight-curve $-1 -1 $-1 -5.2999999999999998 0.25 1 0 0 -1 I I #
point $-1 -1 $-1 -5.2999999999999998 0.25 -6 #
convexity-sys-attrib $-1 -1 $-1 $-1 $650 #
straight-curve $-1 -1 $-1 -5.5 0.050000000000000044 1 0 -1 0 I I #
point $-1 -1 $-1 -5.5 0.25 1 #
coedge $-1 -1 $-1 $657 $782 $781 $790 forward $542 $-1 #
coedge $-1 -1 $-1 $665 $658 $657 $739 reversed $638 $-1 #
edge $791 -1 $-1 $792 -5.4749999999999996 $661 -1.675 $738 $793 forward @7 unknown #
straight-curve $-1 -1 $-1 5.2999999999999998 0.25 1 0 0 -1 I I #
point $-1 -1 $-1 5.2999999999999998 0.25 1 #
straight-curve $-1 -1 $-1 2.75 -3.5499999999999998 -6 1 0 0 I I #
edge $-1 -1 $-1 $792 0 $666 7 $665 $794 forward @7 unknown #
point $-1 -1 $-1 5.2999999999999998 -3.5499999999999998 -6 #
coedge $-1 -1 $-1 $757 $670 $795 $796 reversed $409 $-1 #
edge $-1 -1 $-1 $673 0 $797 3.7999999999999998 $715 $798 forward @7 unknown #
attrib_edge_convexity-kcp-attrib $-1 -1 $799 $-1 $671 1 #
straight-curve $-1 -1 $-1 5.5 0 -12 -1 0 0 I I #
convexity-sys-attrib $-1 -1 $-1 $672 $561 #
point $-1 -1 $-1 5.2999999999999998 0 -12 #
coedge $-1 -1 $-1 $800 $675 $677 $758 reversed $753 $-1 #
coedge $-1 -1 $-1 $675 $800 $761 $801 forward $753 $-1 #
loop $-1 -1 $-1 $-1 $751 $711 #
attrib_edge_convexity-kcp-attrib $-1 -1 $802 $-1 $676 1 #
vertex $-1 -1 $-1 $689 $803 #
straight-curve $-1 -1 $-1 -5.2999999999999989 3.2999999999999998 -5 1 0 0 I I #
coedge $-1 -1 $-1 $677 $745 $804 $805 reversed $409 $-1 #
edge $-1 -1 $-1 $806 0 $679 4.7999999999999998 $677 $807 forward @7 unknown #
convexity-sys-attrib $-1 -1 $-1 $678 $564 #
point $-1 -1 $-1 5.2999999999999998 3.2999999999999998 -5 #
coedge $-1 -1 $-1 $808 $684 $752 $801 reversed $686 $-1 #
coedge $-1 -1 $-1 $685 $808 $809 $810 forward $686 $-1 #
convexity-sys-attrib $-1 -1 $-1 $687 $571 #
attrib_edge_convexity-kcp-attrib $-1 -1 $811 $-1 $689 1 #
straight-curve $-1 -1 $-1 -5.2999999999999989 3.2999999999999998 -5 0 -1 0 I I #
coedge $-1 -1 $-1 $809 $795 $692 $767 forward $812 $-1 #
edge $813 -1 $-1 $797 8.8817841970012523e-016 $768 10.6 $692 $814 forward @7 unknown #
vertex $-1 -1 $-1 $767 $815 #
straight-curve $-1 -1 $-1 -5.2999999999999998 -3.7999999999999998 -12 0 1 0 I I #
attrib_edge_convexity-kcp-attrib $-1 -1 $816 $-1 $699 1 #
straight-curve $-1 -1 $-1 -2.5 -2.75 -0.19999999999999998 1 0 0 I I #
convexity-sys-attrib $-1 -1 $-1 $702 $590 #
convexity-sys-attrib $-1 -1 $-1 $705 $596 #
model_id-kcp-attrib $-1 -1 $-1 $-1 $708 1 1021498685 1021498685 74579969 14 #
face $817 -1 $-1 $587 $812 $9 $-1 $818 reversed single #
loop $-1 -1 $-1 $601 $819 $708 #
plane-surface $-1 -1 $-1 0 0 -0.19999999999999998 0 0 -1 -1 0 0 forward_v I I I I #
model_id-kcp-attrib $-1 -1 $-1 $-1 $711 1 1021498685 1021498685 74579969 13 #
plane-surface $-1 -1 $-1 -5.5 3.2999999999999998 0 0 1 0 1 0 0 forward_v I I I I #
convexity-sys-attrib $-1 -1 $-1 $713 $610 #
coedge $-1 -1 $-1 $723 $722 $737 $790 reversed $525 $-1 #
coedge $-1 -1 $-1 $737 $728 $724 $783 forward $542 $-1 #
edge $820 -1 $-1 $731 -2.0750000000000002 $784 1.7249999999999999 $724 $821 forward @7 unknown #
vertex $-1 -1 $-1 $783 $822 #
straight-curve $-1 -1 $-1 -5.2999999999999998 -3.5499999999999998 1 0 0 -1 I I #
point $-1 -1 $-1 -5.2999999999999998 -3.5499999999999998 -6 #
convexity-sys-attrib $-1 -1 $-1 $-1 $729 #
straight-curve $-1 -1 $-1 3.2999999999999998 0.25 1 1 0 0 I I #
point $-1 -1 $-1 -5.2999999999999998 0.25 1 #
edge $823 -1 $-1 $784 -8.0500000000000007 $792 2.5499999999999998 $781 $824 forward @7 unknown #
convexity-sys-attrib $-1 -1 $-1 $-1 $739 #
vertex $-1 -1 $-1 $790 $825 #
straight-curve $-1 -1 $-1 5.2999999999999998 1.925 1 0 1 0 I I #
straight-curve $-1 -1 $-1 5.2999999999999998 -3.5499999999999998 1 0 0 -1 I I #
coedge $-1 -1 $-1 $766 $826 $745 $796 forward $812 $-1 #
edge $827 -1 $-1 $828 0 $797 11.800000000000001 $745 $829 forward @7 unknown #
vertex $-1 -1 $-1 $746 $830 #
straight-curve $-1 -1 $-1 5.2999999999999998 0 -12 0 -1 0 I I #
convexity-sys-attrib $-1 -1 $-1 $747 $671 #
coedge $-1 -1 $-1 $752 $751 $831 $832 reversed $753 $-1 #
edge $-1 -1 $-1 $833 0 $755 4.7999999999999998 $761 $834 forward @7 unknown #
convexity-sys-attrib $-1 -1 $-1 $754 $676 #
point $-1 -1 $-1 -5.2999999999999998 3.2999999999999998 -5 #
coedge $-1 -1 $-1 $819 $831 $757 $805 forward $776 $-1 #
edge $835 -1 $-1 $806 0 $828 7.0999999999999996 $804 $836 forward @7 unknown #
vertex $-1 -1 $-1 $805 $837 #
straight-curve $-1 -1 $-1 5.3000000000000007 3.2999999999999998 -0.19999999999999998 0 0 -1 I I #
coedge $-1 -1 $-1 $762 $761 $838 $839 reversed $686 $-1 #
coedge $-1 -1 $-1 $826 $766 $762 $810 reversed $812 $-1 #
edge $840 -1 $-1 $841 0 $768 11.800000000000001 $809 $842 forward @7 unknown #
convexity-sys-attrib $-1 -1 $-1 $764 $689 #
loop $-1 -1 $-1 $-1 $795 $775 #
attrib_edge_convexity-kcp-attrib $-1 -1 $843 $-1 $767 1 #
straight-curve $-1 -1 $-1 5.2999999999999998 -3.7999999999999998 -12 -1 0 0 I I #
point $-1 -1 $-1 -5.2999999999999998 -3.7999999999999998 -12 #
convexity-sys-attrib $-1 -1 $-1 $770 $699 #
model_id-kcp-attrib $-1 -1 $-1 $-1 $775 1 1021498685 1021498685 74579969 15 #
plane-surface $-1 -1 $-1 5.5 -3.7999999999999998 0 0 -1 0 -1 0 0 forward_v I I I I #
coedge $-1 -1 $-1 $838 $804 $826 $844 forward $776 $-1 #
convexity-sys-attrib $-1 -1 $-1 $-1 $783 #
straight-curve $-1 -1 $-1 -5.2999999999999998 -1.825 1 0 -1 0 I I #
point $-1 -1 $-1 -5.2999999999999998 -3.5499999999999998 1 #
convexity-sys-attrib $-1 -1 $-1 $-1 $790 #
straight-curve $-1 -1 $-1 2.75 -3.5499999999999998 1 1 0 0 I I #
point $-1 -1 $-1 5.2999999999999998 -3.5499999999999998 1 #
coedge $-1 -1 $-1 $795 $809 $819 $844 reversed $812 $-1 #
attrib_edge_convexity-kcp-attrib $-1 -1 $845 $-1 $796 2 #
vertex $-1 -1 $-1 $805 $846 #
straight-curve $-1 -1 $-1 5.2999999999999998 -3.7999999999999998 -0.19999999999999998 0 0 -1 I I #
point $-1 -1 $-1 5.2999999999999989 -3.7999999999999998 -12 #
coedge $-1 -1 $-1 $804 $838 $800 $832 forward $776 $-1 #
edge $847 -1 $-1 $833 0 $806 10.6 $831 $848 forward @7 unknown #
vertex $-1 -1 $-1 $832 $849 #
straight-curve $-1 -1 $-1 -5.2999999999999998 3.2999999999999998 -0.19999999999999998 0 0 -1 I I #
attrib_edge_convexity-kcp-attrib $-1 -1 $850 $-1 $805 2 #
straight-curve $-1 -1 $-1 5.2999999999999998 3.2999999999999998 -0.19999999999999998 0 -1 0 I I #
point $-1 -1 $-1 5.2999999999999998 3.2999999999999998 -0.19999999999999998 #
coedge $-1 -1 $-1 $831 $819 $808 $839 forward $776 $-1 #
edge $851 -1 $-1 $841 0 $833 7.0999999999999996 $838 $852 forward @7 unknown #
attrib_edge_convexity-kcp-attrib $-1 -1 $853 $-1 $810 2 #
vertex $-1 -1 $-1 $839 $854 #
straight-curve $-1 -1 $-1 -5.3000000000000007 -3.7999999999999998 -0.19999999999999998 0 0 -1 I I #
convexity-sys-attrib $-1 -1 $-1 $813 $767 #
edge $855 -1 $-1 $828 0 $841 10.6 $819 $856 forward @7 unknown #
convexity-sys-attrib $-1 -1 $-1 $827 $796 #
point $-1 -1 $-1 5.2999999999999998 -3.7999999999999998 -0.19999999999999998 #
attrib_edge_convexity-kcp-attrib $-1 -1 $857 $-1 $832 2 #
straight-curve $-1 -1 $-1 -5.2999999999999998 3.2999999999999998 -0.19999999999999998 1 0 0 I I #
point $-1 -1 $-1 -5.2999999999999998 3.2999999999999998 -0.19999999999999998 #
convexity-sys-attrib $-1 -1 $-1 $835 $805 #
attrib_edge_convexity-kcp-attrib $-1 -1 $858 $-1 $839 2 #
straight-curve $-1 -1 $-1 -5.2999999999999998 -3.7999999999999998 -0.19999999999999998 0 1 0 I I #
convexity-sys-attrib $-1 -1 $-1 $840 $810 #
point $-1 -1 $-1 -5.2999999999999998 -3.7999999999999998 -0.19999999999999998 #
attrib_edge_convexity-kcp-attrib $-1 -1 $859 $-1 $844 2 #
straight-curve $-1 -1 $-1 5.2999999999999998 -3.7999999999999998 -0.19999999999999998 -1 0 0 I I #
convexity-sys-attrib $-1 -1 $-1 $847 $832 #
convexity-sys-attrib $-1 -1 $-1 $851 $839 #
convexity-sys-attrib $-1 -1 $-1 $855 $844 #
End-of-ACIS-data 