700 0 2 0           
24 FBMach with ACIS - 7.0.3 13 ACIS 7.0.3 NT 24 Wed May 15 17:59:38 2002 
1 9.9999999999999995e-007 1e-010 
body $2 -1 $-1 $3 $-1 $4 #
bdycol-kcp $-1 -1 1 2 $5 $6 #
model_id-kcp-attrib $-1 -1 $-1 $-1 $0 1 1021499978 1021499978 1403846657 1 #
lump $-1 -1 $-1 $-1 $7 $0 #
transform $-1 -1 1 0 0 0 1 0 0 0 1 0 0 0 1 rotate no_reflect no_shear #
body $8 -1 $-1 $9 $-1 $10 #
body $11 -1 $-1 $12 $-1 $13 #
shell $-1 -1 $-1 $-1 $-1 $14 $-1 $3 #
model_id-kcp-attrib $-1 -1 $-1 $-1 $5 1 1021499978 1021499978 1403846658 1 #
lump $-1 -1 $-1 $-1 $15 $5 #
transform $-1 -1 1 0 0 0 1 0 0 0 1 0 0 -10 1 no_rotate no_reflect no_shear #
rgb_color-st-attrib $-1 -1 $16 $-1 $6 0.5 1 1 #
lump $-1 -1 $-1 $-1 $17 $6 #
transform $-1 -1 1 0 0 0 1 0 0 0 1 0 0 -10 1 no_rotate no_reflect no_shear #
face $18 -1 $-1 $19 $20 $7 $-1 $21 reversed single #
shell $-1 -1 $-1 $-1 $-1 $22 $-1 $9 #
model_id-kcp-attrib $-1 -1 $-1 $11 $6 1 1021499978 1021499978 1409089539 1 #
shell $-1 -1 $-1 $-1 $-1 $23 $-1 $12 #
model_id-kcp-attrib $-1 -1 $-1 $-1 $14 1 1021499978 1021499978 1403846657 2 #
face $24 -1 $-1 $25 $26 $7 $-1 $27 forward single #
loop $-1 -1 $-1 $-1 $28 $14 #
plane-surface $-1 -1 $-1 0 0 0 0 0 -1 -1 0 0 forward_v I I I I #
face $29 -1 $-1 $30 $31 $15 $-1 $32 forward single #
face $-1 -1 $-1 $33 $34 $17 $-1 $35 reversed single #
model_id-kcp-attrib $-1 -1 $-1 $-1 $19 1 1021499978 1021499978 1403846657 3 #
face $36 -1 $-1 $37 $38 $7 $-1 $39 forward single #
loop $-1 -1 $-1 $-1 $40 $19 #
cone-surface $-1 -1 $-1 0 0 0 0 0 -1 -0.29999999999999999 0 0 1 I I 0 1 0.29999999999999999 forward I I I I #
coedge $-1 -1 $-1 $41 $41 $42 $43 reversed $20 $-1 #
model_id-kcp-attrib $-1 -1 $-1 $-1 $22 1 1021499978 1021499978 1403846658 2 #
face $44 -1 $-1 $45 $46 $15 $-1 $47 reversed single #
loop $-1 -1 $-1 $-1 $48 $22 #
plane-surface $-1 -1 $-1 0 0 10 0 0 1 1 0 0 forward_v I I I I #
face $-1 -1 $-1 $49 $50 $17 $-1 $35 reversed single #
loop $-1 -1 $-1 $-1 $51 $23 #
cone-surface $-1 -1 $-1 -1.1247455413666029e-033 0 10 0 0 1 0.29999999999999999 0 0 1 I I 0 1 0.29999999999999999 forward I I I I #
model_id-kcp-attrib $-1 -1 $-1 $-1 $25 1 1021499978 1021499978 1403846657 4 #
face $52 -1 $-1 $-1 $53 $7 $-1 $54 forward single #
loop $-1 -1 $-1 $-1 $55 $25 #
cone-surface $-1 -1 $-1 0 0 0 0 0 -1 -0.29999999999999999 0 0 1 I I 0 1 0.29999999999999999 forward I I I I #
coedge $-1 -1 $-1 $56 $42 $57 $58 forward $26 $-1 #
coedge $-1 -1 $-1 $28 $28 $59 $60 reversed $20 $-1 #
coedge $-1 -1 $-1 $40 $61 $28 $43 forward $26 $-1 #
edge $62 -1 $-1 $63 0 $64 3.1415926535897931 $28 $65 forward @7 unknown #
model_id-kcp-attrib $-1 -1 $-1 $-1 $30 1 1021499978 1021499978 1403846658 3 #
face $-1 -1 $-1 $66 $67 $15 $-1 $68 reversed single #
loop $-1 -1 $-1 $-1 $69 $30 #
plane-surface $-1 -1 $-1 0 0 -10 0 0 1 1 0 0 forward_v I I I I #
coedge $-1 -1 $-1 $70 $71 $72 $73 forward $31 $-1 #
face $-1 -1 $-1 $74 $75 $17 $-1 $35 reversed single #
loop $-1 -1 $-1 $-1 $76 $33 #
coedge $-1 -1 $-1 $77 $78 $79 $80 reversed $34 $-1 #
model_id-kcp-attrib $-1 -1 $-1 $-1 $37 1 1021499978 1021499978 1403846657 5 #
loop $-1 -1 $-1 $-1 $81 $37 #
plane-surface $-1 -1 $-1 0 0 -20 0 0 -1 -1 0 0 forward_v I I I I #
coedge $-1 -1 $-1 $82 $59 $61 $83 forward $38 $-1 #
coedge $-1 -1 $-1 $61 $40 $81 $84 reversed $26 $-1 #
coedge $-1 -1 $-1 $59 $82 $40 $58 reversed $38 $-1 #
edge $-1 -1 $-1 $64 0 $85 20 $57 $86 forward @7 unknown #
coedge $-1 -1 $-1 $55 $57 $41 $60 forward $38 $-1 #
edge $87 -1 $-1 $64 0 $63 3.1415926535897931 $41 $88 forward @7 unknown #
coedge $-1 -1 $-1 $42 $56 $55 $83 reversed $26 $-1 #
attrib_edge_convexity-kcp-attrib $-1 -1 $89 $-1 $43 1 #
vertex $-1 -1 $-1 $60 $90 #
vertex $-1 -1 $-1 $60 $91 #
ellipse-curve $-1 -1 $-1 0 0 0 0 0 -1 0.29999999999999999 0 0 1 I I #
face $-1 -1 $-1 $92 $93 $15 $-1 $94 reversed single #
loop $-1 -1 $-1 $-1 $95 $45 #
plane-surface $-1 -1 $-1 0 -0.29999999999999999 0 0 1 0 0 0 1 forward_v I I I I #
coedge $-1 -1 $-1 $96 $97 $98 $99 forward $46 $-1 #
coedge $-1 -1 $-1 $100 $48 $101 $102 forward $31 $-1 #
coedge $-1 -1 $-1 $48 $100 $103 $104 forward $31 $-1 #
coedge $-1 -1 $-1 $105 $106 $48 $73 reversed $107 $-1 #
edge $-1 -1 $-1 $108 -0.29999999999999999 $109 0.29999999999999999 $72 $110 forward @7 unknown #
face $-1 -1 $-1 $111 $112 $17 $-1 $35 reversed single #
loop $-1 -1 $-1 $-1 $113 $49 #
coedge $-1 -1 $-1 $114 $115 $116 $117 reversed $50 $-1 #
coedge $-1 -1 $-1 $118 $51 $119 $120 reversed $34 $-1 #
coedge $-1 -1 $-1 $51 $118 $121 $122 reversed $34 $-1 #
coedge $-1 -1 $-1 $123 $124 $125 $80 forward $126 $-1 #
edge $-1 -1 $-1 $127 -20 $128 0 $79 $129 forward @7 unknown #
coedge $-1 -1 $-1 $130 $130 $56 $84 forward $53 $-1 #
coedge $-1 -1 $-1 $57 $55 $130 $131 reversed $38 $-1 #
edge $-1 -1 $-1 $63 0 $132 20 $55 $133 forward @7 unknown #
edge $-1 -1 $-1 $132 0 $85 3.1415926535897931 $81 $134 forward @7 unknown #
vertex $-1 -1 $-1 $131 $135 #
straight-curve $-1 -1 $-1 -0.29999999999999999 0 0 0 0 -1 I I #
attrib_edge_convexity-kcp-attrib $-1 -1 $136 $-1 $60 1 #
ellipse-curve $-1 -1 $-1 0 0 0 0 0 -1 -0.29999999999999999 0 0 1 I I #
convexity-sys-attrib $-1 -1 $-1 $62 $43 #
point $-1 -1 $-1 0.29999999999999999 0 0 #
point $-1 -1 $-1 -0.29999999999999999 0 0 #
face $-1 -1 $-1 $137 $138 $15 $-1 $139 reversed single #
loop $-1 -1 $-1 $-1 $140 $66 #
plane-surface $-1 -1 $-1 -0.29999999999999999 0 0 1 0 0 0 0 -1 forward_v I I I I #
coedge $-1 -1 $-1 $141 $103 $142 $143 forward $67 $-1 #
coedge $-1 -1 $-1 $144 $69 $141 $145 forward $46 $-1 #
coedge $-1 -1 $-1 $69 $144 $146 $147 forward $46 $-1 #
coedge $-1 -1 $-1 $106 $105 $69 $99 reversed $107 $-1 #
edge $-1 -1 $-1 $148 -0.29999999999999999 $149 0.29999999999999999 $98 $150 forward @7 unknown #
coedge $-1 -1 $-1 $71 $70 $151 $152 forward $31 $-1 #
coedge $-1 -1 $-1 $153 $154 $70 $102 reversed $138 $-1 #
edge $-1 -1 $-1 $109 -0.29999999999999999 $155 0.29999999999999999 $101 $156 forward @7 unknown #
coedge $-1 -1 $-1 $95 $157 $71 $104 reversed $67 $-1 #
edge $-1 -1 $-1 $158 -0.29999999999999999 $108 0.29999999999999999 $103 $159 forward @7 unknown #
coedge $-1 -1 $-1 $98 $72 $157 $160 forward $107 $-1 #
coedge $-1 -1 $-1 $72 $98 $153 $161 reversed $107 $-1 #
loop $-1 -1 $-1 $-1 $105 $137 #
vertex $-1 -1 $-1 $73 $162 #
vertex $-1 -1 $-1 $73 $163 #
straight-curve $-1 -1 $-1 0.29999999999999999 0 10 0 1 0 I I #
face $-1 -1 $-1 $164 $165 $17 $-1 $166 reversed single #
loop $-1 -1 $-1 $-1 $167 $74 #
coedge $-1 -1 $-1 $168 $169 $170 $171 reversed $75 $-1 #
coedge $-1 -1 $-1 $172 $76 $173 $174 reversed $50 $-1 #
coedge $-1 -1 $-1 $76 $172 $51 $80 forward $50 $-1 #
coedge $-1 -1 $-1 $175 $176 $76 $117 forward $177 $-1 #
edge $-1 -1 $-1 $178 -3.1415926535897931 $128 -1.5707963267948966 $116 $179 forward @7 unknown #
coedge $-1 -1 $-1 $78 $77 $169 $180 forward $34 $-1 #
coedge $-1 -1 $-1 $181 $182 $77 $120 forward $183 $-1 #
edge $-1 -1 $-1 $184 0 $127 1.5707963267948966 $119 $185 forward @7 unknown #
coedge $-1 -1 $-1 $186 $187 $78 $122 forward $188 $-1 #
edge $-1 -1 $-1 $128 -1.5707963267948966 $189 0 $121 $179 forward @7 unknown #
coedge $-1 -1 $-1 $190 $79 $187 $191 reversed $126 $-1 #
coedge $-1 -1 $-1 $79 $190 $181 $192 reversed $126 $-1 #
coedge $-1 -1 $-1 $193 $194 $115 $80 reversed $195 $-1 #
loop $-1 -1 $-1 $-1 $79 $196 #
vertex $-1 -1 $-1 $192 $197 #
vertex $-1 -1 $-1 $198 $199 #
straight-curve $-1 -1 $-1 -1.1247455413666029e-033 0.29999999999999999 10 0 0 1 I I #
coedge $-1 -1 $-1 $81 $81 $82 $131 forward $53 $-1 #
edge $-1 -1 $-1 $85 0 $132 3.1415926535897931 $130 $200 forward @7 unknown #
vertex $-1 -1 $-1 $131 $201 #
straight-curve $-1 -1 $-1 0.29999999999999999 3.6738190614671314e-017 0 0 0 -1 I I #
ellipse-curve $-1 -1 $-1 0 0 -20 0 0 -1 0.29999999999999999 0 0 1 I I #
point $-1 -1 $-1 -0.29999999999999999 0 -20 #
convexity-sys-attrib $-1 -1 $-1 $87 $60 #
face $-1 -1 $-1 $-1 $107 $15 $-1 $202 reversed single #
loop $-1 -1 $-1 $-1 $153 $92 #
plane-surface $-1 -1 $-1 0 0.29999999999999999 0 0 -1 0 0 0 -1 forward_v I I I I #
coedge $-1 -1 $-1 $203 $151 $154 $204 forward $93 $-1 #
coedge $-1 -1 $-1 $157 $95 $96 $145 reversed $67 $-1 #
coedge $-1 -1 $-1 $151 $203 $95 $143 reversed $93 $-1 #
edge $-1 -1 $-1 $158 -10 $205 10 $142 $206 forward @7 unknown #
coedge $-1 -1 $-1 $97 $96 $203 $207 forward $46 $-1 #
edge $-1 -1 $-1 $149 -0.29999999999999999 $205 0.29999999999999999 $141 $208 forward @7 unknown #
coedge $-1 -1 $-1 $154 $153 $97 $147 reversed $138 $-1 #
edge $-1 -1 $-1 $209 -0.29999999999999999 $148 0.29999999999999999 $146 $210 forward @7 unknown #
vertex $-1 -1 $-1 $99 $211 #
vertex $-1 -1 $-1 $160 $212 #
straight-curve $-1 -1 $-1 0.29999999999999999 0 -10 0 -1 0 I I #
coedge $-1 -1 $-1 $140 $142 $100 $152 reversed $93 $-1 #
edge $-1 -1 $-1 $155 -0.29999999999999999 $158 0.29999999999999999 $151 $213 forward @7 unknown #
coedge $-1 -1 $-1 $146 $101 $106 $161 forward $138 $-1 #
coedge $-1 -1 $-1 $101 $146 $140 $204 reversed $138 $-1 #
vertex $-1 -1 $-1 $102 $214 #
straight-curve $-1 -1 $-1 0 0.29999999999999999 10 -1 0 0 I I #
coedge $-1 -1 $-1 $103 $141 $105 $160 reversed $67 $-1 #
vertex $-1 -1 $-1 $152 $215 #
straight-curve $-1 -1 $-1 0 -0.29999999999999999 10 1 0 0 I I #
edge $-1 -1 $-1 $108 -10 $149 10 $105 $216 forward @7 unknown #
edge $-1 -1 $-1 $109 -10 $148 10 $106 $217 forward @7 unknown #
point $-1 -1 $-1 0.29999999999999999 -0.29999999999999999 10 #
point $-1 -1 $-1 0.29999999999999999 0.29999999999999999 10 #
face $-1 -1 $-1 $218 $195 $17 $-1 $219 reversed single #
loop $-1 -1 $-1 $-1 $220 $111 #
plane-surface $-1 -1 $-1 0.29999999999999999 0 0 -1 0 0 0 0 1 forward_v I I I I #
coedge $-1 -1 $-1 $221 $222 $223 $224 reversed $112 $-1 #
coedge $-1 -1 $-1 $225 $113 $222 $226 forward $75 $-1 #
coedge $-1 -1 $-1 $113 $225 $227 $180 reversed $75 $-1 #
coedge $-1 -1 $-1 $228 $229 $113 $171 forward $230 $-1 #
edge $-1 -1 $-1 $231 -1.5707963267948966 $184 0 $170 $185 forward @7 unknown #
coedge $-1 -1 $-1 $115 $114 $232 $233 reversed $50 $-1 #
coedge $-1 -1 $-1 $234 $235 $236 $174 forward $237 $-1 #
edge $-1 -1 $-1 $238 -20 $178 0 $173 $239 forward @7 unknown #
coedge $-1 -1 $-1 $176 $116 $194 $198 forward $177 $-1 #
coedge $-1 -1 $-1 $116 $175 $234 $240 forward $177 $-1 #
loop $-1 -1 $-1 $-1 $116 $241 #
vertex $-1 -1 $-1 $242 $243 #
ellipse-curve $-1 -1 $-1 -1.1247455413666029e-033 0 10 0 0 -1 0.29999999999999999 0 0 1 I I #
edge $-1 -1 $-1 $184 -20 $189 0 $227 $244 forward @7 unknown #
coedge $-1 -1 $-1 $182 $119 $124 $192 forward $183 $-1 #
coedge $-1 -1 $-1 $119 $181 $245 $246 forward $183 $-1 #
loop $-1 -1 $-1 $-1 $119 $247 #
vertex $-1 -1 $-1 $248 $249 #
ellipse-curve $-1 -1 $-1 -1.1247455413666029e-033 0 -10 0 0 1 0.29999999999999999 0 0 1 I I #
coedge $-1 -1 $-1 $187 $121 $250 $251 forward $188 $-1 #
coedge $-1 -1 $-1 $121 $186 $123 $191 forward $188 $-1 #
loop $-1 -1 $-1 $-1 $121 $252 #
vertex $-1 -1 $-1 $251 $253 #
coedge $-1 -1 $-1 $124 $123 $254 $255 forward $126 $-1 #
edge $-1 -1 $-1 $256 -0.29999999999999999 $128 1.1247455413666029e-033 $123 $257 forward @7 unknown #
edge $-1 -1 $-1 $127 -1.1247455413666029e-033 $258 0.29999999999999999 $124 $259 forward @7 unknown #
coedge $-1 -1 $-1 $260 $125 $261 $262 reversed $195 $-1 #
coedge $-1 -1 $-1 $125 $260 $175 $198 reversed $195 $-1 #
loop $-1 -1 $-1 $-1 $125 $164 #
face $-1 -1 $-1 $263 $126 $17 $-1 $219 reversed single #
point $-1 -1 $-1 -1.1247455413666029e-033 0.29999999999999999 -10 #
edge $-1 -1 $-1 $128 1.1247455413666029e-033 $264 0.29999999999999999 $194 $257 forward @7 unknown #
point $-1 -1 $-1 -1.1247455413666029e-033 0.29999999999999999 10 #
ellipse-curve $-1 -1 $-1 0 0 -20 0 0 -1 -0.29999999999999999 0 0 1 I I #
point $-1 -1 $-1 0.29999999999999999 0 -20 #
plane-surface $-1 -1 $-1 0.29999999999999999 0 0 -1 0 0 0 0 1 forward_v I I I I #
coedge $-1 -1 $-1 $142 $140 $144 $207 reversed $93 $-1 #
edge $-1 -1 $-1 $155 -10 $209 10 $154 $265 forward @7 unknown #
vertex $-1 -1 $-1 $207 $266 #
straight-curve $-1 -1 $-1 -0.29999999999999999 -0.29999999999999999 0 0 0 -1 I I #
edge $-1 -1 $-1 $205 -0.29999999999999999 $209 0.29999999999999999 $203 $267 forward @7 unknown #
straight-curve $-1 -1 $-1 0 -0.29999999999999999 -10 -1 0 0 I I #
vertex $-1 -1 $-1 $147 $268 #
straight-curve $-1 -1 $-1 0 0.29999999999999999 -10 1 0 0 I I #
point $-1 -1 $-1 0.29999999999999999 0.29999999999999999 -10 #
point $-1 -1 $-1 0.29999999999999999 -0.29999999999999999 -10 #
straight-curve $-1 -1 $-1 -0.29999999999999999 0 10 0 -1 0 I I #
point $-1 -1 $-1 -0.29999999999999999 0.29999999999999999 10 #
point $-1 -1 $-1 -0.29999999999999999 -0.29999999999999999 10 #
straight-curve $-1 -1 $-1 0.29999999999999999 -0.29999999999999999 0 0 0 -1 I I #
straight-curve $-1 -1 $-1 0.29999999999999999 0.29999999999999999 0 0 0 -1 I I #
face $-1 -1 $-1 $269 $270 $17 $-1 $271 reversed single #
plane-surface $-1 -1 $-1 0 0.29999999999999999 0 0 -1 0 0 0 -1 forward_v I I I I #
coedge $-1 -1 $-1 $245 $250 $118 $180 reversed $165 $-1 #
coedge $-1 -1 $-1 $272 $167 $114 $174 forward $112 $-1 #
coedge $-1 -1 $-1 $167 $272 $273 $226 reversed $112 $-1 #
coedge $-1 -1 $-1 $274 $275 $167 $224 forward $276 $-1 #
edge $-1 -1 $-1 $238 -3.1415926535897931 $231 -1.5707963267948966 $223 $185 forward @7 unknown #
coedge $-1 -1 $-1 $169 $168 $277 $278 reversed $75 $-1 #
edge $-1 -1 $-1 $231 -20 $279 0 $273 $280 forward @7 unknown #
coedge $-1 -1 $-1 $281 $282 $220 $180 forward $283 $-1 #
coedge $-1 -1 $-1 $229 $170 $282 $248 forward $230 $-1 #
coedge $-1 -1 $-1 $170 $228 $284 $285 forward $230 $-1 #
loop $-1 -1 $-1 $-1 $170 $286 #
vertex $-1 -1 $-1 $287 $288 #
coedge $-1 -1 $-1 $289 $261 $172 $233 forward $290 $-1 #
edge $-1 -1 $-1 $127 1.5707963267948966 $238 3.1415926535897931 $232 $185 forward @7 unknown #
coedge $-1 -1 $-1 $291 $173 $176 $240 reversed $237 $-1 #
coedge $-1 -1 $-1 $173 $291 $289 $292 reversed $237 $-1 #
coedge $-1 -1 $-1 $293 $294 $221 $174 reversed $270 $-1 #
loop $-1 -1 $-1 $-1 $173 $295 #
vertex $-1 -1 $-1 $292 $296 #
straight-curve $-1 -1 $-1 -0.29999999999999999 0 10 0 0 1 I I #
edge $-1 -1 $-1 $264 -0.29999999999999999 $178 0 $234 $297 forward @7 unknown #
face $-1 -1 $-1 $252 $177 $17 $-1 $298 forward single #
edge $-1 -1 $-1 $178 0 $299 0.29999999999999999 $294 $297 forward @7 unknown #
point $-1 -1 $-1 -0.29999999999999999 0 10 #
straight-curve $-1 -1 $-1 0.29999999999999999 0 10 0 0 1 I I #
coedge $-1 -1 $-1 $254 $220 $182 $246 reversed $165 $-1 #
edge $-1 -1 $-1 $258 -0.29999999999999999 $184 0 $245 $300 forward @7 unknown #
face $-1 -1 $-1 $301 $183 $17 $-1 $302 reversed single #
edge $-1 -1 $-1 $184 0 $303 0.29999999999999999 $282 $300 forward @7 unknown #
point $-1 -1 $-1 0.29999999999999999 0 -10 #
coedge $-1 -1 $-1 $220 $254 $186 $251 reversed $165 $-1 #
edge $-1 -1 $-1 $189 0 $256 0.29999999999999999 $250 $304 forward @7 unknown #
face $-1 -1 $-1 $305 $188 $17 $-1 $298 forward single #
point $-1 -1 $-1 0.29999999999999999 0 10 #
coedge $-1 -1 $-1 $250 $245 $190 $255 reversed $165 $-1 #
edge $-1 -1 $-1 $256 -10 $258 10 $254 $306 forward @7 unknown #
vertex $-1 -1 $-1 $251 $307 #
straight-curve $-1 -1 $-1 0 0.29999999999999999 10 -1 0 0 I I #
vertex $-1 -1 $-1 $246 $308 #
straight-curve $-1 -1 $-1 0 0.29999999999999999 -10 1 0 0 I I #
coedge $-1 -1 $-1 $194 $193 $291 $309 reversed $195 $-1 #
coedge $-1 -1 $-1 $232 $289 $193 $262 forward $290 $-1 #
edge $-1 -1 $-1 $310 -0.29999999999999999 $127 -1.1247455413666029e-033 $193 $259 forward @7 unknown #
face $-1 -1 $-1 $-1 $283 $17 $-1 $166 reversed single #
vertex $-1 -1 $-1 $198 $311 #
straight-curve $-1 -1 $-1 -0.29999999999999999 0.29999999999999999 0 0 0 -1 I I #
point $-1 -1 $-1 -0.29999999999999999 -0.29999999999999999 -10 #
straight-curve $-1 -1 $-1 -0.29999999999999999 0 -10 0 1 0 I I #
point $-1 -1 $-1 -0.29999999999999999 0.29999999999999999 -10 #
face $-1 -1 $-1 $241 $312 $17 $-1 $298 forward single #
loop $-1 -1 $-1 $-1 $236 $218 #
plane-surface $-1 -1 $-1 -0.29999999999999999 0 0 1 0 0 0 0 -1 forward_v I I I I #
coedge $-1 -1 $-1 $222 $221 $313 $314 reversed $112 $-1 #
coedge $-1 -1 $-1 $315 $316 $317 $226 forward $318 $-1 #
coedge $-1 -1 $-1 $275 $223 $316 $287 forward $276 $-1 #
coedge $-1 -1 $-1 $223 $274 $293 $319 forward $276 $-1 #
loop $-1 -1 $-1 $-1 $223 $320 #
coedge $-1 -1 $-1 $321 $322 $225 $278 forward $323 $-1 #
edge $-1 -1 $-1 $189 0 $279 1.5707963267948966 $277 $179 forward @7 unknown #
vertex $-1 -1 $-1 $324 $325 #
straight-curve $-1 -1 $-1 -1.1247455413666029e-033 -0.29999999999999999 10 0 0 1 I I #
coedge $-1 -1 $-1 $326 $227 $322 $327 reversed $283 $-1 #
coedge $-1 -1 $-1 $227 $326 $228 $248 reversed $283 $-1 #
loop $-1 -1 $-1 $-1 $227 $263 #
coedge $-1 -1 $-1 $328 $317 $229 $285 reversed $329 $-1 #
edge $-1 -1 $-1 $303 -0.29999999999999999 $231 1.1247455413666029e-033 $284 $330 forward @7 unknown #
face $-1 -1 $-1 $247 $230 $17 $-1 $302 reversed single #
edge $-1 -1 $-1 $231 1.1247455413666029e-033 $331 0.29999999999999999 $316 $330 forward @7 unknown #
point $-1 -1 $-1 -1.1247455413666029e-033 -0.29999999999999999 -10 #
coedge $-1 -1 $-1 $261 $232 $235 $292 forward $290 $-1 #
loop $-1 -1 $-1 $-1 $232 $301 #
coedge $-1 -1 $-1 $235 $234 $260 $309 forward $237 $-1 #
edge $-1 -1 $-1 $238 0 $310 0.29999999999999999 $235 $332 forward @7 unknown #
coedge $-1 -1 $-1 $333 $236 $275 $319 reversed $270 $-1 #
coedge $-1 -1 $-1 $236 $333 $334 $242 reversed $270 $-1 #
face $-1 -1 $-1 $196 $237 $17 $-1 $271 reversed single #
point $-1 -1 $-1 -0.29999999999999999 0 -10 #
straight-curve $-1 -1 $-1 -0.29999999999999999 0 10 0 -1 0 I I #
plane-surface $-1 -1 $-1 0 0 10 0 0 1 1 0 0 forward_v I I I I #
vertex $-1 -1 $-1 $242 $335 #
straight-curve $-1 -1 $-1 0.29999999999999999 0 -10 0 -1 0 I I #
face $-1 -1 $-1 $336 $290 $17 $-1 $302 reversed single #
plane-surface $-1 -1 $-1 0 0 -10 0 0 1 1 0 0 forward_v I I I I #
vertex $-1 -1 $-1 $337 $338 #
straight-curve $-1 -1 $-1 0.29999999999999999 0 10 0 1 0 I I #
face $-1 -1 $-1 $339 $323 $17 $-1 $298 forward single #
straight-curve $-1 -1 $-1 0.29999999999999999 0.29999999999999999 0 0 0 -1 I I #
point $-1 -1 $-1 0.29999999999999999 0.29999999999999999 10 #
point $-1 -1 $-1 0.29999999999999999 0.29999999999999999 -10 #
edge $-1 -1 $-1 $264 -10 $310 10 $260 $340 forward @7 unknown #
vertex $-1 -1 $-1 $262 $341 #
point $-1 -1 $-1 -0.29999999999999999 0.29999999999999999 10 #
loop $-1 -1 $-1 $-1 $313 $269 #
coedge $-1 -1 $-1 $334 $342 $272 $314 forward $312 $-1 #
edge $-1 -1 $-1 $279 1.5707963267948966 $178 3.1415926535897931 $313 $179 forward @7 unknown #
coedge $-1 -1 $-1 $343 $273 $342 $344 reversed $318 $-1 #
coedge $-1 -1 $-1 $273 $343 $274 $287 reversed $318 $-1 #
coedge $-1 -1 $-1 $284 $345 $168 $226 reversed $329 $-1 #
loop $-1 -1 $-1 $-1 $273 $336 #
edge $-1 -1 $-1 $331 -0.29999999999999999 $238 0 $293 $332 forward @7 unknown #
face $-1 -1 $-1 $286 $276 $17 $-1 $302 reversed single #
coedge $-1 -1 $-1 $322 $277 $345 $324 forward $323 $-1 #
coedge $-1 -1 $-1 $277 $321 $281 $327 forward $323 $-1 #
loop $-1 -1 $-1 $-1 $277 $305 #
edge $-1 -1 $-1 $279 -1.1247455413666029e-033 $346 0.29999999999999999 $345 $347 forward @7 unknown #
point $-1 -1 $-1 -1.1247455413666029e-033 -0.29999999999999999 10 #
coedge $-1 -1 $-1 $282 $281 $328 $337 forward $283 $-1 #
edge $-1 -1 $-1 $346 -0.29999999999999999 $189 0 $281 $304 forward @7 unknown #
coedge $-1 -1 $-1 $345 $284 $326 $337 reversed $329 $-1 #
loop $-1 -1 $-1 $-1 $317 $339 #
straight-curve $-1 -1 $-1 0 -0.29999999999999999 -10 -1 0 0 I I #
vertex $-1 -1 $-1 $319 $348 #
straight-curve $-1 -1 $-1 -0.29999999999999999 0 -10 0 1 0 I I #
coedge $-1 -1 $-1 $294 $293 $343 $349 reversed $270 $-1 #
coedge $-1 -1 $-1 $342 $313 $294 $242 forward $312 $-1 #
point $-1 -1 $-1 -0.29999999999999999 -0.29999999999999999 10 #
face $-1 -1 $-1 $295 $318 $17 $-1 $350 reversed single #
edge $-1 -1 $-1 $346 -10 $303 10 $326 $351 forward @7 unknown #
point $-1 -1 $-1 0.29999999999999999 -0.29999999999999999 -10 #
face $-1 -1 $-1 $320 $329 $17 $-1 $350 reversed single #
straight-curve $-1 -1 $-1 -0.29999999999999999 0.29999999999999999 0 0 0 -1 I I #
point $-1 -1 $-1 -0.29999999999999999 0.29999999999999999 -10 #
coedge $-1 -1 $-1 $313 $334 $315 $344 forward $312 $-1 #
coedge $-1 -1 $-1 $316 $315 $333 $349 forward $318 $-1 #
edge $-1 -1 $-1 $299 -0.29999999999999999 $279 -1.1247455413666029e-033 $315 $347 forward @7 unknown #
coedge $-1 -1 $-1 $317 $328 $321 $324 reversed $329 $-1 #
vertex $-1 -1 $-1 $327 $352 #
straight-curve $-1 -1 $-1 0 -0.29999999999999999 10 1 0 0 I I #
point $-1 -1 $-1 -0.29999999999999999 -0.29999999999999999 -10 #
edge $-1 -1 $-1 $299 -10 $331 10 $333 $353 forward @7 unknown #
plane-surface $-1 -1 $-1 0 -0.29999999999999999 0 0 1 0 0 0 1 forward_v I I I I #
straight-curve $-1 -1 $-1 0.29999999999999999 -0.29999999999999999 0 0 0 -1 I I #
point $-1 -1 $-1 0.29999999999999999 -0.29999999999999999 10 #
straight-curve $-1 -1 $-1 -0.29999999999999999 -0.29999999999999999 0 0 0 -1 I I #
End-of-ACIS-data 