600 0 1 0           
89 GICL ACIS Healer - Source: /gicl/data5/repository/PTC/V18/fly_small18/fin_laito.sat - 6 0 18 ACIS 6.0.3 Solaris 24 Sat Apr 13 22:06:53 2002 
1 9.999999999999999547e-07 1.000000000000000036e-10 
body $-1 $1 $-1 $-1 #
lump $-1 $-1 $2 $0 #
shell $-1 $-1 $-1 $3 $-1 $1 #
face $-1 $4 $5 $2 $-1 $6 reversed single #
face $-1 $7 $8 $2 $-1 $9 forward single #
loop $-1 $-1 $10 $3 #
plane-surface $-1 0 0 0 0 0 -1 -1 0 0 forward_v I I I I #
face $-1 $11 $12 $2 $-1 $13 forward single #
loop $-1 $-1 $14 $4 #
plane-surface $-1 -4 1.5 0 0 1 0 1 0 0 forward_v I I I I #
coedge $-1 $15 $16 $17 $18 reversed $5 $-1 #
face $-1 $19 $20 $2 $-1 $21 forward single #
loop $-1 $-1 $22 $7 #
plane-surface $-1 4 1.5 0 1 0 0 0 -1 0 forward_v I I I I #
coedge $-1 $23 $17 $24 $25 forward $8 $-1 #
coedge $-1 $26 $10 $27 $28 reversed $5 $-1 #
coedge $-1 $10 $26 $29 $30 reversed $5 $-1 #
coedge $-1 $14 $31 $10 $18 forward $8 $-1 #
edge $-1 $32 0 $33 8 $10 $34 forward 7 unknown #
face $-1 $35 $36 $2 $-1 $37 forward single #
loop $-1 $-1 $38 $11 #
plane-surface $-1 4 -1.5 0 0 -1 0 -1 0 0 forward_v I I I I #
coedge $-1 $39 $29 $40 $41 forward $12 $-1 #
coedge $-1 $31 $14 $42 $43 reversed $8 $-1 #
coedge $-1 $29 $39 $14 $25 reversed $12 $-1 #
edge $-1 $33 0 $44 1 $24 $45 forward 7 unknown #
coedge $-1 $16 $15 $46 $47 reversed $5 $-1 #
coedge $-1 $48 $49 $15 $28 forward $36 $-1 #
edge $-1 $50 0 $32 3 $15 $51 forward 7 unknown #
coedge $-1 $22 $24 $16 $30 forward $12 $-1 #
edge $-1 $33 0 $52 3 $16 $53 forward 7 unknown #
coedge $-1 $17 $23 $48 $54 reversed $8 $-1 #
vertex $-1 $28 $55 #
vertex $-1 $30 $56 #
straight-curve $-1 -4 1.5 0 1 0 0 I I #
face $-1 $57 $58 $2 $-1 $59 forward single #
loop $-1 $-1 $48 $19 #
plane-surface $-1 -4 -1.5 0 -1 0 0 0 1 0 forward_v I I I I #
coedge $-1 $60 $46 $49 $61 forward $20 $-1 #
coedge $-1 $24 $22 $62 $63 reversed $12 $-1 #
coedge $-1 $46 $60 $22 $41 reversed $20 $-1 #
edge $-1 $52 0 $64 1 $22 $65 forward 7 unknown #
coedge $-1 $62 $66 $23 $43 forward $58 $-1 #
edge $-1 $67 0 $44 8 $42 $68 forward 7 unknown #
vertex $-1 $63 $69 #
straight-curve $-1 4 1.5 0 0 0 -1 I I #
coedge $-1 $38 $40 $26 $47 forward $20 $-1 #
edge $-1 $52 0 $50 8 $26 $70 forward 7 unknown #
coedge $-1 $71 $27 $31 $54 forward $36 $-1 #
coedge $-1 $27 $71 $38 $61 reversed $36 $-1 #
vertex $-1 $47 $72 #
straight-curve $-1 -4 -1.5 0 0 1 0 I I #
vertex $-1 $30 $73 #
straight-curve $-1 4 1.5 0 0 -1 0 I I #
edge $-1 $32 0 $67 1 $48 $74 forward 7 unknown #
point $-1 -4 1.5 0 #
point $-1 4 1.5 0 #
face $-1 $75 $76 $2 $-1 $77 forward single #
loop $-1 $78 $79 $35 #
plane-surface $-1 0 0 -1 0 0 -1 -1 0 0 forward_v I I I I #
coedge $-1 $40 $38 $79 $80 reversed $20 $-1 #
edge $-1 $50 0 $81 1 $38 $82 forward 7 unknown #
coedge $-1 $79 $42 $39 $63 forward $58 $-1 #
edge $-1 $44 0 $64 3 $62 $83 forward 7 unknown #
vertex $-1 $63 $84 #
straight-curve $-1 4 -1.5 0 0 0 -1 I I #
coedge $-1 $42 $79 $71 $85 forward $58 $-1 #
vertex $-1 $43 $86 #
straight-curve $-1 -4 1.5 -1 1 0 0 I I #
point $-1 4 1.5 -1 #
straight-curve $-1 4 -1.5 0 -1 0 0 I I #
coedge $-1 $49 $48 $66 $85 reversed $36 $-1 #
point $-1 -4 -1.5 0 #
point $-1 4 -1.5 0 #
straight-curve $-1 -4 1.5 0 0 0 -1 I I #
face $-1 $87 $88 $2 $-1 $89 forward single #
loop $-1 $-1 $90 $57 #
cone-surface $-1 -2.5 0 -1 0 0 -1 -0.3999999999999999667 0 0 1 I I 0 1 0.3999999999999999667 forward I I I I #
loop $-1 $91 $92 $35 #
coedge $-1 $66 $62 $60 $80 forward $58 $-1 #
edge $-1 $64 0 $81 8 $79 $93 forward 7 unknown #
vertex $-1 $85 $94 #
straight-curve $-1 -4 -1.5 0 0 0 -1 I I #
straight-curve $-1 4 1.5 -1 0 -1 0 I I #
point $-1 4 -1.5 -1 #
edge $-1 $81 0 $67 3 $66 $95 forward 7 unknown #
point $-1 -4 1.5 -1 #
face $-1 $96 $97 $2 $-1 $98 forward single #
loop $-1 $-1 $99 $75 #
cone-surface $-1 -2.5 0 -1 0 0 -1 -0.3999999999999999667 0 0 1 I I 0 1 0.3999999999999999667 forward I I I I #
coedge $-1 $100 $101 $102 $103 reversed $76 $-1 #
loop $-1 $-1 $104 $35 #
coedge $-1 $105 $105 $100 $106 reversed $78 $-1 #
straight-curve $-1 4 -1.5 -1 -1 0 0 I I #
point $-1 -4 -1.5 -1 #
straight-curve $-1 -4 -1.5 -1 0 1 0 I I #
face $-1 $107 $108 $2 $-1 $109 forward single #
loop $-1 $-1 $110 $87 #
torus-surface $-1 -2.5 0 -1.5 0 0 -1 0.1999999999999999556 0.1999999999999999833 -0.9999956395129631082 -0.002953126319662596234 0 forward_v I I I I #
coedge $-1 $111 $112 $113 $114 reversed $88 $-1 #
coedge $-1 $113 $90 $92 $106 forward $76 $-1 #
coedge $-1 $90 $113 $115 $116 reversed $76 $-1 #
coedge $-1 $112 $111 $90 $103 forward $88 $-1 #
edge $-1 $117 0 $118 0.5 $102 $119 forward 7 unknown #
coedge $-1 $120 $120 $121 $122 reversed $91 $-1 #
coedge $-1 $92 $92 $111 $123 reversed $78 $-1 #
edge $-1 $117 0 $124 3.141592653589793116 $92 $125 forward 7 unknown #
face $-1 $126 $127 $2 $-1 $128 forward single #
loop $-1 $-1 $129 $96 #
torus-surface $-1 -2.5 0 -1.5 0 0 -1 0.1999999999999999556 0.1999999999999999833 0.9999956395129631082 0.002953126319662581056 0 forward_v I I I I #
coedge $-1 $130 $131 $132 $133 forward $97 $-1 #
coedge $-1 $102 $99 $105 $123 forward $88 $-1 #
coedge $-1 $99 $102 $130 $134 reversed $88 $-1 #
coedge $-1 $101 $100 $99 $114 forward $76 $-1 #
edge $-1 $124 0 $135 0.5 $99 $136 forward 7 unknown #
coedge $-1 $132 $129 $101 $116 forward $108 $-1 #
edge $-1 $118 -5.564830280607613893e-14 $135 3.141592653589793116 $101 $137 forward 7 unknown #
vertex $-1 $123 $138 #
vertex $-1 $134 $139 #
straight-curve $-1 -2.100000000000000089 4.89842541528950854e-17 -1 0 0 -1 I I #
coedge $-1 $104 $104 $140 $141 reversed $91 $-1 #
coedge $-1 $142 $143 $104 $122 forward $144 $-1 #
edge $-1 $145 0 $146 3.141592653589793116 $104 $147 forward 7 unknown #
edge $-1 $124 0 $117 3.141592653589793116 $105 $148 forward 7 unknown #
vertex $-1 $123 $149 #
ellipse-curve $-1 -2.5 0 -1 0 0 -1 0.4000000000000003553 0 0 1 I I #
face $-1 $150 $144 $2 $-1 $151 forward single #
loop $-1 $-1 $152 $107 #
plane-surface $-1 0 0 -1.699999999999999956 0 0 -1 -1 0 0 forward_v I I I I #
coedge $-1 $115 $153 $154 $155 forward $108 $-1 #
coedge $-1 $154 $110 $112 $134 forward $97 $-1 #
coedge $-1 $110 $154 $156 $157 reversed $97 $-1 #
coedge $-1 $153 $115 $110 $133 reversed $108 $-1 #
edge $-1 $158 -9.860761315262630752e-30 $135 1.57079632679494452 $110 $159 forward 7 unknown #
edge $-1 $135 0 $118 3.141592653589737605 $112 $160 forward 7 unknown #
vertex $-1 $134 $161 #
straight-curve $-1 -2.899999999999999911 0 -1 0 0 -1 I I #
ellipse-curve $-1 -2.5 0 -1.5 0 0 -1 0.4000000000000003553 8.708638844778793242e-12 0 1 I I #
point $-1 -2.099999999999999645 0 -1 #
point $-1 -2.099999999999999645 8.730898165901224139e-12 -1.5 #
coedge $-1 $162 $163 $120 $141 forward $164 $-1 #
edge $-1 $146 0 $145 3.141592653589793116 $120 $165 forward 7 unknown #
coedge $-1 $166 $121 $163 $167 forward $144 $-1 #
coedge $-1 $121 $166 $162 $168 reversed $144 $-1 #
loop $-1 $-1 $143 $126 #
vertex $-1 $141 $169 #
vertex $-1 $141 $170 #
ellipse-curve $-1 1.5 0 -1 0 0 -1 0.3999999999999999112 0 0 1 I I #
ellipse-curve $-1 -2.5 0 -1 0 0 -1 -0.3999999999999999112 0 0 1 I I #
point $-1 -2.899999999999999911 0 -1 #
face $-1 $171 $164 $2 $-1 $172 forward single #
cone-surface $-1 1.5 0 -1 0 0 -1 -0.3999999999999999667 0 0 1 I I 0 1 0.3999999999999999667 forward I I I I #
coedge $-1 $156 $156 $153 $173 forward $127 $-1 #
coedge $-1 $129 $132 $152 $173 reversed $108 $-1 #
coedge $-1 $131 $130 $129 $155 reversed $97 $-1 #
edge $-1 $174 -4.440892794884822912e-15 $118 1.57079632679494452 $154 $175 forward 7 unknown #
coedge $-1 $152 $152 $131 $157 forward $127 $-1 #
edge $-1 $158 0 $174 3.14159265362439033 $156 $176 forward 7 unknown #
vertex $-1 $157 $177 #
ellipse-curve $-1 -2.700000000000000178 -4.671363729440889289e-12 -1.499999999999999778 -2.018640593435032916e-11 1 6.064290018554399667e-12 9.769962616701377556e-15 1.212858003711078166e-12 -0.2000000000000001776 1 I I #
ellipse-curve $-1 -2.5 0 -1.5 0 0 -1 -0.4000000000000003553 -8.708644916310959161e-12 0 1 I I #
point $-1 -2.900000000000000355 -8.708644916310959161e-12 -1.5 #
coedge $-1 $178 $140 $143 $168 forward $164 $-1 #
coedge $-1 $140 $178 $142 $167 reversed $164 $-1 #
loop $-1 $-1 $163 $150 #
ellipse-curve $-1 1.5 0 -1 0 0 -1 -0.4000000000000001332 0 0 1 I I #
coedge $-1 $143 $142 $179 $180 reversed $144 $-1 #
edge $-1 $146 0 $181 0.5 $163 $182 forward 7 unknown #
edge $-1 $145 0 $183 0.5 $162 $184 forward 7 unknown #
point $-1 1.899999999999999911 0 -1 #
point $-1 1.099999999999999867 0 -1 #
face $-1 $185 $186 $2 $-1 $187 forward single #
cone-surface $-1 1.5 0 -1 0 0 -1 -0.3999999999999999667 0 0 1 I I 0 1 0.3999999999999999667 forward I I I I #
edge $-1 $174 3.449760063115728439e-11 $158 3.141592653589888595 $152 $188 forward 7 unknown #
vertex $-1 $157 $189 #
ellipse-curve $-1 -2.299999999999999822 4.671348182310648546e-12 -1.499999999999999778 2.018645331234070571e-11 -1 6.064227461733641447e-12 -9.769962616701377556e-15 -1.212845492346926441e-12 -0.2000000000000001776 1 I I #
ellipse-curve $-1 -2.500000000000000444 9.992007221626408864e-15 -1.699999999999999956 0 0 -1 -0.1999999999999899636 -3.468497732951437532e-12 0 1 I I #
point $-1 -2.699999999999990408 -3.458505725729811123e-12 -1.699999999999999956 #
coedge $-1 $163 $162 $190 $191 reversed $164 $-1 #
coedge $-1 $192 $193 $166 $180 forward $194 $-1 #
edge $-1 $183 -5.564559230062733672e-14 $181 3.141592653589793116 $166 $195 forward 7 unknown #
vertex $-1 $191 $196 #
straight-curve $-1 1.100000000000000089 0 -1 0 0 -1 I I #
vertex $-1 $191 $197 #
straight-curve $-1 1.899999999999999911 4.89842541528950854e-17 -1 0 0 -1 I I #
face $-1 $198 $194 $2 $-1 $199 forward single #
loop $-1 $-1 $200 $171 #
torus-surface $-1 1.5 0 -1.5 0 0 -1 0.2000000000000001499 0.1999999999999999833 -0.9999956395129631082 -0.002953126319662593199 0 forward_v I I I I #
ellipse-curve $-1 -2.5 -9.554856905680253476e-15 -1.699999999999999956 0 0 -1 0.1999999999999904077 3.468057546869402359e-12 0 1 I I #
point $-1 -2.300000000000010481 -3.441017436267388148e-12 -1.699999999999999956 #
coedge $-1 $201 $200 $178 $191 forward $186 $-1 #
edge $-1 $181 0 $183 3.141592653589737605 $178 $202 forward 7 unknown #
coedge $-1 $203 $179 $200 $204 reversed $194 $-1 #
coedge $-1 $179 $203 $201 $205 forward $194 $-1 #
loop $-1 $-1 $193 $185 #
ellipse-curve $-1 1.5 0 -1.5 0 0 -1 0.3999999999999999112 8.708638844778793242e-12 0 1 I I #
point $-1 1.099999999999999867 -8.708643832108783444e-12 -1.5 #
point $-1 1.900000000000000133 8.730897081699048423e-12 -1.5 #
face $-1 $-1 $206 $2 $-1 $207 forward single #
torus-surface $-1 1.5 0 -1.5 0 0 -1 0.1999999999999999556 0.1999999999999999833 0.9999956395129631082 0.002953126319662581056 0 forward_v I I I I #
coedge $-1 $190 $208 $192 $204 forward $186 $-1 #
coedge $-1 $208 $190 $193 $205 reversed $186 $-1 #
ellipse-curve $-1 1.5 0 -1.5 0 0 -1 -0.4000000000000001332 -8.708643832108783444e-12 0 1 I I #
coedge $-1 $193 $192 $209 $210 reversed $194 $-1 #
edge $-1 $211 0 $181 1.570796326794948961 $200 $212 forward 7 unknown #
edge $-1 $213 -2.220446745634497209e-15 $183 1.57079632679494452 $201 $214 forward 7 unknown #
loop $-1 $-1 $209 $198 #
plane-surface $-1 0 0 -1.699999999999999956 0 0 -1 -1 0 0 forward_v I I I I #
coedge $-1 $200 $201 $215 $216 reversed $186 $-1 #
coedge $-1 $215 $215 $203 $210 forward $206 $-1 #
edge $-1 $213 3.449760334166275437e-11 $211 3.141592653589889483 $209 $217 forward 7 unknown #
vertex $-1 $216 $218 #
ellipse-curve $-1 1.2999999999999996 -4.671058492683405358e-12 -1.500000000000000222 -2.018792669712689043e-11 1 6.06365504895276148e-12 1.021405182655144017e-14 1.21273100979075691e-12 -0.1999999999999997335 1 I I #
vertex $-1 $216 $219 #
ellipse-curve $-1 1.699999999999999956 4.671348629145097264e-12 -1.5 2.018645107816848393e-11 -1 6.064229695905883421e-12 -9.547918011776346248e-15 -1.212845939181369101e-12 -0.1999999999999999556 1 I I #
coedge $-1 $209 $209 $208 $216 forward $206 $-1 #
edge $-1 $211 0 $213 3.14159265362438811 $215 $220 forward 7 unknown #
ellipse-curve $-1 1.5 -9.561795799584160704e-15 -1.699999999999999956 0 0 -1 0.1999999999999904077 3.468064485763312324e-12 0 1 I I #
point $-1 1.300000000000009814 -3.458327482892648448e-12 -1.699999999999999956 #
point $-1 1.699999999999989964 -3.44101797836848368e-12 -1.699999999999999956 #
ellipse-curve $-1 1.499999999999999778 9.83935155574044984e-15 -1.699999999999999956 0 0 -1 -0.1999999999999899636 -3.468166834448388898e-12 0 1 I I #
End-of-ACIS-data 