600 0 1 0           
94 GICL ACIS Healer - Source: /gicl/data5/repository/PTC/V18/fly_small18/fin_lenzu1.prt.sat - 6 0 18 ACIS 6.0.3 Solaris 24 Sat Apr 13 22:09:14 2002 
1 9.999999999999999547e-07 1.000000000000000036e-10 
body $-1 $1 $-1 $-1 #
lump $-1 $-1 $2 $0 #
shell $-1 $-1 $-1 $3 $-1 $1 #
face $-1 $4 $5 $2 $-1 $6 reversed single #
face $-1 $7 $8 $2 $-1 $9 forward single #
loop $-1 $-1 $10 $3 #
spline-surface $-1 forward { exactsur full nurbs 3 3 both open open none none 5 5 
	-3.5 3 -1.75 2 0 2 1.75 2 3.5 3 
	-3.5 3 -2.25 2 -1 2 0.25 2 1.5 3 
	3.5 -2.5 1 1 
	2.916666666666666519 -2.5 1 1 
	2.333333333333333481 -2.5 1 1 
	1.166666666666666519 -2.5 1 1 
	0.5833333333333333703 -2.5 1 1 
	-0.5833333333333333703 -2.5 1 1 
	-1.166666666666666519 -2.5 1 1 
	-2.333333333333333481 -2.5 1 1 
	-2.916666666666666519 -2.5 1 1 
	-3.5 -2.5 1 1 
	3.5 -2.083333333333333481 1 1 
	2.92301366921734429 -2.093625348657333074 1.082412756532005194 1 
	2.341267086521680696 -2.105636096120105716 1.143025713952195543 1 
	1.173013669217344734 -2.124511583383649427 1.223045250526572536 1 
	0.5865068346086729223 -2.131376323184421828 1.242451829680759623 1 
	-0.5865068346086698137 -2.13137632318442094 1.242451829680755182 1 
	-1.173013669217340293 -2.124511583383648539 1.223045250526564098 1 
	-2.341267086521675811 -2.105636096120104828 1.143025713952184885 1 
	-2.923013669217340293 -2.09362534865733263 1.082412756531996312 1 
	-3.5 -2.083333333333333481 1 1 
	3.5 -1.666666666666666741 1 1 
	2.931068284899760901 -1.679531685821666454 1.144257609959313582 1 
	2.351335356124701015 -1.69454512015013159 1.251313094792784408 1 
	1.181068284899761345 -1.718139479229561895 1.393295259480068271 1 
	0.5905341424498810055 -1.726720403980526619 1.428221939333881307 1 
	-0.5905341424498780079 -1.726720403980526619 1.428221939333876866 1 
	-1.18106828489975646 -1.718139479229560784 1.393295259480058945 1 
	-2.35133535612469613 -1.694545120150130479 1.251313094792772418 1 
	-2.931068284899756904 -1.679531685821665787 1.144257609959303812 1 
	-3.5 -1.666666666666666741 1 1 
	3.5 -0.8333333333333332593 1 1 
	2.944004014989254348 -0.8436253486573335181 1.226740938547926651 1 
	2.367505018736568267 -0.8556360961201054938 1.396374999497863367 1 
	1.194004014989254792 -0.8745115833836492047 1.622272652123772918 1 
	0.597002007494628173 -0.88137632318442094 1.678536243799745309 1 
	-0.5970020074946251754 -0.88137632318442094 1.678536243799741756 1 
	-1.194004014989251683 -0.8745115833836485386 1.622272652123765813 1 
	-2.367505018736565159 -0.8556360961201048276 1.396374999497854485 1 
	-2.944004014989252127 -0.8436253486573328519 1.226740938547919546 1 
	-3.5 -0.8333333333333332593 1 1 
	3.5 -0.4166666666666666852 1 1 
	2.948885129396331628 -0.4218126743286671476 1.247379413709231999 1 
	2.373606411745415201 -0.4278180480600520807 1.433149523362353461 1 
	1.198885129396332072 -0.4372557916918246024 1.68100003581398183 1 
	0.599442564698165703 -0.4406881615922107476 1.743080438612487182 1 
	-0.599442564698165703 -0.4406881615922107476 1.743080438612484961 1 
	-1.19888512939633074 -0.4372557916918240473 1.681000035813977833 1 
	-2.373606411745414313 -0.4278180480600515256 1.433149523362349465 1 
	-2.948885129396331628 -0.4218126743286668701 1.247379413709228002 1 
	-3.5 -0.4166666666666666852 1 1 
	3.5 0.4166666666666666852 1 1 
	2.948885129396331628 0.4218126743286650382 1.247379413709229778 1 
	2.373606411745415201 0.4278180480600520807 1.433149523362352129 1 
	1.198885129396332072 0.4372557916918246024 1.681000035813980498 1 
	0.599442564698165703 0.4406881615922107476 1.743080438612487182 1 
	-0.599442564698165703 0.4406881615922107476 1.743080438612484961 1 
	-1.19888512939633074 0.4372557916918240473 1.681000035813975613 1 
	-2.373606411745414313 0.4278180480600515256 1.433149523362345468 1 
	-2.948885129396331628 0.4218126743286642055 1.247379413709224893 1 
	-3.5 0.4166666666666666852 1 1 
	3.5 0.8333333333333332593 1 1 
	2.944004014989254348 0.8436253486573306315 1.226740938547922655 1 
	2.367505018736567823 0.8556360961201031623 1.396374999497859593 1 
	1.194004014989254792 0.8745115833836493158 1.622272652123770476 1 
	0.597002007494628173 0.8813763231844221613 1.678536243799744643 1 
	-0.5970020074946253974 0.8813763231844221613 1.678536243799740202 1 
	-1.194004014989251683 0.8745115833836480945 1.62227265212376115 1 
	-2.367505018736565159 0.855636096120101497 1.396374999497847602 1 
	-2.944004014989251683 0.8436253486573294103 1.226740938547913107 1 
	-3.5 0.8333333333333332593 1 1 
	3.5 1.666666666666666741 1 1 
	2.931068284899760901 1.679531685821663567 1.144257609959308253 1 
	2.351335356124700571 1.694545120150129147 1.251313094792779301 1 
	1.181068284899760457 1.718139479229561228 1.393295259480065384 1 
	0.5905341424498807834 1.726720403980527951 1.428221939333880641 1 
	-0.5905341424498780079 1.726720403980527951 1.428221939333874424 1 
	-1.18106828489975646 1.718139479229559896 1.39329525948005295 1 
	-2.35133535612469613 1.694545120150126927 1.251313094792763314 1 
	-2.93106828489975646 1.679531685821662013 1.144257609959295596 1 
	-3.5 1.666666666666666741 1 1 
	3.5 2.083333333333333481 1 1 
	2.92301366921734429 2.093625348657330854 1.082412756532001197 1 
	2.341267086521680252 2.105636096120103051 1.143025713952191547 1 
	1.173013669217343846 2.124511583383649427 1.223045250526570316 1 
	0.5865068346086727002 2.13137632318442316 1.242451829680758957 1 
	-0.5865068346086697026 2.131376323184422272 1.242451829680753184 1 
	-1.173013669217340516 2.12451158338364765 1.223045250526559213 1 
	-2.341267086521675367 2.105636096120101275 1.14302571395217778 1 
	-2.923013669217339405 2.093625348657329965 1.082412756531989872 1 
	-3.5 2.083333333333333481 1 1 
	3.5 2.5 1 1 
	2.916666666666666519 2.5 1 1 
	2.333333333333333481 2.5 1 1 
	1.166666666666666519 2.5 1 1 
	0.5833333333333333703 2.5 1 1 
	-0.5833333333333333703 2.5 1 1 
	-1.166666666666666519 2.5 1 1 
	-2.333333333333333481 2.5 1 1 
	-2.916666666666666519 2.5 1 1 
	-3.5 2.5 1 1 
	0 
	0 
	0 
	1 0 
	0 
	0 
	1 -1 
	F 1 F 0 F 1 F 0 } I I I I #
face $-1 $11 $12 $2 $-1 $13 forward single #
loop $-1 $-1 $14 $4 #
plane-surface $-1 -3.5 2.5 1 0 1 0 1 0 0 forward_v I I I I #
coedge $-1 $15 $16 $17 $18 reversed $5 $19 #
face $-1 $20 $21 $2 $-1 $22 forward single #
loop $-1 $-1 $23 $7 #
plane-surface $-1 3.5 2.5 1 1 0 0 0 -1 0 forward_v I I I I #
coedge $-1 $24 $17 $25 $26 forward $8 $-1 #
coedge $-1 $27 $10 $28 $29 reversed $5 $30 #
coedge $-1 $10 $27 $31 $32 reversed $5 $33 #
coedge $-1 $14 $34 $10 $18 forward $8 $-1 #
edge $-1 $35 0 $36 7 $10 $37 forward 7 unknown #
pcurve $-1 0 forward { exppc nubs 1 open 2 
	-7 1 0 1 
	-3.5 1.5 
	3.5 1.5 
	0.001000000000000222065 
	spline forward { ref 0 } I I I I 
	} 0 0 #
face $-1 $38 $39 $2 $-1 $40 forward single #
loop $-1 $-1 $41 $11 #
plane-surface $-1 3.5 -2.5 1 0 -1 0 -1 0 0 forward_v I I I I #
coedge $-1 $42 $31 $43 $44 forward $12 $-1 #
coedge $-1 $34 $14 $45 $46 reversed $8 $-1 #
coedge $-1 $31 $42 $14 $26 reversed $12 $-1 #
edge $-1 $36 0 $47 2 $25 $48 forward 7 unknown #
coedge $-1 $16 $15 $49 $50 reversed $5 $51 #
coedge $-1 $52 $53 $15 $29 forward $39 $-1 #
edge $-1 $54 0 $35 5 $15 $55 forward 7 unknown #
pcurve $-1 0 forward { exppc nubs 1 open 2 
	-5 1 0 1 
	3.5 1.5 
	3.5 -3.5 
	0.001000000000000248303 
	spline forward { ref 0 } I I I I 
	} 0 0 #
coedge $-1 $23 $25 $16 $32 forward $12 $-1 #
edge $-1 $36 0 $56 5 $16 $57 forward 7 unknown #
pcurve $-1 0 forward { exppc nubs 1 open 2 
	-5 1 0 1 
	-3.5 -3.5 
	-3.5 1.5 
	0.001000000000000000021 
	spline forward { ref 0 } I I I I 
	} 0 0 #
coedge $-1 $17 $24 $52 $58 reversed $8 $-1 #
vertex $-1 $29 $59 #
vertex $-1 $32 $60 #
straight-curve $-1 -3.5 2.5 1 1 0 0 I I #
face $-1 $-1 $61 $2 $-1 $62 forward single #
loop $-1 $-1 $52 $20 #
plane-surface $-1 -3.5 -2.5 1 -1 0 0 0 1 0 forward_v I I I I #
coedge $-1 $63 $49 $53 $64 forward $21 $-1 #
coedge $-1 $25 $23 $65 $66 reversed $12 $-1 #
coedge $-1 $49 $63 $23 $44 reversed $21 $-1 #
edge $-1 $56 0 $67 2 $23 $68 forward 7 unknown #
coedge $-1 $65 $69 $24 $46 forward $61 $70 #
edge $-1 $71 0 $47 7 $45 $72 forward 7 unknown #
vertex $-1 $66 $73 #
straight-curve $-1 3.5 2.5 1 0 0 -1 I I #
coedge $-1 $41 $43 $27 $50 forward $21 $-1 #
edge $-1 $56 0 $54 7 $27 $74 forward 7 unknown #
pcurve $-1 0 forward { exppc nubs 1 open 2 
	-7 1 0 1 
	3.5 -3.5 
	-3.5 -3.5 
	0.00100000000000044411 
	spline forward { ref 0 } I I I I 
	} 0 0 #
coedge $-1 $75 $28 $34 $58 forward $39 $-1 #
coedge $-1 $28 $75 $41 $64 reversed $39 $-1 #
vertex $-1 $50 $76 #
straight-curve $-1 -3.5 -2.5 1 0 1 0 I I #
vertex $-1 $32 $77 #
straight-curve $-1 3.5 2.5 1 0 -1 0 I I #
edge $-1 $35 0 $71 2 $52 $78 forward 7 unknown #
point $-1 -3.5 2.5 1 #
point $-1 3.5 2.5 1 #
loop $-1 $-1 $79 $38 #
spline-surface $-1 forward { exactsur full nurbs 3 3 both open open none none 5 5 
	-2.5 3 -1.25 2 0 2 1.25 2 2.5 3 
	-1.279786802069771134 3 0.4702131979302288656 2 2.220213197930228866 2 3.970213197930228866 2 5.720213197930228866 3 
	-3.5 -2.5 -1 1 
	-3.5 -2.083333333333333481 -1 1 
	-3.5 -1.666666666666666741 -1 1 
	-3.5 -0.8333333333333332593 -1 1 
	-3.5 -0.4166666666666666852 -1 1 
	-3.5 0.4166666666666666852 -1 1 
	-3.5 0.8333333333333332593 -1 1 
	-3.5 1.666666666666666741 -1 1 
	-3.5 2.083333333333333481 -1 1 
	-3.5 2.5 -1 1 
	-2.916666666666666519 -2.5 -1 1 
	-2.927320405504026279 -2.093548773688771902 -0.9002484073238098405 1 
	-2.939701731376088034 -1.6794359671109651 -0.8272281940590203719 1 
	-2.959137513701531219 -0.8435487736887721244 -0.7310635638675359038 1 
	-2.966191970154912205 -0.4217743868443860067 -0.7079191469408412374 1 
	-2.966191970154912205 0.4217743868443860067 -0.7079191469408412374 1 
	-2.959137513701531219 0.8435487736887715693 -0.7310635638675360148 1 
	-2.939701731376088034 1.679435967110965322 -0.827228194059020483 1 
	-2.927320405504026724 2.093548773688772346 -0.9002484073238101736 1 
	-2.916666666666666519 2.5 -1 1 
	-2.333333333333333481 -2.5 -1 1 
	-2.34665050688003296 -2.107482321386821678 -0.8264162319423373759 1 
	-2.362127164220110043 -1.696852901733527208 -0.6977590604966937837 1 
	-2.38642189212691358 -0.8574823213868216776 -0.5272366016342376893 1 
	-2.395239962693640479 -0.4287411606934107833 -0.4853713142174254092 1 
	-2.395239962693640479 0.4287411606934107833 -0.4853713142174254092 1 
	-2.38642189212691358 0.8574823213868211225 -0.5272366016342382444 1 
	-2.362127164220110043 1.696852901733526764 -0.6977590604966945609 1 
	-2.346650506880033404 2.107482321386821678 -0.8264162319423381531 1 
	-2.333333333333333481 2.5 -1 1 
	-1.166666666666666519 -2.5 -1 1 
	-1.177320405504026724 -2.130241696605201351 -0.728627677517488026 1 
	-1.189701731376088034 -1.725302120756502244 -0.525206696342531143 1 
	-1.209137513701531219 -0.8802416966052022396 -0.254050895233873697 1 
	-1.216191970154912649 -0.4401208483026006202 -0.1863160753001735781 1 
	-1.216191970154912649 0.4401208483026006202 -0.1863160753001735781 1 
	-1.209137513701531219 0.8802416966052005742 -0.2540508952338754733 1 
	-1.189701731376088034 1.725302120756501356 -0.5252066963425333634 1 
	-1.177320405504026279 2.130241696605200463 -0.7286276775174899134 1 
	-1.166666666666666519 2.5 -1 1 
	-0.5833333333333333703 -2.5 -1 1 
	-0.5886602027520136948 -2.139067524125532138 -0.7046712984741109187 1 
	-0.594850865688043795 -1.736334405156914951 -0.4821234657506947574 1 
	-0.6045687568507651655 -0.8890675241255325822 -0.1846921510668082522 1 
	-0.6080959850774558806 -0.4445337620627669573 -0.1098086691063368536 1 
	-0.6080959850774558806 0.4445337620627642927 -0.1098086691063385467 1 
	-0.6045687568507651655 0.8890675241255304728 -0.1846921510668107502 1 
	-0.594850865688043795 1.736334405156913618 -0.4821234657506981436 1 
	-0.5886602027520136948 2.139067524125530362 -0.7046712984741134722 1 
	-0.5833333333333333703 2.5 -1 1 
	0.5833333333333333703 -2.5 -1 1 
	0.5886602027520125846 -2.139067524125532138 -0.7046712984741120289 1 
	0.594850865688043795 -1.736334405156914951 -0.4821234657506969778 1 
	0.6045687568507651655 -0.8890675241255325822 -0.1846921510668104727 1 
	0.6080959850774558806 -0.4445337620627669573 -0.1098086691063401565 1 
	0.6080959850774558806 0.4445337620627642927 -0.1098086691063418496 1 
	0.6045687568507651655 0.8890675241255289185 -0.1846921510668146915 1 
	0.594850865688043795 1.736334405156911398 -0.4821234657507019739 1 
	0.5886602027520124736 2.139067524125529474 -0.7046712984741161367 1 
	0.5833333333333333703 2.5 -1 1 
	1.166666666666666519 -2.5 -1 1 
	1.177320405504025835 -2.130241696605200907 -0.7286276775174901355 1 
	1.189701731376086702 -1.7253021207565018 -0.5252066963425345847 1 
	1.209137513701529443 -0.8802416966052026837 -0.2540508952338790261 1 
	1.216191970154910873 -0.440120848302602008 -0.1863160753001790459 1 
	1.216191970154910873 0.4401208483025977891 -0.1863160753001813774 1 
	1.209137513701528999 0.8802416966051974656 -0.2540508952338838 1 
	1.189701731376085814 1.725302120756497803 -0.5252066963425406909 1 
	1.177320405504024947 2.130241696605198687 -0.7286276775174951315 1 
	1.166666666666666519 2.5 -1 1 
	2.333333333333333481 -2.5 -1 1 
	2.346650506880032516 -2.107482321386821233 -0.8264162319423401515 1 
	2.362127164220109155 -1.696852901733526764 -0.6977590604966978916 1 
	2.386421892126912692 -0.8574823213868221217 -0.5272366016342444617 1 
	2.395239962693638702 -0.428741160693411949 -0.4853713142174327366 1 
	2.395239962693638702 0.4287411606934077302 -0.4853713142174349571 1 
	2.386421892126910915 0.8574823213868173477 -0.5272366016342489026 1 
	2.362127164220108266 1.696852901733523211 -0.6977590604967036647 1 
	2.346650506880031628 2.107482321386819013 -0.8264162319423447034 1 
	2.333333333333333481 2.5 -1 1 
	2.916666666666666519 -2.5 -1 1 
	2.927320405504025835 -2.093548773688771458 -0.90024840732381195 1 
	2.939701731376087146 -1.679435967110964878 -0.8272281940590234806 1 
	2.959137513701529443 -0.8435487736887723464 -0.7310635638675412329 1 
	2.966191970154911317 -0.4217743868443869504 -0.7079191469408472326 1 
	2.966191970154911317 0.4217743868443836197 -0.7079191469408490089 1 
	2.959137513701528555 0.8435487736887685717 -0.7310635638675446746 1 
	2.93970173137608537 1.679435967110961991 -0.8272281940590278104 1 
	2.927320405504025391 2.093548773688770126 -0.9002484073238152806 1 
	2.916666666666666519 2.5 -1 1 
	3.5 -2.5 -1 1 
	3.5 -2.083333333333333481 -1 1 
	3.5 -1.666666666666666741 -1 1 
	3.5 -0.8333333333333332593 -1 1 
	3.5 -0.4166666666666666852 -1 1 
	3.5 0.4166666666666666852 -1 1 
	3.5 0.8333333333333332593 -1 1 
	3.5 1.666666666666666741 -1 1 
	3.5 2.083333333333333481 -1 1 
	3.5 2.5 -1 1 
	0 
	0 
	0 
	1 0 
	0 
	0 
	1 2.220213197930228866 
	F 1 F 0 F 1 F 0 } I I I I #
coedge $-1 $43 $41 $79 $80 reversed $21 $-1 #
edge $-1 $54 0 $81 2 $41 $82 forward 7 unknown #
coedge $-1 $79 $45 $42 $66 forward $61 $83 #
edge $-1 $47 0 $67 5 $65 $84 forward 7 unknown #
vertex $-1 $66 $85 #
straight-curve $-1 3.5 -2.5 1 0 0 -1 I I #
coedge $-1 $45 $79 $75 $86 forward $61 $87 #
pcurve $-1 0 forward { exppc nubs 1 open 2 
	0 1 7 1 
	2.5 -1.279786802069771134 
	2.5 5.720213197930228866 
	0.001000000000000222065 
	spline forward { ref 5 } I I I I 
	} 0 0 #
vertex $-1 $46 $88 #
straight-curve $-1 -3.5 2.5 -1 1 0 0 I I #
point $-1 3.5 2.5 -1 #
straight-curve $-1 3.5 -2.5 1 -1 0 0 I I #
coedge $-1 $53 $52 $69 $86 reversed $39 $-1 #
point $-1 -3.5 -2.5 1 #
point $-1 3.5 -2.5 1 #
straight-curve $-1 -3.5 2.5 1 0 0 -1 I I #
coedge $-1 $69 $65 $63 $80 forward $61 $89 #
edge $-1 $67 0 $81 7 $79 $90 forward 7 unknown #
vertex $-1 $86 $91 #
straight-curve $-1 -3.5 -2.5 1 0 0 -1 I I #
pcurve $-1 0 forward { exppc nubs 1 open 2 
	0 1 5 1 
	2.5 5.720213197930228866 
	-2.5 5.720213197930228866 
	0.001000000000000999222 
	spline forward { ref 5 } I I I I 
	} 0 0 #
straight-curve $-1 3.5 2.5 -1 0 -1 0 I I #
point $-1 3.5 -2.5 -1 #
edge $-1 $81 0 $71 5 $69 $92 forward 7 unknown #
pcurve $-1 0 forward { exppc nubs 1 open 2 
	0 1 5 1 
	-2.5 -1.279786802069771134 
	2.5 -1.279786802069771134 
	0.001000000000000111043 
	spline forward { ref 5 } I I I I 
	} 0 0 #
point $-1 -3.5 2.5 -1 #
pcurve $-1 0 forward { exppc nubs 1 open 2 
	0 1 7 1 
	-2.5 5.720213197930228866 
	-2.5 -1.279786802069771134 
	0.001000000000000000021 
	spline forward { ref 5 } I I I I 
	} 0 0 #
straight-curve $-1 3.5 -2.5 -1 -1 0 0 I I #
point $-1 -3.5 -2.5 -1 #
straight-curve $-1 -3.5 -2.5 -1 0 1 0 I I #
End-of-ACIS-data 