600 0 1 0           
96 GICL ACIS Healer - Source: /gicl/data5/repository/PTC/V18/fly_small18/fin_f_folder.prt.sat - 6 0 18 ACIS 6.0.3 Solaris 24 Sat Apr 13 22:08:11 2002 
1 9.999999999999999547e-07 1.000000000000000036e-10 
body $-1 $1 $-1 $-1 #
lump $-1 $-1 $2 $0 #
shell $-1 $-1 $-1 $3 $-1 $1 #
face $-1 $4 $5 $2 $-1 $6 reversed single #
face $-1 $7 $8 $2 $-1 $9 forward single #
loop $-1 $10 $11 $3 #
plane-surface $-1 0 0 0 0 0 -1 -1 0 0 forward_v I I I I #
face $-1 $12 $13 $2 $-1 $14 forward single #
loop $-1 $-1 $15 $4 #
plane-surface $-1 -5.5 3.5 0 0 1 0 1 0 0 forward_v I I I I #
loop $-1 $-1 $16 $3 #
coedge $-1 $17 $18 $19 $20 reversed $5 $-1 #
face $-1 $21 $22 $2 $-1 $23 reversed single #
loop $-1 $-1 $24 $7 #
plane-surface $-1 -5.5 -4 0 -1 0 0 0 1 0 forward_v I I I I #
coedge $-1 $19 $25 $26 $27 reversed $8 $-1 #
coedge $-1 $28 $29 $30 $31 reversed $10 $-1 #
coedge $-1 $32 $11 $33 $34 reversed $5 $-1 #
coedge $-1 $11 $32 $35 $36 reversed $5 $-1 #
coedge $-1 $37 $15 $11 $20 forward $8 $-1 #
edge $-1 $38 0 $39 11 $11 $40 forward 7 unknown #
face $-1 $41 $42 $2 $-1 $43 reversed single #
loop $-1 $-1 $44 $12 #
plane-surface $-1 6.599999999999999645 0 -5 0 -1 0 0 0 -1 forward_v I I I I #
coedge $-1 $45 $46 $44 $47 reversed $13 $-1 #
coedge $-1 $15 $37 $48 $49 reversed $8 $-1 #
coedge $-1 $46 $33 $15 $27 forward $13 $-1 #
edge $-1 $38 0 $50 5 $26 $51 forward 7 unknown #
coedge $-1 $52 $16 $53 $54 reversed $10 $-1 #
coedge $-1 $16 $52 $55 $56 reversed $10 $-1 #
coedge $-1 $57 $58 $16 $31 forward $59 $-1 #
edge $-1 $60 0 $61 5 $16 $62 forward 7 unknown #
coedge $-1 $18 $17 $63 $64 reversed $5 $-1 #
coedge $-1 $26 $65 $17 $34 forward $13 $-1 #
edge $-1 $66 0 $38 7.5 $17 $67 forward 7 unknown #
coedge $-1 $68 $69 $18 $36 forward $70 $-1 #
edge $-1 $39 0 $71 7.5 $18 $72 forward 7 unknown #
coedge $-1 $25 $19 $69 $73 forward $8 $-1 #
vertex $-1 $34 $74 #
vertex $-1 $36 $75 #
straight-curve $-1 -5.5 3.5 0 1 0 0 I I #
face $-1 $76 $77 $2 $-1 $78 reversed single #
loop $-1 $-1 $79 $21 #
plane-surface $-1 6.599999999999999645 3.5 -5 0 0 1 0 -1 0 forward_v I I I I #
coedge $-1 $80 $81 $24 $47 forward $22 $-1 #
coedge $-1 $65 $24 $82 $83 reversed $13 $-1 #
coedge $-1 $24 $26 $84 $85 forward $13 $-1 #
edge $-1 $86 0 $87 7 $24 $88 forward 7 unknown #
coedge $-1 $89 $84 $25 $49 forward $42 $-1 #
edge $-1 $50 0 $90 11 $25 $91 forward 7 unknown #
vertex $-1 $85 $92 #
straight-curve $-1 -5.5 3.5 0 0 0 -1 I I #
coedge $-1 $29 $28 $93 $94 reversed $10 $-1 #
coedge $-1 $95 $96 $28 $54 forward $97 $-1 #
edge $-1 $98 0 $60 1.395084014335628009 $28 $99 forward 7 unknown #
coedge $-1 $100 $101 $29 $56 forward $102 $-1 #
edge $-1 $61 0 $103 1.395084014335628009 $29 $104 forward 7 unknown #
coedge $-1 $105 $30 $101 $106 forward $59 $-1 #
coedge $-1 $30 $105 $95 $107 reversed $59 $-1 #
loop $-1 $-1 $57 $108 #
vertex $-1 $54 $109 #
vertex $-1 $56 $110 #
straight-curve $-1 2.5 2.75 0 -1 0 0 I I #
coedge $-1 $111 $112 $32 $64 forward $113 $-1 #
edge $-1 $71 0 $66 11 $32 $114 forward 7 unknown #
coedge $-1 $33 $45 $111 $115 reversed $13 $-1 #
vertex $-1 $64 $116 #
straight-curve $-1 -5.5 -4 0 0 1 0 I I #
coedge $-1 $117 $35 $112 $118 forward $70 $-1 #
coedge $-1 $35 $119 $37 $73 reversed $70 $-1 #
loop $-1 $-1 $69 $120 #
vertex $-1 $36 $121 #
straight-curve $-1 5.5 3.5 0 0 -1 0 I I #
edge $-1 $39 0 $90 5 $69 $122 forward 7 unknown #
point $-1 -5.5 3.5 0 #
point $-1 5.5 3.5 0 #
face $-1 $123 $124 $2 $-1 $125 reversed single #
loop $-1 $-1 $126 $41 #
plane-surface $-1 6.599999999999999645 0 -5 0 -1 0 0 0 -1 forward_v I I I I #
coedge $-1 $127 $89 $128 $129 forward $42 $-1 #
coedge $-1 $130 $44 $131 $132 reversed $22 $-1 #
coedge $-1 $44 $130 $133 $134 forward $22 $-1 #
coedge $-1 $133 $135 $45 $83 forward $136 $-1 #
edge $-1 $137 0 $86 4 $45 $138 forward 7 unknown #
coedge $-1 $48 $131 $46 $85 reversed $42 $-1 #
edge $-1 $50 0 $87 3.5 $46 $139 forward 7 unknown #
vertex $-1 $83 $140 #
vertex $-1 $85 $141 #
straight-curve $-1 -5.5 0 -12 0 0 1 I I #
coedge $-1 $79 $48 $119 $142 forward $42 $-1 #
vertex $-1 $142 $143 #
straight-curve $-1 -5.5 3.5 -5 1 0 0 I I #
point $-1 -5.5 3.5 -5 #
coedge $-1 $144 $145 $52 $94 forward $146 $-1 #
edge $-1 $103 0 $98 5 $52 $147 forward 7 unknown #
coedge $-1 $148 $53 $58 $107 forward $97 $-1 #
coedge $-1 $53 $148 $144 $149 reversed $97 $-1 #
loop $-1 $-1 $95 $150 #
vertex $-1 $94 $151 #
ellipse-curve $-1 -0.78125 0 0 0 0 1 3.28125 -2.75 0 1 I I #
coedge $-1 $152 $55 $145 $153 forward $102 $-1 #
coedge $-1 $55 $152 $57 $106 reversed $102 $-1 #
loop $-1 $-1 $100 $154 #
vertex $-1 $56 $155 #
ellipse-curve $-1 0.78125 0 0 0 0 1 -3.28125 2.75 0 1 I I #
coedge $-1 $58 $57 $156 $157 reversed $59 $-1 #
edge $-1 $61 0 $158 0.1999999999999999833 $101 $159 forward 7 unknown #
edge $-1 $60 0 $160 0.1999999999999999833 $95 $161 forward 7 unknown #
face $-1 $154 $59 $2 $-1 $162 reversed single #
point $-1 2.5 2.75 0 #
point $-1 -2.5 2.75 0 #
coedge $-1 $163 $63 $65 $115 forward $113 $-1 #
coedge $-1 $63 $163 $68 $118 reversed $113 $-1 #
loop $-1 $-1 $111 $164 #
straight-curve $-1 5.5 -4 0 -1 0 0 I I #
edge $-1 $66 0 $137 12 $111 $165 forward 7 unknown #
point $-1 -5.5 -4 0 #
coedge $-1 $166 $68 $167 $168 reversed $70 $-1 #
edge $-1 $71 0 $169 12 $68 $170 forward 7 unknown #
coedge $-1 $69 $166 $89 $142 reversed $70 $-1 #
face $-1 $164 $70 $2 $-1 $171 forward single #
point $-1 5.5 -4 0 #
straight-curve $-1 5.5 3.5 0 0 0 -1 I I #
face $-1 $120 $136 $2 $-1 $172 forward single #
loop $-1 $-1 $173 $76 #
plane-surface $-1 5.299999999999999822 3.5 0 1 0 0 0 -1 0 forward_v I I I I #
coedge $-1 $128 $174 $173 $175 forward $77 $-1 #
coedge $-1 $176 $79 $177 $178 reversed $42 $-1 #
coedge $-1 $179 $126 $79 $129 reversed $77 $-1 #
edge $-1 $180 0 $181 0.2000000000000001776 $79 $182 forward 7 unknown #
coedge $-1 $81 $80 $183 $184 reversed $22 $-1 #
coedge $-1 $84 $185 $80 $132 forward $42 $-1 #
edge $-1 $186 8.881784197001252323e-16 $87 0.2000000000000010658 $131 $187 forward 7 unknown #
coedge $-1 $188 $82 $81 $134 reversed $136 $-1 #
edge $-1 $189 8.881784197001252323e-16 $86 0.2000000000000010658 $133 $190 forward 7 unknown #
coedge $-1 $82 $167 $163 $191 forward $136 $-1 #
loop $-1 $-1 $167 $123 #
vertex $-1 $191 $192 #
straight-curve $-1 -5.5 -4 -12 0 1 0 I I #
straight-curve $-1 -5.5 3.5 -5 0 -1 0 I I #
point $-1 -5.5 0 -12 #
point $-1 -5.5 0 -5 #
edge $-1 $90 0 $180 3.5 $119 $193 forward 7 unknown #
point $-1 5.5 3.5 -5 #
coedge $-1 $194 $93 $96 $149 forward $146 $-1 #
coedge $-1 $93 $194 $100 $153 reversed $146 $-1 #
loop $-1 $-1 $144 $195 #
straight-curve $-1 -2.5 -2.75 0 1 0 0 I I #
coedge $-1 $96 $95 $196 $197 reversed $97 $-1 #
edge $-1 $98 0 $198 0.1999999999999999833 $144 $199 forward 7 unknown #
face $-1 $108 $97 $2 $-1 $200 reversed single #
point $-1 2.5 -2.75 0 #
coedge $-1 $101 $100 $201 $202 reversed $102 $-1 #
edge $-1 $103 7.888609052210118054e-30 $203 0.1999999999999999833 $100 $204 forward 7 unknown #
face $-1 $-1 $102 $2 $-1 $205 reversed single #
point $-1 -2.5 -2.75 0 #
coedge $-1 $201 $196 $105 $157 forward $206 $-1 #
edge $-1 $160 0 $158 5 $156 $207 forward 7 unknown #
vertex $-1 $202 $208 #
straight-curve $-1 -2.5 2.75 0 0 0 -1 I I #
vertex $-1 $157 $209 #
straight-curve $-1 2.5 2.75 0 0 0 -1 I I #
plane-surface $-1 2.5 2.75 0 0 1 0 -1 0 0 forward_v I I I I #
coedge $-1 $112 $111 $135 $191 reversed $113 $-1 #
face $-1 $210 $113 $2 $-1 $211 forward single #
straight-curve $-1 -5.5 -4 0 0 0 -1 I I #
coedge $-1 $119 $117 $179 $212 forward $70 $-1 #
coedge $-1 $135 $213 $117 $168 forward $136 $-1 #
edge $-1 $214 0 $169 4 $117 $215 forward 7 unknown #
vertex $-1 $168 $216 #
straight-curve $-1 5.5 -4 0 0 0 -1 I I #
plane-surface $-1 5.5 3.5 0 1 0 0 0 -1 0 forward_v I I I I #
plane-surface $-1 0 0 -12 0 0 -1 -1 0 0 forward_v I I I I #
coedge $-1 $217 $177 $126 $175 reversed $124 $-1 #
coedge $-1 $126 $179 $213 $218 forward $77 $-1 #
edge $-1 $219 0 $181 7 $173 $220 forward 7 unknown #
coedge $-1 $185 $127 $221 $222 reversed $42 $-1 #
coedge $-1 $173 $223 $127 $178 forward $124 $-1 #
edge $-1 $224 0 $181 3.299999999999999822 $177 $225 forward 7 unknown #
coedge $-1 $174 $128 $166 $212 reversed $77 $-1 #
vertex $-1 $142 $226 #
vertex $-1 $178 $227 #
straight-curve $-1 5.5 0 -5 -1 0 0 I I #
coedge $-1 $228 $229 $130 $184 forward $230 $-1 #
edge $-1 $189 0 $186 7 $183 $231 forward 7 unknown #
coedge $-1 $131 $176 $228 $232 forward $42 $-1 #
vertex $-1 $232 $233 #
straight-curve $-1 -5.299999999999998934 0 -5 -1 0 0 I I #
coedge $-1 $234 $133 $229 $235 reversed $136 $-1 #
vertex $-1 $235 $236 #
straight-curve $-1 -5.299999999999998934 0 -12 -1 0 0 I I #
edge $-1 $169 0 $137 11 $163 $237 forward 7 unknown #
point $-1 -5.5 -4 -12 #
straight-curve $-1 5.5 3.5 -5 0 -1 0 I I #
coedge $-1 $145 $144 $238 $239 reversed $146 $-1 #
face $-1 $150 $146 $2 $-1 $240 reversed single #
coedge $-1 $156 $238 $148 $197 forward $206 $-1 #
edge $-1 $198 3.876582457341054709e-16 $160 1.395084014335628009 $196 $241 forward 7 unknown #
vertex $-1 $197 $242 #
straight-curve $-1 2.500000000000001776 -2.75 0 0 0 -1 I I #
cone-surface $-1 -0.78125 0 0 0 0 1 4.28125 0 0 1 I I 0 1 4.28125 forward I I I I #
coedge $-1 $238 $156 $152 $202 forward $206 $-1 #
edge $-1 $158 0 $203 1.395084014335628009 $201 $243 forward 7 unknown #
vertex $-1 $202 $244 #
straight-curve $-1 -2.500000000000000888 -2.749999999999999112 0 4.440892098500626162e-15 -4.440892098500626162e-15 -1 I I #
cone-surface $-1 0.78125 0 0 0 0 1 4.28125 0 0 1 I I 0 1 4.28125 forward I I I I #
loop $-1 $-1 $238 $245 #
straight-curve $-1 2.5 2.75 -0.1999999999999999833 -1 0 0 I I #
point $-1 -2.5 2.75 -0.1999999999999999833 #
point $-1 2.5 2.75 -0.1999999999999999833 #
face $-1 $246 $230 $2 $-1 $247 reversed single #
plane-surface $-1 5.5 -4 0 0 -1 0 -1 0 0 forward_v I I I I #
edge $-1 $214 0 $180 7 $166 $248 forward 7 unknown #
coedge $-1 $167 $249 $174 $218 reversed $136 $-1 #
vertex $-1 $212 $250 #
straight-curve $-1 5.5 0 -12 0 -1 0 I I #
point $-1 5.5 -4 -12 #
coedge $-1 $251 $173 $249 $252 forward $124 $-1 #
edge $-1 $214 0 $219 0.2000000000000001776 $213 $253 forward 7 unknown #
vertex $-1 $218 $254 #
straight-curve $-1 5.299999999999999822 0 -12 0 0 1 I I #
coedge $-1 $255 $256 $176 $222 forward $257 $-1 #
edge $-1 $258 -8.881784197001252323e-16 $224 10.59999999999999787 $221 $259 forward 7 unknown #
coedge $-1 $177 $260 $255 $261 forward $124 $-1 #
vertex $-1 $178 $262 #
straight-curve $-1 5.299999999999999822 3.299999999999999822 -5 0 -1 0 I I #
point $-1 5.5 0 -5 #
point $-1 5.299999999999999822 0 -5 #
coedge $-1 $263 $183 $185 $232 reversed $230 $-1 #
coedge $-1 $183 $264 $188 $235 forward $230 $-1 #
loop $-1 $-1 $263 $210 #
straight-curve $-1 -5.299999999999998934 0 -12 0 0 1 I I #
edge $-1 $258 0 $186 3.299999999999999822 $228 $265 forward 7 unknown #
point $-1 -5.299999999999999822 0 -5 #
coedge $-1 $249 $188 $266 $267 reversed $136 $-1 #
edge $-1 $268 0 $189 3.799999999999999822 $188 $269 forward 7 unknown #
point $-1 -5.299999999999999822 0 -12 #
straight-curve $-1 5.5 -4 -12 -1 0 0 I I #
coedge $-1 $196 $201 $194 $239 forward $206 $-1 #
edge $-1 $203 0 $198 5.000000000000001776 $238 $270 forward 7 unknown #
plane-surface $-1 -2.5 -2.75 0 0 -1 0 1 0 0 forward_v I I I I #
ellipse-curve $-1 -0.78125 1.11022302462515654e-16 -0.1999999999999999833 0 0 1 3.28125 -2.75 0 1 I I #
point $-1 2.500000000000001332 -2.749999999999998668 -0.1999999999999999833 #
ellipse-curve $-1 0.78125 0 -0.1999999999999999833 0 0 1 -3.28125 2.75 0 1 I I #
point $-1 -2.5 -2.75 -0.1999999999999999833 #
face $-1 $271 $272 $2 $-1 $273 forward single #
face $-1 $245 $257 $2 $-1 $274 reversed single #
plane-surface $-1 -5.299999999999999822 -4 0 -1 0 0 0 1 0 forward_v I I I I #
straight-curve $-1 5.5 0 -12 0 0 1 I I #
coedge $-1 $213 $234 $217 $252 reversed $136 $-1 #
point $-1 5.5 0 -12 #
coedge $-1 $260 $217 $275 $276 reversed $124 $-1 #
edge $-1 $219 0 $277 3.799999999999999822 $249 $278 forward 7 unknown #
straight-curve $-1 5.5 0 -12 -1 0 0 I I #
point $-1 5.299999999999999822 0 -12 #
coedge $-1 $279 $221 $223 $261 reversed $257 $-1 #
coedge $-1 $221 $279 $263 $280 forward $257 $-1 #
loop $-1 $-1 $255 $246 #
vertex $-1 $232 $281 #
straight-curve $-1 -5.299999999999998934 3.299999999999999822 -5 1 0 0 I I #
coedge $-1 $223 $251 $282 $283 reversed $124 $-1 #
edge $-1 $284 0 $224 4.799999999999999822 $223 $285 forward 7 unknown #
point $-1 5.299999999999999822 3.299999999999999822 -5 #
coedge $-1 $286 $228 $256 $280 reversed $230 $-1 #
coedge $-1 $229 $286 $287 $288 forward $230 $-1 #
straight-curve $-1 -5.299999999999998934 3.299999999999999822 -5 0 -1 0 I I #
coedge $-1 $287 $275 $234 $267 forward $289 $-1 #
edge $-1 $277 8.881784197001252323e-16 $268 10.59999999999999964 $234 $290 forward 7 unknown #
vertex $-1 $267 $291 #
straight-curve $-1 -5.299999999999999822 -3.799999999999999822 -12 0 1 0 I I #
straight-curve $-1 -2.5 -2.75 -0.1999999999999999833 1 0 0 I I #
face $-1 $195 $289 $2 $-1 $292 reversed single #
loop $-1 $206 $293 $245 #
plane-surface $-1 0 0 -0.1999999999999999833 0 0 -1 -1 0 0 forward_v I I I I #
plane-surface $-1 -5.5 3.299999999999999822 0 0 1 0 1 0 0 forward_v I I I I #
coedge $-1 $266 $294 $251 $276 forward $289 $-1 #
edge $-1 $295 0 $277 11.80000000000000071 $251 $296 forward 7 unknown #
vertex $-1 $252 $297 #
straight-curve $-1 5.299999999999999822 0 -12 0 -1 0 I I #
coedge $-1 $256 $255 $298 $299 reversed $257 $-1 #
edge $-1 $300 0 $258 4.799999999999999822 $263 $301 forward 7 unknown #
point $-1 -5.299999999999999822 3.299999999999999822 -5 #
coedge $-1 $293 $298 $260 $283 forward $272 $-1 #
edge $-1 $284 0 $295 7.099999999999999645 $282 $302 forward 7 unknown #
vertex $-1 $283 $303 #
straight-curve $-1 5.300000000000000711 3.299999999999999822 -0.1999999999999999833 0 0 -1 I I #
coedge $-1 $264 $263 $304 $305 reversed $230 $-1 #
coedge $-1 $294 $266 $264 $288 reversed $289 $-1 #
edge $-1 $306 0 $268 11.80000000000000071 $287 $307 forward 7 unknown #
loop $-1 $-1 $275 $271 #
straight-curve $-1 5.299999999999999822 -3.799999999999999822 -12 -1 0 0 I I #
point $-1 -5.299999999999999822 -3.799999999999999822 -12 #
plane-surface $-1 5.5 -3.799999999999999822 0 0 -1 0 -1 0 0 forward_v I I I I #
coedge $-1 $304 $282 $294 $308 forward $272 $-1 #
coedge $-1 $275 $287 $293 $308 reversed $289 $-1 #
vertex $-1 $283 $309 #
straight-curve $-1 5.299999999999999822 -3.799999999999999822 -0.1999999999999999833 0 0 -1 I I #
point $-1 5.299999999999998934 -3.799999999999999822 -12 #
coedge $-1 $282 $304 $279 $299 forward $272 $-1 #
edge $-1 $300 0 $284 10.59999999999999964 $298 $310 forward 7 unknown #
vertex $-1 $299 $311 #
straight-curve $-1 -5.299999999999999822 3.299999999999999822 -0.1999999999999999833 0 0 -1 I I #
straight-curve $-1 5.299999999999999822 3.299999999999999822 -0.1999999999999999833 0 -1 0 I I #
point $-1 5.299999999999999822 3.299999999999999822 -0.1999999999999999833 #
coedge $-1 $298 $293 $286 $305 forward $272 $-1 #
edge $-1 $306 0 $300 7.099999999999999645 $304 $312 forward 7 unknown #
vertex $-1 $305 $313 #
straight-curve $-1 -5.300000000000000711 -3.799999999999999822 -0.1999999999999999833 0 0 -1 I I #
edge $-1 $295 0 $306 10.59999999999999964 $293 $314 forward 7 unknown #
point $-1 5.299999999999999822 -3.799999999999999822 -0.1999999999999999833 #
straight-curve $-1 -5.299999999999999822 3.299999999999999822 -0.1999999999999999833 1 0 0 I I #
point $-1 -5.299999999999999822 3.299999999999999822 -0.1999999999999999833 #
straight-curve $-1 -5.299999999999999822 -3.799999999999999822 -0.1999999999999999833 0 1 0 I I #
point $-1 -5.299999999999999822 -3.799999999999999822 -0.1999999999999999833 #
straight-curve $-1 5.299999999999999822 -3.799999999999999822 -0.1999999999999999833 -1 0 0 I I #
End-of-ACIS-data 