600 0 1 0           
96 GICL Pro/E ACIS Translator - Source: f:/data5/repository/PTC/V18/fly_small18/fin_laito.prt - 6 0 13 ACIS 6.0.3 NT 24 Thu Apr 04 13:36:17 2002 
1 9.9999999999999995e-007 1e-010 
body $-1 $1 $-1 $-1 #
lump $-1 $-1 $2 $0 #
shell $-1 $-1 $-1 $3 $-1 $1 #
face $-1 $4 $5 $2 $-1 $6 reversed single #
face $-1 $7 $8 $2 $-1 $9 forward single #
loop $-1 $-1 $10 $3 #
plane-surface $-1 0 0 0 0 0 -1 -1 0 0 forward_v I I I I #
face $-1 $11 $12 $2 $-1 $13 forward single #
loop $-1 $-1 $14 $4 #
plane-surface $-1 -4 1.5 0 0 1 0 1 0 0 forward_v I I I I #
coedge $-1 $15 $16 $17 $18 reversed $5 $-1 #
face $-1 $19 $20 $2 $-1 $21 forward single #
loop $-1 $-1 $22 $7 #
plane-surface $-1 4 1.5 0 1 0 0 0 -1 0 forward_v I I I I #
coedge $-1 $23 $17 $24 $25 forward $8 $-1 #
coedge $-1 $26 $10 $27 $28 reversed $5 $-1 #
coedge $-1 $10 $26 $29 $30 reversed $5 $-1 #
coedge $-1 $14 $31 $10 $18 forward $8 $-1 #
edge $-1 $32 0 $33 8 $10 $34 forward 7 unknown #
face $-1 $35 $36 $2 $-1 $37 forward single #
loop $-1 $-1 $38 $11 #
plane-surface $-1 4 -1.5 0 0 -1 0 -1 0 0 forward_v I I I I #
coedge $-1 $39 $29 $40 $41 forward $12 $-1 #
coedge $-1 $31 $14 $42 $43 reversed $8 $-1 #
coedge $-1 $29 $39 $14 $25 reversed $12 $-1 #
edge $-1 $33 0 $44 1 $24 $45 forward 7 unknown #
coedge $-1 $16 $15 $46 $47 reversed $5 $-1 #
coedge $-1 $48 $49 $15 $28 forward $36 $-1 #
edge $-1 $50 0 $32 3 $15 $51 forward 7 unknown #
coedge $-1 $22 $24 $16 $30 forward $12 $-1 #
edge $-1 $33 0 $52 3 $16 $53 forward 7 unknown #
coedge $-1 $17 $23 $48 $54 reversed $8 $-1 #
vertex $-1 $28 $55 #
vertex $-1 $30 $56 #
straight-curve $-1 -4 1.5 0 1 0 0 I I #
face $-1 $57 $58 $2 $-1 $59 forward single #
loop $-1 $-1 $48 $19 #
plane-surface $-1 -4 -1.5 0 -1 0 0 0 1 0 forward_v I I I I #
coedge $-1 $60 $46 $49 $61 forward $20 $-1 #
coedge $-1 $24 $22 $62 $63 reversed $12 $-1 #
coedge $-1 $46 $60 $22 $41 reversed $20 $-1 #
edge $-1 $52 0 $64 1 $22 $65 forward 7 unknown #
coedge $-1 $62 $66 $23 $43 forward $58 $-1 #
edge $-1 $67 0 $44 8 $42 $68 forward 7 unknown #
vertex $-1 $63 $69 #
straight-curve $-1 4 1.5 0 0 0 -1 I I #
coedge $-1 $38 $40 $26 $47 forward $20 $-1 #
edge $-1 $52 0 $50 8 $26 $70 forward 7 unknown #
coedge $-1 $71 $27 $31 $54 forward $36 $-1 #
coedge $-1 $27 $71 $38 $61 reversed $36 $-1 #
vertex $-1 $47 $72 #
straight-curve $-1 -4 -1.5 0 0 1 0 I I #
vertex $-1 $30 $73 #
straight-curve $-1 4 1.5 0 0 -1 0 I I #
edge $-1 $32 0 $67 1 $48 $74 forward 7 unknown #
point $-1 -4 1.5 0 #
point $-1 4 1.5 0 #
face $-1 $75 $76 $2 $-1 $77 forward single #
loop $-1 $78 $79 $35 #
plane-surface $-1 0 0 -1 0 0 -1 -1 0 0 forward_v I I I I #
coedge $-1 $40 $38 $79 $80 reversed $20 $-1 #
edge $-1 $50 0 $81 1 $38 $82 forward 7 unknown #
coedge $-1 $79 $42 $39 $63 forward $58 $-1 #
edge $-1 $44 0 $64 3 $62 $83 forward 7 unknown #
vertex $-1 $63 $84 #
straight-curve $-1 4 -1.5 0 0 0 -1 I I #
coedge $-1 $42 $79 $71 $85 forward $58 $-1 #
vertex $-1 $43 $86 #
straight-curve $-1 -4 1.5 -1 1 0 0 I I #
point $-1 4 1.5 -1 #
straight-curve $-1 4 -1.5 0 -1 0 0 I I #
coedge $-1 $49 $48 $66 $85 reversed $36 $-1 #
point $-1 -4 -1.5 0 #
point $-1 4 -1.5 0 #
straight-curve $-1 -4 1.5 0 0 0 -1 I I #
face $-1 $87 $88 $2 $-1 $89 forward single #
loop $-1 $-1 $90 $57 #
cone-surface $-1 -2.5 0 -1 0 0 -1 -0.39999999999999997 0 0 1 I I 0 1 0.39999999999999997 forward I I I I #
loop $-1 $91 $92 $35 #
coedge $-1 $66 $62 $60 $80 forward $58 $-1 #
edge $-1 $64 0 $81 8 $79 $93 forward 7 unknown #
vertex $-1 $85 $94 #
straight-curve $-1 -4 -1.5 0 0 0 -1 I I #
straight-curve $-1 4 1.5 -1 0 -1 0 I I #
point $-1 4 -1.5 -1 #
edge $-1 $81 0 $67 3 $66 $95 forward 7 unknown #
point $-1 -4 1.5 -1 #
face $-1 $96 $97 $2 $-1 $98 forward single #
loop $-1 $-1 $99 $75 #
cone-surface $-1 -2.5 0 -1 0 0 -1 -0.39999999999999997 0 0 1 I I 0 1 0.39999999999999997 forward I I I I #
coedge $-1 $100 $101 $102 $103 reversed $76 $-1 #
loop $-1 $-1 $104 $35 #
coedge $-1 $105 $105 $100 $106 reversed $78 $-1 #
straight-curve $-1 4 -1.5 -1 -1 0 0 I I #
point $-1 -4 -1.5 -1 #
straight-curve $-1 -4 -1.5 -1 0 1 0 I I #
face $-1 $107 $108 $2 $-1 $109 forward single #
loop $-1 $-1 $110 $87 #
torus-surface $-1 -2.5 0 -1.5 0 0 -1 0.19999999999999996 0.19999999999999998 -0.99999563951296311 -0.0029531263196625962 0 forward_v I I I I #
coedge $-1 $111 $112 $113 $114 reversed $88 $-1 #
coedge $-1 $113 $90 $92 $106 forward $76 $-1 #
coedge $-1 $90 $113 $115 $116 reversed $76 $-1 #
coedge $-1 $112 $111 $90 $103 forward $88 $-1 #
edge $-1 $117 0 $118 0.5 $102 $119 forward 7 unknown #
coedge $-1 $120 $120 $121 $122 reversed $91 $-1 #
coedge $-1 $92 $92 $111 $123 reversed $78 $-1 #
edge $-1 $117 0 $124 3.1415926535897931 $92 $125 forward 7 unknown #
face $-1 $126 $127 $2 $-1 $128 forward single #
loop $-1 $-1 $129 $96 #
torus-surface $-1 -2.5 0 -1.5 0 0 -1 0.19999999999999996 0.19999999999999998 0.99999563951296311 0.0029531263196625811 0 forward_v I I I I #
coedge $-1 $130 $131 $132 $133 forward $97 $-1 #
coedge $-1 $102 $99 $105 $123 forward $88 $-1 #
coedge $-1 $99 $102 $130 $134 reversed $88 $-1 #
coedge $-1 $101 $100 $99 $114 forward $76 $-1 #
edge $-1 $124 0 $135 0.5 $99 $136 forward 7 unknown #
coedge $-1 $132 $129 $101 $116 forward $108 $-1 #
edge $-1 $118 -5.5648302806076139e-014 $135 3.1415926535897931 $101 $137 forward 7 unknown #
vertex $-1 $123 $138 #
vertex $-1 $134 $139 #
straight-curve $-1 -2.1000000000000001 4.8984254152895085e-017 -1 0 0 -1 I I #
coedge $-1 $104 $104 $140 $141 reversed $91 $-1 #
coedge $-1 $142 $143 $104 $122 forward $144 $-1 #
edge $-1 $145 0 $146 3.1415926535897931 $104 $147 forward 7 unknown #
edge $-1 $124 0 $117 3.1415926535897931 $105 $148 forward 7 unknown #
vertex $-1 $123 $149 #
ellipse-curve $-1 -2.5 0 -1 0 0 -1 0.40000000000000036 0 0 1 I I #
face $-1 $150 $144 $2 $-1 $151 forward single #
loop $-1 $-1 $152 $107 #
plane-surface $-1 0 0 -1.7 0 0 -1 -1 0 0 forward_v I I I I #
coedge $-1 $115 $153 $154 $155 forward $108 $-1 #
coedge $-1 $154 $110 $112 $134 forward $97 $-1 #
coedge $-1 $110 $154 $156 $157 reversed $97 $-1 #
coedge $-1 $153 $115 $110 $133 reversed $108 $-1 #
edge $-1 $158 -9.8607613152626308e-030 $135 1.5707963267949443 $110 $159 forward 7 unknown #
edge $-1 $135 0 $118 3.1415926535897376 $112 $160 forward 7 unknown #
vertex $-1 $134 $161 #
straight-curve $-1 -2.8999999999999999 0 -1 0 0 -1 I I #
ellipse-curve $-1 -2.5 0 -1.5 0 0 -1 0.40000000000000036 8.7086388447787932e-012 0 1 I I #
point $-1 -2.0999999999999996 0 -1 #
point $-1 -2.0999999999999996 8.7308981659012241e-012 -1.5 #
coedge $-1 $162 $163 $120 $141 forward $164 $-1 #
edge $-1 $146 0 $145 3.1415926535897931 $120 $165 forward 7 unknown #
coedge $-1 $166 $121 $163 $167 forward $144 $-1 #
coedge $-1 $121 $166 $162 $168 reversed $144 $-1 #
loop $-1 $-1 $143 $126 #
vertex $-1 $141 $169 #
vertex $-1 $141 $170 #
ellipse-curve $-1 1.5 0 -1 0 0 -1 0.39999999999999991 0 0 1 I I #
ellipse-curve $-1 -2.5 0 -1 0 0 -1 -0.39999999999999991 0 0 1 I I #
point $-1 -2.8999999999999999 0 -1 #
face $-1 $171 $164 $2 $-1 $172 forward single #
cone-surface $-1 1.5 0 -1 0 0 -1 -0.39999999999999997 0 0 1 I I 0 1 0.39999999999999997 forward I I I I #
coedge $-1 $156 $156 $153 $173 forward $127 $-1 #
coedge $-1 $129 $132 $152 $173 reversed $108 $-1 #
coedge $-1 $131 $130 $129 $155 reversed $97 $-1 #
edge $-1 $174 -4.4408927948848229e-015 $118 1.5707963267949443 $154 $175 forward 7 unknown #
coedge $-1 $152 $152 $131 $157 forward $127 $-1 #
edge $-1 $158 0 $174 3.1415926536243903 $156 $176 forward 7 unknown #
vertex $-1 $157 $177 #
ellipse-curve $-1 -2.7000000000000002 -4.6713637294408893e-012 -1.4999999999999998 -2.0186405934350329e-011 1 6.0642900185543997e-012 9.7699626167013776e-015 1.2128580037110782e-012 -0.20000000000000018 1 I I #
ellipse-curve $-1 -2.5 0 -1.5 0 0 -1 -0.40000000000000036 -8.7086449163109592e-012 0 1 I I #
point $-1 -2.9000000000000004 -8.7086449163109592e-012 -1.5 #
coedge $-1 $178 $140 $143 $168 forward $164 $-1 #
coedge $-1 $140 $178 $142 $167 reversed $164 $-1 #
loop $-1 $-1 $163 $150 #
ellipse-curve $-1 1.5 0 -1 0 0 -1 -0.40000000000000013 0 0 1 I I #
coedge $-1 $143 $142 $179 $180 reversed $144 $-1 #
edge $-1 $146 0 $181 0.5 $163 $182 forward 7 unknown #
edge $-1 $145 0 $183 0.5 $162 $184 forward 7 unknown #
point $-1 1.8999999999999999 0 -1 #
point $-1 1.0999999999999999 0 -1 #
face $-1 $185 $186 $2 $-1 $187 forward single #
cone-surface $-1 1.5 0 -1 0 0 -1 -0.39999999999999997 0 0 1 I I 0 1 0.39999999999999997 forward I I I I #
edge $-1 $174 3.4497600631157284e-011 $158 3.1415926535898886 $152 $188 forward 7 unknown #
vertex $-1 $157 $189 #
ellipse-curve $-1 -2.2999999999999998 4.6713481823106485e-012 -1.4999999999999998 2.0186453312340706e-011 -1 6.0642274617336414e-012 -9.7699626167013776e-015 -1.2128454923469264e-012 -0.20000000000000018 1 I I #
ellipse-curve $-1 -2.5000000000000004 9.9920072216264089e-015 -1.7 0 0 -1 -0.19999999999998996 -3.4684977329514375e-012 0 1 I I #
point $-1 -2.6999999999999904 -3.4585057257298111e-012 -1.7 #
coedge $-1 $163 $162 $190 $191 reversed $164 $-1 #
coedge $-1 $192 $193 $166 $180 forward $194 $-1 #
edge $-1 $183 -5.5645592300627337e-014 $181 3.1415926535897931 $166 $195 forward 7 unknown #
vertex $-1 $191 $196 #
straight-curve $-1 1.1000000000000001 0 -1 0 0 -1 I I #
vertex $-1 $191 $197 #
straight-curve $-1 1.8999999999999999 4.8984254152895085e-017 -1 0 0 -1 I I #
face $-1 $198 $194 $2 $-1 $199 forward single #
loop $-1 $-1 $200 $171 #
torus-surface $-1 1.5 0 -1.5 0 0 -1 0.20000000000000015 0.19999999999999998 -0.99999563951296311 -0.0029531263196625932 0 forward_v I I I I #
ellipse-curve $-1 -2.5 -9.5548569056802535e-015 -1.7 0 0 -1 0.19999999999999041 3.4680575468694024e-012 0 1 I I #
point $-1 -2.3000000000000105 -3.4410174362673881e-012 -1.7 #
coedge $-1 $201 $200 $178 $191 forward $186 $-1 #
edge $-1 $181 0 $183 3.1415926535897376 $178 $202 forward 7 unknown #
coedge $-1 $203 $179 $200 $204 reversed $194 $-1 #
coedge $-1 $179 $203 $201 $205 forward $194 $-1 #
loop $-1 $-1 $193 $185 #
ellipse-curve $-1 1.5 0 -1.5 0 0 -1 0.39999999999999991 8.7086388447787932e-012 0 1 I I #
point $-1 1.0999999999999999 -8.7086438321087834e-012 -1.5 #
point $-1 1.9000000000000001 8.7308970816990484e-012 -1.5 #
face $-1 $-1 $206 $2 $-1 $207 forward single #
torus-surface $-1 1.5 0 -1.5 0 0 -1 0.19999999999999996 0.19999999999999998 0.99999563951296311 0.0029531263196625811 0 forward_v I I I I #
coedge $-1 $190 $208 $192 $204 forward $186 $-1 #
coedge $-1 $208 $190 $193 $205 reversed $186 $-1 #
ellipse-curve $-1 1.5 0 -1.5 0 0 -1 -0.40000000000000013 -8.7086438321087834e-012 0 1 I I #
coedge $-1 $193 $192 $209 $210 reversed $194 $-1 #
edge $-1 $211 0 $181 1.5707963267949487 $200 $212 forward 7 unknown #
edge $-1 $213 -2.2204467456344972e-015 $183 1.5707963267949443 $201 $214 forward 7 unknown #
loop $-1 $-1 $209 $198 #
plane-surface $-1 0 0 -1.7 0 0 -1 -1 0 0 forward_v I I I I #
coedge $-1 $200 $201 $215 $216 reversed $186 $-1 #
coedge $-1 $215 $215 $203 $210 forward $206 $-1 #
edge $-1 $213 3.4497603341662754e-011 $211 3.1415926535898895 $209 $217 forward 7 unknown #
vertex $-1 $216 $218 #
ellipse-curve $-1 1.2999999999999996 -4.6710584926834054e-012 -1.5000000000000002 -2.018792669712689e-011 1 6.0636550489527615e-012 1.021405182655144e-014 1.2127310097907569e-012 -0.19999999999999973 1 I I #
vertex $-1 $216 $219 #
ellipse-curve $-1 1.7 4.6713486291450973e-012 -1.5 2.0186451078168484e-011 -1 6.0642296959058834e-012 -9.5479180117763462e-015 -1.2128459391813691e-012 -0.19999999999999996 1 I I #
coedge $-1 $209 $209 $208 $216 forward $206 $-1 #
edge $-1 $211 0 $213 3.1415926536243881 $215 $220 forward 7 unknown #
ellipse-curve $-1 1.5 -9.5617957995841607e-015 -1.7 0 0 -1 0.19999999999999041 3.4680644857633123e-012 0 1 I I #
point $-1 1.3000000000000098 -3.4583274828926484e-012 -1.7 #
point $-1 1.69999999999999 -3.4410179783684837e-012 -1.7 #
ellipse-curve $-1 1.4999999999999998 9.8393515557404498e-015 -1.7 0 0 -1 -0.19999999999998996 -3.4681668344483889e-012 0 1 I I #
End-of-ACIS-data 