600 0 1 0           
89 GICL ACIS Healer - Source: /gicl/data5/repository/PTC/V18/fly_small18/fin_cover.sat - 6 0 18 ACIS 6.0.3 Solaris 24 Sat Apr 13 22:05:39 2002 
1 9.999999999999999547e-07 1.000000000000000036e-10 
body $-1 $1 $-1 $-1 #
lump $-1 $-1 $2 $0 #
shell $-1 $-1 $-1 $3 $-1 $1 #
face $-1 $4 $5 $2 $-1 $6 reversed single #
face $-1 $7 $8 $2 $-1 $9 forward single #
loop $-1 $-1 $10 $3 #
plane-surface $-1 8.399999999999998579 3 -71.5 0 1 0 0 0 1 forward_v I I I I #
face $-1 $11 $12 $2 $-1 $13 forward single #
loop $-1 $-1 $14 $4 #
plane-surface $-1 -5 0 -70 0 0 -1 1 0 0 forward_v I I I I #
coedge $-1 $15 $16 $17 $18 forward $5 $-1 #
face $-1 $19 $20 $2 $-1 $21 reversed single #
loop $-1 $-1 $22 $7 #
plane-surface $-1 5 0 -70 1 0 0 0 0 1 forward_v I I I I #
coedge $-1 $17 $23 $24 $25 reversed $8 $-1 #
coedge $-1 $26 $10 $27 $28 forward $5 $-1 #
coedge $-1 $10 $26 $29 $30 reversed $5 $-1 #
coedge $-1 $31 $14 $10 $18 reversed $8 $-1 #
edge $-1 $32 0 $33 10 $10 $34 forward 7 unknown #
face $-1 $35 $36 $2 $-1 $37 reversed single #
loop $-1 $-1 $38 $11 #
plane-surface $-1 8.399999999999998579 3 -67.5 0 0 -1 0 1 0 forward_v I I I I #
coedge $-1 $27 $39 $40 $41 reversed $12 $-1 #
coedge $-1 $14 $31 $42 $43 forward $8 $-1 #
coedge $-1 $44 $27 $14 $25 forward $12 $-1 #
edge $-1 $33 0 $45 0.5 $14 $46 forward 7 unknown #
coedge $-1 $16 $15 $38 $47 forward $5 $-1 #
coedge $-1 $24 $22 $15 $28 reversed $12 $-1 #
edge $-1 $33 0 $48 2.5 $15 $49 forward 7 unknown #
coedge $-1 $50 $51 $16 $30 forward $52 $-1 #
edge $-1 $32 0 $53 2.5 $16 $54 forward 7 unknown #
coedge $-1 $23 $17 $51 $55 forward $8 $-1 #
vertex $-1 $30 $56 #
vertex $-1 $28 $57 #
straight-curve $-1 -5 3 -70 1 0 0 I I #
face $-1 $58 $59 $2 $-1 $60 forward single #
loop $-1 $-1 $61 $19 #
plane-surface $-1 8.399999999999998579 4 -67.5 0 1 0 0 0 1 forward_v I I I I #
coedge $-1 $40 $62 $26 $47 reversed $20 $-1 #
coedge $-1 $22 $63 $64 $65 reversed $12 $-1 #
coedge $-1 $66 $38 $22 $41 forward $20 $-1 #
edge $-1 $48 0 $67 1 $40 $68 forward 7 unknown #
coedge $-1 $69 $70 $23 $43 reversed $71 $-1 #
edge $-1 $72 0 $45 10 $23 $73 forward 7 unknown #
coedge $-1 $74 $24 $70 $75 forward $12 $-1 #
vertex $-1 $43 $76 #
straight-curve $-1 5 3 -70 0 1 0 I I #
edge $-1 $48 -1.776356839400250465e-15 $53 9.999999999999998224 $26 $77 forward 7 unknown #
vertex $-1 $47 $78 #
straight-curve $-1 5 3 -70 0 0 1 I I #
coedge $-1 $79 $29 $62 $80 forward $52 $-1 #
coedge $-1 $29 $81 $31 $55 reversed $52 $-1 #
loop $-1 $-1 $82 $83 #
vertex $-1 $30 $84 #
straight-curve $-1 -5 3 -70 0 0 1 I I #
edge $-1 $32 0 $72 0.5 $51 $85 forward 7 unknown #
point $-1 -5 3 -70 #
point $-1 5 3 -70 #
face $-1 $86 $87 $2 $-1 $88 reversed single #
loop $-1 $-1 $89 $35 #
plane-surface $-1 5 0 -70 1 0 0 0 0 1 forward_v I I I I #
coedge $-1 $90 $91 $92 $93 forward $36 $-1 #
coedge $-1 $38 $66 $50 $80 reversed $20 $-1 #
coedge $-1 $39 $94 $95 $96 forward $12 $-1 #
coedge $-1 $91 $97 $39 $65 forward $36 $-1 #
edge $-1 $67 0 $98 18.5 $64 $99 forward 7 unknown #
coedge $-1 $62 $40 $97 $100 forward $20 $-1 #
vertex $-1 $100 $101 #
straight-curve $-1 5 3 -67.5 0 1 0 I I #
coedge $-1 $102 $42 $81 $103 forward $71 $-1 #
coedge $-1 $42 $102 $44 $75 reversed $71 $-1 #
loop $-1 $-1 $69 $104 #
vertex $-1 $55 $105 #
straight-curve $-1 -5 3.5 -70 1 0 0 I I #
coedge $-1 $106 $44 $107 $108 forward $12 $-1 #
edge $-1 $45 0 $109 0.7071067811865476838 $44 $110 forward 7 unknown #
point $-1 5 3.5 -70 #
straight-curve $-1 4.999999999999998224 3 -67.5 -1 0 0 I I #
point $-1 5 3 -67.5 #
coedge $-1 $82 $50 $111 $112 forward $52 $-1 #
edge $-1 $53 0 $113 1 $62 $114 forward 7 unknown #
coedge $-1 $51 $115 $69 $103 reversed $52 $-1 #
coedge $-1 $116 $79 $117 $118 reversed $52 $-1 #
face $-1 $119 $52 $2 $-1 $120 forward single #
point $-1 -5 3 -67.5 #
straight-curve $-1 -5 3 -70 0 1 0 I I #
face $-1 $121 $122 $2 $-1 $123 reversed single #
loop $-1 $-1 $124 $58 #
plane-surface $-1 5 -0.5 -48.5 0 0 -1 0 1 0 forward_v I I I I #
coedge $-1 $125 $92 $126 $127 reversed $59 $-1 #
coedge $-1 $128 $61 $129 $130 reversed $36 $-1 #
coedge $-1 $61 $64 $131 $132 reversed $36 $-1 #
coedge $-1 $89 $133 $61 $93 reversed $59 $-1 #
edge $-1 $134 0 $135 1.5 $61 $136 forward 7 unknown #
coedge $-1 $63 $106 $137 $138 forward $12 $-1 #
coedge $-1 $139 $140 $63 $96 reversed $141 $-1 #
edge $-1 $142 0 $98 1 $63 $143 forward 7 unknown #
coedge $-1 $64 $111 $66 $100 reversed $36 $-1 #
vertex $-1 $132 $144 #
straight-curve $-1 5 4 -67.5 0 0 1 I I #
edge $-1 $67 -1.776356839400250465e-15 $113 9.999999999999998224 $66 $145 forward 7 unknown #
point $-1 5 4 -67.5 #
coedge $-1 $70 $69 $146 $147 forward $71 $-1 #
edge $-1 $72 0 $148 0.7071067811865476838 $81 $149 forward 7 unknown #
face $-1 $83 $71 $2 $-1 $150 reversed single #
point $-1 -5 3.5 -70 #
coedge $-1 $94 $74 $151 $152 forward $12 $-1 #
coedge $-1 $146 $153 $74 $108 reversed $154 $-1 #
edge $-1 $109 0 $155 1 $74 $156 forward 7 unknown #
vertex $-1 $108 $157 #
straight-curve $-1 5 3.5 -70 0 0.7071067811865474617 0.7071067811865474617 I I #
coedge $-1 $97 $158 $79 $112 reversed $36 $-1 #
edge $-1 $113 0 $159 18.75 $111 $160 forward 7 unknown #
vertex $-1 $80 $161 #
straight-curve $-1 -5 3 -67.5 0 1 0 I I #
coedge $-1 $81 $162 $163 $164 reversed $52 $-1 #
coedge $-1 $162 $82 $165 $166 reversed $52 $-1 #
coedge $-1 $167 $168 $82 $118 forward $169 $-1 #
edge $-1 $170 0 $159 1 $82 $171 forward 7 unknown #
face $-1 $172 $169 $2 $-1 $173 forward single #
plane-surface $-1 -5 0 -26 -1 0 0 0 0 -1 forward_v I I I I #
face $-1 $174 $175 $2 $-1 $176 reversed single #
loop $-1 $-1 $177 $86 #
plane-surface $-1 5 -0.5 -47 0 -1 0 0 0 -1 forward_v I I I I #
coedge $-1 $178 $179 $180 $181 reversed $87 $-1 #
coedge $-1 $133 $89 $182 $183 forward $59 $-1 #
coedge $-1 $179 $184 $89 $127 forward $87 $-1 #
edge $-1 $185 0 $134 1 $89 $186 forward 7 unknown #
coedge $-1 $187 $90 $188 $189 forward $36 $-1 #
coedge $-1 $190 $191 $90 $130 forward $192 $-1 #
edge $-1 $193 0 $135 0.5 $90 $194 forward 7 unknown #
coedge $-1 $195 $196 $91 $132 forward $192 $-1 #
edge $-1 $134 0 $98 0.5 $91 $197 forward 7 unknown #
coedge $-1 $92 $125 $198 $199 forward $59 $-1 #
vertex $-1 $132 $200 #
vertex $-1 $130 $201 #
straight-curve $-1 5 4 -48.5 0 0 1 I I #
coedge $-1 $202 $203 $94 $138 reversed $204 $-1 #
edge $-1 $205 0 $142 19.5 $94 $206 forward 7 unknown #
coedge $-1 $207 $95 $203 $208 reversed $141 $-1 #
coedge $-1 $95 $209 $195 $210 forward $141 $-1 #
loop $-1 $-1 $95 $211 #
vertex $-1 $96 $212 #
straight-curve $-1 5 5 -49 0 -1 0 I I #
point $-1 5 4 -49 #
straight-curve $-1 4.999999999999998224 4 -67.5 -1 0 0 I I #
coedge $-1 $163 $107 $102 $147 reversed $154 $-1 #
edge $-1 $148 0 $109 10 $146 $213 forward 7 unknown #
vertex $-1 $103 $214 #
straight-curve $-1 -5 3.5 -70 0 0.7071067811865474617 0.7071067811865474617 I I #
plane-surface $-1 -5 3.5 -70 0 -0.7071067811865475727 0.7071067811865475727 1 0 0 forward_v I I I I #
coedge $-1 $215 $216 $106 $152 reversed $217 $-1 #
edge $-1 $155 0 $205 1 $106 $218 forward 7 unknown #
coedge $-1 $107 $163 $215 $219 reversed $154 $-1 #
loop $-1 $-1 $153 $220 #
vertex $-1 $152 $221 #
straight-curve $-1 5 4 -69.5 0 0 1 I I #
point $-1 5 4 -69.5 #
coedge $-1 $111 $222 $223 $224 forward $36 $-1 #
vertex $-1 $112 $225 #
straight-curve $-1 -5 4 -67.5 0 0 1 I I #
point $-1 -5 4 -67.5 #
coedge $-1 $115 $116 $226 $227 reversed $52 $-1 #
coedge $-1 $153 $146 $115 $164 forward $154 $-1 #
edge $-1 $148 0 $228 1 $115 $229 forward 7 unknown #
coedge $-1 $230 $202 $116 $166 forward $204 $-1 #
edge $-1 $231 0 $170 19.75 $116 $232 forward 7 unknown #
coedge $-1 $233 $117 $234 $235 reversed $169 $-1 #
coedge $-1 $117 $236 $230 $237 reversed $169 $-1 #
loop $-1 $-1 $233 $119 #
vertex $-1 $166 $238 #
straight-curve $-1 -5 5 -48.75 0 -1 0 I I #
face $-1 $239 $240 $2 $-1 $241 forward single #
plane-surface $-1 -5 -1 -48.75 0 0 -1 0 1 0 forward_v I I I I #
face $-1 $242 $204 $2 $-1 $243 forward single #
loop $-1 $-1 $198 $121 #
plane-surface $-1 5 5 -47 0 0 1 0 -1 0 forward_v I I I I #
coedge $-1 $244 $245 $246 $247 reversed $122 $-1 #
coedge $-1 $184 $124 $248 $249 reversed $87 $-1 #
coedge $-1 $124 $126 $196 $250 forward $87 $-1 #
coedge $-1 $245 $244 $124 $181 forward $122 $-1 #
edge $-1 $251 0 $252 0.5 $180 $253 forward 7 unknown #
coedge $-1 $254 $255 $125 $183 reversed $204 $-1 #
edge $-1 $185 0 $256 1.5 $125 $257 forward 7 unknown #
coedge $-1 $126 $178 $254 $258 reversed $87 $-1 #
vertex $-1 $183 $259 #
straight-curve $-1 5 5 -48.5 0 -1 0 I I #
coedge $-1 $260 $128 $261 $262 forward $36 $-1 #
coedge $-1 $263 $264 $128 $189 reversed $265 $-1 #
edge $-1 $193 0 $266 14.5 $128 $267 forward 7 unknown #
coedge $-1 $268 $129 $269 $270 reversed $192 $-1 #
coedge $-1 $129 $271 $272 $273 reversed $192 $-1 #
loop $-1 $-1 $195 $274 #
vertex $-1 $189 $275 #
straight-curve $-1 5 4 -46.5 0 0 -1 I I #
coedge $-1 $271 $131 $140 $210 reversed $192 $-1 #
coedge $-1 $131 $268 $179 $250 reversed $192 $-1 #
straight-curve $-1 5 4 -48.5 0 0 -1 I I #
coedge $-1 $276 $269 $133 $199 reversed $175 $-1 #
edge $-1 $256 0 $135 1 $133 $277 forward 7 unknown #
point $-1 5 4 -48.5 #
point $-1 5 4 -47 #
coedge $-1 $165 $137 $216 $278 forward $204 $-1 #
coedge $-1 $137 $279 $139 $208 forward $204 $-1 #
loop $-1 $-1 $202 $174 #
vertex $-1 $138 $280 #
straight-curve $-1 5 5 -68.5 0 0 1 I I #
coedge $-1 $209 $139 $281 $282 reversed $141 $-1 #
edge $-1 $283 0 $142 0.5 $203 $284 forward 7 unknown #
coedge $-1 $140 $207 $285 $286 forward $141 $-1 #
edge $-1 $287 0 $98 5 $195 $288 forward 7 unknown #
face $-1 $289 $141 $2 $-1 $290 reversed single #
point $-1 5 5 -49 #
straight-curve $-1 -5 4 -69.5 1 0 0 I I #
point $-1 -5 4 -69.5 #
coedge $-1 $226 $151 $153 $219 forward $217 $-1 #
coedge $-1 $151 $226 $202 $278 reversed $217 $-1 #
loop $-1 $-1 $216 $242 #
straight-curve $-1 5 4 -68.5 0 1 0 I I #
edge $-1 $155 0 $228 9.999999999999998224 $153 $291 forward 7 unknown #
face $-1 $104 $154 $2 $-1 $292 forward single #
point $-1 4.999999999999998224 4 -68.5 #
coedge $-1 $158 $293 $294 $295 reversed $36 $-1 #
coedge $-1 $296 $234 $158 $224 reversed $297 $-1 #
edge $-1 $298 0 $159 0.5 $158 $299 forward 7 unknown #
point $-1 -5 4 -48.75 #
coedge $-1 $216 $215 $162 $227 forward $217 $-1 #
edge $-1 $228 0 $231 1 $162 $300 forward 7 unknown #
vertex $-1 $164 $301 #
straight-curve $-1 -5 4 -69.5 0 0 1 I I #
coedge $-1 $302 $165 $168 $237 forward $204 $-1 #
vertex $-1 $227 $303 #
straight-curve $-1 -5 5 -68.5 0 0 1 I I #
coedge $-1 $236 $167 $304 $305 reversed $169 $-1 #
coedge $-1 $223 $306 $167 $235 forward $297 $-1 #
edge $-1 $307 0 $159 5 $234 $308 forward 7 unknown #
coedge $-1 $168 $233 $309 $310 reversed $169 $-1 #
edge $-1 $170 0 $311 0.5 $168 $312 forward 7 unknown #
point $-1 -5 5 -48.75 #
face $-1 $313 $314 $2 $-1 $315 forward single #
loop $-1 $-1 $316 $172 #
plane-surface $-1 -5 -1 -46.25 0 -1 0 0 0 -1 forward_v I I I I #
face $-1 $220 $217 $2 $-1 $317 forward single #
plane-surface $-1 -5 5 -48.75 0 1 0 0 0 1 forward_v I I I I #
coedge $-1 $180 $177 $318 $319 reversed $122 $-1 #
coedge $-1 $177 $180 $268 $320 forward $122 $-1 #
coedge $-1 $269 $321 $177 $247 forward $175 $-1 #
edge $-1 $322 0 $323 0.5 $246 $324 forward 7 unknown #
coedge $-1 $318 $325 $178 $249 forward $326 $-1 #
edge $-1 $327 0 $251 5.5 $248 $328 forward 7 unknown #
edge $-1 $134 0 $252 4.5 $196 $329 forward 7 unknown #
vertex $-1 $319 $330 #
vertex $-1 $250 $331 #
straight-curve $-1 5.5 -0.5 -48.5 -1 0 0 I I #
coedge $-1 $279 $182 $184 $258 forward $204 $-1 #
coedge $-1 $182 $332 $276 $333 forward $204 $-1 #
vertex $-1 $199 $334 #
straight-curve $-1 5 5 -48.5 0 0 1 I I #
edge $-1 $185 0 $327 0.5 $254 $335 forward 7 unknown #
point $-1 5 5 -48.5 #
coedge $-1 $293 $187 $336 $337 reversed $36 $-1 #
coedge $-1 $338 $339 $187 $262 reversed $340 $-1 #
edge $-1 $266 -1.776356839400250465e-15 $341 9.999999999999998224 $187 $342 forward 7 unknown #
coedge $-1 $343 $188 $344 $345 reversed $265 $-1 #
coedge $-1 $188 $346 $338 $347 reversed $265 $-1 #
loop $-1 $-1 $346 $348 #
vertex $-1 $262 $349 #
straight-curve $-1 5 4 -46.5 0 0 1 I I #
coedge $-1 $196 $190 $245 $320 reversed $192 $-1 #
coedge $-1 $198 $246 $190 $270 forward $175 $-1 #
edge $-1 $323 0 $135 4.5 $190 $350 forward 7 unknown #
coedge $-1 $191 $195 $351 $352 reversed $192 $-1 #
coedge $-1 $353 $344 $191 $273 forward $354 $-1 #
edge $-1 $193 0 $355 5 $191 $356 forward 7 unknown #
face $-1 $357 $192 $2 $-1 $358 forward single #
point $-1 5 4 -46.5 #
coedge $-1 $321 $198 $255 $333 reversed $175 $-1 #
straight-curve $-1 5 5 -47 0 -1 0 I I #
edge $-1 $205 0 $231 10 $216 $359 forward 7 unknown #
coedge $-1 $203 $254 $325 $360 forward $204 $-1 #
point $-1 5 5 -68.5 #
coedge $-1 $325 $361 $207 $282 forward $326 $-1 #
edge $-1 $362 0 $283 6 $281 $363 forward 7 unknown #
vertex $-1 $208 $364 #
straight-curve $-1 5.5 5 -49 -1 0 0 I I #
coedge $-1 $365 $351 $209 $286 reversed $366 $-1 #
edge $-1 $362 0 $287 0.5 $209 $367 forward 7 unknown #
vertex $-1 $352 $368 #
straight-curve $-1 5 -1 -49 0 1 0 I I #
face $-1 $274 $326 $2 $-1 $369 reversed single #
plane-surface $-1 5 5 -49 0 0 1 0 -1 0 forward_v I I I I #
straight-curve $-1 4.999999999999998224 4 -68.5 -1 0 0 I I #
plane-surface $-1 8.399999999999998579 4 -71.5 0 1 0 0 0 1 forward_v I I I I #
coedge $-1 $222 $260 $370 $371 forward $36 $-1 #
coedge $-1 $372 $373 $222 $295 forward $374 $-1 #
edge $-1 $298 0 $375 1.5 $222 $376 forward 7 unknown #
coedge $-1 $377 $223 $378 $379 forward $297 $-1 #
loop $-1 $-1 $306 $380 #
vertex $-1 $224 $381 #
straight-curve $-1 -5 4 -48.25 0 0 -1 I I #
straight-curve $-1 -5 4 -68.5 0 1 0 I I #
point $-1 -5 4 -68.5 #
coedge $-1 $382 $230 $383 $384 reversed $204 $-1 #
point $-1 -5 5 -68.5 #
coedge $-1 $385 $386 $233 $305 forward $240 $-1 #
edge $-1 $387 0 $307 0.5 $304 $388 forward 7 unknown #
coedge $-1 $234 $389 $385 $390 forward $297 $-1 #
vertex $-1 $235 $391 #
straight-curve $-1 -5 -1 -48.75 0 1 0 I I #
coedge $-1 $392 $383 $236 $310 forward $393 $-1 #
edge $-1 $311 0 $387 6 $309 $394 forward 7 unknown #
vertex $-1 $310 $395 #
straight-curve $-1 -5 5 -48.75 -1 0 0 I I #
face $-1 $396 $397 $2 $-1 $398 forward single #
loop $-1 $-1 $399 $239 #
plane-surface $-1 -5 5 -46.25 0 0 1 0 -1 0 forward_v I I I I #
coedge $-1 $386 $385 $400 $401 reversed $240 $-1 #
plane-surface $-1 8.399999999999998579 3 -68.5 0 0 -1 0 1 0 forward_v I I I I #
coedge $-1 $402 $248 $244 $319 forward $326 $-1 #
edge $-1 $251 0 $322 1.5 $318 $403 forward 7 unknown #
edge $-1 $252 0 $323 1.5 $268 $404 forward 7 unknown #
coedge $-1 $246 $276 $402 $405 reversed $175 $-1 #
vertex $-1 $405 $406 #
vertex $-1 $320 $407 #
straight-curve $-1 5.5 -0.5 -47 -1 0 0 I I #
coedge $-1 $248 $281 $279 $360 reversed $326 $-1 #
loop $-1 $-1 $325 $289 #
vertex $-1 $360 $408 #
straight-curve $-1 5.5 5 -48.5 0 -1 0 I I #
straight-curve $-1 5 4 -48.5 0 -1 0 I I #
point $-1 5.5 -0.5 -48.5 #
point $-1 5 -0.5 -48.5 #
coedge $-1 $255 $409 $410 $411 forward $204 $-1 #
edge $-1 $412 0 $256 0.5 $255 $413 forward 7 unknown #
point $-1 5 5 -47 #
straight-curve $-1 5 5 -48.5 1 0 0 I I #
coedge $-1 $414 $415 $260 $337 forward $397 $-1 #
edge $-1 $416 0 $341 14.25 $260 $417 forward 7 unknown #
coedge $-1 $418 $261 $264 $347 forward $340 $-1 #
coedge $-1 $261 $418 $414 $419 reversed $340 $-1 #
loop $-1 $-1 $418 $396 #
vertex $-1 $337 $420 #
straight-curve $-1 4.999999999999998224 4 -32 -1 0 0 I I #
coedge $-1 $421 $263 $422 $423 forward $265 $-1 #
coedge $-1 $272 $424 $263 $345 forward $354 $-1 #
edge $-1 $425 0 $193 1 $263 $426 forward 7 unknown #
coedge $-1 $264 $427 $428 $429 reversed $265 $-1 #
edge $-1 $266 0 $430 1 $338 $431 forward 7 unknown #
face $-1 $432 $265 $2 $-1 $433 forward single #
point $-1 5 4 -32 #
straight-curve $-1 5 -0.5 -47 0 1 0 I I #
coedge $-1 $285 $434 $271 $352 forward $366 $-1 #
edge $-1 $355 0 $287 2.5 $271 $435 forward 7 unknown #
coedge $-1 $436 $272 $434 $437 reversed $354 $-1 #
loop $-1 $-1 $353 $432 #
vertex $-1 $273 $438 #
straight-curve $-1 5 4 -46.5 0 -1 0 I I #
face $-1 $439 $440 $2 $-1 $441 forward single #
plane-surface $-1 5 0 -26 -1 0 0 0 0 1 forward_v I I I I #
straight-curve $-1 5 5 -68.5 -1 0 0 I I #
edge $-1 $327 0 $283 0.5 $279 $442 forward 7 unknown #
coedge $-1 $281 $443 $365 $444 forward $326 $-1 #
vertex $-1 $282 $445 #
straight-curve $-1 5.5 -1 -49 0 1 0 I I #
point $-1 5.5 5 -49 #
coedge $-1 $434 $285 $361 $444 reversed $366 $-1 #
loop $-1 $-1 $285 $446 #
straight-curve $-1 5.5 -1 -49 -1 0 0 I I #
point $-1 5 -1 -49 #
plane-surface $-1 5.5 0 -26 -1 0 0 0 0 1 forward_v I I I I #
coedge $-1 $389 $447 $293 $371 reversed $297 $-1 #
edge $-1 $416 0 $375 0.5 $293 $448 forward 7 unknown #
coedge $-1 $449 $294 $450 $451 reversed $374 $-1 #
coedge $-1 $294 $449 $452 $453 forward $374 $-1 #
loop $-1 $-1 $372 $454 #
vertex $-1 $295 $455 #
straight-curve $-1 -5 4 -48.25 0 0 1 I I #
coedge $-1 $447 $296 $456 $457 forward $297 $-1 #
coedge $-1 $452 $458 $296 $379 reversed $459 $-1 #
edge $-1 $298 0 $460 4.5 $296 $461 forward 7 unknown #
face $-1 $-1 $297 $2 $-1 $462 forward single #
point $-1 -5 4 -48.25 #
coedge $-1 $463 $302 $464 $465 reversed $204 $-1 #
coedge $-1 $309 $466 $302 $384 forward $393 $-1 #
edge $-1 $467 0 $311 0.5 $383 $468 forward 7 unknown #
coedge $-1 $316 $304 $306 $390 reversed $240 $-1 #
coedge $-1 $304 $316 $392 $469 reversed $240 $-1 #
vertex $-1 $469 $470 #
straight-curve $-1 -5.5 -1 -48.75 1 0 0 I I #
coedge $-1 $306 $370 $471 $472 forward $297 $-1 #
edge $-1 $473 0 $307 2.5 $306 $474 forward 7 unknown #
point $-1 -5 -1 -48.75 #
coedge $-1 $475 $309 $386 $469 forward $393 $-1 #
loop $-1 $-1 $476 $477 #
straight-curve $-1 -5.5 5 -48.75 0 -1 0 I I #
point $-1 -5.5 5 -48.75 #
face $-1 $478 $340 $2 $-1 $479 reversed single #
loop $-1 $-1 $414 $313 #
plane-surface $-1 -5 0 -26 -1 0 0 0 0 -1 forward_v I I I I #
coedge $-1 $480 $471 $415 $481 reversed $314 $-1 #
coedge $-1 $471 $482 $316 $401 forward $314 $-1 #
edge $-1 $483 0 $473 0.5 $400 $484 forward 7 unknown #
coedge $-1 $410 $318 $321 $405 forward $326 $-1 #
straight-curve $-1 5.5 -0.5 -48.5 0 0 1 I I #
straight-curve $-1 5 -0.5 -48.5 0 0 1 I I #
edge $-1 $322 0 $412 5.5 $402 $485 forward 7 unknown #
point $-1 5.5 -0.5 -47 #
point $-1 5 -0.5 -47 #
point $-1 5.5 5 -48.5 #
coedge $-1 $332 $422 $424 $486 forward $204 $-1 #
coedge $-1 $443 $402 $332 $411 reversed $326 $-1 #
edge $-1 $487 0 $412 0.5 $332 $488 forward 7 unknown #
vertex $-1 $333 $489 #
straight-curve $-1 5.5 5 -47 -1 0 0 I I #
coedge $-1 $490 $336 $339 $419 forward $397 $-1 #
coedge $-1 $336 $491 $399 $481 forward $397 $-1 #
vertex $-1 $371 $492 #
straight-curve $-1 -5 4 -46.25 0 0 1 I I #
coedge $-1 $339 $338 $493 $494 forward $340 $-1 #
edge $-1 $341 0 $495 1 $339 $496 forward 7 unknown #
point $-1 -5 4 -32 #
coedge $-1 $497 $343 $498 $499 forward $265 $-1 #
coedge $-1 $409 $500 $343 $423 reversed $204 $-1 #
edge $-1 $425 0 $501 15.5 $343 $502 forward 7 unknown #
coedge $-1 $344 $436 $409 $486 reversed $354 $-1 #
vertex $-1 $423 $503 #
straight-curve $-1 5 5 -46.5 0 -1 0 I I #
coedge $-1 $346 $497 $504 $505 reversed $265 $-1 #
coedge $-1 $506 $493 $346 $429 forward $507 $-1 #
edge $-1 $430 0 $508 6.75 $428 $509 forward 7 unknown #
vertex $-1 $347 $510 #
straight-curve $-1 5 4 -32 0 -1 0 I I #
face $-1 $446 $354 $2 $-1 $511 reversed single #
plane-surface $-1 5 0 -70 1 0 0 0 0 1 forward_v I I I I #
coedge $-1 $351 $365 $353 $437 forward $366 $-1 #
straight-curve $-1 5 -1 -46.5 0 0 -1 I I #
coedge $-1 $424 $353 $443 $512 reversed $354 $-1 #
edge $-1 $513 0 $355 0.5 $434 $514 forward 7 unknown #
point $-1 5 -1 -46.5 #
face $-1 $515 $516 $2 $-1 $517 forward single #
loop $-1 $-1 $518 $357 #
plane-surface $-1 8.399999999999998579 4 -31 0 0 1 0 -1 0 forward_v I I I I #
straight-curve $-1 5.5 5 -48.5 0 0 -1 I I #
coedge $-1 $361 $410 $436 $512 forward $326 $-1 #
edge $-1 $513 0 $362 2.5 $361 $519 forward 7 unknown #
point $-1 5.5 -1 -49 #
face $-1 $211 $366 $2 $-1 $520 reversed single #
coedge $-1 $370 $377 $521 $522 forward $297 $-1 #
straight-curve $-1 -5 4 -46.25 0 0 -1 I I #
coedge $-1 $373 $372 $463 $523 reversed $374 $-1 #
coedge $-1 $521 $524 $372 $451 forward $525 $-1 #
edge $-1 $526 0 $375 1 $372 $527 forward 7 unknown #
coedge $-1 $464 $378 $373 $453 reversed $459 $-1 #
edge $-1 $528 0 $298 1 $373 $529 forward 7 unknown #
face $-1 $380 $374 $2 $-1 $530 forward single #
point $-1 -5 4 -46.75 #
coedge $-1 $531 $532 $377 $457 reversed $533 $-1 #
edge $-1 $460 0 $534 1.5 $377 $535 forward 7 unknown #
coedge $-1 $378 $536 $531 $537 forward $459 $-1 #
loop $-1 $-1 $452 $538 #
vertex $-1 $457 $539 #
straight-curve $-1 -5 4 -48.25 0 -1 0 I I #
plane-surface $-1 -5 0 -26 1 0 0 0 0 -1 forward_v I I I I #
coedge $-1 $540 $382 $449 $523 forward $204 $-1 #
coedge $-1 $536 $452 $382 $465 forward $459 $-1 #
edge $-1 $528 0 $467 0.5 $382 $541 forward 7 unknown #
coedge $-1 $383 $542 $536 $543 forward $393 $-1 #
vertex $-1 $384 $544 #
straight-curve $-1 -5.5 5 -48.25 0 0 -1 I I #
edge $-1 $387 0 $483 2.5 $392 $545 forward 7 unknown #
point $-1 -5.5 -1 -48.75 #
coedge $-1 $399 $400 $389 $472 reversed $314 $-1 #
edge $-1 $416 0 $473 5 $389 $546 forward 7 unknown #
vertex $-1 $472 $547 #
straight-curve $-1 -5 -1 -46.25 0 0 -1 I I #
coedge $-1 $476 $392 $482 $548 forward $393 $-1 #
coedge $-1 $549 $475 $550 $551 reversed $393 $-1 #
face $-1 $552 $393 $2 $-1 $553 reversed single #
face $-1 $554 $507 $2 $-1 $555 reversed single #
plane-surface $-1 8.399999999999998579 4 -32 0 0 1 0 -1 0 forward_v I I I I #
coedge $-1 $482 $399 $556 $557 forward $314 $-1 #
edge $-1 $558 0 $416 1 $415 $559 forward 7 unknown #
coedge $-1 $400 $480 $475 $548 reversed $314 $-1 #
vertex $-1 $548 $560 #
straight-curve $-1 -5.5 -1 -46.25 1 0 0 I I #
straight-curve $-1 5.5 -0.5 -47 0 1 0 I I #
edge $-1 $425 0 $487 0.5 $409 $561 forward 7 unknown #
vertex $-1 $411 $562 #
straight-curve $-1 5.5 5 -46.5 0 0 -1 I I #
point $-1 5.5 5 -47 #
coedge $-1 $563 $414 $564 $565 reversed $397 $-1 #
coedge $-1 $415 $566 $567 $568 reversed $397 $-1 #
point $-1 -5 4 -46.25 #
coedge $-1 $428 $564 $418 $494 reversed $507 $-1 #
edge $-1 $430 -1.776356839400250465e-15 $495 9.999999999999998224 $418 $569 forward 7 unknown #
vertex $-1 $419 $570 #
straight-curve $-1 -5 4 -32 0 -1 0 I I #
coedge $-1 $427 $421 $571 $572 forward $265 $-1 #
coedge $-1 $518 $573 $421 $499 reversed $440 $-1 #
edge $-1 $501 0 $574 1 $421 $575 forward 7 unknown #
coedge $-1 $422 $567 $518 $576 reversed $204 $-1 #
vertex $-1 $499 $577 #
straight-curve $-1 5 5 -46.5 0 0 1 I I #
point $-1 5 5 -46.5 #
coedge $-1 $578 $579 $427 $505 forward $580 $-1 #
edge $-1 $508 0 $581 1 $427 $582 forward 7 unknown #
coedge $-1 $583 $428 $584 $585 reversed $507 $-1 #
loop $-1 $-1 $586 $478 #
vertex $-1 $585 $587 #
straight-curve $-1 5 3 -32 0 0 1 I I #
point $-1 5 3 -32 #
plane-surface $-1 5 -1 -46.5 0 0 -1 0 1 0 forward_v I I I I #
edge $-1 $487 0 $513 6 $443 $588 forward 7 unknown #
vertex $-1 $444 $589 #
straight-curve $-1 5.5 -1 -46.5 -1 0 0 I I #
face $-1 $590 $591 $2 $-1 $592 forward single #
loop $-1 $-1 $593 $439 #
plane-surface $-1 5 4 -24.75 0 0 1 0 -1 0 forward_v I I I I #
coedge $-1 $594 $498 $500 $576 forward $440 $-1 #
straight-curve $-1 5.5 -1 -46.5 0 0 -1 I I #
plane-surface $-1 5 -1 -49 0 1 0 0 0 1 forward_v I I I I #
coedge $-1 $595 $450 $447 $522 reversed $525 $-1 #
edge $-1 $534 0 $375 4.5 $447 $596 forward 7 unknown #
edge $-1 $528 0 $526 1.5 $449 $597 forward 7 unknown #
coedge $-1 $450 $598 $540 $599 reversed $525 $-1 #
loop $-1 $-1 $595 $552 #
vertex $-1 $523 $600 #
straight-curve $-1 -5 5 -46.75 0 -1 0 I I #
vertex $-1 $453 $601 #
straight-curve $-1 -5 5 -48.25 0 -1 0 I I #
plane-surface $-1 -5 0 -26 -1 0 0 0 0 -1 forward_v I I I I #
coedge $-1 $602 $456 $458 $537 reversed $533 $-1 #
coedge $-1 $456 $602 $595 $603 forward $533 $-1 #
loop $-1 $-1 $531 $604 #
vertex $-1 $522 $605 #
straight-curve $-1 -5 -0.5 -48.25 0 0 1 I I #
coedge $-1 $458 $464 $466 $543 reversed $459 $-1 #
edge $-1 $606 0 $460 0.5 $458 $607 forward 7 unknown #
face $-1 $454 $459 $2 $-1 $608 forward single #
point $-1 -5 -0.5 -48.25 #
coedge $-1 $550 $463 $524 $599 forward $204 $-1 #
straight-curve $-1 -5 5 -48.25 -1 0 0 I I #
coedge $-1 $466 $549 $602 $609 forward $393 $-1 #
edge $-1 $606 0 $467 5.5 $466 $610 forward 7 unknown #
point $-1 -5.5 5 -48.25 #
straight-curve $-1 -5.5 -1 -48.75 0 0 1 I I #
straight-curve $-1 -5 4 -46.25 0 -1 0 I I #
point $-1 -5 -1 -46.25 #
edge $-1 $483 0 $611 6 $475 $612 forward 7 unknown #
coedge $-1 $542 $476 $598 $613 forward $393 $-1 #
coedge $-1 $556 $540 $476 $551 forward $204 $-1 #
edge $-1 $614 0 $611 0.5 $476 $615 forward 7 unknown #
face $-1 $604 $525 $2 $-1 $616 forward single #
plane-surface $-1 -5.5 0 -26 1 0 0 0 0 -1 forward_v I I I I #
face $-1 $617 $618 $2 $-1 $619 forward single #
plane-surface $-1 8.399999999999998579 3 -32 0 1 0 0 0 1 forward_v I I I I #
coedge $-1 $567 $550 $480 $557 reversed $204 $-1 #
edge $-1 $558 0 $611 0.5 $480 $620 forward 7 unknown #
vertex $-1 $481 $621 #
straight-curve $-1 -5 5 -46.25 0 -1 0 I I #
point $-1 -5.5 -1 -46.25 #
straight-curve $-1 5 5 -46.5 1 0 0 I I #
point $-1 5.5 5 -46.5 #
coedge $-1 $622 $490 $623 $624 forward $397 $-1 #
coedge $-1 $493 $625 $490 $565 forward $507 $-1 #
edge $-1 $626 0 $495 6 $564 $627 forward 7 unknown #
coedge $-1 $491 $622 $594 $628 reversed $397 $-1 #
coedge $-1 $500 $556 $491 $568 forward $204 $-1 #
edge $-1 $558 0 $629 15.25 $491 $630 forward 7 unknown #
straight-curve $-1 4.999999999999998224 3 -32 -1 0 0 I I #
point $-1 -5 3 -32 #
coedge $-1 $631 $632 $497 $572 reversed $633 $-1 #
edge $-1 $574 0 $581 5.75 $497 $634 forward 7 unknown #
coedge $-1 $498 $594 $631 $635 reversed $440 $-1 #
vertex $-1 $572 $636 #
straight-curve $-1 5 5 -31 0 -1 0 I I #
edge $-1 $501 -1.776356839400250465e-15 $629 9.999999999999998224 $518 $637 forward 7 unknown #
point $-1 5 5 -31 #
coedge $-1 $638 $504 $632 $639 forward $580 $-1 #
coedge $-1 $504 $640 $641 $642 forward $580 $-1 #
loop $-1 $-1 $578 $643 #
vertex $-1 $505 $644 #
straight-curve $-1 5 3 -25.25 0 1 0 I I #
coedge $-1 $645 $506 $646 $647 forward $507 $-1 #
coedge $-1 $641 $648 $506 $585 forward $649 $-1 #
edge $-1 $650 0 $508 0.5 $506 $651 forward 7 unknown #
coedge $-1 $625 $652 $653 $654 reversed $507 $-1 #
point $-1 5 3 -25.25 #
straight-curve $-1 5.5 5 -46.5 0 -1 0 I I #
point $-1 5.5 -1 -46.5 #
face $-1 $655 $656 $2 $-1 $657 forward single #
loop $-1 $-1 $658 $515 #
plane-surface $-1 5 -0.5 -24.75 0 1 0 0 0 1 forward_v I I I I #
coedge $-1 $659 $660 $648 $661 forward $516 $-1 #
coedge $-1 $573 $518 $566 $628 forward $440 $-1 #
coedge $-1 $598 $521 $532 $603 reversed $525 $-1 #
straight-curve $-1 -5 -0.5 -46.75 0 1 0 I I #
straight-curve $-1 -5 5 -48.25 0 0 1 I I #
coedge $-1 $524 $595 $549 $613 reversed $525 $-1 #
edge $-1 $526 0 $614 0.5 $540 $662 forward 7 unknown #
point $-1 -5 5 -46.75 #
point $-1 -5 5 -48.25 #
coedge $-1 $532 $531 $542 $609 reversed $533 $-1 #
edge $-1 $663 0 $534 0.5 $532 $664 forward 7 unknown #
face $-1 $538 $533 $2 $-1 $665 forward single #
point $-1 -5 -0.5 -46.75 #
vertex $-1 $543 $666 #
straight-curve $-1 -5.5 -0.5 -48.25 1 0 0 I I #
plane-surface $-1 -5 5 -48.25 0 0 1 0 -1 0 forward_v I I I I #
edge $-1 $663 0 $606 1.5 $542 $667 forward 7 unknown #
straight-curve $-1 -5.5 -0.5 -48.25 0 1 0 I I #
vertex $-1 $548 $668 #
straight-curve $-1 -5.5 -1 -46.25 0 1 0 I I #
edge $-1 $614 0 $663 5.5 $549 $669 forward 7 unknown #
vertex $-1 $613 $670 #
straight-curve $-1 -5.5 5 -46.75 0 0 1 I I #
plane-surface $-1 -5 -0.5 -46.75 0 0 -1 0 1 0 forward_v I I I I #
face $-1 $671 $633 $2 $-1 $672 forward single #
loop $-1 $-1 $673 $554 #
plane-surface $-1 -7 0 0 -1 0 0 0 0 -1 forward_v I I I I #
straight-curve $-1 -5 5 -46.25 -1 0 0 I I #
point $-1 -5 5 -46.25 #
coedge $-1 $566 $563 $674 $675 forward $397 $-1 #
coedge $-1 $676 $677 $563 $624 reversed $678 $-1 #
edge $-1 $626 0 $679 1 $623 $680 forward 7 unknown #
coedge $-1 $564 $586 $676 $681 forward $507 $-1 #
vertex $-1 $565 $682 #
straight-curve $-1 -5 3 -26 0 0 -1 I I #
edge $-1 $629 0 $683 1 $566 $684 forward 7 unknown #
vertex $-1 $568 $685 #
straight-curve $-1 -5 5 -46.25 0 0 1 I I #
coedge $-1 $674 $571 $573 $635 forward $633 $-1 #
coedge $-1 $571 $686 $578 $639 reversed $633 $-1 #
loop $-1 $-1 $687 $617 #
straight-curve $-1 5 4 -31 0 0 1 I I #
edge $-1 $574 0 $683 10 $573 $688 forward 7 unknown #
point $-1 5 4 -31 #
straight-curve $-1 4.999999999999998224 5 -31 -1 0 0 I I #
coedge $-1 $640 $578 $689 $690 reversed $580 $-1 #
edge $-1 $581 0 $691 0.5 $578 $692 forward 7 unknown #
coedge $-1 $579 $638 $693 $694 reversed $580 $-1 #
coedge $-1 $695 $584 $579 $642 reversed $649 $-1 #
edge $-1 $696 0 $508 4 $641 $697 forward 7 unknown #
face $-1 $348 $580 $2 $-1 $698 forward single #
point $-1 5 4 -25.25 #
coedge $-1 $699 $583 $700 $701 reversed $507 $-1 #
coedge $-1 $702 $703 $583 $647 reversed $656 $-1 #
edge $-1 $650 0 $704 1.5 $583 $705 forward 7 unknown #
coedge $-1 $584 $706 $593 $661 reversed $649 $-1 #
loop $-1 $-1 $700 $707 #
vertex $-1 $647 $708 #
straight-curve $-1 5 3 -24.75 0 0 -1 I I #
coedge $-1 $586 $709 $710 $711 reversed $507 $-1 #
coedge $-1 $712 $713 $586 $654 forward $618 $-1 #
edge $-1 $714 0 $715 0.7800000000000011369 $586 $716 forward 7 unknown #
face $-1 $717 $718 $2 $-1 $719 forward single #
loop $-1 $-1 $720 $590 #
plane-surface $-1 5 0 -70 1 0 0 0 0 1 forward_v I I I I #
coedge $-1 $721 $722 $723 $724 forward $591 $-1 #
coedge $-1 $725 $593 $726 $727 forward $516 $-1 #
coedge $-1 $593 $728 $702 $729 reversed $516 $-1 #
edge $-1 $650 0 $730 3.5 $648 $731 forward 7 unknown #
straight-curve $-1 -5 5 -46.75 -1 0 0 I I #
vertex $-1 $609 $732 #
straight-curve $-1 -5.5 -0.5 -46.75 1 0 0 I I #
plane-surface $-1 -5 -0.5 -48.25 0 1 0 0 0 1 forward_v I I I I #
point $-1 -5.5 -0.5 -48.25 #
straight-curve $-1 -5.5 -0.5 -46.75 0 0 -1 I I #
point $-1 -5.5 5 -46.25 #
straight-curve $-1 -5.5 5 -46.75 0 -1 0 I I #
point $-1 -5.5 5 -46.75 #
face $-1 $733 $734 $2 $-1 $735 forward single #
plane-surface $-1 5 4 -25.25 0 1 0 0 0 1 forward_v I I I I #
coedge $-1 $713 $712 $736 $737 reversed $618 $-1 #
coedge $-1 $738 $631 $622 $675 reversed $633 $-1 #
edge $-1 $679 0 $683 5 $622 $739 forward 7 unknown #
coedge $-1 $740 $623 $625 $681 reversed $678 $-1 #
coedge $-1 $623 $740 $738 $741 forward $678 $-1 #
loop $-1 $-1 $623 $742 #
vertex $-1 $741 $743 #
straight-curve $-1 -5 3 -26 0 1 0 I I #
edge $-1 $714 0 $626 2 $625 $744 forward 7 unknown #
point $-1 -5 3 -26 #
vertex $-1 $628 $745 #
straight-curve $-1 -5 5 -31 0 -1 0 I I #
point $-1 -5 5 -31 #
coedge $-1 $632 $746 $747 $748 reversed $633 $-1 #
coedge $-1 $749 $750 $751 $752 forward $633 $-1 #
straight-curve $-1 5 4 -31 -1 0 0 I I #
coedge $-1 $747 $753 $638 $690 forward $754 $-1 #
edge $-1 $755 0 $691 5 $689 $756 forward 7 unknown #
vertex $-1 $748 $757 #
straight-curve $-1 5 4 -25.25 1 0 0 I I #
coedge $-1 $758 $759 $640 $694 forward $760 $-1 #
edge $-1 $696 0 $755 0.5 $693 $761 forward 7 unknown #
coedge $-1 $762 $641 $759 $763 reversed $649 $-1 #
vertex $-1 $763 $764 #
straight-curve $-1 5 -1 -25.25 0 1 0 I I #
plane-surface $-1 5 -1 -25.25 0 0 -1 0 1 0 forward_v I I I I #
coedge $-1 $765 $645 $766 $767 forward $507 $-1 #
coedge $-1 $768 $762 $645 $701 forward $649 $-1 #
edge $-1 $769 0 $704 0.5 $645 $770 forward 7 unknown #
coedge $-1 $720 $646 $660 $729 forward $656 $-1 #
coedge $-1 $646 $720 $771 $772 reversed $656 $-1 #
vertex $-1 $701 $773 #
straight-curve $-1 5 3 -24.75 0 0 1 I I #
coedge $-1 $648 $768 $722 $774 reversed $649 $-1 #
face $-1 $775 $649 $2 $-1 $776 reversed single #
point $-1 5 3 -24.75 #
coedge $-1 $652 $777 $778 $779 reversed $507 $-1 #
coedge $-1 $780 $781 $652 $711 forward $782 $-1 #
edge $-1 $715 0 $783 0.5 $652 $784 forward 7 unknown #
coedge $-1 $673 $653 $785 $786 forward $618 $-1 #
coedge $-1 $653 $673 $740 $787 reversed $618 $-1 #
vertex $-1 $681 $788 #
vertex $-1 $711 $789 #
straight-curve $-1 -7 3 -26 0 0 1 I I #
face $-1 $790 $791 $2 $-1 $792 forward single #
loop $-1 $-1 $793 $655 #
plane-surface $-1 -7 4 -25.21999999999999886 0 0 -1 0 -1 0 forward_v I I I I #
coedge $-1 $703 $702 $794 $795 forward $656 $-1 #
coedge $-1 $726 $658 $796 $797 reversed $591 $-1 #
coedge $-1 $658 $726 $706 $774 forward $591 $-1 #
coedge $-1 $798 $799 $658 $724 reversed $800 $-1 #
edge $-1 $801 0 $802 0.5 $658 $803 forward 7 unknown #
coedge $-1 $728 $659 $804 $805 reversed $516 $-1 #
coedge $-1 $722 $721 $659 $727 reversed $591 $-1 #
edge $-1 $730 0 $806 0.5 $659 $807 forward 7 unknown #
coedge $-1 $660 $725 $746 $808 reversed $516 $-1 #
edge $-1 $650 0 $809 1 $702 $810 forward 7 unknown #
vertex $-1 $661 $811 #
straight-curve $-1 5 3 -24.75 0 -1 0 I I #
point $-1 -5.5 -0.5 -46.75 #
face $-1 $812 $782 $2 $-1 $813 reversed single #
loop $-1 $-1 $814 $671 #
plane-surface $-1 -7 4 -23.21999999999999886 0 0 -1 0 -1 0 forward_v I I I I #
coedge $-1 $815 $738 $673 $737 forward $633 $-1 #
edge $-1 $816 0 $817 0.7800000000000011369 $673 $818 forward 7 unknown #
coedge $-1 $736 $674 $677 $741 reversed $633 $-1 #
straight-curve $-1 -5 4 -26 0 0 -1 I I #
coedge $-1 $677 $676 $713 $787 forward $678 $-1 #
edge $-1 $816 0 $679 2 $677 $819 forward 7 unknown #
face $-1 $477 $678 $2 $-1 $820 forward single #
point $-1 -5 4 -26 #
straight-curve $-1 -7 3 -26 1 0 0 I I #
point $-1 -5 4 -31 #
coedge $-1 $686 $794 $728 $808 forward $633 $-1 #
coedge $-1 $804 $689 $686 $748 forward $754 $-1 #
edge $-1 $691 0 $821 0.5 $747 $822 forward 7 unknown #
coedge $-1 $823 $687 $824 $825 reversed $633 $-1 #
coedge $-1 $687 $826 $827 $828 forward $633 $-1 #
coedge $-1 $829 $830 $687 $752 reversed $734 $-1 #
edge $-1 $831 0 $832 0.5 $687 $833 forward 7 unknown #
coedge $-1 $689 $834 $758 $835 forward $754 $-1 #
loop $-1 $-1 $753 $836 #
vertex $-1 $690 $837 #
straight-curve $-1 5.5 -1 -25.25 0 1 0 I I #
point $-1 5.5 4 -25.25 #
coedge $-1 $838 $693 $753 $835 reversed $760 $-1 #
coedge $-1 $693 $838 $695 $763 forward $760 $-1 #
loop $-1 $-1 $693 $839 #
straight-curve $-1 5 -1 -25.25 1 0 0 I I #
coedge $-1 $700 $695 $840 $841 reversed $649 $-1 #
edge $-1 $842 0 $696 2.5 $695 $843 forward 7 unknown #
point $-1 5 -1 -25.25 #
coedge $-1 $844 $699 $845 $846 forward $507 $-1 #
coedge $-1 $847 $848 $699 $767 reversed $849 $-1 #
edge $-1 $769 0 $850 3.25 $699 $851 forward 7 unknown #
coedge $-1 $706 $700 $798 $852 reversed $649 $-1 #
vertex $-1 $767 $853 #
straight-curve $-1 5 3 -22.75 0 0 -1 I I #
coedge $-1 $854 $798 $703 $772 forward $800 $-1 #
edge $-1 $704 0 $855 1 $703 $856 forward 7 unknown #
point $-1 5 3 -23.25 #
edge $-1 $730 0 $801 1.5 $706 $857 forward 7 unknown #
face $-1 $836 $800 $2 $-1 $858 forward single #
plane-surface $-1 5 0 -70 1 0 0 0 0 -1 forward_v I I I I #
coedge $-1 $709 $859 $860 $861 reversed $507 $-1 #
coedge $-1 $862 $863 $709 $779 forward $864 $-1 #
edge $-1 $783 0 $865 1.5 $709 $866 forward 7 unknown #
coedge $-1 $867 $710 $868 $869 reversed $782 $-1 #
coedge $-1 $710 $870 $793 $871 reversed $782 $-1 #
loop $-1 $-1 $710 $733 #
vertex $-1 $711 $872 #
straight-curve $-1 -7 3 -25.21999999999999886 0 0 1 I I #
coedge $-1 $793 $873 $712 $786 reversed $718 $-1 #
edge $-1 $715 0 $817 1 $712 $874 forward 7 unknown #
edge $-1 $714 0 $816 1 $713 $875 forward 7 unknown #
point $-1 -7 3 -26 #
point $-1 -7 3 -25.21999999999999886 #
face $-1 $742 $864 $2 $-1 $876 forward single #
loop $-1 $-1 $877 $717 #
plane-surface $-1 -7 -0.5 -23.21999999999999886 0 1 0 0 0 -1 forward_v I I I I #
coedge $-1 $878 $785 $781 $871 forward $718 $-1 #
coedge $-1 $746 $879 $720 $795 reversed $633 $-1 #
edge $-1 $809 0 $855 1.5 $720 $880 forward 7 unknown #
coedge $-1 $881 $804 $721 $797 forward $754 $-1 #
edge $-1 $806 0 $802 1.5 $796 $882 forward 7 unknown #
coedge $-1 $771 $723 $768 $852 forward $800 $-1 #
coedge $-1 $723 $854 $881 $883 reversed $800 $-1 #
loop $-1 $-1 $854 $775 #
vertex $-1 $774 $884 #
vertex $-1 $883 $885 #
straight-curve $-1 5 -0.5 -23.25 1 0 0 I I #
coedge $-1 $796 $747 $725 $805 forward $754 $-1 #
edge $-1 $821 0 $806 4.5 $804 $886 forward 7 unknown #
vertex $-1 $797 $887 #
straight-curve $-1 5 -0.5 -24.75 1 0 0 I I #
edge $-1 $809 0 $821 0.5 $746 $888 forward 7 unknown #
vertex $-1 $729 $889 #
straight-curve $-1 5 3 -24.75 0 1 0 I I #
point $-1 5 -0.5 -24.75 #
face $-1 $890 $891 $2 $-1 $892 forward single #
plane-surface $-1 -7 0 0 -1 0 0 0 0 1 forward_v I I I I #
coedge $-1 $893 $829 $894 $895 forward $734 $-1 #
coedge $-1 $896 $736 $873 $897 forward $633 $-1 #
vertex $-1 $787 $898 #
vertex $-1 $786 $899 #
straight-curve $-1 -7 4 -26 0 0 1 I I #
straight-curve $-1 -7 4 -26 1 0 0 I I #
plane-surface $-1 -7 0 -26 0 0 -1 1 0 0 forward_v I I I I #
vertex $-1 $805 $900 #
straight-curve $-1 5.5 4 -25.25 0 0 1 I I #
coedge $-1 $901 $749 $902 $903 reversed $633 $-1 #
coedge $-1 $904 $905 $749 $825 forward $906 $-1 #
edge $-1 $907 0 $832 0.5 $749 $908 forward 7 unknown #
coedge $-1 $750 $896 $909 $910 reversed $633 $-1 #
coedge $-1 $863 $862 $750 $828 reversed $864 $-1 #
edge $-1 $911 0 $831 1.5 $827 $912 forward 7 unknown #
coedge $-1 $814 $751 $862 $913 reversed $734 $-1 #
coedge $-1 $751 $893 $904 $914 reversed $734 $-1 #
vertex $-1 $913 $915 #
vertex $-1 $825 $916 #
straight-curve $-1 -7 4 -23.21999999999999886 -1 0 0 I I #
coedge $-1 $753 $917 $918 $919 forward $754 $-1 #
edge $-1 $920 0 $755 2.5 $753 $921 forward 7 unknown #
face $-1 $839 $754 $2 $-1 $922 forward single #
point $-1 5.5 -1 -25.25 #
coedge $-1 $759 $758 $923 $924 reversed $760 $-1 #
face $-1 $643 $760 $2 $-1 $925 forward single #
coedge $-1 $923 $926 $762 $841 forward $927 $-1 #
edge $-1 $769 0 $842 4 $762 $928 forward 7 unknown #
vertex $-1 $841 $929 #
straight-curve $-1 5 -1 -22.75 0 0 -1 I I #
coedge $-1 $930 $765 $931 $932 forward $507 $-1 #
coedge $-1 $933 $934 $765 $846 reversed $935 $-1 #
edge $-1 $850 0 $936 2 $765 $937 forward 7 unknown #
coedge $-1 $938 $766 $926 $939 forward $849 $-1 #
coedge $-1 $766 $938 $933 $940 forward $849 $-1 #
loop $-1 $-1 $938 $941 #
vertex $-1 $846 $942 #
straight-curve $-1 5 3 -22.75 0 0 1 I I #
edge $-1 $801 0 $704 3.5 $768 $943 forward 7 unknown #
point $-1 5 3 -22.75 #
coedge $-1 $799 $771 $879 $944 forward $800 $-1 #
vertex $-1 $772 $945 #
straight-curve $-1 5 3 -23.25 0 1 0 I I #
straight-curve $-1 5 -0.5 -24.75 0 0 1 I I #
plane-surface $-1 5 -0.5 -23.25 0 0 -1 0 1 0 forward_v I I I I #
coedge $-1 $777 $930 $946 $947 reversed $507 $-1 #
coedge $-1 $948 $894 $777 $861 forward $782 $-1 #
edge $-1 $865 0 $949 0.5 $777 $950 forward 7 unknown #
coedge $-1 $827 $778 $829 $913 forward $864 $-1 #
coedge $-1 $778 $827 $951 $952 reversed $864 $-1 #
loop $-1 $-1 $827 $790 #
vertex $-1 $779 $953 #
straight-curve $-1 -7 3 -24.71999999999999886 0 0 1 I I #
coedge $-1 $894 $780 $954 $955 reversed $782 $-1 #
coedge $-1 $951 $956 $780 $869 forward $891 $-1 #
edge $-1 $957 0 $783 3.5 $780 $958 forward 7 unknown #
coedge $-1 $781 $948 $959 $960 reversed $782 $-1 #
edge $-1 $715 0 $961 4 $781 $962 forward 7 unknown #
point $-1 -7 3 -24.71999999999999886 #
coedge $-1 $785 $963 $815 $897 reversed $718 $-1 #
straight-curve $-1 -7 3 -25.21999999999999886 0 1 0 I I #
straight-curve $-1 -7 3 -26 0 1 0 I I #
plane-surface $-1 -7 0 0 -1 0 0 0 0 -1 forward_v I I I I #
coedge $-1 $964 $954 $956 $965 forward $791 $-1 #
coedge $-1 $963 $793 $966 $967 forward $718 $-1 #
coedge $-1 $794 $968 $854 $944 reversed $633 $-1 #
straight-curve $-1 5 4 -24.75 0 0 1 I I #
coedge $-1 $917 $796 $799 $883 forward $754 $-1 #
straight-curve $-1 5.5 -0.5 -24.75 0 0 1 I I #
edge $-1 $802 0 $969 4.5 $881 $970 forward 7 unknown #
point $-1 5 -0.5 -23.25 #
point $-1 5.5 -0.5 -23.25 #
straight-curve $-1 5.5 4 -24.75 0 -1 0 I I #
point $-1 5.5 -0.5 -24.75 #
straight-curve $-1 5 4 -24.75 1 0 0 I I #
point $-1 5 4 -24.75 #
face $-1 $971 $906 $2 $-1 $972 forward single #
loop $-1 $-1 $909 $812 #
plane-surface $-1 -7 -0.5 -24.71999999999999886 0 0 1 0 1 0 forward_v I I I I #
coedge $-1 $830 $814 $973 $974 forward $734 $-1 #
coedge $-1 $860 $867 $814 $895 reversed $782 $-1 #
edge $-1 $865 0 $975 3.5 $894 $976 forward 7 unknown #
coedge $-1 $826 $815 $977 $978 reversed $633 $-1 #
edge $-1 $817 0 $979 0.5 $815 $980 forward 7 unknown #
point $-1 -7 4 -26 #
point $-1 -7 4 -25.21999999999999886 #
point $-1 5.5 4 -24.75 #
coedge $-1 $981 $823 $982 $983 forward $633 $-1 #
coedge $-1 $984 $985 $823 $903 forward $986 $-1 #
edge $-1 $987 0 $907 0.5 $823 $988 forward 7 unknown #
coedge $-1 $989 $824 $830 $914 forward $906 $-1 #
coedge $-1 $824 $990 $984 $991 forward $906 $-1 #
loop $-1 $-1 $990 $890 #
vertex $-1 $903 $992 #
straight-curve $-1 -7.5 4 -22.71999999999999886 0 0 -1 I I #
coedge $-1 $993 $951 $826 $910 forward $891 $-1 #
edge $-1 $911 0 $994 0.5 $826 $995 forward 7 unknown #
vertex $-1 $952 $996 #
straight-curve $-1 -7 4 -24.71999999999999886 0 0 1 I I #
edge $-1 $865 0 $831 1 $862 $997 forward 7 unknown #
edge $-1 $832 0 $998 4.5 $904 $999 forward 7 unknown #
point $-1 -7 4 -23.21999999999999886 #
point $-1 -7.5 4 -23.21999999999999886 #
coedge $-1 $834 $881 $968 $1000 forward $754 $-1 #
coedge $-1 $1001 $923 $834 $919 reversed $927 $-1 #
edge $-1 $1002 0 $920 5 $834 $1003 forward 7 unknown #
vertex $-1 $919 $1004 #
straight-curve $-1 5.5 -1 -22.75 0 0 -1 I I #
plane-surface $-1 5.5 0 -70 1 0 0 0 0 -1 forward_v I I I I #
coedge $-1 $918 $840 $838 $924 forward $927 $-1 #
edge $-1 $842 0 $920 0.5 $923 $1005 forward 7 unknown #
plane-surface $-1 5 -1 -22.75 0 -1 0 0 0 -1 forward_v I I I I #
coedge $-1 $840 $1001 $847 $939 reversed $927 $-1 #
loop $-1 $-1 $840 $1006 #
straight-curve $-1 5 3 -22.75 0 -1 0 I I #
point $-1 5 -1 -22.75 #
coedge $-1 $859 $844 $1007 $1008 forward $507 $-1 #
coedge $-1 $1009 $1010 $844 $932 reversed $1011 $-1 #
edge $-1 $936 0 $1012 1.500000000000003553 $844 $1013 forward 7 unknown #
coedge $-1 $1014 $845 $848 $940 reversed $935 $-1 #
coedge $-1 $845 $1014 $1009 $1015 reversed $935 $-1 #
loop $-1 $-1 $933 $1016 #
vertex $-1 $932 $1017 #
straight-curve $-1 5 3 -19.5 1 0 0 I I #
coedge $-1 $848 $847 $1018 $1019 forward $849 $-1 #
edge $-1 $769 0 $1020 1 $847 $1021 forward 7 unknown #
edge $-1 $1022 0 $850 1 $848 $1023 forward 7 unknown #
face $-1 $1006 $849 $2 $-1 $1024 forward single #
point $-1 5 3 -19.5 #
straight-curve $-1 5 -0.5 -23.25 0 1 0 I I #
edge $-1 $855 0 $969 0.5 $879 $1025 forward 7 unknown #
point $-1 5 4 -23.25 #
coedge $-1 $1026 $1027 $859 $947 forward $1028 $-1 #
edge $-1 $949 0 $1029 4.719999999999998863 $859 $1030 forward 7 unknown #
coedge $-1 $870 $860 $1031 $1032 reversed $782 $-1 #
vertex $-1 $861 $1033 #
straight-curve $-1 -7 3 -23.21999999999999886 0 0 1 I I #
coedge $-1 $909 $868 $863 $952 forward $891 $-1 #
edge $-1 $783 0 $911 1 $863 $1034 forward 7 unknown #
point $-1 -7 3 -23.21999999999999886 #
coedge $-1 $877 $973 $867 $955 forward $791 $-1 #
edge $-1 $975 0 $957 1.5 $867 $1035 forward 7 unknown #
coedge $-1 $868 $993 $877 $965 reversed $891 $-1 #
vertex $-1 $955 $1036 #
straight-curve $-1 -7 -0.5 -24.71999999999999886 0 1 0 I I #
coedge $-1 $1037 $966 $870 $960 forward $1038 $-1 #
edge $-1 $961 0 $1039 2.5 $870 $1040 forward 7 unknown #
vertex $-1 $871 $1041 #
straight-curve $-1 -7 3 -25.21999999999999886 0 -1 0 I I #
coedge $-1 $873 $878 $1042 $1043 reversed $718 $-1 #
coedge $-1 $973 $877 $989 $1044 reversed $791 $-1 #
edge $-1 $957 0 $1045 0.5 $877 $1046 forward 7 unknown #
coedge $-1 $959 $1047 $878 $967 reversed $1038 $-1 #
edge $-1 $961 0 $1048 0.5 $878 $1049 forward 7 unknown #
coedge $-1 $879 $1050 $917 $1000 reversed $633 $-1 #
vertex $-1 $1000 $1051 #
straight-curve $-1 5.5 -0.5 -23.25 0 1 0 I I #
face $-1 $1052 $1038 $2 $-1 $1053 forward single #
plane-surface $-1 -7.5 0 0 -1 0 0 0 0 1 forward_v I I I I #
coedge $-1 $954 $964 $893 $974 reversed $791 $-1 #
edge $-1 $975 0 $998 0.5 $893 $1054 forward 7 unknown #
vertex $-1 $895 $1055 #
straight-curve $-1 -7 3 -23.21999999999999886 0 -1 0 I I #
coedge $-1 $1042 $1056 $896 $978 forward $906 $-1 #
edge $-1 $994 0 $979 0.5 $896 $1057 forward 7 unknown #
vertex $-1 $978 $1058 #
straight-curve $-1 -7 4 -25.21999999999999886 -1 0 0 I I #
coedge $-1 $1059 $901 $1060 $1061 reversed $633 $-1 #
coedge $-1 $1027 $1062 $901 $983 reversed $1028 $-1 #
edge $-1 $987 0 $1063 4.527417596432751878 $982 $1064 forward 7 unknown #
coedge $-1 $1065 $902 $905 $991 reversed $986 $-1 #
coedge $-1 $902 $1031 $1027 $1066 forward $986 $-1 #
loop $-1 $-1 $902 $1052 #
vertex $-1 $1066 $1067 #
straight-curve $-1 -7 4 -22.71999999999999886 -1 0 0 I I #
coedge $-1 $1056 $904 $964 $1044 forward $906 $-1 #
coedge $-1 $905 $1042 $1047 $1068 forward $906 $-1 #
edge $-1 $1069 0 $907 5 $905 $1070 forward 7 unknown #
point $-1 -7.5 4 -22.71999999999999886 #
coedge $-1 $956 $909 $1056 $1071 reversed $891 $-1 #
vertex $-1 $910 $1072 #
straight-curve $-1 -7 4 -24.71999999999999886 -1 0 0 I I #
point $-1 -7 4 -24.71999999999999886 #
straight-curve $-1 -7 3 -23.21999999999999886 0 1 0 I I #
vertex $-1 $1044 $1073 #
straight-curve $-1 -7.5 4 -23.21999999999999886 0 -1 0 I I #
edge $-1 $969 0 $1002 0.5 $917 $1074 forward 7 unknown #
coedge $-1 $926 $918 $1050 $1075 reversed $927 $-1 #
vertex $-1 $919 $1076 #
straight-curve $-1 5.5 4 -22.75 0 -1 0 I I #
point $-1 5.5 -1 -22.75 #
straight-curve $-1 5 -1 -22.75 1 0 0 I I #
face $-1 $707 $927 $2 $-1 $1077 forward single #
coedge $-1 $1078 $1079 $930 $1008 reversed $1080 $-1 #
edge $-1 $1012 -1.776356839400250465e-15 $1029 13.99999999999999822 $930 $1081 forward 7 unknown #
coedge $-1 $1082 $931 $934 $1015 forward $1011 $-1 #
coedge $-1 $931 $1083 $1078 $1084 reversed $1011 $-1 #
loop $-1 $-1 $1085 $1086 #
vertex $-1 $1008 $1087 #
straight-curve $-1 7 3 -19.5 0 0 1 I I #
coedge $-1 $934 $933 $1088 $1089 forward $935 $-1 #
edge $-1 $936 0 $1090 1 $934 $1091 forward 7 unknown #
face $-1 $941 $935 $2 $-1 $1092 forward single #
point $-1 7 3 -19.5 #
coedge $-1 $1050 $1088 $938 $1019 reversed $633 $-1 #
edge $-1 $1020 0 $1022 3.25 $938 $1093 forward 7 unknown #
vertex $-1 $939 $1094 #
straight-curve $-1 5 3 -22.75 0 1 0 I I #
vertex $-1 $940 $1095 #
straight-curve $-1 5 4 -19.5 0 -1 0 I I #
plane-surface $-1 5 0 -70 1 0 0 0 0 1 forward_v I I I I #
straight-curve $-1 5 4 -23.25 1 0 0 I I #
coedge $-1 $1096 $946 $1079 $1097 forward $1028 $-1 #
coedge $-1 $946 $982 $985 $1066 reversed $1028 $-1 #
loop $-1 $-1 $946 $1098 #
vertex $-1 $947 $1099 #
straight-curve $-1 -7 3 -22.71999999999999886 0 0 1 I I #
coedge $-1 $985 $1065 $948 $1032 forward $986 $-1 #
edge $-1 $1039 0 $949 4 $948 $1100 forward 7 unknown #
point $-1 -7 3 -22.71999999999999886 #
straight-curve $-1 -7 3 -24.71999999999999886 0 1 0 I I #
straight-curve $-1 -7 -0.5 -23.21999999999999886 0 0 -1 I I #
point $-1 -7 -0.5 -24.71999999999999886 #
coedge $-1 $1047 $959 $1065 $1101 forward $1038 $-1 #
loop $-1 $-1 $1037 $971 #
vertex $-1 $960 $1102 #
straight-curve $-1 -7 -1 -25.21999999999999886 0 0 1 I I #
point $-1 -7 -1 -25.21999999999999886 #
coedge $-1 $990 $977 $963 $1043 forward $906 $-1 #
edge $-1 $979 0 $1048 5 $1042 $1103 forward 7 unknown #
edge $-1 $998 0 $1045 1.5 $989 $1104 forward 7 unknown #
vertex $-1 $1071 $1105 #
straight-curve $-1 -7 -0.5 -24.71999999999999886 -1 0 0 I I #
coedge $-1 $966 $1037 $990 $1068 reversed $1038 $-1 #
vertex $-1 $1043 $1106 #
straight-curve $-1 -7 -1 -25.21999999999999886 -1 0 0 I I #
coedge $-1 $968 $1018 $1001 $1075 forward $633 $-1 #
point $-1 5.5 4 -23.25 #
face $-1 $1098 $986 $2 $-1 $1107 forward single #
plane-surface $-1 -7 -1 -25.21999999999999886 0 -1 0 0 0 1 forward_v I I I I #
straight-curve $-1 -7 -0.5 -23.21999999999999886 -1 0 0 I I #
point $-1 -7 -0.5 -23.21999999999999886 #
coedge $-1 $977 $989 $993 $1071 forward $906 $-1 #
straight-curve $-1 -7.5 4 -24.71999999999999886 0 0 -1 I I #
point $-1 -7.5 4 -25.21999999999999886 #
coedge $-1 $1088 $981 $1082 $1108 reversed $633 $-1 #
coedge $-1 $1109 $1110 $981 $1061 forward $1111 $-1 #
edge $-1 $1112 -1.776356839400250465e-15 $1063 13.99999999999999822 $1060 $1113 forward 7 unknown #
coedge $-1 $982 $1114 $1109 $1115 reversed $1028 $-1 #
vertex $-1 $983 $1116 #
straight-curve $-1 -7 4 -22.71999999999999886 0 0 1 I I #
coedge $-1 $1031 $984 $1037 $1101 reversed $986 $-1 #
edge $-1 $949 0 $987 1 $1027 $1117 forward 7 unknown #
point $-1 -7 4 -22.71999999999999886 #
edge $-1 $1048 0 $1069 2.5 $990 $1118 forward 7 unknown #
vertex $-1 $991 $1119 #
straight-curve $-1 -7.5 -1 -22.71999999999999886 0 1 0 I I #
edge $-1 $1045 0 $994 4.5 $1056 $1120 forward 7 unknown #
point $-1 -7.5 4 -24.71999999999999886 #
point $-1 -7.5 -0.5 -23.21999999999999886 #
straight-curve $-1 5.5 4 -23.25 0 0 1 I I #
edge $-1 $1020 0 $1002 0.5 $1001 $1121 forward 7 unknown #
point $-1 5.5 4 -22.75 #
plane-surface $-1 5 4 -22.75 0 0 1 0 -1 0 forward_v I I I I #
coedge $-1 $1122 $1007 $1010 $1084 forward $1080 $-1 #
coedge $-1 $1007 $1122 $1026 $1097 reversed $1080 $-1 #
loop $-1 $-1 $1007 $1123 #
straight-curve $-1 6.999999999999998224 3 -18 -1 0 0 I I #
coedge $-1 $1124 $1009 $1059 $1108 forward $1011 $-1 #
coedge $-1 $1010 $1085 $1125 $1126 forward $1011 $-1 #
edge $-1 $1012 -4.947917760233232597e-16 $1127 5.385164807134501963 $1078 $1128 forward 7 unknown #
coedge $-1 $1083 $1129 $1130 $1131 reversed $1011 $-1 #
face $-1 $1132 $1011 $2 $-1 $1133 forward single #
point $-1 7 3 -17.99999999999999645 #
coedge $-1 $1018 $1059 $1014 $1089 reversed $633 $-1 #
edge $-1 $1022 0 $1090 2 $1014 $1134 forward 7 unknown #
vertex $-1 $1015 $1135 #
straight-curve $-1 7 3 -19.5 0 1 0 I I #
plane-surface $-1 5 0 -19.5 0 0 -1 1 0 0 forward_v I I I I #
straight-curve $-1 5 4 -22.75 0 0 1 I I #
point $-1 5 4 -22.75 #
point $-1 5 4 -19.5 #
coedge $-1 $1136 $1026 $1137 $1138 reversed $1028 $-1 #
edge $-1 $1029 0 $1139 5.385164807134505516 $1079 $1140 forward 7 unknown #
face $-1 $1123 $1028 $2 $-1 $1141 forward single #
point $-1 -7 3 -18 #
straight-curve $-1 -7 -1 -22.71999999999999886 0 1 0 I I #
edge $-1 $1039 0 $1069 0.5 $1037 $1142 forward 7 unknown #
point $-1 -7 -1 -22.71999999999999886 #
straight-curve $-1 -7.5 4 -25.21999999999999886 0 -1 0 I I #
straight-curve $-1 -7.5 -0.5 -23.21999999999999886 0 0 -1 I I #
point $-1 -7.5 -0.5 -24.71999999999999886 #
point $-1 -7.5 -1 -25.21999999999999886 #
plane-surface $-1 -7 -1 -22.71999999999999886 0 0 1 0 1 0 forward_v I I I I #
edge $-1 $1090 0 $1112 1.307417596432753015 $1082 $1143 forward 7 unknown #
coedge $-1 $1144 $1060 $1062 $1115 forward $1111 $-1 #
coedge $-1 $1060 $1144 $1124 $1145 reversed $1111 $-1 #
loop $-1 $-1 $1144 $1146 #
vertex $-1 $1145 $1147 #
straight-curve $-1 6.999999999999998224 4 -18.19258240356724698 -1 0 0 I I #
coedge $-1 $1062 $1136 $1148 $1149 forward $1028 $-1 #
edge $-1 $1063 0 $1150 5.385164807134502851 $1062 $1151 forward 7 unknown #
point $-1 -7 4 -18.19258240356724698 #
straight-curve $-1 -7 3 -22.71999999999999886 0 1 0 I I #
straight-curve $-1 -7.5 -1 -25.21999999999999886 0 0 1 I I #
point $-1 -7.5 -1 -22.71999999999999886 #
straight-curve $-1 -7.5 -0.5 -24.71999999999999886 0 1 0 I I #
straight-curve $-1 5 4 -22.75 1 0 0 I I #
coedge $-1 $1079 $1078 $1152 $1153 forward $1080 $-1 #
face $-1 $1086 $1080 $2 $-1 $1154 reversed single #
coedge $-1 $1129 $1082 $1110 $1145 forward $1011 $-1 #
coedge $-1 $1155 $1152 $1083 $1126 reversed $1156 $-1 #
edge $-1 $1157 0 $1127 13 $1125 $1158 forward 7 unknown #
vertex $-1 $1153 $1159 #
straight-curve $-1 7 3.000000000000001332 -17.99999999999999645 0 0.371390676354103999 0.9284766908852591927 I I #
coedge $-1 $1085 $1124 $1160 $1161 reversed $1011 $-1 #
coedge $-1 $1162 $1163 $1085 $1131 forward $1164 $-1 #
edge $-1 $1157 0 $1165 1 $1130 $1166 forward 7 unknown #
face $-1 $1167 $1164 $2 $-1 $1168 forward single #
plane-surface $-1 7 0 -19.5 1 0 0 0 0 1 forward_v I I I I #
straight-curve $-1 5 4 -19.5 1 0 0 I I #
point $-1 7 4 -19.5 #
coedge $-1 $1114 $1096 $1169 $1170 forward $1028 $-1 #
coedge $-1 $1152 $1155 $1096 $1138 forward $1156 $-1 #
edge $-1 $1171 0 $1139 13 $1137 $1172 forward 7 unknown #
vertex $-1 $1097 $1173 #
straight-curve $-1 -7 3 -18 0 0.371390676354103999 0.9284766908852591927 I I #
plane-surface $-1 -7 0 0 -1 0 0 0 0 -1 forward_v I I I I #
straight-curve $-1 -7 -1 -22.71999999999999886 -1 0 0 I I #
straight-curve $-1 7 4 -19.5 0 0 1 I I #
coedge $-1 $1110 $1109 $1174 $1175 reversed $1111 $-1 #
edge $-1 $1112 0 $1176 5.385164807134502851 $1124 $1177 forward 7 unknown #
face $-1 $1016 $1111 $2 $-1 $1178 forward single #
point $-1 7 4 -18.19258240356724698 #
coedge $-1 $1179 $1174 $1114 $1149 reversed $1180 $-1 #
edge $-1 $1181 0 $1150 13.19258240356725054 $1114 $1182 forward 7 unknown #
vertex $-1 $1115 $1183 #
straight-curve $-1 -7 4 -18.19258240356724698 0 0.3713906763541039435 0.9284766908852591927 I I #
coedge $-1 $1125 $1137 $1122 $1153 reversed $1156 $-1 #
edge $-1 $1127 -1.776356839400250465e-15 $1139 13.99999999999999822 $1122 $1184 forward 7 unknown #
plane-surface $-1 8.399999999999998579 3 -18 0 0.9284766908852593037 -0.371390676354103999 0 0.3713906763541039435 0.9284766908852591927 forward_v I I I I #
coedge $-1 $1137 $1125 $1163 $1185 reversed $1156 $-1 #
loop $-1 $-1 $1137 $1167 #
vertex $-1 $1185 $1186 #
straight-curve $-1 7 5 0 0 0 -1 I I #
point $-1 7 5 -13 #
coedge $-1 $1174 $1179 $1129 $1161 forward $1180 $-1 #
edge $-1 $1165 0 $1176 13.19258240356725054 $1129 $1187 forward 7 unknown #
coedge $-1 $1169 $1130 $1179 $1188 reversed $1164 $-1 #
coedge $-1 $1130 $1169 $1155 $1185 forward $1164 $-1 #
loop $-1 $-1 $1169 $1132 #
vertex $-1 $1188 $1189 #
straight-curve $-1 7 5 0 0 1 0 I I #
face $-1 $1190 $1156 $2 $-1 $1191 reversed single #
plane-surface $-1 7 0 0 0 0 1 -1 0 0 forward_v I I I I #
coedge $-1 $1163 $1162 $1136 $1170 reversed $1164 $-1 #
edge $-1 $1171 0 $1181 1 $1169 $1192 forward 7 unknown #
vertex $-1 $1185 $1193 #
straight-curve $-1 -7 5 0 0 0 -1 I I #
point $-1 -7 5 -13 #
coedge $-1 $1148 $1160 $1144 $1175 forward $1180 $-1 #
edge $-1 $1176 -1.776356839400250465e-15 $1150 13.99999999999999822 $1144 $1194 forward 7 unknown #
vertex $-1 $1161 $1195 #
straight-curve $-1 7 4 -18.19258240356724698 0 0.3713906763541039435 0.9284766908852591927 I I #
plane-surface $-1 8.399999999999998579 3.928476690885259082 -18.37139067635409972 0 0.9284766908852593037 -0.371390676354103999 0 0.3713906763541039435 0.9284766908852591927 forward_v I I I I #
coedge $-1 $1160 $1148 $1162 $1188 forward $1180 $-1 #
loop $-1 $-1 $1160 $1190 #
vertex $-1 $1188 $1196 #
straight-curve $-1 -7 6 0 0 0 -1 I I #
point $-1 -7 6 -13.19258240356725054 #
straight-curve $-1 6.999999999999998224 5.000000000000001776 -13 -1 0 0 I I #
edge $-1 $1171 0 $1157 14 $1155 $1197 forward 7 unknown #
point $-1 7 5 0 #
straight-curve $-1 7 6 0 0 0 -1 I I #
edge $-1 $1181 0 $1165 14 $1162 $1198 forward 7 unknown #
point $-1 7 6 0 #
face $-1 $1146 $1180 $2 $-1 $1199 forward single #
plane-surface $-1 8.399999999999998579 5 -13 0 1 0 0 0 1 forward_v I I I I #
straight-curve $-1 -7 5 0 0 1 0 I I #
point $-1 -7 5 0 #
straight-curve $-1 6.999999999999998224 6 -13.19258240356725054 -1 0 0 I I #
point $-1 7 6 -13.19258240356725054 #
point $-1 -7 6 0 #
straight-curve $-1 -7 5 0 1 0 0 I I #
straight-curve $-1 -7 6 0 1 0 0 I I #
plane-surface $-1 8.399999999999998579 6 -13 0 1 0 0 0 1 forward_v I I I I #
End-of-ACIS-data 