600 0 1 0           
89 GICL ACIS Healer - Source: /gicl/data5/repository/PTC/V18/fly_small18/gear0.prt.sat - 6 0 18 ACIS 6.0.3 Solaris 24 Sat Apr 13 22:08:19 2002 
1 9.999999999999999547e-07 1.000000000000000036e-10 
body $-1 $1 $-1 $-1 #
lump $-1 $-1 $2 $0 #
shell $-1 $-1 $-1 $3 $-1 $1 #
face $-1 $4 $5 $2 $-1 $6 forward single #
face $-1 $7 $8 $2 $-1 $9 forward single #
loop $-1 $-1 $10 $3 #
plane-surface $-1 0 0 -25 0 0 -1 0 -1 0 forward_v I I I I #
face $-1 $11 $12 $2 $-1 $13 forward single #
loop $-1 $-1 $14 $4 #
cone-surface $-1 0 0 1.25 0 0 -1 0 -0.5 0 1 I I 0 1 0.5 forward I I I I #
coedge $-1 $15 $15 $16 $17 forward $5 $-1 #
face $-1 $18 $19 $2 $-1 $20 forward single #
loop $-1 $21 $22 $7 #
plane-surface $-1 0 0 -10 0 0 -1 0 -1 0 forward_v I I I I #
coedge $-1 $23 $24 $25 $26 forward $8 $-1 #
coedge $-1 $10 $10 $27 $28 reversed $5 $-1 #
coedge $-1 $24 $23 $10 $17 reversed $8 $-1 #
edge $-1 $29 0 $30 3.141592653589793116 $10 $31 forward 7 unknown #
face $-1 $32 $33 $2 $-1 $34 forward single #
loop $-1 $-1 $27 $11 #
cone-surface $-1 0 0 1.25 0 0 -1 0 -0.5 0 1 I I 0 1 0.5 forward I I I I #
loop $-1 $-1 $35 $7 #
coedge $-1 $25 $25 $36 $37 forward $12 $-1 #
coedge $-1 $16 $14 $38 $39 reversed $8 $-1 #
coedge $-1 $14 $16 $40 $41 forward $8 $-1 #
coedge $-1 $22 $22 $14 $26 reversed $12 $-1 #
edge $-1 $42 1.224606353822377258e-16 $43 3.141592653589793116 $14 $44 forward 7 unknown #
coedge $-1 $38 $40 $15 $28 forward $19 $-1 #
edge $-1 $29 0 $30 3.141592653589793116 $15 $45 forward 7 unknown #
vertex $-1 $28 $46 #
vertex $-1 $28 $47 #
ellipse-curve $-1 1.387778780781445676e-17 0 -25 0 0 -1 4.735252988330440616e-17 0.5 0 1 I I #
face $-1 $48 $49 $2 $-1 $50 reversed single #
loop $-1 $-1 $51 $18 #
cone-surface $-1 0 0 1.25 0 0 -1 0 -1 0 1 I I 0 1 1 forward I I I I #
coedge $-1 $52 $52 $53 $54 forward $21 $-1 #
coedge $-1 $40 $38 $22 $37 reversed $19 $-1 #
edge $-1 $42 -1.224606353822377258e-16 $43 3.141592653589793116 $22 $55 forward 7 unknown #
coedge $-1 $36 $27 $23 $39 forward $19 $-1 #
edge $-1 $30 0 $43 15 $23 $56 forward 7 unknown #
coedge $-1 $27 $36 $24 $41 reversed $19 $-1 #
edge $-1 $29 0 $42 15 $24 $57 forward 7 unknown #
vertex $-1 $41 $58 #
vertex $-1 $39 $59 #
ellipse-curve $-1 0 0 -10 0 0 -1 0 0.5 0 1 I I #
ellipse-curve $-1 -2.775557561562891351e-17 -5.551115123125782702e-17 -25 0 0 1 8.898589330674777642e-17 0.5 0 1 I I #
point $-1 6.123031769111886291e-17 0.5 -25 #
point $-1 -1.224606353822377258e-16 -0.5 -25 #
face $-1 $-1 $60 $2 $-1 $61 forward single #
loop $-1 $-1 $62 $32 #
plane-surface $-1 0 0 0 0 0 -1 0 -1 0 forward_v I I I I #
coedge $-1 $63 $64 $62 $65 forward $33 $-1 #
coedge $-1 $35 $35 $66 $67 reversed $21 $-1 #
coedge $-1 $64 $63 $35 $54 reversed $33 $-1 #
edge $-1 $68 0 $69 3.141592653589793116 $35 $70 forward 7 unknown #
ellipse-curve $-1 0 0 -10 0 0 1 0 0.5 0 1 I I #
straight-curve $-1 -1.224606353822377258e-16 -0.5 -25 0 0 1 I I #
straight-curve $-1 6.123031769111886291e-17 0.5 -25 0 0 1 I I #
point $-1 6.123031769111886291e-17 0.5 -10 #
point $-1 0 -0.5 -10 #
loop $-1 $-1 $66 $48 #
cone-surface $-1 0 0 1.25 0 0 -1 0 -1 0 1 I I 0 1 1 forward I I I I #
coedge $-1 $71 $71 $51 $65 reversed $49 $-1 #
coedge $-1 $53 $51 $72 $73 reversed $33 $-1 #
coedge $-1 $51 $53 $74 $75 forward $33 $-1 #
edge $-1 $76 1.224606353822377258e-16 $77 3.141592653589793116 $51 $78 forward 7 unknown #
coedge $-1 $72 $74 $52 $67 forward $60 $-1 #
edge $-1 $68 0 $69 3.141592653589793116 $52 $79 forward 7 unknown #
vertex $-1 $67 $80 #
vertex $-1 $67 $81 #
ellipse-curve $-1 2.775557561562891351e-17 0 -10 0 0 -1 9.470505976660881231e-17 1 0 1 I I #
coedge $-1 $62 $62 $82 $83 forward $49 $-1 #
coedge $-1 $82 $66 $63 $73 forward $60 $-1 #
edge $-1 $69 0 $77 10 $63 $84 forward 7 unknown #
coedge $-1 $66 $82 $64 $75 reversed $60 $-1 #
edge $-1 $68 0 $76 10 $64 $85 forward 7 unknown #
vertex $-1 $75 $86 #
vertex $-1 $73 $87 #
ellipse-curve $-1 0 0 0 0 0 -1 0 1 0 1 I I #
ellipse-curve $-1 -5.551115123125782702e-17 -1.11022302462515654e-16 -10 0 0 1 1.779717866134955528e-16 1 0 1 I I #
point $-1 1.224606353822377258e-16 1 -10 #
point $-1 -2.449212707644754516e-16 -1 -10 #
coedge $-1 $74 $72 $71 $83 reversed $60 $-1 #
edge $-1 $76 -1.224606353822377258e-16 $77 3.141592653589793116 $71 $88 forward 7 unknown #
straight-curve $-1 -2.449212707644754516e-16 -1 -10 0 0 1 I I #
straight-curve $-1 1.224606353822377258e-16 1 -10 0 0 1 I I #
point $-1 1.224606353822377258e-16 1 0 #
point $-1 0 -1 0 #
ellipse-curve $-1 0 0 0 0 0 1 0 1 0 1 I I #
End-of-ACIS-data 