700 0 2 0           
24 FBMach with ACIS - 7.0.3 13 ACIS 7.0.3 NT 24 Wed May 15 17:59:47 2002 
1 9.9999999999999995e-007 1e-010 
body $2 -1 $-1 $3 $-1 $4 #
bdycol-kcp $-1 -1 1 3 $5 $6 $7 #
model_id-kcp-attrib $-1 -1 $-1 $-1 $0 1 1021499987 1021499987 2060058625 1 #
lump $-1 -1 $-1 $-1 $8 $0 #
transform $-1 -1 1 0 0 0 1 0 0 0 1 0 0 0 1 rotate no_reflect no_shear #
body $9 -1 $-1 $10 $-1 $11 #
body $12 -1 $-1 $13 $-1 $14 #
body $15 -1 $-1 $16 $-1 $17 #
shell $-1 -1 $-1 $-1 $-1 $18 $-1 $3 #
rgb_color-st-attrib $-1 -1 $19 $-1 $5 0.5 1 1 #
lump $-1 -1 $-1 $-1 $20 $5 #
transform $-1 -1 1 0 0 0 1 0 0 0 1 0 0 -12.5 1 no_rotate no_reflect no_shear #
rgb_color-st-attrib $-1 -1 $21 $-1 $6 1 0.5 1 #
lump $-1 -1 $-1 $-1 $22 $6 #
transform $-1 -1 1 0 0 0 1 0 0 0 1 0 0 -12.5 1 no_rotate no_reflect no_shear #
model_id-kcp-attrib $-1 -1 $-1 $-1 $7 1 1021499987 1021499987 2060058626 1 #
lump $-1 -1 $-1 $-1 $23 $7 #
transform $-1 -1 1 0 0 0 1 0 0 0 1 0 0 -12.5 1 no_rotate no_reflect no_shear #
face $24 -1 $-1 $25 $26 $8 $-1 $27 forward single #
model_id-kcp-attrib $-1 -1 $-1 $9 $5 1 1021499987 1021499987 2050490371 1 #
shell $-1 -1 $-1 $-1 $-1 $28 $-1 $10 #
model_id-kcp-attrib $-1 -1 $-1 $12 $6 1 1021499987 1021499987 2059665412 1 #
shell $-1 -1 $-1 $-1 $-1 $29 $-1 $13 #
shell $-1 -1 $-1 $-1 $-1 $30 $-1 $16 #
model_id-kcp-attrib $-1 -1 $-1 $-1 $18 1 1021499987 1021499987 2060058625 2 #
face $31 -1 $-1 $32 $33 $8 $-1 $34 forward single #
loop $-1 -1 $-1 $-1 $35 $18 #
plane-surface $-1 -1 $-1 0 0 -25 0 0 -1 0 -1 0 forward_v I I I I #
face $-1 -1 $-1 $36 $37 $20 $-1 $38 reversed single #
face $-1 -1 $-1 $39 $40 $22 $-1 $41 forward single #
face $42 -1 $-1 $43 $44 $23 $-1 $45 forward single #
model_id-kcp-attrib $-1 -1 $-1 $-1 $25 1 1021499987 1021499987 2060058625 3 #
face $46 -1 $-1 $47 $48 $8 $-1 $49 forward single #
loop $-1 -1 $-1 $-1 $50 $25 #
cone-surface $-1 -1 $-1 0 0 1.25 0 0 -1 0 -0.5 0 1 I I 0 1 0.5 forward I I I I #
coedge $-1 -1 $-1 $51 $51 $52 $53 forward $26 $-1 #
face $-1 -1 $-1 $54 $55 $20 $-1 $38 reversed single #
loop $-1 -1 $-1 $-1 $56 $28 #
cone-surface $-1 -1 $-1 0 0 -12.5 0 0 -1 1.2246063538223773e-016 1 0 1 I I 0 1 1 forward I I I I #
face $-1 -1 $-1 $57 $58 $22 $-1 $59 forward single #
loop $-1 -1 $-1 $60 $61 $29 #
cone-surface $-1 -1 $-1 0 0 2.5 0 0 -1 0 -0.5 0 1 I I 0 -1 0.5 forward I I I I #
model_id-kcp-attrib $-1 -1 $-1 $-1 $30 1 1021499987 1021499987 2060058626 3 #
face $62 -1 $-1 $63 $64 $23 $-1 $65 reversed single #
loop $-1 -1 $-1 $-1 $66 $30 #
plane-surface $-1 -1 $-1 0 0 12.5 0 0 1 1 0 0 forward_v I I I I #
model_id-kcp-attrib $-1 -1 $-1 $-1 $32 1 1021499987 1021499987 2060058625 4 #
face $67 -1 $-1 $68 $69 $8 $-1 $70 forward single #
loop $-1 -1 $-1 $71 $72 $32 #
plane-surface $-1 -1 $-1 0 0 -10 0 0 -1 0 -1 0 forward_v I I I I #
coedge $-1 -1 $-1 $73 $74 $75 $76 forward $33 $-1 #
coedge $-1 -1 $-1 $35 $35 $77 $78 reversed $26 $-1 #
coedge $-1 -1 $-1 $74 $73 $35 $53 reversed $33 $-1 #
edge $79 -1 $-1 $80 0 $81 3.1415926535897931 $35 $82 forward @7 unknown #
face $-1 -1 $-1 $83 $84 $20 $-1 $38 reversed single #
loop $-1 -1 $-1 $-1 $85 $36 #
coedge $-1 -1 $-1 $86 $87 $88 $89 forward $37 $-1 #
face $-1 -1 $-1 $90 $91 $22 $-1 $92 reversed single #
loop $-1 -1 $-1 $93 $94 $39 #
cone-surface $-1 -1 $-1 0 0 2.5 0 0 -1 1.2246063538223773e-016 1 0 1 I I 0 1 1 forward I I I I #
loop $-1 -1 $-1 $-1 $95 $29 #
coedge $-1 -1 $-1 $61 $61 $96 $97 forward $40 $-1 #
model_id-kcp-attrib $-1 -1 $-1 $-1 $43 1 1021499987 1021499987 2060058626 2 #
face $-1 -1 $-1 $98 $99 $23 $-1 $100 reversed single #
loop $-1 -1 $-1 $-1 $101 $43 #
plane-surface $-1 -1 $-1 0 0 -12.5 0 0 1 1 0 0 forward_v I I I I #
coedge $-1 -1 $-1 $102 $103 $104 $105 forward $44 $-1 #
model_id-kcp-attrib $-1 -1 $-1 $-1 $47 1 1021499987 1021499987 2060058625 5 #
face $106 -1 $-1 $107 $108 $8 $-1 $109 forward single #
loop $-1 -1 $-1 $-1 $77 $47 #
cone-surface $-1 -1 $-1 0 0 1.25 0 0 -1 0 -0.5 0 1 I I 0 1 0.5 forward I I I I #
loop $-1 -1 $-1 $-1 $110 $32 #
coedge $-1 -1 $-1 $75 $75 $111 $112 forward $48 $-1 #
coedge $-1 -1 $-1 $52 $50 $113 $114 reversed $33 $-1 #
coedge $-1 -1 $-1 $50 $52 $115 $116 forward $33 $-1 #
coedge $-1 -1 $-1 $72 $72 $50 $76 reversed $48 $-1 #
edge $117 -1 $-1 $118 1.2246063538223773e-016 $119 3.1415926535897931 $50 $120 forward @7 unknown #
coedge $-1 -1 $-1 $113 $115 $51 $78 forward $69 $-1 #
edge $121 -1 $-1 $80 0 $81 3.1415926535897931 $51 $122 forward @7 unknown #
attrib_edge_convexity-kcp-attrib $-1 -1 $123 $-1 $53 1 #
vertex $-1 -1 $-1 $78 $124 #
vertex $-1 -1 $-1 $78 $125 #
ellipse-curve $-1 -1 $-1 1.3877787807814457e-017 0 -25 0 0 -1 4.7352529883304406e-017 0.5 0 1 I I #
face $-1 -1 $-1 $126 $127 $20 $-1 $38 reversed single #
loop $-1 -1 $-1 $-1 $128 $54 #
coedge $-1 -1 $-1 $129 $88 $130 $131 reversed $55 $-1 #
coedge $-1 -1 $-1 $132 $56 $133 $134 reversed $37 $-1 #
coedge $-1 -1 $-1 $56 $132 $135 $136 reversed $37 $-1 #
coedge $-1 -1 $-1 $85 $137 $138 $89 reversed $55 $-1 #
edge $-1 -1 $-1 $139 -25 $140 0 $138 $141 forward @7 unknown #
face $-1 -1 $-1 $-1 $142 $22 $-1 $143 forward single #
loop $-1 -1 $-1 $144 $145 $57 #
plane-surface $-1 -1 $-1 -1.3877787807814457e-017 -0.060606060606060559 -12.5 0 0 1 1 0 0 forward_v I I I I #
loop $-1 -1 $-1 $-1 $146 $39 #
coedge $-1 -1 $-1 $94 $94 $145 $147 forward $58 $-1 #
coedge $-1 -1 $-1 $95 $95 $148 $149 reversed $60 $-1 #
coedge $-1 -1 $-1 $96 $96 $61 $97 reversed $144 $-1 #
edge $-1 -1 $-1 $150 -3.1415926535897931 $150 3.1415926535897931 $61 $151 forward @7 unknown #
face $-1 -1 $-1 $152 $153 $23 $-1 $154 reversed single #
loop $-1 -1 $-1 $-1 $155 $63 #
plane-surface $-1 -1 $-1 0 -1 0 0 1 0 0 0 1 forward_v I I I I #
coedge $-1 -1 $-1 $156 $157 $158 $159 forward $64 $-1 #
coedge $-1 -1 $-1 $160 $66 $161 $162 forward $44 $-1 #
coedge $-1 -1 $-1 $66 $160 $163 $164 forward $44 $-1 #
coedge $-1 -1 $-1 $165 $166 $66 $105 reversed $167 $-1 #
edge $-1 -1 $-1 $168 -1 $169 1 $104 $170 forward @7 unknown #
model_id-kcp-attrib $-1 -1 $-1 $-1 $68 1 1021499987 1021499987 2060058625 6 #
face $171 -1 $-1 $172 $173 $8 $-1 $174 reversed single #
loop $-1 -1 $-1 $-1 $175 $68 #
cone-surface $-1 -1 $-1 0 0 1.25 0 0 -1 0 -1 0 1 I I 0 1 1 forward I I I I #
coedge $-1 -1 $-1 $176 $176 $177 $178 forward $71 $-1 #
coedge $-1 -1 $-1 $115 $113 $72 $112 reversed $69 $-1 #
edge $179 -1 $-1 $118 -1.2246063538223773e-016 $119 3.1415926535897931 $72 $180 forward @7 unknown #
coedge $-1 -1 $-1 $111 $77 $73 $114 forward $69 $-1 #
edge $-1 -1 $-1 $81 0 $119 15 $73 $181 forward @7 unknown #
coedge $-1 -1 $-1 $77 $111 $74 $116 reversed $69 $-1 #
edge $-1 -1 $-1 $80 0 $118 15 $74 $182 forward @7 unknown #
attrib_edge_convexity-kcp-attrib $-1 -1 $183 $-1 $76 2 #
vertex $-1 -1 $-1 $116 $184 #
vertex $-1 -1 $-1 $114 $185 #
ellipse-curve $-1 -1 $-1 0 0 -10 0 0 -1 0 0.5 0 1 I I #
attrib_edge_convexity-kcp-attrib $-1 -1 $186 $-1 $78 1 #
ellipse-curve $-1 -1 $-1 -2.7755575615628914e-017 -5.5511151231257827e-017 -25 0 0 1 8.8985893306747776e-017 0.5 0 1 I I #
convexity-sys-attrib $-1 -1 $-1 $79 $53 #
point $-1 -1 $-1 6.1230317691118863e-017 0.5 -25 #
point $-1 -1 $-1 -1.2246063538223773e-016 -0.5 -25 #
face $-1 -1 $-1 $187 $188 $20 $-1 $189 reversed single #
loop $-1 -1 $-1 $-1 $190 $83 #
coedge $-1 -1 $-1 $191 $192 $193 $194 reversed $84 $-1 #
coedge $-1 -1 $-1 $137 $85 $195 $196 forward $55 $-1 #
coedge $-1 -1 $-1 $197 $198 $85 $131 forward $199 $-1 #
edge $-1 -1 $-1 $200 -3.1415926535897931 $139 -1.5707963267948968 $130 $201 forward @7 unknown #
coedge $-1 -1 $-1 $87 $86 $202 $203 reversed $37 $-1 #
coedge $-1 -1 $-1 $204 $205 $86 $134 forward $206 $-1 #
edge $-1 -1 $-1 $207 1.2246063538223773e-016 $140 1.5707963267948968 $133 $208 forward @7 unknown #
coedge $-1 -1 $-1 $209 $210 $87 $136 forward $211 $-1 #
edge $-1 -1 $-1 $139 -1.5707963267948968 $212 -1.2246063538223773e-016 $135 $201 forward @7 unknown #
coedge $-1 -1 $-1 $88 $129 $213 $214 reversed $55 $-1 #
coedge $-1 -1 $-1 $215 $216 $217 $89 forward $218 $-1 #
vertex $-1 -1 $-1 $219 $220 #
vertex $-1 -1 $-1 $221 $222 #
straight-curve $-1 -1 $-1 -1 0 -12.5 0 0 -1 I I #
loop $-1 -1 $-1 $223 $224 $90 #
plane-surface $-1 -1 $-1 -1.3877787807814457e-017 -0.060606060606060559 2.4999999999999996 0 0 1 1 0 0 forward_v I I I I #
loop $-1 -1 $-1 $-1 $96 $57 #
coedge $-1 -1 $-1 $145 $145 $94 $147 reversed $91 $-1 #
coedge $-1 -1 $-1 $146 $146 $224 $225 reversed $93 $-1 #
edge $-1 -1 $-1 $226 -3.1415926535897931 $226 3.1415926535897931 $94 $227 forward @7 unknown #
coedge $-1 -1 $-1 $148 $148 $95 $149 forward $223 $-1 #
edge $228 -1 $-1 $229 0 $229 6.2831853071795862 $95 $230 forward @7 unknown #
vertex $-1 -1 $-1 $97 $231 #
ellipse-curve $-1 -1 $-1 0 0 -12.5 0 0 -1 0 -0.5 0 1 I I #
face $-1 -1 $-1 $232 $233 $23 $-1 $234 reversed single #
loop $-1 -1 $-1 $-1 $235 $98 #
plane-surface $-1 -1 $-1 -1 0 0 1 0 0 0 0 -1 forward_v I I I I #
coedge $-1 -1 $-1 $236 $163 $237 $238 forward $99 $-1 #
coedge $-1 -1 $-1 $239 $101 $236 $240 forward $64 $-1 #
coedge $-1 -1 $-1 $101 $239 $241 $242 forward $64 $-1 #
coedge $-1 -1 $-1 $166 $165 $101 $159 reversed $167 $-1 #
edge $-1 -1 $-1 $243 -1 $244 1 $158 $245 forward @7 unknown #
coedge $-1 -1 $-1 $103 $102 $246 $247 forward $44 $-1 #
coedge $-1 -1 $-1 $248 $249 $102 $162 reversed $233 $-1 #
edge $-1 -1 $-1 $169 -1 $250 1 $161 $251 forward @7 unknown #
coedge $-1 -1 $-1 $155 $252 $103 $164 reversed $99 $-1 #
edge $-1 -1 $-1 $253 -1 $168 1 $163 $254 forward @7 unknown #
coedge $-1 -1 $-1 $158 $104 $252 $255 forward $167 $-1 #
coedge $-1 -1 $-1 $104 $158 $248 $256 reversed $167 $-1 #
loop $-1 -1 $-1 $-1 $165 $232 #
vertex $-1 -1 $-1 $105 $257 #
vertex $-1 -1 $-1 $105 $258 #
straight-curve $-1 -1 $-1 1 0 12.5 0 1 0 I I #
model_id-kcp-attrib $-1 -1 $-1 $-1 $107 1 1021499987 1021499987 2060058625 7 #
face $259 -1 $-1 $-1 $260 $8 $-1 $261 forward single #
loop $-1 -1 $-1 $-1 $262 $107 #
plane-surface $-1 -1 $-1 0 0 0 0 0 -1 0 -1 0 forward_v I I I I #
coedge $-1 -1 $-1 $263 $264 $262 $265 forward $108 $-1 #
coedge $-1 -1 $-1 $110 $110 $266 $267 reversed $71 $-1 #
coedge $-1 -1 $-1 $264 $263 $110 $178 reversed $108 $-1 #
edge $268 -1 $-1 $269 0 $270 3.1415926535897931 $110 $271 forward @7 unknown #
attrib_edge_convexity-kcp-attrib $-1 -1 $272 $-1 $112 2 #
ellipse-curve $-1 -1 $-1 0 0 -10 0 0 1 0 0.5 0 1 I I #
straight-curve $-1 -1 $-1 -1.2246063538223773e-016 -0.5 -25 0 0 1 I I #
straight-curve $-1 -1 $-1 6.1230317691118863e-017 0.5 -25 0 0 1 I I #
convexity-sys-attrib $-1 -1 $-1 $117 $76 #
point $-1 -1 $-1 6.1230317691118863e-017 0.5 -10 #
point $-1 -1 $-1 0 -0.5 -10 #
convexity-sys-attrib $-1 -1 $-1 $121 $78 #
face $-1 -1 $-1 $273 $218 $20 $-1 $274 reversed single #
loop $-1 -1 $-1 $-1 $202 $126 #
plane-surface $-1 -1 $-1 0 1 0 0 -1 0 0 0 -1 forward_v I I I I #
coedge $-1 -1 $-1 $195 $275 $276 $277 reversed $127 $-1 #
coedge $-1 -1 $-1 $278 $128 $279 $280 reversed $84 $-1 #
coedge $-1 -1 $-1 $128 $278 $132 $203 forward $84 $-1 #
coedge $-1 -1 $-1 $281 $282 $128 $194 forward $283 $-1 #
edge $-1 -1 $-1 $284 -1.5707963267948966 $207 1.2246063538223773e-016 $193 $208 forward @7 unknown #
coedge $-1 -1 $-1 $285 $190 $286 $196 reversed $127 $-1 #
edge $-1 -1 $-1 $200 -25 $287 0 $286 $288 forward @7 unknown #
coedge $-1 -1 $-1 $198 $130 $216 $219 forward $199 $-1 #
coedge $-1 -1 $-1 $130 $197 $289 $290 forward $199 $-1 #
loop $-1 -1 $-1 $-1 $130 $291 #
vertex $-1 -1 $-1 $292 $293 #
ellipse-curve $-1 -1 $-1 0 0 12.5 0 0 -1 1.2246063538223773e-016 1 0 1 I I #
coedge $-1 -1 $-1 $294 $295 $296 $203 forward $188 $-1 #
edge $-1 -1 $-1 $212 -25 $207 0 $202 $297 forward @7 unknown #
coedge $-1 -1 $-1 $205 $133 $298 $221 forward $206 $-1 #
coedge $-1 -1 $-1 $133 $204 $294 $299 forward $206 $-1 #
loop $-1 -1 $-1 $-1 $133 $300 #
vertex $-1 -1 $-1 $301 $302 #
ellipse-curve $-1 -1 $-1 0 0 -12.5 0 0 1 1.2246063538223773e-016 1 0 1 I I #
coedge $-1 -1 $-1 $210 $135 $295 $303 forward $211 $-1 #
coedge $-1 -1 $-1 $135 $209 $304 $305 forward $211 $-1 #
loop $-1 -1 $-1 $-1 $135 $306 #
vertex $-1 -1 $-1 $303 $307 #
coedge $-1 -1 $-1 $308 $309 $137 $214 forward $310 $-1 #
edge $-1 -1 $-1 $140 1.5707963267948968 $287 3.1415926535897931 $213 $208 forward @7 unknown #
coedge $-1 -1 $-1 $311 $138 $309 $312 reversed $218 $-1 #
coedge $-1 -1 $-1 $138 $311 $197 $219 reversed $218 $-1 #
coedge $-1 -1 $-1 $304 $298 $56 $89 reversed $313 $-1 #
loop $-1 -1 $-1 $-1 $138 $187 #
edge $-1 -1 $-1 $139 0 $314 1 $216 $315 forward @7 unknown #
point $-1 -1 $-1 -1 0 12.5 #
edge $-1 -1 $-1 $140 0 $316 1 $298 $317 forward @7 unknown #
point $-1 -1 $-1 -1 0 -12.5 #
loop $-1 -1 $-1 $-1 $148 $90 #
coedge $-1 -1 $-1 $224 $224 $146 $225 forward $142 $-1 #
edge $318 -1 $-1 $319 -3.1415926535897931 $319 3.1415926535897931 $146 $320 forward @7 unknown #
vertex $-1 -1 $-1 $147 $321 #
ellipse-curve $-1 -1 $-1 0 0 -12.5 0 0 1 1.2246063538223773e-016 1 0 1 I I #
convexity-sys-attrib $-1 -1 $-1 $-1 $149 #
vertex $-1 -1 $-1 $149 $322 #
ellipse-curve $-1 -1 $-1 0 0 2.5 0 0 -1 0 -0.5 0 1 I I #
point $-1 -1 $-1 6.1230317691118863e-017 0.5 -12.5 #
face $-1 -1 $-1 $-1 $167 $23 $-1 $323 reversed single #
loop $-1 -1 $-1 $-1 $248 $152 #
plane-surface $-1 -1 $-1 0 1 0 0 -1 0 0 0 -1 forward_v I I I I #
coedge $-1 -1 $-1 $324 $246 $249 $325 forward $153 $-1 #
coedge $-1 -1 $-1 $252 $155 $156 $240 reversed $99 $-1 #
coedge $-1 -1 $-1 $246 $324 $155 $238 reversed $153 $-1 #
edge $-1 -1 $-1 $253 -12.5 $326 12.5 $237 $327 forward @7 unknown #
coedge $-1 -1 $-1 $157 $156 $324 $328 forward $64 $-1 #
edge $-1 -1 $-1 $244 -1 $326 1 $236 $329 forward @7 unknown #
coedge $-1 -1 $-1 $249 $248 $157 $242 reversed $233 $-1 #
edge $-1 -1 $-1 $330 -1 $243 1 $241 $331 forward @7 unknown #
vertex $-1 -1 $-1 $159 $332 #
vertex $-1 -1 $-1 $255 $333 #
straight-curve $-1 -1 $-1 1 0 -12.5 0 -1 0 I I #
coedge $-1 -1 $-1 $235 $237 $160 $247 reversed $153 $-1 #
edge $-1 -1 $-1 $250 -1 $253 1 $246 $334 forward @7 unknown #
coedge $-1 -1 $-1 $241 $161 $166 $256 forward $233 $-1 #
coedge $-1 -1 $-1 $161 $241 $235 $325 reversed $233 $-1 #
vertex $-1 -1 $-1 $162 $335 #
straight-curve $-1 -1 $-1 0 1 12.5 -1 0 0 I I #
coedge $-1 -1 $-1 $163 $236 $165 $255 reversed $99 $-1 #
vertex $-1 -1 $-1 $247 $336 #
straight-curve $-1 -1 $-1 0 -1 12.5 1 0 0 I I #
edge $-1 -1 $-1 $168 -12.5 $244 12.5 $165 $337 forward @7 unknown #
edge $-1 -1 $-1 $169 -12.5 $243 12.5 $166 $338 forward @7 unknown #
point $-1 -1 $-1 1 -1 12.5 #
point $-1 -1 $-1 1 1 12.5 #
model_id-kcp-attrib $-1 -1 $-1 $-1 $172 1 1021499987 1021499987 2060058625 8 #
loop $-1 -1 $-1 $-1 $266 $172 #
cone-surface $-1 -1 $-1 0 0 1.25 0 0 -1 0 -1 0 1 I I 0 1 1 forward I I I I #
coedge $-1 -1 $-1 $339 $339 $175 $265 reversed $173 $-1 #
coedge $-1 -1 $-1 $177 $175 $340 $341 reversed $108 $-1 #
coedge $-1 -1 $-1 $175 $177 $342 $343 forward $108 $-1 #
edge $-1 -1 $-1 $344 1.2246063538223773e-016 $345 3.1415926535897931 $175 $346 forward @7 unknown #
coedge $-1 -1 $-1 $340 $342 $176 $267 forward $260 $-1 #
edge $347 -1 $-1 $269 0 $270 3.1415926535897931 $176 $348 forward @7 unknown #
attrib_edge_convexity-kcp-attrib $-1 -1 $349 $-1 $178 1 #
vertex $-1 -1 $-1 $267 $350 #
vertex $-1 -1 $-1 $267 $351 #
ellipse-curve $-1 -1 $-1 2.7755575615628914e-017 0 -10 0 0 -1 9.4705059766608812e-017 1 0 1 I I #
convexity-sys-attrib $-1 -1 $-1 $179 $112 #
face $-1 -1 $-1 $352 $353 $20 $-1 $354 reversed single #
plane-surface $-1 -1 $-1 -1 0 0 1 0 0 0 0 -1 forward_v I I I I #
coedge $-1 -1 $-1 $190 $285 $191 $280 forward $127 $-1 #
coedge $-1 -1 $-1 $355 $356 $190 $277 forward $357 $-1 #
edge $-1 -1 $-1 $287 -3.1415926535897931 $284 -1.5707963267948966 $276 $208 forward @7 unknown #
coedge $-1 -1 $-1 $192 $191 $358 $359 reversed $84 $-1 #
coedge $-1 -1 $-1 $360 $361 $362 $280 forward $363 $-1 #
edge $-1 -1 $-1 $364 -25 $284 0 $279 $365 forward @7 unknown #
coedge $-1 -1 $-1 $282 $193 $366 $301 forward $283 $-1 #
coedge $-1 -1 $-1 $193 $281 $360 $367 forward $283 $-1 #
loop $-1 -1 $-1 $-1 $193 $368 #
vertex $-1 -1 $-1 $369 $370 #
coedge $-1 -1 $-1 $275 $195 $371 $372 reversed $127 $-1 #
coedge $-1 -1 $-1 $373 $374 $375 $196 forward $353 $-1 #
vertex $-1 -1 $-1 $376 $377 #
straight-curve $-1 -1 $-1 0 -1 -12.5 0 0 -1 I I #
coedge $-1 -1 $-1 $378 $375 $198 $290 reversed $379 $-1 #
edge $-1 -1 $-1 $314 -1 $200 0 $289 $380 forward @7 unknown #
face $-1 -1 $-1 $306 $199 $20 $-1 $381 forward single #
edge $-1 -1 $-1 $200 0 $382 1 $374 $380 forward @7 unknown #
point $-1 -1 $-1 0 -1 12.5 #
coedge $-1 -1 $-1 $383 $202 $205 $299 reversed $188 $-1 #
coedge $-1 -1 $-1 $202 $383 $209 $303 reversed $188 $-1 #
coedge $-1 -1 $-1 $384 $366 $192 $203 reversed $385 $-1 #
straight-curve $-1 -1 $-1 0 1 -12.5 0 0 -1 I I #
coedge $-1 -1 $-1 $217 $386 $204 $221 reversed $313 $-1 #
edge $-1 -1 $-1 $316 -1 $207 0 $294 $387 forward @7 unknown #
face $-1 -1 $-1 $388 $206 $20 $-1 $389 reversed single #
edge $-1 -1 $-1 $207 0 $390 1 $366 $387 forward @7 unknown #
point $-1 -1 $-1 0 1 -12.5 #
edge $-1 -1 $-1 $212 0 $391 1 $295 $392 forward @7 unknown #
coedge $-1 -1 $-1 $386 $217 $210 $305 reversed $313 $-1 #
edge $-1 -1 $-1 $391 -1 $139 0 $304 $315 forward @7 unknown #
face $-1 -1 $-1 $393 $211 $20 $-1 $381 forward single #
point $-1 -1 $-1 0 1 12.5 #
coedge $-1 -1 $-1 $309 $213 $394 $376 forward $310 $-1 #
coedge $-1 -1 $-1 $213 $308 $215 $312 forward $310 $-1 #
loop $-1 -1 $-1 $-1 $213 $388 #
coedge $-1 -1 $-1 $216 $215 $378 $395 reversed $218 $-1 #
edge $-1 -1 $-1 $396 -1 $140 0 $215 $317 forward @7 unknown #
loop $-1 -1 $-1 $-1 $217 $397 #
vertex $-1 -1 $-1 $219 $398 #
straight-curve $-1 -1 $-1 -1 0 12.5 0 -1 0 I I #
vertex $-1 -1 $-1 $299 $399 #
straight-curve $-1 -1 $-1 -1 0 -12.5 0 1 0 I I #
convexity-sys-attrib $-1 -1 $-1 $-1 $225 #
vertex $-1 -1 $-1 $225 $400 #
ellipse-curve $-1 -1 $-1 0 0 2.5 0 0 1 1.2246063538223773e-016 1 0 1 I I #
point $-1 -1 $-1 0 -1 -12.5 #
point $-1 -1 $-1 0 -0.5 2.5 #
plane-surface $-1 -1 $-1 1 0 0 -1 0 0 0 0 1 forward_v I I I I #
coedge $-1 -1 $-1 $237 $235 $239 $328 reversed $153 $-1 #
edge $-1 -1 $-1 $250 -12.5 $330 12.5 $249 $401 forward @7 unknown #
vertex $-1 -1 $-1 $328 $402 #
straight-curve $-1 -1 $-1 -1 -1 0 0 0 -1 I I #
edge $-1 -1 $-1 $326 -1 $330 1 $324 $403 forward @7 unknown #
straight-curve $-1 -1 $-1 0 -1 -12.5 -1 0 0 I I #
vertex $-1 -1 $-1 $242 $404 #
straight-curve $-1 -1 $-1 0 1 -12.5 1 0 0 I I #
point $-1 -1 $-1 1 1 -12.5 #
point $-1 -1 $-1 1 -1 -12.5 #
straight-curve $-1 -1 $-1 -1 0 12.5 0 -1 0 I I #
point $-1 -1 $-1 -1 1 12.5 #
point $-1 -1 $-1 -1 -1 12.5 #
straight-curve $-1 -1 $-1 1 -1 0 0 0 -1 I I #
straight-curve $-1 -1 $-1 1 1 0 0 0 -1 I I #
coedge $-1 -1 $-1 $262 $262 $405 $406 forward $173 $-1 #
coedge $-1 -1 $-1 $405 $266 $263 $341 forward $260 $-1 #
edge $-1 -1 $-1 $270 0 $345 10 $263 $407 forward @7 unknown #
coedge $-1 -1 $-1 $266 $405 $264 $343 reversed $260 $-1 #
edge $-1 -1 $-1 $269 0 $344 10 $264 $408 forward @7 unknown #
vertex $-1 -1 $-1 $343 $409 #
vertex $-1 -1 $-1 $341 $410 #
ellipse-curve $-1 -1 $-1 0 0 0 0 0 -1 0 1 0 1 I I #
attrib_edge_convexity-kcp-attrib $-1 -1 $411 $-1 $267 1 #
ellipse-curve $-1 -1 $-1 -5.5511151231257827e-017 -1.1102230246251565e-016 -10 0 0 1 1.7797178661349555e-016 1 0 1 I I #
convexity-sys-attrib $-1 -1 $-1 $268 $178 #
point $-1 -1 $-1 1.2246063538223773e-016 1 -10 #
point $-1 -1 $-1 -2.4492127076447545e-016 -1 -10 #
face $-1 -1 $-1 $291 $412 $20 $-1 $381 forward single #
loop $-1 -1 $-1 $-1 $286 $273 #
plane-surface $-1 -1 $-1 0 -1 0 0 1 0 0 0 1 forward_v I I I I #
coedge $-1 -1 $-1 $356 $276 $413 $369 forward $357 $-1 #
coedge $-1 -1 $-1 $276 $355 $373 $414 forward $357 $-1 #
loop $-1 -1 $-1 $-1 $276 $415 #
coedge $-1 -1 $-1 $416 $417 $278 $359 forward $418 $-1 #
edge $-1 -1 $-1 $212 -1.2246063538223773e-016 $364 1.5707963267948966 $358 $201 forward @7 unknown #
coedge $-1 -1 $-1 $419 $279 $282 $367 reversed $363 $-1 #
coedge $-1 -1 $-1 $279 $419 $416 $420 reversed $363 $-1 #
coedge $-1 -1 $-1 $421 $413 $275 $280 reversed $422 $-1 #
loop $-1 -1 $-1 $-1 $279 $423 #
vertex $-1 -1 $-1 $420 $424 #
straight-curve $-1 -1 $-1 1 0 -12.5 0 0 -1 I I #
coedge $-1 -1 $-1 $296 $425 $281 $301 reversed $385 $-1 #
edge $-1 -1 $-1 $390 -1 $284 0 $360 $426 forward @7 unknown #
face $-1 -1 $-1 $300 $283 $20 $-1 $389 reversed single #
edge $-1 -1 $-1 $284 0 $427 1 $413 $426 forward @7 unknown #
point $-1 -1 $-1 1 0 -12.5 #
coedge $-1 -1 $-1 $428 $429 $285 $372 forward $412 $-1 #
edge $-1 -1 $-1 $364 1.5707963267948966 $200 3.1415926535897931 $371 $201 forward @7 unknown #
coedge $-1 -1 $-1 $430 $286 $356 $414 reversed $353 $-1 #
coedge $-1 -1 $-1 $286 $430 $428 $292 reversed $353 $-1 #
coedge $-1 -1 $-1 $289 $394 $129 $196 reversed $379 $-1 #
edge $-1 -1 $-1 $287 0 $396 1 $394 $431 forward @7 unknown #
point $-1 -1 $-1 0 -1 -12.5 #
coedge $-1 -1 $-1 $394 $289 $311 $395 forward $379 $-1 #
loop $-1 -1 $-1 $-1 $375 $432 #
straight-curve $-1 -1 $-1 0 -1 12.5 1 0 0 I I #
plane-surface $-1 -1 $-1 0 0 12.5 0 0 1 1 0 0 forward_v I I I I #
vertex $-1 -1 $-1 $433 $434 #
coedge $-1 -1 $-1 $295 $294 $386 $435 reversed $188 $-1 #
coedge $-1 -1 $-1 $425 $296 $417 $436 reversed $385 $-1 #
loop $-1 -1 $-1 $-1 $296 $437 #
coedge $-1 -1 $-1 $298 $304 $383 $435 forward $313 $-1 #
straight-curve $-1 -1 $-1 0 1 -12.5 1 0 0 I I #
face $-1 -1 $-1 $432 $310 $20 $-1 $389 reversed single #
plane-surface $-1 -1 $-1 0 0 -12.5 0 0 1 1 0 0 forward_v I I I I #
vertex $-1 -1 $-1 $367 $438 #
vertex $-1 -1 $-1 $303 $439 #
straight-curve $-1 -1 $-1 0 1 12.5 -1 0 0 I I #
face $-1 -1 $-1 $423 $418 $20 $-1 $381 forward single #
coedge $-1 -1 $-1 $375 $378 $308 $376 reversed $379 $-1 #
edge $-1 -1 $-1 $314 -12.5 $396 12.5 $311 $440 forward @7 unknown #
vertex $-1 -1 $-1 $312 $441 #
face $-1 -1 $-1 $437 $313 $20 $-1 $274 reversed single #
point $-1 -1 $-1 -1 -1 12.5 #
point $-1 -1 $-1 -1 1 -12.5 #
point $-1 -1 $-1 0 -1 2.5 #
straight-curve $-1 -1 $-1 -1 1 0 0 0 -1 I I #
point $-1 -1 $-1 -1 -1 -12.5 #
straight-curve $-1 -1 $-1 -1 0 -12.5 0 1 0 I I #
point $-1 -1 $-1 -1 1 -12.5 #
coedge $-1 -1 $-1 $342 $340 $339 $406 reversed $260 $-1 #
edge $-1 -1 $-1 $344 -1.2246063538223773e-016 $345 3.1415926535897931 $339 $442 forward @7 unknown #
straight-curve $-1 -1 $-1 -2.4492127076447545e-016 -1 -10 0 0 1 I I #
straight-curve $-1 -1 $-1 1.2246063538223773e-016 1 -10 0 0 1 I I #
point $-1 -1 $-1 1.2246063538223773e-016 1 0 #
point $-1 -1 $-1 0 -1 0 #
convexity-sys-attrib $-1 -1 $-1 $347 $267 #
loop $-1 -1 $-1 $-1 $371 $352 #
coedge $-1 -1 $-1 $362 $443 $355 $369 reversed $422 $-1 #
edge $-1 -1 $-1 $427 -1 $287 0 $373 $431 forward @7 unknown #
face $-1 -1 $-1 $368 $357 $20 $-1 $389 reversed single #
coedge $-1 -1 $-1 $417 $358 $361 $420 forward $418 $-1 #
coedge $-1 -1 $-1 $358 $416 $384 $436 forward $418 $-1 #
loop $-1 -1 $-1 $-1 $358 $393 #
coedge $-1 -1 $-1 $361 $360 $425 $444 reversed $363 $-1 #
edge $-1 -1 $-1 $364 0 $445 1 $361 $446 forward @7 unknown #
coedge $-1 -1 $-1 $443 $362 $429 $433 reversed $422 $-1 #
loop $-1 -1 $-1 $-1 $362 $447 #
face $-1 -1 $-1 $415 $363 $20 $-1 $448 reversed single #
point $-1 -1 $-1 1 0 12.5 #
coedge $-1 -1 $-1 $366 $384 $419 $444 forward $385 $-1 #
straight-curve $-1 -1 $-1 1 0 -12.5 0 -1 0 I I #
vertex $-1 -1 $-1 $449 $450 #
coedge $-1 -1 $-1 $429 $371 $374 $292 forward $412 $-1 #
coedge $-1 -1 $-1 $371 $428 $421 $433 forward $412 $-1 #
coedge $-1 -1 $-1 $374 $373 $443 $449 reversed $353 $-1 #
straight-curve $-1 -1 $-1 0 -1 -12.5 -1 0 0 I I #
face $-1 -1 $-1 $397 $379 $20 $-1 $354 reversed single #
edge $-1 -1 $-1 $382 -1 $364 0 $421 $446 forward @7 unknown #
point $-1 -1 $-1 1 -1 12.5 #
edge $-1 -1 $-1 $391 -12.5 $316 12.5 $383 $451 forward @7 unknown #
edge $-1 -1 $-1 $445 -1 $212 0 $384 $392 forward @7 unknown #
face $-1 -1 $-1 $447 $385 $20 $-1 $189 reversed single #
point $-1 -1 $-1 1 1 -12.5 #
point $-1 -1 $-1 -1 1 12.5 #
straight-curve $-1 -1 $-1 -1 -1 0 0 0 -1 I I #
point $-1 -1 $-1 -1 -1 -12.5 #
ellipse-curve $-1 -1 $-1 0 0 0 0 0 1 0 1 0 1 I I #
coedge $-1 -1 $-1 $413 $421 $430 $449 forward $422 $-1 #
edge $-1 -1 $-1 $445 -12.5 $390 12.5 $419 $452 forward @7 unknown #
vertex $-1 -1 $-1 $420 $453 #
straight-curve $-1 -1 $-1 1 0 12.5 0 1 0 I I #
face $-1 -1 $-1 $-1 $422 $20 $-1 $448 reversed single #
plane-surface $-1 -1 $-1 1 0 0 -1 0 0 0 0 1 forward_v I I I I #
edge $-1 -1 $-1 $382 -12.5 $427 12.5 $443 $454 forward @7 unknown #
point $-1 -1 $-1 1 -1 -12.5 #
straight-curve $-1 -1 $-1 -1 1 0 0 0 -1 I I #
straight-curve $-1 -1 $-1 1 1 0 0 0 -1 I I #
point $-1 -1 $-1 1 1 12.5 #
straight-curve $-1 -1 $-1 1 -1 0 0 0 -1 I I #
End-of-ACIS-data 