600 0 1 0           
92 GICL Pro/E ACIS Translator - Source: f:/data5/repository/PTC/V18/fly_small18/glass.prt - 6 0 13 ACIS 6.0.3 NT 24 Thu Apr 04 10:01:19 2002 
1 9.9999999999999995e-007 1e-010 
body $-1 $1 $-1 $-1 #
lump $-1 $-1 $2 $0 #
shell $-1 $-1 $-1 $3 $-1 $1 #
face $-1 $4 $5 $2 $-1 $6 forward single #
face $-1 $7 $8 $2 $-1 $9 forward single #
loop $-1 $-1 $10 $3 #
plane-surface $-1 0 1.5 0 0 1 0 1 0 0 forward_v I I I I #
face $-1 $11 $12 $2 $-1 $13 forward single #
loop $-1 $-1 $14 $4 #
plane-surface $-1 -11.25 0 -6.75 -1 0 0 0 0 1 forward_v I I I I #
coedge $-1 $15 $16 $17 $18 forward $5 $-1 #
face $-1 $19 $20 $2 $-1 $21 forward single #
loop $-1 $-1 $22 $7 #
cone-surface $-1 -10.75 1.5015000366751758 6.25 0 -1 0 -0.5 0 0 1 I I 0 1 0.5 forward I I I I #
coedge $-1 $17 $23 $24 $25 reversed $8 $-1 #
coedge $-1 $26 $10 $27 $28 forward $5 $-1 #
coedge $-1 $10 $29 $30 $31 forward $5 $-1 #
coedge $-1 $32 $14 $10 $18 reversed $8 $-1 #
edge $-1 $33 0 $34 12.5 $10 $35 forward 7 unknown #
face $-1 $36 $37 $2 $-1 $38 forward single #
loop $-1 $-1 $39 $11 #
plane-surface $-1 -11.25 0 6.75 0 0 1 1 0 0 forward_v I I I I #
coedge $-1 $27 $40 $41 $42 reversed $12 $-1 #
coedge $-1 $14 $32 $43 $44 forward $8 $-1 #
coedge $-1 $40 $27 $14 $25 forward $12 $-1 #
edge $-1 $34 0 $45 1.5 $14 $46 forward 7 unknown #
coedge $-1 $47 $15 $48 $49 forward $5 $-1 #
coedge $-1 $24 $22 $15 $28 reversed $12 $-1 #
edge $-1 $34 0 $50 1.5707963267948948 $15 $51 forward 7 unknown #
coedge $-1 $16 $52 $53 $54 forward $5 $-1 #
coedge $-1 $55 $56 $16 $31 reversed $57 $-1 #
edge $-1 $58 0 $33 1.5707963267948948 $16 $59 forward 7 unknown #
coedge $-1 $23 $17 $56 $60 forward $8 $-1 #
vertex $-1 $31 $61 #
vertex $-1 $28 $62 #
straight-curve $-1 -11.25 1.5 -6.25 0 0 1 I I #
face $-1 $63 $64 $2 $-1 $65 forward single #
loop $-1 $-1 $66 $19 #
cone-surface $-1 10.75 1.5015000366751758 6.25 0 -1 0 0 0 0.5 1 I I 0 1 0.5 forward I I I I #
coedge $-1 $48 $67 $68 $69 reversed $20 $-1 #
coedge $-1 $22 $24 $70 $71 reversed $12 $-1 #
coedge $-1 $67 $48 $22 $42 forward $20 $-1 #
edge $-1 $50 0 $72 1.5 $41 $73 forward 7 unknown #
coedge $-1 $74 $70 $23 $44 reversed $75 $-1 #
edge $-1 $76 0 $45 12.5 $23 $77 forward 7 unknown #
vertex $-1 $44 $78 #
straight-curve $-1 -11.25 1.5 6.25 0 -1 0 I I #
coedge $-1 $79 $26 $80 $81 forward $5 $-1 #
coedge $-1 $41 $39 $26 $49 reversed $20 $-1 #
edge $-1 $50 0 $82 21.5 $26 $83 forward 7 unknown #
vertex $-1 $49 $84 #
ellipse-curve $-1 -10.75 1.5 6.2499999999999991 0 1 0 -0.5 0 8.8817841970012523e-016 1 I I #
coedge $-1 $29 $79 $85 $86 forward $5 $-1 #
coedge $-1 $87 $88 $29 $54 reversed $89 $-1 #
edge $-1 $90 0 $58 21.5 $29 $91 forward 7 unknown #
coedge $-1 $92 $30 $88 $93 forward $57 $-1 #
coedge $-1 $30 $92 $32 $60 reversed $57 $-1 #
loop $-1 $-1 $56 $94 #
vertex $-1 $31 $95 #
ellipse-curve $-1 -10.75 1.5 -6.2499999999999991 0 1 0 0 0 -0.50000000000000089 1 I I #
edge $-1 $33 0 $76 1.5 $32 $96 forward 7 unknown #
point $-1 -11.25 1.5 -6.25 #
point $-1 -11.25 1.5 6.25 #
face $-1 $97 $98 $2 $-1 $99 forward single #
loop $-1 $-1 $100 $36 #
plane-surface $-1 11.25 0 6.75 1 0 0 0 0 -1 forward_v I I I I #
coedge $-1 $80 $101 $102 $103 reversed $37 $-1 #
coedge $-1 $39 $41 $104 $105 forward $20 $-1 #
coedge $-1 $101 $80 $39 $69 forward $37 $-1 #
edge $-1 $82 0 $106 1.5 $39 $107 forward 7 unknown #
coedge $-1 $43 $104 $40 $71 forward $75 $-1 #
edge $-1 $72 0 $45 1.5707963267948948 $40 $108 forward 7 unknown #
vertex $-1 $105 $109 #
straight-curve $-1 -10.75 1.5 6.75 0 -1 0 I I #
coedge $-1 $110 $43 $92 $111 forward $75 $-1 #
loop $-1 $-1 $74 $112 #
vertex $-1 $44 $113 #
straight-curve $-1 -11.25 0 -6.25 0 0 1 I I #
point $-1 -11.25 0 6.25 #
coedge $-1 $52 $47 $114 $115 forward $5 $-1 #
coedge $-1 $68 $66 $47 $81 reversed $37 $-1 #
edge $-1 $82 0 $116 1.5707963267948948 $47 $117 forward 7 unknown #
vertex $-1 $81 $118 #
straight-curve $-1 -10.75 1.5 6.75 1 0 0 I I #
point $-1 -10.75 1.5 6.75 #
coedge $-1 $119 $120 $52 $86 reversed $98 $-1 #
edge $-1 $121 0 $90 1.5707963267948948 $52 $122 forward 7 unknown #
coedge $-1 $123 $53 $120 $124 forward $89 $-1 #
coedge $-1 $53 $123 $55 $93 reversed $89 $-1 #
loop $-1 $-1 $88 $97 #
vertex $-1 $54 $125 #
straight-curve $-1 10.75 1.5 -6.75 -1 0 0 I I #
coedge $-1 $56 $55 $74 $111 reversed $57 $-1 #
edge $-1 $58 0 $126 1.5 $88 $127 forward 7 unknown #
face $-1 $112 $57 $2 $-1 $128 forward single #
point $-1 -10.75 1.5 -6.75 #
straight-curve $-1 -11.25 1.5 -6.25 0 -1 0 I I #
face $-1 $94 $89 $2 $-1 $129 forward single #
loop $-1 $-1 $120 $63 #
cone-surface $-1 10.75 1.5015000366751758 -6.25 0 -1 0 0.5 0 0 1 I I 0 1 0.5 forward I I I I #
coedge $-1 $114 $130 $119 $131 reversed $64 $-1 #
coedge $-1 $66 $68 $132 $133 reversed $37 $-1 #
coedge $-1 $130 $114 $66 $103 forward $64 $-1 #
edge $-1 $116 0 $134 1.5 $102 $135 forward 7 unknown #
coedge $-1 $70 $132 $67 $105 reversed $75 $-1 #
edge $-1 $72 0 $106 21.5 $67 $136 forward 7 unknown #
vertex $-1 $105 $137 #
straight-curve $-1 10.75 1.5 6.75 0 -1 0 I I #
ellipse-curve $-1 -10.75 0 6.2499999999999991 0 -1 0 0 0 0.50000000000000089 1 I I #
point $-1 -10.75 0 6.75 #
coedge $-1 $138 $74 $123 $139 reversed $75 $-1 #
edge $-1 $76 0 $126 1.5707963267948948 $92 $140 forward 7 unknown #
face $-1 $141 $142 $2 $-1 $143 reversed single #
point $-1 -11.25 0 -6.25 #
coedge $-1 $102 $100 $79 $115 reversed $64 $-1 #
edge $-1 $116 0 $121 12.5 $79 $144 forward 7 unknown #
vertex $-1 $115 $145 #
ellipse-curve $-1 10.75 1.5 6.2499999999999991 0 1 0 0 0 0.50000000000000089 1 I I #
point $-1 10.75 1.5 6.75 #
coedge $-1 $146 $85 $100 $131 forward $98 $-1 #
coedge $-1 $85 $146 $87 $124 reversed $98 $-1 #
vertex $-1 $86 $147 #
ellipse-curve $-1 10.75 1.5 -6.2499999999999991 0 1 0 0.5 0 -8.8817841970012523e-016 1 I I #
coedge $-1 $88 $87 $110 $139 forward $89 $-1 #
edge $-1 $90 0 $148 1.5 $87 $149 forward 7 unknown #
point $-1 10.75 1.5 -6.75 #
vertex $-1 $139 $150 #
straight-curve $-1 -10.75 1.5 -6.75 0 -1 0 I I #
cone-surface $-1 -10.75 1.5015000366751758 -6.25 0 -1 0 0 0 -0.5 1 I I 0 1 0.5 forward I I I I #
plane-surface $-1 11.25 0 -6.75 0 0 -1 -1 0 0 forward_v I I I I #
coedge $-1 $100 $102 $151 $152 forward $64 $-1 #
edge $-1 $121 0 $153 1.5 $100 $154 forward 7 unknown #
coedge $-1 $104 $151 $101 $133 forward $75 $-1 #
edge $-1 $134 0 $106 1.5707963267948948 $101 $155 forward 7 unknown #
vertex $-1 $152 $156 #
straight-curve $-1 11.25 1.5 6.25 0 -1 0 I I #
straight-curve $-1 -10.75 0 6.75 1 0 0 I I #
point $-1 10.75 0 6.75 #
coedge $-1 $151 $110 $146 $157 forward $75 $-1 #
edge $-1 $148 0 $126 21.5 $123 $158 forward 7 unknown #
ellipse-curve $-1 -10.75 0 -6.2499999999999991 0 -1 0 -0.5 0 -8.8817841970012523e-016 1 I I #
face $-1 $159 $160 $2 $-1 $161 forward single #
loop $-1 $75 $162 $112 #
plane-surface $-1 0 0 0 0 -1 0 -1 0 0 forward_v I I I I #
straight-curve $-1 11.25 1.5 6.25 0 0 -1 I I #
point $-1 11.25 1.5 6.25 #
coedge $-1 $120 $119 $138 $157 reversed $98 $-1 #
point $-1 11.25 1.5 -6.25 #
vertex $-1 $139 $163 #
straight-curve $-1 10.75 1.5 -6.75 0 -1 0 I I #
point $-1 -10.75 0 -6.75 #
coedge $-1 $132 $138 $130 $152 reversed $75 $-1 #
edge $-1 $134 0 $153 12.5 $130 $164 forward 7 unknown #
vertex $-1 $152 $165 #
straight-curve $-1 11.25 1.5 -6.25 0 -1 0 I I #
ellipse-curve $-1 10.75 0 6.2499999999999991 0 -1 0 0.5 0 8.8817841970012523e-016 1 I I #
point $-1 11.25 0 6.25 #
edge $-1 $148 0 $153 1.5707963267948948 $146 $166 forward 7 unknown #
straight-curve $-1 10.75 0 -6.75 -1 0 0 I I #
face $-1 $167 $168 $2 $-1 $169 forward single #
loop $-1 $-1 $170 $141 #
plane-surface $-1 -12.75 0 6.25 -1 0 0 0 0 -1 forward_v I I I I #
coedge $-1 $171 $172 $173 $174 reversed $142 $-1 #
point $-1 10.75 0 -6.75 #
straight-curve $-1 11.25 0 6.25 0 0 -1 I I #
point $-1 11.25 0 -6.25 #
ellipse-curve $-1 10.75 0 -6.2499999999999991 0 -1 0 0 0 -0.50000000000000089 1 I I #
face $-1 $175 $176 $2 $-1 $177 forward single #
loop $-1 $-1 $178 $159 #
cone-surface $-1 -10.75 0 -6.25 0 -1 0 -2 0 0 1 I I 0 1 2 forward I I I I #
coedge $-1 $179 $173 $180 $181 forward $160 $-1 #
coedge $-1 $182 $162 $183 $184 reversed $142 $-1 #
coedge $-1 $162 $185 $186 $187 reversed $142 $-1 #
coedge $-1 $170 $188 $162 $174 forward $160 $-1 #
edge $-1 $189 0 $190 12.5 $162 $191 forward 7 unknown #
face $-1 $192 $193 $2 $-1 $194 forward single #
loop $-1 $-1 $195 $167 #
plane-surface $-1 -10.75 0 -8.25 0 0 -1 1 0 0 forward_v I I I I #
coedge $-1 $196 $186 $197 $198 forward $168 $-1 #
coedge $-1 $188 $170 $199 $200 reversed $160 $-1 #
coedge $-1 $186 $196 $170 $181 reversed $168 $-1 #
edge $-1 $190 0 $201 0.5 $180 $202 forward 7 unknown #
coedge $-1 $203 $171 $204 $205 reversed $142 $-1 #
coedge $-1 $206 $207 $171 $184 forward $208 $-1 #
edge $-1 $209 0 $189 1.5707963267948966 $171 $210 forward 7 unknown #
coedge $-1 $172 $211 $212 $213 reversed $142 $-1 #
coedge $-1 $178 $180 $172 $187 forward $168 $-1 #
edge $-1 $190 0 $214 1.5707963267948966 $172 $215 forward 7 unknown #
coedge $-1 $173 $179 $206 $216 reversed $160 $-1 #
vertex $-1 $184 $217 #
vertex $-1 $187 $218 #
straight-curve $-1 -12.75 0 6.25 0 0 -1 I I #
face $-1 $219 $220 $2 $-1 $221 forward single #
loop $-1 $-1 $222 $175 #
cone-surface $-1 10.75 0 -6.25 0 -1 0 -2 0 0 1 I I 0 1 2 forward I I I I #
coedge $-1 $223 $212 $224 $225 forward $176 $-1 #
coedge $-1 $180 $178 $226 $227 reversed $168 $-1 #
coedge $-1 $212 $223 $178 $198 reversed $176 $-1 #
edge $-1 $214 0 $228 0.5 $178 $229 forward 7 unknown #
coedge $-1 $226 $230 $179 $200 forward $231 $-1 #
edge $-1 $232 0 $201 12.5 $199 $233 forward 7 unknown #
vertex $-1 $227 $234 #
straight-curve $-1 -12.75 0 -6.25 0 -1 0 I I #
coedge $-1 $235 $182 $236 $237 reversed $142 $-1 #
coedge $-1 $238 $239 $182 $205 forward $240 $-1 #
edge $-1 $241 0 $209 21.5 $182 $242 forward 7 unknown #
coedge $-1 $243 $183 $188 $216 forward $208 $-1 #
coedge $-1 $183 $243 $238 $244 reversed $208 $-1 #
loop $-1 $-1 $206 $245 #
vertex $-1 $205 $246 #
ellipse-curve $-1 -10.75 0 6.25 0 -1 0 0 0 2 1 I I #
coedge $-1 $185 $235 $247 $248 reversed $142 $-1 #
coedge $-1 $195 $197 $185 $213 forward $176 $-1 #
edge $-1 $214 0 $249 21.5 $185 $250 forward 7 unknown #
vertex $-1 $187 $251 #
ellipse-curve $-1 -10.75 0 -6.25 0 -1 0 -2 0 0 1 I I #
edge $-1 $189 0 $232 0.5 $206 $252 forward 7 unknown #
point $-1 -12.75 0 6.25 #
point $-1 -12.75 0 -6.25 #
face $-1 $253 $254 $2 $-1 $255 forward single #
loop $-1 $-1 $256 $192 #
plane-surface $-1 12.75 0 -6.25 1 0 0 0 0 1 forward_v I I I I #
coedge $-1 $257 $247 $258 $259 forward $193 $-1 #
coedge $-1 $197 $195 $260 $261 reversed $176 $-1 #
coedge $-1 $247 $257 $195 $225 reversed $193 $-1 #
edge $-1 $249 0 $262 0.5 $195 $263 forward 7 unknown #
coedge $-1 $260 $199 $196 $227 forward $231 $-1 #
edge $-1 $201 0 $228 1.5707963267948966 $226 $264 forward 7 unknown #
vertex $-1 $227 $265 #
straight-curve $-1 -10.75 0 -8.25 0 -1 0 I I #
coedge $-1 $199 $266 $243 $267 forward $231 $-1 #
loop $-1 $-1 $260 $268 #
vertex $-1 $200 $269 #
straight-curve $-1 -12.75 -0.5 6.25 0 0 -1 I I #
point $-1 -12.75 -0.5 -6.25 #
coedge $-1 $211 $203 $270 $271 reversed $142 $-1 #
coedge $-1 $272 $273 $203 $237 forward $254 $-1 #
edge $-1 $274 0 $241 1.5707963267948966 $203 $275 forward 7 unknown #
coedge $-1 $276 $204 $207 $244 forward $240 $-1 #
coedge $-1 $204 $276 $272 $277 reversed $240 $-1 #
loop $-1 $-1 $238 $253 #
vertex $-1 $237 $278 #
straight-curve $-1 10.75 0 8.25 -1 0 0 I I #
coedge $-1 $207 $206 $230 $267 reversed $208 $-1 #
edge $-1 $209 0 $279 0.5 $238 $280 forward 7 unknown #
face $-1 $268 $208 $2 $-1 $281 forward single #
point $-1 -10.75 0 8.25 #
coedge $-1 $222 $224 $211 $248 forward $193 $-1 #
edge $-1 $249 0 $282 1.5707963267948966 $211 $283 forward 7 unknown #
vertex $-1 $213 $284 #
straight-curve $-1 -10.75 0 -8.25 1 0 0 I I #
point $-1 -10.75 0 -8.25 #
straight-curve $-1 -12.75 0 6.25 0 -1 0 I I #
face $-1 $245 $240 $2 $-1 $285 forward single #
loop $-1 $-1 $272 $219 #
cone-surface $-1 10.75 0 6.25 0 -1 0 -2 0 0 1 I I 0 1 2 forward I I I I #
coedge $-1 $286 $270 $273 $287 forward $220 $-1 #
coedge $-1 $224 $222 $288 $289 reversed $193 $-1 #
coedge $-1 $270 $286 $222 $259 reversed $220 $-1 #
edge $-1 $282 0 $290 0.5 $222 $291 forward 7 unknown #
coedge $-1 $288 $226 $223 $261 forward $231 $-1 #
edge $-1 $228 0 $262 21.5 $260 $292 forward 7 unknown #
vertex $-1 $289 $293 #
straight-curve $-1 10.75 0 -8.25 0 -1 0 I I #
ellipse-curve $-1 -10.75 -0.5 -6.25 0 -1 0 -2 0 0 1 I I #
point $-1 -10.75 -0.5 -8.25 #
coedge $-1 $230 $294 $276 $295 forward $231 $-1 #
edge $-1 $279 0 $232 1.5707963267948952 $230 $296 forward 7 unknown #
face $-1 $-1 $231 $2 $-1 $297 forward single #
point $-1 -12.75 -0.5 6.25 #
coedge $-1 $256 $258 $235 $271 forward $220 $-1 #
edge $-1 $282 0 $274 12.5 $235 $298 forward 7 unknown #
coedge $-1 $299 $236 $239 $277 forward $254 $-1 #
coedge $-1 $236 $299 $256 $287 reversed $254 $-1 #
vertex $-1 $271 $300 #
ellipse-curve $-1 10.75 0 6.25 0 -1 0 2 0 0 1 I I #
coedge $-1 $239 $238 $266 $295 reversed $240 $-1 #
edge $-1 $241 0 $301 0.5 $272 $302 forward 7 unknown #
point $-1 10.75 0 8.25 #
vertex $-1 $267 $303 #
straight-curve $-1 -10.75 0 8.25 0 -1 0 I I #
cone-surface $-1 -10.75 0 6.25 0 -1 0 -2 0 0 1 I I 0 1 2 forward I I I I #
vertex $-1 $248 $304 #
ellipse-curve $-1 10.75 0 -6.25 0 -1 0 0 0 -2 1 I I #
point $-1 10.75 0 -8.25 #
plane-surface $-1 10.75 0 8.25 0 0 1 -1 0 0 forward_v I I I I #
coedge $-1 $258 $256 $305 $306 reversed $220 $-1 #
edge $-1 $274 0 $307 0.5 $256 $308 forward 7 unknown #
coedge $-1 $305 $260 $257 $289 forward $231 $-1 #
edge $-1 $262 0 $290 1.5707963267948939 $288 $309 forward 7 unknown #
vertex $-1 $306 $310 #
straight-curve $-1 12.75 0 -6.25 0 -1 0 I I #
straight-curve $-1 -10.75 -0.5 -8.25 1 0 0 I I #
point $-1 10.75 -0.5 -8.25 #
coedge $-1 $266 $305 $299 $311 forward $231 $-1 #
edge $-1 $301 0 $279 21.5 $266 $312 forward 7 unknown #
ellipse-curve $-1 -10.749999999999998 -0.5 6.2499999999999991 0 -1 0 -1.7763568394002505e-015 0 2.0000000000000009 1 I I #
plane-surface $-1 0 -0.5 0 0 -1 0 -1 0 0 forward_v I I I I #
straight-curve $-1 12.75 0 -6.25 0 0 1 I I #
coedge $-1 $273 $272 $294 $311 reversed $254 $-1 #
point $-1 12.75 0 6.25 #
vertex $-1 $295 $313 #
straight-curve $-1 10.75 0 8.25 0 -1 0 I I #
point $-1 -10.75 -0.5 8.25 #
point $-1 12.75 0 -6.25 #
coedge $-1 $294 $288 $286 $306 forward $231 $-1 #
edge $-1 $290 0 $307 12.5 $305 $314 forward 7 unknown #
vertex $-1 $311 $315 #
straight-curve $-1 12.75 0 6.25 0 -1 0 I I #
ellipse-curve $-1 10.749999999999996 -0.5 -6.2499999999999982 0 -1 0 3.5527136788005009e-015 0 -2.0000000000000018 1 I I #
point $-1 12.75 -0.5 -6.25 #
edge $-1 $307 0 $301 1.5707963267948948 $294 $316 forward 7 unknown #
straight-curve $-1 10.75 -0.5 8.25 -1 0 0 I I #
point $-1 10.75 -0.5 8.25 #
straight-curve $-1 12.75 -0.5 -6.25 0 0 1 I I #
point $-1 12.75 -0.5 6.25 #
ellipse-curve $-1 10.749999999999998 -0.5 6.2499999999999982 0 -1 0 2.0000000000000018 0 1.7763568394002505e-015 1 I I #
End-of-ACIS-data 