700 0 2 0           
24 FBMach with ACIS - 7.0.3 13 ACIS 7.0.3 NT 24 Wed May 15 17:46:19 2002 
1 9.9999999999999995e-007 1e-010 
body $2 -1 $-1 $3 $-1 $4 #
bdycol-kcp $-1 -1 1 3 $5 $6 $7 #
model_id-kcp-attrib $-1 -1 $-1 $-1 $0 1 1021499179 1021499179 -2014642175 1 #
lump $-1 -1 $-1 $-1 $8 $0 #
transform $-1 -1 1 0 0 0 1 0 0 0 1 0 0 0 1 rotate no_reflect no_shear #
body $9 -1 $-1 $10 $-1 $11 #
body $12 -1 $-1 $13 $-1 $14 #
body $15 -1 $-1 $16 $-1 $17 #
shell $-1 -1 $-1 $-1 $-1 $18 $-1 $3 #
rgb_color-st-attrib $-1 -1 $19 $-1 $5 0.5 1 1 #
lump $-1 -1 $-1 $-1 $20 $5 #
transform $-1 -1 1 0 0 0 1 0 0 0 1 -2 23.250000000000018 -57.499999999999979 1 no_rotate no_reflect no_shear #
rgb_color-st-attrib $-1 -1 $21 $-1 $6 0 0 1 #
lump $-1 -1 $-1 $-1 $22 $6 #
transform $-1 -1 1 0 0 0 1 0 0 0 1 -2 23.250000000000018 -57.499999999999979 1 no_rotate no_reflect no_shear #
model_id-kcp-attrib $-1 -1 $-1 $-1 $7 1 1021499179 1021499179 -2014642174 1 #
lump $-1 -1 $-1 $-1 $23 $7 #
transform $-1 -1 1 0 0 0 1 0 0 0 1 -2 23.250000000000018 -57.499999999999979 1 no_rotate no_reflect no_shear #
face $24 -1 $-1 $25 $26 $8 $-1 $27 reversed single #
model_id-kcp-attrib $-1 -1 $-1 $9 $5 1 1021499179 1021499179 -2024144893 1 #
shell $-1 -1 $-1 $-1 $-1 $28 $-1 $10 #
model_id-kcp-attrib $-1 -1 $-1 $12 $6 1 1021499179 1021499179 -2023882748 1 #
shell $-1 -1 $-1 $-1 $-1 $29 $-1 $13 #
shell $-1 -1 $-1 $-1 $-1 $30 $-1 $16 #
model_id-kcp-attrib $-1 -1 $-1 $-1 $18 1 1021499179 1021499179 -2014642175 2 #
face $31 -1 $-1 $32 $33 $8 $-1 $34 forward single #
loop $-1 -1 $-1 $-1 $35 $18 #
plane-surface $-1 -1 $-1 -10.024080688773235 22.5 -37.5 0 1 0 0 0 -1 forward_v I I I I #
face $-1 -1 $-1 $36 $37 $20 $-1 $38 reversed single #
face $-1 -1 $-1 $39 $40 $22 $-1 $41 forward single #
face $-1 -1 $-1 $42 $43 $23 $-1 $44 forward single #
model_id-kcp-attrib $-1 -1 $-1 $-1 $25 1 1021499179 1021499179 -2014642175 3 #
face $45 -1 $-1 $46 $47 $8 $-1 $48 forward single #
loop $-1 -1 $-1 $-1 $49 $25 #
cone-surface $-1 -1 $-1 -2 22.5 -57.5 0 1 0 0 0 -5 1 I I 0 1 5 forward I I I I #
coedge $-1 -1 $-1 $50 $50 $51 $52 reversed $26 $-1 #
face $-1 -1 $-1 $53 $54 $20 $-1 $38 reversed single #
loop $-1 -1 $-1 $-1 $55 $28 #
cone-surface $-1 -1 $-1 -1.7763568394002505e-015 -0.75000000000001776 -2.1316282072803006e-014 0 -1 0 5 0 0 1 I I 0 1 5 forward I I I I #
face $-1 -1 $-1 $56 $57 $22 $-1 $58 forward single #
loop $-1 -1 $-1 $59 $60 $29 #
cone-surface $-1 -1 $-1 0 -0.45000000000002238 -2.1316282072803006e-014 0 1 0 0 0 -3.5 1 I I 0 -1 3.5 forward I I I I #
face $-1 -1 $-1 $61 $62 $23 $-1 $63 reversed single #
loop $-1 -1 $-1 $-1 $64 $30 #
plane-surface $-1 -1 $-1 0 0 5.0000000000000213 0 0 1 1 0 0 forward_v I I I I #
model_id-kcp-attrib $-1 -1 $-1 $-1 $32 1 1021499179 1021499179 -2014642175 4 #
face $65 -1 $-1 $66 $67 $8 $-1 $68 forward single #
loop $-1 -1 $-1 $-1 $69 $32 #
cone-surface $-1 -1 $-1 -2 22.5 -57.5 0 1 0 0 0 -5 1 I I 0 1 5 forward I I I I #
coedge $-1 -1 $-1 $70 $51 $71 $72 forward $33 $-1 #
coedge $-1 -1 $-1 $35 $35 $73 $74 reversed $26 $-1 #
coedge $-1 -1 $-1 $49 $75 $35 $52 forward $33 $-1 #
edge $76 -1 $-1 $77 0 $78 3.1415926535897931 $35 $79 forward @7 unknown #
face $-1 -1 $-1 $80 $81 $20 $-1 $38 reversed single #
loop $-1 -1 $-1 $-1 $82 $36 #
coedge $-1 -1 $-1 $83 $84 $85 $86 reversed $37 $-1 #
face $-1 -1 $-1 $87 $88 $22 $-1 $89 forward single #
loop $-1 -1 $-1 $90 $91 $39 #
cone-surface $-1 -1 $-1 0 -0.45000000000002238 -2.1316282072803006e-014 0 1 0 0 0 -4 1 I I 0 1 4 forward I I I I #
loop $-1 -1 $-1 $-1 $92 $29 #
coedge $-1 -1 $-1 $60 $60 $93 $94 forward $40 $-1 #
face $95 -1 $-1 $96 $97 $23 $-1 $98 reversed single #
loop $-1 -1 $-1 $-1 $99 $42 #
plane-surface $-1 -1 $-1 0 0 -5.0000000000000213 0 0 1 1 0 0 forward_v I I I I #
coedge $-1 -1 $-1 $100 $101 $102 $103 forward $43 $-1 #
model_id-kcp-attrib $-1 -1 $-1 $-1 $46 1 1021499179 1021499179 -2014642175 5 #
face $104 -1 $-1 $105 $106 $8 $-1 $107 reversed single #
loop $-1 -1 $-1 $108 $109 $46 #
plane-surface $-1 -1 $-1 -10.024080688773235 24 -37.5 0 1 0 0 0 -1 forward_v I I I I #
coedge $-1 -1 $-1 $110 $73 $75 $111 forward $47 $-1 #
coedge $-1 -1 $-1 $75 $49 $109 $112 reversed $33 $-1 #
coedge $-1 -1 $-1 $73 $110 $49 $72 reversed $47 $-1 #
edge $-1 -1 $-1 $78 0 $113 1.5 $71 $114 forward @7 unknown #
coedge $-1 -1 $-1 $69 $71 $50 $74 forward $47 $-1 #
edge $115 -1 $-1 $78 0 $77 3.1415926535897931 $50 $116 forward @7 unknown #
coedge $-1 -1 $-1 $51 $70 $69 $111 reversed $33 $-1 #
attrib_edge_convexity-kcp-attrib $-1 -1 $117 $-1 $52 1 #
vertex $-1 -1 $-1 $74 $118 #
vertex $-1 -1 $-1 $74 $119 #
ellipse-curve $-1 -1 $-1 -2 22.5 -57.5 0 1 0 -5.0000000000000018 0 0 1 I I #
face $-1 -1 $-1 $120 $121 $20 $-1 $38 reversed single #
loop $-1 -1 $-1 $-1 $122 $53 #
coedge $-1 -1 $-1 $123 $124 $125 $126 reversed $54 $-1 #
coedge $-1 -1 $-1 $127 $55 $128 $129 forward $37 $-1 #
coedge $-1 -1 $-1 $55 $127 $130 $131 reversed $37 $-1 #
coedge $-1 -1 $-1 $132 $133 $55 $86 forward $134 $-1 #
edge $-1 -1 $-1 $135 0 $136 1.5707963267948966 $85 $137 forward @7 unknown #
face $-1 -1 $-1 $-1 $138 $22 $-1 $139 reversed single #
loop $-1 -1 $-1 $140 $141 $56 #
plane-surface $-1 -1 $-1 -1.1102230246251565e-016 -0.05000000000002025 -2.1473731883568023e-014 -4.886748970395649e-033 1 3.4905349788540331e-033 0 -3.4905349788540331e-033 1 forward_v I I I I #
loop $-1 -1 $-1 $-1 $142 $39 #
coedge $-1 -1 $-1 $91 $91 $141 $143 forward $57 $-1 #
coedge $-1 -1 $-1 $92 $92 $144 $145 reversed $59 $-1 #
coedge $-1 -1 $-1 $93 $93 $60 $94 reversed $140 $-1 #
edge $-1 -1 $-1 $146 -3.1415926535897936 $146 3.1415926535897927 $60 $147 forward @7 unknown #
model_id-kcp-attrib $-1 -1 $-1 $-1 $61 1 1021499179 1021499179 -2014642174 2 #
face $-1 -1 $-1 $148 $149 $23 $-1 $150 reversed single #
loop $-1 -1 $-1 $-1 $151 $61 #
plane-surface $-1 -1 $-1 0 -0.75000000000001776 0 0 1 0 0 0 1 forward_v I I I I #
coedge $-1 -1 $-1 $152 $153 $154 $155 forward $62 $-1 #
coedge $-1 -1 $-1 $156 $64 $157 $158 forward $43 $-1 #
coedge $-1 -1 $-1 $64 $156 $159 $160 forward $43 $-1 #
coedge $-1 -1 $-1 $161 $162 $64 $103 reversed $163 $-1 #
edge $-1 -1 $-1 $164 -0.75000000000001776 $165 0.75000000000001776 $102 $166 forward @7 unknown #
model_id-kcp-attrib $-1 -1 $-1 $-1 $66 1 1021499179 1021499179 -2014642175 6 #
face $167 -1 $-1 $168 $169 $8 $-1 $170 reversed single #
loop $-1 -1 $-1 $-1 $171 $66 #
cone-surface $-1 -1 $-1 -2 20.199999999999999 -57.5 0 -1 0 0 0 -0.99999999999999989 1 I I -0.70710678118654746 0.70710678118654757 0.99999999999999989 forward I I I I #
loop $-1 -1 $-1 $-1 $172 $46 #
coedge $-1 -1 $-1 $173 $173 $70 $112 forward $67 $-1 #
coedge $-1 -1 $-1 $71 $69 $173 $174 reversed $47 $-1 #
edge $-1 -1 $-1 $77 0 $175 1.5 $69 $176 forward @7 unknown #
edge $-1 -1 $-1 $175 0 $113 3.14159265358981 $109 $177 forward @7 unknown #
vertex $-1 -1 $-1 $174 $178 #
straight-curve $-1 -1 $-1 3 22.5 -57.500000000000028 0 1 0 I I #
attrib_edge_convexity-kcp-attrib $-1 -1 $179 $-1 $74 1 #
ellipse-curve $-1 -1 $-1 -2 22.5 -57.5 0 1 0 4.9999999999999982 0 0 1 I I #
convexity-sys-attrib $-1 -1 $-1 $76 $52 #
point $-1 -1 $-1 -7.0000000000000018 22.5 -57.5 #
point $-1 -1 $-1 2.9999999999999982 22.5 -57.5 #
face $-1 -1 $-1 $180 $181 $20 $-1 $182 forward single #
loop $-1 -1 $-1 $-1 $183 $80 #
coedge $-1 -1 $-1 $184 $185 $183 $186 forward $81 $-1 #
coedge $-1 -1 $-1 $187 $82 $188 $189 reversed $54 $-1 #
coedge $-1 -1 $-1 $82 $187 $84 $131 forward $54 $-1 #
coedge $-1 -1 $-1 $190 $191 $82 $126 forward $192 $-1 #
edge $-1 -1 $-1 $193 -3.1415926535897931 $194 -1.5707963267948966 $125 $195 forward @7 unknown #
coedge $-1 -1 $-1 $84 $83 $196 $197 reversed $37 $-1 #
coedge $-1 -1 $-1 $185 $184 $198 $129 reversed $81 $-1 #
edge $-1 -1 $-1 $135 -1.5000000000000355 $199 0 $198 $200 forward @7 unknown #
coedge $-1 -1 $-1 $201 $202 $203 $131 forward $204 $-1 #
edge $-1 -1 $-1 $136 -1.5000000000000355 $194 0 $130 $205 forward @7 unknown #
coedge $-1 -1 $-1 $133 $85 $202 $206 reversed $134 $-1 #
coedge $-1 -1 $-1 $85 $132 $207 $208 forward $134 $-1 #
loop $-1 -1 $-1 $-1 $85 $209 #
vertex $-1 -1 $-1 $210 $211 #
vertex $-1 -1 $-1 $212 $213 #
ellipse-curve $-1 -1 $-1 -1.7763568394002505e-015 0.75000000000001776 -2.1316282072803006e-014 0 -1 0 5 0 0 1 I I #
loop $-1 -1 $-1 $214 $215 $87 #
plane-surface $-1 -1 $-1 -1.1102230246251565e-016 -0.45000000000002238 -2.1473731883568023e-014 -4.886748970395649e-033 1 3.4905349788540331e-033 0 -3.4905349788540331e-033 1 forward_v I I I I #
loop $-1 -1 $-1 $-1 $93 $56 #
coedge $-1 -1 $-1 $141 $141 $91 $143 reversed $88 $-1 #
coedge $-1 -1 $-1 $142 $142 $215 $216 reversed $90 $-1 #
edge $-1 -1 $-1 $217 -3.1415926535897927 $217 3.1415926535897936 $91 $218 forward @7 unknown #
coedge $-1 -1 $-1 $144 $144 $92 $145 forward $214 $-1 #
edge $219 -1 $-1 $220 5.0753052554292868e-016 $220 6.2831853071795871 $92 $221 forward @7 unknown #
vertex $-1 -1 $-1 $94 $222 #
ellipse-curve $-1 -1 $-1 0 -0.05000000000002025 -2.1316282072803006e-014 0 1 0 0 0 -3.5 1 I I #
face $223 -1 $-1 $224 $225 $23 $-1 $226 reversed single #
loop $-1 -1 $-1 $-1 $227 $96 #
plane-surface $-1 -1 $-1 -5.0000000000000018 0 0 1 0 0 0 0 -1 forward_v I I I I #
coedge $-1 -1 $-1 $228 $159 $229 $230 forward $97 $-1 #
coedge $-1 -1 $-1 $231 $99 $228 $232 forward $62 $-1 #
coedge $-1 -1 $-1 $99 $231 $233 $234 forward $62 $-1 #
coedge $-1 -1 $-1 $162 $161 $99 $155 reversed $163 $-1 #
edge $-1 -1 $-1 $235 -0.75000000000001776 $236 0.75000000000001776 $154 $237 forward @7 unknown #
coedge $-1 -1 $-1 $101 $100 $238 $239 forward $43 $-1 #
coedge $-1 -1 $-1 $240 $241 $100 $158 reversed $225 $-1 #
edge $-1 -1 $-1 $165 -5.0000000000000018 $242 5.0000000000000018 $157 $243 forward @7 unknown #
coedge $-1 -1 $-1 $151 $244 $101 $160 reversed $97 $-1 #
edge $-1 -1 $-1 $245 -5.0000000000000018 $164 5.0000000000000018 $159 $246 forward @7 unknown #
coedge $-1 -1 $-1 $154 $102 $244 $247 forward $163 $-1 #
coedge $-1 -1 $-1 $102 $154 $240 $248 reversed $163 $-1 #
loop $-1 -1 $-1 $-1 $161 $224 #
vertex $-1 -1 $-1 $103 $249 #
vertex $-1 -1 $-1 $103 $250 #
straight-curve $-1 -1 $-1 5.0000000000000018 0 5.0000000000000213 0 1 0 I I #
model_id-kcp-attrib $-1 -1 $-1 $-1 $105 1 1021499179 1021499179 -2014642175 7 #
face $251 -1 $-1 $252 $253 $8 $-1 $254 reversed single #
loop $-1 -1 $-1 $-1 $255 $105 #
cone-surface $-1 -1 $-1 -2 20.199999999999999 -57.5 0 -1 0 0 0 -1.0000000000000089 1 I I -0.70710678118655068 0.70710678118654435 1.0000000000000089 forward I I I I #
coedge $-1 -1 $-1 $256 $257 $258 $259 forward $106 $-1 #
coedge $-1 -1 $-1 $260 $260 $257 $261 forward $108 $-1 #
coedge $-1 -1 $-1 $109 $109 $110 $174 forward $67 $-1 #
edge $-1 -1 $-1 $113 0 $175 3.1415926535897931 $173 $262 forward @7 unknown #
vertex $-1 -1 $-1 $174 $263 #
straight-curve $-1 -1 $-1 -7 22.5 -57.500000000000014 0 1 0 I I #
ellipse-curve $-1 -1 $-1 -2.0000000000000018 24 -57.499999999999957 0 1 0 -5 0 -4.2632564145606011e-014 1 I I #
point $-1 -1 $-1 2.9999999999999982 24 -57.5 #
convexity-sys-attrib $-1 -1 $-1 $115 $74 #
face $-1 -1 $-1 $264 $265 $20 $-1 $266 reversed single #
loop $-1 -1 $-1 $-1 $203 $120 #
plane-surface $-1 -1 $-1 0 0 5.0000000000000213 0 0 1 1 0 0 forward_v I I I I #
coedge $-1 -1 $-1 $267 $268 $269 $186 reversed $121 $-1 #
coedge $-1 -1 $-1 $128 $122 $270 $271 reversed $81 $-1 #
coedge $-1 -1 $-1 $122 $128 $272 $273 reversed $81 $-1 #
edge $-1 -1 $-1 $274 -1.5000000000000355 $275 0 $269 $276 forward @7 unknown #
coedge $-1 -1 $-1 $124 $123 $277 $278 reversed $54 $-1 #
coedge $-1 -1 $-1 $279 $280 $281 $189 forward $282 $-1 #
edge $-1 -1 $-1 $283 -1.5000000000000355 $193 0 $188 $284 forward @7 unknown #
coedge $-1 -1 $-1 $191 $125 $285 $286 reversed $192 $-1 #
coedge $-1 -1 $-1 $125 $190 $279 $287 forward $192 $-1 #
loop $-1 -1 $-1 $-1 $125 $288 #
vertex $-1 -1 $-1 $289 $290 #
vertex $-1 -1 $-1 $291 $292 #
ellipse-curve $-1 -1 $-1 -1.7763568394002505e-015 -0.75000000000001776 -2.1316282072803006e-014 0 1 0 5 0 0 1 I I #
coedge $-1 -1 $-1 $293 $294 $127 $197 forward $295 $-1 #
edge $-1 -1 $-1 $194 -1.5707963267948966 $199 0 $196 $195 forward @7 unknown #
coedge $-1 -1 $-1 $296 $297 $298 $129 forward $265 $-1 #
vertex $-1 -1 $-1 $299 $300 #
straight-curve $-1 -1 $-1 5.0000000000000018 -0.75000000000001776 -2.1316282072803006e-014 0 -1 0 I I #
coedge $-1 -1 $-1 $301 $130 $294 $291 forward $204 $-1 #
coedge $-1 -1 $-1 $130 $301 $132 $206 forward $204 $-1 #
coedge $-1 -1 $-1 $302 $285 $124 $131 reversed $181 $-1 #
loop $-1 -1 $-1 $-1 $130 $303 #
straight-curve $-1 -1 $-1 -1.7763568394002505e-015 -0.75000000000001776 5.0000000000000213 0 -1 0 I I #
edge $-1 -1 $-1 $304 -5.0000000000000018 $136 1.7763568394002505e-015 $132 $305 forward @7 unknown #
coedge $-1 -1 $-1 $306 $298 $133 $208 reversed $307 $-1 #
edge $-1 -1 $-1 $304 -5.0000000000000213 $135 2.1316282072803006e-014 $207 $308 forward @7 unknown #
face $-1 -1 $-1 $309 $134 $20 $-1 $310 reversed single #
edge $-1 -1 $-1 $135 2.1316282072803006e-014 $311 5.0000000000000213 $297 $308 forward @7 unknown #
point $-1 -1 $-1 5.0000000000000018 0.75000000000001776 -2.1316282072803006e-014 #
edge $-1 -1 $-1 $136 1.7763568394002505e-015 $312 5.0000000000000018 $313 $305 forward @7 unknown #
point $-1 -1 $-1 -1.7763568394002505e-015 0.75000000000001776 5.0000000000000213 #
loop $-1 -1 $-1 $-1 $144 $87 #
coedge $-1 -1 $-1 $215 $215 $142 $216 forward $138 $-1 #
edge $314 -1 $-1 $315 -4.4408920985006262e-016 $315 6.2831853071795862 $142 $316 forward @7 unknown #
vertex $-1 -1 $-1 $143 $317 #
ellipse-curve $-1 -1 $-1 0 -0.05000000000002025 -2.1316282072803006e-014 0 -1 0 0 0 -4 1 I I #
convexity-sys-attrib $-1 -1 $-1 $-1 $145 #
vertex $-1 -1 $-1 $145 $318 #
ellipse-curve $-1 -1 $-1 0 -0.45000000000002238 -2.1316282072803006e-014 0 1 0 0 0 -3.5 1 I I #
point $-1 -1 $-1 -1.7763568394002505e-015 -0.050000000000018474 3.4999999999999787 #
model_id-kcp-attrib $-1 -1 $-1 $-1 $148 1 1021499179 1021499179 -2014642174 3 #
face $-1 -1 $-1 $-1 $163 $23 $-1 $319 reversed single #
loop $-1 -1 $-1 $-1 $240 $148 #
plane-surface $-1 -1 $-1 0 0.75000000000001776 0 0 -1 0 0 0 -1 forward_v I I I I #
coedge $-1 -1 $-1 $320 $238 $241 $321 forward $149 $-1 #
coedge $-1 -1 $-1 $244 $151 $152 $232 reversed $97 $-1 #
coedge $-1 -1 $-1 $238 $320 $151 $230 reversed $149 $-1 #
edge $-1 -1 $-1 $245 -5.0000000000000213 $322 5.0000000000000213 $229 $323 forward @7 unknown #
coedge $-1 -1 $-1 $153 $152 $320 $324 forward $62 $-1 #
edge $-1 -1 $-1 $236 -5.0000000000000018 $322 5.0000000000000018 $228 $325 forward @7 unknown #
coedge $-1 -1 $-1 $241 $240 $153 $234 reversed $225 $-1 #
edge $-1 -1 $-1 $326 -5.0000000000000018 $235 5.0000000000000018 $233 $327 forward @7 unknown #
vertex $-1 -1 $-1 $155 $328 #
vertex $-1 -1 $-1 $247 $329 #
straight-curve $-1 -1 $-1 5.0000000000000018 0 -5.0000000000000213 0 -1 0 I I #
coedge $-1 -1 $-1 $227 $229 $156 $239 reversed $149 $-1 #
edge $-1 -1 $-1 $242 -0.75000000000001776 $245 0.75000000000001776 $238 $330 forward @7 unknown #
coedge $-1 -1 $-1 $233 $157 $162 $248 forward $225 $-1 #
coedge $-1 -1 $-1 $157 $233 $227 $321 reversed $225 $-1 #
vertex $-1 -1 $-1 $158 $331 #
straight-curve $-1 -1 $-1 0 0.75000000000001776 5.0000000000000213 -1 0 0 I I #
coedge $-1 -1 $-1 $159 $228 $161 $247 reversed $97 $-1 #
vertex $-1 -1 $-1 $239 $332 #
straight-curve $-1 -1 $-1 0 -0.75000000000001776 5.0000000000000213 1 0 0 I I #
edge $-1 -1 $-1 $164 -5.0000000000000213 $236 5.0000000000000213 $161 $333 forward @7 unknown #
edge $-1 -1 $-1 $165 -5.0000000000000213 $235 5.0000000000000213 $162 $334 forward @7 unknown #
point $-1 -1 $-1 5.0000000000000018 -0.75000000000001776 5.0000000000000213 #
point $-1 -1 $-1 5.0000000000000018 0.75000000000001776 5.0000000000000213 #
model_id-kcp-attrib $-1 -1 $-1 $-1 $168 1 1021499179 1021499179 -2014642175 8 #
face $335 -1 $-1 $336 $337 $8 $-1 $338 reversed single #
loop $-1 -1 $-1 $-1 $339 $168 #
cone-surface $-1 -1 $-1 -2 24 -57.5 0 -1 0 0 0 -4 1 I I 0 1 4 forward I I I I #
coedge $-1 -1 $-1 $340 $341 $342 $343 forward $169 $-1 #
coedge $-1 -1 $-1 $342 $171 $344 $345 forward $106 $-1 #
coedge $-1 -1 $-1 $171 $342 $172 $261 reversed $106 $-1 #
coedge $-1 -1 $-1 $341 $340 $171 $259 reversed $169 $-1 #
edge $-1 -1 $-1 $346 2.5121479338940459e-014 $347 1.131370849898472 $258 $348 forward @7 unknown #
coedge $-1 -1 $-1 $172 $172 $341 $349 forward $108 $-1 #
edge $-1 -1 $-1 $346 -8.7892656116158269e-016 $350 3.1415926535897949 $172 $351 forward @7 unknown #
ellipse-curve $-1 -1 $-1 -2.0000000000000018 24 -57.5 0 1 0 5 0 0 1 I I #
point $-1 -1 $-1 -7.0000000000000018 24 -57.5 #
face $-1 -1 $-1 $352 $353 $20 $-1 $354 reversed single #
loop $-1 -1 $-1 $-1 $198 $180 #
plane-surface $-1 -1 $-1 5.0000000000000018 0 0 -1 0 0 0 0 1 forward_v I I I I #
coedge $-1 -1 $-1 $355 $183 $356 $357 reversed $121 $-1 #
coedge $-1 -1 $-1 $183 $355 $358 $359 reversed $121 $-1 #
coedge $-1 -1 $-1 $360 $361 $362 $186 forward $363 $-1 #
coedge $-1 -1 $-1 $364 $365 $184 $271 forward $366 $-1 #
edge $-1 -1 $-1 $199 0 $275 1.5707963267948966 $270 $195 forward @7 unknown #
coedge $-1 -1 $-1 $367 $368 $185 $273 forward $369 $-1 #
edge $-1 -1 $-1 $274 -1.5707963267948966 $135 0 $272 $137 forward @7 unknown #
vertex $-1 -1 $-1 $370 $371 #
vertex $-1 -1 $-1 $372 $373 #
straight-curve $-1 -1 $-1 -1.7763568394002505e-015 -0.75000000000001776 -5.0000000000000213 0 -1 0 I I #
coedge $-1 -1 $-1 $374 $313 $187 $278 forward $375 $-1 #
edge $-1 -1 $-1 $136 1.5707963267948966 $283 3.1415926535897931 $277 $137 forward @7 unknown #
coedge $-1 -1 $-1 $376 $188 $191 $287 reversed $282 $-1 #
coedge $-1 -1 $-1 $188 $376 $374 $377 forward $282 $-1 #
coedge $-1 -1 $-1 $378 $379 $355 $189 reversed $353 $-1 #
loop $-1 -1 $-1 $-1 $188 $380 #
vertex $-1 -1 $-1 $381 $382 #
straight-curve $-1 -1 $-1 -5.0000000000000018 -0.75000000000001776 -2.1316282072803006e-014 0 -1 0 I I #
coedge $-1 -1 $-1 $203 $383 $190 $286 forward $181 $-1 #
edge $-1 -1 $-1 $384 -5.0000000000000018 $194 -1.7763568394002505e-015 $190 $385 forward @7 unknown #
edge $-1 -1 $-1 $384 -5.0000000000000213 $193 2.1316282072803006e-014 $279 $386 forward @7 unknown #
face $-1 -1 $-1 $387 $192 $20 $-1 $388 reversed single #
edge $-1 -1 $-1 $193 2.1316282072803006e-014 $389 5.0000000000000213 $379 $386 forward @7 unknown #
point $-1 -1 $-1 -5.0000000000000018 -0.75000000000001776 -2.1316282072803006e-014 #
edge $-1 -1 $-1 $194 -1.7763568394002505e-015 $390 5.0000000000000018 $294 $385 forward @7 unknown #
point $-1 -1 $-1 -1.7763568394002505e-015 -0.75000000000001776 5.0000000000000213 #
coedge $-1 -1 $-1 $294 $196 $391 $392 reversed $295 $-1 #
coedge $-1 -1 $-1 $196 $293 $201 $291 reversed $295 $-1 #
loop $-1 -1 $-1 $-1 $196 $387 #
coedge $-1 -1 $-1 $393 $198 $365 $299 forward $265 $-1 #
coedge $-1 -1 $-1 $198 $393 $367 $210 reversed $265 $-1 #
coedge $-1 -1 $-1 $207 $391 $83 $129 reversed $307 $-1 #
edge $-1 -1 $-1 $199 2.1316282072803006e-014 $394 5.0000000000000213 $296 $395 forward @7 unknown #
point $-1 -1 $-1 5.0000000000000018 -0.75000000000001776 -2.1316282072803006e-014 #
coedge $-1 -1 $-1 $202 $201 $306 $396 forward $204 $-1 #
coedge $-1 -1 $-1 $383 $203 $313 $212 forward $181 $-1 #
face $-1 -1 $-1 $397 $204 $20 $-1 $182 forward single #
vertex $-1 -1 $-1 $396 $398 #
straight-curve $-1 -1 $-1 0 0.75000000000001776 5.0000000000000213 -1 0 0 I I #
coedge $-1 -1 $-1 $391 $207 $301 $396 reversed $307 $-1 #
loop $-1 -1 $-1 $-1 $298 $399 #
straight-curve $-1 -1 $-1 5.0000000000000018 0.75000000000001776 0 0 0 -1 I I #
face $-1 -1 $-1 $400 $375 $20 $-1 $310 reversed single #
plane-surface $-1 -1 $-1 0 0.75000000000001776 0 0 -1 0 0 0 -1 forward_v I I I I #
vertex $-1 -1 $-1 $401 $402 #
vertex $-1 -1 $-1 $212 $403 #
coedge $-1 -1 $-1 $277 $374 $302 $212 reversed $375 $-1 #
convexity-sys-attrib $-1 -1 $-1 $-1 $216 #
vertex $-1 -1 $-1 $216 $404 #
ellipse-curve $-1 -1 $-1 0 -0.45000000000002238 -2.1316282072803006e-014 0 -1 0 0 0 -4 1 I I #
point $-1 -1 $-1 -1.7763568394002505e-015 -0.050000000000018474 4.0000000000000213 #
point $-1 -1 $-1 -1.7763568394002505e-015 -0.45000000000002061 -3.5000000000000213 #
plane-surface $-1 -1 $-1 5.0000000000000018 0 0 -1 0 0 0 0 1 forward_v I I I I #
coedge $-1 -1 $-1 $229 $227 $231 $324 reversed $149 $-1 #
edge $-1 -1 $-1 $242 -5.0000000000000213 $326 5.0000000000000213 $241 $405 forward @7 unknown #
vertex $-1 -1 $-1 $324 $406 #
straight-curve $-1 -1 $-1 -5.0000000000000018 -0.75000000000001776 0 0 0 -1 I I #
edge $-1 -1 $-1 $322 -0.75000000000001776 $326 0.75000000000001776 $320 $407 forward @7 unknown #
straight-curve $-1 -1 $-1 0 -0.75000000000001776 -5.0000000000000213 -1 0 0 I I #
vertex $-1 -1 $-1 $234 $408 #
straight-curve $-1 -1 $-1 0 0.75000000000001776 -5.0000000000000213 1 0 0 I I #
point $-1 -1 $-1 5.0000000000000018 0.75000000000001776 -5.0000000000000213 #
point $-1 -1 $-1 5.0000000000000018 -0.75000000000001776 -5.0000000000000213 #
straight-curve $-1 -1 $-1 -5.0000000000000018 0 5.0000000000000213 0 -1 0 I I #
point $-1 -1 $-1 -5.0000000000000018 0.75000000000001776 5.0000000000000213 #
point $-1 -1 $-1 -5.0000000000000018 -0.75000000000001776 5.0000000000000213 #
straight-curve $-1 -1 $-1 5.0000000000000018 -0.75000000000001776 0 0 0 -1 I I #
straight-curve $-1 -1 $-1 5.0000000000000018 0.75000000000001776 0 0 0 -1 I I #
model_id-kcp-attrib $-1 -1 $-1 $-1 $252 1 1021499179 1021499179 -2014642175 9 #
face $409 -1 $-1 $410 $411 $8 $-1 $412 forward single #
loop $-1 -1 $-1 $413 $414 $252 #
plane-surface $-1 -1 $-1 -10.024080688773235 22.799999999999997 -37.5 0 -1 0 0 0 -1 forward_v I I I I #
coedge $-1 -1 $-1 $415 $416 $417 $418 reversed $253 $-1 #
coedge $-1 -1 $-1 $258 $255 $419 $420 forward $169 $-1 #
coedge $-1 -1 $-1 $255 $258 $260 $349 reversed $169 $-1 #
coedge $-1 -1 $-1 $257 $256 $255 $343 reversed $106 $-1 #
edge $-1 -1 $-1 $350 2.5121479338940408e-014 $421 1.131370849898472 $255 $422 forward @7 unknown #
coedge $-1 -1 $-1 $423 $424 $256 $345 reversed $425 $-1 #
edge $-1 -1 $-1 $347 1.1102230246251565e-016 $421 3.1415926535897931 $344 $426 forward @7 unknown #
vertex $-1 -1 $-1 $349 $427 #
vertex $-1 -1 $-1 $420 $428 #
straight-curve $-1 -1 $-1 -1.9999999999999989 24 -52.700000000000003 -1.9626155733547216e-016 -0.70710678118654913 -0.70710678118654602 I I #
edge $-1 -1 $-1 $350 0 $346 3.1415926535897949 $260 $429 forward @7 unknown #
vertex $-1 -1 $-1 $349 $430 #
ellipse-curve $-1 -1 $-1 -2.0000000000000036 24 -57.5 0 -1 0 4.6629367034256575e-015 0 4.7999999999999972 1 I I #
face $-1 -1 $-1 $288 $431 $20 $-1 $388 reversed single #
loop $-1 -1 $-1 $-1 $281 $264 #
plane-surface $-1 -1 $-1 -5.0000000000000018 0 0 1 0 0 0 0 -1 forward_v I I I I #
coedge $-1 -1 $-1 $268 $267 $123 $189 forward $121 $-1 #
coedge $-1 -1 $-1 $432 $433 $267 $357 forward $434 $-1 #
edge $-1 -1 $-1 $283 -3.1415926535897931 $274 -1.5707963267948966 $356 $137 forward @7 unknown #
coedge $-1 -1 $-1 $435 $436 $268 $359 forward $431 $-1 #
edge $-1 -1 $-1 $275 1.5707963267948966 $193 3.1415926535897931 $358 $195 forward @7 unknown #
coedge $-1 -1 $-1 $437 $269 $436 $372 forward $363 $-1 #
coedge $-1 -1 $-1 $269 $437 $432 $438 forward $363 $-1 #
coedge $-1 -1 $-1 $439 $440 $122 $186 reversed $441 $-1 #
loop $-1 -1 $-1 $-1 $269 $397 #
coedge $-1 -1 $-1 $365 $270 $440 $442 reversed $366 $-1 #
coedge $-1 -1 $-1 $270 $364 $296 $299 reversed $366 $-1 #
loop $-1 -1 $-1 $-1 $270 $443 #
coedge $-1 -1 $-1 $368 $272 $297 $210 forward $369 $-1 #
coedge $-1 -1 $-1 $272 $367 $439 $370 reversed $369 $-1 #
loop $-1 -1 $-1 $-1 $272 $444 #
edge $-1 -1 $-1 $274 -1.7763568394002505e-015 $311 5.0000000000000018 $368 $445 forward @7 unknown #
point $-1 -1 $-1 -1.7763568394002505e-015 0.75000000000001776 -5.0000000000000213 #
edge $-1 -1 $-1 $275 1.7763568394002505e-015 $389 5.0000000000000018 $436 $446 forward @7 unknown #
point $-1 -1 $-1 -1.7763568394002505e-015 -0.75000000000001776 -5.0000000000000213 #
coedge $-1 -1 $-1 $313 $277 $280 $377 reversed $375 $-1 #
loop $-1 -1 $-1 $-1 $277 $309 #
coedge $-1 -1 $-1 $280 $279 $383 $447 reversed $282 $-1 #
edge $-1 -1 $-1 $312 -5.0000000000000213 $283 2.1316282072803006e-014 $374 $448 forward @7 unknown #
coedge $-1 -1 $-1 $449 $281 $433 $381 forward $353 $-1 #
coedge $-1 -1 $-1 $281 $449 $435 $289 reversed $353 $-1 #
face $-1 -1 $-1 $399 $282 $20 $-1 $354 reversed single #
edge $-1 -1 $-1 $283 2.1316282072803006e-014 $450 5.0000000000000213 $433 $448 forward @7 unknown #
point $-1 -1 $-1 -5.0000000000000018 0.75000000000001776 -2.1316282072803006e-014 #
coedge $-1 -1 $-1 $285 $302 $376 $447 forward $181 $-1 #
vertex $-1 -1 $-1 $447 $451 #
straight-curve $-1 -1 $-1 0 -0.75000000000001776 5.0000000000000213 1 0 0 I I #
straight-curve $-1 -1 $-1 -5.0000000000000018 -0.75000000000001776 0 0 0 -1 I I #
face $-1 -1 $-1 $443 $295 $20 $-1 $388 reversed single #
plane-surface $-1 -1 $-1 0 -0.75000000000001776 0 0 1 0 0 0 1 forward_v I I I I #
vertex $-1 -1 $-1 $452 $453 #
vertex $-1 -1 $-1 $396 $454 #
coedge $-1 -1 $-1 $298 $306 $293 $392 forward $307 $-1 #
edge $-1 -1 $-1 $390 -5.0000000000000213 $199 2.1316282072803006e-014 $391 $395 forward @7 unknown #
coedge $-1 -1 $-1 $297 $296 $455 $401 reversed $265 $-1 #
vertex $-1 -1 $-1 $299 $456 #
straight-curve $-1 -1 $-1 5.0000000000000018 -0.75000000000001776 0 0 0 -1 I I #
edge $-1 -1 $-1 $390 -0.75000000000001776 $304 0.75000000000001776 $306 $457 forward @7 unknown #
face $-1 -1 $-1 $380 $363 $20 $-1 $458 reversed single #
point $-1 -1 $-1 5.0000000000000018 0.75000000000001776 5.0000000000000213 #
face $-1 -1 $-1 $-1 $307 $20 $-1 $266 reversed single #
face $-1 -1 $-1 $459 $434 $20 $-1 $310 reversed single #
edge $-1 -1 $-1 $311 -0.75000000000001776 $394 0.75000000000001776 $393 $460 forward @7 unknown #
point $-1 -1 $-1 5.0000000000000018 0.75000000000001776 -5.0000000000000213 #
point $-1 -1 $-1 -5.0000000000000018 0.75000000000001776 5.0000000000000213 #
point $-1 -1 $-1 -1.7763568394002505e-015 -0.45000000000002061 -4.0000000000000213 #
straight-curve $-1 -1 $-1 -5.0000000000000018 0.75000000000001776 0 0 0 -1 I I #
point $-1 -1 $-1 -5.0000000000000018 -0.75000000000001776 -5.0000000000000213 #
straight-curve $-1 -1 $-1 -5.0000000000000018 0 -5.0000000000000213 0 1 0 I I #
point $-1 -1 $-1 -5.0000000000000018 0.75000000000001776 -5.0000000000000213 #
model_id-kcp-attrib $-1 -1 $-1 $-1 $336 1 1021499179 1021499179 -2014642175 10 #
face $461 -1 $-1 $462 $463 $8 $-1 $464 forward single #
loop $-1 -1 $-1 $-1 $465 $336 #
cone-surface $-1 -1 $-1 -2 24 -57.5 0 -1 0 0 0 -3.5 1 I I 0 1 3.5 forward I I I I #
loop $-1 -1 $-1 $-1 $466 $252 #
coedge $-1 -1 $-1 $467 $467 $468 $469 forward $337 $-1 #
coedge $-1 -1 $-1 $419 $339 $423 $470 forward $253 $-1 #
coedge $-1 -1 $-1 $339 $419 $424 $471 reversed $253 $-1 #
coedge $-1 -1 $-1 $466 $466 $339 $418 forward $413 $-1 #
edge $472 -1 $-1 $473 0 $474 3.1415926535897816 $417 $475 forward @7 unknown #
coedge $-1 -1 $-1 $416 $415 $340 $420 reversed $253 $-1 #
edge $-1 -1 $-1 $421 1.3805065841367731e-030 $347 3.1415926535897944 $419 $476 forward @7 unknown #
vertex $-1 -1 $-1 $471 $477 #
straight-curve $-1 -1 $-1 -2.0000000000000107 24 -62.299999999999997 -4.7102773760513317e-015 -0.70710678118654913 0.70710678118654602 I I #
coedge $-1 -1 $-1 $478 $344 $415 $470 reversed $425 $-1 #
coedge $-1 -1 $-1 $344 $478 $416 $471 forward $425 $-1 #
loop $-1 -1 $-1 $-1 $344 $479 #
ellipse-curve $-1 -1 $-1 -1.9999999999999996 23.199999999999999 -57.5 0 -1 0 4.4408920985006262e-016 0 4 1 I I #
point $-1 -1 $-1 -1.9999999999999947 23.999999999999964 -52.700000000000003 #
point $-1 -1 $-1 -1.9999999999999996 23.200000000000003 -53.5 #
ellipse-curve $-1 -1 $-1 -1.9999999999999929 24 -57.5 1.0956401461402955e-029 -1 7.4014868308343806e-015 -7.1054273576010019e-015 -3.5527136788005009e-014 -4.7999999999999972 1 I I #
point $-1 -1 $-1 -2 23.999999999999964 -62.299999999999997 #
loop $-1 -1 $-1 $-1 $358 $352 #
coedge $-1 -1 $-1 $433 $356 $361 $438 reversed $434 $-1 #
coedge $-1 -1 $-1 $356 $432 $378 $381 reversed $434 $-1 #
loop $-1 -1 $-1 $-1 $356 $400 #
coedge $-1 -1 $-1 $436 $358 $379 $289 forward $431 $-1 #
coedge $-1 -1 $-1 $358 $435 $360 $372 reversed $431 $-1 #
coedge $-1 -1 $-1 $361 $360 $449 $452 forward $363 $-1 #
edge $-1 -1 $-1 $450 -5.0000000000000018 $274 -1.7763568394002505e-015 $432 $445 forward @7 unknown #
coedge $-1 -1 $-1 $455 $362 $368 $370 forward $441 $-1 #
coedge $-1 -1 $-1 $362 $455 $364 $442 forward $441 $-1 #
loop $-1 -1 $-1 $-1 $362 $459 #
edge $-1 -1 $-1 $394 -5.0000000000000018 $275 1.7763568394002505e-015 $364 $446 forward @7 unknown #
face $-1 -1 $-1 $444 $366 $20 $-1 $388 reversed single #
face $-1 -1 $-1 $209 $369 $20 $-1 $310 reversed single #
straight-curve $-1 -1 $-1 0 0.75000000000001776 -5.0000000000000213 1 0 0 I I #
straight-curve $-1 -1 $-1 0 -0.75000000000001776 -5.0000000000000213 -1 0 0 I I #
edge $-1 -1 $-1 $312 -0.75000000000001776 $384 0.75000000000001776 $376 $480 forward @7 unknown #
straight-curve $-1 -1 $-1 -5.0000000000000018 0.75000000000001776 0 0 0 -1 I I #
coedge $-1 -1 $-1 $379 $378 $437 $452 reversed $353 $-1 #
vertex $-1 -1 $-1 $438 $481 #
point $-1 -1 $-1 -5.0000000000000018 -0.75000000000001776 5.0000000000000213 #
edge $-1 -1 $-1 $389 -0.75000000000001776 $450 0.75000000000001776 $449 $482 forward @7 unknown #
point $-1 -1 $-1 -5.0000000000000018 -0.75000000000001776 -5.0000000000000213 #
point $-1 -1 $-1 5.0000000000000018 -0.75000000000001776 5.0000000000000213 #
coedge $-1 -1 $-1 $440 $439 $393 $401 forward $441 $-1 #
point $-1 -1 $-1 5.0000000000000018 -0.75000000000001776 -5.0000000000000213 #
straight-curve $-1 -1 $-1 5.0000000000000018 0 5.0000000000000213 0 1 0 I I #
plane-surface $-1 -1 $-1 0 0 -5.0000000000000213 0 0 1 1 0 0 forward_v I I I I #
face $-1 -1 $-1 $303 $441 $20 $-1 $458 reversed single #
straight-curve $-1 -1 $-1 5.0000000000000018 0 -5.0000000000000213 0 -1 0 I I #
model_id-kcp-attrib $-1 -1 $-1 $-1 $410 1 1021499179 1021499179 -2014642175 11 #
face $483 -1 $-1 $484 $485 $8 $-1 $486 forward single #
loop $-1 -1 $-1 $-1 $487 $410 #
cone-surface $-1 -1 $-1 -2 24 -57.5 0 -1 0 0 0 -3.5 1 I I 0 1 3.5 forward I I I I #
coedge $-1 -1 $-1 $468 $488 $489 $490 reversed $411 $-1 #
coedge $-1 -1 $-1 $417 $417 $478 $491 forward $413 $-1 #
coedge $-1 -1 $-1 $414 $414 $492 $493 forward $337 $-1 #
coedge $-1 -1 $-1 $494 $465 $414 $469 reversed $411 $-1 #
edge $495 -1 $-1 $496 0 $497 3.1415926535897931 $414 $498 forward @7 unknown #
edge $-1 -1 $-1 $473 -3.5527136788005009e-015 $347 0.40000000000000213 $415 $499 forward @7 unknown #
edge $-1 -1 $-1 $474 -3.5527136788005009e-015 $421 0.40000000000000213 $416 $500 forward @7 unknown #
attrib_edge_convexity-kcp-attrib $-1 -1 $501 $-1 $418 2 #
vertex $-1 -1 $-1 $418 $502 #
vertex $-1 -1 $-1 $418 $503 #
ellipse-curve $-1 -1 $-1 -2.0000000000000249 22.799999999999997 -57.499999999999979 0 1 0 2.3092638912203256e-014 0 4.0000000000000213 1 I I #
ellipse-curve $-1 -1 $-1 -1.9999999999999969 23.199999999999967 -57.5 0 -1 0 -3.1086244689504383e-015 0 -3.9999999999999929 1 I I #
point $-1 -1 $-1 -2 23.200000000000003 -61.5 #
coedge $-1 -1 $-1 $424 $423 $466 $491 reversed $425 $-1 #
face $504 -1 $-1 $-1 $425 $8 $-1 $505 reversed single #
straight-curve $-1 -1 $-1 -5.0000000000000018 0 5.0000000000000213 0 -1 0 I I #
point $-1 -1 $-1 -5.0000000000000018 0.75000000000001776 -5.0000000000000213 #
straight-curve $-1 -1 $-1 -5.0000000000000018 0 -5.0000000000000213 0 1 0 I I #
model_id-kcp-attrib $-1 -1 $-1 $-1 $462 1 1021499179 1021499179 -2014642175 12 #
face $506 -1 $-1 $507 $508 $8 $-1 $509 forward single #
loop $-1 -1 $-1 $-1 $510 $462 #
torus-surface $-1 -1 $-1 -2 23.199999999999999 -57.5 0 -1 0 2.6999999999999931 0.79999999999999993 0.0029531263196626635 0 -0.99999563951296322 forward_v I I I I #
coedge $-1 -1 $-1 $492 $511 $494 $512 reversed $463 $-1 #
coedge $-1 -1 $-1 $465 $494 $513 $514 reversed $411 $-1 #
coedge $-1 -1 $-1 $511 $492 $465 $490 forward $463 $-1 #
edge $-1 -1 $-1 $497 -3.5527136788005009e-015 $515 0.39999999999999858 $489 $516 forward @7 unknown #
edge $517 -1 $-1 $474 0 $473 3.1415926535897833 $466 $518 forward @7 unknown #
coedge $-1 -1 $-1 $489 $487 $467 $493 reversed $463 $-1 #
edge $519 -1 $-1 $497 0 $496 3.1415926535897931 $467 $520 forward @7 unknown #
coedge $-1 -1 $-1 $488 $468 $487 $512 forward $411 $-1 #
attrib_edge_convexity-kcp-attrib $-1 -1 $521 $-1 $469 2 #
vertex $-1 -1 $-1 $493 $522 #
vertex $-1 -1 $-1 $493 $523 #
ellipse-curve $-1 -1 $-1 -2.0000000000000018 22.799999999999997 -57.5 0 -1 0 0 0 -3.5 1 I I #
straight-curve $-1 -1 $-1 -1.9999999999999996 22.800000000000001 -53.5 0 1 0 I I #
straight-curve $-1 -1 $-1 -2 22.800000000000001 -61.5 0 1 0 I I #
convexity-sys-attrib $-1 -1 $-1 $472 $418 #
point $-1 -1 $-1 -2.0000000000000018 22.799999999999997 -53.499999999999957 #
point $-1 -1 $-1 -2.0000000000000018 22.799999999999997 -61.5 #
model_id-kcp-attrib $-1 -1 $-1 $-1 $479 1 1021499179 1021499179 -2014642175 15 #
cone-surface $-1 -1 $-1 -2 24 -57.5 0 -1 0 0 0 -4 1 I I 0 1 4 forward I I I I #
model_id-kcp-attrib $-1 -1 $-1 $-1 $484 1 1021499179 1021499179 -2014642175 13 #
face $524 -1 $-1 $479 $525 $8 $-1 $526 forward single #
loop $-1 -1 $-1 $-1 $527 $484 #
torus-surface $-1 -1 $-1 -2 23.199999999999999 -57.5 0 -1 0 2.6999999999999931 0.79999999999999993 -0.0029531263196622523 0 0.99999563951296322 forward_v I I I I #
coedge $-1 -1 $-1 $528 $529 $530 $531 forward $485 $-1 #
coedge $-1 -1 $-1 $487 $489 $528 $532 reversed $463 $-1 #
edge $-1 -1 $-1 $496 -3.5527136788005009e-015 $533 0.39999999999999858 $487 $534 forward @7 unknown #
coedge $-1 -1 $-1 $530 $527 $488 $514 forward $508 $-1 #
edge $-1 -1 $-1 $515 -1.3957089452430539e-015 $533 3.1415926535897936 $488 $535 forward @7 unknown #
vertex $-1 -1 $-1 $532 $536 #
straight-curve $-1 -1 $-1 -1.9999999999999996 22.800000000000001 -54 0 1 0 I I #
attrib_edge_convexity-kcp-attrib $-1 -1 $537 $-1 $491 2 #
ellipse-curve $-1 -1 $-1 -1.9999999999999822 22.799999999999997 -57.499999999999979 0 1 0 -1.9539925233402755e-014 0 -4.0000000000000213 1 I I #
attrib_edge_convexity-kcp-attrib $-1 -1 $538 $-1 $493 2 #
ellipse-curve $-1 -1 $-1 -2.0000000000000018 22.799999999999997 -57.5 0 -1 0 0 0 3.5 1 I I #
convexity-sys-attrib $-1 -1 $-1 $495 $469 #
point $-1 -1 $-1 -2.0000000000000018 22.799999999999997 -61 #
point $-1 -1 $-1 -2.0000000000000018 22.799999999999997 -54 #
model_id-kcp-attrib $-1 -1 $-1 $-1 $507 1 1021499179 1021499179 -2014642175 14 #
loop $-1 -1 $-1 $-1 $539 $507 #
plane-surface $-1 -1 $-1 -10.024080688773235 24 -37.5 0 1 0 0 0 -1 forward_v I I I I #
coedge $-1 -1 $-1 $513 $540 $541 $542 forward $508 $-1 #
coedge $-1 -1 $-1 $541 $510 $511 $532 forward $485 $-1 #
coedge $-1 -1 $-1 $510 $541 $543 $544 reversed $485 $-1 #
coedge $-1 -1 $-1 $540 $513 $510 $531 reversed $508 $-1 #
edge $-1 -1 $-1 $545 0 $533 1.5707963267948968 $510 $546 forward @7 unknown #
edge $-1 -1 $-1 $533 0 $515 3.1415926535897913 $511 $547 forward @7 unknown #
vertex $-1 -1 $-1 $532 $548 #
straight-curve $-1 -1 $-1 -2.0000000000000009 22.800000000000001 -61 0 1 0 I I #
ellipse-curve $-1 -1 $-1 -2 23.199999999999999 -57.5 0 1 0 -7.7196027348236385e-012 0 3.5 1 I I #
point $-1 -1 $-1 -2.0000000000077245 23.199999999999999 -54 #
convexity-sys-attrib $-1 -1 $-1 $517 $491 #
convexity-sys-attrib $-1 -1 $-1 $519 $493 #
coedge $-1 -1 $-1 $543 $543 $540 $549 forward $525 $-1 #
coedge $-1 -1 $-1 $527 $530 $539 $549 reversed $508 $-1 #
coedge $-1 -1 $-1 $529 $528 $527 $542 reversed $485 $-1 #
edge $-1 -1 $-1 $550 -4.7009145788492474e-024 $515 1.5707963267948968 $541 $551 forward @7 unknown #
coedge $-1 -1 $-1 $539 $539 $529 $544 forward $525 $-1 #
edge $-1 -1 $-1 $545 0 $550 3.1415926535499561 $543 $552 forward @7 unknown #
vertex $-1 -1 $-1 $544 $553 #
ellipse-curve $-1 -1 $-1 -1.9999999999953346 23.199999999999992 -60.199999999999996 -1 -5.2149951024204309e-012 -3.8154999154094584e-012 -4.1719960819364132e-012 0.80000000000000782 7.1054273576010019e-015 1 I I #
ellipse-curve $-1 -1 $-1 -2 23.199999999999999 -57.5 0 1 0 7.7178263779842382e-012 0 -3.5 1 I I #
point $-1 -1 $-1 -1.9999999999922822 23.199999999999999 -61 #
edge $-1 -1 $-1 $550 3.6456434578987782e-013 $545 3.1415926535495893 $539 $554 forward @7 unknown #
vertex $-1 -1 $-1 $544 $555 #
ellipse-curve $-1 -1 $-1 -2.0000000000046629 23.199999999999992 -54.800000000000004 1 -5.2130522121273377e-012 3.820623352982318e-012 4.170441769701938e-012 0.80000000000000782 -7.1054273576010019e-015 1 I I #
ellipse-curve $-1 -1 $-1 -1.999999999945727 24 -57.5 0 1 0 -5.3779647402052433e-011 0 -2.6999999999999886 1 I I #
point $-1 -1 $-1 -1.9999999999995066 24 -60.199999999999989 #
ellipse-curve $-1 -1 $-1 -2.0000000000542748 24 -57.5 0 1 0 5.3782311937311533e-011 0 2.6999999999999886 1 I I #
point $-1 -1 $-1 -1.9999999999995082 24 -54.800000000000011 #
End-of-ACIS-data 