600 0 1 0           
96 GICL ACIS Healer - Source: /gicl/data5/repository/PTC/V18/fly_small18/holder_zoom_.prt.sat - 6 0 18 ACIS 6.0.3 Solaris 24 Sat Apr 13 22:08:33 2002 
1 9.999999999999999547e-07 1.000000000000000036e-10 
body $-1 $1 $-1 $-1 #
lump $-1 $-1 $2 $0 #
shell $-1 $-1 $-1 $3 $-1 $1 #
face $-1 $4 $5 $2 $-1 $6 reversed single #
face $-1 $7 $8 $2 $-1 $9 forward single #
loop $-1 $10 $11 $3 #
plane-surface $-1 -10.02408068877323544 22.5 -37.5 0 1 0 0 0 1 forward_v I I I I #
face $-1 $12 $13 $2 $-1 $14 forward single #
loop $-1 $-1 $15 $4 #
plane-surface $-1 3 22.5 -39.5 1 0 0 0 0 -1 forward_v I I I I #
loop $-1 $-1 $16 $3 #
coedge $-1 $17 $18 $19 $20 reversed $5 $-1 #
face $-1 $21 $22 $2 $-1 $23 forward single #
loop $-1 $-1 $24 $7 #
cone-surface $-1 2 24.00150003667517851 -40.5 0 -1 0 1.776356839400250465e-15 0 1 1 I I 0 1 1 forward I I I I #
coedge $-1 $19 $25 $26 $27 forward $8 $-1 #
coedge $-1 $28 $29 $30 $31 forward $10 $-1 #
coedge $-1 $32 $11 $33 $34 forward $5 $-1 #
coedge $-1 $11 $35 $36 $37 forward $5 $-1 #
coedge $-1 $38 $15 $11 $20 forward $8 $-1 #
edge $-1 $39 2 $40 7.5 $11 $41 forward 7 unknown #
face $-1 $42 $43 $2 $-1 $44 forward single #
loop $-1 $-1 $45 $12 #
plane-surface $-1 -17 22.5 -39.5 0 0 1 1 0 0 forward_v I I I I #
coedge $-1 $33 $46 $47 $48 forward $13 $-1 #
coedge $-1 $15 $38 $49 $50 reversed $8 $-1 #
coedge $-1 $46 $33 $15 $27 reversed $13 $-1 #
edge $-1 $51 0.5015000366751820593 $39 1.501500036675182059 $15 $52 forward 7 unknown #
coedge $-1 $53 $16 $54 $55 forward $10 $-1 #
coedge $-1 $16 $56 $57 $58 forward $10 $-1 #
coedge $-1 $59 $60 $16 $31 reversed $61 $-1 #
edge $-1 $62 1.570796326794895448 $63 3.141592653589793116 $16 $64 forward 7 unknown #
coedge $-1 $65 $17 $66 $67 reversed $5 $-1 #
coedge $-1 $26 $24 $17 $34 reversed $13 $-1 #
edge $-1 $39 -1.570796326794894782 $68 1.776356839400250465e-15 $17 $69 reversed 7 unknown #
coedge $-1 $18 $70 $71 $72 reversed $5 $-1 #
coedge $-1 $73 $74 $18 $37 reversed $75 $-1 #
edge $-1 $76 -1.570796326794896558 $40 -0 $18 $77 reversed 7 unknown #
coedge $-1 $25 $19 $74 $78 reversed $8 $-1 #
vertex $-1 $34 $79 #
vertex $-1 $37 $80 #
straight-curve $-1 3 22.5 -38.5 0 0 -1 I I #
face $-1 $81 $82 $2 $-1 $83 forward single #
loop $-1 $-1 $84 $21 #
cone-surface $-1 -16 24.00150003667517851 -40.5 0 -1 0 -1 0 0 1 I I 0 1 1 forward I I I I #
coedge $-1 $66 $85 $86 $87 forward $22 $-1 #
coedge $-1 $24 $26 $88 $89 reversed $13 $-1 #
coedge $-1 $85 $66 $24 $48 reversed $22 $-1 #
edge $-1 $90 0.5015000366751820593 $68 1.501500036675182059 $47 $91 forward 7 unknown #
coedge $-1 $92 $93 $25 $50 forward $94 $-1 #
edge $-1 $51 0.005500367128462357869 $95 5.505500367128462358 $25 $96 forward 7 unknown #
vertex $-1 $50 $97 #
straight-curve $-1 3 24.00150003667518206 -40.5 0 -1 0 I I #
coedge $-1 $98 $28 $99 $100 forward $10 $-1 #
coedge $-1 $101 $102 $28 $55 reversed $103 $-1 #
edge $-1 $63 2.375 $104 5.375 $28 $105 reversed 7 unknown #
coedge $-1 $29 $106 $107 $108 forward $10 $-1 #
coedge $-1 $109 $110 $29 $58 reversed $111 $-1 #
edge $-1 $112 -0.6546263222800501325 $62 9.678707011053278464 $29 $113 forward 7 unknown #
coedge $-1 $114 $30 $110 $115 reversed $61 $-1 #
coedge $-1 $30 $114 $101 $116 forward $61 $-1 #
loop $-1 $-1 $30 $117 #
vertex $-1 $58 $118 #
vertex $-1 $55 $119 #
ellipse-curve $-1 -1.833333333333338366 22.5 -41.75 0 1 0 -0.8333333333333333703 0 0 0.5999999999999999778 I I #
coedge $-1 $120 $32 $121 $122 forward $5 $-1 #
coedge $-1 $47 $45 $32 $67 forward $22 $-1 #
edge $-1 $123 -2.487959655613382282 $68 15.51204034438661772 $32 $124 forward 7 unknown #
vertex $-1 $67 $125 #
ellipse-curve $-1 2 22.5 -40.5 0 1 0 1.776356839400250465e-15 0 1 1 I I #
coedge $-1 $35 $120 $126 $127 forward $5 $-1 #
coedge $-1 $128 $129 $35 $72 forward $130 $-1 #
edge $-1 $76 -5.512040344386617718 $131 12.48795965561338228 $35 $132 forward 7 unknown #
coedge $-1 $133 $36 $129 $134 reversed $75 $-1 #
coedge $-1 $36 $133 $38 $78 forward $75 $-1 #
loop $-1 $-1 $74 $135 #
vertex $-1 $37 $136 #
ellipse-curve $-1 2 22.5 -46 0 1 0 1 0 0 1 I I #
edge $-1 $95 0.5015000366751820593 $40 1.501500036675182059 $38 $137 forward 7 unknown #
point $-1 3 22.5 -40.5 #
point $-1 3 22.5 -46 #
face $-1 $138 $139 $2 $-1 $140 forward single #
loop $-1 $-1 $141 $42 #
plane-surface $-1 -17 22.5 -47 -1 0 0 0 0 1 forward_v I I I I #
coedge $-1 $121 $142 $143 $144 forward $43 $-1 #
coedge $-1 $45 $47 $145 $146 reversed $22 $-1 #
coedge $-1 $142 $121 $45 $87 reversed $43 $-1 #
edge $-1 $147 0.5015000366751820593 $123 1.501500036675182059 $45 $148 forward 7 unknown #
coedge $-1 $149 $150 $46 $89 forward $151 $-1 #
edge $-1 $90 -1.776356839400250465e-15 $51 1.570796326794894782 $46 $152 reversed 7 unknown #
vertex $-1 $146 $153 #
straight-curve $-1 2 24.00150003667518206 -39.5 0 -1 0 I I #
coedge $-1 $154 $49 $155 $156 reversed $94 $-1 #
coedge $-1 $49 $154 $149 $157 forward $94 $-1 #
loop $-1 $-1 $93 $158 #
vertex $-1 $50 $159 #
straight-curve $-1 3 23.5 -40.49449963287153764 0 0 -1 I I #
point $-1 3 23.5 -40.5 #
coedge $-1 $160 $53 $161 $162 forward $10 $-1 #
coedge $-1 $163 $164 $53 $100 reversed $165 $-1 #
edge $-1 $104 -3.141592653589793116 $166 -1.57079632679489789 $53 $167 forward 7 unknown #
coedge $-1 $168 $54 $60 $116 reversed $103 $-1 #
coedge $-1 $54 $168 $163 $169 reversed $103 $-1 #
loop $-1 $-1 $168 $170 #
vertex $-1 $100 $171 #
straight-curve $-1 -0.9999999999999995559 22.5 -39.375 0 -0 1 I I #
coedge $-1 $56 $160 $172 $173 forward $10 $-1 #
coedge $-1 $174 $175 $56 $108 reversed $176 $-1 #
edge $-1 $177 -3.141592653589793116 $112 -1.570796326794896558 $56 $178 forward 7 unknown #
coedge $-1 $179 $57 $175 $180 forward $111 $-1 #
coedge $-1 $57 $179 $59 $115 forward $111 $-1 #
loop $-1 $-1 $179 $181 #
vertex $-1 $58 $182 #
straight-curve $-1 -11.51204034438661772 22.5 -41.25 1 0 0 I I #
coedge $-1 $60 $59 $183 $184 reversed $61 $-1 #
edge $-1 $185 1.255264976970646984 $62 3.755264976970647872 $110 $186 forward 7 unknown #
edge $-1 $187 0.5885983103039797992 $63 3.08859831030397558 $101 $188 forward 7 unknown #
face $-1 $181 $61 $2 $-1 $189 reversed single #
point $-1 -1.833333333333339255 22.5 -41.25 #
point $-1 -0.9999999999999995559 22.5 -41.75 #
coedge $-1 $70 $65 $190 $191 reversed $5 $-1 #
coedge $-1 $86 $84 $65 $122 reversed $43 $-1 #
edge $-1 $123 -1.570796326794896558 $192 -0 $65 $193 reversed 7 unknown #
vertex $-1 $122 $194 #
straight-curve $-1 -13.51204034438661772 22.5 -39.5 1 0 0 I I #
point $-1 2 22.5 -39.5 #
coedge $-1 $195 $196 $70 $127 reversed $139 $-1 #
edge $-1 $197 -1.570796326794896558 $131 -0 $70 $198 reversed 7 unknown #
coedge $-1 $199 $71 $196 $200 reversed $130 $-1 #
coedge $-1 $71 $199 $73 $134 forward $130 $-1 #
loop $-1 $-1 $129 $138 #
vertex $-1 $72 $201 #
straight-curve $-1 -3.512040344386617718 22.5 -47 -1 0 0 I I #
coedge $-1 $74 $73 $202 $203 reversed $75 $-1 #
edge $-1 $204 0.5015000366751820593 $76 1.501500036675182059 $129 $205 forward 7 unknown #
face $-1 $206 $75 $2 $-1 $207 forward single #
point $-1 2 22.5 -47 #
straight-curve $-1 3 24.00150003667518206 -46 0 -1 0 I I #
face $-1 $135 $130 $2 $-1 $208 forward single #
loop $-1 $-1 $196 $81 #
cone-surface $-1 -16 24.00150003667517851 -46 0 -1 0 0 0 -1 1 I I 0 1 1 forward I I I I #
coedge $-1 $190 $209 $195 $210 forward $82 $-1 #
coedge $-1 $84 $86 $211 $212 reversed $43 $-1 #
coedge $-1 $209 $190 $84 $144 reversed $82 $-1 #
edge $-1 $213 0.5015000366751820593 $192 1.501500036675182059 $143 $214 forward 7 unknown #
coedge $-1 $215 $216 $85 $146 forward $217 $-1 #
edge $-1 $147 0.01800120151131778812 $90 18.01800120151131779 $85 $218 forward 7 unknown #
vertex $-1 $146 $219 #
straight-curve $-1 -16 24.00150003667518206 -39.5 0 -1 0 I I #
coedge $-1 $220 $88 $93 $157 reversed $151 $-1 #
coedge $-1 $88 $220 $215 $221 forward $151 $-1 #
loop $-1 $-1 $150 $222 #
ellipse-curve $-1 2 23.5 -40.5 0 -1 0 1.776356839400250465e-15 0 1 1 I I #
point $-1 2 23.5 -39.5 #
coedge $-1 $93 $92 $223 $224 reversed $94 $-1 #
coedge $-1 $202 $225 $92 $156 forward $226 $-1 #
edge $-1 $227 -8.172943846168266955e-53 $95 1.570796326794915432 $92 $228 forward 7 unknown #
edge $-1 $229 0 $51 1.570796326794896558 $149 $230 forward 7 unknown #
face $-1 $222 $94 $2 $-1 $231 forward single #
point $-1 3 23.5 -46 #
coedge $-1 $106 $98 $232 $233 forward $10 $-1 #
coedge $-1 $234 $235 $98 $162 reversed $236 $-1 #
edge $-1 $166 -3.678707011053278464 $237 6.654626322280048356 $98 $238 forward 7 unknown #
coedge $-1 $239 $99 $102 $169 forward $165 $-1 #
coedge $-1 $99 $239 $234 $240 reversed $165 $-1 #
loop $-1 $-1 $239 $241 #
vertex $-1 $162 $242 #
ellipse-curve $-1 -1.833333333333340143 22.5 -44.75 0 1 0 -0.8333333333333333703 0 0 0.5999999999999999778 I I #
coedge $-1 $102 $101 $243 $244 forward $103 $-1 #
edge $-1 $104 7.656562764504709406 $245 10.15656276450471651 $102 $246 forward 7 unknown #
face $-1 $117 $103 $2 $-1 $247 forward single #
point $-1 -1.000000000000006661 22.5 -44.75 #
coedge $-1 $248 $249 $106 $173 reversed $250 $-1 #
edge $-1 $251 -3.375 $177 -0.375 $106 $252 reversed 7 unknown #
coedge $-1 $253 $107 $249 $254 forward $176 $-1 #
coedge $-1 $107 $253 $109 $180 reversed $176 $-1 #
loop $-1 $-1 $253 $255 #
vertex $-1 $108 $256 #
ellipse-curve $-1 -12.16666666666666785 22.5 -41.75 0 1 0 0.8333333333333333703 0 -0 0.5999999999999999778 I I #
coedge $-1 $110 $109 $257 $258 forward $111 $-1 #
edge $-1 $112 6.989896097838048661 $259 9.489896097838052214 $109 $260 forward 7 unknown #
face $-1 $255 $111 $2 $-1 $261 reversed single #
point $-1 -12.16666666666666785 22.5 -41.25 #
coedge $-1 $257 $243 $114 $184 forward $262 $-1 #
edge $-1 $187 -3.141592653589793116 $185 -1.570796326794896114 $183 $263 reversed 7 unknown #
vertex $-1 $258 $264 #
straight-curve $-1 1.170878648243178777 24.75315898618238819 -41.25 -0.8000000000000000444 -0.6000000000000000888 0 I I #
vertex $-1 $184 $265 #
straight-curve $-1 1.470878648243180375 24.35315898618238606 -41.75 -0.8000000000000000444 -0.6000000000000000888 0 I I #
cone-surface $-1 1.170878648243179221 24.75315898618238819 -41.75 -0.8000000000000000444 -0.6000000000000000888 0 0 0 0.5 1 I I 0 1 0.5 forward I I I I #
coedge $-1 $143 $141 $120 $191 forward $82 $-1 #
edge $-1 $197 -3.75 $192 1.75 $120 $266 forward 7 unknown #
vertex $-1 $191 $267 #
ellipse-curve $-1 -16 22.5 -40.5 0 1 0 -1 0 0 1 I I #
point $-1 -16 22.5 -39.5 #
coedge $-1 $268 $126 $141 $210 reversed $139 $-1 #
coedge $-1 $126 $268 $128 $200 forward $139 $-1 #
vertex $-1 $127 $269 #
ellipse-curve $-1 -16 22.5 -46 0 1 0 0 0 -1 1 I I #
coedge $-1 $129 $128 $270 $271 reversed $130 $-1 #
edge $-1 $272 0.5015000366751820593 $131 1.501500036675182059 $128 $273 forward 7 unknown #
point $-1 -16 22.5 -47 #
coedge $-1 $274 $155 $133 $203 forward $226 $-1 #
edge $-1 $95 -0 $204 1.570796326794896558 $133 $275 reversed 7 unknown #
vertex $-1 $271 $276 #
straight-curve $-1 2 24.00150003667518206 -47 0 -1 0 I I #
face $-1 $158 $226 $2 $-1 $277 forward single #
cone-surface $-1 2 24.00150003667517851 -46 0 -1 0 1 0 0 1 I I 0 1 1 forward I I I I #
plane-surface $-1 3 22.5 -47 0 0 -1 -1 0 0 forward_v I I I I #
coedge $-1 $141 $143 $278 $279 reversed $82 $-1 #
edge $-1 $280 0.5015000366751820593 $197 1.501500036675182059 $141 $281 forward 7 unknown #
coedge $-1 $282 $283 $142 $212 forward $284 $-1 #
edge $-1 $213 -0 $147 1.570796326794896558 $142 $285 reversed 7 unknown #
vertex $-1 $279 $286 #
straight-curve $-1 -17 24.00150003667518206 -40.5 0 -1 0 I I #
coedge $-1 $287 $145 $150 $221 reversed $217 $-1 #
coedge $-1 $145 $287 $282 $288 forward $217 $-1 #
loop $-1 $-1 $216 $289 #
straight-curve $-1 -16.01800120151131779 23.5 -39.5 1 0 0 I I #
point $-1 -16 23.5 -39.5 #
coedge $-1 $150 $149 $290 $291 reversed $151 $-1 #
edge $-1 $292 0 $90 1.570796326794861031 $215 $293 forward 7 unknown #
face $-1 $289 $151 $2 $-1 $294 forward single #
coedge $-1 $295 $290 $154 $224 forward $296 $-1 #
edge $-1 $229 0.005500367128469463296 $227 5.50550036712542834 $223 $297 forward 7 unknown #
coedge $-1 $155 $274 $295 $298 reversed $226 $-1 #
loop $-1 $-1 $155 $206 #
vertex $-1 $298 $299 #
ellipse-curve $-1 2.500000000000000888 23.50000000000000355 -45.99999999999340616 8.220561721127236912e-26 -7.119638212316253946e-12 -1 -5.77315972805081401e-15 0.4999999999999964473 -3.559819106158101931e-12 1 I I #
vertex $-1 $224 $300 #
ellipse-curve $-1 2.5 23.5 -40.50000000000000711 0 0 -1 0 0.5 0 1 I I #
cone-surface $-1 2.5 23.5 -40.49449963287153764 0 0 -1 0.5 0 0 1 I I 0 1 0.5 forward I I I I #
coedge $-1 $301 $302 $160 $233 reversed $303 $-1 #
edge $-1 $237 1.570796326794896558 $251 3.141592653589793116 $160 $304 forward 7 unknown #
coedge $-1 $305 $161 $164 $240 forward $236 $-1 #
coedge $-1 $161 $305 $301 $306 forward $236 $-1 #
loop $-1 $-1 $161 $307 #
vertex $-1 $233 $308 #
straight-curve $-1 -5.512040344386617718 22.5 -45.25 -1 0 0 I I #
coedge $-1 $164 $163 $309 $310 reversed $165 $-1 #
edge $-1 $166 6.989896097838043332 $311 9.489896097838041555 $234 $312 forward 7 unknown #
face $-1 $170 $165 $2 $-1 $313 reversed single #
point $-1 -1.833333333333339255 22.5 -45.25 #
coedge $-1 $183 $309 $168 $244 reversed $262 $-1 #
edge $-1 $187 2.375 $245 5.375 $243 $314 reversed 7 unknown #
vertex $-1 $244 $315 #
straight-curve $-1 -7.125250211603771255 17.90606234129717222 -44.75 0.8000000000000000444 0.6000000000000000888 0 I I #
plane-surface $-1 1 24 -41.25 -0.6000000000000000888 0.8000000000000000444 0 0 0 -1 forward_v I I I I #
coedge $-1 $316 $172 $302 $317 reversed $250 $-1 #
coedge $-1 $172 $316 $174 $254 reversed $250 $-1 #
loop $-1 $-1 $316 $318 #
vertex $-1 $173 $319 #
straight-curve $-1 -13 22.5 -41.375 0 0 -1 I I #
coedge $-1 $175 $174 $320 $321 reversed $176 $-1 #
edge $-1 $177 7.656562764504716512 $322 10.15656276450471651 $249 $323 forward 7 unknown #
face $-1 $318 $176 $2 $-1 $324 reversed single #
point $-1 -13.00000000000000178 22.5 -41.75 #
coedge $-1 $320 $183 $179 $258 reversed $262 $-1 #
edge $-1 $259 -2.654626322280053685 $185 11.67870701105327846 $257 $325 forward 7 unknown #
vertex $-1 $321 $326 #
straight-curve $-1 -6.574749788396228922 18.3060623412971708 -41.25 -0.8000000000000000444 0.6000000000000000888 0 I I #
plane-surface $-1 -13 24 -41.25 0 0 1 1 0 0 forward_v I I I I #
loop $-1 $-1 $327 $328 #
ellipse-curve $-1 0.1666666666666618557 24 -41.75 0 1 0 -0.8333333333333333703 0 0 0.5999999999999999778 I I #
point $-1 0.1666666666666614116 24 -41.25 #
point $-1 0.999999999999995226 24 -41.75 #
straight-curve $-1 -17 22.5 -42.25 0 -0 1 I I #
point $-1 -17 22.5 -40.5 #
coedge $-1 $196 $195 $329 $330 reversed $139 $-1 #
point $-1 -17 22.5 -46 #
coedge $-1 $331 $332 $199 $271 forward $333 $-1 #
edge $-1 $204 0.01800120151131601176 $272 18.01800120151131779 $199 $334 forward 7 unknown #
vertex $-1 $271 $335 #
straight-curve $-1 -16 24.00150003667518206 -47 0 -1 0 I I #
coedge $-1 $225 $202 $332 $336 reversed $226 $-1 #
ellipse-curve $-1 2 23.5 -46 0 -1 0 1 0 0 1 I I #
point $-1 2 23.5 -47 #
torus-surface $-1 2 23.5 -46 0 -1 0 0.5 0.5 0.9999987661349976076 0 0.001570900532342990293 forward_v I I I I #
coedge $-1 $337 $338 $209 $279 forward $339 $-1 #
edge $-1 $280 0.005500367128462357869 $213 5.505500367128462358 $209 $340 forward 7 unknown #
vertex $-1 $279 $341 #
straight-curve $-1 -17 24.00150003667518206 -46 0 -1 0 I I #
coedge $-1 $342 $211 $216 $288 reversed $284 $-1 #
coedge $-1 $211 $342 $337 $343 forward $284 $-1 #
loop $-1 $-1 $283 $344 #
ellipse-curve $-1 -16 23.5 -40.5 0 -1 0 -1 0 0 1 I I #
point $-1 -17 23.5 -40.5 #
coedge $-1 $216 $215 $345 $346 reversed $217 $-1 #
edge $-1 $347 0 $147 1.570796326794925202 $282 $348 forward 7 unknown #
face $-1 $344 $217 $2 $-1 $349 forward single #
coedge $-1 $223 $345 $220 $291 forward $296 $-1 #
edge $-1 $292 -3.141592653595851381 $229 -1.570796326794882347 $290 $350 forward 7 unknown #
vertex $-1 $291 $351 #
ellipse-curve $-1 1.999999999993409716 23.49999999999998224 -40.00000000000000711 1 -7.122302747575051399e-12 0 3.561151373787652119e-12 0.5000000000000177636 0 1 I I #
torus-surface $-1 2 23.5 -40.5 0 -1 0 0.5 0.5 -0.001570900532342529507 0 0.9999987661349976076 forward_v I I I I #
coedge $-1 $352 $223 $225 $298 forward $296 $-1 #
loop $-1 $262 $353 $328 #
straight-curve $-1 2.5 24 -40.49449963287153764 0 0 -1 I I #
edge $-1 $227 -1.570796326800964815 $354 -8.881784197001252323e-16 $295 $355 forward 7 unknown #
point $-1 2.499999999999995115 24 -45.99999999999696598 #
point $-1 2.5 24 -40.50000000000000711 #
coedge $-1 $356 $232 $235 $306 reversed $303 $-1 #
coedge $-1 $232 $356 $248 $317 forward $303 $-1 #
loop $-1 $-1 $232 $357 #
ellipse-curve $-1 -12.16666666666666607 22.5 -44.75 0 1 0 0.8333333333333333703 0 0 0.5999999999999999778 I I #
coedge $-1 $235 $234 $358 $359 forward $236 $-1 #
edge $-1 $360 1.255264976970647206 $237 3.75526497697064876 $235 $361 forward 7 unknown #
face $-1 $241 $236 $2 $-1 $362 reversed single #
point $-1 -12.16666666666666607 22.5 -45.25 #
coedge $-1 $243 $358 $239 $310 forward $262 $-1 #
edge $-1 $311 1.570796326794896558 $245 3.141592653589793116 $309 $363 reversed 7 unknown #
vertex $-1 $310 $364 #
straight-curve $-1 -7.425250211603772854 18.30606234129717436 -45.25 0.8000000000000000444 0.6000000000000000888 0 I I #
cone-surface $-1 -7.425250211603773742 18.30606234129717436 -44.75 0.8000000000000000444 0.6000000000000000888 0 0 0 -0.5 1 I I 0 1 0.5 forward I I I I #
straight-curve $-1 1.000000000000000888 24 -39.375 0 -0 1 I I #
point $-1 1.000000000000000888 24 -44.75 #
coedge $-1 $249 $248 $365 $366 forward $250 $-1 #
edge $-1 $367 0.5885983103039763575 $251 3.088598310303976469 $248 $368 forward 7 unknown #
face $-1 $-1 $250 $2 $-1 $369 forward single #
point $-1 -13 22.5 -44.75 #
coedge $-1 $365 $257 $253 $321 forward $262 $-1 #
edge $-1 $259 1.570796326794903219 $322 3.141592653589793116 $320 $370 reversed 7 unknown #
vertex $-1 $366 $371 #
straight-curve $-1 -6.874749788396227856 17.90606234129717222 -41.75 -0.8000000000000000444 0.6000000000000000888 0 I I #
cone-surface $-1 -6.574749788396228034 18.3060623412971708 -41.75 -0.8000000000000000444 0.6000000000000000888 0 0 0 0.5 1 I I 0 1 0.5 forward I I I I #
straight-curve $-1 -11.51204034438661772 24 -41.25 1 0 0 I I #
point $-1 -14.1666666666666714 24 -41.25 #
coedge $-1 $358 $365 $356 $372 forward $262 $-1 #
face $-1 $357 $296 $2 $-1 $373 forward single #
coedge $-1 $374 $375 $268 $330 forward $376 $-1 #
edge $-1 $272 -0 $280 1.570796326794896558 $268 $377 reversed 7 unknown #
coedge $-1 $378 $270 $375 $379 reversed $333 $-1 #
coedge $-1 $270 $378 $274 $336 forward $333 $-1 #
loop $-1 $-1 $332 $380 #
straight-curve $-1 2.018001201511316012 23.5 -47 -1 0 0 I I #
point $-1 -16 23.5 -47 #
edge $-1 $354 0 $204 1.570796326794925202 $332 $381 forward 7 unknown #
coedge $-1 $382 $278 $283 $343 reversed $339 $-1 #
coedge $-1 $278 $382 $374 $383 forward $339 $-1 #
loop $-1 $-1 $338 $384 #
straight-curve $-1 -17 23.5 -46.00550036712846236 0 0 1 I I #
point $-1 -17 23.5 -46 #
coedge $-1 $283 $282 $385 $386 reversed $284 $-1 #
edge $-1 $387 0 $213 1.570796326794939413 $337 $388 forward 7 unknown #
face $-1 $384 $284 $2 $-1 $389 forward single #
coedge $-1 $290 $385 $287 $346 forward $296 $-1 #
edge $-1 $347 0.01800120151131778812 $292 18.01800120150828732 $345 $390 forward 7 unknown #
vertex $-1 $346 $391 #
ellipse-curve $-1 -16 23.50000000000000711 -39.99999999999999289 1 0 0 0 0.4999999999999928946 -7.105427357601001859e-15 1 I I #
cone-surface $-1 -16.01800120151131779 23.5 -40 1 0 0 0 0 0.5 1 I I 0 1 0.5 forward I I I I #
ellipse-curve $-1 2 24 -40.5 0 1 0 0 0 -0.5 1 I I #
point $-1 1.999999999996970867 24 -40.00000000000000711 #
coedge $-1 $353 $295 $378 $392 forward $296 $-1 #
coedge $-1 $393 $352 $394 $395 forward $296 $-1 #
vertex $-1 $392 $396 #
ellipse-curve $-1 2 24 -46 0 1 0 0 0 -0.5 1 I I #
coedge $-1 $302 $301 $327 $372 reversed $303 $-1 #
face $-1 $307 $303 $2 $-1 $397 reversed single #
coedge $-1 $309 $327 $305 $359 reversed $262 $-1 #
edge $-1 $311 -5.678707011053277576 $360 8.654626322280050132 $358 $398 forward 7 unknown #
vertex $-1 $359 $399 #
straight-curve $-1 -15.17087864824318544 24.75315898618238819 -45.25 0.8000000000000000444 -0.6000000000000000888 0 I I #
plane-surface $-1 -1 24 -45.25 0 0 -1 -1 0 0 forward_v I I I I #
ellipse-curve $-1 0.1666666666666598573 24 -44.75 0 1 0 -0.8333333333333333703 0 0 0.5999999999999999778 I I #
point $-1 0.1666666666666598018 24 -45.25 #
coedge $-1 $327 $320 $316 $366 reversed $262 $-1 #
edge $-1 $367 -3.375 $322 -0.375 $365 $400 reversed 7 unknown #
vertex $-1 $366 $401 #
straight-curve $-1 -15.47087864824318082 24.35315898618238606 -44.75 0.8000000000000000444 -0.6000000000000000888 0 I I #
plane-surface $-1 -15 24 -45.25 0.6000000000000000888 0.8000000000000000444 0 0 0 1 forward_v I I I I #
ellipse-curve $-1 -14.16666666666666607 24 -41.75 0 1 0 0.8333333333333333703 0 -0 0.5999999999999999778 I I #
point $-1 -15 24 -41.75 #
edge $-1 $367 -3.141592653589793116 $360 -1.570796326794898778 $327 $402 reversed 7 unknown #
plane-surface $-1 -10.02408068877323544 24 -37.5 0 1 0 0 0 1 forward_v I I I I #
coedge $-1 $394 $329 $338 $383 reversed $376 $-1 #
coedge $-1 $329 $394 $331 $379 forward $376 $-1 #
loop $-1 $-1 $375 $403 #
ellipse-curve $-1 -16 23.5 -46 0 -1 0 0 0 -1 1 I I #
coedge $-1 $332 $331 $352 $392 reversed $333 $-1 #
edge $-1 $404 1.421085471520149885e-14 $272 1.570796326794861031 $331 $405 forward 7 unknown #
face $-1 $328 $333 $2 $-1 $406 forward single #
ellipse-curve $-1 1.999999999999999556 23.50000000000000711 -46.50000000000000711 -1 1.776356839400275708e-15 2.524354896707309524e-29 8.881784197001252323e-16 0.4999999999999928946 7.105427357601001859e-15 1 I I #
coedge $-1 $338 $337 $393 $407 reversed $339 $-1 #
edge $-1 $408 0 $280 1.570796326794918096 $374 $409 forward 7 unknown #
face $-1 $403 $339 $2 $-1 $410 forward single #
coedge $-1 $345 $393 $342 $386 forward $296 $-1 #
edge $-1 $387 1.570796326788828523 $347 3.141592653589793116 $385 $411 forward 7 unknown #
vertex $-1 $386 $412 #
ellipse-curve $-1 -16.50000000000000711 23.50000000000001066 -40.50000000000659384 -1.517642163900456096e-25 -7.119638212316355728e-12 1 1.065814103640150279e-14 0.4999999999999893419 3.559819106158101931e-12 1 I I #
torus-surface $-1 -16 23.5 -40.5 0 -1 0 0.5 0.5 -0.9999987661349974966 0 -0.001570900532342995714 forward_v I I I I #
straight-curve $-1 -16.01800120151131779 24 -40 1 0 0 I I #
point $-1 -16 24 -40 #
edge $-1 $354 0.01800120151131556767 $404 18.01800120151131779 $352 $413 forward 7 unknown #
coedge $-1 $385 $353 $382 $407 forward $296 $-1 #
coedge $-1 $375 $374 $353 $395 reversed $376 $-1 #
edge $-1 $404 0 $408 1.570796326794896558 $353 $414 forward 7 unknown #
point $-1 2.000000000000000444 24 -46.5 #
cone-surface $-1 -15.17087864824318366 24.75315898618238819 -44.75 0.8000000000000000444 -0.6000000000000000888 0 0 0 -0.5 1 I I 0 1 0.5 forward I I I I #
straight-curve $-1 -5.512040344386617718 24 -45.25 -1 0 0 I I #
point $-1 -14.16666666666666785 24 -45.25 #
straight-curve $-1 -15 24 -41.375 0 0 -1 I I #
point $-1 -15 24 -44.75 #
ellipse-curve $-1 -14.16666666666666607 24 -44.75 0 1 0 0.8333333333333333703 0 0 0.5999999999999999778 I I #
face $-1 $380 $376 $2 $-1 $415 forward single #
vertex $-1 $392 $416 #
ellipse-curve $-1 -15.99999999999340439 23.49999999999998224 -46.49999999999999289 -1 -7.130296353352352526e-12 0 -3.565148176676302683e-12 0.5000000000000177636 0 1 I I #
cone-surface $-1 2.018001201511316456 23.5 -46.5 -1 0 0 0 0 -0.5 1 I I 0 1 0.5 forward I I I I #
edge $-1 $408 0.005500367128462357869 $387 5.50550036712542834 $393 $417 forward 7 unknown #
vertex $-1 $407 $418 #
ellipse-curve $-1 -16.50000000000000355 23.50000000000000711 -46 0 0 1 3.552713678800500929e-15 0.4999999999999928946 0 1 I I #
cone-surface $-1 -16.5 23.5 -46.00550036712846236 0 0 1 -0.5 0 0 1 I I 0 1 0.5 forward I I I I #
ellipse-curve $-1 -16 24 -40.5 0 1 0 0 0 -0.5 1 I I #
point $-1 -16.49999999999999645 24 -40.50000000000303402 #
straight-curve $-1 2.018001201511316012 24 -46.5 -1 0 0 I I #
ellipse-curve $-1 -16 24 -46 0 1 0 0 0 -0.5 1 I I #
torus-surface $-1 -16 23.5 -46 0 -1 0 0.5 0.5 0.00157090053234652631 0 -0.9999987661349976076 forward_v I I I I #
point $-1 -16 24 -46.5 #
straight-curve $-1 -16.5 24 -46.00550036712846236 0 0 1 I I #
point $-1 -16.5 24 -46 #
End-of-ACIS-data 