700 0 2 0           
24 FBMach with ACIS - 7.0.3 13 ACIS 7.0.3 NT 24 Wed May 15 18:02:36 2002 
1 9.9999999999999995e-007 1e-010 
body $2 -1 $-1 $3 $-1 $4 #
bdycol-kcp $-1 -1 1 3 $5 $6 $7 #
model_id-kcp-attrib $-1 -1 $-1 $-1 $0 1 1021500156 1021500156 -936640511 1 #
lump $-1 -1 $-1 $-1 $8 $0 #
transform $-1 -1 1 0 0 0 1 0 0 0 1 0 0 0 1 rotate no_reflect no_shear #
body $9 -1 $-1 $10 $-1 $11 #
body $12 -1 $-1 $13 $-1 $14 #
body $15 -1 $-1 $16 $-1 $17 #
shell $-1 -1 $-1 $-1 $-1 $18 $-1 $3 #
model_id-kcp-attrib $-1 -1 $-1 $-1 $5 1 1021500156 1021500156 -936640510 1 #
lump $-1 -1 $-1 $-1 $19 $5 #
transform $-1 -1 1 0 0 0 1 0 0 0 1 -2 23.250000000000018 -57.499999999999979 1 no_rotate no_reflect no_shear #
rgb_color-st-attrib $-1 -1 $20 $-1 $6 0 0 1 #
lump $-1 -1 $-1 $-1 $21 $6 #
transform $-1 -1 1 0 0 0 1 0 0 0 1 -2 23.250000000000018 -57.499999999999979 1 no_rotate no_reflect no_shear #
rgb_color-st-attrib $-1 -1 $22 $-1 $7 0.5 1 1 #
lump $-1 -1 $-1 $-1 $23 $7 #
transform $-1 -1 1 0 0 0 1 0 0 0 1 -2 23.250000000000018 -57.499999999999979 1 no_rotate no_reflect no_shear #
face $24 -1 $-1 $25 $26 $8 $-1 $27 reversed single #
shell $-1 -1 $-1 $-1 $-1 $28 $-1 $10 #
model_id-kcp-attrib $-1 -1 $-1 $12 $6 1 1021500156 1021500156 -930414588 1 #
shell $-1 -1 $-1 $-1 $-1 $29 $-1 $13 #
model_id-kcp-attrib $-1 -1 $-1 $15 $7 1 1021500156 1021500156 -929366013 1 #
shell $-1 -1 $-1 $-1 $-1 $30 $-1 $16 #
model_id-kcp-attrib $-1 -1 $-1 $-1 $18 1 1021500156 1021500156 -936640511 2 #
face $31 -1 $-1 $32 $33 $8 $-1 $34 forward single #
loop $-1 -1 $-1 $-1 $35 $18 #
plane-surface $-1 -1 $-1 -10.024080688773235 22.5 -37.5 0 1 0 0 0 -1 forward_v I I I I #
face $-1 -1 $-1 $36 $37 $19 $-1 $38 forward single #
face $-1 -1 $-1 $39 $40 $21 $-1 $41 forward single #
face $-1 -1 $-1 $42 $43 $23 $-1 $44 reversed single #
model_id-kcp-attrib $-1 -1 $-1 $-1 $25 1 1021500156 1021500156 -936640511 3 #
face $45 -1 $-1 $46 $47 $8 $-1 $48 forward single #
loop $-1 -1 $-1 $-1 $49 $25 #
cone-surface $-1 -1 $-1 -2 22.5 -57.5 0 1 0 0 0 -5 1 I I 0 1 5 forward I I I I #
coedge $-1 -1 $-1 $50 $50 $51 $52 reversed $26 $-1 #
face $-1 -1 $-1 $53 $54 $19 $-1 $55 reversed single #
loop $-1 -1 $-1 $-1 $56 $28 #
plane-surface $-1 -1 $-1 0 0 5.0000000000000213 0 0 1 1 0 0 forward_v I I I I #
face $-1 -1 $-1 $57 $58 $21 $-1 $59 forward single #
loop $-1 -1 $-1 $60 $61 $29 #
cone-surface $-1 -1 $-1 0 -0.45000000000002238 -2.1316282072803006e-014 0 1 0 0 0 -3.5 1 I I 0 -1 3.5 forward I I I I #
face $-1 -1 $-1 $62 $63 $23 $-1 $44 reversed single #
loop $-1 -1 $-1 $-1 $64 $30 #
cone-surface $-1 -1 $-1 -1.7763568394002505e-015 -0.75000000000001776 -2.1316282072803006e-014 0 -1 0 5 0 0 1 I I 0 1 5 forward I I I I #
model_id-kcp-attrib $-1 -1 $-1 $-1 $32 1 1021500156 1021500156 -936640511 4 #
face $65 -1 $-1 $66 $67 $8 $-1 $68 forward single #
loop $-1 -1 $-1 $-1 $69 $32 #
cone-surface $-1 -1 $-1 -2 22.5 -57.5 0 1 0 0 0 -5 1 I I 0 1 5 forward I I I I #
coedge $-1 -1 $-1 $70 $51 $71 $72 forward $33 $-1 #
coedge $-1 -1 $-1 $35 $35 $73 $74 reversed $26 $-1 #
coedge $-1 -1 $-1 $49 $75 $35 $52 forward $33 $-1 #
edge $76 -1 $-1 $77 0 $78 3.1415926535897931 $35 $79 forward @7 unknown #
face $80 -1 $-1 $81 $82 $19 $-1 $83 reversed single #
loop $-1 -1 $-1 $-1 $84 $36 #
plane-surface $-1 -1 $-1 0 0 -5.0000000000000213 0 0 1 1 0 0 forward_v I I I I #
coedge $-1 -1 $-1 $85 $86 $87 $88 forward $37 $-1 #
face $-1 -1 $-1 $89 $90 $21 $-1 $91 forward single #
loop $-1 -1 $-1 $92 $93 $39 #
cone-surface $-1 -1 $-1 0 -0.45000000000002238 -2.1316282072803006e-014 0 1 0 0 0 -4 1 I I 0 1 4 forward I I I I #
loop $-1 -1 $-1 $-1 $94 $29 #
coedge $-1 -1 $-1 $61 $61 $95 $96 forward $40 $-1 #
face $-1 -1 $-1 $97 $98 $23 $-1 $44 reversed single #
loop $-1 -1 $-1 $-1 $99 $42 #
coedge $-1 -1 $-1 $100 $101 $102 $103 reversed $43 $-1 #
model_id-kcp-attrib $-1 -1 $-1 $-1 $46 1 1021500156 1021500156 -936640511 5 #
face $104 -1 $-1 $105 $106 $8 $-1 $107 reversed single #
loop $-1 -1 $-1 $108 $109 $46 #
plane-surface $-1 -1 $-1 -10.024080688773235 24 -37.5 0 1 0 0 0 -1 forward_v I I I I #
coedge $-1 -1 $-1 $110 $73 $75 $111 forward $47 $-1 #
coedge $-1 -1 $-1 $75 $49 $109 $112 reversed $33 $-1 #
coedge $-1 -1 $-1 $73 $110 $49 $72 reversed $47 $-1 #
edge $-1 -1 $-1 $78 0 $113 1.5 $71 $114 forward @7 unknown #
coedge $-1 -1 $-1 $69 $71 $50 $74 forward $47 $-1 #
edge $115 -1 $-1 $78 0 $77 3.1415926535897931 $50 $116 forward @7 unknown #
coedge $-1 -1 $-1 $51 $70 $69 $111 reversed $33 $-1 #
attrib_edge_convexity-kcp-attrib $-1 -1 $117 $-1 $52 1 #
vertex $-1 -1 $-1 $74 $118 #
vertex $-1 -1 $-1 $74 $119 #
ellipse-curve $-1 -1 $-1 -2 22.5 -57.5 0 1 0 -5.0000000000000018 0 0 1 I I #
model_id-kcp-attrib $-1 -1 $-1 $-1 $53 1 1021500156 1021500156 -936640510 2 #
face $-1 -1 $-1 $120 $121 $19 $-1 $122 reversed single #
loop $-1 -1 $-1 $-1 $123 $53 #
plane-surface $-1 -1 $-1 0 -0.75000000000001776 0 0 1 0 0 0 1 forward_v I I I I #
coedge $-1 -1 $-1 $124 $125 $126 $127 forward $54 $-1 #
coedge $-1 -1 $-1 $128 $56 $129 $130 forward $37 $-1 #
coedge $-1 -1 $-1 $56 $128 $131 $132 forward $37 $-1 #
coedge $-1 -1 $-1 $133 $134 $56 $88 reversed $135 $-1 #
edge $-1 -1 $-1 $136 -0.75000000000001776 $137 0.75000000000001776 $87 $138 forward @7 unknown #
face $-1 -1 $-1 $-1 $139 $21 $-1 $140 reversed single #
loop $-1 -1 $-1 $141 $142 $57 #
plane-surface $-1 -1 $-1 -1.1102230246251565e-016 -0.05000000000002025 -2.1473731883568023e-014 -4.886748970395649e-033 1 3.4905349788540331e-033 0 -3.4905349788540331e-033 1 forward_v I I I I #
loop $-1 -1 $-1 $-1 $143 $39 #
coedge $-1 -1 $-1 $93 $93 $142 $144 forward $58 $-1 #
coedge $-1 -1 $-1 $94 $94 $145 $146 reversed $60 $-1 #
coedge $-1 -1 $-1 $95 $95 $61 $96 reversed $141 $-1 #
edge $-1 -1 $-1 $147 -3.1415926535897936 $147 3.1415926535897927 $61 $148 forward @7 unknown #
face $-1 -1 $-1 $149 $150 $23 $-1 $44 reversed single #
loop $-1 -1 $-1 $-1 $151 $62 #
coedge $-1 -1 $-1 $152 $153 $154 $155 reversed $63 $-1 #
coedge $-1 -1 $-1 $156 $64 $157 $158 forward $43 $-1 #
coedge $-1 -1 $-1 $64 $156 $159 $160 reversed $43 $-1 #
coedge $-1 -1 $-1 $161 $162 $64 $103 forward $163 $-1 #
edge $-1 -1 $-1 $164 0 $165 1.5707963267948966 $102 $166 forward @7 unknown #
model_id-kcp-attrib $-1 -1 $-1 $-1 $66 1 1021500156 1021500156 -936640511 6 #
face $167 -1 $-1 $168 $169 $8 $-1 $170 reversed single #
loop $-1 -1 $-1 $-1 $171 $66 #
cone-surface $-1 -1 $-1 -2 20.199999999999999 -57.5 0 -1 0 0 0 -0.99999999999999989 1 I I -0.70710678118654746 0.70710678118654757 0.99999999999999989 forward I I I I #
loop $-1 -1 $-1 $-1 $172 $46 #
coedge $-1 -1 $-1 $173 $173 $70 $112 forward $67 $-1 #
coedge $-1 -1 $-1 $71 $69 $173 $174 reversed $47 $-1 #
edge $-1 -1 $-1 $77 0 $175 1.5 $69 $176 forward @7 unknown #
edge $-1 -1 $-1 $175 0 $113 3.14159265358981 $109 $177 forward @7 unknown #
vertex $-1 -1 $-1 $174 $178 #
straight-curve $-1 -1 $-1 3 22.5 -57.500000000000028 0 1 0 I I #
attrib_edge_convexity-kcp-attrib $-1 -1 $179 $-1 $74 1 #
ellipse-curve $-1 -1 $-1 -2 22.5 -57.5 0 1 0 4.9999999999999982 0 0 1 I I #
convexity-sys-attrib $-1 -1 $-1 $76 $52 #
point $-1 -1 $-1 -7.0000000000000018 22.5 -57.5 #
point $-1 -1 $-1 2.9999999999999982 22.5 -57.5 #
face $180 -1 $-1 $181 $182 $19 $-1 $183 reversed single #
loop $-1 -1 $-1 $-1 $184 $81 #
plane-surface $-1 -1 $-1 -5.0000000000000018 0 0 1 0 0 0 0 -1 forward_v I I I I #
coedge $-1 -1 $-1 $185 $131 $186 $187 forward $82 $-1 #
coedge $-1 -1 $-1 $188 $84 $185 $189 forward $54 $-1 #
coedge $-1 -1 $-1 $84 $188 $190 $191 forward $54 $-1 #
coedge $-1 -1 $-1 $134 $133 $84 $127 reversed $135 $-1 #
edge $-1 -1 $-1 $192 -0.75000000000001776 $193 0.75000000000001776 $126 $194 forward @7 unknown #
coedge $-1 -1 $-1 $86 $85 $195 $196 forward $37 $-1 #
coedge $-1 -1 $-1 $197 $198 $85 $130 reversed $182 $-1 #
edge $-1 -1 $-1 $137 -5.0000000000000018 $199 5.0000000000000018 $129 $200 forward @7 unknown #
coedge $-1 -1 $-1 $123 $201 $86 $132 reversed $82 $-1 #
edge $-1 -1 $-1 $202 -5.0000000000000018 $136 5.0000000000000018 $131 $203 forward @7 unknown #
coedge $-1 -1 $-1 $126 $87 $201 $204 forward $135 $-1 #
coedge $-1 -1 $-1 $87 $126 $197 $205 reversed $135 $-1 #
loop $-1 -1 $-1 $-1 $133 $181 #
vertex $-1 -1 $-1 $88 $206 #
vertex $-1 -1 $-1 $88 $207 #
straight-curve $-1 -1 $-1 5.0000000000000018 0 5.0000000000000213 0 1 0 I I #
loop $-1 -1 $-1 $208 $209 $89 #
plane-surface $-1 -1 $-1 -1.1102230246251565e-016 -0.45000000000002238 -2.1473731883568023e-014 -4.886748970395649e-033 1 3.4905349788540331e-033 0 -3.4905349788540331e-033 1 forward_v I I I I #
loop $-1 -1 $-1 $-1 $95 $57 #
coedge $-1 -1 $-1 $142 $142 $93 $144 reversed $90 $-1 #
coedge $-1 -1 $-1 $143 $143 $209 $210 reversed $92 $-1 #
edge $-1 -1 $-1 $211 -3.1415926535897927 $211 3.1415926535897936 $93 $212 forward @7 unknown #
coedge $-1 -1 $-1 $145 $145 $94 $146 forward $208 $-1 #
edge $213 -1 $-1 $214 5.0753052554292868e-016 $214 6.2831853071795871 $94 $215 forward @7 unknown #
vertex $-1 -1 $-1 $96 $216 #
ellipse-curve $-1 -1 $-1 0 -0.05000000000002025 -2.1316282072803006e-014 0 1 0 0 0 -3.5 1 I I #
face $-1 -1 $-1 $217 $218 $23 $-1 $219 forward single #
loop $-1 -1 $-1 $-1 $220 $97 #
coedge $-1 -1 $-1 $221 $222 $220 $223 forward $98 $-1 #
coedge $-1 -1 $-1 $224 $99 $225 $226 reversed $63 $-1 #
coedge $-1 -1 $-1 $99 $224 $101 $160 forward $63 $-1 #
coedge $-1 -1 $-1 $227 $228 $99 $155 forward $229 $-1 #
edge $-1 -1 $-1 $230 -3.1415926535897931 $231 -1.5707963267948966 $154 $232 forward @7 unknown #
coedge $-1 -1 $-1 $101 $100 $233 $234 reversed $43 $-1 #
coedge $-1 -1 $-1 $222 $221 $235 $158 reversed $98 $-1 #
edge $-1 -1 $-1 $164 -1.5000000000000355 $236 0 $235 $237 forward @7 unknown #
coedge $-1 -1 $-1 $238 $239 $240 $160 forward $241 $-1 #
edge $-1 -1 $-1 $165 -1.5000000000000355 $231 0 $159 $242 forward @7 unknown #
coedge $-1 -1 $-1 $162 $102 $239 $243 reversed $163 $-1 #
coedge $-1 -1 $-1 $102 $161 $244 $245 forward $163 $-1 #
loop $-1 -1 $-1 $-1 $102 $246 #
vertex $-1 -1 $-1 $247 $248 #
vertex $-1 -1 $-1 $249 $250 #
ellipse-curve $-1 -1 $-1 -1.7763568394002505e-015 0.75000000000001776 -2.1316282072803006e-014 0 -1 0 5 0 0 1 I I #
model_id-kcp-attrib $-1 -1 $-1 $-1 $105 1 1021500156 1021500156 -936640511 7 #
face $251 -1 $-1 $252 $253 $8 $-1 $254 reversed single #
loop $-1 -1 $-1 $-1 $255 $105 #
cone-surface $-1 -1 $-1 -2 20.199999999999999 -57.5 0 -1 0 0 0 -1.0000000000000089 1 I I -0.70710678118655068 0.70710678118654435 1.0000000000000089 forward I I I I #
coedge $-1 -1 $-1 $256 $257 $258 $259 forward $106 $-1 #
coedge $-1 -1 $-1 $260 $260 $257 $261 forward $108 $-1 #
coedge $-1 -1 $-1 $109 $109 $110 $174 forward $67 $-1 #
edge $-1 -1 $-1 $113 0 $175 3.1415926535897931 $173 $262 forward @7 unknown #
vertex $-1 -1 $-1 $174 $263 #
straight-curve $-1 -1 $-1 -7 22.5 -57.500000000000014 0 1 0 I I #
ellipse-curve $-1 -1 $-1 -2.0000000000000018 24 -57.499999999999957 0 1 0 -5 0 -4.2632564145606011e-014 1 I I #
point $-1 -1 $-1 2.9999999999999982 24 -57.5 #
convexity-sys-attrib $-1 -1 $-1 $115 $74 #
model_id-kcp-attrib $-1 -1 $-1 $-1 $120 1 1021500156 1021500156 -936640510 3 #
face $-1 -1 $-1 $-1 $135 $19 $-1 $264 reversed single #
loop $-1 -1 $-1 $-1 $197 $120 #
plane-surface $-1 -1 $-1 0 0.75000000000001776 0 0 -1 0 0 0 -1 forward_v I I I I #
coedge $-1 -1 $-1 $265 $195 $198 $266 forward $121 $-1 #
coedge $-1 -1 $-1 $201 $123 $124 $189 reversed $82 $-1 #
coedge $-1 -1 $-1 $195 $265 $123 $187 reversed $121 $-1 #
edge $-1 -1 $-1 $202 -5.0000000000000213 $267 5.0000000000000213 $186 $268 forward @7 unknown #
coedge $-1 -1 $-1 $125 $124 $265 $269 forward $54 $-1 #
edge $-1 -1 $-1 $193 -5.0000000000000018 $267 5.0000000000000018 $185 $270 forward @7 unknown #
coedge $-1 -1 $-1 $198 $197 $125 $191 reversed $182 $-1 #
edge $-1 -1 $-1 $271 -5.0000000000000018 $192 5.0000000000000018 $190 $272 forward @7 unknown #
vertex $-1 -1 $-1 $127 $273 #
vertex $-1 -1 $-1 $204 $274 #
straight-curve $-1 -1 $-1 5.0000000000000018 0 -5.0000000000000213 0 -1 0 I I #
coedge $-1 -1 $-1 $184 $186 $128 $196 reversed $121 $-1 #
edge $-1 -1 $-1 $199 -0.75000000000001776 $202 0.75000000000001776 $195 $275 forward @7 unknown #
coedge $-1 -1 $-1 $190 $129 $134 $205 forward $182 $-1 #
coedge $-1 -1 $-1 $129 $190 $184 $266 reversed $182 $-1 #
vertex $-1 -1 $-1 $130 $276 #
straight-curve $-1 -1 $-1 0 0.75000000000001776 5.0000000000000213 -1 0 0 I I #
coedge $-1 -1 $-1 $131 $185 $133 $204 reversed $82 $-1 #
vertex $-1 -1 $-1 $196 $277 #
straight-curve $-1 -1 $-1 0 -0.75000000000001776 5.0000000000000213 1 0 0 I I #
edge $-1 -1 $-1 $136 -5.0000000000000213 $193 5.0000000000000213 $133 $278 forward @7 unknown #
edge $-1 -1 $-1 $137 -5.0000000000000213 $192 5.0000000000000213 $134 $279 forward @7 unknown #
point $-1 -1 $-1 5.0000000000000018 -0.75000000000001776 5.0000000000000213 #
point $-1 -1 $-1 5.0000000000000018 0.75000000000001776 5.0000000000000213 #
loop $-1 -1 $-1 $-1 $145 $89 #
coedge $-1 -1 $-1 $209 $209 $143 $210 forward $139 $-1 #
edge $280 -1 $-1 $281 -4.4408920985006262e-016 $281 6.2831853071795862 $143 $282 forward @7 unknown #
vertex $-1 -1 $-1 $144 $283 #
ellipse-curve $-1 -1 $-1 0 -0.05000000000002025 -2.1316282072803006e-014 0 -1 0 0 0 -4 1 I I #
convexity-sys-attrib $-1 -1 $-1 $-1 $146 #
vertex $-1 -1 $-1 $146 $284 #
ellipse-curve $-1 -1 $-1 0 -0.45000000000002238 -2.1316282072803006e-014 0 1 0 0 0 -3.5 1 I I #
point $-1 -1 $-1 -1.7763568394002505e-015 -0.050000000000018474 3.4999999999999787 #
face $-1 -1 $-1 $285 $286 $23 $-1 $287 reversed single #
loop $-1 -1 $-1 $-1 $240 $149 #
plane-surface $-1 -1 $-1 0 0 5.0000000000000213 0 0 1 1 0 0 forward_v I I I I #
coedge $-1 -1 $-1 $288 $289 $290 $223 reversed $150 $-1 #
coedge $-1 -1 $-1 $157 $151 $291 $292 reversed $98 $-1 #
coedge $-1 -1 $-1 $151 $157 $293 $294 reversed $98 $-1 #
edge $-1 -1 $-1 $295 -1.5000000000000355 $296 0 $290 $297 forward @7 unknown #
coedge $-1 -1 $-1 $153 $152 $298 $299 reversed $63 $-1 #
coedge $-1 -1 $-1 $300 $301 $302 $226 forward $303 $-1 #
edge $-1 -1 $-1 $304 -1.5000000000000355 $230 0 $225 $305 forward @7 unknown #
coedge $-1 -1 $-1 $228 $154 $306 $307 reversed $229 $-1 #
coedge $-1 -1 $-1 $154 $227 $300 $308 forward $229 $-1 #
loop $-1 -1 $-1 $-1 $154 $309 #
vertex $-1 -1 $-1 $310 $311 #
vertex $-1 -1 $-1 $312 $313 #
ellipse-curve $-1 -1 $-1 -1.7763568394002505e-015 -0.75000000000001776 -2.1316282072803006e-014 0 1 0 5 0 0 1 I I #
coedge $-1 -1 $-1 $314 $315 $156 $234 forward $316 $-1 #
edge $-1 -1 $-1 $231 -1.5707963267948966 $236 0 $233 $232 forward @7 unknown #
coedge $-1 -1 $-1 $317 $318 $319 $158 forward $286 $-1 #
vertex $-1 -1 $-1 $320 $321 #
straight-curve $-1 -1 $-1 5.0000000000000018 -0.75000000000001776 -2.1316282072803006e-014 0 -1 0 I I #
coedge $-1 -1 $-1 $322 $159 $315 $312 forward $241 $-1 #
coedge $-1 -1 $-1 $159 $322 $161 $243 forward $241 $-1 #
coedge $-1 -1 $-1 $323 $306 $153 $160 reversed $218 $-1 #
loop $-1 -1 $-1 $-1 $159 $324 #
straight-curve $-1 -1 $-1 -1.7763568394002505e-015 -0.75000000000001776 5.0000000000000213 0 -1 0 I I #
edge $-1 -1 $-1 $325 -5.0000000000000018 $165 1.7763568394002505e-015 $161 $326 forward @7 unknown #
coedge $-1 -1 $-1 $327 $319 $162 $245 reversed $328 $-1 #
edge $-1 -1 $-1 $325 -5.0000000000000213 $164 2.1316282072803006e-014 $244 $329 forward @7 unknown #
face $-1 -1 $-1 $330 $163 $23 $-1 $331 reversed single #
edge $-1 -1 $-1 $164 2.1316282072803006e-014 $332 5.0000000000000213 $318 $329 forward @7 unknown #
point $-1 -1 $-1 5.0000000000000018 0.75000000000001776 -2.1316282072803006e-014 #
edge $-1 -1 $-1 $165 1.7763568394002505e-015 $333 5.0000000000000018 $334 $326 forward @7 unknown #
point $-1 -1 $-1 -1.7763568394002505e-015 0.75000000000001776 5.0000000000000213 #
model_id-kcp-attrib $-1 -1 $-1 $-1 $168 1 1021500156 1021500156 -936640511 8 #
face $335 -1 $-1 $336 $337 $8 $-1 $338 reversed single #
loop $-1 -1 $-1 $-1 $339 $168 #
cone-surface $-1 -1 $-1 -2 24 -57.5 0 -1 0 0 0 -4 1 I I 0 1 4 forward I I I I #
coedge $-1 -1 $-1 $340 $341 $342 $343 forward $169 $-1 #
coedge $-1 -1 $-1 $342 $171 $344 $345 forward $106 $-1 #
coedge $-1 -1 $-1 $171 $342 $172 $261 reversed $106 $-1 #
coedge $-1 -1 $-1 $341 $340 $171 $259 reversed $169 $-1 #
edge $-1 -1 $-1 $346 2.5121479338940459e-014 $347 1.131370849898472 $258 $348 forward @7 unknown #
coedge $-1 -1 $-1 $172 $172 $341 $349 forward $108 $-1 #
edge $-1 -1 $-1 $346 -8.7892656116158269e-016 $350 3.1415926535897949 $172 $351 forward @7 unknown #
ellipse-curve $-1 -1 $-1 -2.0000000000000018 24 -57.5 0 1 0 5 0 0 1 I I #
point $-1 -1 $-1 -7.0000000000000018 24 -57.5 #
plane-surface $-1 -1 $-1 5.0000000000000018 0 0 -1 0 0 0 0 1 forward_v I I I I #
coedge $-1 -1 $-1 $186 $184 $188 $269 reversed $121 $-1 #
edge $-1 -1 $-1 $199 -5.0000000000000213 $271 5.0000000000000213 $198 $352 forward @7 unknown #
vertex $-1 -1 $-1 $269 $353 #
straight-curve $-1 -1 $-1 -5.0000000000000018 -0.75000000000001776 0 0 0 -1 I I #
edge $-1 -1 $-1 $267 -0.75000000000001776 $271 0.75000000000001776 $265 $354 forward @7 unknown #
straight-curve $-1 -1 $-1 0 -0.75000000000001776 -5.0000000000000213 -1 0 0 I I #
vertex $-1 -1 $-1 $191 $355 #
straight-curve $-1 -1 $-1 0 0.75000000000001776 -5.0000000000000213 1 0 0 I I #
point $-1 -1 $-1 5.0000000000000018 0.75000000000001776 -5.0000000000000213 #
point $-1 -1 $-1 5.0000000000000018 -0.75000000000001776 -5.0000000000000213 #
straight-curve $-1 -1 $-1 -5.0000000000000018 0 5.0000000000000213 0 -1 0 I I #
point $-1 -1 $-1 -5.0000000000000018 0.75000000000001776 5.0000000000000213 #
point $-1 -1 $-1 -5.0000000000000018 -0.75000000000001776 5.0000000000000213 #
straight-curve $-1 -1 $-1 5.0000000000000018 -0.75000000000001776 0 0 0 -1 I I #
straight-curve $-1 -1 $-1 5.0000000000000018 0.75000000000001776 0 0 0 -1 I I #
convexity-sys-attrib $-1 -1 $-1 $-1 $210 #
vertex $-1 -1 $-1 $210 $356 #
ellipse-curve $-1 -1 $-1 0 -0.45000000000002238 -2.1316282072803006e-014 0 -1 0 0 0 -4 1 I I #
point $-1 -1 $-1 -1.7763568394002505e-015 -0.050000000000018474 4.0000000000000213 #
point $-1 -1 $-1 -1.7763568394002505e-015 -0.45000000000002061 -3.5000000000000213 #
face $-1 -1 $-1 $357 $358 $23 $-1 $359 reversed single #
loop $-1 -1 $-1 $-1 $235 $217 #
plane-surface $-1 -1 $-1 5.0000000000000018 0 0 -1 0 0 0 0 1 forward_v I I I I #
coedge $-1 -1 $-1 $360 $220 $361 $362 reversed $150 $-1 #
coedge $-1 -1 $-1 $220 $360 $363 $364 reversed $150 $-1 #
coedge $-1 -1 $-1 $365 $366 $367 $223 forward $368 $-1 #
coedge $-1 -1 $-1 $369 $370 $221 $292 forward $371 $-1 #
edge $-1 -1 $-1 $236 0 $296 1.5707963267948966 $291 $232 forward @7 unknown #
coedge $-1 -1 $-1 $372 $373 $222 $294 forward $374 $-1 #
edge $-1 -1 $-1 $295 -1.5707963267948966 $164 0 $293 $166 forward @7 unknown #
vertex $-1 -1 $-1 $375 $376 #
vertex $-1 -1 $-1 $377 $378 #
straight-curve $-1 -1 $-1 -1.7763568394002505e-015 -0.75000000000001776 -5.0000000000000213 0 -1 0 I I #
coedge $-1 -1 $-1 $379 $334 $224 $299 forward $380 $-1 #
edge $-1 -1 $-1 $165 1.5707963267948966 $304 3.1415926535897931 $298 $166 forward @7 unknown #
coedge $-1 -1 $-1 $381 $225 $228 $308 reversed $303 $-1 #
coedge $-1 -1 $-1 $225 $381 $379 $382 forward $303 $-1 #
coedge $-1 -1 $-1 $383 $384 $360 $226 reversed $358 $-1 #
loop $-1 -1 $-1 $-1 $225 $385 #
vertex $-1 -1 $-1 $386 $387 #
straight-curve $-1 -1 $-1 -5.0000000000000018 -0.75000000000001776 -2.1316282072803006e-014 0 -1 0 I I #
coedge $-1 -1 $-1 $240 $388 $227 $307 forward $218 $-1 #
edge $-1 -1 $-1 $389 -5.0000000000000018 $231 -1.7763568394002505e-015 $227 $390 forward @7 unknown #
edge $-1 -1 $-1 $389 -5.0000000000000213 $230 2.1316282072803006e-014 $300 $391 forward @7 unknown #
face $-1 -1 $-1 $392 $229 $23 $-1 $393 reversed single #
edge $-1 -1 $-1 $230 2.1316282072803006e-014 $394 5.0000000000000213 $384 $391 forward @7 unknown #
point $-1 -1 $-1 -5.0000000000000018 -0.75000000000001776 -2.1316282072803006e-014 #
edge $-1 -1 $-1 $231 -1.7763568394002505e-015 $395 5.0000000000000018 $315 $390 forward @7 unknown #
point $-1 -1 $-1 -1.7763568394002505e-015 -0.75000000000001776 5.0000000000000213 #
coedge $-1 -1 $-1 $315 $233 $396 $397 reversed $316 $-1 #
coedge $-1 -1 $-1 $233 $314 $238 $312 reversed $316 $-1 #
loop $-1 -1 $-1 $-1 $233 $392 #
coedge $-1 -1 $-1 $398 $235 $370 $320 forward $286 $-1 #
coedge $-1 -1 $-1 $235 $398 $372 $247 reversed $286 $-1 #
coedge $-1 -1 $-1 $244 $396 $100 $158 reversed $328 $-1 #
edge $-1 -1 $-1 $236 2.1316282072803006e-014 $399 5.0000000000000213 $317 $400 forward @7 unknown #
point $-1 -1 $-1 5.0000000000000018 -0.75000000000001776 -2.1316282072803006e-014 #
coedge $-1 -1 $-1 $239 $238 $327 $401 forward $241 $-1 #
coedge $-1 -1 $-1 $388 $240 $334 $249 forward $218 $-1 #
face $-1 -1 $-1 $402 $241 $23 $-1 $219 forward single #
vertex $-1 -1 $-1 $401 $403 #
straight-curve $-1 -1 $-1 0 0.75000000000001776 5.0000000000000213 -1 0 0 I I #
coedge $-1 -1 $-1 $396 $244 $322 $401 reversed $328 $-1 #
loop $-1 -1 $-1 $-1 $319 $404 #
straight-curve $-1 -1 $-1 5.0000000000000018 0.75000000000001776 0 0 0 -1 I I #
face $-1 -1 $-1 $405 $380 $23 $-1 $331 reversed single #
plane-surface $-1 -1 $-1 0 0.75000000000001776 0 0 -1 0 0 0 -1 forward_v I I I I #
vertex $-1 -1 $-1 $406 $407 #
vertex $-1 -1 $-1 $249 $408 #
coedge $-1 -1 $-1 $298 $379 $323 $249 reversed $380 $-1 #
model_id-kcp-attrib $-1 -1 $-1 $-1 $252 1 1021500156 1021500156 -936640511 9 #
face $409 -1 $-1 $410 $411 $8 $-1 $412 forward single #
loop $-1 -1 $-1 $413 $414 $252 #
plane-surface $-1 -1 $-1 -10.024080688773235 22.799999999999997 -37.5 0 -1 0 0 0 -1 forward_v I I I I #
coedge $-1 -1 $-1 $415 $416 $417 $418 reversed $253 $-1 #
coedge $-1 -1 $-1 $258 $255 $419 $420 forward $169 $-1 #
coedge $-1 -1 $-1 $255 $258 $260 $349 reversed $169 $-1 #
coedge $-1 -1 $-1 $257 $256 $255 $343 reversed $106 $-1 #
edge $-1 -1 $-1 $350 2.5121479338940408e-014 $421 1.131370849898472 $255 $422 forward @7 unknown #
coedge $-1 -1 $-1 $423 $424 $256 $345 reversed $425 $-1 #
edge $-1 -1 $-1 $347 1.1102230246251565e-016 $421 3.1415926535897931 $344 $426 forward @7 unknown #
vertex $-1 -1 $-1 $349 $427 #
vertex $-1 -1 $-1 $420 $428 #
straight-curve $-1 -1 $-1 -1.9999999999999989 24 -52.700000000000003 -1.9626155733547216e-016 -0.70710678118654913 -0.70710678118654602 I I #
edge $-1 -1 $-1 $350 0 $346 3.1415926535897949 $260 $429 forward @7 unknown #
vertex $-1 -1 $-1 $349 $430 #
ellipse-curve $-1 -1 $-1 -2.0000000000000036 24 -57.5 0 -1 0 4.6629367034256575e-015 0 4.7999999999999972 1 I I #
straight-curve $-1 -1 $-1 -5.0000000000000018 0.75000000000001776 0 0 0 -1 I I #
point $-1 -1 $-1 -5.0000000000000018 -0.75000000000001776 -5.0000000000000213 #
straight-curve $-1 -1 $-1 -5.0000000000000018 0 -5.0000000000000213 0 1 0 I I #
point $-1 -1 $-1 -5.0000000000000018 0.75000000000001776 -5.0000000000000213 #
point $-1 -1 $-1 -1.7763568394002505e-015 -0.45000000000002061 -4.0000000000000213 #
face $-1 -1 $-1 $309 $431 $23 $-1 $393 reversed single #
loop $-1 -1 $-1 $-1 $302 $285 #
plane-surface $-1 -1 $-1 -5.0000000000000018 0 0 1 0 0 0 0 -1 forward_v I I I I #
coedge $-1 -1 $-1 $289 $288 $152 $226 forward $150 $-1 #
coedge $-1 -1 $-1 $432 $433 $288 $362 forward $434 $-1 #
edge $-1 -1 $-1 $304 -3.1415926535897931 $295 -1.5707963267948966 $361 $166 forward @7 unknown #
coedge $-1 -1 $-1 $435 $436 $289 $364 forward $431 $-1 #
edge $-1 -1 $-1 $296 1.5707963267948966 $230 3.1415926535897931 $363 $232 forward @7 unknown #
coedge $-1 -1 $-1 $437 $290 $436 $377 forward $368 $-1 #
coedge $-1 -1 $-1 $290 $437 $432 $438 forward $368 $-1 #
coedge $-1 -1 $-1 $439 $440 $151 $223 reversed $441 $-1 #
loop $-1 -1 $-1 $-1 $290 $402 #
coedge $-1 -1 $-1 $370 $291 $440 $442 reversed $371 $-1 #
coedge $-1 -1 $-1 $291 $369 $317 $320 reversed $371 $-1 #
loop $-1 -1 $-1 $-1 $291 $443 #
coedge $-1 -1 $-1 $373 $293 $318 $247 forward $374 $-1 #
coedge $-1 -1 $-1 $293 $372 $439 $375 reversed $374 $-1 #
loop $-1 -1 $-1 $-1 $293 $444 #
edge $-1 -1 $-1 $295 -1.7763568394002505e-015 $332 5.0000000000000018 $373 $445 forward @7 unknown #
point $-1 -1 $-1 -1.7763568394002505e-015 0.75000000000001776 -5.0000000000000213 #
edge $-1 -1 $-1 $296 1.7763568394002505e-015 $394 5.0000000000000018 $436 $446 forward @7 unknown #
point $-1 -1 $-1 -1.7763568394002505e-015 -0.75000000000001776 -5.0000000000000213 #
coedge $-1 -1 $-1 $334 $298 $301 $382 reversed $380 $-1 #
loop $-1 -1 $-1 $-1 $298 $330 #
coedge $-1 -1 $-1 $301 $300 $388 $447 reversed $303 $-1 #
edge $-1 -1 $-1 $333 -5.0000000000000213 $304 2.1316282072803006e-014 $379 $448 forward @7 unknown #
coedge $-1 -1 $-1 $449 $302 $433 $386 forward $358 $-1 #
coedge $-1 -1 $-1 $302 $449 $435 $310 reversed $358 $-1 #
face $-1 -1 $-1 $404 $303 $23 $-1 $359 reversed single #
edge $-1 -1 $-1 $304 2.1316282072803006e-014 $450 5.0000000000000213 $433 $448 forward @7 unknown #
point $-1 -1 $-1 -5.0000000000000018 0.75000000000001776 -2.1316282072803006e-014 #
coedge $-1 -1 $-1 $306 $323 $381 $447 forward $218 $-1 #
vertex $-1 -1 $-1 $447 $451 #
straight-curve $-1 -1 $-1 0 -0.75000000000001776 5.0000000000000213 1 0 0 I I #
straight-curve $-1 -1 $-1 -5.0000000000000018 -0.75000000000001776 0 0 0 -1 I I #
face $-1 -1 $-1 $443 $316 $23 $-1 $393 reversed single #
plane-surface $-1 -1 $-1 0 -0.75000000000001776 0 0 1 0 0 0 1 forward_v I I I I #
vertex $-1 -1 $-1 $452 $453 #
vertex $-1 -1 $-1 $401 $454 #
coedge $-1 -1 $-1 $319 $327 $314 $397 forward $328 $-1 #
edge $-1 -1 $-1 $395 -5.0000000000000213 $236 2.1316282072803006e-014 $396 $400 forward @7 unknown #
coedge $-1 -1 $-1 $318 $317 $455 $406 reversed $286 $-1 #
vertex $-1 -1 $-1 $320 $456 #
straight-curve $-1 -1 $-1 5.0000000000000018 -0.75000000000001776 0 0 0 -1 I I #
edge $-1 -1 $-1 $395 -0.75000000000001776 $325 0.75000000000001776 $327 $457 forward @7 unknown #
face $-1 -1 $-1 $385 $368 $23 $-1 $458 reversed single #
point $-1 -1 $-1 5.0000000000000018 0.75000000000001776 5.0000000000000213 #
face $-1 -1 $-1 $-1 $328 $23 $-1 $287 reversed single #
face $-1 -1 $-1 $459 $434 $23 $-1 $331 reversed single #
edge $-1 -1 $-1 $332 -0.75000000000001776 $399 0.75000000000001776 $398 $460 forward @7 unknown #
point $-1 -1 $-1 5.0000000000000018 0.75000000000001776 -5.0000000000000213 #
point $-1 -1 $-1 -5.0000000000000018 0.75000000000001776 5.0000000000000213 #
model_id-kcp-attrib $-1 -1 $-1 $-1 $336 1 1021500156 1021500156 -936640511 10 #
face $461 -1 $-1 $462 $463 $8 $-1 $464 forward single #
loop $-1 -1 $-1 $-1 $465 $336 #
cone-surface $-1 -1 $-1 -2 24 -57.5 0 -1 0 0 0 -3.5 1 I I 0 1 3.5 forward I I I I #
loop $-1 -1 $-1 $-1 $466 $252 #
coedge $-1 -1 $-1 $467 $467 $468 $469 forward $337 $-1 #
coedge $-1 -1 $-1 $419 $339 $423 $470 forward $253 $-1 #
coedge $-1 -1 $-1 $339 $419 $424 $471 reversed $253 $-1 #
coedge $-1 -1 $-1 $466 $466 $339 $418 forward $413 $-1 #
edge $472 -1 $-1 $473 0 $474 3.1415926535897816 $417 $475 forward @7 unknown #
coedge $-1 -1 $-1 $416 $415 $340 $420 reversed $253 $-1 #
edge $-1 -1 $-1 $421 1.3805065841367731e-030 $347 3.1415926535897944 $419 $476 forward @7 unknown #
vertex $-1 -1 $-1 $471 $477 #
straight-curve $-1 -1 $-1 -2.0000000000000107 24 -62.299999999999997 -4.7102773760513317e-015 -0.70710678118654913 0.70710678118654602 I I #
coedge $-1 -1 $-1 $478 $344 $415 $470 reversed $425 $-1 #
coedge $-1 -1 $-1 $344 $478 $416 $471 forward $425 $-1 #
loop $-1 -1 $-1 $-1 $344 $479 #
ellipse-curve $-1 -1 $-1 -1.9999999999999996 23.199999999999999 -57.5 0 -1 0 4.4408920985006262e-016 0 4 1 I I #
point $-1 -1 $-1 -1.9999999999999947 23.999999999999964 -52.700000000000003 #
point $-1 -1 $-1 -1.9999999999999996 23.200000000000003 -53.5 #
ellipse-curve $-1 -1 $-1 -1.9999999999999929 24 -57.5 1.0956401461402955e-029 -1 7.4014868308343806e-015 -7.1054273576010019e-015 -3.5527136788005009e-014 -4.7999999999999972 1 I I #
point $-1 -1 $-1 -2 23.999999999999964 -62.299999999999997 #
loop $-1 -1 $-1 $-1 $363 $357 #
coedge $-1 -1 $-1 $433 $361 $366 $438 reversed $434 $-1 #
coedge $-1 -1 $-1 $361 $432 $383 $386 reversed $434 $-1 #
loop $-1 -1 $-1 $-1 $361 $405 #
coedge $-1 -1 $-1 $436 $363 $384 $310 forward $431 $-1 #
coedge $-1 -1 $-1 $363 $435 $365 $377 reversed $431 $-1 #
coedge $-1 -1 $-1 $366 $365 $449 $452 forward $368 $-1 #
edge $-1 -1 $-1 $450 -5.0000000000000018 $295 -1.7763568394002505e-015 $432 $445 forward @7 unknown #
coedge $-1 -1 $-1 $455 $367 $373 $375 forward $441 $-1 #
coedge $-1 -1 $-1 $367 $455 $369 $442 forward $441 $-1 #
loop $-1 -1 $-1 $-1 $367 $459 #
edge $-1 -1 $-1 $399 -5.0000000000000018 $296 1.7763568394002505e-015 $369 $446 forward @7 unknown #
face $-1 -1 $-1 $444 $371 $23 $-1 $393 reversed single #
face $-1 -1 $-1 $246 $374 $23 $-1 $331 reversed single #
straight-curve $-1 -1 $-1 0 0.75000000000001776 -5.0000000000000213 1 0 0 I I #
straight-curve $-1 -1 $-1 0 -0.75000000000001776 -5.0000000000000213 -1 0 0 I I #
edge $-1 -1 $-1 $333 -0.75000000000001776 $389 0.75000000000001776 $381 $480 forward @7 unknown #
straight-curve $-1 -1 $-1 -5.0000000000000018 0.75000000000001776 0 0 0 -1 I I #
coedge $-1 -1 $-1 $384 $383 $437 $452 reversed $358 $-1 #
vertex $-1 -1 $-1 $438 $481 #
point $-1 -1 $-1 -5.0000000000000018 -0.75000000000001776 5.0000000000000213 #
edge $-1 -1 $-1 $394 -0.75000000000001776 $450 0.75000000000001776 $449 $482 forward @7 unknown #
point $-1 -1 $-1 -5.0000000000000018 -0.75000000000001776 -5.0000000000000213 #
point $-1 -1 $-1 5.0000000000000018 -0.75000000000001776 5.0000000000000213 #
coedge $-1 -1 $-1 $440 $439 $398 $406 forward $441 $-1 #
point $-1 -1 $-1 5.0000000000000018 -0.75000000000001776 -5.0000000000000213 #
straight-curve $-1 -1 $-1 5.0000000000000018 0 5.0000000000000213 0 1 0 I I #
plane-surface $-1 -1 $-1 0 0 -5.0000000000000213 0 0 1 1 0 0 forward_v I I I I #
face $-1 -1 $-1 $324 $441 $23 $-1 $458 reversed single #
straight-curve $-1 -1 $-1 5.0000000000000018 0 -5.0000000000000213 0 -1 0 I I #
model_id-kcp-attrib $-1 -1 $-1 $-1 $410 1 1021500156 1021500156 -936640511 11 #
face $483 -1 $-1 $484 $485 $8 $-1 $486 forward single #
loop $-1 -1 $-1 $-1 $487 $410 #
cone-surface $-1 -1 $-1 -2 24 -57.5 0 -1 0 0 0 -3.5 1 I I 0 1 3.5 forward I I I I #
coedge $-1 -1 $-1 $468 $488 $489 $490 reversed $411 $-1 #
coedge $-1 -1 $-1 $417 $417 $478 $491 forward $413 $-1 #
coedge $-1 -1 $-1 $414 $414 $492 $493 forward $337 $-1 #
coedge $-1 -1 $-1 $494 $465 $414 $469 reversed $411 $-1 #
edge $495 -1 $-1 $496 0 $497 3.1415926535897931 $414 $498 forward @7 unknown #
edge $-1 -1 $-1 $473 -3.5527136788005009e-015 $347 0.40000000000000213 $415 $499 forward @7 unknown #
edge $-1 -1 $-1 $474 -3.5527136788005009e-015 $421 0.40000000000000213 $416 $500 forward @7 unknown #
attrib_edge_convexity-kcp-attrib $-1 -1 $501 $-1 $418 2 #
vertex $-1 -1 $-1 $418 $502 #
vertex $-1 -1 $-1 $418 $503 #
ellipse-curve $-1 -1 $-1 -2.0000000000000249 22.799999999999997 -57.499999999999979 0 1 0 2.3092638912203256e-014 0 4.0000000000000213 1 I I #
ellipse-curve $-1 -1 $-1 -1.9999999999999969 23.199999999999967 -57.5 0 -1 0 -3.1086244689504383e-015 0 -3.9999999999999929 1 I I #
point $-1 -1 $-1 -2 23.200000000000003 -61.5 #
coedge $-1 -1 $-1 $424 $423 $466 $491 reversed $425 $-1 #
face $504 -1 $-1 $-1 $425 $8 $-1 $505 reversed single #
straight-curve $-1 -1 $-1 -5.0000000000000018 0 5.0000000000000213 0 -1 0 I I #
point $-1 -1 $-1 -5.0000000000000018 0.75000000000001776 -5.0000000000000213 #
straight-curve $-1 -1 $-1 -5.0000000000000018 0 -5.0000000000000213 0 1 0 I I #
model_id-kcp-attrib $-1 -1 $-1 $-1 $462 1 1021500156 1021500156 -936640511 12 #
face $506 -1 $-1 $507 $508 $8 $-1 $509 forward single #
loop $-1 -1 $-1 $-1 $510 $462 #
torus-surface $-1 -1 $-1 -2 23.199999999999999 -57.5 0 -1 0 2.6999999999999931 0.79999999999999993 0.0029531263196626635 0 -0.99999563951296322 forward_v I I I I #
coedge $-1 -1 $-1 $492 $511 $494 $512 reversed $463 $-1 #
coedge $-1 -1 $-1 $465 $494 $513 $514 reversed $411 $-1 #
coedge $-1 -1 $-1 $511 $492 $465 $490 forward $463 $-1 #
edge $-1 -1 $-1 $497 -3.5527136788005009e-015 $515 0.39999999999999858 $489 $516 forward @7 unknown #
edge $517 -1 $-1 $474 0 $473 3.1415926535897833 $466 $518 forward @7 unknown #
coedge $-1 -1 $-1 $489 $487 $467 $493 reversed $463 $-1 #
edge $519 -1 $-1 $497 0 $496 3.1415926535897931 $467 $520 forward @7 unknown #
coedge $-1 -1 $-1 $488 $468 $487 $512 forward $411 $-1 #
attrib_edge_convexity-kcp-attrib $-1 -1 $521 $-1 $469 2 #
vertex $-1 -1 $-1 $493 $522 #
vertex $-1 -1 $-1 $493 $523 #
ellipse-curve $-1 -1 $-1 -2.0000000000000018 22.799999999999997 -57.5 0 -1 0 0 0 -3.5 1 I I #
straight-curve $-1 -1 $-1 -1.9999999999999996 22.800000000000001 -53.5 0 1 0 I I #
straight-curve $-1 -1 $-1 -2 22.800000000000001 -61.5 0 1 0 I I #
convexity-sys-attrib $-1 -1 $-1 $472 $418 #
point $-1 -1 $-1 -2.0000000000000018 22.799999999999997 -53.499999999999957 #
point $-1 -1 $-1 -2.0000000000000018 22.799999999999997 -61.5 #
model_id-kcp-attrib $-1 -1 $-1 $-1 $479 1 1021500156 1021500156 -936640511 15 #
cone-surface $-1 -1 $-1 -2 24 -57.5 0 -1 0 0 0 -4 1 I I 0 1 4 forward I I I I #
model_id-kcp-attrib $-1 -1 $-1 $-1 $484 1 1021500156 1021500156 -936640511 13 #
face $524 -1 $-1 $479 $525 $8 $-1 $526 forward single #
loop $-1 -1 $-1 $-1 $527 $484 #
torus-surface $-1 -1 $-1 -2 23.199999999999999 -57.5 0 -1 0 2.6999999999999931 0.79999999999999993 -0.0029531263196622523 0 0.99999563951296322 forward_v I I I I #
coedge $-1 -1 $-1 $528 $529 $530 $531 forward $485 $-1 #
coedge $-1 -1 $-1 $487 $489 $528 $532 reversed $463 $-1 #
edge $-1 -1 $-1 $496 -3.5527136788005009e-015 $533 0.39999999999999858 $487 $534 forward @7 unknown #
coedge $-1 -1 $-1 $530 $527 $488 $514 forward $508 $-1 #
edge $-1 -1 $-1 $515 -1.3957089452430539e-015 $533 3.1415926535897936 $488 $535 forward @7 unknown #
vertex $-1 -1 $-1 $532 $536 #
straight-curve $-1 -1 $-1 -1.9999999999999996 22.800000000000001 -54 0 1 0 I I #
attrib_edge_convexity-kcp-attrib $-1 -1 $537 $-1 $491 2 #
ellipse-curve $-1 -1 $-1 -1.9999999999999822 22.799999999999997 -57.499999999999979 0 1 0 -1.9539925233402755e-014 0 -4.0000000000000213 1 I I #
attrib_edge_convexity-kcp-attrib $-1 -1 $538 $-1 $493 2 #
ellipse-curve $-1 -1 $-1 -2.0000000000000018 22.799999999999997 -57.5 0 -1 0 0 0 3.5 1 I I #
convexity-sys-attrib $-1 -1 $-1 $495 $469 #
point $-1 -1 $-1 -2.0000000000000018 22.799999999999997 -61 #
point $-1 -1 $-1 -2.0000000000000018 22.799999999999997 -54 #
model_id-kcp-attrib $-1 -1 $-1 $-1 $507 1 1021500156 1021500156 -936640511 14 #
loop $-1 -1 $-1 $-1 $539 $507 #
plane-surface $-1 -1 $-1 -10.024080688773235 24 -37.5 0 1 0 0 0 -1 forward_v I I I I #
coedge $-1 -1 $-1 $513 $540 $541 $542 forward $508 $-1 #
coedge $-1 -1 $-1 $541 $510 $511 $532 forward $485 $-1 #
coedge $-1 -1 $-1 $510 $541 $543 $544 reversed $485 $-1 #
coedge $-1 -1 $-1 $540 $513 $510 $531 reversed $508 $-1 #
edge $-1 -1 $-1 $545 0 $533 1.5707963267948968 $510 $546 forward @7 unknown #
edge $-1 -1 $-1 $533 0 $515 3.1415926535897913 $511 $547 forward @7 unknown #
vertex $-1 -1 $-1 $532 $548 #
straight-curve $-1 -1 $-1 -2.0000000000000009 22.800000000000001 -61 0 1 0 I I #
ellipse-curve $-1 -1 $-1 -2 23.199999999999999 -57.5 0 1 0 -7.7196027348236385e-012 0 3.5 1 I I #
point $-1 -1 $-1 -2.0000000000077245 23.199999999999999 -54 #
convexity-sys-attrib $-1 -1 $-1 $517 $491 #
convexity-sys-attrib $-1 -1 $-1 $519 $493 #
coedge $-1 -1 $-1 $543 $543 $540 $549 forward $525 $-1 #
coedge $-1 -1 $-1 $527 $530 $539 $549 reversed $508 $-1 #
coedge $-1 -1 $-1 $529 $528 $527 $542 reversed $485 $-1 #
edge $-1 -1 $-1 $550 -4.7009145788492474e-024 $515 1.5707963267948968 $541 $551 forward @7 unknown #
coedge $-1 -1 $-1 $539 $539 $529 $544 forward $525 $-1 #
edge $-1 -1 $-1 $545 0 $550 3.1415926535499561 $543 $552 forward @7 unknown #
vertex $-1 -1 $-1 $544 $553 #
ellipse-curve $-1 -1 $-1 -1.9999999999953346 23.199999999999992 -60.199999999999996 -1 -5.2149951024204309e-012 -3.8154999154094584e-012 -4.1719960819364132e-012 0.80000000000000782 7.1054273576010019e-015 1 I I #
ellipse-curve $-1 -1 $-1 -2 23.199999999999999 -57.5 0 1 0 7.7178263779842382e-012 0 -3.5 1 I I #
point $-1 -1 $-1 -1.9999999999922822 23.199999999999999 -61 #
edge $-1 -1 $-1 $550 3.6456434578987782e-013 $545 3.1415926535495893 $539 $554 forward @7 unknown #
vertex $-1 -1 $-1 $544 $555 #
ellipse-curve $-1 -1 $-1 -2.0000000000046629 23.199999999999992 -54.800000000000004 1 -5.2130522121273377e-012 3.820623352982318e-012 4.170441769701938e-012 0.80000000000000782 -7.1054273576010019e-015 1 I I #
ellipse-curve $-1 -1 $-1 -1.999999999945727 24 -57.5 0 1 0 -5.3779647402052433e-011 0 -2.6999999999999886 1 I I #
point $-1 -1 $-1 -1.9999999999995066 24 -60.199999999999989 #
ellipse-curve $-1 -1 $-1 -2.0000000000542748 24 -57.5 0 1 0 5.3782311937311533e-011 0 2.6999999999999886 1 I I #
point $-1 -1 $-1 -1.9999999999995082 24 -54.800000000000011 #
End-of-ACIS-data 