700 0 2 0           
24 FBMach with ACIS - 7.0.3 13 ACIS 7.0.3 NT 24 Wed May 15 17:35:54 2002 
1 9.9999999999999995e-007 1e-010 
body $2 -1 $-1 $3 $-1 $4 #
bdycol-kcp $-1 -1 1 2 $5 $6 #
model_id-kcp-attrib $-1 -1 $-1 $-1 $0 1 1021498552 1021498553 -1490223103 1 #
lump $-1 -1 $-1 $-1 $7 $0 #
transform $-1 -1 1 0 0 0 1 0 0 0 1 0 0 0 1 rotate no_reflect no_shear #
body $8 -1 $-1 $9 $-1 $10 #
body $11 -1 $-1 $12 $-1 $13 #
shell $-1 -1 $-1 $-1 $-1 $14 $-1 $3 #
model_id-kcp-attrib $-1 -1 $-1 $-1 $5 1 1021498552 1021498553 -1490223102 1 #
lump $-1 -1 $-1 $-1 $15 $5 #
transform $-1 -1 1 0 0 0 1 0 0 0 1 0 1.25 0.75 1 no_rotate no_reflect no_shear #
rgb_color-st-attrib $-1 -1 $16 $-1 $6 1 0 0 #
lump $-1 -1 $-1 $-1 $17 $6 #
transform $-1 -1 1 0 0 0 1 0 0 0 1 0 1.25 0.75 1 no_rotate no_reflect no_shear #
face $18 -1 $-1 $19 $20 $7 $-1 $21 reversed single #
shell $-1 -1 $-1 $-1 $-1 $22 $-1 $9 #
model_id-kcp-attrib $-1 -1 $-1 $11 $6 1 1021498552 1021498553 -1489305597 1 #
shell $-1 -1 $-1 $-1 $-1 $23 $-1 $12 #
model_id-kcp-attrib $-1 -1 $-1 $-1 $14 1 1021498552 1021498553 -1490223103 2 #
face $24 -1 $-1 $25 $26 $7 $-1 $27 forward single #
loop $-1 -1 $-1 $-1 $28 $14 #
plane-surface $-1 -1 $-1 0 0 0 0 1 0 1 0 0 forward_v I I I I #
face $-1 -1 $-1 $29 $30 $15 $-1 $31 forward single #
face $-1 -1 $-1 $32 $33 $17 $-1 $34 forward single #
model_id-kcp-attrib $-1 -1 $-1 $-1 $19 1 1021498552 1021498553 -1490223103 3 #
face $35 -1 $-1 $36 $37 $7 $-1 $38 forward single #
loop $-1 -1 $-1 $-1 $39 $19 #
cone-surface $-1 -1 $-1 -11 0 9.5 0 1 0 1.5 0 0 1 I I 0 1 1.5 forward I I I I #
coedge $-1 -1 $-1 $40 $41 $39 $42 reversed $20 $-1 #
face $43 -1 $-1 $44 $45 $15 $-1 $46 reversed single #
loop $-1 -1 $-1 $-1 $47 $22 #
plane-surface $-1 -1 $-1 0 0 10.25 0 0 1 1 0 0 forward_v I I I I #
face $-1 -1 $-1 $48 $49 $17 $-1 $50 forward single #
loop $-1 -1 $-1 $-1 $51 $23 #
plane-surface $-1 -1 $-1 11 0.75 -8.75 1 0 0 0 0 -1 forward_v I I I I #
model_id-kcp-attrib $-1 -1 $-1 $-1 $25 1 1021498552 1021498553 -1490223103 4 #
face $52 -1 $-1 $53 $54 $7 $-1 $55 forward single #
loop $-1 -1 $-1 $-1 $56 $25 #
plane-surface $-1 -1 $-1 -13.5 0 9.5 0 0 1 1 0 0 forward_v I I I I #
coedge $-1 -1 $-1 $57 $58 $28 $42 forward $26 $-1 #
coedge $-1 -1 $-1 $59 $28 $60 $61 reversed $20 $-1 #
coedge $-1 -1 $-1 $28 $62 $63 $64 reversed $20 $-1 #
edge $65 -1 $-1 $66 0 $67 3.1415926535897931 $28 $68 forward @7 unknown #
model_id-kcp-attrib $-1 -1 $-1 $-1 $29 1 1021498552 1021498553 -1490223102 4 #
face $69 -1 $-1 $70 $71 $15 $-1 $72 reversed single #
loop $-1 -1 $-1 $-1 $73 $29 #
plane-surface $-1 -1 $-1 0 0 -10.25 0 0 1 1 0 0 forward_v I I I I #
coedge $-1 -1 $-1 $74 $75 $76 $77 forward $30 $-1 #
face $-1 -1 $-1 $78 $79 $17 $-1 $80 forward single #
loop $-1 -1 $-1 $-1 $81 $32 #
plane-surface $-1 -1 $-1 11 0.75 5.75 0 0 1 1 0 0 forward_v I I I I #
coedge $-1 -1 $-1 $82 $83 $84 $85 forward $33 $-1 #
model_id-kcp-attrib $-1 -1 $-1 $-1 $36 1 1021498552 1021498553 -1490223103 5 #
face $86 -1 $-1 $87 $88 $7 $-1 $89 forward single #
loop $-1 -1 $-1 $90 $91 $36 #
plane-surface $-1 -1 $-1 0 2.5 0 0 1 0 1 0 0 forward_v I I I I #
coedge $-1 -1 $-1 $92 $93 $94 $95 reversed $37 $-1 #
coedge $-1 -1 $-1 $96 $39 $92 $97 forward $26 $-1 #
coedge $-1 -1 $-1 $39 $96 $98 $99 reversed $26 $-1 #
coedge $-1 -1 $-1 $100 $40 $101 $102 reversed $20 $-1 #
coedge $-1 -1 $-1 $98 $103 $40 $61 forward $104 $-1 #
edge $105 -1 $-1 $106 0 $66 1 $40 $107 forward @7 unknown #
coedge $-1 -1 $-1 $41 $108 $109 $110 forward $20 $-1 #
coedge $-1 -1 $-1 $93 $92 $41 $64 forward $37 $-1 #
edge $111 -1 $-1 $67 0 $112 19 $41 $113 forward @7 unknown #
attrib_edge_convexity-kcp-attrib $-1 -1 $114 $-1 $42 1 #
vertex $-1 -1 $-1 $61 $115 #
vertex $-1 -1 $-1 $64 $116 #
ellipse-curve $-1 -1 $-1 -11 0 9.5 0 1 0 -1.5 0 0 1 I I #
model_id-kcp-attrib $-1 -1 $-1 $-1 $44 1 1021498552 1021498553 -1490223102 2 #
face $-1 -1 $-1 $117 $118 $15 $-1 $119 reversed single #
loop $-1 -1 $-1 $-1 $120 $44 #
plane-surface $-1 -1 $-1 0 -1.25 0 0 1 0 0 0 1 forward_v I I I I #
coedge $-1 -1 $-1 $121 $122 $123 $124 forward $45 $-1 #
coedge $-1 -1 $-1 $125 $47 $126 $127 forward $30 $-1 #
coedge $-1 -1 $-1 $47 $125 $128 $129 forward $30 $-1 #
coedge $-1 -1 $-1 $130 $131 $47 $77 reversed $132 $-1 #
edge $-1 -1 $-1 $133 -1.25 $134 1.25 $76 $135 forward @7 unknown #
face $-1 -1 $-1 $136 $137 $17 $-1 $138 forward single #
loop $-1 -1 $-1 $-1 $139 $48 #
plane-surface $-1 -1 $-1 -11 0.75 5.75 -1 0 0 0 0 1 forward_v I I I I #
coedge $-1 -1 $-1 $140 $141 $142 $143 forward $49 $-1 #
coedge $-1 -1 $-1 $144 $51 $141 $145 reversed $33 $-1 #
coedge $-1 -1 $-1 $51 $144 $146 $147 forward $33 $-1 #
coedge $-1 -1 $-1 $148 $142 $51 $85 reversed $149 $-1 #
edge $-1 -1 $-1 $150 -10.875 $151 3.625 $51 $152 forward @7 unknown #
model_id-kcp-attrib $-1 -1 $-1 $-1 $53 1 1021498552 1021498553 -1490223103 6 #
face $153 -1 $-1 $154 $155 $7 $-1 $156 forward single #
loop $-1 -1 $-1 $-1 $157 $53 #
plane-surface $-1 -1 $-1 13.5 0 9.5 1 0 0 0 0 -1 forward_v I I I I #
loop $-1 -1 $-1 $-1 $158 $36 #
coedge $-1 -1 $-1 $159 $160 $157 $161 forward $54 $-1 #
coedge $-1 -1 $-1 $63 $56 $57 $97 reversed $37 $-1 #
coedge $-1 -1 $-1 $56 $63 $162 $163 reversed $37 $-1 #
coedge $-1 -1 $-1 $164 $165 $56 $95 forward $54 $-1 #
edge $166 -1 $-1 $167 0 $168 19 $94 $169 forward @7 unknown #
coedge $-1 -1 $-1 $58 $57 $165 $170 reversed $26 $-1 #
edge $171 -1 $-1 $67 0 $167 2.5 $92 $172 forward @7 unknown #
coedge $-1 -1 $-1 $173 $60 $58 $99 forward $104 $-1 #
edge $174 -1 $-1 $66 0 $175 2.5 $98 $176 forward @7 unknown #
coedge $-1 -1 $-1 $177 $59 $178 $179 reversed $20 $-1 #
coedge $-1 -1 $-1 $180 $181 $59 $102 forward $182 $-1 #
edge $183 -1 $-1 $184 0 $106 16 $59 $185 forward @7 unknown #
coedge $-1 -1 $-1 $60 $173 $180 $186 reversed $104 $-1 #
loop $-1 -1 $-1 $-1 $173 $187 #
attrib_edge_convexity-kcp-attrib $-1 -1 $188 $-1 $61 1 #
vertex $-1 -1 $-1 $102 $189 #
straight-curve $-1 -1 $-1 -13.5 0 9.5 1 0 0 I I #
coedge $-1 -1 $-1 $62 $190 $191 $192 reversed $20 $-1 #
coedge $-1 -1 $-1 $193 $162 $62 $110 reversed $194 $-1 #
edge $195 -1 $-1 $196 0 $112 3.1415926535897931 $62 $197 forward @7 unknown #
attrib_edge_convexity-kcp-attrib $-1 -1 $198 $-1 $64 1 #
vertex $-1 -1 $-1 $64 $199 #
straight-curve $-1 -1 $-1 -9.5 0 9.5 1 0 0 I I #
convexity-sys-attrib $-1 -1 $-1 $65 $42 #
point $-1 -1 $-1 -12.5 0 9.5 #
point $-1 -1 $-1 -9.5 0 9.5 #
face $200 -1 $-1 $201 $202 $15 $-1 $203 reversed single #
loop $-1 -1 $-1 $-1 $204 $70 #
plane-surface $-1 -1 $-1 -15 0 0 1 0 0 0 0 -1 forward_v I I I I #
coedge $-1 -1 $-1 $205 $128 $206 $207 forward $71 $-1 #
coedge $-1 -1 $-1 $208 $73 $205 $209 forward $45 $-1 #
coedge $-1 -1 $-1 $73 $208 $210 $211 forward $45 $-1 #
coedge $-1 -1 $-1 $131 $130 $73 $124 reversed $132 $-1 #
edge $-1 -1 $-1 $212 -1.25 $213 1.25 $123 $214 forward @7 unknown #
coedge $-1 -1 $-1 $75 $74 $215 $216 forward $30 $-1 #
coedge $-1 -1 $-1 $217 $218 $74 $127 reversed $202 $-1 #
edge $-1 -1 $-1 $134 -15 $219 15 $126 $220 forward @7 unknown #
coedge $-1 -1 $-1 $120 $221 $75 $129 reversed $71 $-1 #
edge $-1 -1 $-1 $222 -15 $133 15 $128 $223 forward @7 unknown #
coedge $-1 -1 $-1 $123 $76 $221 $224 forward $132 $-1 #
coedge $-1 -1 $-1 $76 $123 $217 $225 reversed $132 $-1 #
loop $-1 -1 $-1 $-1 $130 $201 #
vertex $-1 -1 $-1 $77 $226 #
vertex $-1 -1 $-1 $77 $227 #
straight-curve $-1 -1 $-1 15 0 10.25 0 1 0 I I #
face $-1 -1 $-1 $228 $149 $17 $-1 $229 forward single #
loop $-1 -1 $-1 $-1 $230 $78 #
plane-surface $-1 -1 $-1 -11 0.75 -8.75 0 0 -1 -1 0 0 forward_v I I I I #
coedge $-1 -1 $-1 $231 $232 $233 $234 forward $79 $-1 #
coedge $-1 -1 $-1 $235 $81 $232 $236 reversed $49 $-1 #
coedge $-1 -1 $-1 $81 $235 $82 $145 forward $49 $-1 #
coedge $-1 -1 $-1 $84 $233 $81 $143 reversed $149 $-1 #
edge $-1 -1 $-1 $151 -16.5 $237 5.5 $81 $238 forward @7 unknown #
coedge $-1 -1 $-1 $83 $82 $239 $240 reversed $33 $-1 #
edge $241 -1 $-1 $242 0 $151 0.5 $141 $243 forward @7 unknown #
coedge $-1 -1 $-1 $244 $230 $83 $147 reversed $137 $-1 #
edge $245 -1 $-1 $246 0 $150 0.5 $83 $247 forward @7 unknown #
coedge $-1 -1 $-1 $233 $84 $230 $248 reversed $149 $-1 #
loop $-1 -1 $-1 $-1 $84 $136 #
vertex $-1 -1 $-1 $147 $249 #
vertex $-1 -1 $-1 $145 $250 #
straight-curve $-1 -1 $-1 11 1.25 2.125 0 0 1 I I #
model_id-kcp-attrib $-1 -1 $-1 $-1 $87 1 1021498552 1021498553 -1490223103 7 #
face $251 -1 $-1 $252 $194 $7 $-1 $253 forward single #
loop $-1 -1 $-1 $-1 $191 $87 #
plane-surface $-1 -1 $-1 -13.5 0 9.5 0 0 1 1 0 0 forward_v I I I I #
coedge $-1 -1 $-1 $254 $255 $91 $161 reversed $88 $-1 #
coedge $-1 -1 $-1 $256 $257 $258 $259 reversed $90 $-1 #
coedge $-1 -1 $-1 $260 $91 $261 $262 reversed $54 $-1 #
coedge $-1 -1 $-1 $91 $164 $263 $264 forward $54 $-1 #
edge $265 -1 $-1 $266 0 $267 16 $91 $268 forward @7 unknown #
coedge $-1 -1 $-1 $109 $269 $93 $163 forward $194 $-1 #
edge $270 -1 $-1 $168 0 $112 2.5 $93 $271 forward @7 unknown #
coedge $-1 -1 $-1 $160 $94 $269 $272 reversed $54 $-1 #
coedge $-1 -1 $-1 $94 $273 $96 $170 forward $54 $-1 #
attrib_edge_convexity-kcp-attrib $-1 -1 $274 $-1 $95 1 #
vertex $-1 -1 $-1 $95 $275 #
vertex $-1 -1 $-1 $272 $276 #
straight-curve $-1 -1 $-1 -9.5 2.5 9.5 1 0 0 I I #
edge $-1 -1 $-1 $175 0 $167 3.1415926535897931 $165 $277 forward @7 unknown #
attrib_edge_convexity-kcp-attrib $-1 -1 $278 $-1 $97 2 #
straight-curve $-1 -1 $-1 -9.5 0 9.5 0 1 0 I I #
coedge $-1 -1 $-1 $103 $98 $273 $279 reversed $104 $-1 #
attrib_edge_convexity-kcp-attrib $-1 -1 $280 $-1 $99 2 #
vertex $-1 -1 $-1 $170 $281 #
straight-curve $-1 -1 $-1 -12.5 0 9.5 0 1 0 I I #
coedge $-1 -1 $-1 $282 $100 $283 $284 reversed $20 $-1 #
coedge $-1 -1 $-1 $285 $286 $100 $179 forward $287 $-1 #
edge $288 -1 $-1 $289 0 $184 3.1415926535897931 $100 $290 forward @7 unknown #
coedge $-1 -1 $-1 $291 $101 $103 $186 forward $182 $-1 #
coedge $-1 -1 $-1 $101 $291 $285 $292 reversed $182 $-1 #
loop $-1 -1 $-1 $-1 $101 $293 #
attrib_edge_convexity-kcp-attrib $-1 -1 $294 $-1 $102 1 #
vertex $-1 -1 $-1 $179 $295 #
straight-curve $-1 -1 $-1 -13.5 0 -6.5 0 0 1 I I #
edge $296 -1 $-1 $106 0 $297 2.5 $180 $298 forward @7 unknown #
face $299 -1 $-1 $300 $104 $7 $-1 $301 forward single #
convexity-sys-attrib $-1 -1 $-1 $105 $61 #
point $-1 -1 $-1 -13.5 0 9.5 #
coedge $-1 -1 $-1 $108 $282 $302 $303 reversed $20 $-1 #
coedge $-1 -1 $-1 $304 $305 $108 $192 forward $155 $-1 #
edge $306 -1 $-1 $196 0 $307 1 $108 $308 forward @7 unknown #
coedge $-1 -1 $-1 $269 $109 $305 $309 reversed $194 $-1 #
loop $-1 -1 $-1 $-1 $269 $154 #
attrib_edge_convexity-kcp-attrib $-1 -1 $310 $-1 $110 1 #
vertex $-1 -1 $-1 $110 $311 #
ellipse-curve $-1 -1 $-1 11 0 9.5 0 -1 0 1.5 0 0 1 I I #
convexity-sys-attrib $-1 -1 $-1 $111 $64 #
point $-1 -1 $-1 9.5 0 9.5 #
model_id-kcp-attrib $-1 -1 $-1 $-1 $117 1 1021498552 1021498553 -1490223102 3 #
face $-1 -1 $-1 $-1 $132 $15 $-1 $312 reversed single #
loop $-1 -1 $-1 $-1 $217 $117 #
plane-surface $-1 -1 $-1 0 1.25 0 0 -1 0 0 0 -1 forward_v I I I I #
coedge $-1 -1 $-1 $313 $215 $218 $314 forward $118 $-1 #
coedge $-1 -1 $-1 $221 $120 $121 $209 reversed $71 $-1 #
coedge $-1 -1 $-1 $215 $313 $120 $207 reversed $118 $-1 #
edge $-1 -1 $-1 $222 -10.25 $315 10.25 $206 $316 forward @7 unknown #
coedge $-1 -1 $-1 $122 $121 $313 $317 forward $45 $-1 #
edge $-1 -1 $-1 $213 -15 $315 15 $205 $318 forward @7 unknown #
coedge $-1 -1 $-1 $218 $217 $122 $211 reversed $202 $-1 #
edge $-1 -1 $-1 $319 -15 $212 15 $210 $320 forward @7 unknown #
vertex $-1 -1 $-1 $124 $321 #
vertex $-1 -1 $-1 $224 $322 #
straight-curve $-1 -1 $-1 15 0 -10.25 0 -1 0 I I #
coedge $-1 -1 $-1 $204 $206 $125 $216 reversed $118 $-1 #
edge $-1 -1 $-1 $219 -1.25 $222 1.25 $215 $323 forward @7 unknown #
coedge $-1 -1 $-1 $210 $126 $131 $225 forward $202 $-1 #
coedge $-1 -1 $-1 $126 $210 $204 $314 reversed $202 $-1 #
vertex $-1 -1 $-1 $127 $324 #
straight-curve $-1 -1 $-1 0 1.25 10.25 -1 0 0 I I #
coedge $-1 -1 $-1 $128 $205 $130 $224 reversed $71 $-1 #
vertex $-1 -1 $-1 $216 $325 #
straight-curve $-1 -1 $-1 0 -1.25 10.25 1 0 0 I I #
edge $-1 -1 $-1 $133 -10.25 $213 10.25 $130 $326 forward @7 unknown #
edge $-1 -1 $-1 $134 -10.25 $212 10.25 $131 $327 forward @7 unknown #
point $-1 -1 $-1 15 -1.25 10.25 #
point $-1 -1 $-1 15 1.25 10.25 #
face $-1 -1 $-1 $-1 $328 $17 $-1 $329 reversed single #
plane-surface $-1 -1 $-1 0 1.25 -1.4999999999999998 0 1 0 0 0 1 forward_v I I I I #
coedge $-1 -1 $-1 $146 $330 $148 $248 forward $137 $-1 #
coedge $-1 -1 $-1 $331 $139 $330 $332 reversed $79 $-1 #
coedge $-1 -1 $-1 $139 $331 $140 $236 forward $79 $-1 #
coedge $-1 -1 $-1 $142 $148 $139 $234 reversed $149 $-1 #
edge $-1 -1 $-1 $237 -10.875 $333 3.625 $139 $334 forward @7 unknown #
coedge $-1 -1 $-1 $141 $140 $335 $336 reversed $49 $-1 #
edge $337 -1 $-1 $338 0 $237 0.5 $232 $339 forward @7 unknown #
vertex $-1 -1 $-1 $236 $340 #
straight-curve $-1 -1 $-1 -5.5 1.25 5.75 -1 0 0 I I #
coedge $-1 -1 $-1 $335 $341 $144 $240 forward $328 $-1 #
edge $342 -1 $-1 $246 -10.875 $242 3.625 $144 $343 forward @7 unknown #
convexity-sys-attrib $-1 -1 $-1 $-1 $145 #
vertex $-1 -1 $-1 $240 $344 #
straight-curve $-1 -1 $-1 11 0.75 5.75 0 1 0 I I #
coedge $-1 -1 $-1 $330 $146 $341 $345 reversed $137 $-1 #
convexity-sys-attrib $-1 -1 $-1 $-1 $147 #
vertex $-1 -1 $-1 $345 $346 #
straight-curve $-1 -1 $-1 11 0.75 -8.75 0 1 0 I I #
edge $-1 -1 $-1 $333 -16.5 $150 5.5 $230 $347 forward @7 unknown #
point $-1 -1 $-1 11 1.25 -8.75 #
point $-1 -1 $-1 11 1.25 5.75 #
model_id-kcp-attrib $-1 -1 $-1 $-1 $154 1 1021498552 1021498553 -1490223103 8 #
face $348 -1 $-1 $349 $350 $7 $-1 $351 forward single #
cone-surface $-1 -1 $-1 11 0 9.5 0 -1 0 -1.5 0 0 1 I I 0 1 1.5 forward I I I I #
coedge $-1 -1 $-1 $302 $157 $304 $352 reversed $88 $-1 #
coedge $-1 -1 $-1 $157 $302 $353 $354 reversed $88 $-1 #
coedge $-1 -1 $-1 $355 $158 $356 $357 reversed $90 $-1 #
coedge $-1 -1 $-1 $158 $355 $358 $359 reversed $90 $-1 #
coedge $-1 -1 $-1 $360 $361 $158 $259 forward $362 $-1 #
edge $-1 -1 $-1 $363 0 $364 22 $158 $365 forward @7 unknown #
coedge $-1 -1 $-1 $366 $159 $367 $368 forward $54 $-1 #
coedge $-1 -1 $-1 $353 $369 $159 $262 forward $350 $-1 #
edge $-1 -1 $-1 $370 0 $267 3.1415926535897931 $159 $371 forward @7 unknown #
coedge $-1 -1 $-1 $305 $304 $160 $264 reversed $155 $-1 #
edge $372 -1 $-1 $373 0 $266 1 $160 $374 forward @7 unknown #
attrib_edge_convexity-kcp-attrib $-1 -1 $375 $-1 $161 1 #
vertex $-1 -1 $-1 $264 $376 #
vertex $-1 -1 $-1 $262 $377 #
straight-curve $-1 -1 $-1 13.5 2.5 9.5 0 0 -1 I I #
coedge $-1 -1 $-1 $162 $193 $164 $272 forward $194 $-1 #
attrib_edge_convexity-kcp-attrib $-1 -1 $378 $-1 $163 2 #
straight-curve $-1 -1 $-1 9.5 2.5 9.5 0 -1 0 I I #
edge $-1 -1 $-1 $373 0 $168 3.1415926535897931 $164 $379 forward @7 unknown #
coedge $-1 -1 $-1 $165 $380 $173 $279 forward $54 $-1 #
convexity-sys-attrib $-1 -1 $-1 $166 $95 #
point $-1 -1 $-1 -9.5 2.5 9.5 #
point $-1 -1 $-1 9.5 2.5 9.5 #
ellipse-curve $-1 -1 $-1 -11 2.5 9.5 0 1 0 -1.5 0 0 1 I I #
convexity-sys-attrib $-1 -1 $-1 $171 $97 #
edge $381 -1 $-1 $297 0 $175 1 $273 $382 forward @7 unknown #
convexity-sys-attrib $-1 -1 $-1 $174 $99 #
point $-1 -1 $-1 -12.5 2.5 9.5 #
coedge $-1 -1 $-1 $190 $177 $383 $384 forward $20 $-1 #
coedge $-1 -1 $-1 $385 $386 $177 $284 forward $387 $-1 #
edge $388 -1 $-1 $389 0 $289 27 $177 $390 forward @7 unknown #
coedge $-1 -1 $-1 $391 $178 $181 $292 forward $287 $-1 #
coedge $-1 -1 $-1 $178 $391 $385 $392 reversed $287 $-1 #
loop $-1 -1 $-1 $-1 $178 $393 #
attrib_edge_convexity-kcp-attrib $-1 -1 $394 $-1 $179 1 #
vertex $-1 -1 $-1 $284 $395 #
ellipse-curve $-1 -1 $-1 -13.5 0 -8 0 1 0 0 0 -1.5 1 I I #
coedge $-1 -1 $-1 $181 $180 $380 $396 reversed $182 $-1 #
edge $397 -1 $-1 $184 0 $398 2.5 $181 $399 forward @7 unknown #
face $400 -1 $-1 $187 $182 $7 $-1 $401 forward single #
convexity-sys-attrib $-1 -1 $-1 $183 $102 #
point $-1 -1 $-1 -13.5 0 -6.5 #
attrib_edge_convexity-kcp-attrib $-1 -1 $402 $-1 $186 1 #
vertex $-1 -1 $-1 $279 $403 #
straight-curve $-1 -1 $-1 -13.5 0 9.5 0 1 0 I I #
model_id-kcp-attrib $-1 -1 $-1 $-1 $187 1 1021498552 1021498553 -1490223103 13 #
face $404 -1 $-1 $405 $362 $7 $-1 $406 reversed single #
plane-surface $-1 -1 $-1 -13.5 0 9.5 0 0 1 1 0 0 forward_v I I I I #
coedge $-1 -1 $-1 $255 $254 $190 $303 forward $88 $-1 #
edge $407 -1 $-1 $307 0 $408 16 $190 $409 forward @7 unknown #
coedge $-1 -1 $-1 $263 $191 $254 $352 forward $155 $-1 #
coedge $-1 -1 $-1 $191 $263 $193 $309 forward $155 $-1 #
attrib_edge_convexity-kcp-attrib $-1 -1 $410 $-1 $192 1 #
vertex $-1 -1 $-1 $192 $411 #
straight-curve $-1 -1 $-1 12.5 0 9.5 1 0 0 I I #
edge $412 -1 $-1 $373 0 $196 2.5 $305 $413 forward @7 unknown #
convexity-sys-attrib $-1 -1 $-1 $195 $110 #
point $-1 -1 $-1 12.5 0 9.5 #
plane-surface $-1 -1 $-1 15 0 0 -1 0 0 0 0 1 forward_v I I I I #
coedge $-1 -1 $-1 $206 $204 $208 $317 reversed $118 $-1 #
edge $-1 -1 $-1 $219 -10.25 $319 10.25 $218 $414 forward @7 unknown #
vertex $-1 -1 $-1 $317 $415 #
straight-curve $-1 -1 $-1 -15 -1.25 0 0 0 -1 I I #
edge $-1 -1 $-1 $315 -1.25 $319 1.25 $313 $416 forward @7 unknown #
straight-curve $-1 -1 $-1 0 -1.25 -10.25 -1 0 0 I I #
vertex $-1 -1 $-1 $211 $417 #
straight-curve $-1 -1 $-1 0 1.25 -10.25 1 0 0 I I #
point $-1 -1 $-1 15 1.25 -10.25 #
point $-1 -1 $-1 15 -1.25 -10.25 #
straight-curve $-1 -1 $-1 -15 0 10.25 0 -1 0 I I #
point $-1 -1 $-1 -15 1.25 10.25 #
point $-1 -1 $-1 -15 -1.25 10.25 #
straight-curve $-1 -1 $-1 15 -1.25 0 0 0 -1 I I #
straight-curve $-1 -1 $-1 15 1.25 0 0 0 -1 I I #
loop $-1 -1 $-1 $-1 $341 $228 #
plane-surface $-1 -1 $-1 0 0.75 -1.4999999999999998 0 1 0 0 0 1 forward_v I I I I #
coedge $-1 -1 $-1 $230 $244 $231 $332 forward $137 $-1 #
coedge $-1 -1 $-1 $232 $231 $418 $419 reversed $79 $-1 #
edge $420 -1 $-1 $421 0 $333 0.5 $330 $422 forward @7 unknown #
vertex $-1 -1 $-1 $332 $423 #
straight-curve $-1 -1 $-1 -11 1.25 -5.125 0 0 -1 I I #
coedge $-1 -1 $-1 $418 $239 $235 $336 forward $328 $-1 #
edge $424 -1 $-1 $242 -16.5 $338 5.5 $235 $425 forward @7 unknown #
convexity-sys-attrib $-1 -1 $-1 $-1 $236 #
vertex $-1 -1 $-1 $336 $426 #
straight-curve $-1 -1 $-1 -11 0.75 5.75 0 1 0 I I #
point $-1 -1 $-1 -11 1.25 5.75 #
coedge $-1 -1 $-1 $239 $418 $244 $345 forward $328 $-1 #
convexity-sys-attrib $-1 -1 $-1 $-1 $240 #
straight-curve $-1 -1 $-1 11 0.75 2.125 0 0 1 I I #
point $-1 -1 $-1 11 0.75 5.75 #
edge $427 -1 $-1 $421 -16.5 $246 5.5 $244 $428 forward @7 unknown #
point $-1 -1 $-1 11 0.75 -8.75 #
straight-curve $-1 -1 $-1 5.5 1.25 -8.75 1 0 0 I I #
model_id-kcp-attrib $-1 -1 $-1 $-1 $252 1 1021498552 1021498553 -1490223103 9 #
face $429 -1 $-1 $393 $387 $7 $-1 $430 forward single #
loop $-1 -1 $-1 $-1 $261 $252 #
cone-surface $-1 -1 $-1 13.5 0 -8 0 -1 0 -1.5 0 0 1 I I 0 1 1.5 forward I I I I #
edge $431 -1 $-1 $307 0 $266 2.5 $304 $432 forward @7 unknown #
coedge $-1 -1 $-1 $383 $261 $255 $354 forward $350 $-1 #
edge $433 -1 $-1 $267 0 $408 2.5 $255 $434 forward @7 unknown #
coedge $-1 -1 $-1 $257 $256 $435 $436 reversed $90 $-1 #
coedge $-1 -1 $-1 $437 $438 $256 $357 forward $439 $-1 #
edge $-1 -1 $-1 $440 0 $363 14.5 $256 $441 forward @7 unknown #
coedge $-1 -1 $-1 $442 $443 $257 $359 forward $444 $-1 #
edge $-1 -1 $-1 $364 0 $445 14.5 $257 $446 forward @7 unknown #
coedge $-1 -1 $-1 $447 $258 $443 $448 forward $362 $-1 #
coedge $-1 -1 $-1 $258 $447 $437 $449 reversed $362 $-1 #
loop $-1 -1 $-1 $-1 $360 $300 #
vertex $-1 -1 $-1 $357 $450 #
vertex $-1 -1 $-1 $359 $451 #
straight-curve $-1 -1 $-1 11 2.5 -8 -1 0 0 I I #
coedge $-1 -1 $-1 $380 $260 $391 $452 forward $54 $-1 #
coedge $-1 -1 $-1 $386 $385 $260 $368 reversed $387 $-1 #
edge $453 -1 $-1 $370 0 $454 27 $260 $455 forward @7 unknown #
coedge $-1 -1 $-1 $261 $383 $386 $456 reversed $350 $-1 #
vertex $-1 -1 $-1 $368 $457 #
ellipse-curve $-1 -1 $-1 13.5 2.5 -8 0 -1 0 0 0 -1.5 1 I I #
attrib_edge_convexity-kcp-attrib $-1 -1 $458 $-1 $264 1 #
vertex $-1 -1 $-1 $264 $459 #
straight-curve $-1 -1 $-1 12.5 2.5 9.5 1 0 0 I I #
convexity-sys-attrib $-1 -1 $-1 $265 $161 #
point $-1 -1 $-1 13.5 2.5 9.5 #
point $-1 -1 $-1 13.5 2.5 -6.5 #
convexity-sys-attrib $-1 -1 $-1 $270 $163 #
ellipse-curve $-1 -1 $-1 11 2.5 9.5 0 -1 0 1.5 0 0 1 I I #
coedge $-1 -1 $-1 $273 $366 $291 $396 forward $54 $-1 #
attrib_edge_convexity-kcp-attrib $-1 -1 $460 $-1 $279 1 #
straight-curve $-1 -1 $-1 -13.5 2.5 9.5 1 0 0 I I #
coedge $-1 -1 $-1 $369 $353 $282 $384 reversed $350 $-1 #
edge $461 -1 $-1 $389 0 $408 3.1415926535897931 $282 $462 forward @7 unknown #
coedge $-1 -1 $-1 $367 $283 $286 $392 forward $387 $-1 #
coedge $-1 -1 $-1 $283 $367 $369 $456 forward $387 $-1 #
loop $-1 -1 $-1 $-1 $283 $349 #
attrib_edge_convexity-kcp-attrib $-1 -1 $463 $-1 $284 1 #
vertex $-1 -1 $-1 $384 $464 #
straight-curve $-1 -1 $-1 13.5 0 -9.5 -1 0 0 I I #
coedge $-1 -1 $-1 $286 $285 $366 $452 reversed $287 $-1 #
edge $465 -1 $-1 $289 0 $454 2.5 $385 $466 forward @7 unknown #
face $467 -1 $-1 $293 $287 $7 $-1 $468 forward single #
convexity-sys-attrib $-1 -1 $-1 $288 $179 #
point $-1 -1 $-1 -13.5 0 -9.5 #
edge $469 -1 $-1 $398 0 $297 16 $380 $470 forward @7 unknown #
attrib_edge_convexity-kcp-attrib $-1 -1 $471 $-1 $292 2 #
vertex $-1 -1 $-1 $396 $472 #
straight-curve $-1 -1 $-1 -13.5 0 -6.5 0 1 0 I I #
model_id-kcp-attrib $-1 -1 $-1 $-1 $293 1 1021498552 1021498553 -1490223103 12 #
plane-surface $-1 -1 $-1 -13.5 0 -9.5 -1 0 0 0 0 1 forward_v I I I I #
convexity-sys-attrib $-1 -1 $-1 $296 $186 #
point $-1 -1 $-1 -13.5 2.5 9.5 #
model_id-kcp-attrib $-1 -1 $-1 $-1 $300 1 1021498552 1021498553 -1490223103 14 #
face $473 -1 $-1 $474 $444 $7 $-1 $475 reversed single #
plane-surface $-1 -1 $-1 11 2.5 -8 0 0 -1 -1 0 0 forward_v I I I I #
attrib_edge_convexity-kcp-attrib $-1 -1 $476 $-1 $303 1 #
vertex $-1 -1 $-1 $303 $477 #
straight-curve $-1 -1 $-1 13.5 0 9.5 0 0 -1 I I #
convexity-sys-attrib $-1 -1 $-1 $306 $192 #
point $-1 -1 $-1 13.5 0 9.5 #
attrib_edge_convexity-kcp-attrib $-1 -1 $478 $-1 $309 2 #
straight-curve $-1 -1 $-1 12.5 2.5 9.5 0 -1 0 I I #
straight-curve $-1 -1 $-1 -15 1.25 0 0 0 -1 I I #
point $-1 -1 $-1 -15 -1.25 -10.25 #
straight-curve $-1 -1 $-1 -15 0 -10.25 0 1 0 I I #
point $-1 -1 $-1 -15 1.25 -10.25 #
coedge $-1 -1 $-1 $341 $335 $331 $419 forward $328 $-1 #
edge $479 -1 $-1 $338 -10.875 $421 3.625 $331 $480 forward @7 unknown #
convexity-sys-attrib $-1 -1 $-1 $-1 $332 #
vertex $-1 -1 $-1 $345 $481 #
straight-curve $-1 -1 $-1 -11 0.75 -8.75 0 1 0 I I #
point $-1 -1 $-1 -11 1.25 -8.75 #
convexity-sys-attrib $-1 -1 $-1 $-1 $336 #
straight-curve $-1 -1 $-1 -5.5 0.75 5.75 -1 0 0 I I #
point $-1 -1 $-1 -11 0.75 5.75 #
convexity-sys-attrib $-1 -1 $-1 $-1 $345 #
straight-curve $-1 -1 $-1 5.5 0.75 -8.75 1 0 0 I I #
model_id-kcp-attrib $-1 -1 $-1 $-1 $349 1 1021498552 1021498553 -1490223103 10 #
plane-surface $-1 -1 $-1 13.5 0 -9.5 0 0 -1 -1 0 0 forward_v I I I I #
attrib_edge_convexity-kcp-attrib $-1 -1 $482 $-1 $352 1 #
straight-curve $-1 -1 $-1 13.5 0 9.5 0 1 0 I I #
attrib_edge_convexity-kcp-attrib $-1 -1 $483 $-1 $354 2 #
straight-curve $-1 -1 $-1 13.5 2.5 -6.5 0 -1 0 I I #
coedge $-1 -1 $-1 $484 $485 $355 $436 forward $486 $-1 #
edge $-1 -1 $-1 $445 0 $440 22 $355 $487 forward @7 unknown #
coedge $-1 -1 $-1 $488 $356 $361 $449 forward $439 $-1 #
coedge $-1 -1 $-1 $356 $488 $484 $489 reversed $439 $-1 #
loop $-1 -1 $-1 $-1 $437 $490 #
vertex $-1 -1 $-1 $436 $491 #
straight-curve $-1 -1 $-1 11 2.5 6.5 0 0 -1 I I #
coedge $-1 -1 $-1 $492 $358 $485 $493 forward $444 $-1 #
coedge $-1 -1 $-1 $358 $492 $360 $448 reversed $444 $-1 #
loop $-1 -1 $-1 $-1 $442 $405 #
vertex $-1 -1 $-1 $359 $494 #
straight-curve $-1 -1 $-1 -11 2.5 -8 0 0 1 I I #
coedge $-1 -1 $-1 $361 $360 $495 $496 reversed $362 $-1 #
edge $-1 -1 $-1 $364 0 $497 0.5 $443 $498 forward @7 unknown #
edge $-1 -1 $-1 $363 0 $499 0.5 $437 $500 forward @7 unknown #
point $-1 -1 $-1 11 2.5 -8 #
point $-1 -1 $-1 -11 2.5 -8 #
edge $-1 -1 $-1 $454 0 $398 3.1415926535897931 $366 $501 forward @7 unknown #
attrib_edge_convexity-kcp-attrib $-1 -1 $502 $-1 $368 1 #
vertex $-1 -1 $-1 $452 $503 #
straight-curve $-1 -1 $-1 13.5 2.5 -9.5 -1 0 0 I I #
edge $504 -1 $-1 $370 0 $389 2.5 $386 $505 forward @7 unknown #
point $-1 -1 $-1 13.5 2.5 -9.5 #
convexity-sys-attrib $-1 -1 $-1 $372 $264 #
point $-1 -1 $-1 12.5 2.5 9.5 #
convexity-sys-attrib $-1 -1 $-1 $381 $279 #
attrib_edge_convexity-kcp-attrib $-1 -1 $506 $-1 $384 1 #
ellipse-curve $-1 -1 $-1 13.5 0 -8 0 -1 0 0 0 -1.5 1 I I #
convexity-sys-attrib $-1 -1 $-1 $388 $284 #
point $-1 -1 $-1 13.5 0 -9.5 #
attrib_edge_convexity-kcp-attrib $-1 -1 $507 $-1 $392 3 #
straight-curve $-1 -1 $-1 -13.5 0 -9.5 0 1 0 I I #
model_id-kcp-attrib $-1 -1 $-1 $-1 $393 1 1021498552 1021498553 -1490223103 11 #
cone-surface $-1 -1 $-1 -13.5 0 -8 0 1 0 1.5 0 0 1 I I 0 1 1.5 forward I I I I #
attrib_edge_convexity-kcp-attrib $-1 -1 $508 $-1 $396 1 #
straight-curve $-1 -1 $-1 -13.5 2.5 -6.5 0 0 1 I I #
convexity-sys-attrib $-1 -1 $-1 $397 $292 #
point $-1 -1 $-1 -13.5 2.5 -6.5 #
model_id-kcp-attrib $-1 -1 $-1 $-1 $405 1 1021498552 1021498553 -1490223103 15 #
face $509 -1 $-1 $490 $486 $7 $-1 $510 reversed single #
plane-surface $-1 -1 $-1 -11 2.5 -8 -1 0 0 0 0 1 forward_v I I I I #
convexity-sys-attrib $-1 -1 $-1 $407 $303 #
point $-1 -1 $-1 13.5 0 -6.5 #
convexity-sys-attrib $-1 -1 $-1 $412 $309 #
convexity-sys-attrib $-1 -1 $-1 $-1 $419 #
straight-curve $-1 -1 $-1 -11 0.75 -5.125 0 0 -1 I I #
point $-1 -1 $-1 -11 0.75 -8.75 #
convexity-sys-attrib $-1 -1 $-1 $431 $352 #
convexity-sys-attrib $-1 -1 $-1 $433 $354 #
coedge $-1 -1 $-1 $511 $435 $438 $489 forward $486 $-1 #
coedge $-1 -1 $-1 $435 $511 $442 $493 reversed $486 $-1 #
loop $-1 -1 $-1 $-1 $484 $474 #
straight-curve $-1 -1 $-1 -11 2.5 6.5 1 0 0 I I #
coedge $-1 -1 $-1 $438 $437 $512 $513 reversed $439 $-1 #
edge $-1 -1 $-1 $440 0 $514 0.5 $484 $515 forward @7 unknown #
face $516 -1 $-1 $517 $439 $7 $-1 $518 reversed single #
point $-1 -1 $-1 11 2.5 6.5 #
coedge $-1 -1 $-1 $443 $442 $519 $520 reversed $444 $-1 #
edge $-1 -1 $-1 $445 0 $521 0.5 $442 $522 forward @7 unknown #
point $-1 -1 $-1 -11 2.5 6.5 #
coedge $-1 -1 $-1 $519 $512 $447 $496 forward $523 $-1 #
edge $524 -1 $-1 $499 0 $497 22 $495 $525 forward @7 unknown #
vertex $-1 -1 $-1 $520 $526 #
straight-curve $-1 -1 $-1 -11 2.5 -8 0 -1 0 I I #
vertex $-1 -1 $-1 $496 $527 #
straight-curve $-1 -1 $-1 11 2.5 -8 0 -1 0 I I #
ellipse-curve $-1 -1 $-1 -13.5 2.5 -8 0 1 0 0 0 -1.5 1 I I #
convexity-sys-attrib $-1 -1 $-1 $453 $368 #
point $-1 -1 $-1 -13.5 2.5 -9.5 #
attrib_edge_convexity-kcp-attrib $-1 -1 $528 $-1 $456 3 #
straight-curve $-1 -1 $-1 13.5 2.5 -9.5 0 -1 0 I I #
convexity-sys-attrib $-1 -1 $-1 $461 $384 #
convexity-sys-attrib $-1 -1 $-1 $465 $392 #
convexity-sys-attrib $-1 -1 $-1 $469 $396 #
model_id-kcp-attrib $-1 -1 $-1 $-1 $474 1 1021498552 1021498553 -1490223103 16 #
plane-surface $-1 -1 $-1 -11 2.5 6.5 0 0 1 1 0 0 forward_v I I I I #
coedge $-1 -1 $-1 $485 $484 $529 $530 reversed $486 $-1 #
coedge $-1 -1 $-1 $495 $529 $488 $513 forward $523 $-1 #
edge $531 -1 $-1 $514 0 $499 14.5 $512 $532 forward @7 unknown #
vertex $-1 -1 $-1 $513 $533 #
straight-curve $-1 -1 $-1 11 2.5 6.5 0 -1 0 I I #
model_id-kcp-attrib $-1 -1 $-1 $-1 $490 1 1021498552 1021498553 -1490223103 17 #
face $534 -1 $-1 $-1 $523 $7 $-1 $535 forward single #
plane-surface $-1 -1 $-1 11 2.5 6.5 1 0 0 0 0 -1 forward_v I I I I #
coedge $-1 -1 $-1 $529 $495 $492 $520 forward $523 $-1 #
edge $536 -1 $-1 $497 0 $521 14.5 $519 $537 forward @7 unknown #
vertex $-1 -1 $-1 $520 $538 #
straight-curve $-1 -1 $-1 -11 2.5 6.5 0 -1 0 I I #
loop $-1 -1 $-1 $-1 $529 $517 #
attrib_edge_convexity-kcp-attrib $-1 -1 $539 $-1 $496 2 #
straight-curve $-1 -1 $-1 11 2 -8 -1 0 0 I I #
point $-1 -1 $-1 -11 2 -8 #
point $-1 -1 $-1 11 2 -8 #
convexity-sys-attrib $-1 -1 $-1 $504 $456 #
coedge $-1 -1 $-1 $512 $519 $511 $530 forward $523 $-1 #
edge $540 -1 $-1 $521 0 $514 22 $529 $541 forward @7 unknown #
attrib_edge_convexity-kcp-attrib $-1 -1 $542 $-1 $513 2 #
straight-curve $-1 -1 $-1 11 2 6.5 0 0 -1 I I #
point $-1 -1 $-1 11 2 6.5 #
model_id-kcp-attrib $-1 -1 $-1 $-1 $517 1 1021498552 1021498553 -1490223103 18 #
plane-surface $-1 -1 $-1 0 2 0 0 1 0 1 0 0 forward_v I I I I #
attrib_edge_convexity-kcp-attrib $-1 -1 $543 $-1 $520 2 #
straight-curve $-1 -1 $-1 -11 2 -8 0 0 1 I I #
point $-1 -1 $-1 -11 2 6.5 #
convexity-sys-attrib $-1 -1 $-1 $524 $496 #
attrib_edge_convexity-kcp-attrib $-1 -1 $544 $-1 $530 2 #
straight-curve $-1 -1 $-1 -11 2 6.5 1 0 0 I I #
convexity-sys-attrib $-1 -1 $-1 $531 $513 #
convexity-sys-attrib $-1 -1 $-1 $536 $520 #
convexity-sys-attrib $-1 -1 $-1 $540 $530 #
End-of-ACIS-data 