600 0 1 0           
87 GICL ACIS Healer - Source: /gicl/data5/repository/PTC/V18/fly_small18/lcd.prt.sat - 6 0 18 ACIS 6.0.3 Solaris 24 Sat Apr 13 22:07:52 2002 
1 9.999999999999999547e-07 1.000000000000000036e-10 
body $-1 $1 $-1 $-1 #
lump $-1 $-1 $2 $0 #
shell $-1 $-1 $-1 $3 $-1 $1 #
face $-1 $4 $5 $2 $-1 $6 reversed single #
face $-1 $7 $8 $2 $-1 $9 forward single #
loop $-1 $-1 $10 $3 #
plane-surface $-1 0 0 0 0 1 0 1 0 0 forward_v I I I I #
face $-1 $11 $12 $2 $-1 $13 forward single #
loop $-1 $-1 $14 $4 #
cone-surface $-1 -11 0 9.5 0 1 0 1.5 0 0 1 I I 0 1 1.5 forward I I I I #
coedge $-1 $15 $16 $14 $17 reversed $5 $-1 #
face $-1 $18 $19 $2 $-1 $20 forward single #
loop $-1 $-1 $21 $7 #
plane-surface $-1 -13.5 0 9.5 0 0 1 1 0 0 forward_v I I I I #
coedge $-1 $22 $23 $10 $17 forward $8 $-1 #
coedge $-1 $24 $10 $25 $26 reversed $5 $-1 #
coedge $-1 $10 $27 $28 $29 reversed $5 $-1 #
edge $-1 $30 0 $31 3.141592653589793116 $10 $32 forward 7 unknown #
face $-1 $33 $34 $2 $-1 $35 forward single #
loop $-1 $36 $37 $11 #
plane-surface $-1 0 2.5 0 0 1 0 1 0 0 forward_v I I I I #
coedge $-1 $38 $39 $40 $41 reversed $12 $-1 #
coedge $-1 $42 $14 $38 $43 forward $8 $-1 #
coedge $-1 $14 $42 $44 $45 reversed $8 $-1 #
coedge $-1 $46 $15 $47 $48 reversed $5 $-1 #
coedge $-1 $44 $49 $15 $26 forward $50 $-1 #
edge $-1 $51 0 $30 1 $15 $52 forward 7 unknown #
coedge $-1 $16 $53 $54 $55 forward $5 $-1 #
coedge $-1 $39 $38 $16 $29 forward $12 $-1 #
edge $-1 $31 0 $56 19 $16 $57 forward 7 unknown #
vertex $-1 $26 $58 #
vertex $-1 $29 $59 #
ellipse-curve $-1 -11 0 9.5 0 1 0 -1.5 0 0 1 I I #
face $-1 $60 $61 $2 $-1 $62 forward single #
loop $-1 $-1 $63 $18 #
plane-surface $-1 13.5 0 9.5 1 0 0 0 0 -1 forward_v I I I I #
loop $-1 $-1 $64 $11 #
coedge $-1 $65 $66 $63 $67 forward $19 $-1 #
coedge $-1 $28 $21 $22 $43 reversed $12 $-1 #
coedge $-1 $21 $28 $68 $69 reversed $12 $-1 #
coedge $-1 $70 $71 $21 $41 forward $19 $-1 #
edge $-1 $72 0 $73 19 $40 $74 forward 7 unknown #
coedge $-1 $23 $22 $71 $75 reversed $8 $-1 #
edge $-1 $31 0 $72 2.5 $38 $76 forward 7 unknown #
coedge $-1 $77 $25 $23 $45 forward $50 $-1 #
edge $-1 $30 0 $78 2.5 $44 $79 forward 7 unknown #
coedge $-1 $80 $24 $81 $82 reversed $5 $-1 #
coedge $-1 $83 $84 $24 $48 forward $85 $-1 #
edge $-1 $86 0 $51 16 $24 $87 forward 7 unknown #
coedge $-1 $25 $77 $83 $88 reversed $50 $-1 #
loop $-1 $-1 $77 $89 #
vertex $-1 $48 $90 #
straight-curve $-1 -13.5 0 9.5 1 0 0 I I #
coedge $-1 $27 $91 $92 $93 reversed $5 $-1 #
coedge $-1 $94 $68 $27 $55 reversed $95 $-1 #
edge $-1 $96 0 $56 3.141592653589793116 $27 $97 forward 7 unknown #
vertex $-1 $29 $98 #
straight-curve $-1 -9.5 0 9.5 1 0 0 I I #
point $-1 -12.5 0 9.5 #
point $-1 -9.5 0 9.5 #
face $-1 $99 $95 $2 $-1 $100 forward single #
loop $-1 $-1 $92 $33 #
plane-surface $-1 -13.5 0 9.5 0 0 1 1 0 0 forward_v I I I I #
coedge $-1 $101 $102 $37 $67 reversed $34 $-1 #
coedge $-1 $103 $104 $105 $106 reversed $36 $-1 #
coedge $-1 $107 $37 $108 $109 reversed $19 $-1 #
coedge $-1 $37 $70 $110 $111 forward $19 $-1 #
edge $-1 $112 0 $113 16 $37 $114 forward 7 unknown #
coedge $-1 $54 $115 $39 $69 forward $95 $-1 #
edge $-1 $73 0 $56 2.5 $39 $116 forward 7 unknown #
coedge $-1 $66 $40 $115 $117 reversed $19 $-1 #
coedge $-1 $40 $118 $42 $75 forward $19 $-1 #
vertex $-1 $41 $119 #
vertex $-1 $117 $120 #
straight-curve $-1 -9.5 2.5 9.5 1 0 0 I I #
edge $-1 $78 0 $72 3.141592653589793116 $71 $121 forward 7 unknown #
straight-curve $-1 -9.5 0 9.5 0 1 0 I I #
coedge $-1 $49 $44 $118 $122 reversed $50 $-1 #
vertex $-1 $75 $123 #
straight-curve $-1 -12.5 0 9.5 0 1 0 I I #
coedge $-1 $124 $46 $125 $126 reversed $5 $-1 #
coedge $-1 $127 $128 $46 $82 forward $129 $-1 #
edge $-1 $130 0 $86 3.141592653589793116 $46 $131 forward 7 unknown #
coedge $-1 $132 $47 $49 $88 forward $85 $-1 #
coedge $-1 $47 $132 $127 $133 reversed $85 $-1 #
loop $-1 $-1 $47 $134 #
vertex $-1 $82 $135 #
straight-curve $-1 -13.5 0 -6.5 0 0 1 I I #
edge $-1 $51 0 $136 2.5 $83 $137 forward 7 unknown #
face $-1 $138 $50 $2 $-1 $139 forward single #
point $-1 -13.5 0 9.5 #
coedge $-1 $53 $124 $140 $141 reversed $5 $-1 #
coedge $-1 $142 $143 $53 $93 forward $61 $-1 #
edge $-1 $96 0 $144 1 $53 $145 forward 7 unknown #
coedge $-1 $115 $54 $143 $146 reversed $95 $-1 #
loop $-1 $-1 $115 $60 #
vertex $-1 $55 $147 #
ellipse-curve $-1 11 0 9.5 0 -1 0 1.5 0 0 1 I I #
point $-1 9.5 0 9.5 #
face $-1 $148 $149 $2 $-1 $150 forward single #
cone-surface $-1 11 0 9.5 0 -1 0 -1.5 0 0 1 I I 0 1 1.5 forward I I I I #
coedge $-1 $140 $63 $142 $151 reversed $34 $-1 #
coedge $-1 $63 $140 $152 $153 reversed $34 $-1 #
coedge $-1 $154 $64 $155 $156 reversed $36 $-1 #
coedge $-1 $64 $154 $157 $158 reversed $36 $-1 #
coedge $-1 $159 $160 $64 $106 forward $161 $-1 #
edge $-1 $162 0 $163 22 $64 $164 forward 7 unknown #
coedge $-1 $165 $65 $166 $167 forward $19 $-1 #
coedge $-1 $152 $168 $65 $109 forward $149 $-1 #
edge $-1 $169 0 $113 3.141592653589793116 $65 $170 forward 7 unknown #
coedge $-1 $143 $142 $66 $111 reversed $61 $-1 #
edge $-1 $171 0 $112 1 $66 $172 forward 7 unknown #
vertex $-1 $111 $173 #
vertex $-1 $109 $174 #
straight-curve $-1 13.5 2.5 9.5 0 0 -1 I I #
coedge $-1 $68 $94 $70 $117 forward $95 $-1 #
straight-curve $-1 9.5 2.5 9.5 0 -1 0 I I #
edge $-1 $171 0 $73 3.141592653589793116 $70 $175 forward 7 unknown #
coedge $-1 $71 $176 $77 $122 forward $19 $-1 #
point $-1 -9.5 2.5 9.5 #
point $-1 9.5 2.5 9.5 #
ellipse-curve $-1 -11 2.5 9.5 0 1 0 -1.5 0 0 1 I I #
edge $-1 $136 0 $78 1 $118 $177 forward 7 unknown #
point $-1 -12.5 2.5 9.5 #
coedge $-1 $91 $80 $178 $179 forward $5 $-1 #
coedge $-1 $180 $181 $80 $126 forward $182 $-1 #
edge $-1 $183 0 $130 27 $80 $184 forward 7 unknown #
coedge $-1 $185 $81 $84 $133 forward $129 $-1 #
coedge $-1 $81 $185 $180 $186 reversed $129 $-1 #
loop $-1 $-1 $81 $187 #
vertex $-1 $126 $188 #
ellipse-curve $-1 -13.5 0 -8 0 1 0 0 0 -1.5 1 I I #
coedge $-1 $84 $83 $176 $189 reversed $85 $-1 #
edge $-1 $86 0 $190 2.5 $84 $191 forward 7 unknown #
face $-1 $89 $85 $2 $-1 $192 forward single #
point $-1 -13.5 0 -6.5 #
vertex $-1 $122 $193 #
straight-curve $-1 -13.5 0 9.5 0 1 0 I I #
face $-1 $194 $161 $2 $-1 $195 reversed single #
plane-surface $-1 -13.5 0 9.5 0 0 1 1 0 0 forward_v I I I I #
coedge $-1 $102 $101 $91 $141 forward $34 $-1 #
edge $-1 $144 0 $196 16 $91 $197 forward 7 unknown #
coedge $-1 $110 $92 $101 $151 forward $61 $-1 #
coedge $-1 $92 $110 $94 $146 forward $61 $-1 #
vertex $-1 $93 $198 #
straight-curve $-1 12.5 0 9.5 1 0 0 I I #
edge $-1 $171 0 $96 2.5 $143 $199 forward 7 unknown #
point $-1 12.5 0 9.5 #
face $-1 $187 $182 $2 $-1 $200 forward single #
loop $-1 $-1 $108 $99 #
cone-surface $-1 13.5 0 -8 0 -1 0 -1.5 0 0 1 I I 0 1 1.5 forward I I I I #
edge $-1 $144 0 $112 2.5 $142 $201 forward 7 unknown #
coedge $-1 $178 $108 $102 $153 forward $149 $-1 #
edge $-1 $113 0 $196 2.5 $102 $202 forward 7 unknown #
coedge $-1 $104 $103 $203 $204 reversed $36 $-1 #
coedge $-1 $205 $206 $103 $156 forward $207 $-1 #
edge $-1 $208 0 $162 14.5 $103 $209 forward 7 unknown #
coedge $-1 $210 $211 $104 $158 forward $212 $-1 #
edge $-1 $163 0 $213 14.5 $104 $214 forward 7 unknown #
coedge $-1 $215 $105 $211 $216 forward $161 $-1 #
coedge $-1 $105 $215 $205 $217 reversed $161 $-1 #
loop $-1 $-1 $159 $138 #
vertex $-1 $156 $218 #
vertex $-1 $158 $219 #
straight-curve $-1 11 2.5 -8 -1 0 0 I I #
coedge $-1 $176 $107 $185 $220 forward $19 $-1 #
coedge $-1 $181 $180 $107 $167 reversed $182 $-1 #
edge $-1 $169 0 $221 27 $107 $222 forward 7 unknown #
coedge $-1 $108 $178 $181 $223 reversed $149 $-1 #
vertex $-1 $167 $224 #
ellipse-curve $-1 13.5 2.5 -8 0 -1 0 0 0 -1.5 1 I I #
vertex $-1 $111 $225 #
straight-curve $-1 12.5 2.5 9.5 1 0 0 I I #
point $-1 13.5 2.5 9.5 #
point $-1 13.5 2.5 -6.5 #
ellipse-curve $-1 11 2.5 9.5 0 -1 0 1.5 0 0 1 I I #
coedge $-1 $118 $165 $132 $189 forward $19 $-1 #
straight-curve $-1 -13.5 2.5 9.5 1 0 0 I I #
coedge $-1 $168 $152 $124 $179 reversed $149 $-1 #
edge $-1 $183 0 $196 3.141592653589793116 $124 $226 forward 7 unknown #
coedge $-1 $166 $125 $128 $186 forward $182 $-1 #
coedge $-1 $125 $166 $168 $223 forward $182 $-1 #
loop $-1 $-1 $125 $148 #
vertex $-1 $179 $227 #
straight-curve $-1 13.5 0 -9.5 -1 0 0 I I #
coedge $-1 $128 $127 $165 $220 reversed $129 $-1 #
edge $-1 $130 0 $221 2.5 $180 $228 forward 7 unknown #
face $-1 $134 $129 $2 $-1 $229 forward single #
point $-1 -13.5 0 -9.5 #
edge $-1 $190 0 $136 16 $176 $230 forward 7 unknown #
vertex $-1 $189 $231 #
straight-curve $-1 -13.5 0 -6.5 0 1 0 I I #
plane-surface $-1 -13.5 0 -9.5 -1 0 0 0 0 1 forward_v I I I I #
point $-1 -13.5 2.5 9.5 #
face $-1 $232 $212 $2 $-1 $233 reversed single #
plane-surface $-1 11 2.5 -8 0 0 -1 -1 0 0 forward_v I I I I #
vertex $-1 $141 $234 #
straight-curve $-1 13.5 0 9.5 0 0 -1 I I #
point $-1 13.5 0 9.5 #
straight-curve $-1 12.5 2.5 9.5 0 -1 0 I I #
plane-surface $-1 13.5 0 -9.5 0 0 -1 -1 0 0 forward_v I I I I #
straight-curve $-1 13.5 0 9.5 0 1 0 I I #
straight-curve $-1 13.5 2.5 -6.5 0 -1 0 I I #
coedge $-1 $235 $236 $154 $204 forward $237 $-1 #
edge $-1 $213 0 $208 22 $154 $238 forward 7 unknown #
coedge $-1 $239 $155 $160 $217 forward $207 $-1 #
coedge $-1 $155 $239 $235 $240 reversed $207 $-1 #
loop $-1 $-1 $205 $241 #
vertex $-1 $204 $242 #
straight-curve $-1 11 2.5 6.5 0 0 -1 I I #
coedge $-1 $243 $157 $236 $244 forward $212 $-1 #
coedge $-1 $157 $243 $159 $216 reversed $212 $-1 #
loop $-1 $-1 $210 $194 #
vertex $-1 $158 $245 #
straight-curve $-1 -11 2.5 -8 0 0 1 I I #
coedge $-1 $160 $159 $246 $247 reversed $161 $-1 #
edge $-1 $163 0 $248 0.5 $211 $249 forward 7 unknown #
edge $-1 $162 0 $250 0.5 $205 $251 forward 7 unknown #
point $-1 11 2.5 -8 #
point $-1 -11 2.5 -8 #
edge $-1 $221 0 $190 3.141592653589793116 $165 $252 forward 7 unknown #
vertex $-1 $220 $253 #
straight-curve $-1 13.5 2.5 -9.5 -1 0 0 I I #
edge $-1 $169 0 $183 2.5 $181 $254 forward 7 unknown #
point $-1 13.5 2.5 -9.5 #
point $-1 12.5 2.5 9.5 #
ellipse-curve $-1 13.5 0 -8 0 -1 0 0 0 -1.5 1 I I #
point $-1 13.5 0 -9.5 #
straight-curve $-1 -13.5 0 -9.5 0 1 0 I I #
cone-surface $-1 -13.5 0 -8 0 1 0 1.5 0 0 1 I I 0 1 1.5 forward I I I I #
straight-curve $-1 -13.5 2.5 -6.5 0 0 1 I I #
point $-1 -13.5 2.5 -6.5 #
face $-1 $241 $237 $2 $-1 $255 reversed single #
plane-surface $-1 -11 2.5 -8 -1 0 0 0 0 1 forward_v I I I I #
point $-1 13.5 0 -6.5 #
coedge $-1 $256 $203 $206 $240 forward $237 $-1 #
coedge $-1 $203 $256 $210 $244 reversed $237 $-1 #
loop $-1 $-1 $235 $232 #
straight-curve $-1 -11 2.5 6.5 1 0 0 I I #
coedge $-1 $206 $205 $257 $258 reversed $207 $-1 #
edge $-1 $208 0 $259 0.5 $235 $260 forward 7 unknown #
face $-1 $261 $207 $2 $-1 $262 reversed single #
point $-1 11 2.5 6.5 #
coedge $-1 $211 $210 $263 $264 reversed $212 $-1 #
edge $-1 $213 0 $265 0.5 $210 $266 forward 7 unknown #
point $-1 -11 2.5 6.5 #
coedge $-1 $263 $257 $215 $247 forward $267 $-1 #
edge $-1 $250 0 $248 22 $246 $268 forward 7 unknown #
vertex $-1 $264 $269 #
straight-curve $-1 -11 2.5 -8 0 -1 0 I I #
vertex $-1 $247 $270 #
straight-curve $-1 11 2.5 -8 0 -1 0 I I #
ellipse-curve $-1 -13.5 2.5 -8 0 1 0 0 0 -1.5 1 I I #
point $-1 -13.5 2.5 -9.5 #
straight-curve $-1 13.5 2.5 -9.5 0 -1 0 I I #
plane-surface $-1 -11 2.5 6.5 0 0 1 1 0 0 forward_v I I I I #
coedge $-1 $236 $235 $271 $272 reversed $237 $-1 #
coedge $-1 $246 $271 $239 $258 forward $267 $-1 #
edge $-1 $259 0 $250 14.5 $257 $273 forward 7 unknown #
vertex $-1 $258 $274 #
straight-curve $-1 11 2.5 6.5 0 -1 0 I I #
face $-1 $-1 $267 $2 $-1 $275 forward single #
plane-surface $-1 11 2.5 6.5 1 0 0 0 0 -1 forward_v I I I I #
coedge $-1 $271 $246 $243 $264 forward $267 $-1 #
edge $-1 $248 0 $265 14.5 $263 $276 forward 7 unknown #
vertex $-1 $264 $277 #
straight-curve $-1 -11 2.5 6.5 0 -1 0 I I #
loop $-1 $-1 $271 $261 #
straight-curve $-1 11 2 -8 -1 0 0 I I #
point $-1 -11 2 -8 #
point $-1 11 2 -8 #
coedge $-1 $257 $263 $256 $272 forward $267 $-1 #
edge $-1 $265 0 $259 22 $271 $278 forward 7 unknown #
straight-curve $-1 11 2 6.5 0 0 -1 I I #
point $-1 11 2 6.5 #
plane-surface $-1 0 2 0 0 1 0 1 0 0 forward_v I I I I #
straight-curve $-1 -11 2 -8 0 0 1 I I #
point $-1 -11 2 6.5 #
straight-curve $-1 -11 2 6.5 1 0 0 I I #
End-of-ACIS-data 