600 0 1 0           
92 GICL Pro/E ACIS Translator - Source: f:/data5/repository/PTC/V18/fly_small18/motor.prt - 6 0 13 ACIS 6.0.3 NT 24 Thu Apr 04 10:01:21 2002 
1 9.9999999999999995e-007 1e-010 
body $-1 $1 $-1 $-1 #
lump $-1 $-1 $2 $0 #
shell $-1 $-1 $-1 $3 $-1 $1 #
face $-1 $4 $5 $2 $-1 $6 reversed single #
face $-1 $7 $8 $2 $-1 $9 forward single #
loop $-1 $10 $11 $3 #
plane-surface $-1 0 0 0 0 0 -1 -1 0 0 forward_v I I I I #
face $-1 $12 $13 $2 $-1 $14 forward single #
loop $-1 $-1 $15 $4 #
torus-surface $-1 0 0 -0.5 0 0 -1 4.5 0.5 -0.99999563951296311 0.0029531263196626561 0 forward_v I I I I #
loop $-1 $-1 $16 $3 #
coedge $-1 $17 $17 $18 $19 forward $5 $-1 #
face $-1 $20 $21 $2 $-1 $22 forward single #
loop $-1 $-1 $23 $7 #
torus-surface $-1 0 0 -0.5 0 0 -1 4.5 0.5 0.99999563951296311 -0.0029531263196623347 0 forward_v I I I I #
coedge $-1 $24 $18 $25 $26 forward $8 $-1 #
coedge $-1 $27 $27 $28 $29 reversed $10 $-1 #
coedge $-1 $11 $11 $30 $31 forward $5 $-1 #
coedge $-1 $15 $32 $11 $19 reversed $8 $-1 #
edge $-1 $33 3.8390972499789834e-014 $34 3.1415926535898002 $11 $35 forward 7 unknown #
face $-1 $36 $37 $2 $-1 $38 forward single #
loop $-1 $-1 $39 $12 #
cone-surface $-1 0 0 0 0 0 -1 -5 0 0 1 I I 0 1 5 forward I I I I #
coedge $-1 $40 $30 $32 $41 forward $13 $-1 #
coedge $-1 $32 $15 $42 $43 forward $8 $-1 #
coedge $-1 $30 $40 $15 $26 reversed $13 $-1 #
edge $-1 $33 -2.5860816848189645e-024 $44 1.5707963267949272 $25 $45 forward 7 unknown #
coedge $-1 $16 $16 $46 $47 reversed $10 $-1 #
coedge $-1 $48 $49 $16 $29 forward $50 $-1 #
edge $-1 $51 0 $52 3.1415926535897931 $16 $53 forward 7 unknown #
coedge $-1 $23 $25 $17 $31 reversed $13 $-1 #
edge $-1 $34 0 $33 3.1415926535898397 $17 $54 forward 7 unknown #
coedge $-1 $18 $24 $23 $41 reversed $8 $-1 #
vertex $-1 $31 $55 #
vertex $-1 $31 $56 #
ellipse-curve $-1 4.4408920985006262e-016 -1.7319479184152442e-014 0 0 0 1 -4.4999999999999822 1.0414759332721924e-013 0 1 I I #
face $-1 $57 $58 $2 $-1 $59 forward single #
loop $-1 $-1 $60 $20 #
cone-surface $-1 0 0 0 0 0 -1 -5 0 0 1 I I 0 1 5 forward I I I I #
coedge $-1 $61 $62 $63 $64 reversed $21 $-1 #
coedge $-1 $25 $23 $61 $65 forward $13 $-1 #
edge $-1 $34 0 $66 1.5707963267949281 $23 $67 forward 7 unknown #
coedge $-1 $63 $60 $24 $43 reversed $37 $-1 #
edge $-1 $44 1.6242331553802578e-012 $66 3.1415926535914172 $42 $68 forward 7 unknown #
vertex $-1 $65 $69 #
ellipse-curve $-1 -4.4999999999999982 4.3788467072640459e-012 -0.50000000000000067 -7.4846381392744838e-012 -1 -8.5840371862417071e-012 1.5987211554602254e-014 -4.2920185931209787e-012 0.50000000000000067 1 I I #
coedge $-1 $70 $71 $27 $47 forward $72 $-1 #
edge $-1 $52 0 $51 3.1415926535897931 $27 $73 forward 7 unknown #
coedge $-1 $74 $28 $71 $75 forward $50 $-1 #
coedge $-1 $28 $74 $70 $76 reversed $50 $-1 #
loop $-1 $-1 $48 $77 #
vertex $-1 $47 $78 #
vertex $-1 $47 $79 #
ellipse-curve $-1 0 0 0 0 0 1 -2.5 0 0 1 I I #
ellipse-curve $-1 0 1.7541523789077473e-014 0 0 0 1 4.4999999999999822 -1.0691968144183016e-013 0 1 I I #
point $-1 -4.4999999999999822 -8.5931262105986775e-014 0 #
point $-1 4.4999999999999822 -8.9378157652752691e-014 0 #
face $-1 $80 $81 $2 $-1 $82 forward single #
loop $-1 $-1 $83 $36 #
torus-surface $-1 0 0 -8.5 0 0 -1 4.5 0.5 0.99999563951296311 0.0029531263196625798 0 forward_v I I I I #
coedge $-1 $42 $84 $85 $86 reversed $37 $-1 #
coedge $-1 $85 $39 $40 $65 reversed $21 $-1 #
coedge $-1 $39 $85 $87 $88 reversed $21 $-1 #
coedge $-1 $84 $42 $39 $64 forward $37 $-1 #
edge $-1 $44 0 $89 8 $39 $90 forward 7 unknown #
edge $-1 $66 1.6249222923511261e-012 $44 3.1415926535914176 $61 $91 forward 7 unknown #
vertex $-1 $86 $92 #
ellipse-curve $-1 4.4999999999999982 -4.3906431167168986e-012 -0.50000000000000022 7.4667120837236347e-012 1 -8.6025299181280473e-012 -1.5987211554602254e-014 4.3012649590641456e-012 0.50000000000000022 1 I I #
ellipse-curve $-1 0 0 -0.5 0 0 1 -4.9999999999999991 8.1211657769012878e-012 0 1 I I #
point $-1 -5 0 -0.5 #
coedge $-1 $93 $46 $49 $76 forward $72 $-1 #
coedge $-1 $46 $93 $48 $75 reversed $72 $-1 #
loop $-1 $-1 $70 $94 #
ellipse-curve $-1 0 0 0 0 0 1 2.5 0 0 1 I I #
coedge $-1 $49 $48 $95 $96 reversed $50 $-1 #
edge $-1 $52 0 $97 1.5 $71 $98 forward 7 unknown #
edge $-1 $51 0 $99 1.5 $70 $100 forward 7 unknown #
face $-1 $94 $50 $2 $-1 $101 forward single #
point $-1 -2.5 0 0 #
point $-1 2.5 0 0 #
face $-1 $102 $103 $2 $-1 $104 forward single #
loop $-1 $-1 $105 $57 #
torus-surface $-1 0 0 -8.5 0 0 -1 4.5 0.5 -0.99999563951296311 -0.0029531263196625949 0 forward_v I I I I #
coedge $-1 $106 $107 $108 $109 forward $58 $-1 #
coedge $-1 $60 $63 $106 $110 reversed $37 $-1 #
coedge $-1 $62 $61 $60 $86 forward $21 $-1 #
edge $-1 $66 0 $111 8 $85 $112 forward 7 unknown #
coedge $-1 $108 $105 $62 $88 forward $81 $-1 #
edge $-1 $89 0 $111 3.1415926535897993 $62 $113 forward 7 unknown #
vertex $-1 $88 $114 #
straight-curve $-1 -5 0 -0.5 0 0 -1 I I #
ellipse-curve $-1 0 0 -0.5 0 0 1 4.9999999999999991 -8.1239991585787176e-012 0 1 I I #
point $-1 5 6.1230317691118863e-016 -0.5 #
coedge $-1 $71 $70 $115 $116 reversed $72 $-1 #
face $-1 $117 $72 $2 $-1 $118 forward single #
coedge $-1 $115 $115 $74 $96 forward $119 $-1 #
edge $-1 $99 0 $97 3.1415926535897931 $95 $120 forward 7 unknown #
vertex $-1 $116 $121 #
straight-curve $-1 2.5 0 0 0 0 1 I I #
vertex $-1 $116 $122 #
straight-curve $-1 -2.5 3.0615158845559431e-016 0 0 0 1 I I #
cone-surface $-1 0 0 0 0 0 1 2.5 0 0 1 I I 0 1 2.5 forward I I I I #
face $-1 $123 $124 $2 $-1 $125 forward single #
loop $-1 $126 $127 $80 #
plane-surface $-1 0 0 -9 0 0 -1 -1 0 0 forward_v I I I I #
coedge $-1 $87 $128 $129 $130 forward $81 $-1 #
coedge $-1 $129 $83 $84 $110 forward $58 $-1 #
coedge $-1 $83 $129 $127 $131 reversed $58 $-1 #
coedge $-1 $128 $87 $83 $109 reversed $81 $-1 #
edge $-1 $132 -3.5527136814254198e-015 $111 1.5707963267949339 $108 $133 forward 7 unknown #
edge $-1 $111 6.5233312578843981e-015 $89 3.1415926535897931 $84 $134 forward 7 unknown #
vertex $-1 $88 $135 #
straight-curve $-1 5 6.1230317691118863e-016 -0.5 0 2.7755575615628914e-016 -1 I I #
ellipse-curve $-1 0 0 -8.5 0 0 -1 -4.9999999999999991 -8.1253002011857002e-012 0 1 I I #
point $-1 -4.9999999999999991 -8.1253002011857002e-012 -8.5 #
coedge $-1 $95 $95 $93 $116 forward $119 $-1 #
edge $-1 $97 0 $99 3.1415926535897931 $115 $136 forward 7 unknown #
face $-1 $137 $119 $2 $-1 $138 forward single #
cone-surface $-1 0 0 0 0 0 1 2.5 0 0 1 I I 0 1 2.5 forward I I I I #
loop $-1 $139 $95 $117 #
ellipse-curve $-1 0 0 1.5 0 0 1 -2.5 0 0 1 I I #
point $-1 2.5 0 1.5 #
point $-1 -2.5 0 1.5 #
face $-1 $140 $141 $2 $-1 $142 forward single #
loop $-1 $-1 $143 $102 #
cone-surface $-1 0 0 -9 0 0 -1 -0.59999999999999998 0 0 1 I I 0 1 0.59999999999999998 forward I I I I #
loop $-1 $-1 $144 $80 #
coedge $-1 $145 $145 $107 $131 forward $103 $-1 #
coedge $-1 $105 $108 $145 $146 reversed $81 $-1 #
coedge $-1 $107 $106 $105 $130 reversed $58 $-1 #
edge $-1 $147 0 $89 1.5707963267949374 $105 $148 forward 7 unknown #
edge $-1 $132 3.8942614565150453e-014 $147 3.1415926535898016 $127 $149 forward 7 unknown #
vertex $-1 $146 $150 #
ellipse-curve $-1 4.4999999999999991 4.3805351256786078e-012 -8.5000000000000018 7.4893798083129313e-012 -1 8.5801073677900458e-012 -1.6875389974302379e-014 -4.2900536838951336e-012 -0.49999999999999822 1 I I #
ellipse-curve $-1 0 0 -8.5 0 0 -1 4.9999999999999991 8.1252250298350735e-012 0 1 I I #
point $-1 5 8.0926083735456522e-012 -8.5 #
ellipse-curve $-1 0 0 1.5 0 0 1 2.5 0 0 1 I I #
face $-1 $151 $152 $2 $-1 $153 forward single #
plane-surface $-1 0 0 1.5 0 0 1 1 0 0 forward_v I I I I #
loop $-1 $-1 $154 $117 #
face $-1 $77 $155 $2 $-1 $156 forward single #
loop $-1 $-1 $157 $123 #
cone-surface $-1 0 0 -9 0 0 -1 -0.59999999999999998 0 0 1 I I 0 1 0.59999999999999998 forward I I I I #
coedge $-1 $158 $159 $160 $161 forward $124 $-1 #
coedge $-1 $162 $162 $159 $163 reversed $126 $-1 #
coedge $-1 $127 $127 $128 $146 forward $103 $-1 #
edge $-1 $147 0 $132 3.1415926535898393 $145 $164 forward 7 unknown #
vertex $-1 $146 $165 #
ellipse-curve $-1 -4.5 -4.3843587003276857e-012 -8.5000000000000018 -7.4818830017160275e-012 1 8.5956128144343489e-012 1.865174681370263e-014 4.2978064072172989e-012 -0.49999999999999822 1 I I #
ellipse-curve $-1 -6.6613381477509392e-016 -1.6875389974302379e-014 -9 0 0 -1 4.4999999999999831 1.0735683175777632e-013 0 1 I I #
point $-1 4.4999999999999805 -8.4760323759702405e-014 -9 #
face $-1 $166 $167 $2 $-1 $168 forward single #
loop $-1 $-1 $169 $137 #
cone-surface $-1 0 0 1.5 0 0 1 0.59999999999999998 0 0 1 I I 0 1 0.59999999999999998 forward I I I I #
coedge $-1 $170 $170 $171 $172 reversed $139 $-1 #
loop $-1 $-1 $173 $140 #
plane-surface $-1 0 0 -12.5 0 0 -1 -1 0 0 forward_v I I I I #
coedge $-1 $174 $175 $176 $177 forward $141 $-1 #
coedge $-1 $176 $143 $173 $178 reversed $124 $-1 #
coedge $-1 $143 $176 $144 $163 forward $124 $-1 #
coedge $-1 $175 $174 $143 $161 reversed $141 $-1 #
edge $-1 $179 0 $180 3.5 $160 $181 forward 7 unknown #
coedge $-1 $144 $144 $175 $182 reversed $126 $-1 #
edge $-1 $183 0 $179 3.1415926535897931 $144 $184 forward 7 unknown #
ellipse-curve $-1 -8.8817841970012523e-016 1.8207657603852567e-014 -9 0 0 -1 -4.4999999999999805 -1.0475995071423904e-013 0 1 I I #
point $-1 -4.4999999999999813 -8.6552293110386472e-014 -9 #
face $-1 $-1 $185 $2 $-1 $186 forward single #
loop $-1 $-1 $187 $151 #
cone-surface $-1 0 0 1.5 0 0 1 0.59999999999999998 0 0 1 I I 0 1 0.59999999999999998 forward I I I I #
coedge $-1 $188 $171 $189 $190 forward $152 $-1 #
coedge $-1 $154 $154 $191 $192 reversed $139 $-1 #
coedge $-1 $169 $193 $154 $172 forward $152 $-1 #
edge $-1 $194 0 $195 3.1415926535897931 $154 $196 forward 7 unknown #
coedge $-1 $197 $197 $158 $178 forward $155 $-1 #
coedge $-1 $160 $157 $197 $198 reversed $141 $-1 #
coedge $-1 $157 $160 $162 $182 forward $141 $-1 #
coedge $-1 $159 $158 $157 $177 reversed $124 $-1 #
edge $-1 $183 0 $199 3.5 $157 $200 forward 7 unknown #
edge $-1 $199 0 $180 3.1415926535897931 $173 $201 forward 7 unknown #
vertex $-1 $182 $202 #
vertex $-1 $198 $203 #
straight-curve $-1 -0.59999999999999998 0 -9 0 0 -1 I I #
edge $-1 $179 0 $183 3.1415926535897931 $162 $204 forward 7 unknown #
vertex $-1 $182 $205 #
ellipse-curve $-1 0 0 -9 0 0 -1 0.59999999999999998 0 0 1 I I #
loop $-1 $-1 $206 $166 #
plane-surface $-1 0 0 1.7 0 0 1 1 0 0 forward_v I I I I #
coedge $-1 $207 $191 $193 $208 forward $167 $-1 #
coedge $-1 $193 $169 $206 $209 reversed $152 $-1 #
coedge $-1 $191 $207 $169 $190 reversed $167 $-1 #
edge $-1 $195 0 $210 0.19999999999999996 $189 $211 forward 7 unknown #
coedge $-1 $187 $189 $170 $192 forward $167 $-1 #
edge $-1 $195 0 $194 3.1415926535897931 $170 $212 forward 7 unknown #
coedge $-1 $171 $188 $187 $208 reversed $152 $-1 #
vertex $-1 $192 $213 #
vertex $-1 $192 $214 #
ellipse-curve $-1 0 0 1.5 0 0 1 -0.59999999999999998 0 0 1 I I #
coedge $-1 $173 $173 $174 $198 forward $155 $-1 #
edge $-1 $180 0 $199 3.1415926535897931 $197 $215 forward 7 unknown #
vertex $-1 $198 $216 #
straight-curve $-1 0.59999999999999998 7.3476381229342628e-017 -9 0 0 -1 I I #
ellipse-curve $-1 0 0 -12.5 0 0 -1 0.59999999999999998 0 0 1 I I #
point $-1 -0.59999999999999998 0 -9 #
point $-1 -0.59999999999999998 0 -12.5 #
ellipse-curve $-1 0 0 -9 0 0 -1 -0.59999999999999998 0 0 1 I I #
point $-1 0.59999999999999998 0 -9 #
coedge $-1 $217 $217 $188 $209 forward $185 $-1 #
coedge $-1 $189 $187 $217 $218 reversed $167 $-1 #
edge $-1 $194 0 $219 0.19999999999999996 $187 $220 forward 7 unknown #
edge $-1 $219 0 $210 3.1415926535897931 $206 $221 forward 7 unknown #
vertex $-1 $218 $222 #
straight-curve $-1 0.59999999999999998 0 1.5 0 0 1 I I #
ellipse-curve $-1 0 0 1.5 0 0 1 0.59999999999999998 0 0 1 I I #
point $-1 -0.59999999999999998 0 1.5 #
point $-1 0.59999999999999998 0 1.5 #
ellipse-curve $-1 0 0 -12.5 0 0 -1 -0.59999999999999998 0 0 1 I I #
point $-1 0.59999999999999998 0 -12.5 #
coedge $-1 $206 $206 $207 $218 forward $185 $-1 #
edge $-1 $210 0 $219 3.1415926535897931 $217 $223 forward 7 unknown #
vertex $-1 $218 $224 #
straight-curve $-1 -0.59999999999999998 7.3476381229342628e-017 1.5 0 0 1 I I #
ellipse-curve $-1 0 0 1.7 0 0 1 -0.59999999999999998 0 0 1 I I #
point $-1 0.59999999999999998 0 1.7 #
ellipse-curve $-1 0 0 1.7 0 0 1 0.59999999999999998 0 0 1 I I #
point $-1 -0.59999999999999998 0 1.7 #
End-of-ACIS-data 