700 0 2 0           
24 FBMach with ACIS - 7.0.3 13 ACIS 7.0.3 NT 24 Wed May 15 18:02:50 2002 
1 9.9999999999999995e-007 1e-010 
body $2 -1 $-1 $3 $-1 $4 #
bdycol-kcp $-1 -1 1 3 $5 $6 $7 #
model_id-kcp-attrib $-1 -1 $-1 $-1 $0 1 1021500170 1021500170 -1931083775 1 #
lump $-1 -1 $-1 $-1 $8 $0 #
transform $-1 -1 1 0 0 0 1 0 0 0 1 0 0 0 1 rotate no_reflect no_shear #
body $9 -1 $-1 $10 $-1 $11 #
body $12 -1 $-1 $13 $-1 $14 #
body $15 -1 $-1 $16 $-1 $17 #
shell $-1 -1 $-1 $-1 $-1 $18 $-1 $3 #
rgb_color-st-attrib $-1 -1 $19 $-1 $5 0.5 1 1 #
lump $-1 -1 $-1 $-1 $20 $5 #
transform $-1 -1 1 0 0 0 1 0 0 0 1 0 0 0.25 1 no_rotate no_reflect no_shear #
rgb_color-st-attrib $-1 -1 $21 $-1 $6 0.5 1 1 #
lump $-1 -1 $-1 $-1 $22 $6 #
transform $-1 -1 1 0 0 0 1 0 0 0 1 0 0 0 1 no_rotate no_reflect no_shear #
model_id-kcp-attrib $-1 -1 $-1 $-1 $7 1 1021500170 1021500170 -1931083774 1 #
lump $-1 -1 $-1 $-1 $23 $7 #
transform $-1 -1 1 0 0 0 1 0 0 0 1 0 0 0.25 1 no_rotate no_reflect no_shear #
face $24 -1 $-1 $25 $26 $8 $-1 $27 reversed single #
model_id-kcp-attrib $-1 -1 $-1 $9 $5 1 1021500170 1021500170 -1941241853 1 #
shell $-1 -1 $-1 $-1 $-1 $28 $-1 $10 #
model_id-kcp-attrib $-1 -1 $-1 $12 $6 1 1021500170 1021500170 -1937309692 1 #
shell $-1 -1 $-1 $-1 $-1 $29 $-1 $13 #
shell $-1 -1 $-1 $-1 $-1 $30 $-1 $16 #
model_id-kcp-attrib $-1 -1 $-1 $-1 $18 1 1021500170 1021500170 -1931083775 2 #
face $31 -1 $-1 $32 $33 $8 $-1 $34 forward single #
loop $-1 -1 $-1 $35 $36 $18 #
plane-surface $-1 -1 $-1 0 0 0 0 0 1 1 0 0 forward_v I I I I #
face $-1 -1 $-1 $37 $38 $20 $-1 $39 reversed single #
face $-1 -1 $-1 $40 $41 $22 $-1 $42 forward single #
face $43 -1 $-1 $44 $45 $23 $-1 $46 forward single #
model_id-kcp-attrib $-1 -1 $-1 $-1 $25 1 1021500170 1021500170 -1931083775 3 #
face $47 -1 $-1 $48 $49 $8 $-1 $50 forward single #
loop $-1 -1 $-1 $-1 $51 $25 #
cone-surface $-1 -1 $-1 0 0 0 0 0 1 5 0 0 1 I I 0 1 5 forward I I I I #
loop $-1 -1 $-1 $-1 $52 $18 #
coedge $-1 -1 $-1 $53 $53 $54 $55 reversed $26 $-1 #
face $-1 -1 $-1 $56 $57 $20 $-1 $39 reversed single #
loop $-1 -1 $-1 $-1 $58 $28 #
cone-surface $-1 -1 $-1 -1.8745759022776718e-032 0 -0.25 0 0 -1 5 0 0 1 I I 0 1 5 forward I I I I #
face $-1 -1 $-1 $59 $60 $22 $-1 $61 forward single #
loop $-1 -1 $-1 $62 $63 $29 #
cone-surface $-1 -1 $-1 0 0 0 0 0 1 2.5 0 0 1 I I 0 1 2.5 forward I I I I #
model_id-kcp-attrib $-1 -1 $-1 $-1 $30 1 1021500170 1021500170 -1931083774 3 #
face $64 -1 $-1 $65 $66 $23 $-1 $67 reversed single #
loop $-1 -1 $-1 $-1 $68 $30 #
plane-surface $-1 -1 $-1 0 0 0.25 0 0 1 1 0 0 forward_v I I I I #
model_id-kcp-attrib $-1 -1 $-1 $-1 $32 1 1021500170 1021500170 -1931083775 4 #
face $69 -1 $-1 $70 $71 $8 $-1 $72 forward single #
loop $-1 -1 $-1 $-1 $73 $32 #
cone-surface $-1 -1 $-1 0 0 0 0 0 1 5 0 0 1 I I 0 1 5 forward I I I I #
coedge $-1 -1 $-1 $74 $54 $75 $76 forward $33 $-1 #
coedge $-1 -1 $-1 $77 $77 $78 $79 reversed $35 $-1 #
coedge $-1 -1 $-1 $36 $36 $80 $81 reversed $26 $-1 #
coedge $-1 -1 $-1 $51 $82 $36 $55 forward $33 $-1 #
edge $83 -1 $-1 $84 0 $85 3.1415926535897931 $36 $86 forward @7 unknown #
face $-1 -1 $-1 $87 $88 $20 $-1 $39 reversed single #
loop $-1 -1 $-1 $-1 $89 $37 #
coedge $-1 -1 $-1 $90 $91 $92 $93 forward $38 $-1 #
face $-1 -1 $-1 $-1 $94 $22 $-1 $95 reversed single #
loop $-1 -1 $-1 $-1 $96 $40 #
plane-surface $-1 -1 $-1 0 0 0.5 0 0 1 1 0 0 forward_v I I I I #
loop $-1 -1 $-1 $-1 $97 $29 #
coedge $-1 -1 $-1 $63 $63 $96 $98 forward $41 $-1 #
model_id-kcp-attrib $-1 -1 $-1 $-1 $44 1 1021500170 1021500170 -1931083774 2 #
face $-1 -1 $-1 $99 $100 $23 $-1 $101 reversed single #
loop $-1 -1 $-1 $-1 $102 $44 #
plane-surface $-1 -1 $-1 0 0 -0.25 0 0 1 1 0 0 forward_v I I I I #
coedge $-1 -1 $-1 $103 $104 $105 $106 forward $45 $-1 #
model_id-kcp-attrib $-1 -1 $-1 $-1 $48 1 1021500170 1021500170 -1931083775 5 #
face $107 -1 $-1 $108 $109 $8 $-1 $110 reversed single #
loop $-1 -1 $-1 $111 $112 $48 #
plane-surface $-1 -1 $-1 0 0 0.5 0 0 1 1 0 0 forward_v I I I I #
coedge $-1 -1 $-1 $113 $80 $82 $114 forward $49 $-1 #
coedge $-1 -1 $-1 $82 $51 $112 $115 reversed $33 $-1 #
coedge $-1 -1 $-1 $80 $113 $51 $76 reversed $49 $-1 #
edge $-1 -1 $-1 $85 0 $116 0.5 $75 $117 forward @7 unknown #
coedge $-1 -1 $-1 $52 $52 $118 $119 reversed $35 $-1 #
coedge $-1 -1 $-1 $120 $121 $52 $79 forward $109 $-1 #
edge $122 -1 $-1 $123 0 $124 3.1415926535897931 $52 $125 forward @7 unknown #
coedge $-1 -1 $-1 $73 $75 $53 $81 forward $49 $-1 #
edge $126 -1 $-1 $85 0 $84 3.1415926535897931 $53 $127 forward @7 unknown #
coedge $-1 -1 $-1 $54 $74 $73 $114 reversed $33 $-1 #
attrib_edge_convexity-kcp-attrib $-1 -1 $128 $-1 $55 1 #
vertex $-1 -1 $-1 $81 $129 #
vertex $-1 -1 $-1 $81 $130 #
ellipse-curve $-1 -1 $-1 0 0 0 0 0 1 -5 0 0 1 I I #
face $-1 -1 $-1 $131 $132 $20 $-1 $39 reversed single #
loop $-1 -1 $-1 $-1 $133 $56 #
coedge $-1 -1 $-1 $134 $92 $135 $136 reversed $57 $-1 #
coedge $-1 -1 $-1 $137 $58 $138 $139 reversed $38 $-1 #
coedge $-1 -1 $-1 $58 $137 $140 $141 reversed $38 $-1 #
coedge $-1 -1 $-1 $89 $142 $143 $93 reversed $57 $-1 #
edge $-1 -1 $-1 $144 -0.5 $145 0 $143 $146 forward @7 unknown #
loop $-1 -1 $-1 $-1 $147 $59 #
plane-surface $-1 -1 $-1 0 0 0 0 0 1 1 0 0 forward_v I I I I #
coedge $-1 -1 $-1 $96 $96 $63 $98 reversed $60 $-1 #
coedge $-1 -1 $-1 $97 $97 $147 $148 reversed $62 $-1 #
edge $-1 -1 $-1 $149 -3.1415926535897931 $149 3.1415926535897931 $63 $150 forward @7 unknown #
face $-1 -1 $-1 $151 $152 $23 $-1 $153 reversed single #
loop $-1 -1 $-1 $-1 $154 $65 #
plane-surface $-1 -1 $-1 0 -5 0 0 1 0 0 0 1 forward_v I I I I #
coedge $-1 -1 $-1 $155 $156 $157 $158 forward $66 $-1 #
coedge $-1 -1 $-1 $159 $68 $160 $161 forward $45 $-1 #
coedge $-1 -1 $-1 $68 $159 $162 $163 forward $45 $-1 #
coedge $-1 -1 $-1 $164 $165 $68 $106 reversed $166 $-1 #
edge $-1 -1 $-1 $167 -5 $168 5 $105 $169 forward @7 unknown #
model_id-kcp-attrib $-1 -1 $-1 $-1 $70 1 1021500170 1021500170 -1931083775 6 #
face $170 -1 $-1 $-1 $171 $8 $-1 $172 reversed single #
loop $-1 -1 $-1 $-1 $120 $70 #
cone-surface $-1 -1 $-1 0 0 0 0 0 -1 -2.5 0 0 1 I I 0 1 2.5 forward I I I I #
loop $-1 -1 $-1 $-1 $173 $48 #
coedge $-1 -1 $-1 $174 $174 $74 $115 forward $71 $-1 #
coedge $-1 -1 $-1 $75 $73 $174 $175 reversed $49 $-1 #
edge $-1 -1 $-1 $84 0 $176 0.5 $73 $177 forward @7 unknown #
edge $-1 -1 $-1 $176 0 $116 3.1415926535897931 $112 $178 forward @7 unknown #
vertex $-1 -1 $-1 $175 $179 #
straight-curve $-1 -1 $-1 5 0 0 0 0 1 I I #
coedge $-1 -1 $-1 $180 $181 $77 $119 forward $171 $-1 #
edge $182 -1 $-1 $124 0 $123 3.1415926535897931 $77 $183 forward @7 unknown #
coedge $-1 -1 $-1 $184 $78 $181 $185 forward $109 $-1 #
coedge $-1 -1 $-1 $78 $184 $180 $186 reversed $109 $-1 #
attrib_edge_convexity-kcp-attrib $-1 -1 $187 $-1 $79 1 #
vertex $-1 -1 $-1 $119 $188 #
vertex $-1 -1 $-1 $119 $189 #
ellipse-curve $-1 -1 $-1 0 0 0 0 0 -1 2.5 0 0 1 I I #
attrib_edge_convexity-kcp-attrib $-1 -1 $190 $-1 $81 1 #
ellipse-curve $-1 -1 $-1 0 0 0 0 0 1 5 0 0 1 I I #
convexity-sys-attrib $-1 -1 $-1 $83 $55 #
point $-1 -1 $-1 -5 0 0 #
point $-1 -1 $-1 5 0 0 #
face $-1 -1 $-1 $191 $192 $20 $-1 $193 reversed single #
loop $-1 -1 $-1 $-1 $194 $87 #
coedge $-1 -1 $-1 $195 $196 $197 $198 reversed $88 $-1 #
coedge $-1 -1 $-1 $142 $89 $199 $200 forward $57 $-1 #
coedge $-1 -1 $-1 $201 $202 $89 $136 forward $203 $-1 #
edge $-1 -1 $-1 $204 -3.1415926535897931 $144 -1.5707963267948966 $135 $205 forward @7 unknown #
coedge $-1 -1 $-1 $91 $90 $206 $207 reversed $38 $-1 #
coedge $-1 -1 $-1 $208 $209 $90 $139 forward $210 $-1 #
edge $-1 -1 $-1 $211 0 $145 1.5707963267948966 $138 $212 forward @7 unknown #
coedge $-1 -1 $-1 $213 $214 $91 $141 forward $215 $-1 #
edge $-1 -1 $-1 $144 -1.5707963267948966 $216 0 $140 $205 forward @7 unknown #
coedge $-1 -1 $-1 $92 $134 $217 $218 reversed $57 $-1 #
coedge $-1 -1 $-1 $219 $220 $221 $93 forward $222 $-1 #
vertex $-1 -1 $-1 $223 $224 #
vertex $-1 -1 $-1 $225 $226 #
straight-curve $-1 -1 $-1 -1.8745759022776718e-032 5 -0.25 0 0 -1 I I #
coedge $-1 -1 $-1 $147 $147 $97 $148 forward $94 $-1 #
edge $-1 -1 $-1 $227 -3.1415926535897931 $227 3.1415926535897931 $97 $228 forward @7 unknown #
vertex $-1 -1 $-1 $98 $229 #
ellipse-curve $-1 -1 $-1 0 0 0.5 0 0 -1 -2.5 0 0 1 I I #
face $-1 -1 $-1 $230 $231 $23 $-1 $232 reversed single #
loop $-1 -1 $-1 $-1 $233 $99 #
plane-surface $-1 -1 $-1 -5 0 0 1 0 0 0 0 -1 forward_v I I I I #
coedge $-1 -1 $-1 $234 $162 $235 $236 forward $100 $-1 #
coedge $-1 -1 $-1 $237 $102 $234 $238 forward $66 $-1 #
coedge $-1 -1 $-1 $102 $237 $239 $240 forward $66 $-1 #
coedge $-1 -1 $-1 $165 $164 $102 $158 reversed $166 $-1 #
edge $-1 -1 $-1 $241 -5 $242 5 $157 $243 forward @7 unknown #
coedge $-1 -1 $-1 $104 $103 $244 $245 forward $45 $-1 #
coedge $-1 -1 $-1 $246 $247 $103 $161 reversed $231 $-1 #
edge $-1 -1 $-1 $168 -5 $248 5 $160 $249 forward @7 unknown #
coedge $-1 -1 $-1 $154 $250 $104 $163 reversed $100 $-1 #
edge $-1 -1 $-1 $251 -5 $167 5 $162 $252 forward @7 unknown #
coedge $-1 -1 $-1 $157 $105 $250 $253 forward $166 $-1 #
coedge $-1 -1 $-1 $105 $157 $246 $254 reversed $166 $-1 #
loop $-1 -1 $-1 $-1 $164 $230 #
vertex $-1 -1 $-1 $106 $255 #
vertex $-1 -1 $-1 $106 $256 #
straight-curve $-1 -1 $-1 5 0 0.25 0 1 0 I I #
model_id-kcp-attrib $-1 -1 $-1 $-1 $108 1 1021500170 1021500170 -1931083775 7 #
loop $-1 -1 $-1 $-1 $180 $108 #
cone-surface $-1 -1 $-1 0 0 0 0 0 -1 -2.5 0 0 1 I I 0 1 2.5 forward I I I I #
coedge $-1 -1 $-1 $257 $257 $184 $258 forward $111 $-1 #
coedge $-1 -1 $-1 $112 $112 $113 $175 forward $71 $-1 #
edge $-1 -1 $-1 $116 0 $176 3.1415926535897931 $174 $259 forward @7 unknown #
vertex $-1 -1 $-1 $175 $260 #
straight-curve $-1 -1 $-1 -5 6.1230317691118863e-016 0 0 0 1 I I #
ellipse-curve $-1 -1 $-1 0 0 0.5 0 0 1 -5 0 0 1 I I #
point $-1 -1 $-1 5 0 0.5 #
coedge $-1 -1 $-1 $261 $118 $121 $186 forward $171 $-1 #
coedge $-1 -1 $-1 $118 $261 $120 $185 reversed $171 $-1 #
attrib_edge_convexity-kcp-attrib $-1 -1 $262 $-1 $119 1 #
ellipse-curve $-1 -1 $-1 0 0 0 0 0 -1 -2.5 0 0 1 I I #
coedge $-1 -1 $-1 $121 $120 $173 $258 reversed $109 $-1 #
edge $-1 -1 $-1 $124 0 $263 0.5 $181 $264 forward @7 unknown #
edge $-1 -1 $-1 $123 0 $265 0.5 $180 $266 forward @7 unknown #
convexity-sys-attrib $-1 -1 $-1 $122 $79 #
point $-1 -1 $-1 2.5 0 0 #
point $-1 -1 $-1 -2.5 0 0 #
convexity-sys-attrib $-1 -1 $-1 $126 $81 #
face $-1 -1 $-1 $267 $222 $20 $-1 $268 reversed single #
loop $-1 -1 $-1 $-1 $206 $131 #
plane-surface $-1 -1 $-1 5 0 0 -1 0 0 0 0 1 forward_v I I I I #
coedge $-1 -1 $-1 $199 $269 $270 $271 reversed $132 $-1 #
coedge $-1 -1 $-1 $272 $133 $273 $274 reversed $88 $-1 #
coedge $-1 -1 $-1 $133 $272 $137 $207 forward $88 $-1 #
coedge $-1 -1 $-1 $275 $276 $133 $198 forward $277 $-1 #
edge $-1 -1 $-1 $278 -1.5707963267948966 $211 0 $197 $212 forward @7 unknown #
coedge $-1 -1 $-1 $279 $194 $280 $200 reversed $132 $-1 #
edge $-1 -1 $-1 $204 -0.5 $281 0 $280 $282 forward @7 unknown #
coedge $-1 -1 $-1 $202 $135 $220 $223 forward $203 $-1 #
coedge $-1 -1 $-1 $135 $201 $283 $284 forward $203 $-1 #
loop $-1 -1 $-1 $-1 $135 $285 #
vertex $-1 -1 $-1 $286 $287 #
ellipse-curve $-1 -1 $-1 -1.8745759022776718e-032 0 0.25 0 0 -1 5 0 0 1 I I #
coedge $-1 -1 $-1 $288 $289 $290 $207 forward $192 $-1 #
edge $-1 -1 $-1 $216 -0.5 $211 0 $206 $291 forward @7 unknown #
coedge $-1 -1 $-1 $209 $138 $292 $225 forward $210 $-1 #
coedge $-1 -1 $-1 $138 $208 $288 $293 forward $210 $-1 #
loop $-1 -1 $-1 $-1 $138 $294 #
vertex $-1 -1 $-1 $295 $296 #
ellipse-curve $-1 -1 $-1 -1.8745759022776718e-032 0 -0.25 0 0 1 5 0 0 1 I I #
coedge $-1 -1 $-1 $214 $140 $289 $297 forward $215 $-1 #
coedge $-1 -1 $-1 $140 $213 $298 $299 forward $215 $-1 #
loop $-1 -1 $-1 $-1 $140 $300 #
vertex $-1 -1 $-1 $297 $301 #
coedge $-1 -1 $-1 $302 $303 $142 $218 forward $304 $-1 #
edge $-1 -1 $-1 $145 1.5707963267948966 $281 3.1415926535897931 $217 $212 forward @7 unknown #
coedge $-1 -1 $-1 $305 $143 $303 $306 reversed $222 $-1 #
coedge $-1 -1 $-1 $143 $305 $201 $223 reversed $222 $-1 #
coedge $-1 -1 $-1 $298 $292 $58 $93 reversed $307 $-1 #
loop $-1 -1 $-1 $-1 $143 $191 #
edge $-1 -1 $-1 $144 1.8745759022776718e-032 $308 5 $220 $309 forward @7 unknown #
point $-1 -1 $-1 -1.8745759022776718e-032 5 0.25 #
edge $-1 -1 $-1 $145 -1.8745759022776718e-032 $310 5 $292 $311 forward @7 unknown #
point $-1 -1 $-1 -1.8745759022776718e-032 5 -0.25 #
vertex $-1 -1 $-1 $148 $312 #
ellipse-curve $-1 -1 $-1 0 0 0 0 0 -1 2.5 0 0 1 I I #
point $-1 -1 $-1 2.5 0 0.5 #
face $-1 -1 $-1 $-1 $166 $23 $-1 $313 reversed single #
loop $-1 -1 $-1 $-1 $246 $151 #
plane-surface $-1 -1 $-1 0 5 0 0 -1 0 0 0 -1 forward_v I I I I #
coedge $-1 -1 $-1 $314 $244 $247 $315 forward $152 $-1 #
coedge $-1 -1 $-1 $250 $154 $155 $238 reversed $100 $-1 #
coedge $-1 -1 $-1 $244 $314 $154 $236 reversed $152 $-1 #
edge $-1 -1 $-1 $251 -0.25 $316 0.25 $235 $317 forward @7 unknown #
coedge $-1 -1 $-1 $156 $155 $314 $318 forward $66 $-1 #
edge $-1 -1 $-1 $242 -5 $316 5 $234 $319 forward @7 unknown #
coedge $-1 -1 $-1 $247 $246 $156 $240 reversed $231 $-1 #
edge $-1 -1 $-1 $320 -5 $241 5 $239 $321 forward @7 unknown #
vertex $-1 -1 $-1 $158 $322 #
vertex $-1 -1 $-1 $253 $323 #
straight-curve $-1 -1 $-1 5 0 -0.25 0 -1 0 I I #
coedge $-1 -1 $-1 $233 $235 $159 $245 reversed $152 $-1 #
edge $-1 -1 $-1 $248 -5 $251 5 $244 $324 forward @7 unknown #
coedge $-1 -1 $-1 $239 $160 $165 $254 forward $231 $-1 #
coedge $-1 -1 $-1 $160 $239 $233 $315 reversed $231 $-1 #
vertex $-1 -1 $-1 $161 $325 #
straight-curve $-1 -1 $-1 0 5 0.25 -1 0 0 I I #
coedge $-1 -1 $-1 $162 $234 $164 $253 reversed $100 $-1 #
vertex $-1 -1 $-1 $245 $326 #
straight-curve $-1 -1 $-1 0 -5 0.25 1 0 0 I I #
edge $-1 -1 $-1 $167 -0.25 $242 0.25 $164 $327 forward @7 unknown #
edge $-1 -1 $-1 $168 -0.25 $241 0.25 $165 $328 forward @7 unknown #
point $-1 -1 $-1 5 -5 0.25 #
point $-1 -1 $-1 5 5 0.25 #
coedge $-1 -1 $-1 $173 $173 $261 $329 forward $111 $-1 #
edge $-1 -1 $-1 $265 0 $263 3.1415926535897931 $173 $330 forward @7 unknown #
ellipse-curve $-1 -1 $-1 0 0 0.5 0 0 1 5 0 0 1 I I #
point $-1 -1 $-1 -5 0 0.5 #
coedge $-1 -1 $-1 $181 $180 $257 $329 reversed $171 $-1 #
convexity-sys-attrib $-1 -1 $-1 $182 $119 #
vertex $-1 -1 $-1 $329 $331 #
straight-curve $-1 -1 $-1 -2.5 0 0 0 0 1 I I #
vertex $-1 -1 $-1 $329 $332 #
straight-curve $-1 -1 $-1 2.5 3.0615158845559431e-016 0 0 0 1 I I #
face $-1 -1 $-1 $333 $334 $20 $-1 $335 reversed single #
plane-surface $-1 -1 $-1 0 5 0 0 -1 0 0 0 -1 forward_v I I I I #
coedge $-1 -1 $-1 $194 $279 $195 $274 forward $132 $-1 #
coedge $-1 -1 $-1 $336 $337 $194 $271 forward $338 $-1 #
edge $-1 -1 $-1 $281 -3.1415926535897931 $278 -1.5707963267948966 $270 $212 forward @7 unknown #
coedge $-1 -1 $-1 $196 $195 $339 $340 reversed $88 $-1 #
coedge $-1 -1 $-1 $341 $342 $343 $274 forward $344 $-1 #
edge $-1 -1 $-1 $345 -0.5 $278 0 $273 $346 forward @7 unknown #
coedge $-1 -1 $-1 $276 $197 $347 $295 forward $277 $-1 #
coedge $-1 -1 $-1 $197 $275 $341 $348 forward $277 $-1 #
loop $-1 -1 $-1 $-1 $197 $349 #
vertex $-1 -1 $-1 $350 $351 #
coedge $-1 -1 $-1 $269 $199 $352 $353 reversed $132 $-1 #
coedge $-1 -1 $-1 $354 $355 $356 $200 forward $334 $-1 #
vertex $-1 -1 $-1 $357 $358 #
straight-curve $-1 -1 $-1 -5 0 -0.25 0 0 -1 I I #
coedge $-1 -1 $-1 $359 $356 $202 $284 reversed $360 $-1 #
edge $-1 -1 $-1 $308 -5 $204 0 $283 $361 forward @7 unknown #
face $-1 -1 $-1 $300 $203 $20 $-1 $362 forward single #
edge $-1 -1 $-1 $204 0 $363 5 $355 $361 forward @7 unknown #
point $-1 -1 $-1 -5 0 0.25 #
coedge $-1 -1 $-1 $364 $206 $209 $293 reversed $192 $-1 #
coedge $-1 -1 $-1 $206 $364 $213 $297 reversed $192 $-1 #
coedge $-1 -1 $-1 $365 $347 $196 $207 reversed $366 $-1 #
straight-curve $-1 -1 $-1 5 0 -0.25 0 0 -1 I I #
coedge $-1 -1 $-1 $221 $367 $208 $225 reversed $307 $-1 #
edge $-1 -1 $-1 $310 -5 $211 0 $288 $368 forward @7 unknown #
face $-1 -1 $-1 $369 $210 $20 $-1 $370 reversed single #
edge $-1 -1 $-1 $211 0 $371 5 $347 $368 forward @7 unknown #
point $-1 -1 $-1 5 0 -0.25 #
edge $-1 -1 $-1 $216 0 $372 5 $289 $373 forward @7 unknown #
coedge $-1 -1 $-1 $367 $221 $214 $299 reversed $307 $-1 #
edge $-1 -1 $-1 $372 -5 $144 1.8745759022776718e-032 $298 $309 forward @7 unknown #
face $-1 -1 $-1 $374 $215 $20 $-1 $362 forward single #
point $-1 -1 $-1 5 0 0.25 #
coedge $-1 -1 $-1 $303 $217 $375 $357 forward $304 $-1 #
coedge $-1 -1 $-1 $217 $302 $219 $306 forward $304 $-1 #
loop $-1 -1 $-1 $-1 $217 $369 #
coedge $-1 -1 $-1 $220 $219 $359 $376 reversed $222 $-1 #
edge $-1 -1 $-1 $377 -5 $145 -1.8745759022776718e-032 $219 $311 forward @7 unknown #
loop $-1 -1 $-1 $-1 $221 $378 #
vertex $-1 -1 $-1 $223 $379 #
straight-curve $-1 -1 $-1 0 5 0.25 -1 0 0 I I #
vertex $-1 -1 $-1 $293 $380 #
straight-curve $-1 -1 $-1 0 5 -0.25 1 0 0 I I #
point $-1 -1 $-1 -2.5 0 0 #
plane-surface $-1 -1 $-1 5 0 0 -1 0 0 0 0 1 forward_v I I I I #
coedge $-1 -1 $-1 $235 $233 $237 $318 reversed $152 $-1 #
edge $-1 -1 $-1 $248 -0.25 $320 0.25 $247 $381 forward @7 unknown #
vertex $-1 -1 $-1 $318 $382 #
straight-curve $-1 -1 $-1 -5 -5 0 0 0 -1 I I #
edge $-1 -1 $-1 $316 -5 $320 5 $314 $383 forward @7 unknown #
straight-curve $-1 -1 $-1 0 -5 -0.25 -1 0 0 I I #
vertex $-1 -1 $-1 $240 $384 #
straight-curve $-1 -1 $-1 0 5 -0.25 1 0 0 I I #
point $-1 -1 $-1 5 5 -0.25 #
point $-1 -1 $-1 5 -5 -0.25 #
straight-curve $-1 -1 $-1 -5 0 0.25 0 -1 0 I I #
point $-1 -1 $-1 -5 5 0.25 #
point $-1 -1 $-1 -5 -5 0.25 #
straight-curve $-1 -1 $-1 5 -5 0 0 0 -1 I I #
straight-curve $-1 -1 $-1 5 5 0 0 0 -1 I I #
edge $-1 -1 $-1 $263 0 $265 3.1415926535897931 $257 $385 forward @7 unknown #
ellipse-curve $-1 -1 $-1 0 0 0.5 0 0 -1 2.5 0 0 1 I I #
point $-1 -1 $-1 -2.5 0 0.5 #
point $-1 -1 $-1 2.5 0 0.5 #
face $-1 -1 $-1 $285 $386 $20 $-1 $362 forward single #
loop $-1 -1 $-1 $-1 $280 $267 #
plane-surface $-1 -1 $-1 -5 0 0 1 0 0 0 0 -1 forward_v I I I I #
coedge $-1 -1 $-1 $337 $270 $387 $350 forward $338 $-1 #
coedge $-1 -1 $-1 $270 $336 $354 $388 forward $338 $-1 #
loop $-1 -1 $-1 $-1 $270 $389 #
coedge $-1 -1 $-1 $390 $391 $272 $340 forward $392 $-1 #
edge $-1 -1 $-1 $216 0 $345 1.5707963267948966 $339 $205 forward @7 unknown #
coedge $-1 -1 $-1 $393 $273 $276 $348 reversed $344 $-1 #
coedge $-1 -1 $-1 $273 $393 $390 $394 reversed $344 $-1 #
coedge $-1 -1 $-1 $395 $387 $269 $274 reversed $396 $-1 #
loop $-1 -1 $-1 $-1 $273 $397 #
vertex $-1 -1 $-1 $394 $398 #
straight-curve $-1 -1 $-1 -1.8745759022776718e-032 -5 -0.25 0 0 -1 I I #
coedge $-1 -1 $-1 $290 $399 $275 $295 reversed $366 $-1 #
edge $-1 -1 $-1 $371 -5 $278 1.8745759022776718e-032 $341 $400 forward @7 unknown #
face $-1 -1 $-1 $294 $277 $20 $-1 $370 reversed single #
edge $-1 -1 $-1 $278 1.8745759022776718e-032 $401 5 $387 $400 forward @7 unknown #
point $-1 -1 $-1 -1.8745759022776718e-032 -5 -0.25 #
coedge $-1 -1 $-1 $402 $403 $279 $353 forward $386 $-1 #
edge $-1 -1 $-1 $345 1.5707963267948966 $204 3.1415926535897931 $352 $205 forward @7 unknown #
coedge $-1 -1 $-1 $404 $280 $337 $388 reversed $334 $-1 #
coedge $-1 -1 $-1 $280 $404 $402 $286 reversed $334 $-1 #
coedge $-1 -1 $-1 $283 $375 $134 $200 reversed $360 $-1 #
edge $-1 -1 $-1 $281 0 $377 5 $375 $405 forward @7 unknown #
point $-1 -1 $-1 -5 0 -0.25 #
coedge $-1 -1 $-1 $375 $283 $305 $376 forward $360 $-1 #
loop $-1 -1 $-1 $-1 $356 $406 #
straight-curve $-1 -1 $-1 -5 0 0.25 0 -1 0 I I #
plane-surface $-1 -1 $-1 0 0 0.25 0 0 1 1 0 0 forward_v I I I I #
vertex $-1 -1 $-1 $286 $407 #
coedge $-1 -1 $-1 $289 $288 $367 $408 reversed $192 $-1 #
coedge $-1 -1 $-1 $399 $290 $391 $409 reversed $366 $-1 #
loop $-1 -1 $-1 $-1 $290 $410 #
coedge $-1 -1 $-1 $292 $298 $364 $408 forward $307 $-1 #
straight-curve $-1 -1 $-1 5 0 -0.25 0 -1 0 I I #
face $-1 -1 $-1 $411 $304 $20 $-1 $370 reversed single #
plane-surface $-1 -1 $-1 0 0 -0.25 0 0 1 1 0 0 forward_v I I I I #
vertex $-1 -1 $-1 $412 $413 #
vertex $-1 -1 $-1 $297 $414 #
straight-curve $-1 -1 $-1 5 0 0.25 0 1 0 I I #
face $-1 -1 $-1 $397 $392 $20 $-1 $362 forward single #
coedge $-1 -1 $-1 $356 $359 $302 $357 reversed $360 $-1 #
edge $-1 -1 $-1 $308 -0.25 $377 0.25 $305 $415 forward @7 unknown #
vertex $-1 -1 $-1 $306 $416 #
face $-1 -1 $-1 $410 $307 $20 $-1 $268 reversed single #
point $-1 -1 $-1 -5 5 0.25 #
point $-1 -1 $-1 5 5 -0.25 #
straight-curve $-1 -1 $-1 -5 5 0 0 0 -1 I I #
point $-1 -1 $-1 -5 -5 -0.25 #
straight-curve $-1 -1 $-1 -5 0 -0.25 0 1 0 I I #
point $-1 -1 $-1 -5 5 -0.25 #
ellipse-curve $-1 -1 $-1 0 0 0.5 0 0 -1 -2.5 0 0 1 I I #
loop $-1 -1 $-1 $-1 $352 $333 #
coedge $-1 -1 $-1 $343 $417 $336 $350 reversed $396 $-1 #
edge $-1 -1 $-1 $401 -5 $281 0 $354 $405 forward @7 unknown #
face $-1 -1 $-1 $349 $338 $20 $-1 $370 reversed single #
coedge $-1 -1 $-1 $391 $339 $342 $394 forward $392 $-1 #
coedge $-1 -1 $-1 $339 $390 $365 $409 forward $392 $-1 #
loop $-1 -1 $-1 $-1 $339 $374 #
coedge $-1 -1 $-1 $342 $341 $399 $412 reversed $344 $-1 #
edge $-1 -1 $-1 $345 -1.8745759022776718e-032 $418 5 $342 $419 forward @7 unknown #
coedge $-1 -1 $-1 $417 $343 $403 $420 reversed $396 $-1 #
loop $-1 -1 $-1 $-1 $343 $411 #
face $-1 -1 $-1 $389 $344 $20 $-1 $421 reversed single #
point $-1 -1 $-1 -1.8745759022776718e-032 -5 0.25 #
coedge $-1 -1 $-1 $347 $365 $393 $412 forward $366 $-1 #
straight-curve $-1 -1 $-1 0 -5 -0.25 -1 0 0 I I #
vertex $-1 -1 $-1 $388 $422 #
coedge $-1 -1 $-1 $403 $352 $355 $286 forward $386 $-1 #
coedge $-1 -1 $-1 $352 $402 $395 $420 forward $386 $-1 #
coedge $-1 -1 $-1 $355 $354 $417 $423 reversed $334 $-1 #
straight-curve $-1 -1 $-1 -5 0 -0.25 0 1 0 I I #
face $-1 -1 $-1 $378 $360 $20 $-1 $335 reversed single #
point $-1 -1 $-1 -5 -5 0.25 #
edge $-1 -1 $-1 $372 -0.25 $310 0.25 $364 $424 forward @7 unknown #
edge $-1 -1 $-1 $418 -5 $216 0 $365 $373 forward @7 unknown #
face $-1 -1 $-1 $-1 $366 $20 $-1 $193 reversed single #
face $-1 -1 $-1 $406 $396 $20 $-1 $421 reversed single #
edge $-1 -1 $-1 $418 -0.25 $371 0.25 $399 $425 forward @7 unknown #
point $-1 -1 $-1 5 -5 -0.25 #
point $-1 -1 $-1 5 5 0.25 #
straight-curve $-1 -1 $-1 -5 5 0 0 0 -1 I I #
point $-1 -1 $-1 -5 5 -0.25 #
coedge $-1 -1 $-1 $387 $395 $404 $423 forward $396 $-1 #
vertex $-1 -1 $-1 $409 $426 #
straight-curve $-1 -1 $-1 0 -5 0.25 1 0 0 I I #
edge $-1 -1 $-1 $363 -5 $345 -1.8745759022776718e-032 $395 $419 forward @7 unknown #
plane-surface $-1 -1 $-1 0 -5 0 0 1 0 0 0 1 forward_v I I I I #
point $-1 -1 $-1 -5 -5 -0.25 #
edge $-1 -1 $-1 $363 -0.25 $401 0.25 $404 $427 forward @7 unknown #
straight-curve $-1 -1 $-1 5 5 0 0 0 -1 I I #
straight-curve $-1 -1 $-1 5 -5 0 0 0 -1 I I #
point $-1 -1 $-1 5 -5 0.25 #
straight-curve $-1 -1 $-1 -5 -5 0 0 0 -1 I I #
End-of-ACIS-data 