700 0 2 0           
24 FBMach with ACIS - 7.0.3 13 ACIS 7.0.3 NT 24 Wed May 15 18:02:48 2002 
1 9.9999999999999995e-007 1e-010 
body $2 -1 $-1 $3 $-1 $4 #
bdycol-kcp $-1 -1 1 5 $5 $6 $7 $8 $9 #
model_id-kcp-attrib $-1 -1 $-1 $-1 $0 1 1021500167 1021500167 5898241 1 #
lump $-1 -1 $-1 $-1 $10 $0 #
transform $-1 -1 1 0 0 0 1 0 0 0 1 0 0 0 1 rotate no_reflect no_shear #
body $11 -1 $-1 $12 $-1 $13 #
body $14 -1 $-1 $15 $-1 $16 #
body $17 -1 $-1 $18 $-1 $19 #
body $20 -1 $-1 $21 $-1 $22 #
body $23 -1 $-1 $24 $-1 $25 #
shell $-1 -1 $-1 $-1 $-1 $26 $-1 $3 #
rgb_color-st-attrib $-1 -1 $27 $-1 $5 1 0.5 1 #
lump $-1 -1 $-1 $-1 $28 $5 #
transform $-1 -1 1 0 0 0 1 0 0 0 1 0 0 -5.4000000000000004 1 no_rotate no_reflect no_shear #
model_id-kcp-attrib $-1 -1 $-1 $-1 $6 1 1021500167 1021500167 6553602 1 #
lump $-1 -1 $-1 $-1 $29 $6 #
transform $-1 -1 1 0 0 0 1 0 0 0 1 0 0 -5.4000000000000004 1 no_rotate no_reflect no_shear #
rgb_color-st-attrib $-1 -1 $30 $-1 $7 1 0.5 1 #
lump $-1 -1 $-1 $-1 $31 $7 #
transform $-1 -1 1 0 0 0 1 0 0 0 1 0 0 -5.4000000000000004 1 no_rotate no_reflect no_shear #
rgb_color-st-attrib $-1 -1 $32 $-1 $8 0.5 1 1 #
lump $-1 -1 $-1 $-1 $33 $8 #
transform $-1 -1 1 0 0 0 1 0 0 0 1 0 0 -5.4000000000000004 1 no_rotate no_reflect no_shear #
rgb_color-st-attrib $-1 -1 $34 $-1 $9 1 0.5 1 #
lump $-1 -1 $-1 $-1 $35 $9 #
transform $-1 -1 1 0 0 0 1 0 0 0 1 0 0 -5.4000000000000004 1 no_rotate no_reflect no_shear #
face $36 -1 $-1 $37 $38 $10 $-1 $39 reversed single #
model_id-kcp-attrib $-1 -1 $-1 $11 $5 1 1021500167 1021500167 2555910 1 #
shell $-1 -1 $-1 $-1 $-1 $40 $-1 $12 #
shell $-1 -1 $-1 $-1 $-1 $41 $-1 $15 #
model_id-kcp-attrib $-1 -1 $-1 $17 $7 1 1021500167 1021500167 8192004 1 #
shell $-1 -1 $-1 $-1 $-1 $42 $-1 $18 #
model_id-kcp-attrib $-1 -1 $-1 $20 $8 1 1021500167 1021500167 13107203 1 #
shell $-1 -1 $-1 $-1 $-1 $43 $-1 $21 #
model_id-kcp-attrib $-1 -1 $-1 $23 $9 1 1021500167 1021500167 14090245 1 #
shell $-1 -1 $-1 $-1 $-1 $44 $-1 $24 #
model_id-kcp-attrib $-1 -1 $-1 $-1 $26 1 1021500167 1021500167 5898241 2 #
face $45 -1 $-1 $46 $47 $10 $-1 $48 forward single #
loop $-1 -1 $-1 $49 $50 $26 #
plane-surface $-1 -1 $-1 0 0 0 0 0 -1 -1 0 0 forward_v I I I I #
face $-1 -1 $-1 $51 $52 $28 $-1 $53 forward single #
face $54 -1 $-1 $55 $56 $29 $-1 $57 forward single #
face $-1 -1 $-1 $58 $59 $31 $-1 $60 forward single #
face $-1 -1 $-1 $61 $62 $33 $-1 $63 reversed single #
face $-1 -1 $-1 $64 $65 $35 $-1 $66 forward single #
model_id-kcp-attrib $-1 -1 $-1 $-1 $37 1 1021500167 1021500167 5898241 3 #
face $67 -1 $-1 $68 $69 $10 $-1 $70 forward single #
loop $-1 -1 $-1 $-1 $71 $37 #
torus-surface $-1 -1 $-1 0 0 -0.5 0 0 -1 4.5 0.5 -0.99999563951296311 0.0029531263196626561 0 forward_v I I I I #
loop $-1 -1 $-1 $-1 $72 $26 #
coedge $-1 -1 $-1 $73 $73 $74 $75 forward $38 $-1 #
face $-1 -1 $-1 $76 $77 $28 $-1 $78 forward single #
loop $-1 -1 $-1 $79 $80 $40 #
cone-surface $-1 -1 $-1 0 0 -3.6000000000000014 0 0 -1 -0.59999999999999998 0 0 1 I I 0 -1 0.59999999999999998 forward I I I I #
model_id-kcp-attrib $-1 -1 $-1 $-1 $41 1 1021500167 1021500167 6553602 3 #
face $81 -1 $-1 $82 $83 $29 $-1 $84 reversed single #
loop $-1 -1 $-1 $-1 $85 $41 #
plane-surface $-1 -1 $-1 0 0 7.0999999999999996 0 0 1 1 0 0 forward_v I I I I #
face $-1 -1 $-1 $86 $87 $31 $-1 $88 forward single #
loop $-1 -1 $-1 $89 $90 $42 #
cone-surface $-1 -1 $-1 0 0 5.3999999999999986 0 0 1 2.5 0 0 1 I I 0 -1 2.5 forward I I I I #
face $-1 -1 $-1 $91 $92 $33 $-1 $63 reversed single #
loop $-1 -1 $-1 $-1 $93 $43 #
cone-surface $-1 -1 $-1 -2.2763286146721972e-031 0 -7.0999999999999996 0 0 -1 4.9999999999999991 6.1230317691118863e-016 0 1 I I 0 1 4.9999999999999991 forward I I I I #
face $-1 -1 $-1 $94 $95 $35 $-1 $96 forward single #
loop $-1 -1 $-1 $97 $98 $44 #
cone-surface $-1 -1 $-1 0 0 6.8999999999999986 0 0 1 0.59999999999999998 0 0 1 I I 0 -1 0.59999999999999998 forward I I I I #
model_id-kcp-attrib $-1 -1 $-1 $-1 $46 1 1021500167 1021500167 5898241 4 #
face $99 -1 $-1 $100 $101 $10 $-1 $102 forward single #
loop $-1 -1 $-1 $-1 $103 $46 #
torus-surface $-1 -1 $-1 0 0 -0.5 0 0 -1 4.5 0.5 0.99999563951296311 -0.0029531263196623347 0 forward_v I I I I #
coedge $-1 -1 $-1 $104 $74 $105 $106 forward $47 $-1 #
coedge $-1 -1 $-1 $107 $107 $108 $109 reversed $49 $-1 #
coedge $-1 -1 $-1 $50 $50 $110 $111 forward $38 $-1 #
coedge $-1 -1 $-1 $71 $112 $50 $75 reversed $47 $-1 #
edge $113 -1 $-1 $114 3.8390972499789834e-014 $115 3.1415926535898002 $50 $116 forward @7 unknown #
face $-1 -1 $-1 $117 $118 $28 $-1 $119 reversed single #
loop $-1 -1 $-1 $120 $121 $51 #
cone-surface $-1 -1 $-1 -2.2763286146721972e-031 0 -3.6000000000000014 0 0 -1 4.9999999999999991 6.1230317691118863e-016 0 1 I I 0 1 4.9999999999999991 forward I I I I #
loop $-1 -1 $-1 $-1 $122 $40 #
coedge $-1 -1 $-1 $80 $80 $123 $124 forward $52 $-1 #
model_id-kcp-attrib $-1 -1 $-1 $-1 $55 1 1021500167 1021500167 6553602 2 #
face $-1 -1 $-1 $125 $126 $29 $-1 $127 reversed single #
loop $-1 -1 $-1 $-1 $128 $55 #
plane-surface $-1 -1 $-1 0 0 -7.0999999999999996 0 0 1 1 0 0 forward_v I I I I #
coedge $-1 -1 $-1 $129 $130 $131 $132 forward $56 $-1 #
face $-1 -1 $-1 $133 $134 $31 $-1 $135 forward single #
loop $-1 -1 $-1 $136 $137 $58 #
cone-surface $-1 -1 $-1 -2.2763286146721972e-031 0 5.3999999999999986 0 0 1 4.9999999999999991 6.1230317691118863e-016 0 1 I I 0 1 4.9999999999999991 forward I I I I #
loop $-1 -1 $-1 $-1 $138 $42 #
coedge $-1 -1 $-1 $90 $90 $139 $140 forward $59 $-1 #
face $-1 -1 $-1 $141 $142 $33 $-1 $63 reversed single #
loop $-1 -1 $-1 $-1 $143 $61 #
coedge $-1 -1 $-1 $144 $145 $146 $147 forward $62 $-1 #
face $-1 -1 $-1 $148 $149 $35 $-1 $150 forward single #
loop $-1 -1 $-1 $151 $152 $64 #
cone-surface $-1 -1 $-1 -2.2763286146721972e-031 0 6.8999999999999986 0 0 1 4.9999999999999991 6.1230317691118863e-016 0 1 I I 0 1 4.9999999999999991 forward I I I I #
loop $-1 -1 $-1 $-1 $153 $44 #
coedge $-1 -1 $-1 $98 $98 $154 $155 forward $65 $-1 #
model_id-kcp-attrib $-1 -1 $-1 $-1 $68 1 1021500167 1021500167 5898241 5 #
face $156 -1 $-1 $157 $158 $10 $-1 $159 forward single #
loop $-1 -1 $-1 $-1 $160 $68 #
cone-surface $-1 -1 $-1 0 0 0 0 0 -1 -5 0 0 1 I I 0 1 5 forward I I I I #
coedge $-1 -1 $-1 $161 $110 $112 $162 forward $69 $-1 #
coedge $-1 -1 $-1 $112 $71 $163 $164 forward $47 $-1 #
coedge $-1 -1 $-1 $110 $161 $71 $106 reversed $69 $-1 #
edge $-1 -1 $-1 $114 -2.5860816848189645e-024 $165 1.5707963267949274 $105 $166 forward @7 unknown #
coedge $-1 -1 $-1 $72 $72 $167 $168 reversed $49 $-1 #
coedge $-1 -1 $-1 $169 $170 $72 $109 forward $171 $-1 #
edge $172 -1 $-1 $173 0 $174 3.1415926535897931 $72 $175 forward @7 unknown #
coedge $-1 -1 $-1 $103 $105 $73 $111 reversed $69 $-1 #
edge $176 -1 $-1 $115 0 $114 3.1415926535898397 $73 $177 forward @7 unknown #
coedge $-1 -1 $-1 $74 $104 $103 $162 reversed $47 $-1 #
attrib_edge_convexity-kcp-attrib $-1 -1 $178 $-1 $75 3 #
vertex $-1 -1 $-1 $111 $179 #
vertex $-1 -1 $-1 $111 $180 #
ellipse-curve $-1 -1 $-1 4.4408920985006262e-016 -1.7319479184152442e-014 0 0 0 1 -4.4999999999999822 1.0414759332721924e-013 0 1 I I #
face $-1 -1 $-1 $-1 $181 $28 $-1 $182 forward single #
loop $-1 -1 $-1 $183 $184 $76 #
plane-surface $-1 -1 $-1 -0.40584415584415584 -1.8388068845354155e-016 -7.1000000000000023 4.1405996191616108e-032 -4.6006662435129015e-033 1 1 0 -4.1405996191616108e-032 forward_v I I I I #
loop $-1 -1 $-1 $-1 $185 $51 #
coedge $-1 -1 $-1 $121 $121 $184 $186 forward $77 $-1 #
coedge $-1 -1 $-1 $122 $122 $187 $188 reversed $79 $-1 #
coedge $-1 -1 $-1 $123 $123 $80 $124 reversed $183 $-1 #
edge $-1 -1 $-1 $189 -3.1415926535897931 $189 3.1415926535897931 $80 $190 forward @7 unknown #
face $-1 -1 $-1 $191 $192 $29 $-1 $193 reversed single #
loop $-1 -1 $-1 $-1 $194 $82 #
plane-surface $-1 -1 $-1 0 -4.9999999999999991 0 0 1 0 0 0 1 forward_v I I I I #
coedge $-1 -1 $-1 $195 $196 $197 $198 forward $83 $-1 #
coedge $-1 -1 $-1 $199 $85 $200 $201 forward $56 $-1 #
coedge $-1 -1 $-1 $85 $199 $202 $203 forward $56 $-1 #
coedge $-1 -1 $-1 $204 $205 $85 $132 reversed $206 $-1 #
edge $-1 -1 $-1 $207 -4.9999999999999991 $208 4.9999999999999991 $131 $209 forward @7 unknown #
face $-1 -1 $-1 $-1 $210 $31 $-1 $211 reversed single #
loop $-1 -1 $-1 $212 $213 $86 #
plane-surface $-1 -1 $-1 -0.30303030303030282 -1.1102230246251565e-016 6.8999999999999986 2.52435489670724e-032 4.2072581611787304e-032 1 1 0 -2.52435489670724e-032 forward_v I I I I #
loop $-1 -1 $-1 $-1 $214 $58 #
coedge $-1 -1 $-1 $137 $137 $213 $215 forward $87 $-1 #
coedge $-1 -1 $-1 $138 $138 $216 $217 reversed $89 $-1 #
coedge $-1 -1 $-1 $139 $139 $90 $140 reversed $212 $-1 #
edge $-1 -1 $-1 $218 -3.1415926535897931 $218 3.1415926535897931 $90 $219 forward @7 unknown #
face $-1 -1 $-1 $220 $221 $33 $-1 $63 reversed single #
loop $-1 -1 $-1 $-1 $222 $91 #
coedge $-1 -1 $-1 $223 $146 $224 $225 reversed $92 $-1 #
coedge $-1 -1 $-1 $226 $93 $227 $228 reversed $62 $-1 #
coedge $-1 -1 $-1 $93 $226 $229 $230 reversed $62 $-1 #
coedge $-1 -1 $-1 $143 $231 $232 $147 reversed $92 $-1 #
edge $-1 -1 $-1 $233 -14.199999999999999 $234 0 $232 $235 forward @7 unknown #
face $-1 -1 $-1 $-1 $236 $35 $-1 $237 reversed single #
loop $-1 -1 $-1 $238 $239 $94 #
plane-surface $-1 -1 $-1 -0.40584415584415573 -1.3877787807814457e-016 7.0999999999999988 2.4536886632068806e-032 9.9681101942779509e-033 1 1 0 -2.4536886632068806e-032 forward_v I I I I #
loop $-1 -1 $-1 $-1 $240 $64 #
coedge $-1 -1 $-1 $152 $152 $239 $241 forward $95 $-1 #
coedge $-1 -1 $-1 $153 $153 $242 $243 reversed $97 $-1 #
coedge $-1 -1 $-1 $154 $154 $98 $155 reversed $238 $-1 #
edge $-1 -1 $-1 $244 -3.1415926535897931 $244 3.1415926535897931 $98 $245 forward @7 unknown #
model_id-kcp-attrib $-1 -1 $-1 $-1 $100 1 1021500167 1021500167 5898241 6 #
face $246 -1 $-1 $247 $248 $10 $-1 $249 forward single #
loop $-1 -1 $-1 $-1 $250 $100 #
cone-surface $-1 -1 $-1 0 0 0 0 0 -1 -5 0 0 1 I I 0 1 5 forward I I I I #
coedge $-1 -1 $-1 $251 $252 $253 $254 reversed $101 $-1 #
coedge $-1 -1 $-1 $105 $103 $251 $255 forward $69 $-1 #
edge $-1 -1 $-1 $115 0 $256 1.5707963267949283 $103 $257 forward @7 unknown #
coedge $-1 -1 $-1 $253 $250 $104 $164 reversed $158 $-1 #
edge $-1 -1 $-1 $165 1.6242331553802578e-012 $256 3.1415926535914172 $163 $258 forward @7 unknown #
vertex $-1 -1 $-1 $255 $259 #
ellipse-curve $-1 -1 $-1 -4.4999999999999982 4.3788467072640459e-012 -0.50000000000000067 -7.4846381392744838e-012 -1 -8.5840371862417071e-012 1.5987211554602254e-014 -4.2920185931209787e-012 0.50000000000000067 1 I I #
coedge $-1 -1 $-1 $260 $261 $107 $168 forward $262 $-1 #
edge $263 -1 $-1 $174 0 $173 3.1415926535897931 $107 $264 forward @7 unknown #
coedge $-1 -1 $-1 $265 $108 $261 $266 forward $171 $-1 #
coedge $-1 -1 $-1 $108 $265 $260 $267 reversed $171 $-1 #
loop $-1 -1 $-1 $-1 $169 $268 #
attrib_edge_convexity-kcp-attrib $-1 -1 $269 $-1 $109 2 #
vertex $-1 -1 $-1 $168 $270 #
vertex $-1 -1 $-1 $168 $271 #
ellipse-curve $-1 -1 $-1 0 0 0 0 0 1 -2.5 0 0 1 I I #
attrib_edge_convexity-kcp-attrib $-1 -1 $272 $-1 $111 3 #
ellipse-curve $-1 -1 $-1 0 1.7541523789077473e-014 0 0 0 1 4.4999999999999822 -1.0691968144183016e-013 0 1 I I #
convexity-sys-attrib $-1 -1 $-1 $113 $75 #
point $-1 -1 $-1 -4.4999999999999822 -8.5931262105986775e-014 0 #
point $-1 -1 $-1 4.4999999999999822 -8.9378157652752691e-014 0 #
loop $-1 -1 $-1 $273 $274 $117 #
plane-surface $-1 -1 $-1 -0.40584415584415584 -1.8388068845354155e-016 -3.6000000000000023 4.1405996191616108e-032 -4.6006662435129015e-033 1 1 0 -4.1405996191616108e-032 forward_v I I I I #
loop $-1 -1 $-1 $-1 $123 $76 #
coedge $-1 -1 $-1 $184 $184 $121 $186 reversed $118 $-1 #
coedge $-1 -1 $-1 $185 $185 $274 $275 reversed $120 $-1 #
edge $-1 -1 $-1 $276 -3.1415926535897931 $276 3.1415926535897931 $121 $277 forward @7 unknown #
coedge $-1 -1 $-1 $187 $187 $122 $188 forward $273 $-1 #
edge $278 -1 $-1 $279 0 $279 6.2831853071795862 $122 $280 forward @7 unknown #
vertex $-1 -1 $-1 $124 $281 #
ellipse-curve $-1 -1 $-1 0 0 -7.1000000000000014 0 0 -1 -0.59999999999999998 0 0 1 I I #
face $-1 -1 $-1 $282 $283 $29 $-1 $284 reversed single #
loop $-1 -1 $-1 $-1 $285 $125 #
plane-surface $-1 -1 $-1 -5 0 0 1 0 0 0 0 -1 forward_v I I I I #
coedge $-1 -1 $-1 $286 $202 $287 $288 forward $126 $-1 #
coedge $-1 -1 $-1 $289 $128 $286 $290 forward $83 $-1 #
coedge $-1 -1 $-1 $128 $289 $291 $292 forward $83 $-1 #
coedge $-1 -1 $-1 $205 $204 $128 $198 reversed $206 $-1 #
edge $-1 -1 $-1 $293 -4.9999999999999991 $294 4.9999999999999991 $197 $295 forward @7 unknown #
coedge $-1 -1 $-1 $130 $129 $296 $297 forward $56 $-1 #
coedge $-1 -1 $-1 $298 $299 $129 $201 reversed $283 $-1 #
edge $-1 -1 $-1 $208 -5 $300 5 $200 $301 forward @7 unknown #
coedge $-1 -1 $-1 $194 $302 $130 $203 reversed $126 $-1 #
edge $-1 -1 $-1 $303 -5 $207 5 $202 $304 forward @7 unknown #
coedge $-1 -1 $-1 $197 $131 $302 $305 forward $206 $-1 #
coedge $-1 -1 $-1 $131 $197 $298 $306 reversed $206 $-1 #
loop $-1 -1 $-1 $-1 $204 $282 #
vertex $-1 -1 $-1 $132 $307 #
vertex $-1 -1 $-1 $132 $308 #
straight-curve $-1 -1 $-1 5 0 7.0999999999999996 0 1 0 I I #
loop $-1 -1 $-1 $309 $310 $133 #
plane-surface $-1 -1 $-1 -0.30303030303030282 -1.1102230246251565e-016 5.3999999999999986 2.52435489670724e-032 4.2072581611787304e-032 1 1 0 -2.52435489670724e-032 forward_v I I I I #
loop $-1 -1 $-1 $-1 $139 $86 #
coedge $-1 -1 $-1 $213 $213 $137 $215 reversed $134 $-1 #
coedge $-1 -1 $-1 $214 $214 $310 $311 reversed $136 $-1 #
edge $-1 -1 $-1 $312 -3.1415926535897931 $312 3.1415926535897931 $137 $313 forward @7 unknown #
coedge $-1 -1 $-1 $216 $216 $138 $217 forward $309 $-1 #
edge $314 -1 $-1 $315 0 $315 6.2831853071795862 $138 $316 forward @7 unknown #
vertex $-1 -1 $-1 $140 $317 #
ellipse-curve $-1 -1 $-1 0 0 6.8999999999999986 0 0 1 2.5 0 0 1 I I #
face $-1 -1 $-1 $318 $319 $33 $-1 $320 reversed single #
loop $-1 -1 $-1 $-1 $321 $141 #
coedge $-1 -1 $-1 $322 $323 $324 $325 reversed $142 $-1 #
coedge $-1 -1 $-1 $231 $143 $326 $327 forward $92 $-1 #
coedge $-1 -1 $-1 $328 $329 $143 $225 forward $330 $-1 #
edge $-1 -1 $-1 $331 -3.1415926535897931 $233 -1.5707963267948966 $224 $332 forward @7 unknown #
coedge $-1 -1 $-1 $145 $144 $333 $334 reversed $62 $-1 #
coedge $-1 -1 $-1 $335 $336 $144 $228 forward $337 $-1 #
edge $-1 -1 $-1 $338 -1.2246063538223775e-016 $234 1.5707963267948966 $227 $339 forward @7 unknown #
coedge $-1 -1 $-1 $340 $341 $145 $230 forward $342 $-1 #
edge $-1 -1 $-1 $233 -1.5707963267948966 $343 1.2246063538223775e-016 $229 $332 forward @7 unknown #
coedge $-1 -1 $-1 $146 $223 $344 $345 reversed $92 $-1 #
coedge $-1 -1 $-1 $346 $347 $348 $147 forward $349 $-1 #
vertex $-1 -1 $-1 $350 $351 #
vertex $-1 -1 $-1 $352 $353 #
straight-curve $-1 -1 $-1 -2.2763286146721972e-031 4.9999999999999991 -7.0999999999999996 0 0 -1 I I #
loop $-1 -1 $-1 $354 $355 $148 #
plane-surface $-1 -1 $-1 -0.40584415584415573 -1.3877787807814457e-016 6.8999999999999986 2.4536886632068806e-032 9.9681101942779509e-033 1 1 0 -2.4536886632068806e-032 forward_v I I I I #
loop $-1 -1 $-1 $-1 $154 $94 #
coedge $-1 -1 $-1 $239 $239 $152 $241 reversed $149 $-1 #
coedge $-1 -1 $-1 $240 $240 $355 $356 reversed $151 $-1 #
edge $-1 -1 $-1 $357 -3.1415926535897931 $357 3.1415926535897931 $152 $358 forward @7 unknown #
coedge $-1 -1 $-1 $242 $242 $153 $243 forward $354 $-1 #
edge $359 -1 $-1 $360 0 $360 6.2831853071795862 $153 $361 forward @7 unknown #
vertex $-1 -1 $-1 $155 $362 #
ellipse-curve $-1 -1 $-1 0 0 7.0999999999999988 0 0 1 0.59999999999999998 0 0 1 I I #
model_id-kcp-attrib $-1 -1 $-1 $-1 $157 1 1021500167 1021500167 5898241 7 #
face $363 -1 $-1 $364 $365 $10 $-1 $366 forward single #
loop $-1 -1 $-1 $-1 $367 $157 #
torus-surface $-1 -1 $-1 0 0 -8.5 0 0 -1 4.5 0.5 0.99999563951296311 0.0029531263196625798 0 forward_v I I I I #
coedge $-1 -1 $-1 $163 $368 $369 $370 reversed $158 $-1 #
coedge $-1 -1 $-1 $369 $160 $161 $255 reversed $101 $-1 #
coedge $-1 -1 $-1 $160 $369 $371 $372 reversed $101 $-1 #
coedge $-1 -1 $-1 $368 $163 $160 $254 forward $158 $-1 #
edge $-1 -1 $-1 $165 0 $373 8 $160 $374 forward @7 unknown #
edge $-1 -1 $-1 $256 1.6249222923511261e-012 $165 3.1415926535914176 $251 $375 forward @7 unknown #
vertex $-1 -1 $-1 $370 $376 #
ellipse-curve $-1 -1 $-1 4.4999999999999982 -4.3906431167168986e-012 -0.50000000000000022 7.4667120837236347e-012 1 -8.6025299181280473e-012 -1.5987211554602254e-014 4.3012649590641456e-012 0.50000000000000022 1 I I #
ellipse-curve $-1 -1 $-1 0 0 -0.5 0 0 1 -4.9999999999999991 8.1211657769012878e-012 0 1 I I #
point $-1 -1 $-1 -5 0 -0.5 #
coedge $-1 -1 $-1 $377 $167 $170 $267 forward $262 $-1 #
coedge $-1 -1 $-1 $167 $377 $169 $266 reversed $262 $-1 #
loop $-1 -1 $-1 $-1 $260 $378 #
attrib_edge_convexity-kcp-attrib $-1 -1 $379 $-1 $168 2 #
ellipse-curve $-1 -1 $-1 0 0 0 0 0 1 2.5 0 0 1 I I #
coedge $-1 -1 $-1 $170 $169 $380 $381 reversed $171 $-1 #
edge $-1 -1 $-1 $174 0 $382 1.5 $261 $383 forward @7 unknown #
edge $-1 -1 $-1 $173 0 $384 1.5 $260 $385 forward @7 unknown #
face $386 -1 $-1 $378 $171 $10 $-1 $387 forward single #
convexity-sys-attrib $-1 -1 $-1 $172 $109 #
point $-1 -1 $-1 -2.5 0 0 #
point $-1 -1 $-1 2.5 0 0 #
convexity-sys-attrib $-1 -1 $-1 $176 $111 #
loop $-1 -1 $-1 $-1 $187 $117 #
coedge $-1 -1 $-1 $274 $274 $185 $275 forward $181 $-1 #
edge $388 -1 $-1 $389 -3.1415926535897931 $389 3.1415926535897931 $185 $390 forward @7 unknown #
vertex $-1 -1 $-1 $186 $391 #
ellipse-curve $-1 -1 $-1 -2.2763286146721972e-031 0 -7.1000000000000014 0 0 1 4.9999999999999991 6.1230317691118863e-016 0 1 I I #
convexity-sys-attrib $-1 -1 $-1 $-1 $188 #
vertex $-1 -1 $-1 $188 $392 #
ellipse-curve $-1 -1 $-1 0 0 -3.6000000000000014 0 0 -1 -0.59999999999999998 0 0 1 I I #
point $-1 -1 $-1 0.59999999999999964 0 -7.0999999999999996 #
face $-1 -1 $-1 $-1 $206 $29 $-1 $393 reversed single #
loop $-1 -1 $-1 $-1 $298 $191 #
plane-surface $-1 -1 $-1 0 4.9999999999999991 0 0 -1 0 0 0 -1 forward_v I I I I #
coedge $-1 -1 $-1 $394 $296 $299 $395 forward $192 $-1 #
coedge $-1 -1 $-1 $302 $194 $195 $290 reversed $126 $-1 #
coedge $-1 -1 $-1 $296 $394 $194 $288 reversed $192 $-1 #
edge $-1 -1 $-1 $303 -7.0999999999999996 $396 7.0999999999999996 $287 $397 forward @7 unknown #
coedge $-1 -1 $-1 $196 $195 $394 $398 forward $83 $-1 #
edge $-1 -1 $-1 $294 -5 $396 5 $286 $399 forward @7 unknown #
coedge $-1 -1 $-1 $299 $298 $196 $292 reversed $283 $-1 #
edge $-1 -1 $-1 $400 -5 $293 5 $291 $401 forward @7 unknown #
vertex $-1 -1 $-1 $198 $402 #
vertex $-1 -1 $-1 $305 $403 #
straight-curve $-1 -1 $-1 5 0 -7.0999999999999996 0 -1 0 I I #
coedge $-1 -1 $-1 $285 $287 $199 $297 reversed $192 $-1 #
edge $-1 -1 $-1 $300 -4.9999999999999991 $303 4.9999999999999991 $296 $404 forward @7 unknown #
coedge $-1 -1 $-1 $291 $200 $205 $306 forward $283 $-1 #
coedge $-1 -1 $-1 $200 $291 $285 $395 reversed $283 $-1 #
vertex $-1 -1 $-1 $201 $405 #
straight-curve $-1 -1 $-1 0 4.9999999999999991 7.0999999999999996 -1 0 0 I I #
coedge $-1 -1 $-1 $202 $286 $204 $305 reversed $126 $-1 #
vertex $-1 -1 $-1 $297 $406 #
straight-curve $-1 -1 $-1 0 -4.9999999999999991 7.0999999999999996 1 0 0 I I #
edge $-1 -1 $-1 $207 -7.0999999999999996 $294 7.0999999999999996 $204 $407 forward @7 unknown #
edge $-1 -1 $-1 $208 -7.0999999999999996 $293 7.0999999999999996 $205 $408 forward @7 unknown #
point $-1 -1 $-1 5 -4.9999999999999991 7.0999999999999996 #
point $-1 -1 $-1 5 4.9999999999999991 7.0999999999999996 #
loop $-1 -1 $-1 $-1 $216 $133 #
coedge $-1 -1 $-1 $310 $310 $214 $311 forward $210 $-1 #
edge $409 -1 $-1 $410 -3.1415926535897931 $410 3.1415926535897931 $214 $411 forward @7 unknown #
vertex $-1 -1 $-1 $215 $412 #
ellipse-curve $-1 -1 $-1 -2.2763286146721972e-031 0 6.8999999999999986 0 0 -1 4.9999999999999991 6.1230317691118863e-016 0 1 I I #
convexity-sys-attrib $-1 -1 $-1 $-1 $217 #
vertex $-1 -1 $-1 $217 $413 #
ellipse-curve $-1 -1 $-1 0 0 5.3999999999999986 0 0 1 2.5 0 0 1 I I #
point $-1 -1 $-1 -2.5 0 6.9000000000000004 #
face $-1 -1 $-1 $414 $349 $33 $-1 $415 reversed single #
loop $-1 -1 $-1 $-1 $333 $220 #
plane-surface $-1 -1 $-1 5 0 0 -1 0 0 0 0 1 forward_v I I I I #
coedge $-1 -1 $-1 $326 $416 $417 $418 reversed $221 $-1 #
coedge $-1 -1 $-1 $419 $222 $420 $421 reversed $142 $-1 #
coedge $-1 -1 $-1 $222 $419 $226 $334 forward $142 $-1 #
coedge $-1 -1 $-1 $422 $423 $222 $325 forward $424 $-1 #
edge $-1 -1 $-1 $425 -1.5707963267948968 $338 -1.2246063538223775e-016 $324 $339 forward @7 unknown #
coedge $-1 -1 $-1 $426 $321 $427 $327 reversed $221 $-1 #
edge $-1 -1 $-1 $331 -14.199999999999999 $428 0 $427 $429 forward @7 unknown #
coedge $-1 -1 $-1 $329 $224 $347 $350 forward $330 $-1 #
coedge $-1 -1 $-1 $224 $328 $430 $431 forward $330 $-1 #
loop $-1 -1 $-1 $-1 $224 $432 #
vertex $-1 -1 $-1 $433 $434 #
ellipse-curve $-1 -1 $-1 -2.2763286146721972e-031 0 7.0999999999999996 0 0 -1 4.9999999999999991 6.1230317691118863e-016 0 1 I I #
coedge $-1 -1 $-1 $435 $436 $437 $334 forward $319 $-1 #
edge $-1 -1 $-1 $343 -14.199999999999999 $338 0 $333 $438 forward @7 unknown #
coedge $-1 -1 $-1 $336 $227 $439 $352 forward $337 $-1 #
coedge $-1 -1 $-1 $227 $335 $435 $440 forward $337 $-1 #
loop $-1 -1 $-1 $-1 $227 $441 #
vertex $-1 -1 $-1 $442 $443 #
ellipse-curve $-1 -1 $-1 -2.2763286146721972e-031 0 -7.0999999999999996 0 0 1 4.9999999999999991 6.1230317691118863e-016 0 1 I I #
coedge $-1 -1 $-1 $341 $229 $436 $444 forward $342 $-1 #
coedge $-1 -1 $-1 $229 $340 $445 $446 forward $342 $-1 #
loop $-1 -1 $-1 $-1 $229 $447 #
vertex $-1 -1 $-1 $444 $448 #
coedge $-1 -1 $-1 $449 $450 $231 $345 forward $451 $-1 #
edge $-1 -1 $-1 $234 1.5707963267948966 $428 3.1415926535897931 $344 $339 forward @7 unknown #
coedge $-1 -1 $-1 $452 $232 $450 $453 reversed $349 $-1 #
coedge $-1 -1 $-1 $232 $452 $328 $350 reversed $349 $-1 #
coedge $-1 -1 $-1 $445 $439 $93 $147 reversed $454 $-1 #
loop $-1 -1 $-1 $-1 $232 $318 #
edge $-1 -1 $-1 $233 2.2763286146721972e-031 $455 5 $347 $456 forward @7 unknown #
point $-1 -1 $-1 -2.2763286146721972e-031 4.9999999999999991 7.0999999999999996 #
edge $-1 -1 $-1 $234 -2.2763286146721972e-031 $457 5 $439 $458 forward @7 unknown #
point $-1 -1 $-1 -2.2763286146721972e-031 4.9999999999999991 -7.0999999999999996 #
loop $-1 -1 $-1 $-1 $242 $148 #
coedge $-1 -1 $-1 $355 $355 $240 $356 forward $236 $-1 #
edge $459 -1 $-1 $460 -3.1415926535897931 $460 3.1415926535897931 $240 $461 forward @7 unknown #
vertex $-1 -1 $-1 $241 $462 #
ellipse-curve $-1 -1 $-1 -2.2763286146721972e-031 0 7.0999999999999988 0 0 -1 4.9999999999999991 6.1230317691118863e-016 0 1 I I #
convexity-sys-attrib $-1 -1 $-1 $-1 $243 #
vertex $-1 -1 $-1 $243 $463 #
ellipse-curve $-1 -1 $-1 0 0 6.8999999999999986 0 0 1 0.59999999999999998 0 0 1 I I #
point $-1 -1 $-1 -0.59999999999999964 0 7.1000000000000005 #
model_id-kcp-attrib $-1 -1 $-1 $-1 $247 1 1021500167 1021500167 5898241 8 #
face $464 -1 $-1 $465 $466 $10 $-1 $467 forward single #
loop $-1 -1 $-1 $-1 $468 $247 #
torus-surface $-1 -1 $-1 0 0 -8.5 0 0 -1 4.5 0.5 -0.99999563951296311 -0.0029531263196625949 0 forward_v I I I I #
coedge $-1 -1 $-1 $469 $470 $471 $472 forward $248 $-1 #
coedge $-1 -1 $-1 $250 $253 $469 $473 reversed $158 $-1 #
coedge $-1 -1 $-1 $252 $251 $250 $370 forward $101 $-1 #
edge $-1 -1 $-1 $256 0 $474 8 $369 $475 forward @7 unknown #
coedge $-1 -1 $-1 $471 $468 $252 $372 forward $365 $-1 #
edge $-1 -1 $-1 $373 0 $474 3.1415926535897993 $252 $476 forward @7 unknown #
vertex $-1 -1 $-1 $372 $477 #
straight-curve $-1 -1 $-1 -5 0 -0.5 0 0 -1 I I #
ellipse-curve $-1 -1 $-1 0 0 -0.5 0 0 1 4.9999999999999991 -8.1239991585787176e-012 0 1 I I #
point $-1 -1 $-1 5 6.1230317691118863e-016 -0.5 #
coedge $-1 -1 $-1 $261 $260 $478 $479 reversed $262 $-1 #
face $480 -1 $-1 $481 $262 $10 $-1 $482 forward single #
convexity-sys-attrib $-1 -1 $-1 $263 $168 #
coedge $-1 -1 $-1 $478 $478 $265 $381 forward $483 $-1 #
edge $484 -1 $-1 $384 0 $382 3.1415926535897931 $380 $485 forward @7 unknown #
vertex $-1 -1 $-1 $479 $486 #
straight-curve $-1 -1 $-1 2.5 0 0 0 0 1 I I #
vertex $-1 -1 $-1 $479 $487 #
straight-curve $-1 -1 $-1 -2.5 3.0615158845559431e-016 0 0 0 1 I I #
model_id-kcp-attrib $-1 -1 $-1 $-1 $268 1 1021500167 1021500167 5898241 13 #
cone-surface $-1 -1 $-1 0 0 0 0 0 1 2.5 0 0 1 I I 0 1 2.5 forward I I I I #
convexity-sys-attrib $-1 -1 $-1 $-1 $275 #
vertex $-1 -1 $-1 $275 $488 #
ellipse-curve $-1 -1 $-1 -2.2763286146721972e-031 0 -3.6000000000000014 0 0 1 4.9999999999999991 6.1230317691118863e-016 0 1 I I #
point $-1 -1 $-1 -4.9999999999999991 -1.2246063538223773e-015 -7.1000000000000014 #
point $-1 -1 $-1 -0.59999999999999998 0 -3.5999999999999996 #
plane-surface $-1 -1 $-1 5 0 0 -1 0 0 0 0 1 forward_v I I I I #
coedge $-1 -1 $-1 $287 $285 $289 $398 reversed $192 $-1 #
edge $-1 -1 $-1 $300 -7.0999999999999996 $400 7.0999999999999996 $299 $489 forward @7 unknown #
vertex $-1 -1 $-1 $398 $490 #
straight-curve $-1 -1 $-1 -5 -4.9999999999999991 0 0 0 -1 I I #
edge $-1 -1 $-1 $396 -4.9999999999999991 $400 4.9999999999999991 $394 $491 forward @7 unknown #
straight-curve $-1 -1 $-1 0 -4.9999999999999991 -7.0999999999999996 -1 0 0 I I #
vertex $-1 -1 $-1 $292 $492 #
straight-curve $-1 -1 $-1 0 4.9999999999999991 -7.0999999999999996 1 0 0 I I #
point $-1 -1 $-1 5 4.9999999999999991 -7.0999999999999996 #
point $-1 -1 $-1 5 -4.9999999999999991 -7.0999999999999996 #
straight-curve $-1 -1 $-1 -5 0 7.0999999999999996 0 -1 0 I I #
point $-1 -1 $-1 -5 4.9999999999999991 7.0999999999999996 #
point $-1 -1 $-1 -5 -4.9999999999999991 7.0999999999999996 #
straight-curve $-1 -1 $-1 5 -4.9999999999999991 0 0 0 -1 I I #
straight-curve $-1 -1 $-1 5 4.9999999999999991 0 0 0 -1 I I #
convexity-sys-attrib $-1 -1 $-1 $-1 $311 #
vertex $-1 -1 $-1 $311 $493 #
ellipse-curve $-1 -1 $-1 -2.2763286146721972e-031 0 5.3999999999999986 0 0 -1 4.9999999999999991 6.1230317691118863e-016 0 1 I I #
point $-1 -1 $-1 -4.9999999999999991 -9.8607613152626476e-032 6.8999999999999986 #
point $-1 -1 $-1 2.5 0 5.4000000000000004 #
face $-1 -1 $-1 $494 $495 $33 $-1 $496 reversed single #
plane-surface $-1 -1 $-1 0 4.9999999999999991 0 0 -1 0 0 0 -1 forward_v I I I I #
coedge $-1 -1 $-1 $321 $426 $322 $421 forward $221 $-1 #
coedge $-1 -1 $-1 $497 $498 $321 $418 forward $499 $-1 #
edge $-1 -1 $-1 $428 -3.1415926535897931 $425 -1.5707963267948968 $417 $339 forward @7 unknown #
coedge $-1 -1 $-1 $323 $322 $500 $501 reversed $142 $-1 #
coedge $-1 -1 $-1 $502 $503 $504 $421 forward $505 $-1 #
edge $-1 -1 $-1 $506 -14.199999999999999 $425 0 $420 $507 forward @7 unknown #
coedge $-1 -1 $-1 $423 $324 $508 $442 forward $424 $-1 #
coedge $-1 -1 $-1 $324 $422 $502 $509 forward $424 $-1 #
loop $-1 -1 $-1 $-1 $324 $510 #
vertex $-1 -1 $-1 $511 $512 #
coedge $-1 -1 $-1 $416 $326 $513 $514 reversed $221 $-1 #
coedge $-1 -1 $-1 $515 $516 $517 $327 forward $495 $-1 #
vertex $-1 -1 $-1 $518 $519 #
straight-curve $-1 -1 $-1 -5 0 -7.0999999999999996 0 0 -1 I I #
coedge $-1 -1 $-1 $520 $517 $329 $431 reversed $521 $-1 #
edge $-1 -1 $-1 $455 -4.9999999999999991 $331 0 $430 $522 forward @7 unknown #
face $-1 -1 $-1 $447 $330 $33 $-1 $523 forward single #
edge $-1 -1 $-1 $331 0 $524 4.9999999999999991 $516 $522 forward @7 unknown #
point $-1 -1 $-1 -5 0 7.0999999999999996 #
coedge $-1 -1 $-1 $525 $333 $336 $440 reversed $319 $-1 #
coedge $-1 -1 $-1 $333 $525 $340 $444 reversed $319 $-1 #
coedge $-1 -1 $-1 $526 $508 $323 $334 reversed $527 $-1 #
straight-curve $-1 -1 $-1 5 0 -7.0999999999999996 0 0 -1 I I #
coedge $-1 -1 $-1 $348 $528 $335 $352 reversed $454 $-1 #
edge $-1 -1 $-1 $457 -4.9999999999999991 $338 0 $435 $529 forward @7 unknown #
face $-1 -1 $-1 $530 $337 $33 $-1 $531 reversed single #
edge $-1 -1 $-1 $338 0 $532 4.9999999999999991 $508 $529 forward @7 unknown #
point $-1 -1 $-1 5 0 -7.0999999999999996 #
edge $-1 -1 $-1 $343 0 $533 4.9999999999999991 $436 $534 forward @7 unknown #
coedge $-1 -1 $-1 $528 $348 $341 $446 reversed $454 $-1 #
edge $-1 -1 $-1 $533 -5 $233 2.2763286146721972e-031 $445 $456 forward @7 unknown #
face $-1 -1 $-1 $535 $342 $33 $-1 $523 forward single #
point $-1 -1 $-1 5 0 7.0999999999999996 #
coedge $-1 -1 $-1 $450 $344 $536 $518 forward $451 $-1 #
coedge $-1 -1 $-1 $344 $449 $346 $453 forward $451 $-1 #
loop $-1 -1 $-1 $-1 $344 $530 #
coedge $-1 -1 $-1 $347 $346 $520 $537 reversed $349 $-1 #
edge $-1 -1 $-1 $538 -5 $234 -2.2763286146721972e-031 $346 $458 forward @7 unknown #
loop $-1 -1 $-1 $-1 $348 $539 #
vertex $-1 -1 $-1 $350 $540 #
straight-curve $-1 -1 $-1 0 4.9999999999999991 7.0999999999999996 -1 0 0 I I #
vertex $-1 -1 $-1 $440 $541 #
straight-curve $-1 -1 $-1 0 4.9999999999999991 -7.0999999999999996 1 0 0 I I #
convexity-sys-attrib $-1 -1 $-1 $-1 $356 #
vertex $-1 -1 $-1 $356 $542 #
ellipse-curve $-1 -1 $-1 -2.2763286146721972e-031 0 6.8999999999999986 0 0 -1 4.9999999999999991 6.1230317691118863e-016 0 1 I I #
point $-1 -1 $-1 -4.9999999999999991 -9.8607613152626476e-032 7.0999999999999988 #
point $-1 -1 $-1 0.59999999999999998 0 6.9000000000000004 #
model_id-kcp-attrib $-1 -1 $-1 $-1 $364 1 1021500167 1021500167 5898241 9 #
face $543 -1 $-1 $544 $545 $10 $-1 $546 forward single #
loop $-1 -1 $-1 $547 $548 $364 #
plane-surface $-1 -1 $-1 0 0 -9 0 0 -1 -1 0 0 forward_v I I I I #
coedge $-1 -1 $-1 $371 $549 $550 $551 forward $365 $-1 #
coedge $-1 -1 $-1 $550 $367 $368 $473 forward $248 $-1 #
coedge $-1 -1 $-1 $367 $550 $548 $552 reversed $248 $-1 #
coedge $-1 -1 $-1 $549 $371 $367 $472 reversed $365 $-1 #
edge $-1 -1 $-1 $553 -3.5527136814254198e-015 $474 1.5707963267949341 $471 $554 forward @7 unknown #
edge $-1 -1 $-1 $474 6.5233312578843981e-015 $373 3.1415926535897931 $368 $555 forward @7 unknown #
vertex $-1 -1 $-1 $372 $556 #
straight-curve $-1 -1 $-1 5 6.1230317691118863e-016 -0.5 0 2.7755575615628914e-016 -1 I I #
ellipse-curve $-1 -1 $-1 0 0 -8.5 0 0 -1 -4.9999999999999991 -8.1253002011857002e-012 0 1 I I #
point $-1 -1 $-1 -4.9999999999999991 -8.1253002011857002e-012 -8.5 #
coedge $-1 -1 $-1 $380 $380 $377 $479 forward $483 $-1 #
edge $557 -1 $-1 $382 0 $384 3.1415926535897931 $478 $558 forward @7 unknown #
model_id-kcp-attrib $-1 -1 $-1 $-1 $378 1 1021500167 1021500167 5898241 14 #
face $559 -1 $-1 $560 $483 $10 $-1 $561 forward single #
cone-surface $-1 -1 $-1 0 0 0 0 0 1 2.5 0 0 1 I I 0 1 2.5 forward I I I I #
loop $-1 -1 $-1 $562 $380 $481 #
attrib_edge_convexity-kcp-attrib $-1 -1 $563 $-1 $381 1 #
ellipse-curve $-1 -1 $-1 0 0 1.5 0 0 1 -2.5 0 0 1 I I #
point $-1 -1 $-1 2.5 0 1.5 #
point $-1 -1 $-1 -2.5 0 1.5 #
point $-1 -1 $-1 -4.9999999999999991 -1.2246063538223773e-015 -3.6000000000000014 #
straight-curve $-1 -1 $-1 -5 4.9999999999999991 0 0 0 -1 I I #
point $-1 -1 $-1 -5 -4.9999999999999991 -7.0999999999999996 #
straight-curve $-1 -1 $-1 -5 0 -7.0999999999999996 0 1 0 I I #
point $-1 -1 $-1 -5 4.9999999999999991 -7.0999999999999996 #
point $-1 -1 $-1 -4.9999999999999991 -9.8607613152626476e-032 5.3999999999999986 #
face $-1 -1 $-1 $432 $564 $33 $-1 $523 forward single #
loop $-1 -1 $-1 $-1 $427 $414 #
plane-surface $-1 -1 $-1 -5 0 0 1 0 0 0 0 -1 forward_v I I I I #
coedge $-1 -1 $-1 $498 $417 $565 $511 forward $499 $-1 #
coedge $-1 -1 $-1 $417 $497 $515 $566 forward $499 $-1 #
loop $-1 -1 $-1 $-1 $417 $567 #
coedge $-1 -1 $-1 $568 $569 $419 $501 forward $570 $-1 #
edge $-1 -1 $-1 $343 1.2246063538223775e-016 $506 1.5707963267948968 $500 $332 forward @7 unknown #
coedge $-1 -1 $-1 $571 $420 $423 $509 reversed $505 $-1 #
coedge $-1 -1 $-1 $420 $571 $568 $572 reversed $505 $-1 #
coedge $-1 -1 $-1 $573 $565 $416 $421 reversed $574 $-1 #
loop $-1 -1 $-1 $-1 $420 $575 #
vertex $-1 -1 $-1 $572 $576 #
straight-curve $-1 -1 $-1 -2.2763286146721972e-031 -4.9999999999999991 -7.0999999999999996 0 0 -1 I I #
coedge $-1 -1 $-1 $437 $577 $422 $442 reversed $527 $-1 #
edge $-1 -1 $-1 $532 -5 $425 2.2763286146721972e-031 $502 $578 forward @7 unknown #
face $-1 -1 $-1 $441 $424 $33 $-1 $531 reversed single #
edge $-1 -1 $-1 $425 2.2763286146721972e-031 $579 5 $565 $578 forward @7 unknown #
point $-1 -1 $-1 -2.2763286146721972e-031 -4.9999999999999991 -7.0999999999999996 #
coedge $-1 -1 $-1 $580 $581 $426 $514 forward $564 $-1 #
edge $-1 -1 $-1 $506 1.5707963267948968 $331 3.1415926535897931 $513 $332 forward @7 unknown #
coedge $-1 -1 $-1 $582 $427 $498 $566 reversed $495 $-1 #
coedge $-1 -1 $-1 $427 $582 $580 $433 reversed $495 $-1 #
coedge $-1 -1 $-1 $430 $536 $223 $327 reversed $521 $-1 #
edge $-1 -1 $-1 $428 0 $538 4.9999999999999991 $536 $583 forward @7 unknown #
point $-1 -1 $-1 -5 0 -7.0999999999999996 #
coedge $-1 -1 $-1 $536 $430 $452 $537 forward $521 $-1 #
loop $-1 -1 $-1 $-1 $517 $584 #
straight-curve $-1 -1 $-1 -5 0 7.0999999999999996 0 -1 0 I I #
plane-surface $-1 -1 $-1 0 0 7.0999999999999996 0 0 1 1 0 0 forward_v I I I I #
vertex $-1 -1 $-1 $433 $585 #
coedge $-1 -1 $-1 $436 $435 $528 $586 reversed $319 $-1 #
coedge $-1 -1 $-1 $577 $437 $569 $587 reversed $527 $-1 #
loop $-1 -1 $-1 $-1 $437 $588 #
coedge $-1 -1 $-1 $439 $445 $525 $586 forward $454 $-1 #
straight-curve $-1 -1 $-1 5 0 -7.0999999999999996 0 -1 0 I I #
face $-1 -1 $-1 $589 $451 $33 $-1 $531 reversed single #
plane-surface $-1 -1 $-1 0 0 -7.0999999999999996 0 0 1 1 0 0 forward_v I I I I #
vertex $-1 -1 $-1 $590 $591 #
vertex $-1 -1 $-1 $444 $592 #
straight-curve $-1 -1 $-1 5 0 7.0999999999999996 0 1 0 I I #
face $-1 -1 $-1 $575 $570 $33 $-1 $523 forward single #
coedge $-1 -1 $-1 $517 $520 $449 $518 reversed $521 $-1 #
edge $-1 -1 $-1 $455 -7.0999999999999996 $538 7.0999999999999996 $452 $593 forward @7 unknown #
vertex $-1 -1 $-1 $453 $594 #
face $-1 -1 $-1 $588 $454 $33 $-1 $415 reversed single #
point $-1 -1 $-1 -5 4.9999999999999991 7.0999999999999996 #
point $-1 -1 $-1 5 4.9999999999999991 -7.0999999999999996 #
point $-1 -1 $-1 -4.9999999999999991 -9.8607613152626476e-032 6.8999999999999986 #
model_id-kcp-attrib $-1 -1 $-1 $-1 $465 1 1021500167 1021500167 5898241 10 #
face $595 -1 $-1 $596 $597 $10 $-1 $598 forward single #
loop $-1 -1 $-1 $-1 $599 $465 #
cone-surface $-1 -1 $-1 0 0 -9 0 0 -1 -0.59999999999999998 0 0 1 I I 0 1 0.59999999999999998 forward I I I I #
loop $-1 -1 $-1 $-1 $600 $364 #
coedge $-1 -1 $-1 $601 $601 $470 $552 forward $466 $-1 #
coedge $-1 -1 $-1 $468 $471 $601 $602 reversed $365 $-1 #
coedge $-1 -1 $-1 $470 $469 $468 $551 reversed $248 $-1 #
edge $-1 -1 $-1 $603 0 $373 1.5707963267949376 $468 $604 forward @7 unknown #
edge $605 -1 $-1 $553 3.8942614565150453e-014 $603 3.1415926535898016 $548 $606 forward @7 unknown #
vertex $-1 -1 $-1 $602 $607 #
ellipse-curve $-1 -1 $-1 4.4999999999999991 4.3805351256786078e-012 -8.5000000000000018 7.4893798083129313e-012 -1 8.5801073677900458e-012 -1.6875389974302379e-014 -4.2900536838951336e-012 -0.49999999999999822 1 I I #
ellipse-curve $-1 -1 $-1 0 0 -8.5 0 0 -1 4.9999999999999991 8.1252250298350735e-012 0 1 I I #
point $-1 -1 $-1 5 8.0926083735456522e-012 -8.5 #
attrib_edge_convexity-kcp-attrib $-1 -1 $608 $-1 $479 1 #
ellipse-curve $-1 -1 $-1 0 0 1.5 0 0 1 2.5 0 0 1 I I #
model_id-kcp-attrib $-1 -1 $-1 $-1 $481 1 1021500167 1021500167 5898241 15 #
face $609 -1 $-1 $610 $611 $10 $-1 $612 forward single #
plane-surface $-1 -1 $-1 0 0 1.5 0 0 1 1 0 0 forward_v I I I I #
loop $-1 -1 $-1 $-1 $613 $481 #
convexity-sys-attrib $-1 -1 $-1 $484 $381 #
loop $-1 -1 $-1 $-1 $513 $494 #
coedge $-1 -1 $-1 $504 $614 $497 $511 reversed $574 $-1 #
edge $-1 -1 $-1 $579 -4.9999999999999991 $428 0 $515 $583 forward @7 unknown #
face $-1 -1 $-1 $510 $499 $33 $-1 $531 reversed single #
coedge $-1 -1 $-1 $569 $500 $503 $572 forward $570 $-1 #
coedge $-1 -1 $-1 $500 $568 $526 $587 forward $570 $-1 #
loop $-1 -1 $-1 $-1 $500 $535 #
coedge $-1 -1 $-1 $503 $502 $577 $590 reversed $505 $-1 #
edge $-1 -1 $-1 $506 -2.2763286146721972e-031 $615 5 $503 $616 forward @7 unknown #
coedge $-1 -1 $-1 $614 $504 $581 $617 reversed $574 $-1 #
loop $-1 -1 $-1 $-1 $504 $589 #
face $-1 -1 $-1 $567 $505 $33 $-1 $618 reversed single #
point $-1 -1 $-1 -2.2763286146721972e-031 -4.9999999999999991 7.0999999999999996 #
coedge $-1 -1 $-1 $508 $526 $571 $590 forward $527 $-1 #
straight-curve $-1 -1 $-1 0 -4.9999999999999991 -7.0999999999999996 -1 0 0 I I #
vertex $-1 -1 $-1 $566 $619 #
coedge $-1 -1 $-1 $581 $513 $516 $433 forward $564 $-1 #
coedge $-1 -1 $-1 $513 $580 $573 $617 forward $564 $-1 #
coedge $-1 -1 $-1 $516 $515 $614 $620 reversed $495 $-1 #
straight-curve $-1 -1 $-1 -5 0 -7.0999999999999996 0 1 0 I I #
face $-1 -1 $-1 $539 $521 $33 $-1 $496 reversed single #
point $-1 -1 $-1 -5 -4.9999999999999991 7.0999999999999996 #
edge $-1 -1 $-1 $533 -7.0999999999999996 $457 7.0999999999999996 $525 $621 forward @7 unknown #
edge $-1 -1 $-1 $615 -4.9999999999999991 $343 0 $526 $534 forward @7 unknown #
face $-1 -1 $-1 $-1 $527 $33 $-1 $320 reversed single #
face $-1 -1 $-1 $584 $574 $33 $-1 $618 reversed single #
edge $-1 -1 $-1 $615 -7.0999999999999996 $532 7.0999999999999996 $577 $622 forward @7 unknown #
point $-1 -1 $-1 5 -4.9999999999999991 -7.0999999999999996 #
point $-1 -1 $-1 5 4.9999999999999991 7.0999999999999996 #
straight-curve $-1 -1 $-1 -5 4.9999999999999991 0 0 0 -1 I I #
point $-1 -1 $-1 -5 4.9999999999999991 -7.0999999999999996 #
model_id-kcp-attrib $-1 -1 $-1 $-1 $544 1 1021500167 1021500167 5898241 11 #
face $623 -1 $-1 $268 $624 $10 $-1 $625 forward single #
loop $-1 -1 $-1 $-1 $626 $544 #
cone-surface $-1 -1 $-1 0 0 -9 0 0 -1 -0.59999999999999998 0 0 1 I I 0 1 0.59999999999999998 forward I I I I #
coedge $-1 -1 $-1 $627 $628 $629 $630 forward $545 $-1 #
coedge $-1 -1 $-1 $631 $631 $628 $632 reversed $547 $-1 #
coedge $-1 -1 $-1 $548 $548 $549 $602 forward $466 $-1 #
edge $633 -1 $-1 $603 0 $553 3.1415926535898393 $601 $634 forward @7 unknown #
vertex $-1 -1 $-1 $602 $635 #
ellipse-curve $-1 -1 $-1 -4.5 -4.3843587003276857e-012 -8.5000000000000018 -7.4818830017160275e-012 1 8.5956128144343489e-012 1.865174681370263e-014 4.2978064072172989e-012 -0.49999999999999822 1 I I #
attrib_edge_convexity-kcp-attrib $-1 -1 $636 $-1 $552 3 #
ellipse-curve $-1 -1 $-1 -6.6613381477509392e-016 -1.6875389974302379e-014 -9 0 0 -1 4.4999999999999831 1.0735683175777632e-013 0 1 I I #
point $-1 -1 $-1 4.4999999999999805 -8.4760323759702405e-014 -9 #
convexity-sys-attrib $-1 -1 $-1 $557 $479 #
model_id-kcp-attrib $-1 -1 $-1 $-1 $560 1 1021500167 1021500167 5898241 16 #
face $637 -1 $-1 $638 $639 $10 $-1 $640 forward single #
loop $-1 -1 $-1 $-1 $641 $560 #
cone-surface $-1 -1 $-1 0 0 1.5 0 0 1 0.59999999999999998 0 0 1 I I 0 1 0.59999999999999998 forward I I I I #
coedge $-1 -1 $-1 $642 $642 $643 $644 reversed $562 $-1 #
coedge $-1 -1 $-1 $565 $573 $582 $620 forward $574 $-1 #
vertex $-1 -1 $-1 $587 $645 #
straight-curve $-1 -1 $-1 0 -4.9999999999999991 7.0999999999999996 1 0 0 I I #
edge $-1 -1 $-1 $524 -5 $506 -2.2763286146721972e-031 $573 $616 forward @7 unknown #
plane-surface $-1 -1 $-1 0 -4.9999999999999991 0 0 1 0 0 0 1 forward_v I I I I #
point $-1 -1 $-1 -5 -4.9999999999999991 -7.0999999999999996 #
edge $-1 -1 $-1 $524 -7.0999999999999996 $579 7.0999999999999996 $582 $646 forward @7 unknown #
straight-curve $-1 -1 $-1 5 4.9999999999999991 0 0 0 -1 I I #
straight-curve $-1 -1 $-1 5 -4.9999999999999991 0 0 0 -1 I I #
model_id-kcp-attrib $-1 -1 $-1 $-1 $596 1 1021500167 1021500167 5898241 12 #
loop $-1 -1 $-1 $-1 $647 $596 #
plane-surface $-1 -1 $-1 0 0 -12.5 0 0 -1 -1 0 0 forward_v I I I I #
coedge $-1 -1 $-1 $648 $649 $650 $651 forward $597 $-1 #
coedge $-1 -1 $-1 $650 $599 $647 $652 reversed $545 $-1 #
coedge $-1 -1 $-1 $599 $650 $600 $632 forward $545 $-1 #
coedge $-1 -1 $-1 $649 $648 $599 $630 reversed $597 $-1 #
edge $-1 -1 $-1 $653 0 $654 3.5 $629 $655 forward @7 unknown #
coedge $-1 -1 $-1 $600 $600 $649 $656 reversed $547 $-1 #
edge $657 -1 $-1 $658 0 $653 3.1415926535897931 $600 $659 forward @7 unknown #
attrib_edge_convexity-kcp-attrib $-1 -1 $660 $-1 $602 3 #
ellipse-curve $-1 -1 $-1 -8.8817841970012523e-016 1.8207657603852567e-014 -9 0 0 -1 -4.4999999999999805 -1.0475995071423904e-013 0 1 I I #
point $-1 -1 $-1 -4.4999999999999813 -8.6552293110386472e-014 -9 #
convexity-sys-attrib $-1 -1 $-1 $605 $552 #
model_id-kcp-attrib $-1 -1 $-1 $-1 $610 1 1021500167 1021500167 5898241 17 #
face $661 -1 $-1 $-1 $662 $10 $-1 $663 forward single #
loop $-1 -1 $-1 $-1 $664 $610 #
cone-surface $-1 -1 $-1 0 0 1.5 0 0 1 0.59999999999999998 0 0 1 I I 0 1 0.59999999999999998 forward I I I I #
coedge $-1 -1 $-1 $665 $643 $666 $667 forward $611 $-1 #
coedge $-1 -1 $-1 $613 $613 $668 $669 reversed $562 $-1 #
coedge $-1 -1 $-1 $641 $670 $613 $644 forward $611 $-1 #
edge $671 -1 $-1 $672 0 $673 3.1415926535897931 $613 $674 forward @7 unknown #
point $-1 -1 $-1 5 -4.9999999999999991 7.0999999999999996 #
straight-curve $-1 -1 $-1 -5 -4.9999999999999991 0 0 0 -1 I I #
coedge $-1 -1 $-1 $675 $675 $627 $652 forward $624 $-1 #
coedge $-1 -1 $-1 $629 $626 $675 $676 reversed $597 $-1 #
coedge $-1 -1 $-1 $626 $629 $631 $656 forward $597 $-1 #
coedge $-1 -1 $-1 $628 $627 $626 $651 reversed $545 $-1 #
edge $-1 -1 $-1 $658 0 $677 3.5 $626 $678 forward @7 unknown #
edge $679 -1 $-1 $677 0 $654 3.1415926535897931 $647 $680 forward @7 unknown #
vertex $-1 -1 $-1 $656 $681 #
vertex $-1 -1 $-1 $676 $682 #
straight-curve $-1 -1 $-1 -0.59999999999999998 0 -9 0 0 -1 I I #
edge $683 -1 $-1 $653 0 $658 3.1415926535897931 $631 $684 forward @7 unknown #
attrib_edge_convexity-kcp-attrib $-1 -1 $685 $-1 $632 2 #
vertex $-1 -1 $-1 $656 $686 #
ellipse-curve $-1 -1 $-1 0 0 -9 0 0 -1 0.59999999999999998 0 0 1 I I #
convexity-sys-attrib $-1 -1 $-1 $633 $602 #
model_id-kcp-attrib $-1 -1 $-1 $-1 $638 1 1021500167 1021500167 5898241 18 #
loop $-1 -1 $-1 $-1 $687 $638 #
plane-surface $-1 -1 $-1 0 0 1.7 0 0 1 1 0 0 forward_v I I I I #
coedge $-1 -1 $-1 $688 $668 $670 $689 forward $639 $-1 #
coedge $-1 -1 $-1 $670 $641 $687 $690 reversed $611 $-1 #
coedge $-1 -1 $-1 $668 $688 $641 $667 reversed $639 $-1 #
edge $-1 -1 $-1 $673 0 $691 0.19999999999999996 $666 $692 forward @7 unknown #
coedge $-1 -1 $-1 $664 $666 $642 $669 forward $639 $-1 #
edge $693 -1 $-1 $673 0 $672 3.1415926535897931 $642 $694 forward @7 unknown #
coedge $-1 -1 $-1 $643 $665 $664 $689 reversed $611 $-1 #
attrib_edge_convexity-kcp-attrib $-1 -1 $695 $-1 $644 2 #
vertex $-1 -1 $-1 $669 $696 #
vertex $-1 -1 $-1 $669 $697 #
ellipse-curve $-1 -1 $-1 0 0 1.5 0 0 1 -0.59999999999999998 0 0 1 I I #
coedge $-1 -1 $-1 $647 $647 $648 $676 forward $624 $-1 #
edge $698 -1 $-1 $654 0 $677 3.1415926535897931 $675 $699 forward @7 unknown #
vertex $-1 -1 $-1 $676 $700 #
straight-curve $-1 -1 $-1 0.59999999999999998 7.3476381229342628e-017 -9 0 0 -1 I I #
attrib_edge_convexity-kcp-attrib $-1 -1 $701 $-1 $652 1 #
ellipse-curve $-1 -1 $-1 0 0 -12.5 0 0 -1 0.59999999999999998 0 0 1 I I #
point $-1 -1 $-1 -0.59999999999999998 0 -9 #
point $-1 -1 $-1 -0.59999999999999998 0 -12.5 #
attrib_edge_convexity-kcp-attrib $-1 -1 $702 $-1 $656 2 #
ellipse-curve $-1 -1 $-1 0 0 -9 0 0 -1 -0.59999999999999998 0 0 1 I I #
convexity-sys-attrib $-1 -1 $-1 $657 $632 #
point $-1 -1 $-1 0.59999999999999998 0 -9 #
coedge $-1 -1 $-1 $703 $703 $665 $690 forward $662 $-1 #
coedge $-1 -1 $-1 $666 $664 $703 $704 reversed $639 $-1 #
edge $-1 -1 $-1 $672 0 $705 0.19999999999999996 $664 $706 forward @7 unknown #
edge $-1 -1 $-1 $705 0 $691 3.1415926535897931 $687 $707 forward @7 unknown #
vertex $-1 -1 $-1 $704 $708 #
straight-curve $-1 -1 $-1 0.59999999999999998 0 1.5 0 0 1 I I #
attrib_edge_convexity-kcp-attrib $-1 -1 $709 $-1 $669 2 #
ellipse-curve $-1 -1 $-1 0 0 1.5 0 0 1 0.59999999999999998 0 0 1 I I #
convexity-sys-attrib $-1 -1 $-1 $671 $644 #
point $-1 -1 $-1 -0.59999999999999998 0 1.5 #
point $-1 -1 $-1 0.59999999999999998 0 1.5 #
attrib_edge_convexity-kcp-attrib $-1 -1 $710 $-1 $676 1 #
ellipse-curve $-1 -1 $-1 0 0 -12.5 0 0 -1 -0.59999999999999998 0 0 1 I I #
point $-1 -1 $-1 0.59999999999999998 0 -12.5 #
convexity-sys-attrib $-1 -1 $-1 $679 $652 #
convexity-sys-attrib $-1 -1 $-1 $683 $656 #
coedge $-1 -1 $-1 $687 $687 $688 $704 forward $662 $-1 #
edge $-1 -1 $-1 $691 0 $705 3.1415926535897931 $703 $711 forward @7 unknown #
vertex $-1 -1 $-1 $704 $712 #
straight-curve $-1 -1 $-1 -0.59999999999999998 7.3476381229342628e-017 1.5 0 0 1 I I #
ellipse-curve $-1 -1 $-1 0 0 1.7 0 0 1 -0.59999999999999998 0 0 1 I I #
point $-1 -1 $-1 0.59999999999999998 0 1.7 #
convexity-sys-attrib $-1 -1 $-1 $693 $669 #
convexity-sys-attrib $-1 -1 $-1 $698 $676 #
ellipse-curve $-1 -1 $-1 0 0 1.7 0 0 1 0.59999999999999998 0 0 1 I I #
point $-1 -1 $-1 -0.59999999999999998 0 1.7 #
End-of-ACIS-data 