700 0 2 0           
24 FBMach with ACIS - 7.0.3 13 ACIS 7.0.3 NT 24 Wed May 15 17:46:31 2002 
1 9.9999999999999995e-007 1e-010 
body $2 -1 $-1 $3 $-1 $4 #
bdycol-kcp $-1 -1 1 5 $5 $6 $7 $8 $9 #
model_id-kcp-attrib $-1 -1 $-1 $-1 $0 1 1021499190 1021499190 1876099073 1 #
lump $-1 -1 $-1 $-1 $10 $0 #
transform $-1 -1 1 0 0 0 1 0 0 0 1 0 0 0 1 rotate no_reflect no_shear #
body $11 -1 $-1 $12 $-1 $13 #
body $14 -1 $-1 $15 $-1 $16 #
body $17 -1 $-1 $18 $-1 $19 #
body $20 -1 $-1 $21 $-1 $22 #
body $23 -1 $-1 $24 $-1 $25 #
shell $-1 -1 $-1 $-1 $-1 $26 $-1 $3 #
rgb_color-st-attrib $-1 -1 $27 $-1 $5 1 0.5 1 #
lump $-1 -1 $-1 $-1 $28 $5 #
transform $-1 -1 1 0 0 0 1 0 0 0 1 0 0 -5.4000000000000004 1 no_rotate no_reflect no_shear #
rgb_color-st-attrib $-1 -1 $29 $-1 $6 0.5 1 1 #
lump $-1 -1 $-1 $-1 $30 $6 #
transform $-1 -1 1 0 0 0 1 0 0 0 1 0 0 -5.4000000000000004 1 no_rotate no_reflect no_shear #
rgb_color-st-attrib $-1 -1 $31 $-1 $7 1 0.5 1 #
lump $-1 -1 $-1 $-1 $32 $7 #
transform $-1 -1 1 0 0 0 1 0 0 0 1 0 0 -5.4000000000000004 1 no_rotate no_reflect no_shear #
rgb_color-st-attrib $-1 -1 $33 $-1 $8 1 0.5 1 #
lump $-1 -1 $-1 $-1 $34 $8 #
transform $-1 -1 1 0 0 0 1 0 0 0 1 0 0 -5.4000000000000004 1 no_rotate no_reflect no_shear #
model_id-kcp-attrib $-1 -1 $-1 $-1 $9 1 1021499190 1021499190 1876099074 1 #
lump $-1 -1 $-1 $-1 $35 $9 #
transform $-1 -1 1 0 0 0 1 0 0 0 1 0 0 -5.4000000000000004 1 no_rotate no_reflect no_shear #
face $36 -1 $-1 $37 $38 $10 $-1 $39 reversed single #
model_id-kcp-attrib $-1 -1 $-1 $11 $5 1 1021499190 1021499190 1862270980 1 #
shell $-1 -1 $-1 $-1 $-1 $40 $-1 $12 #
model_id-kcp-attrib $-1 -1 $-1 $14 $6 1 1021499190 1021499190 1866530819 1 #
shell $-1 -1 $-1 $-1 $-1 $41 $-1 $15 #
model_id-kcp-attrib $-1 -1 $-1 $17 $7 1 1021499190 1021499190 1868824581 1 #
shell $-1 -1 $-1 $-1 $-1 $42 $-1 $18 #
model_id-kcp-attrib $-1 -1 $-1 $20 $8 1 1021499190 1021499190 1874067462 1 #
shell $-1 -1 $-1 $-1 $-1 $43 $-1 $21 #
shell $-1 -1 $-1 $-1 $-1 $44 $-1 $24 #
model_id-kcp-attrib $-1 -1 $-1 $-1 $26 1 1021499190 1021499190 1876099073 2 #
face $45 -1 $-1 $46 $47 $10 $-1 $48 forward single #
loop $-1 -1 $-1 $49 $50 $26 #
plane-surface $-1 -1 $-1 0 0 0 0 0 -1 -1 0 0 forward_v I I I I #
face $-1 -1 $-1 $51 $52 $28 $-1 $53 forward single #
face $-1 -1 $-1 $54 $55 $30 $-1 $56 reversed single #
face $-1 -1 $-1 $57 $58 $32 $-1 $59 forward single #
face $-1 -1 $-1 $60 $61 $34 $-1 $62 forward single #
face $63 -1 $-1 $64 $65 $35 $-1 $66 forward single #
model_id-kcp-attrib $-1 -1 $-1 $-1 $37 1 1021499190 1021499190 1876099073 3 #
face $67 -1 $-1 $68 $69 $10 $-1 $70 forward single #
loop $-1 -1 $-1 $-1 $71 $37 #
torus-surface $-1 -1 $-1 0 0 -0.5 0 0 -1 4.5 0.5 -0.99999563951296311 0.0029531263196626561 0 forward_v I I I I #
loop $-1 -1 $-1 $-1 $72 $26 #
coedge $-1 -1 $-1 $73 $73 $74 $75 forward $38 $-1 #
face $-1 -1 $-1 $76 $77 $28 $-1 $78 forward single #
loop $-1 -1 $-1 $79 $80 $40 #
cone-surface $-1 -1 $-1 0 0 5.3999999999999986 0 0 1 2.5 0 0 1 I I 0 -1 2.5 forward I I I I #
face $-1 -1 $-1 $81 $82 $30 $-1 $56 reversed single #
loop $-1 -1 $-1 $-1 $83 $41 #
cone-surface $-1 -1 $-1 -2.2763286146721972e-031 0 -7.0999999999999996 0 0 -1 4.9999999999999991 6.1230317691118863e-016 0 1 I I 0 1 4.9999999999999991 forward I I I I #
face $-1 -1 $-1 $84 $85 $32 $-1 $86 forward single #
loop $-1 -1 $-1 $87 $88 $42 #
cone-surface $-1 -1 $-1 0 0 6.8999999999999986 0 0 1 0.59999999999999998 0 0 1 I I 0 -1 0.59999999999999998 forward I I I I #
face $-1 -1 $-1 $89 $90 $34 $-1 $91 forward single #
loop $-1 -1 $-1 $92 $93 $43 #
cone-surface $-1 -1 $-1 0 0 -3.6000000000000014 0 0 -1 -0.59999999999999998 0 0 1 I I 0 -1 0.59999999999999998 forward I I I I #
model_id-kcp-attrib $-1 -1 $-1 $-1 $44 1 1021499190 1021499190 1876099074 3 #
face $94 -1 $-1 $95 $96 $35 $-1 $97 reversed single #
loop $-1 -1 $-1 $-1 $98 $44 #
plane-surface $-1 -1 $-1 0 0 7.0999999999999996 0 0 1 1 0 0 forward_v I I I I #
model_id-kcp-attrib $-1 -1 $-1 $-1 $46 1 1021499190 1021499190 1876099073 4 #
face $99 -1 $-1 $100 $101 $10 $-1 $102 forward single #
loop $-1 -1 $-1 $-1 $103 $46 #
torus-surface $-1 -1 $-1 0 0 -0.5 0 0 -1 4.5 0.5 0.99999563951296311 -0.0029531263196623347 0 forward_v I I I I #
coedge $-1 -1 $-1 $104 $74 $105 $106 forward $47 $-1 #
coedge $-1 -1 $-1 $107 $107 $108 $109 reversed $49 $-1 #
coedge $-1 -1 $-1 $50 $50 $110 $111 forward $38 $-1 #
coedge $-1 -1 $-1 $71 $112 $50 $75 reversed $47 $-1 #
edge $113 -1 $-1 $114 3.8390972499789834e-014 $115 3.1415926535898002 $50 $116 forward @7 unknown #
face $-1 -1 $-1 $117 $118 $28 $-1 $119 forward single #
loop $-1 -1 $-1 $120 $121 $51 #
cone-surface $-1 -1 $-1 -2.2763286146721972e-031 0 5.3999999999999986 0 0 1 4.9999999999999991 6.1230317691118863e-016 0 1 I I 0 1 4.9999999999999991 forward I I I I #
loop $-1 -1 $-1 $-1 $122 $40 #
coedge $-1 -1 $-1 $80 $80 $123 $124 forward $52 $-1 #
face $-1 -1 $-1 $125 $126 $30 $-1 $56 reversed single #
loop $-1 -1 $-1 $-1 $127 $54 #
coedge $-1 -1 $-1 $128 $129 $130 $131 forward $55 $-1 #
face $-1 -1 $-1 $132 $133 $32 $-1 $134 forward single #
loop $-1 -1 $-1 $135 $136 $57 #
cone-surface $-1 -1 $-1 -2.2763286146721972e-031 0 6.8999999999999986 0 0 1 4.9999999999999991 6.1230317691118863e-016 0 1 I I 0 1 4.9999999999999991 forward I I I I #
loop $-1 -1 $-1 $-1 $137 $42 #
coedge $-1 -1 $-1 $88 $88 $138 $139 forward $58 $-1 #
face $-1 -1 $-1 $140 $141 $34 $-1 $142 reversed single #
loop $-1 -1 $-1 $143 $144 $60 #
cone-surface $-1 -1 $-1 -2.2763286146721972e-031 0 -3.6000000000000014 0 0 -1 4.9999999999999991 6.1230317691118863e-016 0 1 I I 0 1 4.9999999999999991 forward I I I I #
loop $-1 -1 $-1 $-1 $145 $43 #
coedge $-1 -1 $-1 $93 $93 $146 $147 forward $61 $-1 #
model_id-kcp-attrib $-1 -1 $-1 $-1 $64 1 1021499190 1021499190 1876099074 2 #
face $-1 -1 $-1 $148 $149 $35 $-1 $150 reversed single #
loop $-1 -1 $-1 $-1 $151 $64 #
plane-surface $-1 -1 $-1 0 0 -7.0999999999999996 0 0 1 1 0 0 forward_v I I I I #
coedge $-1 -1 $-1 $152 $153 $154 $155 forward $65 $-1 #
model_id-kcp-attrib $-1 -1 $-1 $-1 $68 1 1021499190 1021499190 1876099073 5 #
face $156 -1 $-1 $157 $158 $10 $-1 $159 forward single #
loop $-1 -1 $-1 $-1 $160 $68 #
cone-surface $-1 -1 $-1 0 0 0 0 0 -1 -5 0 0 1 I I 0 1 5 forward I I I I #
coedge $-1 -1 $-1 $161 $110 $112 $162 forward $69 $-1 #
coedge $-1 -1 $-1 $112 $71 $163 $164 forward $47 $-1 #
coedge $-1 -1 $-1 $110 $161 $71 $106 reversed $69 $-1 #
edge $-1 -1 $-1 $114 -2.5860816848189645e-024 $165 1.5707963267949274 $105 $166 forward @7 unknown #
coedge $-1 -1 $-1 $72 $72 $167 $168 reversed $49 $-1 #
coedge $-1 -1 $-1 $169 $170 $72 $109 forward $171 $-1 #
edge $172 -1 $-1 $173 0 $174 3.1415926535897931 $72 $175 forward @7 unknown #
coedge $-1 -1 $-1 $103 $105 $73 $111 reversed $69 $-1 #
edge $176 -1 $-1 $115 0 $114 3.1415926535898397 $73 $177 forward @7 unknown #
coedge $-1 -1 $-1 $74 $104 $103 $162 reversed $47 $-1 #
attrib_edge_convexity-kcp-attrib $-1 -1 $178 $-1 $75 3 #
vertex $-1 -1 $-1 $111 $179 #
vertex $-1 -1 $-1 $111 $180 #
ellipse-curve $-1 -1 $-1 4.4408920985006262e-016 -1.7319479184152442e-014 0 0 0 1 -4.4999999999999822 1.0414759332721924e-013 0 1 I I #
face $-1 -1 $-1 $-1 $181 $28 $-1 $182 reversed single #
loop $-1 -1 $-1 $183 $184 $76 #
plane-surface $-1 -1 $-1 -0.30303030303030282 -1.1102230246251565e-016 6.8999999999999986 2.52435489670724e-032 4.2072581611787304e-032 1 1 0 -2.52435489670724e-032 forward_v I I I I #
loop $-1 -1 $-1 $-1 $185 $51 #
coedge $-1 -1 $-1 $121 $121 $184 $186 forward $77 $-1 #
coedge $-1 -1 $-1 $122 $122 $187 $188 reversed $79 $-1 #
coedge $-1 -1 $-1 $123 $123 $80 $124 reversed $183 $-1 #
edge $-1 -1 $-1 $189 -3.1415926535897931 $189 3.1415926535897931 $80 $190 forward @7 unknown #
face $-1 -1 $-1 $191 $192 $30 $-1 $56 reversed single #
loop $-1 -1 $-1 $-1 $193 $81 #
coedge $-1 -1 $-1 $194 $130 $195 $196 reversed $82 $-1 #
coedge $-1 -1 $-1 $197 $83 $198 $199 reversed $55 $-1 #
coedge $-1 -1 $-1 $83 $197 $200 $201 reversed $55 $-1 #
coedge $-1 -1 $-1 $127 $202 $203 $131 reversed $82 $-1 #
edge $-1 -1 $-1 $204 -14.199999999999999 $205 0 $203 $206 forward @7 unknown #
face $-1 -1 $-1 $-1 $207 $32 $-1 $208 reversed single #
loop $-1 -1 $-1 $209 $210 $84 #
plane-surface $-1 -1 $-1 -0.40584415584415573 -1.3877787807814457e-016 7.0999999999999988 2.4536886632068806e-032 9.9681101942779509e-033 1 1 0 -2.4536886632068806e-032 forward_v I I I I #
loop $-1 -1 $-1 $-1 $211 $57 #
coedge $-1 -1 $-1 $136 $136 $210 $212 forward $85 $-1 #
coedge $-1 -1 $-1 $137 $137 $213 $214 reversed $87 $-1 #
coedge $-1 -1 $-1 $138 $138 $88 $139 reversed $209 $-1 #
edge $-1 -1 $-1 $215 -3.1415926535897931 $215 3.1415926535897931 $88 $216 forward @7 unknown #
face $-1 -1 $-1 $-1 $217 $34 $-1 $218 forward single #
loop $-1 -1 $-1 $219 $220 $89 #
plane-surface $-1 -1 $-1 -0.40584415584415584 -1.8388068845354155e-016 -7.1000000000000023 4.1405996191616108e-032 -4.6006662435129015e-033 1 1 0 -4.1405996191616108e-032 forward_v I I I I #
loop $-1 -1 $-1 $-1 $221 $60 #
coedge $-1 -1 $-1 $144 $144 $220 $222 forward $90 $-1 #
coedge $-1 -1 $-1 $145 $145 $223 $224 reversed $92 $-1 #
coedge $-1 -1 $-1 $146 $146 $93 $147 reversed $219 $-1 #
edge $-1 -1 $-1 $225 -3.1415926535897931 $225 3.1415926535897931 $93 $226 forward @7 unknown #
face $-1 -1 $-1 $227 $228 $35 $-1 $229 reversed single #
loop $-1 -1 $-1 $-1 $230 $95 #
plane-surface $-1 -1 $-1 0 -4.9999999999999991 0 0 1 0 0 0 1 forward_v I I I I #
coedge $-1 -1 $-1 $231 $232 $233 $234 forward $96 $-1 #
coedge $-1 -1 $-1 $235 $98 $236 $237 forward $65 $-1 #
coedge $-1 -1 $-1 $98 $235 $238 $239 forward $65 $-1 #
coedge $-1 -1 $-1 $240 $241 $98 $155 reversed $242 $-1 #
edge $-1 -1 $-1 $243 -4.9999999999999991 $244 4.9999999999999991 $154 $245 forward @7 unknown #
model_id-kcp-attrib $-1 -1 $-1 $-1 $100 1 1021499190 1021499190 1876099073 6 #
face $246 -1 $-1 $247 $248 $10 $-1 $249 forward single #
loop $-1 -1 $-1 $-1 $250 $100 #
cone-surface $-1 -1 $-1 0 0 0 0 0 -1 -5 0 0 1 I I 0 1 5 forward I I I I #
coedge $-1 -1 $-1 $251 $252 $253 $254 reversed $101 $-1 #
coedge $-1 -1 $-1 $105 $103 $251 $255 forward $69 $-1 #
edge $-1 -1 $-1 $115 0 $256 1.5707963267949283 $103 $257 forward @7 unknown #
coedge $-1 -1 $-1 $253 $250 $104 $164 reversed $158 $-1 #
edge $-1 -1 $-1 $165 1.6242331553802578e-012 $256 3.1415926535914172 $163 $258 forward @7 unknown #
vertex $-1 -1 $-1 $255 $259 #
ellipse-curve $-1 -1 $-1 -4.4999999999999982 4.3788467072640459e-012 -0.50000000000000067 -7.4846381392744838e-012 -1 -8.5840371862417071e-012 1.5987211554602254e-014 -4.2920185931209787e-012 0.50000000000000067 1 I I #
coedge $-1 -1 $-1 $260 $261 $107 $168 forward $262 $-1 #
edge $263 -1 $-1 $174 0 $173 3.1415926535897931 $107 $264 forward @7 unknown #
coedge $-1 -1 $-1 $265 $108 $261 $266 forward $171 $-1 #
coedge $-1 -1 $-1 $108 $265 $260 $267 reversed $171 $-1 #
loop $-1 -1 $-1 $-1 $169 $268 #
attrib_edge_convexity-kcp-attrib $-1 -1 $269 $-1 $109 2 #
vertex $-1 -1 $-1 $168 $270 #
vertex $-1 -1 $-1 $168 $271 #
ellipse-curve $-1 -1 $-1 0 0 0 0 0 1 -2.5 0 0 1 I I #
attrib_edge_convexity-kcp-attrib $-1 -1 $272 $-1 $111 3 #
ellipse-curve $-1 -1 $-1 0 1.7541523789077473e-014 0 0 0 1 4.4999999999999822 -1.0691968144183016e-013 0 1 I I #
convexity-sys-attrib $-1 -1 $-1 $113 $75 #
point $-1 -1 $-1 -4.4999999999999822 -8.5931262105986775e-014 0 #
point $-1 -1 $-1 4.4999999999999822 -8.9378157652752691e-014 0 #
loop $-1 -1 $-1 $273 $274 $117 #
plane-surface $-1 -1 $-1 -0.30303030303030282 -1.1102230246251565e-016 5.3999999999999986 2.52435489670724e-032 4.2072581611787304e-032 1 1 0 -2.52435489670724e-032 forward_v I I I I #
loop $-1 -1 $-1 $-1 $123 $76 #
coedge $-1 -1 $-1 $184 $184 $121 $186 reversed $118 $-1 #
coedge $-1 -1 $-1 $185 $185 $274 $275 reversed $120 $-1 #
edge $-1 -1 $-1 $276 -3.1415926535897931 $276 3.1415926535897931 $121 $277 forward @7 unknown #
coedge $-1 -1 $-1 $187 $187 $122 $188 forward $273 $-1 #
edge $278 -1 $-1 $279 0 $279 6.2831853071795862 $122 $280 forward @7 unknown #
vertex $-1 -1 $-1 $124 $281 #
ellipse-curve $-1 -1 $-1 0 0 6.8999999999999986 0 0 1 2.5 0 0 1 I I #
face $-1 -1 $-1 $282 $283 $30 $-1 $284 reversed single #
loop $-1 -1 $-1 $-1 $285 $125 #
coedge $-1 -1 $-1 $286 $287 $288 $289 reversed $126 $-1 #
coedge $-1 -1 $-1 $202 $127 $290 $291 forward $82 $-1 #
coedge $-1 -1 $-1 $292 $293 $127 $196 forward $294 $-1 #
edge $-1 -1 $-1 $295 -3.1415926535897931 $204 -1.5707963267948966 $195 $296 forward @7 unknown #
coedge $-1 -1 $-1 $129 $128 $297 $298 reversed $55 $-1 #
coedge $-1 -1 $-1 $299 $300 $128 $199 forward $301 $-1 #
edge $-1 -1 $-1 $302 -1.2246063538223775e-016 $205 1.5707963267948966 $198 $303 forward @7 unknown #
coedge $-1 -1 $-1 $304 $305 $129 $201 forward $306 $-1 #
edge $-1 -1 $-1 $204 -1.5707963267948966 $307 1.2246063538223775e-016 $200 $296 forward @7 unknown #
coedge $-1 -1 $-1 $130 $194 $308 $309 reversed $82 $-1 #
coedge $-1 -1 $-1 $310 $311 $312 $131 forward $313 $-1 #
vertex $-1 -1 $-1 $314 $315 #
vertex $-1 -1 $-1 $316 $317 #
straight-curve $-1 -1 $-1 -2.2763286146721972e-031 4.9999999999999991 -7.0999999999999996 0 0 -1 I I #
loop $-1 -1 $-1 $318 $319 $132 #
plane-surface $-1 -1 $-1 -0.40584415584415573 -1.3877787807814457e-016 6.8999999999999986 2.4536886632068806e-032 9.9681101942779509e-033 1 1 0 -2.4536886632068806e-032 forward_v I I I I #
loop $-1 -1 $-1 $-1 $138 $84 #
coedge $-1 -1 $-1 $210 $210 $136 $212 reversed $133 $-1 #
coedge $-1 -1 $-1 $211 $211 $319 $320 reversed $135 $-1 #
edge $-1 -1 $-1 $321 -3.1415926535897931 $321 3.1415926535897931 $136 $322 forward @7 unknown #
coedge $-1 -1 $-1 $213 $213 $137 $214 forward $318 $-1 #
edge $323 -1 $-1 $324 0 $324 6.2831853071795862 $137 $325 forward @7 unknown #
vertex $-1 -1 $-1 $139 $326 #
ellipse-curve $-1 -1 $-1 0 0 7.0999999999999988 0 0 1 0.59999999999999998 0 0 1 I I #
loop $-1 -1 $-1 $327 $328 $140 #
plane-surface $-1 -1 $-1 -0.40584415584415584 -1.8388068845354155e-016 -3.6000000000000023 4.1405996191616108e-032 -4.6006662435129015e-033 1 1 0 -4.1405996191616108e-032 forward_v I I I I #
loop $-1 -1 $-1 $-1 $146 $89 #
coedge $-1 -1 $-1 $220 $220 $144 $222 reversed $141 $-1 #
coedge $-1 -1 $-1 $221 $221 $328 $329 reversed $143 $-1 #
edge $-1 -1 $-1 $330 -3.1415926535897931 $330 3.1415926535897931 $144 $331 forward @7 unknown #
coedge $-1 -1 $-1 $223 $223 $145 $224 forward $327 $-1 #
edge $332 -1 $-1 $333 0 $333 6.2831853071795862 $145 $334 forward @7 unknown #
vertex $-1 -1 $-1 $147 $335 #
ellipse-curve $-1 -1 $-1 0 0 -7.1000000000000014 0 0 -1 -0.59999999999999998 0 0 1 I I #
face $-1 -1 $-1 $336 $337 $35 $-1 $338 reversed single #
loop $-1 -1 $-1 $-1 $339 $148 #
plane-surface $-1 -1 $-1 -5 0 0 1 0 0 0 0 -1 forward_v I I I I #
coedge $-1 -1 $-1 $340 $238 $341 $342 forward $149 $-1 #
coedge $-1 -1 $-1 $343 $151 $340 $344 forward $96 $-1 #
coedge $-1 -1 $-1 $151 $343 $345 $346 forward $96 $-1 #
coedge $-1 -1 $-1 $241 $240 $151 $234 reversed $242 $-1 #
edge $-1 -1 $-1 $347 -4.9999999999999991 $348 4.9999999999999991 $233 $349 forward @7 unknown #
coedge $-1 -1 $-1 $153 $152 $350 $351 forward $65 $-1 #
coedge $-1 -1 $-1 $352 $353 $152 $237 reversed $337 $-1 #
edge $-1 -1 $-1 $244 -5 $354 5 $236 $355 forward @7 unknown #
coedge $-1 -1 $-1 $230 $356 $153 $239 reversed $149 $-1 #
edge $-1 -1 $-1 $357 -5 $243 5 $238 $358 forward @7 unknown #
coedge $-1 -1 $-1 $233 $154 $356 $359 forward $242 $-1 #
coedge $-1 -1 $-1 $154 $233 $352 $360 reversed $242 $-1 #
loop $-1 -1 $-1 $-1 $240 $336 #
vertex $-1 -1 $-1 $155 $361 #
vertex $-1 -1 $-1 $155 $362 #
straight-curve $-1 -1 $-1 5 0 7.0999999999999996 0 1 0 I I #
model_id-kcp-attrib $-1 -1 $-1 $-1 $157 1 1021499190 1021499190 1876099073 7 #
face $363 -1 $-1 $364 $365 $10 $-1 $366 forward single #
loop $-1 -1 $-1 $-1 $367 $157 #
torus-surface $-1 -1 $-1 0 0 -8.5 0 0 -1 4.5 0.5 0.99999563951296311 0.0029531263196625798 0 forward_v I I I I #
coedge $-1 -1 $-1 $163 $368 $369 $370 reversed $158 $-1 #
coedge $-1 -1 $-1 $369 $160 $161 $255 reversed $101 $-1 #
coedge $-1 -1 $-1 $160 $369 $371 $372 reversed $101 $-1 #
coedge $-1 -1 $-1 $368 $163 $160 $254 forward $158 $-1 #
edge $-1 -1 $-1 $165 0 $373 8 $160 $374 forward @7 unknown #
edge $-1 -1 $-1 $256 1.6249222923511261e-012 $165 3.1415926535914176 $251 $375 forward @7 unknown #
vertex $-1 -1 $-1 $370 $376 #
ellipse-curve $-1 -1 $-1 4.4999999999999982 -4.3906431167168986e-012 -0.50000000000000022 7.4667120837236347e-012 1 -8.6025299181280473e-012 -1.5987211554602254e-014 4.3012649590641456e-012 0.50000000000000022 1 I I #
ellipse-curve $-1 -1 $-1 0 0 -0.5 0 0 1 -4.9999999999999991 8.1211657769012878e-012 0 1 I I #
point $-1 -1 $-1 -5 0 -0.5 #
coedge $-1 -1 $-1 $377 $167 $170 $267 forward $262 $-1 #
coedge $-1 -1 $-1 $167 $377 $169 $266 reversed $262 $-1 #
loop $-1 -1 $-1 $-1 $260 $378 #
attrib_edge_convexity-kcp-attrib $-1 -1 $379 $-1 $168 2 #
ellipse-curve $-1 -1 $-1 0 0 0 0 0 1 2.5 0 0 1 I I #
coedge $-1 -1 $-1 $170 $169 $380 $381 reversed $171 $-1 #
edge $-1 -1 $-1 $174 0 $382 1.5 $261 $383 forward @7 unknown #
edge $-1 -1 $-1 $173 0 $384 1.5 $260 $385 forward @7 unknown #
face $386 -1 $-1 $378 $171 $10 $-1 $387 forward single #
convexity-sys-attrib $-1 -1 $-1 $172 $109 #
point $-1 -1 $-1 -2.5 0 0 #
point $-1 -1 $-1 2.5 0 0 #
convexity-sys-attrib $-1 -1 $-1 $176 $111 #
loop $-1 -1 $-1 $-1 $187 $117 #
coedge $-1 -1 $-1 $274 $274 $185 $275 forward $181 $-1 #
edge $388 -1 $-1 $389 -3.1415926535897931 $389 3.1415926535897931 $185 $390 forward @7 unknown #
vertex $-1 -1 $-1 $186 $391 #
ellipse-curve $-1 -1 $-1 -2.2763286146721972e-031 0 6.8999999999999986 0 0 -1 4.9999999999999991 6.1230317691118863e-016 0 1 I I #
convexity-sys-attrib $-1 -1 $-1 $-1 $188 #
vertex $-1 -1 $-1 $188 $392 #
ellipse-curve $-1 -1 $-1 0 0 5.3999999999999986 0 0 1 2.5 0 0 1 I I #
point $-1 -1 $-1 -2.5 0 6.9000000000000004 #
face $-1 -1 $-1 $393 $313 $30 $-1 $394 reversed single #
loop $-1 -1 $-1 $-1 $297 $191 #
plane-surface $-1 -1 $-1 5 0 0 -1 0 0 0 0 1 forward_v I I I I #
coedge $-1 -1 $-1 $290 $395 $396 $397 reversed $192 $-1 #
coedge $-1 -1 $-1 $398 $193 $399 $400 reversed $126 $-1 #
coedge $-1 -1 $-1 $193 $398 $197 $298 forward $126 $-1 #
coedge $-1 -1 $-1 $401 $402 $193 $289 forward $403 $-1 #
edge $-1 -1 $-1 $404 -1.5707963267948968 $302 -1.2246063538223775e-016 $288 $303 forward @7 unknown #
coedge $-1 -1 $-1 $405 $285 $406 $291 reversed $192 $-1 #
edge $-1 -1 $-1 $295 -14.199999999999999 $407 0 $406 $408 forward @7 unknown #
coedge $-1 -1 $-1 $293 $195 $311 $314 forward $294 $-1 #
coedge $-1 -1 $-1 $195 $292 $409 $410 forward $294 $-1 #
loop $-1 -1 $-1 $-1 $195 $411 #
vertex $-1 -1 $-1 $412 $413 #
ellipse-curve $-1 -1 $-1 -2.2763286146721972e-031 0 7.0999999999999996 0 0 -1 4.9999999999999991 6.1230317691118863e-016 0 1 I I #
coedge $-1 -1 $-1 $414 $415 $416 $298 forward $283 $-1 #
edge $-1 -1 $-1 $307 -14.199999999999999 $302 0 $297 $417 forward @7 unknown #
coedge $-1 -1 $-1 $300 $198 $418 $316 forward $301 $-1 #
coedge $-1 -1 $-1 $198 $299 $414 $419 forward $301 $-1 #
loop $-1 -1 $-1 $-1 $198 $420 #
vertex $-1 -1 $-1 $421 $422 #
ellipse-curve $-1 -1 $-1 -2.2763286146721972e-031 0 -7.0999999999999996 0 0 1 4.9999999999999991 6.1230317691118863e-016 0 1 I I #
coedge $-1 -1 $-1 $305 $200 $415 $423 forward $306 $-1 #
coedge $-1 -1 $-1 $200 $304 $424 $425 forward $306 $-1 #
loop $-1 -1 $-1 $-1 $200 $426 #
vertex $-1 -1 $-1 $423 $427 #
coedge $-1 -1 $-1 $428 $429 $202 $309 forward $430 $-1 #
edge $-1 -1 $-1 $205 1.5707963267948966 $407 3.1415926535897931 $308 $303 forward @7 unknown #
coedge $-1 -1 $-1 $431 $203 $429 $432 reversed $313 $-1 #
coedge $-1 -1 $-1 $203 $431 $292 $314 reversed $313 $-1 #
coedge $-1 -1 $-1 $424 $418 $83 $131 reversed $433 $-1 #
loop $-1 -1 $-1 $-1 $203 $282 #
edge $-1 -1 $-1 $204 2.2763286146721972e-031 $434 5 $311 $435 forward @7 unknown #
point $-1 -1 $-1 -2.2763286146721972e-031 4.9999999999999991 7.0999999999999996 #
edge $-1 -1 $-1 $205 -2.2763286146721972e-031 $436 5 $418 $437 forward @7 unknown #
point $-1 -1 $-1 -2.2763286146721972e-031 4.9999999999999991 -7.0999999999999996 #
loop $-1 -1 $-1 $-1 $213 $132 #
coedge $-1 -1 $-1 $319 $319 $211 $320 forward $207 $-1 #
edge $438 -1 $-1 $439 -3.1415926535897931 $439 3.1415926535897931 $211 $440 forward @7 unknown #
vertex $-1 -1 $-1 $212 $441 #
ellipse-curve $-1 -1 $-1 -2.2763286146721972e-031 0 7.0999999999999988 0 0 -1 4.9999999999999991 6.1230317691118863e-016 0 1 I I #
convexity-sys-attrib $-1 -1 $-1 $-1 $214 #
vertex $-1 -1 $-1 $214 $442 #
ellipse-curve $-1 -1 $-1 0 0 6.8999999999999986 0 0 1 0.59999999999999998 0 0 1 I I #
point $-1 -1 $-1 -0.59999999999999964 0 7.1000000000000005 #
loop $-1 -1 $-1 $-1 $223 $140 #
coedge $-1 -1 $-1 $328 $328 $221 $329 forward $217 $-1 #
edge $443 -1 $-1 $444 -3.1415926535897931 $444 3.1415926535897931 $221 $445 forward @7 unknown #
vertex $-1 -1 $-1 $222 $446 #
ellipse-curve $-1 -1 $-1 -2.2763286146721972e-031 0 -7.1000000000000014 0 0 1 4.9999999999999991 6.1230317691118863e-016 0 1 I I #
convexity-sys-attrib $-1 -1 $-1 $-1 $224 #
vertex $-1 -1 $-1 $224 $447 #
ellipse-curve $-1 -1 $-1 0 0 -3.6000000000000014 0 0 -1 -0.59999999999999998 0 0 1 I I #
point $-1 -1 $-1 0.59999999999999964 0 -7.0999999999999996 #
face $-1 -1 $-1 $-1 $242 $35 $-1 $448 reversed single #
loop $-1 -1 $-1 $-1 $352 $227 #
plane-surface $-1 -1 $-1 0 4.9999999999999991 0 0 -1 0 0 0 -1 forward_v I I I I #
coedge $-1 -1 $-1 $449 $350 $353 $450 forward $228 $-1 #
coedge $-1 -1 $-1 $356 $230 $231 $344 reversed $149 $-1 #
coedge $-1 -1 $-1 $350 $449 $230 $342 reversed $228 $-1 #
edge $-1 -1 $-1 $357 -7.0999999999999996 $451 7.0999999999999996 $341 $452 forward @7 unknown #
coedge $-1 -1 $-1 $232 $231 $449 $453 forward $96 $-1 #
edge $-1 -1 $-1 $348 -5 $451 5 $340 $454 forward @7 unknown #
coedge $-1 -1 $-1 $353 $352 $232 $346 reversed $337 $-1 #
edge $-1 -1 $-1 $455 -5 $347 5 $345 $456 forward @7 unknown #
vertex $-1 -1 $-1 $234 $457 #
vertex $-1 -1 $-1 $359 $458 #
straight-curve $-1 -1 $-1 5 0 -7.0999999999999996 0 -1 0 I I #
coedge $-1 -1 $-1 $339 $341 $235 $351 reversed $228 $-1 #
edge $-1 -1 $-1 $354 -4.9999999999999991 $357 4.9999999999999991 $350 $459 forward @7 unknown #
coedge $-1 -1 $-1 $345 $236 $241 $360 forward $337 $-1 #
coedge $-1 -1 $-1 $236 $345 $339 $450 reversed $337 $-1 #
vertex $-1 -1 $-1 $237 $460 #
straight-curve $-1 -1 $-1 0 4.9999999999999991 7.0999999999999996 -1 0 0 I I #
coedge $-1 -1 $-1 $238 $340 $240 $359 reversed $149 $-1 #
vertex $-1 -1 $-1 $351 $461 #
straight-curve $-1 -1 $-1 0 -4.9999999999999991 7.0999999999999996 1 0 0 I I #
edge $-1 -1 $-1 $243 -7.0999999999999996 $348 7.0999999999999996 $240 $462 forward @7 unknown #
edge $-1 -1 $-1 $244 -7.0999999999999996 $347 7.0999999999999996 $241 $463 forward @7 unknown #
point $-1 -1 $-1 5 -4.9999999999999991 7.0999999999999996 #
point $-1 -1 $-1 5 4.9999999999999991 7.0999999999999996 #
model_id-kcp-attrib $-1 -1 $-1 $-1 $247 1 1021499190 1021499190 1876099073 8 #
face $464 -1 $-1 $465 $466 $10 $-1 $467 forward single #
loop $-1 -1 $-1 $-1 $468 $247 #
torus-surface $-1 -1 $-1 0 0 -8.5 0 0 -1 4.5 0.5 -0.99999563951296311 -0.0029531263196625949 0 forward_v I I I I #
coedge $-1 -1 $-1 $469 $470 $471 $472 forward $248 $-1 #
coedge $-1 -1 $-1 $250 $253 $469 $473 reversed $158 $-1 #
coedge $-1 -1 $-1 $252 $251 $250 $370 forward $101 $-1 #
edge $-1 -1 $-1 $256 0 $474 8 $369 $475 forward @7 unknown #
coedge $-1 -1 $-1 $471 $468 $252 $372 forward $365 $-1 #
edge $-1 -1 $-1 $373 0 $474 3.1415926535897993 $252 $476 forward @7 unknown #
vertex $-1 -1 $-1 $372 $477 #
straight-curve $-1 -1 $-1 -5 0 -0.5 0 0 -1 I I #
ellipse-curve $-1 -1 $-1 0 0 -0.5 0 0 1 4.9999999999999991 -8.1239991585787176e-012 0 1 I I #
point $-1 -1 $-1 5 6.1230317691118863e-016 -0.5 #
coedge $-1 -1 $-1 $261 $260 $478 $479 reversed $262 $-1 #
face $480 -1 $-1 $481 $262 $10 $-1 $482 forward single #
convexity-sys-attrib $-1 -1 $-1 $263 $168 #
coedge $-1 -1 $-1 $478 $478 $265 $381 forward $483 $-1 #
edge $484 -1 $-1 $384 0 $382 3.1415926535897931 $380 $485 forward @7 unknown #
vertex $-1 -1 $-1 $479 $486 #
straight-curve $-1 -1 $-1 2.5 0 0 0 0 1 I I #
vertex $-1 -1 $-1 $479 $487 #
straight-curve $-1 -1 $-1 -2.5 3.0615158845559431e-016 0 0 0 1 I I #
model_id-kcp-attrib $-1 -1 $-1 $-1 $268 1 1021499190 1021499190 1876099073 13 #
cone-surface $-1 -1 $-1 0 0 0 0 0 1 2.5 0 0 1 I I 0 1 2.5 forward I I I I #
convexity-sys-attrib $-1 -1 $-1 $-1 $275 #
vertex $-1 -1 $-1 $275 $488 #
ellipse-curve $-1 -1 $-1 -2.2763286146721972e-031 0 5.3999999999999986 0 0 -1 4.9999999999999991 6.1230317691118863e-016 0 1 I I #
point $-1 -1 $-1 -4.9999999999999991 -9.8607613152626476e-032 6.8999999999999986 #
point $-1 -1 $-1 2.5 0 5.4000000000000004 #
face $-1 -1 $-1 $489 $490 $30 $-1 $491 reversed single #
plane-surface $-1 -1 $-1 0 4.9999999999999991 0 0 -1 0 0 0 -1 forward_v I I I I #
coedge $-1 -1 $-1 $285 $405 $286 $400 forward $192 $-1 #
coedge $-1 -1 $-1 $492 $493 $285 $397 forward $494 $-1 #
edge $-1 -1 $-1 $407 -3.1415926535897931 $404 -1.5707963267948968 $396 $303 forward @7 unknown #
coedge $-1 -1 $-1 $287 $286 $495 $496 reversed $126 $-1 #
coedge $-1 -1 $-1 $497 $498 $499 $400 forward $500 $-1 #
edge $-1 -1 $-1 $501 -14.199999999999999 $404 0 $399 $502 forward @7 unknown #
coedge $-1 -1 $-1 $402 $288 $503 $421 forward $403 $-1 #
coedge $-1 -1 $-1 $288 $401 $497 $504 forward $403 $-1 #
loop $-1 -1 $-1 $-1 $288 $505 #
vertex $-1 -1 $-1 $506 $507 #
coedge $-1 -1 $-1 $395 $290 $508 $509 reversed $192 $-1 #
coedge $-1 -1 $-1 $510 $511 $512 $291 forward $490 $-1 #
vertex $-1 -1 $-1 $513 $514 #
straight-curve $-1 -1 $-1 -5 0 -7.0999999999999996 0 0 -1 I I #
coedge $-1 -1 $-1 $515 $512 $293 $410 reversed $516 $-1 #
edge $-1 -1 $-1 $434 -4.9999999999999991 $295 0 $409 $517 forward @7 unknown #
face $-1 -1 $-1 $426 $294 $30 $-1 $518 forward single #
edge $-1 -1 $-1 $295 0 $519 4.9999999999999991 $511 $517 forward @7 unknown #
point $-1 -1 $-1 -5 0 7.0999999999999996 #
coedge $-1 -1 $-1 $520 $297 $300 $419 reversed $283 $-1 #
coedge $-1 -1 $-1 $297 $520 $304 $423 reversed $283 $-1 #
coedge $-1 -1 $-1 $521 $503 $287 $298 reversed $522 $-1 #
straight-curve $-1 -1 $-1 5 0 -7.0999999999999996 0 0 -1 I I #
coedge $-1 -1 $-1 $312 $523 $299 $316 reversed $433 $-1 #
edge $-1 -1 $-1 $436 -4.9999999999999991 $302 0 $414 $524 forward @7 unknown #
face $-1 -1 $-1 $525 $301 $30 $-1 $526 reversed single #
edge $-1 -1 $-1 $302 0 $527 4.9999999999999991 $503 $524 forward @7 unknown #
point $-1 -1 $-1 5 0 -7.0999999999999996 #
edge $-1 -1 $-1 $307 0 $528 4.9999999999999991 $415 $529 forward @7 unknown #
coedge $-1 -1 $-1 $523 $312 $305 $425 reversed $433 $-1 #
edge $-1 -1 $-1 $528 -5 $204 2.2763286146721972e-031 $424 $435 forward @7 unknown #
face $-1 -1 $-1 $530 $306 $30 $-1 $518 forward single #
point $-1 -1 $-1 5 0 7.0999999999999996 #
coedge $-1 -1 $-1 $429 $308 $531 $513 forward $430 $-1 #
coedge $-1 -1 $-1 $308 $428 $310 $432 forward $430 $-1 #
loop $-1 -1 $-1 $-1 $308 $525 #
coedge $-1 -1 $-1 $311 $310 $515 $532 reversed $313 $-1 #
edge $-1 -1 $-1 $533 -5 $205 -2.2763286146721972e-031 $310 $437 forward @7 unknown #
loop $-1 -1 $-1 $-1 $312 $534 #
vertex $-1 -1 $-1 $314 $535 #
straight-curve $-1 -1 $-1 0 4.9999999999999991 7.0999999999999996 -1 0 0 I I #
vertex $-1 -1 $-1 $419 $536 #
straight-curve $-1 -1 $-1 0 4.9999999999999991 -7.0999999999999996 1 0 0 I I #
convexity-sys-attrib $-1 -1 $-1 $-1 $320 #
vertex $-1 -1 $-1 $320 $537 #
ellipse-curve $-1 -1 $-1 -2.2763286146721972e-031 0 6.8999999999999986 0 0 -1 4.9999999999999991 6.1230317691118863e-016 0 1 I I #
point $-1 -1 $-1 -4.9999999999999991 -9.8607613152626476e-032 7.0999999999999988 #
point $-1 -1 $-1 0.59999999999999998 0 6.9000000000000004 #
convexity-sys-attrib $-1 -1 $-1 $-1 $329 #
vertex $-1 -1 $-1 $329 $538 #
ellipse-curve $-1 -1 $-1 -2.2763286146721972e-031 0 -3.6000000000000014 0 0 1 4.9999999999999991 6.1230317691118863e-016 0 1 I I #
point $-1 -1 $-1 -4.9999999999999991 -1.2246063538223773e-015 -7.1000000000000014 #
point $-1 -1 $-1 -0.59999999999999998 0 -3.5999999999999996 #
plane-surface $-1 -1 $-1 5 0 0 -1 0 0 0 0 1 forward_v I I I I #
coedge $-1 -1 $-1 $341 $339 $343 $453 reversed $228 $-1 #
edge $-1 -1 $-1 $354 -7.0999999999999996 $455 7.0999999999999996 $353 $539 forward @7 unknown #
vertex $-1 -1 $-1 $453 $540 #
straight-curve $-1 -1 $-1 -5 -4.9999999999999991 0 0 0 -1 I I #
edge $-1 -1 $-1 $451 -4.9999999999999991 $455 4.9999999999999991 $449 $541 forward @7 unknown #
straight-curve $-1 -1 $-1 0 -4.9999999999999991 -7.0999999999999996 -1 0 0 I I #
vertex $-1 -1 $-1 $346 $542 #
straight-curve $-1 -1 $-1 0 4.9999999999999991 -7.0999999999999996 1 0 0 I I #
point $-1 -1 $-1 5 4.9999999999999991 -7.0999999999999996 #
point $-1 -1 $-1 5 -4.9999999999999991 -7.0999999999999996 #
straight-curve $-1 -1 $-1 -5 0 7.0999999999999996 0 -1 0 I I #
point $-1 -1 $-1 -5 4.9999999999999991 7.0999999999999996 #
point $-1 -1 $-1 -5 -4.9999999999999991 7.0999999999999996 #
straight-curve $-1 -1 $-1 5 -4.9999999999999991 0 0 0 -1 I I #
straight-curve $-1 -1 $-1 5 4.9999999999999991 0 0 0 -1 I I #
model_id-kcp-attrib $-1 -1 $-1 $-1 $364 1 1021499190 1021499190 1876099073 9 #
face $543 -1 $-1 $544 $545 $10 $-1 $546 forward single #
loop $-1 -1 $-1 $547 $548 $364 #
plane-surface $-1 -1 $-1 0 0 -9 0 0 -1 -1 0 0 forward_v I I I I #
coedge $-1 -1 $-1 $371 $549 $550 $551 forward $365 $-1 #
coedge $-1 -1 $-1 $550 $367 $368 $473 forward $248 $-1 #
coedge $-1 -1 $-1 $367 $550 $548 $552 reversed $248 $-1 #
coedge $-1 -1 $-1 $549 $371 $367 $472 reversed $365 $-1 #
edge $-1 -1 $-1 $553 -3.5527136814254198e-015 $474 1.5707963267949341 $471 $554 forward @7 unknown #
edge $-1 -1 $-1 $474 6.5233312578843981e-015 $373 3.1415926535897931 $368 $555 forward @7 unknown #
vertex $-1 -1 $-1 $372 $556 #
straight-curve $-1 -1 $-1 5 6.1230317691118863e-016 -0.5 0 2.7755575615628914e-016 -1 I I #
ellipse-curve $-1 -1 $-1 0 0 -8.5 0 0 -1 -4.9999999999999991 -8.1253002011857002e-012 0 1 I I #
point $-1 -1 $-1 -4.9999999999999991 -8.1253002011857002e-012 -8.5 #
coedge $-1 -1 $-1 $380 $380 $377 $479 forward $483 $-1 #
edge $557 -1 $-1 $382 0 $384 3.1415926535897931 $478 $558 forward @7 unknown #
model_id-kcp-attrib $-1 -1 $-1 $-1 $378 1 1021499190 1021499190 1876099073 14 #
face $559 -1 $-1 $560 $483 $10 $-1 $561 forward single #
cone-surface $-1 -1 $-1 0 0 0 0 0 1 2.5 0 0 1 I I 0 1 2.5 forward I I I I #
loop $-1 -1 $-1 $562 $380 $481 #
attrib_edge_convexity-kcp-attrib $-1 -1 $563 $-1 $381 1 #
ellipse-curve $-1 -1 $-1 0 0 1.5 0 0 1 -2.5 0 0 1 I I #
point $-1 -1 $-1 2.5 0 1.5 #
point $-1 -1 $-1 -2.5 0 1.5 #
point $-1 -1 $-1 -4.9999999999999991 -9.8607613152626476e-032 5.3999999999999986 #
face $-1 -1 $-1 $411 $564 $30 $-1 $518 forward single #
loop $-1 -1 $-1 $-1 $406 $393 #
plane-surface $-1 -1 $-1 -5 0 0 1 0 0 0 0 -1 forward_v I I I I #
coedge $-1 -1 $-1 $493 $396 $565 $506 forward $494 $-1 #
coedge $-1 -1 $-1 $396 $492 $510 $566 forward $494 $-1 #
loop $-1 -1 $-1 $-1 $396 $567 #
coedge $-1 -1 $-1 $568 $569 $398 $496 forward $570 $-1 #
edge $-1 -1 $-1 $307 1.2246063538223775e-016 $501 1.5707963267948968 $495 $296 forward @7 unknown #
coedge $-1 -1 $-1 $571 $399 $402 $504 reversed $500 $-1 #
coedge $-1 -1 $-1 $399 $571 $568 $572 reversed $500 $-1 #
coedge $-1 -1 $-1 $573 $565 $395 $400 reversed $574 $-1 #
loop $-1 -1 $-1 $-1 $399 $575 #
vertex $-1 -1 $-1 $572 $576 #
straight-curve $-1 -1 $-1 -2.2763286146721972e-031 -4.9999999999999991 -7.0999999999999996 0 0 -1 I I #
coedge $-1 -1 $-1 $416 $577 $401 $421 reversed $522 $-1 #
edge $-1 -1 $-1 $527 -5 $404 2.2763286146721972e-031 $497 $578 forward @7 unknown #
face $-1 -1 $-1 $420 $403 $30 $-1 $526 reversed single #
edge $-1 -1 $-1 $404 2.2763286146721972e-031 $579 5 $565 $578 forward @7 unknown #
point $-1 -1 $-1 -2.2763286146721972e-031 -4.9999999999999991 -7.0999999999999996 #
coedge $-1 -1 $-1 $580 $581 $405 $509 forward $564 $-1 #
edge $-1 -1 $-1 $501 1.5707963267948968 $295 3.1415926535897931 $508 $296 forward @7 unknown #
coedge $-1 -1 $-1 $582 $406 $493 $566 reversed $490 $-1 #
coedge $-1 -1 $-1 $406 $582 $580 $412 reversed $490 $-1 #
coedge $-1 -1 $-1 $409 $531 $194 $291 reversed $516 $-1 #
edge $-1 -1 $-1 $407 0 $533 4.9999999999999991 $531 $583 forward @7 unknown #
point $-1 -1 $-1 -5 0 -7.0999999999999996 #
coedge $-1 -1 $-1 $531 $409 $431 $532 forward $516 $-1 #
loop $-1 -1 $-1 $-1 $512 $584 #
straight-curve $-1 -1 $-1 -5 0 7.0999999999999996 0 -1 0 I I #
plane-surface $-1 -1 $-1 0 0 7.0999999999999996 0 0 1 1 0 0 forward_v I I I I #
vertex $-1 -1 $-1 $412 $585 #
coedge $-1 -1 $-1 $415 $414 $523 $586 reversed $283 $-1 #
coedge $-1 -1 $-1 $577 $416 $569 $587 reversed $522 $-1 #
loop $-1 -1 $-1 $-1 $416 $588 #
coedge $-1 -1 $-1 $418 $424 $520 $586 forward $433 $-1 #
straight-curve $-1 -1 $-1 5 0 -7.0999999999999996 0 -1 0 I I #
face $-1 -1 $-1 $589 $430 $30 $-1 $526 reversed single #
plane-surface $-1 -1 $-1 0 0 -7.0999999999999996 0 0 1 1 0 0 forward_v I I I I #
vertex $-1 -1 $-1 $590 $591 #
vertex $-1 -1 $-1 $423 $592 #
straight-curve $-1 -1 $-1 5 0 7.0999999999999996 0 1 0 I I #
face $-1 -1 $-1 $575 $570 $30 $-1 $518 forward single #
coedge $-1 -1 $-1 $512 $515 $428 $513 reversed $516 $-1 #
edge $-1 -1 $-1 $434 -7.0999999999999996 $533 7.0999999999999996 $431 $593 forward @7 unknown #
vertex $-1 -1 $-1 $432 $594 #
face $-1 -1 $-1 $588 $433 $30 $-1 $394 reversed single #
point $-1 -1 $-1 -5 4.9999999999999991 7.0999999999999996 #
point $-1 -1 $-1 5 4.9999999999999991 -7.0999999999999996 #
point $-1 -1 $-1 -4.9999999999999991 -9.8607613152626476e-032 6.8999999999999986 #
point $-1 -1 $-1 -4.9999999999999991 -1.2246063538223773e-015 -3.6000000000000014 #
straight-curve $-1 -1 $-1 -5 4.9999999999999991 0 0 0 -1 I I #
point $-1 -1 $-1 -5 -4.9999999999999991 -7.0999999999999996 #
straight-curve $-1 -1 $-1 -5 0 -7.0999999999999996 0 1 0 I I #
point $-1 -1 $-1 -5 4.9999999999999991 -7.0999999999999996 #
model_id-kcp-attrib $-1 -1 $-1 $-1 $465 1 1021499190 1021499190 1876099073 10 #
face $595 -1 $-1 $596 $597 $10 $-1 $598 forward single #
loop $-1 -1 $-1 $-1 $599 $465 #
cone-surface $-1 -1 $-1 0 0 -9 0 0 -1 -0.59999999999999998 0 0 1 I I 0 1 0.59999999999999998 forward I I I I #
loop $-1 -1 $-1 $-1 $600 $364 #
coedge $-1 -1 $-1 $601 $601 $470 $552 forward $466 $-1 #
coedge $-1 -1 $-1 $468 $471 $601 $602 reversed $365 $-1 #
coedge $-1 -1 $-1 $470 $469 $468 $551 reversed $248 $-1 #
edge $-1 -1 $-1 $603 0 $373 1.5707963267949376 $468 $604 forward @7 unknown #
edge $605 -1 $-1 $553 3.8942614565150453e-014 $603 3.1415926535898016 $548 $606 forward @7 unknown #
vertex $-1 -1 $-1 $602 $607 #
ellipse-curve $-1 -1 $-1 4.4999999999999991 4.3805351256786078e-012 -8.5000000000000018 7.4893798083129313e-012 -1 8.5801073677900458e-012 -1.6875389974302379e-014 -4.2900536838951336e-012 -0.49999999999999822 1 I I #
ellipse-curve $-1 -1 $-1 0 0 -8.5 0 0 -1 4.9999999999999991 8.1252250298350735e-012 0 1 I I #
point $-1 -1 $-1 5 8.0926083735456522e-012 -8.5 #
attrib_edge_convexity-kcp-attrib $-1 -1 $608 $-1 $479 1 #
ellipse-curve $-1 -1 $-1 0 0 1.5 0 0 1 2.5 0 0 1 I I #
model_id-kcp-attrib $-1 -1 $-1 $-1 $481 1 1021499190 1021499190 1876099073 15 #
face $609 -1 $-1 $610 $611 $10 $-1 $612 forward single #
plane-surface $-1 -1 $-1 0 0 1.5 0 0 1 1 0 0 forward_v I I I I #
loop $-1 -1 $-1 $-1 $613 $481 #
convexity-sys-attrib $-1 -1 $-1 $484 $381 #
loop $-1 -1 $-1 $-1 $508 $489 #
coedge $-1 -1 $-1 $499 $614 $492 $506 reversed $574 $-1 #
edge $-1 -1 $-1 $579 -4.9999999999999991 $407 0 $510 $583 forward @7 unknown #
face $-1 -1 $-1 $505 $494 $30 $-1 $526 reversed single #
coedge $-1 -1 $-1 $569 $495 $498 $572 forward $570 $-1 #
coedge $-1 -1 $-1 $495 $568 $521 $587 forward $570 $-1 #
loop $-1 -1 $-1 $-1 $495 $530 #
coedge $-1 -1 $-1 $498 $497 $577 $590 reversed $500 $-1 #
edge $-1 -1 $-1 $501 -2.2763286146721972e-031 $615 5 $498 $616 forward @7 unknown #
coedge $-1 -1 $-1 $614 $499 $581 $617 reversed $574 $-1 #
loop $-1 -1 $-1 $-1 $499 $589 #
face $-1 -1 $-1 $567 $500 $30 $-1 $618 reversed single #
point $-1 -1 $-1 -2.2763286146721972e-031 -4.9999999999999991 7.0999999999999996 #
coedge $-1 -1 $-1 $503 $521 $571 $590 forward $522 $-1 #
straight-curve $-1 -1 $-1 0 -4.9999999999999991 -7.0999999999999996 -1 0 0 I I #
vertex $-1 -1 $-1 $566 $619 #
coedge $-1 -1 $-1 $581 $508 $511 $412 forward $564 $-1 #
coedge $-1 -1 $-1 $508 $580 $573 $617 forward $564 $-1 #
coedge $-1 -1 $-1 $511 $510 $614 $620 reversed $490 $-1 #
straight-curve $-1 -1 $-1 -5 0 -7.0999999999999996 0 1 0 I I #
face $-1 -1 $-1 $534 $516 $30 $-1 $491 reversed single #
point $-1 -1 $-1 -5 -4.9999999999999991 7.0999999999999996 #
edge $-1 -1 $-1 $528 -7.0999999999999996 $436 7.0999999999999996 $520 $621 forward @7 unknown #
edge $-1 -1 $-1 $615 -4.9999999999999991 $307 0 $521 $529 forward @7 unknown #
face $-1 -1 $-1 $-1 $522 $30 $-1 $284 reversed single #
face $-1 -1 $-1 $584 $574 $30 $-1 $618 reversed single #
edge $-1 -1 $-1 $615 -7.0999999999999996 $527 7.0999999999999996 $577 $622 forward @7 unknown #
point $-1 -1 $-1 5 -4.9999999999999991 -7.0999999999999996 #
point $-1 -1 $-1 5 4.9999999999999991 7.0999999999999996 #
straight-curve $-1 -1 $-1 -5 4.9999999999999991 0 0 0 -1 I I #
point $-1 -1 $-1 -5 4.9999999999999991 -7.0999999999999996 #
model_id-kcp-attrib $-1 -1 $-1 $-1 $544 1 1021499190 1021499190 1876099073 11 #
face $623 -1 $-1 $268 $624 $10 $-1 $625 forward single #
loop $-1 -1 $-1 $-1 $626 $544 #
cone-surface $-1 -1 $-1 0 0 -9 0 0 -1 -0.59999999999999998 0 0 1 I I 0 1 0.59999999999999998 forward I I I I #
coedge $-1 -1 $-1 $627 $628 $629 $630 forward $545 $-1 #
coedge $-1 -1 $-1 $631 $631 $628 $632 reversed $547 $-1 #
coedge $-1 -1 $-1 $548 $548 $549 $602 forward $466 $-1 #
edge $633 -1 $-1 $603 0 $553 3.1415926535898393 $601 $634 forward @7 unknown #
vertex $-1 -1 $-1 $602 $635 #
ellipse-curve $-1 -1 $-1 -4.5 -4.3843587003276857e-012 -8.5000000000000018 -7.4818830017160275e-012 1 8.5956128144343489e-012 1.865174681370263e-014 4.2978064072172989e-012 -0.49999999999999822 1 I I #
attrib_edge_convexity-kcp-attrib $-1 -1 $636 $-1 $552 3 #
ellipse-curve $-1 -1 $-1 -6.6613381477509392e-016 -1.6875389974302379e-014 -9 0 0 -1 4.4999999999999831 1.0735683175777632e-013 0 1 I I #
point $-1 -1 $-1 4.4999999999999805 -8.4760323759702405e-014 -9 #
convexity-sys-attrib $-1 -1 $-1 $557 $479 #
model_id-kcp-attrib $-1 -1 $-1 $-1 $560 1 1021499190 1021499190 1876099073 16 #
face $637 -1 $-1 $638 $639 $10 $-1 $640 forward single #
loop $-1 -1 $-1 $-1 $641 $560 #
cone-surface $-1 -1 $-1 0 0 1.5 0 0 1 0.59999999999999998 0 0 1 I I 0 1 0.59999999999999998 forward I I I I #
coedge $-1 -1 $-1 $642 $642 $643 $644 reversed $562 $-1 #
coedge $-1 -1 $-1 $565 $573 $582 $620 forward $574 $-1 #
vertex $-1 -1 $-1 $587 $645 #
straight-curve $-1 -1 $-1 0 -4.9999999999999991 7.0999999999999996 1 0 0 I I #
edge $-1 -1 $-1 $519 -5 $501 -2.2763286146721972e-031 $573 $616 forward @7 unknown #
plane-surface $-1 -1 $-1 0 -4.9999999999999991 0 0 1 0 0 0 1 forward_v I I I I #
point $-1 -1 $-1 -5 -4.9999999999999991 -7.0999999999999996 #
edge $-1 -1 $-1 $519 -7.0999999999999996 $579 7.0999999999999996 $582 $646 forward @7 unknown #
straight-curve $-1 -1 $-1 5 4.9999999999999991 0 0 0 -1 I I #
straight-curve $-1 -1 $-1 5 -4.9999999999999991 0 0 0 -1 I I #
model_id-kcp-attrib $-1 -1 $-1 $-1 $596 1 1021499190 1021499190 1876099073 12 #
loop $-1 -1 $-1 $-1 $647 $596 #
plane-surface $-1 -1 $-1 0 0 -12.5 0 0 -1 -1 0 0 forward_v I I I I #
coedge $-1 -1 $-1 $648 $649 $650 $651 forward $597 $-1 #
coedge $-1 -1 $-1 $650 $599 $647 $652 reversed $545 $-1 #
coedge $-1 -1 $-1 $599 $650 $600 $632 forward $545 $-1 #
coedge $-1 -1 $-1 $649 $648 $599 $630 reversed $597 $-1 #
edge $-1 -1 $-1 $653 0 $654 3.5 $629 $655 forward @7 unknown #
coedge $-1 -1 $-1 $600 $600 $649 $656 reversed $547 $-1 #
edge $657 -1 $-1 $658 0 $653 3.1415926535897931 $600 $659 forward @7 unknown #
attrib_edge_convexity-kcp-attrib $-1 -1 $660 $-1 $602 3 #
ellipse-curve $-1 -1 $-1 -8.8817841970012523e-016 1.8207657603852567e-014 -9 0 0 -1 -4.4999999999999805 -1.0475995071423904e-013 0 1 I I #
point $-1 -1 $-1 -4.4999999999999813 -8.6552293110386472e-014 -9 #
convexity-sys-attrib $-1 -1 $-1 $605 $552 #
model_id-kcp-attrib $-1 -1 $-1 $-1 $610 1 1021499190 1021499190 1876099073 17 #
face $661 -1 $-1 $-1 $662 $10 $-1 $663 forward single #
loop $-1 -1 $-1 $-1 $664 $610 #
cone-surface $-1 -1 $-1 0 0 1.5 0 0 1 0.59999999999999998 0 0 1 I I 0 1 0.59999999999999998 forward I I I I #
coedge $-1 -1 $-1 $665 $643 $666 $667 forward $611 $-1 #
coedge $-1 -1 $-1 $613 $613 $668 $669 reversed $562 $-1 #
coedge $-1 -1 $-1 $641 $670 $613 $644 forward $611 $-1 #
edge $671 -1 $-1 $672 0 $673 3.1415926535897931 $613 $674 forward @7 unknown #
point $-1 -1 $-1 5 -4.9999999999999991 7.0999999999999996 #
straight-curve $-1 -1 $-1 -5 -4.9999999999999991 0 0 0 -1 I I #
coedge $-1 -1 $-1 $675 $675 $627 $652 forward $624 $-1 #
coedge $-1 -1 $-1 $629 $626 $675 $676 reversed $597 $-1 #
coedge $-1 -1 $-1 $626 $629 $631 $656 forward $597 $-1 #
coedge $-1 -1 $-1 $628 $627 $626 $651 reversed $545 $-1 #
edge $-1 -1 $-1 $658 0 $677 3.5 $626 $678 forward @7 unknown #
edge $679 -1 $-1 $677 0 $654 3.1415926535897931 $647 $680 forward @7 unknown #
vertex $-1 -1 $-1 $656 $681 #
vertex $-1 -1 $-1 $676 $682 #
straight-curve $-1 -1 $-1 -0.59999999999999998 0 -9 0 0 -1 I I #
edge $683 -1 $-1 $653 0 $658 3.1415926535897931 $631 $684 forward @7 unknown #
attrib_edge_convexity-kcp-attrib $-1 -1 $685 $-1 $632 2 #
vertex $-1 -1 $-1 $656 $686 #
ellipse-curve $-1 -1 $-1 0 0 -9 0 0 -1 0.59999999999999998 0 0 1 I I #
convexity-sys-attrib $-1 -1 $-1 $633 $602 #
model_id-kcp-attrib $-1 -1 $-1 $-1 $638 1 1021499190 1021499190 1876099073 18 #
loop $-1 -1 $-1 $-1 $687 $638 #
plane-surface $-1 -1 $-1 0 0 1.7 0 0 1 1 0 0 forward_v I I I I #
coedge $-1 -1 $-1 $688 $668 $670 $689 forward $639 $-1 #
coedge $-1 -1 $-1 $670 $641 $687 $690 reversed $611 $-1 #
coedge $-1 -1 $-1 $668 $688 $641 $667 reversed $639 $-1 #
edge $-1 -1 $-1 $673 0 $691 0.19999999999999996 $666 $692 forward @7 unknown #
coedge $-1 -1 $-1 $664 $666 $642 $669 forward $639 $-1 #
edge $693 -1 $-1 $673 0 $672 3.1415926535897931 $642 $694 forward @7 unknown #
coedge $-1 -1 $-1 $643 $665 $664 $689 reversed $611 $-1 #
attrib_edge_convexity-kcp-attrib $-1 -1 $695 $-1 $644 2 #
vertex $-1 -1 $-1 $669 $696 #
vertex $-1 -1 $-1 $669 $697 #
ellipse-curve $-1 -1 $-1 0 0 1.5 0 0 1 -0.59999999999999998 0 0 1 I I #
coedge $-1 -1 $-1 $647 $647 $648 $676 forward $624 $-1 #
edge $698 -1 $-1 $654 0 $677 3.1415926535897931 $675 $699 forward @7 unknown #
vertex $-1 -1 $-1 $676 $700 #
straight-curve $-1 -1 $-1 0.59999999999999998 7.3476381229342628e-017 -9 0 0 -1 I I #
attrib_edge_convexity-kcp-attrib $-1 -1 $701 $-1 $652 1 #
ellipse-curve $-1 -1 $-1 0 0 -12.5 0 0 -1 0.59999999999999998 0 0 1 I I #
point $-1 -1 $-1 -0.59999999999999998 0 -9 #
point $-1 -1 $-1 -0.59999999999999998 0 -12.5 #
attrib_edge_convexity-kcp-attrib $-1 -1 $702 $-1 $656 2 #
ellipse-curve $-1 -1 $-1 0 0 -9 0 0 -1 -0.59999999999999998 0 0 1 I I #
convexity-sys-attrib $-1 -1 $-1 $657 $632 #
point $-1 -1 $-1 0.59999999999999998 0 -9 #
coedge $-1 -1 $-1 $703 $703 $665 $690 forward $662 $-1 #
coedge $-1 -1 $-1 $666 $664 $703 $704 reversed $639 $-1 #
edge $-1 -1 $-1 $672 0 $705 0.19999999999999996 $664 $706 forward @7 unknown #
edge $-1 -1 $-1 $705 0 $691 3.1415926535897931 $687 $707 forward @7 unknown #
vertex $-1 -1 $-1 $704 $708 #
straight-curve $-1 -1 $-1 0.59999999999999998 0 1.5 0 0 1 I I #
attrib_edge_convexity-kcp-attrib $-1 -1 $709 $-1 $669 2 #
ellipse-curve $-1 -1 $-1 0 0 1.5 0 0 1 0.59999999999999998 0 0 1 I I #
convexity-sys-attrib $-1 -1 $-1 $671 $644 #
point $-1 -1 $-1 -0.59999999999999998 0 1.5 #
point $-1 -1 $-1 0.59999999999999998 0 1.5 #
attrib_edge_convexity-kcp-attrib $-1 -1 $710 $-1 $676 1 #
ellipse-curve $-1 -1 $-1 0 0 -12.5 0 0 -1 -0.59999999999999998 0 0 1 I I #
point $-1 -1 $-1 0.59999999999999998 0 -12.5 #
convexity-sys-attrib $-1 -1 $-1 $679 $652 #
convexity-sys-attrib $-1 -1 $-1 $683 $656 #
coedge $-1 -1 $-1 $687 $687 $688 $704 forward $662 $-1 #
edge $-1 -1 $-1 $691 0 $705 3.1415926535897931 $703 $711 forward @7 unknown #
vertex $-1 -1 $-1 $704 $712 #
straight-curve $-1 -1 $-1 -0.59999999999999998 7.3476381229342628e-017 1.5 0 0 1 I I #
ellipse-curve $-1 -1 $-1 0 0 1.7 0 0 1 -0.59999999999999998 0 0 1 I I #
point $-1 -1 $-1 0.59999999999999998 0 1.7 #
convexity-sys-attrib $-1 -1 $-1 $693 $669 #
convexity-sys-attrib $-1 -1 $-1 $698 $676 #
ellipse-curve $-1 -1 $-1 0 0 1.7 0 0 1 0.59999999999999998 0 0 1 I I #
point $-1 -1 $-1 -0.59999999999999998 0 1.7 #
End-of-ACIS-data 