600 0 1 0           
91 GICL Pro/E ACIS Translator - Source: f:/data5/repository/PTC/V18/fly_small18/pcb3.prt - 6 0 13 ACIS 6.0.3 NT 24 Thu Apr 04 10:01:22 2002 
1 9.9999999999999995e-007 1e-010 
body $-1 $1 $-1 $-1 #
lump $-1 $-1 $2 $0 #
shell $-1 $-1 $-1 $3 $-1 $1 #
face $-1 $4 $5 $2 $-1 $6 reversed single #
face $-1 $7 $8 $2 $-1 $9 reversed single #
loop $-1 $10 $11 $3 #
plane-surface $-1 0 0 0 0 1 0 1 0 0 forward_v I I I I #
face $-1 $12 $13 $2 $-1 $14 reversed single #
loop $-1 $-1 $15 $4 #
plane-surface $-1 21 0.90000000000000036 4 0 0 -1 -1 0 0 forward_v I I I I #
loop $-1 $16 $17 $3 #
coedge $-1 $18 $19 $20 $21 forward $5 $-1 #
face $-1 $22 $23 $2 $-1 $24 forward single #
loop $-1 $-1 $25 $7 #
plane-surface $-1 21 0.90000000000000036 10 1 0 0 0 0 -1 forward_v I I I I #
coedge $-1 $26 $20 $27 $28 reversed $8 $-1 #
loop $-1 $-1 $29 $3 #
coedge $-1 $30 $30 $31 $32 reversed $10 $-1 #
coedge $-1 $33 $11 $34 $35 reversed $5 $-1 #
coedge $-1 $11 $36 $37 $38 forward $5 $-1 #
coedge $-1 $15 $39 $11 $21 reversed $8 $-1 #
edge $-1 $40 0 $41 14 $11 $42 forward 7 unknown #
face $-1 $43 $44 $2 $-1 $45 forward single #
loop $-1 $-1 $46 $12 #
cone-surface $-1 23 0 8 0 -1 0 0 0 2 1 I I 0 1 2 forward I I I I #
coedge $-1 $47 $37 $48 $49 forward $13 $-1 #
coedge $-1 $39 $15 $50 $51 forward $8 $-1 #
coedge $-1 $37 $47 $15 $28 forward $13 $-1 #
edge $-1 $52 0 $40 0.90000000000000036 $27 $53 forward 7 unknown #
coedge $-1 $54 $54 $55 $56 reversed $16 $-1 #
coedge $-1 $17 $17 $57 $58 reversed $10 $-1 #
coedge $-1 $59 $60 $17 $32 forward $61 $-1 #
edge $-1 $62 0 $63 3.1415926535897896 $17 $64 forward 7 unknown #
coedge $-1 $65 $18 $66 $67 reversed $5 $-1 #
coedge $-1 $68 $69 $18 $35 forward $70 $-1 #
edge $-1 $71 0 $41 4.5 $18 $72 forward 7 unknown #
coedge $-1 $19 $73 $74 $75 forward $5 $-1 #
coedge $-1 $25 $27 $19 $38 reversed $13 $-1 #
edge $-1 $76 0 $40 4 $19 $77 forward 7 unknown #
coedge $-1 $20 $26 $68 $78 forward $8 $-1 #
vertex $-1 $38 $79 #
vertex $-1 $35 $80 #
straight-curve $-1 21 0 4 -1 0 0 I I #
face $-1 $81 $82 $2 $-1 $83 forward single #
loop $-1 $84 $85 $22 #
plane-surface $-1 0 0.90000000000000036 0 0 1 0 1 0 0 forward_v I I I I #
coedge $-1 $48 $86 $85 $87 forward $23 $-1 #
coedge $-1 $27 $25 $88 $89 forward $13 $-1 #
coedge $-1 $74 $46 $25 $49 reversed $23 $-1 #
edge $-1 $76 0 $90 0.90000000000000036 $25 $91 forward 7 unknown #
coedge $-1 $88 $92 $26 $51 reversed $44 $-1 #
edge $-1 $52 0 $93 14 $50 $94 forward 7 unknown #
vertex $-1 $89 $95 #
straight-curve $-1 21 0.90000000000000036 4 0 -1 0 I I #
coedge $-1 $29 $29 $96 $97 reversed $16 $-1 #
coedge $-1 $98 $99 $29 $56 forward $100 $-1 #
edge $-1 $101 0 $102 3.1415926535897931 $29 $103 forward 7 unknown #
coedge $-1 $104 $105 $30 $58 forward $106 $-1 #
edge $-1 $63 0 $62 3.1415926535897967 $30 $107 forward 7 unknown #
coedge $-1 $108 $31 $105 $109 reversed $61 $-1 #
coedge $-1 $31 $108 $104 $110 forward $61 $-1 #
loop $-1 $-1 $59 $111 #
vertex $-1 $58 $112 #
vertex $-1 $58 $113 #
ellipse-curve $-1 23.5 0 7.7600000000000007 0 -1 0 -0.5 0 -8.8817841970012523e-016 1 I I #
coedge $-1 $114 $33 $115 $116 reversed $5 $-1 #
coedge $-1 $117 $118 $33 $67 forward $119 $-1 #
edge $-1 $120 0 $71 1.5707963267948961 $33 $121 forward 7 unknown #
coedge $-1 $122 $34 $39 $78 reversed $70 $-1 #
coedge $-1 $34 $122 $117 $123 reversed $70 $-1 #
loop $-1 $-1 $68 $124 #
vertex $-1 $67 $125 #
straight-curve $-1 7 0 8.5 0 0 -1 I I #
coedge $-1 $36 $126 $127 $128 reversed $5 $-1 #
coedge $-1 $86 $48 $36 $75 reversed $23 $-1 #
edge $-1 $129 0 $76 1.5707963267948983 $36 $130 forward 7 unknown #
vertex $-1 $38 $131 #
straight-curve $-1 21 0 8 0 0 -1 I I #
edge $-1 $93 0 $41 0.90000000000000036 $39 $132 forward 7 unknown #
point $-1 21 0 4 #
point $-1 7 0 4 #
face $-1 $133 $134 $2 $-1 $135 forward single #
loop $-1 $-1 $127 $43 #
plane-surface $-1 -40 0 10 0 0 1 1 0 0 forward_v I I I I #
loop $-1 $136 $137 $22 #
coedge $-1 $138 $88 $46 $87 reversed $44 $-1 #
coedge $-1 $46 $74 $139 $140 forward $23 $-1 #
edge $-1 $141 0 $90 1.5707963267948983 $85 $142 forward 7 unknown #
coedge $-1 $85 $50 $47 $89 reversed $44 $-1 #
edge $-1 $90 0 $52 4 $88 $143 forward 7 unknown #
vertex $-1 $89 $144 #
straight-curve $-1 21 0 8 0 1 0 I I #
coedge $-1 $50 $145 $122 $146 forward $44 $-1 #
vertex $-1 $51 $147 #
straight-curve $-1 21 0.90000000000000036 4 -1 0 0 I I #
point $-1 21 0.90000000000000036 4 #
coedge $-1 $148 $149 $54 $97 forward $150 $-1 #
edge $-1 $102 0 $101 3.1415926535897931 $54 $151 forward 7 unknown #
coedge $-1 $152 $55 $149 $153 reversed $100 $-1 #
coedge $-1 $55 $152 $148 $154 forward $100 $-1 #
loop $-1 $-1 $98 $155 #
vertex $-1 $97 $156 #
vertex $-1 $97 $157 #
ellipse-curve $-1 5.0199999999999996 0 7.8300000000000001 0 -1 0 -0.75 0 0 1 I I #
coedge $-1 $158 $57 $60 $110 reversed $106 $-1 #
coedge $-1 $57 $158 $59 $109 forward $106 $-1 #
loop $-1 $-1 $104 $159 #
ellipse-curve $-1 23.5 0 7.7600000000000007 0 -1 0 0.5 0 -8.8817841970012523e-016 1 I I #
coedge $-1 $60 $59 $137 $160 reversed $61 $-1 #
edge $-1 $161 0 $63 0.90000000000000036 $105 $162 forward 7 unknown #
edge $-1 $163 0 $62 0.90000000000000036 $104 $164 forward 7 unknown #
face $-1 $159 $61 $2 $-1 $165 reversed single #
point $-1 23 0 7.7599999999999998 #
point $-1 24 0 7.7599999999999998 #
coedge $-1 $166 $65 $167 $168 reversed $5 $-1 #
coedge $-1 $169 $170 $65 $116 forward $171 $-1 #
edge $-1 $172 0 $120 45.5 $65 $173 forward 7 unknown #
coedge $-1 $174 $66 $69 $123 forward $119 $-1 #
coedge $-1 $66 $174 $169 $175 reversed $119 $-1 #
loop $-1 $-1 $66 $176 #
vertex $-1 $116 $177 #
ellipse-curve $-1 5.4999999999999991 0 8.5 0 1 0 8.8817841970012523e-016 0 1.5 1 I I #
coedge $-1 $69 $68 $92 $146 reversed $70 $-1 #
edge $-1 $71 0 $178 0.90000000000000036 $69 $179 forward 7 unknown #
face $-1 $111 $70 $2 $-1 $180 reversed single #
point $-1 7 0 8.5 #
coedge $-1 $73 $181 $182 $183 reversed $5 $-1 #
coedge $-1 $184 $139 $73 $128 forward $82 $-1 #
edge $-1 $129 0 $185 1 $73 $186 forward 7 unknown #
vertex $-1 $75 $187 #
ellipse-curve $-1 23 0 8.0000000000000036 0 -1 0 0 0 1.9999999999999964 1 I I #
point $-1 21 0 8 #
straight-curve $-1 7 0.90000000000000036 4 0 -1 0 I I #
face $-1 $188 $189 $2 $-1 $190 reversed single #
loop $-1 $-1 $182 $81 #
cone-surface $-1 24 0 8 0 1 0 0 0 2 1 I I 0 1 2 forward I I I I #
loop $-1 $-1 $191 $22 #
coedge $-1 $192 $192 $108 $160 forward $84 $-1 #
coedge $-1 $193 $85 $194 $195 forward $44 $-1 #
coedge $-1 $127 $194 $86 $140 reversed $82 $-1 #
edge $-1 $129 0 $141 0.90000000000000036 $139 $196 forward 7 unknown #
vertex $-1 $195 $197 #
ellipse-curve $-1 23 0.90000000000000036 8.0000000000000036 0 -1 0 0 0 1.9999999999999964 1 I I #
straight-curve $-1 21 0.90000000000000036 8 0 0 -1 I I #
point $-1 21 0.90000000000000036 8 #
coedge $-1 $92 $198 $174 $199 forward $44 $-1 #
edge $-1 $178 0 $93 4.5 $92 $200 forward 7 unknown #
point $-1 7 0.90000000000000036 4 #
coedge $-1 $201 $96 $99 $154 reversed $150 $-1 #
coedge $-1 $96 $201 $98 $153 forward $150 $-1 #
loop $-1 $-1 $148 $202 #
ellipse-curve $-1 5.0199999999999996 0 7.8300000000000001 0 -1 0 0.75 0 0 1 I I #
coedge $-1 $99 $98 $191 $203 reversed $100 $-1 #
edge $-1 $204 0 $102 0.90000000000000036 $149 $205 forward 7 unknown #
edge $-1 $206 0 $101 0.90000000000000036 $148 $207 forward 7 unknown #
face $-1 $202 $100 $2 $-1 $208 reversed single #
point $-1 4.2699999999999996 0 7.8300000000000001 #
point $-1 5.7699999999999996 0 7.8300000000000001 #
coedge $-1 $105 $104 $192 $209 reversed $106 $-1 #
face $-1 $155 $106 $2 $-1 $210 reversed single #
edge $-1 $163 0 $161 3.1415926535897931 $137 $211 forward 7 unknown #
vertex $-1 $209 $212 #
straight-curve $-1 24 0.90000000000000036 7.7599999999999998 0 -1 0 I I #
vertex $-1 $209 $213 #
straight-curve $-1 23 0.90000000000000036 7.7599999999999998 0 -1 0 I I #
cone-surface $-1 23.5 0.90000000000000036 7.7599999999999998 0 -1 0 0.5 0 0 1 I I 0 1 0.5 forward I I I I #
coedge $-1 $214 $114 $215 $216 forward $5 $-1 #
coedge $-1 $217 $218 $114 $168 forward $219 $-1 #
edge $-1 $220 0 $172 7 $114 $221 forward 7 unknown #
coedge $-1 $222 $115 $118 $175 forward $171 $-1 #
coedge $-1 $115 $222 $217 $223 reversed $171 $-1 #
loop $-1 $-1 $222 $224 #
vertex $-1 $168 $225 #
straight-curve $-1 -40 0 10 1 0 0 I I #
coedge $-1 $118 $117 $145 $199 reversed $119 $-1 #
edge $-1 $120 0 $226 0.90000000000000036 $169 $227 forward 7 unknown #
face $-1 $124 $119 $2 $-1 $228 forward single #
point $-1 5.5 0 10 #
vertex $-1 $146 $229 #
straight-curve $-1 7 0 8.5 0 1 0 I I #
plane-surface $-1 7 0.90000000000000036 4 -1 0 0 0 0 1 forward_v I I I I #
coedge $-1 $126 $230 $231 $232 reversed $5 $-1 #
coedge $-1 $233 $234 $126 $183 forward $134 $-1 #
edge $-1 $185 0 $235 1.5707963267948983 $126 $236 forward 7 unknown #
coedge $-1 $194 $127 $234 $237 forward $82 $-1 #
vertex $-1 $128 $238 #
straight-curve $-1 23 0 10 1 0 0 I I #
point $-1 23 0 10 #
face $-1 $239 $240 $2 $-1 $241 reversed single #
loop $-1 $-1 $242 $133 #
plane-surface $-1 26 0.90000000000000036 4 -1 0 0 0 0 1 forward_v I I I I #
coedge $-1 $243 $243 $152 $203 forward $136 $-1 #
coedge $-1 $137 $137 $158 $209 forward $84 $-1 #
coedge $-1 $244 $138 $245 $246 forward $44 $-1 #
coedge $-1 $139 $184 $138 $195 reversed $82 $-1 #
edge $-1 $141 0 $247 1 $138 $248 forward 7 unknown #
straight-curve $-1 23 0 10 0 1 0 I I #
point $-1 23 0.90000000000000036 10 #
coedge $-1 $145 $249 $222 $250 forward $44 $-1 #
edge $-1 $226 0 $178 1.5707963267948961 $145 $251 forward 7 unknown #
straight-curve $-1 7 0.90000000000000036 8.5 0 0 -1 I I #
coedge $-1 $149 $148 $243 $252 reversed $150 $-1 #
face $-1 $-1 $150 $2 $-1 $253 reversed single #
edge $-1 $206 0 $204 3.1415926535897931 $191 $254 forward 7 unknown #
vertex $-1 $252 $255 #
straight-curve $-1 5.7699999999999996 0.90000000000000036 7.8300000000000001 0 -1 0 I I #
vertex $-1 $252 $256 #
straight-curve $-1 4.2699999999999996 0.90000000000000036 7.8300000000000001 0 -1 0 I I #
cone-surface $-1 5.0199999999999996 0.90000000000000036 7.8300000000000001 0 -1 0 0.75 0 0 1 I I 0 1 0.75 forward I I I I #
edge $-1 $161 0 $163 3.1415926535897931 $192 $257 forward 7 unknown #
cone-surface $-1 23.5 0.90000000000000036 7.7599999999999998 0 -1 0 0.5 0 0 1 I I 0 1 0.5 forward I I I I #
ellipse-curve $-1 23.5 0.90000000000000036 7.7599999999999998 0 -1 0 -0.5 0 0 1 I I #
point $-1 24 0.90000000000000036 7.7599999999999998 #
point $-1 23 0.90000000000000036 7.7599999999999998 #
coedge $-1 $258 $166 $259 $260 reversed $5 $-1 #
coedge $-1 $261 $262 $166 $216 reversed $263 $-1 #
edge $-1 $220 0 $264 40 $166 $265 forward 7 unknown #
coedge $-1 $266 $167 $170 $223 forward $219 $-1 #
coedge $-1 $167 $266 $261 $267 reversed $219 $-1 #
loop $-1 $-1 $167 $268 #
vertex $-1 $216 $269 #
straight-curve $-1 -40 0 3 0 0 1 I I #
coedge $-1 $170 $169 $198 $250 reversed $171 $-1 #
edge $-1 $172 0 $270 0.89999999999999991 $170 $271 forward 7 unknown #
face $-1 $176 $171 $2 $-1 $272 forward single #
point $-1 -40 0 10 #
vertex $-1 $199 $273 #
straight-curve $-1 5.5 0 10 0 1 0 I I #
cone-surface $-1 5.5 0 8.5 0 1 0 0 0 1.5 1 I I 0 1 1.5 forward I I I I #
point $-1 7 0.90000000000000036 8.5 #
coedge $-1 $181 $274 $275 $276 forward $5 $-1 #
coedge $-1 $242 $277 $181 $232 forward $189 $-1 #
edge $-1 $235 0 $278 4 $181 $279 forward 7 unknown #
coedge $-1 $245 $182 $277 $280 forward $134 $-1 #
coedge $-1 $182 $245 $184 $237 reversed $134 $-1 #
vertex $-1 $183 $281 #
ellipse-curve $-1 24 0 8.0000000000000036 0 1 0 0 0 1.9999999999999964 1 I I #
edge $-1 $185 0 $247 0.90000000000000036 $184 $282 forward 7 unknown #
point $-1 24 0 10 #
face $-1 $283 $284 $2 $-1 $285 forward single #
loop $-1 $-1 $286 $188 #
plane-surface $-1 40 0.90000000000000036 4 0 0 -1 -1 0 0 forward_v I I I I #
coedge $-1 $287 $231 $288 $289 reversed $189 $-1 #
coedge $-1 $191 $191 $201 $252 forward $136 $-1 #
coedge $-1 $290 $193 $287 $291 forward $44 $-1 #
coedge $-1 $234 $233 $193 $246 reversed $134 $-1 #
edge $-1 $247 0 $292 1.5707963267948983 $193 $293 forward 7 unknown #
vertex $-1 $246 $294 #
straight-curve $-1 23 0.90000000000000036 10 1 0 0 I I #
coedge $-1 $198 $295 $266 $296 forward $44 $-1 #
edge $-1 $270 0 $226 45.5 $198 $297 forward 7 unknown #
ellipse-curve $-1 5.4999999999999991 0.90000000000000036 8.5 0 1 0 8.8817841970012523e-016 0 1.5 1 I I #
edge $-1 $204 0 $206 3.1415926535897931 $243 $298 forward 7 unknown #
cone-surface $-1 5.0199999999999996 0.90000000000000036 7.8300000000000001 0 -1 0 0.75 0 0 1 I I 0 1 0.75 forward I I I I #
ellipse-curve $-1 5.0199999999999996 0.90000000000000036 7.8300000000000001 0 -1 0 -0.75 0 0 1 I I #
point $-1 5.7699999999999996 0.90000000000000036 7.8300000000000001 #
point $-1 4.2699999999999996 0.90000000000000036 7.8300000000000001 #
ellipse-curve $-1 23.5 0.90000000000000036 7.7599999999999998 0 -1 0 0.5 0 0 1 I I #
coedge $-1 $299 $214 $300 $301 reversed $5 $-1 #
coedge $-1 $302 $303 $214 $260 forward $304 $-1 #
edge $-1 $305 0 $264 13 $214 $306 forward 7 unknown #
coedge $-1 $307 $215 $218 $267 forward $263 $-1 #
coedge $-1 $215 $307 $302 $308 forward $263 $-1 #
loop $-1 $-1 $261 $309 #
vertex $-1 $260 $310 #
straight-curve $-1 -40 0 3 1 0 0 I I #
coedge $-1 $218 $217 $249 $296 reversed $219 $-1 #
edge $-1 $220 0 $311 0.90000000000000036 $218 $312 forward 7 unknown #
face $-1 $224 $219 $2 $-1 $313 forward single #
point $-1 -40 0 3 #
vertex $-1 $250 $314 #
straight-curve $-1 -40 0 10 0 1 0 I I #
plane-surface $-1 -40 0 10 0 0 1 1 0 0 forward_v I I I I #
point $-1 5.5 0.90000000000000036 10 #
coedge $-1 $230 $315 $316 $317 reversed $5 $-1 #
coedge $-1 $286 $288 $230 $276 reversed $240 $-1 #
edge $-1 $318 0 $278 14 $230 $319 forward 7 unknown #
coedge $-1 $231 $287 $233 $280 reversed $189 $-1 #
vertex $-1 $232 $320 #
straight-curve $-1 26 0 8 0 0 -1 I I #
edge $-1 $235 0 $292 0.90000000000000036 $277 $321 forward 7 unknown #
point $-1 26 0 8 #
straight-curve $-1 24 0 10 0 1 0 I I #
face $-1 $322 $323 $2 $-1 $324 forward single #
loop $-1 $-1 $316 $239 #
plane-surface $-1 40 0 10 1 0 0 0 0 -1 forward_v I I I I #
coedge $-1 $325 $275 $326 $327 forward $240 $-1 #
coedge $-1 $277 $242 $244 $291 reversed $189 $-1 #
coedge $-1 $275 $325 $242 $289 forward $240 $-1 #
edge $-1 $328 0 $278 0.90000000000000036 $288 $329 forward 7 unknown #
coedge $-1 $330 $244 $325 $331 reversed $44 $-1 #
edge $-1 $292 0 $328 4 $244 $332 forward 7 unknown #
vertex $-1 $291 $333 #
ellipse-curve $-1 24 0.90000000000000036 8.0000000000000036 0 1 0 0 0 1.9999999999999964 1 I I #
point $-1 24 0.90000000000000036 10 #
coedge $-1 $249 $334 $307 $335 reversed $44 $-1 #
edge $-1 $311 0 $270 7 $249 $336 forward 7 unknown #
straight-curve $-1 -40 0.90000000000000036 10 1 0 0 I I #
ellipse-curve $-1 5.0199999999999996 0.90000000000000036 7.8300000000000001 0 -1 0 0.75 0 0 1 I I #
coedge $-1 $337 $258 $338 $339 forward $5 $-1 #
coedge $-1 $340 $341 $258 $301 forward $342 $-1 #
edge $-1 $343 0 $305 14 $258 $344 forward 7 unknown #
coedge $-1 $345 $259 $262 $308 reversed $304 $-1 #
coedge $-1 $259 $345 $340 $346 reversed $304 $-1 #
loop $-1 $-1 $302 $347 #
vertex $-1 $301 $348 #
straight-curve $-1 0 0 -10 0 0 1 I I #
coedge $-1 $262 $261 $295 $335 forward $263 $-1 #
edge $-1 $349 0 $264 0.90000000000000036 $262 $350 forward 7 unknown #
face $-1 $268 $263 $2 $-1 $351 reversed single #
point $-1 0 0 3 #
vertex $-1 $296 $352 #
straight-curve $-1 -40 0 3 0 1 0 I I #
plane-surface $-1 -40 0 -10 -1 0 0 0 0 1 forward_v I I I I #
point $-1 -40 0.89999999999999991 10 #
coedge $-1 $274 $353 $354 $355 forward $5 $-1 #
coedge $-1 $356 $326 $274 $317 forward $284 $-1 #
edge $-1 $318 0 $357 11 $274 $358 forward 7 unknown #
vertex $-1 $276 $359 #
straight-curve $-1 40 0 4 -1 0 0 I I #
point $-1 26 0 4 #
straight-curve $-1 26 0 8 0 1 0 I I #
face $-1 $360 $361 $2 $-1 $362 forward single #
loop $-1 $-1 $363 $283 #
cone-surface $-1 37 0 -7 0 -1 0 0 0 -3 1 I I 0 1 3 forward I I I I #
coedge $-1 $288 $286 $290 $331 forward $240 $-1 #
coedge $-1 $316 $364 $286 $327 reversed $284 $-1 #
edge $-1 $318 0 $365 0.90000000000000036 $326 $366 forward 7 unknown #
vertex $-1 $331 $367 #
straight-curve $-1 26 0.90000000000000036 4 0 -1 0 I I #
coedge $-1 $368 $290 $364 $369 forward $44 $-1 #
edge $-1 $365 0 $328 14 $290 $370 forward 7 unknown #
straight-curve $-1 26 0.90000000000000036 8 0 0 -1 I I #
point $-1 26 0.90000000000000036 8 #
coedge $-1 $295 $371 $345 $372 forward $44 $-1 #
edge $-1 $311 0 $349 40 $295 $373 forward 7 unknown #
straight-curve $-1 -40 0.90000000000000036 3 0 0 1 I I #
coedge $-1 $374 $299 $375 $376 forward $5 $-1 #
coedge $-1 $377 $378 $299 $339 reversed $379 $-1 #
edge $-1 $343 0 $380 2 $299 $381 forward 7 unknown #
coedge $-1 $382 $300 $303 $346 forward $342 $-1 #
coedge $-1 $300 $382 $377 $383 reversed $342 $-1 #
loop $-1 $-1 $300 $384 #
vertex $-1 $339 $385 #
straight-curve $-1 14 0 -10 -1 0 0 I I #
coedge $-1 $303 $302 $334 $372 reversed $304 $-1 #
edge $-1 $305 0 $386 0.90000000000000036 $340 $387 forward 7 unknown #
face $-1 $309 $304 $2 $-1 $388 reversed single #
point $-1 0 0 -10 #
vertex $-1 $335 $389 #
straight-curve $-1 0 0.90000000000000036 3 0 -1 0 I I #
plane-surface $-1 -40 0.90000000000000036 3 0 0 1 1 0 0 forward_v I I I I #
point $-1 -40 0.90000000000000036 3 #
coedge $-1 $315 $374 $390 $391 reversed $5 $-1 #
coedge $-1 $392 $393 $315 $355 reversed $323 $-1 #
edge $-1 $394 0 $357 1.570796326794901 $315 $395 forward 7 unknown #
coedge $-1 $364 $316 $393 $396 forward $284 $-1 #
vertex $-1 $317 $397 #
straight-curve $-1 40 0 4 0 0 -1 I I #
point $-1 40 0 4 #
face $-1 $398 $399 $2 $-1 $400 reversed single #
loop $-1 $-1 $401 $322 #
plane-surface $-1 40 0 -10 0 0 -1 -1 0 0 forward_v I I I I #
coedge $-1 $393 $392 $368 $402 forward $323 $-1 #
coedge $-1 $326 $356 $330 $369 reversed $284 $-1 #
vertex $-1 $369 $403 #
straight-curve $-1 40 0 4 0 1 0 I I #
point $-1 26 0.90000000000000036 4 #
coedge $-1 $404 $330 $363 $402 reversed $44 $-1 #
edge $-1 $365 0 $405 11 $330 $406 forward 7 unknown #
straight-curve $-1 40 0.90000000000000036 4 -1 0 0 I I #
coedge $-1 $334 $407 $382 $408 forward $44 $-1 #
edge $-1 $386 0 $349 13 $334 $409 forward 7 unknown #
straight-curve $-1 -40 0.90000000000000036 3 1 0 0 I I #
coedge $-1 $353 $337 $410 $411 reversed $5 $-1 #
coedge $-1 $412 $413 $337 $376 reversed $414 $-1 #
edge $-1 $380 0 $415 22 $337 $416 forward 7 unknown #
coedge $-1 $417 $338 $341 $383 forward $379 $-1 #
coedge $-1 $338 $417 $412 $418 forward $379 $-1 #
loop $-1 $-1 $377 $419 #
vertex $-1 $376 $420 #
straight-curve $-1 14 0 -10 0 0 1 I I #
coedge $-1 $341 $340 $371 $408 reversed $342 $-1 #
edge $-1 $343 0 $421 0.90000000000000036 $341 $422 forward 7 unknown #
face $-1 $347 $342 $2 $-1 $423 forward single #
point $-1 14 0 -10 #
vertex $-1 $372 $424 #
straight-curve $-1 0 0 -10 0 1 0 I I #
plane-surface $-1 0 0.90000000000000036 3 1 0 0 0 0 -1 forward_v I I I I #
point $-1 0 0.90000000000000036 3 #
coedge $-1 $425 $426 $353 $391 forward $361 $-1 #
edge $-1 $394 0 $427 1 $353 $428 forward 7 unknown #
coedge $-1 $363 $354 $426 $429 forward $323 $-1 #
coedge $-1 $354 $363 $356 $396 reversed $323 $-1 #
vertex $-1 $355 $430 #
ellipse-curve $-1 37.000000000000007 0 -7.0000000000000062 0 -1 0 -7.1054273576010019e-015 0 -2.9999999999999938 1 I I #
edge $-1 $357 0 $405 0.90000000000000036 $356 $431 forward 7 unknown #
point $-1 40 0 -7 #
face $-1 $419 $414 $2 $-1 $432 reversed single #
loop $-1 $-1 $433 $360 #
plane-surface $-1 36 0.90000000000000036 -8 1 0 0 0 0 -1 forward_v I I I I #
coedge $-1 $426 $425 $404 $434 reversed $361 $-1 #
edge $-1 $435 0 $405 1.570796326794901 $368 $436 forward 7 unknown #
point $-1 40 0.90000000000000036 4 #
coedge $-1 $437 $368 $401 $434 forward $44 $-1 #
vertex $-1 $402 $438 #
straight-curve $-1 40 0.90000000000000036 4 0 0 -1 I I #
coedge $-1 $371 $439 $417 $440 reversed $44 $-1 #
edge $-1 $421 0 $386 14 $371 $441 forward 7 unknown #
straight-curve $-1 0 0.90000000000000036 -10 0 0 1 I I #
coedge $-1 $433 $442 $374 $411 forward $399 $-1 #
edge $-1 $427 0 $415 2 $374 $443 forward 7 unknown #
coedge $-1 $444 $375 $378 $418 reversed $414 $-1 #
coedge $-1 $375 $444 $433 $445 forward $414 $-1 #
loop $-1 $-1 $412 $398 #
vertex $-1 $411 $446 #
straight-curve $-1 14 0 -8 1 0 0 I I #
coedge $-1 $378 $377 $407 $440 forward $379 $-1 #
edge $-1 $447 0 $380 0.90000000000000036 $378 $448 forward 7 unknown #
face $-1 $384 $379 $2 $-1 $449 reversed single #
point $-1 14 0 -8 #
vertex $-1 $408 $450 #
straight-curve $-1 14 0 -10 0 1 0 I I #
plane-surface $-1 40 0 -10 0 0 -1 -1 0 0 forward_v I I I I #
point $-1 0 0.90000000000000036 -10 #
coedge $-1 $401 $390 $442 $451 forward $361 $-1 #
coedge $-1 $390 $401 $392 $429 reversed $361 $-1 #
vertex $-1 $391 $452 #
straight-curve $-1 37 0 -10 -1 0 0 I I #
edge $-1 $394 0 $435 0.90000000000000036 $426 $453 forward 7 unknown #
point $-1 37 0 -10 #
straight-curve $-1 40 0 -7 0 1 0 I I #
plane-surface $-1 14 0.90000000000000036 -8 0 0 1 1 0 0 forward_v I I I I #
coedge $-1 $454 $410 $413 $445 reversed $399 $-1 #
edge $-1 $435 0 $455 1 $404 $456 forward 7 unknown #
vertex $-1 $434 $457 #
ellipse-curve $-1 37.000000000000007 0.90000000000000036 -7.0000000000000062 0 -1 0 -7.1054273576010019e-015 0 -2.9999999999999938 1 I I #
coedge $-1 $439 $404 $454 $458 forward $44 $-1 #
point $-1 40 0.90000000000000036 -7 #
coedge $-1 $407 $437 $444 $459 reversed $44 $-1 #
edge $-1 $421 0 $447 2 $407 $460 forward 7 unknown #
straight-curve $-1 14 0.90000000000000036 -10 -1 0 0 I I #
coedge $-1 $410 $454 $425 $451 reversed $399 $-1 #
straight-curve $-1 36 0 -10 0 0 1 I I #
coedge $-1 $413 $412 $439 $459 forward $414 $-1 #
edge $-1 $461 0 $415 0.90000000000000036 $413 $462 forward 7 unknown #
point $-1 36 0 -8 #
vertex $-1 $440 $463 #
straight-curve $-1 14 0.90000000000000036 -8 0 -1 0 I I #
plane-surface $-1 14 0.90000000000000036 -10 -1 0 0 0 0 1 forward_v I I I I #
point $-1 14 0.90000000000000036 -10 #
edge $-1 $427 0 $455 0.90000000000000036 $425 $464 forward 7 unknown #
point $-1 36 0 -10 #
straight-curve $-1 37 0 -10 0 1 0 I I #
coedge $-1 $442 $433 $437 $458 reversed $399 $-1 #
vertex $-1 $458 $465 #
straight-curve $-1 37 0.90000000000000036 -10 -1 0 0 I I #
point $-1 37 0.90000000000000036 -10 #
edge $-1 $455 0 $461 2 $437 $466 forward 7 unknown #
edge $-1 $447 0 $461 22 $439 $467 forward 7 unknown #
straight-curve $-1 14 0.90000000000000036 -10 0 0 1 I I #
vertex $-1 $459 $468 #
straight-curve $-1 36 0.90000000000000036 -8 0 -1 0 I I #
point $-1 14 0.90000000000000036 -8 #
straight-curve $-1 36 0 -10 0 1 0 I I #
point $-1 36 0.90000000000000036 -10 #
straight-curve $-1 36 0.90000000000000036 -10 0 0 1 I I #
straight-curve $-1 14 0.90000000000000036 -8 1 0 0 I I #
point $-1 36 0.90000000000000036 -8 #
End-of-ACIS-data 