600 0 1 0           
94 GICL Pro/E ACIS Translator - Source: f:/data5/repository/PTC/V18/fly_small18/prt0001.prt - 6 0 13 ACIS 6.0.3 NT 24 Thu Apr 04 13:36:18 2002 
1 9.9999999999999995e-007 1e-010 
body $-1 $1 $-1 $-1 #
lump $-1 $-1 $2 $0 #
shell $-1 $-1 $-1 $3 $-1 $1 #
face $-1 $4 $5 $2 $-1 $6 reversed single #
face $-1 $7 $8 $2 $-1 $9 forward single #
loop $-1 $-1 $10 $3 #
plane-surface $-1 100 -13.5 -74 0 0 -1 -1 0 0 forward_v I I I I #
face $-1 $11 $12 $2 $-1 $13 forward single #
loop $-1 $-1 $14 $4 #
plane-surface $-1 54 2.5 -74 0 1 0 1 0 0 forward_v I I I I #
coedge $-1 $15 $16 $17 $18 reversed $5 $-1 #
face $-1 $19 $20 $2 $-1 $21 forward single #
loop $-1 $-1 $22 $7 #
cone-surface $-1 54 0 -74 0 0 -1 -2.5 0 0 1 I I 0 1 2.5 forward I I I I #
coedge $-1 $17 $23 $24 $25 reversed $8 $-1 #
coedge $-1 $26 $10 $27 $28 reversed $5 $-1 #
coedge $-1 $10 $26 $29 $30 reversed $5 $-1 #
coedge $-1 $31 $14 $10 $18 forward $8 $-1 #
edge $-1 $32 0 $33 12 $10 $34 forward 7 unknown #
face $-1 $35 $36 $2 $-1 $37 forward single #
loop $-1 $-1 $38 $11 #
plane-surface $-1 66 -2.5 -74 0 -1 0 -1 0 0 forward_v I I I I #
coedge $-1 $27 $39 $40 $41 reversed $12 $-1 #
coedge $-1 $14 $31 $42 $43 reversed $8 $-1 #
coedge $-1 $39 $27 $14 $25 forward $12 $-1 #
edge $-1 $32 0 $44 0.50000000000001421 $24 $45 forward 7 unknown #
coedge $-1 $16 $15 $46 $47 reversed $5 $-1 #
coedge $-1 $24 $22 $15 $28 forward $12 $-1 #
edge $-1 $48 0 $32 3.1415926535897931 $15 $49 forward 7 unknown #
coedge $-1 $50 $51 $16 $30 forward $36 $-1 #
edge $-1 $33 0 $52 3.1415926535897931 $16 $53 forward 7 unknown #
coedge $-1 $23 $17 $51 $54 forward $8 $-1 #
vertex $-1 $28 $55 #
vertex $-1 $30 $56 #
straight-curve $-1 54 2.5 -74 1 0 0 I I #
face $-1 $57 $58 $2 $-1 $59 forward single #
loop $-1 $-1 $51 $19 #
cone-surface $-1 66 0 -74 0 0 -1 -2.5 0 0 1 I I 0 1 2.5 forward I I I I #
coedge $-1 $46 $60 $50 $61 reversed $20 $-1 #
coedge $-1 $22 $24 $62 $63 reversed $12 $-1 #
coedge $-1 $60 $46 $22 $41 forward $20 $-1 #
edge $-1 $48 0 $64 0.5 $40 $65 forward 7 unknown #
coedge $-1 $66 $67 $23 $43 forward $68 $-1 #
edge $-1 $44 9.6633812063373625e-012 $69 11.999999999990294 $23 $70 forward 7 unknown #
vertex $-1 $63 $71 #
straight-curve $-1 54 2.5 -74 0 0 -1 I I #
coedge $-1 $40 $38 $26 $47 forward $20 $-1 #
edge $-1 $52 0 $48 12 $26 $72 forward 7 unknown #
vertex $-1 $47 $73 #
ellipse-curve $-1 54 0 -74 0 0 -1 0 -2.5 0 1 I I #
coedge $-1 $74 $29 $38 $61 forward $36 $-1 #
coedge $-1 $29 $74 $31 $54 reversed $36 $-1 #
vertex $-1 $30 $75 #
ellipse-curve $-1 66 0 -74 0 0 -1 0 2.5 0 1 I I #
edge $-1 $33 0 $69 0.5 $51 $76 forward 7 unknown #
point $-1 54 2.5 -74 #
point $-1 66 2.5 -74 #
face $-1 $77 $68 $2 $-1 $78 forward single #
loop $-1 $-1 $79 $35 #
torus-surface $-1 66 0 -74.5 0 0 -1 0.99999999999999989 1.5 -0.0029531263196673758 0.99999563951296311 0 forward_v I I I I #
coedge $-1 $38 $40 $80 $81 reversed $20 $-1 #
edge $-1 $52 0 $82 0.5 $50 $83 forward 7 unknown #
coedge $-1 $84 $85 $39 $63 forward $86 $-1 #
edge $-1 $64 0 $44 3.1415926535975296 $39 $87 forward 7 unknown #
vertex $-1 $81 $88 #
straight-curve $-1 54 -2.5 -74 0 0 -1 I I #
coedge $-1 $89 $42 $79 $90 reversed $68 $-1 #
coedge $-1 $42 $91 $84 $92 forward $68 $-1 #
loop $-1 $-1 $93 $57 #
vertex $-1 $94 $95 #
straight-curve $-1 54 2.5 -74.5 1 0 0 I I #
point $-1 54.000000000009663 2.5 -74.500000000000014 #
straight-curve $-1 66 -2.5 -74 -1 0 0 I I #
point $-1 54 -2.5 -74 #
coedge $-1 $51 $50 $96 $94 reversed $36 $-1 #
point $-1 66 -2.5 -74 #
straight-curve $-1 66 2.5 -74 0 0 -1 I I #
face $-1 $97 $98 $2 $-1 $99 reversed single #
cone-surface $-1 53.987999198992455 1 -74.5 1 0 0 0 1.5 0 1 I I 0 1 1.5 forward I I I I #
coedge $-1 $96 $100 $66 $90 forward $58 $-1 #
coedge $-1 $101 $102 $60 $81 forward $103 $-1 #
edge $-1 $82 9.6349594969069585e-012 $64 11.999999999990322 $60 $104 forward 7 unknown #
vertex $-1 $94 $105 #
straight-curve $-1 66 -2.5 -74 0 0 -1 I I #
coedge $-1 $106 $62 $67 $92 reversed $86 $-1 #
coedge $-1 $62 $106 $101 $107 forward $86 $-1 #
loop $-1 $-1 $85 $108 #
ellipse-curve $-1 54 0 -74.5 0 0 -1 9.6775920610525645e-012 -2.5 0 1 I I #
point $-1 54.000000000009678 -2.5 -74.5 #
coedge $-1 $109 $66 $110 $111 reversed $68 $-1 #
edge $-1 $112 3.2807780797437025e-054 $69 1.5707963267949041 $66 $113 forward 7 unknown #
coedge $-1 $67 $114 $115 $116 reversed $68 $-1 #
edge $-1 $117 -5.1070259132757201e-015 $44 1.570796326794885 $67 $118 forward 7 unknown #
coedge $-1 $114 $119 $120 $121 reversed $68 $-1 #
edge $-1 $69 0 $82 3.1415926535975296 $74 $122 forward 7 unknown #
point $-1 65.999999999990294 2.5 -74.5 #
coedge $-1 $123 $79 $74 $94 forward $58 $-1 #
face $-1 $124 $125 $2 $-1 $126 reversed single #
loop $-1 $-1 $127 $77 #
plane-surface $-1 56.290000000000006 3 -75.299999999999997 0 0 1 1 0 0 forward_v I I I I #
coedge $-1 $79 $123 $128 $129 reversed $58 $-1 #
coedge $-1 $130 $80 $85 $107 reversed $103 $-1 #
coedge $-1 $80 $131 $123 $132 forward $103 $-1 #
loop $-1 $-1 $133 $124 #
straight-curve $-1 66 -2.5 -74.5 -1 0 0 I I #
point $-1 65.999999999990365 -2.5 -74.5 #
coedge $-1 $85 $84 $134 $135 reversed $86 $-1 #
edge $-1 $136 0 $64 1.5707963267949052 $101 $137 forward 7 unknown #
face $-1 $138 $86 $2 $-1 $139 forward single #
coedge $-1 $140 $89 $141 $142 forward $68 $-1 #
coedge $-1 $128 $143 $89 $111 forward $144 $-1 #
edge $-1 $145 1.4210854715202004e-014 $112 0.37506484270240037 $110 $146 forward 7 unknown #
vertex $-1 $129 $147 #
ellipse-curve $-1 65.999999999989569 1.0000000000000018 -74.5 1 1.2691895452889168e-026 1.7147764689677085e-012 2.5721647034515627e-012 -1.1102230246251565e-014 -1.5 1 I I #
coedge $-1 $91 $93 $148 $149 forward $68 $-1 #
coedge $-1 $150 $134 $91 $116 forward $151 $-1 #
edge $-1 $117 7.8372863754339051e-012 $152 0.55506484271025869 $115 $153 forward 7 unknown #
vertex $-1 $116 $154 #
ellipse-curve $-1 54 0.99999999999999689 -74.5 1 0 0 0 3.1086244689504383e-015 -1.5 1 I I #
coedge $-1 $93 $155 $156 $157 forward $68 $-1 #
coedge $-1 $127 $158 $93 $121 forward $98 $-1 #
edge $-1 $159 0 $160 3 $93 $161 forward 7 unknown #
ellipse-curve $-1 66 0 -74.5 0 0 -1 -9.7060137704829685e-012 2.5 0 1 I I #
coedge $-1 $100 $96 $102 $132 reversed $58 $-1 #
face $-1 $162 $103 $2 $-1 $163 forward single #
loop $-1 $-1 $164 $97 #
plane-surface $-1 59.290000000000006 3 -75.299999999999997 1 0 0 0 0 -1 forward_v I I I I #
coedge $-1 $165 $120 $166 $167 forward $98 $-1 #
coedge $-1 $168 $110 $100 $129 forward $144 $-1 #
edge $-1 $112 0 $169 3.1415926535193499 $128 $170 forward 7 unknown #
coedge $-1 $171 $101 $172 $173 reversed $103 $-1 #
coedge $-1 $102 $174 $168 $175 reversed $103 $-1 #
edge $-1 $169 0 $82 1.570796326794893 $123 $176 forward 7 unknown #
coedge $-1 $177 $178 $179 $180 reversed $103 $-1 #
coedge $-1 $115 $172 $106 $135 forward $151 $-1 #
edge $-1 $136 0 $117 3.1415926535271659 $134 $181 forward 7 unknown #
vertex $-1 $135 $182 #
ellipse-curve $-1 54.000000000010417 -1.000000000000004 -74.5 -1 -1.4808496912808834e-026 1.7100395173959744e-012 -2.5650592760939617e-012 1.2989609388114332e-014 -1.5 1 I I #
face $-1 $183 $151 $2 $-1 $184 forward single #
torus-surface $-1 54 0 -74.5 0 0 -1 1 1.5 0.0029531263196602708 -0.99999563951296322 0 forward_v I I I I #
coedge $-1 $185 $109 $186 $187 reversed $68 $-1 #
coedge $-1 $188 $189 $109 $142 reversed $190 $-1 #
edge $-1 $145 0 $191 0.99999999999999989 $109 $192 forward 7 unknown #
coedge $-1 $110 $168 $188 $193 forward $144 $-1 #
loop $-1 $-1 $143 $194 #
vertex $-1 $111 $195 #
straight-curve $-1 65.624935157289741 1 -76 1 0 0 I I #
point $-1 65.999999999992141 0.99999999999999067 -76 #
coedge $-1 $196 $197 $114 $149 reversed $198 $-1 #
edge $-1 $159 0 $152 0.99999999999999989 $114 $199 forward 7 unknown #
coedge $-1 $172 $115 $197 $200 reversed $151 $-1 #
loop $-1 $-1 $172 $138 #
vertex $-1 $200 $201 #
straight-curve $-1 54 1 -76 1 0 0 I I #
point $-1 54.000000000007837 0.99999999999999234 -76 #
coedge $-1 $119 $202 $203 $204 reversed $68 $-1 #
coedge $-1 $205 $166 $119 $157 reversed $125 $-1 #
edge $-1 $206 0 $160 1.0082600822510392 $119 $207 forward 7 unknown #
coedge $-1 $120 $165 $196 $208 reversed $98 $-1 #
vertex $-1 $149 $209 #
vertex $-1 $157 $210 #
straight-curve $-1 56.290000000000006 2.2688577540449537 -75.299999999999997 1 0 0 I I #
face $-1 $211 $212 $2 $-1 $213 forward single #
cone-surface $-1 66.012000801007545 -1 -74.5 -1 0 0 0 -1.5 0 1 I I 0 1 1.5 forward I I I I #
coedge $-1 $166 $205 $178 $214 forward $125 $-1 #
coedge $-1 $158 $127 $215 $216 forward $98 $-1 #
coedge $-1 $156 $164 $127 $167 reversed $125 $-1 #
edge $-1 $160 0 $217 4.5377155080898985 $166 $218 forward 7 unknown #
coedge $-1 $143 $128 $131 $175 forward $144 $-1 #
vertex $-1 $175 $219 #
ellipse-curve $-1 65.999999999960849 -3.5527136788005009e-015 -76 0 0 -1 3.1292302082874812e-011 0.99999999999999423 0 1 I I #
coedge $-1 $215 $130 $220 $221 forward $103 $-1 #
coedge $-1 $134 $150 $130 $173 forward $151 $-1 #
edge $-1 $222 0 $136 0.55506484270240719 $172 $223 forward 7 unknown #
coedge $-1 $131 $224 $225 $226 forward $103 $-1 #
edge $-1 $169 0 $227 0.37506484271025897 $168 $228 forward 7 unknown #
ellipse-curve $-1 66 -0.99999999999999445 -74.5 -1 0 0 0 -5.5511151231257827e-015 -1.5 1 I I #
coedge $-1 $229 $133 $230 $231 forward $103 $-1 #
coedge $-1 $133 $215 $164 $214 reversed $103 $-1 #
coedge $-1 $232 $233 $133 $180 forward $212 $-1 #
edge $-1 $234 0 $235 0.54999999999999716 $179 $236 forward 7 unknown #
ellipse-curve $-1 54.000000000039158 3.5527136788005009e-015 -76 0 0 -1 -3.1306512937590014e-011 -0.99999999999999456 0 1 I I #
point $-1 54.000000000007851 -0.99999999999999101 -76 #
face $-1 $-1 $198 $2 $-1 $237 reversed single #
plane-surface $-1 100 -13.5 -76 0 0 -1 -1 0 0 forward_v I I I I #
coedge $-1 $238 $140 $239 $240 reversed $68 $-1 #
coedge $-1 $241 $242 $140 $187 forward $243 $-1 #
edge $-1 $244 0 $191 3 $140 $245 forward 7 unknown #
coedge $-1 $225 $141 $143 $193 reversed $190 $-1 #
coedge $-1 $141 $225 $241 $246 reversed $190 $-1 #
loop $-1 $-1 $225 $247 #
vertex $-1 $187 $248 #
intcurve-curve $-1 forward { surfintcur full nurbs 3 open 11 
	0 3 0.09818286373820076 1 0.19667368814248939 1 0.2954053800446963 1 0.39430110201778446 1 
	0.49358641952899784 1 0.59340165736934536 1 0.69380408697120088 1 0.79504056268355972 1 0.89714370699001367 1 
	0.99999999999999989 3 
	65.624935157289741 1 -76 1 
	65.62530610379649 1.0680705237286181 -76.000115106039829 1 
	65.61541671825924 1.2037384305735375 -75.990864208679611 1 
	65.56998281183958 1.4103799997981967 -75.947945721636117 1.0000000000000002 
	65.489451939784885 1.6055410490598667 -75.877244323500676 0.99999999999999989 
	65.375739516370388 1.7778182893865564 -75.787176034176184 0.99999999999999978 
	65.22475643440913 1.9278861855573186 -75.682909288018692 1.0000000000000002 
	65.034105455242539 2.0518876693554438 -75.573042896173689 1.0000000000000002 
	64.806848552675177 2.1472641627076237 -75.469105387712403 0.99999999999999978 
	64.537570167604372 2.2166458627474439 -75.379203584418931 1 
	64.228767201661569 2.2590554278759738 -75.315482384574295 1.0000000000000002 
	64.006361253339875 2.268714428778249 -75.301007202166375 0.99999999999999978 
	63.889999999999965 2.2688577540449542 -75.299999999999997 1 
	0.001 
	cone 63.890000000000001 3 -77.799999999999997 0 1 0 -2.5 0 0 1 I I 0 1 2.5 forward I I I I 
	cone 53.987999198992455 1 -74.5 1 0 0 0 1.5 0 1 I I 0 1 1.5 forward I I I I 
	nullbs 
	nullbs 
	I I 
	0 
	0 
	0 
	} I I #
edge $-1 $227 0 $145 2 $143 $249 forward 7 unknown #
face $-1 $108 $144 $2 $-1 $250 forward single #
point $-1 65.624935157289755 1 -76 #
coedge $-1 $220 $148 $158 $208 forward $198 $-1 #
coedge $-1 $148 $220 $150 $200 forward $198 $-1 #
loop $-1 $-1 $148 $183 #
intcurve-curve $-1 forward { surfintcur full nurbs 3 open 11 
	0 3 0.10284500003720584 1 0.20494087287002313 1 0.30617162327200276 1 0.40657465697265982 1 
	0.50640279006308453 1 0.60569876337063611 1 0.70459938462852234 1 0.80333497780913132 1 0.9018246504801376 1 
	0.99999999999999989 3 
	56.289999999999985 2.2688577540449542 -75.299999999999997 1 
	56.173763721841091 2.2687165122774573 -75.301001491375956 1 
	55.951567214946344 2.2590760621562058 -75.315449759011955 1 
	55.642930664165036 2.2167348076302118 -75.379075652361394 0.99999999999999989 
	55.373782691020757 2.1474613526233406 -75.468862730350821 1.0000000000000002 
	55.146487633540701 2.0522103439167529 -75.572728517749596 1 
	54.955423691466038 1.9280676581077216 -75.682781900028843 1.0000000000000002 
	54.804239117025809 1.7778080763120825 -75.78718925807955 1.0000000000000002 
	54.69048749180763 1.6054417235562899 -75.877293814522872 1 
	54.6099339765778 1.4101319061231425 -75.948021597973025 1 
	54.564559962400871 1.2035030922476833 -75.990886955618578 0.99999999999999978 
	54.554686225170038 1.0679713095315151 -76.000122948080303 1 
	54.555064842710266 1 -76 1 
	0.001 
	cone 56.290000000000006 3 -77.799999999999997 0 1 0 -2.5 0 0 1 I I 0 1 2.5 forward I I I I 
	cone 53.987999198992455 1 -74.5 1 0 0 0 1.5 0 1 I I 0 1 1.5 forward I I I I 
	nullbs 
	nullbs 
	I I 
	0 
	0 
	0 
	} I I #
edge $-1 $222 0 $152 2 $150 $251 forward 7 unknown #
point $-1 54.555064842710259 1 -76 #
coedge $-1 $155 $252 $253 $254 reversed $68 $-1 #
coedge $-1 $233 $232 $155 $204 forward $212 $-1 #
edge $-1 $206 0 $255 0.54999999999999716 $203 $256 forward 7 unknown #
coedge $-1 $164 $156 $232 $257 reversed $125 $-1 #
vertex $-1 $257 $258 #
ellipse-curve $-1 59.290000000000006 0.99999999999999289 -74.5 1 0 0 0 7.1054273576010019e-015 -1.5 1 I I #
edge $-1 $159 0 $259 4.5377155080899083 $196 $260 forward 7 unknown #
point $-1 56.290000000000006 2.2688577540449537 -75.299999999999997 #
point $-1 59.290000000000006 2.2688577540449488 -75.299999999999997 #
face $-1 $261 $262 $2 $-1 $263 reversed single #
loop $-1 $-1 $203 $162 #
plane-surface $-1 100 -13.5 -76 0 0 -1 -1 0 0 forward_v I I I I #
edge $-1 $235 0 $217 1.0082600822510406 $178 $264 forward 7 unknown #
coedge $-1 $178 $171 $165 $216 reversed $103 $-1 #
edge $-1 $217 0 $259 3.0000000000000213 $215 $265 forward 7 unknown #
vertex $-1 $214 $266 #
straight-curve $-1 59.290000000000006 2.2688577540449488 -75.299999999999997 0 -1 0 I I #
point $-1 66 -1 -76 #
coedge $-1 $197 $196 $171 $221 reversed $198 $-1 #
edge $-1 $222 0 $259 1.0000000000000002 $171 $267 forward 7 unknown #
vertex $-1 $200 $268 #
straight-curve $-1 54.555064842710259 -1 -76 -1 0 0 I I #
coedge $-1 $174 $269 $270 $271 reversed $103 $-1 #
coedge $-1 $189 $188 $174 $226 reversed $190 $-1 #
edge $-1 $272 0 $227 0.99999999999999989 $174 $273 forward 7 unknown #
vertex $-1 $175 $274 #
straight-curve $-1 66 -1 -76 -1 0 0 I I #
coedge $-1 $275 $177 $276 $277 reversed $103 $-1 #
coedge $-1 $278 $279 $177 $231 reversed $262 $-1 #
edge $-1 $234 0 $280 0.74758434966905296 $177 $281 forward 7 unknown #
coedge $-1 $203 $179 $205 $257 forward $212 $-1 #
coedge $-1 $179 $203 $278 $282 reversed $212 $-1 #
vertex $-1 $180 $283 #
vertex $-1 $257 $284 #
straight-curve $-1 59.840000000000003 -1 -76 -1 0 0 I I #
cone-surface $-1 56.290000000000006 3 -77.799999999999997 0 1 0 -2.5 0 0 1 I I 0 1 2.5 forward I I I I #
coedge $-1 $285 $185 $286 $287 reversed $68 $-1 #
coedge $-1 $288 $289 $185 $240 forward $290 $-1 #
edge $-1 $291 0 $244 1.008260082251041 $185 $292 forward 7 unknown #
coedge $-1 $270 $186 $189 $246 forward $243 $-1 #
coedge $-1 $186 $270 $288 $293 reversed $243 $-1 #
loop $-1 $-1 $241 $294 #
vertex $-1 $240 $295 #
straight-curve $-1 60.890000000000001 2.2688577540449537 -75.299999999999997 1 0 0 I I #
edge $-1 $191 1.3322676295501878e-015 $272 4.5377155080899092 $241 $296 forward 7 unknown #
face $-1 $194 $190 $2 $-1 $297 reversed single #
point $-1 63.890000000000001 2.2688577540449537 -75.299999999999997 #
straight-curve $-1 65.624935157289755 -1 -76 0 1 0 I I #
plane-surface $-1 100 -13.5 -76 0 0 -1 -1 0 0 forward_v I I I I #
straight-curve $-1 54.555064842710259 -1 -76 0 1 0 I I #
coedge $-1 $202 $285 $298 $299 reversed $68 $-1 #
coedge $-1 $279 $278 $202 $254 forward $262 $-1 #
edge $-1 $255 0 $300 0.7475843496690544 $202 $301 forward 7 unknown #
vertex $-1 $282 $302 #
straight-curve $-1 59.290000000000006 1 -76 1 0 0 I I #
edge $-1 $235 0 $206 2 $232 $303 forward 7 unknown #
point $-1 59.290000000000006 1 -76 #
vertex $-1 $216 $304 #
straight-curve $-1 56.290000000000006 2.2688577540449537 -75.299999999999997 0 -1 0 I I #
face $-1 $305 $306 $2 $-1 $307 reversed single #
loop $-1 $-1 $253 $211 #
plane-surface $-1 59.840000000000003 3 -76.309999999999988 -1 0 0 0 0 1 forward_v I I I I #
ellipse-curve $-1 59.290000000000006 -0.999999999999996 -74.5 -1 0 0 0 -3.9968028886505635e-015 -1.5 1 I I #
straight-curve $-1 59.290000000000006 -2.268857754044955 -75.299999999999997 -1 0 0 I I #
point $-1 59.290000000000006 -2.2688577540449497 -75.299999999999997 #
intcurve-curve $-1 forward { surfintcur full nurbs 3 open 11 
	0 3 0.098175349519862301 1 0.19666502219086857 1 0.29540061537147783 1 0.39430123662936367 1 
	0.49359720993691514 1 0.59342534302734007 1 0.69382837672799769 1 0.79505912712997673 1 0.89715499996279424 1 
	1.0000000000000002 3 
	54.555064842710259 -1 -76 1 
	54.55468622517003 -1.0679713095315142 -76.000122948080318 1 
	54.564559962400864 -1.2035030922476828 -75.990886955618592 1 
	54.609933976577814 -1.410131906123133 -75.948021597973025 1 
	54.690487491807609 -1.6054417235563101 -75.877293814522872 0.99999999999999989 
	54.804239117025858 -1.7778080763120605 -75.787189258079607 0.99999999999999956 
	54.955423691466024 -1.9280676581077223 -75.682781900028829 1.0000000000000002 
	55.146487633540708 -2.0522103439167498 -75.57272851774961 0.99999999999999989 
	55.373782691020764 -2.1474613526233566 -75.468862730350793 1.0000000000000002 
	55.64293066416505 -2.2167348076302078 -75.379075652361408 0.99999999999999978 
	55.951567214946337 -2.2590760621562063 -75.315449759011955 1 
	56.173763721841077 -2.2687165122774569 -75.301001491375942 1.0000000000000002 
	56.289999999999985 -2.2688577540449542 -75.299999999999997 1 
	0.001 
	cone 56.290000000000006 3 -77.799999999999997 0 1 0 -2.5 0 0 1 I I 0 1 2.5 forward I I I I 
	cone 66.012000801007545 -1 -74.5 -1 0 0 0 -1.5 0 1 I I 0 1 1.5 forward I I I I 
	nullbs 
	nullbs 
	I I 
	0 
	0 
	0 
	} I I #
point $-1 54.555064842710259 -1 -76 #
coedge $-1 $224 $308 $309 $310 forward $103 $-1 #
coedge $-1 $242 $241 $224 $271 forward $243 $-1 #
edge $-1 $272 3.5527136788005009e-014 $311 3 $224 $312 forward 7 unknown #
vertex $-1 $226 $313 #
intcurve-curve $-1 forward { surfintcur full nurbs 3 open 11 
	0 3 0.10285629300998635 1 0.20495943731644023 1 0.30619591302879856 1 0.4065983426306542 1 
	0.50641358047100204 1 0.60569889798221521 1 0.70459461995530326 1 0.80332631185751058 1 0.90181713626179905 1 
	0.99999999999999989 3 
	63.889999999999965 -2.2688577540449542 -75.299999999999997 1 
	64.006361253339875 -2.2687144287782481 -75.301007202166375 0.99999999999999978 
	64.228767201661569 -2.2590554278759716 -75.315482384574281 1 
	64.537570167604386 -2.2166458627474448 -75.379203584418917 1.0000000000000004 
	64.806848552675135 -2.1472641627076228 -75.469105387712432 0.99999999999999956 
	65.034105455242539 -2.0518876693554615 -75.573042896173661 1.0000000000000002 
	65.224756434409159 -1.9278861855573168 -75.68290928801872 1 
	65.375739516370345 -1.777818289386548 -75.787176034176156 0.99999999999999989 
	65.489451939784871 -1.6055410490598894 -75.877244323500676 1 
	65.569982811839594 -1.4103799997981954 -75.947945721636117 1 
	65.615416718259198 -1.2037384305735443 -75.990864208679625 1 
	65.62530610379649 -1.0680705237286205 -76.000115106039829 1.0000000000000002 
	65.624935157289741 -1 -76 1 
	0.001 
	cone 63.890000000000001 3 -77.799999999999997 0 1 0 -2.5 0 0 1 I I 0 1 2.5 forward I I I I 
	cone 66.012000801007545 -1 -74.5 -1 0 0 0 -1.5 0 1 I I 0 1 1.5 forward I I I I 
	nullbs 
	nullbs 
	I I 
	0 
	0 
	0 
	} I I #
point $-1 65.624935157289741 -1 -76 #
coedge $-1 $308 $229 $314 $315 reversed $103 $-1 #
coedge $-1 $316 $317 $229 $277 forward $306 $-1 #
edge $-1 $318 0 $280 0.5 $229 $319 forward 7 unknown #
coedge $-1 $253 $230 $233 $282 forward $262 $-1 #
coedge $-1 $230 $253 $316 $320 forward $262 $-1 #
vertex $-1 $277 $321 #
ellipse-curve $-1 59.840000000000003 -1.000000000000016 -74.500000000000057 -1 0 0 0 1.5987211554602254e-014 -1.4999999999999432 1 I I #
edge $-1 $234 0 $255 2 $233 $322 forward 7 unknown #
point $-1 59.840000000000003 -1 -76 #
point $-1 59.290000000000006 -1 -76 #
coedge $-1 $252 $238 $323 $324 forward $68 $-1 #
coedge $-1 $325 $326 $238 $287 forward $327 $-1 #
edge $-1 $328 0 $291 0.54999999999999716 $286 $329 forward 7 unknown #
coedge $-1 $309 $239 $242 $293 forward $290 $-1 #
coedge $-1 $239 $309 $325 $330 forward $290 $-1 #
loop $-1 $-1 $239 $331 #
vertex $-1 $330 $332 #
ellipse-curve $-1 60.890000000000001 0.99999999999999289 -74.5 1 0 0 0 7.1054273576010019e-015 -1.5 1 I I #
edge $-1 $244 0 $311 4.537715508089903 $242 $333 forward 7 unknown #
face $-1 $247 $243 $2 $-1 $334 reversed single #
point $-1 60.890000000000001 2.2688577540449537 -75.299999999999997 #
straight-curve $-1 63.890000000000001 2.268857754044955 -75.299999999999997 0 -1 0 I I #
cone-surface $-1 63.890000000000001 3 -77.799999999999997 0 1 0 -2.5 0 0 1 I I 0 1 2.5 forward I I I I #
coedge $-1 $317 $316 $252 $299 forward $306 $-1 #
edge $-1 $300 0 $335 0.5 $252 $336 forward 7 unknown #
vertex $-1 $254 $337 #
ellipse-curve $-1 59.840000000000003 1.0000000000000155 -74.500000000000057 1 0 0 0 -1.5543122344752192e-014 -1.4999999999999432 1 I I #
point $-1 59.840000000000003 1 -76 #
straight-curve $-1 59.290000000000006 -1 -76 0 1 0 I I #
point $-1 56.289999999999985 -2.2688577540449542 -75.299999999999997 #
face $-1 $338 $339 $2 $-1 $340 reversed single #
loop $-1 $-1 $317 $261 #
plane-surface $-1 59.840000000000003 3 -75.599999999999994 0 0 1 1 0 0 forward_v I I I I #
coedge $-1 $269 $275 $341 $342 reversed $103 $-1 #
coedge $-1 $289 $288 $269 $310 reversed $290 $-1 #
edge $-1 $343 0 $311 1.0082600822510406 $269 $344 forward 7 unknown #
vertex $-1 $271 $345 #
straight-curve $-1 63.890000000000001 -2.268857754044955 -75.299999999999997 -1 0 0 I I #
point $-1 63.889999999999965 -2.2688577540449542 -75.299999999999997 #
coedge $-1 $346 $347 $275 $315 forward $339 $-1 #
edge $-1 $348 0 $318 0.74758434966905252 $275 $349 forward 7 unknown #
coedge $-1 $298 $276 $279 $320 reversed $306 $-1 #
coedge $-1 $276 $298 $346 $350 forward $306 $-1 #
vertex $-1 $315 $351 #
straight-curve $-1 60.340000000000003 -2.0198039027185626 -75.599999999999994 -1 0 0 I I #
edge $-1 $300 0 $280 4.0396078054371216 $279 $352 forward 7 unknown #
point $-1 59.840000000000003 -2.019803902718559 -75.599999999999994 #
straight-curve $-1 59.840000000000003 -1 -76 0 1 0 I I #
coedge $-1 $347 $346 $285 $324 reversed $339 $-1 #
edge $-1 $328 0 $335 0.74758434966905452 $285 $353 forward 7 unknown #
coedge $-1 $341 $286 $289 $330 reversed $327 $-1 #
coedge $-1 $286 $341 $347 $354 forward $327 $-1 #
loop $-1 $-1 $326 $338 #
vertex $-1 $287 $355 #
straight-curve $-1 60.340000000000003 1 -76 1 0 0 I I #
edge $-1 $343 0 $291 2 $325 $356 forward 7 unknown #
face $-1 $294 $290 $2 $-1 $357 reversed single #
point $-1 60.890000000000001 1 -76 #
straight-curve $-1 60.890000000000001 2.2688577540449537 -75.299999999999997 0 -1 0 I I #
plane-surface $-1 60.890000000000001 3 -75.299999999999997 0 0 1 1 0 0 forward_v I I I I #
vertex $-1 $299 $358 #
straight-curve $-1 59.840000000000003 2.0198039027185621 -75.599999999999994 1 0 0 I I #
point $-1 59.840000000000003 2.0198039027185621 -75.599999999999994 #
face $-1 $331 $327 $2 $-1 $359 forward single #
loop $-1 $-1 $314 $305 #
plane-surface $-1 60.340000000000003 3 -75.599999999999994 1 0 0 0 0 -1 forward_v I I I I #
coedge $-1 $326 $325 $308 $342 forward $327 $-1 #
edge $-1 $343 0 $348 0.54999999999999716 $341 $360 forward 7 unknown #
vertex $-1 $342 $361 #
ellipse-curve $-1 60.890000000000001 -0.999999999999996 -74.5 -1 0 0 0 -3.9968028886505635e-015 -1.5 1 I I #
point $-1 60.890000000000001 -2.2688577540449497 -75.299999999999997 #
coedge $-1 $323 $314 $317 $350 reversed $339 $-1 #
coedge $-1 $314 $323 $326 $354 reversed $339 $-1 #
vertex $-1 $342 $362 #
ellipse-curve $-1 60.340000000000003 -1.000000000000016 -74.500000000000057 -1 0 0 0 1.5987211554602254e-014 -1.4999999999999432 1 I I #
edge $-1 $335 -3.9968028886505635e-015 $318 4.0396078054371163 $346 $363 forward 7 unknown #
point $-1 60.340000000000003 -2.0198039027185581 -75.599999999999994 #
straight-curve $-1 59.840000000000003 2.0198039027185621 -75.599999999999994 0 -1 0 I I #
ellipse-curve $-1 60.340000000000003 1.0000000000000164 -74.500000000000057 1 0 0 0 -1.6431300764452317e-014 -1.4999999999999432 1 I I #
edge $-1 $348 0 $328 2 $326 $364 forward 7 unknown #
point $-1 60.340000000000003 1 -76 #
straight-curve $-1 60.890000000000001 -1 -76 0 1 0 I I #
plane-surface $-1 60.890000000000001 3 -76.299999999999997 -1 0 0 0 0 1 forward_v I I I I #
point $-1 60.340000000000003 2.0198039027185621 -75.599999999999994 #
plane-surface $-1 100 -13.5 -76 0 0 -1 -1 0 0 forward_v I I I I #
straight-curve $-1 60.890000000000001 -1 -76 -1 0 0 I I #
point $-1 60.890000000000001 -1 -76 #
point $-1 60.340000000000003 -1 -76 #
straight-curve $-1 60.340000000000003 2.0198039027185581 -75.599999999999994 0 -1 0 I I #
straight-curve $-1 60.340000000000003 -1 -76 0 1 0 I I #
End-of-ACIS-data 