600 0 1 0           
87 GICL ACIS Healer - Source: /gicl/data5/repository/PTC/V18/fly_small18/prt0001.sat - 6 0 18 ACIS 6.0.3 Solaris 24 Sat Apr 13 22:06:55 2002 
1 9.999999999999999547e-07 1.000000000000000036e-10 
body $-1 $1 $-1 $-1 #
lump $-1 $-1 $2 $0 #
shell $-1 $-1 $-1 $3 $-1 $1 #
face $-1 $4 $5 $2 $-1 $6 reversed single #
face $-1 $7 $8 $2 $-1 $9 forward single #
loop $-1 $-1 $10 $3 #
plane-surface $-1 100 -13.5 -74 0 0 -1 -1 0 0 forward_v I I I I #
face $-1 $11 $12 $2 $-1 $13 forward single #
loop $-1 $-1 $14 $4 #
plane-surface $-1 54 2.5 -74 0 1 0 1 0 0 forward_v I I I I #
coedge $-1 $15 $16 $17 $18 reversed $5 $-1 #
face $-1 $19 $20 $2 $-1 $21 forward single #
loop $-1 $-1 $22 $7 #
cone-surface $-1 54 0 -74 0 0 -1 -2.5 0 0 1 I I 0 1 2.5 forward I I I I #
coedge $-1 $17 $23 $24 $25 reversed $8 $-1 #
coedge $-1 $26 $10 $27 $28 reversed $5 $-1 #
coedge $-1 $10 $26 $29 $30 reversed $5 $-1 #
coedge $-1 $31 $14 $10 $18 forward $8 $-1 #
edge $-1 $32 0 $33 12 $10 $34 forward 7 unknown #
face $-1 $35 $36 $2 $-1 $37 forward single #
loop $-1 $-1 $38 $11 #
plane-surface $-1 66 -2.5 -74 0 -1 0 -1 0 0 forward_v I I I I #
coedge $-1 $27 $39 $40 $41 reversed $12 $-1 #
coedge $-1 $14 $31 $42 $43 reversed $8 $-1 #
coedge $-1 $39 $27 $14 $25 forward $12 $-1 #
edge $-1 $32 0 $44 0.5000000000000142109 $24 $45 forward 7 unknown #
coedge $-1 $16 $15 $46 $47 reversed $5 $-1 #
coedge $-1 $24 $22 $15 $28 forward $12 $-1 #
edge $-1 $48 0 $32 3.141592653589793116 $15 $49 forward 7 unknown #
coedge $-1 $50 $51 $16 $30 forward $36 $-1 #
edge $-1 $33 0 $52 3.141592653589793116 $16 $53 forward 7 unknown #
coedge $-1 $23 $17 $51 $54 forward $8 $-1 #
vertex $-1 $28 $55 #
vertex $-1 $30 $56 #
straight-curve $-1 54 2.5 -74 1 0 0 I I #
face $-1 $57 $58 $2 $-1 $59 forward single #
loop $-1 $-1 $51 $19 #
cone-surface $-1 66 0 -74 0 0 -1 -2.5 0 0 1 I I 0 1 2.5 forward I I I I #
coedge $-1 $46 $60 $50 $61 reversed $20 $-1 #
coedge $-1 $22 $24 $62 $63 reversed $12 $-1 #
coedge $-1 $60 $46 $22 $41 forward $20 $-1 #
edge $-1 $48 0 $64 0.5 $40 $65 forward 7 unknown #
coedge $-1 $66 $67 $23 $43 forward $68 $-1 #
edge $-1 $44 9.663381206337362528e-12 $69 11.99999999999029399 $23 $70 forward 7 unknown #
vertex $-1 $63 $71 #
straight-curve $-1 54 2.5 -74 0 0 -1 I I #
coedge $-1 $40 $38 $26 $47 forward $20 $-1 #
edge $-1 $52 0 $48 12 $26 $72 forward 7 unknown #
vertex $-1 $47 $73 #
ellipse-curve $-1 54 0 -74 0 0 -1 0 -2.5 0 1 I I #
coedge $-1 $74 $29 $38 $61 forward $36 $-1 #
coedge $-1 $29 $74 $31 $54 reversed $36 $-1 #
vertex $-1 $30 $75 #
ellipse-curve $-1 66 0 -74 0 0 -1 0 2.5 0 1 I I #
edge $-1 $33 0 $69 0.5 $51 $76 forward 7 unknown #
point $-1 54 2.5 -74 #
point $-1 66 2.5 -74 #
face $-1 $77 $68 $2 $-1 $78 forward single #
loop $-1 $-1 $79 $35 #
torus-surface $-1 66 0 -74.5 0 0 -1 0.999999999999999889 1.5 -0.002953126319667375831 0.9999956395129631082 0 forward_v I I I I #
coedge $-1 $38 $40 $80 $81 reversed $20 $-1 #
edge $-1 $52 0 $82 0.5 $50 $83 forward 7 unknown #
coedge $-1 $84 $85 $39 $63 forward $86 $-1 #
edge $-1 $64 0 $44 3.141592653597529594 $39 $87 forward 7 unknown #
vertex $-1 $81 $88 #
straight-curve $-1 54 -2.5 -74 0 0 -1 I I #
coedge $-1 $89 $42 $79 $90 reversed $68 $-1 #
coedge $-1 $42 $91 $84 $92 forward $68 $-1 #
loop $-1 $-1 $93 $57 #
vertex $-1 $94 $95 #
straight-curve $-1 54 2.5 -74.5 1 0 0 I I #
point $-1 54.00000000000966338 2.5 -74.50000000000001421 #
straight-curve $-1 66 -2.5 -74 -1 0 0 I I #
point $-1 54 -2.5 -74 #
coedge $-1 $51 $50 $96 $94 reversed $36 $-1 #
point $-1 66 -2.5 -74 #
straight-curve $-1 66 2.5 -74 0 0 -1 I I #
face $-1 $97 $98 $2 $-1 $99 reversed single #
cone-surface $-1 53.98799919899245481 1 -74.5 1 0 0 0 1.5 0 1 I I 0 1 1.5 forward I I I I #
coedge $-1 $96 $100 $66 $90 forward $58 $-1 #
coedge $-1 $101 $102 $60 $81 forward $103 $-1 #
edge $-1 $82 9.63495949690695852e-12 $64 11.99999999999032241 $60 $104 forward 7 unknown #
vertex $-1 $94 $105 #
straight-curve $-1 66 -2.5 -74 0 0 -1 I I #
coedge $-1 $106 $62 $67 $92 reversed $86 $-1 #
coedge $-1 $62 $106 $101 $107 forward $86 $-1 #
loop $-1 $-1 $85 $108 #
ellipse-curve $-1 54 0 -74.5 0 0 -1 9.677592061052564532e-12 -2.5 0 1 I I #
point $-1 54.00000000000967759 -2.5 -74.5 #
coedge $-1 $109 $66 $110 $111 reversed $68 $-1 #
edge $-1 $112 0 $69 1.570796326794904108 $66 $113 forward 7 unknown #
coedge $-1 $67 $114 $115 $116 reversed $68 $-1 #
edge $-1 $117 -5.107025913275720086e-15 $44 1.570796326794885012 $67 $118 forward 7 unknown #
coedge $-1 $114 $119 $120 $121 reversed $68 $-1 #
edge $-1 $69 0 $82 3.141592653597529594 $74 $122 forward 7 unknown #
point $-1 65.99999999999029399 2.5 -74.5 #
coedge $-1 $123 $79 $74 $94 forward $58 $-1 #
face $-1 $124 $125 $2 $-1 $126 reversed single #
loop $-1 $-1 $127 $77 #
plane-surface $-1 56.29000000000000625 3 -75.29999999999999716 0 0 1 1 0 0 forward_v I I I I #
coedge $-1 $79 $123 $128 $129 reversed $58 $-1 #
coedge $-1 $130 $80 $85 $107 reversed $103 $-1 #
coedge $-1 $80 $131 $123 $132 forward $103 $-1 #
loop $-1 $-1 $133 $124 #
straight-curve $-1 66 -2.5 -74.5 -1 0 0 I I #
point $-1 65.99999999999036504 -2.5 -74.5 #
coedge $-1 $85 $84 $134 $135 reversed $86 $-1 #
edge $-1 $136 0 $64 1.57079632679490544 $101 $137 forward 7 unknown #
face $-1 $138 $86 $2 $-1 $139 forward single #
coedge $-1 $140 $89 $141 $142 forward $68 $-1 #
coedge $-1 $128 $143 $89 $111 forward $144 $-1 #
edge $-1 $145 1.421085471520200372e-14 $112 0.3750648427024003695 $110 $146 forward 7 unknown #
vertex $-1 $129 $147 #
ellipse-curve $-1 65.99999999998956923 1.000000000000001776 -74.5 1 1.269189545288916755e-26 1.714776468967708516e-12 2.572164703451562673e-12 -1.11022302462515654e-14 -1.5 1 I I #
coedge $-1 $91 $93 $148 $149 forward $68 $-1 #
coedge $-1 $150 $134 $91 $116 forward $151 $-1 #
edge $-1 $117 7.83728637543390505e-12 $152 0.5550648427102586879 $115 $153 forward 7 unknown #
vertex $-1 $116 $154 #
ellipse-curve $-1 54 0.9999999999999968914 -74.5 1 0 0 0 3.108624468950438313e-15 -1.5 1 I I #
coedge $-1 $93 $155 $156 $157 forward $68 $-1 #
coedge $-1 $127 $158 $93 $121 forward $98 $-1 #
edge $-1 $159 0 $160 3 $93 $161 forward 7 unknown #
ellipse-curve $-1 66 0 -74.5 0 0 -1 -9.706013770482968539e-12 2.5 0 1 I I #
coedge $-1 $100 $96 $102 $132 reversed $58 $-1 #
face $-1 $162 $103 $2 $-1 $163 forward single #
loop $-1 $-1 $164 $97 #
plane-surface $-1 59.29000000000000625 3 -75.29999999999999716 1 0 0 0 0 -1 forward_v I I I I #
coedge $-1 $165 $120 $166 $167 forward $98 $-1 #
coedge $-1 $168 $110 $100 $129 forward $144 $-1 #
edge $-1 $112 0 $169 3.141592653519349909 $128 $170 forward 7 unknown #
coedge $-1 $171 $101 $172 $173 reversed $103 $-1 #
coedge $-1 $102 $174 $168 $175 reversed $103 $-1 #
edge $-1 $169 0 $82 1.570796326794893005 $123 $176 forward 7 unknown #
coedge $-1 $177 $178 $179 $180 reversed $103 $-1 #
coedge $-1 $115 $172 $106 $135 forward $151 $-1 #
edge $-1 $136 0 $117 3.141592653527165879 $134 $181 forward 7 unknown #
vertex $-1 $135 $182 #
ellipse-curve $-1 54.00000000001041656 -1.000000000000003997 -74.5 -1 -1.480849691280883361e-26 1.71003951739597438e-12 -2.565059276093961671e-12 1.298960938811433152e-14 -1.5 1 I I #
face $-1 $183 $151 $2 $-1 $184 forward single #
torus-surface $-1 54 0 -74.5 0 0 -1 1 1.5 0.002953126319660270838 -0.9999956395129632192 0 forward_v I I I I #
coedge $-1 $185 $109 $186 $187 reversed $68 $-1 #
coedge $-1 $188 $189 $109 $142 reversed $190 $-1 #
edge $-1 $145 0 $191 0.999999999999999889 $109 $192 forward 7 unknown #
coedge $-1 $110 $168 $188 $193 forward $144 $-1 #
loop $-1 $-1 $143 $194 #
vertex $-1 $111 $195 #
straight-curve $-1 65.62493515728974103 1 -76 1 0 0 I I #
point $-1 65.9999999999921414 0.9999999999999906741 -76 #
coedge $-1 $196 $197 $114 $149 reversed $198 $-1 #
edge $-1 $159 0 $152 0.999999999999999889 $114 $199 forward 7 unknown #
coedge $-1 $172 $115 $197 $200 reversed $151 $-1 #
loop $-1 $-1 $172 $138 #
vertex $-1 $200 $201 #
straight-curve $-1 54 1 -76 1 0 0 I I #
point $-1 54.00000000000783729 0.9999999999999923395 -76 #
coedge $-1 $119 $202 $203 $204 reversed $68 $-1 #
coedge $-1 $205 $166 $119 $157 reversed $125 $-1 #
edge $-1 $206 0 $160 1.008260082251039247 $119 $207 forward 7 unknown #
coedge $-1 $120 $165 $196 $208 reversed $98 $-1 #
vertex $-1 $149 $209 #
vertex $-1 $157 $210 #
straight-curve $-1 56.29000000000000625 2.268857754044953712 -75.29999999999999716 1 0 0 I I #
face $-1 $211 $212 $2 $-1 $213 forward single #
cone-surface $-1 66.01200080100754519 -1 -74.5 -1 0 0 0 -1.5 0 1 I I 0 1 1.5 forward I I I I #
coedge $-1 $166 $205 $178 $214 forward $125 $-1 #
coedge $-1 $158 $127 $215 $216 forward $98 $-1 #
coedge $-1 $156 $164 $127 $167 reversed $125 $-1 #
edge $-1 $160 0 $217 4.537715508089898542 $166 $218 forward 7 unknown #
coedge $-1 $143 $128 $131 $175 forward $144 $-1 #
vertex $-1 $175 $219 #
ellipse-curve $-1 65.9999999999608491 -3.552713678800500929e-15 -76 0 0 -1 3.129230208287481219e-11 0.9999999999999942268 0 1 I I #
coedge $-1 $215 $130 $220 $221 forward $103 $-1 #
coedge $-1 $134 $150 $130 $173 forward $151 $-1 #
edge $-1 $222 0 $136 0.5550648427024071907 $172 $223 forward 7 unknown #
coedge $-1 $131 $224 $225 $226 forward $103 $-1 #
edge $-1 $169 0 $227 0.3750648427102589721 $168 $228 forward 7 unknown #
ellipse-curve $-1 66 -0.9999999999999944489 -74.5 -1 0 0 0 -5.551115123125782702e-15 -1.5 1 I I #
coedge $-1 $229 $133 $230 $231 forward $103 $-1 #
coedge $-1 $133 $215 $164 $214 reversed $103 $-1 #
coedge $-1 $232 $233 $133 $180 forward $212 $-1 #
edge $-1 $234 0 $235 0.5499999999999971578 $179 $236 forward 7 unknown #
ellipse-curve $-1 54.00000000003915801 3.552713678800500929e-15 -76 0 0 -1 -3.130651293759001419e-11 -0.9999999999999945599 0 1 I I #
point $-1 54.0000000000078515 -0.9999999999999910072 -76 #
face $-1 $-1 $198 $2 $-1 $237 reversed single #
plane-surface $-1 100 -13.5 -76 0 0 -1 -1 0 0 forward_v I I I I #
coedge $-1 $238 $140 $239 $240 reversed $68 $-1 #
coedge $-1 $241 $242 $140 $187 forward $243 $-1 #
edge $-1 $244 0 $191 3 $140 $245 forward 7 unknown #
coedge $-1 $225 $141 $143 $193 reversed $190 $-1 #
coedge $-1 $141 $225 $241 $246 reversed $190 $-1 #
loop $-1 $-1 $225 $247 #
vertex $-1 $187 $248 #
intcurve-curve $-1 forward { surfintcur full nurbs 3 open 11 
	0 3 0.09818286373820075963 1 0.1966736881424893946 1 0.2954053800446962974 1 0.394301102017784455 1 
	0.493586419528997844 1 0.5934016573693453589 1 0.693804086971200884 1 0.795040562683559715 1 0.8971437069900136674 1 
	0.999999999999999889 3 
	65.62493515728974103 1 -76 1 
	65.62530610379648977 1.068070523728618104 -76.00011510603982856 1 
	65.61541671825924027 1.203738430573537466 -75.99086420867961067 1 
	65.56998281183957999 1.410379999798196726 -75.9479457216361169 1.000000000000000222 
	65.48945193978488533 1.605541049059866721 -75.87724432350067616 0.999999999999999889 
	65.37573951637038761 1.777818289386556394 -75.7871760341761842 0.999999999999999778 
	65.22475643440913018 1.92788618555731861 -75.682909288018692 1.000000000000000222 
	65.03410545524253905 2.051887669355443755 -75.57304289617368909 1.000000000000000222 
	64.80684855267517719 2.147264162707623658 -75.4691053877124034 0.999999999999999778 
	64.53757016760437182 2.216645862747443907 -75.37920358441893143 1 
	64.22876720166156872 2.259055427875973798 -75.31548238457429534 1.000000000000000222 
	64.00636125333987536 2.268714428778249026 -75.30100720216637455 0.999999999999999778 
	63.88999999999996504 2.268857754044954156 -75.29999999999999716 1 
	0.001000000000000000021 
	cone 63.89000000000000057 3 -77.79999999999999716 0 1 0 -2.5 0 0 1 I I 0 1 2.5 forward I I I I 
	cone 53.98799919899245481 1 -74.5 1 0 0 0 1.5 0 1 I I 0 1 1.5 forward I I I I 
	nullbs 
	nullbs 
	I I 
	0 
	0 
	0 
	} I I #
edge $-1 $227 0 $145 2 $143 $249 forward 7 unknown #
face $-1 $108 $144 $2 $-1 $250 forward single #
point $-1 65.62493515728975524 1 -76 #
coedge $-1 $220 $148 $158 $208 forward $198 $-1 #
coedge $-1 $148 $220 $150 $200 forward $198 $-1 #
loop $-1 $-1 $148 $183 #
intcurve-curve $-1 forward { surfintcur full nurbs 3 open 11 
	0 3 0.1028450000372058415 1 0.204940872870023133 1 0.3061716232720027575 1 0.4065746569726598203 1 
	0.5064027900630845291 1 0.6056987633706361063 1 0.7045993846285223405 1 0.8033349778091313231 1 0.9018246504801376018 1 
	0.999999999999999889 3 
	56.28999999999998494 2.268857754044954156 -75.29999999999999716 1 
	56.17376372184109101 2.268716512277457298 -75.30100149137595622 1 
	55.95156721494634411 2.259076062156205822 -75.31544975901195471 1 
	55.64293066416503564 2.216734807630211801 -75.37907565236139362 0.999999999999999889 
	55.37378269102075734 2.147461352623340591 -75.46886273035082127 1.000000000000000222 
	55.14648763354070127 2.052210343916752944 -75.57272851774959577 1 
	54.95542369146603789 1.928067658107721627 -75.68278190002884287 1.000000000000000222 
	54.80423911702580853 1.777808076312082486 -75.78718925807955031 1.000000000000000222 
	54.69048749180763025 1.60544172355628989 -75.87729381452287214 1 
	54.6099339765777998 1.410131906123142542 -75.94802159797302465 1 
	54.56455996240087103 1.203503092247683259 -75.99088695561857776 0.999999999999999778 
	54.55468622517003752 1.067971309531515089 -76.00012294808030333 1 
	54.55506484271026579 1 -76 1 
	0.001000000000000000021 
	cone 56.29000000000000625 3 -77.79999999999999716 0 1 0 -2.5 0 0 1 I I 0 1 2.5 forward I I I I 
	cone 53.98799919899245481 1 -74.5 1 0 0 0 1.5 0 1 I I 0 1 1.5 forward I I I I 
	nullbs 
	nullbs 
	I I 
	0 
	0 
	0 
	} I I #
edge $-1 $222 0 $152 2 $150 $251 forward 7 unknown #
point $-1 54.55506484271025869 1 -76 #
coedge $-1 $155 $252 $253 $254 reversed $68 $-1 #
coedge $-1 $233 $232 $155 $204 forward $212 $-1 #
edge $-1 $206 0 $255 0.5499999999999971578 $203 $256 forward 7 unknown #
coedge $-1 $164 $156 $232 $257 reversed $125 $-1 #
vertex $-1 $257 $258 #
ellipse-curve $-1 59.29000000000000625 0.9999999999999928946 -74.5 1 0 0 0 7.105427357601001859e-15 -1.5 1 I I #
edge $-1 $159 0 $259 4.537715508089908312 $196 $260 forward 7 unknown #
point $-1 56.29000000000000625 2.268857754044953712 -75.29999999999999716 #
point $-1 59.29000000000000625 2.268857754044948827 -75.29999999999999716 #
face $-1 $261 $262 $2 $-1 $263 reversed single #
loop $-1 $-1 $203 $162 #
plane-surface $-1 100 -13.5 -76 0 0 -1 -1 0 0 forward_v I I I I #
edge $-1 $235 0 $217 1.008260082251040579 $178 $264 forward 7 unknown #
coedge $-1 $178 $171 $165 $216 reversed $103 $-1 #
edge $-1 $217 0 $259 3.000000000000021316 $215 $265 forward 7 unknown #
vertex $-1 $214 $266 #
straight-curve $-1 59.29000000000000625 2.268857754044948827 -75.29999999999999716 0 -1 0 I I #
point $-1 66 -1 -76 #
coedge $-1 $197 $196 $171 $221 reversed $198 $-1 #
edge $-1 $222 0 $259 1.000000000000000222 $171 $267 forward 7 unknown #
vertex $-1 $200 $268 #
straight-curve $-1 54.55506484271025869 -1 -76 -1 0 0 I I #
coedge $-1 $174 $269 $270 $271 reversed $103 $-1 #
coedge $-1 $189 $188 $174 $226 reversed $190 $-1 #
edge $-1 $272 0 $227 0.999999999999999889 $174 $273 forward 7 unknown #
vertex $-1 $175 $274 #
straight-curve $-1 66 -1 -76 -1 0 0 I I #
coedge $-1 $275 $177 $276 $277 reversed $103 $-1 #
coedge $-1 $278 $279 $177 $231 reversed $262 $-1 #
edge $-1 $234 0 $280 0.747584349669052961 $177 $281 forward 7 unknown #
coedge $-1 $203 $179 $205 $257 forward $212 $-1 #
coedge $-1 $179 $203 $278 $282 reversed $212 $-1 #
vertex $-1 $180 $283 #
vertex $-1 $257 $284 #
straight-curve $-1 59.84000000000000341 -1 -76 -1 0 0 I I #
cone-surface $-1 56.29000000000000625 3 -77.79999999999999716 0 1 0 -2.5 0 0 1 I I 0 1 2.5 forward I I I I #
coedge $-1 $285 $185 $286 $287 reversed $68 $-1 #
coedge $-1 $288 $289 $185 $240 forward $290 $-1 #
edge $-1 $291 0 $244 1.008260082251041023 $185 $292 forward 7 unknown #
coedge $-1 $270 $186 $189 $246 forward $243 $-1 #
coedge $-1 $186 $270 $288 $293 reversed $243 $-1 #
loop $-1 $-1 $241 $294 #
vertex $-1 $240 $295 #
straight-curve $-1 60.89000000000000057 2.268857754044953712 -75.29999999999999716 1 0 0 I I #
edge $-1 $191 1.332267629550187849e-15 $272 4.5377155080899092 $241 $296 forward 7 unknown #
face $-1 $194 $190 $2 $-1 $297 reversed single #
point $-1 63.89000000000000057 2.268857754044953712 -75.29999999999999716 #
straight-curve $-1 65.62493515728975524 -1 -76 0 1 0 I I #
plane-surface $-1 100 -13.5 -76 0 0 -1 -1 0 0 forward_v I I I I #
straight-curve $-1 54.55506484271025869 -1 -76 0 1 0 I I #
coedge $-1 $202 $285 $298 $299 reversed $68 $-1 #
coedge $-1 $279 $278 $202 $254 forward $262 $-1 #
edge $-1 $255 0 $300 0.7475843496690544043 $202 $301 forward 7 unknown #
vertex $-1 $282 $302 #
straight-curve $-1 59.29000000000000625 1 -76 1 0 0 I I #
edge $-1 $235 0 $206 2 $232 $303 forward 7 unknown #
point $-1 59.29000000000000625 1 -76 #
vertex $-1 $216 $304 #
straight-curve $-1 56.29000000000000625 2.268857754044953712 -75.29999999999999716 0 -1 0 I I #
face $-1 $305 $306 $2 $-1 $307 reversed single #
loop $-1 $-1 $253 $211 #
plane-surface $-1 59.84000000000000341 3 -76.30999999999998806 -1 0 0 0 0 1 forward_v I I I I #
ellipse-curve $-1 59.29000000000000625 -0.9999999999999960032 -74.5 -1 0 0 0 -3.996802888650563546e-15 -1.5 1 I I #
straight-curve $-1 59.29000000000000625 -2.268857754044955044 -75.29999999999999716 -1 0 0 I I #
point $-1 59.29000000000000625 -2.268857754044949715 -75.29999999999999716 #
intcurve-curve $-1 forward { surfintcur full nurbs 3 open 11 
	0 3 0.09817534951986230107 1 0.1966650221908685658 1 0.295400615371477826 1 0.3943012366293636717 1 
	0.4935972099369151378 1 0.5934253430273400687 1 0.6938283767279976866 1 0.7950591271299767282 1 0.8971549999627942418 1 
	1.000000000000000222 3 
	54.55506484271025869 -1 -76 1 
	54.55468622517003041 -1.067971309531514201 -76.00012294808031754 1 
	54.56455996240086392 -1.203503092247682815 -75.99088695561859197 1 
	54.60993397657781401 -1.410131906123132994 -75.94802159797302465 1 
	54.69048749180760893 -1.605441723556310096 -75.87729381452287214 0.999999999999999889 
	54.80423911702585826 -1.777808076312060503 -75.78718925807960716 0.9999999999999995559 
	54.95542369146602368 -1.928067658107722293 -75.68278190002882866 1.000000000000000222 
	55.14648763354070837 -2.052210343916749835 -75.57272851774960998 0.999999999999999889 
	55.37378269102076445 -2.147461352623356579 -75.46886273035079284 1.000000000000000222 
	55.64293066416504985 -2.216734807630207804 -75.37907565236140783 0.999999999999999778 
	55.951567214946337 -2.259076062156206266 -75.31544975901195471 1 
	56.1737637218410768 -2.268716512277456854 -75.30100149137594201 1.000000000000000222 
	56.28999999999998494 -2.268857754044954156 -75.29999999999999716 1 
	0.001000000000000000021 
	cone 56.29000000000000625 3 -77.79999999999999716 0 1 0 -2.5 0 0 1 I I 0 1 2.5 forward I I I I 
	cone 66.01200080100754519 -1 -74.5 -1 0 0 0 -1.5 0 1 I I 0 1 1.5 forward I I I I 
	nullbs 
	nullbs 
	I I 
	0 
	0 
	0 
	} I I #
point $-1 54.55506484271025869 -1 -76 #
coedge $-1 $224 $308 $309 $310 forward $103 $-1 #
coedge $-1 $242 $241 $224 $271 forward $243 $-1 #
edge $-1 $272 3.552713678800500929e-14 $311 3 $224 $312 forward 7 unknown #
vertex $-1 $226 $313 #
intcurve-curve $-1 forward { surfintcur full nurbs 3 open 11 
	0 3 0.1028562930099863465 1 0.2049594373164402294 1 0.3061959130287985609 1 0.406598342630654197 1 
	0.506413580471002045 1 0.6056988979822152119 1 0.7045946199553032585 1 0.8033263118575105777 1 0.9018171362617990461 1 
	0.999999999999999889 3 
	63.88999999999996504 -2.268857754044954156 -75.29999999999999716 1 
	64.00636125333987536 -2.268714428778248138 -75.30100720216637455 0.999999999999999778 
	64.22876720166156872 -2.259055427875971578 -75.31548238457428113 1 
	64.53757016760438603 -2.216645862747444795 -75.37920358441891722 1.000000000000000444 
	64.80684855267513456 -2.14726416270762277 -75.46910538771243182 0.9999999999999995559 
	65.03410545524253905 -2.051887669355461519 -75.57304289617366067 1.000000000000000222 
	65.2247564344091586 -1.927886185557316834 -75.68290928801872042 1 
	65.37573951637034497 -1.777818289386547956 -75.78717603417615578 0.999999999999999889 
	65.48945193978487112 -1.605541049059889369 -75.87724432350067616 1 
	65.56998281183959421 -1.410379999798195394 -75.9479457216361169 1 
	65.61541671825919764 -1.203738430573544349 -75.99086420867962488 1 
	65.62530610379648977 -1.068070523728620547 -76.00011510603982856 1.000000000000000222 
	65.62493515728974103 -1 -76 1 
	0.001000000000000000021 
	cone 63.89000000000000057 3 -77.79999999999999716 0 1 0 -2.5 0 0 1 I I 0 1 2.5 forward I I I I 
	cone 66.01200080100754519 -1 -74.5 -1 0 0 0 -1.5 0 1 I I 0 1 1.5 forward I I I I 
	nullbs 
	nullbs 
	I I 
	0 
	0 
	0 
	} I I #
point $-1 65.62493515728974103 -1 -76 #
coedge $-1 $308 $229 $314 $315 reversed $103 $-1 #
coedge $-1 $316 $317 $229 $277 forward $306 $-1 #
edge $-1 $318 0 $280 0.5 $229 $319 forward 7 unknown #
coedge $-1 $253 $230 $233 $282 forward $262 $-1 #
coedge $-1 $230 $253 $316 $320 forward $262 $-1 #
vertex $-1 $277 $321 #
ellipse-curve $-1 59.84000000000000341 -1.000000000000015987 -74.50000000000005684 -1 0 0 0 1.598721155460225418e-14 -1.499999999999943157 1 I I #
edge $-1 $234 0 $255 2 $233 $322 forward 7 unknown #
point $-1 59.84000000000000341 -1 -76 #
point $-1 59.29000000000000625 -1 -76 #
coedge $-1 $252 $238 $323 $324 forward $68 $-1 #
coedge $-1 $325 $326 $238 $287 forward $327 $-1 #
edge $-1 $328 0 $291 0.5499999999999971578 $286 $329 forward 7 unknown #
coedge $-1 $309 $239 $242 $293 forward $290 $-1 #
coedge $-1 $239 $309 $325 $330 forward $290 $-1 #
loop $-1 $-1 $239 $331 #
vertex $-1 $330 $332 #
ellipse-curve $-1 60.89000000000000057 0.9999999999999928946 -74.5 1 0 0 0 7.105427357601001859e-15 -1.5 1 I I #
edge $-1 $244 0 $311 4.537715508089902983 $242 $333 forward 7 unknown #
face $-1 $247 $243 $2 $-1 $334 reversed single #
point $-1 60.89000000000000057 2.268857754044953712 -75.29999999999999716 #
straight-curve $-1 63.89000000000000057 2.268857754044955044 -75.29999999999999716 0 -1 0 I I #
cone-surface $-1 63.89000000000000057 3 -77.79999999999999716 0 1 0 -2.5 0 0 1 I I 0 1 2.5 forward I I I I #
coedge $-1 $317 $316 $252 $299 forward $306 $-1 #
edge $-1 $300 0 $335 0.5 $252 $336 forward 7 unknown #
vertex $-1 $254 $337 #
ellipse-curve $-1 59.84000000000000341 1.000000000000015543 -74.50000000000005684 1 0 0 0 -1.554312234475219157e-14 -1.499999999999943157 1 I I #
point $-1 59.84000000000000341 1 -76 #
straight-curve $-1 59.29000000000000625 -1 -76 0 1 0 I I #
point $-1 56.28999999999998494 -2.268857754044954156 -75.29999999999999716 #
face $-1 $338 $339 $2 $-1 $340 reversed single #
loop $-1 $-1 $317 $261 #
plane-surface $-1 59.84000000000000341 3 -75.59999999999999432 0 0 1 1 0 0 forward_v I I I I #
coedge $-1 $269 $275 $341 $342 reversed $103 $-1 #
coedge $-1 $289 $288 $269 $310 reversed $290 $-1 #
edge $-1 $343 0 $311 1.008260082251040579 $269 $344 forward 7 unknown #
vertex $-1 $271 $345 #
straight-curve $-1 63.89000000000000057 -2.268857754044955044 -75.29999999999999716 -1 0 0 I I #
point $-1 63.88999999999996504 -2.268857754044954156 -75.29999999999999716 #
coedge $-1 $346 $347 $275 $315 forward $339 $-1 #
edge $-1 $348 0 $318 0.747584349669052628 $275 $349 forward 7 unknown #
coedge $-1 $298 $276 $279 $320 reversed $306 $-1 #
coedge $-1 $276 $298 $346 $350 forward $306 $-1 #
vertex $-1 $315 $351 #
straight-curve $-1 60.34000000000000341 -2.019803902718562583 -75.59999999999999432 -1 0 0 I I #
edge $-1 $300 0 $280 4.039607805437121613 $279 $352 forward 7 unknown #
point $-1 59.84000000000000341 -2.01980390271855903 -75.59999999999999432 #
straight-curve $-1 59.84000000000000341 -1 -76 0 1 0 I I #
coedge $-1 $347 $346 $285 $324 reversed $339 $-1 #
edge $-1 $328 0 $335 0.7475843496690545154 $285 $353 forward 7 unknown #
coedge $-1 $341 $286 $289 $330 reversed $327 $-1 #
coedge $-1 $286 $341 $347 $354 forward $327 $-1 #
loop $-1 $-1 $326 $338 #
vertex $-1 $287 $355 #
straight-curve $-1 60.34000000000000341 1 -76 1 0 0 I I #
edge $-1 $343 0 $291 2 $325 $356 forward 7 unknown #
face $-1 $294 $290 $2 $-1 $357 reversed single #
point $-1 60.89000000000000057 1 -76 #
straight-curve $-1 60.89000000000000057 2.268857754044953712 -75.29999999999999716 0 -1 0 I I #
plane-surface $-1 60.89000000000000057 3 -75.29999999999999716 0 0 1 1 0 0 forward_v I I I I #
vertex $-1 $299 $358 #
straight-curve $-1 59.84000000000000341 2.019803902718562139 -75.59999999999999432 1 0 0 I I #
point $-1 59.84000000000000341 2.019803902718562139 -75.59999999999999432 #
face $-1 $331 $327 $2 $-1 $359 forward single #
loop $-1 $-1 $314 $305 #
plane-surface $-1 60.34000000000000341 3 -75.59999999999999432 1 0 0 0 0 -1 forward_v I I I I #
coedge $-1 $326 $325 $308 $342 forward $327 $-1 #
edge $-1 $343 0 $348 0.5499999999999971578 $341 $360 forward 7 unknown #
vertex $-1 $342 $361 #
ellipse-curve $-1 60.89000000000000057 -0.9999999999999960032 -74.5 -1 0 0 0 -3.996802888650563546e-15 -1.5 1 I I #
point $-1 60.89000000000000057 -2.268857754044949715 -75.29999999999999716 #
coedge $-1 $323 $314 $317 $350 reversed $339 $-1 #
coedge $-1 $314 $323 $326 $354 reversed $339 $-1 #
vertex $-1 $342 $362 #
ellipse-curve $-1 60.34000000000000341 -1.000000000000015987 -74.50000000000005684 -1 0 0 0 1.598721155460225418e-14 -1.499999999999943157 1 I I #
edge $-1 $335 -3.996802888650563546e-15 $318 4.039607805437116284 $346 $363 forward 7 unknown #
point $-1 60.34000000000000341 -2.019803902718558142 -75.59999999999999432 #
straight-curve $-1 59.84000000000000341 2.019803902718562139 -75.59999999999999432 0 -1 0 I I #
ellipse-curve $-1 60.34000000000000341 1.000000000000016431 -74.50000000000005684 1 0 0 0 -1.64313007644523168e-14 -1.499999999999943157 1 I I #
edge $-1 $348 0 $328 2 $326 $364 forward 7 unknown #
point $-1 60.34000000000000341 1 -76 #
straight-curve $-1 60.89000000000000057 -1 -76 0 1 0 I I #
plane-surface $-1 60.89000000000000057 3 -76.29999999999999716 -1 0 0 0 0 1 forward_v I I I I #
point $-1 60.34000000000000341 2.019803902718562139 -75.59999999999999432 #
plane-surface $-1 100 -13.5 -76 0 0 -1 -1 0 0 forward_v I I I I #
straight-curve $-1 60.89000000000000057 -1 -76 -1 0 0 I I #
point $-1 60.89000000000000057 -1 -76 #
point $-1 60.34000000000000341 -1 -76 #
straight-curve $-1 60.34000000000000341 2.019803902718558142 -75.59999999999999432 0 -1 0 I I #
straight-curve $-1 60.34000000000000341 -1 -76 0 1 0 I I #
End-of-ACIS-data 