600 0 1 0           
91 GICL ACIS Healer - Source: /gicl/data5/repository/PTC/V18/fly_small18/prt0003.prt.sat - 6 0 18 ACIS 6.0.3 Solaris 24 Sat Apr 13 22:09:16 2002 
1 9.999999999999999547e-07 1.000000000000000036e-10 
body $-1 $1 $-1 $-1 #
lump $-1 $-1 $2 $0 #
shell $-1 $-1 $-1 $3 $-1 $1 #
face $-1 $4 $5 $2 $-1 $6 reversed single #
face $-1 $7 $8 $2 $-1 $9 forward single #
loop $-1 $-1 $10 $3 #
plane-surface $-1 -10.02408068877323544 22.5 -37.5 0 1 0 0 0 -1 forward_v I I I I #
face $-1 $11 $12 $2 $-1 $13 forward single #
loop $-1 $-1 $14 $4 #
cone-surface $-1 -2 22.5 -57.5 0 1 0 0 0 -5 1 I I 0 1 5 forward I I I I #
coedge $-1 $15 $15 $16 $17 reversed $5 $-1 #
face $-1 $18 $19 $2 $-1 $20 forward single #
loop $-1 $-1 $21 $7 #
cone-surface $-1 -2 22.5 -57.5 0 1 0 0 0 -5 1 I I 0 1 5 forward I I I I #
coedge $-1 $22 $16 $23 $24 forward $8 $-1 #
coedge $-1 $10 $10 $25 $26 reversed $5 $-1 #
coedge $-1 $14 $27 $10 $17 forward $8 $-1 #
edge $-1 $28 0 $29 3.141592653589793116 $10 $30 forward 7 unknown #
face $-1 $31 $32 $2 $-1 $33 reversed single #
loop $-1 $34 $35 $11 #
plane-surface $-1 -10.02408068877323544 24 -37.5 0 1 0 0 0 -1 forward_v I I I I #
coedge $-1 $36 $25 $27 $37 forward $12 $-1 #
coedge $-1 $27 $14 $35 $38 reversed $8 $-1 #
coedge $-1 $25 $36 $14 $24 reversed $12 $-1 #
edge $-1 $29 0 $39 1.5 $23 $40 forward 7 unknown #
coedge $-1 $21 $23 $15 $26 forward $12 $-1 #
edge $-1 $29 0 $28 3.141592653589793116 $15 $41 forward 7 unknown #
coedge $-1 $16 $22 $21 $37 reversed $8 $-1 #
vertex $-1 $26 $42 #
vertex $-1 $26 $43 #
ellipse-curve $-1 -2 22.5 -57.5 0 1 0 -5.000000000000001776 0 0 1 I I #
face $-1 $44 $45 $2 $-1 $46 reversed single #
loop $-1 $-1 $47 $18 #
cone-surface $-1 -2 20.19999999999999929 -57.5 0 -1 0 0 0 -0.999999999999999889 1 I I -0.7071067811865474617 0.7071067811865475727 0.999999999999999889 forward I I I I #
loop $-1 $-1 $48 $11 #
coedge $-1 $49 $49 $22 $38 forward $19 $-1 #
coedge $-1 $23 $21 $49 $50 reversed $12 $-1 #
edge $-1 $28 0 $51 1.5 $21 $52 forward 7 unknown #
edge $-1 $51 0 $39 3.141592653589809991 $35 $53 forward 7 unknown #
vertex $-1 $50 $54 #
straight-curve $-1 3 22.5 -57.50000000000002842 0 1 0 I I #
ellipse-curve $-1 -2 22.5 -57.5 0 1 0 4.999999999999998224 0 0 1 I I #
point $-1 -7.000000000000001776 22.5 -57.5 #
point $-1 2.999999999999998224 22.5 -57.5 #
face $-1 $55 $56 $2 $-1 $57 reversed single #
loop $-1 $-1 $58 $31 #
cone-surface $-1 -2 20.19999999999999929 -57.5 0 -1 0 0 0 -1.000000000000008882 1 I I -0.7071067811865506814 0.7071067811865443531 1.000000000000008882 forward I I I I #
coedge $-1 $59 $60 $61 $62 forward $32 $-1 #
coedge $-1 $63 $63 $60 $64 forward $34 $-1 #
coedge $-1 $35 $35 $36 $50 forward $19 $-1 #
edge $-1 $39 0 $51 3.141592653589793116 $49 $65 forward 7 unknown #
vertex $-1 $50 $66 #
straight-curve $-1 -7 22.5 -57.50000000000001421 0 1 0 I I #
ellipse-curve $-1 -2.000000000000001776 24 -57.49999999999995737 0 1 0 -5 0 -4.263256414560601115e-14 1 I I #
point $-1 2.999999999999998224 24 -57.5 #
face $-1 $67 $68 $2 $-1 $69 reversed single #
loop $-1 $-1 $70 $44 #
cone-surface $-1 -2 24 -57.5 0 -1 0 0 0 -4 1 I I 0 1 4 forward I I I I #
coedge $-1 $71 $72 $73 $74 forward $45 $-1 #
coedge $-1 $73 $47 $75 $76 forward $32 $-1 #
coedge $-1 $47 $73 $48 $64 reversed $32 $-1 #
coedge $-1 $72 $71 $47 $62 reversed $45 $-1 #
edge $-1 $77 2.512147933894045868e-14 $78 1.131370849898472031 $61 $79 forward 7 unknown #
coedge $-1 $48 $48 $72 $80 forward $34 $-1 #
edge $-1 $77 -8.789265611615826885e-16 $81 3.141592653589794892 $48 $82 forward 7 unknown #
ellipse-curve $-1 -2.000000000000001776 24 -57.5 0 1 0 5 0 0 1 I I #
point $-1 -7.000000000000001776 24 -57.5 #
face $-1 $83 $84 $2 $-1 $85 forward single #
loop $-1 $86 $87 $55 #
plane-surface $-1 -10.02408068877323544 22.79999999999999716 -37.5 0 -1 0 0 0 -1 forward_v I I I I #
coedge $-1 $88 $89 $90 $91 reversed $56 $-1 #
coedge $-1 $61 $58 $92 $93 forward $45 $-1 #
coedge $-1 $58 $61 $63 $80 reversed $45 $-1 #
coedge $-1 $60 $59 $58 $74 reversed $32 $-1 #
edge $-1 $81 2.512147933894040819e-14 $94 1.131370849898472031 $58 $95 forward 7 unknown #
coedge $-1 $96 $97 $59 $76 reversed $98 $-1 #
edge $-1 $78 1.11022302462515654e-16 $94 3.141592653589793116 $75 $99 forward 7 unknown #
vertex $-1 $80 $100 #
vertex $-1 $93 $101 #
straight-curve $-1 -1.99999999999999889 24 -52.70000000000000284 -1.962615573354721608e-16 -0.707106781186549127 -0.7071067811865460184 I I #
edge $-1 $81 0 $77 3.141592653589794892 $63 $102 forward 7 unknown #
vertex $-1 $80 $103 #
ellipse-curve $-1 -2.000000000000003553 24 -57.5 0 -1 0 4.66293670342565747e-15 0 4.799999999999997158 1 I I #
face $-1 $104 $105 $2 $-1 $106 forward single #
loop $-1 $-1 $107 $67 #
cone-surface $-1 -2 24 -57.5 0 -1 0 0 0 -3.5 1 I I 0 1 3.5 forward I I I I #
loop $-1 $-1 $108 $55 #
coedge $-1 $109 $109 $110 $111 forward $68 $-1 #
coedge $-1 $92 $70 $96 $112 forward $56 $-1 #
coedge $-1 $70 $92 $97 $113 reversed $56 $-1 #
coedge $-1 $108 $108 $70 $91 forward $86 $-1 #
edge $-1 $114 0 $115 3.14159265358978157 $90 $116 forward 7 unknown #
coedge $-1 $89 $88 $71 $93 reversed $56 $-1 #
edge $-1 $94 1.380506584136773112e-30 $78 3.141592653589794448 $92 $117 forward 7 unknown #
vertex $-1 $113 $118 #
straight-curve $-1 -2.000000000000010658 24 -62.29999999999999716 -4.710277376051331663e-15 -0.707106781186549127 0.7071067811865460184 I I #
coedge $-1 $119 $75 $88 $112 reversed $98 $-1 #
coedge $-1 $75 $119 $89 $113 forward $98 $-1 #
loop $-1 $-1 $75 $120 #
ellipse-curve $-1 -1.999999999999999556 23.19999999999999929 -57.5 0 -1 0 4.440892098500626162e-16 0 4 1 I I #
point $-1 -1.999999999999994671 23.99999999999996447 -52.70000000000000284 #
point $-1 -1.999999999999999556 23.20000000000000284 -53.5 #
ellipse-curve $-1 -1.999999999999992895 24 -57.5 1.095640146140295466e-29 -1 7.401486830834380618e-15 -7.105427357601001859e-15 -3.552713678800500929e-14 -4.799999999999997158 1 I I #
point $-1 -2 23.99999999999996447 -62.29999999999999716 #
face $-1 $121 $122 $2 $-1 $123 forward single #
loop $-1 $-1 $124 $83 #
cone-surface $-1 -2 24 -57.5 0 -1 0 0 0 -3.5 1 I I 0 1 3.5 forward I I I I #
coedge $-1 $110 $125 $126 $127 reversed $84 $-1 #
coedge $-1 $90 $90 $119 $128 forward $86 $-1 #
coedge $-1 $87 $87 $129 $130 forward $68 $-1 #
coedge $-1 $131 $107 $87 $111 reversed $84 $-1 #
edge $-1 $132 0 $133 3.141592653589793116 $87 $134 forward 7 unknown #
edge $-1 $114 -3.552713678800500929e-15 $78 0.4000000000000021316 $88 $135 forward 7 unknown #
edge $-1 $115 -3.552713678800500929e-15 $94 0.4000000000000021316 $89 $136 forward 7 unknown #
vertex $-1 $91 $137 #
vertex $-1 $91 $138 #
ellipse-curve $-1 -2.000000000000024869 22.79999999999999716 -57.49999999999997868 0 1 0 2.309263891220325604e-14 0 4.000000000000021316 1 I I #
ellipse-curve $-1 -1.999999999999996891 23.19999999999996732 -57.5 0 -1 0 -3.108624468950438313e-15 0 -3.999999999999992895 1 I I #
point $-1 -2 23.20000000000000284 -61.5 #
coedge $-1 $97 $96 $108 $128 reversed $98 $-1 #
face $-1 $-1 $98 $2 $-1 $139 reversed single #
face $-1 $140 $141 $2 $-1 $142 forward single #
loop $-1 $-1 $143 $104 #
torus-surface $-1 -2 23.19999999999999929 -57.5 0 -1 0 2.699999999999993072 0.7999999999999999334 0.002953126319662663455 0 -0.9999956395129632192 forward_v I I I I #
coedge $-1 $129 $144 $131 $145 reversed $105 $-1 #
coedge $-1 $107 $131 $146 $147 reversed $84 $-1 #
coedge $-1 $144 $129 $107 $127 forward $105 $-1 #
edge $-1 $133 -3.552713678800500929e-15 $148 0.3999999999999985789 $126 $149 forward 7 unknown #
edge $-1 $115 0 $114 3.141592653589783346 $108 $150 forward 7 unknown #
coedge $-1 $126 $124 $109 $130 reversed $105 $-1 #
edge $-1 $133 0 $132 3.141592653589793116 $109 $151 forward 7 unknown #
coedge $-1 $125 $110 $124 $145 forward $84 $-1 #
vertex $-1 $130 $152 #
vertex $-1 $130 $153 #
ellipse-curve $-1 -2.000000000000001776 22.79999999999999716 -57.5 0 -1 0 0 0 -3.5 1 I I #
straight-curve $-1 -1.999999999999999556 22.80000000000000071 -53.5 0 1 0 I I #
straight-curve $-1 -2 22.80000000000000071 -61.5 0 1 0 I I #
point $-1 -2.000000000000001776 22.79999999999999716 -53.49999999999995737 #
point $-1 -2.000000000000001776 22.79999999999999716 -61.5 #
cone-surface $-1 -2 24 -57.5 0 -1 0 0 0 -4 1 I I 0 1 4 forward I I I I #
face $-1 $120 $154 $2 $-1 $155 forward single #
loop $-1 $-1 $156 $121 #
torus-surface $-1 -2 23.19999999999999929 -57.5 0 -1 0 2.699999999999993072 0.7999999999999999334 -0.002953126319662252326 0 0.9999956395129632192 forward_v I I I I #
coedge $-1 $157 $158 $159 $160 forward $122 $-1 #
coedge $-1 $124 $126 $157 $161 reversed $105 $-1 #
edge $-1 $132 -3.552713678800500929e-15 $162 0.3999999999999985789 $124 $163 forward 7 unknown #
coedge $-1 $159 $156 $125 $147 forward $141 $-1 #
edge $-1 $148 -1.395708945243053908e-15 $162 3.14159265358979356 $125 $164 forward 7 unknown #
vertex $-1 $161 $165 #
straight-curve $-1 -1.999999999999999556 22.80000000000000071 -54 0 1 0 I I #
ellipse-curve $-1 -1.999999999999982236 22.79999999999999716 -57.49999999999997868 0 1 0 -1.953992523340275511e-14 0 -4.000000000000021316 1 I I #
ellipse-curve $-1 -2.000000000000001776 22.79999999999999716 -57.5 0 -1 0 0 0 3.5 1 I I #
point $-1 -2.000000000000001776 22.79999999999999716 -61 #
point $-1 -2.000000000000001776 22.79999999999999716 -54 #
loop $-1 $-1 $166 $140 #
plane-surface $-1 -10.02408068877323544 24 -37.5 0 1 0 0 0 -1 forward_v I I I I #
coedge $-1 $146 $167 $168 $169 forward $141 $-1 #
coedge $-1 $168 $143 $144 $161 forward $122 $-1 #
coedge $-1 $143 $168 $170 $171 reversed $122 $-1 #
coedge $-1 $167 $146 $143 $160 reversed $141 $-1 #
edge $-1 $172 0 $162 1.57079632679489678 $143 $173 forward 7 unknown #
edge $-1 $162 0 $148 3.14159265358979134 $144 $174 forward 7 unknown #
vertex $-1 $161 $175 #
straight-curve $-1 -2.000000000000000888 22.80000000000000071 -61 0 1 0 I I #
ellipse-curve $-1 -2 23.19999999999999929 -57.5 0 1 0 -7.719602734823638457e-12 0 3.5 1 I I #
point $-1 -2.000000000007724488 23.19999999999999929 -54 #
coedge $-1 $170 $170 $167 $176 forward $154 $-1 #
coedge $-1 $156 $159 $166 $176 reversed $141 $-1 #
coedge $-1 $158 $157 $156 $169 reversed $122 $-1 #
edge $-1 $177 -4.700914578849247366e-24 $148 1.57079632679489678 $168 $178 forward 7 unknown #
coedge $-1 $166 $166 $158 $171 forward $154 $-1 #
edge $-1 $172 0 $177 3.141592653549956093 $170 $179 forward 7 unknown #
vertex $-1 $171 $180 #
ellipse-curve $-1 -1.999999999995334621 23.19999999999999218 -60.19999999999999574 -1 -5.214995102420430933e-12 -3.815499915409458362e-12 -4.171996081936413248e-12 0.800000000000007816 7.105427357601001859e-15 1 I I #
ellipse-curve $-1 -2 23.19999999999999929 -57.5 0 1 0 7.717826377984238206e-12 0 -3.5 1 I I #
point $-1 -1.999999999992282174 23.19999999999999929 -61 #
edge $-1 $177 3.64564345789877824e-13 $172 3.141592653549589276 $166 $181 forward 7 unknown #
vertex $-1 $171 $182 #
ellipse-curve $-1 -2.000000000004662937 23.19999999999999218 -54.80000000000000426 1 -5.213052212127337717e-12 3.820623352982317956e-12 4.170441769701938028e-12 0.800000000000007816 -7.105427357601001859e-15 1 I I #
ellipse-curve $-1 -1.999999999945726969 24 -57.5 0 1 0 -5.377964740205243288e-11 0 -2.699999999999988631 1 I I #
point $-1 -1.999999999999506617 24 -60.19999999999998863 #
ellipse-curve $-1 -2.000000000054274807 24 -57.5 0 1 0 5.378231193731153326e-11 0 2.699999999999988631 1 I I #
point $-1 -1.999999999999508171 24 -54.80000000000001137 #
End-of-ACIS-data 