600 0 1 0           
94 GICL Pro/E ACIS Translator - Source: f:/data5/repository/PTC/V18/fly_small18/prt0002.prt - 6 0 13 ACIS 6.0.3 NT 24 Thu Apr 04 13:36:05 2002 
1 9.9999999999999995e-007 1e-010 
body $-1 $1 $-1 $-1 #
lump $-1 $-1 $2 $0 #
shell $-1 $-1 $-1 $3 $-1 $1 #
face $-1 $4 $5 $2 $-1 $6 reversed single #
face $-1 $7 $8 $2 $-1 $9 forward single #
loop $-1 $10 $11 $3 #
plane-surface $-1 -10.024080688773235 22.5 -37.5 0 1 0 0 0 1 forward_v I I I I #
face $-1 $12 $13 $2 $-1 $14 forward single #
loop $-1 $-1 $15 $4 #
plane-surface $-1 3 22.5 -39.5 1 0 0 0 0 -1 forward_v I I I I #
loop $-1 $-1 $16 $3 #
coedge $-1 $17 $18 $19 $20 reversed $5 $-1 #
face $-1 $21 $22 $2 $-1 $23 forward single #
loop $-1 $-1 $24 $7 #
cone-surface $-1 2 24.001500036675179 -40.5 0 -1 0 1.7763568394002505e-015 0 1 1 I I 0 1 1 forward I I I I #
coedge $-1 $19 $25 $26 $27 forward $8 $-1 #
coedge $-1 $28 $29 $30 $31 forward $10 $-1 #
coedge $-1 $32 $11 $33 $34 forward $5 $-1 #
coedge $-1 $11 $35 $36 $37 forward $5 $-1 #
coedge $-1 $38 $15 $11 $20 forward $8 $-1 #
edge $-1 $39 3.5527136788005009e-014 $40 5.5000000000000426 $11 $41 forward 7 unknown #
face $-1 $42 $43 $2 $-1 $44 forward single #
loop $-1 $-1 $45 $12 #
plane-surface $-1 -17 22.5 -39.5 0 0 1 1 0 0 forward_v I I I I #
coedge $-1 $33 $46 $47 $48 forward $13 $-1 #
coedge $-1 $15 $38 $49 $50 reversed $8 $-1 #
coedge $-1 $46 $33 $15 $27 reversed $13 $-1 #
edge $-1 $51 3.5527136788005009e-015 $39 1 $15 $52 forward 7 unknown #
coedge $-1 $53 $16 $54 $55 forward $10 $-1 #
coedge $-1 $16 $56 $57 $58 forward $10 $-1 #
coedge $-1 $59 $60 $16 $31 reversed $61 $-1 #
edge $-1 $62 0 $63 1 $16 $64 forward 7 unknown #
coedge $-1 $65 $17 $66 $67 reversed $5 $-1 #
coedge $-1 $26 $24 $17 $34 reversed $13 $-1 #
edge $-1 $39 0 $68 1.5707963267948877 $17 $69 forward 7 unknown #
coedge $-1 $18 $70 $71 $72 reversed $5 $-1 #
coedge $-1 $73 $74 $18 $37 reversed $75 $-1 #
edge $-1 $76 0 $40 1.5707963267949001 $18 $77 forward 7 unknown #
coedge $-1 $25 $19 $74 $78 reversed $8 $-1 #
vertex $-1 $34 $79 #
vertex $-1 $37 $80 #
straight-curve $-1 3 22.5 -40.499999999999957 0 0 -1 I I #
face $-1 $81 $82 $2 $-1 $83 forward single #
loop $-1 $-1 $84 $21 #
cone-surface $-1 -16 24.001500036675179 -40.5 0 -1 0 -1 0 0 1 I I 0 1 1 forward I I I I #
coedge $-1 $66 $85 $86 $87 forward $22 $-1 #
coedge $-1 $24 $26 $88 $89 reversed $13 $-1 #
coedge $-1 $85 $66 $24 $48 reversed $22 $-1 #
edge $-1 $90 0 $68 1 $47 $91 forward 7 unknown #
coedge $-1 $92 $93 $25 $50 forward $94 $-1 #
edge $-1 $51 0 $95 5.4999999999902016 $25 $96 forward 7 unknown #
vertex $-1 $50 $97 #
straight-curve $-1 3 23.500000000000004 -40.499999999999993 0 -1 0 I I #
coedge $-1 $98 $28 $99 $100 forward $10 $-1 #
coedge $-1 $101 $102 $28 $55 reversed $103 $-1 #
edge $-1 $63 0 $104 3 $28 $105 forward 7 unknown #
coedge $-1 $29 $106 $107 $108 forward $10 $-1 #
coedge $-1 $109 $110 $29 $58 reversed $111 $-1 #
edge $-1 $112 0 $62 10.333333333333334 $29 $113 forward 7 unknown #
coedge $-1 $114 $30 $110 $115 reversed $61 $-1 #
coedge $-1 $30 $114 $101 $116 forward $61 $-1 #
loop $-1 $-1 $30 $117 #
vertex $-1 $58 $118 #
vertex $-1 $55 $119 #
intcurve-curve $-1 forward { surfintcur full nurbs 3 open 9 
	0 3 0.13081353412174934 1 0.25957712250910642 1 0.38653389544074535 1 0.51187779459500171 1 
	0.63580147347842875 1 0.75833336123069039 1 0.87980708571703037 1 1 3 
	-1.833333333333333 22.500000000000004 -41.25 1 
	-1.7673426685274767 22.500000000000004 -41.250612076979984 1 
	-1.6431285750996079 22.500000000000007 -41.258914375494108 1.0000000000000002 
	-1.4775610298081323 22.499999999999996 -41.294103468000984 0.99999999999999978 
	-1.3346313805734789 22.5 -41.345447918344945 1.0000000000000002 
	-1.214703015984379 22.500000000000011 -41.410373788746448 0.99999999999999978 
	-1.1181987547213825 22.5 -41.487580584083737 1 
	-1.0489836131393808 22.5 -41.572143741393418 1 
	-1.0076995659909083 22.500000000000011 -41.664909564864594 1.0000000000000002 
	-0.9994624787748092 22.500000000000004 -41.72190878057522 1 
	-0.99999999999999978 22.500000000000004 -41.75 1 
	0.001 
	plane -10.024080688773235 22.5 -37.5 0 1 0 0 0 1 forward_v I I I I 
	cone 1.1708786482431792 24.753158986182388 -41.75 -0.80000000000000004 -0.60000000000000009 0 0 0 0.5 1 I I 0 1 0.5 forward I I I I 
	nullbs 
	nullbs 
	I I 
	0 
	0 
	0 
	} I I #
coedge $-1 $120 $32 $121 $122 forward $5 $-1 #
coedge $-1 $47 $45 $32 $67 forward $22 $-1 #
edge $-1 $123 0 $68 18 $32 $124 forward 7 unknown #
vertex $-1 $67 $125 #
ellipse-curve $-1 2 22.5 -40.5 3.5527136788005009e-015 -1 2.5243548967072378e-029 1 3.5527136788005009e-015 7.1054273576010019e-015 1 I I #
coedge $-1 $35 $120 $126 $127 forward $5 $-1 #
coedge $-1 $128 $129 $35 $72 forward $130 $-1 #
edge $-1 $76 -1.7763568394002505e-015 $131 18 $35 $132 forward 7 unknown #
coedge $-1 $133 $36 $129 $134 reversed $75 $-1 #
coedge $-1 $36 $133 $38 $78 forward $75 $-1 #
loop $-1 $-1 $74 $135 #
vertex $-1 $37 $136 #
ellipse-curve $-1 2.0000000000000036 22.5 -46 -1.2621774483536189e-029 -1 -3.5527136788005009e-015 -3.5527136788005009e-015 3.5527136788005009e-015 -1 1 I I #
edge $-1 $95 7.1054273576010019e-015 $40 1 $38 $137 forward 7 unknown #
point $-1 3 22.500000000000004 -40.499999999999993 #
point $-1 3 22.500000000000004 -46 #
face $-1 $138 $139 $2 $-1 $140 forward single #
loop $-1 $-1 $141 $42 #
plane-surface $-1 -17 22.5 -47 -1 0 0 0 0 1 forward_v I I I I #
coedge $-1 $121 $142 $143 $144 forward $43 $-1 #
coedge $-1 $45 $47 $145 $146 reversed $22 $-1 #
coedge $-1 $142 $121 $45 $87 reversed $43 $-1 #
edge $-1 $147 3.5527136788005009e-015 $123 1 $45 $148 forward 7 unknown #
coedge $-1 $149 $150 $46 $89 forward $151 $-1 #
edge $-1 $90 -1.7763568394697081e-015 $51 1.5707963268047038 $46 $152 forward 7 unknown #
vertex $-1 $146 $153 #
straight-curve $-1 2 23.500000000000004 -39.5 0 -1 0 I I #
coedge $-1 $154 $49 $155 $156 reversed $94 $-1 #
coedge $-1 $49 $154 $149 $157 forward $94 $-1 #
loop $-1 $-1 $93 $158 #
vertex $-1 $50 $159 #
straight-curve $-1 3 23.5 -40.500000000000007 0 -6.4594794160124185e-016 -1 I I #
point $-1 3 23.5 -40.500000000000007 #
coedge $-1 $160 $53 $161 $162 forward $10 $-1 #
coedge $-1 $163 $164 $53 $100 reversed $165 $-1 #
edge $-1 $104 0 $166 1 $53 $167 forward 7 unknown #
coedge $-1 $168 $54 $60 $116 reversed $103 $-1 #
coedge $-1 $54 $168 $163 $169 reversed $103 $-1 #
loop $-1 $-1 $168 $170 #
vertex $-1 $100 $171 #
straight-curve $-1 -1 22.5 -41.75 0 0 -1 I I #
coedge $-1 $56 $160 $172 $173 forward $10 $-1 #
coedge $-1 $174 $175 $56 $108 reversed $176 $-1 #
edge $-1 $177 0 $112 1 $56 $178 forward 7 unknown #
coedge $-1 $179 $57 $175 $180 forward $111 $-1 #
coedge $-1 $57 $179 $59 $115 forward $111 $-1 #
loop $-1 $-1 $179 $181 #
vertex $-1 $58 $182 #
straight-curve $-1 -12.166666666666666 22.5 -41.25 1 0 0 I I #
coedge $-1 $60 $59 $183 $184 reversed $61 $-1 #
edge $-1 $185 5.3290705182007522e-016 $62 2.5000000000000022 $110 $186 forward 7 unknown #
edge $-1 $187 -8.8817841970012563e-016 $63 2.5 $101 $188 forward 7 unknown #
face $-1 $181 $61 $2 $-1 $189 reversed single #
point $-1 -1.8333333333333321 22.5 -41.249999999999957 #
point $-1 -0.99999999999999978 22.500000000000004 -41.75 #
coedge $-1 $70 $65 $190 $191 reversed $5 $-1 #
coedge $-1 $86 $84 $65 $122 reversed $43 $-1 #
edge $-1 $123 0 $192 1.5707963267948521 $65 $193 forward 7 unknown #
vertex $-1 $122 $194 #
straight-curve $-1 -16 22.5 -39.5 1 0 0 I I #
point $-1 2.0000000000000018 22.500000000000004 -39.5 #
coedge $-1 $195 $196 $70 $127 reversed $139 $-1 #
edge $-1 $197 0 $131 1.5707963267948877 $70 $198 forward 7 unknown #
coedge $-1 $199 $71 $196 $200 reversed $130 $-1 #
coedge $-1 $71 $199 $73 $134 forward $130 $-1 #
loop $-1 $-1 $129 $138 #
vertex $-1 $72 $201 #
straight-curve $-1 1.9999999999999982 22.5 -47 -1 0 0 I I #
coedge $-1 $74 $73 $202 $203 reversed $75 $-1 #
edge $-1 $204 3.5527136788005009e-015 $76 1 $129 $205 forward 7 unknown #
face $-1 $206 $75 $2 $-1 $207 forward single #
point $-1 2 22.500000000000004 -47 #
straight-curve $-1 3 23.500000000000004 -46 0 -1 0 I I #
face $-1 $135 $130 $2 $-1 $208 forward single #
loop $-1 $-1 $196 $81 #
cone-surface $-1 -16 24.001500036675179 -46 0 -1 0 0 0 -1 1 I I 0 1 1 forward I I I I #
coedge $-1 $190 $209 $195 $210 forward $82 $-1 #
coedge $-1 $84 $86 $211 $212 reversed $43 $-1 #
coedge $-1 $209 $190 $84 $144 reversed $82 $-1 #
edge $-1 $213 7.1054273576010019e-015 $192 1.0000000000000036 $143 $214 forward 7 unknown #
coedge $-1 $215 $216 $85 $146 forward $217 $-1 #
edge $-1 $147 0 $90 17.999999999990198 $85 $218 forward 7 unknown #
vertex $-1 $146 $219 #
straight-curve $-1 -16 23.500000000000004 -39.5 0 -1 0 I I #
coedge $-1 $220 $88 $93 $157 reversed $151 $-1 #
coedge $-1 $88 $220 $215 $221 forward $151 $-1 #
loop $-1 $-1 $150 $222 #
ellipse-curve $-1 2 23.5 -40.5 0 1 0 -9.8001606829711818e-012 0 1.0000000000000071 1 I I #
point $-1 1.9999999999901981 23.500000000000004 -39.5 #
coedge $-1 $93 $92 $223 $224 reversed $94 $-1 #
coedge $-1 $202 $225 $92 $156 forward $226 $-1 #
edge $-1 $227 0 $95 1.5707963267949223 $92 $228 forward 7 unknown #
edge $-1 $229 0 $51 1.5707963267948966 $149 $230 forward 7 unknown #
face $-1 $222 $94 $2 $-1 $231 forward single #
point $-1 3 23.499999999999996 -45.999999999990209 #
coedge $-1 $106 $98 $232 $233 forward $10 $-1 #
coedge $-1 $234 $235 $98 $162 reversed $236 $-1 #
edge $-1 $166 0 $237 10.333333333333337 $98 $238 forward 7 unknown #
coedge $-1 $239 $99 $102 $169 forward $165 $-1 #
coedge $-1 $99 $239 $234 $240 reversed $165 $-1 #
loop $-1 $-1 $239 $241 #
vertex $-1 $162 $242 #
intcurve-curve $-1 forward { surfintcur full nurbs 3 open 9 
	0 3 0.12019291428296958 1 0.24166663876930894 1 0.36419852652157014 1 0.48812220540499723 1 
	0.61346610455925443 1 0.74042287749089342 1 0.86918646587825066 1 1 3 
	-1.0000000000000018 22.500000000000007 -44.75 1 
	-0.99946247877481209 22.500000000000007 -44.778091219424788 0.99999999999999989 
	-1.0076995659909114 22.5 -44.835090435135406 1.0000000000000002 
	-1.0489836131393846 22.5 -44.927856258606575 0.99999999999999989 
	-1.1181987547213776 22.500000000000004 -45.012419415916256 0.99999999999999978 
	-1.214703015984373 22.500000000000007 -45.089626211253531 1.0000000000000004 
	-1.3346313805734804 22.500000000000004 -45.154552081655055 1 
	-1.4775610298081325 22.499999999999996 -45.205896531999024 1 
	-1.6431285750996116 22.500000000000007 -45.241085624505892 1 
	-1.76734266852748 22.500000000000007 -45.249387923020024 0.99999999999999989 
	-1.8333333333333357 22.500000000000004 -45.25 1 
	0.001 
	plane -10.024080688773235 22.5 -37.5 0 1 0 0 0 1 forward_v I I I I 
	cone -7.4252502116037737 18.306062341297174 -44.75 0.80000000000000004 0.60000000000000009 0 0 0 -0.5 1 I I 0 1 0.5 forward I I I I 
	nullbs 
	nullbs 
	I I 
	0 
	0 
	0 
	} I I #
coedge $-1 $102 $101 $243 $244 forward $103 $-1 #
edge $-1 $104 1.06581410364015e-015 $245 2.5000000000000013 $102 $246 forward 7 unknown #
face $-1 $117 $103 $2 $-1 $247 forward single #
point $-1 -1.0000000000000018 22.500000000000007 -44.75 #
coedge $-1 $248 $249 $106 $173 reversed $250 $-1 #
edge $-1 $251 0 $177 3 $106 $252 forward 7 unknown #
coedge $-1 $253 $107 $249 $254 forward $176 $-1 #
coedge $-1 $107 $253 $109 $180 reversed $176 $-1 #
loop $-1 $-1 $253 $255 #
vertex $-1 $108 $256 #
intcurve-curve $-1 forward { surfintcur full nurbs 3 open 9 
	0 3 0.12019291428296952 1 0.24166663876930961 1 0.36419852652157025 1 0.48812220540499757 1 
	0.61346610455925443 1 0.74042287749089342 1 0.8691864658782511 1 1 3 
	-13.000000000000004 22.500000000000007 -41.75 1 
	-13.000537521225196 22.500000000000007 -41.72190878057522 1 
	-12.992300434009101 22.5 -41.664909564864594 0.99999999999999989 
	-12.951016386860623 22.500000000000011 -41.572143741393425 0.99999999999999978 
	-12.881801245278634 22.500000000000004 -41.487580584083751 1 
	-12.785296984015623 22.500000000000004 -41.410373788746455 1.0000000000000002 
	-12.665368619426527 22.5 -41.345447918344945 0.99999999999999978 
	-12.522438970191873 22.500000000000007 -41.294103468000976 1.0000000000000002 
	-12.35687142490039 22.500000000000011 -41.258914375494115 1 
	-12.232657331472526 22.500000000000007 -41.250612076979984 1 
	-12.166666666666671 22.500000000000004 -41.25 1 
	0.001 
	plane -10.024080688773235 22.5 -37.5 0 1 0 0 0 1 forward_v I I I I 
	cone -6.574749788396228 18.306062341297171 -41.75 -0.80000000000000004 0.60000000000000009 0 0 0 0.5 1 I I 0 1 0.5 forward I I I I 
	nullbs 
	nullbs 
	I I 
	0 
	0 
	0 
	} I I #
coedge $-1 $110 $109 $257 $258 forward $111 $-1 #
edge $-1 $112 -6.3948846218409026e-015 $259 2.5 $109 $260 forward 7 unknown #
face $-1 $255 $111 $2 $-1 $261 reversed single #
point $-1 -12.166666666666666 22.5 -41.249999999999957 #
coedge $-1 $257 $243 $114 $184 forward $262 $-1 #
edge $-1 $187 0 $185 1 $183 $263 forward 7 unknown #
vertex $-1 $258 $264 #
straight-curve $-1 0.16666666666666785 24.000000000000004 -41.25 -0.80000000000000004 -0.59999999999999998 0 I I #
vertex $-1 $184 $265 #
straight-curve $-1 1.0000000000000018 24 -41.75 -0.79999999999999993 -0.59999999999999998 0 I I #
cone-surface $-1 1.1708786482431792 24.753158986182388 -41.75 -0.80000000000000004 -0.60000000000000009 0 0 0 0.5 1 I I 0 1 0.5 forward I I I I #
coedge $-1 $143 $141 $120 $191 forward $82 $-1 #
edge $-1 $197 -4.2632564145606011e-014 $192 5.5 $120 $266 forward 7 unknown #
vertex $-1 $191 $267 #
ellipse-curve $-1 -15.999999999999998 22.5 -40.5 -6.3108872417680944e-030 -1 3.5527136788005009e-015 -1.7763568394002505e-015 3.5527136788005009e-015 1 1 I I #
point $-1 -16 22.500000000000004 -39.5 #
coedge $-1 $268 $126 $141 $210 reversed $139 $-1 #
coedge $-1 $126 $268 $128 $200 forward $139 $-1 #
vertex $-1 $127 $269 #
ellipse-curve $-1 -15.999999999999998 22.5 -45.999999999999993 -3.5527136788004946e-015 -1 -2.5243548967072288e-029 -1.0000000000000018 3.5527136788005009e-015 -7.1054273576010019e-015 1 I I #
coedge $-1 $129 $128 $270 $271 reversed $130 $-1 #
edge $-1 $272 0 $131 1.0000000000000036 $128 $273 forward 7 unknown #
point $-1 -16 22.5 -46.999999999999957 #
coedge $-1 $274 $155 $133 $203 forward $226 $-1 #
edge $-1 $95 0 $204 1.5707963268046896 $133 $275 forward 7 unknown #
vertex $-1 $271 $276 #
straight-curve $-1 2 23.500000000000004 -47 0 -1 0 I I #
face $-1 $158 $226 $2 $-1 $277 forward single #
cone-surface $-1 2 24.001500036675179 -46 0 -1 0 1 0 0 1 I I 0 1 1 forward I I I I #
plane-surface $-1 3 22.5 -47 0 0 -1 -1 0 0 forward_v I I I I #
coedge $-1 $141 $143 $278 $279 reversed $82 $-1 #
edge $-1 $280 3.5527136788005009e-015 $197 1 $141 $281 forward 7 unknown #
coedge $-1 $282 $283 $142 $212 forward $284 $-1 #
edge $-1 $213 3.5542916945638034e-026 $147 1.570796326804702 $142 $285 forward 7 unknown #
vertex $-1 $279 $286 #
straight-curve $-1 -17 23.500000000000004 -40.5 0 -1 0 I I #
coedge $-1 $287 $145 $150 $221 reversed $217 $-1 #
coedge $-1 $145 $287 $282 $288 forward $217 $-1 #
loop $-1 $-1 $216 $289 #
straight-curve $-1 -16 23.5 -39.5 1 1.9737298215569086e-016 0 I I #
point $-1 -16 23.5 -39.5 #
coedge $-1 $150 $149 $290 $291 reversed $151 $-1 #
edge $-1 $292 0 $90 1.5707963267948539 $215 $293 forward 7 unknown #
face $-1 $289 $151 $2 $-1 $294 forward single #
coedge $-1 $295 $290 $154 $224 forward $296 $-1 #
edge $-1 $229 0 $227 5.4999999999969589 $223 $297 forward 7 unknown #
coedge $-1 $155 $274 $295 $298 reversed $226 $-1 #
loop $-1 $-1 $155 $206 #
vertex $-1 $298 $299 #
ellipse-curve $-1 2.5000000000000009 23.500000000000004 -45.999999999993406 8.2205617211272369e-026 -7.1196382123162539e-012 -1 -5.773159728050814e-015 0.49999999999999645 -3.5598191061581019e-012 1 I I #
vertex $-1 $224 $300 #
ellipse-curve $-1 2.5 23.5 -40.500000000000007 0 0 -1 0 0.5 0 1 I I #
cone-surface $-1 2.5 23.5 -40.494499632871538 0 0 -1 0.5 0 0 1 I I 0 1 0.5 forward I I I I #
coedge $-1 $301 $302 $160 $233 reversed $303 $-1 #
edge $-1 $237 0 $251 1 $160 $304 forward 7 unknown #
coedge $-1 $305 $161 $164 $240 forward $236 $-1 #
coedge $-1 $161 $305 $301 $306 forward $236 $-1 #
loop $-1 $-1 $161 $307 #
vertex $-1 $233 $308 #
straight-curve $-1 -1.8333333333333357 22.5 -45.25 -1 0 0 I I #
coedge $-1 $164 $163 $309 $310 reversed $165 $-1 #
edge $-1 $166 0 $311 2.4999999999999987 $234 $312 forward 7 unknown #
face $-1 $170 $165 $2 $-1 $313 reversed single #
point $-1 -1.8333333333333357 22.500000000000004 -45.25 #
coedge $-1 $183 $309 $168 $244 reversed $262 $-1 #
edge $-1 $187 0 $245 3 $243 $314 forward 7 unknown #
vertex $-1 $244 $315 #
straight-curve $-1 -0.99999999999999778 22.5 -44.75 0.80000000000000004 0.59999999999999998 0 I I #
plane-surface $-1 1 24 -41.25 -0.60000000000000009 0.80000000000000004 0 0 0 -1 forward_v I I I I #
coedge $-1 $316 $172 $302 $317 reversed $250 $-1 #
coedge $-1 $172 $316 $174 $254 reversed $250 $-1 #
loop $-1 $-1 $316 $318 #
vertex $-1 $173 $319 #
straight-curve $-1 -13 22.5 -44.75 0 0 1 I I #
coedge $-1 $175 $174 $320 $321 reversed $176 $-1 #
edge $-1 $177 7.1054273576010279e-016 $322 2.4999999999999938 $249 $323 forward 7 unknown #
face $-1 $318 $176 $2 $-1 $324 reversed single #
point $-1 -13.000000000000004 22.500000000000007 -41.75 #
coedge $-1 $320 $183 $179 $258 reversed $262 $-1 #
edge $-1 $259 -3.5527136788005009e-015 $185 14.333333333333336 $257 $325 forward 7 unknown #
vertex $-1 $321 $326 #
straight-curve $-1 -12.166666666666671 22.500000000000004 -41.25 -0.80000000000000004 0.59999999999999998 0 I I #
plane-surface $-1 -13 24 -41.25 0 0 1 1 0 0 forward_v I I I I #
loop $-1 $-1 $327 $328 #
intcurve-curve $-1 forward { surfintcur full nurbs 3 open 9 
	0 3 0.12019291428296952 1 0.24166663876930888 1 0.36419852652157103 1 0.4881222054049979 1 
	0.61346610455925443 1 0.74042287749089342 1 0.86918646587825066 1 1 3 
	1.0000000000000002 24.000000000000004 -41.75 1 
	1.0005375212251912 24.000000000000004 -41.72190878057522 1 
	0.99230043400909351 24.000000000000007 -41.664909564864594 1 
	0.95101638686062007 24.000000000000004 -41.572143741393432 1 
	0.88180124527862269 24 -41.48758058408373 1.0000000000000002 
	0.78529698401562009 24.000000000000004 -41.41037378874644 0.99999999999999989 
	0.66536861942652437 24 -41.345447918344959 1.0000000000000002 
	0.52243897019186725 24.000000000000011 -41.294103468000976 0.99999999999999978 
	0.35687142490039231 24 -41.258914375494108 1 
	0.23265733147252327 24.000000000000004 -41.250612076979984 1 
	0.16666666666666718 24.000000000000004 -41.25 1 
	0.001 
	cone 1.1708786482431792 24.753158986182388 -41.75 -0.80000000000000004 -0.60000000000000009 0 0 0 0.5 1 I I 0 1 0.5 forward I I I I 
	plane -10.024080688773235 24 -37.5 0 1 0 0 0 1 forward_v I I I I 
	nullbs 
	nullbs 
	I I 
	0 
	0 
	0 
	} I I #
point $-1 0.16666666666666718 24.000000000000004 -41.25 #
point $-1 1.0000000000000002 24.000000000000004 -41.75 #
straight-curve $-1 -17 22.5 -45.999999999999957 0 0 1 I I #
point $-1 -17 22.5 -40.499999999999957 #
coedge $-1 $196 $195 $329 $330 reversed $139 $-1 #
point $-1 -17 22.500000000000004 -46 #
coedge $-1 $331 $332 $199 $271 forward $333 $-1 #
edge $-1 $204 0 $272 17.999999999990198 $199 $334 forward 7 unknown #
vertex $-1 $271 $335 #
straight-curve $-1 -16 23.500000000000004 -47 0 -1 0 I I #
coedge $-1 $225 $202 $332 $336 reversed $226 $-1 #
ellipse-curve $-1 2 23.5 -46 0 1 0 1 0 9.7912788987741806e-012 1 I I #
point $-1 1.9999999999999982 23.5 -47 #
torus-surface $-1 2 23.5 -46 0 -1 0 0.5 0.5 0.99999876613499761 0 0.0015709005323429903 forward_v I I I I #
coedge $-1 $337 $338 $209 $279 forward $339 $-1 #
edge $-1 $280 0 $213 5.4999999999901945 $209 $340 forward 7 unknown #
vertex $-1 $279 $341 #
straight-curve $-1 -17 23.500000000000004 -46 0 -1 0 I I #
coedge $-1 $342 $211 $216 $288 reversed $284 $-1 #
coedge $-1 $211 $342 $337 $343 forward $284 $-1 #
loop $-1 $-1 $283 $344 #
ellipse-curve $-1 -16 23.5 -40.5 0 1 0 -0.99999999999999645 0 -9.8054897534893826e-012 1 I I #
point $-1 -17 23.499999999999996 -40.500000000009805 #
coedge $-1 $216 $215 $345 $346 reversed $217 $-1 #
edge $-1 $347 0 $147 1.570796326794925 $282 $348 forward 7 unknown #
face $-1 $344 $217 $2 $-1 $349 forward single #
coedge $-1 $223 $345 $220 $291 forward $296 $-1 #
edge $-1 $292 0 $229 1.5707963459591874 $290 $350 forward 7 unknown #
vertex $-1 $291 $351 #
ellipse-curve $-1 1.9999999999934097 23.499999999999982 -40.000000000000007 1 -7.1223027475750514e-012 0 3.5611513737876521e-012 0.50000000000001776 0 1 I I #
torus-surface $-1 2 23.5 -40.5 0 -1 0 0.500000000000005 0.5 -0.0015709005323425295 0 0.99999876613499761 forward_v I I I I #
coedge $-1 $352 $223 $225 $298 forward $296 $-1 #
loop $-1 $262 $353 $328 #
straight-curve $-1 2.5 24 -40.500000000000007 0 0 -1 I I #
edge $-1 $227 0 $354 1.5707963459592424 $295 $355 forward 7 unknown #
point $-1 2.4999999999999951 24 -45.999999999996966 #
point $-1 2.5 24 -40.500000000000007 #
coedge $-1 $356 $232 $235 $306 reversed $303 $-1 #
coedge $-1 $232 $356 $248 $317 forward $303 $-1 #
loop $-1 $-1 $232 $357 #
intcurve-curve $-1 forward { surfintcur full nurbs 3 open 9 
	0 3 0.13081353412174954 1 0.25957712250910658 1 0.38653389544074535 1 0.51187779459500171 1 
	0.63580147347842964 1 0.75833336123069128 1 0.8798070857170297 1 1 3 
	-12.166666666666673 22.500000000000007 -45.25 1 
	-12.232657331472531 22.500000000000007 -45.249387923020016 1 
	-12.356871424900401 22.499999999999996 -45.241085624505885 0.99999999999999989 
	-12.522438970191873 22.500000000000004 -45.205896531999031 1.0000000000000002 
	-12.665368619426527 22.500000000000004 -45.154552081655041 0.99999999999999989 
	-12.785296984015627 22.500000000000007 -45.089626211253574 0.99999999999999978 
	-12.881801245278625 22.500000000000004 -45.012419415916227 1.0000000000000004 
	-12.951016386860633 22.500000000000007 -44.927856258606575 0.99999999999999989 
	-12.992300434009092 22.499999999999996 -44.835090435135413 1 
	-13.000537521225192 22.500000000000007 -44.77809121942478 1 
	-13.000000000000004 22.500000000000004 -44.75 1 
	0.001 
	plane -10.024080688773235 22.5 -37.5 0 1 0 0 0 1 forward_v I I I I 
	cone -15.170878648243184 24.753158986182388 -44.75 0.80000000000000004 -0.60000000000000009 0 0 0 -0.5 1 I I 0 1 0.5 forward I I I I 
	nullbs 
	nullbs 
	I I 
	0 
	0 
	0 
	} I I #
coedge $-1 $235 $234 $358 $359 forward $236 $-1 #
edge $-1 $360 0 $237 2.4999999999999947 $235 $361 forward 7 unknown #
face $-1 $241 $236 $2 $-1 $362 reversed single #
point $-1 -12.166666666666673 22.500000000000007 -45.25 #
coedge $-1 $243 $358 $239 $310 forward $262 $-1 #
edge $-1 $311 0 $245 1 $309 $363 forward 7 unknown #
vertex $-1 $310 $364 #
straight-curve $-1 -1.8333333333333357 22.500000000000004 -45.25 0.80000000000000004 0.59999999999999976 0 I I #
cone-surface $-1 -7.4252502116037737 18.306062341297174 -44.75 0.80000000000000004 0.60000000000000009 0 0 0 -0.5 1 I I 0 1 0.5 forward I I I I #
straight-curve $-1 1 24 -41.75 0 0 -1 I I #
point $-1 0.99999999999999822 24.000000000000007 -44.75 #
coedge $-1 $249 $248 $365 $366 forward $250 $-1 #
edge $-1 $367 4.973799150320701e-015 $251 2.5 $248 $368 forward 7 unknown #
face $-1 $-1 $250 $2 $-1 $369 forward single #
point $-1 -13.000000000000004 22.500000000000004 -44.75 #
coedge $-1 $365 $257 $253 $321 forward $262 $-1 #
edge $-1 $259 0 $322 1 $320 $370 forward 7 unknown #
vertex $-1 $366 $371 #
straight-curve $-1 -13.000000000000005 22.500000000000004 -41.75 -0.7999999999999996 0.60000000000000053 0 I I #
cone-surface $-1 -6.574749788396228 18.306062341297171 -41.75 -0.80000000000000004 0.60000000000000009 0 0 0 0.5 1 I I 0 1 0.5 forward I I I I #
straight-curve $-1 -14.166666666666668 24 -41.25 1 0 0 I I #
point $-1 -14.166666666666671 24.000000000000004 -41.25 #
coedge $-1 $358 $365 $356 $372 forward $262 $-1 #
face $-1 $357 $296 $2 $-1 $373 forward single #
coedge $-1 $374 $375 $268 $330 forward $376 $-1 #
edge $-1 $272 1.7763568393307676e-015 $280 1.5707963268046985 $268 $377 forward 7 unknown #
coedge $-1 $378 $270 $375 $379 reversed $333 $-1 #
coedge $-1 $270 $378 $274 $336 forward $333 $-1 #
loop $-1 $-1 $332 $380 #
straight-curve $-1 1.9999999999999982 23.5 -47 -1 1.9737298215569083e-016 0 I I #
point $-1 -15.9999999999902 23.500000000000004 -47 #
edge $-1 $354 0 $204 1.570796326794925 $332 $381 forward 7 unknown #
coedge $-1 $382 $278 $283 $343 reversed $339 $-1 #
coedge $-1 $278 $382 $374 $383 forward $339 $-1 #
loop $-1 $-1 $338 $384 #
straight-curve $-1 -17 23.5 -46 0 -6.4594794160124264e-016 1 I I #
point $-1 -17 23.5 -46 #
coedge $-1 $283 $282 $385 $386 reversed $284 $-1 #
edge $-1 $387 0 $213 1.5707963267949463 $337 $388 forward 7 unknown #
face $-1 $384 $284 $2 $-1 $389 forward single #
coedge $-1 $290 $385 $287 $346 forward $296 $-1 #
edge $-1 $347 0 $292 17.99999999999697 $345 $390 forward 7 unknown #
vertex $-1 $346 $391 #
ellipse-curve $-1 -16 23.500000000000007 -39.999999999999993 1 0 0 0 0.49999999999999289 -7.1054273576010019e-015 1 I I #
cone-surface $-1 -16.018001201511318 23.5 -40 1 0 0 0 0 0.5 1 I I 0 1 0.5 forward I I I I #
ellipse-curve $-1 2.0000000047895536 24 -40.499999995210445 0 1 0 -4.7925827750816552e-009 0 0.49999999521043748 1 I I #
point $-1 1.9999999999969709 24 -40.000000000000007 #
coedge $-1 $353 $295 $378 $392 forward $296 $-1 #
coedge $-1 $393 $352 $394 $395 forward $296 $-1 #
vertex $-1 $392 $396 #
ellipse-curve $-1 2.0000000047895696 24 -46.00000000478957 0 1 0 0.49999999521042549 0 4.7926036472745182e-009 1 I I #
coedge $-1 $302 $301 $327 $372 reversed $303 $-1 #
face $-1 $307 $303 $2 $-1 $397 reversed single #
coedge $-1 $309 $327 $305 $359 reversed $262 $-1 #
edge $-1 $311 0 $360 14.333333333333334 $358 $398 forward 7 unknown #
vertex $-1 $359 $399 #
straight-curve $-1 -14.16666666666667 24.000000000000004 -45.25 0.80000000000000016 -0.59999999999999976 0 I I #
plane-surface $-1 -1 24 -45.25 0 0 -1 -1 0 0 forward_v I I I I #
intcurve-curve $-1 forward { surfintcur full nurbs 3 open 9 
	0 3 0.13081353412174934 1 0.25957712250910669 1 0.38653389544074557 1 0.51187779459500227 1 
	0.63580147347842986 1 0.75833336123069028 1 0.87980708571703059 1 1 3 
	0.16666666666666519 24.000000000000004 -45.25 1 
	0.23265733147252071 24.000000000000004 -45.249387923020016 1 
	0.35687142490038914 24.000000000000004 -45.241085624505885 1 
	0.52243897019186936 24.000000000000004 -45.205896531999024 1 
	0.66536861942652237 24.000000000000004 -45.154552081655048 1 
	0.78529698401561698 24.000000000000007 -45.089626211253552 1 
	0.88180124527862846 24.000000000000007 -45.012419415916241 1 
	0.95101638686061052 24.000000000000004 -44.927856258606589 0.99999999999999989 
	0.99230043400909329 23.999999999999996 -44.835090435135399 1.0000000000000002 
	1.0005375212251899 24.000000000000007 -44.77809121942478 1 
	0.99999999999999822 24.000000000000007 -44.75 1 
	0.001 
	cone -7.4252502116037737 18.306062341297174 -44.75 0.80000000000000004 0.60000000000000009 0 0 0 -0.5 1 I I 0 1 0.5 forward I I I I 
	plane -10.024080688773235 24 -37.5 0 1 0 0 0 1 forward_v I I I I 
	nullbs 
	nullbs 
	I I 
	0 
	0 
	0 
	} I I #
point $-1 0.1666666666666643 24 -45.249999999999957 #
coedge $-1 $327 $320 $316 $366 reversed $262 $-1 #
edge $-1 $367 0 $322 3 $365 $400 forward 7 unknown #
vertex $-1 $366 $401 #
straight-curve $-1 -15.000000000000004 24.000000000000004 -44.75 0.80000000000000004 -0.59999999999999998 0 I I #
plane-surface $-1 -15 24 -45.25 0.60000000000000009 0.80000000000000004 0 0 0 1 forward_v I I I I #
intcurve-curve $-1 forward { surfintcur full nurbs 3 open 9 
	0 3 0.13081353412174915 1 0.25957712250910692 1 0.38653389544074557 1 0.51187779459500216 1 
	0.63580147347842986 1 0.75833336123069106 1 0.87980708571703037 1 1 3 
	-14.166666666666671 24.000000000000004 -41.25 1 
	-14.23265733147252 24 -41.250612076979976 1.0000000000000002 
	-14.356871424900394 23.999999999999996 -41.258914375494115 0.99999999999999978 
	-14.52243897019188 24.000000000000004 -41.294103468000969 1 
	-14.665368619426523 24 -41.345447918344952 1.0000000000000002 
	-14.785296984015623 24 -41.41037378874644 1 
	-14.881801245278632 24.000000000000004 -41.487580584083759 1 
	-14.951016386860628 24.000000000000007 -41.57214374139344 0.99999999999999978 
	-14.99230043400909 24 -41.664909564864587 1.0000000000000002 
	-15.000537521225196 24.000000000000011 -41.721908780575227 0.99999999999999989 
	-15.000000000000007 24.000000000000007 -41.75 1 
	0.001 
	cone -6.574749788396228 18.306062341297171 -41.75 -0.80000000000000004 0.60000000000000009 0 0 0 0.5 1 I I 0 1 0.5 forward I I I I 
	plane -10.024080688773235 24 -37.5 0 1 0 0 0 1 forward_v I I I I 
	nullbs 
	nullbs 
	I I 
	0 
	0 
	0 
	} I I #
point $-1 -15 24 -41.75 #
edge $-1 $367 0 $360 1 $327 $402 forward 7 unknown #
plane-surface $-1 -10.024080688773235 24 -37.5 0 1 0 0 0 1 forward_v I I I I #
coedge $-1 $394 $329 $338 $383 reversed $376 $-1 #
coedge $-1 $329 $394 $331 $379 forward $376 $-1 #
loop $-1 $-1 $375 $403 #
ellipse-curve $-1 -16 23.5 -46 0 1 0 9.8019370398105821e-012 0 -1.0000000000000071 1 I I #
coedge $-1 $332 $331 $352 $392 reversed $333 $-1 #
edge $-1 $404 1.4210854715201499e-014 $272 1.5707963267948539 $331 $405 forward 7 unknown #
face $-1 $328 $333 $2 $-1 $406 forward single #
ellipse-curve $-1 1.9999999999999996 23.500000000000007 -46.500000000000007 -1 1.7763568394002757e-015 2.5243548967073095e-029 8.8817841970012523e-016 0.49999999999999289 7.1054273576010019e-015 1 I I #
coedge $-1 $338 $337 $393 $407 reversed $339 $-1 #
edge $-1 $408 0 $280 1.5707963267949179 $374 $409 forward 7 unknown #
face $-1 $403 $339 $2 $-1 $410 forward single #
coedge $-1 $345 $393 $342 $386 forward $296 $-1 #
edge $-1 $387 0 $347 1.5707963459591936 $385 $411 forward 7 unknown #
vertex $-1 $386 $412 #
ellipse-curve $-1 -16.500000000000007 23.500000000000011 -40.500000000006594 -1.5176421639004561e-025 -7.1196382123163557e-012 1 1.0658141036401503e-014 0.49999999999998934 3.5598191061581019e-012 1 I I #
torus-surface $-1 -16 23.5 -40.5 0 -1 0 0.499999999999998 0.5 -0.9999987661349975 0 -0.0015709005323429957 forward_v I I I I #
straight-curve $-1 -16 24 -40 1 0 0 I I #
point $-1 -16 24 -40 #
edge $-1 $354 -4.4408920985006262e-016 $404 18 $352 $413 forward 7 unknown #
coedge $-1 $385 $353 $382 $407 forward $296 $-1 #
coedge $-1 $375 $374 $353 $395 reversed $376 $-1 #
edge $-1 $404 6.0609295942280491e-012 $408 1.5707963459592007 $353 $414 forward 7 unknown #
point $-1 2.0000000000000004 24 -46.5 #
cone-surface $-1 -15.170878648243184 24.753158986182388 -44.75 0.80000000000000004 -0.60000000000000009 0 0 0 -0.5 1 I I 0 1 0.5 forward I I I I #
straight-curve $-1 0.1666666666666643 24 -45.25 -1 0 0 I I #
point $-1 -14.16666666666667 24.000000000000004 -45.25 #
straight-curve $-1 -15 24 -44.75 0 0 1 I I #
point $-1 -15 24 -44.75 #
intcurve-curve $-1 forward { surfintcur full nurbs 3 open 9 
	0 3 0.12019291428296947 1 0.24166663876930777 1 0.36419852652156998 1 0.48812220540499757 1 
	0.61346610455925421 1 0.74042287749089297 1 0.86918646587825066 1 1 3 
	-15.000000000000004 24.000000000000004 -44.75 1 
	-15.000537521225198 24.000000000000014 -44.778091219424788 0.99999999999999978 
	-14.992300434009092 23.999999999999996 -44.835090435135406 1.0000000000000002 
	-14.95101638686064 24.000000000000007 -44.927856258606568 1 
	-14.881801245278632 24.000000000000004 -45.012419415916249 1 
	-14.785296984015623 24 -45.089626211253545 1.0000000000000002 
	-14.665368619426529 23.999999999999996 -45.154552081655055 1 
	-14.522438970191878 24.000000000000011 -45.205896531999031 0.99999999999999989 
	-14.356871424900394 24.000000000000004 -45.241085624505885 1.0000000000000002 
	-14.232657331472526 24 -45.249387923020016 1 
	-14.16666666666667 24.000000000000004 -45.25 1 
	0.001 
	cone -15.170878648243184 24.753158986182388 -44.75 0.80000000000000004 -0.60000000000000009 0 0 0 -0.5 1 I I 0 1 0.5 forward I I I I 
	plane -10.024080688773235 24 -37.5 0 1 0 0 0 1 forward_v I I I I 
	nullbs 
	nullbs 
	I I 
	0 
	0 
	0 
	} I I #
face $-1 $380 $376 $2 $-1 $415 forward single #
vertex $-1 $392 $416 #
ellipse-curve $-1 -15.999999999993404 23.499999999999982 -46.499999999999993 -1 -7.1302963533523525e-012 0 -3.5651481766763027e-012 0.50000000000001776 0 1 I I #
cone-surface $-1 2.0180012015113165 23.5 -46.5 -1 0 0 0 0 -0.5 1 I I 0 1 0.5 forward I I I I #
edge $-1 $408 0 $387 5.499999999996966 $393 $417 forward 7 unknown #
vertex $-1 $407 $418 #
ellipse-curve $-1 -16.500000000000004 23.500000000000007 -46 0 0 1 3.5527136788005009e-015 0.49999999999999289 0 1 I I #
cone-surface $-1 -16.5 23.5 -46.005500367128462 0 0 1 -0.5 0 0 1 I I 0 1 0.5 forward I I I I #
ellipse-curve $-1 -16.000000004789559 24 -40.499999995210445 0 1 0 -0.49999999521043748 0 -4.792589436419803e-009 1 I I #
point $-1 -16.499999999999996 24 -40.500000000003034 #
straight-curve $-1 2 24 -46.5 -1 0 0 I I #
ellipse-curve $-1 -16.000000004789559 24 -46.000000004789563 0 1 0 4.792589436419803e-009 0 -0.49999999521043037 1 I I #
torus-surface $-1 -16 23.5 -46 0 -1 0 0.500000000000005 0.5 0.0015709005323465263 0 -0.99999876613499761 forward_v I I I I #
point $-1 -16 24 -46.5 #
straight-curve $-1 -16.5 24 -46 0 0 1 I I #
point $-1 -16.5 24 -46 #
End-of-ACIS-data 