600 0 1 0           
94 GICL Pro/E ACIS Translator - Source: f:/data5/repository/PTC/V18/fly_small18/prt0003.prt - 6 0 13 ACIS 6.0.3 NT 24 Thu Apr 04 13:36:19 2002 
1 9.9999999999999995e-007 1e-010 
body $-1 $1 $-1 $-1 #
lump $-1 $-1 $2 $0 #
shell $-1 $-1 $-1 $3 $-1 $1 #
face $-1 $4 $5 $2 $-1 $6 reversed single #
face $-1 $7 $8 $2 $-1 $9 forward single #
loop $-1 $-1 $10 $3 #
plane-surface $-1 -10.024080688773235 22.5 -37.5 0 1 0 0 0 -1 forward_v I I I I #
face $-1 $11 $12 $2 $-1 $13 forward single #
loop $-1 $-1 $14 $4 #
cone-surface $-1 -2 22.5 -57.5 0 1 0 0 0 -5 1 I I 0 1 5 forward I I I I #
coedge $-1 $15 $15 $16 $17 reversed $5 $-1 #
face $-1 $18 $19 $2 $-1 $20 forward single #
loop $-1 $-1 $21 $7 #
cone-surface $-1 -2 22.5 -57.5 0 1 0 0 0 -5 1 I I 0 1 5 forward I I I I #
coedge $-1 $22 $16 $23 $24 forward $8 $-1 #
coedge $-1 $10 $10 $25 $26 reversed $5 $-1 #
coedge $-1 $14 $27 $10 $17 forward $8 $-1 #
edge $-1 $28 0 $29 3.1415926535897931 $10 $30 forward 7 unknown #
face $-1 $31 $32 $2 $-1 $33 reversed single #
loop $-1 $34 $35 $11 #
plane-surface $-1 -10.024080688773235 24 -37.5 0 1 0 0 0 -1 forward_v I I I I #
coedge $-1 $36 $25 $27 $37 forward $12 $-1 #
coedge $-1 $27 $14 $35 $38 reversed $8 $-1 #
coedge $-1 $25 $36 $14 $24 reversed $12 $-1 #
edge $-1 $29 0 $39 1.5 $23 $40 forward 7 unknown #
coedge $-1 $21 $23 $15 $26 forward $12 $-1 #
edge $-1 $29 0 $28 3.1415926535897931 $15 $41 forward 7 unknown #
coedge $-1 $16 $22 $21 $37 reversed $8 $-1 #
vertex $-1 $26 $42 #
vertex $-1 $26 $43 #
ellipse-curve $-1 -2 22.5 -57.5 0 1 0 -5.0000000000000018 0 0 1 I I #
face $-1 $44 $45 $2 $-1 $46 reversed single #
loop $-1 $-1 $47 $18 #
cone-surface $-1 -2 20.199999999999999 -57.5 0 -1 0 0 0 -0.99999999999999989 1 I I -0.70710678118654746 0.70710678118654757 0.99999999999999989 forward I I I I #
loop $-1 $-1 $48 $11 #
coedge $-1 $49 $49 $22 $38 forward $19 $-1 #
coedge $-1 $23 $21 $49 $50 reversed $12 $-1 #
edge $-1 $28 0 $51 1.5 $21 $52 forward 7 unknown #
edge $-1 $51 0 $39 3.14159265358981 $35 $53 forward 7 unknown #
vertex $-1 $50 $54 #
straight-curve $-1 3 22.5 -57.500000000000028 0 1 0 I I #
ellipse-curve $-1 -2 22.5 -57.5 0 1 0 4.9999999999999982 0 0 1 I I #
point $-1 -7.0000000000000018 22.5 -57.5 #
point $-1 2.9999999999999982 22.5 -57.5 #
face $-1 $55 $56 $2 $-1 $57 reversed single #
loop $-1 $-1 $58 $31 #
cone-surface $-1 -2 20.199999999999999 -57.5 0 -1 0 0 0 -1.0000000000000089 1 I I -0.70710678118655068 0.70710678118654435 1.0000000000000089 forward I I I I #
coedge $-1 $59 $60 $61 $62 forward $32 $-1 #
coedge $-1 $63 $63 $60 $64 forward $34 $-1 #
coedge $-1 $35 $35 $36 $50 forward $19 $-1 #
edge $-1 $39 0 $51 3.1415926535897931 $49 $65 forward 7 unknown #
vertex $-1 $50 $66 #
straight-curve $-1 -7 22.5 -57.500000000000014 0 1 0 I I #
ellipse-curve $-1 -2.0000000000000018 24 -57.499999999999957 0 1 0 -5 0 -4.2632564145606011e-014 1 I I #
point $-1 2.9999999999999982 24 -57.5 #
face $-1 $67 $68 $2 $-1 $69 reversed single #
loop $-1 $-1 $70 $44 #
cone-surface $-1 -2 24 -57.5 0 -1 0 0 0 -4 1 I I 0 1 4 forward I I I I #
coedge $-1 $71 $72 $73 $74 forward $45 $-1 #
coedge $-1 $73 $47 $75 $76 forward $32 $-1 #
coedge $-1 $47 $73 $48 $64 reversed $32 $-1 #
coedge $-1 $72 $71 $47 $62 reversed $45 $-1 #
edge $-1 $77 2.5121479338940459e-014 $78 1.131370849898472 $61 $79 forward 7 unknown #
coedge $-1 $48 $48 $72 $80 forward $34 $-1 #
edge $-1 $77 -8.7892656116158269e-016 $81 3.1415926535897949 $48 $82 forward 7 unknown #
ellipse-curve $-1 -2.0000000000000018 24 -57.5 0 1 0 5 0 0 1 I I #
point $-1 -7.0000000000000018 24 -57.5 #
face $-1 $83 $84 $2 $-1 $85 forward single #
loop $-1 $86 $87 $55 #
plane-surface $-1 -10.024080688773235 22.799999999999997 -37.5 0 -1 0 0 0 -1 forward_v I I I I #
coedge $-1 $88 $89 $90 $91 reversed $56 $-1 #
coedge $-1 $61 $58 $92 $93 forward $45 $-1 #
coedge $-1 $58 $61 $63 $80 reversed $45 $-1 #
coedge $-1 $60 $59 $58 $74 reversed $32 $-1 #
edge $-1 $81 2.5121479338940408e-014 $94 1.131370849898472 $58 $95 forward 7 unknown #
coedge $-1 $96 $97 $59 $76 reversed $98 $-1 #
edge $-1 $78 1.1102230246251565e-016 $94 3.1415926535897931 $75 $99 forward 7 unknown #
vertex $-1 $80 $100 #
vertex $-1 $93 $101 #
straight-curve $-1 -1.9999999999999989 24 -52.700000000000003 -1.9626155733547216e-016 -0.70710678118654913 -0.70710678118654602 I I #
edge $-1 $81 0 $77 3.1415926535897949 $63 $102 forward 7 unknown #
vertex $-1 $80 $103 #
ellipse-curve $-1 -2.0000000000000036 24 -57.5 0 -1 0 4.6629367034256575e-015 0 4.7999999999999972 1 I I #
face $-1 $104 $105 $2 $-1 $106 forward single #
loop $-1 $-1 $107 $67 #
cone-surface $-1 -2 24 -57.5 0 -1 0 0 0 -3.5 1 I I 0 1 3.5 forward I I I I #
loop $-1 $-1 $108 $55 #
coedge $-1 $109 $109 $110 $111 forward $68 $-1 #
coedge $-1 $92 $70 $96 $112 forward $56 $-1 #
coedge $-1 $70 $92 $97 $113 reversed $56 $-1 #
coedge $-1 $108 $108 $70 $91 forward $86 $-1 #
edge $-1 $114 0 $115 3.1415926535897816 $90 $116 forward 7 unknown #
coedge $-1 $89 $88 $71 $93 reversed $56 $-1 #
edge $-1 $94 1.3805065841367731e-030 $78 3.1415926535897944 $92 $117 forward 7 unknown #
vertex $-1 $113 $118 #
straight-curve $-1 -2.0000000000000107 24 -62.299999999999997 -4.7102773760513317e-015 -0.70710678118654913 0.70710678118654602 I I #
coedge $-1 $119 $75 $88 $112 reversed $98 $-1 #
coedge $-1 $75 $119 $89 $113 forward $98 $-1 #
loop $-1 $-1 $75 $120 #
ellipse-curve $-1 -1.9999999999999996 23.199999999999999 -57.5 0 -1 0 4.4408920985006262e-016 0 4 1 I I #
point $-1 -1.9999999999999947 23.999999999999964 -52.700000000000003 #
point $-1 -1.9999999999999996 23.200000000000003 -53.5 #
ellipse-curve $-1 -1.9999999999999929 24 -57.5 1.0956401461402955e-029 -1 7.4014868308343806e-015 -7.1054273576010019e-015 -3.5527136788005009e-014 -4.7999999999999972 1 I I #
point $-1 -2 23.999999999999964 -62.299999999999997 #
face $-1 $121 $122 $2 $-1 $123 forward single #
loop $-1 $-1 $124 $83 #
cone-surface $-1 -2 24 -57.5 0 -1 0 0 0 -3.5 1 I I 0 1 3.5 forward I I I I #
coedge $-1 $110 $125 $126 $127 reversed $84 $-1 #
coedge $-1 $90 $90 $119 $128 forward $86 $-1 #
coedge $-1 $87 $87 $129 $130 forward $68 $-1 #
coedge $-1 $131 $107 $87 $111 reversed $84 $-1 #
edge $-1 $132 0 $133 3.1415926535897931 $87 $134 forward 7 unknown #
edge $-1 $114 -3.5527136788005009e-015 $78 0.40000000000000213 $88 $135 forward 7 unknown #
edge $-1 $115 -3.5527136788005009e-015 $94 0.40000000000000213 $89 $136 forward 7 unknown #
vertex $-1 $91 $137 #
vertex $-1 $91 $138 #
ellipse-curve $-1 -2.0000000000000249 22.799999999999997 -57.499999999999979 0 1 0 2.3092638912203256e-014 0 4.0000000000000213 1 I I #
ellipse-curve $-1 -1.9999999999999969 23.199999999999967 -57.5 0 -1 0 -3.1086244689504383e-015 0 -3.9999999999999929 1 I I #
point $-1 -2 23.200000000000003 -61.5 #
coedge $-1 $97 $96 $108 $128 reversed $98 $-1 #
face $-1 $-1 $98 $2 $-1 $139 reversed single #
face $-1 $140 $141 $2 $-1 $142 forward single #
loop $-1 $-1 $143 $104 #
torus-surface $-1 -2 23.199999999999999 -57.5 0 -1 0 2.6999999999999931 0.79999999999999993 0.0029531263196626635 0 -0.99999563951296322 forward_v I I I I #
coedge $-1 $129 $144 $131 $145 reversed $105 $-1 #
coedge $-1 $107 $131 $146 $147 reversed $84 $-1 #
coedge $-1 $144 $129 $107 $127 forward $105 $-1 #
edge $-1 $133 -3.5527136788005009e-015 $148 0.39999999999999858 $126 $149 forward 7 unknown #
edge $-1 $115 0 $114 3.1415926535897833 $108 $150 forward 7 unknown #
coedge $-1 $126 $124 $109 $130 reversed $105 $-1 #
edge $-1 $133 0 $132 3.1415926535897931 $109 $151 forward 7 unknown #
coedge $-1 $125 $110 $124 $145 forward $84 $-1 #
vertex $-1 $130 $152 #
vertex $-1 $130 $153 #
ellipse-curve $-1 -2.0000000000000018 22.799999999999997 -57.5 0 -1 0 0 0 -3.5 1 I I #
straight-curve $-1 -1.9999999999999996 22.800000000000001 -53.5 0 1 0 I I #
straight-curve $-1 -2 22.800000000000001 -61.5 0 1 0 I I #
point $-1 -2.0000000000000018 22.799999999999997 -53.499999999999957 #
point $-1 -2.0000000000000018 22.799999999999997 -61.5 #
cone-surface $-1 -2 24 -57.5 0 -1 0 0 0 -4 1 I I 0 1 4 forward I I I I #
face $-1 $120 $154 $2 $-1 $155 forward single #
loop $-1 $-1 $156 $121 #
torus-surface $-1 -2 23.199999999999999 -57.5 0 -1 0 2.6999999999999931 0.79999999999999993 -0.0029531263196622523 0 0.99999563951296322 forward_v I I I I #
coedge $-1 $157 $158 $159 $160 forward $122 $-1 #
coedge $-1 $124 $126 $157 $161 reversed $105 $-1 #
edge $-1 $132 -3.5527136788005009e-015 $162 0.39999999999999858 $124 $163 forward 7 unknown #
coedge $-1 $159 $156 $125 $147 forward $141 $-1 #
edge $-1 $148 -1.3957089452430539e-015 $162 3.1415926535897936 $125 $164 forward 7 unknown #
vertex $-1 $161 $165 #
straight-curve $-1 -1.9999999999999996 22.800000000000001 -54 0 1 0 I I #
ellipse-curve $-1 -1.9999999999999822 22.799999999999997 -57.499999999999979 0 1 0 -1.9539925233402755e-014 0 -4.0000000000000213 1 I I #
ellipse-curve $-1 -2.0000000000000018 22.799999999999997 -57.5 0 -1 0 0 0 3.5 1 I I #
point $-1 -2.0000000000000018 22.799999999999997 -61 #
point $-1 -2.0000000000000018 22.799999999999997 -54 #
loop $-1 $-1 $166 $140 #
plane-surface $-1 -10.024080688773235 24 -37.5 0 1 0 0 0 -1 forward_v I I I I #
coedge $-1 $146 $167 $168 $169 forward $141 $-1 #
coedge $-1 $168 $143 $144 $161 forward $122 $-1 #
coedge $-1 $143 $168 $170 $171 reversed $122 $-1 #
coedge $-1 $167 $146 $143 $160 reversed $141 $-1 #
edge $-1 $172 -5.0826612488028482e-032 $162 1.5707963267948966 $143 $173 forward 7 unknown #
edge $-1 $162 0 $148 3.1415926535897913 $144 $174 forward 7 unknown #
vertex $-1 $161 $175 #
straight-curve $-1 -2.0000000000000009 22.800000000000001 -61 0 1 0 I I #
ellipse-curve $-1 -2 23.199999999999999 -57.5 0 1 0 -7.7196027348236385e-012 0 3.5 1 I I #
point $-1 -2.0000000000077245 23.199999999999999 -54 #
coedge $-1 $170 $170 $167 $176 forward $154 $-1 #
coedge $-1 $156 $159 $166 $176 reversed $141 $-1 #
coedge $-1 $158 $157 $156 $169 reversed $122 $-1 #
edge $-1 $177 -4.7009140022009978e-024 $148 1.5707963267948966 $168 $178 forward 7 unknown #
coedge $-1 $166 $166 $158 $171 forward $154 $-1 #
edge $-1 $172 0 $177 3.1415926535499561 $170 $179 forward 7 unknown #
vertex $-1 $171 $180 #
ellipse-curve $-1 -1.9999999999953346 23.199999999999992 -60.199999999999996 -1 -5.2149951024204309e-012 -3.8154999154094584e-012 -4.1719960819364132e-012 0.80000000000000782 7.1054273576010019e-015 1 I I #
ellipse-curve $-1 -2 23.199999999999999 -57.5 0 1 0 7.7178263779842382e-012 0 -3.5 1 I I #
point $-1 -1.9999999999922822 23.199999999999999 -61 #
edge $-1 $177 3.6456434578987782e-013 $172 3.1415926535495893 $166 $181 forward 7 unknown #
vertex $-1 $171 $182 #
ellipse-curve $-1 -2.0000000000046629 23.199999999999992 -54.800000000000004 1 -5.2130522121273377e-012 3.820623352982318e-012 4.170441769701938e-012 0.80000000000000782 -7.1054273576010019e-015 1 I I #
ellipse-curve $-1 -1.999999999945727 24 -57.5 0 1 0 -5.3779647402052433e-011 0 -2.6999999999999886 1 I I #
point $-1 -1.9999999999995066 24 -60.199999999999989 #
ellipse-curve $-1 -2.0000000000542748 24 -57.5 0 1 0 5.3782311937311533e-011 0 2.6999999999999886 1 I I #
point $-1 -1.9999999999995082 24 -54.800000000000011 #
End-of-ACIS-data 