700 0 2 0           
24 FBMach with ACIS - 7.0.3 13 ACIS 7.0.3 NT 24 Wed May 15 18:05:46 2002 
1 9.9999999999999995e-007 1e-010 
body $2 -1 $-1 $3 $-1 $4 #
bdycol-kcp $-1 -1 1 3 $5 $6 $7 #
model_id-kcp-attrib $-1 -1 $-1 $-1 $0 1 1021500346 1021500346 899219457 1 #
lump $-1 -1 $-1 $-1 $8 $0 #
transform $-1 -1 1 0 0 0 1 0 0 0 1 0 0 0 1 rotate no_reflect no_shear #
body $9 -1 $-1 $10 $-1 $11 #
body $12 -1 $-1 $13 $-1 $14 #
body $15 -1 $-1 $16 $-1 $17 #
shell $-1 -1 $-1 $-1 $-1 $18 $-1 $3 #
rgb_color-st-attrib $-1 -1 $19 $-1 $5 0 0 1 #
lump $-1 -1 $-1 $-1 $20 $5 #
transform $-1 -1 1 0 0 0 1 0 0 0 1 -2 23.250000000000018 -57.499999999999979 1 no_rotate no_reflect no_shear #
rgb_color-st-attrib $-1 -1 $21 $-1 $6 0.5 1 1 #
lump $-1 -1 $-1 $-1 $22 $6 #
transform $-1 -1 1 0 0 0 1 0 0 0 1 -2 23.250000000000018 -57.499999999999979 1 no_rotate no_reflect no_shear #
model_id-kcp-attrib $-1 -1 $-1 $-1 $7 1 1021500346 1021500346 899219458 1 #
lump $-1 -1 $-1 $-1 $23 $7 #
transform $-1 -1 1 0 0 0 1 0 0 0 1 -2 23.250000000000018 -57.499999999999979 1 no_rotate no_reflect no_shear #
face $24 -1 $-1 $25 $26 $8 $-1 $27 reversed single #
model_id-kcp-attrib $-1 -1 $-1 $9 $5 1 1021500346 1021500346 889323524 1 #
shell $-1 -1 $-1 $-1 $-1 $28 $-1 $10 #
model_id-kcp-attrib $-1 -1 $-1 $12 $6 1 1021500346 1021500346 889716739 1 #
shell $-1 -1 $-1 $-1 $-1 $29 $-1 $13 #
shell $-1 -1 $-1 $-1 $-1 $30 $-1 $16 #
model_id-kcp-attrib $-1 -1 $-1 $-1 $18 1 1021500346 1021500346 899219457 2 #
face $31 -1 $-1 $32 $33 $8 $-1 $34 forward single #
loop $-1 -1 $-1 $-1 $35 $18 #
plane-surface $-1 -1 $-1 -10.024080688773235 22.5 -37.5 0 1 0 0 0 -1 forward_v I I I I #
face $-1 -1 $-1 $36 $37 $20 $-1 $38 forward single #
face $-1 -1 $-1 $39 $40 $22 $-1 $41 reversed single #
face $-1 -1 $-1 $42 $43 $23 $-1 $44 forward single #
model_id-kcp-attrib $-1 -1 $-1 $-1 $25 1 1021500346 1021500346 899219457 3 #
face $45 -1 $-1 $46 $47 $8 $-1 $48 forward single #
loop $-1 -1 $-1 $-1 $49 $25 #
cone-surface $-1 -1 $-1 -2 22.5 -57.5 0 1 0 0 0 -5 1 I I 0 1 5 forward I I I I #
coedge $-1 -1 $-1 $50 $50 $51 $52 reversed $26 $-1 #
face $-1 -1 $-1 $53 $54 $20 $-1 $55 forward single #
loop $-1 -1 $-1 $56 $57 $28 #
cone-surface $-1 -1 $-1 0 -0.45000000000002238 -2.1316282072803006e-014 0 1 0 0 0 -3.5 1 I I 0 -1 3.5 forward I I I I #
face $-1 -1 $-1 $58 $59 $22 $-1 $41 reversed single #
loop $-1 -1 $-1 $-1 $60 $29 #
cone-surface $-1 -1 $-1 -1.7763568394002505e-015 -0.75000000000001776 -2.1316282072803006e-014 0 -1 0 5 0 0 1 I I 0 1 5 forward I I I I #
face $-1 -1 $-1 $61 $62 $23 $-1 $63 reversed single #
loop $-1 -1 $-1 $-1 $64 $30 #
plane-surface $-1 -1 $-1 0 0 5.0000000000000213 0 0 1 1 0 0 forward_v I I I I #
model_id-kcp-attrib $-1 -1 $-1 $-1 $32 1 1021500346 1021500346 899219457 4 #
face $65 -1 $-1 $66 $67 $8 $-1 $68 forward single #
loop $-1 -1 $-1 $-1 $69 $32 #
cone-surface $-1 -1 $-1 -2 22.5 -57.5 0 1 0 0 0 -5 1 I I 0 1 5 forward I I I I #
coedge $-1 -1 $-1 $70 $51 $71 $72 forward $33 $-1 #
coedge $-1 -1 $-1 $35 $35 $73 $74 reversed $26 $-1 #
coedge $-1 -1 $-1 $49 $75 $35 $52 forward $33 $-1 #
edge $76 -1 $-1 $77 0 $78 3.1415926535897931 $35 $79 forward @7 unknown #
face $-1 -1 $-1 $80 $81 $20 $-1 $82 forward single #
loop $-1 -1 $-1 $83 $84 $36 #
cone-surface $-1 -1 $-1 0 -0.45000000000002238 -2.1316282072803006e-014 0 1 0 0 0 -4 1 I I 0 1 4 forward I I I I #
loop $-1 -1 $-1 $-1 $85 $28 #
coedge $-1 -1 $-1 $57 $57 $86 $87 forward $37 $-1 #
face $-1 -1 $-1 $88 $89 $22 $-1 $41 reversed single #
loop $-1 -1 $-1 $-1 $90 $39 #
coedge $-1 -1 $-1 $91 $92 $93 $94 reversed $40 $-1 #
face $95 -1 $-1 $96 $97 $23 $-1 $98 reversed single #
loop $-1 -1 $-1 $-1 $99 $42 #
plane-surface $-1 -1 $-1 0 0 -5.0000000000000213 0 0 1 1 0 0 forward_v I I I I #
coedge $-1 -1 $-1 $100 $101 $102 $103 forward $43 $-1 #
model_id-kcp-attrib $-1 -1 $-1 $-1 $46 1 1021500346 1021500346 899219457 5 #
face $104 -1 $-1 $105 $106 $8 $-1 $107 reversed single #
loop $-1 -1 $-1 $108 $109 $46 #
plane-surface $-1 -1 $-1 -10.024080688773235 24 -37.5 0 1 0 0 0 -1 forward_v I I I I #
coedge $-1 -1 $-1 $110 $73 $75 $111 forward $47 $-1 #
coedge $-1 -1 $-1 $75 $49 $109 $112 reversed $33 $-1 #
coedge $-1 -1 $-1 $73 $110 $49 $72 reversed $47 $-1 #
edge $-1 -1 $-1 $78 0 $113 1.5 $71 $114 forward @7 unknown #
coedge $-1 -1 $-1 $69 $71 $50 $74 forward $47 $-1 #
edge $115 -1 $-1 $78 0 $77 3.1415926535897931 $50 $116 forward @7 unknown #
coedge $-1 -1 $-1 $51 $70 $69 $111 reversed $33 $-1 #
attrib_edge_convexity-kcp-attrib $-1 -1 $117 $-1 $52 1 #
vertex $-1 -1 $-1 $74 $118 #
vertex $-1 -1 $-1 $74 $119 #
ellipse-curve $-1 -1 $-1 -2 22.5 -57.5 0 1 0 -5.0000000000000018 0 0 1 I I #
face $-1 -1 $-1 $-1 $120 $20 $-1 $121 reversed single #
loop $-1 -1 $-1 $122 $123 $53 #
plane-surface $-1 -1 $-1 -1.1102230246251565e-016 -0.05000000000002025 -2.1473731883568023e-014 -4.886748970395649e-033 1 3.4905349788540331e-033 0 -3.4905349788540331e-033 1 forward_v I I I I #
loop $-1 -1 $-1 $-1 $124 $36 #
coedge $-1 -1 $-1 $84 $84 $123 $125 forward $54 $-1 #
coedge $-1 -1 $-1 $85 $85 $126 $127 reversed $56 $-1 #
coedge $-1 -1 $-1 $86 $86 $57 $87 reversed $122 $-1 #
edge $-1 -1 $-1 $128 -3.1415926535897936 $128 3.1415926535897927 $57 $129 forward @7 unknown #
face $-1 -1 $-1 $130 $131 $22 $-1 $41 reversed single #
loop $-1 -1 $-1 $-1 $132 $58 #
coedge $-1 -1 $-1 $133 $134 $135 $136 reversed $59 $-1 #
coedge $-1 -1 $-1 $137 $60 $138 $139 forward $40 $-1 #
coedge $-1 -1 $-1 $60 $137 $140 $141 reversed $40 $-1 #
coedge $-1 -1 $-1 $142 $143 $60 $94 forward $144 $-1 #
edge $-1 -1 $-1 $145 0 $146 1.5707963267948966 $93 $147 forward @7 unknown #
model_id-kcp-attrib $-1 -1 $-1 $-1 $61 1 1021500346 1021500346 899219458 2 #
face $-1 -1 $-1 $148 $149 $23 $-1 $150 reversed single #
loop $-1 -1 $-1 $-1 $151 $61 #
plane-surface $-1 -1 $-1 0 -0.75000000000001776 0 0 1 0 0 0 1 forward_v I I I I #
coedge $-1 -1 $-1 $152 $153 $154 $155 forward $62 $-1 #
coedge $-1 -1 $-1 $156 $64 $157 $158 forward $43 $-1 #
coedge $-1 -1 $-1 $64 $156 $159 $160 forward $43 $-1 #
coedge $-1 -1 $-1 $161 $162 $64 $103 reversed $163 $-1 #
edge $-1 -1 $-1 $164 -0.75000000000001776 $165 0.75000000000001776 $102 $166 forward @7 unknown #
model_id-kcp-attrib $-1 -1 $-1 $-1 $66 1 1021500346 1021500346 899219457 6 #
face $167 -1 $-1 $168 $169 $8 $-1 $170 reversed single #
loop $-1 -1 $-1 $-1 $171 $66 #
cone-surface $-1 -1 $-1 -2 20.199999999999999 -57.5 0 -1 0 0 0 -0.99999999999999989 1 I I -0.70710678118654746 0.70710678118654757 0.99999999999999989 forward I I I I #
loop $-1 -1 $-1 $-1 $172 $46 #
coedge $-1 -1 $-1 $173 $173 $70 $112 forward $67 $-1 #
coedge $-1 -1 $-1 $71 $69 $173 $174 reversed $47 $-1 #
edge $-1 -1 $-1 $77 0 $175 1.5 $69 $176 forward @7 unknown #
edge $-1 -1 $-1 $175 0 $113 3.14159265358981 $109 $177 forward @7 unknown #
vertex $-1 -1 $-1 $174 $178 #
straight-curve $-1 -1 $-1 3 22.5 -57.500000000000028 0 1 0 I I #
attrib_edge_convexity-kcp-attrib $-1 -1 $179 $-1 $74 1 #
ellipse-curve $-1 -1 $-1 -2 22.5 -57.5 0 1 0 4.9999999999999982 0 0 1 I I #
convexity-sys-attrib $-1 -1 $-1 $76 $52 #
point $-1 -1 $-1 -7.0000000000000018 22.5 -57.5 #
point $-1 -1 $-1 2.9999999999999982 22.5 -57.5 #
loop $-1 -1 $-1 $180 $181 $80 #
plane-surface $-1 -1 $-1 -1.1102230246251565e-016 -0.45000000000002238 -2.1473731883568023e-014 -4.886748970395649e-033 1 3.4905349788540331e-033 0 -3.4905349788540331e-033 1 forward_v I I I I #
loop $-1 -1 $-1 $-1 $86 $53 #
coedge $-1 -1 $-1 $123 $123 $84 $125 reversed $81 $-1 #
coedge $-1 -1 $-1 $124 $124 $181 $182 reversed $83 $-1 #
edge $-1 -1 $-1 $183 -3.1415926535897927 $183 3.1415926535897936 $84 $184 forward @7 unknown #
coedge $-1 -1 $-1 $126 $126 $85 $127 forward $180 $-1 #
edge $185 -1 $-1 $186 5.0753052554292868e-016 $186 6.2831853071795871 $85 $187 forward @7 unknown #
vertex $-1 -1 $-1 $87 $188 #
ellipse-curve $-1 -1 $-1 0 -0.05000000000002025 -2.1316282072803006e-014 0 1 0 0 0 -3.5 1 I I #
face $-1 -1 $-1 $189 $190 $22 $-1 $191 forward single #
loop $-1 -1 $-1 $-1 $192 $88 #
coedge $-1 -1 $-1 $193 $194 $192 $195 forward $89 $-1 #
coedge $-1 -1 $-1 $196 $90 $197 $198 reversed $59 $-1 #
coedge $-1 -1 $-1 $90 $196 $92 $141 forward $59 $-1 #
coedge $-1 -1 $-1 $199 $200 $90 $136 forward $201 $-1 #
edge $-1 -1 $-1 $202 -3.1415926535897931 $203 -1.5707963267948966 $135 $204 forward @7 unknown #
coedge $-1 -1 $-1 $92 $91 $205 $206 reversed $40 $-1 #
coedge $-1 -1 $-1 $194 $193 $207 $139 reversed $89 $-1 #
edge $-1 -1 $-1 $145 -1.5000000000000355 $208 0 $207 $209 forward @7 unknown #
coedge $-1 -1 $-1 $210 $211 $212 $141 forward $213 $-1 #
edge $-1 -1 $-1 $146 -1.5000000000000355 $203 0 $140 $214 forward @7 unknown #
coedge $-1 -1 $-1 $143 $93 $211 $215 reversed $144 $-1 #
coedge $-1 -1 $-1 $93 $142 $216 $217 forward $144 $-1 #
loop $-1 -1 $-1 $-1 $93 $218 #
vertex $-1 -1 $-1 $219 $220 #
vertex $-1 -1 $-1 $221 $222 #
ellipse-curve $-1 -1 $-1 -1.7763568394002505e-015 0.75000000000001776 -2.1316282072803006e-014 0 -1 0 5 0 0 1 I I #
face $223 -1 $-1 $224 $225 $23 $-1 $226 reversed single #
loop $-1 -1 $-1 $-1 $227 $96 #
plane-surface $-1 -1 $-1 -5.0000000000000018 0 0 1 0 0 0 0 -1 forward_v I I I I #
coedge $-1 -1 $-1 $228 $159 $229 $230 forward $97 $-1 #
coedge $-1 -1 $-1 $231 $99 $228 $232 forward $62 $-1 #
coedge $-1 -1 $-1 $99 $231 $233 $234 forward $62 $-1 #
coedge $-1 -1 $-1 $162 $161 $99 $155 reversed $163 $-1 #
edge $-1 -1 $-1 $235 -0.75000000000001776 $236 0.75000000000001776 $154 $237 forward @7 unknown #
coedge $-1 -1 $-1 $101 $100 $238 $239 forward $43 $-1 #
coedge $-1 -1 $-1 $240 $241 $100 $158 reversed $225 $-1 #
edge $-1 -1 $-1 $165 -5.0000000000000018 $242 5.0000000000000018 $157 $243 forward @7 unknown #
coedge $-1 -1 $-1 $151 $244 $101 $160 reversed $97 $-1 #
edge $-1 -1 $-1 $245 -5.0000000000000018 $164 5.0000000000000018 $159 $246 forward @7 unknown #
coedge $-1 -1 $-1 $154 $102 $244 $247 forward $163 $-1 #
coedge $-1 -1 $-1 $102 $154 $240 $248 reversed $163 $-1 #
loop $-1 -1 $-1 $-1 $161 $224 #
vertex $-1 -1 $-1 $103 $249 #
vertex $-1 -1 $-1 $103 $250 #
straight-curve $-1 -1 $-1 5.0000000000000018 0 5.0000000000000213 0 1 0 I I #
model_id-kcp-attrib $-1 -1 $-1 $-1 $105 1 1021500346 1021500346 899219457 7 #
face $251 -1 $-1 $252 $253 $8 $-1 $254 reversed single #
loop $-1 -1 $-1 $-1 $255 $105 #
cone-surface $-1 -1 $-1 -2 20.199999999999999 -57.5 0 -1 0 0 0 -1.0000000000000089 1 I I -0.70710678118655068 0.70710678118654435 1.0000000000000089 forward I I I I #
coedge $-1 -1 $-1 $256 $257 $258 $259 forward $106 $-1 #
coedge $-1 -1 $-1 $260 $260 $257 $261 forward $108 $-1 #
coedge $-1 -1 $-1 $109 $109 $110 $174 forward $67 $-1 #
edge $-1 -1 $-1 $113 0 $175 3.1415926535897931 $173 $262 forward @7 unknown #
vertex $-1 -1 $-1 $174 $263 #
straight-curve $-1 -1 $-1 -7 22.5 -57.500000000000014 0 1 0 I I #
ellipse-curve $-1 -1 $-1 -2.0000000000000018 24 -57.499999999999957 0 1 0 -5 0 -4.2632564145606011e-014 1 I I #
point $-1 -1 $-1 2.9999999999999982 24 -57.5 #
convexity-sys-attrib $-1 -1 $-1 $115 $74 #
loop $-1 -1 $-1 $-1 $126 $80 #
coedge $-1 -1 $-1 $181 $181 $124 $182 forward $120 $-1 #
edge $264 -1 $-1 $265 -4.4408920985006262e-016 $265 6.2831853071795862 $124 $266 forward @7 unknown #
vertex $-1 -1 $-1 $125 $267 #
ellipse-curve $-1 -1 $-1 0 -0.05000000000002025 -2.1316282072803006e-014 0 -1 0 0 0 -4 1 I I #
convexity-sys-attrib $-1 -1 $-1 $-1 $127 #
vertex $-1 -1 $-1 $127 $268 #
ellipse-curve $-1 -1 $-1 0 -0.45000000000002238 -2.1316282072803006e-014 0 1 0 0 0 -3.5 1 I I #
point $-1 -1 $-1 -1.7763568394002505e-015 -0.050000000000018474 3.4999999999999787 #
face $-1 -1 $-1 $269 $270 $22 $-1 $271 reversed single #
loop $-1 -1 $-1 $-1 $212 $130 #
plane-surface $-1 -1 $-1 0 0 5.0000000000000213 0 0 1 1 0 0 forward_v I I I I #
coedge $-1 -1 $-1 $272 $273 $274 $195 reversed $131 $-1 #
coedge $-1 -1 $-1 $138 $132 $275 $276 reversed $89 $-1 #
coedge $-1 -1 $-1 $132 $138 $277 $278 reversed $89 $-1 #
edge $-1 -1 $-1 $279 -1.5000000000000355 $280 0 $274 $281 forward @7 unknown #
coedge $-1 -1 $-1 $134 $133 $282 $283 reversed $59 $-1 #
coedge $-1 -1 $-1 $284 $285 $286 $198 forward $287 $-1 #
edge $-1 -1 $-1 $288 -1.5000000000000355 $202 0 $197 $289 forward @7 unknown #
coedge $-1 -1 $-1 $200 $135 $290 $291 reversed $201 $-1 #
coedge $-1 -1 $-1 $135 $199 $284 $292 forward $201 $-1 #
loop $-1 -1 $-1 $-1 $135 $293 #
vertex $-1 -1 $-1 $294 $295 #
vertex $-1 -1 $-1 $296 $297 #
ellipse-curve $-1 -1 $-1 -1.7763568394002505e-015 -0.75000000000001776 -2.1316282072803006e-014 0 1 0 5 0 0 1 I I #
coedge $-1 -1 $-1 $298 $299 $137 $206 forward $300 $-1 #
edge $-1 -1 $-1 $203 -1.5707963267948966 $208 0 $205 $204 forward @7 unknown #
coedge $-1 -1 $-1 $301 $302 $303 $139 forward $270 $-1 #
vertex $-1 -1 $-1 $304 $305 #
straight-curve $-1 -1 $-1 5.0000000000000018 -0.75000000000001776 -2.1316282072803006e-014 0 -1 0 I I #
coedge $-1 -1 $-1 $306 $140 $299 $296 forward $213 $-1 #
coedge $-1 -1 $-1 $140 $306 $142 $215 forward $213 $-1 #
coedge $-1 -1 $-1 $307 $290 $134 $141 reversed $190 $-1 #
loop $-1 -1 $-1 $-1 $140 $308 #
straight-curve $-1 -1 $-1 -1.7763568394002505e-015 -0.75000000000001776 5.0000000000000213 0 -1 0 I I #
edge $-1 -1 $-1 $309 -5.0000000000000018 $146 1.7763568394002505e-015 $142 $310 forward @7 unknown #
coedge $-1 -1 $-1 $311 $303 $143 $217 reversed $312 $-1 #
edge $-1 -1 $-1 $309 -5.0000000000000213 $145 2.1316282072803006e-014 $216 $313 forward @7 unknown #
face $-1 -1 $-1 $314 $144 $22 $-1 $315 reversed single #
edge $-1 -1 $-1 $145 2.1316282072803006e-014 $316 5.0000000000000213 $302 $313 forward @7 unknown #
point $-1 -1 $-1 5.0000000000000018 0.75000000000001776 -2.1316282072803006e-014 #
edge $-1 -1 $-1 $146 1.7763568394002505e-015 $317 5.0000000000000018 $318 $310 forward @7 unknown #
point $-1 -1 $-1 -1.7763568394002505e-015 0.75000000000001776 5.0000000000000213 #
model_id-kcp-attrib $-1 -1 $-1 $-1 $148 1 1021500346 1021500346 899219458 3 #
face $-1 -1 $-1 $-1 $163 $23 $-1 $319 reversed single #
loop $-1 -1 $-1 $-1 $240 $148 #
plane-surface $-1 -1 $-1 0 0.75000000000001776 0 0 -1 0 0 0 -1 forward_v I I I I #
coedge $-1 -1 $-1 $320 $238 $241 $321 forward $149 $-1 #
coedge $-1 -1 $-1 $244 $151 $152 $232 reversed $97 $-1 #
coedge $-1 -1 $-1 $238 $320 $151 $230 reversed $149 $-1 #
edge $-1 -1 $-1 $245 -5.0000000000000213 $322 5.0000000000000213 $229 $323 forward @7 unknown #
coedge $-1 -1 $-1 $153 $152 $320 $324 forward $62 $-1 #
edge $-1 -1 $-1 $236 -5.0000000000000018 $322 5.0000000000000018 $228 $325 forward @7 unknown #
coedge $-1 -1 $-1 $241 $240 $153 $234 reversed $225 $-1 #
edge $-1 -1 $-1 $326 -5.0000000000000018 $235 5.0000000000000018 $233 $327 forward @7 unknown #
vertex $-1 -1 $-1 $155 $328 #
vertex $-1 -1 $-1 $247 $329 #
straight-curve $-1 -1 $-1 5.0000000000000018 0 -5.0000000000000213 0 -1 0 I I #
coedge $-1 -1 $-1 $227 $229 $156 $239 reversed $149 $-1 #
edge $-1 -1 $-1 $242 -0.75000000000001776 $245 0.75000000000001776 $238 $330 forward @7 unknown #
coedge $-1 -1 $-1 $233 $157 $162 $248 forward $225 $-1 #
coedge $-1 -1 $-1 $157 $233 $227 $321 reversed $225 $-1 #
vertex $-1 -1 $-1 $158 $331 #
straight-curve $-1 -1 $-1 0 0.75000000000001776 5.0000000000000213 -1 0 0 I I #
coedge $-1 -1 $-1 $159 $228 $161 $247 reversed $97 $-1 #
vertex $-1 -1 $-1 $239 $332 #
straight-curve $-1 -1 $-1 0 -0.75000000000001776 5.0000000000000213 1 0 0 I I #
edge $-1 -1 $-1 $164 -5.0000000000000213 $236 5.0000000000000213 $161 $333 forward @7 unknown #
edge $-1 -1 $-1 $165 -5.0000000000000213 $235 5.0000000000000213 $162 $334 forward @7 unknown #
point $-1 -1 $-1 5.0000000000000018 -0.75000000000001776 5.0000000000000213 #
point $-1 -1 $-1 5.0000000000000018 0.75000000000001776 5.0000000000000213 #
model_id-kcp-attrib $-1 -1 $-1 $-1 $168 1 1021500346 1021500346 899219457 8 #
face $335 -1 $-1 $336 $337 $8 $-1 $338 reversed single #
loop $-1 -1 $-1 $-1 $339 $168 #
cone-surface $-1 -1 $-1 -2 24 -57.5 0 -1 0 0 0 -4 1 I I 0 1 4 forward I I I I #
coedge $-1 -1 $-1 $340 $341 $342 $343 forward $169 $-1 #
coedge $-1 -1 $-1 $342 $171 $344 $345 forward $106 $-1 #
coedge $-1 -1 $-1 $171 $342 $172 $261 reversed $106 $-1 #
coedge $-1 -1 $-1 $341 $340 $171 $259 reversed $169 $-1 #
edge $-1 -1 $-1 $346 2.5121479338940459e-014 $347 1.131370849898472 $258 $348 forward @7 unknown #
coedge $-1 -1 $-1 $172 $172 $341 $349 forward $108 $-1 #
edge $-1 -1 $-1 $346 -8.7892656116158269e-016 $350 3.1415926535897949 $172 $351 forward @7 unknown #
ellipse-curve $-1 -1 $-1 -2.0000000000000018 24 -57.5 0 1 0 5 0 0 1 I I #
point $-1 -1 $-1 -7.0000000000000018 24 -57.5 #
convexity-sys-attrib $-1 -1 $-1 $-1 $182 #
vertex $-1 -1 $-1 $182 $352 #
ellipse-curve $-1 -1 $-1 0 -0.45000000000002238 -2.1316282072803006e-014 0 -1 0 0 0 -4 1 I I #
point $-1 -1 $-1 -1.7763568394002505e-015 -0.050000000000018474 4.0000000000000213 #
point $-1 -1 $-1 -1.7763568394002505e-015 -0.45000000000002061 -3.5000000000000213 #
face $-1 -1 $-1 $353 $354 $22 $-1 $355 reversed single #
loop $-1 -1 $-1 $-1 $207 $189 #
plane-surface $-1 -1 $-1 5.0000000000000018 0 0 -1 0 0 0 0 1 forward_v I I I I #
coedge $-1 -1 $-1 $356 $192 $357 $358 reversed $131 $-1 #
coedge $-1 -1 $-1 $192 $356 $359 $360 reversed $131 $-1 #
coedge $-1 -1 $-1 $361 $362 $363 $195 forward $364 $-1 #
coedge $-1 -1 $-1 $365 $366 $193 $276 forward $367 $-1 #
edge $-1 -1 $-1 $208 0 $280 1.5707963267948966 $275 $204 forward @7 unknown #
coedge $-1 -1 $-1 $368 $369 $194 $278 forward $370 $-1 #
edge $-1 -1 $-1 $279 -1.5707963267948966 $145 0 $277 $147 forward @7 unknown #
vertex $-1 -1 $-1 $371 $372 #
vertex $-1 -1 $-1 $373 $374 #
straight-curve $-1 -1 $-1 -1.7763568394002505e-015 -0.75000000000001776 -5.0000000000000213 0 -1 0 I I #
coedge $-1 -1 $-1 $375 $318 $196 $283 forward $376 $-1 #
edge $-1 -1 $-1 $146 1.5707963267948966 $288 3.1415926535897931 $282 $147 forward @7 unknown #
coedge $-1 -1 $-1 $377 $197 $200 $292 reversed $287 $-1 #
coedge $-1 -1 $-1 $197 $377 $375 $378 forward $287 $-1 #
coedge $-1 -1 $-1 $379 $380 $356 $198 reversed $354 $-1 #
loop $-1 -1 $-1 $-1 $197 $381 #
vertex $-1 -1 $-1 $382 $383 #
straight-curve $-1 -1 $-1 -5.0000000000000018 -0.75000000000001776 -2.1316282072803006e-014 0 -1 0 I I #
coedge $-1 -1 $-1 $212 $384 $199 $291 forward $190 $-1 #
edge $-1 -1 $-1 $385 -5.0000000000000018 $203 -1.7763568394002505e-015 $199 $386 forward @7 unknown #
edge $-1 -1 $-1 $385 -5.0000000000000213 $202 2.1316282072803006e-014 $284 $387 forward @7 unknown #
face $-1 -1 $-1 $388 $201 $22 $-1 $389 reversed single #
edge $-1 -1 $-1 $202 2.1316282072803006e-014 $390 5.0000000000000213 $380 $387 forward @7 unknown #
point $-1 -1 $-1 -5.0000000000000018 -0.75000000000001776 -2.1316282072803006e-014 #
edge $-1 -1 $-1 $203 -1.7763568394002505e-015 $391 5.0000000000000018 $299 $386 forward @7 unknown #
point $-1 -1 $-1 -1.7763568394002505e-015 -0.75000000000001776 5.0000000000000213 #
coedge $-1 -1 $-1 $299 $205 $392 $393 reversed $300 $-1 #
coedge $-1 -1 $-1 $205 $298 $210 $296 reversed $300 $-1 #
loop $-1 -1 $-1 $-1 $205 $388 #
coedge $-1 -1 $-1 $394 $207 $366 $304 forward $270 $-1 #
coedge $-1 -1 $-1 $207 $394 $368 $219 reversed $270 $-1 #
coedge $-1 -1 $-1 $216 $392 $91 $139 reversed $312 $-1 #
edge $-1 -1 $-1 $208 2.1316282072803006e-014 $395 5.0000000000000213 $301 $396 forward @7 unknown #
point $-1 -1 $-1 5.0000000000000018 -0.75000000000001776 -2.1316282072803006e-014 #
coedge $-1 -1 $-1 $211 $210 $311 $397 forward $213 $-1 #
coedge $-1 -1 $-1 $384 $212 $318 $221 forward $190 $-1 #
face $-1 -1 $-1 $398 $213 $22 $-1 $191 forward single #
vertex $-1 -1 $-1 $397 $399 #
straight-curve $-1 -1 $-1 0 0.75000000000001776 5.0000000000000213 -1 0 0 I I #
coedge $-1 -1 $-1 $392 $216 $306 $397 reversed $312 $-1 #
loop $-1 -1 $-1 $-1 $303 $400 #
straight-curve $-1 -1 $-1 5.0000000000000018 0.75000000000001776 0 0 0 -1 I I #
face $-1 -1 $-1 $401 $376 $22 $-1 $315 reversed single #
plane-surface $-1 -1 $-1 0 0.75000000000001776 0 0 -1 0 0 0 -1 forward_v I I I I #
vertex $-1 -1 $-1 $402 $403 #
vertex $-1 -1 $-1 $221 $404 #
coedge $-1 -1 $-1 $282 $375 $307 $221 reversed $376 $-1 #
plane-surface $-1 -1 $-1 5.0000000000000018 0 0 -1 0 0 0 0 1 forward_v I I I I #
coedge $-1 -1 $-1 $229 $227 $231 $324 reversed $149 $-1 #
edge $-1 -1 $-1 $242 -5.0000000000000213 $326 5.0000000000000213 $241 $405 forward @7 unknown #
vertex $-1 -1 $-1 $324 $406 #
straight-curve $-1 -1 $-1 -5.0000000000000018 -0.75000000000001776 0 0 0 -1 I I #
edge $-1 -1 $-1 $322 -0.75000000000001776 $326 0.75000000000001776 $320 $407 forward @7 unknown #
straight-curve $-1 -1 $-1 0 -0.75000000000001776 -5.0000000000000213 -1 0 0 I I #
vertex $-1 -1 $-1 $234 $408 #
straight-curve $-1 -1 $-1 0 0.75000000000001776 -5.0000000000000213 1 0 0 I I #
point $-1 -1 $-1 5.0000000000000018 0.75000000000001776 -5.0000000000000213 #
point $-1 -1 $-1 5.0000000000000018 -0.75000000000001776 -5.0000000000000213 #
straight-curve $-1 -1 $-1 -5.0000000000000018 0 5.0000000000000213 0 -1 0 I I #
point $-1 -1 $-1 -5.0000000000000018 0.75000000000001776 5.0000000000000213 #
point $-1 -1 $-1 -5.0000000000000018 -0.75000000000001776 5.0000000000000213 #
straight-curve $-1 -1 $-1 5.0000000000000018 -0.75000000000001776 0 0 0 -1 I I #
straight-curve $-1 -1 $-1 5.0000000000000018 0.75000000000001776 0 0 0 -1 I I #
model_id-kcp-attrib $-1 -1 $-1 $-1 $252 1 1021500346 1021500346 899219457 9 #
face $409 -1 $-1 $410 $411 $8 $-1 $412 forward single #
loop $-1 -1 $-1 $413 $414 $252 #
plane-surface $-1 -1 $-1 -10.024080688773235 22.799999999999997 -37.5 0 -1 0 0 0 -1 forward_v I I I I #
coedge $-1 -1 $-1 $415 $416 $417 $418 reversed $253 $-1 #
coedge $-1 -1 $-1 $258 $255 $419 $420 forward $169 $-1 #
coedge $-1 -1 $-1 $255 $258 $260 $349 reversed $169 $-1 #
coedge $-1 -1 $-1 $257 $256 $255 $343 reversed $106 $-1 #
edge $-1 -1 $-1 $350 2.5121479338940408e-014 $421 1.131370849898472 $255 $422 forward @7 unknown #
coedge $-1 -1 $-1 $423 $424 $256 $345 reversed $425 $-1 #
edge $-1 -1 $-1 $347 1.1102230246251565e-016 $421 3.1415926535897931 $344 $426 forward @7 unknown #
vertex $-1 -1 $-1 $349 $427 #
vertex $-1 -1 $-1 $420 $428 #
straight-curve $-1 -1 $-1 -1.9999999999999989 24 -52.700000000000003 -1.9626155733547216e-016 -0.70710678118654913 -0.70710678118654602 I I #
edge $-1 -1 $-1 $350 0 $346 3.1415926535897949 $260 $429 forward @7 unknown #
vertex $-1 -1 $-1 $349 $430 #
ellipse-curve $-1 -1 $-1 -2.0000000000000036 24 -57.5 0 -1 0 4.6629367034256575e-015 0 4.7999999999999972 1 I I #
point $-1 -1 $-1 -1.7763568394002505e-015 -0.45000000000002061 -4.0000000000000213 #
face $-1 -1 $-1 $293 $431 $22 $-1 $389 reversed single #
loop $-1 -1 $-1 $-1 $286 $269 #
plane-surface $-1 -1 $-1 -5.0000000000000018 0 0 1 0 0 0 0 -1 forward_v I I I I #
coedge $-1 -1 $-1 $273 $272 $133 $198 forward $131 $-1 #
coedge $-1 -1 $-1 $432 $433 $272 $358 forward $434 $-1 #
edge $-1 -1 $-1 $288 -3.1415926535897931 $279 -1.5707963267948966 $357 $147 forward @7 unknown #
coedge $-1 -1 $-1 $435 $436 $273 $360 forward $431 $-1 #
edge $-1 -1 $-1 $280 1.5707963267948966 $202 3.1415926535897931 $359 $204 forward @7 unknown #
coedge $-1 -1 $-1 $437 $274 $436 $373 forward $364 $-1 #
coedge $-1 -1 $-1 $274 $437 $432 $438 forward $364 $-1 #
coedge $-1 -1 $-1 $439 $440 $132 $195 reversed $441 $-1 #
loop $-1 -1 $-1 $-1 $274 $398 #
coedge $-1 -1 $-1 $366 $275 $440 $442 reversed $367 $-1 #
coedge $-1 -1 $-1 $275 $365 $301 $304 reversed $367 $-1 #
loop $-1 -1 $-1 $-1 $275 $443 #
coedge $-1 -1 $-1 $369 $277 $302 $219 forward $370 $-1 #
coedge $-1 -1 $-1 $277 $368 $439 $371 reversed $370 $-1 #
loop $-1 -1 $-1 $-1 $277 $444 #
edge $-1 -1 $-1 $279 -1.7763568394002505e-015 $316 5.0000000000000018 $369 $445 forward @7 unknown #
point $-1 -1 $-1 -1.7763568394002505e-015 0.75000000000001776 -5.0000000000000213 #
edge $-1 -1 $-1 $280 1.7763568394002505e-015 $390 5.0000000000000018 $436 $446 forward @7 unknown #
point $-1 -1 $-1 -1.7763568394002505e-015 -0.75000000000001776 -5.0000000000000213 #
coedge $-1 -1 $-1 $318 $282 $285 $378 reversed $376 $-1 #
loop $-1 -1 $-1 $-1 $282 $314 #
coedge $-1 -1 $-1 $285 $284 $384 $447 reversed $287 $-1 #
edge $-1 -1 $-1 $317 -5.0000000000000213 $288 2.1316282072803006e-014 $375 $448 forward @7 unknown #
coedge $-1 -1 $-1 $449 $286 $433 $382 forward $354 $-1 #
coedge $-1 -1 $-1 $286 $449 $435 $294 reversed $354 $-1 #
face $-1 -1 $-1 $400 $287 $22 $-1 $355 reversed single #
edge $-1 -1 $-1 $288 2.1316282072803006e-014 $450 5.0000000000000213 $433 $448 forward @7 unknown #
point $-1 -1 $-1 -5.0000000000000018 0.75000000000001776 -2.1316282072803006e-014 #
coedge $-1 -1 $-1 $290 $307 $377 $447 forward $190 $-1 #
vertex $-1 -1 $-1 $447 $451 #
straight-curve $-1 -1 $-1 0 -0.75000000000001776 5.0000000000000213 1 0 0 I I #
straight-curve $-1 -1 $-1 -5.0000000000000018 -0.75000000000001776 0 0 0 -1 I I #
face $-1 -1 $-1 $443 $300 $22 $-1 $389 reversed single #
plane-surface $-1 -1 $-1 0 -0.75000000000001776 0 0 1 0 0 0 1 forward_v I I I I #
vertex $-1 -1 $-1 $452 $453 #
vertex $-1 -1 $-1 $397 $454 #
coedge $-1 -1 $-1 $303 $311 $298 $393 forward $312 $-1 #
edge $-1 -1 $-1 $391 -5.0000000000000213 $208 2.1316282072803006e-014 $392 $396 forward @7 unknown #
coedge $-1 -1 $-1 $302 $301 $455 $402 reversed $270 $-1 #
vertex $-1 -1 $-1 $304 $456 #
straight-curve $-1 -1 $-1 5.0000000000000018 -0.75000000000001776 0 0 0 -1 I I #
edge $-1 -1 $-1 $391 -0.75000000000001776 $309 0.75000000000001776 $311 $457 forward @7 unknown #
face $-1 -1 $-1 $381 $364 $22 $-1 $458 reversed single #
point $-1 -1 $-1 5.0000000000000018 0.75000000000001776 5.0000000000000213 #
face $-1 -1 $-1 $-1 $312 $22 $-1 $271 reversed single #
face $-1 -1 $-1 $459 $434 $22 $-1 $315 reversed single #
edge $-1 -1 $-1 $316 -0.75000000000001776 $395 0.75000000000001776 $394 $460 forward @7 unknown #
point $-1 -1 $-1 5.0000000000000018 0.75000000000001776 -5.0000000000000213 #
point $-1 -1 $-1 -5.0000000000000018 0.75000000000001776 5.0000000000000213 #
straight-curve $-1 -1 $-1 -5.0000000000000018 0.75000000000001776 0 0 0 -1 I I #
point $-1 -1 $-1 -5.0000000000000018 -0.75000000000001776 -5.0000000000000213 #
straight-curve $-1 -1 $-1 -5.0000000000000018 0 -5.0000000000000213 0 1 0 I I #
point $-1 -1 $-1 -5.0000000000000018 0.75000000000001776 -5.0000000000000213 #
model_id-kcp-attrib $-1 -1 $-1 $-1 $336 1 1021500346 1021500346 899219457 10 #
face $461 -1 $-1 $462 $463 $8 $-1 $464 forward single #
loop $-1 -1 $-1 $-1 $465 $336 #
cone-surface $-1 -1 $-1 -2 24 -57.5 0 -1 0 0 0 -3.5 1 I I 0 1 3.5 forward I I I I #
loop $-1 -1 $-1 $-1 $466 $252 #
coedge $-1 -1 $-1 $467 $467 $468 $469 forward $337 $-1 #
coedge $-1 -1 $-1 $419 $339 $423 $470 forward $253 $-1 #
coedge $-1 -1 $-1 $339 $419 $424 $471 reversed $253 $-1 #
coedge $-1 -1 $-1 $466 $466 $339 $418 forward $413 $-1 #
edge $472 -1 $-1 $473 0 $474 3.1415926535897816 $417 $475 forward @7 unknown #
coedge $-1 -1 $-1 $416 $415 $340 $420 reversed $253 $-1 #
edge $-1 -1 $-1 $421 1.3805065841367731e-030 $347 3.1415926535897944 $419 $476 forward @7 unknown #
vertex $-1 -1 $-1 $471 $477 #
straight-curve $-1 -1 $-1 -2.0000000000000107 24 -62.299999999999997 -4.7102773760513317e-015 -0.70710678118654913 0.70710678118654602 I I #
coedge $-1 -1 $-1 $478 $344 $415 $470 reversed $425 $-1 #
coedge $-1 -1 $-1 $344 $478 $416 $471 forward $425 $-1 #
loop $-1 -1 $-1 $-1 $344 $479 #
ellipse-curve $-1 -1 $-1 -1.9999999999999996 23.199999999999999 -57.5 0 -1 0 4.4408920985006262e-016 0 4 1 I I #
point $-1 -1 $-1 -1.9999999999999947 23.999999999999964 -52.700000000000003 #
point $-1 -1 $-1 -1.9999999999999996 23.200000000000003 -53.5 #
ellipse-curve $-1 -1 $-1 -1.9999999999999929 24 -57.5 1.0956401461402955e-029 -1 7.4014868308343806e-015 -7.1054273576010019e-015 -3.5527136788005009e-014 -4.7999999999999972 1 I I #
point $-1 -1 $-1 -2 23.999999999999964 -62.299999999999997 #
loop $-1 -1 $-1 $-1 $359 $353 #
coedge $-1 -1 $-1 $433 $357 $362 $438 reversed $434 $-1 #
coedge $-1 -1 $-1 $357 $432 $379 $382 reversed $434 $-1 #
loop $-1 -1 $-1 $-1 $357 $401 #
coedge $-1 -1 $-1 $436 $359 $380 $294 forward $431 $-1 #
coedge $-1 -1 $-1 $359 $435 $361 $373 reversed $431 $-1 #
coedge $-1 -1 $-1 $362 $361 $449 $452 forward $364 $-1 #
edge $-1 -1 $-1 $450 -5.0000000000000018 $279 -1.7763568394002505e-015 $432 $445 forward @7 unknown #
coedge $-1 -1 $-1 $455 $363 $369 $371 forward $441 $-1 #
coedge $-1 -1 $-1 $363 $455 $365 $442 forward $441 $-1 #
loop $-1 -1 $-1 $-1 $363 $459 #
edge $-1 -1 $-1 $395 -5.0000000000000018 $280 1.7763568394002505e-015 $365 $446 forward @7 unknown #
face $-1 -1 $-1 $444 $367 $22 $-1 $389 reversed single #
face $-1 -1 $-1 $218 $370 $22 $-1 $315 reversed single #
straight-curve $-1 -1 $-1 0 0.75000000000001776 -5.0000000000000213 1 0 0 I I #
straight-curve $-1 -1 $-1 0 -0.75000000000001776 -5.0000000000000213 -1 0 0 I I #
edge $-1 -1 $-1 $317 -0.75000000000001776 $385 0.75000000000001776 $377 $480 forward @7 unknown #
straight-curve $-1 -1 $-1 -5.0000000000000018 0.75000000000001776 0 0 0 -1 I I #
coedge $-1 -1 $-1 $380 $379 $437 $452 reversed $354 $-1 #
vertex $-1 -1 $-1 $438 $481 #
point $-1 -1 $-1 -5.0000000000000018 -0.75000000000001776 5.0000000000000213 #
edge $-1 -1 $-1 $390 -0.75000000000001776 $450 0.75000000000001776 $449 $482 forward @7 unknown #
point $-1 -1 $-1 -5.0000000000000018 -0.75000000000001776 -5.0000000000000213 #
point $-1 -1 $-1 5.0000000000000018 -0.75000000000001776 5.0000000000000213 #
coedge $-1 -1 $-1 $440 $439 $394 $402 forward $441 $-1 #
point $-1 -1 $-1 5.0000000000000018 -0.75000000000001776 -5.0000000000000213 #
straight-curve $-1 -1 $-1 5.0000000000000018 0 5.0000000000000213 0 1 0 I I #
plane-surface $-1 -1 $-1 0 0 -5.0000000000000213 0 0 1 1 0 0 forward_v I I I I #
face $-1 -1 $-1 $308 $441 $22 $-1 $458 reversed single #
straight-curve $-1 -1 $-1 5.0000000000000018 0 -5.0000000000000213 0 -1 0 I I #
model_id-kcp-attrib $-1 -1 $-1 $-1 $410 1 1021500346 1021500346 899219457 11 #
face $483 -1 $-1 $484 $485 $8 $-1 $486 forward single #
loop $-1 -1 $-1 $-1 $487 $410 #
cone-surface $-1 -1 $-1 -2 24 -57.5 0 -1 0 0 0 -3.5 1 I I 0 1 3.5 forward I I I I #
coedge $-1 -1 $-1 $468 $488 $489 $490 reversed $411 $-1 #
coedge $-1 -1 $-1 $417 $417 $478 $491 forward $413 $-1 #
coedge $-1 -1 $-1 $414 $414 $492 $493 forward $337 $-1 #
coedge $-1 -1 $-1 $494 $465 $414 $469 reversed $411 $-1 #
edge $495 -1 $-1 $496 0 $497 3.1415926535897931 $414 $498 forward @7 unknown #
edge $-1 -1 $-1 $473 -3.5527136788005009e-015 $347 0.40000000000000213 $415 $499 forward @7 unknown #
edge $-1 -1 $-1 $474 -3.5527136788005009e-015 $421 0.40000000000000213 $416 $500 forward @7 unknown #
attrib_edge_convexity-kcp-attrib $-1 -1 $501 $-1 $418 2 #
vertex $-1 -1 $-1 $418 $502 #
vertex $-1 -1 $-1 $418 $503 #
ellipse-curve $-1 -1 $-1 -2.0000000000000249 22.799999999999997 -57.499999999999979 0 1 0 2.3092638912203256e-014 0 4.0000000000000213 1 I I #
ellipse-curve $-1 -1 $-1 -1.9999999999999969 23.199999999999967 -57.5 0 -1 0 -3.1086244689504383e-015 0 -3.9999999999999929 1 I I #
point $-1 -1 $-1 -2 23.200000000000003 -61.5 #
coedge $-1 -1 $-1 $424 $423 $466 $491 reversed $425 $-1 #
face $504 -1 $-1 $-1 $425 $8 $-1 $505 reversed single #
straight-curve $-1 -1 $-1 -5.0000000000000018 0 5.0000000000000213 0 -1 0 I I #
point $-1 -1 $-1 -5.0000000000000018 0.75000000000001776 -5.0000000000000213 #
straight-curve $-1 -1 $-1 -5.0000000000000018 0 -5.0000000000000213 0 1 0 I I #
model_id-kcp-attrib $-1 -1 $-1 $-1 $462 1 1021500346 1021500346 899219457 12 #
face $506 -1 $-1 $507 $508 $8 $-1 $509 forward single #
loop $-1 -1 $-1 $-1 $510 $462 #
torus-surface $-1 -1 $-1 -2 23.199999999999999 -57.5 0 -1 0 2.6999999999999931 0.79999999999999993 0.0029531263196626635 0 -0.99999563951296322 forward_v I I I I #
coedge $-1 -1 $-1 $492 $511 $494 $512 reversed $463 $-1 #
coedge $-1 -1 $-1 $465 $494 $513 $514 reversed $411 $-1 #
coedge $-1 -1 $-1 $511 $492 $465 $490 forward $463 $-1 #
edge $-1 -1 $-1 $497 -3.5527136788005009e-015 $515 0.39999999999999858 $489 $516 forward @7 unknown #
edge $517 -1 $-1 $474 0 $473 3.1415926535897833 $466 $518 forward @7 unknown #
coedge $-1 -1 $-1 $489 $487 $467 $493 reversed $463 $-1 #
edge $519 -1 $-1 $497 0 $496 3.1415926535897931 $467 $520 forward @7 unknown #
coedge $-1 -1 $-1 $488 $468 $487 $512 forward $411 $-1 #
attrib_edge_convexity-kcp-attrib $-1 -1 $521 $-1 $469 2 #
vertex $-1 -1 $-1 $493 $522 #
vertex $-1 -1 $-1 $493 $523 #
ellipse-curve $-1 -1 $-1 -2.0000000000000018 22.799999999999997 -57.5 0 -1 0 0 0 -3.5 1 I I #
straight-curve $-1 -1 $-1 -1.9999999999999996 22.800000000000001 -53.5 0 1 0 I I #
straight-curve $-1 -1 $-1 -2 22.800000000000001 -61.5 0 1 0 I I #
convexity-sys-attrib $-1 -1 $-1 $472 $418 #
point $-1 -1 $-1 -2.0000000000000018 22.799999999999997 -53.499999999999957 #
point $-1 -1 $-1 -2.0000000000000018 22.799999999999997 -61.5 #
model_id-kcp-attrib $-1 -1 $-1 $-1 $479 1 1021500346 1021500346 899219457 15 #
cone-surface $-1 -1 $-1 -2 24 -57.5 0 -1 0 0 0 -4 1 I I 0 1 4 forward I I I I #
model_id-kcp-attrib $-1 -1 $-1 $-1 $484 1 1021500346 1021500346 899219457 13 #
face $524 -1 $-1 $479 $525 $8 $-1 $526 forward single #
loop $-1 -1 $-1 $-1 $527 $484 #
torus-surface $-1 -1 $-1 -2 23.199999999999999 -57.5 0 -1 0 2.6999999999999931 0.79999999999999993 -0.0029531263196622523 0 0.99999563951296322 forward_v I I I I #
coedge $-1 -1 $-1 $528 $529 $530 $531 forward $485 $-1 #
coedge $-1 -1 $-1 $487 $489 $528 $532 reversed $463 $-1 #
edge $-1 -1 $-1 $496 -3.5527136788005009e-015 $533 0.39999999999999858 $487 $534 forward @7 unknown #
coedge $-1 -1 $-1 $530 $527 $488 $514 forward $508 $-1 #
edge $-1 -1 $-1 $515 -1.3957089452430539e-015 $533 3.1415926535897936 $488 $535 forward @7 unknown #
vertex $-1 -1 $-1 $532 $536 #
straight-curve $-1 -1 $-1 -1.9999999999999996 22.800000000000001 -54 0 1 0 I I #
attrib_edge_convexity-kcp-attrib $-1 -1 $537 $-1 $491 2 #
ellipse-curve $-1 -1 $-1 -1.9999999999999822 22.799999999999997 -57.499999999999979 0 1 0 -1.9539925233402755e-014 0 -4.0000000000000213 1 I I #
attrib_edge_convexity-kcp-attrib $-1 -1 $538 $-1 $493 2 #
ellipse-curve $-1 -1 $-1 -2.0000000000000018 22.799999999999997 -57.5 0 -1 0 0 0 3.5 1 I I #
convexity-sys-attrib $-1 -1 $-1 $495 $469 #
point $-1 -1 $-1 -2.0000000000000018 22.799999999999997 -61 #
point $-1 -1 $-1 -2.0000000000000018 22.799999999999997 -54 #
model_id-kcp-attrib $-1 -1 $-1 $-1 $507 1 1021500346 1021500346 899219457 14 #
loop $-1 -1 $-1 $-1 $539 $507 #
plane-surface $-1 -1 $-1 -10.024080688773235 24 -37.5 0 1 0 0 0 -1 forward_v I I I I #
coedge $-1 -1 $-1 $513 $540 $541 $542 forward $508 $-1 #
coedge $-1 -1 $-1 $541 $510 $511 $532 forward $485 $-1 #
coedge $-1 -1 $-1 $510 $541 $543 $544 reversed $485 $-1 #
coedge $-1 -1 $-1 $540 $513 $510 $531 reversed $508 $-1 #
edge $-1 -1 $-1 $545 0 $533 1.5707963267948968 $510 $546 forward @7 unknown #
edge $-1 -1 $-1 $533 0 $515 3.1415926535897913 $511 $547 forward @7 unknown #
vertex $-1 -1 $-1 $532 $548 #
straight-curve $-1 -1 $-1 -2.0000000000000009 22.800000000000001 -61 0 1 0 I I #
ellipse-curve $-1 -1 $-1 -2 23.199999999999999 -57.5 0 1 0 -7.7196027348236385e-012 0 3.5 1 I I #
point $-1 -1 $-1 -2.0000000000077245 23.199999999999999 -54 #
convexity-sys-attrib $-1 -1 $-1 $517 $491 #
convexity-sys-attrib $-1 -1 $-1 $519 $493 #
coedge $-1 -1 $-1 $543 $543 $540 $549 forward $525 $-1 #
coedge $-1 -1 $-1 $527 $530 $539 $549 reversed $508 $-1 #
coedge $-1 -1 $-1 $529 $528 $527 $542 reversed $485 $-1 #
edge $-1 -1 $-1 $550 -4.7009145788492474e-024 $515 1.5707963267948968 $541 $551 forward @7 unknown #
coedge $-1 -1 $-1 $539 $539 $529 $544 forward $525 $-1 #
edge $-1 -1 $-1 $545 0 $550 3.1415926535499561 $543 $552 forward @7 unknown #
vertex $-1 -1 $-1 $544 $553 #
ellipse-curve $-1 -1 $-1 -1.9999999999953346 23.199999999999992 -60.199999999999996 -1 -5.2149951024204309e-012 -3.8154999154094584e-012 -4.1719960819364132e-012 0.80000000000000782 7.1054273576010019e-015 1 I I #
ellipse-curve $-1 -1 $-1 -2 23.199999999999999 -57.5 0 1 0 7.7178263779842382e-012 0 -3.5 1 I I #
point $-1 -1 $-1 -1.9999999999922822 23.199999999999999 -61 #
edge $-1 -1 $-1 $550 3.6456434578987782e-013 $545 3.1415926535495893 $539 $554 forward @7 unknown #
vertex $-1 -1 $-1 $544 $555 #
ellipse-curve $-1 -1 $-1 -2.0000000000046629 23.199999999999992 -54.800000000000004 1 -5.2130522121273377e-012 3.820623352982318e-012 4.170441769701938e-012 0.80000000000000782 -7.1054273576010019e-015 1 I I #
ellipse-curve $-1 -1 $-1 -1.999999999945727 24 -57.5 0 1 0 -5.3779647402052433e-011 0 -2.6999999999999886 1 I I #
point $-1 -1 $-1 -1.9999999999995066 24 -60.199999999999989 #
ellipse-curve $-1 -1 $-1 -2.0000000000542748 24 -57.5 0 1 0 5.3782311937311533e-011 0 2.6999999999999886 1 I I #
point $-1 -1 $-1 -1.9999999999995082 24 -54.800000000000011 #
End-of-ACIS-data 