600 0 1 0           
90 GICL ACIS Healer - Source: /gicl/data5/repository/PTC/V18/fly_small18/rec_fr.prt.sat - 6 0 18 ACIS 6.0.3 Solaris 24 Sat Apr 13 22:08:46 2002 
1 9.999999999999999547e-07 1.000000000000000036e-10 
body $-1 $1 $-1 $-1 #
lump $-1 $-1 $2 $0 #
shell $-1 $-1 $-1 $3 $-1 $1 #
face $-1 $4 $5 $2 $-1 $6 reversed single #
face $-1 $7 $8 $2 $-1 $9 forward single #
loop $-1 $10 $11 $3 #
plane-surface $-1 0 0 0 0 0 1 1 0 0 forward_v I I I I #
face $-1 $12 $13 $2 $-1 $14 forward single #
loop $-1 $-1 $15 $4 #
plane-surface $-1 0.5127943167624818832 4.973634685890801599 0 0.990268068741570362 0.1391731009600654378 0 -0.1391731009600654378 0.990268068741570362 0 forward_v I I I I #
loop $-1 $16 $17 $3 #
coedge $-1 $18 $19 $20 $21 reversed $5 $-1 #
face $-1 $22 $23 $2 $-1 $24 forward single #
loop $-1 $-1 $25 $7 #
cone-surface $-1 -0.8350386057603927936 5.941608412449422616 0 0 0 1 1.199999999999999956 0 0 1 I I 0 1 1.199999999999999956 forward I I I I #
coedge $-1 $26 $20 $27 $28 forward $8 $-1 #
loop $-1 $29 $30 $3 #
coedge $-1 $31 $31 $32 $33 forward $10 $-1 #
coedge $-1 $34 $11 $35 $36 reversed $5 $-1 #
coedge $-1 $11 $37 $38 $39 reversed $5 $-1 #
coedge $-1 $15 $40 $11 $21 forward $8 $-1 #
edge $-1 $41 0 $42 1.146135560195361558 $11 $43 forward 7 unknown #
face $-1 $44 $45 $2 $-1 $46 forward single #
loop $-1 $-1 $47 $12 #
plane-surface $-1 -2.02336028825027725 5.774600691297344213 0 -0.990268068741570362 -0.1391731009600654378 0 0.1391731009600654378 -0.990268068741570362 0 forward_v I I I I #
coedge $-1 $48 $38 $49 $50 forward $13 $-1 #
coedge $-1 $40 $15 $51 $52 reversed $8 $-1 #
coedge $-1 $38 $48 $15 $28 reversed $13 $-1 #
edge $-1 $42 0 $53 1 $27 $54 forward 7 unknown #
loop $-1 $-1 $55 $3 #
coedge $-1 $56 $56 $57 $58 reversed $16 $-1 #
coedge $-1 $17 $17 $59 $60 forward $10 $-1 #
coedge $-1 $61 $62 $17 $33 reversed $63 $-1 #
edge $-1 $64 0 $65 3.141592653589792672 $17 $66 forward 7 unknown #
coedge $-1 $67 $18 $68 $69 reversed $5 $-1 #
coedge $-1 $70 $71 $18 $36 forward $72 $-1 #
edge $-1 $73 0 $41 2.656860951511866631 $18 $74 forward 7 unknown #
coedge $-1 $19 $75 $76 $77 reversed $5 $-1 #
coedge $-1 $25 $27 $19 $39 forward $13 $-1 #
edge $-1 $42 0 $78 3.141592653589793116 $19 $79 forward 7 unknown #
coedge $-1 $20 $26 $70 $80 reversed $8 $-1 #
vertex $-1 $36 $81 #
vertex $-1 $39 $82 #
straight-curve $-1 0.5127943167624817722 4.973634685890802487 0 -0.1391731009600654378 0.990268068741570362 0 I I #
face $-1 $83 $84 $2 $-1 $85 forward single #
loop $-1 $-1 $86 $22 #
cone-surface $-1 0 0 0 0 0 1 5 0 0 1 I I 0 1 5 forward I I I I #
coedge $-1 $87 $76 $88 $89 forward $23 $-1 #
coedge $-1 $27 $25 $90 $91 reversed $13 $-1 #
coedge $-1 $76 $87 $25 $50 reversed $23 $-1 #
edge $-1 $78 0 $92 1 $25 $93 forward 7 unknown #
coedge $-1 $90 $94 $26 $52 forward $95 $-1 #
edge $-1 $96 -8.949860464838174811e-16 $53 1.146135560195361558 $51 $97 forward 7 unknown #
vertex $-1 $91 $98 #
straight-curve $-1 0.3532830767294915519 6.108616133601501019 0 0 0 1 I I #
coedge $-1 $99 $99 $100 $101 reversed $29 $-1 #
coedge $-1 $30 $30 $102 $103 reversed $16 $-1 #
coedge $-1 $104 $105 $30 $58 forward $106 $-1 #
edge $-1 $107 0 $108 3.141592653589796669 $30 $109 forward 7 unknown #
coedge $-1 $110 $111 $31 $60 reversed $112 $-1 #
edge $-1 $65 0 $64 3.141592653589793116 $31 $113 forward 7 unknown #
coedge $-1 $114 $32 $111 $115 reversed $63 $-1 #
coedge $-1 $32 $114 $110 $116 forward $63 $-1 #
loop $-1 $-1 $61 $117 #
vertex $-1 $60 $118 #
vertex $-1 $60 $119 #
ellipse-curve $-1 0 6.661338147750939243e-16 0 0 0 1 -2.5 -6.661338147750939243e-16 0 1 I I #
coedge $-1 $120 $34 $121 $122 reversed $5 $-1 #
coedge $-1 $123 $124 $34 $69 forward $125 $-1 #
edge $-1 $126 0 $73 1.146135560195362446 $34 $127 forward 7 unknown #
coedge $-1 $128 $35 $40 $80 forward $72 $-1 #
coedge $-1 $35 $128 $123 $129 reversed $72 $-1 #
loop $-1 $-1 $70 $130 #
vertex $-1 $69 $131 #
ellipse-curve $-1 0 0 0 0 0 1 1.863849048217286919 -4.639619243586644792 0 1 I I #
coedge $-1 $37 $120 $132 $133 reversed $5 $-1 #
coedge $-1 $47 $49 $37 $77 forward $23 $-1 #
edge $-1 $78 0 $134 1.146135560195362446 $37 $135 forward 7 unknown #
vertex $-1 $39 $136 #
ellipse-curve $-1 -0.8350386057603927936 5.941608412449422616 0 0 0 1 1.188321682489884346 0.1670077211520784033 0 1 I I #
edge $-1 $41 3.697785493223492838e-31 $96 1 $70 $137 forward 7 unknown #
point $-1 0.5127943167624817722 4.973634685890802487 0 #
point $-1 0.3532830767294915519 6.108616133601501019 0 #
face $-1 $138 $139 $2 $-1 $140 forward single #
loop $-1 $-1 $141 $44 #
plane-surface $-1 -0.5127943167624818832 -4.973634685890801599 0 -0.990268068741570362 -0.1391731009600654378 0 0.1391731009600654378 -0.990268068741570362 0 forward_v I I I I #
coedge $-1 $142 $132 $143 $144 forward $45 $-1 #
coedge $-1 $49 $47 $145 $146 reversed $23 $-1 #
coedge $-1 $132 $142 $47 $89 reversed $45 $-1 #
edge $-1 $134 0 $147 1 $47 $148 forward 7 unknown #
coedge $-1 $145 $51 $48 $91 forward $95 $-1 #
edge $-1 $53 0 $92 3.141592653589793116 $90 $149 forward 7 unknown #
vertex $-1 $91 $150 #
straight-curve $-1 -2.02336028825027725 5.774600691297344213 0 0 0 1 I I #
coedge $-1 $51 $151 $128 $152 forward $95 $-1 #
loop $-1 $153 $145 $154 #
vertex $-1 $52 $155 #
straight-curve $-1 0.5127943167624817722 4.973634685890802487 1 -0.1391731009600654378 0.990268068741570362 0 I I #
point $-1 0.3532830767294915519 6.108616133601501019 1 #
coedge $-1 $55 $55 $156 $157 reversed $29 $-1 #
coedge $-1 $158 $159 $55 $101 forward $160 $-1 #
edge $-1 $161 0 $162 3.141592653589796669 $55 $163 forward 7 unknown #
coedge $-1 $164 $165 $56 $103 forward $166 $-1 #
edge $-1 $108 0 $107 3.141592653589796669 $56 $167 forward 7 unknown #
coedge $-1 $168 $57 $165 $169 reversed $106 $-1 #
coedge $-1 $57 $168 $164 $170 forward $106 $-1 #
loop $-1 $-1 $104 $171 #
vertex $-1 $103 $172 #
vertex $-1 $103 $173 #
ellipse-curve $-1 -0.8350386057603929046 5.941608412449421728 0 0 0 -1 0.500000000000000111 8.881784197001252323e-16 0 1 I I #
coedge $-1 $174 $59 $62 $116 reversed $112 $-1 #
coedge $-1 $59 $174 $61 $115 forward $112 $-1 #
loop $-1 $-1 $110 $175 #
ellipse-curve $-1 -1.11022302462515654e-16 2.220446049250313081e-16 0 0 0 1 2.5 -2.220446049250313081e-16 0 1 I I #
coedge $-1 $62 $61 $176 $177 forward $63 $-1 #
edge $-1 $178 0 $64 1.399999999999999911 $111 $179 forward 7 unknown #
edge $-1 $180 0 $65 1.399999999999999911 $110 $181 forward 7 unknown #
face $-1 $171 $63 $2 $-1 $182 reversed single #
point $-1 -2.5 0 0 #
point $-1 2.5 0 0 #
coedge $-1 $75 $67 $183 $184 reversed $5 $-1 #
coedge $-1 $185 $186 $67 $122 forward $139 $-1 #
edge $-1 $187 0 $126 3.141592653589793116 $67 $188 forward 7 unknown #
coedge $-1 $189 $68 $71 $129 forward $125 $-1 #
coedge $-1 $68 $189 $185 $190 reversed $125 $-1 #
loop $-1 $-1 $123 $138 #
vertex $-1 $122 $191 #
straight-curve $-1 2.02336028825027725 -5.774600691297344213 0 -0.1391731009600654378 0.990268068741570362 0 I I #
coedge $-1 $71 $70 $94 $152 reversed $72 $-1 #
edge $-1 $73 0 $192 1 $123 $193 forward 7 unknown #
face $-1 $154 $72 $2 $-1 $194 forward single #
point $-1 1.863849048217286919 -4.639619243586644792 0 #
coedge $-1 $86 $88 $75 $133 forward $45 $-1 #
edge $-1 $134 0 $195 2.656860951511866631 $75 $196 forward 7 unknown #
vertex $-1 $77 $197 #
straight-curve $-1 -2.02336028825027725 5.774600691297344213 0 0.1391731009600654378 -0.990268068741570362 0 I I #
point $-1 -2.02336028825027725 5.774600691297344213 0 #
straight-curve $-1 0.5127943167624824383 4.973634685890802487 0 -5.551115123125782702e-16 -8.881784197001252323e-16 1 I I #
face $-1 $130 $125 $2 $-1 $198 forward single #
loop $-1 $-1 $185 $83 #
cone-surface $-1 0.8350386057603927936 -5.941608412449422616 0 0 0 1 1.199999999999999956 0 0 1 I I 0 1 1.199999999999999956 forward I I I I #
coedge $-1 $199 $183 $186 $200 forward $84 $-1 #
coedge $-1 $88 $86 $201 $202 reversed $45 $-1 #
coedge $-1 $183 $199 $86 $144 reversed $84 $-1 #
edge $-1 $195 0 $203 1 $86 $204 forward 7 unknown #
coedge $-1 $201 $90 $87 $146 forward $95 $-1 #
edge $-1 $92 0 $147 1.146135560195362668 $145 $205 forward 7 unknown #
vertex $-1 $202 $206 #
straight-curve $-1 -1.863849048217286919 4.639619243586644792 0 0 0 1 I I #
ellipse-curve $-1 -0.8350386057603929046 5.941608412449422616 1 0 0 1 1.188321682489884346 0.1670077211520784033 0 1 I I #
point $-1 -2.02336028825027725 5.774600691297344213 1 #
coedge $-1 $94 $207 $189 $208 forward $95 $-1 #
edge $-1 $192 7.105427357601004472e-17 $96 2.656860951511866631 $94 $209 forward 7 unknown #
loop $-1 $210 $211 $154 #
face $-1 $212 $95 $2 $-1 $213 forward single #
point $-1 0.5127943167624818832 4.973634685890801599 1 #
coedge $-1 $214 $215 $99 $157 forward $216 $-1 #
edge $-1 $162 0 $161 3.141592653589796669 $99 $217 forward 7 unknown #
coedge $-1 $218 $100 $215 $219 reversed $160 $-1 #
coedge $-1 $100 $218 $214 $220 forward $160 $-1 #
loop $-1 $-1 $158 $221 #
vertex $-1 $157 $222 #
vertex $-1 $157 $223 #
ellipse-curve $-1 0.8350386057603929046 -5.941608412449423504 0 0 0 -1 0.5 8.881784197001252323e-16 0 1 I I #
coedge $-1 $224 $102 $105 $170 reversed $166 $-1 #
coedge $-1 $102 $224 $104 $169 forward $166 $-1 #
loop $-1 $-1 $164 $225 #
ellipse-curve $-1 -0.8350386057603929046 5.941608412449423504 0 0 0 -1 -0.5 -8.881784197001252323e-16 0 1 I I #
coedge $-1 $105 $104 $226 $227 reversed $106 $-1 #
edge $-1 $228 0 $108 1 $165 $229 forward 7 unknown #
edge $-1 $230 0 $107 1 $164 $231 forward 7 unknown #
face $-1 $225 $106 $2 $-1 $232 reversed single #
point $-1 -0.3350386057603927936 5.941608412449422616 0 #
point $-1 -1.335038605760392905 5.941608412449422616 0 #
coedge $-1 $111 $110 $233 $234 forward $112 $-1 #
face $-1 $117 $112 $2 $-1 $235 reversed single #
coedge $-1 $236 $237 $114 $177 reversed $238 $-1 #
edge $-1 $178 3.155443620884047835e-32 $180 3.141592653589793116 $114 $239 forward 7 unknown #
vertex $-1 $115 $240 #
straight-curve $-1 -2.5 3.061515884555943146e-16 1.399999999999999911 0 0 -1 I I #
vertex $-1 $234 $241 #
straight-curve $-1 2.5 0 1.399999999999999911 0 0 -1 I I #
cone-surface $-1 0 0 2 0 0 1 2.5 0 0 1 I I 0 1 2.5 forward I I I I #
coedge $-1 $141 $143 $120 $184 forward $84 $-1 #
edge $-1 $195 0 $187 1.146135560195361558 $120 $242 forward 7 unknown #
coedge $-1 $243 $121 $124 $190 forward $139 $-1 #
coedge $-1 $121 $243 $141 $200 reversed $139 $-1 #
vertex $-1 $184 $244 #
ellipse-curve $-1 0.8350386057603927936 -5.941608412449422616 0 0 0 1 -1.188321682489884346 -0.1670077211520784033 0 1 I I #
coedge $-1 $124 $123 $151 $208 reversed $125 $-1 #
edge $-1 $126 0 $245 1 $185 $246 forward 7 unknown #
point $-1 2.02336028825027725 -5.774600691297344213 0 #
vertex $-1 $152 $247 #
straight-curve $-1 1.863849048217286919 -4.639619243586644792 0 0 0 1 I I #
cone-surface $-1 0 0 0 0 0 1 5 0 0 1 I I 0 1 5 forward I I I I #
vertex $-1 $133 $248 #
ellipse-curve $-1 0 0 0 0 0 1 -1.863849048217286919 4.639619243586644792 0 1 I I #
point $-1 -1.863849048217286919 4.639619243586644792 0 #
plane-surface $-1 2.02336028825027725 -5.774600691297344213 0 0.990268068741570362 0.1391731009600654378 0 -0.1391731009600654378 0.990268068741570362 0 forward_v I I I I #
coedge $-1 $143 $141 $249 $250 reversed $84 $-1 #
edge $-1 $187 0 $251 1 $141 $252 forward 7 unknown #
coedge $-1 $249 $145 $142 $202 forward $95 $-1 #
edge $-1 $147 -7.105427357601002007e-17 $203 2.656860951511866631 $201 $253 forward 7 unknown #
vertex $-1 $250 $254 #
straight-curve $-1 -0.5127943167624818832 -4.973634685890802487 0 0 8.881784197001252323e-16 1 I I #
straight-curve $-1 -2.02336028825027725 5.774600691297344213 1 0.1391731009600654378 -0.990268068741570362 0 I I #
point $-1 -1.863849048217286475 4.639619243586644792 1 #
coedge $-1 $151 $249 $243 $255 forward $95 $-1 #
edge $-1 $245 0 $192 1.146135560195362446 $151 $256 forward 7 unknown #
ellipse-curve $-1 -4.440892098500626162e-16 -4.440892098500626162e-16 1 0 0 1 1.863849048217287363 -4.639619243586643904 0 1 I I #
loop $-1 $257 $226 $154 #
coedge $-1 $258 $258 $259 $260 reversed $153 $-1 #
face $-1 $261 $262 $2 $-1 $263 forward single #
plane-surface $-1 0 0 1 0 0 1 1 0 0 forward_v I I I I #
coedge $-1 $264 $156 $159 $220 reversed $216 $-1 #
coedge $-1 $156 $264 $158 $219 forward $216 $-1 #
loop $-1 $-1 $214 $265 #
ellipse-curve $-1 0.8350386057603929046 -5.941608412449421728 0 0 0 -1 -0.500000000000000111 -8.881784197001252323e-16 0 1 I I #
coedge $-1 $159 $158 $266 $267 reversed $160 $-1 #
edge $-1 $268 0 $162 1 $215 $269 forward 7 unknown #
edge $-1 $270 0 $161 1 $214 $271 forward 7 unknown #
face $-1 $265 $160 $2 $-1 $272 reversed single #
point $-1 1.335038605760392905 -5.941608412449422616 0 #
point $-1 0.3350386057603927936 -5.941608412449422616 0 #
coedge $-1 $165 $164 $273 $274 reversed $166 $-1 #
face $-1 $221 $166 $2 $-1 $275 reversed single #
coedge $-1 $273 $273 $168 $227 forward $210 $-1 #
edge $-1 $230 0 $228 3.141592653589793116 $226 $276 forward 7 unknown #
vertex $-1 $274 $277 #
straight-curve $-1 -1.335038605760392905 5.941608412449422616 1 0 0 -1 I I #
vertex $-1 $274 $278 #
straight-curve $-1 -0.3350386057603927936 5.941608412449422616 1 0 0 -1 I I #
cone-surface $-1 -0.8350386057603927936 5.941608412449422616 1 0 0 -1 -0.5 0 0 1 I I 0 1 0.5 forward I I I I #
coedge $-1 $279 $280 $174 $234 reversed $281 $-1 #
edge $-1 $180 -1.577721810442023917e-32 $178 3.141592653589793116 $174 $282 forward 7 unknown #
cone-surface $-1 0 0 2 0 0 1 2.5 0 0 1 I I 0 1 2.5 forward I I I I #
coedge $-1 $283 $176 $280 $284 reversed $238 $-1 #
coedge $-1 $176 $283 $279 $285 forward $238 $-1 #
loop $-1 $-1 $237 $286 #
ellipse-curve $-1 0 -2.220446049250313081e-16 1.400000000000000133 0 0 1 -2.499999999999999556 5.281961933806256226e-16 0 1 I I #
point $-1 -2.5 3.061515884555943146e-16 1.399999999999999911 #
point $-1 2.5 0 1.399999999999999911 #
straight-curve $-1 -0.5127943167624817722 -4.973634685890802487 0 0.1391731009600654378 -0.990268068741570362 0 I I #
coedge $-1 $186 $185 $207 $255 reversed $139 $-1 #
point $-1 -0.3532830767294915519 -6.108616133601501019 0 #
vertex $-1 $208 $287 #
straight-curve $-1 2.02336028825027725 -5.774600691297344213 0 0 0 1 I I #
point $-1 1.863849048217287141 -4.639619243586644792 1 #
point $-1 -0.5127943167624817722 -4.973634685890802487 0 #
coedge $-1 $207 $201 $199 $250 forward $95 $-1 #
edge $-1 $203 -8.949860464838174811e-16 $251 1.146135560195361558 $249 $288 forward 7 unknown #
vertex $-1 $255 $289 #
straight-curve $-1 -0.3532830767294915519 -6.108616133601501019 0 0 0 1 I I #
ellipse-curve $-1 4.440892098500626162e-16 2.220446049250313081e-16 1 0 0 1 -1.863849048217287363 4.639619243586644792 0 1 I I #
point $-1 -0.5127943167624818832 -4.973634685890801599 1 #
edge $-1 $251 0 $245 3.141592653589793116 $207 $290 forward 7 unknown #
straight-curve $-1 2.02336028825027725 -5.774600691297344213 1 -0.1391731009600654378 0.990268068741570362 0 I I #
loop $-1 $-1 $266 $154 #
coedge $-1 $211 $211 $291 $292 reversed $153 $-1 #
coedge $-1 $293 $294 $211 $260 forward $262 $-1 #
edge $-1 $295 0 $296 3.141592653589793116 $211 $297 forward 7 unknown #
face $-1 $298 $299 $2 $-1 $300 forward single #
loop $-1 $-1 $293 $212 #
cone-surface $-1 0 0 1 0 0 1 4.199999999999999289 0 0 1 I I 0 1 4.199999999999999289 forward I I I I #
coedge $-1 $215 $214 $301 $302 reversed $216 $-1 #
face $-1 $-1 $216 $2 $-1 $303 reversed single #
coedge $-1 $301 $301 $218 $267 forward $257 $-1 #
edge $-1 $270 0 $268 3.141592653589793116 $266 $304 forward 7 unknown #
vertex $-1 $302 $305 #
straight-curve $-1 0.3350386057603927936 -5.941608412449422616 1 0 0 -1 I I #
vertex $-1 $302 $306 #
straight-curve $-1 1.335038605760392905 -5.941608412449422616 1 0 0 -1 I I #
cone-surface $-1 0.8350386057603927936 -5.941608412449422616 1 0 0 -1 -0.5 0 0 1 I I 0 1 0.5 forward I I I I #
coedge $-1 $226 $226 $224 $274 forward $210 $-1 #
edge $-1 $228 0 $230 3.141592653589793116 $273 $307 forward 7 unknown #
cone-surface $-1 -0.8350386057603927936 5.941608412449422616 1 0 0 -1 -0.5 0 0 1 I I 0 1 0.5 forward I I I I #
ellipse-curve $-1 -0.8350386057603927936 5.941608412449422616 1 0 0 -1 0.5 0 0 1 I I #
point $-1 -1.335038605760392905 5.941608412449422616 1 #
point $-1 -0.3350386057603927936 5.941608412449422616 1 #
coedge $-1 $308 $233 $237 $285 reversed $281 $-1 #
coedge $-1 $233 $308 $236 $284 forward $281 $-1 #
loop $-1 $-1 $280 $309 #
ellipse-curve $-1 -1.11022302462515654e-16 -2.220446049250313081e-16 1.400000000000000133 0 0 1 2.499999999999999556 2.220446049250313081e-16 0 1 I I #
coedge $-1 $237 $236 $310 $311 forward $238 $-1 #
edge $-1 $312 -3.576306073846510651e-31 $178 0.8485281374238567986 $280 $313 forward 7 unknown #
edge $-1 $314 3.088762065825622971e-28 $180 0.8485281374238567986 $279 $315 forward 7 unknown #
face $-1 $309 $238 $2 $-1 $316 reversed single #
point $-1 2.02336028825027725 -5.774600691297344213 1 #
straight-curve $-1 -0.5127943167624817722 -4.973634685890802487 1 0.1391731009600654378 -0.990268068741570362 0 I I #
point $-1 -0.3532830767294915519 -6.108616133601501019 1 #
ellipse-curve $-1 0.8350386057603929046 -5.941608412449422616 1 0 0 1 -1.188321682489884346 -0.1670077211520784033 0 1 I I #
coedge $-1 $317 $318 $258 $292 forward $299 $-1 #
edge $-1 $296 0 $295 3.141592653589793116 $258 $319 forward 7 unknown #
coedge $-1 $320 $259 $318 $321 forward $262 $-1 #
coedge $-1 $259 $320 $317 $322 reversed $262 $-1 #
vertex $-1 $292 $323 #
vertex $-1 $292 $324 #
ellipse-curve $-1 0 0 1 0 0 1 -4.199999999999999289 0 0 1 I I #
face $-1 $286 $325 $2 $-1 $326 forward single #
loop $-1 $-1 $317 $261 #
cone-surface $-1 0 0 1 0 0 1 4.199999999999999289 0 0 1 I I 0 1 4.199999999999999289 forward I I I I #
coedge $-1 $266 $266 $264 $302 forward $257 $-1 #
edge $-1 $268 0 $270 3.141592653589793116 $301 $327 forward 7 unknown #
cone-surface $-1 0.8350386057603927936 -5.941608412449422616 1 0 0 -1 -0.5 0 0 1 I I 0 1 0.5 forward I I I I #
ellipse-curve $-1 0.8350386057603927936 -5.941608412449422616 1 0 0 -1 0.500000000000000111 0 0 1 I I #
point $-1 0.3350386057603927936 -5.941608412449422616 1 #
point $-1 1.335038605760392905 -5.941608412449422616 1 #
ellipse-curve $-1 -0.8350386057603927936 5.941608412449422616 1 0 0 -1 -0.500000000000000111 0 0 1 I I #
coedge $-1 $280 $279 $328 $329 forward $281 $-1 #
face $-1 $175 $281 $2 $-1 $330 reversed single #
coedge $-1 $328 $328 $283 $311 reversed $331 $-1 #
edge $-1 $312 -1.332267629550187651e-15 $314 3.141592653589793116 $310 $332 forward 7 unknown #
vertex $-1 $329 $333 #
straight-curve $-1 -3.099999999999999645 3.796279696849368317e-16 1.999999999999999778 0.7071067811865476838 -8.659274570719348019e-17 -0.7071067811865472397 I I #
vertex $-1 $329 $334 #
straight-curve $-1 3.099999999999999645 -1.177266834365142489e-14 1.999999999999999778 -0.7071067811865476838 2.623672030556505162e-14 -0.7071067811865472397 I I #
cone-surface $-1 0 0 -0.09999999999999986677 0 0 -1 0.999999999999999889 0 0 1 I I -0.7071067811865474617 0.7071067811865475727 0.999999999999999889 forward I I I I #
coedge $-1 $335 $291 $294 $322 forward $299 $-1 #
coedge $-1 $291 $335 $293 $321 reversed $299 $-1 #
ellipse-curve $-1 0 0 1 0 0 1 4.199999999999999289 0 0 1 I I #
coedge $-1 $294 $293 $336 $337 reversed $262 $-1 #
edge $-1 $296 0 $338 1 $318 $339 forward 7 unknown #
edge $-1 $295 0 $340 1 $317 $341 forward 7 unknown #
point $-1 -4.199999999999999289 0 1 #
point $-1 4.199999999999999289 0 1 #
loop $-1 $331 $336 $298 #
plane-surface $-1 0 0 2 0 0 1 1 0 0 forward_v I I I I #
ellipse-curve $-1 0.8350386057603927936 -5.941608412449422616 1 0 0 -1 -0.5 0 0 1 I I #
coedge $-1 $310 $310 $308 $329 reversed $331 $-1 #
edge $-1 $314 0 $312 3.141592653589791784 $328 $342 forward 7 unknown #
cone-surface $-1 0 0 -0.09999999999999986677 0 0 -1 0.999999999999999889 0 0 1 I I -0.7071067811865474617 0.7071067811865475727 0.999999999999999889 forward I I I I #
loop $-1 $-1 $310 $298 #
ellipse-curve $-1 1.11022302462515654e-16 -2.220446049250313081e-16 2 -7.16272919113004323e-17 1.390199262471351038e-32 1 -3.099999999999999645 6.016725746099681398e-16 -2.220446049250313081e-16 1 I I #
point $-1 -3.099999999999999645 4.509657621290517703e-15 1.999999999999999778 #
point $-1 3.099999999999999645 0 1.999999999999999778 #
coedge $-1 $318 $317 $343 $344 reversed $299 $-1 #
coedge $-1 $343 $343 $320 $337 forward $325 $-1 #
edge $-1 $340 0 $338 3.141592653589793116 $336 $345 forward 7 unknown #
vertex $-1 $344 $346 #
straight-curve $-1 4.199999999999999289 0 1 0 0 1 I I #
vertex $-1 $344 $347 #
straight-curve $-1 -4.199999999999999289 5.14334668605398409e-16 1 0 0 1 I I #
ellipse-curve $-1 2.220446049250313081e-16 -1.11022302462515654e-16 2 7.16272919113004323e-17 2.565234473273322052e-33 1 3.099999999999999645 1.11022302462515654e-16 -2.220446049250313081e-16 1 I I #
coedge $-1 $336 $336 $335 $344 forward $325 $-1 #
edge $-1 $338 0 $340 3.141592653589793116 $343 $348 forward 7 unknown #
ellipse-curve $-1 0 0 2 0 0 1 -4.199999999999999289 0 0 1 I I #
point $-1 4.199999999999999289 0 2 #
point $-1 -4.199999999999999289 0 2 #
ellipse-curve $-1 0 0 2 0 0 1 4.199999999999999289 0 0 1 I I #
End-of-ACIS-data 