700 0 2 0           
24 FBMach with ACIS - 7.0.3 13 ACIS 7.0.3 NT 24 Wed May 15 17:47:39 2002 
1 9.9999999999999995e-007 1e-010 
body $2 -1 $-1 $3 $-1 $4 #
bdycol-kcp $-1 -1 1 4 $5 $6 $7 $8 #
model_id-kcp-attrib $-1 -1 $-1 $-1 $0 1 1021499257 1021499257 -127533055 1 #
lump $-1 -1 $-1 $-1 $9 $0 #
transform $-1 -1 1 0 0 0 1 0 0 0 1 0 0 0 1 rotate no_reflect no_shear #
body $10 -1 $-1 $11 $-1 $12 #
body $13 -1 $-1 $14 $-1 $15 #
body $16 -1 $-1 $17 $-1 $18 #
body $19 -1 $-1 $20 $-1 $21 #
shell $-1 -1 $-1 $-1 $-1 $22 $-1 $3 #
rgb_color-st-attrib $-1 -1 $23 $-1 $5 0.5 1 1 #
lump $-1 -1 $-1 $-1 $24 $5 #
transform $-1 -1 1 0 0 0 1 0 0 0 1 0 0 0 1 no_rotate no_reflect no_shear #
model_id-kcp-attrib $-1 -1 $-1 $-1 $6 1 1021499257 1021499257 -127533054 1 #
lump $-1 -1 $-1 $-1 $25 $6 #
transform $-1 -1 1 0 0 0 1 0 0 0 1 4.4408920985006262e-016 0 1 1 no_rotate no_reflect no_shear #
rgb_color-st-attrib $-1 -1 $26 $-1 $7 1 0.5 1 #
lump $-1 -1 $-1 $-1 $27 $7 #
transform $-1 -1 1 0 0 0 1 0 0 0 1 4.4408920985006262e-016 0 1 1 no_rotate no_reflect no_shear #
rgb_color-st-attrib $-1 -1 $28 $-1 $8 0.5 1 1 #
lump $-1 -1 $-1 $-1 $29 $8 #
transform $-1 -1 1 0 0 0 1 0 0 0 1 0 0 0 1 no_rotate no_reflect no_shear #
face $30 -1 $-1 $31 $32 $9 $-1 $33 reversed single #
model_id-kcp-attrib $-1 -1 $-1 $10 $5 1 1021499257 1021499257 -133169148 1 #
shell $-1 -1 $-1 $-1 $-1 $34 $-1 $11 #
shell $-1 -1 $-1 $-1 $-1 $35 $-1 $14 #
model_id-kcp-attrib $-1 -1 $-1 $16 $7 1 1021499257 1021499257 -126287867 1 #
shell $-1 -1 $-1 $-1 $-1 $36 $-1 $17 #
model_id-kcp-attrib $-1 -1 $-1 $19 $8 1 1021499257 1021499257 -119013373 1 #
shell $-1 -1 $-1 $-1 $-1 $37 $-1 $20 #
model_id-kcp-attrib $-1 -1 $-1 $-1 $22 1 1021499257 1021499257 -127533055 2 #
face $38 -1 $-1 $39 $40 $9 $-1 $41 forward single #
loop $-1 -1 $-1 $42 $43 $22 #
plane-surface $-1 -1 $-1 0 0 0 0 0 1 1 0 0 forward_v I I I I #
face $-1 -1 $-1 $44 $45 $24 $-1 $46 forward single #
face $47 -1 $-1 $48 $49 $25 $-1 $50 forward single #
face $-1 -1 $-1 $51 $52 $27 $-1 $53 forward single #
face $-1 -1 $-1 $54 $55 $29 $-1 $56 forward single #
model_id-kcp-attrib $-1 -1 $-1 $-1 $31 1 1021499257 1021499257 -127533055 3 #
face $57 -1 $-1 $58 $59 $9 $-1 $60 forward single #
loop $-1 -1 $-1 $-1 $61 $31 #
plane-surface $-1 -1 $-1 0.51279431676248188 4.9736346858908016 0 0.99026806874157036 0.13917310096006544 0 -0.13917310096006544 0.99026806874157036 0 forward_v I I I I #
loop $-1 -1 $-1 $62 $63 $22 #
coedge $-1 -1 $-1 $64 $65 $66 $67 reversed $32 $-1 #
face $-1 -1 $-1 $68 $69 $24 $-1 $70 forward single #
loop $-1 -1 $-1 $71 $72 $34 #
cone-surface $-1 -1 $-1 0.8350386057603929 -5.9416084124494235 0 0 0 1 0.5 8.8817841970012523e-016 0 1 I I 0 1 0.5 forward I I I I #
model_id-kcp-attrib $-1 -1 $-1 $-1 $35 1 1021499257 1021499257 -127533054 3 #
face $73 -1 $-1 $74 $75 $25 $-1 $76 reversed single #
loop $-1 -1 $-1 $-1 $77 $35 #
plane-surface $-1 -1 $-1 0 0 1 0 0 1 1 0 0 forward_v I I I I #
face $-1 -1 $-1 $78 $79 $27 $-1 $80 forward single #
loop $-1 -1 $-1 $-1 $81 $36 #
plane-surface $-1 -1 $-1 -5 -7.1416084124494228 0 -1 0 0 0 0 1 forward_v I I I I #
face $-1 -1 $-1 $82 $83 $29 $-1 $84 forward single #
loop $-1 -1 $-1 $85 $86 $37 #
cone-surface $-1 -1 $-1 -0.8350386057603929 5.9416084124494217 0 0 0 1 0.50000000000000011 8.8817841970012523e-016 0 1 I I 0 1 0.50000000000000011 forward I I I I #
model_id-kcp-attrib $-1 -1 $-1 $-1 $39 1 1021499257 1021499257 -127533055 4 #
face $87 -1 $-1 $88 $89 $9 $-1 $90 forward single #
loop $-1 -1 $-1 $-1 $91 $39 #
cone-surface $-1 -1 $-1 -0.83503860576039279 5.9416084124494226 0 0 0 1 1.2 0 0 1 I I 0 1 1.2 forward I I I I #
coedge $-1 -1 $-1 $92 $66 $93 $94 forward $40 $-1 #
loop $-1 -1 $-1 $95 $96 $22 #
coedge $-1 -1 $-1 $97 $97 $98 $99 forward $42 $-1 #
coedge $-1 -1 $-1 $100 $43 $101 $102 reversed $32 $-1 #
coedge $-1 -1 $-1 $43 $103 $104 $105 reversed $32 $-1 #
coedge $-1 -1 $-1 $61 $106 $43 $67 forward $40 $-1 #
edge $107 -1 $-1 $108 0 $109 1.1461355601953616 $43 $110 forward @7 unknown #
face $-1 -1 $-1 $-1 $111 $24 $-1 $112 reversed single #
loop $-1 -1 $-1 $-1 $113 $44 #
plane-surface $-1 -1 $-1 0.8350386057603929 -5.9416084124494226 1 0 0 1 1 0 0 forward_v I I I I #
loop $-1 -1 $-1 $-1 $114 $34 #
coedge $-1 -1 $-1 $72 $72 $113 $115 forward $45 $-1 #
model_id-kcp-attrib $-1 -1 $-1 $-1 $48 1 1021499257 1021499257 -127533054 2 #
face $-1 -1 $-1 $116 $117 $25 $-1 $118 reversed single #
loop $-1 -1 $-1 $-1 $119 $48 #
plane-surface $-1 -1 $-1 0 0 -1 0 0 1 1 0 0 forward_v I I I I #
coedge $-1 -1 $-1 $120 $121 $122 $123 forward $49 $-1 #
face $-1 -1 $-1 $124 $125 $27 $-1 $126 forward single #
loop $-1 -1 $-1 $-1 $127 $51 #
plane-surface $-1 -1 $-1 -5 7.1416084124494228 0 0 1 0 0 0 1 forward_v I I I I #
coedge $-1 -1 $-1 $128 $129 $130 $131 forward $52 $-1 #
face $-1 -1 $-1 $-1 $132 $29 $-1 $133 reversed single #
loop $-1 -1 $-1 $-1 $134 $54 #
plane-surface $-1 -1 $-1 -0.8350386057603929 5.9416084124494226 1 0 0 1 1 0 0 forward_v I I I I #
loop $-1 -1 $-1 $-1 $135 $37 #
coedge $-1 -1 $-1 $86 $86 $134 $136 forward $55 $-1 #
model_id-kcp-attrib $-1 -1 $-1 $-1 $58 1 1021499257 1021499257 -127533055 5 #
face $137 -1 $-1 $138 $139 $9 $-1 $140 forward single #
loop $-1 -1 $-1 $-1 $141 $58 #
plane-surface $-1 -1 $-1 -2.0233602882502773 5.7746006912973442 0 -0.99026806874157036 -0.13917310096006544 0 0.13917310096006544 -0.99026806874157036 0 forward_v I I I I #
coedge $-1 -1 $-1 $142 $104 $143 $144 forward $59 $-1 #
coedge $-1 -1 $-1 $106 $61 $145 $146 reversed $40 $-1 #
coedge $-1 -1 $-1 $104 $142 $61 $94 reversed $59 $-1 #
edge $147 -1 $-1 $109 0 $148 1 $93 $149 forward @7 unknown #
loop $-1 -1 $-1 $-1 $150 $22 #
coedge $-1 -1 $-1 $151 $151 $152 $153 reversed $62 $-1 #
coedge $-1 -1 $-1 $63 $63 $154 $155 forward $42 $-1 #
coedge $-1 -1 $-1 $156 $157 $63 $99 reversed $158 $-1 #
edge $159 -1 $-1 $160 0 $161 3.1415926535897927 $63 $162 forward @7 unknown #
coedge $-1 -1 $-1 $163 $64 $164 $165 reversed $32 $-1 #
coedge $-1 -1 $-1 $166 $167 $64 $102 forward $168 $-1 #
edge $169 -1 $-1 $170 0 $108 2.6568609515118666 $64 $171 forward @7 unknown #
coedge $-1 -1 $-1 $65 $172 $173 $174 reversed $32 $-1 #
coedge $-1 -1 $-1 $91 $93 $65 $105 forward $59 $-1 #
edge $175 -1 $-1 $109 0 $176 3.1415926535897931 $65 $177 forward @7 unknown #
coedge $-1 -1 $-1 $66 $92 $166 $178 reversed $40 $-1 #
attrib_edge_convexity-kcp-attrib $-1 -1 $179 $-1 $67 1 #
vertex $-1 -1 $-1 $102 $180 #
vertex $-1 -1 $-1 $105 $181 #
straight-curve $-1 -1 $-1 0.51279431676248177 4.9736346858908025 0 -0.13917310096006544 0.99026806874157036 0 I I #
loop $-1 -1 $-1 $-1 $182 $68 #
plane-surface $-1 -1 $-1 0.8350386057603929 -5.9416084124494226 0 0 0 1 1 0 0 forward_v I I I I #
coedge $-1 -1 $-1 $113 $113 $72 $115 reversed $69 $-1 #
coedge $-1 -1 $-1 $114 $114 $182 $183 reversed $71 $-1 #
edge $-1 -1 $-1 $184 -3.1415926535897896 $184 3.1415926535897967 $72 $185 forward @7 unknown #
face $-1 -1 $-1 $186 $187 $25 $-1 $188 reversed single #
loop $-1 -1 $-1 $-1 $189 $74 #
plane-surface $-1 -1 $-1 0 -7.1416084124494228 0 0 1 0 0 0 1 forward_v I I I I #
coedge $-1 -1 $-1 $190 $191 $192 $193 forward $75 $-1 #
coedge $-1 -1 $-1 $194 $77 $195 $196 forward $49 $-1 #
coedge $-1 -1 $-1 $77 $194 $197 $198 forward $49 $-1 #
coedge $-1 -1 $-1 $199 $200 $77 $123 reversed $201 $-1 #
edge $-1 -1 $-1 $202 -7.1416084124494228 $203 7.1416084124494228 $122 $204 forward @7 unknown #
face $-1 -1 $-1 $205 $206 $27 $-1 $207 forward single #
loop $-1 -1 $-1 $-1 $208 $78 #
plane-surface $-1 -1 $-1 5 7.1416084124494228 0 1 0 0 0 0 -1 forward_v I I I I #
coedge $-1 -1 $-1 $209 $210 $211 $212 forward $79 $-1 #
coedge $-1 -1 $-1 $213 $81 $210 $214 reversed $52 $-1 #
coedge $-1 -1 $-1 $81 $213 $215 $216 forward $52 $-1 #
coedge $-1 -1 $-1 $217 $211 $81 $131 reversed $218 $-1 #
edge $-1 -1 $-1 $219 -7.1416084124494228 $220 7.1416084124494228 $81 $221 forward @7 unknown #
loop $-1 -1 $-1 $-1 $222 $82 #
plane-surface $-1 -1 $-1 -0.8350386057603929 5.9416084124494226 0 0 0 1 1 0 0 forward_v I I I I #
coedge $-1 -1 $-1 $134 $134 $86 $136 reversed $83 $-1 #
coedge $-1 -1 $-1 $135 $135 $222 $223 reversed $85 $-1 #
edge $-1 -1 $-1 $224 -3.1415926535897896 $224 3.1415926535897967 $86 $225 forward @7 unknown #
model_id-kcp-attrib $-1 -1 $-1 $-1 $88 1 1021499257 1021499257 -127533055 6 #
face $226 -1 $-1 $227 $228 $9 $-1 $229 forward single #
loop $-1 -1 $-1 $-1 $230 $88 #
cone-surface $-1 -1 $-1 0 0 0 0 0 1 5 0 0 1 I I 0 1 5 forward I I I I #
coedge $-1 -1 $-1 $231 $173 $232 $233 forward $89 $-1 #
coedge $-1 -1 $-1 $93 $91 $234 $235 reversed $59 $-1 #
coedge $-1 -1 $-1 $173 $231 $91 $144 reversed $89 $-1 #
edge $236 -1 $-1 $176 0 $237 1 $91 $238 forward @7 unknown #
coedge $-1 -1 $-1 $234 $239 $92 $146 forward $240 $-1 #
edge $241 -1 $-1 $242 -8.9498604648381748e-016 $148 1.1461355601953616 $145 $243 forward @7 unknown #
attrib_edge_convexity-kcp-attrib $-1 -1 $244 $-1 $94 3 #
vertex $-1 -1 $-1 $235 $245 #
straight-curve $-1 -1 $-1 0.35328307672949155 6.108616133601501 0 0 0 1 I I #
coedge $-1 -1 $-1 $246 $246 $247 $248 reversed $95 $-1 #
coedge $-1 -1 $-1 $96 $96 $249 $250 reversed $62 $-1 #
coedge $-1 -1 $-1 $251 $252 $96 $153 forward $253 $-1 #
edge $254 -1 $-1 $255 0 $256 3.1415926535897967 $96 $257 forward @7 unknown #
coedge $-1 -1 $-1 $258 $259 $97 $155 reversed $260 $-1 #
edge $261 -1 $-1 $161 0 $160 3.1415926535897931 $97 $262 forward @7 unknown #
coedge $-1 -1 $-1 $263 $98 $259 $264 reversed $158 $-1 #
coedge $-1 -1 $-1 $98 $263 $258 $265 forward $158 $-1 #
loop $-1 -1 $-1 $-1 $156 $266 #
attrib_edge_convexity-kcp-attrib $-1 -1 $267 $-1 $99 1 #
vertex $-1 -1 $-1 $155 $268 #
vertex $-1 -1 $-1 $155 $269 #
ellipse-curve $-1 -1 $-1 0 6.6613381477509392e-016 0 0 0 1 -2.5 -6.6613381477509392e-016 0 1 I I #
coedge $-1 -1 $-1 $270 $100 $271 $272 reversed $32 $-1 #
coedge $-1 -1 $-1 $273 $274 $100 $165 forward $275 $-1 #
edge $276 -1 $-1 $277 0 $170 1.1461355601953624 $100 $278 forward @7 unknown #
coedge $-1 -1 $-1 $279 $101 $106 $178 forward $168 $-1 #
coedge $-1 -1 $-1 $101 $279 $273 $280 reversed $168 $-1 #
loop $-1 -1 $-1 $-1 $166 $281 #
attrib_edge_convexity-kcp-attrib $-1 -1 $282 $-1 $102 1 #
vertex $-1 -1 $-1 $165 $283 #
ellipse-curve $-1 -1 $-1 0 0 0 0 0 1 1.8638490482172869 -4.6396192435866448 0 1 I I #
coedge $-1 -1 $-1 $103 $270 $284 $285 reversed $32 $-1 #
coedge $-1 -1 $-1 $141 $143 $103 $174 forward $89 $-1 #
edge $286 -1 $-1 $176 0 $287 1.1461355601953624 $103 $288 forward @7 unknown #
attrib_edge_convexity-kcp-attrib $-1 -1 $289 $-1 $105 1 #
vertex $-1 -1 $-1 $105 $290 #
ellipse-curve $-1 -1 $-1 -0.83503860576039279 5.9416084124494226 0 0 0 1 1.1883216824898843 0.1670077211520784 0 1 I I #
edge $291 -1 $-1 $108 3.6977854932234928e-031 $242 1 $166 $292 forward @7 unknown #
convexity-sys-attrib $-1 -1 $-1 $107 $67 #
point $-1 -1 $-1 0.51279431676248177 4.9736346858908025 0 #
point $-1 -1 $-1 0.35328307672949155 6.108616133601501 0 #
coedge $-1 -1 $-1 $182 $182 $114 $183 forward $111 $-1 #
edge $-1 -1 $-1 $293 -3.1415926535897896 $293 3.1415926535897967 $114 $294 forward @7 unknown #
vertex $-1 -1 $-1 $115 $295 #
ellipse-curve $-1 -1 $-1 0.8350386057603929 -5.9416084124494217 1 0 0 -1 -0.50000000000000011 -8.8817841970012523e-016 0 1 I I #
face $-1 -1 $-1 $296 $297 $25 $-1 $298 reversed single #
loop $-1 -1 $-1 $-1 $299 $116 #
plane-surface $-1 -1 $-1 -5 0 0 1 0 0 0 0 -1 forward_v I I I I #
coedge $-1 -1 $-1 $300 $197 $301 $302 forward $117 $-1 #
coedge $-1 -1 $-1 $303 $119 $300 $304 forward $75 $-1 #
coedge $-1 -1 $-1 $119 $303 $305 $306 forward $75 $-1 #
coedge $-1 -1 $-1 $200 $199 $119 $193 reversed $201 $-1 #
edge $-1 -1 $-1 $307 -7.1416084124494228 $308 7.1416084124494228 $192 $309 forward @7 unknown #
coedge $-1 -1 $-1 $121 $120 $310 $311 forward $49 $-1 #
coedge $-1 -1 $-1 $312 $313 $120 $196 reversed $297 $-1 #
edge $-1 -1 $-1 $203 -5 $314 5 $195 $315 forward @7 unknown #
coedge $-1 -1 $-1 $189 $316 $121 $198 reversed $117 $-1 #
edge $-1 -1 $-1 $317 -5 $202 5 $197 $318 forward @7 unknown #
coedge $-1 -1 $-1 $192 $122 $316 $319 forward $201 $-1 #
coedge $-1 -1 $-1 $122 $192 $312 $320 reversed $201 $-1 #
loop $-1 -1 $-1 $-1 $199 $296 #
vertex $-1 -1 $-1 $123 $321 #
vertex $-1 -1 $-1 $123 $322 #
straight-curve $-1 -1 $-1 5 0 1 0 1 0 I I #
face $-1 -1 $-1 $323 $324 $27 $-1 $325 forward single #
loop $-1 -1 $-1 $-1 $326 $124 #
plane-surface $-1 -1 $-1 5 -7.1416084124494228 0 0 -1 0 0 0 -1 forward_v I I I I #
coedge $-1 -1 $-1 $327 $328 $329 $330 forward $125 $-1 #
coedge $-1 -1 $-1 $331 $127 $328 $332 reversed $79 $-1 #
coedge $-1 -1 $-1 $127 $331 $128 $214 forward $79 $-1 #
coedge $-1 -1 $-1 $130 $329 $127 $212 reversed $218 $-1 #
edge $-1 -1 $-1 $220 -5 $333 5 $127 $334 forward @7 unknown #
coedge $-1 -1 $-1 $129 $128 $335 $336 reversed $52 $-1 #
edge $-1 -1 $-1 $337 0 $220 1 $210 $338 forward @7 unknown #
coedge $-1 -1 $-1 $339 $326 $129 $216 reversed $206 $-1 #
edge $-1 -1 $-1 $340 0 $219 1 $129 $341 forward @7 unknown #
coedge $-1 -1 $-1 $329 $130 $326 $342 reversed $218 $-1 #
loop $-1 -1 $-1 $-1 $130 $323 #
vertex $-1 -1 $-1 $216 $343 #
vertex $-1 -1 $-1 $214 $344 #
straight-curve $-1 -1 $-1 -5 0 1 0 1 0 I I #
coedge $-1 -1 $-1 $222 $222 $135 $223 forward $132 $-1 #
edge $-1 -1 $-1 $345 -3.1415926535897896 $345 3.1415926535897967 $135 $346 forward @7 unknown #
vertex $-1 -1 $-1 $136 $347 #
ellipse-curve $-1 -1 $-1 -0.8350386057603929 5.9416084124494235 1 0 0 -1 -0.5 -8.8817841970012523e-016 0 1 I I #
model_id-kcp-attrib $-1 -1 $-1 $-1 $138 1 1021499257 1021499257 -127533055 7 #
face $348 -1 $-1 $349 $350 $9 $-1 $351 forward single #
loop $-1 -1 $-1 $-1 $352 $138 #
plane-surface $-1 -1 $-1 -0.51279431676248188 -4.9736346858908016 0 -0.99026806874157036 -0.13917310096006544 0 0.13917310096006544 -0.99026806874157036 0 forward_v I I I I #
coedge $-1 -1 $-1 $353 $284 $354 $355 forward $139 $-1 #
coedge $-1 -1 $-1 $143 $141 $356 $357 reversed $89 $-1 #
coedge $-1 -1 $-1 $284 $353 $141 $233 reversed $139 $-1 #
edge $358 -1 $-1 $287 0 $359 1 $141 $360 forward @7 unknown #
coedge $-1 -1 $-1 $356 $145 $142 $235 forward $240 $-1 #
edge $361 -1 $-1 $148 0 $237 3.1415926535897931 $234 $362 forward @7 unknown #
attrib_edge_convexity-kcp-attrib $-1 -1 $363 $-1 $144 3 #
vertex $-1 -1 $-1 $235 $364 #
straight-curve $-1 -1 $-1 -2.0233602882502773 5.7746006912973442 0 0 0 1 I I #
coedge $-1 -1 $-1 $145 $365 $279 $366 forward $240 $-1 #
loop $-1 -1 $-1 $367 $356 $368 #
attrib_edge_convexity-kcp-attrib $-1 -1 $369 $-1 $146 1 #
vertex $-1 -1 $-1 $146 $370 #
straight-curve $-1 -1 $-1 0.51279431676248177 4.9736346858908025 1 -0.13917310096006544 0.99026806874157036 0 I I #
convexity-sys-attrib $-1 -1 $-1 $147 $94 #
point $-1 -1 $-1 0.35328307672949155 6.108616133601501 1 #
coedge $-1 -1 $-1 $150 $150 $371 $372 reversed $95 $-1 #
coedge $-1 -1 $-1 $373 $374 $150 $248 forward $375 $-1 #
edge $376 -1 $-1 $377 0 $378 3.1415926535897967 $150 $379 forward @7 unknown #
coedge $-1 -1 $-1 $380 $381 $151 $250 forward $382 $-1 #
edge $383 -1 $-1 $256 0 $255 3.1415926535897967 $151 $384 forward @7 unknown #
coedge $-1 -1 $-1 $385 $152 $381 $386 reversed $253 $-1 #
coedge $-1 -1 $-1 $152 $385 $380 $387 forward $253 $-1 #
loop $-1 -1 $-1 $-1 $251 $388 #
attrib_edge_convexity-kcp-attrib $-1 -1 $389 $-1 $153 1 #
vertex $-1 -1 $-1 $250 $390 #
vertex $-1 -1 $-1 $250 $391 #
ellipse-curve $-1 -1 $-1 -0.8350386057603929 5.9416084124494217 0 0 0 -1 0.50000000000000011 8.8817841970012523e-016 0 1 I I #
coedge $-1 -1 $-1 $392 $154 $157 $265 reversed $260 $-1 #
coedge $-1 -1 $-1 $154 $392 $156 $264 forward $260 $-1 #
loop $-1 -1 $-1 $-1 $258 $393 #
attrib_edge_convexity-kcp-attrib $-1 -1 $394 $-1 $155 1 #
ellipse-curve $-1 -1 $-1 -1.1102230246251565e-016 2.2204460492503131e-016 0 0 0 1 2.5 -2.2204460492503131e-016 0 1 I I #
coedge $-1 -1 $-1 $157 $156 $395 $396 forward $158 $-1 #
edge $-1 -1 $-1 $397 0 $160 1.3999999999999999 $259 $398 forward @7 unknown #
edge $-1 -1 $-1 $399 0 $161 1.3999999999999999 $258 $400 forward @7 unknown #
face $401 -1 $-1 $388 $158 $9 $-1 $402 reversed single #
convexity-sys-attrib $-1 -1 $-1 $159 $99 #
point $-1 -1 $-1 -2.5 0 0 #
point $-1 -1 $-1 2.5 0 0 #
coedge $-1 -1 $-1 $172 $163 $403 $404 reversed $32 $-1 #
coedge $-1 -1 $-1 $405 $406 $163 $272 forward $350 $-1 #
edge $407 -1 $-1 $408 0 $277 3.1415926535897931 $163 $409 forward @7 unknown #
coedge $-1 -1 $-1 $410 $164 $167 $280 forward $275 $-1 #
coedge $-1 -1 $-1 $164 $410 $405 $411 reversed $275 $-1 #
loop $-1 -1 $-1 $-1 $273 $349 #
attrib_edge_convexity-kcp-attrib $-1 -1 $412 $-1 $165 1 #
vertex $-1 -1 $-1 $272 $413 #
straight-curve $-1 -1 $-1 2.0233602882502773 -5.7746006912973442 0 -0.13917310096006544 0.99026806874157036 0 I I #
coedge $-1 -1 $-1 $167 $166 $239 $366 reversed $168 $-1 #
edge $414 -1 $-1 $170 0 $415 1 $273 $416 forward @7 unknown #
face $417 -1 $-1 $368 $168 $9 $-1 $418 forward single #
convexity-sys-attrib $-1 -1 $-1 $169 $102 #
point $-1 -1 $-1 1.8638490482172869 -4.6396192435866448 0 #
coedge $-1 -1 $-1 $230 $232 $172 $285 forward $139 $-1 #
edge $419 -1 $-1 $287 0 $420 2.6568609515118666 $172 $421 forward @7 unknown #
attrib_edge_convexity-kcp-attrib $-1 -1 $422 $-1 $174 1 #
vertex $-1 -1 $-1 $174 $423 #
straight-curve $-1 -1 $-1 -2.0233602882502773 5.7746006912973442 0 0.13917310096006544 -0.99026806874157036 0 I I #
convexity-sys-attrib $-1 -1 $-1 $175 $105 #
point $-1 -1 $-1 -2.0233602882502773 5.7746006912973442 0 #
attrib_edge_convexity-kcp-attrib $-1 -1 $424 $-1 $178 2 #
straight-curve $-1 -1 $-1 0.51279431676248244 4.9736346858908025 0 -5.5511151231257827e-016 -8.8817841970012523e-016 1 I I #
vertex $-1 -1 $-1 $183 $425 #
ellipse-curve $-1 -1 $-1 0.8350386057603929 -5.9416084124494235 0 0 0 -1 0.5 8.8817841970012523e-016 0 1 I I #
point $-1 -1 $-1 1.3350386057603929 -5.9416084124494226 1 #
face $-1 -1 $-1 $-1 $201 $25 $-1 $426 reversed single #
loop $-1 -1 $-1 $-1 $312 $186 #
plane-surface $-1 -1 $-1 0 7.1416084124494228 0 0 -1 0 0 0 -1 forward_v I I I I #
coedge $-1 -1 $-1 $427 $310 $313 $428 forward $187 $-1 #
coedge $-1 -1 $-1 $316 $189 $190 $304 reversed $117 $-1 #
coedge $-1 -1 $-1 $310 $427 $189 $302 reversed $187 $-1 #
edge $-1 -1 $-1 $317 -1 $429 1 $301 $430 forward @7 unknown #
coedge $-1 -1 $-1 $191 $190 $427 $431 forward $75 $-1 #
edge $-1 -1 $-1 $308 -5 $429 5 $300 $432 forward @7 unknown #
coedge $-1 -1 $-1 $313 $312 $191 $306 reversed $297 $-1 #
edge $-1 -1 $-1 $433 -5 $307 5 $305 $434 forward @7 unknown #
vertex $-1 -1 $-1 $193 $435 #
vertex $-1 -1 $-1 $319 $436 #
straight-curve $-1 -1 $-1 5 0 -1 0 -1 0 I I #
coedge $-1 -1 $-1 $299 $301 $194 $311 reversed $187 $-1 #
edge $-1 -1 $-1 $314 -7.1416084124494228 $317 7.1416084124494228 $310 $437 forward @7 unknown #
coedge $-1 -1 $-1 $305 $195 $200 $320 forward $297 $-1 #
coedge $-1 -1 $-1 $195 $305 $299 $428 reversed $297 $-1 #
vertex $-1 -1 $-1 $196 $438 #
straight-curve $-1 -1 $-1 0 7.1416084124494228 1 -1 0 0 I I #
coedge $-1 -1 $-1 $197 $300 $199 $319 reversed $117 $-1 #
vertex $-1 -1 $-1 $311 $439 #
straight-curve $-1 -1 $-1 0 -7.1416084124494228 1 1 0 0 I I #
edge $-1 -1 $-1 $202 -1 $308 1 $199 $440 forward @7 unknown #
edge $-1 -1 $-1 $203 -1 $307 1 $200 $441 forward @7 unknown #
point $-1 -1 $-1 5 -7.1416084124494228 1 #
point $-1 -1 $-1 5 7.1416084124494228 1 #
face $-1 -1 $-1 $442 $443 $27 $-1 $444 forward single #
loop $-1 -1 $-1 $445 $446 $205 #
cone-surface $-1 -1 $-1 -4.4408920985006262e-016 0 0 0 0 1 4.1999999999999993 0 0 1 I I 0 -1 4.1999999999999993 forward I I I I #
coedge $-1 -1 $-1 $215 $447 $217 $342 forward $206 $-1 #
coedge $-1 -1 $-1 $448 $208 $447 $449 reversed $125 $-1 #
coedge $-1 -1 $-1 $208 $448 $209 $332 forward $125 $-1 #
coedge $-1 -1 $-1 $211 $217 $208 $330 reversed $218 $-1 #
edge $-1 -1 $-1 $333 -7.1416084124494228 $450 7.1416084124494228 $208 $451 forward @7 unknown #
coedge $-1 -1 $-1 $210 $209 $452 $453 reversed $79 $-1 #
edge $-1 -1 $-1 $454 0 $333 1 $328 $455 forward @7 unknown #
vertex $-1 -1 $-1 $332 $456 #
straight-curve $-1 -1 $-1 -4.4408920985006262e-016 7.1416084124494228 1 1 0 0 I I #
coedge $-1 -1 $-1 $452 $457 $213 $336 forward $458 $-1 #
edge $459 -1 $-1 $340 -7.1416084124494228 $337 7.1416084124494228 $213 $460 forward @7 unknown #
vertex $-1 -1 $-1 $336 $461 #
straight-curve $-1 -1 $-1 -5 7.1416084124494228 0 0 0 1 I I #
coedge $-1 -1 $-1 $447 $215 $457 $462 reversed $206 $-1 #
vertex $-1 -1 $-1 $462 $463 #
straight-curve $-1 -1 $-1 -5 -7.1416084124494228 0 0 0 1 I I #
edge $-1 -1 $-1 $450 -5 $219 5 $326 $464 forward @7 unknown #
point $-1 -1 $-1 -5 -7.1416084124494228 1 #
point $-1 -1 $-1 -5 7.1416084124494228 1 #
vertex $-1 -1 $-1 $223 $465 #
ellipse-curve $-1 -1 $-1 -0.8350386057603929 5.9416084124494217 0 0 0 -1 0.50000000000000011 8.8817841970012523e-016 0 1 I I #
point $-1 -1 $-1 -0.33503860576039279 5.9416084124494226 1 #
model_id-kcp-attrib $-1 -1 $-1 $-1 $227 1 1021499257 1021499257 -127533055 8 #
face $466 -1 $-1 $281 $275 $9 $-1 $467 forward single #
loop $-1 -1 $-1 $-1 $405 $227 #
cone-surface $-1 -1 $-1 0.83503860576039279 -5.9416084124494226 0 0 0 1 1.2 0 0 1 I I 0 1 1.2 forward I I I I #
coedge $-1 -1 $-1 $468 $403 $406 $469 forward $228 $-1 #
coedge $-1 -1 $-1 $232 $230 $470 $471 reversed $139 $-1 #
coedge $-1 -1 $-1 $403 $468 $230 $355 reversed $228 $-1 #
edge $472 -1 $-1 $420 0 $473 1 $230 $474 forward @7 unknown #
coedge $-1 -1 $-1 $470 $234 $231 $357 forward $240 $-1 #
edge $475 -1 $-1 $237 0 $359 1.1461355601953627 $356 $476 forward @7 unknown #
attrib_edge_convexity-kcp-attrib $-1 -1 $477 $-1 $233 2 #
vertex $-1 -1 $-1 $471 $478 #
straight-curve $-1 -1 $-1 -1.8638490482172869 4.6396192435866448 0 0 0 1 I I #
attrib_edge_convexity-kcp-attrib $-1 -1 $479 $-1 $235 1 #
ellipse-curve $-1 -1 $-1 -0.8350386057603929 5.9416084124494226 1 0 0 1 1.1883216824898843 0.1670077211520784 0 1 I I #
convexity-sys-attrib $-1 -1 $-1 $236 $144 #
point $-1 -1 $-1 -2.0233602882502773 5.7746006912973442 1 #
coedge $-1 -1 $-1 $239 $480 $410 $481 forward $240 $-1 #
edge $482 -1 $-1 $415 7.1054273576010045e-017 $242 2.6568609515118666 $239 $483 forward @7 unknown #
loop $-1 -1 $-1 $484 $485 $368 #
face $486 -1 $-1 $487 $240 $9 $-1 $488 forward single #
convexity-sys-attrib $-1 -1 $-1 $241 $146 #
point $-1 -1 $-1 0.51279431676248188 4.9736346858908016 1 #
coedge $-1 -1 $-1 $489 $490 $246 $372 forward $491 $-1 #
edge $492 -1 $-1 $378 0 $377 3.1415926535897967 $246 $493 forward @7 unknown #
coedge $-1 -1 $-1 $494 $247 $490 $495 reversed $375 $-1 #
coedge $-1 -1 $-1 $247 $494 $489 $496 forward $375 $-1 #
loop $-1 -1 $-1 $-1 $373 $497 #
attrib_edge_convexity-kcp-attrib $-1 -1 $498 $-1 $248 1 #
vertex $-1 -1 $-1 $372 $499 #
vertex $-1 -1 $-1 $372 $500 #
ellipse-curve $-1 -1 $-1 0.8350386057603929 -5.9416084124494235 0 0 0 -1 0.5 8.8817841970012523e-016 0 1 I I #
coedge $-1 -1 $-1 $501 $249 $252 $387 reversed $382 $-1 #
coedge $-1 -1 $-1 $249 $501 $251 $386 forward $382 $-1 #
loop $-1 -1 $-1 $-1 $380 $502 #
attrib_edge_convexity-kcp-attrib $-1 -1 $503 $-1 $250 1 #
ellipse-curve $-1 -1 $-1 -0.8350386057603929 5.9416084124494235 0 0 0 -1 -0.5 -8.8817841970012523e-016 0 1 I I #
coedge $-1 -1 $-1 $252 $251 $504 $505 reversed $253 $-1 #
edge $-1 -1 $-1 $506 0 $256 1 $381 $507 forward @7 unknown #
edge $-1 -1 $-1 $508 0 $255 1 $380 $509 forward @7 unknown #
face $510 -1 $-1 $502 $253 $9 $-1 $511 reversed single #
convexity-sys-attrib $-1 -1 $-1 $254 $153 #
point $-1 -1 $-1 -0.33503860576039279 5.9416084124494226 0 #
point $-1 -1 $-1 -1.3350386057603929 5.9416084124494226 0 #
coedge $-1 -1 $-1 $259 $258 $512 $513 forward $260 $-1 #
face $514 -1 $-1 $266 $260 $9 $-1 $515 reversed single #
convexity-sys-attrib $-1 -1 $-1 $261 $155 #
coedge $-1 -1 $-1 $516 $517 $263 $396 reversed $518 $-1 #
edge $-1 -1 $-1 $397 3.1554436208840478e-032 $399 3.1415926535897931 $263 $519 forward @7 unknown #
vertex $-1 -1 $-1 $264 $520 #
straight-curve $-1 -1 $-1 -2.5 3.0615158845559431e-016 1.3999999999999999 0 0 -1 I I #
vertex $-1 -1 $-1 $513 $521 #
straight-curve $-1 -1 $-1 2.5 0 1.3999999999999999 0 0 -1 I I #
model_id-kcp-attrib $-1 -1 $-1 $-1 $266 1 1021499257 1021499257 -127533055 18 #
cone-surface $-1 -1 $-1 0 0 2 0 0 1 2.5 0 0 1 I I 0 1 2.5 forward I I I I #
coedge $-1 -1 $-1 $352 $354 $270 $404 forward $228 $-1 #
edge $522 -1 $-1 $420 0 $408 1.1461355601953616 $270 $523 forward @7 unknown #
coedge $-1 -1 $-1 $524 $271 $274 $411 forward $350 $-1 #
coedge $-1 -1 $-1 $271 $524 $352 $469 reversed $350 $-1 #
attrib_edge_convexity-kcp-attrib $-1 -1 $525 $-1 $272 1 #
vertex $-1 -1 $-1 $404 $526 #
ellipse-curve $-1 -1 $-1 0.83503860576039279 -5.9416084124494226 0 0 0 1 -1.1883216824898843 -0.1670077211520784 0 1 I I #
coedge $-1 -1 $-1 $274 $273 $365 $481 reversed $275 $-1 #
edge $527 -1 $-1 $277 0 $528 1 $405 $529 forward @7 unknown #
convexity-sys-attrib $-1 -1 $-1 $276 $165 #
point $-1 -1 $-1 2.0233602882502773 -5.7746006912973442 0 #
attrib_edge_convexity-kcp-attrib $-1 -1 $530 $-1 $280 2 #
vertex $-1 -1 $-1 $366 $531 #
straight-curve $-1 -1 $-1 1.8638490482172869 -4.6396192435866448 0 0 0 1 I I #
model_id-kcp-attrib $-1 -1 $-1 $-1 $281 1 1021499257 1021499257 -127533055 10 #
cone-surface $-1 -1 $-1 0 0 0 0 0 1 5 0 0 1 I I 0 1 5 forward I I I I #
attrib_edge_convexity-kcp-attrib $-1 -1 $532 $-1 $285 1 #
vertex $-1 -1 $-1 $285 $533 #
ellipse-curve $-1 -1 $-1 0 0 0 0 0 1 -1.8638490482172869 4.6396192435866448 0 1 I I #
convexity-sys-attrib $-1 -1 $-1 $286 $174 #
point $-1 -1 $-1 -1.8638490482172869 4.6396192435866448 0 #
convexity-sys-attrib $-1 -1 $-1 $291 $178 #
point $-1 -1 $-1 0.33503860576039279 -5.9416084124494226 0 #
plane-surface $-1 -1 $-1 5 0 0 -1 0 0 0 0 1 forward_v I I I I #
coedge $-1 -1 $-1 $301 $299 $303 $431 reversed $187 $-1 #
edge $-1 -1 $-1 $314 -1 $433 1 $313 $534 forward @7 unknown #
vertex $-1 -1 $-1 $431 $535 #
straight-curve $-1 -1 $-1 -5 -7.1416084124494228 0 0 0 -1 I I #
edge $-1 -1 $-1 $429 -7.1416084124494228 $433 7.1416084124494228 $427 $536 forward @7 unknown #
straight-curve $-1 -1 $-1 0 -7.1416084124494228 -1 -1 0 0 I I #
vertex $-1 -1 $-1 $306 $537 #
straight-curve $-1 -1 $-1 0 7.1416084124494228 -1 1 0 0 I I #
point $-1 -1 $-1 5 7.1416084124494228 -1 #
point $-1 -1 $-1 5 -7.1416084124494228 -1 #
straight-curve $-1 -1 $-1 -5 0 1 0 -1 0 I I #
point $-1 -1 $-1 -5 7.1416084124494228 1 #
point $-1 -1 $-1 -5 -7.1416084124494228 1 #
straight-curve $-1 -1 $-1 5 -7.1416084124494228 0 0 0 -1 I I #
straight-curve $-1 -1 $-1 5 7.1416084124494228 0 0 0 -1 I I #
face $-1 -1 $-1 $-1 $538 $27 $-1 $539 reversed single #
loop $-1 -1 $-1 $218 $540 $323 #
plane-surface $-1 -1 $-1 -1.1102230246251565e-016 0 1 0 0 1 1 0 0 forward_v I I I I #
loop $-1 -1 $-1 $-1 $541 $205 #
coedge $-1 -1 $-1 $446 $446 $540 $542 forward $324 $-1 #
coedge $-1 -1 $-1 $326 $339 $327 $449 forward $206 $-1 #
coedge $-1 -1 $-1 $328 $327 $543 $544 reversed $125 $-1 #
edge $-1 -1 $-1 $545 0 $450 1 $447 $546 forward @7 unknown #
vertex $-1 -1 $-1 $449 $547 #
straight-curve $-1 -1 $-1 5 0 1 0 -1 0 I I #
coedge $-1 -1 $-1 $543 $335 $331 $453 forward $458 $-1 #
edge $548 -1 $-1 $337 -5 $454 5 $331 $549 forward @7 unknown #
vertex $-1 -1 $-1 $453 $550 #
straight-curve $-1 -1 $-1 5 7.1416084124494228 0 0 0 1 I I #
point $-1 -1 $-1 5 7.1416084124494228 1 #
coedge $-1 -1 $-1 $335 $543 $339 $462 forward $458 $-1 #
loop $-1 -1 $-1 $-1 $457 $442 #
convexity-sys-attrib $-1 -1 $-1 $-1 $336 #
straight-curve $-1 -1 $-1 -5 0 0 0 1 0 I I #
point $-1 -1 $-1 -5 7.1416084124494228 0 #
edge $551 -1 $-1 $545 -5 $340 5 $339 $552 forward @7 unknown #
point $-1 -1 $-1 -5 -7.1416084124494228 0 #
straight-curve $-1 -1 $-1 -4.4408920985006262e-016 -7.1416084124494228 1 -1 0 0 I I #
point $-1 -1 $-1 -1.3350386057603929 5.9416084124494226 0 #
model_id-kcp-attrib $-1 -1 $-1 $-1 $349 1 1021499257 1021499257 -127533055 9 #
plane-surface $-1 -1 $-1 2.0233602882502773 -5.7746006912973442 0 0.99026806874157036 0.13917310096006544 0 -0.13917310096006544 0.99026806874157036 0 forward_v I I I I #
coedge $-1 -1 $-1 $354 $352 $553 $554 reversed $228 $-1 #
edge $555 -1 $-1 $408 0 $556 1 $352 $557 forward @7 unknown #
coedge $-1 -1 $-1 $553 $356 $353 $471 forward $240 $-1 #
edge $558 -1 $-1 $359 -7.105427357601002e-017 $473 2.6568609515118666 $470 $559 forward @7 unknown #
attrib_edge_convexity-kcp-attrib $-1 -1 $560 $-1 $355 2 #
vertex $-1 -1 $-1 $554 $561 #
straight-curve $-1 -1 $-1 -0.51279431676248188 -4.9736346858908025 0 0 8.8817841970012523e-016 1 I I #
attrib_edge_convexity-kcp-attrib $-1 -1 $562 $-1 $357 1 #
straight-curve $-1 -1 $-1 -2.0233602882502773 5.7746006912973442 1 0.13917310096006544 -0.99026806874157036 0 I I #
convexity-sys-attrib $-1 -1 $-1 $358 $233 #
point $-1 -1 $-1 -1.8638490482172865 4.6396192435866448 1 #
convexity-sys-attrib $-1 -1 $-1 $361 $235 #
coedge $-1 -1 $-1 $365 $553 $524 $563 forward $240 $-1 #
edge $564 -1 $-1 $528 0 $415 1.1461355601953624 $365 $565 forward @7 unknown #
attrib_edge_convexity-kcp-attrib $-1 -1 $566 $-1 $366 1 #
ellipse-curve $-1 -1 $-1 -4.4408920985006262e-016 -4.4408920985006262e-016 1 0 0 1 1.8638490482172874 -4.6396192435866439 0 1 I I #
loop $-1 -1 $-1 $567 $504 $368 #
coedge $-1 -1 $-1 $568 $568 $569 $570 reversed $367 $-1 #
model_id-kcp-attrib $-1 -1 $-1 $-1 $368 1 1021499257 1021499257 -127533055 11 #
face $571 -1 $-1 $572 $573 $9 $-1 $574 forward single #
plane-surface $-1 -1 $-1 0 0 1 0 0 1 1 0 0 forward_v I I I I #
coedge $-1 -1 $-1 $575 $371 $374 $496 reversed $491 $-1 #
coedge $-1 -1 $-1 $371 $575 $373 $495 forward $491 $-1 #
loop $-1 -1 $-1 $-1 $489 $576 #
attrib_edge_convexity-kcp-attrib $-1 -1 $577 $-1 $372 1 #
ellipse-curve $-1 -1 $-1 0.8350386057603929 -5.9416084124494217 0 0 0 -1 -0.50000000000000011 -8.8817841970012523e-016 0 1 I I #
coedge $-1 -1 $-1 $374 $373 $578 $579 reversed $375 $-1 #
edge $-1 -1 $-1 $580 0 $378 1 $490 $581 forward @7 unknown #
edge $-1 -1 $-1 $582 0 $377 1 $489 $583 forward @7 unknown #
face $584 -1 $-1 $576 $375 $9 $-1 $585 reversed single #
convexity-sys-attrib $-1 -1 $-1 $376 $248 #
point $-1 -1 $-1 1.3350386057603929 -5.9416084124494226 0 #
point $-1 -1 $-1 0.33503860576039279 -5.9416084124494226 0 #
coedge $-1 -1 $-1 $381 $380 $586 $587 reversed $382 $-1 #
face $588 -1 $-1 $497 $382 $9 $-1 $589 reversed single #
convexity-sys-attrib $-1 -1 $-1 $383 $250 #
coedge $-1 -1 $-1 $586 $586 $385 $505 forward $484 $-1 #
edge $590 -1 $-1 $508 0 $506 3.1415926535897931 $504 $591 forward @7 unknown #
vertex $-1 -1 $-1 $587 $592 #
straight-curve $-1 -1 $-1 -1.3350386057603929 5.9416084124494226 1 0 0 -1 I I #
vertex $-1 -1 $-1 $587 $593 #
straight-curve $-1 -1 $-1 -0.33503860576039279 5.9416084124494226 1 0 0 -1 I I #
model_id-kcp-attrib $-1 -1 $-1 $-1 $388 1 1021499257 1021499257 -127533055 19 #
cone-surface $-1 -1 $-1 -0.83503860576039279 5.9416084124494226 1 0 0 -1 -0.5 0 0 1 I I 0 1 0.5 forward I I I I #
coedge $-1 -1 $-1 $594 $595 $392 $513 reversed $596 $-1 #
edge $-1 -1 $-1 $399 -1.5777218104420239e-032 $397 3.1415926535897931 $392 $597 forward @7 unknown #
model_id-kcp-attrib $-1 -1 $-1 $-1 $393 1 1021499257 1021499257 -127533055 17 #
cone-surface $-1 -1 $-1 0 0 2 0 0 1 2.5 0 0 1 I I 0 1 2.5 forward I I I I #
coedge $-1 -1 $-1 $598 $395 $595 $599 reversed $518 $-1 #
coedge $-1 -1 $-1 $395 $598 $594 $600 forward $518 $-1 #
loop $-1 -1 $-1 $-1 $517 $601 #
ellipse-curve $-1 -1 $-1 0 -2.2204460492503131e-016 1.4000000000000001 0 0 1 -2.4999999999999996 5.2819619338062562e-016 0 1 I I #
point $-1 -1 $-1 -2.5 3.0615158845559431e-016 1.3999999999999999 #
point $-1 -1 $-1 2.5 0 1.3999999999999999 #
attrib_edge_convexity-kcp-attrib $-1 -1 $602 $-1 $404 1 #
straight-curve $-1 -1 $-1 -0.51279431676248177 -4.9736346858908025 0 0.13917310096006544 -0.99026806874157036 0 I I #
coedge $-1 -1 $-1 $406 $405 $480 $563 reversed $350 $-1 #
convexity-sys-attrib $-1 -1 $-1 $407 $272 #
point $-1 -1 $-1 -0.35328307672949155 -6.108616133601501 0 #
attrib_edge_convexity-kcp-attrib $-1 -1 $603 $-1 $411 3 #
vertex $-1 -1 $-1 $481 $604 #
straight-curve $-1 -1 $-1 2.0233602882502773 -5.7746006912973442 0 0 0 1 I I #
convexity-sys-attrib $-1 -1 $-1 $414 $280 #
point $-1 -1 $-1 1.8638490482172871 -4.6396192435866448 1 #
convexity-sys-attrib $-1 -1 $-1 $419 $285 #
point $-1 -1 $-1 -0.51279431676248177 -4.9736346858908025 0 #
straight-curve $-1 -1 $-1 -5 7.1416084124494228 0 0 0 -1 I I #
point $-1 -1 $-1 -5 -7.1416084124494228 -1 #
straight-curve $-1 -1 $-1 -5 0 -1 0 1 0 I I #
point $-1 -1 $-1 -5 7.1416084124494228 -1 #
loop $-1 -1 $-1 $458 $605 $442 #
plane-surface $-1 -1 $-1 -1.1102230246251565e-016 0 0 0 0 1 1 0 0 forward_v I I I I #
coedge $-1 -1 $-1 $540 $540 $446 $542 reversed $443 $-1 #
coedge $-1 -1 $-1 $541 $541 $605 $606 reversed $445 $-1 #
edge $-1 -1 $-1 $607 -3.1415926535897931 $607 3.1415926535897931 $446 $608 forward @7 unknown #
coedge $-1 -1 $-1 $457 $452 $448 $544 forward $458 $-1 #
edge $609 -1 $-1 $454 -7.1416084124494228 $545 7.1416084124494228 $448 $610 forward @7 unknown #
vertex $-1 -1 $-1 $462 $611 #
straight-curve $-1 -1 $-1 5 -7.1416084124494228 0 0 0 1 I I #
point $-1 -1 $-1 5 -7.1416084124494228 1 #
convexity-sys-attrib $-1 -1 $-1 $-1 $453 #
straight-curve $-1 -1 $-1 -4.4408920985006262e-016 7.1416084124494228 0 1 0 0 I I #
point $-1 -1 $-1 5 7.1416084124494228 0 #
convexity-sys-attrib $-1 -1 $-1 $-1 $462 #
straight-curve $-1 -1 $-1 -4.4408920985006262e-016 -7.1416084124494228 0 -1 0 0 I I #
coedge $-1 -1 $-1 $480 $470 $468 $554 forward $240 $-1 #
edge $612 -1 $-1 $473 -8.9498604648381748e-016 $556 1.1461355601953616 $553 $613 forward @7 unknown #
attrib_edge_convexity-kcp-attrib $-1 -1 $614 $-1 $469 3 #
vertex $-1 -1 $-1 $563 $615 #
straight-curve $-1 -1 $-1 -0.35328307672949155 -6.108616133601501 0 0 0 1 I I #
attrib_edge_convexity-kcp-attrib $-1 -1 $616 $-1 $471 1 #
ellipse-curve $-1 -1 $-1 4.4408920985006262e-016 2.2204460492503131e-016 1 0 0 1 -1.8638490482172874 4.6396192435866448 0 1 I I #
convexity-sys-attrib $-1 -1 $-1 $472 $355 #
point $-1 -1 $-1 -0.51279431676248188 -4.9736346858908016 1 #
convexity-sys-attrib $-1 -1 $-1 $475 $357 #
edge $617 -1 $-1 $556 0 $528 3.1415926535897931 $480 $618 forward @7 unknown #
attrib_edge_convexity-kcp-attrib $-1 -1 $619 $-1 $481 1 #
straight-curve $-1 -1 $-1 2.0233602882502773 -5.7746006912973442 1 -0.13917310096006544 0.99026806874157036 0 I I #
convexity-sys-attrib $-1 -1 $-1 $482 $366 #
loop $-1 -1 $-1 $-1 $578 $368 #
coedge $-1 -1 $-1 $485 $485 $620 $621 reversed $367 $-1 #
coedge $-1 -1 $-1 $622 $623 $485 $570 forward $573 $-1 #
edge $624 -1 $-1 $625 0 $626 3.1415926535897931 $485 $627 forward @7 unknown #
model_id-kcp-attrib $-1 -1 $-1 $-1 $487 1 1021499257 1021499257 -127533055 12 #
face $628 -1 $-1 $629 $630 $9 $-1 $631 forward single #
loop $-1 -1 $-1 $-1 $622 $487 #
cone-surface $-1 -1 $-1 0 0 1 0 0 1 4.1999999999999993 0 0 1 I I 0 1 4.1999999999999993 forward I I I I #
coedge $-1 -1 $-1 $490 $489 $632 $633 reversed $491 $-1 #
face $634 -1 $-1 $-1 $491 $9 $-1 $635 reversed single #
convexity-sys-attrib $-1 -1 $-1 $492 $372 #
coedge $-1 -1 $-1 $632 $632 $494 $579 forward $567 $-1 #
edge $636 -1 $-1 $582 0 $580 3.1415926535897931 $578 $637 forward @7 unknown #
vertex $-1 -1 $-1 $633 $638 #
straight-curve $-1 -1 $-1 0.33503860576039279 -5.9416084124494226 1 0 0 -1 I I #
vertex $-1 -1 $-1 $633 $639 #
straight-curve $-1 -1 $-1 1.3350386057603929 -5.9416084124494226 1 0 0 -1 I I #
model_id-kcp-attrib $-1 -1 $-1 $-1 $497 1 1021499257 1021499257 -127533055 21 #
cone-surface $-1 -1 $-1 0.83503860576039279 -5.9416084124494226 1 0 0 -1 -0.5 0 0 1 I I 0 1 0.5 forward I I I I #
coedge $-1 -1 $-1 $504 $504 $501 $587 forward $484 $-1 #
edge $640 -1 $-1 $506 0 $508 3.1415926535897931 $586 $641 forward @7 unknown #
model_id-kcp-attrib $-1 -1 $-1 $-1 $502 1 1021499257 1021499257 -127533055 20 #
cone-surface $-1 -1 $-1 -0.83503860576039279 5.9416084124494226 1 0 0 -1 -0.5 0 0 1 I I 0 1 0.5 forward I I I I #
attrib_edge_convexity-kcp-attrib $-1 -1 $642 $-1 $505 1 #
ellipse-curve $-1 -1 $-1 -0.83503860576039279 5.9416084124494226 1 0 0 -1 0.5 0 0 1 I I #
point $-1 -1 $-1 -1.3350386057603929 5.9416084124494226 1 #
point $-1 -1 $-1 -0.33503860576039279 5.9416084124494226 1 #
coedge $-1 -1 $-1 $643 $512 $517 $600 reversed $596 $-1 #
coedge $-1 -1 $-1 $512 $643 $516 $599 forward $596 $-1 #
loop $-1 -1 $-1 $-1 $595 $644 #
ellipse-curve $-1 -1 $-1 -1.1102230246251565e-016 -2.2204460492503131e-016 1.4000000000000001 0 0 1 2.4999999999999996 2.2204460492503131e-016 0 1 I I #
coedge $-1 -1 $-1 $517 $516 $645 $646 forward $518 $-1 #
edge $-1 -1 $-1 $647 -3.5763060738465107e-031 $397 0.8485281374238568 $595 $648 forward @7 unknown #
edge $-1 -1 $-1 $649 3.088762065825623e-028 $399 0.8485281374238568 $594 $650 forward @7 unknown #
face $651 -1 $-1 $644 $518 $9 $-1 $652 reversed single #
convexity-sys-attrib $-1 -1 $-1 $522 $404 #
convexity-sys-attrib $-1 -1 $-1 $527 $411 #
point $-1 -1 $-1 2.0233602882502773 -5.7746006912973442 1 #
coedge $-1 -1 $-1 $605 $605 $541 $606 forward $538 $-1 #
edge $653 -1 $-1 $654 0 $654 6.2831853071795862 $541 $655 forward @7 unknown #
vertex $-1 -1 $-1 $542 $656 #
ellipse-curve $-1 -1 $-1 -4.4408920985006262e-016 0 1 0 0 1 4.1999999999999993 0 0 1 I I #
convexity-sys-attrib $-1 -1 $-1 $-1 $544 #
straight-curve $-1 -1 $-1 5 0 0 0 -1 0 I I #
point $-1 -1 $-1 5 -7.1416084124494228 0 #
attrib_edge_convexity-kcp-attrib $-1 -1 $657 $-1 $554 1 #
straight-curve $-1 -1 $-1 -0.51279431676248177 -4.9736346858908025 1 0.13917310096006544 -0.99026806874157036 0 I I #
convexity-sys-attrib $-1 -1 $-1 $555 $469 #
point $-1 -1 $-1 -0.35328307672949155 -6.108616133601501 1 #
convexity-sys-attrib $-1 -1 $-1 $558 $471 #
attrib_edge_convexity-kcp-attrib $-1 -1 $658 $-1 $563 1 #
ellipse-curve $-1 -1 $-1 0.8350386057603929 -5.9416084124494226 1 0 0 1 -1.1883216824898843 -0.1670077211520784 0 1 I I #
convexity-sys-attrib $-1 -1 $-1 $564 $481 #
coedge $-1 -1 $-1 $659 $660 $568 $621 forward $630 $-1 #
edge $661 -1 $-1 $626 0 $625 3.1415926535897931 $568 $662 forward @7 unknown #
coedge $-1 -1 $-1 $663 $569 $660 $664 forward $573 $-1 #
coedge $-1 -1 $-1 $569 $663 $659 $665 reversed $573 $-1 #
attrib_edge_convexity-kcp-attrib $-1 -1 $666 $-1 $570 2 #
vertex $-1 -1 $-1 $621 $667 #
vertex $-1 -1 $-1 $621 $668 #
ellipse-curve $-1 -1 $-1 0 0 1 0 0 1 -4.1999999999999993 0 0 1 I I #
model_id-kcp-attrib $-1 -1 $-1 $-1 $572 1 1021499257 1021499257 -127533055 13 #
face $669 -1 $-1 $601 $670 $9 $-1 $671 forward single #
loop $-1 -1 $-1 $-1 $659 $572 #
cone-surface $-1 -1 $-1 0 0 1 0 0 1 4.1999999999999993 0 0 1 I I 0 1 4.1999999999999993 forward I I I I #
coedge $-1 -1 $-1 $578 $578 $575 $633 forward $567 $-1 #
edge $672 -1 $-1 $580 0 $582 3.1415926535897931 $632 $673 forward @7 unknown #
model_id-kcp-attrib $-1 -1 $-1 $-1 $576 1 1021499257 1021499257 -127533055 22 #
cone-surface $-1 -1 $-1 0.83503860576039279 -5.9416084124494226 1 0 0 -1 -0.5 0 0 1 I I 0 1 0.5 forward I I I I #
attrib_edge_convexity-kcp-attrib $-1 -1 $674 $-1 $579 1 #
ellipse-curve $-1 -1 $-1 0.83503860576039279 -5.9416084124494226 1 0 0 -1 0.50000000000000011 0 0 1 I I #
point $-1 -1 $-1 0.33503860576039279 -5.9416084124494226 1 #
point $-1 -1 $-1 1.3350386057603929 -5.9416084124494226 1 #
attrib_edge_convexity-kcp-attrib $-1 -1 $675 $-1 $587 1 #
ellipse-curve $-1 -1 $-1 -0.83503860576039279 5.9416084124494226 1 0 0 -1 -0.50000000000000011 0 0 1 I I #
convexity-sys-attrib $-1 -1 $-1 $590 $505 #
coedge $-1 -1 $-1 $595 $594 $676 $677 forward $596 $-1 #
face $678 -1 $-1 $393 $596 $9 $-1 $679 reversed single #
coedge $-1 -1 $-1 $676 $676 $598 $646 reversed $680 $-1 #
edge $-1 -1 $-1 $647 -1.3322676295501877e-015 $649 3.1415926535897931 $645 $681 forward @7 unknown #
vertex $-1 -1 $-1 $677 $682 #
straight-curve $-1 -1 $-1 -3.0999999999999996 3.7962796968493683e-016 1.9999999999999998 0.70710678118654768 -8.659274570719348e-017 -0.70710678118654724 I I #
vertex $-1 -1 $-1 $677 $683 #
straight-curve $-1 -1 $-1 3.0999999999999996 -1.1772668343651425e-014 1.9999999999999998 -0.70710678118654768 2.6236720305565052e-014 -0.70710678118654724 I I #
model_id-kcp-attrib $-1 -1 $-1 $-1 $601 1 1021499257 1021499257 -127533055 15 #
cone-surface $-1 -1 $-1 0 0 -0.099999999999999867 0 0 -1 0.99999999999999989 0 0 1 I I -0.70710678118654746 0.70710678118654757 0.99999999999999989 forward I I I I #
convexity-sys-attrib $-1 -1 $-1 $-1 $606 #
vertex $-1 -1 $-1 $606 $684 #
ellipse-curve $-1 -1 $-1 -4.4408920985006262e-016 0 0 0 0 1 4.1999999999999993 0 0 1 I I #
point $-1 -1 $-1 -4.1999999999999993 0 1 #
convexity-sys-attrib $-1 -1 $-1 $612 $554 #
convexity-sys-attrib $-1 -1 $-1 $617 $563 #
coedge $-1 -1 $-1 $685 $620 $623 $665 forward $630 $-1 #
coedge $-1 -1 $-1 $620 $685 $622 $664 reversed $630 $-1 #
attrib_edge_convexity-kcp-attrib $-1 -1 $686 $-1 $621 2 #
ellipse-curve $-1 -1 $-1 0 0 1 0 0 1 4.1999999999999993 0 0 1 I I #
coedge $-1 -1 $-1 $623 $622 $687 $688 reversed $573 $-1 #
edge $-1 -1 $-1 $626 0 $689 1 $660 $690 forward @7 unknown #
edge $-1 -1 $-1 $625 0 $691 1 $659 $692 forward @7 unknown #
convexity-sys-attrib $-1 -1 $-1 $624 $570 #
point $-1 -1 $-1 -4.1999999999999993 0 1 #
point $-1 -1 $-1 4.1999999999999993 0 1 #
model_id-kcp-attrib $-1 -1 $-1 $-1 $629 1 1021499257 1021499257 -127533055 14 #
loop $-1 -1 $-1 $680 $687 $629 #
plane-surface $-1 -1 $-1 0 0 2 0 0 1 1 0 0 forward_v I I I I #
attrib_edge_convexity-kcp-attrib $-1 -1 $693 $-1 $633 1 #
ellipse-curve $-1 -1 $-1 0.83503860576039279 -5.9416084124494226 1 0 0 -1 -0.5 0 0 1 I I #
convexity-sys-attrib $-1 -1 $-1 $636 $579 #
convexity-sys-attrib $-1 -1 $-1 $640 $587 #
coedge $-1 -1 $-1 $645 $645 $643 $677 reversed $680 $-1 #
edge $-1 -1 $-1 $649 0 $647 3.1415926535897918 $676 $694 forward @7 unknown #
model_id-kcp-attrib $-1 -1 $-1 $-1 $644 1 1021499257 1021499257 -127533055 16 #
cone-surface $-1 -1 $-1 0 0 -0.099999999999999867 0 0 -1 0.99999999999999989 0 0 1 I I -0.70710678118654746 0.70710678118654757 0.99999999999999989 forward I I I I #
loop $-1 -1 $-1 $-1 $645 $629 #
ellipse-curve $-1 -1 $-1 1.1102230246251565e-016 -2.2204460492503131e-016 2 -7.1627291911300432e-017 1.390199262471351e-032 1 -3.0999999999999996 6.0167257460996814e-016 -2.2204460492503131e-016 1 I I #
point $-1 -1 $-1 -3.0999999999999996 4.5096576212905177e-015 1.9999999999999998 #
point $-1 -1 $-1 3.0999999999999996 0 1.9999999999999998 #
point $-1 -1 $-1 4.1999999999999993 0 0 #
coedge $-1 -1 $-1 $660 $659 $695 $696 reversed $630 $-1 #
convexity-sys-attrib $-1 -1 $-1 $661 $621 #
coedge $-1 -1 $-1 $695 $695 $663 $688 forward $670 $-1 #
edge $-1 -1 $-1 $691 0 $689 3.1415926535897931 $687 $697 forward @7 unknown #
vertex $-1 -1 $-1 $696 $698 #
straight-curve $-1 -1 $-1 4.1999999999999993 0 1 0 0 1 I I #
vertex $-1 -1 $-1 $696 $699 #
straight-curve $-1 -1 $-1 -4.1999999999999993 5.1433466860539841e-016 1 0 0 1 I I #
convexity-sys-attrib $-1 -1 $-1 $672 $633 #
ellipse-curve $-1 -1 $-1 2.2204460492503131e-016 -1.1102230246251565e-016 2 7.1627291911300432e-017 2.5652344732733221e-033 1 3.0999999999999996 1.1102230246251565e-016 -2.2204460492503131e-016 1 I I #
coedge $-1 -1 $-1 $687 $687 $685 $696 forward $670 $-1 #
edge $-1 -1 $-1 $689 0 $691 3.1415926535897931 $695 $700 forward @7 unknown #
ellipse-curve $-1 -1 $-1 0 0 2 0 0 1 -4.1999999999999993 0 0 1 I I #
point $-1 -1 $-1 4.1999999999999993 0 2 #
point $-1 -1 $-1 -4.1999999999999993 0 2 #
ellipse-curve $-1 -1 $-1 0 0 2 0 0 1 4.1999999999999993 0 0 1 I I #
End-of-ACIS-data 