700 0 2 0           
24 FBMach with ACIS - 7.0.3 13 ACIS 7.0.3 NT 24 Wed May 15 17:47:35 2002 
1 9.9999999999999995e-007 1e-010 
body $2 -1 $-1 $3 $-1 $4 #
bdycol-kcp $-1 -1 1 3 $5 $6 $7 #
model_id-kcp-attrib $-1 -1 $-1 $-1 $0 1 1021499254 1021499254 1993998337 1 #
lump $-1 -1 $-1 $-1 $8 $0 #
transform $-1 -1 1 0 0 0 1 0 0 0 1 0 0 0 1 rotate no_reflect no_shear #
body $9 -1 $-1 $10 $-1 $11 #
body $12 -1 $-1 $13 $-1 $14 #
body $15 -1 $-1 $16 $-1 $17 #
shell $-1 -1 $-1 $-1 $-1 $18 $-1 $3 #
rgb_color-st-attrib $-1 -1 $19 $-1 $5 1 0.5 1 #
lump $-1 -1 $-1 $-1 $20 $5 #
transform $-1 -1 1 0 0 0 1 0 0 0 1 0.5 -0.5 -32 1 no_rotate no_reflect no_shear #
rgb_color-st-attrib $-1 -1 $21 $-1 $6 0.5 1 1 #
lump $-1 -1 $-1 $-1 $22 $6 #
transform $-1 -1 1 0 0 0 1 0 0 0 1 0 0 0 1 no_rotate no_reflect no_shear #
model_id-kcp-attrib $-1 -1 $-1 $-1 $7 1 1021499254 1021499254 1993998338 1 #
lump $-1 -1 $-1 $-1 $23 $7 #
transform $-1 -1 1 0 0 0 1 0 0 0 1 0.5 -0.5 -32 1 no_rotate no_reflect no_shear #
face $24 -1 $-1 $25 $26 $8 $-1 $27 reversed single #
model_id-kcp-attrib $-1 -1 $-1 $9 $5 1 1021499254 1021499254 1983381508 1 #
shell $-1 -1 $-1 $-1 $-1 $28 $-1 $10 #
model_id-kcp-attrib $-1 -1 $-1 $12 $6 1 1021499254 1021499254 1985740803 1 #
shell $-1 -1 $-1 $-1 $-1 $29 $-1 $13 #
shell $-1 -1 $-1 $-1 $-1 $30 $-1 $16 #
model_id-kcp-attrib $-1 -1 $-1 $-1 $18 1 1021499254 1021499254 1993998337 2 #
face $31 -1 $-1 $32 $33 $8 $-1 $34 reversed single #
loop $-1 -1 $-1 $35 $36 $18 #
plane-surface $-1 -1 $-1 0 0 -18 0 0 -1 -1 0 0 forward_v I I I I #
face $-1 -1 $-1 $37 $38 $20 $-1 $39 forward single #
face $-1 -1 $-1 $40 $41 $22 $-1 $42 forward single #
face $43 -1 $-1 $44 $45 $23 $-1 $46 forward single #
model_id-kcp-attrib $-1 -1 $-1 $-1 $25 1 1021499254 1021499254 1993998337 3 #
face $47 -1 $-1 $48 $49 $8 $-1 $50 reversed single #
loop $-1 -1 $-1 $-1 $51 $25 #
cone-surface $-1 -1 $-1 0 0 -18 0 0 -1 -3.5 0 0 1 I I 0 1 3.5 forward I I I I #
loop $-1 -1 $-1 $-1 $52 $18 #
coedge $-1 -1 $-1 $53 $53 $54 $55 forward $26 $-1 #
face $-1 -1 $-1 $56 $57 $20 $-1 $58 forward single #
loop $-1 -1 $-1 $-1 $59 $28 #
plane-surface $-1 -1 $-1 -5.5 11.5 12 0 -1 0 0 0 -1 forward_v I I I I #
face $-1 -1 $-1 $60 $61 $22 $-1 $62 reversed single #
loop $-1 -1 $-1 $63 $64 $29 #
cone-surface $-1 -1 $-1 0 0 -18 0 0 -1 3.5 0 0 1 I I 0 1 3.5 forward I I I I #
model_id-kcp-attrib $-1 -1 $-1 $-1 $30 1 1021499254 1021499254 1993998338 2 #
face $65 -1 $-1 $66 $67 $23 $-1 $68 reversed single #
loop $-1 -1 $-1 $-1 $69 $30 #
plane-surface $-1 -1 $-1 0 0 14 0 0 1 1 0 0 forward_v I I I I #
model_id-kcp-attrib $-1 -1 $-1 $-1 $32 1 1021499254 1021499254 1993998337 4 #
face $70 -1 $-1 $71 $72 $8 $-1 $73 forward single #
loop $-1 -1 $-1 $-1 $74 $32 #
cone-surface $-1 -1 $-1 0 0 -18 0 0 -1 -3.5 0 0 1 I I 0 1 3.5 forward I I I I #
coedge $-1 -1 $-1 $75 $54 $76 $77 forward $33 $-1 #
coedge $-1 -1 $-1 $78 $79 $80 $81 reversed $35 $-1 #
coedge $-1 -1 $-1 $36 $36 $82 $83 forward $26 $-1 #
coedge $-1 -1 $-1 $51 $84 $36 $55 reversed $33 $-1 #
edge $85 -1 $-1 $86 0 $87 3.1415926535897931 $36 $88 forward @7 unknown #
face $-1 -1 $-1 $89 $90 $20 $-1 $91 forward single #
loop $-1 -1 $-1 $-1 $92 $37 #
plane-surface $-1 -1 $-1 -5.5 11.5 14 0 0 1 1 0 0 forward_v I I I I #
coedge $-1 -1 $-1 $93 $94 $95 $96 forward $38 $-1 #
face $-1 -1 $-1 $-1 $97 $22 $-1 $98 forward single #
loop $-1 -1 $-1 $-1 $99 $40 #
plane-surface $-1 -1 $-1 0 0 -20 0 0 1 1 0 0 forward_v I I I I #
loop $-1 -1 $-1 $-1 $100 $29 #
coedge $-1 -1 $-1 $64 $64 $99 $101 forward $41 $-1 #
model_id-kcp-attrib $-1 -1 $-1 $-1 $44 1 1021499254 1021499254 1993998338 6 #
face $-1 -1 $-1 $102 $103 $23 $-1 $104 reversed single #
loop $-1 -1 $-1 $-1 $105 $44 #
plane-surface $-1 -1 $-1 0 0 -14 0 0 1 1 0 0 forward_v I I I I #
coedge $-1 -1 $-1 $106 $107 $108 $109 forward $45 $-1 #
model_id-kcp-attrib $-1 -1 $-1 $-1 $48 1 1021499254 1021499254 1993998337 5 #
face $110 -1 $-1 $111 $112 $8 $-1 $113 forward single #
loop $-1 -1 $-1 $114 $115 $48 #
plane-surface $-1 -1 $-1 0 0 -20 0 0 -1 -1 0 0 forward_v I I I I #
coedge $-1 -1 $-1 $116 $82 $84 $117 forward $49 $-1 #
coedge $-1 -1 $-1 $84 $51 $115 $118 forward $33 $-1 #
coedge $-1 -1 $-1 $82 $116 $51 $77 reversed $49 $-1 #
edge $-1 -1 $-1 $86 0 $119 2 $76 $120 forward @7 unknown #
coedge $-1 -1 $-1 $121 $52 $122 $123 reversed $35 $-1 #
coedge $-1 -1 $-1 $52 $124 $125 $126 reversed $35 $-1 #
coedge $-1 -1 $-1 $127 $128 $52 $81 forward $129 $-1 #
edge $130 -1 $-1 $131 0 $132 22 $52 $133 forward @7 unknown #
coedge $-1 -1 $-1 $74 $76 $53 $83 reversed $49 $-1 #
edge $134 -1 $-1 $87 0 $86 3.1415926535897931 $53 $135 forward @7 unknown #
coedge $-1 -1 $-1 $54 $75 $74 $117 reversed $33 $-1 #
attrib_edge_convexity-kcp-attrib $-1 -1 $136 $-1 $55 1 #
vertex $-1 -1 $-1 $83 $137 #
vertex $-1 -1 $-1 $83 $138 #
ellipse-curve $-1 -1 $-1 0 0 -18 0 0 -1 3.5 0 0 1 I I #
face $-1 -1 $-1 $139 $140 $20 $-1 $141 forward single #
loop $-1 -1 $-1 $-1 $142 $56 #
plane-surface $-1 -1 $-1 -5.5 12.5 14 0 1 0 0 0 1 forward_v I I I I #
coedge $-1 -1 $-1 $143 $144 $145 $146 forward $57 $-1 #
coedge $-1 -1 $-1 $147 $59 $144 $148 reversed $38 $-1 #
coedge $-1 -1 $-1 $59 $147 $149 $150 forward $38 $-1 #
coedge $-1 -1 $-1 $151 $145 $59 $96 reversed $152 $-1 #
edge $-1 -1 $-1 $153 5 $154 7 $59 $155 forward @7 unknown #
loop $-1 -1 $-1 $-1 $156 $60 #
plane-surface $-1 -1 $-1 0 0 -18 0 0 1 1 0 0 forward_v I I I I #
coedge $-1 -1 $-1 $99 $99 $64 $101 reversed $61 $-1 #
coedge $-1 -1 $-1 $100 $100 $156 $157 forward $63 $-1 #
edge $-1 -1 $-1 $158 0 $158 6.2831853071795862 $64 $159 forward @7 unknown #
face $160 -1 $-1 $161 $162 $23 $-1 $163 reversed single #
loop $-1 -1 $-1 $-1 $164 $66 #
plane-surface $-1 -1 $-1 0 -12.5 0 0 1 0 0 0 1 forward_v I I I I #
coedge $-1 -1 $-1 $165 $166 $167 $168 forward $67 $-1 #
coedge $-1 -1 $-1 $169 $69 $170 $171 forward $45 $-1 #
coedge $-1 -1 $-1 $69 $169 $172 $173 forward $45 $-1 #
coedge $-1 -1 $-1 $174 $175 $69 $109 reversed $176 $-1 #
edge $-1 -1 $-1 $177 -12.5 $178 12.5 $108 $179 forward @7 unknown #
model_id-kcp-attrib $-1 -1 $-1 $-1 $71 1 1021499254 1021499254 1993998337 6 #
face $180 -1 $-1 $181 $182 $8 $-1 $183 forward single #
loop $-1 -1 $-1 $-1 $184 $71 #
plane-surface $-1 -1 $-1 -5 12 -18 1 0 0 0 -1 0 forward_v I I I I #
loop $-1 -1 $-1 $-1 $185 $48 #
coedge $-1 -1 $-1 $186 $186 $75 $118 reversed $72 $-1 #
coedge $-1 -1 $-1 $76 $74 $186 $187 forward $49 $-1 #
edge $-1 -1 $-1 $87 0 $188 2 $74 $189 forward @7 unknown #
edge $190 -1 $-1 $119 0 $188 3.1415926535897931 $115 $191 forward @7 unknown #
vertex $-1 -1 $-1 $187 $192 #
straight-curve $-1 -1 $-1 3.5 4.2861222383783204e-016 -18 0 0 -1 I I #
coedge $-1 -1 $-1 $193 $78 $194 $195 reversed $35 $-1 #
coedge $-1 -1 $-1 $196 $197 $78 $123 forward $182 $-1 #
edge $198 -1 $-1 $199 0 $131 12 $78 $200 forward @7 unknown #
coedge $-1 -1 $-1 $79 $201 $202 $203 reversed $35 $-1 #
coedge $-1 -1 $-1 $204 $205 $79 $126 forward $206 $-1 #
edge $207 -1 $-1 $132 0 $208 4 $79 $209 forward @7 unknown #
coedge $-1 -1 $-1 $210 $80 $205 $211 forward $129 $-1 #
coedge $-1 -1 $-1 $80 $210 $196 $212 reversed $129 $-1 #
loop $-1 -1 $-1 $-1 $127 $181 #
attrib_edge_convexity-kcp-attrib $-1 -1 $213 $-1 $81 1 #
vertex $-1 -1 $-1 $123 $214 #
vertex $-1 -1 $-1 $126 $215 #
straight-curve $-1 -1 $-1 7 11 -18 0 -1 0 I I #
attrib_edge_convexity-kcp-attrib $-1 -1 $216 $-1 $83 1 #
ellipse-curve $-1 -1 $-1 0 0 -18 0 0 -1 -3.5 0 0 1 I I #
convexity-sys-attrib $-1 -1 $-1 $85 $55 #
point $-1 -1 $-1 3.5 0 -18 #
point $-1 -1 $-1 -3.5 0 -18 #
face $-1 -1 $-1 $217 $218 $20 $-1 $219 forward single #
loop $-1 -1 $-1 $-1 $220 $89 #
plane-surface $-1 -1 $-1 -5.5 12.5 -14 0 0 -1 -1 0 0 forward_v I I I I #
coedge $-1 -1 $-1 $221 $222 $223 $224 forward $90 $-1 #
coedge $-1 -1 $-1 $225 $92 $222 $226 reversed $57 $-1 #
coedge $-1 -1 $-1 $92 $225 $93 $148 forward $57 $-1 #
coedge $-1 -1 $-1 $95 $223 $92 $146 reversed $152 $-1 #
edge $-1 -1 $-1 $154 11 $227 12 $92 $228 forward @7 unknown #
coedge $-1 -1 $-1 $94 $93 $229 $230 reversed $38 $-1 #
edge $-1 -1 $-1 $231 0 $154 4 $144 $232 forward @7 unknown #
coedge $-1 -1 $-1 $233 $234 $94 $150 reversed $235 $-1 #
edge $236 -1 $-1 $237 0 $153 4 $94 $238 forward @7 unknown #
coedge $-1 -1 $-1 $239 $95 $234 $240 reversed $152 $-1 #
loop $-1 -1 $-1 $-1 $95 $241 #
vertex $-1 -1 $-1 $150 $242 #
vertex $-1 -1 $-1 $148 $243 #
straight-curve $-1 -1 $-1 -1.5 11.5 7 0 0 1 I I #
coedge $-1 -1 $-1 $156 $156 $100 $157 reversed $97 $-1 #
edge $-1 -1 $-1 $244 0 $244 6.2831853071795862 $100 $245 forward @7 unknown #
vertex $-1 -1 $-1 $101 $246 #
ellipse-curve $-1 -1 $-1 0 0 -20 0 0 1 -3.5 0 0 1 I I #
model_id-kcp-attrib $-1 -1 $-1 $-1 $102 1 1021499254 1021499254 1993998338 4 #
face $247 -1 $-1 $248 $249 $23 $-1 $250 reversed single #
loop $-1 -1 $-1 $-1 $251 $102 #
plane-surface $-1 -1 $-1 -6.5 0 0 1 0 0 0 0 -1 forward_v I I I I #
coedge $-1 -1 $-1 $252 $172 $253 $254 forward $103 $-1 #
coedge $-1 -1 $-1 $255 $105 $252 $256 forward $67 $-1 #
coedge $-1 -1 $-1 $105 $255 $257 $258 forward $67 $-1 #
coedge $-1 -1 $-1 $175 $174 $105 $168 reversed $176 $-1 #
edge $-1 -1 $-1 $259 -12.5 $260 12.5 $167 $261 forward @7 unknown #
coedge $-1 -1 $-1 $107 $106 $262 $263 forward $45 $-1 #
coedge $-1 -1 $-1 $264 $265 $106 $171 reversed $249 $-1 #
edge $-1 -1 $-1 $178 -6.5 $266 6.5 $170 $267 forward @7 unknown #
coedge $-1 -1 $-1 $164 $268 $107 $173 reversed $103 $-1 #
edge $-1 -1 $-1 $269 -6.5 $177 6.5 $172 $270 forward @7 unknown #
coedge $-1 -1 $-1 $167 $108 $268 $271 forward $176 $-1 #
coedge $-1 -1 $-1 $108 $167 $264 $272 reversed $176 $-1 #
loop $-1 -1 $-1 $-1 $174 $248 #
vertex $-1 -1 $-1 $109 $273 #
vertex $-1 -1 $-1 $109 $274 #
straight-curve $-1 -1 $-1 6.5 0 14 0 1 0 I I #
model_id-kcp-attrib $-1 -1 $-1 $-1 $111 1 1021499254 1021499254 1993998337 7 #
face $275 -1 $-1 $276 $129 $8 $-1 $277 forward single #
loop $-1 -1 $-1 $-1 $196 $111 #
plane-surface $-1 -1 $-1 -6 11 -18 0 1 0 1 0 0 forward_v I I I I #
coedge $-1 -1 $-1 $278 $194 $197 $279 forward $112 $-1 #
coedge $-1 -1 $-1 $280 $281 $278 $282 forward $114 $-1 #
coedge $-1 -1 $-1 $115 $115 $116 $187 reversed $72 $-1 #
edge $283 -1 $-1 $188 0 $119 3.1415926535897931 $186 $284 forward @7 unknown #
vertex $-1 -1 $-1 $187 $285 #
straight-curve $-1 -1 $-1 -3.5 0 -18 0 0 -1 I I #
attrib_edge_convexity-kcp-attrib $-1 -1 $286 $-1 $118 1 #
ellipse-curve $-1 -1 $-1 2.2204460492503131e-016 -3.3306690738754696e-016 -20 0 0 -1 3.5 3.3306690738754696e-016 0 1 I I #
point $-1 -1 $-1 3.5 0 -20 #
coedge $-1 -1 $-1 $287 $121 $288 $289 reversed $35 $-1 #
coedge $-1 -1 $-1 $184 $290 $121 $195 forward $112 $-1 #
edge $291 -1 $-1 $292 0 $199 1 $121 $293 forward @7 unknown #
coedge $-1 -1 $-1 $294 $122 $128 $212 forward $182 $-1 #
coedge $-1 -1 $-1 $122 $294 $184 $279 reversed $182 $-1 #
attrib_edge_convexity-kcp-attrib $-1 -1 $295 $-1 $123 1 #
vertex $-1 -1 $-1 $195 $296 #
straight-curve $-1 -1 $-1 -5 11 -18 1 0 0 I I #
coedge $-1 -1 $-1 $124 $287 $297 $298 reversed $35 $-1 #
coedge $-1 -1 $-1 $299 $300 $124 $203 forward $301 $-1 #
edge $302 -1 $-1 $208 0 $303 3.1415926535897931 $124 $304 forward @7 unknown #
coedge $-1 -1 $-1 $305 $125 $300 $306 forward $206 $-1 #
coedge $-1 -1 $-1 $125 $305 $127 $211 reversed $206 $-1 #
loop $-1 -1 $-1 $-1 $305 $276 #
attrib_edge_convexity-kcp-attrib $-1 -1 $307 $-1 $126 1 #
vertex $-1 -1 $-1 $126 $308 #
straight-curve $-1 -1 $-1 7 -11 -18 -1 0 0 I I #
coedge $-1 -1 $-1 $128 $127 $309 $310 reversed $129 $-1 #
edge $311 -1 $-1 $132 0 $312 2 $127 $313 forward @7 unknown #
edge $314 -1 $-1 $131 0 $315 2 $128 $316 forward @7 unknown #
convexity-sys-attrib $-1 -1 $-1 $130 $81 #
point $-1 -1 $-1 7 11 -18 #
point $-1 -1 $-1 7 -11 -18 #
convexity-sys-attrib $-1 -1 $-1 $134 $83 #
face $-1 -1 $-1 $241 $235 $20 $-1 $317 forward single #
loop $-1 -1 $-1 $-1 $318 $139 #
plane-surface $-1 -1 $-1 -5.5 -12.5 -14 0 -1 0 0 0 -1 forward_v I I I I #
coedge $-1 -1 $-1 $319 $320 $321 $322 forward $140 $-1 #
coedge $-1 -1 $-1 $323 $142 $320 $324 reversed $90 $-1 #
coedge $-1 -1 $-1 $142 $323 $143 $226 forward $90 $-1 #
coedge $-1 -1 $-1 $145 $321 $142 $224 reversed $152 $-1 #
edge $-1 -1 $-1 $227 -14 $325 14 $142 $326 forward @7 unknown #
coedge $-1 -1 $-1 $144 $143 $327 $328 reversed $57 $-1 #
edge $-1 -1 $-1 $329 0 $227 4 $222 $330 forward @7 unknown #
vertex $-1 -1 $-1 $226 $331 #
straight-curve $-1 -1 $-1 -1.5 0.5 14 0 1 0 I I #
coedge $-1 -1 $-1 $327 $332 $147 $230 forward $333 $-1 #
edge $334 -1 $-1 $237 5 $231 7 $147 $335 forward @7 unknown #
vertex $-1 -1 $-1 $230 $336 #
straight-curve $-1 -1 $-1 -5.5 11.5 14 1 0 0 I I #
coedge $-1 -1 $-1 $337 $149 $332 $338 reversed $235 $-1 #
coedge $-1 -1 $-1 $149 $337 $151 $240 forward $235 $-1 #
loop $-1 -1 $-1 $-1 $234 $217 #
convexity-sys-attrib $-1 -1 $-1 $-1 $150 #
vertex $-1 -1 $-1 $338 $339 #
straight-curve $-1 -1 $-1 -5.5 11.5 12 1 0 0 I I #
coedge $-1 -1 $-1 $321 $151 $318 $340 reversed $152 $-1 #
edge $-1 -1 $-1 $341 -7.75 $153 16.25 $234 $342 forward @7 unknown #
face $-1 -1 $-1 $343 $152 $20 $-1 $344 forward single #
point $-1 -1 $-1 -1.5 11.5 12 #
point $-1 -1 $-1 -1.5 11.5 14 #
vertex $-1 -1 $-1 $157 $345 #
ellipse-curve $-1 -1 $-1 0 0 -18 0 0 -1 3.5 0 0 1 I I #
point $-1 -1 $-1 -3.5 0 -20 #
model_id-kcp-attrib $-1 -1 $-1 $-1 $161 1 1021499254 1021499254 1993998338 5 #
face $346 -1 $-1 $-1 $176 $23 $-1 $347 reversed single #
loop $-1 -1 $-1 $-1 $264 $161 #
plane-surface $-1 -1 $-1 0 12.5 0 0 -1 0 0 0 -1 forward_v I I I I #
coedge $-1 -1 $-1 $348 $262 $265 $349 forward $162 $-1 #
coedge $-1 -1 $-1 $268 $164 $165 $256 reversed $103 $-1 #
coedge $-1 -1 $-1 $262 $348 $164 $254 reversed $162 $-1 #
edge $-1 -1 $-1 $269 -14 $350 14 $253 $351 forward @7 unknown #
coedge $-1 -1 $-1 $166 $165 $348 $352 forward $67 $-1 #
edge $-1 -1 $-1 $260 -6.5 $350 6.5 $252 $353 forward @7 unknown #
coedge $-1 -1 $-1 $265 $264 $166 $258 reversed $249 $-1 #
edge $-1 -1 $-1 $354 -6.5 $259 6.5 $257 $355 forward @7 unknown #
vertex $-1 -1 $-1 $168 $356 #
vertex $-1 -1 $-1 $271 $357 #
straight-curve $-1 -1 $-1 6.5 0 -14 0 -1 0 I I #
coedge $-1 -1 $-1 $251 $253 $169 $263 reversed $162 $-1 #
edge $-1 -1 $-1 $266 -12.5 $269 12.5 $262 $358 forward @7 unknown #
coedge $-1 -1 $-1 $257 $170 $175 $272 forward $249 $-1 #
coedge $-1 -1 $-1 $170 $257 $251 $349 reversed $249 $-1 #
vertex $-1 -1 $-1 $171 $359 #
straight-curve $-1 -1 $-1 0 12.5 14 -1 0 0 I I #
coedge $-1 -1 $-1 $172 $252 $174 $271 reversed $103 $-1 #
vertex $-1 -1 $-1 $263 $360 #
straight-curve $-1 -1 $-1 0 -12.5 14 1 0 0 I I #
edge $-1 -1 $-1 $177 -14 $260 14 $174 $361 forward @7 unknown #
edge $-1 -1 $-1 $178 -14 $259 14 $175 $362 forward @7 unknown #
point $-1 -1 $-1 6.5 -12.5 14 #
point $-1 -1 $-1 6.5 12.5 14 #
model_id-kcp-attrib $-1 -1 $-1 $-1 $181 1 1021499254 1021499254 1993998337 8 #
face $363 -1 $-1 $364 $206 $8 $-1 $365 forward single #
plane-surface $-1 -1 $-1 7 11 -18 1 0 0 0 -1 0 forward_v I I I I #
coedge $-1 -1 $-1 $366 $184 $185 $282 reversed $112 $-1 #
edge $367 -1 $-1 $199 0 $368 2 $197 $369 forward @7 unknown #
coedge $-1 -1 $-1 $309 $185 $294 $370 forward $114 $-1 #
coedge $-1 -1 $-1 $185 $371 $372 $373 forward $114 $-1 #
edge $374 -1 $-1 $375 0 $368 22 $185 $376 forward @7 unknown #
attrib_edge_convexity-kcp-attrib $-1 -1 $377 $-1 $187 1 #
ellipse-curve $-1 -1 $-1 2.2204460492503131e-016 1.1102230246251565e-016 -20 0 0 -1 -3.5 -1.1102230246251565e-016 0 1 I I #
point $-1 -1 $-1 -3.5 0 -20 #
convexity-sys-attrib $-1 -1 $-1 $190 $118 #
coedge $-1 -1 $-1 $201 $193 $378 $379 forward $35 $-1 #
coedge $-1 -1 $-1 $380 $381 $193 $289 forward $382 $-1 #
edge $383 -1 $-1 $384 0 $292 1 $193 $385 forward @7 unknown #
coedge $-1 -1 $-1 $194 $386 $380 $387 reversed $112 $-1 #
attrib_edge_convexity-kcp-attrib $-1 -1 $388 $-1 $195 1 #
vertex $-1 -1 $-1 $289 $389 #
straight-curve $-1 -1 $-1 -5 12 -18 0 -1 0 I I #
coedge $-1 -1 $-1 $197 $196 $280 $370 reversed $182 $-1 #
convexity-sys-attrib $-1 -1 $-1 $198 $123 #
point $-1 -1 $-1 -5 11 -18 #
coedge $-1 -1 $-1 $390 $391 $201 $298 forward $392 $-1 #
edge $393 -1 $-1 $303 0 $394 5 $201 $395 forward @7 unknown #
coedge $-1 -1 $-1 $396 $202 $391 $397 forward $301 $-1 #
coedge $-1 -1 $-1 $202 $396 $204 $306 reversed $301 $-1 #
loop $-1 -1 $-1 $-1 $202 $364 #
attrib_edge_convexity-kcp-attrib $-1 -1 $398 $-1 $203 1 #
vertex $-1 -1 $-1 $203 $399 #
ellipse-curve $-1 -1 $-1 1 -11 -18 0 0 -1 2 0 0 1 I I #
coedge $-1 -1 $-1 $205 $204 $400 $401 reversed $206 $-1 #
edge $402 -1 $-1 $208 0 $403 2 $204 $404 forward @7 unknown #
convexity-sys-attrib $-1 -1 $-1 $207 $126 #
point $-1 -1 $-1 3 -11 -18 #
coedge $-1 -1 $-1 $400 $280 $210 $310 forward $114 $-1 #
edge $405 -1 $-1 $315 0 $312 22 $309 $406 forward @7 unknown #
attrib_edge_convexity-kcp-attrib $-1 -1 $407 $-1 $211 1 #
vertex $-1 -1 $-1 $401 $408 #
straight-curve $-1 -1 $-1 7 -11 -18 0 0 -1 I I #
attrib_edge_convexity-kcp-attrib $-1 -1 $409 $-1 $212 1 #
vertex $-1 -1 $-1 $310 $410 #
straight-curve $-1 -1 $-1 7 11 -18 0 0 -1 I I #
plane-surface $-1 -1 $-1 -5.5 -12.5 12 0 0 1 1 0 0 forward_v I I I I #
coedge $-1 -1 $-1 $411 $412 $239 $340 forward $218 $-1 #
coedge $-1 -1 $-1 $413 $220 $412 $414 reversed $140 $-1 #
coedge $-1 -1 $-1 $220 $413 $221 $324 forward $140 $-1 #
coedge $-1 -1 $-1 $223 $239 $220 $322 reversed $152 $-1 #
edge $-1 -1 $-1 $325 -12 $415 13 $220 $416 forward @7 unknown #
coedge $-1 -1 $-1 $222 $221 $417 $418 reversed $90 $-1 #
edge $-1 -1 $-1 $419 0 $325 4 $320 $420 forward @7 unknown #
vertex $-1 -1 $-1 $324 $421 #
straight-curve $-1 -1 $-1 -1.5 12.5 0 0 0 -1 I I #
coedge $-1 -1 $-1 $417 $229 $225 $328 forward $333 $-1 #
edge $422 -1 $-1 $231 11 $329 12 $225 $423 forward @7 unknown #
vertex $-1 -1 $-1 $328 $424 #
straight-curve $-1 -1 $-1 -5.5 12.5 14 1 0 0 I I #
point $-1 -1 $-1 -1.5 12.5 14 #
coedge $-1 -1 $-1 $229 $425 $233 $338 forward $333 $-1 #
loop $-1 -1 $-1 $-1 $332 $343 #
convexity-sys-attrib $-1 -1 $-1 $-1 $230 #
straight-curve $-1 -1 $-1 -5.5 11.5 7 0 0 1 I I #
point $-1 -1 $-1 -5.5 11.5 14 #
coedge $-1 -1 $-1 $234 $233 $411 $426 forward $235 $-1 #
edge $427 -1 $-1 $428 -7.75 $237 16.25 $233 $429 forward @7 unknown #
point $-1 -1 $-1 -5.5 11.5 12 #
edge $-1 -1 $-1 $415 -14 $341 12 $318 $430 forward @7 unknown #
vertex $-1 -1 $-1 $426 $431 #
straight-curve $-1 -1 $-1 -1.5 -4.75 12 0 1 0 I I #
face $-1 -1 $-1 $-1 $333 $20 $-1 $432 reversed single #
plane-surface $-1 -1 $-1 -1.5 0.45283018867924535 -0.4528301886792449 1 0 0 0 0 -1 forward_v I I I I #
point $-1 -1 $-1 3.5 0 -18 #
model_id-kcp-attrib $-1 -1 $-1 $-1 $248 1 1021499254 1021499254 1993998338 3 #
plane-surface $-1 -1 $-1 6.5 0 0 -1 0 0 0 0 1 forward_v I I I I #
coedge $-1 -1 $-1 $253 $251 $255 $352 reversed $162 $-1 #
edge $-1 -1 $-1 $266 -14 $354 14 $265 $433 forward @7 unknown #
vertex $-1 -1 $-1 $352 $434 #
straight-curve $-1 -1 $-1 -6.5 -12.5 0 0 0 -1 I I #
edge $-1 -1 $-1 $350 -12.5 $354 12.5 $348 $435 forward @7 unknown #
straight-curve $-1 -1 $-1 0 -12.5 -14 -1 0 0 I I #
vertex $-1 -1 $-1 $258 $436 #
straight-curve $-1 -1 $-1 0 12.5 -14 1 0 0 I I #
point $-1 -1 $-1 6.5 12.5 -14 #
point $-1 -1 $-1 6.5 -12.5 -14 #
straight-curve $-1 -1 $-1 -6.5 0 14 0 -1 0 I I #
point $-1 -1 $-1 -6.5 12.5 14 #
point $-1 -1 $-1 -6.5 -12.5 14 #
straight-curve $-1 -1 $-1 6.5 -12.5 0 0 0 -1 I I #
straight-curve $-1 -1 $-1 6.5 12.5 0 0 0 -1 I I #
model_id-kcp-attrib $-1 -1 $-1 $-1 $276 1 1021499254 1021499254 1993998337 9 #
face $437 -1 $-1 $438 $301 $8 $-1 $439 forward single #
plane-surface $-1 -1 $-1 7 -11 -18 0 -1 0 -1 0 0 forward_v I I I I #
coedge $-1 -1 $-1 $386 $278 $440 $441 forward $112 $-1 #
attrib_edge_convexity-kcp-attrib $-1 -1 $442 $-1 $279 2 #
vertex $-1 -1 $-1 $370 $443 #
straight-curve $-1 -1 $-1 -5 11 -18 0 0 -1 I I #
edge $444 -1 $-1 $368 0 $315 12 $280 $445 forward @7 unknown #
coedge $-1 -1 $-1 $281 $400 $396 $446 forward $114 $-1 #
coedge $-1 -1 $-1 $391 $440 $281 $373 reversed $392 $-1 #
edge $447 -1 $-1 $448 0 $375 4 $281 $449 forward @7 unknown #
attrib_edge_convexity-kcp-attrib $-1 -1 $450 $-1 $282 2 #
vertex $-1 -1 $-1 $373 $451 #
straight-curve $-1 -1 $-1 -5 -11 -20 0 1 0 I I #
convexity-sys-attrib $-1 -1 $-1 $283 $187 #
coedge $-1 -1 $-1 $452 $453 $287 $379 reversed $454 $-1 #
edge $455 -1 $-1 $384 0 $394 23 $287 $456 forward @7 unknown #
coedge $-1 -1 $-1 $457 $288 $290 $387 forward $382 $-1 #
coedge $-1 -1 $-1 $288 $457 $452 $458 reversed $382 $-1 #
loop $-1 -1 $-1 $-1 $380 $459 #
attrib_edge_convexity-kcp-attrib $-1 -1 $460 $-1 $289 1 #
vertex $-1 -1 $-1 $379 $461 #
straight-curve $-1 -1 $-1 -6 12 -18 1 0 0 I I #
coedge $-1 -1 $-1 $290 $366 $462 $463 reversed $112 $-1 #
edge $464 -1 $-1 $292 0 $465 28 $290 $466 forward @7 unknown #
convexity-sys-attrib $-1 -1 $-1 $291 $195 #
point $-1 -1 $-1 -5 12 -18 #
coedge $-1 -1 $-1 $467 $297 $453 $468 forward $392 $-1 #
coedge $-1 -1 $-1 $297 $372 $299 $397 reversed $392 $-1 #
loop $-1 -1 $-1 $-1 $297 $438 #
attrib_edge_convexity-kcp-attrib $-1 -1 $469 $-1 $298 1 #
vertex $-1 -1 $-1 $298 $470 #
straight-curve $-1 -1 $-1 -1 -11 -18 -1 0 0 I I #
coedge $-1 -1 $-1 $300 $299 $371 $446 reversed $301 $-1 #
edge $471 -1 $-1 $303 0 $448 2 $391 $472 forward @7 unknown #
convexity-sys-attrib $-1 -1 $-1 $302 $203 #
point $-1 -1 $-1 -1 -11 -18 #
coedge $-1 -1 $-1 $371 $309 $305 $401 forward $114 $-1 #
edge $473 -1 $-1 $312 0 $403 4 $400 $474 forward @7 unknown #
attrib_edge_convexity-kcp-attrib $-1 -1 $475 $-1 $306 2 #
vertex $-1 -1 $-1 $446 $476 #
straight-curve $-1 -1 $-1 3 -11 -18 0 0 -1 I I #
attrib_edge_convexity-kcp-attrib $-1 -1 $477 $-1 $310 1 #
straight-curve $-1 -1 $-1 7 11 -20 0 -1 0 I I #
convexity-sys-attrib $-1 -1 $-1 $311 $211 #
point $-1 -1 $-1 7 -11 -20 #
convexity-sys-attrib $-1 -1 $-1 $314 $212 #
point $-1 -1 $-1 7 11 -20 #
coedge $-1 -1 $-1 $478 $318 $337 $426 reversed $218 $-1 #
coedge $-1 -1 $-1 $318 $478 $319 $414 forward $218 $-1 #
coedge $-1 -1 $-1 $320 $319 $479 $480 reversed $140 $-1 #
edge $-1 -1 $-1 $481 0 $415 4 $412 $482 forward @7 unknown #
vertex $-1 -1 $-1 $414 $483 #
straight-curve $-1 -1 $-1 -1.5 0.5 -14 0 -1 0 I I #
coedge $-1 -1 $-1 $479 $327 $323 $418 forward $333 $-1 #
edge $484 -1 $-1 $329 -14 $419 14 $323 $485 forward @7 unknown #
vertex $-1 -1 $-1 $418 $486 #
straight-curve $-1 -1 $-1 -5.5 12.5 -14 1 0 0 I I #
point $-1 -1 $-1 -1.5 12.5 -14 #
convexity-sys-attrib $-1 -1 $-1 $-1 $328 #
straight-curve $-1 -1 $-1 -5.5 0.5 14 0 1 0 I I #
point $-1 -1 $-1 -5.5 12.5 14 #
coedge $-1 -1 $-1 $332 $479 $478 $487 forward $333 $-1 #
edge $-1 -1 $-1 $428 0 $341 4 $337 $488 forward @7 unknown #
convexity-sys-attrib $-1 -1 $-1 $-1 $338 #
vertex $-1 -1 $-1 $338 $489 #
straight-curve $-1 -1 $-1 -5.5 -4.75 12 0 1 0 I I #
straight-curve $-1 -1 $-1 -1.5 -12.5 0 0 0 1 I I #
point $-1 -1 $-1 -1.5 -12.5 12 #
plane-surface $-1 -1 $-1 -5.5 0.45283018867924535 -0.4528301886792449 1 0 0 0 0 -1 forward_v I I I I #
straight-curve $-1 -1 $-1 -6.5 12.5 0 0 0 -1 I I #
point $-1 -1 $-1 -6.5 -12.5 -14 #
straight-curve $-1 -1 $-1 -6.5 0 -14 0 1 0 I I #
point $-1 -1 $-1 -6.5 12.5 -14 #
model_id-kcp-attrib $-1 -1 $-1 $-1 $364 1 1021499254 1021499254 1993998337 10 #
face $490 -1 $-1 $491 $392 $8 $-1 $492 forward single #
cone-surface $-1 -1 $-1 1 -11 -18 0 0 -1 -2 0 0 1 I I 0 1 2 forward I I I I #
coedge $-1 -1 $-1 $372 $467 $366 $441 reversed $392 $-1 #
edge $493 -1 $-1 $375 0 $494 26 $440 $495 forward @7 unknown #
convexity-sys-attrib $-1 -1 $-1 $367 $279 #
point $-1 -1 $-1 -5 11 -20 #
attrib_edge_convexity-kcp-attrib $-1 -1 $496 $-1 $370 1 #
straight-curve $-1 -1 $-1 -5 11 -20 1 0 0 I I #
edge $497 -1 $-1 $403 0 $448 3.1415926535897931 $371 $498 forward @7 unknown #
attrib_edge_convexity-kcp-attrib $-1 -1 $499 $-1 $373 1 #
vertex $-1 -1 $-1 $373 $500 #
straight-curve $-1 -1 $-1 -1 -11 -20 -1 0 0 I I #
convexity-sys-attrib $-1 -1 $-1 $374 $282 #
point $-1 -1 $-1 -5 -11 -20 #
coedge $-1 -1 $-1 $501 $378 $381 $458 forward $454 $-1 #
coedge $-1 -1 $-1 $378 $501 $390 $468 reversed $454 $-1 #
loop $-1 -1 $-1 $-1 $378 $491 #
attrib_edge_convexity-kcp-attrib $-1 -1 $502 $-1 $379 1 #
straight-curve $-1 -1 $-1 -6 12 -18 0 -1 0 I I #
coedge $-1 -1 $-1 $381 $380 $503 $504 reversed $382 $-1 #
edge $505 -1 $-1 $384 0 $506 28 $452 $507 forward @7 unknown #
face $508 -1 $-1 $509 $382 $8 $-1 $510 forward single #
convexity-sys-attrib $-1 -1 $-1 $383 $289 #
point $-1 -1 $-1 -6 12 -18 #
coedge $-1 -1 $-1 $511 $503 $386 $463 forward $512 $-1 #
edge $513 -1 $-1 $465 0 $494 23 $462 $514 forward @7 unknown #
attrib_edge_convexity-kcp-attrib $-1 -1 $515 $-1 $387 1 #
vertex $-1 -1 $-1 $463 $516 #
straight-curve $-1 -1 $-1 -5 12 -18 0 0 -1 I I #
coedge $-1 -1 $-1 $440 $390 $511 $517 reversed $392 $-1 #
edge $518 -1 $-1 $394 0 $519 28 $390 $520 forward @7 unknown #
convexity-sys-attrib $-1 -1 $-1 $393 $298 #
point $-1 -1 $-1 -6 -11 -18 #
attrib_edge_convexity-kcp-attrib $-1 -1 $521 $-1 $397 2 #
straight-curve $-1 -1 $-1 -1 -11 -18 0 0 -1 I I #
attrib_edge_convexity-kcp-attrib $-1 -1 $522 $-1 $401 1 #
straight-curve $-1 -1 $-1 7 -11 -20 -1 0 0 I I #
convexity-sys-attrib $-1 -1 $-1 $402 $306 #
point $-1 -1 $-1 3 -11 -20 #
convexity-sys-attrib $-1 -1 $-1 $405 $310 #
coedge $-1 -1 $-1 $412 $411 $425 $487 reversed $218 $-1 #
coedge $-1 -1 $-1 $425 $417 $413 $480 forward $333 $-1 #
edge $523 -1 $-1 $419 -12 $481 13 $413 $524 forward @7 unknown #
vertex $-1 -1 $-1 $480 $525 #
straight-curve $-1 -1 $-1 -5.5 -12.5 -14 1 0 0 I I #
point $-1 -1 $-1 -1.5 -12.5 -14 #
convexity-sys-attrib $-1 -1 $-1 $-1 $418 #
straight-curve $-1 -1 $-1 -5.5 12.5 0 0 0 -1 I I #
point $-1 -1 $-1 -5.5 12.5 -14 #
edge $526 -1 $-1 $481 -14 $428 12 $478 $527 forward @7 unknown #
straight-curve $-1 -1 $-1 -5.5 -12.5 12 1 0 0 I I #
point $-1 -1 $-1 -5.5 -12.5 12 #
model_id-kcp-attrib $-1 -1 $-1 $-1 $438 1 1021499254 1021499254 1993998337 11 #
face $528 -1 $-1 $459 $454 $8 $-1 $529 forward single #
plane-surface $-1 -1 $-1 7 -11 -18 0 -1 0 -1 0 0 forward_v I I I I #
attrib_edge_convexity-kcp-attrib $-1 -1 $530 $-1 $441 1 #
vertex $-1 -1 $-1 $441 $531 #
straight-curve $-1 -1 $-1 -5 -11 -20 0 0 -1 I I #
convexity-sys-attrib $-1 -1 $-1 $444 $370 #
attrib_edge_convexity-kcp-attrib $-1 -1 $532 $-1 $446 1 #
ellipse-curve $-1 -1 $-1 1 -11 -20 0 0 -1 2 0 0 1 I I #
convexity-sys-attrib $-1 -1 $-1 $447 $373 #
point $-1 -1 $-1 -1 -11 -20 #
coedge $-1 -1 $-1 $453 $452 $533 $534 reversed $454 $-1 #
convexity-sys-attrib $-1 -1 $-1 $455 $379 #
coedge $-1 -1 $-1 $462 $533 $457 $504 forward $512 $-1 #
edge $535 -1 $-1 $506 0 $465 1 $503 $536 forward @7 unknown #
attrib_edge_convexity-kcp-attrib $-1 -1 $537 $-1 $458 1 #
vertex $-1 -1 $-1 $534 $538 #
straight-curve $-1 -1 $-1 -6 12 -18 0 0 -1 I I #
model_id-kcp-attrib $-1 -1 $-1 $-1 $459 1 1021499254 1021499254 1993998337 13 #
face $539 -1 $-1 $-1 $512 $8 $-1 $540 forward single #
plane-surface $-1 -1 $-1 -6 12 -18 0 1 0 1 0 0 forward_v I I I I #
coedge $-1 -1 $-1 $533 $462 $467 $517 forward $512 $-1 #
loop $-1 -1 $-1 $-1 $511 $509 #
attrib_edge_convexity-kcp-attrib $-1 -1 $541 $-1 $463 1 #
straight-curve $-1 -1 $-1 -5 12 -46 0 -1 0 I I #
convexity-sys-attrib $-1 -1 $-1 $464 $387 #
point $-1 -1 $-1 -5 12 -46 #
edge $542 -1 $-1 $494 0 $519 1 $467 $543 forward @7 unknown #
attrib_edge_convexity-kcp-attrib $-1 -1 $544 $-1 $468 1 #
vertex $-1 -1 $-1 $517 $545 #
straight-curve $-1 -1 $-1 -6 -11 -18 0 0 -1 I I #
convexity-sys-attrib $-1 -1 $-1 $471 $397 #
convexity-sys-attrib $-1 -1 $-1 $473 $401 #
convexity-sys-attrib $-1 -1 $-1 $-1 $480 #
straight-curve $-1 -1 $-1 -5.5 0.5 -14 0 -1 0 I I #
point $-1 -1 $-1 -5.5 -12.5 -14 #
convexity-sys-attrib $-1 -1 $-1 $-1 $487 #
straight-curve $-1 -1 $-1 -5.5 -12.5 0 0 0 1 I I #
model_id-kcp-attrib $-1 -1 $-1 $-1 $491 1 1021499254 1021499254 1993998337 12 #
plane-surface $-1 -1 $-1 -6 -11 -18 -1 0 0 0 1 0 forward_v I I I I #
convexity-sys-attrib $-1 -1 $-1 $493 $441 #
point $-1 -1 $-1 -5 -11 -46 #
convexity-sys-attrib $-1 -1 $-1 $497 $446 #
coedge $-1 -1 $-1 $503 $511 $501 $534 forward $512 $-1 #
edge $-1 -1 $-1 $519 0 $506 23 $501 $546 forward @7 unknown #
attrib_edge_convexity-kcp-attrib $-1 -1 $547 $-1 $504 1 #
straight-curve $-1 -1 $-1 -6 12 -46 1 0 0 I I #
convexity-sys-attrib $-1 -1 $-1 $505 $458 #
point $-1 -1 $-1 -6 12 -46 #
model_id-kcp-attrib $-1 -1 $-1 $-1 $509 1 1021499254 1021499254 1993998337 14 #
plane-surface $-1 -1 $-1 0 0 -46 0 0 -1 -1 0 0 forward_v I I I I #
convexity-sys-attrib $-1 -1 $-1 $513 $463 #
attrib_edge_convexity-kcp-attrib $-1 -1 $548 $-1 $517 1 #
straight-curve $-1 -1 $-1 -5 -11 -46 -1 0 0 I I #
convexity-sys-attrib $-1 -1 $-1 $518 $468 #
point $-1 -1 $-1 -6 -11 -46 #
straight-curve $-1 -1 $-1 -6 -11 -46 0 1 0 I I #
convexity-sys-attrib $-1 -1 $-1 $535 $504 #
convexity-sys-attrib $-1 -1 $-1 $542 $517 #
End-of-ACIS-data 