600 0 1 0           
95 GICL Pro/E ACIS Translator - Source: f:/data5/repository/PTC/V18/fly_small18/rec_base.prt - 6 0 13 ACIS 6.0.3 NT 24 Thu Apr 04 13:36:06 2002 
1 9.9999999999999995e-007 1e-010 
body $-1 $1 $-1 $-1 #
lump $-1 $-1 $2 $0 #
shell $-1 $-1 $-1 $3 $-1 $1 #
face $-1 $4 $5 $2 $-1 $6 reversed single #
face $-1 $7 $8 $2 $-1 $9 reversed single #
loop $-1 $10 $11 $3 #
plane-surface $-1 0 0 -18 0 0 -1 -1 0 0 forward_v I I I I #
face $-1 $12 $13 $2 $-1 $14 reversed single #
loop $-1 $-1 $15 $4 #
cone-surface $-1 0 0 -18 0 0 -1 -3.5 0 0 1 I I 0 1 3.5 forward I I I I #
loop $-1 $-1 $16 $3 #
coedge $-1 $17 $17 $18 $19 forward $5 $-1 #
face $-1 $20 $21 $2 $-1 $22 forward single #
loop $-1 $-1 $23 $7 #
cone-surface $-1 0 0 -18 0 0 -1 -3.5 0 0 1 I I 0 1 3.5 forward I I I I #
coedge $-1 $24 $18 $25 $26 forward $8 $-1 #
coedge $-1 $27 $28 $29 $30 reversed $10 $-1 #
coedge $-1 $11 $11 $31 $32 forward $5 $-1 #
coedge $-1 $15 $33 $11 $19 reversed $8 $-1 #
edge $-1 $34 0 $35 3.1415926535897931 $11 $36 forward 7 unknown #
face $-1 $37 $38 $2 $-1 $39 forward single #
loop $-1 $40 $41 $12 #
plane-surface $-1 0 0 -20 0 0 -1 -1 0 0 forward_v I I I I #
coedge $-1 $42 $31 $33 $43 forward $13 $-1 #
coedge $-1 $33 $15 $41 $44 forward $8 $-1 #
coedge $-1 $31 $42 $15 $26 reversed $13 $-1 #
edge $-1 $34 0 $45 2 $25 $46 forward 7 unknown #
coedge $-1 $47 $16 $48 $49 reversed $10 $-1 #
coedge $-1 $16 $50 $51 $52 reversed $10 $-1 #
coedge $-1 $53 $54 $16 $30 forward $55 $-1 #
edge $-1 $56 0 $57 22 $16 $58 forward 7 unknown #
coedge $-1 $23 $25 $17 $32 reversed $13 $-1 #
edge $-1 $35 0 $34 3.1415926535897931 $17 $59 forward 7 unknown #
coedge $-1 $18 $24 $23 $43 reversed $8 $-1 #
vertex $-1 $32 $60 #
vertex $-1 $32 $61 #
ellipse-curve $-1 0 0 -18 0 0 -1 3.5 0 0 1 I I #
face $-1 $62 $63 $2 $-1 $64 forward single #
loop $-1 $-1 $65 $20 #
plane-surface $-1 -5 12 -18 1 0 0 0 -1 0 forward_v I I I I #
loop $-1 $-1 $66 $12 #
coedge $-1 $67 $67 $24 $44 reversed $21 $-1 #
coedge $-1 $25 $23 $67 $68 forward $13 $-1 #
edge $-1 $35 0 $69 2 $23 $70 forward 7 unknown #
edge $-1 $45 0 $69 3.1415926535897931 $41 $71 forward 7 unknown #
vertex $-1 $68 $72 #
straight-curve $-1 3.5 4.2861222383783204e-016 -18 0 0 -1 I I #
coedge $-1 $73 $27 $74 $75 reversed $10 $-1 #
coedge $-1 $76 $77 $27 $49 forward $63 $-1 #
edge $-1 $78 0 $56 12 $27 $79 forward 7 unknown #
coedge $-1 $28 $80 $81 $82 reversed $10 $-1 #
coedge $-1 $83 $84 $28 $52 forward $85 $-1 #
edge $-1 $57 0 $86 4 $28 $87 forward 7 unknown #
coedge $-1 $88 $29 $84 $89 forward $55 $-1 #
coedge $-1 $29 $88 $76 $90 reversed $55 $-1 #
loop $-1 $-1 $53 $62 #
vertex $-1 $49 $91 #
vertex $-1 $52 $92 #
straight-curve $-1 7 11 -18 0 -1 0 I I #
ellipse-curve $-1 0 0 -18 0 0 -1 -3.5 0 0 1 I I #
point $-1 3.5 0 -18 #
point $-1 -3.5 0 -18 #
face $-1 $93 $55 $2 $-1 $94 forward single #
loop $-1 $-1 $76 $37 #
plane-surface $-1 -6 11 -18 0 1 0 1 0 0 forward_v I I I I #
coedge $-1 $95 $74 $77 $96 forward $38 $-1 #
coedge $-1 $97 $98 $95 $99 forward $40 $-1 #
coedge $-1 $41 $41 $42 $68 reversed $21 $-1 #
edge $-1 $69 0 $45 3.1415926535897931 $67 $100 forward 7 unknown #
vertex $-1 $68 $101 #
straight-curve $-1 -3.5 0 -18 0 0 -1 I I #
ellipse-curve $-1 2.2204460492503131e-016 -3.3306690738754696e-016 -20 0 0 -1 3.5 3.3306690738754696e-016 0 1 I I #
point $-1 3.5 0 -20 #
coedge $-1 $102 $47 $103 $104 reversed $10 $-1 #
coedge $-1 $65 $105 $47 $75 forward $38 $-1 #
edge $-1 $106 0 $78 1 $47 $107 forward 7 unknown #
coedge $-1 $108 $48 $54 $90 forward $63 $-1 #
coedge $-1 $48 $108 $65 $96 reversed $63 $-1 #
vertex $-1 $75 $109 #
straight-curve $-1 -5 11 -18 1 0 0 I I #
coedge $-1 $50 $102 $110 $111 reversed $10 $-1 #
coedge $-1 $112 $113 $50 $82 forward $114 $-1 #
edge $-1 $86 0 $115 3.1415926535897931 $50 $116 forward 7 unknown #
coedge $-1 $117 $51 $113 $118 forward $85 $-1 #
coedge $-1 $51 $117 $53 $89 reversed $85 $-1 #
loop $-1 $-1 $117 $93 #
vertex $-1 $52 $119 #
straight-curve $-1 7 -11 -18 -1 0 0 I I #
coedge $-1 $54 $53 $120 $121 reversed $55 $-1 #
edge $-1 $57 0 $122 2 $53 $123 forward 7 unknown #
edge $-1 $56 0 $124 2 $54 $125 forward 7 unknown #
point $-1 7 11 -18 #
point $-1 7 -11 -18 #
face $-1 $126 $85 $2 $-1 $127 forward single #
plane-surface $-1 7 11 -18 1 0 0 0 -1 0 forward_v I I I I #
coedge $-1 $128 $65 $66 $99 reversed $38 $-1 #
edge $-1 $78 0 $129 2 $77 $130 forward 7 unknown #
coedge $-1 $120 $66 $108 $131 forward $40 $-1 #
coedge $-1 $66 $132 $133 $134 forward $40 $-1 #
edge $-1 $135 0 $129 22 $66 $136 forward 7 unknown #
ellipse-curve $-1 2.2204460492503131e-016 1.1102230246251565e-016 -20 0 0 -1 -3.5 -1.1102230246251565e-016 0 1 I I #
point $-1 -3.5 0 -20 #
coedge $-1 $80 $73 $137 $138 forward $10 $-1 #
coedge $-1 $139 $140 $73 $104 forward $141 $-1 #
edge $-1 $142 0 $106 1 $73 $143 forward 7 unknown #
coedge $-1 $74 $144 $139 $145 reversed $38 $-1 #
vertex $-1 $104 $146 #
straight-curve $-1 -5 12 -18 0 -1 0 I I #
coedge $-1 $77 $76 $97 $131 reversed $63 $-1 #
point $-1 -5 11 -18 #
coedge $-1 $147 $148 $80 $111 forward $149 $-1 #
edge $-1 $115 0 $150 5 $80 $151 forward 7 unknown #
coedge $-1 $152 $81 $148 $153 forward $114 $-1 #
coedge $-1 $81 $152 $83 $118 reversed $114 $-1 #
loop $-1 $-1 $81 $126 #
vertex $-1 $82 $154 #
ellipse-curve $-1 1 -11 -18 0 0 -1 2 0 0 1 I I #
coedge $-1 $84 $83 $155 $156 reversed $85 $-1 #
edge $-1 $86 0 $157 2 $83 $158 forward 7 unknown #
point $-1 3 -11 -18 #
coedge $-1 $155 $97 $88 $121 forward $40 $-1 #
edge $-1 $124 0 $122 22 $120 $159 forward 7 unknown #
vertex $-1 $156 $160 #
straight-curve $-1 7 -11 -18 0 0 -1 I I #
vertex $-1 $121 $161 #
straight-curve $-1 7 11 -18 0 0 -1 I I #
face $-1 $162 $114 $2 $-1 $163 forward single #
plane-surface $-1 7 -11 -18 0 -1 0 -1 0 0 forward_v I I I I #
coedge $-1 $144 $95 $164 $165 forward $38 $-1 #
vertex $-1 $131 $166 #
straight-curve $-1 -5 11 -18 0 0 -1 I I #
edge $-1 $129 0 $124 12 $97 $167 forward 7 unknown #
coedge $-1 $98 $155 $152 $168 forward $40 $-1 #
coedge $-1 $148 $164 $98 $134 reversed $149 $-1 #
edge $-1 $169 0 $135 4 $98 $170 forward 7 unknown #
vertex $-1 $134 $171 #
straight-curve $-1 -5 -11 -20 0 1 0 I I #
coedge $-1 $172 $173 $102 $138 reversed $174 $-1 #
edge $-1 $142 0 $150 23 $102 $175 forward 7 unknown #
coedge $-1 $176 $103 $105 $145 forward $141 $-1 #
coedge $-1 $103 $176 $172 $177 reversed $141 $-1 #
loop $-1 $-1 $139 $178 #
vertex $-1 $138 $179 #
straight-curve $-1 -6 12 -18 1 0 0 I I #
coedge $-1 $105 $128 $180 $181 reversed $38 $-1 #
edge $-1 $106 0 $182 28 $105 $183 forward 7 unknown #
point $-1 -5 12 -18 #
coedge $-1 $184 $110 $173 $185 forward $149 $-1 #
coedge $-1 $110 $133 $112 $153 reversed $149 $-1 #
loop $-1 $-1 $110 $162 #
vertex $-1 $111 $186 #
straight-curve $-1 -1 -11 -18 -1 0 0 I I #
coedge $-1 $113 $112 $132 $168 reversed $114 $-1 #
edge $-1 $115 0 $169 2 $148 $187 forward 7 unknown #
point $-1 -1 -11 -18 #
coedge $-1 $132 $120 $117 $156 forward $40 $-1 #
edge $-1 $122 0 $157 4 $155 $188 forward 7 unknown #
vertex $-1 $168 $189 #
straight-curve $-1 3 -11 -18 0 0 -1 I I #
straight-curve $-1 7 11 -20 0 -1 0 I I #
point $-1 7 -11 -20 #
point $-1 7 11 -20 #
face $-1 $190 $149 $2 $-1 $191 forward single #
cone-surface $-1 1 -11 -18 0 0 -1 -2 0 0 1 I I 0 1 2 forward I I I I #
coedge $-1 $133 $184 $128 $165 reversed $149 $-1 #
edge $-1 $135 0 $192 26 $164 $193 forward 7 unknown #
point $-1 -5 11 -20 #
straight-curve $-1 -5 11 -20 1 0 0 I I #
edge $-1 $157 0 $169 3.1415926535897931 $132 $194 forward 7 unknown #
vertex $-1 $134 $195 #
straight-curve $-1 -1 -11 -20 -1 0 0 I I #
point $-1 -5 -11 -20 #
coedge $-1 $196 $137 $140 $177 forward $174 $-1 #
coedge $-1 $137 $196 $147 $185 reversed $174 $-1 #
loop $-1 $-1 $137 $190 #
straight-curve $-1 -6 12 -18 0 -1 0 I I #
coedge $-1 $140 $139 $197 $198 reversed $141 $-1 #
edge $-1 $142 0 $199 28 $172 $200 forward 7 unknown #
face $-1 $201 $141 $2 $-1 $202 forward single #
point $-1 -6 12 -18 #
coedge $-1 $203 $197 $144 $181 forward $204 $-1 #
edge $-1 $182 0 $192 23 $180 $205 forward 7 unknown #
vertex $-1 $181 $206 #
straight-curve $-1 -5 12 -18 0 0 -1 I I #
coedge $-1 $164 $147 $203 $207 reversed $149 $-1 #
edge $-1 $150 0 $208 28 $147 $209 forward 7 unknown #
point $-1 -6 -11 -18 #
straight-curve $-1 -1 -11 -18 0 0 -1 I I #
straight-curve $-1 7 -11 -20 -1 0 0 I I #
point $-1 3 -11 -20 #
face $-1 $178 $174 $2 $-1 $210 forward single #
plane-surface $-1 7 -11 -18 0 -1 0 -1 0 0 forward_v I I I I #
vertex $-1 $165 $211 #
straight-curve $-1 -5 -11 -20 0 0 -1 I I #
ellipse-curve $-1 1 -11 -20 0 0 -1 2 0 0 1 I I #
point $-1 -1 -11 -20 #
coedge $-1 $173 $172 $212 $213 reversed $174 $-1 #
coedge $-1 $180 $212 $176 $198 forward $204 $-1 #
edge $-1 $199 0 $182 1 $197 $214 forward 7 unknown #
vertex $-1 $213 $215 #
straight-curve $-1 -6 12 -18 0 0 -1 I I #
face $-1 $-1 $204 $2 $-1 $216 forward single #
plane-surface $-1 -6 12 -18 0 1 0 1 0 0 forward_v I I I I #
coedge $-1 $212 $180 $184 $207 forward $204 $-1 #
loop $-1 $-1 $203 $201 #
straight-curve $-1 -5 12 -46 0 -1 0 I I #
point $-1 -5 12 -46 #
edge $-1 $192 0 $208 1 $184 $217 forward 7 unknown #
vertex $-1 $207 $218 #
straight-curve $-1 -6 -11 -18 0 0 -1 I I #
plane-surface $-1 -6 -11 -18 -1 0 0 0 1 0 forward_v I I I I #
point $-1 -5 -11 -46 #
coedge $-1 $197 $203 $196 $213 forward $204 $-1 #
edge $-1 $208 0 $199 23 $196 $219 forward 7 unknown #
straight-curve $-1 -6 12 -46 1 0 0 I I #
point $-1 -6 12 -46 #
plane-surface $-1 0 0 -46 0 0 -1 -1 0 0 forward_v I I I I #
straight-curve $-1 -5 -11 -46 -1 0 0 I I #
point $-1 -6 -11 -46 #
straight-curve $-1 -6 -11 -46 0 1 0 I I #
End-of-ACIS-data 