600 0 1 0           
95 GICL Pro/E ACIS Translator - Source: f:/data5/repository/PTC/V18/fly_small18/rec_stay.prt - 6 0 13 ACIS 6.0.3 NT 24 Thu Apr 04 13:36:07 2002 
1 9.9999999999999995e-007 1e-010 
body $-1 $1 $-1 $-1 #
lump $-1 $-1 $2 $0 #
shell $-1 $-1 $-1 $3 $-1 $1 #
face $-1 $4 $5 $2 $-1 $6 reversed single #
face $-1 $7 $8 $2 $-1 $9 reversed single #
loop $-1 $10 $11 $3 #
plane-surface $-1 0 0 0 0 0 -1 -1 0 0 forward_v I I I I #
face $-1 $12 $13 $2 $-1 $14 reversed single #
loop $-1 $-1 $15 $4 #
cone-surface $-1 1 -11 0 0 0 1 1 0 0 1 I I 0 1 1 forward I I I I #
loop $-1 $16 $17 $3 #
coedge $-1 $18 $18 $19 $20 reversed $5 $-1 #
face $-1 $21 $22 $2 $-1 $23 forward single #
loop $-1 $-1 $24 $7 #
cone-surface $-1 1 -11 0 0 0 1 1 0 0 1 I I 0 1 1 forward I I I I #
coedge $-1 $25 $19 $26 $27 forward $8 $-1 #
loop $-1 $28 $29 $3 #
coedge $-1 $30 $30 $31 $32 reversed $10 $-1 #
coedge $-1 $11 $11 $33 $34 reversed $5 $-1 #
coedge $-1 $15 $35 $11 $20 forward $8 $-1 #
edge $-1 $36 0 $37 3.1415926535897931 $11 $38 forward 7 unknown #
face $-1 $39 $40 $2 $-1 $41 forward single #
loop $-1 $42 $43 $12 #
plane-surface $-1 0 0 -2 0 0 -1 -1 0 0 forward_v I I I I #
coedge $-1 $44 $33 $35 $45 forward $13 $-1 #
coedge $-1 $35 $15 $43 $46 reversed $8 $-1 #
coedge $-1 $33 $44 $15 $27 reversed $13 $-1 #
edge $-1 $37 0 $47 2 $26 $48 forward 7 unknown #
loop $-1 $-1 $49 $3 #
coedge $-1 $50 $50 $51 $52 reversed $16 $-1 #
coedge $-1 $17 $17 $53 $54 reversed $10 $-1 #
coedge $-1 $55 $56 $17 $32 forward $57 $-1 #
edge $-1 $58 0 $59 3.1415926535897931 $17 $60 forward 7 unknown #
coedge $-1 $24 $26 $18 $34 forward $13 $-1 #
edge $-1 $37 0 $36 3.1415926535897931 $18 $61 forward 7 unknown #
coedge $-1 $19 $25 $24 $45 reversed $8 $-1 #
vertex $-1 $34 $62 #
vertex $-1 $34 $63 #
ellipse-curve $-1 1 -11 0 0 0 1 -1 0 0 1 I I #
face $-1 $64 $65 $2 $-1 $66 forward single #
loop $-1 $-1 $67 $21 #
plane-surface $-1 7 -2 0 1 0 0 0 -1 0 forward_v I I I I #
loop $-1 $68 $69 $12 #
coedge $-1 $70 $70 $25 $46 forward $22 $-1 #
coedge $-1 $26 $24 $70 $71 reversed $13 $-1 #
edge $-1 $36 0 $72 2 $24 $73 forward 7 unknown #
edge $-1 $72 0 $47 3.1415926535897967 $43 $74 forward 7 unknown #
vertex $-1 $71 $75 #
straight-curve $-1 2 -11 0 0 0 -1 I I #
coedge $-1 $76 $77 $78 $79 reversed $28 $-1 #
coedge $-1 $29 $29 $80 $81 reversed $16 $-1 #
coedge $-1 $82 $83 $29 $52 forward $84 $-1 #
edge $-1 $85 0 $86 3.1415926535897931 $29 $87 forward 7 unknown #
coedge $-1 $88 $89 $30 $54 forward $90 $-1 #
edge $-1 $59 0 $58 3.1415926535897931 $30 $91 forward 7 unknown #
coedge $-1 $92 $31 $89 $93 forward $57 $-1 #
coedge $-1 $31 $92 $88 $94 reversed $57 $-1 #
loop $-1 $-1 $55 $95 #
vertex $-1 $54 $96 #
vertex $-1 $54 $97 #
ellipse-curve $-1 14 7 0 0 0 1 -2 0 0 1 I I #
ellipse-curve $-1 1 -11 0 0 0 1 1 0 0 1 I I #
point $-1 0 -11 0 #
point $-1 2 -11 0 #
face $-1 $98 $99 $2 $-1 $100 forward single #
loop $-1 $-1 $101 $39 #
plane-surface $-1 17 -2 0 0 -1 0 -1 0 0 forward_v I I I I #
coedge $-1 $102 $103 $104 $105 reversed $40 $-1 #
loop $-1 $106 $107 $12 #
coedge $-1 $108 $109 $103 $110 forward $42 $-1 #
coedge $-1 $43 $43 $44 $71 forward $22 $-1 #
edge $-1 $47 0 $72 3.1415926535897967 $70 $111 forward 7 unknown #
vertex $-1 $71 $112 #
straight-curve $-1 0 -11 0 0 0 -1 I I #
ellipse-curve $-1 1 -11.000000000000002 -2 0 0 1 -1 1.7763568394002505e-015 0 1 I I #
point $-1 2 -11 -2 #
coedge $-1 $113 $49 $114 $115 forward $28 $-1 #
coedge $-1 $49 $116 $117 $118 forward $28 $-1 #
coedge $-1 $119 $120 $49 $79 forward $121 $-1 #
edge $-1 $122 0 $123 4 $49 $124 forward 7 unknown #
coedge $-1 $125 $126 $50 $81 forward $127 $-1 #
edge $-1 $86 0 $85 3.1415926535897931 $50 $128 forward 7 unknown #
coedge $-1 $129 $51 $126 $130 forward $84 $-1 #
coedge $-1 $51 $129 $125 $131 reversed $84 $-1 #
loop $-1 $-1 $82 $132 #
vertex $-1 $81 $133 #
vertex $-1 $81 $134 #
ellipse-curve $-1 0 0 0 0 0 1 -2.5 0 0 1 I I #
coedge $-1 $135 $53 $56 $94 forward $90 $-1 #
coedge $-1 $53 $135 $55 $93 reversed $90 $-1 #
loop $-1 $-1 $88 $136 #
ellipse-curve $-1 14 7 0 0 0 1 2 0 0 1 I I #
coedge $-1 $56 $55 $107 $137 reversed $57 $-1 #
edge $-1 $59 0 $138 2 $89 $139 forward 7 unknown #
edge $-1 $58 0 $140 2 $88 $141 forward 7 unknown #
face $-1 $136 $57 $2 $-1 $142 reversed single #
point $-1 12 7 0 #
point $-1 16 7 0 #
face $-1 $143 $144 $2 $-1 $145 forward single #
loop $-1 $-1 $146 $64 #
plane-surface $-1 7 -2 -2 -1 0 0 0 1 0 forward_v I I I I #
coedge $-1 $104 $147 $148 $149 forward $65 $-1 #
coedge $-1 $150 $67 $151 $152 forward $40 $-1 #
coedge $-1 $67 $150 $69 $110 reversed $40 $-1 #
coedge $-1 $153 $101 $67 $105 forward $65 $-1 #
edge $-1 $154 0 $155 2 $104 $156 forward 7 unknown #
loop $-1 $-1 $157 $12 #
coedge $-1 $158 $158 $92 $137 forward $68 $-1 #
coedge $-1 $159 $69 $160 $161 forward $42 $-1 #
coedge $-1 $69 $162 $163 $164 reversed $42 $-1 #
edge $-1 $155 0 $165 9 $69 $166 forward 7 unknown #
ellipse-curve $-1 1 -10.999999999999998 -2 0 0 1 1 -1.7763568394002505e-015 0 1 I I #
point $-1 0 -11 -2 #
coedge $-1 $167 $76 $168 $169 reversed $28 $-1 #
coedge $-1 $170 $171 $76 $115 reversed $172 $-1 #
edge $-1 $122 0 $173 1.570796326794893 $76 $174 forward 7 unknown #
coedge $-1 $77 $148 $175 $176 reversed $28 $-1 #
coedge $-1 $177 $178 $77 $118 reversed $179 $-1 #
edge $-1 $180 0 $123 1.570796326794893 $77 $181 forward 7 unknown #
coedge $-1 $182 $78 $178 $183 reversed $121 $-1 #
coedge $-1 $78 $184 $170 $185 reversed $121 $-1 #
loop $-1 $-1 $182 $186 #
vertex $-1 $115 $187 #
vertex $-1 $118 $188 #
straight-curve $-1 12 16 0 1 0 0 I I #
coedge $-1 $189 $80 $83 $131 forward $127 $-1 #
coedge $-1 $80 $189 $82 $130 reversed $127 $-1 #
loop $-1 $-1 $125 $190 #
ellipse-curve $-1 0 0 0 0 0 1 2.5 0 0 1 I I #
coedge $-1 $83 $82 $157 $191 reversed $84 $-1 #
edge $-1 $86 0 $192 2 $126 $193 forward 7 unknown #
edge $-1 $85 0 $194 2 $125 $195 forward 7 unknown #
face $-1 $190 $84 $2 $-1 $196 reversed single #
point $-1 -2.5 0 0 #
point $-1 2.5 0 0 #
coedge $-1 $89 $88 $158 $197 reversed $90 $-1 #
face $-1 $132 $90 $2 $-1 $198 reversed single #
edge $-1 $140 0 $138 3.1415926535897931 $107 $199 forward 7 unknown #
vertex $-1 $197 $200 #
straight-curve $-1 16 7 0 0 0 -1 I I #
vertex $-1 $197 $201 #
straight-curve $-1 12 7 0 0 0 -1 I I #
cone-surface $-1 14 7 0 0 0 1 2 0 0 1 I I 0 1 2 forward I I I I #
face $-1 $202 $203 $2 $-1 $204 forward single #
loop $-1 $-1 $205 $98 #
plane-surface $-1 7 0 -2 0 1 0 1 0 0 forward_v I I I I #
coedge $-1 $206 $163 $207 $208 forward $99 $-1 #
coedge $-1 $101 $209 $210 $211 forward $65 $-1 #
coedge $-1 $116 $151 $101 $149 reversed $28 $-1 #
edge $-1 $212 0 $154 10 $148 $213 forward 7 unknown #
coedge $-1 $103 $102 $214 $215 forward $40 $-1 #
coedge $-1 $148 $216 $102 $152 reversed $28 $-1 #
edge $-1 $154 0 $217 9 $151 $218 forward 7 unknown #
coedge $-1 $209 $104 $219 $220 forward $65 $-1 #
vertex $-1 $149 $221 #
vertex $-1 $164 $222 #
straight-curve $-1 7 -2 0 0 0 -1 I I #
coedge $-1 $223 $223 $129 $191 forward $106 $-1 #
coedge $-1 $107 $107 $135 $197 forward $68 $-1 #
coedge $-1 $224 $108 $225 $226 forward $42 $-1 #
coedge $-1 $214 $227 $108 $161 reversed $228 $-1 #
edge $-1 $165 0 $229 4 $108 $230 forward 7 unknown #
coedge $-1 $109 $231 $232 $233 forward $42 $-1 #
coedge $-1 $146 $219 $109 $164 forward $99 $-1 #
edge $-1 $155 0 $234 2 $109 $235 forward 7 unknown #
vertex $-1 $161 $236 #
straight-curve $-1 7 -2 -2 0 -1 0 I I #
coedge $-1 $237 $113 $238 $239 reversed $28 $-1 #
coedge $-1 $240 $241 $113 $169 forward $242 $-1 #
edge $-1 $243 0 $173 4 $113 $244 forward 7 unknown #
coedge $-1 $245 $114 $120 $185 forward $172 $-1 #
coedge $-1 $114 $245 $240 $246 reversed $172 $-1 #
loop $-1 $-1 $114 $247 #
vertex $-1 $169 $248 #
ellipse-curve $-1 12.000000000000002 14.999999999999998 0 0 0 1 -1.7763568394002505e-015 1.0000000000000018 0 1 I I #
coedge $-1 $210 $249 $116 $176 forward $203 $-1 #
edge $-1 $180 0 $212 17 $116 $250 forward 7 unknown #
coedge $-1 $251 $117 $249 $252 reversed $179 $-1 #
coedge $-1 $117 $251 $119 $183 forward $179 $-1 #
loop $-1 $-1 $251 $253 #
vertex $-1 $118 $254 #
ellipse-curve $-1 15.999999999999998 14.999999999999998 0 0 0 1 1.0000000000000018 1.7763568394002505e-015 0 1 I I #
coedge $-1 $255 $119 $256 $257 reversed $121 $-1 #
edge $-1 $258 0 $123 19 $119 $259 forward 7 unknown #
coedge $-1 $120 $255 $260 $261 reversed $121 $-1 #
edge $-1 $122 0 $262 25 $120 $263 forward 7 unknown #
face $-1 $264 $121 $2 $-1 $265 forward single #
point $-1 12 16 0 #
point $-1 16 16 0 #
coedge $-1 $126 $125 $223 $266 reversed $127 $-1 #
face $-1 $-1 $127 $2 $-1 $267 reversed single #
edge $-1 $194 0 $192 3.1415926535897931 $157 $268 forward 7 unknown #
vertex $-1 $266 $269 #
straight-curve $-1 2.5 0 0 0 0 -1 I I #
vertex $-1 $266 $270 #
straight-curve $-1 -2.5 3.0615158845559431e-016 0 0 0 -1 I I #
cone-surface $-1 0 0 0 0 0 1 2.5 0 0 1 I I 0 1 2.5 forward I I I I #
edge $-1 $138 0 $140 3.1415926535897931 $158 $271 forward 7 unknown #
cone-surface $-1 14 7 0 0 0 1 2 0 0 1 I I 0 1 2 forward I I I I #
ellipse-curve $-1 14 7 -2 0 0 1 -2 0 0 1 I I #
point $-1 16 7 -2 #
point $-1 12 7 -2 #
face $-1 $272 $273 $2 $-1 $274 forward single #
loop $-1 $-1 $175 $143 #
plane-surface $-1 17 16 0 1 0 0 0 -1 0 forward_v I I I I #
coedge $-1 $275 $232 $276 $277 forward $144 $-1 #
coedge $-1 $219 $146 $278 $279 reversed $99 $-1 #
coedge $-1 $232 $275 $146 $208 reversed $144 $-1 #
edge $-1 $234 0 $280 8 $146 $281 forward 7 unknown #
coedge $-1 $147 $153 $282 $283 reversed $65 $-1 #
coedge $-1 $284 $175 $147 $211 reversed $203 $-1 #
edge $-1 $285 0 $212 10 $210 $286 forward 7 unknown #
vertex $-1 $176 $287 #
straight-curve $-1 17 -2 0 -1 0 0 I I #
coedge $-1 $288 $160 $150 $215 reversed $228 $-1 #
edge $-1 $217 0 $165 2 $214 $289 forward 7 unknown #
coedge $-1 $151 $290 $288 $291 reversed $28 $-1 #
vertex $-1 $152 $292 #
straight-curve $-1 7 -2 0 0 -1 0 I I #
coedge $-1 $163 $206 $153 $220 reversed $99 $-1 #
edge $-1 $155 0 $293 8 $153 $294 forward 7 unknown #
point $-1 7 -2 0 #
point $-1 7 -2 -2 #
coedge $-1 $157 $157 $189 $266 forward $106 $-1 #
coedge $-1 $295 $159 $296 $297 forward $42 $-1 #
coedge $-1 $298 $299 $159 $226 reversed $300 $-1 #
edge $-1 $229 0 $301 3.1415926535897931 $159 $302 forward 7 unknown #
coedge $-1 $160 $288 $298 $303 forward $228 $-1 #
loop $-1 $-1 $227 $304 #
vertex $-1 $226 $305 #
straight-curve $-1 7 -11 -2 -1 0 0 I I #
coedge $-1 $162 $306 $307 $308 forward $42 $-1 #
coedge $-1 $205 $207 $162 $233 reversed $144 $-1 #
edge $-1 $309 0 $234 10 $162 $310 forward 7 unknown #
vertex $-1 $164 $311 #
straight-curve $-1 7 -2 -2 0 1 0 I I #
point $-1 7 -11 -2 #
coedge $-1 $312 $167 $313 $314 reversed $28 $-1 #
coedge $-1 $315 $316 $167 $239 forward $317 $-1 #
edge $-1 $318 0 $243 16 $167 $319 forward 7 unknown #
coedge $-1 $320 $168 $171 $246 forward $242 $-1 #
coedge $-1 $168 $321 $315 $322 reversed $242 $-1 #
loop $-1 $-1 $320 $323 #
vertex $-1 $239 $324 #
straight-curve $-1 11 11 0 0 1 0 I I #
coedge $-1 $171 $170 $325 $326 reversed $172 $-1 #
edge $-1 $173 0 $327 25 $240 $328 forward 7 unknown #
face $-1 $329 $172 $2 $-1 $330 forward single #
point $-1 11 15 0 #
coedge $-1 $175 $331 $177 $252 forward $203 $-1 #
straight-curve $-1 17 15 0 0 -1 0 I I #
coedge $-1 $178 $177 $332 $333 reversed $179 $-1 #
edge $-1 $334 0 $180 19 $249 $335 forward 7 unknown #
face $-1 $247 $179 $2 $-1 $336 forward single #
point $-1 17 15 0 #
coedge $-1 $184 $182 $337 $338 reversed $121 $-1 #
coedge $-1 $332 $339 $182 $257 forward $340 $-1 #
edge $-1 $341 0 $258 2 $182 $342 forward 7 unknown #
vertex $-1 $183 $343 #
straight-curve $-1 16 16 -19 0 0 1 I I #
coedge $-1 $344 $325 $184 $261 forward $345 $-1 #
edge $-1 $262 0 $346 2 $184 $347 forward 7 unknown #
vertex $-1 $185 $348 #
straight-curve $-1 12 16 0 0 0 -1 I I #
face $-1 $349 $340 $2 $-1 $350 forward single #
plane-surface $-1 11 16 0 0 1 0 1 0 0 forward_v I I I I #
edge $-1 $192 0 $194 3.1415926535897931 $223 $351 forward 7 unknown #
cone-surface $-1 0 0 0 0 0 1 2.5 0 0 1 I I 0 1 2.5 forward I I I I #
ellipse-curve $-1 2.2204460492503131e-016 1.1102230246251565e-016 -2 0 0 1 -2.5 -1.1102230246251565e-016 0 1 I I #
point $-1 2.5 0 -2 #
point $-1 -2.5 0 -2 #
ellipse-curve $-1 14 7 -2 0 0 1 2 0 0 1 I I #
face $-1 $323 $352 $2 $-1 $353 forward single #
loop $-1 $-1 $278 $202 #
plane-surface $-1 0 0 -10 0 0 -1 -1 0 0 forward_v I I I I #
coedge $-1 $207 $205 $354 $355 reversed $144 $-1 #
coedge $-1 $307 $284 $205 $277 reversed $203 $-1 #
edge $-1 $309 0 $356 8 $276 $357 forward 7 unknown #
coedge $-1 $354 $282 $206 $279 forward $273 $-1 #
edge $-1 $293 0 $280 2 $278 $358 forward 7 unknown #
vertex $-1 $355 $359 #
straight-curve $-1 7 0 -2 0 0 -1 I I #
coedge $-1 $278 $360 $209 $283 forward $273 $-1 #
edge $-1 $285 0 $293 10 $209 $361 forward 7 unknown #
coedge $-1 $276 $210 $360 $362 reversed $203 $-1 #
vertex $-1 $362 $363 #
straight-curve $-1 17 -2 -10 0 0 1 I I #
point $-1 17 -2 0 #
coedge $-1 $227 $214 $216 $291 forward $228 $-1 #
straight-curve $-1 7 -11 0 0 0 -1 I I #
coedge $-1 $216 $312 $364 $365 reversed $28 $-1 #
edge $-1 $217 0 $366 4 $216 $367 forward 7 unknown #
point $-1 7 -11 0 #
vertex $-1 $283 $368 #
straight-curve $-1 7 -2 -2 0 0 -1 I I #
coedge $-1 $369 $224 $370 $371 forward $42 $-1 #
coedge $-1 $372 $373 $224 $297 reversed $374 $-1 #
edge $-1 $301 0 $375 4 $224 $376 forward 7 unknown #
coedge $-1 $364 $225 $227 $303 reversed $300 $-1 #
coedge $-1 $225 $364 $372 $377 forward $300 $-1 #
loop $-1 $-1 $299 $378 #
vertex $-1 $297 $379 #
ellipse-curve $-1 1 -11 -2 0 0 -1 2 0 0 1 I I #
edge $-1 $366 0 $229 2 $227 $380 forward 7 unknown #
face $-1 $95 $228 $2 $-1 $381 forward single #
point $-1 3 -11 -2 #
coedge $-1 $231 $369 $382 $383 reversed $42 $-1 #
coedge $-1 $384 $276 $231 $308 reversed $203 $-1 #
edge $-1 $385 0 $309 11 $231 $386 forward 7 unknown #
vertex $-1 $233 $387 #
straight-curve $-1 17 0 -2 -1 0 0 I I #
point $-1 7 0 -2 #
coedge $-1 $290 $237 $388 $389 reversed $28 $-1 #
coedge $-1 $390 $391 $237 $314 forward $392 $-1 #
edge $-1 $393 0 $318 22 $237 $394 forward 7 unknown #
coedge $-1 $395 $238 $241 $322 forward $317 $-1 #
coedge $-1 $238 $395 $390 $396 reversed $317 $-1 #
loop $-1 $-1 $316 $329 #
vertex $-1 $314 $397 #
straight-curve $-1 -5 11 0 1 0 0 I I #
coedge $-1 $398 $240 $399 $400 reversed $242 $-1 #
coedge $-1 $241 $398 $401 $402 reversed $242 $-1 #
edge $-1 $243 0 $403 2 $315 $404 forward 7 unknown #
face $-1 $405 $242 $2 $-1 $406 forward single #
point $-1 11 11 0 #
coedge $-1 $260 $399 $245 $326 forward $345 $-1 #
edge $-1 $327 0 $262 1.5707963267948966 $325 $407 forward 7 unknown #
vertex $-1 $246 $408 #
straight-curve $-1 11 15 0 0 0 -1 I I #
face $-1 $409 $317 $2 $-1 $410 forward single #
cone-surface $-1 12 15 0.025000611252931126 0 0 -1 0 1 0 1 I I 0 1 1 forward I I I I #
coedge $-1 $249 $411 $412 $413 reversed $203 $-1 #
coedge $-1 $412 $256 $251 $333 forward $340 $-1 #
edge $-1 $258 0 $334 1.5707963267949019 $332 $414 forward 7 unknown #
vertex $-1 $252 $415 #
straight-curve $-1 17 15 -19 0 0 1 I I #
cone-surface $-1 16 15 -25.025000611252931 0 0 1 0 1 0 1 I I 0 1 1 forward I I I I #
coedge $-1 $416 $417 $255 $338 forward $418 $-1 #
edge $-1 $346 0 $341 6 $255 $419 forward 7 unknown #
coedge $-1 $256 $420 $416 $421 forward $340 $-1 #
loop $-1 $-1 $412 $264 #
vertex $-1 $338 $422 #
straight-curve $-1 14 16 -19 1 0 0 I I #
point $-1 16 16 -19 #
coedge $-1 $423 $260 $417 $424 forward $345 $-1 #
loop $-1 $-1 $260 $405 #
vertex $-1 $261 $425 #
straight-curve $-1 12 16 -25 1 0 0 I I #
point $-1 12 16 -25 #
face $-1 $426 $427 $2 $-1 $428 reversed single #
plane-surface $-1 0 0 -19 0 0 -1 -1 0 0 forward_v I I I I #
ellipse-curve $-1 0 1.1102230246251565e-016 -2 0 0 1 2.5 -1.1102230246251565e-016 0 1 I I #
loop $-1 $-1 $429 $272 #
plane-surface $-1 17 11 -2 0 -1 0 -1 0 0 forward_v I I I I #
coedge $-1 $360 $278 $275 $355 forward $273 $-1 #
edge $-1 $280 0 $356 10 $354 $430 forward 7 unknown #
vertex $-1 $277 $431 #
straight-curve $-1 17 0 -2 0 0 -1 I I #
straight-curve $-1 7 -2 -10 0 1 0 I I #
point $-1 7 0 -10 #
coedge $-1 $282 $354 $284 $362 forward $273 $-1 #
straight-curve $-1 17 -2 -10 -1 0 0 I I #
edge $-1 $356 0 $285 2 $284 $432 forward 7 unknown #
point $-1 17 -2 -10 #
coedge $-1 $299 $298 $290 $365 forward $300 $-1 #
edge $-1 $366 0 $433 3.1415926535897931 $290 $434 forward 7 unknown #
vertex $-1 $291 $435 #
straight-curve $-1 7 -11 0 -1 0 0 I I #
point $-1 7 -2 -10 #
coedge $-1 $306 $295 $395 $436 forward $42 $-1 #
coedge $-1 $391 $390 $295 $371 reversed $392 $-1 #
edge $-1 $375 0 $437 22 $295 $438 forward 7 unknown #
coedge $-1 $388 $296 $299 $377 reversed $374 $-1 #
coedge $-1 $296 $388 $391 $439 forward $374 $-1 #
loop $-1 $-1 $373 $440 #
vertex $-1 $371 $441 #
straight-curve $-1 -1 -11 -2 -1 0 0 I I #
edge $-1 $433 0 $301 2 $299 $442 forward 7 unknown #
face $-1 $304 $300 $2 $-1 $443 forward single #
point $-1 -1 -11 -2 #
straight-curve $-1 3 -11 0 0 0 -1 I I #
plane-surface $-1 7 -11 0 0 -1 0 -1 0 0 forward_v I I I I #
coedge $-1 $401 $429 $306 $383 forward $352 $-1 #
edge $-1 $385 0 $403 6 $306 $444 forward 7 unknown #
coedge $-1 $445 $307 $429 $446 forward $203 $-1 #
vertex $-1 $308 $447 #
straight-curve $-1 17 11 -2 0 -1 0 I I #
point $-1 17 0 -2 #
coedge $-1 $373 $372 $312 $389 forward $374 $-1 #
edge $-1 $433 0 $393 4 $312 $448 forward 7 unknown #
coedge $-1 $370 $313 $316 $396 forward $392 $-1 #
coedge $-1 $313 $370 $373 $439 reversed $392 $-1 #
loop $-1 $-1 $390 $409 #
vertex $-1 $389 $449 #
straight-curve $-1 -5 -11 0 0 1 0 I I #
coedge $-1 $316 $315 $369 $436 reversed $317 $-1 #
edge $-1 $318 0 $437 2 $390 $450 forward 7 unknown #
point $-1 -5 11 0 #
coedge $-1 $321 $320 $451 $452 reversed $242 $-1 #
coedge $-1 $325 $453 $320 $400 forward $345 $-1 #
edge $-1 $454 0 $327 4 $320 $455 forward 7 unknown #
coedge $-1 $456 $382 $321 $402 forward $352 $-1 #
edge $-1 $403 0 $457 22 $321 $458 forward 7 unknown #
vertex $-1 $383 $459 #
straight-curve $-1 11 11 0 0 0 -1 I I #
face $-1 $460 $461 $2 $-1 $462 forward single #
plane-surface $-1 11 11 0 -1 0 0 0 1 0 forward_v I I I I #
ellipse-curve $-1 12 15 -25 0 0 -1 -1 0 0 1 I I #
point $-1 11 15 -25 #
face $-1 $440 $392 $2 $-1 $463 forward single #
plane-surface $-1 -5 11 0 0 1 0 1 0 0 forward_v I I I I #
coedge $-1 $331 $464 $465 $466 forward $203 $-1 #
coedge $-1 $467 $332 $331 $413 forward $340 $-1 #
edge $-1 $334 0 $468 2 $331 $469 forward 7 unknown #
ellipse-curve $-1 16.000000000000004 15.000000000000002 -19 0 0 -1 -3.5527136788005009e-015 0.99999999999999822 0 1 I I #
point $-1 17 15 -19 #
coedge $-1 $470 $337 $339 $421 reversed $418 $-1 #
coedge $-1 $337 $470 $344 $424 reversed $418 $-1 #
loop $-1 $-1 $416 $471 #
straight-curve $-1 14 16 -25 0 0 1 I I #
coedge $-1 $339 $467 $472 $473 forward $340 $-1 #
edge $-1 $474 0 $341 2.5 $339 $475 forward 7 unknown #
point $-1 14 16 -19 #
coedge $-1 $476 $344 $477 $478 reversed $345 $-1 #
edge $-1 $346 0 $479 2.5 $344 $480 forward 7 unknown #
point $-1 14 16 -25 #
face $-1 $471 $481 $2 $-1 $482 reversed single #
loop $-1 $-1 $483 $349 #
plane-surface $-1 17 13 -25 0 -1 0 -1 0 0 forward_v I I I I #
coedge $-1 $382 $456 $384 $446 reversed $352 $-1 #
straight-curve $-1 7 0 -10 1 0 0 I I #
point $-1 17 0 -10 #
straight-curve $-1 17 0 -10 0 -1 0 I I #
vertex $-1 $365 $484 #
ellipse-curve $-1 1 -11 0 0 0 -1 2 0 0 1 I I #
point $-1 3 -11 0 #
edge $-1 $437 0 $403 16 $369 $485 forward 7 unknown #
vertex $-1 $436 $486 #
straight-curve $-1 -5 -11 -2 0 1 0 I I #
edge $-1 $393 0 $375 2 $373 $487 forward 7 unknown #
face $-1 $378 $374 $2 $-1 $488 forward single #
point $-1 -5 -11 -2 #
straight-curve $-1 -1 -11 0 0 0 -1 I I #
cone-surface $-1 1 -11 0 0 0 -1 -2 0 0 1 I I 0 1 2 forward I I I I #
straight-curve $-1 17 11 -2 -1 0 0 I I #
coedge $-1 $489 $384 $490 $491 forward $203 $-1 #
edge $-1 $385 0 $492 22 $384 $493 forward 7 unknown #
point $-1 17 11 -2 #
straight-curve $-1 -1 -11 0 -1 0 0 I I #
point $-1 -5 -11 0 #
straight-curve $-1 -5 11 0 0 0 -1 I I #
coedge $-1 $494 $495 $398 $452 forward $496 $-1 #
edge $-1 $457 0 $454 1 $398 $497 forward 7 unknown #
coedge $-1 $399 $498 $494 $499 forward $345 $-1 #
vertex $-1 $452 $500 #
straight-curve $-1 11 11 -25 0 1 0 I I #
coedge $-1 $429 $401 $501 $502 reversed $352 $-1 #
vertex $-1 $402 $503 #
straight-curve $-1 11 11 -2 0 0 -1 I I #
point $-1 11 11 -2 #
face $-1 $504 $505 $2 $-1 $506 reversed single #
loop $-1 $507 $508 $405 #
plane-surface $-1 0 0 -25 0 0 -1 -1 0 0 forward_v I I I I #
plane-surface $-1 -5 -11 0 -1 0 0 0 1 0 forward_v I I I I #
coedge $-1 $411 $489 $509 $510 reversed $203 $-1 #
coedge $-1 $483 $511 $411 $466 reversed $427 $-1 #
edge $-1 $512 0 $468 6 $411 $513 forward 7 unknown #
coedge $-1 $420 $412 $511 $514 forward $340 $-1 #
vertex $-1 $413 $515 #
straight-curve $-1 17 15 -19 0 -1 0 I I #
coedge $-1 $417 $416 $516 $517 reversed $418 $-1 #
face $-1 $253 $418 $2 $-1 $518 reversed single #
coedge $-1 $519 $516 $420 $473 reversed $481 $-1 #
edge $-1 $520 0 $474 1.5707963267948895 $420 $521 forward 7 unknown #
vertex $-1 $421 $522 #
straight-curve $-1 14 13.5 -19 0 1 0 I I #
coedge $-1 $509 $423 $483 $523 reversed $345 $-1 #
coedge $-1 $516 $519 $423 $478 forward $481 $-1 #
edge $-1 $524 0 $479 1.5707963267948966 $423 $525 forward 7 unknown #
vertex $-1 $478 $526 #
straight-curve $-1 14 16 -25 0 -1 0 I I #
loop $-1 $-1 $516 $426 #
cone-surface $-1 14.5 13.5 -25 0 0 -1 -0.5 0 0 1 I I 0 1 0.5 forward I I I I #
coedge $-1 $527 $465 $476 $523 forward $427 $-1 #
point $-1 -1 -11 0 #
straight-curve $-1 -5 11 -2 1 0 0 I I #
point $-1 -5 11 -2 #
straight-curve $-1 -5 -11 0 0 0 -1 I I #
plane-surface $-1 -1 -11 0 0 -1 0 -1 0 0 forward_v I I I I #
coedge $-1 $464 $445 $528 $529 forward $203 $-1 #
coedge $-1 $501 $530 $445 $491 reversed $531 $-1 #
edge $-1 $492 0 $532 13 $445 $533 forward 7 unknown #
vertex $-1 $491 $534 #
straight-curve $-1 17 11 -2 0 0 -1 I I #
coedge $-1 $535 $451 $453 $499 reversed $496 $-1 #
coedge $-1 $451 $535 $536 $537 forward $496 $-1 #
loop $-1 $-1 $451 $538 #
straight-curve $-1 11 11 -24 0 0 -1 I I #
coedge $-1 $453 $539 $540 $541 forward $345 $-1 #
edge $-1 $542 0 $454 16 $453 $543 forward 7 unknown #
point $-1 11 11 -25 #
coedge $-1 $536 $490 $456 $502 forward $531 $-1 #
edge $-1 $492 0 $457 6 $456 $544 forward 7 unknown #
point $-1 11 11 -24 #
face $-1 $545 $546 $2 $-1 $547 reversed single #
loop $-1 $-1 $548 $460 #
cone-surface $-1 1 -11 -24 0 0 1 0.5 0 0 1 I I 0 1 0.5 forward I I I I #
loop $-1 $345 $549 $405 #
coedge $-1 $550 $550 $551 $552 forward $461 $-1 #
coedge $-1 $553 $476 $464 $510 forward $345 $-1 #
edge $-1 $512 0 $554 15 $464 $555 forward 7 unknown #
coedge $-1 $465 $527 $467 $514 reversed $427 $-1 #
vertex $-1 $466 $556 #
straight-curve $-1 17 13 -25 0 0 1 I I #
edge $-1 $468 0 $520 2.5 $467 $557 forward 7 unknown #
point $-1 17 13 -19 #
coedge $-1 $472 $477 $470 $517 forward $481 $-1 #
edge $-1 $479 0 $474 6 $516 $558 forward 7 unknown #
plane-surface $-1 14 13.5 -25 -1 0 0 0 1 0 forward_v I I I I #
coedge $-1 $477 $472 $527 $559 reversed $481 $-1 #
vertex $-1 $473 $560 #
ellipse-curve $-1 14.500000000000002 13.500000000000002 -19 0 0 -1 -1.7763568394002505e-015 -0.50000000000000178 0 1 I I #
point $-1 14 13.5 -19 #
edge $-1 $512 0 $524 2.5 $476 $561 forward 7 unknown #
vertex $-1 $523 $562 #
ellipse-curve $-1 14.5 13.5 -25 0 0 -1 0 -0.5 0 1 I I #
point $-1 14 13.5 -25 #
coedge $-1 $511 $483 $519 $559 forward $427 $-1 #
coedge $-1 $563 $564 $489 $529 reversed $565 $-1 #
edge $-1 $532 0 $554 1 $489 $566 forward 7 unknown #
coedge $-1 $490 $567 $563 $568 reversed $531 $-1 #
loop $-1 $569 $536 $545 #
vertex $-1 $529 $570 #
straight-curve $-1 17 11 -24 0 -1 0 I I #
point $-1 17 11 -24 #
coedge $-1 $495 $494 $571 $572 reversed $496 $-1 #
coedge $-1 $573 $501 $495 $537 reversed $531 $-1 #
edge $-1 $574 0 $457 16 $536 $575 forward 7 unknown #
face $-1 $576 $496 $2 $-1 $577 forward single #
coedge $-1 $498 $578 $579 $580 reversed $345 $-1 #
coedge $-1 $581 $571 $498 $541 reversed $582 $-1 #
edge $-1 $583 0 $542 3 $498 $584 forward 7 unknown #
vertex $-1 $499 $585 #
straight-curve $-1 -5 11 -25 1 0 0 I I #
straight-curve $-1 17 11 -24 -1 0 0 I I #
face $-1 $538 $531 $2 $-1 $586 reversed single #
loop $-1 $-1 $587 $504 #
cone-surface $-1 1 -11 -24 0 0 1 0.5 0 0 1 I I 0 1 0.5 forward I I I I #
coedge $-1 $551 $588 $589 $590 forward $505 $-1 #
coedge $-1 $591 $591 $592 $593 reversed $507 $-1 #
coedge $-1 $508 $508 $594 $595 forward $461 $-1 #
coedge $-1 $596 $548 $508 $552 reversed $505 $-1 #
edge $-1 $597 0 $598 3.1415926535897931 $508 $599 forward 7 unknown #
coedge $-1 $600 $509 $564 $601 forward $345 $-1 #
vertex $-1 $510 $602 #
straight-curve $-1 17 13 -25 0 -1 0 I I #
point $-1 17 13 -25 #
straight-curve $-1 17 13 -19 -1 0 0 I I #
straight-curve $-1 14 13.5 -25 0 0 1 I I #
edge $-1 $524 0 $520 6 $527 $603 forward 7 unknown #
point $-1 14.5 13 -19 #
straight-curve $-1 17 13 -25 -1 0 0 I I #
point $-1 14.5 13 -25 #
coedge $-1 $604 $528 $530 $568 forward $565 $-1 #
coedge $-1 $528 $605 $553 $601 reversed $565 $-1 #
loop $-1 $-1 $528 $606 #
straight-curve $-1 17 -2 -24 0 0 -1 I I #
coedge $-1 $530 $607 $608 $609 reversed $531 $-1 #
edge $-1 $532 0 $610 10 $530 $611 forward 7 unknown #
loop $-1 $612 $613 $545 #
point $-1 17 -2 -24 #
coedge $-1 $540 $614 $535 $572 forward $582 $-1 #
edge $-1 $574 0 $542 1 $571 $615 forward 7 unknown #
coedge $-1 $616 $536 $614 $617 reversed $531 $-1 #
vertex $-1 $617 $618 #
straight-curve $-1 -5 11 -24 1 0 0 I I #
face $-1 $619 $582 $2 $-1 $620 forward single #
plane-surface $-1 -5 11 -24 0 1 0 1 0 0 forward_v I I I I #
coedge $-1 $539 $621 $622 $623 reversed $345 $-1 #
coedge $-1 $624 $625 $539 $580 forward $626 $-1 #
edge $-1 $583 0 $627 5 $539 $628 forward 7 unknown #
coedge $-1 $629 $540 $625 $630 forward $582 $-1 #
loop $-1 $-1 $631 $576 #
vertex $-1 $541 $632 #
straight-curve $-1 -5 8 -25 0 1 0 I I #
point $-1 -5 11 -25 #
plane-surface $-1 0 0 -24 0 0 -1 -1 0 0 forward_v I I I I #
coedge $-1 $594 $633 $596 $634 forward $546 $-1 #
coedge $-1 $548 $596 $613 $635 forward $505 $-1 #
coedge $-1 $633 $594 $548 $590 reversed $546 $-1 #
edge $-1 $636 0 $598 1 $589 $637 forward 7 unknown #
coedge $-1 $549 $549 $638 $639 reversed $507 $-1 #
coedge $-1 $640 $641 $549 $593 forward $642 $-1 #
edge $-1 $643 0 $644 3.1415926535897931 $549 $645 forward 7 unknown #
coedge $-1 $589 $587 $550 $595 reversed $546 $-1 #
edge $-1 $598 0 $597 3.1415926535897931 $550 $646 forward 7 unknown #
coedge $-1 $588 $551 $587 $634 reversed $505 $-1 #
vertex $-1 $595 $647 #
vertex $-1 $595 $648 #
ellipse-curve $-1 1 -11 -25 0 0 1 0 0.5 0 1 I I #
coedge $-1 $649 $553 $650 $651 reversed $345 $-1 #
edge $-1 $554 0 $652 5 $553 $653 forward 7 unknown #
point $-1 17 -2 -25 #
straight-curve $-1 14.5 13 -25 0 0 1 I I #
coedge $-1 $654 $563 $655 $656 forward $565 $-1 #
coedge $-1 $564 $657 $658 $659 reversed $565 $-1 #
face $-1 $660 $565 $2 $-1 $661 forward single #
coedge $-1 $567 $662 $663 $664 reversed $531 $-1 #
coedge $-1 $665 $655 $567 $609 forward $666 $-1 #
edge $-1 $610 0 $667 9 $567 $668 forward 7 unknown #
vertex $-1 $568 $669 #
straight-curve $-1 17 -2 -24 -1 0 0 I I #
loop $-1 $-1 $670 $545 #
coedge $-1 $671 $671 $588 $635 reversed $569 $-1 #
coedge $-1 $571 $631 $573 $617 forward $582 $-1 #
straight-curve $-1 -5 11 -24 0 0 -1 I I #
coedge $-1 $662 $573 $672 $673 reversed $531 $-1 #
edge $-1 $674 0 $574 22 $573 $675 forward 7 unknown #
point $-1 -5 11 -24 #
face $-1 $676 $677 $2 $-1 $678 forward single #
plane-surface $-1 -5 -11 -24 -1 0 0 0 1 0 forward_v I I I I #
coedge $-1 $578 $679 $680 $681 forward $345 $-1 #
coedge $-1 $682 $683 $578 $623 forward $684 $-1 #
edge $-1 $627 0 $685 2 $578 $686 forward 7 unknown #
coedge $-1 $687 $579 $683 $688 forward $626 $-1 #
coedge $-1 $579 $687 $581 $630 reversed $626 $-1 #
loop $-1 $-1 $624 $689 #
vertex $-1 $580 $690 #
straight-curve $-1 -5 8 -25 1 0 0 I I #
coedge $-1 $691 $581 $692 $693 reversed $582 $-1 #
edge $-1 $583 0 $694 3 $581 $695 forward 7 unknown #
coedge $-1 $614 $696 $697 $698 reversed $582 $-1 #
point $-1 -5 8 -25 #
coedge $-1 $587 $589 $671 $699 forward $546 $-1 #
edge $-1 $700 0 $597 1 $587 $701 forward 7 unknown #
edge $-1 $700 0 $636 3.1415926535897931 $613 $702 forward 7 unknown #
vertex $-1 $699 $703 #
straight-curve $-1 0.99999999999999989 -11.5 -24 0 0 -1 I I #
coedge $-1 $704 $705 $591 $639 forward $706 $-1 #
edge $-1 $644 0 $643 3.1415926535897931 $591 $707 forward 7 unknown #
coedge $-1 $708 $592 $705 $709 forward $642 $-1 #
coedge $-1 $592 $708 $704 $710 reversed $642 $-1 #
loop $-1 $-1 $641 $711 #
vertex $-1 $639 $712 #
vertex $-1 $639 $713 #
ellipse-curve $-1 12 2.5 -25 0 0 -1 2 0 0 1 I I #
ellipse-curve $-1 1 -11 -25 0 0 1 0 -0.5 0 1 I I #
point $-1 1 -10.5 -25 #
point $-1 1 -11.5 -25 #
coedge $-1 $714 $600 $715 $716 reversed $345 $-1 #
coedge $-1 $658 $717 $600 $651 forward $718 $-1 #
edge $-1 $719 0 $652 2 $600 $720 forward 7 unknown #
vertex $-1 $651 $721 #
straight-curve $-1 17 -2 -25 -1 0 0 I I #
coedge $-1 $657 $604 $722 $723 forward $565 $-1 #
coedge $-1 $608 $724 $604 $656 reversed $666 $-1 #
edge $-1 $610 0 $725 1 $604 $726 forward 7 unknown #
coedge $-1 $605 $654 $727 $728 reversed $565 $-1 #
coedge $-1 $729 $650 $605 $659 forward $718 $-1 #
edge $-1 $652 0 $730 3 $605 $731 forward 7 unknown #
face $-1 $732 $733 $2 $-1 $734 forward single #
plane-surface $-1 17 -2 -24 0 -1 0 -1 0 0 forward_v I I I I #
coedge $-1 $607 $616 $735 $736 reversed $531 $-1 #
coedge $-1 $737 $738 $607 $664 forward $739 $-1 #
edge $-1 $667 0 $740 4 $607 $741 forward 7 unknown #
coedge $-1 $724 $608 $738 $742 forward $666 $-1 #
loop $-1 $-1 $655 $743 #
vertex $-1 $609 $744 #
straight-curve $-1 7 -2 -24 0 -1 0 I I #
point $-1 7 -2 -24 #
coedge $-1 $745 $745 $708 $746 forward $612 $-1 #
coedge $-1 $613 $613 $633 $699 reversed $569 $-1 #
coedge $-1 $697 $747 $616 $673 forward $677 $-1 #
edge $-1 $748 0 $674 4 $616 $749 forward 7 unknown #
vertex $-1 $673 $750 #
straight-curve $-1 -5 -11 -24 0 1 0 I I #
face $-1 $751 $752 $2 $-1 $753 forward single #
loop $-1 $-1 $697 $619 #
plane-surface $-1 -1 -11 -24 0 -1 0 -1 0 0 forward_v I I I I #
coedge $-1 $621 $754 $696 $755 forward $345 $-1 #
coedge $-1 $756 $757 $621 $681 reversed $758 $-1 #
edge $-1 $759 0 $685 5 $621 $760 forward 7 unknown #
coedge $-1 $761 $622 $757 $762 forward $684 $-1 #
coedge $-1 $622 $761 $624 $688 reversed $684 $-1 #
loop $-1 $-1 $682 $763 #
vertex $-1 $623 $764 #
straight-curve $-1 0 8 -25 0 -1 0 I I #
coedge $-1 $625 $624 $765 $766 reversed $626 $-1 #
edge $-1 $627 0 $767 3 $683 $768 forward 7 unknown #
face $-1 $763 $626 $2 $-1 $769 forward single #
point $-1 0 8 -25 #
coedge $-1 $696 $629 $756 $770 reversed $582 $-1 #
coedge $-1 $765 $771 $629 $693 forward $772 $-1 #
edge $-1 $773 0 $694 2 $629 $774 forward 7 unknown #
vertex $-1 $693 $775 #
straight-curve $-1 -5 8 -25 0 0 -1 I I #
coedge $-1 $631 $691 $679 $755 reversed $582 $-1 #
coedge $-1 $776 $672 $631 $698 forward $677 $-1 #
edge $-1 $674 0 $777 1 $697 $778 forward 7 unknown #
edge $-1 $636 0 $700 3.1415926535897931 $671 $779 forward 7 unknown #
vertex $-1 $699 $780 #
straight-curve $-1 1 -10.5 -24 0 0 -1 I I #
ellipse-curve $-1 1 -11 -24 0 0 1 0 0.5 0 1 I I #
point $-1 1 -11.5 -24 #
coedge $-1 $781 $638 $641 $710 forward $706 $-1 #
coedge $-1 $638 $781 $640 $709 reversed $706 $-1 #
loop $-1 $-1 $705 $782 #
ellipse-curve $-1 12 2.5 -25 0 0 -1 -2 0 0 1 I I #
coedge $-1 $641 $640 $670 $746 reversed $642 $-1 #
edge $-1 $644 0 $783 1 $705 $784 forward 7 unknown #
edge $-1 $643 0 $785 1 $704 $786 forward 7 unknown #
face $-1 $782 $642 $2 $-1 $787 reversed single #
point $-1 14 2.5 -25 #
point $-1 10 2.5 -25 #
coedge $-1 $788 $649 $789 $790 reversed $345 $-1 #
coedge $-1 $791 $792 $649 $716 forward $793 $-1 #
edge $-1 $794 0 $719 5 $649 $795 forward 7 unknown #
coedge $-1 $650 $729 $791 $796 reversed $718 $-1 #
loop $-1 $-1 $658 $797 #
vertex $-1 $716 $798 #
straight-curve $-1 12 0 -25 0 -1 0 I I #
point $-1 12 -2 -25 #
coedge $-1 $789 $799 $654 $723 reversed $733 $-1 #
edge $-1 $725 0 $800 3 $654 $801 forward 7 unknown #
coedge $-1 $655 $665 $788 $802 reversed $666 $-1 #
vertex $-1 $802 $803 #
straight-curve $-1 7 -2 -24 0 0 -1 I I #
coedge $-1 $804 $805 $657 $728 forward $806 $-1 #
edge $-1 $730 0 $800 5 $657 $807 forward 7 unknown #
coedge $-1 $717 $658 $805 $808 reversed $718 $-1 #
vertex $-1 $659 $809 #
straight-curve $-1 12 -2 -25 0 0 -1 I I #
face $-1 $797 $793 $2 $-1 $810 forward single #
loop $-1 $-1 $811 $660 #
plane-surface $-1 7 -2 -25 -1 0 0 0 1 0 forward_v I I I I #
coedge $-1 $812 $813 $662 $736 forward $752 $-1 #
edge $-1 $740 0 $748 3.1415926535897931 $662 $814 forward 7 unknown #
coedge $-1 $815 $663 $813 $816 forward $739 $-1 #
coedge $-1 $663 $815 $665 $742 reversed $739 $-1 #
loop $-1 $-1 $737 $751 #
vertex $-1 $664 $817 #
straight-curve $-1 7 -11 -24 -1 0 0 I I #
edge $-1 $667 0 $818 1 $665 $819 forward 7 unknown #
face $-1 $606 $666 $2 $-1 $820 forward single #
point $-1 7 -11 -24 #
coedge $-1 $670 $670 $781 $821 forward $612 $-1 #
edge $-1 $785 0 $783 3.1415926535897931 $670 $822 forward 7 unknown #
coedge $-1 $672 $776 $812 $823 reversed $677 $-1 #
vertex $-1 $736 $824 #
straight-curve $-1 -1 -11 -24 -1 0 0 I I #
point $-1 -5 -11 -24 #
face $-1 $743 $739 $2 $-1 $825 forward single #
loop $-1 $-1 $812 $676 #
cone-surface $-1 1 -11 -24 0 0 -1 -2 0 0 1 I I 0 1 2 forward I I I I #
coedge $-1 $679 $826 $776 $827 forward $345 $-1 #
edge $-1 $777 0 $759 17 $679 $828 forward 7 unknown #
coedge $-1 $829 $680 $691 $770 forward $758 $-1 #
coedge $-1 $680 $829 $682 $762 reversed $758 $-1 #
loop $-1 $-1 $756 $830 #
vertex $-1 $681 $831 #
straight-curve $-1 -5 6 -25 1 0 0 I I #
coedge $-1 $683 $682 $832 $833 reversed $684 $-1 #
edge $-1 $685 0 $834 3 $682 $835 forward 7 unknown #
face $-1 $830 $684 $2 $-1 $836 forward single #
point $-1 0 6 -25 #
coedge $-1 $832 $692 $687 $766 forward $772 $-1 #
edge $-1 $694 0 $767 5 $765 $837 forward 7 unknown #
vertex $-1 $833 $838 #
straight-curve $-1 0 8 -25 0 0 -1 I I #
plane-surface $-1 -5 8 -25 0 1 0 1 0 0 forward_v I I I I #
edge $-1 $759 0 $773 3 $691 $839 forward 7 unknown #
coedge $-1 $692 $832 $829 $840 forward $772 $-1 #
loop $-1 $-1 $771 $841 #
vertex $-1 $770 $842 #
straight-curve $-1 -5 6 -28 0 1 0 I I #
point $-1 -5 8 -28 #
coedge $-1 $747 $697 $754 $827 reversed $677 $-1 #
vertex $-1 $755 $843 #
straight-curve $-1 -5 -11 -24 0 0 -1 I I #
ellipse-curve $-1 1 -11 -24 0 0 1 0 -0.5 0 1 I I #
point $-1 1 -10.5 -24 #
coedge $-1 $705 $704 $745 $821 reversed $706 $-1 #
face $-1 $186 $706 $2 $-1 $844 reversed single #
vertex $-1 $821 $845 #
straight-curve $-1 10 2.5 -25 0 0 1 I I #
vertex $-1 $821 $846 #
straight-curve $-1 14 2.5000000000000004 -25 0 0 1 I I #
cone-surface $-1 12 2.5 -25 0 0 -1 -2 0 0 1 I I 0 1 2 forward I I I I #
coedge $-1 $847 $714 $724 $802 forward $345 $-1 #
coedge $-1 $811 $722 $714 $790 forward $733 $-1 #
edge $-1 $725 0 $794 2 $714 $848 forward 7 unknown #
coedge $-1 $849 $715 $717 $796 forward $793 $-1 #
coedge $-1 $715 $849 $811 $850 reversed $793 $-1 #
loop $-1 $-1 $791 $732 #
vertex $-1 $790 $851 #
straight-curve $-1 7 0 -25 1 0 0 I I #
edge $-1 $719 0 $852 3 $791 $853 forward 7 unknown #
face $-1 $854 $718 $2 $-1 $855 forward single #
point $-1 12 0 -25 #
coedge $-1 $722 $811 $804 $856 reversed $733 $-1 #
vertex $-1 $728 $857 #
straight-curve $-1 7 -2 -25 0 0 -1 I I #
edge $-1 $725 0 $818 9 $788 $858 forward 7 unknown #
point $-1 7 -2 -25 #
coedge $-1 $859 $727 $799 $856 forward $806 $-1 #
coedge $-1 $727 $859 $729 $808 forward $806 $-1 #
loop $-1 $-1 $859 $854 #
straight-curve $-1 12 -2 -28 -1 0 0 I I #
edge $-1 $852 0 $730 2 $805 $860 forward 7 unknown #
point $-1 12 -2 -28 #
plane-surface $-1 7 0 -25 0 1 0 1 0 0 forward_v I I I I #
coedge $-1 $799 $789 $792 $850 forward $733 $-1 #
coedge $-1 $861 $735 $747 $823 forward $752 $-1 #
coedge $-1 $735 $861 $737 $816 reversed $752 $-1 #
ellipse-curve $-1 1 -11 -24 0 0 -1 2 0 0 1 I I #
coedge $-1 $738 $737 $847 $862 reversed $739 $-1 #
edge $-1 $740 0 $863 1 $737 $864 forward 7 unknown #
point $-1 3 -11 -24 #
vertex $-1 $862 $865 #
straight-curve $-1 7 -11 -24 0 0 -1 I I #
plane-surface $-1 7 -2 -24 1 0 0 0 -1 0 forward_v I I I I #
edge $-1 $783 0 $785 3.1415926535897931 $745 $866 forward 7 unknown #
ellipse-curve $-1 12 2.5 -24 0 0 -1 2 0 0 1 I I #
edge $-1 $748 0 $867 1 $812 $868 forward 7 unknown #
point $-1 -1 -11 -24 #
plane-surface $-1 7 -11 -24 0 -1 0 -1 0 0 forward_v I I I I #
coedge $-1 $754 $847 $861 $869 forward $345 $-1 #
edge $-1 $867 0 $777 4 $754 $870 forward 7 unknown #
straight-curve $-1 -5 -11 -25 0 1 0 I I #
coedge $-1 $757 $756 $771 $840 reversed $758 $-1 #
face $-1 $841 $758 $2 $-1 $871 forward single #
point $-1 -5 6 -25 #
coedge $-1 $771 $765 $761 $833 forward $772 $-1 #
edge $-1 $767 0 $834 2 $832 $872 forward 7 unknown #
vertex $-1 $833 $873 #
straight-curve $-1 0 6 -25 0 0 -1 I I #
plane-surface $-1 0 8 -25 1 0 0 0 -1 0 forward_v I I I I #
straight-curve $-1 -5 8 -28 1 0 0 I I #
point $-1 0 8 -28 #
straight-curve $-1 -5 6 -25 0 0 -1 I I #
edge $-1 $834 0 $773 5 $771 $874 forward 7 unknown #
face $-1 $711 $772 $2 $-1 $875 forward single #
point $-1 -5 6 -28 #
point $-1 -5 -11 -25 #
cone-surface $-1 12 2.5 -25 0 0 -1 -2 0 0 1 I I 0 1 2 forward I I I I #
point $-1 10 2.5 -24 #
point $-1 14 2.5 -24 #
coedge $-1 $826 $788 $815 $862 forward $345 $-1 #
straight-curve $-1 7 -2 -25 0 1 0 I I #
coedge $-1 $792 $791 $859 $876 reversed $793 $-1 #
edge $-1 $794 0 $877 3 $811 $878 forward 7 unknown #
point $-1 7 0 -25 #
vertex $-1 $808 $879 #
straight-curve $-1 12 0 -25 0 0 -1 I I #
face $-1 $689 $806 $2 $-1 $880 forward single #
plane-surface $-1 12 0 -25 1 0 0 0 -1 0 forward_v I I I I #
edge $-1 $800 0 $877 2 $804 $881 forward 7 unknown #
point $-1 7 -2 -28 #
straight-curve $-1 7 -2 -25 0 -1 0 I I #
coedge $-1 $805 $804 $849 $876 forward $806 $-1 #
straight-curve $-1 12 0 -28 0 -1 0 I I #
coedge $-1 $813 $812 $826 $869 reversed $752 $-1 #
edge $-1 $818 0 $863 4 $847 $882 forward 7 unknown #
vertex $-1 $869 $883 #
straight-curve $-1 3 -11 -24 0 0 -1 I I #
point $-1 7 -11 -25 #
ellipse-curve $-1 12 2.5 -24 0 0 -1 -2 0 0 1 I I #
vertex $-1 $827 $884 #
straight-curve $-1 -1 -11 -24 0 0 -1 I I #
edge $-1 $863 0 $867 3.1415926535897913 $826 $885 forward 7 unknown #
straight-curve $-1 -1 -11 -25 -1 0 0 I I #
plane-surface $-1 0 6 -25 0 -1 0 -1 0 0 forward_v I I I I #
straight-curve $-1 0 8 -28 0 -1 0 I I #
point $-1 0 6 -28 #
straight-curve $-1 0 6 -28 -1 0 0 I I #
plane-surface $-1 0 0 -28 0 0 -1 -1 0 0 forward_v I I I I #
edge $-1 $877 0 $852 5 $859 $886 forward 7 unknown #
vertex $-1 $856 $887 #
straight-curve $-1 7 0 -25 0 0 -1 I I #
point $-1 12 0 -28 #
plane-surface $-1 0 0 -28 0 0 -1 -1 0 0 forward_v I I I I #
straight-curve $-1 7 -2 -28 0 1 0 I I #
straight-curve $-1 7 -11 -25 -1 0 0 I I #
point $-1 3 -11 -25 #
point $-1 -1 -11 -25 #
ellipse-curve $-1 1 -10.999999999999998 -25 0 0 -1 2 -1.7763568394002505e-015 0 1 I I #
straight-curve $-1 7 0 -28 1 0 0 I I #
point $-1 7 0 -28 #
End-of-ACIS-data 