600 0 1 0           
94 GICL Pro/E ACIS Translator - Source: f:/data5/repository/PTC/V18/fly_small18/rubber_.prt - 6 0 13 ACIS 6.0.3 NT 24 Thu Apr 04 13:36:08 2002 
1 9.9999999999999995e-007 1e-010 
body $-1 $1 $-1 $-1 #
lump $-1 $-1 $2 $0 #
shell $-1 $-1 $-1 $3 $-1 $1 #
face $-1 $4 $5 $2 $-1 $6 reversed single #
face $-1 $7 $8 $2 $-1 $9 reversed single #
loop $-1 $10 $11 $3 #
plane-surface $-1 -10.024080688773235 22.5 -37.5 0 1 0 0 0 1 forward_v I I I I #
face $-1 $12 $13 $2 $-1 $14 reversed single #
loop $-1 $-1 $15 $4 #
cone-surface $-1 -2 23 -57.5 0 1 0 5 0 0 1 I I 0 1 5 forward I I I I #
loop $-1 $-1 $16 $3 #
coedge $-1 $17 $17 $18 $19 forward $5 $-1 #
face $-1 $20 $21 $2 $-1 $22 forward single #
loop $-1 $-1 $23 $7 #
cone-surface $-1 -2 23 -57.5 0 1 0 5 0 0 1 I I 0 1 5 forward I I I I #
coedge $-1 $24 $18 $25 $26 reversed $8 $-1 #
coedge $-1 $27 $28 $29 $30 forward $10 $-1 #
coedge $-1 $11 $11 $31 $32 forward $5 $-1 #
coedge $-1 $15 $33 $11 $19 reversed $8 $-1 #
edge $-1 $34 0 $35 3.1415926535897931 $11 $36 forward 7 unknown #
face $-1 $37 $38 $2 $-1 $39 reversed single #
loop $-1 $40 $41 $12 #
plane-surface $-1 -10.024080688773235 23 -37.5 0 1 0 0 0 1 forward_v I I I I #
coedge $-1 $42 $31 $33 $43 reversed $13 $-1 #
coedge $-1 $33 $15 $41 $44 forward $8 $-1 #
coedge $-1 $31 $42 $15 $26 forward $13 $-1 #
edge $-1 $45 0 $34 0.5 $25 $46 forward 7 unknown #
coedge $-1 $47 $16 $48 $49 reversed $10 $-1 #
coedge $-1 $16 $50 $51 $52 forward $10 $-1 #
coedge $-1 $53 $54 $16 $30 reversed $55 $-1 #
edge $-1 $56 4.2632564145606339e-014 $57 1.5707963267949054 $16 $58 forward 7 unknown #
coedge $-1 $23 $25 $17 $32 reversed $13 $-1 #
edge $-1 $35 0 $34 3.14159265358981 $17 $59 forward 7 unknown #
coedge $-1 $18 $24 $23 $43 forward $8 $-1 #
vertex $-1 $32 $60 #
vertex $-1 $32 $61 #
ellipse-curve $-1 -2.0000000000000053 22.5 -57.5 0 1 0 5 0 0 1 I I #
face $-1 $62 $63 $2 $-1 $64 forward single #
loop $-1 $-1 $65 $20 #
plane-surface $-1 -9.6999999999999993 22.75 -37.734999999999999 1 0 0 0 0 1 forward_v I I I I #
loop $-1 $-1 $66 $12 #
coedge $-1 $67 $67 $24 $44 reversed $21 $-1 #
coedge $-1 $25 $23 $67 $68 forward $13 $-1 #
edge $-1 $69 0 $35 0.5 $23 $70 forward 7 unknown #
edge $-1 $45 0 $69 3.1415926535897931 $41 $71 forward 7 unknown #
vertex $-1 $68 $72 #
straight-curve $-1 3 23 -57.5 0 -1 -5.6843418860807611e-014 I I #
coedge $-1 $73 $27 $74 $75 reversed $10 $-1 #
coedge $-1 $76 $77 $27 $49 forward $78 $-1 #
edge $-1 $79 1.7763568394002505e-015 $57 11.700000000000001 $27 $80 forward 7 unknown #
coedge $-1 $28 $81 $82 $83 forward $10 $-1 #
coedge $-1 $84 $85 $28 $52 reversed $86 $-1 #
edge $-1 $87 0 $56 5.5000000000000568 $28 $88 forward 7 unknown #
coedge $-1 $89 $29 $85 $90 reversed $55 $-1 #
coedge $-1 $29 $89 $76 $91 forward $55 $-1 #
loop $-1 $-1 $29 $92 #
vertex $-1 $52 $93 #
vertex $-1 $49 $94 #
ellipse-curve $-1 2.0000000000000018 22.5 -46.000000000000007 -3.5527136788005072e-015 1 -2.5243548967072467e-029 0.99999999999999822 3.5527136788005009e-015 7.1054273576010019e-015 1 I I #
ellipse-curve $-1 -2.0000000000000053 22.5 -57.499999999999957 0 1 0 -5.0000000000000009 0 -4.2632564145606011e-014 1 I I #
point $-1 2.9999999999999947 22.5 -57.5 #
point $-1 -7.0000000000000062 22.5 -57.5 #
face $-1 $95 $96 $2 $-1 $97 reversed single #
loop $-1 $-1 $98 $37 #
cone-surface $-1 -0.9800000000000022 22.75 -17.399999999999999 1.4210854715202105e-014 -1 2.8421709430404235e-014 -1.3855583347322307e-013 2.4783730623312296e-013 8.7200000000000006 1 I I 0 1 8.7200000000000006 forward I I I I #
coedge $-1 $99 $100 $101 $102 forward $38 $-1 #
coedge $-1 $103 $104 $105 $106 forward $40 $-1 #
coedge $-1 $41 $41 $42 $68 reversed $21 $-1 #
edge $-1 $69 0 $45 3.1415926535897931 $67 $107 forward 7 unknown #
vertex $-1 $68 $108 #
straight-curve $-1 -7 23 -57.500000000000014 0 -1 0 I I #
ellipse-curve $-1 -2 23 -57.5 0 1 0 4.9999999999999911 0 0 1 I I #
point $-1 2.9999999999999911 23 -57.5 #
coedge $-1 $109 $47 $110 $111 forward $10 $-1 #
coedge $-1 $112 $113 $47 $75 forward $114 $-1 #
edge $-1 $115 0 $79 11.069999999999951 $47 $116 forward 7 unknown #
coedge $-1 $117 $48 $54 $91 reversed $78 $-1 #
coedge $-1 $48 $117 $112 $118 forward $78 $-1 #
loop $-1 $-1 $117 $119 #
vertex $-1 $75 $120 #
straight-curve $-1 -9.7000000000000011 22.5 -47 1 0 0 I I #
coedge $-1 $50 $101 $121 $122 forward $10 $-1 #
coedge $-1 $123 $124 $50 $83 reversed $125 $-1 #
edge $-1 $126 0 $87 1.5707963267948912 $50 $127 forward 7 unknown #
coedge $-1 $128 $51 $124 $129 reversed $86 $-1 #
coedge $-1 $51 $128 $53 $90 forward $86 $-1 #
loop $-1 $-1 $51 $130 #
vertex $-1 $52 $131 #
straight-curve $-1 3 22.5 -40.499999999999986 0 0 -1 I I #
coedge $-1 $54 $53 $132 $133 reversed $55 $-1 #
edge $-1 $134 0 $56 0.50000000000000355 $85 $135 forward 7 unknown #
edge $-1 $136 0 $57 0.5 $76 $137 forward 7 unknown #
face $-1 $130 $55 $2 $-1 $138 reversed single #
point $-1 2.9999999999999929 22.5 -46.000000000000043 #
point $-1 2 22.500000000000004 -47 #
face $-1 $139 $140 $2 $-1 $141 forward single #
loop $-1 $-1 $142 $62 #
plane-surface $-1 5.1632016822079638 22.75 -8.6799999999999997 0 0 -1 1 0 0 forward_v I I I I #
coedge $-1 $143 $144 $145 $146 forward $63 $-1 #
coedge $-1 $105 $65 $147 $148 forward $38 $-1 #
coedge $-1 $65 $105 $149 $150 forward $38 $-1 #
coedge $-1 $81 $151 $65 $102 reversed $10 $-1 #
edge $-1 $152 -4.2632564145606011e-014 $153 22.100000000000001 $101 $154 forward 7 unknown #
coedge $-1 $155 $66 $143 $156 reversed $40 $-1 #
coedge $-1 $66 $157 $158 $159 reversed $40 $-1 #
coedge $-1 $100 $99 $66 $106 reversed $38 $-1 #
edge $-1 $160 0 $161 22.099999999999945 $105 $162 forward 7 unknown #
ellipse-curve $-1 -2 23 -57.5 0 1 0 -5.0000000000000053 0 0 1 I I #
point $-1 -7.0000000000000053 23 -57.5 #
coedge $-1 $163 $73 $164 $165 reversed $10 $-1 #
coedge $-1 $166 $167 $73 $111 reversed $168 $-1 #
edge $-1 $115 0 $169 1.5707963267949046 $73 $170 forward 7 unknown #
coedge $-1 $171 $74 $77 $118 reversed $114 $-1 #
coedge $-1 $74 $171 $166 $172 reversed $114 $-1 #
loop $-1 $-1 $171 $173 #
vertex $-1 $111 $174 #
straight-curve $-1 -9.6999999999999993 22.5 -58.069999999999951 0 0 1 I I #
coedge $-1 $77 $76 $175 $176 reversed $78 $-1 #
edge $-1 $177 0 $79 0.5 $112 $178 forward 7 unknown #
face $-1 $92 $78 $2 $-1 $179 reversed single #
point $-1 -9.6999999999999993 22.5 -47 #
coedge $-1 $149 $180 $81 $122 reversed $181 $-1 #
edge $-1 $152 0 $126 11.699999999999999 $81 $182 forward 7 unknown #
coedge $-1 $183 $82 $180 $184 reversed $125 $-1 #
coedge $-1 $82 $183 $84 $129 forward $125 $-1 #
loop $-1 $-1 $82 $185 #
vertex $-1 $83 $186 #
ellipse-curve $-1 2.0000000000000018 22.5 -40.499999999999993 6.3108872417681841e-030 1 -3.5527136788005262e-015 -1.7763568394002505e-015 3.5527136788005009e-015 0.99999999999999289 1 I I #
coedge $-1 $85 $84 $187 $188 forward $86 $-1 #
edge $-1 $189 0 $87 0.50000000000000355 $84 $190 forward 7 unknown #
face $-1 $185 $86 $2 $-1 $191 reversed single #
point $-1 3.0000000000000018 22.5 -40.499999999999986 #
coedge $-1 $187 $175 $89 $133 forward $40 $-1 #
edge $-1 $136 0 $134 1.5707963267949054 $132 $192 forward 7 unknown #
vertex $-1 $188 $193 #
straight-curve $-1 3 23.000000000000004 -46 0 -1 0 I I #
vertex $-1 $133 $194 #
straight-curve $-1 2 23.000000000000004 -47 0 -1 0 I I #
cone-surface $-1 2 23.000500012225064 -46 0 -1 0 1 0 0 1 I I 0 1 1 forward I I I I #
face $-1 $195 $196 $2 $-1 $197 reversed single #
loop $-1 $-1 $198 $95 #
plane-surface $-1 14.431403364416063 21.912658773652741 -8.6800000000000068 0 0 1 -0.5 0.8660254037844386 0 forward_v I I I I #
coedge $-1 $199 $200 $201 $202 forward $96 $-1 #
coedge $-1 $147 $98 $103 $156 forward $63 $-1 #
coedge $-1 $98 $147 $151 $203 reversed $63 $-1 #
coedge $-1 $200 $199 $98 $146 reversed $96 $-1 #
edge $-1 $204 3.5527136788004504e-015 $205 0.5 $145 $206 forward 7 unknown #
coedge $-1 $144 $143 $99 $148 reversed $63 $-1 #
edge $-1 $153 -1.2116903504194741e-027 $161 0.5 $147 $207 forward 7 unknown #
coedge $-1 $158 $121 $100 $150 reversed $181 $-1 #
edge $-1 $160 0 $152 0.5 $100 $208 forward 7 unknown #
coedge $-1 $101 $209 $144 $203 forward $10 $-1 #
vertex $-1 $122 $210 #
vertex $-1 $102 $211 #
straight-curve $-1 -9.6999999999999993 22.5 -39.499999999999957 0 0 1 I I #
coedge $-1 $212 $103 $199 $213 forward $40 $-1 #
edge $-1 $205 1.2222638803213367e-015 $161 1.5707963267948872 $143 $214 forward 7 unknown #
coedge $-1 $104 $187 $183 $215 forward $40 $-1 #
coedge $-1 $180 $149 $104 $159 forward $181 $-1 #
edge $-1 $160 0 $216 11.700000000000003 $104 $217 forward 7 unknown #
vertex $-1 $150 $218 #
vertex $-1 $148 $219 #
straight-curve $-1 -9.6999999999999993 23 -39.499999999999957 0 0 1 I I #
coedge $-1 $209 $109 $220 $221 forward $10 $-1 #
coedge $-1 $222 $223 $109 $165 forward $224 $-1 #
edge $-1 $225 -7.1054273576010019e-015 $169 12.286403364416058 $109 $226 forward 7 unknown #
coedge $-1 $227 $110 $113 $172 forward $168 $-1 #
coedge $-1 $110 $227 $222 $228 reversed $168 $-1 #
loop $-1 $-1 $166 $229 #
vertex $-1 $165 $230 #
ellipse-curve $-1 -0.98000000000004661 22.5 -58.069999999999979 4.6318438471693196e-029 -1 1.4210854715202165e-014 -8.7199999999999562 0 2.8421709430404007e-014 1 I I #
coedge $-1 $113 $112 $231 $232 reversed $114 $-1 #
edge $-1 $115 3.5527136787998951e-015 $233 0.50000000000000355 $113 $234 forward 7 unknown #
face $-1 $119 $114 $2 $-1 $235 reversed single #
point $-1 -9.7000000000000028 22.5 -58.069999999999951 #
coedge $-1 $132 $231 $117 $176 forward $40 $-1 #
edge $-1 $177 1.7763568394002505e-015 $136 11.700000000000001 $175 $236 forward 7 unknown #
vertex $-1 $118 $237 #
straight-curve $-1 -9.6999999999999993 23 -47 0 -1 0 I I #
plane-surface $-1 3 23 -47 0 0 -1 -1 0 0 forward_v I I I I #
coedge $-1 $121 $158 $123 $184 forward $181 $-1 #
loop $-1 $-1 $121 $238 #
straight-curve $-1 -9.6999999999999993 22.5 -39.5 1 0 0 I I #
coedge $-1 $124 $123 $157 $215 reversed $125 $-1 #
edge $-1 $216 3.5527136788005009e-015 $126 0.5 $180 $239 forward 7 unknown #
face $-1 $238 $125 $2 $-1 $240 reversed single #
point $-1 2 22.500000000000004 -39.5 #
coedge $-1 $157 $132 $128 $188 reversed $40 $-1 #
edge $-1 $189 7.1054273576010019e-014 $134 5.5000000000000711 $187 $241 forward 7 unknown #
vertex $-1 $215 $242 #
straight-curve $-1 3 23.000000000000004 -40.5 0 -1 0 I I #
plane-surface $-1 3 23 -39.5 1 0 0 0 0 -1 forward_v I I I I #
ellipse-curve $-1 2.0000000000000018 23 -46.000000000000007 -6.3108872417681841e-030 -1 -3.5527136788005262e-015 -1.7763568394002505e-015 3.5527136788005009e-015 -0.99999999999999289 1 I I #
point $-1 3 23.000000000000004 -46 #
point $-1 2 23.000000000000004 -47 #
face $-1 $243 $244 $2 $-1 $245 reversed single #
loop $-1 $-1 $246 $139 #
plane-surface $-1 17.467784244507456 18.32817527089826 -8.6799999999999926 0 0 -1 0.5 -0.86602540378443893 0 forward_v I I I I #
coedge $-1 $247 $248 $249 $250 forward $140 $-1 #
coedge $-1 $145 $142 $155 $213 reversed $96 $-1 #
coedge $-1 $142 $145 $209 $251 forward $96 $-1 #
coedge $-1 $248 $247 $142 $202 reversed $140 $-1 #
edge $-1 $252 -2.5243548967072557e-029 $253 0.49999999999999645 $142 $254 forward 7 unknown #
edge $-1 $204 0 $153 1.5707963267948801 $151 $255 forward 7 unknown #
vertex $-1 $203 $256 #
vertex $-1 $146 $257 #
straight-curve $-1 -0.98000000000013721 22.499999999999996 -8.6799999999999997 -1.4210854715202004e-014 1 0 I I #
straight-curve $-1 -9.6999999999999993 22.5 -17.399999999999999 0 1 -2.8421709430404007e-014 I I #
straight-curve $-1 -9.6999999999999993 23 -39.5 0 -1 0 I I #
coedge $-1 $151 $163 $200 $251 reversed $10 $-1 #
point $-1 -9.6999999999999993 22.5 -39.5 #
point $-1 -9.6999999999999957 22.5 -17.399999999999956 #
coedge $-1 $258 $155 $259 $260 reversed $40 $-1 #
edge $-1 $205 -1.0658141036401503e-014 $253 12.286403364416197 $199 $261 forward 7 unknown #
ellipse-curve $-1 -0.98000000000000576 23 -17.399999999999967 1.4210854715202521e-014 -1 2.0843297312262379e-028 -1.2789769243681803e-013 0 8.7199999999999918 1 I I #
edge $-1 $189 0 $216 1.5707963267949019 $157 $262 forward 7 unknown #
vertex $-1 $159 $263 #
straight-curve $-1 -9.6999999999999993 23 -39.5 1 0 0 I I #
point $-1 -9.6999999999999993 23 -39.499999999999957 #
point $-1 -9.6999999999999993 23 -17.400000000000013 #
coedge $-1 $264 $265 $163 $221 reversed $266 $-1 #
edge $-1 $225 0 $252 58.110000000000028 $163 $267 forward 7 unknown #
coedge $-1 $268 $164 $167 $228 forward $224 $-1 #
coedge $-1 $164 $268 $269 $270 reversed $224 $-1 #
loop $-1 $-1 $222 $271 #
vertex $-1 $221 $272 #
straight-curve $-1 11.306403364416052 22.5 -66.789999999999992 -1 0 0 I I #
coedge $-1 $167 $166 $273 $274 forward $168 $-1 #
edge $-1 $169 0 $275 0.5 $222 $276 forward 7 unknown #
face $-1 $173 $168 $2 $-1 $277 forward single #
point $-1 -0.98000000000000576 22.5 -66.789999999999935 #
coedge $-1 $175 $273 $171 $232 forward $40 $-1 #
edge $-1 $233 0 $177 11.069999999999951 $171 $278 forward 7 unknown #
vertex $-1 $172 $279 #
straight-curve $-1 -9.6999999999999993 22.499999999999996 -58.069999999999993 0 1 -1.4210854715202004e-014 I I #
plane-surface $-1 -9.6999999999999993 22.75 -37.734999999999999 1 0 0 0 0 1 forward_v I I I I #
straight-curve $-1 -9.7000000000000011 23 -47 1 0 0 I I #
point $-1 -9.6999999999999993 23 -47 #
face $-1 $280 $181 $2 $-1 $281 reversed single #
straight-curve $-1 2 23.000000000000004 -39.5 0 -1 0 I I #
cone-surface $-1 2 23.000500012225064 -40.5 0 -1 0 0 0 1 1 I I 0 1 1 forward I I I I #
straight-curve $-1 3 23 -40.499999999999929 0 0 -1 I I #
point $-1 3 23.000000000000004 -40.5 #
face $-1 $282 $283 $2 $-1 $284 forward single #
loop $-1 $-1 $285 $195 #
plane-surface $-1 20.399670104152666 13.75 -74.870027039722757 -0.86602540378443871 -0.5 0 0 0 1 forward_v I I I I #
coedge $-1 $249 $286 $287 $288 reversed $196 $-1 #
coedge $-1 $201 $198 $289 $290 forward $140 $-1 #
coedge $-1 $198 $201 $265 $291 reversed $140 $-1 #
coedge $-1 $292 $246 $198 $250 reversed $196 $-1 #
edge $-1 $293 0 $294 0.50000000000000289 $249 $295 forward 7 unknown #
edge $-1 $204 0 $252 12.286403364416204 $209 $296 forward 7 unknown #
vertex $-1 $251 $297 #
vertex $-1 $213 $298 #
straight-curve $-1 11.306403364416067 22.5 -8.6800000000000068 -7.1054273576010523e-015 1 0 I I #
ellipse-curve $-1 -0.97999999999999687 22.5 -17.399999999999963 1.421085471520255e-014 -1 2.2290748514502843e-028 -1.3677947663381929e-013 0 8.7199999999999989 1 I I #
point $-1 -0.98000000000013365 22.5 -8.6799999999999642 #
point $-1 -0.98000000000014431 22.999999999999996 -8.680000000000005 #
coedge $-1 $273 $212 $268 $299 forward $40 $-1 #
coedge $-1 $289 $300 $212 $260 forward $301 $-1 #
edge $-1 $302 0 $253 58.109999999999992 $212 $303 forward 7 unknown #
straight-curve $-1 -0.98000000000013365 23 -8.6799999999999997 1 0 0 I I #
ellipse-curve $-1 2.0000000000000018 23 -40.499999999999993 3.5527136788005072e-015 -1 -2.5243548967072467e-029 0.99999999999999822 3.5527136788005009e-015 -7.1054273576010019e-015 1 I I #
point $-1 2.0000000000000036 23 -39.499999999999957 #
coedge $-1 $304 $220 $305 $306 reversed $266 $-1 #
coedge $-1 $220 $304 $248 $291 forward $266 $-1 #
loop $-1 $-1 $304 $307 #
straight-curve $-1 11.30640336441606 22.5 -66.789999999999992 0 0 1 I I #
coedge $-1 $223 $222 $258 $299 reversed $224 $-1 #
coedge $-1 $308 $305 $223 $270 forward $309 $-1 #
edge $-1 $225 0 $302 0.50000000000000355 $223 $310 forward 7 unknown #
face $-1 $229 $224 $2 $-1 $311 reversed single #
point $-1 11.30640336441606 22.5 -66.789999999999992 #
coedge $-1 $231 $258 $227 $274 reversed $40 $-1 #
edge $-1 $233 0 $275 1.570796326794905 $227 $312 forward 7 unknown #
vertex $-1 $299 $313 #
straight-curve $-1 -0.97999999999999865 22.5 -66.789999999999992 0 1 0 I I #
cone-surface $-1 -0.98000000000000487 22.75 -58.069999999999993 2.4868995751603696e-014 -1 1.4210854715202086e-014 -8.7200000000000006 -2.1685764295398424e-013 0 1 I I 0 1 8.7200000000000006 forward I I I I #
straight-curve $-1 -9.6999999999999993 23 -58.069999999999951 0 0 1 I I #
point $-1 -9.7000000000000171 23 -58.069999999999951 #
face $-1 $-1 $301 $2 $-1 $314 forward single #
plane-surface $-1 -9.6999999999999993 23 -39.5 0 0 1 1 0 0 forward_v I I I I #
face $-1 $315 $316 $2 $-1 $317 forward single #
loop $-1 $-1 $318 $243 #
plane-surface $-1 17.467784244507456 18.32817527089826 -66.789999999999992 0 0 -1 0.5 -0.86602540378443893 0 forward_v I I I I #
coedge $-1 $319 $320 $321 $322 reversed $244 $-1 #
coedge $-1 $246 $292 $323 $324 forward $196 $-1 #
coedge $-1 $325 $319 $246 $288 forward $244 $-1 #
edge $-1 $294 -1.3003834588134473e-015 $326 0.99488842575461411 $246 $327 forward 7 unknown #
coedge $-1 $328 $259 $247 $290 reversed $301 $-1 #
edge $-1 $294 0 $253 1.0471975511965954 $247 $329 forward 7 unknown #
edge $-1 $293 0 $252 1.0471975511966041 $265 $330 forward 7 unknown #
coedge $-1 $286 $249 $331 $332 forward $196 $-1 #
vertex $-1 $333 $334 #
vertex $-1 $250 $335 #
straight-curve $-1 16.502555787122695 19.499999999999996 -8.6799999999999926 0.86602540378443627 0.50000000000000433 0 I I #
straight-curve $-1 -0.98000000000013365 22.5 -8.6799999999999997 1 0 0 I I #
point $-1 11.30640336441607 22.5 -8.6799999999999677 #
point $-1 11.306403364416063 22.999999999999996 -8.6799999999999997 #
edge $-1 $302 -1.0658141036401503e-014 $275 12.286403364416051 $268 $336 forward 7 unknown #
coedge $-1 $259 $328 $308 $337 forward $301 $-1 #
loop $-1 $-1 $259 $280 #
vertex $-1 $270 $338 #
straight-curve $-1 11.30640336441606 23 -66.789999999999992 0 0 1 I I #
coedge $-1 $265 $264 $339 $333 forward $266 $-1 #
coedge $-1 $269 $340 $264 $306 forward $309 $-1 #
edge $-1 $341 0 $225 1.047197551196597 $264 $342 forward 7 unknown #
face $-1 $343 $266 $2 $-1 $344 reversed single #
coedge $-1 $340 $269 $300 $337 reversed $309 $-1 #
loop $-1 $-1 $269 $343 #
straight-curve $-1 11.30640336441606 22.5 -66.789999999999992 7.1054273576009514e-015 1 0 I I #
plane-surface $-1 5.1632016822080322 22.75 -66.789999999999992 0 0 1 -1 0 0 forward_v I I I I #
ellipse-curve $-1 -0.98000000000005016 23 -58.069999999999972 3.4738828853769803e-029 -1 1.4210854715202146e-014 -8.7199999999999669 0 2.1316282072803006e-014 1 I I #
point $-1 -0.97999999999999865 23 -66.789999999999992 #
cone-surface $-1 11.306403364416061 16.5 -108.61586733389871 0 0 1 0 6.5 0 1 I I 0 1 6.5 forward I I I I #
face $-1 $345 $346 $2 $-1 $347 reversed single #
loop $-1 $-1 $348 $282 #
plane-surface $-1 19.966657402260445 13.5 -74.870027039722757 -0.86602540378443871 -0.5 0 0 0 1 forward_v I I I I #
coedge $-1 $349 $350 $351 $352 reversed $283 $-1 #
coedge $-1 $287 $285 $328 $353 forward $244 $-1 #
coedge $-1 $285 $354 $355 $356 forward $244 $-1 #
coedge $-1 $350 $349 $285 $322 forward $283 $-1 #
edge $-1 $357 -1.3003834588134388e-015 $358 0.99488842575460446 $321 $359 forward 7 unknown #
coedge $-1 $360 $361 $286 $324 reversed $362 $-1 #
edge $-1 $363 0 $326 0.50000000000000233 $286 $364 forward 7 unknown #
coedge $-1 $354 $287 $361 $365 forward $244 $-1 #
vertex $-1 $324 $366 #
straight-curve $-1 16.935568489014912 19.749999999999996 -8.6799999999999926 0.50000000000000089 -0.86602540378443826 0 I I #
coedge $-1 $300 $289 $319 $353 reversed $301 $-1 #
ellipse-curve $-1 11.306403364416056 16.499999999999986 -8.6800000000000068 0 0 1 5.6291651245988596 3.2500000000000142 0 1 I I #
ellipse-curve $-1 11.306403364416084 16.500000000000036 -8.6800000000000068 0 0 1 5.1961524227066107 2.9999999999999609 0 1 I I #
coedge $-1 $339 $367 $292 $332 reversed $316 $-1 #
edge $-1 $293 0 $363 0.99488842575460745 $331 $368 forward 7 unknown #
edge $-1 $341 0 $293 58.109999999999985 $339 $369 forward 7 unknown #
point $-1 16.502555787122695 19.499999999999996 -8.6800000000000068 #
point $-1 16.935568489014916 19.75 -8.6800000000000068 #
straight-curve $-1 11.306403364416052 23 -66.789999999999992 -1 0 0 I I #
edge $-1 $357 0 $302 1.0471975511965887 $308 $370 forward 7 unknown #
point $-1 11.306403364416063 23.000000000000004 -66.789999999999992 #
coedge $-1 $351 $331 $304 $333 reversed $316 $-1 #
coedge $-1 $305 $308 $349 $371 reversed $309 $-1 #
vertex $-1 $352 $372 #
ellipse-curve $-1 11.30640336441606 16.499999999999993 -66.789999999999992 0 0 1 5.1961524227066356 3.0000000000000071 0 1 I I #
face $-1 $271 $309 $2 $-1 $373 reversed single #
cone-surface $-1 11.306403364416061 16.5 -108.61586733389871 0 0 1 0 6 0 1 I I 0 1 6 forward I I I I #
face $-1 $374 $362 $2 $-1 $375 forward single #
loop $-1 $-1 $376 $315 #
plane-surface $-1 18.216506350946108 17.03135054179652 -37.734999999999992 -0.50000000000000211 0.86602540378443749 0 0 0 -1 forward_v I I I I #
coedge $-1 $367 $377 $378 $379 reversed $316 $-1 #
coedge $-1 $321 $318 $340 $371 forward $283 $-1 #
coedge $-1 $318 $321 $380 $381 reversed $283 $-1 #
coedge $-1 $377 $339 $318 $352 forward $316 $-1 #
edge $-1 $341 -6.1534805964274129e-015 $382 0.99488842575460479 $351 $383 forward 7 unknown #
edge $-1 $357 2.1720486118630514e-031 $294 58.109999999999985 $319 $384 forward 7 unknown #
coedge $-1 $320 $325 $376 $385 forward $244 $-1 #
coedge $-1 $386 $380 $320 $356 reversed $387 $-1 #
edge $-1 $388 0 $358 1.5707963267948886 $320 $389 forward 7 unknown #
vertex $-1 $322 $390 #
vertex $-1 $381 $391 #
straight-curve $-1 16.935568489014912 19.749999999999996 -66.789999999999992 0.50000000000000233 -0.86602540378443726 0 I I #
coedge $-1 $392 $323 $367 $393 reversed $362 $-1 #
coedge $-1 $323 $392 $325 $365 reversed $362 $-1 #
loop $-1 $-1 $360 $345 #
vertex $-1 $332 $394 #
straight-curve $-1 17 18.638401349365399 -8.6799999999999926 0.86602540378444415 0.49999999999999056 0 I I #
edge $-1 $326 0 $395 1.5707963267949028 $325 $396 forward 7 unknown #
point $-1 17.433012701892224 18.888401349365395 -8.6799999999999926 #
coedge $-1 $331 $348 $360 $393 forward $316 $-1 #
straight-curve $-1 16.502555787122695 19.499999999999996 -8.6799999999999926 0.49999999999999972 -0.86602540378443893 0 I I #
straight-curve $-1 16.502555787122692 19.5 -66.789999999999992 0 0 1 I I #
ellipse-curve $-1 11.306403364416031 16.49999999999995 -66.789999999999992 0 0 1 5.6291651245988845 3.2500000000000497 0 1 I I #
edge $-1 $341 0 $357 0.500000000000001 $349 $397 forward 7 unknown #
point $-1 16.502555787122695 19.5 -66.789999999999992 #
plane-surface $-1 14.431403364416061 21.912658773652741 -66.789999999999992 0 0 1 -0.5 0.86602540378443871 0 forward_v I I I I #
face $-1 $307 $387 $2 $-1 $398 forward single #
cone-surface $-1 16.999566976710895 18.638151343252868 -10.679999999999993 0.86602540378443882 0.49999999999999989 0 1 -1.7320508075688781 0 1 I I 0 1 2.0000000000000004 forward I I I I #
coedge $-1 $399 $400 $354 $385 reversed $346 $-1 #
coedge $-1 $348 $351 $401 $402 forward $316 $-1 #
coedge $-1 $400 $399 $348 $379 forward $346 $-1 #
edge $-1 $403 0 $404 54.109999999999999 $348 $405 forward 7 unknown #
coedge $-1 $355 $401 $350 $381 forward $387 $-1 #
edge $-1 $382 0 $358 0.49999999999999184 $350 $406 forward 7 unknown #
vertex $-1 $402 $407 #
straight-curve $-1 16.502555787122695 19.499999999999993 -66.789999999999992 0.49999999999999795 -0.86602540378443982 0 I I #
straight-curve $-1 16.935568489014912 19.749999999999996 -66.789999999999992 0 6.1137733243856509e-017 1 I I #
edge $-1 $395 0 $388 54.109999999999985 $376 $408 forward 7 unknown #
coedge $-1 $401 $355 $400 $409 reversed $387 $-1 #
loop $-1 $-1 $401 $374 #
vertex $-1 $409 $410 #
ellipse-curve $-1 17.433012701892213 18.888401349365402 -64.789999999999978 0.86602540378443771 0.50000000000000167 1.3410635388757097e-029 1.0000000000000071 -1.7320508075688821 -1.4210854715202004e-014 1 I I #
point $-1 16.935568489014916 19.75 -66.789999999999992 #
point $-1 17.433012701892217 18.888401349365402 -66.789999999999992 #
coedge $-1 $361 $360 $399 $411 forward $362 $-1 #
edge $-1 $403 0 $363 1.5707963267948972 $367 $412 forward 7 unknown #
point $-1 17 18.638401349365399 -8.6799999999999926 #
vertex $-1 $411 $413 #
ellipse-curve $-1 17.433012701892221 18.888401349365395 -10.679999999999993 0.86602540378443871 0.5 -1.5383701491068513e-015 3.5527136788005009e-015 0 2 1 I I #
straight-curve $-1 16.502555787122695 19.5 -66.789999999999992 0.86602540378443926 0.499999999999999 0 I I #
cone-surface $-1 16.999566976710891 18.638151343252865 -64.789999999999992 0.86602540378443715 0.50000000000000266 0 0 0 -2 1 I I 0 1 2 forward I I I I #
coedge $-1 $378 $376 $392 $411 reversed $346 $-1 #
coedge $-1 $376 $378 $386 $409 forward $346 $-1 #
coedge $-1 $380 $386 $377 $402 reversed $387 $-1 #
edge $-1 $382 0 $404 1.570796326794901 $377 $414 forward 7 unknown #
vertex $-1 $393 $415 #
vertex $-1 $402 $416 #
straight-curve $-1 18 16.90635054179652 -10.679999999999993 0 0 -1 I I #
straight-curve $-1 17.000000000000007 18.638401349365402 -66.789999999999992 0.86602540378443393 0.50000000000000822 0 I I #
point $-1 17.000000000000007 18.638401349365402 -66.789999999999992 #
straight-curve $-1 18.433012701892217 17.15635054179652 -10.680000000000007 0 0 -1 I I #
edge $-1 $404 0 $388 0.500000000000001 $400 $417 forward 7 unknown #
point $-1 18.433012701892221 17.15635054179652 -64.789999999999992 #
edge $-1 $403 -1.7763568394002469e-015 $395 0.49999999999999922 $399 $418 forward 7 unknown #
ellipse-curve $-1 16.999999999999996 18.638401349365395 -10.679999999999993 -0.86602540378443771 -0.50000000000000189 0 1.0000000000000036 -1.732050807568875 0 1 I I #
point $-1 18.433012701892221 17.156350541796517 -10.680000000000007 #
ellipse-curve $-1 17 18.638401349365388 -64.789999999999992 -0.86602540378443871 -0.5 -6.6294539770142038e-015 7.1054273576010019e-015 1.4210854715202004e-014 -2 1 I I #
point $-1 18 16.906350541796517 -10.679999999999993 #
point $-1 18 16.90635054179652 -64.789999999999992 #
straight-curve $-1 18 16.90635054179652 -64.789999999999992 0.86602540378443926 0.499999999999999 0 I I #
straight-curve $-1 18 16.90635054179652 -10.679999999999993 0.86602540378443926 0.499999999999999 0 I I #
End-of-ACIS-data 