600 0 1 0           
87 GICL ACIS Healer - Source: /gicl/data5/repository/PTC/V18/fly_small18/rubber_.sat - 6 0 18 ACIS 6.0.3 Solaris 24 Sat Apr 13 22:06:26 2002 
1 9.999999999999999547e-07 1.000000000000000036e-10 
body $-1 $1 $-1 $-1 #
lump $-1 $-1 $2 $0 #
shell $-1 $-1 $-1 $3 $-1 $1 #
face $-1 $4 $5 $2 $-1 $6 reversed single #
face $-1 $7 $8 $2 $-1 $9 reversed single #
loop $-1 $10 $11 $3 #
plane-surface $-1 -10.02408068877323544 22.5 -37.5 0 1 0 0 0 1 forward_v I I I I #
face $-1 $12 $13 $2 $-1 $14 reversed single #
loop $-1 $-1 $15 $4 #
cone-surface $-1 -2 23 -57.5 0 1 0 5 0 0 1 I I 0 1 5 forward I I I I #
loop $-1 $-1 $16 $3 #
coedge $-1 $17 $17 $18 $19 forward $5 $-1 #
face $-1 $20 $21 $2 $-1 $22 forward single #
loop $-1 $-1 $23 $7 #
cone-surface $-1 -2 23 -57.5 0 1 0 5 0 0 1 I I 0 1 5 forward I I I I #
coedge $-1 $24 $18 $25 $26 reversed $8 $-1 #
coedge $-1 $27 $28 $29 $30 forward $10 $-1 #
coedge $-1 $11 $11 $31 $32 forward $5 $-1 #
coedge $-1 $15 $33 $11 $19 reversed $8 $-1 #
edge $-1 $34 0 $35 3.141592653589793116 $11 $36 forward 7 unknown #
face $-1 $37 $38 $2 $-1 $39 reversed single #
loop $-1 $40 $41 $12 #
plane-surface $-1 -10.02408068877323544 23 -37.5 0 1 0 0 0 1 forward_v I I I I #
coedge $-1 $42 $31 $33 $43 reversed $13 $-1 #
coedge $-1 $33 $15 $41 $44 forward $8 $-1 #
coedge $-1 $31 $42 $15 $26 forward $13 $-1 #
edge $-1 $45 -0 $34 0.5 $25 $46 forward 7 unknown #
coedge $-1 $47 $16 $48 $49 reversed $10 $-1 #
coedge $-1 $16 $50 $51 $52 forward $10 $-1 #
coedge $-1 $53 $54 $16 $30 reversed $55 $-1 #
edge $-1 $56 4.263256414560633932e-14 $57 1.570796326794905662 $16 $58 forward 7 unknown #
coedge $-1 $23 $25 $17 $32 reversed $13 $-1 #
edge $-1 $35 0 $34 3.141592653589809991 $17 $59 forward 7 unknown #
coedge $-1 $18 $24 $23 $43 forward $8 $-1 #
vertex $-1 $32 $60 #
vertex $-1 $32 $61 #
ellipse-curve $-1 -2.000000000000005329 22.5 -57.5 0 1 0 5 0 0 1 I I #
face $-1 $62 $63 $2 $-1 $64 forward single #
loop $-1 $-1 $65 $20 #
plane-surface $-1 -9.699999999999999289 22.75 -37.73499999999999943 1 0 0 0 0 1 forward_v I I I I #
loop $-1 $-1 $66 $12 #
coedge $-1 $67 $67 $24 $44 reversed $21 $-1 #
coedge $-1 $25 $23 $67 $68 forward $13 $-1 #
edge $-1 $69 0 $35 0.5 $23 $70 forward 7 unknown #
edge $-1 $45 0 $69 3.141592653589793116 $41 $71 forward 7 unknown #
vertex $-1 $68 $72 #
straight-curve $-1 3 23 -57.5 0 -1 -5.684341886080761097e-14 I I #
coedge $-1 $73 $27 $74 $75 reversed $10 $-1 #
coedge $-1 $76 $77 $27 $49 forward $78 $-1 #
edge $-1 $79 1.776356839400250465e-15 $57 11.70000000000000107 $27 $80 forward 7 unknown #
coedge $-1 $28 $81 $82 $83 forward $10 $-1 #
coedge $-1 $84 $85 $28 $52 reversed $86 $-1 #
edge $-1 $87 0 $56 5.500000000000056843 $28 $88 forward 7 unknown #
coedge $-1 $89 $29 $85 $90 reversed $55 $-1 #
coedge $-1 $29 $89 $76 $91 forward $55 $-1 #
loop $-1 $-1 $29 $92 #
vertex $-1 $52 $93 #
vertex $-1 $49 $94 #
ellipse-curve $-1 2.000000000000001776 22.5 -46.00000000000000711 -3.55271367880050724e-15 1 -2.524354896707246746e-29 0.9999999999999982236 3.552713678800500929e-15 7.105427357601001859e-15 1 I I #
ellipse-curve $-1 -2.000000000000005329 22.5 -57.49999999999995737 0 1 0 -5.000000000000000888 0 -4.263256414560601115e-14 1 I I #
point $-1 2.999999999999994671 22.5 -57.5 #
point $-1 -7.000000000000006217 22.5 -57.5 #
face $-1 $95 $96 $2 $-1 $97 reversed single #
loop $-1 $-1 $98 $37 #
cone-surface $-1 -0.9800000000000022027 22.75 -17.39999999999999858 1.421085471520210469e-14 -1 2.842170943040423463e-14 -1.385558334732230703e-13 2.47837306233122963e-13 8.720000000000000639 1 I I 0 1 8.720000000000000639 forward I I I I #
coedge $-1 $99 $100 $101 $102 forward $38 $-1 #
coedge $-1 $103 $104 $105 $106 forward $40 $-1 #
coedge $-1 $41 $41 $42 $68 reversed $21 $-1 #
edge $-1 $69 0 $45 3.141592653589793116 $67 $107 forward 7 unknown #
vertex $-1 $68 $108 #
straight-curve $-1 -7 23 -57.50000000000001421 0 -1 0 I I #
ellipse-curve $-1 -2 23 -57.5 0 1 0 4.999999999999991118 0 0 1 I I #
point $-1 2.999999999999991118 23 -57.5 #
coedge $-1 $109 $47 $110 $111 forward $10 $-1 #
coedge $-1 $112 $113 $47 $75 forward $114 $-1 #
edge $-1 $115 0 $79 11.06999999999995055 $47 $116 forward 7 unknown #
coedge $-1 $117 $48 $54 $91 reversed $78 $-1 #
coedge $-1 $48 $117 $112 $118 forward $78 $-1 #
loop $-1 $-1 $117 $119 #
vertex $-1 $75 $120 #
straight-curve $-1 -9.700000000000001066 22.5 -47 1 0 0 I I #
coedge $-1 $50 $101 $121 $122 forward $10 $-1 #
coedge $-1 $123 $124 $50 $83 reversed $125 $-1 #
edge $-1 $126 0 $87 1.570796326794891229 $50 $127 forward 7 unknown #
coedge $-1 $128 $51 $124 $129 reversed $86 $-1 #
coedge $-1 $51 $128 $53 $90 forward $86 $-1 #
loop $-1 $-1 $51 $130 #
vertex $-1 $52 $131 #
straight-curve $-1 3 22.5 -40.49999999999998579 0 0 -1 I I #
coedge $-1 $54 $53 $132 $133 reversed $55 $-1 #
edge $-1 $134 0 $56 0.5000000000000035527 $85 $135 forward 7 unknown #
edge $-1 $136 0 $57 0.5 $76 $137 forward 7 unknown #
face $-1 $130 $55 $2 $-1 $138 reversed single #
point $-1 2.999999999999992895 22.5 -46.00000000000004263 #
point $-1 2 22.50000000000000355 -47 #
face $-1 $139 $140 $2 $-1 $141 forward single #
loop $-1 $-1 $142 $62 #
plane-surface $-1 5.163201682207963827 22.75 -8.679999999999999716 0 0 -1 1 0 0 forward_v I I I I #
coedge $-1 $143 $144 $145 $146 forward $63 $-1 #
coedge $-1 $105 $65 $147 $148 forward $38 $-1 #
coedge $-1 $65 $105 $149 $150 forward $38 $-1 #
coedge $-1 $81 $151 $65 $102 reversed $10 $-1 #
edge $-1 $152 -4.263256414560601115e-14 $153 22.10000000000000142 $101 $154 forward 7 unknown #
coedge $-1 $155 $66 $143 $156 reversed $40 $-1 #
coedge $-1 $66 $157 $158 $159 reversed $40 $-1 #
coedge $-1 $100 $99 $66 $106 reversed $38 $-1 #
edge $-1 $160 0 $161 22.09999999999994458 $105 $162 forward 7 unknown #
ellipse-curve $-1 -2 23 -57.5 0 1 0 -5.000000000000005329 0 0 1 I I #
point $-1 -7.000000000000005329 23 -57.5 #
coedge $-1 $163 $73 $164 $165 reversed $10 $-1 #
coedge $-1 $166 $167 $73 $111 reversed $168 $-1 #
edge $-1 $115 0 $169 1.570796326794904774 $73 $170 forward 7 unknown #
coedge $-1 $171 $74 $77 $118 reversed $114 $-1 #
coedge $-1 $74 $171 $166 $172 reversed $114 $-1 #
loop $-1 $-1 $171 $173 #
vertex $-1 $111 $174 #
straight-curve $-1 -9.699999999999999289 22.5 -58.06999999999995055 0 0 1 I I #
coedge $-1 $77 $76 $175 $176 reversed $78 $-1 #
edge $-1 $177 0 $79 0.5 $112 $178 forward 7 unknown #
face $-1 $92 $78 $2 $-1 $179 reversed single #
point $-1 -9.699999999999999289 22.5 -47 #
coedge $-1 $149 $180 $81 $122 reversed $181 $-1 #
edge $-1 $152 0 $126 11.69999999999999929 $81 $182 forward 7 unknown #
coedge $-1 $183 $82 $180 $184 reversed $125 $-1 #
coedge $-1 $82 $183 $84 $129 forward $125 $-1 #
loop $-1 $-1 $82 $185 #
vertex $-1 $83 $186 #
ellipse-curve $-1 2.000000000000001776 22.5 -40.49999999999999289 6.310887241768184126e-30 1 -3.552713678800526173e-15 -1.776356839400250465e-15 3.552713678800500929e-15 0.9999999999999928946 1 I I #
coedge $-1 $85 $84 $187 $188 forward $86 $-1 #
edge $-1 $189 0 $87 0.5000000000000035527 $84 $190 forward 7 unknown #
face $-1 $185 $86 $2 $-1 $191 reversed single #
point $-1 3.000000000000001776 22.5 -40.49999999999998579 #
coedge $-1 $187 $175 $89 $133 forward $40 $-1 #
edge $-1 $136 0 $134 1.570796326794905662 $132 $192 forward 7 unknown #
vertex $-1 $188 $193 #
straight-curve $-1 3 23.00000000000000355 -46 0 -1 0 I I #
vertex $-1 $133 $194 #
straight-curve $-1 2 23.00000000000000355 -47 0 -1 0 I I #
cone-surface $-1 2 23.00050001222506424 -46 0 -1 0 1 0 0 1 I I 0 1 1 forward I I I I #
face $-1 $195 $196 $2 $-1 $197 reversed single #
loop $-1 $-1 $198 $95 #
plane-surface $-1 14.43140336441606308 21.91265877365274051 -8.680000000000006821 0 0 1 -0.5 0.8660254037844385966 0 forward_v I I I I #
coedge $-1 $199 $200 $201 $202 forward $96 $-1 #
coedge $-1 $147 $98 $103 $156 forward $63 $-1 #
coedge $-1 $98 $147 $151 $203 reversed $63 $-1 #
coedge $-1 $200 $199 $98 $146 reversed $96 $-1 #
edge $-1 $204 3.552713678800450442e-15 $205 0.5 $145 $206 forward 7 unknown #
coedge $-1 $144 $143 $99 $148 reversed $63 $-1 #
edge $-1 $153 -1.211690350419474133e-27 $161 0.5 $147 $207 forward 7 unknown #
coedge $-1 $158 $121 $100 $150 reversed $181 $-1 #
edge $-1 $160 0 $152 0.5 $100 $208 forward 7 unknown #
coedge $-1 $101 $209 $144 $203 forward $10 $-1 #
vertex $-1 $122 $210 #
vertex $-1 $102 $211 #
straight-curve $-1 -9.699999999999999289 22.5 -39.49999999999995737 0 0 1 I I #
coedge $-1 $212 $103 $199 $213 forward $40 $-1 #
edge $-1 $205 1.222263880321336728e-15 $161 1.570796326794887232 $143 $214 forward 7 unknown #
coedge $-1 $104 $187 $183 $215 forward $40 $-1 #
coedge $-1 $180 $149 $104 $159 forward $181 $-1 #
edge $-1 $160 0 $216 11.70000000000000284 $104 $217 forward 7 unknown #
vertex $-1 $150 $218 #
vertex $-1 $148 $219 #
straight-curve $-1 -9.699999999999999289 23 -39.49999999999995737 0 0 1 I I #
coedge $-1 $209 $109 $220 $221 forward $10 $-1 #
coedge $-1 $222 $223 $109 $165 forward $224 $-1 #
edge $-1 $225 -7.105427357601001859e-15 $169 12.28640336441605818 $109 $226 forward 7 unknown #
coedge $-1 $227 $110 $113 $172 forward $168 $-1 #
coedge $-1 $110 $227 $222 $228 reversed $168 $-1 #
loop $-1 $-1 $166 $229 #
vertex $-1 $165 $230 #
ellipse-curve $-1 -0.9800000000000466116 22.5 -58.06999999999997897 4.631843847169319555e-29 -1 1.421085471520216465e-14 -8.719999999999956231 0 2.842170943040400743e-14 1 I I #
coedge $-1 $113 $112 $231 $232 reversed $114 $-1 #
edge $-1 $115 3.552713678799895084e-15 $233 0.5000000000000035527 $113 $234 forward 7 unknown #
face $-1 $119 $114 $2 $-1 $235 reversed single #
point $-1 -9.700000000000002842 22.5 -58.06999999999995055 #
coedge $-1 $132 $231 $117 $176 forward $40 $-1 #
edge $-1 $177 1.776356839400250465e-15 $136 11.70000000000000107 $175 $236 forward 7 unknown #
vertex $-1 $118 $237 #
straight-curve $-1 -9.699999999999999289 23 -47 0 -1 0 I I #
plane-surface $-1 3 23 -47 0 0 -1 -1 0 0 forward_v I I I I #
coedge $-1 $121 $158 $123 $184 forward $181 $-1 #
loop $-1 $-1 $121 $238 #
straight-curve $-1 -9.699999999999999289 22.5 -39.5 1 0 0 I I #
coedge $-1 $124 $123 $157 $215 reversed $125 $-1 #
edge $-1 $216 3.552713678800500929e-15 $126 0.5 $180 $239 forward 7 unknown #
face $-1 $238 $125 $2 $-1 $240 reversed single #
point $-1 2 22.50000000000000355 -39.5 #
coedge $-1 $157 $132 $128 $188 reversed $40 $-1 #
edge $-1 $189 7.105427357601001859e-14 $134 5.500000000000071054 $187 $241 forward 7 unknown #
vertex $-1 $215 $242 #
straight-curve $-1 3 23.00000000000000355 -40.5 0 -1 0 I I #
plane-surface $-1 3 23 -39.5 1 0 0 0 0 -1 forward_v I I I I #
ellipse-curve $-1 2.000000000000001776 23 -46.00000000000000711 -6.310887241768184126e-30 -1 -3.552713678800526173e-15 -1.776356839400250465e-15 3.552713678800500929e-15 -0.9999999999999928946 1 I I #
point $-1 3 23.00000000000000355 -46 #
point $-1 2 23.00000000000000355 -47 #
face $-1 $243 $244 $2 $-1 $245 reversed single #
loop $-1 $-1 $246 $139 #
plane-surface $-1 17.46778424450745604 18.32817527089826015 -8.67999999999999261 0 0 -1 0.5 -0.8660254037844389297 0 forward_v I I I I #
coedge $-1 $247 $248 $249 $250 forward $140 $-1 #
coedge $-1 $145 $142 $155 $213 reversed $96 $-1 #
coedge $-1 $142 $145 $209 $251 forward $96 $-1 #
coedge $-1 $248 $247 $142 $202 reversed $140 $-1 #
edge $-1 $252 -2.524354896707255714e-29 $253 0.4999999999999964473 $142 $254 forward 7 unknown #
edge $-1 $204 0 $153 1.570796326794880127 $151 $255 forward 7 unknown #
vertex $-1 $203 $256 #
vertex $-1 $146 $257 #
straight-curve $-1 -0.9800000000001372058 22.49999999999999645 -8.679999999999999716 -1.421085471520200372e-14 1 0 I I #
straight-curve $-1 -9.699999999999999289 22.5 -17.39999999999999858 0 1 -2.842170943040400743e-14 I I #
straight-curve $-1 -9.699999999999999289 23 -39.5 0 -1 0 I I #
coedge $-1 $151 $163 $200 $251 reversed $10 $-1 #
point $-1 -9.699999999999999289 22.5 -39.5 #
point $-1 -9.699999999999995737 22.5 -17.39999999999995595 #
coedge $-1 $258 $155 $259 $260 reversed $40 $-1 #
edge $-1 $205 -1.065814103640150279e-14 $253 12.28640336441619674 $199 $261 forward 7 unknown #
ellipse-curve $-1 -0.9800000000000057554 23 -17.3999999999999666 1.421085471520252121e-14 -1 2.084329731226237941e-28 -1.278976924368180335e-13 0 8.719999999999991758 1 I I #
edge $-1 $189 0 $216 1.570796326794902109 $157 $262 forward 7 unknown #
vertex $-1 $159 $263 #
straight-curve $-1 -9.699999999999999289 23 -39.5 1 0 0 I I #
point $-1 -9.699999999999999289 23 -39.49999999999995737 #
point $-1 -9.699999999999999289 23 -17.40000000000001279 #
coedge $-1 $264 $265 $163 $221 reversed $266 $-1 #
edge $-1 $225 0 $252 58.11000000000002785 $163 $267 forward 7 unknown #
coedge $-1 $268 $164 $167 $228 forward $224 $-1 #
coedge $-1 $164 $268 $269 $270 reversed $224 $-1 #
loop $-1 $-1 $222 $271 #
vertex $-1 $221 $272 #
straight-curve $-1 11.30640336441605243 22.5 -66.78999999999999204 -1 0 0 I I #
coedge $-1 $167 $166 $273 $274 forward $168 $-1 #
edge $-1 $169 0 $275 0.5 $222 $276 forward 7 unknown #
face $-1 $173 $168 $2 $-1 $277 forward single #
point $-1 -0.9800000000000057554 22.5 -66.7899999999999352 #
coedge $-1 $175 $273 $171 $232 forward $40 $-1 #
edge $-1 $233 0 $177 11.06999999999995055 $171 $278 forward 7 unknown #
vertex $-1 $172 $279 #
straight-curve $-1 -9.699999999999999289 22.49999999999999645 -58.06999999999999318 0 1 -1.421085471520200372e-14 I I #
plane-surface $-1 -9.699999999999999289 22.75 -37.73499999999999943 1 0 0 0 0 1 forward_v I I I I #
straight-curve $-1 -9.700000000000001066 23 -47 1 0 0 I I #
point $-1 -9.699999999999999289 23 -47 #
face $-1 $280 $181 $2 $-1 $281 reversed single #
straight-curve $-1 2 23.00000000000000355 -39.5 0 -1 0 I I #
cone-surface $-1 2 23.00050001222506424 -40.5 0 -1 0 0 0 1 1 I I 0 1 1 forward I I I I #
straight-curve $-1 3 23 -40.49999999999992895 0 0 -1 I I #
point $-1 3 23.00000000000000355 -40.5 #
face $-1 $282 $283 $2 $-1 $284 forward single #
loop $-1 $-1 $285 $195 #
plane-surface $-1 20.39967010415266557 13.75 -74.87002703972275697 -0.8660254037844387076 -0.5 0 0 0 1 forward_v I I I I #
coedge $-1 $249 $286 $287 $288 reversed $196 $-1 #
coedge $-1 $201 $198 $289 $290 forward $140 $-1 #
coedge $-1 $198 $201 $265 $291 reversed $140 $-1 #
coedge $-1 $292 $246 $198 $250 reversed $196 $-1 #
edge $-1 $293 0 $294 0.5000000000000028866 $249 $295 forward 7 unknown #
edge $-1 $204 0 $252 12.28640336441620384 $209 $296 forward 7 unknown #
vertex $-1 $251 $297 #
vertex $-1 $213 $298 #
straight-curve $-1 11.30640336441606664 22.5 -8.680000000000006821 -7.105427357601052346e-15 1 0 I I #
ellipse-curve $-1 -0.9799999999999968736 22.5 -17.39999999999996305 1.421085471520254961e-14 -1 2.229074851450284316e-28 -1.367794766338192858e-13 0 8.719999999999998863 1 I I #
point $-1 -0.9800000000001336531 22.5 -8.679999999999964189 #
point $-1 -0.9800000000001443112 22.99999999999999645 -8.680000000000005045 #
coedge $-1 $273 $212 $268 $299 forward $40 $-1 #
coedge $-1 $289 $300 $212 $260 forward $301 $-1 #
edge $-1 $302 0 $253 58.10999999999999233 $212 $303 forward 7 unknown #
straight-curve $-1 -0.9800000000001336531 23 -8.679999999999999716 1 0 0 I I #
ellipse-curve $-1 2.000000000000001776 23 -40.49999999999999289 3.55271367880050724e-15 -1 -2.524354896707246746e-29 0.9999999999999982236 3.552713678800500929e-15 -7.105427357601001859e-15 1 I I #
point $-1 2.000000000000003553 23 -39.49999999999995737 #
coedge $-1 $304 $220 $305 $306 reversed $266 $-1 #
coedge $-1 $220 $304 $248 $291 forward $266 $-1 #
loop $-1 $-1 $304 $307 #
straight-curve $-1 11.30640336441605953 22.5 -66.78999999999999204 0 0 1 I I #
coedge $-1 $223 $222 $258 $299 reversed $224 $-1 #
coedge $-1 $308 $305 $223 $270 forward $309 $-1 #
edge $-1 $225 0 $302 0.5000000000000035527 $223 $310 forward 7 unknown #
face $-1 $229 $224 $2 $-1 $311 reversed single #
point $-1 11.30640336441605953 22.5 -66.78999999999999204 #
coedge $-1 $231 $258 $227 $274 reversed $40 $-1 #
edge $-1 $233 0 $275 1.570796326794904996 $227 $312 forward 7 unknown #
vertex $-1 $299 $313 #
straight-curve $-1 -0.97999999999999865 22.5 -66.78999999999999204 0 1 0 I I #
cone-surface $-1 -0.9800000000000048672 22.75 -58.06999999999999318 2.486899575160369583e-14 -1 1.421085471520208576e-14 -8.720000000000000639 -2.168576429539842398e-13 0 1 I I 0 1 8.720000000000000639 forward I I I I #
straight-curve $-1 -9.699999999999999289 23 -58.06999999999995055 0 0 1 I I #
point $-1 -9.700000000000017053 23 -58.06999999999995055 #
face $-1 $-1 $301 $2 $-1 $314 forward single #
plane-surface $-1 -9.699999999999999289 23 -39.5 0 0 1 1 0 0 forward_v I I I I #
face $-1 $315 $316 $2 $-1 $317 forward single #
loop $-1 $-1 $318 $243 #
plane-surface $-1 17.46778424450745604 18.32817527089826015 -66.78999999999999204 0 0 -1 0.5 -0.8660254037844389297 0 forward_v I I I I #
coedge $-1 $319 $320 $321 $322 reversed $244 $-1 #
coedge $-1 $246 $292 $323 $324 forward $196 $-1 #
coedge $-1 $325 $319 $246 $288 forward $244 $-1 #
edge $-1 $294 -1.300383458813447303e-15 $326 0.9948884257546141141 $246 $327 forward 7 unknown #
coedge $-1 $328 $259 $247 $290 reversed $301 $-1 #
edge $-1 $294 0 $253 1.047197551196595411 $247 $329 forward 7 unknown #
edge $-1 $293 0 $252 1.047197551196604071 $265 $330 forward 7 unknown #
coedge $-1 $286 $249 $331 $332 forward $196 $-1 #
vertex $-1 $333 $334 #
vertex $-1 $250 $335 #
straight-curve $-1 16.50255578712269511 19.49999999999999645 -8.67999999999999261 0.8660254037844362651 0.5000000000000043299 0 I I #
straight-curve $-1 -0.9800000000001336531 22.5 -8.679999999999999716 1 0 0 I I #
point $-1 11.30640336441607019 22.5 -8.679999999999967741 #
point $-1 11.30640336441606308 22.99999999999999645 -8.679999999999999716 #
edge $-1 $302 -1.065814103640150279e-14 $275 12.28640336441605108 $268 $336 forward 7 unknown #
coedge $-1 $259 $328 $308 $337 forward $301 $-1 #
loop $-1 $-1 $259 $280 #
vertex $-1 $270 $338 #
straight-curve $-1 11.30640336441605953 23 -66.78999999999999204 0 0 1 I I #
coedge $-1 $265 $264 $339 $333 forward $266 $-1 #
coedge $-1 $269 $340 $264 $306 forward $309 $-1 #
edge $-1 $341 0 $225 1.047197551196596965 $264 $342 forward 7 unknown #
face $-1 $343 $266 $2 $-1 $344 reversed single #
coedge $-1 $340 $269 $300 $337 reversed $309 $-1 #
loop $-1 $-1 $269 $343 #
straight-curve $-1 11.30640336441605953 22.5 -66.78999999999999204 7.105427357600951372e-15 1 0 I I #
plane-surface $-1 5.163201682208032217 22.75 -66.78999999999999204 0 0 1 -1 0 0 forward_v I I I I #
ellipse-curve $-1 -0.9800000000000501643 23 -58.06999999999997186 3.473882885376980278e-29 -1 1.421085471520214571e-14 -8.719999999999966889 0 2.131628207280300558e-14 1 I I #
point $-1 -0.97999999999999865 23 -66.78999999999999204 #
cone-surface $-1 11.30640336441606131 16.5 -108.6158673338987057 0 0 1 0 6.5 0 1 I I 0 1 6.5 forward I I I I #
face $-1 $345 $346 $2 $-1 $347 reversed single #
loop $-1 $-1 $348 $282 #
plane-surface $-1 19.96665740226044505 13.5 -74.87002703972275697 -0.8660254037844387076 -0.5 0 0 0 1 forward_v I I I I #
coedge $-1 $349 $350 $351 $352 reversed $283 $-1 #
coedge $-1 $287 $285 $328 $353 forward $244 $-1 #
coedge $-1 $285 $354 $355 $356 forward $244 $-1 #
coedge $-1 $350 $349 $285 $322 forward $283 $-1 #
edge $-1 $357 -1.300383458813438823e-15 $358 0.9948884257546044552 $321 $359 forward 7 unknown #
coedge $-1 $360 $361 $286 $324 reversed $362 $-1 #
edge $-1 $363 0 $326 0.5000000000000023315 $286 $364 forward 7 unknown #
coedge $-1 $354 $287 $361 $365 forward $244 $-1 #
vertex $-1 $324 $366 #
straight-curve $-1 16.93556848901491207 19.74999999999999645 -8.67999999999999261 0.5000000000000008882 -0.8660254037844382635 0 I I #
coedge $-1 $300 $289 $319 $353 reversed $301 $-1 #
ellipse-curve $-1 11.30640336441605598 16.49999999999998579 -8.680000000000006821 0 0 1 5.629165124598859649 3.250000000000014211 0 1 I I #
ellipse-curve $-1 11.3064033644160844 16.50000000000003553 -8.680000000000006821 0 0 1 5.196152422706610707 2.99999999999996092 0 1 I I #
coedge $-1 $339 $367 $292 $332 reversed $316 $-1 #
edge $-1 $293 0 $363 0.9948884257546074528 $331 $368 forward 7 unknown #
edge $-1 $341 0 $293 58.10999999999998522 $339 $369 forward 7 unknown #
point $-1 16.50255578712269511 19.49999999999999645 -8.680000000000006821 #
point $-1 16.93556848901491563 19.75 -8.680000000000006821 #
straight-curve $-1 11.30640336441605243 23 -66.78999999999999204 -1 0 0 I I #
edge $-1 $357 0 $302 1.04719755119658875 $308 $370 forward 7 unknown #
point $-1 11.30640336441606308 23.00000000000000355 -66.78999999999999204 #
coedge $-1 $351 $331 $304 $333 reversed $316 $-1 #
coedge $-1 $305 $308 $349 $371 reversed $309 $-1 #
vertex $-1 $352 $372 #
ellipse-curve $-1 11.30640336441605953 16.49999999999999289 -66.78999999999999204 0 0 1 5.196152422706635576 3.000000000000007105 0 1 I I #
face $-1 $271 $309 $2 $-1 $373 reversed single #
cone-surface $-1 11.30640336441606131 16.5 -108.6158673338987057 0 0 1 0 6 0 1 I I 0 1 6 forward I I I I #
face $-1 $374 $362 $2 $-1 $375 forward single #
loop $-1 $-1 $376 $315 #
plane-surface $-1 18.21650635094610848 17.0313505417965203 -37.73499999999999233 -0.5000000000000021094 0.8660254037844374864 0 0 0 -1 forward_v I I I I #
coedge $-1 $367 $377 $378 $379 reversed $316 $-1 #
coedge $-1 $321 $318 $340 $371 forward $283 $-1 #
coedge $-1 $318 $321 $380 $381 reversed $283 $-1 #
coedge $-1 $377 $339 $318 $352 forward $316 $-1 #
edge $-1 $341 -6.15348059642741289e-15 $382 0.9948884257546047882 $351 $383 forward 7 unknown #
edge $-1 $357 2.17204861186305141e-31 $294 58.10999999999998522 $319 $384 forward 7 unknown #
coedge $-1 $320 $325 $376 $385 forward $244 $-1 #
coedge $-1 $386 $380 $320 $356 reversed $387 $-1 #
edge $-1 $388 0 $358 1.570796326794888564 $320 $389 forward 7 unknown #
vertex $-1 $322 $390 #
vertex $-1 $381 $391 #
straight-curve $-1 16.93556848901491207 19.74999999999999645 -66.78999999999999204 0.5000000000000023315 -0.8660254037844372643 0 I I #
coedge $-1 $392 $323 $367 $393 reversed $362 $-1 #
coedge $-1 $323 $392 $325 $365 reversed $362 $-1 #
loop $-1 $-1 $360 $345 #
vertex $-1 $332 $394 #
straight-curve $-1 17 18.63840134936539883 -8.67999999999999261 0.8660254037844441477 0.4999999999999905631 0 I I #
edge $-1 $326 0 $395 1.570796326794902997 $325 $396 forward 7 unknown #
point $-1 17.43301270189222407 18.88840134936539528 -8.67999999999999261 #
coedge $-1 $331 $348 $360 $393 forward $316 $-1 #
straight-curve $-1 16.50255578712269511 19.49999999999999645 -8.67999999999999261 0.4999999999999997224 -0.8660254037844389297 0 I I #
straight-curve $-1 16.50255578712269156 19.5 -66.78999999999999204 0 0 1 I I #
ellipse-curve $-1 11.30640336441603111 16.49999999999995026 -66.78999999999999204 0 0 1 5.629165124598884518 3.250000000000049738 0 1 I I #
edge $-1 $341 0 $357 0.5000000000000009992 $349 $397 forward 7 unknown #
point $-1 16.50255578712269511 19.5 -66.78999999999999204 #
plane-surface $-1 14.43140336441606131 21.91265877365274051 -66.78999999999999204 0 0 1 -0.5 0.8660254037844387076 0 forward_v I I I I #
face $-1 $307 $387 $2 $-1 $398 forward single #
cone-surface $-1 16.99956697671089501 18.63815134325286849 -10.67999999999999261 0.8660254037844388186 0.499999999999999889 0 1 -1.732050807568878081 0 1 I I 0 1 2.000000000000000444 forward I I I I #
coedge $-1 $399 $400 $354 $385 reversed $346 $-1 #
coedge $-1 $348 $351 $401 $402 forward $316 $-1 #
coedge $-1 $400 $399 $348 $379 forward $346 $-1 #
edge $-1 $403 0 $404 54.10999999999999943 $348 $405 forward 7 unknown #
coedge $-1 $355 $401 $350 $381 forward $387 $-1 #
edge $-1 $382 0 $358 0.4999999999999918399 $350 $406 forward 7 unknown #
vertex $-1 $402 $407 #
straight-curve $-1 16.50255578712269511 19.49999999999999289 -66.78999999999999204 0.4999999999999979461 -0.8660254037844398178 0 I I #
straight-curve $-1 16.93556848901491207 19.74999999999999645 -66.78999999999999204 0 6.113773324385650893e-17 1 I I #
edge $-1 $395 0 $388 54.10999999999998522 $376 $408 forward 7 unknown #
coedge $-1 $401 $355 $400 $409 reversed $387 $-1 #
loop $-1 $-1 $401 $374 #
vertex $-1 $409 $410 #
ellipse-curve $-1 17.43301270189221341 18.88840134936540238 -64.78999999999997783 0.8660254037844377084 0.5000000000000016653 1.3410635388757097e-29 1.000000000000007105 -1.732050807568882078 -1.421085471520200372e-14 1 I I #
point $-1 16.93556848901491563 19.75 -66.78999999999999204 #
point $-1 17.43301270189221697 18.88840134936540238 -66.78999999999999204 #
coedge $-1 $361 $360 $399 $411 forward $362 $-1 #
edge $-1 $403 0 $363 1.570796326794897446 $367 $412 forward 7 unknown #
point $-1 17 18.63840134936539883 -8.67999999999999261 #
vertex $-1 $411 $413 #
ellipse-curve $-1 17.43301270189222052 18.88840134936539528 -10.67999999999999261 0.8660254037844387076 0.5 -1.53837014910685125e-15 3.552713678800500929e-15 0 2 1 I I #
straight-curve $-1 16.50255578712269511 19.5 -66.78999999999999204 0.8660254037844392627 0.4999999999999990008 0 I I #
cone-surface $-1 16.99956697671089145 18.63815134325286493 -64.78999999999999204 0.8660254037844371533 0.5000000000000026645 0 0 0 -2 1 I I 0 1 2 forward I I I I #
coedge $-1 $378 $376 $392 $411 reversed $346 $-1 #
coedge $-1 $376 $378 $386 $409 forward $346 $-1 #
coedge $-1 $380 $386 $377 $402 reversed $387 $-1 #
edge $-1 $382 0 $404 1.570796326794900999 $377 $414 forward 7 unknown #
vertex $-1 $393 $415 #
vertex $-1 $402 $416 #
straight-curve $-1 18 16.9063505417965203 -10.67999999999999261 0 0 -1 I I #
straight-curve $-1 17.00000000000000711 18.63840134936540238 -66.78999999999999204 0.8660254037844339337 0.5000000000000082157 0 I I #
point $-1 17.00000000000000711 18.63840134936540238 -66.78999999999999204 #
straight-curve $-1 18.43301270189221697 17.1563505417965203 -10.68000000000000682 0 0 -1 I I #
edge $-1 $404 0 $388 0.5000000000000009992 $400 $417 forward 7 unknown #
point $-1 18.43301270189222052 17.1563505417965203 -64.78999999999999204 #
edge $-1 $403 -1.776356839400246915e-15 $395 0.4999999999999992228 $399 $418 forward 7 unknown #
ellipse-curve $-1 16.99999999999999645 18.63840134936539528 -10.67999999999999261 -0.8660254037844377084 -0.5000000000000018874 0 1.000000000000003553 -1.732050807568874973 0 1 I I #
point $-1 18.43301270189222052 17.15635054179651675 -10.68000000000000682 #
ellipse-curve $-1 17 18.63840134936538817 -64.78999999999999204 -0.8660254037844387076 -0.5 -6.629453977014203824e-15 7.105427357601001859e-15 1.421085471520200372e-14 -2 1 I I #
point $-1 18 16.90635054179651675 -10.67999999999999261 #
point $-1 18 16.9063505417965203 -64.78999999999999204 #
straight-curve $-1 18 16.9063505417965203 -64.78999999999999204 0.8660254037844392627 0.4999999999999990008 0 I I #
straight-curve $-1 18 16.9063505417965203 -10.67999999999999261 0.8660254037844392627 0.4999999999999990008 0 I I #
End-of-ACIS-data 