600 0 1 0           
90 GICL ACIS Healer - Source: /gicl/data5/repository/PTC/V18/fly_small18/stairs.prt.sat - 6 0 18 ACIS 6.0.3 Solaris 24 Sat Apr 13 22:08:53 2002 
1 9.999999999999999547e-07 1.000000000000000036e-10 
body $-1 $1 $-1 $-1 #
lump $-1 $-1 $2 $0 #
shell $-1 $-1 $-1 $3 $-1 $1 #
face $-1 $4 $5 $2 $-1 $6 forward single #
face $-1 $7 $8 $2 $-1 $6 forward single #
loop $-1 $-1 $9 $3 #
cone-surface $-1 0 249 0 0 1 0 -0.999999999999999889 0 0 1 I I -0.7071067811865474617 0.7071067811865475727 0.999999999999999889 forward I I I I #
face $-1 $10 $11 $2 $-1 $12 forward single #
loop $-1 $-1 $13 $4 #
coedge $-1 $14 $15 $16 $17 reversed $5 $-1 #
face $-1 $18 $19 $2 $-1 $20 reversed single #
loop $-1 $-1 $21 $7 #
cone-surface $-1 0 -249 0 0 -1 0 -0.999999999999999889 0 0 1 I I -0.7071067811865474617 0.7071067811865475727 0.999999999999999889 forward I I I I #
coedge $-1 $22 $23 $24 $25 reversed $8 $-1 #
coedge $-1 $24 $9 $26 $27 reversed $5 $-1 #
coedge $-1 $9 $24 $28 $29 reversed $5 $-1 #
coedge $-1 $23 $22 $9 $17 forward $8 $-1 #
edge $-1 $30 0 $31 69.05382386934142858 $9 $32 forward 7 unknown #
face $-1 $33 $34 $2 $-1 $35 forward single #
loop $-1 $-1 $36 $10 #
cone-surface $-1 0 234.857864376269049 0 0 1 0 -0.999999999999999889 0 0 1 I I -0.7071067811865474617 0.7071067811865475727 0.999999999999999889 forward I I I I #
coedge $-1 $37 $38 $39 $40 forward $11 $-1 #
coedge $-1 $16 $13 $41 $42 forward $8 $-1 #
coedge $-1 $13 $16 $43 $44 reversed $8 $-1 #
coedge $-1 $15 $14 $13 $25 forward $5 $-1 #
edge $-1 $45 -4.019436694230465058e-14 $46 69.05382386929912286 $24 $47 forward 7 unknown #
coedge $-1 $48 $49 $14 $27 forward $50 $-1 #
edge $-1 $45 -3.141592653589793116 $30 2.449212707644754516e-16 $14 $51 reversed 7 unknown #
coedge $-1 $52 $53 $15 $29 forward $54 $-1 #
edge $-1 $31 -3.222220928393027932e-12 $46 3.141592653585489892 $15 $55 forward 7 unknown #
vertex $-1 $27 $56 #
vertex $-1 $29 $57 #
straight-curve $-1 -249.9999999999999432 2.842170943040400743e-14 -6.123031769111885029e-14 0.7071067811865474617 0.7071067811865474617 1.731854914143871822e-16 I I #
face $-1 $58 $59 $2 $-1 $60 reversed single #
loop $-1 $61 $62 $18 #
plane-surface $-1 0 40 0 0 -1 0 -1 0 0 forward_v I I I I #
coedge $-1 $63 $64 $65 $66 forward $19 $-1 #
coedge $-1 $41 $21 $48 $67 forward $11 $-1 #
coedge $-1 $21 $41 $49 $68 reversed $11 $-1 #
coedge $-1 $64 $63 $21 $40 reversed $19 $-1 #
edge $-1 $69 -3.141592653589793116 $70 -2.449212707644754516e-16 $39 $71 forward 7 unknown #
coedge $-1 $38 $37 $22 $42 reversed $11 $-1 #
edge $-1 $45 -3.141592653589793116 $30 -2.449212707644754516e-16 $22 $72 forward 7 unknown #
coedge $-1 $73 $74 $23 $44 forward $75 $-1 #
edge $-1 $46 -3.14159265359409634 $31 -3.222220928393027932e-12 $23 $76 forward 7 unknown #
vertex $-1 $25 $77 #
vertex $-1 $29 $78 #
straight-curve $-1 249.9999999999999432 2.842170943040400743e-14 3.061515884555942514e-14 -0.7071067811865474617 0.7071067811865474617 -8.659274570719359112e-17 I I #
coedge $-1 $79 $26 $37 $67 reversed $50 $-1 #
coedge $-1 $26 $79 $38 $68 forward $50 $-1 #
loop $-1 $-1 $26 $80 #
ellipse-curve $-1 0 0 0 -0 1 -0 -249.9999999999999432 0 0 1 I I #
coedge $-1 $81 $28 $74 $82 reversed $54 $-1 #
coedge $-1 $28 $81 $73 $83 forward $54 $-1 #
loop $-1 $-1 $53 $84 #
ellipse-curve $-1 0 48.82842712474617031 0 0 1 0 -201.1715728752538439 0 0 1 I I #
point $-1 -249.9999999999999432 2.842170943040400743e-14 -6.123031769111885029e-14 #
point $-1 -201.1715728751271968 48.82842712487285297 -6.4821925231597805e-10 #
face $-1 $85 $86 $2 $-1 $87 forward single #
loop $-1 $-1 $88 $33 #
cone-surface $-1 0 157.5 0 0 -1 0 -140 0 0 1 I I 0 1 140 forward I I I I #
loop $-1 $-1 $89 $18 #
coedge $-1 $90 $90 $91 $92 forward $34 $-1 #
coedge $-1 $39 $36 $93 $94 forward $19 $-1 #
coedge $-1 $36 $39 $95 $96 reversed $19 $-1 #
coedge $-1 $89 $89 $36 $66 reversed $61 $-1 #
edge $-1 $97 -3.141592653589793116 $98 -2.449212707644754516e-16 $65 $99 reversed 7 unknown #
edge $-1 $70 0 $30 10.00000000000004263 $48 $100 forward 7 unknown #
edge $-1 $69 4.019436694230464427e-14 $45 10.00000000000000178 $49 $101 forward 7 unknown #
vertex $-1 $96 $102 #
vertex $-1 $94 $103 #
ellipse-curve $-1 0 -7.071067811865475505 0 -0 1 -0 -242.9289321881344677 0 0 1 I I #
ellipse-curve $-1 0 0 0 -0 1 -0 -249.9999999999999432 0 0 1 I I #
coedge $-1 $104 $43 $53 $83 reversed $75 $-1 #
coedge $-1 $43 $104 $52 $82 forward $75 $-1 #
loop $-1 $-1 $74 $105 #
ellipse-curve $-1 0 48.82842712474617031 0 0 1 0 -201.1715728752538439 0 0 1 I I #
point $-1 249.9999999999999432 -2.842170943040400743e-14 3.061515884555942514e-14 #
point $-1 201.1715728751570964 48.82842712484293202 8.656929237628623041e-10 #
coedge $-1 $49 $48 $106 $107 reversed $50 $-1 #
face $-1 $105 $50 $2 $-1 $12 forward single #
coedge $-1 $53 $52 $108 $109 reversed $54 $-1 #
edge $-1 $110 6.465938894713510297e-13 $46 0.7853981633642606042 $52 $111 forward 7 unknown #
edge $-1 $112 3.235947492559410699e-29 $31 0.7853981633536674112 $53 $113 forward 7 unknown #
face $-1 $114 $54 $2 $-1 $115 forward single #
face $-1 $116 $117 $2 $-1 $118 reversed single #
loop $-1 $119 $120 $58 #
plane-surface $-1 0 90 0 0 -1 0 -1 0 0 forward_v I I I I #
coedge $-1 $121 $122 $123 $124 forward $59 $-1 #
coedge $-1 $65 $65 $125 $126 forward $61 $-1 #
coedge $-1 $62 $62 $127 $128 reversed $34 $-1 #
coedge $-1 $122 $121 $62 $92 reversed $59 $-1 #
edge $-1 $129 -3.141592653589793116 $130 -0 $62 $131 reversed 7 unknown #
coedge $-1 $125 $106 $63 $94 reversed $132 $-1 #
edge $-1 $98 -0 $70 66.56854249492386089 $93 $133 forward 7 unknown #
coedge $-1 $106 $125 $64 $96 forward $132 $-1 #
edge $-1 $97 0 $69 66.56854249492381825 $95 $134 forward 7 unknown #
vertex $-1 $66 $135 #
vertex $-1 $66 $136 #
ellipse-curve $-1 0 40 0 0 -1 0 -195.857864376269049 0 0 1 I I #
straight-curve $-1 -242.9289321881344677 -7.071067811865503927 -5.949846277697497832e-14 -0.7071067811865475727 0.7071067811865475727 -1.731854914143872069e-16 I I #
straight-curve $-1 242.9289321881344677 -7.071067811865503927 2.974923138848748916e-14 0.7071067811865475727 0.7071067811865475727 8.659274570719360345e-17 I I #
point $-1 242.9289321881344677 -7.071067811865447084 2.974923138848748916e-14 #
point $-1 -242.9289321881344677 -7.071067811865503927 -5.949846277697497832e-14 #
coedge $-1 $74 $73 $137 $138 reversed $75 $-1 #
face $-1 $84 $75 $2 $-1 $115 forward single #
coedge $-1 $93 $95 $79 $107 forward $132 $-1 #
edge $-1 $69 -3.141592653589793116 $70 2.449212707644754516e-16 $106 $139 reversed 7 unknown #
coedge $-1 $137 $137 $81 $109 forward $140 $-1 #
edge $-1 $112 -4.712388980384689674 $110 -1.57079632679489567 $108 $141 reversed 7 unknown #
vertex $-1 $109 $142 #
ellipse-curve $-1 198.3431457505076878 46.00000000000007816 -5.647024664292792221e-09 8.139741567419229805e-10 1.411800186416973337e-09 -1 -4.035882739117369056e-12 3.99999999999992184 5.64720074566449777e-09 1 I I #
vertex $-1 $109 $143 #
ellipse-curve $-1 -198.3431457505076594 45.99999999999998579 5.649898911119981875e-09 -8.142507441243592856e-10 1.412470286888707605e-09 1 4.007461029686965048e-12 4.000000000000014211 -5.649881147551587872e-09 1 I I #
face $-1 $144 $145 $2 $-1 $146 reversed single #
torus-surface $-1 0 46 0 0 -1 0 198.3431457505076594 4 0.9999752768280165682 0 0.007031765975323680043 forward_v I I I I #
face $-1 $147 $148 $2 $-1 $149 forward single #
loop $-1 $-1 $150 $85 #
cone-surface $-1 0 157.5 0 0 -1 0 -90 0 0 1 I I 0 1 90 forward I I I I #
loop $-1 $-1 $151 $58 #
coedge $-1 $152 $152 $153 $154 forward $86 $-1 #
coedge $-1 $91 $88 $155 $156 forward $59 $-1 #
coedge $-1 $88 $91 $157 $158 reversed $59 $-1 #
coedge $-1 $151 $151 $88 $124 reversed $119 $-1 #
edge $-1 $159 -3.141592653589793116 $160 -2.449212707644754516e-16 $123 $161 reversed 7 unknown #
coedge $-1 $95 $93 $89 $126 reversed $132 $-1 #
edge $-1 $97 -3.141592653589793116 $98 2.449212707644754516e-16 $89 $162 forward 7 unknown #
coedge $-1 $155 $157 $90 $128 forward $163 $-1 #
edge $-1 $129 -3.141592653589793116 $130 -0 $127 $164 reversed 7 unknown #
vertex $-1 $158 $165 #
vertex $-1 $156 $166 #
ellipse-curve $-1 0 40 0 0 -1 0 -140 0 0 1 I I #
loop $-1 $-1 $106 $167 #
straight-curve $-1 -195.8578643762689921 40.00000000000002842 -4.796975703225208828e-14 -0.7071067811865474617 -0.7071067811865474617 -1.731854914143871083e-16 I I #
straight-curve $-1 195.8578643762689921 40.00000000000002842 2.398487851612604414e-14 0.7071067811865474617 -0.7071067811865474617 8.659274570719355414e-17 I I #
point $-1 195.8578643762689921 40.00000000000002842 2.398487851612604414e-14 #
point $-1 -195.8578643762689921 40.00000000000002842 -4.796975703225208828e-14 #
coedge $-1 $108 $108 $104 $138 forward $140 $-1 #
edge $-1 $110 -1.57079632679489567 $112 1.57079632679489678 $137 $168 reversed 7 unknown #
ellipse-curve $-1 0 -7.071067811865475505 0 -0 1 -0 -242.9289321881344677 0 0 1 I I #
loop $-1 $-1 $137 $114 #
ellipse-curve $-1 0 50 0 0 -1 0 0 0 -198.3431457505076594 1 I I #
point $-1 198.3431457505062383 50 -1.696420781627227077e-13 #
point $-1 -198.3431457505036519 50 1.776356839400214493e-14 #
face $-1 $169 $170 $2 $-1 $171 reversed single #
loop $-1 $140 $172 $114 #
plane-surface $-1 0 50 0 0 -1 0 -1 0 0 forward_v I I I I #
face $-1 $173 $174 $2 $-1 $118 reversed single #
loop $-1 $-1 $175 $116 #
plane-surface $-1 0 140 0 0 -1 0 -1 0 0 forward_v I I I I #
coedge $-1 $176 $177 $178 $179 forward $117 $-1 #
coedge $-1 $123 $123 $180 $181 forward $119 $-1 #
coedge $-1 $120 $120 $182 $183 reversed $86 $-1 #
coedge $-1 $177 $176 $120 $154 reversed $117 $-1 #
edge $-1 $184 -3.141592653589793116 $185 -0 $120 $186 reversed 7 unknown #
coedge $-1 $180 $127 $121 $156 reversed $163 $-1 #
edge $-1 $160 0 $130 50 $155 $187 forward 7 unknown #
coedge $-1 $127 $180 $122 $158 forward $163 $-1 #
edge $-1 $159 0 $129 50 $157 $188 forward 7 unknown #
vertex $-1 $124 $189 #
vertex $-1 $124 $190 #
ellipse-curve $-1 0 90 0 0 -1 0 -140 0 0 1 I I #
ellipse-curve $-1 0 40 0 0 -1 0 -195.857864376269049 0 0 1 I I #
loop $-1 $-1 $127 $173 #
ellipse-curve $-1 0 40 0 -0 1 -0 -140 0 0 1 I I #
point $-1 140 40 1.714448895351328161e-14 #
point $-1 -140 40 0 #
face $-1 $80 $132 $2 $-1 $20 reversed single #
ellipse-curve $-1 0 50 0 0 -1 0 0 0 -198.3431457505076594 1 I I #
face $-1 $191 $192 $2 $-1 $171 reversed single #
loop $-1 $-1 $193 $144 #
torus-surface $-1 0 54 0 0 -1 0 154 4 -0.9999697112233086882 0 0.007783099380877240257 forward_v I I I I #
coedge $-1 $194 $194 $195 $196 forward $145 $-1 #
face $-1 $167 $163 $2 $-1 $60 reversed single #
loop $-1 $-1 $182 $147 #
coedge $-1 $178 $178 $197 $198 forward $148 $-1 #
coedge $-1 $153 $150 $199 $200 forward $117 $-1 #
coedge $-1 $150 $153 $201 $202 reversed $117 $-1 #
coedge $-1 $175 $175 $150 $179 reversed $148 $-1 #
edge $-1 $203 -3.141592653589793116 $204 -2.449212707644754516e-16 $178 $205 reversed 7 unknown #
coedge $-1 $157 $155 $151 $181 reversed $163 $-1 #
edge $-1 $159 -3.141592653589793116 $160 2.449212707644754516e-16 $151 $206 forward 7 unknown #
coedge $-1 $199 $201 $152 $183 forward $174 $-1 #
edge $-1 $184 -3.141592653589793116 $185 -0 $182 $207 reversed 7 unknown #
vertex $-1 $202 $208 #
vertex $-1 $200 $209 #
ellipse-curve $-1 0 90 0 0 -1 0 -90 0 0 1 I I #
straight-curve $-1 -140 90 -3.428897790702656323e-14 0 -1 0 I I #
straight-curve $-1 140 90 1.714448895351328161e-14 0 -1 0 I I #
point $-1 140 90 1.714448895351328161e-14 #
point $-1 -140 90 -3.428897790702656323e-14 #
face $-1 $210 $211 $2 $-1 $212 forward single #
loop $-1 $-1 $213 $169 #
coedge $-1 $195 $214 $215 $216 forward $170 $-1 #
coedge $-1 $172 $172 $217 $218 forward $145 $-1 #
coedge $-1 $219 $193 $172 $196 reversed $170 $-1 #
edge $-1 $220 -1.570796326794897224 $221 1.570796326794897224 $172 $222 forward 7 unknown #
coedge $-1 $201 $199 $175 $198 reversed $174 $-1 #
edge $-1 $203 -3.141592653589793116 $204 2.449212707644754516e-16 $175 $223 forward 7 unknown #
coedge $-1 $197 $182 $176 $200 reversed $174 $-1 #
edge $-1 $204 0 $185 50 $199 $224 forward 7 unknown #
coedge $-1 $182 $197 $177 $202 forward $174 $-1 #
edge $-1 $203 0 $184 50 $201 $225 forward 7 unknown #
vertex $-1 $179 $226 #
vertex $-1 $179 $227 #
ellipse-curve $-1 0 140 0 0 -1 0 -90 0 0 1 I I #
ellipse-curve $-1 0 90 0 0 -1 0 -140 0 0 1 I I #
ellipse-curve $-1 0 90 0 -0 1 -0 -90 0 0 1 I I #
point $-1 90 90 1.102145718440139532e-14 #
point $-1 -90 90 0 #
face $-1 $228 $229 $2 $-1 $212 forward single #
loop $-1 $-1 $230 $191 #
cone-surface $-1 0 157.5 0 0 -1 0 -150 0 0 1 I I 0 1 150 forward I I I I #
coedge $-1 $217 $231 $219 $232 forward $192 $-1 #
coedge $-1 $193 $219 $233 $234 forward $170 $-1 #
coedge $-1 $231 $217 $193 $216 reversed $192 $-1 #
edge $-1 $235 9.244463733058863466e-32 $221 1.570796326794907438 $215 $236 forward 7 unknown #
coedge $-1 $215 $213 $194 $218 reversed $192 $-1 #
edge $-1 $221 1.570796326794897224 $220 4.712388980384688786 $194 $237 forward 7 unknown #
coedge $-1 $214 $195 $213 $232 reversed $170 $-1 #
vertex $-1 $218 $238 #
vertex $-1 $218 $239 #
ellipse-curve $-1 0 50 0 0 -1 0 0 0 -154 1 I I #
ellipse-curve $-1 0 140 0 0 -1 0 -90 0 0 1 I I #
straight-curve $-1 -90 140 -2.204291436880279065e-14 0 -1 0 I I #
straight-curve $-1 90 140 1.102145718440139532e-14 0 -1 0 I I #
point $-1 90 140 1.102145718440139532e-14 #
point $-1 -90 140 -2.204291436880279065e-14 #
face $-1 $240 $241 $2 $-1 $242 forward single #
loop $-1 $-1 $243 $210 #
coedge $-1 $244 $245 $246 $247 reversed $211 $-1 #
coedge $-1 $213 $215 $244 $248 forward $192 $-1 #
edge $-1 $249 3.54924431636720173e-15 $220 1.570796326794893005 $213 $250 forward 7 unknown #
coedge $-1 $246 $243 $214 $234 reversed $229 $-1 #
edge $-1 $249 9.057966498072676871e-12 $235 3.141592653579358352 $233 $251 forward 7 unknown #
vertex $-1 $252 $253 #
ellipse-curve $-1 153.9999999999999716 53.99999999999998579 1.898474603852856352e-08 -5.137490165776453368e-09 -4.746169356686446818e-09 1 -3.999999999999971578 1.421085471520200372e-14 -2.054996066310560172e-08 1 I I #
ellipse-curve $-1 0 50 0 0 -1 0 0 0 -154 1 I I #
point $-1 -154 50 8.704148513061227277e-14 #
point $-1 154 50 6.86117829218346742e-14 #
face $-1 $254 $255 $2 $-1 $242 forward single #
loop $-1 $-1 $256 $228 #
torus-surface $-1 0 96 0 0 -1 0 146 4 0.9999443731495545329 0 0.01054754030779113914 forward_v I I I I #
coedge $-1 $233 $257 $258 $252 reversed $229 $-1 #
coedge $-1 $258 $230 $231 $248 reversed $211 $-1 #
coedge $-1 $230 $258 $259 $260 reversed $211 $-1 #
coedge $-1 $257 $233 $230 $247 forward $229 $-1 #
edge $-1 $249 -1.421085471520200372e-14 $261 42 $230 $262 forward 7 unknown #
edge $-1 $235 -3.14159265360022788 $249 9.057966498072676871e-12 $244 $263 forward 7 unknown #
vertex $-1 $248 $264 #
ellipse-curve $-1 -154 54.00000000000001421 -1.898435402501446464e-08 5.137408815743228543e-09 -4.746088450742383038e-09 -1 4 -1.421085471520200372e-14 2.054963526297298034e-08 1 I I #
ellipse-curve $-1 0 54 0 0 -1 0 -150 0 0 1 I I #
edge $-1 $235 0 $265 41.99999999999998579 $258 $266 forward 7 unknown #
point $-1 150 54 -1.565214624577038194e-09 #
face $-1 $267 $268 $2 $-1 $269 reversed single #
loop $-1 $-1 $270 $240 #
coedge $-1 $271 $272 $273 $274 forward $241 $-1 #
coedge $-1 $243 $246 $271 $275 reversed $229 $-1 #
coedge $-1 $245 $244 $243 $252 forward $211 $-1 #
coedge $-1 $273 $270 $245 $260 forward $255 $-1 #
edge $-1 $261 -1.621489244244407991e-11 $265 3.141592653568058058 $245 $276 reversed 7 unknown #
vertex $-1 $260 $277 #
straight-curve $-1 -150 54 -3.673819061467131775e-14 0 1 0 I I #
ellipse-curve $-1 0 54 0 0 -1 0 -150 0 0 1 I I #
point $-1 -150 53.99999999999998579 -1.358694974710901537e-09 #
vertex $-1 $260 $278 #
straight-curve $-1 150 54 1.836909530733565887e-14 0 1 0 I I #
face $-1 $279 $280 $2 $-1 $281 reversed single #
loop $-1 $282 $283 $254 #
plane-surface $-1 0 100 0 0 -1 0 -1 0 0 forward_v I I I I #
coedge $-1 $259 $284 $285 $286 forward $255 $-1 #
coedge $-1 $285 $256 $257 $275 forward $241 $-1 #
coedge $-1 $256 $285 $287 $288 reversed $241 $-1 #
coedge $-1 $284 $259 $256 $274 reversed $255 $-1 #
edge $-1 $289 3.979039319913495152e-12 $265 1.570796326800819154 $273 $290 forward 7 unknown #
edge $-1 $265 -3.141592653611528174 $261 -1.621489244244407991e-11 $257 $291 reversed 7 unknown #
ellipse-curve $-1 0 96 0 0 -1 0 -150 0 0 1 I I #
point $-1 -150 96 -2.432233866366612116e-09 #
point $-1 150 95.99999999999998579 3.26025667650157336e-09 #
face $-1 $292 $293 $2 $-1 $281 reversed single #
loop $-1 $-1 $294 $267 #
torus-surface $-1 0 104 0 0 -1 0 104 4 -0.9999318506824820263 0 0.0116745017326858793 forward_v I I I I #
loop $-1 $-1 $287 $254 #
coedge $-1 $295 $295 $296 $297 forward $268 $-1 #
coedge $-1 $270 $273 $298 $299 reversed $255 $-1 #
coedge $-1 $272 $271 $270 $286 reversed $241 $-1 #
edge $-1 $300 8.6960551813941584e-30 $261 1.570796326800797837 $270 $301 forward 7 unknown #
coedge $-1 $298 $298 $272 $288 forward $282 $-1 #
edge $-1 $289 -1.570796326794887232 $300 1.570796326794874131 $287 $302 reversed 7 unknown #
vertex $-1 $299 $303 #
ellipse-curve $-1 145.9999999999999432 95.99999999999994316 1.240651483587990648e-09 2.979173248884421485e-10 -3.093524080872495285e-10 -1 -2.373212737438734621e-11 4.000000000000056843 -1.237409632356085811e-09 1 I I #
ellipse-curve $-1 0 96 0 0 -1 0 -150 0 0 1 I I #
face $-1 $304 $305 $2 $-1 $306 forward single #
loop $-1 $-1 $307 $279 #
coedge $-1 $296 $308 $309 $310 forward $280 $-1 #
coedge $-1 $283 $283 $311 $312 forward $268 $-1 #
coedge $-1 $313 $294 $283 $297 reversed $280 $-1 #
edge $-1 $314 -1.57079632679489678 $315 1.57079632679489678 $283 $316 forward 7 unknown #
coedge $-1 $287 $287 $284 $299 forward $282 $-1 #
edge $-1 $300 -4.712388980384711878 $289 -1.570796326794887232 $298 $317 reversed 7 unknown #
vertex $-1 $299 $318 #
ellipse-curve $-1 -145.9999999999999432 95.99999999999992895 -1.240420493063880767e-09 -2.979533433256827336e-10 -3.092833916925249565e-10 1 2.367528395552653819e-11 4.000000000000071054 1.237133566777176149e-09 1 I I #
ellipse-curve $-1 0 100 0 0 -1 0 0 0 -146 1 I I #
point $-1 145.9999999999921272 100 -1.363575918844543754e-12 #
face $-1 $319 $320 $2 $-1 $306 forward single #
loop $-1 $-1 $321 $292 #
cone-surface $-1 0 157.5 0 0 -1 0 -100 0 0 1 I I 0 1 100 forward I I I I #
coedge $-1 $311 $322 $313 $323 forward $293 $-1 #
coedge $-1 $294 $313 $324 $325 forward $280 $-1 #
coedge $-1 $322 $311 $294 $310 reversed $293 $-1 #
edge $-1 $326 6.039716305598285806e-31 $315 1.570796326794882347 $309 $327 forward 7 unknown #
coedge $-1 $309 $307 $295 $312 reversed $293 $-1 #
edge $-1 $315 1.57079632679489678 $314 4.712388980384689674 $295 $328 forward 7 unknown #
coedge $-1 $308 $296 $307 $323 reversed $280 $-1 #
vertex $-1 $312 $329 #
vertex $-1 $312 $330 #
ellipse-curve $-1 0 100 0 0 -1 0 0 0 -104 1 I I #
ellipse-curve $-1 0 100 0 0 -1 0 0 0 -146 1 I I #
point $-1 -145.9999999999762679 100 -3.286926286704704098e-12 #
face $-1 $331 $332 $2 $-1 $333 forward single #
loop $-1 $-1 $334 $304 #
coedge $-1 $335 $336 $337 $338 reversed $305 $-1 #
coedge $-1 $307 $309 $335 $339 forward $293 $-1 #
edge $-1 $340 3.536551063864976333e-15 $314 1.570796326794875242 $307 $341 forward 7 unknown #
coedge $-1 $337 $334 $308 $325 reversed $320 $-1 #
edge $-1 $340 3.11363072077378637e-11 $326 3.141592653553797021 $324 $342 forward 7 unknown #
vertex $-1 $343 $344 #
ellipse-curve $-1 104.0000000000000142 104.0000000000000284 3.852116663533519185e-08 -1.053019398029771549e-08 -9.630291603322527616e-09 1 -4.000000000000028422 -2.842170943040400743e-14 -4.212077592119143107e-08 1 I I #
ellipse-curve $-1 0 100 0 0 -1 0 0 0 -104 1 I I #
point $-1 -103.9999999999999574 100 1.243449787580174852e-14 #
point $-1 103.9999999999999858 100 2.220446049250312834e-16 #
face $-1 $345 $346 $2 $-1 $333 forward single #
loop $-1 $-1 $347 $319 #
torus-surface $-1 0 146 0 0 -1 0 96 4 0.9998748410369819872 0 0.01582094375408646045 forward_v I I I I #
coedge $-1 $324 $348 $349 $343 reversed $320 $-1 #
coedge $-1 $349 $321 $322 $339 reversed $305 $-1 #
coedge $-1 $321 $349 $350 $351 reversed $305 $-1 #
coedge $-1 $348 $324 $321 $338 forward $320 $-1 #
edge $-1 $340 -1.421085471520200372e-14 $352 42 $321 $353 forward 7 unknown #
edge $-1 $326 -3.141592653625789211 $340 3.11363072077378637e-11 $335 $354 forward 7 unknown #
vertex $-1 $339 $355 #
ellipse-curve $-1 -104.0000000000000142 104.0000000000000284 -3.852116715681958218e-08 1.053019411066881307e-08 -9.63029173369357226e-09 -1 4.000000000000028422 -2.842170943040400743e-14 4.21207764426758214e-08 1 I I #
ellipse-curve $-1 0 104 0 0 -1 0 -100 0 0 1 I I #
edge $-1 $326 0 $356 42 $349 $357 forward 7 unknown #
point $-1 99.99999999999998579 104 -3.599609285856239634e-09 #
face $-1 $-1 $358 $2 $-1 $359 reversed single #
loop $-1 $-1 $360 $331 #
coedge $-1 $361 $362 $363 $364 forward $332 $-1 #
coedge $-1 $334 $337 $361 $365 reversed $320 $-1 #
coedge $-1 $336 $335 $334 $343 forward $305 $-1 #
coedge $-1 $363 $360 $336 $351 forward $346 $-1 #
edge $-1 $352 -5.536995167920721883e-11 $356 3.141592653515207445 $336 $366 reversed 7 unknown #
vertex $-1 $351 $367 #
straight-curve $-1 -100 104 -2.449212707644754516e-14 0 1 0 I I #
ellipse-curve $-1 0 104 0 0 -1 0 -100 0 0 1 I I #
point $-1 -100 103.9999999999999858 -3.113630720773786551e-09 #
vertex $-1 $351 $368 #
straight-curve $-1 100 104 1.224606353822377258e-14 0 1 0 I I #
loop $-1 $-1 $369 $345 #
plane-surface $-1 0 150 0 0 -1 0 -1 0 0 forward_v I I I I #
coedge $-1 $350 $370 $371 $372 forward $346 $-1 #
coedge $-1 $371 $347 $348 $365 forward $332 $-1 #
coedge $-1 $347 $371 $369 $373 reversed $332 $-1 #
coedge $-1 $370 $350 $347 $364 reversed $346 $-1 #
edge $-1 $374 1.437783225337861318e-11 $356 1.570796326816145561 $363 $375 forward 7 unknown #
edge $-1 $356 -3.141592653664378787 $352 -5.536995167920721883e-11 $348 $376 reversed 7 unknown #
ellipse-curve $-1 0 146 0 0 -1 0 -100 0 0 1 I I #
point $-1 -100 146 -5.536995167920721883e-09 #
point $-1 100 146 7.458581206358042378e-09 #
coedge $-1 $377 $377 $362 $373 forward $358 $-1 #
coedge $-1 $360 $363 $377 $378 reversed $346 $-1 #
coedge $-1 $362 $361 $360 $372 reversed $332 $-1 #
edge $-1 $379 1.568894310541902519e-28 $352 1.570796326816156219 $360 $380 forward 7 unknown #
edge $-1 $374 -1.570796326794807962 $379 1.570796326794691389 $369 $381 reversed 7 unknown #
vertex $-1 $378 $382 #
ellipse-curve $-1 95.99999999999998579 145.9999999999999716 2.855911791737053465e-09 6.702703814529903498e-10 -7.090538867611980994e-10 -1 -8.502354376105358824e-11 4.000000000000028422 -2.836215547101800858e-09 1 I I #
ellipse-curve $-1 0 146 0 0 -1 0 -100 0 0 1 I I #
coedge $-1 $369 $369 $370 $378 forward $358 $-1 #
edge $-1 $379 -4.712388980384894843 $374 -1.570796326794807962 $377 $383 reversed 7 unknown #
vertex $-1 $378 $384 #
ellipse-curve $-1 -96 145.9999999999999716 -2.855916879235599869e-09 -6.702695721712811239e-10 -7.09054714546617716e-10 1 8.506617632519919425e-11 4.000000000000028422 2.836218858243507862e-09 1 I I #
ellipse-curve $-1 0 150 0 0 -1 0 0 0 -96 1 I I #
point $-1 95.99999999997247357 150 -8.512746063613407522e-12 #
ellipse-curve $-1 0 150 0 0 -1 0 0 0 -96 1 I I #
point $-1 -95.99999999991493382 150 -1.969802099209192583e-11 #
End-of-ACIS-data 