700 0 2 0           
24 FBMach with ACIS - 7.0.3 13 ACIS 7.0.3 NT 24 Wed May 15 17:48:03 2002 
1 9.9999999999999995e-007 1e-010 
body $2 -1 $-1 $3 $-1 $4 #
bdycol-kcp $-1 -1 1 5 $5 $6 $7 $8 $9 #
model_id-kcp-attrib $-1 -1 $-1 $-1 $0 1 1021499281 1021499281 -1997078527 1 #
lump $-1 -1 $-1 $-1 $10 $0 #
transform $-1 -1 1 0 0 0 1 0 0 0 1 0 0 0 1 rotate no_reflect no_shear #
body $11 -1 $-1 $12 $-1 $13 #
body $14 -1 $-1 $15 $-1 $16 #
body $17 -1 $-1 $18 $-1 $19 #
body $20 -1 $-1 $21 $-1 $22 #
body $23 -1 $-1 $24 $-1 $25 #
shell $-1 -1 $-1 $-1 $-1 $26 $-1 $3 #
model_id-kcp-attrib $-1 -1 $-1 $-1 $5 1 1021499281 1021499281 -2012545022 1 #
lump $-1 -1 $-1 $-1 $27 $5 #
transform $-1 -1 1 0 0 0 1 0 0 0 1 0 71.464466094067248 0 1 no_rotate no_reflect no_shear #
rgb_color-st-attrib $-1 -1 $28 $-1 $6 0 0 1 #
lump $-1 -1 $-1 $-1 $29 $6 #
transform $-1 -1 1 0 0 0 1 0 0 0 1 0 71.464466094067248 0 1 no_rotate no_reflect no_shear #
rgb_color-st-attrib $-1 -1 $30 $-1 $7 1 0.5 1 #
lump $-1 -1 $-1 $-1 $31 $7 #
transform $-1 -1 1 0 0 0 1 0 0 0 1 0 71.464466094067248 0 1 no_rotate no_reflect no_shear #
rgb_color-st-attrib $-1 -1 $32 $-1 $8 0 0 1 #
lump $-1 -1 $-1 $-1 $33 $8 #
transform $-1 -1 1 0 0 0 1 0 0 0 1 0 71.464466094067248 0 1 no_rotate no_reflect no_shear #
rgb_color-st-attrib $-1 -1 $34 $-1 $9 1 0.5 1 #
lump $-1 -1 $-1 $-1 $35 $9 #
transform $-1 -1 1 0 0 0 1 0 0 0 1 0 71.464466094067248 0 1 no_rotate no_reflect no_shear #
face $36 -1 $-1 $37 $38 $10 $-1 $39 forward single #
shell $-1 -1 $-1 $-1 $-1 $40 $-1 $12 #
model_id-kcp-attrib $-1 -1 $-1 $14 $6 1 1021499281 1021499281 -2007695357 1 #
shell $-1 -1 $-1 $-1 $-1 $41 $-1 $15 #
model_id-kcp-attrib $-1 -1 $-1 $17 $7 1 1021499281 1021499282 -2011561979 1 #
shell $-1 -1 $-1 $-1 $-1 $42 $-1 $18 #
model_id-kcp-attrib $-1 -1 $-1 $20 $8 1 1021499281 1021499282 -2010447868 1 #
shell $-1 -1 $-1 $-1 $-1 $43 $-1 $21 #
model_id-kcp-attrib $-1 -1 $-1 $23 $9 1 1021499281 1021499283 -2010054650 1 #
shell $-1 -1 $-1 $-1 $-1 $44 $-1 $24 #
model_id-kcp-attrib $-1 -1 $-1 $-1 $26 1 1021499281 1021499281 -1997078527 2 #
face $45 -1 $-1 $46 $47 $10 $-1 $39 forward single #
loop $-1 -1 $-1 $-1 $48 $26 #
cone-surface $-1 -1 $-1 0 249 0 0 1 0 -0.99999999999999989 0 0 1 I I -0.70710678118654746 0.70710678118654757 0.99999999999999989 forward I I I I #
face $-1 -1 $-1 $49 $50 $27 $-1 $51 forward single #
face $-1 -1 $-1 $52 $53 $29 $-1 $54 forward single #
face $-1 -1 $-1 $55 $56 $31 $-1 $57 forward single #
face $-1 -1 $-1 $58 $59 $33 $-1 $60 forward single #
face $-1 -1 $-1 $61 $62 $35 $-1 $63 forward single #
model_id-kcp-attrib $-1 -1 $-1 $-1 $37 1 1021499281 1021499281 -1997078527 3 #
face $64 -1 $-1 $65 $66 $10 $-1 $67 forward single #
loop $-1 -1 $-1 $-1 $68 $37 #
coedge $-1 -1 $-1 $69 $70 $71 $72 reversed $38 $-1 #
face $-1 -1 $-1 $73 $74 $27 $-1 $75 reversed single #
loop $-1 -1 $-1 $-1 $76 $40 #
plane-surface $-1 -1 $-1 0 0 249.99999999999994 0 0 1 1 0 0 forward_v I I I I #
face $-1 -1 $-1 $77 $78 $29 $-1 $79 reversed single #
loop $-1 -1 $-1 $80 $81 $41 #
cone-surface $-1 -1 $-1 0 68.535533905932766 0 0 -1 0 -90 0 0 1 I I 0 1 90 forward I I I I #
face $-1 -1 $-1 $82 $83 $31 $-1 $84 reversed single #
loop $-1 -1 $-1 $85 $86 $42 #
plane-surface $-1 -1 $-1 -14.204545454545451 24.535533905932748 -5.3164819051750936e-011 -4.8843331954856345e-033 1 -1.0529927291289536e-028 0 1.0529927291289536e-028 1 forward_v I I I I #
face $-1 -1 $-1 $87 $88 $33 $-1 $89 reversed single #
loop $-1 -1 $-1 $90 $91 $43 #
cone-surface $-1 -1 $-1 0 18.535533905932766 0 0 -1 0 -140 0 0 1 I I 0 1 140 forward I I I I #
face $-1 -1 $-1 $92 $93 $35 $-1 $94 reversed single #
loop $-1 -1 $-1 $95 $96 $44 #
plane-surface $-1 -1 $-1 -16.233766233766225 74.535533905932766 -9.3007775264473215e-011 -9.7914371751302423e-034 1 -3.1501941866285438e-028 0 3.1501941866285438e-028 1 forward_v I I I I #
model_id-kcp-attrib $-1 -1 $-1 $-1 $46 1 1021499281 1021499281 -1997078527 4 #
face $97 -1 $-1 $98 $99 $10 $-1 $100 reversed single #
loop $-1 -1 $-1 $-1 $101 $46 #
cone-surface $-1 -1 $-1 0 -249 0 0 -1 0 -0.99999999999999989 0 0 1 I I -0.70710678118654746 0.70710678118654757 0.99999999999999989 forward I I I I #
coedge $-1 -1 $-1 $102 $103 $104 $105 reversed $47 $-1 #
coedge $-1 -1 $-1 $104 $48 $106 $107 reversed $38 $-1 #
coedge $-1 -1 $-1 $48 $104 $108 $109 reversed $38 $-1 #
coedge $-1 -1 $-1 $103 $102 $48 $72 forward $47 $-1 #
edge $-1 -1 $-1 $110 0 $111 69.053823869341429 $48 $112 forward @7 unknown #
face $-1 -1 $-1 $113 $114 $27 $-1 $115 reversed single #
loop $-1 -1 $-1 $-1 $116 $49 #
plane-surface $-1 -1 $-1 0 0 -249.99999999999994 0 0 1 1 0 0 forward_v I I I I #
coedge $-1 -1 $-1 $117 $118 $119 $120 forward $50 $-1 #
face $-1 -1 $-1 $-1 $121 $29 $-1 $122 forward single #
loop $-1 -1 $-1 $-1 $123 $52 #
plane-surface $-1 -1 $-1 5.167583532800728e-015 18.535533905932766 7.1054273576010019e-015 1.9945520171513982e-032 1 -2.4931900214392477e-033 0 2.4931900214392477e-033 1 forward_v I I I I #
loop $-1 -1 $-1 $-1 $124 $41 #
coedge $-1 -1 $-1 $81 $81 $123 $125 forward $53 $-1 #
face $-1 -1 $-1 $126 $127 $31 $-1 $84 reversed single #
loop $-1 -1 $-1 $-1 $128 $55 #
cone-surface $-1 -1 $-1 0 86.035533905932752 0 0 -1 0 -150 0 0 1 I I 0 1 150 forward I I I I #
loop $-1 -1 $-1 $-1 $129 $42 #
coedge $-1 -1 $-1 $130 $130 $128 $131 forward $56 $-1 #
face $-1 -1 $-1 $-1 $132 $33 $-1 $133 forward single #
loop $-1 -1 $-1 $-1 $134 $58 #
plane-surface $-1 -1 $-1 5.1675835328007272e-015 -31.464466094067234 7.1054273576010019e-015 0 1 0 0 0 1 forward_v I I I I #
loop $-1 -1 $-1 $-1 $135 $43 #
coedge $-1 -1 $-1 $91 $91 $134 $136 forward $59 $-1 #
face $-1 -1 $-1 $137 $138 $35 $-1 $94 reversed single #
loop $-1 -1 $-1 $-1 $139 $61 #
cone-surface $-1 -1 $-1 0 86.035533905932752 0 0 -1 0 -100 0 0 1 I I 0 1 100 forward I I I I #
loop $-1 -1 $-1 $-1 $140 $44 #
coedge $-1 -1 $-1 $141 $141 $139 $142 forward $62 $-1 #
model_id-kcp-attrib $-1 -1 $-1 $-1 $65 1 1021499281 1021499281 -1997078527 5 #
face $143 -1 $-1 $144 $145 $10 $-1 $146 forward single #
loop $-1 -1 $-1 $-1 $147 $65 #
cone-surface $-1 -1 $-1 0 234.85786437626905 0 0 1 0 -0.99999999999999989 0 0 1 I I -0.70710678118654746 0.70710678118654757 0.99999999999999989 forward I I I I #
coedge $-1 -1 $-1 $148 $149 $150 $151 forward $66 $-1 #
coedge $-1 -1 $-1 $71 $68 $152 $153 forward $47 $-1 #
coedge $-1 -1 $-1 $68 $71 $154 $155 reversed $47 $-1 #
coedge $-1 -1 $-1 $70 $69 $68 $105 forward $38 $-1 #
edge $-1 -1 $-1 $156 -4.0194366942304651e-014 $157 69.053823869299123 $104 $158 forward @7 unknown #
coedge $-1 -1 $-1 $159 $160 $69 $107 forward $161 $-1 #
edge $-1 -1 $-1 $156 -3.1415926535897931 $110 2.4492127076447545e-016 $69 $162 reversed @7 unknown #
coedge $-1 -1 $-1 $163 $164 $70 $109 forward $165 $-1 #
edge $-1 -1 $-1 $111 -3.2222209283930279e-012 $157 3.1415926535854899 $70 $166 forward @7 unknown #
vertex $-1 -1 $-1 $107 $167 #
vertex $-1 -1 $-1 $109 $168 #
straight-curve $-1 -1 $-1 -249.99999999999994 2.8421709430404007e-014 -6.123031769111885e-014 0.70710678118654746 0.70710678118654746 1.7318549141438718e-016 I I #
face $-1 -1 $-1 $169 $170 $27 $-1 $171 reversed single #
loop $-1 -1 $-1 $-1 $172 $73 #
plane-surface $-1 -1 $-1 0 -78.535533905932752 0 0 1 0 0 0 1 forward_v I I I I #
coedge $-1 -1 $-1 $173 $174 $175 $176 forward $74 $-1 #
coedge $-1 -1 $-1 $177 $76 $178 $179 forward $50 $-1 #
coedge $-1 -1 $-1 $76 $177 $180 $181 forward $50 $-1 #
coedge $-1 -1 $-1 $182 $183 $76 $120 reversed $184 $-1 #
edge $-1 -1 $-1 $185 -78.535533905932752 $186 78.535533905932752 $119 $187 forward @7 unknown #
loop $-1 -1 $-1 $-1 $188 $77 #
plane-surface $-1 -1 $-1 5.167583532800728e-015 68.535533905932766 7.1054273576010019e-015 1.9945520171513982e-032 1 -2.4931900214392477e-033 0 2.4931900214392477e-033 1 forward_v I I I I #
coedge $-1 -1 $-1 $123 $123 $81 $125 reversed $78 $-1 #
coedge $-1 -1 $-1 $124 $124 $188 $189 reversed $80 $-1 #
edge $-1 -1 $-1 $190 -3.1415926535897931 $190 3.1415926535897931 $81 $191 forward @7 unknown #
face $-1 -1 $-1 $192 $193 $31 $-1 $194 forward single #
loop $-1 -1 $-1 $-1 $195 $82 #
coedge $-1 -1 $-1 $196 $197 $86 $131 reversed $83 $-1 #
coedge $-1 -1 $-1 $129 $129 $198 $199 forward $85 $-1 #
coedge $-1 -1 $-1 $86 $86 $195 $200 forward $56 $-1 #
edge $-1 -1 $-1 $201 1.621489244244408e-011 $202 3.1415926536115282 $128 $203 forward @7 unknown #
loop $-1 -1 $-1 $-1 $204 $87 #
plane-surface $-1 -1 $-1 5.1675835328007272e-015 18.535533905932766 7.1054273576010019e-015 0 1 0 0 0 1 forward_v I I I I #
coedge $-1 -1 $-1 $134 $134 $91 $136 reversed $88 $-1 #
coedge $-1 -1 $-1 $135 $135 $204 $205 reversed $90 $-1 #
edge $-1 -1 $-1 $206 -3.1415926535897931 $206 3.1415926535897931 $91 $207 forward @7 unknown #
face $-1 -1 $-1 $208 $209 $35 $-1 $210 forward single #
loop $-1 -1 $-1 $-1 $211 $92 #
coedge $-1 -1 $-1 $212 $213 $96 $142 reversed $93 $-1 #
coedge $-1 -1 $-1 $140 $140 $214 $215 forward $95 $-1 #
coedge $-1 -1 $-1 $96 $96 $211 $216 forward $62 $-1 #
edge $-1 -1 $-1 $217 5.5369951679207219e-011 $218 3.1415926536643788 $139 $219 forward @7 unknown #
model_id-kcp-attrib $-1 -1 $-1 $-1 $98 1 1021499281 1021499281 -1997078527 6 #
face $220 -1 $-1 $221 $222 $10 $-1 $223 reversed single #
loop $-1 -1 $-1 $224 $225 $98 #
plane-surface $-1 -1 $-1 0 40 0 0 -1 0 -1 0 0 forward_v I I I I #
coedge $-1 -1 $-1 $226 $227 $228 $229 forward $99 $-1 #
coedge $-1 -1 $-1 $152 $101 $159 $230 forward $66 $-1 #
coedge $-1 -1 $-1 $101 $152 $160 $231 reversed $66 $-1 #
coedge $-1 -1 $-1 $227 $226 $101 $151 reversed $99 $-1 #
edge $-1 -1 $-1 $232 -3.1415926535897931 $233 -2.4492127076447545e-016 $150 $234 forward @7 unknown #
coedge $-1 -1 $-1 $149 $148 $102 $153 reversed $66 $-1 #
edge $-1 -1 $-1 $156 -3.1415926535897931 $110 -2.4492127076447545e-016 $102 $235 forward @7 unknown #
coedge $-1 -1 $-1 $236 $237 $103 $155 forward $238 $-1 #
edge $-1 -1 $-1 $157 -3.1415926535940963 $111 -3.2222209283930279e-012 $103 $239 forward @7 unknown #
vertex $-1 -1 $-1 $105 $240 #
vertex $-1 -1 $-1 $109 $241 #
straight-curve $-1 -1 $-1 249.99999999999994 2.8421709430404007e-014 3.0615158845559425e-014 -0.70710678118654746 0.70710678118654746 -8.6592745707193591e-017 I I #
coedge $-1 -1 $-1 $242 $106 $148 $230 reversed $161 $-1 #
coedge $-1 -1 $-1 $106 $242 $149 $231 forward $161 $-1 #
loop $-1 -1 $-1 $-1 $106 $243 #
ellipse-curve $-1 -1 $-1 0 0 0 0 1 0 -249.99999999999994 0 0 1 I I #
coedge $-1 -1 $-1 $244 $108 $237 $245 reversed $165 $-1 #
coedge $-1 -1 $-1 $108 $244 $236 $246 forward $165 $-1 #
loop $-1 -1 $-1 $-1 $164 $247 #
ellipse-curve $-1 -1 $-1 0 48.82842712474617 0 0 1 0 -201.17157287525384 0 0 1 I I #
point $-1 -1 $-1 -249.99999999999994 2.8421709430404007e-014 -6.123031769111885e-014 #
point $-1 -1 $-1 -201.1715728751272 48.828427124872853 -6.4821925231597805e-010 #
face $248 -1 $-1 $249 $250 $27 $-1 $251 reversed single #
loop $-1 -1 $-1 $-1 $252 $113 #
plane-surface $-1 -1 $-1 -249.99999999999997 0 0 1 0 0 0 0 -1 forward_v I I I I #
coedge $-1 -1 $-1 $253 $180 $254 $255 forward $114 $-1 #
coedge $-1 -1 $-1 $256 $116 $253 $257 forward $74 $-1 #
coedge $-1 -1 $-1 $116 $256 $258 $259 forward $74 $-1 #
coedge $-1 -1 $-1 $183 $182 $116 $176 reversed $184 $-1 #
edge $-1 -1 $-1 $260 -78.535533905932752 $261 78.535533905932752 $175 $262 forward @7 unknown #
coedge $-1 -1 $-1 $118 $117 $263 $264 forward $50 $-1 #
coedge $-1 -1 $-1 $265 $266 $117 $179 reversed $250 $-1 #
edge $-1 -1 $-1 $186 -249.99999999999997 $267 249.99999999999997 $178 $268 forward @7 unknown #
coedge $-1 -1 $-1 $172 $269 $118 $181 reversed $114 $-1 #
edge $-1 -1 $-1 $270 -249.99999999999997 $185 249.99999999999997 $180 $271 forward @7 unknown #
coedge $-1 -1 $-1 $175 $119 $269 $272 forward $184 $-1 #
coedge $-1 -1 $-1 $119 $175 $265 $273 reversed $184 $-1 #
loop $-1 -1 $-1 $-1 $182 $249 #
vertex $-1 -1 $-1 $120 $274 #
vertex $-1 -1 $-1 $120 $275 #
straight-curve $-1 -1 $-1 249.99999999999997 0 249.99999999999994 0 1 0 I I #
coedge $-1 -1 $-1 $188 $188 $124 $189 forward $121 $-1 #
edge $276 -1 $-1 $277 -2.4492127076447545e-016 $277 6.2831853071795862 $124 $278 forward @7 unknown #
vertex $-1 -1 $-1 $125 $279 #
ellipse-curve $-1 -1 $-1 0 18.535533905932766 0 0 1 0 -90 0 0 1 I I #
face $-1 -1 $-1 $280 $281 $31 $-1 $282 forward single #
loop $-1 -1 $-1 $283 $284 $126 #
cone-surface $-1 -1 $-1 -2.811863853416507e-030 78.535533905932752 0 0 1 0 249.99999999999994 0 -3.0615158845559425e-014 1 I I 0 1 249.99999999999994 forward I I I I #
coedge $-1 -1 $-1 $285 $286 $130 $200 reversed $127 $-1 #
coedge $-1 -1 $-1 $287 $128 $286 $288 reversed $83 $-1 #
coedge $-1 -1 $-1 $128 $287 $285 $289 forward $83 $-1 #
coedge $-1 -1 $-1 $198 $198 $129 $199 reversed $283 $-1 #
edge $-1 -1 $-1 $290 -3.1415926535897931 $290 3.1415926535897931 $198 $291 forward @7 unknown #
edge $-1 -1 $-1 $202 -3.1415926535680581 $201 1.621489244244408e-011 $195 $203 forward @7 unknown #
vertex $-1 -1 $-1 $288 $292 #
vertex $-1 -1 $-1 $289 $293 #
ellipse-curve $-1 -1 $-1 0 24.535533905932752 0 4.8843331954856345e-033 -1 1.0529927291289536e-028 -150 0 0 1 I I #
coedge $-1 -1 $-1 $204 $204 $135 $205 forward $132 $-1 #
edge $294 -1 $-1 $295 -2.4492127076447545e-016 $295 6.2831853071795862 $135 $296 forward @7 unknown #
vertex $-1 -1 $-1 $136 $297 #
ellipse-curve $-1 -1 $-1 0 -31.464466094067234 0 0 1 0 -140 0 0 1 I I #
face $-1 -1 $-1 $298 $299 $35 $-1 $300 forward single #
loop $-1 -1 $-1 $301 $302 $137 #
cone-surface $-1 -1 $-1 -2.811863853416507e-030 78.535533905932752 0 0 1 0 249.99999999999994 0 -3.0615158845559425e-014 1 I I 0 1 249.99999999999994 forward I I I I #
coedge $-1 -1 $-1 $303 $304 $141 $216 reversed $138 $-1 #
coedge $-1 -1 $-1 $305 $139 $304 $306 reversed $93 $-1 #
coedge $-1 -1 $-1 $139 $305 $303 $307 forward $93 $-1 #
coedge $-1 -1 $-1 $214 $214 $140 $215 reversed $301 $-1 #
edge $-1 -1 $-1 $308 -3.1415926535897931 $308 3.1415926535897931 $214 $309 forward @7 unknown #
edge $-1 -1 $-1 $218 -3.1415926535152074 $217 5.5369951679207219e-011 $211 $219 forward @7 unknown #
vertex $-1 -1 $-1 $306 $310 #
vertex $-1 -1 $-1 $307 $311 #
ellipse-curve $-1 -1 $-1 0 74.535533905932766 0 9.7914371751302423e-034 -1 3.1501941866285438e-028 -100 0 0 1 I I #
model_id-kcp-attrib $-1 -1 $-1 $-1 $144 1 1021499281 1021499281 -1997078527 7 #
face $312 -1 $-1 $313 $314 $10 $-1 $315 forward single #
loop $-1 -1 $-1 $-1 $316 $144 #
cone-surface $-1 -1 $-1 0 157.5 0 0 -1 0 -140 0 0 1 I I 0 1 140 forward I I I I #
loop $-1 -1 $-1 $-1 $317 $98 #
coedge $-1 -1 $-1 $318 $318 $319 $320 forward $145 $-1 #
coedge $-1 -1 $-1 $150 $147 $321 $322 forward $99 $-1 #
coedge $-1 -1 $-1 $147 $150 $323 $324 reversed $99 $-1 #
coedge $-1 -1 $-1 $317 $317 $147 $229 reversed $224 $-1 #
edge $325 -1 $-1 $326 -3.1415926535897931 $327 -2.4492127076447545e-016 $228 $328 reversed @7 unknown #
edge $-1 -1 $-1 $233 0 $110 10.000000000000043 $159 $329 forward @7 unknown #
edge $-1 -1 $-1 $232 4.0194366942304644e-014 $156 10.000000000000002 $160 $330 forward @7 unknown #
vertex $-1 -1 $-1 $324 $331 #
vertex $-1 -1 $-1 $322 $332 #
ellipse-curve $-1 -1 $-1 0 -7.0710678118654755 0 0 1 0 -242.92893218813447 0 0 1 I I #
ellipse-curve $-1 -1 $-1 0 0 0 0 1 0 -249.99999999999994 0 0 1 I I #
coedge $-1 -1 $-1 $333 $154 $164 $246 reversed $238 $-1 #
coedge $-1 -1 $-1 $154 $333 $163 $245 forward $238 $-1 #
loop $-1 -1 $-1 $-1 $237 $334 #
ellipse-curve $-1 -1 $-1 0 48.82842712474617 0 0 1 0 -201.17157287525384 0 0 1 I I #
point $-1 -1 $-1 249.99999999999994 -2.8421709430404007e-014 3.0615158845559425e-014 #
point $-1 -1 $-1 201.1715728751571 48.828427124842932 8.656929237628623e-010 #
coedge $-1 -1 $-1 $160 $159 $335 $336 reversed $161 $-1 #
face $337 -1 $-1 $334 $161 $10 $-1 $67 forward single #
coedge $-1 -1 $-1 $164 $163 $338 $339 reversed $165 $-1 #
edge $-1 -1 $-1 $340 6.4659388947135103e-013 $157 0.7853981633642606 $163 $341 forward @7 unknown #
edge $-1 -1 $-1 $342 3.2359474925594107e-029 $111 0.78539816335366741 $164 $343 forward @7 unknown #
face $344 -1 $-1 $345 $165 $10 $-1 $346 forward single #
model_id-kcp-attrib $-1 -1 $-1 $-1 $169 1 1021499281 1021499281 -2012545022 2 #
face $-1 -1 $-1 $-1 $184 $27 $-1 $347 reversed single #
loop $-1 -1 $-1 $-1 $265 $169 #
plane-surface $-1 -1 $-1 0 78.535533905932752 0 0 -1 0 0 0 -1 forward_v I I I I #
coedge $-1 -1 $-1 $348 $263 $266 $349 forward $170 $-1 #
coedge $-1 -1 $-1 $269 $172 $173 $257 reversed $114 $-1 #
coedge $-1 -1 $-1 $263 $348 $172 $255 reversed $170 $-1 #
edge $-1 -1 $-1 $270 -249.99999999999994 $350 249.99999999999994 $254 $351 forward @7 unknown #
coedge $-1 -1 $-1 $174 $173 $348 $352 forward $74 $-1 #
edge $-1 -1 $-1 $261 -249.99999999999997 $350 249.99999999999997 $253 $353 forward @7 unknown #
coedge $-1 -1 $-1 $266 $265 $174 $259 reversed $250 $-1 #
edge $-1 -1 $-1 $354 -249.99999999999997 $260 249.99999999999997 $258 $355 forward @7 unknown #
vertex $-1 -1 $-1 $176 $356 #
vertex $-1 -1 $-1 $272 $357 #
straight-curve $-1 -1 $-1 249.99999999999997 0 -249.99999999999994 0 -1 0 I I #
coedge $-1 -1 $-1 $252 $254 $177 $264 reversed $170 $-1 #
edge $-1 -1 $-1 $267 -78.535533905932752 $270 78.535533905932752 $263 $358 forward @7 unknown #
coedge $-1 -1 $-1 $258 $178 $183 $273 forward $250 $-1 #
coedge $-1 -1 $-1 $178 $258 $252 $349 reversed $250 $-1 #
vertex $-1 -1 $-1 $179 $359 #
straight-curve $-1 -1 $-1 0 78.535533905932752 249.99999999999994 -1 0 0 I I #
coedge $-1 -1 $-1 $180 $253 $182 $272 reversed $114 $-1 #
vertex $-1 -1 $-1 $264 $360 #
straight-curve $-1 -1 $-1 0 -78.535533905932752 249.99999999999994 1 0 0 I I #
edge $-1 -1 $-1 $185 -249.99999999999994 $261 249.99999999999994 $182 $361 forward @7 unknown #
edge $-1 -1 $-1 $186 -249.99999999999994 $260 249.99999999999994 $183 $362 forward @7 unknown #
point $-1 -1 $-1 249.99999999999997 -78.535533905932752 249.99999999999994 #
point $-1 -1 $-1 249.99999999999997 78.535533905932752 249.99999999999994 #
convexity-sys-attrib $-1 -1 $-1 $-1 $189 #
vertex $-1 -1 $-1 $189 $363 #
ellipse-curve $-1 -1 $-1 0 68.535533905932766 0 0 1 0 -90 0 0 1 I I #
point $-1 -1 $-1 90 18.535533905932752 1.1021457184401395e-014 #
face $-1 -1 $-1 $364 $365 $31 $-1 $282 forward single #
loop $-1 -1 $-1 $-1 $366 $192 #
torus-surface $-1 -1 $-1 0 -17.464466094067248 0 0 -1 0 154 4 -0.99996971122330869 0 0.0077830993808772403 forward_v I I I I #
loop $-1 -1 $-1 $-1 $198 $126 #
coedge $-1 -1 $-1 $284 $284 $367 $368 reversed $193 $-1 #
coedge $-1 -1 $-1 $369 $195 $197 $289 reversed $127 $-1 #
coedge $-1 -1 $-1 $195 $369 $196 $288 forward $127 $-1 #
coedge $-1 -1 $-1 $197 $196 $370 $371 forward $83 $-1 #
edge $372 -1 $-1 $373 -1.4210854715202004e-014 $201 42 $286 $374 forward @7 unknown #
edge $375 -1 $-1 $376 0 $202 41.999999999999986 $285 $377 forward @7 unknown #
vertex $-1 -1 $-1 $199 $378 #
ellipse-curve $-1 -1 $-1 -2.811863853416507e-030 24.535533905932752 0 -4.8843331954856345e-033 1 -1.0529927291289536e-028 249.99999999999994 0 -3.0615158845559425e-014 1 I I #
point $-1 -1 $-1 -150 24.535533905932752 -2.4322338663666121e-009 #
point $-1 -1 $-1 150 24.535533905932738 3.2602566765015734e-009 #
convexity-sys-attrib $-1 -1 $-1 $-1 $205 #
vertex $-1 -1 $-1 $205 $379 #
ellipse-curve $-1 -1 $-1 0 18.535533905932766 0 0 1 0 -140 0 0 1 I I #
point $-1 -1 $-1 140 -31.464466094067248 1.7144488953513282e-014 #
face $-1 -1 $-1 $380 $381 $35 $-1 $300 forward single #
loop $-1 -1 $-1 $-1 $382 $208 #
torus-surface $-1 -1 $-1 0 32.535533905932752 0 0 -1 0 104 4 -0.99993185068248203 0 0.011674501732685879 forward_v I I I I #
loop $-1 -1 $-1 $-1 $214 $137 #
coedge $-1 -1 $-1 $302 $302 $383 $384 reversed $209 $-1 #
coedge $-1 -1 $-1 $385 $211 $213 $307 reversed $138 $-1 #
coedge $-1 -1 $-1 $211 $385 $212 $306 forward $138 $-1 #
coedge $-1 -1 $-1 $213 $212 $386 $387 forward $93 $-1 #
edge $388 -1 $-1 $389 -1.4210854715202004e-014 $217 42 $304 $390 forward @7 unknown #
edge $391 -1 $-1 $392 0 $218 42 $303 $393 forward @7 unknown #
vertex $-1 -1 $-1 $215 $394 #
ellipse-curve $-1 -1 $-1 -2.811863853416507e-030 74.535533905932766 0 -9.7914371751302423e-034 1 -3.1501941866285438e-028 249.99999999999994 0 -3.0615158845559425e-014 1 I I #
point $-1 -1 $-1 -100 74.535533905932752 -5.5369951679207219e-009 #
point $-1 -1 $-1 100 74.535533905932752 7.4585812063580424e-009 #
model_id-kcp-attrib $-1 -1 $-1 $-1 $221 1 1021499281 1021499281 -1997078527 8 #
face $395 -1 $-1 $396 $397 $10 $-1 $398 reversed single #
loop $-1 -1 $-1 $399 $400 $221 #
plane-surface $-1 -1 $-1 0 90 0 0 -1 0 -1 0 0 forward_v I I I I #
coedge $-1 -1 $-1 $401 $402 $403 $404 forward $222 $-1 #
coedge $-1 -1 $-1 $228 $228 $405 $406 forward $224 $-1 #
coedge $-1 -1 $-1 $225 $225 $407 $408 reversed $145 $-1 #
coedge $-1 -1 $-1 $402 $401 $225 $320 reversed $222 $-1 #
edge $409 -1 $-1 $410 -3.1415926535897931 $411 0 $225 $412 reversed @7 unknown #
coedge $-1 -1 $-1 $405 $335 $226 $322 reversed $413 $-1 #
edge $-1 -1 $-1 $327 0 $233 66.568542494923861 $321 $414 forward @7 unknown #
coedge $-1 -1 $-1 $335 $405 $227 $324 forward $413 $-1 #
edge $-1 -1 $-1 $326 0 $232 66.568542494923818 $323 $415 forward @7 unknown #
attrib_edge_convexity-kcp-attrib $-1 -1 $416 $-1 $229 2 #
vertex $-1 -1 $-1 $229 $417 #
vertex $-1 -1 $-1 $229 $418 #
ellipse-curve $-1 -1 $-1 0 40 0 0 -1 0 -195.85786437626905 0 0 1 I I #
straight-curve $-1 -1 $-1 -242.92893218813447 -7.0710678118655039 -5.9498462776974978e-014 -0.70710678118654757 0.70710678118654757 -1.7318549141438721e-016 I I #
straight-curve $-1 -1 $-1 242.92893218813447 -7.0710678118655039 2.9749231388487489e-014 0.70710678118654757 0.70710678118654757 8.6592745707193603e-017 I I #
point $-1 -1 $-1 242.92893218813447 -7.0710678118654471 2.9749231388487489e-014 #
point $-1 -1 $-1 -242.92893218813447 -7.0710678118655039 -5.9498462776974978e-014 #
coedge $-1 -1 $-1 $237 $236 $419 $420 reversed $238 $-1 #
face $421 -1 $-1 $247 $238 $10 $-1 $346 forward single #
coedge $-1 -1 $-1 $321 $323 $242 $336 forward $413 $-1 #
edge $-1 -1 $-1 $232 -3.1415926535897931 $233 2.4492127076447545e-016 $335 $422 reversed @7 unknown #
model_id-kcp-attrib $-1 -1 $-1 $-1 $243 1 1021499281 1021499281 -1997078527 14 #
coedge $-1 -1 $-1 $419 $419 $244 $339 forward $423 $-1 #
edge $424 -1 $-1 $342 -4.7123889803846897 $340 -1.5707963267948957 $338 $425 reversed @7 unknown #
vertex $-1 -1 $-1 $339 $426 #
ellipse-curve $-1 -1 $-1 198.34314575050769 46.000000000000078 -5.6470246642927922e-009 8.1397415674192298e-010 1.4118001864169733e-009 -1 -4.0358827391173691e-012 3.9999999999999218 5.6472007456644978e-009 1 I I #
vertex $-1 -1 $-1 $339 $427 #
ellipse-curve $-1 -1 $-1 -198.34314575050766 45.999999999999986 5.6498989111199819e-009 -8.1425074412435929e-010 1.4124702868887076e-009 1 4.007461029686965e-012 4.0000000000000142 -5.6498811475515879e-009 1 I I #
model_id-kcp-attrib $-1 -1 $-1 $-1 $247 1 1021499281 1021499281 -1997078527 16 #
face $428 -1 $-1 $429 $430 $10 $-1 $431 reversed single #
torus-surface $-1 -1 $-1 0 46 0 0 -1 0 198.34314575050766 4 0.99997527682801657 0 0.00703176597532368 forward_v I I I I #
plane-surface $-1 -1 $-1 249.99999999999997 0 0 -1 0 0 0 0 1 forward_v I I I I #
coedge $-1 -1 $-1 $254 $252 $256 $352 reversed $170 $-1 #
edge $-1 -1 $-1 $267 -249.99999999999994 $354 249.99999999999994 $266 $432 forward @7 unknown #
vertex $-1 -1 $-1 $352 $433 #
straight-curve $-1 -1 $-1 -249.99999999999997 -78.535533905932752 0 0 0 -1 I I #
edge $-1 -1 $-1 $350 -78.535533905932752 $354 78.535533905932752 $348 $434 forward @7 unknown #
straight-curve $-1 -1 $-1 0 -78.535533905932752 -249.99999999999994 -1 0 0 I I #
vertex $-1 -1 $-1 $259 $435 #
straight-curve $-1 -1 $-1 0 78.535533905932752 -249.99999999999994 1 0 0 I I #
point $-1 -1 $-1 249.99999999999997 78.535533905932752 -249.99999999999994 #
point $-1 -1 $-1 249.99999999999997 -78.535533905932752 -249.99999999999994 #
straight-curve $-1 -1 $-1 -249.99999999999997 0 249.99999999999994 0 -1 0 I I #
point $-1 -1 $-1 -249.99999999999997 78.535533905932752 249.99999999999994 #
point $-1 -1 $-1 -249.99999999999997 -78.535533905932752 249.99999999999994 #
straight-curve $-1 -1 $-1 249.99999999999997 -78.535533905932752 0 0 0 -1 I I #
straight-curve $-1 -1 $-1 249.99999999999997 78.535533905932752 0 0 0 -1 I I #
point $-1 -1 $-1 -90 68.535533905932752 -2.2042914368802791e-014 #
face $-1 -1 $-1 $-1 $436 $31 $-1 $437 reversed single #
loop $-1 -1 $-1 $-1 $438 $280 #
coedge $-1 -1 $-1 $370 $439 $440 $441 reversed $281 $-1 #
coedge $-1 -1 $-1 $367 $367 $284 $368 forward $436 $-1 #
edge $442 -1 $-1 $443 -3.1415926535897931 $443 3.1415926535897931 $284 $444 forward @7 unknown #
coedge $-1 -1 $-1 $286 $285 $445 $446 forward $127 $-1 #
coedge $-1 -1 $-1 $447 $366 $287 $371 reversed $281 $-1 #
edge $448 -1 $-1 $373 9.0579664980726769e-012 $376 3.1415926535793584 $287 $449 forward @7 unknown #
convexity-sys-attrib $-1 -1 $-1 $-1 $288 #
vertex $-1 -1 $-1 $446 $450 #
straight-curve $-1 -1 $-1 -150 -17.464466094067248 -3.6738190614671318e-014 0 1 0 I I #
convexity-sys-attrib $-1 -1 $-1 $-1 $289 #
vertex $-1 -1 $-1 $289 $451 #
straight-curve $-1 -1 $-1 150 -17.464466094067248 1.8369095307335659e-014 0 1 0 I I #
point $-1 -1 $-1 -249.99999999999994 24.535533905932752 0 #
point $-1 -1 $-1 -140 18.535533905932752 -3.4288977907026563e-014 #
face $-1 -1 $-1 $-1 $452 $35 $-1 $453 reversed single #
loop $-1 -1 $-1 $-1 $454 $298 #
coedge $-1 -1 $-1 $386 $455 $456 $457 reversed $299 $-1 #
coedge $-1 -1 $-1 $383 $383 $302 $384 forward $452 $-1 #
edge $458 -1 $-1 $459 -3.1415926535897931 $459 3.1415926535897931 $302 $460 forward @7 unknown #
coedge $-1 -1 $-1 $304 $303 $461 $462 forward $138 $-1 #
coedge $-1 -1 $-1 $463 $382 $305 $387 reversed $299 $-1 #
edge $464 -1 $-1 $389 3.1136307207737864e-011 $392 3.141592653553797 $305 $465 forward @7 unknown #
convexity-sys-attrib $-1 -1 $-1 $-1 $306 #
vertex $-1 -1 $-1 $462 $466 #
straight-curve $-1 -1 $-1 -100 32.535533905932752 -2.4492127076447545e-014 0 1 0 I I #
convexity-sys-attrib $-1 -1 $-1 $-1 $307 #
vertex $-1 -1 $-1 $307 $467 #
straight-curve $-1 -1 $-1 100 32.535533905932752 1.2246063538223773e-014 0 1 0 I I #
point $-1 -1 $-1 -249.99999999999994 74.53553390593278 0 #
model_id-kcp-attrib $-1 -1 $-1 $-1 $313 1 1021499281 1021499281 -1997078527 9 #
face $468 -1 $-1 $469 $470 $10 $-1 $471 forward single #
loop $-1 -1 $-1 $-1 $472 $313 #
cone-surface $-1 -1 $-1 0 157.5 0 0 -1 0 -90 0 0 1 I I 0 1 90 forward I I I I #
loop $-1 -1 $-1 $-1 $473 $221 #
coedge $-1 -1 $-1 $474 $474 $475 $476 forward $314 $-1 #
coedge $-1 -1 $-1 $319 $316 $477 $478 forward $222 $-1 #
coedge $-1 -1 $-1 $316 $319 $479 $480 reversed $222 $-1 #
coedge $-1 -1 $-1 $473 $473 $316 $404 reversed $399 $-1 #
edge $481 -1 $-1 $482 -3.1415926535897931 $483 -2.4492127076447545e-016 $403 $484 reversed @7 unknown #
coedge $-1 -1 $-1 $323 $321 $317 $406 reversed $413 $-1 #
edge $485 -1 $-1 $326 -3.1415926535897931 $327 2.4492127076447545e-016 $317 $486 forward @7 unknown #
coedge $-1 -1 $-1 $477 $479 $318 $408 forward $487 $-1 #
edge $488 -1 $-1 $410 -3.1415926535897931 $411 0 $407 $489 reversed @7 unknown #
attrib_edge_convexity-kcp-attrib $-1 -1 $490 $-1 $320 1 #
vertex $-1 -1 $-1 $480 $491 #
vertex $-1 -1 $-1 $478 $492 #
ellipse-curve $-1 -1 $-1 0 40 0 0 -1 0 -140 0 0 1 I I #
loop $-1 -1 $-1 $-1 $335 $493 #
straight-curve $-1 -1 $-1 -195.85786437626899 40.000000000000028 -4.7969757032252088e-014 -0.70710678118654746 -0.70710678118654746 -1.7318549141438711e-016 I I #
straight-curve $-1 -1 $-1 195.85786437626899 40.000000000000028 2.3984878516126044e-014 0.70710678118654746 -0.70710678118654746 8.6592745707193554e-017 I I #
convexity-sys-attrib $-1 -1 $-1 $325 $229 #
point $-1 -1 $-1 195.85786437626899 40.000000000000028 2.3984878516126044e-014 #
point $-1 -1 $-1 -195.85786437626899 40.000000000000028 -4.7969757032252088e-014 #
coedge $-1 -1 $-1 $338 $338 $333 $420 forward $423 $-1 #
edge $494 -1 $-1 $340 -1.5707963267948957 $342 1.5707963267948968 $419 $495 reversed @7 unknown #
model_id-kcp-attrib $-1 -1 $-1 $-1 $334 1 1021499281 1021499281 -1997078527 15 #
ellipse-curve $-1 -1 $-1 0 -7.0710678118654755 0 0 1 0 -242.92893218813447 0 0 1 I I #
loop $-1 -1 $-1 $-1 $419 $345 #
attrib_edge_convexity-kcp-attrib $-1 -1 $496 $-1 $339 3 #
ellipse-curve $-1 -1 $-1 0 50 0 0 -1 0 0 0 -198.34314575050766 1 I I #
point $-1 -1 $-1 198.34314575050624 50 -1.6964207816272271e-013 #
point $-1 -1 $-1 -198.34314575050365 50 1.7763568394002145e-014 #
model_id-kcp-attrib $-1 -1 $-1 $-1 $345 1 1021499281 1021499281 -1997078527 17 #
face $497 -1 $-1 $498 $499 $10 $-1 $500 reversed single #
loop $-1 -1 $-1 $423 $501 $345 #
plane-surface $-1 -1 $-1 0 50 0 0 -1 0 -1 0 0 forward_v I I I I #
straight-curve $-1 -1 $-1 -249.99999999999997 78.535533905932752 0 0 0 -1 I I #
point $-1 -1 $-1 -249.99999999999997 -78.535533905932752 -249.99999999999994 #
straight-curve $-1 -1 $-1 -249.99999999999997 0 -249.99999999999994 0 1 0 I I #
point $-1 -1 $-1 -249.99999999999997 78.535533905932752 -249.99999999999994 #
loop $-1 -1 $-1 $502 $367 $364 #
plane-surface $-1 -1 $-1 0 -21.464466094067234 0 0 1 0 -1 0 0 forward_v I I I I #
coedge $-1 -1 $-1 $445 $503 $447 $504 reversed $365 $-1 #
coedge $-1 -1 $-1 $366 $447 $505 $506 forward $281 $-1 #
coedge $-1 -1 $-1 $503 $445 $366 $441 forward $365 $-1 #
edge $507 -1 $-1 $376 0 $508 1.5707963267949072 $440 $509 forward @7 unknown #
convexity-sys-attrib $-1 -1 $-1 $-1 $368 #
vertex $-1 -1 $-1 $368 $510 #
ellipse-curve $-1 -1 $-1 -2.811863853416507e-030 -21.464466094067234 0 0 -1 0 249.99999999999994 0 -3.0615158845559425e-014 1 I I #
coedge $-1 -1 $-1 $440 $438 $369 $446 reversed $365 $-1 #
edge $511 -1 $-1 $376 -3.1415926536002279 $373 9.0579664980726769e-012 $369 $512 forward @7 unknown #
coedge $-1 -1 $-1 $439 $370 $438 $504 forward $281 $-1 #
convexity-sys-attrib $-1 -1 $-1 $-1 $371 #
ellipse-curve $-1 -1 $-1 0 -17.464466094067248 0 0 -1 0 -150 0 0 1 I I #
point $-1 -1 $-1 -150 -17.464466094067262 -1.3586949747109015e-009 #
point $-1 -1 $-1 150 -17.464466094067248 -1.5652146245770382e-009 #
loop $-1 -1 $-1 $513 $383 $380 #
plane-surface $-1 -1 $-1 0 28.535533905932766 0 0 1 0 -1 0 0 forward_v I I I I #
coedge $-1 -1 $-1 $461 $514 $463 $515 reversed $381 $-1 #
coedge $-1 -1 $-1 $382 $463 $516 $517 forward $299 $-1 #
coedge $-1 -1 $-1 $514 $461 $382 $457 forward $381 $-1 #
edge $518 -1 $-1 $392 0 $519 1.5707963267948823 $456 $520 forward @7 unknown #
convexity-sys-attrib $-1 -1 $-1 $-1 $384 #
vertex $-1 -1 $-1 $384 $521 #
ellipse-curve $-1 -1 $-1 -2.811863853416507e-030 28.535533905932766 0 0 -1 0 249.99999999999994 0 -3.0615158845559425e-014 1 I I #
coedge $-1 -1 $-1 $456 $454 $385 $462 reversed $381 $-1 #
edge $522 -1 $-1 $392 -3.1415926536257892 $389 3.1136307207737864e-011 $385 $523 forward @7 unknown #
coedge $-1 -1 $-1 $455 $386 $454 $515 forward $299 $-1 #
convexity-sys-attrib $-1 -1 $-1 $-1 $387 #
ellipse-curve $-1 -1 $-1 0 32.535533905932752 0 0 -1 0 -100 0 0 1 I I #
point $-1 -1 $-1 -100 32.535533905932738 -3.1136307207737866e-009 #
point $-1 -1 $-1 99.999999999999986 32.535533905932752 -3.5996092858562396e-009 #
model_id-kcp-attrib $-1 -1 $-1 $-1 $396 1 1021499281 1021499281 -1997078527 10 #
face $524 -1 $-1 $525 $526 $10 $-1 $398 reversed single #
loop $-1 -1 $-1 $-1 $527 $396 #
plane-surface $-1 -1 $-1 0 140 0 0 -1 0 -1 0 0 forward_v I I I I #
coedge $-1 -1 $-1 $528 $529 $530 $531 forward $397 $-1 #
coedge $-1 -1 $-1 $403 $403 $532 $533 forward $399 $-1 #
coedge $-1 -1 $-1 $400 $400 $534 $535 reversed $314 $-1 #
coedge $-1 -1 $-1 $529 $528 $400 $476 reversed $397 $-1 #
edge $536 -1 $-1 $537 -3.1415926535897931 $538 0 $400 $539 reversed @7 unknown #
coedge $-1 -1 $-1 $532 $407 $401 $478 reversed $487 $-1 #
edge $-1 -1 $-1 $483 0 $411 50 $477 $540 forward @7 unknown #
coedge $-1 -1 $-1 $407 $532 $402 $480 forward $487 $-1 #
edge $-1 -1 $-1 $482 0 $410 50 $479 $541 forward @7 unknown #
attrib_edge_convexity-kcp-attrib $-1 -1 $542 $-1 $404 2 #
vertex $-1 -1 $-1 $404 $543 #
vertex $-1 -1 $-1 $404 $544 #
ellipse-curve $-1 -1 $-1 0 90 0 0 -1 0 -140 0 0 1 I I #
attrib_edge_convexity-kcp-attrib $-1 -1 $545 $-1 $406 2 #
ellipse-curve $-1 -1 $-1 0 40 0 0 -1 0 -195.85786437626905 0 0 1 I I #
loop $-1 -1 $-1 $-1 $407 $525 #
attrib_edge_convexity-kcp-attrib $-1 -1 $546 $-1 $408 1 #
ellipse-curve $-1 -1 $-1 0 40 0 0 1 0 -140 0 0 1 I I #
convexity-sys-attrib $-1 -1 $-1 $409 $320 #
point $-1 -1 $-1 140 40 1.7144488953513282e-014 #
point $-1 -1 $-1 -140 40 0 #
face $547 -1 $-1 $243 $413 $10 $-1 $100 reversed single #
attrib_edge_convexity-kcp-attrib $-1 -1 $548 $-1 $420 3 #
ellipse-curve $-1 -1 $-1 0 50 0 0 -1 0 0 0 -198.34314575050766 1 I I #
convexity-sys-attrib $-1 -1 $-1 $424 $339 #
model_id-kcp-attrib $-1 -1 $-1 $-1 $429 1 1021499281 1021499281 -1997078527 18 #
face $549 -1 $-1 $550 $551 $10 $-1 $500 reversed single #
loop $-1 -1 $-1 $-1 $552 $429 #
torus-surface $-1 -1 $-1 0 54 0 0 -1 0 154 4 -0.99996971122330869 0 0.0077830993808772403 forward_v I I I I #
coedge $-1 -1 $-1 $553 $553 $554 $555 forward $430 $-1 #
loop $-1 -1 $-1 $-1 $505 $364 #
coedge $-1 -1 $-1 $438 $440 $556 $557 forward $365 $-1 #
edge $558 -1 $-1 $373 3.5492443163672017e-015 $559 1.570796326794893 $438 $560 forward @7 unknown #
coedge $-1 -1 $-1 $556 $556 $439 $506 reversed $502 $-1 #
edge $561 -1 $-1 $559 -1.5707963267948972 $508 1.570796326794897 $505 $562 forward @7 unknown #
convexity-sys-attrib $-1 -1 $-1 $-1 $441 #
vertex $-1 -1 $-1 $506 $563 #
ellipse-curve $-1 -1 $-1 153.99999999999997 -17.464466094067262 1.8984746038528564e-008 -5.1374901657764534e-009 -4.7461693566864468e-009 1 -3.9999999999999716 1.4210854715202004e-014 -2.0549960663105602e-008 1 I I #
point $-1 -1 $-1 -249.99999999999994 -21.464466094067234 0 #
convexity-sys-attrib $-1 -1 $-1 $-1 $446 #
ellipse-curve $-1 -1 $-1 0 -17.464466094067248 0 0 -1 0 -150 0 0 1 I I #
loop $-1 -1 $-1 $-1 $516 $380 #
coedge $-1 -1 $-1 $454 $456 $564 $565 forward $381 $-1 #
edge $566 -1 $-1 $389 3.5365510638649759e-015 $567 1.5707963267948752 $454 $568 forward @7 unknown #
coedge $-1 -1 $-1 $564 $564 $455 $517 reversed $513 $-1 #
edge $569 -1 $-1 $567 -1.5707963267948968 $519 1.5707963267948966 $516 $570 forward @7 unknown #
convexity-sys-attrib $-1 -1 $-1 $-1 $457 #
vertex $-1 -1 $-1 $517 $571 #
ellipse-curve $-1 -1 $-1 104.00000000000001 32.53553390593278 3.8521166635335192e-008 -1.0530193980297715e-008 -9.6302916033225276e-009 1 -4.0000000000000284 -2.8421709430404007e-014 -4.2120775921191431e-008 1 I I #
point $-1 -1 $-1 -249.99999999999994 28.535533905932766 0 #
convexity-sys-attrib $-1 -1 $-1 $-1 $462 #
ellipse-curve $-1 -1 $-1 0 32.535533905932752 0 0 -1 0 -100 0 0 1 I I #
model_id-kcp-attrib $-1 -1 $-1 $-1 $469 1 1021499281 1021499281 -1997078527 11 #
face $572 -1 $-1 $493 $487 $10 $-1 $223 reversed single #
loop $-1 -1 $-1 $-1 $534 $469 #
coedge $-1 -1 $-1 $530 $530 $573 $574 forward $470 $-1 #
coedge $-1 -1 $-1 $475 $472 $575 $576 forward $397 $-1 #
coedge $-1 -1 $-1 $472 $475 $577 $578 reversed $397 $-1 #
coedge $-1 -1 $-1 $527 $527 $472 $531 reversed $470 $-1 #
edge $579 -1 $-1 $580 -3.1415926535897931 $581 -2.4492127076447545e-016 $530 $582 reversed @7 unknown #
coedge $-1 -1 $-1 $479 $477 $473 $533 reversed $487 $-1 #
edge $583 -1 $-1 $482 -3.1415926535897931 $483 2.4492127076447545e-016 $473 $584 forward @7 unknown #
coedge $-1 -1 $-1 $575 $577 $474 $535 forward $526 $-1 #
edge $585 -1 $-1 $537 -3.1415926535897931 $538 0 $534 $586 reversed @7 unknown #
attrib_edge_convexity-kcp-attrib $-1 -1 $587 $-1 $476 1 #
vertex $-1 -1 $-1 $578 $588 #
vertex $-1 -1 $-1 $576 $589 #
ellipse-curve $-1 -1 $-1 0 90 0 0 -1 0 -90 0 0 1 I I #
straight-curve $-1 -1 $-1 -140 90 -3.4288977907026563e-014 0 -1 0 I I #
straight-curve $-1 -1 $-1 140 90 1.7144488953513282e-014 0 -1 0 I I #
convexity-sys-attrib $-1 -1 $-1 $481 $404 #
point $-1 -1 $-1 140 90 1.7144488953513282e-014 #
point $-1 -1 $-1 -140 90 -3.4288977907026563e-014 #
convexity-sys-attrib $-1 -1 $-1 $485 $406 #
convexity-sys-attrib $-1 -1 $-1 $488 $408 #
model_id-kcp-attrib $-1 -1 $-1 $-1 $493 1 1021499281 1021499281 -1997078527 13 #
convexity-sys-attrib $-1 -1 $-1 $494 $420 #
model_id-kcp-attrib $-1 -1 $-1 $-1 $498 1 1021499281 1021499281 -1997078527 19 #
face $590 -1 $-1 $591 $592 $10 $-1 $593 forward single #
loop $-1 -1 $-1 $-1 $594 $498 #
coedge $-1 -1 $-1 $554 $595 $596 $597 forward $499 $-1 #
coedge $-1 -1 $-1 $501 $501 $598 $599 forward $430 $-1 #
coedge $-1 -1 $-1 $600 $552 $501 $555 reversed $499 $-1 #
edge $601 -1 $-1 $602 -1.5707963267948972 $603 1.5707963267948972 $501 $604 forward @7 unknown #
coedge $-1 -1 $-1 $505 $505 $503 $557 reversed $502 $-1 #
edge $605 -1 $-1 $508 1.570796326794897 $559 4.7123889803846888 $556 $606 forward @7 unknown #
convexity-sys-attrib $-1 -1 $-1 $-1 $504 #
vertex $-1 -1 $-1 $506 $607 #
ellipse-curve $-1 -1 $-1 -154 -17.464466094067234 -1.8984354025014465e-008 5.1374088157432285e-009 -4.746088450742383e-009 -1 4 -1.4210854715202004e-014 2.054963526297298e-008 1 I I #
convexity-sys-attrib $-1 -1 $-1 $-1 $506 #
ellipse-curve $-1 -1 $-1 0 -21.464466094067234 0 0 -1 0 0 0 -154 1 I I #
point $-1 -1 $-1 154 -21.464466094067248 6.8611782921834674e-014 #
coedge $-1 -1 $-1 $516 $516 $514 $565 reversed $513 $-1 #
edge $608 -1 $-1 $519 1.5707963267948966 $567 4.7123889803846897 $564 $609 forward @7 unknown #
convexity-sys-attrib $-1 -1 $-1 $-1 $515 #
vertex $-1 -1 $-1 $517 $610 #
ellipse-curve $-1 -1 $-1 -104.00000000000001 32.53553390593278 -3.8521167156819582e-008 1.0530194110668813e-008 -9.6302917336935723e-009 -1 4.0000000000000284 -2.8421709430404007e-014 4.2120776442675821e-008 1 I I #
convexity-sys-attrib $-1 -1 $-1 $-1 $517 #
ellipse-curve $-1 -1 $-1 0 28.535533905932766 0 0 -1 0 0 0 -104 1 I I #
point $-1 -1 $-1 103.99999999999999 28.535533905932752 2.2204460492503128e-016 #
model_id-kcp-attrib $-1 -1 $-1 $-1 $525 1 1021499281 1021499281 -1997078527 12 #
coedge $-1 -1 $-1 $577 $575 $527 $574 reversed $526 $-1 #
edge $611 -1 $-1 $580 -3.1415926535897931 $581 2.4492127076447545e-016 $527 $612 forward @7 unknown #
coedge $-1 -1 $-1 $573 $534 $528 $576 reversed $526 $-1 #
edge $-1 -1 $-1 $581 0 $538 50 $575 $613 forward @7 unknown #
coedge $-1 -1 $-1 $534 $573 $529 $578 forward $526 $-1 #
edge $-1 -1 $-1 $580 0 $537 50 $577 $614 forward @7 unknown #
attrib_edge_convexity-kcp-attrib $-1 -1 $615 $-1 $531 2 #
vertex $-1 -1 $-1 $531 $616 #
vertex $-1 -1 $-1 $531 $617 #
ellipse-curve $-1 -1 $-1 0 140 0 0 -1 0 -90 0 0 1 I I #
attrib_edge_convexity-kcp-attrib $-1 -1 $618 $-1 $533 2 #
ellipse-curve $-1 -1 $-1 0 90 0 0 -1 0 -140 0 0 1 I I #
attrib_edge_convexity-kcp-attrib $-1 -1 $619 $-1 $535 1 #
ellipse-curve $-1 -1 $-1 0 90 0 0 1 0 -90 0 0 1 I I #
convexity-sys-attrib $-1 -1 $-1 $536 $476 #
point $-1 -1 $-1 90 90 1.1021457184401395e-014 #
point $-1 -1 $-1 -90 90 0 #
model_id-kcp-attrib $-1 -1 $-1 $-1 $550 1 1021499281 1021499281 -1997078527 20 #
face $620 -1 $-1 $621 $622 $10 $-1 $593 forward single #
loop $-1 -1 $-1 $-1 $623 $550 #
cone-surface $-1 -1 $-1 0 157.5 0 0 -1 0 -150 0 0 1 I I 0 1 150 forward I I I I #
coedge $-1 -1 $-1 $598 $624 $600 $625 forward $551 $-1 #
coedge $-1 -1 $-1 $552 $600 $626 $627 forward $499 $-1 #
coedge $-1 -1 $-1 $624 $598 $552 $597 reversed $551 $-1 #
edge $628 -1 $-1 $629 9.2444637330588635e-032 $603 1.5707963267949074 $596 $630 forward @7 unknown #
coedge $-1 -1 $-1 $596 $594 $553 $599 reversed $551 $-1 #
edge $631 -1 $-1 $603 1.5707963267948972 $602 4.7123889803846888 $553 $632 forward @7 unknown #
coedge $-1 -1 $-1 $595 $554 $594 $625 reversed $499 $-1 #
attrib_edge_convexity-kcp-attrib $-1 -1 $633 $-1 $555 4 #
vertex $-1 -1 $-1 $599 $634 #
vertex $-1 -1 $-1 $599 $635 #
ellipse-curve $-1 -1 $-1 0 50 0 0 -1 0 0 0 -154 1 I I #
convexity-sys-attrib $-1 -1 $-1 $-1 $557 #
ellipse-curve $-1 -1 $-1 0 -21.464466094067234 0 0 -1 0 0 0 -154 1 I I #
point $-1 -1 $-1 -154 -21.464466094067248 8.7041485130612273e-014 #
convexity-sys-attrib $-1 -1 $-1 $-1 $565 #
ellipse-curve $-1 -1 $-1 0 28.535533905932766 0 0 -1 0 0 0 -104 1 I I #
point $-1 -1 $-1 -103.99999999999996 28.535533905932752 1.2434497875801749e-014 #
attrib_edge_convexity-kcp-attrib $-1 -1 $636 $-1 $574 2 #
ellipse-curve $-1 -1 $-1 0 140 0 0 -1 0 -90 0 0 1 I I #
straight-curve $-1 -1 $-1 -90 140 -2.2042914368802791e-014 0 -1 0 I I #
straight-curve $-1 -1 $-1 90 140 1.1021457184401395e-014 0 -1 0 I I #
convexity-sys-attrib $-1 -1 $-1 $579 $531 #
point $-1 -1 $-1 90 140 1.1021457184401395e-014 #
point $-1 -1 $-1 -90 140 -2.2042914368802791e-014 #
convexity-sys-attrib $-1 -1 $-1 $583 $533 #
convexity-sys-attrib $-1 -1 $-1 $585 $535 #
model_id-kcp-attrib $-1 -1 $-1 $-1 $591 1 1021499281 1021499281 -1997078527 21 #
face $637 -1 $-1 $638 $639 $10 $-1 $640 forward single #
loop $-1 -1 $-1 $-1 $641 $591 #
coedge $-1 -1 $-1 $642 $643 $644 $645 reversed $592 $-1 #
coedge $-1 -1 $-1 $594 $596 $642 $646 forward $551 $-1 #
edge $647 -1 $-1 $648 3.5492443163672017e-015 $602 1.570796326794893 $594 $649 forward @7 unknown #
coedge $-1 -1 $-1 $644 $641 $595 $627 reversed $622 $-1 #
edge $650 -1 $-1 $648 9.0579664980726769e-012 $629 3.1415926535793584 $626 $651 forward @7 unknown #
attrib_edge_convexity-kcp-attrib $-1 -1 $652 $-1 $597 3 #
vertex $-1 -1 $-1 $653 $654 #
ellipse-curve $-1 -1 $-1 153.99999999999997 53.999999999999986 1.8984746038528564e-008 -5.1374901657764534e-009 -4.7461693566864468e-009 1 -3.9999999999999716 1.4210854715202004e-014 -2.0549960663105602e-008 1 I I #
attrib_edge_convexity-kcp-attrib $-1 -1 $655 $-1 $599 4 #
ellipse-curve $-1 -1 $-1 0 50 0 0 -1 0 0 0 -154 1 I I #
convexity-sys-attrib $-1 -1 $-1 $601 $555 #
point $-1 -1 $-1 -154 50 8.7041485130612273e-014 #
point $-1 -1 $-1 154 50 6.8611782921834674e-014 #
convexity-sys-attrib $-1 -1 $-1 $611 $574 #
model_id-kcp-attrib $-1 -1 $-1 $-1 $621 1 1021499281 1021499281 -1997078527 22 #
face $656 -1 $-1 $657 $658 $10 $-1 $640 forward single #
loop $-1 -1 $-1 $-1 $659 $621 #
torus-surface $-1 -1 $-1 0 96 0 0 -1 0 146 4 0.99994437314955453 0 0.010547540307791139 forward_v I I I I #
coedge $-1 -1 $-1 $626 $660 $661 $653 reversed $622 $-1 #
coedge $-1 -1 $-1 $661 $623 $624 $646 reversed $592 $-1 #
coedge $-1 -1 $-1 $623 $661 $662 $663 reversed $592 $-1 #
coedge $-1 -1 $-1 $660 $626 $623 $645 forward $622 $-1 #
edge $-1 -1 $-1 $648 -1.4210854715202004e-014 $664 42 $623 $665 forward @7 unknown #
edge $666 -1 $-1 $629 -3.1415926536002279 $648 9.0579664980726769e-012 $642 $667 forward @7 unknown #
attrib_edge_convexity-kcp-attrib $-1 -1 $668 $-1 $625 3 #
vertex $-1 -1 $-1 $646 $669 #
ellipse-curve $-1 -1 $-1 -154 54.000000000000014 -1.8984354025014465e-008 5.1374088157432285e-009 -4.746088450742383e-009 -1 4 -1.4210854715202004e-014 2.054963526297298e-008 1 I I #
attrib_edge_convexity-kcp-attrib $-1 -1 $670 $-1 $627 4 #
ellipse-curve $-1 -1 $-1 0 54 0 0 -1 0 -150 0 0 1 I I #
convexity-sys-attrib $-1 -1 $-1 $628 $597 #
edge $-1 -1 $-1 $629 0 $671 41.999999999999986 $661 $672 forward @7 unknown #
point $-1 -1 $-1 150 54 -1.5652146245770382e-009 #
convexity-sys-attrib $-1 -1 $-1 $631 $599 #
model_id-kcp-attrib $-1 -1 $-1 $-1 $638 1 1021499281 1021499281 -1997078527 23 #
face $673 -1 $-1 $674 $675 $10 $-1 $676 reversed single #
loop $-1 -1 $-1 $-1 $677 $638 #
coedge $-1 -1 $-1 $678 $679 $680 $681 forward $639 $-1 #
coedge $-1 -1 $-1 $641 $644 $678 $682 reversed $622 $-1 #
coedge $-1 -1 $-1 $643 $642 $641 $653 forward $592 $-1 #
coedge $-1 -1 $-1 $680 $677 $643 $663 forward $658 $-1 #
edge $-1 -1 $-1 $664 -1.621489244244408e-011 $671 3.1415926535680581 $643 $683 reversed @7 unknown #
vertex $-1 -1 $-1 $663 $684 #
straight-curve $-1 -1 $-1 -150 54 -3.6738190614671318e-014 0 1 0 I I #
attrib_edge_convexity-kcp-attrib $-1 -1 $685 $-1 $646 4 #
ellipse-curve $-1 -1 $-1 0 54 0 0 -1 0 -150 0 0 1 I I #
convexity-sys-attrib $-1 -1 $-1 $647 $625 #
point $-1 -1 $-1 -150 53.999999999999986 -1.3586949747109015e-009 #
convexity-sys-attrib $-1 -1 $-1 $650 $627 #
vertex $-1 -1 $-1 $663 $686 #
straight-curve $-1 -1 $-1 150 54 1.8369095307335659e-014 0 1 0 I I #
model_id-kcp-attrib $-1 -1 $-1 $-1 $657 1 1021499281 1021499281 -1997078527 24 #
face $687 -1 $-1 $688 $689 $10 $-1 $690 reversed single #
loop $-1 -1 $-1 $691 $692 $657 #
plane-surface $-1 -1 $-1 0 100 0 0 -1 0 -1 0 0 forward_v I I I I #
coedge $-1 -1 $-1 $662 $693 $694 $695 forward $658 $-1 #
coedge $-1 -1 $-1 $694 $659 $660 $682 forward $639 $-1 #
coedge $-1 -1 $-1 $659 $694 $696 $697 reversed $639 $-1 #
coedge $-1 -1 $-1 $693 $662 $659 $681 reversed $658 $-1 #
edge $-1 -1 $-1 $698 3.9790393199134952e-012 $671 1.5707963268008192 $680 $699 forward @7 unknown #
edge $-1 -1 $-1 $671 -3.1415926536115282 $664 -1.621489244244408e-011 $660 $700 reversed @7 unknown #
ellipse-curve $-1 -1 $-1 0 96 0 0 -1 0 -150 0 0 1 I I #
point $-1 -1 $-1 -150 96 -2.4322338663666121e-009 #
convexity-sys-attrib $-1 -1 $-1 $666 $646 #
point $-1 -1 $-1 150 95.999999999999986 3.2602566765015734e-009 #
model_id-kcp-attrib $-1 -1 $-1 $-1 $674 1 1021499281 1021499281 -1997078527 25 #
face $701 -1 $-1 $702 $703 $10 $-1 $690 reversed single #
loop $-1 -1 $-1 $-1 $704 $674 #
torus-surface $-1 -1 $-1 0 104 0 0 -1 0 104 4 -0.99993185068248203 0 0.011674501732685879 forward_v I I I I #
loop $-1 -1 $-1 $-1 $696 $657 #
coedge $-1 -1 $-1 $705 $705 $706 $707 forward $675 $-1 #
coedge $-1 -1 $-1 $677 $680 $708 $709 reversed $658 $-1 #
coedge $-1 -1 $-1 $679 $678 $677 $695 reversed $639 $-1 #
edge $-1 -1 $-1 $710 8.6960551813941584e-030 $664 1.5707963268007978 $677 $711 forward @7 unknown #
coedge $-1 -1 $-1 $708 $708 $679 $697 forward $691 $-1 #
edge $712 -1 $-1 $698 -1.5707963267948872 $710 1.5707963267948741 $696 $713 reversed @7 unknown #
vertex $-1 -1 $-1 $709 $714 #
ellipse-curve $-1 -1 $-1 145.99999999999994 95.999999999999943 1.2406514835879906e-009 2.9791732488844215e-010 -3.0935240808724953e-010 -1 -2.3732127374387346e-011 4.0000000000000568 -1.2374096323560858e-009 1 I I #
ellipse-curve $-1 -1 $-1 0 96 0 0 -1 0 -150 0 0 1 I I #
model_id-kcp-attrib $-1 -1 $-1 $-1 $688 1 1021499281 1021499281 -1997078527 26 #
face $715 -1 $-1 $716 $717 $10 $-1 $718 forward single #
loop $-1 -1 $-1 $-1 $719 $688 #
coedge $-1 -1 $-1 $706 $720 $721 $722 forward $689 $-1 #
coedge $-1 -1 $-1 $692 $692 $723 $724 forward $675 $-1 #
coedge $-1 -1 $-1 $725 $704 $692 $707 reversed $689 $-1 #
edge $726 -1 $-1 $727 -1.5707963267948968 $728 1.5707963267948968 $692 $729 forward @7 unknown #
coedge $-1 -1 $-1 $696 $696 $693 $709 forward $691 $-1 #
edge $730 -1 $-1 $710 -4.7123889803847119 $698 -1.5707963267948872 $708 $731 reversed @7 unknown #
vertex $-1 -1 $-1 $709 $732 #
ellipse-curve $-1 -1 $-1 -145.99999999999994 95.999999999999929 -1.2404204930638808e-009 -2.9795334332568273e-010 -3.0928339169252496e-010 1 2.3675283955526538e-011 4.0000000000000711 1.2371335667771761e-009 1 I I #
attrib_edge_convexity-kcp-attrib $-1 -1 $733 $-1 $697 3 #
ellipse-curve $-1 -1 $-1 0 100 0 0 -1 0 0 0 -146 1 I I #
point $-1 -1 $-1 145.99999999999213 100 -1.3635759188445438e-012 #
model_id-kcp-attrib $-1 -1 $-1 $-1 $702 1 1021499281 1021499281 -1997078527 27 #
face $734 -1 $-1 $735 $736 $10 $-1 $718 forward single #
loop $-1 -1 $-1 $-1 $737 $702 #
cone-surface $-1 -1 $-1 0 157.5 0 0 -1 0 -100 0 0 1 I I 0 1 100 forward I I I I #
coedge $-1 -1 $-1 $723 $738 $725 $739 forward $703 $-1 #
coedge $-1 -1 $-1 $704 $725 $740 $741 forward $689 $-1 #
coedge $-1 -1 $-1 $738 $723 $704 $722 reversed $703 $-1 #
edge $742 -1 $-1 $743 6.0397163055982858e-031 $728 1.5707963267948823 $721 $744 forward @7 unknown #
coedge $-1 -1 $-1 $721 $719 $705 $724 reversed $703 $-1 #
edge $745 -1 $-1 $728 1.5707963267948968 $727 4.7123889803846897 $705 $746 forward @7 unknown #
coedge $-1 -1 $-1 $720 $706 $719 $739 reversed $689 $-1 #
attrib_edge_convexity-kcp-attrib $-1 -1 $747 $-1 $707 4 #
vertex $-1 -1 $-1 $724 $748 #
vertex $-1 -1 $-1 $724 $749 #
ellipse-curve $-1 -1 $-1 0 100 0 0 -1 0 0 0 -104 1 I I #
attrib_edge_convexity-kcp-attrib $-1 -1 $750 $-1 $709 3 #
ellipse-curve $-1 -1 $-1 0 100 0 0 -1 0 0 0 -146 1 I I #
point $-1 -1 $-1 -145.99999999997627 100 -3.2869262867047041e-012 #
convexity-sys-attrib $-1 -1 $-1 $712 $697 #
model_id-kcp-attrib $-1 -1 $-1 $-1 $716 1 1021499281 1021499281 -1997078527 28 #
face $751 -1 $-1 $752 $753 $10 $-1 $754 forward single #
loop $-1 -1 $-1 $-1 $755 $716 #
coedge $-1 -1 $-1 $756 $757 $758 $759 reversed $717 $-1 #
coedge $-1 -1 $-1 $719 $721 $756 $760 forward $703 $-1 #
edge $761 -1 $-1 $762 3.5365510638649763e-015 $727 1.5707963267948752 $719 $763 forward @7 unknown #
coedge $-1 -1 $-1 $758 $755 $720 $741 reversed $736 $-1 #
edge $764 -1 $-1 $762 3.1136307207737864e-011 $743 3.141592653553797 $740 $765 forward @7 unknown #
attrib_edge_convexity-kcp-attrib $-1 -1 $766 $-1 $722 3 #
vertex $-1 -1 $-1 $767 $768 #
ellipse-curve $-1 -1 $-1 104.00000000000001 104.00000000000003 3.8521166635335192e-008 -1.0530193980297715e-008 -9.6302916033225276e-009 1 -4.0000000000000284 -2.8421709430404007e-014 -4.2120775921191431e-008 1 I I #
attrib_edge_convexity-kcp-attrib $-1 -1 $769 $-1 $724 4 #
ellipse-curve $-1 -1 $-1 0 100 0 0 -1 0 0 0 -104 1 I I #
convexity-sys-attrib $-1 -1 $-1 $726 $707 #
point $-1 -1 $-1 -103.99999999999996 100 1.2434497875801749e-014 #
point $-1 -1 $-1 103.99999999999999 100 2.2204460492503128e-016 #
convexity-sys-attrib $-1 -1 $-1 $730 $709 #
model_id-kcp-attrib $-1 -1 $-1 $-1 $735 1 1021499281 1021499281 -1997078527 29 #
face $770 -1 $-1 $771 $772 $10 $-1 $754 forward single #
loop $-1 -1 $-1 $-1 $773 $735 #
torus-surface $-1 -1 $-1 0 146 0 0 -1 0 96 4 0.99987484103698199 0 0.01582094375408646 forward_v I I I I #
coedge $-1 -1 $-1 $740 $774 $775 $767 reversed $736 $-1 #
coedge $-1 -1 $-1 $775 $737 $738 $760 reversed $717 $-1 #
coedge $-1 -1 $-1 $737 $775 $776 $777 reversed $717 $-1 #
coedge $-1 -1 $-1 $774 $740 $737 $759 forward $736 $-1 #
edge $-1 -1 $-1 $762 -1.4210854715202004e-014 $778 42 $737 $779 forward @7 unknown #
edge $780 -1 $-1 $743 -3.1415926536257892 $762 3.1136307207737864e-011 $756 $781 forward @7 unknown #
attrib_edge_convexity-kcp-attrib $-1 -1 $782 $-1 $739 3 #
vertex $-1 -1 $-1 $760 $783 #
ellipse-curve $-1 -1 $-1 -104.00000000000001 104.00000000000003 -3.8521167156819582e-008 1.0530194110668813e-008 -9.6302917336935723e-009 -1 4.0000000000000284 -2.8421709430404007e-014 4.2120776442675821e-008 1 I I #
attrib_edge_convexity-kcp-attrib $-1 -1 $784 $-1 $741 4 #
ellipse-curve $-1 -1 $-1 0 104 0 0 -1 0 -100 0 0 1 I I #
convexity-sys-attrib $-1 -1 $-1 $742 $722 #
edge $-1 -1 $-1 $743 0 $785 42 $775 $786 forward @7 unknown #
point $-1 -1 $-1 99.999999999999986 104 -3.5996092858562396e-009 #
convexity-sys-attrib $-1 -1 $-1 $745 $724 #
model_id-kcp-attrib $-1 -1 $-1 $-1 $752 1 1021499281 1021499281 -1997078527 30 #
face $787 -1 $-1 $-1 $788 $10 $-1 $789 reversed single #
loop $-1 -1 $-1 $-1 $790 $752 #
coedge $-1 -1 $-1 $791 $792 $793 $794 forward $753 $-1 #
coedge $-1 -1 $-1 $755 $758 $791 $795 reversed $736 $-1 #
coedge $-1 -1 $-1 $757 $756 $755 $767 forward $717 $-1 #
coedge $-1 -1 $-1 $793 $790 $757 $777 forward $772 $-1 #
edge $-1 -1 $-1 $778 -5.5369951679207219e-011 $785 3.1415926535152074 $757 $796 reversed @7 unknown #
vertex $-1 -1 $-1 $777 $797 #
straight-curve $-1 -1 $-1 -100 104 -2.4492127076447545e-014 0 1 0 I I #
attrib_edge_convexity-kcp-attrib $-1 -1 $798 $-1 $760 4 #
ellipse-curve $-1 -1 $-1 0 104 0 0 -1 0 -100 0 0 1 I I #
convexity-sys-attrib $-1 -1 $-1 $761 $739 #
point $-1 -1 $-1 -100 103.99999999999999 -3.1136307207737866e-009 #
convexity-sys-attrib $-1 -1 $-1 $764 $741 #
vertex $-1 -1 $-1 $777 $799 #
straight-curve $-1 -1 $-1 100 104 1.2246063538223773e-014 0 1 0 I I #
model_id-kcp-attrib $-1 -1 $-1 $-1 $771 1 1021499281 1021499281 -1997078527 31 #
loop $-1 -1 $-1 $-1 $800 $771 #
plane-surface $-1 -1 $-1 0 150 0 0 -1 0 -1 0 0 forward_v I I I I #
coedge $-1 -1 $-1 $776 $801 $802 $803 forward $772 $-1 #
coedge $-1 -1 $-1 $802 $773 $774 $795 forward $753 $-1 #
coedge $-1 -1 $-1 $773 $802 $800 $804 reversed $753 $-1 #
coedge $-1 -1 $-1 $801 $776 $773 $794 reversed $772 $-1 #
edge $-1 -1 $-1 $805 1.4377832253378613e-011 $785 1.5707963268161456 $793 $806 forward @7 unknown #
edge $-1 -1 $-1 $785 -3.1415926536643788 $778 -5.5369951679207219e-011 $774 $807 reversed @7 unknown #
ellipse-curve $-1 -1 $-1 0 146 0 0 -1 0 -100 0 0 1 I I #
point $-1 -1 $-1 -100 146 -5.5369951679207219e-009 #
convexity-sys-attrib $-1 -1 $-1 $780 $760 #
point $-1 -1 $-1 100 146 7.4585812063580424e-009 #
coedge $-1 -1 $-1 $808 $808 $792 $804 forward $788 $-1 #
coedge $-1 -1 $-1 $790 $793 $808 $809 reversed $772 $-1 #
coedge $-1 -1 $-1 $792 $791 $790 $803 reversed $753 $-1 #
edge $-1 -1 $-1 $810 1.5688943105419025e-028 $778 1.5707963268161562 $790 $811 forward @7 unknown #
edge $812 -1 $-1 $805 -1.570796326794808 $810 1.5707963267946914 $800 $813 reversed @7 unknown #
vertex $-1 -1 $-1 $809 $814 #
ellipse-curve $-1 -1 $-1 95.999999999999986 145.99999999999997 2.8559117917370535e-009 6.7027038145299035e-010 -7.090538867611981e-010 -1 -8.5023543761053588e-011 4.0000000000000284 -2.8362155471018009e-009 1 I I #
ellipse-curve $-1 -1 $-1 0 146 0 0 -1 0 -100 0 0 1 I I #
coedge $-1 -1 $-1 $800 $800 $801 $809 forward $788 $-1 #
edge $815 -1 $-1 $810 -4.7123889803848948 $805 -1.570796326794808 $808 $816 reversed @7 unknown #
vertex $-1 -1 $-1 $809 $817 #
ellipse-curve $-1 -1 $-1 -96 145.99999999999997 -2.8559168792355999e-009 -6.7026957217128112e-010 -7.0905471454661772e-010 1 8.5066176325199194e-011 4.0000000000000284 2.8362188582435079e-009 1 I I #
attrib_edge_convexity-kcp-attrib $-1 -1 $818 $-1 $804 3 #
ellipse-curve $-1 -1 $-1 0 150 0 0 -1 0 0 0 -96 1 I I #
point $-1 -1 $-1 95.999999999972474 150 -8.5127460636134075e-012 #
attrib_edge_convexity-kcp-attrib $-1 -1 $819 $-1 $809 3 #
ellipse-curve $-1 -1 $-1 0 150 0 0 -1 0 0 0 -96 1 I I #
point $-1 -1 $-1 -95.999999999914934 150 -1.9698020992091926e-011 #
convexity-sys-attrib $-1 -1 $-1 $812 $804 #
convexity-sys-attrib $-1 -1 $-1 $815 $809 #
End-of-ACIS-data 