700 0 2 0           
24 FBMach with ACIS - 7.0.3 13 ACIS 7.0.3 NT 24 Wed May 15 17:48:16 2002 
1 9.9999999999999995e-007 1e-010 
body $2 -1 $-1 $3 $-1 $4 #
bdycol-kcp $-1 -1 1 2 $5 $6 #
model_id-kcp-attrib $-1 -1 $-1 $-1 $0 1 1021499295 1021499295 933560321 1 #
lump $-1 -1 $-1 $-1 $7 $0 #
transform $-1 -1 1 0 0 0 1 0 0 0 1 0 0 0 1 rotate no_reflect no_shear #
body $8 -1 $-1 $9 $-1 $10 #
body $11 -1 $-1 $12 $-1 $13 #
shell $-1 -1 $-1 $-1 $-1 $14 $-1 $3 #
model_id-kcp-attrib $-1 -1 $-1 $-1 $5 1 1021499295 1021499295 933560322 1 #
lump $-1 -1 $-1 $-1 $15 $5 #
transform $-1 -1 1 0 0 0 1 0 0 0 1 0 0 -116 1 no_rotate no_reflect no_shear #
rgb_color-st-attrib $-1 -1 $16 $-1 $6 0.5 1 1 #
lump $-1 -1 $-1 $-1 $17 $6 #
transform $-1 -1 1 0 0 0 1 0 0 0 1 0 0 -116 1 no_rotate no_reflect no_shear #
face $18 -1 $-1 $19 $20 $7 $-1 $21 reversed single #
shell $-1 -1 $-1 $-1 $-1 $22 $-1 $9 #
model_id-kcp-attrib $-1 -1 $-1 $11 $6 1 1021499295 1021499296 925564931 1 #
shell $-1 -1 $-1 $-1 $-1 $23 $-1 $12 #
model_id-kcp-attrib $-1 -1 $-1 $-1 $14 1 1021499295 1021499295 933560321 2 #
face $24 -1 $-1 $25 $26 $7 $-1 $27 forward single #
loop $-1 -1 $-1 $-1 $28 $14 #
plane-surface $-1 -1 $-1 0 0 0 0 0 -1 0 1 0 forward_v I I I I #
face $29 -1 $-1 $30 $31 $15 $-1 $32 forward single #
face $-1 -1 $-1 $33 $34 $17 $-1 $35 reversed single #
model_id-kcp-attrib $-1 -1 $-1 $-1 $19 1 1021499295 1021499295 933560321 3 #
face $36 -1 $-1 $37 $38 $7 $-1 $39 forward single #
loop $-1 -1 $-1 $-1 $40 $19 #
cone-surface $-1 -1 $-1 0 0 0 0 0 -1 0 80 0 1 I I 0 1 80 forward I I I I #
coedge $-1 -1 $-1 $41 $41 $42 $43 reversed $20 $-1 #
model_id-kcp-attrib $-1 -1 $-1 $-1 $22 1 1021499295 1021499295 933560322 2 #
face $44 -1 $-1 $45 $46 $15 $-1 $47 reversed single #
loop $-1 -1 $-1 $-1 $48 $22 #
plane-surface $-1 -1 $-1 0 0 116 0 0 1 1 0 0 forward_v I I I I #
face $-1 -1 $-1 $49 $50 $17 $-1 $35 reversed single #
loop $-1 -1 $-1 $-1 $51 $23 #
cone-surface $-1 -1 $-1 -3.5527136788005009e-015 1.1173500321525997e-030 116 0 0 1 1.3349888071979329e-014 -80 0 1 I I 0 1 80 forward I I I I #
model_id-kcp-attrib $-1 -1 $-1 $-1 $25 1 1021499295 1021499295 933560321 4 #
face $52 -1 $-1 $53 $54 $7 $-1 $55 forward single #
loop $-1 -1 $-1 $-1 $56 $25 #
cone-surface $-1 -1 $-1 0 0 0 0 0 -1 0 80 0 1 I I 0 1 80 forward I I I I #
coedge $-1 -1 $-1 $57 $42 $58 $59 forward $26 $-1 #
coedge $-1 -1 $-1 $28 $28 $60 $61 reversed $20 $-1 #
coedge $-1 -1 $-1 $40 $62 $28 $43 forward $26 $-1 #
edge $63 -1 $-1 $64 0 $65 3.1415926535897931 $28 $66 forward @7 unknown #
model_id-kcp-attrib $-1 -1 $-1 $-1 $30 1 1021499295 1021499295 933560322 3 #
face $-1 -1 $-1 $67 $68 $15 $-1 $69 reversed single #
loop $-1 -1 $-1 $-1 $70 $30 #
plane-surface $-1 -1 $-1 0 0 -116 0 0 1 1 0 0 forward_v I I I I #
coedge $-1 -1 $-1 $71 $72 $73 $74 forward $31 $-1 #
face $-1 -1 $-1 $75 $76 $17 $-1 $35 reversed single #
loop $-1 -1 $-1 $-1 $77 $33 #
coedge $-1 -1 $-1 $78 $79 $80 $81 reversed $34 $-1 #
model_id-kcp-attrib $-1 -1 $-1 $-1 $37 1 1021499295 1021499295 933560321 5 #
face $82 -1 $-1 $83 $84 $7 $-1 $85 forward single #
loop $-1 -1 $-1 $86 $87 $37 #
plane-surface $-1 -1 $-1 0 0 -10 0 0 -1 0 1 0 forward_v I I I I #
coedge $-1 -1 $-1 $88 $60 $62 $89 forward $38 $-1 #
coedge $-1 -1 $-1 $62 $40 $87 $90 reversed $26 $-1 #
coedge $-1 -1 $-1 $60 $88 $40 $59 reversed $38 $-1 #
edge $-1 -1 $-1 $65 0 $91 10 $58 $92 forward @7 unknown #
coedge $-1 -1 $-1 $56 $58 $41 $61 forward $38 $-1 #
edge $93 -1 $-1 $65 0 $64 3.1415926535897931 $41 $94 forward @7 unknown #
coedge $-1 -1 $-1 $42 $57 $56 $89 reversed $26 $-1 #
attrib_edge_convexity-kcp-attrib $-1 -1 $95 $-1 $43 1 #
vertex $-1 -1 $-1 $61 $96 #
vertex $-1 -1 $-1 $61 $97 #
ellipse-curve $-1 -1 $-1 0 0 0 0 0 -1 9.7971743931788261e-015 -80 0 1 I I #
face $-1 -1 $-1 $98 $99 $15 $-1 $100 reversed single #
loop $-1 -1 $-1 $-1 $101 $45 #
plane-surface $-1 -1 $-1 0 -80 0 0 1 0 0 0 1 forward_v I I I I #
coedge $-1 -1 $-1 $102 $103 $104 $105 forward $46 $-1 #
coedge $-1 -1 $-1 $106 $48 $107 $108 forward $31 $-1 #
coedge $-1 -1 $-1 $48 $106 $109 $110 forward $31 $-1 #
coedge $-1 -1 $-1 $111 $112 $48 $74 reversed $113 $-1 #
edge $-1 -1 $-1 $114 -80 $115 80 $73 $116 forward @7 unknown #
face $-1 -1 $-1 $117 $118 $17 $-1 $35 reversed single #
loop $-1 -1 $-1 $-1 $119 $49 #
coedge $-1 -1 $-1 $120 $121 $122 $123 reversed $50 $-1 #
coedge $-1 -1 $-1 $124 $51 $125 $126 reversed $34 $-1 #
coedge $-1 -1 $-1 $51 $124 $127 $128 reversed $34 $-1 #
coedge $-1 -1 $-1 $129 $130 $131 $81 forward $132 $-1 #
edge $-1 -1 $-1 $133 -232 $134 0 $80 $135 forward @7 unknown #
model_id-kcp-attrib $-1 -1 $-1 $-1 $53 1 1021499295 1021499295 933560321 6 #
face $136 -1 $-1 $137 $138 $7 $-1 $139 forward single #
loop $-1 -1 $-1 $-1 $140 $53 #
cone-surface $-1 -1 $-1 0 0 -110 0 0 -1 -7.5 0 0 1 I I 0 1 7.5 forward I I I I #
loop $-1 -1 $-1 $-1 $141 $37 #
coedge $-1 -1 $-1 $142 $142 $57 $90 forward $54 $-1 #
coedge $-1 -1 $-1 $58 $56 $142 $143 reversed $38 $-1 #
edge $-1 -1 $-1 $64 0 $144 10 $56 $145 forward @7 unknown #
edge $-1 -1 $-1 $144 0 $91 3.1415926535897931 $87 $146 forward @7 unknown #
vertex $-1 -1 $-1 $143 $147 #
straight-curve $-1 -1 $-1 0 80 0 0 0 -1 I I #
attrib_edge_convexity-kcp-attrib $-1 -1 $148 $-1 $61 1 #
ellipse-curve $-1 -1 $-1 0 0 0 0 0 -1 -9.7971743931788276e-015 80 0 1 I I #
convexity-sys-attrib $-1 -1 $-1 $63 $43 #
point $-1 -1 $-1 9.7971743931788261e-015 -80 0 #
point $-1 -1 $-1 -9.7971743931788276e-015 80 0 #
face $-1 -1 $-1 $149 $150 $15 $-1 $151 reversed single #
loop $-1 -1 $-1 $-1 $152 $67 #
plane-surface $-1 -1 $-1 -80 0 0 1 0 0 0 0 -1 forward_v I I I I #
coedge $-1 -1 $-1 $153 $109 $154 $155 forward $68 $-1 #
coedge $-1 -1 $-1 $156 $70 $153 $157 forward $46 $-1 #
coedge $-1 -1 $-1 $70 $156 $158 $159 forward $46 $-1 #
coedge $-1 -1 $-1 $112 $111 $70 $105 reversed $113 $-1 #
edge $-1 -1 $-1 $160 -80 $161 80 $104 $162 forward @7 unknown #
coedge $-1 -1 $-1 $72 $71 $163 $164 forward $31 $-1 #
coedge $-1 -1 $-1 $165 $166 $71 $108 reversed $150 $-1 #
edge $-1 -1 $-1 $115 -80 $167 80 $107 $168 forward @7 unknown #
coedge $-1 -1 $-1 $101 $169 $72 $110 reversed $68 $-1 #
edge $-1 -1 $-1 $170 -80 $114 80 $109 $171 forward @7 unknown #
coedge $-1 -1 $-1 $104 $73 $169 $172 forward $113 $-1 #
coedge $-1 -1 $-1 $73 $104 $165 $173 reversed $113 $-1 #
loop $-1 -1 $-1 $-1 $111 $149 #
vertex $-1 -1 $-1 $74 $174 #
vertex $-1 -1 $-1 $74 $175 #
straight-curve $-1 -1 $-1 80 0 116 0 1 0 I I #
face $-1 -1 $-1 $176 $177 $17 $-1 $178 reversed single #
loop $-1 -1 $-1 $-1 $179 $75 #
coedge $-1 -1 $-1 $180 $181 $182 $183 reversed $76 $-1 #
coedge $-1 -1 $-1 $184 $77 $185 $186 reversed $50 $-1 #
coedge $-1 -1 $-1 $77 $184 $51 $81 forward $50 $-1 #
coedge $-1 -1 $-1 $187 $188 $77 $123 forward $189 $-1 #
edge $-1 -1 $-1 $190 -3.1415926535897931 $134 -1.5707963267948966 $122 $191 forward @7 unknown #
coedge $-1 -1 $-1 $79 $78 $181 $192 forward $34 $-1 #
coedge $-1 -1 $-1 $193 $194 $78 $126 forward $195 $-1 #
edge $-1 -1 $-1 $196 -1.668736008997416e-016 $133 1.5707963267948966 $125 $197 forward @7 unknown #
coedge $-1 -1 $-1 $198 $199 $79 $128 forward $200 $-1 #
edge $-1 -1 $-1 $134 -1.5707963267948966 $201 1.668736008997416e-016 $127 $191 forward @7 unknown #
coedge $-1 -1 $-1 $202 $80 $199 $203 reversed $132 $-1 #
coedge $-1 -1 $-1 $80 $202 $193 $204 reversed $132 $-1 #
coedge $-1 -1 $-1 $205 $206 $121 $81 reversed $207 $-1 #
loop $-1 -1 $-1 $-1 $80 $208 #
vertex $-1 -1 $-1 $204 $209 #
vertex $-1 -1 $-1 $210 $211 #
straight-curve $-1 -1 $-1 80 1.1173500321525997e-030 116 0 0 1 I I #
model_id-kcp-attrib $-1 -1 $-1 $-1 $83 1 1021499295 1021499295 933560321 7 #
face $212 -1 $-1 $213 $214 $7 $-1 $215 forward single #
loop $-1 -1 $-1 $-1 $216 $83 #
cone-surface $-1 -1 $-1 0 0 -110 0 0 -1 7.5 0 0 1 I I 0 1 7.5 forward I I I I #
coedge $-1 -1 $-1 $217 $218 $219 $220 forward $84 $-1 #
coedge $-1 -1 $-1 $221 $221 $218 $222 reversed $86 $-1 #
coedge $-1 -1 $-1 $87 $87 $88 $143 forward $54 $-1 #
edge $-1 -1 $-1 $91 0 $144 3.1415926535897931 $142 $223 forward @7 unknown #
vertex $-1 -1 $-1 $143 $224 #
straight-curve $-1 -1 $-1 9.7968508305790181e-015 -80 0 0 0 -1 I I #
ellipse-curve $-1 -1 $-1 -3.5527136788005009e-015 0 -10 0 0 -1 1.3349888071979327e-014 -80 0 1 I I #
point $-1 -1 $-1 -9.7971743931788308e-015 80 -10 #
convexity-sys-attrib $-1 -1 $-1 $93 $61 #
face $-1 -1 $-1 $-1 $113 $15 $-1 $225 reversed single #
loop $-1 -1 $-1 $-1 $165 $98 #
plane-surface $-1 -1 $-1 0 80 0 0 -1 0 0 0 -1 forward_v I I I I #
coedge $-1 -1 $-1 $226 $163 $166 $227 forward $99 $-1 #
coedge $-1 -1 $-1 $169 $101 $102 $157 reversed $68 $-1 #
coedge $-1 -1 $-1 $163 $226 $101 $155 reversed $99 $-1 #
edge $-1 -1 $-1 $170 -116 $228 116 $154 $229 forward @7 unknown #
coedge $-1 -1 $-1 $103 $102 $226 $230 forward $46 $-1 #
edge $-1 -1 $-1 $161 -80 $228 80 $153 $231 forward @7 unknown #
coedge $-1 -1 $-1 $166 $165 $103 $159 reversed $150 $-1 #
edge $-1 -1 $-1 $232 -80 $160 80 $158 $233 forward @7 unknown #
vertex $-1 -1 $-1 $105 $234 #
vertex $-1 -1 $-1 $172 $235 #
straight-curve $-1 -1 $-1 80 0 -116 0 -1 0 I I #
coedge $-1 -1 $-1 $152 $154 $106 $164 reversed $99 $-1 #
edge $-1 -1 $-1 $167 -80 $170 80 $163 $236 forward @7 unknown #
coedge $-1 -1 $-1 $158 $107 $112 $173 forward $150 $-1 #
coedge $-1 -1 $-1 $107 $158 $152 $227 reversed $150 $-1 #
vertex $-1 -1 $-1 $108 $237 #
straight-curve $-1 -1 $-1 0 80 116 -1 0 0 I I #
coedge $-1 -1 $-1 $109 $153 $111 $172 reversed $68 $-1 #
vertex $-1 -1 $-1 $164 $238 #
straight-curve $-1 -1 $-1 0 -80 116 1 0 0 I I #
edge $-1 -1 $-1 $114 -116 $161 116 $111 $239 forward @7 unknown #
edge $-1 -1 $-1 $115 -116 $160 116 $112 $240 forward @7 unknown #
point $-1 -1 $-1 80 -80 116 #
point $-1 -1 $-1 80 80 116 #
face $-1 -1 $-1 $241 $207 $17 $-1 $242 reversed single #
loop $-1 -1 $-1 $-1 $243 $117 #
plane-surface $-1 -1 $-1 0 -80 0 0 1 0 0 0 1 forward_v I I I I #
coedge $-1 -1 $-1 $244 $245 $246 $247 reversed $118 $-1 #
coedge $-1 -1 $-1 $248 $119 $245 $249 forward $76 $-1 #
coedge $-1 -1 $-1 $119 $248 $250 $192 reversed $76 $-1 #
coedge $-1 -1 $-1 $251 $252 $119 $183 forward $253 $-1 #
edge $-1 -1 $-1 $254 -1.5707963267948968 $196 -1.668736008997416e-016 $182 $197 forward @7 unknown #
coedge $-1 -1 $-1 $121 $120 $255 $256 reversed $50 $-1 #
coedge $-1 -1 $-1 $257 $258 $259 $186 forward $260 $-1 #
edge $-1 -1 $-1 $261 -232 $190 0 $185 $262 forward @7 unknown #
coedge $-1 -1 $-1 $188 $122 $206 $210 forward $189 $-1 #
coedge $-1 -1 $-1 $122 $187 $257 $263 forward $189 $-1 #
loop $-1 -1 $-1 $-1 $122 $264 #
vertex $-1 -1 $-1 $265 $266 #
ellipse-curve $-1 -1 $-1 -3.5527136788005009e-015 1.1173500321525997e-030 116 0 0 -1 1.3349888071979329e-014 -80 0 1 I I #
edge $-1 -1 $-1 $196 -232 $201 0 $250 $267 forward @7 unknown #
coedge $-1 -1 $-1 $194 $125 $130 $204 forward $195 $-1 #
coedge $-1 -1 $-1 $125 $193 $268 $269 forward $195 $-1 #
loop $-1 -1 $-1 $-1 $125 $270 #
vertex $-1 -1 $-1 $271 $272 #
ellipse-curve $-1 -1 $-1 -3.5527136788005009e-015 1.1173500321525997e-030 -116 0 0 1 1.3349888071979329e-014 -80 0 1 I I #
coedge $-1 -1 $-1 $199 $127 $273 $274 forward $200 $-1 #
coedge $-1 -1 $-1 $127 $198 $129 $203 forward $200 $-1 #
loop $-1 -1 $-1 $-1 $127 $275 #
vertex $-1 -1 $-1 $274 $276 #
coedge $-1 -1 $-1 $130 $129 $277 $278 forward $132 $-1 #
edge $-1 -1 $-1 $279 -80 $134 1.1173500321525997e-030 $129 $280 forward @7 unknown #
edge $-1 -1 $-1 $133 -1.1173500321525997e-030 $281 80 $130 $282 forward @7 unknown #
coedge $-1 -1 $-1 $283 $131 $284 $285 reversed $207 $-1 #
coedge $-1 -1 $-1 $131 $283 $187 $210 reversed $207 $-1 #
loop $-1 -1 $-1 $-1 $131 $176 #
face $-1 -1 $-1 $-1 $132 $17 $-1 $242 reversed single #
point $-1 -1 $-1 80 1.1173500321525997e-030 -116 #
edge $-1 -1 $-1 $134 1.1173500321525997e-030 $286 80 $206 $280 forward @7 unknown #
point $-1 -1 $-1 80 1.1173500321525997e-030 116 #
model_id-kcp-attrib $-1 -1 $-1 $-1 $137 1 1021499295 1021499295 933560321 8 #
face $287 -1 $-1 $288 $289 $7 $-1 $290 forward single #
loop $-1 -1 $-1 $-1 $291 $137 #
cone-surface $-1 -1 $-1 0 0 -205.5 0 0 1 1.3636363636363633 0 0 1 I I -0.80640499585570546 0.59136366362751747 1.3636363636363633 forward I I I I #
coedge $-1 -1 $-1 $292 $293 $294 $295 forward $138 $-1 #
coedge $-1 -1 $-1 $294 $140 $296 $297 reversed $84 $-1 #
coedge $-1 -1 $-1 $140 $294 $141 $222 forward $84 $-1 #
coedge $-1 -1 $-1 $293 $292 $140 $220 reversed $138 $-1 #
edge $-1 -1 $-1 $298 0 $299 200 $219 $300 forward @7 unknown #
coedge $-1 -1 $-1 $141 $141 $293 $301 reversed $86 $-1 #
edge $-1 -1 $-1 $302 0 $298 3.1415926535897931 $141 $303 forward @7 unknown #
ellipse-curve $-1 -1 $-1 3.5527136788005009e-015 3.5527136788005009e-015 -10 0 0 -1 -1.3349888071979332e-014 80 0 1 I I #
point $-1 -1 $-1 9.7971743931788261e-015 -80 -10 #
plane-surface $-1 -1 $-1 80 0 0 -1 0 0 0 0 1 forward_v I I I I #
coedge $-1 -1 $-1 $154 $152 $156 $230 reversed $99 $-1 #
edge $-1 -1 $-1 $167 -116 $232 116 $166 $304 forward @7 unknown #
vertex $-1 -1 $-1 $230 $305 #
straight-curve $-1 -1 $-1 -80 -80 0 0 0 -1 I I #
edge $-1 -1 $-1 $228 -80 $232 80 $226 $306 forward @7 unknown #
straight-curve $-1 -1 $-1 0 -80 -116 -1 0 0 I I #
vertex $-1 -1 $-1 $159 $307 #
straight-curve $-1 -1 $-1 0 80 -116 1 0 0 I I #
point $-1 -1 $-1 80 80 -116 #
point $-1 -1 $-1 80 -80 -116 #
straight-curve $-1 -1 $-1 -80 0 116 0 -1 0 I I #
point $-1 -1 $-1 -80 80 116 #
point $-1 -1 $-1 -80 -80 116 #
straight-curve $-1 -1 $-1 80 -80 0 0 0 -1 I I #
straight-curve $-1 -1 $-1 80 80 0 0 0 -1 I I #
face $-1 -1 $-1 $308 $309 $17 $-1 $310 reversed single #
plane-surface $-1 -1 $-1 80 0 0 -1 0 0 0 0 1 forward_v I I I I #
coedge $-1 -1 $-1 $268 $273 $124 $192 reversed $177 $-1 #
coedge $-1 -1 $-1 $311 $179 $120 $186 forward $118 $-1 #
coedge $-1 -1 $-1 $179 $311 $312 $249 reversed $118 $-1 #
coedge $-1 -1 $-1 $313 $314 $179 $247 forward $315 $-1 #
edge $-1 -1 $-1 $261 -3.1415926535897931 $254 -1.5707963267948968 $246 $197 forward @7 unknown #
coedge $-1 -1 $-1 $181 $180 $316 $317 reversed $76 $-1 #
edge $-1 -1 $-1 $254 -232 $318 0 $312 $319 forward @7 unknown #
coedge $-1 -1 $-1 $320 $321 $243 $192 forward $322 $-1 #
coedge $-1 -1 $-1 $252 $182 $321 $271 forward $253 $-1 #
coedge $-1 -1 $-1 $182 $251 $323 $324 forward $253 $-1 #
loop $-1 -1 $-1 $-1 $182 $325 #
vertex $-1 -1 $-1 $326 $327 #
coedge $-1 -1 $-1 $328 $284 $184 $256 forward $329 $-1 #
edge $-1 -1 $-1 $133 1.5707963267948966 $261 3.1415926535897931 $255 $197 forward @7 unknown #
coedge $-1 -1 $-1 $330 $185 $188 $263 reversed $260 $-1 #
coedge $-1 -1 $-1 $185 $330 $328 $331 reversed $260 $-1 #
coedge $-1 -1 $-1 $332 $333 $244 $186 reversed $309 $-1 #
loop $-1 -1 $-1 $-1 $185 $334 #
vertex $-1 -1 $-1 $331 $335 #
straight-curve $-1 -1 $-1 -3.5527136788005009e-015 80 116 0 0 1 I I #
edge $-1 -1 $-1 $286 -80 $190 3.5527136788005009e-015 $257 $336 forward @7 unknown #
face $-1 -1 $-1 $275 $189 $17 $-1 $337 forward single #
edge $-1 -1 $-1 $190 3.5527136788005009e-015 $338 80 $333 $336 forward @7 unknown #
point $-1 -1 $-1 -3.5527136788005009e-015 80 116 #
straight-curve $-1 -1 $-1 -3.5527136788005009e-015 -80 116 0 0 1 I I #
coedge $-1 -1 $-1 $277 $243 $194 $269 reversed $177 $-1 #
edge $-1 -1 $-1 $281 -80 $196 3.5527136788005009e-015 $268 $339 forward @7 unknown #
face $-1 -1 $-1 $340 $195 $17 $-1 $341 reversed single #
edge $-1 -1 $-1 $196 3.5527136788005009e-015 $342 80 $321 $339 forward @7 unknown #
point $-1 -1 $-1 -3.5527136788005009e-015 -80 -116 #
coedge $-1 -1 $-1 $243 $277 $198 $274 reversed $177 $-1 #
edge $-1 -1 $-1 $201 -3.5527136788005009e-015 $279 80 $273 $343 forward @7 unknown #
face $-1 -1 $-1 $344 $200 $17 $-1 $337 forward single #
point $-1 -1 $-1 -3.5527136788005009e-015 -80 116 #
coedge $-1 -1 $-1 $273 $268 $202 $278 reversed $177 $-1 #
edge $-1 -1 $-1 $279 -116 $281 116 $202 $345 forward @7 unknown #
vertex $-1 -1 $-1 $203 $346 #
straight-curve $-1 -1 $-1 80 0 116 0 1 0 I I #
vertex $-1 -1 $-1 $278 $347 #
straight-curve $-1 -1 $-1 80 0 -116 0 -1 0 I I #
coedge $-1 -1 $-1 $206 $205 $330 $348 reversed $207 $-1 #
coedge $-1 -1 $-1 $255 $328 $205 $285 forward $329 $-1 #
edge $-1 -1 $-1 $349 -80 $133 -1.1173500321525997e-030 $205 $282 forward @7 unknown #
vertex $-1 -1 $-1 $210 $350 #
model_id-kcp-attrib $-1 -1 $-1 $-1 $213 1 1021499295 1021499295 933560321 9 #
face $351 -1 $-1 $-1 $352 $7 $-1 $353 forward single #
loop $-1 -1 $-1 $-1 $354 $213 #
cone-surface $-1 -1 $-1 0 0 -205.5 0 0 1 -1.3636363636363633 0 0 1 I I -0.80640499585570546 0.59136366362751747 1.3636363636363633 forward I I I I #
coedge $-1 -1 $-1 $355 $356 $357 $358 forward $214 $-1 #
coedge $-1 -1 $-1 $219 $216 $356 $359 reversed $138 $-1 #
coedge $-1 -1 $-1 $216 $219 $221 $301 forward $138 $-1 #
coedge $-1 -1 $-1 $218 $217 $216 $295 reversed $84 $-1 #
edge $-1 -1 $-1 $302 0 $360 200 $216 $361 forward @7 unknown #
coedge $-1 -1 $-1 $354 $357 $217 $297 forward $289 $-1 #
edge $-1 -1 $-1 $360 -1.2246063538223773e-016 $299 3.1415926535897931 $217 $362 forward @7 unknown #
vertex $-1 -1 $-1 $301 $363 #
vertex $-1 -1 $-1 $220 $364 #
straight-curve $-1 -1 $-1 7.5 0 -10 0 0 -1 I I #
edge $-1 -1 $-1 $298 0 $302 3.1415926535897931 $221 $365 forward @7 unknown #
vertex $-1 -1 $-1 $301 $366 #
ellipse-curve $-1 -1 $-1 -2.2204460492503131e-016 4.4408920985006262e-016 -10 0 0 -1 -7.5 -4.4408920985006262e-016 0 1 I I #
straight-curve $-1 -1 $-1 -80 80 0 0 0 -1 I I #
point $-1 -1 $-1 -80 -80 -116 #
straight-curve $-1 -1 $-1 -80 0 -116 0 1 0 I I #
point $-1 -1 $-1 -80 80 -116 #
face $-1 -1 $-1 $264 $367 $17 $-1 $337 forward single #
loop $-1 -1 $-1 $-1 $259 $241 #
plane-surface $-1 -1 $-1 0 80 0 0 -1 0 0 0 -1 forward_v I I I I #
coedge $-1 -1 $-1 $245 $244 $368 $369 reversed $118 $-1 #
coedge $-1 -1 $-1 $370 $371 $372 $249 forward $373 $-1 #
coedge $-1 -1 $-1 $314 $246 $371 $326 forward $315 $-1 #
coedge $-1 -1 $-1 $246 $313 $332 $374 forward $315 $-1 #
loop $-1 -1 $-1 $-1 $246 $375 #
coedge $-1 -1 $-1 $376 $377 $248 $317 forward $378 $-1 #
edge $-1 -1 $-1 $201 1.668736008997416e-016 $318 1.5707963267948968 $316 $191 forward @7 unknown #
vertex $-1 -1 $-1 $379 $380 #
straight-curve $-1 -1 $-1 -80 1.1173500321525997e-030 116 0 0 1 I I #
coedge $-1 -1 $-1 $381 $250 $377 $382 reversed $322 $-1 #
coedge $-1 -1 $-1 $250 $381 $251 $271 reversed $322 $-1 #
loop $-1 -1 $-1 $-1 $250 $383 #
coedge $-1 -1 $-1 $384 $372 $252 $324 reversed $385 $-1 #
edge $-1 -1 $-1 $342 -80 $254 1.1173500321525997e-030 $323 $386 forward @7 unknown #
face $-1 -1 $-1 $270 $253 $17 $-1 $341 reversed single #
edge $-1 -1 $-1 $254 1.1173500321525997e-030 $387 80 $371 $386 forward @7 unknown #
point $-1 -1 $-1 -80 1.1173500321525997e-030 -116 #
coedge $-1 -1 $-1 $284 $255 $258 $331 forward $329 $-1 #
loop $-1 -1 $-1 $-1 $255 $340 #
coedge $-1 -1 $-1 $258 $257 $283 $348 forward $260 $-1 #
edge $-1 -1 $-1 $261 -3.5527136788005009e-015 $349 80 $258 $388 forward @7 unknown #
coedge $-1 -1 $-1 $389 $259 $314 $374 reversed $309 $-1 #
coedge $-1 -1 $-1 $259 $389 $390 $265 reversed $309 $-1 #
face $-1 -1 $-1 $208 $260 $17 $-1 $310 reversed single #
point $-1 -1 $-1 -3.5527136788005009e-015 80 -116 #
straight-curve $-1 -1 $-1 0 80 116 -1 0 0 I I #
plane-surface $-1 -1 $-1 0 0 116 0 0 1 1 0 0 forward_v I I I I #
vertex $-1 -1 $-1 $265 $391 #
straight-curve $-1 -1 $-1 0 -80 -116 -1 0 0 I I #
face $-1 -1 $-1 $383 $329 $17 $-1 $341 reversed single #
plane-surface $-1 -1 $-1 0 0 -116 0 0 1 1 0 0 forward_v I I I I #
vertex $-1 -1 $-1 $324 $392 #
straight-curve $-1 -1 $-1 0 -80 116 1 0 0 I I #
face $-1 -1 $-1 $393 $378 $17 $-1 $337 forward single #
straight-curve $-1 -1 $-1 80 -80 0 0 0 -1 I I #
point $-1 -1 $-1 80 -80 116 #
point $-1 -1 $-1 80 -80 -116 #
edge $-1 -1 $-1 $286 -116 $349 116 $283 $394 forward @7 unknown #
vertex $-1 -1 $-1 $285 $395 #
point $-1 -1 $-1 80 80 116 #
model_id-kcp-attrib $-1 -1 $-1 $-1 $288 1 1021499295 1021499295 933560321 10 #
loop $-1 -1 $-1 $-1 $396 $288 #
plane-surface $-1 -1 $-1 0 0 -232 0 0 -1 1 0 0 forward_v I I I I #
coedge $-1 -1 $-1 $397 $296 $398 $399 forward $289 $-1 #
coedge $-1 -1 $-1 $398 $291 $400 $401 reversed $214 $-1 #
coedge $-1 -1 $-1 $291 $398 $292 $359 forward $214 $-1 #
coedge $-1 -1 $-1 $296 $397 $291 $358 reversed $289 $-1 #
edge $-1 -1 $-1 $360 0 $402 37.20215047547655 $291 $403 forward @7 unknown #
edge $-1 -1 $-1 $299 0 $360 3.1415926535897931 $292 $404 forward @7 unknown #
vertex $-1 -1 $-1 $359 $405 #
straight-curve $-1 -1 $-1 -7.5 0 -10 0 0 -1 I I #
ellipse-curve $-1 -1 $-1 -2.2204460492503131e-016 0 -210 0 0 -1 -7.4999999999999982 0 0 1 I I #
point $-1 -1 $-1 7.5 0 -10 #
point $-1 -1 $-1 7.4999999999999982 0 -210 #
ellipse-curve $-1 -1 $-1 2.2204460492503131e-016 -4.4408920985006262e-016 -10 0 0 -1 7.5 4.4408920985006262e-016 0 1 I I #
point $-1 -1 $-1 -7.5 0 -10 #
loop $-1 -1 $-1 $-1 $368 $308 #
coedge $-1 -1 $-1 $390 $406 $311 $369 forward $367 $-1 #
edge $-1 -1 $-1 $318 1.5707963267948968 $190 3.1415926535897931 $368 $191 forward @7 unknown #
coedge $-1 -1 $-1 $407 $312 $406 $408 reversed $373 $-1 #
coedge $-1 -1 $-1 $312 $407 $313 $326 reversed $373 $-1 #
coedge $-1 -1 $-1 $323 $409 $180 $249 reversed $385 $-1 #
loop $-1 -1 $-1 $-1 $312 $410 #
edge $-1 -1 $-1 $387 -80 $261 -3.5527136788005009e-015 $332 $388 forward @7 unknown #
face $-1 -1 $-1 $325 $315 $17 $-1 $341 reversed single #
coedge $-1 -1 $-1 $377 $316 $409 $379 forward $378 $-1 #
coedge $-1 -1 $-1 $316 $376 $320 $382 forward $378 $-1 #
loop $-1 -1 $-1 $-1 $316 $344 #
edge $-1 -1 $-1 $318 -1.1173500321525997e-030 $411 80 $409 $412 forward @7 unknown #
point $-1 -1 $-1 -80 1.1173500321525997e-030 116 #
coedge $-1 -1 $-1 $321 $320 $384 $413 forward $322 $-1 #
edge $-1 -1 $-1 $411 -80 $201 -3.5527136788005009e-015 $320 $343 forward @7 unknown #
face $-1 -1 $-1 $410 $322 $17 $-1 $178 reversed single #
coedge $-1 -1 $-1 $409 $323 $381 $413 reversed $385 $-1 #
loop $-1 -1 $-1 $-1 $372 $393 #
straight-curve $-1 -1 $-1 -80 0 -116 0 1 0 I I #
vertex $-1 -1 $-1 $374 $414 #
straight-curve $-1 -1 $-1 0 80 -116 1 0 0 I I #
coedge $-1 -1 $-1 $333 $332 $407 $415 reversed $309 $-1 #
coedge $-1 -1 $-1 $406 $368 $333 $265 forward $367 $-1 #
point $-1 -1 $-1 -80 80 116 #
point $-1 -1 $-1 -80 -80 -116 #
face $-1 -1 $-1 $375 $385 $17 $-1 $416 reversed single #
straight-curve $-1 -1 $-1 80 80 0 0 0 -1 I I #
point $-1 -1 $-1 80 80 -116 #
coedge $-1 -1 $-1 $400 $400 $397 $417 forward $352 $-1 #
coedge $-1 -1 $-1 $357 $354 $396 $417 reversed $289 $-1 #
coedge $-1 -1 $-1 $356 $355 $354 $399 reversed $214 $-1 #
edge $-1 -1 $-1 $299 0 $418 37.20215047547655 $398 $419 forward @7 unknown #
coedge $-1 -1 $-1 $396 $396 $355 $401 forward $352 $-1 #
edge $-1 -1 $-1 $418 0 $402 3.1415926535897931 $400 $420 forward @7 unknown #
vertex $-1 -1 $-1 $401 $421 #
straight-curve $-1 -1 $-1 -7.4999999999999982 0 -210 -0.80640499585570546 0 -0.59136366362751758 I I #
ellipse-curve $-1 -1 $-1 0 -2.2204460492503131e-016 -210 0 0 -1 7.4999999999999982 2.2204460492503131e-016 0 1 I I #
point $-1 -1 $-1 -7.4999999999999982 -9.1845476536678275e-016 -210 #
coedge $-1 -1 $-1 $368 $390 $370 $408 forward $367 $-1 #
coedge $-1 -1 $-1 $371 $370 $389 $415 forward $373 $-1 #
edge $-1 -1 $-1 $338 -80 $318 -1.1173500321525997e-030 $370 $412 forward @7 unknown #
coedge $-1 -1 $-1 $372 $384 $376 $379 reversed $385 $-1 #
face $-1 -1 $-1 $334 $373 $17 $-1 $416 reversed single #
vertex $-1 -1 $-1 $379 $422 #
straight-curve $-1 -1 $-1 -80 0 116 0 -1 0 I I #
edge $-1 -1 $-1 $411 -116 $342 116 $384 $423 forward @7 unknown #
point $-1 -1 $-1 -80 80 -116 #
edge $-1 -1 $-1 $338 -116 $387 116 $389 $424 forward @7 unknown #
plane-surface $-1 -1 $-1 -80 0 0 1 0 0 0 0 -1 forward_v I I I I #
edge $-1 -1 $-1 $402 0 $418 3.1415926535897931 $396 $425 forward @7 unknown #
vertex $-1 -1 $-1 $401 $426 #
straight-curve $-1 -1 $-1 7.4999999999999982 0 -210 0.80640499585570546 0 -0.59136366362751758 I I #
ellipse-curve $-1 -1 $-1 1.7763568394002505e-015 -1.7763568394002505e-015 -232 0 0 -1 37.5 6.368782336202828e-015 0 1 I I #
point $-1 -1 $-1 -37.5 -4.5924254968025744e-015 -232 #
point $-1 -1 $-1 -80 -80 116 #
straight-curve $-1 -1 $-1 -80 -80 0 0 0 -1 I I #
straight-curve $-1 -1 $-1 -80 80 0 0 0 -1 I I #
ellipse-curve $-1 -1 $-1 0 1.7763568394002505e-015 -232 0 0 -1 -37.5 -6.3687823362028248e-015 0 1 I I #
point $-1 -1 $-1 37.5 4.5924254968025775e-015 -232 #
End-of-ACIS-data 