600 0 1 0           
89 GICL ACIS Healer - Source: /gicl/data5/repository/PTC/V18/fly_small18/table.prt.sat - 6 0 18 ACIS 6.0.3 Solaris 24 Sat Apr 13 22:08:59 2002 
1 9.999999999999999547e-07 1.000000000000000036e-10 
body $-1 $1 $-1 $-1 #
lump $-1 $-1 $2 $0 #
shell $-1 $-1 $-1 $3 $-1 $1 #
face $-1 $4 $5 $2 $-1 $6 reversed single #
face $-1 $7 $8 $2 $-1 $9 forward single #
loop $-1 $-1 $10 $3 #
plane-surface $-1 0 0 0 0 0 -1 0 1 0 forward_v I I I I #
face $-1 $11 $12 $2 $-1 $13 forward single #
loop $-1 $-1 $14 $4 #
cone-surface $-1 0 0 0 0 0 -1 0 80 0 1 I I 0 1 80 forward I I I I #
coedge $-1 $15 $15 $16 $17 reversed $5 $-1 #
face $-1 $18 $19 $2 $-1 $20 forward single #
loop $-1 $-1 $21 $7 #
cone-surface $-1 0 0 0 0 0 -1 0 80 0 1 I I 0 1 80 forward I I I I #
coedge $-1 $22 $16 $23 $24 forward $8 $-1 #
coedge $-1 $10 $10 $25 $26 reversed $5 $-1 #
coedge $-1 $14 $27 $10 $17 forward $8 $-1 #
edge $-1 $28 0 $29 3.141592653589793116 $10 $30 forward 7 unknown #
face $-1 $31 $32 $2 $-1 $33 forward single #
loop $-1 $34 $35 $11 #
plane-surface $-1 0 0 -10 0 0 -1 0 1 0 forward_v I I I I #
coedge $-1 $36 $25 $27 $37 forward $12 $-1 #
coedge $-1 $27 $14 $35 $38 reversed $8 $-1 #
coedge $-1 $25 $36 $14 $24 reversed $12 $-1 #
edge $-1 $29 0 $39 10 $23 $40 forward 7 unknown #
coedge $-1 $21 $23 $15 $26 forward $12 $-1 #
edge $-1 $29 0 $28 3.141592653589793116 $15 $41 forward 7 unknown #
coedge $-1 $16 $22 $21 $37 reversed $8 $-1 #
vertex $-1 $26 $42 #
vertex $-1 $26 $43 #
ellipse-curve $-1 0 0 0 0 0 -1 9.797174393178826052e-15 -80 0 1 I I #
face $-1 $44 $45 $2 $-1 $46 forward single #
loop $-1 $-1 $47 $18 #
cone-surface $-1 0 0 -110 0 0 -1 -7.5 0 0 1 I I 0 1 7.5 forward I I I I #
loop $-1 $-1 $48 $11 #
coedge $-1 $49 $49 $22 $38 forward $19 $-1 #
coedge $-1 $23 $21 $49 $50 reversed $12 $-1 #
edge $-1 $28 0 $51 10 $21 $52 forward 7 unknown #
edge $-1 $51 0 $39 3.141592653589793116 $35 $53 forward 7 unknown #
vertex $-1 $50 $54 #
straight-curve $-1 0 80 0 0 0 -1 I I #
ellipse-curve $-1 0 0 0 0 0 -1 -9.79717439317882763e-15 80 0 1 I I #
point $-1 9.797174393178826052e-15 -80 0 #
point $-1 -9.79717439317882763e-15 80 0 #
face $-1 $55 $56 $2 $-1 $57 forward single #
loop $-1 $-1 $58 $31 #
cone-surface $-1 0 0 -110 0 0 -1 7.5 0 0 1 I I 0 1 7.5 forward I I I I #
coedge $-1 $59 $60 $61 $62 forward $32 $-1 #
coedge $-1 $63 $63 $60 $64 reversed $34 $-1 #
coedge $-1 $35 $35 $36 $50 forward $19 $-1 #
edge $-1 $39 0 $51 3.141592653589793116 $49 $65 forward 7 unknown #
vertex $-1 $50 $66 #
straight-curve $-1 9.796850830579018066e-15 -80 0 0 0 -1 I I #
ellipse-curve $-1 -3.552713678800500929e-15 0 -10 0 0 -1 1.334988807197932698e-14 -80 0 1 I I #
point $-1 -9.797174393178830785e-15 80 -10 #
face $-1 $67 $68 $2 $-1 $69 forward single #
loop $-1 $-1 $70 $44 #
cone-surface $-1 0 0 -205.5 0 0 1 1.363636363636363313 0 0 1 I I -0.8064049958557054643 0.5913636636275174663 1.363636363636363313 forward I I I I #
coedge $-1 $71 $72 $73 $74 forward $45 $-1 #
coedge $-1 $73 $47 $75 $76 reversed $32 $-1 #
coedge $-1 $47 $73 $48 $64 forward $32 $-1 #
coedge $-1 $72 $71 $47 $62 reversed $45 $-1 #
edge $-1 $77 0 $78 200 $61 $79 forward 7 unknown #
coedge $-1 $48 $48 $72 $80 reversed $34 $-1 #
edge $-1 $81 0 $77 3.141592653589793116 $48 $82 forward 7 unknown #
ellipse-curve $-1 3.552713678800500929e-15 3.552713678800500929e-15 -10 0 0 -1 -1.334988807197933171e-14 80 0 1 I I #
point $-1 9.797174393178826052e-15 -80 -10 #
face $-1 $-1 $83 $2 $-1 $84 forward single #
loop $-1 $-1 $85 $55 #
cone-surface $-1 0 0 -205.5 0 0 1 -1.363636363636363313 0 0 1 I I -0.8064049958557054643 0.5913636636275174663 1.363636363636363313 forward I I I I #
coedge $-1 $86 $87 $88 $89 forward $56 $-1 #
coedge $-1 $61 $58 $87 $90 reversed $45 $-1 #
coedge $-1 $58 $61 $63 $80 forward $45 $-1 #
coedge $-1 $60 $59 $58 $74 reversed $32 $-1 #
edge $-1 $81 0 $91 200 $58 $92 forward 7 unknown #
coedge $-1 $85 $88 $59 $76 forward $68 $-1 #
edge $-1 $91 -1.224606353822377258e-16 $78 3.141592653589793116 $59 $93 forward 7 unknown #
vertex $-1 $80 $94 #
vertex $-1 $62 $95 #
straight-curve $-1 7.5 0 -10 0 0 -1 I I #
edge $-1 $77 0 $81 3.141592653589793116 $63 $96 forward 7 unknown #
vertex $-1 $80 $97 #
ellipse-curve $-1 -2.220446049250313081e-16 4.440892098500626162e-16 -10 0 0 -1 -7.5 -4.440892098500626162e-16 0 1 I I #
loop $-1 $-1 $98 $67 #
plane-surface $-1 0 0 -232 0 0 -1 1 0 0 forward_v I I I I #
coedge $-1 $99 $75 $100 $101 forward $68 $-1 #
coedge $-1 $100 $70 $102 $103 reversed $56 $-1 #
coedge $-1 $70 $100 $71 $90 forward $56 $-1 #
coedge $-1 $75 $99 $70 $89 reversed $68 $-1 #
edge $-1 $91 -0 $104 37.20215047547655018 $70 $105 forward 7 unknown #
edge $-1 $78 0 $91 3.141592653589793116 $71 $106 forward 7 unknown #
vertex $-1 $90 $107 #
straight-curve $-1 -7.5 0 -10 0 0 -1 I I #
ellipse-curve $-1 -2.220446049250313081e-16 0 -210 0 0 -1 -7.499999999999998224 0 0 1 I I #
point $-1 7.5 0 -10 #
point $-1 7.499999999999998224 0 -210 #
ellipse-curve $-1 2.220446049250313081e-16 -4.440892098500626162e-16 -10 0 0 -1 7.5 4.440892098500626162e-16 0 1 I I #
point $-1 -7.5 0 -10 #
coedge $-1 $102 $102 $99 $108 forward $83 $-1 #
coedge $-1 $88 $85 $98 $108 reversed $68 $-1 #
coedge $-1 $87 $86 $85 $101 reversed $56 $-1 #
edge $-1 $78 0 $109 37.20215047547655018 $100 $110 forward 7 unknown #
coedge $-1 $98 $98 $86 $103 forward $83 $-1 #
edge $-1 $109 0 $104 3.141592653589793116 $102 $111 forward 7 unknown #
vertex $-1 $103 $112 #
straight-curve $-1 -7.499999999999998224 0 -210 -0.8064049958557054643 0 -0.5913636636275175773 I I #
ellipse-curve $-1 0 -2.220446049250313081e-16 -210 0 0 -1 7.499999999999998224 2.220446049250313081e-16 0 1 I I #
point $-1 -7.499999999999998224 -9.184547653667827464e-16 -210 #
edge $-1 $104 0 $109 3.141592653589793116 $98 $113 forward 7 unknown #
vertex $-1 $103 $114 #
straight-curve $-1 7.499999999999998224 0 -210 0.8064049958557054643 0 -0.5913636636275175773 I I #
ellipse-curve $-1 1.776356839400250465e-15 -1.776356839400250465e-15 -232 0 0 -1 37.5 6.368782336202827987e-15 0 1 I I #
point $-1 -37.5 -4.592425496802574367e-15 -232 #
ellipse-curve $-1 0 1.776356839400250465e-15 -232 0 0 -1 -37.5 -6.368782336202824831e-15 0 1 I I #
point $-1 37.5 4.592425496802577522e-15 -232 #
End-of-ACIS-data 