700 0 2 0           
24 FBMach with ACIS - 7.0.3 13 ACIS 7.0.3 NT 24 Wed May 15 18:04:27 2002 
1 9.9999999999999995e-007 1e-010 
body $2 -1 $-1 $3 $-1 $4 #
bdycol-kcp $-1 -1 1 2 $5 $6 #
model_id-kcp-attrib $-1 -1 $-1 $-1 $0 1 1021500266 1021500266 2146238465 1 #
lump $-1 -1 $-1 $-1 $7 $0 #
transform $-1 -1 1 0 0 0 1 0 0 0 1 0 0 0 1 rotate no_reflect no_shear #
body $8 -1 $-1 $9 $-1 $10 #
body $11 -1 $-1 $12 $-1 $13 #
shell $-1 -1 $-1 $-1 $-1 $14 $-1 $3 #
rgb_color-st-attrib $-1 -1 $15 $-1 $5 0.5 1 1 #
lump $-1 -1 $-1 $-1 $16 $5 #
transform $-1 -1 1 0 0 0 1 0 0 0 1 0 0 -116 1 no_rotate no_reflect no_shear #
model_id-kcp-attrib $-1 -1 $-1 $-1 $6 1 1021500266 1021500266 2146238466 1 #
lump $-1 -1 $-1 $-1 $17 $6 #
transform $-1 -1 1 0 0 0 1 0 0 0 1 0 0 -116 1 no_rotate no_reflect no_shear #
face $18 -1 $-1 $19 $20 $7 $-1 $21 reversed single #
model_id-kcp-attrib $-1 -1 $-1 $8 $5 1 1021500266 1021500266 2136670211 1 #
shell $-1 -1 $-1 $-1 $-1 $22 $-1 $9 #
shell $-1 -1 $-1 $-1 $-1 $23 $-1 $12 #
model_id-kcp-attrib $-1 -1 $-1 $-1 $14 1 1021500266 1021500266 2146238465 2 #
face $24 -1 $-1 $25 $26 $7 $-1 $27 forward single #
loop $-1 -1 $-1 $-1 $28 $14 #
plane-surface $-1 -1 $-1 0 0 0 0 0 -1 0 1 0 forward_v I I I I #
face $-1 -1 $-1 $29 $30 $16 $-1 $31 reversed single #
face $32 -1 $-1 $33 $34 $17 $-1 $35 forward single #
model_id-kcp-attrib $-1 -1 $-1 $-1 $19 1 1021500266 1021500266 2146238465 3 #
face $36 -1 $-1 $37 $38 $7 $-1 $39 forward single #
loop $-1 -1 $-1 $-1 $40 $19 #
cone-surface $-1 -1 $-1 0 0 0 0 0 -1 0 80 0 1 I I 0 1 80 forward I I I I #
coedge $-1 -1 $-1 $41 $41 $42 $43 reversed $20 $-1 #
face $-1 -1 $-1 $44 $45 $16 $-1 $31 reversed single #
loop $-1 -1 $-1 $-1 $46 $22 #
cone-surface $-1 -1 $-1 -3.5527136788005009e-015 1.1173500321525997e-030 116 0 0 1 1.3349888071979329e-014 -80 0 1 I I 0 1 80 forward I I I I #
model_id-kcp-attrib $-1 -1 $-1 $-1 $23 1 1021500266 1021500266 2146238466 2 #
face $47 -1 $-1 $48 $49 $17 $-1 $50 reversed single #
loop $-1 -1 $-1 $-1 $51 $23 #
plane-surface $-1 -1 $-1 0 0 116 0 0 1 1 0 0 forward_v I I I I #
model_id-kcp-attrib $-1 -1 $-1 $-1 $25 1 1021500266 1021500266 2146238465 4 #
face $52 -1 $-1 $53 $54 $7 $-1 $55 forward single #
loop $-1 -1 $-1 $-1 $56 $25 #
cone-surface $-1 -1 $-1 0 0 0 0 0 -1 0 80 0 1 I I 0 1 80 forward I I I I #
coedge $-1 -1 $-1 $57 $42 $58 $59 forward $26 $-1 #
coedge $-1 -1 $-1 $28 $28 $60 $61 reversed $20 $-1 #
coedge $-1 -1 $-1 $40 $62 $28 $43 forward $26 $-1 #
edge $63 -1 $-1 $64 0 $65 3.1415926535897931 $28 $66 forward @7 unknown #
face $-1 -1 $-1 $67 $68 $16 $-1 $31 reversed single #
loop $-1 -1 $-1 $-1 $69 $29 #
coedge $-1 -1 $-1 $70 $71 $72 $73 reversed $30 $-1 #
model_id-kcp-attrib $-1 -1 $-1 $-1 $33 1 1021500266 1021500266 2146238466 3 #
face $-1 -1 $-1 $74 $75 $17 $-1 $76 reversed single #
loop $-1 -1 $-1 $-1 $77 $33 #
plane-surface $-1 -1 $-1 0 0 -116 0 0 1 1 0 0 forward_v I I I I #
coedge $-1 -1 $-1 $78 $79 $80 $81 forward $34 $-1 #
model_id-kcp-attrib $-1 -1 $-1 $-1 $37 1 1021500266 1021500266 2146238465 5 #
face $82 -1 $-1 $83 $84 $7 $-1 $85 forward single #
loop $-1 -1 $-1 $86 $87 $37 #
plane-surface $-1 -1 $-1 0 0 -10 0 0 -1 0 1 0 forward_v I I I I #
coedge $-1 -1 $-1 $88 $60 $62 $89 forward $38 $-1 #
coedge $-1 -1 $-1 $62 $40 $87 $90 reversed $26 $-1 #
coedge $-1 -1 $-1 $60 $88 $40 $59 reversed $38 $-1 #
edge $-1 -1 $-1 $65 0 $91 10 $58 $92 forward @7 unknown #
coedge $-1 -1 $-1 $56 $58 $41 $61 forward $38 $-1 #
edge $93 -1 $-1 $65 0 $64 3.1415926535897931 $41 $94 forward @7 unknown #
coedge $-1 -1 $-1 $42 $57 $56 $89 reversed $26 $-1 #
attrib_edge_convexity-kcp-attrib $-1 -1 $95 $-1 $43 1 #
vertex $-1 -1 $-1 $61 $96 #
vertex $-1 -1 $-1 $61 $97 #
ellipse-curve $-1 -1 $-1 0 0 0 0 0 -1 9.7971743931788261e-015 -80 0 1 I I #
face $-1 -1 $-1 $98 $99 $16 $-1 $31 reversed single #
loop $-1 -1 $-1 $-1 $100 $44 #
coedge $-1 -1 $-1 $101 $102 $103 $104 reversed $45 $-1 #
coedge $-1 -1 $-1 $105 $46 $106 $107 reversed $30 $-1 #
coedge $-1 -1 $-1 $46 $105 $108 $109 reversed $30 $-1 #
coedge $-1 -1 $-1 $110 $111 $112 $73 forward $113 $-1 #
edge $-1 -1 $-1 $114 -232 $115 0 $72 $116 forward @7 unknown #
face $-1 -1 $-1 $117 $118 $17 $-1 $119 reversed single #
loop $-1 -1 $-1 $-1 $120 $48 #
plane-surface $-1 -1 $-1 0 -80 0 0 1 0 0 0 1 forward_v I I I I #
coedge $-1 -1 $-1 $121 $122 $123 $124 forward $49 $-1 #
coedge $-1 -1 $-1 $125 $51 $126 $127 forward $34 $-1 #
coedge $-1 -1 $-1 $51 $125 $128 $129 forward $34 $-1 #
coedge $-1 -1 $-1 $130 $131 $51 $81 reversed $132 $-1 #
edge $-1 -1 $-1 $133 -80 $134 80 $80 $135 forward @7 unknown #
model_id-kcp-attrib $-1 -1 $-1 $-1 $53 1 1021500266 1021500266 2146238465 6 #
face $136 -1 $-1 $137 $138 $7 $-1 $139 forward single #
loop $-1 -1 $-1 $-1 $140 $53 #
cone-surface $-1 -1 $-1 0 0 -110 0 0 -1 -7.5 0 0 1 I I 0 1 7.5 forward I I I I #
loop $-1 -1 $-1 $-1 $141 $37 #
coedge $-1 -1 $-1 $142 $142 $57 $90 forward $54 $-1 #
coedge $-1 -1 $-1 $58 $56 $142 $143 reversed $38 $-1 #
edge $-1 -1 $-1 $64 0 $144 10 $56 $145 forward @7 unknown #
edge $-1 -1 $-1 $144 0 $91 3.1415926535897931 $87 $146 forward @7 unknown #
vertex $-1 -1 $-1 $143 $147 #
straight-curve $-1 -1 $-1 0 80 0 0 0 -1 I I #
attrib_edge_convexity-kcp-attrib $-1 -1 $148 $-1 $61 1 #
ellipse-curve $-1 -1 $-1 0 0 0 0 0 -1 -9.7971743931788276e-015 80 0 1 I I #
convexity-sys-attrib $-1 -1 $-1 $63 $43 #
point $-1 -1 $-1 9.7971743931788261e-015 -80 0 #
point $-1 -1 $-1 -9.7971743931788276e-015 80 0 #
face $-1 -1 $-1 $149 $150 $16 $-1 $151 reversed single #
loop $-1 -1 $-1 $-1 $152 $67 #
coedge $-1 -1 $-1 $153 $154 $155 $156 reversed $68 $-1 #
coedge $-1 -1 $-1 $157 $69 $158 $159 reversed $45 $-1 #
coedge $-1 -1 $-1 $69 $157 $46 $73 forward $45 $-1 #
coedge $-1 -1 $-1 $160 $161 $69 $104 forward $162 $-1 #
edge $-1 -1 $-1 $163 -3.1415926535897931 $115 -1.5707963267948966 $103 $164 forward @7 unknown #
coedge $-1 -1 $-1 $71 $70 $154 $165 forward $30 $-1 #
coedge $-1 -1 $-1 $166 $167 $70 $107 forward $168 $-1 #
edge $-1 -1 $-1 $169 -1.668736008997416e-016 $114 1.5707963267948966 $106 $170 forward @7 unknown #
coedge $-1 -1 $-1 $171 $172 $71 $109 forward $173 $-1 #
edge $-1 -1 $-1 $115 -1.5707963267948966 $174 1.668736008997416e-016 $108 $164 forward @7 unknown #
coedge $-1 -1 $-1 $175 $72 $172 $176 reversed $113 $-1 #
coedge $-1 -1 $-1 $72 $175 $166 $177 reversed $113 $-1 #
coedge $-1 -1 $-1 $178 $179 $102 $73 reversed $180 $-1 #
loop $-1 -1 $-1 $-1 $72 $181 #
vertex $-1 -1 $-1 $177 $182 #
vertex $-1 -1 $-1 $183 $184 #
straight-curve $-1 -1 $-1 80 1.1173500321525997e-030 116 0 0 1 I I #
face $-1 -1 $-1 $185 $186 $17 $-1 $187 reversed single #
loop $-1 -1 $-1 $-1 $188 $74 #
plane-surface $-1 -1 $-1 -80 0 0 1 0 0 0 0 -1 forward_v I I I I #
coedge $-1 -1 $-1 $189 $128 $190 $191 forward $75 $-1 #
coedge $-1 -1 $-1 $192 $77 $189 $193 forward $49 $-1 #
coedge $-1 -1 $-1 $77 $192 $194 $195 forward $49 $-1 #
coedge $-1 -1 $-1 $131 $130 $77 $124 reversed $132 $-1 #
edge $-1 -1 $-1 $196 -80 $197 80 $123 $198 forward @7 unknown #
coedge $-1 -1 $-1 $79 $78 $199 $200 forward $34 $-1 #
coedge $-1 -1 $-1 $201 $202 $78 $127 reversed $186 $-1 #
edge $-1 -1 $-1 $134 -80 $203 80 $126 $204 forward @7 unknown #
coedge $-1 -1 $-1 $120 $205 $79 $129 reversed $75 $-1 #
edge $-1 -1 $-1 $206 -80 $133 80 $128 $207 forward @7 unknown #
coedge $-1 -1 $-1 $123 $80 $205 $208 forward $132 $-1 #
coedge $-1 -1 $-1 $80 $123 $201 $209 reversed $132 $-1 #
loop $-1 -1 $-1 $-1 $130 $185 #
vertex $-1 -1 $-1 $81 $210 #
vertex $-1 -1 $-1 $81 $211 #
straight-curve $-1 -1 $-1 80 0 116 0 1 0 I I #
model_id-kcp-attrib $-1 -1 $-1 $-1 $83 1 1021500266 1021500266 2146238465 7 #
face $212 -1 $-1 $213 $214 $7 $-1 $215 forward single #
loop $-1 -1 $-1 $-1 $216 $83 #
cone-surface $-1 -1 $-1 0 0 -110 0 0 -1 7.5 0 0 1 I I 0 1 7.5 forward I I I I #
coedge $-1 -1 $-1 $217 $218 $219 $220 forward $84 $-1 #
coedge $-1 -1 $-1 $221 $221 $218 $222 reversed $86 $-1 #
coedge $-1 -1 $-1 $87 $87 $88 $143 forward $54 $-1 #
edge $-1 -1 $-1 $91 0 $144 3.1415926535897931 $142 $223 forward @7 unknown #
vertex $-1 -1 $-1 $143 $224 #
straight-curve $-1 -1 $-1 9.7968508305790181e-015 -80 0 0 0 -1 I I #
ellipse-curve $-1 -1 $-1 -3.5527136788005009e-015 0 -10 0 0 -1 1.3349888071979327e-014 -80 0 1 I I #
point $-1 -1 $-1 -9.7971743931788308e-015 80 -10 #
convexity-sys-attrib $-1 -1 $-1 $93 $61 #
face $-1 -1 $-1 $225 $180 $16 $-1 $226 reversed single #
loop $-1 -1 $-1 $-1 $227 $98 #
plane-surface $-1 -1 $-1 0 -80 0 0 1 0 0 0 1 forward_v I I I I #
coedge $-1 -1 $-1 $228 $229 $230 $231 reversed $99 $-1 #
coedge $-1 -1 $-1 $232 $100 $229 $233 forward $68 $-1 #
coedge $-1 -1 $-1 $100 $232 $234 $165 reversed $68 $-1 #
coedge $-1 -1 $-1 $235 $236 $100 $156 forward $237 $-1 #
edge $-1 -1 $-1 $238 -1.5707963267948968 $169 -1.668736008997416e-016 $155 $170 forward @7 unknown #
coedge $-1 -1 $-1 $102 $101 $239 $240 reversed $45 $-1 #
coedge $-1 -1 $-1 $241 $242 $243 $159 forward $244 $-1 #
edge $-1 -1 $-1 $245 -232 $163 0 $158 $246 forward @7 unknown #
coedge $-1 -1 $-1 $161 $103 $179 $183 forward $162 $-1 #
coedge $-1 -1 $-1 $103 $160 $241 $247 forward $162 $-1 #
loop $-1 -1 $-1 $-1 $103 $248 #
vertex $-1 -1 $-1 $249 $250 #
ellipse-curve $-1 -1 $-1 -3.5527136788005009e-015 1.1173500321525997e-030 116 0 0 -1 1.3349888071979329e-014 -80 0 1 I I #
edge $-1 -1 $-1 $169 -232 $174 0 $234 $251 forward @7 unknown #
coedge $-1 -1 $-1 $167 $106 $111 $177 forward $168 $-1 #
coedge $-1 -1 $-1 $106 $166 $252 $253 forward $168 $-1 #
loop $-1 -1 $-1 $-1 $106 $254 #
vertex $-1 -1 $-1 $255 $256 #
ellipse-curve $-1 -1 $-1 -3.5527136788005009e-015 1.1173500321525997e-030 -116 0 0 1 1.3349888071979329e-014 -80 0 1 I I #
coedge $-1 -1 $-1 $172 $108 $257 $258 forward $173 $-1 #
coedge $-1 -1 $-1 $108 $171 $110 $176 forward $173 $-1 #
loop $-1 -1 $-1 $-1 $108 $259 #
vertex $-1 -1 $-1 $258 $260 #
coedge $-1 -1 $-1 $111 $110 $261 $262 forward $113 $-1 #
edge $-1 -1 $-1 $263 -80 $115 1.1173500321525997e-030 $110 $264 forward @7 unknown #
edge $-1 -1 $-1 $114 -1.1173500321525997e-030 $265 80 $111 $266 forward @7 unknown #
coedge $-1 -1 $-1 $267 $112 $268 $269 reversed $180 $-1 #
coedge $-1 -1 $-1 $112 $267 $160 $183 reversed $180 $-1 #
loop $-1 -1 $-1 $-1 $112 $149 #
face $-1 -1 $-1 $-1 $113 $16 $-1 $226 reversed single #
point $-1 -1 $-1 80 1.1173500321525997e-030 -116 #
edge $-1 -1 $-1 $115 1.1173500321525997e-030 $270 80 $179 $264 forward @7 unknown #
point $-1 -1 $-1 80 1.1173500321525997e-030 116 #
face $-1 -1 $-1 $-1 $132 $17 $-1 $271 reversed single #
loop $-1 -1 $-1 $-1 $201 $117 #
plane-surface $-1 -1 $-1 0 80 0 0 -1 0 0 0 -1 forward_v I I I I #
coedge $-1 -1 $-1 $272 $199 $202 $273 forward $118 $-1 #
coedge $-1 -1 $-1 $205 $120 $121 $193 reversed $75 $-1 #
coedge $-1 -1 $-1 $199 $272 $120 $191 reversed $118 $-1 #
edge $-1 -1 $-1 $206 -116 $274 116 $190 $275 forward @7 unknown #
coedge $-1 -1 $-1 $122 $121 $272 $276 forward $49 $-1 #
edge $-1 -1 $-1 $197 -80 $274 80 $189 $277 forward @7 unknown #
coedge $-1 -1 $-1 $202 $201 $122 $195 reversed $186 $-1 #
edge $-1 -1 $-1 $278 -80 $196 80 $194 $279 forward @7 unknown #
vertex $-1 -1 $-1 $124 $280 #
vertex $-1 -1 $-1 $208 $281 #
straight-curve $-1 -1 $-1 80 0 -116 0 -1 0 I I #
coedge $-1 -1 $-1 $188 $190 $125 $200 reversed $118 $-1 #
edge $-1 -1 $-1 $203 -80 $206 80 $199 $282 forward @7 unknown #
coedge $-1 -1 $-1 $194 $126 $131 $209 forward $186 $-1 #
coedge $-1 -1 $-1 $126 $194 $188 $273 reversed $186 $-1 #
vertex $-1 -1 $-1 $127 $283 #
straight-curve $-1 -1 $-1 0 80 116 -1 0 0 I I #
coedge $-1 -1 $-1 $128 $189 $130 $208 reversed $75 $-1 #
vertex $-1 -1 $-1 $200 $284 #
straight-curve $-1 -1 $-1 0 -80 116 1 0 0 I I #
edge $-1 -1 $-1 $133 -116 $197 116 $130 $285 forward @7 unknown #
edge $-1 -1 $-1 $134 -116 $196 116 $131 $286 forward @7 unknown #
point $-1 -1 $-1 80 -80 116 #
point $-1 -1 $-1 80 80 116 #
model_id-kcp-attrib $-1 -1 $-1 $-1 $137 1 1021500266 1021500266 2146238465 8 #
face $287 -1 $-1 $288 $289 $7 $-1 $290 forward single #
loop $-1 -1 $-1 $-1 $291 $137 #
cone-surface $-1 -1 $-1 0 0 -205.5 0 0 1 1.3636363636363633 0 0 1 I I -0.80640499585570546 0.59136366362751747 1.3636363636363633 forward I I I I #
coedge $-1 -1 $-1 $292 $293 $294 $295 forward $138 $-1 #
coedge $-1 -1 $-1 $294 $140 $296 $297 reversed $84 $-1 #
coedge $-1 -1 $-1 $140 $294 $141 $222 forward $84 $-1 #
coedge $-1 -1 $-1 $293 $292 $140 $220 reversed $138 $-1 #
edge $-1 -1 $-1 $298 0 $299 200 $219 $300 forward @7 unknown #
coedge $-1 -1 $-1 $141 $141 $293 $301 reversed $86 $-1 #
edge $-1 -1 $-1 $302 0 $298 3.1415926535897931 $141 $303 forward @7 unknown #
ellipse-curve $-1 -1 $-1 3.5527136788005009e-015 3.5527136788005009e-015 -10 0 0 -1 -1.3349888071979332e-014 80 0 1 I I #
point $-1 -1 $-1 9.7971743931788261e-015 -80 -10 #
face $-1 -1 $-1 $304 $305 $16 $-1 $306 reversed single #
plane-surface $-1 -1 $-1 80 0 0 -1 0 0 0 0 1 forward_v I I I I #
coedge $-1 -1 $-1 $252 $257 $105 $165 reversed $150 $-1 #
coedge $-1 -1 $-1 $307 $152 $101 $159 forward $99 $-1 #
coedge $-1 -1 $-1 $152 $307 $308 $233 reversed $99 $-1 #
coedge $-1 -1 $-1 $309 $310 $152 $231 forward $311 $-1 #
edge $-1 -1 $-1 $245 -3.1415926535897931 $238 -1.5707963267948968 $230 $170 forward @7 unknown #
coedge $-1 -1 $-1 $154 $153 $312 $313 reversed $68 $-1 #
edge $-1 -1 $-1 $238 -232 $314 0 $308 $315 forward @7 unknown #
coedge $-1 -1 $-1 $316 $317 $227 $165 forward $318 $-1 #
coedge $-1 -1 $-1 $236 $155 $317 $255 forward $237 $-1 #
coedge $-1 -1 $-1 $155 $235 $319 $320 forward $237 $-1 #
loop $-1 -1 $-1 $-1 $155 $321 #
vertex $-1 -1 $-1 $322 $323 #
coedge $-1 -1 $-1 $324 $268 $157 $240 forward $325 $-1 #
edge $-1 -1 $-1 $114 1.5707963267948966 $245 3.1415926535897931 $239 $170 forward @7 unknown #
coedge $-1 -1 $-1 $326 $158 $161 $247 reversed $244 $-1 #
coedge $-1 -1 $-1 $158 $326 $324 $327 reversed $244 $-1 #
coedge $-1 -1 $-1 $328 $329 $228 $159 reversed $305 $-1 #
loop $-1 -1 $-1 $-1 $158 $330 #
vertex $-1 -1 $-1 $327 $331 #
straight-curve $-1 -1 $-1 -3.5527136788005009e-015 80 116 0 0 1 I I #
edge $-1 -1 $-1 $270 -80 $163 3.5527136788005009e-015 $241 $332 forward @7 unknown #
face $-1 -1 $-1 $259 $162 $16 $-1 $333 forward single #
edge $-1 -1 $-1 $163 3.5527136788005009e-015 $334 80 $329 $332 forward @7 unknown #
point $-1 -1 $-1 -3.5527136788005009e-015 80 116 #
straight-curve $-1 -1 $-1 -3.5527136788005009e-015 -80 116 0 0 1 I I #
coedge $-1 -1 $-1 $261 $227 $167 $253 reversed $150 $-1 #
edge $-1 -1 $-1 $265 -80 $169 3.5527136788005009e-015 $252 $335 forward @7 unknown #
face $-1 -1 $-1 $336 $168 $16 $-1 $337 reversed single #
edge $-1 -1 $-1 $169 3.5527136788005009e-015 $338 80 $317 $335 forward @7 unknown #
point $-1 -1 $-1 -3.5527136788005009e-015 -80 -116 #
coedge $-1 -1 $-1 $227 $261 $171 $258 reversed $150 $-1 #
edge $-1 -1 $-1 $174 -3.5527136788005009e-015 $263 80 $257 $339 forward @7 unknown #
face $-1 -1 $-1 $340 $173 $16 $-1 $333 forward single #
point $-1 -1 $-1 -3.5527136788005009e-015 -80 116 #
coedge $-1 -1 $-1 $257 $252 $175 $262 reversed $150 $-1 #
edge $-1 -1 $-1 $263 -116 $265 116 $175 $341 forward @7 unknown #
vertex $-1 -1 $-1 $176 $342 #
straight-curve $-1 -1 $-1 80 0 116 0 1 0 I I #
vertex $-1 -1 $-1 $262 $343 #
straight-curve $-1 -1 $-1 80 0 -116 0 -1 0 I I #
coedge $-1 -1 $-1 $179 $178 $326 $344 reversed $180 $-1 #
coedge $-1 -1 $-1 $239 $324 $178 $269 forward $325 $-1 #
edge $-1 -1 $-1 $345 -80 $114 -1.1173500321525997e-030 $178 $266 forward @7 unknown #
vertex $-1 -1 $-1 $183 $346 #
plane-surface $-1 -1 $-1 80 0 0 -1 0 0 0 0 1 forward_v I I I I #
coedge $-1 -1 $-1 $190 $188 $192 $276 reversed $118 $-1 #
edge $-1 -1 $-1 $203 -116 $278 116 $202 $347 forward @7 unknown #
vertex $-1 -1 $-1 $276 $348 #
straight-curve $-1 -1 $-1 -80 -80 0 0 0 -1 I I #
edge $-1 -1 $-1 $274 -80 $278 80 $272 $349 forward @7 unknown #
straight-curve $-1 -1 $-1 0 -80 -116 -1 0 0 I I #
vertex $-1 -1 $-1 $195 $350 #
straight-curve $-1 -1 $-1 0 80 -116 1 0 0 I I #
point $-1 -1 $-1 80 80 -116 #
point $-1 -1 $-1 80 -80 -116 #
straight-curve $-1 -1 $-1 -80 0 116 0 -1 0 I I #
point $-1 -1 $-1 -80 80 116 #
point $-1 -1 $-1 -80 -80 116 #
straight-curve $-1 -1 $-1 80 -80 0 0 0 -1 I I #
straight-curve $-1 -1 $-1 80 80 0 0 0 -1 I I #
model_id-kcp-attrib $-1 -1 $-1 $-1 $213 1 1021500266 1021500266 2146238465 9 #
face $351 -1 $-1 $-1 $352 $7 $-1 $353 forward single #
loop $-1 -1 $-1 $-1 $354 $213 #
cone-surface $-1 -1 $-1 0 0 -205.5 0 0 1 -1.3636363636363633 0 0 1 I I -0.80640499585570546 0.59136366362751747 1.3636363636363633 forward I I I I #
coedge $-1 -1 $-1 $355 $356 $357 $358 forward $214 $-1 #
coedge $-1 -1 $-1 $219 $216 $356 $359 reversed $138 $-1 #
coedge $-1 -1 $-1 $216 $219 $221 $301 forward $138 $-1 #
coedge $-1 -1 $-1 $218 $217 $216 $295 reversed $84 $-1 #
edge $-1 -1 $-1 $302 0 $360 200 $216 $361 forward @7 unknown #
coedge $-1 -1 $-1 $354 $357 $217 $297 forward $289 $-1 #
edge $-1 -1 $-1 $360 -1.2246063538223773e-016 $299 3.1415926535897931 $217 $362 forward @7 unknown #
vertex $-1 -1 $-1 $301 $363 #
vertex $-1 -1 $-1 $220 $364 #
straight-curve $-1 -1 $-1 7.5 0 -10 0 0 -1 I I #
edge $-1 -1 $-1 $298 0 $302 3.1415926535897931 $221 $365 forward @7 unknown #
vertex $-1 -1 $-1 $301 $366 #
ellipse-curve $-1 -1 $-1 -2.2204460492503131e-016 4.4408920985006262e-016 -10 0 0 -1 -7.5 -4.4408920985006262e-016 0 1 I I #
face $-1 -1 $-1 $248 $367 $16 $-1 $333 forward single #
loop $-1 -1 $-1 $-1 $243 $225 #
plane-surface $-1 -1 $-1 0 80 0 0 -1 0 0 0 -1 forward_v I I I I #
coedge $-1 -1 $-1 $229 $228 $368 $369 reversed $99 $-1 #
coedge $-1 -1 $-1 $370 $371 $372 $233 forward $373 $-1 #
coedge $-1 -1 $-1 $310 $230 $371 $322 forward $311 $-1 #
coedge $-1 -1 $-1 $230 $309 $328 $374 forward $311 $-1 #
loop $-1 -1 $-1 $-1 $230 $375 #
coedge $-1 -1 $-1 $376 $377 $232 $313 forward $378 $-1 #
edge $-1 -1 $-1 $174 1.668736008997416e-016 $314 1.5707963267948968 $312 $164 forward @7 unknown #
vertex $-1 -1 $-1 $379 $380 #
straight-curve $-1 -1 $-1 -80 1.1173500321525997e-030 116 0 0 1 I I #
coedge $-1 -1 $-1 $381 $234 $377 $382 reversed $318 $-1 #
coedge $-1 -1 $-1 $234 $381 $235 $255 reversed $318 $-1 #
loop $-1 -1 $-1 $-1 $234 $383 #
coedge $-1 -1 $-1 $384 $372 $236 $320 reversed $385 $-1 #
edge $-1 -1 $-1 $338 -80 $238 1.1173500321525997e-030 $319 $386 forward @7 unknown #
face $-1 -1 $-1 $254 $237 $16 $-1 $337 reversed single #
edge $-1 -1 $-1 $238 1.1173500321525997e-030 $387 80 $371 $386 forward @7 unknown #
point $-1 -1 $-1 -80 1.1173500321525997e-030 -116 #
coedge $-1 -1 $-1 $268 $239 $242 $327 forward $325 $-1 #
loop $-1 -1 $-1 $-1 $239 $336 #
coedge $-1 -1 $-1 $242 $241 $267 $344 forward $244 $-1 #
edge $-1 -1 $-1 $245 -3.5527136788005009e-015 $345 80 $242 $388 forward @7 unknown #
coedge $-1 -1 $-1 $389 $243 $310 $374 reversed $305 $-1 #
coedge $-1 -1 $-1 $243 $389 $390 $249 reversed $305 $-1 #
face $-1 -1 $-1 $181 $244 $16 $-1 $306 reversed single #
point $-1 -1 $-1 -3.5527136788005009e-015 80 -116 #
straight-curve $-1 -1 $-1 0 80 116 -1 0 0 I I #
plane-surface $-1 -1 $-1 0 0 116 0 0 1 1 0 0 forward_v I I I I #
vertex $-1 -1 $-1 $249 $391 #
straight-curve $-1 -1 $-1 0 -80 -116 -1 0 0 I I #
face $-1 -1 $-1 $383 $325 $16 $-1 $337 reversed single #
plane-surface $-1 -1 $-1 0 0 -116 0 0 1 1 0 0 forward_v I I I I #
vertex $-1 -1 $-1 $320 $392 #
straight-curve $-1 -1 $-1 0 -80 116 1 0 0 I I #
face $-1 -1 $-1 $393 $378 $16 $-1 $333 forward single #
straight-curve $-1 -1 $-1 80 -80 0 0 0 -1 I I #
point $-1 -1 $-1 80 -80 116 #
point $-1 -1 $-1 80 -80 -116 #
edge $-1 -1 $-1 $270 -116 $345 116 $267 $394 forward @7 unknown #
vertex $-1 -1 $-1 $269 $395 #
point $-1 -1 $-1 80 80 116 #
straight-curve $-1 -1 $-1 -80 80 0 0 0 -1 I I #
point $-1 -1 $-1 -80 -80 -116 #
straight-curve $-1 -1 $-1 -80 0 -116 0 1 0 I I #
point $-1 -1 $-1 -80 80 -116 #
model_id-kcp-attrib $-1 -1 $-1 $-1 $288 1 1021500266 1021500266 2146238465 10 #
loop $-1 -1 $-1 $-1 $396 $288 #
plane-surface $-1 -1 $-1 0 0 -232 0 0 -1 1 0 0 forward_v I I I I #
coedge $-1 -1 $-1 $397 $296 $398 $399 forward $289 $-1 #
coedge $-1 -1 $-1 $398 $291 $400 $401 reversed $214 $-1 #
coedge $-1 -1 $-1 $291 $398 $292 $359 forward $214 $-1 #
coedge $-1 -1 $-1 $296 $397 $291 $358 reversed $289 $-1 #
edge $-1 -1 $-1 $360 0 $402 37.20215047547655 $291 $403 forward @7 unknown #
edge $-1 -1 $-1 $299 0 $360 3.1415926535897931 $292 $404 forward @7 unknown #
vertex $-1 -1 $-1 $359 $405 #
straight-curve $-1 -1 $-1 -7.5 0 -10 0 0 -1 I I #
ellipse-curve $-1 -1 $-1 -2.2204460492503131e-016 0 -210 0 0 -1 -7.4999999999999982 0 0 1 I I #
point $-1 -1 $-1 7.5 0 -10 #
point $-1 -1 $-1 7.4999999999999982 0 -210 #
ellipse-curve $-1 -1 $-1 2.2204460492503131e-016 -4.4408920985006262e-016 -10 0 0 -1 7.5 4.4408920985006262e-016 0 1 I I #
point $-1 -1 $-1 -7.5 0 -10 #
loop $-1 -1 $-1 $-1 $368 $304 #
coedge $-1 -1 $-1 $390 $406 $307 $369 forward $367 $-1 #
edge $-1 -1 $-1 $314 1.5707963267948968 $163 3.1415926535897931 $368 $164 forward @7 unknown #
coedge $-1 -1 $-1 $407 $308 $406 $408 reversed $373 $-1 #
coedge $-1 -1 $-1 $308 $407 $309 $322 reversed $373 $-1 #
coedge $-1 -1 $-1 $319 $409 $153 $233 reversed $385 $-1 #
loop $-1 -1 $-1 $-1 $308 $410 #
edge $-1 -1 $-1 $387 -80 $245 -3.5527136788005009e-015 $328 $388 forward @7 unknown #
face $-1 -1 $-1 $321 $311 $16 $-1 $337 reversed single #
coedge $-1 -1 $-1 $377 $312 $409 $379 forward $378 $-1 #
coedge $-1 -1 $-1 $312 $376 $316 $382 forward $378 $-1 #
loop $-1 -1 $-1 $-1 $312 $340 #
edge $-1 -1 $-1 $314 -1.1173500321525997e-030 $411 80 $409 $412 forward @7 unknown #
point $-1 -1 $-1 -80 1.1173500321525997e-030 116 #
coedge $-1 -1 $-1 $317 $316 $384 $413 forward $318 $-1 #
edge $-1 -1 $-1 $411 -80 $174 -3.5527136788005009e-015 $316 $339 forward @7 unknown #
face $-1 -1 $-1 $410 $318 $16 $-1 $151 reversed single #
coedge $-1 -1 $-1 $409 $319 $381 $413 reversed $385 $-1 #
loop $-1 -1 $-1 $-1 $372 $393 #
straight-curve $-1 -1 $-1 -80 0 -116 0 1 0 I I #
vertex $-1 -1 $-1 $374 $414 #
straight-curve $-1 -1 $-1 0 80 -116 1 0 0 I I #
coedge $-1 -1 $-1 $329 $328 $407 $415 reversed $305 $-1 #
coedge $-1 -1 $-1 $406 $368 $329 $249 forward $367 $-1 #
point $-1 -1 $-1 -80 80 116 #
point $-1 -1 $-1 -80 -80 -116 #
face $-1 -1 $-1 $375 $385 $16 $-1 $416 reversed single #
straight-curve $-1 -1 $-1 80 80 0 0 0 -1 I I #
point $-1 -1 $-1 80 80 -116 #
coedge $-1 -1 $-1 $400 $400 $397 $417 forward $352 $-1 #
coedge $-1 -1 $-1 $357 $354 $396 $417 reversed $289 $-1 #
coedge $-1 -1 $-1 $356 $355 $354 $399 reversed $214 $-1 #
edge $-1 -1 $-1 $299 0 $418 37.20215047547655 $398 $419 forward @7 unknown #
coedge $-1 -1 $-1 $396 $396 $355 $401 forward $352 $-1 #
edge $-1 -1 $-1 $418 0 $402 3.1415926535897931 $400 $420 forward @7 unknown #
vertex $-1 -1 $-1 $401 $421 #
straight-curve $-1 -1 $-1 -7.4999999999999982 0 -210 -0.80640499585570546 0 -0.59136366362751758 I I #
ellipse-curve $-1 -1 $-1 0 -2.2204460492503131e-016 -210 0 0 -1 7.4999999999999982 2.2204460492503131e-016 0 1 I I #
point $-1 -1 $-1 -7.4999999999999982 -9.1845476536678275e-016 -210 #
coedge $-1 -1 $-1 $368 $390 $370 $408 forward $367 $-1 #
coedge $-1 -1 $-1 $371 $370 $389 $415 forward $373 $-1 #
edge $-1 -1 $-1 $334 -80 $314 -1.1173500321525997e-030 $370 $412 forward @7 unknown #
coedge $-1 -1 $-1 $372 $384 $376 $379 reversed $385 $-1 #
face $-1 -1 $-1 $330 $373 $16 $-1 $416 reversed single #
vertex $-1 -1 $-1 $379 $422 #
straight-curve $-1 -1 $-1 -80 0 116 0 -1 0 I I #
edge $-1 -1 $-1 $411 -116 $338 116 $384 $423 forward @7 unknown #
point $-1 -1 $-1 -80 80 -116 #
edge $-1 -1 $-1 $334 -116 $387 116 $389 $424 forward @7 unknown #
plane-surface $-1 -1 $-1 -80 0 0 1 0 0 0 0 -1 forward_v I I I I #
edge $-1 -1 $-1 $402 0 $418 3.1415926535897931 $396 $425 forward @7 unknown #
vertex $-1 -1 $-1 $401 $426 #
straight-curve $-1 -1 $-1 7.4999999999999982 0 -210 0.80640499585570546 0 -0.59136366362751758 I I #
ellipse-curve $-1 -1 $-1 1.7763568394002505e-015 -1.7763568394002505e-015 -232 0 0 -1 37.5 6.368782336202828e-015 0 1 I I #
point $-1 -1 $-1 -37.5 -4.5924254968025744e-015 -232 #
point $-1 -1 $-1 -80 -80 116 #
straight-curve $-1 -1 $-1 -80 -80 0 0 0 -1 I I #
straight-curve $-1 -1 $-1 -80 80 0 0 0 -1 I I #
ellipse-curve $-1 -1 $-1 0 1.7763568394002505e-015 -232 0 0 -1 -37.5 -6.3687823362028248e-015 0 1 I I #
point $-1 -1 $-1 37.5 4.5924254968025775e-015 -232 #
End-of-ACIS-data 