600 0 1 0           
97 GICL Pro/E ACIS Translator - Source: f:/data5/repository/PTC/V18/fly_small18/zoom_sheet.prt - 6 0 13 ACIS 6.0.3 NT 24 Thu Apr 04 13:36:16 2002 
1 9.9999999999999995e-007 1e-010 
body $-1 $1 $-1 $-1 #
lump $-1 $-1 $2 $0 #
shell $-1 $-1 $-1 $3 $-1 $1 #
face $-1 $4 $5 $2 $-1 $6 reversed single #
face $-1 $7 $8 $2 $-1 $9 reversed single #
loop $-1 $10 $11 $3 #
plane-surface $-1 0 0 0 0 0 1 1 0 0 forward_v I I I I #
face $-1 $12 $13 $2 $-1 $14 reversed single #
loop $-1 $-1 $15 $4 #
cone-surface $-1 11 -1 0 0 0 1 1.2 0 0 1 I I 0 1 1.2 forward I I I I #
loop $-1 $16 $17 $3 #
coedge $-1 $18 $18 $19 $20 reversed $5 $-1 #
face $-1 $21 $22 $2 $-1 $23 forward single #
loop $-1 $-1 $24 $7 #
cone-surface $-1 11 -1 0 0 0 1 1.2 0 0 1 I I 0 1 1.2 forward I I I I #
coedge $-1 $25 $19 $26 $27 forward $8 $-1 #
loop $-1 $-1 $28 $3 #
coedge $-1 $29 $30 $31 $32 reversed $10 $-1 #
coedge $-1 $11 $11 $33 $34 reversed $5 $-1 #
coedge $-1 $15 $35 $11 $20 forward $8 $-1 #
edge $-1 $36 0 $37 3.1415926535897931 $11 $38 forward 7 unknown #
face $-1 $39 $40 $2 $-1 $41 forward single #
loop $-1 $42 $43 $12 #
plane-surface $-1 0 0 0.01 0 0 1 1 0 0 forward_v I I I I #
coedge $-1 $44 $33 $35 $45 forward $13 $-1 #
coedge $-1 $35 $15 $43 $46 reversed $8 $-1 #
coedge $-1 $33 $44 $15 $27 reversed $13 $-1 #
edge $-1 $37 0 $47 0.01 $26 $48 forward 7 unknown #
coedge $-1 $49 $50 $51 $52 reversed $16 $-1 #
coedge $-1 $53 $17 $54 $55 reversed $10 $-1 #
coedge $-1 $17 $56 $57 $58 reversed $10 $-1 #
coedge $-1 $59 $60 $17 $32 forward $61 $-1 #
edge $-1 $62 0 $63 1.651433251860567 $17 $64 forward 7 unknown #
coedge $-1 $24 $26 $18 $34 forward $13 $-1 #
edge $-1 $37 0 $36 3.1415926535897931 $18 $65 forward 7 unknown #
coedge $-1 $19 $25 $24 $45 reversed $8 $-1 #
vertex $-1 $34 $66 #
vertex $-1 $34 $67 #
ellipse-curve $-1 11 -1 0 0 0 -1 -1.2000000000000011 0 0 1 I I #
face $-1 $68 $69 $2 $-1 $70 forward single #
loop $-1 $-1 $71 $21 #
plane-surface $-1 -0.89999999999999991 -7.848566748139433 0 -1 0 0 0 -1 0 forward_v I I I I #
loop $-1 $72 $73 $12 #
coedge $-1 $74 $74 $25 $46 forward $22 $-1 #
coedge $-1 $26 $24 $74 $75 reversed $13 $-1 #
edge $-1 $36 0 $76 0.01 $24 $77 forward 7 unknown #
edge $-1 $76 0 $47 3.1415926535897918 $43 $78 forward 7 unknown #
vertex $-1 $75 $79 #
straight-curve $-1 12.199999999999999 -1 0 0 -2.2204460492503131e-014 1 I I #
coedge $-1 $80 $28 $81 $82 reversed $16 $-1 #
coedge $-1 $28 $80 $83 $84 reversed $16 $-1 #
coedge $-1 $85 $86 $28 $52 forward $87 $-1 #
edge $-1 $88 0 $89 1.5912059069690707 $28 $90 forward 7 unknown #
coedge $-1 $91 $29 $92 $93 reversed $10 $-1 #
coedge $-1 $94 $95 $29 $55 forward $96 $-1 #
edge $-1 $97 0 $62 11.4 $29 $98 forward 7 unknown #
coedge $-1 $30 $99 $100 $101 reversed $10 $-1 #
coedge $-1 $102 $103 $30 $58 forward $104 $-1 #
edge $-1 $63 0 $105 2.9132487897544617 $30 $106 forward 7 unknown #
coedge $-1 $107 $31 $103 $108 forward $61 $-1 #
coedge $-1 $31 $107 $94 $109 reversed $61 $-1 #
loop $-1 $-1 $59 $110 #
vertex $-1 $55 $111 #
vertex $-1 $58 $112 #
straight-curve $-1 -0.89999999999999991 9.5 0 0 -1 0 I I #
ellipse-curve $-1 11 -1 0 0 0 -1 1.1999999999999993 0 0 1 I I #
point $-1 9.7999999999999989 -1 0 #
point $-1 12.199999999999999 -1 0 #
face $-1 $113 $114 $2 $-1 $115 forward single #
loop $-1 $-1 $116 $39 #
plane-surface $-1 -0.89999999999999991 -9.5 0 0 -1 0 1 0 0 forward_v I I I I #
coedge $-1 $117 $100 $118 $119 forward $40 $-1 #
loop $-1 $-1 $120 $12 #
coedge $-1 $121 $122 $117 $123 forward $42 $-1 #
coedge $-1 $43 $43 $44 $75 forward $22 $-1 #
edge $-1 $47 0 $76 3.1415926535897918 $74 $124 forward 7 unknown #
vertex $-1 $75 $125 #
straight-curve $-1 9.8000000000000007 -0.99999999999999989 0 0 0 1 I I #
ellipse-curve $-1 10.999999999999998 -1.0000000000000009 0.01 0 0 -1 -1.1999999999999993 8.8817841970012523e-016 0 1 I I #
point $-1 12.199999999999999 -1 0.01 #
coedge $-1 $50 $49 $126 $127 reversed $16 $-1 #
coedge $-1 $128 $129 $49 $82 forward $130 $-1 #
edge $-1 $131 0 $88 4.8989794855663558 $49 $132 forward 7 unknown #
coedge $-1 $133 $134 $50 $84 forward $135 $-1 #
edge $-1 $89 0 $136 4.8989794855663558 $50 $137 forward 7 unknown #
coedge $-1 $138 $51 $134 $139 forward $87 $-1 #
coedge $-1 $51 $138 $128 $140 reversed $87 $-1 #
loop $-1 $-1 $85 $141 #
vertex $-1 $82 $142 #
vertex $-1 $84 $143 #
ellipse-curve $-1 0 0 0 0 0 -1 -2.4494897427831779 -2.5 0 1 I I #
coedge $-1 $144 $53 $145 $146 reversed $10 $-1 #
coedge $-1 $147 $148 $53 $93 forward $149 $-1 #
edge $-1 $150 0 $97 8.0505102572168212 $53 $151 forward 7 unknown #
coedge $-1 $152 $54 $60 $109 forward $96 $-1 #
coedge $-1 $54 $152 $147 $153 reversed $96 $-1 #
loop $-1 $-1 $94 $154 #
vertex $-1 $93 $155 #
straight-curve $-1 10.5 9.5 0 -1 0 0 I I #
coedge $-1 $56 $144 $156 $157 reversed $10 $-1 #
coedge $-1 $71 $158 $56 $101 forward $40 $-1 #
edge $-1 $105 0 $159 1.651433251860567 $56 $160 forward 7 unknown #
coedge $-1 $161 $57 $158 $162 forward $104 $-1 #
coedge $-1 $57 $161 $59 $108 reversed $104 $-1 #
loop $-1 $-1 $102 $163 #
vertex $-1 $58 $164 #
ellipse-curve $-1 0 0 0 0 0 1 -0.89999999999999991 7.848566748139433 0 1 I I #
coedge $-1 $60 $59 $165 $166 reversed $61 $-1 #
edge $-1 $63 0 $167 0.01 $103 $168 forward 7 unknown #
edge $-1 $62 0 $169 0.01 $94 $170 forward 7 unknown #
face $-1 $163 $61 $2 $-1 $171 forward single #
point $-1 -0.89999999999999991 9.5 0 #
point $-1 -0.89999999999999991 7.848566748139433 0 #
face $-1 $172 $173 $2 $-1 $174 forward single #
loop $-1 $-1 $175 $68 #
plane-surface $-1 10.5 -9.5 0 1 0 0 0 1 0 forward_v I I I I #
coedge $-1 $176 $156 $177 $178 forward $69 $-1 #
coedge $-1 $158 $71 $73 $123 reversed $40 $-1 #
coedge $-1 $156 $176 $71 $119 reversed $69 $-1 #
edge $-1 $159 0 $179 0.01 $71 $180 forward 7 unknown #
coedge $-1 $181 $182 $183 $184 forward $72 $-1 #
coedge $-1 $185 $73 $176 $186 forward $42 $-1 #
coedge $-1 $73 $165 $161 $187 forward $42 $-1 #
edge $-1 $188 0 $179 1.651433251860567 $73 $189 forward 7 unknown #
ellipse-curve $-1 10.999999999999998 -0.999999999999999 0.01 0 0 -1 1.2000000000000011 -9.9920072216264089e-016 0 1 I I #
point $-1 9.7999999999999989 -1 0.01 #
coedge $-1 $190 $191 $80 $127 forward $192 $-1 #
edge $-1 $136 0 $131 1.5912059069690707 $80 $193 forward 7 unknown #
coedge $-1 $194 $81 $86 $140 forward $130 $-1 #
coedge $-1 $81 $194 $190 $195 reversed $130 $-1 #
loop $-1 $-1 $128 $196 #
vertex $-1 $127 $197 #
straight-curve $-1 2.4494897427831779 -2.5 0 -1 0 0 I I #
coedge $-1 $198 $83 $191 $199 forward $135 $-1 #
coedge $-1 $83 $198 $85 $139 reversed $135 $-1 #
loop $-1 $-1 $133 $200 #
vertex $-1 $84 $201 #
straight-curve $-1 -2.4494897427831783 2.5 0 1 0 0 I I #
coedge $-1 $86 $85 $202 $203 reversed $87 $-1 #
edge $-1 $89 1.1832913578315177e-028 $204 0.01 $134 $205 forward 7 unknown #
edge $-1 $88 0 $206 0.01 $128 $207 forward 7 unknown #
face $-1 $200 $87 $2 $-1 $208 reversed single #
point $-1 -2.4494897427831779 -2.5 0 #
point $-1 -2.4494897427831783 2.5 0 #
coedge $-1 $99 $91 $209 $210 reversed $10 $-1 #
coedge $-1 $211 $212 $91 $146 forward $173 $-1 #
edge $-1 $213 0 $150 3.5443084951704544 $91 $214 forward 7 unknown #
coedge $-1 $215 $92 $95 $153 forward $149 $-1 #
coedge $-1 $92 $215 $211 $216 reversed $149 $-1 #
loop $-1 $-1 $147 $172 #
vertex $-1 $146 $217 #
straight-curve $-1 10.5 1.4494897427831783 0 0 1 0 I I #
coedge $-1 $95 $94 $218 $219 reversed $96 $-1 #
edge $-1 $97 0 $220 0.01 $147 $221 forward 7 unknown #
face $-1 $110 $96 $2 $-1 $222 forward single #
point $-1 10.5 9.5 0 #
coedge $-1 $116 $118 $99 $157 forward $69 $-1 #
edge $-1 $159 0 $223 11.4 $99 $224 forward 7 unknown #
coedge $-1 $100 $117 $102 $162 reversed $40 $-1 #
vertex $-1 $101 $225 #
straight-curve $-1 -0.89999999999999991 -7.848566748139433 0 0 -1 0 I I #
coedge $-1 $103 $102 $122 $187 reversed $104 $-1 #
edge $-1 $105 1.9721522630525295e-029 $188 0.01 $102 $226 forward 7 unknown #
face $-1 $227 $104 $2 $-1 $228 forward single #
point $-1 -0.89999999999999991 -7.848566748139433 0 #
coedge $-1 $122 $218 $107 $166 forward $42 $-1 #
edge $-1 $169 0 $167 1.651433251860567 $165 $229 forward 7 unknown #
vertex $-1 $187 $230 #
straight-curve $-1 -0.89999999999999991 7.848566748139433 0 0 0 1 I I #
vertex $-1 $166 $231 #
straight-curve $-1 -0.90000000000000036 9.5 0 0 0 1 I I #
plane-surface $-1 -0.89999999999999991 9.5 0 -1 0 0 0 -1 0 forward_v I I I I #
face $-1 $154 $149 $2 $-1 $232 forward single #
loop $-1 $-1 $211 $113 #
cone-surface $-1 11 -1 0 0 0 1 2.5 0 0 1 I I 0 1 2.5 forward I I I I #
coedge $-1 $233 $209 $212 $234 forward $114 $-1 #
coedge $-1 $118 $116 $121 $186 reversed $69 $-1 #
coedge $-1 $209 $233 $116 $178 reversed $114 $-1 #
edge $-1 $223 0 $235 0.01 $116 $236 forward 7 unknown #
vertex $-1 $186 $237 #
straight-curve $-1 -0.89999999999999991 -9.5 0 0 0 1 I I #
coedge $-1 $202 $120 $194 $238 forward $72 $-1 #
coedge $-1 $120 $202 $198 $239 forward $72 $-1 #
coedge $-1 $191 $190 $120 $184 reversed $192 $-1 #
edge $-1 $240 0 $241 1.5912059069690709 $120 $242 forward 7 unknown #
coedge $-1 $243 $121 $233 $244 forward $42 $-1 #
edge $-1 $179 0 $235 11.4 $121 $245 forward 7 unknown #
edge $-1 $167 0 $188 2.9132487897544617 $122 $246 forward 7 unknown #
vertex $-1 $187 $247 #
straight-curve $-1 -0.89999999999999991 -7.848566748139433 0.01 0 -1 0 I I #
coedge $-1 $183 $126 $129 $195 forward $192 $-1 #
coedge $-1 $126 $183 $133 $199 reversed $192 $-1 #
loop $-1 $-1 $190 $227 #
ellipse-curve $-1 0 0 0 0 0 -1 2.4494897427831779 2.5 0 1 I I #
coedge $-1 $129 $128 $181 $238 reversed $130 $-1 #
edge $-1 $131 1.5777218104420236e-028 $241 0.01 $190 $248 forward 7 unknown #
face $-1 $141 $130 $2 $-1 $249 forward single #
point $-1 2.4494897427831779 -2.5 0 #
coedge $-1 $134 $133 $182 $239 reversed $135 $-1 #
edge $-1 $136 0 $240 0.01 $133 $250 forward 7 unknown #
face $-1 $-1 $135 $2 $-1 $251 forward single #
point $-1 2.4494897427831779 2.5 0 #
coedge $-1 $182 $181 $138 $203 forward $72 $-1 #
edge $-1 $206 3.625218039592348e-016 $204 1.5912059069690707 $202 $252 forward 7 unknown #
vertex $-1 $239 $253 #
straight-curve $-1 -2.4494897427831774 2.5000000000000009 0 -4.4408920985006262e-014 -8.8817841970012523e-014 1 I I #
vertex $-1 $203 $254 #
straight-curve $-1 -2.4494897427831788 -2.5 0 0 0 1 I I #
cone-surface $-1 0 0 0 0 0 1 3.5 0 0 1 I I 0 1 3.5 forward I I I I #
coedge $-1 $175 $177 $144 $210 forward $114 $-1 #
edge $-1 $223 0 $213 6.0505102572168221 $144 $255 forward 7 unknown #
coedge $-1 $256 $145 $148 $216 forward $173 $-1 #
coedge $-1 $145 $256 $175 $234 reversed $173 $-1 #
vertex $-1 $210 $257 #
ellipse-curve $-1 11 -1 0 0 0 1 -0.5 -2.4494897427831779 0 1 I I #
coedge $-1 $148 $147 $258 $259 reversed $149 $-1 #
edge $-1 $150 0 $260 0.01 $211 $261 forward 7 unknown #
point $-1 10.5 1.4494897427831783 0 #
coedge $-1 $165 $258 $152 $219 forward $42 $-1 #
edge $-1 $220 0 $169 11.4 $218 $262 forward 7 unknown #
vertex $-1 $219 $263 #
straight-curve $-1 10.5 9.5 0 0 0 1 I I #
plane-surface $-1 10.5 9.5 0 0 1 0 -1 0 0 forward_v I I I I #
vertex $-1 $157 $264 #
straight-curve $-1 -0.89999999999999991 -9.5 0 1 0 0 I I #
point $-1 -0.89999999999999991 -9.5 0 #
straight-curve $-1 -0.89999999999999947 -7.848566748139433 0 -4.4408920985006262e-014 0 1 I I #
face $-1 $196 $192 $2 $-1 $265 reversed single #
cone-surface $-1 0 0 0 0 0 1 7.8999999999999995 0 0 1 I I 0 1 7.8999999999999995 forward I I I I #
straight-curve $-1 -0.89999999999999991 9.5 0.01 0 -1 0 I I #
point $-1 -0.89999999999999991 7.848566748139433 0.01 #
point $-1 -0.89999999999999991 9.5 0.01 #
plane-surface $-1 10.5 1.4494897427831779 0 1 0 0 0 1 0 forward_v I I I I #
coedge $-1 $177 $175 $185 $244 reversed $114 $-1 #
edge $-1 $213 0 $266 0.01 $175 $267 forward 7 unknown #
vertex $-1 $244 $268 #
straight-curve $-1 10.5 -9.5 0 0 0 1 I I #
point $-1 -0.89999999999999991 -9.5 0.01 #
edge $-1 $241 0 $206 4.8989794855663567 $181 $269 forward 7 unknown #
edge $-1 $204 0 $240 4.8989794855663558 $182 $270 forward 7 unknown #
vertex $-1 $239 $271 #
vertex $-1 $238 $272 #
ellipse-curve $-1 4.4408920985006262e-016 0 0.01 0 0 -1 2.4494897427831774 2.5 0 1 I I #
coedge $-1 $258 $185 $256 $273 forward $42 $-1 #
edge $-1 $235 0 $266 6.0505102572168221 $185 $274 forward 7 unknown #
straight-curve $-1 -0.89999999999999991 -9.5 0.01 1 0 0 I I #
ellipse-curve $-1 -4.4408920985006262e-016 -2.2204460492503131e-016 0.01 0 0 1 -0.89999999999999947 7.848566748139433 0 1 I I #
point $-1 -0.89999999999999991 -7.848566748139433 0.01 #
straight-curve $-1 2.449489742783177 -2.5000000000000009 0 8.8817841970012523e-014 8.8817841970012523e-014 1 I I #
plane-surface $-1 2.4494897427831779 -2.5 0 0 1 0 -1 0 0 forward_v I I I I #
straight-curve $-1 2.4494897427831779 2.5 0 0 0 1 I I #
plane-surface $-1 -2.4494897427831779 2.5 0 0 -1 0 1 0 0 forward_v I I I I #
ellipse-curve $-1 -2.2204460492503131e-016 1.1102230246251565e-016 0.01 0 0 -1 -2.4494897427831779 -2.5 0 1 I I #
point $-1 -2.4494897427831783 2.5 0.01 #
point $-1 -2.4494897427831788 -2.4999999999999991 0.01 #
straight-curve $-1 10.5 -9.5 0 0 1 0 I I #
coedge $-1 $212 $211 $243 $273 reversed $173 $-1 #
point $-1 10.5 -3.4494897427831779 0 #
coedge $-1 $218 $243 $215 $259 forward $42 $-1 #
edge $-1 $260 -4.4408920985006262e-016 $220 8.0505102572168212 $258 $275 forward 7 unknown #
vertex $-1 $259 $276 #
straight-curve $-1 10.5 1.4494897427831779 0 0 0 1 I I #
straight-curve $-1 10.5 9.5 0.01 -1 0 0 I I #
point $-1 10.5 9.5 0.01 #
point $-1 10.5 -9.5 0 #
cone-surface $-1 0 0 0 0 0 1 3.5 0 0 1 I I 0 1 3.5 forward I I I I #
vertex $-1 $273 $277 #
straight-curve $-1 10.5 -3.4494897427831779 0 0 0 1 I I #
point $-1 10.5 -9.5 0.01 #
straight-curve $-1 2.4494897427831779 -2.5 0.01 -1 0 0 I I #
straight-curve $-1 -2.4494897427831783 2.5 0.01 1 0 0 I I #
point $-1 2.4494897427831779 2.5 0.01 #
point $-1 2.4494897427831779 -2.5 0.01 #
edge $-1 $266 0 $260 3.5443084951704544 $243 $278 forward 7 unknown #
straight-curve $-1 10.5 -9.5 0.01 0 1 0 I I #
straight-curve $-1 10.5 1.4494897427831783 0.01 0 1 0 I I #
point $-1 10.5 1.4494897427831779 0.01 #
point $-1 10.5 -3.4494897427831779 0.01 #
ellipse-curve $-1 11 -0.99999999999999989 0.01 0 0 1 -0.5 -2.4494897427831779 0 1 I I #
End-of-ACIS-data 