700 0 2 0           
24 FBMach with ACIS - 7.0.3 13 ACIS 7.0.3 NT 24 Wed May 15 18:04:29 2002 
1 9.9999999999999995e-007 1e-010 
body $2 -1 $-1 $3 $-1 $4 #
bdycol-kcp $-1 -1 1 3 $5 $6 $7 #
model_id-kcp-attrib $-1 -1 $-1 $-1 $0 1 1021500268 1021500269 -530776063 1 #
lump $-1 -1 $-1 $-1 $8 $0 #
transform $-1 -1 1 0 0 0 1 0 0 0 1 0 0 0 1 rotate no_reflect no_shear #
body $9 -1 $-1 $10 $-1 $11 #
body $12 -1 $-1 $13 $-1 $14 #
body $15 -1 $-1 $16 $-1 $17 #
shell $-1 -1 $-1 $-1 $-1 $18 $-1 $3 #
model_id-kcp-attrib $-1 -1 $-1 $-1 $5 1 1021500268 1021500269 -530776062 1 #
lump $-1 -1 $-1 $-1 $19 $5 #
transform $-1 -1 1 0 0 0 1 0 0 0 1 0 0 -2 1 no_rotate no_reflect no_shear #
rgb_color-st-attrib $-1 -1 $20 $-1 $6 0.5 1 1 #
lump $-1 -1 $-1 $-1 $21 $6 #
transform $-1 -1 1 0 0 0 1 0 0 0 1 0 0 -2 1 no_rotate no_reflect no_shear #
rgb_color-st-attrib $-1 -1 $22 $-1 $7 0.5 0.5 1 #
lump $-1 -1 $-1 $-1 $23 $7 #
transform $-1 -1 1 0 0 0 1 0 0 0 1 0 0 -2 1 no_rotate no_reflect no_shear #
face $24 -1 $-1 $25 $26 $8 $-1 $27 forward single #
shell $-1 -1 $-1 $-1 $-1 $28 $-1 $10 #
model_id-kcp-attrib $-1 -1 $-1 $12 $6 1 1021500268 1021500269 -528809981 1 #
shell $-1 -1 $-1 $-1 $-1 $29 $-1 $13 #
model_id-kcp-attrib $-1 -1 $-1 $15 $7 1 1021500268 1021500269 -524222460 1 #
shell $-1 -1 $-1 $-1 $-1 $30 $-1 $16 #
model_id-kcp-attrib $-1 -1 $-1 $-1 $18 1 1021500268 1021500269 -530776063 2 #
face $31 -1 $-1 $32 $33 $8 $-1 $27 forward single #
loop $-1 -1 $-1 $-1 $34 $18 #
sphere-surface $-1 -1 $-1 0 0 -2 9 1 0 0 0 0 1 forward_v I I I I #
face $-1 -1 $-1 $35 $36 $19 $-1 $37 forward single #
face $-1 -1 $-1 $38 $39 $21 $-1 $40 reversed single #
face $-1 -1 $-1 $41 $42 $23 $-1 $43 reversed single #
model_id-kcp-attrib $-1 -1 $-1 $-1 $25 1 1021500268 1021500269 -530776063 3 #
face $44 -1 $-1 $45 $46 $8 $-1 $47 forward single #
loop $-1 -1 $-1 $-1 $48 $25 #
coedge $-1 -1 $-1 $49 $50 $51 $52 reversed $26 $-1 #
face $-1 -1 $-1 $53 $54 $19 $-1 $55 reversed single #
loop $-1 -1 $-1 $-1 $56 $28 #
plane-surface $-1 -1 $-1 0 0 9 0 0 1 1 0 0 forward_v I I I I #
face $-1 -1 $-1 $57 $58 $21 $-1 $59 forward single #
loop $-1 -1 $-1 $60 $61 $29 #
cone-surface $-1 -1 $-1 9.2791507162744754e-032 0 2 0 0 -1 -8.25 1.0103002419034612e-015 0 1 I I 0 1 8.25 forward I I I I #
face $-1 -1 $-1 $62 $63 $23 $-1 $64 forward single #
loop $-1 -1 $-1 $-1 $65 $30 #
plane-surface $-1 -1 $-1 0 0 2 0 0 -1 1 0 0 forward_v I I I I #
model_id-kcp-attrib $-1 -1 $-1 $-1 $32 1 1021500268 1021500269 -530776063 4 #
face $66 -1 $-1 $67 $68 $8 $-1 $69 forward single #
loop $-1 -1 $-1 $-1 $70 $32 #
cone-surface $-1 -1 $-1 0 0 7.3499999999999996 0 0 -1 8.25 0 0 1 I I 0 1 8.25 forward I I I I #
coedge $-1 -1 $-1 $51 $71 $72 $73 forward $33 $-1 #
coedge $-1 -1 $-1 $50 $34 $74 $75 reversed $26 $-1 #
coedge $-1 -1 $-1 $34 $49 $71 $76 forward $26 $-1 #
coedge $-1 -1 $-1 $71 $48 $34 $52 forward $33 $-1 #
edge $-1 -1 $-1 $77 -3.50885301609926e-016 $78 1.1596584644725485 $34 $79 forward @7 unknown #
face $-1 -1 $-1 $80 $81 $19 $-1 $82 reversed single #
loop $-1 -1 $-1 $-1 $83 $35 #
plane-surface $-1 -1 $-1 0 0 -9 0 0 1 1 0 0 forward_v I I I I #
coedge $-1 -1 $-1 $84 $85 $86 $87 forward $36 $-1 #
face $-1 -1 $-1 $88 $89 $21 $-1 $90 reversed single #
loop $-1 -1 $-1 $91 $92 $38 #
plane-surface $-1 -1 $-1 0 0 9 0 0 1 1 0 0 forward_v I I I I #
loop $-1 -1 $-1 $-1 $93 $29 #
coedge $-1 -1 $-1 $61 $61 $92 $94 reversed $39 $-1 #
face $-1 -1 $-1 $-1 $95 $23 $-1 $96 reversed single #
loop $-1 -1 $-1 $97 $98 $41 #
cone-surface $-1 -1 $-1 9.2791507162744754e-032 0 2 0 0 -1 -8.25 1.0103002419034612e-015 0 1 I I 0 1 8.25 forward I I I I #
coedge $-1 -1 $-1 $65 $65 $99 $100 forward $42 $-1 #
model_id-kcp-attrib $-1 -1 $-1 $-1 $45 1 1021500268 1021500269 -530776063 5 #
face $101 -1 $-1 $-1 $102 $8 $-1 $47 forward single #
loop $-1 -1 $-1 $-1 $103 $45 #
plane-surface $-1 -1 $-1 0 0 0 0 0 -1 1 0 0 forward_v I I I I #
coedge $-1 -1 $-1 $104 $105 $106 $107 forward $46 $-1 #
coedge $-1 -1 $-1 $48 $51 $50 $76 reversed $33 $-1 #
coedge $-1 -1 $-1 $105 $104 $48 $73 reversed $46 $-1 #
edge $-1 -1 $-1 $108 -3.1415926535897931 $77 -2.4492127076447545e-016 $48 $109 forward @7 unknown #
coedge $-1 -1 $-1 $110 $111 $49 $75 forward $102 $-1 #
edge $-1 -1 $-1 $108 -3.1415926535897931 $77 2.4492127076447545e-016 $49 $112 reversed @7 unknown #
edge $-1 -1 $-1 $108 -3.50885301609926e-016 $78 1.1596584644725487 $50 $113 forward @7 unknown #
vertex $-1 -1 $-1 $75 $114 #
vertex $-1 -1 $-1 $76 $115 #
ellipse-curve $-1 -1 $-1 0 0 -2 -2.4492127076447545e-016 -1 -5.8434141127482364e-032 8.2499999999999982 -2.0206004838069221e-015 3.5968736424845424 1 I I #
face $-1 -1 $-1 $116 $117 $19 $-1 $118 reversed single #
loop $-1 -1 $-1 $-1 $119 $53 #
plane-surface $-1 -1 $-1 0 -9 0 0 1 0 0 0 1 forward_v I I I I #
coedge $-1 -1 $-1 $120 $121 $122 $123 forward $54 $-1 #
coedge $-1 -1 $-1 $124 $56 $125 $126 forward $36 $-1 #
coedge $-1 -1 $-1 $56 $124 $127 $128 forward $36 $-1 #
coedge $-1 -1 $-1 $129 $130 $56 $87 reversed $131 $-1 #
edge $-1 -1 $-1 $132 -9 $133 9 $86 $134 forward @7 unknown #
face $-1 -1 $-1 $135 $136 $21 $-1 $137 reversed single #
loop $-1 -1 $-1 $138 $139 $57 #
plane-surface $-1 -1 $-1 0 0 -9 0 0 1 1 0 0 forward_v I I I I #
loop $-1 -1 $-1 $-1 $140 $38 #
coedge $-1 -1 $-1 $92 $92 $61 $94 forward $58 $-1 #
coedge $-1 -1 $-1 $93 $93 $139 $141 reversed $60 $-1 #
edge $-1 -1 $-1 $142 -3.1415926535897931 $142 3.1415926535897931 $92 $143 forward @7 unknown #
loop $-1 -1 $-1 $-1 $144 $62 #
plane-surface $-1 -1 $-1 0 0 -9 0 0 1 1 0 0 forward_v I I I I #
loop $-1 -1 $-1 $-1 $99 $41 #
coedge $-1 -1 $-1 $98 $98 $144 $145 reversed $63 $-1 #
coedge $-1 -1 $-1 $99 $99 $65 $100 reversed $97 $-1 #
edge $146 -1 $-1 $147 -3.1415926535897931 $147 3.1415926535897931 $99 $148 forward @7 unknown #
model_id-kcp-attrib $-1 -1 $-1 $-1 $67 1 1021500268 1021500269 -530776063 6 #
loop $-1 -1 $-1 $-1 $74 $67 #
coedge $-1 -1 $-1 $106 $106 $149 $150 forward $68 $-1 #
coedge $-1 -1 $-1 $72 $70 $110 $151 forward $46 $-1 #
coedge $-1 -1 $-1 $70 $72 $111 $152 reversed $46 $-1 #
coedge $-1 -1 $-1 $103 $103 $70 $107 reversed $68 $-1 #
edge $153 -1 $-1 $154 -3.1415926535897931 $155 -2.4492127076447545e-016 $106 $156 reversed @7 unknown #
vertex $-1 -1 $-1 $76 $157 #
ellipse-curve $-1 -1 $-1 0 0 1.5968736424845398 0 0 1 8.25 0 0 1 I I #
coedge $-1 -1 $-1 $149 $74 $104 $151 reversed $102 $-1 #
coedge $-1 -1 $-1 $74 $149 $105 $152 forward $102 $-1 #
ellipse-curve $-1 -1 $-1 0 0 1.5968736424845398 0 0 1 8.25 0 0 1 I I #
ellipse-curve $-1 -1 $-1 0 0 -2 1.2246063538223773e-016 1 -2.9217070563741182e-032 -8.2499999999999982 1.010300241903461e-015 3.5968736424845424 1 I I #
point $-1 -1 $-1 8.25 -2.0206004838069225e-015 1.5968736424845398 #
point $-1 -1 $-1 1.6532185776602093e-015 -2.0245419744598855e-031 7 #
face $-1 -1 $-1 $158 $159 $19 $-1 $160 reversed single #
loop $-1 -1 $-1 $-1 $161 $80 #
plane-surface $-1 -1 $-1 -9 0 0 1 0 0 0 0 -1 forward_v I I I I #
coedge $-1 -1 $-1 $162 $127 $163 $164 forward $81 $-1 #
coedge $-1 -1 $-1 $165 $83 $162 $166 forward $54 $-1 #
coedge $-1 -1 $-1 $83 $165 $167 $168 forward $54 $-1 #
coedge $-1 -1 $-1 $130 $129 $83 $123 reversed $131 $-1 #
edge $-1 -1 $-1 $169 -9 $170 9 $122 $171 forward @7 unknown #
coedge $-1 -1 $-1 $85 $84 $172 $173 forward $36 $-1 #
coedge $-1 -1 $-1 $174 $175 $84 $126 reversed $159 $-1 #
edge $-1 -1 $-1 $133 -9 $176 9 $125 $177 forward @7 unknown #
coedge $-1 -1 $-1 $119 $178 $85 $128 reversed $81 $-1 #
edge $-1 -1 $-1 $179 -9 $132 9 $127 $180 forward @7 unknown #
coedge $-1 -1 $-1 $122 $86 $178 $181 forward $131 $-1 #
coedge $-1 -1 $-1 $86 $122 $174 $182 reversed $131 $-1 #
loop $-1 -1 $-1 $-1 $129 $158 #
vertex $-1 -1 $-1 $87 $183 #
vertex $-1 -1 $-1 $87 $184 #
straight-curve $-1 -1 $-1 9 0 9 0 1 0 I I #
face $-1 -1 $-1 $185 $186 $21 $-1 $187 reversed single #
loop $-1 -1 $-1 $-1 $188 $88 #
plane-surface $-1 -1 $-1 0 -9 0 0 1 0 0 0 1 forward_v I I I I #
loop $-1 -1 $-1 $-1 $189 $57 #
coedge $-1 -1 $-1 $139 $139 $93 $141 forward $89 $-1 #
coedge $-1 -1 $-1 $190 $191 $192 $193 forward $91 $-1 #
edge $-1 -1 $-1 $194 -3.1415926535897931 $194 3.1415926535897931 $139 $195 forward @7 unknown #
vertex $-1 -1 $-1 $94 $196 #
ellipse-curve $-1 -1 $-1 9.2791507162744754e-032 0 9 0 0 -1 -8.25 1.0103002419034612e-015 0 1 I I #
coedge $-1 -1 $-1 $144 $144 $98 $145 forward $95 $-1 #
edge $-1 -1 $-1 $197 -3.1415926535897931 $197 3.1415926535897931 $144 $198 forward @7 unknown #
convexity-sys-attrib $-1 -1 $-1 $-1 $100 #
vertex $-1 -1 $-1 $100 $199 #
ellipse-curve $-1 -1 $-1 9.2791507162744754e-032 0 2 0 0 1 -8.25 1.0103002419034612e-015 0 1 I I #
coedge $-1 -1 $-1 $111 $110 $103 $150 reversed $102 $-1 #
edge $200 -1 $-1 $154 -3.1415926535897931 $155 2.4492127076447545e-016 $103 $201 forward @7 unknown #
edge $-1 -1 $-1 $155 0 $77 1.5968736424845398 $110 $202 forward @7 unknown #
edge $-1 -1 $-1 $154 0 $108 1.5968736424845398 $111 $203 forward @7 unknown #
attrib_edge_convexity-kcp-attrib $-1 -1 $204 $-1 $107 1 #
vertex $-1 -1 $-1 $107 $205 #
vertex $-1 -1 $-1 $107 $206 #
ellipse-curve $-1 -1 $-1 0 0 0 0 0 -1 8.25 0 0 1 I I #
point $-1 -1 $-1 -8.25 1.0103002419034612e-015 1.5968736424845398 #
face $-1 -1 $-1 $-1 $131 $19 $-1 $207 reversed single #
loop $-1 -1 $-1 $-1 $174 $116 #
plane-surface $-1 -1 $-1 0 9 0 0 -1 0 0 0 -1 forward_v I I I I #
coedge $-1 -1 $-1 $208 $172 $175 $209 forward $117 $-1 #
coedge $-1 -1 $-1 $178 $119 $120 $166 reversed $81 $-1 #
coedge $-1 -1 $-1 $172 $208 $119 $164 reversed $117 $-1 #
edge $-1 -1 $-1 $179 -9 $210 9 $163 $211 forward @7 unknown #
coedge $-1 -1 $-1 $121 $120 $208 $212 forward $54 $-1 #
edge $-1 -1 $-1 $170 -9 $210 9 $162 $213 forward @7 unknown #
coedge $-1 -1 $-1 $175 $174 $121 $168 reversed $159 $-1 #
edge $-1 -1 $-1 $214 -9 $169 9 $167 $215 forward @7 unknown #
vertex $-1 -1 $-1 $123 $216 #
vertex $-1 -1 $-1 $181 $217 #
straight-curve $-1 -1 $-1 9 0 -9 0 -1 0 I I #
coedge $-1 -1 $-1 $161 $163 $124 $173 reversed $117 $-1 #
edge $-1 -1 $-1 $176 -9 $179 9 $172 $218 forward @7 unknown #
coedge $-1 -1 $-1 $167 $125 $130 $182 forward $159 $-1 #
coedge $-1 -1 $-1 $125 $167 $161 $209 reversed $159 $-1 #
vertex $-1 -1 $-1 $126 $219 #
straight-curve $-1 -1 $-1 0 9 9 -1 0 0 I I #
coedge $-1 -1 $-1 $127 $162 $129 $181 reversed $81 $-1 #
vertex $-1 -1 $-1 $173 $220 #
straight-curve $-1 -1 $-1 0 -9 9 1 0 0 I I #
edge $-1 -1 $-1 $132 -9 $170 9 $129 $221 forward @7 unknown #
edge $-1 -1 $-1 $133 -9 $169 9 $130 $222 forward @7 unknown #
point $-1 -1 $-1 9 -9 9 #
point $-1 -1 $-1 9 9 9 #
face $-1 -1 $-1 $223 $224 $21 $-1 $225 reversed single #
loop $-1 -1 $-1 $-1 $226 $135 #
plane-surface $-1 -1 $-1 -9 0 0 1 0 0 0 0 -1 forward_v I I I I #
coedge $-1 -1 $-1 $227 $228 $229 $230 forward $136 $-1 #
coedge $-1 -1 $-1 $231 $232 $233 $234 forward $138 $-1 #
coedge $-1 -1 $-1 $235 $140 $236 $237 forward $91 $-1 #
coedge $-1 -1 $-1 $140 $235 $228 $238 forward $91 $-1 #
coedge $-1 -1 $-1 $239 $240 $140 $193 reversed $241 $-1 #
edge $-1 -1 $-1 $242 -9 $243 9 $192 $244 forward @7 unknown #
vertex $-1 -1 $-1 $141 $245 #
ellipse-curve $-1 -1 $-1 9.2791507162744754e-032 0 -9 0 0 1 -8.25 1.0103002419034612e-015 0 1 I I #
point $-1 -1 $-1 8.25 -2.0206004838069225e-015 9 #
vertex $-1 -1 $-1 $145 $246 #
ellipse-curve $-1 -1 $-1 9.2791507162744754e-032 0 -9 0 0 -1 -8.25 1.0103002419034612e-015 0 1 I I #
point $-1 -1 $-1 8.25 0 2 #
attrib_edge_convexity-kcp-attrib $-1 -1 $247 $-1 $150 1 #
ellipse-curve $-1 -1 $-1 0 0 0 0 0 -1 8.25 0 0 1 I I #
straight-curve $-1 -1 $-1 8.25 -2.0206004838069225e-015 0 0 0 1 I I #
straight-curve $-1 -1 $-1 -8.25 1.0103002419034612e-015 0 0 0 1 I I #
convexity-sys-attrib $-1 -1 $-1 $153 $107 #
point $-1 -1 $-1 -8.25 1.0103002419034612e-015 0 #
point $-1 -1 $-1 8.25 -2.0206004838069225e-015 0 #
plane-surface $-1 -1 $-1 9 0 0 -1 0 0 0 0 1 forward_v I I I I #
coedge $-1 -1 $-1 $163 $161 $165 $212 reversed $117 $-1 #
edge $-1 -1 $-1 $176 -9 $214 9 $175 $248 forward @7 unknown #
vertex $-1 -1 $-1 $212 $249 #
straight-curve $-1 -1 $-1 -9 -9 0 0 0 -1 I I #
edge $-1 -1 $-1 $210 -9 $214 9 $208 $250 forward @7 unknown #
straight-curve $-1 -1 $-1 0 -9 -9 -1 0 0 I I #
vertex $-1 -1 $-1 $168 $251 #
straight-curve $-1 -1 $-1 0 9 -9 1 0 0 I I #
point $-1 -1 $-1 9 9 -9 #
point $-1 -1 $-1 9 -9 -9 #
straight-curve $-1 -1 $-1 -9 0 9 0 -1 0 I I #
point $-1 -1 $-1 -9 9 9 #
point $-1 -1 $-1 -9 -9 9 #
straight-curve $-1 -1 $-1 9 -9 0 0 0 -1 I I #
straight-curve $-1 -1 $-1 9 9 0 0 0 -1 I I #
face $-1 -1 $-1 $-1 $241 $21 $-1 $252 reversed single #
loop $-1 -1 $-1 $-1 $253 $185 #
plane-surface $-1 -1 $-1 0 9 0 0 -1 0 0 0 -1 forward_v I I I I #
coedge $-1 -1 $-1 $254 $255 $256 $257 forward $186 $-1 #
coedge $-1 -1 $-1 $258 $188 $231 $259 reversed $136 $-1 #
coedge $-1 -1 $-1 $188 $258 $191 $238 reversed $136 $-1 #
coedge $-1 -1 $-1 $255 $254 $188 $230 reversed $186 $-1 #
edge $-1 -1 $-1 $260 -9 $261 9 $229 $262 forward @7 unknown #
coedge $-1 -1 $-1 $263 $189 $227 $259 forward $138 $-1 #
coedge $-1 -1 $-1 $189 $263 $264 $265 forward $138 $-1 #
coedge $-1 -1 $-1 $240 $239 $189 $234 reversed $241 $-1 #
edge $-1 -1 $-1 $266 -9 $267 9 $233 $268 forward @7 unknown #
coedge $-1 -1 $-1 $191 $190 $255 $269 forward $91 $-1 #
coedge $-1 -1 $-1 $253 $256 $190 $237 reversed $224 $-1 #
edge $-1 -1 $-1 $243 -9 $270 9 $236 $271 forward @7 unknown #
edge $-1 -1 $-1 $260 -9 $242 9 $228 $272 forward @7 unknown #
coedge $-1 -1 $-1 $233 $192 $258 $273 forward $241 $-1 #
coedge $-1 -1 $-1 $192 $233 $253 $274 reversed $241 $-1 #
loop $-1 -1 $-1 $-1 $239 $223 #
vertex $-1 -1 $-1 $193 $275 #
vertex $-1 -1 $-1 $193 $276 #
straight-curve $-1 -1 $-1 9 0 9 0 1 0 I I #
point $-1 -1 $-1 8.25 0 -9 #
point $-1 -1 $-1 8.25 0 -9 #
convexity-sys-attrib $-1 -1 $-1 $200 $150 #
straight-curve $-1 -1 $-1 -9 9 0 0 0 -1 I I #
point $-1 -1 $-1 -9 -9 -9 #
straight-curve $-1 -1 $-1 -9 0 -9 0 1 0 I I #
point $-1 -1 $-1 -9 9 -9 #
plane-surface $-1 -1 $-1 9 0 0 -1 0 0 0 0 1 forward_v I I I I #
coedge $-1 -1 $-1 $264 $236 $240 $274 forward $224 $-1 #
coedge $-1 -1 $-1 $229 $226 $263 $277 reversed $186 $-1 #
coedge $-1 -1 $-1 $226 $229 $235 $269 reversed $186 $-1 #
coedge $-1 -1 $-1 $236 $264 $226 $257 reversed $224 $-1 #
edge $-1 -1 $-1 $270 -9 $278 9 $256 $279 forward @7 unknown #
coedge $-1 -1 $-1 $228 $227 $239 $273 reversed $136 $-1 #
edge $-1 -1 $-1 $267 -9 $261 9 $227 $280 forward @7 unknown #
vertex $-1 -1 $-1 $269 $281 #
vertex $-1 -1 $-1 $277 $282 #
straight-curve $-1 -1 $-1 -9 -9 0 0 0 -1 I I #
coedge $-1 -1 $-1 $232 $231 $254 $277 forward $138 $-1 #
coedge $-1 -1 $-1 $256 $253 $232 $265 reversed $224 $-1 #
edge $-1 -1 $-1 $278 -9 $266 9 $264 $283 forward @7 unknown #
vertex $-1 -1 $-1 $234 $284 #
vertex $-1 -1 $-1 $273 $285 #
straight-curve $-1 -1 $-1 9 0 -9 0 -1 0 I I #
edge $-1 -1 $-1 $270 -9 $260 9 $255 $286 forward @7 unknown #
vertex $-1 -1 $-1 $237 $287 #
straight-curve $-1 -1 $-1 0 9 9 -1 0 0 I I #
straight-curve $-1 -1 $-1 0 -9 9 1 0 0 I I #
edge $-1 -1 $-1 $242 -9 $267 9 $239 $288 forward @7 unknown #
edge $-1 -1 $-1 $243 -9 $266 9 $240 $289 forward @7 unknown #
point $-1 -1 $-1 9 -9 9 #
point $-1 -1 $-1 9 9 9 #
edge $-1 -1 $-1 $261 -9 $278 9 $254 $290 forward @7 unknown #
vertex $-1 -1 $-1 $265 $291 #
straight-curve $-1 -1 $-1 -9 9 0 0 0 -1 I I #
straight-curve $-1 -1 $-1 0 -9 -9 -1 0 0 I I #
point $-1 -1 $-1 -9 -9 9 #
point $-1 -1 $-1 -9 -9 -9 #
straight-curve $-1 -1 $-1 0 9 -9 1 0 0 I I #
point $-1 -1 $-1 9 9 -9 #
point $-1 -1 $-1 9 -9 -9 #
straight-curve $-1 -1 $-1 -9 0 9 0 -1 0 I I #
point $-1 -1 $-1 -9 9 9 #
straight-curve $-1 -1 $-1 9 -9 0 0 0 -1 I I #
straight-curve $-1 -1 $-1 9 9 0 0 0 -1 I I #
straight-curve $-1 -1 $-1 -9 0 -9 0 1 0 I I #
point $-1 -1 $-1 -9 9 -9 #
End-of-ACIS-data 