600 0 1 0           
97 GICL Pro/E ACIS Translator - Source: f:/data5/repository/PTC/V18/fly_small18/zoom_shaft.prt - 6 0 13 ACIS 6.0.3 NT 24 Thu Apr 04 10:01:33 2002 
1 9.9999999999999995e-007 1e-010 
body $-1 $1 $-1 $-1 #
lump $-1 $-1 $2 $0 #
shell $-1 $-1 $-1 $3 $-1 $1 #
face $-1 $4 $5 $2 $-1 $6 forward single #
face $-1 $7 $8 $2 $-1 $9 forward single #
loop $-1 $10 $11 $3 #
plane-surface $-1 0 0 -15 0 0 1 0 1 0 forward_v I I I I #
face $-1 $12 $13 $2 $-1 $14 forward single #
loop $-1 $-1 $15 $4 #
cone-surface $-1 0 0 -15 0 0 1 0 1.5 0 1 I I 0 1 1.5 forward I I I I #
loop $-1 $16 $17 $3 #
coedge $-1 $18 $19 $20 $21 reversed $5 $-1 #
face $-1 $22 $23 $2 $-1 $24 forward single #
loop $-1 $-1 $25 $7 #
cone-surface $-1 0 0 -15 0 0 1 0 1.5 0 1 I I 0 1 1.5 forward I I I I #
coedge $-1 $26 $27 $28 $29 forward $8 $-1 #
loop $-1 $-1 $30 $3 #
coedge $-1 $31 $31 $32 $33 reversed $10 $-1 #
coedge $-1 $34 $11 $35 $36 reversed $5 $-1 #
coedge $-1 $11 $37 $38 $39 reversed $5 $-1 #
coedge $-1 $40 $41 $11 $21 forward $8 $-1 #
edge $-1 $42 0 $43 0.99999999999999989 $11 $44 forward 7 unknown #
face $-1 $45 $46 $2 $-1 $47 forward single #
loop $-1 $-1 $48 $12 #
plane-surface $-1 1.3343547763125849 -0.68519875286795129 -15 0.88956985087505558 -0.45679916857863412 0 -0.45679916857863412 -0.88956985087505558 0 forward_v I I I I #
coedge $-1 $38 $49 $40 $50 forward $13 $-1 #
coedge $-1 $41 $15 $51 $52 reversed $8 $-1 #
coedge $-1 $15 $40 $53 $54 forward $8 $-1 #
coedge $-1 $49 $55 $15 $29 reversed $13 $-1 #
edge $-1 $56 0 $57 24 $15 $58 forward 7 unknown #
coedge $-1 $59 $59 $60 $61 forward $16 $-1 #
coedge $-1 $17 $17 $62 $63 reversed $10 $-1 #
coedge $-1 $64 $65 $17 $33 forward $66 $-1 #
edge $-1 $67 0 $68 3.1415926535897931 $17 $69 forward 7 unknown #
coedge $-1 $37 $18 $70 $71 reversed $5 $-1 #
coedge $-1 $72 $73 $18 $36 forward $74 $-1 #
edge $-1 $75 0 $42 0.99999999993593924 $18 $76 forward 7 unknown #
coedge $-1 $19 $34 $48 $77 reversed $5 $-1 #
coedge $-1 $78 $25 $19 $39 forward $13 $-1 #
edge $-1 $43 0 $79 1 $19 $80 forward 7 unknown #
coedge $-1 $27 $20 $25 $50 reversed $8 $-1 #
coedge $-1 $20 $26 $72 $81 forward $8 $-1 #
vertex $-1 $36 $82 #
vertex $-1 $39 $83 #
intcurve-curve $-1 forward { surfintcur full nurbs 3 open 11 
	0 3 0.099999188654310844 1 0.19999837525129607 1 0.2999976209334474 1 0.39999699742641226 1 
	0.49999657635277517 1 0.59999642917577456 1 0.69999662714333222 1 0.7999972412325046 1 0.8999980462359517 1 
	0.99999999999999989 3 
	-1.4626088979905392 0.33281323937144269 -15 1 
	-1.4475381257272615 0.39886751658124442 -15 1 
	-1.4089868611080252 0.52762425276989933 -15.000000000000002 1.0000000000000002 
	-1.3252712858730031 0.71227029628466387 -14.999999999999998 0.99999999999999978 
	-1.2176454731829256 0.88372828227554057 -15.000000000000002 0.99999999999999978 
	-1.0879339810253157 1.0392562551183779 -15.000000000000002 1 
	-0.93851581511046611 1.1759398500549756 -14.999999999999996 1 
	-0.77209337440111392 1.2913276999537326 -15 1.0000000000000002 
	-0.59165525001456321 1.3833235134941875 -15.000000000000002 1 
	-0.40056471867983545 1.4502500655155521 -15.000000000000002 1 
	-0.20191817995726585 1.4909276308898551 -14.999999999999996 1.0000000000000002 
	-0.067776202945194 1.4999578997189846 -15.000000000000002 1 
	0 1.5 -15 1 
	0.001 
	cone 0 0 -15 0 0 1 0 1.5 0 1 I I 0 1 1.5 forward I I I I 
	plane 0 0 -15 0 0 1 0 1 0 forward_v I I I I 
	nullbs 
	nullbs 
	I I 
	0 
	0 
	0 
	} I I #
face $-1 $84 $74 $2 $-1 $85 forward single #
loop $-1 $-1 $86 $22 #
cone-surface $-1 -1.3680805733026753 -3.7587704831436337 -15 0 0 -1 0 -1 0 1 I I 0 1 1 forward I I I I #
coedge $-1 $87 $88 $37 $77 forward $23 $-1 #
coedge $-1 $25 $28 $89 $90 forward $13 $-1 #
edge $-1 $91 0 $43 25 $40 $92 forward 7 unknown #
coedge $-1 $93 $94 $26 $52 forward $95 $-1 #
edge $-1 $96 0 $57 1.7945343460256971 $26 $97 forward 7 unknown #
coedge $-1 $89 $89 $27 $54 reversed $98 $-1 #
edge $-1 $91 0 $56 3.1415926535897931 $27 $99 forward 7 unknown #
coedge $-1 $28 $78 $93 $100 reversed $13 $-1 #
vertex $-1 $54 $101 #
vertex $-1 $52 $102 #
straight-curve $-1 -1.8369095307335659e-016 -1.5 -40 0 0 1 I I #
coedge $-1 $30 $30 $103 $104 forward $16 $-1 #
coedge $-1 $105 $106 $30 $61 reversed $107 $-1 #
edge $-1 $108 0 $109 3.1415926535897931 $30 $110 forward 7 unknown #
coedge $-1 $111 $112 $31 $63 forward $113 $-1 #
edge $-1 $68 0 $67 3.1415926535897931 $31 $114 forward 7 unknown #
coedge $-1 $115 $32 $112 $116 forward $66 $-1 #
coedge $-1 $32 $115 $111 $117 reversed $66 $-1 #
loop $-1 $-1 $64 $118 #
vertex $-1 $63 $119 #
vertex $-1 $63 $120 #
ellipse-curve $-1 -1.3680805733026753 -3.7587704831436337 -15 0 0 1 0 -0.5 0 1 I I #
coedge $-1 $86 $121 $34 $71 forward $46 $-1 #
edge $-1 $122 0 $75 2.8909369912536609 $34 $123 forward 7 unknown #
coedge $-1 $124 $35 $41 $81 reversed $74 $-1 #
coedge $-1 $35 $124 $86 $125 reversed $74 $-1 #
loop $-1 $-1 $124 $45 #
vertex $-1 $71 $126 #
intcurve-curve $-1 forward { surfintcur full nurbs 3 open 2 
	0 3 1 3 
	-2.3431554600091489 -3.5368944697614797 -15 1 
	-2.049639939336279 -2.2469919000505056 -15 1 
	-1.7561244186634091 -0.95708933033953136 -15 1 
	-1.4626088979905392 0.33281323937144269 -15 1 
	0.001 
	plane -2.343155460009148 -3.5368944697614766 -15 -0.97507488670647302 0.22187601338215668 0 0.22187601338215665 0.97507488670647291 0 forward_v I I I I 
	plane 0 0 -15 0 0 1 0 1 0 forward_v I I I I 
	nullbs 
	nullbs 
	I I 
	0 
	0 
	0 
	} I I #
edge $-1 $79 0 $122 1 $37 $127 forward 7 unknown #
coedge $-1 $55 $38 $88 $128 reversed $13 $-1 #
tvertex-vertex $-1 $39 $129 2.7849379785150453e-006 #
intcurve-curve $-1 forward { surfintcur full nurbs 3 open 16 
	0 3 0.066667410592903681 1 0.13333448446030199 1 0.20000149619690244 1 0.26666837580133318 1 
	0.33333513950530713 1 0.40000180359825049 1 0.46666838441927339 1 0.53333489834907799 1 0.60000136180181485 1 
	0.66666779121689801 1 0.733334203050788 1 0.80000061376875387 1 0.86666703983662352 1 0.93333349771253438 1 
	1 3 
	0 1.5 -15 1 
	0.068607608248863514 1.4999562067098837 -15 1 
	0.2043632961397065 1.4907064939268262 -15 0.99999999999999989 
	0.40534757719332692 1.4490369465108996 -15.000000000000002 1 
	0.59849680192648724 1.380498816913587 -14.999999999999995 1.0000000000000002 
	0.78061075986554906 1.2863275312226652 -15 1 
	0.94820778341804912 1.1682836243544459 -15.000000000000002 0.99999999999999978 
	1.0982063323892051 1.0285567435446843 -14.999999999999995 1.0000000000000002 
	1.2278166985184646 0.86974200623697151 -15.000000000000002 0.99999999999999989 
	1.3346368317230632 0.69478710997690551 -15.000000000000002 1 
	1.4166852397209679 0.50693972232831341 -14.999999999999998 0.99999999999999989 
	1.4724396407891795 0.30968388942801101 -15 1.0000000000000002 
	1.5008687125733209 0.10668705325208962 -15 0.99999999999999978 
	1.5014348463102243 -0.09831077148041005 -14.999999999999998 1.0000000000000002 
	1.4741658237637012 -0.30140632008805746 -14.999999999999998 0.99999999999999989 
	1.41942373080933 -0.49920232243433849 -15 1.0000000000000002 
	1.3656471744450855 -0.62416246378505658 -15 1 
	1.3343522991313264 -0.68519748029185878 -15 1 
	0.001 
	cone 0 0 -15 0 0 1 0 1.5 0 1 I I 0 1 1.5 forward I I I I 
	plane 0 0 -15 0 0 1 0 1 0 forward_v I I I I 
	nullbs 
	nullbs 
	I I 
	0 
	0 
	0 
	} I I #
edge $-1 $96 1.5099290763995929e-031 $42 1 $41 $130 forward 7 unknown #
point $-1 -1.4626123300597096 0.33281402007323502 -15 #
point $-1 0 1.5 -15 #
face $-1 $131 $95 $2 $-1 $132 forward single #
plane-surface $-1 -2.343155460009148 -3.5368944697614766 -15 -0.97507488670647302 0.22187601338215668 0 0.22187601338215665 0.97507488670647291 0 forward_v I I I I #
coedge $-1 $133 $70 $73 $125 forward $46 $-1 #
coedge $-1 $134 $48 $121 $135 forward $23 $-1 #
coedge $-1 $48 $134 $78 $128 forward $23 $-1 #
coedge $-1 $53 $53 $49 $90 reversed $98 $-1 #
edge $-1 $56 0 $91 3.1415926535897931 $49 $136 forward 7 unknown #
vertex $-1 $54 $137 #
straight-curve $-1 0 1.5 -40 0 0 1 I I #
coedge $-1 $138 $51 $55 $100 forward $95 $-1 #
coedge $-1 $51 $139 $124 $140 forward $95 $-1 #
loop $-1 $-1 $93 $84 #
vertex $-1 $81 $141 #
ellipse-curve $-1 5.5511151231257827e-017 1.1102230246251565e-016 -16 0 0 1 -1.4626123300597096 0.33281402007323496 0 1 I I #
loop $-1 $142 $89 $131 #
ellipse-curve $-1 0 0 -40 0 0 1 0 1.5 0 1 I I #
edge $-1 $57 0 $143 1.0964026452279612 $55 $144 forward 7 unknown #
point $-1 0 -1.5 -40 #
point $-1 0 -1.5 -16 #
coedge $-1 $145 $146 $59 $104 reversed $147 $-1 #
edge $-1 $109 0 $108 3.1415926535897931 $59 $148 forward 7 unknown #
coedge $-1 $149 $60 $146 $150 forward $107 $-1 #
coedge $-1 $60 $149 $145 $151 reversed $107 $-1 #
loop $-1 $-1 $105 $152 #
vertex $-1 $104 $153 #
vertex $-1 $104 $154 #
ellipse-curve $-1 0 0 -15 0 0 -1 0.75 0 0 1 I I #
coedge $-1 $155 $62 $65 $117 forward $113 $-1 #
coedge $-1 $62 $155 $64 $116 reversed $113 $-1 #
loop $-1 $-1 $111 $156 #
ellipse-curve $-1 -1.3680805733026753 -3.7587704831436337 -15 0 0 1 0 0.5 0 1 I I #
coedge $-1 $65 $64 $157 $158 reversed $66 $-1 #
edge $-1 $68 0 $159 3 $112 $160 forward 7 unknown #
edge $-1 $67 0 $161 3 $111 $162 forward 7 unknown #
face $-1 $156 $66 $2 $-1 $163 forward single #
point $-1 -1.3680805733026753 -4.2587704831436337 -15 #
point $-1 -1.3680805733026753 -3.2587704831436337 -15 #
coedge $-1 $70 $133 $87 $135 reversed $46 $-1 #
vertex $-1 $77 $164 #
ellipse-curve $-1 -1.3680805733026753 -3.7587704831436337 -15 0 0 -1 0.88956985087505647 -0.45679916857863301 0 1 I I #
coedge $-1 $73 $72 $94 $140 reversed $74 $-1 #
edge $-1 $75 0 $165 1 $73 $166 forward 7 unknown #
point $-1 -2.3431554600091489 -3.5368944697614797 -15 #
intcurve-curve $-1 forward { surfintcur full nurbs 3 open 2 
	0 3 1 3 
	1.3343522991313264 -0.68519748029185878 -15 1 
	0.73006462527834448 -1.8619882041019946 -15 1 
	0.12577695142536277 -3.0387789279121304 -15 1 
	-0.47851072242761888 -4.2155696517222667 -15 1 
	0.001 
	plane 1.3343547763125849 -0.68519875286795129 -15 0.88956985087505558 -0.45679916857863412 0 -0.45679916857863412 -0.88956985087505558 0 forward_v I I I I 
	plane 0 0 -15 0 0 1 0 1 0 forward_v I I I I 
	nullbs 
	nullbs 
	I I 
	0 
	0 
	0 
	} I I #
edge $-1 $143 0 $79 1 $78 $167 forward 7 unknown #
point $-1 1.3343522991313264 -0.68519748029185878 -15 #
straight-curve $-1 -1.4626123300597096 0.33281402007323546 -16 2.2204460492503131e-016 -3.8857805861880479e-016 1 I I #
face $-1 $168 $98 $2 $-1 $169 forward single #
plane-surface $-1 0 0 -16 0 0 -1 0 -1 0 forward_v I I I I #
coedge $-1 $121 $86 $139 $170 reversed $46 $-1 #
coedge $-1 $88 $87 $138 $171 reversed $23 $-1 #
edge $-1 $122 0 $172 1 $87 $173 forward 7 unknown #
ellipse-curve $-1 5.5511151231257827e-017 -5.5511151231257827e-017 -40 0 0 1 -5.5511151231257827e-017 -1.5 0 1 I I #
point $-1 0 1.5 -40 #
coedge $-1 $139 $93 $134 $171 forward $95 $-1 #
coedge $-1 $94 $138 $133 $170 forward $95 $-1 #
edge $-1 $165 0 $96 3.9686269665968901 $94 $174 forward 7 unknown #
point $-1 -1.4626123300597096 0.33281402007323507 -16 #
loop $-1 $-1 $175 $131 #
vertex $-1 $100 $176 #
ellipse-curve $-1 -1.9706458687096529e-015 5.773159728050814e-015 -16 0 0 1 1.9706458687096529e-015 -1.5000000000000058 0 1 I I #
coedge $-1 $177 $103 $106 $151 forward $147 $-1 #
coedge $-1 $103 $177 $105 $150 reversed $147 $-1 #
loop $-1 $-1 $145 $178 #
ellipse-curve $-1 0 0 -15 0 0 -1 -0.75 0 0 1 I I #
coedge $-1 $106 $105 $179 $180 forward $107 $-1 #
edge $-1 $108 0 $181 2 $146 $182 forward 7 unknown #
edge $-1 $109 0 $183 2 $145 $184 forward 7 unknown #
face $-1 $178 $107 $2 $-1 $185 reversed single #
point $-1 0.75 0 -15 #
point $-1 -0.75 0 -15 #
coedge $-1 $112 $111 $186 $187 reversed $113 $-1 #
face $-1 $188 $113 $2 $-1 $189 forward single #
coedge $-1 $186 $186 $115 $158 forward $190 $-1 #
edge $-1 $161 0 $159 3.1415926535897927 $157 $191 forward 7 unknown #
vertex $-1 $187 $192 #
straight-curve $-1 -1.3680805733026753 -3.2587704831436337 -15 0 0 1 I I #
vertex $-1 $187 $193 #
straight-curve $-1 -1.3680805733026753 -4.2587704831436337 -15 0 0 1 I I #
cone-surface $-1 -1.3680805733026753 -3.7587704831436337 -15 0 0 1 0 0.5 0 1 I I 0 1 0.5 forward I I I I #
point $-1 -0.47851072242761888 -4.2155696517222667 -15 #
vertex $-1 $140 $194 #
straight-curve $-1 -2.343155460009148 -3.5368944697614766 -15 0 0 -1 I I #
straight-curve $-1 1.3343547763125849 -0.68519875286795129 -16 -1.7763568394002505e-015 -3.3306690738754696e-016 1 I I #
face $-1 $195 $196 $2 $-1 $197 forward single #
plane-surface $-1 0 0 -40 0 0 1 0 1 0 forward_v I I I I #
edge $-1 $172 1.1657341758564146e-015 $165 2.8909369912536604 $139 $198 forward 7 unknown #
edge $-1 $143 -8.9419423315194864e-016 $172 3.9686269665968852 $138 $199 forward 7 unknown #
vertex $-1 $170 $200 #
straight-curve $-1 -0.47851072242761949 -4.2155696517222676 -15 0 0 -1 I I #
straight-curve $-1 -2.3431554600091489 -3.5368944697614797 -16 0.22187601338215665 0.9750748867064728 0 I I #
coedge $-1 $201 $202 $203 $204 forward $142 $-1 #
point $-1 1.3343547763125849 -0.68519875286795129 -16 #
coedge $-1 $146 $145 $205 $206 forward $147 $-1 #
face $-1 $207 $147 $2 $-1 $208 reversed single #
coedge $-1 $205 $205 $149 $180 reversed $209 $-1 #
edge $-1 $181 0 $183 3.1415926535897931 $179 $210 forward 7 unknown #
vertex $-1 $206 $211 #
straight-curve $-1 0.75 9.1845476536678294e-017 -15 0 0 -1 I I #
vertex $-1 $206 $212 #
straight-curve $-1 -0.75 0 -15 0 0 -1 I I #
cone-surface $-1 0 0 -15 0 0 -1 -0.75 0 0 1 I I 0 1 0.75 forward I I I I #
coedge $-1 $157 $157 $155 $187 forward $190 $-1 #
edge $-1 $159 0 $161 3.1415926535897936 $186 $213 forward 7 unknown #
face $-1 $152 $190 $2 $-1 $214 forward single #
cone-surface $-1 -1.3680805733026753 -3.7587704831436337 -15 0 0 1 0 0.5 0 1 I I 0 1 0.5 forward I I I I #
loop $-1 $-1 $157 $188 #
ellipse-curve $-1 -1.3680805733026753 -3.7587704831436337 -12 0 0 1 0 -0.5 0 1 I I #
point $-1 -1.3680805733026751 -3.2587704831436337 -12 #
point $-1 -1.3680805733026753 -4.2587704831436337 -12 #
point $-1 -2.3431554600091489 -3.5368944697614797 -16 #
face $-1 $215 $216 $2 $-1 $217 forward single #
loop $-1 $-1 $218 $168 #
torus-surface $-1 -5.6568542494923797 5.6568542494923815 -40.5 0 0 1 1.0000000000000002 0.5 0.61545369208504486 0.7881730475592823 0 forward_v I I I I #
ellipse-curve $-1 -1.3680805733026751 -3.7587704831436337 -16 0 0 -1 0.88956985087505624 -0.45679916857863301 0 1 I I #
straight-curve $-1 1.3343547763125845 -0.68519875286795207 -16 -0.45679916857863412 -0.88956985087505558 0 I I #
point $-1 -0.47851072242761972 -4.2155696517222676 -16 #
coedge $-1 $219 $175 $220 $221 forward $142 $-1 #
coedge $-1 $175 $219 $222 $223 forward $142 $-1 #
coedge $-1 $218 $224 $175 $204 reversed $196 $-1 #
edge $-1 $225 3.9827585670769618e-012 $226 2.8909369906393083 $175 $227 forward 7 unknown #
coedge $-1 $179 $179 $177 $206 reversed $209 $-1 #
edge $-1 $183 0 $181 3.1415926535897931 $205 $228 forward 7 unknown #
face $-1 $-1 $209 $2 $-1 $229 reversed single #
cone-surface $-1 0 0 -15 0 0 -1 -0.75 0 0 1 I I 0 1 0.75 forward I I I I #
loop $-1 $-1 $179 $207 #
ellipse-curve $-1 -2.7755575615628914e-017 0 -17 0 0 -1 0.75 0 0 1 I I #
point $-1 0.75 0 -17 #
point $-1 -0.75 0 -17 #
ellipse-curve $-1 -1.3680805733026753 -3.7587704831436337 -12 0 0 1 2.2204460492503131e-016 0.5 0 1 I I #
plane-surface $-1 0 0 -12 0 0 1 0 1 0 forward_v I I I I #
face $-1 $230 $231 $2 $-1 $232 forward single #
loop $-1 $-1 $233 $195 #
cone-surface $-1 1.2326152699336781 1.5750309853260622 -40.5 -0.7899491076684324 0.61317241237179587 0 0.30658620618589794 0.3949745538342162 0 1 I I 0 1 0.5 forward I I I I #
coedge $-1 $234 $203 $235 $236 forward $196 $-1 #
coedge $-1 $202 $201 $237 $238 forward $142 $-1 #
coedge $-1 $239 $240 $201 $221 reversed $241 $-1 #
edge $-1 $226 3.9649903365411077e-012 $242 7.9372539331937713 $201 $243 forward 7 unknown #
coedge $-1 $233 $235 $202 $223 reversed $216 $-1 #
edge $-1 $244 0 $225 7.9372539331937739 $202 $245 forward 7 unknown #
coedge $-1 $203 $234 $239 $246 reversed $196 $-1 #
vertex $-1 $223 $247 #
vertex $-1 $221 $248 #
ellipse-curve $-1 -5.6568542492706229 5.6568542492706246 -40 0 0 1 0.61317241215315921 0.78994910788771477 0 1 I I #
ellipse-curve $-1 0 2.7755575615628914e-017 -17 0 0 -1 -0.75 -2.7755575615628914e-017 0 1 I I #
plane-surface $-1 0 0 -17 0 0 -1 -1 0 0 forward_v I I I I #
face $-1 $249 $241 $2 $-1 $250 forward single #
loop $-1 $-1 $251 $215 #
torus-surface $-1 0 0 -40.5 0 0 1 2 0.5 -0.79175643869505485 -0.6108369191403904 0 forward_v I I I I #
coedge $-1 $252 $222 $253 $254 forward $216 $-1 #
coedge $-1 $224 $218 $255 $256 forward $196 $-1 #
coedge $-1 $222 $252 $218 $236 reversed $216 $-1 #
edge $-1 $225 8.1908447828315976e-014 $257 1.5707963267949785 $235 $258 forward 7 unknown #
coedge $-1 $251 $253 $219 $238 reversed $231 $-1 #
edge $-1 $242 4.9626969201571337e-014 $244 3.3922483157937502 $219 $259 forward 7 unknown #
coedge $-1 $260 $220 $224 $246 forward $241 $-1 #
coedge $-1 $220 $260 $251 $261 reversed $241 $-1 #
loop $-1 $-1 $239 $230 #
vertex $-1 $238 $262 #
straight-curve $-1 -6.4468033571608103 5.0436818371205847 -40 0.61317241237179543 -0.78994910766843252 0 I I #
vertex $-1 $223 $263 #
straight-curve $-1 1.2263448247435909 1.5798982153368653 -40 -0.78994910766843229 0.61317241237179565 0 I I #
edge $-1 $226 -8.2497077961268934e-014 $264 1.5707963267948841 $224 $265 forward 7 unknown #
point $-1 -5.0436818371205847 6.4468033571608139 -40 #
point $-1 -6.4468033571583465 5.0436818371174779 -40 #
face $-1 $266 $267 $2 $-1 $268 forward single #
cone-surface $-1 -6.4516705871716145 5.0499522823106719 -40.5 0.61317241237179554 -0.78994910766843252 0 -0.3949745538342162 -0.30658620618589771 0 1 I I 0 1 0.49999999999999994 forward I I I I #
coedge $-1 $269 $237 $240 $261 forward $231 $-1 #
coedge $-1 $235 $233 $270 $271 forward $216 $-1 #
coedge $-1 $237 $269 $233 $254 reversed $231 $-1 #
edge $-1 $244 0 $272 1.5707963267949114 $233 $273 forward 7 unknown #
coedge $-1 $274 $275 $234 $256 reversed $276 $-1 #
edge $-1 $257 3.9474596431116616e-016 $264 2.8909369912737977 $255 $277 forward 7 unknown #
vertex $-1 $271 $278 #
ellipse-curve $-1 -5.0436818371062291 6.4468033571496708 -40.5 -0.7899491076684324 0.61317241237179587 -2.8380194208293703e-011 -1.1234568830786884e-011 8.6686213762732223e-012 0.5 1 I I #
ellipse-curve $-1 -9.4235227260375254e-011 9.423463398494647e-011 -40 0 0 1 -1.5798982152426875 -1.2263448248377455 0 1 I I #
coedge $-1 $240 $239 $279 $280 forward $241 $-1 #
edge $-1 $242 5.0650838730845226e-015 $281 1.570796326794897 $240 $282 forward 7 unknown #
point $-1 -1.5798982153368639 -1.2263448247435909 -40 #
point $-1 1.2263448247435909 1.5798982153368653 -40 #
vertex $-1 $280 $283 #
ellipse-curve $-1 -6.4468033571608121 5.0436818371205856 -40.500000000000007 0.61317241237179543 -0.78994910766843252 -3.5816575170812734e-015 1.7763568394002505e-015 -8.8817841970012523e-016 0.50000000000000711 1 I I #
face $-1 $284 $276 $2 $-1 $285 forward single #
loop $-1 $-1 $286 $249 #
plane-surface $-1 -6.8417779109950283 4.7370956309346877 -45 -0.78994910766843252 -0.61317241237179543 0 0.61317241237179543 -0.78994910766843252 0 forward_v I I I I #
coedge $-1 $253 $251 $287 $288 forward $231 $-1 #
coedge $-1 $289 $290 $252 $271 reversed $291 $-1 #
edge $-1 $272 2.1493738108817851e-012 $257 7.9372539331635696 $270 $292 forward 7 unknown #
vertex $-1 $288 $293 #
ellipse-curve $-1 1.2263448247435909 1.5798982153368657 -40.5 -0.7899491076684324 0.61317241237179587 5.4460650422409518e-016 0 -4.4408920985006262e-016 0.5 1 I I #
coedge $-1 $294 $255 $290 $295 reversed $276 $-1 #
coedge $-1 $255 $294 $286 $296 forward $276 $-1 #
loop $-1 $-1 $274 $266 #
ellipse-curve $-1 -5.6568542494923797 5.6568542494923815 -40.5 0 0 1 0.91975861858155206 1.1849236614841301 0 1 I I #
point $-1 -4.7370956309108276 6.8417779109765124 -40.5 #
coedge $-1 $286 $297 $260 $280 reversed $267 $-1 #
edge $-1 $264 0 $281 7.9372539331921228 $279 $298 forward 7 unknown #
vertex $-1 $280 $299 #
ellipse-curve $-1 -1.5798982153374386 -1.2263448247428468 -40.5 0.61317241237179554 -0.78994910766843252 -1.6818268089195789e-012 5.1580961724084773e-013 -6.6413541333076864e-013 0.5 1 I I #
point $-1 -6.8417779109950283 4.7370956309346877 -40.5 #
face $-1 $300 $291 $2 $-1 $301 forward single #
cone-surface $-1 -5.6568542494923797 5.6568542494923815 -45 0 0 1 0 1.5 0 1 I I 0 1 1.5 forward I I I I #
coedge $-1 $302 $279 $275 $296 reversed $267 $-1 #
coedge $-1 $303 $304 $269 $288 reversed $305 $-1 #
edge $-1 $281 -6.3948846218409014e-016 $272 3.3922483159274424 $287 $306 forward 7 unknown #
coedge $-1 $307 $270 $304 $308 reversed $291 $-1 #
coedge $-1 $270 $307 $274 $295 forward $291 $-1 #
loop $-1 $-1 $289 $284 #
straight-curve $-1 1.5329310309294886 1.9748727691710817 -40.5 -0.7899491076684324 0.61317241237179565 0 I I #
point $-1 1.5329310309277906 1.9748727691723995 -40.500000000000007 #
coedge $-1 $275 $274 $309 $310 reversed $276 $-1 #
edge $-1 $311 0 $257 4 $290 $312 forward 7 unknown #
edge $-1 $313 0 $264 4 $286 $314 forward 7 unknown #
coedge $-1 $279 $302 $303 $315 forward $267 $-1 #
straight-curve $-1 -6.8417779109950283 4.7370956309346877 -40.5 0.61317241237179543 -0.78994910766843252 0 I I #
point $-1 -1.9748727691720918 -1.5329310309281867 -40.5 #
face $-1 $316 $305 $2 $-1 $317 forward single #
plane-surface $-1 1.5329310309294892 1.974872769171081 -45 0.61317241237179576 0.7899491076684324 0 -0.78994910766843229 0.61317241237179565 0 forward_v I I I I #
coedge $-1 $297 $286 $318 $319 reversed $267 $-1 #
coedge $-1 $320 $287 $297 $315 reversed $305 $-1 #
coedge $-1 $287 $320 $289 $308 forward $305 $-1 #
loop $-1 $-1 $303 $300 #
ellipse-curve $-1 0 0 -40.5 0 0 1 -1.9748727691720911 -1.5329310309281881 0 1 I I #
coedge $-1 $290 $289 $321 $322 reversed $291 $-1 #
edge $-1 $323 0 $272 3.9999999999999929 $304 $324 forward 7 unknown #
coedge $-1 $325 $326 $294 $310 forward $327 $-1 #
edge $-1 $313 2.0134412655655371e-011 $311 2.8909369912737968 $294 $328 forward 7 unknown #
vertex $-1 $295 $329 #
straight-curve $-1 -4.7370956309346859 6.8417779109950292 -44.5 0 0 1 I I #
vertex $-1 $319 $330 #
straight-curve $-1 -6.8417779109950292 4.7370956309346886 -44.5 0 0 1 I I #
edge $-1 $331 0 $281 4 $297 $332 forward 7 unknown #
face $-1 $333 $334 $2 $-1 $335 forward single #
cone-surface $-1 0 0 -45 0 0 1 0 2.5 0 1 I I 0 1 2.5 forward I I I I #
coedge $-1 $336 $337 $302 $319 forward $338 $-1 #
edge $-1 $331 3.1155556357914184e-016 $313 7.937253933193773 $302 $339 forward 7 unknown #
coedge $-1 $304 $303 $340 $341 reversed $305 $-1 #
coedge $-1 $342 $343 $307 $322 forward $344 $-1 #
edge $-1 $311 -2.4924445086331355e-015 $323 7.9372539331937713 $307 $345 forward 7 unknown #
vertex $-1 $308 $346 #
straight-curve $-1 1.5329310309294892 1.974872769171081 -44.5 0 0 1 I I #
coedge $-1 $347 $309 $343 $348 reversed $327 $-1 #
coedge $-1 $309 $347 $336 $349 forward $327 $-1 #
loop $-1 $-1 $326 $350 #
ellipse-curve $-1 -5.6568542494923797 5.6568542494923815 -44.5 0 0 -1 -1.1849236614841301 -0.91975861858155028 0 1 I I #
point $-1 -4.7370956309346859 6.8417779109950301 -44.5 #
point $-1 -6.8417779109950292 4.7370956309346886 -44.5 #
vertex $-1 $315 $351 #
straight-curve $-1 -1.9748727691710819 -1.5329310309294879 -44.5 0 0 1 I I #
face $-1 $350 $344 $2 $-1 $352 forward single #
loop $-1 $-1 $353 $316 #
torus-surface $-1 0 0 -44.5 0 0 1 1.9999999999999998 0.5 0.61083691914038962 0.79175643869505552 0 forward_v I I I I #
coedge $-1 $354 $318 $326 $349 reversed $338 $-1 #
coedge $-1 $318 $354 $355 $356 forward $338 $-1 #
loop $-1 $-1 $337 $357 #
straight-curve $-1 -1.974872769171081 -1.5329310309294888 -44.5 -0.61317241237179554 0.78994910766843252 8.9519970224374276e-016 I I #
coedge $-1 $355 $353 $320 $341 forward $334 $-1 #
edge $-1 $323 6.5909944169106897e-013 $331 3.392248315926583 $320 $358 forward 7 unknown #
coedge $-1 $359 $321 $353 $360 reversed $344 $-1 #
coedge $-1 $321 $359 $325 $348 forward $344 $-1 #
loop $-1 $-1 $343 $333 #
straight-curve $-1 -4.7370956309346841 6.8417779109950283 -44.5 0.78994910766843229 -0.61317241237179565 0 I I #
point $-1 1.5329310309294892 1.974872769171081 -44.5 #
coedge $-1 $326 $325 $361 $362 reversed $327 $-1 #
edge $-1 $363 0 $311 1.5707963267948823 $343 $364 forward 7 unknown #
edge $-1 $365 0 $313 1.5707963267949836 $336 $366 forward 7 unknown #
face $-1 $357 $327 $2 $-1 $367 forward single #
point $-1 -1.9748727691710812 -1.5329310309294886 -44.5 #
cone-surface $-1 -5.0499522823106702 6.4516705871716162 -44.5 0.7899491076684324 -0.61317241237179576 0 0.30658620618589782 0.39497455383421615 0 1 I I 0 1 0.49999999999999994 forward I I I I #
coedge $-1 $340 $368 $342 $360 forward $334 $-1 #
coedge $-1 $337 $336 $369 $370 reversed $338 $-1 #
coedge $-1 $368 $340 $337 $356 reversed $334 $-1 #
edge $-1 $371 1.9721522630525295e-031 $331 1.570796326794899 $355 $372 forward 7 unknown #
face $-1 $373 $338 $2 $-1 $374 forward single #
ellipse-curve $-1 0 0 -44.5 0 0 -1 1.5329310309281874 1.9748727691720911 0 1 I I #
coedge $-1 $343 $342 $375 $376 reversed $344 $-1 #
edge $-1 $377 8.6099520068565027e-015 $323 1.5707963267949279 $342 $378 forward 7 unknown #
coedge $-1 $375 $369 $347 $362 forward $379 $-1 #
edge $-1 $365 0 $363 2.890936990635347 $361 $380 forward 7 unknown #
vertex $-1 $376 $381 #
ellipse-curve $-1 -5.0436818371205829 6.446803357160813 -44.499999999999993 0.7899491076684324 -0.61317241237179565 0 0 0 -0.50000000000000711 1 I I #
vertex $-1 $362 $382 #
ellipse-curve $-1 -6.4468033571496708 5.04368183710623 -44.5 -0.61317241237179554 0.78994910766843252 2.8380822245277175e-011 -8.666845019433822e-012 1.1236345187626284e-011 -0.5 1 I I #
torus-surface $-1 -5.6568542494923797 5.6568542494923815 -44.5 0 0 1 1 0.5 -0.78817304755928164 -0.61545369208504586 0 forward_v I I I I #
coedge $-1 $353 $355 $383 $384 reversed $334 $-1 #
coedge $-1 $361 $383 $354 $370 forward $379 $-1 #
edge $-1 $371 0 $365 7.9372539331897913 $369 $385 forward 7 unknown #
vertex $-1 $370 $386 #
ellipse-curve $-1 -1.5798982153368657 -1.2263448247435917 -44.5 -0.61317241237179554 0.78994910766843252 -6.5990051046776468e-016 1.1102230246251565e-015 4.4408920985006262e-016 -0.5 1 I I #
face $-1 $387 $379 $2 $-1 $388 reversed single #
cone-surface $-1 -1.5750309853260624 -1.2326152699336774 -44.5 -0.61317241237179554 0.78994910766843252 0 -0.39497455383421626 -0.30658620618589777 0 1 I I 0 1 0.5 forward I I I I #
coedge $-1 $383 $361 $359 $376 forward $379 $-1 #
edge $-1 $363 0 $377 7.9372539331937721 $375 $389 forward 7 unknown #
vertex $-1 $376 $390 #
ellipse-curve $-1 1.2263448247428514 1.5798982153374441 -44.500000000000007 0.78994910766843229 -0.61317241237179576 1.6806811031025841e-012 6.5858429820764286e-013 -5.2202686617874861e-013 -0.49999999999999289 1 I I #
loop $-1 $391 $383 $373 #
ellipse-curve $-1 -5.6568542492706255 5.6568542492706255 -45 0 0 -1 -0.78994910788771211 -0.61317241215315921 0 1 I I #
point $-1 -5.0436818371205829 6.446803357160813 -45 #
point $-1 -6.4468033571583376 5.0436818371174663 -45 #
coedge $-1 $369 $375 $368 $384 forward $379 $-1 #
edge $-1 $377 4.951594689910696e-014 $371 3.3922483157937502 $383 $392 forward 7 unknown #
straight-curve $-1 -1.5798982153368646 -1.2263448247435913 -45 -0.61317241237179565 0.7899491076684324 0 I I #
point $-1 -1.5798982153368646 -1.2263448247435913 -45 #
face $-1 $393 $394 $2 $-1 $395 forward single #
plane-surface $-1 0 0 -45 0 0 1 0 1 0 forward_v I I I I #
straight-curve $-1 -5.0436818371205829 6.446803357160813 -45 0.78994910766843229 -0.61317241237179565 0 I I #
point $-1 1.2263448247435909 1.5798982153368648 -45 #
loop $-1 $-1 $396 $373 #
ellipse-curve $-1 -9.4234939296278242e-011 9.4234925418490434e-011 -45 0 0 -1 1.2263448248377449 1.5798982152426873 0 1 I I #
face $-1 $397 $398 $2 $-1 $399 forward single #
loop $-1 $-1 $400 $387 #
cone-surface $-1 0 0 -45 0 0 -1 -0.75 0 0 1 I I 0 1 0.75 forward I I I I #
coedge $-1 $401 $401 $402 $403 reversed $391 $-1 #
face $-1 $118 $404 $2 $-1 $405 forward single #
loop $-1 $-1 $406 $393 #
cone-surface $-1 0 0 -45 0 0 -1 -0.75 0 0 1 I I 0 1 0.75 forward I I I I #
coedge $-1 $407 $402 $408 $409 forward $394 $-1 #
coedge $-1 $396 $396 $410 $411 reversed $391 $-1 #
coedge $-1 $400 $412 $396 $403 forward $394 $-1 #
edge $-1 $413 0 $414 3.1415926535897931 $396 $415 forward 7 unknown #
loop $-1 $-1 $416 $397 #
plane-surface $-1 0 0 -46.5 0 0 -1 -1 0 0 forward_v I I I I #
coedge $-1 $417 $410 $412 $418 forward $398 $-1 #
coedge $-1 $412 $400 $416 $419 reversed $394 $-1 #
coedge $-1 $410 $417 $400 $409 reversed $398 $-1 #
edge $-1 $414 0 $420 1.5 $408 $421 forward 7 unknown #
coedge $-1 $406 $408 $401 $411 forward $398 $-1 #
edge $-1 $414 0 $413 3.1415926535897931 $401 $422 forward 7 unknown #
coedge $-1 $402 $407 $406 $418 reversed $394 $-1 #
vertex $-1 $411 $423 #
vertex $-1 $411 $424 #
ellipse-curve $-1 0 0 -45 0 0 -1 0.75 0 0 1 I I #
coedge $-1 $425 $425 $407 $419 forward $404 $-1 #
coedge $-1 $408 $406 $425 $426 reversed $398 $-1 #
edge $-1 $413 0 $427 1.5 $406 $428 forward 7 unknown #
edge $-1 $427 0 $420 3.1415926535897931 $416 $429 forward 7 unknown #
vertex $-1 $426 $430 #
straight-curve $-1 -0.75 0 -45 0 0 -1 I I #
ellipse-curve $-1 0 0 -45 0 0 -1 -0.75 0 0 1 I I #
point $-1 0.75 0 -45 #
point $-1 -0.75 0 -45 #
coedge $-1 $416 $416 $417 $426 forward $404 $-1 #
edge $-1 $420 0 $427 3.1415926535897931 $425 $431 forward 7 unknown #
vertex $-1 $426 $432 #
straight-curve $-1 0.75 9.1845476536678294e-017 -45 0 0 -1 I I #
ellipse-curve $-1 -2.7755575615628914e-017 0 -46.5 0 0 -1 0.75 0 0 1 I I #
point $-1 -0.75 0 -46.5 #
ellipse-curve $-1 0 2.7755575615628914e-017 -46.5 0 0 -1 -0.75 -2.7755575615628914e-017 0 1 I I #
point $-1 0.75 0 -46.5 #
End-of-ACIS-data 