600 0 1 0           
91 GICL ACIS Healer - Source: /gicl/data5/repository/PTC/V18/fly_small18/zoom_lens_a.sat - 6 0 18 ACIS 6.0.3 Solaris 24 Sat Apr 13 22:06:38 2002 
1 9.999999999999999547e-07 1.000000000000000036e-10 
body $-1 $1 $-1 $-1 #
lump $-1 $-1 $2 $0 #
shell $-1 $-1 $-1 $3 $-1 $1 #
face $-1 $4 $5 $2 $-1 $6 forward single #
face $-1 $7 $8 $2 $-1 $6 forward single #
loop $-1 $-1 $9 $3 #
sphere-surface $-1 0 0 -2 9 1 0 0 0 0 1 forward_v I I I I #
face $-1 $10 $11 $2 $-1 $12 forward single #
loop $-1 $-1 $13 $4 #
coedge $-1 $14 $15 $16 $17 reversed $5 $-1 #
face $-1 $18 $19 $2 $-1 $20 forward single #
loop $-1 $-1 $21 $7 #
cone-surface $-1 0 0 7.349999999999999645 0 0 -1 8.25 0 0 1 I I 0 1 8.25 forward I I I I #
coedge $-1 $16 $22 $23 $24 forward $8 $-1 #
coedge $-1 $15 $9 $25 $26 reversed $5 $-1 #
coedge $-1 $9 $14 $22 $27 forward $5 $-1 #
coedge $-1 $22 $13 $9 $17 forward $8 $-1 #
edge $-1 $28 -3.508853016099259982e-16 $29 1.1596584644725485 $9 $30 forward 7 unknown #
face $-1 $-1 $31 $2 $-1 $12 forward single #
loop $-1 $-1 $32 $10 #
plane-surface $-1 0 0 0 0 0 -1 1 0 0 forward_v I I I I #
coedge $-1 $33 $34 $35 $36 forward $11 $-1 #
coedge $-1 $13 $16 $15 $27 reversed $8 $-1 #
coedge $-1 $34 $33 $13 $24 reversed $11 $-1 #
edge $-1 $37 -3.141592653589793116 $28 -2.449212707644754516e-16 $13 $38 forward 7 unknown #
coedge $-1 $39 $40 $14 $26 forward $31 $-1 #
edge $-1 $37 -3.141592653589793116 $28 2.449212707644754516e-16 $14 $41 reversed 7 unknown #
edge $-1 $37 -3.508853016099259982e-16 $29 1.159658464472548722 $15 $42 forward 7 unknown #
vertex $-1 $26 $43 #
vertex $-1 $27 $44 #
ellipse-curve $-1 0 0 -2 -2.449212707644754516e-16 -1 -5.843414112748236366e-32 8.249999999999998224 -2.020600483806922082e-15 3.596873642484542444 1 I I #
loop $-1 $-1 $25 $18 #
coedge $-1 $35 $35 $45 $46 forward $19 $-1 #
coedge $-1 $23 $21 $39 $47 forward $11 $-1 #
coedge $-1 $21 $23 $40 $48 reversed $11 $-1 #
coedge $-1 $32 $32 $21 $36 reversed $19 $-1 #
edge $-1 $49 -3.141592653589793116 $50 -2.449212707644754516e-16 $35 $51 reversed 7 unknown #
vertex $-1 $27 $52 #
ellipse-curve $-1 0 0 1.596873642484539779 -0 -0 1 8.25 0 0 1 I I #
coedge $-1 $45 $25 $33 $47 reversed $31 $-1 #
coedge $-1 $25 $45 $34 $48 forward $31 $-1 #
ellipse-curve $-1 0 0 1.596873642484539779 -0 -0 1 8.25 0 0 1 I I #
ellipse-curve $-1 0 0 -2 1.224606353822377258e-16 1 -2.921707056374118183e-32 -8.249999999999998224 1.010300241903461041e-15 3.596873642484542444 1 I I #
point $-1 8.25 -2.020600483806922476e-15 1.596873642484539779 #
point $-1 1.653218577660209299e-15 -2.024541974459885543e-31 7 #
coedge $-1 $40 $39 $32 $46 reversed $31 $-1 #
edge $-1 $49 -3.141592653589793116 $50 2.449212707644754516e-16 $32 $53 forward 7 unknown #
edge $-1 $50 0 $28 1.596873642484539779 $39 $54 forward 7 unknown #
edge $-1 $49 0 $37 1.596873642484539779 $40 $55 forward 7 unknown #
vertex $-1 $36 $56 #
vertex $-1 $36 $57 #
ellipse-curve $-1 0 0 0 0 0 -1 8.25 0 0 1 I I #
point $-1 -8.25 1.010300241903461238e-15 1.596873642484539779 #
ellipse-curve $-1 0 0 0 0 0 -1 8.25 0 0 1 I I #
straight-curve $-1 8.25 -2.020600483806922476e-15 0 0 0 1 I I #
straight-curve $-1 -8.25 1.010300241903461238e-15 0 0 0 1 I I #
point $-1 -8.25 1.010300241903461238e-15 0 #
point $-1 8.25 -2.020600483806922476e-15 0 #
End-of-ACIS-data 