700 0 2 0           
24 FBMach with ACIS - 7.0.3 13 ACIS 7.0.3 NT 24 Wed May 15 17:49:28 2002 
1 9.9999999999999995e-007 1e-010 
body $2 -1 $-1 $3 $-1 $4 #
bdycol-kcp $-1 -1 1 3 $5 $6 $7 #
model_id-kcp-attrib $-1 -1 $-1 $-1 $0 1 1021499367 1021499367 -1695219711 1 #
lump $-1 -1 $-1 $-1 $8 $0 #
transform $-1 -1 1 0 0 0 1 0 0 0 1 0 0 0 1 rotate no_reflect no_shear #
body $9 -1 $-1 $10 $-1 $11 #
body $12 -1 $-1 $13 $-1 $14 #
body $15 -1 $-1 $16 $-1 $17 #
shell $-1 -1 $-1 $-1 $-1 $18 $-1 $3 #
rgb_color-st-attrib $-1 -1 $19 $-1 $5 0.5 1 1 #
lump $-1 -1 $-1 $-1 $20 $5 #
transform $-1 -1 1 0 0 0 1 0 0 0 1 0 -2.7755575615628914e-017 0.99999999999999911 1 no_rotate no_reflect no_shear #
model_id-kcp-attrib $-1 -1 $-1 $-1 $6 1 1021499367 1021499367 -1695219710 1 #
lump $-1 -1 $-1 $-1 $21 $6 #
transform $-1 -1 1 0 0 0 1 0 0 0 1 0 -2.7755575615628914e-017 0.99999999999999911 1 no_rotate no_reflect no_shear #
rgb_color-st-attrib $-1 -1 $22 $-1 $7 1 0.5 1 #
lump $-1 -1 $-1 $-1 $23 $7 #
transform $-1 -1 1 0 0 0 1 0 0 0 1 0 -2.7755575615628914e-017 0.99999999999999911 1 no_rotate no_reflect no_shear #
face $24 -1 $-1 $25 $26 $8 $-1 $27 forward single #
model_id-kcp-attrib $-1 -1 $-1 $9 $5 1 1021499367 1021499367 -1705443325 1 #
shell $-1 -1 $-1 $-1 $-1 $28 $-1 $10 #
shell $-1 -1 $-1 $-1 $-1 $29 $-1 $13 #
model_id-kcp-attrib $-1 -1 $-1 $15 $7 1 1021499367 1021499368 -1710817276 1 #
shell $-1 -1 $-1 $-1 $-1 $30 $-1 $16 #
model_id-kcp-attrib $-1 -1 $-1 $-1 $18 1 1021499367 1021499367 -1695219711 2 #
face $31 -1 $-1 $32 $33 $8 $-1 $34 forward single #
loop $-1 -1 $-1 $-1 $35 $18 #
plane-surface $-1 -1 $-1 0 0 -5 0 0 -1 1 0 0 forward_v I I I I #
face $-1 -1 $-1 $36 $37 $20 $-1 $38 reversed single #
face $39 -1 $-1 $40 $41 $21 $-1 $42 forward single #
face $-1 -1 $-1 $43 $44 $23 $-1 $45 forward single #
model_id-kcp-attrib $-1 -1 $-1 $-1 $25 1 1021499367 1021499367 -1695219711 3 #
face $46 -1 $-1 $47 $48 $8 $-1 $49 reversed single #
loop $-1 -1 $-1 $-1 $50 $25 #
cone-surface $-1 -1 $-1 0 0 7.5999999999999996 0 0 -1 0.39999999999999997 0 0 1 I I 0 1 0.39999999999999997 forward I I I I #
coedge $-1 -1 $-1 $51 $51 $52 $53 forward $26 $-1 #
face $-1 -1 $-1 $54 $55 $20 $-1 $38 reversed single #
loop $-1 -1 $-1 $-1 $56 $28 #
cone-surface $-1 -1 $-1 0 2.7755575615628914e-017 -5.9999999999999991 0 0 -1 -0.39999999999999997 4.8984254152895085e-017 0 1 I I 0 1 0.39999999999999997 forward I I I I #
model_id-kcp-attrib $-1 -1 $-1 $-1 $29 1 1021499367 1021499367 -1695219710 3 #
face $57 -1 $-1 $58 $59 $21 $-1 $60 reversed single #
loop $-1 -1 $-1 $-1 $61 $29 #
plane-surface $-1 -1 $-1 0 0 6.0000000000000009 0 0 1 1 0 0 forward_v I I I I #
face $-1 -1 $-1 $62 $63 $23 $-1 $64 forward single #
loop $-1 -1 $-1 $65 $66 $30 #
cone-surface $-1 -1 $-1 0 2.7755575615628914e-017 5.4000000000000004 0 0 1 0.25 0 0 1 I I 0 -1 0.25 forward I I I I #
model_id-kcp-attrib $-1 -1 $-1 $-1 $32 1 1021499367 1021499367 -1695219711 4 #
face $67 -1 $-1 $68 $69 $8 $-1 $70 forward single #
loop $-1 -1 $-1 $71 $72 $32 #
plane-surface $-1 -1 $-1 0 0 6.3999999999999995 0 0 -1 1 0 0 forward_v I I I I #
coedge $-1 -1 $-1 $73 $74 $75 $76 forward $33 $-1 #
coedge $-1 -1 $-1 $35 $35 $77 $78 reversed $26 $-1 #
coedge $-1 -1 $-1 $74 $73 $35 $53 reversed $33 $-1 #
edge $79 -1 $-1 $80 0 $81 3.1415926535897931 $35 $82 forward @7 unknown #
face $-1 -1 $-1 $83 $84 $20 $-1 $38 reversed single #
loop $-1 -1 $-1 $-1 $85 $36 #
coedge $-1 -1 $-1 $86 $87 $88 $89 forward $37 $-1 #
model_id-kcp-attrib $-1 -1 $-1 $-1 $40 1 1021499367 1021499367 -1695219710 2 #
face $-1 -1 $-1 $90 $91 $21 $-1 $92 reversed single #
loop $-1 -1 $-1 $-1 $93 $40 #
plane-surface $-1 -1 $-1 0 0 -6.0000000000000009 0 0 1 1 0 0 forward_v I I I I #
coedge $-1 -1 $-1 $94 $95 $96 $97 forward $41 $-1 #
face $-1 -1 $-1 $98 $99 $23 $-1 $100 forward single #
loop $-1 -1 $-1 $101 $102 $43 #
cone-surface $-1 -1 $-1 0 2.7755575615628914e-017 5.3999999999999995 0 0 1 -0.39999999999999997 4.8984254152895085e-017 0 1 I I 0 1 0.39999999999999997 forward I I I I #
loop $-1 -1 $-1 $-1 $103 $30 #
coedge $-1 -1 $-1 $66 $66 $104 $105 forward $44 $-1 #
model_id-kcp-attrib $-1 -1 $-1 $-1 $47 1 1021499367 1021499367 -1695219711 5 #
face $106 -1 $-1 $107 $108 $8 $-1 $109 forward single #
loop $-1 -1 $-1 $-1 $77 $47 #
cone-surface $-1 -1 $-1 0 0 7.5999999999999996 0 0 -1 0.39999999999999997 0 0 1 I I 0 1 0.39999999999999997 forward I I I I #
loop $-1 -1 $-1 $-1 $110 $32 #
coedge $-1 -1 $-1 $75 $75 $111 $112 forward $48 $-1 #
coedge $-1 -1 $-1 $52 $50 $113 $114 reversed $33 $-1 #
coedge $-1 -1 $-1 $50 $52 $115 $116 forward $33 $-1 #
coedge $-1 -1 $-1 $72 $72 $50 $76 reversed $48 $-1 #
edge $117 -1 $-1 $118 1.2246063538223773e-016 $119 3.1415926535897931 $50 $120 forward @7 unknown #
coedge $-1 -1 $-1 $113 $115 $51 $78 forward $69 $-1 #
edge $121 -1 $-1 $80 0 $81 3.1415926535897931 $51 $122 forward @7 unknown #
attrib_edge_convexity-kcp-attrib $-1 -1 $123 $-1 $53 1 #
vertex $-1 -1 $-1 $78 $124 #
vertex $-1 -1 $-1 $78 $125 #
ellipse-curve $-1 -1 $-1 0 -4.163336342344337e-017 -5 -4.4408920985006262e-015 1.0060576546992825e-030 -1 -0.39999999999999997 9.0617617576338456e-017 1.7763568394002505e-015 1 I I #
face $-1 -1 $-1 $126 $127 $20 $-1 $38 reversed single #
loop $-1 -1 $-1 $-1 $128 $54 #
coedge $-1 -1 $-1 $129 $88 $130 $131 reversed $55 $-1 #
coedge $-1 -1 $-1 $132 $56 $133 $134 reversed $37 $-1 #
coedge $-1 -1 $-1 $56 $132 $135 $136 reversed $37 $-1 #
coedge $-1 -1 $-1 $85 $137 $138 $89 reversed $55 $-1 #
edge $-1 -1 $-1 $139 -12 $140 1.7763568394002505e-015 $138 $141 forward @7 unknown #
face $-1 -1 $-1 $142 $143 $21 $-1 $144 reversed single #
loop $-1 -1 $-1 $-1 $145 $58 #
plane-surface $-1 -1 $-1 0 -0.40000000000000002 0 0 1 0 0 0 1 forward_v I I I I #
coedge $-1 -1 $-1 $146 $147 $148 $149 forward $59 $-1 #
coedge $-1 -1 $-1 $150 $61 $151 $152 forward $41 $-1 #
coedge $-1 -1 $-1 $61 $150 $153 $154 forward $41 $-1 #
coedge $-1 -1 $-1 $155 $156 $61 $97 reversed $157 $-1 #
edge $-1 -1 $-1 $158 -0.40000000000000002 $159 0.40000000000000002 $96 $160 forward @7 unknown #
face $-1 -1 $-1 $-1 $161 $23 $-1 $162 reversed single #
loop $-1 -1 $-1 $163 $164 $62 #
plane-surface $-1 -1 $-1 0.022377622377622371 0 6 -1.3839665003877402e-031 1.0379748752908052e-031 1 1 0 1.3839665003877402e-031 forward_v I I I I #
loop $-1 -1 $-1 $-1 $165 $43 #
coedge $-1 -1 $-1 $102 $102 $164 $166 forward $63 $-1 #
coedge $-1 -1 $-1 $103 $103 $167 $168 reversed $65 $-1 #
coedge $-1 -1 $-1 $104 $104 $66 $105 reversed $163 $-1 #
edge $-1 -1 $-1 $169 -2.4492127076447545e-016 $169 6.2831853071795862 $66 $170 forward @7 unknown #
model_id-kcp-attrib $-1 -1 $-1 $-1 $68 1 1021499367 1021499367 -1695219711 6 #
face $171 -1 $-1 $172 $173 $8 $-1 $174 reversed single #
loop $-1 -1 $-1 $-1 $175 $68 #
cone-surface $-1 -1 $-1 0 0 7.5999999999999996 0 0 -1 0.25 0 0 1 I I 0 1 0.25 forward I I I I #
coedge $-1 -1 $-1 $176 $176 $177 $178 forward $71 $-1 #
coedge $-1 -1 $-1 $115 $113 $72 $112 reversed $69 $-1 #
edge $179 -1 $-1 $118 -1.2246063538223773e-016 $119 3.1415926535897931 $72 $180 forward @7 unknown #
coedge $-1 -1 $-1 $111 $77 $73 $114 forward $69 $-1 #
edge $-1 -1 $-1 $81 0 $119 11.399999999999999 $73 $181 forward @7 unknown #
coedge $-1 -1 $-1 $77 $111 $74 $116 reversed $69 $-1 #
edge $-1 -1 $-1 $80 0 $118 11.399999999999999 $74 $182 forward @7 unknown #
attrib_edge_convexity-kcp-attrib $-1 -1 $183 $-1 $76 1 #
vertex $-1 -1 $-1 $116 $184 #
vertex $-1 -1 $-1 $114 $185 #
ellipse-curve $-1 -1 $-1 0 0 6.3999999999999995 0 0 -1 -0.39999999999999997 0 0 1 I I #
attrib_edge_convexity-kcp-attrib $-1 -1 $186 $-1 $78 1 #
ellipse-curve $-1 -1 $-1 0 -6.9388939039072284e-017 -5 4.4408920985006262e-015 -1.3142064458012402e-030 1 -0.39999999999999997 1.1837319319196737e-016 1.7763568394002505e-015 1 I I #
convexity-sys-attrib $-1 -1 $-1 $79 $53 #
point $-1 -1 $-1 -0.39999999999999997 4.8984254152895085e-017 -4.9999999999999982 #
point $-1 -1 $-1 0.39999999999999997 -9.7968508305790171e-017 -4.9999999999999982 #
face $-1 -1 $-1 $187 $188 $20 $-1 $189 reversed single #
loop $-1 -1 $-1 $-1 $190 $83 #
coedge $-1 -1 $-1 $191 $192 $193 $194 reversed $84 $-1 #
coedge $-1 -1 $-1 $137 $85 $195 $196 forward $55 $-1 #
coedge $-1 -1 $-1 $197 $198 $85 $131 forward $199 $-1 #
edge $-1 -1 $-1 $200 -3.1415926535897931 $139 -1.5707963267948968 $130 $201 forward @7 unknown #
coedge $-1 -1 $-1 $87 $86 $202 $203 reversed $37 $-1 #
coedge $-1 -1 $-1 $204 $205 $86 $134 forward $206 $-1 #
edge $-1 -1 $-1 $207 1.2246063538223773e-016 $140 1.5707963267948968 $133 $208 forward @7 unknown #
coedge $-1 -1 $-1 $209 $210 $87 $136 forward $211 $-1 #
edge $-1 -1 $-1 $139 -1.5707963267948968 $212 -1.2246063538223773e-016 $135 $201 forward @7 unknown #
coedge $-1 -1 $-1 $88 $129 $213 $214 reversed $55 $-1 #
coedge $-1 -1 $-1 $215 $216 $217 $89 forward $218 $-1 #
vertex $-1 -1 $-1 $219 $220 #
vertex $-1 -1 $-1 $221 $222 #
straight-curve $-1 -1 $-1 0 -0.40000000000000002 -5.9999999999999991 0 0 -1 I I #
face $-1 -1 $-1 $223 $224 $21 $-1 $225 reversed single #
loop $-1 -1 $-1 $-1 $226 $90 #
plane-surface $-1 -1 $-1 -0.39999999999999997 0 0 1 0 0 0 0 -1 forward_v I I I I #
coedge $-1 -1 $-1 $227 $153 $228 $229 forward $91 $-1 #
coedge $-1 -1 $-1 $230 $93 $227 $231 forward $59 $-1 #
coedge $-1 -1 $-1 $93 $230 $232 $233 forward $59 $-1 #
coedge $-1 -1 $-1 $156 $155 $93 $149 reversed $157 $-1 #
edge $-1 -1 $-1 $234 -0.40000000000000002 $235 0.40000000000000002 $148 $236 forward @7 unknown #
coedge $-1 -1 $-1 $95 $94 $237 $238 forward $41 $-1 #
coedge $-1 -1 $-1 $239 $240 $94 $152 reversed $224 $-1 #
edge $-1 -1 $-1 $159 -0.39999999999999997 $241 0.39999999999999997 $151 $242 forward @7 unknown #
coedge $-1 -1 $-1 $145 $243 $95 $154 reversed $91 $-1 #
edge $-1 -1 $-1 $244 -0.39999999999999997 $158 0.39999999999999997 $153 $245 forward @7 unknown #
coedge $-1 -1 $-1 $148 $96 $243 $246 forward $157 $-1 #
coedge $-1 -1 $-1 $96 $148 $239 $247 reversed $157 $-1 #
loop $-1 -1 $-1 $-1 $155 $223 #
vertex $-1 -1 $-1 $97 $248 #
vertex $-1 -1 $-1 $97 $249 #
straight-curve $-1 -1 $-1 0.39999999999999997 0 6.0000000000000009 0 1 0 I I #
loop $-1 -1 $-1 $250 $251 $98 #
plane-surface $-1 -1 $-1 0.022377622377622371 0 5.3999999999999995 -1.3839665003877402e-031 1.0379748752908052e-031 1 1 0 1.3839665003877402e-031 forward_v I I I I #
loop $-1 -1 $-1 $-1 $104 $62 #
coedge $-1 -1 $-1 $164 $164 $102 $166 reversed $99 $-1 #
coedge $-1 -1 $-1 $165 $165 $251 $252 reversed $101 $-1 #
edge $-1 -1 $-1 $253 -3.1415926535897931 $253 3.1415926535897931 $102 $254 forward @7 unknown #
coedge $-1 -1 $-1 $167 $167 $103 $168 forward $250 $-1 #
edge $255 -1 $-1 $256 -3.1415926535897931 $256 3.1415926535897931 $103 $257 forward @7 unknown #
vertex $-1 -1 $-1 $105 $258 #
ellipse-curve $-1 -1 $-1 0 2.7755575615628914e-017 6.0000000000000009 0 0 1 0.25 0 0 1 I I #
model_id-kcp-attrib $-1 -1 $-1 $-1 $107 1 1021499367 1021499367 -1695219711 7 #
face $259 -1 $-1 $-1 $260 $8 $-1 $261 forward single #
loop $-1 -1 $-1 $-1 $262 $107 #
plane-surface $-1 -1 $-1 0 0 7 0 0 -1 1 0 0 forward_v I I I I #
coedge $-1 -1 $-1 $263 $264 $262 $265 forward $108 $-1 #
coedge $-1 -1 $-1 $110 $110 $266 $267 reversed $71 $-1 #
coedge $-1 -1 $-1 $264 $263 $110 $178 reversed $108 $-1 #
edge $268 -1 $-1 $269 0 $270 3.1415926535897931 $110 $271 forward @7 unknown #
attrib_edge_convexity-kcp-attrib $-1 -1 $272 $-1 $112 1 #
ellipse-curve $-1 -1 $-1 0 0 6.3999999999999995 0 0 1 -0.39999999999999997 0 0 1 I I #
straight-curve $-1 -1 $-1 0.39999999999999997 -9.7968508305790171e-017 -4.9999999999999982 0 0 1 I I #
straight-curve $-1 -1 $-1 -0.39999999999999997 4.8984254152895085e-017 -4.9999999999999982 0 0 1 I I #
convexity-sys-attrib $-1 -1 $-1 $117 $76 #
point $-1 -1 $-1 -0.39999999999999997 4.8984254152895085e-017 6.4000000000000004 #
point $-1 -1 $-1 0.39999999999999997 0 6.3999999999999995 #
convexity-sys-attrib $-1 -1 $-1 $121 $78 #
face $-1 -1 $-1 $273 $218 $20 $-1 $274 reversed single #
loop $-1 -1 $-1 $-1 $202 $126 #
plane-surface $-1 -1 $-1 -0.39999999999999997 0 0 1 0 0 0 0 -1 forward_v I I I I #
coedge $-1 -1 $-1 $195 $275 $276 $277 reversed $127 $-1 #
coedge $-1 -1 $-1 $278 $128 $279 $280 reversed $84 $-1 #
coedge $-1 -1 $-1 $128 $278 $132 $203 forward $84 $-1 #
coedge $-1 -1 $-1 $281 $282 $128 $194 forward $283 $-1 #
edge $-1 -1 $-1 $284 -1.5707963267948966 $207 1.2246063538223773e-016 $193 $208 forward @7 unknown #
coedge $-1 -1 $-1 $285 $190 $286 $196 reversed $127 $-1 #
edge $-1 -1 $-1 $200 -12 $287 1.7763568394002505e-015 $286 $288 forward @7 unknown #
coedge $-1 -1 $-1 $198 $130 $216 $219 forward $199 $-1 #
coedge $-1 -1 $-1 $130 $197 $289 $290 forward $199 $-1 #
loop $-1 -1 $-1 $-1 $130 $291 #
vertex $-1 -1 $-1 $292 $293 #
ellipse-curve $-1 -1 $-1 0 2.7755575615628914e-017 6.0000000000000009 0 0 -1 -0.39999999999999997 4.8984254152895085e-017 0 1 I I #
coedge $-1 -1 $-1 $294 $295 $296 $203 forward $188 $-1 #
edge $-1 -1 $-1 $212 -12 $207 1.7763568394002505e-015 $202 $297 forward @7 unknown #
coedge $-1 -1 $-1 $205 $133 $298 $221 forward $206 $-1 #
coedge $-1 -1 $-1 $133 $204 $294 $299 forward $206 $-1 #
loop $-1 -1 $-1 $-1 $133 $300 #
vertex $-1 -1 $-1 $301 $302 #
ellipse-curve $-1 -1 $-1 0 2.7755575615628914e-017 -6.0000000000000009 0 0 1 -0.39999999999999997 4.8984254152895085e-017 0 1 I I #
coedge $-1 -1 $-1 $210 $135 $295 $303 forward $211 $-1 #
coedge $-1 -1 $-1 $135 $209 $304 $305 forward $211 $-1 #
loop $-1 -1 $-1 $-1 $135 $306 #
vertex $-1 -1 $-1 $303 $307 #
coedge $-1 -1 $-1 $308 $309 $137 $214 forward $310 $-1 #
edge $-1 -1 $-1 $140 1.5707963267948968 $287 3.1415926535897931 $213 $208 forward @7 unknown #
coedge $-1 -1 $-1 $311 $138 $309 $312 reversed $218 $-1 #
coedge $-1 -1 $-1 $138 $311 $197 $219 reversed $218 $-1 #
coedge $-1 -1 $-1 $304 $298 $56 $89 reversed $313 $-1 #
loop $-1 -1 $-1 $-1 $138 $187 #
edge $-1 -1 $-1 $139 0 $314 0.39999999999999997 $216 $315 forward @7 unknown #
point $-1 -1 $-1 0 -0.40000000000000002 6.0000000000000009 #
edge $-1 -1 $-1 $140 0 $316 0.39999999999999997 $298 $317 forward @7 unknown #
point $-1 -1 $-1 0 -0.40000000000000002 -6.0000000000000009 #
face $-1 -1 $-1 $-1 $157 $21 $-1 $318 reversed single #
loop $-1 -1 $-1 $-1 $239 $142 #
plane-surface $-1 -1 $-1 0 0.40000000000000002 0 0 -1 0 0 0 -1 forward_v I I I I #
coedge $-1 -1 $-1 $319 $237 $240 $320 forward $143 $-1 #
coedge $-1 -1 $-1 $243 $145 $146 $231 reversed $91 $-1 #
coedge $-1 -1 $-1 $237 $319 $145 $229 reversed $143 $-1 #
edge $-1 -1 $-1 $244 -6.0000000000000009 $321 6.0000000000000009 $228 $322 forward @7 unknown #
coedge $-1 -1 $-1 $147 $146 $319 $323 forward $59 $-1 #
edge $-1 -1 $-1 $235 -0.39999999999999997 $321 0.39999999999999997 $227 $324 forward @7 unknown #
coedge $-1 -1 $-1 $240 $239 $147 $233 reversed $224 $-1 #
edge $-1 -1 $-1 $325 -0.39999999999999997 $234 0.39999999999999997 $232 $326 forward @7 unknown #
vertex $-1 -1 $-1 $149 $327 #
vertex $-1 -1 $-1 $246 $328 #
straight-curve $-1 -1 $-1 0.39999999999999997 0 -6.0000000000000009 0 -1 0 I I #
coedge $-1 -1 $-1 $226 $228 $150 $238 reversed $143 $-1 #
edge $-1 -1 $-1 $241 -0.40000000000000002 $244 0.40000000000000002 $237 $329 forward @7 unknown #
coedge $-1 -1 $-1 $232 $151 $156 $247 forward $224 $-1 #
coedge $-1 -1 $-1 $151 $232 $226 $320 reversed $224 $-1 #
vertex $-1 -1 $-1 $152 $330 #
straight-curve $-1 -1 $-1 0 0.40000000000000002 6.0000000000000009 -1 0 0 I I #
coedge $-1 -1 $-1 $153 $227 $155 $246 reversed $91 $-1 #
vertex $-1 -1 $-1 $238 $331 #
straight-curve $-1 -1 $-1 0 -0.40000000000000002 6.0000000000000009 1 0 0 I I #
edge $-1 -1 $-1 $158 -6.0000000000000009 $235 6.0000000000000009 $155 $332 forward @7 unknown #
edge $-1 -1 $-1 $159 -6.0000000000000009 $234 6.0000000000000009 $156 $333 forward @7 unknown #
point $-1 -1 $-1 0.39999999999999997 -0.40000000000000002 6.0000000000000009 #
point $-1 -1 $-1 0.39999999999999997 0.40000000000000002 6.0000000000000009 #
loop $-1 -1 $-1 $-1 $167 $98 #
coedge $-1 -1 $-1 $251 $251 $165 $252 forward $161 $-1 #
edge $334 -1 $-1 $335 -3.1415926535897931 $335 3.1415926535897931 $165 $336 forward @7 unknown #
vertex $-1 -1 $-1 $166 $337 #
ellipse-curve $-1 -1 $-1 0 2.7755575615628914e-017 6 0 0 -1 -0.39999999999999997 4.8984254152895085e-017 0 1 I I #
convexity-sys-attrib $-1 -1 $-1 $-1 $168 #
vertex $-1 -1 $-1 $168 $338 #
ellipse-curve $-1 -1 $-1 0 2.7755575615628914e-017 5.4000000000000004 0 0 1 0.25 0 0 1 I I #
point $-1 -1 $-1 0.25 -3.3474742075489949e-017 6.0000000000000009 #
model_id-kcp-attrib $-1 -1 $-1 $-1 $172 1 1021499367 1021499367 -1695219711 8 #
loop $-1 -1 $-1 $-1 $266 $172 #
cone-surface $-1 -1 $-1 0 0 7.5999999999999996 0 0 -1 0.25 0 0 1 I I 0 1 0.25 forward I I I I #
coedge $-1 -1 $-1 $339 $339 $175 $265 reversed $173 $-1 #
coedge $-1 -1 $-1 $177 $175 $340 $341 reversed $108 $-1 #
coedge $-1 -1 $-1 $175 $177 $342 $343 forward $108 $-1 #
edge $-1 -1 $-1 $344 1.2246063538223773e-016 $345 3.1415926535897931 $175 $346 forward @7 unknown #
coedge $-1 -1 $-1 $340 $342 $176 $267 forward $260 $-1 #
edge $347 -1 $-1 $269 0 $270 3.1415926535897931 $176 $348 forward @7 unknown #
attrib_edge_convexity-kcp-attrib $-1 -1 $349 $-1 $178 2 #
vertex $-1 -1 $-1 $267 $350 #
vertex $-1 -1 $-1 $267 $351 #
ellipse-curve $-1 -1 $-1 0 6.9388939039072284e-018 6.3999999999999995 0 0 -1 -0.25 2.3676264941652203e-017 0 1 I I #
convexity-sys-attrib $-1 -1 $-1 $179 $112 #
face $-1 -1 $-1 $352 $353 $20 $-1 $354 reversed single #
plane-surface $-1 -1 $-1 0 -0.40000000000000002 0 0 1 0 0 0 1 forward_v I I I I #
coedge $-1 -1 $-1 $190 $285 $191 $280 forward $127 $-1 #
coedge $-1 -1 $-1 $355 $356 $190 $277 forward $357 $-1 #
edge $-1 -1 $-1 $287 -3.1415926535897931 $284 -1.5707963267948966 $276 $208 forward @7 unknown #
coedge $-1 -1 $-1 $192 $191 $358 $359 reversed $84 $-1 #
coedge $-1 -1 $-1 $360 $361 $362 $280 forward $363 $-1 #
edge $-1 -1 $-1 $364 -12 $284 1.7763568394002505e-015 $279 $365 forward @7 unknown #
coedge $-1 -1 $-1 $282 $193 $366 $301 forward $283 $-1 #
coedge $-1 -1 $-1 $193 $281 $360 $367 forward $283 $-1 #
loop $-1 -1 $-1 $-1 $193 $368 #
vertex $-1 -1 $-1 $369 $370 #
coedge $-1 -1 $-1 $275 $195 $371 $372 reversed $127 $-1 #
coedge $-1 -1 $-1 $373 $374 $375 $196 forward $353 $-1 #
vertex $-1 -1 $-1 $376 $377 #
straight-curve $-1 -1 $-1 0.39999999999999997 2.7755575615628914e-017 -5.9999999999999991 0 0 -1 I I #
coedge $-1 -1 $-1 $378 $375 $198 $290 reversed $379 $-1 #
edge $-1 -1 $-1 $314 -0.40000000000000002 $200 2.7755575615628914e-017 $289 $380 forward @7 unknown #
face $-1 -1 $-1 $306 $199 $20 $-1 $381 forward single #
edge $-1 -1 $-1 $200 2.7755575615628914e-017 $382 0.40000000000000002 $374 $380 forward @7 unknown #
point $-1 -1 $-1 0.39999999999999997 2.7755575615628914e-017 6.0000000000000009 #
coedge $-1 -1 $-1 $383 $202 $205 $299 reversed $188 $-1 #
coedge $-1 -1 $-1 $202 $383 $209 $303 reversed $188 $-1 #
coedge $-1 -1 $-1 $384 $366 $192 $203 reversed $385 $-1 #
straight-curve $-1 -1 $-1 -0.39999999999999997 2.7755575615628914e-017 -5.9999999999999991 0 0 -1 I I #
coedge $-1 -1 $-1 $217 $386 $204 $221 reversed $313 $-1 #
edge $-1 -1 $-1 $316 -0.40000000000000002 $207 2.7755575615628914e-017 $294 $387 forward @7 unknown #
face $-1 -1 $-1 $388 $206 $20 $-1 $389 reversed single #
edge $-1 -1 $-1 $207 2.7755575615628914e-017 $390 0.40000000000000002 $366 $387 forward @7 unknown #
point $-1 -1 $-1 -0.39999999999999997 2.7755575615628914e-017 -6.0000000000000009 #
edge $-1 -1 $-1 $212 -2.7755575615628914e-017 $391 0.40000000000000002 $295 $392 forward @7 unknown #
coedge $-1 -1 $-1 $386 $217 $210 $305 reversed $313 $-1 #
edge $-1 -1 $-1 $391 -0.39999999999999997 $139 0 $304 $315 forward @7 unknown #
face $-1 -1 $-1 $393 $211 $20 $-1 $381 forward single #
point $-1 -1 $-1 -0.39999999999999997 2.7755575615628914e-017 6.0000000000000009 #
coedge $-1 -1 $-1 $309 $213 $394 $376 forward $310 $-1 #
coedge $-1 -1 $-1 $213 $308 $215 $312 forward $310 $-1 #
loop $-1 -1 $-1 $-1 $213 $388 #
coedge $-1 -1 $-1 $216 $215 $378 $395 reversed $218 $-1 #
edge $-1 -1 $-1 $396 -0.39999999999999997 $140 0 $215 $317 forward @7 unknown #
loop $-1 -1 $-1 $-1 $217 $397 #
vertex $-1 -1 $-1 $290 $398 #
straight-curve $-1 -1 $-1 0 -0.40000000000000002 6.0000000000000009 1 0 0 I I #
vertex $-1 -1 $-1 $299 $399 #
straight-curve $-1 -1 $-1 0 -0.40000000000000002 -6.0000000000000009 -1 0 0 I I #
plane-surface $-1 -1 $-1 0.39999999999999997 0 0 -1 0 0 0 0 1 forward_v I I I I #
coedge $-1 -1 $-1 $228 $226 $230 $323 reversed $143 $-1 #
edge $-1 -1 $-1 $241 -6.0000000000000009 $325 6.0000000000000009 $240 $400 forward @7 unknown #
vertex $-1 -1 $-1 $323 $401 #
straight-curve $-1 -1 $-1 -0.39999999999999997 -0.40000000000000002 0 0 0 -1 I I #
edge $-1 -1 $-1 $321 -0.40000000000000002 $325 0.40000000000000002 $319 $402 forward @7 unknown #
straight-curve $-1 -1 $-1 0 -0.40000000000000002 -6.0000000000000009 -1 0 0 I I #
vertex $-1 -1 $-1 $233 $403 #
straight-curve $-1 -1 $-1 0 0.40000000000000002 -6.0000000000000009 1 0 0 I I #
point $-1 -1 $-1 0.39999999999999997 0.40000000000000002 -6.0000000000000009 #
point $-1 -1 $-1 0.39999999999999997 -0.40000000000000002 -6.0000000000000009 #
straight-curve $-1 -1 $-1 -0.39999999999999997 0 6.0000000000000009 0 -1 0 I I #
point $-1 -1 $-1 -0.39999999999999997 0.40000000000000002 6.0000000000000009 #
point $-1 -1 $-1 -0.39999999999999997 -0.40000000000000002 6.0000000000000009 #
straight-curve $-1 -1 $-1 0.39999999999999997 -0.40000000000000002 0 0 0 -1 I I #
straight-curve $-1 -1 $-1 0.39999999999999997 0.40000000000000002 0 0 0 -1 I I #
convexity-sys-attrib $-1 -1 $-1 $-1 $252 #
vertex $-1 -1 $-1 $252 $404 #
ellipse-curve $-1 -1 $-1 0 2.7755575615628914e-017 5.3999999999999995 0 0 -1 -0.39999999999999997 4.8984254152895085e-017 0 1 I I #
point $-1 -1 $-1 0.39999999999999997 -7.0212932690161257e-017 6 #
point $-1 -1 $-1 -0.25 5.8370734461188345e-017 5.4000000000000004 #
coedge $-1 -1 $-1 $262 $262 $405 $406 forward $173 $-1 #
coedge $-1 -1 $-1 $405 $266 $263 $341 forward $260 $-1 #
edge $-1 -1 $-1 $270 0 $345 0.60000000000000053 $263 $407 forward @7 unknown #
coedge $-1 -1 $-1 $266 $405 $264 $343 reversed $260 $-1 #
edge $-1 -1 $-1 $269 0 $344 0.60000000000000053 $264 $408 forward @7 unknown #
vertex $-1 -1 $-1 $343 $409 #
vertex $-1 -1 $-1 $341 $410 #
ellipse-curve $-1 -1 $-1 0 0 7 0 0 -1 -0.25 0 0 1 I I #
attrib_edge_convexity-kcp-attrib $-1 -1 $411 $-1 $267 2 #
ellipse-curve $-1 -1 $-1 2.7755575615628914e-017 -1.3877787807814457e-017 6.3999999999999995 0 0 1 -0.25 4.4492946653373888e-017 0 1 I I #
convexity-sys-attrib $-1 -1 $-1 $268 $178 #
point $-1 -1 $-1 -0.25 3.0615158845559431e-017 6.3999999999999995 #
point $-1 -1 $-1 0.25 -6.1230317691118863e-017 6.3999999999999995 #
face $-1 -1 $-1 $291 $412 $20 $-1 $381 forward single #
loop $-1 -1 $-1 $-1 $286 $273 #
plane-surface $-1 -1 $-1 0.39999999999999997 0 0 -1 0 0 0 0 1 forward_v I I I I #
coedge $-1 -1 $-1 $356 $276 $413 $369 forward $357 $-1 #
coedge $-1 -1 $-1 $276 $355 $373 $414 forward $357 $-1 #
loop $-1 -1 $-1 $-1 $276 $415 #
coedge $-1 -1 $-1 $416 $417 $278 $359 forward $418 $-1 #
edge $-1 -1 $-1 $212 -1.2246063538223773e-016 $364 1.5707963267948966 $358 $201 forward @7 unknown #
coedge $-1 -1 $-1 $419 $279 $282 $367 reversed $363 $-1 #
coedge $-1 -1 $-1 $279 $419 $416 $420 reversed $363 $-1 #
coedge $-1 -1 $-1 $421 $413 $275 $280 reversed $422 $-1 #
loop $-1 -1 $-1 $-1 $279 $423 #
vertex $-1 -1 $-1 $420 $424 #
straight-curve $-1 -1 $-1 0 0.40000000000000002 -5.9999999999999991 0 0 -1 I I #
coedge $-1 -1 $-1 $296 $425 $281 $301 reversed $385 $-1 #
edge $-1 -1 $-1 $390 -0.39999999999999997 $284 0 $360 $426 forward @7 unknown #
face $-1 -1 $-1 $300 $283 $20 $-1 $389 reversed single #
edge $-1 -1 $-1 $284 0 $427 0.39999999999999997 $413 $426 forward @7 unknown #
point $-1 -1 $-1 0 0.40000000000000002 -6.0000000000000009 #
coedge $-1 -1 $-1 $428 $429 $285 $372 forward $412 $-1 #
edge $-1 -1 $-1 $364 1.5707963267948966 $200 3.1415926535897931 $371 $201 forward @7 unknown #
coedge $-1 -1 $-1 $430 $286 $356 $414 reversed $353 $-1 #
coedge $-1 -1 $-1 $286 $430 $428 $292 reversed $353 $-1 #
coedge $-1 -1 $-1 $289 $394 $129 $196 reversed $379 $-1 #
edge $-1 -1 $-1 $287 -2.7755575615628914e-017 $396 0.40000000000000002 $394 $431 forward @7 unknown #
point $-1 -1 $-1 0.39999999999999997 2.7755575615628914e-017 -6.0000000000000009 #
coedge $-1 -1 $-1 $394 $289 $311 $395 forward $379 $-1 #
loop $-1 -1 $-1 $-1 $375 $432 #
straight-curve $-1 -1 $-1 0.39999999999999997 0 6.0000000000000009 0 1 0 I I #
plane-surface $-1 -1 $-1 0 0 6.0000000000000009 0 0 1 1 0 0 forward_v I I I I #
vertex $-1 -1 $-1 $292 $433 #
coedge $-1 -1 $-1 $295 $294 $386 $434 reversed $188 $-1 #
coedge $-1 -1 $-1 $425 $296 $417 $435 reversed $385 $-1 #
loop $-1 -1 $-1 $-1 $296 $436 #
coedge $-1 -1 $-1 $298 $304 $383 $434 forward $313 $-1 #
straight-curve $-1 -1 $-1 -0.39999999999999997 0 -6.0000000000000009 0 1 0 I I #
face $-1 -1 $-1 $397 $310 $20 $-1 $389 reversed single #
plane-surface $-1 -1 $-1 0 0 -6.0000000000000009 0 0 1 1 0 0 forward_v I I I I #
vertex $-1 -1 $-1 $367 $437 #
vertex $-1 -1 $-1 $303 $438 #
straight-curve $-1 -1 $-1 -0.39999999999999997 0 6.0000000000000009 0 -1 0 I I #
face $-1 -1 $-1 $423 $418 $20 $-1 $381 forward single #
coedge $-1 -1 $-1 $375 $378 $308 $376 reversed $379 $-1 #
edge $-1 -1 $-1 $314 -6.0000000000000009 $396 6.0000000000000009 $378 $439 forward @7 unknown #
vertex $-1 -1 $-1 $395 $440 #
face $-1 -1 $-1 $436 $313 $20 $-1 $274 reversed single #
point $-1 -1 $-1 0.39999999999999997 -0.40000000000000002 6.0000000000000009 #
point $-1 -1 $-1 -0.39999999999999997 -0.40000000000000002 -6.0000000000000009 #
straight-curve $-1 -1 $-1 -0.39999999999999997 0.40000000000000002 0 0 0 -1 I I #
point $-1 -1 $-1 -0.39999999999999997 -0.40000000000000002 -6.0000000000000009 #
straight-curve $-1 -1 $-1 -0.39999999999999997 0 -6.0000000000000009 0 1 0 I I #
point $-1 -1 $-1 -0.39999999999999997 0.40000000000000002 -6.0000000000000009 #
point $-1 -1 $-1 0.39999999999999997 -7.0212932690161257e-017 5.3999999999999995 #
coedge $-1 -1 $-1 $342 $340 $339 $406 reversed $260 $-1 #
edge $-1 -1 $-1 $344 -1.2246063538223773e-016 $345 3.1415926535897931 $339 $441 forward @7 unknown #
straight-curve $-1 -1 $-1 0.25 -6.1230317691118863e-017 6.3999999999999995 0 0 1 I I #
straight-curve $-1 -1 $-1 -0.25 3.0615158845559431e-017 6.3999999999999995 0 0 1 I I #
point $-1 -1 $-1 -0.25 3.0615158845559431e-017 7 #
point $-1 -1 $-1 0.25 0 7 #
convexity-sys-attrib $-1 -1 $-1 $347 $267 #
loop $-1 -1 $-1 $-1 $371 $352 #
coedge $-1 -1 $-1 $362 $442 $355 $369 reversed $422 $-1 #
edge $-1 -1 $-1 $427 -0.40000000000000002 $287 -2.7755575615628914e-017 $373 $431 forward @7 unknown #
face $-1 -1 $-1 $368 $357 $20 $-1 $389 reversed single #
coedge $-1 -1 $-1 $417 $358 $361 $420 forward $418 $-1 #
coedge $-1 -1 $-1 $358 $416 $384 $435 forward $418 $-1 #
loop $-1 -1 $-1 $-1 $358 $393 #
coedge $-1 -1 $-1 $361 $360 $425 $443 reversed $363 $-1 #
edge $-1 -1 $-1 $364 0 $444 0.39999999999999997 $361 $445 forward @7 unknown #
coedge $-1 -1 $-1 $442 $362 $429 $446 reversed $422 $-1 #
loop $-1 -1 $-1 $-1 $362 $447 #
face $-1 -1 $-1 $415 $363 $20 $-1 $448 reversed single #
point $-1 -1 $-1 0 0.40000000000000002 6.0000000000000009 #
coedge $-1 -1 $-1 $366 $384 $419 $443 forward $385 $-1 #
straight-curve $-1 -1 $-1 0 0.40000000000000002 -6.0000000000000009 1 0 0 I I #
vertex $-1 -1 $-1 $414 $449 #
coedge $-1 -1 $-1 $429 $371 $374 $292 forward $412 $-1 #
coedge $-1 -1 $-1 $371 $428 $421 $446 forward $412 $-1 #
coedge $-1 -1 $-1 $374 $373 $442 $450 reversed $353 $-1 #
straight-curve $-1 -1 $-1 0.39999999999999997 0 -6.0000000000000009 0 -1 0 I I #
face $-1 -1 $-1 $-1 $379 $20 $-1 $354 reversed single #
point $-1 -1 $-1 0.39999999999999997 0.40000000000000002 6.0000000000000009 #
edge $-1 -1 $-1 $391 -6.0000000000000009 $316 6.0000000000000009 $383 $451 forward @7 unknown #
edge $-1 -1 $-1 $444 -0.40000000000000002 $212 -2.7755575615628914e-017 $384 $392 forward @7 unknown #
face $-1 -1 $-1 $447 $385 $20 $-1 $189 reversed single #
point $-1 -1 $-1 -0.39999999999999997 0.40000000000000002 -6.0000000000000009 #
point $-1 -1 $-1 -0.39999999999999997 -0.40000000000000002 6.0000000000000009 #
straight-curve $-1 -1 $-1 0.39999999999999997 -0.40000000000000002 0 0 0 -1 I I #
point $-1 -1 $-1 0.39999999999999997 -0.40000000000000002 -6.0000000000000009 #
ellipse-curve $-1 -1 $-1 0 0 7 0 0 1 -0.25 0 0 1 I I #
coedge $-1 -1 $-1 $413 $421 $430 $450 forward $422 $-1 #
edge $-1 -1 $-1 $444 -6.0000000000000009 $390 6.0000000000000009 $419 $452 forward @7 unknown #
vertex $-1 -1 $-1 $420 $453 #
straight-curve $-1 -1 $-1 0 0.40000000000000002 6.0000000000000009 -1 0 0 I I #
edge $-1 -1 $-1 $382 -0.39999999999999997 $364 0 $421 $445 forward @7 unknown #
face $-1 -1 $-1 $432 $422 $20 $-1 $448 reversed single #
plane-surface $-1 -1 $-1 0 0.40000000000000002 0 0 -1 0 0 0 -1 forward_v I I I I #
point $-1 -1 $-1 0.39999999999999997 0.40000000000000002 -6.0000000000000009 #
edge $-1 -1 $-1 $382 -6.0000000000000009 $427 6.0000000000000009 $430 $454 forward @7 unknown #
straight-curve $-1 -1 $-1 -0.39999999999999997 -0.40000000000000002 0 0 0 -1 I I #
straight-curve $-1 -1 $-1 -0.39999999999999997 0.40000000000000002 0 0 0 -1 I I #
point $-1 -1 $-1 -0.39999999999999997 0.40000000000000002 6.0000000000000009 #
straight-curve $-1 -1 $-1 0.39999999999999997 0.40000000000000002 0 0 0 -1 I I #
End-of-ACIS-data 