600 0 1 0           
88 GICL ACIS Healer - Source: /gicl/data5/repository/PTC/V18/fly_small18/zoom_pin.sat - 6 0 18 ACIS 6.0.3 Solaris 24 Sat Apr 13 22:06:47 2002 
1 9.999999999999999547e-07 1.000000000000000036e-10 
body $-1 $1 $-1 $-1 #
lump $-1 $-1 $2 $0 #
shell $-1 $-1 $-1 $3 $-1 $1 #
face $-1 $4 $5 $2 $-1 $6 forward single #
face $-1 $7 $8 $2 $-1 $9 forward single #
loop $-1 $-1 $10 $3 #
plane-surface $-1 0 0 -5 0 0 -1 1 0 0 forward_v I I I I #
face $-1 $11 $12 $2 $-1 $13 reversed single #
loop $-1 $-1 $14 $4 #
cone-surface $-1 0 0 7.599999999999999645 0 0 -1 0.3999999999999999667 0 0 1 I I 0 1 0.3999999999999999667 forward I I I I #
coedge $-1 $15 $15 $16 $17 forward $5 $-1 #
face $-1 $18 $19 $2 $-1 $20 forward single #
loop $-1 $21 $22 $7 #
plane-surface $-1 0 0 6.399999999999999467 0 0 -1 1 0 0 forward_v I I I I #
coedge $-1 $23 $24 $25 $26 forward $8 $-1 #
coedge $-1 $10 $10 $27 $28 reversed $5 $-1 #
coedge $-1 $24 $23 $10 $17 reversed $8 $-1 #
edge $-1 $29 0 $30 3.141592653589793116 $10 $31 forward 7 unknown #
face $-1 $32 $33 $2 $-1 $34 forward single #
loop $-1 $-1 $27 $11 #
cone-surface $-1 0 0 7.599999999999999645 0 0 -1 0.3999999999999999667 0 0 1 I I 0 1 0.3999999999999999667 forward I I I I #
loop $-1 $-1 $35 $7 #
coedge $-1 $25 $25 $36 $37 forward $12 $-1 #
coedge $-1 $16 $14 $38 $39 reversed $8 $-1 #
coedge $-1 $14 $16 $40 $41 forward $8 $-1 #
coedge $-1 $22 $22 $14 $26 reversed $12 $-1 #
edge $-1 $42 1.224606353822377258e-16 $43 3.141592653589793116 $14 $44 forward 7 unknown #
coedge $-1 $38 $40 $15 $28 forward $19 $-1 #
edge $-1 $29 0 $30 3.141592653589793116 $15 $45 forward 7 unknown #
vertex $-1 $28 $46 #
vertex $-1 $28 $47 #
ellipse-curve $-1 0 -4.163336342344337027e-17 -5 -4.440892098500626162e-15 1.006057654699282504e-30 -1 -0.3999999999999999667 9.061761757633845566e-17 1.776356839400250465e-15 1 I I #
face $-1 $48 $49 $2 $-1 $50 reversed single #
loop $-1 $-1 $51 $18 #
cone-surface $-1 0 0 7.599999999999999645 0 0 -1 0.25 0 0 1 I I 0 1 0.25 forward I I I I #
coedge $-1 $52 $52 $53 $54 forward $21 $-1 #
coedge $-1 $40 $38 $22 $37 reversed $19 $-1 #
edge $-1 $42 -1.224606353822377258e-16 $43 3.141592653589793116 $22 $55 forward 7 unknown #
coedge $-1 $36 $27 $23 $39 forward $19 $-1 #
edge $-1 $30 0 $43 11.39999999999999858 $23 $56 forward 7 unknown #
coedge $-1 $27 $36 $24 $41 reversed $19 $-1 #
edge $-1 $29 0 $42 11.39999999999999858 $24 $57 forward 7 unknown #
vertex $-1 $41 $58 #
vertex $-1 $39 $59 #
ellipse-curve $-1 0 0 6.399999999999999467 0 0 -1 -0.3999999999999999667 0 0 1 I I #
ellipse-curve $-1 0 -6.938893903907228378e-17 -5 4.440892098500626162e-15 -1.31420644580124024e-30 1 -0.3999999999999999667 1.183731931919673692e-16 1.776356839400250465e-15 1 I I #
point $-1 -0.3999999999999999667 4.89842541528950854e-17 -4.999999999999998224 #
point $-1 0.3999999999999999667 -9.79685083057901708e-17 -4.999999999999998224 #
face $-1 $-1 $60 $2 $-1 $61 forward single #
loop $-1 $-1 $62 $32 #
plane-surface $-1 0 0 7 0 0 -1 1 0 0 forward_v I I I I #
coedge $-1 $63 $64 $62 $65 forward $33 $-1 #
coedge $-1 $35 $35 $66 $67 reversed $21 $-1 #
coedge $-1 $64 $63 $35 $54 reversed $33 $-1 #
edge $-1 $68 0 $69 3.141592653589793116 $35 $70 forward 7 unknown #
ellipse-curve $-1 0 0 6.399999999999999467 0 0 1 -0.3999999999999999667 0 0 1 I I #
straight-curve $-1 0.3999999999999999667 -9.79685083057901708e-17 -4.999999999999998224 0 0 1 I I #
straight-curve $-1 -0.3999999999999999667 4.89842541528950854e-17 -4.999999999999998224 0 0 1 I I #
point $-1 -0.3999999999999999667 4.89842541528950854e-17 6.400000000000000355 #
point $-1 0.3999999999999999667 0 6.399999999999999467 #
loop $-1 $-1 $66 $48 #
cone-surface $-1 0 0 7.599999999999999645 0 0 -1 0.25 0 0 1 I I 0 1 0.25 forward I I I I #
coedge $-1 $71 $71 $51 $65 reversed $49 $-1 #
coedge $-1 $53 $51 $72 $73 reversed $33 $-1 #
coedge $-1 $51 $53 $74 $75 forward $33 $-1 #
edge $-1 $76 1.224606353822377258e-16 $77 3.141592653589793116 $51 $78 forward 7 unknown #
coedge $-1 $72 $74 $52 $67 forward $60 $-1 #
edge $-1 $68 0 $69 3.141592653589793116 $52 $79 forward 7 unknown #
vertex $-1 $67 $80 #
vertex $-1 $67 $81 #
ellipse-curve $-1 0 6.938893903907228378e-18 6.399999999999999467 0 0 -1 -0.25 2.367626494165220308e-17 0 1 I I #
coedge $-1 $62 $62 $82 $83 forward $49 $-1 #
coedge $-1 $82 $66 $63 $73 forward $60 $-1 #
edge $-1 $69 0 $77 0.6000000000000005329 $63 $84 forward 7 unknown #
coedge $-1 $66 $82 $64 $75 reversed $60 $-1 #
edge $-1 $68 0 $76 0.6000000000000005329 $64 $85 forward 7 unknown #
vertex $-1 $75 $86 #
vertex $-1 $73 $87 #
ellipse-curve $-1 0 0 7 0 0 -1 -0.25 0 0 1 I I #
ellipse-curve $-1 2.775557561562891351e-17 -1.387778780781445676e-17 6.399999999999999467 0 0 1 -0.25 4.449294665337388821e-17 0 1 I I #
point $-1 -0.25 3.061515884555943146e-17 6.399999999999999467 #
point $-1 0.25 -6.123031769111886291e-17 6.399999999999999467 #
coedge $-1 $74 $72 $71 $83 reversed $60 $-1 #
edge $-1 $76 -1.224606353822377258e-16 $77 3.141592653589793116 $71 $88 forward 7 unknown #
straight-curve $-1 0.25 -6.123031769111886291e-17 6.399999999999999467 0 0 1 I I #
straight-curve $-1 -0.25 3.061515884555943146e-17 6.399999999999999467 0 0 1 I I #
point $-1 -0.25 3.061515884555943146e-17 7 #
point $-1 0.25 0 7 #
ellipse-curve $-1 0 0 7 0 0 1 -0.25 0 0 1 I I #
End-of-ACIS-data 