600 0 1 0           
98 GICL Pro/E ACIS Translator - Source: f:/data5/repository/PTC/V18/fly_small18/zoom_lens_a.prt - 6 0 13 ACIS 6.0.3 NT 24 Thu Apr 04 10:01:30 2002 
1 9.9999999999999995e-007 1e-010 
body $-1 $1 $-1 $-1 #
lump $-1 $-1 $2 $0 #
shell $-1 $-1 $-1 $3 $-1 $1 #
face $-1 $4 $5 $2 $-1 $6 forward single #
face $-1 $7 $8 $2 $-1 $9 forward single #
loop $-1 $-1 $10 $3 #
sphere-surface $-1 0 0 -2 9 1 0 0 0 0 1 forward_v I I I I #
face $-1 $11 $12 $2 $-1 $13 forward single #
loop $-1 $-1 $14 $4 #
sphere-surface $-1 0 0 -2 9 1 0 0 0 0 1 forward_v I I I I #
coedge $-1 $15 $16 $17 $18 reversed $5 $-1 #
face $-1 $19 $20 $2 $-1 $21 forward single #
loop $-1 $-1 $22 $7 #
cone-surface $-1 0 0 7.3499999999999996 0 0 -1 8.25 0 0 1 I I 0 1 8.25 forward I I I I #
coedge $-1 $17 $23 $24 $25 forward $8 $-1 #
coedge $-1 $16 $10 $26 $27 reversed $5 $-1 #
coedge $-1 $10 $15 $23 $28 forward $5 $-1 #
coedge $-1 $23 $14 $10 $18 forward $8 $-1 #
edge $-1 $29 0 $30 1.1596584644725485 $10 $31 forward 7 unknown #
face $-1 $-1 $32 $2 $-1 $33 forward single #
loop $-1 $-1 $34 $11 #
plane-surface $-1 0 0 0 0 0 -1 1 0 0 forward_v I I I I #
coedge $-1 $35 $36 $37 $38 forward $12 $-1 #
coedge $-1 $14 $17 $16 $28 reversed $8 $-1 #
coedge $-1 $36 $35 $14 $25 reversed $12 $-1 #
edge $-1 $39 0 $29 3.1415926535897936 $14 $40 forward 7 unknown #
coedge $-1 $41 $42 $15 $27 forward $32 $-1 #
edge $-1 $39 0 $29 3.1415926535897931 $15 $43 forward 7 unknown #
edge $-1 $39 0 $30 1.1596584644725487 $16 $44 forward 7 unknown #
vertex $-1 $27 $45 #
vertex $-1 $28 $46 #
ellipse-curve $-1 0 0 -2 -2.4492127076447545e-016 -1 -5.8434141127482364e-032 8.2499999999999982 -2.0206004838069221e-015 3.5968736424845424 1 I I #
loop $-1 $-1 $26 $19 #
cone-surface $-1 0 0 7.3499999999999996 0 0 -1 8.25 0 0 1 I I 0 1 8.25 forward I I I I #
coedge $-1 $37 $37 $47 $48 forward $20 $-1 #
coedge $-1 $24 $22 $41 $49 forward $12 $-1 #
coedge $-1 $22 $24 $42 $50 reversed $12 $-1 #
coedge $-1 $34 $34 $22 $38 reversed $20 $-1 #
edge $-1 $51 0 $52 3.1415926535897931 $37 $53 forward 7 unknown #
vertex $-1 $28 $54 #
ellipse-curve $-1 -4.4408920985006262e-016 -3.1086244689504383e-015 1.5968736424845424 0 0 1 -8.2499999999999982 4.1189247108538996e-015 0 1 I I #
coedge $-1 $47 $26 $35 $49 reversed $32 $-1 #
coedge $-1 $26 $47 $36 $50 forward $32 $-1 #
ellipse-curve $-1 -8.8817841970012523e-016 8.8817841970012523e-016 1.5968736424845424 0 0 -1 -8.2499999999999964 1.2212182220333581e-016 0 1 I I #
ellipse-curve $-1 0 0 -2 1.2246063538223773e-016 1 -2.9217070563741182e-032 -8.2499999999999982 1.010300241903461e-015 3.5968736424845424 1 I I #
point $-1 8.2499999999999982 -2.0206004838069221e-015 1.5968736424845424 #
point $-1 1.6532185776602093e-015 -2.0245419744598855e-031 7 #
coedge $-1 $42 $41 $34 $48 reversed $32 $-1 #
edge $-1 $51 0 $52 3.1415926535897931 $34 $55 forward 7 unknown #
edge $-1 $52 0 $29 1.5968736424845424 $41 $56 forward 7 unknown #
edge $-1 $51 0 $39 1.5968736424845424 $42 $57 forward 7 unknown #
vertex $-1 $38 $58 #
vertex $-1 $38 $59 #
ellipse-curve $-1 -4.4408920985006262e-016 -8.8817841970012523e-016 0 0 0 1 -8.25 1.8984786616035865e-015 0 1 I I #
point $-1 -8.2499999999999982 1.010300241903461e-015 1.5968736424845424 #
ellipse-curve $-1 -4.4408920985006262e-016 -8.8817841970012523e-016 0 0 0 -1 -8.25 1.8984786616035865e-015 0 1 I I #
straight-curve $-1 8.25 -2.0206004838069225e-015 0 0 0 1 I I #
straight-curve $-1 -8.25 1.0103002419034612e-015 0 0 0 1 I I #
point $-1 -8.25 1.0103002419034612e-015 0 #
point $-1 8.25 -2.0206004838069225e-015 0 #
End-of-ACIS-data 