700 0 2 0           
24 FBMach with ACIS - 7.0.3 13 ACIS 7.0.3 NT 24 Wed May 15 18:05:31 2002 
1 9.9999999999999995e-007 1e-010 
body $2 -1 $-1 $3 $-1 $4 #
bdycol-kcp $-1 -1 1 3 $5 $6 $7 #
model_id-kcp-attrib $-1 -1 $-1 $-1 $0 1 1021500330 1021500330 -683999231 1 #
lump $-1 -1 $-1 $-1 $8 $0 #
transform $-1 -1 1 0 0 0 1 0 0 0 1 0 0 0 1 rotate no_reflect no_shear #
body $9 -1 $-1 $10 $-1 $11 #
body $12 -1 $-1 $13 $-1 $14 #
body $15 -1 $-1 $16 $-1 $17 #
shell $-1 -1 $-1 $-1 $-1 $18 $-1 $3 #
model_id-kcp-attrib $-1 -1 $-1 $-1 $5 1 1021500330 1021500330 -683999230 1 #
lump $-1 -1 $-1 $-1 $19 $5 #
transform $-1 -1 1 0 0 0 1 0 0 0 1 2.7999999999999998 0 0.0050000000000000001 1 no_rotate no_reflect no_shear #
rgb_color-st-attrib $-1 -1 $20 $-1 $6 0.5 1 1 #
lump $-1 -1 $-1 $-1 $21 $6 #
transform $-1 -1 1 0 0 0 1 0 0 0 1 0 0 0 1 no_rotate no_reflect no_shear #
rgb_color-st-attrib $-1 -1 $22 $-1 $7 0.5 1 1 #
lump $-1 -1 $-1 $-1 $23 $7 #
transform $-1 -1 1 0 0 0 1 0 0 0 1 0 0 0 1 no_rotate no_reflect no_shear #
face $24 -1 $-1 $25 $26 $8 $-1 $27 reversed single #
shell $-1 -1 $-1 $-1 $-1 $28 $-1 $10 #
model_id-kcp-attrib $-1 -1 $-1 $12 $6 1 1021500330 1021500330 -674824189 1 #
shell $-1 -1 $-1 $-1 $-1 $29 $-1 $13 #
model_id-kcp-attrib $-1 -1 $-1 $15 $7 1 1021500330 1021500330 -673513468 1 #
shell $-1 -1 $-1 $-1 $-1 $30 $-1 $16 #
model_id-kcp-attrib $-1 -1 $-1 $-1 $18 1 1021500330 1021500330 -683999231 2 #
face $31 -1 $-1 $32 $33 $8 $-1 $34 reversed single #
loop $-1 -1 $-1 $35 $36 $18 #
plane-surface $-1 -1 $-1 0 0 0 0 0 1 1 0 0 forward_v I I I I #
face $37 -1 $-1 $38 $39 $19 $-1 $40 forward single #
face $-1 -1 $-1 $41 $42 $21 $-1 $43 forward single #
face $-1 -1 $-1 $44 $45 $23 $-1 $46 forward single #
model_id-kcp-attrib $-1 -1 $-1 $-1 $25 1 1021500330 1021500330 -683999231 3 #
face $47 -1 $-1 $48 $49 $8 $-1 $50 reversed single #
loop $-1 -1 $-1 $-1 $51 $25 #
cone-surface $-1 -1 $-1 11 -1 0 0 0 1 1.2 0 0 1 I I 0 1 1.2 forward I I I I #
loop $-1 -1 $-1 $52 $53 $18 #
coedge $-1 -1 $-1 $54 $54 $55 $56 reversed $26 $-1 #
model_id-kcp-attrib $-1 -1 $-1 $-1 $28 1 1021500330 1021500330 -683999230 3 #
face $57 -1 $-1 $58 $59 $19 $-1 $60 reversed single #
loop $-1 -1 $-1 $-1 $61 $28 #
plane-surface $-1 -1 $-1 0 0 0.0050000000000000001 0 0 1 1 0 0 forward_v I I I I #
face $-1 -1 $-1 $62 $63 $21 $-1 $64 forward single #
loop $-1 -1 $-1 $65 $66 $29 #
cone-surface $-1 -1 $-1 11 -1 0 0 0 1 -1.2000000000000011 0 0 1 I I 0 1 1.2000000000000011 forward I I I I #
face $-1 -1 $-1 $67 $68 $23 $-1 $69 forward single #
loop $-1 -1 $-1 $-1 $70 $30 #
plane-surface $-1 -1 $-1 -2.4494897427831783 2.5 0 0 1 0 0 0 1 forward_v I I I I #
model_id-kcp-attrib $-1 -1 $-1 $-1 $32 1 1021500330 1021500330 -683999231 4 #
face $71 -1 $-1 $72 $73 $8 $-1 $74 forward single #
loop $-1 -1 $-1 $-1 $75 $32 #
cone-surface $-1 -1 $-1 11 -1 0 0 0 1 1.2 0 0 1 I I 0 1 1.2 forward I I I I #
coedge $-1 -1 $-1 $76 $55 $77 $78 forward $33 $-1 #
loop $-1 -1 $-1 $-1 $79 $18 #
coedge $-1 -1 $-1 $80 $81 $82 $83 reversed $35 $-1 #
coedge $-1 -1 $-1 $36 $36 $84 $85 reversed $26 $-1 #
coedge $-1 -1 $-1 $51 $86 $36 $56 forward $33 $-1 #
edge $87 -1 $-1 $88 0 $89 3.1415926535897931 $36 $90 forward @7 unknown #
model_id-kcp-attrib $-1 -1 $-1 $-1 $38 1 1021500330 1021500330 -683999230 2 #
face $91 -1 $-1 $92 $93 $19 $-1 $94 reversed single #
loop $-1 -1 $-1 $-1 $95 $38 #
plane-surface $-1 -1 $-1 0 0 -0.0050000000000000001 0 0 1 1 0 0 forward_v I I I I #
coedge $-1 -1 $-1 $96 $97 $98 $99 forward $39 $-1 #
face $-1 -1 $-1 $-1 $100 $21 $-1 $101 reversed single #
loop $-1 -1 $-1 $-1 $102 $41 #
plane-surface $-1 -1 $-1 10.999999999999998 -0.99999999999999889 0.01 0 0 1 1 0 0 forward_v I I I I #
loop $-1 -1 $-1 $-1 $103 $29 #
coedge $-1 -1 $-1 $66 $66 $102 $104 forward $42 $-1 #
face $-1 -1 $-1 $105 $106 $23 $-1 $107 forward single #
loop $-1 -1 $-1 $-1 $108 $44 #
cone-surface $-1 -1 $-1 0 0 0 0 0 1 2.4494897427831779 2.5 0 1 I I 0 1 3.5 forward I I I I #
coedge $-1 -1 $-1 $109 $110 $111 $112 forward $45 $-1 #
model_id-kcp-attrib $-1 -1 $-1 $-1 $48 1 1021500330 1021500330 -683999231 5 #
face $113 -1 $-1 $114 $115 $8 $-1 $116 forward single #
loop $-1 -1 $-1 $117 $118 $48 #
plane-surface $-1 -1 $-1 0 0 0.01 0 0 1 1 0 0 forward_v I I I I #
coedge $-1 -1 $-1 $119 $84 $86 $120 forward $49 $-1 #
coedge $-1 -1 $-1 $86 $51 $118 $121 reversed $33 $-1 #
coedge $-1 -1 $-1 $84 $119 $51 $78 reversed $49 $-1 #
edge $-1 -1 $-1 $89 0 $122 0.01 $77 $123 forward @7 unknown #
coedge $-1 -1 $-1 $124 $125 $126 $127 reversed $52 $-1 #
coedge $-1 -1 $-1 $128 $53 $129 $130 reversed $35 $-1 #
coedge $-1 -1 $-1 $53 $131 $132 $133 reversed $35 $-1 #
coedge $-1 -1 $-1 $134 $135 $53 $83 forward $136 $-1 #
edge $137 -1 $-1 $138 0 $139 1.651433251860567 $53 $140 forward @7 unknown #
coedge $-1 -1 $-1 $75 $77 $54 $85 forward $49 $-1 #
edge $141 -1 $-1 $89 0 $88 3.1415926535897931 $54 $142 forward @7 unknown #
coedge $-1 -1 $-1 $55 $76 $75 $120 reversed $33 $-1 #
attrib_edge_convexity-kcp-attrib $-1 -1 $143 $-1 $56 1 #
vertex $-1 -1 $-1 $85 $144 #
vertex $-1 -1 $-1 $85 $145 #
ellipse-curve $-1 -1 $-1 11 -1 0 0 0 -1 -1.2000000000000011 0 0 1 I I #
model_id-kcp-attrib $-1 -1 $-1 $-1 $58 1 1021500330 1021500330 -683999230 4 #
face $-1 -1 $-1 $146 $147 $19 $-1 $148 reversed single #
loop $-1 -1 $-1 $-1 $149 $58 #
plane-surface $-1 -1 $-1 0 -9.5 0 0 1 0 0 0 1 forward_v I I I I #
coedge $-1 -1 $-1 $150 $151 $152 $153 forward $59 $-1 #
coedge $-1 -1 $-1 $154 $61 $155 $156 forward $39 $-1 #
coedge $-1 -1 $-1 $61 $154 $157 $158 forward $39 $-1 #
coedge $-1 -1 $-1 $159 $160 $61 $99 reversed $161 $-1 #
edge $-1 -1 $-1 $162 -9.5 $163 9.5 $98 $164 forward @7 unknown #
loop $-1 -1 $-1 $-1 $165 $62 #
plane-surface $-1 -1 $-1 10.999999999999998 -0.99999999999999889 0 0 0 1 1 0 0 forward_v I I I I #
coedge $-1 -1 $-1 $102 $102 $66 $104 reversed $63 $-1 #
coedge $-1 -1 $-1 $103 $103 $165 $166 reversed $65 $-1 #
edge $-1 -1 $-1 $167 -3.1415926535897931 $167 3.1415926535897931 $66 $168 forward @7 unknown #
face $-1 -1 $-1 $169 $170 $23 $-1 $171 forward single #
loop $-1 -1 $-1 $-1 $172 $67 #
plane-surface $-1 -1 $-1 2.4494897427831779 -2.5 0 0 -1 0 0 0 -1 forward_v I I I I #
coedge $-1 -1 $-1 $173 $174 $175 $176 forward $68 $-1 #
coedge $-1 -1 $-1 $177 $70 $174 $178 reversed $45 $-1 #
coedge $-1 -1 $-1 $70 $177 $179 $180 forward $45 $-1 #
coedge $-1 -1 $-1 $181 $175 $70 $112 reversed $182 $-1 #
edge $-1 -1 $-1 $183 0 $184 4.8989794855663558 $70 $185 forward @7 unknown #
model_id-kcp-attrib $-1 -1 $-1 $-1 $72 1 1021500330 1021500330 -683999231 6 #
face $186 -1 $-1 $187 $188 $8 $-1 $189 forward single #
loop $-1 -1 $-1 $-1 $190 $72 #
plane-surface $-1 -1 $-1 -0.89999999999999991 -7.848566748139433 0 -1 0 0 0 -1 0 forward_v I I I I #
loop $-1 -1 $-1 $191 $192 $48 #
coedge $-1 -1 $-1 $193 $193 $76 $121 forward $73 $-1 #
coedge $-1 -1 $-1 $77 $75 $193 $194 reversed $49 $-1 #
edge $-1 -1 $-1 $88 0 $195 0.01 $75 $196 forward @7 unknown #
edge $-1 -1 $-1 $195 0 $122 3.1415926535897918 $118 $197 forward @7 unknown #
vertex $-1 -1 $-1 $194 $198 #
straight-curve $-1 -1 $-1 12.199999999999999 -1 0 0 -2.2204460492503131e-014 1 I I #
coedge $-1 -1 $-1 $199 $79 $200 $201 reversed $52 $-1 #
coedge $-1 -1 $-1 $79 $199 $202 $203 reversed $52 $-1 #
coedge $-1 -1 $-1 $204 $205 $79 $127 forward $206 $-1 #
edge $207 -1 $-1 $208 0 $209 1.5912059069690707 $79 $210 forward @7 unknown #
coedge $-1 -1 $-1 $211 $80 $212 $213 reversed $35 $-1 #
coedge $-1 -1 $-1 $214 $215 $80 $130 forward $216 $-1 #
edge $217 -1 $-1 $218 0 $138 11.4 $80 $219 forward @7 unknown #
coedge $-1 -1 $-1 $81 $220 $221 $222 reversed $35 $-1 #
coedge $-1 -1 $-1 $223 $224 $81 $133 forward $225 $-1 #
edge $226 -1 $-1 $139 0 $227 2.9132487897544617 $81 $228 forward @7 unknown #
coedge $-1 -1 $-1 $229 $82 $224 $230 forward $136 $-1 #
coedge $-1 -1 $-1 $82 $229 $214 $231 reversed $136 $-1 #
loop $-1 -1 $-1 $-1 $134 $232 #
attrib_edge_convexity-kcp-attrib $-1 -1 $233 $-1 $83 1 #
vertex $-1 -1 $-1 $130 $234 #
vertex $-1 -1 $-1 $133 $235 #
straight-curve $-1 -1 $-1 -0.89999999999999991 9.5 0 0 -1 0 I I #
attrib_edge_convexity-kcp-attrib $-1 -1 $236 $-1 $85 1 #
ellipse-curve $-1 -1 $-1 11 -1 0 0 0 -1 1.1999999999999993 0 0 1 I I #
convexity-sys-attrib $-1 -1 $-1 $87 $56 #
point $-1 -1 $-1 9.7999999999999989 -1 0 #
point $-1 -1 $-1 12.199999999999999 -1 0 #
face $237 -1 $-1 $238 $239 $19 $-1 $240 reversed single #
loop $-1 -1 $-1 $-1 $241 $92 #
plane-surface $-1 -1 $-1 -10.699999999999999 0 0 1 0 0 0 0 -1 forward_v I I I I #
coedge $-1 -1 $-1 $242 $157 $243 $244 forward $93 $-1 #
coedge $-1 -1 $-1 $245 $95 $242 $246 forward $59 $-1 #
coedge $-1 -1 $-1 $95 $245 $247 $248 forward $59 $-1 #
coedge $-1 -1 $-1 $160 $159 $95 $153 reversed $161 $-1 #
edge $-1 -1 $-1 $249 -9.5 $250 9.5 $152 $251 forward @7 unknown #
coedge $-1 -1 $-1 $97 $96 $252 $253 forward $39 $-1 #
coedge $-1 -1 $-1 $254 $255 $96 $156 reversed $239 $-1 #
edge $-1 -1 $-1 $163 -10.699999999999999 $256 10.699999999999999 $155 $257 forward @7 unknown #
coedge $-1 -1 $-1 $149 $258 $97 $158 reversed $93 $-1 #
edge $-1 -1 $-1 $259 -10.699999999999999 $162 10.699999999999999 $157 $260 forward @7 unknown #
coedge $-1 -1 $-1 $152 $98 $258 $261 forward $161 $-1 #
coedge $-1 -1 $-1 $98 $152 $254 $262 reversed $161 $-1 #
loop $-1 -1 $-1 $-1 $159 $238 #
vertex $-1 -1 $-1 $99 $263 #
vertex $-1 -1 $-1 $99 $264 #
straight-curve $-1 -1 $-1 10.699999999999999 0 0.0050000000000000001 0 1 0 I I #
coedge $-1 -1 $-1 $165 $165 $103 $166 forward $100 $-1 #
edge $-1 -1 $-1 $265 -3.1415926535897931 $265 3.1415926535897931 $103 $266 forward @7 unknown #
vertex $-1 -1 $-1 $104 $267 #
ellipse-curve $-1 -1 $-1 11 -1 0.01 0 0 -1 1.1999999999999993 0 0 1 I I #
face $-1 -1 $-1 $268 $182 $23 $-1 $269 forward single #
loop $-1 -1 $-1 $-1 $270 $105 #
cone-surface $-1 -1 $-1 0 0 0 0 0 1 -2.4494897427831779 -2.5 0 1 I I 0 1 3.5 forward I I I I #
coedge $-1 -1 $-1 $271 $272 $273 $274 forward $106 $-1 #
coedge $-1 -1 $-1 $275 $108 $272 $276 reversed $68 $-1 #
coedge $-1 -1 $-1 $108 $275 $109 $178 forward $68 $-1 #
coedge $-1 -1 $-1 $111 $273 $108 $176 reversed $182 $-1 #
edge $-1 -1 $-1 $184 0 $277 1.5912059069690707 $108 $278 forward @7 unknown #
coedge $-1 -1 $-1 $110 $109 $279 $280 reversed $45 $-1 #
edge $-1 -1 $-1 $281 0 $184 0.01 $174 $282 forward @7 unknown #
coedge $-1 -1 $-1 $283 $270 $110 $180 reversed $170 $-1 #
edge $-1 -1 $-1 $284 0 $183 0.01 $110 $285 forward @7 unknown #
coedge $-1 -1 $-1 $273 $111 $270 $286 reversed $182 $-1 #
loop $-1 -1 $-1 $-1 $111 $169 #
vertex $-1 -1 $-1 $180 $287 #
vertex $-1 -1 $-1 $178 $288 #
straight-curve $-1 -1 $-1 -2.4494897427831783 2.5 0.01 1 0 0 I I #
model_id-kcp-attrib $-1 -1 $-1 $-1 $114 1 1021500330 1021500330 -683999231 7 #
face $289 -1 $-1 $290 $291 $8 $-1 $292 forward single #
loop $-1 -1 $-1 $-1 $293 $114 #
plane-surface $-1 -1 $-1 -0.89999999999999991 -9.5 0 0 -1 0 1 0 0 forward_v I I I I #
coedge $-1 -1 $-1 $294 $221 $295 $296 forward $115 $-1 #
loop $-1 -1 $-1 $-1 $297 $48 #
coedge $-1 -1 $-1 $298 $299 $294 $300 forward $117 $-1 #
coedge $-1 -1 $-1 $118 $118 $119 $194 forward $73 $-1 #
edge $-1 -1 $-1 $122 0 $195 3.1415926535897918 $193 $301 forward @7 unknown #
vertex $-1 -1 $-1 $194 $302 #
straight-curve $-1 -1 $-1 9.8000000000000007 -0.99999999999999989 0 0 0 1 I I #
ellipse-curve $-1 -1 $-1 10.999999999999998 -1.0000000000000009 0.01 0 0 -1 -1.1999999999999993 8.8817841970012523e-016 0 1 I I #
point $-1 -1 $-1 12.199999999999999 -1 0.01 #
coedge $-1 -1 $-1 $125 $124 $303 $304 reversed $52 $-1 #
coedge $-1 -1 $-1 $305 $306 $124 $201 forward $307 $-1 #
edge $308 -1 $-1 $309 0 $208 4.8989794855663558 $124 $310 forward @7 unknown #
coedge $-1 -1 $-1 $311 $312 $125 $203 forward $313 $-1 #
edge $314 -1 $-1 $209 0 $315 4.8989794855663558 $125 $316 forward @7 unknown #
coedge $-1 -1 $-1 $317 $126 $312 $318 forward $206 $-1 #
coedge $-1 -1 $-1 $126 $317 $305 $319 reversed $206 $-1 #
loop $-1 -1 $-1 $-1 $204 $320 #
attrib_edge_convexity-kcp-attrib $-1 -1 $321 $-1 $127 1 #
vertex $-1 -1 $-1 $201 $322 #
vertex $-1 -1 $-1 $203 $323 #
ellipse-curve $-1 -1 $-1 0 0 0 0 0 -1 -2.4494897427831779 -2.5 0 1 I I #
coedge $-1 -1 $-1 $324 $128 $325 $326 reversed $35 $-1 #
coedge $-1 -1 $-1 $327 $328 $128 $213 forward $329 $-1 #
edge $330 -1 $-1 $331 0 $218 8.0505102572168212 $128 $332 forward @7 unknown #
coedge $-1 -1 $-1 $333 $129 $135 $231 forward $216 $-1 #
coedge $-1 -1 $-1 $129 $333 $327 $334 reversed $216 $-1 #
loop $-1 -1 $-1 $-1 $214 $335 #
attrib_edge_convexity-kcp-attrib $-1 -1 $336 $-1 $130 1 #
vertex $-1 -1 $-1 $213 $337 #
straight-curve $-1 -1 $-1 10.5 9.5 0 -1 0 0 I I #
coedge $-1 -1 $-1 $131 $324 $338 $339 reversed $35 $-1 #
coedge $-1 -1 $-1 $190 $340 $131 $222 forward $115 $-1 #
edge $341 -1 $-1 $227 0 $342 1.651433251860567 $131 $343 forward @7 unknown #
coedge $-1 -1 $-1 $344 $132 $340 $345 forward $225 $-1 #
coedge $-1 -1 $-1 $132 $344 $134 $230 reversed $225 $-1 #
loop $-1 -1 $-1 $-1 $223 $346 #
attrib_edge_convexity-kcp-attrib $-1 -1 $347 $-1 $133 1 #
vertex $-1 -1 $-1 $133 $348 #
ellipse-curve $-1 -1 $-1 0 0 0 0 0 1 -0.89999999999999991 7.848566748139433 0 1 I I #
coedge $-1 -1 $-1 $135 $134 $349 $350 reversed $136 $-1 #
edge $351 -1 $-1 $139 0 $352 0.01 $224 $353 forward @7 unknown #
edge $354 -1 $-1 $138 0 $355 0.01 $214 $356 forward @7 unknown #
face $357 -1 $-1 $346 $136 $8 $-1 $358 forward single #
convexity-sys-attrib $-1 -1 $-1 $137 $83 #
point $-1 -1 $-1 -0.89999999999999991 9.5 0 #
point $-1 -1 $-1 -0.89999999999999991 7.848566748139433 0 #
convexity-sys-attrib $-1 -1 $-1 $141 $85 #
model_id-kcp-attrib $-1 -1 $-1 $-1 $146 1 1021500330 1021500330 -683999230 5 #
face $-1 -1 $-1 $-1 $161 $19 $-1 $359 reversed single #
loop $-1 -1 $-1 $-1 $254 $146 #
plane-surface $-1 -1 $-1 0 9.5 0 0 -1 0 0 0 -1 forward_v I I I I #
coedge $-1 -1 $-1 $360 $252 $255 $361 forward $147 $-1 #
coedge $-1 -1 $-1 $258 $149 $150 $246 reversed $93 $-1 #
coedge $-1 -1 $-1 $252 $360 $149 $244 reversed $147 $-1 #
edge $-1 -1 $-1 $259 -0.0050000000000000001 $362 0.0050000000000000001 $243 $363 forward @7 unknown #
coedge $-1 -1 $-1 $151 $150 $360 $364 forward $59 $-1 #
edge $-1 -1 $-1 $250 -10.699999999999999 $362 10.699999999999999 $242 $365 forward @7 unknown #
coedge $-1 -1 $-1 $255 $254 $151 $248 reversed $239 $-1 #
edge $-1 -1 $-1 $366 -10.699999999999999 $249 10.699999999999999 $247 $367 forward @7 unknown #
vertex $-1 -1 $-1 $153 $368 #
vertex $-1 -1 $-1 $261 $369 #
straight-curve $-1 -1 $-1 10.699999999999999 0 -0.0050000000000000001 0 -1 0 I I #
coedge $-1 -1 $-1 $241 $243 $154 $253 reversed $147 $-1 #
edge $-1 -1 $-1 $256 -9.5 $259 9.5 $252 $370 forward @7 unknown #
coedge $-1 -1 $-1 $247 $155 $160 $262 forward $239 $-1 #
coedge $-1 -1 $-1 $155 $247 $241 $361 reversed $239 $-1 #
vertex $-1 -1 $-1 $156 $371 #
straight-curve $-1 -1 $-1 0 9.5 0.0050000000000000001 -1 0 0 I I #
coedge $-1 -1 $-1 $157 $242 $159 $261 reversed $93 $-1 #
vertex $-1 -1 $-1 $253 $372 #
straight-curve $-1 -1 $-1 0 -9.5 0.0050000000000000001 1 0 0 I I #
edge $-1 -1 $-1 $162 -0.0050000000000000001 $250 0.0050000000000000001 $159 $373 forward @7 unknown #
edge $-1 -1 $-1 $163 -0.0050000000000000001 $249 0.0050000000000000001 $160 $374 forward @7 unknown #
point $-1 -1 $-1 10.699999999999999 -9.5 0.0050000000000000001 #
point $-1 -1 $-1 10.699999999999999 9.5 0.0050000000000000001 #
vertex $-1 -1 $-1 $166 $375 #
ellipse-curve $-1 -1 $-1 11 -1 0 0 0 -1 -1.2000000000000011 0 0 1 I I #
point $-1 -1 $-1 9.7999999999999989 -1 0.01 #
face $-1 -1 $-1 $-1 $376 $23 $-1 $377 reversed single #
plane-surface $-1 -1 $-1 -9.4467221749205557e-017 0 0.01 0 0 1 1 0 0 forward_v I I I I #
coedge $-1 -1 $-1 $179 $378 $181 $286 forward $170 $-1 #
coedge $-1 -1 $-1 $379 $172 $378 $380 reversed $106 $-1 #
coedge $-1 -1 $-1 $172 $379 $173 $276 forward $106 $-1 #
coedge $-1 -1 $-1 $175 $181 $172 $274 reversed $182 $-1 #
edge $-1 -1 $-1 $277 0 $381 4.8989794855663558 $172 $382 forward @7 unknown #
coedge $-1 -1 $-1 $174 $173 $383 $384 reversed $68 $-1 #
edge $-1 -1 $-1 $385 0 $277 0.01 $272 $386 forward @7 unknown #
vertex $-1 -1 $-1 $276 $387 #
ellipse-curve $-1 -1 $-1 0 0 0.01 0 0 -1 2.4494897427831779 2.5 0 1 I I #
coedge $-1 -1 $-1 $383 $388 $177 $280 forward $376 $-1 #
edge $-1 -1 $-1 $284 0 $281 4.8989794855663558 $177 $389 forward @7 unknown #
vertex $-1 -1 $-1 $384 $390 #
straight-curve $-1 -1 $-1 2.4494897427831779 2.5 0 0 0 1 I I #
coedge $-1 -1 $-1 $378 $179 $388 $391 reversed $170 $-1 #
vertex $-1 -1 $-1 $391 $392 #
straight-curve $-1 -1 $-1 -2.4494897427831783 2.5 0 0 0 1 I I #
edge $-1 -1 $-1 $381 0 $183 1.5912059069690707 $270 $393 forward @7 unknown #
point $-1 -1 $-1 -2.4494897427831783 2.5 0.01 #
point $-1 -1 $-1 2.4494897427831779 2.5 0.01 #
model_id-kcp-attrib $-1 -1 $-1 $-1 $187 1 1021500330 1021500330 -683999231 8 #
face $394 -1 $-1 $395 $396 $8 $-1 $397 forward single #
loop $-1 -1 $-1 $-1 $398 $187 #
plane-surface $-1 -1 $-1 10.5 -9.5 0 1 0 0 0 1 0 forward_v I I I I #
coedge $-1 -1 $-1 $399 $338 $400 $401 forward $188 $-1 #
coedge $-1 -1 $-1 $340 $190 $192 $300 reversed $115 $-1 #
coedge $-1 -1 $-1 $338 $399 $190 $296 reversed $188 $-1 #
edge $402 -1 $-1 $342 0 $403 0.01 $190 $404 forward @7 unknown #
coedge $-1 -1 $-1 $405 $406 $407 $408 forward $191 $-1 #
coedge $-1 -1 $-1 $409 $192 $399 $410 forward $117 $-1 #
coedge $-1 -1 $-1 $192 $349 $344 $411 forward $117 $-1 #
edge $412 -1 $-1 $413 0 $403 1.651433251860567 $192 $414 forward @7 unknown #
ellipse-curve $-1 -1 $-1 10.999999999999998 -0.999999999999999 0.01 0 0 -1 1.2000000000000011 -9.9920072216264089e-016 0 1 I I #
point $-1 -1 $-1 9.7999999999999989 -1 0.01 #
coedge $-1 -1 $-1 $415 $416 $199 $304 forward $417 $-1 #
edge $418 -1 $-1 $315 0 $309 1.5912059069690707 $199 $419 forward @7 unknown #
coedge $-1 -1 $-1 $420 $200 $205 $319 forward $307 $-1 #
coedge $-1 -1 $-1 $200 $420 $415 $421 reversed $307 $-1 #
loop $-1 -1 $-1 $-1 $305 $422 #
attrib_edge_convexity-kcp-attrib $-1 -1 $423 $-1 $201 1 #
vertex $-1 -1 $-1 $304 $424 #
straight-curve $-1 -1 $-1 2.4494897427831779 -2.5 0 -1 0 0 I I #
coedge $-1 -1 $-1 $425 $202 $416 $426 forward $313 $-1 #
coedge $-1 -1 $-1 $202 $425 $204 $318 reversed $313 $-1 #
loop $-1 -1 $-1 $-1 $311 $427 #
attrib_edge_convexity-kcp-attrib $-1 -1 $428 $-1 $203 1 #
vertex $-1 -1 $-1 $203 $429 #
straight-curve $-1 -1 $-1 -2.4494897427831783 2.5 0 1 0 0 I I #
coedge $-1 -1 $-1 $205 $204 $430 $431 reversed $206 $-1 #
edge $-1 -1 $-1 $209 1.1832913578315177e-028 $432 0.01 $312 $433 forward @7 unknown #
edge $-1 -1 $-1 $208 0 $434 0.01 $305 $435 forward @7 unknown #
face $436 -1 $-1 $427 $206 $8 $-1 $437 reversed single #
convexity-sys-attrib $-1 -1 $-1 $207 $127 #
point $-1 -1 $-1 -2.4494897427831779 -2.5 0 #
point $-1 -1 $-1 -2.4494897427831783 2.5 0 #
coedge $-1 -1 $-1 $220 $211 $438 $439 reversed $35 $-1 #
coedge $-1 -1 $-1 $440 $441 $211 $326 forward $396 $-1 #
edge $442 -1 $-1 $443 0 $331 3.5443084951704544 $211 $444 forward @7 unknown #
coedge $-1 -1 $-1 $445 $212 $215 $334 forward $329 $-1 #
coedge $-1 -1 $-1 $212 $445 $440 $446 reversed $329 $-1 #
loop $-1 -1 $-1 $-1 $327 $395 #
attrib_edge_convexity-kcp-attrib $-1 -1 $447 $-1 $213 1 #
vertex $-1 -1 $-1 $326 $448 #
straight-curve $-1 -1 $-1 10.5 1.4494897427831783 0 0 1 0 I I #
coedge $-1 -1 $-1 $215 $214 $449 $450 reversed $216 $-1 #
edge $-1 -1 $-1 $218 0 $451 0.01 $327 $452 forward @7 unknown #
face $453 -1 $-1 $232 $216 $8 $-1 $454 forward single #
convexity-sys-attrib $-1 -1 $-1 $217 $130 #
point $-1 -1 $-1 10.5 9.5 0 #
coedge $-1 -1 $-1 $293 $295 $220 $339 forward $188 $-1 #
edge $455 -1 $-1 $342 0 $456 11.4 $220 $457 forward @7 unknown #
coedge $-1 -1 $-1 $221 $294 $223 $345 reversed $115 $-1 #
attrib_edge_convexity-kcp-attrib $-1 -1 $458 $-1 $222 1 #
vertex $-1 -1 $-1 $222 $459 #
straight-curve $-1 -1 $-1 -0.89999999999999991 -7.848566748139433 0 0 -1 0 I I #
coedge $-1 -1 $-1 $224 $223 $299 $411 reversed $225 $-1 #
edge $460 -1 $-1 $227 1.9721522630525295e-029 $413 0.01 $223 $461 forward @7 unknown #
face $462 -1 $-1 $463 $225 $8 $-1 $464 forward single #
convexity-sys-attrib $-1 -1 $-1 $226 $133 #
point $-1 -1 $-1 -0.89999999999999991 -7.848566748139433 0 #
coedge $-1 -1 $-1 $299 $449 $229 $350 forward $117 $-1 #
edge $465 -1 $-1 $355 0 $352 1.651433251860567 $349 $466 forward @7 unknown #
attrib_edge_convexity-kcp-attrib $-1 -1 $467 $-1 $230 2 #
vertex $-1 -1 $-1 $411 $468 #
straight-curve $-1 -1 $-1 -0.89999999999999991 7.848566748139433 0 0 0 1 I I #
attrib_edge_convexity-kcp-attrib $-1 -1 $469 $-1 $231 1 #
vertex $-1 -1 $-1 $350 $470 #
straight-curve $-1 -1 $-1 -0.90000000000000036 9.5 0 0 0 1 I I #
model_id-kcp-attrib $-1 -1 $-1 $-1 $232 1 1021500330 1021500330 -683999231 12 #
plane-surface $-1 -1 $-1 -0.89999999999999991 9.5 0 -1 0 0 0 -1 0 forward_v I I I I #
plane-surface $-1 -1 $-1 10.699999999999999 0 0 -1 0 0 0 0 1 forward_v I I I I #
coedge $-1 -1 $-1 $243 $241 $245 $364 reversed $147 $-1 #
edge $-1 -1 $-1 $256 -0.0050000000000000001 $366 0.0050000000000000001 $255 $471 forward @7 unknown #
vertex $-1 -1 $-1 $364 $472 #
straight-curve $-1 -1 $-1 -10.699999999999999 -9.5 0 0 0 -1 I I #
edge $-1 -1 $-1 $362 -9.5 $366 9.5 $360 $473 forward @7 unknown #
straight-curve $-1 -1 $-1 0 -9.5 -0.0050000000000000001 -1 0 0 I I #
vertex $-1 -1 $-1 $248 $474 #
straight-curve $-1 -1 $-1 0 9.5 -0.0050000000000000001 1 0 0 I I #
point $-1 -1 $-1 10.699999999999999 9.5 -0.0050000000000000001 #
point $-1 -1 $-1 10.699999999999999 -9.5 -0.0050000000000000001 #
straight-curve $-1 -1 $-1 -10.699999999999999 0 0.0050000000000000001 0 -1 0 I I #
point $-1 -1 $-1 -10.699999999999999 9.5 0.0050000000000000001 #
point $-1 -1 $-1 -10.699999999999999 -9.5 0.0050000000000000001 #
straight-curve $-1 -1 $-1 10.699999999999999 -9.5 0 0 0 -1 I I #
straight-curve $-1 -1 $-1 10.699999999999999 9.5 0 0 0 -1 I I #
point $-1 -1 $-1 12.199999999999999 -1 0 #
loop $-1 -1 $-1 $-1 $388 $268 #
plane-surface $-1 -1 $-1 -9.4467221749205557e-017 0 0 0 0 1 1 0 0 forward_v I I I I #
coedge $-1 -1 $-1 $270 $283 $271 $380 forward $170 $-1 #
coedge $-1 -1 $-1 $272 $271 $475 $476 reversed $106 $-1 #
edge $-1 -1 $-1 $477 0 $381 0.01 $378 $478 forward @7 unknown #
vertex $-1 -1 $-1 $380 $479 #
straight-curve $-1 -1 $-1 2.4494897427831779 -2.5 0.01 -1 0 0 I I #
coedge $-1 -1 $-1 $475 $279 $275 $384 forward $376 $-1 #
edge $-1 -1 $-1 $281 0 $385 1.5912059069690707 $275 $480 forward @7 unknown #
vertex $-1 -1 $-1 $476 $481 #
straight-curve $-1 -1 $-1 2.4494897427831779 -2.5 0 0 0 1 I I #
point $-1 -1 $-1 2.4494897427831779 -2.5 0.01 #
coedge $-1 -1 $-1 $279 $475 $283 $391 forward $376 $-1 #
straight-curve $-1 -1 $-1 -2.4494897427831783 2.5 0 1 0 0 I I #
point $-1 -1 $-1 2.4494897427831779 2.5 0 #
edge $-1 -1 $-1 $477 0 $284 1.5912059069690707 $283 $482 forward @7 unknown #
point $-1 -1 $-1 -2.4494897427831783 2.5 0 #
ellipse-curve $-1 -1 $-1 0 0 0.01 0 0 -1 -2.4494897427831779 -2.5 0 1 I I #
model_id-kcp-attrib $-1 -1 $-1 $-1 $290 1 1021500330 1021500330 -683999231 9 #
face $483 -1 $-1 $335 $329 $8 $-1 $484 forward single #
loop $-1 -1 $-1 $-1 $440 $290 #
cone-surface $-1 -1 $-1 11 -1 0 0 0 1 2.5 0 0 1 I I 0 1 2.5 forward I I I I #
coedge $-1 -1 $-1 $485 $438 $441 $486 forward $291 $-1 #
coedge $-1 -1 $-1 $295 $293 $298 $410 reversed $188 $-1 #
coedge $-1 -1 $-1 $438 $485 $293 $401 reversed $291 $-1 #
edge $487 -1 $-1 $456 0 $488 0.01 $293 $489 forward @7 unknown #
attrib_edge_convexity-kcp-attrib $-1 -1 $490 $-1 $296 1 #
vertex $-1 -1 $-1 $410 $491 #
straight-curve $-1 -1 $-1 -0.89999999999999991 -9.5 0 0 0 1 I I #
coedge $-1 -1 $-1 $430 $297 $420 $492 forward $191 $-1 #
coedge $-1 -1 $-1 $297 $430 $425 $493 forward $191 $-1 #
coedge $-1 -1 $-1 $416 $415 $297 $408 reversed $417 $-1 #
edge $-1 -1 $-1 $494 0 $495 1.5912059069690709 $297 $496 forward @7 unknown #
coedge $-1 -1 $-1 $497 $298 $485 $498 forward $117 $-1 #
edge $499 -1 $-1 $403 0 $488 11.4 $298 $500 forward @7 unknown #
edge $-1 -1 $-1 $352 0 $413 2.9132487897544617 $299 $501 forward @7 unknown #
attrib_edge_convexity-kcp-attrib $-1 -1 $502 $-1 $300 1 #
vertex $-1 -1 $-1 $411 $503 #
straight-curve $-1 -1 $-1 -0.89999999999999991 -7.848566748139433 0.01 0 -1 0 I I #
coedge $-1 -1 $-1 $407 $303 $306 $421 forward $417 $-1 #
coedge $-1 -1 $-1 $303 $407 $311 $426 reversed $417 $-1 #
loop $-1 -1 $-1 $-1 $415 $463 #
attrib_edge_convexity-kcp-attrib $-1 -1 $504 $-1 $304 1 #
ellipse-curve $-1 -1 $-1 0 0 0 0 0 -1 2.4494897427831779 2.5 0 1 I I #
coedge $-1 -1 $-1 $306 $305 $405 $492 reversed $307 $-1 #
edge $-1 -1 $-1 $309 1.5777218104420236e-028 $495 0.01 $415 $505 forward @7 unknown #
face $506 -1 $-1 $320 $307 $8 $-1 $507 forward single #
convexity-sys-attrib $-1 -1 $-1 $308 $201 #
point $-1 -1 $-1 2.4494897427831779 -2.5 0 #
coedge $-1 -1 $-1 $312 $311 $406 $493 reversed $313 $-1 #
edge $-1 -1 $-1 $315 0 $494 0.01 $311 $508 forward @7 unknown #
face $509 -1 $-1 $-1 $313 $8 $-1 $510 forward single #
convexity-sys-attrib $-1 -1 $-1 $314 $203 #
point $-1 -1 $-1 2.4494897427831779 2.5 0 #
coedge $-1 -1 $-1 $406 $405 $317 $431 forward $191 $-1 #
edge $-1 -1 $-1 $434 3.625218039592348e-016 $432 1.5912059069690707 $430 $511 forward @7 unknown #
vertex $-1 -1 $-1 $493 $512 #
straight-curve $-1 -1 $-1 -2.4494897427831774 2.5000000000000009 0 -4.4408920985006262e-014 -8.8817841970012523e-014 1 I I #
vertex $-1 -1 $-1 $431 $513 #
straight-curve $-1 -1 $-1 -2.4494897427831788 -2.5 0 0 0 1 I I #
model_id-kcp-attrib $-1 -1 $-1 $-1 $320 1 1021500330 1021500330 -683999231 16 #
cone-surface $-1 -1 $-1 0 0 0 0 0 1 3.5 0 0 1 I I 0 1 3.5 forward I I I I #
coedge $-1 -1 $-1 $398 $400 $324 $439 forward $291 $-1 #
edge $514 -1 $-1 $456 0 $443 6.0505102572168221 $324 $515 forward @7 unknown #
coedge $-1 -1 $-1 $516 $325 $328 $446 forward $396 $-1 #
coedge $-1 -1 $-1 $325 $516 $398 $486 reversed $396 $-1 #
attrib_edge_convexity-kcp-attrib $-1 -1 $517 $-1 $326 1 #
vertex $-1 -1 $-1 $439 $518 #
ellipse-curve $-1 -1 $-1 11 -1 0 0 0 1 -0.5 -2.4494897427831779 0 1 I I #
coedge $-1 -1 $-1 $328 $327 $519 $520 reversed $329 $-1 #
edge $-1 -1 $-1 $331 0 $521 0.01 $440 $522 forward @7 unknown #
convexity-sys-attrib $-1 -1 $-1 $330 $213 #
point $-1 -1 $-1 10.5 1.4494897427831783 0 #
coedge $-1 -1 $-1 $349 $519 $333 $450 forward $117 $-1 #
edge $-1 -1 $-1 $451 0 $355 11.4 $449 $523 forward @7 unknown #
vertex $-1 -1 $-1 $450 $524 #
straight-curve $-1 -1 $-1 10.5 9.5 0 0 0 1 I I #
model_id-kcp-attrib $-1 -1 $-1 $-1 $335 1 1021500330 1021500330 -683999231 11 #
plane-surface $-1 -1 $-1 10.5 9.5 0 0 1 0 -1 0 0 forward_v I I I I #
attrib_edge_convexity-kcp-attrib $-1 -1 $525 $-1 $339 1 #
vertex $-1 -1 $-1 $339 $526 #
straight-curve $-1 -1 $-1 -0.89999999999999991 -9.5 0 1 0 0 I I #
convexity-sys-attrib $-1 -1 $-1 $341 $222 #
point $-1 -1 $-1 -0.89999999999999991 -9.5 0 #
attrib_edge_convexity-kcp-attrib $-1 -1 $527 $-1 $345 2 #
straight-curve $-1 -1 $-1 -0.89999999999999947 -7.848566748139433 0 -4.4408920985006262e-014 0 1 I I #
model_id-kcp-attrib $-1 -1 $-1 $-1 $346 1 1021500330 1021500330 -683999231 13 #
face $528 -1 $-1 $422 $417 $8 $-1 $529 reversed single #
cone-surface $-1 -1 $-1 0 0 0 0 0 1 7.8999999999999995 0 0 1 I I 0 1 7.8999999999999995 forward I I I I #
attrib_edge_convexity-kcp-attrib $-1 -1 $530 $-1 $350 1 #
straight-curve $-1 -1 $-1 -0.89999999999999991 9.5 0.01 0 -1 0 I I #
convexity-sys-attrib $-1 -1 $-1 $351 $230 #
point $-1 -1 $-1 -0.89999999999999991 7.848566748139433 0.01 #
convexity-sys-attrib $-1 -1 $-1 $354 $231 #
point $-1 -1 $-1 -0.89999999999999991 9.5 0.01 #
straight-curve $-1 -1 $-1 -10.699999999999999 9.5 0 0 0 -1 I I #
point $-1 -1 $-1 -10.699999999999999 -9.5 -0.0050000000000000001 #
straight-curve $-1 -1 $-1 -10.699999999999999 0 -0.0050000000000000001 0 1 0 I I #
point $-1 -1 $-1 -10.699999999999999 9.5 -0.0050000000000000001 #
coedge $-1 -1 $-1 $388 $383 $379 $476 forward $376 $-1 #
edge $-1 -1 $-1 $385 0 $477 4.8989794855663558 $379 $531 forward @7 unknown #
vertex $-1 -1 $-1 $391 $532 #
straight-curve $-1 -1 $-1 -2.4494897427831779 -2.5 0 0 0 1 I I #
point $-1 -1 $-1 -2.4494897427831779 -2.5 0.01 #
ellipse-curve $-1 -1 $-1 0 0 0 0 0 -1 2.4494897427831779 2.5 0 1 I I #
point $-1 -1 $-1 2.4494897427831779 -2.5 0 #
ellipse-curve $-1 -1 $-1 0 0 0 0 0 -1 -2.4494897427831779 -2.5 0 1 I I #
model_id-kcp-attrib $-1 -1 $-1 $-1 $395 1 1021500330 1021500330 -683999231 10 #
plane-surface $-1 -1 $-1 10.5 1.4494897427831779 0 1 0 0 0 1 0 forward_v I I I I #
coedge $-1 -1 $-1 $400 $398 $409 $498 reversed $291 $-1 #
edge $-1 -1 $-1 $443 0 $533 0.01 $398 $534 forward @7 unknown #
attrib_edge_convexity-kcp-attrib $-1 -1 $535 $-1 $401 1 #
vertex $-1 -1 $-1 $498 $536 #
straight-curve $-1 -1 $-1 10.5 -9.5 0 0 0 1 I I #
convexity-sys-attrib $-1 -1 $-1 $402 $296 #
point $-1 -1 $-1 -0.89999999999999991 -9.5 0.01 #
edge $-1 -1 $-1 $495 0 $434 4.8989794855663567 $405 $537 forward @7 unknown #
edge $-1 -1 $-1 $432 0 $494 4.8989794855663558 $406 $538 forward @7 unknown #
vertex $-1 -1 $-1 $493 $539 #
vertex $-1 -1 $-1 $492 $540 #
ellipse-curve $-1 -1 $-1 4.4408920985006262e-016 0 0.01 0 0 -1 2.4494897427831774 2.5 0 1 I I #
coedge $-1 -1 $-1 $519 $409 $516 $541 forward $117 $-1 #
edge $-1 -1 $-1 $488 0 $533 6.0505102572168221 $409 $542 forward @7 unknown #
attrib_edge_convexity-kcp-attrib $-1 -1 $543 $-1 $410 1 #
straight-curve $-1 -1 $-1 -0.89999999999999991 -9.5 0.01 1 0 0 I I #
ellipse-curve $-1 -1 $-1 -4.4408920985006262e-016 -2.2204460492503131e-016 0.01 0 0 1 -0.89999999999999947 7.848566748139433 0 1 I I #
convexity-sys-attrib $-1 -1 $-1 $412 $300 #
point $-1 -1 $-1 -0.89999999999999991 -7.848566748139433 0.01 #
convexity-sys-attrib $-1 -1 $-1 $418 $304 #
straight-curve $-1 -1 $-1 2.449489742783177 -2.5000000000000009 0 8.8817841970012523e-014 8.8817841970012523e-014 1 I I #
model_id-kcp-attrib $-1 -1 $-1 $-1 $422 1 1021500330 1021500330 -683999231 15 #
plane-surface $-1 -1 $-1 2.4494897427831779 -2.5 0 0 1 0 -1 0 0 forward_v I I I I #
straight-curve $-1 -1 $-1 2.4494897427831779 2.5 0 0 0 1 I I #
model_id-kcp-attrib $-1 -1 $-1 $-1 $427 1 1021500330 1021500330 -683999231 17 #
plane-surface $-1 -1 $-1 -2.4494897427831779 2.5 0 0 -1 0 1 0 0 forward_v I I I I #
ellipse-curve $-1 -1 $-1 -2.2204460492503131e-016 1.1102230246251565e-016 0.01 0 0 -1 -2.4494897427831779 -2.5 0 1 I I #
point $-1 -1 $-1 -2.4494897427831783 2.5 0.01 #
point $-1 -1 $-1 -2.4494897427831788 -2.4999999999999991 0.01 #
attrib_edge_convexity-kcp-attrib $-1 -1 $544 $-1 $439 1 #
straight-curve $-1 -1 $-1 10.5 -9.5 0 0 1 0 I I #
coedge $-1 -1 $-1 $441 $440 $497 $541 reversed $396 $-1 #
convexity-sys-attrib $-1 -1 $-1 $442 $326 #
point $-1 -1 $-1 10.5 -3.4494897427831779 0 #
coedge $-1 -1 $-1 $449 $497 $445 $520 forward $117 $-1 #
edge $-1 -1 $-1 $521 -4.4408920985006262e-016 $451 8.0505102572168212 $519 $545 forward @7 unknown #
vertex $-1 -1 $-1 $520 $546 #
straight-curve $-1 -1 $-1 10.5 1.4494897427831779 0 0 0 1 I I #
straight-curve $-1 -1 $-1 10.5 9.5 0.01 -1 0 0 I I #
point $-1 -1 $-1 10.5 9.5 0.01 #
convexity-sys-attrib $-1 -1 $-1 $455 $339 #
point $-1 -1 $-1 10.5 -9.5 0 #
convexity-sys-attrib $-1 -1 $-1 $460 $345 #
model_id-kcp-attrib $-1 -1 $-1 $-1 $463 1 1021500330 1021500330 -683999231 14 #
cone-surface $-1 -1 $-1 0 0 0 0 0 1 3.5 0 0 1 I I 0 1 3.5 forward I I I I #
convexity-sys-attrib $-1 -1 $-1 $465 $350 #
straight-curve $-1 -1 $-1 2.4494897427831779 -2.5 0 -1 0 0 I I #
point $-1 -1 $-1 -2.4494897427831779 -2.5 0 #
vertex $-1 -1 $-1 $541 $547 #
straight-curve $-1 -1 $-1 10.5 -3.4494897427831779 0 0 0 1 I I #
convexity-sys-attrib $-1 -1 $-1 $487 $401 #
point $-1 -1 $-1 10.5 -9.5 0.01 #
straight-curve $-1 -1 $-1 2.4494897427831779 -2.5 0.01 -1 0 0 I I #
straight-curve $-1 -1 $-1 -2.4494897427831783 2.5 0.01 1 0 0 I I #
point $-1 -1 $-1 2.4494897427831779 2.5 0.01 #
point $-1 -1 $-1 2.4494897427831779 -2.5 0.01 #
edge $-1 -1 $-1 $533 0 $521 3.5443084951704544 $497 $548 forward @7 unknown #
straight-curve $-1 -1 $-1 10.5 -9.5 0.01 0 1 0 I I #
convexity-sys-attrib $-1 -1 $-1 $499 $410 #
convexity-sys-attrib $-1 -1 $-1 $514 $439 #
straight-curve $-1 -1 $-1 10.5 1.4494897427831783 0.01 0 1 0 I I #
point $-1 -1 $-1 10.5 1.4494897427831779 0.01 #
point $-1 -1 $-1 10.5 -3.4494897427831779 0.01 #
ellipse-curve $-1 -1 $-1 11 -0.99999999999999989 0.01 0 0 1 -0.5 -2.4494897427831779 0 1 I I #
End-of-ACIS-data 