700 0 2 0           
24 FBMach with ACIS - 7.0.3 13 ACIS 7.0.3 NT 24 Wed May 15 18:05:20 2002 
1 9.9999999999999995e-007 1e-010 
body $2 -1 $-1 $3 $-1 $4 #
bdycol-kcp $-1 -1 1 3 $5 $6 $7 #
model_id-kcp-attrib $-1 -1 $-1 $-1 $0 1 1021500319 1021500319 -1222901759 1 #
lump $-1 -1 $-1 $-1 $8 $0 #
transform $-1 -1 1 0 0 0 1 0 0 0 1 0 0 0 1 rotate no_reflect no_shear #
body $9 -1 $-1 $10 $-1 $11 #
body $12 -1 $-1 $13 $-1 $14 #
body $15 -1 $-1 $16 $-1 $17 #
shell $-1 -1 $-1 $-1 $-1 $18 $-1 $3 #
model_id-kcp-attrib $-1 -1 $-1 $-1 $5 1 1021500319 1021500319 -1222246398 1 #
lump $-1 -1 $-1 $-1 $19 $5 #
transform $-1 -1 1 0 0 0 1 0 0 0 1 0 -2.7755575615628914e-017 0.99999999999999911 1 no_rotate no_reflect no_shear #
rgb_color-st-attrib $-1 -1 $20 $-1 $6 0.5 1 1 #
lump $-1 -1 $-1 $-1 $21 $6 #
transform $-1 -1 1 0 0 0 1 0 0 0 1 0 -2.7755575615628914e-017 0.99999999999999911 1 no_rotate no_reflect no_shear #
rgb_color-st-attrib $-1 -1 $22 $-1 $7 1 0.5 1 #
lump $-1 -1 $-1 $-1 $23 $7 #
transform $-1 -1 1 0 0 0 1 0 0 0 1 0 -2.7755575615628914e-017 0.99999999999999911 1 no_rotate no_reflect no_shear #
face $24 -1 $-1 $25 $26 $8 $-1 $27 forward single #
shell $-1 -1 $-1 $-1 $-1 $28 $-1 $10 #
model_id-kcp-attrib $-1 -1 $-1 $12 $6 1 1021500319 1021500319 -1216348157 1 #
shell $-1 -1 $-1 $-1 $-1 $29 $-1 $13 #
model_id-kcp-attrib $-1 -1 $-1 $15 $7 1 1021500319 1021500320 -1221722108 1 #
shell $-1 -1 $-1 $-1 $-1 $30 $-1 $16 #
model_id-kcp-attrib $-1 -1 $-1 $-1 $18 1 1021500319 1021500319 -1222901759 2 #
face $31 -1 $-1 $32 $33 $8 $-1 $34 forward single #
loop $-1 -1 $-1 $-1 $35 $18 #
plane-surface $-1 -1 $-1 0 0 -5 0 0 -1 1 0 0 forward_v I I I I #
face $36 -1 $-1 $37 $38 $19 $-1 $39 forward single #
face $-1 -1 $-1 $40 $41 $21 $-1 $42 reversed single #
face $-1 -1 $-1 $43 $44 $23 $-1 $45 forward single #
model_id-kcp-attrib $-1 -1 $-1 $-1 $25 1 1021500319 1021500319 -1222901759 3 #
face $46 -1 $-1 $47 $48 $8 $-1 $49 reversed single #
loop $-1 -1 $-1 $-1 $50 $25 #
cone-surface $-1 -1 $-1 0 0 7.5999999999999996 0 0 -1 0.39999999999999997 0 0 1 I I 0 1 0.39999999999999997 forward I I I I #
coedge $-1 -1 $-1 $51 $51 $52 $53 forward $26 $-1 #
model_id-kcp-attrib $-1 -1 $-1 $-1 $28 1 1021500319 1021500319 -1222246398 3 #
face $54 -1 $-1 $55 $56 $19 $-1 $57 reversed single #
loop $-1 -1 $-1 $-1 $58 $28 #
plane-surface $-1 -1 $-1 0 0 6.0000000000000009 0 0 1 1 0 0 forward_v I I I I #
face $-1 -1 $-1 $59 $60 $21 $-1 $42 reversed single #
loop $-1 -1 $-1 $-1 $61 $29 #
cone-surface $-1 -1 $-1 0 2.7755575615628914e-017 -5.9999999999999991 0 0 -1 -0.39999999999999997 4.8984254152895085e-017 0 1 I I 0 1 0.39999999999999997 forward I I I I #
face $-1 -1 $-1 $62 $63 $23 $-1 $64 forward single #
loop $-1 -1 $-1 $65 $66 $30 #
cone-surface $-1 -1 $-1 0 2.7755575615628914e-017 5.4000000000000004 0 0 1 0.25 0 0 1 I I 0 -1 0.25 forward I I I I #
model_id-kcp-attrib $-1 -1 $-1 $-1 $32 1 1021500319 1021500319 -1222901759 4 #
face $67 -1 $-1 $68 $69 $8 $-1 $70 forward single #
loop $-1 -1 $-1 $71 $72 $32 #
plane-surface $-1 -1 $-1 0 0 6.3999999999999995 0 0 -1 1 0 0 forward_v I I I I #
coedge $-1 -1 $-1 $73 $74 $75 $76 forward $33 $-1 #
coedge $-1 -1 $-1 $35 $35 $77 $78 reversed $26 $-1 #
coedge $-1 -1 $-1 $74 $73 $35 $53 reversed $33 $-1 #
edge $79 -1 $-1 $80 0 $81 3.1415926535897931 $35 $82 forward @7 unknown #
model_id-kcp-attrib $-1 -1 $-1 $-1 $37 1 1021500319 1021500319 -1222246398 2 #
face $-1 -1 $-1 $83 $84 $19 $-1 $85 reversed single #
loop $-1 -1 $-1 $-1 $86 $37 #
plane-surface $-1 -1 $-1 0 0 -6.0000000000000009 0 0 1 1 0 0 forward_v I I I I #
coedge $-1 -1 $-1 $87 $88 $89 $90 forward $38 $-1 #
face $-1 -1 $-1 $91 $92 $21 $-1 $42 reversed single #
loop $-1 -1 $-1 $-1 $93 $40 #
coedge $-1 -1 $-1 $94 $95 $96 $97 forward $41 $-1 #
face $-1 -1 $-1 $98 $99 $23 $-1 $100 forward single #
loop $-1 -1 $-1 $101 $102 $43 #
cone-surface $-1 -1 $-1 0 2.7755575615628914e-017 5.3999999999999995 0 0 1 -0.39999999999999997 4.8984254152895085e-017 0 1 I I 0 1 0.39999999999999997 forward I I I I #
loop $-1 -1 $-1 $-1 $103 $30 #
coedge $-1 -1 $-1 $66 $66 $104 $105 forward $44 $-1 #
model_id-kcp-attrib $-1 -1 $-1 $-1 $47 1 1021500319 1021500319 -1222901759 5 #
face $106 -1 $-1 $107 $108 $8 $-1 $109 forward single #
loop $-1 -1 $-1 $-1 $77 $47 #
cone-surface $-1 -1 $-1 0 0 7.5999999999999996 0 0 -1 0.39999999999999997 0 0 1 I I 0 1 0.39999999999999997 forward I I I I #
loop $-1 -1 $-1 $-1 $110 $32 #
coedge $-1 -1 $-1 $75 $75 $111 $112 forward $48 $-1 #
coedge $-1 -1 $-1 $52 $50 $113 $114 reversed $33 $-1 #
coedge $-1 -1 $-1 $50 $52 $115 $116 forward $33 $-1 #
coedge $-1 -1 $-1 $72 $72 $50 $76 reversed $48 $-1 #
edge $117 -1 $-1 $118 1.2246063538223773e-016 $119 3.1415926535897931 $50 $120 forward @7 unknown #
coedge $-1 -1 $-1 $113 $115 $51 $78 forward $69 $-1 #
edge $121 -1 $-1 $80 0 $81 3.1415926535897931 $51 $122 forward @7 unknown #
attrib_edge_convexity-kcp-attrib $-1 -1 $123 $-1 $53 1 #
vertex $-1 -1 $-1 $78 $124 #
vertex $-1 -1 $-1 $78 $125 #
ellipse-curve $-1 -1 $-1 0 -4.163336342344337e-017 -5 -4.4408920985006262e-015 1.0060576546992825e-030 -1 -0.39999999999999997 9.0617617576338456e-017 1.7763568394002505e-015 1 I I #
face $-1 -1 $-1 $126 $127 $19 $-1 $128 reversed single #
loop $-1 -1 $-1 $-1 $129 $55 #
plane-surface $-1 -1 $-1 0 -0.40000000000000002 0 0 1 0 0 0 1 forward_v I I I I #
coedge $-1 -1 $-1 $130 $131 $132 $133 forward $56 $-1 #
coedge $-1 -1 $-1 $134 $58 $135 $136 forward $38 $-1 #
coedge $-1 -1 $-1 $58 $134 $137 $138 forward $38 $-1 #
coedge $-1 -1 $-1 $139 $140 $58 $90 reversed $141 $-1 #
edge $-1 -1 $-1 $142 -0.40000000000000002 $143 0.40000000000000002 $89 $144 forward @7 unknown #
face $-1 -1 $-1 $145 $146 $21 $-1 $42 reversed single #
loop $-1 -1 $-1 $-1 $147 $59 #
coedge $-1 -1 $-1 $148 $96 $149 $150 reversed $60 $-1 #
coedge $-1 -1 $-1 $151 $61 $152 $153 reversed $41 $-1 #
coedge $-1 -1 $-1 $61 $151 $154 $155 reversed $41 $-1 #
coedge $-1 -1 $-1 $93 $156 $157 $97 reversed $60 $-1 #
edge $-1 -1 $-1 $158 -12 $159 1.7763568394002505e-015 $157 $160 forward @7 unknown #
face $-1 -1 $-1 $-1 $161 $23 $-1 $162 reversed single #
loop $-1 -1 $-1 $163 $164 $62 #
plane-surface $-1 -1 $-1 0.022377622377622371 0 6 -1.3839665003877402e-031 1.0379748752908052e-031 1 1 0 1.3839665003877402e-031 forward_v I I I I #
loop $-1 -1 $-1 $-1 $165 $43 #
coedge $-1 -1 $-1 $102 $102 $164 $166 forward $63 $-1 #
coedge $-1 -1 $-1 $103 $103 $167 $168 reversed $65 $-1 #
coedge $-1 -1 $-1 $104 $104 $66 $105 reversed $163 $-1 #
edge $-1 -1 $-1 $169 -2.4492127076447545e-016 $169 6.2831853071795862 $66 $170 forward @7 unknown #
model_id-kcp-attrib $-1 -1 $-1 $-1 $68 1 1021500319 1021500319 -1222901759 6 #
face $171 -1 $-1 $172 $173 $8 $-1 $174 reversed single #
loop $-1 -1 $-1 $-1 $175 $68 #
cone-surface $-1 -1 $-1 0 0 7.5999999999999996 0 0 -1 0.25 0 0 1 I I 0 1 0.25 forward I I I I #
coedge $-1 -1 $-1 $176 $176 $177 $178 forward $71 $-1 #
coedge $-1 -1 $-1 $115 $113 $72 $112 reversed $69 $-1 #
edge $179 -1 $-1 $118 -1.2246063538223773e-016 $119 3.1415926535897931 $72 $180 forward @7 unknown #
coedge $-1 -1 $-1 $111 $77 $73 $114 forward $69 $-1 #
edge $-1 -1 $-1 $81 0 $119 11.399999999999999 $73 $181 forward @7 unknown #
coedge $-1 -1 $-1 $77 $111 $74 $116 reversed $69 $-1 #
edge $-1 -1 $-1 $80 0 $118 11.399999999999999 $74 $182 forward @7 unknown #
attrib_edge_convexity-kcp-attrib $-1 -1 $183 $-1 $76 1 #
vertex $-1 -1 $-1 $116 $184 #
vertex $-1 -1 $-1 $114 $185 #
ellipse-curve $-1 -1 $-1 0 0 6.3999999999999995 0 0 -1 -0.39999999999999997 0 0 1 I I #
attrib_edge_convexity-kcp-attrib $-1 -1 $186 $-1 $78 1 #
ellipse-curve $-1 -1 $-1 0 -6.9388939039072284e-017 -5 4.4408920985006262e-015 -1.3142064458012402e-030 1 -0.39999999999999997 1.1837319319196737e-016 1.7763568394002505e-015 1 I I #
convexity-sys-attrib $-1 -1 $-1 $79 $53 #
point $-1 -1 $-1 -0.39999999999999997 4.8984254152895085e-017 -4.9999999999999982 #
point $-1 -1 $-1 0.39999999999999997 -9.7968508305790171e-017 -4.9999999999999982 #
face $-1 -1 $-1 $187 $188 $19 $-1 $189 reversed single #
loop $-1 -1 $-1 $-1 $190 $83 #
plane-surface $-1 -1 $-1 -0.39999999999999997 0 0 1 0 0 0 0 -1 forward_v I I I I #
coedge $-1 -1 $-1 $191 $137 $192 $193 forward $84 $-1 #
coedge $-1 -1 $-1 $194 $86 $191 $195 forward $56 $-1 #
coedge $-1 -1 $-1 $86 $194 $196 $197 forward $56 $-1 #
coedge $-1 -1 $-1 $140 $139 $86 $133 reversed $141 $-1 #
edge $-1 -1 $-1 $198 -0.40000000000000002 $199 0.40000000000000002 $132 $200 forward @7 unknown #
coedge $-1 -1 $-1 $88 $87 $201 $202 forward $38 $-1 #
coedge $-1 -1 $-1 $203 $204 $87 $136 reversed $188 $-1 #
edge $-1 -1 $-1 $143 -0.39999999999999997 $205 0.39999999999999997 $135 $206 forward @7 unknown #
coedge $-1 -1 $-1 $129 $207 $88 $138 reversed $84 $-1 #
edge $-1 -1 $-1 $208 -0.39999999999999997 $142 0.39999999999999997 $137 $209 forward @7 unknown #
coedge $-1 -1 $-1 $132 $89 $207 $210 forward $141 $-1 #
coedge $-1 -1 $-1 $89 $132 $203 $211 reversed $141 $-1 #
loop $-1 -1 $-1 $-1 $139 $187 #
vertex $-1 -1 $-1 $90 $212 #
vertex $-1 -1 $-1 $90 $213 #
straight-curve $-1 -1 $-1 0.39999999999999997 0 6.0000000000000009 0 1 0 I I #
face $-1 -1 $-1 $214 $215 $21 $-1 $216 reversed single #
loop $-1 -1 $-1 $-1 $217 $91 #
coedge $-1 -1 $-1 $218 $219 $220 $221 reversed $92 $-1 #
coedge $-1 -1 $-1 $156 $93 $222 $223 forward $60 $-1 #
coedge $-1 -1 $-1 $224 $225 $93 $150 forward $226 $-1 #
edge $-1 -1 $-1 $227 -3.1415926535897931 $158 -1.5707963267948968 $149 $228 forward @7 unknown #
coedge $-1 -1 $-1 $95 $94 $229 $230 reversed $41 $-1 #
coedge $-1 -1 $-1 $231 $232 $94 $153 forward $233 $-1 #
edge $-1 -1 $-1 $234 1.2246063538223773e-016 $159 1.5707963267948968 $152 $235 forward @7 unknown #
coedge $-1 -1 $-1 $236 $237 $95 $155 forward $238 $-1 #
edge $-1 -1 $-1 $158 -1.5707963267948968 $239 -1.2246063538223773e-016 $154 $228 forward @7 unknown #
coedge $-1 -1 $-1 $96 $148 $240 $241 reversed $60 $-1 #
coedge $-1 -1 $-1 $242 $243 $244 $97 forward $245 $-1 #
vertex $-1 -1 $-1 $246 $247 #
vertex $-1 -1 $-1 $248 $249 #
straight-curve $-1 -1 $-1 0 -0.40000000000000002 -5.9999999999999991 0 0 -1 I I #
loop $-1 -1 $-1 $250 $251 $98 #
plane-surface $-1 -1 $-1 0.022377622377622371 0 5.3999999999999995 -1.3839665003877402e-031 1.0379748752908052e-031 1 1 0 1.3839665003877402e-031 forward_v I I I I #
loop $-1 -1 $-1 $-1 $104 $62 #
coedge $-1 -1 $-1 $164 $164 $102 $166 reversed $99 $-1 #
coedge $-1 -1 $-1 $165 $165 $251 $252 reversed $101 $-1 #
edge $-1 -1 $-1 $253 -3.1415926535897931 $253 3.1415926535897931 $102 $254 forward @7 unknown #
coedge $-1 -1 $-1 $167 $167 $103 $168 forward $250 $-1 #
edge $255 -1 $-1 $256 -3.1415926535897931 $256 3.1415926535897931 $103 $257 forward @7 unknown #
vertex $-1 -1 $-1 $105 $258 #
ellipse-curve $-1 -1 $-1 0 2.7755575615628914e-017 6.0000000000000009 0 0 1 0.25 0 0 1 I I #
model_id-kcp-attrib $-1 -1 $-1 $-1 $107 1 1021500319 1021500319 -1222901759 7 #
face $259 -1 $-1 $-1 $260 $8 $-1 $261 forward single #
loop $-1 -1 $-1 $-1 $262 $107 #
plane-surface $-1 -1 $-1 0 0 7 0 0 -1 1 0 0 forward_v I I I I #
coedge $-1 -1 $-1 $263 $264 $262 $265 forward $108 $-1 #
coedge $-1 -1 $-1 $110 $110 $266 $267 reversed $71 $-1 #
coedge $-1 -1 $-1 $264 $263 $110 $178 reversed $108 $-1 #
edge $268 -1 $-1 $269 0 $270 3.1415926535897931 $110 $271 forward @7 unknown #
attrib_edge_convexity-kcp-attrib $-1 -1 $272 $-1 $112 1 #
ellipse-curve $-1 -1 $-1 0 0 6.3999999999999995 0 0 1 -0.39999999999999997 0 0 1 I I #
straight-curve $-1 -1 $-1 0.39999999999999997 -9.7968508305790171e-017 -4.9999999999999982 0 0 1 I I #
straight-curve $-1 -1 $-1 -0.39999999999999997 4.8984254152895085e-017 -4.9999999999999982 0 0 1 I I #
convexity-sys-attrib $-1 -1 $-1 $117 $76 #
point $-1 -1 $-1 -0.39999999999999997 4.8984254152895085e-017 6.4000000000000004 #
point $-1 -1 $-1 0.39999999999999997 0 6.3999999999999995 #
convexity-sys-attrib $-1 -1 $-1 $121 $78 #
face $-1 -1 $-1 $-1 $141 $19 $-1 $273 reversed single #
loop $-1 -1 $-1 $-1 $203 $126 #
plane-surface $-1 -1 $-1 0 0.40000000000000002 0 0 -1 0 0 0 -1 forward_v I I I I #
coedge $-1 -1 $-1 $274 $201 $204 $275 forward $127 $-1 #
coedge $-1 -1 $-1 $207 $129 $130 $195 reversed $84 $-1 #
coedge $-1 -1 $-1 $201 $274 $129 $193 reversed $127 $-1 #
edge $-1 -1 $-1 $208 -6.0000000000000009 $276 6.0000000000000009 $192 $277 forward @7 unknown #
coedge $-1 -1 $-1 $131 $130 $274 $278 forward $56 $-1 #
edge $-1 -1 $-1 $199 -0.39999999999999997 $276 0.39999999999999997 $191 $279 forward @7 unknown #
coedge $-1 -1 $-1 $204 $203 $131 $197 reversed $188 $-1 #
edge $-1 -1 $-1 $280 -0.39999999999999997 $198 0.39999999999999997 $196 $281 forward @7 unknown #
vertex $-1 -1 $-1 $133 $282 #
vertex $-1 -1 $-1 $210 $283 #
straight-curve $-1 -1 $-1 0.39999999999999997 0 -6.0000000000000009 0 -1 0 I I #
coedge $-1 -1 $-1 $190 $192 $134 $202 reversed $127 $-1 #
edge $-1 -1 $-1 $205 -0.40000000000000002 $208 0.40000000000000002 $201 $284 forward @7 unknown #
coedge $-1 -1 $-1 $196 $135 $140 $211 forward $188 $-1 #
coedge $-1 -1 $-1 $135 $196 $190 $275 reversed $188 $-1 #
vertex $-1 -1 $-1 $136 $285 #
straight-curve $-1 -1 $-1 0 0.40000000000000002 6.0000000000000009 -1 0 0 I I #
coedge $-1 -1 $-1 $137 $191 $139 $210 reversed $84 $-1 #
vertex $-1 -1 $-1 $202 $286 #
straight-curve $-1 -1 $-1 0 -0.40000000000000002 6.0000000000000009 1 0 0 I I #
edge $-1 -1 $-1 $142 -6.0000000000000009 $199 6.0000000000000009 $139 $287 forward @7 unknown #
edge $-1 -1 $-1 $143 -6.0000000000000009 $198 6.0000000000000009 $140 $288 forward @7 unknown #
point $-1 -1 $-1 0.39999999999999997 -0.40000000000000002 6.0000000000000009 #
point $-1 -1 $-1 0.39999999999999997 0.40000000000000002 6.0000000000000009 #
face $-1 -1 $-1 $289 $245 $21 $-1 $290 reversed single #
loop $-1 -1 $-1 $-1 $229 $145 #
plane-surface $-1 -1 $-1 -0.39999999999999997 0 0 1 0 0 0 0 -1 forward_v I I I I #
coedge $-1 -1 $-1 $222 $291 $292 $293 reversed $146 $-1 #
coedge $-1 -1 $-1 $294 $147 $295 $296 reversed $92 $-1 #
coedge $-1 -1 $-1 $147 $294 $151 $230 forward $92 $-1 #
coedge $-1 -1 $-1 $297 $298 $147 $221 forward $299 $-1 #
edge $-1 -1 $-1 $300 -1.5707963267948966 $234 1.2246063538223773e-016 $220 $235 forward @7 unknown #
coedge $-1 -1 $-1 $301 $217 $302 $223 reversed $146 $-1 #
edge $-1 -1 $-1 $227 -12 $303 1.7763568394002505e-015 $302 $304 forward @7 unknown #
coedge $-1 -1 $-1 $225 $149 $243 $246 forward $226 $-1 #
coedge $-1 -1 $-1 $149 $224 $305 $306 forward $226 $-1 #
loop $-1 -1 $-1 $-1 $149 $307 #
vertex $-1 -1 $-1 $308 $309 #
ellipse-curve $-1 -1 $-1 0 2.7755575615628914e-017 6.0000000000000009 0 0 -1 -0.39999999999999997 4.8984254152895085e-017 0 1 I I #
coedge $-1 -1 $-1 $310 $311 $312 $230 forward $215 $-1 #
edge $-1 -1 $-1 $239 -12 $234 1.7763568394002505e-015 $229 $313 forward @7 unknown #
coedge $-1 -1 $-1 $232 $152 $314 $248 forward $233 $-1 #
coedge $-1 -1 $-1 $152 $231 $310 $315 forward $233 $-1 #
loop $-1 -1 $-1 $-1 $152 $316 #
vertex $-1 -1 $-1 $317 $318 #
ellipse-curve $-1 -1 $-1 0 2.7755575615628914e-017 -6.0000000000000009 0 0 1 -0.39999999999999997 4.8984254152895085e-017 0 1 I I #
coedge $-1 -1 $-1 $237 $154 $311 $319 forward $238 $-1 #
coedge $-1 -1 $-1 $154 $236 $320 $321 forward $238 $-1 #
loop $-1 -1 $-1 $-1 $154 $322 #
vertex $-1 -1 $-1 $319 $323 #
coedge $-1 -1 $-1 $324 $325 $156 $241 forward $326 $-1 #
edge $-1 -1 $-1 $159 1.5707963267948968 $303 3.1415926535897931 $240 $235 forward @7 unknown #
coedge $-1 -1 $-1 $327 $157 $325 $328 reversed $245 $-1 #
coedge $-1 -1 $-1 $157 $327 $224 $246 reversed $245 $-1 #
coedge $-1 -1 $-1 $320 $314 $61 $97 reversed $329 $-1 #
loop $-1 -1 $-1 $-1 $157 $214 #
edge $-1 -1 $-1 $158 0 $330 0.39999999999999997 $243 $331 forward @7 unknown #
point $-1 -1 $-1 0 -0.40000000000000002 6.0000000000000009 #
edge $-1 -1 $-1 $159 0 $332 0.39999999999999997 $314 $333 forward @7 unknown #
point $-1 -1 $-1 0 -0.40000000000000002 -6.0000000000000009 #
loop $-1 -1 $-1 $-1 $167 $98 #
coedge $-1 -1 $-1 $251 $251 $165 $252 forward $161 $-1 #
edge $334 -1 $-1 $335 -3.1415926535897931 $335 3.1415926535897931 $165 $336 forward @7 unknown #
vertex $-1 -1 $-1 $166 $337 #
ellipse-curve $-1 -1 $-1 0 2.7755575615628914e-017 6 0 0 -1 -0.39999999999999997 4.8984254152895085e-017 0 1 I I #
convexity-sys-attrib $-1 -1 $-1 $-1 $168 #
vertex $-1 -1 $-1 $168 $338 #
ellipse-curve $-1 -1 $-1 0 2.7755575615628914e-017 5.4000000000000004 0 0 1 0.25 0 0 1 I I #
point $-1 -1 $-1 0.25 -3.3474742075489949e-017 6.0000000000000009 #
model_id-kcp-attrib $-1 -1 $-1 $-1 $172 1 1021500319 1021500319 -1222901759 8 #
loop $-1 -1 $-1 $-1 $266 $172 #
cone-surface $-1 -1 $-1 0 0 7.5999999999999996 0 0 -1 0.25 0 0 1 I I 0 1 0.25 forward I I I I #
coedge $-1 -1 $-1 $339 $339 $175 $265 reversed $173 $-1 #
coedge $-1 -1 $-1 $177 $175 $340 $341 reversed $108 $-1 #
coedge $-1 -1 $-1 $175 $177 $342 $343 forward $108 $-1 #
edge $-1 -1 $-1 $344 1.2246063538223773e-016 $345 3.1415926535897931 $175 $346 forward @7 unknown #
coedge $-1 -1 $-1 $340 $342 $176 $267 forward $260 $-1 #
edge $347 -1 $-1 $269 0 $270 3.1415926535897931 $176 $348 forward @7 unknown #
attrib_edge_convexity-kcp-attrib $-1 -1 $349 $-1 $178 2 #
vertex $-1 -1 $-1 $267 $350 #
vertex $-1 -1 $-1 $267 $351 #
ellipse-curve $-1 -1 $-1 0 6.9388939039072284e-018 6.3999999999999995 0 0 -1 -0.25 2.3676264941652203e-017 0 1 I I #
convexity-sys-attrib $-1 -1 $-1 $179 $112 #
plane-surface $-1 -1 $-1 0.39999999999999997 0 0 -1 0 0 0 0 1 forward_v I I I I #
coedge $-1 -1 $-1 $192 $190 $194 $278 reversed $127 $-1 #
edge $-1 -1 $-1 $205 -6.0000000000000009 $280 6.0000000000000009 $204 $352 forward @7 unknown #
vertex $-1 -1 $-1 $278 $353 #
straight-curve $-1 -1 $-1 -0.39999999999999997 -0.40000000000000002 0 0 0 -1 I I #
edge $-1 -1 $-1 $276 -0.40000000000000002 $280 0.40000000000000002 $274 $354 forward @7 unknown #
straight-curve $-1 -1 $-1 0 -0.40000000000000002 -6.0000000000000009 -1 0 0 I I #
vertex $-1 -1 $-1 $197 $355 #
straight-curve $-1 -1 $-1 0 0.40000000000000002 -6.0000000000000009 1 0 0 I I #
point $-1 -1 $-1 0.39999999999999997 0.40000000000000002 -6.0000000000000009 #
point $-1 -1 $-1 0.39999999999999997 -0.40000000000000002 -6.0000000000000009 #
straight-curve $-1 -1 $-1 -0.39999999999999997 0 6.0000000000000009 0 -1 0 I I #
point $-1 -1 $-1 -0.39999999999999997 0.40000000000000002 6.0000000000000009 #
point $-1 -1 $-1 -0.39999999999999997 -0.40000000000000002 6.0000000000000009 #
straight-curve $-1 -1 $-1 0.39999999999999997 -0.40000000000000002 0 0 0 -1 I I #
straight-curve $-1 -1 $-1 0.39999999999999997 0.40000000000000002 0 0 0 -1 I I #
face $-1 -1 $-1 $356 $357 $21 $-1 $358 reversed single #
plane-surface $-1 -1 $-1 0 -0.40000000000000002 0 0 1 0 0 0 1 forward_v I I I I #
coedge $-1 -1 $-1 $217 $301 $218 $296 forward $146 $-1 #
coedge $-1 -1 $-1 $359 $360 $217 $293 forward $361 $-1 #
edge $-1 -1 $-1 $303 -3.1415926535897931 $300 -1.5707963267948966 $292 $235 forward @7 unknown #
coedge $-1 -1 $-1 $219 $218 $362 $363 reversed $92 $-1 #
coedge $-1 -1 $-1 $364 $365 $366 $296 forward $367 $-1 #
edge $-1 -1 $-1 $368 -12 $300 1.7763568394002505e-015 $295 $369 forward @7 unknown #
coedge $-1 -1 $-1 $298 $220 $370 $317 forward $299 $-1 #
coedge $-1 -1 $-1 $220 $297 $364 $371 forward $299 $-1 #
loop $-1 -1 $-1 $-1 $220 $372 #
vertex $-1 -1 $-1 $373 $374 #
coedge $-1 -1 $-1 $291 $222 $375 $376 reversed $146 $-1 #
coedge $-1 -1 $-1 $377 $378 $379 $223 forward $357 $-1 #
vertex $-1 -1 $-1 $380 $381 #
straight-curve $-1 -1 $-1 0.39999999999999997 2.7755575615628914e-017 -5.9999999999999991 0 0 -1 I I #
coedge $-1 -1 $-1 $382 $379 $225 $306 reversed $383 $-1 #
edge $-1 -1 $-1 $330 -0.40000000000000002 $227 2.7755575615628914e-017 $305 $384 forward @7 unknown #
face $-1 -1 $-1 $322 $226 $21 $-1 $385 forward single #
edge $-1 -1 $-1 $227 2.7755575615628914e-017 $386 0.40000000000000002 $378 $384 forward @7 unknown #
point $-1 -1 $-1 0.39999999999999997 2.7755575615628914e-017 6.0000000000000009 #
coedge $-1 -1 $-1 $387 $229 $232 $315 reversed $215 $-1 #
coedge $-1 -1 $-1 $229 $387 $236 $319 reversed $215 $-1 #
coedge $-1 -1 $-1 $388 $370 $219 $230 reversed $389 $-1 #
straight-curve $-1 -1 $-1 -0.39999999999999997 2.7755575615628914e-017 -5.9999999999999991 0 0 -1 I I #
coedge $-1 -1 $-1 $244 $390 $231 $248 reversed $329 $-1 #
edge $-1 -1 $-1 $332 -0.40000000000000002 $234 2.7755575615628914e-017 $310 $391 forward @7 unknown #
face $-1 -1 $-1 $392 $233 $21 $-1 $393 reversed single #
edge $-1 -1 $-1 $234 2.7755575615628914e-017 $394 0.40000000000000002 $370 $391 forward @7 unknown #
point $-1 -1 $-1 -0.39999999999999997 2.7755575615628914e-017 -6.0000000000000009 #
edge $-1 -1 $-1 $239 -2.7755575615628914e-017 $395 0.40000000000000002 $311 $396 forward @7 unknown #
coedge $-1 -1 $-1 $390 $244 $237 $321 reversed $329 $-1 #
edge $-1 -1 $-1 $395 -0.39999999999999997 $158 0 $320 $331 forward @7 unknown #
face $-1 -1 $-1 $397 $238 $21 $-1 $385 forward single #
point $-1 -1 $-1 -0.39999999999999997 2.7755575615628914e-017 6.0000000000000009 #
coedge $-1 -1 $-1 $325 $240 $398 $380 forward $326 $-1 #
coedge $-1 -1 $-1 $240 $324 $242 $328 forward $326 $-1 #
loop $-1 -1 $-1 $-1 $240 $392 #
coedge $-1 -1 $-1 $243 $242 $382 $399 reversed $245 $-1 #
edge $-1 -1 $-1 $400 -0.39999999999999997 $159 0 $242 $333 forward @7 unknown #
loop $-1 -1 $-1 $-1 $244 $401 #
vertex $-1 -1 $-1 $306 $402 #
straight-curve $-1 -1 $-1 0 -0.40000000000000002 6.0000000000000009 1 0 0 I I #
vertex $-1 -1 $-1 $315 $403 #
straight-curve $-1 -1 $-1 0 -0.40000000000000002 -6.0000000000000009 -1 0 0 I I #
convexity-sys-attrib $-1 -1 $-1 $-1 $252 #
vertex $-1 -1 $-1 $252 $404 #
ellipse-curve $-1 -1 $-1 0 2.7755575615628914e-017 5.3999999999999995 0 0 -1 -0.39999999999999997 4.8984254152895085e-017 0 1 I I #
point $-1 -1 $-1 0.39999999999999997 -7.0212932690161257e-017 6 #
point $-1 -1 $-1 -0.25 5.8370734461188345e-017 5.4000000000000004 #
coedge $-1 -1 $-1 $262 $262 $405 $406 forward $173 $-1 #
coedge $-1 -1 $-1 $405 $266 $263 $341 forward $260 $-1 #
edge $-1 -1 $-1 $270 0 $345 0.60000000000000053 $263 $407 forward @7 unknown #
coedge $-1 -1 $-1 $266 $405 $264 $343 reversed $260 $-1 #
edge $-1 -1 $-1 $269 0 $344 0.60000000000000053 $264 $408 forward @7 unknown #
vertex $-1 -1 $-1 $343 $409 #
vertex $-1 -1 $-1 $341 $410 #
ellipse-curve $-1 -1 $-1 0 0 7 0 0 -1 -0.25 0 0 1 I I #
attrib_edge_convexity-kcp-attrib $-1 -1 $411 $-1 $267 2 #
ellipse-curve $-1 -1 $-1 2.7755575615628914e-017 -1.3877787807814457e-017 6.3999999999999995 0 0 1 -0.25 4.4492946653373888e-017 0 1 I I #
convexity-sys-attrib $-1 -1 $-1 $268 $178 #
point $-1 -1 $-1 -0.25 3.0615158845559431e-017 6.3999999999999995 #
point $-1 -1 $-1 0.25 -6.1230317691118863e-017 6.3999999999999995 #
straight-curve $-1 -1 $-1 -0.39999999999999997 0.40000000000000002 0 0 0 -1 I I #
point $-1 -1 $-1 -0.39999999999999997 -0.40000000000000002 -6.0000000000000009 #
straight-curve $-1 -1 $-1 -0.39999999999999997 0 -6.0000000000000009 0 1 0 I I #
point $-1 -1 $-1 -0.39999999999999997 0.40000000000000002 -6.0000000000000009 #
face $-1 -1 $-1 $307 $412 $21 $-1 $385 forward single #
loop $-1 -1 $-1 $-1 $302 $289 #
plane-surface $-1 -1 $-1 0.39999999999999997 0 0 -1 0 0 0 0 1 forward_v I I I I #
coedge $-1 -1 $-1 $360 $292 $413 $373 forward $361 $-1 #
coedge $-1 -1 $-1 $292 $359 $377 $414 forward $361 $-1 #
loop $-1 -1 $-1 $-1 $292 $415 #
coedge $-1 -1 $-1 $416 $417 $294 $363 forward $418 $-1 #
edge $-1 -1 $-1 $239 -1.2246063538223773e-016 $368 1.5707963267948966 $362 $228 forward @7 unknown #
coedge $-1 -1 $-1 $419 $295 $298 $371 reversed $367 $-1 #
coedge $-1 -1 $-1 $295 $419 $416 $420 reversed $367 $-1 #
coedge $-1 -1 $-1 $421 $413 $291 $296 reversed $422 $-1 #
loop $-1 -1 $-1 $-1 $295 $423 #
vertex $-1 -1 $-1 $420 $424 #
straight-curve $-1 -1 $-1 0 0.40000000000000002 -5.9999999999999991 0 0 -1 I I #
coedge $-1 -1 $-1 $312 $425 $297 $317 reversed $389 $-1 #
edge $-1 -1 $-1 $394 -0.39999999999999997 $300 0 $364 $426 forward @7 unknown #
face $-1 -1 $-1 $316 $299 $21 $-1 $393 reversed single #
edge $-1 -1 $-1 $300 0 $427 0.39999999999999997 $413 $426 forward @7 unknown #
point $-1 -1 $-1 0 0.40000000000000002 -6.0000000000000009 #
coedge $-1 -1 $-1 $428 $429 $301 $376 forward $412 $-1 #
edge $-1 -1 $-1 $368 1.5707963267948966 $227 3.1415926535897931 $375 $228 forward @7 unknown #
coedge $-1 -1 $-1 $430 $302 $360 $414 reversed $357 $-1 #
coedge $-1 -1 $-1 $302 $430 $428 $308 reversed $357 $-1 #
coedge $-1 -1 $-1 $305 $398 $148 $223 reversed $383 $-1 #
edge $-1 -1 $-1 $303 -2.7755575615628914e-017 $400 0.40000000000000002 $398 $431 forward @7 unknown #
point $-1 -1 $-1 0.39999999999999997 2.7755575615628914e-017 -6.0000000000000009 #
coedge $-1 -1 $-1 $398 $305 $327 $399 forward $383 $-1 #
loop $-1 -1 $-1 $-1 $379 $432 #
straight-curve $-1 -1 $-1 0.39999999999999997 0 6.0000000000000009 0 1 0 I I #
plane-surface $-1 -1 $-1 0 0 6.0000000000000009 0 0 1 1 0 0 forward_v I I I I #
vertex $-1 -1 $-1 $308 $433 #
coedge $-1 -1 $-1 $311 $310 $390 $434 reversed $215 $-1 #
coedge $-1 -1 $-1 $425 $312 $417 $435 reversed $389 $-1 #
loop $-1 -1 $-1 $-1 $312 $436 #
coedge $-1 -1 $-1 $314 $320 $387 $434 forward $329 $-1 #
straight-curve $-1 -1 $-1 -0.39999999999999997 0 -6.0000000000000009 0 1 0 I I #
face $-1 -1 $-1 $401 $326 $21 $-1 $393 reversed single #
plane-surface $-1 -1 $-1 0 0 -6.0000000000000009 0 0 1 1 0 0 forward_v I I I I #
vertex $-1 -1 $-1 $371 $437 #
vertex $-1 -1 $-1 $319 $438 #
straight-curve $-1 -1 $-1 -0.39999999999999997 0 6.0000000000000009 0 -1 0 I I #
face $-1 -1 $-1 $423 $418 $21 $-1 $385 forward single #
coedge $-1 -1 $-1 $379 $382 $324 $380 reversed $383 $-1 #
edge $-1 -1 $-1 $330 -6.0000000000000009 $400 6.0000000000000009 $382 $439 forward @7 unknown #
vertex $-1 -1 $-1 $399 $440 #
face $-1 -1 $-1 $436 $329 $21 $-1 $290 reversed single #
point $-1 -1 $-1 0.39999999999999997 -0.40000000000000002 6.0000000000000009 #
point $-1 -1 $-1 -0.39999999999999997 -0.40000000000000002 -6.0000000000000009 #
point $-1 -1 $-1 0.39999999999999997 -7.0212932690161257e-017 5.3999999999999995 #
coedge $-1 -1 $-1 $342 $340 $339 $406 reversed $260 $-1 #
edge $-1 -1 $-1 $344 -1.2246063538223773e-016 $345 3.1415926535897931 $339 $441 forward @7 unknown #
straight-curve $-1 -1 $-1 0.25 -6.1230317691118863e-017 6.3999999999999995 0 0 1 I I #
straight-curve $-1 -1 $-1 -0.25 3.0615158845559431e-017 6.3999999999999995 0 0 1 I I #
point $-1 -1 $-1 -0.25 3.0615158845559431e-017 7 #
point $-1 -1 $-1 0.25 0 7 #
convexity-sys-attrib $-1 -1 $-1 $347 $267 #
loop $-1 -1 $-1 $-1 $375 $356 #
coedge $-1 -1 $-1 $366 $442 $359 $373 reversed $422 $-1 #
edge $-1 -1 $-1 $427 -0.40000000000000002 $303 -2.7755575615628914e-017 $377 $431 forward @7 unknown #
face $-1 -1 $-1 $372 $361 $21 $-1 $393 reversed single #
coedge $-1 -1 $-1 $417 $362 $365 $420 forward $418 $-1 #
coedge $-1 -1 $-1 $362 $416 $388 $435 forward $418 $-1 #
loop $-1 -1 $-1 $-1 $362 $397 #
coedge $-1 -1 $-1 $365 $364 $425 $443 reversed $367 $-1 #
edge $-1 -1 $-1 $368 0 $444 0.39999999999999997 $365 $445 forward @7 unknown #
coedge $-1 -1 $-1 $442 $366 $429 $446 reversed $422 $-1 #
loop $-1 -1 $-1 $-1 $366 $447 #
face $-1 -1 $-1 $415 $367 $21 $-1 $448 reversed single #
point $-1 -1 $-1 0 0.40000000000000002 6.0000000000000009 #
coedge $-1 -1 $-1 $370 $388 $419 $443 forward $389 $-1 #
straight-curve $-1 -1 $-1 0 0.40000000000000002 -6.0000000000000009 1 0 0 I I #
vertex $-1 -1 $-1 $414 $449 #
coedge $-1 -1 $-1 $429 $375 $378 $308 forward $412 $-1 #
coedge $-1 -1 $-1 $375 $428 $421 $446 forward $412 $-1 #
coedge $-1 -1 $-1 $378 $377 $442 $450 reversed $357 $-1 #
straight-curve $-1 -1 $-1 0.39999999999999997 0 -6.0000000000000009 0 -1 0 I I #
face $-1 -1 $-1 $-1 $383 $21 $-1 $358 reversed single #
point $-1 -1 $-1 0.39999999999999997 0.40000000000000002 6.0000000000000009 #
edge $-1 -1 $-1 $395 -6.0000000000000009 $332 6.0000000000000009 $387 $451 forward @7 unknown #
edge $-1 -1 $-1 $444 -0.40000000000000002 $239 -2.7755575615628914e-017 $388 $396 forward @7 unknown #
face $-1 -1 $-1 $447 $389 $21 $-1 $216 reversed single #
point $-1 -1 $-1 -0.39999999999999997 0.40000000000000002 -6.0000000000000009 #
point $-1 -1 $-1 -0.39999999999999997 -0.40000000000000002 6.0000000000000009 #
straight-curve $-1 -1 $-1 0.39999999999999997 -0.40000000000000002 0 0 0 -1 I I #
point $-1 -1 $-1 0.39999999999999997 -0.40000000000000002 -6.0000000000000009 #
ellipse-curve $-1 -1 $-1 0 0 7 0 0 1 -0.25 0 0 1 I I #
coedge $-1 -1 $-1 $413 $421 $430 $450 forward $422 $-1 #
edge $-1 -1 $-1 $444 -6.0000000000000009 $394 6.0000000000000009 $419 $452 forward @7 unknown #
vertex $-1 -1 $-1 $420 $453 #
straight-curve $-1 -1 $-1 0 0.40000000000000002 6.0000000000000009 -1 0 0 I I #
edge $-1 -1 $-1 $386 -0.39999999999999997 $368 0 $421 $445 forward @7 unknown #
face $-1 -1 $-1 $432 $422 $21 $-1 $448 reversed single #
plane-surface $-1 -1 $-1 0 0.40000000000000002 0 0 -1 0 0 0 -1 forward_v I I I I #
point $-1 -1 $-1 0.39999999999999997 0.40000000000000002 -6.0000000000000009 #
edge $-1 -1 $-1 $386 -6.0000000000000009 $427 6.0000000000000009 $430 $454 forward @7 unknown #
straight-curve $-1 -1 $-1 -0.39999999999999997 -0.40000000000000002 0 0 0 -1 I I #
straight-curve $-1 -1 $-1 -0.39999999999999997 0.40000000000000002 0 0 0 -1 I I #
point $-1 -1 $-1 -0.39999999999999997 0.40000000000000002 6.0000000000000009 #
straight-curve $-1 -1 $-1 0.39999999999999997 0.40000000000000002 0 0 0 -1 I I #
End-of-ACIS-data 