  0
SECTION
  2
HEADER
  9
$ACADVER
  1
AC1009
  9
$INSBASE
 10
0.0
 20
0.0
 30
0.0
  9
$EXTMIN
 10
0.0
 20
0.0
 30
0.0
  9
$EXTMAX
 10
6.0
 20
6.0
 30
6.0
  9
$LIMMIN
 10
0.0
 20
0.0
  9
$LIMMAX
 10
12.0
 20
9.0
  9
$ORTHOMODE
 70
     0
  9
$REGENMODE
 70
     1
  9
$FILLMODE
 70
     1
  9
$QTEXTMODE
 70
     0
  9
$MIRRTEXT
 70
     1
  9
$DRAGMODE
 70
     2
  9
$LTSCALE
 40
1.0
  9
$OSMODE
 70
     0
  9
$ATTMODE
 70
     1
  9
$TEXTSIZE
 40
0.2
  9
$TRACEWID
 40
0.05
  9
$TEXTSTYLE
  7
STANDARD
  9
$CLAYER
  8
0
  9
$CELTYPE
  6
BYLAYER
  9
$CECOLOR
 62
   256
  9
$DIMSCALE
 40
1.0
  9
$DIMASZ
 40
0.18
  9
$DIMEXO
 40
0.0625
  9
$DIMDLI
 40
0.38
  9
$DIMRND
 40
0.0
  9
$DIMDLE
 40
0.0
  9
$DIMEXE
 40
0.18
  9
$DIMTP
 40
0.0
  9
$DIMTM
 40
0.0
  9
$DIMTXT
 40
0.18
  9
$DIMCEN
 40
0.09
  9
$DIMTSZ
 40
0.0
  9
$DIMTOL
 70
     0
  9
$DIMLIM
 70
     0
  9
$DIMTIH
 70
     1
  9
$DIMTOH
 70
     1
  9
$DIMSE1
 70
     0
  9
$DIMSE2
 70
     0
  9
$DIMTAD
 70
     0
  9
$DIMZIN
 70
     0
  9
$DIMBLK
  1

  9
$DIMASO
 70
     1
  9
$DIMSHO
 70
     1
  9
$DIMPOST
  1

  9
$DIMAPOST
  1

  9
$DIMALT
 70
     0
  9
$DIMALTD
 70
     2
  9
$DIMALTF
 40
25.4
  9
$DIMLFAC
 40
1.0
  9
$DIMTOFL
 70
     0
  9
$DIMTVP
 40
0.0
  9
$DIMTIX
 70
     0
  9
$DIMSOXD
 70
     0
  9
$DIMSAH
 70
     0
  9
$DIMBLK1
  1

  9
$DIMBLK2
  1

  9
$DIMSTYLE
  2
*UNNAMED
  9
$DIMCLRD
 70
     0
  9
$DIMCLRE
 70
     0
  9
$DIMCLRT
 70
     0
  9
$DIMTFAC
 40
1.0
  9
$DIMGAP
 40
0.09
  9
$LUNITS
 70
     2
  9
$LUPREC
 70
     4
  9
$SKETCHINC
 40
0.1
  9
$FILLETRAD
 40
0.0
  9
$AUNITS
 70
     0
  9
$AUPREC
 70
     0
  9
$MENU
  1
acad
  9
$ELEVATION
 40
0.0
  9
$PELEVATION
 40
0.0
  9
$THICKNESS
 40
0.0
  9
$LIMCHECK
 70
     0
  9
$BLIPMODE
 70
     1
  9
$CHAMFERA
 40
0.0
  9
$CHAMFERB
 40
0.0
  9
$SKPOLY
 70
     0
  9
$TDCREATE
 40
2449538.989303831
  9
$TDUPDATE
 40
2449538.989303831
  9
$TDINDWG
 40
0.0000000000
  9
$TDUSRTIMER
 40
0.0000000000
  9
$USRTIMER
 70
     1
  9
$ANGBASE
 50
0.0
  9
$ANGDIR
 70
     0
  9
$PDMODE
 70
     0
  9
$PDSIZE
 40
0.0
  9
$PLINEWID
 40
0.0
  9
$COORDS
 70
     1
  9
$SPLFRAME
 70
     0
  9
$SPLINETYPE
 70
     6
  9
$SPLINESEGS
 70
     8
  9
$ATTDIA
 70
     0
  9
$ATTREQ
 70
     1
  9
$HANDLING
 70
     1
  9
$HANDSEED
  5
9D
  9
$SURFTAB1
 70
     6
  9
$SURFTAB2
 70
     6
  9
$SURFTYPE
 70
     6
  9
$SURFU
 70
     6
  9
$SURFV
 70
     6
  9
$UCSNAME
  2

  9
$UCSORG
 10
0.0
 20
0.0
 30
0.0
  9
$UCSXDIR
 10
1.0
 20
0.0
 30
0.0
  9
$UCSYDIR
 10
0.0
 20
1.0
 30
0.0
  9
$PUCSNAME
  2

  9
$PUCSORG
 10
0.0
 20
0.0
 30
0.0
  9
$PUCSXDIR
 10
1.0
 20
0.0
 30
0.0
  9
$PUCSYDIR
 10
0.0
 20
1.0
 30
0.0
  9
$USERI1
 70
     0
  9
$USERI2
 70
     0
  9
$USERI3
 70
     0
  9
$USERI4
 70
     0
  9
$USERI5
 70
     0
  9
$USERR1
 40
0.0
  9
$USERR2
 40
0.0
  9
$USERR3
 40
0.0
  9
$USERR4
 40
0.0
  9
$USERR5
 40
0.0
  9
$WORLDVIEW
 70
     1
  9
$SHADEDGE
 70
     3
  9
$SHADEDIF
 70
    70
  9
$TILEMODE
 70
     1
  9
$MAXACTVP
 70
    16
  9
$PINSBASE
 10
0.0
 20
0.0
 30
0.0
  9
$PLIMCHECK
 70
     0
  9
$PEXTMIN
 10
1.000000E+20
 20
1.000000E+20
 30
1.000000E+20
  9
$PEXTMAX
 10
-1.000000E+20
 20
-1.000000E+20
 30
-1.000000E+20
  9
$PLIMMIN
 10
0.0
 20
0.0
  9
$PLIMMAX
 10
12.0
 20
9.0
  9
$UNITMODE
 70
     0
  9
$VISRETAIN
 70
     0
  9
$PLINEGEN
 70
     0
  9
$PSLTSCALE
 70
     1
  9
$TREEDEPTH
 70
  3020
  9
$DWGCODEPAGE
  3
iso8859-1
  0
ENDSEC
  0
SECTION
  2
TABLES
  0
TABLE
  2
VPORT
 70
     2
  0
VPORT
  2
*ACTIVE
 70
     0
 10
0.0
 20
0.0
 11
1.0
 21
1.0
 12
1.621863
 22
1.095445
 13
0.0
 23
0.0
 14
1.0
 24
1.0
 15
0.0
 25
0.0
 16
1.0
 26
2.0
 36
1.0
 17
0.0
 27
0.0
 37
0.0
 40
8.763561
 41
1.594883
 42
50.0
 43
0.0
 44
0.0
 50
0.0
 51
0.0
 71
     0
 72
   100
 73
     1
 74
     1
 75
     0
 76
     0
 77
     0
 78
     0
  0
ENDTAB
  0
TABLE
  2
LTYPE
 70
     1
  0
LTYPE
  2
CONTINUOUS
 70
    64
  3
Solid line
 72
    65
 73
     0
 40
0.0
  0
ENDTAB
  0
TABLE
  2
LAYER
 70
     2
  0
LAYER
  2
0
 70
    64
 62
     7
  6
CONTINUOUS
  0
LAYER
  2
AME_FRZ
 70
    65
 62
     7
  6
CONTINUOUS
  0
ENDTAB
  0
TABLE
  2
STYLE
 70
     1
  0
STYLE
  2
STANDARD
 70
     0
 40
0.0
 41
1.0
 50
0.0
 71
     0
 42
0.2
  3
txt
  4

  0
ENDTAB
  0
TABLE
  2
VIEW
 70
     0
  0
ENDTAB
  0
TABLE
  2
UCS
 70
     0
  0
ENDTAB
  0
TABLE
  2
APPID
 70
     3
  0
APPID
  2
ACAD
 70
    64
  0
APPID
  2
AME_SOL
 70
    64
  0
APPID
  2
AVE_INVOKE
 70
    64
  0
ENDTAB
  0
TABLE
  2
DIMSTYLE
 70
     0
  0
ENDTAB
  0
ENDSEC
  0
SECTION
  2
BLOCKS
  0
BLOCK
  8
0
  5
1
  2
AME_NIL
 70
    64
 10
0.0
 20
0.0
 30
0.0
  1
AME_NIL
  3
AME_NIL
  0
ENDBLK
  8
0
  5
2
  0
BLOCK
  8
0
  5
4
  2
AME_SOL
 70
    64
 10
0.0
 20
0.0
 30
0.0
  1
AME_SOL
  3
AME_SOL
  0
ENDBLK
  8
0
  5
5
  0
BLOCK
  8
0
  5
69
  2
AME_JNK
 70
     0
 10
0.0
 20
0.0
 30
0.0
  1
AME_JNK
  3
AME_JNK
  0
ENDBLK
  8
0
  5
6A
  0
BLOCK
  8
0
  5
79
  2
*U7
 70
    65
 10
0.0
 20
0.0
 30
0.0
  1
*U
  3
*U
  0
LINE
  8
0
 62
     7
  5
7A
 10
6.0
 20
6.0
 30
0.0
 11
6.0
 21
6.0
 31
4.0
1001
AME_SOL
1070
     1
1071
       36
  0
LINE
  8
0
 62
     7
  5
7B
 10
6.0
 20
1.0
 30
4.0
 11
6.0
 21
0.0
 31
4.0
1001
AME_SOL
1070
     1
1071
       35
  0
LINE
  8
0
 62
     7
  5
7C
 10
6.0
 20
6.0
 30
4.0
 11
6.0
 21
5.0
 31
4.0
1001
AME_SOL
1070
     1
1071
       34
  0
LINE
  8
0
 62
     7
  5
7D
 10
0.0
 20
6.0
 30
4.0
 11
6.0
 21
6.0
 31
4.0
1001
AME_SOL
1070
     1
1071
       33
  0
LINE
  8
0
 62
     7
  5
7E
 10
0.0
 20
6.0
 30
0.0
 11
0.0
 21
6.0
 31
4.0
1001
AME_SOL
1070
     1
1071
       32
  0
LINE
  8
0
 62
     7
  5
7F
 10
0.0
 20
1.0
 30
4.0
 11
0.0
 21
0.0
 31
4.0
1001
AME_SOL
1070
     1
1071
       31
  0
LINE
  8
0
 62
     7
  5
80
 10
0.0
 20
6.0
 30
4.0
 11
0.0
 21
5.0
 31
4.0
1001
AME_SOL
1070
     1
1071
       30
  0
LINE
  8
0
 62
     7
  5
81
 10
0.0
 20
0.0
 30
0.0
 11
0.0
 21
0.0
 31
4.0
1001
AME_SOL
1070
     1
1071
       29
  0
LINE
  8
0
 62
     7
  5
82
 10
6.0
 20
0.0
 30
4.0
 11
6.0
 21
0.0
 31
0.0
1001
AME_SOL
1070
     1
1071
       28
  0
LINE
  8
0
 62
     7
  5
83
 10
0.0
 20
0.0
 30
4.0
 11
6.0
 21
0.0
 31
4.0
1001
AME_SOL
1070
     1
1071
       27
  0
LINE
  8
0
 62
     7
  5
84
 10
0.0
 20
0.0
 30
0.0
 11
6.0
 21
0.0
 31
0.0
1001
AME_SOL
1070
     1
1071
       26
  0
LINE
  8
0
 62
     7
  5
85
 10
0.0
 20
6.0
 30
0.0
 11
0.0
 21
0.0
 31
0.0
1001
AME_SOL
1070
     1
1071
       25
  0
LINE
  8
0
 62
     7
  5
86
 10
6.0
 20
0.0
 30
0.0
 11
6.0
 21
6.0
 31
0.0
1001
AME_SOL
1070
     1
1071
       24
  0
LINE
  8
0
 62
     7
  5
87
 10
6.0
 20
6.0
 30
0.0
 11
0.0
 21
6.0
 31
0.0
1001
AME_SOL
1070
     1
1071
       23
  0
LINE
  8
0
 62
     7
  5
88
 10
0.0
 20
5.0
 30
4.0
 11
0.0
 21
5.0
 31
3.0
1001
AME_SOL
1070
     1
1071
       22
  0
LINE
  8
0
 62
     7
  5
89
 10
6.0
 20
5.0
 30
3.0
 11
6.0
 21
5.0
 31
4.0
1001
AME_SOL
1070
     1
1071
       21
  0
LINE
  8
0
 62
     7
  5
8A
 10
6.0
 20
5.0
 30
4.0
 11
0.0
 21
5.0
 31
4.0
1001
AME_SOL
1070
     1
1071
       20
  0
LINE
  8
0
 62
     7
  5
8B
 10
0.0
 20
1.0
 30
3.0
 11
0.0
 21
1.0
 31
4.0
1001
AME_SOL
1070
     1
1071
       19
  0
LINE
  8
0
 62
     7
  5
8C
 10
6.0
 20
1.0
 30
4.0
 11
6.0
 21
1.0
 31
3.0
1001
AME_SOL
1070
     1
1071
       18
  0
LINE
  8
0
 62
     7
  5
8D
 10
0.0
 20
1.0
 30
4.0
 11
6.0
 21
1.0
 31
4.0
1001
AME_SOL
1070
     1
1071
       17
  0
LINE
  8
0
 62
     7
  5
8E
 10
0.0
 20
1.0
 30
3.0
 11
6.0
 21
1.0
 31
3.0
1001
AME_SOL
1070
     1
1071
       16
  0
LINE
  8
0
 62
     7
  5
8F
 10
0.0
 20
5.0
 30
3.0
 11
0.0
 21
1.0
 31
3.0
1001
AME_SOL
1070
     1
1071
       15
  0
LINE
  8
0
 62
     7
  5
90
 10
6.0
 20
1.0
 30
3.0
 11
6.0
 21
5.0
 31
3.0
1001
AME_SOL
1070
     1
1071
       14
  0
LINE
  8
0
 62
     7
  5
91
 10
6.0
 20
5.0
 30
3.0
 11
0.0
 21
5.0
 31
3.0
1001
AME_SOL
1070
     1
1071
       13
  0
CIRCLE
  8
0
 62
     7
  5
92
 10
3.0
 20
3.0
 30
0.0
 40
1.0
1001
AME_SOL
1070
     1
1071
       12
  0
CIRCLE
  8
0
 62
     7
  5
93
 10
3.0
 20
3.0
 30
3.0
 40
1.0
1001
AME_SOL
1070
     1
1071
       11
  0
LINE
  8
0
 62
     7
  5
94
 10
3.0
 20
4.0
 30
0.0
 11
3.0
 21
4.0
 31
3.0
1001
AME_SOL
1070
     0
1071
        1
  0
LINE
  8
0
 62
     7
  5
95
 10
4.0
 20
3.0
 30
0.0
 11
4.0
 21
3.0
 31
3.0
1001
AME_SOL
1070
     0
1071
        1
  0
LINE
  8
0
 62
     7
  5
96
 10
3.0
 20
2.0
 30
0.0
 11
3.0
 21
2.0
 31
3.0
1001
AME_SOL
1070
     0
1071
        1
  0
LINE
  8
0
 62
     7
  5
97
 10
2.0
 20
3.0
 30
0.0
 11
2.0
 21
3.0
 31
3.0
1001
AME_SOL
1070
     0
1071
        1
  0
ENDBLK
  8
0
  5
98
  0
ENDSEC
  0
SECTION
  2
ENTITIES
  0
INSERT
  8
AME_FRZ
  5
3
  2
AME_NIL
 10
0.0
 20
0.0
 30
0.0
  0
INSERT
  8
AME_FRZ
  5
6
  2
AME_SOL
 10
0.0
 20
0.0
 30
0.0
1001
AME_SOL
1000
R2.1
1000
AME2
1000
sq cm
1070
     3
1070
     0
1070
     3
1000
wire
1040
45.0
1000
U
1040
1.0
1000
cm
1000
gm
1000
MILD_STEEL
1070
    25
1000
CSG
1070
     1
1070
     3
1070
     3
1070
     3
1070
     0
1000
cu cm
1070
     1
1070
     0
1005
3
  0
INSERT
  8
AME_FRZ
  5
37
  2
AME_NIL
 10
0.0
 20
0.0
 30
0.0
1001
AME_SOL
1002
{
1070
     1
1071
  2411920
1070
  1536
1070
     1
1010
6.0
1020
6.0
1030
4.0
1005
0
1005
0
1005
66
1040
0.0
1040
1.0
1070
     0
1000
MILD_STEEL
1000
0
1010
0.0
1020
0.0
1030
0.0
1010
0.0
1020
0.0
1030
1.0
1040
0.0
1002
}
1001
AVE_INVOKE
1000
SOLAVEMESH
  0
INSERT
  8
AME_FRZ
  5
48
  2
AME_NIL
 10
0.0
 20
1.0
 30
3.0
1001
AME_SOL
1002
{
1070
     1
1071
  2423352
1070
  1536
1070
     1
1010
6.0
1020
4.0
1030
1.0
1005
0
1005
0
1005
66
1040
0.0
1040
1.0
1070
     0
1000
MILD_STEEL
1000
0
1010
0.0
1020
1.0
1030
3.0
1010
0.0
1020
0.0
1030
1.0
1040
0.0
1002
}
1001
AVE_INVOKE
1000
SOLAVEMESH
  0
INSERT
  8
AME_FRZ
  5
66
  2
AME_NIL
 10
0.0
 20
0.0
 30
0.0
1001
AME_SOL
1002
{
1070
     1
1071
  2421808
1070
  1543
1070
     1
1070
     0
1005
37
1005
48
1005
0
1005
0
1005
99
1040
0.0
1040
1.0
1070
     0
1000
MILD_STEEL
1000
0
1010
0.0
1020
0.0
1030
0.0
1010
0.0
1020
0.0
1030
1.0
1040
0.0
1002
}
1001
AVE_INVOKE
1000
SOLAVEMESH
  0
INSERT
  8
AME_FRZ
  5
75
  2
AME_NIL
 10
3.0
 20
3.0
 30
0.0
1001
AME_SOL
1002
{
1070
     1
1071
  2309944
1070
  1538
1070
     1
1010
1.0
1020
1.0
1030
3.0
1005
0
1005
0
1005
99
1040
0.0
1040
1.0
1070
     0
1000
MILD_STEEL
1000
0
1010
3.0
1020
3.0
1030
0.0
1010
0.0
1020
0.0
1030
1.0
1040
0.0
1002
}
1001
AVE_INVOKE
1000
SOLAVEMESH
  0
INSERT
  8
0
  5
99
  2
*U7
 10
0.0
 20
0.0
 30
0.0
1001
AME_SOL
1002
{
1070
     1
1071
  2438384
1070
  1543
1070
     1
1070
     0
1005
66
1005
75
1005
0
1005
9A
1005
0
1040
0.0
1040
1.0
1070
     0
1000
MILD_STEEL
1000
0
1002
}
1001
AVE_INVOKE
1000
SOLAVEMESH
  0
INSERT
  8
AME_FRZ
  5
9A
  2
AME_NIL
 10
1.0
 20
1.0
 30
1.0
1001
AME_SOL
1004
C7CF0100F7007B017A01780174016C015F010300FD0060013C007F006D0161015201C0004301ED00300190004C005F0062015301440131012300B0003201EF00220119010F01BE00BD000C00FC004501050044000F0075016E016301020054014601F2005400470133011E00DF003401E3002301E100DA00
1004
6401180055014801A400EC00F8006F016501560149018400350124011A01F900E000C6001700800057011000750066010700BF00790176017001F000670158014A01E9004E002400590196004B0136016B00DB00370162001400710168015A014C01380161008D00390125011F00210026012D0035004D01
1004
3A012701B5001B017800F70028011C014D0010010A00A8001D011101B80058001201010100010B0002010D0019003B0129011E0113010301FA00F6000401F500EB0014010501E80038000601D800CE001F0115010701CD00CC000801CB00920016010901950048000A01CA009800B9003F00690101002500
1004
770172016A015B014E013C0150002A01200117010B016800C9000C01C700520018010D01A900C4000E01C200C1000900EE004F013D010400FE003E012B010E0012002C01C30028005C01080050013F012D01EA008C0083004001A000FB0040007301FF006B015D017E005101410176002E01E20026004201
1004
C8002F01880021011300F1005E017C00890000006600660060A33D68CEE73B609A9352AADC0090086BBC3C0090086BBC3C0090086BBC3C77CE15F9C53477CE15F9C53477CE15F9C69AB7679211314720C93E4F395314720C93E4F3950024021AEF0F1DF3857E71A68EF9C2BF38D34985D8A7B1A3B26AD661
1004
24A2E96E76B54D5D9849FF42BFFFFFFFA15FFFD937F64DFF1AFE857F42BFFFFFECC24FFA15FFFFFFFD0AFFFEC9BFB26FF8D7F42BFA15FFFFFD07A946600E98DFFA15FFFFFFFD0AFFADFB4D7D937FC88DA85389D5012A789A36A14E275404A9E17FC8E36A14E275404A9E26FFFEC9A36A14E275404A9E156F
1004
FFFB269151DCE728EE7396FFFFB26A946608E98DFFA15FFFFFFFD0AFF988739CE71CD5BF6FF911B50A713AA0254F1346D429C4EA80953C2FF91C6D429C4EA80953C4DFFFD9346D429C4EA80953C2ADFFFF64D22A3B9CE51DCE72DFFFF64D528CC2DD31BFF42BFFFFFFFA15FFFCD37F64DFF2236A14E27540
1004
4A9E268DA85389D5012A785FF238DA85389D5012A789BFFFB268DA85389D5012A7855BFFFEC9A4547739CA3B9CE5BFFFEC9AA5198F4C6FFD0AFFFFFFFE857FCC439CE738E6FE69BFE446D429C4EA80953C4D1B50A713AA0254F0BFE471B50A713AA0254F137FFF64D1B50A713AA0254F0AB7FFFD9348A8EE
1004
73947739CB7FFFD9359E48350024021AEF0F7B9446254863864A938E59A24839A3BE70AFCE29AC63E70AFCE4FB4985D8A7B1A3B26AD3049132425B9DAD4CB66093FFFE857FFF42BFFFFFFFA15FD9346BFFFFFFFFFE6093FFFE857FFF42BFFFFFFFA15FD9346BFFFFFFFFFA0F679231200480435DE1EF7288
1004
C4A90C70C95271CB3449073477CE15F9C53424021AE4C42A3BE70AFCE34D5A609221994B73B5AA6C5B3049FF42BFFFFFFFFFA15FFFD0AFEC9A35FFFFFFFFFF3049FF42BFFFFFFFFFA15FFFD0AFEC9A35FFFFFFFFFD07B3C91890024021AEF0F7BECDB39E85DEF349C72CD1241CD1DF3857E714D631F3857E
1004
727DA3BE70AFCE34D5A60925264B73B5AA6B5B3049FF99FE67F41FFA0FFE67F99FCA6FE9F6FE69A35FFFFFFFFFF3049FF99FE67F41FFA0FFE67F99FCA6FE9F6FE69A35FFFFFFFFFD07B3C906A00480435DE1E00480435DE1E00480435DE1E3BE70AFCE29A3BE70AFCE29A00480435DE2AB4C12462271856E
1004
B54C0B66093FFFE857FFF42BFFFFFFFFFE35FFFFFFFFFF3049FFFF42BFFFA15FFFFFFFFFF1AFFFFFFFFFE8559E48C48012010D77878012010D77878012010D77878EF9C2BF38A68012010D778A8EF9C2BF38D3569824B4B52D6EB4C42D9824FFA15FFFFFFFFFD0AFFFFFF8D7FFFFFFFFFCC127FD0AFFFFFF
1004
FFFE857FFFFFC6BFFFFFFFFFA156792328012010D77878012010D77878012010D77878012010D778A8EF9C2BF38A68EF9C2BF38D3569824BD8B52D6EB4BAD9824FFFFFFA15FFFD0AFFFFFFFF8D7FFFFFFFFFCC127FFFFFD0AFFFE857FFFFFFFC6BFFFFFFFFFA156792328012010D77878012010D7787BD47
1004
2CD1240ED1DF3857E714D1DF3857E714D1DF3857E71A6AD30492EA75EB75AA4D6CC127FD07FF33FCCFF33FA0FFE67F29BF94DFCD346BFFFFFFFFFE6093FE83FF99FE67F99FD07FF33F94DFCA6FE69A35FFFFFFFFFD0AB3C91890024021AEF0F2466D9CF42E6368012010D77878EF9C2BF38A68EF9C2BF38A
1004
68EF9C2BF38D356982499615EB75AA615B3049FF99FE67F41FFA0FFE67F99FCA6FE537F34D1AFFFFFFFFFF9824FFCCFF33FA0FFD07FF33FCCFE537F29BF9A68D7FFFFFFFFF42ACF24652466D9CF42E6368012010D77878012010D77878EF9C2BF38A68EF9C2BF38A68EF9C2BF38D3569824B01217ADD6A98
1004
96CC127FE67F41FFCCFF33FCCFE83FF29BF94DFCD346BFFFFFFFFFE6093FF33FA0FFE67F99FE67F41FF94DFCA6FE69A35FFFFFFFFFD0A963098A390649F279CA98A390649F279CA938E59A24839A3BE70AFCE34D1DF3857E71A6930BB14F634764D63D461B2567A8AC18863D461B2567A8AC1B488CE6CA1A
1004
7AFAD738A2E9626484BC8899212CA2E96E739CE739C339BFF42BFFFFFFFA15FFFD937F64DFD93589FD0AFE8558F5186C959EA2B06218F5186C959EA2B06D2C61314720C93E4F395314720C93E4F3950024021AEF0F1DF3857E71A68EF9C2BF38D340090086BBC558F5186C959EA2B06218F5186C959EA2B0
1004
6D22339B52D39EBEE72D28BA58C44E30E44A2E9631138C2E739CB719CDFFA15FFFFFFFD0AFFFEC9BFB26FFB13FA15FD0AB1EA30D92B3D4560C431EA30D92B3D4560DA58C200480435DE1EF7D9B673D0BBDE6938E59A24839A3BE70AFCE29AC63E70AFCE4FB4985D8A7B1A3B26FEC847EC9A4531B524A635F
1004
AD7384C90965264BC894992C4C9096E739CE739C98DFFFFA15FFFFFFFD07FEC9BFA7DBFB2691FD908FD934B184919B673D0B98DAF7288C4A90C70C95271CB3449073477CE15F9C5358C7CE15F9C9F6930BB14F634764D5BEC410C5739CE7293548A636A4993D7D6B9C26484B60242FC8B01217899212D6EE
1004
739C98DFFA15FFFFFFFFFD07FE537F19ADFD9348ADF620862B9CE73949AA58C200480435DE1EF7288C4A90C70C95271CB344907340090086BBC558C7CE15F9C9F6930BB14F634764DFD8D11F9893C8A636A49837AFAD7384C9096F62D4BC8BD8B52C4C9096B7739CE4C6FFD07FFFFFFFFFE83FFFF312AFEC
1004
9A47F63447E624F2C610024021AEF0F7B9446254863864A938E59A24839A3BE70AFCE29A12010D7262152617629EC68EC9BFFF94D2298DBDCA54F5F5AE7099212C4332979110CCA5899212DCE739CE73931BFFFF41FFFFFFFFA0FFFFD0AFEC9A47FFF29A58C200480435DE1EF7288C4A90C70C957A8E59A2
1004
481DA3BE70AFCE29A12010D7262151DF3857E71A6FEC847EC9A4531B537A975EBEB5CE10CCA59753AFC89753AF10CCA5ADDCE73931BFFFFFF42BFFFA0FFFFD937F42BF9A691FD908FD934B184919B673D0B98DAF7288C4A90C70C95271CB3449073477CE15F9C53424021AE4C42A3BE70AFCE34D62B9CE73
1004
89A7B15CE739C4D548A636A56335EBEB5CE10CCA5B01217E458090BC433296B7739CE4C6FFD0AFFFFFFFE83FFFF29AC5739CE70C95FC66B48B15CE739C4D3D8AE739CE26AA58C200480435DE1EF7288C4A90C70C95271CB344907340090086BBC5424021AE4C42A3BE70AFCE34DFCBABFB11A4531B52C52F
1004
3D7D6B9C21994B7B16A5E45EC5A9621994B5BB9CE72637FE83FFFFFFFF41FFFFFFA15FCBAA47F2EAFEC4696308012010D7787BDF66D9CF42EF79AF51CB344903B477CE15F9C5358C7CE15F9C9F68EF9C2BF38D37FFF29A4531B7B318F5F5AE714992CBA9D7E44BA9D794992D6EE739C98DFFFFFFA15FFFD0
1004
AFFFE537F4FB7F34D23FFF94D2C612466D9CF42E636BDF66D9CF42EF79A4E39668920E68EF9C2BF38A6B18F9C2BF393ED1DF3857E71A6B15CE739C323FF992298D971DEBEB5CE29325B01217E458090BCA4C96B7739CE4C6FFD0AFFFFFFFE857FFF29BFA7DBF9A69162B9CE738647FF3258C200480435DE1
1004
EF7D9B673D0BBDE6938E59A24839A00480435DE2AC63E70AFCE4FB477CE15F9C69BFC42DF41E4531B7B0CCAFD6B9C5264B7B16A5E45EC5A965264B5BB9CE72637FE83FFFFFFFF42BFFFFFA7DBFDA47F885BE83CB1840090086BBC3C919B673D0B98DA00480435DE1E3BE70AFCE29A3BE70AFCE29A0048043
1004
5DE2BFB211FB26914C6CB8CC2FDCE5A31138C265857E446227184CB0AF5BADD31BFFFF42BFFFFFFFA0FFD937F29BFE47F6423F64D2C612466D9CF42E6368012010D77878012010D77878EF9C2BF38A68EF9C2BF38A68012010D778AFEC847EC9A4531B63C42FDCE5A31138C2C0485F911889C6160242F5BA
1004
DD31BFF42BFFFFFFFFFA0FFCA6FEC9BFE47F6423F64D2C610024021AEF0F0024021AEF0F0024021AEF0F0024021AEF151DF3857E714D0024021AEF15FCA11FCC914C6D4B582EBF73968C44E30BD8B52F2231138C2F62D4B5BADD31BFF41FFFFFFFFFFA0FFFFFFF23F9423F992C610024021AEF0F0024021A
1004
EF0F0024021AEF0F1DF3857E714D0024021AEF150024021AEF15FFFCA6914C6DEE60B2FDCE5A31138C2D2D4BC88C44E30B4B52D6EB74C6FFFFD07FFFFFFFE83FFFFFFC8FFFE534B1840090086BBC3C0090086BBC3DEA39668920768EF9C2BF38A68012010D778A8EF9C2BF38D37F6423F64D2298DA9631CB
1004
F7396B4B52CBA9D7E45A5A965D4EBD6EB74C6FFFFFFD0AFFFE83FFFF64DFFFCD348FEC847EC9A58C248CDB39E85CC6D0024021AEF0F0024021AEF0F1DF3857E714D0024021AEF151DF3857E71A6FF11FDA4531B53230557EE72D696A5B01217E45A5A96C0485EB75BA637FE857FFFFFFF41FFFF94DFFFED2
1004
3FC47F696308012010D77878012010D77878012010D77878012010D778A8012010D778A8EF9C2BF38D37FFF34D2298D9462AFDCE5AD2D4B7B16A5E45A5A96F62D4B5BADD31BFF41FFFFFFFFA0FFFFFFFFF23FFF9A696308012010D77878012010D7787BD472CD1240ED0024021AEF151DF3857E714D1DF38
1004
57E71A6FEC84315CE739CE3C8A636A6D6092FDCE5AF62D4B2EA75F917B16A59753AF5BADD31BFFFFFF42BFA0FFFFFFFFD937F34D23FB210C5739CE738F2C610024021AEF0F0024021AEF0F7A8E59A2481DA00480435DE2A3BE70AFCE29A3BE70AFCE34D5BF6FEC9A4531B524F65FB9CB5EC5A965D4EBF22F
1004
62D4B2EA75EB75BA637FFFFFE857F41FFFFFFFFB26FE69A456FDBFB2696308012010D778792336CE7A1731B40090086BBC3C0090086BBC5477CE15F9C53477CE15F9C69BFC47F6914C6D4AD822BF7396BD8B52CCB0AFC8BD8B52CCB0AF5BADD31BFFFF42BFFFA0FFFFFFFFCA6FF691FE23FB4B1840090086
1004
BBC3C919B673D0B98DAF51CB344903B477CE15F9C53477CE15F9C53477CE15F9C69BF9423F992298DA9994DCBF73969753AF32C2BF225D4EBCCB0AF5BADD31BFFFF42BFFFFFFFA15FCA6FE537F34D23F9423F992C612466D9CF42E6368012010D7787BD472CD1240ED1DF3857E714D1DF3857E714D1DF385
1004
7E71A6FF81F42A4531B64A695FB9CB4BA9D7B01217E44BA9D7B01217ADD6E98DFFA15FFFFFFFFFD0AFE537F29BF9A691FF03E854B184919B673D0B98DA00480435DE1EF51CB344903B477CE15F9C53477CE15F9C53477CE15F9C69AB7D3EDFCA6914C6D4CAA685FB9CB4BA9D7B01217E44BA9D7B01217ADD
1004
6E98DFFA15FFFFFFFFFD0AFE537F29BF9A6915BE9F6FE534B184919B673D0B98DA48CDB39E85CC6D0024021AEF0F1DF3857E714D1DF3857E714D1DF3857E71A6FE6847F324531B608299D7EE72D32C2BD8090BF2265857B01217ADD6E98DFFA15FFFFFFFD0AFFFE537F29BF9A691FCD08FE654BE33A972
1005
9B
  0
INSERT
  8
AME_FRZ
  5
9B
  2
AME_NIL
 10
1.0
 20
1.0
 30
1.0
1001
AME_SOL
1004

1005
0
  0
ENDSEC
  0
EOF
