600 0 2 0           
24 FBMach with ACIS - 6.0.3 13 ACIS 6.0.3 NT 24 Wed May 23 21:59:48 2001 
1 9.9999999999999995e-007 1e-010 
body $2 $3 $-1 $4 #
bdycol-kcp $-1 1 1 $5 #
model_id-kcp-attrib $-1 $-1 $-1 $0 1 990669588 50 53608449 1 #
lump $-1 $-1 $6 $0 #
transform $-1 1 0 0 0 1 0 0 0 1 0 0 0 1 no_rotate no_reflect no_shear #
body $7 $8 $-1 $9 #
shell $-1 $-1 $-1 $10 $-1 $3 #
model_id-kcp-attrib $-1 $-1 $-1 $5 1 990669588 60 54263810 1 #
lump $-1 $-1 $11 $5 #
transform $-1 1 0 0 0 1 0 0 0 1 -2.06693025 -0.98425249999999997 0.29527575 1 no_rotate no_reflect no_shear #
face $12 $13 $14 $6 $-1 $15 forward single #
shell $-1 $-1 $-1 $16 $-1 $8 #
model_id-kcp-attrib $-1 $17 $-1 $10 1 990669588 50 53608449 2 #
face $18 $19 $20 $6 $-1 $21 reversed single #
loop $22 $-1 $23 $10 #
plane-surface $24 -2.06693025 -0.98425249999999997 0.59055150000000001 0 0 1 1 0 0 forward_v I I I I #
face $25 $26 $27 $11 $-1 $28 forward single #
face_name-twe-attrib $-1 $-1 $12 $10 1 #
model_id-kcp-attrib $-1 $29 $-1 $13 1 990669588 50 53608449 3 #
face $30 $31 $32 $6 $-1 $33 reversed single #
loop $34 $-1 $35 $13 #
plane-surface $36 -2.06693025 -0.98425249999999997 5.5511151231257802e-017 0 0 1 1 0 0 forward_v I I I I #
loop_type-twe-attrib $-1 $-1 $-1 $14 0 #
coedge $-1 $37 $38 $39 $40 forward $14 $-1 #
surf-twe-attrib $-1 $-1 $-1 $15 4 #
model_id-kcp-attrib $-1 $-1 $-1 $16 1 990669588 60 54263810 2 #
face $41 $42 $43 $11 $-1 $44 reversed single #
loop $-1 $-1 $45 $16 #
plane-surface $-1 0 0 0.29527575 0 0 1 1 0 0 forward_v I I I I #
face_name-twe-attrib $-1 $-1 $18 $13 2 #
model_id-kcp-attrib $-1 $46 $-1 $19 1 990669588 50 53608449 4 #
face $47 $48 $49 $6 $-1 $50 reversed single #
loop $51 $-1 $52 $19 #
plane-surface $53 -2.06693025 -2.362206 0.29527575 0 1 0 0 0 1 forward_v I I I I #
loop_type-twe-attrib $-1 $-1 $-1 $20 0 #
coedge $-1 $54 $55 $56 $57 forward $20 $-1 #
surf-twe-attrib $-1 $-1 $-1 $21 6 #
coedge $-1 $58 $23 $59 $60 forward $14 $-1 #
coedge $-1 $23 $58 $61 $62 forward $14 $-1 #
coedge $-1 $63 $64 $23 $40 reversed $65 $-1 #
edge $66 $67 -1.3779535000000001 $68 1.3779535000000001 $39 $69 forward 7 unknown #
model_id-kcp-attrib $-1 $-1 $-1 $26 1 990669588 60 54263810 3 #
face $70 $71 $72 $11 $-1 $73 reversed single #
loop $-1 $-1 $74 $26 #
plane-surface $-1 0 0 -0.29527575 0 0 1 1 0 0 forward_v I I I I #
coedge $-1 $75 $76 $77 $78 forward $27 $-1 #
face_name-twe-attrib $-1 $-1 $30 $19 3 #
model_id-kcp-attrib $-1 $79 $-1 $31 1 990669588 50 53608449 5 #
face $80 $81 $82 $6 $-1 $83 reversed single #
loop $84 $-1 $85 $31 #
plane-surface $86 -4.5275615 -0.98425249999999997 0.29527575 1 0 0 0 0 -1 forward_v I I I I #
loop_type-twe-attrib $-1 $-1 $-1 $32 0 #
coedge $-1 $87 $61 $88 $89 forward $32 $-1 #
surf-twe-attrib $-1 $-1 $-1 $33 10 #
coedge $-1 $90 $35 $87 $91 forward $20 $-1 #
coedge $-1 $35 $90 $92 $93 forward $20 $-1 #
coedge $-1 $64 $63 $35 $57 reversed $65 $-1 #
edge $94 $95 -1.3779535000000001 $96 1.3779535000000001 $56 $97 forward 7 unknown #
coedge $-1 $38 $37 $98 $99 forward $14 $-1 #
coedge $-1 $100 $101 $37 $60 reversed $82 $-1 #
edge $102 $68 -2.46063125 $103 2.46063125 $59 $104 forward 7 unknown #
coedge $-1 $52 $105 $38 $62 reversed $32 $-1 #
edge $106 $107 -2.46063125 $67 2.46063125 $61 $108 forward 7 unknown #
coedge $-1 $56 $39 $105 $109 forward $65 $-1 #
coedge $-1 $39 $56 $100 $110 reversed $65 $-1 #
loop $111 $-1 $63 $81 #
attrib_edge_convexity-kcp-attrib $-1 $112 $-1 $40 1 #
vertex $-1 $40 $113 #
vertex $-1 $40 $114 #
straight-curve $115 0.39370100000000002 -0.98425249999999997 0.59055150000000001 0 1 0 I I #
model_id-kcp-attrib $-1 $-1 $-1 $42 1 990669588 60 54263810 4 #
face $116 $117 $118 $11 $-1 $119 reversed single #
loop $-1 $-1 $120 $42 #
plane-surface $-1 0 -1.3779535000000001 0 0 1 0 0 0 1 forward_v I I I I #
coedge $-1 $121 $122 $123 $124 forward $43 $-1 #
coedge $-1 $125 $45 $126 $127 forward $27 $-1 #
coedge $-1 $45 $125 $128 $129 forward $27 $-1 #
coedge $-1 $130 $131 $45 $78 reversed $132 $-1 #
edge $-1 $133 -1.3779535000000001 $134 1.3779535000000001 $77 $135 forward 7 unknown #
face_name-twe-attrib $-1 $-1 $47 $31 4 #
model_id-kcp-attrib $-1 $136 $-1 $48 1 990669588 50 53608449 6 #
face $137 $-1 $65 $6 $-1 $138 reversed single #
loop $139 $-1 $100 $48 #
plane-surface $140 -2.06693025 0.39370100000000002 0.29527575 0 -1 0 0 0 -1 forward_v I I I I #
loop_type-twe-attrib $-1 $-1 $-1 $49 0 #
coedge $-1 $141 $98 $101 $142 forward $49 $-1 #
surf-twe-attrib $-1 $-1 $-1 $50 17 #
coedge $-1 $105 $52 $54 $91 reversed $32 $-1 #
coedge $-1 $98 $141 $52 $89 reversed $49 $-1 #
edge $143 $107 -0.29527575 $144 0.29527574999999995 $88 $145 forward 7 unknown #
coedge $-1 $55 $54 $141 $146 forward $20 $-1 #
edge $147 $96 -2.46063125 $144 2.46063125 $87 $148 forward 7 unknown #
coedge $-1 $101 $100 $55 $93 reversed $82 $-1 #
edge $149 $150 -2.46063125 $95 2.46063125 $92 $151 forward 7 unknown #
edge_name-twe-attrib $-1 $-1 $-1 $57 10 8704 #
vertex $-1 $57 $152 #
vertex $-1 $109 $153 #
straight-curve $154 0.39370100000000002 -0.98425249999999997 5.5511151231257802e-017 0 -1 0 I I #
coedge $-1 $85 $88 $58 $99 reversed $49 $-1 #
edge $155 $103 -1.3779535000000001 $107 1.3779535000000001 $98 $156 forward 7 unknown #
coedge $-1 $92 $59 $64 $110 forward $82 $-1 #
coedge $-1 $59 $92 $85 $142 reversed $82 $-1 #
attrib_edge_convexity-kcp-attrib $-1 $157 $-1 $60 1 #
vertex $-1 $60 $158 #
straight-curve $159 -2.06693025 0.39370100000000002 0.59055150000000001 -1 0 0 I I #
coedge $-1 $61 $87 $63 $109 reversed $32 $-1 #
attrib_edge_convexity-kcp-attrib $-1 $160 $-1 $62 1 #
vertex $-1 $99 $161 #
straight-curve $162 -2.06693025 -2.362206 0.59055150000000001 1 0 0 I I #
edge $163 $67 -0.29527575 $96 0.29527574999999995 $63 $164 forward 7 unknown #
edge $165 $68 -0.29527575 $95 0.29527574999999995 $64 $166 forward 7 unknown #
loop_type-twe-attrib $-1 $-1 $-1 $65 0 #
convexity-sys-attrib $-1 $167 $66 $40 #
point $-1 0.39370100000000002 -2.362206 0.59055150000000001 #
point $-1 0.39370100000000002 0.39370100000000002 0.59055150000000001 #
cur-twe-attrib $-1 $-1 $-1 $69 26 #
model_id-kcp-attrib $-1 $-1 $-1 $71 1 990669588 60 54263810 5 #
face $168 $169 $170 $11 $-1 $171 reversed single #
loop $-1 $-1 $172 $71 #
plane-surface $-1 -2.46063125 0 0 1 0 0 0 0 -1 forward_v I I I I #
coedge $-1 $173 $128 $174 $175 forward $72 $-1 #
coedge $-1 $176 $74 $173 $177 forward $43 $-1 #
coedge $-1 $74 $176 $178 $179 forward $43 $-1 #
coedge $-1 $131 $130 $74 $124 reversed $132 $-1 #
edge $-1 $180 -1.3779535000000001 $181 1.3779535000000001 $123 $182 forward 7 unknown #
coedge $-1 $76 $75 $183 $184 forward $27 $-1 #
coedge $-1 $185 $186 $75 $127 reversed $170 $-1 #
edge $-1 $134 -2.46063125 $187 2.46063125 $126 $188 forward 7 unknown #
coedge $-1 $120 $189 $76 $129 reversed $72 $-1 #
edge $-1 $190 -2.46063125 $133 2.46063125 $128 $191 forward 7 unknown #
coedge $-1 $123 $77 $189 $192 forward $132 $-1 #
coedge $-1 $77 $123 $185 $193 reversed $132 $-1 #
loop $-1 $-1 $130 $169 #
vertex $-1 $78 $194 #
vertex $-1 $78 $195 #
straight-curve $-1 2.46063125 0 0.29527575 0 1 0 I I #
face_name-twe-attrib $-1 $-1 $80 $48 5 #
model_id-kcp-attrib $-1 $196 $-1 $81 1 990669588 50 53608449 7 #
plane-surface $197 0.39370100000000002 -0.98425249999999997 0.29527575 -1 0 0 0 0 1 forward_v I I I I #
loop_type-twe-attrib $-1 $-1 $-1 $82 0 #
surf-twe-attrib $-1 $-1 $-1 $83 28 #
coedge $-1 $88 $85 $90 $146 reversed $49 $-1 #
edge $198 $103 -0.29527575 $150 0.29527574999999995 $101 $199 forward 7 unknown #
attrib_edge_convexity-kcp-attrib $-1 $200 $-1 $89 1 #
vertex $-1 $146 $201 #
straight-curve $202 -4.5275615 -2.362206 0.29527575 0 0 -1 I I #
edge $203 $144 -1.3779535000000001 $150 1.3779535000000001 $141 $204 forward 7 unknown #
attrib_edge_convexity-kcp-attrib $-1 $205 $-1 $91 1 #
straight-curve $206 -2.06693025 -2.362206 5.5511151231257802e-017 -1 0 0 I I #
edge_name-twe-attrib $-1 $-1 $-1 $93 6 8704 #
vertex $-1 $93 $207 #
straight-curve $208 -2.06693025 0.39370100000000002 5.5511151231257802e-017 1 0 0 I I #
point $-1 0.39370100000000002 0.39370100000000002 5.5511151231257802e-017 #
point $-1 0.39370100000000002 -2.362206 5.5511151231257802e-017 #
cur-twe-attrib $-1 $-1 $-1 $97 37 #
attrib_edge_convexity-kcp-attrib $-1 $209 $-1 $99 1 #
straight-curve $210 -4.5275615 -0.98425249999999997 0.59055150000000001 0 -1 0 I I #
convexity-sys-attrib $-1 $211 $102 $60 #
point $-1 -4.5275615 0.39370100000000002 0.59055150000000001 #
cur-twe-attrib $-1 $-1 $-1 $104 40 #
convexity-sys-attrib $-1 $212 $106 $62 #
point $-1 -4.5275615 -2.362206 0.59055150000000001 #
cur-twe-attrib $-1 $-1 $-1 $108 42 #
attrib_edge_convexity-kcp-attrib $-1 $213 $-1 $109 1 #
straight-curve $214 0.39370100000000002 -2.362206 0.29527575 0 0 -1 I I #
edge_name-twe-attrib $-1 $-1 $-1 $110 11 8704 #
straight-curve $215 0.39370100000000002 0.39370100000000002 0.29527575 0 0 -1 I I #
edge_name-twe-attrib $-1 $-1 $112 $40 12 8704 #
model_id-kcp-attrib $-1 $-1 $-1 $117 1 990669588 60 54263810 6 #
face $216 $-1 $132 $11 $-1 $217 reversed single #
loop $-1 $-1 $185 $117 #
plane-surface $-1 0 1.3779535000000001 0 0 -1 0 0 0 -1 forward_v I I I I #
coedge $-1 $218 $183 $186 $219 forward $118 $-1 #
coedge $-1 $189 $120 $121 $177 reversed $72 $-1 #
coedge $-1 $183 $218 $120 $175 reversed $118 $-1 #
edge $-1 $190 -0.29527575 $220 0.29527575 $174 $221 forward 7 unknown #
coedge $-1 $122 $121 $218 $222 forward $43 $-1 #
edge $-1 $181 -2.46063125 $220 2.46063125 $173 $223 forward 7 unknown #
coedge $-1 $186 $185 $122 $179 reversed $170 $-1 #
edge $-1 $224 -2.46063125 $180 2.46063125 $178 $225 forward 7 unknown #
vertex $-1 $124 $226 #
vertex $-1 $192 $227 #
straight-curve $-1 2.46063125 0 -0.29527575 0 -1 0 I I #
coedge $-1 $172 $174 $125 $184 reversed $118 $-1 #
edge $-1 $187 -1.3779535000000001 $190 1.3779535000000001 $183 $228 forward 7 unknown #
coedge $-1 $178 $126 $131 $193 forward $170 $-1 #
coedge $-1 $126 $178 $172 $219 reversed $170 $-1 #
vertex $-1 $127 $229 #
straight-curve $-1 0 1.3779535000000001 0.29527575 -1 0 0 I I #
coedge $-1 $128 $173 $130 $192 reversed $72 $-1 #
vertex $-1 $184 $230 #
straight-curve $-1 0 -1.3779535000000001 0.29527575 1 0 0 I I #
edge $-1 $133 -0.29527575 $181 0.29527575 $130 $231 forward 7 unknown #
edge $-1 $134 -0.29527575 $180 0.29527575 $131 $232 forward 7 unknown #
point $-1 2.46063125 -1.3779535000000001 0.29527575 #
point $-1 2.46063125 1.3779535000000001 0.29527575 #
face_name-twe-attrib $-1 $-1 $137 $81 6 #
surf-twe-attrib $-1 $-1 $-1 $138 51 #
attrib_edge_convexity-kcp-attrib $-1 $233 $-1 $142 1 #
straight-curve $234 -4.5275615 0.39370100000000002 0.29527575 0 0 -1 I I #
convexity-sys-attrib $-1 $235 $143 $89 #
point $-1 -4.5275615 -2.362206 5.5511151231257802e-017 #
cur-twe-attrib $-1 $-1 $-1 $145 59 #
attrib_edge_convexity-kcp-attrib $-1 $236 $-1 $146 1 #
straight-curve $237 -4.5275615 -0.98425249999999997 5.5511151231257802e-017 0 1 0 I I #
convexity-sys-attrib $-1 $238 $147 $91 #
cur-twe-attrib $-1 $-1 $-1 $148 61 #
point $-1 -4.5275615 0.39370100000000002 5.5511151231257802e-017 #
cur-twe-attrib $-1 $-1 $-1 $151 63 #
convexity-sys-attrib $-1 $239 $155 $99 #
cur-twe-attrib $-1 $-1 $-1 $156 69 #
edge_name-twe-attrib $-1 $-1 $157 $60 8 8704 #
edge_name-twe-attrib $-1 $-1 $160 $62 2 8704 #
convexity-sys-attrib $-1 $240 $163 $109 #
cur-twe-attrib $-1 $-1 $-1 $164 79 #
cur-twe-attrib $-1 $-1 $-1 $166 80 #
model_id-kcp-attrib $-1 $-1 $-1 $169 1 990669588 60 54263810 7 #
plane-surface $-1 2.46063125 0 0 -1 0 0 0 0 1 forward_v I I I I #
coedge $-1 $174 $172 $176 $222 reversed $118 $-1 #
edge $-1 $187 -0.29527575 $224 0.29527575 $186 $241 forward 7 unknown #
vertex $-1 $222 $242 #
straight-curve $-1 -2.46063125 -1.3779535000000001 0 0 0 -1 I I #
edge $-1 $220 -1.3779535000000001 $224 1.3779535000000001 $218 $243 forward 7 unknown #
straight-curve $-1 0 -1.3779535000000001 -0.29527575 -1 0 0 I I #
vertex $-1 $179 $244 #
straight-curve $-1 0 1.3779535000000001 -0.29527575 1 0 0 I I #
point $-1 2.46063125 1.3779535000000001 -0.29527575 #
point $-1 2.46063125 -1.3779535000000001 -0.29527575 #
straight-curve $-1 -2.46063125 0 0.29527575 0 -1 0 I I #
point $-1 -2.46063125 1.3779535000000001 0.29527575 #
point $-1 -2.46063125 -1.3779535000000001 0.29527575 #
straight-curve $-1 2.46063125 -1.3779535000000001 0 0 0 -1 I I #
straight-curve $-1 2.46063125 1.3779535000000001 0 0 0 -1 I I #
convexity-sys-attrib $-1 $245 $198 $142 #
cur-twe-attrib $-1 $-1 $-1 $199 90 #
edge_name-twe-attrib $-1 $-1 $200 $89 4 8704 #
convexity-sys-attrib $-1 $246 $203 $146 #
cur-twe-attrib $-1 $-1 $-1 $204 94 #
edge_name-twe-attrib $-1 $-1 $205 $91 1 8704 #
edge_name-twe-attrib $-1 $-1 $209 $99 5 8704 #
edge_name-twe-attrib $-1 $-1 $213 $109 9 8704 #
straight-curve $-1 -2.46063125 1.3779535000000001 0 0 0 -1 I I #
point $-1 -2.46063125 -1.3779535000000001 -0.29527575 #
straight-curve $-1 -2.46063125 0 -0.29527575 0 1 0 I I #
point $-1 -2.46063125 1.3779535000000001 -0.29527575 #
edge_name-twe-attrib $-1 $-1 $233 $142 7 8704 #
edge_name-twe-attrib $-1 $-1 $236 $146 3 8704 #
End-of-ACIS-data 