700 0 2 0           
24 FBMach with ACIS - 7.0.3 13 ACIS 7.0.3 NT 24 Wed May 15 11:02:38 2002 
1 9.9999999999999995e-007 1e-010 
body $2 -1 $-1 $3 $-1 $4 #
bdycol-kcp $-1 -1 1 4 $5 $6 $7 $8 #
model_id-kcp-attrib $-1 -1 $-1 $-1 $0 1 1021474958 1021474958 -1477640191 1 #
lump $-1 -1 $-1 $-1 $9 $0 #
transform $-1 -1 1 0 0 0 1 0 0 0 1 0 0 0 1 rotate no_reflect no_shear #
body $10 -1 $-1 $11 $-1 $12 #
body $13 -1 $-1 $14 $-1 $15 #
body $16 -1 $-1 $17 $-1 $18 #
body $19 -1 $-1 $20 $-1 $21 #
shell $-1 -1 $-1 $-1 $-1 $22 $-1 $3 #
rgb_color-st-attrib $-1 -1 $23 $-1 $5 0 0 1 #
lump $-1 -1 $-1 $-1 $24 $5 #
transform $-1 -1 1 0 0 0 1 0 0 0 1 0 -12.700000000000003 0 1 no_rotate no_reflect no_shear #
rgb_color-st-attrib $-1 -1 $25 $-1 $6 0.5 1 1 #
lump $-1 -1 $-1 $-1 $26 $6 #
transform $-1 -1 1 0 0 0 1 0 0 0 1 0 -12.700000000000003 0 1 no_rotate no_reflect no_shear #
rgb_color-st-attrib $-1 -1 $27 $-1 $7 1 0.5 1 #
lump $-1 -1 $-1 $-1 $28 $7 #
transform $-1 -1 1 0 0 0 1 0 0 0 1 0 -12.700000000000003 0 1 no_rotate no_reflect no_shear #
model_id-kcp-attrib $-1 -1 $-1 $-1 $8 1 1021474958 1021474958 -1477640190 1 #
lump $-1 -1 $-1 $-1 $29 $8 #
transform $-1 -1 1 0 0 0 1 0 0 0 1 0 -12.700000000000003 0 1 no_rotate no_reflect no_shear #
face $30 -1 $-1 $31 $32 $9 $-1 $33 reversed single #
model_id-kcp-attrib $-1 -1 $-1 $10 $5 1 1021474958 1021474958 -1490157564 1 #
shell $-1 -1 $-1 $-1 $-1 $34 $-1 $11 #
model_id-kcp-attrib $-1 -1 $-1 $13 $6 1 1021474958 1021474958 -1485176829 1 #
shell $-1 -1 $-1 $-1 $-1 $35 $-1 $14 #
model_id-kcp-attrib $-1 -1 $-1 $16 $7 1 1021474958 1021474958 -1481637883 1 #
shell $-1 -1 $-1 $-1 $-1 $36 $-1 $17 #
shell $-1 -1 $-1 $-1 $-1 $37 $-1 $20 #
model_id-kcp-attrib $-1 -1 $-1 $-1 $22 1 1021474958 1021474958 -1477640191 2 #
face $38 -1 $-1 $39 $40 $9 $-1 $41 forward single #
loop $-1 -1 $-1 $-1 $42 $22 #
plane-surface $-1 -1 $-1 0 -25.399999999999999 0 0 1 0 25.399999999999999 0 0 forward_v I I I I #
face $-1 -1 $-1 $43 $44 $24 $-1 $45 forward single #
face $-1 -1 $-1 $46 $47 $26 $-1 $48 reversed single #
face $-1 -1 $-1 $49 $50 $28 $-1 $51 forward single #
face $-1 -1 $-1 $52 $53 $29 $-1 $54 forward single #
model_id-kcp-attrib $-1 -1 $-1 $-1 $31 1 1021474958 1021474958 -1477640191 3 #
face $55 -1 $-1 $56 $57 $9 $-1 $58 forward single #
loop $-1 -1 $-1 $-1 $59 $31 #
cone-surface $-1 -1 $-1 0 -26.669999999999995 0 0 1 0 3.1749999999999998 0 0 1 I I 0 1 3.1749999999999998 forward I I I I #
coedge $-1 -1 $-1 $60 $60 $59 $61 reversed $32 $-1 #
face $-1 -1 $-1 $62 $63 $24 $-1 $64 forward single #
loop $-1 -1 $-1 $-1 $65 $34 #
plane-surface $-1 -1 $-1 -4.8259999999999996 8.1280000000000037 -2.7862923991091528 -0.5 0 -0.86602540378443871 -0.86602540378443871 0 0.5 forward_v I I I I #
face $-1 -1 $-1 $66 $67 $26 $-1 $48 reversed single #
loop $-1 -1 $-1 $-1 $68 $35 #
cone-surface $-1 -1 $-1 -2.952082130906877e-032 -12.699999999999996 0 0 -1 0 7.8739999999999997 0 0 1 I I 0 1 7.8739999999999997 forward I I I I #
face $-1 -1 $-1 $69 $70 $28 $-1 $71 forward single #
loop $-1 -1 $-1 $72 $73 $36 #
cone-surface $-1 -1 $-1 0 6.3500000000000014 0 0 -1 0 3.1749999999999998 0 0 1 I I 0 -1 3.1749999999999998 forward I I I I #
face $-1 -1 $-1 $74 $75 $29 $-1 $76 reversed single #
loop $-1 -1 $-1 $-1 $77 $37 #
plane-surface $-1 -1 $-1 0 0 7.8739999999999997 0 0 1 1 0 0 forward_v I I I I #
model_id-kcp-attrib $-1 -1 $-1 $-1 $39 1 1021474958 1021474958 -1477640191 4 #
face $78 -1 $-1 $79 $80 $9 $-1 $81 reversed single #
loop $-1 -1 $-1 $-1 $82 $39 #
cone-surface $-1 -1 $-1 0 -26.669999999999995 0 0 1 0 3.1749999999999998 0 0 1 I I 0 1 3.1749999999999998 forward I I I I #
coedge $-1 -1 $-1 $83 $84 $42 $61 forward $40 $-1 #
coedge $-1 -1 $-1 $42 $42 $85 $86 forward $32 $-1 #
edge $87 -1 $-1 $88 0 $89 3.1415926535897931 $42 $90 forward @7 unknown #
face $-1 -1 $-1 $91 $92 $24 $-1 $93 forward single #
loop $-1 -1 $-1 $-1 $94 $43 #
plane-surface $-1 -1 $-1 0 8.1280000000000037 -5.572584798218287 0.50000000000000799 0 -0.86602540378443416 -0.86602540378443416 0 -0.50000000000000799 forward_v I I I I #
coedge $-1 -1 $-1 $95 $96 $97 $98 forward $44 $-1 #
face $-1 -1 $-1 $99 $100 $26 $-1 $48 reversed single #
loop $-1 -1 $-1 $-1 $101 $46 #
coedge $-1 -1 $-1 $102 $103 $104 $105 reversed $47 $-1 #
face $-1 -1 $-1 $106 $107 $28 $-1 $108 reversed single #
loop $-1 -1 $-1 $109 $110 $49 #
cone-surface $-1 -1 $-1 -2.952082130906877e-032 6.3500000000000014 0 0 -1 0 7.8739999999999997 0 0 1 I I 0 1 7.8739999999999997 forward I I I I #
loop $-1 -1 $-1 $-1 $111 $36 #
coedge $-1 -1 $-1 $73 $73 $112 $113 forward $50 $-1 #
face $114 -1 $-1 $115 $116 $29 $-1 $117 reversed single #
loop $-1 -1 $-1 $-1 $118 $52 #
plane-surface $-1 -1 $-1 0 0 -7.8739999999999997 0 0 1 1 0 0 forward_v I I I I #
coedge $-1 -1 $-1 $119 $120 $121 $122 forward $53 $-1 #
model_id-kcp-attrib $-1 -1 $-1 $-1 $56 1 1021474958 1021474958 -1477640191 5 #
face $123 -1 $-1 $124 $125 $9 $-1 $126 forward single #
loop $-1 -1 $-1 $127 $128 $56 #
plane-surface $-1 -1 $-1 0 -6.3499999999999996 0 0 1 0 25.399999999999999 0 0 forward_v I I I I #
coedge $-1 -1 $-1 $129 $130 $131 $132 forward $57 $-1 #
coedge $-1 -1 $-1 $133 $59 $129 $134 forward $40 $-1 #
coedge $-1 -1 $-1 $59 $133 $130 $135 reversed $40 $-1 #
coedge $-1 -1 $-1 $130 $129 $60 $86 reversed $57 $-1 #
edge $136 -1 $-1 $88 0 $89 3.1415926535897931 $60 $137 forward @7 unknown #
attrib_edge_convexity-kcp-attrib $-1 -1 $138 $-1 $61 1 #
vertex $-1 -1 $-1 $86 $139 #
vertex $-1 -1 $-1 $86 $140 #
ellipse-curve $-1 -1 $-1 -1.7624790515924359e-016 -25.399999999999999 0 -1.7763568394002505e-015 1 0 3.1749999999999998 5.6399329650957949e-015 0 1 I I #
face $-1 -1 $-1 $141 $142 $24 $-1 $143 forward single #
loop $-1 -1 $-1 $-1 $144 $62 #
plane-surface $-1 -1 $-1 4.8259999999999659 8.1280000000000037 -2.7862923991091129 1 0 0 0 0 -1 forward_v I I I I #
coedge $-1 -1 $-1 $145 $146 $147 $148 forward $63 $-1 #
coedge $-1 -1 $-1 $149 $65 $146 $150 reversed $44 $-1 #
coedge $-1 -1 $-1 $65 $149 $151 $152 forward $44 $-1 #
coedge $-1 -1 $-1 $153 $147 $65 $98 reversed $154 $-1 #
edge $-1 -1 $-1 $155 -4.1794385986636886 $156 1.3931461995545791 $65 $157 forward @7 unknown #
face $-1 -1 $-1 $158 $159 $26 $-1 $48 reversed single #
loop $-1 -1 $-1 $-1 $160 $66 #
coedge $-1 -1 $-1 $161 $162 $163 $164 reversed $67 $-1 #
coedge $-1 -1 $-1 $165 $68 $166 $167 forward $47 $-1 #
coedge $-1 -1 $-1 $68 $165 $168 $169 reversed $47 $-1 #
coedge $-1 -1 $-1 $170 $171 $68 $105 forward $172 $-1 #
edge $-1 -1 $-1 $173 0 $174 1.5707963267948966 $104 $175 forward @7 unknown #
face $-1 -1 $-1 $-1 $176 $28 $-1 $177 forward single #
loop $-1 -1 $-1 $178 $179 $69 #
plane-surface $-1 -1 $-1 -0.51012330198537059 -12.699999999999989 5.5511151231257827e-017 4.6086665670342156e-032 1 -3.8405554725285128e-033 0 3.8405554725285128e-033 1 forward_v I I I I #
loop $-1 -1 $-1 $-1 $180 $49 #
coedge $-1 -1 $-1 $110 $110 $179 $181 forward $70 $-1 #
coedge $-1 -1 $-1 $111 $111 $182 $183 reversed $72 $-1 #
coedge $-1 -1 $-1 $112 $112 $73 $113 reversed $178 $-1 #
edge $-1 -1 $-1 $184 -3.1415926535897931 $184 3.1415926535897931 $73 $185 forward @7 unknown #
model_id-kcp-attrib $-1 -1 $-1 $-1 $74 1 1021474958 1021474958 -1477640190 2 #
face $-1 -1 $-1 $186 $187 $29 $-1 $188 reversed single #
loop $-1 -1 $-1 $-1 $189 $74 #
plane-surface $-1 -1 $-1 0 -12.700000000000003 0 0 1 0 0 0 1 forward_v I I I I #
coedge $-1 -1 $-1 $190 $191 $192 $193 forward $75 $-1 #
coedge $-1 -1 $-1 $194 $77 $195 $196 forward $53 $-1 #
coedge $-1 -1 $-1 $77 $194 $197 $198 forward $53 $-1 #
coedge $-1 -1 $-1 $199 $200 $77 $122 reversed $201 $-1 #
edge $-1 -1 $-1 $202 -12.700000000000003 $203 12.700000000000003 $121 $204 forward @7 unknown #
model_id-kcp-attrib $-1 -1 $-1 $-1 $79 1 1021474958 1021474958 -1477640191 6 #
face $205 -1 $-1 $206 $207 $9 $-1 $208 forward single #
loop $-1 -1 $-1 $-1 $209 $79 #
cone-surface $-1 -1 $-1 0 -26.669999999999995 0 0 1 0 7.8739999999999997 0 0 1 I I 0 1 7.8739999999999997 forward I I I I #
loop $-1 -1 $-1 $-1 $210 $56 #
coedge $-1 -1 $-1 $211 $211 $212 $213 forward $80 $-1 #
coedge $-1 -1 $-1 $85 $82 $83 $134 reversed $57 $-1 #
coedge $-1 -1 $-1 $82 $85 $84 $135 forward $57 $-1 #
coedge $-1 -1 $-1 $210 $210 $82 $132 reversed $127 $-1 #
edge $214 -1 $-1 $215 0 $216 3.1415926535897931 $131 $217 forward @7 unknown #
coedge $-1 -1 $-1 $84 $83 $210 $218 reversed $40 $-1 #
edge $-1 -1 $-1 $89 0 $216 0.74999999999999967 $83 $219 forward @7 unknown #
edge $-1 -1 $-1 $88 0 $215 0.74999999999999978 $84 $220 forward @7 unknown #
attrib_edge_convexity-kcp-attrib $-1 -1 $221 $-1 $86 1 #
ellipse-curve $-1 -1 $-1 -1.7624790515924359e-016 -25.399999999999999 0 1.7763568394002505e-015 -1 0 3.1749999999999998 5.6399329650957949e-015 0 1 I I #
convexity-sys-attrib $-1 -1 $-1 $87 $61 #
point $-1 -1 $-1 3.1749999999999998 -25.399999999999991 0 #
point $-1 -1 $-1 -3.1749999999999998 -25.399999999999991 3.8881251733860477e-016 #
face $-1 -1 $-1 $222 $223 $24 $-1 $224 forward single #
loop $-1 -1 $-1 $-1 $225 $91 #
plane-surface $-1 -1 $-1 4.8259999999999659 8.1280000000000037 2.7862923991091333 0.50000000000000533 0 0.86602540378443571 0.86602540378443571 0 -0.50000000000000533 forward_v I I I I #
coedge $-1 -1 $-1 $226 $227 $228 $229 forward $92 $-1 #
coedge $-1 -1 $-1 $230 $94 $227 $231 reversed $63 $-1 #
coedge $-1 -1 $-1 $94 $230 $95 $150 forward $63 $-1 #
coedge $-1 -1 $-1 $97 $228 $94 $148 reversed $154 $-1 #
edge $-1 -1 $-1 $156 -4.1794385986637161 $232 1.3931461995545429 $94 $233 forward @7 unknown #
coedge $-1 -1 $-1 $96 $95 $234 $235 reversed $44 $-1 #
edge $236 -1 $-1 $237 0 $156 4.5719999999999992 $146 $238 forward @7 unknown #
coedge $-1 -1 $-1 $239 $240 $96 $152 reversed $241 $-1 #
edge $-1 -1 $-1 $242 0 $155 4.5719999999999992 $96 $243 forward @7 unknown #
coedge $-1 -1 $-1 $244 $97 $240 $245 reversed $154 $-1 #
loop $-1 -1 $-1 $-1 $97 $246 #
vertex $-1 -1 $-1 $152 $247 #
vertex $-1 -1 $-1 $150 $248 #
straight-curve $-1 -1 $-1 -1.2065000000000103 12.700000000000006 -4.8760116984409976 0.86602540378443871 0 -0.5 I I #
face $-1 -1 $-1 $249 $250 $26 $-1 $251 forward single #
loop $-1 -1 $-1 $-1 $252 $99 #
coedge $-1 -1 $-1 $253 $254 $252 $255 forward $100 $-1 #
coedge $-1 -1 $-1 $256 $101 $257 $258 reversed $67 $-1 #
coedge $-1 -1 $-1 $101 $256 $103 $169 forward $67 $-1 #
coedge $-1 -1 $-1 $259 $260 $101 $164 forward $261 $-1 #
edge $-1 -1 $-1 $262 -3.1415926535897931 $263 -1.5707963267948966 $163 $264 forward @7 unknown #
coedge $-1 -1 $-1 $103 $102 $265 $266 reversed $47 $-1 #
coedge $-1 -1 $-1 $254 $253 $267 $167 reversed $100 $-1 #
edge $-1 -1 $-1 $173 -25.399999999999999 $268 7.1054273576010019e-015 $267 $269 forward @7 unknown #
coedge $-1 -1 $-1 $270 $271 $272 $169 forward $273 $-1 #
edge $-1 -1 $-1 $174 -25.399999999999999 $263 7.1054273576010019e-015 $168 $274 forward @7 unknown #
coedge $-1 -1 $-1 $171 $104 $271 $275 reversed $172 $-1 #
coedge $-1 -1 $-1 $104 $170 $276 $277 forward $172 $-1 #
loop $-1 -1 $-1 $-1 $104 $278 #
vertex $-1 -1 $-1 $279 $280 #
vertex $-1 -1 $-1 $281 $282 #
ellipse-curve $-1 -1 $-1 -2.952082130906877e-032 12.700000000000003 0 0 -1 0 7.8739999999999997 0 0 1 I I #
loop $-1 -1 $-1 $283 $284 $106 #
plane-surface $-1 -1 $-1 -0.51012330198537059 6.3500000000000014 5.5511151231257827e-017 4.6086665670342156e-032 1 -3.8405554725285128e-033 0 3.8405554725285128e-033 1 forward_v I I I I #
loop $-1 -1 $-1 $-1 $112 $69 #
coedge $-1 -1 $-1 $179 $179 $110 $181 reversed $107 $-1 #
coedge $-1 -1 $-1 $180 $180 $284 $285 reversed $109 $-1 #
edge $-1 -1 $-1 $286 -3.1415926535897931 $286 3.1415926535897931 $110 $287 forward @7 unknown #
coedge $-1 -1 $-1 $182 $182 $111 $183 forward $283 $-1 #
edge $288 -1 $-1 $289 0 $289 6.2831853071795862 $111 $290 forward @7 unknown #
vertex $-1 -1 $-1 $113 $291 #
ellipse-curve $-1 -1 $-1 0 -12.699999999999989 0 0 -1 0 3.1749999999999998 0 0 1 I I #
face $292 -1 $-1 $293 $294 $29 $-1 $295 reversed single #
loop $-1 -1 $-1 $-1 $296 $115 #
plane-surface $-1 -1 $-1 -7.8739999999999997 0 0 1 0 0 0 0 -1 forward_v I I I I #
coedge $-1 -1 $-1 $297 $197 $298 $299 forward $116 $-1 #
coedge $-1 -1 $-1 $300 $118 $297 $301 forward $75 $-1 #
coedge $-1 -1 $-1 $118 $300 $302 $303 forward $75 $-1 #
coedge $-1 -1 $-1 $200 $199 $118 $193 reversed $201 $-1 #
edge $-1 -1 $-1 $304 -12.700000000000003 $305 12.700000000000003 $192 $306 forward @7 unknown #
coedge $-1 -1 $-1 $120 $119 $307 $308 forward $53 $-1 #
coedge $-1 -1 $-1 $309 $310 $119 $196 reversed $294 $-1 #
edge $-1 -1 $-1 $203 -7.8739999999999997 $311 7.8739999999999997 $195 $312 forward @7 unknown #
coedge $-1 -1 $-1 $189 $313 $120 $198 reversed $116 $-1 #
edge $-1 -1 $-1 $314 -7.8739999999999997 $202 7.8739999999999997 $197 $315 forward @7 unknown #
coedge $-1 -1 $-1 $192 $121 $313 $316 forward $201 $-1 #
coedge $-1 -1 $-1 $121 $192 $309 $317 reversed $201 $-1 #
loop $-1 -1 $-1 $-1 $199 $293 #
vertex $-1 -1 $-1 $122 $318 #
vertex $-1 -1 $-1 $122 $319 #
straight-curve $-1 -1 $-1 7.8739999999999997 0 7.8739999999999997 0 1 0 I I #
model_id-kcp-attrib $-1 -1 $-1 $-1 $124 1 1021474958 1021474958 -1477640191 7 #
face $320 -1 $-1 $321 $322 $9 $-1 $323 forward single #
loop $-1 -1 $-1 $324 $325 $124 #
plane-surface $-1 -1 $-1 0 0 0 0 1 0 25.399999999999999 0 0 forward_v I I I I #
coedge $-1 -1 $-1 $326 $327 $328 $329 forward $125 $-1 #
coedge $-1 -1 $-1 $131 $131 $133 $218 forward $127 $-1 #
coedge $-1 -1 $-1 $128 $128 $330 $331 reversed $80 $-1 #
coedge $-1 -1 $-1 $327 $326 $128 $213 reversed $125 $-1 #
edge $332 -1 $-1 $333 0 $334 3.1415926535897931 $128 $335 forward @7 unknown #
attrib_edge_convexity-kcp-attrib $-1 -1 $336 $-1 $132 2 #
vertex $-1 -1 $-1 $135 $337 #
vertex $-1 -1 $-1 $218 $338 #
ellipse-curve $-1 -1 $-1 0 -6.3499999999999996 0 0 -1 0 3.1749999999999998 0 0 1 I I #
edge $339 -1 $-1 $215 0 $216 3.1415926535897931 $133 $340 forward @7 unknown #
straight-curve $-1 -1 $-1 -3.1749999999999998 -25.399999999999991 3.8881251733860477e-016 0 25.399999999999999 0 I I #
straight-curve $-1 -1 $-1 3.1749999999999998 -25.399999999999991 0 0 25.399999999999999 0 I I #
convexity-sys-attrib $-1 -1 $-1 $136 $86 #
face $-1 -1 $-1 $246 $241 $24 $-1 $341 forward single #
loop $-1 -1 $-1 $-1 $342 $141 #
plane-surface $-1 -1 $-1 0 8.1280000000000037 5.5725847982182861 -0.50000000000000255 0 0.86602540378443715 0.86602540378443715 0 0.50000000000000255 forward_v I I I I #
coedge $-1 -1 $-1 $343 $344 $345 $346 forward $142 $-1 #
coedge $-1 -1 $-1 $347 $144 $344 $348 reversed $92 $-1 #
coedge $-1 -1 $-1 $144 $347 $145 $231 forward $92 $-1 #
coedge $-1 -1 $-1 $147 $345 $144 $229 reversed $154 $-1 #
edge $-1 -1 $-1 $232 -4.1794385986636797 $349 1.3931461995545666 $144 $350 forward @7 unknown #
coedge $-1 -1 $-1 $146 $145 $351 $352 reversed $63 $-1 #
edge $-1 -1 $-1 $353 0 $232 4.5719999999999992 $227 $354 forward @7 unknown #
vertex $-1 -1 $-1 $231 $355 #
straight-curve $-1 -1 $-1 3.6194999999999937 12.700000000000006 -3.4828654988863961 0.86602540378443416 0 0.50000000000000799 I I #
coedge $-1 -1 $-1 $351 $356 $149 $235 forward $357 $-1 #
edge $358 -1 $-1 $242 -4.1794385986636886 $237 1.3931461995545786 $149 $359 forward @7 unknown #
convexity-sys-attrib $-1 -1 $-1 $-1 $150 #
vertex $-1 -1 $-1 $235 $360 #
straight-curve $-1 -1 $-1 0 8.1280000000000037 -5.572584798218287 0 1 0 I I #
coedge $-1 -1 $-1 $361 $151 $356 $362 reversed $241 $-1 #
coedge $-1 -1 $-1 $151 $361 $153 $245 forward $241 $-1 #
loop $-1 -1 $-1 $-1 $240 $222 #
vertex $-1 -1 $-1 $362 $363 #
straight-curve $-1 -1 $-1 -4.8259999999999996 8.1280000000000037 -2.7862923991091528 0 1 0 I I #
coedge $-1 -1 $-1 $345 $153 $342 $364 reversed $154 $-1 #
edge $-1 -1 $-1 $365 -4.1794385986637099 $155 1.3931461995545764 $240 $366 forward @7 unknown #
face $-1 -1 $-1 $367 $154 $24 $-1 $368 forward single #
point $-1 -1 $-1 -4.8259999999999996 12.700000000000003 -2.7862923991091528 #
point $-1 -1 $-1 0 12.700000000000003 -5.572584798218287 #
face $-1 -1 $-1 $369 $370 $26 $-1 $371 reversed single #
loop $-1 -1 $-1 $-1 $272 $158 #
plane-surface $-1 -1 $-1 0 0 7.8739999999999997 0 0 1 1 0 0 forward_v I I I I #
coedge $-1 -1 $-1 $372 $373 $374 $255 reversed $159 $-1 #
coedge $-1 -1 $-1 $166 $160 $375 $376 reversed $100 $-1 #
coedge $-1 -1 $-1 $160 $166 $377 $378 reversed $100 $-1 #
edge $-1 -1 $-1 $379 -25.399999999999999 $380 7.1054273576010019e-015 $374 $381 forward @7 unknown #
coedge $-1 -1 $-1 $162 $161 $382 $383 reversed $67 $-1 #
coedge $-1 -1 $-1 $384 $385 $386 $258 forward $387 $-1 #
edge $-1 -1 $-1 $388 -25.399999999999999 $262 7.1054273576010019e-015 $257 $389 forward @7 unknown #
coedge $-1 -1 $-1 $260 $163 $390 $391 reversed $261 $-1 #
coedge $-1 -1 $-1 $163 $259 $384 $392 forward $261 $-1 #
loop $-1 -1 $-1 $-1 $163 $393 #
vertex $-1 -1 $-1 $394 $395 #
vertex $-1 -1 $-1 $396 $397 #
ellipse-curve $-1 -1 $-1 -2.952082130906877e-032 -12.700000000000003 0 0 1 0 7.8739999999999997 0 0 1 I I #
coedge $-1 -1 $-1 $398 $399 $165 $266 forward $400 $-1 #
edge $-1 -1 $-1 $263 -1.5707963267948966 $268 0 $265 $264 forward @7 unknown #
coedge $-1 -1 $-1 $401 $402 $403 $167 forward $370 $-1 #
vertex $-1 -1 $-1 $404 $405 #
straight-curve $-1 -1 $-1 7.8739999999999997 -12.699999999999996 0 0 -1 0 I I #
coedge $-1 -1 $-1 $406 $168 $399 $396 forward $273 $-1 #
coedge $-1 -1 $-1 $168 $406 $170 $275 forward $273 $-1 #
coedge $-1 -1 $-1 $407 $390 $162 $169 reversed $250 $-1 #
loop $-1 -1 $-1 $-1 $168 $408 #
straight-curve $-1 -1 $-1 -2.952082130906877e-032 -12.699999999999996 7.8739999999999997 0 -1 0 I I #
edge $-1 -1 $-1 $409 -7.8739999999999997 $174 2.952082130906877e-032 $170 $410 forward @7 unknown #
coedge $-1 -1 $-1 $411 $403 $171 $277 reversed $412 $-1 #
edge $-1 -1 $-1 $409 -7.8739999999999997 $173 0 $276 $413 forward @7 unknown #
face $-1 -1 $-1 $414 $172 $26 $-1 $415 reversed single #
edge $-1 -1 $-1 $173 0 $416 7.8739999999999997 $402 $413 forward @7 unknown #
point $-1 -1 $-1 7.8739999999999997 12.700000000000003 0 #
edge $-1 -1 $-1 $174 2.952082130906877e-032 $417 7.8739999999999997 $418 $410 forward @7 unknown #
point $-1 -1 $-1 -2.952082130906877e-032 12.700000000000003 7.8739999999999997 #
loop $-1 -1 $-1 $-1 $182 $106 #
coedge $-1 -1 $-1 $284 $284 $180 $285 forward $176 $-1 #
edge $419 -1 $-1 $420 -3.1415926535897931 $420 3.1415926535897931 $180 $421 forward @7 unknown #
vertex $-1 -1 $-1 $181 $422 #
ellipse-curve $-1 -1 $-1 -2.952082130906877e-032 -12.699999999999989 0 0 1 0 7.8739999999999997 0 0 1 I I #
convexity-sys-attrib $-1 -1 $-1 $-1 $183 #
vertex $-1 -1 $-1 $183 $423 #
ellipse-curve $-1 -1 $-1 0 6.3500000000000014 0 0 -1 0 3.1749999999999998 0 0 1 I I #
point $-1 -1 $-1 -3.1749999999999998 -12.699999999999987 0 #
model_id-kcp-attrib $-1 -1 $-1 $-1 $186 1 1021474958 1021474958 -1477640190 3 #
face $-1 -1 $-1 $-1 $201 $29 $-1 $424 reversed single #
loop $-1 -1 $-1 $-1 $309 $186 #
plane-surface $-1 -1 $-1 0 12.700000000000003 0 0 -1 0 0 0 -1 forward_v I I I I #
coedge $-1 -1 $-1 $425 $307 $310 $426 forward $187 $-1 #
coedge $-1 -1 $-1 $313 $189 $190 $301 reversed $116 $-1 #
coedge $-1 -1 $-1 $307 $425 $189 $299 reversed $187 $-1 #
edge $-1 -1 $-1 $314 -7.8739999999999997 $427 7.8739999999999997 $298 $428 forward @7 unknown #
coedge $-1 -1 $-1 $191 $190 $425 $429 forward $75 $-1 #
edge $-1 -1 $-1 $305 -7.8739999999999997 $427 7.8739999999999997 $297 $430 forward @7 unknown #
coedge $-1 -1 $-1 $310 $309 $191 $303 reversed $294 $-1 #
edge $-1 -1 $-1 $431 -7.8739999999999997 $304 7.8739999999999997 $302 $432 forward @7 unknown #
vertex $-1 -1 $-1 $193 $433 #
vertex $-1 -1 $-1 $316 $434 #
straight-curve $-1 -1 $-1 7.8739999999999997 0 -7.8739999999999997 0 -1 0 I I #
coedge $-1 -1 $-1 $296 $298 $194 $308 reversed $187 $-1 #
edge $-1 -1 $-1 $311 -12.700000000000003 $314 12.700000000000003 $307 $435 forward @7 unknown #
coedge $-1 -1 $-1 $302 $195 $200 $317 forward $294 $-1 #
coedge $-1 -1 $-1 $195 $302 $296 $426 reversed $294 $-1 #
vertex $-1 -1 $-1 $196 $436 #
straight-curve $-1 -1 $-1 0 12.700000000000003 7.8739999999999997 -1 0 0 I I #
coedge $-1 -1 $-1 $197 $297 $199 $316 reversed $116 $-1 #
vertex $-1 -1 $-1 $308 $437 #
straight-curve $-1 -1 $-1 0 -12.700000000000003 7.8739999999999997 1 0 0 I I #
edge $-1 -1 $-1 $202 -7.8739999999999997 $305 7.8739999999999997 $199 $438 forward @7 unknown #
edge $-1 -1 $-1 $203 -7.8739999999999997 $304 7.8739999999999997 $200 $439 forward @7 unknown #
point $-1 -1 $-1 7.8739999999999997 -12.700000000000003 7.8739999999999997 #
point $-1 -1 $-1 7.8739999999999997 12.700000000000003 7.8739999999999997 #
model_id-kcp-attrib $-1 -1 $-1 $-1 $206 1 1021474958 1021474958 -1477640191 8 #
face $440 -1 $-1 $441 $442 $9 $-1 $443 reversed single #
loop $-1 -1 $-1 $-1 $330 $206 #
cone-surface $-1 -1 $-1 0 -26.669999999999995 0 0 1 0 7.8739999999999997 0 0 1 I I 0 1 7.8739999999999997 forward I I I I #
loop $-1 -1 $-1 $-1 $444 $124 #
coedge $-1 -1 $-1 $328 $328 $445 $446 forward $207 $-1 #
coedge $-1 -1 $-1 $212 $209 $447 $448 reversed $125 $-1 #
coedge $-1 -1 $-1 $209 $212 $449 $450 forward $125 $-1 #
coedge $-1 -1 $-1 $325 $325 $209 $329 reversed $207 $-1 #
edge $-1 -1 $-1 $451 0 $452 3.1415926535897931 $328 $453 forward @7 unknown #
coedge $-1 -1 $-1 $447 $449 $211 $331 forward $322 $-1 #
edge $454 -1 $-1 $333 0 $334 3.1415926535897927 $211 $455 forward @7 unknown #
attrib_edge_convexity-kcp-attrib $-1 -1 $456 $-1 $213 1 #
vertex $-1 -1 $-1 $331 $457 #
vertex $-1 -1 $-1 $331 $458 #
ellipse-curve $-1 -1 $-1 3.5249581031848718e-016 -6.3499999999999996 -1.0574874309554614e-015 3.5813645955650209e-016 -1 4.8098146373874776e-032 7.8739999999999997 2.8199664825478975e-015 1.0574874309554614e-015 1 I I #
convexity-sys-attrib $-1 -1 $-1 $214 $132 #
point $-1 -1 $-1 3.1749999999999998 -6.349999999999997 0 #
point $-1 -1 $-1 -3.1749999999999998 -6.3499999999999996 0 #
attrib_edge_convexity-kcp-attrib $-1 -1 $459 $-1 $218 2 #
ellipse-curve $-1 -1 $-1 0 -6.3499999999999996 0 0 1 0 3.1749999999999998 0 0 1 I I #
plane-surface $-1 -1 $-1 -4.8259999999999996 8.1280000000000037 2.7862923991091333 -1 0 0 0 0 1 forward_v I I I I #
coedge $-1 -1 $-1 $460 $461 $244 $364 forward $223 $-1 #
coedge $-1 -1 $-1 $462 $225 $461 $463 reversed $142 $-1 #
coedge $-1 -1 $-1 $225 $462 $226 $348 forward $142 $-1 #
coedge $-1 -1 $-1 $228 $244 $225 $346 reversed $154 $-1 #
edge $-1 -1 $-1 $349 -4.1794385986636691 $464 1.3931461995545795 $225 $465 forward @7 unknown #
coedge $-1 -1 $-1 $227 $226 $466 $467 reversed $92 $-1 #
edge $-1 -1 $-1 $468 0 $349 4.5719999999999992 $344 $469 forward @7 unknown #
vertex $-1 -1 $-1 $348 $470 #
straight-curve $-1 -1 $-1 4.8259999999999659 12.700000000000006 1.3931461995545666 0 0 1 I I #
coedge $-1 -1 $-1 $466 $234 $230 $352 forward $357 $-1 #
edge $471 -1 $-1 $237 -4.1794385986637153 $353 1.3931461995545427 $230 $472 forward @7 unknown #
vertex $-1 -1 $-1 $352 $473 #
straight-curve $-1 -1 $-1 4.8259999999999659 8.1280000000000037 -2.7862923991091129 0 1 0 I I #
point $-1 -1 $-1 4.8259999999999659 12.700000000000003 -2.7862923991091129 #
coedge $-1 -1 $-1 $234 $474 $239 $362 forward $357 $-1 #
loop $-1 -1 $-1 $-1 $356 $367 #
convexity-sys-attrib $-1 -1 $-1 $-1 $235 #
straight-curve $-1 -1 $-1 -1.2065000000000103 8.1280000000000072 -4.8760116984409976 0.86602540378443871 0 -0.5 I I #
point $-1 -1 $-1 0 8.1280000000000037 -5.5725847982182861 #
coedge $-1 -1 $-1 $240 $239 $460 $475 forward $241 $-1 #
edge $476 -1 $-1 $477 -4.1794385986637099 $242 1.3931461995545764 $239 $478 forward @7 unknown #
point $-1 -1 $-1 -4.8259999999999996 8.1280000000000037 -2.7862923991091528 #
edge $-1 -1 $-1 $464 -4.1794385986637241 $365 1.3931461995545527 $342 $479 forward @7 unknown #
vertex $-1 -1 $-1 $475 $480 #
straight-curve $-1 -1 $-1 -4.8259999999999996 12.700000000000006 -1.3931461995545764 0 0 -1 I I #
face $-1 -1 $-1 $-1 $357 $24 $-1 $481 reversed single #
plane-surface $-1 -1 $-1 -1.9595436384634013e-014 12.700000000000008 0 -3.518915242527383e-031 1 -1.0546604761465176e-031 0 1.0546604761465176e-031 1 forward_v I I I I #
face $-1 -1 $-1 $482 $483 $26 $-1 $484 reversed single #
loop $-1 -1 $-1 $-1 $267 $249 #
plane-surface $-1 -1 $-1 7.8739999999999997 0 0 -1 0 0 0 0 1 forward_v I I I I #
coedge $-1 -1 $-1 $485 $252 $486 $487 reversed $159 $-1 #
coedge $-1 -1 $-1 $252 $485 $488 $489 reversed $159 $-1 #
coedge $-1 -1 $-1 $490 $491 $492 $255 forward $493 $-1 #
coedge $-1 -1 $-1 $494 $495 $253 $376 forward $496 $-1 #
edge $-1 -1 $-1 $268 0 $380 1.5707963267948966 $375 $264 forward @7 unknown #
coedge $-1 -1 $-1 $497 $498 $254 $378 forward $499 $-1 #
edge $-1 -1 $-1 $379 -1.5707963267948966 $173 0 $377 $175 forward @7 unknown #
vertex $-1 -1 $-1 $500 $501 #
vertex $-1 -1 $-1 $502 $503 #
straight-curve $-1 -1 $-1 -2.952082130906877e-032 -12.699999999999996 -7.8739999999999997 0 -1 0 I I #
coedge $-1 -1 $-1 $504 $418 $256 $383 forward $505 $-1 #
edge $-1 -1 $-1 $174 1.5707963267948966 $388 3.1415926535897931 $382 $175 forward @7 unknown #
coedge $-1 -1 $-1 $506 $257 $260 $392 reversed $387 $-1 #
coedge $-1 -1 $-1 $257 $506 $504 $507 forward $387 $-1 #
coedge $-1 -1 $-1 $508 $509 $485 $258 reversed $483 $-1 #
loop $-1 -1 $-1 $-1 $257 $510 #
vertex $-1 -1 $-1 $511 $512 #
straight-curve $-1 -1 $-1 -7.8739999999999997 -12.699999999999996 0 0 -1 0 I I #
coedge $-1 -1 $-1 $272 $513 $259 $391 forward $250 $-1 #
edge $-1 -1 $-1 $514 -7.8739999999999997 $263 -2.952082130906877e-032 $259 $515 forward @7 unknown #
edge $-1 -1 $-1 $514 -7.8739999999999997 $262 0 $384 $516 forward @7 unknown #
face $-1 -1 $-1 $517 $261 $26 $-1 $518 reversed single #
edge $-1 -1 $-1 $262 0 $519 7.8739999999999997 $509 $516 forward @7 unknown #
point $-1 -1 $-1 -7.8739999999999997 -12.700000000000003 0 #
edge $-1 -1 $-1 $263 -2.952082130906877e-032 $520 7.8739999999999997 $399 $515 forward @7 unknown #
point $-1 -1 $-1 -2.952082130906877e-032 -12.700000000000003 7.8739999999999997 #
coedge $-1 -1 $-1 $399 $265 $521 $522 reversed $400 $-1 #
coedge $-1 -1 $-1 $265 $398 $270 $396 reversed $400 $-1 #
loop $-1 -1 $-1 $-1 $265 $517 #
coedge $-1 -1 $-1 $523 $267 $495 $404 forward $370 $-1 #
coedge $-1 -1 $-1 $267 $523 $497 $279 reversed $370 $-1 #
coedge $-1 -1 $-1 $276 $521 $102 $167 reversed $412 $-1 #
edge $-1 -1 $-1 $268 0 $524 7.8739999999999997 $401 $525 forward @7 unknown #
point $-1 -1 $-1 7.8739999999999997 -12.700000000000003 0 #
coedge $-1 -1 $-1 $271 $270 $411 $526 forward $273 $-1 #
coedge $-1 -1 $-1 $513 $272 $418 $281 forward $250 $-1 #
face $-1 -1 $-1 $527 $273 $26 $-1 $251 forward single #
vertex $-1 -1 $-1 $526 $528 #
straight-curve $-1 -1 $-1 0 12.700000000000003 7.8739999999999997 -1 0 0 I I #
coedge $-1 -1 $-1 $521 $276 $406 $526 reversed $412 $-1 #
loop $-1 -1 $-1 $-1 $403 $529 #
straight-curve $-1 -1 $-1 7.8739999999999997 12.700000000000003 0 0 0 -1 I I #
face $-1 -1 $-1 $530 $505 $26 $-1 $415 reversed single #
plane-surface $-1 -1 $-1 0 12.700000000000003 0 0 -1 0 0 0 -1 forward_v I I I I #
vertex $-1 -1 $-1 $531 $532 #
vertex $-1 -1 $-1 $281 $533 #
coedge $-1 -1 $-1 $382 $504 $407 $281 reversed $505 $-1 #
convexity-sys-attrib $-1 -1 $-1 $-1 $285 #
vertex $-1 -1 $-1 $285 $534 #
ellipse-curve $-1 -1 $-1 -2.952082130906877e-032 6.3500000000000014 0 0 1 0 7.8739999999999997 0 0 1 I I #
point $-1 -1 $-1 -7.8739999999999997 -12.699999999999989 9.6425504299973975e-016 #
point $-1 -1 $-1 3.1749999999999998 6.3500000000000059 0 #
plane-surface $-1 -1 $-1 7.8739999999999997 0 0 -1 0 0 0 0 1 forward_v I I I I #
coedge $-1 -1 $-1 $298 $296 $300 $429 reversed $187 $-1 #
edge $-1 -1 $-1 $311 -7.8739999999999997 $431 7.8739999999999997 $310 $535 forward @7 unknown #
vertex $-1 -1 $-1 $429 $536 #
straight-curve $-1 -1 $-1 -7.8739999999999997 -12.700000000000003 0 0 0 -1 I I #
edge $-1 -1 $-1 $427 -12.700000000000003 $431 12.700000000000003 $425 $537 forward @7 unknown #
straight-curve $-1 -1 $-1 0 -12.700000000000003 -7.8739999999999997 -1 0 0 I I #
vertex $-1 -1 $-1 $303 $538 #
straight-curve $-1 -1 $-1 0 12.700000000000003 -7.8739999999999997 1 0 0 I I #
point $-1 -1 $-1 7.8739999999999997 12.700000000000003 -7.8739999999999997 #
point $-1 -1 $-1 7.8739999999999997 -12.700000000000003 -7.8739999999999997 #
straight-curve $-1 -1 $-1 -7.8739999999999997 0 7.8739999999999997 0 -1 0 I I #
point $-1 -1 $-1 -7.8739999999999997 12.700000000000003 7.8739999999999997 #
point $-1 -1 $-1 -7.8739999999999997 -12.700000000000003 7.8739999999999997 #
straight-curve $-1 -1 $-1 7.8739999999999997 -12.700000000000003 0 0 0 -1 I I #
straight-curve $-1 -1 $-1 7.8739999999999997 12.700000000000003 0 0 0 -1 I I #
model_id-kcp-attrib $-1 -1 $-1 $-1 $321 1 1021474958 1021474958 -1477640191 9 #
face $539 -1 $-1 $540 $541 $9 $-1 $542 reversed single #
loop $-1 -1 $-1 $-1 $543 $321 #
plane-surface $-1 -1 $-1 -4.8259999999999996 0 -2.7862923991091528 -1 0 0 0 0 25.399999999999999 forward_v I I I I #
coedge $-1 -1 $-1 $544 $545 $546 $547 reversed $324 $-1 #
coedge $-1 -1 $-1 $449 $447 $325 $446 reversed $322 $-1 #
edge $-1 -1 $-1 $451 0 $452 3.1415926535897931 $445 $548 forward @7 unknown #
coedge $-1 -1 $-1 $445 $330 $326 $448 forward $322 $-1 #
edge $-1 -1 $-1 $334 0 $452 0.24999999999999989 $447 $549 forward @7 unknown #
coedge $-1 -1 $-1 $330 $445 $327 $450 reversed $322 $-1 #
edge $-1 -1 $-1 $333 0 $451 0.24999999999999989 $449 $550 forward @7 unknown #
vertex $-1 -1 $-1 $450 $551 #
vertex $-1 -1 $-1 $446 $552 #
ellipse-curve $-1 -1 $-1 0 0 0 0 -1 0 7.8739999999999997 0 0 1 I I #
attrib_edge_convexity-kcp-attrib $-1 -1 $553 $-1 $331 1 #
ellipse-curve $-1 -1 $-1 3.5249581031848718e-016 -6.3499999999999996 1.0574874309554614e-015 -3.5813645955650209e-016 1 4.8098146373874776e-032 7.8739999999999997 2.8199664825478975e-015 -1.0574874309554614e-015 1 I I #
convexity-sys-attrib $-1 -1 $-1 $332 $213 #
point $-1 -1 $-1 7.8739999999999997 -6.349999999999997 0 #
point $-1 -1 $-1 -7.8739999999999997 -6.349999999999997 -9.6425504299973975e-016 #
convexity-sys-attrib $-1 -1 $-1 $339 $218 #
coedge $-1 -1 $-1 $554 $342 $361 $475 reversed $223 $-1 #
coedge $-1 -1 $-1 $342 $554 $343 $463 forward $223 $-1 #
coedge $-1 -1 $-1 $344 $343 $555 $556 reversed $142 $-1 #
edge $-1 -1 $-1 $557 0 $464 4.5719999999999992 $461 $558 forward @7 unknown #
vertex $-1 -1 $-1 $463 $559 #
straight-curve $-1 -1 $-1 1.2065000000000066 12.700000000000006 4.8760116984409896 -0.86602540378443571 0 0.50000000000000533 I I #
coedge $-1 -1 $-1 $555 $351 $347 $467 forward $357 $-1 #
edge $560 -1 $-1 $353 -4.1794385986636797 $468 1.3931461995545666 $347 $561 forward @7 unknown #
vertex $-1 -1 $-1 $467 $562 #
straight-curve $-1 -1 $-1 4.8259999999999659 8.1280000000000037 2.7862923991091333 0 1 0 I I #
point $-1 -1 $-1 4.8259999999999659 12.700000000000003 2.7862923991091333 #
convexity-sys-attrib $-1 -1 $-1 $-1 $352 #
straight-curve $-1 -1 $-1 3.6194999999999937 8.1280000000000072 -3.4828654988863961 0.86602540378443416 0 0.50000000000000799 I I #
point $-1 -1 $-1 4.8259999999999659 8.1280000000000037 -2.7862923991091133 #
coedge $-1 -1 $-1 $356 $555 $554 $563 forward $357 $-1 #
edge $-1 -1 $-1 $477 0 $365 4.5719999999999992 $361 $564 forward @7 unknown #
convexity-sys-attrib $-1 -1 $-1 $-1 $362 #
vertex $-1 -1 $-1 $362 $565 #
straight-curve $-1 -1 $-1 -4.8259999999999996 8.1280000000000072 -1.3931461995545764 0 0 -1 I I #
straight-curve $-1 -1 $-1 -3.6195000000000142 12.700000000000006 3.4828654988864134 -0.86602540378443715 0 -0.50000000000000255 I I #
point $-1 -1 $-1 -4.8259999999999996 12.700000000000003 2.7862923991091333 #
plane-surface $-1 -1 $-1 -1.9595436384634013e-014 8.128000000000009 0 -3.518915242527383e-031 1 -1.0546604761465176e-031 0 1.0546604761465176e-031 1 forward_v I I I I #
face $-1 -1 $-1 $393 $566 $26 $-1 $518 reversed single #
loop $-1 -1 $-1 $-1 $386 $369 #
plane-surface $-1 -1 $-1 -7.8739999999999997 0 0 1 0 0 0 0 -1 forward_v I I I I #
coedge $-1 -1 $-1 $373 $372 $161 $258 forward $159 $-1 #
coedge $-1 -1 $-1 $567 $568 $372 $487 forward $569 $-1 #
edge $-1 -1 $-1 $388 -3.1415926535897931 $379 -1.5707963267948966 $486 $175 forward @7 unknown #
coedge $-1 -1 $-1 $570 $571 $373 $489 forward $566 $-1 #
edge $-1 -1 $-1 $380 1.5707963267948966 $262 3.1415926535897931 $488 $264 forward @7 unknown #
coedge $-1 -1 $-1 $572 $374 $571 $502 forward $493 $-1 #
coedge $-1 -1 $-1 $374 $572 $567 $573 forward $493 $-1 #
coedge $-1 -1 $-1 $574 $575 $160 $255 reversed $576 $-1 #
loop $-1 -1 $-1 $-1 $374 $527 #
coedge $-1 -1 $-1 $495 $375 $575 $577 reversed $496 $-1 #
coedge $-1 -1 $-1 $375 $494 $401 $404 reversed $496 $-1 #
loop $-1 -1 $-1 $-1 $375 $578 #
coedge $-1 -1 $-1 $498 $377 $402 $279 forward $499 $-1 #
coedge $-1 -1 $-1 $377 $497 $574 $500 reversed $499 $-1 #
loop $-1 -1 $-1 $-1 $377 $579 #
edge $-1 -1 $-1 $379 -2.952082130906877e-032 $416 7.8739999999999997 $498 $580 forward @7 unknown #
point $-1 -1 $-1 -2.952082130906877e-032 12.700000000000003 -7.8739999999999997 #
edge $-1 -1 $-1 $380 2.952082130906877e-032 $519 7.8739999999999997 $571 $581 forward @7 unknown #
point $-1 -1 $-1 -2.952082130906877e-032 -12.700000000000003 -7.8739999999999997 #
coedge $-1 -1 $-1 $418 $382 $385 $507 reversed $505 $-1 #
loop $-1 -1 $-1 $-1 $382 $414 #
coedge $-1 -1 $-1 $385 $384 $513 $582 reversed $387 $-1 #
edge $-1 -1 $-1 $417 -7.8739999999999997 $388 0 $504 $583 forward @7 unknown #
coedge $-1 -1 $-1 $584 $386 $568 $511 forward $483 $-1 #
coedge $-1 -1 $-1 $386 $584 $570 $394 reversed $483 $-1 #
face $-1 -1 $-1 $529 $387 $26 $-1 $484 reversed single #
edge $-1 -1 $-1 $388 0 $585 7.8739999999999997 $568 $583 forward @7 unknown #
point $-1 -1 $-1 -7.8739999999999997 12.700000000000003 0 #
coedge $-1 -1 $-1 $390 $407 $506 $582 forward $250 $-1 #
vertex $-1 -1 $-1 $582 $586 #
straight-curve $-1 -1 $-1 0 -12.700000000000003 7.8739999999999997 1 0 0 I I #
straight-curve $-1 -1 $-1 -7.8739999999999997 -12.700000000000003 0 0 0 -1 I I #
face $-1 -1 $-1 $578 $400 $26 $-1 $518 reversed single #
plane-surface $-1 -1 $-1 0 -12.700000000000003 0 0 1 0 0 0 1 forward_v I I I I #
vertex $-1 -1 $-1 $587 $588 #
vertex $-1 -1 $-1 $526 $589 #
coedge $-1 -1 $-1 $403 $411 $398 $522 forward $412 $-1 #
edge $-1 -1 $-1 $520 -7.8739999999999997 $268 0 $521 $525 forward @7 unknown #
coedge $-1 -1 $-1 $402 $401 $590 $531 reversed $370 $-1 #
vertex $-1 -1 $-1 $404 $591 #
straight-curve $-1 -1 $-1 7.8739999999999997 -12.700000000000003 0 0 0 -1 I I #
edge $-1 -1 $-1 $520 -12.700000000000003 $409 12.700000000000003 $411 $592 forward @7 unknown #
face $-1 -1 $-1 $510 $493 $26 $-1 $593 reversed single #
point $-1 -1 $-1 7.8739999999999997 12.700000000000003 7.8739999999999997 #
face $-1 -1 $-1 $-1 $412 $26 $-1 $371 reversed single #
face $-1 -1 $-1 $594 $569 $26 $-1 $415 reversed single #
edge $-1 -1 $-1 $416 -12.700000000000003 $524 12.700000000000003 $523 $595 forward @7 unknown #
point $-1 -1 $-1 7.8739999999999997 12.700000000000003 -7.8739999999999997 #
point $-1 -1 $-1 -7.8739999999999997 12.700000000000003 7.8739999999999997 #
point $-1 -1 $-1 -7.8739999999999997 6.3500000000000014 9.6425504299973975e-016 #
straight-curve $-1 -1 $-1 -7.8739999999999997 12.700000000000003 0 0 0 -1 I I #
point $-1 -1 $-1 -7.8739999999999997 -12.700000000000003 -7.8739999999999997 #
straight-curve $-1 -1 $-1 -7.8739999999999997 0 -7.8739999999999997 0 1 0 I I #
point $-1 -1 $-1 -7.8739999999999997 12.700000000000003 -7.8739999999999997 #
model_id-kcp-attrib $-1 -1 $-1 $-1 $441 1 1021474958 1021474958 -1477640191 10 #
face $596 -1 $-1 $597 $598 $9 $-1 $599 reversed single #
loop $-1 -1 $-1 $-1 $600 $441 #
plane-surface $-1 -1 $-1 -4.8259999999999996 0 2.7862923991091333 -0.50000000000000255 0 0.86602540378443715 21.997045256124704 0 12.700000000000065 forward_v I I I I #
coedge $-1 -1 $-1 $601 $546 $602 $603 forward $442 $-1 #
coedge $-1 -1 $-1 $604 $444 $605 $606 reversed $324 $-1 #
coedge $-1 -1 $-1 $444 $607 $608 $609 reversed $324 $-1 #
coedge $-1 -1 $-1 $543 $610 $444 $547 forward $442 $-1 #
edge $-1 -1 $-1 $611 0 $612 0.21939310229205852 $444 $613 forward @7 unknown #
ellipse-curve $-1 -1 $-1 0 0 0 0 1 0 7.8739999999999997 0 0 1 I I #
straight-curve $-1 -1 $-1 -7.8739999999999997 -6.349999999999997 9.6425504299973975e-016 0 25.399999999999999 0 I I #
straight-curve $-1 -1 $-1 7.8739999999999997 -6.349999999999997 0 0 25.399999999999999 0 I I #
point $-1 -1 $-1 7.8739999999999997 0 0 #
point $-1 -1 $-1 -7.8739999999999997 0 0 #
convexity-sys-attrib $-1 -1 $-1 $454 $331 #
coedge $-1 -1 $-1 $461 $460 $474 $563 reversed $223 $-1 #
coedge $-1 -1 $-1 $474 $466 $462 $556 forward $357 $-1 #
edge $614 -1 $-1 $468 -4.1794385986636691 $557 1.3931461995545795 $462 $615 forward @7 unknown #
vertex $-1 -1 $-1 $556 $616 #
straight-curve $-1 -1 $-1 0 8.1280000000000037 5.5725847982182861 0 1 0 I I #
point $-1 -1 $-1 0 12.700000000000003 5.5725847982182861 #
convexity-sys-attrib $-1 -1 $-1 $-1 $467 #
straight-curve $-1 -1 $-1 4.8259999999999659 8.1280000000000072 1.3931461995545666 0 0 1 I I #
point $-1 -1 $-1 4.8259999999999659 8.1280000000000037 2.7862923991091333 #
edge $617 -1 $-1 $557 -4.1794385986637241 $477 1.3931461995545527 $554 $618 forward @7 unknown #
straight-curve $-1 -1 $-1 -4.8259999999999996 8.1280000000000037 2.7862923991091333 0 1 0 I I #
point $-1 -1 $-1 -4.8259999999999996 8.1280000000000037 2.7862923991091333 #
loop $-1 -1 $-1 $-1 $488 $482 #
coedge $-1 -1 $-1 $568 $486 $491 $573 reversed $569 $-1 #
coedge $-1 -1 $-1 $486 $567 $508 $511 reversed $569 $-1 #
loop $-1 -1 $-1 $-1 $486 $530 #
coedge $-1 -1 $-1 $571 $488 $509 $394 forward $566 $-1 #
coedge $-1 -1 $-1 $488 $570 $490 $502 reversed $566 $-1 #
coedge $-1 -1 $-1 $491 $490 $584 $587 forward $493 $-1 #
edge $-1 -1 $-1 $585 -7.8739999999999997 $379 -2.952082130906877e-032 $567 $580 forward @7 unknown #
coedge $-1 -1 $-1 $590 $492 $498 $500 forward $576 $-1 #
coedge $-1 -1 $-1 $492 $590 $494 $577 forward $576 $-1 #
loop $-1 -1 $-1 $-1 $492 $594 #
edge $-1 -1 $-1 $524 -7.8739999999999997 $380 2.952082130906877e-032 $494 $581 forward @7 unknown #
face $-1 -1 $-1 $579 $496 $26 $-1 $518 reversed single #
face $-1 -1 $-1 $278 $499 $26 $-1 $415 reversed single #
straight-curve $-1 -1 $-1 0 12.700000000000003 -7.8739999999999997 1 0 0 I I #
straight-curve $-1 -1 $-1 0 -12.700000000000003 -7.8739999999999997 -1 0 0 I I #
edge $-1 -1 $-1 $417 -12.700000000000003 $514 12.700000000000003 $506 $619 forward @7 unknown #
straight-curve $-1 -1 $-1 -7.8739999999999997 12.700000000000003 0 0 0 -1 I I #
coedge $-1 -1 $-1 $509 $508 $572 $587 reversed $483 $-1 #
vertex $-1 -1 $-1 $573 $620 #
point $-1 -1 $-1 -7.8739999999999997 -12.700000000000003 7.8739999999999997 #
edge $-1 -1 $-1 $519 -12.700000000000003 $585 12.700000000000003 $584 $621 forward @7 unknown #
point $-1 -1 $-1 -7.8739999999999997 -12.700000000000003 -7.8739999999999997 #
point $-1 -1 $-1 7.8739999999999997 -12.700000000000003 7.8739999999999997 #
coedge $-1 -1 $-1 $575 $574 $523 $531 forward $576 $-1 #
point $-1 -1 $-1 7.8739999999999997 -12.700000000000003 -7.8739999999999997 #
straight-curve $-1 -1 $-1 7.8739999999999997 0 7.8739999999999997 0 1 0 I I #
plane-surface $-1 -1 $-1 0 0 -7.8739999999999997 0 0 1 1 0 0 forward_v I I I I #
face $-1 -1 $-1 $408 $576 $26 $-1 $593 reversed single #
straight-curve $-1 -1 $-1 7.8739999999999997 0 -7.8739999999999997 0 -1 0 I I #
model_id-kcp-attrib $-1 -1 $-1 $-1 $540 1 1021474958 1021474958 -1477640191 11 #
face $622 -1 $-1 $623 $624 $9 $-1 $625 reversed single #
loop $-1 -1 $-1 $-1 $626 $540 #
plane-surface $-1 -1 $-1 0 0 5.5725847982182861 0.50000000000000533 0 0.86602540378443571 21.997045256124665 0 -12.700000000000133 forward_v I I I I #
coedge $-1 -1 $-1 $627 $608 $628 $629 forward $541 $-1 #
coedge $-1 -1 $-1 $610 $543 $630 $631 reversed $442 $-1 #
coedge $-1 -1 $-1 $608 $627 $543 $603 reversed $541 $-1 #
edge $-1 -1 $-1 $612 0 $632 0.17999999999999997 $602 $633 forward @7 unknown #
coedge $-1 -1 $-1 $634 $544 $635 $636 reversed $324 $-1 #
coedge $-1 -1 $-1 $637 $638 $544 $606 forward $639 $-1 #
edge $-1 -1 $-1 $640 0 $611 0.21939310229205775 $544 $641 forward @7 unknown #
coedge $-1 -1 $-1 $545 $634 $642 $643 reversed $324 $-1 #
coedge $-1 -1 $-1 $600 $602 $545 $609 forward $541 $-1 #
edge $-1 -1 $-1 $612 0 $644 0.21939310229205813 $545 $645 forward @7 unknown #
coedge $-1 -1 $-1 $546 $601 $637 $646 reversed $442 $-1 #
vertex $-1 -1 $-1 $606 $647 #
vertex $-1 -1 $-1 $609 $648 #
straight-curve $-1 -1 $-1 -4.8259999999999996 0 -2.7862923991091528 0 0 25.399999999999999 I I #
convexity-sys-attrib $-1 -1 $-1 $-1 $556 #
straight-curve $-1 -1 $-1 1.2065000000000066 8.1280000000000072 4.8760116984409896 -0.86602540378443571 0 0.50000000000000533 I I #
point $-1 -1 $-1 0 8.1280000000000037 5.5725847982182861 #
convexity-sys-attrib $-1 -1 $-1 $-1 $563 #
straight-curve $-1 -1 $-1 -3.6195000000000142 8.1280000000000072 3.4828654988864134 -0.86602540378443715 0 -0.50000000000000255 I I #
straight-curve $-1 -1 $-1 -7.8739999999999997 0 7.8739999999999997 0 -1 0 I I #
point $-1 -1 $-1 -7.8739999999999997 12.700000000000003 -7.8739999999999997 #
straight-curve $-1 -1 $-1 -7.8739999999999997 0 -7.8739999999999997 0 1 0 I I #
model_id-kcp-attrib $-1 -1 $-1 $-1 $597 1 1021474958 1021474958 -1477640191 12 #
face $649 -1 $-1 $650 $651 $9 $-1 $652 reversed single #
loop $-1 -1 $-1 $-1 $653 $597 #
plane-surface $-1 -1 $-1 4.8259999999999659 0 2.7862923991091333 1 0 0 0 0 -25.399999999999999 forward_v I I I I #
coedge $-1 -1 $-1 $654 $642 $655 $656 forward $598 $-1 #
coedge $-1 -1 $-1 $602 $600 $657 $658 reversed $541 $-1 #
coedge $-1 -1 $-1 $642 $654 $600 $629 reversed $598 $-1 #
edge $-1 -1 $-1 $644 0 $659 0.17999999999999997 $600 $660 forward @7 unknown #
coedge $-1 -1 $-1 $657 $661 $601 $631 forward $662 $-1 #
edge $663 -1 $-1 $664 0 $632 0.21939310229205852 $630 $665 forward @7 unknown #
vertex $-1 -1 $-1 $658 $666 #
straight-curve $-1 -1 $-1 -4.8259999999999996 0 2.7862923991091333 0 -25.399999999999999 0 I I #
coedge $-1 -1 $-1 $607 $604 $667 $668 reversed $324 $-1 #
coedge $-1 -1 $-1 $669 $670 $604 $636 forward $651 $-1 #
edge $-1 -1 $-1 $671 0 $640 0.21939310229205736 $604 $672 forward @7 unknown #
coedge $-1 -1 $-1 $673 $605 $610 $646 forward $639 $-1 #
coedge $-1 -1 $-1 $605 $673 $669 $674 reversed $639 $-1 #
loop $-1 -1 $-1 $-1 $637 $650 #
vertex $-1 -1 $-1 $636 $675 #
straight-curve $-1 -1 $-1 0 0 -5.5725847982182861 -21.997045256124739 0 12.699999999999998 I I #
coedge $-1 -1 $-1 $626 $628 $607 $643 forward $598 $-1 #
edge $-1 -1 $-1 $644 0 $676 0.21939310229205702 $607 $677 forward @7 unknown #
vertex $-1 -1 $-1 $609 $678 #
straight-curve $-1 -1 $-1 -4.8259999999999996 0 2.7862923991091333 21.997045256124704 0 12.700000000000061 I I #
edge $-1 -1 $-1 $611 0 $664 0.17999999999999997 $637 $679 forward @7 unknown #
point $-1 -1 $-1 -4.8259999999999996 0 -2.7862923991091528 #
point $-1 -1 $-1 -4.8259999999999996 0 2.7862923991091333 #
model_id-kcp-attrib $-1 -1 $-1 $-1 $623 1 1021474958 1021474958 -1477640191 13 #
face $680 -1 $-1 $681 $639 $9 $-1 $682 reversed single #
loop $-1 -1 $-1 $-1 $669 $623 #
plane-surface $-1 -1 $-1 4.8259999999999659 0 -2.7862923991091133 0.50000000000000799 0 -0.86602540378443416 -21.997045256124622 0 -12.7000000000002 forward_v I I I I #
coedge $-1 -1 $-1 $683 $667 $670 $684 forward $624 $-1 #
coedge $-1 -1 $-1 $628 $626 $685 $686 reversed $598 $-1 #
coedge $-1 -1 $-1 $667 $683 $626 $656 reversed $624 $-1 #
edge $-1 -1 $-1 $676 0 $687 0.17999999999999997 $626 $688 forward @7 unknown #
coedge $-1 -1 $-1 $685 $630 $627 $658 forward $662 $-1 #
edge $689 -1 $-1 $632 0 $659 0.21939310229205813 $657 $690 forward @7 unknown #
vertex $-1 -1 $-1 $658 $691 #
straight-curve $-1 -1 $-1 0 0 5.5725847982182852 0 -25.399999999999999 0 I I #
coedge $-1 -1 $-1 $630 $692 $673 $693 forward $662 $-1 #
loop $-1 -1 $-1 $-1 $685 $681 #
attrib_edge_convexity-kcp-attrib $-1 -1 $694 $-1 $631 2 #
vertex $-1 -1 $-1 $631 $695 #
straight-curve $-1 -1 $-1 -4.8259999999999996 -4.5719999999999992 -2.7862923991091528 0 0 25.399999999999999 I I #
point $-1 -1 $-1 -4.8259999999999996 -4.5719999999999992 2.7862923991091333 #
coedge $-1 -1 $-1 $653 $655 $634 $668 forward $624 $-1 #
edge $-1 -1 $-1 $676 0 $671 0.21939310229205694 $634 $696 forward @7 unknown #
coedge $-1 -1 $-1 $697 $635 $638 $674 forward $651 $-1 #
coedge $-1 -1 $-1 $635 $697 $653 $684 reversed $651 $-1 #
vertex $-1 -1 $-1 $668 $698 #
straight-curve $-1 -1 $-1 4.8259999999999659 0 -2.7862923991091133 -21.997045256124622 0 -12.700000000000202 I I #
coedge $-1 -1 $-1 $638 $637 $661 $693 reversed $639 $-1 #
edge $-1 -1 $-1 $640 0 $699 0.17999999999999997 $669 $700 forward @7 unknown #
point $-1 -1 $-1 0 0 -5.5725847982182861 #
vertex $-1 -1 $-1 $643 $701 #
straight-curve $-1 -1 $-1 0 0 5.5725847982182861 21.997045256124665 0 -12.700000000000133 I I #
point $-1 -1 $-1 0 0 5.5725847982182861 #
straight-curve $-1 -1 $-1 -4.8260000000000005 0 -2.7862923991091524 0 -25.399999999999999 0 I I #
model_id-kcp-attrib $-1 -1 $-1 $-1 $650 1 1021474958 1021474958 -1477640191 14 #
face $702 -1 $-1 $-1 $662 $9 $-1 $703 forward single #
plane-surface $-1 -1 $-1 0 0 -5.5725847982182861 -0.5 0 -0.86602540378443871 -21.997045256124743 0 12.699999999999999 forward_v I I I I #
coedge $-1 -1 $-1 $655 $653 $704 $705 reversed $624 $-1 #
edge $-1 -1 $-1 $671 0 $706 0.17999999999999997 $653 $707 forward @7 unknown #
coedge $-1 -1 $-1 $704 $657 $654 $686 forward $662 $-1 #
edge $708 -1 $-1 $659 0 $687 0.21939310229205702 $685 $709 forward @7 unknown #
vertex $-1 -1 $-1 $705 $710 #
straight-curve $-1 -1 $-1 4.8259999999999659 0 2.7862923991091333 0 -25.399999999999999 0 I I #
attrib_edge_convexity-kcp-attrib $-1 -1 $711 $-1 $658 2 #
straight-curve $-1 -1 $-1 -4.8259999999999996 -4.5719999999999992 2.7862923991091333 21.997045256124704 0 12.700000000000061 I I #
point $-1 -1 $-1 0 -4.5719999999999992 5.5725847982182861 #
coedge $-1 -1 $-1 $661 $704 $697 $712 forward $662 $-1 #
edge $713 -1 $-1 $699 0 $664 0.21939310229205775 $661 $714 forward @7 unknown #
convexity-sys-attrib $-1 -1 $-1 $663 $631 #
point $-1 -1 $-1 -4.8259999999999996 -4.5719999999999992 -2.7862923991091528 #
straight-curve $-1 -1 $-1 4.8259999999999659 0 2.7862923991091333 0 0 -25.399999999999999 I I #
coedge $-1 -1 $-1 $670 $669 $692 $712 reversed $651 $-1 #
point $-1 -1 $-1 4.8259999999999659 0 -2.7862923991091133 #
vertex $-1 -1 $-1 $693 $715 #
straight-curve $-1 -1 $-1 0 0 -5.572584798218287 0 -25.399999999999999 0 I I #
point $-1 -1 $-1 4.8259999999999659 0 2.7862923991091333 #
model_id-kcp-attrib $-1 -1 $-1 $-1 $681 1 1021474958 1021474958 -1477640191 15 #
plane-surface $-1 -1 $-1 0 -4.5719999999999992 0 0 1 0 -25.399999999999999 0 0 forward_v I I I I #
coedge $-1 -1 $-1 $692 $685 $683 $705 forward $662 $-1 #
edge $716 -1 $-1 $687 0 $706 0.21939310229205694 $704 $717 forward @7 unknown #
vertex $-1 -1 $-1 $712 $718 #
straight-curve $-1 -1 $-1 4.8259999999999659 0 -2.7862923991091133 0 -25.399999999999999 0 I I #
attrib_edge_convexity-kcp-attrib $-1 -1 $719 $-1 $686 2 #
straight-curve $-1 -1 $-1 0 -4.5719999999999992 5.5725847982182861 21.997045256124665 0 -12.700000000000133 I I #
point $-1 -1 $-1 4.8259999999999659 -4.5719999999999992 2.7862923991091333 #
convexity-sys-attrib $-1 -1 $-1 $689 $658 #
edge $720 -1 $-1 $706 0 $699 0.21939310229205736 $692 $721 forward @7 unknown #
attrib_edge_convexity-kcp-attrib $-1 -1 $722 $-1 $693 2 #
straight-curve $-1 -1 $-1 0 -4.5719999999999992 -5.5725847982182861 -21.997045256124739 0 12.699999999999998 I I #
point $-1 -1 $-1 0 -4.5719999999999992 -5.5725847982182861 #
attrib_edge_convexity-kcp-attrib $-1 -1 $723 $-1 $705 2 #
straight-curve $-1 -1 $-1 4.8259999999999659 -4.5719999999999992 2.7862923991091333 0 0 -25.399999999999999 I I #
point $-1 -1 $-1 4.8259999999999659 -4.5719999999999992 -2.7862923991091133 #
convexity-sys-attrib $-1 -1 $-1 $708 $686 #
attrib_edge_convexity-kcp-attrib $-1 -1 $724 $-1 $712 2 #
straight-curve $-1 -1 $-1 4.8259999999999659 -4.5719999999999992 -2.7862923991091133 -21.997045256124622 0 -12.700000000000202 I I #
convexity-sys-attrib $-1 -1 $-1 $713 $693 #
convexity-sys-attrib $-1 -1 $-1 $716 $705 #
convexity-sys-attrib $-1 -1 $-1 $720 $712 #
End-of-ACIS-data 