600 0 1 0           
107 GICL Pro/E ACIS Translator - Source: f:/data5/repository/PTC/V20/prod_appl/assoc_demo/cmm/vise1.prt.3 - 6 0 13 ACIS 6.0.3 NT 24 Thu Apr 04 13:17:06 2002 
1 9.9999999999999995e-007 1e-010 
body $-1 $1 $-1 $-1 #
lump $-1 $-1 $2 $0 #
shell $-1 $-1 $-1 $3 $-1 $1 #
face $-1 $4 $5 $2 $-1 $6 reversed single #
face $-1 $7 $8 $2 $-1 $9 forward single #
loop $-1 $-1 $10 $3 #
plane-surface $-1 0 0 0 0 1 0 -1 0 0 forward_v I I I I #
face $-1 $11 $12 $2 $-1 $13 forward single #
loop $-1 $-1 $14 $4 #
plane-surface $-1 100 0 25 1 0 0 0 0 -1 forward_v I I I I #
coedge $-1 $15 $16 $17 $18 reversed $5 $-1 #
face $-1 $19 $20 $2 $-1 $21 reversed single #
loop $-1 $-1 $22 $7 #
plane-surface $-1 50 0 25 0 0 1 1 0 0 forward_v I I I I #
coedge $-1 $17 $23 $24 $25 reversed $8 $-1 #
coedge $-1 $26 $10 $27 $28 reversed $5 $-1 #
coedge $-1 $10 $29 $30 $31 reversed $5 $-1 #
coedge $-1 $32 $14 $10 $18 forward $8 $-1 #
edge $-1 $33 0 $34 25 $10 $35 forward 7 unknown #
face $-1 $36 $37 $2 $-1 $38 forward single #
loop $-1 $-1 $39 $11 #
cone-surface $-1 75 200 25 0 0 -1 12.5 0 0 1 I I 0 1 12.5 forward I I I I #
coedge $-1 $40 $41 $42 $43 forward $12 $-1 #
coedge $-1 $14 $32 $44 $45 reversed $8 $-1 #
coedge $-1 $46 $27 $14 $25 forward $12 $-1 #
edge $-1 $33 0 $47 37.5 $24 $48 forward 7 unknown #
coedge $-1 $49 $15 $50 $51 reversed $5 $-1 #
coedge $-1 $24 $52 $15 $28 forward $12 $-1 #
edge $-1 $53 0 $33 50 $15 $54 forward 7 unknown #
coedge $-1 $16 $55 $56 $57 forward $5 $-1 #
coedge $-1 $58 $59 $16 $31 forward $60 $-1 #
edge $-1 $34 0 $61 500 $16 $62 forward 7 unknown #
coedge $-1 $23 $17 $59 $63 forward $8 $-1 #
vertex $-1 $28 $64 #
vertex $-1 $31 $65 #
straight-curve $-1 100 0 25 0 0 -1 I I #
face $-1 $66 $67 $2 $-1 $68 forward single #
loop $-1 $-1 $69 $19 #
plane-surface $-1 75 212.5 25 0 -1 0 1 0 0 forward_v I I I I #
coedge $-1 $42 $70 $71 $72 reversed $20 $-1 #
coedge $-1 $73 $22 $74 $75 reversed $12 $-1 #
coedge $-1 $22 $76 $77 $78 forward $12 $-1 #
coedge $-1 $79 $39 $22 $43 reversed $20 $-1 #
edge $-1 $80 0 $81 3.1415926535897931 $22 $82 forward 7 unknown #
coedge $-1 $83 $84 $23 $45 forward $85 $-1 #
edge $-1 $47 0 $86 25 $23 $87 forward 7 unknown #
coedge $-1 $88 $24 $84 $89 forward $12 $-1 #
vertex $-1 $89 $90 #
straight-curve $-1 100 0 25 0 1 0 I I #
coedge $-1 $91 $26 $92 $93 reversed $5 $-1 #
coedge $-1 $94 $95 $26 $51 forward $96 $-1 #
edge $-1 $97 0 $53 35 $26 $98 forward 7 unknown #
coedge $-1 $27 $99 $94 $100 reversed $12 $-1 #
vertex $-1 $51 $101 #
straight-curve $-1 50 0 25 1 0 0 I I #
coedge $-1 $29 $102 $103 $104 forward $5 $-1 #
coedge $-1 $105 $106 $29 $57 reversed $107 $-1 #
edge $-1 $108 0 $61 25 $29 $109 forward 7 unknown #
coedge $-1 $110 $30 $106 $111 forward $60 $-1 #
coedge $-1 $30 $112 $32 $63 reversed $60 $-1 #
loop $-1 $-1 $113 $66 #
vertex $-1 $31 $114 #
straight-curve $-1 100 0 0 -1 0 0 I I #
edge $-1 $34 0 $86 37.5 $59 $115 forward 7 unknown #
point $-1 100 0 25 #
point $-1 100 0 0 #
face $-1 $116 $117 $2 $-1 $118 forward single #
loop $-1 $-1 $119 $36 #
plane-surface $-1 100 0 25 1 0 0 0 0 -1 forward_v I I I I #
coedge $-1 $74 $120 $121 $122 reversed $37 $-1 #
coedge $-1 $39 $79 $123 $124 forward $20 $-1 #
coedge $-1 $120 $74 $39 $72 forward $37 $-1 #
edge $-1 $81 0 $125 25 $39 $126 forward 7 unknown #
coedge $-1 $99 $40 $127 $128 forward $12 $-1 #
coedge $-1 $71 $69 $40 $75 forward $37 $-1 #
edge $-1 $129 0 $81 25 $40 $130 forward 7 unknown #
coedge $-1 $41 $131 $132 $133 forward $12 $-1 #
coedge $-1 $134 $135 $41 $78 reversed $136 $-1 #
edge $-1 $137 0 $80 25 $41 $138 forward 7 unknown #
coedge $-1 $70 $42 $135 $139 forward $20 $-1 #
vertex $-1 $78 $140 #
vertex $-1 $75 $141 #
ellipse-curve $-1 75 200 25 0 0 -1 0 -12.5 0 1 I I #
coedge $-1 $142 $44 $112 $143 forward $85 $-1 #
coedge $-1 $44 $142 $46 $89 reversed $85 $-1 #
loop $-1 $-1 $142 $144 #
vertex $-1 $63 $145 #
straight-curve $-1 100 37.5 25 0 0 -1 I I #
coedge $-1 $131 $46 $146 $147 reversed $12 $-1 #
edge $-1 $47 0 $148 25 $46 $149 forward 7 unknown #
point $-1 100 37.5 25 #
coedge $-1 $150 $49 $151 $152 reversed $5 $-1 #
coedge $-1 $153 $154 $49 $93 forward $155 $-1 #
edge $-1 $156 0 $97 50 $49 $157 forward 7 unknown #
coedge $-1 $158 $50 $52 $100 forward $96 $-1 #
coedge $-1 $50 $158 $153 $159 reversed $96 $-1 #
loop $-1 $-1 $94 $160 #
vertex $-1 $93 $161 #
straight-curve $-1 50 0 60 0 0 -1 I I #
coedge $-1 $52 $73 $162 $163 reversed $12 $-1 #
edge $-1 $53 0 $164 250 $94 $165 forward 7 unknown #
point $-1 50 0 25 #
coedge $-1 $55 $166 $167 $168 forward $5 $-1 #
coedge $-1 $169 $170 $55 $104 reversed $171 $-1 #
edge $-1 $172 0 $108 50 $55 $173 forward 7 unknown #
coedge $-1 $174 $56 $170 $175 forward $107 $-1 #
coedge $-1 $56 $174 $58 $111 reversed $107 $-1 #
loop $-1 $-1 $106 $176 #
vertex $-1 $57 $177 #
straight-curve $-1 -400 0 25 0 0 -1 I I #
coedge $-1 $178 $58 $179 $180 forward $60 $-1 #
edge $-1 $61 0 $181 37.5 $58 $182 forward 7 unknown #
coedge $-1 $59 $183 $83 $143 reversed $60 $-1 #
coedge $-1 $184 $185 $186 $187 forward $60 $-1 #
point $-1 -400 0 0 #
straight-curve $-1 100 0 0 0 1 0 I I #
face $-1 $188 $189 $2 $-1 $190 forward single #
loop $-1 $60 $191 $66 #
plane-surface $-1 100 0 0 0 0 -1 -1 0 0 forward_v I I I I #
coedge $-1 $192 $121 $193 $194 forward $67 $-1 #
coedge $-1 $69 $71 $195 $196 reversed $37 $-1 #
coedge $-1 $119 $127 $69 $122 forward $67 $-1 #
edge $-1 $129 0 $197 25 $121 $198 forward 7 unknown #
coedge $-1 $199 $195 $70 $124 reversed $60 $-1 #
edge $-1 $200 0 $125 3.1415926535897931 $123 $201 forward 7 unknown #
vertex $-1 $124 $202 #
straight-curve $-1 75 212.5 25 0 0 -1 I I #
coedge $-1 $121 $192 $73 $128 reversed $67 $-1 #
edge $-1 $129 0 $203 37.5 $73 $204 forward 7 unknown #
vertex $-1 $128 $205 #
straight-curve $-1 100 212.5 25 -1 0 0 I I #
coedge $-1 $76 $88 $206 $207 reversed $12 $-1 #
coedge $-1 $208 $209 $76 $133 reversed $210 $-1 #
edge $-1 $211 0 $137 125 $76 $212 forward 7 unknown #
coedge $-1 $213 $77 $209 $214 forward $136 $-1 #
coedge $-1 $77 $213 $79 $139 reversed $136 $-1 #
loop $-1 $-1 $135 $215 #
vertex $-1 $78 $216 #
straight-curve $-1 100 187.5 25 -1 0 0 I I #
edge $-1 $80 0 $200 25 $135 $217 forward 7 unknown #
point $-1 75 187.5 25 #
point $-1 75 212.5 25 #
coedge $-1 $84 $83 $218 $219 reversed $85 $-1 #
edge $-1 $86 0 $220 25 $112 $221 forward 7 unknown #
face $-1 $-1 $85 $2 $-1 $222 reversed single #
point $-1 100 37.5 0 #
coedge $-1 $218 $223 $88 $147 forward $224 $-1 #
edge $-1 $225 0 $148 3.1415926535897931 $88 $226 forward 7 unknown #
vertex $-1 $147 $227 #
straight-curve $-1 100 37.5 25 -1 0 0 I I #
coedge $-1 $228 $91 $229 $230 forward $5 $-1 #
coedge $-1 $231 $232 $91 $152 forward $233 $-1 #
edge $-1 $234 0 $156 35 $91 $235 forward 7 unknown #
coedge $-1 $236 $92 $95 $159 forward $155 $-1 #
coedge $-1 $92 $236 $231 $237 reversed $155 $-1 #
loop $-1 $-1 $153 $238 #
vertex $-1 $152 $239 #
straight-curve $-1 0 0 60 1 0 0 I I #
coedge $-1 $95 $94 $240 $241 reversed $96 $-1 #
edge $-1 $97 0 $242 250 $153 $243 forward 7 unknown #
face $-1 $244 $96 $2 $-1 $245 forward single #
point $-1 50 0 60 #
coedge $-1 $246 $240 $99 $163 forward $247 $-1 #
edge $-1 $164 0 $203 50 $162 $248 forward 7 unknown #
vertex $-1 $163 $249 #
straight-curve $-1 50 0 25 0 1 0 I I #
coedge $-1 $102 $228 $250 $251 forward $5 $-1 #
coedge $-1 $252 $253 $102 $168 reversed $254 $-1 #
edge $-1 $255 0 $172 35 $102 $256 forward 7 unknown #
coedge $-1 $257 $103 $253 $258 forward $171 $-1 #
coedge $-1 $103 $259 $105 $175 reversed $171 $-1 #
loop $-1 $-1 $260 $261 #
vertex $-1 $104 $262 #
straight-curve $-1 -350 0 25 -1 0 0 I I #
coedge $-1 $106 $105 $263 $264 forward $107 $-1 #
edge $-1 $108 0 $265 37.5 $170 $266 forward 7 unknown #
face $-1 $267 $107 $2 $-1 $268 reversed single #
point $-1 -400 0 25 #
coedge $-1 $269 $110 $270 $271 reversed $60 $-1 #
coedge $-1 $263 $272 $110 $180 reversed $273 $-1 #
edge $-1 $181 0 $274 25 $110 $275 forward 7 unknown #
vertex $-1 $180 $276 #
straight-curve $-1 -400 0 0 0 1 0 I I #
coedge $-1 $112 $277 $278 $279 forward $60 $-1 #
coedge $-1 $280 $113 $281 $282 reversed $60 $-1 #
coedge $-1 $113 $283 $284 $285 forward $60 $-1 #
coedge $-1 $286 $287 $113 $187 reversed $288 $-1 #
edge $-1 $289 0 $290 3.1415926535897931 $113 $291 forward 7 unknown #
face $-1 $292 $293 $2 $-1 $294 forward single #
loop $-1 $-1 $295 $116 #
plane-surface $-1 0 220 0 0 -1 0 0 0 1 forward_v I I I I #
coedge $-1 $296 $297 $298 $299 forward $117 $-1 #
coedge $-1 $127 $119 $246 $300 reversed $67 $-1 #
coedge $-1 $195 $301 $119 $194 reversed $60 $-1 #
edge $-1 $197 0 $302 37.5 $193 $303 forward 7 unknown #
coedge $-1 $123 $193 $120 $196 forward $60 $-1 #
edge $-1 $197 0 $125 25 $195 $304 forward 7 unknown #
vertex $-1 $196 $305 #
straight-curve $-1 100 212.5 25 0 0 -1 I I #
coedge $-1 $306 $123 $213 $307 reversed $60 $-1 #
vertex $-1 $307 $308 #
ellipse-curve $-1 75 200 0 0 0 -1 0 -12.5 0 1 I I #
point $-1 75 212.5 0 #
vertex $-1 $300 $309 #
straight-curve $-1 100 212.5 25 0 1 0 I I #
point $-1 100 212.5 25 #
coedge $-1 $310 $311 $131 $207 forward $312 $-1 #
edge $-1 $211 0 $225 25 $131 $313 forward 7 unknown #
coedge $-1 $314 $132 $311 $315 forward $210 $-1 #
coedge $-1 $132 $314 $134 $214 reversed $210 $-1 #
loop $-1 $-1 $132 $316 #
vertex $-1 $133 $317 #
straight-curve $-1 100 62.5 25 0 1 0 I I #
coedge $-1 $135 $134 $199 $307 forward $136 $-1 #
edge $-1 $137 0 $318 25 $209 $319 forward 7 unknown #
face $-1 $316 $136 $2 $-1 $320 forward single #
point $-1 100 187.5 25 #
straight-curve $-1 75 187.5 25 0 0 -1 I I #
coedge $-1 $278 $146 $142 $219 forward $224 $-1 #
edge $-1 $148 0 $220 25 $218 $321 forward 7 unknown #
vertex $-1 $143 $322 #
straight-curve $-1 100 37.5 0 -1 0 0 I I #
plane-surface $-1 75 37.5 25 0 -1 0 1 0 0 forward_v I I I I #
coedge $-1 $146 $278 $310 $323 reversed $224 $-1 #
loop $-1 $-1 $223 $324 #
vertex $-1 $207 $325 #
ellipse-curve $-1 75 50 25 0 0 1 0 12.5 0 1 I I #
point $-1 75 37.5 25 #
coedge $-1 $166 $150 $326 $327 forward $5 $-1 #
coedge $-1 $328 $329 $150 $230 reversed $330 $-1 #
edge $-1 $234 0 $331 300 $150 $332 forward 7 unknown #
coedge $-1 $333 $151 $154 $237 forward $233 $-1 #
coedge $-1 $151 $334 $328 $335 reversed $233 $-1 #
loop $-1 $-1 $336 $337 #
vertex $-1 $230 $338 #
straight-curve $-1 0 0 25 0 0 1 I I #
coedge $-1 $154 $153 $339 $340 reversed $155 $-1 #
edge $-1 $156 0 $341 250 $231 $342 forward 7 unknown #
face $-1 $160 $155 $2 $-1 $343 forward single #
point $-1 0 0 60 #
coedge $-1 $162 $339 $158 $241 forward $247 $-1 #
edge $-1 $242 0 $164 35 $240 $344 forward 7 unknown #
vertex $-1 $241 $345 #
straight-curve $-1 50 0 60 0 1 0 I I #
face $-1 $346 $247 $2 $-1 $347 forward single #
plane-surface $-1 50 0 60 1 0 0 0 0 -1 forward_v I I I I #
coedge $-1 $348 $162 $192 $300 forward $247 $-1 #
loop $-1 $-1 $349 $244 #
straight-curve $-1 50 250 25 1 0 0 I I #
point $-1 50 250 25 #
coedge $-1 $350 $351 $166 $251 reversed $352 $-1 #
edge $-1 $353 0 $255 50 $166 $354 forward 7 unknown #
coedge $-1 $355 $167 $351 $356 forward $254 $-1 #
coedge $-1 $167 $355 $169 $258 reversed $254 $-1 #
loop $-1 $-1 $252 $357 #
vertex $-1 $168 $358 #
straight-curve $-1 -350 0 60 0 0 -1 I I #
coedge $-1 $359 $169 $360 $361 forward $171 $-1 #
edge $-1 $172 0 $362 250 $253 $363 forward 7 unknown #
coedge $-1 $170 $364 $365 $366 reversed $171 $-1 #
coedge $-1 $367 $368 $369 $370 reversed $171 $-1 #
face $-1 $371 $171 $2 $-1 $372 reversed single #
point $-1 -350 0 25 #
coedge $-1 $365 $179 $174 $264 reversed $273 $-1 #
edge $-1 $265 0 $181 25 $174 $373 forward 7 unknown #
vertex $-1 $175 $374 #
straight-curve $-1 -400 0 25 0 1 0 I I #
face $-1 $375 $376 $2 $-1 $377 reversed single #
plane-surface $-1 -400 0 25 1 0 0 0 0 -1 forward_v I I I I #
coedge $-1 $283 $178 $378 $379 reversed $60 $-1 #
coedge $-1 $380 $381 $178 $271 forward $382 $-1 #
edge $-1 $383 0 $274 3.1415926535897931 $178 $384 forward 7 unknown #
coedge $-1 $179 $365 $380 $385 forward $273 $-1 #
loop $-1 $-1 $263 $386 #
vertex $-1 $271 $387 #
straight-curve $-1 -400 37.5 0 1 0 0 I I #
point $-1 -400 37.5 0 #
coedge $-1 $183 $306 $388 $389 forward $60 $-1 #
coedge $-1 $223 $218 $183 $279 reversed $224 $-1 #
edge $-1 $390 0 $220 3.1415926535897931 $183 $391 forward 7 unknown #
coedge $-1 $301 $184 $392 $393 forward $60 $-1 #
coedge $-1 $394 $395 $184 $282 forward $396 $-1 #
edge $-1 $397 0 $290 25 $184 $398 forward 7 unknown #
coedge $-1 $185 $269 $399 $400 forward $60 $-1 #
coedge $-1 $401 $402 $185 $285 reversed $376 $-1 #
edge $-1 $403 0 $289 25 $185 $404 forward 7 unknown #
coedge $-1 $405 $186 $402 $406 reversed $288 $-1 #
coedge $-1 $186 $405 $394 $407 forward $288 $-1 #
loop $-1 $-1 $286 $375 #
vertex $-1 $285 $408 #
vertex $-1 $282 $409 #
ellipse-curve $-1 -375 200 0 0 0 1 0 -12.5 0 1 I I #
face $-1 $410 $411 $2 $-1 $412 forward single #
loop $-1 $-1 $413 $188 #
plane-surface $-1 -242 242 8 0 0 -1 1 0 0 forward_v I I I I #
coedge $-1 $414 $415 $413 $416 reversed $189 $-1 #
coedge $-1 $417 $191 $418 $419 reversed $117 $-1 #
coedge $-1 $191 $417 $420 $421 forward $117 $-1 #
coedge $-1 $422 $423 $191 $299 reversed $189 $-1 #
edge $-1 $424 0 $425 300 $191 $426 forward 7 unknown #
edge $-1 $203 0 $302 25 $246 $427 forward 7 unknown #
coedge $-1 $193 $280 $348 $428 reversed $60 $-1 #
vertex $-1 $428 $429 #
straight-curve $-1 100 212.5 0 0 1 0 I I #
straight-curve $-1 100 212.5 0 -1 0 0 I I #
point $-1 100 212.5 0 #
coedge $-1 $277 $199 $314 $430 reversed $60 $-1 #
edge $-1 $318 0 $200 25 $199 $431 forward 7 unknown #
point $-1 75 187.5 0 #
point $-1 100 250 25 #
coedge $-1 $388 $206 $223 $323 forward $312 $-1 #
coedge $-1 $206 $388 $208 $315 reversed $312 $-1 #
loop $-1 $-1 $311 $432 #
straight-curve $-1 100 62.5 25 -1 0 0 I I #
coedge $-1 $209 $208 $306 $430 forward $210 $-1 #
edge $-1 $211 0 $433 25 $208 $434 forward 7 unknown #
face $-1 $432 $210 $2 $-1 $435 forward single #
point $-1 100 62.5 25 #
vertex $-1 $430 $436 #
straight-curve $-1 100 187.5 25 0 0 -1 I I #
plane-surface $-1 100 187.5 25 0 1 0 -1 0 0 forward_v I I I I #
straight-curve $-1 75 37.5 25 0 0 -1 I I #
point $-1 75 37.5 0 #
edge $-1 $225 0 $390 25 $310 $437 forward 7 unknown #
face $-1 $144 $224 $2 $-1 $438 reversed single #
point $-1 75 62.5 25 #
coedge $-1 $439 $440 $228 $327 reversed $441 $-1 #
edge $-1 $331 0 $353 35 $228 $442 forward 7 unknown #
coedge $-1 $443 $229 $232 $335 forward $330 $-1 #
coedge $-1 $229 $444 $439 $445 reversed $330 $-1 #
loop $-1 $-1 $444 $446 #
vertex $-1 $327 $447 #
straight-curve $-1 0 0 25 -1 0 0 I I #
coedge $-1 $448 $231 $349 $449 reversed $233 $-1 #
coedge $-1 $232 $336 $450 $451 forward $233 $-1 #
edge $-1 $234 0 $452 8 $232 $453 forward 7 unknown #
coedge $-1 $334 $454 $455 $456 forward $233 $-1 #
face $-1 $457 $233 $2 $-1 $458 forward single #
point $-1 0 0 25 #
coedge $-1 $240 $349 $236 $340 forward $247 $-1 #
edge $-1 $341 0 $242 50 $339 $459 forward 7 unknown #
vertex $-1 $340 $460 #
straight-curve $-1 0 0 60 0 1 0 I I #
plane-surface $-1 0 0 60 0 0 1 1 0 0 forward_v I I I I #
straight-curve $-1 50 250 60 0 0 -1 I I #
point $-1 50 250 60 #
face $-1 $261 $461 $2 $-1 $462 reversed single #
plane-surface $-1 0 250 0 0 1 0 -1 0 0 forward_v I I I I #
coedge $-1 $463 $246 $301 $428 forward $247 $-1 #
coedge $-1 $339 $464 $333 $449 forward $247 $-1 #
coedge $-1 $465 $250 $440 $466 forward $352 $-1 #
coedge $-1 $250 $465 $252 $356 reversed $352 $-1 #
loop $-1 $-1 $350 $467 #
vertex $-1 $251 $468 #
straight-curve $-1 -300 0 60 -1 0 0 I I #
coedge $-1 $253 $252 $469 $470 forward $254 $-1 #
edge $-1 $255 0 $471 250 $351 $472 forward 7 unknown #
face $-1 $467 $254 $2 $-1 $473 reversed single #
point $-1 -350 0 60 #
coedge $-1 $474 $257 $475 $476 reversed $171 $-1 #
coedge $-1 $469 $463 $257 $361 reversed $247 $-1 #
edge $-1 $362 0 $477 50 $360 $478 forward 7 unknown #
vertex $-1 $470 $479 #
straight-curve $-1 -350 0 25 0 1 0 I I #
coedge $-1 $259 $367 $480 $481 forward $171 $-1 #
coedge $-1 $272 $263 $259 $366 forward $273 $-1 #
edge $-1 $265 0 $482 25 $259 $483 forward 7 unknown #
coedge $-1 $364 $260 $484 $485 forward $171 $-1 #
coedge $-1 $260 $486 $487 $488 reversed $171 $-1 #
coedge $-1 $489 $490 $260 $370 forward $491 $-1 #
edge $-1 $492 0 $493 125 $260 $494 forward 7 unknown #
face $-1 $495 $491 $2 $-1 $496 reversed single #
plane-surface $-1 -350 0 25 0 0 -1 -1 0 0 forward_v I I I I #
straight-curve $-1 -400 37.5 25 0 0 -1 I I #
point $-1 -400 37.5 25 #
face $-1 $497 $288 $2 $-1 $498 reversed single #
loop $-1 $-1 $401 $267 #
plane-surface $-1 -400 187.5 25 0 -1 0 1 0 0 forward_v I I I I #
coedge $-1 $499 $500 $269 $379 forward $501 $-1 #
edge $-1 $502 0 $383 25 $269 $503 forward 7 unknown #
coedge $-1 $480 $270 $272 $385 reversed $382 $-1 #
coedge $-1 $270 $480 $499 $504 forward $382 $-1 #
loop $-1 $-1 $380 $505 #
vertex $-1 $379 $506 #
ellipse-curve $-1 -375 50 0 0 0 -1 0 12.5 0 1 I I #
edge $-1 $482 0 $274 25 $380 $507 forward 7 unknown #
face $-1 $176 $273 $2 $-1 $508 forward single #
point $-1 -375 37.5 0 #
coedge $-1 $311 $310 $277 $389 reversed $312 $-1 #
edge $-1 $433 0 $390 25 $277 $509 forward 7 unknown #
vertex $-1 $279 $510 #
ellipse-curve $-1 75 50 0 0 0 1 0 12.5 0 1 I I #
coedge $-1 $511 $512 $280 $393 reversed $461 $-1 #
edge $-1 $397 0 $513 37.5 $280 $514 forward 7 unknown #
coedge $-1 $515 $281 $287 $407 reversed $396 $-1 #
coedge $-1 $281 $515 $511 $516 forward $396 $-1 #
loop $-1 $-1 $394 $497 #
vertex $-1 $393 $517 #
straight-curve $-1 -400 212.5 0 1 0 0 I I #
coedge $-1 $490 $489 $283 $400 reversed $491 $-1 #
edge $-1 $502 0 $403 125 $283 $518 forward 7 unknown #
coedge $-1 $487 $284 $489 $519 reversed $376 $-1 #
coedge $-1 $284 $487 $286 $406 forward $376 $-1 #
vertex $-1 $285 $520 #
straight-curve $-1 -400 187.5 0 1 0 0 I I #
coedge $-1 $287 $286 $486 $521 forward $288 $-1 #
edge $-1 $522 0 $289 25 $402 $523 forward 7 unknown #
edge $-1 $524 0 $290 25 $287 $525 forward 7 unknown #
point $-1 -375 187.5 0 #
point $-1 -375 212.5 0 #
face $-1 $526 $527 $2 $-1 $528 forward single #
loop $-1 $-1 $529 $292 #
plane-surface $-1 -182 242 8 1 0 0 0 0 1 forward_v I I I I #
coedge $-1 $530 $531 $295 $416 forward $293 $-1 #
coedge $-1 $423 $295 $532 $533 forward $189 $-1 #
coedge $-1 $295 $422 $534 $535 forward $189 $-1 #
edge $-1 $536 0 $537 60 $295 $538 forward 7 unknown #
coedge $-1 $297 $296 $539 $540 reversed $117 $-1 #
coedge $-1 $541 $542 $296 $419 forward $441 $-1 #
edge $-1 $543 0 $425 190 $296 $544 forward 7 unknown #
coedge $-1 $454 $545 $297 $421 reversed $233 $-1 #
edge $-1 $546 0 $424 190 $297 $547 forward 7 unknown #
coedge $-1 $415 $298 $545 $548 forward $189 $-1 #
coedge $-1 $298 $414 $541 $549 reversed $189 $-1 #
vertex $-1 $421 $550 #
vertex $-1 $419 $551 #
straight-curve $-1 0 220 0 -1 0 0 I I #
straight-curve $-1 100 250 25 0 0 -1 I I #
edge $-1 $302 0 $513 500 $348 $552 forward 7 unknown #
point $-1 100 250 0 #
edge $-1 $433 0 $318 125 $306 $553 forward 7 unknown #
straight-curve $-1 100 187.5 0 -1 0 0 I I #
face $-1 $324 $312 $2 $-1 $554 reversed single #
vertex $-1 $389 $555 #
straight-curve $-1 100 62.5 25 0 0 -1 I I #
plane-surface $-1 100 0 25 1 0 0 0 0 -1 forward_v I I I I #
point $-1 100 187.5 0 #
straight-curve $-1 75 62.5 25 0 0 -1 I I #
cone-surface $-1 75 50 25 0 0 1 12.5 0 0 1 I I 0 1 12.5 forward I I I I #
coedge $-1 $556 $326 $329 $445 forward $441 $-1 #
coedge $-1 $326 $557 $350 $466 reversed $441 $-1 #
loop $-1 $558 $418 $559 #
straight-curve $-1 -300 0 25 0 0 1 I I #
coedge $-1 $560 $328 $561 $562 forward $330 $-1 #
coedge $-1 $329 $560 $563 $564 forward $330 $-1 #
edge $-1 $331 0 $565 8 $439 $566 forward 7 unknown #
face $-1 $567 $330 $2 $-1 $568 reversed single #
point $-1 -300 0 25 #
coedge $-1 $569 $333 $570 $571 forward $233 $-1 #
edge $-1 $572 0 $341 35 $349 $573 forward 7 unknown #
coedge $-1 $574 $561 $334 $451 reversed $575 $-1 #
edge $-1 $576 0 $452 17 $334 $577 forward 7 unknown #
vertex $-1 $335 $578 #
straight-curve $-1 0 0 25 0 1 0 I I #
coedge $-1 $336 $420 $579 $580 forward $233 $-1 #
coedge $-1 $581 $582 $336 $456 reversed $583 $-1 #
edge $-1 $584 0 $576 22 $336 $585 forward 7 unknown #
face $-1 $586 $583 $2 $-1 $587 reversed single #
plane-surface $-1 0 0 0 -1 0 0 0 0 1 forward_v I I I I #
straight-curve $-1 0 250 60 1 0 0 I I #
point $-1 0 250 60 #
loop $-1 $-1 $475 $346 #
plane-surface $-1 -400 0 25 1 0 0 0 0 -1 forward_v I I I I #
coedge $-1 $360 $348 $512 $588 reversed $247 $-1 #
coedge $-1 $349 $589 $590 $591 reversed $247 $-1 #
coedge $-1 $351 $350 $592 $593 forward $352 $-1 #
edge $-1 $353 0 $594 250 $440 $595 forward 7 unknown #
face $-1 $596 $352 $2 $-1 $597 reversed single #
point $-1 -300 0 60 #
coedge $-1 $592 $360 $355 $470 reversed $247 $-1 #
edge $-1 $471 0 $362 35 $469 $598 forward 7 unknown #
vertex $-1 $593 $599 #
straight-curve $-1 -350 0 60 0 1 0 I I #
plane-surface $-1 -350 0 60 1 0 0 0 0 -1 forward_v I I I I #
coedge $-1 $486 $359 $515 $600 forward $171 $-1 #
coedge $-1 $512 $511 $359 $476 forward $461 $-1 #
edge $-1 $601 0 $477 37.5 $359 $602 forward 7 unknown #
vertex $-1 $361 $603 #
straight-curve $-1 -350 250 25 -1 0 0 I I #
point $-1 -350 250 25 #
coedge $-1 $381 $380 $364 $481 reversed $382 $-1 #
edge $-1 $604 0 $482 3.1415926535897931 $364 $605 forward 7 unknown #
vertex $-1 $366 $606 #
straight-curve $-1 -400 37.5 25 1 0 0 I I #
coedge $-1 $500 $499 $367 $485 reversed $501 $-1 #
edge $-1 $492 0 $604 25 $367 $607 forward 7 unknown #
coedge $-1 $368 $474 $405 $521 reversed $171 $-1 #
coedge $-1 $402 $401 $368 $488 forward $376 $-1 #
edge $-1 $493 0 $522 25 $368 $608 forward 7 unknown #
coedge $-1 $399 $369 $401 $519 forward $491 $-1 #
coedge $-1 $369 $399 $500 $609 reversed $491 $-1 #
loop $-1 $-1 $399 $371 #
vertex $-1 $485 $610 #
vertex $-1 $488 $611 #
straight-curve $-1 -400 62.5 25 0 1 0 I I #
face $-1 $505 $501 $2 $-1 $612 forward single #
plane-surface $-1 -400 0 25 1 0 0 0 0 -1 forward_v I I I I #
face $-1 $357 $396 $2 $-1 $613 reversed single #
cone-surface $-1 -375 200 25 0 0 1 -12.5 0 0 1 I I 0 1 12.5 forward I I I I #
coedge $-1 $484 $378 $381 $504 reversed $501 $-1 #
coedge $-1 $378 $484 $490 $609 forward $501 $-1 #
loop $-1 $-1 $499 $495 #
vertex $-1 $400 $614 #
straight-curve $-1 -400 62.5 0 1 0 0 I I #
edge $-1 $604 0 $383 25 $499 $615 forward 7 unknown #
face $-1 $386 $382 $2 $-1 $616 reversed single #
point $-1 -375 62.5 0 #
straight-curve $-1 -375 37.5 25 0 0 -1 I I #
plane-surface $-1 -375 37.5 25 0 1 0 -1 0 0 forward_v I I I I #
straight-curve $-1 100 62.5 0 -1 0 0 I I #
point $-1 75 62.5 0 #
coedge $-1 $475 $392 $395 $516 reversed $461 $-1 #
coedge $-1 $392 $475 $463 $588 forward $461 $-1 #
vertex $-1 $588 $617 #
straight-curve $-1 -400 212.5 0 0 1 0 I I #
coedge $-1 $395 $394 $474 $600 reversed $396 $-1 #
edge $-1 $601 0 $397 25 $511 $618 forward 7 unknown #
point $-1 -400 212.5 0 #
straight-curve $-1 -400 62.5 0 0 1 0 I I #
edge $-1 $493 0 $403 25 $489 $619 forward 7 unknown #
point $-1 -400 187.5 0 #
edge $-1 $522 0 $524 3.1415926535897931 $486 $620 forward 7 unknown #
vertex $-1 $488 $621 #
straight-curve $-1 -375 187.5 25 0 0 -1 I I #
vertex $-1 $521 $622 #
straight-curve $-1 -375 212.5 25 0 0 -1 I I #
face $-1 $623 $624 $2 $-1 $625 forward single #
loop $-1 $-1 $626 $410 #
plane-surface $-1 -182 242 60 0 0 1 -1 0 0 forward_v I I I I #
coedge $-1 $627 $628 $629 $630 forward $411 $-1 #
coedge $-1 $631 $413 $632 $633 forward $293 $-1 #
coedge $-1 $413 $631 $634 $635 reversed $293 $-1 #
coedge $-1 $636 $637 $414 $533 reversed $638 $-1 #
edge $-1 $536 0 $639 58 $414 $640 forward 7 unknown #
coedge $-1 $641 $642 $415 $535 reversed $643 $-1 #
edge $-1 $644 0 $537 182 $415 $645 forward 7 unknown #
vertex $-1 $533 $646 #
vertex $-1 $535 $647 #
straight-curve $-1 -242 220 8 1 0 0 I I #
coedge $-1 $648 $579 $417 $540 forward $649 $-1 #
edge $-1 $546 0 $543 300 $417 $650 forward 7 unknown #
coedge $-1 $651 $418 $423 $549 forward $441 $-1 #
coedge $-1 $418 $652 $648 $653 reversed $441 $-1 #
vertex $-1 $540 $654 #
straight-curve $-1 -300 30 0 0 1 0 I I #
coedge $-1 $420 $655 $422 $548 reversed $233 $-1 #
vertex $-1 $421 $656 #
straight-curve $-1 0 30 0 0 1 0 I I #
edge $-1 $424 0 $644 8 $545 $657 forward 7 unknown #
edge $-1 $425 0 $639 8 $423 $658 forward 7 unknown #
point $-1 0 220 0 #
point $-1 -300 220 0 #
straight-curve $-1 100 250 0 -1 0 0 I I #
straight-curve $-1 100 62.5 0 0 1 0 I I #
plane-surface $-1 100 62.5 25 0 1 0 -1 0 0 forward_v I I I I #
point $-1 100 62.5 0 #
coedge $-1 $652 $439 $659 $660 reversed $441 $-1 #
coedge $-1 $440 $661 $589 $662 forward $441 $-1 #
loop $-1 $-1 $663 $559 #
face $-1 $664 $665 $2 $-1 $666 reversed single #
coedge $-1 $444 $443 $667 $668 forward $330 $-1 #
coedge $-1 $450 $669 $443 $562 reversed $575 $-1 #
edge $-1 $452 0 $670 182 $561 $671 forward 7 unknown #
coedge $-1 $672 $659 $444 $564 reversed $673 $-1 #
edge $-1 $674 0 $565 58 $563 $675 forward 7 unknown #
vertex $-1 $660 $676 #
straight-curve $-1 -300 0 25 0 1 0 I I #
face $-1 $677 $673 $2 $-1 $678 reversed single #
plane-surface $-1 0 8 25 0 0 -1 0 -1 0 forward_v I I I I #
coedge $-1 $655 $448 $679 $680 reversed $233 $-1 #
coedge $-1 $590 $681 $448 $571 reversed $682 $-1 #
edge $-1 $572 0 $683 8 $448 $684 forward 7 unknown #
vertex $-1 $591 $685 #
straight-curve $-1 0 250 25 0 0 1 I I #
coedge $-1 $669 $450 $582 $686 forward $575 $-1 #
loop $-1 $-1 $450 $586 #
vertex $-1 $451 $687 #
straight-curve $-1 0 8 8 0 0 1 I I #
point $-1 0 8 25 #
coedge $-1 $539 $688 $454 $580 reversed $649 $-1 #
edge $-1 $546 0 $584 8 $454 $689 forward 7 unknown #
coedge $-1 $690 $455 $688 $691 forward $583 $-1 #
coedge $-1 $455 $690 $574 $686 reversed $583 $-1 #
loop $-1 $-1 $582 $457 #
vertex $-1 $580 $692 #
straight-curve $-1 0 30 8 0 -1 0 I I #
face $-1 $446 $575 $2 $-1 $693 reversed single #
plane-surface $-1 0 30 8 0 0 -1 0 -1 0 forward_v I I I I #
edge $-1 $477 0 $513 25 $463 $694 forward 7 unknown #
coedge $-1 $464 $592 $557 $662 reversed $247 $-1 #
coedge $-1 $695 $570 $464 $591 forward $682 $-1 #
edge $-1 $572 0 $696 300 $464 $697 forward 7 unknown #
coedge $-1 $589 $469 $465 $593 reversed $247 $-1 #
edge $-1 $594 0 $471 50 $592 $698 forward 7 unknown #
vertex $-1 $662 $699 #
straight-curve $-1 -300 0 60 0 1 0 I I #
face $-1 $700 $701 $2 $-1 $702 reversed single #
plane-surface $-1 -300 0 60 0 0 -1 -1 0 0 forward_v I I I I #
straight-curve $-1 -350 250 60 0 0 -1 I I #
point $-1 -350 250 60 #
edge $-1 $601 0 $524 25 $474 $703 forward 7 unknown #
vertex $-1 $600 $704 #
straight-curve $-1 -400 212.5 25 0 1 0 I I #
point $-1 -400 250 25 #
vertex $-1 $481 $705 #
ellipse-curve $-1 -375 50 25 0 0 -1 0 12.5 0 1 I I #
point $-1 -375 37.5 25 #
straight-curve $-1 -400 62.5 25 1 0 0 I I #
straight-curve $-1 -400 187.5 25 1 0 0 I I #
edge $-1 $492 0 $502 25 $490 $706 forward 7 unknown #
point $-1 -400 62.5 25 #
point $-1 -400 187.5 25 #
plane-surface $-1 -400 62.5 25 0 -1 0 1 0 0 forward_v I I I I #
plane-surface $-1 -375 212.5 25 0 1 0 -1 0 0 forward_v I I I I #
point $-1 -400 62.5 0 #
straight-curve $-1 -375 62.5 25 0 0 -1 I I #
cone-surface $-1 -375 50 25 0 0 -1 -12.5 0 0 1 I I 0 1 12.5 forward I I I I #
point $-1 -400 250 0 #
straight-curve $-1 -400 212.5 25 0 0 -1 I I #
straight-curve $-1 -400 187.5 25 0 0 -1 I I #
ellipse-curve $-1 -375 200 25 0 0 1 0 -12.5 0 1 I I #
point $-1 -375 187.5 25 #
point $-1 -375 212.5 25 #
face $-1 $707 $708 $2 $-1 $709 forward single #
loop $-1 $710 $711 $526 #
plane-surface $-1 -242 242 60 -1 0 0 0 0 -1 forward_v I I I I #
coedge $-1 $712 $713 $714 $715 forward $527 $-1 #
coedge $-1 $716 $529 $717 $718 reversed $411 $-1 #
coedge $-1 $529 $719 $720 $721 forward $411 $-1 #
coedge $-1 $713 $712 $529 $630 reversed $527 $-1 #
edge $-1 $722 0 $723 234 $529 $724 forward 7 unknown #
coedge $-1 $531 $530 $725 $726 reversed $293 $-1 #
coedge $-1 $727 $728 $530 $633 reversed $411 $-1 #
edge $-1 $537 0 $729 190 $530 $730 forward 7 unknown #
coedge $-1 $731 $732 $531 $635 forward $733 $-1 #
edge $-1 $536 0 $734 190 $531 $735 forward 7 unknown #
coedge $-1 $736 $532 $732 $737 forward $638 $-1 #
coedge $-1 $532 $736 $651 $738 reversed $638 $-1 #
loop $-1 $-1 $736 $664 #
vertex $-1 $549 $739 #
straight-curve $-1 -242 220 8 -1 0 0 I I #
coedge $-1 $740 $534 $655 $741 forward $643 $-1 #
coedge $-1 $534 $740 $727 $742 reversed $643 $-1 #
loop $-1 $-1 $534 $743 #
vertex $-1 $548 $744 #
straight-curve $-1 0 220 8 -1 0 0 I I #
point $-1 -242 220 8 #
point $-1 -182 220 8 #
coedge $-1 $745 $539 $542 $653 forward $649 $-1 #
loop $-1 $-1 $579 $746 #
straight-curve $-1 0 30 0 -1 0 0 I I #
coedge $-1 $747 $541 $637 $738 forward $441 $-1 #
coedge $-1 $542 $556 $748 $749 reversed $441 $-1 #
edge $-1 $543 0 $750 8 $542 $751 forward 7 unknown #
point $-1 -300 30 0 #
coedge $-1 $545 $569 $641 $741 reversed $233 $-1 #
point $-1 0 30 0 #
straight-curve $-1 0 220 0 0 0 1 I I #
straight-curve $-1 -300 220 0 0 0 1 I I #
coedge $-1 $563 $752 $556 $660 forward $673 $-1 #
edge $-1 $753 0 $565 17 $556 $754 forward 7 unknown #
coedge $-1 $557 $747 $695 $755 forward $441 $-1 #
edge $-1 $696 0 $594 35 $589 $756 forward 7 unknown #
coedge $-1 $757 $757 $758 $759 forward $558 $-1 #
face $-1 $760 $638 $2 $-1 $761 forward single #
loop $-1 $441 $762 $559 #
plane-surface $-1 -300 0 0 -1 0 0 0 0 1 forward_v I I I I #
coedge $-1 $717 $763 $560 $668 reversed $764 $-1 #
edge $-1 $670 0 $674 60 $560 $765 forward 7 unknown #
coedge $-1 $561 $574 $716 $766 forward $575 $-1 #
vertex $-1 $562 $767 #
straight-curve $-1 0 8 25 -1 0 0 I I #
coedge $-1 $752 $563 $768 $769 reversed $673 $-1 #
loop $-1 $-1 $672 $567 #
vertex $-1 $564 $770 #
straight-curve $-1 -242 8 25 -1 0 0 I I #
point $-1 -300 8 25 #
face $-1 $746 $771 $2 $-1 $772 reversed single #
plane-surface $-1 0 8 8 0 -1 0 0 0 1 forward_v I I I I #
coedge $-1 $773 $774 $569 $680 forward $775 $-1 #
edge $-1 $776 0 $683 17 $569 $777 forward 7 unknown #
coedge $-1 $570 $778 $773 $779 reversed $682 $-1 #
loop $-1 $-1 $681 $780 #
vertex $-1 $680 $781 #
straight-curve $-1 0 250 25 0 -1 0 I I #
point $-1 0 250 25 #
edge $-1 $576 0 $782 182 $582 $783 forward 7 unknown #
point $-1 0 8 8 #
coedge $-1 $579 $725 $581 $691 reversed $649 $-1 #
straight-curve $-1 0 30 0 0 0 1 I I #
coedge $-1 $582 $581 $728 $784 forward $583 $-1 #
edge $-1 $584 0 $729 182 $688 $785 forward 7 unknown #
point $-1 0 30 8 #
plane-surface $-1 0 8 8 0 -1 0 0 0 1 forward_v I I I I #
straight-curve $-1 -400 250 25 0 0 -1 I I #
coedge $-1 $786 $590 $661 $755 reversed $682 $-1 #
vertex $-1 $591 $787 #
straight-curve $-1 0 250 25 -1 0 0 I I #
straight-curve $-1 -300 250 60 -1 0 0 I I #
point $-1 -300 250 60 #
face $-1 $788 $789 $2 $-1 $790 forward single #
loop $-1 $-1 $791 $596 #
plane-surface $-1 0 242 8 0 -1 0 1 0 0 forward_v I I I I #
straight-curve $-1 -400 212.5 25 1 0 0 I I #
point $-1 -400 212.5 25 #
point $-1 -375 62.5 25 #
straight-curve $-1 -400 62.5 25 0 0 -1 I I #
face $-1 $559 $792 $2 $-1 $793 forward single #
loop $-1 $-1 $794 $623 #
cone-surface $-1 -300 185 35 1 0 0 0 12.5 0 1 I I 0 1 12.5 forward I I I I #
loop $-1 $733 $795 $526 #
coedge $-1 $796 $796 $797 $798 forward $624 $-1 #
coedge $-1 $629 $626 $799 $800 reversed $527 $-1 #
coedge $-1 $626 $629 $801 $802 forward $527 $-1 #
coedge $-1 $803 $804 $626 $715 reversed $733 $-1 #
edge $-1 $805 0 $806 234 $626 $807 forward 7 unknown #
coedge $-1 $728 $627 $669 $766 reversed $411 $-1 #
coedge $-1 $799 $667 $627 $718 forward $764 $-1 #
edge $-1 $670 0 $723 35 $717 $808 forward 7 unknown #
coedge $-1 $628 $727 $809 $810 forward $411 $-1 #
coedge $-1 $811 $801 $628 $721 reversed $701 $-1 #
edge $-1 $812 0 $722 35 $720 $813 forward 7 unknown #
vertex $-1 $721 $814 #
vertex $-1 $800 $815 #
straight-curve $-1 -182 242 60 0 -1 0 I I #
coedge $-1 $688 $745 $631 $726 forward $649 $-1 #
edge $-1 $734 0 $729 60 $725 $816 forward 7 unknown #
coedge $-1 $719 $632 $642 $742 forward $411 $-1 #
coedge $-1 $632 $716 $690 $784 reversed $411 $-1 #
vertex $-1 $691 $817 #
straight-curve $-1 -182 220 8 0 -1 0 I I #
coedge $-1 $768 $634 $818 $819 forward $733 $-1 #
coedge $-1 $634 $820 $636 $737 reversed $733 $-1 #
loop $-1 $-1 $820 $526 #
vertex $-1 $726 $821 #
straight-curve $-1 -242 220 8 0 -1 0 I I #
coedge $-1 $637 $636 $822 $823 forward $638 $-1 #
edge $-1 $536 0 $824 22 $636 $825 forward 7 unknown #
edge $-1 $639 0 $826 22 $637 $827 forward 7 unknown #
point $-1 -300 220 8 #
coedge $-1 $642 $641 $774 $828 forward $643 $-1 #
edge $-1 $644 0 $776 22 $655 $829 forward 7 unknown #
edge $-1 $537 0 $830 22 $642 $831 forward 7 unknown #
face $-1 $337 $643 $2 $-1 $832 forward single #
point $-1 0 220 8 #
coedge $-1 $725 $648 $833 $834 reversed $649 $-1 #
face $-1 $835 $649 $2 $-1 $836 reversed single #
coedge $-1 $661 $651 $837 $838 forward $441 $-1 #
coedge $-1 $839 $833 $652 $749 forward $771 $-1 #
edge $-1 $750 0 $753 22 $652 $840 forward 7 unknown #
vertex $-1 $653 $841 #
straight-curve $-1 -300 30 0 0 0 1 I I #
coedge $-1 $659 $672 $839 $842 forward $673 $-1 #
vertex $-1 $749 $843 #
straight-curve $-1 -300 8 8 0 0 1 I I #
edge $-1 $844 0 $696 8 $695 $845 forward 7 unknown #
straight-curve $-1 -300 250 25 0 0 1 I I #
coedge $-1 $663 $663 $846 $847 forward $558 $-1 #
coedge $-1 $848 $849 $663 $759 reversed $789 $-1 #
edge $-1 $850 0 $851 3.1415926535897931 $663 $852 forward 7 unknown #
face $-1 $780 $853 $2 $-1 $854 forward single #
plane-surface $-1 0 220 8 0 0 1 0 1 0 forward_v I I I I #
coedge $-1 $855 $855 $856 $857 reversed $665 $-1 #
coedge $-1 $667 $799 $804 $858 forward $764 $-1 #
loop $-1 $-1 $717 $835 #
straight-curve $-1 -182 8 25 -1 0 0 I I #
edge $-1 $782 0 $670 17 $669 $859 forward 7 unknown #
point $-1 -182 8 25 #
coedge $-1 $804 $731 $672 $769 forward $733 $-1 #
edge $-1 $860 0 $674 17 $672 $861 forward 7 unknown #
point $-1 -242 8 25 #
loop $-1 $-1 $833 $677 #
plane-surface $-1 0 30 8 0 0 -1 0 -1 0 forward_v I I I I #
coedge $-1 $809 $679 $681 $779 forward $775 $-1 #
coedge $-1 $679 $809 $740 $828 reversed $775 $-1 #
loop $-1 $-1 $809 $862 #
vertex $-1 $741 $863 #
straight-curve $-1 0 242 8 0 0 1 I I #
coedge $-1 $681 $786 $811 $864 forward $682 $-1 #
edge $-1 $683 0 $812 182 $773 $865 forward 7 unknown #
face $-1 $862 $682 $2 $-1 $866 forward single #
point $-1 0 242 25 #
vertex $-1 $784 $867 #
straight-curve $-1 0 8 8 -1 0 0 I I #
edge $-1 $729 0 $782 22 $690 $868 forward 7 unknown #
straight-curve $-1 0 30 8 -1 0 0 I I #
coedge $-1 $778 $695 $869 $870 reversed $682 $-1 #
point $-1 -300 250 25 #
face $-1 $215 $871 $2 $-1 $872 forward single #
loop $-1 $-1 $849 $700 #
cone-surface $-1 -300 65 35 -1 0 0 0 -12.5 0 1 I I 0 1 12.5 forward I I I I #
coedge $-1 $801 $811 $803 $873 reversed $701 $-1 #
loop $-1 $-1 $874 $707 #
cone-surface $-1 -300 185 35 1 0 0 0 12.5 0 1 I I 0 1 12.5 forward I I I I #
coedge $-1 $856 $797 $875 $876 reversed $708 $-1 #
coedge $-1 $877 $877 $878 $879 reversed $710 $-1 #
coedge $-1 $711 $711 $880 $881 forward $624 $-1 #
coedge $-1 $794 $882 $711 $798 reversed $708 $-1 #
edge $-1 $883 0 $884 3.1415926535897931 $797 $885 forward 7 unknown #
coedge $-1 $763 $717 $712 $800 forward $764 $-1 #
edge $-1 $723 0 $806 60 $799 $886 forward 7 unknown #
coedge $-1 $720 $791 $713 $802 reversed $701 $-1 #
edge $-1 $722 0 $805 60 $801 $887 forward 7 unknown #
coedge $-1 $820 $714 $791 $873 forward $733 $-1 #
coedge $-1 $714 $768 $763 $858 reversed $733 $-1 #
vertex $-1 $802 $888 #
vertex $-1 $858 $889 #
straight-curve $-1 -242 242 60 0 -1 0 I I #
straight-curve $-1 -182 8 25 0 0 1 I I #
coedge $-1 $774 $773 $719 $810 reversed $775 $-1 #
edge $-1 $830 0 $812 17 $809 $890 forward 7 unknown #
coedge $-1 $791 $720 $778 $864 reversed $701 $-1 #
vertex $-1 $779 $891 #
straight-curve $-1 -182 242 25 0 0 1 I I #
point $-1 -182 242 60 #
point $-1 -182 8 60 #
straight-curve $-1 -242 30 8 1 0 0 I I #
point $-1 -182 30 8 #
coedge $-1 $833 $839 $731 $819 reversed $771 $-1 #
edge $-1 $734 0 $860 22 $818 $892 forward 7 unknown #
coedge $-1 $732 $803 $893 $894 reversed $733 $-1 #
point $-1 -242 30 8 #
coedge $-1 $893 $837 $736 $823 reversed $853 $-1 #
edge $-1 $824 0 $826 58 $736 $895 forward 7 unknown #
vertex $-1 $737 $896 #
straight-curve $-1 -242 220 8 0 1 0 I I #
vertex $-1 $738 $897 #
straight-curve $-1 -300 220 8 0 1 0 I I #
edge $-1 $776 0 $830 182 $740 $898 forward 7 unknown #
straight-curve $-1 0 220 8 0 1 0 I I #
vertex $-1 $742 $899 #
straight-curve $-1 -182 220 8 0 1 0 I I #
plane-surface $-1 0 220 8 0 0 1 0 1 0 forward_v I I I I #
coedge $-1 $748 $818 $745 $834 forward $771 $-1 #
edge $-1 $734 0 $750 58 $745 $900 forward 7 unknown #
face $-1 $238 $764 $2 $-1 $901 forward single #
plane-surface $-1 0 30 0 0 -1 0 0 0 1 forward_v I I I I #
coedge $-1 $822 $869 $747 $838 reversed $853 $-1 #
edge $-1 $826 0 $844 17 $837 $902 forward 7 unknown #
coedge $-1 $818 $748 $752 $842 reversed $771 $-1 #
straight-curve $-1 -300 30 8 0 -1 0 I I #
point $-1 -300 30 8 #
edge $-1 $860 0 $753 58 $839 $903 forward 7 unknown #
point $-1 -300 8 8 #
vertex $-1 $870 $904 #
straight-curve $-1 -300 242 25 0 1 0 I I #
coedge $-1 $905 $906 $757 $847 reversed $871 $-1 #
edge $-1 $851 0 $850 3.1415926535897931 $757 $907 forward 7 unknown #
coedge $-1 $878 $758 $906 $908 forward $789 $-1 #
coedge $-1 $758 $878 $905 $909 reversed $789 $-1 #
vertex $-1 $847 $910 #
vertex $-1 $847 $911 #
ellipse-curve $-1 -300 65 35 -1 0 0 0 12.5 0 1 I I #
loop $-1 $-1 $837 $760 #
plane-surface $-1 0 242 8 0 -1 0 0 0 1 forward_v I I I I #
coedge $-1 $762 $762 $912 $913 reversed $665 $-1 #
coedge $-1 $882 $794 $762 $857 forward $708 $-1 #
edge $-1 $914 0 $915 3.1415926535897931 $762 $916 forward 7 unknown #
edge $-1 $806 0 $674 35 $763 $917 forward 7 unknown #
straight-curve $-1 -182 8 8 0 0 1 I I #
vertex $-1 $819 $918 #
straight-curve $-1 -242 8 8 0 0 1 I I #
face $-1 $743 $775 $2 $-1 $919 forward single #
point $-1 0 242 8 #
edge $-1 $920 0 $812 60 $778 $921 forward 7 unknown #
straight-curve $-1 0 242 25 -1 0 0 I I #
plane-surface $-1 0 242 25 0 0 1 0 1 0 forward_v I I I I #
point $-1 -182 8 8 #
straight-curve $-1 -182 30 8 0 -1 0 I I #
coedge $-1 $837 $893 $786 $870 forward $853 $-1 #
edge $-1 $920 0 $844 58 $869 $922 forward 7 unknown #
loop $-1 $-1 $906 $788 #
cone-surface $-1 -300 65 35 -1 0 0 0 -12.5 0 1 I I 0 1 12.5 forward I I I I #
edge $-1 $805 0 $920 35 $791 $923 forward 7 unknown #
coedge $-1 $912 $880 $882 $924 reversed $792 $-1 #
coedge $-1 $880 $912 $794 $876 forward $792 $-1 #
edge $-1 $914 0 $883 58 $875 $925 forward 7 unknown #
coedge $-1 $795 $795 $926 $927 reversed $710 $-1 #
coedge $-1 $849 $848 $795 $879 forward $789 $-1 #
edge $-1 $928 0 $929 3.1415926535897931 $878 $930 forward 7 unknown #
coedge $-1 $874 $875 $796 $881 reversed $792 $-1 #
edge $-1 $884 0 $883 3.1415926535897931 $880 $931 forward 7 unknown #
coedge $-1 $797 $856 $874 $924 forward $708 $-1 #
vertex $-1 $881 $932 #
vertex $-1 $881 $933 #
ellipse-curve $-1 -242 185 35 1 0 0 0 -12.5 0 1 I I #
straight-curve $-1 -182 8 60 -1 0 0 I I #
straight-curve $-1 -182 242 60 -1 0 0 I I #
point $-1 -242 242 60 #
point $-1 -242 8 60 #
straight-curve $-1 -182 242 8 0 0 1 I I #
point $-1 -182 242 25 #
straight-curve $-1 -242 30 8 0 -1 0 I I #
coedge $-1 $869 $822 $820 $894 forward $853 $-1 #
edge $-1 $824 0 $920 17 $893 $934 forward 7 unknown #
straight-curve $-1 -242 242 8 -1 0 0 I I #
point $-1 -242 242 8 #
point $-1 -300 242 8 #
straight-curve $-1 0 242 8 -1 0 0 I I #
point $-1 -182 242 8 #
straight-curve $-1 -242 30 8 -1 0 0 I I #
plane-surface $-1 0 8 8 0 -1 0 0 0 1 forward_v I I I I #
straight-curve $-1 -300 242 8 0 0 1 I I #
straight-curve $-1 -242 8 8 -1 0 0 I I #
point $-1 -300 242 25 #
coedge $-1 $926 $846 $849 $909 forward $871 $-1 #
coedge $-1 $846 $926 $848 $908 reversed $871 $-1 #
ellipse-curve $-1 -300 65 35 -1 0 0 0 -12.5 0 1 I I #
edge $-1 $850 0 $928 58 $906 $935 forward 7 unknown #
edge $-1 $851 0 $929 58 $905 $936 forward 7 unknown #
point $-1 -300 77.5 35 #
point $-1 -300 52.5 35 #
coedge $-1 $875 $874 $855 $913 forward $792 $-1 #
edge $-1 $915 0 $914 3.1415926535897931 $855 $937 forward 7 unknown #
vertex $-1 $913 $938 #
vertex $-1 $913 $939 #
ellipse-curve $-1 -300 185 35 1 0 0 0 -12.5 0 1 I I #
straight-curve $-1 -242 8 60 0 0 -1 I I #
point $-1 -242 8 8 #
plane-surface $-1 0 242 8 0 -1 0 0 0 1 forward_v I I I I #
vertex $-1 $870 $940 #
straight-curve $-1 -242 242 25 1 0 0 I I #
straight-curve $-1 -242 242 25 -1 0 0 I I #
straight-curve $-1 -242 242 60 0 0 -1 I I #
edge $-1 $915 0 $884 58 $874 $941 forward 7 unknown #
straight-curve $-1 -300 172.5 35 1 0 0 I I #
coedge $-1 $906 $905 $877 $927 forward $871 $-1 #
edge $-1 $929 0 $928 3.1415926535897931 $926 $942 forward 7 unknown #
vertex $-1 $927 $943 #
vertex $-1 $927 $944 #
ellipse-curve $-1 -242 65 35 -1 0 0 0 12.5 0 1 I I #
ellipse-curve $-1 -242 185 35 1 0 0 0 12.5 0 1 I I #
point $-1 -242 172.5 35 #
point $-1 -242 197.5 35 #
straight-curve $-1 -242 242 8 0 0 1 I I #
straight-curve $-1 -300 77.5 35 1 0 0 I I #
straight-curve $-1 -300 52.5 35 1 0 0 I I #
ellipse-curve $-1 -300 185 35 1 0 0 0 12.5 0 1 I I #
point $-1 -300 172.5 35 #
point $-1 -300 197.5 35 #
point $-1 -242 242 25 #
straight-curve $-1 -300 197.5 35 1 0 0 I I #
ellipse-curve $-1 -242 65 35 -1 0 0 0 -12.5 0 1 I I #
point $-1 -242 77.5 35 #
point $-1 -242 52.5 35 #
End-of-ACIS-data 