700 0 2 0           
24 FBMach with ACIS - 7.0.3 13 ACIS 7.0.3 NT 24 Tue May 14 09:56:57 2002 
1 9.9999999999999995e-007 1e-010 
body $2 -1 $-1 $3 $-1 $4 #
bdycol-kcp $-1 -1 1 4 $5 $6 $7 $8 #
model_id-kcp-attrib $-1 -1 $-1 $-1 $0 1 1021384616 1021384616 1351417857 1 #
lump $-1 -1 $-1 $-1 $9 $0 #
transform $-1 -1 1 0 0 0 1 0 0 0 1 0 0 0 1 rotate no_reflect no_shear #
body $10 -1 $-1 $11 $-1 $12 #
body $13 -1 $-1 $14 $-1 $15 #
body $16 -1 $-1 $17 $-1 $18 #
body $19 -1 $-1 $20 $-1 $21 #
shell $-1 -1 $-1 $-1 $-1 $22 $-1 $3 #
rgb_color-st-attrib $-1 -1 $23 $-1 $5 0.5 1 1 #
lump $-1 -1 $-1 $-1 $24 $5 #
transform $-1 -1 1 0 0 0 1 0 0 0 1 0 0 0 1 no_rotate no_reflect no_shear #
model_id-kcp-attrib $-1 -1 $-1 $-1 $6 1 1021384616 1021384616 1351417858 1 #
lump $-1 -1 $-1 $-1 $25 $6 #
transform $-1 -1 1 0 0 0 1 0 0 0 1 0 0 0 1 no_rotate no_reflect no_shear #
rgb_color-st-attrib $-1 -1 $26 $-1 $7 1 0 0 #
lump $-1 -1 $-1 $-1 $27 $7 #
transform $-1 -1 1 0 0 0 1 0 0 0 1 0 0 0 1 no_rotate no_reflect no_shear #
rgb_color-st-attrib $-1 -1 $28 $-1 $8 1 0 0 #
lump $-1 -1 $-1 $-1 $29 $8 #
transform $-1 -1 1 0 0 0 1 0 0 0 1 0 0 0 1 no_rotate no_reflect no_shear #
face $30 -1 $-1 $31 $32 $9 $-1 $33 forward single #
model_id-kcp-attrib $-1 -1 $-1 $10 $5 1 1021384616 1021384616 1344471043 1 #
shell $-1 -1 $-1 $-1 $-1 $34 $-1 $11 #
shell $-1 -1 $-1 $-1 $-1 $35 $-1 $14 #
model_id-kcp-attrib $-1 -1 $-1 $16 $7 1 1021384616 1021384617 1343029252 1 #
shell $-1 -1 $-1 $-1 $-1 $36 $-1 $17 #
model_id-kcp-attrib $-1 -1 $-1 $19 $8 1 1021384616 1021384617 1351548933 1 #
shell $-1 -1 $-1 $-1 $-1 $37 $-1 $20 #
model_id-kcp-attrib $-1 -1 $-1 $-1 $22 1 1021384616 1021384616 1351417857 2 #
face $38 -1 $-1 $39 $40 $9 $-1 $41 forward single #
loop $-1 -1 $-1 $-1 $42 $22 #
plane-surface $-1 -1 $-1 0 0 20 0 0 1 1 0 0 forward_v I I I I #
face $-1 -1 $-1 $43 $44 $24 $-1 $45 forward single #
face $46 -1 $-1 $47 $48 $25 $-1 $49 forward single #
face $-1 -1 $-1 $50 $51 $27 $-1 $52 forward single #
face $-1 -1 $-1 $53 $54 $29 $-1 $55 forward single #
model_id-kcp-attrib $-1 -1 $-1 $-1 $31 1 1021384616 1021384616 1351417857 3 #
face $56 -1 $-1 $57 $58 $9 $-1 $41 forward single #
loop $-1 -1 $-1 $-1 $59 $31 #
plane-surface $-1 -1 $-1 0 10 10 0 -1 0 0 0 -1 forward_v I I I I #
coedge $-1 -1 $-1 $60 $61 $62 $63 forward $32 $-1 #
face $-1 -1 $-1 $64 $65 $24 $-1 $66 forward single #
loop $-1 -1 $-1 $-1 $67 $34 #
plane-surface $-1 -1 $-1 -20 -20 -20 -1 0 0 0 0 1 forward_v I I I I #
model_id-kcp-attrib $-1 -1 $-1 $-1 $35 1 1021384616 1021384616 1351417858 2 #
face $68 -1 $-1 $69 $70 $25 $-1 $71 reversed single #
loop $-1 -1 $-1 $-1 $72 $35 #
plane-surface $-1 -1 $-1 0 0 20 0 0 1 1 0 0 forward_v I I I I #
face $-1 -1 $-1 $73 $74 $27 $-1 $75 forward single #
loop $-1 -1 $-1 $-1 $76 $36 #
plane-surface $-1 -1 $-1 -20 10 0 1 0 0 0 0 -1 forward_v I I I I #
face $-1 -1 $-1 $77 $78 $29 $-1 $79 forward single #
loop $-1 -1 $-1 $-1 $80 $37 #
plane-surface $-1 -1 $-1 20 -10 0 -1 0 0 0 0 1 forward_v I I I I #
model_id-kcp-attrib $-1 -1 $-1 $-1 $39 1 1021384616 1021384616 1351417857 4 #
face $81 -1 $-1 $82 $83 $9 $-1 $84 forward single #
loop $-1 -1 $-1 $-1 $85 $39 #
coedge $-1 -1 $-1 $86 $87 $88 $89 reversed $40 $-1 #
coedge $-1 -1 $-1 $90 $42 $91 $92 forward $32 $-1 #
coedge $-1 -1 $-1 $42 $93 $94 $95 forward $32 $-1 #
coedge $-1 -1 $-1 $96 $97 $42 $63 reversed $98 $-1 #
edge $99 -1 $-1 $100 20 $101 40 $42 $102 forward @7 unknown #
face $-1 -1 $-1 $103 $104 $24 $-1 $105 forward single #
loop $-1 -1 $-1 $-1 $106 $43 #
plane-surface $-1 -1 $-1 -20 20 -20 0 1 0 0 0 1 forward_v I I I I #
coedge $-1 -1 $-1 $107 $108 $109 $110 forward $44 $-1 #
model_id-kcp-attrib $-1 -1 $-1 $-1 $47 1 1021384616 1021384616 1351417858 4 #
face $111 -1 $-1 $112 $113 $25 $-1 $114 reversed single #
loop $-1 -1 $-1 $-1 $115 $47 #
plane-surface $-1 -1 $-1 0 0 -20 0 0 1 1 0 0 forward_v I I I I #
coedge $-1 -1 $-1 $116 $117 $118 $119 forward $48 $-1 #
face $-1 -1 $-1 $120 $121 $27 $-1 $122 forward single #
loop $-1 -1 $-1 $-1 $123 $50 #
plane-surface $-1 -1 $-1 -20 -10 0 0 -1 0 0 0 -1 forward_v I I I I #
coedge $-1 -1 $-1 $124 $125 $126 $127 forward $51 $-1 #
face $-1 -1 $-1 $128 $129 $29 $-1 $130 forward single #
loop $-1 -1 $-1 $-1 $131 $53 #
plane-surface $-1 -1 $-1 20 10 0 0 1 0 0 0 1 forward_v I I I I #
coedge $-1 -1 $-1 $132 $133 $134 $135 forward $54 $-1 #
model_id-kcp-attrib $-1 -1 $-1 $-1 $57 1 1021384616 1021384616 1351417857 5 #
face $136 -1 $-1 $137 $138 $9 $-1 $139 forward single #
loop $-1 -1 $-1 $-1 $140 $57 #
plane-surface $-1 -1 $-1 0 -10 10 0 1 0 0 0 1 forward_v I I I I #
coedge $-1 -1 $-1 $141 $142 $143 $144 reversed $58 $-1 #
coedge $-1 -1 $-1 $145 $59 $146 $147 reversed $40 $-1 #
coedge $-1 -1 $-1 $59 $145 $148 $149 reversed $40 $-1 #
coedge $-1 -1 $-1 $150 $151 $59 $89 forward $152 $-1 #
edge $-1 -1 $-1 $153 -5 $154 15 $88 $155 forward @7 unknown #
coedge $-1 -1 $-1 $156 $60 $157 $158 forward $32 $-1 #
coedge $-1 -1 $-1 $159 $160 $60 $92 reversed $161 $-1 #
edge $162 -1 $-1 $101 10 $163 40 $91 $164 forward @7 unknown #
coedge $-1 -1 $-1 $61 $165 $166 $167 forward $32 $-1 #
coedge $-1 -1 $-1 $168 $169 $61 $95 reversed $170 $-1 #
edge $171 -1 $-1 $172 -20 $100 -10 $61 $173 forward @7 unknown #
coedge $-1 -1 $-1 $174 $62 $169 $175 reversed $98 $-1 #
coedge $-1 -1 $-1 $62 $174 $159 $176 reversed $98 $-1 #
loop $-1 -1 $-1 $-1 $96 $177 #
attrib_edge_convexity-kcp-attrib $-1 -1 $178 $-1 $63 1 #
vertex $-1 -1 $-1 $95 $179 #
vertex $-1 -1 $-1 $176 $180 #
straight-curve $-1 -1 $-1 0 -10 20 -1 0 0 I I #
face $-1 -1 $-1 $181 $182 $24 $-1 $183 forward single #
loop $-1 -1 $-1 $-1 $184 $64 #
plane-surface $-1 -1 $-1 20 20 -20 1 0 0 0 0 -1 forward_v I I I I #
coedge $-1 -1 $-1 $185 $186 $187 $188 forward $65 $-1 #
coedge $-1 -1 $-1 $189 $67 $186 $190 reversed $44 $-1 #
coedge $-1 -1 $-1 $67 $189 $191 $192 forward $44 $-1 #
coedge $-1 -1 $-1 $193 $187 $67 $110 reversed $194 $-1 #
edge $-1 -1 $-1 $195 -20 $196 20 $67 $197 forward @7 unknown #
model_id-kcp-attrib $-1 -1 $-1 $-1 $69 1 1021384616 1021384616 1351417858 5 #
face $198 -1 $-1 $199 $200 $25 $-1 $201 reversed single #
loop $-1 -1 $-1 $-1 $202 $69 #
plane-surface $-1 -1 $-1 0 -40 0 0 1 0 0 0 1 forward_v I I I I #
coedge $-1 -1 $-1 $203 $204 $205 $206 forward $70 $-1 #
coedge $-1 -1 $-1 $207 $72 $208 $209 forward $48 $-1 #
coedge $-1 -1 $-1 $72 $207 $210 $211 forward $48 $-1 #
coedge $-1 -1 $-1 $212 $213 $72 $119 reversed $214 $-1 #
edge $-1 -1 $-1 $215 -40 $216 40 $118 $217 forward @7 unknown #
face $-1 -1 $-1 $218 $219 $27 $-1 $220 forward single #
loop $-1 -1 $-1 $-1 $221 $73 #
plane-surface $-1 -1 $-1 -40 -10 0 -1 0 0 0 0 1 forward_v I I I I #
coedge $-1 -1 $-1 $222 $223 $224 $225 forward $74 $-1 #
coedge $-1 -1 $-1 $226 $76 $223 $227 reversed $51 $-1 #
coedge $-1 -1 $-1 $76 $226 $228 $229 forward $51 $-1 #
coedge $-1 -1 $-1 $230 $224 $76 $127 reversed $231 $-1 #
edge $-1 -1 $-1 $232 -20 $233 0 $76 $234 forward @7 unknown #
face $-1 -1 $-1 $235 $236 $29 $-1 $237 forward single #
loop $-1 -1 $-1 $-1 $238 $77 #
plane-surface $-1 -1 $-1 40 10 0 1 0 0 0 0 -1 forward_v I I I I #
coedge $-1 -1 $-1 $239 $240 $241 $242 forward $78 $-1 #
coedge $-1 -1 $-1 $243 $80 $240 $244 reversed $54 $-1 #
coedge $-1 -1 $-1 $80 $243 $245 $246 forward $54 $-1 #
coedge $-1 -1 $-1 $247 $241 $80 $135 reversed $248 $-1 #
edge $-1 -1 $-1 $249 -20 $250 0 $80 $251 forward @7 unknown #
model_id-kcp-attrib $-1 -1 $-1 $-1 $82 1 1021384616 1021384616 1351417857 6 #
face $252 -1 $-1 $177 $253 $9 $-1 $139 forward single #
loop $-1 -1 $-1 $-1 $254 $82 #
plane-surface $-1 -1 $-1 0 0 0 0 0 1 1 0 0 forward_v I I I I #
coedge $-1 -1 $-1 $255 $256 $257 $258 reversed $83 $-1 #
coedge $-1 -1 $-1 $259 $85 $260 $261 reversed $58 $-1 #
coedge $-1 -1 $-1 $85 $259 $262 $263 reversed $58 $-1 #
coedge $-1 -1 $-1 $264 $265 $85 $144 forward $170 $-1 #
edge $-1 -1 $-1 $266 -15 $267 5 $143 $268 forward @7 unknown #
coedge $-1 -1 $-1 $87 $86 $269 $270 reversed $40 $-1 #
coedge $-1 -1 $-1 $254 $271 $86 $147 forward $138 $-1 #
edge $272 -1 $-1 $273 -40 $153 -20 $86 $274 reversed @7 unknown #
coedge $-1 -1 $-1 $275 $276 $87 $149 forward $277 $-1 #
edge $-1 -1 $-1 $154 20 $278 40 $148 $279 forward @7 unknown #
coedge $-1 -1 $-1 $280 $88 $276 $281 reversed $152 $-1 #
coedge $-1 -1 $-1 $88 $257 $254 $282 forward $152 $-1 #
loop $-1 -1 $-1 $-1 $88 $283 #
vertex $-1 -1 $-1 $282 $284 #
vertex $-1 -1 $-1 $281 $285 #
straight-curve $-1 -1 $-1 20 10 5 0 0 1 I I #
coedge $-1 -1 $-1 $286 $90 $287 $288 forward $32 $-1 #
coedge $-1 -1 $-1 $289 $290 $90 $158 reversed $291 $-1 #
edge $292 -1 $-1 $163 -40 $293 40 $157 $294 forward @7 unknown #
coedge $-1 -1 $-1 $295 $91 $97 $176 forward $161 $-1 #
coedge $-1 -1 $-1 $91 $296 $289 $297 reversed $161 $-1 #
loop $-1 -1 $-1 $-1 $298 $299 #
attrib_edge_convexity-kcp-attrib $-1 -1 $300 $-1 $92 1 #
vertex $-1 -1 $-1 $92 $301 #
straight-curve $-1 -1 $-1 -40 0 20 0 -1 0 I I #
coedge $-1 -1 $-1 $93 $286 $302 $303 forward $32 $-1 #
coedge $-1 -1 $-1 $304 $305 $93 $167 reversed $306 $-1 #
edge $307 -1 $-1 $308 -20 $172 20 $93 $309 forward @7 unknown #
coedge $-1 -1 $-1 $310 $94 $305 $311 forward $170 $-1 #
coedge $-1 -1 $-1 $94 $264 $96 $175 forward $170 $-1 #
loop $-1 -1 $-1 $-1 $169 $312 #
attrib_edge_convexity-kcp-attrib $-1 -1 $313 $-1 $95 1 #
vertex $-1 -1 $-1 $167 $314 #
straight-curve $-1 -1 $-1 -20 0 20 0 1 0 I I #
coedge $-1 -1 $-1 $97 $96 $315 $316 reversed $98 $-1 #
edge $-1 -1 $-1 $317 -5 $100 15 $169 $318 forward @7 unknown #
edge $319 -1 $-1 $101 -15 $320 5 $159 $321 forward @7 unknown #
face $322 -1 $-1 $323 $98 $9 $-1 $84 forward single #
convexity-sys-attrib $-1 -1 $-1 $99 $63 #
point $-1 -1 $-1 -20 -10 20 #
point $-1 -1 $-1 -40 -10 20 #
face $-1 -1 $-1 $324 $194 $24 $-1 $325 forward single #
loop $-1 -1 $-1 $-1 $326 $103 #
plane-surface $-1 -1 $-1 20 -20 -20 0 -1 0 0 0 -1 forward_v I I I I #
coedge $-1 -1 $-1 $327 $328 $329 $330 forward $104 $-1 #
coedge $-1 -1 $-1 $331 $106 $328 $332 reversed $65 $-1 #
coedge $-1 -1 $-1 $106 $331 $107 $190 forward $65 $-1 #
coedge $-1 -1 $-1 $109 $329 $106 $188 reversed $194 $-1 #
edge $-1 -1 $-1 $196 -20 $333 20 $106 $334 forward @7 unknown #
coedge $-1 -1 $-1 $108 $107 $335 $336 forward $44 $-1 #
edge $-1 -1 $-1 $337 0 $196 40 $186 $338 forward @7 unknown #
coedge $-1 -1 $-1 $339 $326 $108 $192 reversed $182 $-1 #
edge $-1 -1 $-1 $340 0 $195 40 $108 $341 forward @7 unknown #
coedge $-1 -1 $-1 $329 $109 $326 $342 reversed $194 $-1 #
loop $-1 -1 $-1 $-1 $109 $181 #
vertex $-1 -1 $-1 $192 $343 #
vertex $-1 -1 $-1 $190 $344 #
straight-curve $-1 -1 $-1 -20 0 20 0 1 0 I I #
model_id-kcp-attrib $-1 -1 $-1 $-1 $112 1 1021384616 1021384616 1351417858 6 #
face $345 -1 $-1 $346 $347 $25 $-1 $348 reversed single #
loop $-1 -1 $-1 $-1 $349 $112 #
plane-surface $-1 -1 $-1 -40 0 0 1 0 0 0 0 -1 forward_v I I I I #
coedge $-1 -1 $-1 $350 $210 $351 $352 forward $113 $-1 #
coedge $-1 -1 $-1 $353 $115 $350 $354 forward $70 $-1 #
coedge $-1 -1 $-1 $115 $353 $355 $356 forward $70 $-1 #
coedge $-1 -1 $-1 $213 $212 $115 $206 reversed $214 $-1 #
edge $-1 -1 $-1 $357 -40 $358 40 $205 $359 forward @7 unknown #
coedge $-1 -1 $-1 $117 $116 $360 $361 forward $48 $-1 #
coedge $-1 -1 $-1 $362 $363 $116 $209 reversed $347 $-1 #
edge $-1 -1 $-1 $216 -40 $364 40 $208 $365 forward @7 unknown #
coedge $-1 -1 $-1 $202 $366 $117 $211 reversed $113 $-1 #
edge $-1 -1 $-1 $367 -40 $215 40 $210 $368 forward @7 unknown #
coedge $-1 -1 $-1 $205 $118 $366 $369 forward $214 $-1 #
coedge $-1 -1 $-1 $118 $205 $362 $370 reversed $214 $-1 #
loop $-1 -1 $-1 $-1 $212 $346 #
vertex $-1 -1 $-1 $119 $371 #
vertex $-1 -1 $-1 $119 $372 #
straight-curve $-1 -1 $-1 40 0 20 0 1 0 I I #
face $-1 -1 $-1 $373 $231 $27 $-1 $374 forward single #
loop $-1 -1 $-1 $-1 $375 $120 #
plane-surface $-1 -1 $-1 -40 10 0 0 1 0 0 0 1 forward_v I I I I #
coedge $-1 -1 $-1 $376 $377 $378 $379 forward $121 $-1 #
coedge $-1 -1 $-1 $380 $123 $377 $381 reversed $74 $-1 #
coedge $-1 -1 $-1 $123 $380 $124 $227 forward $74 $-1 #
coedge $-1 -1 $-1 $126 $378 $123 $225 reversed $231 $-1 #
edge $-1 -1 $-1 $233 5 $382 25 $123 $383 forward @7 unknown #
coedge $-1 -1 $-1 $125 $124 $384 $385 reversed $51 $-1 #
edge $-1 -1 $-1 $386 0 $233 20 $223 $387 forward @7 unknown #
coedge $-1 -1 $-1 $388 $375 $125 $229 reversed $219 $-1 #
edge $-1 -1 $-1 $389 0 $232 20 $125 $390 forward @7 unknown #
coedge $-1 -1 $-1 $378 $126 $375 $391 reversed $231 $-1 #
loop $-1 -1 $-1 $-1 $126 $218 #
vertex $-1 -1 $-1 $229 $392 #
vertex $-1 -1 $-1 $227 $393 #
straight-curve $-1 -1 $-1 -20 -10 20 0 -1 0 I I #
face $-1 -1 $-1 $394 $248 $29 $-1 $395 forward single #
loop $-1 -1 $-1 $-1 $396 $128 #
plane-surface $-1 -1 $-1 40 -10 0 0 -1 0 0 0 -1 forward_v I I I I #
coedge $-1 -1 $-1 $397 $398 $399 $400 forward $129 $-1 #
coedge $-1 -1 $-1 $401 $131 $398 $402 reversed $78 $-1 #
coedge $-1 -1 $-1 $131 $401 $132 $244 forward $78 $-1 #
coedge $-1 -1 $-1 $134 $399 $131 $242 reversed $248 $-1 #
edge $-1 -1 $-1 $250 5 $403 25 $131 $404 forward @7 unknown #
coedge $-1 -1 $-1 $133 $132 $405 $406 reversed $54 $-1 #
edge $-1 -1 $-1 $407 0 $250 20 $240 $408 forward @7 unknown #
coedge $-1 -1 $-1 $409 $396 $133 $246 reversed $236 $-1 #
edge $-1 -1 $-1 $410 0 $249 20 $133 $411 forward @7 unknown #
coedge $-1 -1 $-1 $399 $134 $396 $412 reversed $248 $-1 #
loop $-1 -1 $-1 $-1 $134 $235 #
vertex $-1 -1 $-1 $246 $413 #
vertex $-1 -1 $-1 $244 $414 #
straight-curve $-1 -1 $-1 20 10 20 0 1 0 I I #
model_id-kcp-attrib $-1 -1 $-1 $-1 $137 1 1021384616 1021384616 1351417857 7 #
loop $-1 -1 $-1 $-1 $415 $137 #
coedge $-1 -1 $-1 $416 $146 $151 $282 reversed $138 $-1 #
coedge $-1 -1 $-1 $417 $140 $286 $418 reversed $83 $-1 #
coedge $-1 -1 $-1 $140 $417 $416 $419 reversed $83 $-1 #
coedge $-1 -1 $-1 $151 $302 $140 $258 forward $152 $-1 #
edge $-1 -1 $-1 $420 -15 $421 5 $257 $422 forward @7 unknown #
coedge $-1 -1 $-1 $142 $141 $298 $423 reversed $58 $-1 #
coedge $-1 -1 $-1 $424 $425 $141 $261 forward $277 $-1 #
edge $-1 -1 $-1 $426 -40 $266 -20 $260 $427 forward @7 unknown #
coedge $-1 -1 $-1 $428 $415 $142 $263 forward $253 $-1 #
edge $429 -1 $-1 $267 20 $430 40 $142 $274 reversed @7 unknown #
coedge $-1 -1 $-1 $169 $143 $415 $431 forward $170 $-1 #
coedge $-1 -1 $-1 $143 $432 $424 $433 reversed $170 $-1 #
vertex $-1 -1 $-1 $144 $434 #
vertex $-1 -1 $-1 $431 $435 #
straight-curve $-1 -1 $-1 -20 10 5 0 0 -1 I I #
coedge $-1 -1 $-1 $436 $437 $145 $270 forward $438 $-1 #
edge $-1 -1 $-1 $278 -15 $273 5 $269 $439 forward @7 unknown #
coedge $-1 -1 $-1 $146 $416 $436 $440 reversed $138 $-1 #
attrib_edge_convexity-kcp-attrib $-1 -1 $441 $-1 $147 2 #
vertex $-1 -1 $-1 $440 $442 #
straight-curve $-1 -1 $-1 0 10 0 1 0 0 I I #
coedge $-1 -1 $-1 $443 $148 $437 $444 forward $277 $-1 #
coedge $-1 -1 $-1 $148 $445 $150 $281 forward $277 $-1 #
loop $-1 -1 $-1 $-1 $260 $323 #
vertex $-1 -1 $-1 $270 $446 #
straight-curve $-1 -1 $-1 0 10 20 1 0 0 I I #
coedge $-1 -1 $-1 $447 $150 $448 $449 forward $152 $-1 #
edge $-1 -1 $-1 $450 -20 $154 -10 $276 $451 forward @7 unknown #
edge $452 -1 $-1 $421 -10 $153 10 $151 $453 forward @7 unknown #
face $454 -1 $-1 $455 $152 $9 $-1 $456 forward single #
point $-1 -1 $-1 20 10 0 #
point $-1 -1 $-1 20 10 20 #
coedge $-1 -1 $-1 $165 $156 $255 $418 forward $32 $-1 #
coedge $-1 -1 $-1 $457 $458 $156 $288 reversed $438 $-1 #
edge $459 -1 $-1 $293 -40 $460 -10 $287 $461 forward @7 unknown #
coedge $-1 -1 $-1 $462 $157 $160 $297 forward $291 $-1 #
coedge $-1 -1 $-1 $157 $462 $457 $463 reversed $291 $-1 #
loop $-1 -1 $-1 $-1 $289 $464 #
attrib_edge_convexity-kcp-attrib $-1 -1 $465 $-1 $158 1 #
vertex $-1 -1 $-1 $288 $466 #
straight-curve $-1 -1 $-1 0 -40 20 1 0 0 I I #
coedge $-1 -1 $-1 $298 $159 $428 $467 forward $161 $-1 #
coedge $-1 -1 $-1 $160 $468 $469 $470 reversed $161 $-1 #
edge $471 -1 $-1 $163 -20 $472 20 $160 $473 forward @7 unknown #
coedge $-1 -1 $-1 $474 $295 $259 $423 forward $161 $-1 #
face $475 -1 $-1 $476 $161 $9 $-1 $477 reversed single #
convexity-sys-attrib $-1 -1 $-1 $162 $92 #
point $-1 -1 $-1 -40 -40 20 #
coedge $-1 -1 $-1 $257 $478 $165 $303 reversed $152 $-1 #
edge $479 -1 $-1 $420 10 $308 20 $165 $451 forward @7 unknown #
coedge $-1 -1 $-1 $480 $166 $478 $481 forward $306 $-1 #
coedge $-1 -1 $-1 $166 $480 $168 $311 reversed $306 $-1 #
loop $-1 -1 $-1 $-1 $305 $482 #
attrib_edge_convexity-kcp-attrib $-1 -1 $483 $-1 $167 1 #
vertex $-1 -1 $-1 $167 $484 #
straight-curve $-1 -1 $-1 0 -20 20 -1 0 0 I I #
coedge $-1 -1 $-1 $432 $168 $485 $486 reversed $170 $-1 #
edge $-1 -1 $-1 $172 -20 $487 20 $168 $488 forward @7 unknown #
face $489 -1 $-1 $490 $170 $9 $-1 $491 forward single #
convexity-sys-attrib $-1 -1 $-1 $171 $95 #
point $-1 -1 $-1 -20 -20 20 #
coedge $-1 -1 $-1 $415 $428 $174 $316 forward $253 $-1 #
edge $492 -1 $-1 $320 -40 $317 -20 $174 $493 reversed @7 unknown #
vertex $-1 -1 $-1 $431 $494 #
straight-curve $-1 -1 $-1 -20 -10 5 0 0 1 I I #
attrib_edge_convexity-kcp-attrib $-1 -1 $495 $-1 $176 1 #
vertex $-1 -1 $-1 $467 $496 #
straight-curve $-1 -1 $-1 -40 -10 5 0 0 -1 I I #
model_id-kcp-attrib $-1 -1 $-1 $-1 $177 1 1021384616 1021384616 1351417857 8 #
face $497 -1 $-1 $482 $277 $9 $-1 $33 forward single #
face $-1 -1 $-1 $-1 $498 $24 $-1 $499 reversed single #
plane-surface $-1 -1 $-1 0 0 20 0 0 1 1 0 0 forward_v I I I I #
coedge $-1 -1 $-1 $191 $500 $193 $342 forward $182 $-1 #
coedge $-1 -1 $-1 $501 $184 $500 $502 reversed $104 $-1 #
coedge $-1 -1 $-1 $184 $501 $185 $332 forward $104 $-1 #
coedge $-1 -1 $-1 $187 $193 $184 $330 reversed $194 $-1 #
edge $-1 -1 $-1 $333 -20 $503 20 $184 $504 forward @7 unknown #
coedge $-1 -1 $-1 $186 $185 $505 $506 forward $65 $-1 #
edge $-1 -1 $-1 $507 0 $333 40 $328 $508 forward @7 unknown #
vertex $-1 -1 $-1 $332 $509 #
straight-curve $-1 -1 $-1 0 20 20 1 0 0 I I #
coedge $-1 -1 $-1 $505 $510 $189 $336 reversed $498 $-1 #
edge $-1 -1 $-1 $337 -20 $340 20 $189 $511 forward @7 unknown #
vertex $-1 -1 $-1 $506 $512 #
straight-curve $-1 -1 $-1 -20 20 -20 0 0 1 I I #
coedge $-1 -1 $-1 $500 $191 $510 $513 forward $182 $-1 #
vertex $-1 -1 $-1 $513 $514 #
straight-curve $-1 -1 $-1 -20 -20 -20 0 0 1 I I #
edge $-1 -1 $-1 $503 -20 $195 20 $326 $515 forward @7 unknown #
point $-1 -1 $-1 -20 -20 20 #
point $-1 -1 $-1 -20 20 20 #
model_id-kcp-attrib $-1 -1 $-1 $-1 $199 1 1021384616 1021384616 1351417858 7 #
face $516 -1 $-1 $-1 $214 $25 $-1 $517 reversed single #
loop $-1 -1 $-1 $-1 $362 $199 #
plane-surface $-1 -1 $-1 0 40 0 0 -1 0 0 0 -1 forward_v I I I I #
coedge $-1 -1 $-1 $518 $360 $363 $519 forward $200 $-1 #
coedge $-1 -1 $-1 $366 $202 $203 $354 reversed $113 $-1 #
coedge $-1 -1 $-1 $360 $518 $202 $352 reversed $200 $-1 #
edge $-1 -1 $-1 $367 -20 $520 20 $351 $521 forward @7 unknown #
coedge $-1 -1 $-1 $204 $203 $518 $522 forward $70 $-1 #
edge $-1 -1 $-1 $358 -40 $520 40 $350 $523 forward @7 unknown #
coedge $-1 -1 $-1 $363 $362 $204 $356 reversed $347 $-1 #
edge $-1 -1 $-1 $524 -40 $357 40 $355 $525 forward @7 unknown #
vertex $-1 -1 $-1 $206 $526 #
vertex $-1 -1 $-1 $369 $527 #
straight-curve $-1 -1 $-1 40 0 -20 0 -1 0 I I #
coedge $-1 -1 $-1 $349 $351 $207 $361 reversed $200 $-1 #
edge $-1 -1 $-1 $364 -40 $367 40 $360 $528 forward @7 unknown #
coedge $-1 -1 $-1 $355 $208 $213 $370 forward $347 $-1 #
coedge $-1 -1 $-1 $208 $355 $349 $519 reversed $347 $-1 #
vertex $-1 -1 $-1 $209 $529 #
straight-curve $-1 -1 $-1 0 40 20 -1 0 0 I I #
coedge $-1 -1 $-1 $210 $350 $212 $369 reversed $113 $-1 #
vertex $-1 -1 $-1 $361 $530 #
straight-curve $-1 -1 $-1 0 -40 20 1 0 0 I I #
edge $-1 -1 $-1 $215 -20 $358 20 $212 $531 forward @7 unknown #
edge $-1 -1 $-1 $216 -20 $357 20 $213 $532 forward @7 unknown #
point $-1 -1 $-1 40 -40 20 #
point $-1 -1 $-1 40 40 20 #
face $-1 -1 $-1 $-1 $533 $27 $-1 $534 reversed single #
plane-surface $-1 -1 $-1 -30 0 20 0 0 1 1 0 0 forward_v I I I I #
coedge $-1 -1 $-1 $228 $535 $230 $391 forward $219 $-1 #
coedge $-1 -1 $-1 $536 $221 $535 $537 reversed $121 $-1 #
coedge $-1 -1 $-1 $221 $536 $222 $381 forward $121 $-1 #
coedge $-1 -1 $-1 $224 $230 $221 $379 reversed $231 $-1 #
edge $-1 -1 $-1 $382 -10 $538 10 $221 $539 forward @7 unknown #
coedge $-1 -1 $-1 $223 $222 $540 $541 reversed $74 $-1 #
edge $-1 -1 $-1 $542 0 $382 20 $377 $543 forward @7 unknown #
vertex $-1 -1 $-1 $381 $544 #
straight-curve $-1 -1 $-1 -15 -10 20 -1 0 0 I I #
coedge $-1 -1 $-1 $540 $545 $226 $385 forward $533 $-1 #
edge $546 -1 $-1 $389 -20 $386 0 $226 $547 forward @7 unknown #
vertex $-1 -1 $-1 $385 $548 #
straight-curve $-1 -1 $-1 -20 -10 0 0 0 1 I I #
coedge $-1 -1 $-1 $535 $228 $545 $549 reversed $219 $-1 #
vertex $-1 -1 $-1 $549 $550 #
straight-curve $-1 -1 $-1 -20 10 0 0 0 1 I I #
edge $-1 -1 $-1 $538 -25 $232 -5 $375 $551 forward @7 unknown #
point $-1 -1 $-1 -20 10 20 #
point $-1 -1 $-1 -20 -10 20 #
face $-1 -1 $-1 $-1 $552 $29 $-1 $553 reversed single #
plane-surface $-1 -1 $-1 30 0 20 0 0 1 1 0 0 forward_v I I I I #
coedge $-1 -1 $-1 $245 $554 $247 $412 forward $236 $-1 #
coedge $-1 -1 $-1 $555 $238 $554 $556 reversed $129 $-1 #
coedge $-1 -1 $-1 $238 $555 $239 $402 forward $129 $-1 #
coedge $-1 -1 $-1 $241 $247 $238 $400 reversed $248 $-1 #
edge $-1 -1 $-1 $403 -10 $557 10 $238 $558 forward @7 unknown #
coedge $-1 -1 $-1 $240 $239 $559 $560 reversed $78 $-1 #
edge $-1 -1 $-1 $561 0 $403 20 $398 $562 forward @7 unknown #
vertex $-1 -1 $-1 $402 $563 #
straight-curve $-1 -1 $-1 15 10 20 1 0 0 I I #
coedge $-1 -1 $-1 $559 $564 $243 $406 forward $552 $-1 #
edge $565 -1 $-1 $410 -20 $407 0 $243 $566 forward @7 unknown #
vertex $-1 -1 $-1 $406 $567 #
straight-curve $-1 -1 $-1 20 10 0 0 0 1 I I #
coedge $-1 -1 $-1 $554 $245 $564 $568 reversed $236 $-1 #
vertex $-1 -1 $-1 $568 $569 #
straight-curve $-1 -1 $-1 20 -10 0 0 0 1 I I #
edge $-1 -1 $-1 $557 -25 $249 -5 $396 $570 forward @7 unknown #
point $-1 -1 $-1 20 -10 20 #
point $-1 -1 $-1 20 10 20 #
coedge $-1 -1 $-1 $262 $315 $264 $431 reversed $253 $-1 #
coedge $-1 -1 $-1 $271 $254 $256 $419 forward $138 $-1 #
coedge $-1 -1 $-1 $256 $255 $458 $571 reversed $83 $-1 #
edge $572 -1 $-1 $460 -40 $420 -20 $286 $102 forward @7 unknown #
edge $573 -1 $-1 $421 20 $574 40 $256 $493 reversed @7 unknown #
vertex $-1 -1 $-1 $258 $575 #
vertex $-1 -1 $-1 $282 $576 #
straight-curve $-1 -1 $-1 20 -10 5 0 0 -1 I I #
edge $577 -1 $-1 $430 -5 $426 15 $298 $578 forward @7 unknown #
coedge $-1 -1 $-1 $445 $260 $265 $433 forward $277 $-1 #
coedge $-1 -1 $-1 $260 $443 $474 $579 forward $277 $-1 #
vertex $-1 -1 $-1 $579 $580 #
straight-curve $-1 -1 $-1 0 10 20 1 0 0 I I #
coedge $-1 -1 $-1 $315 $262 $295 $467 reversed $253 $-1 #
attrib_edge_convexity-kcp-attrib $-1 -1 $581 $-1 $263 2 #
vertex $-1 -1 $-1 $467 $582 #
edge $583 -1 $-1 $267 -10 $317 10 $264 $584 forward @7 unknown #
coedge $-1 -1 $-1 $265 $310 $585 $586 reversed $170 $-1 #
edge $-1 -1 $-1 $266 10 $587 20 $424 $173 forward @7 unknown #
point $-1 -1 $-1 -20 10 20 #
point $-1 -1 $-1 -20 10 0 #
coedge $-1 -1 $-1 $458 $269 $271 $440 forward $438 $-1 #
coedge $-1 -1 $-1 $269 $588 $275 $444 reversed $438 $-1 #
loop $-1 -1 $-1 $-1 $458 $589 #
straight-curve $-1 -1 $-1 40 10 5 0 0 -1 I I #
edge $590 -1 $-1 $273 -10 $574 10 $436 $591 forward @7 unknown #
convexity-sys-attrib $-1 -1 $-1 $272 $147 #
point $-1 -1 $-1 40 10 0 #
coedge $-1 -1 $-1 $425 $275 $592 $593 forward $277 $-1 #
edge $-1 -1 $-1 $278 10 $594 40 $437 $461 forward @7 unknown #
coedge $-1 -1 $-1 $276 $424 $595 $596 forward $277 $-1 #
point $-1 -1 $-1 40 10 20 #
coedge $-1 -1 $-1 $478 $280 $597 $598 reversed $152 $-1 #
coedge $-1 -1 $-1 $595 $599 $280 $449 reversed $600 $-1 #
edge $-1 -1 $-1 $450 -20 $601 20 $280 $602 forward @7 unknown #
vertex $-1 -1 $-1 $596 $603 #
straight-curve $-1 -1 $-1 20 0 20 0 -1 0 I I #
attrib_edge_convexity-kcp-attrib $-1 -1 $604 $-1 $282 1 #
straight-curve $-1 -1 $-1 20 0 0 0 1 0 I I #
model_id-kcp-attrib $-1 -1 $-1 $-1 $283 1 1021384616 1021384616 1351417857 13 #
face $605 -1 $-1 $464 $606 $9 $-1 $607 reversed single #
plane-surface $-1 -1 $-1 20 0 0 -1 0 0 0 0 1 forward_v I I I I #
coedge $-1 -1 $-1 $608 $287 $290 $463 forward $438 $-1 #
coedge $-1 -1 $-1 $287 $436 $417 $571 forward $438 $-1 #
attrib_edge_convexity-kcp-attrib $-1 -1 $609 $-1 $288 1 #
vertex $-1 -1 $-1 $288 $610 #
straight-curve $-1 -1 $-1 40 0 20 0 1 0 I I #
coedge $-1 -1 $-1 $290 $289 $611 $612 reversed $291 $-1 #
edge $613 -1 $-1 $293 -20 $614 20 $457 $615 forward @7 unknown #
face $616 -1 $-1 $299 $291 $9 $-1 $617 reversed single #
convexity-sys-attrib $-1 -1 $-1 $292 $158 #
point $-1 -1 $-1 40 -40 20 #
edge $618 -1 $-1 $320 -10 $430 10 $295 $619 forward @7 unknown #
coedge $-1 -1 $-1 $296 $474 $620 $621 forward $161 $-1 #
coedge $-1 -1 $-1 $622 $611 $296 $470 forward $623 $-1 #
edge $624 -1 $-1 $472 -40 $625 40 $296 $626 forward @7 unknown #
attrib_edge_convexity-kcp-attrib $-1 -1 $627 $-1 $297 1 #
vertex $-1 -1 $-1 $470 $628 #
straight-curve $-1 -1 $-1 -40 -40 0 0 0 -1 I I #
coedge $-1 -1 $-1 $468 $298 $425 $579 reversed $161 $-1 #
model_id-kcp-attrib $-1 -1 $-1 $-1 $299 1 1021384616 1021384616 1351417857 16 #
face $629 -1 $-1 $589 $630 $9 $-1 $631 reversed single #
plane-surface $-1 -1 $-1 -40 0 0 1 0 0 0 0 -1 forward_v I I I I #
coedge $-1 -1 $-1 $302 $447 $304 $481 reversed $152 $-1 #
attrib_edge_convexity-kcp-attrib $-1 -1 $632 $-1 $303 1 #
coedge $-1 -1 $-1 $305 $304 $633 $634 reversed $306 $-1 #
edge $-1 -1 $-1 $308 -20 $635 20 $478 $636 forward @7 unknown #
face $637 -1 $-1 $312 $306 $9 $-1 $638 forward single #
convexity-sys-attrib $-1 -1 $-1 $307 $167 #
point $-1 -1 $-1 20 -20 20 #
coedge $-1 -1 $-1 $633 $639 $310 $486 forward $606 $-1 #
edge $-1 -1 $-1 $640 -20 $487 20 $485 $641 forward @7 unknown #
vertex $-1 -1 $-1 $634 $642 #
straight-curve $-1 -1 $-1 -20 -20 0 0 0 -1 I I #
model_id-kcp-attrib $-1 -1 $-1 $-1 $312 1 1021384616 1021384616 1351417857 11 #
face $643 -1 $-1 $283 $600 $9 $-1 $644 forward single #
plane-surface $-1 -1 $-1 -20 0 0 1 0 0 0 0 -1 forward_v I I I I #
attrib_edge_convexity-kcp-attrib $-1 -1 $645 $-1 $316 2 #
straight-curve $-1 -1 $-1 0 -10 0 -1 0 0 I I #
point $-1 -1 $-1 -20 -10 0 #
convexity-sys-attrib $-1 -1 $-1 $319 $176 #
point $-1 -1 $-1 -40 -10 0 #
model_id-kcp-attrib $-1 -1 $-1 $-1 $323 1 1021384616 1021384616 1351417857 9 #
loop $-1 -1 $-1 $-1 $510 $324 #
plane-surface $-1 -1 $-1 0 0 -20 0 0 1 1 0 0 forward_v I I I I #
coedge $-1 -1 $-1 $326 $339 $327 $502 forward $182 $-1 #
coedge $-1 -1 $-1 $328 $327 $646 $647 forward $104 $-1 #
edge $-1 -1 $-1 $648 0 $503 40 $500 $649 forward @7 unknown #
vertex $-1 -1 $-1 $502 $650 #
straight-curve $-1 -1 $-1 20 0 20 0 -1 0 I I #
coedge $-1 -1 $-1 $646 $335 $331 $506 reversed $498 $-1 #
edge $-1 -1 $-1 $507 -20 $337 20 $331 $651 forward @7 unknown #
vertex $-1 -1 $-1 $647 $652 #
straight-curve $-1 -1 $-1 20 20 -20 0 0 1 I I #
point $-1 -1 $-1 20 20 20 #
coedge $-1 -1 $-1 $335 $646 $339 $513 reversed $498 $-1 #
straight-curve $-1 -1 $-1 -20 0 -20 0 -1 0 I I #
point $-1 -1 $-1 -20 20 -20 #
edge $-1 -1 $-1 $340 -20 $648 20 $339 $653 forward @7 unknown #
point $-1 -1 $-1 -20 -20 -20 #
straight-curve $-1 -1 $-1 0 -20 20 -1 0 0 I I #
model_id-kcp-attrib $-1 -1 $-1 $-1 $346 1 1021384616 1021384616 1351417858 8 #
plane-surface $-1 -1 $-1 40 0 0 -1 0 0 0 0 1 forward_v I I I I #
coedge $-1 -1 $-1 $351 $349 $353 $522 reversed $200 $-1 #
edge $-1 -1 $-1 $364 -20 $524 20 $363 $654 forward @7 unknown #
vertex $-1 -1 $-1 $522 $655 #
straight-curve $-1 -1 $-1 -40 -40 0 0 0 -1 I I #
edge $-1 -1 $-1 $520 -40 $524 40 $518 $656 forward @7 unknown #
straight-curve $-1 -1 $-1 0 -40 -20 -1 0 0 I I #
vertex $-1 -1 $-1 $356 $657 #
straight-curve $-1 -1 $-1 0 40 -20 1 0 0 I I #
point $-1 -1 $-1 40 40 -20 #
point $-1 -1 $-1 40 -40 -20 #
straight-curve $-1 -1 $-1 -40 0 20 0 -1 0 I I #
point $-1 -1 $-1 -40 40 20 #
point $-1 -1 $-1 -40 -40 20 #
straight-curve $-1 -1 $-1 40 -40 0 0 0 -1 I I #
straight-curve $-1 -1 $-1 40 40 0 0 0 -1 I I #
loop $-1 -1 $-1 $-1 $545 $373 #
plane-surface $-1 -1 $-1 -30 0 0 0 0 1 1 0 0 forward_v I I I I #
coedge $-1 -1 $-1 $375 $388 $376 $537 forward $219 $-1 #
coedge $-1 -1 $-1 $377 $376 $658 $659 reversed $121 $-1 #
edge $-1 -1 $-1 $660 0 $538 20 $535 $661 forward @7 unknown #
vertex $-1 -1 $-1 $537 $662 #
straight-curve $-1 -1 $-1 -40 0 20 0 1 0 I I #
coedge $-1 -1 $-1 $658 $384 $380 $541 forward $533 $-1 #
edge $663 -1 $-1 $386 5 $542 25 $380 $664 forward @7 unknown #
vertex $-1 -1 $-1 $541 $665 #
straight-curve $-1 -1 $-1 -40 -10 0 0 0 1 I I #
point $-1 -1 $-1 -40 -10 20 #
coedge $-1 -1 $-1 $384 $658 $388 $549 forward $533 $-1 #
convexity-sys-attrib $-1 -1 $-1 $-1 $385 #
straight-curve $-1 -1 $-1 -20 -10 0 0 -1 0 I I #
point $-1 -1 $-1 -20 -10 0 #
edge $666 -1 $-1 $660 -25 $389 -5 $388 $667 forward @7 unknown #
point $-1 -1 $-1 -20 10 0 #
straight-curve $-1 -1 $-1 -15 10 20 1 0 0 I I #
loop $-1 -1 $-1 $-1 $564 $394 #
plane-surface $-1 -1 $-1 30 0 0 0 0 1 1 0 0 forward_v I I I I #
coedge $-1 -1 $-1 $396 $409 $397 $556 forward $236 $-1 #
coedge $-1 -1 $-1 $398 $397 $668 $669 reversed $129 $-1 #
edge $-1 -1 $-1 $670 0 $557 20 $554 $671 forward @7 unknown #
vertex $-1 -1 $-1 $556 $672 #
straight-curve $-1 -1 $-1 40 0 20 0 -1 0 I I #
coedge $-1 -1 $-1 $668 $405 $401 $560 forward $552 $-1 #
edge $673 -1 $-1 $407 5 $561 25 $401 $674 forward @7 unknown #
vertex $-1 -1 $-1 $560 $675 #
straight-curve $-1 -1 $-1 40 10 0 0 0 1 I I #
point $-1 -1 $-1 40 10 20 #
coedge $-1 -1 $-1 $405 $668 $409 $568 forward $552 $-1 #
convexity-sys-attrib $-1 -1 $-1 $-1 $406 #
straight-curve $-1 -1 $-1 20 10 0 0 1 0 I I #
point $-1 -1 $-1 20 10 0 #
edge $676 -1 $-1 $670 -25 $410 -5 $409 $677 forward @7 unknown #
point $-1 -1 $-1 20 -10 0 #
straight-curve $-1 -1 $-1 15 -10 20 -1 0 0 I I #
edge $-1 -1 $-1 $574 -5 $460 15 $458 $678 forward @7 unknown #
attrib_edge_convexity-kcp-attrib $-1 -1 $679 $-1 $418 1 #
attrib_edge_convexity-kcp-attrib $-1 -1 $680 $-1 $419 2 #
vertex $-1 -1 $-1 $440 $681 #
point $-1 -1 $-1 20 -10 20 #
point $-1 -1 $-1 20 -10 0 #
attrib_edge_convexity-kcp-attrib $-1 -1 $682 $-1 $423 1 #
straight-curve $-1 -1 $-1 -40 10 5 0 0 1 I I #
edge $683 -1 $-1 $684 -40 $426 -10 $474 $164 forward @7 unknown #
point $-1 -1 $-1 -40 10 20 #
convexity-sys-attrib $-1 -1 $-1 $429 $263 #
point $-1 -1 $-1 -40 10 0 #
attrib_edge_convexity-kcp-attrib $-1 -1 $685 $-1 $431 1 #
straight-curve $-1 -1 $-1 -20 0 0 0 -1 0 I I #
coedge $-1 -1 $-1 $599 $595 $432 $586 forward $600 $-1 #
edge $-1 -1 $-1 $587 -20 $640 20 $585 $686 forward @7 unknown #
vertex $-1 -1 $-1 $433 $687 #
coedge $-1 -1 $-1 $437 $608 $688 $689 reversed $438 $-1 #
face $690 -1 $-1 $-1 $438 $9 $-1 $691 reversed single #
attrib_edge_convexity-kcp-attrib $-1 -1 $692 $-1 $440 1 #
straight-curve $-1 -1 $-1 40 0 0 0 -1 0 I I #
coedge $-1 -1 $-1 $688 $620 $443 $593 reversed $630 $-1 #
edge $-1 -1 $-1 $594 -40 $684 40 $592 $693 forward @7 unknown #
vertex $-1 -1 $-1 $444 $694 #
coedge $-1 -1 $-1 $585 $448 $445 $596 reversed $600 $-1 #
edge $-1 -1 $-1 $587 -20 $450 20 $445 $695 forward @7 unknown #
coedge $-1 -1 $-1 $639 $633 $447 $598 forward $606 $-1 #
edge $-1 -1 $-1 $635 -20 $601 20 $597 $696 forward @7 unknown #
coedge $-1 -1 $-1 $448 $585 $639 $697 reversed $600 $-1 #
loop $-1 -1 $-1 $-1 $448 $490 #
vertex $-1 -1 $-1 $697 $698 #
straight-curve $-1 -1 $-1 20 20 0 0 0 -1 I I #
point $-1 -1 $-1 20 20 20 #
convexity-sys-attrib $-1 -1 $-1 $452 $282 #
model_id-kcp-attrib $-1 -1 $-1 $-1 $455 1 1021384616 1021384616 1351417857 14 #
loop $-1 -1 $-1 $623 $633 $455 #
plane-surface $-1 -1 $-1 0 0 -20 0 0 1 1 0 0 forward_v I I I I #
coedge $-1 -1 $-1 $588 $457 $699 $700 reversed $438 $-1 #
convexity-sys-attrib $-1 -1 $-1 $459 $288 #
point $-1 -1 $-1 40 -10 20 #
coedge $-1 -1 $-1 $469 $699 $462 $612 forward $623 $-1 #
edge $701 -1 $-1 $614 -40 $472 40 $462 $702 forward @7 unknown #
attrib_edge_convexity-kcp-attrib $-1 -1 $703 $-1 $463 1 #
vertex $-1 -1 $-1 $463 $704 #
straight-curve $-1 -1 $-1 40 -40 0 0 0 -1 I I #
model_id-kcp-attrib $-1 -1 $-1 $-1 $464 1 1021384616 1021384616 1351417857 15 #
plane-surface $-1 -1 $-1 0 -40 0 0 1 0 0 0 1 forward_v I I I I #
attrib_edge_convexity-kcp-attrib $-1 -1 $705 $-1 $467 1 #
straight-curve $-1 -1 $-1 -40 0 0 0 1 0 I I #
coedge $-1 -1 $-1 $592 $706 $468 $621 reversed $630 $-1 #
edge $707 -1 $-1 $684 -20 $625 20 $620 $708 forward @7 unknown #
coedge $-1 -1 $-1 $699 $469 $706 $709 forward $623 $-1 #
loop $-1 -1 $-1 $-1 $699 $455 #
attrib_edge_convexity-kcp-attrib $-1 -1 $710 $-1 $470 1 #
vertex $-1 -1 $-1 $709 $711 #
straight-curve $-1 -1 $-1 -40 0 -20 0 1 0 I I #
convexity-sys-attrib $-1 -1 $-1 $471 $297 #
point $-1 -1 $-1 -40 -40 -20 #
model_id-kcp-attrib $-1 -1 $-1 $-1 $476 1 1021384616 1021384616 1351417857 17 #
loop $-1 -1 $-1 $-1 $688 $476 #
plane-surface $-1 -1 $-1 0 40 0 0 -1 0 0 0 -1 forward_v I I I I #
convexity-sys-attrib $-1 -1 $-1 $479 $303 #
coedge $-1 -1 $-1 $597 $485 $480 $634 forward $606 $-1 #
edge $-1 -1 $-1 $487 -20 $635 20 $633 $712 forward @7 unknown #
vertex $-1 -1 $-1 $634 $713 #
straight-curve $-1 -1 $-1 20 -20 0 0 0 -1 I I #
model_id-kcp-attrib $-1 -1 $-1 $-1 $482 1 1021384616 1021384616 1351417857 10 #
plane-surface $-1 -1 $-1 0 -20 0 0 1 0 0 0 1 forward_v I I I I #
coedge $-1 -1 $-1 $485 $597 $599 $697 forward $606 $-1 #
vertex $-1 -1 $-1 $486 $714 #
straight-curve $-1 -1 $-1 -20 0 -20 0 -1 0 I I #
point $-1 -1 $-1 -20 -20 -20 #
model_id-kcp-attrib $-1 -1 $-1 $-1 $490 1 1021384616 1021384616 1351417857 12 #
plane-surface $-1 -1 $-1 0 20 0 0 -1 0 0 0 -1 forward_v I I I I #
convexity-sys-attrib $-1 -1 $-1 $492 $316 #
coedge $-1 -1 $-1 $510 $505 $501 $647 reversed $498 $-1 #
edge $-1 -1 $-1 $648 -20 $507 20 $501 $715 forward @7 unknown #
vertex $-1 -1 $-1 $513 $716 #
straight-curve $-1 -1 $-1 20 -20 -20 0 0 1 I I #
point $-1 -1 $-1 20 -20 20 #
straight-curve $-1 -1 $-1 0 20 -20 -1 0 0 I I #
point $-1 -1 $-1 20 20 -20 #
straight-curve $-1 -1 $-1 0 -20 -20 1 0 0 I I #
straight-curve $-1 -1 $-1 -40 40 0 0 0 -1 I I #
point $-1 -1 $-1 -40 -40 -20 #
straight-curve $-1 -1 $-1 -40 0 -20 0 1 0 I I #
point $-1 -1 $-1 -40 40 -20 #
coedge $-1 -1 $-1 $545 $540 $536 $659 forward $533 $-1 #
edge $717 -1 $-1 $542 -10 $660 10 $536 $718 forward @7 unknown #
vertex $-1 -1 $-1 $549 $719 #
straight-curve $-1 -1 $-1 -40 10 0 0 0 1 I I #
point $-1 -1 $-1 -40 10 20 #
convexity-sys-attrib $-1 -1 $-1 $-1 $541 #
straight-curve $-1 -1 $-1 -15 -10 0 -1 0 0 I I #
point $-1 -1 $-1 -40 -10 0 #
convexity-sys-attrib $-1 -1 $-1 $-1 $549 #
straight-curve $-1 -1 $-1 -15 10 0 1 0 0 I I #
coedge $-1 -1 $-1 $564 $559 $555 $669 forward $552 $-1 #
edge $720 -1 $-1 $561 -10 $670 10 $555 $721 forward @7 unknown #
vertex $-1 -1 $-1 $568 $722 #
straight-curve $-1 -1 $-1 40 -10 0 0 0 1 I I #
point $-1 -1 $-1 40 -10 20 #
convexity-sys-attrib $-1 -1 $-1 $-1 $560 #
straight-curve $-1 -1 $-1 15 10 0 1 0 0 I I #
point $-1 -1 $-1 40 10 0 #
convexity-sys-attrib $-1 -1 $-1 $-1 $568 #
straight-curve $-1 -1 $-1 15 -10 0 -1 0 0 I I #
straight-curve $-1 -1 $-1 40 -10 5 0 0 1 I I #
convexity-sys-attrib $-1 -1 $-1 $572 $418 #
convexity-sys-attrib $-1 -1 $-1 $573 $419 #
point $-1 -1 $-1 40 -10 0 #
convexity-sys-attrib $-1 -1 $-1 $577 $423 #
attrib_edge_convexity-kcp-attrib $-1 -1 $723 $-1 $579 1 #
vertex $-1 -1 $-1 $593 $724 #
convexity-sys-attrib $-1 -1 $-1 $583 $431 #
straight-curve $-1 -1 $-1 -20 20 0 0 0 -1 I I #
point $-1 -1 $-1 -20 20 20 #
coedge $-1 -1 $-1 $706 $592 $588 $689 forward $630 $-1 #
edge $-1 -1 $-1 $594 -20 $725 20 $588 $726 forward @7 unknown #
model_id-kcp-attrib $-1 -1 $-1 $-1 $589 1 1021384616 1021384616 1351417857 18 #
plane-surface $-1 -1 $-1 40 0 0 -1 0 0 0 0 1 forward_v I I I I #
convexity-sys-attrib $-1 -1 $-1 $590 $440 #
straight-curve $-1 -1 $-1 0 40 20 -1 0 0 I I #
point $-1 -1 $-1 40 40 20 #
straight-curve $-1 -1 $-1 0 20 20 1 0 0 I I #
straight-curve $-1 -1 $-1 20 0 -20 0 1 0 I I #
edge $-1 -1 $-1 $601 -20 $640 20 $639 $727 forward @7 unknown #
point $-1 -1 $-1 20 20 -20 #
coedge $-1 -1 $-1 $611 $622 $608 $700 forward $623 $-1 #
edge $-1 -1 $-1 $725 -40 $614 40 $608 $728 forward @7 unknown #
attrib_edge_convexity-kcp-attrib $-1 -1 $729 $-1 $612 1 #
straight-curve $-1 -1 $-1 0 -40 -20 -1 0 0 I I #
convexity-sys-attrib $-1 -1 $-1 $613 $463 #
point $-1 -1 $-1 40 -40 -20 #
convexity-sys-attrib $-1 -1 $-1 $618 $467 #
coedge $-1 -1 $-1 $620 $688 $622 $709 reversed $630 $-1 #
attrib_edge_convexity-kcp-attrib $-1 -1 $730 $-1 $621 1 #
straight-curve $-1 -1 $-1 -40 40 0 0 0 -1 I I #
edge $-1 -1 $-1 $625 -40 $725 40 $706 $731 forward @7 unknown #
convexity-sys-attrib $-1 -1 $-1 $624 $470 #
point $-1 -1 $-1 -40 40 -20 #
straight-curve $-1 -1 $-1 0 -20 -20 1 0 0 I I #
point $-1 -1 $-1 20 -20 -20 #
point $-1 -1 $-1 -20 20 -20 #
straight-curve $-1 -1 $-1 20 0 -20 0 1 0 I I #
point $-1 -1 $-1 20 -20 -20 #
convexity-sys-attrib $-1 -1 $-1 $-1 $659 #
straight-curve $-1 -1 $-1 -40 0 0 0 1 0 I I #
point $-1 -1 $-1 -40 10 0 #
convexity-sys-attrib $-1 -1 $-1 $-1 $669 #
straight-curve $-1 -1 $-1 40 0 0 0 -1 0 I I #
point $-1 -1 $-1 40 -10 0 #
convexity-sys-attrib $-1 -1 $-1 $683 $579 #
point $-1 -1 $-1 -40 40 20 #
vertex $-1 -1 $-1 $700 $732 #
straight-curve $-1 -1 $-1 40 40 0 0 0 -1 I I #
straight-curve $-1 -1 $-1 0 20 -20 -1 0 0 I I #
straight-curve $-1 -1 $-1 40 0 -20 0 -1 0 I I #
convexity-sys-attrib $-1 -1 $-1 $701 $612 #
convexity-sys-attrib $-1 -1 $-1 $707 $621 #
straight-curve $-1 -1 $-1 0 40 -20 1 0 0 I I #
point $-1 -1 $-1 40 40 -20 #
End-of-ACIS-data 