106 0 1 0           
body $-1 $1 $-1 $-1 #
lump $-1 $-1 $2 $0 #
shell $-1 $-1 $-1 $3 $1 #
face $-1 $4 $5 $2 $-1 $6 forward single #
face $-1 $7 $8 $2 $-1 $9 forward single #
loop $-1 $-1 $10 $3 #
plane-surface $-1 0 0 20 0 0 1 1 0 0 0 I I I I #
face $-1 $11 $12 $2 $-1 $9 forward single #
loop $-1 $-1 $13 $4 #
plane-surface $-1 0 10 10 0 -1 0 0 0 -1 0 I I I I #
coedge $-1 $14 $15 $16 $17 0 $5 $-1 #
face $-1 $18 $19 $2 $-1 $20 forward single #
loop $-1 $-1 $21 $7 #
coedge $-1 $22 $23 $24 $25 1 $8 $-1 #
coedge $-1 $26 $10 $27 $28 0 $5 $-1 #
coedge $-1 $10 $29 $30 $31 0 $5 $-1 #
coedge $-1 $32 $33 $10 $17 1 $34 $-1 #
edge $-1 $35 $36 $10 $37 0 #
face $-1 $38 $39 $2 $-1 $40 forward single #
loop $-1 $-1 $41 $11 #
plane-surface $-1 0 -10 10 0 1 0 0 0 1 0 I I I I #
coedge $-1 $42 $43 $44 $45 1 $12 $-1 #
coedge $-1 $46 $13 $47 $48 1 $8 $-1 #
coedge $-1 $13 $46 $49 $50 1 $8 $-1 #
coedge $-1 $51 $52 $13 $25 0 $53 $-1 #
edge $-1 $54 $55 $24 $56 0 #
coedge $-1 $57 $14 $58 $59 0 $5 $-1 #
coedge $-1 $60 $61 $14 $28 1 $62 $-1 #
edge $-1 $36 $63 $27 $64 0 #
coedge $-1 $15 $65 $66 $67 0 $5 $-1 #
coedge $-1 $68 $69 $15 $31 1 $70 $-1 #
edge $-1 $71 $35 $15 $72 0 #
coedge $-1 $73 $16 $69 $74 1 $34 $-1 #
coedge $-1 $16 $73 $60 $75 1 $34 $-1 #
loop $-1 $-1 $32 $76 #
vertex $-1 $31 $77 #
vertex $-1 $75 $78 #
straight-curve $-1 0 -10 20 -1 0 0 I I #
face $-1 $76 $79 $2 $-1 $40 forward single #
loop $-1 $-1 $80 $18 #
plane-surface $-1 0 0 0 0 0 1 1 0 0 0 I I I I #
coedge $-1 $81 $82 $83 $84 1 $19 $-1 #
coedge $-1 $85 $21 $86 $87 1 $12 $-1 #
coedge $-1 $21 $85 $88 $89 1 $12 $-1 #
coedge $-1 $90 $91 $21 $45 0 $70 $-1 #
edge $-1 $92 $93 $44 $94 0 #
coedge $-1 $23 $22 $95 $96 1 $8 $-1 #
coedge $-1 $80 $97 $22 $48 0 $39 $-1 #
edge $-1 $98 $54 $22 $99 1 #
coedge $-1 $100 $101 $23 $50 0 $102 $-1 #
edge $-1 $55 $103 $49 $104 0 #
coedge $-1 $105 $24 $101 $106 1 $53 $-1 #
coedge $-1 $24 $83 $80 $107 0 $53 $-1 #
loop $-1 $-1 $24 $108 #
vertex $-1 $107 $109 #
vertex $-1 $106 $110 #
straight-curve $-1 20 10 5 0 0 1 I I #
coedge $-1 $111 $26 $112 $113 0 $5 $-1 #
coedge $-1 $114 $115 $26 $59 1 $116 $-1 #
edge $-1 $63 $117 $58 $118 0 #
coedge $-1 $119 $27 $33 $75 0 $62 $-1 #
coedge $-1 $27 $120 $114 $121 1 $62 $-1 #
loop $-1 $-1 $122 $123 #
vertex $-1 $28 $124 #
straight-curve $-1 -40 0 20 0 -1 0 I I #
coedge $-1 $29 $111 $125 $126 0 $5 $-1 #
coedge $-1 $127 $128 $29 $67 1 $129 $-1 #
edge $-1 $130 $71 $29 $131 0 #
coedge $-1 $132 $30 $128 $133 0 $70 $-1 #
coedge $-1 $30 $90 $32 $74 0 $70 $-1 #
loop $-1 $-1 $69 $134 #
vertex $-1 $67 $135 #
straight-curve $-1 -20 0 20 0 1 0 I I #
coedge $-1 $33 $32 $136 $137 1 $34 $-1 #
edge $-1 $138 $35 $69 $139 0 #
edge $-1 $36 $140 $60 $141 0 #
face $-1 $142 $34 $2 $-1 $20 forward single #
point $-1 -20 -10 20 #
point $-1 -40 -10 20 #
loop $-1 $-1 $143 $38 #
coedge $-1 $144 $47 $52 $107 1 $39 $-1 #
coedge $-1 $145 $41 $111 $146 1 $19 $-1 #
coedge $-1 $41 $145 $144 $147 1 $19 $-1 #
coedge $-1 $52 $125 $41 $84 0 $53 $-1 #
edge $-1 $148 $149 $83 $150 0 #
coedge $-1 $43 $42 $122 $151 1 $12 $-1 #
coedge $-1 $152 $153 $42 $87 0 $102 $-1 #
edge $-1 $154 $92 $86 $155 0 #
coedge $-1 $156 $143 $43 $89 0 $79 $-1 #
edge $-1 $93 $157 $43 $99 1 #
coedge $-1 $69 $44 $143 $158 0 $70 $-1 #
coedge $-1 $44 $159 $152 $160 1 $70 $-1 #
vertex $-1 $45 $161 #
vertex $-1 $158 $162 #
straight-curve $-1 -20 10 5 0 0 -1 I I #
coedge $-1 $163 $164 $46 $96 0 $165 $-1 #
edge $-1 $103 $98 $95 $166 0 #
coedge $-1 $47 $144 $163 $167 1 $39 $-1 #
vertex $-1 $167 $168 #
straight-curve $-1 0 10 0 1 0 0 I I #
coedge $-1 $169 $49 $164 $170 0 $102 $-1 #
coedge $-1 $49 $171 $51 $106 0 $102 $-1 #
loop $-1 $-1 $86 $142 #
vertex $-1 $96 $172 #
straight-curve $-1 0 10 20 1 0 0 I I #
coedge $-1 $173 $51 $174 $175 0 $53 $-1 #
edge $-1 $176 $55 $101 $177 0 #
edge $-1 $149 $54 $52 $178 0 #
face $-1 $179 $53 $2 $-1 $180 forward single #
point $-1 20 10 0 #
point $-1 20 10 20 #
coedge $-1 $65 $57 $81 $146 0 $5 $-1 #
coedge $-1 $181 $182 $57 $113 1 $165 $-1 #
edge $-1 $117 $183 $112 $184 0 #
coedge $-1 $185 $58 $61 $121 0 $116 $-1 #
coedge $-1 $58 $185 $181 $186 1 $116 $-1 #
loop $-1 $-1 $114 $187 #
vertex $-1 $113 $188 #
straight-curve $-1 0 -40 20 1 0 0 I I #
coedge $-1 $122 $60 $156 $189 0 $62 $-1 #
coedge $-1 $61 $190 $191 $192 1 $62 $-1 #
edge $-1 $63 $193 $61 $194 0 #
coedge $-1 $195 $119 $85 $151 0 $62 $-1 #
face $-1 $196 $62 $2 $-1 $197 reversed single #
point $-1 -40 -40 20 #
coedge $-1 $83 $198 $65 $126 1 $53 $-1 #
edge $-1 $148 $130 $65 $177 0 #
coedge $-1 $199 $66 $198 $200 0 $129 $-1 #
coedge $-1 $66 $199 $68 $133 1 $129 $-1 #
loop $-1 $-1 $128 $201 #
vertex $-1 $67 $202 #
straight-curve $-1 0 -20 20 -1 0 0 I I #
coedge $-1 $159 $68 $203 $204 1 $70 $-1 #
edge $-1 $71 $205 $68 $206 0 #
face $-1 $207 $70 $2 $-1 $208 forward single #
point $-1 -20 -20 20 #
coedge $-1 $143 $156 $73 $137 0 $79 $-1 #
edge $-1 $140 $138 $73 $209 1 #
vertex $-1 $158 $210 #
straight-curve $-1 -20 -10 5 0 0 1 I I #
vertex $-1 $189 $211 #
straight-curve $-1 -40 -10 5 0 0 -1 I I #
face $-1 $201 $102 $2 $-1 $6 forward single #
coedge $-1 $88 $136 $90 $158 1 $79 $-1 #
coedge $-1 $97 $80 $82 $147 0 $39 $-1 #
coedge $-1 $82 $81 $182 $212 1 $19 $-1 #
edge $-1 $183 $148 $111 $37 0 #
edge $-1 $149 $213 $82 $209 1 #
vertex $-1 $84 $214 #
vertex $-1 $107 $215 #
straight-curve $-1 20 -10 5 0 0 -1 I I #
edge $-1 $157 $154 $122 $216 0 #
coedge $-1 $171 $86 $91 $160 0 $102 $-1 #
coedge $-1 $86 $169 $195 $217 0 $102 $-1 #
vertex $-1 $217 $218 #
straight-curve $-1 0 10 20 1 0 0 I I #
coedge $-1 $136 $88 $119 $189 1 $79 $-1 #
vertex $-1 $189 $219 #
edge $-1 $93 $138 $90 $220 0 #
coedge $-1 $91 $132 $221 $222 1 $70 $-1 #
edge $-1 $92 $223 $152 $72 0 #
point $-1 -20 10 20 #
point $-1 -20 10 0 #
coedge $-1 $182 $95 $97 $167 0 $165 $-1 #
coedge $-1 $95 $224 $100 $170 1 $165 $-1 #
loop $-1 $-1 $182 $225 #
straight-curve $-1 40 10 5 0 0 -1 I I #
edge $-1 $98 $213 $163 $226 0 #
point $-1 40 10 0 #
coedge $-1 $153 $100 $227 $228 0 $102 $-1 #
edge $-1 $103 $229 $164 $184 0 #
coedge $-1 $101 $152 $230 $231 0 $102 $-1 #
point $-1 40 10 20 #
coedge $-1 $198 $105 $232 $233 1 $53 $-1 #
coedge $-1 $230 $234 $105 $175 1 $235 $-1 #
edge $-1 $176 $236 $105 $237 0 #
vertex $-1 $231 $238 #
straight-curve $-1 20 0 20 0 -1 0 I I #
straight-curve $-1 20 0 0 0 1 0 I I #
face $-1 $187 $239 $2 $-1 $240 reversed single #
plane-surface $-1 20 0 0 -1 0 0 0 0 1 0 I I I I #
coedge $-1 $241 $112 $115 $186 0 $165 $-1 #
coedge $-1 $112 $163 $145 $212 0 $165 $-1 #
vertex $-1 $113 $242 #
straight-curve $-1 40 0 20 0 1 0 I I #
coedge $-1 $115 $114 $243 $244 1 $116 $-1 #
edge $-1 $117 $245 $181 $246 0 #
face $-1 $123 $116 $2 $-1 $247 reversed single #
point $-1 40 -40 20 #
edge $-1 $140 $157 $119 $248 0 #
coedge $-1 $120 $195 $249 $250 0 $62 $-1 #
coedge $-1 $251 $243 $120 $192 0 $252 $-1 #
edge $-1 $193 $253 $120 $254 0 #
vertex $-1 $192 $255 #
straight-curve $-1 -40 -40 0 0 0 -1 I I #
coedge $-1 $190 $122 $153 $217 1 $62 $-1 #
face $-1 $225 $256 $2 $-1 $257 reversed single #
plane-surface $-1 -40 0 0 1 0 0 0 0 -1 0 I I I I #
coedge $-1 $125 $173 $127 $200 1 $53 $-1 #
coedge $-1 $128 $127 $258 $259 1 $129 $-1 #
edge $-1 $130 $260 $198 $261 0 #
face $-1 $134 $129 $2 $-1 $262 forward single #
point $-1 20 -20 20 #
coedge $-1 $258 $263 $132 $204 0 $239 $-1 #
edge $-1 $264 $205 $203 $265 0 #
vertex $-1 $259 $266 #
straight-curve $-1 -20 -20 0 0 0 -1 I I #
face $-1 $108 $235 $2 $-1 $267 forward single #
plane-surface $-1 -20 0 0 1 0 0 0 0 -1 0 I I I I #
straight-curve $-1 0 -10 0 -1 0 0 I I #
point $-1 -20 -10 0 #
point $-1 -40 -10 0 #
edge $-1 $213 $183 $182 $268 0 #
vertex $-1 $167 $269 #
point $-1 20 -10 20 #
point $-1 20 -10 0 #
straight-curve $-1 -40 10 5 0 0 1 I I #
edge $-1 $270 $154 $195 $64 0 #
point $-1 -40 10 20 #
point $-1 -40 10 0 #
straight-curve $-1 -20 0 0 0 -1 0 I I #
coedge $-1 $234 $230 $159 $222 0 $235 $-1 #
edge $-1 $223 $264 $221 $271 0 #
vertex $-1 $160 $272 #
coedge $-1 $164 $241 $273 $274 1 $165 $-1 #
face $-1 $-1 $165 $2 $-1 $275 reversed single #
straight-curve $-1 40 0 0 0 -1 0 I I #
coedge $-1 $273 $249 $169 $228 1 $256 $-1 #
edge $-1 $229 $270 $227 $276 0 #
vertex $-1 $170 $277 #
coedge $-1 $221 $174 $171 $231 1 $235 $-1 #
edge $-1 $223 $176 $171 $278 0 #
coedge $-1 $263 $258 $173 $233 0 $239 $-1 #
edge $-1 $260 $236 $232 $279 0 #
coedge $-1 $174 $221 $263 $280 1 $235 $-1 #
loop $-1 $-1 $174 $207 #
vertex $-1 $280 $281 #
straight-curve $-1 20 20 0 0 0 -1 I I #
point $-1 20 20 20 #
loop $-1 $252 $258 $179 #
plane-surface $-1 0 0 -20 0 0 1 1 0 0 0 I I I I #
coedge $-1 $224 $181 $282 $283 1 $165 $-1 #
point $-1 40 -10 20 #
coedge $-1 $191 $282 $185 $244 0 $252 $-1 #
edge $-1 $245 $193 $185 $284 0 #
vertex $-1 $186 $285 #
straight-curve $-1 40 -40 0 0 0 -1 I I #
plane-surface $-1 0 -40 0 0 1 0 0 0 1 0 I I I I #
straight-curve $-1 -40 0 0 0 1 0 I I #
coedge $-1 $227 $286 $190 $250 1 $256 $-1 #
edge $-1 $270 $253 $249 $287 0 #
coedge $-1 $282 $191 $286 $288 0 $252 $-1 #
loop $-1 $-1 $282 $179 #
vertex $-1 $288 $289 #
straight-curve $-1 -40 0 -20 0 1 0 I I #
point $-1 -40 -40 -20 #
loop $-1 $-1 $273 $196 #
plane-surface $-1 0 40 0 0 -1 0 0 0 -1 0 I I I I #
coedge $-1 $232 $203 $199 $259 0 $239 $-1 #
edge $-1 $205 $260 $258 $290 0 #
vertex $-1 $259 $291 #
straight-curve $-1 20 -20 0 0 0 -1 I I #
plane-surface $-1 0 -20 0 0 1 0 0 0 1 0 I I I I #
coedge $-1 $203 $232 $234 $280 0 $239 $-1 #
vertex $-1 $204 $292 #
straight-curve $-1 -20 0 -20 0 -1 0 I I #
point $-1 -20 -20 -20 #
plane-surface $-1 0 20 0 0 -1 0 0 0 -1 0 I I I I #
straight-curve $-1 40 -10 5 0 0 1 I I #
point $-1 40 -10 0 #
vertex $-1 $228 $293 #
straight-curve $-1 -20 20 0 0 0 -1 I I #
point $-1 -20 20 20 #
coedge $-1 $286 $227 $224 $274 0 $256 $-1 #
edge $-1 $229 $294 $224 $295 0 #
plane-surface $-1 40 0 0 -1 0 0 0 0 1 0 I I I I #
straight-curve $-1 0 40 20 -1 0 0 I I #
point $-1 40 40 20 #
straight-curve $-1 0 20 20 1 0 0 I I #
straight-curve $-1 20 0 -20 0 1 0 I I #
edge $-1 $236 $264 $263 $296 0 #
point $-1 20 20 -20 #
coedge $-1 $243 $251 $241 $283 0 $252 $-1 #
edge $-1 $294 $245 $241 $297 0 #
straight-curve $-1 0 -40 -20 -1 0 0 I I #
point $-1 40 -40 -20 #
coedge $-1 $249 $273 $251 $288 1 $256 $-1 #
straight-curve $-1 -40 40 0 0 0 -1 I I #
edge $-1 $253 $294 $286 $298 0 #
point $-1 -40 40 -20 #
straight-curve $-1 0 -20 -20 1 0 0 I I #
point $-1 20 -20 -20 #
point $-1 -20 20 -20 #
point $-1 -40 40 20 #
vertex $-1 $283 $299 #
straight-curve $-1 40 40 0 0 0 -1 I I #
straight-curve $-1 0 20 -20 -1 0 0 I I #
straight-curve $-1 40 0 -20 0 -1 0 I I #
straight-curve $-1 0 40 -20 1 0 0 I I #
point $-1 40 40 -20 #
End-of-ACIS-data 