600 0 1 0           
81 GICL ACIS Healer - Source: /gicl/data5/repository/Heriot_Watt/ex09/ex09.sat - 6 0 18 ACIS 6.0.3 Solaris 24 Sat Apr 13 23:39:09 2002 
1 9.999999999999999547e-07 1.000000000000000036e-10 
body $-1 $1 $-1 $-1 #
lump $-1 $-1 $2 $0 #
shell $-1 $-1 $-1 $3 $-1 $1 #
face $-1 $4 $5 $2 $-1 $6 forward single #
face $-1 $7 $8 $2 $-1 $9 forward single #
loop $-1 $-1 $10 $3 #
plane-surface $-1 0 0 20 0 0 1 1 0 0 forward_v I I I I #
face $-1 $11 $12 $2 $-1 $9 forward single #
loop $-1 $-1 $13 $4 #
plane-surface $-1 0 10 10 0 -1 0 0 0 -1 forward_v I I I I #
coedge $-1 $14 $15 $16 $17 forward $5 $-1 #
face $-1 $18 $19 $2 $-1 $20 forward single #
loop $-1 $-1 $21 $7 #
coedge $-1 $22 $23 $24 $25 reversed $8 $-1 #
coedge $-1 $26 $10 $27 $28 forward $5 $-1 #
coedge $-1 $10 $29 $30 $31 forward $5 $-1 #
coedge $-1 $32 $33 $10 $17 reversed $34 $-1 #
edge $-1 $35 20 $36 40 $10 $37 forward 7 unknown #
face $-1 $38 $39 $2 $-1 $40 forward single #
loop $-1 $-1 $41 $11 #
plane-surface $-1 0 -10 10 0 1 0 0 0 1 forward_v I I I I #
coedge $-1 $42 $43 $44 $45 reversed $12 $-1 #
coedge $-1 $46 $13 $47 $48 reversed $8 $-1 #
coedge $-1 $13 $46 $49 $50 reversed $8 $-1 #
coedge $-1 $51 $52 $13 $25 forward $53 $-1 #
edge $-1 $54 -5 $55 15 $24 $56 forward 7 unknown #
coedge $-1 $57 $14 $58 $59 forward $5 $-1 #
coedge $-1 $60 $61 $14 $28 reversed $62 $-1 #
edge $-1 $36 10 $63 40 $27 $64 forward 7 unknown #
coedge $-1 $15 $65 $66 $67 forward $5 $-1 #
coedge $-1 $68 $69 $15 $31 reversed $70 $-1 #
edge $-1 $71 -20 $35 -10 $15 $72 forward 7 unknown #
coedge $-1 $73 $16 $69 $74 reversed $34 $-1 #
coedge $-1 $16 $73 $60 $75 reversed $34 $-1 #
loop $-1 $-1 $32 $76 #
vertex $-1 $31 $77 #
vertex $-1 $75 $78 #
straight-curve $-1 0 -10 20 -1 0 0 I I #
face $-1 $76 $79 $2 $-1 $40 forward single #
loop $-1 $-1 $80 $18 #
plane-surface $-1 0 0 0 0 0 1 1 0 0 forward_v I I I I #
coedge $-1 $81 $82 $83 $84 reversed $19 $-1 #
coedge $-1 $85 $21 $86 $87 reversed $12 $-1 #
coedge $-1 $21 $85 $88 $89 reversed $12 $-1 #
coedge $-1 $90 $91 $21 $45 forward $70 $-1 #
edge $-1 $92 -15 $93 5 $44 $94 forward 7 unknown #
coedge $-1 $23 $22 $95 $96 reversed $8 $-1 #
coedge $-1 $80 $97 $22 $48 forward $39 $-1 #
edge $-1 $98 -40 $54 -20 $22 $99 reversed 7 unknown #
coedge $-1 $100 $101 $23 $50 forward $102 $-1 #
edge $-1 $55 20 $103 40 $49 $104 forward 7 unknown #
coedge $-1 $105 $24 $101 $106 reversed $53 $-1 #
coedge $-1 $24 $83 $80 $107 forward $53 $-1 #
loop $-1 $-1 $24 $108 #
vertex $-1 $107 $109 #
vertex $-1 $106 $110 #
straight-curve $-1 20 10 5 0 0 1 I I #
coedge $-1 $111 $26 $112 $113 forward $5 $-1 #
coedge $-1 $114 $115 $26 $59 reversed $116 $-1 #
edge $-1 $63 -40 $117 40 $58 $118 forward 7 unknown #
coedge $-1 $119 $27 $33 $75 forward $62 $-1 #
coedge $-1 $27 $120 $114 $121 reversed $62 $-1 #
loop $-1 $-1 $122 $123 #
vertex $-1 $28 $124 #
straight-curve $-1 -40 0 20 0 -1 0 I I #
coedge $-1 $29 $111 $125 $126 forward $5 $-1 #
coedge $-1 $127 $128 $29 $67 reversed $129 $-1 #
edge $-1 $130 -20 $71 20 $29 $131 forward 7 unknown #
coedge $-1 $132 $30 $128 $133 forward $70 $-1 #
coedge $-1 $30 $90 $32 $74 forward $70 $-1 #
loop $-1 $-1 $69 $134 #
vertex $-1 $67 $135 #
straight-curve $-1 -20 0 20 0 1 0 I I #
coedge $-1 $33 $32 $136 $137 reversed $34 $-1 #
edge $-1 $138 -5 $35 15 $69 $139 forward 7 unknown #
edge $-1 $36 -15 $140 5 $60 $141 forward 7 unknown #
face $-1 $142 $34 $2 $-1 $20 forward single #
point $-1 -20 -10 20 #
point $-1 -40 -10 20 #
loop $-1 $-1 $143 $38 #
coedge $-1 $144 $47 $52 $107 reversed $39 $-1 #
coedge $-1 $145 $41 $111 $146 reversed $19 $-1 #
coedge $-1 $41 $145 $144 $147 reversed $19 $-1 #
coedge $-1 $52 $125 $41 $84 forward $53 $-1 #
edge $-1 $148 -15 $149 5 $83 $150 forward 7 unknown #
coedge $-1 $43 $42 $122 $151 reversed $12 $-1 #
coedge $-1 $152 $153 $42 $87 forward $102 $-1 #
edge $-1 $154 -40 $92 -20 $86 $155 forward 7 unknown #
coedge $-1 $156 $143 $43 $89 forward $79 $-1 #
edge $-1 $93 20 $157 40 $43 $99 reversed 7 unknown #
coedge $-1 $69 $44 $143 $158 forward $70 $-1 #
coedge $-1 $44 $159 $152 $160 reversed $70 $-1 #
vertex $-1 $45 $161 #
vertex $-1 $158 $162 #
straight-curve $-1 -20 10 5 0 0 -1 I I #
coedge $-1 $163 $164 $46 $96 forward $165 $-1 #
edge $-1 $103 -15 $98 5 $95 $166 forward 7 unknown #
coedge $-1 $47 $144 $163 $167 reversed $39 $-1 #
vertex $-1 $167 $168 #
straight-curve $-1 0 10 0 1 0 0 I I #
coedge $-1 $169 $49 $164 $170 forward $102 $-1 #
coedge $-1 $49 $171 $51 $106 forward $102 $-1 #
loop $-1 $-1 $86 $142 #
vertex $-1 $96 $172 #
straight-curve $-1 0 10 20 1 0 0 I I #
coedge $-1 $173 $51 $174 $175 forward $53 $-1 #
edge $-1 $176 -20 $55 -10 $101 $177 forward 7 unknown #
edge $-1 $149 -10 $54 10 $52 $178 forward 7 unknown #
face $-1 $179 $53 $2 $-1 $180 forward single #
point $-1 20 10 0 #
point $-1 20 10 20 #
coedge $-1 $65 $57 $81 $146 forward $5 $-1 #
coedge $-1 $181 $182 $57 $113 reversed $165 $-1 #
edge $-1 $117 -40 $183 -10 $112 $184 forward 7 unknown #
coedge $-1 $185 $58 $61 $121 forward $116 $-1 #
coedge $-1 $58 $185 $181 $186 reversed $116 $-1 #
loop $-1 $-1 $114 $187 #
vertex $-1 $113 $188 #
straight-curve $-1 0 -40 20 1 0 0 I I #
coedge $-1 $122 $60 $156 $189 forward $62 $-1 #
coedge $-1 $61 $190 $191 $192 reversed $62 $-1 #
edge $-1 $63 -20 $193 20 $61 $194 forward 7 unknown #
coedge $-1 $195 $119 $85 $151 forward $62 $-1 #
face $-1 $196 $62 $2 $-1 $197 reversed single #
point $-1 -40 -40 20 #
coedge $-1 $83 $198 $65 $126 reversed $53 $-1 #
edge $-1 $148 10 $130 20 $65 $177 forward 7 unknown #
coedge $-1 $199 $66 $198 $200 forward $129 $-1 #
coedge $-1 $66 $199 $68 $133 reversed $129 $-1 #
loop $-1 $-1 $128 $201 #
vertex $-1 $67 $202 #
straight-curve $-1 0 -20 20 -1 0 0 I I #
coedge $-1 $159 $68 $203 $204 reversed $70 $-1 #
edge $-1 $71 -20 $205 20 $68 $206 forward 7 unknown #
face $-1 $207 $70 $2 $-1 $208 forward single #
point $-1 -20 -20 20 #
coedge $-1 $143 $156 $73 $137 forward $79 $-1 #
edge $-1 $140 -40 $138 -20 $73 $209 reversed 7 unknown #
vertex $-1 $158 $210 #
straight-curve $-1 -20 -10 5 0 0 1 I I #
vertex $-1 $189 $211 #
straight-curve $-1 -40 -10 5 0 0 -1 I I #
face $-1 $201 $102 $2 $-1 $6 forward single #
coedge $-1 $88 $136 $90 $158 reversed $79 $-1 #
coedge $-1 $97 $80 $82 $147 forward $39 $-1 #
coedge $-1 $82 $81 $182 $212 reversed $19 $-1 #
edge $-1 $183 -40 $148 -20 $111 $37 forward 7 unknown #
edge $-1 $149 20 $213 40 $82 $209 reversed 7 unknown #
vertex $-1 $84 $214 #
vertex $-1 $107 $215 #
straight-curve $-1 20 -10 5 0 0 -1 I I #
edge $-1 $157 -5 $154 15 $122 $216 forward 7 unknown #
coedge $-1 $171 $86 $91 $160 forward $102 $-1 #
coedge $-1 $86 $169 $195 $217 forward $102 $-1 #
vertex $-1 $217 $218 #
straight-curve $-1 0 10 20 1 0 0 I I #
coedge $-1 $136 $88 $119 $189 reversed $79 $-1 #
vertex $-1 $189 $219 #
edge $-1 $93 -10 $138 10 $90 $220 forward 7 unknown #
coedge $-1 $91 $132 $221 $222 reversed $70 $-1 #
edge $-1 $92 10 $223 20 $152 $72 forward 7 unknown #
point $-1 -20 10 20 #
point $-1 -20 10 0 #
coedge $-1 $182 $95 $97 $167 forward $165 $-1 #
coedge $-1 $95 $224 $100 $170 reversed $165 $-1 #
loop $-1 $-1 $182 $225 #
straight-curve $-1 40 10 5 0 0 -1 I I #
edge $-1 $98 -10 $213 10 $163 $226 forward 7 unknown #
point $-1 40 10 0 #
coedge $-1 $153 $100 $227 $228 forward $102 $-1 #
edge $-1 $103 10 $229 40 $164 $184 forward 7 unknown #
coedge $-1 $101 $152 $230 $231 forward $102 $-1 #
point $-1 40 10 20 #
coedge $-1 $198 $105 $232 $233 reversed $53 $-1 #
coedge $-1 $230 $234 $105 $175 reversed $235 $-1 #
edge $-1 $176 -20 $236 20 $105 $237 forward 7 unknown #
vertex $-1 $231 $238 #
straight-curve $-1 20 0 20 0 -1 0 I I #
straight-curve $-1 20 0 0 0 1 0 I I #
face $-1 $187 $239 $2 $-1 $240 reversed single #
plane-surface $-1 20 0 0 -1 0 0 0 0 1 forward_v I I I I #
coedge $-1 $241 $112 $115 $186 forward $165 $-1 #
coedge $-1 $112 $163 $145 $212 forward $165 $-1 #
vertex $-1 $113 $242 #
straight-curve $-1 40 0 20 0 1 0 I I #
coedge $-1 $115 $114 $243 $244 reversed $116 $-1 #
edge $-1 $117 -20 $245 20 $181 $246 forward 7 unknown #
face $-1 $123 $116 $2 $-1 $247 reversed single #
point $-1 40 -40 20 #
edge $-1 $140 -10 $157 10 $119 $248 forward 7 unknown #
coedge $-1 $120 $195 $249 $250 forward $62 $-1 #
coedge $-1 $251 $243 $120 $192 forward $252 $-1 #
edge $-1 $193 -40 $253 40 $120 $254 forward 7 unknown #
vertex $-1 $192 $255 #
straight-curve $-1 -40 -40 0 0 0 -1 I I #
coedge $-1 $190 $122 $153 $217 reversed $62 $-1 #
face $-1 $225 $256 $2 $-1 $257 reversed single #
plane-surface $-1 -40 0 0 1 0 0 0 0 -1 forward_v I I I I #
coedge $-1 $125 $173 $127 $200 reversed $53 $-1 #
coedge $-1 $128 $127 $258 $259 reversed $129 $-1 #
edge $-1 $130 -20 $260 20 $198 $261 forward 7 unknown #
face $-1 $134 $129 $2 $-1 $262 forward single #
point $-1 20 -20 20 #
coedge $-1 $258 $263 $132 $204 forward $239 $-1 #
edge $-1 $264 -20 $205 20 $203 $265 forward 7 unknown #
vertex $-1 $259 $266 #
straight-curve $-1 -20 -20 0 0 0 -1 I I #
face $-1 $108 $235 $2 $-1 $267 forward single #
plane-surface $-1 -20 0 0 1 0 0 0 0 -1 forward_v I I I I #
straight-curve $-1 0 -10 0 -1 0 0 I I #
point $-1 -20 -10 0 #
point $-1 -40 -10 0 #
edge $-1 $213 -5 $183 15 $182 $268 forward 7 unknown #
vertex $-1 $167 $269 #
point $-1 20 -10 20 #
point $-1 20 -10 0 #
straight-curve $-1 -40 10 5 0 0 1 I I #
edge $-1 $270 -40 $154 -10 $195 $64 forward 7 unknown #
point $-1 -40 10 20 #
point $-1 -40 10 0 #
straight-curve $-1 -20 0 0 0 -1 0 I I #
coedge $-1 $234 $230 $159 $222 forward $235 $-1 #
edge $-1 $223 -20 $264 20 $221 $271 forward 7 unknown #
vertex $-1 $160 $272 #
coedge $-1 $164 $241 $273 $274 reversed $165 $-1 #
face $-1 $-1 $165 $2 $-1 $275 reversed single #
straight-curve $-1 40 0 0 0 -1 0 I I #
coedge $-1 $273 $249 $169 $228 reversed $256 $-1 #
edge $-1 $229 -40 $270 40 $227 $276 forward 7 unknown #
vertex $-1 $170 $277 #
coedge $-1 $221 $174 $171 $231 reversed $235 $-1 #
edge $-1 $223 -20 $176 20 $171 $278 forward 7 unknown #
coedge $-1 $263 $258 $173 $233 forward $239 $-1 #
edge $-1 $260 -20 $236 20 $232 $279 forward 7 unknown #
coedge $-1 $174 $221 $263 $280 reversed $235 $-1 #
loop $-1 $-1 $174 $207 #
vertex $-1 $280 $281 #
straight-curve $-1 20 20 0 0 0 -1 I I #
point $-1 20 20 20 #
loop $-1 $252 $258 $179 #
plane-surface $-1 0 0 -20 0 0 1 1 0 0 forward_v I I I I #
coedge $-1 $224 $181 $282 $283 reversed $165 $-1 #
point $-1 40 -10 20 #
coedge $-1 $191 $282 $185 $244 forward $252 $-1 #
edge $-1 $245 -40 $193 40 $185 $284 forward 7 unknown #
vertex $-1 $186 $285 #
straight-curve $-1 40 -40 0 0 0 -1 I I #
plane-surface $-1 0 -40 0 0 1 0 0 0 1 forward_v I I I I #
straight-curve $-1 -40 0 0 0 1 0 I I #
coedge $-1 $227 $286 $190 $250 reversed $256 $-1 #
edge $-1 $270 -20 $253 20 $249 $287 forward 7 unknown #
coedge $-1 $282 $191 $286 $288 forward $252 $-1 #
loop $-1 $-1 $282 $179 #
vertex $-1 $288 $289 #
straight-curve $-1 -40 0 -20 0 1 0 I I #
point $-1 -40 -40 -20 #
loop $-1 $-1 $273 $196 #
plane-surface $-1 0 40 0 0 -1 0 0 0 -1 forward_v I I I I #
coedge $-1 $232 $203 $199 $259 forward $239 $-1 #
edge $-1 $205 -20 $260 20 $258 $290 forward 7 unknown #
vertex $-1 $259 $291 #
straight-curve $-1 20 -20 0 0 0 -1 I I #
plane-surface $-1 0 -20 0 0 1 0 0 0 1 forward_v I I I I #
coedge $-1 $203 $232 $234 $280 forward $239 $-1 #
vertex $-1 $204 $292 #
straight-curve $-1 -20 0 -20 0 -1 0 I I #
point $-1 -20 -20 -20 #
plane-surface $-1 0 20 0 0 -1 0 0 0 -1 forward_v I I I I #
straight-curve $-1 40 -10 5 0 0 1 I I #
point $-1 40 -10 0 #
vertex $-1 $228 $293 #
straight-curve $-1 -20 20 0 0 0 -1 I I #
point $-1 -20 20 20 #
coedge $-1 $286 $227 $224 $274 forward $256 $-1 #
edge $-1 $229 -20 $294 20 $224 $295 forward 7 unknown #
plane-surface $-1 40 0 0 -1 0 0 0 0 1 forward_v I I I I #
straight-curve $-1 0 40 20 -1 0 0 I I #
point $-1 40 40 20 #
straight-curve $-1 0 20 20 1 0 0 I I #
straight-curve $-1 20 0 -20 0 1 0 I I #
edge $-1 $236 -20 $264 20 $263 $296 forward 7 unknown #
point $-1 20 20 -20 #
coedge $-1 $243 $251 $241 $283 forward $252 $-1 #
edge $-1 $294 -40 $245 40 $241 $297 forward 7 unknown #
straight-curve $-1 0 -40 -20 -1 0 0 I I #
point $-1 40 -40 -20 #
coedge $-1 $249 $273 $251 $288 reversed $256 $-1 #
straight-curve $-1 -40 40 0 0 0 -1 I I #
edge $-1 $253 -40 $294 40 $286 $298 forward 7 unknown #
point $-1 -40 40 -20 #
straight-curve $-1 0 -20 -20 1 0 0 I I #
point $-1 20 -20 -20 #
point $-1 -20 20 -20 #
point $-1 -40 40 20 #
vertex $-1 $283 $299 #
straight-curve $-1 40 40 0 0 0 -1 I I #
straight-curve $-1 0 20 -20 -1 0 0 I I #
straight-curve $-1 40 0 -20 0 -1 0 I I #
straight-curve $-1 0 40 -20 1 0 0 I I #
point $-1 40 40 -20 #
End-of-ACIS-data 