600 0 2 0           
24 FBMach with ACIS - 6.0.3 13 ACIS 6.0.3 NT 24 Wed May 23 20:25:39 2001 
1 9.9999999999999995e-007 1e-010 
body $2 $3 $-1 $4 #
bdycol-kcp $-1 1 4 $5 $6 $7 $8 #
model_id-kcp-attrib $-1 $-1 $-1 $0 1 990663939 60 842792961 1 #
lump $-1 $-1 $9 $0 #
transform $-1 1 0 0 0 1 0 0 0 1 0 0 0 1 no_rotate no_reflect no_shear #
body $10 $11 $-1 $12 #
body $13 $14 $-1 $15 #
body $16 $17 $-1 $18 #
body $19 $20 $-1 $21 #
shell $-1 $-1 $-1 $22 $-1 $3 #
model_id-kcp-attrib $-1 $-1 $-1 $5 1 990663939 70 843448322 1 #
lump $-1 $-1 $23 $5 #
transform $-1 1 0 0 0 1 0 0 0 1 0 0 0 1 no_rotate no_reflect no_shear #
rgb_color-st-attrib $-1 $24 $-1 $6 0.5 1 1 #
lump $-1 $-1 $25 $6 #
transform $-1 1 0 0 0 1 0 0 0 1 0 0 0 1 no_rotate no_reflect no_shear #
rgb_color-st-attrib $-1 $26 $-1 $7 1 0 0 #
lump $-1 $-1 $27 $7 #
transform $-1 1 0 0 0 1 0 0 0 1 -30 0 120 1 no_rotate no_reflect no_shear #
rgb_color-st-attrib $-1 $28 $-1 $8 1 0 0 #
lump $-1 $-1 $29 $8 #
transform $-1 1 0 0 0 1 0 0 0 1 30 0 120 1 no_rotate no_reflect no_shear #
face $30 $31 $32 $9 $-1 $33 forward single #
shell $-1 $-1 $-1 $34 $-1 $11 #
model_id-kcp-attrib $-1 $-1 $13 $6 1 990663939 200 851968003 1 #
shell $-1 $-1 $-1 $35 $-1 $14 #
model_id-kcp-attrib $-1 $-1 $16 $7 1 990663939 300 841744388 1 #
shell $-1 $-1 $-1 $36 $-1 $17 #
model_id-kcp-attrib $-1 $-1 $19 $8 1 990663939 390 847642629 1 #
shell $-1 $-1 $-1 $37 $-1 $20 #
model_id-kcp-attrib $-1 $-1 $-1 $22 1 990663939 60 842792961 2 #
face $38 $39 $40 $9 $-1 $41 forward single #
loop $-1 $-1 $42 $22 #
plane-surface $-1 0 0 20 0 0 1 1 0 0 forward_v I I I I #
face $43 $44 $45 $23 $-1 $46 forward single #
face $-1 $47 $48 $25 $-1 $49 forward single #
face $-1 $50 $51 $27 $-1 $52 reversed single #
face $-1 $53 $54 $29 $-1 $55 reversed single #
model_id-kcp-attrib $-1 $-1 $-1 $31 1 990663939 60 842792961 3 #
face $56 $57 $58 $9 $-1 $41 forward single #
loop $-1 $-1 $59 $31 #
plane-surface $-1 0 10 10 0 -1 0 0 0 -1 forward_v I I I I #
coedge $-1 $60 $61 $62 $63 forward $32 $-1 #
model_id-kcp-attrib $-1 $64 $-1 $34 1 990663939 70 843448322 3 #
face $65 $66 $67 $23 $-1 $68 reversed single #
loop $-1 $-1 $69 $34 #
plane-surface $-1 0 0 20 0 0 1 1 0 0 forward_v I I I I #
face $-1 $70 $71 $25 $-1 $72 forward single #
loop $-1 $-1 $73 $35 #
plane-surface $-1 -20 -20 -20 -1 0 0 0 0 1 forward_v I I I I #
face $-1 $74 $75 $27 $-1 $76 forward single #
loop $-1 $-1 $77 $36 #
plane-surface $-1 -10 0 -120 1 0 0 0 0 -1 forward_v I I I I #
face $-1 $78 $79 $29 $-1 $80 forward single #
loop $-1 $-1 $81 $37 #
plane-surface $-1 -10 20 -140 1 0 0 0 0 -1 forward_v I I I I #
model_id-kcp-attrib $-1 $-1 $-1 $39 1 990663939 60 842792961 4 #
face $82 $83 $84 $9 $-1 $85 forward single #
loop $-1 $-1 $86 $39 #
coedge $-1 $87 $88 $89 $90 reversed $40 $-1 #
coedge $-1 $91 $42 $92 $93 forward $32 $-1 #
coedge $-1 $42 $94 $95 $96 forward $32 $-1 #
coedge $-1 $97 $98 $42 $63 reversed $99 $-1 #
edge $100 $101 20 $102 40 $42 $103 forward 7 unknown #
model_id-kcp-attrib $-1 $-1 $43 $34 1 990663939 70 843448322 2 #
model_id-kcp-attrib $-1 $-1 $-1 $44 1 990663939 70 843448322 4 #
face $104 $105 $106 $23 $-1 $107 reversed single #
loop $-1 $-1 $108 $44 #
plane-surface $-1 0 0 -20 0 0 1 1 0 0 forward_v I I I I #
coedge $-1 $109 $110 $111 $112 forward $45 $-1 #
face $-1 $113 $114 $25 $-1 $115 forward single #
loop $-1 $-1 $116 $47 #
plane-surface $-1 -20 20 -20 0 1 0 0 0 1 forward_v I I I I #
coedge $-1 $117 $118 $119 $120 forward $48 $-1 #
face $-1 $121 $122 $27 $-1 $123 reversed single #
loop $-1 $-1 $124 $50 #
plane-surface $-1 30 0 -100 0 0 1 1 0 0 forward_v I I I I #
coedge $-1 $125 $126 $127 $128 forward $51 $-1 #
face $-1 $129 $130 $29 $-1 $131 reversed single #
loop $-1 $-1 $132 $53 #
plane-surface $-1 -30 0 -100 0 0 1 1 0 0 forward_v I I I I #
coedge $-1 $133 $134 $135 $136 forward $54 $-1 #
model_id-kcp-attrib $-1 $-1 $-1 $57 1 990663939 60 842792961 5 #
face $137 $138 $139 $9 $-1 $140 forward single #
loop $-1 $-1 $141 $57 #
plane-surface $-1 0 -10 10 0 1 0 0 0 1 forward_v I I I I #
coedge $-1 $142 $143 $144 $145 reversed $58 $-1 #
coedge $-1 $146 $59 $147 $148 reversed $40 $-1 #
coedge $-1 $59 $146 $149 $150 reversed $40 $-1 #
coedge $-1 $151 $152 $59 $90 forward $153 $-1 #
edge $-1 $154 -5 $155 15 $89 $156 forward 7 unknown #
coedge $-1 $157 $60 $158 $159 forward $32 $-1 #
coedge $-1 $160 $161 $60 $93 reversed $162 $-1 #
edge $163 $102 10 $164 40 $92 $165 forward 7 unknown #
coedge $-1 $61 $166 $167 $168 forward $32 $-1 #
coedge $-1 $169 $170 $61 $96 reversed $171 $-1 #
edge $172 $173 -20 $101 -10 $61 $174 forward 7 unknown #
coedge $-1 $175 $62 $170 $176 reversed $99 $-1 #
coedge $-1 $62 $175 $160 $177 reversed $99 $-1 #
loop $-1 $-1 $97 $178 #
attrib_edge_convexity-kcp-attrib $-1 $179 $-1 $63 1 #
vertex $-1 $96 $180 #
vertex $-1 $177 $181 #
straight-curve $-1 0 -10 20 -1 0 0 I I #
model_id-kcp-attrib $-1 $-1 $-1 $66 1 990663939 70 843448322 5 #
face $182 $183 $184 $23 $-1 $185 reversed single #
loop $-1 $-1 $186 $66 #
plane-surface $-1 0 -40 0 0 1 0 0 0 1 forward_v I I I I #
coedge $-1 $187 $188 $189 $190 forward $67 $-1 #
coedge $-1 $191 $69 $192 $193 forward $45 $-1 #
coedge $-1 $69 $191 $194 $195 forward $45 $-1 #
coedge $-1 $196 $197 $69 $112 reversed $198 $-1 #
edge $-1 $199 -40 $200 40 $111 $201 forward 7 unknown #
face $-1 $202 $203 $25 $-1 $204 forward single #
loop $-1 $-1 $205 $70 #
plane-surface $-1 20 20 -20 1 0 0 0 0 -1 forward_v I I I I #
coedge $-1 $206 $207 $208 $209 forward $71 $-1 #
coedge $-1 $210 $73 $207 $211 reversed $48 $-1 #
coedge $-1 $73 $210 $212 $213 forward $48 $-1 #
coedge $-1 $214 $208 $73 $120 reversed $215 $-1 #
edge $-1 $216 -20 $217 20 $73 $218 forward 7 unknown #
face $-1 $219 $220 $27 $-1 $221 reversed single #
loop $-1 $-1 $222 $74 #
plane-surface $-1 10 -20 -140 -1 0 0 0 0 1 forward_v I I I I #
coedge $-1 $223 $224 $225 $226 forward $75 $-1 #
coedge $-1 $227 $77 $228 $229 forward $51 $-1 #
coedge $-1 $77 $227 $223 $230 reversed $51 $-1 #
coedge $-1 $225 $231 $77 $128 reversed $232 $-1 #
edge $-1 $233 40 $234 60 $127 $235 forward 7 unknown #
face $-1 $236 $237 $29 $-1 $238 reversed single #
loop $-1 $-1 $239 $78 #
plane-surface $-1 10 0 -120 -1 0 0 0 0 1 forward_v I I I I #
coedge $-1 $240 $241 $242 $243 forward $79 $-1 #
coedge $-1 $244 $81 $241 $245 reversed $54 $-1 #
coedge $-1 $81 $244 $246 $247 forward $54 $-1 #
coedge $-1 $248 $242 $81 $136 reversed $237 $-1 #
edge $-1 $249 -50 $250 -30 $135 $251 forward 7 unknown #
model_id-kcp-attrib $-1 $-1 $-1 $83 1 990663939 60 842792961 6 #
face $252 $178 $253 $9 $-1 $140 forward single #
loop $-1 $-1 $254 $83 #
plane-surface $-1 0 0 0 0 0 1 1 0 0 forward_v I I I I #
coedge $-1 $255 $256 $257 $258 reversed $84 $-1 #
coedge $-1 $259 $86 $260 $261 reversed $58 $-1 #
coedge $-1 $86 $259 $262 $263 reversed $58 $-1 #
coedge $-1 $264 $265 $86 $145 forward $171 $-1 #
edge $-1 $266 -15 $267 5 $144 $268 forward 7 unknown #
coedge $-1 $88 $87 $269 $270 reversed $40 $-1 #
coedge $-1 $254 $271 $87 $148 forward $139 $-1 #
edge $-1 $272 -40 $154 -20 $87 $273 reversed 7 unknown #
coedge $-1 $274 $275 $88 $150 forward $276 $-1 #
edge $-1 $155 20 $277 40 $149 $278 forward 7 unknown #
coedge $-1 $279 $89 $275 $280 reversed $153 $-1 #
coedge $-1 $89 $257 $254 $281 forward $153 $-1 #
loop $-1 $-1 $89 $282 #
vertex $-1 $281 $283 #
vertex $-1 $280 $284 #
straight-curve $-1 20 10 5 0 0 1 I I #
coedge $-1 $285 $91 $286 $287 forward $32 $-1 #
coedge $-1 $288 $289 $91 $159 reversed $290 $-1 #
edge $291 $164 -40 $292 40 $158 $293 forward 7 unknown #
coedge $-1 $294 $92 $98 $177 forward $162 $-1 #
coedge $-1 $92 $295 $288 $296 reversed $162 $-1 #
loop $-1 $-1 $297 $298 #
attrib_edge_convexity-kcp-attrib $-1 $299 $-1 $93 1 #
vertex $-1 $93 $300 #
straight-curve $-1 -40 0 20 0 -1 0 I I #
coedge $-1 $94 $285 $301 $302 forward $32 $-1 #
coedge $-1 $303 $304 $94 $168 reversed $305 $-1 #
edge $306 $307 -20 $173 20 $94 $308 forward 7 unknown #
coedge $-1 $309 $95 $304 $310 forward $171 $-1 #
coedge $-1 $95 $264 $97 $176 forward $171 $-1 #
loop $-1 $-1 $170 $311 #
attrib_edge_convexity-kcp-attrib $-1 $312 $-1 $96 1 #
vertex $-1 $168 $313 #
straight-curve $-1 -20 0 20 0 1 0 I I #
coedge $-1 $98 $97 $314 $315 reversed $99 $-1 #
edge $-1 $316 -5 $101 15 $170 $317 forward 7 unknown #
edge $318 $102 -15 $319 5 $160 $320 forward 7 unknown #
face $321 $322 $99 $9 $-1 $85 forward single #
convexity-sys-attrib $-1 $-1 $100 $63 #
point $-1 -20 -10 20 #
point $-1 -40 -10 20 #
model_id-kcp-attrib $-1 $-1 $-1 $105 1 990663939 70 843448322 6 #
face $323 $324 $325 $23 $-1 $326 reversed single #
loop $-1 $-1 $327 $105 #
plane-surface $-1 -40 0 0 1 0 0 0 0 -1 forward_v I I I I #
coedge $-1 $328 $194 $329 $330 forward $106 $-1 #
coedge $-1 $331 $108 $328 $332 forward $67 $-1 #
coedge $-1 $108 $331 $333 $334 forward $67 $-1 #
coedge $-1 $197 $196 $108 $190 reversed $198 $-1 #
edge $-1 $335 -40 $336 40 $189 $337 forward 7 unknown #
coedge $-1 $110 $109 $338 $339 forward $45 $-1 #
coedge $-1 $340 $341 $109 $193 reversed $325 $-1 #
edge $-1 $200 -40 $342 40 $192 $343 forward 7 unknown #
coedge $-1 $186 $344 $110 $195 reversed $106 $-1 #
edge $-1 $345 -40 $199 40 $194 $346 forward 7 unknown #
coedge $-1 $189 $111 $344 $347 forward $198 $-1 #
coedge $-1 $111 $189 $340 $348 reversed $198 $-1 #
loop $-1 $-1 $196 $324 #
vertex $-1 $112 $349 #
vertex $-1 $112 $350 #
straight-curve $-1 40 0 20 0 1 0 I I #
face $-1 $351 $215 $25 $-1 $352 forward single #
loop $-1 $-1 $353 $113 #
plane-surface $-1 20 -20 -20 0 -1 0 0 0 -1 forward_v I I I I #
coedge $-1 $354 $355 $356 $357 forward $114 $-1 #
coedge $-1 $358 $116 $355 $359 reversed $71 $-1 #
coedge $-1 $116 $358 $117 $211 forward $71 $-1 #
coedge $-1 $119 $356 $116 $209 reversed $215 $-1 #
edge $-1 $217 -20 $360 20 $116 $361 forward 7 unknown #
coedge $-1 $118 $117 $362 $363 forward $48 $-1 #
edge $-1 $364 0 $217 40 $207 $365 forward 7 unknown #
coedge $-1 $366 $353 $118 $213 reversed $203 $-1 #
edge $-1 $367 0 $216 40 $118 $368 forward 7 unknown #
coedge $-1 $356 $119 $353 $369 reversed $215 $-1 #
loop $-1 $-1 $119 $202 #
vertex $-1 $213 $370 #
vertex $-1 $211 $371 #
straight-curve $-1 -20 0 20 0 1 0 I I #
face $-1 $372 $373 $27 $-1 $374 reversed single #
loop $-1 $-1 $375 $121 #
plane-surface $-1 0 -10 0 0 1 0 0 0 1 forward_v I I I I #
coedge $-1 $376 $377 $375 $378 forward $122 $-1 #
coedge $-1 $379 $124 $126 $230 forward $75 $-1 #
coedge $-1 $124 $379 $377 $380 forward $75 $-1 #
coedge $-1 $381 $127 $124 $226 reversed $232 $-1 #
edge $-1 $382 5 $233 25 $225 $383 forward 7 unknown #
coedge $-1 $126 $125 $384 $385 forward $51 $-1 #
coedge $-1 $386 $387 $125 $229 reversed $373 $-1 #
edge $388 $234 -10 $389 10 $228 $390 forward 7 unknown #
edge $-1 $233 -10 $391 10 $126 $392 forward 7 unknown #
coedge $-1 $127 $381 $386 $393 reversed $232 $-1 #
loop $-1 $-1 $381 $372 #
vertex $-1 $128 $394 #
vertex $-1 $393 $395 #
straight-curve $-1 -10 10 -60 0 0 -1 I I #
face $-1 $396 $397 $29 $-1 $398 reversed single #
loop $-1 $-1 $399 $129 #
plane-surface $-1 0 -10 0 0 1 0 0 0 1 forward_v I I I I #
coedge $-1 $400 $401 $399 $402 forward $130 $-1 #
coedge $-1 $403 $132 $401 $404 forward $79 $-1 #
coedge $-1 $132 $403 $133 $245 forward $79 $-1 #
coedge $-1 $135 $399 $132 $243 reversed $237 $-1 #
edge $-1 $250 5 $405 25 $242 $406 forward 7 unknown #
coedge $-1 $134 $133 $407 $408 forward $54 $-1 #
edge $-1 $409 0 $250 20 $241 $410 forward 7 unknown #
coedge $-1 $411 $412 $134 $247 reversed $397 $-1 #
edge $413 $414 0 $249 20 $246 $415 forward 7 unknown #
coedge $-1 $399 $135 $412 $416 reversed $237 $-1 #
vertex $-1 $247 $417 #
vertex $-1 $136 $418 #
straight-curve $-1 -10 -10 -70 0 0 1 I I #
model_id-kcp-attrib $-1 $-1 $-1 $138 1 990663939 60 842792961 7 #
loop $-1 $-1 $419 $138 #
coedge $-1 $420 $147 $152 $281 reversed $139 $-1 #
coedge $-1 $421 $141 $285 $422 reversed $84 $-1 #
coedge $-1 $141 $421 $420 $423 reversed $84 $-1 #
coedge $-1 $152 $301 $141 $258 forward $153 $-1 #
edge $-1 $424 -15 $425 5 $257 $426 forward 7 unknown #
coedge $-1 $143 $142 $297 $427 reversed $58 $-1 #
coedge $-1 $428 $429 $142 $261 forward $276 $-1 #
edge $-1 $430 -40 $266 -20 $260 $431 forward 7 unknown #
coedge $-1 $432 $419 $143 $263 forward $253 $-1 #
edge $-1 $267 20 $433 40 $143 $273 reversed 7 unknown #
coedge $-1 $170 $144 $419 $434 forward $171 $-1 #
coedge $-1 $144 $435 $428 $436 reversed $171 $-1 #
vertex $-1 $145 $437 #
vertex $-1 $434 $438 #
straight-curve $-1 -20 10 5 0 0 -1 I I #
coedge $-1 $439 $440 $146 $270 forward $441 $-1 #
edge $-1 $277 -15 $272 5 $269 $442 forward 7 unknown #
coedge $-1 $147 $420 $439 $443 reversed $139 $-1 #
vertex $-1 $443 $444 #
straight-curve $-1 0 10 0 1 0 0 I I #
coedge $-1 $445 $149 $440 $446 forward $276 $-1 #
coedge $-1 $149 $447 $151 $280 forward $276 $-1 #
loop $-1 $-1 $260 $322 #
vertex $-1 $270 $448 #
straight-curve $-1 0 10 20 1 0 0 I I #
coedge $-1 $449 $151 $450 $451 forward $153 $-1 #
edge $-1 $452 -20 $155 -10 $275 $453 forward 7 unknown #
edge $-1 $425 -10 $154 10 $152 $454 forward 7 unknown #
face $455 $456 $153 $9 $-1 $457 forward single #
point $-1 20 10 0 #
point $-1 20 10 20 #
coedge $-1 $166 $157 $255 $422 forward $32 $-1 #
coedge $-1 $458 $459 $157 $287 reversed $441 $-1 #
edge $460 $292 -40 $461 -10 $286 $462 forward 7 unknown #
coedge $-1 $463 $158 $161 $296 forward $290 $-1 #
coedge $-1 $158 $463 $458 $464 reversed $290 $-1 #
loop $-1 $-1 $288 $465 #
attrib_edge_convexity-kcp-attrib $-1 $466 $-1 $159 1 #
vertex $-1 $287 $467 #
straight-curve $-1 0 -40 20 1 0 0 I I #
coedge $-1 $297 $160 $432 $468 forward $162 $-1 #
coedge $-1 $161 $469 $470 $471 reversed $162 $-1 #
edge $472 $164 -20 $473 20 $161 $474 forward 7 unknown #
coedge $-1 $475 $294 $259 $427 forward $162 $-1 #
face $476 $477 $162 $9 $-1 $478 reversed single #
convexity-sys-attrib $-1 $-1 $163 $93 #
point $-1 -40 -40 20 #
coedge $-1 $257 $479 $166 $302 reversed $153 $-1 #
edge $480 $424 10 $307 20 $166 $453 forward 7 unknown #
coedge $-1 $481 $167 $479 $482 forward $305 $-1 #
coedge $-1 $167 $481 $169 $310 reversed $305 $-1 #
loop $-1 $-1 $304 $483 #
attrib_edge_convexity-kcp-attrib $-1 $484 $-1 $168 1 #
vertex $-1 $168 $485 #
straight-curve $-1 0 -20 20 -1 0 0 I I #
coedge $-1 $435 $169 $486 $487 reversed $171 $-1 #
edge $-1 $173 -20 $488 20 $169 $489 forward 7 unknown #
face $490 $491 $171 $9 $-1 $492 forward single #
convexity-sys-attrib $-1 $-1 $172 $96 #
point $-1 -20 -20 20 #
coedge $-1 $419 $432 $175 $315 forward $253 $-1 #
edge $-1 $319 -40 $316 -20 $175 $493 reversed 7 unknown #
vertex $-1 $434 $494 #
straight-curve $-1 -20 -10 5 0 0 1 I I #
attrib_edge_convexity-kcp-attrib $-1 $495 $-1 $177 1 #
vertex $-1 $468 $496 #
straight-curve $-1 -40 -10 5 0 0 -1 I I #
model_id-kcp-attrib $-1 $-1 $-1 $178 1 990663939 60 842792961 8 #
face $497 $483 $276 $9 $-1 $33 forward single #
model_id-kcp-attrib $-1 $-1 $-1 $183 1 990663939 70 843448322 7 #
face $498 $-1 $198 $23 $-1 $499 reversed single #
loop $-1 $-1 $340 $183 #
plane-surface $-1 0 40 0 0 -1 0 0 0 -1 forward_v I I I I #
coedge $-1 $500 $338 $341 $501 forward $184 $-1 #
coedge $-1 $344 $186 $187 $332 reversed $106 $-1 #
coedge $-1 $338 $500 $186 $330 reversed $184 $-1 #
edge $-1 $345 -20 $502 20 $329 $503 forward 7 unknown #
coedge $-1 $188 $187 $500 $504 forward $67 $-1 #
edge $-1 $336 -40 $502 40 $328 $505 forward 7 unknown #
coedge $-1 $341 $340 $188 $334 reversed $325 $-1 #
edge $-1 $506 -40 $335 40 $333 $507 forward 7 unknown #
vertex $-1 $190 $508 #
vertex $-1 $347 $509 #
straight-curve $-1 40 0 -20 0 -1 0 I I #
coedge $-1 $327 $329 $191 $339 reversed $184 $-1 #
edge $-1 $342 -40 $345 40 $338 $510 forward 7 unknown #
coedge $-1 $333 $192 $197 $348 forward $325 $-1 #
coedge $-1 $192 $333 $327 $501 reversed $325 $-1 #
vertex $-1 $193 $511 #
straight-curve $-1 0 40 20 -1 0 0 I I #
coedge $-1 $194 $328 $196 $347 reversed $106 $-1 #
vertex $-1 $339 $512 #
straight-curve $-1 0 -40 20 1 0 0 I I #
edge $-1 $199 -20 $336 20 $196 $513 forward 7 unknown #
edge $-1 $200 -20 $335 20 $197 $514 forward 7 unknown #
point $-1 40 -40 20 #
point $-1 40 40 20 #
face $-1 $-1 $515 $25 $-1 $516 reversed single #
plane-surface $-1 0 0 20 0 0 1 1 0 0 forward_v I I I I #
coedge $-1 $212 $517 $214 $369 forward $203 $-1 #
coedge $-1 $518 $205 $517 $519 reversed $114 $-1 #
coedge $-1 $205 $518 $206 $359 forward $114 $-1 #
coedge $-1 $208 $214 $205 $357 reversed $215 $-1 #
edge $-1 $360 -20 $520 20 $205 $521 forward 7 unknown #
coedge $-1 $207 $206 $522 $523 forward $71 $-1 #
edge $-1 $524 0 $360 40 $355 $525 forward 7 unknown #
vertex $-1 $359 $526 #
straight-curve $-1 0 20 20 1 0 0 I I #
coedge $-1 $522 $527 $210 $363 reversed $515 $-1 #
edge $-1 $364 -20 $367 20 $210 $528 forward 7 unknown #
vertex $-1 $523 $529 #
straight-curve $-1 -20 20 -20 0 0 1 I I #
coedge $-1 $517 $212 $527 $530 forward $203 $-1 #
vertex $-1 $530 $531 #
straight-curve $-1 -20 -20 -20 0 0 1 I I #
edge $-1 $520 -20 $216 20 $353 $532 forward 7 unknown #
point $-1 -20 -20 20 #
point $-1 -20 20 20 #
face $-1 $-1 $232 $27 $-1 $533 reversed single #
loop $-1 $-1 $534 $219 #
plane-surface $-1 0 0 -120 0 0 1 1 0 0 forward_v I I I I #
coedge $-1 $535 $536 $222 $378 reversed $220 $-1 #
coedge $-1 $537 $222 $534 $538 forward $122 $-1 #
coedge $-1 $222 $537 $224 $380 reversed $122 $-1 #
edge $-1 $539 30 $540 50 $375 $541 forward 7 unknown #
coedge $-1 $224 $223 $535 $542 forward $75 $-1 #
edge $-1 $539 0 $382 20 $224 $543 forward 7 unknown #
coedge $-1 $231 $225 $537 $544 reversed $232 $-1 #
vertex $-1 $226 $545 #
straight-curve $-1 15 10 -100 -1 0 0 I I #
coedge $-1 $536 $535 $227 $385 reversed $220 $-1 #
edge $-1 $389 -60 $391 -40 $384 $546 forward 7 unknown #
coedge $-1 $534 $228 $231 $393 forward $373 $-1 #
coedge $-1 $228 $534 $536 $547 forward $373 $-1 #
convexity-sys-attrib $-1 $-1 $-1 $229 #
vertex $-1 $229 $548 #
straight-curve $-1 -10 0 -120 0 -1 0 I I #
vertex $-1 $385 $549 #
straight-curve $-1 -10 0 -100 0 -1 0 I I #
edge $550 $234 -10 $551 10 $231 $552 forward 7 unknown #
point $-1 -10 10 -100 #
point $-1 -10 10 -120 #
face $-1 $-1 $553 $29 $-1 $554 reversed single #
loop $-1 $-1 $555 $236 #
plane-surface $-1 0 0 -120 0 0 1 1 0 0 forward_v I I I I #
coedge $-1 $242 $248 $239 $402 reversed $237 $-1 #
coedge $-1 $556 $239 $555 $557 forward $130 $-1 #
coedge $-1 $239 $556 $240 $404 reversed $130 $-1 #
edge $-1 $405 40 $558 60 $399 $559 forward 7 unknown #
coedge $-1 $241 $240 $560 $561 forward $79 $-1 #
edge $-1 $405 -10 $562 10 $401 $563 forward 7 unknown #
vertex $-1 $243 $564 #
straight-curve $-1 -15 -10 -100 1 0 0 I I #
coedge $-1 $560 $565 $244 $408 reversed $553 $-1 #
edge $-1 $409 30 $414 50 $407 $566 forward 7 unknown #
vertex $-1 $408 $567 #
straight-curve $-1 -10 10 -100 0 -1 0 I I #
coedge $-1 $555 $246 $565 $568 forward $397 $-1 #
coedge $-1 $246 $555 $248 $416 forward $397 $-1 #
convexity-sys-attrib $-1 $-1 $-1 $247 #
vertex $-1 $568 $569 #
straight-curve $-1 -10 10 -120 0 -1 0 I I #
edge $570 $558 -10 $249 10 $248 $571 forward 7 unknown #
point $-1 -10 -10 -120 #
point $-1 -10 -10 -100 #
coedge $-1 $262 $314 $264 $434 reversed $253 $-1 #
coedge $-1 $271 $254 $256 $423 forward $139 $-1 #
coedge $-1 $256 $255 $459 $572 reversed $84 $-1 #
edge $573 $461 -40 $424 -20 $285 $103 forward 7 unknown #
edge $-1 $425 20 $574 40 $256 $493 reversed 7 unknown #
vertex $-1 $258 $575 #
vertex $-1 $281 $576 #
straight-curve $-1 20 -10 5 0 0 -1 I I #
edge $577 $433 -5 $430 15 $297 $578 forward 7 unknown #
coedge $-1 $447 $260 $265 $436 forward $276 $-1 #
coedge $-1 $260 $445 $475 $579 forward $276 $-1 #
vertex $-1 $579 $580 #
straight-curve $-1 0 10 20 1 0 0 I I #
coedge $-1 $314 $262 $294 $468 reversed $253 $-1 #
vertex $-1 $468 $581 #
edge $-1 $267 -10 $316 10 $264 $582 forward 7 unknown #
coedge $-1 $265 $309 $583 $584 reversed $171 $-1 #
edge $-1 $266 10 $585 20 $428 $174 forward 7 unknown #
point $-1 -20 10 20 #
point $-1 -20 10 0 #
coedge $-1 $459 $269 $271 $443 forward $441 $-1 #
coedge $-1 $269 $586 $274 $446 reversed $441 $-1 #
loop $-1 $-1 $459 $587 #
straight-curve $-1 40 10 5 0 0 -1 I I #
edge $-1 $272 -10 $574 10 $439 $588 forward 7 unknown #
point $-1 40 10 0 #
coedge $-1 $429 $274 $589 $590 forward $276 $-1 #
edge $-1 $277 10 $591 40 $440 $462 forward 7 unknown #
coedge $-1 $275 $428 $592 $593 forward $276 $-1 #
point $-1 40 10 20 #
coedge $-1 $479 $279 $594 $595 reversed $153 $-1 #
coedge $-1 $592 $596 $279 $451 reversed $597 $-1 #
edge $-1 $452 -20 $598 20 $279 $599 forward 7 unknown #
vertex $-1 $593 $600 #
straight-curve $-1 20 0 20 0 -1 0 I I #
straight-curve $-1 20 0 0 0 1 0 I I #
model_id-kcp-attrib $-1 $-1 $-1 $282 1 990663939 60 842792961 13 #
face $601 $465 $602 $9 $-1 $603 reversed single #
plane-surface $-1 20 0 0 -1 0 0 0 0 1 forward_v I I I I #
coedge $-1 $604 $286 $289 $464 forward $441 $-1 #
coedge $-1 $286 $439 $421 $572 forward $441 $-1 #
attrib_edge_convexity-kcp-attrib $-1 $605 $-1 $287 1 #
vertex $-1 $287 $606 #
straight-curve $-1 40 0 20 0 1 0 I I #
coedge $-1 $289 $288 $607 $608 reversed $290 $-1 #
edge $609 $292 -20 $610 20 $458 $611 forward 7 unknown #
face $612 $298 $290 $9 $-1 $613 reversed single #
convexity-sys-attrib $-1 $-1 $291 $159 #
point $-1 40 -40 20 #
edge $614 $319 -10 $433 10 $294 $615 forward 7 unknown #
coedge $-1 $295 $475 $616 $617 forward $162 $-1 #
coedge $-1 $618 $607 $295 $471 forward $619 $-1 #
edge $620 $473 -40 $621 40 $295 $622 forward 7 unknown #
attrib_edge_convexity-kcp-attrib $-1 $623 $-1 $296 1 #
vertex $-1 $471 $624 #
straight-curve $-1 -40 -40 0 0 0 -1 I I #
coedge $-1 $469 $297 $429 $579 reversed $162 $-1 #
model_id-kcp-attrib $-1 $-1 $-1 $298 1 990663939 60 842792961 16 #
face $625 $587 $626 $9 $-1 $627 reversed single #
plane-surface $-1 -40 0 0 1 0 0 0 0 -1 forward_v I I I I #
coedge $-1 $301 $449 $303 $482 reversed $153 $-1 #
attrib_edge_convexity-kcp-attrib $-1 $628 $-1 $302 1 #
coedge $-1 $304 $303 $629 $630 reversed $305 $-1 #
edge $-1 $307 -20 $631 20 $479 $632 forward 7 unknown #
face $633 $311 $305 $9 $-1 $634 forward single #
convexity-sys-attrib $-1 $-1 $306 $168 #
point $-1 20 -20 20 #
coedge $-1 $629 $635 $309 $487 forward $602 $-1 #
edge $-1 $636 -20 $488 20 $486 $637 forward 7 unknown #
vertex $-1 $630 $638 #
straight-curve $-1 -20 -20 0 0 0 -1 I I #
model_id-kcp-attrib $-1 $-1 $-1 $311 1 990663939 60 842792961 11 #
face $639 $282 $597 $9 $-1 $640 forward single #
plane-surface $-1 -20 0 0 1 0 0 0 0 -1 forward_v I I I I #
straight-curve $-1 0 -10 0 -1 0 0 I I #
point $-1 -20 -10 0 #
convexity-sys-attrib $-1 $-1 $318 $177 #
point $-1 -40 -10 0 #
model_id-kcp-attrib $-1 $-1 $-1 $322 1 990663939 60 842792961 9 #
model_id-kcp-attrib $-1 $-1 $-1 $324 1 990663939 70 843448322 8 #
plane-surface $-1 40 0 0 -1 0 0 0 0 1 forward_v I I I I #
coedge $-1 $329 $327 $331 $504 reversed $184 $-1 #
edge $-1 $342 -20 $506 20 $341 $641 forward 7 unknown #
vertex $-1 $504 $642 #
straight-curve $-1 -40 -40 0 0 0 -1 I I #
edge $-1 $502 -40 $506 40 $500 $643 forward 7 unknown #
straight-curve $-1 0 -40 -20 -1 0 0 I I #
vertex $-1 $334 $644 #
straight-curve $-1 0 40 -20 1 0 0 I I #
point $-1 40 40 -20 #
point $-1 40 -40 -20 #
straight-curve $-1 -40 0 20 0 -1 0 I I #
point $-1 -40 40 20 #
point $-1 -40 -40 20 #
straight-curve $-1 40 -40 0 0 0 -1 I I #
straight-curve $-1 40 40 0 0 0 -1 I I #
loop $-1 $-1 $527 $351 #
plane-surface $-1 0 0 -20 0 0 1 1 0 0 forward_v I I I I #
coedge $-1 $353 $366 $354 $519 forward $203 $-1 #
coedge $-1 $355 $354 $645 $646 forward $114 $-1 #
edge $-1 $647 0 $520 40 $517 $648 forward 7 unknown #
vertex $-1 $519 $649 #
straight-curve $-1 20 0 20 0 -1 0 I I #
coedge $-1 $645 $362 $358 $523 reversed $515 $-1 #
edge $-1 $524 -20 $364 20 $358 $650 forward 7 unknown #
vertex $-1 $646 $651 #
straight-curve $-1 20 20 -20 0 0 1 I I #
point $-1 20 20 20 #
coedge $-1 $362 $645 $366 $530 reversed $515 $-1 #
straight-curve $-1 -20 0 -20 0 -1 0 I I #
point $-1 -20 20 -20 #
edge $-1 $367 -20 $647 20 $366 $652 forward 7 unknown #
point $-1 -20 -20 -20 #
straight-curve $-1 0 -20 20 -1 0 0 I I #
plane-surface $-1 0 10 0 0 -1 0 0 0 -1 forward_v I I I I #
coedge $-1 $387 $386 $376 $538 reversed $373 $-1 #
coedge $-1 $384 $375 $379 $542 reversed $220 $-1 #
coedge $-1 $375 $384 $387 $547 reversed $220 $-1 #
coedge $-1 $377 $376 $381 $544 forward $122 $-1 #
edge $653 $540 0 $551 20 $534 $654 forward 7 unknown #
vertex $-1 $542 $655 #
vertex $-1 $547 $656 #
straight-curve $-1 10 -10 -70 0 0 -1 I I #
edge $-1 $391 -25 $539 -5 $535 $657 forward 7 unknown #
straight-curve $-1 10 -10 -100 0 1 0 I I #
edge $-1 $551 -50 $382 -30 $381 $658 forward 7 unknown #
point $-1 10 10 -100 #
straight-curve $-1 -10 -10 -60 0 0 1 I I #
edge $659 $540 -10 $389 10 $536 $660 forward 7 unknown #
point $-1 -10 -10 -120 #
point $-1 -10 -10 -100 #
convexity-sys-attrib $-1 $-1 $-1 $393 #
vertex $-1 $538 $661 #
straight-curve $-1 0 10 -120 1 0 0 I I #
loop $-1 $-1 $662 $396 #
plane-surface $-1 0 10 0 0 -1 0 0 0 -1 forward_v I I I I #
coedge $-1 $412 $411 $400 $557 reversed $397 $-1 #
coedge $-1 $401 $400 $662 $663 forward $130 $-1 #
edge $664 $558 -10 $665 10 $555 $666 forward 7 unknown #
vertex $-1 $416 $667 #
straight-curve $-1 10 -10 -60 0 0 -1 I I #
coedge $-1 $662 $407 $403 $561 reversed $553 $-1 #
edge $-1 $562 -25 $409 -5 $560 $668 forward 7 unknown #
vertex $-1 $561 $669 #
straight-curve $-1 10 0 -100 0 1 0 I I #
point $-1 10 -10 -100 #
coedge $-1 $407 $662 $411 $568 reversed $553 $-1 #
straight-curve $-1 -10 10 -70 0 0 -1 I I #
point $-1 -10 10 -100 #
edge $670 $414 -10 $665 10 $565 $671 forward 7 unknown #
point $-1 -10 10 -120 #
convexity-sys-attrib $-1 $-1 $-1 $416 #
straight-curve $-1 0 -10 -120 -1 0 0 I I #
edge $-1 $574 -5 $461 15 $459 $672 forward 7 unknown #
attrib_edge_convexity-kcp-attrib $-1 $673 $-1 $422 1 #
vertex $-1 $443 $674 #
point $-1 20 -10 20 #
point $-1 20 -10 0 #
attrib_edge_convexity-kcp-attrib $-1 $675 $-1 $427 1 #
straight-curve $-1 -40 10 5 0 0 1 I I #
edge $676 $677 -40 $430 -10 $475 $165 forward 7 unknown #
point $-1 -40 10 20 #
point $-1 -40 10 0 #
straight-curve $-1 -20 0 0 0 -1 0 I I #
coedge $-1 $596 $592 $435 $584 forward $597 $-1 #
edge $-1 $585 -20 $636 20 $583 $678 forward 7 unknown #
vertex $-1 $436 $679 #
coedge $-1 $440 $604 $680 $681 reversed $441 $-1 #
face $682 $-1 $441 $9 $-1 $683 reversed single #
straight-curve $-1 40 0 0 0 -1 0 I I #
coedge $-1 $680 $616 $445 $590 reversed $626 $-1 #
edge $-1 $591 -40 $677 40 $589 $684 forward 7 unknown #
vertex $-1 $446 $685 #
coedge $-1 $583 $450 $447 $593 reversed $597 $-1 #
edge $-1 $585 -20 $452 20 $447 $686 forward 7 unknown #
coedge $-1 $635 $629 $449 $595 forward $602 $-1 #
edge $-1 $631 -20 $598 20 $594 $687 forward 7 unknown #
coedge $-1 $450 $583 $635 $688 reversed $597 $-1 #
loop $-1 $-1 $450 $491 #
vertex $-1 $688 $689 #
straight-curve $-1 20 20 0 0 0 -1 I I #
point $-1 20 20 20 #
model_id-kcp-attrib $-1 $-1 $-1 $456 1 990663939 60 842792961 14 #
loop $-1 $619 $629 $456 #
plane-surface $-1 0 0 -20 0 0 1 1 0 0 forward_v I I I I #
coedge $-1 $586 $458 $690 $691 reversed $441 $-1 #
convexity-sys-attrib $-1 $-1 $460 $287 #
point $-1 40 -10 20 #
coedge $-1 $470 $690 $463 $608 forward $619 $-1 #
edge $692 $610 -40 $473 40 $463 $693 forward 7 unknown #
attrib_edge_convexity-kcp-attrib $-1 $694 $-1 $464 1 #
vertex $-1 $464 $695 #
straight-curve $-1 40 -40 0 0 0 -1 I I #
model_id-kcp-attrib $-1 $-1 $-1 $465 1 990663939 60 842792961 15 #
plane-surface $-1 0 -40 0 0 1 0 0 0 1 forward_v I I I I #
attrib_edge_convexity-kcp-attrib $-1 $696 $-1 $468 1 #
straight-curve $-1 -40 0 0 0 1 0 I I #
coedge $-1 $589 $697 $469 $617 reversed $626 $-1 #
edge $698 $677 -20 $621 20 $616 $699 forward 7 unknown #
coedge $-1 $690 $470 $697 $700 forward $619 $-1 #
loop $-1 $-1 $690 $456 #
attrib_edge_convexity-kcp-attrib $-1 $701 $-1 $471 1 #
vertex $-1 $700 $702 #
straight-curve $-1 -40 0 -20 0 1 0 I I #
convexity-sys-attrib $-1 $-1 $472 $296 #
point $-1 -40 -40 -20 #
model_id-kcp-attrib $-1 $-1 $-1 $477 1 990663939 60 842792961 17 #
loop $-1 $-1 $680 $477 #
plane-surface $-1 0 40 0 0 -1 0 0 0 -1 forward_v I I I I #
convexity-sys-attrib $-1 $-1 $480 $302 #
coedge $-1 $594 $486 $481 $630 forward $602 $-1 #
edge $-1 $488 -20 $631 20 $629 $703 forward 7 unknown #
vertex $-1 $630 $704 #
straight-curve $-1 20 -20 0 0 0 -1 I I #
model_id-kcp-attrib $-1 $-1 $-1 $483 1 990663939 60 842792961 10 #
plane-surface $-1 0 -20 0 0 1 0 0 0 1 forward_v I I I I #
coedge $-1 $486 $594 $596 $688 forward $602 $-1 #
vertex $-1 $487 $705 #
straight-curve $-1 -20 0 -20 0 -1 0 I I #
point $-1 -20 -20 -20 #
model_id-kcp-attrib $-1 $-1 $-1 $491 1 990663939 60 842792961 12 #
plane-surface $-1 0 20 0 0 -1 0 0 0 -1 forward_v I I I I #
straight-curve $-1 -40 40 0 0 0 -1 I I #
point $-1 -40 -40 -20 #
straight-curve $-1 -40 0 -20 0 1 0 I I #
point $-1 -40 40 -20 #
coedge $-1 $527 $522 $518 $646 reversed $515 $-1 #
edge $-1 $647 -20 $524 20 $518 $706 forward 7 unknown #
vertex $-1 $530 $707 #
straight-curve $-1 20 -20 -20 0 0 1 I I #
point $-1 20 -20 20 #
straight-curve $-1 0 20 -20 -1 0 0 I I #
point $-1 20 20 -20 #
straight-curve $-1 0 -20 -20 1 0 0 I I #
convexity-sys-attrib $-1 $-1 $-1 $538 #
straight-curve $-1 10 -10 -120 0 1 0 I I #
point $-1 10 -10 -100 #
point $-1 10 -10 -120 #
straight-curve $-1 15 -10 -100 1 0 0 I I #
straight-curve $-1 10 10 -70 0 0 1 I I #
convexity-sys-attrib $-1 $-1 $-1 $547 #
straight-curve $-1 0 -10 -120 -1 0 0 I I #
point $-1 10 10 -120 #
coedge $-1 $565 $560 $556 $663 reversed $553 $-1 #
edge $-1 $665 -60 $562 -40 $662 $708 forward 7 unknown #
convexity-sys-attrib $-1 $-1 $-1 $557 #
vertex $-1 $557 $709 #
straight-curve $-1 10 0 -120 0 1 0 I I #
point $-1 10 -10 -120 #
straight-curve $-1 -15 10 -100 -1 0 0 I I #
point $-1 10 10 -100 #
convexity-sys-attrib $-1 $-1 $-1 $568 #
straight-curve $-1 0 10 -120 1 0 0 I I #
straight-curve $-1 40 -10 5 0 0 1 I I #
convexity-sys-attrib $-1 $-1 $573 $422 #
point $-1 40 -10 0 #
convexity-sys-attrib $-1 $-1 $577 $427 #
attrib_edge_convexity-kcp-attrib $-1 $710 $-1 $579 1 #
vertex $-1 $590 $711 #
straight-curve $-1 -20 20 0 0 0 -1 I I #
point $-1 -20 20 20 #
coedge $-1 $697 $589 $586 $681 forward $626 $-1 #
edge $-1 $591 -20 $712 20 $586 $713 forward 7 unknown #
model_id-kcp-attrib $-1 $-1 $-1 $587 1 990663939 60 842792961 18 #
plane-surface $-1 40 0 0 -1 0 0 0 0 1 forward_v I I I I #
straight-curve $-1 0 40 20 -1 0 0 I I #
point $-1 40 40 20 #
straight-curve $-1 0 20 20 1 0 0 I I #
straight-curve $-1 20 0 -20 0 1 0 I I #
edge $-1 $598 -20 $636 20 $635 $714 forward 7 unknown #
point $-1 20 20 -20 #
coedge $-1 $607 $618 $604 $691 forward $619 $-1 #
edge $-1 $712 -40 $610 40 $604 $715 forward 7 unknown #
attrib_edge_convexity-kcp-attrib $-1 $716 $-1 $608 1 #
straight-curve $-1 0 -40 -20 -1 0 0 I I #
convexity-sys-attrib $-1 $-1 $609 $464 #
point $-1 40 -40 -20 #
convexity-sys-attrib $-1 $-1 $614 $468 #
coedge $-1 $616 $680 $618 $700 reversed $626 $-1 #
attrib_edge_convexity-kcp-attrib $-1 $717 $-1 $617 1 #
straight-curve $-1 -40 40 0 0 0 -1 I I #
edge $-1 $621 -40 $712 40 $697 $718 forward 7 unknown #
convexity-sys-attrib $-1 $-1 $620 $471 #
point $-1 -40 40 -20 #
straight-curve $-1 0 -20 -20 1 0 0 I I #
point $-1 20 -20 -20 #
point $-1 -20 20 -20 #
straight-curve $-1 20 0 -20 0 1 0 I I #
point $-1 20 -20 -20 #
straight-curve $-1 10 10 -60 0 0 1 I I #
point $-1 10 10 -120 #
convexity-sys-attrib $-1 $-1 $676 $579 #
point $-1 -40 40 20 #
vertex $-1 $691 $719 #
straight-curve $-1 40 40 0 0 0 -1 I I #
straight-curve $-1 0 20 -20 -1 0 0 I I #
straight-curve $-1 40 0 -20 0 -1 0 I I #
convexity-sys-attrib $-1 $-1 $692 $608 #
convexity-sys-attrib $-1 $-1 $698 $617 #
straight-curve $-1 0 40 -20 1 0 0 I I #
point $-1 40 40 -20 #
End-of-ACIS-data 