600 0 1 0           
81 GICL ACIS Healer - Source: /gicl/data5/repository/Heriot_Watt/ex12/ex12.sat - 6 0 18 ACIS 6.0.3 Solaris 24 Sat Apr 13 23:39:05 2002 
1 9.999999999999999547e-07 1.000000000000000036e-10 
body $-1 $1 $-1 $-1 #
lump $-1 $-1 $2 $0 #
shell $-1 $-1 $-1 $3 $-1 $1 #
face $-1 $4 $5 $2 $-1 $6 reversed single #
face $-1 $7 $8 $2 $-1 $9 reversed single #
loop $-1 $-1 $10 $3 #
plane-surface $-1 0 -45 0 0 1 0 0 0 1 forward_v I I I I #
face $-1 $11 $12 $2 $-1 $13 forward single #
loop $-1 $-1 $14 $4 #
plane-surface $-1 0 -35 0 0 -1 0 0 0 -1 forward_v I I I I #
coedge $-1 $15 $16 $17 $18 forward $5 $-1 #
face $-1 $19 $20 $2 $-1 $21 forward single #
loop $-1 $-1 $22 $7 #
plane-surface $-1 0 0 0 0 0 1 1 0 0 forward_v I I I I #
coedge $-1 $23 $24 $25 $26 reversed $8 $-1 #
coedge $-1 $27 $10 $28 $29 reversed $5 $-1 #
coedge $-1 $10 $27 $30 $31 reversed $5 $-1 #
coedge $-1 $32 $33 $10 $18 reversed $34 $-1 #
edge $-1 $35 -20 $36 20 $17 $37 forward 7 unknown #
face $-1 $38 $39 $2 $-1 $40 reversed single #
loop $-1 $-1 $41 $11 #
plane-surface $-1 10 0 10 -1 0 0 0 0 1 forward_v I I I I #
coedge $-1 $42 $43 $24 $44 forward $12 $-1 #
coedge $-1 $45 $14 $46 $47 reversed $8 $-1 #
coedge $-1 $14 $45 $22 $44 reversed $8 $-1 #
coedge $-1 $48 $49 $14 $26 forward $50 $-1 #
edge $-1 $51 -15 $52 5 $25 $53 forward 7 unknown #
coedge $-1 $16 $15 $54 $55 reversed $5 $-1 #
coedge $-1 $56 $57 $15 $29 forward $58 $-1 #
edge $-1 $59 -40 $36 40 $15 $60 forward 7 unknown #
coedge $-1 $61 $62 $16 $31 forward $63 $-1 #
edge $-1 $35 -40 $64 40 $16 $65 forward 7 unknown #
coedge $-1 $66 $17 $62 $67 reversed $34 $-1 #
coedge $-1 $17 $66 $56 $68 reversed $34 $-1 #
loop $-1 $-1 $32 $69 #
vertex $-1 $67 $70 #
vertex $-1 $68 $71 #
straight-curve $-1 -40 -45 0 0 0 -1 I I #
face $-1 $72 $73 $2 $-1 $74 reversed single #
loop $-1 $-1 $75 $19 #
plane-surface $-1 40 0 0 -1 0 0 0 0 1 forward_v I I I I #
coedge $-1 $76 $77 $45 $78 forward $20 $-1 #
coedge $-1 $79 $22 $77 $80 reversed $12 $-1 #
coedge $-1 $22 $79 $48 $81 reversed $12 $-1 #
edge $-1 $52 -10 $82 10 $22 $83 forward 7 unknown #
coedge $-1 $24 $23 $41 $78 reversed $8 $-1 #
coedge $-1 $84 $85 $23 $47 forward $86 $-1 #
edge $-1 $87 -10 $51 10 $23 $88 forward 7 unknown #
coedge $-1 $89 $25 $43 $81 forward $50 $-1 #
coedge $-1 $25 $89 $84 $90 reversed $50 $-1 #
loop $-1 $-1 $25 $91 #
vertex $-1 $90 $92 #
vertex $-1 $44 $93 #
straight-curve $-1 -10 -35 5 0 0 -1 I I #
coedge $-1 $75 $94 $27 $55 forward $39 $-1 #
edge $-1 $64 -20 $59 20 $54 $95 forward 7 unknown #
coedge $-1 $96 $28 $33 $68 forward $58 $-1 #
coedge $-1 $28 $96 $75 $97 forward $58 $-1 #
loop $-1 $98 $56 $99 #
vertex $-1 $55 $100 #
straight-curve $-1 0 -45 -20 -1 0 0 I I #
coedge $-1 $101 $30 $94 $102 forward $63 $-1 #
coedge $-1 $30 $101 $32 $67 forward $63 $-1 #
loop $-1 $-1 $62 $103 #
vertex $-1 $102 $104 #
straight-curve $-1 0 -45 20 1 0 0 I I #
coedge $-1 $33 $32 $105 $106 forward $34 $-1 #
edge $-1 $107 -45 $35 45 $32 $108 forward 7 unknown #
edge $-1 $36 -45 $109 45 $33 $110 forward 7 unknown #
face $-1 $99 $34 $2 $-1 $111 reversed single #
point $-1 -40 -45 20 #
point $-1 -40 -45 -20 #
face $-1 $112 $113 $2 $-1 $114 reversed single #
loop $-1 $-1 $115 $38 #
plane-surface $-1 0 35 0 0 1 0 0 0 1 forward_v I I I I #
coedge $-1 $116 $54 $57 $97 reversed $39 $-1 #
coedge $-1 $117 $41 $85 $118 reversed $20 $-1 #
coedge $-1 $41 $117 $42 $80 forward $20 $-1 #
edge $-1 $82 -5 $87 15 $41 $119 forward 7 unknown #
coedge $-1 $43 $42 $120 $121 forward $12 $-1 #
edge $-1 $122 11.18033988749894903 $82 35 $77 $123 forward 7 unknown #
edge $-1 $52 -35 $124 -11.18033988749894903 $48 $125 forward 7 unknown #
vertex $-1 $80 $126 #
straight-curve $-1 0 -35 0 1 0 0 I I #
coedge $-1 $127 $46 $49 $90 forward $86 $-1 #
coedge $-1 $46 $128 $76 $118 forward $86 $-1 #
loop $-1 $63 $84 $103 #
vertex $-1 $118 $129 #
straight-curve $-1 0 -35 20 -1 0 0 I I #
coedge $-1 $49 $48 $130 $131 forward $50 $-1 #
edge $-1 $51 -35 $132 -11.18033988749894903 $84 $133 forward 7 unknown #
face $-1 $134 $50 $2 $-1 $135 forward single #
point $-1 -10 -35 20 #
point $-1 -10 -35 0 #
coedge $-1 $54 $116 $61 $102 reversed $39 $-1 #
straight-curve $-1 40 -45 0 0 0 -1 I I #
coedge $-1 $57 $56 $136 $137 forward $58 $-1 #
edge $-1 $138 -45 $59 45 $75 $139 forward 7 unknown #
loop $-1 $140 $141 $99 #
face $-1 $142 $58 $2 $-1 $143 reversed single #
point $-1 40 -45 -20 #
coedge $-1 $62 $61 $144 $145 forward $63 $-1 #
edge $-1 $64 -45 $146 45 $94 $147 forward 7 unknown #
face $-1 $69 $86 $2 $-1 $148 forward single #
point $-1 40 -45 20 #
coedge $-1 $144 $136 $66 $106 reversed $113 $-1 #
edge $-1 $107 -20 $109 20 $105 $149 forward 7 unknown #
vertex $-1 $145 $150 #
straight-curve $-1 -40 0 20 0 -1 0 I I #
vertex $-1 $137 $151 #
straight-curve $-1 -40 0 -20 0 1 0 I I #
plane-surface $-1 -40 0 0 1 0 0 0 0 -1 forward_v I I I I #
face $-1 $103 $152 $2 $-1 $135 forward single #
loop $-1 $-1 $153 $72 #
plane-surface $-1 0 45 0 0 -1 0 0 0 -1 forward_v I I I I #
coedge $-1 $154 $155 $156 $157 reversed $73 $-1 #
coedge $-1 $94 $75 $153 $158 reversed $39 $-1 #
coedge $-1 $77 $76 $159 $160 forward $20 $-1 #
edge $-1 $161 11.18033988749894903 $87 35 $85 $162 forward 7 unknown #
straight-curve $-1 10 -35 5 0 0 1 I I #
coedge $-1 $159 $130 $79 $121 reversed $163 $-1 #
edge $-1 $122 0.8410686705679303321 $124 2.300523983021863117 $79 $164 forward 7 unknown #
vertex $-1 $160 $165 #
straight-curve $-1 10 0 0 0 -1 0 I I #
vertex $-1 $81 $166 #
straight-curve $-1 -10 0 0 0 1 0 I I #
point $-1 10 -35 0 #
coedge $-1 $167 $84 $168 $169 forward $86 $-1 #
coedge $-1 $85 $170 $171 $172 forward $86 $-1 #
point $-1 10 -35 20 #
coedge $-1 $120 $168 $89 $131 reversed $163 $-1 #
edge $-1 $124 0 $132 20 $89 $173 forward 7 unknown #
vertex $-1 $90 $174 #
straight-curve $-1 -10 0 20 0 1 0 I I #
face $-1 $-1 $175 $2 $-1 $13 forward single #
plane-surface $-1 -10 0 10 1 0 0 0 0 -1 forward_v I I I I #
coedge $-1 $105 $153 $96 $137 reversed $113 $-1 #
edge $-1 $109 -40 $138 40 $136 $176 forward 7 unknown #
vertex $-1 $97 $177 #
straight-curve $-1 40 0 -20 0 -1 0 I I #
loop $-1 $-1 $178 $99 #
coedge $-1 $179 $179 $180 $181 forward $98 $-1 #
face $-1 $182 $183 $2 $-1 $184 forward single #
plane-surface $-1 0 0 -20 0 0 1 1 0 0 forward_v I I I I #
coedge $-1 $153 $105 $101 $145 reversed $113 $-1 #
edge $-1 $146 -40 $107 40 $144 $185 forward 7 unknown #
vertex $-1 $102 $186 #
straight-curve $-1 40 0 20 0 1 0 I I #
plane-surface $-1 0 0 20 0 0 1 1 0 0 forward_v I I I I #
straight-curve $-1 -40 45 0 0 0 -1 I I #
point $-1 -40 45 20 #
point $-1 -40 45 -20 #
loop $-1 $-1 $156 $112 #
coedge $-1 $136 $144 $116 $158 forward $113 $-1 #
coedge $-1 $187 $115 $188 $189 reversed $73 $-1 #
coedge $-1 $115 $187 $190 $191 reversed $73 $-1 #
coedge $-1 $192 $193 $115 $157 forward $152 $-1 #
edge $-1 $194 -5 $195 15 $156 $196 forward 7 unknown #
edge $-1 $146 -20 $138 20 $116 $197 forward 7 unknown #
coedge $-1 $171 $120 $117 $160 reversed $163 $-1 #
edge $-1 $161 -20 $122 0 $117 $198 forward 7 unknown #
vertex $-1 $160 $199 #
straight-curve $-1 10 0 20 0 -1 0 I I #
loop $-1 $-1 $159 $200 #
ellipse-curve $-1 0 0 0 0 0 -1 15 0 0 1 I I #
point $-1 10 -11.18033988749894903 0 #
point $-1 -10 -11.18033988749894903 0 #
coedge $-1 $190 $127 $192 $201 forward $86 $-1 #
coedge $-1 $130 $202 $127 $169 reversed $163 $-1 #
edge $-1 $132 2.300523983021863117 $203 3.982661324157723115 $127 $204 forward 7 unknown #
coedge $-1 $128 $190 $205 $206 forward $86 $-1 #
coedge $-1 $207 $159 $128 $172 reversed $163 $-1 #
edge $-1 $208 -0.8410686705679303321 $161 0.8410686705679303321 $128 $209 forward 7 unknown #
straight-curve $-1 -10 -11.18033988749894903 0 0 0 1 I I #
point $-1 -10 -11.18033988749894903 20 #
loop $-1 $-1 $188 $134 #
straight-curve $-1 0 45 -20 1 0 0 I I #
point $-1 40 45 -20 #
coedge $-1 $210 $210 $211 $212 forward $140 $-1 #
coedge $-1 $141 $141 $213 $214 forward $98 $-1 #
coedge $-1 $215 $216 $141 $181 reversed $217 $-1 #
edge $-1 $218 -14.14213562373095101 $219 14.14213562373095101 $180 $220 forward 7 unknown #
face $-1 $221 $222 $2 $-1 $223 reversed single #
loop $-1 $-1 $224 $142 #
plane-surface $-1 0 0 10 0 0 1 1 0 0 forward_v I I I I #
straight-curve $-1 0 45 20 -1 0 0 I I #
point $-1 40 45 20 #
coedge $-1 $155 $154 $225 $226 reversed $73 $-1 #
coedge $-1 $227 $228 $154 $189 forward $175 $-1 #
edge $-1 $229 -10 $194 10 $188 $230 forward 7 unknown #
coedge $-1 $170 $167 $155 $191 forward $86 $-1 #
edge $-1 $195 -10 $231 10 $155 $232 forward 7 unknown #
coedge $-1 $233 $156 $167 $201 reversed $152 $-1 #
coedge $-1 $156 $233 $227 $234 forward $152 $-1 #
vertex $-1 $234 $235 #
vertex $-1 $201 $236 #
straight-curve $-1 -10 35 5 0 0 1 I I #
straight-curve $-1 40 45 0 0 0 -1 I I #
straight-curve $-1 10 -11.18033988749894903 0 0 0 -1 I I #
point $-1 10 -11.18033988749894903 20 #
face $-1 $237 $238 $2 $-1 $239 reversed single #
edge $-1 $203 11.18033988749894903 $195 35 $167 $133 forward 7 unknown #
coedge $-1 $168 $240 $233 $241 reversed $163 $-1 #
vertex $-1 $241 $242 #
ellipse-curve $-1 0 0 20 0 0 -1 15 0 0 1 I I #
coedge $-1 $225 $243 $170 $206 reversed $244 $-1 #
edge $-1 $231 -35 $208 -11.18033988749894903 $170 $162 forward 7 unknown #
coedge $-1 $240 $171 $243 $245 reversed $163 $-1 #
vertex $-1 $206 $246 #
ellipse-curve $-1 0 0 20 0 0 -1 15 0 0 1 I I #
coedge $-1 $178 $178 $247 $248 forward $140 $-1 #
coedge $-1 $249 $250 $178 $212 reversed $238 $-1 #
edge $-1 $251 -2.8017557441356713 $252 -0.3398369094541219271 $178 $253 forward 7 unknown #
coedge $-1 $254 $255 $179 $214 reversed $238 $-1 #
edge $-1 $219 0.3398369094541219271 $218 2.8017557441356713 $179 $253 forward 7 unknown #
coedge $-1 $256 $180 $255 $257 reversed $217 $-1 #
coedge $-1 $180 $256 $254 $258 reversed $217 $-1 #
loop $-1 $-1 $215 $221 #
vertex $-1 $214 $259 #
vertex $-1 $214 $260 #
straight-curve $-1 0 5 -20 1 0 0 I I #
face $-1 $200 $217 $2 $-1 $261 reversed single #
loop $-1 $-1 $262 $182 #
plane-surface $-1 0 -5 -5 0 1 0 0 0 1 forward_v I I I I #
coedge $-1 $263 $264 $265 $266 reversed $183 $-1 #
coedge $-1 $267 $205 $187 $226 forward $244 $-1 #
edge $-1 $231 -15 $229 5 $225 $268 forward 7 unknown #
coedge $-1 $269 $188 $193 $234 reversed $175 $-1 #
coedge $-1 $188 $269 $267 $270 reversed $175 $-1 #
vertex $-1 $226 $271 #
straight-curve $-1 0 35 0 -1 0 0 I I #
vertex $-1 $206 $272 #
straight-curve $-1 0 35 20 1 0 0 I I #
coedge $-1 $193 $192 $202 $241 forward $152 $-1 #
edge $-1 $273 11.18033988749894903 $194 35 $193 $125 forward 7 unknown #
point $-1 -10 35 0 #
point $-1 -10 35 20 #
face $-1 $91 $244 $2 $-1 $21 forward single #
loop $-1 $163 $255 $200 #
cone-surface $-1 0 0 0 0 0 1 15 0 0 1 I I 0 1 15 forward I I I I #
coedge $-1 $202 $207 $269 $274 reversed $163 $-1 #
edge $-1 $203 -20 $273 0 $233 $275 forward 7 unknown #
point $-1 -10 11.18033988749894903 20 #
coedge $-1 $205 $267 $207 $245 forward $244 $-1 #
loop $-1 $-1 $225 $237 #
edge $-1 $276 0 $208 20 $243 $277 forward 7 unknown #
point $-1 10 11.18033988749894903 20 #
coedge $-1 $278 $262 $210 $248 reversed $222 $-1 #
edge $-1 $252 -14.14213562373095101 $251 14.14213562373095101 $247 $279 forward 7 unknown #
coedge $-1 $265 $211 $262 $280 forward $238 $-1 #
coedge $-1 $211 $281 $278 $282 forward $238 $-1 #
vertex $-1 $212 $283 #
vertex $-1 $212 $284 #
ellipse-curve $-1 0 0 -20 0 0 1 15 0 0 1 I I #
coedge $-1 $281 $213 $216 $258 forward $238 $-1 #
coedge $-1 $213 $265 $215 $257 forward $238 $-1 #
coedge $-1 $216 $215 $264 $285 reversed $217 $-1 #
edge $-1 $286 -10 $218 20 $255 $287 forward 7 unknown #
edge $-1 $219 -20 $288 10 $254 $289 forward 7 unknown #
point $-1 -14.14213562373095101 5 -20 #
point $-1 14.14213562373095101 5 -20 #
plane-surface $-1 0 5 -5 0 -1 0 0 0 -1 forward_v I I I I #
coedge $-1 $247 $290 $249 $280 reversed $222 $-1 #
coedge $-1 $291 $224 $290 $292 forward $183 $-1 #
coedge $-1 $224 $291 $256 $285 forward $183 $-1 #
coedge $-1 $255 $249 $224 $266 forward $238 $-1 #
edge $-1 $293 2.8017557441356713 $286 3.481429563043914932 $265 $294 forward 7 unknown #
coedge $-1 $243 $225 $228 $270 forward $244 $-1 #
straight-curve $-1 10 35 5 0 0 -1 I I #
coedge $-1 $228 $227 $240 $274 forward $175 $-1 #
edge $-1 $229 -35 $276 -11.18033988749894903 $267 $123 forward 7 unknown #
point $-1 10 35 0 #
point $-1 10 35 20 #
vertex $-1 $274 $295 #
edge $-1 $273 -2.300523983021863117 $276 -0.8410686705679303321 $269 $164 forward 7 unknown #
straight-curve $-1 -10 11.18033988749894903 0 0 0 -1 I I #
vertex $-1 $270 $296 #
straight-curve $-1 10 11.18033988749894903 0 0 0 1 I I #
coedge $-1 $290 $247 $250 $282 reversed $222 $-1 #
straight-curve $-1 0 -5 -20 -1 0 0 I I #
edge $-1 $251 -20 $293 10 $249 $297 forward 7 unknown #
coedge $-1 $250 $254 $291 $298 forward $238 $-1 #
edge $-1 $299 -10 $252 20 $250 $300 forward 7 unknown #
point $-1 -14.14213562373095101 -5 -20 #
point $-1 14.14213562373095101 -5 -20 #
edge $-1 $288 -14.14213562373095101 $286 14.14213562373095101 $256 $301 forward 7 unknown #
vertex $-1 $266 $302 #
straight-curve $-1 -14.14213562373095101 5 0 0 0 -1 I I #
vertex $-1 $298 $303 #
straight-curve $-1 14.14213562373095101 5 0 0 0 1 I I #
coedge $-1 $262 $278 $263 $292 reversed $222 $-1 #
coedge $-1 $264 $263 $281 $298 reversed $183 $-1 #
edge $-1 $293 -14.14213562373095101 $299 14.14213562373095101 $290 $304 forward 7 unknown #
vertex $-1 $266 $305 #
ellipse-curve $-1 0 0 10 0 0 -1 15 0 0 1 I I #
point $-1 -10 11.18033988749894903 0 #
point $-1 10 11.18033988749894903 0 #
straight-curve $-1 -14.14213562373095101 -5 0 0 0 1 I I #
edge $-1 $288 -0.3398369094541219271 $299 0.3398369094541219271 $281 $294 forward 7 unknown #
vertex $-1 $298 $306 #
straight-curve $-1 14.14213562373095101 -5 0 0 0 -1 I I #
straight-curve $-1 0 5 10 -1 0 0 I I #
point $-1 -14.14213562373095101 5 10 #
point $-1 14.14213562373095101 5 10 #
straight-curve $-1 0 -5 10 1 0 0 I I #
point $-1 -14.14213562373095101 -5 10 #
point $-1 14.14213562373095101 -5 10 #
End-of-ACIS-data 