106 0 1 0           
body $-1 $1 $-1 $-1 #
lump $-1 $-1 $2 $0 #
shell $-1 $-1 $-1 $3 $1 #
face $-1 $4 $5 $2 $-1 $6 reversed single #
face $-1 $7 $8 $2 $-1 $9 reversed single #
loop $-1 $-1 $10 $3 #
plane-surface $-1 0 -45 0 0 1 0 0 0 1 0 I I I I #
face $-1 $11 $12 $2 $-1 $13 forward single #
loop $-1 $-1 $14 $4 #
plane-surface $-1 0 -35 0 0 -1 0 0 0 -1 0 I I I I #
coedge $-1 $15 $16 $17 $18 0 $5 $-1 #
face $-1 $19 $20 $2 $-1 $21 forward single #
loop $-1 $-1 $22 $7 #
plane-surface $-1 0 0 0 0 0 1 1 0 0 0 I I I I #
coedge $-1 $23 $24 $25 $26 1 $8 $-1 #
coedge $-1 $27 $10 $28 $29 1 $5 $-1 #
coedge $-1 $10 $27 $30 $31 1 $5 $-1 #
coedge $-1 $32 $33 $10 $18 1 $34 $-1 #
edge $-1 $35 $36 $17 $37 0 #
face $-1 $38 $39 $2 $-1 $40 reversed single #
loop $-1 $-1 $41 $11 #
plane-surface $-1 10 0 10 -1 0 0 0 0 1 0 I I I I #
coedge $-1 $42 $43 $24 $44 0 $12 $-1 #
coedge $-1 $45 $14 $46 $47 1 $8 $-1 #
coedge $-1 $14 $45 $22 $44 1 $8 $-1 #
coedge $-1 $48 $49 $14 $26 0 $50 $-1 #
edge $-1 $51 $52 $25 $53 0 #
coedge $-1 $16 $15 $54 $55 1 $5 $-1 #
coedge $-1 $56 $57 $15 $29 0 $58 $-1 #
edge $-1 $59 $36 $15 $60 0 #
coedge $-1 $61 $62 $16 $31 0 $63 $-1 #
edge $-1 $35 $64 $16 $65 0 #
coedge $-1 $66 $17 $62 $67 1 $34 $-1 #
coedge $-1 $17 $66 $56 $68 1 $34 $-1 #
loop $-1 $-1 $32 $69 #
vertex $-1 $67 $70 #
vertex $-1 $68 $71 #
straight-curve $-1 -40 -45 0 0 0 -1 I I #
face $-1 $72 $73 $2 $-1 $74 reversed single #
loop $-1 $-1 $75 $19 #
plane-surface $-1 40 0 0 -1 0 0 0 0 1 0 I I I I #
coedge $-1 $76 $77 $45 $78 0 $20 $-1 #
coedge $-1 $79 $22 $77 $80 1 $12 $-1 #
coedge $-1 $22 $79 $48 $81 1 $12 $-1 #
edge $-1 $52 $82 $22 $83 0 #
coedge $-1 $24 $23 $41 $78 1 $8 $-1 #
coedge $-1 $84 $85 $23 $47 0 $86 $-1 #
edge $-1 $87 $51 $23 $88 0 #
coedge $-1 $89 $25 $43 $81 0 $50 $-1 #
coedge $-1 $25 $89 $84 $90 1 $50 $-1 #
loop $-1 $-1 $25 $91 #
vertex $-1 $90 $92 #
vertex $-1 $44 $93 #
straight-curve $-1 -10 -35 5 0 0 -1 I I #
coedge $-1 $75 $94 $27 $55 0 $39 $-1 #
edge $-1 $64 $59 $54 $95 0 #
coedge $-1 $96 $28 $33 $68 0 $58 $-1 #
coedge $-1 $28 $96 $75 $97 0 $58 $-1 #
loop $-1 $98 $56 $99 #
vertex $-1 $55 $100 #
straight-curve $-1 0 -45 -20 -1 0 0 I I #
coedge $-1 $101 $30 $94 $102 0 $63 $-1 #
coedge $-1 $30 $101 $32 $67 0 $63 $-1 #
loop $-1 $-1 $62 $103 #
vertex $-1 $102 $104 #
straight-curve $-1 0 -45 20 1 0 0 I I #
coedge $-1 $33 $32 $105 $106 0 $34 $-1 #
edge $-1 $107 $35 $32 $108 0 #
edge $-1 $36 $109 $33 $110 0 #
face $-1 $99 $34 $2 $-1 $111 reversed single #
point $-1 -40 -45 20 #
point $-1 -40 -45 -20 #
face $-1 $112 $113 $2 $-1 $114 reversed single #
loop $-1 $-1 $115 $38 #
plane-surface $-1 0 35 0 0 1 0 0 0 1 0 I I I I #
coedge $-1 $116 $54 $57 $97 1 $39 $-1 #
coedge $-1 $117 $41 $85 $118 1 $20 $-1 #
coedge $-1 $41 $117 $42 $80 0 $20 $-1 #
edge $-1 $82 $87 $41 $119 0 #
coedge $-1 $43 $42 $120 $121 0 $12 $-1 #
edge $-1 $122 $82 $77 $123 0 #
edge $-1 $52 $124 $48 $125 0 #
vertex $-1 $80 $126 #
straight-curve $-1 0 -35 0 1 0 0 I I #
coedge $-1 $127 $46 $49 $90 0 $86 $-1 #
coedge $-1 $46 $128 $76 $118 0 $86 $-1 #
loop $-1 $63 $84 $103 #
vertex $-1 $118 $129 #
straight-curve $-1 0 -35 20 -1 0 0 I I #
coedge $-1 $49 $48 $130 $131 0 $50 $-1 #
edge $-1 $51 $132 $84 $133 0 #
face $-1 $134 $50 $2 $-1 $135 forward single #
point $-1 -10 -35 20 #
point $-1 -10 -35 0 #
coedge $-1 $54 $116 $61 $102 1 $39 $-1 #
straight-curve $-1 40 -45 0 0 0 -1 I I #
coedge $-1 $57 $56 $136 $137 0 $58 $-1 #
edge $-1 $138 $59 $75 $139 0 #
loop $-1 $140 $141 $99 #
face $-1 $142 $58 $2 $-1 $143 reversed single #
point $-1 40 -45 -20 #
coedge $-1 $62 $61 $144 $145 0 $63 $-1 #
edge $-1 $64 $146 $94 $147 0 #
face $-1 $69 $86 $2 $-1 $148 forward single #
point $-1 40 -45 20 #
coedge $-1 $144 $136 $66 $106 1 $113 $-1 #
edge $-1 $107 $109 $105 $149 0 #
vertex $-1 $145 $150 #
straight-curve $-1 -40 0 20 0 -1 0 I I #
vertex $-1 $137 $151 #
straight-curve $-1 -40 0 -20 0 1 0 I I #
plane-surface $-1 -40 0 0 1 0 0 0 0 -1 0 I I I I #
face $-1 $103 $152 $2 $-1 $135 forward single #
loop $-1 $-1 $153 $72 #
plane-surface $-1 0 45 0 0 -1 0 0 0 -1 0 I I I I #
coedge $-1 $154 $155 $156 $157 1 $73 $-1 #
coedge $-1 $94 $75 $153 $158 1 $39 $-1 #
coedge $-1 $77 $76 $159 $160 0 $20 $-1 #
edge $-1 $161 $87 $85 $162 0 #
straight-curve $-1 10 -35 5 0 0 1 I I #
coedge $-1 $159 $130 $79 $121 1 $163 $-1 #
edge $-1 $122 $124 $79 $164 0 #
vertex $-1 $160 $165 #
straight-curve $-1 10 0 0 0 -1 0 I I #
vertex $-1 $81 $166 #
straight-curve $-1 -10 0 0 0 1 0 I I #
point $-1 10 -35 0 #
coedge $-1 $167 $84 $168 $169 0 $86 $-1 #
coedge $-1 $85 $170 $171 $172 0 $86 $-1 #
point $-1 10 -35 20 #
coedge $-1 $120 $168 $89 $131 1 $163 $-1 #
edge $-1 $124 $132 $89 $173 0 #
vertex $-1 $90 $174 #
straight-curve $-1 -10 0 20 0 1 0 I I #
face $-1 $-1 $175 $2 $-1 $13 forward single #
plane-surface $-1 -10 0 10 1 0 0 0 0 -1 0 I I I I #
coedge $-1 $105 $153 $96 $137 1 $113 $-1 #
edge $-1 $109 $138 $136 $176 0 #
vertex $-1 $97 $177 #
straight-curve $-1 40 0 -20 0 -1 0 I I #
loop $-1 $-1 $178 $99 #
coedge $-1 $179 $179 $180 $181 0 $98 $-1 #
face $-1 $182 $183 $2 $-1 $184 forward single #
plane-surface $-1 0 0 -20 0 0 1 1 0 0 0 I I I I #
coedge $-1 $153 $105 $101 $145 1 $113 $-1 #
edge $-1 $146 $107 $144 $185 0 #
vertex $-1 $102 $186 #
straight-curve $-1 40 0 20 0 1 0 I I #
plane-surface $-1 0 0 20 0 0 1 1 0 0 0 I I I I #
straight-curve $-1 -40 45 0 0 0 -1 I I #
point $-1 -40 45 20 #
point $-1 -40 45 -20 #
loop $-1 $-1 $156 $112 #
coedge $-1 $136 $144 $116 $158 0 $113 $-1 #
coedge $-1 $187 $115 $188 $189 1 $73 $-1 #
coedge $-1 $115 $187 $190 $191 1 $73 $-1 #
coedge $-1 $192 $193 $115 $157 0 $152 $-1 #
edge $-1 $194 $195 $156 $196 0 #
edge $-1 $146 $138 $116 $197 0 #
coedge $-1 $171 $120 $117 $160 1 $163 $-1 #
edge $-1 $161 $122 $117 $198 0 #
vertex $-1 $160 $199 #
straight-curve $-1 10 0 20 0 -1 0 I I #
loop $-1 $-1 $159 $200 #
ellipse-curve $-1 0 0 0 0 0 -1 15 0 0 1 I I #
point $-1 10 -11.180339887498949 0 #
point $-1 -10 -11.180339887498949 0 #
coedge $-1 $190 $127 $192 $201 0 $86 $-1 #
coedge $-1 $130 $202 $127 $169 1 $163 $-1 #
edge $-1 $132 $203 $127 $204 0 #
coedge $-1 $128 $190 $205 $206 0 $86 $-1 #
coedge $-1 $207 $159 $128 $172 1 $163 $-1 #
edge $-1 $208 $161 $128 $209 0 #
straight-curve $-1 -10 -11.180339887498949 0 0 0 1 I I #
point $-1 -10 -11.180339887498949 20 #
loop $-1 $-1 $188 $134 #
straight-curve $-1 0 45 -20 1 0 0 I I #
point $-1 40 45 -20 #
coedge $-1 $210 $210 $211 $212 0 $140 $-1 #
coedge $-1 $141 $141 $213 $214 0 $98 $-1 #
coedge $-1 $215 $216 $141 $181 1 $217 $-1 #
edge $-1 $218 $219 $180 $220 0 #
face $-1 $221 $222 $2 $-1 $223 reversed single #
loop $-1 $-1 $224 $142 #
plane-surface $-1 0 0 10 0 0 1 1 0 0 0 I I I I #
straight-curve $-1 0 45 20 -1 0 0 I I #
point $-1 40 45 20 #
coedge $-1 $155 $154 $225 $226 1 $73 $-1 #
coedge $-1 $227 $228 $154 $189 0 $175 $-1 #
edge $-1 $229 $194 $188 $230 0 #
coedge $-1 $170 $167 $155 $191 0 $86 $-1 #
edge $-1 $195 $231 $155 $232 0 #
coedge $-1 $233 $156 $167 $201 1 $152 $-1 #
coedge $-1 $156 $233 $227 $234 0 $152 $-1 #
vertex $-1 $234 $235 #
vertex $-1 $201 $236 #
straight-curve $-1 -10 35 5 0 0 1 I I #
straight-curve $-1 40 45 0 0 0 -1 I I #
straight-curve $-1 10 -11.180339887498949 0 0 0 -1 I I #
point $-1 10 -11.180339887498949 20 #
face $-1 $237 $238 $2 $-1 $239 reversed single #
edge $-1 $203 $195 $167 $133 0 #
coedge $-1 $168 $240 $233 $241 1 $163 $-1 #
vertex $-1 $241 $242 #
ellipse-curve $-1 0 0 20 0 0 -1 15 0 0 1 I I #
coedge $-1 $225 $243 $170 $206 1 $244 $-1 #
edge $-1 $231 $208 $170 $162 0 #
coedge $-1 $240 $171 $243 $245 1 $163 $-1 #
vertex $-1 $206 $246 #
ellipse-curve $-1 0 0 20 0 0 -1 15 0 0 1 I I #
coedge $-1 $178 $178 $247 $248 0 $140 $-1 #
coedge $-1 $249 $250 $178 $212 1 $238 $-1 #
edge $-1 $251 $252 $178 $253 0 #
coedge $-1 $254 $255 $179 $214 1 $238 $-1 #
edge $-1 $219 $218 $179 $253 0 #
coedge $-1 $256 $180 $255 $257 1 $217 $-1 #
coedge $-1 $180 $256 $254 $258 1 $217 $-1 #
loop $-1 $-1 $215 $221 #
vertex $-1 $214 $259 #
vertex $-1 $214 $260 #
straight-curve $-1 0 5 -20 1 0 0 I I #
face $-1 $200 $217 $2 $-1 $261 reversed single #
loop $-1 $-1 $262 $182 #
plane-surface $-1 0 -5 -5 0 1 0 0 0 1 0 I I I I #
coedge $-1 $263 $264 $265 $266 1 $183 $-1 #
coedge $-1 $267 $205 $187 $226 0 $244 $-1 #
edge $-1 $231 $229 $225 $268 0 #
coedge $-1 $269 $188 $193 $234 1 $175 $-1 #
coedge $-1 $188 $269 $267 $270 1 $175 $-1 #
vertex $-1 $226 $271 #
straight-curve $-1 0 35 0 -1 0 0 I I #
vertex $-1 $206 $272 #
straight-curve $-1 0 35 20 1 0 0 I I #
coedge $-1 $193 $192 $202 $241 0 $152 $-1 #
edge $-1 $273 $194 $193 $125 0 #
point $-1 -10 35 0 #
point $-1 -10 35 20 #
face $-1 $91 $244 $2 $-1 $21 forward single #
loop $-1 $163 $255 $200 #
cone-surface $-1 0 0 0 0 0 1 15 0 0 1 I I 0 1 0 I I I I #
coedge $-1 $202 $207 $269 $274 1 $163 $-1 #
edge $-1 $203 $273 $233 $275 0 #
point $-1 -10 11.180339887498949 20 #
coedge $-1 $205 $267 $207 $245 0 $244 $-1 #
loop $-1 $-1 $225 $237 #
edge $-1 $276 $208 $243 $277 0 #
point $-1 10 11.180339887498949 20 #
coedge $-1 $278 $262 $210 $248 1 $222 $-1 #
edge $-1 $252 $251 $247 $279 0 #
coedge $-1 $265 $211 $262 $280 0 $238 $-1 #
coedge $-1 $211 $281 $278 $282 0 $238 $-1 #
vertex $-1 $212 $283 #
vertex $-1 $212 $284 #
ellipse-curve $-1 0 0 -20 0 0 1 15 0 0 1 I I #
coedge $-1 $281 $213 $216 $258 0 $238 $-1 #
coedge $-1 $213 $265 $215 $257 0 $238 $-1 #
coedge $-1 $216 $215 $264 $285 1 $217 $-1 #
edge $-1 $286 $218 $255 $287 0 #
edge $-1 $219 $288 $254 $289 0 #
point $-1 -14.142135623730951 5 -20 #
point $-1 14.142135623730951 5 -20 #
plane-surface $-1 0 5 -5 0 -1 0 0 0 -1 0 I I I I #
coedge $-1 $247 $290 $249 $280 1 $222 $-1 #
coedge $-1 $291 $224 $290 $292 0 $183 $-1 #
coedge $-1 $224 $291 $256 $285 0 $183 $-1 #
coedge $-1 $255 $249 $224 $266 0 $238 $-1 #
edge $-1 $293 $286 $265 $294 0 #
coedge $-1 $243 $225 $228 $270 0 $244 $-1 #
straight-curve $-1 10 35 5 0 0 -1 I I #
coedge $-1 $228 $227 $240 $274 0 $175 $-1 #
edge $-1 $229 $276 $267 $123 0 #
point $-1 10 35 0 #
point $-1 10 35 20 #
vertex $-1 $274 $295 #
edge $-1 $273 $276 $269 $164 0 #
straight-curve $-1 -10 11.180339887498949 0 0 0 -1 I I #
vertex $-1 $270 $296 #
straight-curve $-1 10 11.180339887498949 0 0 0 1 I I #
coedge $-1 $290 $247 $250 $282 1 $222 $-1 #
straight-curve $-1 0 -5 -20 -1 0 0 I I #
edge $-1 $251 $293 $249 $297 0 #
coedge $-1 $250 $254 $291 $298 0 $238 $-1 #
edge $-1 $299 $252 $250 $300 0 #
point $-1 -14.142135623730951 -5 -20 #
point $-1 14.142135623730951 -5 -20 #
edge $-1 $288 $286 $256 $301 0 #
vertex $-1 $266 $302 #
straight-curve $-1 -14.142135623730951 5 0 0 0 -1 I I #
vertex $-1 $298 $303 #
straight-curve $-1 14.142135623730951 5 0 0 0 1 I I #
coedge $-1 $262 $278 $263 $292 1 $222 $-1 #
coedge $-1 $264 $263 $281 $298 1 $183 $-1 #
edge $-1 $293 $299 $290 $304 0 #
vertex $-1 $266 $305 #
ellipse-curve $-1 0 0 10 0 0 -1 15 0 0 1 I I #
point $-1 -10 11.180339887498949 0 #
point $-1 10 11.180339887498949 0 #
straight-curve $-1 -14.142135623730951 -5 0 0 0 1 I I #
edge $-1 $288 $299 $281 $294 0 #
vertex $-1 $298 $306 #
straight-curve $-1 14.142135623730951 -5 0 0 0 -1 I I #
straight-curve $-1 0 5 10 -1 0 0 I I #
point $-1 -14.142135623730951 5 10 #
point $-1 14.142135623730951 5 10 #
straight-curve $-1 0 -5 10 1 0 0 I I #
point $-1 -14.142135623730951 -5 10 #
point $-1 14.142135623730951 -5 10 #
End-of-ACIS-data 