700 0 2 0           
24 FBMach with ACIS - 7.0.3 13 ACIS 7.0.3 NT 24 Tue May 14 09:56:52 2002 
1 9.9999999999999995e-007 1e-010 
body $2 -1 $-1 $3 $-1 $4 #
bdycol-kcp $-1 -1 1 4 $5 $6 $7 $8 #
model_id-kcp-attrib $-1 -1 $-1 $-1 $0 1 1021384611 1021384611 1671364609 1 #
lump $-1 -1 $-1 $-1 $9 $0 #
transform $-1 -1 1 0 0 0 1 0 0 0 1 0 0 0 1 rotate no_reflect no_shear #
body $10 -1 $-1 $11 $-1 $12 #
body $13 -1 $-1 $14 $-1 $15 #
body $16 -1 $-1 $17 $-1 $18 #
body $19 -1 $-1 $20 $-1 $21 #
shell $-1 -1 $-1 $-1 $-1 $22 $-1 $3 #
model_id-kcp-attrib $-1 -1 $-1 $-1 $5 1 1021384611 1021384611 1671364610 1 #
lump $-1 -1 $-1 $-1 $23 $5 #
transform $-1 -1 1 0 0 0 1 0 0 0 1 0 0 0 1 no_rotate no_reflect no_shear #
rgb_color-st-attrib $-1 -1 $24 $-1 $6 0 0 1 #
lump $-1 -1 $-1 $-1 $25 $6 #
transform $-1 -1 1 0 0 0 1 0 0 0 1 0 0 0 1 no_rotate no_reflect no_shear #
rgb_color-st-attrib $-1 -1 $26 $-1 $7 0.59999999999999998 0.90000000000000002 1 #
lump $-1 -1 $-1 $-1 $27 $7 #
transform $-1 -1 1 0 0 0 1 0 0 0 1 0 0 0 1 no_rotate no_reflect no_shear #
rgb_color-st-attrib $-1 -1 $28 $-1 $8 0 0 1 #
lump $-1 -1 $-1 $-1 $29 $8 #
transform $-1 -1 1 0 0 0 1 0 0 0 1 0 0 0 1 no_rotate no_reflect no_shear #
face $30 -1 $-1 $31 $32 $9 $-1 $33 reversed single #
shell $-1 -1 $-1 $-1 $-1 $34 $-1 $11 #
model_id-kcp-attrib $-1 -1 $-1 $13 $6 1 1021384611 1021384611 1673265155 1 #
shell $-1 -1 $-1 $-1 $-1 $35 $-1 $14 #
model_id-kcp-attrib $-1 -1 $-1 $16 $7 1 1021384611 1021384612 1664876549 1 #
shell $-1 -1 $-1 $-1 $-1 $36 $-1 $17 #
model_id-kcp-attrib $-1 -1 $-1 $19 $8 1 1021384611 1021384612 1672478724 1 #
shell $-1 -1 $-1 $-1 $-1 $37 $-1 $20 #
model_id-kcp-attrib $-1 -1 $-1 $-1 $22 1 1021384611 1021384611 1671364609 2 #
face $38 -1 $-1 $39 $40 $9 $-1 $41 reversed single #
loop $-1 -1 $-1 $-1 $42 $22 #
plane-surface $-1 -1 $-1 0 -45 0 0 1 0 0 0 1 forward_v I I I I #
face $43 -1 $-1 $44 $45 $23 $-1 $46 forward single #
face $-1 -1 $-1 $47 $48 $25 $-1 $49 forward single #
face $-1 -1 $-1 $50 $51 $27 $-1 $52 forward single #
face $-1 -1 $-1 $53 $54 $29 $-1 $55 forward single #
model_id-kcp-attrib $-1 -1 $-1 $-1 $31 1 1021384611 1021384611 1671364609 3 #
face $56 -1 $-1 $57 $58 $9 $-1 $59 forward single #
loop $-1 -1 $-1 $-1 $60 $31 #
plane-surface $-1 -1 $-1 0 -35 0 0 -1 0 0 0 -1 forward_v I I I I #
coedge $-1 -1 $-1 $61 $62 $63 $64 forward $32 $-1 #
model_id-kcp-attrib $-1 -1 $-1 $-1 $34 1 1021384611 1021384611 1671364610 5 #
face $65 -1 $-1 $66 $67 $23 $-1 $68 reversed single #
loop $-1 -1 $-1 $-1 $69 $34 #
plane-surface $-1 -1 $-1 0 0 20 0 0 1 1 0 0 forward_v I I I I #
face $-1 -1 $-1 $70 $71 $25 $-1 $72 forward single #
loop $-1 -1 $-1 $-1 $73 $35 #
plane-surface $-1 -1 $-1 14.142135623730951 5 0 0 -1 0 0 0 -1 forward_v I I I I #
face $-1 -1 $-1 $74 $75 $27 $-1 $76 forward single #
loop $-1 -1 $-1 $-1 $77 $36 #
cone-surface $-1 -1 $-1 0 0 10 0 0 1 15 0 0 1 I I 0 1 15 forward I I I I #
face $-1 -1 $-1 $78 $79 $29 $-1 $80 forward single #
loop $-1 -1 $-1 $-1 $81 $37 #
plane-surface $-1 -1 $-1 -14.142135623730951 -5 0 0 1 0 0 0 1 forward_v I I I I #
model_id-kcp-attrib $-1 -1 $-1 $-1 $39 1 1021384611 1021384611 1671364609 4 #
face $82 -1 $-1 $83 $84 $9 $-1 $85 forward single #
loop $-1 -1 $-1 $-1 $86 $39 #
plane-surface $-1 -1 $-1 0 0 0 0 0 1 1 0 0 forward_v I I I I #
coedge $-1 -1 $-1 $87 $88 $89 $90 reversed $40 $-1 #
coedge $-1 -1 $-1 $91 $42 $92 $93 reversed $32 $-1 #
coedge $-1 -1 $-1 $42 $91 $94 $95 reversed $32 $-1 #
coedge $-1 -1 $-1 $96 $97 $42 $64 reversed $98 $-1 #
edge $99 -1 $-1 $100 -20 $101 20 $63 $102 forward @7 unknown #
model_id-kcp-attrib $-1 -1 $-1 $-1 $44 1 1021384611 1021384611 1671364610 7 #
face $103 -1 $-1 $104 $105 $23 $-1 $106 reversed single #
loop $-1 -1 $-1 $-1 $107 $44 #
plane-surface $-1 -1 $-1 0 0 -20 0 0 1 1 0 0 forward_v I I I I #
coedge $-1 -1 $-1 $108 $109 $110 $111 forward $45 $-1 #
face $-1 -1 $-1 $112 $113 $25 $-1 $114 forward single #
loop $-1 -1 $-1 $-1 $115 $47 #
plane-surface $-1 -1 $-1 10 35 0 1 0 0 0 0 -1 forward_v I I I I #
coedge $-1 -1 $-1 $116 $117 $118 $119 reversed $48 $-1 #
face $-1 -1 $-1 $120 $121 $27 $-1 $122 forward single #
loop $-1 -1 $-1 $-1 $123 $50 #
plane-surface $-1 -1 $-1 -14.142135623730951 5 10 0 1 0 0 0 1 forward_v I I I I #
coedge $-1 -1 $-1 $124 $125 $126 $127 forward $51 $-1 #
face $-1 -1 $-1 $128 $129 $29 $-1 $130 forward single #
loop $-1 -1 $-1 $-1 $131 $53 #
plane-surface $-1 -1 $-1 -10 -35 0 -1 0 0 0 0 1 forward_v I I I I #
coedge $-1 -1 $-1 $132 $133 $134 $135 reversed $54 $-1 #
model_id-kcp-attrib $-1 -1 $-1 $-1 $57 1 1021384611 1021384611 1671364609 5 #
face $136 -1 $-1 $137 $138 $9 $-1 $139 reversed single #
loop $-1 -1 $-1 $-1 $140 $57 #
plane-surface $-1 -1 $-1 10 0 10 -1 0 0 0 0 1 forward_v I I I I #
coedge $-1 -1 $-1 $141 $142 $88 $143 forward $58 $-1 #
coedge $-1 -1 $-1 $144 $60 $145 $146 reversed $40 $-1 #
coedge $-1 -1 $-1 $60 $144 $86 $143 reversed $40 $-1 #
coedge $-1 -1 $-1 $147 $148 $60 $90 forward $149 $-1 #
edge $-1 -1 $-1 $150 -15 $151 5 $89 $152 forward @7 unknown #
coedge $-1 -1 $-1 $62 $61 $153 $154 reversed $32 $-1 #
coedge $-1 -1 $-1 $155 $156 $61 $93 forward $157 $-1 #
edge $158 -1 $-1 $159 -40 $101 40 $61 $160 forward @7 unknown #
coedge $-1 -1 $-1 $161 $162 $62 $95 forward $163 $-1 #
edge $164 -1 $-1 $100 -40 $165 40 $62 $166 forward @7 unknown #
coedge $-1 -1 $-1 $167 $63 $162 $168 reversed $98 $-1 #
coedge $-1 -1 $-1 $63 $167 $155 $169 reversed $98 $-1 #
loop $-1 -1 $-1 $-1 $96 $170 #
attrib_edge_convexity-kcp-attrib $-1 -1 $171 $-1 $64 1 #
vertex $-1 -1 $-1 $168 $172 #
vertex $-1 -1 $-1 $169 $173 #
straight-curve $-1 -1 $-1 -40 -45 0 0 0 -1 I I #
model_id-kcp-attrib $-1 -1 $-1 $-1 $66 1 1021384611 1021384611 1671364610 2 #
face $174 -1 $-1 $175 $176 $23 $-1 $177 reversed single #
loop $-1 -1 $-1 $-1 $178 $66 #
plane-surface $-1 -1 $-1 0 -45 0 0 1 0 0 0 1 forward_v I I I I #
coedge $-1 -1 $-1 $179 $180 $181 $182 forward $67 $-1 #
coedge $-1 -1 $-1 $183 $69 $184 $185 forward $45 $-1 #
coedge $-1 -1 $-1 $69 $183 $186 $187 forward $45 $-1 #
coedge $-1 -1 $-1 $188 $189 $69 $111 reversed $190 $-1 #
edge $-1 -1 $-1 $191 -45 $192 45 $110 $193 forward @7 unknown #
face $-1 -1 $-1 $194 $195 $25 $-1 $196 forward single #
loop $-1 -1 $-1 $-1 $197 $70 #
cone-surface $-1 -1 $-1 0 0 0 0 0 1 15 0 0 1 I I 0 1 15 forward I I I I #
coedge $-1 -1 $-1 $198 $199 $200 $201 forward $71 $-1 #
coedge $-1 -1 $-1 $202 $73 $203 $204 reversed $48 $-1 #
coedge $-1 -1 $-1 $73 $202 $205 $206 forward $48 $-1 #
coedge $-1 -1 $-1 $207 $208 $73 $119 forward $195 $-1 #
edge $-1 -1 $-1 $209 0 $210 20 $118 $211 forward @7 unknown #
face $-1 -1 $-1 $212 $213 $27 $-1 $214 forward single #
loop $-1 -1 $-1 $-1 $215 $74 #
cone-surface $-1 -1 $-1 0 0 10 0 0 1 15 0 0 1 I I 0 1 15 forward I I I I #
coedge $-1 -1 $-1 $216 $217 $218 $219 forward $75 $-1 #
coedge $-1 -1 $-1 $220 $77 $217 $221 reversed $51 $-1 #
coedge $-1 -1 $-1 $77 $220 $222 $223 forward $51 $-1 #
coedge $-1 -1 $-1 $224 $218 $77 $127 reversed $225 $-1 #
edge $-1 -1 $-1 $226 2.8017557441356713 $227 3.4814295630439149 $77 $228 forward @7 unknown #
face $-1 -1 $-1 $229 $230 $29 $-1 $231 forward single #
loop $-1 -1 $-1 $-1 $232 $78 #
cone-surface $-1 -1 $-1 0 0 0 0 0 1 15 0 0 1 I I 0 1 15 forward I I I I #
coedge $-1 -1 $-1 $233 $234 $235 $236 forward $79 $-1 #
coedge $-1 -1 $-1 $237 $81 $238 $239 reversed $54 $-1 #
coedge $-1 -1 $-1 $81 $237 $240 $241 forward $54 $-1 #
coedge $-1 -1 $-1 $242 $243 $81 $135 forward $230 $-1 #
edge $-1 -1 $-1 $244 0 $245 20 $134 $246 forward @7 unknown #
model_id-kcp-attrib $-1 -1 $-1 $-1 $83 1 1021384611 1021384611 1671364609 6 #
face $247 -1 $-1 $248 $249 $9 $-1 $250 reversed single #
loop $-1 -1 $-1 $-1 $251 $83 #
plane-surface $-1 -1 $-1 40 0 0 -1 0 0 0 0 1 forward_v I I I I #
coedge $-1 -1 $-1 $252 $253 $144 $254 forward $84 $-1 #
coedge $-1 -1 $-1 $255 $86 $253 $256 reversed $58 $-1 #
coedge $-1 -1 $-1 $86 $255 $147 $257 reversed $58 $-1 #
edge $258 -1 $-1 $151 -10 $259 10 $86 $260 forward @7 unknown #
coedge $-1 -1 $-1 $88 $87 $140 $254 reversed $40 $-1 #
coedge $-1 -1 $-1 $261 $262 $87 $146 forward $263 $-1 #
edge $264 -1 $-1 $265 -10 $150 10 $87 $266 forward @7 unknown #
coedge $-1 -1 $-1 $267 $89 $142 $257 forward $149 $-1 #
coedge $-1 -1 $-1 $89 $267 $261 $268 reversed $149 $-1 #
loop $-1 -1 $-1 $-1 $89 $269 #
vertex $-1 -1 $-1 $268 $270 #
vertex $-1 -1 $-1 $143 $271 #
straight-curve $-1 -1 $-1 -10 -35 5 0 0 -1 I I #
coedge $-1 -1 $-1 $251 $272 $91 $154 forward $138 $-1 #
edge $273 -1 $-1 $165 -20 $159 20 $153 $274 forward @7 unknown #
coedge $-1 -1 $-1 $275 $92 $97 $169 forward $157 $-1 #
coedge $-1 -1 $-1 $92 $275 $251 $276 forward $157 $-1 #
loop $-1 -1 $-1 $277 $155 $278 #
attrib_edge_convexity-kcp-attrib $-1 -1 $279 $-1 $93 1 #
vertex $-1 -1 $-1 $154 $280 #
straight-curve $-1 -1 $-1 0 -45 -20 -1 0 0 I I #
coedge $-1 -1 $-1 $281 $94 $272 $282 forward $163 $-1 #
coedge $-1 -1 $-1 $94 $281 $96 $168 forward $163 $-1 #
loop $-1 -1 $-1 $-1 $162 $283 #
attrib_edge_convexity-kcp-attrib $-1 -1 $284 $-1 $95 1 #
vertex $-1 -1 $-1 $282 $285 #
straight-curve $-1 -1 $-1 0 -45 20 1 0 0 I I #
coedge $-1 -1 $-1 $97 $96 $286 $287 forward $98 $-1 #
edge $288 -1 $-1 $289 -45 $100 45 $96 $290 forward @7 unknown #
edge $-1 -1 $-1 $101 -45 $291 45 $97 $292 forward @7 unknown #
face $293 -1 $-1 $278 $98 $9 $-1 $294 reversed single #
convexity-sys-attrib $-1 -1 $-1 $99 $64 #
point $-1 -1 $-1 -40 -45 20 #
point $-1 -1 $-1 -40 -45 -20 #
model_id-kcp-attrib $-1 -1 $-1 $-1 $104 1 1021384611 1021384611 1671364610 6 #
face $295 -1 $-1 $296 $297 $23 $-1 $298 reversed single #
loop $-1 -1 $-1 $-1 $299 $104 #
plane-surface $-1 -1 $-1 -40 0 0 1 0 0 0 0 -1 forward_v I I I I #
coedge $-1 -1 $-1 $300 $186 $301 $302 forward $105 $-1 #
coedge $-1 -1 $-1 $303 $107 $300 $304 forward $67 $-1 #
coedge $-1 -1 $-1 $107 $303 $305 $306 forward $67 $-1 #
coedge $-1 -1 $-1 $189 $188 $107 $182 reversed $190 $-1 #
edge $-1 -1 $-1 $307 -45 $308 45 $181 $309 forward @7 unknown #
coedge $-1 -1 $-1 $109 $108 $310 $311 forward $45 $-1 #
coedge $-1 -1 $-1 $312 $313 $108 $185 reversed $297 $-1 #
edge $-1 -1 $-1 $192 -40 $314 40 $184 $315 forward @7 unknown #
coedge $-1 -1 $-1 $178 $316 $109 $187 reversed $105 $-1 #
edge $-1 -1 $-1 $317 -40 $191 40 $186 $318 forward @7 unknown #
coedge $-1 -1 $-1 $181 $110 $316 $319 forward $190 $-1 #
coedge $-1 -1 $-1 $110 $181 $312 $320 reversed $190 $-1 #
loop $-1 -1 $-1 $-1 $188 $296 #
vertex $-1 -1 $-1 $111 $321 #
vertex $-1 -1 $-1 $111 $322 #
straight-curve $-1 -1 $-1 40 0 20 0 1 0 I I #
face $-1 -1 $-1 $323 $324 $25 $-1 $325 forward single #
loop $-1 -1 $-1 $-1 $207 $112 #
cone-surface $-1 -1 $-1 0 0 0 0 0 1 15 0 0 1 I I 0 1 15 forward I I I I #
coedge $-1 -1 $-1 $326 $327 $328 $329 forward $113 $-1 #
coedge $-1 -1 $-1 $330 $115 $327 $331 reversed $71 $-1 #
coedge $-1 -1 $-1 $115 $330 $332 $333 forward $71 $-1 #
coedge $-1 -1 $-1 $334 $328 $115 $201 reversed $335 $-1 #
edge $-1 -1 $-1 $336 -23.454915028125264 $337 0.36474508437578734 $115 $338 forward @7 unknown #
coedge $-1 -1 $-1 $117 $116 $326 $339 forward $48 $-1 #
coedge $-1 -1 $-1 $340 $341 $116 $204 forward $342 $-1 #
edge $343 -1 $-1 $344 -14.142135623730951 $209 14.142135623730951 $116 $345 forward @7 unknown #
coedge $-1 -1 $-1 $328 $346 $117 $206 reversed $335 $-1 #
edge $-1 -1 $-1 $347 -14.142135623730951 $210 14.142135623730951 $117 $348 forward @7 unknown #
coedge $-1 -1 $-1 $349 $118 $346 $350 forward $195 $-1 #
coedge $-1 -1 $-1 $118 $349 $340 $351 reversed $195 $-1 #
vertex $-1 -1 $-1 $204 $352 #
vertex $-1 -1 $-1 $119 $353 #
straight-curve $-1 -1 $-1 -14.142135623730951 5 0 0 0 1 I I #
face $-1 -1 $-1 $354 $225 $27 $-1 $355 forward single #
loop $-1 -1 $-1 $-1 $356 $120 #
plane-surface $-1 -1 $-1 14.142135623730951 -5 10 0 -1 0 0 0 -1 forward_v I I I I #
coedge $-1 -1 $-1 $357 $358 $359 $360 forward $121 $-1 #
coedge $-1 -1 $-1 $361 $123 $358 $362 reversed $75 $-1 #
coedge $-1 -1 $-1 $123 $361 $124 $221 forward $75 $-1 #
coedge $-1 -1 $-1 $126 $359 $123 $219 reversed $225 $-1 #
edge $-1 -1 $-1 $227 -21.213203435596427 $363 7.0710678118654755 $123 $364 forward @7 unknown #
coedge $-1 -1 $-1 $125 $124 $365 $366 reversed $51 $-1 #
edge $-1 -1 $-1 $367 0 $227 10 $217 $368 forward @7 unknown #
coedge $-1 -1 $-1 $369 $356 $125 $223 reversed $213 $-1 #
edge $-1 -1 $-1 $370 0 $226 10 $125 $371 forward @7 unknown #
coedge $-1 -1 $-1 $359 $126 $356 $372 reversed $225 $-1 #
loop $-1 -1 $-1 $-1 $126 $212 #
vertex $-1 -1 $-1 $223 $373 #
vertex $-1 -1 $-1 $221 $374 #
ellipse-curve $-1 -1 $-1 0 0 20 0 0 -1 15 0 0 1 I I #
face $-1 -1 $-1 $375 $376 $29 $-1 $377 forward single #
loop $-1 -1 $-1 $-1 $242 $128 #
cone-surface $-1 -1 $-1 0 0 0 0 0 1 15 0 0 1 I I 0 1 15 forward I I I I #
coedge $-1 -1 $-1 $378 $379 $380 $381 forward $129 $-1 #
coedge $-1 -1 $-1 $382 $131 $379 $383 reversed $79 $-1 #
coedge $-1 -1 $-1 $131 $382 $384 $385 forward $79 $-1 #
coedge $-1 -1 $-1 $386 $380 $131 $236 reversed $387 $-1 #
edge $-1 -1 $-1 $388 -23.454915028125264 $389 0.36474508437578734 $131 $390 forward @7 unknown #
coedge $-1 -1 $-1 $133 $132 $378 $391 forward $54 $-1 #
coedge $-1 -1 $-1 $392 $393 $132 $239 forward $394 $-1 #
edge $395 -1 $-1 $396 -14.142135623730951 $244 14.142135623730951 $132 $397 forward @7 unknown #
coedge $-1 -1 $-1 $380 $398 $133 $241 reversed $387 $-1 #
edge $-1 -1 $-1 $399 -14.142135623730951 $245 14.142135623730951 $133 $400 forward @7 unknown #
coedge $-1 -1 $-1 $401 $134 $398 $402 forward $230 $-1 #
coedge $-1 -1 $-1 $134 $401 $392 $403 reversed $230 $-1 #
vertex $-1 -1 $-1 $239 $404 #
vertex $-1 -1 $-1 $135 $405 #
straight-curve $-1 -1 $-1 14.142135623730951 -5 0 0 0 1 I I #
model_id-kcp-attrib $-1 -1 $-1 $-1 $137 1 1021384611 1021384611 1671364609 7 #
face $406 -1 $-1 $407 $408 $9 $-1 $409 reversed single #
loop $-1 -1 $-1 $-1 $410 $137 #
plane-surface $-1 -1 $-1 0 35 0 0 1 0 0 0 1 forward_v I I I I #
coedge $-1 -1 $-1 $411 $153 $156 $276 reversed $138 $-1 #
coedge $-1 -1 $-1 $412 $140 $262 $413 reversed $84 $-1 #
coedge $-1 -1 $-1 $140 $412 $141 $256 forward $84 $-1 #
edge $-1 -1 $-1 $259 -5 $265 15 $140 $414 forward @7 unknown #
coedge $-1 -1 $-1 $142 $141 $415 $416 forward $58 $-1 #
edge $417 -1 $-1 $418 11.180339887498949 $259 35 $253 $419 forward @7 unknown #
edge $420 -1 $-1 $151 -35 $421 -11.180339887498949 $147 $422 forward @7 unknown #
attrib_edge_convexity-kcp-attrib $-1 -1 $423 $-1 $143 2 #
vertex $-1 -1 $-1 $256 $424 #
straight-curve $-1 -1 $-1 0 -35 0 1 0 0 I I #
coedge $-1 -1 $-1 $425 $145 $148 $268 forward $263 $-1 #
coedge $-1 -1 $-1 $145 $426 $252 $413 forward $263 $-1 #
loop $-1 -1 $-1 $163 $261 $283 #
attrib_edge_convexity-kcp-attrib $-1 -1 $427 $-1 $146 1 #
vertex $-1 -1 $-1 $413 $428 #
straight-curve $-1 -1 $-1 0 -35 20 -1 0 0 I I #
coedge $-1 -1 $-1 $148 $147 $429 $430 forward $149 $-1 #
edge $431 -1 $-1 $150 -35 $432 -11.180339887498949 $261 $433 forward @7 unknown #
face $434 -1 $-1 $435 $149 $9 $-1 $436 forward single #
point $-1 -1 $-1 -10 -35 20 #
point $-1 -1 $-1 -10 -35 0 #
coedge $-1 -1 $-1 $153 $411 $161 $282 reversed $138 $-1 #
attrib_edge_convexity-kcp-attrib $-1 -1 $437 $-1 $154 1 #
straight-curve $-1 -1 $-1 40 -45 0 0 0 -1 I I #
coedge $-1 -1 $-1 $156 $155 $438 $439 forward $157 $-1 #
edge $440 -1 $-1 $441 -45 $159 45 $251 $442 forward @7 unknown #
loop $-1 -1 $-1 $443 $444 $278 #
face $445 -1 $-1 $446 $157 $9 $-1 $447 reversed single #
convexity-sys-attrib $-1 -1 $-1 $158 $93 #
point $-1 -1 $-1 40 -45 -20 #
coedge $-1 -1 $-1 $162 $161 $448 $449 forward $163 $-1 #
edge $450 -1 $-1 $165 -45 $451 45 $272 $452 forward @7 unknown #
face $453 -1 $-1 $170 $263 $9 $-1 $454 forward single #
convexity-sys-attrib $-1 -1 $-1 $164 $95 #
point $-1 -1 $-1 40 -45 20 #
coedge $-1 -1 $-1 $448 $438 $167 $287 reversed $408 $-1 #
edge $-1 -1 $-1 $289 -20 $291 20 $286 $455 forward @7 unknown #
attrib_edge_convexity-kcp-attrib $-1 -1 $456 $-1 $168 1 #
vertex $-1 -1 $-1 $449 $457 #
straight-curve $-1 -1 $-1 -40 0 20 0 -1 0 I I #
vertex $-1 -1 $-1 $439 $458 #
straight-curve $-1 -1 $-1 -40 0 -20 0 1 0 I I #
model_id-kcp-attrib $-1 -1 $-1 $-1 $170 1 1021384611 1021384611 1671364609 11 #
plane-surface $-1 -1 $-1 -40 0 0 1 0 0 0 0 -1 forward_v I I I I #
model_id-kcp-attrib $-1 -1 $-1 $-1 $175 1 1021384611 1021384611 1671364610 4 #
face $459 -1 $-1 $-1 $190 $23 $-1 $460 reversed single #
loop $-1 -1 $-1 $-1 $312 $175 #
plane-surface $-1 -1 $-1 0 45 0 0 -1 0 0 0 -1 forward_v I I I I #
coedge $-1 -1 $-1 $461 $310 $313 $462 forward $176 $-1 #
coedge $-1 -1 $-1 $316 $178 $179 $304 reversed $105 $-1 #
coedge $-1 -1 $-1 $310 $461 $178 $302 reversed $176 $-1 #
edge $-1 -1 $-1 $317 -20 $463 20 $301 $464 forward @7 unknown #
coedge $-1 -1 $-1 $180 $179 $461 $465 forward $67 $-1 #
edge $-1 -1 $-1 $308 -40 $463 40 $300 $466 forward @7 unknown #
coedge $-1 -1 $-1 $313 $312 $180 $306 reversed $297 $-1 #
edge $-1 -1 $-1 $467 -40 $307 40 $305 $468 forward @7 unknown #
vertex $-1 -1 $-1 $182 $469 #
vertex $-1 -1 $-1 $319 $470 #
straight-curve $-1 -1 $-1 40 0 -20 0 -1 0 I I #
coedge $-1 -1 $-1 $299 $301 $183 $311 reversed $176 $-1 #
edge $-1 -1 $-1 $314 -45 $317 45 $310 $471 forward @7 unknown #
coedge $-1 -1 $-1 $305 $184 $189 $320 forward $297 $-1 #
coedge $-1 -1 $-1 $184 $305 $299 $462 reversed $297 $-1 #
vertex $-1 -1 $-1 $185 $472 #
straight-curve $-1 -1 $-1 0 45 20 -1 0 0 I I #
coedge $-1 -1 $-1 $186 $300 $188 $319 reversed $105 $-1 #
vertex $-1 -1 $-1 $311 $473 #
straight-curve $-1 -1 $-1 0 -45 20 1 0 0 I I #
edge $-1 -1 $-1 $191 -20 $308 20 $188 $474 forward @7 unknown #
edge $-1 -1 $-1 $192 -20 $307 20 $189 $475 forward @7 unknown #
point $-1 -1 $-1 40 -45 20 #
point $-1 -1 $-1 40 45 20 #
face $-1 -1 $-1 $476 $477 $25 $-1 $478 forward single #
loop $-1 -1 $-1 $-1 $479 $194 #
plane-surface $-1 -1 $-1 -10 11.180339887498949 0 -1 0 0 0 0 1 forward_v I I I I #
coedge $-1 -1 $-1 $480 $197 $202 $339 reversed $113 $-1 #
coedge $-1 -1 $-1 $197 $480 $198 $331 forward $113 $-1 #
coedge $-1 -1 $-1 $200 $205 $197 $329 reversed $335 $-1 #
edge $-1 -1 $-1 $337 -0.84106867056793033 $347 -0.33983690945412193 $197 $481 forward @7 unknown #
coedge $-1 -1 $-1 $199 $198 $482 $483 reversed $71 $-1 #
edge $-1 -1 $-1 $484 0 $337 20 $327 $485 forward @7 unknown #
coedge $-1 -1 $-1 $486 $487 $199 $333 reversed $477 $-1 #
edge $-1 -1 $-1 $488 0 $336 20 $199 $489 forward @7 unknown #
coedge $-1 -1 $-1 $490 $200 $487 $491 reversed $335 $-1 #
loop $-1 -1 $-1 $-1 $200 $476 #
vertex $-1 -1 $-1 $333 $492 #
vertex $-1 -1 $-1 $331 $493 #
straight-curve $-1 -1 $-1 10 11.545084971874736 20 0 -1 0 I I #
edge $494 -1 $-1 $344 0 $347 20 $202 $495 forward @7 unknown #
coedge $-1 -1 $-1 $496 $203 $208 $351 forward $342 $-1 #
coedge $-1 -1 $-1 $203 $482 $480 $497 forward $342 $-1 #
loop $-1 -1 $-1 $-1 $498 $499 #
convexity-sys-attrib $-1 -1 $-1 $-1 $204 #
vertex $-1 -1 $-1 $497 $500 #
straight-curve $-1 -1 $-1 -4.4408920985006262e-016 5 0 -1 0 0 I I #
coedge $-1 -1 $-1 $205 $490 $207 $350 reversed $335 $-1 #
vertex $-1 -1 $-1 $339 $501 #
straight-curve $-1 -1 $-1 -4.4408920985006262e-016 5 20 -1 0 0 I I #
coedge $-1 -1 $-1 $208 $207 $502 $503 reversed $195 $-1 #
edge $-1 -1 $-1 $210 -2.8017557441356713 $504 -2.3005239830218631 $207 $505 forward @7 unknown #
edge $506 -1 $-1 $209 -2.8017557441356713 $507 -2.3005239830218631 $208 $508 forward @7 unknown #
point $-1 -1 $-1 -14.142135623730951 5 0 #
point $-1 -1 $-1 -14.142135623730951 5 20 #
face $-1 -1 $-1 $-1 $509 $27 $-1 $510 reversed single #
plane-surface $-1 -1 $-1 8.8817841970012523e-016 -2.4601926856640878e-016 20 0 0 1 1 0 0 forward_v I I I I #
coedge $-1 -1 $-1 $222 $511 $224 $372 forward $213 $-1 #
coedge $-1 -1 $-1 $512 $215 $511 $513 reversed $121 $-1 #
coedge $-1 -1 $-1 $215 $512 $216 $362 forward $121 $-1 #
coedge $-1 -1 $-1 $218 $224 $215 $360 reversed $225 $-1 #
edge $-1 -1 $-1 $363 -0.33983690945412193 $514 0.33983690945412193 $215 $515 forward @7 unknown #
coedge $-1 -1 $-1 $217 $216 $516 $517 reversed $75 $-1 #
edge $-1 -1 $-1 $518 0 $363 10 $358 $519 forward @7 unknown #
vertex $-1 -1 $-1 $362 $520 #
straight-curve $-1 -1 $-1 7.0710678118654755 5 20 1 0 0 I I #
coedge $-1 -1 $-1 $516 $521 $220 $366 forward $509 $-1 #
edge $522 -1 $-1 $370 2.8017557441356713 $367 3.4814295630439149 $220 $523 forward @7 unknown #
vertex $-1 -1 $-1 $366 $524 #
straight-curve $-1 -1 $-1 -14.142135623730951 5 10 0 0 1 I I #
coedge $-1 -1 $-1 $511 $222 $521 $525 reversed $213 $-1 #
vertex $-1 -1 $-1 $525 $526 #
straight-curve $-1 -1 $-1 -14.142135623730951 -5 10 0 0 1 I I #
edge $-1 -1 $-1 $514 -21.213203435596427 $226 7.0710678118654755 $356 $527 forward @7 unknown #
point $-1 -1 $-1 -14.142135623730951 -5 20 #
point $-1 -1 $-1 -14.142135623730951 5 20 #
face $-1 -1 $-1 $528 $529 $29 $-1 $530 forward single #
loop $-1 -1 $-1 $-1 $531 $229 #
plane-surface $-1 -1 $-1 10 -11.180339887498949 0 1 0 0 0 0 -1 forward_v I I I I #
coedge $-1 -1 $-1 $532 $232 $237 $391 reversed $129 $-1 #
coedge $-1 -1 $-1 $232 $532 $233 $383 forward $129 $-1 #
coedge $-1 -1 $-1 $235 $240 $232 $381 reversed $387 $-1 #
edge $-1 -1 $-1 $389 2.3005239830218631 $399 2.8017557441356713 $232 $533 forward @7 unknown #
coedge $-1 -1 $-1 $234 $233 $534 $535 reversed $79 $-1 #
edge $-1 -1 $-1 $536 0 $389 20 $379 $537 forward @7 unknown #
coedge $-1 -1 $-1 $538 $539 $234 $385 reversed $529 $-1 #
edge $-1 -1 $-1 $540 0 $388 20 $234 $541 forward @7 unknown #
coedge $-1 -1 $-1 $542 $235 $539 $543 reversed $387 $-1 #
loop $-1 -1 $-1 $-1 $235 $528 #
vertex $-1 -1 $-1 $385 $544 #
vertex $-1 -1 $-1 $383 $545 #
straight-curve $-1 -1 $-1 -10 -11.545084971874736 20 0 1 0 I I #
edge $546 -1 $-1 $396 0 $399 20 $237 $547 forward @7 unknown #
coedge $-1 -1 $-1 $548 $238 $243 $403 forward $394 $-1 #
coedge $-1 -1 $-1 $238 $534 $532 $549 forward $394 $-1 #
loop $-1 -1 $-1 $-1 $550 $551 #
convexity-sys-attrib $-1 -1 $-1 $-1 $239 #
vertex $-1 -1 $-1 $549 $552 #
straight-curve $-1 -1 $-1 -4.4408920985006262e-016 -5 0 1 0 0 I I #
coedge $-1 -1 $-1 $240 $542 $242 $402 reversed $387 $-1 #
vertex $-1 -1 $-1 $391 $553 #
straight-curve $-1 -1 $-1 -4.4408920985006262e-016 -5 20 1 0 0 I I #
coedge $-1 -1 $-1 $243 $242 $554 $555 reversed $230 $-1 #
edge $-1 -1 $-1 $245 0.33983690945412193 $556 0.84106867056793033 $242 $557 forward @7 unknown #
edge $558 -1 $-1 $244 0.33983690945412193 $559 0.84106867056793033 $243 $560 forward @7 unknown #
point $-1 -1 $-1 14.142135623730951 -5 0 #
point $-1 -1 $-1 14.142135623730951 -5 20 #
model_id-kcp-attrib $-1 -1 $-1 $-1 $248 1 1021384611 1021384611 1671364609 8 #
face $561 -1 $-1 $283 $562 $9 $-1 $436 forward single #
loop $-1 -1 $-1 $-1 $563 $248 #
plane-surface $-1 -1 $-1 0 45 0 0 -1 0 0 0 -1 forward_v I I I I #
coedge $-1 -1 $-1 $564 $565 $566 $567 reversed $249 $-1 #
coedge $-1 -1 $-1 $272 $251 $563 $568 reversed $138 $-1 #
coedge $-1 -1 $-1 $253 $252 $569 $570 forward $84 $-1 #
edge $571 -1 $-1 $572 11.180339887498949 $265 35 $262 $573 forward @7 unknown #
straight-curve $-1 -1 $-1 10 -35 5 0 0 1 I I #
coedge $-1 -1 $-1 $569 $429 $255 $416 reversed $574 $-1 #
edge $575 -1 $-1 $418 0.84106867056793033 $421 2.3005239830218631 $255 $576 forward @7 unknown #
attrib_edge_convexity-kcp-attrib $-1 -1 $577 $-1 $256 2 #
vertex $-1 -1 $-1 $570 $578 #
straight-curve $-1 -1 $-1 10 0 0 0 -1 0 I I #
attrib_edge_convexity-kcp-attrib $-1 -1 $579 $-1 $257 2 #
vertex $-1 -1 $-1 $257 $580 #
straight-curve $-1 -1 $-1 -10 0 0 0 1 0 I I #
convexity-sys-attrib $-1 -1 $-1 $258 $143 #
point $-1 -1 $-1 10 -35 0 #
coedge $-1 -1 $-1 $581 $261 $582 $583 forward $263 $-1 #
coedge $-1 -1 $-1 $262 $584 $585 $586 forward $263 $-1 #
convexity-sys-attrib $-1 -1 $-1 $264 $146 #
point $-1 -1 $-1 10 -35 20 #
coedge $-1 -1 $-1 $415 $582 $267 $430 reversed $574 $-1 #
edge $-1 -1 $-1 $421 0 $432 20 $267 $587 forward @7 unknown #
attrib_edge_convexity-kcp-attrib $-1 -1 $588 $-1 $268 1 #
vertex $-1 -1 $-1 $268 $589 #
straight-curve $-1 -1 $-1 -10 0 20 0 1 0 I I #
model_id-kcp-attrib $-1 -1 $-1 $-1 $269 1 1021384611 1021384611 1671364609 18 #
face $590 -1 $-1 $-1 $591 $9 $-1 $59 forward single #
plane-surface $-1 -1 $-1 -10 0 10 1 0 0 0 0 -1 forward_v I I I I #
convexity-sys-attrib $-1 -1 $-1 $273 $154 #
coedge $-1 -1 $-1 $286 $563 $275 $439 reversed $408 $-1 #
edge $-1 -1 $-1 $291 -40 $441 40 $438 $592 forward @7 unknown #
attrib_edge_convexity-kcp-attrib $-1 -1 $593 $-1 $276 1 #
vertex $-1 -1 $-1 $276 $594 #
straight-curve $-1 -1 $-1 40 0 -20 0 -1 0 I I #
loop $-1 -1 $-1 $-1 $595 $278 #
coedge $-1 -1 $-1 $596 $596 $597 $598 forward $277 $-1 #
model_id-kcp-attrib $-1 -1 $-1 $-1 $278 1 1021384611 1021384611 1671364609 12 #
face $599 -1 $-1 $600 $601 $9 $-1 $602 forward single #
plane-surface $-1 -1 $-1 0 0 -20 0 0 1 1 0 0 forward_v I I I I #
coedge $-1 -1 $-1 $563 $286 $281 $449 reversed $408 $-1 #
edge $603 -1 $-1 $451 -40 $289 40 $448 $604 forward @7 unknown #
attrib_edge_convexity-kcp-attrib $-1 -1 $605 $-1 $282 1 #
vertex $-1 -1 $-1 $282 $606 #
straight-curve $-1 -1 $-1 40 0 20 0 1 0 I I #
model_id-kcp-attrib $-1 -1 $-1 $-1 $283 1 1021384611 1021384611 1671364609 10 #
plane-surface $-1 -1 $-1 0 0 20 0 0 1 1 0 0 forward_v I I I I #
straight-curve $-1 -1 $-1 -40 45 0 0 0 -1 I I #
convexity-sys-attrib $-1 -1 $-1 $288 $168 #
point $-1 -1 $-1 -40 45 20 #
point $-1 -1 $-1 -40 45 -20 #
model_id-kcp-attrib $-1 -1 $-1 $-1 $296 1 1021384611 1021384611 1671364610 3 #
plane-surface $-1 -1 $-1 40 0 0 -1 0 0 0 0 1 forward_v I I I I #
coedge $-1 -1 $-1 $301 $299 $303 $465 reversed $176 $-1 #
edge $-1 -1 $-1 $314 -20 $467 20 $313 $607 forward @7 unknown #
vertex $-1 -1 $-1 $465 $608 #
straight-curve $-1 -1 $-1 -40 -45 0 0 0 -1 I I #
edge $-1 -1 $-1 $463 -45 $467 45 $461 $609 forward @7 unknown #
straight-curve $-1 -1 $-1 0 -45 -20 -1 0 0 I I #
vertex $-1 -1 $-1 $306 $610 #
straight-curve $-1 -1 $-1 0 45 -20 1 0 0 I I #
point $-1 -1 $-1 40 45 -20 #
point $-1 -1 $-1 40 -45 -20 #
straight-curve $-1 -1 $-1 -40 0 20 0 -1 0 I I #
point $-1 -1 $-1 -40 45 20 #
point $-1 -1 $-1 -40 -45 20 #
straight-curve $-1 -1 $-1 40 -45 0 0 0 -1 I I #
straight-curve $-1 -1 $-1 40 45 0 0 0 -1 I I #
face $-1 -1 $-1 $499 $335 $25 $-1 $611 forward single #
loop $-1 -1 $-1 $-1 $487 $323 #
plane-surface $-1 -1 $-1 -10 35 0 0 1 0 0 0 1 forward_v I I I I #
coedge $-1 -1 $-1 $612 $502 $490 $613 forward $324 $-1 #
coedge $-1 -1 $-1 $327 $326 $341 $497 reversed $113 $-1 #
ellipse-curve $-1 -1 $-1 0 0 20 0 0 -1 15 0 0 1 I I #
coedge $-1 -1 $-1 $341 $498 $330 $483 forward $342 $-1 #
edge $614 -1 $-1 $488 -23.454915028125264 $484 0.36474508437578734 $330 $615 forward @7 unknown #
vertex $-1 -1 $-1 $483 $616 #
straight-curve $-1 -1 $-1 10 11.180339887498949 0 0 0 1 I I #
coedge $-1 -1 $-1 $617 $332 $498 $618 reversed $477 $-1 #
coedge $-1 -1 $-1 $332 $617 $334 $491 forward $477 $-1 #
vertex $-1 -1 $-1 $618 $619 #
straight-curve $-1 -1 $-1 10 35 0 0 0 1 I I #
coedge $-1 -1 $-1 $346 $334 $479 $613 reversed $335 $-1 #
edge $-1 -1 $-1 $620 -10 $336 10 $487 $621 forward @7 unknown #
point $-1 -1 $-1 10 35 20 #
point $-1 -1 $-1 10 11.180339887498949 20 #
convexity-sys-attrib $-1 -1 $-1 $-1 $339 #
straight-curve $-1 -1 $-1 14.142135623730951 5 0 0 0 1 I I #
coedge $-1 -1 $-1 $498 $340 $622 $623 forward $342 $-1 #
edge $624 -1 $-1 $484 -0.84106867056793033 $344 -0.33983690945412193 $480 $625 forward @7 unknown #
coedge $-1 -1 $-1 $482 $496 $486 $618 forward $342 $-1 #
face $-1 -1 $-1 $-1 $342 $25 $-1 $626 reversed single #
point $-1 -1 $-1 14.142135623730951 5 0 #
point $-1 -1 $-1 14.142135623730951 5 20 #
coedge $-1 -1 $-1 $479 $622 $349 $503 forward $324 $-1 #
edge $-1 -1 $-1 $507 0 $504 20 $502 $627 forward @7 unknown #
vertex $-1 -1 $-1 $503 $628 #
ellipse-curve $-1 -1 $-1 0 0 20 0 0 -1 15 0 0 1 I I #
convexity-sys-attrib $-1 -1 $-1 $-1 $351 #
vertex $-1 -1 $-1 $351 $629 #
ellipse-curve $-1 -1 $-1 0 0 0 0 0 -1 15 0 0 1 I I #
loop $-1 -1 $-1 $-1 $521 $354 #
plane-surface $-1 -1 $-1 8.8817841970012523e-016 -2.4601926856640878e-016 10 0 0 1 1 0 0 forward_v I I I I #
coedge $-1 -1 $-1 $356 $369 $357 $513 forward $213 $-1 #
coedge $-1 -1 $-1 $358 $357 $630 $631 reversed $121 $-1 #
edge $-1 -1 $-1 $632 0 $514 10 $511 $633 forward @7 unknown #
vertex $-1 -1 $-1 $513 $634 #
ellipse-curve $-1 -1 $-1 0 0 20 0 0 -1 15 0 0 1 I I #
coedge $-1 -1 $-1 $630 $365 $361 $517 forward $509 $-1 #
edge $635 -1 $-1 $367 -21.213203435596427 $518 7.0710678118654755 $361 $636 forward @7 unknown #
vertex $-1 -1 $-1 $517 $637 #
straight-curve $-1 -1 $-1 14.142135623730951 5 10 0 0 1 I I #
point $-1 -1 $-1 14.142135623730951 5 20 #
coedge $-1 -1 $-1 $365 $630 $369 $525 forward $509 $-1 #
convexity-sys-attrib $-1 -1 $-1 $-1 $366 #
ellipse-curve $-1 -1 $-1 0 0 10 0 0 -1 15 0 0 1 I I #
point $-1 -1 $-1 -14.142135623730951 5 10 #
edge $638 -1 $-1 $632 -21.213203435596427 $370 7.0710678118654755 $369 $639 forward @7 unknown #
point $-1 -1 $-1 -14.142135623730951 -5 10 #
straight-curve $-1 -1 $-1 -7.0710678118654755 -5 20 -1 0 0 I I #
face $-1 -1 $-1 $551 $387 $29 $-1 $640 forward single #
loop $-1 -1 $-1 $-1 $539 $375 #
plane-surface $-1 -1 $-1 10 -35 0 0 -1 0 0 0 -1 forward_v I I I I #
coedge $-1 -1 $-1 $641 $554 $542 $642 forward $376 $-1 #
coedge $-1 -1 $-1 $379 $378 $393 $549 reversed $129 $-1 #
ellipse-curve $-1 -1 $-1 0 0 20 0 0 -1 15 0 0 1 I I #
coedge $-1 -1 $-1 $393 $550 $382 $535 forward $394 $-1 #
edge $643 -1 $-1 $540 -23.454915028125264 $536 0.36474508437578734 $382 $644 forward @7 unknown #
vertex $-1 -1 $-1 $535 $645 #
straight-curve $-1 -1 $-1 -10 -11.180339887498949 0 0 0 1 I I #
coedge $-1 -1 $-1 $646 $384 $550 $647 reversed $529 $-1 #
coedge $-1 -1 $-1 $384 $646 $386 $543 forward $529 $-1 #
vertex $-1 -1 $-1 $647 $648 #
straight-curve $-1 -1 $-1 -10 -35 0 0 0 1 I I #
coedge $-1 -1 $-1 $398 $386 $531 $642 reversed $387 $-1 #
edge $-1 -1 $-1 $649 -10 $388 10 $539 $650 forward @7 unknown #
point $-1 -1 $-1 -10 -35 20 #
point $-1 -1 $-1 -10 -11.180339887498949 20 #
convexity-sys-attrib $-1 -1 $-1 $-1 $391 #
straight-curve $-1 -1 $-1 -14.142135623730951 -5 0 0 0 1 I I #
coedge $-1 -1 $-1 $550 $392 $651 $652 forward $394 $-1 #
edge $653 -1 $-1 $536 2.3005239830218631 $396 2.8017557441356713 $532 $654 forward @7 unknown #
coedge $-1 -1 $-1 $534 $548 $538 $647 forward $394 $-1 #
face $-1 -1 $-1 $-1 $394 $29 $-1 $655 reversed single #
point $-1 -1 $-1 -14.142135623730951 -5 0 #
point $-1 -1 $-1 -14.142135623730951 -5 20 #
coedge $-1 -1 $-1 $531 $651 $401 $555 forward $376 $-1 #
edge $-1 -1 $-1 $559 0 $556 20 $554 $656 forward @7 unknown #
vertex $-1 -1 $-1 $555 $657 #
ellipse-curve $-1 -1 $-1 0 0 20 0 0 -1 15 0 0 1 I I #
convexity-sys-attrib $-1 -1 $-1 $-1 $403 #
vertex $-1 -1 $-1 $403 $658 #
ellipse-curve $-1 -1 $-1 0 0 0 0 0 -1 15 0 0 1 I I #
model_id-kcp-attrib $-1 -1 $-1 $-1 $407 1 1021384611 1021384611 1671364609 9 #
loop $-1 -1 $-1 $-1 $566 $407 #
coedge $-1 -1 $-1 $438 $448 $411 $568 forward $408 $-1 #
coedge $-1 -1 $-1 $659 $410 $660 $661 reversed $249 $-1 #
coedge $-1 -1 $-1 $410 $659 $662 $663 reversed $249 $-1 #
coedge $-1 -1 $-1 $664 $665 $410 $567 forward $562 $-1 #
edge $-1 -1 $-1 $666 -5 $667 15 $566 $668 forward @7 unknown #
edge $669 -1 $-1 $451 -20 $441 20 $411 $670 forward @7 unknown #
coedge $-1 -1 $-1 $585 $415 $412 $570 reversed $574 $-1 #
edge $-1 -1 $-1 $572 -20 $418 0 $412 $671 forward @7 unknown #
attrib_edge_convexity-kcp-attrib $-1 -1 $672 $-1 $413 1 #
vertex $-1 -1 $-1 $570 $673 #
straight-curve $-1 -1 $-1 10 0 20 0 -1 0 I I #
loop $-1 -1 $-1 $-1 $569 $674 #
attrib_edge_convexity-kcp-attrib $-1 -1 $675 $-1 $416 1 #
ellipse-curve $-1 -1 $-1 0 0 0 0 0 -1 15 0 0 1 I I #
convexity-sys-attrib $-1 -1 $-1 $417 $256 #
point $-1 -1 $-1 10 -11.180339887498949 0 #
convexity-sys-attrib $-1 -1 $-1 $420 $257 #
point $-1 -1 $-1 -10 -11.180339887498949 0 #
coedge $-1 -1 $-1 $662 $425 $664 $676 forward $263 $-1 #
coedge $-1 -1 $-1 $429 $677 $425 $583 reversed $574 $-1 #
edge $678 -1 $-1 $432 2.3005239830218631 $679 3.9826613241577231 $425 $680 forward @7 unknown #
coedge $-1 -1 $-1 $426 $662 $681 $682 forward $263 $-1 #
coedge $-1 -1 $-1 $683 $569 $426 $586 reversed $574 $-1 #
edge $684 -1 $-1 $685 -0.84106867056793033 $572 0.84106867056793033 $426 $686 forward @7 unknown #
straight-curve $-1 -1 $-1 -10 -11.180339887498949 0 0 0 1 I I #
convexity-sys-attrib $-1 -1 $-1 $431 $268 #
point $-1 -1 $-1 -10 -11.180339887498949 20 #
model_id-kcp-attrib $-1 -1 $-1 $-1 $435 1 1021384611 1021384611 1671364609 19 #
loop $-1 -1 $-1 $-1 $660 $435 #
straight-curve $-1 -1 $-1 0 45 -20 1 0 0 I I #
convexity-sys-attrib $-1 -1 $-1 $440 $276 #
point $-1 -1 $-1 40 45 -20 #
coedge $-1 -1 $-1 $687 $687 $688 $689 forward $443 $-1 #
coedge $-1 -1 $-1 $444 $444 $690 $691 forward $277 $-1 #
coedge $-1 -1 $-1 $692 $693 $444 $598 reversed $694 $-1 #
edge $-1 -1 $-1 $695 -14.142135623730951 $696 14.142135623730951 $597 $697 forward @7 unknown #
model_id-kcp-attrib $-1 -1 $-1 $-1 $446 1 1021384611 1021384611 1671364609 13 #
face $698 -1 $-1 $699 $700 $9 $-1 $701 reversed single #
loop $-1 -1 $-1 $-1 $702 $446 #
plane-surface $-1 -1 $-1 0 0 10 0 0 1 1 0 0 forward_v I I I I #
attrib_edge_convexity-kcp-attrib $-1 -1 $703 $-1 $449 1 #
straight-curve $-1 -1 $-1 0 45 20 -1 0 0 I I #
convexity-sys-attrib $-1 -1 $-1 $450 $282 #
point $-1 -1 $-1 40 45 20 #
straight-curve $-1 -1 $-1 -40 45 0 0 0 -1 I I #
point $-1 -1 $-1 -40 -45 -20 #
straight-curve $-1 -1 $-1 -40 0 -20 0 1 0 I I #
point $-1 -1 $-1 -40 45 -20 #
plane-surface $-1 -1 $-1 0 18.614042315868794 20 0 0 1 1 0 0 forward_v I I I I #
coedge $-1 -1 $-1 $622 $479 $617 $704 reversed $324 $-1 #
edge $-1 -1 $-1 $504 -0.36474508437578734 $620 23.454915028125264 $479 $705 forward @7 unknown #
convexity-sys-attrib $-1 -1 $-1 $-1 $483 #
straight-curve $-1 -1 $-1 10 11.545084971874736 0 0 -1 0 I I #
point $-1 -1 $-1 10 11.180339887498949 0 #
coedge $-1 -1 $-1 $487 $486 $612 $704 forward $477 $-1 #
edge $706 -1 $-1 $707 -10 $488 10 $486 $708 forward @7 unknown #
point $-1 -1 $-1 10 35 0 #
vertex $-1 -1 $-1 $704 $709 #
straight-curve $-1 -1 $-1 -4.4408920985006262e-016 35 20 1 0 0 I I #
coedge $-1 -1 $-1 $502 $612 $496 $623 reversed $324 $-1 #
edge $710 -1 $-1 $507 -0.36474508437578734 $707 23.454915028125264 $622 $711 forward @7 unknown #
convexity-sys-attrib $-1 -1 $-1 $-1 $497 #
ellipse-curve $-1 -1 $-1 0 0 0 0 0 -1 15 0 0 1 I I #
plane-surface $-1 -1 $-1 0 18.614042315868794 0 0 0 1 1 0 0 forward_v I I I I #
straight-curve $-1 -1 $-1 -10 11.180339887498949 0 0 0 1 I I #
point $-1 -1 $-1 -10 11.180339887498949 20 #
point $-1 -1 $-1 -10 11.180339887498949 0 #
coedge $-1 -1 $-1 $521 $516 $512 $631 forward $509 $-1 #
edge $712 -1 $-1 $518 -0.33983690945412193 $632 0.33983690945412193 $512 $713 forward @7 unknown #
vertex $-1 -1 $-1 $525 $714 #
straight-curve $-1 -1 $-1 14.142135623730951 -5 10 0 0 1 I I #
point $-1 -1 $-1 14.142135623730951 -5 20 #
convexity-sys-attrib $-1 -1 $-1 $-1 $517 #
straight-curve $-1 -1 $-1 7.0710678118654755 5 10 1 0 0 I I #
point $-1 -1 $-1 14.142135623730951 5 10 #
convexity-sys-attrib $-1 -1 $-1 $-1 $525 #
straight-curve $-1 -1 $-1 -7.0710678118654755 -5 10 -1 0 0 I I #
plane-surface $-1 -1 $-1 0 -18.614042315868797 20 0 0 1 1 0 0 forward_v I I I I #
coedge $-1 -1 $-1 $651 $531 $646 $715 reversed $376 $-1 #
edge $-1 -1 $-1 $556 -0.36474508437578734 $649 23.454915028125264 $531 $716 forward @7 unknown #
convexity-sys-attrib $-1 -1 $-1 $-1 $535 #
straight-curve $-1 -1 $-1 -10 -11.545084971874736 0 0 1 0 I I #
point $-1 -1 $-1 -10 -11.180339887498949 0 #
coedge $-1 -1 $-1 $539 $538 $641 $715 forward $529 $-1 #
edge $717 -1 $-1 $718 -10 $540 10 $538 $719 forward @7 unknown #
point $-1 -1 $-1 -10 -35 0 #
vertex $-1 -1 $-1 $715 $720 #
straight-curve $-1 -1 $-1 -4.4408920985006262e-016 -35 20 -1 0 0 I I #
coedge $-1 -1 $-1 $554 $641 $548 $652 reversed $376 $-1 #
edge $721 -1 $-1 $559 -0.36474508437578734 $718 23.454915028125264 $651 $722 forward @7 unknown #
convexity-sys-attrib $-1 -1 $-1 $-1 $549 #
ellipse-curve $-1 -1 $-1 0 0 0 0 0 -1 15 0 0 1 I I #
plane-surface $-1 -1 $-1 0 -18.614042315868797 0 0 0 1 1 0 0 forward_v I I I I #
straight-curve $-1 -1 $-1 10 -11.180339887498949 0 0 0 1 I I #
point $-1 -1 $-1 10 -11.180339887498949 20 #
point $-1 -1 $-1 10 -11.180339887498949 0 #
coedge $-1 -1 $-1 $565 $564 $723 $724 reversed $249 $-1 #
coedge $-1 -1 $-1 $725 $726 $564 $661 forward $591 $-1 #
edge $727 -1 $-1 $728 -10 $666 10 $660 $729 forward @7 unknown #
coedge $-1 -1 $-1 $584 $581 $565 $663 forward $263 $-1 #
edge $730 -1 $-1 $667 -10 $731 10 $565 $732 forward @7 unknown #
coedge $-1 -1 $-1 $733 $566 $581 $676 reversed $562 $-1 #
coedge $-1 -1 $-1 $566 $733 $725 $734 forward $562 $-1 #
vertex $-1 -1 $-1 $734 $735 #
vertex $-1 -1 $-1 $676 $736 #
straight-curve $-1 -1 $-1 -10 35 5 0 0 1 I I #
attrib_edge_convexity-kcp-attrib $-1 -1 $737 $-1 $568 1 #
straight-curve $-1 -1 $-1 40 45 0 0 0 -1 I I #
straight-curve $-1 -1 $-1 10 -11.180339887498949 0 0 0 -1 I I #
convexity-sys-attrib $-1 -1 $-1 $571 $413 #
point $-1 -1 $-1 10 -11.180339887498949 20 #
face $738 -1 $-1 $739 $740 $9 $-1 $741 reversed single #
convexity-sys-attrib $-1 -1 $-1 $575 $416 #
edge $742 -1 $-1 $679 11.180339887498949 $667 35 $581 $433 forward @7 unknown #
coedge $-1 -1 $-1 $582 $743 $733 $744 reversed $574 $-1 #
attrib_edge_convexity-kcp-attrib $-1 -1 $745 $-1 $583 1 #
vertex $-1 -1 $-1 $744 $746 #
ellipse-curve $-1 -1 $-1 0 0 20 0 0 -1 15 0 0 1 I I #
coedge $-1 -1 $-1 $723 $747 $584 $682 reversed $748 $-1 #
edge $749 -1 $-1 $731 -35 $685 -11.180339887498949 $584 $573 forward @7 unknown #
coedge $-1 -1 $-1 $743 $585 $747 $750 reversed $574 $-1 #
attrib_edge_convexity-kcp-attrib $-1 -1 $751 $-1 $586 1 #
vertex $-1 -1 $-1 $682 $752 #
ellipse-curve $-1 -1 $-1 0 0 20 0 0 -1 15 0 0 1 I I #
coedge $-1 -1 $-1 $595 $595 $753 $754 forward $443 $-1 #
coedge $-1 -1 $-1 $755 $756 $595 $689 reversed $740 $-1 #
edge $-1 -1 $-1 $757 -2.8017557441356713 $758 -0.33983690945412193 $595 $759 forward @7 unknown #
coedge $-1 -1 $-1 $760 $761 $596 $691 reversed $740 $-1 #
edge $-1 -1 $-1 $696 0.33983690945412193 $695 2.8017557441356713 $596 $759 forward @7 unknown #
coedge $-1 -1 $-1 $762 $597 $761 $763 reversed $694 $-1 #
coedge $-1 -1 $-1 $597 $762 $760 $764 reversed $694 $-1 #
loop $-1 -1 $-1 $-1 $692 $699 #
vertex $-1 -1 $-1 $691 $765 #
vertex $-1 -1 $-1 $691 $766 #
straight-curve $-1 -1 $-1 0 5 -20 1 0 0 I I #
model_id-kcp-attrib $-1 -1 $-1 $-1 $600 1 1021384611 1021384611 1671364609 14 #
face $767 -1 $-1 $674 $694 $9 $-1 $768 reversed single #
loop $-1 -1 $-1 $-1 $769 $600 #
plane-surface $-1 -1 $-1 0 -5 -5 0 1 0 0 0 1 forward_v I I I I #
coedge $-1 -1 $-1 $770 $771 $772 $773 reversed $601 $-1 #
convexity-sys-attrib $-1 -1 $-1 $603 $449 #
edge $-1 -1 $-1 $707 0 $620 20 $617 $774 forward @7 unknown #
straight-curve $-1 -1 $-1 -10 11.545084971874736 20 0 1 0 I I #
convexity-sys-attrib $-1 -1 $-1 $-1 $618 #
vertex $-1 -1 $-1 $618 $775 #
straight-curve $-1 -1 $-1 -4.4408920985006262e-016 35 0 1 0 0 I I #
point $-1 -1 $-1 -10 35 20 #
convexity-sys-attrib $-1 -1 $-1 $-1 $623 #
straight-curve $-1 -1 $-1 -10 11.545084971874736 0 0 1 0 I I #
convexity-sys-attrib $-1 -1 $-1 $-1 $631 #
ellipse-curve $-1 -1 $-1 0 0 10 0 0 -1 15 0 0 1 I I #
point $-1 -1 $-1 14.142135623730951 -5 10 #
edge $-1 -1 $-1 $718 0 $649 20 $646 $776 forward @7 unknown #
straight-curve $-1 -1 $-1 10 -11.545084971874736 20 0 -1 0 I I #
convexity-sys-attrib $-1 -1 $-1 $-1 $647 #
vertex $-1 -1 $-1 $647 $777 #
straight-curve $-1 -1 $-1 -4.4408920985006262e-016 -35 0 -1 0 0 I I #
point $-1 -1 $-1 10 -35 20 #
convexity-sys-attrib $-1 -1 $-1 $-1 $652 #
straight-curve $-1 -1 $-1 10 -11.545084971874736 0 0 -1 0 I I #
coedge $-1 -1 $-1 $778 $681 $659 $724 forward $748 $-1 #
edge $-1 -1 $-1 $731 -15 $728 5 $723 $779 forward @7 unknown #
coedge $-1 -1 $-1 $780 $660 $665 $734 reversed $591 $-1 #
coedge $-1 -1 $-1 $660 $780 $778 $781 reversed $591 $-1 #
attrib_edge_convexity-kcp-attrib $-1 -1 $782 $-1 $661 2 #
vertex $-1 -1 $-1 $724 $783 #
straight-curve $-1 -1 $-1 0 35 0 -1 0 0 I I #
attrib_edge_convexity-kcp-attrib $-1 -1 $784 $-1 $663 1 #
vertex $-1 -1 $-1 $682 $785 #
straight-curve $-1 -1 $-1 0 35 20 1 0 0 I I #
coedge $-1 -1 $-1 $665 $664 $677 $744 forward $562 $-1 #
edge $786 -1 $-1 $787 11.180339887498949 $666 35 $665 $422 forward @7 unknown #
point $-1 -1 $-1 -10 35 0 #
point $-1 -1 $-1 -10 35 20 #
convexity-sys-attrib $-1 -1 $-1 $669 $568 #
model_id-kcp-attrib $-1 -1 $-1 $-1 $674 1 1021384611 1021384611 1671364609 16 #
face $788 -1 $-1 $269 $748 $9 $-1 $85 forward single #
loop $-1 -1 $-1 $574 $761 $674 #
cone-surface $-1 -1 $-1 0 0 0 0 0 1 15 0 0 1 I I 0 1 15 forward I I I I #
attrib_edge_convexity-kcp-attrib $-1 -1 $789 $-1 $676 1 #
coedge $-1 -1 $-1 $677 $683 $780 $790 reversed $574 $-1 #
edge $-1 -1 $-1 $679 -20 $787 0 $733 $791 forward @7 unknown #
convexity-sys-attrib $-1 -1 $-1 $678 $583 #
point $-1 -1 $-1 -10 11.180339887498949 20 #
coedge $-1 -1 $-1 $681 $778 $683 $750 forward $748 $-1 #
loop $-1 -1 $-1 $-1 $723 $739 #
attrib_edge_convexity-kcp-attrib $-1 -1 $792 $-1 $682 1 #
edge $-1 -1 $-1 $793 0 $685 20 $747 $794 forward @7 unknown #
convexity-sys-attrib $-1 -1 $-1 $684 $586 #
point $-1 -1 $-1 10 11.180339887498949 20 #
coedge $-1 -1 $-1 $795 $769 $687 $754 reversed $700 $-1 #
edge $-1 -1 $-1 $758 -14.142135623730951 $757 14.142135623730951 $753 $796 forward @7 unknown #
coedge $-1 -1 $-1 $772 $688 $769 $797 forward $740 $-1 #
coedge $-1 -1 $-1 $688 $798 $795 $799 forward $740 $-1 #
vertex $-1 -1 $-1 $689 $800 #
vertex $-1 -1 $-1 $689 $801 #
ellipse-curve $-1 -1 $-1 0 0 -20 0 0 1 15 0 0 1 I I #
coedge $-1 -1 $-1 $798 $690 $693 $764 forward $740 $-1 #
coedge $-1 -1 $-1 $690 $772 $692 $763 forward $740 $-1 #
coedge $-1 -1 $-1 $693 $692 $771 $802 reversed $694 $-1 #
edge $-1 -1 $-1 $803 -10 $695 20 $761 $804 forward @7 unknown #
edge $-1 -1 $-1 $696 -20 $805 10 $760 $806 forward @7 unknown #
point $-1 -1 $-1 -14.142135623730951 5 -20 #
point $-1 -1 $-1 14.142135623730951 5 -20 #
model_id-kcp-attrib $-1 -1 $-1 $-1 $699 1 1021384611 1021384611 1671364609 15 #
plane-surface $-1 -1 $-1 0 5 -5 0 -1 0 0 0 -1 forward_v I I I I #
coedge $-1 -1 $-1 $753 $807 $755 $797 reversed $700 $-1 #
coedge $-1 -1 $-1 $808 $702 $807 $809 forward $601 $-1 #
coedge $-1 -1 $-1 $702 $808 $762 $802 forward $601 $-1 #
coedge $-1 -1 $-1 $761 $755 $702 $773 forward $740 $-1 #
edge $810 -1 $-1 $811 2.8017557441356713 $803 3.4814295630439149 $772 $812 forward @7 unknown #
straight-curve $-1 -1 $-1 -10 35 0 0 0 1 I I #
point $-1 -1 $-1 -10 35 0 #
straight-curve $-1 -1 $-1 10 -35 0 0 0 1 I I #
point $-1 -1 $-1 10 -35 0 #
coedge $-1 -1 $-1 $747 $723 $726 $781 forward $748 $-1 #
straight-curve $-1 -1 $-1 10 35 5 0 0 -1 I I #
coedge $-1 -1 $-1 $726 $725 $743 $790 forward $591 $-1 #
edge $813 -1 $-1 $728 -35 $793 -11.180339887498949 $778 $419 forward @7 unknown #
convexity-sys-attrib $-1 -1 $-1 $727 $661 #
point $-1 -1 $-1 10 35 0 #
convexity-sys-attrib $-1 -1 $-1 $730 $663 #
point $-1 -1 $-1 10 35 20 #
attrib_edge_convexity-kcp-attrib $-1 -1 $814 $-1 $734 2 #
vertex $-1 -1 $-1 $790 $815 #
model_id-kcp-attrib $-1 -1 $-1 $-1 $739 1 1021384611 1021384611 1671364609 17 #
convexity-sys-attrib $-1 -1 $-1 $742 $676 #
edge $816 -1 $-1 $787 -2.3005239830218631 $793 -0.84106867056793033 $780 $576 forward @7 unknown #
straight-curve $-1 -1 $-1 -10 11.180339887498949 0 0 0 -1 I I #
convexity-sys-attrib $-1 -1 $-1 $749 $682 #
vertex $-1 -1 $-1 $781 $817 #
straight-curve $-1 -1 $-1 10 11.180339887498949 0 0 0 1 I I #
coedge $-1 -1 $-1 $807 $753 $756 $799 reversed $700 $-1 #
straight-curve $-1 -1 $-1 0 -5 -20 -1 0 0 I I #
edge $-1 -1 $-1 $757 -20 $811 10 $755 $818 forward @7 unknown #
coedge $-1 -1 $-1 $756 $760 $808 $819 forward $740 $-1 #
edge $-1 -1 $-1 $820 -10 $758 20 $756 $821 forward @7 unknown #
point $-1 -1 $-1 -14.142135623730951 -5 -20 #
point $-1 -1 $-1 14.142135623730951 -5 -20 #
edge $822 -1 $-1 $805 -14.142135623730951 $803 14.142135623730951 $762 $823 forward @7 unknown #
vertex $-1 -1 $-1 $773 $824 #
straight-curve $-1 -1 $-1 -14.142135623730951 5 0 0 0 -1 I I #
vertex $-1 -1 $-1 $819 $825 #
straight-curve $-1 -1 $-1 14.142135623730951 5 0 0 0 1 I I #
coedge $-1 -1 $-1 $769 $795 $770 $809 reversed $700 $-1 #
coedge $-1 -1 $-1 $771 $770 $798 $819 reversed $601 $-1 #
edge $826 -1 $-1 $811 -14.142135623730951 $820 14.142135623730951 $807 $827 forward @7 unknown #
attrib_edge_convexity-kcp-attrib $-1 -1 $828 $-1 $773 2 #
vertex $-1 -1 $-1 $773 $829 #
ellipse-curve $-1 -1 $-1 0 0 10 0 0 -1 15 0 0 1 I I #
attrib_edge_convexity-kcp-attrib $-1 -1 $830 $-1 $781 2 #
convexity-sys-attrib $-1 -1 $-1 $786 $734 #
point $-1 -1 $-1 -10 11.180339887498949 0 #
attrib_edge_convexity-kcp-attrib $-1 -1 $831 $-1 $790 1 #
point $-1 -1 $-1 10 11.180339887498949 0 #
straight-curve $-1 -1 $-1 -14.142135623730951 -5 0 0 0 1 I I #
edge $832 -1 $-1 $805 -0.33983690945412193 $820 0.33983690945412193 $798 $812 forward @7 unknown #
vertex $-1 -1 $-1 $819 $833 #
straight-curve $-1 -1 $-1 14.142135623730951 -5 0 0 0 -1 I I #
attrib_edge_convexity-kcp-attrib $-1 -1 $834 $-1 $802 1 #
straight-curve $-1 -1 $-1 0 5 10 -1 0 0 I I #
point $-1 -1 $-1 -14.142135623730951 5 10 #
point $-1 -1 $-1 14.142135623730951 5 10 #
attrib_edge_convexity-kcp-attrib $-1 -1 $835 $-1 $809 1 #
straight-curve $-1 -1 $-1 0 -5 10 1 0 0 I I #
convexity-sys-attrib $-1 -1 $-1 $810 $773 #
point $-1 -1 $-1 -14.142135623730951 -5 10 #
convexity-sys-attrib $-1 -1 $-1 $813 $781 #
convexity-sys-attrib $-1 -1 $-1 $816 $790 #
attrib_edge_convexity-kcp-attrib $-1 -1 $836 $-1 $819 2 #
point $-1 -1 $-1 14.142135623730951 -5 10 #
convexity-sys-attrib $-1 -1 $-1 $822 $802 #
convexity-sys-attrib $-1 -1 $-1 $826 $809 #
convexity-sys-attrib $-1 -1 $-1 $832 $819 #
End-of-ACIS-data 