600 0 2 0           
24 FBMach with ACIS - 6.0.3 13 ACIS 6.0.3 NT 24 Wed May 23 20:25:35 2001 
1 9.9999999999999995e-007 1e-010 
body $2 $3 $-1 $4 #
bdycol-kcp $-1 1 4 $5 $6 $7 $8 #
model_id-kcp-attrib $-1 $-1 $-1 $0 1 990663934 60 -801374207 1 #
lump $-1 $-1 $9 $0 #
transform $-1 1 0 0 0 1 0 0 0 1 0 0 0 1 no_rotate no_reflect no_shear #
body $10 $11 $-1 $12 #
body $13 $14 $-1 $15 #
body $16 $17 $-1 $18 #
body $19 $20 $-1 $21 #
shell $-1 $-1 $-1 $22 $-1 $3 #
model_id-kcp-attrib $-1 $-1 $-1 $5 1 990663934 60 -801374206 1 #
lump $-1 $-1 $23 $5 #
transform $-1 1 0 0 0 1 0 0 0 1 0 0 0 1 no_rotate no_reflect no_shear #
rgb_color-st-attrib $-1 $24 $-1 $6 0 0 1 #
lump $-1 $-1 $25 $6 #
transform $-1 1 0 0 0 1 0 0 0 1 0 0 0 1 no_rotate no_reflect no_shear #
rgb_color-st-attrib $-1 $26 $-1 $7 0 0 1 #
lump $-1 $-1 $27 $7 #
transform $-1 1 0 0 0 1 0 0 0 1 0 0 0 1 no_rotate no_reflect no_shear #
rgb_color-st-attrib $-1 $28 $-1 $8 0 0 1 #
lump $-1 $-1 $29 $8 #
transform $-1 1 0 0 0 1 0 0 0 1 0 0 0 1 no_rotate no_reflect no_shear #
face $30 $31 $32 $9 $-1 $33 reversed single #
shell $-1 $-1 $-1 $34 $-1 $11 #
model_id-kcp-attrib $-1 $-1 $13 $6 1 990663934 560 -802160637 1 #
shell $-1 $-1 $-1 $35 $-1 $14 #
model_id-kcp-attrib $-1 $-1 $16 $7 1 990663934 771 -805109756 1 #
shell $-1 $-1 $-1 $36 $-1 $17 #
model_id-kcp-attrib $-1 $-1 $19 $8 1 990663934 971 -792002555 1 #
shell $-1 $-1 $-1 $37 $-1 $20 #
model_id-kcp-attrib $-1 $-1 $-1 $22 1 990663934 60 -801374207 2 #
face $38 $39 $40 $9 $-1 $41 reversed single #
loop $-1 $-1 $42 $22 #
plane-surface $-1 0 -45 0 0 1 0 0 0 1 forward_v I I I I #
face $43 $44 $45 $23 $-1 $46 forward single #
face $-1 $47 $48 $25 $-1 $49 forward single #
face $-1 $50 $51 $27 $-1 $52 forward single #
face $-1 $53 $54 $29 $-1 $55 forward single #
model_id-kcp-attrib $-1 $-1 $-1 $31 1 990663934 60 -801374207 3 #
face $56 $57 $58 $9 $-1 $59 forward single #
loop $-1 $-1 $60 $31 #
plane-surface $-1 0 -35 0 0 -1 0 0 0 -1 forward_v I I I I #
coedge $-1 $61 $62 $63 $64 forward $32 $-1 #
model_id-kcp-attrib $-1 $-1 $-1 $34 1 990663934 60 -801374206 5 #
face $65 $66 $67 $23 $-1 $68 reversed single #
loop $-1 $-1 $69 $34 #
plane-surface $-1 0 0 20 0 0 1 1 0 0 forward_v I I I I #
face $-1 $70 $71 $25 $-1 $72 forward single #
loop $-1 $-1 $73 $35 #
plane-surface $-1 0 0 20 0 0 1 1 0 0 forward_v I I I I #
face $-1 $74 $75 $27 $-1 $76 forward single #
loop $-1 $-1 $77 $36 #
plane-surface $-1 -10 35 0 0 1 0 0 0 1 forward_v I I I I #
face $-1 $78 $79 $29 $-1 $80 forward single #
loop $-1 $-1 $81 $37 #
plane-surface $-1 -10 -35 0 -1 0 0 0 0 1 forward_v I I I I #
model_id-kcp-attrib $-1 $-1 $-1 $39 1 990663934 60 -801374207 4 #
face $82 $83 $84 $9 $-1 $85 forward single #
loop $-1 $-1 $86 $39 #
plane-surface $-1 0 0 0 0 0 1 1 0 0 forward_v I I I I #
coedge $-1 $87 $88 $89 $90 reversed $40 $-1 #
coedge $-1 $91 $42 $92 $93 reversed $32 $-1 #
coedge $-1 $42 $91 $94 $95 reversed $32 $-1 #
coedge $-1 $96 $97 $42 $64 reversed $98 $-1 #
edge $99 $100 -20 $101 20 $63 $102 forward 7 unknown #
model_id-kcp-attrib $-1 $-1 $-1 $44 1 990663934 60 -801374206 7 #
face $103 $104 $105 $23 $-1 $106 reversed single #
loop $-1 $-1 $107 $44 #
plane-surface $-1 0 0 -20 0 0 1 1 0 0 forward_v I I I I #
coedge $-1 $108 $109 $110 $111 forward $45 $-1 #
face $-1 $112 $113 $25 $-1 $114 forward single #
loop $-1 $-1 $115 $47 #
plane-surface $-1 10 -35 10 0 -1 0 0 0 -1 forward_v I I I I #
coedge $-1 $116 $117 $118 $119 forward $48 $-1 #
face $-1 $120 $121 $27 $-1 $122 forward single #
loop $-1 $-1 $123 $50 #
plane-surface $-1 10 35 0 1 0 0 0 0 -1 forward_v I I I I #
coedge $-1 $124 $125 $126 $127 forward $51 $-1 #
face $-1 $128 $129 $29 $-1 $130 forward single #
loop $-1 $-1 $131 $53 #
cone-surface $-1 0 0 0 0 0 1 15 0 0 1 I I 0 1 15 forward I I I I #
coedge $-1 $132 $133 $134 $135 forward $54 $-1 #
model_id-kcp-attrib $-1 $-1 $-1 $57 1 990663934 60 -801374207 5 #
face $136 $137 $138 $9 $-1 $139 reversed single #
loop $-1 $-1 $140 $57 #
plane-surface $-1 10 0 10 -1 0 0 0 0 1 forward_v I I I I #
coedge $-1 $141 $142 $88 $143 forward $58 $-1 #
coedge $-1 $144 $60 $145 $146 reversed $40 $-1 #
coedge $-1 $60 $144 $86 $143 reversed $40 $-1 #
coedge $-1 $147 $148 $60 $90 forward $149 $-1 #
edge $-1 $150 -15 $151 5 $89 $152 forward 7 unknown #
coedge $-1 $62 $61 $153 $154 reversed $32 $-1 #
coedge $-1 $155 $156 $61 $93 forward $157 $-1 #
edge $158 $159 -40 $101 40 $61 $160 forward 7 unknown #
coedge $-1 $161 $162 $62 $95 forward $163 $-1 #
edge $164 $100 -40 $165 40 $62 $166 forward 7 unknown #
coedge $-1 $167 $63 $162 $168 reversed $98 $-1 #
coedge $-1 $63 $167 $155 $169 reversed $98 $-1 #
loop $-1 $-1 $96 $170 #
attrib_edge_convexity-kcp-attrib $-1 $171 $-1 $64 1 #
vertex $-1 $168 $172 #
vertex $-1 $169 $173 #
straight-curve $-1 -40 -45 0 0 0 -1 I I #
model_id-kcp-attrib $-1 $-1 $-1 $66 1 990663934 60 -801374206 2 #
face $174 $175 $176 $23 $-1 $177 reversed single #
loop $-1 $-1 $178 $66 #
plane-surface $-1 0 -45 0 0 1 0 0 0 1 forward_v I I I I #
coedge $-1 $179 $180 $181 $182 forward $67 $-1 #
coedge $-1 $183 $69 $184 $185 forward $45 $-1 #
coedge $-1 $69 $183 $186 $187 forward $45 $-1 #
coedge $-1 $188 $189 $69 $111 reversed $190 $-1 #
edge $-1 $191 -45 $192 45 $110 $193 forward 7 unknown #
face $-1 $194 $195 $25 $-1 $196 forward single #
loop $-1 $-1 $197 $70 #
plane-surface $-1 -10 -35 10 -1 0 0 0 0 1 forward_v I I I I #
coedge $-1 $198 $199 $200 $201 reversed $71 $-1 #
coedge $-1 $202 $73 $203 $204 forward $48 $-1 #
coedge $-1 $73 $205 $206 $207 forward $48 $-1 #
coedge $-1 $208 $209 $73 $119 reversed $210 $-1 #
edge $-1 $211 -6.319660112501051 $212 17.5 $118 $213 forward 7 unknown #
face $-1 $214 $215 $27 $-1 $216 forward single #
loop $-1 $-1 $217 $74 #
cone-surface $-1 0 0 0 0 0 1 15 0 0 1 I I 0 1 15 forward I I I I #
coedge $-1 $218 $219 $220 $221 forward $75 $-1 #
coedge $-1 $222 $77 $219 $223 reversed $51 $-1 #
coedge $-1 $77 $222 $224 $225 forward $51 $-1 #
coedge $-1 $226 $220 $77 $127 reversed $227 $-1 #
edge $-1 $228 -10 $229 10 $77 $230 forward 7 unknown #
face $-1 $231 $232 $29 $-1 $233 forward single #
loop $-1 $-1 $234 $78 #
plane-surface $-1 -14.142135623730951 -5 0 0 1 0 0 0 1 forward_v I I I I #
coedge $-1 $235 $236 $237 $238 forward $79 $-1 #
coedge $-1 $239 $81 $236 $240 reversed $54 $-1 #
coedge $-1 $81 $239 $241 $242 forward $54 $-1 #
coedge $-1 $243 $237 $81 $135 reversed $244 $-1 #
edge $-1 $245 -23.454915028125264 $246 0.36474508437578734 $81 $247 forward 7 unknown #
model_id-kcp-attrib $-1 $-1 $-1 $83 1 990663934 60 -801374207 6 #
face $248 $249 $250 $9 $-1 $251 reversed single #
loop $-1 $-1 $252 $83 #
plane-surface $-1 40 0 0 -1 0 0 0 0 1 forward_v I I I I #
coedge $-1 $253 $254 $144 $255 forward $84 $-1 #
coedge $-1 $256 $86 $254 $257 reversed $58 $-1 #
coedge $-1 $86 $256 $147 $258 reversed $58 $-1 #
edge $-1 $151 -10 $259 10 $86 $260 forward 7 unknown #
coedge $-1 $88 $87 $140 $255 reversed $40 $-1 #
coedge $-1 $261 $262 $87 $146 forward $263 $-1 #
edge $264 $265 -10 $150 10 $87 $266 forward 7 unknown #
coedge $-1 $267 $89 $142 $258 forward $149 $-1 #
coedge $-1 $89 $267 $261 $268 reversed $149 $-1 #
loop $-1 $-1 $89 $269 #
vertex $-1 $268 $270 #
vertex $-1 $143 $271 #
straight-curve $-1 -10 -35 5 0 0 -1 I I #
coedge $-1 $252 $272 $91 $154 forward $138 $-1 #
edge $273 $165 -20 $159 20 $153 $274 forward 7 unknown #
coedge $-1 $275 $92 $97 $169 forward $157 $-1 #
coedge $-1 $92 $275 $252 $276 forward $157 $-1 #
loop $-1 $277 $155 $278 #
attrib_edge_convexity-kcp-attrib $-1 $279 $-1 $93 1 #
vertex $-1 $154 $280 #
straight-curve $-1 0 -45 -20 -1 0 0 I I #
coedge $-1 $281 $94 $272 $282 forward $163 $-1 #
coedge $-1 $94 $281 $96 $168 forward $163 $-1 #
loop $-1 $-1 $162 $283 #
attrib_edge_convexity-kcp-attrib $-1 $284 $-1 $95 1 #
vertex $-1 $282 $285 #
straight-curve $-1 0 -45 20 1 0 0 I I #
coedge $-1 $97 $96 $286 $287 forward $98 $-1 #
edge $288 $289 -45 $100 45 $96 $290 forward 7 unknown #
edge $-1 $101 -45 $291 45 $97 $292 forward 7 unknown #
face $293 $278 $98 $9 $-1 $294 reversed single #
convexity-sys-attrib $-1 $-1 $99 $64 #
point $-1 -40 -45 20 #
point $-1 -40 -45 -20 #
model_id-kcp-attrib $-1 $-1 $-1 $104 1 990663934 60 -801374206 6 #
face $295 $296 $297 $23 $-1 $298 reversed single #
loop $-1 $-1 $299 $104 #
plane-surface $-1 -40 0 0 1 0 0 0 0 -1 forward_v I I I I #
coedge $-1 $300 $186 $301 $302 forward $105 $-1 #
coedge $-1 $303 $107 $300 $304 forward $67 $-1 #
coedge $-1 $107 $303 $305 $306 forward $67 $-1 #
coedge $-1 $189 $188 $107 $182 reversed $190 $-1 #
edge $-1 $307 -45 $308 45 $181 $309 forward 7 unknown #
coedge $-1 $109 $108 $310 $311 forward $45 $-1 #
coedge $-1 $312 $313 $108 $185 reversed $297 $-1 #
edge $-1 $192 -40 $314 40 $184 $315 forward 7 unknown #
coedge $-1 $178 $316 $109 $187 reversed $105 $-1 #
edge $-1 $317 -40 $191 40 $186 $318 forward 7 unknown #
coedge $-1 $181 $110 $316 $319 forward $190 $-1 #
coedge $-1 $110 $181 $312 $320 reversed $190 $-1 #
loop $-1 $-1 $188 $296 #
vertex $-1 $111 $321 #
vertex $-1 $111 $322 #
straight-curve $-1 40 0 20 0 1 0 I I #
face $-1 $323 $324 $25 $-1 $325 forward single #
loop $-1 $-1 $326 $112 #
cone-surface $-1 0 0 10 0 0 1 15 0 0 1 I I 0 1 15 forward I I I I #
coedge $-1 $327 $328 $329 $330 reversed $113 $-1 #
coedge $-1 $331 $115 $328 $332 reversed $71 $-1 #
coedge $-1 $115 $331 $333 $334 forward $71 $-1 #
coedge $-1 $205 $329 $115 $201 forward $48 $-1 #
edge $-1 $335 -15 $336 5 $115 $337 forward 7 unknown #
coedge $-1 $338 $116 $339 $340 forward $48 $-1 #
coedge $-1 $341 $342 $116 $204 reversed $343 $-1 #
edge $-1 $212 -15 $344 5 $203 $345 forward 7 unknown #
coedge $-1 $117 $200 $346 $347 forward $48 $-1 #
coedge $-1 $348 $349 $117 $207 reversed $350 $-1 #
edge $-1 $351 -0.84106867056793033 $211 0.84106867056793033 $206 $352 forward 7 unknown #
coedge $-1 $353 $118 $349 $354 reversed $210 $-1 #
coedge $-1 $118 $353 $341 $355 forward $210 $-1 #
loop $-1 $-1 $118 $356 #
vertex $-1 $119 $357 #
vertex $-1 $204 $358 #
straight-curve $-1 10 17.5 20 0 1 0 I I #
face $-1 $359 $360 $27 $-1 $361 forward single #
loop $-1 $-1 $362 $120 #
plane-surface $-1 14.142135623730951 5 0 0 -1 0 0 0 -1 forward_v I I I I #
coedge $-1 $363 $364 $365 $366 forward $121 $-1 #
coedge $-1 $367 $123 $364 $368 reversed $75 $-1 #
coedge $-1 $123 $367 $124 $223 forward $75 $-1 #
coedge $-1 $126 $365 $123 $221 reversed $227 $-1 #
edge $-1 $229 -23.454915028125264 $369 0.36474508437578734 $123 $370 forward 7 unknown #
coedge $-1 $125 $124 $371 $372 reversed $51 $-1 #
edge $373 $374 0 $229 10 $219 $375 forward 7 unknown #
coedge $-1 $376 $377 $125 $225 reversed $378 $-1 #
edge $-1 $379 0 $228 10 $125 $380 forward 7 unknown #
coedge $-1 $381 $126 $377 $382 reversed $227 $-1 #
loop $-1 $-1 $126 $383 #
vertex $-1 $225 $384 #
vertex $-1 $223 $385 #
straight-curve $-1 -4.4408920985006262e-016 35 10 1 0 0 I I #
face $-1 $386 $387 $29 $-1 $388 forward single #
loop $-1 $-1 $389 $128 #
cone-surface $-1 0 0 0 0 0 1 15 0 0 1 I I 0 1 15 forward I I I I #
coedge $-1 $390 $391 $392 $393 forward $129 $-1 #
coedge $-1 $394 $131 $391 $395 reversed $79 $-1 #
coedge $-1 $131 $394 $132 $240 forward $79 $-1 #
coedge $-1 $134 $392 $131 $238 reversed $244 $-1 #
edge $-1 $246 2.3005239830218631 $396 2.8017557441356713 $131 $397 forward 7 unknown #
coedge $-1 $133 $132 $398 $399 reversed $54 $-1 #
edge $400 $401 0 $246 10 $236 $402 forward 7 unknown #
coedge $-1 $403 $404 $133 $242 reversed $405 $-1 #
edge $-1 $406 0 $245 10 $133 $407 forward 7 unknown #
coedge $-1 $408 $134 $404 $409 reversed $244 $-1 #
loop $-1 $-1 $134 $410 #
vertex $-1 $242 $411 #
vertex $-1 $240 $412 #
straight-curve $-1 -10 -11.545084971874736 10 0 1 0 I I #
model_id-kcp-attrib $-1 $-1 $-1 $137 1 990663934 60 -801374207 7 #
face $413 $414 $415 $9 $-1 $416 reversed single #
loop $-1 $-1 $417 $137 #
plane-surface $-1 0 35 0 0 1 0 0 0 1 forward_v I I I I #
coedge $-1 $418 $153 $156 $276 reversed $138 $-1 #
coedge $-1 $419 $140 $262 $420 reversed $84 $-1 #
coedge $-1 $140 $419 $141 $257 forward $84 $-1 #
edge $-1 $259 -5 $265 15 $140 $421 forward 7 unknown #
coedge $-1 $142 $141 $422 $423 forward $58 $-1 #
edge $-1 $424 11.180339887498949 $259 35 $254 $425 forward 7 unknown #
edge $-1 $151 -35 $426 -11.180339887498949 $147 $427 forward 7 unknown #
vertex $-1 $257 $428 #
straight-curve $-1 0 -35 0 1 0 0 I I #
coedge $-1 $429 $145 $148 $268 forward $263 $-1 #
coedge $-1 $145 $430 $253 $420 forward $263 $-1 #
loop $-1 $163 $261 $283 #
attrib_edge_convexity-kcp-attrib $-1 $431 $-1 $146 1 #
vertex $-1 $420 $432 #
straight-curve $-1 0 -35 20 -1 0 0 I I #
coedge $-1 $148 $147 $433 $434 forward $149 $-1 #
edge $435 $150 -35 $436 -11.180339887498949 $261 $437 forward 7 unknown #
face $438 $439 $149 $9 $-1 $440 forward single #
point $-1 -10 -35 20 #
point $-1 -10 -35 0 #
coedge $-1 $153 $418 $161 $282 reversed $138 $-1 #
attrib_edge_convexity-kcp-attrib $-1 $441 $-1 $154 1 #
straight-curve $-1 40 -45 0 0 0 -1 I I #
coedge $-1 $156 $155 $442 $443 forward $157 $-1 #
edge $444 $445 -45 $159 45 $252 $446 forward 7 unknown #
loop $-1 $447 $448 $278 #
face $449 $450 $157 $9 $-1 $451 reversed single #
convexity-sys-attrib $-1 $-1 $158 $93 #
point $-1 40 -45 -20 #
coedge $-1 $162 $161 $452 $453 forward $163 $-1 #
edge $454 $165 -45 $455 45 $272 $456 forward 7 unknown #
face $457 $170 $263 $9 $-1 $458 forward single #
convexity-sys-attrib $-1 $-1 $164 $95 #
point $-1 40 -45 20 #
coedge $-1 $452 $442 $167 $287 reversed $415 $-1 #
edge $-1 $289 -20 $291 20 $286 $459 forward 7 unknown #
attrib_edge_convexity-kcp-attrib $-1 $460 $-1 $168 1 #
vertex $-1 $453 $461 #
straight-curve $-1 -40 0 20 0 -1 0 I I #
vertex $-1 $443 $462 #
straight-curve $-1 -40 0 -20 0 1 0 I I #
model_id-kcp-attrib $-1 $-1 $-1 $170 1 990663934 60 -801374207 11 #
plane-surface $-1 -40 0 0 1 0 0 0 0 -1 forward_v I I I I #
model_id-kcp-attrib $-1 $-1 $-1 $175 1 990663934 60 -801374206 4 #
face $463 $-1 $190 $23 $-1 $464 reversed single #
loop $-1 $-1 $312 $175 #
plane-surface $-1 0 45 0 0 -1 0 0 0 -1 forward_v I I I I #
coedge $-1 $465 $310 $313 $466 forward $176 $-1 #
coedge $-1 $316 $178 $179 $304 reversed $105 $-1 #
coedge $-1 $310 $465 $178 $302 reversed $176 $-1 #
edge $-1 $317 -20 $467 20 $301 $468 forward 7 unknown #
coedge $-1 $180 $179 $465 $469 forward $67 $-1 #
edge $-1 $308 -40 $467 40 $300 $470 forward 7 unknown #
coedge $-1 $313 $312 $180 $306 reversed $297 $-1 #
edge $-1 $471 -40 $307 40 $305 $472 forward 7 unknown #
vertex $-1 $182 $473 #
vertex $-1 $319 $474 #
straight-curve $-1 40 0 -20 0 -1 0 I I #
coedge $-1 $299 $301 $183 $311 reversed $176 $-1 #
edge $-1 $314 -45 $317 45 $310 $475 forward 7 unknown #
coedge $-1 $305 $184 $189 $320 forward $297 $-1 #
coedge $-1 $184 $305 $299 $466 reversed $297 $-1 #
vertex $-1 $185 $476 #
straight-curve $-1 0 45 20 -1 0 0 I I #
coedge $-1 $186 $300 $188 $319 reversed $105 $-1 #
vertex $-1 $311 $477 #
straight-curve $-1 0 -45 20 1 0 0 I I #
edge $-1 $191 -20 $308 20 $188 $478 forward 7 unknown #
edge $-1 $192 -20 $307 20 $189 $479 forward 7 unknown #
point $-1 40 -45 20 #
point $-1 40 45 20 #
face $-1 $480 $350 $25 $-1 $481 forward single #
loop $-1 $-1 $339 $194 #
plane-surface $-1 -10 11.180339887498949 10 -1 0 0 0 0 1 forward_v I I I I #
coedge $-1 $482 $483 $338 $484 reversed $195 $-1 #
coedge $-1 $485 $197 $483 $486 reversed $113 $-1 #
coedge $-1 $197 $485 $198 $332 forward $113 $-1 #
coedge $-1 $200 $338 $197 $330 forward $48 $-1 #
edge $-1 $487 -6.319660112501051 $335 17.5 $197 $488 forward 7 unknown #
coedge $-1 $199 $198 $489 $490 reversed $71 $-1 #
edge $491 $492 0 $335 10 $328 $493 forward 7 unknown #
coedge $-1 $494 $346 $199 $334 reversed $495 $-1 #
edge $-1 $496 0 $336 10 $199 $497 forward 7 unknown #
vertex $-1 $330 $498 #
vertex $-1 $347 $499 #
straight-curve $-1 5 -35 20 1 0 0 I I #
coedge $-1 $329 $202 $326 $484 forward $48 $-1 #
coedge $-1 $500 $501 $202 $340 reversed $324 $-1 #
edge $-1 $344 -29.409830056250527 $502 -5.5901699437494745 $339 $503 forward 7 unknown #
coedge $-1 $504 $203 $209 $355 reversed $343 $-1 #
coedge $-1 $203 $504 $500 $505 forward $343 $-1 #
loop $-1 $-1 $203 $506 #
vertex $-1 $204 $507 #
straight-curve $-1 -5 35 20 -1 0 0 I I #
coedge $-1 $333 $508 $205 $347 reversed $495 $-1 #
edge $-1 $336 -29.409830056250527 $351 -5.5901699437494763 $346 $509 forward 7 unknown #
coedge $-1 $510 $206 $508 $511 reversed $350 $-1 #
coedge $-1 $206 $510 $208 $354 forward $350 $-1 #
loop $-1 $-1 $206 $323 #
vertex $-1 $207 $512 #
ellipse-curve $-1 0 0 20 0 0 1 15 0 0 1 I I #
coedge $-1 $209 $208 $513 $514 reversed $210 $-1 #
edge $-1 $515 0 $211 10 $349 $516 forward 7 unknown #
edge $-1 $517 0 $212 10 $209 $518 forward 7 unknown #
face $-1 $519 $210 $25 $-1 $520 forward single #
point $-1 10 11.180339887498949 20 #
point $-1 10 35 20 #
face $-1 $383 $378 $27 $-1 $521 forward single #
loop $-1 $-1 $522 $214 #
cone-surface $-1 0 0 0 0 0 1 15 0 0 1 I I 0 1 15 forward I I I I #
coedge $-1 $523 $524 $525 $526 forward $215 $-1 #
coedge $-1 $527 $217 $524 $528 reversed $121 $-1 #
coedge $-1 $217 $527 $218 $368 forward $121 $-1 #
coedge $-1 $220 $525 $217 $366 reversed $227 $-1 #
edge $-1 $369 -0.84106867056793033 $529 -0.33983690945412193 $217 $530 forward 7 unknown #
coedge $-1 $219 $218 $531 $532 reversed $75 $-1 #
edge $-1 $533 0 $369 10 $364 $534 forward 7 unknown #
vertex $-1 $368 $535 #
straight-curve $-1 10 11.545084971874736 10 0 -1 0 I I #
coedge $-1 $531 $536 $222 $372 forward $537 $-1 #
edge $538 $379 -10 $374 10 $222 $539 forward 7 unknown #
convexity-sys-attrib $-1 $-1 $-1 $223 #
vertex $-1 $372 $540 #
straight-curve $-1 10 35 0 0 0 1 I I #
coedge $-1 $541 $224 $536 $542 reversed $378 $-1 #
coedge $-1 $224 $541 $226 $382 forward $378 $-1 #
loop $-1 $-1 $377 $359 #
vertex $-1 $542 $543 #
straight-curve $-1 -10 35 0 0 0 1 I I #
coedge $-1 $525 $226 $522 $544 reversed $227 $-1 #
edge $-1 $545 -0.36474508437578734 $228 23.454915028125264 $377 $546 forward 7 unknown #
face $-1 $547 $227 $27 $-1 $548 forward single #
point $-1 -10 35 10 #
point $-1 10 35 10 #
face $-1 $410 $405 $29 $-1 $549 forward single #
loop $-1 $-1 $550 $231 #
plane-surface $-1 10 -11.180339887498949 0 1 0 0 0 0 -1 forward_v I I I I #
coedge $-1 $551 $552 $553 $554 forward $232 $-1 #
coedge $-1 $555 $234 $552 $556 reversed $129 $-1 #
coedge $-1 $234 $555 $235 $395 forward $129 $-1 #
coedge $-1 $237 $553 $234 $393 reversed $244 $-1 #
edge $-1 $396 -14.142135623730951 $557 14.142135623730951 $234 $558 forward 7 unknown #
coedge $-1 $236 $235 $559 $560 reversed $79 $-1 #
edge $-1 $561 0 $396 10 $391 $562 forward 7 unknown #
vertex $-1 $395 $563 #
ellipse-curve $-1 0 0 10 0 0 -1 15 0 0 1 I I #
coedge $-1 $559 $564 $239 $399 forward $565 $-1 #
edge $566 $406 -23.454915028125264 $401 0.36474508437578734 $239 $567 forward 7 unknown #
convexity-sys-attrib $-1 $-1 $-1 $240 #
vertex $-1 $399 $568 #
straight-curve $-1 -10 -11.180339887498949 0 0 0 1 I I #
coedge $-1 $569 $241 $564 $570 reversed $405 $-1 #
coedge $-1 $241 $569 $243 $409 forward $405 $-1 #
loop $-1 $-1 $404 $386 #
vertex $-1 $570 $571 #
straight-curve $-1 -10 -35 0 0 0 1 I I #
coedge $-1 $553 $243 $550 $572 reversed $244 $-1 #
edge $-1 $573 -10 $245 10 $404 $574 forward 7 unknown #
face $-1 $575 $244 $29 $-1 $576 forward single #
point $-1 -10 -35 10 #
point $-1 -10 -11.180339887498949 10 #
model_id-kcp-attrib $-1 $-1 $-1 $249 1 990663934 60 -801374207 8 #
face $577 $283 $578 $9 $-1 $440 forward single #
loop $-1 $-1 $579 $249 #
plane-surface $-1 0 45 0 0 -1 0 0 0 -1 forward_v I I I I #
coedge $-1 $580 $581 $582 $583 reversed $250 $-1 #
coedge $-1 $272 $252 $579 $584 reversed $138 $-1 #
coedge $-1 $254 $253 $585 $586 forward $84 $-1 #
edge $587 $588 11.180339887498949 $265 35 $262 $589 forward 7 unknown #
straight-curve $-1 10 -35 5 0 0 1 I I #
coedge $-1 $585 $433 $256 $423 reversed $590 $-1 #
edge $-1 $424 0.84106867056793033 $426 2.3005239830218631 $256 $591 forward 7 unknown #
vertex $-1 $586 $592 #
straight-curve $-1 10 0 0 0 -1 0 I I #
vertex $-1 $258 $593 #
straight-curve $-1 -10 0 0 0 1 0 I I #
point $-1 10 -35 0 #
coedge $-1 $594 $261 $595 $596 forward $263 $-1 #
coedge $-1 $262 $597 $598 $599 forward $263 $-1 #
convexity-sys-attrib $-1 $-1 $264 $146 #
point $-1 10 -35 20 #
coedge $-1 $422 $595 $267 $434 reversed $590 $-1 #
edge $-1 $426 0 $436 20 $267 $600 forward 7 unknown #
attrib_edge_convexity-kcp-attrib $-1 $601 $-1 $268 1 #
vertex $-1 $268 $602 #
straight-curve $-1 -10 0 20 0 1 0 I I #
model_id-kcp-attrib $-1 $-1 $-1 $269 1 990663934 60 -801374207 18 #
face $603 $-1 $604 $9 $-1 $59 forward single #
plane-surface $-1 -10 0 10 1 0 0 0 0 -1 forward_v I I I I #
convexity-sys-attrib $-1 $-1 $273 $154 #
coedge $-1 $286 $579 $275 $443 reversed $415 $-1 #
edge $-1 $291 -40 $445 40 $442 $605 forward 7 unknown #
attrib_edge_convexity-kcp-attrib $-1 $606 $-1 $276 1 #
vertex $-1 $276 $607 #
straight-curve $-1 40 0 -20 0 -1 0 I I #
loop $-1 $-1 $608 $278 #
coedge $-1 $609 $609 $610 $611 forward $277 $-1 #
model_id-kcp-attrib $-1 $-1 $-1 $278 1 990663934 60 -801374207 12 #
face $612 $613 $614 $9 $-1 $615 forward single #
plane-surface $-1 0 0 -20 0 0 1 1 0 0 forward_v I I I I #
coedge $-1 $579 $286 $281 $453 reversed $415 $-1 #
edge $616 $455 -40 $289 40 $452 $617 forward 7 unknown #
attrib_edge_convexity-kcp-attrib $-1 $618 $-1 $282 1 #
vertex $-1 $282 $619 #
straight-curve $-1 40 0 20 0 1 0 I I #
model_id-kcp-attrib $-1 $-1 $-1 $283 1 990663934 60 -801374207 10 #
plane-surface $-1 0 0 20 0 0 1 1 0 0 forward_v I I I I #
straight-curve $-1 -40 45 0 0 0 -1 I I #
convexity-sys-attrib $-1 $-1 $288 $168 #
point $-1 -40 45 20 #
point $-1 -40 45 -20 #
model_id-kcp-attrib $-1 $-1 $-1 $296 1 990663934 60 -801374206 3 #
plane-surface $-1 40 0 0 -1 0 0 0 0 1 forward_v I I I I #
coedge $-1 $301 $299 $303 $469 reversed $176 $-1 #
edge $-1 $314 -20 $471 20 $313 $620 forward 7 unknown #
vertex $-1 $469 $621 #
straight-curve $-1 -40 -45 0 0 0 -1 I I #
edge $-1 $467 -45 $471 45 $465 $622 forward 7 unknown #
straight-curve $-1 0 -45 -20 -1 0 0 I I #
vertex $-1 $306 $623 #
straight-curve $-1 0 45 -20 1 0 0 I I #
point $-1 40 45 -20 #
point $-1 40 -45 -20 #
straight-curve $-1 -40 0 20 0 -1 0 I I #
point $-1 -40 45 20 #
point $-1 -40 -45 20 #
straight-curve $-1 40 -45 0 0 0 -1 I I #
straight-curve $-1 40 45 0 0 0 -1 I I #
face $-1 $506 $495 $25 $-1 $624 forward single #
cone-surface $-1 0 0 10 0 0 1 15 0 0 1 I I 0 1 15 forward I I I I #
coedge $-1 $625 $326 $501 $626 reversed $195 $-1 #
coedge $-1 $326 $625 $327 $486 forward $195 $-1 #
edge $-1 $502 2.3005239830218631 $487 3.9826613241577231 $326 $627 forward 7 unknown #
coedge $-1 $328 $327 $628 $629 reversed $113 $-1 #
edge $-1 $630 0 $487 10 $483 $631 forward 7 unknown #
vertex $-1 $484 $632 #
straight-curve $-1 -10 -17.5 20 0 -1 0 I I #
coedge $-1 $628 $633 $331 $490 forward $634 $-1 #
edge $635 $496 -10 $492 10 $331 $636 forward 7 unknown #
convexity-sys-attrib $-1 $-1 $-1 $332 #
vertex $-1 $490 $637 #
straight-curve $-1 -10 -35 10 0 0 1 I I #
coedge $-1 $508 $333 $633 $638 reversed $495 $-1 #
loop $-1 $-1 $346 $480 #
vertex $-1 $638 $639 #
straight-curve $-1 10 -35 10 0 0 1 I I #
point $-1 -10 -35 20 #
point $-1 10 -35 20 #
coedge $-1 $640 $339 $342 $505 reversed $324 $-1 #
coedge $-1 $339 $640 $482 $626 forward $324 $-1 #
vertex $-1 $340 $641 #
straight-curve $-1 -10 5.5901699437494745 20 0 -1 0 I I #
coedge $-1 $342 $341 $642 $643 reversed $343 $-1 #
edge $-1 $644 0 $344 10 $342 $645 forward 7 unknown #
face $-1 $356 $343 $25 $-1 $646 forward single #
point $-1 -10 35 20 #
coedge $-1 $346 $494 $348 $511 forward $495 $-1 #
straight-curve $-1 10 -5.5901699437494727 20 0 1 0 I I #
coedge $-1 $349 $348 $647 $648 reversed $350 $-1 #
edge $-1 $649 0 $351 10 $508 $650 forward 7 unknown #
point $-1 10 -11.180339887498949 20 #
coedge $-1 $647 $642 $353 $514 forward $634 $-1 #
edge $651 $517 -35 $515 -11.180339887498949 $353 $652 forward 7 unknown #
vertex $-1 $514 $653 #
straight-curve $-1 10 11.180339887498949 10 0 0 1 I I #
vertex $-1 $514 $654 #
straight-curve $-1 10 35 10 0 0 1 I I #
face $-1 $-1 $634 $25 $-1 $655 reversed single #
plane-surface $-1 10 35 10 1 0 0 0 0 -1 forward_v I I I I #
plane-surface $-1 -10 11.180339887498949 0 -1 0 0 0 0 1 forward_v I I I I #
coedge $-1 $656 $657 $381 $544 forward $360 $-1 #
coedge $-1 $658 $362 $657 $659 reversed $215 $-1 #
coedge $-1 $362 $658 $363 $528 forward $215 $-1 #
coedge $-1 $365 $381 $362 $526 reversed $227 $-1 #
edge $-1 $529 -14.142135623730951 $660 14.142135623730951 $362 $661 forward 7 unknown #
coedge $-1 $364 $363 $662 $663 reversed $121 $-1 #
edge $-1 $664 0 $529 10 $524 $665 forward 7 unknown #
vertex $-1 $528 $666 #
ellipse-curve $-1 0 0 10 0 0 -1 15 0 0 1 I I #
coedge $-1 $662 $371 $367 $532 forward $537 $-1 #
edge $667 $374 -23.454915028125264 $533 0.36474508437578734 $367 $668 forward 7 unknown #
vertex $-1 $532 $669 #
straight-curve $-1 10 11.180339887498949 0 0 0 1 I I #
point $-1 10 11.180339887498949 10 #
coedge $-1 $371 $670 $376 $542 forward $537 $-1 #
loop $-1 $-1 $536 $547 #
convexity-sys-attrib $-1 $-1 $-1 $372 #
straight-curve $-1 -4.4408920985006262e-016 35 0 1 0 0 I I #
point $-1 10 35 0 #
coedge $-1 $377 $376 $656 $671 forward $378 $-1 #
edge $672 $673 -0.36474508437578734 $379 23.454915028125264 $376 $674 forward 7 unknown #
point $-1 -10 35 0 #
edge $-1 $660 -2.8017557441356713 $545 -2.3005239830218631 $522 $675 forward 7 unknown #
vertex $-1 $671 $676 #
straight-curve $-1 -10 11.545084971874736 10 0 1 0 I I #
face $-1 $-1 $537 $27 $-1 $677 reversed single #
plane-surface $-1 0 18.614042315868797 10 0 0 1 1 0 0 forward_v I I I I #
plane-surface $-1 10 -35 0 0 -1 0 0 0 -1 forward_v I I I I #
coedge $-1 $678 $679 $408 $572 forward $387 $-1 #
coedge $-1 $680 $389 $679 $681 reversed $232 $-1 #
coedge $-1 $389 $680 $390 $556 forward $232 $-1 #
coedge $-1 $392 $408 $389 $554 reversed $244 $-1 #
edge $-1 $557 0.33983690945412193 $682 0.84106867056793033 $389 $683 forward 7 unknown #
coedge $-1 $391 $390 $684 $685 reversed $129 $-1 #
edge $-1 $686 0 $557 10 $552 $687 forward 7 unknown #
vertex $-1 $556 $688 #
straight-curve $-1 -4.4408920985006262e-016 -5 10 1 0 0 I I #
coedge $-1 $684 $398 $394 $560 forward $565 $-1 #
edge $689 $401 2.3005239830218631 $561 2.8017557441356713 $394 $690 forward 7 unknown #
vertex $-1 $560 $691 #
straight-curve $-1 -14.142135623730951 -5 0 0 0 1 I I #
point $-1 -14.142135623730951 -5 10 #
coedge $-1 $398 $692 $403 $570 forward $565 $-1 #
loop $-1 $-1 $564 $575 #
convexity-sys-attrib $-1 $-1 $-1 $399 #
straight-curve $-1 -10 -11.545084971874736 0 0 1 0 I I #
point $-1 -10 -11.180339887498949 0 #
coedge $-1 $404 $403 $678 $693 forward $405 $-1 #
edge $694 $695 -10 $406 10 $403 $696 forward 7 unknown #
point $-1 -10 -35 0 #
edge $-1 $682 -0.36474508437578734 $573 23.454915028125264 $550 $697 forward 7 unknown #
vertex $-1 $693 $698 #
straight-curve $-1 -4.4408920985006262e-016 -35 10 -1 0 0 I I #
face $-1 $-1 $565 $29 $-1 $699 reversed single #
plane-surface $-1 0 -18.614042315868797 10 0 0 1 1 0 0 forward_v I I I I #
model_id-kcp-attrib $-1 $-1 $-1 $414 1 990663934 60 -801374207 9 #
loop $-1 $-1 $582 $414 #
coedge $-1 $442 $452 $418 $584 forward $415 $-1 #
coedge $-1 $700 $417 $701 $702 reversed $250 $-1 #
coedge $-1 $417 $700 $703 $704 reversed $250 $-1 #
coedge $-1 $705 $706 $417 $583 forward $578 $-1 #
edge $-1 $707 -5 $708 15 $582 $709 forward 7 unknown #
edge $710 $455 -20 $445 20 $418 $711 forward 7 unknown #
coedge $-1 $598 $422 $419 $586 reversed $590 $-1 #
edge $-1 $588 -20 $424 0 $419 $712 forward 7 unknown #
attrib_edge_convexity-kcp-attrib $-1 $713 $-1 $420 1 #
vertex $-1 $586 $714 #
straight-curve $-1 10 0 20 0 -1 0 I I #
loop $-1 $-1 $585 $715 #
ellipse-curve $-1 0 0 0 0 0 -1 15 0 0 1 I I #
point $-1 10 -11.180339887498949 0 #
point $-1 -10 -11.180339887498949 0 #
coedge $-1 $703 $429 $705 $716 forward $263 $-1 #
coedge $-1 $433 $717 $429 $596 reversed $590 $-1 #
edge $718 $436 2.3005239830218631 $719 3.9826613241577231 $429 $720 forward 7 unknown #
coedge $-1 $430 $703 $721 $722 forward $263 $-1 #
coedge $-1 $723 $585 $430 $599 reversed $590 $-1 #
edge $724 $725 -0.84106867056793033 $588 0.84106867056793033 $430 $726 forward 7 unknown #
straight-curve $-1 -10 -11.180339887498949 0 0 0 1 I I #
convexity-sys-attrib $-1 $-1 $435 $268 #
point $-1 -10 -11.180339887498949 20 #
model_id-kcp-attrib $-1 $-1 $-1 $439 1 990663934 60 -801374207 19 #
loop $-1 $-1 $701 $439 #
straight-curve $-1 0 45 -20 1 0 0 I I #
convexity-sys-attrib $-1 $-1 $444 $276 #
point $-1 40 45 -20 #
coedge $-1 $727 $727 $728 $729 forward $447 $-1 #
coedge $-1 $448 $448 $730 $731 forward $277 $-1 #
coedge $-1 $732 $733 $448 $611 reversed $734 $-1 #
edge $-1 $735 -14.142135623730951 $736 14.142135623730951 $610 $737 forward 7 unknown #
model_id-kcp-attrib $-1 $-1 $-1 $450 1 990663934 60 -801374207 13 #
face $738 $739 $740 $9 $-1 $741 reversed single #
loop $-1 $-1 $742 $450 #
plane-surface $-1 0 0 10 0 0 1 1 0 0 forward_v I I I I #
attrib_edge_convexity-kcp-attrib $-1 $743 $-1 $453 1 #
straight-curve $-1 0 45 20 -1 0 0 I I #
convexity-sys-attrib $-1 $-1 $454 $282 #
point $-1 40 45 20 #
straight-curve $-1 -40 45 0 0 0 -1 I I #
point $-1 -40 -45 -20 #
straight-curve $-1 -40 0 -20 0 1 0 I I #
point $-1 -40 45 -20 #
plane-surface $-1 10 -11.180339887498945 10 1 0 0 0 0 -1 forward_v I I I I #
coedge $-1 $483 $482 $744 $745 reversed $195 $-1 #
edge $-1 $746 0 $502 10 $501 $747 forward 7 unknown #
ellipse-curve $-1 0 0 20 0 0 1 15 0 0 1 I I #
coedge $-1 $744 $489 $485 $629 forward $634 $-1 #
edge $748 $492 -35 $630 -11.180339887498949 $485 $749 forward 7 unknown #
vertex $-1 $629 $750 #
straight-curve $-1 -10 -11.180339887498945 10 0 0 1 I I #
point $-1 -10 -11.180339887498949 20 #
coedge $-1 $489 $647 $494 $638 forward $634 $-1 #
loop $-1 $-1 $513 $519 #
convexity-sys-attrib $-1 $-1 $-1 $490 #
straight-curve $-1 0 -35 10 -1 0 0 I I #
point $-1 -10 -35 10 #
edge $751 $649 11.180339887498949 $496 35 $494 $752 forward 7 unknown #
point $-1 10 -35 10 #
coedge $-1 $501 $500 $753 $754 reversed $324 $-1 #
point $-1 -10 11.180339887498949 20 #
coedge $-1 $513 $753 $504 $643 forward $634 $-1 #
edge $755 $644 -10 $517 10 $504 $756 forward 7 unknown #
vertex $-1 $754 $757 #
straight-curve $-1 -10 35 10 0 0 1 I I #
plane-surface $-1 -10 35 10 0 1 0 0 0 1 forward_v I I I I #
coedge $-1 $633 $513 $510 $648 forward $634 $-1 #
edge $758 $515 -0.84106867056793033 $649 0.84106867056793033 $510 $759 forward 7 unknown #
vertex $-1 $648 $760 #
straight-curve $-1 10 -11.180339887498945 10 0 0 1 I I #
convexity-sys-attrib $-1 $-1 $-1 $514 #
straight-curve $-1 10 0 10 0 -1 0 I I #
point $-1 10 11.180339887498949 10 #
point $-1 10 35 10 #
plane-surface $-1 6.6613381477509392e-016 5.0990037754336969e-016 10 0 0 1 1 0 0 forward_v I I I I #
coedge $-1 $761 $522 $541 $671 reversed $360 $-1 #
coedge $-1 $522 $761 $523 $659 forward $360 $-1 #
coedge $-1 $524 $523 $762 $763 reversed $215 $-1 #
edge $-1 $764 0 $660 10 $657 $765 forward 7 unknown #
vertex $-1 $659 $766 #
straight-curve $-1 -4.4408920985006262e-016 5 10 -1 0 0 I I #
coedge $-1 $762 $531 $527 $663 forward $537 $-1 #
edge $767 $533 -0.84106867056793033 $664 -0.33983690945412193 $527 $768 forward 7 unknown #
vertex $-1 $663 $769 #
straight-curve $-1 14.142135623730951 5 0 0 0 1 I I #
point $-1 14.142135623730951 5 10 #
convexity-sys-attrib $-1 $-1 $-1 $532 #
straight-curve $-1 10 11.545084971874736 0 0 -1 0 I I #
point $-1 10 11.180339887498949 0 #
coedge $-1 $536 $762 $761 $770 forward $537 $-1 #
edge $-1 $673 0 $545 10 $541 $771 forward 7 unknown #
convexity-sys-attrib $-1 $-1 $-1 $542 #
vertex $-1 $542 $772 #
straight-curve $-1 -10 11.545084971874736 0 0 1 0 I I #
ellipse-curve $-1 0 0 10 0 0 -1 15 0 0 1 I I #
point $-1 -10 11.180339887498949 10 #
plane-surface $-1 0 18.614042315868797 0 0 0 1 1 0 0 forward_v I I I I #
coedge $-1 $773 $550 $569 $693 reversed $387 $-1 #
coedge $-1 $550 $773 $551 $681 forward $387 $-1 #
coedge $-1 $552 $551 $774 $775 reversed $232 $-1 #
edge $-1 $776 0 $682 10 $679 $777 forward 7 unknown #
vertex $-1 $681 $778 #
ellipse-curve $-1 0 0 10 0 0 -1 15 0 0 1 I I #
coedge $-1 $774 $559 $555 $685 forward $565 $-1 #
edge $779 $561 -14.142135623730951 $686 14.142135623730951 $555 $780 forward 7 unknown #
vertex $-1 $685 $781 #
straight-curve $-1 14.142135623730951 -5 0 0 0 1 I I #
point $-1 14.142135623730951 -5 10 #
convexity-sys-attrib $-1 $-1 $-1 $560 #
ellipse-curve $-1 0 0 0 0 0 -1 15 0 0 1 I I #
point $-1 -14.142135623730951 -5 0 #
coedge $-1 $564 $774 $773 $782 forward $565 $-1 #
edge $-1 $695 0 $573 10 $569 $783 forward 7 unknown #
convexity-sys-attrib $-1 $-1 $-1 $570 #
vertex $-1 $570 $784 #
straight-curve $-1 -4.4408920985006262e-016 -35 0 -1 0 0 I I #
straight-curve $-1 10 -11.545084971874736 10 0 -1 0 I I #
point $-1 10 -35 10 #
plane-surface $-1 0 -18.614042315868797 0 0 0 1 1 0 0 forward_v I I I I #
coedge $-1 $581 $580 $785 $786 reversed $250 $-1 #
coedge $-1 $787 $788 $580 $702 forward $604 $-1 #
edge $-1 $789 -10 $707 10 $701 $790 forward 7 unknown #
coedge $-1 $597 $594 $581 $704 forward $263 $-1 #
edge $791 $708 -10 $792 10 $581 $793 forward 7 unknown #
coedge $-1 $794 $582 $594 $716 reversed $578 $-1 #
coedge $-1 $582 $794 $787 $795 forward $578 $-1 #
vertex $-1 $795 $796 #
vertex $-1 $716 $797 #
straight-curve $-1 -10 35 5 0 0 1 I I #
attrib_edge_convexity-kcp-attrib $-1 $798 $-1 $584 1 #
straight-curve $-1 40 45 0 0 0 -1 I I #
straight-curve $-1 10 -11.180339887498949 0 0 0 -1 I I #
convexity-sys-attrib $-1 $-1 $587 $420 #
point $-1 10 -11.180339887498949 20 #
face $799 $800 $801 $9 $-1 $802 reversed single #
edge $803 $719 11.180339887498949 $708 35 $594 $437 forward 7 unknown #
coedge $-1 $595 $804 $794 $805 reversed $590 $-1 #
attrib_edge_convexity-kcp-attrib $-1 $806 $-1 $596 1 #
vertex $-1 $805 $807 #
ellipse-curve $-1 0 0 20 0 0 -1 15 0 0 1 I I #
coedge $-1 $785 $808 $597 $722 reversed $809 $-1 #
edge $810 $792 -35 $725 -11.180339887498949 $597 $589 forward 7 unknown #
coedge $-1 $804 $598 $808 $811 reversed $590 $-1 #
attrib_edge_convexity-kcp-attrib $-1 $812 $-1 $599 1 #
vertex $-1 $722 $813 #
ellipse-curve $-1 0 0 20 0 0 -1 15 0 0 1 I I #
coedge $-1 $608 $608 $814 $815 forward $447 $-1 #
coedge $-1 $816 $817 $608 $729 reversed $801 $-1 #
edge $-1 $818 -2.8017557441356713 $819 -0.33983690945412193 $608 $820 forward 7 unknown #
coedge $-1 $821 $822 $609 $731 reversed $801 $-1 #
edge $-1 $736 0.33983690945412193 $735 2.8017557441356713 $609 $820 forward 7 unknown #
coedge $-1 $823 $610 $822 $824 reversed $734 $-1 #
coedge $-1 $610 $823 $821 $825 reversed $734 $-1 #
loop $-1 $-1 $732 $739 #
vertex $-1 $731 $826 #
vertex $-1 $731 $827 #
straight-curve $-1 0 5 -20 1 0 0 I I #
model_id-kcp-attrib $-1 $-1 $-1 $613 1 990663934 60 -801374207 14 #
face $828 $715 $734 $9 $-1 $829 reversed single #
loop $-1 $-1 $830 $613 #
plane-surface $-1 0 -5 -5 0 1 0 0 0 1 forward_v I I I I #
coedge $-1 $831 $832 $833 $834 reversed $614 $-1 #
convexity-sys-attrib $-1 $-1 $616 $453 #
coedge $-1 $753 $628 $625 $745 forward $634 $-1 #
edge $835 $630 2.3005239830218631 $746 3.9826613241577231 $625 $836 forward 7 unknown #
vertex $-1 $745 $837 #
straight-curve $-1 -10 11.180339887498949 10 0 0 1 I I #
convexity-sys-attrib $-1 $-1 $-1 $629 #
straight-curve $-1 -10 0 10 0 1 0 I I #
point $-1 -10 -11.180339887498949 10 #
convexity-sys-attrib $-1 $-1 $-1 $638 #
straight-curve $-1 10 0 10 0 -1 0 I I #
coedge $-1 $642 $744 $640 $754 forward $634 $-1 #
edge $838 $746 11.180339887498949 $644 35 $640 $839 forward 7 unknown #
convexity-sys-attrib $-1 $-1 $-1 $643 #
straight-curve $-1 0 35 10 1 0 0 I I #
point $-1 -10 35 10 #
convexity-sys-attrib $-1 $-1 $-1 $648 #
ellipse-curve $-1 0 0 10 0 0 -1 15 0 0 1 I I #
point $-1 10 -11.180339887498949 10 #
coedge $-1 $657 $656 $670 $770 reversed $360 $-1 #
coedge $-1 $670 $662 $658 $763 forward $537 $-1 #
edge $840 $664 -14.142135623730951 $764 14.142135623730951 $658 $841 forward 7 unknown #
vertex $-1 $763 $842 #
straight-curve $-1 -14.142135623730951 5 0 0 0 1 I I #
point $-1 -14.142135623730951 5 10 #
convexity-sys-attrib $-1 $-1 $-1 $663 #
ellipse-curve $-1 0 0 0 0 0 -1 15 0 0 1 I I #
point $-1 14.142135623730951 5 0 #
edge $843 $764 -2.8017557441356713 $673 -2.3005239830218631 $761 $844 forward 7 unknown #
straight-curve $-1 -10 11.180339887498949 0 0 0 1 I I #
point $-1 -10 11.180339887498949 0 #
coedge $-1 $679 $678 $692 $782 reversed $387 $-1 #
coedge $-1 $692 $684 $680 $775 forward $565 $-1 #
edge $845 $686 0.33983690945412193 $776 0.84106867056793033 $680 $846 forward 7 unknown #
vertex $-1 $775 $847 #
straight-curve $-1 10 -11.180339887498949 0 0 0 1 I I #
point $-1 10 -11.180339887498949 10 #
convexity-sys-attrib $-1 $-1 $-1 $685 #
straight-curve $-1 -4.4408920985006262e-016 -5 0 1 0 0 I I #
point $-1 14.142135623730951 -5 0 #
edge $848 $776 -0.36474508437578734 $695 23.454915028125264 $773 $849 forward 7 unknown #
straight-curve $-1 10 -35 0 0 0 1 I I #
point $-1 10 -35 0 #
coedge $-1 $850 $721 $700 $786 forward $809 $-1 #
edge $-1 $792 -15 $789 5 $785 $851 forward 7 unknown #
coedge $-1 $852 $701 $706 $795 reversed $604 $-1 #
coedge $-1 $701 $852 $850 $853 reversed $604 $-1 #
vertex $-1 $786 $854 #
straight-curve $-1 0 35 0 -1 0 0 I I #
attrib_edge_convexity-kcp-attrib $-1 $855 $-1 $704 1 #
vertex $-1 $722 $856 #
straight-curve $-1 0 35 20 1 0 0 I I #
coedge $-1 $706 $705 $717 $805 forward $578 $-1 #
edge $-1 $857 11.180339887498949 $707 35 $706 $427 forward 7 unknown #
point $-1 -10 35 0 #
point $-1 -10 35 20 #
convexity-sys-attrib $-1 $-1 $710 $584 #
model_id-kcp-attrib $-1 $-1 $-1 $715 1 990663934 60 -801374207 16 #
face $858 $269 $809 $9 $-1 $85 forward single #
loop $-1 $590 $822 $715 #
cone-surface $-1 0 0 0 0 0 1 15 0 0 1 I I 0 1 15 forward I I I I #
attrib_edge_convexity-kcp-attrib $-1 $859 $-1 $716 1 #
coedge $-1 $717 $723 $852 $860 reversed $590 $-1 #
edge $-1 $719 -20 $857 0 $794 $861 forward 7 unknown #
convexity-sys-attrib $-1 $-1 $718 $596 #
point $-1 -10 11.180339887498949 20 #
coedge $-1 $721 $850 $723 $811 forward $809 $-1 #
loop $-1 $-1 $785 $800 #
attrib_edge_convexity-kcp-attrib $-1 $862 $-1 $722 1 #
edge $-1 $863 0 $725 20 $808 $864 forward 7 unknown #
convexity-sys-attrib $-1 $-1 $724 $599 #
point $-1 10 11.180339887498949 20 #
coedge $-1 $865 $830 $727 $815 reversed $740 $-1 #
edge $-1 $819 -14.142135623730951 $818 14.142135623730951 $814 $866 forward 7 unknown #
coedge $-1 $833 $728 $830 $867 forward $801 $-1 #
coedge $-1 $728 $868 $865 $869 forward $801 $-1 #
vertex $-1 $729 $870 #
vertex $-1 $729 $871 #
ellipse-curve $-1 0 0 -20 0 0 1 15 0 0 1 I I #
coedge $-1 $868 $730 $733 $825 forward $801 $-1 #
coedge $-1 $730 $833 $732 $824 forward $801 $-1 #
coedge $-1 $733 $732 $832 $872 reversed $734 $-1 #
edge $-1 $873 -10 $735 20 $822 $874 forward 7 unknown #
edge $-1 $736 -20 $875 10 $821 $876 forward 7 unknown #
point $-1 -14.142135623730951 5 -20 #
point $-1 14.142135623730951 5 -20 #
model_id-kcp-attrib $-1 $-1 $-1 $739 1 990663934 60 -801374207 15 #
plane-surface $-1 0 5 -5 0 -1 0 0 0 -1 forward_v I I I I #
coedge $-1 $814 $877 $816 $867 reversed $740 $-1 #
coedge $-1 $878 $742 $877 $879 forward $614 $-1 #
coedge $-1 $742 $878 $823 $872 forward $614 $-1 #
coedge $-1 $822 $816 $742 $834 forward $801 $-1 #
edge $-1 $880 2.8017557441356713 $873 3.4814295630439149 $833 $881 forward 7 unknown #
convexity-sys-attrib $-1 $-1 $-1 $745 #
ellipse-curve $-1 0 0 10 0 0 -1 15 0 0 1 I I #
point $-1 -10 11.180339887498949 10 #
convexity-sys-attrib $-1 $-1 $-1 $754 #
straight-curve $-1 -10 0 10 0 1 0 I I #
convexity-sys-attrib $-1 $-1 $-1 $763 #
straight-curve $-1 -4.4408920985006262e-016 5 0 -1 0 0 I I #
point $-1 -14.142135623730951 5 0 #
convexity-sys-attrib $-1 $-1 $-1 $770 #
ellipse-curve $-1 0 0 0 0 0 -1 15 0 0 1 I I #
convexity-sys-attrib $-1 $-1 $-1 $775 #
ellipse-curve $-1 0 0 0 0 0 -1 15 0 0 1 I I #
point $-1 10 -11.180339887498949 0 #
convexity-sys-attrib $-1 $-1 $-1 $782 #
straight-curve $-1 10 -11.545084971874736 0 0 -1 0 I I #
coedge $-1 $808 $785 $788 $853 forward $809 $-1 #
straight-curve $-1 10 35 5 0 0 -1 I I #
coedge $-1 $788 $787 $804 $860 forward $604 $-1 #
edge $-1 $789 -35 $863 -11.180339887498949 $850 $425 forward 7 unknown #
point $-1 10 35 0 #
convexity-sys-attrib $-1 $-1 $791 $704 #
point $-1 10 35 20 #
vertex $-1 $860 $882 #
model_id-kcp-attrib $-1 $-1 $-1 $800 1 990663934 60 -801374207 17 #
convexity-sys-attrib $-1 $-1 $803 $716 #
edge $-1 $857 -2.3005239830218631 $863 -0.84106867056793033 $852 $591 forward 7 unknown #
straight-curve $-1 -10 11.180339887498949 0 0 0 -1 I I #
convexity-sys-attrib $-1 $-1 $810 $722 #
vertex $-1 $853 $883 #
straight-curve $-1 10 11.180339887498949 0 0 0 1 I I #
coedge $-1 $877 $814 $817 $869 reversed $740 $-1 #
straight-curve $-1 0 -5 -20 -1 0 0 I I #
edge $-1 $818 -20 $880 10 $816 $884 forward 7 unknown #
coedge $-1 $817 $821 $878 $885 forward $801 $-1 #
edge $-1 $886 -10 $819 20 $817 $887 forward 7 unknown #
point $-1 -14.142135623730951 -5 -20 #
point $-1 14.142135623730951 -5 -20 #
edge $-1 $875 -14.142135623730951 $873 14.142135623730951 $823 $888 forward 7 unknown #
vertex $-1 $834 $889 #
straight-curve $-1 -14.142135623730951 5 0 0 0 -1 I I #
vertex $-1 $885 $890 #
straight-curve $-1 14.142135623730951 5 0 0 0 1 I I #
coedge $-1 $830 $865 $831 $879 reversed $740 $-1 #
coedge $-1 $832 $831 $868 $885 reversed $614 $-1 #
edge $-1 $880 -14.142135623730951 $886 14.142135623730951 $877 $891 forward 7 unknown #
vertex $-1 $834 $892 #
ellipse-curve $-1 0 0 10 0 0 -1 15 0 0 1 I I #
point $-1 -10 11.180339887498949 0 #
point $-1 10 11.180339887498949 0 #
straight-curve $-1 -14.142135623730951 -5 0 0 0 1 I I #
edge $-1 $875 -0.33983690945412193 $886 0.33983690945412193 $868 $881 forward 7 unknown #
vertex $-1 $885 $893 #
straight-curve $-1 14.142135623730951 -5 0 0 0 -1 I I #
straight-curve $-1 0 5 10 -1 0 0 I I #
point $-1 -14.142135623730951 5 10 #
point $-1 14.142135623730951 5 10 #
straight-curve $-1 0 -5 10 1 0 0 I I #
point $-1 -14.142135623730951 -5 10 #
point $-1 14.142135623730951 -5 10 #
End-of-ACIS-data 