600 0 1 0           
89 GICL ACIS Healer - Source: /gicl/data5/repository/Allied-Signal/edge-92/edge-92.sat - 6 0 18 ACIS 6.0.3 Solaris 24 Sun Apr 14 00:14:47 2002 
1 9.999999999999999547e-07 1.000000000000000036e-10 
body $-1 $1 $-1 $2 #
lump $-1 $-1 $3 $0 #
transform $-1 1 0 0 0 1 0 0 0 1 0 0 0 1 no_rotate no_reflect no_shear #
shell $-1 $-1 $-1 $4 $-1 $1 #
face $-1 $5 $6 $3 $-1 $7 forward single #
face $-1 $8 $9 $3 $-1 $10 forward single #
loop $-1 $11 $12 $4 #
plane-surface $-1 0 0 0.08999999999999999667 0 0 -1 -1 0 0 forward_v I I I I #
face $-1 $13 $14 $3 $-1 $15 reversed single #
loop $-1 $-1 $16 $5 #
plane-surface $-1 0 0 0.07000000000000000666 0 0 -1 -1 0 0 forward_v I I I I #
loop $-1 $17 $18 $4 #
coedge $-1 $12 $12 $19 $20 forward $6 $-1 #
face $-1 $21 $22 $3 $-1 $23 reversed single #
loop $-1 $24 $25 $8 #
cone-surface $-1 -0.08500000000000000611 0.1900000000000000022 0 0 0 1 0.08050000000000000211 0 0 1 I I 0 1 0.08050000000000000211 forward I I I I #
coedge $-1 $26 $27 $28 $29 forward $9 $-1 #
loop $-1 $30 $31 $4 #
coedge $-1 $18 $18 $25 $32 forward $11 $-1 #
coedge $-1 $19 $19 $12 $20 reversed $33 $-1 #
edge $-1 $34 -3.141592653589793116 $34 3.141592653589793116 $19 $35 forward 7 unknown #
face $-1 $36 $37 $3 $-1 $38 reversed single #
loop $-1 $-1 $39 $13 #
plane-surface $-1 0 0.6800000000000000488 0 0 -1 0 0 0 -1 forward_v I I I I #
loop $-1 $-1 $40 $8 #
coedge $-1 $25 $25 $18 $32 reversed $14 $-1 #
coedge $-1 $41 $16 $42 $43 reversed $9 $-1 #
coedge $-1 $16 $41 $44 $45 reversed $9 $-1 #
coedge $-1 $46 $47 $16 $29 reversed $48 $-1 #
edge $-1 $49 0 $50 0.2999999999999999889 $28 $51 forward 7 unknown #
loop $-1 $-1 $52 $4 #
coedge $-1 $53 $54 $55 $56 forward $17 $-1 #
edge $-1 $57 -3.141592653589793116 $57 3.141592653589793116 $25 $58 forward 7 unknown #
loop $-1 $-1 $19 $59 #
vertex $-1 $20 $60 #
ellipse-curve $-1 -0.08500000000000000611 -0.1900000000000000022 0.08999999999999999667 3.447897592003589866e-16 0 1 -0.08050000000000000211 0 2.775557561562890118e-17 1 I I #
face $-1 $61 $62 $3 $-1 $63 reversed single #
loop $-1 $-1 $44 $21 #
plane-surface $-1 0.2250000000000000056 0.5899999999999999689 0.07000000000000000666 0 -1 0 0 0 -1 forward_v I I I I #
coedge $-1 $64 $65 $66 $67 forward $22 $-1 #
coedge $-1 $40 $40 $68 $69 reversed $24 $-1 #
coedge $-1 $27 $26 $70 $71 reversed $9 $-1 #
coedge $-1 $72 $73 $26 $43 forward $74 $-1 #
edge $-1 $75 0 $50 0.05000000000000001665 $26 $76 forward 7 unknown #
coedge $-1 $77 $78 $27 $45 forward $37 $-1 #
edge $-1 $49 0 $79 0.05000000000000001665 $27 $80 forward 7 unknown #
coedge $-1 $55 $28 $78 $81 reversed $48 $-1 #
coedge $-1 $28 $82 $72 $83 reversed $48 $-1 #
loop $-1 $-1 $84 $85 #
vertex $-1 $45 $86 #
vertex $-1 $43 $87 #
straight-curve $-1 0.2250000000000000056 0.5899999999999999689 0.07000000000000000666 0 -1 0 I I #
coedge $-1 $88 $89 $90 $91 reversed $30 $-1 #
coedge $-1 $92 $31 $93 $94 reversed $17 $-1 #
coedge $-1 $31 $95 $96 $97 reversed $17 $-1 #
coedge $-1 $98 $46 $31 $56 reversed $48 $-1 #
edge $-1 $99 0 $100 0.09000000000000007994 $55 $101 forward 7 unknown #
vertex $-1 $32 $102 #
ellipse-curve $-1 -0.08500000000000000611 0.1900000000000000022 0.08999999999999999667 3.447897592003589866e-16 0 1 -0.08050000000000000211 0 2.775557561562890118e-17 1 I I #
face $-1 $-1 $103 $3 $-1 $104 reversed single #
point $-1 -0.004499999999999990119 -0.1900000000000000022 0.08999999999999999667 #
face $-1 $105 $74 $3 $-1 $106 reversed single #
loop $-1 $-1 $107 $36 #
plane-surface $-1 0.1749999999999999889 0.5899999999999999689 0.07000000000000000666 1 0 0 0 0 -1 forward_v I I I I #
coedge $-1 $96 $39 $98 $108 forward $22 $-1 #
coedge $-1 $39 $96 $109 $110 forward $22 $-1 #
coedge $-1 $111 $112 $39 $67 reversed $113 $-1 #
edge $-1 $114 -0.4500000000000000111 $115 -0 $66 $116 reversed 7 unknown #
coedge $-1 $68 $68 $40 $69 forward $117 $-1 #
edge $-1 $118 -3.141592653589793116 $118 3.141592653589793116 $40 $119 reversed 7 unknown #
coedge $-1 $107 $120 $41 $71 forward $62 $-1 #
edge $-1 $79 0 $75 0.2999999999999999889 $41 $121 forward 7 unknown #
coedge $-1 $122 $42 $47 $83 forward $74 $-1 #
coedge $-1 $42 $122 $107 $123 forward $74 $-1 #
loop $-1 $-1 $122 $61 #
vertex $-1 $123 $124 #
straight-curve $-1 0.1749999999999999889 0.28999999999999998 0.07000000000000000666 1 0 0 I I #
coedge $-1 $93 $44 $120 $125 reversed $37 $-1 #
coedge $-1 $44 $93 $46 $81 forward $37 $-1 #
vertex $-1 $125 $126 #
straight-curve $-1 0.2250000000000000056 0.5899999999999999689 0.07000000000000000666 -1 0 0 I I #
edge $-1 $100 -0.01999999999999999001 $49 -0 $46 $127 reversed 7 unknown #
coedge $-1 $47 $128 $129 $130 reversed $48 $-1 #
edge $-1 $50 0 $131 0.01999999999999999001 $47 $132 forward 7 unknown #
coedge $-1 $133 $98 $112 $134 reversed $48 $-1 #
face $-1 $135 $48 $3 $-1 $136 forward single #
point $-1 0.2250000000000000056 0.5899999999999999689 0.07000000000000000666 #
point $-1 0.2250000000000000056 0.28999999999999998 0.07000000000000000666 #
coedge $-1 $137 $52 $138 $139 reversed $30 $-1 #
coedge $-1 $52 $137 $140 $141 reversed $30 $-1 #
coedge $-1 $142 $143 $52 $91 forward $144 $-1 #
edge $-1 $145 -3.141592653589793116 $146 -0 $52 $147 reversed 7 unknown #
coedge $-1 $148 $53 $149 $150 reversed $17 $-1 #
coedge $-1 $78 $77 $53 $94 forward $37 $-1 #
edge $-1 $151 -0.05000000000000001665 $100 -0 $53 $152 reversed 7 unknown #
coedge $-1 $54 $153 $154 $155 forward $17 $-1 #
coedge $-1 $65 $64 $54 $97 forward $22 $-1 #
edge $-1 $99 -0.4500000000000000111 $156 -0 $54 $157 reversed 7 unknown #
coedge $-1 $84 $55 $64 $108 reversed $48 $-1 #
vertex $-1 $97 $158 #
vertex $-1 $94 $159 #
straight-curve $-1 0.2250000000000000056 0.6800000000000000488 0.08999999999999999667 0 -1 0 I I #
point $-1 -0.004499999999999990119 0.1900000000000000022 0.08999999999999999667 #
loop $-1 $33 $160 $59 #
cone-surface $-1 -0.08500000000000000611 -0.1900000000000000022 0 0 0 1 0.08050000000000000211 0 0 1 I I 0 1 0.08050000000000000211 forward I I I I #
face $-1 $85 $161 $3 $-1 $162 reversed single #
plane-surface $-1 0.1749999999999999889 0.28999999999999998 0.07000000000000000666 0 1 0 0 0 1 forward_v I I I I #
coedge $-1 $149 $70 $73 $123 reversed $62 $-1 #
edge $-1 $115 0 $99 0.08999999999999999667 $98 $163 forward 7 unknown #
coedge $-1 $154 $164 $65 $110 reversed $165 $-1 #
edge $-1 $156 -0.08999999999999999667 $114 -0 $109 $166 reversed 7 unknown #
coedge $-1 $167 $66 $164 $168 forward $113 $-1 #
coedge $-1 $66 $167 $84 $134 forward $113 $-1 #
loop $-1 $117 $111 $169 #
vertex $-1 $67 $170 #
vertex $-1 $67 $171 #
straight-curve $-1 0.2250000000000000056 0.6800000000000000488 0.1799999999999999933 -1 0 0 I I #
loop $-1 $172 $68 $169 #
vertex $-1 $69 $173 #
ellipse-curve $-1 -0.08500000000000000611 0.1900000000000000022 0.1799999999999999933 3.447897592003589866e-16 0 1 -0.08050000000000000211 0 2.775557561562890118e-17 1 I I #
coedge $-1 $70 $149 $77 $125 forward $62 $-1 #
straight-curve $-1 0.1749999999999999889 0.5899999999999999689 0.07000000000000000666 0 -1 0 I I #
coedge $-1 $73 $72 $148 $174 forward $74 $-1 #
edge $-1 $175 -0.01999999999999999001 $75 -0 $107 $176 reversed 7 unknown #
point $-1 0.1749999999999999889 0.28999999999999998 0.07000000000000000666 #
edge $-1 $151 -0.01999999999999999001 $79 -0 $77 $177 reversed 7 unknown #
point $-1 0.1749999999999999889 0.5899999999999999689 0.07000000000000000666 #
straight-curve $-1 0.2250000000000000056 0.5899999999999999689 0.07000000000000000666 0 0 1 I I #
coedge $-1 $82 $178 $179 $180 reversed $48 $-1 #
coedge $-1 $181 $148 $82 $130 forward $17 $-1 #
edge $-1 $131 0 $182 0.57999999999999996 $82 $183 forward 7 unknown #
vertex $-1 $174 $184 #
straight-curve $-1 0.2250000000000000056 0.28999999999999998 0.07000000000000000666 0 0 1 I I #
coedge $-1 $185 $84 $186 $187 reversed $48 $-1 #
edge $-1 $188 -1.360000000000000098 $115 -0 $84 $189 reversed 7 unknown #
face $-1 $190 $191 $3 $-1 $10 forward single #
plane-surface $-1 0.2250000000000000056 0.7175000000000000266 0 1 0 0 0 0 -1 forward_v I I I I #
coedge $-1 $89 $88 $192 $193 reversed $30 $-1 #
coedge $-1 $194 $195 $88 $139 forward $196 $-1 #
edge $-1 $197 -0.277000000000000024 $145 -0 $88 $198 reversed 7 unknown #
coedge $-1 $199 $200 $89 $141 forward $201 $-1 #
edge $-1 $146 -0.277000000000000024 $202 -0 $89 $203 reversed 7 unknown #
coedge $-1 $204 $90 $200 $205 forward $144 $-1 #
coedge $-1 $90 $204 $194 $206 reversed $144 $-1 #
loop $-1 $-1 $142 $207 #
vertex $-1 $206 $208 #
vertex $-1 $205 $209 #
ellipse-curve $-1 0.09650000000000000244 -0.138500000000000012 0.08999999999999999667 0 0 1 -0.02350000000000000006 0 0 1 I I #
coedge $-1 $129 $92 $122 $174 reversed $17 $-1 #
coedge $-1 $120 $107 $92 $150 forward $62 $-1 #
edge $-1 $175 -0.2999999999999999889 $151 -0 $92 $210 reversed 7 unknown #
vertex $-1 $125 $211 #
straight-curve $-1 0.2250000000000000056 0.5899999999999999689 0.08999999999999999667 -1 0 0 I I #
coedge $-1 $95 $212 $213 $214 reversed $17 $-1 #
coedge $-1 $215 $109 $95 $155 reversed $165 $-1 #
edge $-1 $216 -1.360000000000000098 $156 -0 $154 $217 reversed 7 unknown #
vertex $-1 $97 $218 #
straight-curve $-1 -0.2250000000000000056 0.6800000000000000488 0.08999999999999999667 1 0 0 I I #
point $-1 0.2250000000000000056 0.6800000000000000488 0.08999999999999999667 #
point $-1 0.2250000000000000056 0.5899999999999999689 0.08999999999999999667 #
coedge $-1 $160 $160 $219 $220 reversed $103 $-1 #
loop $-1 $-1 $221 $105 #
plane-surface $-1 0.1749999999999999889 -0.5899999999999999689 0.07000000000000000666 0 1 0 0 0 1 forward_v I I I I #
straight-curve $-1 0.2250000000000000056 0.6800000000000000488 0.1799999999999999933 0 0 -1 I I #
coedge $-1 $109 $215 $111 $168 reversed $165 $-1 #
loop $-1 $-1 $154 $222 #
straight-curve $-1 -0.2250000000000000056 0.6800000000000000488 0.1799999999999999933 0 0 -1 I I #
coedge $-1 $112 $111 $223 $224 reversed $113 $-1 #
edge $-1 $114 0 $225 1.360000000000000098 $164 $226 forward 7 unknown #
face $-1 $227 $228 $3 $-1 $229 forward single #
point $-1 -0.2250000000000000056 0.6800000000000000488 0.1799999999999999933 #
point $-1 0.2250000000000000056 0.6800000000000000488 0.1799999999999999933 #
loop $-1 $-1 $219 $169 #
point $-1 -0.004499999999999990119 0.1900000000000000022 0.1799999999999999933 #
edge $-1 $131 -0.05000000000000001665 $175 -0 $148 $230 reversed 7 unknown #
vertex $-1 $123 $231 #
straight-curve $-1 0.1749999999999999889 0.28999999999999998 0.07000000000000000666 0 0 1 I I #
straight-curve $-1 0.1749999999999999889 0.5899999999999999689 0.07000000000000000666 0 0 1 I I #
coedge $-1 $128 $232 $233 $234 reversed $48 $-1 #
coedge $-1 $235 $236 $128 $180 forward $237 $-1 #
edge $-1 $182 -0.01999999999999999001 $238 -0 $128 $239 reversed 7 unknown #
coedge $-1 $240 $129 $236 $241 reversed $17 $-1 #
vertex $-1 $241 $242 #
straight-curve $-1 0.2250000000000000056 0.28999999999999998 0.08999999999999999667 0 -1 0 I I #
point $-1 0.2250000000000000056 0.28999999999999998 0.08999999999999999667 #
coedge $-1 $232 $133 $243 $244 reversed $48 $-1 #
coedge $-1 $223 $245 $133 $187 forward $246 $-1 #
edge $-1 $247 -0.08999999999999999667 $188 -0 $133 $248 reversed 7 unknown #
vertex $-1 $224 $249 #
straight-curve $-1 0.2250000000000000056 0.6800000000000000488 0.1799999999999999933 0 -1 0 I I #
face $-1 $250 $237 $3 $-1 $251 reversed single #
loop $-1 $-1 $252 $135 #
coedge $-1 $253 $254 $137 $193 forward $255 $-1 #
edge $-1 $202 -3.141592653589793116 $197 -0 $137 $256 reversed 7 unknown #
coedge $-1 $257 $138 $143 $206 forward $196 $-1 #
coedge $-1 $138 $257 $253 $258 reversed $196 $-1 #
loop $-1 $-1 $194 $227 #
vertex $-1 $258 $259 #
straight-curve $-1 0.1199999999999999956 -0.138500000000000012 0.08999999999999999667 0 1 0 I I #
coedge $-1 $260 $140 $254 $261 reversed $201 $-1 #
coedge $-1 $140 $260 $142 $205 reversed $201 $-1 #
loop $-1 $-1 $199 $262 #
vertex $-1 $261 $263 #
straight-curve $-1 0.07299999999999999545 0.138500000000000012 0.08999999999999999667 0 -1 0 I I #
coedge $-1 $143 $142 $264 $265 forward $144 $-1 #
edge $-1 $146 -0.08999999999999999667 $266 -0 $200 $267 reversed 7 unknown #
edge $-1 $145 -0.08999999999999999667 $268 -0 $143 $269 reversed 7 unknown #
face $-1 $270 $144 $3 $-1 $271 reversed single #
point $-1 0.1199999999999999956 -0.138500000000000012 0.08999999999999999667 #
point $-1 0.07299999999999999545 -0.138500000000000012 0.08999999999999999667 #
straight-curve $-1 0.1749999999999999889 0.5899999999999999689 0.08999999999999999667 0 -1 0 I I #
point $-1 0.1749999999999999889 0.5899999999999999689 0.08999999999999999667 #
coedge $-1 $153 $272 $273 $274 reversed $17 $-1 #
coedge $-1 $275 $276 $153 $214 forward $246 $-1 #
edge $-1 $216 0 $277 0.2999999999999999889 $153 $278 forward 7 unknown #
coedge $-1 $164 $154 $276 $279 reversed $165 $-1 #
vertex $-1 $214 $280 #
straight-curve $-1 -0.2250000000000000056 0.6800000000000000488 0.08999999999999999667 0 -1 0 I I #
point $-1 -0.2250000000000000056 0.6800000000000000488 0.08999999999999999667 #
coedge $-1 $219 $219 $160 $220 forward $172 $-1 #
edge $-1 $281 -6.283185307179586232 $281 -0 $160 $282 reversed 7 unknown #
coedge $-1 $283 $284 $285 $286 reversed $161 $-1 #
face $-1 $169 $165 $3 $-1 $287 reversed single #
coedge $-1 $276 $186 $167 $224 forward $246 $-1 #
edge $-1 $188 0 $225 0.4500000000000000111 $167 $288 forward 7 unknown #
vertex $-1 $224 $289 #
straight-curve $-1 -0.2250000000000000056 0.6800000000000000488 0.1799999999999999933 0 -1 0 I I #
face $-1 $290 $196 $3 $-1 $291 reversed single #
loop $-1 $113 $292 $169 #
plane-surface $-1 0 0 0.1799999999999999933 0 0 1 1 0 0 forward_v I I I I #
straight-curve $-1 0.1749999999999999889 0.28999999999999998 0.08999999999999999667 1 0 0 I I #
point $-1 0.1749999999999999889 0.28999999999999998 0.08999999999999999667 #
coedge $-1 $178 $185 $293 $294 reversed $48 $-1 #
coedge $-1 $295 $296 $178 $234 forward $191 $-1 #
edge $-1 $238 0 $297 0.2999999999999999889 $178 $298 forward 7 unknown #
coedge $-1 $299 $179 $296 $300 forward $237 $-1 #
coedge $-1 $179 $299 $181 $241 forward $237 $-1 #
loop $-1 $-1 $235 $190 #
vertex $-1 $300 $301 #
straight-curve $-1 0.2250000000000000056 -0.28999999999999998 0.07000000000000000666 0 0 1 I I #
coedge $-1 $272 $181 $302 $303 reversed $17 $-1 #
edge $-1 $304 -0.05000000000000001665 $182 -0 $181 $305 reversed 7 unknown #
point $-1 0.2250000000000000056 -0.28999999999999998 0.08999999999999999667 #
coedge $-1 $306 $307 $185 $244 forward $308 $-1 #
edge $-1 $309 0 $247 0.09000000000000007994 $185 $310 forward 7 unknown #
coedge $-1 $186 $311 $306 $312 forward $246 $-1 #
loop $-1 $-1 $213 $313 #
vertex $-1 $312 $314 #
straight-curve $-1 0.2250000000000000056 -0.6800000000000000488 0.1799999999999999933 0 0 -1 I I #
point $-1 0.2250000000000000056 -0.6800000000000000488 0.1799999999999999933 #
face $-1 $315 $316 $3 $-1 $317 forward single #
plane-surface $-1 0.2250000000000000056 -0.28999999999999998 0.07000000000000000666 0 -1 0 0 0 -1 forward_v I I I I #
coedge $-1 $296 $295 $318 $319 reversed $191 $-1 #
coedge $-1 $320 $192 $195 $258 forward $255 $-1 #
coedge $-1 $192 $320 $199 $261 forward $255 $-1 #
loop $-1 $-1 $253 $290 #
ellipse-curve $-1 0.09650000000000000244 0.138500000000000012 0.08999999999999999667 0 0 1 0.02350000000000000006 0 0 1 I I #
coedge $-1 $195 $194 $321 $322 forward $196 $-1 #
edge $-1 $197 -0.08999999999999999667 $323 -0 $195 $324 reversed 7 unknown #
point $-1 0.1199999999999999956 0.138500000000000012 0.08999999999999999667 #
coedge $-1 $200 $199 $325 $326 forward $201 $-1 #
edge $-1 $327 0 $202 0.08999999999999999667 $199 $328 forward 7 unknown #
face $-1 $207 $201 $3 $-1 $329 reversed single #
point $-1 0.07299999999999999545 0.138500000000000012 0.08999999999999999667 #
coedge $-1 $325 $321 $204 $265 reversed $228 $-1 #
edge $-1 $266 0 $268 3.141592653589793116 $264 $330 forward 7 unknown #
vertex $-1 $205 $331 #
straight-curve $-1 0.07299999999999999545 -0.138500000000000012 0.1799999999999999933 0 0 -1 I I #
vertex $-1 $206 $332 #
straight-curve $-1 0.1199999999999999956 -0.138500000000000012 0.1799999999999999933 0 0 -1 I I #
face $-1 $59 $308 $3 $-1 $7 forward single #
cone-surface $-1 0.09650000000000000244 -0.138500000000000012 0.1799999999999999933 0 0 1 0 0.02350000000000000006 0 1 I I 0 1 0.02350000000000000006 forward I I I I #
coedge $-1 $212 $240 $333 $334 reversed $17 $-1 #
coedge $-1 $335 $336 $212 $274 forward $337 $-1 #
edge $-1 $277 0 $338 0.1300000000000000044 $212 $339 forward 7 unknown #
coedge $-1 $340 $213 $336 $341 forward $246 $-1 #
coedge $-1 $213 $223 $215 $279 forward $246 $-1 #
vertex $-1 $341 $342 #
straight-curve $-1 -0.2250000000000000056 -0.6800000000000000488 0.08999999999999999667 1 0 0 I I #
edge $-1 $225 0 $216 0.08999999999999999667 $215 $343 forward 7 unknown #
point $-1 -0.2250000000000000056 -0.6800000000000000488 0.08999999999999999667 #
vertex $-1 $220 $344 #
ellipse-curve $-1 -0.08500000000000000611 -0.1900000000000000022 0.1799999999999999933 3.447897592003589866e-16 0 1 -0.08050000000000000211 0 2.775557561562890118e-17 1 I I #
coedge $-1 $293 $221 $295 $345 forward $161 $-1 #
coedge $-1 $221 $293 $307 $346 forward $161 $-1 #
coedge $-1 $347 $318 $221 $286 forward $348 $-1 #
edge $-1 $349 0 $350 0.01999999999999999001 $221 $351 forward 7 unknown #
plane-surface $-1 -0.2250000000000000056 0.7175000000000000266 0 1 0 0 0 0 -1 forward_v I I I I #
straight-curve $-1 0.2250000000000000056 -0.6800000000000000488 0.1799999999999999933 -1 0 0 I I #
point $-1 -0.2250000000000000056 -0.6800000000000000488 0.1799999999999999933 #
face $-1 $262 $255 $3 $-1 $352 reversed single #
plane-surface $-1 0.1199999999999999956 -0.138500000000000012 0.1799999999999999933 1 0 0 0 0 -1 forward_v I I I I #
coedge $-1 $321 $325 $320 $353 reversed $228 $-1 #
coedge $-1 $284 $283 $232 $294 forward $161 $-1 #
edge $-1 $297 0 $309 0.01999999999999999001 $232 $354 forward 7 unknown #
coedge $-1 $252 $233 $283 $345 reversed $191 $-1 #
coedge $-1 $233 $252 $235 $300 reversed $191 $-1 #
vertex $-1 $345 $355 #
straight-curve $-1 0.2250000000000000056 -0.28999999999999998 0.07000000000000000666 0 -1 0 I I #
coedge $-1 $236 $235 $356 $357 reversed $237 $-1 #
edge $-1 $238 0 $358 0.05000000000000001665 $296 $359 forward 7 unknown #
point $-1 0.2250000000000000056 -0.28999999999999998 0.07000000000000000666 #
coedge $-1 $356 $360 $240 $303 forward $348 $-1 #
edge $-1 $361 -0.2600000000000000644 $304 -0 $240 $362 reversed 7 unknown #
vertex $-1 $357 $363 #
straight-curve $-1 0.2250000000000000056 -0.28999999999999998 0.08999999999999999667 -1 0 0 I I #
coedge $-1 $364 $243 $245 $312 reversed $308 $-1 #
coedge $-1 $243 $364 $284 $346 reversed $308 $-1 #
loop $-1 $-1 $364 $270 #
vertex $-1 $346 $365 #
straight-curve $-1 0.2250000000000000056 -0.5899999999999999689 0.08999999999999999667 0 -1 0 I I #
coedge $-1 $245 $340 $366 $367 forward $246 $-1 #
edge $-1 $368 0 $247 0.05000000000000001665 $306 $369 forward 7 unknown #
face $-1 $222 $246 $3 $-1 $370 reversed single #
point $-1 0.2250000000000000056 -0.6800000000000000488 0.08999999999999999667 #
face $-1 $371 $348 $3 $-1 $372 reversed single #
loop $-1 $-1 $373 $250 #
plane-surface $-1 0 0 0.1499999999999999944 0 0 -1 -1 0 0 forward_v I I I I #
coedge $-1 $285 $356 $252 $319 forward $348 $-1 #
edge $-1 $358 0 $349 0.2999999999999999889 $252 $374 forward 7 unknown #
coedge $-1 $254 $253 $292 $353 forward $255 $-1 #
coedge $-1 $264 $292 $257 $322 reversed $228 $-1 #
edge $-1 $268 0 $323 0.277000000000000024 $321 $375 forward 7 unknown #
vertex $-1 $258 $376 #
straight-curve $-1 0.1199999999999999956 0.138500000000000012 0.1799999999999999933 0 0 -1 I I #
coedge $-1 $292 $264 $260 $326 reversed $228 $-1 #
edge $-1 $327 0 $266 0.277000000000000024 $325 $377 forward 7 unknown #
vertex $-1 $261 $378 #
straight-curve $-1 0.07299999999999999545 0.138500000000000012 0.1799999999999999933 0 0 -1 I I #
plane-surface $-1 0.07299999999999999545 0.138500000000000012 0.1799999999999999933 -1 0 0 0 0 1 forward_v I I I I #
ellipse-curve $-1 0.09650000000000000244 -0.138500000000000012 0.1799999999999999933 0 0 1 -0.02350000000000000006 0 0 1 I I #
point $-1 0.07299999999999999545 -0.138500000000000012 0.1799999999999999933 #
point $-1 0.1199999999999999956 -0.138500000000000012 0.1799999999999999933 #
coedge $-1 $379 $380 $272 $334 forward $381 $-1 #
edge $-1 $338 0 $361 3.141592653589793116 $272 $382 forward 7 unknown #
coedge $-1 $383 $273 $380 $384 forward $337 $-1 #
coedge $-1 $273 $383 $275 $341 reversed $337 $-1 #
loop $-1 $-1 $273 $385 #
vertex $-1 $384 $386 #
straight-curve $-1 0.07499999999999999722 -0.6800000000000000488 0.08999999999999999667 0 1 0 I I #
coedge $-1 $311 $275 $387 $388 forward $246 $-1 #
edge $-1 $277 -0.05999999999999999778 $389 -0 $336 $390 reversed 7 unknown #
point $-1 0.07499999999999999722 -0.6800000000000000488 0.08999999999999999667 #
straight-curve $-1 -0.2250000000000000056 -0.6800000000000000488 0.1799999999999999933 0 0 -1 I I #
point $-1 -0.1655000000000000082 -0.1900000000000000022 0.1799999999999999933 #
edge $-1 $349 0 $297 0.05000000000000001665 $295 $391 forward 7 unknown #
edge $-1 $309 -0.05000000000000001665 $350 -0 $307 $392 reversed 7 unknown #
coedge $-1 $366 $285 $364 $393 forward $348 $-1 #
loop $-1 $-1 $394 $315 #
vertex $-1 $286 $395 #
vertex $-1 $286 $396 #
straight-curve $-1 0.1749999999999999889 -0.5899999999999999689 0.07000000000000000666 0 0 1 I I #
cone-surface $-1 0.09650000000000000244 0.138500000000000012 0.1799999999999999933 0 0 1 0 0.02350000000000000006 0 1 I I 0 1 0.02350000000000000006 forward I I I I #
edge $-1 $323 0 $327 3.141592653589793116 $292 $397 forward 7 unknown #
straight-curve $-1 0.2250000000000000056 -0.5899999999999999689 0.07000000000000000666 0 0 1 I I #
point $-1 0.2250000000000000056 -0.5899999999999999689 0.07000000000000000666 #
coedge $-1 $318 $302 $299 $357 forward $348 $-1 #
edge $-1 $304 -0.01999999999999999001 $358 -0 $299 $398 reversed 7 unknown #
vertex $-1 $357 $399 #
straight-curve $-1 0.2250000000000000056 -0.28999999999999998 0.07000000000000000666 -1 0 0 I I #
coedge $-1 $302 $394 $379 $400 reversed $348 $-1 #
vertex $-1 $400 $401 #
straight-curve $-1 0.1749999999999999889 -0.28999999999999998 0.08999999999999999667 0 -1 0 I I #
point $-1 0.1749999999999999889 -0.28999999999999998 0.08999999999999999667 #
coedge $-1 $307 $306 $347 $393 reversed $308 $-1 #
point $-1 0.2250000000000000056 -0.5899999999999999689 0.08999999999999999667 #
coedge $-1 $394 $347 $311 $367 reversed $348 $-1 #
edge $-1 $402 0 $368 0.05999999999999999778 $366 $403 forward 7 unknown #
vertex $-1 $367 $404 #
straight-curve $-1 0.1749999999999999889 -0.6800000000000000488 0.08999999999999999667 1 0 0 I I #
plane-surface $-1 0 -0.6800000000000000488 0 0 1 0 0 0 1 forward_v I I I I #
face $-1 $385 $381 $3 $-1 $405 reversed single #
plane-surface $-1 0.1749999999999999889 -0.28999999999999998 0.07000000000000000666 1 0 0 0 0 -1 forward_v I I I I #
coedge $-1 $406 $387 $383 $407 reversed $316 $-1 #
straight-curve $-1 0.1749999999999999889 -0.28999999999999998 0.07000000000000000666 0 -1 0 I I #
straight-curve $-1 0.1199999999999999956 -0.138500000000000012 0.1799999999999999933 0 1 0 I I #
point $-1 0.1199999999999999956 0.138500000000000012 0.1799999999999999933 #
straight-curve $-1 0.07299999999999999545 0.138500000000000012 0.1799999999999999933 0 -1 0 I I #
point $-1 0.07299999999999999545 0.138500000000000012 0.1799999999999999933 #
coedge $-1 $408 $333 $360 $400 forward $381 $-1 #
coedge $-1 $333 $408 $335 $384 reversed $381 $-1 #
loop $-1 $-1 $379 $371 #
ellipse-curve $-1 0.125 -0.5500000000000000444 0.08999999999999999667 0 0 -1 -0.05000000000000000278 0 0 1 I I #
coedge $-1 $336 $335 $373 $407 forward $337 $-1 #
edge $-1 $338 0 $409 0.05999999999999999778 $380 $410 forward 7 unknown #
face $-1 $313 $337 $3 $-1 $411 reversed single #
point $-1 0.07499999999999999722 -0.5500000000000000444 0.08999999999999999667 #
coedge $-1 $373 $412 $340 $388 reversed $316 $-1 #
edge $-1 $389 0 $402 0.09999999999999999167 $387 $413 forward 7 unknown #
vertex $-1 $341 $414 #
straight-curve $-1 0.07499999999999999722 -0.6800000000000000488 0.1499999999999999944 0 0 -1 I I #
straight-curve $-1 0.1749999999999999889 -0.5899999999999999689 0.07000000000000000666 1 0 0 I I #
straight-curve $-1 0.1749999999999999889 -0.5899999999999999689 0.08999999999999999667 1 0 0 I I #
edge $-1 $350 0 $368 0.09000000000000007994 $364 $415 forward 7 unknown #
coedge $-1 $360 $366 $412 $416 reversed $348 $-1 #
point $-1 0.1749999999999999889 -0.5899999999999999689 0.07000000000000000666 #
point $-1 0.1749999999999999889 -0.5899999999999999689 0.08999999999999999667 #
ellipse-curve $-1 0.09650000000000000244 0.138500000000000012 0.1799999999999999933 0 0 1 0.02350000000000000006 0 0 1 I I #
straight-curve $-1 0.1749999999999999889 -0.28999999999999998 0.07000000000000000666 0 0 1 I I #
point $-1 0.1749999999999999889 -0.28999999999999998 0.07000000000000000666 #
edge $-1 $361 0 $417 0.05999999999999999778 $360 $418 forward 7 unknown #
point $-1 0.1749999999999999889 -0.5500000000000000444 0.08999999999999999667 #
vertex $-1 $388 $419 #
straight-curve $-1 0.1749999999999999889 -0.6800000000000000488 0.1499999999999999944 0 -3.700743415417190309e-15 -1 I I #
point $-1 0.1749999999999999889 -0.6800000000000000488 0.08999999999999999667 #
cone-surface $-1 0.125 -0.5500000000000000444 0.08999999999999999667 0 0 -1 0.05000000000000000278 0 0 1 I I 0 1 0.05000000000000000278 forward I I I I #
coedge $-1 $412 $373 $408 $420 reversed $316 $-1 #
edge $-1 $409 -0.1300000000000000044 $389 -0 $373 $421 reversed 7 unknown #
coedge $-1 $380 $379 $406 $420 forward $381 $-1 #
vertex $-1 $384 $422 #
straight-curve $-1 0.07499999999999999722 -0.5500000000000000444 0.08999999999999999667 0 0 1 I I #
plane-surface $-1 0.07499999999999999722 -0.7924999999999999822 0.08999999999999999667 -1 0 0 0 0 1 forward_v I I I I #
coedge $-1 $387 $406 $394 $416 forward $316 $-1 #
straight-curve $-1 0.07499999999999999722 -0.6800000000000000488 0.1499999999999999944 1 0 0 I I #
point $-1 0.07499999999999999722 -0.6800000000000000488 0.1499999999999999944 #
straight-curve $-1 0.1749999999999999889 -0.5899999999999999689 0.08999999999999999667 0 -1 0 I I #
edge $-1 $417 0 $402 0.1300000000000000044 $394 $423 forward 7 unknown #
vertex $-1 $420 $424 #
straight-curve $-1 0.1749999999999999889 -0.5500000000000000444 0.08999999999999999667 0 0 1 I I #
point $-1 0.1749999999999999889 -0.6800000000000000488 0.1499999999999999944 #
edge $-1 $417 -3.141592653589793116 $409 -0 $406 $425 reversed 7 unknown #
straight-curve $-1 0.07499999999999999722 -0.6800000000000000488 0.1499999999999999944 0 1 0 I I #
point $-1 0.07499999999999999722 -0.5500000000000000444 0.1499999999999999944 #
straight-curve $-1 0.1749999999999999889 -0.5500000000000000444 0.1499999999999999944 0 -1 0 I I #
point $-1 0.1749999999999999889 -0.5500000000000000444 0.1499999999999999944 #
ellipse-curve $-1 0.125 -0.5500000000000000444 0.1499999999999999944 5.551115123125779744e-16 0 -1 -0.05000000000000000278 0 -2.775557561562890118e-17 1 I I #
End-of-ACIS-data 