600 0 1 0           
86 GICL ACIS Healer - Source: /gicl/data5/repository/ICEM-CDC/avc_inch/avc_inch.sat - 6 0 18 ACIS 6.0.3 Solaris 24 Sat Apr 13 23:07:45 2002 
1 9.999999999999999547e-07 1.000000000000000036e-10 
body $-1 $1 $-1 $2 #
lump $-1 $-1 $3 $0 #
transform $-1 1 0 0 0 1 0 0 0 1 0 0 0 1 no_rotate no_reflect no_shear #
shell $-1 $-1 $-1 $4 $-1 $1 #
face $5 $6 $7 $3 $-1 $8 reversed single #
face_name-twe-attrib $-1 $-1 $-1 $4 1 #
face $9 $10 $11 $3 $-1 $12 forward single #
loop $13 $14 $15 $4 #
plane-surface $16 0 0 0 0 0 1 0.03937009999999999815 0 0 forward_v I I I I #
face_name-twe-attrib $-1 $-1 $-1 $6 2 #
face $17 $18 $19 $3 $-1 $20 reversed single #
loop $21 $22 $23 $6 #
plane-surface $24 0 0 0.590551500000000007 0 0 1 0.03937009999999999815 0 0 forward_v I I I I #
loop_type-twe-attrib $-1 $-1 $-1 $7 1 #
loop $25 $26 $27 $4 #
coedge $-1 $15 $15 $28 $29 forward $7 $-1 #
surf-twe-attrib $-1 $-1 $-1 $8 4 #
face_name-twe-attrib $-1 $-1 $-1 $10 3 #
face $30 $31 $32 $3 $-1 $33 reversed single #
loop $34 $35 $28 $10 #
cone-surface $36 0 0 0 0 0 -1 -0.09842525000000000579 0 0 1 I I 0 1 0.09842525000000000579 forward I I I I #
loop_type-twe-attrib $-1 $-1 $-1 $11 1 #
loop $37 $38 $39 $6 #
coedge $-1 $23 $23 $40 $41 reversed $11 $-1 #
surf-twe-attrib $-1 $-1 $-1 $12 6 #
loop_type-twe-attrib $-1 $-1 $-1 $14 1 #
loop $42 $43 $44 $4 #
coedge $-1 $27 $27 $45 $46 forward $14 $-1 #
coedge $-1 $28 $28 $15 $29 reversed $19 $-1 #
edge $47 $48 -3.141592653589793116 $48 3.141592653589793116 $28 $49 reversed 7 unknown #
face_name-twe-attrib $-1 $-1 $-1 $18 4 #
face $50 $51 $52 $3 $-1 $53 reversed single #
loop $54 $55 $56 $18 #
cone-surface $57 -2.066930249999999969 -0.9842524999999999746 0 0 0 -1 -0.511811299999999969 0 0 1 I I 0 1 0.511811299999999969 forward I I I I #
loop_type-twe-attrib $-1 $-1 $-1 $19 0 #
loop $58 $-1 $59 $10 #
surf-twe-attrib $-1 $-1 $-1 $20 10 #
loop_type-twe-attrib $-1 $-1 $-1 $22 0 #
loop $60 $61 $62 $6 #
coedge $-1 $63 $64 $65 $66 reversed $22 $-1 #
coedge $-1 $40 $40 $23 $41 forward $55 $-1 #
edge $67 $68 -3.141592653589793116 $68 3.141592653589793116 $40 $69 reversed 7 unknown #
loop_type-twe-attrib $-1 $-1 $-1 $26 1 #
loop $70 $71 $72 $4 #
coedge $-1 $44 $44 $73 $74 forward $26 $-1 #
coedge $-1 $45 $45 $27 $46 reversed $52 $-1 #
edge $75 $76 -3.141592653589793116 $76 3.141592653589793116 $45 $77 reversed 7 unknown #
edge_name-twe-attrib $-1 $-1 $-1 $29 1 8704 #
vertex $-1 $29 $78 #
ellipse-curve $-1 0 0 0 -0 -0 -1 -0.09842525000000000579 0 0 1 I I #
face_name-twe-attrib $-1 $-1 $-1 $31 5 #
face $79 $80 $81 $3 $-1 $82 reversed single #
loop $83 $84 $45 $31 #
cone-surface $85 -4.133860499999999938 0 0 0 0 -1 -0.09842525000000000579 0 0 1 I I 0 1 0.09842525000000000579 forward I I I I #
loop_type-twe-attrib $-1 $-1 $-1 $32 0 #
loop $86 $-1 $40 $18 #
coedge $-1 $56 $56 $87 $88 forward $32 $-1 #
surf-twe-attrib $-1 $-1 $-1 $33 18 #
loop_type-twe-attrib $-1 $-1 $-1 $35 1 #
coedge $-1 $59 $59 $89 $90 reversed $35 $-1 #
loop_type-twe-attrib $-1 $-1 $-1 $38 1 #
loop $91 $92 $93 $6 #
coedge $-1 $62 $62 $94 $95 forward $38 $-1 #
coedge $-1 $96 $39 $97 $98 reversed $22 $-1 #
coedge $-1 $39 $96 $99 $100 reversed $22 $-1 #
coedge $-1 $101 $102 $39 $66 forward $103 $-1 #
edge $104 $105 -2.559056500000000067 $106 0.1968505000000000116 $65 $107 forward 7 unknown #
edge_name-twe-attrib $-1 $-1 $-1 $41 2 8704 #
vertex $-1 $41 $108 #
ellipse-curve $-1 -2.066930249999999969 -0.9842524999999999746 0.590551500000000007 -0 -0 -1 -0.511811299999999969 0 0 1 I I #
loop_type-twe-attrib $-1 $-1 $-1 $43 1 #
loop $109 $-1 $110 $4 #
coedge $-1 $72 $72 $111 $112 forward $43 $-1 #
coedge $-1 $73 $73 $44 $74 reversed $81 $-1 #
edge $113 $114 -3.141592653589793116 $114 3.141592653589793116 $73 $115 reversed 7 unknown #
edge_name-twe-attrib $-1 $-1 $-1 $46 3 8704 #
vertex $-1 $46 $116 #
ellipse-curve $-1 -4.133860499999999938 0 0 -0 -0 -1 -0.09842525000000000579 0 0 1 I I #
point $-1 0.09842525000000000579 0 0 #
face_name-twe-attrib $-1 $-1 $-1 $51 6 #
face $117 $118 $119 $3 $-1 $120 reversed single #
loop $121 $122 $73 $51 #
cone-surface $123 -4.133860499999999938 -1.968504999999999949 0 0 0 -1 -0.09842525000000000579 0 0 1 I I 0 1 0.09842525000000000579 forward I I I I #
loop_type-twe-attrib $-1 $-1 $-1 $52 0 #
loop $124 $-1 $125 $31 #
surf-twe-attrib $-1 $-1 $-1 $53 31 #
loop_type-twe-attrib $-1 $-1 $-1 $55 1 #
coedge $-1 $87 $87 $56 $88 reversed $126 $-1 #
edge $127 $128 0 $128 6.283185307179586232 $87 $129 forward 7 unknown #
coedge $-1 $89 $89 $59 $90 forward $130 $-1 #
edge $131 $132 -6.283185307179586232 $132 -0 $89 $133 reversed 7 unknown #
loop_type-twe-attrib $-1 $-1 $-1 $61 1 #
loop $134 $135 $136 $6 #
coedge $-1 $93 $93 $137 $138 forward $61 $-1 #
coedge $-1 $94 $94 $62 $95 reversed $139 $-1 #
edge $140 $141 -3.141592653589793116 $141 3.141592653589793116 $94 $142 forward 7 unknown #
coedge $-1 $64 $63 $143 $144 reversed $22 $-1 #
coedge $-1 $145 $146 $63 $98 forward $147 $-1 #
edge $148 $149 -2.657481750000000087 $105 2.263780750000000008 $97 $150 forward 7 unknown #
coedge $-1 $151 $152 $64 $100 forward $153 $-1 #
edge $154 $106 -4.724412000000000056 $155 0.1968505000000000116 $99 $156 forward 7 unknown #
coedge $-1 $157 $65 $152 $158 forward $103 $-1 #
coedge $-1 $65 $157 $145 $159 reversed $103 $-1 #
loop $160 $-1 $157 $118 #
edge_name-twe-attrib $-1 $-1 $-1 $66 7 8704 #
vertex $-1 $159 $161 #
vertex $-1 $158 $162 #
straight-curve $-1 -4.527561500000000017 0.1968505000000000116 0.590551500000000007 0 1 -0 I I #
point $-1 -1.55511895 -0.9842524999999999746 0.590551500000000007 #
loop_type-twe-attrib $-1 $-1 $-1 $71 0 #
coedge $-1 $163 $164 $165 $166 forward $71 $-1 #
coedge $-1 $111 $111 $72 $112 reversed $119 $-1 #
edge $167 $168 -3.141592653589793116 $168 3.141592653589793116 $111 $169 reversed 7 unknown #
edge_name-twe-attrib $-1 $-1 $-1 $74 4 8704 #
vertex $-1 $74 $170 #
ellipse-curve $-1 -4.133860499999999938 -1.968504999999999949 0 -0 -0 -1 -0.09842525000000000579 0 0 1 I I #
point $-1 -4.035435249999999918 0 0 #
face_name-twe-attrib $-1 $-1 $-1 $80 7 #
face $171 $172 $103 $3 $-1 $173 forward single #
loop $174 $175 $111 $80 #
cone-surface $176 0 -1.968504999999999949 0 0 0 -1 -0.09842525000000000579 0 0 1 I I 0 1 0.09842525000000000579 forward I I I I #
loop_type-twe-attrib $-1 $-1 $-1 $81 0 #
loop $177 $-1 $178 $51 #
surf-twe-attrib $-1 $-1 $-1 $82 51 #
loop_type-twe-attrib $-1 $-1 $-1 $84 1 #
coedge $-1 $125 $125 $179 $180 reversed $84 $-1 #
loop $181 $-1 $87 $182 #
edge_name-twe-attrib $-1 $-1 $-1 $88 32 8704 #
vertex $-1 $88 $183 #
ellipse-curve $-1 -2.066930249999999969 -0.9842524999999999746 0.1968505000000000116 0 0 -1 -0.511811299999999969 0 0 1 I I #
loop $184 $-1 $89 $185 #
edge_name-twe-attrib $-1 $-1 $-1 $90 25 8704 #
vertex $-1 $90 $186 #
ellipse-curve $-1 0 0 0.1968505000000000116 0 0 1 -0.09842525000000000579 0 0 1 I I #
loop_type-twe-attrib $-1 $-1 $-1 $92 1 #
loop $187 $-1 $188 $6 #
coedge $-1 $136 $136 $189 $190 forward $92 $-1 #
coedge $-1 $137 $137 $93 $138 reversed $191 $-1 #
edge $192 $193 -3.141592653589793116 $193 3.141592653589793116 $137 $194 forward 7 unknown #
loop $195 $-1 $94 $196 #
edge_name-twe-attrib $-1 $-1 $-1 $95 21 8704 #
vertex $-1 $95 $197 #
ellipse-curve $-1 -4.133860499999999938 -1.968504999999999949 0.590551500000000007 -0 -0 -1 0.1968505000000000116 0 0 1 I I #
coedge $-1 $198 $199 $96 $144 forward $200 $-1 #
edge $201 $155 -1.574804000000000093 $149 1.181103000000000014 $143 $202 forward 7 unknown #
coedge $-1 $203 $97 $102 $159 forward $147 $-1 #
coedge $-1 $97 $203 $198 $204 reversed $147 $-1 #
loop $205 $-1 $203 $172 #
edge_name-twe-attrib $-1 $-1 $-1 $98 9 8704 #
vertex $-1 $204 $206 #
straight-curve $-1 -2.263780750000000008 -2.362206000000000028 0.590551500000000007 -1 0 0 I I #
coedge $-1 $207 $99 $199 $208 forward $153 $-1 #
coedge $-1 $99 $209 $101 $158 reversed $153 $-1 #
loop $210 $-1 $211 $212 #
edge_name-twe-attrib $-1 $-1 $-1 $100 16 8704 #
vertex $-1 $208 $213 #
straight-curve $-1 0.1968505000000000116 0.3937010000000000232 0.590551500000000007 1 0 0 I I #
coedge $-1 $102 $101 $214 $215 reversed $103 $-1 #
edge $216 $106 -0.590551500000000007 $217 -0 $152 $218 reversed 7 unknown #
edge $219 $105 -0.590551500000000007 $220 -0 $145 $221 forward 7 unknown #
loop_type-twe-attrib $-1 $-1 $-1 $103 0 #
point $-1 -4.527561500000000017 -2.362206000000000028 0.590551500000000007 #
point $-1 -4.527561500000000017 0.3937010000000000232 0.590551500000000007 #
coedge $-1 $222 $110 $223 $224 forward $71 $-1 #
coedge $-1 $110 $225 $226 $227 forward $71 $-1 #
coedge $-1 $228 $229 $110 $166 reversed $230 $-1 #
edge $231 $232 1.570796326794896558 $233 3.141592653589793116 $165 $234 reversed 7 unknown #
edge_name-twe-attrib $-1 $-1 $-1 $112 5 8704 #
vertex $-1 $112 $235 #
ellipse-curve $-1 0 -1.968504999999999949 0 -0 -0 -1 -0.09842525000000000579 0 0 1 I I #
point $-1 -4.035435249999999918 -1.968504999999999949 0 #
face_name-twe-attrib $-1 $-1 $-1 $118 8 #
face $236 $237 $147 $3 $-1 $238 forward single #
plane-surface $239 -4.527561500000000017 0.3937010000000000232 0 -1 0 0 0 0 0.03937009999999999815 forward_v I I I I #
loop_type-twe-attrib $-1 $-1 $-1 $119 0 #
loop $240 $-1 $241 $80 #
surf-twe-attrib $-1 $-1 $-1 $120 81 #
loop_type-twe-attrib $-1 $-1 $-1 $122 1 #
coedge $-1 $178 $178 $242 $243 reversed $122 $-1 #
coedge $-1 $179 $179 $125 $180 forward $244 $-1 #
edge $245 $246 -6.283185307179586232 $246 -0 $179 $247 reversed 7 unknown #
loop_type-twe-attrib $-1 $-1 $-1 $126 1 #
face $248 $249 $250 $3 $-1 $251 forward single #
point $-1 -2.57874155000000016 -0.9842524999999999746 0.1968505000000000116 #
loop_type-twe-attrib $-1 $-1 $-1 $130 1 #
face $252 $253 $254 $3 $-1 $255 forward single #
point $-1 -0.09842525000000000579 0 0.1968505000000000116 #
loop_type-twe-attrib $-1 $-1 $-1 $135 1 #
coedge $-1 $188 $188 $256 $257 forward $135 $-1 #
coedge $-1 $189 $189 $136 $190 reversed $258 $-1 #
edge $259 $260 -3.141592653589793116 $260 3.141592653589793116 $189 $261 forward 7 unknown #
loop $262 $-1 $137 $263 #
edge_name-twe-attrib $-1 $-1 $-1 $138 24 8704 #
vertex $-1 $138 $264 #
ellipse-curve $-1 -4.133860499999999938 0 0.590551500000000007 -0 -0 -1 0.1968505000000000116 0 0 1 I I #
loop_type-twe-attrib $-1 $-1 $-1 $139 1 #
face $265 $266 $267 $3 $-1 $268 reversed single #
point $-1 -4.330710999999999977 -1.968504999999999949 0.590551500000000007 #
coedge $-1 $269 $143 $146 $204 forward $200 $-1 #
coedge $-1 $143 $269 $151 $208 reversed $200 $-1 #
loop $270 $-1 $269 $237 #
edge_name-twe-attrib $-1 $-1 $-1 $144 12 8704 #
straight-curve $-1 0.3937010000000000232 -1.181103000000000014 0.590551500000000007 0 -1 0 I I #
coedge $-1 $146 $145 $271 $272 reversed $147 $-1 #
edge $273 $149 -0.590551500000000007 $274 0 $198 $275 forward 7 unknown #
loop_type-twe-attrib $-1 $-1 $-1 $147 0 #
point $-1 0.3937010000000000232 -2.362206000000000028 0.590551500000000007 #
coedge $-1 $276 $151 $277 $278 reversed $153 $-1 #
edge $279 $155 -0.590551500000000007 $280 0 $151 $281 forward 7 unknown #
coedge $-1 $152 $282 $283 $284 reversed $153 $-1 #
loop_type-twe-attrib $-1 $-1 $-1 $153 0 #
coedge $-1 $282 $276 $285 $286 forward $153 $-1 #
face $287 $288 $153 $3 $-1 $289 forward single #
point $-1 0.3937010000000000232 0.3937010000000000232 0.590551500000000007 #
coedge $-1 $283 $271 $157 $215 forward $71 $-1 #
edge $290 $220 -2.559056500000000067 $217 0.1968505000000000116 $157 $291 forward 7 unknown #
edge_name-twe-attrib $-1 $-1 $-1 $158 15 8704 #
vertex $-1 $158 $292 #
straight-curve $-1 -4.527561500000000017 0.3937010000000000232 0 0 -0 1 I I #
edge_name-twe-attrib $-1 $-1 $-1 $159 10 8704 #
vertex $-1 $159 $293 #
straight-curve $-1 -4.527561500000000017 -2.362206000000000028 0 -0 -0 -1 I I #
coedge $-1 $294 $163 $295 $296 forward $71 $-1 #
coedge $-1 $297 $298 $163 $224 reversed $299 $-1 #
edge $300 $233 -1.112205324999999911 $301 -0.2854332250000000126 $223 $302 reversed 7 unknown #
coedge $-1 $164 $303 $304 $305 forward $71 $-1 #
coedge $-1 $306 $307 $164 $227 reversed $308 $-1 #
edge $309 $310 -2.687009325000000004 $232 -0.4822837249999999965 $226 $311 reversed 7 unknown #
coedge $-1 $312 $165 $307 $313 forward $230 $-1 #
coedge $-1 $165 $312 $297 $314 reversed $230 $-1 #
loop $315 $-1 $165 $249 #
edge_name-twe-attrib $-1 $-1 $-1 $166 33 8704 #
vertex $-1 $313 $316 #
vertex $-1 $314 $317 #
ellipse-curve $-1 -0.9645674499999999929 -1.397638549999999924 0 -0 -0 -1 -0.4724412000000000056 0 0 1 I I #
point $-1 0.09842525000000000579 -1.968504999999999949 0 #
face_name-twe-attrib $-1 $-1 $-1 $172 9 #
face $318 $212 $200 $3 $-1 $319 forward single #
plane-surface $320 -4.527561500000000017 -2.362206000000000028 0 0 -1 0 0 0 -0.03937009999999999815 forward_v I I I I #
surf-twe-attrib $-1 $-1 $-1 $173 121 #
loop_type-twe-attrib $-1 $-1 $-1 $175 1 #
coedge $-1 $241 $241 $321 $322 reversed $175 $-1 #
coedge $-1 $242 $242 $178 $243 forward $323 $-1 #
edge $324 $325 -6.283185307179586232 $325 -0 $242 $326 reversed 7 unknown #
loop $327 $-1 $179 $266 #
edge_name-twe-attrib $-1 $-1 $-1 $180 22 8704 #
vertex $-1 $180 $328 #
ellipse-curve $-1 -4.133860499999999938 0 0.1968505000000000116 0 0 1 -0.09842525000000000579 0 0 1 I I #
face_name-twe-attrib $-1 $-1 $-1 $182 20 #
face $329 $330 $230 $3 $-1 $331 reversed single #
loop $332 $126 $285 $182 #
plane-surface $333 0 0 0.1968505000000000116 0 0 -1 -0.03937009999999999815 0 0 forward_v I I I I #
face_name-twe-attrib $-1 $-1 $-1 $185 16 #
face $334 $335 $336 $3 $-1 $337 reversed single #
loop $338 $130 $339 $185 #
plane-surface $340 0 0 0.1968505000000000116 0 0 1 0.03937009999999999815 0 0 forward_v I I I I #
coedge $-1 $256 $256 $188 $257 reversed $341 $-1 #
edge $342 $343 -3.141592653589793116 $343 3.141592653589793116 $256 $344 forward 7 unknown #
loop $345 $-1 $189 $253 #
edge_name-twe-attrib $-1 $-1 $-1 $190 27 8704 #
vertex $-1 $190 $346 #
ellipse-curve $-1 0 0 0.590551500000000007 -0 -0 -1 0.1968505000000000116 0 0 1 I I #
loop_type-twe-attrib $-1 $-1 $-1 $191 1 #
face $347 $185 $348 $3 $-1 $349 reversed single #
point $-1 -4.330710999999999977 0 0.590551500000000007 #
face_name-twe-attrib $-1 $-1 $-1 $196 13 #
face $350 $263 $351 $3 $-1 $352 forward single #
loop $353 $139 $354 $196 #
cone-surface $355 -4.133860499999999938 -1.968504999999999949 0.1771654500000000021 0 0 -1 0.1968505000000000116 0 0 1 I I 0 1 0.1968505000000000116 forward I I I I #
coedge $-1 $199 $198 $356 $357 reversed $200 $-1 #
loop_type-twe-attrib $-1 $-1 $-1 $200 0 #
coedge $-1 $214 $356 $203 $272 forward $71 $-1 #
edge $358 $274 -2.657481750000000087 $220 2.263780750000000008 $203 $359 forward 7 unknown #
edge_name-twe-attrib $-1 $-1 $-1 $204 13 8704 #
vertex $-1 $204 $360 #
straight-curve $-1 0.3937010000000000787 -2.362206000000000028 0 0 0 -1 I I #
coedge $-1 $211 $207 $361 $362 reversed $153 $-1 #
coedge $-1 $356 $363 $207 $278 forward $71 $-1 #
edge $364 $365 -2.066930249999999969 $280 0.1968505000000000116 $207 $366 forward 7 unknown #
edge_name-twe-attrib $-1 $-1 $-1 $208 17 8704 #
vertex $-1 $208 $367 #
straight-curve $-1 0.3937010000000000232 0.3937010000000000787 0 0 0 -1 I I #
coedge $-1 $209 $211 $368 $369 forward $153 $-1 #
coedge $-1 $370 $214 $209 $284 forward $71 $-1 #
edge $371 $217 -4.724412000000000056 $372 -2.460631250000000048 $209 $373 forward 7 unknown #
coedge $-1 $374 $375 $211 $286 reversed $250 $-1 #
edge $376 $377 2.066930249999999969 $378 2.460631250000000048 $285 $379 reversed 7 unknown #
face_name-twe-attrib $-1 $-1 $-1 $212 11 #
face $380 $196 $381 $3 $-1 $382 forward single #
plane-surface $383 0.3937010000000000232 0.3937010000000000232 0 0 1 0 0 0 0.03937009999999999815 forward_v I I I I #
edge_name-twe-attrib $-1 $-1 $-1 $215 6 8704 #
straight-curve $-1 -4.527561500000000017 0.1968505000000000116 0 0 1 -0 I I #
point $-1 -4.527561500000000017 0.3937010000000000232 0 #
point $-1 -4.527561500000000017 -2.362206000000000028 0 #
coedge $-1 $363 $222 $384 $385 forward $71 $-1 #
coedge $-1 $386 $387 $222 $296 reversed $388 $-1 #
edge $389 $301 -3.141592653589793116 $390 -1.570796326794896558 $295 $391 reversed 7 unknown #
coedge $-1 $392 $223 $229 $314 forward $299 $-1 #
coedge $-1 $223 $392 $386 $393 reversed $299 $-1 #
loop $394 $-1 $223 $395 #
edge_name-twe-attrib $-1 $-1 $-1 $224 63 8704 #
vertex $-1 $393 $396 #
straight-curve $-1 -0.4921262499999999873 -0.2854332250000000126 0 0 -1 0 I I #
coedge $-1 $225 $397 $398 $399 forward $71 $-1 #
coedge $-1 $400 $401 $225 $305 reversed $402 $-1 #
edge $403 $404 -0 $310 1.570796326794896558 $304 $405 reversed 7 unknown #
coedge $-1 $406 $226 $401 $407 forward $308 $-1 #
coedge $-1 $226 $406 $228 $313 reversed $308 $-1 #
loop $408 $-1 $226 $330 #
edge_name-twe-attrib $-1 $-1 $-1 $227 35 8704 #
vertex $-1 $407 $409 #
straight-curve $-1 -0.4822837249999999965 -1.87007974999999993 0 -1 0 0 I I #
coedge $-1 $229 $228 $410 $411 forward $230 $-1 #
edge $412 $232 -0.1968505000000000116 $413 0 $307 $414 forward 7 unknown #
edge $415 $233 -0.1968505000000000116 $416 0 $297 $417 forward 7 unknown #
loop_type-twe-attrib $-1 $-1 $-1 $230 0 #
point $-1 -0.9645674499999999929 -1.87007974999999993 0 #
point $-1 -0.4921262499999999873 -1.397638549999999924 0 #
face_name-twe-attrib $-1 $-1 $-1 $237 10 #
plane-surface $418 0.3937010000000000232 -2.362206000000000028 0 1 0 0 0 0 -0.03937009999999999815 forward_v I I I I #
surf-twe-attrib $-1 $-1 $-1 $238 177 #
coedge $-1 $321 $321 $241 $322 forward $419 $-1 #
edge $420 $421 -6.283185307179586232 $421 -0 $321 $422 reversed 7 unknown #
loop $423 $-1 $242 $288 #
edge_name-twe-attrib $-1 $-1 $-1 $243 19 8704 #
vertex $-1 $243 $424 #
ellipse-curve $-1 -4.133860499999999938 -1.968504999999999949 0.1968505000000000116 0 0 1 -0.09842525000000000579 0 0 1 I I #
loop_type-twe-attrib $-1 $-1 $-1 $244 1 #
point $-1 -4.232285749999999958 0 0.1968505000000000116 #
face_name-twe-attrib $-1 $-1 $-1 $249 21 #
face $425 $426 $308 $3 $-1 $427 reversed single #
cone-surface $428 -0.9645674499999999929 -1.397638549999999924 0.1968505000000000116 0 0 1 -0.4724412000000000056 0 0 1 I I 0 1 0.4724412000000000056 forward I I I I #
loop_type-twe-attrib $-1 $-1 $-1 $250 0 #
surf-twe-attrib $-1 $429 $-1 $251 187 #
face_name-twe-attrib $-1 $-1 $-1 $253 17 #
face $430 $431 $432 $3 $-1 $433 forward single #
loop $434 $258 $435 $253 #
cone-surface $436 0 0 0.1771654500000000021 0 0 -1 0.1968505000000000116 0 0 1 I I 0 1 0.1968505000000000116 forward I I I I #
loop_type-twe-attrib $-1 $-1 $-1 $254 0 #
coedge $-1 $339 $339 $435 $437 forward $254 $-1 #
surf-twe-attrib $-1 $438 $-1 $255 187 #
loop $439 $-1 $256 $431 #
edge_name-twe-attrib $-1 $-1 $-1 $257 30 8704 #
vertex $-1 $257 $440 #
ellipse-curve $-1 0 -1.968504999999999949 0.590551500000000007 -0 -0 -1 0.1968505000000000116 0 0 1 I I #
loop_type-twe-attrib $-1 $-1 $-1 $258 1 #
point $-1 -0.1968505000000000116 0 0.590551500000000007 #
face_name-twe-attrib $-1 $-1 $-1 $263 15 #
loop $441 $191 $442 $263 #
cone-surface $443 -4.133860499999999938 0 0.1771654500000000021 0 0 -1 0.1968505000000000116 0 0 1 I I 0 1 0.1968505000000000116 forward I I I I #
face_name-twe-attrib $-1 $-1 $-1 $266 14 #
loop $444 $244 $445 $266 #
plane-surface $446 -4.133860499999999938 0 0.1968505000000000116 0 0 1 0.03937009999999999815 0 0 forward_v I I I I #
loop_type-twe-attrib $-1 $-1 $-1 $267 0 #
coedge $-1 $354 $354 $447 $448 reversed $267 $-1 #
surf-twe-attrib $-1 $-1 $-1 $268 203 #
coedge $-1 $271 $277 $269 $357 forward $71 $-1 #
edge $449 $280 -1.574804000000000093 $274 1.181103000000000014 $269 $450 forward 7 unknown #
edge_name-twe-attrib $-1 $-1 $-1 $272 8 8704 #
straight-curve $-1 -2.263780750000000008 -2.362206000000000028 0 -1 0 0 I I #
point $-1 0.3937010000000000232 -2.362206000000000028 0 #
coedge $-1 $451 $452 $276 $362 forward $453 $-1 #
edge $454 $377 -0.09842525000000000579 $365 0.09842525000000000579 $361 $455 reversed 7 unknown #
coedge $-1 $277 $294 $451 $456 forward $71 $-1 #
edge_name-twe-attrib $-1 $-1 $-1 $278 18 8704 #
vertex $-1 $362 $457 #
straight-curve $-1 0.1968505000000000116 0.3937010000000000232 0 1 0 0 I I #
point $-1 0.3937010000000000232 0.3937010000000000232 0 #
coedge $-1 $458 $459 $282 $369 reversed $460 $-1 #
edge $461 $378 -0.09842525000000000579 $372 0.09842525000000000579 $368 $462 forward 7 unknown #
coedge $-1 $463 $283 $459 $464 reversed $71 $-1 #
edge_name-twe-attrib $-1 $-1 $-1 $284 14 8704 #
vertex $-1 $369 $465 #
straight-curve $-1 0.1968505000000000116 0.3937010000000000232 0 1 0 0 I I #
coedge $-1 $466 $285 $452 $467 reversed $250 $-1 #
coedge $-1 $285 $468 $458 $469 reversed $250 $-1 #
edge_name-twe-attrib $-1 $-1 $-1 $286 31 8704 #
vertex $-1 $467 $470 #
vertex $-1 $469 $471 #
straight-curve $-1 0.1968505000000000116 0.3937010000000000232 0.1968505000000000116 1 -0 0 I I #
face_name-twe-attrib $-1 $-1 $-1 $288 12 #
loop $472 $323 $447 $288 #
plane-surface $473 -4.133860499999999938 -1.968504999999999949 0.1968505000000000116 0 0 1 0.03937009999999999815 0 0 forward_v I I I I #
surf-twe-attrib $-1 $-1 $-1 $289 221 #
coedge $-1 $474 $475 $294 $385 reversed $476 $-1 #
edge $477 $390 0.0295275750000000281 $478 0.9350398749999999648 $384 $479 reversed 7 unknown #
coedge $-1 $480 $295 $298 $393 forward $388 $-1 #
coedge $-1 $295 $480 $474 $481 reversed $388 $-1 #
loop $482 $-1 $295 $483 #
edge_name-twe-attrib $-1 $-1 $-1 $296 60 8704 #
vertex $-1 $481 $484 #
ellipse-curve $-1 -0.9645674499999999929 -0.5708664500000000253 0 -0 -0 -1 -0.4724412000000000056 0 0 1 I I #
coedge $-1 $298 $297 $485 $486 forward $299 $-1 #
edge $487 $301 -0.1968505000000000116 $488 0 $298 $489 forward 7 unknown #
loop_type-twe-attrib $-1 $-1 $-1 $299 0 #
face $490 $-1 $299 $3 $-1 $491 reversed single #
point $-1 -0.4921262499999999873 -0.5708664500000000253 0 #
coedge $-1 $303 $463 $492 $493 forward $71 $-1 #
coedge $-1 $494 $495 $303 $399 reversed $496 $-1 #
edge $497 $498 -0.1279528249999999368 $404 0.698819274999999962 $398 $499 reversed 7 unknown #
coedge $-1 $500 $304 $495 $501 forward $402 $-1 #
coedge $-1 $304 $500 $306 $407 reversed $402 $-1 #
loop $502 $-1 $304 $426 #
edge_name-twe-attrib $-1 $-1 $-1 $305 38 8704 #
vertex $-1 $501 $503 #
ellipse-curve $-1 -3.169293049999999834 -1.397638549999999924 0 -0 -0 -1 -0.4724412000000000056 0 0 1 I I #
coedge $-1 $307 $306 $504 $505 forward $308 $-1 #
edge $506 $310 -0.1968505000000000116 $507 0 $401 $508 forward 7 unknown #
loop_type-twe-attrib $-1 $-1 $-1 $308 0 #
point $-1 -3.169293049999999834 -1.87007974999999993 0 #
coedge $-1 $504 $485 $312 $411 reversed $250 $-1 #
edge $509 $413 1.570796326794896558 $416 3.141592653589793116 $312 $510 forward 7 unknown #
edge_name-twe-attrib $-1 $-1 $-1 $313 37 20480 #
vertex $-1 $313 $511 #
straight-curve $-1 -0.9645674499999999929 -1.87007974999999993 0.1968505000000000116 0 0 1 I I #
edge_name-twe-attrib $-1 $-1 $-1 $314 64 20480 #
vertex $-1 $314 $512 #
straight-curve $-1 -0.4921262499999999873 -1.397638549999999924 0.1968505000000000116 0 0 1 I I #
surf-twe-attrib $-1 $-1 $-1 $319 248 #
loop $513 $-1 $321 $335 #
edge_name-twe-attrib $-1 $-1 $-1 $322 28 8704 #
vertex $-1 $322 $514 #
ellipse-curve $-1 0 -1.968504999999999949 0.1968505000000000116 0 0 1 -0.09842525000000000579 0 0 1 I I #
loop_type-twe-attrib $-1 $-1 $-1 $323 1 #
point $-1 -4.232285749999999958 -1.968504999999999949 0.1968505000000000116 #
face_name-twe-attrib $-1 $-1 $-1 $330 22 #
face $515 $516 $402 $3 $-1 $517 reversed single #
plane-surface $518 -0.9645674499999999929 -1.87007974999999993 0.1968505000000000116 0 -1 0 0 0 -0.03937009999999999815 forward_v I I I I #
surf-twe-attrib $-1 $-1 $-1 $331 260 #
surf-twe-attrib $-1 $519 $333 $251 352 #
face_name-twe-attrib $-1 $-1 $-1 $335 18 #
face $520 $182 $521 $3 $-1 $522 reversed single #
loop $523 $419 $524 $335 #
plane-surface $525 0 -1.968504999999999949 0.1968505000000000116 0 0 1 0.03937009999999999815 0 0 forward_v I I I I #
loop_type-twe-attrib $-1 $-1 $-1 $336 0 #
coedge $-1 $435 $435 $339 $437 reversed $336 $-1 #
surf-twe-attrib $-1 $-1 $-1 $337 264 #
edge $526 $527 -3.141592653589793116 $527 3.141592653589793116 $435 $528 reversed 7 unknown #
surf-twe-attrib $-1 $529 $340 $255 352 #
loop_type-twe-attrib $-1 $-1 $-1 $341 1 #
point $-1 -0.1968505000000000116 -1.968504999999999949 0.590551500000000007 #
loop_type-twe-attrib $-1 $-1 $-1 $348 0 #
coedge $-1 $442 $442 $445 $530 reversed $348 $-1 #
surf-twe-attrib $-1 $-1 $-1 $349 274 #
loop_type-twe-attrib $-1 $-1 $-1 $351 0 #
coedge $-1 $445 $445 $442 $530 forward $351 $-1 #
surf-twe-attrib $-1 $531 $-1 $352 187 #
coedge $-1 $447 $447 $354 $448 forward $381 $-1 #
edge $532 $533 -3.141592653589793116 $533 3.141592653589793116 $354 $534 reversed 7 unknown #
edge_name-twe-attrib $-1 $-1 $-1 $357 11 8704 #
straight-curve $-1 0.3937010000000000232 -1.181103000000000014 0 0 -1 0 I I #
coedge $-1 $535 $361 $363 $456 reversed $453 $-1 #
coedge $-1 $361 $535 $374 $467 forward $453 $-1 #
loop $536 $-1 $451 $537 #
edge_name-twe-attrib $-1 $-1 $-1 $362 56 8704 #
straight-curve $-1 -1.87007974999999993 0.3937010000000000232 0.09842525000000000579 0 0 1 I I #
edge $538 $478 -0.2952757500000000035 $365 0.1968505000000000116 $451 $539 reversed 7 unknown #
point $-1 -1.87007974999999993 0.3937010000000000232 0 #
coedge $-1 $540 $368 $375 $469 forward $460 $-1 #
coedge $-1 $368 $540 $370 $464 forward $460 $-1 #
loop $541 $-1 $459 $542 #
edge_name-twe-attrib $-1 $-1 $-1 $369 51 8704 #
straight-curve $-1 -2.263780750000000008 0.3937010000000000232 0.09842525000000000579 0 0 -1 I I #
coedge $-1 $397 $370 $543 $544 forward $71 $-1 #
edge $545 $546 -0.0492126250000000029 $372 0.442913625000000033 $459 $547 forward 7 unknown #
point $-1 -2.263780750000000008 0.3937010000000000232 0 #
coedge $-1 $548 $374 $549 $550 reversed $250 $-1 #
edge $551 $552 -0.2952757500000000035 $377 0.1968505000000000116 $452 $553 forward 7 unknown #
coedge $-1 $375 $554 $555 $556 reversed $250 $-1 #
edge $557 $378 -0.442913625000000033 $558 0.0492126250000000029 $458 $559 forward 7 unknown #
point $-1 -1.87007974999999993 0.3937010000000000232 0.1968505000000000116 #
point $-1 -2.263780750000000008 0.3937010000000000232 0.1968505000000000116 #
loop_type-twe-attrib $-1 $-1 $-1 $381 0 #
surf-twe-attrib $-1 $560 $-1 $382 187 #
coedge $-1 $549 $384 $387 $481 forward $476 $-1 #
coedge $-1 $384 $549 $535 $561 reversed $476 $-1 #
loop $562 $-1 $384 $563 #
edge_name-twe-attrib $-1 $-1 $-1 $385 57 8704 #
vertex $-1 $561 $564 #
straight-curve $-1 -0.9350398749999999648 -0.09842525000000000579 0 1 0 0 I I #
coedge $-1 $387 $386 $548 $565 forward $388 $-1 #
edge $566 $390 -0.1968505000000000116 $567 0 $387 $568 forward 7 unknown #
loop_type-twe-attrib $-1 $-1 $-1 $388 0 #
face $569 $395 $388 $3 $-1 $570 reversed single #
point $-1 -0.9645674499999999929 -0.09842525000000001967 0 #
coedge $-1 $410 $548 $392 $486 reversed $250 $-1 #
edge $571 $416 -1.112205324999999911 $488 -0.2854332250000000126 $392 $572 forward 7 unknown #
edge_name-twe-attrib $-1 $-1 $-1 $393 66 20480 #
vertex $-1 $393 $573 #
straight-curve $-1 -0.4921262499999999873 -0.5708664500000000253 0.1968505000000000116 0 0 1 I I #
face_name-twe-attrib $-1 $-1 $-1 $395 31 #
plane-surface $574 -0.4921262499999999873 -0.5708664500000000253 0.1968505000000000116 1 0 0 0 0 -0.03937009999999999815 forward_v I I I I #
coedge $-1 $575 $576 $397 $493 reversed $577 $-1 #
edge $578 $579 -1.570796326794896558 $498 -0 $492 $580 reversed 7 unknown #
coedge $-1 $581 $398 $576 $582 forward $496 $-1 #
coedge $-1 $398 $581 $400 $501 reversed $496 $-1 #
loop $583 $-1 $398 $516 #
edge_name-twe-attrib $-1 $-1 $-1 $399 41 8704 #
vertex $-1 $582 $584 #
straight-curve $-1 -3.64173424999999984 -0.698819274999999962 0 0 1 -0 I I #
coedge $-1 $401 $400 $585 $586 forward $402 $-1 #
edge $587 $404 -0.1968505000000000116 $588 0 $495 $589 forward 7 unknown #
loop_type-twe-attrib $-1 $-1 $-1 $402 0 #
point $-1 -3.64173424999999984 -1.397638549999999924 0 #
coedge $-1 $585 $410 $406 $505 reversed $250 $-1 #
edge $590 $507 -2.687009325000000004 $413 -0.4822837249999999965 $406 $591 forward 7 unknown #
edge_name-twe-attrib $-1 $-1 $-1 $407 40 20480 #
vertex $-1 $407 $592 #
straight-curve $-1 -3.169293049999999834 -1.87007974999999993 0.1968505000000000116 0 0 1 I I #
edge_name-twe-attrib $-1 $-1 $-1 $411 34 4608 #
ellipse-curve $-1 -0.9645674499999999929 -1.397638549999999924 0.1968505000000000116 -0 -0 1 -0.4724412000000000056 0 0 1 I I #
point $-1 -0.9645674499999999929 -1.87007974999999993 0.1968505000000000116 #
point $-1 -0.4921262499999999873 -1.397638549999999924 0.1968505000000000116 #
loop_type-twe-attrib $-1 $-1 $-1 $419 1 #
point $-1 -0.09842525000000000579 -1.968504999999999949 0.1968505000000000116 #
face_name-twe-attrib $-1 $-1 $-1 $426 23 #
face $593 $594 $496 $3 $-1 $595 reversed single #
cone-surface $596 -3.169293049999999834 -1.397638549999999924 0.1968505000000000116 0 0 1 -0.4724412000000000056 0 0 1 I I 0 1 0.4724412000000000056 forward I I I I #
surf-twe-attrib $-1 $-1 $-1 $427 347 #
surf-twe-attrib $-1 $597 $429 $251 191 #
face_name-twe-attrib $-1 $-1 $-1 $431 19 #
loop $598 $341 $599 $431 #
cone-surface $600 0 -1.968504999999999949 0.1771654500000000021 0 0 -1 0.1968505000000000116 0 0 1 I I 0 1 0.1968505000000000116 forward I I I I #
loop_type-twe-attrib $-1 $-1 $-1 $432 0 #
coedge $-1 $524 $524 $599 $601 forward $432 $-1 #
surf-twe-attrib $-1 $602 $-1 $433 187 #
edge_name-twe-attrib $-1 $-1 $-1 $437 26 4608 #
vertex $-1 $437 $603 #
ellipse-curve $-1 0 0 0.1968505000000000116 -0 -0 -1 0.1968505000000000116 0 0 1 I I #
surf-twe-attrib $-1 $604 $438 $255 191 #
edge $605 $606 -3.141592653589793116 $606 3.141592653589793116 $442 $607 reversed 7 unknown #
surf-twe-attrib $-1 $608 $446 $352 352 #
edge_name-twe-attrib $-1 $-1 $-1 $448 20 4608 #
vertex $-1 $448 $609 #
ellipse-curve $-1 -4.133860499999999938 -1.968504999999999949 0.1968505000000000116 -0 -0 -1 0.1968505000000000116 0 0 1 I I #
coedge $-1 $452 $451 $475 $561 forward $453 $-1 #
loop_type-twe-attrib $-1 $-1 $-1 $453 0 #
face $610 $563 $453 $3 $-1 $611 reversed single #
edge_name-twe-attrib $-1 $-1 $-1 $456 54 8704 #
straight-curve $-1 -1.87007974999999993 0.1968505000000000116 0 0 -1 0 I I #
coedge $-1 $459 $458 $612 $613 reversed $460 $-1 #
loop_type-twe-attrib $-1 $-1 $-1 $460 0 #
face $614 $537 $460 $3 $-1 $615 reversed single #
coedge $-1 $612 $616 $463 $544 reversed $617 $-1 #
edge $618 $546 0.6791342250000000913 $579 1.584646524999999917 $543 $619 reversed 7 unknown #
edge_name-twe-attrib $-1 $-1 $-1 $464 50 8704 #
vertex $-1 $613 $620 #
straight-curve $-1 -2.263780750000000008 -0.0492126250000000029 0 0 1 -0 I I #
coedge $-1 $485 $466 $480 $565 reversed $250 $-1 #
coedge $-1 $475 $474 $466 $550 forward $476 $-1 #
edge $621 $567 0.0295275750000000281 $552 0.9350398749999999648 $549 $622 forward 7 unknown #
edge_name-twe-attrib $-1 $-1 $-1 $467 55 4608 #
vertex $-1 $561 $623 #
straight-curve $-1 -1.87007974999999993 0.1968505000000000116 0.1968505000000000116 -0 1 0 I I #
coedge $-1 $468 $624 $625 $626 reversed $250 $-1 #
coedge $-1 $616 $612 $468 $556 forward $617 $-1 #
edge $627 $558 0.6791342250000000913 $628 1.584646524999999917 $555 $629 forward 7 unknown #
edge_name-twe-attrib $-1 $-1 $-1 $469 52 4608 #
vertex $-1 $613 $630 #
straight-curve $-1 -2.263780750000000008 -0.0492126250000000029 0.1968505000000000116 -0 -1 -0 I I #
surf-twe-attrib $-1 $631 $473 $382 352 #
edge $632 $478 -0.1968505000000000116 $552 -0 $475 $633 reversed 7 unknown #
loop_type-twe-attrib $-1 $-1 $-1 $476 0 #
face $634 $483 $476 $3 $-1 $635 reversed single #
point $-1 -1.87007974999999993 -0.09842525000000000579 0 #
edge $636 $488 -3.141592653589793116 $567 -1.570796326794896558 $480 $637 forward 7 unknown #
edge_name-twe-attrib $-1 $-1 $-1 $481 62 20480 #
vertex $-1 $481 $638 #
straight-curve $-1 -0.9645674499999999929 -0.09842525000000001967 0.1968505000000000116 0 0 1 I I #
face_name-twe-attrib $-1 $-1 $-1 $483 30 #
cone-surface $639 -0.9645674499999999929 -0.5708664500000000253 0.1968505000000000116 0 0 1 -0.4724412000000000056 0 0 1 I I 0 1 0.4724412000000000056 forward I I I I #
edge_name-twe-attrib $-1 $-1 $-1 $486 65 4608 #
straight-curve $-1 -0.4921262499999999873 -0.2854332250000000126 0.1968505000000000116 -0 1 0 I I #
point $-1 -0.4921262499999999873 -0.5708664500000000253 0.1968505000000000116 #
surf-twe-attrib $-1 $-1 $-1 $491 416 #
coedge $-1 $625 $492 $616 $640 forward $577 $-1 #
coedge $-1 $492 $625 $494 $582 reversed $577 $-1 #
loop $641 $-1 $492 $594 #
edge_name-twe-attrib $-1 $-1 $-1 $493 44 8704 #
vertex $-1 $640 $642 #
ellipse-curve $-1 -3.169293049999999834 -0.5708664500000000253 0 -0 -0 -1 -0.4724412000000000056 0 0 1 I I #
coedge $-1 $495 $494 $624 $643 forward $496 $-1 #
edge $644 $498 -0.1968505000000000116 $645 0 $576 $646 forward 7 unknown #
loop_type-twe-attrib $-1 $-1 $-1 $496 0 #
point $-1 -3.64173424999999984 -0.5708664500000000253 0 #
coedge $-1 $624 $504 $500 $586 reversed $250 $-1 #
edge $647 $588 0 $507 1.570796326794896558 $500 $648 forward 7 unknown #
edge_name-twe-attrib $-1 $-1 $-1 $501 43 20480 #
vertex $-1 $501 $649 #
straight-curve $-1 -3.64173424999999984 -1.397638549999999924 0.1968505000000000116 0 0 1 I I #
edge_name-twe-attrib $-1 $-1 $-1 $505 36 4608 #
straight-curve $-1 -0.4822837249999999965 -1.87007974999999993 0.1968505000000000116 1 0 0 I I #
point $-1 -3.169293049999999834 -1.87007974999999993 0.1968505000000000116 #
face_name-twe-attrib $-1 $-1 $-1 $516 24 #
face $650 $651 $577 $3 $-1 $652 reversed single #
plane-surface $653 -3.64173424999999984 -1.397638549999999924 0.1968505000000000116 -1 0 0 0 0 0.03937009999999999815 forward_v I I I I #
surf-twe-attrib $-1 $-1 $-1 $517 450 #
surf-twe-attrib $-1 $654 $519 $251 278 #
loop_type-twe-attrib $-1 $-1 $-1 $521 0 #
coedge $-1 $599 $599 $524 $601 reversed $521 $-1 #
surf-twe-attrib $-1 $-1 $-1 $522 455 #
edge $655 $656 -3.141592653589793116 $656 3.141592653589793116 $599 $657 reversed 7 unknown #
surf-twe-attrib $-1 $658 $525 $433 352 #
point $-1 -0.1968505000000000116 0 0.1968505000000000116 #
surf-twe-attrib $-1 $659 $529 $255 278 #
edge_name-twe-attrib $-1 $-1 $-1 $530 23 4608 #
vertex $-1 $530 $660 #
ellipse-curve $-1 -4.133860499999999938 0 0.1968505000000000116 -0 -0 -1 0.1968505000000000116 0 0 1 I I #
surf-twe-attrib $-1 $661 $531 $352 191 #
point $-1 -4.330710999999999977 -1.968504999999999949 0.1968505000000000116 #
face_name-twe-attrib $-1 $-1 $-1 $537 28 #
plane-surface $662 -1.87007974999999993 0.3937010000000000232 0.1968505000000000116 1 0 0 0 0 -0.03937009999999999815 forward_v I I I I #
coedge $-1 $555 $543 $540 $613 forward $617 $-1 #
edge $663 $546 -0.1968505000000000116 $558 -0 $540 $664 reversed 7 unknown #
face_name-twe-attrib $-1 $-1 $-1 $542 27 #
plane-surface $665 -2.263780750000000008 -0.09842525000000000579 0.1968505000000000116 -1 0 0 0 0 0.03937009999999999815 forward_v I I I I #
coedge $-1 $543 $555 $575 $640 reversed $617 $-1 #
loop $666 $-1 $543 $651 #
edge_name-twe-attrib $-1 $-1 $-1 $544 47 8704 #
straight-curve $-1 -1.584646524999999917 -0.09842525000000000579 0 1 0 0 I I #
point $-1 -2.263780750000000008 -0.09842525000000000579 0 #
edge_name-twe-attrib $-1 $-1 $-1 $550 58 4608 #
straight-curve $-1 -0.9350398749999999648 -0.09842525000000000579 0.1968505000000000116 -1 0 0 I I #
point $-1 -1.87007974999999993 -0.09842525000000000579 0.1968505000000000116 #
coedge $-1 $554 $585 $581 $643 reversed $250 $-1 #
coedge $-1 $576 $575 $554 $626 forward $577 $-1 #
edge $667 $628 -1.570796326794896558 $645 0 $625 $668 forward 7 unknown #
edge_name-twe-attrib $-1 $-1 $-1 $556 48 4608 #
vertex $-1 $640 $669 #
straight-curve $-1 -1.584646524999999917 -0.09842525000000000579 0.1968505000000000116 -1 0 0 I I #
point $-1 -2.263780750000000008 -0.09842525000000000579 0.1968505000000000116 #
surf-twe-attrib $-1 $670 $560 $382 191 #
edge_name-twe-attrib $-1 $-1 $-1 $561 59 8704 #
straight-curve $-1 -1.87007974999999993 -0.09842525000000001967 0.1968505000000000116 0 0 -1 I I #
face_name-twe-attrib $-1 $-1 $-1 $563 29 #
plane-surface $671 -1.87007974999999993 -0.09842525000000000579 0.1968505000000000116 0 1 0 0 0 0.03937009999999999815 forward_v I I I I #
edge_name-twe-attrib $-1 $-1 $-1 $565 61 4608 #
ellipse-curve $-1 -0.9645674499999999929 -0.5708664500000000253 0.1968505000000000116 -0 -0 1 -0.4724412000000000056 0 0 1 I I #
point $-1 -0.9645674499999999929 -0.09842525000000001967 0.1968505000000000116 #
surf-twe-attrib $-1 $-1 $-1 $570 512 #
edge $672 $579 -0.1968505000000000116 $628 0 $616 $673 forward 7 unknown #
loop_type-twe-attrib $-1 $-1 $-1 $577 0 #
point $-1 -3.169293049999999834 -0.09842525000000000579 0 #
edge $674 $645 -0.1279528249999999368 $588 0.698819274999999962 $581 $675 forward 7 unknown #
edge_name-twe-attrib $-1 $-1 $-1 $582 46 20480 #
vertex $-1 $582 $676 #
straight-curve $-1 -3.64173424999999984 -0.5708664500000000253 0.1968505000000000116 0 0 1 I I #
edge_name-twe-attrib $-1 $-1 $-1 $586 39 4608 #
ellipse-curve $-1 -3.169293049999999834 -1.397638549999999924 0.1968505000000000116 -0 -0 1 -0.4724412000000000056 0 0 1 I I #
point $-1 -3.64173424999999984 -1.397638549999999924 0.1968505000000000116 #
face_name-twe-attrib $-1 $-1 $-1 $594 25 #
face $677 $542 $617 $3 $-1 $678 reversed single #
cone-surface $679 -3.169293049999999834 -0.5708664500000000253 0.1968505000000000116 0 0 1 -0.4724412000000000056 0 0 1 I I 0 1 0.4724412000000000056 forward I I I I #
surf-twe-attrib $-1 $-1 $-1 $595 550 #
surf-twe-attrib $-1 $-1 $597 $251 301 #
edge_name-twe-attrib $-1 $-1 $-1 $601 29 4608 #
vertex $-1 $601 $680 #
ellipse-curve $-1 0 -1.968504999999999949 0.1968505000000000116 -0 -0 -1 0.1968505000000000116 0 0 1 I I #
surf-twe-attrib $-1 $681 $602 $433 191 #
surf-twe-attrib $-1 $-1 $604 $255 301 #
point $-1 -4.330710999999999977 0 0.1968505000000000116 #
surf-twe-attrib $-1 $682 $608 $352 278 #
surf-twe-attrib $-1 $-1 $-1 $611 572 #
edge_name-twe-attrib $-1 $-1 $-1 $613 53 8704 #
straight-curve $-1 -2.263780750000000008 -0.09842525000000000579 0.1968505000000000116 0 0 -1 I I #
surf-twe-attrib $-1 $-1 $-1 $615 579 #
loop_type-twe-attrib $-1 $-1 $-1 $617 0 #
edge_name-twe-attrib $-1 $-1 $-1 $626 45 4608 #
ellipse-curve $-1 -3.169293049999999834 -0.5708664500000000253 0.1968505000000000116 -0 -0 1 -0.4724412000000000056 0 0 1 I I #
point $-1 -3.169293049999999834 -0.09842525000000000579 0.1968505000000000116 #
surf-twe-attrib $-1 $683 $631 $382 278 #
surf-twe-attrib $-1 $684 $-1 $635 602 #
edge_name-twe-attrib $-1 $-1 $-1 $640 49 20480 #
straight-curve $-1 -3.169293049999999834 -0.09842525000000001967 0.1968505000000000116 0 0 1 I I #
edge_name-twe-attrib $-1 $-1 $-1 $643 42 4608 #
straight-curve $-1 -3.64173424999999984 -0.698819274999999962 0.1968505000000000116 -0 -1 -0 I I #
point $-1 -3.64173424999999984 -0.5708664500000000253 0.1968505000000000116 #
face_name-twe-attrib $-1 $-1 $-1 $651 26 #
plane-surface $685 -3.169293049999999834 -0.09842525000000000579 0.1968505000000000116 0 1 0 0 0 0.03937009999999999815 forward_v I I I I #
surf-twe-attrib $-1 $-1 $-1 $652 638 #
point $-1 -0.1968505000000000116 -1.968504999999999949 0.1968505000000000116 #
surf-twe-attrib $-1 $686 $658 $433 278 #
surf-twe-attrib $-1 $-1 $661 $352 301 #
surf-twe-attrib $-1 $-1 $670 $382 301 #
surf-twe-attrib $-1 $-1 $671 $635 707 #
surf-twe-attrib $-1 $687 $-1 $678 602 #
surf-twe-attrib $-1 $-1 $681 $433 301 #
surf-twe-attrib $-1 $-1 $685 $678 707 #
End-of-ACIS-data 