  0
SECTION
  2
HEADER
  9
$ACADVER
  1
AC1009
  9
$INSBASE
 10
0.0
 20
0.0
 30
0.0
  9
$EXTMIN
 10
-1.0
 20
0.0
 30
0.0
  9
$EXTMAX
 10
3.0
 20
6.0
 30
4.0
  9
$LIMMIN
 10
0.0
 20
0.0
  9
$LIMMAX
 10
12.0
 20
9.0
  9
$ORTHOMODE
 70
     0
  9
$REGENMODE
 70
     1
  9
$FILLMODE
 70
     1
  9
$QTEXTMODE
 70
     0
  9
$MIRRTEXT
 70
     1
  9
$DRAGMODE
 70
     2
  9
$LTSCALE
 40
1.0
  9
$OSMODE
 70
     0
  9
$ATTMODE
 70
     1
  9
$TEXTSIZE
 40
0.2
  9
$TRACEWID
 40
0.05
  9
$TEXTSTYLE
  7
STANDARD
  9
$CLAYER
  8
0
  9
$CELTYPE
  6
BYLAYER
  9
$CECOLOR
 62
   256
  9
$DIMSCALE
 40
1.0
  9
$DIMASZ
 40
0.18
  9
$DIMEXO
 40
0.0625
  9
$DIMDLI
 40
0.38
  9
$DIMRND
 40
0.0
  9
$DIMDLE
 40
0.0
  9
$DIMEXE
 40
0.18
  9
$DIMTP
 40
0.0
  9
$DIMTM
 40
0.0
  9
$DIMTXT
 40
0.18
  9
$DIMCEN
 40
0.09
  9
$DIMTSZ
 40
0.0
  9
$DIMTOL
 70
     0
  9
$DIMLIM
 70
     0
  9
$DIMTIH
 70
     1
  9
$DIMTOH
 70
     1
  9
$DIMSE1
 70
     0
  9
$DIMSE2
 70
     0
  9
$DIMTAD
 70
     0
  9
$DIMZIN
 70
     0
  9
$DIMBLK
  1

  9
$DIMASO
 70
     1
  9
$DIMSHO
 70
     1
  9
$DIMPOST
  1

  9
$DIMAPOST
  1

  9
$DIMALT
 70
     0
  9
$DIMALTD
 70
     2
  9
$DIMALTF
 40
25.4
  9
$DIMLFAC
 40
1.0
  9
$DIMTOFL
 70
     0
  9
$DIMTVP
 40
0.0
  9
$DIMTIX
 70
     0
  9
$DIMSOXD
 70
     0
  9
$DIMSAH
 70
     0
  9
$DIMBLK1
  1

  9
$DIMBLK2
  1

  9
$DIMSTYLE
  2
*UNNAMED
  9
$DIMCLRD
 70
     0
  9
$DIMCLRE
 70
     0
  9
$DIMCLRT
 70
     0
  9
$DIMTFAC
 40
1.0
  9
$DIMGAP
 40
0.09
  9
$LUNITS
 70
     2
  9
$LUPREC
 70
     4
  9
$SKETCHINC
 40
0.1
  9
$FILLETRAD
 40
0.0
  9
$AUNITS
 70
     0
  9
$AUPREC
 70
     0
  9
$MENU
  1
acad
  9
$ELEVATION
 40
0.0
  9
$PELEVATION
 40
0.0
  9
$THICKNESS
 40
0.0
  9
$LIMCHECK
 70
     0
  9
$BLIPMODE
 70
     1
  9
$CHAMFERA
 40
0.0
  9
$CHAMFERB
 40
0.0
  9
$SKPOLY
 70
     0
  9
$TDCREATE
 40
2449408.820470856
  9
$TDUPDATE
 40
2449408.821060312
  9
$TDINDWG
 40
0.0005894560
  9
$TDUSRTIMER
 40
0.0005894560
  9
$USRTIMER
 70
     1
  9
$ANGBASE
 50
0.0
  9
$ANGDIR
 70
     0
  9
$PDMODE
 70
     0
  9
$PDSIZE
 40
0.0
  9
$PLINEWID
 40
0.0
  9
$COORDS
 70
     1
  9
$SPLFRAME
 70
     0
  9
$SPLINETYPE
 70
     6
  9
$SPLINESEGS
 70
     8
  9
$ATTDIA
 70
     0
  9
$ATTREQ
 70
     1
  9
$HANDLING
 70
     1
  9
$HANDSEED
  5
41
  9
$SURFTAB1
 70
     6
  9
$SURFTAB2
 70
     6
  9
$SURFTYPE
 70
     6
  9
$SURFU
 70
     6
  9
$SURFV
 70
     6
  9
$UCSNAME
  2

  9
$UCSORG
 10
0.0
 20
0.0
 30
0.0
  9
$UCSXDIR
 10
1.0
 20
0.0
 30
0.0
  9
$UCSYDIR
 10
0.0
 20
1.0
 30
0.0
  9
$PUCSNAME
  2

  9
$PUCSORG
 10
0.0
 20
0.0
 30
0.0
  9
$PUCSXDIR
 10
1.0
 20
0.0
 30
0.0
  9
$PUCSYDIR
 10
0.0
 20
1.0
 30
0.0
  9
$USERI1
 70
     0
  9
$USERI2
 70
     0
  9
$USERI3
 70
     0
  9
$USERI4
 70
     0
  9
$USERI5
 70
     0
  9
$USERR1
 40
0.0
  9
$USERR2
 40
0.0
  9
$USERR3
 40
0.0
  9
$USERR4
 40
0.0
  9
$USERR5
 40
0.0
  9
$WORLDVIEW
 70
     1
  9
$SHADEDGE
 70
     3
  9
$SHADEDIF
 70
    70
  9
$TILEMODE
 70
     1
  9
$MAXACTVP
 70
    16
  9
$PINSBASE
 10
0.0
 20
0.0
 30
0.0
  9
$PLIMCHECK
 70
     0
  9
$PEXTMIN
 10
1.000000E+20
 20
1.000000E+20
 30
1.000000E+20
  9
$PEXTMAX
 10
-1.000000E+20
 20
-1.000000E+20
 30
-1.000000E+20
  9
$PLIMMIN
 10
0.0
 20
0.0
  9
$PLIMMAX
 10
12.0
 20
9.0
  9
$UNITMODE
 70
     0
  9
$VISRETAIN
 70
     0
  9
$PLINEGEN
 70
     0
  9
$PSLTSCALE
 70
     1
  9
$TREEDEPTH
 70
  3020
  9
$DWGCODEPAGE
  3
ascii
  0
ENDSEC
  0
SECTION
  2
TABLES
  0
TABLE
  2
VPORT
 70
     2
  0
VPORT
  2
*ACTIVE
 70
     0
 10
0.0
 20
0.0
 11
1.0
 21
1.0
 12
2.558038
 22
0.547723
 13
0.0
 23
0.0
 14
1.0
 24
1.0
 15
0.0
 25
0.0
 16
1.0
 26
2.0
 36
1.0
 17
0.0
 27
0.0
 37
0.0
 40
6.572671
 41
1.594883
 42
50.0
 43
0.0
 44
0.0
 50
0.0
 51
0.0
 71
     0
 72
   100
 73
     1
 74
     1
 75
     0
 76
     0
 77
     0
 78
     0
  0
ENDTAB
  0
TABLE
  2
LTYPE
 70
     1
  0
LTYPE
  2
CONTINUOUS
 70
    64
  3
Solid line
 72
    65
 73
     0
 40
0.0
  0
ENDTAB
  0
TABLE
  2
LAYER
 70
     2
  0
LAYER
  2
0
 70
    64
 62
     7
  6
CONTINUOUS
  0
LAYER
  2
AME_FRZ
 70
    65
 62
     7
  6
CONTINUOUS
  0
ENDTAB
  0
TABLE
  2
STYLE
 70
     1
  0
STYLE
  2
STANDARD
 70
     0
 40
0.0
 41
1.0
 50
0.0
 71
     0
 42
0.2
  3
txt
  4

  0
ENDTAB
  0
TABLE
  2
VIEW
 70
     0
  0
ENDTAB
  0
TABLE
  2
UCS
 70
     0
  0
ENDTAB
  0
TABLE
  2
APPID
 70
     3
  0
APPID
  2
ACAD
 70
    64
  0
APPID
  2
AME_SOL
 70
    64
  0
APPID
  2
AVE_INVOKE
 70
    64
  0
ENDTAB
  0
TABLE
  2
DIMSTYLE
 70
     0
  0
ENDTAB
  0
ENDSEC
  0
SECTION
  2
BLOCKS
  0
BLOCK
  8
0
  5
1
  2
AME_NIL
 70
    64
 10
0.0
 20
0.0
 30
0.0
  1
AME_NIL
  3
AME_NIL
  0
ENDBLK
  8
0
  5
2
  0
BLOCK
  8
0
  5
4
  2
AME_SOL
 70
    64
 10
0.0
 20
0.0
 30
0.0
  1
AME_SOL
  3
AME_SOL
  0
ENDBLK
  8
0
  5
5
  0
BLOCK
  8
0
  5
26
  2
*U4
 70
    65
 10
0.0
 20
0.0
 30
0.0
  1
*U
  3
*U
  0
LINE
  8
0
 62
     7
  5
27
 10
2.0
 20
5.0
 30
0.0
 11
2.0
 21
5.0
 31
1.0
1001
AME_SOL
1070
     1
1071
       26
  0
LINE
  8
0
 62
     7
  5
28
 10
2.0
 20
2.267949
 30
3.0
 11
2.0
 21
0.0
 31
3.0
1001
AME_SOL
1070
     1
1071
       25
  0
LINE
  8
0
 62
     7
  5
29
 10
0.0
 20
5.0
 30
0.0
 11
0.0
 21
5.0
 31
1.0
1001
AME_SOL
1070
     1
1071
       24
  0
LINE
  8
0
 62
     7
  5
2A
 10
0.0
 20
2.267949
 30
3.0
 11
0.0
 21
0.0
 31
3.0
1001
AME_SOL
1070
     1
1071
       23
  0
LINE
  8
0
 62
     7
  5
2B
 10
0.0
 20
0.0
 30
0.0
 11
0.0
 21
0.0
 31
3.0
1001
AME_SOL
1070
     1
1071
       22
  0
LINE
  8
0
 62
     7
  5
2C
 10
2.0
 20
0.0
 30
3.0
 11
2.0
 21
0.0
 31
0.0
1001
AME_SOL
1070
     1
1071
       21
  0
LINE
  8
0
 62
     7
  5
2D
 10
0.0
 20
0.0
 30
3.0
 11
2.0
 21
0.0
 31
3.0
1001
AME_SOL
1070
     1
1071
       20
  0
LINE
  8
0
 62
     7
  5
2E
 10
0.0
 20
0.0
 30
0.0
 11
2.0
 21
0.0
 31
0.0
1001
AME_SOL
1070
     1
1071
       19
  0
LINE
  8
0
 62
     7
  5
2F
 10
0.0
 20
5.0
 30
0.0
 11
0.0
 21
0.0
 31
0.0
1001
AME_SOL
1070
     1
1071
       18
  0
LINE
  8
0
 62
     7
  5
30
 10
2.0
 20
0.0
 30
0.0
 11
2.0
 21
5.0
 31
0.0
1001
AME_SOL
1070
     1
1071
       17
  0
LINE
  8
0
 62
     7
  5
31
 10
2.0
 20
5.0
 30
0.0
 11
0.0
 21
5.0
 31
0.0
1001
AME_SOL
1070
     1
1071
       16
  0
LINE
  8
0
 62
     7
  5
32
 10
0.0
 20
5.0
 30
1.0
 11
0.0
 21
2.267949
 31
1.0
1001
AME_SOL
1070
     1
1071
       15
  0
LINE
  8
0
 62
     7
  5
33
 10
2.0
 20
2.267949
 30
1.0
 11
2.0
 21
5.0
 31
1.0
1001
AME_SOL
1070
     1
1071
       14
  0
LINE
  8
0
 62
     7
  5
34
 10
2.0
 20
5.0
 30
1.0
 11
0.0
 21
5.0
 31
1.0
1001
AME_SOL
1070
     1
1071
       13
  0
ARC
  8
0
 62
     7
  5
35
 10
1.0
 20
4.0
 30
1.0
 40
2.0
 50
240.0
 51
300.0
1001
AME_SOL
1070
     1
1071
       12
  0
LINE
  8
0
 62
     7
  5
36
 10
0.0
 20
2.267949
 30
1.0
 11
0.0
 21
2.267949
 31
3.0
1001
AME_SOL
1070
     1
1071
       11
  0
LINE
  8
0
 62
     7
  5
37
 10
2.0
 20
2.267949
 30
1.0
 11
2.0
 21
2.267949
 31
3.0
1001
AME_SOL
1070
     1
1071
       10
  0
ARC
  8
0
 62
     7
  5
38
 10
1.0
 20
4.0
 30
3.0
 40
2.0
 50
240.0
 51
300.0
1001
AME_SOL
1070
     1
1071
        9
  0
LINE
  8
0
 62
     7
  5
39
 10
1.0
 20
2.0
 30
1.0
 11
1.0
 21
2.0
 31
3.0
1001
AME_SOL
1070
     0
1071
        1
  0
ENDBLK
  8
0
  5
3A
  0
BLOCK
  8
0
  5
3E
  2
AME_JNK
 70
     0
 10
0.0
 20
0.0
 30
0.0
  1
AME_JNK
  3
AME_JNK
  0
ENDBLK
  8
0
  5
3F
  0
ENDSEC
  0
SECTION
  2
ENTITIES
  0
INSERT
  8
AME_FRZ
  5
3
  2
AME_NIL
 10
0.0
 20
0.0
 30
0.0
  0
INSERT
  8
AME_FRZ
  5
6
  2
AME_SOL
 10
0.0
 20
0.0
 30
0.0
1001
AME_SOL
1000
R2.1
1000
AME2
1000
sq cm
1070
     3
1070
     0
1070
     3
1000
wire
1040
45.0
1000
U
1040
1.0
1000
cm
1000
gm
1000
MILD_STEEL
1070
    25
1000
CSG
1070
     1
1070
     3
1070
     3
1070
     3
1070
     0
1000
cu cm
1070
     1
1070
     0
1005
3
  0
INSERT
  8
AME_FRZ
  5
15
  2
AME_NIL
 10
0.0
 20
0.0
 30
0.0
1001
AME_SOL
1002
{
1070
     1
1071
  2481800
1070
  1536
1070
     1
1010
2.0
1020
5.0
1030
3.0
1005
0
1005
0
1005
3B
1040
0.0
1040
1.0
1070
     0
1000
MILD_STEEL
1000
0
1010
0.0
1020
0.0
1030
0.0
1010
0.0
1020
0.0
1030
1.0
1040
0.0
1002
}
1001
AVE_INVOKE
1000
SOLAVEMESH
  0
INSERT
  8
AME_FRZ
  5
22
  2
AME_NIL
 10
1.0
 20
4.0
 30
1.0
1001
AME_SOL
1002
{
1070
     1
1071
  2464664
1070
  1538
1070
     1
1010
2.0
1020
2.0
1030
3.0
1005
0
1005
0
1005
3B
1040
0.0
1040
1.0
1070
     0
1000
MILD_STEEL
1000
0
1010
1.0
1020
4.0
1030
1.0
1010
0.0
1020
0.0
1030
1.0
1040
0.0
1002
}
1001
AVE_INVOKE
1000
SOLAVEMESH
  0
INSERT
  8
0
  5
3B
  2
*U4
 10
0.0
 20
0.0
 30
0.0
1001
AME_SOL
1002
{
1070
     1
1071
  2392056
1070
  1543
1070
     1
1070
     0
1005
15
1005
22
1005
0
1005
3C
1005
0
1040
0.0
1040
1.0
1070
     0
1000
MILD_STEEL
1000
0
1002
}
1001
AVE_INVOKE
1000
SOLAVEMESH
  0
INSERT
  8
AME_FRZ
  5
3C
  2
AME_NIL
 10
1.0
 20
1.0
 30
1.0
1001
AME_SOL
1004
C7CF01000501820181017F017B017301F00002007401400068011F00FE007C017501690159018F009F005A01060014006A013200480076016B015B0146013201220116010701D400D0000801CB00CA0017010901BB00BA000A01B900A900FB00040096005C01470105000D004801600090006C015D014901
1004
EE003301AA0089004A0134015200EA0035012D00C6005E014B01A400DB00CF0080017D0177016D015F0175004C01E00036015400440060014D013701EF006B003801D80062004E0139018D0061003A0123010700F90024011300F4006E0161010C004F013B012501F300E7002601B80018010B01A300A200
1004
D70084006201800050013C010300F800200078016F0163010800510192004E006401520147003D011000CD0053013E012701FC0065002801700026003F01290130006D008A003F007E017901700101002400710165015401190040012A011901D1000C01A1008B00DF005F00550125004101B700E600BF00
1004
7A01FF007201660179005601C00042012B01C2006F00C1006701570143012C0173009C002D01F200380044012E011A012C00D9001B013D0074002F011C014D0066001D0156000D013500D3005801450130011E010E01420068000F01BC009E001F011001550058001101B300AB003101200112015D005E00
1004
130101010001120002018800F700210114010301E80028000401DE002E00150105012F0031000601DA007800180000003AA70EA9C30730B1561CE76747EBA8B1CA2C758CD006C25163AC678D84A2C758CF1B7F65C4482450248A4E3EA849FC49149C7D5092A84C730BE46328B1D633401B3ED661E909AEE5
1004
BE2F6A7133DD56885BFB2E22412281245271F5424FE248A4E3EA8495426275534534DAAE76C4C0B9D54FFC0BFFFFFFFC0BFFFC0BFD542FC0B34FF17F17FFFFF9D54FFC0BFFFFFFFC0BFFFC0BFD542FC0B34FF17F17FFFFE06DF61D539CCA0FF02FFFFFFFF02FFFF036AAFAA85F8161A1D18893D46A1916D2
1004
A1D18893D46A1916D363FBEC3A879941FE05FFFFFFFE05FFBD8E739CE442FF8BF02C343A31127A8D4322DA543A31127A8D4322DA7EC7FC0DFF4C1E8746224F51A8645B4BF81B739CE739CB43A31127A8D4322DA6C7FE99CE739CE72C37DE739CFBCE7398FFD339CE739CE5BEC3AB1CCA0FF02FFFFFFFF02F
1004
FFF502FD542FC0B0D0E8C449EA350C8B6950E8C449EA350C8B69B1FDF61D7CCA0FF02FFFFFFFF02FFDEC739CE72217FBF8BF02C343A31127A8D4322DA543A31127A8D4322DA6C7F30BE46328B1D633401B3ED661E909AEE5BE2F6A7133DD56885BFB2E22412281245271F5424FE228B1D6334016C52D4DFC
1004
2D573B62607D2D4FFC0BFFFFFE9BF037FD37E05FEAA17E059A7FFFFFFFFFD2D4FFC0BFFFFFE9BF037FD37E05FEAA17E059A7FFFFFFFFF036617C8C6128B1D633C6C25163AC678D84A2C758CF1B6865C4482488D549C7D50913104A2C758CF16C52D4CDC93558EC4A634B53FFFF02FFFF02FFFFFFFFFFCD3F
1004
FFFFFFFFE96A7FFFE05FFFE05FFFFFFFFFF9A7FFFFFFFFF02CC2F918C25163AC678D84A2C758CF1B09458EB19E36D0CB889049104A2C758CF16FECB889048A04C52D4D41CD9B1D8BF758D2D4FFC0BFFFFFFFFFC0BFFFFFF34FFFFFFFFFFA5A9FF817FFFFFFFFF817FFFFFE69FFFFFFFFFC0B30BE44A128B1
1004
D633C6C25163AC678D84A2C758CF1B09458EB19E2CD549C7D5091313FB2E22412281314B534F57B363B15718D2D4FFFFFFC0BFFFC0BFFFFFFFF34FFFFFFFFFFA5A9FFFFFF817FFF817FFFFFFFE69FFFFFFFFFC0B30BE46309458EB19E36128B1D633C6D293D9B2B49423826865C4482488D549C7D5091313
1004
FB2E22412281314B5337393363B17EE31A5A9FF81BFE9BFA6FE9BF037FD37F17E4C5FA811A7FFFFFFFFFD2D4FFC0DFF4DFD37F4DF81BFE9BF8BF262FD408D3FFFFFFFFF816617C8C6128B1D633C6D1F576AE2548EA3C209458EB19E36D0CB88904911AA938FAA122627F65C448245026296A69E7766C762F
1004
DB634B53FFA6FE9BF037F81BFE9BFA6FE2FC98BF50234FFFFFFFFFFA5A9FFD37F4DF81BFC0DFF4DFD37F17E4C5FA811A7FFFFFFFFF02CC2F9129F6B30F484D772C25163AC678D84A2C758CF1B6865C4482488D549C7D5091313FB2E22412281314B53366D9B1D89D98D2D4FFE9BF037FD37F4DFD37E06FF8
1004
BF262FD408D3FFFFFFFFFE96A7FF4DF81BFE9BFA6FE9BF037FC5F9317EA0469FFFFFFFFFC0B3C3809458EB19E367DACC3D2135DCB4A4F66CAD2508E09A1971120922355271F54244C4FECB889048A04FB5F03B3E6747BDE9597C0ECF99D1EE06C35610212BAD5D8B9C8A69B54DCE4CF0CDCE4CD14D36AB1D
1004
CE7395841FE05FFFFFFFE05FFFE05FEAA17EA0463FE2FE27DAF81D9F33A3DEF4ACBE0767CCE8F703678707DACC3D2135DCB3ED661E909AEE5BE2F6A7133DD56885B432E22412446AA4E3EA848989FD9711209140BFDCE739CE72C332815A30067B9CC514D36A9B36CF0D14D36A9B36CDCE7398E6507F817F
1004
FFFFFF817FEC7E27E77D2FBED26F632117E0587FEE739CE73967870128B1D633C6CFB5987A426BB96F8BDA9C4CF755A216128B1D633C59AA938FAA122627F65C44824502FF739CE739CB0CCA003F799EC5CE4534DAA9EAF67869EAF668A69B558EE739C6507F817FFFFFFF817FFF7A7B1F89F9DF4BEFB49B
1004
D8C845F8161FFB9CE739CE59E1C1458EB19A00D9F6B30F484D772DF17B53899EEAB442DFD9711209140922938FAA127F11458EB19A00B7DAF81D9F33A3DEF4ACBE0767CCE8F70361AB081FB060CCF7398A29A6D57F0B570D14D36ABF85AAE739CE739CAC20FF02FFFFFFFF02FFFF02FF550BF02CC7FC5FC4
1004
FB5F03B3E6747BDE9597C0ECF99D1EE06CF0E025163AC678DA3EAED5C4A91D4784F8BDA9C4CF755A216D0CB88904911AA938FAA1226228B1D6334016C7D09BFD3AB0CCA04CFDA67B1739FC2D54F3BB3C34F3BB37F0B558EE739C6507FFF817FFFFFFF81BFD3ABFC98BF02C363E84DFE9D59E1C1F6B30F484
1004
D772CFB5987A426BB96F8BDA9C4CF755A216D0CB88904911AA938FAA1226228B1D6334016FC8ADBE87D6FA8F587A31FA12C332813D2BB3D8B9CFE16A9B36CF0CD9B66FE16AB1DCE738CA0FF02FFFFFFFFFF037FC5FBF545F8161BF22B6FA1F5BEA3D61E8C7E84B3C3809458EB19E367DACC3D2135DCB7C5E
1004
D4E267BAAD10B09458EB19E2CD549C7D5091311458EB19A00B63EA1E9FA156FC6FD24D5B690D866502A914CF62E73F85AA9EAF67869EAF66FE16AB1DCE738CA0FF037FFFFFFFFF81BFFFE2FC0B0D8FA87A7E855BF1BF49356DA4367870128B1D633C6D1F576AE2548EA3C209458EB19E36D0CB88904911AA
1004
938FAA1226209458EB19E2FF037F816199409EFA59EE7313724D54F3BB3C33724D54F3BB363B1CCA0FFFF02FFFFFFFF037F817F9317F87F81BFC0B3C383ED661E909AEE584A2C758CF1B09458EB19E36D0CB88904911AA938FAA1226209458EB19E2FF317AFCC4419940F4FA59EE7313724D5366D9E19B92
1004
6A9B36CD8EC73283FC0BFFFFFFFFFC0DFF17E622FF0FF317AFCC447870128B1D633C6C25163AC678D84A2C758CF1B09458EB19E2CD549C7D50913104A2C758CF17F937AFE9833281FCC059EE7313724D54F57B3C33724D54F57B363B1CCA0FF037FFFFFFFFF81BFFFFFF0FF26F5FD31E1C04A2C758CF1B09
1004
458EB19E36128B1D633C6DA197112092209458EB19E2C25163AC678BFFFE20CCA07ECB4867B9CC4DC935541CD9E19B926AA839B363B1CCA0FFFF037FFFFFFF81BFFFFFF0FFFF88F0E025163AC678D84A2C758CF1B4A4F66CAD2508E09A197112092209458EB19E2DFD9711209140BF037F816199405982B3
1004
DCE62A0E6CCDCE4CF0D41CD99B9C99B1D8E6507FFFFF817FFF81BFFFC0BFFFD4083FC0DFE059E1C1F6B30F484D772C25163AC678D84A2C758CF1B6865C448248825163AC678B7F65C44824502FD3ADFE9D5866503F298233DCE62A0E6CCD9B6786A0E6CCD9B66C7639941FE05FFFFFFFE06FFFF8BFFF4EAC
1004
3FD3ADFE9D59E1C04A2C758CF1B09458EB19E36128B1D633C6C25163AC678B09458EB19E2DFD9711209140BFFF5020CCA07E17E267B9CC541CD9A7ABD9E1A839B34F57B363B1CCA0FF037FFFFFFF81BFFFFFFFF0FFFF5023C3809458EB19E36128B1D633C6D293D9B2B494238209458EB19E2CD549C7D509
1004
1313FB2E224122813EE565EC7E04AEFCCAB5FE6220CCA07E569267B9CC53D5ECCDCE4CF0D3D5ECCDCE4CD8EC73283FFFFFC0BFC0DFFFFFFFE622FD40837DCACBD8FC095DF9956BFCC447870128B1D633C6D1F576AE2548EA3C209458EB19E36128B1D633C59AA938FAA122627F65C44824502FD3ADB9CE73
1004
9CD2B619940FC295ACF7398A7ABD9A79DD9E1A7ABD9A79DD9B1D8E6507FFF817FFF81BFFFFFFFC98BF4EAC3FD3ADB9CE739CD2B678707DACC3D2135DCB09458EB19E36949ECD95A4A11C13432E22412446AA4E3EA848989FD97112091409F72B6FA1F5BEA3D3417E4C419940FDF4AC67B9CC4DCE4CCD9B67
1004
866E72666CDB363B1CCA0FF02FFFFFFA6FFFC0BFE2FC98BF5020DF72B6FA1F5BEA3D3417E4C478707DACC3D2135DCB47D5DAB89523A8F0825163AC678DB432E22412446AA4E3EA848989FD9711209140BF50F4E739CE739B0CCA07EB1E33DCE629E77666CDB3C34F3BB3366D9B1D8E6507F817FFFFFFF817
1004
FFFC5F9317EA041FEA1E9CE739CE736D0AC3F520
1005
3D
  0
INSERT
  8
AME_FRZ
  5
3D
  2
AME_NIL
 10
1.0
 20
1.0
 30
1.0
1001
AME_SOL
1004

1005
0
  0
ENDSEC
  0
EOF
