  0
SECTION
  2
HEADER
  9
$ACADVER
  1
AC1009
  9
$INSBASE
 10
0.0
 20
0.0
 30
0.0
  9
$EXTMIN
 10
-1.0
 20
-1.0
 30
-1.0
  9
$EXTMAX
 10
10.0
 20
4.0
 30
14.0
  9
$LIMMIN
 10
0.0
 20
0.0
  9
$LIMMAX
 10
12.0
 20
9.0
  9
$ORTHOMODE
 70
     0
  9
$REGENMODE
 70
     1
  9
$FILLMODE
 70
     1
  9
$QTEXTMODE
 70
     0
  9
$MIRRTEXT
 70
     1
  9
$DRAGMODE
 70
     2
  9
$LTSCALE
 40
1.0
  9
$OSMODE
 70
     0
  9
$ATTMODE
 70
     1
  9
$TEXTSIZE
 40
0.2
  9
$TRACEWID
 40
0.05
  9
$TEXTSTYLE
  7
STANDARD
  9
$CLAYER
  8
0
  9
$CELTYPE
  6
BYLAYER
  9
$CECOLOR
 62
   256
  9
$DIMSCALE
 40
1.0
  9
$DIMASZ
 40
0.18
  9
$DIMEXO
 40
0.0625
  9
$DIMDLI
 40
0.38
  9
$DIMRND
 40
0.0
  9
$DIMDLE
 40
0.0
  9
$DIMEXE
 40
0.18
  9
$DIMTP
 40
0.0
  9
$DIMTM
 40
0.0
  9
$DIMTXT
 40
0.18
  9
$DIMCEN
 40
0.09
  9
$DIMTSZ
 40
0.0
  9
$DIMTOL
 70
     0
  9
$DIMLIM
 70
     0
  9
$DIMTIH
 70
     1
  9
$DIMTOH
 70
     1
  9
$DIMSE1
 70
     0
  9
$DIMSE2
 70
     0
  9
$DIMTAD
 70
     0
  9
$DIMZIN
 70
     0
  9
$DIMBLK
  1

  9
$DIMASO
 70
     1
  9
$DIMSHO
 70
     1
  9
$DIMPOST
  1

  9
$DIMAPOST
  1

  9
$DIMALT
 70
     0
  9
$DIMALTD
 70
     2
  9
$DIMALTF
 40
25.4
  9
$DIMLFAC
 40
1.0
  9
$DIMTOFL
 70
     0
  9
$DIMTVP
 40
0.0
  9
$DIMTIX
 70
     0
  9
$DIMSOXD
 70
     0
  9
$DIMSAH
 70
     0
  9
$DIMBLK1
  1

  9
$DIMBLK2
  1

  9
$DIMSTYLE
  2
*UNNAMED
  9
$DIMCLRD
 70
     0
  9
$DIMCLRE
 70
     0
  9
$DIMCLRT
 70
     0
  9
$DIMTFAC
 40
1.0
  9
$DIMGAP
 40
0.09
  9
$LUNITS
 70
     2
  9
$LUPREC
 70
     4
  9
$SKETCHINC
 40
0.1
  9
$FILLETRAD
 40
0.0
  9
$AUNITS
 70
     0
  9
$AUPREC
 70
     0
  9
$MENU
  1
acad
  9
$ELEVATION
 40
0.0
  9
$PELEVATION
 40
0.0
  9
$THICKNESS
 40
0.0
  9
$LIMCHECK
 70
     0
  9
$BLIPMODE
 70
     1
  9
$CHAMFERA
 40
0.0
  9
$CHAMFERB
 40
0.0
  9
$SKPOLY
 70
     0
  9
$TDCREATE
 40
2449378.632292465
  9
$TDUPDATE
 40
2449378.635032696
  9
$TDINDWG
 40
0.0027402315
  9
$TDUSRTIMER
 40
0.0027402315
  9
$USRTIMER
 70
     1
  9
$ANGBASE
 50
0.0
  9
$ANGDIR
 70
     0
  9
$PDMODE
 70
     0
  9
$PDSIZE
 40
0.0
  9
$PLINEWID
 40
0.0
  9
$COORDS
 70
     1
  9
$SPLFRAME
 70
     0
  9
$SPLINETYPE
 70
     6
  9
$SPLINESEGS
 70
     8
  9
$ATTDIA
 70
     0
  9
$ATTREQ
 70
     1
  9
$HANDLING
 70
     1
  9
$HANDSEED
  5
157
  9
$SURFTAB1
 70
     6
  9
$SURFTAB2
 70
     6
  9
$SURFTYPE
 70
     6
  9
$SURFU
 70
     6
  9
$SURFV
 70
     6
  9
$UCSNAME
  2

  9
$UCSORG
 10
0.0
 20
0.0
 30
0.0
  9
$UCSXDIR
 10
1.0
 20
0.0
 30
0.0
  9
$UCSYDIR
 10
0.0
 20
1.0
 30
0.0
  9
$PUCSNAME
  2

  9
$PUCSORG
 10
0.0
 20
0.0
 30
0.0
  9
$PUCSXDIR
 10
1.0
 20
0.0
 30
0.0
  9
$PUCSYDIR
 10
0.0
 20
1.0
 30
0.0
  9
$USERI1
 70
     0
  9
$USERI2
 70
     0
  9
$USERI3
 70
     0
  9
$USERI4
 70
     0
  9
$USERI5
 70
     0
  9
$USERR1
 40
0.0
  9
$USERR2
 40
0.0
  9
$USERR3
 40
0.0
  9
$USERR4
 40
0.0
  9
$USERR5
 40
0.0
  9
$WORLDVIEW
 70
     1
  9
$SHADEDGE
 70
     3
  9
$SHADEDIF
 70
    70
  9
$TILEMODE
 70
     1
  9
$MAXACTVP
 70
    16
  9
$PINSBASE
 10
0.0
 20
0.0
 30
0.0
  9
$PLIMCHECK
 70
     0
  9
$PEXTMIN
 10
1.000000E+20
 20
1.000000E+20
 30
1.000000E+20
  9
$PEXTMAX
 10
-1.000000E+20
 20
-1.000000E+20
 30
-1.000000E+20
  9
$PLIMMIN
 10
0.0
 20
0.0
  9
$PLIMMAX
 10
12.0
 20
9.0
  9
$UNITMODE
 70
     0
  9
$VISRETAIN
 70
     0
  9
$PLINEGEN
 70
     0
  9
$PSLTSCALE
 70
     1
  9
$TREEDEPTH
 70
  3020
  9
$DWGCODEPAGE
  3
ascii
  0
ENDSEC
  0
SECTION
  2
TABLES
  0
TABLE
  2
VPORT
 70
     2
  0
VPORT
  2
*ACTIVE
 70
     0
 10
0.0
 20
0.0
 11
1.0
 21
1.0
 12
7.197313
 22
2.857738
 13
0.0
 23
0.0
 14
1.0
 24
1.0
 15
0.0
 25
0.0
 16
2.0
 26
2.0
 36
2.0
 17
0.0
 27
0.0
 37
0.0
 40
18.779421
 41
1.594883
 42
50.0
 43
0.0
 44
0.0
 50
0.0
 51
0.0
 71
     0
 72
   100
 73
     1
 74
     1
 75
     0
 76
     0
 77
     0
 78
     0
  0
ENDTAB
  0
TABLE
  2
LTYPE
 70
     1
  0
LTYPE
  2
CONTINUOUS
 70
    64
  3
Solid line
 72
    65
 73
     0
 40
0.0
  0
ENDTAB
  0
TABLE
  2
LAYER
 70
     2
  0
LAYER
  2
0
 70
    64
 62
     7
  6
CONTINUOUS
  0
LAYER
  2
AME_FRZ
 70
    65
 62
     7
  6
CONTINUOUS
  0
ENDTAB
  0
TABLE
  2
STYLE
 70
     1
  0
STYLE
  2
STANDARD
 70
     0
 40
0.0
 41
1.0
 50
0.0
 71
     0
 42
0.2
  3
txt
  4

  0
ENDTAB
  0
TABLE
  2
VIEW
 70
     0
  0
ENDTAB
  0
TABLE
  2
UCS
 70
     0
  0
ENDTAB
  0
TABLE
  2
APPID
 70
     3
  0
APPID
  2
ACAD
 70
    64
  0
APPID
  2
AME_SOL
 70
    64
  0
APPID
  2
AVE_INVOKE
 70
    64
  0
ENDTAB
  0
TABLE
  2
DIMSTYLE
 70
     0
  0
ENDTAB
  0
ENDSEC
  0
SECTION
  2
BLOCKS
  0
BLOCK
  8
0
  5
1
  2
AME_NIL
 70
    64
 10
0.0
 20
0.0
 30
0.0
  1
AME_NIL
  3
AME_NIL
  0
ENDBLK
  8
0
  5
2
  0
BLOCK
  8
0
  5
4
  2
AME_SOL
 70
    64
 10
0.0
 20
0.0
 30
0.0
  1
AME_SOL
  3
AME_SOL
  0
ENDBLK
  8
0
  5
5
  0
BLOCK
  8
0
  5
3C
  2
SOLAXES
 70
     0
 10
0.0
 20
0.0
 30
0.0
  1
SOLAXES
  3
SOLAXES
  0
LINE
  8
0
 62
     0
  5
3D
 10
0.0
 20
0.0
 30
0.0
 11
2.970759
 21
0.0
 31
0.0
  0
LINE
  8
0
 62
     0
  5
3E
 10
0.0
 20
0.0
 30
0.0
 11
0.0
 21
2.970759
 31
0.0
  0
LINE
  8
0
 62
     0
  5
3F
 10
0.0
 20
0.0
 30
0.0
 11
0.0
 21
0.0
 31
2.970759
  0
CIRCLE
  8
0
 62
     0
  5
40
 10
0.0
 20
0.0
 30
2.673683
 40
0.148538
210
1.0
220
0.0
230
0.0
  0
LINE
  8
0
 62
     0
  5
41
 10
2.673683
 20
0.148538
 30
0.0
 11
2.970759
 21
0.0
 31
0.0
  0
LINE
  8
0
 62
     0
  5
42
 10
2.673683
 20
0.0
 30
0.148538
 11
2.970759
 21
0.0
 31
0.0
  0
LINE
  8
0
 62
     0
  5
43
 10
2.673683
 20
-0.148538
 30
0.0
 11
2.970759
 21
0.0
 31
0.0
  0
LINE
  8
0
 62
     0
  5
44
 10
2.673683
 20
0.0
 30
-0.148538
 11
2.970759
 21
0.0
 31
0.0
  0
CIRCLE
  8
0
 62
     0
  5
45
 10
0.0
 20
0.0
 30
2.673683
 40
0.148538
210
0.0
220
1.0
230
0.0
  0
LINE
  8
0
 62
     0
  5
46
 10
0.148538
 20
2.673683
 30
0.0
 11
0.0
 21
2.970759
 31
0.0
  0
LINE
  8
0
 62
     0
  5
47
 10
0.0
 20
2.673683
 30
0.148538
 11
0.0
 21
2.970759
 31
0.0
  0
LINE
  8
0
 62
     0
  5
48
 10
-0.148538
 20
2.673683
 30
0.0
 11
0.0
 21
2.970759
 31
0.0
  0
LINE
  8
0
 62
     0
  5
49
 10
0.0
 20
2.673683
 30
-0.148538
 11
0.0
 21
2.970759
 31
0.0
  0
CIRCLE
  8
0
 62
     0
  5
4A
 10
0.0
 20
0.0
 30
2.376607
 40
0.148538
210
0.0
220
1.0
230
0.0
  0
LINE
  8
0
 62
     0
  5
4B
 10
0.148538
 20
2.376607
 30
0.0
 11
0.0
 21
2.673683
 31
0.0
  0
LINE
  8
0
 62
     0
  5
4C
 10
0.0
 20
2.376607
 30
0.148538
 11
0.0
 21
2.673683
 31
0.0
  0
LINE
  8
0
 62
     0
  5
4D
 10
-0.148538
 20
2.376607
 30
0.0
 11
0.0
 21
2.673683
 31
0.0
  0
LINE
  8
0
 62
     0
  5
4E
 10
0.0
 20
2.376607
 30
-0.148538
 11
0.0
 21
2.673683
 31
0.0
  0
CIRCLE
  8
0
 62
     0
  5
4F
 10
0.0
 20
0.0
 30
2.673683
 40
0.148538
  0
LINE
  8
0
 62
     0
  5
50
 10
0.148538
 20
0.0
 30
2.673683
 11
0.0
 21
0.0
 31
2.970759
  0
LINE
  8
0
 62
     0
  5
51
 10
0.0
 20
0.148538
 30
2.673683
 11
0.0
 21
0.0
 31
2.970759
  0
LINE
  8
0
 62
     0
  5
52
 10
-0.148538
 20
0.0
 30
2.673683
 11
0.0
 21
0.0
 31
2.970759
  0
LINE
  8
0
 62
     0
  5
53
 10
0.0
 20
-0.148538
 30
2.673683
 11
0.0
 21
0.0
 31
2.970759
  0
CIRCLE
  8
0
 62
     0
  5
54
 10
0.0
 20
0.0
 30
2.376607
 40
0.148538
  0
LINE
  8
0
 62
     0
  5
55
 10
0.148538
 20
0.0
 30
2.376607
 11
0.0
 21
0.0
 31
2.673683
  0
LINE
  8
0
 62
     0
  5
56
 10
0.0
 20
0.148538
 30
2.376607
 11
0.0
 21
0.0
 31
2.673683
  0
LINE
  8
0
 62
     0
  5
57
 10
-0.148538
 20
0.0
 30
2.376607
 11
0.0
 21
0.0
 31
2.673683
  0
LINE
  8
0
 62
     0
  5
58
 10
0.0
 20
-0.148538
 30
2.376607
 11
0.0
 21
0.0
 31
2.673683
  0
CIRCLE
  8
0
 62
     0
  5
59
 10
0.0
 20
0.0
 30
2.079531
 40
0.148538
  0
LINE
  8
0
 62
     0
  5
5A
 10
0.148538
 20
0.0
 30
2.079531
 11
0.0
 21
0.0
 31
2.376607
  0
LINE
  8
0
 62
     0
  5
5B
 10
0.0
 20
0.148538
 30
2.079531
 11
0.0
 21
0.0
 31
2.376607
  0
LINE
  8
0
 62
     0
  5
5C
 10
-0.148538
 20
0.0
 30
2.079531
 11
0.0
 21
0.0
 31
2.376607
  0
LINE
  8
0
 62
     0
  5
5D
 10
0.0
 20
-0.148538
 30
2.079531
 11
0.0
 21
0.0
 31
2.376607
  0
ENDBLK
  8
0
  5
5E
  0
BLOCK
  8
0
  5
63
  2
*U7
 70
    65
 10
0.0
 20
0.0
 30
0.0
  1
*U
  3
*U
  0
LINE
  8
0
 62
     7
  5
64
 10
10.0
 20
3.0
 30
0.0
 11
10.0
 21
3.0
 31
14.0
1001
AME_SOL
1070
     1
1071
       43
  0
LINE
  8
0
 62
     7
  5
65
 10
10.0
 20
3.0
 30
14.0
 11
10.0
 21
0.0
 31
14.0
1001
AME_SOL
1070
     1
1071
       42
  0
LINE
  8
0
 62
     7
  5
66
 10
0.0
 20
3.0
 30
14.0
 11
10.0
 21
3.0
 31
14.0
1001
AME_SOL
1070
     1
1071
       41
  0
LINE
  8
0
 62
     7
  5
67
 10
0.0
 20
3.0
 30
0.0
 11
0.0
 21
3.0
 31
14.0
1001
AME_SOL
1070
     1
1071
       40
  0
LINE
  8
0
 62
     7
  5
68
 10
0.0
 20
3.0
 30
14.0
 11
0.0
 21
0.0
 31
14.0
1001
AME_SOL
1070
     1
1071
       39
  0
LINE
  8
0
 62
     7
  5
69
 10
0.0
 20
0.0
 30
0.0
 11
0.0
 21
0.0
 31
14.0
1001
AME_SOL
1070
     1
1071
       38
  0
LINE
  8
0
 62
     7
  5
6A
 10
10.0
 20
0.0
 30
14.0
 11
10.0
 21
0.0
 31
0.0
1001
AME_SOL
1070
     1
1071
       37
  0
LINE
  8
0
 62
     7
  5
6B
 10
0.0
 20
0.0
 30
14.0
 11
10.0
 21
0.0
 31
14.0
1001
AME_SOL
1070
     1
1071
       36
  0
LINE
  8
0
 62
     7
  5
6C
 10
0.0
 20
0.0
 30
0.0
 11
10.0
 21
0.0
 31
0.0
1001
AME_SOL
1070
     1
1071
       35
  0
LINE
  8
0
 62
     7
  5
6D
 10
0.0
 20
3.0
 30
0.0
 11
0.0
 21
0.0
 31
0.0
1001
AME_SOL
1070
     1
1071
       34
  0
LINE
  8
0
 62
     7
  5
6E
 10
10.0
 20
0.0
 30
0.0
 11
10.0
 21
3.0
 31
0.0
1001
AME_SOL
1070
     1
1071
       33
  0
LINE
  8
0
 62
     7
  5
6F
 10
10.0
 20
3.0
 30
0.0
 11
0.0
 21
3.0
 31
0.0
1001
AME_SOL
1070
     1
1071
       32
  0
LINE
  8
0
 62
     7
  5
70
 10
6.0
 20
3.0
 30
12.0
 11
8.0
 21
3.0
 31
12.0
1001
AME_SOL
1070
     1
1071
       31
  0
LINE
  8
0
 62
     7
  5
71
 10
2.0
 20
3.0
 30
12.0
 11
4.0
 21
3.0
 31
12.0
1001
AME_SOL
1070
     1
1071
       30
  0
LINE
  8
0
 62
     7
  5
72
 10
4.0
 20
3.0
 30
2.0
 11
2.0
 21
3.0
 31
2.0
1001
AME_SOL
1070
     1
1071
       29
  0
LINE
  8
0
 62
     7
  5
73
 10
8.0
 20
3.0
 30
2.0
 11
6.0
 21
3.0
 31
2.0
1001
AME_SOL
1070
     1
1071
       28
  0
ARC
  8
0
 62
     7
  5
74
 10
7.0
 20
3.0
 30
2.0
 40
1.0
 50
180.0
 51
0.0
1001
AME_SOL
1070
     1
1071
       27
  0
LINE
  8
0
 62
     7
  5
75
 10
8.0
 20
3.0
 30
2.0
 11
8.0
 21
3.0
 31
12.0
1001
AME_SOL
1070
     1
1071
       26
  0
LINE
  8
0
 62
     7
  5
76
 10
6.0
 20
3.0
 30
8.0
 11
6.0
 21
3.0
 31
12.0
1001
AME_SOL
1070
     1
1071
       25
  0
LINE
  8
0
 62
     7
  5
77
 10
6.0
 20
3.0
 30
2.0
 11
6.0
 21
3.0
 31
6.0
1001
AME_SOL
1070
     1
1071
       24
  0
ARC
  8
0
 62
     7
  5
78
 10
7.0
 20
3.0
 30
12.0
 40
1.0
 50
180.0
 51
0.0
1001
AME_SOL
1070
     1
1071
       23
  0
LINE
  8
0
 62
     7
  5
79
 10
4.0
 20
3.0
 30
8.0
 11
6.0
 21
3.0
 31
8.0
1001
AME_SOL
1070
     1
1071
       22
  0
LINE
  8
0
 62
     7
  5
7A
 10
4.0
 20
3.0
 30
6.0
 11
6.0
 21
3.0
 31
6.0
1001
AME_SOL
1070
     1
1071
       21
  0
POLYLINE
  8
0
 62
     7
  5
7B
 66
     1
 10
0.0
 20
0.0
 30
0.0
 70
     8
  0
VERTEX
  8
0
 62
     7
  5
7C
 10
6.0
 20
3.0
 30
8.0
 70
    32
  0
VERTEX
  8
0
 62
     7
  5
7D
 10
6.000558
 20
2.966585
 30
7.999442
 70
    32
  0
VERTEX
  8
0
 62
     7
  5
7E
 10
6.002233
 20
2.933207
 30
7.997767
 70
    32
  0
VERTEX
  8
0
 62
     7
  5
7F
 10
6.005022
 20
2.899904
 30
7.994978
 70
    32
  0
VERTEX
  8
0
 62
     7
  5
80
 10
6.008923
 20
2.866713
 30
7.991077
 70
    32
  0
VERTEX
  8
0
 62
     7
  5
81
 10
6.01393
 20
2.833671
 30
7.98607
 70
    32
  0
VERTEX
  8
0
 62
     7
  5
82
 10
6.020038
 20
2.800814
 30
7.979962
 70
    32
  0
VERTEX
  8
0
 62
     7
  5
83
 10
6.027241
 20
2.76818
 30
7.972759
 70
    32
  0
VERTEX
  8
0
 62
     7
  5
84
 10
6.035531
 20
2.735805
 30
7.964469
 70
    32
  0
VERTEX
  8
0
 62
     7
  5
85
 10
6.044898
 20
2.703724
 30
7.955102
 70
    32
  0
VERTEX
  8
0
 62
     7
  5
86
 10
6.055331
 20
2.671975
 30
7.944669
 70
    32
  0
VERTEX
  8
0
 62
     7
  5
87
 10
6.066819
 20
2.640592
 30
7.933181
 70
    32
  0
VERTEX
  8
0
 62
     7
  5
88
 10
6.07935
 20
2.609611
 30
7.92065
 70
    32
  0
VERTEX
  8
0
 62
     7
  5
89
 10
6.092909
 20
2.579065
 30
7.907091
 70
    32
  0
VERTEX
  8
0
 62
     7
  5
8A
 10
6.107481
 20
2.54899
 30
7.892519
 70
    32
  0
VERTEX
  8
0
 62
     7
  5
8B
 10
6.12305
 20
2.519418
 30
7.87695
 70
    32
  0
VERTEX
  8
0
 62
     7
  5
8C
 10
6.139598
 20
2.490383
 30
7.860402
 70
    32
  0
VERTEX
  8
0
 62
     7
  5
8D
 10
6.157108
 20
2.461918
 30
7.842892
 70
    32
  0
VERTEX
  8
0
 62
     7
  5
8E
 10
6.175558
 20
2.434053
 30
7.824442
 70
    32
  0
VERTEX
  8
0
 62
     7
  5
8F
 10
6.19493
 20
2.40682
 30
7.80507
 70
    32
  0
VERTEX
  8
0
 62
     7
  5
90
 10
6.215201
 20
2.38025
 30
7.784799
 70
    32
  0
VERTEX
  8
0
 62
     7
  5
91
 10
6.236348
 20
2.354372
 30
7.763652
 70
    32
  0
VERTEX
  8
0
 62
     7
  5
92
 10
6.258348
 20
2.329215
 30
7.741652
 70
    32
  0
VERTEX
  8
0
 62
     7
  5
93
 10
6.281176
 20
2.304808
 30
7.718824
 70
    32
  0
VERTEX
  8
0
 62
     7
  5
94
 10
6.304808
 20
2.281176
 30
7.695192
 70
    32
  0
VERTEX
  8
0
 62
     7
  5
95
 10
6.329215
 20
2.258348
 30
7.670785
 70
    32
  0
VERTEX
  8
0
 62
     7
  5
96
 10
6.354372
 20
2.236348
 30
7.645628
 70
    32
  0
VERTEX
  8
0
 62
     7
  5
97
 10
6.38025
 20
2.215201
 30
7.61975
 70
    32
  0
VERTEX
  8
0
 62
     7
  5
98
 10
6.40682
 20
2.19493
 30
7.59318
 70
    32
  0
VERTEX
  8
0
 62
     7
  5
99
 10
6.434053
 20
2.175558
 30
7.565947
 70
    32
  0
VERTEX
  8
0
 62
     7
  5
9A
 10
6.461918
 20
2.157108
 30
7.538082
 70
    32
  0
VERTEX
  8
0
 62
     7
  5
9B
 10
6.490383
 20
2.139598
 30
7.509617
 70
    32
  0
VERTEX
  8
0
 62
     7
  5
9C
 10
6.519418
 20
2.12305
 30
7.480582
 70
    32
  0
VERTEX
  8
0
 62
     7
  5
9D
 10
6.54899
 20
2.107481
 30
7.45101
 70
    32
  0
VERTEX
  8
0
 62
     7
  5
9E
 10
6.579065
 20
2.092909
 30
7.420935
 70
    32
  0
VERTEX
  8
0
 62
     7
  5
9F
 10
6.609611
 20
2.07935
 30
7.390389
 70
    32
  0
VERTEX
  8
0
 62
     7
  5
A0
 10
6.640592
 20
2.066819
 30
7.359408
 70
    32
  0
VERTEX
  8
0
 62
     7
  5
A1
 10
6.671975
 20
2.055331
 30
7.328025
 70
    32
  0
VERTEX
  8
0
 62
     7
  5
A2
 10
6.703724
 20
2.044898
 30
7.296276
 70
    32
  0
VERTEX
  8
0
 62
     7
  5
A3
 10
6.735805
 20
2.035531
 30
7.264195
 70
    32
  0
VERTEX
  8
0
 62
     7
  5
A4
 10
6.76818
 20
2.027241
 30
7.23182
 70
    32
  0
VERTEX
  8
0
 62
     7
  5
A5
 10
6.800814
 20
2.020038
 30
7.199186
 70
    32
  0
VERTEX
  8
0
 62
     7
  5
A6
 10
6.833671
 20
2.01393
 30
7.166329
 70
    32
  0
VERTEX
  8
0
 62
     7
  5
A7
 10
6.866713
 20
2.008923
 30
7.133287
 70
    32
  0
VERTEX
  8
0
 62
     7
  5
A8
 10
6.899904
 20
2.005022
 30
7.100096
 70
    32
  0
VERTEX
  8
0
 62
     7
  5
A9
 10
6.933207
 20
2.002233
 30
7.066793
 70
    32
  0
VERTEX
  8
0
 62
     7
  5
AA
 10
7.0
 20
2.0
 30
7.0
 70
    32
  0
SEQEND
  8
0
 62
     7
  5
AB
1001
AME_SOL
1070
     1
1071
       20
  0
POLYLINE
  8
0
 62
     7
  5
AC
 66
     1
 10
0.0
 20
0.0
 30
0.0
 70
     8
  0
VERTEX
  8
0
 62
     7
  5
AD
 10
6.0
 20
3.0
 30
6.0
 70
    32
  0
VERTEX
  8
0
 62
     7
  5
AE
 10
6.000558
 20
2.966585
 30
6.000558
 70
    32
  0
VERTEX
  8
0
 62
     7
  5
AF
 10
6.002233
 20
2.933207
 30
6.002233
 70
    32
  0
VERTEX
  8
0
 62
     7
  5
B0
 10
6.005022
 20
2.899904
 30
6.005022
 70
    32
  0
VERTEX
  8
0
 62
     7
  5
B1
 10
6.008923
 20
2.866713
 30
6.008923
 70
    32
  0
VERTEX
  8
0
 62
     7
  5
B2
 10
6.01393
 20
2.833671
 30
6.01393
 70
    32
  0
VERTEX
  8
0
 62
     7
  5
B3
 10
6.020038
 20
2.800814
 30
6.020038
 70
    32
  0
VERTEX
  8
0
 62
     7
  5
B4
 10
6.027241
 20
2.76818
 30
6.027241
 70
    32
  0
VERTEX
  8
0
 62
     7
  5
B5
 10
6.035531
 20
2.735805
 30
6.035531
 70
    32
  0
VERTEX
  8
0
 62
     7
  5
B6
 10
6.044898
 20
2.703724
 30
6.044898
 70
    32
  0
VERTEX
  8
0
 62
     7
  5
B7
 10
6.055331
 20
2.671975
 30
6.055331
 70
    32
  0
VERTEX
  8
0
 62
     7
  5
B8
 10
6.066819
 20
2.640592
 30
6.066819
 70
    32
  0
VERTEX
  8
0
 62
     7
  5
B9
 10
6.07935
 20
2.609611
 30
6.07935
 70
    32
  0
VERTEX
  8
0
 62
     7
  5
BA
 10
6.092909
 20
2.579065
 30
6.092909
 70
    32
  0
VERTEX
  8
0
 62
     7
  5
BB
 10
6.107481
 20
2.54899
 30
6.107481
 70
    32
  0
VERTEX
  8
0
 62
     7
  5
BC
 10
6.12305
 20
2.519418
 30
6.12305
 70
    32
  0
VERTEX
  8
0
 62
     7
  5
BD
 10
6.139598
 20
2.490383
 30
6.139598
 70
    32
  0
VERTEX
  8
0
 62
     7
  5
BE
 10
6.157108
 20
2.461918
 30
6.157108
 70
    32
  0
VERTEX
  8
0
 62
     7
  5
BF
 10
6.175558
 20
2.434053
 30
6.175558
 70
    32
  0
VERTEX
  8
0
 62
     7
  5
C0
 10
6.19493
 20
2.40682
 30
6.19493
 70
    32
  0
VERTEX
  8
0
 62
     7
  5
C1
 10
6.215201
 20
2.38025
 30
6.215201
 70
    32
  0
VERTEX
  8
0
 62
     7
  5
C2
 10
6.236348
 20
2.354372
 30
6.236348
 70
    32
  0
VERTEX
  8
0
 62
     7
  5
C3
 10
6.258348
 20
2.329215
 30
6.258348
 70
    32
  0
VERTEX
  8
0
 62
     7
  5
C4
 10
6.281176
 20
2.304808
 30
6.281176
 70
    32
  0
VERTEX
  8
0
 62
     7
  5
C5
 10
6.304808
 20
2.281176
 30
6.304808
 70
    32
  0
VERTEX
  8
0
 62
     7
  5
C6
 10
6.329215
 20
2.258348
 30
6.329215
 70
    32
  0
VERTEX
  8
0
 62
     7
  5
C7
 10
6.354372
 20
2.236348
 30
6.354372
 70
    32
  0
VERTEX
  8
0
 62
     7
  5
C8
 10
6.38025
 20
2.215201
 30
6.38025
 70
    32
  0
VERTEX
  8
0
 62
     7
  5
C9
 10
6.40682
 20
2.19493
 30
6.40682
 70
    32
  0
VERTEX
  8
0
 62
     7
  5
CA
 10
6.434053
 20
2.175558
 30
6.434053
 70
    32
  0
VERTEX
  8
0
 62
     7
  5
CB
 10
6.461918
 20
2.157108
 30
6.461918
 70
    32
  0
VERTEX
  8
0
 62
     7
  5
CC
 10
6.490383
 20
2.139598
 30
6.490383
 70
    32
  0
VERTEX
  8
0
 62
     7
  5
CD
 10
6.519418
 20
2.12305
 30
6.519418
 70
    32
  0
VERTEX
  8
0
 62
     7
  5
CE
 10
6.54899
 20
2.107481
 30
6.54899
 70
    32
  0
VERTEX
  8
0
 62
     7
  5
CF
 10
6.579065
 20
2.092909
 30
6.579065
 70
    32
  0
VERTEX
  8
0
 62
     7
  5
D0
 10
6.609611
 20
2.07935
 30
6.609611
 70
    32
  0
VERTEX
  8
0
 62
     7
  5
D1
 10
6.640592
 20
2.066819
 30
6.640592
 70
    32
  0
VERTEX
  8
0
 62
     7
  5
D2
 10
6.671975
 20
2.055331
 30
6.671975
 70
    32
  0
VERTEX
  8
0
 62
     7
  5
D3
 10
6.703724
 20
2.044898
 30
6.703724
 70
    32
  0
VERTEX
  8
0
 62
     7
  5
D4
 10
6.735805
 20
2.035531
 30
6.735805
 70
    32
  0
VERTEX
  8
0
 62
     7
  5
D5
 10
6.76818
 20
2.027241
 30
6.76818
 70
    32
  0
VERTEX
  8
0
 62
     7
  5
D6
 10
6.800814
 20
2.020038
 30
6.800814
 70
    32
  0
VERTEX
  8
0
 62
     7
  5
D7
 10
6.833671
 20
2.01393
 30
6.833671
 70
    32
  0
VERTEX
  8
0
 62
     7
  5
D8
 10
6.866713
 20
2.008923
 30
6.866713
 70
    32
  0
VERTEX
  8
0
 62
     7
  5
D9
 10
6.899904
 20
2.005022
 30
6.899904
 70
    32
  0
VERTEX
  8
0
 62
     7
  5
DA
 10
6.933207
 20
2.002233
 30
6.933207
 70
    32
  0
VERTEX
  8
0
 62
     7
  5
DB
 10
7.0
 20
2.0
 30
7.0
 70
    32
  0
SEQEND
  8
0
 62
     7
  5
DC
1001
AME_SOL
1070
     1
1071
       19
  0
ARC
  8
0
 62
     7
  5
DD
 10
3.0
 20
3.0
 30
2.0
 40
1.0
 50
180.0
 51
0.0
1001
AME_SOL
1070
     1
1071
       18
  0
LINE
  8
0
 62
     7
  5
DE
 10
4.0
 20
3.0
 30
8.0
 11
4.0
 21
3.0
 31
12.0
1001
AME_SOL
1070
     1
1071
       17
  0
LINE
  8
0
 62
     7
  5
DF
 10
4.0
 20
3.0
 30
2.0
 11
4.0
 21
3.0
 31
6.0
1001
AME_SOL
1070
     1
1071
       16
  0
LINE
  8
0
 62
     7
  5
E0
 10
2.0
 20
3.0
 30
2.0
 11
2.0
 21
3.0
 31
12.0
1001
AME_SOL
1070
     1
1071
       15
  0
POLYLINE
  8
0
 62
     7
  5
E1
 66
     1
 10
0.0
 20
0.0
 30
0.0
 70
     8
  0
VERTEX
  8
0
 62
     7
  5
E2
 10
4.0
 20
3.0
 30
8.0
 70
    32
  0
VERTEX
  8
0
 62
     7
  5
E3
 10
3.999442
 20
2.966585
 30
7.999442
 70
    32
  0
VERTEX
  8
0
 62
     7
  5
E4
 10
3.997767
 20
2.933207
 30
7.997767
 70
    32
  0
VERTEX
  8
0
 62
     7
  5
E5
 10
3.994978
 20
2.899904
 30
7.994978
 70
    32
  0
VERTEX
  8
0
 62
     7
  5
E6
 10
3.991077
 20
2.866713
 30
7.991077
 70
    32
  0
VERTEX
  8
0
 62
     7
  5
E7
 10
3.98607
 20
2.833671
 30
7.98607
 70
    32
  0
VERTEX
  8
0
 62
     7
  5
E8
 10
3.979962
 20
2.800814
 30
7.979962
 70
    32
  0
VERTEX
  8
0
 62
     7
  5
E9
 10
3.972759
 20
2.76818
 30
7.972759
 70
    32
  0
VERTEX
  8
0
 62
     7
  5
EA
 10
3.964469
 20
2.735805
 30
7.964469
 70
    32
  0
VERTEX
  8
0
 62
     7
  5
EB
 10
3.955102
 20
2.703724
 30
7.955102
 70
    32
  0
VERTEX
  8
0
 62
     7
  5
EC
 10
3.944669
 20
2.671975
 30
7.944669
 70
    32
  0
VERTEX
  8
0
 62
     7
  5
ED
 10
3.933181
 20
2.640592
 30
7.933181
 70
    32
  0
VERTEX
  8
0
 62
     7
  5
EE
 10
3.92065
 20
2.609611
 30
7.92065
 70
    32
  0
VERTEX
  8
0
 62
     7
  5
EF
 10
3.907091
 20
2.579065
 30
7.907091
 70
    32
  0
VERTEX
  8
0
 62
     7
  5
F0
 10
3.892519
 20
2.54899
 30
7.892519
 70
    32
  0
VERTEX
  8
0
 62
     7
  5
F1
 10
3.87695
 20
2.519418
 30
7.87695
 70
    32
  0
VERTEX
  8
0
 62
     7
  5
F2
 10
3.860402
 20
2.490383
 30
7.860402
 70
    32
  0
VERTEX
  8
0
 62
     7
  5
F3
 10
3.842892
 20
2.461918
 30
7.842892
 70
    32
  0
VERTEX
  8
0
 62
     7
  5
F4
 10
3.824442
 20
2.434053
 30
7.824442
 70
    32
  0
VERTEX
  8
0
 62
     7
  5
F5
 10
3.80507
 20
2.40682
 30
7.80507
 70
    32
  0
VERTEX
  8
0
 62
     7
  5
F6
 10
3.784799
 20
2.38025
 30
7.784799
 70
    32
  0
VERTEX
  8
0
 62
     7
  5
F7
 10
3.763652
 20
2.354372
 30
7.763652
 70
    32
  0
VERTEX
  8
0
 62
     7
  5
F8
 10
3.741652
 20
2.329215
 30
7.741652
 70
    32
  0
VERTEX
  8
0
 62
     7
  5
F9
 10
3.718824
 20
2.304808
 30
7.718824
 70
    32
  0
VERTEX
  8
0
 62
     7
  5
FA
 10
3.695192
 20
2.281176
 30
7.695192
 70
    32
  0
VERTEX
  8
0
 62
     7
  5
FB
 10
3.670785
 20
2.258348
 30
7.670785
 70
    32
  0
VERTEX
  8
0
 62
     7
  5
FC
 10
3.645628
 20
2.236348
 30
7.645628
 70
    32
  0
VERTEX
  8
0
 62
     7
  5
FD
 10
3.61975
 20
2.215201
 30
7.61975
 70
    32
  0
VERTEX
  8
0
 62
     7
  5
FE
 10
3.59318
 20
2.19493
 30
7.59318
 70
    32
  0
VERTEX
  8
0
 62
     7
  5
FF
 10
3.565947
 20
2.175558
 30
7.565947
 70
    32
  0
VERTEX
  8
0
 62
     7
  5
100
 10
3.538082
 20
2.157108
 30
7.538082
 70
    32
  0
VERTEX
  8
0
 62
     7
  5
101
 10
3.509617
 20
2.139598
 30
7.509617
 70
    32
  0
VERTEX
  8
0
 62
     7
  5
102
 10
3.480582
 20
2.12305
 30
7.480582
 70
    32
  0
VERTEX
  8
0
 62
     7
  5
103
 10
3.45101
 20
2.107481
 30
7.45101
 70
    32
  0
VERTEX
  8
0
 62
     7
  5
104
 10
3.420935
 20
2.092909
 30
7.420935
 70
    32
  0
VERTEX
  8
0
 62
     7
  5
105
 10
3.390389
 20
2.07935
 30
7.390389
 70
    32
  0
VERTEX
  8
0
 62
     7
  5
106
 10
3.359408
 20
2.066819
 30
7.359408
 70
    32
  0
VERTEX
  8
0
 62
     7
  5
107
 10
3.328025
 20
2.055331
 30
7.328025
 70
    32
  0
VERTEX
  8
0
 62
     7
  5
108
 10
3.296276
 20
2.044898
 30
7.296276
 70
    32
  0
VERTEX
  8
0
 62
     7
  5
109
 10
3.264195
 20
2.035531
 30
7.264195
 70
    32
  0
VERTEX
  8
0
 62
     7
  5
10A
 10
3.23182
 20
2.027241
 30
7.23182
 70
    32
  0
VERTEX
  8
0
 62
     7
  5
10B
 10
3.199186
 20
2.020038
 30
7.199186
 70
    32
  0
VERTEX
  8
0
 62
     7
  5
10C
 10
3.166329
 20
2.01393
 30
7.166329
 70
    32
  0
VERTEX
  8
0
 62
     7
  5
10D
 10
3.133287
 20
2.008923
 30
7.133287
 70
    32
  0
VERTEX
  8
0
 62
     7
  5
10E
 10
3.100096
 20
2.005022
 30
7.100096
 70
    32
  0
VERTEX
  8
0
 62
     7
  5
10F
 10
3.066793
 20
2.002233
 30
7.066793
 70
    32
  0
VERTEX
  8
0
 62
     7
  5
110
 10
3.0
 20
2.0
 30
7.0
 70
    32
  0
SEQEND
  8
0
 62
     7
  5
111
1001
AME_SOL
1070
     1
1071
       14
  0
POLYLINE
  8
0
 62
     7
  5
112
 66
     1
 10
0.0
 20
0.0
 30
0.0
 70
     8
  0
VERTEX
  8
0
 62
     7
  5
113
 10
3.0
 20
2.0
 30
7.0
 70
    32
  0
VERTEX
  8
0
 62
     7
  5
114
 10
3.033415
 20
2.000558
 30
6.966585
 70
    32
  0
VERTEX
  8
0
 62
     7
  5
115
 10
3.066793
 20
2.002233
 30
6.933207
 70
    32
  0
VERTEX
  8
0
 62
     7
  5
116
 10
3.100096
 20
2.005022
 30
6.899904
 70
    32
  0
VERTEX
  8
0
 62
     7
  5
117
 10
3.133287
 20
2.008923
 30
6.866713
 70
    32
  0
VERTEX
  8
0
 62
     7
  5
118
 10
3.166329
 20
2.01393
 30
6.833671
 70
    32
  0
VERTEX
  8
0
 62
     7
  5
119
 10
3.199186
 20
2.020038
 30
6.800814
 70
    32
  0
VERTEX
  8
0
 62
     7
  5
11A
 10
3.23182
 20
2.027241
 30
6.76818
 70
    32
  0
VERTEX
  8
0
 62
     7
  5
11B
 10
3.264195
 20
2.035531
 30
6.735805
 70
    32
  0
VERTEX
  8
0
 62
     7
  5
11C
 10
3.296276
 20
2.044898
 30
6.703724
 70
    32
  0
VERTEX
  8
0
 62
     7
  5
11D
 10
3.328025
 20
2.055331
 30
6.671975
 70
    32
  0
VERTEX
  8
0
 62
     7
  5
11E
 10
3.359408
 20
2.066819
 30
6.640592
 70
    32
  0
VERTEX
  8
0
 62
     7
  5
11F
 10
3.390389
 20
2.07935
 30
6.609611
 70
    32
  0
VERTEX
  8
0
 62
     7
  5
120
 10
3.420935
 20
2.092909
 30
6.579065
 70
    32
  0
VERTEX
  8
0
 62
     7
  5
121
 10
3.45101
 20
2.107481
 30
6.54899
 70
    32
  0
VERTEX
  8
0
 62
     7
  5
122
 10
3.480582
 20
2.12305
 30
6.519418
 70
    32
  0
VERTEX
  8
0
 62
     7
  5
123
 10
3.509617
 20
2.139598
 30
6.490383
 70
    32
  0
VERTEX
  8
0
 62
     7
  5
124
 10
3.538082
 20
2.157108
 30
6.461918
 70
    32
  0
VERTEX
  8
0
 62
     7
  5
125
 10
3.565947
 20
2.175558
 30
6.434053
 70
    32
  0
VERTEX
  8
0
 62
     7
  5
126
 10
3.59318
 20
2.19493
 30
6.40682
 70
    32
  0
VERTEX
  8
0
 62
     7
  5
127
 10
3.61975
 20
2.215201
 30
6.38025
 70
    32
  0
VERTEX
  8
0
 62
     7
  5
128
 10
3.645628
 20
2.236348
 30
6.354372
 70
    32
  0
VERTEX
  8
0
 62
     7
  5
129
 10
3.670785
 20
2.258348
 30
6.329215
 70
    32
  0
VERTEX
  8
0
 62
     7
  5
12A
 10
3.695192
 20
2.281176
 30
6.304808
 70
    32
  0
VERTEX
  8
0
 62
     7
  5
12B
 10
3.718824
 20
2.304808
 30
6.281176
 70
    32
  0
VERTEX
  8
0
 62
     7
  5
12C
 10
3.741652
 20
2.329215
 30
6.258348
 70
    32
  0
VERTEX
  8
0
 62
     7
  5
12D
 10
3.763652
 20
2.354372
 30
6.236348
 70
    32
  0
VERTEX
  8
0
 62
     7
  5
12E
 10
3.784799
 20
2.38025
 30
6.215201
 70
    32
  0
VERTEX
  8
0
 62
     7
  5
12F
 10
3.80507
 20
2.40682
 30
6.19493
 70
    32
  0
VERTEX
  8
0
 62
     7
  5
130
 10
3.824442
 20
2.434053
 30
6.175558
 70
    32
  0
VERTEX
  8
0
 62
     7
  5
131
 10
3.842892
 20
2.461918
 30
6.157108
 70
    32
  0
VERTEX
  8
0
 62
     7
  5
132
 10
3.860402
 20
2.490383
 30
6.139598
 70
    32
  0
VERTEX
  8
0
 62
     7
  5
133
 10
3.87695
 20
2.519418
 30
6.12305
 70
    32
  0
VERTEX
  8
0
 62
     7
  5
134
 10
3.892519
 20
2.54899
 30
6.107481
 70
    32
  0
VERTEX
  8
0
 62
     7
  5
135
 10
3.907091
 20
2.579065
 30
6.092909
 70
    32
  0
VERTEX
  8
0
 62
     7
  5
136
 10
3.92065
 20
2.609611
 30
6.07935
 70
    32
  0
VERTEX
  8
0
 62
     7
  5
137
 10
3.933181
 20
2.640592
 30
6.066819
 70
    32
  0
VERTEX
  8
0
 62
     7
  5
138
 10
3.944669
 20
2.671975
 30
6.055331
 70
    32
  0
VERTEX
  8
0
 62
     7
  5
139
 10
3.955102
 20
2.703724
 30
6.044898
 70
    32
  0
VERTEX
  8
0
 62
     7
  5
13A
 10
3.964469
 20
2.735805
 30
6.035531
 70
    32
  0
VERTEX
  8
0
 62
     7
  5
13B
 10
3.972759
 20
2.76818
 30
6.027241
 70
    32
  0
VERTEX
  8
0
 62
     7
  5
13C
 10
3.979962
 20
2.800814
 30
6.020038
 70
    32
  0
VERTEX
  8
0
 62
     7
  5
13D
 10
3.98607
 20
2.833671
 30
6.01393
 70
    32
  0
VERTEX
  8
0
 62
     7
  5
13E
 10
3.991077
 20
2.866713
 30
6.008923
 70
    32
  0
VERTEX
  8
0
 62
     7
  5
13F
 10
3.994978
 20
2.899904
 30
6.005022
 70
    32
  0
VERTEX
  8
0
 62
     7
  5
140
 10
3.997767
 20
2.933207
 30
6.002233
 70
    32
  0
VERTEX
  8
0
 62
     7
  5
141
 10
3.999442
 20
2.966585
 30
6.000558
 70
    32
  0
VERTEX
  8
0
 62
     7
  5
142
 10
4.0
 20
3.0
 30
6.0
 70
    32
  0
SEQEND
  8
0
 62
     7
  5
143
1001
AME_SOL
1070
     1
1071
       13
  0
ARC
  8
0
 62
     7
  5
144
 10
3.0
 20
3.0
 30
12.0
 40
1.0
 50
180.0
 51
0.0
1001
AME_SOL
1070
     1
1071
       12
  0
LINE
  8
0
 62
     7
  5
145
 10
6.0
 20
3.0
 30
8.0
 11
6.0
 21
3.0
 31
12.0
1001
AME_SOL
1070
     0
1071
        3
  0
LINE
  8
0
 62
     7
  5
146
 10
6.0
 20
3.0
 30
2.0
 11
6.0
 21
3.0
 31
6.0
1001
AME_SOL
1070
     0
1071
        3
  0
LINE
  8
0
 62
     7
  5
147
 10
7.0
 20
2.0
 30
2.0
 11
7.0
 21
2.0
 31
12.0
1001
AME_SOL
1070
     0
1071
        3
  0
LINE
  8
0
 62
     7
  5
148
 10
8.0
 20
3.0
 30
2.0
 11
8.0
 21
3.0
 31
12.0
1001
AME_SOL
1070
     0
1071
        3
  0
LINE
  8
0
 62
     7
  5
149
 10
4.0
 20
3.0
 30
8.0
 11
6.0
 21
3.0
 31
8.0
1001
AME_SOL
1070
     0
1071
        2
  0
LINE
  8
0
 62
     7
  5
14A
 10
3.0
 20
2.0
 30
7.0
 11
7.0
 21
2.0
 31
7.0
1001
AME_SOL
1070
     0
1071
        2
  0
LINE
  8
0
 62
     7
  5
14B
 10
4.0
 20
3.0
 30
6.0
 11
6.0
 21
3.0
 31
6.0
1001
AME_SOL
1070
     0
1071
        2
  0
LINE
  8
0
 62
     7
  5
14C
 10
2.0
 20
3.0
 30
2.0
 11
2.0
 21
3.0
 31
12.0
1001
AME_SOL
1070
     0
1071
        1
  0
LINE
  8
0
 62
     7
  5
14D
 10
3.0
 20
2.0
 30
2.0
 11
3.0
 21
2.0
 31
12.0
1001
AME_SOL
1070
     0
1071
        1
  0
LINE
  8
0
 62
     7
  5
14E
 10
4.0
 20
3.0
 30
8.0
 11
4.0
 21
3.0
 31
12.0
1001
AME_SOL
1070
     0
1071
        1
  0
LINE
  8
0
 62
     7
  5
14F
 10
4.0
 20
3.0
 30
2.0
 11
4.0
 21
3.0
 31
6.0
1001
AME_SOL
1070
     0
1071
        1
  0
ENDBLK
  8
0
  5
150
  0
BLOCK
  8
0
  5
154
  2
AME_JNK
 70
     0
 10
0.0
 20
0.0
 30
0.0
  1
AME_JNK
  3
AME_JNK
  0
ENDBLK
  8
0
  5
155
  0
ENDSEC
  0
SECTION
  2
ENTITIES
  0
INSERT
  8
AME_FRZ
  5
3
  2
AME_NIL
 10
0.0
 20
0.0
 30
0.0
  0
INSERT
  8
AME_FRZ
  5
6
  2
AME_SOL
 10
0.0
 20
0.0
 30
0.0
1001
AME_SOL
1000
R2.1
1000
AME2
1000
sq cm
1070
     3
1070
     0
1070
     3
1000
wire
1040
45.0
1000
U
1040
1.0
1000
cm
1000
gm
1000
MILD_STEEL
1070
    25
1000
CSG
1070
     1
1070
     3
1070
     3
1070
     3
1070
     0
1000
cu cm
1070
     1
1070
     0
1005
3
  0
INSERT
  8
AME_FRZ
  5
15
  2
AME_NIL
 10
0.0
 20
0.0
 30
0.0
1001
AME_SOL
1002
{
1070
     1
1071
  2486256
1070
  1536
1070
     1
1010
10.0
1020
3.0
1030
14.0
1005
0
1005
0
1005
151
1040
0.0
1040
1.0
1070
     0
1000
MILD_STEEL
1000
0
1010
0.0
1020
0.0
1030
0.0
1010
0.0
1020
0.0
1030
1.0
1040
0.0
1002
}
1001
AVE_INVOKE
1000
SOLAVEMESH
  0
INSERT
  8
AME_FRZ
  5
21
  2
AME_NIL
 10
3.0
 20
3.0
 30
2.0
1001
AME_SOL
1002
{
1070
     1
1071
  2400592
1070
  1538
1070
     1
1010
1.0
1020
1.0
1030
10.0
1005
0
1005
0
1005
61
1040
0.0
1040
1.0
1070
     0
1000
MILD_STEEL
1000
0
1010
3.0
1020
3.0
1030
2.0
1010
0.0
1020
0.0
1030
1.0
1040
0.0
1002
}
1001
AVE_INVOKE
1000
SOLAVEMESH
  0
INSERT
  8
AME_FRZ
  5
2D
  2
AME_NIL
 10
7.0
 20
3.0
 30
2.0
1001
AME_SOL
1002
{
1070
     1
1071
  2397704
1070
  1538
1070
     1
1010
1.0
1020
1.0
1030
10.0
1005
0
1005
0
1005
60
1040
0.0
1040
1.0
1070
     0
1000
MILD_STEEL
1000
0
1010
7.0
1020
3.0
1030
2.0
1010
0.0
1020
0.0
1030
1.0
1040
0.0
1002
}
1001
AVE_INVOKE
1000
SOLAVEMESH
  0
INSERT
  8
AME_FRZ
  5
39
  2
AME_NIL
 10
3.0
 20
7.0
 30
3.0
 50
270.0
210
1.0
220
0.0
230
0.0000000000000001
1001
AME_SOL
1002
{
1070
     1
1071
  2407296
1070
  1538
1070
     1
1010
1.0
1020
1.0
1030
4.0
1005
0
1005
0
1005
60
1040
0.0
1040
1.0
1070
     0
1000
MILD_STEEL
1000
0
1010
3.0
1020
7.0
1030
3.0
1010
1.0
1020
0.0
1030
0.0
1040
4.712389
1002
}
  0
INSERT
  8
AME_FRZ
  5
60
  2
AME_NIL
 10
0.0
 20
0.0
 30
0.0
1001
AME_SOL
1002
{
1070
     1
1071
  2421456
1070
   775
1070
     0
1070
     2
1005
2D
1005
39
1005
0
1005
0
1005
61
1040
0.0
1040
1.0
1070
     0
1000
MILD_STEEL
1000
0
1010
0.0
1020
0.0
1030
0.0
1010
0.0
1020
0.0
1030
1.0
1040
0.0
1002
}
  0
INSERT
  8
AME_FRZ
  5
61
  2
AME_NIL
 10
0.0
 20
0.0
 30
0.0
1001
AME_SOL
1002
{
1070
     1
1071
  2423896
1070
   775
1070
     0
1070
     2
1005
60
1005
21
1005
0
1005
0
1005
151
1040
0.0
1040
1.0
1070
     0
1000
MILD_STEEL
1000
0
1010
0.0
1020
0.0
1030
0.0
1010
0.0
1020
0.0
1030
1.0
1040
0.0
1002
}
  0
INSERT
  8
0
  5
151
  2
*U7
 10
0.0
 20
0.0
 30
0.0
1001
AME_SOL
1002
{
1070
     1
1071
  2426328
1070
  1543
1070
     1
1070
     0
1005
15
1005
61
1005
0
1005
152
1005
0
1040
0.0
1040
1.0
1070
     0
1000
MILD_STEEL
1000
0
1002
}
1001
AVE_INVOKE
1000
SOLAVEMESH
  0
INSERT
  8
AME_FRZ
  5
152
  2
AME_NIL
 10
1.0
 20
1.0
 30
1.0
1001
AME_SOL
1004
C7CF01002F01970196019401900189017C016901EF0010006A0151014600A40052013801030017003901280176001E01300010019F003D0029011F011101EC004B0012014C00AB00200113015200B500140181007F007D016B015301BE003A012A01210115016400010106000B0016010201000112000301
1004
13009A002201170104019C001500050116009D001801060119002E0007012F0038002B012301190108014500470009014800A9001A010A014A004F000B01510055003A009100BF008A017E016C01750054018800FB006D01C00055014E003B01090027007F016E0156013C012C002C013B003E0020005701
1004
3D012D01E00024011B010C0159005A000D015B0068001A001B00B900250091018B0180016F015801CF003E01F70039001100700159013F013C00790018005A014001BC002E019000370041012F01A600D300300125012200A5002601D1001C010E01C200C100BD00810171015B012A0062005C017200CE00
1004
08008C01820172015D01850042015F00D400CC00730195008000830174015E0143014400FC0044016700DC005F014501AA003101F2004100FD0075016001460154006A0047012D00EA00A800950192018D018401760161014801320150006000BA00490105004D002400F00085010200770162014A017300
1004
1C004B013300330178007400630128004C0107008400FF0093018E01860101007801FE0064014D012100F800040087013F00790165012B00EE00DF008F0188017A016601CA00660067014E01D800340114000F0096007B0168014F0135019900A20036013500D70050013701DD0027011D010F0170000A00
1004
0E00F90098002300400000003D830F60C09989B138AAAE0F842091D8EC3B32C9B9A0A1B0ECCB26E68286C3B32C9B9A0A19171500E05A17BB32C9B9A2205E05C5403816307B1C4CEA4F53040CE6CF8DAB4982067367C6D5A4DC819CD9F1B569D9964DCD1102F766593734440BC8B8A80702D39EC4F62C4AE9
1004
8F55D884B98CF62DFE8B5FFFFFFFA2D7FFE5BFF2DFFDE82FE8B5FA2D7FFFFF9EC5BFD16BFFFFFFF45AFFFCB7FE5BFFBD05FD16BF45AFFFFFD10D067BF7311FE8B5FFFFFFFA2D7FB35555553CFFC0BFFBD295A13E50545260DCAD09F282A29303131FD067B63B988FF45AFFFFFFFD16BFFF02FFCB7FF7A52B
1004
427CA0A8A4C1B95A13E5054526062FF0672B427CA0A8A4C1BFF14715555572DEC7C95EAAAAAA2F795A13E505452606267FFC57FA5084B084BFF38AAAAAB96F4A4F992A8425B1F257FE85E949F3255084BFD0BD5555545EF4A1096109697FF38AAAAAB96F63E4AFFD0BD067B4BB988FF45AFFFFFFFD16BFD9
1004
AAAAAA9E7AAAAAAAB5FDE94AD09F282A29306E5684F9415149818BD2FFC57FFE85EAAAAAA2F7A5CAD09F282A29306FFC52AAAAA8BDE5684F941514981898FFFFA17A527CC9549F325563FFFE85E833D833B988FF45AFFFFFFFD16BFD5555555A72FE5BFFBD295A13E50545260DCAD09F282A2930317FA5CA
1004
D09F282A29306FFC52AAAAA8BDE5684F9415149818819FF8AFF4A10961097FFFA17A5084B27CC957F42F55555517BD284258425B1FFFF42F133A8245409C92798CE69E7A60819CD9F1B569D44D3032796D06BC9E1964DCD114CBDD9964DCD1102F22E2A01C0B197B13D8B391C83D576242633D8B7F270292
1004
3E493A133F443E809369A4190FF45AF924E84CFCB7FE5BFF4CBD05FD16BF45AFFFFFF3D8B7F2702923E493A133F443E809369A4190FF45AF924E84CFCB7FE5BFF4CBD05FD16BF45AFFFFFD10D067BF7311FC9C0A48F924E84CFD10FA024DA690643FD16BE493A133F2DFF817833E997A52B427CA0A8A4C1B
1004
95A13E505452606263FA0CF6C77311FC9C0A48F924E84CFD10FA024DA690643FD16BE493A133F2DFF96FFC95E94AD09F282A29306E5684F9415149818BFD9F95A13E50545260DFF2C531F44363E8B5F96FFDCA7AAAAAA8D5E5684F9415149818819FF2C531F4434A10961096C7D16BF2DE945CC954212FF7
1004
29EAAAAAA357A5084B084B63B1F45AFCB7A0CF6977311FC9C0A48F924E84CFD10FA024DA690643FD16BE493A133F2DEAAAAAAAD33FD32F4A5684F94151498372B427CA0A8A4C0C5E97FCB15FEAAAAAAE5BD5555546AF4B95A13E50545260DFF2C52AAAAA8D5E5684F941514981898FFEAAAAAAE5BD28B992
1004
A8B992AB1FFD555555CB7A0CF60CEE623F9381491F249D099FA21F4049B4D20C87FA2D7C9274267E5BC0FCB7FE32F4A5684F94151498372B427CA0A8A4C0C5FECFCAD09F282A29306FF96298FA21B1F45AFCB7FEE53D5555546AF2B427CA0A8A4C0C40CFF96298FA21A5084B084B63E8B5F96F4A10962E64
1004
ABFB94F5555551ABD284258425B1D8FA2D7E5BC4CEA4F5D44D3032796D06BD3040CE6CF8DAB49B90339B3E36AD1171500E058CBDD9964DCD1102F22E2A01C0B4E7B13D8B335D11EABB11A5259EC5BFD16BFFFFFFF45AFFFD32FFCB7FF7A0BFA2D7E8B5FFFFFE7B16FF45AFFFFFFFD16BFFF4CBFF2DFFDE82
1004
FE8B5FA2D7FFFFE886833DFB988FF45AFFFFFFFD16BFCE2AAAAA357FE05FFDE94AD09F282A29306E5684F941514981898FE833DB1DCC47FA2D7FFFFFFE8B5FFF8CBFF2DFFDE94AD09F282A29306E5684F9415149818BFD2E5684F9415149837FE295555545EF2B427CA0A8A4C0C40CFFC57FA5084B084BFF
1004
FD0BD293D3B55084BFD0BD5555545EF4A10961096C7FFFD0BD067B4BB988FF45AFFFFFFFD16BFCE2AAAAA357AAAAAAAB5FDE94AD09F282A29306E5684F9415149818BD2FFC57FFE85EAAAAAA2F7A5CAD09F282A29306FFC52AAAAA8BDE5684F941514981898FFFFA17A527A76AA4F4ED558FFFFA17A0CF60
1004
CEE623FD16BFFFFFFF45AFFFC95EE5FCB7FF7A52B427CA0A8A4C1B95A13E5054526062FF0672B427CA0A8A4C1BFF14715555572DEC7C95EAAAAAA2F795A13E505452606267FFC57FA5084B084BFF38AAAAAB96F4A10964F4ED558F92BFF42F4A10964F4ED57F42F55555517BD284258425A5FFCE2AAAAAE5
1004
BD8F92BFF42F133A99E982067367C6D5A4C10339B3E36AD26E40CE6CF8DAB4ECCB26E688817BB32C9B9A2205E08EB3B0DB1DDEC53E2C9B10C7AAE9425AC69F16FF45AFFFFFE6FF443FE6FF2DFF96FFEF417FFFFFFFFFC692969F16FF45AFFFFFE6FF443FE6FF4CBFF2DFFDE82FFFFFFFFFFA7C5BFD16BFFF
1004
FF9BFD10FF9BFD32FFCB7FF7A0BFFFFFFFFFA21899D4CF4C10339B3E36AD260819CD9F1B56803A102E91085EF766593734440BDD9964DCD1102F22E2A01C0B4E7B14F8B134138F55D29E98D3E2DFE8B5FFFFFFFA2D7FFE5BFF2DFFA73D05FFFFFFFFFF1A425A7C5BFD16BFFFFFFF45AFFFD32FFCB7FE9CF4
1004
17FFFFFFFFFD3E2DFE8B5FFFFFFFA2D7FFE997FE5BFF4E7A0BFFFFFFFFFA21899D4CF61D9964DCD050D876659373414361D9964DCD050C8B8A80702D0BC11D6761B63B2DEC3B32C9B9A0AD314F8B1F1887B1D893F12D3E2DFFFE8B5FFFA2D7FFFFFFFFFA0BFFFFFFFFFE9F16FFFF45AFFFD16BFFFFFFFFFD
1004
05FFFFFFFFFD1684CEA67B0ECCB26E68286C3B32C9B9A0A1B0ECCB26E6828645C540381685EC3B32C9B9A0AD0171500E058C1EC53E2C341207B1D893F52D3E2DFE8B5FFFFFFFFFA2D7FFFFFA0BFFFFFFFFFE9F16FF45AFFFFFFFFFD16BFFFFFD05FFFFFFFFFD1684CEA67B0ECCB26E68286C3B32C9B9A0A1
1004
B0ECCB26E68286C3B32C9B9A0AD023ACEC36C765BC0B8A80702C60F629F162518C7B1D88A4B4F8B7FFFFFA2D7FFE8B5FFFFFFFE82FFFFFFFFFFA7C5BFFFFFD16BFFF45AFFFFFFFF417FFFFFFFFF45A133A99EC3B32C9B9A0A1B0ECCB26E68286DAE840BA4426C79171500E05A17823ACEC36C765BC0B8A80
1004
702C60F629F16401A1EC7621A5A7C5BFD10FF9BFE6FF9BFD10FF9BFD0BFF2DEAAAAAAD8F417FFFFFFFFFD3E2DFE887FCDFF37FCDFE887FCDFE85FF96F5555556C7A0BFFFFFFFFFA2D099D406C3B32C9B9A0A1A04E493CC6734F3D876659373414322E2A01C0B42F04759D86D8ECB78171500E058C1EC53E2
1004
C24F1EC76210969F16FF9BFE6FF443FD10FF9BFE6FF42FFCB7AAAAAAB63D05FFFFFFFFFF4F8B7FCDFF37FA21FE887FCDFF37FA17FE5BD555555B1E82FFFFFFFFFE8B4267533DB5D08174884EDEC3B32C9B9A0A1B0ECCB26E6828645C540381685E08EB3B0DB1D96F02E2A01C0B183D8A7C5851D63D8EC49F
1004
D2D3E2DFF37FA21FF37FCDFF37FA21FE85FF96F5555556C7A0BFFFFFFFFFE9F16FF9BFD10FF9BFE6FF9BFD10FF42FFCB7AAAAAAB63D05FFFFFFFFFD16815B53040CE6CF8DAB4982067367C6D5A00E840BA44217BDD9964DCD1102F766593734440BC8B8A80702D39E9C7A381E04D982E15FCDA538881412A
1004
4EEC55495D31E4D04E3F4A4D04E3C95D31EAAAAAAAA7111FE8B5FFFFFFFA2D7FFE5BFF2DFFA73D9FFA2D7E8B49C7A381E04D982E15FCD82B6A04E493CC6734F3D3040CE6CF8DAB4EA2698193CB6835EECCB26E688817BB32C9B9A2205E45C540381632F181E8E07813663AB0FFD29E41C19758FD8AA92BA6
1004
3DC8E41FA572390792BA63D55555554F20E7F2702923E493A133F443E809369A4190FF45AF924E84CFCB7FE5BFF4CBDD56C95555D93AFFFFFFF64AAAAEC9D15FCDFF3676AAD3C1EC1D89FD92AAABB275FFA2D7E8B5FA2D0C0F4703C09B31D587FE0ADA813924F319CD3CF4C10339B3E36AD3A89A6064F2DA
1004
0D7BB32C9B9A2205EECCB26E6888179171500E058CBD38F4703C09B305C28607A381E04D98EAC34A790700849C7EC55495D31EE4720FD2B91C83C95D31EAAAAAAAA79073F9381491F249D099FA21F4049B4D20C87FA2D7C9274267E5BFF2DFFA65EEAB64AAAAEC9D7FFFFFFB25555764E8AFE6FF9B3B5569
1004
E0F60EC4FEC95555D93AFFD16BF45AFD16938F4703C09B305C28607A381E04D98EAC3056D4C10339B3E36AD204E493CC6734F3D372067367C6D5A766593734440BC11D6761B63B2DE45C54038169CFFFFD0BD2B9884D82603F62AA4AE98F1278FD2893C792BA63D8EAAAAE623FD16BFFFFFFF45AFF555555
1004
56BF2DFFDE97FFF42F056D4C10339B3E36AD204E493CC6734F3D372067367C6D5A766593734440BC11D6761B63B2DE45C54038169CFFF38AAAAAB96F4AE620F820FD55892BA63C49E3F4A4AE98F1278F555563B988FF45AFFFFFFFD16BFFF02FFCB7FF7A5FF38AAAAAB96F056D4C10339B3E36AD204E493C
1004
C6734F3D372067367C6D5A766593734440BC11D6761B63B2DE45C54038169CF63E4AFFD0BD2B9887204C47EAAC495D31E24F1FA52574C7893C7AAAAB1DCC47FA2D7FFFFFFE8B5FFF817FE5BFFBD2B1F257FE85E0ADA982067367C6D5A4C10339B3E36AD26E40CE6CF8DAB4ECCB26E688817BB32C9B9A2205
1004
E08EB3B0DB1DDE9C7A381E04D982E15FCDA538881434D3BAAB12574C7A6C431FA52574C7A6C431EAAAAAAAA7111FE8B5FFFFFFFA2D7FFE5BFF2DFFDECFFD16BF45A4E3D1C0F026CC170AFE6C15B5D44D3032796D06BD3040CE6CF8DAB4EA2698193CB6835E4F0CB26E688A65EECCB26E6888179171500E05
1004
8CBD38F4703C09B305C29B0F4703C09B31D58694F20E010940FD558B91C83D9AE88FD2B91C83D9AE88F555555553C839FE8B5FFFFFFFA2D7FFE997FE5BFFBDD56C95555D93AF64AAAA0F04215FFFE76AAAA0FA993ACED55BBAA4240E80EEAAAAA0FE0FC81FF64AAAAEC9D7FE8B5FA2D7E8869C7A381E04D9
1004
82E14D87A381E04D98EAC3056D75134C0C9E5B41AF4C10339B3E36AD3A89A6064F2DA0D793C32C9B9A22997BB32C9B9A2205E45C540381632F4E3D1C0F026CC170A6C3D1C0F026CC7561A53C8380E82563F62AAE4720F66BA23F4ACD7447B91C83D55555554F20E7FA2D7FFFFFFE8B5FFFA65FF96FFEF755
1004
B25555764EBD92AAA83C10857FFF9DAAAA83EA64EB3B556EEA90903A03BAAAAA83F83F207FD92AAABB275FFA2D7E8B5FA2D271E8E07813660B85361E8E07813663AB0C15B5027249E6339A79E813924F319CD3CF75134C0C9E5B41AF27865937344532F04759D86D8ECB79171500E058CBD8FA2D7E5BD2B9
1004
8809783D0FD558B91C83C49E3F4AE4720F1278F555563B988FE4E05247C9274267E887D0126D348321FE8B5F249D099F96FFCB7FE4AF4AC7D16BF2DE0ADA813924F319CD3CF409C92798CE69E7BA89A6064F2DA0D793C32C9B9A22997823ACEC36C765BC8B8A80702C65EC7D16BF2DE95CC40D2D063F62AA
1004
E4720F1278FD2893C7B91C83D8EAAAAE623F9381491F249D099FA21F4049B4D20C87FA2D7C9274267E5BFF2DFF8CBD2B1F45AFCB782B6BA89A6064F2DA0D7A60819CD9F1B56803A102E91085EF22E2A01C0B197BB32C9B9A2205E45C54038169CF4E3D1C0F026CC170AFE6D29C44202994EEC5559AE88F26
1004
8271FA5268271ECD7447AAAAAAAA9C447FA2D7FFFFFFE8B5FFFA65FF96FFD39ECFFD16BF45A4E3D1C0F026CC170AFE6C15B5D44D3032796D06BD027249E6339A79E9B90339B3E36AD1171500E058CBC11D6761B63B2DE45C54038169CFFF38AAAAAB96F4AE620F84D47EC5559AE88F1278FD2893C7B35D11
1004
EC755557311FE8B5FFFFFFFA2D7FFE4AFFCB7FF7A5FF38AAAAAB96F056D75134C0C9E5B41AF409C92798CE69E7A6E40CE6CF8DAB445C540381632F04759D86D8ECB79171500E05A73D8F92BFF42F4AE621C8800FD8AAB35D11E24F1FA51278F66BA23D8EAAAAE623FD16BFFFFFFF45AFFFC95FF96FFEF4AC
1004
7C95FFA1782B6BA89A6064F2DA0D7A04E493CC6734F3D372067367C6D5A22E2A01C0B197823ACEC36C765BC8B8A80702D39FFFFA17A57310583E0FD558B35D11E24F1FA566BA23C49E3D55558EE623FD16BFFFFFFF45AFFFC65FF96FFEF4BFFFA1782B6BA89A6064F2DA0D7A60819CD9F1B569372067367C
1004
6D5A22E2A01C0B197BB32C9B9A2205E08EB3B0DB1DDE9C7A381E04D982E15FCDA538881207917F5562CD7447A6C431FA566BA23D36218F555555553888FF45AFFFFFFFD16BFFF4CBFF2DFFDECFFD16BF45A4E3D1C0F026CC170AFE6C15B53040CE6CF8DAB4813924F319CD3CF4DC819CD9F1B5688B8A8070
1004
2C65E08EB3B0DB1D96F04759D86D8EEF4555555BB4AAAAAA0C7A573101323C0FD8AAA6C431E24F1FA51278F4D8863D8EAAAAE623FFFD16BFFFFFFF443FD98FFCB7FF7A54555555BB4AAAAAA0C782B6A60819CD9F1B569027249E6339A79E9B90339B3E36AD1171500E058CBC11D6761B63B2DE08EB3B0DB1
1004
DDE76AAAAA45FF8D37A573109B04DC7EC55536218F1278FD2893C7A6C431EC755557311FFFE8B5FFFFFFFA21FECC7FE5BFFBD29DAAAAA917FE34DE0ADA982067367C6D5A409C92798CE69E78074205D2210BDE45C540381632F04759D86D8ECB79171500E05A73FF1A628ED5555488A4AE621364013BB155
1004
268271E24F1FA51278F268271EC755557311FFFE8B5FFFFFFFA2D7ECC7FE5BFF4E7A5FC698A3B55555222815B53040CE6CF8DAB4813924F319CD3CF00E840BA44217BC8B8A80702C65E08EB3B0DB1D96F22E2A01C0B4E7AAAAAA830522AAAAADC34AE620F84D93BB155268271E24F1FA51278F268271EC75
1004
5557311FFFE8B5FFFFFFFA2D7ECC7FE5BFF4E7A5555555060A4555555B860ADAC3B32C9B9A0A1A04E493CC6734F3D876659373414322E2A01C0B42F04759D86D8ECB7B0ECCB26E682B5FB942BF729E95CC403A09A27755627C621E24F1FA53E310F1278F63B1DCC47FFFA2D7FFFFFFE887FB94FFCB7FFA5F
1004
DCA15FB94F056D6D74205D2213B7B0ECCB26E68286C3B32C9B9A0A19171500E05A17823ACEC36C765BD876659373415AFD9A1FECD692B9884041E53BAAB13E310F14758FD29F18878A3AC7B1D8EE623FD16BFFFFFFFFF443FD0BFF66B5FE97F6687FB35A056D61D9964DCD050D876659373414361D9964DC
1004
D050D876659373415A04759D86D8ECB7B0ECCB26E682B5F962BF9B4AE6209A07A4EEAAC4F8C43C94631FA53E310F2518C7B1D8EE623FD10FFFFFFFFFF443FFFFFF4BF962BF9B056D61D9964DCD050D876659373414361D9964DCD050C8B8A80702D0BD876659373415A61D9964DCD056BFFF42F4AE620520
1004
D3BAAB13E310F1A0903F4A7C621E341207B1D8EE623FFFD10FFFFFFFF443FFFFFF4BFFFA1782B6B0ECCB26E68286C3B32C9B9A0A1B6BA102E9109B1E45C540381685EC3B32C9B9A0AD0171500E058C1FFB942BF729E95CC4222C9DD5588D0481E80343F4A341207A00D0F63B1DCC47FFFFFA2D7FFE887FFF
1004
B94FFF5555556C7A5FDCA15FB94F056D6D74205D2213B7B0ECCB26E68286C3B32C9B9A0A19171500E05A17B0ECCB26E682B405C5403816307AAAAAA8D452AAAAA8D5E95CC43AA06A9DD5588D0481E28EB1FA51A0903C51D63D8EC77311FE8B5FFFFFFFA21FFFE85FFEAAAAAA357A55555551A8A5555551AB
1004
C15B5876659373414361D9964DCD050D876659373414361D9964DCD0569876659373415A02E2A01C0B183FFD555555B1E95CC403A4CA775562341207928C63F4A341207928C63D8EC77311FE887FFFFFFFA21FFFFFFFFA5FF5555556C782B6B0ECCB26E68286C3B32C9B9A0A1B6BA102E9109B1EC3B32C9B
1004
9A0AD023ACEC36C765BC0B8A80702C60FFD9A1FECD692B9888353BAAB12518C7A00D0FD2928C63D00687B1D8EE623FFFFFD16BF443FFFFFFFD9AD2AAAAAB63D2FECD0FF66B40ADAC3B32C9B9A0A1A04E493CC6734F3D876659373414361D9964DCD056811D6761B63B2DE05C5403816307AAAAAA8D452AAA
1004
AA8D5E95CC403A254EEAAC494631E24F1FA52518C7893C7B1D8EE623FFFD16BFFF443FFFFFFFCB7AAAAAA8D5E955555546A295555546AF056D61D9964DCD050D027249E6339A79EDAE840BA4426C79171500E05A17823ACEC36C765BC0B8A80702C60FFD08AFE6D2B9883E1254EEAAC500687893C7E95006
1004
87893C7B1D8EE623FFFD16BFFFFFFF45AFD0BFF2DEAAAAAAD8F4BFA115FCD82B6B6BA102E9109DBD87665937341436D74205D221363C8B8A80702D0BC11D6761B63B2DE05C5403816307FFFE5BD2B9887204993BAAB1401A1E28EB1FA5401A1E28EB1EC763B988FF45AFFFFFE6FFFF45AFD0BFF2DEAAAAAA
1004
D8F4BFFF96F056D6D74205D2213B7A04E493CC6734F3D876659373414322E2A01C0B42F04759D86D8ECB78171500E058C1EAAAAAAD82BF9B4AE620B094A77556224F1E28EB1FA51278F14758F63B1DCC47FA2D7FFFFFFE8B5FFFA17FE5BD555555B1E95555555B057F3612C388493F
1005
153
  0
INSERT
  8
AME_FRZ
  5
153
  2
AME_NIL
 10
1.0
 20
1.0
 30
1.0
1001
AME_SOL
1004

1005
0
  0
ENDSEC
  0
EOF
