  0
SECTION
  2
HEADER
  9
$ACADVER
  1
AC1009
  9
$INSBASE
 10
0.0
 20
0.0
 30
0.0
  9
$EXTMIN
 10
-1.0
 20
-1.0
 30
0.0
  9
$EXTMAX
 10
11.0
 20
11.0
 30
4.0
  9
$LIMMIN
 10
0.0
 20
0.0
  9
$LIMMAX
 10
12.0
 20
9.0
  9
$ORTHOMODE
 70
     0
  9
$REGENMODE
 70
     1
  9
$FILLMODE
 70
     1
  9
$QTEXTMODE
 70
     0
  9
$MIRRTEXT
 70
     1
  9
$DRAGMODE
 70
     2
  9
$LTSCALE
 40
1.0
  9
$OSMODE
 70
     0
  9
$ATTMODE
 70
     1
  9
$TEXTSIZE
 40
0.2
  9
$TRACEWID
 40
0.05
  9
$TEXTSTYLE
  7
STANDARD
  9
$CLAYER
  8
0
  9
$CELTYPE
  6
BYLAYER
  9
$CECOLOR
 62
   256
  9
$DIMSCALE
 40
1.0
  9
$DIMASZ
 40
0.18
  9
$DIMEXO
 40
0.0625
  9
$DIMDLI
 40
0.38
  9
$DIMRND
 40
0.0
  9
$DIMDLE
 40
0.0
  9
$DIMEXE
 40
0.18
  9
$DIMTP
 40
0.0
  9
$DIMTM
 40
0.0
  9
$DIMTXT
 40
0.18
  9
$DIMCEN
 40
0.09
  9
$DIMTSZ
 40
0.0
  9
$DIMTOL
 70
     0
  9
$DIMLIM
 70
     0
  9
$DIMTIH
 70
     1
  9
$DIMTOH
 70
     1
  9
$DIMSE1
 70
     0
  9
$DIMSE2
 70
     0
  9
$DIMTAD
 70
     0
  9
$DIMZIN
 70
     0
  9
$DIMBLK
  1

  9
$DIMASO
 70
     1
  9
$DIMSHO
 70
     1
  9
$DIMPOST
  1

  9
$DIMAPOST
  1

  9
$DIMALT
 70
     0
  9
$DIMALTD
 70
     2
  9
$DIMALTF
 40
25.4
  9
$DIMLFAC
 40
1.0
  9
$DIMTOFL
 70
     0
  9
$DIMTVP
 40
0.0
  9
$DIMTIX
 70
     0
  9
$DIMSOXD
 70
     0
  9
$DIMSAH
 70
     0
  9
$DIMBLK1
  1

  9
$DIMBLK2
  1

  9
$DIMSTYLE
  2
*UNNAMED
  9
$DIMCLRD
 70
     0
  9
$DIMCLRE
 70
     0
  9
$DIMCLRT
 70
     0
  9
$DIMTFAC
 40
1.0
  9
$DIMGAP
 40
0.09
  9
$LUNITS
 70
     2
  9
$LUPREC
 70
     4
  9
$SKETCHINC
 40
0.1
  9
$FILLETRAD
 40
0.0
  9
$AUNITS
 70
     0
  9
$AUPREC
 70
     0
  9
$MENU
  1
acad
  9
$ELEVATION
 40
0.0
  9
$PELEVATION
 40
0.0
  9
$THICKNESS
 40
0.0
  9
$LIMCHECK
 70
     0
  9
$BLIPMODE
 70
     1
  9
$CHAMFERA
 40
0.0
  9
$CHAMFERB
 40
0.0
  9
$SKPOLY
 70
     0
  9
$TDCREATE
 40
2449378.488455150
  9
$TDUPDATE
 40
2449378.490203715
  9
$TDINDWG
 40
0.0017485648
  9
$TDUSRTIMER
 40
0.0017485648
  9
$USRTIMER
 70
     1
  9
$ANGBASE
 50
0.0
  9
$ANGDIR
 70
     0
  9
$PDMODE
 70
     0
  9
$PDSIZE
 40
0.0
  9
$PLINEWID
 40
0.0
  9
$COORDS
 70
     1
  9
$SPLFRAME
 70
     0
  9
$SPLINETYPE
 70
     6
  9
$SPLINESEGS
 70
     8
  9
$ATTDIA
 70
     0
  9
$ATTREQ
 70
     1
  9
$HANDLING
 70
     1
  9
$HANDSEED
  5
84
  9
$SURFTAB1
 70
     6
  9
$SURFTAB2
 70
     6
  9
$SURFTYPE
 70
     6
  9
$SURFU
 70
     6
  9
$SURFV
 70
     6
  9
$UCSNAME
  2

  9
$UCSORG
 10
0.0
 20
0.0
 30
0.0
  9
$UCSXDIR
 10
1.0
 20
0.0
 30
0.0
  9
$UCSYDIR
 10
0.0
 20
1.0
 30
0.0
  9
$PUCSNAME
  2

  9
$PUCSORG
 10
0.0
 20
0.0
 30
0.0
  9
$PUCSXDIR
 10
1.0
 20
0.0
 30
0.0
  9
$PUCSYDIR
 10
0.0
 20
1.0
 30
0.0
  9
$USERI1
 70
     0
  9
$USERI2
 70
     0
  9
$USERI3
 70
     0
  9
$USERI4
 70
     0
  9
$USERI5
 70
     0
  9
$USERR1
 40
0.0
  9
$USERR2
 40
0.0
  9
$USERR3
 40
0.0
  9
$USERR4
 40
0.0
  9
$USERR5
 40
0.0
  9
$WORLDVIEW
 70
     1
  9
$SHADEDGE
 70
     3
  9
$SHADEDIF
 70
    70
  9
$TILEMODE
 70
     1
  9
$MAXACTVP
 70
    16
  9
$PINSBASE
 10
0.0
 20
0.0
 30
0.0
  9
$PLIMCHECK
 70
     0
  9
$PEXTMIN
 10
1.000000E+20
 20
1.000000E+20
 30
1.000000E+20
  9
$PEXTMAX
 10
-1.000000E+20
 20
-1.000000E+20
 30
-1.000000E+20
  9
$PLIMMIN
 10
0.0
 20
0.0
  9
$PLIMMAX
 10
12.0
 20
9.0
  9
$UNITMODE
 70
     0
  9
$VISRETAIN
 70
     0
  9
$PLINEGEN
 70
     0
  9
$PSLTSCALE
 70
     1
  9
$TREEDEPTH
 70
  3020
  9
$DWGCODEPAGE
  3
ascii
  0
ENDSEC
  0
SECTION
  2
TABLES
  0
TABLE
  2
VPORT
 70
     2
  0
VPORT
  2
*ACTIVE
 70
     0
 10
0.0
 20
0.0
 11
1.0
 21
1.0
 12
-0.171314
 22
0.598596
 13
0.0
 23
0.0
 14
1.0
 24
1.0
 15
0.0
 25
0.0
 16
1.0
 26
2.1
 36
1.0
 17
0.0
 27
0.0
 37
0.0
 40
12.778476
 41
1.594883
 42
50.0
 43
0.0
 44
0.0
 50
0.0
 51
0.0
 71
     0
 72
   100
 73
     1
 74
     1
 75
     0
 76
     0
 77
     0
 78
     0
  0
ENDTAB
  0
TABLE
  2
LTYPE
 70
     1
  0
LTYPE
  2
CONTINUOUS
 70
    64
  3
Solid line
 72
    65
 73
     0
 40
0.0
  0
ENDTAB
  0
TABLE
  2
LAYER
 70
     2
  0
LAYER
  2
0
 70
    64
 62
     7
  6
CONTINUOUS
  0
LAYER
  2
AME_FRZ
 70
    65
 62
     7
  6
CONTINUOUS
  0
ENDTAB
  0
TABLE
  2
STYLE
 70
     1
  0
STYLE
  2
STANDARD
 70
     0
 40
0.0
 41
1.0
 50
0.0
 71
     0
 42
0.2
  3
txt
  4

  0
ENDTAB
  0
TABLE
  2
VIEW
 70
     0
  0
ENDTAB
  0
TABLE
  2
UCS
 70
     0
  0
ENDTAB
  0
TABLE
  2
APPID
 70
     3
  0
APPID
  2
ACAD
 70
    64
  0
APPID
  2
AME_SOL
 70
    64
  0
APPID
  2
AVE_INVOKE
 70
    64
  0
ENDTAB
  0
TABLE
  2
DIMSTYLE
 70
     0
  0
ENDTAB
  0
ENDSEC
  0
SECTION
  2
BLOCKS
  0
BLOCK
  8
0
  5
1
  2
AME_NIL
 70
    64
 10
0.0
 20
0.0
 30
0.0
  1
AME_NIL
  3
AME_NIL
  0
ENDBLK
  8
0
  5
2
  0
BLOCK
  8
0
  5
4
  2
AME_SOL
 70
    64
 10
0.0
 20
0.0
 30
0.0
  1
AME_SOL
  3
AME_SOL
  0
ENDBLK
  8
0
  5
5
  0
BLOCK
  8
0
  5
4C
  2
*U7
 70
    65
 10
0.0
 20
0.0
 30
0.0
  1
*U
  3
*U
  0
LINE
  8
0
 62
     7
  5
4D
 10
10.0
 20
10.0
 30
0.0
 11
10.0
 21
10.0
 31
4.0
1001
AME_SOL
1070
     1
1071
       46
  0
LINE
  8
0
 62
     7
  5
4E
 10
10.0
 20
4.0
 30
4.0
 11
10.0
 21
0.0
 31
4.0
1001
AME_SOL
1070
     1
1071
       45
  0
LINE
  8
0
 62
     7
  5
4F
 10
10.0
 20
10.0
 30
4.0
 11
10.0
 21
6.0
 31
4.0
1001
AME_SOL
1070
     1
1071
       44
  0
LINE
  8
0
 62
     7
  5
50
 10
6.0
 20
10.0
 30
4.0
 11
10.0
 21
10.0
 31
4.0
1001
AME_SOL
1070
     1
1071
       43
  0
LINE
  8
0
 62
     7
  5
51
 10
0.0
 20
10.0
 30
4.0
 11
4.0
 21
10.0
 31
4.0
1001
AME_SOL
1070
     1
1071
       42
  0
LINE
  8
0
 62
     7
  5
52
 10
0.0
 20
10.0
 30
0.0
 11
0.0
 21
10.0
 31
4.0
1001
AME_SOL
1070
     1
1071
       41
  0
LINE
  8
0
 62
     7
  5
53
 10
0.0
 20
4.0
 30
4.0
 11
0.0
 21
0.0
 31
4.0
1001
AME_SOL
1070
     1
1071
       40
  0
LINE
  8
0
 62
     7
  5
54
 10
0.0
 20
10.0
 30
4.0
 11
0.0
 21
6.0
 31
4.0
1001
AME_SOL
1070
     1
1071
       39
  0
LINE
  8
0
 62
     7
  5
55
 10
0.0
 20
0.0
 30
0.0
 11
0.0
 21
0.0
 31
4.0
1001
AME_SOL
1070
     1
1071
       38
  0
LINE
  8
0
 62
     7
  5
56
 10
10.0
 20
0.0
 30
4.0
 11
10.0
 21
0.0
 31
0.0
1001
AME_SOL
1070
     1
1071
       37
  0
LINE
  8
0
 62
     7
  5
57
 10
6.0
 20
0.0
 30
4.0
 11
10.0
 21
0.0
 31
4.0
1001
AME_SOL
1070
     1
1071
       36
  0
LINE
  8
0
 62
     7
  5
58
 10
0.0
 20
0.0
 30
4.0
 11
4.0
 21
0.0
 31
4.0
1001
AME_SOL
1070
     1
1071
       35
  0
LINE
  8
0
 62
     7
  5
59
 10
6.0
 20
0.0
 30
0.0
 11
10.0
 21
0.0
 31
0.0
1001
AME_SOL
1070
     1
1071
       34
  0
LINE
  8
0
 62
     7
  5
5A
 10
0.0
 20
0.0
 30
0.0
 11
4.0
 21
0.0
 31
0.0
1001
AME_SOL
1070
     1
1071
       33
  0
LINE
  8
0
 62
     7
  5
5B
 10
0.0
 20
4.0
 30
0.0
 11
0.0
 21
0.0
 31
0.0
1001
AME_SOL
1070
     1
1071
       32
  0
LINE
  8
0
 62
     7
  5
5C
 10
0.0
 20
10.0
 30
0.0
 11
0.0
 21
6.0
 31
0.0
1001
AME_SOL
1070
     1
1071
       31
  0
LINE
  8
0
 62
     7
  5
5D
 10
10.0
 20
6.0
 30
0.0
 11
10.0
 21
10.0
 31
0.0
1001
AME_SOL
1070
     1
1071
       30
  0
LINE
  8
0
 62
     7
  5
5E
 10
10.0
 20
0.0
 30
0.0
 11
10.0
 21
4.0
 31
0.0
1001
AME_SOL
1070
     1
1071
       29
  0
LINE
  8
0
 62
     7
  5
5F
 10
4.0
 20
10.0
 30
0.0
 11
0.0
 21
10.0
 31
0.0
1001
AME_SOL
1070
     1
1071
       28
  0
LINE
  8
0
 62
     7
  5
60
 10
10.0
 20
10.0
 30
0.0
 11
6.0
 21
10.0
 31
0.0
1001
AME_SOL
1070
     1
1071
       27
  0
ARC
  8
0
 62
     7
  5
61
 10
10.0
 20
5.0
 30
0.0
 40
1.0
 50
90.0
 51
270.0
1001
AME_SOL
1070
     1
1071
       26
  0
LINE
  8
0
 62
     7
  5
62
 10
10.0
 20
4.0
 30
0.0
 11
10.0
 21
4.0
 31
4.0
1001
AME_SOL
1070
     1
1071
       25
  0
LINE
  8
0
 62
     7
  5
63
 10
10.0
 20
6.0
 30
0.0
 11
10.0
 21
6.0
 31
4.0
1001
AME_SOL
1070
     1
1071
       24
  0
ARC
  8
0
 62
     7
  5
64
 10
10.0
 20
5.0
 30
4.0
 40
1.0
 50
90.0
 51
270.0
1001
AME_SOL
1070
     1
1071
       23
  0
ARC
  8
0
 62
     7
  5
65
 10
5.0
 20
0.0
 30
0.0
 40
1.0
 50
0.0
 51
180.0
1001
AME_SOL
1070
     1
1071
       22
  0
ARC
  8
0
 62
     7
  5
66
 10
5.0
 20
0.0
 30
4.0
 40
1.0
 50
0.0
 51
180.0
1001
AME_SOL
1070
     1
1071
       21
  0
LINE
  8
0
 62
     7
  5
67
 10
6.0
 20
0.0
 30
0.0
 11
6.0
 21
0.0
 31
4.0
1001
AME_SOL
1070
     1
1071
       20
  0
LINE
  8
0
 62
     7
  5
68
 10
4.0
 20
0.0
 30
0.0
 11
4.0
 21
0.0
 31
4.0
1001
AME_SOL
1070
     1
1071
       19
  0
ARC
  8
0
 62
     7
  5
69
 10
0.0
 20
5.0
 30
0.0
 40
1.0
 50
270.0
 51
90.0
1001
AME_SOL
1070
     1
1071
       18
  0
ARC
  8
0
 62
     7
  5
6A
 10
0.0
 20
5.0
 30
4.0
 40
1.0
 50
270.0
 51
90.0
1001
AME_SOL
1070
     1
1071
       17
  0
LINE
  8
0
 62
     7
  5
6B
 10
0.0
 20
4.0
 30
0.0
 11
0.0
 21
4.0
 31
4.0
1001
AME_SOL
1070
     1
1071
       16
  0
LINE
  8
0
 62
     7
  5
6C
 10
0.0
 20
6.0
 30
0.0
 11
0.0
 21
6.0
 31
4.0
1001
AME_SOL
1070
     1
1071
       15
  0
ARC
  8
0
 62
     7
  5
6D
 10
5.0
 20
10.0
 30
0.0
 40
1.0
 50
180.0
 51
0.0
1001
AME_SOL
1070
     1
1071
       14
  0
LINE
  8
0
 62
     7
  5
6E
 10
6.0
 20
10.0
 30
0.0
 11
6.0
 21
10.0
 31
4.0
1001
AME_SOL
1070
     1
1071
       13
  0
LINE
  8
0
 62
     7
  5
6F
 10
4.0
 20
10.0
 30
0.0
 11
4.0
 21
10.0
 31
4.0
1001
AME_SOL
1070
     1
1071
       12
  0
ARC
  8
0
 62
     7
  5
70
 10
5.0
 20
10.0
 30
4.0
 40
1.0
 50
180.0
 51
0.0
1001
AME_SOL
1070
     1
1071
       11
  0
LINE
  8
0
 62
     7
  5
71
 10
9.0
 20
5.0
 30
0.0
 11
9.0
 21
5.0
 31
4.0
1001
AME_SOL
1070
     0
1071
        4
  0
LINE
  8
0
 62
     7
  5
72
 10
10.0
 20
4.0
 30
0.0
 11
10.0
 21
4.0
 31
4.0
1001
AME_SOL
1070
     0
1071
        4
  0
LINE
  8
0
 62
     7
  5
73
 10
10.0
 20
6.0
 30
0.0
 11
10.0
 21
6.0
 31
4.0
1001
AME_SOL
1070
     0
1071
        4
  0
LINE
  8
0
 62
     7
  5
74
 10
4.0
 20
0.0
 30
0.0
 11
4.0
 21
0.0
 31
4.0
1001
AME_SOL
1070
     0
1071
        3
  0
LINE
  8
0
 62
     7
  5
75
 10
6.0
 20
0.0
 30
0.0
 11
6.0
 21
0.0
 31
4.0
1001
AME_SOL
1070
     0
1071
        3
  0
LINE
  8
0
 62
     7
  5
76
 10
5.0
 20
1.0
 30
0.0
 11
5.0
 21
1.0
 31
4.0
1001
AME_SOL
1070
     0
1071
        3
  0
LINE
  8
0
 62
     7
  5
77
 10
0.0
 20
4.0
 30
0.0
 11
0.0
 21
4.0
 31
4.0
1001
AME_SOL
1070
     0
1071
        2
  0
LINE
  8
0
 62
     7
  5
78
 10
1.0
 20
5.0
 30
0.0
 11
1.0
 21
5.0
 31
4.0
1001
AME_SOL
1070
     0
1071
        2
  0
LINE
  8
0
 62
     7
  5
79
 10
0.0
 20
6.0
 30
0.0
 11
0.0
 21
6.0
 31
4.0
1001
AME_SOL
1070
     0
1071
        2
  0
LINE
  8
0
 62
     7
  5
7A
 10
4.0
 20
10.0
 30
0.0
 11
4.0
 21
10.0
 31
4.0
1001
AME_SOL
1070
     0
1071
        1
  0
LINE
  8
0
 62
     7
  5
7B
 10
5.0
 20
9.0
 30
0.0
 11
5.0
 21
9.0
 31
4.0
1001
AME_SOL
1070
     0
1071
        1
  0
LINE
  8
0
 62
     7
  5
7C
 10
6.0
 20
10.0
 30
0.0
 11
6.0
 21
10.0
 31
4.0
1001
AME_SOL
1070
     0
1071
        1
  0
ENDBLK
  8
0
  5
7D
  0
BLOCK
  8
0
  5
81
  2
AME_JNK
 70
     0
 10
0.0
 20
0.0
 30
0.0
  1
AME_JNK
  3
AME_JNK
  0
ENDBLK
  8
0
  5
82
  0
ENDSEC
  0
SECTION
  2
ENTITIES
  0
INSERT
  8
AME_FRZ
  5
3
  2
AME_NIL
 10
0.0
 20
0.0
 30
0.0
  0
INSERT
  8
AME_FRZ
  5
6
  2
AME_SOL
 10
0.0
 20
0.0
 30
0.0
1001
AME_SOL
1000
R2.1
1000
AME2
1000
sq cm
1070
     3
1070
     0
1070
     3
1000
wire
1040
45.0
1000
U
1040
1.0
1000
cm
1000
gm
1000
MILD_STEEL
1070
    25
1000
CSG
1070
     1
1070
     3
1070
     3
1070
     3
1070
     0
1000
cu cm
1070
     1
1070
     0
1005
3
  0
INSERT
  8
AME_FRZ
  5
15
  2
AME_NIL
 10
0.0
 20
0.0
 30
0.0
1001
AME_SOL
1002
{
1070
     1
1071
  2468528
1070
  1536
1070
     1
1010
10.0
1020
10.0
1030
4.0
1005
0
1005
0
1005
7E
1040
0.0
1040
1.0
1070
     0
1000
MILD_STEEL
1000
0
1010
0.0
1020
0.0
1030
0.0
1010
0.0
1020
0.0
1030
1.0
1040
0.0
1002
}
1001
AVE_INVOKE
1000
SOLAVEMESH
  0
INSERT
  8
AME_FRZ
  5
21
  2
AME_NIL
 10
5.0
 20
0.0
 30
0.0
1001
AME_SOL
1002
{
1070
     1
1071
  2406880
1070
  1538
1070
     1
1010
1.0
1020
1.0
1030
4.0
1005
0
1005
0
1005
48
1040
0.0
1040
1.0
1070
     0
1000
MILD_STEEL
1000
0
1010
5.0
1020
0.0
1030
0.0
1010
0.0
1020
0.0
1030
1.0
1040
0.0
1002
}
1001
AVE_INVOKE
1000
SOLAVEMESH
  0
INSERT
  8
AME_FRZ
  5
2D
  2
AME_NIL
 10
0.0
 20
5.0
 30
0.0
1001
AME_SOL
1002
{
1070
     1
1071
  2403736
1070
  1538
1070
     1
1010
1.0
1020
1.0
1030
4.0
1005
0
1005
0
1005
49
1040
0.0
1040
1.0
1070
     0
1000
MILD_STEEL
1000
0
1010
0.0
1020
5.0
1030
0.0
1010
0.0
1020
0.0
1030
1.0
1040
0.0
1002
}
1001
AVE_INVOKE
1000
SOLAVEMESH
  0
INSERT
  8
AME_FRZ
  5
39
  2
AME_NIL
 10
5.0
 20
10.0
 30
0.0
1001
AME_SOL
1002
{
1070
     1
1071
  2419304
1070
  1538
1070
     1
1010
1.0
1020
1.0
1030
4.0
1005
0
1005
0
1005
49
1040
0.0
1040
1.0
1070
     0
1000
MILD_STEEL
1000
0
1010
5.0
1020
10.0
1030
0.0
1010
0.0
1020
0.0
1030
1.0
1040
0.0
1002
}
1001
AVE_INVOKE
1000
SOLAVEMESH
  0
INSERT
  8
AME_FRZ
  5
45
  2
AME_NIL
 10
10.0
 20
5.0
 30
0.0
1001
AME_SOL
1002
{
1070
     1
1071
  2427680
1070
  1538
1070
     1
1010
1.0
1020
1.0
1030
4.0
1005
0
1005
0
1005
48
1040
0.0
1040
1.0
1070
     0
1000
MILD_STEEL
1000
0
1010
10.0
1020
5.0
1030
0.0
1010
0.0
1020
0.0
1030
1.0
1040
0.0
1002
}
1001
AVE_INVOKE
1000
SOLAVEMESH
  0
INSERT
  8
AME_FRZ
  5
48
  2
AME_NIL
 10
0.0
 20
0.0
 30
0.0
1001
AME_SOL
1002
{
1070
     1
1071
  2436608
1070
   775
1070
     0
1070
     2
1005
45
1005
21
1005
0
1005
0
1005
4A
1040
0.0
1040
1.0
1070
     0
1000
MILD_STEEL
1000
0
1010
0.0
1020
0.0
1030
0.0
1010
0.0
1020
0.0
1030
1.0
1040
0.0
1002
}
  0
INSERT
  8
AME_FRZ
  5
49
  2
AME_NIL
 10
0.0
 20
0.0
 30
0.0
1001
AME_SOL
1002
{
1070
     1
1071
  2440992
1070
   775
1070
     0
1070
     2
1005
2D
1005
39
1005
0
1005
0
1005
4A
1040
0.0
1040
1.0
1070
     0
1000
MILD_STEEL
1000
0
1010
0.0
1020
0.0
1030
0.0
1010
0.0
1020
0.0
1030
1.0
1040
0.0
1002
}
  0
INSERT
  8
AME_FRZ
  5
4A
  2
AME_NIL
 10
0.0
 20
0.0
 30
0.0
1001
AME_SOL
1002
{
1070
     1
1071
  2434712
1070
   775
1070
     0
1070
     2
1005
48
1005
49
1005
0
1005
0
1005
7E
1040
0.0
1040
1.0
1070
     0
1000
MILD_STEEL
1000
0
1010
0.0
1020
0.0
1030
0.0
1010
0.0
1020
0.0
1030
1.0
1040
0.0
1002
}
  0
INSERT
  8
0
  5
7E
  2
*U7
 10
0.0
 20
0.0
 30
0.0
1001
AME_SOL
1002
{
1070
     1
1071
  2445256
1070
  1543
1070
     1
1070
     0
1005
15
1005
4A
1005
0
1005
7F
1005
0
1040
0.0
1040
1.0
1070
     0
1000
MILD_STEEL
1000
0
1002
}
1001
AVE_INVOKE
1000
SOLAVEMESH
  0
INSERT
  8
AME_FRZ
  5
7F
  2
AME_NIL
 10
1.0
 20
1.0
 30
1.0
1001
AME_SOL
1004
C7CF0100130189018801860182017A016E015E010C004801EA00FB0032006F0110005F0119004901F900360109004D007B010200700160014A0137012A011F01B9003C0020013D0041002B012101DD00B00022011101F7009100120150000101000127000F004B01B700E600480083017C01710161014C01
1004
38012C012301130102012900870003012A002B00140104012E008A0005012F00310024011501060134003500070136003700160108013A003B0009019300D400C1003901C500C200C00062014D013A01C4002D01250117010A01D300A0000B01A100D20018010C015200CE000D01CB00CA001200E0009600
1004
720163014E01A400EE004F01FC003B018400EF0025007D0173012400640150013C012E01F800B6002F01B500260119010E017000C8000F01A800C7001A011001A90060000A003D015400440051013E013001F200640031017F003800B8003F00870184017E017401BF006501CF0052013F01030005004001
1004
2D0032013E00900040007F0175016601750053011400410123000800670154010D004201F40033012701BC00D00028011B01220088001C0186008500180076016801550147000600560192002600010085018001FF007701690157014301C3003401040028009F0058018F004401200021006A011F005901
1004
5D00A300810178016B015A01EB007E005B0171008C006C015C0145015F00DF0046016D00300089007901F0006D015D0147013501680029011D017200A6001E01FD0013004E008000FE000000024601230D3806BCA98C6649418C34FAFCD947CA8DA47817903651F2A3691E05E40408EFCED9DA0016988961
1004
656D2016988961656D218C634B500092BF03361A2A21A5C8928D8CA554EABACDC39AE91023BF3B676806318D2D4015A402D3112C2CADA4318C696A001257813E4DB344BB19AF2072F813E7FDE3FFFFFFFEF1FFFF524FE627FD1BFDE3FEF1FFFFFFC09F3FEF1FFFFFFFF78FFFFA927F313FE8DFEF1FF78FFF
1004
FFFBC807C0BC9A8FF78FFFFFFFFBC7FF2A6318C63E3A7F5B4FF8AE4E0DCADBDCDC5D2E4E0DCADBDCDC5D0BFF0F812FC9A8FF78FFFFFFFFBC7FF5FEAD3F989FF15C9C1B95B7B9B8BA5C9C1B95B7B9B8BA3FC5DC9C1B95B7B9B8BA7FFF092E4E0DCADBDCDC5D0BFFFFC248AEA7EC62AF2335FFFFE1243E042E
1004
4D47FBC7FFFFFFFDE3FF95318C631F1D2BFD5713FE2B938372B6F737174B938372B6F7371747F8BB938372B6F737174FFFE125C9C1B95B7B9B8BA17FFFF84915D4FD8C753F6317FFFF8490F812339351FEF1FFFFFFFF78FFFF84968BE627FC572706E56DEE6E2E972706E56DEE6E2E8FF1772706E56DEE6E
1004
2E9FFFC24B938372B6F7371742FFFFF0922AAF233753F6317FFFF84903361A29B28F951B48F02F2088697224A363291023BF3B67681B28F951B48F02F1C318C696A00AD218C634B500092BC09F2F81A45D8CD78C62F813E7FDE3FFFFFFFEF1FFFFFF524FFA37FBC7FDE3FFFFFF813E7FDE3FFFFFFFEF1FFF
1004
FFF524FFA37FBC7FDE3FFFFFEF201F02F26A3FDE3FFFFFFFEF1FFD7EAB5F10AEAB17FAB4FF8AE4E0DCADBDCDC5D2E4E0DCADBDCDC5D1FE2EE4E0DCADBDCDC5D3FFF84972706E56DEE6E2E85FFFFE12450F3F63157519AFFFFF0921F025F9351FEF1FFFFFFFF78FFFFBC7FD493FE2B938372B6F737174B938
1004
372B6F7371747F8BB938372B6F737174FFFE125C9C1B95B7B9B8BA17FFFF849143CFD8C0F3F6317FFFF8490F810B9351FEF1FFFFFFFF78FFEBF55AF8857559F849FF15C9C1B95B7B9B8BA5C9C1B95B7B9B8BA3FC5DC9C1B95B7B9B8BA7FFF092E4E0DCADBDCDC5D0BFFFFC248AABA8CC3CFD8C5FFFFE1243
1004
E048CE4D47FBC7FFFFFFFDE3FFFEF20A7FA927FC572706E56DEE6E2E972706E56DEE6E2E85FF819B0D1510D2E44946C6526CA3E546D23C0BC80811DF9DB3B40318C696A00AD26CA3E546D23C0BC70C631A5A800495E04F96B126B76335E80B027CFFBC7FFFFFFFDE3FFFEA49FFFF46FF78FFBC7FFFFFF027
1004
CFFBC7FFFFFFFDE3FFFEA49FFFF46FF78FFBC7FFFFFDE403E05E4D47FBC7FFFFFFFDE3FF95318C631F1D3FBC7FF15C9C1B95B7B9B8BA5C9C1B95B7B9B8BA3FC5DC9C1B95B7B9B8BA7FFF092E4E0DCADBDCDC5D0BFFFFC248A30DF198C186F8CC62FFFFF0921F025F9351FEF1FFFFFFFF78FFEBFD5A7FFFC5
1004
72706E56DEE6E2E972706E56DEE6E2E8FF1772706E56DEE6E2E9FFFC24B938372B6F7371742FFFFF0922BB46630DF198C5FFFFE1243E042E4D47FBC7FFFFFFFDE3FF95318C631F1D3FBC87F8AE4E0DCADBDCDC5D2E4E0DCADBDCDC5D0BFF0F812339351FEF1FFFFFFFF78FFFF8495FAAD7C460C1FF15C9C1
1004
B95B7B9B8BA5C9C1B95B7B9B8BA3FC5DC9C1B95B7B9B8BA7FFF092E4E0DCADBDCDC5D0BFFFFC248A30DF198C768CD7FFFF84903361A2AA9D5759B8735D288697224A363291023BF3B6768005A62258595B486318D2D4015A4318C696A001257813E4D00CB76335EA646604F9FF78FFFFFFFFBC7FFFCC4FEA
1004
49FF46FF78FFBC7FFFFFF027CFFBC7FFFFFFFDE3FFFE627F524FFA37FBC7FDE3FFFFFEF201F02F26A3FDE3FFFFFFFEF1FFDFB18C6314C95FEAD3FE2B938372B6F737174B938372B6F7371747F8BB938372B6F737174FFFE125C9C1B95B7B9B8BA17FFFF8491557D198C42A6317FFFF8490F812FC9A8FF78F
1004
FFFFFFFBC7FFFD6D3FA927FC572706E56DEE6E2E972706E56DEE6E2E85FF87C085C9A8FF78FFFFFFFFBC7FF7EC6318C5327F093FE2B938372B6F737174B938372B6F7371747F8BB938372B6F737174FFFE125C9C1B95B7B9B8BA17FFFF849146215318ABE8CD7FFFF8490F812339351FEF1FFFFFFFF78FFE
1004
BFD5712A7FA927FC572706E56DEE6E2E972706E56DEE6E2E8FF1772706E56DEE6E2E9FFFC24B938372B6F7371742FFFFF09228C42A6306215318BFFFFC24819B00220477E76CED01023BF3B67680811DF9DB3B4151698896164C4AA2D3112C2C9891023BF3B67675E567CBC8175FAF202A332B3E7FFFDE3F
1004
FFEF1FFFFFFFFFFD1BFFFFFFFFFF2B3E7FFFDE3FFFEF1FFFFFFFFFFD1BFFFFFFFFFDE3819B0A78811DF9DB3B40408EFCED9DA020477E76CED0545A622585931220477E76CECE18C634B500092BCACF953904BAFD7BB466567CFFBC7FFFFFFFFFDE3FFFFFFA37FFFFFFFFFE567CFFBC7FFFFFFFFFDE3FFFFF
1004
FA37FFFFFFFFFBC7033614F1023BF3B67680811DF9DB3B40408EFCED9DA020477E76CECEA8B4C44B0B2624318C696A001257959F2D621975FAF55D466567CFFFFFFBC7FFFDE3FFFFFFFFA37FFFFFFFFFE567CFFFFFFBC7FFFDE3FFFFFFFFA37FFFFFFFFFBC70336004408EFCED9DA020477E76CED04434B9
1004
1251B194AA2D3112C2C989545A622585931218C634B500092BCACF91DA05D7EBC8028CCACF9FF790FEFBFDF7FBEFEF21FDF7F313F989FC24A37FFFFFFFFFE567CFFBC87F7DFEFBFDF7F790FEFBF989FCC4FE1251BFFFFFFFFFDE3819B0A78811DF9DB3B4154EABACDC394C91023BF3B67682A2D3112C2C98
1004
9545A622585931218C634B500092BCACF97D24175FAF55E466567CFFDF7FBEFEF21FBC87F7DFEFBF989FCC4FE1251BFFFFFFFFFF2B3E7FEFBFDF7F790FDE43FBEFF7DFCC4FE627F0928DFFFFFFFFFEF1C0CD853D54EABACDC394C91023BF3B67680811DF9DB3B4151698896164C4AA2D3112C2C9890C631A
1004
5A800495E567C9B908BAFD7AAFA332B3E7FEFBFBC87F7DFEFBFDF7F790FCC4FE627F0928DFFFFFFFFFF959F3FF7DFDE43FBEFF7DFEFBFBC87E627F313F84946FFFFFFFFFF78E505288697224A36329553AAEB370E6BA510D2E44946C65218C634B500569545A622585931218C634B500092D1A38D66A036B
1004
8788FF7D14A943EA356FAF630DB344B8ED02F8A3B40B9B668975FB18C61528FF78FFFFFFFFBC7FFFD493F989FC24B45FDE3FEF1DA3471ACD406D70F11FEFA505288697224A36329553AAEB370E5324408EFCED9DA018C634B500569545A622585931218C634B500093FFF849149A818E34D97D7B186D9A25
1004
DF4905F15F4905CDB344BAFD8C6309A8FF78FFFFFFFFBC7FFFC24FE627FC5FFFC249414A21A5C8928D8CA554EABACDC394C91023BF3B676806318D2D4015A551698896164C486318D2D40024FFFE124526A1F4D325F63179B668977D2417C536CD12EFA482EC6318BF26A3FDE3FFFFFFFEF1FFD7FAB4FE62
1004
7FC5FFFC249414A21A5C8928D8CA554EABACDC39AE91023BF3B676806318D2D4015A551698896164C48811DF9DB3B3B468E359A80DAE1E23FDF452A50F81A7ADF63179B668977902F8A6D9A25DE40BB18C62FCA947FBC7FFFFFFFDE3FFFEA49FCC4FFB45FDE3FEF1DA3471ACD406D70F11FEFA505220477E
1004
76CED04434B91251B1948811DF9DB3B40408EFCED9D9C318C696A00AD218C634B500093FFF849149A8224972FB18BDF0348BB58865F15F0348BB58865D8C6317E4D47FBC7FFFFFFFDE3FFFDF1463460AFF569FF17FFF092505220477E76CED04434B91251B1948811DF9DB3B40408EFCED9D9C318C696A00
1004
AD218C634B500093FFF849149A87892C5F5EC63E069176B10CBE2B58865DF0348BAFD8C6309A8FF78FFFFFFFFBC7FFFBE28C68C1FC24FF8BFFF84928291023BF3B6768221A5C8928D8CA510D2E44946C6526CA3E546D23C0BC70C631A5A802B486318D2D40024AB471ACD406D70E415A38D66A036B871C52
1004
A5069A34F5BEBD8C7C0D22E3B40BE28ED02EF81A45D7EC631854A3FDE3FFFFFFFEF1FFFFFF524FE125A2FEF1FF78EAD1C6B3501B5C390568E359A80DAE1C728291023BF3B6768221A5C8928D8CA4408EFCED9DA06CA3E546D23C0BC70C631A5A802B48811DF9DB3B3AB471ACD406D70E415A38D66A036B87
1004
1C52A50FA4952FB18BDF0348BBC817C57C0D22EF205D8C6317E54A3FDE3FFFFFFFEF1FFFFFF524FFB45FDE3FEF1D5A38D66A036B8720AD1C6B3501B5C38E505288697224A363291023BF3B67680811DF9DB3B40318C696A00AD220477E76CECE18C634B500093FFF849149A87D445F6317B58935BA9C825F
1004
15AC49ADD4E412EC6318BF26A3FDE3FFFFFFFEF1FFFF093F7C52490C1FF17FFF092505288697224A363291023BF3B67680811DF9DB3B40318C696A00AD220477E76CECE18C634B500093FFF849149A818AAB4BEBD8C6B126B753904BE2A9C825DAC49ADD7EC63184D47FBC7FFFFFFFDE3FFAFF569FFFF17F
1004
FF092505288697224A363291023BF3B6768221A5C8928D8CA4318C696A00AD26CA3E546D23C0BC70C631A5A80049FF68D1C6B3501B5C3C914A943AC9265F5EC6358935B8ED02F8A3B40BB58935BAFD8C630A947FBC7FFFFFFFDE3FFFEA49FFFC24B45FDE3FEF1FFDA3471ACD406D70F24A0A510D2E44946C
1004
65220477E76CED01023BF3B676806318D2D4015A4D947CA8DA478178E20477E76CECFFED1A38D66A036B8792295287D24817D8C5ED624D6EF205F15AC49ADDE40BB18C62FCA947FBC7FFFFFFFDE3FFFEA49FFFF68BFBC7FDE3FFB468E359A80DAE1E49414AA9D5759B8735D288697224A363294434B91251
1004
B194AA2D3112C2C9890C631A5A802B486318D2D40024B468E359A80DAE1E23FC610A54A156903CBEBD8C34032DC76817C51DA05CD00CB75FB18C61528FDF0180C559FBC87FFEF1FDF0180C559FFF989FD493F84968BFBC7FDE3B468E359A80DAE1E23FC611414AA9D5759B87299288697224A363291023BF
1004
3B67682A2D3112C2C9890C631A5A802B486318D2D40024FFFE124526A2D75BEBD8C34032DCDC845F14DC845CD00CB75FB18C61351FEF1FFFFFFFF78FFFF9895FEAD3FE2FFFE124A0A554EABACDC394C94434B91251B1948811DF9DB3B4151698896164C486318D2D4015A4318C696A00127FFF09229350EB
1004
55C5BEC62F34032DCDC845F14D00CB73721176318C5F9351FEF1FFFFFFFF78FFFF989FC24FF8BFFF8492829553AAEB370E6BA510D2E44946C65220477E76CED0545A622585931218C634B5005691023BF3B676768D1C6B3501B5C3C47F8C214A940C5532DF63179A0196EF205F14D00CB77902EC6318BF2A
1004
51FBE03018AB3F790FFFDE3FBE03018AB3FFF313FA927FDA2FEF1FF78ED1A38D66A036B8788FF184505220477E76CED0553AAEB370E5324408EFCED9DA0A8B4C44B0B262551698896164C48811DF9DB3B3FEA4458C6318C2BA029350314C5BEC62F7902EFA482F8AF205DF4905D7EBF26A3FFFDE3FFFFFFF
1004
EF21FA927F313FE2FEA4458C6318C2BA0505220477E76CED0553AAEB370E5324408EFCED9DA0A8B4C44B0B262551698896164C48811DF9DB3B3B18C6318573FEA49149A8252D6FB18BDE40BBE920BE2BC8177D24175FAFC9A8FFFF78FFFFFFFFBC87EA49FCC4FF8AC6318C615CFFA924A0A554EABACDC394
1004
C91023BF3B67680811DF9DB3B4151698896164C4AA2D3112C2C9891023BF3B6767FD488B18C63185740526A0218FADF6317BC817372117C57902E6E422EBF5F9351FEF1FFFFFFFFFF790FCC4FEA49FF17F5222C6318C615D02829553AAEB370E5324408EFCED9DA020477E76CED0545A6225859312A8B4C4
1004
4B0B2624408EFCED9D9D8C6318C2B9FF5248A4D425A35BEC62F7902E6E422F8AF205CDC845D7EBF26A3FDE3FFFFFFFFFEF21F989FD493FE2B18C6318573FEA4928291023BF3B67680811DF9DB3B40408EFCED9DA020477E76CECEA8B4C44B0B2624408EFCED9D9FF308FEAC88A4D41A60800B7D8C5EF205D
1004
AC432F8AF205DAC432EBF5F9351FEF21FFFFFFFFFBC87FFFFF8BF9847F5644A0A4408EFCED9DA020477E76CED01023BF3B67680811DF9DB3B3AA2D3112C2C9891023BF3B67675FE111FEFA293504912012DF6317BC8176B10CBE2BC8176B10CBAFD7E4D47FBC87FFFFFFFFEF21FFFFFE2AFF088FF7D28291
1004
023BF3B67680811DF9DB3B40408EFCED9DA0A8B4C44B0B2624408EFCED9D9C408EFCED9D9FFD7F849149A855A4035BEC62F7902EA72097C57902EA720975FAFC9A8FFFF790FFFFFFFDE43FFFFFC5FF5FE124A0A4408EFCED9DA020477E76CED01023BF3B67682A2D3112C2C9891023BF3B67671023BF3B67
1004
67FD5A7F31229351472DF6317BC81753904BE2BC81753904BAFD7E4D47FFFBC87FFFFFFEF21FFFFFE2FEAD3F98928291023BF3B67680811DF9DB3B4110D2E44946C652A8B4C44B0B2624408EFCED9D9C318C696A00127F5222C6318C615D0149A87590116FB18BD4E412E3B40BE2A9C825C768175FAFC9A8
1004
FFFFFF78FFFFBC87FFEA49FFFC248BFA9116318C630AE814148811DF9DB3B40408EFCED9DA088697224A36329545A622585931220477E76CECE18C634B500092C6318C615CFFA924526A0D3A4065BEC62F53904B8ED02F8AA720971DA05D7EBF26A3FFFFFDE3FFFEF21FFFA927FFF0922B18C6318573FEA4
1004
92829553AAEB370E5324408EFCED9DA020477E76CED0545A622585931220477E76CECE18C634B500093FC8FF48A4D423EEB5BEC62F53904B9B908BE2A9C825CDC845D7EBF26A3FDE3FFFFFFFEF21FFF989FFFE917F91FE928291023BF3B67680811DF9DB3B40408EFCED9DA020477E76CECE20477E76CECE
1004
18C634B500093FFF849149A8224075BEC62F53904BB58865F154E412ED621975FAFC9A8FF790FFFFFFFDE43FFFFFFFC5FFFC2494148811DF9DB3B40408EFCED9DA088697224A363291023BF3B6767545A622585931218C634B500093FA9116318C630AE80A4D43C0ADF6317B58865C76817C56B10CB8ED02
1004
EBF5F9351FFFFFEF1FF790FFFFFFFD493F84917F5222C6318C615D028291023BF3B67680811DF9DB3B4110D2E44946C65220477E76CECEA8B4C44B0B2624318C696A001258C6318C2B9FF5248A4D4358810B7D8C5ED621971DA05F15AC432E3B40BAFD7E4D47FFFFFBC7FDE43FFFFFFF524FE12456318C63
1004
0AE7FD492505220477E76CED0553AAEB370E5324408EFCED9DA020477E76CECEA8B4C44B0B2624318C696A00127F91FE9149A818E204ADF6317B58865DF4905F15AC432EFA482EBF5F9351FFFEF1FFFF790FFFFFFFCC4FF48BFC8FF494148811DF9DB3B4154EABACDC394C94434B91251B194AA2D3112C2C
1004
989545A622585931218C634B500093F9847F5644526A1F4814B7D8C5E3B40BBE920BE28ED02EFA482EBF5F9351FFFEF1FFFFFFFF78FF989FCC4FE1245FCC23FAB22505220477E76CED0553AAEB370E532510D2E44946C652A8B4C44B0B262551698896164C486318D2D40024AFF088FF7D149A818A40B5BE
1004
C62F1DA05DF4905F14768177D24175FAFC9A8FFFF78FFFFFFFFBC7FCC4FE627F0922AFF088FF7D2829553AAEB370E5324408EFCED9DA088697224A36329545A6225859312A8B4C44B0B2624318C696A00127FD7F849149A82536D6FB18BC76817372117C51DA05CDC845D7EBF26A3FDE3FFFFFF7DFFFDE3F
1004
E627F313F84917FD7F8492829553AAEB370E5324408EFCED9DA088697224A36329545A6225859312A8B4C44B0B2624318C696A00127F569FCC48A4D40440C5BEC62F1DA05CDC845F14768173721175FAFC9A8FF78FFFFFFDF7FFF78FF989FCC4FE1245FD5A7F3125052AA755D66E1CA64AA9D5759B872992
1004
20477E76CED0545A6225859312A8B4C44B0B2624318C696A00127F088FF7D149A8490356FB18BDF4905CDC845F15F4905CDC845D7EBF26A3FDE3FFFFFFFEF1FFFF313F989FC248BF8447FBE862A18F7E
1005
80
  0
INSERT
  8
AME_FRZ
  5
80
  2
AME_NIL
 10
1.0
 20
1.0
 30
1.0
1001
AME_SOL
1004

1005
0
  0
ENDSEC
  0
EOF
