600 0 1 0           
102 GICL ACIS Healer - Source: /gicl/data5/repository/NIST/Manfred_Osti/suitcase/valve/valve.prt.sat - 6 0 18 ACIS 6.0.3 Solaris 24 Sun Apr 14 00:36:35 2002 
1 9.999999999999999547e-07 1.000000000000000036e-10 
body $-1 $1 $-1 $-1 #
lump $-1 $-1 $2 $0 #
shell $-1 $-1 $-1 $3 $-1 $1 #
face $-1 $4 $5 $2 $-1 $6 reversed single #
face $-1 $7 $8 $2 $-1 $9 reversed single #
loop $-1 $-1 $10 $3 #
plane-surface $-1 0 0 -16.63700000000000045 0 0 1 25.39999999999999858 0 0 forward_v I I I I #
face $-1 $11 $12 $2 $-1 $13 forward single #
loop $-1 $14 $15 $4 #
plane-surface $-1 70.48499999999999943 172.4659999999999798 -16.63700000000000045 0 1 0 25.39999999999999858 0 0 forward_v I I I I #
coedge $-1 $16 $17 $18 $19 forward $5 $-1 #
face $-1 $20 $21 $2 $-1 $22 forward single #
loop $-1 $-1 $23 $7 #
plane-surface $-1 88.89999999999999147 172.4659999999999798 -37.33799999999999386 0 0 -1 -25.39999999999999858 0 0 forward_v I I I I #
loop $-1 $-1 $24 $4 #
coedge $-1 $25 $26 $27 $28 reversed $8 $-1 #
coedge $-1 $29 $10 $30 $31 reversed $5 $-1 #
coedge $-1 $10 $29 $32 $33 reversed $5 $-1 #
coedge $-1 $24 $34 $10 $19 reversed $14 $-1 #
edge $-1 $35 0 $36 5.549999999999999822 $10 $37 forward 7 unknown #
face $-1 $38 $39 $2 $-1 $40 forward single #
loop $-1 $-1 $41 $11 #
plane-surface $-1 -88.89999999999999147 172.4659999999999798 -37.33799999999999386 -1 0 0 0 0 25.39999999999999858 forward_v I I I I #
coedge $-1 $42 $27 $43 $44 forward $12 $-1 #
coedge $-1 $45 $18 $46 $47 forward $14 $-1 #
coedge $-1 $48 $15 $49 $50 reversed $8 $-1 #
coedge $-1 $15 $48 $51 $52 reversed $8 $-1 #
coedge $-1 $23 $53 $15 $28 forward $12 $-1 #
edge $-1 $54 0 $55 6.999999999999998224 $15 $56 forward 7 unknown #
coedge $-1 $17 $16 $57 $58 reversed $5 $-1 #
coedge $-1 $59 $60 $16 $31 forward $61 $-1 #
edge $-1 $62 0 $36 5.650098688482199094 $16 $63 forward 7 unknown #
coedge $-1 $64 $46 $17 $33 forward $65 $-1 #
edge $-1 $35 0 $66 5.650098688482199982 $17 $67 forward 7 unknown #
coedge $-1 $18 $45 $59 $68 reversed $14 $-1 #
vertex $-1 $33 $69 #
vertex $-1 $31 $70 #
straight-curve $-1 -70.48499999999999943 172.4659999999999798 -16.63700000000000045 25.39999999999999858 0 0 I I #
face $-1 $71 $72 $2 $-1 $73 forward single #
loop $-1 $-1 $74 $20 #
plane-surface $-1 -88.89999999999999147 172.4659999999999798 37.33799999999999386 0 0 1 25.39999999999999858 0 0 forward_v I I I I #
coedge $-1 $75 $51 $76 $77 forward $21 $-1 #
coedge $-1 $53 $23 $78 $79 reversed $12 $-1 #
coedge $-1 $51 $75 $23 $44 reversed $21 $-1 #
edge $-1 $55 0 $80 1.999999999999999334 $43 $81 forward 7 unknown #
coedge $-1 $34 $24 $82 $83 forward $14 $-1 #
coedge $-1 $32 $84 $24 $47 reversed $65 $-1 #
edge $-1 $35 0 $85 1.310000000000000053 $46 $86 forward 7 unknown #
coedge $-1 $26 $25 $87 $88 reversed $8 $-1 #
coedge $-1 $89 $90 $25 $50 forward $72 $-1 #
edge $-1 $91 0 $54 2.939999999999999503 $25 $92 forward 7 unknown #
coedge $-1 $41 $43 $26 $52 forward $21 $-1 #
edge $-1 $55 0 $93 2.939999999999999503 $26 $94 forward 7 unknown #
coedge $-1 $27 $42 $89 $95 reversed $12 $-1 #
vertex $-1 $50 $96 #
vertex $-1 $52 $97 #
straight-curve $-1 88.89999999999999147 172.4659999999999798 -37.33799999999999386 -25.39999999999999858 0 0 I I #
coedge $-1 $98 $99 $29 $58 forward $100 $-1 #
edge $-1 $66 0 $62 2.362071187994843502 $29 $101 forward 7 unknown #
coedge $-1 $102 $30 $34 $68 forward $61 $-1 #
coedge $-1 $30 $103 $104 $105 forward $61 $-1 #
loop $-1 $-1 $102 $106 #
vertex $-1 $58 $107 #
straight-curve $-1 70.48499999999999943 28.95349331255211922 -16.63700000000000045 0 25.39999999999999858 0 I I #
coedge $-1 $108 $32 $109 $110 reversed $65 $-1 #
loop $-1 $-1 $32 $111 #
vertex $-1 $33 $112 #
straight-curve $-1 -70.48499999999999943 172.4659999999999798 -16.63700000000000045 0 -25.39999999999999858 0 I I #
edge $-1 $36 0 $113 1.310000000000000053 $59 $114 forward 7 unknown #
point $-1 -70.48499999999999943 172.4659999999999798 -16.63700000000000045 #
point $-1 70.48499999999999943 172.4659999999999798 -16.63700000000000045 #
face $-1 $115 $116 $2 $-1 $117 forward single #
loop $-1 $-1 $89 $38 #
plane-surface $-1 88.89999999999999147 172.4659999999999798 37.33799999999999386 1 0 0 0 0 -25.39999999999999858 forward_v I I I I #
coedge $-1 $118 $87 $90 $119 forward $39 $-1 #
coedge $-1 $43 $41 $120 $121 reversed $21 $-1 #
coedge $-1 $87 $118 $41 $77 reversed $39 $-1 #
edge $-1 $93 0 $122 1.999999999999999334 $41 $123 forward 7 unknown #
coedge $-1 $120 $124 $42 $79 forward $116 $-1 #
edge $-1 $125 0 $80 6.999999999999998224 $78 $126 forward 7 unknown #
vertex $-1 $121 $127 #
straight-curve $-1 -88.89999999999999147 172.4659999999999798 -37.33799999999999386 0 25.39999999999999858 0 I I #
coedge $-1 $128 $129 $45 $83 reversed $130 $-1 #
edge $-1 $85 0 $113 5.549999999999999822 $82 $131 forward 7 unknown #
coedge $-1 $46 $132 $128 $133 reversed $65 $-1 #
vertex $-1 $133 $134 #
straight-curve $-1 -70.48499999999999943 172.4659999999999798 -16.63700000000000045 0 0 25.39999999999999858 I I #
coedge $-1 $74 $76 $48 $88 forward $39 $-1 #
edge $-1 $93 0 $91 6.999999999999998224 $48 $135 forward 7 unknown #
coedge $-1 $136 $49 $53 $95 forward $72 $-1 #
coedge $-1 $49 $136 $74 $119 reversed $72 $-1 #
vertex $-1 $88 $137 #
straight-curve $-1 88.89999999999999147 172.4659999999999798 37.33799999999999386 0 0 -25.39999999999999858 I I #
vertex $-1 $52 $138 #
straight-curve $-1 -88.89999999999999147 172.4659999999999798 -37.33799999999999386 0 0 25.39999999999999858 I I #
edge $-1 $54 0 $125 1.999999999999999334 $89 $139 forward 7 unknown #
point $-1 88.89999999999999147 172.4659999999999798 -37.33799999999999386 #
point $-1 -88.89999999999997726 172.4659999999999798 -37.33799999999999386 #
coedge $-1 $140 $57 $141 $142 forward $100 $-1 #
coedge $-1 $57 $143 $144 $145 forward $100 $-1 #
loop $-1 $-1 $98 $146 #
ellipse-curve $-1 0 0 -16.63700000000000045 0 0 -1 -70.48499999999999943 28.95349331255210856 0 1 I I #
coedge $-1 $147 $59 $129 $148 reversed $61 $-1 #
coedge $-1 $60 $149 $150 $151 forward $61 $-1 #
coedge $-1 $152 $141 $60 $105 reversed $153 $-1 #
edge $-1 $154 0 $62 2.279802623035599662 $60 $155 forward 7 unknown #
face $-1 $156 $61 $2 $-1 $157 forward single #
point $-1 70.48499999999999943 28.95349331255211922 -16.63700000000000045 #
coedge $-1 $158 $64 $159 $160 forward $65 $-1 #
coedge $-1 $144 $161 $64 $110 forward $162 $-1 #
edge $-1 $163 -1.398706172756102709e-16 $66 2.279802623035598774 $64 $164 forward 7 unknown #
face $-1 $165 $65 $2 $-1 $166 forward single #
point $-1 -70.48499999999999943 28.95349331255210856 -16.63700000000000045 #
vertex $-1 $148 $167 #
straight-curve $-1 70.48499999999999943 172.4659999999999798 -16.63700000000000045 0 0 25.39999999999999858 I I #
face $-1 $168 $169 $2 $-1 $170 forward single #
loop $-1 $171 $172 $71 #
plane-surface $-1 70.48499999999999943 223.2659999999999627 -16.63700000000000045 0 1 0 25.39999999999999858 0 0 forward_v I I I I #
coedge $-1 $76 $74 $172 $173 reversed $39 $-1 #
edge $-1 $91 0 $174 1.999999999999999334 $74 $175 forward 7 unknown #
coedge $-1 $172 $78 $75 $121 forward $116 $-1 #
edge $-1 $80 0 $122 2.939999999999999503 $120 $176 forward 7 unknown #
vertex $-1 $121 $177 #
straight-curve $-1 -88.89999999999999147 172.4659999999999798 37.33799999999999386 0 25.39999999999999858 0 I I #
coedge $-1 $78 $172 $136 $178 forward $116 $-1 #
vertex $-1 $79 $179 #
straight-curve $-1 88.89999999999999147 223.2659999999999627 -37.33799999999999386 -25.39999999999999858 0 0 I I #
point $-1 -88.89999999999997726 223.2659999999999627 -37.33799999999999386 #
coedge $-1 $180 $82 $84 $133 forward $130 $-1 #
coedge $-1 $82 $180 $102 $148 forward $130 $-1 #
loop $-1 $-1 $82 $156 #
straight-curve $-1 -70.48499999999999943 172.4659999999999798 16.63700000000000045 25.39999999999999858 0 0 I I #
coedge $-1 $84 $181 $182 $183 forward $65 $-1 #
edge $-1 $85 0 $184 5.650098688482199094 $128 $185 forward 7 unknown #
point $-1 -70.48499999999999943 172.4659999999999798 16.63700000000000045 #
straight-curve $-1 -88.89999999999997726 172.4659999999999798 37.33799999999999386 25.39999999999999858 0 0 I I #
coedge $-1 $90 $89 $124 $178 reversed $72 $-1 #
point $-1 88.89999999999999147 172.4659999999999798 37.33799999999999386 #
point $-1 -88.89999999999997726 172.4659999999999798 37.33799999999999386 #
straight-curve $-1 88.89999999999999147 172.4659999999999798 -37.33799999999999386 0 25.39999999999999858 0 I I #
coedge $-1 $186 $98 $187 $188 forward $100 $-1 #
coedge $-1 $104 $152 $98 $142 reversed $153 $-1 #
edge $-1 $62 1.566355119096947797e-16 $189 0.3897607327974748626 $141 $190 forward 7 unknown #
coedge $-1 $99 $186 $191 $192 reversed $100 $-1 #
coedge $-1 $161 $109 $99 $145 reversed $162 $-1 #
edge $-1 $193 0 $66 0.3897607327974747515 $144 $194 forward 7 unknown #
face $-1 $195 $100 $2 $-1 $196 forward single #
coedge $-1 $197 $102 $198 $199 reversed $61 $-1 #
edge $-1 $200 -1.398706172756102709e-16 $113 5.650098688482199094 $129 $201 forward 7 unknown #
coedge $-1 $103 $197 $202 $203 reversed $61 $-1 #
coedge $-1 $204 $205 $103 $151 reversed $206 $-1 #
edge $-1 $207 0 $154 1.860098688482200613 $150 $208 forward 7 unknown #
coedge $-1 $141 $104 $209 $210 reversed $153 $-1 #
loop $-1 $-1 $152 $195 #
vertex $-1 $211 $212 #
straight-curve $-1 70.48499999999999943 -28.95349331255210146 -16.63700000000000045 0 25.39999999999999858 0 I I #
face $-1 $213 $130 $2 $-1 $214 forward single #
plane-surface $-1 70.48499999999999943 -76.19999999999998863 -16.63700000000000045 1 0 0 0 25.39999999999999858 0 forward_v I I I I #
coedge $-1 $181 $108 $215 $216 forward $65 $-1 #
coedge $-1 $217 $218 $108 $160 reversed $219 $-1 #
edge $-1 $163 1.398706172756102709e-16 $220 1.860098688482200613 $159 $221 forward 7 unknown #
coedge $-1 $109 $144 $222 $223 reversed $162 $-1 #
loop $-1 $-1 $144 $165 #
vertex $-1 $224 $225 #
straight-curve $-1 -70.48499999999999943 -28.9534933125520979 -16.63700000000000045 0 25.39999999999999858 0 I I #
face $-1 $146 $162 $2 $-1 $226 reversed single #
plane-surface $-1 -70.48499999999999943 172.4659999999999798 -16.63700000000000045 -1 0 0 0 -25.39999999999999858 0 forward_v I I I I #
point $-1 70.48499999999999943 172.4659999999999798 16.63700000000000045 #
face $-1 $227 $228 $2 $-1 $229 forward single #
loop $-1 $-1 $230 $115 #
cone-surface $-1 50.79999999999999716 223.2659999999999627 0 0 1 0 -31.75 0 0 1 I I 0 1 31.75 forward I I I I #
loop $-1 $-1 $231 $71 #
coedge $-1 $124 $120 $118 $173 forward $116 $-1 #
edge $-1 $122 0 $174 6.999999999999998224 $172 $232 forward 7 unknown #
vertex $-1 $178 $233 #
straight-curve $-1 88.89999999999999147 172.4659999999999798 37.33799999999999386 0 25.39999999999999858 0 I I #
straight-curve $-1 -88.89999999999999147 223.2659999999999627 -37.33799999999999386 0 0 25.39999999999999858 I I #
point $-1 -88.89999999999997726 223.2659999999999627 37.33799999999999386 #
edge $-1 $174 0 $125 2.939999999999999503 $124 $234 forward 7 unknown #
point $-1 88.89999999999999147 223.2659999999999627 -37.33799999999999386 #
coedge $-1 $129 $128 $235 $236 reversed $130 $-1 #
coedge $-1 $132 $158 $237 $238 reversed $65 $-1 #
coedge $-1 $239 $240 $132 $183 reversed $241 $-1 #
edge $-1 $242 4.196118518268308619e-16 $184 2.279802623035600995 $132 $243 forward 7 unknown #
vertex $-1 $236 $244 #
straight-curve $-1 -70.48499999999999943 172.4659999999999798 16.63700000000000045 0 -25.39999999999999858 0 I I #
coedge $-1 $143 $140 $245 $246 reversed $100 $-1 #
coedge $-1 $209 $247 $140 $188 reversed $248 $-1 #
edge $-1 $189 0 $249 0.8399999999999999689 $140 $250 forward 7 unknown #
vertex $-1 $142 $251 #
ellipse-curve $-1 0 0 -16.63700000000000045 0 0 -1 70.48499999999999943 28.95349331255212988 0 1 I I #
coedge $-1 $247 $222 $143 $192 forward $248 $-1 #
edge $-1 $193 0 $252 0.8399999999999999689 $143 $253 forward 7 unknown #
vertex $-1 $223 $254 #
ellipse-curve $-1 0 0 -16.63700000000000045 0 0 -1 -76.19999999999998863 0 0 1 I I #
face $-1 $255 $153 $2 $-1 $256 reversed single #
cone-surface $-1 0 0 -16.63700000000000045 0 0 -1 -76.19999999999998863 0 0 1 I I 0 1 76.19999999999998863 forward I I I I #
coedge $-1 $149 $147 $257 $258 reversed $61 $-1 #
coedge $-1 $259 $260 $147 $199 forward $261 $-1 #
edge $-1 $262 0 $200 2.279802623035599662 $147 $263 forward 7 unknown #
vertex $-1 $148 $264 #
straight-curve $-1 70.48499999999999943 28.95349331255211922 16.63700000000000045 0 25.39999999999999858 0 I I #
coedge $-1 $265 $266 $149 $203 forward $267 $-1 #
edge $-1 $207 0 $268 1.310000000000000053 $202 $269 forward 7 unknown #
coedge $-1 $205 $150 $266 $270 reversed $206 $-1 #
coedge $-1 $150 $204 $271 $211 reversed $206 $-1 #
loop $-1 $-1 $150 $272 #
vertex $-1 $270 $273 #
straight-curve $-1 70.48499999999999943 -76.19999999999998863 -16.63700000000000045 0 25.39999999999999858 0 I I #
coedge $-1 $271 $187 $152 $210 forward $248 $-1 #
edge $-1 $189 -1.224606353822377258e-16 $154 0.389760732797474696 $152 $274 forward 7 unknown #
edge $-1 $154 0 $275 1.181035593997421973 $205 $276 forward 7 unknown #
point $-1 70.48499999999999943 -28.95349331255210146 -16.63700000000000045 #
face $-1 $277 $278 $2 $-1 $279 forward single #
plane-surface $-1 0 0 16.63700000000000045 0 0 1 25.39999999999999858 0 0 forward_v I I I I #
coedge $-1 $280 $281 $158 $216 reversed $267 $-1 #
edge $-1 $220 0 $282 1.310000000000000053 $158 $283 forward 7 unknown #
coedge $-1 $218 $159 $284 $224 reversed $219 $-1 #
coedge $-1 $159 $217 $280 $285 reversed $219 $-1 #
loop $-1 $-1 $218 $286 #
vertex $-1 $160 $287 #
straight-curve $-1 -70.48499999999999943 -28.9534933125520979 -16.63700000000000045 0 -25.39999999999999858 0 I I #
coedge $-1 $191 $284 $161 $223 forward $248 $-1 #
edge $-1 $163 2.741121458419659262e-16 $193 0.3897607327974749736 $161 $288 forward 7 unknown #
edge $-1 $275 0 $163 1.181035593997421973 $217 $289 forward 7 unknown #
point $-1 -70.48499999999999943 -28.95349331255210146 -16.63700000000000045 #
plane-surface $-1 0 0 -16.63700000000000045 0 0 -1 -25.39999999999999858 0 0 forward_v I I I I #
face $-1 $290 $291 $2 $-1 $292 forward single #
loop $-1 $-1 $293 $168 #
cone-surface $-1 50.79999999999999716 223.2659999999999627 0 0 1 0 -31.75 0 0 1 I I 0 1 31.75 forward I I I I #
coedge $-1 $294 $295 $296 $297 forward $169 $-1 #
coedge $-1 $298 $298 $295 $299 reversed $171 $-1 #
straight-curve $-1 -88.89999999999997726 223.2659999999999627 37.33799999999999386 25.39999999999999858 0 0 I I #
point $-1 88.89999999999999147 223.2659999999999627 37.33799999999999386 #
straight-curve $-1 88.89999999999999147 223.2659999999999627 37.33799999999999386 0 0 -25.39999999999999858 I I #
coedge $-1 $300 $301 $180 $236 forward $278 $-1 #
edge $-1 $200 0 $184 2.362071187994843058 $180 $302 forward 7 unknown #
coedge $-1 $303 $304 $181 $238 forward $305 $-1 #
edge $-1 $242 4.196118518268308619e-16 $282 1.860098688482200613 $237 $306 forward 7 unknown #
coedge $-1 $240 $182 $307 $308 reversed $241 $-1 #
coedge $-1 $182 $239 $300 $309 reversed $241 $-1 #
loop $-1 $-1 $239 $277 #
vertex $-1 $310 $311 #
straight-curve $-1 -70.48499999999999943 -28.95349331255211922 16.63700000000000045 0 25.39999999999999858 0 I I #
point $-1 -70.48499999999999943 28.95349331255214054 16.63700000000000045 #
coedge $-1 $312 $312 $186 $246 forward $313 $-1 #
edge $-1 $252 0 $249 3.141592653589793116 $245 $314 forward 7 unknown #
coedge $-1 $187 $191 $312 $315 reversed $248 $-1 #
loop $-1 $-1 $284 $255 #
vertex $-1 $246 $316 #
straight-curve $-1 76.19999999999998863 9.331500416126514076e-15 -16.63700000000000045 0 0 -25.39999999999999858 I I #
point $-1 76.19999999999998863 9.331500416126514076e-15 -16.63700000000000045 #
vertex $-1 $246 $317 #
straight-curve $-1 -76.19999999999998863 0 -16.63700000000000045 0 0 -25.39999999999999858 I I #
point $-1 -76.19999999999998863 0 -16.63700000000000045 #
face $-1 $286 $248 $2 $-1 $318 forward single #
plane-surface $-1 0 0 -16.63700000000000045 0 0 -1 -25.39999999999999858 0 0 forward_v I I I I #
coedge $-1 $319 $320 $197 $258 forward $321 $-1 #
edge $-1 $268 0 $262 1.860098688482199947 $257 $322 forward 7 unknown #
coedge $-1 $260 $198 $301 $323 reversed $261 $-1 #
coedge $-1 $198 $259 $324 $325 reversed $261 $-1 #
loop $-1 $-1 $259 $326 #
vertex $-1 $327 $328 #
straight-curve $-1 70.48499999999999943 -28.95349331255210856 16.63700000000000045 0 25.39999999999999858 0 I I #
point $-1 70.48499999999999943 28.95349331255211567 16.63700000000000045 #
coedge $-1 $281 $202 $320 $329 reversed $267 $-1 #
coedge $-1 $202 $280 $204 $270 forward $267 $-1 #
loop $-1 $-1 $266 $330 #
vertex $-1 $258 $331 #
straight-curve $-1 70.48499999999999943 -76.19999999999998863 -16.63700000000000045 0 0 25.39999999999999858 I I #
edge $-1 $275 0 $207 2.774999999999999911 $204 $332 forward 7 unknown #
coedge $-1 $284 $209 $205 $211 forward $248 $-1 #
face $-1 $106 $206 $2 $-1 $333 reversed single #
point $-1 70.48499999999999943 -76.19999999999998863 -16.63700000000000045 #
ellipse-curve $-1 0 0 -16.63700000000000045 0 0 -1 76.19999999999998863 0 0 1 I I #
vertex $-1 $224 $334 #
ellipse-curve $-1 0 0 -16.63700000000000045 0 0 -1 70.48499999999999943 -28.95349331255210146 0 1 I I #
face $-1 $335 $241 $2 $-1 $336 reversed single #
loop $-1 $-1 $300 $213 #
cone-surface $-1 0 0 16.63700000000000045 0 0 1 76.19999999999998863 0 0 1 I I 0 1 76.19999999999998863 forward I I I I #
coedge $-1 $266 $215 $218 $285 forward $267 $-1 #
coedge $-1 $215 $265 $303 $337 reversed $267 $-1 #
vertex $-1 $337 $338 #
straight-curve $-1 -70.48499999999999943 -76.19999999999997442 -16.63700000000000045 0 0 25.39999999999999858 I I #
coedge $-1 $222 $271 $217 $224 forward $248 $-1 #
edge $-1 $220 0 $275 2.774999999999999911 $218 $339 forward 7 unknown #
face $-1 $330 $219 $2 $-1 $340 reversed single #
point $-1 -70.48499999999999943 -76.19999999999998863 -16.63700000000000045 #
ellipse-curve $-1 0 0 -16.63700000000000045 0 0 -1 -70.48499999999999943 -28.95349331255212633 0 1 I I #
ellipse-curve $-1 0 0 -16.63700000000000045 0 0 -1 0 -76.19999999999998863 0 1 I I #
face $-1 $341 $342 $2 $-1 $343 forward single #
loop $-1 $344 $345 $227 #
plane-surface $-1 70.48499999999999943 406.6539999999999395 -16.63700000000000045 0 1 0 -25.39999999999999858 0 0 forward_v I I I I #
coedge $-1 $346 $347 $348 $349 forward $228 $-1 #
coedge $-1 $348 $230 $345 $350 reversed $169 $-1 #
coedge $-1 $230 $348 $231 $299 forward $169 $-1 #
coedge $-1 $347 $346 $230 $297 reversed $228 $-1 #
edge $-1 $351 0 $352 7.219999999999999751 $296 $353 forward 7 unknown #
coedge $-1 $231 $231 $347 $354 reversed $171 $-1 #
edge $-1 $355 0 $351 3.141592653589793116 $231 $356 forward 7 unknown #
coedge $-1 $357 $235 $240 $309 forward $278 $-1 #
coedge $-1 $235 $358 $259 $323 forward $278 $-1 #
ellipse-curve $-1 0 0 16.63700000000000045 0 0 1 70.48499999999999943 28.95349331255211567 0 1 I I #
coedge $-1 $304 $237 $281 $337 forward $305 $-1 #
coedge $-1 $237 $303 $359 $310 reversed $305 $-1 #
loop $-1 $-1 $237 $360 #
straight-curve $-1 -70.48499999999999943 -28.9534933125520979 16.63700000000000045 0 -25.39999999999999858 0 I I #
coedge $-1 $359 $361 $239 $308 forward $362 $-1 #
edge $-1 $363 -1.224606353822377258e-16 $242 0.3897607327974747515 $239 $364 forward 7 unknown #
edge $-1 $184 1.566355119096947304e-16 $363 0.3897607327974752511 $240 $365 forward 7 unknown #
edge $-1 $242 0 $366 1.181035593997421973 $304 $367 forward 7 unknown #
point $-1 -70.48499999999999943 -28.95349331255210856 16.63700000000000045 #
coedge $-1 $245 $245 $247 $315 forward $313 $-1 #
loop $-1 $368 $312 $369 #
ellipse-curve $-1 2.819966482547897455e-15 5.63993296509579491e-15 -37.97299999999999898 0 0 -1 -76.19999999999998863 -5.63993296509579491e-15 0 1 I I #
edge $-1 $249 0 $252 3.141592653589793116 $312 $370 forward 7 unknown #
point $-1 76.19999999999998863 0 -37.97299999999999898 #
point $-1 -76.19999999999998863 0 -37.97299999999999898 #
cone-surface $-1 0 0 -16.63700000000000045 0 0 -1 -76.19999999999998863 0 0 1 I I 0 1 76.19999999999998863 forward I I I I #
coedge $-1 $320 $257 $371 $327 reversed $321 $-1 #
coedge $-1 $257 $319 $265 $329 forward $321 $-1 #
loop $-1 $-1 $320 $372 #
straight-curve $-1 70.48499999999999943 -76.19999999999998863 16.63700000000000045 0 25.39999999999999858 0 I I #
edge $-1 $373 0 $200 0.389760732797474807 $259 $374 forward 7 unknown #
coedge $-1 $375 $371 $260 $325 forward $362 $-1 #
edge $-1 $262 2.741121458419658769e-16 $373 0.3897607327974749736 $260 $376 forward 7 unknown #
face $-1 $377 $261 $2 $-1 $378 reversed single #
edge $-1 $366 0 $262 1.181035593997421973 $319 $379 forward 7 unknown #
point $-1 70.48499999999999943 -28.95349331255210856 16.63700000000000045 #
edge $-1 $366 0 $268 2.774999999999999911 $320 $380 forward 7 unknown #
face $-1 $272 $267 $2 $-1 $381 forward single #
point $-1 70.48499999999999943 -76.19999999999998863 16.63700000000000045 #
straight-curve $-1 0 -76.19999999999998863 -16.63700000000000045 25.39999999999999858 0 0 I I #
plane-surface $-1 0 0 -16.63700000000000045 0 0 1 25.39999999999999858 0 0 forward_v I I I I #
point $-1 0 -76.19999999999998863 -16.63700000000000045 #
face $-1 $372 $362 $2 $-1 $382 forward single #
plane-surface $-1 0 0 16.63700000000000045 0 0 1 25.39999999999999858 0 0 forward_v I I I I #
edge $-1 $282 0 $366 2.774999999999999911 $303 $383 forward 7 unknown #
point $-1 -70.48499999999999943 -76.19999999999998863 16.63700000000000045 #
straight-curve $-1 -70.48499999999999943 -76.19999999999998863 -16.63700000000000045 25.39999999999999858 0 0 I I #
plane-surface $-1 0 0 -16.63700000000000045 0 0 1 25.39999999999999858 0 0 forward_v I I I I #
face $-1 $384 $385 $2 $-1 $386 forward single #
loop $-1 $-1 $387 $290 #
cone-surface $-1 69.84999999999999432 406.6539999999999395 0 0 1 0 9.524999999999998579 0 0 1 I I 0 1 9.524999999999998579 forward I I I I #
loop $-1 $-1 $388 $227 #
coedge $-1 $389 $389 $294 $350 forward $291 $-1 #
coedge $-1 $296 $293 $389 $390 reversed $228 $-1 #
coedge $-1 $293 $296 $298 $354 forward $228 $-1 #
coedge $-1 $295 $294 $293 $349 reversed $169 $-1 #
edge $-1 $355 0 $391 7.219999999999999751 $293 $392 forward 7 unknown #
edge $-1 $391 0 $352 3.141592653589793116 $345 $393 forward 7 unknown #
vertex $-1 $354 $394 #
vertex $-1 $390 $395 #
straight-curve $-1 19.04999999999999716 223.2659999999999627 0 0 25.39999999999999858 0 I I #
edge $-1 $351 0 $355 3.141592653589793116 $298 $396 forward 7 unknown #
vertex $-1 $354 $397 #
ellipse-curve $-1 50.79999999999999716 223.2659999999999627 0 0 1 0 31.75 0 2.819966482547897455e-15 1 I I #
coedge $-1 $398 $300 $361 $399 forward $278 $-1 #
coedge $-1 $301 $398 $375 $400 reversed $278 $-1 #
coedge $-1 $371 $307 $304 $310 forward $362 $-1 #
face $-1 $-1 $305 $2 $-1 $401 forward single #
coedge $-1 $307 $402 $357 $399 reversed $362 $-1 #
loop $-1 $-1 $371 $335 #
vertex $-1 $309 $403 #
ellipse-curve $-1 0 0 16.63700000000000045 0 0 1 -76.19999999999998863 0 0 1 I I #
ellipse-curve $-1 0 0 16.63700000000000045 0 0 1 -70.48499999999999943 28.95349331255215475 0 1 I I #
vertex $-1 $327 $404 #
ellipse-curve $-1 0 0 16.63700000000000045 0 0 1 -70.48499999999999943 -28.95349331255210856 0 1 I I #
loop $-1 $405 $406 $369 #
face $-1 $407 $313 $2 $-1 $408 forward single #
ellipse-curve $-1 0 -2.819966482547897455e-15 -37.97299999999999898 0 0 -1 76.19999999999998863 2.819966482547897455e-15 0 1 I I #
coedge $-1 $324 $359 $319 $327 forward $362 $-1 #
face $-1 $326 $321 $2 $-1 $409 forward single #
vertex $-1 $325 $410 #
ellipse-curve $-1 0 0 16.63700000000000045 0 0 1 76.19999999999998863 0 0 1 I I #
coedge $-1 $402 $324 $358 $400 forward $362 $-1 #
ellipse-curve $-1 0 0 16.63700000000000045 0 0 1 70.48499999999999943 -28.95349331255212988 0 1 I I #
face $-1 $411 $412 $2 $-1 $413 forward single #
plane-surface $-1 0 0 16.63700000000000045 0 0 1 25.39999999999999858 0 0 forward_v I I I I #
ellipse-curve $-1 0 0 16.63700000000000045 0 0 1 0 -76.19999999999998863 0 1 I I #
straight-curve $-1 0 -76.19999999999998863 16.63700000000000045 25.39999999999999858 0 0 I I #
plane-surface $-1 -70.48499999999999943 -76.19999999999998863 -16.63700000000000045 0 -1 0 25.39999999999999858 0 0 forward_v I I I I #
cone-surface $-1 0 0 16.63700000000000045 0 0 1 76.19999999999998863 0 0 1 I I 0 1 76.19999999999998863 forward I I I I #
straight-curve $-1 -70.48499999999999943 -76.19999999999998863 16.63700000000000045 25.39999999999999858 0 0 I I #
face $-1 $111 $414 $2 $-1 $415 forward single #
loop $-1 $-1 $416 $341 #
cone-surface $-1 69.84999999999999432 406.6539999999999395 0 0 1 0 9.524999999999998579 0 0 1 I I 0 1 9.524999999999998579 forward I I I I #
coedge $-1 $417 $418 $419 $420 forward $342 $-1 #
coedge $-1 $421 $421 $418 $422 reversed $344 $-1 #
coedge $-1 $345 $345 $346 $390 forward $291 $-1 #
edge $-1 $352 0 $391 3.141592653589793116 $389 $423 forward 7 unknown #
vertex $-1 $390 $424 #
straight-curve $-1 82.54999999999999716 223.2659999999999627 3.888125173386047795e-15 0 25.39999999999999858 0 I I #
ellipse-curve $-1 50.79999999999999716 406.6539999999999395 0 0 1 0 31.75 0 2.819966482547897455e-15 1 I I #
point $-1 19.04999999999999716 223.2659999999999627 -5.63993296509579491e-15 #
point $-1 19.04999999999999716 406.6539999999999395 -2.819966482547897455e-15 #
ellipse-curve $-1 50.79999999999999716 223.2659999999999627 0 0 1 0 -31.75 0 -5.63993296509579491e-15 1 I I #
point $-1 82.54999999999999716 223.2659999999999627 2.819966482547897455e-15 #
coedge $-1 $358 $357 $425 $426 reversed $278 $-1 #
edge $-1 $363 0 $427 0.8399999999999999689 $357 $428 forward 7 unknown #
edge $-1 $373 0 $429 0.8399999999999999689 $358 $430 forward 7 unknown #
plane-surface $-1 0 0 16.63700000000000045 0 0 1 25.39999999999999858 0 0 forward_v I I I I #
coedge $-1 $361 $375 $431 $432 reversed $362 $-1 #
point $-1 -76.19999999999998863 9.331500416126514076e-15 16.63700000000000045 #
point $-1 0 -76.19999999999998863 16.63700000000000045 #
loop $-1 $433 $434 $369 #
coedge $-1 $435 $435 $436 $437 reversed $368 $-1 #
face $-1 $438 $439 $2 $-1 $440 reversed single #
plane-surface $-1 0 0 -37.97299999999999898 0 0 -1 -25.39999999999999858 0 0 forward_v I I I I #
plane-surface $-1 0 0 16.63700000000000045 0 0 1 25.39999999999999858 0 0 forward_v I I I I #
point $-1 76.19999999999998863 0 16.63700000000000045 #
face $-1 $441 $442 $2 $-1 $443 reversed single #
loop $-1 $444 $431 $377 #
plane-surface $-1 0 0 37.97299999999999898 0 0 1 25.39999999999999858 0 0 forward_v I I I I #
loop $-1 $-1 $445 $384 #
plane-surface $-1 70.48499999999999943 457.4539999999999509 -16.63700000000000045 0 1 0 25.39999999999999858 0 0 forward_v I I I I #
coedge $-1 $446 $447 $448 $449 forward $385 $-1 #
coedge $-1 $448 $387 $445 $450 reversed $342 $-1 #
coedge $-1 $387 $448 $388 $422 forward $342 $-1 #
coedge $-1 $447 $446 $387 $420 reversed $385 $-1 #
edge $-1 $451 0 $452 2.000000000000000444 $419 $453 forward 7 unknown #
coedge $-1 $388 $388 $447 $454 reversed $344 $-1 #
edge $-1 $455 0 $451 3.141592653589793116 $388 $456 forward 7 unknown #
ellipse-curve $-1 50.79999999999999716 406.6539999999999395 0 0 1 0 -31.75 0 -2.819966482547897455e-15 1 I I #
point $-1 82.54999999999999716 406.6539999999999395 2.819966482547897455e-15 #
coedge $-1 $431 $431 $398 $426 forward $412 $-1 #
edge $-1 $429 0 $427 3.141592653589793116 $425 $457 forward 7 unknown #
vertex $-1 $426 $458 #
straight-curve $-1 -76.19999999999998863 9.331500416126514076e-15 16.63700000000000045 0 0 25.39999999999999858 I I #
vertex $-1 $426 $459 #
straight-curve $-1 76.19999999999998863 0 16.63700000000000045 0 0 25.39999999999999858 I I #
coedge $-1 $425 $425 $402 $432 forward $412 $-1 #
edge $-1 $427 0 $429 3.141592653589793116 $431 $460 forward 7 unknown #
loop $-1 $461 $462 $369 #
coedge $-1 $463 $463 $464 $465 forward $405 $-1 #
coedge $-1 $406 $406 $466 $467 reversed $368 $-1 #
coedge $-1 $468 $469 $406 $437 forward $442 $-1 #
edge $-1 $470 0 $471 3.141592653589793116 $406 $472 forward 7 unknown #
face $-1 $473 $474 $2 $-1 $475 reversed single #
loop $-1 $-1 $476 $407 #
cone-surface $-1 -36.16959999999999553 -54.15279999999999916 -37.97299999999999898 0 0 1 3.9623999999999997 0 0 1 I I 0 1 3.9623999999999997 forward I I I I #
face $-1 $369 $477 $2 $-1 $478 reversed single #
loop $-1 $-1 $469 $411 #
cone-surface $-1 0 0 37.97299999999999898 0 0 -1 -50.79999999999999716 0 0 1 I I 0 1 50.79999999999999716 forward I I I I #
loop $-1 $479 $480 $377 #
coedge $-1 $481 $481 $417 $450 forward $414 $-1 #
coedge $-1 $419 $416 $481 $482 reversed $385 $-1 #
coedge $-1 $416 $419 $421 $454 forward $385 $-1 #
coedge $-1 $418 $417 $416 $449 reversed $342 $-1 #
edge $-1 $455 0 $483 2.000000000000000444 $416 $484 forward 7 unknown #
edge $-1 $483 0 $452 3.141592653589793116 $445 $485 forward 7 unknown #
vertex $-1 $454 $486 #
vertex $-1 $482 $487 #
straight-curve $-1 79.375 406.6539999999999395 0 0 25.39999999999999858 0 I I #
edge $-1 $451 0 $455 3.141592653589793116 $421 $488 forward 7 unknown #
vertex $-1 $454 $489 #
ellipse-curve $-1 69.84999999999999432 406.6539999999999395 0 0 1 0 -9.524999999999998579 0 0 1 I I #
ellipse-curve $-1 -2.819966482547897455e-15 5.63993296509579491e-15 37.97299999999999898 0 0 1 76.19999999999998863 -5.63993296509579491e-15 0 1 I I #
point $-1 -76.19999999999998863 0 37.97299999999999898 #
point $-1 76.19999999999998863 0 37.97299999999999898 #
ellipse-curve $-1 0 -2.819966482547897455e-15 37.97299999999999898 0 0 1 -76.19999999999998863 2.819966482547897455e-15 0 1 I I #
loop $-1 $490 $491 $369 #
coedge $-1 $492 $492 $493 $494 forward $433 $-1 #
coedge $-1 $434 $434 $495 $496 forward $405 $-1 #
coedge $-1 $476 $497 $434 $465 reversed $439 $-1 #
edge $-1 $498 0 $499 3.141592653589793116 $434 $500 forward 7 unknown #
coedge $-1 $501 $502 $435 $467 forward $477 $-1 #
edge $-1 $471 0 $470 3.141592653589793116 $435 $503 forward 7 unknown #
coedge $-1 $504 $436 $502 $505 reversed $442 $-1 #
coedge $-1 $436 $504 $501 $506 forward $442 $-1 #
vertex $-1 $467 $507 #
vertex $-1 $467 $508 #
ellipse-curve $-1 -1.409983241273948727e-15 8.459899447643691576e-15 -37.97299999999999898 0 0 -1 50.79999999999999716 -8.459899447643691576e-15 0 1 I I #
face $-1 $509 $510 $2 $-1 $511 reversed single #
loop $-1 $-1 $512 $438 #
cone-surface $-1 -36.16959999999999553 -54.15279999999999916 -37.97299999999999898 0 0 1 3.9623999999999997 0 0 1 I I 0 1 3.9623999999999997 forward I I I I #
coedge $-1 $513 $464 $514 $515 forward $439 $-1 #
loop $-1 $-1 $502 $441 #
cone-surface $-1 0 0 37.97299999999999898 0 0 -1 -50.79999999999999716 0 0 1 I I 0 1 50.79999999999999716 forward I I I I #
loop $-1 $516 $517 $377 #
coedge $-1 $518 $518 $504 $519 forward $444 $-1 #
coedge $-1 $445 $445 $446 $482 forward $414 $-1 #
edge $-1 $452 0 $483 3.141592653589793116 $481 $520 forward 7 unknown #
vertex $-1 $482 $521 #
straight-curve $-1 60.32499999999999574 406.6539999999999395 -1.16643755201581426e-15 0 25.39999999999999858 0 I I #
ellipse-curve $-1 69.84999999999999432 457.4539999999999509 0 0 1 0 -9.524999999999998579 0 0 1 I I #
point $-1 79.375 406.6539999999999395 0 #
point $-1 79.375 457.4539999999999509 0 #
ellipse-curve $-1 69.84999999999999432 406.6539999999999395 0 0 1 0 9.524999999999998579 0 0 1 I I #
point $-1 60.32499999999999574 406.6539999999999395 0 #
loop $-1 $-1 $522 $369 #
coedge $-1 $523 $523 $524 $525 forward $461 $-1 #
coedge $-1 $462 $462 $526 $527 forward $433 $-1 #
coedge $-1 $528 $529 $462 $494 reversed $530 $-1 #
edge $-1 $531 0 $532 3.141592653589793116 $462 $533 forward 7 unknown #
coedge $-1 $512 $514 $463 $496 reversed $474 $-1 #
edge $-1 $499 0 $498 3.141592653589793116 $463 $534 forward 7 unknown #
coedge $-1 $464 $513 $512 $535 reversed $439 $-1 #
vertex $-1 $496 $536 #
vertex $-1 $496 $537 #
ellipse-curve $-1 -36.16959999999999553 -54.15279999999999916 -37.97299999999999898 0 0 1 -3.96239999999999748 0 0 1 I I #
coedge $-1 $538 $466 $469 $506 reversed $477 $-1 #
coedge $-1 $466 $538 $468 $505 forward $477 $-1 #
ellipse-curve $-1 1.409983241273948727e-15 8.459899447643691576e-15 -37.97299999999999898 0 0 -1 -50.79999999999999716 -8.459899447643691576e-15 0 1 I I #
coedge $-1 $469 $468 $480 $519 reversed $442 $-1 #
edge $-1 $539 0 $471 2.990000000000000213 $502 $540 forward 7 unknown #
edge $-1 $541 0 $470 2.990000000000000213 $501 $542 forward 7 unknown #
point $-1 50.79999999999999716 0 -37.97299999999999898 #
point $-1 -50.79999999999999716 0 -37.97299999999999898 #
face $-1 $543 $530 $2 $-1 $544 reversed single #
loop $-1 $-1 $545 $473 #
plane-surface $-1 -36.16959999999999553 -54.15279999999999916 -16.63700000000000401 0 0 1 25.39999999999999858 0 0 forward_v I I I I #
coedge $-1 $546 $495 $497 $535 forward $474 $-1 #
coedge $-1 $497 $476 $545 $547 forward $439 $-1 #
coedge $-1 $495 $546 $476 $515 reversed $474 $-1 #
edge $-1 $498 0 $548 0.8399999999999998579 $514 $549 forward 7 unknown #
loop $-1 $550 $551 $377 #
coedge $-1 $552 $552 $553 $554 forward $479 $-1 #
coedge $-1 $480 $480 $538 $555 forward $444 $-1 #
edge $-1 $541 0 $539 3.141592653589793116 $480 $556 forward 7 unknown #
ellipse-curve $-1 69.84999999999999432 457.4539999999999509 0 0 1 0 9.524999999999998579 0 0 1 I I #
point $-1 60.32499999999999574 457.4539999999999509 0 #
coedge $-1 $557 $557 $558 $559 forward $490 $-1 #
coedge $-1 $491 $491 $560 $561 forward $461 $-1 #
coedge $-1 $562 $563 $491 $525 reversed $564 $-1 #
edge $-1 $565 0 $566 3.141592653589793116 $491 $567 forward 7 unknown #
coedge $-1 $568 $569 $492 $527 reversed $570 $-1 #
edge $-1 $532 0 $531 3.141592653589793116 $492 $571 forward 7 unknown #
coedge $-1 $572 $493 $569 $573 forward $530 $-1 #
coedge $-1 $493 $572 $568 $574 reversed $530 $-1 #
loop $-1 $-1 $528 $509 #
vertex $-1 $527 $575 #
vertex $-1 $527 $576 #
ellipse-curve $-1 -12.69999999999999929 -63.88100000000000023 -37.97299999999999898 0 0 1 -3.962400000000000588 0 0 1 I I #
ellipse-curve $-1 -36.16959999999999553 -54.15279999999999916 -37.97299999999999898 0 0 1 3.96239999999999748 0 0 1 I I #
edge $-1 $499 0 $577 0.8399999999999998579 $512 $578 forward 7 unknown #
point $-1 -40.13199999999999079 -54.15279999999999916 -37.97299999999999898 #
point $-1 -32.20720000000000027 -54.15279999999999916 -37.97299999999999898 #
coedge $-1 $502 $501 $518 $555 reversed $477 $-1 #
vertex $-1 $555 $579 #
straight-curve $-1 -50.79999999999999716 0 37.97299999999999898 0 0 -25.39999999999999858 I I #
vertex $-1 $555 $580 #
straight-curve $-1 50.79999999999999716 6.221000277417676314e-15 37.97299999999999898 0 0 -25.39999999999999858 I I #
face $-1 $581 $570 $2 $-1 $582 reversed single #
cone-surface $-1 -12.69999999999999929 -63.88100000000000023 -37.97299999999999898 0 0 1 3.9623999999999997 0 0 1 I I 0 1 3.9623999999999997 forward I I I I #
coedge $-1 $583 $583 $513 $547 reversed $510 $-1 #
coedge $-1 $514 $512 $583 $584 forward $474 $-1 #
edge $-1 $548 0 $577 3.141592653589793116 $545 $585 forward 7 unknown #
vertex $-1 $584 $586 #
straight-curve $-1 -40.13199999999999079 -54.15279999999999916 -37.97299999999999898 0 0 25.39999999999999858 I I #
loop $-1 $587 $588 $377 #
coedge $-1 $589 $589 $590 $591 forward $516 $-1 #
coedge $-1 $517 $517 $592 $593 forward $479 $-1 #
coedge $-1 $594 $595 $517 $554 reversed $596 $-1 #
edge $-1 $597 0 $598 3.141592653589793116 $517 $599 forward 7 unknown #
edge $-1 $539 0 $541 3.141592653589793116 $518 $600 forward 7 unknown #
ellipse-curve $-1 0 0 37.97299999999999898 0 0 -1 50.79999999999999716 0 0 1 I I #
coedge $-1 $522 $522 $601 $602 forward $490 $-1 #
coedge $-1 $603 $604 $522 $559 reversed $605 $-1 #
edge $-1 $606 0 $607 3.141592653589793116 $522 $608 forward 7 unknown #
coedge $-1 $609 $610 $523 $561 reversed $611 $-1 #
edge $-1 $566 0 $565 3.141592653589793116 $523 $612 forward 7 unknown #
coedge $-1 $613 $524 $610 $614 forward $564 $-1 #
coedge $-1 $524 $613 $609 $615 reversed $564 $-1 #
loop $-1 $-1 $562 $616 #
vertex $-1 $561 $617 #
vertex $-1 $561 $618 #
ellipse-curve $-1 12.69999999999999929 -63.88100000000000023 -37.97299999999999898 0 0 1 -3.962400000000000588 0 0 1 I I #
coedge $-1 $619 $526 $529 $574 forward $570 $-1 #
coedge $-1 $526 $619 $528 $573 reversed $570 $-1 #
loop $-1 $-1 $568 $543 #
ellipse-curve $-1 -12.69999999999999929 -63.88100000000000023 -37.97299999999999898 0 0 1 3.962400000000000588 0 0 1 I I #
coedge $-1 $529 $528 $620 $621 forward $530 $-1 #
edge $-1 $531 0 $622 0.8399999999999998579 $569 $623 forward 7 unknown #
edge $-1 $532 0 $624 0.8399999999999998579 $568 $625 forward 7 unknown #
point $-1 -16.6623999999999981 -63.88100000000000023 -37.97299999999999898 #
point $-1 -8.737599999999998701 -63.88100000000000023 -37.97299999999999898 #
vertex $-1 $584 $626 #
straight-curve $-1 -32.20720000000000027 -54.15279999999999916 -37.97299999999999898 0 0 25.39999999999999858 I I #
point $-1 -50.79999999999999716 0 37.97299999999999898 #
point $-1 50.79999999999999716 0 37.97299999999999898 #
face $-1 $616 $627 $2 $-1 $628 reversed single #
cone-surface $-1 -12.69999999999999929 -63.88100000000000023 -37.97299999999999898 0 0 1 3.9623999999999997 0 0 1 I I 0 1 3.9623999999999997 forward I I I I #
coedge $-1 $545 $545 $546 $584 reversed $510 $-1 #
edge $-1 $577 0 $548 3.141592653589793116 $583 $629 forward 7 unknown #
ellipse-curve $-1 -36.16959999999999553 -54.15279999999999916 -16.63700000000000401 0 0 1 -3.96239999999999748 0 0 1 I I #
point $-1 -40.13199999999999079 -54.15279999999999916 -16.63700000000000401 #
loop $-1 $-1 $630 $377 #
coedge $-1 $631 $631 $632 $633 forward $550 $-1 #
coedge $-1 $551 $551 $634 $635 forward $516 $-1 #
coedge $-1 $636 $637 $551 $591 reversed $638 $-1 #
edge $-1 $639 0 $640 3.141592653589793116 $551 $641 forward 7 unknown #
coedge $-1 $642 $643 $552 $593 reversed $644 $-1 #
edge $-1 $598 0 $597 3.141592653589793116 $552 $645 forward 7 unknown #
coedge $-1 $646 $553 $643 $647 forward $596 $-1 #
coedge $-1 $553 $646 $642 $648 reversed $596 $-1 #
loop $-1 $-1 $594 $649 #
vertex $-1 $593 $650 #
vertex $-1 $593 $651 #
ellipse-curve $-1 12.69999999999999929 -63.88100000000000023 37.97299999999999898 0 0 -1 3.962400000000000588 0 0 1 I I #
ellipse-curve $-1 0 0 37.97299999999999898 0 0 -1 -50.79999999999999716 0 0 1 I I #
coedge $-1 $652 $653 $557 $602 reversed $654 $-1 #
edge $-1 $607 0 $606 3.141592653589793116 $557 $655 forward 7 unknown #
coedge $-1 $656 $558 $653 $657 forward $605 $-1 #
coedge $-1 $558 $656 $652 $658 reversed $605 $-1 #
loop $-1 $-1 $603 $659 #
vertex $-1 $602 $660 #
vertex $-1 $602 $661 #
ellipse-curve $-1 36.16959999999999553 -54.15279999999999916 -37.97299999999999898 0 0 1 -3.96239999999999748 0 0 1 I I #
coedge $-1 $662 $560 $563 $615 forward $611 $-1 #
coedge $-1 $560 $662 $562 $614 reversed $611 $-1 #
loop $-1 $-1 $609 $663 #
ellipse-curve $-1 12.69999999999999929 -63.88100000000000023 -37.97299999999999898 0 0 1 3.962400000000000588 0 0 1 I I #
coedge $-1 $563 $562 $664 $665 forward $564 $-1 #
edge $-1 $565 0 $666 0.8399999999999998579 $610 $667 forward 7 unknown #
edge $-1 $566 0 $668 0.8399999999999998579 $609 $669 forward 7 unknown #
face $-1 $663 $564 $2 $-1 $670 reversed single #
point $-1 8.737599999999998701 -63.88100000000000023 -37.97299999999999898 #
point $-1 16.6623999999999981 -63.88100000000000023 -37.97299999999999898 #
coedge $-1 $569 $568 $671 $672 forward $570 $-1 #
coedge $-1 $671 $671 $572 $621 reversed $627 $-1 #
edge $-1 $622 0 $624 3.141592653589793116 $620 $673 forward 7 unknown #
vertex $-1 $672 $674 #
straight-curve $-1 -16.6623999999999981 -63.88100000000000023 -37.97299999999999898 0 0 25.39999999999999858 I I #
vertex $-1 $672 $675 #
straight-curve $-1 -8.737599999999998701 -63.88100000000000023 -37.97299999999999898 0 0 25.39999999999999858 I I #
point $-1 -32.20720000000000027 -54.15279999999999916 -16.63700000000000401 #
loop $-1 $-1 $620 $581 #
plane-surface $-1 -12.69999999999999929 -63.88100000000000023 -16.63700000000000401 0 0 1 25.39999999999999858 0 0 forward_v I I I I #
ellipse-curve $-1 -36.16959999999999553 -54.15279999999999916 -16.63700000000000401 0 0 1 3.96239999999999748 0 0 1 I I #
coedge $-1 $676 $676 $677 $678 forward $587 $-1 #
coedge $-1 $588 $588 $679 $680 forward $550 $-1 #
coedge $-1 $681 $682 $588 $633 reversed $683 $-1 #
edge $-1 $684 0 $685 3.141592653589793116 $588 $686 forward 7 unknown #
coedge $-1 $687 $688 $589 $635 reversed $689 $-1 #
edge $-1 $640 0 $639 3.141592653589793116 $589 $690 forward 7 unknown #
coedge $-1 $691 $590 $688 $692 forward $638 $-1 #
coedge $-1 $590 $691 $687 $693 reversed $638 $-1 #
loop $-1 $-1 $636 $694 #
vertex $-1 $635 $695 #
vertex $-1 $635 $696 #
ellipse-curve $-1 -12.69999999999999929 -63.88100000000000023 37.97299999999999898 0 0 -1 3.962400000000000588 0 0 1 I I #
coedge $-1 $697 $592 $595 $648 forward $644 $-1 #
coedge $-1 $592 $697 $594 $647 reversed $644 $-1 #
loop $-1 $-1 $642 $698 #
ellipse-curve $-1 12.69999999999999929 -63.88100000000000023 37.97299999999999898 0 0 -1 -3.962400000000000588 0 0 1 I I #
coedge $-1 $595 $594 $699 $700 forward $596 $-1 #
edge $-1 $597 0 $701 0.8399999999999998579 $643 $702 forward 7 unknown #
edge $-1 $598 0 $703 0.8399999999999998579 $642 $704 forward 7 unknown #
face $-1 $698 $596 $2 $-1 $705 reversed single #
point $-1 16.6623999999999981 -63.88100000000000023 37.97299999999999898 #
point $-1 8.737599999999998701 -63.88100000000000023 37.97299999999999898 #
coedge $-1 $706 $601 $604 $658 forward $654 $-1 #
coedge $-1 $601 $706 $603 $657 reversed $654 $-1 #
loop $-1 $-1 $652 $707 #
ellipse-curve $-1 36.16959999999999553 -54.15279999999999916 -37.97299999999999898 0 0 1 3.96239999999999748 0 0 1 I I #
coedge $-1 $604 $603 $708 $709 forward $605 $-1 #
edge $-1 $606 0 $710 0.8399999999999998579 $653 $711 forward 7 unknown #
edge $-1 $607 0 $712 0.8399999999999998579 $652 $713 forward 7 unknown #
face $-1 $707 $605 $2 $-1 $714 reversed single #
point $-1 32.20720000000000027 -54.15279999999999916 -37.97299999999999898 #
point $-1 40.13199999999999079 -54.15279999999999916 -37.97299999999999898 #
coedge $-1 $610 $609 $715 $716 forward $611 $-1 #
face $-1 $717 $611 $2 $-1 $718 reversed single #
coedge $-1 $715 $715 $613 $665 reversed $719 $-1 #
edge $-1 $666 0 $668 3.141592653589793116 $664 $720 forward 7 unknown #
vertex $-1 $716 $721 #
straight-curve $-1 8.737599999999998701 -63.88100000000000023 -37.97299999999999898 0 0 25.39999999999999858 I I #
vertex $-1 $716 $722 #
straight-curve $-1 16.6623999999999981 -63.88100000000000023 -37.97299999999999898 0 0 25.39999999999999858 I I #
cone-surface $-1 12.69999999999999929 -63.88100000000000023 -37.97299999999999898 0 0 1 3.9623999999999997 0 0 1 I I 0 1 3.9623999999999997 forward I I I I #
coedge $-1 $620 $620 $619 $672 reversed $627 $-1 #
edge $-1 $624 0 $622 3.141592653589793116 $671 $723 forward 7 unknown #
ellipse-curve $-1 -12.69999999999999929 -63.88100000000000023 -16.63700000000000401 0 0 1 -3.962400000000000588 0 0 1 I I #
point $-1 -16.6623999999999981 -63.88100000000000023 -16.63700000000000401 #
point $-1 -8.737599999999998701 -63.88100000000000023 -16.63700000000000401 #
coedge $-1 $630 $630 $724 $725 forward $587 $-1 #
coedge $-1 $726 $727 $630 $678 reversed $728 $-1 #
edge $-1 $729 0 $730 3.141592653589793116 $630 $731 forward 7 unknown #
coedge $-1 $732 $733 $631 $680 reversed $734 $-1 #
edge $-1 $685 0 $684 3.141592653589793116 $631 $735 forward 7 unknown #
coedge $-1 $736 $632 $733 $737 forward $683 $-1 #
coedge $-1 $632 $736 $732 $738 reversed $683 $-1 #
loop $-1 $-1 $681 $739 #
vertex $-1 $680 $740 #
vertex $-1 $680 $741 #
ellipse-curve $-1 36.16959999999999553 -54.15279999999999916 37.97299999999999898 0 0 -1 3.96239999999999748 0 0 1 I I #
coedge $-1 $742 $634 $637 $693 forward $689 $-1 #
coedge $-1 $634 $742 $636 $692 reversed $689 $-1 #
loop $-1 $-1 $687 $743 #
ellipse-curve $-1 -12.69999999999999929 -63.88100000000000023 37.97299999999999898 0 0 -1 -3.962400000000000588 0 0 1 I I #
coedge $-1 $637 $636 $744 $745 forward $638 $-1 #
edge $-1 $639 0 $746 0.8399999999999998579 $688 $747 forward 7 unknown #
edge $-1 $640 0 $748 0.8399999999999998579 $687 $749 forward 7 unknown #
face $-1 $743 $638 $2 $-1 $750 reversed single #
point $-1 -8.737599999999998701 -63.88100000000000023 37.97299999999999898 #
point $-1 -16.6623999999999981 -63.88100000000000023 37.97299999999999898 #
coedge $-1 $643 $642 $751 $752 forward $644 $-1 #
face $-1 $753 $644 $2 $-1 $754 reversed single #
coedge $-1 $751 $751 $646 $700 reversed $755 $-1 #
edge $-1 $701 0 $703 3.141592653589793116 $699 $756 forward 7 unknown #
vertex $-1 $752 $757 #
straight-curve $-1 16.6623999999999981 -63.88100000000000023 37.97299999999999898 0 0 -25.39999999999999858 I I #
vertex $-1 $752 $758 #
straight-curve $-1 8.737599999999998701 -63.88100000000000023 37.97299999999999898 0 0 -25.39999999999999858 I I #
cone-surface $-1 12.69999999999999929 -63.88100000000000023 37.97299999999999898 0 0 -1 -3.9623999999999997 0 0 1 I I 0 1 3.9623999999999997 forward I I I I #
coedge $-1 $653 $652 $759 $760 forward $654 $-1 #
face $-1 $761 $654 $2 $-1 $762 reversed single #
coedge $-1 $759 $759 $656 $709 reversed $763 $-1 #
edge $-1 $710 0 $712 3.141592653589793116 $708 $764 forward 7 unknown #
vertex $-1 $760 $765 #
straight-curve $-1 32.20720000000000027 -54.15279999999999916 -37.97299999999999898 0 0 25.39999999999999858 I I #
vertex $-1 $760 $766 #
straight-curve $-1 40.13199999999999079 -54.15279999999999916 -37.97299999999999898 0 0 25.39999999999999858 I I #
cone-surface $-1 36.16959999999999553 -54.15279999999999916 -37.97299999999999898 0 0 1 3.9623999999999997 0 0 1 I I 0 1 3.9623999999999997 forward I I I I #
coedge $-1 $664 $664 $662 $716 reversed $719 $-1 #
edge $-1 $668 0 $666 3.141592653589793116 $715 $767 forward 7 unknown #
face $-1 $659 $719 $2 $-1 $768 reversed single #
cone-surface $-1 12.69999999999999929 -63.88100000000000023 -37.97299999999999898 0 0 1 3.9623999999999997 0 0 1 I I 0 1 3.9623999999999997 forward I I I I #
loop $-1 $-1 $664 $717 #
ellipse-curve $-1 12.69999999999999929 -63.88100000000000023 -16.63700000000000401 0 0 1 -3.962400000000000588 0 0 1 I I #
point $-1 8.737599999999998701 -63.88100000000000023 -16.63700000000000401 #
point $-1 16.6623999999999981 -63.88100000000000023 -16.63700000000000401 #
ellipse-curve $-1 -12.69999999999999929 -63.88100000000000023 -16.63700000000000401 0 0 1 3.962400000000000588 0 0 1 I I #
coedge $-1 $769 $770 $676 $725 reversed $771 $-1 #
edge $-1 $730 0 $729 3.141592653589793116 $676 $772 forward 7 unknown #
coedge $-1 $773 $677 $770 $774 forward $728 $-1 #
coedge $-1 $677 $773 $769 $775 reversed $728 $-1 #
loop $-1 $-1 $726 $776 #
vertex $-1 $725 $777 #
vertex $-1 $725 $778 #
ellipse-curve $-1 -36.16959999999999553 -54.15279999999999916 37.97299999999999898 0 0 -1 3.96239999999999748 0 0 1 I I #
coedge $-1 $779 $679 $682 $738 forward $734 $-1 #
coedge $-1 $679 $779 $681 $737 reversed $734 $-1 #
loop $-1 $-1 $732 $780 #
ellipse-curve $-1 36.16959999999999553 -54.15279999999999916 37.97299999999999898 0 0 -1 -3.96239999999999748 0 0 1 I I #
coedge $-1 $682 $681 $781 $782 forward $683 $-1 #
edge $-1 $684 0 $783 0.8399999999999998579 $733 $784 forward 7 unknown #
edge $-1 $685 0 $785 0.8399999999999998579 $732 $786 forward 7 unknown #
face $-1 $780 $683 $2 $-1 $787 reversed single #
point $-1 40.13199999999999079 -54.15279999999999916 37.97299999999999898 #
point $-1 32.20720000000000027 -54.15279999999999916 37.97299999999999898 #
coedge $-1 $688 $687 $788 $789 forward $689 $-1 #
face $-1 $790 $689 $2 $-1 $791 reversed single #
coedge $-1 $788 $788 $691 $745 reversed $792 $-1 #
edge $-1 $746 0 $748 3.141592653589793116 $744 $793 forward 7 unknown #
vertex $-1 $789 $794 #
straight-curve $-1 -8.737599999999998701 -63.88100000000000023 37.97299999999999898 0 0 -25.39999999999999858 I I #
vertex $-1 $789 $795 #
straight-curve $-1 -16.6623999999999981 -63.88100000000000023 37.97299999999999898 0 0 -25.39999999999999858 I I #
cone-surface $-1 -12.69999999999999929 -63.88100000000000023 37.97299999999999898 0 0 -1 -3.9623999999999997 0 0 1 I I 0 1 3.9623999999999997 forward I I I I #
coedge $-1 $699 $699 $697 $752 reversed $755 $-1 #
edge $-1 $703 0 $701 3.141592653589793116 $751 $796 forward 7 unknown #
face $-1 $694 $755 $2 $-1 $797 reversed single #
cone-surface $-1 12.69999999999999929 -63.88100000000000023 37.97299999999999898 0 0 -1 -3.9623999999999997 0 0 1 I I 0 1 3.9623999999999997 forward I I I I #
loop $-1 $-1 $699 $753 #
ellipse-curve $-1 12.69999999999999929 -63.88100000000000023 16.63700000000000401 0 0 -1 3.962400000000000588 0 0 1 I I #
point $-1 16.6623999999999981 -63.88100000000000023 16.63700000000000401 #
point $-1 8.737599999999998701 -63.88100000000000023 16.63700000000000401 #
coedge $-1 $708 $708 $706 $760 reversed $763 $-1 #
edge $-1 $712 0 $710 3.141592653589793116 $759 $798 forward 7 unknown #
face $-1 $649 $763 $2 $-1 $799 reversed single #
cone-surface $-1 36.16959999999999553 -54.15279999999999916 -37.97299999999999898 0 0 1 3.9623999999999997 0 0 1 I I 0 1 3.9623999999999997 forward I I I I #
loop $-1 $-1 $708 $761 #
ellipse-curve $-1 36.16959999999999553 -54.15279999999999916 -16.63700000000000401 0 0 1 -3.96239999999999748 0 0 1 I I #
point $-1 32.20720000000000027 -54.15279999999999916 -16.63700000000000401 #
point $-1 40.13199999999999079 -54.15279999999999916 -16.63700000000000401 #
ellipse-curve $-1 12.69999999999999929 -63.88100000000000023 -16.63700000000000401 0 0 1 3.962400000000000588 0 0 1 I I #
plane-surface $-1 12.69999999999999929 -63.88100000000000023 -16.63700000000000401 0 0 1 25.39999999999999858 0 0 forward_v I I I I #
coedge $-1 $800 $724 $727 $775 forward $771 $-1 #
coedge $-1 $724 $800 $726 $774 reversed $771 $-1 #
loop $-1 $-1 $769 $801 #
ellipse-curve $-1 -36.16959999999999553 -54.15279999999999916 37.97299999999999898 0 0 -1 -3.96239999999999748 0 0 1 I I #
coedge $-1 $727 $726 $802 $803 forward $728 $-1 #
edge $-1 $729 0 $804 0.8399999999999998579 $770 $805 forward 7 unknown #
edge $-1 $730 0 $806 0.8399999999999998579 $769 $807 forward 7 unknown #
face $-1 $801 $728 $2 $-1 $808 reversed single #
point $-1 -32.20720000000000027 -54.15279999999999916 37.97299999999999898 #
point $-1 -40.13199999999999079 -54.15279999999999916 37.97299999999999898 #
coedge $-1 $733 $732 $809 $810 forward $734 $-1 #
face $-1 $811 $734 $2 $-1 $812 reversed single #
coedge $-1 $809 $809 $736 $782 reversed $813 $-1 #
edge $-1 $783 0 $785 3.141592653589793116 $781 $814 forward 7 unknown #
vertex $-1 $810 $815 #
straight-curve $-1 40.13199999999999079 -54.15279999999999916 37.97299999999999898 0 0 -25.39999999999999858 I I #
vertex $-1 $810 $816 #
straight-curve $-1 32.20720000000000027 -54.15279999999999916 37.97299999999999898 0 0 -25.39999999999999858 I I #
cone-surface $-1 36.16959999999999553 -54.15279999999999916 37.97299999999999898 0 0 -1 -3.9623999999999997 0 0 1 I I 0 1 3.9623999999999997 forward I I I I #
coedge $-1 $744 $744 $742 $789 reversed $792 $-1 #
edge $-1 $748 0 $746 3.141592653589793116 $788 $817 forward 7 unknown #
face $-1 $739 $792 $2 $-1 $818 reversed single #
cone-surface $-1 -12.69999999999999929 -63.88100000000000023 37.97299999999999898 0 0 -1 -3.9623999999999997 0 0 1 I I 0 1 3.9623999999999997 forward I I I I #
loop $-1 $-1 $744 $790 #
ellipse-curve $-1 -12.69999999999999929 -63.88100000000000023 16.63700000000000401 0 0 -1 3.962400000000000588 0 0 1 I I #
point $-1 -8.737599999999998701 -63.88100000000000023 16.63700000000000401 #
point $-1 -16.6623999999999981 -63.88100000000000023 16.63700000000000401 #
ellipse-curve $-1 12.69999999999999929 -63.88100000000000023 16.63700000000000401 0 0 -1 -3.962400000000000588 0 0 1 I I #
plane-surface $-1 12.69999999999999929 -63.88100000000000023 16.63700000000000401 0 0 -1 -25.39999999999999858 0 0 forward_v I I I I #
ellipse-curve $-1 36.16959999999999553 -54.15279999999999916 -16.63700000000000401 0 0 1 3.96239999999999748 0 0 1 I I #
plane-surface $-1 36.16959999999999553 -54.15279999999999916 -16.63700000000000401 0 0 1 25.39999999999999858 0 0 forward_v I I I I #
coedge $-1 $770 $769 $819 $820 forward $771 $-1 #
face $-1 $821 $771 $2 $-1 $822 reversed single #
coedge $-1 $819 $819 $773 $803 reversed $823 $-1 #
edge $-1 $804 0 $806 3.141592653589793116 $802 $824 forward 7 unknown #
vertex $-1 $820 $825 #
straight-curve $-1 -32.20720000000000027 -54.15279999999999916 37.97299999999999898 0 0 -25.39999999999999858 I I #
vertex $-1 $820 $826 #
straight-curve $-1 -40.13199999999999079 -54.15279999999999916 37.97299999999999898 0 0 -25.39999999999999858 I I #
cone-surface $-1 -36.16959999999999553 -54.15279999999999916 37.97299999999999898 0 0 -1 -3.9623999999999997 0 0 1 I I 0 1 3.9623999999999997 forward I I I I #
coedge $-1 $781 $781 $779 $810 reversed $813 $-1 #
edge $-1 $785 0 $783 3.141592653589793116 $809 $827 forward 7 unknown #
face $-1 $776 $813 $2 $-1 $828 reversed single #
cone-surface $-1 36.16959999999999553 -54.15279999999999916 37.97299999999999898 0 0 -1 -3.9623999999999997 0 0 1 I I 0 1 3.9623999999999997 forward I I I I #
loop $-1 $-1 $781 $811 #
ellipse-curve $-1 36.16959999999999553 -54.15279999999999916 16.63700000000000401 0 0 -1 3.96239999999999748 0 0 1 I I #
point $-1 40.13199999999999079 -54.15279999999999916 16.63700000000000401 #
point $-1 32.20720000000000027 -54.15279999999999916 16.63700000000000401 #
ellipse-curve $-1 -12.69999999999999929 -63.88100000000000023 16.63700000000000401 0 0 -1 -3.962400000000000588 0 0 1 I I #
plane-surface $-1 -12.69999999999999929 -63.88100000000000023 16.63700000000000401 0 0 -1 -25.39999999999999858 0 0 forward_v I I I I #
coedge $-1 $802 $802 $800 $820 reversed $823 $-1 #
edge $-1 $806 0 $804 3.141592653589793116 $819 $829 forward 7 unknown #
face $-1 $360 $823 $2 $-1 $830 reversed single #
cone-surface $-1 -36.16959999999999553 -54.15279999999999916 37.97299999999999898 0 0 -1 -3.9623999999999997 0 0 1 I I 0 1 3.9623999999999997 forward I I I I #
loop $-1 $-1 $802 $821 #
ellipse-curve $-1 -36.16959999999999553 -54.15279999999999916 16.63700000000000401 0 0 -1 3.96239999999999748 0 0 1 I I #
point $-1 -32.20720000000000027 -54.15279999999999916 16.63700000000000401 #
point $-1 -40.13199999999999079 -54.15279999999999916 16.63700000000000401 #
ellipse-curve $-1 36.16959999999999553 -54.15279999999999916 16.63700000000000401 0 0 -1 -3.96239999999999748 0 0 1 I I #
plane-surface $-1 36.16959999999999553 -54.15279999999999916 16.63700000000000401 0 0 -1 -25.39999999999999858 0 0 forward_v I I I I #
ellipse-curve $-1 -36.16959999999999553 -54.15279999999999916 16.63700000000000401 0 0 -1 -3.96239999999999748 0 0 1 I I #
plane-surface $-1 -36.16959999999999553 -54.15279999999999916 16.63700000000000401 0 0 -1 -25.39999999999999858 0 0 forward_v I I I I #
End-of-ACIS-data 