600 0 1 0           
105 GICL Pro/E ACIS Translator - Source: f:/data5/repository/NIST/Manfred_Osti/suitcase/valve/valve.prt - 6 0 13 ACIS 6.0.3 NT 24 Thu Apr 04 13:52:24 2002 
1 9.9999999999999995e-007 1e-010 
body $-1 $1 $-1 $2 #
lump $-1 $-1 $3 $0 #
transform $-1 1 0 0 0 1 0 0 0 1 0 0 0 25.399999999999999 no_rotate no_reflect no_shear #
shell $-1 $-1 $-1 $4 $-1 $1 #
face $-1 $5 $6 $3 $-1 $7 reversed single #
face $-1 $8 $9 $3 $-1 $10 reversed single #
loop $-1 $-1 $11 $4 #
plane-surface $-1 0 0 -0.65500000000000003 0 0 1 1 0 0 forward_v I I I I #
face $-1 $12 $13 $3 $-1 $14 forward single #
loop $-1 $15 $16 $5 #
plane-surface $-1 2.7749999999999999 6.79 -0.65500000000000003 0 1 0 1 0 0 forward_v I I I I #
coedge $-1 $17 $18 $19 $20 forward $6 $-1 #
face $-1 $21 $22 $3 $-1 $23 forward single #
loop $-1 $-1 $24 $8 #
plane-surface $-1 3.5 6.79 -1.47 0 0 -1 -1 0 0 forward_v I I I I #
loop $-1 $-1 $25 $5 #
coedge $-1 $26 $27 $28 $29 reversed $9 $-1 #
coedge $-1 $30 $11 $31 $32 reversed $6 $-1 #
coedge $-1 $11 $30 $33 $34 reversed $6 $-1 #
coedge $-1 $25 $35 $11 $20 reversed $15 $-1 #
edge $-1 $36 0 $37 5.5499999999999998 $11 $38 forward 7 unknown #
face $-1 $39 $40 $3 $-1 $41 forward single #
loop $-1 $-1 $42 $12 #
plane-surface $-1 -3.5 6.79 -1.47 -1 0 0 0 0 1 forward_v I I I I #
coedge $-1 $43 $28 $44 $45 forward $13 $-1 #
coedge $-1 $46 $19 $47 $48 forward $15 $-1 #
coedge $-1 $49 $16 $50 $51 reversed $9 $-1 #
coedge $-1 $16 $49 $52 $53 reversed $9 $-1 #
coedge $-1 $24 $54 $16 $29 forward $13 $-1 #
edge $-1 $55 0 $56 7 $16 $57 forward 7 unknown #
coedge $-1 $18 $17 $58 $59 reversed $6 $-1 #
coedge $-1 $60 $61 $17 $32 forward $62 $-1 #
edge $-1 $63 0 $37 5.6500986884821991 $17 $64 forward 7 unknown #
coedge $-1 $65 $47 $18 $34 forward $66 $-1 #
edge $-1 $36 0 $67 5.6500986884822009 $18 $68 forward 7 unknown #
coedge $-1 $19 $46 $60 $69 reversed $15 $-1 #
vertex $-1 $34 $70 #
vertex $-1 $32 $71 #
straight-curve $-1 -2.7749999999999999 6.79 -0.65500000000000003 1 0 0 I I #
face $-1 $72 $73 $3 $-1 $74 forward single #
loop $-1 $-1 $75 $21 #
plane-surface $-1 -3.5 6.79 1.47 0 0 1 1 0 0 forward_v I I I I #
coedge $-1 $76 $52 $77 $78 forward $22 $-1 #
coedge $-1 $54 $24 $79 $80 reversed $13 $-1 #
coedge $-1 $52 $76 $24 $45 reversed $22 $-1 #
edge $-1 $56 0 $81 1.9999999999999991 $44 $82 forward 7 unknown #
coedge $-1 $35 $25 $83 $84 forward $15 $-1 #
coedge $-1 $33 $85 $25 $48 reversed $66 $-1 #
edge $-1 $36 0 $86 1.3100000000000001 $47 $87 forward 7 unknown #
coedge $-1 $27 $26 $88 $89 reversed $9 $-1 #
coedge $-1 $90 $91 $26 $51 forward $73 $-1 #
edge $-1 $92 0 $55 2.9399999999999999 $26 $93 forward 7 unknown #
coedge $-1 $42 $44 $27 $53 forward $22 $-1 #
edge $-1 $56 0 $94 2.9399999999999999 $27 $95 forward 7 unknown #
coedge $-1 $28 $43 $90 $96 reversed $13 $-1 #
vertex $-1 $51 $97 #
vertex $-1 $53 $98 #
straight-curve $-1 3.5 6.79 -1.47 -1 0 0 I I #
coedge $-1 $99 $100 $30 $59 forward $101 $-1 #
edge $-1 $67 0 $63 2.3620711879948435 $30 $102 forward 7 unknown #
coedge $-1 $103 $31 $35 $69 forward $62 $-1 #
coedge $-1 $31 $104 $105 $106 forward $62 $-1 #
loop $-1 $-1 $103 $107 #
vertex $-1 $59 $108 #
straight-curve $-1 2.7749999999999999 1.1399013115178001 -0.65500000000000003 0 1 0 I I #
coedge $-1 $109 $33 $110 $111 reversed $66 $-1 #
loop $-1 $-1 $33 $112 #
vertex $-1 $34 $113 #
straight-curve $-1 -2.7749999999999999 6.79 -0.65500000000000003 0 -1 0 I I #
edge $-1 $37 0 $114 1.3100000000000001 $60 $115 forward 7 unknown #
point $-1 -2.7749999999999999 6.79 -0.65500000000000003 #
point $-1 2.7749999999999999 6.7899999999999991 -0.65500000000000003 #
face $-1 $116 $117 $3 $-1 $118 forward single #
loop $-1 $-1 $90 $39 #
plane-surface $-1 3.5 6.79 1.47 1 0 0 0 0 -1 forward_v I I I I #
coedge $-1 $119 $88 $91 $120 forward $40 $-1 #
coedge $-1 $44 $42 $121 $122 reversed $22 $-1 #
coedge $-1 $88 $119 $42 $78 reversed $40 $-1 #
edge $-1 $94 0 $123 1.9999999999999991 $42 $124 forward 7 unknown #
coedge $-1 $121 $125 $43 $80 forward $117 $-1 #
edge $-1 $126 0 $81 7 $79 $127 forward 7 unknown #
vertex $-1 $122 $128 #
straight-curve $-1 -3.5 6.79 -1.47 0 1 0 I I #
coedge $-1 $129 $130 $46 $84 reversed $131 $-1 #
edge $-1 $86 0 $114 5.5499999999999998 $83 $132 forward 7 unknown #
coedge $-1 $47 $133 $129 $134 reversed $66 $-1 #
vertex $-1 $134 $135 #
straight-curve $-1 -2.7749999999999999 6.79 -0.65500000000000003 0 0 1 I I #
coedge $-1 $75 $77 $49 $89 forward $40 $-1 #
edge $-1 $94 0 $92 7 $49 $136 forward 7 unknown #
coedge $-1 $137 $50 $54 $96 forward $73 $-1 #
coedge $-1 $50 $137 $75 $120 reversed $73 $-1 #
vertex $-1 $89 $138 #
straight-curve $-1 3.5 6.79 1.47 0 0 -1 I I #
vertex $-1 $53 $139 #
straight-curve $-1 -3.5 6.79 -1.47 0 0 1 I I #
edge $-1 $55 0 $126 1.9999999999999991 $90 $140 forward 7 unknown #
point $-1 3.5 6.79 -1.47 #
point $-1 -3.4999999999999996 6.79 -1.47 #
coedge $-1 $141 $58 $142 $143 forward $101 $-1 #
coedge $-1 $58 $144 $145 $146 forward $101 $-1 #
loop $-1 $-1 $99 $147 #
ellipse-curve $-1 0 0 -0.65500000000000003 0 0 -1 -2.7749999999999999 1.1399013115177996 0 1 I I #
coedge $-1 $148 $60 $130 $149 reversed $62 $-1 #
coedge $-1 $61 $150 $151 $152 forward $62 $-1 #
coedge $-1 $153 $142 $61 $106 reversed $154 $-1 #
edge $-1 $155 0 $63 2.2798026230355992 $61 $156 forward 7 unknown #
face $-1 $157 $62 $3 $-1 $158 forward single #
point $-1 2.7749999999999999 1.1399013115178001 -0.65500000000000003 #
coedge $-1 $159 $65 $160 $161 forward $66 $-1 #
coedge $-1 $145 $162 $65 $111 forward $163 $-1 #
edge $-1 $164 -2.2204460492503131e-016 $67 2.2798026230355988 $65 $165 forward 7 unknown #
face $-1 $166 $66 $3 $-1 $167 forward single #
point $-1 -2.7749999999999999 1.1399013115177996 -0.65500000000000003 #
vertex $-1 $149 $168 #
straight-curve $-1 2.7749999999999999 6.79 -0.65500000000000003 0 0 1 I I #
face $-1 $169 $170 $3 $-1 $171 forward single #
loop $-1 $172 $173 $72 #
plane-surface $-1 2.7749999999999999 8.7899999999999991 -0.65500000000000003 0 1 0 1 0 0 forward_v I I I I #
coedge $-1 $77 $75 $173 $174 reversed $40 $-1 #
edge $-1 $92 0 $175 1.9999999999999991 $75 $176 forward 7 unknown #
coedge $-1 $173 $79 $76 $122 forward $117 $-1 #
edge $-1 $81 0 $123 2.9399999999999999 $121 $177 forward 7 unknown #
vertex $-1 $122 $178 #
straight-curve $-1 -3.5 6.79 1.47 0 1 0 I I #
coedge $-1 $79 $173 $137 $179 forward $117 $-1 #
vertex $-1 $80 $180 #
straight-curve $-1 3.5 8.7899999999999991 -1.47 -1 0 0 I I #
point $-1 -3.4999999999999996 8.7899999999999991 -1.47 #
coedge $-1 $181 $83 $85 $134 forward $131 $-1 #
coedge $-1 $83 $181 $103 $149 forward $131 $-1 #
loop $-1 $-1 $83 $157 #
straight-curve $-1 -2.7749999999999999 6.79 0.65500000000000003 1 0 0 I I #
coedge $-1 $85 $182 $183 $184 forward $66 $-1 #
edge $-1 $86 0 $185 5.6500986884821991 $129 $186 forward 7 unknown #
point $-1 -2.7749999999999999 6.79 0.65500000000000003 #
straight-curve $-1 -3.4999999999999996 6.79 1.47 1 0 0 I I #
coedge $-1 $91 $90 $125 $179 reversed $73 $-1 #
point $-1 3.5 6.79 1.47 #
point $-1 -3.4999999999999996 6.79 1.47 #
straight-curve $-1 3.5 6.79 -1.47 0 1 0 I I #
coedge $-1 $187 $99 $188 $189 forward $101 $-1 #
coedge $-1 $105 $153 $99 $143 reversed $154 $-1 #
edge $-1 $63 9.8686491077791687e-017 $190 0.38976073279747497 $142 $191 forward 7 unknown #
coedge $-1 $100 $187 $192 $193 reversed $101 $-1 #
coedge $-1 $162 $110 $100 $146 reversed $163 $-1 #
edge $-1 $194 0 $67 0.38976073279747481 $145 $195 forward 7 unknown #
face $-1 $196 $101 $3 $-1 $197 forward single #
coedge $-1 $198 $103 $199 $200 reversed $62 $-1 #
edge $-1 $201 -2.2204460492503131e-016 $114 5.6500986884822 $130 $202 forward 7 unknown #
coedge $-1 $104 $198 $203 $204 reversed $62 $-1 #
coedge $-1 $205 $206 $104 $152 reversed $207 $-1 #
edge $-1 $208 0 $155 1.8600986884822006 $151 $209 forward 7 unknown #
coedge $-1 $142 $105 $210 $211 reversed $154 $-1 #
loop $-1 $-1 $153 $196 #
vertex $-1 $212 $213 #
straight-curve $-1 2.7749999999999999 -1.1399013115177994 -0.65500000000000003 0 1 0 I I #
face $-1 $214 $131 $3 $-1 $215 forward single #
plane-surface $-1 2.7749999999999999 -3 -0.65500000000000003 1 0 0 0 1 0 forward_v I I I I #
coedge $-1 $182 $109 $216 $217 forward $66 $-1 #
coedge $-1 $218 $219 $109 $161 reversed $220 $-1 #
edge $-1 $164 2.2204460492503131e-016 $221 1.8600986884822008 $160 $222 forward 7 unknown #
coedge $-1 $110 $145 $223 $224 reversed $163 $-1 #
loop $-1 $-1 $145 $166 #
vertex $-1 $225 $226 #
straight-curve $-1 -2.7749999999999999 -1.1399013115177992 -0.65500000000000003 0 1 0 I I #
face $-1 $147 $163 $3 $-1 $227 reversed single #
plane-surface $-1 -2.7749999999999999 6.79 -0.65500000000000003 -1 0 0 0 -1 0 forward_v I I I I #
point $-1 2.7749999999999999 6.79 0.65500000000000003 #
face $-1 $228 $229 $3 $-1 $230 forward single #
loop $-1 $-1 $231 $116 #
cone-surface $-1 2 8.7899999999999991 0 0 1 0 -1.25 0 0 1 I I 0 1 1.25 forward I I I I #
loop $-1 $-1 $232 $72 #
coedge $-1 $125 $121 $119 $174 forward $117 $-1 #
edge $-1 $123 0 $175 7 $173 $233 forward 7 unknown #
vertex $-1 $179 $234 #
straight-curve $-1 3.5 6.79 1.47 0 1 0 I I #
straight-curve $-1 -3.5 8.7899999999999991 -1.47 0 0 1 I I #
point $-1 -3.4999999999999996 8.7899999999999991 1.47 #
edge $-1 $175 0 $126 2.9399999999999999 $125 $235 forward 7 unknown #
point $-1 3.5 8.7899999999999991 -1.47 #
coedge $-1 $130 $129 $236 $237 reversed $131 $-1 #
coedge $-1 $133 $159 $238 $239 reversed $66 $-1 #
coedge $-1 $240 $241 $133 $184 reversed $242 $-1 #
edge $-1 $243 4.4408920985006262e-016 $185 2.279802623035601 $133 $244 forward 7 unknown #
vertex $-1 $237 $245 #
straight-curve $-1 -2.7749999999999999 6.79 0.65500000000000003 0 -1 0 I I #
coedge $-1 $144 $141 $246 $247 reversed $101 $-1 #
coedge $-1 $210 $248 $141 $189 reversed $249 $-1 #
edge $-1 $190 0 $250 0.84000000000000008 $141 $251 forward 7 unknown #
vertex $-1 $143 $252 #
ellipse-curve $-1 0 0 -0.65500000000000003 0 0 -1 2.7749999999999999 1.1399013115178005 0 1 I I #
coedge $-1 $248 $223 $144 $193 forward $249 $-1 #
edge $-1 $194 0 $253 0.84000000000000008 $144 $254 forward 7 unknown #
vertex $-1 $224 $255 #
ellipse-curve $-1 0 0 -0.65500000000000003 0 0 -1 -3 0 0 1 I I #
face $-1 $256 $154 $3 $-1 $257 reversed single #
cone-surface $-1 0 0 -0.65500000000000003 0 0 -1 -3 0 0 1 I I 0 1 3 forward I I I I #
coedge $-1 $150 $148 $258 $259 reversed $62 $-1 #
coedge $-1 $260 $261 $148 $200 forward $262 $-1 #
edge $-1 $263 0 $201 2.2798026230355992 $148 $264 forward 7 unknown #
vertex $-1 $149 $265 #
straight-curve $-1 2.7749999999999999 1.1399013115178001 0.65500000000000003 0 1 0 I I #
coedge $-1 $266 $267 $150 $204 forward $268 $-1 #
edge $-1 $208 0 $269 1.3100000000000001 $203 $270 forward 7 unknown #
coedge $-1 $206 $151 $267 $271 reversed $207 $-1 #
coedge $-1 $151 $205 $272 $212 reversed $207 $-1 #
loop $-1 $-1 $151 $273 #
vertex $-1 $271 $274 #
straight-curve $-1 2.7749999999999999 -3 -0.65500000000000003 0 1 0 I I #
coedge $-1 $272 $188 $153 $211 forward $249 $-1 #
edge $-1 $190 -1.2246063538223773e-016 $155 0.38976073279747475 $153 $275 forward 7 unknown #
edge $-1 $155 0 $276 1.181035593997422 $206 $277 forward 7 unknown #
point $-1 2.7749999999999999 -1.1399013115177994 -0.65500000000000003 #
face $-1 $278 $279 $3 $-1 $280 forward single #
plane-surface $-1 0 0 0.65500000000000003 0 0 1 1 0 0 forward_v I I I I #
coedge $-1 $281 $282 $159 $217 reversed $268 $-1 #
edge $-1 $221 0 $283 1.3100000000000001 $159 $284 forward 7 unknown #
coedge $-1 $219 $160 $285 $225 reversed $220 $-1 #
coedge $-1 $160 $218 $281 $286 reversed $220 $-1 #
loop $-1 $-1 $219 $287 #
vertex $-1 $161 $288 #
straight-curve $-1 -2.7749999999999999 -1.1399013115177992 -0.65500000000000003 0 -1 0 I I #
coedge $-1 $192 $285 $162 $224 forward $249 $-1 #
edge $-1 $164 2.9605947323337506e-016 $194 0.38976073279747503 $162 $289 forward 7 unknown #
edge $-1 $276 0 $164 1.181035593997422 $218 $290 forward 7 unknown #
point $-1 -2.7749999999999999 -1.1399013115177994 -0.65500000000000003 #
plane-surface $-1 0 0 -0.65500000000000003 0 0 -1 -1 0 0 forward_v I I I I #
face $-1 $291 $292 $3 $-1 $293 forward single #
loop $-1 $-1 $294 $169 #
cone-surface $-1 2 8.7899999999999991 0 0 1 0 -1.25 0 0 1 I I 0 1 1.25 forward I I I I #
coedge $-1 $295 $296 $297 $298 forward $170 $-1 #
coedge $-1 $299 $299 $296 $300 reversed $172 $-1 #
straight-curve $-1 -3.4999999999999996 8.7899999999999991 1.47 1 0 0 I I #
point $-1 3.5 8.7899999999999991 1.47 #
straight-curve $-1 3.5 8.7899999999999991 1.47 0 0 -1 I I #
coedge $-1 $301 $302 $181 $237 forward $279 $-1 #
edge $-1 $201 0 $185 2.3620711879948431 $181 $303 forward 7 unknown #
coedge $-1 $304 $305 $182 $239 forward $306 $-1 #
edge $-1 $243 4.4408920985006262e-016 $283 1.8600986884822008 $238 $307 forward 7 unknown #
coedge $-1 $241 $183 $308 $309 reversed $242 $-1 #
coedge $-1 $183 $240 $301 $310 reversed $242 $-1 #
loop $-1 $-1 $240 $278 #
vertex $-1 $311 $312 #
straight-curve $-1 -2.7749999999999999 -1.1399013115178001 0.65500000000000003 0 1 0 I I #
point $-1 -2.7749999999999999 1.1399013115178009 0.65500000000000003 #
coedge $-1 $313 $313 $187 $247 forward $314 $-1 #
edge $-1 $253 0 $250 3.1415926535897931 $246 $315 forward 7 unknown #
coedge $-1 $188 $192 $313 $316 reversed $249 $-1 #
loop $-1 $-1 $285 $256 #
vertex $-1 $247 $317 #
straight-curve $-1 3 3.6738190614671318e-016 -0.65500000000000003 0 0 -1 I I #
point $-1 3 3.6738190614671318e-016 -0.65500000000000003 #
vertex $-1 $247 $318 #
straight-curve $-1 -3 0 -0.65500000000000003 0 0 -1 I I #
point $-1 -3 0 -0.65500000000000003 #
face $-1 $287 $249 $3 $-1 $319 forward single #
plane-surface $-1 0 0 -0.65500000000000003 0 0 -1 -1 0 0 forward_v I I I I #
coedge $-1 $320 $321 $198 $259 forward $322 $-1 #
edge $-1 $269 0 $263 1.8600986884822004 $258 $323 forward 7 unknown #
coedge $-1 $261 $199 $302 $324 reversed $262 $-1 #
coedge $-1 $199 $260 $325 $326 reversed $262 $-1 #
loop $-1 $-1 $260 $327 #
vertex $-1 $328 $329 #
straight-curve $-1 2.7749999999999999 -1.1399013115177996 0.65500000000000003 0 1 0 I I #
point $-1 2.7749999999999999 1.1399013115177998 0.65500000000000003 #
coedge $-1 $282 $203 $321 $330 reversed $268 $-1 #
coedge $-1 $203 $281 $205 $271 forward $268 $-1 #
loop $-1 $-1 $267 $331 #
vertex $-1 $259 $332 #
straight-curve $-1 2.7749999999999999 -3 -0.65500000000000003 0 0 1 I I #
edge $-1 $276 0 $208 2.7749999999999999 $205 $333 forward 7 unknown #
coedge $-1 $285 $210 $206 $212 forward $249 $-1 #
face $-1 $107 $207 $3 $-1 $334 reversed single #
point $-1 2.7749999999999999 -3 -0.65500000000000003 #
ellipse-curve $-1 0 0 -0.65500000000000003 0 0 -1 3 0 0 1 I I #
vertex $-1 $225 $335 #
ellipse-curve $-1 0 0 -0.65500000000000003 0 0 -1 2.7749999999999999 -1.1399013115177994 0 1 I I #
face $-1 $336 $242 $3 $-1 $337 reversed single #
loop $-1 $-1 $301 $214 #
cone-surface $-1 0 0 0.65500000000000003 0 0 1 3 0 0 1 I I 0 1 3 forward I I I I #
coedge $-1 $267 $216 $219 $286 forward $268 $-1 #
coedge $-1 $216 $266 $304 $338 reversed $268 $-1 #
vertex $-1 $338 $339 #
straight-curve $-1 -2.7749999999999999 -2.9999999999999991 -0.65500000000000003 0 0 1 I I #
coedge $-1 $223 $272 $218 $225 forward $249 $-1 #
edge $-1 $221 0 $276 2.7749999999999999 $219 $340 forward 7 unknown #
face $-1 $331 $220 $3 $-1 $341 reversed single #
point $-1 -2.7749999999999999 -3 -0.65500000000000003 #
ellipse-curve $-1 0 0 -0.65500000000000003 0 0 -1 -2.7749999999999999 -1.1399013115178003 0 1 I I #
ellipse-curve $-1 0 0 -0.65500000000000003 0 0 -1 0 -3 0 1 I I #
face $-1 $342 $343 $3 $-1 $344 forward single #
loop $-1 $345 $346 $228 #
plane-surface $-1 2.7749999999999999 16.009999999999998 -0.65500000000000003 0 1 0 -1 0 0 forward_v I I I I #
coedge $-1 $347 $348 $349 $350 forward $229 $-1 #
coedge $-1 $349 $231 $346 $351 reversed $170 $-1 #
coedge $-1 $231 $349 $232 $300 forward $170 $-1 #
coedge $-1 $348 $347 $231 $298 reversed $229 $-1 #
edge $-1 $352 0 $353 7.2199999999999989 $297 $354 forward 7 unknown #
coedge $-1 $232 $232 $348 $355 reversed $172 $-1 #
edge $-1 $356 0 $352 3.1415926535897931 $232 $357 forward 7 unknown #
coedge $-1 $358 $236 $241 $310 forward $279 $-1 #
coedge $-1 $236 $359 $260 $324 forward $279 $-1 #
ellipse-curve $-1 0 0 0.65500000000000003 0 0 1 2.7749999999999999 1.1399013115177998 0 1 I I #
coedge $-1 $305 $238 $282 $338 forward $306 $-1 #
coedge $-1 $238 $304 $360 $311 reversed $306 $-1 #
loop $-1 $-1 $238 $361 #
straight-curve $-1 -2.7749999999999999 -1.1399013115177992 0.65500000000000003 0 -1 0 I I #
coedge $-1 $360 $362 $240 $309 forward $363 $-1 #
edge $-1 $364 -1.2246063538223773e-016 $243 0.38976073279747481 $240 $365 forward 7 unknown #
edge $-1 $185 1.4802973661668748e-016 $364 0.38976073279747525 $241 $366 forward 7 unknown #
edge $-1 $243 0 $367 1.1810355939974218 $305 $368 forward 7 unknown #
point $-1 -2.7749999999999999 -1.1399013115177996 0.65500000000000003 #
coedge $-1 $246 $246 $248 $316 forward $314 $-1 #
loop $-1 $369 $313 $370 #
ellipse-curve $-1 1.1102230246251565e-016 2.2204460492503131e-016 -1.4950000000000001 0 0 -1 -3 -2.2204460492503131e-016 0 1 I I #
edge $-1 $250 0 $253 3.1415926535897931 $313 $371 forward 7 unknown #
point $-1 3 0 -1.4950000000000001 #
point $-1 -3 0 -1.4950000000000001 #
cone-surface $-1 0 0 -0.65500000000000003 0 0 -1 -3 0 0 1 I I 0 1 3 forward I I I I #
coedge $-1 $321 $258 $372 $328 reversed $322 $-1 #
coedge $-1 $258 $320 $266 $330 forward $322 $-1 #
loop $-1 $-1 $321 $373 #
straight-curve $-1 2.7749999999999999 -3 0.65500000000000003 0 1 0 I I #
edge $-1 $374 0 $201 0.38976073279747486 $260 $375 forward 7 unknown #
coedge $-1 $376 $372 $261 $326 forward $363 $-1 #
edge $-1 $263 2.4671622769447924e-016 $374 0.38976073279747508 $261 $377 forward 7 unknown #
face $-1 $378 $262 $3 $-1 $379 reversed single #
edge $-1 $367 0 $263 1.1810355939974218 $320 $380 forward 7 unknown #
point $-1 2.7749999999999999 -1.1399013115177996 0.65500000000000003 #
edge $-1 $367 0 $269 2.7749999999999999 $321 $381 forward 7 unknown #
face $-1 $273 $268 $3 $-1 $382 forward single #
point $-1 2.7749999999999999 -3 0.65500000000000003 #
straight-curve $-1 0 -3 -0.65500000000000003 1 0 0 I I #
plane-surface $-1 0 0 -0.65500000000000003 0 0 1 1 0 0 forward_v I I I I #
point $-1 0 -3 -0.65500000000000003 #
face $-1 $373 $363 $3 $-1 $383 forward single #
plane-surface $-1 0 0 0.65500000000000003 0 0 1 1 0 0 forward_v I I I I #
edge $-1 $283 0 $367 2.7749999999999999 $304 $384 forward 7 unknown #
point $-1 -2.7749999999999999 -3 0.65500000000000003 #
straight-curve $-1 -2.7749999999999999 -3 -0.65500000000000003 1 0 0 I I #
plane-surface $-1 0 0 -0.65500000000000003 0 0 1 1 0 0 forward_v I I I I #
face $-1 $385 $386 $3 $-1 $387 forward single #
loop $-1 $-1 $388 $291 #
cone-surface $-1 2.75 16.009999999999998 0 0 1 0 0.375 0 0 1 I I 0 1 0.375 forward I I I I #
loop $-1 $-1 $389 $228 #
coedge $-1 $390 $390 $295 $351 forward $292 $-1 #
coedge $-1 $297 $294 $390 $391 reversed $229 $-1 #
coedge $-1 $294 $297 $299 $355 forward $229 $-1 #
coedge $-1 $296 $295 $294 $350 reversed $170 $-1 #
edge $-1 $356 0 $392 7.2199999999999989 $294 $393 forward 7 unknown #
edge $-1 $392 0 $353 3.1415926535897931 $346 $394 forward 7 unknown #
vertex $-1 $355 $395 #
vertex $-1 $391 $396 #
straight-curve $-1 0.75 8.7899999999999991 0 0 1 0 I I #
edge $-1 $352 0 $356 3.1415926535897931 $299 $397 forward 7 unknown #
vertex $-1 $355 $398 #
ellipse-curve $-1 2 8.7899999999999991 0 0 1 0 1.25 0 1.1102230246251565e-016 1 I I #
coedge $-1 $399 $301 $362 $400 forward $279 $-1 #
coedge $-1 $302 $399 $376 $401 reversed $279 $-1 #
coedge $-1 $372 $308 $305 $311 forward $363 $-1 #
face $-1 $-1 $306 $3 $-1 $402 forward single #
coedge $-1 $308 $403 $358 $400 reversed $363 $-1 #
loop $-1 $-1 $372 $336 #
vertex $-1 $310 $404 #
ellipse-curve $-1 0 0 0.65500000000000003 0 0 1 -3 0 0 1 I I #
ellipse-curve $-1 0 0 0.65500000000000003 0 0 1 -2.7749999999999999 1.1399013115178014 0 1 I I #
vertex $-1 $328 $405 #
ellipse-curve $-1 0 0 0.65500000000000003 0 0 1 -2.7749999999999999 -1.1399013115177996 0 1 I I #
loop $-1 $406 $407 $370 #
face $-1 $408 $314 $3 $-1 $409 forward single #
ellipse-curve $-1 0 -1.1102230246251565e-016 -1.4950000000000001 0 0 -1 3 1.1102230246251565e-016 0 1 I I #
coedge $-1 $325 $360 $320 $328 forward $363 $-1 #
face $-1 $327 $322 $3 $-1 $410 forward single #
vertex $-1 $326 $411 #
ellipse-curve $-1 0 0 0.65500000000000003 0 0 1 3 0 0 1 I I #
coedge $-1 $403 $325 $359 $401 forward $363 $-1 #
ellipse-curve $-1 0 0 0.65500000000000003 0 0 1 2.7749999999999999 -1.1399013115178005 0 1 I I #
face $-1 $412 $413 $3 $-1 $414 forward single #
plane-surface $-1 0 0 0.65500000000000003 0 0 1 1 0 0 forward_v I I I I #
ellipse-curve $-1 0 0 0.65500000000000003 0 0 1 0 -3 0 1 I I #
straight-curve $-1 0 -3 0.65500000000000003 1 0 0 I I #
plane-surface $-1 -2.7749999999999999 -3 -0.65500000000000003 0 -1 0 1 0 0 forward_v I I I I #
cone-surface $-1 0 0 0.65500000000000003 0 0 1 3 0 0 1 I I 0 1 3 forward I I I I #
straight-curve $-1 -2.7749999999999999 -3 0.65500000000000003 1 0 0 I I #
face $-1 $112 $415 $3 $-1 $416 forward single #
loop $-1 $-1 $417 $342 #
cone-surface $-1 2.75 16.009999999999998 0 0 1 0 0.375 0 0 1 I I 0 1 0.375 forward I I I I #
coedge $-1 $418 $419 $420 $421 forward $343 $-1 #
coedge $-1 $422 $422 $419 $423 reversed $345 $-1 #
coedge $-1 $346 $346 $347 $391 forward $292 $-1 #
edge $-1 $353 0 $392 3.1415926535897931 $390 $424 forward 7 unknown #
vertex $-1 $391 $425 #
straight-curve $-1 3.25 8.7899999999999991 1.5307579422779716e-016 0 1 0 I I #
ellipse-curve $-1 2 16.009999999999998 0 0 1 0 1.25 0 1.1102230246251565e-016 1 I I #
point $-1 0.75 8.7899999999999991 -2.2204460492503131e-016 #
point $-1 0.75 16.009999999999998 -1.1102230246251565e-016 #
ellipse-curve $-1 2 8.7899999999999991 0 0 1 0 -1.25 0 -2.2204460492503131e-016 1 I I #
point $-1 3.25 8.7899999999999991 1.1102230246251565e-016 #
coedge $-1 $359 $358 $426 $427 reversed $279 $-1 #
edge $-1 $364 0 $428 0.84000000000000008 $358 $429 forward 7 unknown #
edge $-1 $374 0 $430 0.84000000000000008 $359 $431 forward 7 unknown #
plane-surface $-1 0 0 0.65500000000000003 0 0 1 1 0 0 forward_v I I I I #
coedge $-1 $362 $376 $432 $433 reversed $363 $-1 #
point $-1 -3 3.6738190614671318e-016 0.65500000000000003 #
point $-1 0 -3 0.65500000000000003 #
loop $-1 $434 $435 $370 #
coedge $-1 $436 $436 $437 $438 reversed $369 $-1 #
face $-1 $439 $440 $3 $-1 $441 reversed single #
plane-surface $-1 0 0 -1.4950000000000001 0 0 -1 -1 0 0 forward_v I I I I #
plane-surface $-1 0 0 0.65500000000000003 0 0 1 1 0 0 forward_v I I I I #
point $-1 3 0 0.65500000000000003 #
face $-1 $442 $443 $3 $-1 $444 reversed single #
loop $-1 $445 $432 $378 #
plane-surface $-1 0 0 1.4950000000000001 0 0 1 1 0 0 forward_v I I I I #
loop $-1 $-1 $446 $385 #
plane-surface $-1 2.7749999999999999 18.009999999999998 -0.65500000000000003 0 1 0 1 0 0 forward_v I I I I #
coedge $-1 $447 $448 $449 $450 forward $386 $-1 #
coedge $-1 $449 $388 $446 $451 reversed $343 $-1 #
coedge $-1 $388 $449 $389 $423 forward $343 $-1 #
coedge $-1 $448 $447 $388 $421 reversed $386 $-1 #
edge $-1 $452 0 $453 2 $420 $454 forward 7 unknown #
coedge $-1 $389 $389 $448 $455 reversed $345 $-1 #
edge $-1 $456 0 $452 3.1415926535897931 $389 $457 forward 7 unknown #
ellipse-curve $-1 2 16.009999999999998 0 0 1 0 -1.25 0 -1.1102230246251565e-016 1 I I #
point $-1 3.25 16.009999999999998 1.1102230246251565e-016 #
coedge $-1 $432 $432 $399 $427 forward $413 $-1 #
edge $-1 $430 0 $428 3.1415926535897931 $426 $458 forward 7 unknown #
vertex $-1 $427 $459 #
straight-curve $-1 -3 3.6738190614671318e-016 0.65500000000000003 0 0 1 I I #
vertex $-1 $427 $460 #
straight-curve $-1 3 0 0.65500000000000003 0 0 1 I I #
coedge $-1 $426 $426 $403 $433 forward $413 $-1 #
edge $-1 $428 0 $430 3.1415926535897931 $432 $461 forward 7 unknown #
loop $-1 $462 $463 $370 #
coedge $-1 $464 $464 $465 $466 forward $406 $-1 #
coedge $-1 $407 $407 $467 $468 reversed $369 $-1 #
coedge $-1 $469 $470 $407 $438 forward $443 $-1 #
edge $-1 $471 0 $472 3.1415926535897931 $407 $473 forward 7 unknown #
face $-1 $474 $475 $3 $-1 $476 reversed single #
loop $-1 $-1 $477 $408 #
cone-surface $-1 -1.4239999999999999 -2.1320000000000001 -1.4950000000000001 0 0 1 0.156 0 0 1 I I 0 1 0.156 forward I I I I #
face $-1 $370 $478 $3 $-1 $479 reversed single #
loop $-1 $-1 $470 $412 #
cone-surface $-1 0 0 1.4950000000000001 0 0 -1 -2 0 0 1 I I 0 1 2 forward I I I I #
loop $-1 $480 $481 $378 #
coedge $-1 $482 $482 $418 $451 forward $415 $-1 #
coedge $-1 $420 $417 $482 $483 reversed $386 $-1 #
coedge $-1 $417 $420 $422 $455 forward $386 $-1 #
coedge $-1 $419 $418 $417 $450 reversed $343 $-1 #
edge $-1 $456 0 $484 2 $417 $485 forward 7 unknown #
edge $-1 $484 0 $453 3.1415926535897931 $446 $486 forward 7 unknown #
vertex $-1 $455 $487 #
vertex $-1 $483 $488 #
straight-curve $-1 3.125 16.009999999999998 0 0 1 0 I I #
edge $-1 $452 0 $456 3.1415926535897931 $422 $489 forward 7 unknown #
vertex $-1 $455 $490 #
ellipse-curve $-1 2.75 16.009999999999998 0 0 1 0 -0.375 0 0 1 I I #
ellipse-curve $-1 -1.1102230246251565e-016 2.2204460492503131e-016 1.4950000000000001 0 0 1 3 -2.2204460492503131e-016 0 1 I I #
point $-1 -3 0 1.4950000000000001 #
point $-1 3 0 1.4950000000000001 #
ellipse-curve $-1 0 -1.1102230246251565e-016 1.4950000000000001 0 0 1 -3 1.1102230246251565e-016 0 1 I I #
loop $-1 $491 $492 $370 #
coedge $-1 $493 $493 $494 $495 forward $434 $-1 #
coedge $-1 $435 $435 $496 $497 forward $406 $-1 #
coedge $-1 $477 $498 $435 $466 reversed $440 $-1 #
edge $-1 $499 0 $500 3.1415926535897931 $435 $501 forward 7 unknown #
coedge $-1 $502 $503 $436 $468 forward $478 $-1 #
edge $-1 $472 0 $471 3.1415926535897931 $436 $504 forward 7 unknown #
coedge $-1 $505 $437 $503 $506 reversed $443 $-1 #
coedge $-1 $437 $505 $502 $507 forward $443 $-1 #
vertex $-1 $468 $508 #
vertex $-1 $468 $509 #
ellipse-curve $-1 -5.5511151231257827e-017 3.3306690738754696e-016 -1.4950000000000001 0 0 -1 2 -3.3306690738754696e-016 0 1 I I #
face $-1 $510 $511 $3 $-1 $512 reversed single #
loop $-1 $-1 $513 $439 #
cone-surface $-1 -1.4239999999999999 -2.1320000000000001 -1.4950000000000001 0 0 1 0.156 0 0 1 I I 0 1 0.156 forward I I I I #
coedge $-1 $514 $465 $515 $516 forward $440 $-1 #
loop $-1 $-1 $503 $442 #
cone-surface $-1 0 0 1.4950000000000001 0 0 -1 -2 0 0 1 I I 0 1 2 forward I I I I #
loop $-1 $517 $518 $378 #
coedge $-1 $519 $519 $505 $520 forward $445 $-1 #
coedge $-1 $446 $446 $447 $483 forward $415 $-1 #
edge $-1 $453 0 $484 3.1415926535897931 $482 $521 forward 7 unknown #
vertex $-1 $483 $522 #
straight-curve $-1 2.375 16.009999999999998 -4.5922738268339147e-017 0 1 0 I I #
ellipse-curve $-1 2.75 18.009999999999998 0 0 1 0 -0.375 0 0 1 I I #
point $-1 3.125 16.009999999999998 0 #
point $-1 3.125 18.009999999999998 0 #
ellipse-curve $-1 2.75 16.009999999999998 0 0 1 0 0.375 0 0 1 I I #
point $-1 2.375 16.009999999999998 0 #
loop $-1 $-1 $523 $370 #
coedge $-1 $524 $524 $525 $526 forward $462 $-1 #
coedge $-1 $463 $463 $527 $528 forward $434 $-1 #
coedge $-1 $529 $530 $463 $495 reversed $531 $-1 #
edge $-1 $532 0 $533 3.1415926535897931 $463 $534 forward 7 unknown #
coedge $-1 $513 $515 $464 $497 reversed $475 $-1 #
edge $-1 $500 0 $499 3.1415926535897931 $464 $535 forward 7 unknown #
coedge $-1 $465 $514 $513 $536 reversed $440 $-1 #
vertex $-1 $497 $537 #
vertex $-1 $497 $538 #
ellipse-curve $-1 -1.4239999999999999 -2.1320000000000001 -1.4950000000000001 0 0 1 -0.15599999999999992 0 0 1 I I #
coedge $-1 $539 $467 $470 $507 reversed $478 $-1 #
coedge $-1 $467 $539 $469 $506 forward $478 $-1 #
ellipse-curve $-1 5.5511151231257827e-017 3.3306690738754696e-016 -1.4950000000000001 0 0 -1 -2 -3.3306690738754696e-016 0 1 I I #
coedge $-1 $470 $469 $481 $520 reversed $443 $-1 #
edge $-1 $540 0 $472 2.9900000000000002 $503 $541 forward 7 unknown #
edge $-1 $542 0 $471 2.9900000000000002 $502 $543 forward 7 unknown #
point $-1 2 0 -1.4950000000000001 #
point $-1 -2 0 -1.4950000000000001 #
face $-1 $544 $531 $3 $-1 $545 reversed single #
loop $-1 $-1 $546 $474 #
plane-surface $-1 -1.4239999999999999 -2.1320000000000001 -0.65500000000000014 0 0 1 1 0 0 forward_v I I I I #
coedge $-1 $547 $496 $498 $536 forward $475 $-1 #
coedge $-1 $498 $477 $546 $548 forward $440 $-1 #
coedge $-1 $496 $547 $477 $516 reversed $475 $-1 #
edge $-1 $499 0 $549 0.83999999999999997 $515 $550 forward 7 unknown #
loop $-1 $551 $552 $378 #
coedge $-1 $553 $553 $554 $555 forward $480 $-1 #
coedge $-1 $481 $481 $539 $556 forward $445 $-1 #
edge $-1 $542 0 $540 3.1415926535897931 $481 $557 forward 7 unknown #
ellipse-curve $-1 2.75 18.009999999999998 0 0 1 0 0.375 0 0 1 I I #
point $-1 2.375 18.009999999999998 0 #
coedge $-1 $558 $558 $559 $560 forward $491 $-1 #
coedge $-1 $492 $492 $561 $562 forward $462 $-1 #
coedge $-1 $563 $564 $492 $526 reversed $565 $-1 #
edge $-1 $566 0 $567 3.1415926535897931 $492 $568 forward 7 unknown #
coedge $-1 $569 $570 $493 $528 reversed $571 $-1 #
edge $-1 $533 0 $532 3.1415926535897931 $493 $572 forward 7 unknown #
coedge $-1 $573 $494 $570 $574 forward $531 $-1 #
coedge $-1 $494 $573 $569 $575 reversed $531 $-1 #
loop $-1 $-1 $529 $510 #
vertex $-1 $528 $576 #
vertex $-1 $528 $577 #
ellipse-curve $-1 -0.5 -2.5150000000000001 -1.4950000000000001 0 0 1 -0.15600000000000003 0 0 1 I I #
ellipse-curve $-1 -1.4239999999999999 -2.1320000000000001 -1.4950000000000001 0 0 1 0.15599999999999992 0 0 1 I I #
edge $-1 $500 0 $578 0.83999999999999997 $513 $579 forward 7 unknown #
point $-1 -1.5799999999999998 -2.1320000000000001 -1.4950000000000001 #
point $-1 -1.268 -2.1320000000000001 -1.4950000000000001 #
coedge $-1 $503 $502 $519 $556 reversed $478 $-1 #
vertex $-1 $556 $580 #
straight-curve $-1 -2 0 1.4950000000000001 0 0 -1 I I #
vertex $-1 $556 $581 #
straight-curve $-1 2 2.4492127076447545e-016 1.4950000000000001 0 0 -1 I I #
face $-1 $582 $571 $3 $-1 $583 reversed single #
cone-surface $-1 -0.5 -2.5150000000000001 -1.4950000000000001 0 0 1 0.156 0 0 1 I I 0 1 0.156 forward I I I I #
coedge $-1 $584 $584 $514 $548 reversed $511 $-1 #
coedge $-1 $515 $513 $584 $585 forward $475 $-1 #
edge $-1 $549 0 $578 3.1415926535897931 $546 $586 forward 7 unknown #
vertex $-1 $585 $587 #
straight-curve $-1 -1.5799999999999998 -2.1320000000000001 -1.4950000000000001 0 0 1 I I #
loop $-1 $588 $589 $378 #
coedge $-1 $590 $590 $591 $592 forward $517 $-1 #
coedge $-1 $518 $518 $593 $594 forward $480 $-1 #
coedge $-1 $595 $596 $518 $555 reversed $597 $-1 #
edge $-1 $598 0 $599 3.1415926535897931 $518 $600 forward 7 unknown #
edge $-1 $540 0 $542 3.1415926535897931 $519 $601 forward 7 unknown #
ellipse-curve $-1 0 0 1.4950000000000001 0 0 -1 2 0 0 1 I I #
coedge $-1 $523 $523 $602 $603 forward $491 $-1 #
coedge $-1 $604 $605 $523 $560 reversed $606 $-1 #
edge $-1 $607 0 $608 3.1415926535897931 $523 $609 forward 7 unknown #
coedge $-1 $610 $611 $524 $562 reversed $612 $-1 #
edge $-1 $567 0 $566 3.1415926535897931 $524 $613 forward 7 unknown #
coedge $-1 $614 $525 $611 $615 forward $565 $-1 #
coedge $-1 $525 $614 $610 $616 reversed $565 $-1 #
loop $-1 $-1 $563 $617 #
vertex $-1 $562 $618 #
vertex $-1 $562 $619 #
ellipse-curve $-1 0.5 -2.5150000000000001 -1.4950000000000001 0 0 1 -0.15600000000000003 0 0 1 I I #
coedge $-1 $620 $527 $530 $575 forward $571 $-1 #
coedge $-1 $527 $620 $529 $574 reversed $571 $-1 #
loop $-1 $-1 $569 $544 #
ellipse-curve $-1 -0.5 -2.5150000000000001 -1.4950000000000001 0 0 1 0.15600000000000003 0 0 1 I I #
coedge $-1 $530 $529 $621 $622 forward $531 $-1 #
edge $-1 $532 0 $623 0.83999999999999997 $570 $624 forward 7 unknown #
edge $-1 $533 0 $625 0.83999999999999997 $569 $626 forward 7 unknown #
point $-1 -0.65600000000000003 -2.5150000000000001 -1.4950000000000001 #
point $-1 -0.34399999999999997 -2.5150000000000001 -1.4950000000000001 #
vertex $-1 $585 $627 #
straight-curve $-1 -1.268 -2.1320000000000001 -1.4950000000000001 0 0 1 I I #
point $-1 -2 0 1.4950000000000001 #
point $-1 2 0 1.4950000000000001 #
face $-1 $617 $628 $3 $-1 $629 reversed single #
cone-surface $-1 -0.5 -2.5150000000000001 -1.4950000000000001 0 0 1 0.156 0 0 1 I I 0 1 0.156 forward I I I I #
coedge $-1 $546 $546 $547 $585 reversed $511 $-1 #
edge $-1 $578 0 $549 3.1415926535897931 $584 $630 forward 7 unknown #
ellipse-curve $-1 -1.4239999999999999 -2.1320000000000001 -0.65500000000000014 0 0 1 -0.15599999999999992 0 0 1 I I #
point $-1 -1.5799999999999998 -2.1320000000000001 -0.65500000000000014 #
loop $-1 $-1 $631 $378 #
coedge $-1 $632 $632 $633 $634 forward $551 $-1 #
coedge $-1 $552 $552 $635 $636 forward $517 $-1 #
coedge $-1 $637 $638 $552 $592 reversed $639 $-1 #
edge $-1 $640 0 $641 3.1415926535897931 $552 $642 forward 7 unknown #
coedge $-1 $643 $644 $553 $594 reversed $645 $-1 #
edge $-1 $599 0 $598 3.1415926535897931 $553 $646 forward 7 unknown #
coedge $-1 $647 $554 $644 $648 forward $597 $-1 #
coedge $-1 $554 $647 $643 $649 reversed $597 $-1 #
loop $-1 $-1 $595 $650 #
vertex $-1 $594 $651 #
vertex $-1 $594 $652 #
ellipse-curve $-1 0.5 -2.5150000000000001 1.4950000000000001 0 0 -1 0.15600000000000003 0 0 1 I I #
ellipse-curve $-1 0 0 1.4950000000000001 0 0 -1 -2 0 0 1 I I #
coedge $-1 $653 $654 $558 $603 reversed $655 $-1 #
edge $-1 $608 0 $607 3.1415926535897931 $558 $656 forward 7 unknown #
coedge $-1 $657 $559 $654 $658 forward $606 $-1 #
coedge $-1 $559 $657 $653 $659 reversed $606 $-1 #
loop $-1 $-1 $604 $660 #
vertex $-1 $603 $661 #
vertex $-1 $603 $662 #
ellipse-curve $-1 1.4239999999999999 -2.1320000000000001 -1.4950000000000001 0 0 1 -0.15599999999999992 0 0 1 I I #
coedge $-1 $663 $561 $564 $616 forward $612 $-1 #
coedge $-1 $561 $663 $563 $615 reversed $612 $-1 #
loop $-1 $-1 $610 $664 #
ellipse-curve $-1 0.5 -2.5150000000000001 -1.4950000000000001 0 0 1 0.15600000000000003 0 0 1 I I #
coedge $-1 $564 $563 $665 $666 forward $565 $-1 #
edge $-1 $566 0 $667 0.83999999999999997 $611 $668 forward 7 unknown #
edge $-1 $567 0 $669 0.83999999999999997 $610 $670 forward 7 unknown #
face $-1 $664 $565 $3 $-1 $671 reversed single #
point $-1 0.34399999999999997 -2.5150000000000001 -1.4950000000000001 #
point $-1 0.65600000000000003 -2.5150000000000001 -1.4950000000000001 #
coedge $-1 $570 $569 $672 $673 forward $571 $-1 #
coedge $-1 $672 $672 $573 $622 reversed $628 $-1 #
edge $-1 $623 0 $625 3.1415926535897931 $621 $674 forward 7 unknown #
vertex $-1 $673 $675 #
straight-curve $-1 -0.65600000000000003 -2.5150000000000001 -1.4950000000000001 0 0 1 I I #
vertex $-1 $673 $676 #
straight-curve $-1 -0.34399999999999997 -2.5150000000000001 -1.4950000000000001 0 0 1 I I #
point $-1 -1.268 -2.1320000000000001 -0.65500000000000014 #
loop $-1 $-1 $621 $582 #
plane-surface $-1 -0.5 -2.5150000000000001 -0.65500000000000014 0 0 1 1 0 0 forward_v I I I I #
ellipse-curve $-1 -1.4239999999999999 -2.1320000000000001 -0.65500000000000014 0 0 1 0.15599999999999992 0 0 1 I I #
coedge $-1 $677 $677 $678 $679 forward $588 $-1 #
coedge $-1 $589 $589 $680 $681 forward $551 $-1 #
coedge $-1 $682 $683 $589 $634 reversed $684 $-1 #
edge $-1 $685 0 $686 3.1415926535897931 $589 $687 forward 7 unknown #
coedge $-1 $688 $689 $590 $636 reversed $690 $-1 #
edge $-1 $641 0 $640 3.1415926535897931 $590 $691 forward 7 unknown #
coedge $-1 $692 $591 $689 $693 forward $639 $-1 #
coedge $-1 $591 $692 $688 $694 reversed $639 $-1 #
loop $-1 $-1 $637 $695 #
vertex $-1 $636 $696 #
vertex $-1 $636 $697 #
ellipse-curve $-1 -0.5 -2.5150000000000001 1.4950000000000001 0 0 -1 0.15600000000000003 0 0 1 I I #
coedge $-1 $698 $593 $596 $649 forward $645 $-1 #
coedge $-1 $593 $698 $595 $648 reversed $645 $-1 #
loop $-1 $-1 $643 $699 #
ellipse-curve $-1 0.5 -2.5150000000000001 1.4950000000000001 0 0 -1 -0.15600000000000003 0 0 1 I I #
coedge $-1 $596 $595 $700 $701 forward $597 $-1 #
edge $-1 $598 0 $702 0.83999999999999997 $644 $703 forward 7 unknown #
edge $-1 $599 0 $704 0.83999999999999997 $643 $705 forward 7 unknown #
face $-1 $699 $597 $3 $-1 $706 reversed single #
point $-1 0.65600000000000003 -2.5150000000000001 1.4950000000000001 #
point $-1 0.34399999999999997 -2.5150000000000001 1.4950000000000001 #
coedge $-1 $707 $602 $605 $659 forward $655 $-1 #
coedge $-1 $602 $707 $604 $658 reversed $655 $-1 #
loop $-1 $-1 $653 $708 #
ellipse-curve $-1 1.4239999999999999 -2.1320000000000001 -1.4950000000000001 0 0 1 0.15599999999999992 0 0 1 I I #
coedge $-1 $605 $604 $709 $710 forward $606 $-1 #
edge $-1 $607 0 $711 0.83999999999999997 $654 $712 forward 7 unknown #
edge $-1 $608 0 $713 0.83999999999999997 $653 $714 forward 7 unknown #
face $-1 $708 $606 $3 $-1 $715 reversed single #
point $-1 1.268 -2.1320000000000001 -1.4950000000000001 #
point $-1 1.5799999999999998 -2.1320000000000001 -1.4950000000000001 #
coedge $-1 $611 $610 $716 $717 forward $612 $-1 #
face $-1 $718 $612 $3 $-1 $719 reversed single #
coedge $-1 $716 $716 $614 $666 reversed $720 $-1 #
edge $-1 $667 0 $669 3.1415926535897931 $665 $721 forward 7 unknown #
vertex $-1 $717 $722 #
straight-curve $-1 0.34399999999999997 -2.5150000000000001 -1.4950000000000001 0 0 1 I I #
vertex $-1 $717 $723 #
straight-curve $-1 0.65600000000000003 -2.5150000000000001 -1.4950000000000001 0 0 1 I I #
cone-surface $-1 0.5 -2.5150000000000001 -1.4950000000000001 0 0 1 0.156 0 0 1 I I 0 1 0.156 forward I I I I #
coedge $-1 $621 $621 $620 $673 reversed $628 $-1 #
edge $-1 $625 0 $623 3.1415926535897931 $672 $724 forward 7 unknown #
ellipse-curve $-1 -0.5 -2.5150000000000001 -0.65500000000000014 0 0 1 -0.15600000000000003 0 0 1 I I #
point $-1 -0.65600000000000003 -2.5150000000000001 -0.65500000000000014 #
point $-1 -0.34399999999999997 -2.5150000000000001 -0.65500000000000014 #
coedge $-1 $631 $631 $725 $726 forward $588 $-1 #
coedge $-1 $727 $728 $631 $679 reversed $729 $-1 #
edge $-1 $730 0 $731 3.1415926535897931 $631 $732 forward 7 unknown #
coedge $-1 $733 $734 $632 $681 reversed $735 $-1 #
edge $-1 $686 0 $685 3.1415926535897931 $632 $736 forward 7 unknown #
coedge $-1 $737 $633 $734 $738 forward $684 $-1 #
coedge $-1 $633 $737 $733 $739 reversed $684 $-1 #
loop $-1 $-1 $682 $740 #
vertex $-1 $681 $741 #
vertex $-1 $681 $742 #
ellipse-curve $-1 1.4239999999999999 -2.1320000000000001 1.4950000000000001 0 0 -1 0.15599999999999992 0 0 1 I I #
coedge $-1 $743 $635 $638 $694 forward $690 $-1 #
coedge $-1 $635 $743 $637 $693 reversed $690 $-1 #
loop $-1 $-1 $688 $744 #
ellipse-curve $-1 -0.5 -2.5150000000000001 1.4950000000000001 0 0 -1 -0.15600000000000003 0 0 1 I I #
coedge $-1 $638 $637 $745 $746 forward $639 $-1 #
edge $-1 $640 0 $747 0.83999999999999997 $689 $748 forward 7 unknown #
edge $-1 $641 0 $749 0.83999999999999997 $688 $750 forward 7 unknown #
face $-1 $744 $639 $3 $-1 $751 reversed single #
point $-1 -0.34399999999999997 -2.5150000000000001 1.4950000000000001 #
point $-1 -0.65600000000000003 -2.5150000000000001 1.4950000000000001 #
coedge $-1 $644 $643 $752 $753 forward $645 $-1 #
face $-1 $754 $645 $3 $-1 $755 reversed single #
coedge $-1 $752 $752 $647 $701 reversed $756 $-1 #
edge $-1 $702 0 $704 3.1415926535897931 $700 $757 forward 7 unknown #
vertex $-1 $753 $758 #
straight-curve $-1 0.65600000000000003 -2.5150000000000001 1.4950000000000001 0 0 -1 I I #
vertex $-1 $753 $759 #
straight-curve $-1 0.34399999999999997 -2.5150000000000001 1.4950000000000001 0 0 -1 I I #
cone-surface $-1 0.5 -2.5150000000000001 1.4950000000000001 0 0 -1 -0.156 0 0 1 I I 0 1 0.156 forward I I I I #
coedge $-1 $654 $653 $760 $761 forward $655 $-1 #
face $-1 $762 $655 $3 $-1 $763 reversed single #
coedge $-1 $760 $760 $657 $710 reversed $764 $-1 #
edge $-1 $711 0 $713 3.1415926535897931 $709 $765 forward 7 unknown #
vertex $-1 $761 $766 #
straight-curve $-1 1.268 -2.1320000000000001 -1.4950000000000001 0 0 1 I I #
vertex $-1 $761 $767 #
straight-curve $-1 1.5799999999999998 -2.1320000000000001 -1.4950000000000001 0 0 1 I I #
cone-surface $-1 1.4239999999999999 -2.1320000000000001 -1.4950000000000001 0 0 1 0.156 0 0 1 I I 0 1 0.156 forward I I I I #
coedge $-1 $665 $665 $663 $717 reversed $720 $-1 #
edge $-1 $669 0 $667 3.1415926535897931 $716 $768 forward 7 unknown #
face $-1 $660 $720 $3 $-1 $769 reversed single #
cone-surface $-1 0.5 -2.5150000000000001 -1.4950000000000001 0 0 1 0.156 0 0 1 I I 0 1 0.156 forward I I I I #
loop $-1 $-1 $665 $718 #
ellipse-curve $-1 0.5 -2.5150000000000001 -0.65500000000000014 0 0 1 -0.15600000000000003 0 0 1 I I #
point $-1 0.34399999999999997 -2.5150000000000001 -0.65500000000000014 #
point $-1 0.65600000000000003 -2.5150000000000001 -0.65500000000000014 #
ellipse-curve $-1 -0.5 -2.5150000000000001 -0.65500000000000014 0 0 1 0.15600000000000003 0 0 1 I I #
coedge $-1 $770 $771 $677 $726 reversed $772 $-1 #
edge $-1 $731 0 $730 3.1415926535897931 $677 $773 forward 7 unknown #
coedge $-1 $774 $678 $771 $775 forward $729 $-1 #
coedge $-1 $678 $774 $770 $776 reversed $729 $-1 #
loop $-1 $-1 $727 $777 #
vertex $-1 $726 $778 #
vertex $-1 $726 $779 #
ellipse-curve $-1 -1.4239999999999999 -2.1320000000000001 1.4950000000000001 0 0 -1 0.15599999999999992 0 0 1 I I #
coedge $-1 $780 $680 $683 $739 forward $735 $-1 #
coedge $-1 $680 $780 $682 $738 reversed $735 $-1 #
loop $-1 $-1 $733 $781 #
ellipse-curve $-1 1.4239999999999999 -2.1320000000000001 1.4950000000000001 0 0 -1 -0.15599999999999992 0 0 1 I I #
coedge $-1 $683 $682 $782 $783 forward $684 $-1 #
edge $-1 $685 0 $784 0.83999999999999997 $734 $785 forward 7 unknown #
edge $-1 $686 0 $786 0.83999999999999997 $733 $787 forward 7 unknown #
face $-1 $781 $684 $3 $-1 $788 reversed single #
point $-1 1.5799999999999998 -2.1320000000000001 1.4950000000000001 #
point $-1 1.268 -2.1320000000000001 1.4950000000000001 #
coedge $-1 $689 $688 $789 $790 forward $690 $-1 #
face $-1 $791 $690 $3 $-1 $792 reversed single #
coedge $-1 $789 $789 $692 $746 reversed $793 $-1 #
edge $-1 $747 0 $749 3.1415926535897931 $745 $794 forward 7 unknown #
vertex $-1 $790 $795 #
straight-curve $-1 -0.34399999999999997 -2.5150000000000001 1.4950000000000001 0 0 -1 I I #
vertex $-1 $790 $796 #
straight-curve $-1 -0.65600000000000003 -2.5150000000000001 1.4950000000000001 0 0 -1 I I #
cone-surface $-1 -0.5 -2.5150000000000001 1.4950000000000001 0 0 -1 -0.156 0 0 1 I I 0 1 0.156 forward I I I I #
coedge $-1 $700 $700 $698 $753 reversed $756 $-1 #
edge $-1 $704 0 $702 3.1415926535897931 $752 $797 forward 7 unknown #
face $-1 $695 $756 $3 $-1 $798 reversed single #
cone-surface $-1 0.5 -2.5150000000000001 1.4950000000000001 0 0 -1 -0.156 0 0 1 I I 0 1 0.156 forward I I I I #
loop $-1 $-1 $700 $754 #
ellipse-curve $-1 0.5 -2.5150000000000001 0.65500000000000014 0 0 -1 0.15600000000000003 0 0 1 I I #
point $-1 0.65600000000000003 -2.5150000000000001 0.65500000000000014 #
point $-1 0.34399999999999997 -2.5150000000000001 0.65500000000000014 #
coedge $-1 $709 $709 $707 $761 reversed $764 $-1 #
edge $-1 $713 0 $711 3.1415926535897931 $760 $799 forward 7 unknown #
face $-1 $650 $764 $3 $-1 $800 reversed single #
cone-surface $-1 1.4239999999999999 -2.1320000000000001 -1.4950000000000001 0 0 1 0.156 0 0 1 I I 0 1 0.156 forward I I I I #
loop $-1 $-1 $709 $762 #
ellipse-curve $-1 1.4239999999999999 -2.1320000000000001 -0.65500000000000014 0 0 1 -0.15599999999999992 0 0 1 I I #
point $-1 1.268 -2.1320000000000001 -0.65500000000000014 #
point $-1 1.5799999999999998 -2.1320000000000001 -0.65500000000000014 #
ellipse-curve $-1 0.5 -2.5150000000000001 -0.65500000000000014 0 0 1 0.15600000000000003 0 0 1 I I #
plane-surface $-1 0.5 -2.5150000000000001 -0.65500000000000014 0 0 1 1 0 0 forward_v I I I I #
coedge $-1 $801 $725 $728 $776 forward $772 $-1 #
coedge $-1 $725 $801 $727 $775 reversed $772 $-1 #
loop $-1 $-1 $770 $802 #
ellipse-curve $-1 -1.4239999999999999 -2.1320000000000001 1.4950000000000001 0 0 -1 -0.15599999999999992 0 0 1 I I #
coedge $-1 $728 $727 $803 $804 forward $729 $-1 #
edge $-1 $730 0 $805 0.83999999999999997 $771 $806 forward 7 unknown #
edge $-1 $731 0 $807 0.83999999999999997 $770 $808 forward 7 unknown #
face $-1 $802 $729 $3 $-1 $809 reversed single #
point $-1 -1.268 -2.1320000000000001 1.4950000000000001 #
point $-1 -1.5799999999999998 -2.1320000000000001 1.4950000000000001 #
coedge $-1 $734 $733 $810 $811 forward $735 $-1 #
face $-1 $812 $735 $3 $-1 $813 reversed single #
coedge $-1 $810 $810 $737 $783 reversed $814 $-1 #
edge $-1 $784 0 $786 3.1415926535897931 $782 $815 forward 7 unknown #
vertex $-1 $811 $816 #
straight-curve $-1 1.5799999999999998 -2.1320000000000001 1.4950000000000001 0 0 -1 I I #
vertex $-1 $811 $817 #
straight-curve $-1 1.268 -2.1320000000000001 1.4950000000000001 0 0 -1 I I #
cone-surface $-1 1.4239999999999999 -2.1320000000000001 1.4950000000000001 0 0 -1 -0.156 0 0 1 I I 0 1 0.156 forward I I I I #
coedge $-1 $745 $745 $743 $790 reversed $793 $-1 #
edge $-1 $749 0 $747 3.1415926535897931 $789 $818 forward 7 unknown #
face $-1 $740 $793 $3 $-1 $819 reversed single #
cone-surface $-1 -0.5 -2.5150000000000001 1.4950000000000001 0 0 -1 -0.156 0 0 1 I I 0 1 0.156 forward I I I I #
loop $-1 $-1 $745 $791 #
ellipse-curve $-1 -0.5 -2.5150000000000001 0.65500000000000014 0 0 -1 0.15600000000000003 0 0 1 I I #
point $-1 -0.34399999999999997 -2.5150000000000001 0.65500000000000014 #
point $-1 -0.65600000000000003 -2.5150000000000001 0.65500000000000014 #
ellipse-curve $-1 0.5 -2.5150000000000001 0.65500000000000014 0 0 -1 -0.15600000000000003 0 0 1 I I #
plane-surface $-1 0.5 -2.5150000000000001 0.65500000000000014 0 0 -1 -1 0 0 forward_v I I I I #
ellipse-curve $-1 1.4239999999999999 -2.1320000000000001 -0.65500000000000014 0 0 1 0.15599999999999992 0 0 1 I I #
plane-surface $-1 1.4239999999999999 -2.1320000000000001 -0.65500000000000014 0 0 1 1 0 0 forward_v I I I I #
coedge $-1 $771 $770 $820 $821 forward $772 $-1 #
face $-1 $822 $772 $3 $-1 $823 reversed single #
coedge $-1 $820 $820 $774 $804 reversed $824 $-1 #
edge $-1 $805 0 $807 3.1415926535897931 $803 $825 forward 7 unknown #
vertex $-1 $821 $826 #
straight-curve $-1 -1.268 -2.1320000000000001 1.4950000000000001 0 0 -1 I I #
vertex $-1 $821 $827 #
straight-curve $-1 -1.5799999999999998 -2.1320000000000001 1.4950000000000001 0 0 -1 I I #
cone-surface $-1 -1.4239999999999999 -2.1320000000000001 1.4950000000000001 0 0 -1 -0.156 0 0 1 I I 0 1 0.156 forward I I I I #
coedge $-1 $782 $782 $780 $811 reversed $814 $-1 #
edge $-1 $786 0 $784 3.1415926535897931 $810 $828 forward 7 unknown #
face $-1 $777 $814 $3 $-1 $829 reversed single #
cone-surface $-1 1.4239999999999999 -2.1320000000000001 1.4950000000000001 0 0 -1 -0.156 0 0 1 I I 0 1 0.156 forward I I I I #
loop $-1 $-1 $782 $812 #
ellipse-curve $-1 1.4239999999999999 -2.1320000000000001 0.65500000000000014 0 0 -1 0.15599999999999992 0 0 1 I I #
point $-1 1.5799999999999998 -2.1320000000000001 0.65500000000000014 #
point $-1 1.268 -2.1320000000000001 0.65500000000000014 #
ellipse-curve $-1 -0.5 -2.5150000000000001 0.65500000000000014 0 0 -1 -0.15600000000000003 0 0 1 I I #
plane-surface $-1 -0.5 -2.5150000000000001 0.65500000000000014 0 0 -1 -1 0 0 forward_v I I I I #
coedge $-1 $803 $803 $801 $821 reversed $824 $-1 #
edge $-1 $807 0 $805 3.1415926535897931 $820 $830 forward 7 unknown #
face $-1 $361 $824 $3 $-1 $831 reversed single #
cone-surface $-1 -1.4239999999999999 -2.1320000000000001 1.4950000000000001 0 0 -1 -0.156 0 0 1 I I 0 1 0.156 forward I I I I #
loop $-1 $-1 $803 $822 #
ellipse-curve $-1 -1.4239999999999999 -2.1320000000000001 0.65500000000000014 0 0 -1 0.15599999999999992 0 0 1 I I #
point $-1 -1.268 -2.1320000000000001 0.65500000000000014 #
point $-1 -1.5799999999999998 -2.1320000000000001 0.65500000000000014 #
ellipse-curve $-1 1.4239999999999999 -2.1320000000000001 0.65500000000000014 0 0 -1 -0.15599999999999992 0 0 1 I I #
plane-surface $-1 1.4239999999999999 -2.1320000000000001 0.65500000000000014 0 0 -1 -1 0 0 forward_v I I I I #
ellipse-curve $-1 -1.4239999999999999 -2.1320000000000001 0.65500000000000014 0 0 -1 -0.15599999999999992 0 0 1 I I #
plane-surface $-1 -1.4239999999999999 -2.1320000000000001 0.65500000000000014 0 0 -1 -1 0 0 forward_v I I I I #
End-of-ACIS-data 