105 527 1 0                             
body $-1 $1 $-1 $-1 #
lump $-1 $-1 $2 $0 #
shell $-1 $-1 $-1 $3 $1 #
face $-1 $4 $5 $2 $-1 $6 reversed single #
face $-1 $7 $8 $2 $-1 $9 reversed single #
loop $-1 $-1 $10 $3 #
plane-surface $-1 0 0 -0.655 0 0 -1 -1 0 0 0 #
face $-1 $11 $12 $2 $-1 $13 forward single #
loop $-1 $-1 $14 $4 #
plane-surface $-1 0 0 0.655 0 0 1 1 0 0 0 #
coedge $-1 $15 $15 $16 $17 1 $5 $-1 #
face $-1 $18 $19 $2 $-1 $13 forward single #
loop $-1 $-1 $20 $7 #
plane-surface $-1 0 0 0.655 0 0 1 1 0 0 0 #
coedge $-1 $21 $21 $22 $23 0 $8 $-1 #
coedge $-1 $10 $10 $24 $25 0 $5 $-1 #
coedge $-1 $26 $27 $10 $17 0 $28 $-1 #
edge $-1 $29 $30 $10 $31 0 #
face $-1 $32 $33 $2 $-1 $34 reversed single #
loop $-1 $-1 $35 $11 #
coedge $-1 $36 $37 $38 $39 1 $12 $-1 #
coedge $-1 $14 $14 $40 $41 0 $8 $-1 #
coedge $-1 $42 $43 $14 $23 1 $28 $-1 #
edge $-1 $44 $45 $14 $46 0 #
coedge $-1 $47 $48 $15 $25 1 $49 $-1 #
edge $-1 $29 $30 $24 $50 0 #
coedge $-1 $51 $16 $52 $53 1 $28 $-1 #
coedge $-1 $16 $54 $55 $56 1 $28 $-1 #
loop $-1 $-1 $54 $57 #
vertex $-1 $25 $58 #
vertex $-1 $25 $59 #
straight-curve $-1 -2.775 -1.1399013115178 -0.655 -1.94792832222796e-16 -1 0 #
face $-1 $60 $61 $2 $-1 $34 reversed single #
loop $-1 $-1 $55 $18 #
plane-surface $-1 0 0 -0.655 0 0 1 1 0 0 0 #
coedge $-1 $62 $63 $64 $65 0 $19 $-1 #
coedge $-1 $66 $20 $67 $68 0 $12 $-1 #
coedge $-1 $20 $66 $69 $70 0 $12 $-1 #
coedge $-1 $71 $72 $20 $39 0 $73 $-1 #
edge $-1 $74 $75 $38 $76 0 #
coedge $-1 $64 $69 $21 $41 1 $77 $-1 #
edge $-1 $45 $44 $40 $78 0 #
coedge $-1 $54 $22 $66 $79 0 $28 $-1 #
coedge $-1 $22 $51 $62 $80 0 $28 $-1 #
vertex $-1 $41 $81 #
vertex $-1 $41 $82 #
straight-curve $-1 -2.775 -1.1399013115178 0.655 3.89585664445591e-16 -1 0 #
coedge $-1 $83 $24 $84 $85 1 $49 $-1 #
coedge $-1 $24 $86 $87 $88 1 $49 $-1 #
loop $-1 $-1 $24 $89 #
ellipse-curve $-1 0 0 -0.655 0 0 1 -3 0 0 1 #
coedge $-1 $43 $26 $90 $91 1 $28 $-1 #
coedge $-1 $87 $92 $26 $53 0 $93 $-1 #
edge $-1 $94 $30 $26 $95 0 #
coedge $-1 $27 $42 $96 $97 0 $28 $-1 #
coedge $-1 $98 $84 $27 $56 0 $33 $-1 #
edge $-1 $29 $99 $27 $100 0 #
face $-1 $101 $28 $2 $-1 $102 forward single #
point $-1 -2.775 1.1399013115178 -0.655 #
point $-1 -2.775 -1.1399013115178 -0.655 #
face $-1 $103 $93 $2 $-1 $34 reversed single #
loop $-1 $-1 $104 $32 #
coedge $-1 $63 $35 $43 $80 1 $19 $-1 #
coedge $-1 $35 $62 $105 $106 1 $19 $-1 #
coedge $-1 $107 $40 $35 $65 1 $77 $-1 #
edge $-1 $108 $45 $64 $109 0 #
coedge $-1 $37 $36 $42 $79 1 $12 $-1 #
coedge $-1 $110 $96 $36 $68 1 $111 $-1 #
edge $-1 $74 $112 $67 $113 0 #
coedge $-1 $40 $114 $37 $70 1 $77 $-1 #
edge $-1 $44 $75 $69 $115 0 #
coedge $-1 $116 $38 $117 $118 0 $73 $-1 #
coedge $-1 $38 $119 $110 $120 1 $73 $-1 #
loop $-1 $-1 $72 $121 #
vertex $-1 $120 $122 #
vertex $-1 $123 $124 #
straight-curve $-1 2.775 1.1399013115178 0.655 0 -1 0 #
loop $-1 $-1 $114 $125 #
ellipse-curve $-1 0 0 0.655 0 0 -1 -3 0 0 1 #
edge $-1 $44 $112 $42 $126 0 #
edge $-1 $127 $45 $43 $128 0 #
point $-1 -2.775 1.1399013115178 0.655 #
point $-1 -2.775 -1.1399013115178 0.655 #
coedge $-1 $86 $47 $129 $130 1 $49 $-1 #
coedge $-1 $55 $131 $47 $85 0 $33 $-1 #
edge $-1 $132 $29 $47 $133 0 #
coedge $-1 $48 $83 $104 $134 1 $49 $-1 #
coedge $-1 $92 $52 $48 $88 0 $93 $-1 #
edge $-1 $30 $135 $48 $136 0 #
face $-1 $137 $138 $2 $-1 $139 forward single #
coedge $-1 $140 $105 $51 $91 0 $141 $-1 #
edge $-1 $127 $94 $90 $142 0 #
coedge $-1 $52 $87 $140 $143 0 $93 $-1 #
loop $-1 $-1 $87 $60 #
vertex $-1 $91 $144 #
straight-curve $-1 -2.775 -1.1399013115178 -0.655 -2.38744972296298e-16 1 0 #
coedge $-1 $67 $145 $54 $97 1 $111 $-1 #
edge $-1 $112 $99 $96 $146 0 #
coedge $-1 $131 $55 $145 $147 1 $33 $-1 #
vertex $-1 $97 $148 #
straight-curve $-1 -2.775 6.79 -0.655 0 1 0 #
face $-1 $121 $141 $2 $-1 $149 forward single #
plane-surface $-1 -2.775 6.79 -0.655 -1 0 0 0 0 1 0 #
face $-1 $57 $150 $2 $-1 $13 forward single #
coedge $-1 $151 $152 $86 $134 0 $61 $-1 #
coedge $-1 $90 $153 $63 $106 0 $141 $-1 #
edge $-1 $108 $127 $105 $154 0 #
coedge $-1 $114 $64 $155 $156 1 $77 $-1 #
vertex $-1 $157 $158 #
ellipse-curve $-1 0 0 0.655 0 0 -1 -2.775 -1.1399013115178 0 1 #
coedge $-1 $145 $67 $72 $120 0 $111 $-1 #
loop $-1 $-1 $145 $159 #
vertex $-1 $97 $160 #
straight-curve $-1 -2.775 6.79 0.655 -1 0 0 #
coedge $-1 $69 $107 $161 $123 1 $77 $-1 #
ellipse-curve $-1 0 0 0.655 0 0 -1 2.775 1.1399013115178 0 1 #
coedge $-1 $162 $71 $163 $164 0 $73 $-1 #
coedge $-1 $161 $161 $71 $118 1 $165 $-1 #
edge $-1 $75 $166 $117 $167 0 #
coedge $-1 $72 $168 $131 $169 1 $73 $-1 #
edge $-1 $74 $170 $110 $171 0 #
face $-1 $172 $73 $2 $-1 $173 forward single #
point $-1 2.775 6.79 0.655 #
edge $-1 $75 $166 $114 $174 0 #
point $-1 2.775 1.1399013115178 0.655 #
face $-1 $175 $176 $2 $-1 $177 forward single #
straight-curve $-1 -2.775 6.79 0.655 2.35795461814859e-16 1 0 #
vertex $-1 $91 $178 #
straight-curve $-1 -2.775 -1.1399013115178 0.655 -2.38744972296298e-16 1 0 #
coedge $-1 $179 $179 $83 $130 0 $180 $-1 #
edge $-1 $181 $132 $83 $182 0 #
coedge $-1 $84 $98 $119 $169 0 $33 $-1 #
vertex $-1 $130 $183 #
ellipse-curve $-1 0 0 -0.655 0 0 1 -2.775 1.1399013115178 0 1 #
edge $-1 $135 $181 $86 $184 0 #
vertex $-1 $143 $185 #
ellipse-curve $-1 0 0 -0.655 0 0 1 0 -3 0 1 #
face $-1 $159 $186 $2 $-1 $187 reversed single #
loop $-1 $49 $188 $89 #
cone-surface $-1 0 0 -0.655 0 0 -1 -3 0 0 1 0 1 0 #
coedge $-1 $189 $90 $92 $143 1 $141 $-1 #
loop $-1 $-1 $140 $101 #
straight-curve $-1 -2.775 -3 -0.655 0 0 -1 #
edge $-1 $135 $94 $140 $190 0 #
point $-1 -2.775 -3 -0.655 #
coedge $-1 $96 $110 $98 $147 0 $111 $-1 #
straight-curve $-1 -2.775 6.79 -0.655 0 0 -1 #
edge $-1 $170 $99 $145 $191 0 #
point $-1 -2.775 6.79 -0.655 #
plane-surface $-1 -2.775 -3 -0.655 0 -1 0 0 0 -1 0 #
loop $-1 $-1 $155 $103 #
coedge $-1 $152 $104 $192 $193 0 $61 $-1 #
coedge $-1 $104 $151 $189 $194 0 $61 $-1 #
coedge $-1 $105 $195 $196 $157 0 $141 $-1 #
straight-curve $-1 -2.775 -3 0.655 -1 3.20064295387432e-16 0 #
coedge $-1 $196 $163 $107 $156 0 $150 $-1 #
edge $-1 $166 $108 $107 $197 0 #
edge $-1 $198 $108 $153 $199 0 #
point $-1 1.66533453693773e-15 -3 0.655 #
face $-1 $200 $201 $2 $-1 $202 reversed single #
point $-1 -2.775 6.79 0.655 #
coedge $-1 $117 $117 $114 $123 0 $165 $-1 #
coedge $-1 $192 $116 $195 $203 0 $73 $-1 #
coedge $-1 $155 $196 $116 $164 1 $150 $-1 #
edge $-1 $166 $198 $116 $204 0 #
loop $-1 $-1 $117 $172 #
vertex $-1 $123 $205 #
straight-curve $-1 2.775 -1.1399013115178 0.655 1.94792832222796e-16 -1 0 #
coedge $-1 $119 $192 $179 $206 1 $73 $-1 #
edge $-1 $170 $132 $119 $207 0 #
vertex $-1 $120 $208 #
straight-curve $-1 2.775 6.79 -0.655 0 0 -1 #
face $-1 $209 $165 $2 $-1 $9 reversed single #
plane-surface $-1 2.775 -3 -0.655 1 0 0 0 0 -1 0 #
ellipse-curve $-1 0 0 0.655 0 0 -1 3 0 0 1 #
face $-1 $210 $180 $2 $-1 $6 reversed single #
loop $-1 $77 $211 $125 #
cone-surface $-1 0 0 0.655 0 0 1 3 0 0 1 0 1 0 #
point $-1 -2.775 -3 0.655 #
coedge $-1 $129 $129 $168 $206 0 $180 $-1 #
loop $-1 $-1 $179 $175 #
vertex $-1 $130 $212 #
ellipse-curve $-1 0 0 -0.655 0 0 1 3 0 0 1 #
point $-1 2.775 1.1399013115178 -0.655 #
ellipse-curve $-1 0 0 -0.655 0 0 1 2.775 -1.1399013115178 0 1 #
point $-1 9.99200722162641e-16 -3 -0.655 #
loop $-1 $213 $214 $137 #
cone-surface $-1 0 0 1.495 0 0 -1 -2 0 0 1 0 1 0 #
coedge $-1 $188 $188 $215 $216 0 $138 $-1 #
coedge $-1 $195 $140 $152 $194 1 $141 $-1 #
straight-curve $-1 -2.775 -3 -0.655 -1 -3.20064295387432e-16 0 #
straight-curve $-1 -2.775 6.79 -0.655 -1 0 0 #
coedge $-1 $168 $162 $151 $193 1 $73 $-1 #
edge $-1 $181 $217 $192 $218 0 #
edge $-1 $217 $135 $189 $219 0 #
coedge $-1 $153 $189 $162 $203 1 $141 $-1 #
coedge $-1 $163 $155 $153 $157 1 $150 $-1 #
ellipse-curve $-1 0 0 0.655 0 0 -1 0 -3 0 1 #
vertex $-1 $203 $220 #
straight-curve $-1 1.66533453693773e-15 -3 0.655 -1 -3.20064295387433e-16 0 #
face $-1 $221 $222 $2 $-1 $223 forward single #
loop $-1 $111 $224 $159 #
plane-surface $-1 2.775 6.79 -0.655 0 1 0 0 0 1 0 #
edge $-1 $198 $217 $162 $225 0 #
straight-curve $-1 2.775 -3 0.655 -2.38744972296298e-16 -1 0 #
point $-1 2.775 -1.1399013115178 0.655 #
edge $-1 $132 $181 $179 $226 0 #
straight-curve $-1 2.775 1.1399013115178 -0.655 2.35795461814859e-16 -1 0 #
point $-1 2.775 6.79 -0.655 #
face $-1 $125 $227 $2 $-1 $228 forward single #
face $-1 $89 $229 $2 $-1 $230 forward single #
coedge $-1 $211 $211 $231 $232 0 $176 $-1 #
point $-1 2.775 -1.1399013115178 -0.655 #
loop $-1 $-1 $233 $137 #
coedge $-1 $214 $214 $234 $235 1 $186 $-1 #
coedge $-1 $215 $215 $188 $216 1 $229 $-1 #
edge $-1 $236 $236 $188 $237 0 #
vertex $-1 $203 $238 #
straight-curve $-1 2.775 -3 -0.655 -2.38744972296297e-16 -1 0 #
straight-curve $-1 9.99200722162641e-16 -3 -0.655 -1 3.20064295387433e-16 0 #
point $-1 2.775 -3 0.655 #
face $-1 $239 $240 $2 $-1 $241 forward single #
loop $-1 $242 $243 $200 #
plane-surface $-1 2.775 8.79 -0.655 0 1 0 0 0 1 0 #
coedge $-1 $244 $245 $246 $247 0 $201 $-1 #
straight-curve $-1 2.775 -3 -0.655 0 0 -1 #
straight-curve $-1 2.775 -1.1399013115178 -0.655 -3.89585664445592e-16 -1 0 #
loop $-1 $248 $231 $209 #
plane-surface $-1 0 0 1.495 0 0 1 1 0 0 0 #
loop $-1 $249 $215 $210 #
plane-surface $-1 0 0 -1.495 0 0 -1 -1 0 0 0 #
coedge $-1 $231 $231 $211 $232 1 $227 $-1 #
edge $-1 $250 $250 $211 $251 0 #
coedge $-1 $233 $233 $252 $253 0 $213 $-1 #
coedge $-1 $234 $234 $214 $235 0 $249 $-1 #
edge $-1 $254 $254 $214 $255 0 #
vertex $-1 $216 $256 #
ellipse-curve $-1 0 0 -1.495 0 0 1 -3 0 0 1 #
point $-1 2.775 -3 -0.655 #
face $-1 $257 $258 $2 $-1 $259 forward single #
loop $-1 $-1 $246 $221 #
plane-surface $-1 -3.5 6.79 -1.47 -1 0 0 0 0 1 0 #
loop $-1 $-1 $260 $200 #
coedge $-1 $261 $262 $263 $264 1 $222 $-1 #
coedge $-1 $265 $224 $266 $267 0 $201 $-1 #
coedge $-1 $224 $265 $268 $269 0 $201 $-1 #
coedge $-1 $270 $271 $224 $247 1 $240 $-1 #
edge $-1 $272 $273 $246 $274 0 #
loop $-1 $275 $252 $209 #
loop $-1 $276 $234 $210 #
vertex $-1 $232 $277 #
ellipse-curve $-1 0 0 1.495 0 0 -1 3 0 0 1 #
coedge $-1 $252 $252 $233 $253 1 $248 $-1 #
edge $-1 $278 $278 $233 $279 0 #
vertex $-1 $235 $280 #
ellipse-curve $-1 0 0 -1.495 0 0 1 2 0 0 1 #
point $-1 -3 0 -1.495 #
face $-1 $281 $282 $2 $-1 $283 forward single #
loop $-1 $-1 $268 $239 #
plane-surface $-1 -3.5 6.79 1.47 0 0 1 1 0 0 0 #
coedge $-1 $260 $260 $284 $285 0 $242 $-1 #
coedge $-1 $286 $243 $287 $288 1 $222 $-1 #
coedge $-1 $243 $286 $289 $290 1 $222 $-1 #
coedge $-1 $271 $270 $243 $264 0 $240 $-1 #
edge $-1 $291 $292 $263 $293 0 #
coedge $-1 $245 $244 $294 $295 0 $201 $-1 #
coedge $-1 $296 $297 $244 $267 1 $298 $-1 #
edge $-1 $273 $299 $266 $300 0 #
coedge $-1 $301 $302 $245 $269 1 $258 $-1 #
edge $-1 $303 $272 $268 $304 0 #
coedge $-1 $263 $246 $302 $305 1 $240 $-1 #
coedge $-1 $246 $263 $296 $306 0 $240 $-1 #
vertex $-1 $305 $307 #
vertex $-1 $306 $308 #
straight-curve $-1 -3.5 6.79 -1.47 0 0 -1 #
loop $-1 $309 $310 $209 #
loop $-1 $311 $312 $210 #
point $-1 3 0 1.495 #
vertex $-1 $253 $313 #
ellipse-curve $-1 0 0 1.495 0 0 1 -2 0 0 1 #
point $-1 -2 0 -1.495 #
face $-1 $314 $298 $2 $-1 $315 forward single #
loop $-1 $-1 $294 $257 #
plane-surface $-1 3.5 6.79 1.47 1 0 0 0 0 -1 0 #
coedge $-1 $284 $284 $260 $285 1 $316 $-1 #
edge $-1 $317 $317 $284 $318 0 #
coedge $-1 $262 $261 $319 $320 1 $222 $-1 #
coedge $-1 $302 $301 $261 $288 0 $258 $-1 #
edge $-1 $321 $291 $287 $322 0 #
coedge $-1 $297 $296 $262 $290 0 $298 $-1 #
edge $-1 $292 $323 $289 $324 0 #
vertex $-1 $305 $325 #
vertex $-1 $306 $326 #
straight-curve $-1 -3.5 8.79 -1.47 0 0 -1 #
coedge $-1 $327 $328 $265 $295 1 $282 $-1 #
edge $-1 $299 $303 $294 $329 0 #
coedge $-1 $289 $266 $271 $306 1 $298 $-1 #
coedge $-1 $266 $289 $327 $330 0 $298 $-1 #
loop $-1 $-1 $266 $281 #
vertex $-1 $330 $331 #
straight-curve $-1 3.5 6.79 -1.47 1 0 0 #
coedge $-1 $287 $268 $328 $332 1 $258 $-1 #
coedge $-1 $268 $287 $270 $305 0 $258 $-1 #
vertex $-1 $332 $333 #
straight-curve $-1 -3.5 6.79 1.47 -1 0 0 #
edge $-1 $291 $272 $302 $334 0 #
edge $-1 $292 $273 $296 $335 0 #
point $-1 -3.5 6.79 1.47 #
point $-1 -3.5 6.79 -1.47 #
loop $-1 $336 $337 $209 #
coedge $-1 $310 $310 $338 $339 1 $275 $-1 #
loop $-1 $340 $341 $210 #
coedge $-1 $312 $312 $342 $343 1 $276 $-1 #
point $-1 -2 0 1.495 #
face $-1 $344 $345 $2 $-1 $346 reversed single #
plane-surface $-1 3.5 6.79 -1.47 0 0 -1 -1 0 0 0 #
loop $-1 $-1 $284 $347 #
vertex $-1 $285 $348 #
ellipse-curve $-1 2 8.79 0 0 -1 0 1.25 0 0 1 #
coedge $-1 $328 $327 $286 $320 0 $282 $-1 #
edge $-1 $323 $321 $319 $349 0 #
vertex $-1 $332 $350 #
straight-curve $-1 -3.5 8.79 1.47 -1 0 0 #
vertex $-1 $330 $351 #
straight-curve $-1 3.5 8.79 -1.47 1 0 0 #
point $-1 -3.5 8.79 1.47 #
point $-1 -3.5 8.79 -1.47 #
coedge $-1 $319 $294 $297 $330 1 $282 $-1 #
coedge $-1 $294 $319 $301 $332 0 $282 $-1 #
straight-curve $-1 3.5 6.79 1.47 0 0 1 #
edge $-1 $323 $299 $297 $352 0 #
point $-1 3.5 6.79 -1.47 #
edge $-1 $321 $303 $328 $353 0 #
point $-1 3.5 6.79 1.47 #
straight-curve $-1 -3.5 6.79 1.47 0 -1 0 #
straight-curve $-1 -3.5 6.79 -1.47 0 -1 0 #
loop $-1 $354 $355 $209 #
coedge $-1 $337 $337 $356 $357 1 $309 $-1 #
coedge $-1 $338 $338 $310 $339 0 $358 $-1 #
edge $-1 $359 $359 $338 $360 0 #
loop $-1 $361 $362 $210 #
coedge $-1 $341 $341 $363 $364 1 $311 $-1 #
coedge $-1 $342 $342 $312 $343 0 $365 $-1 #
edge $-1 $366 $366 $342 $367 0 #
face $-1 $368 $369 $2 $-1 $370 reversed single #
loop $-1 $-1 $371 $314 #
plane-surface $-1 0.5 -2.515 0.655 0 0 -1 -1 0 0 0 #
face $-1 $372 $373 $2 $-1 $374 forward single #
point $-1 0.75 8.79 0 #
straight-curve $-1 3.5 8.79 1.47 0 0 1 #
point $-1 3.5 8.79 1.47 #
point $-1 3.5 8.79 -1.47 #
straight-curve $-1 3.5 6.79 -1.47 0 -1 0 #
straight-curve $-1 3.5 6.79 1.47 0 -1 0 #
loop $-1 $-1 $375 $209 #
coedge $-1 $355 $355 $376 $377 1 $336 $-1 #
coedge $-1 $356 $356 $337 $357 0 $378 $-1 #
edge $-1 $379 $379 $356 $380 0 #
loop $-1 $-1 $338 $344 #
vertex $-1 $339 $381 #
ellipse-curve $-1 0.5 -2.515 1.495 0 0 1 -0.156 0 0 1 #
loop $-1 $-1 $382 $210 #
coedge $-1 $362 $362 $383 $384 1 $340 $-1 #
coedge $-1 $363 $363 $341 $364 0 $385 $-1 #
edge $-1 $386 $386 $363 $387 0 #
loop $-1 $-1 $342 $388 #
vertex $-1 $343 $389 #
ellipse-curve $-1 -1.424 -2.132 -1.495 0 0 -1 0.156 0 0 1 #
face $-1 $390 $391 $2 $-1 $392 reversed single #
loop $-1 $358 $393 $344 #
cone-surface $-1 0.5 -2.515 1.495 0 0 -1 -0.156 0 0 1 0 1 0 #
coedge $-1 $371 $371 $393 $394 0 $345 $-1 #
face $-1 $395 $396 $2 $-1 $397 forward single #
loop $-1 $316 $398 $347 #
cone-surface $-1 2 8.79 0 0 1 0 -1.25 0 0 1 0 1 0 #
coedge $-1 $375 $375 $399 $400 1 $354 $-1 #
coedge $-1 $376 $376 $355 $377 0 $401 $-1 #
edge $-1 $402 $402 $376 $403 0 #
loop $-1 $-1 $356 $390 #
vertex $-1 $357 $404 #
ellipse-curve $-1 -0.5 -2.515 1.495 0 0 1 -0.156 0 0 1 #
point $-1 0.344 -2.515 1.495 #
coedge $-1 $382 $382 $405 $406 1 $361 $-1 #
coedge $-1 $383 $383 $362 $384 0 $407 $-1 #
edge $-1 $408 $408 $383 $409 0 #
loop $-1 $-1 $363 $410 #
vertex $-1 $364 $411 #
ellipse-curve $-1 -0.5 -2.515 -1.495 0 0 -1 0.156 0 0 1 #
face $-1 $412 $413 $2 $-1 $414 reversed single #
point $-1 -1.268 -2.132 -1.495 #
face $-1 $415 $416 $2 $-1 $417 reversed single #
loop $-1 $-1 $418 $368 #
plane-surface $-1 -0.5 -2.515 0.655 0 0 -1 -1 0 0 0 #
coedge $-1 $393 $393 $371 $394 1 $369 $-1 #
edge $-1 $419 $419 $393 $420 0 #
face $-1 $-1 $421 $2 $-1 $422 forward single #
loop $-1 $-1 $423 $372 #
plane-surface $-1 2.775 18.01 -0.655 0 1 0 0 0 1 0 #
coedge $-1 $398 $398 $424 $425 0 $373 $-1 #
coedge $-1 $399 $399 $375 $400 0 $426 $-1 #
edge $-1 $427 $427 $399 $428 0 #
loop $-1 $-1 $376 $429 #
vertex $-1 $377 $430 #
ellipse-curve $-1 1.424 -2.132 1.495 0 0 1 -0.156 0 0 1 #
point $-1 -0.656 -2.515 1.495 #
coedge $-1 $405 $405 $382 $406 0 $431 $-1 #
edge $-1 $432 $432 $405 $433 0 #
loop $-1 $-1 $383 $434 #
vertex $-1 $384 $435 #
ellipse-curve $-1 0.5 -2.515 -1.495 0 0 -1 0.156 0 0 1 #
face $-1 $436 $437 $2 $-1 $438 reversed single #
point $-1 -0.344 -2.515 -1.495 #
face $-1 $410 $439 $2 $-1 $440 reversed single #
loop $-1 $365 $441 $388 #
cone-surface $-1 -1.424 -2.132 -1.495 0 0 1 0.156 0 0 1 0 1 0 #
face $-1 $429 $442 $2 $-1 $443 reversed single #
loop $-1 $378 $444 $390 #
cone-surface $-1 -0.5 -2.515 1.495 0 0 -1 -0.156 0 0 1 0 1 0 #
coedge $-1 $418 $418 $444 $445 0 $391 $-1 #
vertex $-1 $394 $446 #
ellipse-curve $-1 0.5 -2.515 0.655 0 0 1 0.156 0 0 1 #
loop $-1 $447 $448 $395 #
cone-surface $-1 2.75 16.01 0 0 1 0 0.375 0 0 1 0 1 0 #
coedge $-1 $423 $423 $448 $449 1 $396 $-1 #
coedge $-1 $424 $424 $398 $425 1 $450 $-1 #
edge $-1 $451 $451 $398 $452 0 #
loop $-1 $-1 $399 $453 #
vertex $-1 $400 $454 #
ellipse-curve $-1 -1.424 -2.132 1.495 0 0 1 -0.156 0 0 1 #
face $-1 $455 $456 $2 $-1 $457 reversed single #
point $-1 1.268 -2.132 1.495 #
loop $-1 $-1 $405 $458 #
vertex $-1 $406 $459 #
ellipse-curve $-1 1.424 -2.132 -1.495 0 0 -1 0.156 0 0 1 #
face $-1 $460 $461 $2 $-1 $462 reversed single #
point $-1 0.656 -2.515 -1.495 #
face $-1 $434 $463 $2 $-1 $464 reversed single #
loop $-1 $385 $465 $410 #
cone-surface $-1 -0.5 -2.515 -1.495 0 0 1 0.156 0 0 1 0 1 0 #
loop $-1 $-1 $466 $412 #
plane-surface $-1 -0.5 -2.515 -0.655 0 0 1 1 0 0 0 #
coedge $-1 $441 $441 $467 $468 1 $413 $-1 #
loop $-1 $-1 $469 $415 #
plane-surface $-1 1.424 -2.132 0.655 0 0 -1 -1 0 0 0 #
coedge $-1 $444 $444 $418 $445 1 $416 $-1 #
edge $-1 $470 $470 $444 $471 0 #
point $-1 0.344 -2.515 0.655 #
loop $-1 $-1 $472 $395 #
coedge $-1 $448 $448 $423 $449 0 $421 $-1 #
edge $-1 $473 $473 $448 $474 0 #
loop $-1 $475 $424 $476 #
vertex $-1 $425 $477 #
ellipse-curve $-1 2 16.01 0 0 -1 0 -1.25 0 0 1 #
face $-1 $478 $479 $2 $-1 $480 reversed single #
point $-1 -1.58 -2.132 1.495 #
face $-1 $453 $481 $2 $-1 $482 reversed single #
loop $-1 $401 $483 $429 #
cone-surface $-1 1.424 -2.132 1.495 0 0 -1 -0.156 0 0 1 0 1 0 #
face $-1 $476 $484 $2 $-1 $485 reversed single #
point $-1 1.58 -2.132 -1.495 #
face $-1 $458 $486 $2 $-1 $487 reversed single #
loop $-1 $407 $488 $434 #
cone-surface $-1 0.5 -2.515 -1.495 0 0 1 0.156 0 0 1 0 1 0 #
loop $-1 $-1 $489 $436 #
plane-surface $-1 0.5 -2.515 -0.655 0 0 1 1 0 0 0 #
coedge $-1 $465 $465 $466 $490 1 $437 $-1 #
coedge $-1 $466 $466 $465 $490 0 $439 $-1 #
coedge $-1 $467 $467 $441 $468 0 $491 $-1 #
edge $-1 $492 $492 $441 $493 0 #
coedge $-1 $469 $469 $483 $494 0 $442 $-1 #
vertex $-1 $445 $495 #
ellipse-curve $-1 -0.5 -2.515 0.655 0 0 1 0.156 0 0 1 #
coedge $-1 $472 $472 $496 $497 1 $447 $-1 #
vertex $-1 $449 $498 #
ellipse-curve $-1 2.75 18.01 0 0 -1 0 0.375 0 0 1 #
loop $-1 $-1 $496 $476 #
face $-1 $347 $450 $2 $-1 $499 forward single #
point $-1 0.75 16.01 0 #
face $-1 $388 $491 $2 $-1 $500 reversed single #
loop $-1 $426 $501 $453 #
cone-surface $-1 -1.424 -2.132 1.495 0 0 -1 -0.156 0 0 1 0 1 0 #
loop $-1 $-1 $502 $455 #
plane-surface $-1 -1.424 -2.132 0.655 0 0 -1 -1 0 0 0 #
coedge $-1 $483 $483 $469 $494 1 $456 $-1 #
loop $-1 $431 $503 $458 #
cone-surface $-1 1.424 -2.132 -1.495 0 0 1 0.156 0 0 1 0 1 0 #
loop $-1 $-1 $504 $460 #
plane-surface $-1 1.424 -2.132 -0.655 0 0 1 1 0 0 0 #
coedge $-1 $488 $488 $489 $505 1 $461 $-1 #
coedge $-1 $489 $489 $488 $505 0 $463 $-1 #
edge $-1 $506 $506 $465 $507 0 #
loop $-1 $-1 $467 $478 #
vertex $-1 $468 $508 #
ellipse-curve $-1 -1.424 -2.132 -0.655 0 0 -1 -0.156 0 0 1 #
edge $-1 $509 $509 $483 $510 0 #
point $-1 -0.656 -2.515 0.655 #
coedge $-1 $496 $496 $472 $497 0 $475 $-1 #
edge $-1 $511 $511 $472 $512 0 #
point $-1 3.125 18.01 0 #
plane-surface $-1 2.775 16.01 -0.655 0 1 0 0 0 1 0 #
plane-surface $-1 -1.424 -2.132 -0.655 0 0 1 1 0 0 0 #
coedge $-1 $501 $501 $502 $513 1 $479 $-1 #
coedge $-1 $502 $502 $501 $513 0 $481 $-1 #
coedge $-1 $503 $503 $504 $514 1 $484 $-1 #
coedge $-1 $504 $504 $503 $514 0 $486 $-1 #
edge $-1 $515 $515 $488 $516 0 #
vertex $-1 $490 $517 #
ellipse-curve $-1 -0.5 -2.515 -0.655 0 0 -1 -0.156 0 0 1 #
point $-1 -1.268 -2.132 -0.655 #
vertex $-1 $494 $518 #
ellipse-curve $-1 1.424 -2.132 0.655 0 0 1 0.156 0 0 1 #
vertex $-1 $497 $519 #
ellipse-curve $-1 2.75 16.01 0 0 -1 0 -0.375 0 0 1 #
edge $-1 $520 $520 $501 $521 0 #
edge $-1 $522 $522 $503 $523 0 #
vertex $-1 $505 $524 #
ellipse-curve $-1 0.5 -2.515 -0.655 0 0 -1 -0.156 0 0 1 #
point $-1 -0.344 -2.515 -0.655 #
point $-1 1.268 -2.132 0.655 #
point $-1 3.125 16.01 0 #
vertex $-1 $513 $525 #
ellipse-curve $-1 -1.424 -2.132 0.655 0 0 1 0.156 0 0 1 #
vertex $-1 $514 $526 #
ellipse-curve $-1 1.424 -2.132 -0.655 0 0 -1 -0.156 0 0 1 #
point $-1 0.656 -2.515 -0.655 #
point $-1 -1.58 -2.132 0.655 #
point $-1 1.58 -2.132 -0.655 #
