600 0 2 0           
24 FBMach with ACIS - 6.0.3 13 ACIS 6.0.3 NT 24 Tue May 22 15:33:37 2001 
1 9.9999999999999995e-007 1e-010 
body $2 $3 $-1 $4 #
bdycol-kcp $-1 1 10 $5 $6 $7 $8 $9 $10 $11 $12 $13 $14 #
model_id-kcp-attrib $-1 $-1 $-1 $0 1 990560016 70 1346764801 1 #
lump $-1 $-1 $15 $0 #
transform $-1 1 0 0 0 1 0 0 0 1 0 0 0 1 no_rotate no_reflect no_shear #
body $16 $17 $-1 $18 #
body $19 $20 $-1 $21 #
body $22 $23 $-1 $24 #
body $25 $26 $-1 $27 #
body $28 $29 $-1 $30 #
body $31 $32 $-1 $33 #
body $34 $35 $-1 $36 #
body $37 $38 $-1 $39 #
body $40 $41 $-1 $42 #
body $43 $44 $-1 $45 #
shell $-1 $-1 $-1 $46 $-1 $3 #
model_id-kcp-attrib $-1 $-1 $-1 $5 1 990560016 70 1346764802 1 #
lump $-1 $-1 $47 $5 #
transform $-1 1 0 0 0 1 0 0 0 1 0 7.5050000000000008 0 1 no_rotate no_reflect no_shear #
rgb_color-st-attrib $-1 $48 $-1 $6 0.5 1 1 #
lump $-1 $-1 $49 $6 #
transform $-1 -1 0 -1.2246063538223773e-016 0 1 0 1.2246063538223773e-016 0 -1 1.8307864989644542e-016 0 2.2419927791240957e-032 1 rotate no_reflect no_shear #
rgb_color-st-attrib $-1 $50 $-1 $7 0.5 1 1 #
lump $-1 $-1 $51 $7 #
transform $-1 -1 0 -1.2246063538223773e-016 0 1 0 1.2246063538223773e-016 0 -1 0.50000000000000011 -2.5150000000000001 1.075 1 rotate no_reflect no_shear #
rgb_color-st-attrib $-1 $52 $-1 $8 0.5 1 1 #
lump $-1 $-1 $53 $8 #
transform $-1 1 0 0 0 1 0 0 0 1 0.5 -2.5150000000000001 -1.0750000000000002 1 no_rotate no_reflect no_shear #
rgb_color-st-attrib $-1 $54 $-1 $9 0.5 1 1 #
lump $-1 $-1 $55 $9 #
transform $-1 -1 0 -1.2246063538223773e-016 0 1 0 1.2246063538223773e-016 0 -1 -0.49999999999999994 -2.5150000000000001 1.0750000000000002 1 rotate no_reflect no_shear #
rgb_color-st-attrib $-1 $56 $-1 $10 0.5 1 1 #
lump $-1 $-1 $57 $10 #
transform $-1 1 0 0 0 1 0 0 0 1 -0.5 -2.5150000000000001 -1.0750000000000002 1 no_rotate no_reflect no_shear #
rgb_color-st-attrib $-1 $58 $-1 $11 0.5 1 1 #
lump $-1 $-1 $59 $11 #
transform $-1 -1 0 -1.2246063538223773e-016 0 1 0 1.2246063538223773e-016 0 -1 1.4239999999999999 -2.1320000000000001 1.075 1 rotate no_reflect no_shear #
rgb_color-st-attrib $-1 $60 $-1 $12 0.5 1 1 #
lump $-1 $-1 $61 $12 #
transform $-1 1 0 0 0 1 0 0 0 1 1.4239999999999999 -2.1320000000000001 -1.0750000000000002 1 no_rotate no_reflect no_shear #
rgb_color-st-attrib $-1 $62 $-1 $13 0.5 1 1 #
lump $-1 $-1 $63 $13 #
transform $-1 -1 0 -1.2246063538223773e-016 0 1 0 1.2246063538223773e-016 0 -1 -1.4239999999999999 -2.1320000000000001 1.075 1 rotate no_reflect no_shear #
rgb_color-st-attrib $-1 $64 $-1 $14 0.5 1 1 #
lump $-1 $-1 $65 $14 #
transform $-1 1 0 0 0 1 0 0 0 1 -1.4239999999999999 -2.1320000000000001 -1.0750000000000002 1 no_rotate no_reflect no_shear #
face $66 $67 $68 $15 $-1 $69 reversed single #
shell $-1 $-1 $-1 $70 $-1 $17 #
model_id-kcp-attrib $-1 $-1 $19 $6 1 990560016 270 1343094787 1 #
shell $-1 $-1 $-1 $71 $-1 $20 #
model_id-kcp-attrib $-1 $-1 $22 $7 1 990560016 280 1343750148 1 #
shell $-1 $-1 $-1 $72 $-1 $23 #
model_id-kcp-attrib $-1 $-1 $25 $8 1 990560016 290 1344405509 1 #
shell $-1 $-1 $-1 $73 $-1 $26 #
model_id-kcp-attrib $-1 $-1 $28 $9 1 990560016 290 1344405510 1 #
shell $-1 $-1 $-1 $74 $-1 $29 #
model_id-kcp-attrib $-1 $-1 $31 $10 1 990560016 300 1345060871 1 #
shell $-1 $-1 $-1 $75 $-1 $32 #
model_id-kcp-attrib $-1 $-1 $34 $11 1 990560016 310 1345716232 1 #
shell $-1 $-1 $-1 $76 $-1 $35 #
model_id-kcp-attrib $-1 $-1 $37 $12 1 990560016 310 1345716233 1 #
shell $-1 $-1 $-1 $77 $-1 $38 #
model_id-kcp-attrib $-1 $-1 $40 $13 1 990560016 320 1346371594 1 #
shell $-1 $-1 $-1 $78 $-1 $41 #
model_id-kcp-attrib $-1 $-1 $43 $14 1 990560016 330 1347026955 1 #
shell $-1 $-1 $-1 $79 $-1 $44 #
model_id-kcp-attrib $-1 $-1 $-1 $46 1 990560016 70 1346764801 2 #
face $80 $81 $82 $15 $-1 $83 reversed single #
loop $-1 $-1 $84 $46 #
plane-surface $-1 0 0 -0.65500000000000003 0 0 -1 -1 0 0 forward_v I I I I #
face $85 $86 $87 $47 $-1 $88 forward single #
face $-1 $89 $90 $49 $-1 $91 forward single #
face $-1 $92 $93 $51 $-1 $94 forward single #
face $-1 $95 $96 $53 $-1 $97 forward single #
face $-1 $98 $99 $55 $-1 $100 forward single #
face $-1 $101 $102 $57 $-1 $103 forward single #
face $-1 $104 $105 $59 $-1 $106 forward single #
face $-1 $107 $108 $61 $-1 $109 forward single #
face $-1 $110 $111 $63 $-1 $112 forward single #
face $-1 $113 $114 $65 $-1 $115 forward single #
model_id-kcp-attrib $-1 $-1 $-1 $67 1 990560016 70 1346764801 3 #
face $116 $117 $118 $15 $-1 $119 forward single #
loop $-1 $-1 $120 $67 #
plane-surface $-1 0 0 0.65500000000000003 0 0 1 1 0 0 forward_v I I I I #
coedge $-1 $121 $121 $122 $123 reversed $68 $-1 #
model_id-kcp-attrib $-1 $-1 $-1 $70 1 990560016 70 1346764802 3 #
face $124 $125 $126 $47 $-1 $127 reversed single #
loop $-1 $-1 $128 $70 #
plane-surface $-1 0 0 1.4950000000000001 0 0 1 1 0 0 forward_v I I I I #
face $-1 $129 $130 $49 $-1 $131 forward single #
loop $-1 $132 $133 $71 #
cone-surface $-1 0 0 0 0 0 1 2 0 0 1 I I 0 1 2 forward I I I I #
face $-1 $134 $135 $51 $-1 $136 forward single #
loop $-1 $137 $138 $72 #
cone-surface $-1 0 0 0 0 0 1 0.156 0 0 1 I I 0 1 0.156 forward I I I I #
face $-1 $139 $140 $53 $-1 $141 forward single #
loop $-1 $142 $143 $73 #
cone-surface $-1 0 0 0 0 0 1 0.156 0 0 1 I I 0 1 0.156 forward I I I I #
face $-1 $144 $145 $55 $-1 $146 forward single #
loop $-1 $147 $148 $74 #
cone-surface $-1 0 0 0 0 0 1 0.156 0 0 1 I I 0 1 0.156 forward I I I I #
face $-1 $149 $150 $57 $-1 $151 forward single #
loop $-1 $152 $153 $75 #
cone-surface $-1 0 0 0 0 0 1 0.156 0 0 1 I I 0 1 0.156 forward I I I I #
face $-1 $154 $155 $59 $-1 $156 forward single #
loop $-1 $157 $158 $76 #
cone-surface $-1 0 0 0 0 0 1 0.156 0 0 1 I I 0 1 0.156 forward I I I I #
face $-1 $159 $160 $61 $-1 $161 forward single #
loop $-1 $162 $163 $77 #
cone-surface $-1 0 0 0 0 0 1 0.156 0 0 1 I I 0 1 0.156 forward I I I I #
face $-1 $164 $165 $63 $-1 $166 forward single #
loop $-1 $167 $168 $78 #
cone-surface $-1 0 0 0 0 0 1 0.156 0 0 1 I I 0 1 0.156 forward I I I I #
face $-1 $169 $170 $65 $-1 $171 forward single #
loop $-1 $172 $173 $79 #
cone-surface $-1 0 0 0 0 0 1 0.156 0 0 1 I I 0 1 0.156 forward I I I I #
model_id-kcp-attrib $-1 $-1 $-1 $81 1 990560016 70 1346764801 4 #
face $174 $175 $176 $15 $-1 $119 forward single #
loop $-1 $-1 $177 $81 #
plane-surface $-1 0 0 0.65500000000000003 0 0 1 1 0 0 forward_v I I I I #
coedge $-1 $178 $178 $179 $180 forward $82 $-1 #
coedge $-1 $84 $84 $181 $182 forward $68 $-1 #
coedge $-1 $183 $184 $84 $123 forward $185 $-1 #
edge $-1 $186 -2.2798026230356001 $187 0 $84 $188 forward 7 unknown #
model_id-kcp-attrib $-1 $-1 $-1 $86 1 990560016 70 1346764802 4 #
face $189 $190 $191 $47 $-1 $192 reversed single #
loop $-1 $-1 $193 $86 #
plane-surface $-1 0 0 -1.4950000000000001 0 0 1 1 0 0 forward_v I I I I #
coedge $-1 $194 $195 $196 $197 forward $87 $-1 #
face $-1 $-1 $198 $49 $-1 $199 forward single #
loop $-1 $-1 $200 $89 #
plane-surface $-1 0 0 -1.4950000000000003 0 0 -1 -1 0 0 forward_v I I I I #
loop $-1 $-1 $201 $71 #
coedge $-1 $133 $133 $200 $202 reversed $90 $-1 #
face $-1 $-1 $203 $51 $-1 $204 forward single #
loop $-1 $-1 $205 $92 #
plane-surface $-1 0 0 -0.4200000000000001 0 0 -1 -1 0 0 forward_v I I I I #
loop $-1 $-1 $206 $72 #
coedge $-1 $138 $138 $205 $207 reversed $93 $-1 #
face $-1 $-1 $208 $53 $-1 $209 forward single #
loop $-1 $-1 $210 $95 #
plane-surface $-1 0 0 -0.42000000000000004 0 0 -1 -1 0 0 forward_v I I I I #
loop $-1 $-1 $211 $73 #
coedge $-1 $143 $143 $210 $212 reversed $96 $-1 #
face $-1 $-1 $213 $55 $-1 $214 forward single #
loop $-1 $-1 $215 $98 #
plane-surface $-1 0 0 -0.41999999999999998 0 0 -1 -1 0 0 forward_v I I I I #
loop $-1 $-1 $216 $74 #
coedge $-1 $148 $148 $215 $217 reversed $99 $-1 #
face $-1 $-1 $218 $57 $-1 $219 forward single #
loop $-1 $-1 $220 $101 #
plane-surface $-1 0 0 -0.42000000000000004 0 0 -1 -1 0 0 forward_v I I I I #
loop $-1 $-1 $221 $75 #
coedge $-1 $153 $153 $220 $222 reversed $102 $-1 #
face $-1 $-1 $223 $59 $-1 $224 forward single #
loop $-1 $-1 $225 $104 #
plane-surface $-1 0 0 -0.42000000000000004 0 0 -1 -1 0 0 forward_v I I I I #
loop $-1 $-1 $226 $76 #
coedge $-1 $158 $158 $225 $227 reversed $105 $-1 #
face $-1 $-1 $228 $61 $-1 $229 forward single #
loop $-1 $-1 $230 $107 #
plane-surface $-1 0 0 -0.42000000000000004 0 0 -1 -1 0 0 forward_v I I I I #
loop $-1 $-1 $231 $77 #
coedge $-1 $163 $163 $230 $232 reversed $108 $-1 #
face $-1 $-1 $233 $63 $-1 $234 forward single #
loop $-1 $-1 $235 $110 #
plane-surface $-1 0 0 -0.42000000000000004 0 0 -1 -1 0 0 forward_v I I I I #
loop $-1 $-1 $236 $78 #
coedge $-1 $168 $168 $235 $237 reversed $111 $-1 #
face $-1 $-1 $238 $65 $-1 $239 forward single #
loop $-1 $-1 $240 $113 #
plane-surface $-1 0 0 -0.42000000000000004 0 0 -1 -1 0 0 forward_v I I I I #
loop $-1 $-1 $241 $79 #
coedge $-1 $173 $173 $240 $242 reversed $114 $-1 #
model_id-kcp-attrib $-1 $-1 $-1 $117 1 990560016 70 1346764801 5 #
face $243 $244 $245 $15 $-1 $246 reversed single #
loop $-1 $-1 $247 $117 #
coedge $-1 $248 $249 $250 $251 reversed $118 $-1 #
coedge $-1 $120 $120 $252 $253 forward $82 $-1 #
coedge $-1 $254 $255 $120 $180 reversed $185 $-1 #
edge $-1 $256 -2.2798026230356001 $257 0 $120 $258 forward 7 unknown #
coedge $-1 $259 $260 $121 $182 reversed $261 $-1 #
edge $-1 $186 -0.38976073279747492 $187 0.38976073279747492 $181 $262 forward 7 unknown #
coedge $-1 $263 $122 $264 $265 reversed $185 $-1 #
coedge $-1 $122 $266 $267 $268 reversed $185 $-1 #
loop $-1 $-1 $266 $269 #
vertex $-1 $182 $270 #
vertex $-1 $182 $271 #
straight-curve $-1 -2.7749999999999999 -1.1399013115178001 -0.65500000000000003 -1.9479283222279599e-016 -1 0 I I #
model_id-kcp-attrib $-1 $-1 $-1 $125 1 990560016 70 1346764802 2 #
face $272 $273 $274 $47 $-1 $275 reversed single #
loop $-1 $-1 $276 $125 #
plane-surface $-1 0 -10.505000000000001 0 0 1 0 0 0 1 forward_v I I I I #
coedge $-1 $277 $278 $279 $280 forward $126 $-1 #
coedge $-1 $281 $128 $282 $283 forward $87 $-1 #
coedge $-1 $128 $281 $284 $285 forward $87 $-1 #
coedge $-1 $286 $287 $128 $197 reversed $288 $-1 #
edge $-1 $289 -10.505000000000001 $290 10.505000000000001 $196 $291 forward 7 unknown #
loop $-1 $-1 $292 $129 #
plane-surface $-1 0 0 1.4950000000000003 0 0 1 1 0 0 forward_v I I I I #
coedge $-1 $200 $200 $133 $202 forward $130 $-1 #
coedge $-1 $201 $201 $292 $293 reversed $132 $-1 #
edge $-1 $294 0 $294 6.2831853071795862 $200 $295 forward 7 unknown #
loop $-1 $-1 $296 $134 #
plane-surface $-1 0 0 0.4200000000000001 0 0 1 1 0 0 forward_v I I I I #
coedge $-1 $205 $205 $138 $207 forward $135 $-1 #
coedge $-1 $206 $206 $296 $297 reversed $137 $-1 #
edge $-1 $298 0 $298 6.2831853071795862 $205 $299 forward 7 unknown #
loop $-1 $-1 $300 $139 #
plane-surface $-1 0 0 0.42000000000000004 0 0 1 1 0 0 forward_v I I I I #
coedge $-1 $210 $210 $143 $212 forward $140 $-1 #
coedge $-1 $211 $211 $300 $301 reversed $142 $-1 #
edge $-1 $302 0 $302 6.2831853071795862 $210 $303 forward 7 unknown #
loop $-1 $-1 $304 $144 #
plane-surface $-1 0 0 0.41999999999999998 0 0 1 1 0 0 forward_v I I I I #
coedge $-1 $215 $215 $148 $217 forward $145 $-1 #
coedge $-1 $216 $216 $304 $305 reversed $147 $-1 #
edge $-1 $306 0 $306 6.2831853071795862 $215 $307 forward 7 unknown #
loop $-1 $-1 $308 $149 #
plane-surface $-1 0 0 0.42000000000000004 0 0 1 1 0 0 forward_v I I I I #
coedge $-1 $220 $220 $153 $222 forward $150 $-1 #
coedge $-1 $221 $221 $308 $309 reversed $152 $-1 #
edge $-1 $310 0 $310 6.2831853071795862 $220 $311 forward 7 unknown #
loop $-1 $-1 $312 $154 #
plane-surface $-1 0 0 0.42000000000000004 0 0 1 1 0 0 forward_v I I I I #
coedge $-1 $225 $225 $158 $227 forward $155 $-1 #
coedge $-1 $226 $226 $312 $313 reversed $157 $-1 #
edge $-1 $314 0 $314 6.2831853071795862 $225 $315 forward 7 unknown #
loop $-1 $-1 $316 $159 #
plane-surface $-1 0 0 0.42000000000000004 0 0 1 1 0 0 forward_v I I I I #
coedge $-1 $230 $230 $163 $232 forward $160 $-1 #
coedge $-1 $231 $231 $316 $317 reversed $162 $-1 #
edge $-1 $318 0 $318 6.2831853071795862 $230 $319 forward 7 unknown #
loop $-1 $-1 $320 $164 #
plane-surface $-1 0 0 0.42000000000000004 0 0 1 1 0 0 forward_v I I I I #
coedge $-1 $235 $235 $168 $237 forward $165 $-1 #
coedge $-1 $236 $236 $320 $321 reversed $167 $-1 #
edge $-1 $322 0 $322 6.2831853071795862 $235 $323 forward 7 unknown #
loop $-1 $-1 $324 $169 #
plane-surface $-1 0 0 0.42000000000000004 0 0 1 1 0 0 forward_v I I I I #
coedge $-1 $240 $240 $173 $242 forward $170 $-1 #
coedge $-1 $241 $241 $324 $325 reversed $172 $-1 #
edge $-1 $326 0 $326 6.2831853071795862 $240 $327 forward 7 unknown #
model_id-kcp-attrib $-1 $-1 $-1 $175 1 990560016 70 1346764801 6 #
face $328 $329 $330 $15 $-1 $246 reversed single #
loop $-1 $-1 $267 $175 #
plane-surface $-1 0 0 -0.65500000000000003 0 0 1 1 0 0 forward_v I I I I #
coedge $-1 $331 $332 $333 $334 forward $176 $-1 #
coedge $-1 $335 $177 $336 $337 forward $118 $-1 #
coedge $-1 $177 $335 $338 $339 forward $118 $-1 #
coedge $-1 $340 $341 $177 $251 forward $342 $-1 #
edge $-1 $343 -5.6500986884822 $344 0 $250 $345 forward 7 unknown #
coedge $-1 $333 $338 $178 $253 reversed $346 $-1 #
edge $-1 $257 -0.38976073279747492 $256 0.38976073279747492 $252 $347 forward 7 unknown #
coedge $-1 $266 $179 $335 $348 forward $185 $-1 #
coedge $-1 $179 $263 $331 $349 forward $185 $-1 #
vertex $-1 $253 $350 #
vertex $-1 $253 $351 #
straight-curve $-1 -2.7749999999999999 -1.1399013115178001 0.65500000000000003 3.89585664445591e-016 -1 0 I I #
coedge $-1 $352 $181 $353 $354 reversed $261 $-1 #
coedge $-1 $181 $355 $356 $357 reversed $261 $-1 #
loop $-1 $-1 $181 $358 #
ellipse-curve $-1 0 0 -0.65500000000000003 0 0 1 -3 0 0 1 I I #
coedge $-1 $255 $183 $359 $360 reversed $185 $-1 #
coedge $-1 $356 $361 $183 $265 forward $362 $-1 #
edge $-1 $363 -1.8600986884821999 $187 0 $183 $364 forward 7 unknown #
coedge $-1 $184 $254 $365 $366 forward $185 $-1 #
coedge $-1 $367 $353 $184 $268 forward $245 $-1 #
edge $-1 $186 -5.6500986884822 $368 0 $184 $369 forward 7 unknown #
face $370 $371 $185 $15 $-1 $372 forward single #
point $-1 -2.7749999999999999 1.1399013115178001 -0.65500000000000003 #
point $-1 -2.7749999999999999 -1.1399013115178001 -0.65500000000000003 #
model_id-kcp-attrib $-1 $-1 $-1 $190 1 990560016 70 1346764802 5 #
face $373 $374 $375 $47 $-1 $376 reversed single #
loop $-1 $-1 $377 $190 #
plane-surface $-1 -3.5 0 0 1 0 0 0 0 -1 forward_v I I I I #
coedge $-1 $378 $284 $379 $380 forward $191 $-1 #
coedge $-1 $381 $193 $378 $382 forward $126 $-1 #
coedge $-1 $193 $381 $383 $384 forward $126 $-1 #
coedge $-1 $287 $286 $193 $280 reversed $288 $-1 #
edge $-1 $385 -10.505000000000001 $386 10.505000000000001 $279 $387 forward 7 unknown #
coedge $-1 $195 $194 $388 $389 forward $87 $-1 #
coedge $-1 $390 $391 $194 $283 reversed $375 $-1 #
edge $-1 $290 -3.5 $392 3.5 $282 $393 forward 7 unknown #
coedge $-1 $276 $394 $195 $285 reversed $191 $-1 #
edge $-1 $395 -3.5 $289 3.5 $284 $396 forward 7 unknown #
coedge $-1 $279 $196 $394 $397 forward $288 $-1 #
coedge $-1 $196 $279 $390 $398 reversed $288 $-1 #
loop $-1 $-1 $286 $374 #
vertex $-1 $197 $399 #
vertex $-1 $197 $400 #
straight-curve $-1 3.5 0 1.4950000000000001 0 1 0 I I #
coedge $-1 $292 $292 $201 $293 forward $198 $-1 #
edge $-1 $401 0 $401 6.2831853071795862 $292 $402 forward 7 unknown #
vertex $-1 $202 $403 #
ellipse-curve $-1 0 0 -1.4950000000000003 0 0 -1 2 0 0 1 I I #
coedge $-1 $296 $296 $206 $297 forward $203 $-1 #
edge $-1 $404 0 $404 6.2831853071795862 $296 $405 forward 7 unknown #
vertex $-1 $207 $406 #
ellipse-curve $-1 0 0 -0.4200000000000001 0 0 -1 0.156 0 0 1 I I #
coedge $-1 $300 $300 $211 $301 forward $208 $-1 #
edge $-1 $407 0 $407 6.2831853071795862 $300 $408 forward 7 unknown #
vertex $-1 $212 $409 #
ellipse-curve $-1 0 0 -0.42000000000000004 0 0 -1 0.156 0 0 1 I I #
coedge $-1 $304 $304 $216 $305 forward $213 $-1 #
edge $-1 $410 0 $410 6.2831853071795862 $304 $411 forward 7 unknown #
vertex $-1 $217 $412 #
ellipse-curve $-1 0 0 -0.41999999999999998 0 0 -1 0.156 0 0 1 I I #
coedge $-1 $308 $308 $221 $309 forward $218 $-1 #
edge $-1 $413 0 $413 6.2831853071795862 $308 $414 forward 7 unknown #
vertex $-1 $222 $415 #
ellipse-curve $-1 0 0 -0.42000000000000004 0 0 -1 0.156 0 0 1 I I #
coedge $-1 $312 $312 $226 $313 forward $223 $-1 #
edge $-1 $416 0 $416 6.2831853071795862 $312 $417 forward 7 unknown #
vertex $-1 $227 $418 #
ellipse-curve $-1 0 0 -0.42000000000000004 0 0 -1 0.156 0 0 1 I I #
coedge $-1 $316 $316 $231 $317 forward $228 $-1 #
edge $-1 $419 0 $419 6.2831853071795862 $316 $420 forward 7 unknown #
vertex $-1 $232 $421 #
ellipse-curve $-1 0 0 -0.42000000000000004 0 0 -1 0.156 0 0 1 I I #
coedge $-1 $320 $320 $236 $321 forward $233 $-1 #
edge $-1 $422 0 $422 6.2831853071795862 $320 $423 forward 7 unknown #
vertex $-1 $237 $424 #
ellipse-curve $-1 0 0 -0.42000000000000004 0 0 -1 0.156 0 0 1 I I #
coedge $-1 $324 $324 $241 $325 forward $238 $-1 #
edge $-1 $425 0 $425 6.2831853071795862 $324 $426 forward 7 unknown #
vertex $-1 $242 $427 #
ellipse-curve $-1 0 0 -0.42000000000000004 0 0 -1 0.156 0 0 1 I I #
model_id-kcp-attrib $-1 $-1 $-1 $244 1 990560016 70 1346764801 7 #
face $428 $429 $362 $15 $-1 $246 reversed single #
loop $-1 $-1 $430 $244 #
coedge $-1 $332 $247 $255 $349 reversed $176 $-1 #
coedge $-1 $247 $331 $431 $432 reversed $176 $-1 #
coedge $-1 $433 $252 $247 $334 reversed $346 $-1 #
edge $-1 $434 -1.1810355939974222 $257 0 $333 $435 forward 7 unknown #
coedge $-1 $249 $248 $254 $348 reversed $118 $-1 #
coedge $-1 $436 $365 $248 $337 reversed $437 $-1 #
edge $-1 $343 -5.5499999999999998 $438 0 $336 $439 forward 7 unknown #
coedge $-1 $252 $440 $249 $339 reversed $346 $-1 #
edge $-1 $256 -2.3620711879948435 $344 0 $338 $441 forward 7 unknown #
coedge $-1 $442 $250 $443 $444 forward $342 $-1 #
coedge $-1 $250 $445 $436 $446 reversed $342 $-1 #
loop $-1 $-1 $341 $447 #
vertex $-1 $446 $448 #
vertex $-1 $449 $450 #
straight-curve $-1 2.7749999999999999 1.1399013115178001 0.65500000000000003 0 -1 0 I I #
loop $-1 $-1 $440 $451 #
ellipse-curve $-1 0 0 0.65500000000000003 0 0 -1 -3 0 0 1 I I #
edge $-1 $256 -5.6500986884822 $438 0 $254 $452 forward 7 unknown #
edge $-1 $453 -1.8600986884821999 $257 0 $255 $454 forward 7 unknown #
point $-1 -2.7749999999999999 1.1399013115178001 0.65500000000000003 #
point $-1 -2.7749999999999999 -1.1399013115178001 0.65500000000000003 #
coedge $-1 $355 $259 $455 $456 reversed $261 $-1 #
coedge $-1 $267 $457 $259 $354 forward $245 $-1 #
edge $-1 $458 -2.3620711879948435 $186 0 $259 $459 forward 7 unknown #
coedge $-1 $260 $352 $430 $460 reversed $261 $-1 #
coedge $-1 $361 $264 $260 $357 forward $362 $-1 #
edge $-1 $187 -1.1810355939974218 $461 3.3306690738754706e-016 $260 $462 forward 7 unknown #
face $463 $464 $465 $15 $-1 $466 forward single #
coedge $-1 $467 $431 $263 $360 forward $468 $-1 #
edge $469 $453 -1.3100000000000001 $363 0 $359 $470 forward 7 unknown #
coedge $-1 $264 $356 $467 $471 forward $362 $-1 #
loop $-1 $-1 $356 $329 #
vertex $-1 $360 $472 #
straight-curve $-1 -2.7749999999999999 -1.1399013115178001 -0.65500000000000003 -2.3874497229629802e-016 1 0 I I #
coedge $-1 $336 $473 $266 $366 reversed $437 $-1 #
edge $-1 $438 -1.3100000000000001 $368 0 $365 $474 forward 7 unknown #
coedge $-1 $457 $267 $473 $475 reversed $245 $-1 #
vertex $-1 $366 $476 #
straight-curve $-1 -2.7749999999999999 6.79 -0.65500000000000003 0 1 0 I I #
model_id-kcp-attrib $-1 $-1 $-1 $269 1 990560016 70 1346764801 10 #
face $477 $447 $468 $15 $-1 $478 forward single #
plane-surface $-1 -2.7749999999999999 6.79 -0.65500000000000003 -1 0 0 0 0 1 forward_v I I I I #
model_id-kcp-attrib $-1 $-1 $-1 $273 1 990560016 70 1346764802 7 #
face $479 $-1 $288 $47 $-1 $480 reversed single #
loop $-1 $-1 $390 $273 #
plane-surface $-1 0 10.505000000000001 0 0 -1 0 0 0 -1 forward_v I I I I #
coedge $-1 $481 $388 $391 $482 forward $274 $-1 #
coedge $-1 $394 $276 $277 $382 reversed $191 $-1 #
coedge $-1 $388 $481 $276 $380 reversed $274 $-1 #
edge $-1 $395 -1.4950000000000001 $483 1.4950000000000001 $379 $484 forward 7 unknown #
coedge $-1 $278 $277 $481 $485 forward $126 $-1 #
edge $-1 $386 -3.5 $483 3.5 $378 $486 forward 7 unknown #
coedge $-1 $391 $390 $278 $384 reversed $375 $-1 #
edge $-1 $487 -3.5 $385 3.5 $383 $488 forward 7 unknown #
vertex $-1 $280 $489 #
vertex $-1 $397 $490 #
straight-curve $-1 3.5 0 -1.4950000000000001 0 -1 0 I I #
coedge $-1 $377 $379 $281 $389 reversed $274 $-1 #
edge $-1 $392 -10.505000000000001 $395 10.505000000000001 $388 $491 forward 7 unknown #
coedge $-1 $383 $282 $287 $398 forward $375 $-1 #
coedge $-1 $282 $383 $377 $482 reversed $375 $-1 #
vertex $-1 $283 $492 #
straight-curve $-1 0 10.505000000000001 1.4950000000000001 -1 0 0 I I #
coedge $-1 $284 $378 $286 $397 reversed $191 $-1 #
vertex $-1 $389 $493 #
straight-curve $-1 0 -10.505000000000001 1.4950000000000001 1 0 0 I I #
edge $-1 $289 -1.4950000000000001 $386 1.4950000000000001 $286 $494 forward 7 unknown #
edge $-1 $290 -1.4950000000000001 $385 1.4950000000000001 $287 $495 forward 7 unknown #
point $-1 3.5 -10.505000000000001 1.4950000000000001 #
point $-1 3.5 10.505000000000001 1.4950000000000001 #
vertex $-1 $293 $496 #
ellipse-curve $-1 0 0 1.4950000000000003 0 0 1 2 0 0 1 I I #
point $-1 2 0 -1.4950000000000003 #
vertex $-1 $297 $497 #
ellipse-curve $-1 0 0 0.4200000000000001 0 0 1 0.156 0 0 1 I I #
point $-1 0.156 0 -0.4200000000000001 #
vertex $-1 $301 $498 #
ellipse-curve $-1 0 0 0.42000000000000004 0 0 1 0.156 0 0 1 I I #
point $-1 0.156 0 -0.42000000000000004 #
vertex $-1 $305 $499 #
ellipse-curve $-1 0 0 0.41999999999999998 0 0 1 0.156 0 0 1 I I #
point $-1 0.156 0 -0.41999999999999998 #
vertex $-1 $309 $500 #
ellipse-curve $-1 0 0 0.42000000000000004 0 0 1 0.156 0 0 1 I I #
point $-1 0.156 0 -0.42000000000000004 #
vertex $-1 $313 $501 #
ellipse-curve $-1 0 0 0.42000000000000004 0 0 1 0.156 0 0 1 I I #
point $-1 0.156 0 -0.42000000000000004 #
vertex $-1 $317 $502 #
ellipse-curve $-1 0 0 0.42000000000000004 0 0 1 0.156 0 0 1 I I #
point $-1 0.156 0 -0.42000000000000004 #
vertex $-1 $321 $503 #
ellipse-curve $-1 0 0 0.42000000000000004 0 0 1 0.156 0 0 1 I I #
point $-1 0.156 0 -0.42000000000000004 #
vertex $-1 $325 $504 #
ellipse-curve $-1 0 0 0.42000000000000004 0 0 1 0.156 0 0 1 I I #
point $-1 0.156 0 -0.42000000000000004 #
model_id-kcp-attrib $-1 $-1 $-1 $329 1 990560016 70 1346764801 8 #
face $505 $269 $506 $15 $-1 $119 forward single #
coedge $-1 $507 $508 $355 $460 forward $330 $-1 #
coedge $-1 $359 $509 $332 $432 forward $468 $-1 #
edge $510 $434 -2.7750000000000017 $453 0 $431 $511 forward 7 unknown #
coedge $-1 $440 $333 $512 $513 reversed $346 $-1 #
vertex $-1 $514 $515 #
ellipse-curve $-1 0 0 0.65500000000000003 0 0 -1 -2.7749999999999999 -1.1399013115178001 0 1 I I #
coedge $-1 $473 $336 $341 $446 forward $437 $-1 #
loop $-1 $-1 $473 $516 #
vertex $-1 $366 $517 #
straight-curve $-1 -2.7749999999999999 6.79 0.65500000000000003 -1 0 0 I I #
coedge $-1 $338 $433 $518 $449 reversed $346 $-1 #
ellipse-curve $-1 0 0 0.65500000000000003 0 0 -1 2.7749999999999999 1.1399013115178001 0 1 I I #
coedge $-1 $519 $340 $520 $521 forward $342 $-1 #
coedge $-1 $518 $518 $340 $444 reversed $522 $-1 #
edge $-1 $344 -2.2798026230356001 $523 0 $443 $524 forward 7 unknown #
coedge $-1 $341 $525 $457 $526 reversed $342 $-1 #
edge $-1 $343 -1.3100000000000001 $527 0 $436 $528 forward 7 unknown #
face $529 $530 $342 $15 $-1 $531 forward single #
point $-1 2.7749999999999999 6.79 0.65500000000000003 #
edge $-1 $344 -0.38976073279747492 $523 0.38976073279747492 $440 $532 forward 7 unknown #
point $-1 2.7749999999999999 1.1399013115178001 0.65500000000000003 #
face $533 $534 $535 $15 $-1 $536 forward single #
straight-curve $-1 -2.7749999999999999 6.79 0.65500000000000003 2.35795461814859e-016 1 0 I I #
vertex $-1 $360 $537 #
straight-curve $-1 -2.7749999999999999 -1.1399013115178001 0.65500000000000003 -2.3874497229629802e-016 1 0 I I #
coedge $-1 $538 $538 $352 $456 forward $539 $-1 #
edge $-1 $540 -0.38976073279747492 $458 0.38976073279747492 $352 $541 forward 7 unknown #
coedge $-1 $353 $367 $445 $526 forward $245 $-1 #
vertex $-1 $456 $542 #
ellipse-curve $-1 0 0 -0.65500000000000003 0 0 1 -2.7749999999999999 1.1399013115178001 0 1 I I #
edge $-1 $461 -1.1810355939974213 $540 0 $355 $543 forward 7 unknown #
vertex $-1 $471 $544 #
ellipse-curve $-1 0 0 -0.65500000000000003 0 0 1 0 -3 0 1 I I #
model_id-kcp-attrib $-1 $-1 $-1 $358 1 990560016 70 1346764801 18 #
face $545 $516 $546 $15 $-1 $547 reversed single #
loop $-1 $261 $548 $358 #
cone-surface $-1 0 0 -0.65500000000000003 0 0 -1 -3 0 0 1 I I 0 1 3 forward I I I I #
coedge $-1 $549 $359 $361 $471 reversed $468 $-1 #
loop $-1 $-1 $467 $371 #
attrib_edge_convexity-kcp-attrib $-1 $550 $-1 $360 1 #
straight-curve $-1 -2.7749999999999999 -3 -0.65500000000000003 0 0 -1 I I #
edge $551 $461 -2.7750000000000008 $363 0 $467 $552 forward 7 unknown #
point $-1 -2.7749999999999999 -3 -0.65500000000000003 #
coedge $-1 $365 $436 $367 $475 forward $437 $-1 #
straight-curve $-1 -2.7749999999999999 6.79 -0.65500000000000003 0 0 -1 I I #
edge $-1 $527 -5.5499999999999998 $368 0 $473 $553 forward 7 unknown #
point $-1 -2.7749999999999999 6.79 -0.65500000000000003 #
model_id-kcp-attrib $-1 $-1 $-1 $371 1 990560016 70 1346764801 11 #
plane-surface $-1 -2.7749999999999999 -3 -0.65500000000000003 0 -1 0 0 0 -1 forward_v I I I I #
model_id-kcp-attrib $-1 $-1 $-1 $374 1 990560016 70 1346764802 6 #
plane-surface $-1 3.5 0 0 -1 0 0 0 0 1 forward_v I I I I #
coedge $-1 $379 $377 $381 $485 reversed $274 $-1 #
edge $-1 $392 -1.4950000000000001 $487 1.4950000000000001 $391 $554 forward 7 unknown #
vertex $-1 $485 $555 #
straight-curve $-1 -3.5 -10.505000000000001 0 0 0 -1 I I #
edge $-1 $483 -10.505000000000001 $487 10.505000000000001 $481 $556 forward 7 unknown #
straight-curve $-1 0 -10.505000000000001 -1.4950000000000001 -1 0 0 I I #
vertex $-1 $384 $557 #
straight-curve $-1 0 10.505000000000001 -1.4950000000000001 1 0 0 I I #
point $-1 3.5 10.505000000000001 -1.4950000000000001 #
point $-1 3.5 -10.505000000000001 -1.4950000000000001 #
straight-curve $-1 -3.5 0 1.4950000000000001 0 -1 0 I I #
point $-1 -3.5 10.505000000000001 1.4950000000000001 #
point $-1 -3.5 -10.505000000000001 1.4950000000000001 #
straight-curve $-1 3.5 -10.505000000000001 0 0 0 -1 I I #
straight-curve $-1 3.5 10.505000000000001 0 0 0 -1 I I #
point $-1 2 0 1.4950000000000003 #
point $-1 0.156 0 0.4200000000000001 #
point $-1 0.156 0 0.42000000000000004 #
point $-1 0.156 0 0.41999999999999998 #
point $-1 0.156 0 0.42000000000000004 #
point $-1 0.156 0 0.42000000000000004 #
point $-1 0.156 0 0.42000000000000004 #
point $-1 0.156 0 0.42000000000000004 #
point $-1 0.156 0 0.42000000000000004 #
model_id-kcp-attrib $-1 $-1 $-1 $429 1 990560016 70 1346764801 9 #
loop $-1 $-1 $512 $429 #
coedge $-1 $508 $430 $558 $559 forward $330 $-1 #
coedge $-1 $430 $507 $549 $560 forward $330 $-1 #
coedge $-1 $431 $561 $562 $514 forward $468 $-1 #
attrib_edge_convexity-kcp-attrib $-1 $563 $-1 $432 1 #
straight-curve $-1 -2.7749999999999999 -3 0.65500000000000003 -1 3.2006429538743201e-016 0 I I #
coedge $-1 $562 $520 $433 $513 forward $506 $-1 #
edge $-1 $523 -1.1810355939974218 $434 -5.5511151231257669e-016 $433 $564 forward 7 unknown #
edge $565 $566 -2.7749999999999981 $434 0 $509 $567 forward 7 unknown #
point $-1 1.6653345369377301e-015 -3 0.65500000000000003 #
face $568 $569 $570 $15 $-1 $571 reversed single #
point $-1 -2.7749999999999999 6.79 0.65500000000000003 #
coedge $-1 $443 $443 $440 $449 forward $522 $-1 #
coedge $-1 $558 $442 $561 $572 forward $342 $-1 #
coedge $-1 $512 $562 $442 $521 reversed $506 $-1 #
edge $-1 $523 -1.8600986884821999 $566 0 $442 $573 forward 7 unknown #
loop $-1 $-1 $443 $530 #
vertex $-1 $449 $574 #
straight-curve $-1 2.7749999999999999 -1.1399013115178001 0.65500000000000003 1.9479283222279599e-016 -1 0 I I #
coedge $-1 $445 $558 $538 $575 reversed $342 $-1 #
edge $-1 $527 -5.6500986884822 $458 0 $445 $576 forward 7 unknown #
vertex $-1 $446 $577 #
straight-curve $-1 2.7749999999999999 6.79 -0.65500000000000003 0 0 -1 I I #
model_id-kcp-attrib $-1 $-1 $-1 $447 1 990560016 70 1346764801 12 #
face $578 $579 $522 $15 $-1 $83 reversed single #
plane-surface $-1 2.7749999999999999 -3 -0.65500000000000003 1 0 0 0 0 -1 forward_v I I I I #
ellipse-curve $-1 0 0 0.65500000000000003 0 0 -1 3 0 0 1 I I #
model_id-kcp-attrib $-1 $-1 $-1 $451 1 990560016 70 1346764801 15 #
face $580 $581 $539 $15 $-1 $69 reversed single #
loop $-1 $346 $582 $451 #
cone-surface $-1 0 0 0.65500000000000003 0 0 1 3 0 0 1 I I 0 1 3 forward I I I I #
point $-1 -2.7749999999999999 -3 0.65500000000000003 #
coedge $-1 $455 $455 $525 $575 forward $539 $-1 #
loop $-1 $-1 $538 $534 #
vertex $-1 $456 $583 #
ellipse-curve $-1 0 0 -0.65500000000000003 0 0 1 3 0 0 1 I I #
point $-1 2.7749999999999999 1.1399013115178001 -0.65500000000000003 #
ellipse-curve $-1 0 0 -0.65500000000000003 0 0 1 2.7749999999999999 -1.1399013115178001 0 1 I I #
point $-1 9.9920072216264108e-016 -3 -0.65500000000000003 #
model_id-kcp-attrib $-1 $-1 $-1 $464 1 990560016 70 1346764801 19 #
loop $-1 $584 $585 $464 #
cone-surface $-1 0 0 1.4950000000000001 0 0 -1 -2 0 0 1 I I 0 1 2 forward I I I I #
coedge $-1 $548 $548 $586 $587 forward $465 $-1 #
coedge $-1 $561 $467 $508 $560 reversed $468 $-1 #
convexity-sys-attrib $-1 $-1 $469 $360 #
attrib_edge_convexity-kcp-attrib $-1 $588 $-1 $471 1 #
straight-curve $-1 -2.7749999999999999 -3 -0.65500000000000003 -1 -3.2006429538743201e-016 0 I I #
straight-curve $-1 -2.7749999999999999 6.79 -0.65500000000000003 -1 0 0 I I #
straight-curve $-1 -3.5 10.505000000000001 0 0 0 -1 I I #
point $-1 -3.5 -10.505000000000001 -1.4950000000000001 #
straight-curve $-1 -3.5 0 -1.4950000000000001 0 1 0 I I #
point $-1 -3.5 10.505000000000001 -1.4950000000000001 #
coedge $-1 $525 $519 $507 $559 reversed $342 $-1 #
edge $-1 $540 -1.8600986884821999 $589 0 $558 $590 forward 7 unknown #
edge $591 $589 -2.774999999999999 $461 0 $549 $592 forward 7 unknown #
coedge $-1 $509 $549 $519 $572 reversed $468 $-1 #
coedge $-1 $520 $512 $509 $514 reversed $506 $-1 #
convexity-sys-attrib $-1 $-1 $510 $432 #
ellipse-curve $-1 0 0 0.65500000000000003 0 0 -1 0 -3 0 1 I I #
attrib_edge_convexity-kcp-attrib $-1 $593 $-1 $514 1 #
vertex $-1 $572 $594 #
straight-curve $-1 1.6653345369377301e-015 -3 0.65500000000000003 -1 -3.2006429538743299e-016 0 I I #
model_id-kcp-attrib $-1 $-1 $-1 $516 1 990560016 70 1346764801 20 #
face $595 $596 $597 $15 $-1 $598 forward single #
loop $-1 $437 $599 $516 #
plane-surface $-1 2.7749999999999999 6.79 -0.65500000000000003 0 1 0 0 0 1 forward_v I I I I #
edge $600 $566 -1.3100000000000001 $589 0 $519 $601 forward 7 unknown #
straight-curve $-1 2.7749999999999999 -3 0.65500000000000003 -2.3874497229629802e-016 -1 0 I I #
point $-1 2.7749999999999999 -1.1399013115178001 0.65500000000000003 #
edge $-1 $458 -2.2798026230356001 $540 0 $538 $602 forward 7 unknown #
straight-curve $-1 2.7749999999999999 1.1399013115178001 -0.65500000000000003 2.35795461814859e-016 -1 0 I I #
point $-1 2.7749999999999999 6.79 -0.65500000000000003 #
model_id-kcp-attrib $-1 $-1 $-1 $530 1 990560016 70 1346764801 13 #
face $603 $451 $604 $15 $-1 $605 forward single #
model_id-kcp-attrib $-1 $-1 $-1 $534 1 990560016 70 1346764801 16 #
face $606 $358 $607 $15 $-1 $608 forward single #
coedge $-1 $582 $582 $609 $610 forward $535 $-1 #
point $-1 2.7749999999999999 -1.1399013115178001 -0.65500000000000003 #
loop $-1 $-1 $611 $464 #
coedge $-1 $585 $585 $612 $613 reversed $546 $-1 #
coedge $-1 $586 $586 $548 $587 reversed $607 $-1 #
edge $-1 $614 0 $614 6.2831853071795862 $548 $615 forward 7 unknown #
convexity-sys-attrib $-1 $-1 $551 $471 #
vertex $-1 $572 $616 #
straight-curve $-1 2.7749999999999999 -3 -0.65500000000000003 -2.3874497229629699e-016 -1 0 I I #
attrib_edge_convexity-kcp-attrib $-1 $617 $-1 $560 1 #
straight-curve $-1 9.9920072216264108e-016 -3 -0.65500000000000003 -1 3.2006429538743299e-016 0 I I #
convexity-sys-attrib $-1 $-1 $565 $514 #
point $-1 2.7749999999999999 -3 0.65500000000000003 #
model_id-kcp-attrib $-1 $-1 $-1 $569 1 990560016 70 1346764801 21 #
face $618 $619 $620 $15 $-1 $621 forward single #
loop $-1 $622 $623 $569 #
plane-surface $-1 2.7749999999999999 8.7899999999999991 -0.65500000000000003 0 1 0 0 0 1 forward_v I I I I #
coedge $-1 $624 $625 $626 $627 forward $570 $-1 #
attrib_edge_convexity-kcp-attrib $-1 $628 $-1 $572 1 #
straight-curve $-1 2.7749999999999999 -3 -0.65500000000000003 0 0 -1 I I #
straight-curve $-1 2.7749999999999999 -1.1399013115178001 -0.65500000000000003 -3.8958566444559198e-016 -1 0 I I #
model_id-kcp-attrib $-1 $629 $-1 $579 1 990560016 70 1346764801 46 #
loop $-1 $630 $609 $579 #
plane-surface $-1 0 0 1.4950000000000001 0 0 1 1 0 0 forward_v I I I I #
model_id-kcp-attrib $-1 $631 $-1 $581 1 990560016 70 1346764801 47 #
loop $-1 $632 $586 $581 #
plane-surface $-1 0 0 -1.4950000000000001 0 0 -1 -1 0 0 forward_v I I I I #
coedge $-1 $609 $609 $582 $610 reversed $604 $-1 #
edge $633 $634 0 $634 6.2831853071795862 $582 $635 forward 7 unknown #
coedge $-1 $611 $611 $636 $637 forward $584 $-1 #
coedge $-1 $612 $612 $585 $613 forward $632 $-1 #
edge $638 $639 -3.1415926535897931 $639 3.1415926535897931 $585 $640 forward 7 unknown #
vertex $-1 $587 $641 #
ellipse-curve $-1 0 0 -1.4950000000000001 0 0 1 -3 0 0 1 I I #
point $-1 2.7749999999999999 -3 -0.65500000000000003 #
convexity-sys-attrib $-1 $-1 $591 $560 #
model_id-kcp-attrib $-1 $-1 $-1 $596 1 990560016 70 1346764801 22 #
face $642 $643 $644 $15 $-1 $645 forward single #
loop $-1 $-1 $626 $596 #
plane-surface $-1 -3.5 6.79 -1.47 -1 0 0 0 0 1 forward_v I I I I #
loop $-1 $-1 $646 $569 #
coedge $-1 $647 $648 $649 $650 reversed $597 $-1 #
coedge $-1 $651 $599 $652 $653 forward $570 $-1 #
coedge $-1 $599 $651 $654 $655 forward $570 $-1 #
coedge $-1 $656 $657 $599 $627 reversed $620 $-1 #
edge $658 $659 -2.9399999999999999 $660 0 $626 $661 forward 7 unknown #
convexity-sys-attrib $-1 $-1 $600 $572 #
model_id-kcp-attrib $-1 $-1 $603 $579 1 990560016 70 1346764801 14 #
loop $-1 $662 $636 $579 #
model_id-kcp-attrib $-1 $-1 $606 $581 1 990560016 70 1346764801 17 #
loop $-1 $663 $612 $581 #
attrib_edge_convexity-kcp-attrib $-1 $664 $-1 $610 1 #
vertex $-1 $610 $665 #
ellipse-curve $-1 0 0 1.4950000000000001 0 0 -1 3 0 0 1 I I #
coedge $-1 $636 $636 $611 $637 reversed $630 $-1 #
edge $666 $667 0 $667 6.2831853071795862 $611 $668 forward 7 unknown #
attrib_edge_convexity-kcp-attrib $-1 $669 $-1 $613 1 #
vertex $-1 $613 $670 #
ellipse-curve $-1 0 0 -1.4950000000000001 0 0 1 2 0 0 1 I I #
point $-1 -3 0 -1.4950000000000001 #
model_id-kcp-attrib $-1 $-1 $-1 $619 1 990560016 70 1346764801 23 #
face $671 $672 $673 $15 $-1 $674 forward single #
loop $-1 $-1 $654 $619 #
plane-surface $-1 -3.5 6.79 1.47 0 0 1 1 0 0 forward_v I I I I #
coedge $-1 $646 $646 $675 $676 forward $622 $-1 #
coedge $-1 $677 $623 $678 $679 reversed $597 $-1 #
coedge $-1 $623 $677 $680 $681 reversed $597 $-1 #
coedge $-1 $657 $656 $623 $650 forward $620 $-1 #
edge $682 $683 -2.9399999999999999 $684 0 $649 $685 forward 7 unknown #
coedge $-1 $625 $624 $686 $687 forward $570 $-1 #
coedge $-1 $688 $689 $624 $653 reversed $690 $-1 #
edge $-1 $660 -7 $691 0 $652 $692 forward 7 unknown #
coedge $-1 $693 $694 $625 $655 reversed $644 $-1 #
edge $-1 $695 -7 $659 0 $654 $696 forward 7 unknown #
coedge $-1 $649 $626 $694 $697 reversed $620 $-1 #
coedge $-1 $626 $649 $688 $698 forward $620 $-1 #
attrib_edge_convexity-kcp-attrib $-1 $699 $-1 $627 1 #
vertex $-1 $697 $700 #
vertex $-1 $698 $701 #
straight-curve $-1 -3.5 6.79 -1.47 0 0 -1 I I #
loop $-1 $702 $703 $579 #
loop $-1 $704 $705 $581 #
convexity-sys-attrib $-1 $-1 $633 $610 #
point $-1 3 0 1.4950000000000001 #
attrib_edge_convexity-kcp-attrib $-1 $706 $-1 $637 1 #
vertex $-1 $637 $707 #
ellipse-curve $-1 0 0 1.4950000000000001 0 0 1 -2 0 0 1 I I #
convexity-sys-attrib $-1 $-1 $638 $613 #
point $-1 -2 0 -1.4950000000000001 #
model_id-kcp-attrib $-1 $-1 $-1 $643 1 990560016 70 1346764801 24 #
face $708 $709 $690 $15 $-1 $710 forward single #
loop $-1 $-1 $686 $643 #
plane-surface $-1 3.5 6.79 1.47 1 0 0 0 0 -1 forward_v I I I I #
coedge $-1 $675 $675 $646 $676 reversed $711 $-1 #
edge $-1 $712 -3.1415926535897931 $712 3.1415926535897931 $675 $713 forward 7 unknown #
coedge $-1 $648 $647 $714 $715 reversed $597 $-1 #
coedge $-1 $694 $693 $647 $679 forward $644 $-1 #
edge $-1 $716 -7 $683 0 $678 $717 forward 7 unknown #
coedge $-1 $689 $688 $648 $681 forward $690 $-1 #
edge $-1 $684 -7 $718 0 $680 $719 forward 7 unknown #
attrib_edge_convexity-kcp-attrib $-1 $720 $-1 $650 1 #
vertex $-1 $697 $721 #
vertex $-1 $698 $722 #
straight-curve $-1 -3.5 8.7899999999999991 -1.47 0 0 -1 I I #
coedge $-1 $723 $724 $651 $687 reversed $673 $-1 #
edge $-1 $691 -2.9399999999999999 $695 0 $686 $725 forward 7 unknown #
coedge $-1 $680 $652 $657 $698 reversed $690 $-1 #
coedge $-1 $652 $680 $723 $726 forward $690 $-1 #
loop $-1 $-1 $652 $672 #
vertex $-1 $726 $727 #
straight-curve $-1 3.5 6.79 -1.47 1 0 0 I I #
coedge $-1 $678 $654 $724 $728 reversed $644 $-1 #
coedge $-1 $654 $678 $656 $697 forward $644 $-1 #
vertex $-1 $728 $729 #
straight-curve $-1 -3.5 6.79 1.47 -1 0 0 I I #
edge $730 $683 -1.9999999999999991 $659 0 $694 $731 forward 7 unknown #
edge $732 $684 -1.9999999999999991 $660 0 $688 $733 forward 7 unknown #
convexity-sys-attrib $-1 $-1 $658 $627 #
point $-1 -3.5 6.79 1.47 #
point $-1 -3.5 6.79 -1.47 #
loop $-1 $734 $735 $579 #
coedge $-1 $703 $703 $736 $737 reversed $662 $-1 #
loop $-1 $738 $739 $581 #
coedge $-1 $705 $705 $740 $741 reversed $663 $-1 #
convexity-sys-attrib $-1 $-1 $666 $637 #
point $-1 -2 0 1.4950000000000001 #
model_id-kcp-attrib $-1 $-1 $-1 $672 1 990560016 70 1346764801 25 #
face $742 $743 $744 $15 $-1 $745 reversed single #
plane-surface $-1 3.5 6.79 -1.47 0 0 -1 -1 0 0 forward_v I I I I #
loop $-1 $-1 $675 $746 #
vertex $-1 $676 $747 #
ellipse-curve $-1 2 8.7899999999999991 0 0 -1 0 1.25 0 0 1 I I #
coedge $-1 $724 $723 $677 $715 forward $673 $-1 #
edge $-1 $718 -2.9399999999999999 $716 0 $714 $748 forward 7 unknown #
vertex $-1 $728 $749 #
straight-curve $-1 -3.5 8.7899999999999991 1.47 -1 0 0 I I #
vertex $-1 $726 $750 #
straight-curve $-1 3.5 8.7899999999999991 -1.47 1 0 0 I I #
convexity-sys-attrib $-1 $-1 $682 $650 #
point $-1 -3.5 8.7899999999999991 1.47 #
point $-1 -3.5 8.7899999999999991 -1.47 #
coedge $-1 $714 $686 $689 $726 reversed $673 $-1 #
coedge $-1 $686 $714 $693 $728 forward $673 $-1 #
straight-curve $-1 3.5 6.79 1.47 0 0 1 I I #
edge $-1 $718 -1.9999999999999991 $691 0 $689 $751 forward 7 unknown #
point $-1 3.5 6.79 -1.47 #
edge $-1 $716 -1.9999999999999991 $695 0 $724 $752 forward 7 unknown #
point $-1 3.5 6.79 1.47 #
attrib_edge_convexity-kcp-attrib $-1 $753 $-1 $697 1 #
straight-curve $-1 -3.5 6.79 1.47 0 -1 0 I I #
attrib_edge_convexity-kcp-attrib $-1 $754 $-1 $698 1 #
straight-curve $-1 -3.5 6.79 -1.47 0 -1 0 I I #
loop $-1 $755 $756 $579 #
coedge $-1 $735 $735 $757 $758 reversed $702 $-1 #
coedge $-1 $736 $736 $703 $737 forward $759 $-1 #
edge $760 $761 0 $761 6.2831853071795862 $736 $762 forward 7 unknown #
loop $-1 $763 $764 $581 #
coedge $-1 $739 $739 $765 $766 reversed $704 $-1 #
coedge $-1 $740 $740 $705 $741 forward $767 $-1 #
edge $768 $769 0 $769 6.2831853071795862 $740 $770 forward 7 unknown #
model_id-kcp-attrib $-1 $-1 $-1 $709 1 990560016 70 1346764801 26 #
face $771 $772 $773 $15 $-1 $774 reversed single #
loop $-1 $-1 $775 $709 #
plane-surface $-1 0.5 -2.5150000000000001 0.65500000000000003 0 0 -1 -1 0 0 forward_v I I I I #
face $776 $777 $778 $15 $-1 $779 forward single #
point $-1 0.75 8.7899999999999991 0 #
straight-curve $-1 3.5 8.7899999999999991 1.47 0 0 1 I I #
point $-1 3.5 8.7899999999999991 1.47 #
point $-1 3.5 8.7899999999999991 -1.47 #
straight-curve $-1 3.5 6.79 -1.47 0 -1 0 I I #
straight-curve $-1 3.5 6.79 1.47 0 -1 0 I I #
convexity-sys-attrib $-1 $-1 $730 $697 #
convexity-sys-attrib $-1 $-1 $732 $698 #
loop $-1 $-1 $780 $579 #
coedge $-1 $756 $756 $781 $782 reversed $734 $-1 #
coedge $-1 $757 $757 $735 $758 forward $783 $-1 #
edge $784 $785 0 $785 6.2831853071795862 $757 $786 forward 7 unknown #
loop $-1 $-1 $736 $743 #
attrib_edge_convexity-kcp-attrib $-1 $787 $-1 $737 1 #
vertex $-1 $737 $788 #
ellipse-curve $-1 0.5 -2.5150000000000001 1.4950000000000001 0 0 1 -0.156 0 0 1 I I #
loop $-1 $-1 $789 $581 #
coedge $-1 $764 $764 $790 $791 reversed $738 $-1 #
coedge $-1 $765 $765 $739 $766 forward $792 $-1 #
edge $793 $794 0 $794 6.2831853071795862 $765 $795 forward 7 unknown #
loop $-1 $-1 $740 $796 #
attrib_edge_convexity-kcp-attrib $-1 $797 $-1 $741 1 #
vertex $-1 $741 $798 #
ellipse-curve $-1 -1.4239999999999999 -2.1320000000000001 -1.4950000000000001 0 0 -1 0.156 0 0 1 I I #
model_id-kcp-attrib $-1 $-1 $-1 $743 1 990560016 70 1346764801 27 #
face $799 $800 $801 $15 $-1 $802 reversed single #
loop $-1 $759 $803 $743 #
cone-surface $-1 0.5 -2.5150000000000001 1.4950000000000001 0 0 -1 -0.156 0 0 1 I I 0 1 0.156 forward I I I I #
coedge $-1 $775 $775 $803 $804 forward $744 $-1 #
model_id-kcp-attrib $-1 $-1 $-1 $746 1 990560016 70 1346764801 43 #
face $805 $806 $807 $15 $-1 $808 forward single #
loop $-1 $711 $809 $746 #
cone-surface $-1 2 8.7899999999999991 0 0 1 0 -1.25 0 0 1 I I 0 1 1.25 forward I I I I #
coedge $-1 $780 $780 $810 $811 reversed $755 $-1 #
coedge $-1 $781 $781 $756 $782 forward $812 $-1 #
edge $813 $814 0 $814 6.2831853071795862 $781 $815 forward 7 unknown #
loop $-1 $-1 $757 $800 #
attrib_edge_convexity-kcp-attrib $-1 $816 $-1 $758 1 #
vertex $-1 $758 $817 #
ellipse-curve $-1 -0.5 -2.5150000000000001 1.4950000000000001 0 0 1 -0.156 0 0 1 I I #
convexity-sys-attrib $-1 $-1 $760 $737 #
point $-1 0.34399999999999997 -2.5150000000000001 1.4950000000000001 #
coedge $-1 $789 $789 $818 $819 reversed $763 $-1 #
coedge $-1 $790 $790 $764 $791 forward $820 $-1 #
edge $821 $822 0 $822 6.2831853071795862 $790 $823 forward 7 unknown #
loop $-1 $-1 $765 $824 #
attrib_edge_convexity-kcp-attrib $-1 $825 $-1 $766 1 #
vertex $-1 $766 $826 #
ellipse-curve $-1 -0.5 -2.5150000000000001 -1.4950000000000001 0 0 -1 0.156 0 0 1 I I #
face $827 $828 $829 $15 $-1 $830 reversed single #
convexity-sys-attrib $-1 $-1 $768 $741 #
point $-1 -1.268 -2.1320000000000001 -1.4950000000000001 #
model_id-kcp-attrib $-1 $-1 $-1 $772 1 990560016 70 1346764801 28 #
face $831 $832 $833 $15 $-1 $834 reversed single #
loop $-1 $-1 $835 $772 #
plane-surface $-1 -0.5 -2.5150000000000001 0.65500000000000003 0 0 -1 -1 0 0 forward_v I I I I #
coedge $-1 $803 $803 $775 $804 reversed $773 $-1 #
edge $836 $837 -3.1415926535897931 $837 3.1415926535897931 $803 $838 forward 7 unknown #
model_id-kcp-attrib $-1 $-1 $-1 $777 1 990560016 70 1346764801 44 #
face $839 $-1 $840 $15 $-1 $841 forward single #
loop $-1 $-1 $842 $777 #
plane-surface $-1 2.7749999999999999 18.010000000000002 -0.65500000000000003 0 1 0 0 0 1 forward_v I I I I #
coedge $-1 $809 $809 $843 $844 forward $778 $-1 #
coedge $-1 $810 $810 $780 $811 forward $845 $-1 #
edge $846 $847 0 $847 6.2831853071795862 $810 $848 forward 7 unknown #
loop $-1 $-1 $781 $849 #
attrib_edge_convexity-kcp-attrib $-1 $850 $-1 $782 1 #
vertex $-1 $782 $851 #
ellipse-curve $-1 1.4239999999999999 -2.1320000000000001 1.4950000000000001 0 0 1 -0.156 0 0 1 I I #
convexity-sys-attrib $-1 $-1 $784 $758 #
point $-1 -0.65600000000000003 -2.5150000000000001 1.4950000000000001 #
coedge $-1 $818 $818 $789 $819 forward $852 $-1 #
edge $853 $854 0 $854 6.2831853071795862 $818 $855 forward 7 unknown #
loop $-1 $-1 $790 $856 #
attrib_edge_convexity-kcp-attrib $-1 $857 $-1 $791 1 #
vertex $-1 $791 $858 #
ellipse-curve $-1 0.5 -2.5150000000000001 -1.4950000000000001 0 0 -1 0.156 0 0 1 I I #
face $859 $860 $861 $15 $-1 $862 reversed single #
convexity-sys-attrib $-1 $-1 $793 $766 #
point $-1 -0.34399999999999997 -2.5150000000000001 -1.4950000000000001 #
model_id-kcp-attrib $-1 $-1 $-1 $796 1 990560016 70 1346764801 35 #
face $863 $824 $864 $15 $-1 $865 reversed single #
loop $-1 $767 $866 $796 #
cone-surface $-1 -1.4239999999999999 -2.1320000000000001 -1.4950000000000001 0 0 1 0.156 0 0 1 I I 0 1 0.156 forward I I I I #
model_id-kcp-attrib $-1 $-1 $-1 $800 1 990560016 70 1346764801 29 #
face $867 $849 $868 $15 $-1 $869 reversed single #
loop $-1 $783 $870 $800 #
cone-surface $-1 -0.5 -2.5150000000000001 1.4950000000000001 0 0 -1 -0.156 0 0 1 I I 0 1 0.156 forward I I I I #
coedge $-1 $835 $835 $870 $871 forward $801 $-1 #
attrib_edge_convexity-kcp-attrib $-1 $872 $-1 $804 2 #
vertex $-1 $804 $873 #
ellipse-curve $-1 0.5 -2.5150000000000001 0.65500000000000003 0 0 1 0.156 0 0 1 I I #
model_id-kcp-attrib $-1 $-1 $-1 $806 1 990560016 70 1346764801 45 #
loop $-1 $874 $875 $806 #
cone-surface $-1 2.75 16.010000000000002 0 0 1 0 0.375 0 0 1 I I 0 1 0.375 forward I I I I #
coedge $-1 $842 $842 $875 $876 reversed $807 $-1 #
coedge $-1 $843 $843 $809 $844 reversed $877 $-1 #
edge $-1 $878 0 $878 6.2831853071795862 $809 $879 forward 7 unknown #
loop $-1 $-1 $810 $880 #
attrib_edge_convexity-kcp-attrib $-1 $881 $-1 $811 1 #
vertex $-1 $811 $882 #
ellipse-curve $-1 -1.4239999999999999 -2.1320000000000001 1.4950000000000001 0 0 1 -0.156 0 0 1 I I #
face $883 $884 $885 $15 $-1 $886 reversed single #
convexity-sys-attrib $-1 $-1 $813 $782 #
point $-1 1.268 -2.1320000000000001 1.4950000000000001 #
loop $-1 $-1 $818 $887 #
attrib_edge_convexity-kcp-attrib $-1 $888 $-1 $819 1 #
vertex $-1 $819 $889 #
ellipse-curve $-1 1.4239999999999999 -2.1320000000000001 -1.4950000000000001 0 0 -1 0.156 0 0 1 I I #
face $890 $891 $892 $15 $-1 $893 reversed single #
convexity-sys-attrib $-1 $-1 $821 $791 #
point $-1 0.65600000000000003 -2.5150000000000001 -1.4950000000000001 #
model_id-kcp-attrib $-1 $-1 $-1 $824 1 990560016 70 1346764801 37 #
face $894 $856 $895 $15 $-1 $896 reversed single #
loop $-1 $792 $897 $824 #
cone-surface $-1 -0.5 -2.5150000000000001 -1.4950000000000001 0 0 1 0.156 0 0 1 I I 0 1 0.156 forward I I I I #
model_id-kcp-attrib $-1 $-1 $-1 $828 1 990560016 70 1346764801 36 #
loop $-1 $-1 $898 $828 #
plane-surface $-1 -0.5 -2.5150000000000001 -0.65500000000000003 0 0 1 1 0 0 forward_v I I I I #
coedge $-1 $866 $866 $899 $900 reversed $829 $-1 #
model_id-kcp-attrib $-1 $-1 $-1 $832 1 990560016 70 1346764801 30 #
loop $-1 $-1 $901 $832 #
plane-surface $-1 1.4239999999999999 -2.1320000000000001 0.65500000000000003 0 0 -1 -1 0 0 forward_v I I I I #
coedge $-1 $870 $870 $835 $871 reversed $833 $-1 #
edge $902 $903 -3.1415926535897931 $903 3.1415926535897931 $870 $904 forward 7 unknown #
convexity-sys-attrib $-1 $-1 $836 $804 #
point $-1 0.34399999999999997 -2.5150000000000001 0.65500000000000003 #
loop $-1 $-1 $905 $806 #
coedge $-1 $875 $875 $842 $876 forward $840 $-1 #
edge $-1 $906 0 $906 6.2831853071795862 $875 $907 forward 7 unknown #
loop $-1 $908 $843 $909 #
vertex $-1 $844 $910 #
ellipse-curve $-1 2 16.010000000000002 0 0 -1 0 -1.25 0 0 1 I I #
face $911 $912 $913 $15 $-1 $914 reversed single #
convexity-sys-attrib $-1 $-1 $846 $811 #
point $-1 -1.5800000000000001 -2.1320000000000001 1.4950000000000001 #
model_id-kcp-attrib $-1 $-1 $-1 $849 1 990560016 70 1346764801 31 #
face $915 $880 $916 $15 $-1 $917 reversed single #
loop $-1 $812 $918 $849 #
cone-surface $-1 1.4239999999999999 -2.1320000000000001 1.4950000000000001 0 0 -1 -0.156 0 0 1 I I 0 1 0.156 forward I I I I #
face $919 $909 $920 $15 $-1 $921 reversed single #
convexity-sys-attrib $-1 $-1 $853 $819 #
point $-1 1.5800000000000001 -2.1320000000000001 -1.4950000000000001 #
model_id-kcp-attrib $-1 $-1 $-1 $856 1 990560016 70 1346764801 39 #
face $922 $887 $923 $15 $-1 $924 reversed single #
loop $-1 $820 $925 $856 #
cone-surface $-1 0.5 -2.5150000000000001 -1.4950000000000001 0 0 1 0.156 0 0 1 I I 0 1 0.156 forward I I I I #
model_id-kcp-attrib $-1 $-1 $-1 $860 1 990560016 70 1346764801 38 #
loop $-1 $-1 $926 $860 #
plane-surface $-1 0.5 -2.5150000000000001 -0.65500000000000003 0 0 1 1 0 0 forward_v I I I I #
coedge $-1 $897 $897 $898 $927 reversed $861 $-1 #
coedge $-1 $898 $898 $897 $927 forward $864 $-1 #
coedge $-1 $899 $899 $866 $900 forward $928 $-1 #
edge $929 $930 -3.1415926535897931 $930 3.1415926535897931 $866 $931 forward 7 unknown #
coedge $-1 $901 $901 $918 $932 forward $868 $-1 #
attrib_edge_convexity-kcp-attrib $-1 $933 $-1 $871 2 #
vertex $-1 $871 $934 #
ellipse-curve $-1 -0.5 -2.5150000000000001 0.65500000000000003 0 0 1 0.156 0 0 1 I I #
coedge $-1 $905 $905 $935 $936 reversed $874 $-1 #
vertex $-1 $876 $937 #
ellipse-curve $-1 2.75 18.010000000000002 0 0 -1 0 0.375 0 0 1 I I #
loop $-1 $-1 $935 $909 #
face $938 $746 $877 $15 $-1 $939 forward single #
point $-1 0.75 16.010000000000002 0 #
model_id-kcp-attrib $-1 $-1 $-1 $880 1 990560016 70 1346764801 33 #
face $940 $796 $928 $15 $-1 $941 reversed single #
loop $-1 $845 $942 $880 #
cone-surface $-1 -1.4239999999999999 -2.1320000000000001 1.4950000000000001 0 0 -1 -0.156 0 0 1 I I 0 1 0.156 forward I I I I #
model_id-kcp-attrib $-1 $-1 $-1 $884 1 990560016 70 1346764801 32 #
loop $-1 $-1 $943 $884 #
plane-surface $-1 -1.4239999999999999 -2.1320000000000001 0.65500000000000003 0 0 -1 -1 0 0 forward_v I I I I #
coedge $-1 $918 $918 $901 $932 reversed $885 $-1 #
model_id-kcp-attrib $-1 $-1 $-1 $887 1 990560016 70 1346764801 41 #
loop $-1 $852 $944 $887 #
cone-surface $-1 1.4239999999999999 -2.1320000000000001 -1.4950000000000001 0 0 1 0.156 0 0 1 I I 0 1 0.156 forward I I I I #
model_id-kcp-attrib $-1 $-1 $-1 $891 1 990560016 70 1346764801 40 #
loop $-1 $-1 $945 $891 #
plane-surface $-1 1.4239999999999999 -2.1320000000000001 -0.65500000000000003 0 0 1 1 0 0 forward_v I I I I #
coedge $-1 $925 $925 $926 $946 reversed $892 $-1 #
coedge $-1 $926 $926 $925 $946 forward $895 $-1 #
edge $947 $948 -3.1415926535897931 $948 3.1415926535897931 $897 $949 forward 7 unknown #
loop $-1 $-1 $899 $912 #
attrib_edge_convexity-kcp-attrib $-1 $950 $-1 $900 2 #
vertex $-1 $900 $951 #
ellipse-curve $-1 -1.4239999999999999 -2.1320000000000001 -0.65500000000000003 0 0 -1 -0.156 0 0 1 I I #
edge $952 $953 -3.1415926535897931 $953 3.1415926535897931 $918 $954 forward 7 unknown #
convexity-sys-attrib $-1 $-1 $902 $871 #
point $-1 -0.65600000000000003 -2.5150000000000001 0.65500000000000003 #
coedge $-1 $935 $935 $905 $936 forward $908 $-1 #
edge $-1 $955 -3.1415926535897931 $955 3.1415926535897931 $905 $956 forward 7 unknown #
point $-1 3.125 18.010000000000002 0 #
model_id-kcp-attrib $-1 $-1 $-1 $909 1 990560016 70 1346764801 42 #
plane-surface $-1 2.7749999999999999 16.010000000000002 -0.65500000000000003 0 1 0 0 0 1 forward_v I I I I #
model_id-kcp-attrib $-1 $-1 $-1 $912 1 990560016 70 1346764801 34 #
plane-surface $-1 -1.4239999999999999 -2.1320000000000001 -0.65500000000000003 0 0 1 1 0 0 forward_v I I I I #
coedge $-1 $942 $942 $943 $957 reversed $913 $-1 #
coedge $-1 $943 $943 $942 $957 forward $916 $-1 #
coedge $-1 $944 $944 $945 $958 reversed $920 $-1 #
coedge $-1 $945 $945 $944 $958 forward $923 $-1 #
edge $959 $960 -3.1415926535897931 $960 3.1415926535897931 $925 $961 forward 7 unknown #
attrib_edge_convexity-kcp-attrib $-1 $962 $-1 $927 2 #
vertex $-1 $927 $963 #
ellipse-curve $-1 -0.5 -2.5150000000000001 -0.65500000000000003 0 0 -1 -0.156 0 0 1 I I #
convexity-sys-attrib $-1 $-1 $929 $900 #
point $-1 -1.268 -2.1320000000000001 -0.65500000000000003 #
attrib_edge_convexity-kcp-attrib $-1 $964 $-1 $932 2 #
vertex $-1 $932 $965 #
ellipse-curve $-1 1.4239999999999999 -2.1320000000000001 0.65500000000000003 0 0 1 0.156 0 0 1 I I #
vertex $-1 $936 $966 #
ellipse-curve $-1 2.75 16.010000000000002 0 0 -1 0 -0.375 0 0 1 I I #
edge $967 $968 -3.1415926535897931 $968 3.1415926535897931 $942 $969 forward 7 unknown #
edge $970 $971 -3.1415926535897931 $971 3.1415926535897931 $944 $972 forward 7 unknown #
attrib_edge_convexity-kcp-attrib $-1 $973 $-1 $946 2 #
vertex $-1 $946 $974 #
ellipse-curve $-1 0.5 -2.5150000000000001 -0.65500000000000003 0 0 -1 -0.156 0 0 1 I I #
convexity-sys-attrib $-1 $-1 $947 $927 #
point $-1 -0.34399999999999997 -2.5150000000000001 -0.65500000000000003 #
convexity-sys-attrib $-1 $-1 $952 $932 #
point $-1 1.268 -2.1320000000000001 0.65500000000000003 #
point $-1 3.125 16.010000000000002 0 #
attrib_edge_convexity-kcp-attrib $-1 $975 $-1 $957 2 #
vertex $-1 $957 $976 #
ellipse-curve $-1 -1.4239999999999999 -2.1320000000000001 0.65500000000000003 0 0 1 0.156 0 0 1 I I #
attrib_edge_convexity-kcp-attrib $-1 $977 $-1 $958 2 #
vertex $-1 $958 $978 #
ellipse-curve $-1 1.4239999999999999 -2.1320000000000001 -0.65500000000000003 0 0 -1 -0.156 0 0 1 I I #
convexity-sys-attrib $-1 $-1 $959 $946 #
point $-1 0.65600000000000003 -2.5150000000000001 -0.65500000000000003 #
convexity-sys-attrib $-1 $-1 $967 $957 #
point $-1 -1.5800000000000001 -2.1320000000000001 0.65500000000000003 #
convexity-sys-attrib $-1 $-1 $970 $958 #
point $-1 1.5800000000000001 -2.1320000000000001 -0.65500000000000003 #
End-of-ACIS-data 