104 468 0 0                             
body $-1 $1 $-1 $2 #
lump $-1 $-1 $3 $0 #
transform $-1 1 0 0 0 1 0 0 0 1 0 0 0 1 0 0 0 #
shell $-1 $-1 $-1 $4 $1 #
face $5 $6 $7 $3 $-1 $8 1 #
face_name-twe-attrib $-1 $-1 $-1 $4 1 #
face $9 $10 $11 $3 $-1 $12 0 #
loop $13 $-1 $14 $4 #
plane-surface $15 0 0 0 0 0 1 1 0 0 0 #
face_name-twe-attrib $-1 $-1 $-1 $6 2 #
face $16 $17 $18 $3 $-1 $19 0 #
loop $20 $-1 $21 $6 #
plane-surface $22 0 0 2 0 0 1 1 0 0 0 #
loop_type-twe-attrib $-1 $-1 $-1 $7 0 #
coedge $-1 $23 $24 $25 $26 0 $7 $-1 #
surf-twe-attrib $-1 $-1 $-1 $8 4 #
face_name-twe-attrib $-1 $-1 $-1 $10 3 #
face $27 $28 $29 $3 $-1 $30 0 #
loop $31 $-1 $32 $10 #
plane-surface $33 3 -2 0 1 0 0 0 0 -1 0 #
loop_type-twe-attrib $-1 $-1 $-1 $11 0 #
coedge $-1 $34 $35 $36 $37 1 $11 $-1 #
surf-twe-attrib $-1 $-1 $-1 $12 6 #
coedge $-1 $38 $14 $39 $40 1 $7 $-1 #
coedge $-1 $14 $41 $42 $43 0 $7 $-1 #
coedge $-1 $44 $45 $14 $26 1 $46 $-1 #
edge $47 $48 $49 $25 $50 0 #
face_name-twe-attrib $-1 $-1 $-1 $17 4 #
face $51 $52 $53 $3 $-1 $54 0 #
loop $55 $56 $57 $17 #
plane-surface $58 3 -1.6875 0 0 1 0 0 0 1 0 #
loop_type-twe-attrib $-1 $-1 $-1 $18 0 #
coedge $-1 $42 $59 $44 $60 0 $18 $-1 #
surf-twe-attrib $-1 $-1 $-1 $19 10 #
coedge $-1 $61 $21 $59 $62 1 $11 $-1 #
coedge $-1 $21 $63 $64 $65 0 $11 $-1 #
coedge $-1 $45 $44 $21 $37 0 $46 $-1 #
edge $66 $67 $68 $36 $69 0 #
coedge $-1 $70 $23 $71 $72 0 $7 $-1 #
coedge $-1 $73 $74 $23 $40 0 $75 $-1 #
edge $76 $77 $49 $39 $78 0 #
coedge $-1 $24 $79 $80 $81 1 $7 $-1 #
coedge $-1 $82 $32 $24 $43 1 $18 $-1 #
edge $83 $84 $48 $42 $85 0 #
coedge $-1 $36 $25 $32 $60 1 $46 $-1 #
coedge $-1 $25 $36 $73 $86 0 $46 $-1 #
loop $87 $-1 $25 $88 #
edge_name-twe-attrib $-1 $-1 $-1 $26 45 8704 #
vertex $-1 $60 $89 #
vertex $-1 $86 $90 #
straight-curve $91 0.125 -1.875 0 -1 0 0 #
face_name-twe-attrib $-1 $-1 $-1 $28 5 #
face $92 $93 $94 $3 $-1 $95 0 #
loop $96 $97 $98 $28 #
plane-surface $99 0.3125 -1.6875 0 1 0 0 0 0 -1 0 #
loop_type-twe-attrib $-1 $-1 $-1 $29 1 #
loop $100 $-1 $101 $17 #
coedge $-1 $102 $103 $104 $105 0 $29 $-1 #
surf-twe-attrib $-1 $-1 $-1 $30 17 #
coedge $-1 $32 $82 $34 $62 0 $18 $-1 #
edge $106 $67 $48 $44 $107 0 #
coedge $-1 $108 $34 $109 $110 0 $11 $-1 #
edge $111 $112 $67 $59 $113 0 #
coedge $-1 $35 $114 $115 $116 1 $11 $-1 #
coedge $-1 $74 $73 $35 $65 1 $75 $-1 #
edge $117 $118 $68 $64 $119 0 #
edge_name-twe-attrib $-1 $-1 $-1 $37 47 8704 #
vertex $-1 $60 $120 #
vertex $-1 $86 $121 #
straight-curve $122 0.125 -1.875 2 -1 0 0 #
coedge $-1 $123 $38 $124 $125 1 $7 $-1 #
coedge $-1 $126 $127 $38 $72 1 $94 $-1 #
edge $128 $77 $129 $71 $130 0 #
coedge $-1 $64 $39 $45 $86 1 $75 $-1 #
coedge $-1 $39 $64 $126 $131 0 $75 $-1 #
loop $132 $-1 $73 $133 #
edge_name-twe-attrib $-1 $-1 $-1 $40 44 8704 #
vertex $-1 $131 $134 #
straight-curve $135 0.125 -1.875 0 0 -1 0 #
coedge $-1 $41 $123 $136 $137 0 $7 $-1 #
coedge $-1 $138 $139 $41 $81 0 $140 $-1 #
edge $141 $84 $142 $80 $143 0 #
coedge $-1 $59 $42 $139 $144 1 $18 $-1 #
edge_name-twe-attrib $-1 $-1 $-1 $43 1 8704 #
vertex $-1 $144 $145 #
straight-curve $146 3 -1.875 0 0 -1 0 #
edge $147 $68 $49 $45 $148 0 #
loop_type-twe-attrib $-1 $-1 $-1 $46 0 #
face $149 $-1 $46 $3 $-1 $150 1 #
point $-1 3 -1.875 0 #
point $-1 0.125 -1.875 0 #
cur-twe-attrib $-1 $-1 $-1 $50 26 #
face_name-twe-attrib $-1 $-1 $-1 $52 6 #
face $151 $152 $153 $3 $-1 $154 1 #
loop $155 $-1 $126 $52 #
plane-surface $156 0.3125 0 0 0 1 0 0 0 1 0 #
loop_type-twe-attrib $-1 $-1 $-1 $53 0 #
loop $157 $-1 $158 $28 #
coedge $-1 $159 $160 $101 $161 1 $53 $-1 #
surf-twe-attrib $-1 $-1 $-1 $54 28 #
loop_type-twe-attrib $-1 $-1 $-1 $56 0 #
coedge $-1 $162 $136 $98 $161 0 $56 $-1 #
coedge $-1 $163 $57 $164 $165 1 $29 $-1 #
coedge $-1 $57 $163 $166 $167 0 $29 $-1 #
coedge $-1 $168 $169 $57 $105 1 $170 $-1 #
edge $171 $172 $173 $104 $174 0 #
edge_name-twe-attrib $-1 $-1 $-1 $60 46 8704 #
straight-curve $175 3 -1.875 0 0 0 -1 #
coedge $-1 $176 $61 $162 $177 1 $11 $-1 #
coedge $-1 $139 $138 $61 $110 1 $140 $-1 #
edge $178 $112 $179 $109 $180 0 #
edge_name-twe-attrib $-1 $-1 $-1 $62 2 8704 #
vertex $-1 $110 $181 #
straight-curve $182 3 -1.875 2 0 -1 0 #
coedge $-1 $63 $176 $183 $184 0 $11 $-1 #
coedge $-1 $127 $126 $63 $116 0 $94 $-1 #
edge $185 $118 $186 $115 $187 0 #
edge_name-twe-attrib $-1 $-1 $-1 $65 42 8704 #
vertex $-1 $131 $188 #
straight-curve $189 0.125 -1.875 2 0 -1 0 #
point $-1 3 -1.875 2 #
point $-1 0.125 -1.875 2 #
cur-twe-attrib $-1 $-1 $-1 $69 37 #
coedge $-1 $79 $70 $159 $190 0 $7 $-1 #
coedge $-1 $191 $192 $70 $125 0 $193 $-1 #
edge $194 $195 $129 $124 $196 0 #
coedge $-1 $115 $71 $74 $131 1 $94 $-1 #
coedge $-1 $71 $115 $191 $197 0 $94 $-1 #
edge_name-twe-attrib $-1 $-1 $-1 $72 9 8704 #
vertex $-1 $125 $198 #
straight-curve $199 0.2625 0 0 1 0 0 #
edge $200 $118 $77 $74 $201 0 #
loop_type-twe-attrib $-1 $-1 $-1 $75 0 #
face $202 $88 $75 $3 $-1 $203 1 #
point $-1 0.125 0 0 #
cur-twe-attrib $-1 $-1 $-1 $78 40 #
coedge $-1 $101 $204 $79 $137 1 $56 $-1 #
edge $205 $206 $142 $136 $207 0 #
coedge $-1 $109 $80 $204 $208 1 $140 $-1 #
coedge $-1 $80 $109 $82 $144 0 $140 $-1 #
loop $209 $-1 $138 $210 #
edge_name-twe-attrib $-1 $-1 $-1 $81 37 8704 #
vertex $-1 $81 $211 #
ellipse-curve $212 2.95 -1.7375 0 0 0 1 0 0.05 0 1 #
edge $213 $112 $84 $139 $214 0 #
point $-1 3 -1.7375 0 #
cur-twe-attrib $-1 $-1 $-1 $85 43 #
edge_name-twe-attrib $-1 $-1 $-1 $86 48 8704 #
straight-curve $215 0.125 -1.875 0 0 0 -1 #
face_name-twe-attrib $-1 $-1 $-1 $88 18 #
plane-surface $216 3 -1.875 0 0 1 0 0 0 1 0 #
face_name-twe-attrib $-1 $-1 $-1 $93 7 #
face $217 $218 $219 $3 $-1 $220 0 #
loop $221 $-1 $222 $93 #
plane-surface $223 0 0 1 0 0 1 1 0 0 0 #
loop_type-twe-attrib $-1 $-1 $-1 $94 0 #
surf-twe-attrib $-1 $-1 $-1 $95 52 #
loop_type-twe-attrib $-1 $-1 $-1 $97 1 #
coedge $-1 $224 $225 $226 $227 1 $97 $-1 #
coedge $-1 $228 $98 $123 $190 1 $53 $-1 #
coedge $-1 $98 $228 $176 $229 0 $53 $-1 #
edge $230 $206 $231 $98 $232 0 #
coedge $-1 $204 $101 $108 $177 0 $56 $-1 #
coedge $-1 $103 $102 $233 $234 1 $29 $-1 #
coedge $-1 $235 $236 $102 $165 0 $237 $-1 #
edge $238 $239 $173 $164 $240 0 #
coedge $-1 $241 $242 $103 $167 1 $243 $-1 #
edge $244 $245 $172 $166 $246 0 #
coedge $-1 $247 $104 $242 $248 0 $170 $-1 #
coedge $-1 $104 $247 $235 $249 1 $170 $-1 #
loop $250 $-1 $104 $251 #
edge_name-twe-attrib $-1 $-1 $-1 $105 26 20480 #
vertex $-1 $105 $252 #
vertex $-1 $105 $253 #
straight-curve $254 2.62547292461455 -1.6875 0.95 1 0 0 #
cur-twe-attrib $-1 $-1 $-1 $107 60 #
coedge $-1 $114 $108 $160 $229 1 $11 $-1 #
edge $255 $231 $179 $162 $256 0 #
edge_name-twe-attrib $-1 $-1 $-1 $110 35 8704 #
vertex $-1 $110 $257 #
ellipse-curve $258 2.95 -1.7375 2 0 0 1 0 0.05 0 1 #
point $-1 3 -1.7375 2 #
cur-twe-attrib $-1 $-1 $-1 $113 62 #
coedge $-1 $192 $191 $114 $184 1 $193 $-1 #
edge $259 $260 $186 $183 $261 0 #
edge_name-twe-attrib $-1 $-1 $-1 $116 8 8704 #
vertex $-1 $184 $262 #
straight-curve $263 0.2625 0 2 1 0 0 #
point $-1 0.125 0 2 #
cur-twe-attrib $-1 $-1 $-1 $119 65 #
edge $264 $195 $206 $159 $265 0 #
coedge $-1 $183 $124 $127 $197 1 $193 $-1 #
coedge $-1 $124 $183 $228 $266 0 $193 $-1 #
loop $267 $-1 $191 $268 #
edge_name-twe-attrib $-1 $-1 $-1 $125 41 8704 #
vertex $-1 $266 $269 #
ellipse-curve $270 0.2625 -0.05 0 0 0 1 0 0.05 0 1 #
edge $271 $186 $129 $191 $272 0 #
point $-1 0.2625 0 0 #
cur-twe-attrib $-1 $-1 $-1 $130 72 #
edge_name-twe-attrib $-1 $-1 $-1 $131 43 8704 #
straight-curve $273 0.125 0 0 0 0 -1 #
face_name-twe-attrib $-1 $-1 $-1 $133 17 #
plane-surface $274 0.125 -1.9375 0 1 0 0 0 0 -1 0 #
coedge $-1 $136 $162 $138 $208 0 $56 $-1 #
edge_name-twe-attrib $-1 $-1 $-1 $137 4 8704 #
vertex $-1 $161 $275 #
straight-curve $276 2.95 -1.6875 0 1 0 0 #
edge $277 $179 $142 $138 $278 0 #
loop_type-twe-attrib $-1 $-1 $-1 $140 0 #
face $279 $268 $140 $3 $-1 $280 0 #
point $-1 2.95 -1.6875 0 #
cur-twe-attrib $-1 $-1 $-1 $143 81 #
edge_name-twe-attrib $-1 $-1 $-1 $144 36 24576 #
straight-curve $281 3 -1.7375 0 0 0 -1 #
cur-twe-attrib $-1 $-1 $-1 $148 86 #
surf-twe-attrib $-1 $-1 $-1 $150 88 #
face_name-twe-attrib $-1 $-1 $-1 $152 8 #
face $282 $283 $237 $3 $-1 $284 0 #
loop $285 $-1 $286 $152 #
plane-surface $287 0 0 1.25 0 0 1 1 0 0 0 #
loop_type-twe-attrib $-1 $-1 $-1 $153 0 #
coedge $-1 $288 $289 $290 $291 1 $153 $-1 #
surf-twe-attrib $-1 $-1 $-1 $154 93 #
coedge $-1 $292 $158 $293 $294 0 $97 $-1 #
coedge $-1 $158 $292 $295 $296 1 $97 $-1 #
coedge $-1 $297 $298 $158 $227 0 $299 $-1 #
edge $300 $301 $302 $226 $303 0 #
coedge $-1 $160 $159 $192 $266 1 $53 $-1 #
edge $304 $260 $231 $160 $305 0 #
edge_name-twe-attrib $-1 $-1 $-1 $161 5 4608 #
vertex $-1 $161 $306 #
straight-curve $307 0.3125 -1.6875 2 0 0 1 #
coedge $-1 $308 $309 $163 $234 0 $310 $-1 #
edge $311 $245 $239 $233 $312 0 #
coedge $-1 $313 $164 $169 $249 0 $237 $-1 #
coedge $-1 $164 $314 $308 $315 1 $237 $-1 #
loop $316 $-1 $164 $218 #
edge_name-twe-attrib $-1 $-1 $-1 $165 10 4352 #
vertex $-1 $234 $317 #
straight-curve $318 2.62547292461455 -1.6875 0.95 0 0 -1 #
coedge $-1 $319 $166 $309 $320 0 $243 $-1 #
coedge $-1 $166 $290 $168 $248 1 $243 $-1 #
loop $321 $-1 $290 $283 #
edge_name-twe-attrib $-1 $-1 $-1 $167 15 5120 #
vertex $-1 $234 $322 #
straight-curve $323 1.00782586579102 -1.6875 0.95 0 0 -1 #
coedge $-1 $169 $168 $289 $324 0 $170 $-1 #
edge $325 $172 $326 $168 $327 0 #
edge $328 $173 $329 $169 $330 0 #
loop_type-twe-attrib $-1 $-1 $-1 $170 0 #
face $331 $332 $170 $3 $-1 $333 1 #
point $-1 1.00782586579102 -1.6875 0.95 #
point $-1 2.62547292461455 -1.6875 0.95 #
cur-twe-attrib $-1 $-1 $-1 $174 105 #
edge_name-twe-attrib $-1 $-1 $-1 $177 3 8704 #
straight-curve $334 2.95 -1.6875 2 1 0 0 #
point $-1 2.95 -1.6875 2 #
cur-twe-attrib $-1 $-1 $-1 $180 110 #
edge_name-twe-attrib $-1 $-1 $-1 $184 39 8704 #
vertex $-1 $184 $335 #
ellipse-curve $336 0.2625 -0.05 2 0 0 1 0 0.05 0 1 #
point $-1 0.2625 0 2 #
cur-twe-attrib $-1 $-1 $-1 $187 116 #
edge_name-twe-attrib $-1 $-1 $-1 $190 6 8704 #
straight-curve $337 0.3125 -1.6875 0 0 -1 0 #
edge $338 $260 $195 $192 $339 0 #
loop_type-twe-attrib $-1 $-1 $-1 $193 0 #
face $340 $133 $193 $3 $-1 $341 0 #
point $-1 0.3125 -0.05 0 #
cur-twe-attrib $-1 $-1 $-1 $196 125 #
edge_name-twe-attrib $-1 $-1 $-1 $197 38 24576 #
straight-curve $342 0.2625 0 0 0 0 -1 #
cur-twe-attrib $-1 $-1 $-1 $201 131 #
surf-twe-attrib $-1 $-1 $-1 $203 133 #
point $-1 0.3125 -1.6875 0 #
cur-twe-attrib $-1 $-1 $-1 $207 137 #
edge_name-twe-attrib $-1 $-1 $-1 $208 34 24576 #
straight-curve $343 2.95 -1.6875 0 0 0 -1 #
face_name-twe-attrib $-1 $-1 $-1 $210 15 #
cone-surface $344 2.95 -1.7375 0 0 0 -1 0 0.05 0 1 0 1 0 #
cur-twe-attrib $-1 $-1 $-1 $214 144 #
face_name-twe-attrib $-1 $-1 $-1 $218 9 #
face $345 $346 $243 $3 $-1 $347 1 #
plane-surface $348 2.62547292461455 -1.6875 1 0.540909090909091 0.841081063496201 0 0 0 -1 0 #
loop_type-twe-attrib $-1 $-1 $-1 $219 0 #
coedge $-1 $349 $350 $319 $351 0 $219 $-1 #
surf-twe-attrib $-1 $-1 $-1 $220 152 #
coedge $-1 $352 $222 $353 $354 1 $153 $-1 #
coedge $-1 $222 $352 $247 $324 1 $153 $-1 #
coedge $-1 $242 $355 $222 $291 0 $243 $-1 #
edge $356 $357 $326 $290 $358 0 #
coedge $-1 $225 $224 $359 $360 0 $97 $-1 #
coedge $-1 $361 $362 $224 $294 1 $237 $-1 #
edge $363 $301 $364 $293 $365 0 #
coedge $-1 $355 $366 $225 $296 0 $243 $-1 #
edge $367 $302 $368 $295 $369 0 #
coedge $-1 $370 $226 $366 $371 0 $299 $-1 #
coedge $-1 $226 $370 $361 $372 1 $299 $-1 #
loop $373 $-1 $226 $374 #
edge_name-twe-attrib $-1 $-1 $-1 $227 22 20480 #
vertex $-1 $227 $375 #
vertex $-1 $227 $376 #
straight-curve $377 0.3125 -1.24032778524677 1.3 0 -1 0 #
edge_name-twe-attrib $-1 $-1 $-1 $229 7 8704 #
straight-curve $378 0.3125 -1.6875 2 0 -1 0 #
point $-1 0.3125 -1.6875 2 #
cur-twe-attrib $-1 $-1 $-1 $232 161 #
coedge $-1 $379 $233 $236 $315 0 $310 $-1 #
coedge $-1 $233 $379 $241 $320 1 $310 $-1 #
loop $380 $-1 $233 $346 #
edge_name-twe-attrib $-1 $-1 $-1 $234 18 20480 #
straight-curve $381 2.62547292461455 -1.6875 1.3 1 0 0 #
coedge $-1 $362 $235 $352 $382 1 $237 $-1 #
coedge $-1 $236 $361 $383 $384 0 $237 $-1 #
edge $385 $239 $386 $308 $387 0 #
loop_type-twe-attrib $-1 $-1 $-1 $237 0 #
point $-1 2.62547292461455 -1.6875 1.3 #
cur-twe-attrib $-1 $-1 $-1 $240 165 #
coedge $-1 $366 $241 $286 $351 1 $243 $-1 #
edge $388 $245 $389 $309 $390 0 #
loop_type-twe-attrib $-1 $-1 $-1 $243 0 #
point $-1 1.00782586579102 -1.6875 1.3 #
cur-twe-attrib $-1 $-1 $-1 $246 167 #
edge $391 $326 $329 $247 $392 0 #
edge_name-twe-attrib $-1 $-1 $-1 $248 27 9216 #
vertex $-1 $324 $393 #
intcurve-curve $394 0 { exactcur nubs 3 open 9 
	0 3 0.00975276775184962 1 0.0202467598223428 1 0.032028783406709 1 0.0453838303757822 1 
	0.060092354898289 1 0.0762690062255151 1 0.0942261683853392 1 0.114186866035214 3 
	1.00782586579102 -1.6875 0.95 
	1.00782586579102 -1.6875 0.95325092258395 
	1.00675585159538 -1.6868118613283 0.960047823988114 
	1.00222952525003 -1.68390092779896 0.969442901097536 
	0.995125241962617 -1.67933207994192 0.977941353100019 
	0.985765675658953 -1.67331283314117 0.985320613969778 
	0.974431300312956 -1.66602356349701 0.991432439488448 
	0.961286844772145 -1.65757021006218 0.996144390367962 
	0.946317366711903 -1.64794316325258 0.999266399456561 
	0.935675064997511 -1.64109897427323 1 
	0.93007887672835 -1.6375 1 
	0 
	null_surface 
	null_surface 
	nullbs 
	nullbs 
	} #
edge_name-twe-attrib $-1 $-1 $-1 $249 29 8448 #
vertex $-1 $324 $395 #
intcurve-curve $396 0 { exactcur nubs 3 open 9 
	0 3 0.00975276775184952 1 0.020246759822343 1 0.0320287834067087 1 0.0453838303757826 1 
	0.0600923548982885 1 0.0762690062255148 1 0.0942261683853389 1 0.114186866035215 3 
	2.62547292461455 -1.6875 0.95 
	2.62547292461455 -1.6875 0.95325092258395 
	2.62440291041891 -1.6868118613283 0.960047823988114 
	2.61987658407356 -1.68390092779896 0.969442901097535 
	2.61277230078615 -1.67933207994192 0.97794135310002 
	2.60341273448248 -1.67331283314117 0.985320613969777 
	2.59207835913649 -1.66602356349701 0.991432439488449 
	2.57893390359567 -1.65757021006218 0.996144390367962 
	2.56396442553543 -1.64794316325257 0.999266399456561 
	2.55332212382104 -1.64109897427324 1 
	2.54772593555188 -1.6375 1 
	0 
	null_surface 
	null_surface 
	nullbs 
	nullbs 
	} #
face_name-twe-attrib $-1 $-1 $-1 $251 13 #
face $397 $210 $398 $3 $-1 $399 1 #
cone-surface $400 2.62547292461455 -1.6375 0.95 -1 0 0 0 -0.05 0 1 0 1 0 #
cur-twe-attrib $-1 $-1 $-1 $256 177 #
point $-1 0.3125 -0.05 2 #
cur-twe-attrib $-1 $-1 $-1 $261 184 #
cur-twe-attrib $-1 $-1 $-1 $265 190 #
edge_name-twe-attrib $-1 $-1 $-1 $266 40 24576 #
straight-curve $401 0.3125 -0.05 0 0 0 -1 #
face_name-twe-attrib $-1 $-1 $-1 $268 16 #
cone-surface $402 0.2625 -0.05 0 0 0 -1 0 0.05 0 1 0 1 0 #
cur-twe-attrib $-1 $-1 $-1 $272 197 #
cur-twe-attrib $-1 $-1 $-1 $278 208 #
surf-twe-attrib $-1 $-1 $-1 $280 210 #
face_name-twe-attrib $-1 $-1 $-1 $283 10 #
face $403 $374 $310 $3 $-1 $404 1 #
plane-surface $405 1.00782586579102 -1.6875 0 0.540909090909091 0.841081063496201 0 0 0 -1 0 #
surf-twe-attrib $-1 $-1 $-1 $284 218 #
coedge $-1 $383 $286 $379 $406 0 $219 $-1 #
coedge $-1 $286 $383 $370 $407 0 $219 $-1 #
edge $408 $409 $389 $319 $410 0 #
coedge $-1 $289 $288 $313 $382 0 $153 $-1 #
coedge $-1 $411 $412 $288 $354 0 $398 $-1 #
edge $413 $414 $357 $353 $415 0 #
coedge $-1 $290 $295 $411 $416 0 $243 $-1 #
edge_name-twe-attrib $-1 $-1 $-1 $291 14 8704 #
vertex $-1 $354 $417 #
straight-curve $418 0.93007887672835 -1.6375 1 0.841081063496201 -0.540909090909091 0 #
coedge $-1 $412 $411 $292 $360 1 $398 $-1 #
edge $419 $364 $368 $359 $420 0 #
coedge $-1 $314 $293 $298 $372 0 $237 $-1 #
coedge $-1 $293 $313 $412 $421 1 $237 $-1 #
edge_name-twe-attrib $-1 $-1 $-1 $294 12 4352 #
vertex $-1 $360 $422 #
straight-curve $423 0.3125 -0.2 0.95 0 0 -1 #
coedge $-1 $295 $319 $297 $371 1 $243 $-1 #
edge_name-twe-attrib $-1 $-1 $-1 $296 17 5120 #
vertex $-1 $360 $424 #
straight-curve $425 0.3125 -1.24032778524677 0.95 0 0 -1 #
coedge $-1 $298 $297 $350 $407 1 $299 $-1 #
edge $426 $302 $409 $297 $427 0 #
edge $428 $301 $429 $298 $430 0 #
loop_type-twe-attrib $-1 $-1 $-1 $299 0 #
face $431 $251 $299 $3 $-1 $432 1 #
point $-1 0.3125 -0.2 1.3 #
point $-1 0.3125 -1.24032778524677 1.3 #
cur-twe-attrib $-1 $-1 $-1 $303 227 #
cur-twe-attrib $-1 $-1 $-1 $305 229 #
coedge $-1 $309 $308 $349 $406 1 $310 $-1 #
loop_type-twe-attrib $-1 $-1 $-1 $310 0 #
cur-twe-attrib $-1 $-1 $-1 $312 234 #
edge $433 $414 $329 $313 $434 0 #
coedge $-1 $350 $349 $314 $384 1 $219 $-1 #
edge $435 $429 $386 $314 $436 0 #
edge_name-twe-attrib $-1 $-1 $-1 $315 19 8448 #
vertex $-1 $406 $437 #
intcurve-curve $438 0 { exactcur nubs 3 open 9 
	0 3 0.00975276775184976 1 0.0202467598223428 1 0.0320287834067078 1 0.0453838303757823 1 
	0.0600923548982892 1 0.0762690062255154 1 0.0942261683853386 1 0.114186866035214 3 
	2.62547292461455 -1.6875 1.3 
	2.62547292461455 -1.6875 1.29674907741605 
	2.62440291041891 -1.6868118613283 1.28995217601189 
	2.61987658407356 -1.68390092779896 1.28055709890246 
	2.61277230078615 -1.67933207994192 1.27205864689998 
	2.60341273448248 -1.67331283314117 1.26467938603022 
	2.59207835913648 -1.66602356349701 1.25856756051155 
	2.57893390359567 -1.65757021006218 1.25385560963204 
	2.56396442553543 -1.64794316325257 1.25073360054344 
	2.55332212382104 -1.64109897427324 1.25 
	2.54772593555188 -1.6375 1.25 
	0 
	null_surface 
	null_surface 
	nullbs 
	nullbs 
	} #
edge_name-twe-attrib $-1 $-1 $-1 $320 21 9216 #
vertex $-1 $406 $439 #
intcurve-curve $440 0 { exactcur nubs 3 open 9 
	0 3 0.00975276775184973 1 0.0202467598223428 1 0.0320287834067078 1 0.0453838303757822 1 
	0.060092354898289 1 0.0762690062255143 1 0.0942261683853392 1 0.114186866035214 3 
	1.00782586579102 -1.6875 1.3 
	1.00782586579102 -1.6875 1.29674907741605 
	1.00675585159538 -1.6868118613283 1.28995217601189 
	1.00222952525003 -1.68390092779896 1.28055709890246 
	0.995125241962617 -1.67933207994192 1.27205864689998 
	0.985765675658953 -1.67331283314117 1.26467938603022 
	0.974431300312956 -1.66602356349701 1.25856756051155 
	0.961286844772146 -1.65757021006218 1.25385560963204 
	0.946317366711903 -1.64794316325258 1.25073360054344 
	0.935675064997511 -1.64109897427323 1.25 
	0.93007887672835 -1.6375 1.25 
	0 
	null_surface 
	null_surface 
	nullbs 
	nullbs 
	} #
edge_name-twe-attrib $-1 $-1 $-1 $324 28 20480 #
straight-curve $441 2.54772593555188 -1.6375 1 1 0 0 #
point $-1 0.93007887672835 -1.6375 1 #
cur-twe-attrib $-1 $-1 $-1 $327 248 #
point $-1 2.54772593555188 -1.6375 1 #
cur-twe-attrib $-1 $-1 $-1 $330 249 #
face_name-twe-attrib $-1 $-1 $-1 $332 14 #
loop $442 $-1 $359 $332 #
cone-surface $443 0.3625 -1.27248337133621 0.95 0 1 0 -0.05 0 0 1 0 1 0 #
surf-twe-attrib $-1 $-1 $-1 $333 251 #
cur-twe-attrib $-1 $-1 $-1 $339 266 #
surf-twe-attrib $-1 $-1 $-1 $341 268 #
face_name-twe-attrib $-1 $-1 $-1 $346 11 #
cone-surface $444 2.62547292461455 -1.6375 1.3 1 0 0 0 -0.05 0 1 0 1 0 #
surf-twe-attrib $-1 $-1 $-1 $347 283 #
edge $445 $389 $386 $379 $446 0 #
edge $447 $429 $409 $370 $448 0 #
edge_name-twe-attrib $-1 $-1 $-1 $351 16 8704 #
vertex $-1 $407 $449 #
straight-curve $450 0.93007887672835 -1.6375 1.25 0.841081063496201 -0.540909090909091 0 #
coedge $-1 $359 $353 $355 $416 1 $398 $-1 #
coedge $-1 $353 $359 $362 $421 0 $398 $-1 #
edge_name-twe-attrib $-1 $-1 $-1 $354 32 20480 #
vertex $-1 $354 $451 #
straight-curve $452 0.3625 -1.27248337133621 1 0 -1 0 #
edge $453 $368 $357 $411 $454 0 #
point $-1 0.3625 -1.27248337133621 1 #
cur-twe-attrib $-1 $-1 $-1 $358 291 #
edge_name-twe-attrib $-1 $-1 $-1 $360 30 20480 #
straight-curve $455 0.3125 -1.24032778524677 0.95 0 -1 0 #
edge $456 $364 $414 $412 $457 0 #
point $-1 0.3125 -0.2 0.95 #
cur-twe-attrib $-1 $-1 $-1 $365 294 #
point $-1 0.3125 -1.24032778524677 0.95 #
cur-twe-attrib $-1 $-1 $-1 $369 296 #
edge_name-twe-attrib $-1 $-1 $-1 $371 23 9216 #
intcurve-curve $458 0 { exactcur nubs 3 open 7 
	0 3 0.0115217729101888 1 0.0239005395038312 1 0.0374969471220968 1 0.0524274461627147 1 
	0.0686404933346132 1 0.0858765990578134 3 
	0.3125 -1.24032778524677 1.3 
	0.3125 -1.24032778524677 1.29615940902994 
	0.313434377460298 -1.24092869434406 1.28815233325106 
	0.317731843071316 -1.24369244485249 1.27657738212268 
	0.32511753508054 -1.24844226995715 1.2659278741443 
	0.335459014079467 -1.25509299632199 1.25719677500222 
	0.348246833573296 -1.26331699293459 1.25136463575951 
	0.357667679289266 -1.2693756492437 1.25 
	0.3625 -1.27248337133621 1.25 
	0 
	null_surface 
	null_surface 
	nullbs 
	nullbs 
	} #
edge_name-twe-attrib $-1 $-1 $-1 $372 25 8448 #
vertex $-1 $407 $459 #
intcurve-curve $460 0 { exactcur nubs 3 open 7 
	0 3 0.0115217729101899 1 0.0239005395038326 1 0.037496947122097 1 0.0524274461627138 1 
	0.0686404933346123 1 0.0858765990578138 3 
	0.3125 -0.2 1.3 
	0.3125 -0.2 1.29615940902994 
	0.313434377460297 -0.200600909097292 1.28815233325106 
	0.317731843071318 -0.203364659605724 1.27657738212268 
	0.32511753508054 -0.208114484710379 1.2659278741443 
	0.335459014079467 -0.214765211075222 1.25719677500222 
	0.348246833573295 -0.222989207687824 1.25136463575951 
	0.357667679289266 -0.229047863996929 1.25 
	0.3625 -0.232155586089446 1.25 
	0 
	null_surface 
	null_surface 
	nullbs 
	nullbs 
	} #
face_name-twe-attrib $-1 $-1 $-1 $374 12 #
cone-surface $461 0.3625 -1.27248337133621 1.3 0 -1 0 -0.05 0 0 1 0 1 0 #
edge_name-twe-attrib $-1 $-1 $-1 $382 11 8704 #
straight-curve $462 2.54772593555188 -1.6375 1 0.841081063496201 -0.540909090909091 0 #
edge_name-twe-attrib $-1 $-1 $-1 $384 13 8704 #
straight-curve $463 2.54772593555188 -1.6375 1.25 0.841081063496201 -0.540909090909091 0 #
point $-1 2.54772593555188 -1.6375 1.25 #
cur-twe-attrib $-1 $-1 $-1 $387 315 #
point $-1 0.93007887672835 -1.6375 1.25 #
cur-twe-attrib $-1 $-1 $-1 $390 320 #
cur-twe-attrib $-1 $-1 $-1 $392 324 #
loop_type-twe-attrib $-1 $-1 $-1 $398 0 #
surf-twe-attrib $-1 $-1 $-1 $399 332 #
surf-twe-attrib $-1 $-1 $-1 $404 346 #
edge_name-twe-attrib $-1 $-1 $-1 $406 20 20480 #
straight-curve $464 2.54772593555188 -1.6375 1.25 1 0 0 #
edge_name-twe-attrib $-1 $-1 $-1 $407 24 20480 #
straight-curve $465 0.3625 -1.27248337133621 1.25 0 -1 0 #
point $-1 0.3625 -1.27248337133621 1.25 #
cur-twe-attrib $-1 $-1 $-1 $410 351 #
point $-1 0.3625 -0.232155586089446 1 #
cur-twe-attrib $-1 $-1 $-1 $415 354 #
edge_name-twe-attrib $-1 $-1 $-1 $416 33 9216 #
intcurve-curve $466 0 { exactcur nubs 3 open 7 
	0 3 0.0115217729101899 1 0.0239005395038324 1 0.0374969471220969 1 0.0524274461627148 1 
	0.0686404933346133 1 0.0858765990578135 3 
	0.3125 -1.24032778524677 0.95 
	0.3125 -1.24032778524677 0.953840590970063 
	0.313434377460298 -1.24092869434406 0.961847666748938 
	0.317731843071316 -1.24369244485249 0.973422617877325 
	0.32511753508054 -1.24844226995715 0.984072125855695 
	0.335459014079468 -1.25509299632199 0.992803224997777 
	0.348246833573296 -1.26331699293459 0.998635364240494 
	0.357667679289266 -1.2693756492437 1 
	0.3625 -1.27248337133621 1 
	0 
	null_surface 
	null_surface 
	nullbs 
	nullbs 
	} #
cur-twe-attrib $-1 $-1 $-1 $420 360 #
edge_name-twe-attrib $-1 $-1 $-1 $421 31 8448 #
intcurve-curve $467 0 { exactcur nubs 3 open 7 
	0 3 0.0115217729101899 1 0.0239005395038336 1 0.0374969471220985 1 0.0524274461627147 1 
	0.0686404933346124 1 0.0858765990578139 3 
	0.3125 -0.2 0.95 
	0.3125 -0.2 0.953840590970063 
	0.313434377460298 -0.200600909097292 0.961847666748939 
	0.317731843071317 -0.203364659605723 0.973422617877326 
	0.325117535080541 -0.208114484710379 0.984072125855696 
	0.335459014079468 -0.214765211075222 0.992803224997777 
	0.348246833573295 -0.222989207687824 0.998635364240495 
	0.357667679289266 -0.229047863996929 1 
	0.3625 -0.232155586089446 1 
	0 
	null_surface 
	null_surface 
	nullbs 
	nullbs 
	} #
cur-twe-attrib $-1 $-1 $-1 $427 371 #
point $-1 0.3625 -0.232155586089446 1.25 #
cur-twe-attrib $-1 $-1 $-1 $430 372 #
surf-twe-attrib $-1 $-1 $-1 $432 374 #
cur-twe-attrib $-1 $-1 $-1 $434 382 #
cur-twe-attrib $-1 $-1 $-1 $436 384 #
cur-twe-attrib $-1 $-1 $-1 $446 406 #
cur-twe-attrib $-1 $-1 $-1 $448 407 #
cur-twe-attrib $-1 $-1 $-1 $454 416 #
cur-twe-attrib $-1 $-1 $-1 $457 421 #
