600 0 1 0           
105 GICL ACIS Healer - Source: /gicl/data5/repository/ICEM-CDC/Fixture_Models/GABracket1/GABracket1.sat - 6 0 18 ACIS 6.0.3 Solaris 24 Sat Apr 13 23:07:17 2002 
1 9.999999999999999547e-07 1.000000000000000036e-10 
body $-1 $1 $-1 $2 #
lump $-1 $-1 $3 $0 #
transform $-1 1 0 0 0 1 0 0 0 1 0 0 0 1 no_rotate no_reflect no_shear #
shell $-1 $-1 $-1 $4 $-1 $1 #
face $5 $6 $7 $3 $-1 $8 reversed single #
face_name-twe-attrib $-1 $-1 $-1 $4 1 #
face $9 $10 $11 $3 $-1 $12 forward single #
loop $13 $-1 $14 $4 #
plane-surface $15 0 0 0 0 0 1 1 0 0 forward_v I I I I #
face_name-twe-attrib $-1 $-1 $-1 $6 2 #
face $16 $17 $18 $3 $-1 $19 forward single #
loop $20 $-1 $21 $6 #
plane-surface $22 0 0 2 0 0 1 1 0 0 forward_v I I I I #
loop_type-twe-attrib $-1 $-1 $-1 $7 0 #
coedge $-1 $23 $24 $25 $26 forward $7 $-1 #
surf-twe-attrib $-1 $-1 $-1 $8 4 #
face_name-twe-attrib $-1 $-1 $-1 $10 3 #
face $27 $28 $29 $3 $-1 $30 forward single #
loop $31 $-1 $32 $10 #
plane-surface $33 3 -2 0 1 0 0 0 0 -1 forward_v I I I I #
loop_type-twe-attrib $-1 $-1 $-1 $11 0 #
coedge $-1 $34 $35 $36 $37 reversed $11 $-1 #
surf-twe-attrib $-1 $-1 $-1 $12 6 #
coedge $-1 $38 $14 $39 $40 reversed $7 $-1 #
coedge $-1 $14 $41 $42 $43 forward $7 $-1 #
coedge $-1 $44 $45 $14 $26 reversed $46 $-1 #
edge $47 $48 -1.5 $49 1.375 $25 $50 reversed 7 unknown #
face_name-twe-attrib $-1 $-1 $-1 $17 4 #
face $51 $52 $53 $3 $-1 $54 forward single #
loop $55 $56 $57 $17 #
plane-surface $58 3 -1.6875 0 0 1 0 0 0 1 forward_v I I I I #
loop_type-twe-attrib $-1 $-1 $-1 $18 0 #
coedge $-1 $42 $59 $44 $60 forward $18 $-1 #
surf-twe-attrib $-1 $-1 $-1 $19 10 #
coedge $-1 $61 $21 $59 $62 reversed $11 $-1 #
coedge $-1 $21 $63 $64 $65 forward $11 $-1 #
coedge $-1 $45 $44 $21 $37 forward $46 $-1 #
edge $66 $67 -1.5 $68 1.375 $36 $69 reversed 7 unknown #
coedge $-1 $70 $23 $71 $72 forward $7 $-1 #
coedge $-1 $73 $74 $23 $40 forward $75 $-1 #
edge $76 $77 -0.96875 $49 0.90625 $39 $78 forward 7 unknown #
coedge $-1 $24 $79 $80 $81 reversed $7 $-1 #
coedge $-1 $82 $32 $24 $43 reversed $18 $-1 #
edge $83 $84 0.7375000000000000444 $48 0.875 $42 $85 forward 7 unknown #
coedge $-1 $36 $25 $32 $60 reversed $46 $-1 #
coedge $-1 $25 $36 $73 $86 forward $46 $-1 #
loop $87 $-1 $25 $88 #
edge_name-twe-attrib $-1 $-1 $-1 $26 45 8704 #
vertex $-1 $60 $89 #
vertex $-1 $86 $90 #
straight-curve $-1 1.5 -1.875 0 1 0 0 I I #
face_name-twe-attrib $-1 $-1 $-1 $28 5 #
face $91 $92 $93 $3 $-1 $94 forward single #
loop $95 $96 $97 $28 #
plane-surface $98 0.3125 -1.6875 0 1 0 0 0 0 -1 forward_v I I I I #
loop_type-twe-attrib $-1 $-1 $-1 $29 1 #
loop $99 $-1 $100 $17 #
coedge $-1 $101 $102 $103 $104 forward $29 $-1 #
surf-twe-attrib $-1 $-1 $-1 $30 17 #
coedge $-1 $32 $82 $34 $62 forward $18 $-1 #
edge $105 $67 -2 $48 0 $44 $106 forward 7 unknown #
coedge $-1 $107 $34 $108 $109 forward $11 $-1 #
edge $110 $111 0.7375000000000000444 $67 0.875 $59 $112 forward 7 unknown #
coedge $-1 $35 $113 $114 $115 reversed $11 $-1 #
coedge $-1 $74 $73 $35 $65 reversed $75 $-1 #
edge $116 $117 -0.96875 $68 0.90625 $64 $118 forward 7 unknown #
edge_name-twe-attrib $-1 $-1 $-1 $37 47 8704 #
vertex $-1 $60 $119 #
vertex $-1 $86 $120 #
straight-curve $-1 1.5 -1.875 2 1 0 0 I I #
coedge $-1 $121 $38 $122 $123 reversed $7 $-1 #
coedge $-1 $124 $125 $38 $72 reversed $93 $-1 #
edge $126 $77 -0.03125 $127 0.1062500000000000111 $71 $128 forward 7 unknown #
coedge $-1 $64 $39 $45 $86 reversed $75 $-1 #
coedge $-1 $39 $64 $124 $129 forward $75 $-1 #
loop $130 $-1 $73 $131 #
edge_name-twe-attrib $-1 $-1 $-1 $40 44 8704 #
vertex $-1 $129 $132 #
straight-curve $-1 0.125 -0.96875 0 0 -1 0 I I #
coedge $-1 $41 $121 $133 $134 forward $7 $-1 #
coedge $-1 $135 $136 $41 $81 forward $137 $-1 #
edge $138 $84 -1.570796326794896558 $139 -0 $80 $140 reversed 7 unknown #
coedge $-1 $59 $42 $136 $141 reversed $18 $-1 #
edge_name-twe-attrib $-1 $-1 $-1 $43 1 8704 #
vertex $-1 $141 $142 #
straight-curve $-1 3 -1 0 0 -1 0 I I #
edge $143 $68 -2 $49 0 $45 $144 forward 7 unknown #
loop_type-twe-attrib $-1 $-1 $-1 $46 0 #
face $145 $-1 $46 $3 $-1 $146 reversed single #
point $-1 3 -1.875 0 #
point $-1 0.125 -1.875 0 #
face_name-twe-attrib $-1 $-1 $-1 $52 6 #
face $147 $148 $149 $3 $-1 $150 reversed single #
loop $151 $-1 $124 $52 #
plane-surface $152 0.3125 0 0 0 1 0 0 0 1 forward_v I I I I #
loop_type-twe-attrib $-1 $-1 $-1 $53 0 #
loop $153 $-1 $154 $28 #
coedge $-1 $155 $156 $100 $157 reversed $53 $-1 #
surf-twe-attrib $-1 $-1 $-1 $54 28 #
loop_type-twe-attrib $-1 $-1 $-1 $56 0 #
coedge $-1 $158 $133 $97 $157 forward $56 $-1 #
coedge $-1 $159 $57 $160 $161 reversed $29 $-1 #
coedge $-1 $57 $159 $162 $163 forward $29 $-1 #
coedge $-1 $164 $165 $57 $104 reversed $166 $-1 #
edge $167 $168 -1.617647058823530548 $169 -8.881784197001252323e-16 $103 $170 reversed 7 unknown #
edge_name-twe-attrib $-1 $-1 $-1 $60 46 8704 #
straight-curve $-1 3 -1.875 0 0 0 -1 I I #
coedge $-1 $171 $61 $158 $172 reversed $11 $-1 #
coedge $-1 $136 $135 $61 $109 reversed $137 $-1 #
edge $173 $111 -1.570796326794896558 $174 -0 $108 $175 reversed 7 unknown #
edge_name-twe-attrib $-1 $-1 $-1 $62 2 8704 #
vertex $-1 $109 $176 #
straight-curve $-1 3 -1 2 0 -1 0 I I #
coedge $-1 $63 $171 $177 $178 forward $11 $-1 #
coedge $-1 $125 $124 $63 $115 forward $93 $-1 #
edge $179 $117 -0.03125 $180 0.1062500000000000111 $114 $181 forward 7 unknown #
edge_name-twe-attrib $-1 $-1 $-1 $65 42 8704 #
vertex $-1 $129 $182 #
straight-curve $-1 0.125 -0.96875 2 0 -1 0 I I #
point $-1 3 -1.875 2 #
point $-1 0.125 -1.875 2 #
coedge $-1 $79 $70 $155 $183 forward $7 $-1 #
coedge $-1 $184 $185 $70 $123 forward $186 $-1 #
edge $187 $188 -1.570796326794896558 $127 -0 $122 $189 reversed 7 unknown #
coedge $-1 $114 $71 $74 $129 reversed $93 $-1 #
coedge $-1 $71 $114 $184 $190 forward $93 $-1 #
edge_name-twe-attrib $-1 $-1 $-1 $72 9 8704 #
vertex $-1 $123 $191 #
straight-curve $-1 0.15625 0 0 1 0 0 I I #
edge $192 $117 -2 $77 -0 $74 $193 reversed 7 unknown #
loop_type-twe-attrib $-1 $-1 $-1 $75 0 #
face $194 $88 $75 $3 $-1 $195 reversed single #
point $-1 0.125 0 0 #
coedge $-1 $100 $196 $79 $134 reversed $56 $-1 #
edge $197 $198 -1.1875 $139 1.450000000000000178 $133 $199 forward 7 unknown #
coedge $-1 $108 $80 $196 $200 reversed $137 $-1 #
coedge $-1 $80 $108 $82 $141 forward $137 $-1 #
loop $201 $-1 $135 $202 #
edge_name-twe-attrib $-1 $-1 $-1 $81 37 8704 #
vertex $-1 $81 $203 #
ellipse-curve $-1 2.950000000000000178 -1.737500000000000044 0 -0 -0 -1 0 0.05000000000000000278 0 1 I I #
edge $204 $111 -2 $84 0 $136 $205 forward 7 unknown #
point $-1 3 -1.737500000000000044 0 #
edge_name-twe-attrib $-1 $-1 $-1 $86 48 8704 #
straight-curve $-1 0.125 -1.875 0 0 0 -1 I I #
face_name-twe-attrib $-1 $-1 $-1 $88 18 #
plane-surface $206 3 -1.875 0 0 1 0 0 0 1 forward_v I I I I #
face_name-twe-attrib $-1 $-1 $-1 $92 7 #
face $207 $208 $209 $3 $-1 $210 forward single #
loop $211 $-1 $212 $92 #
plane-surface $213 0 0 1 0 0 1 1 0 0 forward_v I I I I #
loop_type-twe-attrib $-1 $-1 $-1 $93 0 #
surf-twe-attrib $-1 $-1 $-1 $94 52 #
loop_type-twe-attrib $-1 $-1 $-1 $96 1 #
coedge $-1 $214 $215 $216 $217 reversed $96 $-1 #
coedge $-1 $218 $97 $121 $183 reversed $53 $-1 #
coedge $-1 $97 $218 $171 $219 forward $53 $-1 #
edge $220 $198 0 $221 2 $97 $222 forward 7 unknown #
coedge $-1 $196 $100 $107 $172 forward $56 $-1 #
coedge $-1 $102 $101 $223 $224 reversed $29 $-1 #
coedge $-1 $225 $226 $101 $161 forward $227 $-1 #
edge $228 $229 -0.8000000000000000444 $169 -0.4499999999999999556 $160 $230 reversed 7 unknown #
coedge $-1 $231 $232 $102 $163 reversed $233 $-1 #
edge $234 $235 -1.300000000000000044 $168 -0.9499999999999999556 $162 $236 reversed 7 unknown #
coedge $-1 $237 $103 $232 $238 forward $166 $-1 #
coedge $-1 $103 $237 $225 $239 reversed $166 $-1 #
loop $240 $-1 $103 $241 #
edge_name-twe-attrib $-1 $-1 $-1 $104 26 20480 #
vertex $-1 $104 $242 #
vertex $-1 $104 $243 #
straight-curve $-1 2.625472924614550507 -1.6875 0.9499999999999999556 -1 0 0 I I #
coedge $-1 $113 $107 $156 $219 reversed $11 $-1 #
edge $244 $221 -1.1875 $174 1.450000000000000178 $158 $245 forward 7 unknown #
edge_name-twe-attrib $-1 $-1 $-1 $109 35 8704 #
vertex $-1 $109 $246 #
ellipse-curve $-1 2.950000000000000178 -1.737500000000000044 2 -0 -0 -1 0 0.05000000000000000278 0 1 I I #
point $-1 3 -1.737500000000000044 2 #
coedge $-1 $185 $184 $113 $178 reversed $186 $-1 #
edge $247 $248 -1.570796326794896558 $180 -0 $177 $249 reversed 7 unknown #
edge_name-twe-attrib $-1 $-1 $-1 $115 8 8704 #
vertex $-1 $178 $250 #
straight-curve $-1 0.15625 0 2 1 0 0 I I #
point $-1 0.125 0 2 #
edge $251 $188 -0.7937499999999999556 $198 0.84375 $155 $252 forward 7 unknown #
coedge $-1 $177 $122 $125 $190 reversed $186 $-1 #
coedge $-1 $122 $177 $218 $253 forward $186 $-1 #
loop $254 $-1 $184 $255 #
edge_name-twe-attrib $-1 $-1 $-1 $123 41 8704 #
vertex $-1 $253 $256 #
ellipse-curve $-1 0.2625000000000000111 -0.05000000000000000278 0 -0 -0 -1 0 0.05000000000000000278 0 1 I I #
edge $257 $180 -2 $127 0 $184 $258 forward 7 unknown #
point $-1 0.2625000000000000111 0 0 #
edge_name-twe-attrib $-1 $-1 $-1 $129 43 8704 #
straight-curve $-1 0.125 0 0 0 0 1 I I #
face_name-twe-attrib $-1 $-1 $-1 $131 17 #
plane-surface $259 0.125 -1.9375 0 1 0 0 0 0 -1 forward_v I I I I #
coedge $-1 $133 $158 $135 $200 forward $56 $-1 #
edge_name-twe-attrib $-1 $-1 $-1 $134 4 8704 #
vertex $-1 $157 $260 #
straight-curve $-1 1.5 -1.6875 0 1 0 0 I I #
edge $261 $174 -2 $139 0 $135 $262 forward 7 unknown #
loop_type-twe-attrib $-1 $-1 $-1 $137 0 #
face $263 $255 $137 $3 $-1 $264 forward single #
point $-1 2.950000000000000178 -1.6875 0 #
edge_name-twe-attrib $-1 $-1 $-1 $141 36 24576 #
straight-curve $-1 3 -1.737500000000000044 0 0 0 -1 I I #
surf-twe-attrib $-1 $-1 $-1 $146 88 #
face_name-twe-attrib $-1 $-1 $-1 $148 8 #
face $265 $266 $227 $3 $-1 $267 forward single #
loop $268 $-1 $269 $148 #
plane-surface $270 0 0 1.25 0 0 1 1 0 0 forward_v I I I I #
loop_type-twe-attrib $-1 $-1 $-1 $149 0 #
coedge $-1 $271 $272 $273 $274 reversed $149 $-1 #
surf-twe-attrib $-1 $-1 $-1 $150 93 #
coedge $-1 $275 $154 $276 $277 forward $96 $-1 #
coedge $-1 $154 $275 $278 $279 reversed $96 $-1 #
coedge $-1 $280 $281 $154 $217 forward $282 $-1 #
edge $283 $284 -1.072483371336208746 $285 -0.03215558608943869245 $216 $286 forward 7 unknown #
coedge $-1 $156 $155 $185 $253 reversed $53 $-1 #
edge $287 $248 -0.7937499999999999556 $221 0.84375 $156 $288 forward 7 unknown #
edge_name-twe-attrib $-1 $-1 $-1 $157 5 4608 #
vertex $-1 $157 $289 #
straight-curve $-1 0.3125 -1.6875 0 0 0 1 I I #
coedge $-1 $290 $291 $159 $224 forward $292 $-1 #
edge $293 $235 -1.617647058823530548 $229 -8.881784197001252323e-16 $223 $294 forward 7 unknown #
coedge $-1 $295 $160 $165 $239 forward $227 $-1 #
coedge $-1 $160 $296 $290 $297 reversed $227 $-1 #
loop $298 $-1 $160 $208 #
edge_name-twe-attrib $-1 $-1 $-1 $161 10 4352 #
vertex $-1 $224 $299 #
straight-curve $-1 2.625472924614550063 -1.6875 0.5 0 0 1 I I #
coedge $-1 $300 $162 $291 $301 forward $233 $-1 #
coedge $-1 $162 $273 $164 $238 reversed $233 $-1 #
loop $302 $-1 $273 $266 #
edge_name-twe-attrib $-1 $-1 $-1 $163 15 5120 #
vertex $-1 $224 $303 #
straight-curve $-1 1.007825865791019515 -1.6875 0 0 0 1 I I #
coedge $-1 $165 $164 $272 $304 forward $166 $-1 #
edge $305 $168 0 $306 1.570796326794896558 $164 $307 forward 7 unknown #
edge $308 $169 0 $309 1.570796326794896558 $165 $310 forward 7 unknown #
loop_type-twe-attrib $-1 $-1 $-1 $166 0 #
face $311 $312 $166 $3 $-1 $313 reversed single #
point $-1 1.007825865791019959 -1.6875 0.9499999999999999556 #
point $-1 2.625472924614549619 -1.6875 0.9499999999999999556 #
edge_name-twe-attrib $-1 $-1 $-1 $172 3 8704 #
straight-curve $-1 1.5 -1.6875 2 1 0 0 I I #
point $-1 2.950000000000000178 -1.6875 2 #
edge_name-twe-attrib $-1 $-1 $-1 $178 39 8704 #
vertex $-1 $178 $314 #
ellipse-curve $-1 0.2625000000000000111 -0.05000000000000000278 2 -0 -0 -1 0 0.05000000000000000278 0 1 I I #
point $-1 0.2625000000000000111 0 2 #
edge_name-twe-attrib $-1 $-1 $-1 $183 6 8704 #
straight-curve $-1 0.3125 -0.84375 0 0 -1 0 I I #
edge $315 $248 -2 $188 0 $185 $316 forward 7 unknown #
loop_type-twe-attrib $-1 $-1 $-1 $186 0 #
face $317 $131 $186 $3 $-1 $318 forward single #
point $-1 0.3125 -0.05000000000000000278 0 #
edge_name-twe-attrib $-1 $-1 $-1 $190 38 24576 #
straight-curve $-1 0.2625000000000000111 0 0 0 0 -1 I I #
surf-twe-attrib $-1 $-1 $-1 $195 133 #
point $-1 0.3125 -1.6875 0 #
edge_name-twe-attrib $-1 $-1 $-1 $200 34 24576 #
straight-curve $-1 2.950000000000000178 -1.6875 0 0 0 -1 I I #
face_name-twe-attrib $-1 $-1 $-1 $202 15 #
cone-surface $319 2.950000000000000178 -1.737500000000000044 0 0 0 -1 0 0.05000000000000000278 0 1 I I 0 1 0.05000000000000000278 forward I I I I #
face_name-twe-attrib $-1 $-1 $-1 $208 9 #
face $320 $321 $233 $3 $-1 $322 reversed single #
plane-surface $323 2.625472924614550063 -1.6875 1 0.540909090909091117 0.8410810634962011534 0 0 0 -1 forward_v I I I I #
loop_type-twe-attrib $-1 $-1 $-1 $209 0 #
coedge $-1 $324 $325 $300 $326 forward $209 $-1 #
surf-twe-attrib $-1 $-1 $-1 $210 152 #
coedge $-1 $327 $212 $328 $329 reversed $149 $-1 #
coedge $-1 $212 $327 $237 $304 reversed $149 $-1 #
coedge $-1 $232 $330 $212 $274 forward $233 $-1 #
edge $331 $332 0.1129660381399903435 $306 0.7877866961738749785 $273 $333 forward 7 unknown #
coedge $-1 $215 $214 $334 $335 forward $96 $-1 #
coedge $-1 $336 $337 $214 $277 reversed $227 $-1 #
edge $338 $284 -0.8000000000000000444 $339 -0.4499999999999999556 $276 $340 forward 7 unknown #
coedge $-1 $330 $341 $215 $279 forward $233 $-1 #
edge $342 $285 -1.300000000000000044 $343 -0.9499999999999999556 $278 $344 forward 7 unknown #
coedge $-1 $345 $216 $341 $346 forward $282 $-1 #
coedge $-1 $216 $345 $336 $347 reversed $282 $-1 #
loop $348 $-1 $216 $349 #
edge_name-twe-attrib $-1 $-1 $-1 $217 22 20480 #
vertex $-1 $217 $350 #
vertex $-1 $217 $351 #
straight-curve $-1 0.3125 -1.272483371336210034 1.300000000000000044 0 -1 0 I I #
edge_name-twe-attrib $-1 $-1 $-1 $219 7 8704 #
straight-curve $-1 0.3125 -0.84375 2 0 -1 0 I I #
point $-1 0.3125 -1.6875 2 #
coedge $-1 $352 $223 $226 $297 forward $292 $-1 #
coedge $-1 $223 $352 $231 $301 reversed $292 $-1 #
loop $353 $-1 $223 $321 #
edge_name-twe-attrib $-1 $-1 $-1 $224 18 20480 #
straight-curve $-1 2.625472924614550507 -1.6875 1.300000000000000044 1 0 0 I I #
coedge $-1 $337 $225 $327 $354 reversed $227 $-1 #
coedge $-1 $226 $336 $355 $356 forward $227 $-1 #
edge $357 $229 -0 $358 1.570796326794896558 $290 $359 reversed 7 unknown #
loop_type-twe-attrib $-1 $-1 $-1 $227 0 #
point $-1 2.625472924614549619 -1.6875 1.300000000000000044 #
coedge $-1 $341 $231 $269 $326 reversed $233 $-1 #
edge $360 $235 -0 $361 1.570796326794896558 $291 $362 reversed 7 unknown #
loop_type-twe-attrib $-1 $-1 $-1 $233 0 #
point $-1 1.007825865791019959 -1.6875 1.300000000000000044 #
edge $363 $306 -1.695394047886204181 $309 -0.07774698906267429876 $237 $364 reversed 7 unknown #
edge_name-twe-attrib $-1 $-1 $-1 $238 27 9216 #
vertex $-1 $304 $365 #
ellipse-curve $-1 0.9300788767283458824 -1.637499999999999956 0.9499999999999999556 -0.540909090909091117 -0.8410810634962011534 -0 0.07774698906267403509 -0.05000000000000000278 0 0.540909090909091117 I I #
edge_name-twe-attrib $-1 $-1 $-1 $239 29 8448 #
vertex $-1 $304 $366 #
ellipse-curve $-1 2.547725935551875764 -1.637499999999999956 0.9499999999999999556 -0.540909090909091117 -0.8410810634962011534 -0 0.07774698906267403509 -0.05000000000000000278 0 0.540909090909091117 I I #
face_name-twe-attrib $-1 $-1 $-1 $241 13 #
face $367 $202 $368 $3 $-1 $369 reversed single #
cone-surface $370 2.625472924614550063 -1.637499999999999956 0.9499999999999999556 -1 0 0 0 -0.05000000000000000278 0 1 I I 0 1 0.05000000000000000278 forward I I I I #
point $-1 0.3125 -0.05000000000000000278 2 #
edge_name-twe-attrib $-1 $-1 $-1 $253 40 24576 #
straight-curve $-1 0.3125 -0.05000000000000000278 0 0 0 -1 I I #
face_name-twe-attrib $-1 $-1 $-1 $255 16 #
cone-surface $371 0.2625000000000000111 -0.05000000000000000278 0 0 0 -1 0 0.05000000000000000278 0 1 I I 0 1 0.05000000000000000278 forward I I I I #
surf-twe-attrib $-1 $-1 $-1 $264 210 #
face_name-twe-attrib $-1 $-1 $-1 $266 10 #
face $372 $349 $292 $3 $-1 $373 reversed single #
plane-surface $374 1.007825865791019959 -1.6875 0 0.540909090909091117 0.8410810634962011534 0 0 0 -1 forward_v I I I I #
surf-twe-attrib $-1 $-1 $-1 $267 218 #
coedge $-1 $355 $269 $352 $375 forward $209 $-1 #
coedge $-1 $269 $355 $345 $376 forward $209 $-1 #
edge $377 $378 0.1129660381399903435 $361 0.7877866961738749785 $300 $379 forward 7 unknown #
coedge $-1 $272 $271 $295 $354 forward $149 $-1 #
coedge $-1 $380 $381 $271 $329 forward $368 $-1 #
edge $382 $383 -1.04032778524676317 $332 6.883382752675970551e-15 $328 $384 reversed 7 unknown #
coedge $-1 $273 $278 $380 $385 forward $233 $-1 #
edge_name-twe-attrib $-1 $-1 $-1 $274 14 8704 #
vertex $-1 $329 $386 #
straight-curve $-1 0.2674864045022644632 -1.211379014342313098 1 0.8410810634962011534 -0.540909090909091117 0 I I #
coedge $-1 $381 $380 $275 $335 reversed $368 $-1 #
edge $387 $339 -1.072483371336208746 $343 -0.03215558608943869245 $334 $388 reversed 7 unknown #
coedge $-1 $296 $276 $281 $347 forward $227 $-1 #
coedge $-1 $276 $295 $381 $389 reversed $227 $-1 #
edge_name-twe-attrib $-1 $-1 $-1 $277 12 4352 #
vertex $-1 $335 $390 #
straight-curve $-1 0.3125 -0.2000000000000012879 0.5 0 0 -1 I I #
coedge $-1 $278 $300 $280 $346 reversed $233 $-1 #
edge_name-twe-attrib $-1 $-1 $-1 $279 17 5120 #
vertex $-1 $335 $391 #
straight-curve $-1 0.3125 -1.240327785246771342 0 0 0 -1 I I #
coedge $-1 $281 $280 $325 $376 reversed $282 $-1 #
edge $392 $285 0 $378 1.570796326794896558 $280 $393 forward 7 unknown #
edge $394 $284 0 $395 1.570796326794896558 $281 $396 forward 7 unknown #
loop_type-twe-attrib $-1 $-1 $-1 $282 0 #
face $397 $241 $282 $3 $-1 $398 reversed single #
point $-1 0.3125 -0.2000000000000012601 1.300000000000000044 #
point $-1 0.3125 -1.240327785246771342 1.300000000000000044 #
coedge $-1 $291 $290 $324 $375 reversed $292 $-1 #
loop_type-twe-attrib $-1 $-1 $-1 $292 0 #
edge $399 $383 -1.130042872723706404 $309 1.468072850472273094 $295 $400 forward 7 unknown #
coedge $-1 $325 $324 $296 $356 reversed $209 $-1 #
edge $401 $395 -1.130042872723706404 $358 1.468072850472273094 $296 $402 forward 7 unknown #
edge_name-twe-attrib $-1 $-1 $-1 $297 19 8448 #
vertex $-1 $375 $403 #
ellipse-curve $-1 2.547725935551875764 -1.637499999999999956 1.300000000000000044 -0.540909090909091117 -0.8410810634962011534 -0 0.07774698906267403509 -0.05000000000000000278 0 0.540909090909091117 I I #
edge_name-twe-attrib $-1 $-1 $-1 $301 21 9216 #
vertex $-1 $375 $404 #
ellipse-curve $-1 0.9300788767283458824 -1.637499999999999956 1.300000000000000044 -0.540909090909091117 -0.8410810634962011534 -0 0.07774698906267403509 -0.05000000000000000278 0 0.540909090909091117 I I #
edge_name-twe-attrib $-1 $-1 $-1 $304 28 20480 #
straight-curve $-1 2.625472924614550063 -1.637499999999999956 1 -1 0 0 I I #
point $-1 0.9300788767283458824 -1.637499999999999956 1 #
point $-1 2.547725935551875764 -1.637499999999999956 1 #
face_name-twe-attrib $-1 $-1 $-1 $312 14 #
loop $405 $-1 $334 $312 #
cone-surface $406 0.3624999999999999889 -1.272483371336210034 0.9499999999999999556 0 1 0 -0.05000000000000000278 0 0 1 I I 0 1 0.05000000000000000278 forward I I I I #
surf-twe-attrib $-1 $-1 $-1 $313 251 #
surf-twe-attrib $-1 $-1 $-1 $318 268 #
face_name-twe-attrib $-1 $-1 $-1 $321 11 #
cone-surface $407 2.625472924614550063 -1.637499999999999956 1.300000000000000044 1 0 0 0 -0.05000000000000000278 0 1 I I 0 1 0.05000000000000000278 forward I I I I #
surf-twe-attrib $-1 $-1 $-1 $322 283 #
edge $408 $361 -1.695394047886204181 $358 -0.07774698906267429876 $352 $409 forward 7 unknown #
edge $410 $395 -1.04032778524676317 $378 6.883382752675970551e-15 $345 $411 forward 7 unknown #
edge_name-twe-attrib $-1 $-1 $-1 $326 16 8704 #
vertex $-1 $376 $412 #
straight-curve $-1 0.2674864045022644632 -1.211379014342313098 1.25 0.8410810634962011534 -0.540909090909091117 0 I I #
coedge $-1 $334 $328 $330 $385 reversed $368 $-1 #
coedge $-1 $328 $334 $337 $389 forward $368 $-1 #
edge_name-twe-attrib $-1 $-1 $-1 $329 32 20480 #
vertex $-1 $329 $413 #
straight-curve $-1 0.3624999999999999889 -1.272483371336210034 1 0 1 0 I I #
edge $414 $343 -0 $332 1.570796326794896558 $380 $415 reversed 7 unknown #
point $-1 0.3624999999999999889 -1.272483371336216917 1 #
edge_name-twe-attrib $-1 $-1 $-1 $335 30 20480 #
straight-curve $-1 0.3125 -1.272483371336210034 0.9499999999999999556 0 1 0 I I #
edge $416 $339 -0 $383 1.570796326794896558 $381 $417 reversed 7 unknown #
point $-1 0.3125 -0.2000000000000012601 0.9499999999999999556 #
point $-1 0.3125 -1.240327785246771342 0.9499999999999999556 #
edge_name-twe-attrib $-1 $-1 $-1 $346 23 9216 #
ellipse-curve $-1 0.3624999999999999889 -1.272483371336216917 1.300000000000000044 -0.540909090909091117 -0.8410810634962011534 -0 -0.05000000000000000278 0.03215558608944559665 0 0.8410810634962010424 I I #
edge_name-twe-attrib $-1 $-1 $-1 $347 25 8448 #
vertex $-1 $376 $418 #
ellipse-curve $-1 0.3624999999999999889 -0.2321555860894468637 1.300000000000000044 -0.540909090909091117 -0.8410810634962011534 -0 -0.05000000000000000278 0.03215558608944559665 0 0.8410810634962010424 I I #
face_name-twe-attrib $-1 $-1 $-1 $349 12 #
cone-surface $419 0.3624999999999999889 -1.272483371336210034 1.300000000000000044 0 -1 0 -0.05000000000000000278 0 0 1 I I 0 1 0.05000000000000000278 forward I I I I #
edge_name-twe-attrib $-1 $-1 $-1 $354 11 8704 #
straight-curve $-1 1.312957661186757052 -0.8434060490627246498 1 0.8410810634962011534 -0.540909090909091117 0 I I #
edge_name-twe-attrib $-1 $-1 $-1 $356 13 8704 #
straight-curve $-1 1.312957661186757052 -0.8434060490627246498 1.25 0.8410810634962011534 -0.540909090909091117 0 I I #
point $-1 2.547725935551875764 -1.637499999999999956 1.25 #
point $-1 0.9300788767283458824 -1.637499999999999956 1.25 #
loop_type-twe-attrib $-1 $-1 $-1 $368 0 #
surf-twe-attrib $-1 $-1 $-1 $369 332 #
surf-twe-attrib $-1 $-1 $-1 $373 346 #
edge_name-twe-attrib $-1 $-1 $-1 $375 20 20480 #
straight-curve $-1 2.625472924614550063 -1.637499999999999956 1.25 1 0 0 I I #
edge_name-twe-attrib $-1 $-1 $-1 $376 24 20480 #
straight-curve $-1 0.3624999999999999889 -1.272483371336210034 1.25 0 -1 0 I I #
point $-1 0.3624999999999999889 -1.272483371336216917 1.25 #
point $-1 0.3624999999999999889 -0.2321555860894468637 1 #
edge_name-twe-attrib $-1 $-1 $-1 $385 33 9216 #
ellipse-curve $-1 0.3624999999999999889 -1.272483371336216917 0.9499999999999999556 -0.540909090909091117 -0.8410810634962011534 -0 -0.05000000000000000278 0.03215558608944559665 0 0.8410810634962010424 I I #
edge_name-twe-attrib $-1 $-1 $-1 $389 31 8448 #
ellipse-curve $-1 0.3624999999999999889 -0.2321555860894468637 0.9499999999999999556 -0.540909090909091117 -0.8410810634962011534 -0 -0.05000000000000000278 0.03215558608944559665 0 0.8410810634962010424 I I #
point $-1 0.3624999999999999889 -0.2321555860894468637 1.25 #
surf-twe-attrib $-1 $-1 $-1 $398 374 #
End-of-ACIS-data 