600 0 2 0           
24 FBMach with ACIS - 6.0.3 13 ACIS 6.0.3 NT 24 Wed May 23 21:58:44 2001 
1 9.9999999999999995e-007 1e-010 
body $2 $3 $-1 $4 #
bdycol-kcp $-1 1 1 $5 #
model_id-kcp-attrib $-1 $-1 $-1 $0 1 990669522 110 -982646783 1 #
lump $-1 $-1 $6 $0 #
transform $-1 1 0 0 0 1 0 0 0 1 0 0 0 1 no_rotate no_reflect no_shear #
body $7 $8 $-1 $9 #
shell $-1 $-1 $-1 $10 $-1 $3 #
model_id-kcp-attrib $-1 $-1 $-1 $5 1 990669522 130 -981336062 1 #
lump $-1 $-1 $11 $5 #
transform $-1 1 0 0 0 1 0 0 0 1 1.5625 -0.9375 1 1 no_rotate no_reflect no_shear #
face $12 $13 $14 $6 $-1 $15 reversed single #
shell $-1 $-1 $-1 $16 $-1 $8 #
model_id-kcp-attrib $-1 $17 $-1 $10 1 990669522 110 -982646783 2 #
face $18 $19 $20 $6 $-1 $21 forward single #
loop $22 $-1 $23 $10 #
plane-surface $24 0 0 0 0 0 1 1 0 0 forward_v I I I I #
face $25 $26 $27 $11 $-1 $28 forward single #
face_name-twe-attrib $-1 $-1 $12 $10 1 #
model_id-kcp-attrib $-1 $29 $-1 $13 1 990669522 110 -982646783 3 #
face $30 $31 $32 $6 $-1 $33 forward single #
loop $34 $-1 $35 $13 #
plane-surface $36 0 0 2 0 0 1 1 0 0 forward_v I I I I #
loop_type-twe-attrib $-1 $-1 $-1 $14 0 #
coedge $-1 $37 $38 $39 $40 forward $14 $-1 #
surf-twe-attrib $-1 $-1 $-1 $15 4 #
model_id-kcp-attrib $-1 $-1 $-1 $16 1 990669522 130 -981336062 3 #
face $41 $42 $43 $11 $-1 $44 reversed single #
loop $-1 $-1 $45 $16 #
plane-surface $-1 0 0 1 0 0 1 1 0 0 forward_v I I I I #
face_name-twe-attrib $-1 $-1 $18 $13 2 #
model_id-kcp-attrib $-1 $46 $-1 $19 1 990669522 110 -982646783 4 #
face $47 $48 $49 $6 $-1 $50 forward single #
loop $51 $-1 $52 $19 #
plane-surface $53 3 -2 0 1 0 0 0 0 -1 forward_v I I I I #
loop_type-twe-attrib $-1 $-1 $-1 $20 0 #
coedge $-1 $54 $55 $56 $57 reversed $20 $-1 #
surf-twe-attrib $-1 $-1 $-1 $21 6 #
coedge $-1 $58 $23 $59 $60 reversed $14 $-1 #
coedge $-1 $23 $61 $62 $63 forward $14 $-1 #
coedge $-1 $64 $65 $23 $40 reversed $66 $-1 #
edge $67 $68 -2.875 $69 0 $39 $70 forward 7 unknown #
model_id-kcp-attrib $-1 $-1 $-1 $26 1 990669522 130 -981336062 2 #
face $71 $72 $73 $11 $-1 $74 reversed single #
loop $-1 $-1 $75 $26 #
plane-surface $-1 0 0 -1 0 0 1 1 0 0 forward_v I I I I #
coedge $-1 $76 $77 $78 $79 forward $27 $-1 #
face_name-twe-attrib $-1 $-1 $30 $19 3 #
model_id-kcp-attrib $-1 $80 $-1 $31 1 990669522 110 -982646783 5 #
face $81 $82 $83 $6 $-1 $84 forward single #
loop $85 $86 $87 $31 #
plane-surface $88 3 -1.6875 0 0 1 0 0 0 1 forward_v I I I I #
loop_type-twe-attrib $-1 $-1 $-1 $32 0 #
coedge $-1 $62 $89 $64 $90 forward $32 $-1 #
surf-twe-attrib $-1 $-1 $-1 $33 10 #
coedge $-1 $91 $35 $89 $92 reversed $20 $-1 #
coedge $-1 $35 $93 $94 $95 forward $20 $-1 #
coedge $-1 $65 $64 $35 $57 forward $66 $-1 #
edge $96 $97 -2.875 $98 0 $56 $99 forward 7 unknown #
coedge $-1 $100 $37 $101 $102 forward $14 $-1 #
coedge $-1 $103 $104 $37 $60 forward $105 $-1 #
edge $106 $107 -1.875 $69 0 $59 $108 forward 7 unknown #
coedge $-1 $38 $109 $110 $111 reversed $14 $-1 #
coedge $-1 $112 $52 $38 $63 reversed $32 $-1 #
edge $113 $114 -0.13749999999999996 $68 0 $62 $115 forward 7 unknown #
coedge $-1 $56 $39 $52 $90 reversed $66 $-1 #
coedge $-1 $39 $56 $103 $116 forward $66 $-1 #
loop $117 $-1 $39 $118 #
attrib_edge_convexity-kcp-attrib $-1 $119 $-1 $40 1 #
vertex $-1 $90 $120 #
vertex $-1 $116 $121 #
straight-curve $122 0.125 -1.875 0 -1 0 0 I I #
model_id-kcp-attrib $-1 $-1 $-1 $42 1 990669522 130 -981336062 7 #
face $123 $124 $125 $11 $-1 $126 reversed single #
loop $-1 $-1 $127 $42 #
plane-surface $-1 0 -0.9375 0 0 1 0 0 0 1 forward_v I I I I #
coedge $-1 $128 $129 $130 $131 forward $43 $-1 #
coedge $-1 $132 $45 $133 $134 forward $27 $-1 #
coedge $-1 $45 $132 $135 $136 forward $27 $-1 #
coedge $-1 $137 $138 $45 $79 reversed $139 $-1 #
edge $-1 $140 -0.9375 $141 0.9375 $78 $142 forward 7 unknown #
face_name-twe-attrib $-1 $-1 $47 $31 4 #
model_id-kcp-attrib $-1 $143 $-1 $48 1 990669522 110 -982646783 6 #
face $144 $145 $146 $6 $-1 $147 forward single #
loop $148 $149 $150 $48 #
plane-surface $151 0.3125 -1.6875 0 1 0 0 0 0 -1 forward_v I I I I #
loop_type-twe-attrib $-1 $-1 $-1 $49 1 #
loop $152 $-1 $153 $31 #
coedge $-1 $154 $155 $156 $157 forward $49 $-1 #
surf-twe-attrib $-1 $-1 $-1 $50 17 #
coedge $-1 $52 $112 $54 $92 forward $32 $-1 #
edge $158 $97 -2 $68 0 $64 $159 forward 7 unknown #
coedge $-1 $160 $54 $161 $162 forward $20 $-1 #
edge $163 $164 -0.13749999999999996 $97 0 $89 $165 forward 7 unknown #
coedge $-1 $55 $166 $167 $168 reversed $20 $-1 #
coedge $-1 $104 $103 $55 $95 reversed $105 $-1 #
edge $169 $170 -1.875 $98 0 $94 $171 forward 7 unknown #
edge_name-twe-attrib $-1 $-1 $-1 $57 47 8704 #
vertex $-1 $90 $172 #
vertex $-1 $116 $173 #
straight-curve $174 0.125 -1.875 2 -1 0 0 I I #
coedge $-1 $175 $58 $176 $177 reversed $14 $-1 #
coedge $-1 $178 $179 $58 $102 reversed $146 $-1 #
edge $180 $107 -0.13750000000000001 $181 0 $101 $182 forward 7 unknown #
coedge $-1 $94 $59 $65 $116 reversed $105 $-1 #
coedge $-1 $59 $94 $178 $183 forward $105 $-1 #
loop $184 $-1 $103 $185 #
attrib_edge_convexity-kcp-attrib $-1 $186 $-1 $60 1 #
vertex $-1 $183 $187 #
straight-curve $188 0.125 -1.875 0 0 -1 0 I I #
coedge $-1 $61 $175 $189 $190 forward $14 $-1 #
coedge $-1 $191 $192 $61 $111 forward $193 $-1 #
edge $194 $114 -1.5707963267948966 $195 0 $110 $196 forward 7 unknown #
coedge $-1 $89 $62 $192 $197 reversed $32 $-1 #
attrib_edge_convexity-kcp-attrib $-1 $198 $-1 $63 1 #
vertex $-1 $197 $199 #
straight-curve $200 3 -1.875 0 0 -1 0 I I #
edge $201 $98 -2 $69 0 $65 $202 forward 7 unknown #
loop_type-twe-attrib $-1 $-1 $-1 $66 0 #
face $203 $-1 $66 $6 $-1 $204 reversed single #
convexity-sys-attrib $-1 $205 $67 $40 #
point $-1 3 -1.875 0 #
point $-1 0.125 -1.875 0 #
cur-twe-attrib $-1 $-1 $-1 $70 26 #
model_id-kcp-attrib $-1 $-1 $-1 $72 1 990669522 130 -981336062 6 #
face $206 $207 $208 $11 $-1 $209 reversed single #
loop $-1 $-1 $210 $72 #
plane-surface $-1 -1.4375 0 0 1 0 0 0 0 -1 forward_v I I I I #
coedge $-1 $211 $135 $212 $213 forward $73 $-1 #
coedge $-1 $214 $75 $211 $215 forward $43 $-1 #
coedge $-1 $75 $214 $216 $217 forward $43 $-1 #
coedge $-1 $138 $137 $75 $131 reversed $139 $-1 #
edge $-1 $218 -0.9375 $219 0.9375 $130 $220 forward 7 unknown #
coedge $-1 $77 $76 $221 $222 forward $27 $-1 #
coedge $-1 $223 $224 $76 $134 reversed $208 $-1 #
edge $-1 $141 -1.4375 $225 1.4375 $133 $226 forward 7 unknown #
coedge $-1 $127 $227 $77 $136 reversed $73 $-1 #
edge $-1 $228 -1.4375 $140 1.4375 $135 $229 forward 7 unknown #
coedge $-1 $130 $78 $227 $230 forward $139 $-1 #
coedge $-1 $78 $130 $223 $231 reversed $139 $-1 #
loop $-1 $-1 $137 $207 #
vertex $-1 $79 $232 #
vertex $-1 $79 $233 #
straight-curve $-1 1.4375 0 1 0 1 0 I I #
face_name-twe-attrib $-1 $-1 $81 $48 5 #
model_id-kcp-attrib $-1 $234 $-1 $82 1 990669522 110 -982646783 7 #
face $235 $236 $237 $6 $-1 $238 reversed single #
loop $239 $-1 $178 $82 #
plane-surface $240 0.3125 0 0 0 1 0 0 0 1 forward_v I I I I #
loop_type-twe-attrib $-1 $-1 $-1 $83 0 #
loop $241 $-1 $242 $48 #
coedge $-1 $243 $244 $153 $245 reversed $83 $-1 #
surf-twe-attrib $-1 $-1 $-1 $84 28 #
loop_type-twe-attrib $-1 $-1 $-1 $86 0 #
coedge $-1 $246 $189 $150 $245 forward $86 $-1 #
coedge $-1 $247 $87 $248 $249 reversed $49 $-1 #
coedge $-1 $87 $247 $250 $251 forward $49 $-1 #
coedge $-1 $252 $253 $87 $157 reversed $254 $-1 #
edge $255 $256 -1.6176470588235301 $257 0 $156 $258 forward 7 unknown #
attrib_edge_convexity-kcp-attrib $-1 $259 $-1 $90 1 #
straight-curve $260 3 -1.875 0 0 0 -1 I I #
coedge $-1 $261 $91 $246 $262 reversed $20 $-1 #
coedge $-1 $192 $191 $91 $162 reversed $193 $-1 #
edge $263 $164 -1.5707963267948966 $264 0 $161 $265 forward 7 unknown #
attrib_edge_convexity-kcp-attrib $-1 $266 $-1 $92 1 #
vertex $-1 $162 $267 #
straight-curve $268 3 -1.875 2 0 -1 0 I I #
coedge $-1 $93 $261 $269 $270 forward $20 $-1 #
coedge $-1 $179 $178 $93 $168 forward $146 $-1 #
edge $271 $170 -0.13750000000000001 $272 0 $167 $273 forward 7 unknown #
edge_name-twe-attrib $-1 $-1 $-1 $95 42 8704 #
vertex $-1 $183 $274 #
straight-curve $275 0.125 -1.875 2 0 -1 0 I I #
point $-1 3 -1.875 2 #
point $-1 0.125 -1.875 2 #
cur-twe-attrib $-1 $-1 $-1 $99 37 #
coedge $-1 $109 $100 $243 $276 forward $14 $-1 #
coedge $-1 $277 $278 $100 $177 forward $279 $-1 #
edge $280 $281 -1.5707963267948966 $181 0 $176 $282 forward 7 unknown #
coedge $-1 $167 $101 $104 $183 reversed $146 $-1 #
coedge $-1 $101 $167 $277 $283 forward $146 $-1 #
attrib_edge_convexity-kcp-attrib $-1 $284 $-1 $102 1 #
vertex $-1 $177 $285 #
straight-curve $286 0.26250000000000001 0 0 1 0 0 I I #
edge $287 $170 -2 $107 0 $104 $288 forward 7 unknown #
loop_type-twe-attrib $-1 $-1 $-1 $105 0 #
face $289 $118 $105 $6 $-1 $290 reversed single #
convexity-sys-attrib $-1 $291 $106 $60 #
point $-1 0.125 0 0 #
cur-twe-attrib $-1 $-1 $-1 $108 40 #
coedge $-1 $153 $292 $109 $190 reversed $86 $-1 #
edge $293 $294 -2.6375000000000002 $195 0 $189 $295 forward 7 unknown #
coedge $-1 $161 $110 $292 $296 reversed $193 $-1 #
coedge $-1 $110 $161 $112 $197 forward $193 $-1 #
loop $297 $-1 $191 $298 #
attrib_edge_convexity-kcp-attrib $-1 $299 $-1 $111 1 #
vertex $-1 $111 $300 #
ellipse-curve $301 2.9500000000000002 -1.7375 0 0 0 1 0 0.050000000000000003 0 1 I I #
edge $302 $164 -2 $114 0 $192 $303 forward 7 unknown #
convexity-sys-attrib $-1 $304 $113 $63 #
point $-1 3 -1.7375 0 #
cur-twe-attrib $-1 $-1 $-1 $115 43 #
edge_name-twe-attrib $-1 $-1 $-1 $116 48 8704 #
straight-curve $305 0.125 -1.875 0 0 0 -1 I I #
model_id-kcp-attrib $-1 $306 $-1 $118 1 990669522 110 -982646783 19 #
plane-surface $307 3 -1.875 0 0 1 0 0 0 1 forward_v I I I I #
edge_name-twe-attrib $-1 $-1 $119 $40 45 8704 #
model_id-kcp-attrib $-1 $-1 $-1 $124 1 990669522 130 -981336062 5 #
face $308 $-1 $139 $11 $-1 $309 reversed single #
loop $-1 $-1 $223 $124 #
plane-surface $-1 0 0.9375 0 0 -1 0 0 0 -1 forward_v I I I I #
coedge $-1 $310 $221 $224 $311 forward $125 $-1 #
coedge $-1 $227 $127 $128 $215 reversed $73 $-1 #
coedge $-1 $221 $310 $127 $213 reversed $125 $-1 #
edge $-1 $228 -1 $312 1 $212 $313 forward 7 unknown #
coedge $-1 $129 $128 $310 $314 forward $43 $-1 #
edge $-1 $219 -1.4375 $312 1.4375 $211 $315 forward 7 unknown #
coedge $-1 $224 $223 $129 $217 reversed $208 $-1 #
edge $-1 $316 -1.4375 $218 1.4375 $216 $317 forward 7 unknown #
vertex $-1 $131 $318 #
vertex $-1 $230 $319 #
straight-curve $-1 1.4375 0 -1 0 -1 0 I I #
coedge $-1 $210 $212 $132 $222 reversed $125 $-1 #
edge $-1 $225 -0.9375 $228 0.9375 $221 $320 forward 7 unknown #
coedge $-1 $216 $133 $138 $231 forward $208 $-1 #
coedge $-1 $133 $216 $210 $311 reversed $208 $-1 #
vertex $-1 $134 $321 #
straight-curve $-1 0 0.9375 1 -1 0 0 I I #
coedge $-1 $135 $211 $137 $230 reversed $73 $-1 #
vertex $-1 $222 $322 #
straight-curve $-1 0 -0.9375 1 1 0 0 I I #
edge $-1 $140 -1 $219 1 $137 $323 forward 7 unknown #
edge $-1 $141 -1 $218 1 $138 $324 forward 7 unknown #
point $-1 1.4375 -0.9375 1 #
point $-1 1.4375 0.9375 1 #
face_name-twe-attrib $-1 $-1 $144 $82 6 #
model_id-kcp-attrib $-1 $325 $-1 $145 1 990669522 110 -982646783 8 #
face $326 $327 $328 $6 $-1 $329 forward single #
loop $330 $-1 $331 $145 #
plane-surface $332 0 0 1 0 0 1 1 0 0 forward_v I I I I #
loop_type-twe-attrib $-1 $-1 $-1 $146 0 #
surf-twe-attrib $-1 $-1 $-1 $147 52 #
loop_type-twe-attrib $-1 $-1 $-1 $149 1 #
coedge $-1 $333 $334 $335 $336 reversed $149 $-1 #
coedge $-1 $337 $150 $175 $276 reversed $83 $-1 #
coedge $-1 $150 $337 $261 $338 forward $83 $-1 #
edge $339 $294 -2 $340 0 $150 $341 forward 7 unknown #
coedge $-1 $292 $153 $160 $262 forward $86 $-1 #
coedge $-1 $155 $154 $342 $343 reversed $49 $-1 #
coedge $-1 $344 $345 $154 $249 forward $346 $-1 #
edge $347 $348 -0.35000000000000009 $257 0 $248 $349 forward 7 unknown #
coedge $-1 $350 $351 $155 $251 reversed $352 $-1 #
edge $353 $354 -0.35000000000000009 $256 0 $250 $355 forward 7 unknown #
coedge $-1 $356 $156 $351 $357 forward $254 $-1 #
coedge $-1 $156 $356 $344 $358 reversed $254 $-1 #
loop $359 $-1 $156 $360 #
edge_name-twe-attrib $-1 $-1 $-1 $157 26 20480 #
vertex $-1 $157 $361 #
vertex $-1 $157 $362 #
straight-curve $363 2.6254729246145501 -1.6875 0.94999999999999996 1 0 0 I I #
convexity-sys-attrib $-1 $364 $158 $90 #
cur-twe-attrib $-1 $-1 $-1 $159 60 #
coedge $-1 $166 $160 $244 $338 reversed $20 $-1 #
edge $365 $340 -2.6375000000000002 $264 0 $246 $366 forward 7 unknown #
edge_name-twe-attrib $-1 $-1 $-1 $162 35 8704 #
vertex $-1 $162 $367 #
ellipse-curve $368 2.9500000000000002 -1.7375 2 0 0 1 0 0.050000000000000003 0 1 I I #
convexity-sys-attrib $-1 $369 $163 $92 #
point $-1 3 -1.7375 2 #
cur-twe-attrib $-1 $-1 $-1 $165 62 #
coedge $-1 $278 $277 $166 $270 reversed $279 $-1 #
edge $370 $371 -1.5707963267948966 $272 0 $269 $372 forward 7 unknown #
attrib_edge_convexity-kcp-attrib $-1 $373 $-1 $168 1 #
vertex $-1 $270 $374 #
straight-curve $375 0.26250000000000001 0 2 1 0 0 I I #
point $-1 0.125 0 2 #
cur-twe-attrib $-1 $-1 $-1 $171 65 #
edge $376 $281 -1.6375 $294 0 $243 $377 forward 7 unknown #
coedge $-1 $269 $176 $179 $283 reversed $279 $-1 #
coedge $-1 $176 $269 $337 $378 forward $279 $-1 #
loop $379 $-1 $277 $380 #
attrib_edge_convexity-kcp-attrib $-1 $381 $-1 $177 1 #
vertex $-1 $378 $382 #
ellipse-curve $383 0.26250000000000001 -0.050000000000000003 0 0 0 1 0 0.050000000000000003 0 1 I I #
edge $384 $272 -2 $181 0 $277 $385 forward 7 unknown #
convexity-sys-attrib $-1 $386 $180 $102 #
point $-1 0.26250000000000001 0 0 #
cur-twe-attrib $-1 $-1 $-1 $182 72 #
attrib_edge_convexity-kcp-attrib $-1 $387 $-1 $183 1 #
straight-curve $388 0.125 0 0 0 0 -1 I I #
model_id-kcp-attrib $-1 $389 $-1 $185 1 990669522 110 -982646783 18 #
plane-surface $390 0.125 -1.9375 0 1 0 0 0 0 -1 forward_v I I I I #
edge_name-twe-attrib $-1 $-1 $186 $60 44 8704 #
coedge $-1 $189 $246 $191 $296 forward $86 $-1 #
attrib_edge_convexity-kcp-attrib $-1 $391 $-1 $190 1 #
vertex $-1 $245 $392 #
straight-curve $393 2.9500000000000002 -1.6875 0 1 0 0 I I #
edge $394 $264 -2 $195 0 $191 $395 forward 7 unknown #
loop_type-twe-attrib $-1 $-1 $-1 $193 0 #
face $396 $380 $193 $6 $-1 $397 forward single #
convexity-sys-attrib $-1 $398 $194 $111 #
point $-1 2.9500000000000002 -1.6875 0 #
cur-twe-attrib $-1 $-1 $-1 $196 81 #
attrib_edge_convexity-kcp-attrib $-1 $399 $-1 $197 3 #
straight-curve $400 3 -1.7375 0 0 0 -1 I I #
edge_name-twe-attrib $-1 $-1 $198 $63 1 8704 #
cur-twe-attrib $-1 $-1 $-1 $202 86 #
face_name-twe-attrib $-1 $-1 $203 $118 18 #
surf-twe-attrib $-1 $-1 $-1 $204 88 #
model_id-kcp-attrib $-1 $-1 $-1 $207 1 990669522 130 -981336062 4 #
plane-surface $-1 1.4375 0 0 -1 0 0 0 0 1 forward_v I I I I #
coedge $-1 $212 $210 $214 $314 reversed $125 $-1 #
edge $-1 $225 -1 $316 1 $224 $401 forward 7 unknown #
vertex $-1 $314 $402 #
straight-curve $-1 -1.4375 -0.9375 0 0 0 -1 I I #
edge $-1 $312 -0.9375 $316 0.9375 $310 $403 forward 7 unknown #
straight-curve $-1 0 -0.9375 -1 -1 0 0 I I #
vertex $-1 $217 $404 #
straight-curve $-1 0 0.9375 -1 1 0 0 I I #
point $-1 1.4375 0.9375 -1 #
point $-1 1.4375 -0.9375 -1 #
straight-curve $-1 -1.4375 0 1 0 -1 0 I I #
point $-1 -1.4375 0.9375 1 #
point $-1 -1.4375 -0.9375 1 #
straight-curve $-1 1.4375 -0.9375 0 0 0 -1 I I #
straight-curve $-1 1.4375 0.9375 0 0 0 -1 I I #
face_name-twe-attrib $-1 $-1 $235 $145 7 #
model_id-kcp-attrib $-1 $405 $-1 $236 1 990669522 110 -982646783 9 #
face $406 $407 $346 $6 $-1 $408 forward single #
loop $409 $-1 $410 $236 #
plane-surface $411 0 0 1.25 0 0 1 1 0 0 forward_v I I I I #
loop_type-twe-attrib $-1 $-1 $-1 $237 0 #
coedge $-1 $412 $413 $414 $415 reversed $237 $-1 #
surf-twe-attrib $-1 $-1 $-1 $238 93 #
coedge $-1 $416 $242 $417 $418 forward $149 $-1 #
coedge $-1 $242 $416 $419 $420 reversed $149 $-1 #
coedge $-1 $421 $422 $242 $336 forward $423 $-1 #
edge $424 $425 -1.0403277852467701 $426 0 $335 $427 forward 7 unknown #
coedge $-1 $244 $243 $278 $378 reversed $83 $-1 #
edge $428 $371 -1.6375 $340 0 $244 $429 forward 7 unknown #
edge_name-twe-attrib $-1 $-1 $-1 $245 5 4608 #
vertex $-1 $245 $430 #
straight-curve $431 0.3125 -1.6875 2 0 0 1 I I #
coedge $-1 $432 $433 $247 $343 forward $434 $-1 #
edge $435 $354 -1.6176470588235301 $348 0 $342 $436 forward 7 unknown #
coedge $-1 $437 $248 $253 $358 forward $346 $-1 #
coedge $-1 $248 $438 $432 $439 reversed $346 $-1 #
loop $440 $-1 $248 $327 #
attrib_edge_convexity-kcp-attrib $-1 $441 $-1 $249 2 #
vertex $-1 $343 $442 #
straight-curve $443 2.6254729246145501 -1.6875 0.94999999999999996 0 0 -1 I I #
coedge $-1 $444 $250 $433 $445 forward $352 $-1 #
coedge $-1 $250 $414 $252 $357 reversed $352 $-1 #
loop $446 $-1 $414 $407 #
edge_name-twe-attrib $-1 $-1 $-1 $251 15 5120 #
vertex $-1 $343 $447 #
straight-curve $448 1.00782586579102 -1.6875 0.94999999999999996 0 0 -1 I I #
coedge $-1 $253 $252 $413 $449 forward $254 $-1 #
edge $450 $256 0 $451 0.114186866035214 $252 $452 forward 7 unknown #
edge $453 $257 0 $454 0.114186866035215 $253 $455 forward 7 unknown #
loop_type-twe-attrib $-1 $-1 $-1 $254 0 #
face $456 $457 $254 $6 $-1 $458 reversed single #
point $-1 1.00782586579102 -1.6875 0.94999999999999996 #
point $-1 2.6254729246145501 -1.6875 0.94999999999999996 #
cur-twe-attrib $-1 $-1 $-1 $258 105 #
edge_name-twe-attrib $-1 $-1 $259 $90 46 8704 #
edge_name-twe-attrib $-1 $-1 $-1 $262 3 8704 #
straight-curve $459 2.9500000000000002 -1.6875 2 1 0 0 I I #
point $-1 2.9500000000000002 -1.6875 2 #
cur-twe-attrib $-1 $-1 $-1 $265 110 #
edge_name-twe-attrib $-1 $-1 $266 $92 2 8704 #
edge_name-twe-attrib $-1 $-1 $-1 $270 39 8704 #
vertex $-1 $270 $460 #
ellipse-curve $461 0.26250000000000001 -0.050000000000000003 2 0 0 1 0 0.050000000000000003 0 1 I I #
convexity-sys-attrib $-1 $462 $271 $168 #
point $-1 0.26250000000000001 0 2 #
cur-twe-attrib $-1 $-1 $-1 $273 116 #
attrib_edge_convexity-kcp-attrib $-1 $463 $-1 $276 1 #
straight-curve $464 0.3125 -1.6875 0 0 -1 0 I I #
edge $465 $371 -2 $281 0 $278 $466 forward 7 unknown #
loop_type-twe-attrib $-1 $-1 $-1 $279 0 #
face $467 $185 $279 $6 $-1 $468 forward single #
convexity-sys-attrib $-1 $469 $280 $177 #
point $-1 0.3125 -0.050000000000000003 0 #
cur-twe-attrib $-1 $-1 $-1 $282 125 #
attrib_edge_convexity-kcp-attrib $-1 $470 $-1 $283 3 #
straight-curve $471 0.26250000000000001 0 0 0 0 -1 I I #
edge_name-twe-attrib $-1 $-1 $284 $102 9 8704 #
convexity-sys-attrib $-1 $472 $287 $183 #
cur-twe-attrib $-1 $-1 $-1 $288 131 #
face_name-twe-attrib $-1 $-1 $289 $185 17 #
surf-twe-attrib $-1 $-1 $-1 $290 133 #
convexity-sys-attrib $-1 $473 $293 $190 #
point $-1 0.3125 -1.6875 0 #
cur-twe-attrib $-1 $-1 $-1 $295 137 #
edge_name-twe-attrib $-1 $-1 $-1 $296 34 24576 #
straight-curve $474 2.9500000000000002 -1.6875 0 0 0 -1 I I #
model_id-kcp-attrib $-1 $475 $-1 $298 1 990669522 110 -982646783 16 #
cone-surface $476 2.9500000000000002 -1.7375 0 0 0 -1 0 0.050000000000000003 0 1 I I 0 1 0.050000000000000003 forward I I I I #
edge_name-twe-attrib $-1 $-1 $299 $111 37 8704 #
convexity-sys-attrib $-1 $477 $302 $197 #
cur-twe-attrib $-1 $-1 $-1 $303 144 #
straight-curve $-1 -1.4375 0.9375 0 0 0 -1 I I #
point $-1 -1.4375 -0.9375 -1 #
straight-curve $-1 -1.4375 0 -1 0 1 0 I I #
point $-1 -1.4375 0.9375 -1 #
face_name-twe-attrib $-1 $-1 $326 $236 8 #
model_id-kcp-attrib $-1 $478 $-1 $327 1 990669522 110 -982646783 10 #
face $479 $480 $352 $6 $-1 $481 reversed single #
plane-surface $482 2.6254729246145501 -1.6875 1 0.54090909090909112 0.84108106349620115 0 0 0 -1 forward_v I I I I #
loop_type-twe-attrib $-1 $-1 $-1 $328 0 #
coedge $-1 $483 $484 $444 $485 forward $328 $-1 #
surf-twe-attrib $-1 $-1 $-1 $329 152 #
coedge $-1 $486 $331 $487 $488 reversed $237 $-1 #
coedge $-1 $331 $486 $356 $449 reversed $237 $-1 #
coedge $-1 $351 $489 $331 $415 forward $352 $-1 #
edge $490 $491 -0.67482065803389191 $451 0 $414 $492 forward 7 unknown #
coedge $-1 $334 $333 $493 $494 forward $149 $-1 #
coedge $-1 $495 $496 $333 $418 reversed $346 $-1 #
edge $497 $425 -0.35000000000000009 $498 0 $417 $499 forward 7 unknown #
coedge $-1 $489 $500 $334 $420 forward $352 $-1 #
edge $501 $426 -0.35000000000000009 $502 0 $419 $503 forward 7 unknown #
coedge $-1 $504 $335 $500 $505 forward $423 $-1 #
coedge $-1 $335 $504 $495 $506 reversed $423 $-1 #
loop $507 $-1 $335 $508 #
edge_name-twe-attrib $-1 $-1 $-1 $336 22 20480 #
vertex $-1 $336 $509 #
vertex $-1 $336 $510 #
straight-curve $511 0.3125 -1.24032778524677 1.3 0 -1 0 I I #
edge_name-twe-attrib $-1 $-1 $-1 $338 7 8704 #
straight-curve $512 0.3125 -1.6875 2 0 -1 0 I I #
point $-1 0.3125 -1.6875 2 #
cur-twe-attrib $-1 $-1 $-1 $341 161 #
coedge $-1 $513 $342 $345 $439 forward $434 $-1 #
coedge $-1 $342 $513 $350 $445 reversed $434 $-1 #
loop $514 $-1 $342 $480 #
edge_name-twe-attrib $-1 $-1 $-1 $343 18 20480 #
straight-curve $515 2.6254729246145501 -1.6875 1.3 1 0 0 I I #
coedge $-1 $496 $344 $486 $516 reversed $346 $-1 #
coedge $-1 $345 $495 $517 $518 forward $346 $-1 #
edge $519 $348 0 $520 0.114186866035214 $432 $521 forward 7 unknown #
loop_type-twe-attrib $-1 $-1 $-1 $346 0 #
convexity-sys-attrib $-1 $522 $347 $249 #
point $-1 2.6254729246145501 -1.6875 1.3 #
cur-twe-attrib $-1 $-1 $-1 $349 165 #
coedge $-1 $500 $350 $410 $485 reversed $352 $-1 #
edge $523 $354 0 $524 0.114186866035214 $433 $525 forward 7 unknown #
loop_type-twe-attrib $-1 $-1 $-1 $352 0 #
point $-1 1.00782586579102 -1.6875 1.3 #
cur-twe-attrib $-1 $-1 $-1 $355 167 #
edge $526 $451 -1.6176470588235303 $454 0 $356 $527 forward 7 unknown #
edge_name-twe-attrib $-1 $-1 $-1 $357 27 9216 #
vertex $-1 $449 $528 #
intcurve-curve $529 forward { exactcur full nubs 3 open 9 
	0 3 0.0097527677518496197 1 0.020246759822342801 1 0.032028783406708998 1 0.045383830375782197 1 
	0.060092354898288999 1 0.076269006225515107 1 0.094226168385339204 1 0.114186866035214 3 
	1.00782586579102 -1.6875 0.94999999999999996 
	1.00782586579102 -1.6875 0.95325092258395006 
	1.0067558515953801 -1.6868118613283001 0.96004782398811395 
	1.00222952525003 -1.6839009277989601 0.96944290109753595 
	0.99512524196261698 -1.67933207994192 0.97794135310001895 
	0.98576567565895301 -1.67331283314117 0.98532061396977799 
	0.97443130031295599 -1.66602356349701 0.99143243948844795 
	0.96128684477214499 -1.6575702100621801 0.99614439036796198 
	0.94631736671190303 -1.6479431632525801 0.99926639945656104 
	0.93567506499751096 -1.64109897427323 1 
	0.93007887672834999 -1.6375 1 
	0 
	null_surface 
	null_surface 
	nullbs 
	nullbs 
	I I 
	0 
	0 
	7 0.0097527677518496197 0.020246759822342801 0.032028783406708998 0.045383830375782197 0.060092354898288999 0.076269006225515107 0.094226168385339204 
	F 1 F 0 } I I #
attrib_edge_convexity-kcp-attrib $-1 $530 $-1 $358 1 #
vertex $-1 $449 $531 #
intcurve-curve $532 forward { exactcur full nubs 3 open 9 
	0 3 0.0097527677518495191 1 0.020246759822342999 1 0.0320287834067087 1 0.045383830375782599 1 
	0.0600923548982885 1 0.076269006225514802 1 0.094226168385338899 1 0.114186866035215 3 
	2.6254729246145501 -1.6875 0.94999999999999996 
	2.6254729246145501 -1.6875 0.95325092258395006 
	2.6244029104189099 -1.6868118613283001 0.96004782398811395 
	2.6198765840735598 -1.6839009277989601 0.96944290109753495 
	2.6127723007861499 -1.67933207994192 0.97794135310001995 
	2.6034127344824798 -1.67331283314117 0.98532061396977699 
	2.5920783591364902 -1.66602356349701 0.99143243948844895 
	2.57893390359567 -1.6575702100621801 0.99614439036796198 
	2.5639644255354299 -1.6479431632525701 0.99926639945656104 
	2.5533221238210402 -1.64109897427324 1 
	2.5477259355518802 -1.6375 1 
	0 
	null_surface 
	null_surface 
	nullbs 
	nullbs 
	I I 
	0 
	0 
	7 0.0097527677518495191 0.020246759822342999 0.0320287834067087 0.045383830375782599 0.0600923548982885 0.076269006225514802 0.094226168385338899 
	F 1 F 0 } I I #
model_id-kcp-attrib $-1 $533 $-1 $360 1 990669522 110 -982646783 14 #
face $534 $298 $535 $6 $-1 $536 reversed single #
cone-surface $537 2.6254729246145501 -1.6375 0.94999999999999996 -1 0 0 0 -0.050000000000000003 0 1 I I 0 1 0.050000000000000003 forward I I I I #
cur-twe-attrib $-1 $-1 $-1 $366 177 #
point $-1 0.3125 -0.050000000000000003 2 #
cur-twe-attrib $-1 $-1 $-1 $372 184 #
edge_name-twe-attrib $-1 $-1 $373 $168 8 8704 #
convexity-sys-attrib $-1 $538 $376 $276 #
cur-twe-attrib $-1 $-1 $-1 $377 190 #
edge_name-twe-attrib $-1 $-1 $-1 $378 40 24576 #
straight-curve $539 0.3125 -0.050000000000000003 0 0 0 -1 I I #
model_id-kcp-attrib $-1 $540 $-1 $380 1 990669522 110 -982646783 17 #
cone-surface $541 0.26250000000000001 -0.050000000000000003 0 0 0 -1 0 0.050000000000000003 0 1 I I 0 1 0.050000000000000003 forward I I I I #
edge_name-twe-attrib $-1 $-1 $381 $177 41 8704 #
convexity-sys-attrib $-1 $542 $384 $283 #
cur-twe-attrib $-1 $-1 $-1 $385 197 #
edge_name-twe-attrib $-1 $-1 $387 $183 43 8704 #
edge_name-twe-attrib $-1 $-1 $391 $190 4 8704 #
cur-twe-attrib $-1 $-1 $-1 $395 208 #
face_name-twe-attrib $-1 $-1 $396 $298 15 #
surf-twe-attrib $-1 $-1 $-1 $397 210 #
edge_name-twe-attrib $-1 $-1 $399 $197 36 24576 #
face_name-twe-attrib $-1 $-1 $406 $327 9 #
model_id-kcp-attrib $-1 $543 $-1 $407 1 990669522 110 -982646783 11 #
face $544 $508 $434 $6 $-1 $545 reversed single #
plane-surface $546 1.00782586579102 -1.6875 0 0.54090909090909112 0.84108106349620115 0 0 0 -1 forward_v I I I I #
surf-twe-attrib $-1 $-1 $-1 $408 218 #
coedge $-1 $517 $410 $513 $547 forward $328 $-1 #
coedge $-1 $410 $517 $504 $548 forward $328 $-1 #
edge $549 $550 -0.67482065803389191 $524 0 $444 $551 forward 7 unknown #
coedge $-1 $413 $412 $437 $516 forward $237 $-1 #
coedge $-1 $552 $553 $412 $488 forward $535 $-1 #
edge $554 $555 -1.0403277852467641 $491 0 $487 $556 forward 7 unknown #
coedge $-1 $414 $419 $552 $557 forward $352 $-1 #
edge_name-twe-attrib $-1 $-1 $-1 $415 14 8704 #
vertex $-1 $488 $558 #
straight-curve $559 0.93007887672834999 -1.6375 1 0.84108106349620104 -0.54090909090909101 0 I I #
coedge $-1 $553 $552 $416 $494 reversed $535 $-1 #
edge $560 $498 -1.0403277852467701 $502 0 $493 $561 forward 7 unknown #
coedge $-1 $438 $417 $422 $506 forward $346 $-1 #
coedge $-1 $417 $437 $553 $562 reversed $346 $-1 #
attrib_edge_convexity-kcp-attrib $-1 $563 $-1 $418 2 #
vertex $-1 $494 $564 #
straight-curve $565 0.3125 -0.20000000000000001 0.94999999999999996 0 0 -1 I I #
coedge $-1 $419 $444 $421 $505 reversed $352 $-1 #
edge_name-twe-attrib $-1 $-1 $-1 $420 17 5120 #
vertex $-1 $494 $566 #
straight-curve $567 0.3125 -1.24032778524677 0.94999999999999996 0 0 -1 I I #
coedge $-1 $422 $421 $484 $548 reversed $423 $-1 #
edge $568 $426 0 $550 0.085876599057813405 $421 $569 forward 7 unknown #
edge $570 $425 0 $571 0.085876599057813793 $422 $572 forward 7 unknown #
loop_type-twe-attrib $-1 $-1 $-1 $423 0 #
face $573 $360 $423 $6 $-1 $574 reversed single #
point $-1 0.3125 -0.20000000000000001 1.3 #
point $-1 0.3125 -1.24032778524677 1.3 #
cur-twe-attrib $-1 $-1 $-1 $427 227 #
cur-twe-attrib $-1 $-1 $-1 $429 229 #
coedge $-1 $433 $432 $483 $547 reversed $434 $-1 #
loop_type-twe-attrib $-1 $-1 $-1 $434 0 #
cur-twe-attrib $-1 $-1 $-1 $436 234 #
edge $575 $555 -2.5981157231959844 $454 0 $437 $576 forward 7 unknown #
coedge $-1 $484 $483 $438 $518 reversed $328 $-1 #
edge $577 $571 -2.5981157231959844 $520 0 $438 $578 forward 7 unknown #
attrib_edge_convexity-kcp-attrib $-1 $579 $-1 $439 1 #
vertex $-1 $547 $580 #
intcurve-curve $581 forward { exactcur full nubs 3 open 9 
	0 3 0.0097527677518497603 1 0.020246759822342801 1 0.032028783406707798 1 0.045383830375782301 1 
	0.060092354898289201 1 0.076269006225515398 1 0.094226168385338593 1 0.114186866035214 3 
	2.6254729246145501 -1.6875 1.3 
	2.6254729246145501 -1.6875 1.2967490774160499 
	2.6244029104189099 -1.6868118613283001 1.2899521760118899 
	2.6198765840735598 -1.6839009277989601 1.2805570989024599 
	2.6127723007861499 -1.67933207994192 1.2720586468999799 
	2.6034127344824798 -1.67331283314117 1.2646793860302199 
	2.59207835913648 -1.66602356349701 1.2585675605115501 
	2.57893390359567 -1.6575702100621801 1.2538556096320399 
	2.5639644255354299 -1.6479431632525701 1.25073360054344 
	2.5533221238210402 -1.64109897427324 1.25 
	2.5477259355518802 -1.6375 1.25 
	0 
	null_surface 
	null_surface 
	nullbs 
	nullbs 
	I I 
	0 
	0 
	7 0.0097527677518497603 0.020246759822342801 0.032028783406707798 0.045383830375782301 0.060092354898289201 0.076269006225515398 0.094226168385338593 
	F 1 F 0 } I I #
edge_name-twe-attrib $-1 $-1 $441 $249 10 4352 #
edge_name-twe-attrib $-1 $-1 $-1 $445 21 9216 #
vertex $-1 $547 $582 #
intcurve-curve $583 forward { exactcur full nubs 3 open 9 
	0 3 0.0097527677518497308 1 0.020246759822342801 1 0.032028783406707798 1 0.045383830375782197 1 
	0.060092354898288999 1 0.076269006225514302 1 0.094226168385339204 1 0.114186866035214 3 
	1.00782586579102 -1.6875 1.3 
	1.00782586579102 -1.6875 1.2967490774160499 
	1.0067558515953801 -1.6868118613283001 1.2899521760118899 
	1.00222952525003 -1.6839009277989601 1.2805570989024599 
	0.99512524196261698 -1.67933207994192 1.2720586468999799 
	0.98576567565895301 -1.67331283314117 1.2646793860302199 
	0.97443130031295599 -1.66602356349701 1.2585675605115501 
	0.96128684477214599 -1.6575702100621801 1.2538556096320399 
	0.94631736671190303 -1.6479431632525801 1.25073360054344 
	0.93567506499751096 -1.64109897427323 1.25 
	0.93007887672834999 -1.6375 1.25 
	0 
	null_surface 
	null_surface 
	nullbs 
	nullbs 
	I I 
	0 
	0 
	7 0.0097527677518497308 0.020246759822342801 0.032028783406707798 0.045383830375782197 0.060092354898288999 0.076269006225514302 0.094226168385339204 
	F 1 F 0 } I I #
edge_name-twe-attrib $-1 $-1 $-1 $449 28 20480 #
straight-curve $584 2.5477259355518802 -1.6375 1 1 0 0 I I #
point $-1 0.93007887672834999 -1.6375 1 #
cur-twe-attrib $-1 $-1 $-1 $452 248 #
convexity-sys-attrib $-1 $585 $453 $358 #
point $-1 2.5477259355518802 -1.6375 1 #
cur-twe-attrib $-1 $-1 $-1 $455 249 #
face_name-twe-attrib $-1 $-1 $456 $360 13 #
model_id-kcp-attrib $-1 $586 $-1 $457 1 990669522 110 -982646783 15 #
loop $587 $-1 $493 $457 #
cone-surface $588 0.36249999999999999 -1.27248337133621 0.94999999999999996 0 1 0 -0.050000000000000003 0 0 1 I I 0 1 0.050000000000000003 forward I I I I #
surf-twe-attrib $-1 $-1 $-1 $458 251 #
edge_name-twe-attrib $-1 $-1 $463 $276 6 8704 #
cur-twe-attrib $-1 $-1 $-1 $466 266 #
face_name-twe-attrib $-1 $-1 $467 $380 16 #
surf-twe-attrib $-1 $-1 $-1 $468 268 #
edge_name-twe-attrib $-1 $-1 $470 $283 38 24576 #
face_name-twe-attrib $-1 $-1 $479 $407 10 #
model_id-kcp-attrib $-1 $589 $-1 $480 1 990669522 110 -982646783 12 #
cone-surface $590 2.6254729246145501 -1.6375 1.3 1 0 0 0 -0.050000000000000003 0 1 I I 0 1 0.050000000000000003 forward I I I I #
surf-twe-attrib $-1 $-1 $-1 $481 283 #
edge $591 $524 -1.6176470588235303 $520 0 $513 $592 forward 7 unknown #
edge $593 $571 -1.0403277852467641 $550 0 $504 $594 forward 7 unknown #
edge_name-twe-attrib $-1 $-1 $-1 $485 16 8704 #
vertex $-1 $548 $595 #
straight-curve $596 0.93007887672834999 -1.6375 1.25 0.84108106349620104 -0.54090909090909101 0 I I #
coedge $-1 $493 $487 $489 $557 reversed $535 $-1 #
coedge $-1 $487 $493 $496 $562 forward $535 $-1 #
edge_name-twe-attrib $-1 $-1 $-1 $488 32 20480 #
vertex $-1 $488 $597 #
straight-curve $598 0.36249999999999999 -1.27248337133621 1 0 -1 0 I I #
edge $599 $502 0 $491 0.085876599057813502 $552 $600 forward 7 unknown #
point $-1 0.36249999999999999 -1.27248337133621 1 #
cur-twe-attrib $-1 $-1 $-1 $492 291 #
edge_name-twe-attrib $-1 $-1 $-1 $494 30 20480 #
straight-curve $601 0.3125 -1.24032778524677 0.94999999999999996 0 -1 0 I I #
edge $602 $498 0 $555 0.085876599057813904 $553 $603 forward 7 unknown #
convexity-sys-attrib $-1 $604 $497 $418 #
point $-1 0.3125 -0.20000000000000001 0.94999999999999996 #
cur-twe-attrib $-1 $-1 $-1 $499 294 #
point $-1 0.3125 -1.24032778524677 0.94999999999999996 #
cur-twe-attrib $-1 $-1 $-1 $503 296 #
edge_name-twe-attrib $-1 $-1 $-1 $505 23 9216 #
intcurve-curve $605 forward { exactcur full nubs 3 open 7 
	0 3 0.011521772910188801 1 0.023900539503831201 1 0.037496947122096801 1 0.052427446162714698 1 
	0.068640493334613195 1 0.085876599057813405 3 
	0.3125 -1.24032778524677 1.3 
	0.3125 -1.24032778524677 1.29615940902994 
	0.31343437746029801 -1.2409286943440601 1.28815233325106 
	0.31773184307131602 -1.24369244485249 1.27657738212268 
	0.32511753508053998 -1.24844226995715 1.2659278741443001 
	0.33545901407946699 -1.2550929963219899 1.2571967750022199 
	0.348246833573296 -1.26331699293459 1.2513646357595101 
	0.35766767928926602 -1.2693756492437001 1.25 
	0.36249999999999999 -1.27248337133621 1.25 
	0 
	null_surface 
	null_surface 
	nullbs 
	nullbs 
	I I 
	0 
	0 
	5 0.011521772910188801 0.023900539503831201 0.037496947122096801 0.052427446162714698 0.068640493334613195 
	F 1 F 0 } I I #
attrib_edge_convexity-kcp-attrib $-1 $606 $-1 $506 1 #
vertex $-1 $548 $607 #
intcurve-curve $608 forward { exactcur full nubs 3 open 7 
	0 3 0.0115217729101899 1 0.023900539503832599 1 0.037496947122097002 1 0.052427446162713803 1 
	0.068640493334612293 1 0.085876599057813793 3 
	0.3125 -0.20000000000000001 1.3 
	0.3125 -0.20000000000000001 1.29615940902994 
	0.31343437746029701 -0.200600909097292 1.28815233325106 
	0.31773184307131802 -0.203364659605724 1.27657738212268 
	0.32511753508053998 -0.20811448471037899 1.2659278741443001 
	0.33545901407946699 -0.21476521107522201 1.2571967750022199 
	0.348246833573295 -0.22298920768782399 1.2513646357595101 
	0.35766767928926602 -0.229047863996929 1.25 
	0.36249999999999999 -0.232155586089446 1.25 
	0 
	null_surface 
	null_surface 
	nullbs 
	nullbs 
	I I 
	0 
	0 
	5 0.0115217729101899 0.023900539503832599 0.037496947122097002 0.052427446162713803 0.068640493334612293 
	F 1 F 0 } I I #
model_id-kcp-attrib $-1 $609 $-1 $508 1 990669522 110 -982646783 13 #
cone-surface $610 0.36249999999999999 -1.27248337133621 1.3 0 -1 0 -0.050000000000000003 0 0 1 I I 0 1 0.050000000000000003 forward I I I I #
attrib_edge_convexity-kcp-attrib $-1 $611 $-1 $516 1 #
straight-curve $612 2.5477259355518802 -1.6375 1 0.84108106349620104 -0.54090909090909101 0 I I #
attrib_edge_convexity-kcp-attrib $-1 $613 $-1 $518 1 #
straight-curve $614 2.5477259355518802 -1.6375 1.25 0.84108106349620104 -0.54090909090909101 0 I I #
convexity-sys-attrib $-1 $615 $519 $439 #
point $-1 2.5477259355518802 -1.6375 1.25 #
cur-twe-attrib $-1 $-1 $-1 $521 315 #
point $-1 0.93007887672834999 -1.6375 1.25 #
cur-twe-attrib $-1 $-1 $-1 $525 320 #
cur-twe-attrib $-1 $-1 $-1 $527 324 #
edge_name-twe-attrib $-1 $-1 $530 $358 29 8448 #
face_name-twe-attrib $-1 $-1 $534 $457 14 #
loop_type-twe-attrib $-1 $-1 $-1 $535 0 #
surf-twe-attrib $-1 $-1 $-1 $536 332 #
face_name-twe-attrib $-1 $-1 $544 $480 11 #
surf-twe-attrib $-1 $-1 $-1 $545 346 #
edge_name-twe-attrib $-1 $-1 $-1 $547 20 20480 #
straight-curve $616 2.5477259355518802 -1.6375 1.25 1 0 0 I I #
edge_name-twe-attrib $-1 $-1 $-1 $548 24 20480 #
straight-curve $617 0.36249999999999999 -1.27248337133621 1.25 0 -1 0 I I #
point $-1 0.36249999999999999 -1.27248337133621 1.25 #
cur-twe-attrib $-1 $-1 $-1 $551 351 #
point $-1 0.36249999999999999 -0.232155586089446 1 #
cur-twe-attrib $-1 $-1 $-1 $556 354 #
edge_name-twe-attrib $-1 $-1 $-1 $557 33 9216 #
intcurve-curve $618 forward { exactcur full nubs 3 open 7 
	0 3 0.0115217729101899 1 0.023900539503832401 1 0.037496947122096898 1 0.052427446162714803 1 
	0.068640493334613306 1 0.085876599057813502 3 
	0.3125 -1.24032778524677 0.94999999999999996 
	0.3125 -1.24032778524677 0.95384059097006302 
	0.31343437746029801 -1.2409286943440601 0.96184766674893796 
	0.31773184307131602 -1.24369244485249 0.97342261787732498 
	0.32511753508053998 -1.24844226995715 0.98407212585569503 
	0.33545901407946799 -1.2550929963219899 0.99280322499777696 
	0.348246833573296 -1.26331699293459 0.99863536424049404 
	0.35766767928926602 -1.2693756492437001 1 
	0.36249999999999999 -1.27248337133621 1 
	0 
	null_surface 
	null_surface 
	nullbs 
	nullbs 
	I I 
	0 
	0 
	5 0.0115217729101899 0.023900539503832401 0.037496947122096898 0.052427446162714803 0.068640493334613306 
	F 1 F 0 } I I #
cur-twe-attrib $-1 $-1 $-1 $561 360 #
attrib_edge_convexity-kcp-attrib $-1 $619 $-1 $562 1 #
intcurve-curve $620 forward { exactcur full nubs 3 open 7 
	0 3 0.0115217729101899 1 0.023900539503833602 1 0.037496947122098501 1 0.052427446162714698 1 
	0.068640493334612404 1 0.085876599057813904 3 
	0.3125 -0.20000000000000001 0.94999999999999996 
	0.3125 -0.20000000000000001 0.95384059097006302 
	0.31343437746029801 -0.200600909097292 0.96184766674893896 
	0.31773184307131702 -0.203364659605723 0.97342261787732598 
	0.32511753508054098 -0.20811448471037899 0.98407212585569603 
	0.33545901407946799 -0.21476521107522201 0.99280322499777696 
	0.348246833573295 -0.22298920768782399 0.99863536424049504 
	0.35766767928926602 -0.229047863996929 1 
	0.36249999999999999 -0.232155586089446 1 
	0 
	null_surface 
	null_surface 
	nullbs 
	nullbs 
	I I 
	0 
	0 
	5 0.0115217729101899 0.023900539503833602 0.037496947122098501 0.052427446162714698 0.068640493334612404 
	F 1 F 0 } I I #
edge_name-twe-attrib $-1 $-1 $563 $418 12 4352 #
cur-twe-attrib $-1 $-1 $-1 $569 371 #
convexity-sys-attrib $-1 $621 $570 $506 #
point $-1 0.36249999999999999 -0.232155586089446 1.25 #
cur-twe-attrib $-1 $-1 $-1 $572 372 #
face_name-twe-attrib $-1 $-1 $573 $508 12 #
surf-twe-attrib $-1 $-1 $-1 $574 374 #
convexity-sys-attrib $-1 $622 $575 $516 #
cur-twe-attrib $-1 $-1 $-1 $576 382 #
convexity-sys-attrib $-1 $623 $577 $518 #
cur-twe-attrib $-1 $-1 $-1 $578 384 #
edge_name-twe-attrib $-1 $-1 $579 $439 19 8448 #
cur-twe-attrib $-1 $-1 $-1 $592 406 #
cur-twe-attrib $-1 $-1 $-1 $594 407 #
cur-twe-attrib $-1 $-1 $-1 $600 416 #
convexity-sys-attrib $-1 $624 $602 $562 #
cur-twe-attrib $-1 $-1 $-1 $603 421 #
edge_name-twe-attrib $-1 $-1 $606 $506 25 8448 #
edge_name-twe-attrib $-1 $-1 $611 $516 11 8704 #
edge_name-twe-attrib $-1 $-1 $613 $518 13 8704 #
edge_name-twe-attrib $-1 $-1 $619 $562 31 8448 #
End-of-ACIS-data 