105 314 1 0                             
body $-1 $1 $-1 $2 #
lump $-1 $-1 $3 $0 #
transform $-1 0.707106781186546 0.707106781186549 0 -0.707106781186549 0.707106781186546 0 0 0 1 0 0 25 1 1 0 0 #
shell $-1 $-1 $-1 $4 $1 #
face $-1 $5 $6 $3 $-1 $7 forward single #
face $-1 $8 $9 $3 $-1 $10 forward single #
loop $-1 $-1 $11 $4 #
plane-surface $-1 2.5 8.60422844084496e-15 12.5 -1 -3.44169137633799e-15 0 0 0 1 0 #
face $-1 $12 $13 $3 $-1 $14 reversed single #
loop $-1 $-1 $15 $5 #
plane-surface $-1 -2.5 -8.60422844084496e-15 12.5 1 3.44169137633799e-15 0 -0 0 -1 0 #
coedge $-1 $16 $17 $18 $19 1 $6 $-1 #
face $-1 $20 $21 $3 $-1 $22 forward single #
loop $-1 $-1 $23 $8 #
plane-surface $-1 0 -50 0 0 1 -0 -0 0 1 0 #
coedge $-1 $24 $25 $26 $27 1 $9 $-1 #
coedge $-1 $28 $11 $29 $30 1 $6 $-1 #
coedge $-1 $11 $28 $31 $32 1 $6 $-1 #
coedge $-1 $33 $34 $11 $19 0 $35 $-1 #
edge $-1 $36 $37 $18 $38 0 #
face $-1 $39 $40 $3 $-1 $22 forward single #
loop $-1 $-1 $41 $12 #
plane-surface $-1 0 0 0 0 0 1 0.707106781186546 -0.707106781186549 0 0 #
coedge $-1 $42 $43 $25 $44 0 $13 $-1 #
coedge $-1 $45 $15 $46 $47 1 $9 $-1 #
coedge $-1 $15 $45 $23 $44 1 $9 $-1 #
coedge $-1 $48 $49 $15 $27 0 $35 $-1 #
edge $-1 $50 $51 $26 $52 0 #
coedge $-1 $17 $16 $41 $53 1 $6 $-1 #
coedge $-1 $54 $55 $16 $30 0 $13 $-1 #
edge $-1 $56 $36 $29 $57 0 #
coedge $-1 $58 $59 $17 $32 0 $60 $-1 #
edge $-1 $37 $61 $31 $62 0 #
coedge $-1 $49 $18 $59 $63 1 $35 $-1 #
coedge $-1 $18 $48 $54 $64 1 $35 $-1 #
loop $-1 $-1 $26 $39 #
vertex $-1 $30 $65 #
vertex $-1 $63 $66 #
straight-curve $-1 2.5 -2.46885013108227e-14 -5.42893218813452 -0 1 3.49148133884313e-15 #
face $-1 $67 $35 $3 $-1 $68 reversed single #
loop $-1 $-1 $69 $20 #
coedge $-1 $70 $71 $28 $53 0 $21 $-1 #
coedge $-1 $72 $23 $73 $74 1 $13 $-1 #
coedge $-1 $23 $54 $48 $75 0 $13 $-1 #
edge $-1 $51 $76 $23 $77 0 #
coedge $-1 $25 $24 $69 $78 1 $9 $-1 #
coedge $-1 $79 $80 $24 $47 0 $60 $-1 #
edge $-1 $81 $50 $46 $82 0 #
coedge $-1 $34 $26 $43 $75 1 $35 $-1 #
coedge $-1 $26 $33 $79 $83 1 $35 $-1 #
vertex $-1 $47 $84 #
vertex $-1 $75 $85 #
straight-curve $-1 -2.5 -2.46885013108227e-14 -5.42893218813452 -0 -1 -3.49148133884313e-15 #
edge $-1 $61 $56 $41 $86 0 #
coedge $-1 $43 $29 $34 $64 0 $13 $-1 #
coedge $-1 $29 $87 $70 $88 1 $13 $-1 #
vertex $-1 $53 $89 #
straight-curve $-1 2.50000000000017 -50 6.25 0 0 -1 #
coedge $-1 $90 $31 $71 $91 1 $60 $-1 #
coedge $-1 $31 $79 $33 $63 0 $60 $-1 #
loop $-1 $-1 $46 $92 #
vertex $-1 $91 $93 #
straight-curve $-1 2.49999999999983 50 6.25 0 0 1 #
edge $-1 $94 $37 $59 $95 0 #
edge $-1 $36 $96 $54 $97 0 #
point $-1 2.50000000000017 -50 -5.42893218813476 #
point $-1 2.49999999999983 50 -5.42893218813429 #
face $-1 $98 $99 $3 $-1 $100 forward single #
cone-surface $-1 0 0 -12.5 0 -1 -3.49148133884313e-15 7.5 0 0 1 0 1 0 #
coedge $-1 $101 $73 $45 $78 0 $40 $-1 #
coedge $-1 $102 $41 $55 $88 0 $21 $-1 #
coedge $-1 $41 $103 $58 $91 0 $21 $-1 #
coedge $-1 $104 $42 $105 $106 1 $13 $-1 #
coedge $-1 $69 $107 $42 $74 0 $40 $-1 #
edge $-1 $108 $76 $42 $109 0 #
edge $-1 $96 $51 $43 $97 0 #
vertex $-1 $74 $110 #
straight-curve $-1 -2.49999999999983 -50 6.25 -0 0 1 #
edge $-1 $76 $81 $69 $111 0 #
coedge $-1 $59 $46 $49 $83 0 $60 $-1 #
coedge $-1 $46 $112 $101 $113 1 $60 $-1 #
vertex $-1 $78 $114 #
straight-curve $-1 -2.50000000000017 50 6.25 0 0 -1 #
edge $-1 $50 $94 $79 $95 0 #
point $-1 -2.50000000000017 50 -5.42893218813441 #
point $-1 -2.49999999999983 -50 -5.42893218813464 #
straight-curve $-1 2.5 8.60422844084496e-15 -8.88178419700125e-16 3.44169137633798e-15 -1 0 #
coedge $-1 $55 $104 $115 $116 1 $13 $-1 #
edge $-1 $56 $117 $55 $109 0 #
point $-1 2.50000000000017 -50 0 #
coedge $-1 $118 $58 $119 $120 1 $60 $-1 #
edge $-1 $121 $61 $58 $122 0 #
face $-1 $123 $60 $3 $-1 $124 reversed single #
point $-1 2.49999999999983 50 0 #
vertex $-1 $83 $125 #
ellipse-curve $-1 0 50 -12.4999999999998 0 -1 0 7.5 0 0 1 #
vertex $-1 $64 $126 #
ellipse-curve $-1 0 -50 -12.5000000000002 0 1 -0 7.5 0 0 1 #
face $-1 $127 $128 $3 $-1 $100 forward single #
loop $-1 $-1 $129 $67 #
plane-surface $-1 0 0 -25 0 0 1 0.707106781186546 -0.707106781186549 0 0 #
coedge $-1 $130 $69 $80 $113 0 $40 $-1 #
coedge $-1 $131 $70 $132 $133 0 $21 $-1 #
coedge $-1 $71 $131 $134 $135 0 $21 $-1 #
coedge $-1 $87 $72 $136 $137 0 $13 $-1 #
coedge $-1 $138 $139 $72 $106 0 $140 $-1 #
edge $-1 $141 $108 $72 $142 0 #
coedge $-1 $73 $143 $138 $144 0 $40 $-1 #
vertex $-1 $74 $145 #
straight-curve $-1 0 -50 0 1 -0 0 #
point $-1 -2.49999999999983 -50 0 #
straight-curve $-1 -2.5 -8.60422844084496e-15 -8.88178419700125e-16 -3.44169137633798e-15 1 0 #
coedge $-1 $80 $118 $146 $147 1 $60 $-1 #
edge $-1 $81 $148 $80 $122 0 #
point $-1 -2.50000000000017 50 0 #
coedge $-1 $149 $132 $87 $116 0 $150 $-1 #
edge $-1 $117 $151 $87 $152 0 #
vertex $-1 $88 $153 #
coedge $-1 $112 $90 $129 $154 0 $60 $-1 #
coedge $-1 $134 $155 $90 $120 0 $156 $-1 #
edge $-1 $157 $121 $90 $158 0 #
vertex $-1 $91 $159 #
straight-curve $-1 0 50 0 -1 0 0 #
face $-1 $160 $161 $3 $-1 $162 reversed single #
plane-surface $-1 0 50 0 0 -1 0 0 0 -1 0 #
point $-1 7.5 50 -12.4999999999998 #
point $-1 7.5 -50 -12.5000000000002 #
face $-1 $163 $164 $3 $-1 $100 forward single #
loop $-1 $-1 $165 $98 #
coedge $-1 $166 $167 $118 $154 1 $99 $-1 #
coedge $-1 $143 $101 $168 $169 0 $40 $-1 #
coedge $-1 $103 $102 $170 $171 0 $21 $-1 #
coedge $-1 $115 $172 $102 $133 1 $150 $-1 #
edge $-1 $117 $173 $132 $174 0 #
coedge $-1 $175 $119 $103 $135 1 $156 $-1 #
edge $-1 $176 $121 $134 $177 0 #
coedge $-1 $178 $179 $104 $137 1 $164 $-1 #
edge $-1 $141 $151 $104 $180 1 #
coedge $-1 $181 $105 $107 $144 1 $140 $-1 #
coedge $-1 $105 $182 $178 $183 1 $140 $-1 #
loop $-1 $-1 $181 $184 #
vertex $-1 $137 $185 #
straight-curve $-1 -20.7106781186548 -50 -12.5 -0 0 1 #
coedge $-1 $107 $130 $186 $187 0 $40 $-1 #
edge $-1 $188 $108 $138 $189 0 #
point $-1 -20.7106781186548 -50 0 #
coedge $-1 $190 $168 $112 $147 0 $191 $-1 #
edge $-1 $148 $192 $112 $193 0 #
vertex $-1 $113 $194 #
coedge $-1 $195 $115 $179 $196 1 $150 $-1 #
loop $-1 $-1 $172 $197 #
vertex $-1 $196 $198 #
straight-curve $-1 20.7106781186547 -50 -12.5 -0 0 -1 #
point $-1 20.7106781186547 -50 0 #
edge $-1 $157 $192 $118 $199 1 #
coedge $-1 $119 $200 $166 $201 1 $156 $-1 #
loop $-1 $-1 $119 $202 #
vertex $-1 $154 $203 #
straight-curve $-1 20.7106781186548 50 -12.5 0 0 1 #
point $-1 20.7106781186548 50 0 #
face $-1 $-1 $204 $3 $-1 $205 reversed single #
loop $-1 $-1 $206 $123 #
plane-surface $-1 50 0 0 -1 0 0 0 -0 1 0 #
face $-1 $207 $208 $3 $-1 $100 forward single #
loop $-1 $-1 $136 $127 #
coedge $-1 $209 $210 $211 $212 1 $128 $-1 #
coedge $-1 $167 $129 $155 $201 0 $99 $-1 #
coedge $-1 $129 $166 $190 $213 0 $99 $-1 #
coedge $-1 $146 $214 $130 $169 1 $191 $-1 #
edge $-1 $148 $215 $168 $216 0 #
coedge $-1 $217 $206 $131 $171 1 $161 $-1 #
edge $-1 $173 $176 $170 $218 0 #
coedge $-1 $132 $219 $217 $220 0 $150 $-1 #
vertex $-1 $171 $221 #
straight-curve $-1 35.3553390593273 -35.3553390593274 0 0.707106781186549 0.707106781186546 0 #
coedge $-1 $222 $134 $206 $223 0 $156 $-1 #
vertex $-1 $171 $224 #
straight-curve $-1 35.3553390593274 35.3553390593273 0 -0.707106781186546 0.707106781186549 0 #
coedge $-1 $179 $136 $139 $183 0 $164 $-1 #
coedge $-1 $136 $178 $149 $196 0 $164 $-1 #
straight-curve $-1 0 -50 -25 -1 0 0 #
coedge $-1 $225 $138 $226 $227 0 $140 $-1 #
coedge $-1 $139 $228 $195 $229 1 $140 $-1 #
edge $-1 $141 $230 $139 $231 0 #
face $-1 $202 $140 $3 $-1 $232 reversed single #
point $-1 -20.7106781186548 -50 -25 #
coedge $-1 $233 $226 $143 $187 1 $204 $-1 #
edge $-1 $215 $188 $186 $234 0 #
vertex $-1 $187 $235 #
straight-curve $-1 -35.3553390593274 -35.3553390593273 0 0.707106781186546 -0.707106781186549 0 #
coedge $-1 $236 $146 $167 $213 1 $191 $-1 #
loop $-1 $-1 $146 $237 #
vertex $-1 $147 $238 #
straight-curve $-1 -20.7106781186547 50 -12.5 0 0 -1 #
point $-1 -20.7106781186547 50 0 #
coedge $-1 $239 $149 $182 $229 0 $150 $-1 #
edge $-1 $230 $151 $149 $240 0 #
face $-1 $92 $150 $3 $-1 $241 reversed single #
point $-1 20.7106781186547 -50 -25 #
straight-curve $-1 0 50 -25 1 0 0 #
coedge $-1 $155 $242 $236 $243 1 $156 $-1 #
edge $-1 $157 $244 $155 $245 0 #
face $-1 $197 $156 $3 $-1 $246 reversed single #
point $-1 20.7106781186548 50 -25 #
loop $-1 $-1 $233 $160 #
plane-surface $-1 -50 0 0 1 0 0 0 0 -1 0 #
coedge $-1 $170 $211 $175 $223 1 $161 $-1 #
face $-1 $237 $247 $3 $-1 $248 reversed single #
loop $-1 $-1 $249 $163 #
coedge $-1 $210 $165 $219 $250 0 $128 $-1 #
coedge $-1 $165 $209 $222 $251 0 $128 $-1 #
coedge $-1 $206 $217 $165 $212 0 $161 $-1 #
edge $-1 $252 $253 $211 $254 1 #
edge $-1 $244 $192 $190 $255 0 #
coedge $-1 $168 $256 $233 $257 0 $191 $-1 #
vertex $-1 $187 $258 #
straight-curve $-1 -35.3553390593273 35.3553390593274 0 -0.707106781186549 -0.707106781186546 0 #
coedge $-1 $211 $170 $172 $220 1 $161 $-1 #
straight-curve $-1 50 0 0 0 1 -0 #
coedge $-1 $172 $259 $209 $250 1 $150 $-1 #
edge $-1 $252 $173 $217 $260 0 #
point $-1 50 -20.7106781186548 0 #
coedge $-1 $261 $175 $210 $251 1 $156 $-1 #
edge $-1 $176 $253 $206 $262 0 #
point $-1 50 20.7106781186547 0 #
coedge $-1 $263 $181 $264 $265 1 $140 $-1 #
coedge $-1 $186 $266 $181 $227 1 $204 $-1 #
edge $-1 $188 $267 $226 $268 0 #
coedge $-1 $182 $263 $269 $270 1 $140 $-1 #
edge $-1 $230 $271 $195 $272 0 #
vertex $-1 $196 $273 #
straight-curve $-1 -35.3553390593274 -35.3553390593273 -25 0.707106781186546 -0.707106781186549 0 #
plane-surface $-1 -35.3553390593274 -35.3553390593273 -25 0.707106781186549 0.707106781186546 0 0 0 1 0 #
coedge $-1 $266 $186 $214 $257 1 $204 $-1 #
straight-curve $-1 -50 0 0 0 -1 0 #
point $-1 -50 -20.7106781186547 0 #
coedge $-1 $274 $190 $200 $243 0 $191 $-1 #
face $-1 $184 $191 $3 $-1 $275 reversed single #
point $-1 -20.7106781186547 50 -25 #
coedge $-1 $259 $195 $276 $277 1 $150 $-1 #
straight-curve $-1 35.3553390593273 -35.3553390593274 -25 0.707106781186549 0.707106781186546 0 #
plane-surface $-1 35.3553390593273 -35.3553390593274 -25 -0.707106781186546 0.707106781186549 0 0 0 1 0 #
coedge $-1 $200 $261 $278 $279 1 $156 $-1 #
edge $-1 $244 $280 $200 $281 0 #
vertex $-1 $201 $282 #
straight-curve $-1 35.3553390593274 35.3553390593273 -25 -0.707106781186546 0.707106781186549 0 #
plane-surface $-1 35.3553390593274 35.3553390593273 -25 -0.707106781186549 -0.707106781186546 0 0 0 -1 0 #
loop $-1 $-1 $276 $207 #
plane-surface $-1 0 0 -50 0 0 1 0.707106781186546 -0.707106781186549 0 0 #
coedge $-1 $283 $264 $266 $284 1 $208 $-1 #
edge $-1 $252 $285 $219 $240 0 #
edge $-1 $285 $253 $222 $245 0 #
vertex $-1 $212 $286 #
vertex $-1 $223 $287 #
straight-curve $-1 50 0 -25 0 -1 0 #
straight-curve $-1 -35.3553390593273 35.3553390593274 -25 -0.707106781186549 -0.707106781186546 0 #
coedge $-1 $214 $288 $283 $289 1 $191 $-1 #
edge $-1 $290 $215 $233 $291 0 #
point $-1 -50 20.7106781186548 0 #
coedge $-1 $219 $239 $261 $292 1 $150 $-1 #
straight-curve $-1 50 -20.7106781186548 -12.5 0 0 1 #
coedge $-1 $242 $222 $259 $292 0 $156 $-1 #
straight-curve $-1 50 20.7106781186547 -12.5 -0 0 -1 #
coedge $-1 $228 $225 $288 $293 0 $140 $-1 #
coedge $-1 $249 $283 $225 $265 0 $208 $-1 #
edge $-1 $294 $267 $225 $231 0 #
coedge $-1 $226 $233 $249 $284 0 $204 $-1 #
vertex $-1 $265 $295 #
straight-curve $-1 -50 -20.7106781186547 -12.5 0 0 -1 #
coedge $-1 $296 $276 $228 $270 0 $247 $-1 #
edge $-1 $271 $297 $228 $298 0 #
vertex $-1 $229 $299 #
straight-curve $-1 -1.20792265079217e-13 -70.7106781186548 -37.5 0 0 -1 #
point $-1 -1.20792265079217e-13 -70.7106781186548 -25 #
coedge $-1 $288 $236 $296 $300 1 $191 $-1 #
plane-surface $-1 -35.3553390593273 35.3553390593274 -25 0.707106781186546 -0.707106781186549 0 0 0 -1 0 #
coedge $-1 $269 $278 $239 $277 0 $247 $-1 #
edge $-1 $301 $271 $239 $302 0 #
coedge $-1 $276 $296 $242 $279 0 $247 $-1 #
edge $-1 $280 $301 $242 $303 0 #
vertex $-1 $279 $304 #
straight-curve $-1 1.20792265079217e-13 70.7106781186548 -37.5 0 0 -1 #
point $-1 1.20792265079217e-13 70.7106781186548 -25 #
coedge $-1 $264 $249 $256 $289 0 $208 $-1 #
edge $-1 $290 $267 $266 $305 1 #
vertex $-1 $250 $306 #
point $-1 50 -20.7106781186548 -25 #
point $-1 50 20.7106781186547 -25 #
coedge $-1 $256 $274 $263 $293 1 $191 $-1 #
edge $-1 $290 $294 $256 $255 0 #
vertex $-1 $284 $307 #
straight-curve $-1 -50 20.7106781186548 -12.5 -0 0 1 #
edge $-1 $285 $301 $259 $308 0 #
edge $-1 $294 $297 $288 $309 0 #
vertex $-1 $289 $310 #
point $-1 -50 -20.7106781186547 -25 #
coedge $-1 $278 $269 $274 $300 0 $247 $-1 #
vertex $-1 $300 $311 #
straight-curve $-1 -35.3553390593274 -35.3553390593273 -50 -0.707106781186546 0.707106781186549 0 #
point $-1 -1.20792265079217e-13 -70.7106781186548 -50 #
edge $-1 $297 $280 $274 $312 0 #
vertex $-1 $277 $313 #
straight-curve $-1 35.3553390593273 -35.3553390593274 -50 -0.707106781186549 -0.707106781186546 0 #
straight-curve $-1 35.3553390593274 35.3553390593273 -50 0.707106781186546 -0.707106781186549 0 #
point $-1 1.20792265079217e-13 70.7106781186548 -50 #
straight-curve $-1 -50 0 -25 0 1 0 #
point $-1 70.7106781186548 -1.20792265079217e-13 -25 #
point $-1 -50 20.7106781186548 -25 #
straight-curve $-1 70.7106781186548 -1.20792265079217e-13 -37.5 0 0 -1 #
straight-curve $-1 -70.7106781186548 1.20792265079217e-13 -37.5 0 0 -1 #
point $-1 -70.7106781186548 1.20792265079217e-13 -25 #
point $-1 -70.7106781186548 1.20792265079217e-13 -50 #
straight-curve $-1 -35.3553390593273 35.3553390593274 -50 0.707106781186549 0.707106781186546 0 #
point $-1 70.7106781186548 -1.20792265079217e-13 -50 #
