600 0 2 0           
24 FBMach with ACIS - 6.0.3 13 ACIS 6.0.3 NT 24 Tue May 22 12:25:19 2001 
1 9.9999999999999995e-007 1e-010 
body $2 $3 $-1 $4 #
bdycol-kcp $-1 1 6 $5 $6 $7 $8 $9 $10 #
model_id-kcp-attrib $-1 $-1 $-1 $0 1 990548718 70 1095106561 1 #
lump $-1 $-1 $11 $0 #
transform $-1 0.70710678118654602 0.70710678118654902 0 -0.70710678118654902 0.70710678118654602 0 0 0 1 0 0 25 1 rotate no_reflect no_shear #
body $12 $13 $-1 $14 #
body $15 $16 $-1 $17 #
body $18 $19 $-1 $20 #
body $21 $22 $-1 $23 #
body $24 $25 $-1 $26 #
body $27 $28 $-1 $29 #
shell $-1 $-1 $-1 $30 $-1 $3 #
model_id-kcp-attrib $-1 $-1 $-1 $5 1 990548718 70 1095106562 1 #
lump $-1 $-1 $31 $5 #
transform $-1 1 0 0 0 1 0 0 0 1 0 0 0 1 no_rotate no_reflect no_shear #
rgb_color-st-attrib $-1 $32 $-1 $6 0.5 1 1 #
lump $-1 $-1 $33 $6 #
transform $-1 1 0 0 0 1 0 0 0 1 0 0 0 1 no_rotate no_reflect no_shear #
rgb_color-st-attrib $-1 $34 $-1 $7 1 0.5 1 #
lump $-1 $-1 $35 $7 #
transform $-1 1 0 0 0 1 0 0 0 1 0 0 0 1 no_rotate no_reflect no_shear #
rgb_color-st-attrib $-1 $36 $-1 $8 1 0.5 1 #
lump $-1 $-1 $37 $8 #
transform $-1 1 0 0 0 1 0 0 0 1 0 0 0 1 no_rotate no_reflect no_shear #
rgb_color-st-attrib $-1 $38 $-1 $9 1 0.5 1 #
lump $-1 $-1 $39 $9 #
transform $-1 1 0 0 0 1 0 0 0 1 0 0 0 1 no_rotate no_reflect no_shear #
rgb_color-st-attrib $-1 $40 $-1 $10 1 0.5 1 #
lump $-1 $-1 $41 $10 #
transform $-1 1 0 0 0 1 0 0 0 1 0 0 0 1 no_rotate no_reflect no_shear #
face $42 $43 $44 $11 $-1 $45 forward single #
shell $-1 $-1 $-1 $46 $-1 $13 #
model_id-kcp-attrib $-1 $-1 $15 $6 1 990548718 280 1092091907 1 #
shell $-1 $-1 $-1 $47 $-1 $16 #
model_id-kcp-attrib $-1 $-1 $18 $7 1 990548718 540 1092354052 1 #
shell $-1 $-1 $-1 $48 $-1 $19 #
model_id-kcp-attrib $-1 $-1 $21 $8 1 990548718 610 1096941573 1 #
shell $-1 $-1 $-1 $49 $-1 $22 #
model_id-kcp-attrib $-1 $-1 $24 $9 1 990548718 690 1102184454 1 #
shell $-1 $-1 $-1 $50 $-1 $25 #
model_id-kcp-attrib $-1 $-1 $27 $10 1 990548718 771 1090715655 1 #
shell $-1 $-1 $-1 $51 $-1 $28 #
model_id-kcp-attrib $-1 $-1 $-1 $30 1 990548718 70 1095106561 2 #
face $52 $53 $54 $11 $-1 $55 forward single #
loop $-1 $-1 $56 $30 #
plane-surface $-1 2.5 8.60422844084496e-015 12.5 -1 -3.44169137633799e-015 0 0 0 1 forward_v I I I I #
face $57 $58 $59 $31 $-1 $60 forward single #
face $-1 $61 $62 $33 $-1 $63 reversed single #
face $-1 $64 $65 $35 $-1 $66 forward single #
face $-1 $67 $68 $37 $-1 $69 forward single #
face $-1 $70 $71 $39 $-1 $72 forward single #
face $-1 $73 $74 $41 $-1 $75 forward single #
model_id-kcp-attrib $-1 $-1 $-1 $43 1 990548718 70 1095106561 3 #
face $76 $77 $78 $11 $-1 $79 reversed single #
loop $-1 $-1 $80 $43 #
plane-surface $-1 -2.5 -8.60422844084496e-015 12.5 1 3.44169137633799e-015 0 0 0 -1 forward_v I I I I #
coedge $-1 $81 $82 $83 $84 reversed $44 $-1 #
model_id-kcp-attrib $-1 $85 $-1 $46 1 990548718 70 1095106562 3 #
face $86 $87 $88 $31 $-1 $89 reversed single #
loop $-1 $-1 $90 $46 #
plane-surface $-1 0 0 25 0 0 1 1 0 0 forward_v I I I I #
face $-1 $91 $92 $33 $-1 $93 reversed single #
loop $-1 $-1 $94 $47 #
plane-surface $-1 50.000000000000007 49.999999999999957 25 1 0 0 0 0 -1 forward_v I I I I #
face $-1 $95 $96 $35 $-1 $97 forward single #
loop $-1 $-1 $98 $48 #
plane-surface $-1 -49.999999999999964 50.000000000000014 25 0 1 0 0 0 -1 forward_v I I I I #
face $-1 $99 $100 $37 $-1 $101 forward single #
loop $-1 $-1 $102 $49 #
plane-surface $-1 -50.000000000000021 -49.999999999999957 25 -1 0 0 0 0 1 forward_v I I I I #
face $-1 $103 $104 $39 $-1 $105 forward single #
loop $-1 $-1 $106 $50 #
plane-surface $-1 -49.999999999999964 50.000000000000014 25 0 1 0 0 0 -1 forward_v I I I I #
face $-1 $107 $108 $41 $-1 $109 forward single #
loop $-1 $-1 $110 $51 #
plane-surface $-1 50.00000000000005 -49.999999999999957 25 0 -1 0 0 0 1 forward_v I I I I #
model_id-kcp-attrib $-1 $-1 $-1 $53 1 990548718 70 1095106561 4 #
face $111 $112 $113 $11 $-1 $114 forward single #
loop $-1 $-1 $115 $53 #
plane-surface $-1 0 -50 0 0 1 0 0 0 1 forward_v I I I I #
coedge $-1 $116 $117 $118 $119 reversed $54 $-1 #
coedge $-1 $120 $56 $121 $122 reversed $44 $-1 #
coedge $-1 $56 $120 $123 $124 reversed $44 $-1 #
coedge $-1 $125 $126 $56 $84 forward $127 $-1 #
edge $-1 $128 -49.999999999999979 $129 50.000000000000021 $83 $130 forward 7 unknown #
model_id-kcp-attrib $-1 $-1 $57 $46 1 990548718 70 1095106562 2 #
model_id-kcp-attrib $-1 $-1 $-1 $58 1 990548718 70 1095106562 4 #
face $-1 $131 $132 $31 $-1 $133 reversed single #
loop $-1 $-1 $134 $58 #
plane-surface $-1 0 0 -25 0 0 1 1 0 0 forward_v I I I I #
coedge $-1 $135 $136 $137 $138 forward $59 $-1 #
face $-1 $139 $140 $33 $-1 $141 reversed single #
loop $-1 $-1 $142 $61 #
plane-surface $-1 50.00000000000005 -49.999999999999957 25 0 -1 0 0 0 1 forward_v I I I I #
coedge $-1 $143 $144 $145 $146 reversed $62 $-1 #
face $-1 $147 $148 $35 $-1 $149 forward single #
loop $-1 $-1 $150 $64 #
plane-surface $-1 50.000000000000007 49.999999999999957 25 1 0 0 0 0 -1 forward_v I I I I #
coedge $-1 $151 $152 $153 $154 forward $65 $-1 #
face $-1 $155 $156 $37 $-1 $157 forward single #
loop $-1 $-1 $158 $67 #
plane-surface $-1 50.00000000000005 -49.999999999999957 25 0 -1 0 0 0 1 forward_v I I I I #
coedge $-1 $159 $160 $161 $162 forward $68 $-1 #
face $-1 $163 $164 $39 $-1 $165 forward single #
loop $-1 $-1 $166 $70 #
plane-surface $-1 -50.000000000000021 -49.999999999999957 25 -1 0 0 0 0 1 forward_v I I I I #
coedge $-1 $167 $168 $169 $170 forward $71 $-1 #
face $-1 $171 $172 $41 $-1 $173 forward single #
loop $-1 $-1 $174 $73 #
plane-surface $-1 50.000000000000007 49.999999999999957 25 1 0 0 0 0 -1 forward_v I I I I #
coedge $-1 $175 $176 $177 $178 forward $74 $-1 #
model_id-kcp-attrib $-1 $179 $-1 $77 1 990548718 70 1095106561 20 #
face $180 $181 $182 $11 $-1 $114 forward single #
loop $-1 $-1 $183 $77 #
plane-surface $-1 0 0 0 0 0 1 0.70710678118654602 -0.70710678118654902 0 forward_v I I I I #
coedge $-1 $184 $185 $117 $186 forward $78 $-1 #
coedge $-1 $187 $80 $188 $189 reversed $54 $-1 #
coedge $-1 $80 $187 $115 $186 reversed $54 $-1 #
coedge $-1 $190 $191 $80 $119 forward $127 $-1 #
edge $-1 $192 -50.000000000000021 $193 49.999999999999979 $118 $194 forward 7 unknown #
coedge $-1 $82 $81 $183 $195 reversed $44 $-1 #
coedge $-1 $196 $197 $81 $122 forward $78 $-1 #
edge $-1 $198 6.25 $128 11.678932188134759 $121 $199 forward 7 unknown #
coedge $-1 $200 $201 $82 $124 forward $202 $-1 #
edge $-1 $129 -11.67893218813429 $203 -6.25 $123 $204 forward 7 unknown #
coedge $-1 $191 $83 $201 $205 reversed $127 $-1 #
coedge $-1 $83 $190 $196 $206 reversed $127 $-1 #
loop $-1 $-1 $118 $181 #
vertex $-1 $122 $207 #
vertex $-1 $205 $208 #
straight-curve $-1 2.5 -2.46885013108227e-014 -5.4289321881345201 0 1 3.4914813388431298e-015 I I #
face $-1 $209 $210 $31 $-1 $211 reversed single #
loop $-1 $-1 $212 $87 #
plane-surface $-1 0 -100.00000000000006 0 0 1 0 0 0 1 forward_v I I I I #
coedge $-1 $213 $214 $215 $216 forward $88 $-1 #
coedge $-1 $217 $90 $218 $219 forward $59 $-1 #
coedge $-1 $90 $217 $220 $221 forward $59 $-1 #
coedge $-1 $222 $223 $90 $138 reversed $224 $-1 #
edge $-1 $225 -100.00000000000006 $226 100.00000000000006 $137 $227 forward 7 unknown #
face $-1 $228 $229 $33 $-1 $230 reversed single #
loop $-1 $-1 $231 $91 #
plane-surface $-1 -50.000000000000021 -49.999999999999957 25 -1 0 0 0 0 1 forward_v I I I I #
coedge $-1 $232 $233 $234 $235 reversed $92 $-1 #
coedge $-1 $236 $94 $237 $238 forward $62 $-1 #
coedge $-1 $94 $236 $232 $239 forward $62 $-1 #
coedge $-1 $234 $240 $94 $146 forward $241 $-1 #
edge $-1 $242 -24.999999999999979 $243 74.999999999999943 $145 $244 forward 7 unknown #
face $-1 $245 $246 $35 $-1 $247 forward single #
loop $-1 $-1 $248 $95 #
plane-surface $-1 50.000000000000007 20.710678118654783 25 0 0 1 1 0 0 forward_v I I I I #
coedge $-1 $249 $250 $251 $252 forward $96 $-1 #
coedge $-1 $253 $98 $254 $255 reversed $65 $-1 #
coedge $-1 $98 $253 $249 $256 forward $65 $-1 #
coedge $-1 $251 $257 $98 $154 reversed $246 $-1 #
edge $-1 $258 -64.644660940672651 $259 -35.355339059327321 $153 $260 forward 7 unknown #
face $-1 $261 $262 $37 $-1 $263 forward single #
loop $-1 $-1 $264 $99 #
plane-surface $-1 -20.71067811865468 -50.000000000000007 0 0 0 -1 -1 0 0 forward_v I I I I #
coedge $-1 $265 $266 $264 $267 forward $100 $-1 #
coedge $-1 $268 $102 $266 $269 reversed $68 $-1 #
coedge $-1 $102 $268 $270 $271 reversed $68 $-1 #
coedge $-1 $272 $264 $102 $162 reversed $156 $-1 #
edge $-1 $273 -29.289321881345167 $274 6.3948846218409017e-014 $161 $275 forward 7 unknown #
face $-1 $276 $277 $39 $-1 $278 forward single #
loop $-1 $-1 $279 $103 #
plane-surface $-1 -50.000000000000007 20.71067811865468 0 0 0 -1 -1 0 0 forward_v I I I I #
coedge $-1 $280 $281 $279 $282 forward $104 $-1 #
coedge $-1 $283 $106 $281 $284 reversed $71 $-1 #
coedge $-1 $106 $283 $285 $286 reversed $71 $-1 #
coedge $-1 $287 $279 $106 $170 reversed $164 $-1 #
edge $-1 $288 -29.289321881345167 $289 6.3948846218409017e-014 $169 $290 forward 7 unknown #
face $-1 $291 $292 $41 $-1 $293 forward single #
loop $-1 $-1 $294 $107 #
plane-surface $-1 50.000000000000007 -20.71067811865468 0 0 0 -1 -1 0 0 forward_v I I I I #
coedge $-1 $295 $296 $294 $297 forward $108 $-1 #
coedge $-1 $298 $110 $296 $299 forward $74 $-1 #
coedge $-1 $110 $298 $300 $301 reversed $74 $-1 #
coedge $-1 $302 $294 $110 $178 reversed $172 $-1 #
edge $-1 $303 -29.289321881345209 $304 2.1316282072803006e-014 $177 $305 forward 7 unknown #
model_id-kcp-attrib $-1 $-1 $111 $77 1 990548718 70 1095106561 5 #
model_id-kcp-attrib $-1 $-1 $-1 $112 1 990548718 70 1095106561 6 #
face $306 $307 $127 $11 $-1 $308 reversed single #
loop $-1 $-1 $309 $112 #
coedge $-1 $310 $311 $120 $195 forward $113 $-1 #
coedge $-1 $312 $115 $313 $314 reversed $78 $-1 #
coedge $-1 $115 $196 $190 $315 forward $78 $-1 #
edge $-1 $193 -11.67893218813464 $316 -6.25 $115 $317 forward 7 unknown #
coedge $-1 $117 $116 $309 $318 reversed $54 $-1 #
coedge $-1 $319 $320 $116 $189 forward $202 $-1 #
edge $-1 $321 6.25 $192 11.678932188134411 $188 $322 forward 7 unknown #
coedge $-1 $126 $118 $185 $315 reversed $127 $-1 #
coedge $-1 $118 $125 $319 $323 reversed $127 $-1 #
vertex $-1 $189 $324 #
vertex $-1 $315 $325 #
straight-curve $-1 -2.5 -2.46885013108227e-014 -5.4289321881345201 0 -1 -3.4914813388431298e-015 I I #
edge $326 $203 -49.999999999999993 $198 50.000000000000007 $183 $327 forward 7 unknown #
coedge $-1 $185 $121 $126 $206 forward $78 $-1 #
coedge $-1 $121 $328 $310 $329 reversed $78 $-1 #
vertex $-1 $195 $330 #
straight-curve $-1 2.5000000000001701 -50 6.25 0 0 -1 I I #
coedge $-1 $331 $123 $311 $332 reversed $202 $-1 #
coedge $-1 $123 $319 $125 $205 forward $202 $-1 #
loop $-1 $-1 $188 $333 #
vertex $-1 $332 $334 #
straight-curve $-1 2.4999999999998299 50 6.25 0 0 1 I I #
edge $-1 $335 0 $129 1.2309594173407976 $201 $336 forward 7 unknown #
edge $-1 $128 -1.2309594173407516 $337 0 $196 $338 forward 7 unknown #
point $-1 2.5000000000001701 -50 -5.4289321881347599 #
point $-1 2.4999999999998299 50 -5.42893218813429 #
face $-1 $339 $340 $31 $-1 $341 reversed single #
loop $-1 $-1 $342 $131 #
plane-surface $-1 -100.00000000000006 0 0 1 0 0 0 0 -1 forward_v I I I I #
coedge $-1 $343 $220 $344 $345 forward $132 $-1 #
coedge $-1 $346 $134 $343 $347 forward $88 $-1 #
coedge $-1 $134 $346 $348 $349 forward $88 $-1 #
coedge $-1 $223 $222 $134 $216 reversed $224 $-1 #
edge $-1 $350 -100.00000000000006 $351 100.00000000000006 $215 $352 forward 7 unknown #
coedge $-1 $136 $135 $353 $354 forward $59 $-1 #
coedge $-1 $355 $356 $135 $219 reversed $340 $-1 #
edge $-1 $226 -100.00000000000006 $357 100.00000000000006 $218 $358 forward 7 unknown #
coedge $-1 $212 $359 $136 $221 reversed $132 $-1 #
edge $-1 $360 -100.00000000000006 $225 100.00000000000006 $220 $361 forward 7 unknown #
coedge $-1 $215 $137 $359 $362 forward $224 $-1 #
coedge $-1 $137 $215 $355 $363 reversed $224 $-1 #
loop $-1 $-1 $222 $339 #
vertex $-1 $138 $364 #
vertex $-1 $138 $365 #
straight-curve $-1 100.00000000000006 0 25 0 1 0 I I #
face $-1 $366 $241 $33 $-1 $367 forward single #
loop $-1 $-1 $368 $139 #
plane-surface $-1 -49.999999999999964 50.000000000000014 25 0 1 0 0 0 -1 forward_v I I I I #
coedge $-1 $369 $370 $371 $372 reversed $140 $-1 #
coedge $-1 $373 $142 $144 $239 reversed $92 $-1 #
coedge $-1 $142 $373 $369 $374 reversed $92 $-1 #
coedge $-1 $371 $145 $142 $235 forward $241 $-1 #
edge $-1 $243 -25.000000000000025 $375 75.000000000000043 $234 $376 forward 7 unknown #
coedge $-1 $144 $143 $377 $378 reversed $62 $-1 #
coedge $-1 $368 $379 $143 $238 reversed $229 $-1 #
edge $-1 $242 0 $380 50 $237 $381 forward 7 unknown #
edge $-1 $382 -50 $243 0 $232 $383 forward 7 unknown #
coedge $-1 $145 $371 $368 $384 forward $241 $-1 #
loop $-1 $385 $371 $228 #
vertex $-1 $384 $386 #
vertex $-1 $146 $387 #
straight-curve $-1 50.000000000000007 24.999999999999979 25 0 -1 0 I I #
face $-1 $-1 $388 $35 $-1 $389 reversed single #
loop $-1 $-1 $251 $147 #
plane-surface $-1 20.71067811865468 50.000000000000007 0 0 0 -1 -1 0 0 forward_v I I I I #
coedge $-1 $390 $391 $392 $393 reversed $148 $-1 #
coedge $-1 $392 $150 $152 $256 reversed $96 $-1 #
coedge $-1 $150 $392 $394 $395 reversed $96 $-1 #
coedge $-1 $257 $153 $150 $252 reversed $246 $-1 #
edge $-1 $396 -29.289321881345167 $258 6.3948846218409017e-014 $251 $397 forward 7 unknown #
coedge $-1 $152 $151 $390 $398 forward $65 $-1 #
coedge $-1 $399 $400 $151 $255 forward $388 $-1 #
edge $401 $402 -6.25 $259 18.75 $254 $403 forward 7 unknown #
edge $-1 $404 0 $258 25 $152 $405 forward 7 unknown #
coedge $-1 $153 $251 $399 $406 reversed $246 $-1 #
vertex $-1 $154 $407 #
vertex $-1 $406 $408 #
straight-curve $-1 -14.644660940672642 50.000000000000014 0 -1 0 0 I I #
face $-1 $-1 $409 $37 $-1 $410 forward single #
loop $-1 $-1 $411 $155 #
plane-surface $-1 -50.000000000000021 -20.710678118654769 25 0 0 1 1 0 0 forward_v I I I I #
coedge $-1 $161 $272 $158 $267 reversed $156 $-1 #
coedge $-1 $412 $158 $413 $414 reversed $100 $-1 #
coedge $-1 $158 $412 $159 $269 forward $100 $-1 #
edge $-1 $274 -64.644660940672694 $415 -35.355339059327363 $264 $416 forward 7 unknown #
coedge $-1 $160 $159 $417 $418 forward $68 $-1 #
edge $-1 $419 0 $274 25 $266 $420 forward 7 unknown #
coedge $-1 $421 $422 $160 $271 forward $409 $-1 #
edge $423 $273 -18.75 $424 6.25 $270 $425 forward 7 unknown #
coedge $-1 $264 $161 $422 $426 reversed $156 $-1 #
vertex $-1 $426 $427 #
vertex $-1 $162 $428 #
straight-curve $-1 -50.000000000000021 -49.999999999999986 0 0 -1 0 I I #
face $-1 $-1 $429 $39 $-1 $430 forward single #
loop $-1 $-1 $431 $163 #
plane-surface $-1 -20.710678118654801 50.000000000000014 25 0 0 1 1 0 0 forward_v I I I I #
coedge $-1 $169 $287 $166 $282 reversed $164 $-1 #
coedge $-1 $432 $166 $433 $434 reversed $104 $-1 #
coedge $-1 $166 $432 $167 $284 forward $104 $-1 #
edge $-1 $289 -64.644660940672651 $435 -35.355339059327321 $279 $436 forward 7 unknown #
coedge $-1 $168 $167 $437 $438 forward $71 $-1 #
edge $-1 $439 0 $289 25 $281 $440 forward 7 unknown #
coedge $-1 $441 $442 $168 $286 forward $429 $-1 #
edge $443 $288 -18.75 $444 6.25 $285 $445 forward 7 unknown #
coedge $-1 $279 $169 $442 $446 reversed $164 $-1 #
vertex $-1 $446 $447 #
vertex $-1 $170 $448 #
straight-curve $-1 -49.999999999999986 50.000000000000014 0 -1 0 0 I I #
face $-1 $-1 $449 $41 $-1 $450 reversed single #
loop $-1 $-1 $451 $171 #
plane-surface $-1 20.710678118654862 -49.999999999999957 25 0 0 1 1 0 0 forward_v I I I I #
coedge $-1 $177 $302 $174 $297 reversed $172 $-1 #
coedge $-1 $452 $174 $453 $454 reversed $108 $-1 #
coedge $-1 $174 $452 $175 $299 reversed $108 $-1 #
edge $-1 $304 -64.644660940672651 $455 -35.355339059327321 $294 $456 forward 7 unknown #
coedge $-1 $176 $175 $457 $458 forward $74 $-1 #
edge $-1 $304 -25 $459 0 $175 $460 forward 7 unknown #
coedge $-1 $461 $462 $176 $301 forward $449 $-1 #
edge $463 $303 -18.75 $464 6.25 $300 $465 forward 7 unknown #
coedge $-1 $294 $177 $462 $466 reversed $172 $-1 #
vertex $-1 $466 $467 #
vertex $-1 $178 $468 #
straight-curve $-1 50.000000000000028 -49.999999999999957 0 1 0 0 I I #
model_id-kcp-attrib $-1 $-1 $-1 $181 1 990548718 70 1095106561 7 #
face $469 $470 $471 $11 $-1 $472 forward single #
cone-surface $-1 0 0 -12.5 0 -1 -3.4914813388431298e-015 7.5 0 0 1 I I 0 1 7.5 forward I I I I #
coedge $-1 $473 $313 $187 $318 forward $182 $-1 #
coedge $-1 $474 $183 $197 $329 forward $113 $-1 #
coedge $-1 $183 $475 $200 $332 forward $113 $-1 #
coedge $-1 $476 $184 $477 $478 reversed $78 $-1 #
coedge $-1 $309 $479 $184 $314 forward $182 $-1 #
edge $-1 $480 -20.710678118654801 $316 -2.4999999999998299 $184 $481 forward 7 unknown #
edge $-1 $337 0 $193 4.3725520709305927 $185 $338 forward 7 unknown #
vertex $-1 $314 $482 #
straight-curve $-1 -2.4999999999998299 -50 6.25 0 0 1 I I #
edge $-1 $316 -49.999999999999993 $321 50.000000000000007 $309 $483 forward 7 unknown #
coedge $-1 $201 $188 $191 $323 forward $202 $-1 #
coedge $-1 $188 $484 $473 $485 reversed $202 $-1 #
vertex $-1 $318 $486 #
straight-curve $-1 -2.5000000000001701 50 6.25 0 0 -1 I I #
edge $-1 $192 1.9106332362490437 $335 6.2831853071795862 $319 $336 forward 7 unknown #
point $-1 -2.5000000000001701 50 -5.4289321881344099 #
point $-1 -2.4999999999998299 -50 -5.42893218813464 #
attrib_edge_convexity-kcp-attrib $-1 $487 $-1 $195 1 #
straight-curve $-1 2.5 8.60422844084496e-015 -8.8817841970012504e-016 3.4416913763379801e-015 -1 0 I I #
coedge $-1 $197 $476 $488 $489 reversed $78 $-1 #
edge $490 $198 2.5000000000001701 $491 20.710678118654702 $197 $481 forward 7 unknown #
point $-1 2.5000000000001701 -50 0 #
coedge $-1 $492 $200 $493 $494 reversed $202 $-1 #
edge $495 $496 -20.710678118654801 $203 -2.4999999999998299 $200 $497 forward 7 unknown #
face $498 $499 $202 $11 $-1 $500 reversed single #
point $-1 2.4999999999998299 50 0 #
vertex $-1 $323 $501 #
ellipse-curve $-1 0 50 -12.499999999999799 0 -1 0 7.5 0 0 1 I I #
vertex $-1 $206 $502 #
ellipse-curve $-1 0 -50 -12.500000000000201 0 1 0 7.5 0 0 1 I I #
face $-1 $-1 $224 $31 $-1 $503 reversed single #
loop $-1 $-1 $355 $209 #
plane-surface $-1 0 100.00000000000006 0 0 -1 0 0 0 -1 forward_v I I I I #
coedge $-1 $504 $353 $356 $505 forward $210 $-1 #
coedge $-1 $359 $212 $213 $347 reversed $132 $-1 #
coedge $-1 $353 $504 $212 $345 reversed $210 $-1 #
edge $-1 $360 -25 $506 25 $344 $507 forward 7 unknown #
coedge $-1 $214 $213 $504 $508 forward $88 $-1 #
edge $-1 $351 -100.00000000000006 $506 100.00000000000006 $343 $509 forward 7 unknown #
coedge $-1 $356 $355 $214 $349 reversed $340 $-1 #
edge $-1 $510 -100.00000000000006 $350 100.00000000000006 $348 $511 forward 7 unknown #
vertex $-1 $216 $512 #
vertex $-1 $362 $513 #
straight-curve $-1 100.00000000000006 0 -25 0 -1 0 I I #
coedge $-1 $342 $344 $217 $354 reversed $210 $-1 #
edge $-1 $357 -100.00000000000006 $360 100.00000000000006 $353 $514 forward 7 unknown #
coedge $-1 $348 $218 $223 $363 forward $340 $-1 #
coedge $-1 $218 $348 $342 $505 reversed $340 $-1 #
vertex $-1 $219 $515 #
straight-curve $-1 0 100.00000000000006 25 -1 0 0 I I #
coedge $-1 $220 $343 $222 $362 reversed $132 $-1 #
vertex $-1 $354 $516 #
straight-curve $-1 0 -100.00000000000006 25 1 0 0 I I #
edge $-1 $225 -25 $351 25 $222 $517 forward 7 unknown #
edge $-1 $226 -25 $350 25 $223 $518 forward 7 unknown #
point $-1 100.00000000000006 -100.00000000000006 25 #
point $-1 100.00000000000006 100.00000000000006 25 #
face $-1 $519 $520 $33 $-1 $521 reversed single #
plane-surface $-1 0 0 25 0 0 1 1 0 0 forward_v I I I I #
coedge $-1 $522 $237 $240 $384 reversed $229 $-1 #
coedge $-1 $523 $231 $233 $374 forward $140 $-1 #
coedge $-1 $231 $523 $522 $524 reversed $140 $-1 #
coedge $-1 $240 $234 $231 $372 forward $241 $-1 #
edge $-1 $375 -24.999999999999979 $525 75 $371 $526 forward 7 unknown #
coedge $-1 $233 $232 $527 $528 reversed $92 $-1 #
edge $-1 $375 0 $529 50 $233 $530 forward 7 unknown #
vertex $-1 $372 $531 #
straight-curve $-1 25.000000000000025 -49.999999999999957 25 -1 0 0 I I #
coedge $-1 $532 $527 $236 $378 forward $520 $-1 #
edge $-1 $382 -74.999999999999943 $380 24.999999999999979 $377 $533 forward 7 unknown #
coedge $-1 $237 $522 $532 $534 reversed $229 $-1 #
vertex $-1 $534 $535 #
straight-curve $-1 50.000000000000007 49.999999999999957 25 0 0 -1 I I #
vertex $-1 $378 $536 #
straight-curve $-1 50.00000000000005 -49.999999999999957 25 0 0 1 I I #
edge $-1 $525 -24.999999999999982 $242 74.999999999999986 $240 $537 forward 7 unknown #
loop $-1 $-1 $538 $228 #
point $-1 50.000000000000007 49.999999999999957 25 #
point $-1 50.00000000000005 -49.999999999999957 25 #
loop $-1 $-1 $399 $245 #
plane-surface $-1 35.355339059327321 35.355339059327392 12.500000000000005 0.70710678118654613 0.70710678118654891 -2.3996636980479791e-017 -3.3936369469138343e-017 0 -1 forward_v I I I I #
coedge $-1 $391 $248 $253 $398 reversed $148 $-1 #
coedge $-1 $248 $390 $400 $539 reversed $148 $-1 #
coedge $-1 $250 $249 $248 $393 forward $96 $-1 #
edge $-1 $404 -14.644660940672587 $540 14.644660940672587 $248 $541 forward 7 unknown #
coedge $-1 $400 $399 $250 $395 forward $388 $-1 #
edge $542 $396 -18.75 $540 6.25 $394 $543 forward 7 unknown #
vertex $-1 $406 $544 #
straight-curve $-1 50.000000000000007 49.999999999999986 0 0 1 0 I I #
edge $-1 $402 20.710678118654638 $404 49.999999999999986 $390 $545 forward 7 unknown #
coedge $-1 $394 $254 $257 $406 forward $388 $-1 #
coedge $-1 $254 $394 $391 $539 forward $388 $-1 #
convexity-sys-attrib $-1 $-1 $-1 $255 #
vertex $-1 $539 $546 #
straight-curve $-1 20.710678118654648 50.000000000000014 18.75 0 0 -1 I I #
vertex $-1 $398 $547 #
straight-curve $-1 50.000000000000007 49.999999999999957 25 0 0 -1 I I #
edge $548 $259 -20.710678118654727 $396 20.710678118654776 $257 $549 forward 7 unknown #
point $-1 50.000000000000014 50.00000000000005 0 #
point $-1 20.71067811865468 50.000000000000007 0 #
loop $-1 $-1 $422 $261 #
plane-surface $-1 -35.355339059327349 -35.355339059327378 12.5 0.70710678118654602 0.70710678118654902 3.3595291772668393e-017 4.7510917256789002e-017 0 -1 forward_v I I I I #
coedge $-1 $550 $417 $412 $551 reversed $262 $-1 #
coedge $-1 $266 $265 $411 $551 forward $100 $-1 #
coedge $-1 $422 $421 $265 $414 forward $409 $-1 #
edge $552 $553 -6.25 $415 18.75 $413 $554 forward 7 unknown #
vertex $-1 $426 $555 #
straight-curve $-1 14.644660940672685 -49.999999999999957 0 1 0 0 I I #
coedge $-1 $411 $550 $268 $418 reversed $262 $-1 #
edge $-1 $419 -14.644660940672594 $424 14.644660940672594 $417 $556 forward 7 unknown #
vertex $-1 $418 $557 #
straight-curve $-1 -50.000000000000021 -49.999999999999957 25 0 0 -1 I I #
coedge $-1 $413 $270 $550 $558 forward $409 $-1 #
coedge $-1 $270 $413 $272 $426 forward $409 $-1 #
convexity-sys-attrib $-1 $-1 $-1 $271 #
vertex $-1 $271 $559 #
straight-curve $-1 -50.000000000000021 -20.710678118654773 18.75 0 0 1 I I #
edge $560 $415 -20.710678118654727 $273 20.710678118654776 $272 $561 forward 7 unknown #
point $-1 -49.999999999999986 -20.710678118654819 0 #
point $-1 -50.000000000000014 -50.00000000000005 0 #
loop $-1 $-1 $442 $276 #
plane-surface $-1 -35.355339059327406 35.355339059327335 12.500000000000002 0.70710678118654902 -0.70710678118654602 6.7190583545344429e-017 9.5021834513588407e-017 0 -1 forward_v I I I I #
coedge $-1 $562 $437 $432 $563 reversed $277 $-1 #
coedge $-1 $281 $280 $431 $563 forward $104 $-1 #
coedge $-1 $442 $441 $280 $434 forward $429 $-1 #
edge $564 $565 -6.25 $435 18.75 $433 $566 forward 7 unknown #
vertex $-1 $446 $567 #
straight-curve $-1 -50.000000000000021 -14.644660940672638 0 0 -1 0 I I #
coedge $-1 $431 $562 $283 $438 reversed $277 $-1 #
edge $-1 $439 -14.64466094067258 $444 14.644660940672583 $437 $568 forward 7 unknown #
vertex $-1 $438 $569 #
straight-curve $-1 -49.999999999999964 50.000000000000014 25 0 0 -1 I I #
coedge $-1 $433 $285 $562 $570 forward $429 $-1 #
coedge $-1 $285 $433 $287 $446 forward $429 $-1 #
convexity-sys-attrib $-1 $-1 $-1 $286 #
vertex $-1 $286 $571 #
straight-curve $-1 -20.710678118654812 50.000000000000014 18.75 0 0 1 I I #
edge $572 $435 -20.710678118654712 $288 20.710678118654791 $287 $573 forward 7 unknown #
point $-1 -20.710678118654819 49.999999999999986 0 #
point $-1 -50.00000000000005 50.000000000000014 0 #
loop $-1 $-1 $462 $291 #
plane-surface $-1 35.355339059327427 -35.355339059327321 12.499999999999995 0.70710678118654902 -0.70710678118654602 4.7993273960942815e-018 6.7872738938252699e-018 0 -1 forward_v I I I I #
coedge $-1 $574 $457 $452 $575 reversed $292 $-1 #
coedge $-1 $296 $295 $451 $575 forward $108 $-1 #
coedge $-1 $462 $461 $295 $454 forward $449 $-1 #
edge $576 $577 -6.25 $455 18.75 $453 $578 forward 7 unknown #
vertex $-1 $466 $579 #
straight-curve $-1 50.000000000000007 14.644660940672638 0 0 1 0 I I #
coedge $-1 $451 $574 $298 $458 reversed $292 $-1 #
edge $-1 $459 -14.644660940672594 $464 14.644660940672594 $457 $580 forward 7 unknown #
vertex $-1 $458 $581 #
straight-curve $-1 50.00000000000005 -49.999999999999957 25 0 0 1 I I #
coedge $-1 $453 $300 $574 $582 forward $449 $-1 #
coedge $-1 $300 $453 $302 $466 forward $449 $-1 #
convexity-sys-attrib $-1 $-1 $-1 $301 #
vertex $-1 $301 $583 #
straight-curve $-1 20.710678118654869 -49.999999999999957 18.75 0 0 1 I I #
edge $584 $455 -20.710678118654712 $303 20.710678118654791 $302 $585 forward 7 unknown #
point $-1 20.710678118654819 -49.999999999999986 0 #
point $-1 50.00000000000005 -50.000000000000014 0 #
model_id-kcp-attrib $-1 $-1 $-1 $307 1 990548718 70 1095106561 8 #
face $586 $587 $588 $11 $-1 $472 forward single #
loop $-1 $-1 $589 $307 #
plane-surface $-1 0 0 -25 0 0 1 0.70710678118654602 -0.70710678118654902 0 forward_v I I I I #
coedge $-1 $590 $309 $320 $485 forward $182 $-1 #
coedge $-1 $591 $310 $592 $593 forward $113 $-1 #
coedge $-1 $311 $591 $594 $595 forward $113 $-1 #
coedge $-1 $328 $312 $596 $597 forward $78 $-1 #
coedge $-1 $598 $599 $312 $478 forward $600 $-1 #
edge $601 $602 -12.5 $480 12.5 $312 $603 forward 7 unknown #
coedge $-1 $313 $604 $598 $605 forward $182 $-1 #
vertex $-1 $314 $606 #
straight-curve $-1 0 -50 0 1 0 0 I I #
point $-1 -2.4999999999998299 -50 0 #
straight-curve $-1 -2.5 -8.60422844084496e-015 -8.8817841970012504e-016 -3.4416913763379801e-015 1 0 I I #
coedge $-1 $320 $492 $607 $608 reversed $202 $-1 #
edge $-1 $321 2.5000000000001701 $609 20.710678118654702 $320 $497 forward 7 unknown #
point $-1 -2.5000000000001701 50 0 #
convexity-sys-attrib $-1 $-1 $326 $195 #
coedge $-1 $610 $592 $328 $489 forward $611 $-1 #
edge $-1 $491 -12.5 $612 12.5 $328 $613 forward 7 unknown #
attrib_edge_convexity-kcp-attrib $-1 $614 $-1 $329 1 #
vertex $-1 $329 $615 #
coedge $-1 $484 $331 $589 $616 forward $202 $-1 #
coedge $-1 $594 $617 $331 $494 forward $618 $-1 #
edge $-1 $619 -12.5 $496 12.5 $331 $620 forward 7 unknown #
attrib_edge_convexity-kcp-attrib $-1 $621 $-1 $332 1 #
vertex $-1 $332 $622 #
straight-curve $-1 0 50 0 -1 0 0 I I #
model_id-kcp-attrib $-1 $-1 $-1 $333 1 990548718 70 1095106561 17 #
face $623 $624 $625 $11 $-1 $626 reversed single #
plane-surface $-1 0 50 0 0 -1 0 0 0 -1 forward_v I I I I #
point $-1 7.5 50 -12.499999999999799 #
point $-1 7.5 -50 -12.500000000000201 #
plane-surface $-1 100.00000000000006 0 0 -1 0 0 0 0 1 forward_v I I I I #
coedge $-1 $344 $342 $346 $508 reversed $210 $-1 #
edge $-1 $357 -25 $510 25 $356 $627 forward 7 unknown #
vertex $-1 $508 $628 #
straight-curve $-1 -100.00000000000006 -100.00000000000006 0 0 0 -1 I I #
edge $-1 $506 -100.00000000000006 $510 100.00000000000006 $504 $629 forward 7 unknown #
straight-curve $-1 0 -100.00000000000006 -25 -1 0 0 I I #
vertex $-1 $349 $630 #
straight-curve $-1 0 100.00000000000006 -25 1 0 0 I I #
point $-1 100.00000000000006 100.00000000000006 -25 #
point $-1 100.00000000000006 -100.00000000000006 -25 #
straight-curve $-1 -100.00000000000006 0 25 0 -1 0 I I #
point $-1 -100.00000000000006 100.00000000000006 25 #
point $-1 -100.00000000000006 -100.00000000000006 25 #
straight-curve $-1 100.00000000000006 -100.00000000000006 0 0 0 -1 I I #
straight-curve $-1 100.00000000000006 100.00000000000006 0 0 0 -1 I I #
face $-1 $631 $632 $33 $-1 $633 reversed single #
loop $-1 $634 $635 $366 #
plane-surface $-1 0 0 -25 0 0 1 1 0 0 forward_v I I I I #
coedge $-1 $379 $368 $370 $524 forward $229 $-1 #
coedge $-1 $370 $369 $635 $636 reversed $140 $-1 #
edge $-1 $525 0 $637 50 $370 $638 forward 7 unknown #
vertex $-1 $372 $639 #
straight-curve $-1 -50.000000000000021 -24.999999999999979 25 0 1 0 I I #
coedge $-1 $377 $635 $373 $528 forward $520 $-1 #
edge $-1 $529 -75.000000000000043 $382 25.000000000000025 $527 $640 forward 7 unknown #
vertex $-1 $636 $641 #
straight-curve $-1 -50.000000000000021 -49.999999999999957 25 0 0 -1 I I #
point $-1 -50.000000000000021 -49.999999999999957 25 #
coedge $-1 $635 $377 $379 $534 forward $520 $-1 #
straight-curve $-1 50.000000000000007 24.999999999999979 -25 0 1 0 I I #
edge $-1 $380 -74.999999999999986 $637 24.999999999999982 $532 $642 forward 7 unknown #
point $-1 50.000000000000007 49.999999999999957 -25 #
point $-1 50.00000000000005 -49.999999999999957 -25 #
straight-curve $-1 -24.999999999999982 50.000000000000014 25 1 0 0 I I #
coedge $-1 $643 $644 $645 $646 forward $385 $-1 #
edge $647 $540 -20.710678118654815 $402 20.710678118654748 $391 $648 forward 7 unknown #
vertex $-1 $395 $649 #
straight-curve $-1 50.000000000000007 35.35533905932737 25 0 -1 0 I I #
convexity-sys-attrib $-1 $-1 $-1 $395 #
straight-curve $-1 50.000000000000007 20.710678118654773 18.75 0 0 1 I I #
point $-1 49.999999999999986 20.710678118654819 0 #
straight-curve $-1 2.1316282072803006e-014 50.000000000000014 25 1 0 0 I I #
point $-1 20.710678118654659 50.000000000000014 25 #
point $-1 50.000000000000007 49.999999999999957 25 #
convexity-sys-attrib $-1 $-1 $-1 $406 #
straight-curve $-1 35.355339059327306 35.35533905932742 0 0.70710678118654902 -0.70710678118654602 0 I I #
coedge $-1 $417 $411 $421 $558 reversed $262 $-1 #
edge $-1 $553 20.710678118654716 $419 50.000000000000036 $411 $650 forward 7 unknown #
convexity-sys-attrib $-1 $-1 $-1 $414 #
vertex $-1 $558 $651 #
straight-curve $-1 -20.710678118654705 -49.999999999999957 18.75 0 0 -1 I I #
point $-1 -20.71067811865468 -50.000000000000007 0 #
straight-curve $-1 -50.000000000000021 -35.355339059327363 25 0 1 0 I I #
point $-1 -50.000000000000021 -49.999999999999957 25 #
edge $652 $424 -20.710678118654837 $553 20.710678118654677 $550 $653 forward 7 unknown #
point $-1 -50.000000000000021 -20.710678118654769 25 #
convexity-sys-attrib $-1 $-1 $-1 $426 #
straight-curve $-1 -35.355339059327306 -35.35533905932742 0 -0.70710678118654902 0.70710678118654602 0 I I #
coedge $-1 $437 $431 $441 $570 reversed $277 $-1 #
edge $-1 $565 20.710678118654641 $439 49.999999999999986 $431 $654 forward 7 unknown #
convexity-sys-attrib $-1 $-1 $-1 $434 #
vertex $-1 $570 $655 #
straight-curve $-1 -50.000000000000021 20.710678118654677 18.75 0 0 -1 I I #
point $-1 -50.000000000000007 20.71067811865468 0 #
straight-curve $-1 -35.355339059327385 50.000000000000014 25 1 0 0 I I #
point $-1 -49.999999999999964 50.000000000000014 25 #
edge $656 $444 -20.710678118654823 $565 20.71067811865473 $562 $657 forward 7 unknown #
point $-1 -20.710678118654801 50.000000000000014 25 #
convexity-sys-attrib $-1 $-1 $-1 $446 #
straight-curve $-1 -35.355339059327441 35.355339059327306 0 0.70710678118654602 0.70710678118654902 0 I I #
coedge $-1 $457 $451 $461 $582 reversed $292 $-1 #
edge $-1 $577 20.710678118654677 $459 49.999999999999957 $451 $658 forward 7 unknown #
convexity-sys-attrib $-1 $-1 $-1 $454 #
vertex $-1 $582 $659 #
straight-curve $-1 50.000000000000007 -20.710678118654684 18.75 0 0 -1 I I #
point $-1 50.000000000000007 -20.71067811865468 0 #
straight-curve $-1 35.355339059327456 -49.999999999999957 25 -1 0 0 I I #
point $-1 50.00000000000005 -49.999999999999957 25 #
edge $660 $464 -20.710678118654741 $577 20.710678118654716 $574 $661 forward 7 unknown #
point $-1 20.710678118654862 -49.999999999999957 25 #
convexity-sys-attrib $-1 $-1 $-1 $466 #
straight-curve $-1 35.355339059327441 -35.355339059327306 0 -0.70710678118654602 -0.70710678118654902 0 I I #
model_id-kcp-attrib $-1 $-1 $-1 $470 1 990548718 70 1095106561 9 #
face $662 $663 $664 $11 $-1 $472 forward single #
loop $-1 $-1 $665 $470 #
coedge $-1 $666 $667 $492 $616 reversed $471 $-1 #
coedge $-1 $604 $473 $668 $669 forward $182 $-1 #
coedge $-1 $475 $474 $670 $671 forward $113 $-1 #
coedge $-1 $488 $672 $474 $593 reversed $611 $-1 #
edge $673 $491 -20.71067811865472 $674 20.710678118654787 $592 $675 forward 7 unknown #
coedge $-1 $676 $493 $475 $595 reversed $618 $-1 #
edge $677 $678 -20.71067811865472 $496 20.710678118654787 $594 $679 forward 7 unknown #
coedge $-1 $680 $681 $476 $597 reversed $664 $-1 #
edge $-1 $602 -20.710678118654801 $612 20.710678118654702 $476 $682 reversed 7 unknown #
coedge $-1 $683 $477 $479 $605 reversed $600 $-1 #
coedge $-1 $477 $684 $680 $685 reversed $600 $-1 #
loop $-1 $-1 $683 $686 #
attrib_edge_convexity-kcp-attrib $-1 $687 $-1 $478 1 #
vertex $-1 $597 $688 #
straight-curve $-1 -20.710678118654801 -50 -12.5 0 0 1 I I #
coedge $-1 $479 $590 $689 $690 forward $182 $-1 #
edge $691 $692 -20.71067811865472 $480 20.710678118654787 $598 $693 forward 7 unknown #
point $-1 -20.710678118654801 -50 0 #
coedge $-1 $694 $668 $484 $608 forward $695 $-1 #
edge $696 $609 -12.5 $697 12.5 $484 $698 forward 7 unknown #
vertex $-1 $485 $699 #
coedge $-1 $700 $488 $681 $701 reversed $611 $-1 #
loop $-1 $-1 $672 $702 #
vertex $-1 $701 $703 #
straight-curve $-1 20.710678118654702 -50 -12.5 0 0 -1 I I #
convexity-sys-attrib $-1 $-1 $490 $329 #
point $-1 20.710678118654702 -50 0 #
edge $-1 $619 -20.710678118654801 $697 20.710678118654702 $492 $704 reversed 7 unknown #
coedge $-1 $493 $705 $666 $706 reversed $618 $-1 #
loop $-1 $-1 $493 $707 #
vertex $-1 $616 $708 #
straight-curve $-1 20.710678118654801 50 -12.5 0 0 1 I I #
convexity-sys-attrib $-1 $-1 $495 $332 #
point $-1 20.710678118654801 50 0 #
model_id-kcp-attrib $-1 $-1 $-1 $499 1 990548718 70 1095106561 18 #
face $709 $-1 $710 $11 $-1 $711 reversed single #
loop $-1 $-1 $712 $499 #
plane-surface $-1 50 0 0 -1 0 0 0 0 1 forward_v I I I I #
straight-curve $-1 -100.00000000000006 100.00000000000006 0 0 0 -1 I I #
point $-1 -100.00000000000006 -100.00000000000006 -25 #
straight-curve $-1 -100.00000000000006 0 -25 0 1 0 I I #
point $-1 -100.00000000000006 100.00000000000006 -25 #
face $-1 $713 $714 $33 $-1 $715 reversed single #
loop $-1 $-1 $716 $519 #
plane-surface $-1 0 -100.00000000000006 0 0 1 0 0 0 1 forward_v I I I I #
loop $-1 $-1 $717 $366 #
coedge $-1 $527 $532 $523 $636 forward $520 $-1 #
edge $-1 $637 -75 $529 24.999999999999979 $635 $718 forward 7 unknown #
vertex $-1 $636 $719 #
straight-curve $-1 -49.999999999999964 50.000000000000014 25 0 0 -1 I I #
point $-1 -49.999999999999964 50.000000000000014 25 #
straight-curve $-1 25.000000000000025 -49.999999999999957 -25 1 0 0 I I #
point $-1 -50.000000000000021 -49.999999999999957 -25 #
straight-curve $-1 -24.999999999999982 50.000000000000014 -25 -1 0 0 I I #
coedge $-1 $720 $538 $721 $722 forward $385 $-1 #
coedge $-1 $538 $720 $723 $724 forward $385 $-1 #
coedge $-1 $725 $726 $538 $646 reversed $727 $-1 #
edge $-1 $728 -100.00000000000006 $729 100.00000000000006 $645 $730 forward 7 unknown #
convexity-sys-attrib $-1 $-1 $-1 $539 #
straight-curve $-1 35.355339059327306 35.35533905932742 25 -0.70710678118654902 0.70710678118654602 0 I I #
point $-1 50.000000000000007 20.710678118654783 25 #
straight-curve $-1 1.4210854715202004e-014 -49.999999999999957 25 -1 0 0 I I #
point $-1 -20.710678118654702 -49.999999999999957 25 #
convexity-sys-attrib $-1 $-1 $-1 $558 #
straight-curve $-1 -35.355339059327306 -35.35533905932742 25 0.70710678118654902 -0.70710678118654602 0 I I #
straight-curve $-1 -50.000000000000021 2.8421709430404007e-014 25 0 1 0 I I #
point $-1 -50.000000000000021 20.71067811865467 25 #
convexity-sys-attrib $-1 $-1 $-1 $570 #
straight-curve $-1 -35.355339059327441 35.355339059327306 25 -0.70710678118654602 -0.70710678118654902 0 I I #
straight-curve $-1 50.000000000000007 0 25 0 -1 0 I I #
point $-1 50.000000000000007 -20.710678118654677 25 #
convexity-sys-attrib $-1 $-1 $-1 $582 #
straight-curve $-1 35.355339059327441 -35.355339059327306 25 0.70710678118654602 0.70710678118654902 0 I I #
model_id-kcp-attrib $-1 $-1 $-1 $587 1 990548718 70 1095106561 10 #
face $731 $732 $733 $11 $-1 $472 forward single #
loop $-1 $-1 $596 $587 #
coedge $-1 $734 $735 $736 $737 reversed $588 $-1 #
coedge $-1 $667 $589 $617 $706 forward $471 $-1 #
coedge $-1 $589 $666 $694 $738 forward $471 $-1 #
coedge $-1 $607 $739 $590 $669 reversed $695 $-1 #
edge $740 $609 -20.71067811865472 $741 20.710678118654787 $668 $742 forward 7 unknown #
coedge $-1 $743 $712 $591 $671 reversed $625 $-1 #
edge $744 $674 -20.710678118654801 $678 20.710678118654702 $670 $745 forward 7 unknown #
coedge $-1 $592 $746 $743 $747 forward $611 $-1 #
attrib_edge_convexity-kcp-attrib $-1 $748 $-1 $593 1 #
vertex $-1 $671 $749 #
straight-curve $-1 35.355339059327299 -35.355339059327399 0 0.70710678118654902 0.70710678118654602 0 I I #
coedge $-1 $750 $594 $712 $751 forward $618 $-1 #
attrib_edge_convexity-kcp-attrib $-1 $752 $-1 $595 1 #
vertex $-1 $671 $753 #
straight-curve $-1 35.355339059327399 35.355339059327299 0 -0.70710678118654602 0.70710678118654902 0 I I #
coedge $-1 $681 $596 $599 $685 forward $664 $-1 #
coedge $-1 $596 $680 $610 $701 forward $664 $-1 #
straight-curve $-1 0 -50 -25 -1 0 0 I I #
coedge $-1 $754 $598 $755 $756 forward $600 $-1 #
coedge $-1 $599 $757 $700 $758 reversed $600 $-1 #
edge $759 $602 20.710678118654787 $760 50.000000000000014 $599 $761 forward 7 unknown #
face $762 $707 $600 $11 $-1 $763 reversed single #
convexity-sys-attrib $-1 $-1 $601 $478 #
point $-1 -20.710678118654801 -50 -25 #
coedge $-1 $764 $755 $604 $690 reversed $710 $-1 #
edge $-1 $741 -20.710678118654801 $692 20.710678118654702 $689 $765 forward 7 unknown #
attrib_edge_convexity-kcp-attrib $-1 $766 $-1 $605 1 #
vertex $-1 $690 $767 #
straight-curve $-1 -35.355339059327399 -35.355339059327299 0 0.70710678118654602 -0.70710678118654902 0 I I #
coedge $-1 $768 $607 $667 $738 reversed $695 $-1 #
loop $-1 $-1 $607 $769 #
attrib_edge_convexity-kcp-attrib $-1 $770 $-1 $608 1 #
vertex $-1 $608 $771 #
straight-curve $-1 -20.710678118654702 50 -12.5 0 0 -1 I I #
point $-1 -20.710678118654702 50 0 #
coedge $-1 $772 $610 $684 $758 forward $611 $-1 #
edge $-1 $760 -50.00000000000005 $612 -20.71067811865472 $610 $773 forward 7 unknown #
face $774 $333 $611 $11 $-1 $775 reversed single #
point $-1 20.710678118654702 -50 -25 #
straight-curve $-1 0 50 -25 1 0 0 I I #
coedge $-1 $617 $776 $768 $777 reversed $618 $-1 #
edge $-1 $619 20.710678118654787 $778 50.000000000000014 $617 $779 forward 7 unknown #
face $780 $702 $618 $11 $-1 $781 reversed single #
point $-1 20.710678118654801 50 -25 #
model_id-kcp-attrib $-1 $-1 $-1 $624 1 990548718 70 1095106561 19 #
loop $-1 $-1 $764 $624 #
plane-surface $-1 -50 0 0 1 0 0 0 0 -1 forward_v I I I I #
coedge $-1 $670 $736 $676 $751 reversed $625 $-1 #
face $-1 $782 $783 $33 $-1 $784 reversed single #
loop $-1 $-1 $785 $631 #
plane-surface $-1 -100.00000000000006 0 0 1 0 0 0 0 -1 forward_v I I I I #
coedge $-1 $786 $723 $787 $788 forward $632 $-1 #
coedge $-1 $789 $790 $791 $792 forward $634 $-1 #
straight-curve $-1 -50.000000000000021 -24.999999999999979 -25 0 -1 0 I I #
point $-1 -49.999999999999964 50.000000000000014 -25 #
coedge $-1 $644 $643 $793 $794 forward $385 $-1 #
coedge $-1 $795 $796 $643 $722 reversed $783 $-1 #
edge $-1 $729 -100.00000000000006 $797 100.00000000000006 $721 $798 forward 7 unknown #
coedge $-1 $716 $799 $644 $724 reversed $632 $-1 #
edge $-1 $800 -100.00000000000006 $728 100.00000000000006 $723 $801 forward 7 unknown #
coedge $-1 $791 $645 $799 $802 forward $727 $-1 #
coedge $-1 $645 $791 $795 $803 reversed $727 $-1 #
loop $-1 $-1 $725 $782 #
vertex $-1 $646 $804 #
vertex $-1 $646 $805 #
straight-curve $-1 100.00000000000006 0 25 0 1 0 I I #
model_id-kcp-attrib $-1 $-1 $-1 $663 1 990548718 70 1095106561 11 #
face $806 $769 $807 $11 $-1 $808 reversed single #
loop $-1 $-1 $809 $663 #
coedge $-1 $735 $665 $746 $810 forward $588 $-1 #
coedge $-1 $665 $734 $750 $811 forward $588 $-1 #
coedge $-1 $712 $743 $665 $737 forward $625 $-1 #
edge $-1 $812 -20.710678118654801 $813 20.710678118654702 $736 $814 reversed 7 unknown #
edge $815 $778 -50.00000000000005 $697 -20.71067811865472 $694 $816 forward 7 unknown #
coedge $-1 $668 $817 $764 $818 forward $695 $-1 #
attrib_edge_convexity-kcp-attrib $-1 $819 $-1 $669 1 #
vertex $-1 $690 $820 #
straight-curve $-1 -35.355339059327299 35.355339059327399 0 -0.70710678118654902 -0.70710678118654602 0 I I #
coedge $-1 $736 $670 $672 $747 reversed $625 $-1 #
attrib_edge_convexity-kcp-attrib $-1 $821 $-1 $671 1 #
straight-curve $-1 50 0 0 0 1 0 I I #
coedge $-1 $672 $822 $734 $810 reversed $611 $-1 #
edge $-1 $812 -12.5 $674 12.5 $743 $823 forward 7 unknown #
convexity-sys-attrib $-1 $-1 $673 $593 #
point $-1 50 -20.710678118654801 0 #
coedge $-1 $824 $676 $735 $811 reversed $618 $-1 #
edge $-1 $678 -12.5 $813 12.5 $712 $825 forward 7 unknown #
convexity-sys-attrib $-1 $-1 $677 $595 #
point $-1 50 20.710678118654702 0 #
coedge $-1 $826 $683 $827 $828 reversed $600 $-1 #
coedge $-1 $689 $829 $683 $756 reversed $710 $-1 #
edge $830 $692 -12.5 $831 12.5 $755 $832 forward 7 unknown #
coedge $-1 $684 $826 $833 $834 reversed $600 $-1 #
edge $835 $760 -12.5 $836 12.5 $700 $837 forward 7 unknown #
attrib_edge_convexity-kcp-attrib $-1 $838 $-1 $685 1 #
vertex $-1 $701 $839 #
straight-curve $-1 -35.355339059327399 -35.355339059327299 -25 0.70710678118654602 -0.70710678118654902 0 I I #
model_id-kcp-attrib $-1 $-1 $-1 $686 1 990548718 70 1095106561 14 #
plane-surface $-1 -35.355339059327399 -35.355339059327299 -25 0.70710678118654902 0.70710678118654602 0 0 0 1 forward_v I I I I #
coedge $-1 $829 $689 $739 $818 reversed $710 $-1 #
straight-curve $-1 -50 0 0 0 -1 0 I I #
convexity-sys-attrib $-1 $-1 $691 $605 #
point $-1 -50 -20.710678118654702 0 #
coedge $-1 $840 $694 $705 $777 forward $695 $-1 #
face $841 $686 $695 $11 $-1 $842 reversed single #
convexity-sys-attrib $-1 $-1 $696 $608 #
point $-1 -20.710678118654702 50 -25 #
coedge $-1 $822 $700 $843 $844 reversed $611 $-1 #
straight-curve $-1 35.355339059327299 -35.355339059327399 -25 0.70710678118654902 0.70710678118654602 0 I I #
model_id-kcp-attrib $-1 $-1 $-1 $702 1 990548718 70 1095106561 16 #
plane-surface $-1 35.355339059327299 -35.355339059327399 -25 -0.70710678118654602 0.70710678118654902 0 0 0 1 forward_v I I I I #
coedge $-1 $705 $824 $845 $846 reversed $618 $-1 #
edge $847 $778 -12.5 $848 12.5 $705 $849 forward 7 unknown #
vertex $-1 $706 $850 #
straight-curve $-1 35.355339059327399 35.355339059327299 -25 -0.70710678118654602 0.70710678118654902 0 I I #
model_id-kcp-attrib $-1 $-1 $-1 $707 1 990548718 70 1095106561 15 #
plane-surface $-1 35.355339059327399 35.355339059327299 -25 -0.70710678118654902 -0.70710678118654602 0 0 0 -1 forward_v I I I I #
face $-1 $-1 $727 $33 $-1 $851 reversed single #
loop $-1 $-1 $795 $713 #
plane-surface $-1 0 100.00000000000006 0 0 -1 0 0 0 -1 forward_v I I I I #
coedge $-1 $852 $793 $796 $853 forward $714 $-1 #
coedge $-1 $799 $716 $789 $854 reversed $632 $-1 #
coedge $-1 $793 $852 $716 $788 reversed $714 $-1 #
edge $-1 $800 -25 $855 25 $787 $856 forward 7 unknown #
coedge $-1 $857 $717 $786 $854 forward $634 $-1 #
coedge $-1 $717 $857 $858 $859 forward $634 $-1 #
coedge $-1 $726 $725 $717 $792 reversed $727 $-1 #
edge $-1 $860 -100.00000000000006 $861 100.00000000000006 $791 $862 forward 7 unknown #
coedge $-1 $785 $787 $720 $794 reversed $714 $-1 #
edge $-1 $797 -100.00000000000006 $800 100.00000000000006 $793 $863 forward 7 unknown #
coedge $-1 $858 $721 $726 $803 forward $783 $-1 #
coedge $-1 $721 $858 $785 $853 reversed $783 $-1 #
vertex $-1 $722 $864 #
straight-curve $-1 0 100.00000000000006 25 -1 0 0 I I #
coedge $-1 $723 $786 $725 $802 reversed $632 $-1 #
vertex $-1 $794 $865 #
straight-curve $-1 0 -100.00000000000006 25 1 0 0 I I #
edge $-1 $728 -25 $861 25 $725 $866 forward 7 unknown #
edge $-1 $729 -25 $860 25 $726 $867 forward 7 unknown #
point $-1 100.00000000000006 -100.00000000000006 25 #
point $-1 100.00000000000006 100.00000000000006 25 #
model_id-kcp-attrib $-1 $-1 $-1 $732 1 990548718 70 1095106561 12 #
loop $-1 $-1 $843 $732 #
plane-surface $-1 0 0 -50 0 0 1 0.70710678118654602 -0.70710678118654902 0 forward_v I I I I #
coedge $-1 $868 $827 $829 $869 reversed $733 $-1 #
edge $-1 $812 20.710678118654787 $870 50.000000000000014 $746 $773 forward 7 unknown #
edge $-1 $870 -50.00000000000005 $813 -20.71067811865472 $750 $779 forward 7 unknown #
vertex $-1 $737 $871 #
vertex $-1 $751 $872 #
straight-curve $-1 50 0 -25 0 -1 0 I I #
attrib_edge_convexity-kcp-attrib $-1 $873 $-1 $738 1 #
straight-curve $-1 -35.355339059327299 35.355339059327399 -25 -0.70710678118654902 -0.70710678118654602 0 I I #
coedge $-1 $739 $874 $868 $875 reversed $695 $-1 #
edge $876 $877 -12.5 $741 12.5 $764 $878 forward 7 unknown #
convexity-sys-attrib $-1 $-1 $740 $669 #
point $-1 -50 20.710678118654801 0 #
convexity-sys-attrib $-1 $-1 $744 $671 #
coedge $-1 $746 $772 $824 $879 reversed $611 $-1 #
straight-curve $-1 50 -20.710678118654801 -12.5 0 0 1 I I #
coedge $-1 $776 $750 $822 $879 forward $618 $-1 #
straight-curve $-1 50 20.710678118654702 -12.5 0 0 -1 I I #
coedge $-1 $757 $754 $874 $880 forward $600 $-1 #
coedge $-1 $809 $868 $754 $828 forward $733 $-1 #
edge $881 $882 -50.00000000000005 $831 -20.71067811865472 $754 $761 forward 7 unknown #
coedge $-1 $755 $764 $809 $869 forward $710 $-1 #
attrib_edge_convexity-kcp-attrib $-1 $883 $-1 $756 1 #
vertex $-1 $828 $884 #
straight-curve $-1 -50 -20.710678118654702 -12.5 0 0 -1 I I #
coedge $-1 $885 $843 $757 $834 forward $807 $-1 #
edge $886 $836 -50.000000000000014 $887 50.00000000000005 $757 $888 forward 7 unknown #
attrib_edge_convexity-kcp-attrib $-1 $889 $-1 $758 1 #
vertex $-1 $758 $890 #
straight-curve $-1 -1.2079226507921701e-013 -70.710678118654798 -37.5 0 0 -1 I I #
convexity-sys-attrib $-1 $-1 $759 $685 #
point $-1 -1.2079226507921701e-013 -70.710678118654798 -25 #
coedge $-1 $874 $768 $885 $891 reversed $695 $-1 #
model_id-kcp-attrib $-1 $-1 $-1 $769 1 990548718 70 1095106561 13 #
plane-surface $-1 -35.355339059327299 35.355339059327399 -25 0.70710678118654602 -0.70710678118654902 0 0 0 -1 forward_v I I I I #
coedge $-1 $833 $845 $772 $844 forward $807 $-1 #
edge $-1 $892 -50.000000000000014 $836 50.00000000000005 $772 $893 forward 7 unknown #
coedge $-1 $843 $885 $776 $846 forward $807 $-1 #
edge $-1 $848 -50.000000000000014 $892 50.00000000000005 $776 $894 forward 7 unknown #
attrib_edge_convexity-kcp-attrib $-1 $895 $-1 $777 1 #
vertex $-1 $846 $896 #
straight-curve $-1 1.2079226507921701e-013 70.710678118654798 -37.5 0 0 -1 I I #
point $-1 1.2079226507921701e-013 70.710678118654798 -25 #
plane-surface $-1 100.00000000000006 0 0 -1 0 0 0 0 1 forward_v I I I I #
coedge $-1 $787 $785 $857 $897 reversed $714 $-1 #
edge $-1 $797 -25 $898 25 $796 $899 forward 7 unknown #
edge $-1 $861 -100.00000000000006 $855 100.00000000000006 $786 $900 forward 7 unknown #
vertex $-1 $897 $901 #
straight-curve $-1 -100.00000000000006 -100.00000000000006 0 0 0 -1 I I #
coedge $-1 $790 $789 $852 $897 forward $634 $-1 #
coedge $-1 $796 $795 $790 $859 reversed $783 $-1 #
edge $-1 $898 -100.00000000000006 $860 100.00000000000006 $858 $902 forward 7 unknown #
vertex $-1 $792 $903 #
vertex $-1 $802 $904 #
straight-curve $-1 100.00000000000006 0 -25 0 -1 0 I I #
straight-curve $-1 -100.00000000000006 0 25 0 -1 0 I I #
point $-1 -100.00000000000006 100.00000000000006 25 #
point $-1 -100.00000000000006 -100.00000000000006 25 #
straight-curve $-1 100.00000000000006 -100.00000000000006 0 0 0 -1 I I #
straight-curve $-1 100.00000000000006 100.00000000000006 0 0 0 -1 I I #
coedge $-1 $827 $809 $817 $875 forward $733 $-1 #
edge $-1 $877 -20.710678118654801 $831 20.710678118654702 $829 $905 reversed 7 unknown #
vertex $-1 $810 $906 #
point $-1 50 -20.710678118654801 -25 #
point $-1 50 20.710678118654702 -25 #
convexity-sys-attrib $-1 $-1 $815 $738 #
coedge $-1 $817 $840 $826 $880 reversed $695 $-1 #
edge $907 $877 20.710678118654787 $882 50.000000000000014 $817 $816 forward 7 unknown #
attrib_edge_convexity-kcp-attrib $-1 $908 $-1 $818 1 #
vertex $-1 $869 $909 #
straight-curve $-1 -50 20.710678118654801 -12.5 0 0 1 I I #
edge $-1 $870 -12.5 $892 12.5 $822 $910 forward 7 unknown #
edge $911 $882 -12.5 $887 12.5 $874 $912 forward 7 unknown #
attrib_edge_convexity-kcp-attrib $-1 $913 $-1 $828 1 #
vertex $-1 $875 $914 #
convexity-sys-attrib $-1 $-1 $830 $756 #
point $-1 -50 -20.710678118654702 -25 #
coedge $-1 $845 $833 $840 $891 forward $807 $-1 #
attrib_edge_convexity-kcp-attrib $-1 $915 $-1 $834 1 #
vertex $-1 $891 $916 #
straight-curve $-1 -35.355339059327399 -35.355339059327299 -50 -0.70710678118654602 0.70710678118654902 0 I I #
convexity-sys-attrib $-1 $-1 $835 $758 #
point $-1 -1.2079226507921701e-013 -70.710678118654798 -50 #
edge $917 $887 -50.000000000000014 $848 50.00000000000005 $840 $918 forward 7 unknown #
vertex $-1 $844 $919 #
straight-curve $-1 35.355339059327299 -35.355339059327399 -50 -0.70710678118654902 -0.70710678118654602 0 I I #
straight-curve $-1 35.355339059327399 35.355339059327299 -50 0.70710678118654602 -0.70710678118654902 0 I I #
convexity-sys-attrib $-1 $-1 $847 $777 #
point $-1 1.2079226507921701e-013 70.710678118654798 -50 #
edge $-1 $855 -100.00000000000006 $898 100.00000000000006 $852 $920 forward 7 unknown #
vertex $-1 $859 $921 #
straight-curve $-1 -100.00000000000006 100.00000000000006 0 0 0 -1 I I #
straight-curve $-1 0 -100.00000000000006 -25 -1 0 0 I I #
point $-1 -100.00000000000006 -100.00000000000006 -25 #
straight-curve $-1 0 100.00000000000006 -25 1 0 0 I I #
point $-1 100.00000000000006 100.00000000000006 -25 #
point $-1 100.00000000000006 -100.00000000000006 -25 #
straight-curve $-1 -50 0 -25 0 1 0 I I #
point $-1 70.710678118654798 -1.2079226507921701e-013 -25 #
attrib_edge_convexity-kcp-attrib $-1 $922 $-1 $875 1 #
convexity-sys-attrib $-1 $-1 $876 $818 #
point $-1 -50 20.710678118654801 -25 #
straight-curve $-1 70.710678118654798 -1.2079226507921701e-013 -37.5 0 0 -1 I I #
attrib_edge_convexity-kcp-attrib $-1 $923 $-1 $880 1 #
straight-curve $-1 -70.710678118654798 1.2079226507921701e-013 -37.5 0 0 -1 I I #
convexity-sys-attrib $-1 $-1 $881 $828 #
point $-1 -70.710678118654798 1.2079226507921701e-013 -25 #
convexity-sys-attrib $-1 $-1 $886 $834 #
point $-1 -70.710678118654798 1.2079226507921701e-013 -50 #
attrib_edge_convexity-kcp-attrib $-1 $924 $-1 $891 1 #
straight-curve $-1 -35.355339059327299 35.355339059327399 -50 0.70710678118654902 0.70710678118654602 0 I I #
point $-1 70.710678118654798 -1.2079226507921701e-013 -50 #
straight-curve $-1 -100.00000000000006 0 -25 0 1 0 I I #
point $-1 -100.00000000000006 100.00000000000006 -25 #
convexity-sys-attrib $-1 $-1 $907 $875 #
convexity-sys-attrib $-1 $-1 $911 $880 #
convexity-sys-attrib $-1 $-1 $917 $891 #
End-of-ACIS-data 