600 0 1 0           
97 GICL ACIS Healer - Source: /gicl/data5/repository/UMD/unmachinable-ex4/unmachinable-ex4.sat - 6 0 18 ACIS 6.0.3 Solaris 24 Sun Apr 14 00:34:20 2002 
1 9.999999999999999547e-07 1.000000000000000036e-10 
body $-1 $1 $-1 $-1 #
lump $-1 $-1 $2 $0 #
shell $-1 $-1 $-1 $3 $-1 $1 #
face $-1 $4 $5 $2 $-1 $6 forward single #
face $-1 $7 $8 $2 $-1 $9 forward single #
loop $-1 $-1 $10 $3 #
plane-surface $-1 1.767766952966359106 1.767766952966378424 37.5 -0.7071067811865435759 -0.7071067811865514585 0 0 0 1 forward_v I I I I #
face $-1 $11 $12 $2 $-1 $13 reversed single #
loop $-1 $-1 $14 $4 #
plane-surface $-1 -1.767766952966359106 -1.767766952966378424 37.5 0.7071067811865435759 0.7071067811865514585 0 -0 0 -1 forward_v I I I I #
coedge $-1 $15 $16 $17 $18 reversed $5 $-1 #
face $-1 $19 $20 $2 $-1 $21 forward single #
loop $-1 $-1 $22 $7 #
plane-surface $-1 35.35533905932744858 -35.35533905932729937 25 -0.707106781186549016 0.7071067811865460184 0 0 0 1 forward_v I I I I #
coedge $-1 $23 $24 $25 $26 reversed $8 $-1 #
coedge $-1 $27 $10 $28 $29 reversed $5 $-1 #
coedge $-1 $10 $27 $30 $31 reversed $5 $-1 #
coedge $-1 $32 $33 $10 $18 forward $34 $-1 #
edge $-1 $35 -49.99999999999997158 $36 50.00000000000002132 $17 $37 forward 7 unknown #
face $-1 $38 $39 $2 $-1 $21 forward single #
loop $-1 $-1 $40 $11 #
plane-surface $-1 0 0 25 0 0 1 1 0 0 forward_v I I I I #
coedge $-1 $41 $42 $24 $43 forward $12 $-1 #
coedge $-1 $44 $14 $45 $46 reversed $8 $-1 #
coedge $-1 $14 $44 $22 $43 reversed $8 $-1 #
coedge $-1 $47 $48 $14 $26 forward $34 $-1 #
edge $-1 $49 -50.00000000000002132 $50 49.99999999999997158 $25 $51 forward 7 unknown #
coedge $-1 $16 $15 $40 $52 reversed $5 $-1 #
coedge $-1 $53 $54 $15 $29 forward $12 $-1 #
edge $-1 $55 6.25 $35 11.67893218813475897 $28 $56 forward 7 unknown #
coedge $-1 $57 $58 $16 $31 forward $59 $-1 #
edge $-1 $36 -11.67893218813429002 $60 -6.25 $30 $61 forward 7 unknown #
coedge $-1 $48 $17 $58 $62 reversed $34 $-1 #
coedge $-1 $17 $47 $53 $63 reversed $34 $-1 #
loop $-1 $-1 $25 $38 #
vertex $-1 $29 $64 #
vertex $-1 $62 $65 #
straight-curve $-1 1.767766952966382643 1.767766952966354888 19.57106781186547906 -0.707106781186549016 0.7071067811865460184 3.491481338843129805e-15 I I #
face $-1 $66 $34 $2 $-1 $67 reversed single #
loop $-1 $-1 $68 $19 #
coedge $-1 $69 $70 $27 $52 forward $20 $-1 #
coedge $-1 $71 $22 $72 $73 reversed $12 $-1 #
coedge $-1 $22 $53 $47 $74 forward $12 $-1 #
edge $-1 $50 -11.67893218813463818 $75 -6.25 $22 $76 forward 7 unknown #
coedge $-1 $24 $23 $68 $77 reversed $8 $-1 #
coedge $-1 $78 $79 $23 $46 forward $59 $-1 #
edge $-1 $80 6.25 $49 11.67893218813441081 $45 $81 forward 7 unknown #
coedge $-1 $33 $25 $42 $74 reversed $34 $-1 #
coedge $-1 $25 $32 $78 $82 reversed $34 $-1 #
vertex $-1 $46 $83 #
vertex $-1 $74 $84 #
straight-curve $-1 -1.76776695296634756 -1.767766952966389971 19.57106781186547906 0.707106781186549016 -0.7071067811865460184 -3.491481338843129805e-15 I I #
edge $-1 $60 -49.99999999999998579 $55 50 $40 $85 forward 7 unknown #
coedge $-1 $42 $28 $33 $63 forward $12 $-1 #
coedge $-1 $28 $86 $69 $87 reversed $12 $-1 #
vertex $-1 $52 $88 #
straight-curve $-1 37.12310601229393114 -33.5875721063608097 31.25 0 0 -1 I I #
coedge $-1 $89 $30 $70 $90 reversed $59 $-1 #
coedge $-1 $30 $78 $32 $62 forward $59 $-1 #
loop $-1 $-1 $45 $91 #
vertex $-1 $90 $92 #
straight-curve $-1 -33.5875721063612005 37.12310601229355456 31.25 0 0 1 I I #
edge $-1 $93 0 $36 1.230959417340796946 $58 $94 forward 7 unknown #
edge $-1 $35 -1.230959417340752315 $95 0 $53 $96 forward 7 unknown #
point $-1 37.12310601229393114 -33.5875721063608097 19.57106781186524103 #
point $-1 -33.5875721063612005 37.12310601229355456 19.57106781186570998 #
face $-1 $97 $98 $2 $-1 $99 forward single #
cone-surface $-1 0 0 12.5 0.707106781186549016 -0.7071067811865460184 -3.491481338843129805e-15 5.303300858899095083 5.303300858899117287 0 1 I I 0 1 7.5 forward I I I I #
coedge $-1 $100 $72 $44 $77 forward $39 $-1 #
coedge $-1 $101 $40 $54 $87 forward $20 $-1 #
coedge $-1 $40 $102 $57 $90 forward $20 $-1 #
coedge $-1 $103 $41 $104 $105 reversed $12 $-1 #
coedge $-1 $68 $106 $41 $73 forward $39 $-1 #
edge $-1 $107 -20.71067811865479769 $75 -2.499999999999834355 $41 $108 forward 7 unknown #
edge $-1 $95 0 $50 4.372552070930591839 $42 $96 forward 7 unknown #
vertex $-1 $73 $109 #
straight-curve $-1 33.5875721063612005 -37.12310601229355456 31.25 0 0 1 I I #
edge $-1 $75 -49.99999999999998579 $80 50 $68 $110 forward 7 unknown #
coedge $-1 $58 $45 $48 $82 forward $59 $-1 #
coedge $-1 $45 $111 $100 $112 reversed $59 $-1 #
vertex $-1 $77 $113 #
straight-curve $-1 -37.12310601229393114 33.5875721063608097 31.25 0 0 -1 I I #
edge $-1 $49 1.910633236249043465 $93 6.283185307179586232 $78 $94 forward 7 unknown #
point $-1 -37.12310601229393114 33.5875721063608097 19.57106781186558919 #
point $-1 33.5875721063612005 -37.12310601229355456 19.57106781186536182 #
straight-curve $-1 1.767766952966359106 1.767766952966378424 25 0.7071067811865514585 -0.7071067811865435759 0 I I #
coedge $-1 $54 $103 $114 $115 reversed $12 $-1 #
edge $-1 $55 2.500000000000166089 $116 20.71067811865470532 $54 $108 forward 7 unknown #
point $-1 37.12310601229393114 -33.5875721063608097 25 #
coedge $-1 $117 $57 $118 $119 reversed $59 $-1 #
edge $-1 $120 -20.71067811865479769 $60 -2.499999999999834355 $57 $121 forward 7 unknown #
face $-1 $122 $59 $2 $-1 $123 reversed single #
point $-1 -33.5875721063612005 37.12310601229355456 25 #
vertex $-1 $82 $124 #
ellipse-curve $-1 -35.35533905932744858 35.35533905932729937 12.50000000000020073 0.707106781186549016 -0.7071067811865460184 0 5.303300858899095083 5.303300858899117287 0 1 I I #
vertex $-1 $63 $125 #
ellipse-curve $-1 35.35533905932744858 -35.35533905932729937 12.49999999999979927 -0.707106781186549016 0.7071067811865460184 0 5.303300858899095083 5.303300858899117287 0 1 I I #
face $-1 $126 $127 $2 $-1 $99 forward single #
loop $-1 $-1 $128 $66 #
plane-surface $-1 0 0 0 0 0 1 1 0 0 forward_v I I I I #
coedge $-1 $129 $68 $79 $112 forward $39 $-1 #
coedge $-1 $130 $69 $131 $132 forward $20 $-1 #
coedge $-1 $70 $130 $133 $134 forward $20 $-1 #
coedge $-1 $86 $71 $135 $136 forward $12 $-1 #
coedge $-1 $137 $138 $71 $105 forward $139 $-1 #
edge $-1 $140 -12.5 $107 12.5 $71 $141 forward 7 unknown #
coedge $-1 $72 $142 $137 $143 forward $39 $-1 #
vertex $-1 $73 $144 #
straight-curve $-1 35.35533905932744858 -35.35533905932729937 25 0.7071067811865460184 0.707106781186549016 0 I I #
point $-1 33.5875721063612005 -37.12310601229355456 25 #
straight-curve $-1 -1.767766952966359106 -1.767766952966378424 25 -0.7071067811865514585 0.7071067811865435759 0 I I #
coedge $-1 $79 $117 $145 $146 reversed $59 $-1 #
edge $-1 $80 2.500000000000166089 $147 20.71067811865470532 $79 $121 forward 7 unknown #
point $-1 -37.12310601229393114 33.5875721063608097 25 #
coedge $-1 $148 $131 $86 $115 forward $149 $-1 #
edge $-1 $116 -12.5 $150 12.5 $86 $151 forward 7 unknown #
vertex $-1 $87 $152 #
coedge $-1 $111 $89 $128 $153 forward $59 $-1 #
coedge $-1 $133 $154 $89 $119 forward $155 $-1 #
edge $-1 $156 -12.5 $120 12.5 $89 $157 forward 7 unknown #
vertex $-1 $90 $158 #
straight-curve $-1 -35.35533905932744858 35.35533905932729937 25 -0.7071067811865460184 -0.707106781186549016 0 I I #
face $-1 $159 $160 $2 $-1 $161 reversed single #
plane-surface $-1 -35.35533905932744858 35.35533905932729937 25 0.707106781186549016 -0.7071067811865460184 0 0 0 -1 forward_v I I I I #
point $-1 -30.05203820042835261 40.6586399182264131 12.50000000000020073 #
point $-1 40.658639918226541 -30.05203820042818208 12.49999999999979927 #
face $-1 $162 $163 $2 $-1 $99 forward single #
loop $-1 $-1 $164 $97 #
coedge $-1 $165 $166 $117 $153 reversed $98 $-1 #
coedge $-1 $142 $100 $167 $168 forward $39 $-1 #
coedge $-1 $102 $101 $169 $170 forward $20 $-1 #
coedge $-1 $114 $171 $101 $132 reversed $149 $-1 #
edge $-1 $116 -20.71067811865471597 $172 20.71067811865478347 $131 $173 forward 7 unknown #
coedge $-1 $174 $118 $102 $134 reversed $155 $-1 #
edge $-1 $175 -20.71067811865471597 $120 20.71067811865478347 $133 $176 forward 7 unknown #
coedge $-1 $177 $178 $103 $136 reversed $163 $-1 #
edge $-1 $140 -20.71067811865479769 $150 20.71067811865470532 $103 $179 reversed 7 unknown #
coedge $-1 $180 $104 $106 $143 reversed $139 $-1 #
coedge $-1 $104 $181 $177 $182 reversed $139 $-1 #
loop $-1 $-1 $180 $183 #
vertex $-1 $136 $184 #
straight-curve $-1 20.710678118654819 -49.99999999999998579 12.5 0 0 1 I I #
coedge $-1 $106 $129 $185 $186 forward $39 $-1 #
edge $-1 $187 -20.71067811865471597 $107 20.71067811865478347 $137 $188 forward 7 unknown #
point $-1 20.710678118654819 -49.99999999999998579 25 #
coedge $-1 $189 $167 $111 $146 forward $190 $-1 #
edge $-1 $147 -12.5 $191 12.5 $111 $192 forward 7 unknown #
vertex $-1 $112 $193 #
coedge $-1 $194 $114 $178 $195 reversed $149 $-1 #
loop $-1 $-1 $171 $196 #
vertex $-1 $195 $197 #
straight-curve $-1 50.00000000000000711 -20.71067811865468045 12.5 -0 0 -1 I I #
point $-1 50.00000000000000711 -20.71067811865468045 25 #
edge $-1 $156 -20.71067811865479769 $191 20.71067811865470532 $117 $198 reversed 7 unknown #
coedge $-1 $118 $199 $165 $200 reversed $155 $-1 #
loop $-1 $-1 $118 $201 #
vertex $-1 $153 $202 #
straight-curve $-1 -20.710678118654819 49.99999999999998579 12.5 0 0 1 I I #
point $-1 -20.710678118654819 49.99999999999998579 25 #
face $-1 $-1 $203 $2 $-1 $204 reversed single #
loop $-1 $-1 $205 $122 #
plane-surface $-1 35.35533905932729937 35.35533905932744858 25 -0.7071067811865460184 -0.707106781186549016 0 0 0 1 forward_v I I I I #
face $-1 $206 $207 $2 $-1 $99 forward single #
loop $-1 $-1 $135 $126 #
coedge $-1 $208 $209 $210 $211 reversed $127 $-1 #
coedge $-1 $166 $128 $154 $200 forward $98 $-1 #
coedge $-1 $128 $165 $189 $212 forward $98 $-1 #
coedge $-1 $145 $213 $129 $168 reversed $190 $-1 #
edge $-1 $147 -20.71067811865471597 $214 20.71067811865478347 $167 $215 forward 7 unknown #
coedge $-1 $216 $205 $130 $170 reversed $160 $-1 #
edge $-1 $172 -20.71067811865479769 $175 20.71067811865470532 $169 $217 forward 7 unknown #
coedge $-1 $131 $218 $216 $219 forward $149 $-1 #
vertex $-1 $170 $220 #
straight-curve $-1 49.99999999999995737 3.552713678800500929e-14 25 0 1 0 I I #
coedge $-1 $221 $133 $205 $222 forward $155 $-1 #
vertex $-1 $170 $223 #
straight-curve $-1 -3.552713678800500929e-14 49.99999999999995737 25 -1 0 0 I I #
coedge $-1 $178 $135 $138 $182 forward $163 $-1 #
coedge $-1 $135 $177 $148 $195 forward $163 $-1 #
straight-curve $-1 35.35533905932744858 -35.35533905932729937 0 -0.7071067811865460184 -0.707106781186549016 0 I I #
coedge $-1 $224 $137 $225 $226 forward $139 $-1 #
coedge $-1 $138 $227 $194 $228 reversed $139 $-1 #
edge $-1 $140 20.71067811865478347 $229 50.00000000000001421 $138 $230 forward 7 unknown #
face $-1 $201 $139 $2 $-1 $231 reversed single #
point $-1 20.710678118654819 -49.99999999999998579 0 #
coedge $-1 $232 $225 $142 $186 reversed $203 $-1 #
edge $-1 $214 -20.71067811865479769 $187 20.71067811865470532 $185 $233 forward 7 unknown #
vertex $-1 $186 $234 #
straight-curve $-1 3.552713678800500929e-14 -49.99999999999995737 25 1 0 0 I I #
coedge $-1 $235 $145 $166 $212 reversed $190 $-1 #
loop $-1 $-1 $145 $236 #
vertex $-1 $146 $237 #
straight-curve $-1 -50.00000000000000711 20.71067811865468045 12.5 0 0 -1 I I #
point $-1 -50.00000000000000711 20.71067811865468045 25 #
coedge $-1 $238 $148 $181 $228 forward $149 $-1 #
edge $-1 $229 -50.00000000000004974 $150 -20.71067811865471597 $148 $239 forward 7 unknown #
face $-1 $91 $149 $2 $-1 $240 reversed single #
point $-1 50.00000000000000711 -20.71067811865468045 0 #
straight-curve $-1 -35.35533905932744858 35.35533905932729937 0 0.7071067811865460184 0.707106781186549016 0 I I #
coedge $-1 $154 $241 $235 $242 reversed $155 $-1 #
edge $-1 $156 20.71067811865478347 $243 50.00000000000001421 $154 $244 forward 7 unknown #
face $-1 $196 $155 $2 $-1 $245 reversed single #
point $-1 -20.710678118654819 49.99999999999998579 0 #
loop $-1 $-1 $232 $159 #
plane-surface $-1 -35.35533905932729937 -35.35533905932744858 25 0.7071067811865460184 0.707106781186549016 0 0 0 -1 forward_v I I I I #
coedge $-1 $169 $210 $174 $222 reversed $160 $-1 #
face $-1 $236 $246 $2 $-1 $247 reversed single #
loop $-1 $-1 $248 $162 #
coedge $-1 $209 $164 $218 $249 forward $127 $-1 #
coedge $-1 $164 $208 $221 $250 forward $127 $-1 #
coedge $-1 $205 $216 $164 $211 forward $160 $-1 #
edge $-1 $251 -20.71067811865479769 $252 20.71067811865470532 $210 $253 reversed 7 unknown #
edge $-1 $243 -50.00000000000004974 $191 -20.71067811865471597 $189 $254 forward 7 unknown #
coedge $-1 $167 $255 $232 $256 forward $190 $-1 #
vertex $-1 $186 $257 #
straight-curve $-1 -49.99999999999995737 -3.552713678800500929e-14 25 0 -1 0 I I #
coedge $-1 $210 $169 $171 $219 reversed $160 $-1 #
straight-curve $-1 35.35533905932729937 35.35533905932744858 25 -0.707106781186549016 0.7071067811865460184 0 I I #
coedge $-1 $171 $258 $208 $249 reversed $149 $-1 #
edge $-1 $251 -12.5 $172 12.5 $216 $259 forward 7 unknown #
point $-1 49.99999999999998579 20.710678118654819 25 #
coedge $-1 $260 $174 $209 $250 reversed $155 $-1 #
edge $-1 $175 -12.5 $252 12.5 $205 $261 forward 7 unknown #
point $-1 20.71067811865468045 50.00000000000000711 25 #
coedge $-1 $262 $180 $263 $264 reversed $139 $-1 #
coedge $-1 $185 $265 $180 $226 reversed $203 $-1 #
edge $-1 $187 -12.5 $266 12.5 $225 $267 forward 7 unknown #
coedge $-1 $181 $262 $268 $269 reversed $139 $-1 #
edge $-1 $229 -12.5 $270 12.5 $194 $271 forward 7 unknown #
vertex $-1 $195 $272 #
straight-curve $-1 3.552713678800500929e-14 -49.99999999999995737 0 1 0 0 I I #
plane-surface $-1 3.552713678800500929e-14 -49.99999999999995737 0 0 1 0 0 0 1 forward_v I I I I #
coedge $-1 $265 $185 $213 $256 reversed $203 $-1 #
straight-curve $-1 -35.35533905932729937 -35.35533905932744858 25 0.707106781186549016 -0.7071067811865460184 0 I I #
point $-1 -20.71067811865468045 -50.00000000000000711 25 #
coedge $-1 $273 $189 $199 $242 forward $190 $-1 #
face $-1 $183 $190 $2 $-1 $274 reversed single #
point $-1 -50.00000000000000711 20.71067811865468045 0 #
coedge $-1 $258 $194 $275 $276 reversed $149 $-1 #
straight-curve $-1 49.99999999999995737 3.552713678800500929e-14 0 0 1 0 I I #
plane-surface $-1 49.99999999999995737 3.552713678800500929e-14 0 -1 0 0 0 0 1 forward_v I I I I #
coedge $-1 $199 $260 $277 $278 reversed $155 $-1 #
edge $-1 $243 -12.5 $279 12.5 $199 $280 forward 7 unknown #
vertex $-1 $200 $281 #
straight-curve $-1 -3.552713678800500929e-14 49.99999999999995737 0 -1 0 0 I I #
plane-surface $-1 -3.552713678800500929e-14 49.99999999999995737 0 0 -1 0 0 0 -1 forward_v I I I I #
loop $-1 $-1 $275 $206 #
plane-surface $-1 0 0 -25 0 0 1 1 0 0 forward_v I I I I #
coedge $-1 $282 $263 $265 $283 reversed $207 $-1 #
edge $-1 $251 20.71067811865478347 $284 50.00000000000001421 $218 $239 forward 7 unknown #
edge $-1 $284 -50.00000000000004974 $252 -20.71067811865471597 $221 $244 forward 7 unknown #
vertex $-1 $211 $285 #
vertex $-1 $222 $286 #
straight-curve $-1 35.35533905932729937 35.35533905932744858 0 0.707106781186549016 -0.7071067811865460184 0 I I #
straight-curve $-1 -49.99999999999995737 -3.552713678800500929e-14 0 0 -1 0 I I #
coedge $-1 $213 $287 $282 $288 reversed $190 $-1 #
edge $-1 $289 -12.5 $214 12.5 $232 $290 forward 7 unknown #
point $-1 -49.99999999999998579 -20.710678118654819 25 #
coedge $-1 $218 $238 $260 $291 reversed $149 $-1 #
straight-curve $-1 49.99999999999998579 20.710678118654819 12.5 0 0 1 I I #
coedge $-1 $241 $221 $258 $291 forward $155 $-1 #
straight-curve $-1 20.71067811865468045 50.00000000000000711 12.5 -0 0 -1 I I #
coedge $-1 $227 $224 $287 $292 forward $139 $-1 #
coedge $-1 $248 $282 $224 $264 forward $207 $-1 #
edge $-1 $293 -50.00000000000004974 $266 -20.71067811865471597 $224 $230 forward 7 unknown #
coedge $-1 $225 $232 $248 $283 forward $203 $-1 #
vertex $-1 $264 $294 #
straight-curve $-1 -20.71067811865468045 -50.00000000000000711 12.5 0 0 -1 I I #
coedge $-1 $295 $275 $227 $269 forward $246 $-1 #
edge $-1 $270 -50.00000000000001421 $296 50.00000000000004974 $227 $297 forward 7 unknown #
vertex $-1 $228 $298 #
straight-curve $-1 50.00000000000004974 -50.00000000000001421 -12.5 0 0 -1 I I #
point $-1 50.00000000000004974 -50.00000000000001421 0 #
coedge $-1 $287 $235 $295 $299 reversed $190 $-1 #
plane-surface $-1 -49.99999999999995737 -3.552713678800500929e-14 0 1 0 0 0 0 -1 forward_v I I I I #
coedge $-1 $268 $277 $238 $276 forward $246 $-1 #
edge $-1 $300 -50.00000000000001421 $270 50.00000000000004974 $238 $301 forward 7 unknown #
coedge $-1 $275 $295 $241 $278 forward $246 $-1 #
edge $-1 $279 -50.00000000000001421 $300 50.00000000000004974 $241 $302 forward 7 unknown #
vertex $-1 $278 $303 #
straight-curve $-1 -50.00000000000004974 50.00000000000001421 -12.5 0 0 -1 I I #
point $-1 -50.00000000000004974 50.00000000000001421 0 #
coedge $-1 $263 $248 $255 $288 forward $207 $-1 #
edge $-1 $289 -20.71067811865479769 $266 20.71067811865470532 $265 $304 reversed 7 unknown #
vertex $-1 $249 $305 #
point $-1 49.99999999999998579 20.710678118654819 0 #
point $-1 20.71067811865468045 50.00000000000000711 0 #
coedge $-1 $255 $273 $262 $292 reversed $190 $-1 #
edge $-1 $289 20.71067811865478347 $293 50.00000000000001421 $255 $254 forward 7 unknown #
vertex $-1 $283 $306 #
straight-curve $-1 -49.99999999999998579 -20.710678118654819 12.5 0 0 1 I I #
edge $-1 $284 -12.5 $300 12.5 $258 $307 forward 7 unknown #
edge $-1 $293 -12.5 $296 12.5 $287 $308 forward 7 unknown #
vertex $-1 $288 $309 #
point $-1 -20.71067811865468045 -50.00000000000000711 0 #
coedge $-1 $277 $268 $273 $299 forward $246 $-1 #
vertex $-1 $299 $310 #
straight-curve $-1 3.552713678800500929e-14 -49.99999999999995737 -25 -1 0 0 I I #
point $-1 50.00000000000004974 -50.00000000000001421 -25 #
edge $-1 $296 -50.00000000000001421 $279 50.00000000000004974 $273 $311 forward 7 unknown #
vertex $-1 $276 $312 #
straight-curve $-1 49.99999999999995737 3.552713678800500929e-14 -25 0 -1 0 I I #
straight-curve $-1 -3.552713678800500929e-14 49.99999999999995737 -25 1 0 0 I I #
point $-1 -50.00000000000004974 50.00000000000001421 -25 #
straight-curve $-1 -35.35533905932729937 -35.35533905932744858 0 -0.707106781186549016 0.7071067811865460184 0 I I #
point $-1 50.00000000000001421 50.00000000000004974 0 #
point $-1 -49.99999999999998579 -20.710678118654819 0 #
straight-curve $-1 50.00000000000001421 50.00000000000004974 -12.5 0 0 -1 I I #
straight-curve $-1 -50.00000000000001421 -50.00000000000004974 -12.5 0 0 -1 I I #
point $-1 -50.00000000000001421 -50.00000000000004974 0 #
point $-1 -50.00000000000001421 -50.00000000000004974 -25 #
straight-curve $-1 -49.99999999999995737 -3.552713678800500929e-14 -25 0 1 0 I I #
point $-1 50.00000000000001421 50.00000000000004974 -25 #
End-of-ACIS-data 