105 92 1 0                              
body $-1 $1 $-1 $-1 #
lump $-1 $-1 $2 $0 #
shell $-1 $-1 $-1 $3 $1 #
face $-1 $4 $5 $2 $-1 $6 reversed single #
face $-1 $7 $8 $2 $-1 $9 forward single #
loop $-1 $-1 $10 $3 #
sphere-surface $-1 0 0 275.590551181102 39.3700787401575 1 0 0 0 0 1 0 #
face $-1 $11 $12 $2 $-1 $13 reversed single #
loop $-1 $14 $15 $4 #
plane-surface $-1 0 0 275.590551181102 0 0 1 1 0 0 0 #
coedge $-1 $10 $10 $16 $17 0 $5 $-1 #
face $-1 $18 $19 $2 $-1 $20 reversed single #
loop $-1 $-1 $21 $7 #
plane-surface $-1 -196.850393700787 0 275.590551181102 0.707106781186548 0 -0.707106781186548 -0.707106781186548 0 -0.707106781186548 0 #
loop $-1 $-1 $22 $4 #
coedge $-1 $15 $15 $23 $24 1 $8 $-1 #
coedge $-1 $16 $16 $10 $17 1 $25 $-1 #
edge $-1 $26 $26 $10 $27 0 #
face $-1 $28 $29 $2 $-1 $30 forward single #
loop $-1 $-1 $31 $11 #
plane-surface $-1 196.850393700787 0 275.590551181102 -0.707106781186548 0 -0.707106781186548 -0.707106781186548 0 0.707106781186548 0 #
coedge $-1 $32 $32 $22 $33 0 $12 $-1 #
coedge $-1 $34 $35 $21 $33 1 $14 $-1 #
coedge $-1 $23 $23 $15 $24 0 $36 $-1 #
edge $-1 $37 $37 $15 $38 0 #
loop $-1 $39 $16 $40 #
vertex $-1 $17 $41 #
ellipse-curve $-1 0 0 275.590551181102 0 0 1 39.3700787401575 0 0 1 #
face $-1 $40 $42 $2 $-1 $43 forward single #
loop $-1 $44 $45 $18 #
cone-surface $-1 0 0 142.919126485616 -0 -0 -1 478.29677447625 0 0 1 -0.752576694706878 0.658504607868517 0 #
coedge $-1 $46 $46 $47 $48 0 $19 $-1 #
coedge $-1 $21 $21 $49 $50 0 $12 $-1 #
edge $-1 $51 $52 $22 $53 0 #
coedge $-1 $47 $22 $54 $55 1 $14 $-1 #
coedge $-1 $22 $47 $56 $57 1 $14 $-1 #
loop $-1 $58 $23 $59 #
vertex $-1 $24 $60 #
ellipse-curve $-1 0 0 275.590551181102 0 0 1 177.165354330709 0 0 1 #
loop $-1 $-1 $61 $40 #
face $-1 $59 $25 $2 $-1 $62 forward single #
point $-1 39.3700787401575 0 275.590551181102 #
loop $-1 $63 $49 $28 #
cone-surface $-1 0 0 0 0 0 1 314.96062992126 0 0 1 0 1 0 #
loop $-1 $-1 $64 $18 #
coedge $-1 $45 $45 $65 $66 1 $29 $-1 #
coedge $-1 $31 $31 $67 $68 0 $19 $-1 #
coedge $-1 $35 $34 $31 $48 1 $14 $-1 #
edge $-1 $69 $70 $47 $71 0 #
coedge $-1 $56 $54 $32 $50 1 $42 $-1 #
edge $-1 $52 $51 $32 $72 0 #
vertex $-1 $33 $73 #
vertex $-1 $33 $74 #
straight-curve $-1 -196.850393700787 0 275.590551181102 0 1 0 #
coedge $-1 $49 $67 $34 $55 0 $42 $-1 #
edge $-1 $70 $51 $34 $75 0 #
coedge $-1 $67 $49 $35 $57 0 $42 $-1 #
edge $-1 $52 $69 $35 $76 0 #
loop $-1 $-1 $77 $59 #
face $-1 $-1 $36 $2 $-1 $78 reversed single #
point $-1 177.165354330709 0 275.590551181102 #
coedge $-1 $61 $61 $77 $79 1 $39 $-1 #
plane-surface $-1 0 0 275.590551181102 0 0 1 1 0 0 0 #
loop $-1 $-1 $65 $28 #
coedge $-1 $64 $64 $-1 $80 0 $44 $-1 #
coedge $-1 $65 $65 $45 $66 0 $63 $-1 #
edge $-1 $81 $81 $45 $82 0 #
coedge $-1 $54 $56 $46 $68 1 $42 $-1 #
edge $-1 $70 $69 $46 $83 0 #
vertex $-1 $48 $84 #
vertex $-1 $55 $85 #
straight-curve $-1 196.850393700787 0 275.590551181102 0 -1 0 #
ellipse-curve $-1 0 0 472.44094488189 -0.707106781186548 0 0.707106781186548 314.96062992126 0 314.96062992126 0.707106781186548 #
point $-1 -196.850393700787 -245.866062929071 275.590551181102 #
point $-1 -196.850393700787 245.866062929071 275.590551181102 #
ellipse-curve $-1 0 0 275.590551181102 0 0 -1 -1.92857763645253e-14 -314.96062992126 0 1 #
ellipse-curve $-1 0 0 275.590551181102 0 0 -1 -1.92857763645253e-14 314.96062992126 0 1 #
coedge $-1 $77 $77 $61 $79 0 $58 $-1 #
torus-surface $-1 0 0 275.590551181102 0 0 1 137.795275590551 39.3700787401575 1 0 0 0 #
edge $-1 $86 $86 $61 $87 0 #
edge $-1 $88 $88 $64 $-1 0 #
vertex $-1 $66 $89 #
ellipse-curve $-1 0 0 0 0 0 1 314.96062992126 0 0 1 #
ellipse-curve $-1 0 0 472.44094488189 0.707106781186548 0 0.707106781186548 -314.96062992126 0 314.96062992126 0.707106781186548 #
point $-1 196.850393700787 245.866062929071 275.590551181102 #
point $-1 196.850393700787 -245.866062929071 275.590551181102 #
vertex $-1 $79 $90 #
ellipse-curve $-1 0 0 275.590551181102 0 0 -1 -98.4251968503937 0 0 1 #
vertex $-1 $80 $91 #
point $-1 314.96062992126 0 0 #
point $-1 -98.4251968503937 0 275.590551181102 #
point $-1 0 0 -275.590551181102 #
