600 0 1 0           
97 GICL ACIS Healer - Source: /gicl/data5/repository/ICEM-CDC/Fixture_Models/LEISTE/LEISTE.sat - 6 0 18 ACIS 6.0.3 Solaris 24 Sat Apr 13 23:06:41 2002 
1 9.999999999999999547e-07 1.000000000000000036e-10 
body $1 $2 $-1 $3 #
brep_non_volatile_id-cdc-attrib $-1 $-1 $-1 $0 1 #
lump $-1 $-1 $4 $0 #
transform $-1 1 0 0 0 1 0 0 0 1 0 0 0 1 no_rotate no_reflect no_shear #
shell $-1 $-1 $-1 $5 $-1 $2 #
face $6 $7 $8 $4 $-1 $9 reversed single #
face_name-twe-attrib $-1 $10 $-1 $5 1 #
face $11 $12 $13 $4 $-1 $14 reversed single #
loop $15 $16 $17 $5 #
cone-surface $18 40 80 0 0 0 -1 8 0 0 1 I I 0 1 8 forward I I I I #
primitive_order-cdc-attrib $-1 $-1 $6 $5 5 3 #
face_name-twe-attrib $-1 $19 $-1 $7 2 #
face $20 $21 $22 $4 $-1 $23 reversed single #
loop $24 $25 $26 $7 #
plane-surface $27 40 80 -5 0 0 -1 1 0 0 forward_v I I I I #
loop_type-twe-attrib $-1 $-1 $-1 $8 0 #
loop $28 $-1 $29 $5 #
coedge $-1 $17 $17 $30 $31 reversed $8 $-1 #
surf-twe-attrib $-1 $-1 $-1 $9 5 #
primitive_order-cdc-attrib $-1 $-1 $11 $7 5 3 #
face_name-twe-attrib $-1 $32 $-1 $12 3 #
face $33 $34 $35 $4 $-1 $36 reversed single #
loop $37 $38 $39 $12 #
cone-surface $40 -40 80 0 0 0 -1 8 0 0 1 I I 0 1 8 forward I I I I #
loop_type-twe-attrib $-1 $-1 $-1 $13 1 #
loop $41 $-1 $42 $7 #
coedge $-1 $26 $26 $43 $44 reversed $13 $-1 #
surf-twe-attrib $-1 $45 $-1 $14 21 #
loop_type-twe-attrib $-1 $-1 $-1 $16 1 #
coedge $-1 $29 $29 $42 $46 forward $16 $-1 #
coedge $-1 $30 $30 $17 $31 forward $47 $-1 #
edge $48 $49 0 $49 6.283185307179586232 $30 $50 forward 7 unknown #
primitive_order-cdc-attrib $-1 $-1 $20 $12 4 3 #
face_name-twe-attrib $-1 $51 $-1 $21 4 #
face $52 $53 $54 $4 $-1 $55 reversed single #
loop $56 $57 $58 $21 #
plane-surface $59 -40 80 -5 0 0 -1 1 0 0 forward_v I I I I #
loop_type-twe-attrib $-1 $-1 $-1 $22 0 #
loop $60 $-1 $61 $12 #
coedge $-1 $39 $39 $62 $63 reversed $22 $-1 #
surf-twe-attrib $-1 $-1 $-1 $23 12 #
loop_type-twe-attrib $-1 $-1 $-1 $25 0 #
coedge $-1 $42 $42 $29 $46 reversed $25 $-1 #
coedge $-1 $43 $43 $26 $44 forward $54 $-1 #
edge $64 $65 -3.141592653589793116 $65 3.141592653589793116 $43 $66 forward 7 unknown #
surf-twe-attrib $-1 $-1 $27 $14 7 #
edge $67 $68 0 $68 6.283185307179586232 $42 $69 forward 7 unknown #
loop $70 $71 $30 $72 #
edge_name-twe-attrib $-1 $-1 $-1 $31 18 8704 #
vertex $-1 $31 $73 #
ellipse-curve $74 40 80 5 0 0 -1 8 0 0 1 I I #
primitive_order-cdc-attrib $-1 $-1 $33 $21 4 3 #
face_name-twe-attrib $-1 $75 $-1 $34 5 #
face $76 $77 $78 $4 $-1 $79 reversed single #
loop $80 $81 $43 $34 #
cone-surface $82 40 80 5 0 0 -1 5 0 0 1 I I 0 1 5 forward I I I I #
loop_type-twe-attrib $-1 $-1 $-1 $35 1 #
loop $83 $-1 $84 $21 #
coedge $-1 $58 $58 $85 $86 reversed $35 $-1 #
surf-twe-attrib $-1 $87 $-1 $36 21 #
loop_type-twe-attrib $-1 $-1 $-1 $38 1 #
coedge $-1 $61 $61 $84 $88 forward $38 $-1 #
coedge $-1 $62 $62 $39 $63 forward $71 $-1 #
edge $89 $90 0 $90 6.283185307179586232 $62 $91 forward 7 unknown #
edge_name-twe-attrib $-1 $-1 $-1 $44 3 8704 #
vertex $-1 $44 $92 #
ellipse-curve $93 40 80 -5 0 0 1 5 0 0 1 I I #
edge_name-twe-attrib $-1 $-1 $-1 $46 1 4608 #
vertex $-1 $46 $94 #
ellipse-curve $95 40 80 -5 0 0 -1 8 0 0 1 I I #
loop_type-twe-attrib $-1 $-1 $-1 $47 1 #
loop $96 $97 $62 $72 #
face $98 $99 $47 $4 $-1 $100 forward single #
point $-1 48 80 5 #
cur-twe-attrib $-1 $-1 $-1 $50 31 #
primitive_order-cdc-attrib $-1 $-1 $52 $34 3 10 #
face_name-twe-attrib $-1 $101 $-1 $53 6 #
face $102 $103 $104 $4 $-1 $105 reversed single #
loop $106 $107 $108 $53 #
cone-surface $109 0 80 5 0 0 -1 5 0 0 1 I I 0 1 5 forward I I I I #
loop_type-twe-attrib $-1 $-1 $-1 $54 0 #
loop $110 $-1 $111 $34 #
surf-twe-attrib $-1 $-1 $-1 $55 34 #
loop_type-twe-attrib $-1 $-1 $-1 $57 0 #
coedge $-1 $84 $84 $61 $88 reversed $57 $-1 #
coedge $-1 $85 $85 $58 $86 forward $104 $-1 #
edge $112 $113 -3.141592653589793116 $113 3.141592653589793116 $85 $114 forward 7 unknown #
surf-twe-attrib $-1 $-1 $59 $36 7 #
edge $115 $116 0 $116 6.283185307179586232 $84 $117 forward 7 unknown #
edge_name-twe-attrib $-1 $-1 $-1 $63 19 8704 #
vertex $-1 $63 $118 #
ellipse-curve $119 -40 80 5 0 0 -1 8 0 0 1 I I #
point $-1 35 80 -5 #
cur-twe-attrib $-1 $-1 $-1 $66 44 #
point $-1 48 80 -5 #
cur-twe-attrib $-1 $-1 $-1 $69 46 #
loop_type-twe-attrib $-1 $-1 $-1 $71 1 #
loop $120 $121 $122 $72 #
face_name-twe-attrib $-1 $123 $-1 $72 13 #
face $124 $125 $126 $4 $-1 $127 forward single #
plane-surface $128 74.00000000000009948 95 5 0 0 1 1 0 0 forward_v I I I I #
primitive_order-cdc-attrib $-1 $-1 $76 $53 2 10 #
face_name-twe-attrib $-1 $129 $-1 $77 7 #
face $130 $131 $132 $4 $-1 $133 forward single #
loop $134 $135 $85 $77 #
cone-surface $136 -40 80 5 0 0 -1 5 0 0 1 I I 0 1 5 forward I I I I #
loop_type-twe-attrib $-1 $-1 $-1 $78 0 #
loop $137 $-1 $138 $53 #
coedge $-1 $108 $108 $139 $140 reversed $78 $-1 #
surf-twe-attrib $-1 $-1 $-1 $79 53 #
loop_type-twe-attrib $-1 $-1 $-1 $81 1 #
coedge $-1 $111 $111 $141 $142 reversed $81 $-1 #
edge_name-twe-attrib $-1 $-1 $-1 $86 4 8704 #
vertex $-1 $86 $143 #
ellipse-curve $144 -40 80 -5 0 0 1 5 0 0 1 I I #
edge_name-twe-attrib $-1 $-1 $-1 $88 2 4608 #
vertex $-1 $88 $145 #
ellipse-curve $146 -40 80 -5 0 0 -1 8 0 0 1 I I #
point $-1 -32 80 5 #
cur-twe-attrib $-1 $-1 $-1 $91 63 #
loop_type-twe-attrib $-1 $-1 $-1 $97 1 #
loop $147 $-1 $148 $72 #
coedge $-1 $122 $122 $138 $149 forward $97 $-1 #
primitive_order-cdc-attrib $-1 $-1 $98 $72 0 10 #
face_name-twe-attrib $-1 $150 $-1 $99 14 #
face $151 $-1 $152 $4 $-1 $153 forward single #
loop $154 $-1 $155 $99 #
plane-surface $156 -74 76.66666666666699825 -3.333333333333329929 -1 0 0 0 0 1 forward_v I I I I #
surf-twe-attrib $-1 $-1 $-1 $100 72 #
primitive_order-cdc-attrib $-1 $-1 $102 $77 1 10 #
face_name-twe-attrib $-1 $157 $-1 $103 8 #
face $158 $159 $160 $4 $-1 $161 forward single #
loop $162 $-1 $163 $103 #
plane-surface $164 74.00000000000009948 70 5 0 -1 0 0 0 -1 forward_v I I I I #
loop_type-twe-attrib $-1 $-1 $-1 $104 0 #
loop $165 $-1 $166 $77 #
surf-twe-attrib $-1 $-1 $-1 $105 77 #
loop_type-twe-attrib $-1 $-1 $-1 $107 1 #
coedge $-1 $138 $138 $122 $149 reversed $107 $-1 #
coedge $-1 $139 $139 $108 $140 forward $167 $-1 #
edge $168 $169 0 $169 6.283185307179586232 $139 $170 forward 7 unknown #
coedge $-1 $141 $141 $111 $142 forward $171 $-1 #
edge $172 $173 0 $173 6.283185307179586232 $141 $174 forward 7 unknown #
point $-1 -45 80 -5 #
cur-twe-attrib $-1 $-1 $-1 $114 86 #
point $-1 -32 80 -5 #
cur-twe-attrib $-1 $-1 $-1 $117 88 #
loop_type-twe-attrib $-1 $-1 $-1 $121 0 #
coedge $-1 $175 $176 $177 $178 forward $121 $-1 #
edge $179 $180 0 $180 6.283185307179586232 $122 $181 forward 7 unknown #
primitive_order-cdc-attrib $-1 $-1 $124 $99 0 10 #
face_name-twe-attrib $-1 $182 $-1 $125 15 #
loop $183 $-1 $184 $125 #
plane-surface $185 74.00000000000009948 76.66666666666699825 -3.333333333333329929 1 0 0 0 0 -1 forward_v I I I I #
loop_type-twe-attrib $-1 $-1 $-1 $126 0 #
coedge $-1 $177 $186 $163 $187 reversed $126 $-1 #
surf-twe-attrib $-1 $-1 $-1 $127 99 #
primitive_order-cdc-attrib $-1 $-1 $130 $103 0 10 #
face_name-twe-attrib $-1 $188 $-1 $131 9 #
face $189 $190 $191 $4 $-1 $192 forward single #
loop $193 $-1 $194 $131 #
plane-surface $195 74.00000000000009948 70 0 0 0 1 1 0 0 forward_v I I I I #
loop_type-twe-attrib $-1 $-1 $-1 $132 0 #
coedge $-1 $196 $197 $155 $187 forward $132 $-1 #
surf-twe-attrib $-1 $-1 $-1 $133 103 #
loop_type-twe-attrib $-1 $-1 $-1 $135 1 #
coedge $-1 $166 $166 $198 $199 reversed $135 $-1 #
loop $200 $201 $139 $190 #
edge_name-twe-attrib $-1 $-1 $-1 $140 12 8704 #
vertex $-1 $140 $202 #
ellipse-curve $203 0 80 -15 0 0 1 5 0 0 1 I I #
loop $204 $167 $141 $190 #
edge_name-twe-attrib $-1 $-1 $-1 $142 11 8704 #
vertex $-1 $142 $205 #
ellipse-curve $206 40 80 -15 0 0 1 5 0 0 1 I I #
coedge $-1 $207 $148 $197 $208 reversed $121 $-1 #
coedge $-1 $148 $207 $209 $210 forward $121 $-1 #
coedge $-1 $211 $155 $148 $178 reversed $126 $-1 #
edge $212 $213 0 $214 25 $148 $215 forward 7 unknown #
edge_name-twe-attrib $-1 $-1 $-1 $149 20 8704 #
vertex $-1 $149 $216 #
ellipse-curve $217 0 80 5 0 0 -1 5 0 0 1 I I #
primitive_order-cdc-attrib $-1 $-1 $151 $125 0 10 #
loop_type-twe-attrib $-1 $-1 $-1 $152 0 #
coedge $-1 $218 $219 $207 $220 forward $152 $-1 #
surf-twe-attrib $-1 $-1 $-1 $153 125 #
coedge $-1 $155 $221 $194 $222 reversed $126 $-1 #
edge $223 $214 0 $224 5 $163 $225 forward 7 unknown #
primitive_order-cdc-attrib $-1 $-1 $158 $131 0 10 #
face_name-twe-attrib $-1 $226 $-1 $159 10 #
face $227 $228 $171 $4 $-1 $229 forward single #
loop $230 $-1 $231 $159 #
plane-surface $232 74.00000000000009948 65 0 0 -1 0 0 0 -1 forward_v I I I I #
loop_type-twe-attrib $-1 $-1 $-1 $160 0 #
coedge $-1 $233 $234 $186 $222 forward $160 $-1 #
surf-twe-attrib $-1 $-1 $-1 $161 131 #
coedge $-1 $235 $163 $234 $236 reversed $132 $-1 #
coedge $-1 $163 $235 $175 $208 forward $132 $-1 #
coedge $-1 $198 $198 $166 $199 forward $201 $-1 #
edge $237 $238 0 $238 6.283185307179586232 $198 $239 forward 7 unknown #
loop_type-twe-attrib $-1 $-1 $-1 $167 1 #
loop $240 $241 $198 $190 #
point $-1 5 80 -15 #
cur-twe-attrib $-1 $-1 $-1 $170 140 #
loop_type-twe-attrib $-1 $-1 $-1 $171 1 #
point $-1 45 80 -15 #
cur-twe-attrib $-1 $-1 $-1 $174 142 #
coedge $-1 $176 $175 $184 $220 reversed $121 $-1 #
edge $242 $243 0 $214 148.0000000000001137 $197 $244 forward 7 unknown #
coedge $-1 $245 $246 $176 $210 reversed $247 $-1 #
edge $248 $249 0 $213 148.0000000000001137 $176 $250 forward 7 unknown #
coedge $-1 $251 $177 $246 $252 reversed $126 $-1 #
edge_name-twe-attrib $-1 $-1 $-1 $178 21 8704 #
vertex $-1 $210 $253 #
vertex $-1 $208 $254 #
straight-curve $255 -74 95 5 0 -1 0 I I #
point $-1 5 80 5 #
cur-twe-attrib $-1 $-1 $-1 $181 149 #
coedge $-1 $256 $184 $235 $257 forward $152 $-1 #
coedge $-1 $184 $258 $245 $259 forward $152 $-1 #
edge $260 $249 0 $243 25 $184 $261 forward 7 unknown #
coedge $-1 $186 $251 $231 $262 reversed $126 $-1 #
edge $263 $224 0 $264 5 $194 $265 forward 7 unknown #
edge_name-twe-attrib $-1 $-1 $-1 $187 5 8704 #
vertex $-1 $236 $266 #
straight-curve $267 -74 70 5 0 0 -1 I I #
primitive_order-cdc-attrib $-1 $-1 $189 $159 0 10 #
face_name-twe-attrib $-1 $268 $-1 $190 11 #
face $269 $72 $247 $4 $-1 $270 forward single #
plane-surface $271 74.00000000000009948 65 -15 0 0 -1 -1 0 0 forward_v I I I I #
loop_type-twe-attrib $-1 $-1 $-1 $191 0 #
coedge $-1 $272 $273 $221 $262 forward $191 $-1 #
surf-twe-attrib $-1 $-1 $-1 $192 159 #
coedge $-1 $274 $194 $273 $275 reversed $160 $-1 #
coedge $-1 $194 $274 $196 $236 forward $160 $-1 #
coedge $-1 $197 $196 $218 $257 reversed $132 $-1 #
edge $276 $277 0 $224 148.0000000000001137 $234 $278 forward 7 unknown #
edge_name-twe-attrib $-1 $-1 $-1 $199 13 8704 #
vertex $-1 $199 $279 #
ellipse-curve $280 -40 80 -15 0 0 1 5 0 0 1 I I #
loop_type-twe-attrib $-1 $-1 $-1 $201 1 #
loop $281 $-1 $282 $190 #
edge_name-twe-attrib $-1 $-1 $-1 $208 6 8704 #
vertex $-1 $220 $283 #
straight-curve $284 74.00000000000009948 70 5 -1 0 0 I I #
coedge $-1 $285 $209 $219 $259 reversed $247 $-1 #
coedge $-1 $209 $285 $211 $252 forward $247 $-1 #
loop $286 $-1 $246 $228 #
edge_name-twe-attrib $-1 $-1 $-1 $210 22 8704 #
vertex $-1 $220 $287 #
straight-curve $288 74.00000000000009948 95 5 -1 0 0 I I #
coedge $-1 $221 $211 $282 $289 reversed $126 $-1 #
edge $290 $291 0 $213 20 $246 $292 forward 7 unknown #
point $-1 -74 95 5 #
point $-1 -74 70 5 #
cur-twe-attrib $-1 $-1 $-1 $215 178 #
coedge $-1 $293 $218 $274 $294 forward $152 $-1 #
edge $295 $243 0 $277 5 $218 $296 forward 7 unknown #
coedge $-1 $219 $293 $297 $298 forward $152 $-1 #
edge $299 $300 0 $249 20 $219 $301 forward 7 unknown #
edge_name-twe-attrib $-1 $-1 $-1 $220 23 8704 #
straight-curve $302 74.00000000000009948 95 5 0 -1 0 I I #
edge $303 $264 0 $304 15 $231 $305 forward 7 unknown #
edge_name-twe-attrib $-1 $-1 $-1 $222 7 8704 #
vertex $-1 $275 $306 #
straight-curve $307 -74 70 0 0 -1 0 I I #
point $-1 -74 70 0 #
cur-twe-attrib $-1 $-1 $-1 $225 187 #
primitive_order-cdc-attrib $-1 $-1 $227 $190 0 10 #
face_name-twe-attrib $-1 $308 $-1 $228 12 #
plane-surface $309 74.00000000000009948 95 -15 0 1 0 0 0 1 forward_v I I I I #
surf-twe-attrib $-1 $-1 $-1 $229 190 #
coedge $-1 $310 $231 $311 $312 reversed $191 $-1 #
coedge $-1 $231 $310 $233 $275 forward $191 $-1 #
coedge $-1 $234 $233 $256 $294 reversed $160 $-1 #
edge $313 $314 0 $264 148.0000000000001137 $273 $315 forward 7 unknown #
edge_name-twe-attrib $-1 $-1 $-1 $236 8 4608 #
vertex $-1 $257 $316 #
straight-curve $317 74.00000000000009948 70 0 -1 0 0 I I #
point $-1 -35 80 -15 #
cur-twe-attrib $-1 $-1 $-1 $239 199 #
loop_type-twe-attrib $-1 $-1 $-1 $241 0 #
coedge $-1 $318 $311 $251 $289 forward $241 $-1 #
point $-1 74.00000000000009948 70 5 #
cur-twe-attrib $-1 $-1 $-1 $244 208 #
coedge $-1 $246 $245 $318 $319 forward $247 $-1 #
loop_type-twe-attrib $-1 $-1 $-1 $247 0 #
point $-1 74.00000000000009948 95 5 #
cur-twe-attrib $-1 $-1 $-1 $250 210 #
edge $320 $304 0 $291 30 $282 $321 forward 7 unknown #
edge_name-twe-attrib $-1 $-1 $-1 $252 16 8704 #
vertex $-1 $319 $322 #
straight-curve $323 -74 95 -15 0 0 1 I I #
coedge $-1 $258 $256 $310 $324 forward $152 $-1 #
edge $325 $277 0 $314 5 $256 $326 forward 7 unknown #
edge_name-twe-attrib $-1 $-1 $-1 $257 24 8704 #
straight-curve $327 74.00000000000009948 70 5 0 0 -1 I I #
coedge $-1 $311 $318 $258 $298 reversed $241 $-1 #
edge $328 $329 0 $300 30 $258 $330 forward 7 unknown #
edge_name-twe-attrib $-1 $-1 $-1 $259 28 8704 #
vertex $-1 $298 $331 #
straight-curve $332 74.00000000000009948 95 -15 0 0 1 I I #
cur-twe-attrib $-1 $-1 $-1 $261 220 #
edge_name-twe-attrib $-1 $-1 $-1 $262 9 8704 #
vertex $-1 $312 $333 #
straight-curve $334 -74 65 0 0 0 -1 I I #
point $-1 -74 65 0 #
cur-twe-attrib $-1 $-1 $-1 $265 222 #
primitive_order-cdc-attrib $-1 $-1 $269 $228 0 10 #
surf-twe-attrib $-1 $-1 $-1 $270 228 #
coedge $-1 $273 $272 $293 $324 reversed $191 $-1 #
coedge $-1 $282 $297 $272 $312 forward $241 $-1 #
edge $335 $329 0 $304 148.0000000000001137 $311 $336 forward 7 unknown #
edge_name-twe-attrib $-1 $-1 $-1 $275 10 8704 #
vertex $-1 $294 $337 #
straight-curve $338 74.00000000000009948 65 0 -1 0 0 I I #
point $-1 74.00000000000009948 70 0 #
cur-twe-attrib $-1 $-1 $-1 $278 236 #
coedge $-1 $297 $282 $285 $319 reversed $241 $-1 #
edge $339 $300 0 $291 148.0000000000001137 $285 $340 forward 7 unknown #
edge_name-twe-attrib $-1 $-1 $-1 $289 14 8704 #
straight-curve $341 -74 65 -15 0 1 0 I I #
point $-1 -74 95 -15 #
cur-twe-attrib $-1 $-1 $-1 $292 252 #
edge $342 $314 0 $329 15 $293 $343 forward 7 unknown #
edge_name-twe-attrib $-1 $-1 $-1 $294 25 8704 #
straight-curve $344 74.00000000000009948 70 0 0 -1 0 I I #
cur-twe-attrib $-1 $-1 $-1 $296 257 #
edge_name-twe-attrib $-1 $-1 $-1 $298 27 8704 #
vertex $-1 $324 $345 #
straight-curve $346 74.00000000000009948 65 -15 0 1 0 I I #
point $-1 74.00000000000009948 95 -15 #
cur-twe-attrib $-1 $-1 $-1 $301 259 #
point $-1 -74 65 -15 #
cur-twe-attrib $-1 $-1 $-1 $305 262 #
edge_name-twe-attrib $-1 $-1 $-1 $312 15 8704 #
straight-curve $347 74.00000000000009948 65 -15 -1 0 0 I I #
point $-1 74.00000000000009948 65 0 #
cur-twe-attrib $-1 $-1 $-1 $315 275 #
edge_name-twe-attrib $-1 $-1 $-1 $319 17 8704 #
straight-curve $348 74.00000000000009948 95 -15 -1 0 0 I I #
cur-twe-attrib $-1 $-1 $-1 $321 289 #
edge_name-twe-attrib $-1 $-1 $-1 $324 26 8704 #
straight-curve $349 74.00000000000009948 65 0 0 0 -1 I I #
cur-twe-attrib $-1 $-1 $-1 $326 294 #
point $-1 74.00000000000009948 65 -15 #
cur-twe-attrib $-1 $-1 $-1 $330 298 #
cur-twe-attrib $-1 $-1 $-1 $336 312 #
cur-twe-attrib $-1 $-1 $-1 $340 319 #
cur-twe-attrib $-1 $-1 $-1 $343 324 #
End-of-ACIS-data 