700 0 2 0           
24 FBMach with ACIS - 7.0.3 13 ACIS 7.0.3 NT 24 Tue May 14 10:17:32 2002 
1 9.9999999999999995e-007 1e-010 
body $2 -1 $-1 $3 $-1 $4 #
bdycol-kcp $-1 -1 1 7 $5 $6 $7 $8 $9 $10 $11 #
model_id-kcp-attrib $-1 -1 $12 $-1 $0 1 1021385851 1021385851 -1730936831 1 #
lump $-1 -1 $-1 $-1 $13 $0 #
transform $-1 -1 1 0 0 0 1 0 0 0 1 0 0 0 1 rotate no_reflect no_shear #
body $14 -1 $-1 $15 $-1 $16 #
body $17 -1 $-1 $18 $-1 $19 #
body $20 -1 $-1 $21 $-1 $22 #
body $23 -1 $-1 $24 $-1 $25 #
body $26 -1 $-1 $27 $-1 $28 #
body $29 -1 $-1 $30 $-1 $31 #
body $32 -1 $-1 $33 $-1 $34 #
brep_non_volatile_id-cdc-attrib $-1 -1 $-1 $2 $0 1 #
shell $-1 -1 $-1 $-1 $-1 $35 $-1 $3 #
rgb_color-st-attrib $-1 -1 $36 $-1 $5 0.5 1 1 #
lump $-1 -1 $-1 $-1 $37 $5 #
transform $-1 -1 -1 0 -1.2246063538223773e-016 0 1 0 1.2246063538223773e-016 0 -1 40 80 -4.3064510291124236e-016 1 rotate no_reflect no_shear #
rgb_color-st-attrib $-1 -1 $38 $-1 $6 0.5 1 1 #
lump $-1 -1 $-1 $-1 $39 $6 #
transform $-1 -1 -1 0 -1.2246063538223773e-016 0 1 0 1.2246063538223773e-016 0 -1 -40 80 4.3064510291124236e-016 1 rotate no_reflect no_shear #
rgb_color-st-attrib $-1 -1 $40 $-1 $7 0.5 1 1 #
lump $-1 -1 $-1 $-1 $41 $7 #
transform $-1 -1 -1 0 -1.2246063538223773e-016 0 1 0 1.2246063538223773e-016 0 -1 40 80 -9.9999999999999982 1 rotate no_reflect no_shear #
rgb_color-st-attrib $-1 -1 $42 $-1 $8 0.5 1 1 #
lump $-1 -1 $-1 $-1 $43 $8 #
transform $-1 -1 -1 0 -1.2246063538223773e-016 0 1 0 1.2246063538223773e-016 0 -1 1.2246063538223773e-015 80 -4.9999999999999991 1 rotate no_reflect no_shear #
rgb_color-st-attrib $-1 -1 $44 $-1 $9 0.5 1 1 #
lump $-1 -1 $-1 $-1 $45 $9 #
transform $-1 -1 -1 0 -1.2246063538223773e-016 0 1 0 1.2246063538223773e-016 0 -1 -40 80 -9.9999999999999982 1 rotate no_reflect no_shear #
rgb_color-st-attrib $-1 -1 $46 $-1 $10 1 0.5 1 #
lump $-1 -1 $-1 $-1 $47 $10 #
transform $-1 -1 1 0 0 0 1 0 0 0 1 4.2632564145606011e-014 80 -5 1 no_rotate no_reflect no_shear #
model_id-kcp-attrib $-1 -1 $-1 $-1 $11 1 1021385851 1021385851 -1730936830 1 #
lump $-1 -1 $-1 $-1 $48 $11 #
transform $-1 -1 1 0 0 0 1 0 0 0 1 4.2632564145606011e-014 80 -5 1 no_rotate no_reflect no_shear #
face $49 -1 $-1 $50 $51 $13 $-1 $52 reversed single #
model_id-kcp-attrib $-1 -1 $-1 $14 $5 1 1021385851 1021385851 -1739849725 1 #
shell $-1 -1 $-1 $-1 $-1 $53 $-1 $15 #
model_id-kcp-attrib $-1 -1 $-1 $17 $6 1 1021385851 1021385851 -1739849724 1 #
shell $-1 -1 $-1 $-1 $-1 $54 $-1 $18 #
model_id-kcp-attrib $-1 -1 $-1 $20 $7 1 1021385851 1021385851 -1739849723 1 #
shell $-1 -1 $-1 $-1 $-1 $55 $-1 $21 #
model_id-kcp-attrib $-1 -1 $-1 $23 $8 1 1021385851 1021385851 -1739849722 1 #
shell $-1 -1 $-1 $-1 $-1 $56 $-1 $24 #
model_id-kcp-attrib $-1 -1 $-1 $26 $9 1 1021385851 1021385851 -1739194361 1 #
shell $-1 -1 $-1 $-1 $-1 $57 $-1 $27 #
model_id-kcp-attrib $-1 -1 $-1 $29 $10 1 1021385851 1021385851 -1738866680 1 #
shell $-1 -1 $-1 $-1 $-1 $58 $-1 $30 #
shell $-1 -1 $-1 $-1 $-1 $59 $-1 $33 #
model_id-kcp-attrib $-1 -1 $60 $-1 $35 1 1021385851 1021385851 -1730936831 2 #
face $61 -1 $-1 $62 $63 $13 $-1 $64 reversed single #
loop $65 -1 $-1 $66 $67 $35 #
cone-surface $68 -1 $-1 40 80 0 0 0 -1 8 0 0 1 I I 0 1 8 forward I I I I #
face $-1 -1 $-1 $69 $70 $37 $-1 $71 forward single #
face $-1 -1 $-1 $72 $73 $39 $-1 $74 forward single #
face $-1 -1 $-1 $75 $76 $41 $-1 $77 forward single #
face $-1 -1 $-1 $78 $79 $43 $-1 $80 forward single #
face $-1 -1 $-1 $81 $82 $45 $-1 $83 forward single #
face $-1 -1 $-1 $84 $85 $47 $-1 $86 forward single #
face $87 -1 $-1 $88 $89 $48 $-1 $90 forward single #
face_name-twe-attrib $-1 -1 $91 $49 $35 1 #
model_id-kcp-attrib $-1 -1 $92 $-1 $50 1 1021385851 1021385851 -1730936831 3 #
face $93 -1 $-1 $94 $95 $13 $-1 $96 reversed single #
loop $97 -1 $-1 $98 $99 $50 #
plane-surface $100 -1 $-1 40 80 -5 0 0 -1 1 0 0 forward_v I I I I #
loop_type-twe-attrib $-1 -1 $-1 $-1 $51 0 #
loop $101 -1 $-1 $-1 $102 $35 #
coedge $-1 -1 $-1 $67 $67 $103 $104 reversed $51 $-1 #
surf-twe-attrib $-1 -1 $-1 $-1 $52 5 #
face $-1 -1 $-1 $105 $106 $37 $-1 $107 forward single #
loop $-1 -1 $-1 $108 $109 $53 #
cone-surface $-1 -1 $-1 0 0 0 0 0 1 8 0 0 1 I I 0 1 8 forward I I I I #
face $-1 -1 $-1 $110 $111 $39 $-1 $112 forward single #
loop $-1 -1 $-1 $113 $114 $54 #
cone-surface $-1 -1 $-1 0 0 0 0 0 1 8 0 0 1 I I 0 1 8 forward I I I I #
face $-1 -1 $-1 $115 $116 $41 $-1 $117 forward single #
loop $-1 -1 $-1 $118 $119 $55 #
cone-surface $-1 -1 $-1 0 0 0 0 0 1 5 0 0 1 I I 0 1 5 forward I I I I #
face $-1 -1 $-1 $120 $121 $43 $-1 $122 forward single #
loop $-1 -1 $-1 $123 $124 $56 #
cone-surface $-1 -1 $-1 0 0 0 0 0 1 5 0 0 1 I I 0 1 5 forward I I I I #
face $-1 -1 $-1 $125 $126 $45 $-1 $127 forward single #
loop $-1 -1 $-1 $128 $129 $57 #
cone-surface $-1 -1 $-1 0 0 0 0 0 1 5 0 0 1 I I 0 1 5 forward I I I I #
face $-1 -1 $-1 $130 $131 $47 $-1 $132 forward single #
loop $-1 -1 $-1 $-1 $133 $58 #
plane-surface $-1 -1 $-1 74.000000000000071 -10 5 1 0 0 0 0 -1 forward_v I I I I #
model_id-kcp-attrib $-1 -1 $-1 $-1 $59 1 1021385851 1021385851 -1730936830 5 #
face $134 -1 $-1 $135 $136 $48 $-1 $137 reversed single #
loop $-1 -1 $-1 $-1 $138 $59 #
plane-surface $-1 -1 $-1 0 0 10 0 0 1 1 0 0 forward_v I I I I #
primitive_order-cdc-attrib $-1 -1 $-1 $60 $35 5 3 #
face_name-twe-attrib $-1 -1 $139 $61 $50 2 #
model_id-kcp-attrib $-1 -1 $140 $-1 $62 1 1021385851 1021385851 -1730936831 4 #
face $141 -1 $-1 $142 $143 $13 $-1 $144 reversed single #
loop $145 -1 $-1 $146 $147 $62 #
cone-surface $148 -1 $-1 -40 80 0 0 0 -1 8 0 0 1 I I 0 1 8 forward I I I I #
model_id-kcp-attrib $-1 -1 $149 $-1 $63 1 1021385851 1021385851 -1730936831 21 #
loop $150 -1 $-1 $-1 $151 $50 #
coedge $-1 -1 $-1 $99 $99 $152 $153 reversed $63 $-1 #
surf-twe-attrib $-1 -1 $154 $-1 $64 21 #
loop_type-twe-attrib $-1 -1 $-1 $-1 $66 1 #
coedge $-1 -1 $-1 $102 $102 $151 $155 forward $66 $-1 #
coedge $-1 -1 $-1 $103 $103 $67 $104 forward $156 $-1 #
edge $157 -1 $-1 $158 0 $158 6.2831853071795862 $103 $159 forward @7 unknown #
face $-1 -1 $-1 $-1 $160 $37 $-1 $161 forward single #
loop $-1 -1 $-1 $-1 $162 $69 #
plane-surface $-1 -1 $-1 0 0 -5.0000000000000009 0 0 -1 -1 0 0 forward_v I I I I #
loop $-1 -1 $-1 $-1 $163 $53 #
coedge $-1 -1 $-1 $109 $109 $162 $164 reversed $70 $-1 #
face $-1 -1 $-1 $-1 $165 $39 $-1 $166 forward single #
loop $-1 -1 $-1 $-1 $167 $72 #
plane-surface $-1 -1 $-1 0 0 -5.0000000000000009 0 0 -1 -1 0 0 forward_v I I I I #
loop $-1 -1 $-1 $-1 $168 $54 #
coedge $-1 -1 $-1 $114 $114 $167 $169 reversed $73 $-1 #
face $-1 -1 $-1 $-1 $170 $41 $-1 $171 forward single #
loop $-1 -1 $-1 $-1 $172 $75 #
plane-surface $-1 -1 $-1 0 0 -5 0 0 -1 -1 0 0 forward_v I I I I #
loop $-1 -1 $-1 $-1 $173 $55 #
coedge $-1 -1 $-1 $119 $119 $172 $174 reversed $76 $-1 #
face $-1 -1 $-1 $-1 $175 $43 $-1 $176 forward single #
loop $-1 -1 $-1 $-1 $177 $78 #
plane-surface $-1 -1 $-1 0 0 -10 0 0 -1 -1 0 0 forward_v I I I I #
loop $-1 -1 $-1 $-1 $178 $56 #
coedge $-1 -1 $-1 $124 $124 $177 $179 reversed $79 $-1 #
face $-1 -1 $-1 $-1 $180 $45 $-1 $181 forward single #
loop $-1 -1 $-1 $-1 $182 $81 #
plane-surface $-1 -1 $-1 0 0 -5 0 0 -1 -1 0 0 forward_v I I I I #
loop $-1 -1 $-1 $-1 $183 $57 #
coedge $-1 -1 $-1 $129 $129 $182 $184 reversed $82 $-1 #
face $-1 -1 $-1 $185 $186 $47 $-1 $187 forward single #
loop $-1 -1 $-1 $-1 $188 $84 #
plane-surface $-1 -1 $-1 74.000000000000071 -15 5 0 -1 0 0 0 -1 forward_v I I I I #
coedge $-1 -1 $-1 $189 $190 $191 $192 forward $85 $-1 #
model_id-kcp-attrib $-1 -1 $-1 $-1 $88 1 1021385851 1021385851 -1730936830 3 #
face $193 -1 $-1 $194 $195 $48 $-1 $196 reversed single #
loop $-1 -1 $-1 $-1 $197 $88 #
plane-surface $-1 -1 $-1 0 0 -10 0 0 1 1 0 0 forward_v I I I I #
coedge $-1 -1 $-1 $198 $199 $200 $201 forward $89 $-1 #
primitive_order-cdc-attrib $-1 -1 $-1 $92 $50 5 3 #
face_name-twe-attrib $-1 -1 $202 $93 $62 3 #
model_id-kcp-attrib $-1 -1 $203 $-1 $94 1 1021385851 1021385851 -1730936831 5 #
face $204 -1 $-1 $205 $206 $13 $-1 $207 reversed single #
loop $208 -1 $-1 $209 $210 $94 #
plane-surface $211 -1 $-1 -40 80 -5 0 0 -1 1 0 0 forward_v I I I I #
loop_type-twe-attrib $-1 -1 $-1 $-1 $95 0 #
loop $212 -1 $-1 $-1 $213 $62 #
coedge $-1 -1 $-1 $147 $147 $214 $215 reversed $95 $-1 #
surf-twe-attrib $-1 -1 $-1 $-1 $96 12 #
loop_type-twe-attrib $-1 -1 $-1 $97 $63 1 #
loop_type-twe-attrib $-1 -1 $-1 $-1 $98 0 #
coedge $-1 -1 $-1 $151 $151 $102 $155 reversed $98 $-1 #
coedge $-1 -1 $-1 $152 $152 $99 $153 forward $206 $-1 #
edge $216 -1 $-1 $217 -3.1415926535897931 $217 3.1415926535897931 $152 $218 forward @7 unknown #
surf-twe-attrib $-1 -1 $-1 $100 $64 7 #
edge $219 -1 $-1 $220 0 $220 6.2831853071795862 $151 $221 forward @7 unknown #
loop $222 -1 $-1 $223 $103 $224 #
attrib_edge_convexity-kcp-attrib $-1 -1 $225 $-1 $104 1 #
vertex $-1 -1 $-1 $104 $226 #
ellipse-curve $227 -1 $-1 40 80 5 0 0 -1 8 0 0 1 I I #
loop $-1 -1 $-1 $-1 $228 $105 #
plane-surface $-1 -1 $-1 0 0 5.0000000000000009 0 0 1 1 0 0 forward_v I I I I #
coedge $-1 -1 $-1 $162 $162 $109 $164 forward $106 $-1 #
coedge $-1 -1 $-1 $163 $163 $228 $229 reversed $108 $-1 #
edge $-1 -1 $-1 $230 0 $230 6.2831853071795862 $162 $231 forward @7 unknown #
loop $-1 -1 $-1 $-1 $232 $110 #
plane-surface $-1 -1 $-1 0 0 5.0000000000000009 0 0 1 1 0 0 forward_v I I I I #
coedge $-1 -1 $-1 $167 $167 $114 $169 forward $111 $-1 #
coedge $-1 -1 $-1 $168 $168 $232 $233 reversed $113 $-1 #
edge $-1 -1 $-1 $234 0 $234 6.2831853071795862 $167 $235 forward @7 unknown #
loop $-1 -1 $-1 $-1 $236 $115 #
plane-surface $-1 -1 $-1 0 0 5 0 0 1 1 0 0 forward_v I I I I #
coedge $-1 -1 $-1 $172 $172 $119 $174 forward $116 $-1 #
coedge $-1 -1 $-1 $173 $173 $236 $237 reversed $118 $-1 #
edge $-1 -1 $-1 $238 0 $238 6.2831853071795862 $172 $239 forward @7 unknown #
loop $-1 -1 $-1 $-1 $240 $120 #
plane-surface $-1 -1 $-1 0 0 10 0 0 1 1 0 0 forward_v I I I I #
coedge $-1 -1 $-1 $177 $177 $124 $179 forward $121 $-1 #
coedge $-1 -1 $-1 $178 $178 $240 $241 reversed $123 $-1 #
edge $-1 -1 $-1 $242 0 $242 6.2831853071795862 $177 $243 forward @7 unknown #
loop $-1 -1 $-1 $-1 $244 $125 #
plane-surface $-1 -1 $-1 0 0 5 0 0 1 1 0 0 forward_v I I I I #
coedge $-1 -1 $-1 $182 $182 $129 $184 forward $126 $-1 #
coedge $-1 -1 $-1 $183 $183 $244 $245 reversed $128 $-1 #
edge $-1 -1 $-1 $246 0 $246 6.2831853071795862 $182 $247 forward @7 unknown #
face $-1 -1 $-1 $248 $249 $47 $-1 $250 forward single #
loop $-1 -1 $-1 $-1 $251 $130 #
plane-surface $-1 -1 $-1 -74.000000000000057 -15 5 -1 0 0 0 0 1 forward_v I I I I #
coedge $-1 -1 $-1 $252 $253 $254 $255 forward $131 $-1 #
coedge $-1 -1 $-1 $256 $133 $253 $257 reversed $85 $-1 #
coedge $-1 -1 $-1 $133 $256 $258 $259 forward $85 $-1 #
coedge $-1 -1 $-1 $260 $254 $133 $192 reversed $261 $-1 #
edge $-1 -1 $-1 $262 3.75 $263 8.75 $133 $264 forward @7 unknown #
model_id-kcp-attrib $-1 -1 $-1 $-1 $135 1 1021385851 1021385851 -1730936830 2 #
face $265 -1 $-1 $266 $267 $48 $-1 $268 reversed single #
loop $-1 -1 $-1 $-1 $269 $135 #
plane-surface $-1 -1 $-1 0 -15 0 0 1 0 0 0 1 forward_v I I I I #
coedge $-1 -1 $-1 $270 $271 $272 $273 forward $136 $-1 #
coedge $-1 -1 $-1 $274 $138 $275 $276 forward $89 $-1 #
coedge $-1 -1 $-1 $138 $274 $277 $278 forward $89 $-1 #
coedge $-1 -1 $-1 $279 $280 $138 $201 reversed $281 $-1 #
edge $-1 -1 $-1 $282 -15 $283 15 $200 $284 forward @7 unknown #
primitive_order-cdc-attrib $-1 -1 $-1 $140 $62 4 3 #
face_name-twe-attrib $-1 -1 $285 $141 $94 4 #
model_id-kcp-attrib $-1 -1 $286 $-1 $142 1 1021385851 1021385851 -1730936831 6 #
face $287 -1 $-1 $288 $289 $13 $-1 $290 reversed single #
loop $291 -1 $-1 $292 $152 $142 #
cone-surface $293 -1 $-1 40 80 5 0 0 -1 5 0 0 1 I I 0 1 5 forward I I I I #
model_id-kcp-attrib $-1 -1 $294 $-1 $143 1 1021385851 1021385851 -1730936831 35 #
loop $295 -1 $-1 $-1 $296 $94 #
coedge $-1 -1 $-1 $210 $210 $297 $298 reversed $143 $-1 #
surf-twe-attrib $-1 -1 $299 $-1 $144 21 #
loop_type-twe-attrib $-1 -1 $-1 $-1 $146 1 #
coedge $-1 -1 $-1 $213 $213 $296 $300 forward $146 $-1 #
coedge $-1 -1 $-1 $214 $214 $147 $215 forward $223 $-1 #
edge $301 -1 $-1 $302 0 $302 6.2831853071795862 $214 $303 forward @7 unknown #
attrib_edge_convexity-kcp-attrib $-1 -1 $304 $-1 $153 1 #
vertex $305 -1 $-1 $153 $306 #
ellipse-curve $307 -1 $-1 40 80 -5 0 0 1 5 0 0 1 I I #
attrib_edge_convexity-kcp-attrib $-1 -1 $308 $-1 $155 2 #
vertex $-1 -1 $-1 $155 $309 #
ellipse-curve $310 -1 $-1 40 80 -5 0 0 -1 8 0 0 1 I I #
loop_type-twe-attrib $-1 -1 $-1 $-1 $156 1 #
loop $311 -1 $-1 $312 $214 $224 #
face $313 -1 $-1 $314 $156 $13 $-1 $315 forward single #
convexity-sys-attrib $-1 -1 $316 $157 $104 #
point $-1 -1 $-1 48 80 5 #
cur-twe-attrib $-1 -1 $-1 $-1 $159 31 #
coedge $-1 -1 $-1 $228 $228 $163 $229 forward $160 $-1 #
edge $-1 -1 $-1 $317 0 $317 6.2831853071795862 $228 $318 forward @7 unknown #
vertex $-1 -1 $-1 $164 $319 #
ellipse-curve $-1 -1 $-1 0 0 -5.0000000000000009 0 0 -1 8 0 0 1 I I #
coedge $-1 -1 $-1 $232 $232 $168 $233 forward $165 $-1 #
edge $-1 -1 $-1 $320 0 $320 6.2831853071795862 $232 $321 forward @7 unknown #
vertex $-1 -1 $-1 $169 $322 #
ellipse-curve $-1 -1 $-1 0 0 -5.0000000000000009 0 0 -1 8 0 0 1 I I #
coedge $-1 -1 $-1 $236 $236 $173 $237 forward $170 $-1 #
edge $-1 -1 $-1 $323 0 $323 6.2831853071795862 $236 $324 forward @7 unknown #
vertex $-1 -1 $-1 $174 $325 #
ellipse-curve $-1 -1 $-1 0 0 -5 0 0 -1 5 0 0 1 I I #
coedge $-1 -1 $-1 $240 $240 $178 $241 forward $175 $-1 #
edge $-1 -1 $-1 $326 0 $326 6.2831853071795862 $240 $327 forward @7 unknown #
vertex $-1 -1 $-1 $179 $328 #
ellipse-curve $-1 -1 $-1 0 0 -10 0 0 -1 5 0 0 1 I I #
coedge $-1 -1 $-1 $244 $244 $183 $245 forward $180 $-1 #
edge $-1 -1 $-1 $329 0 $329 6.2831853071795862 $244 $330 forward @7 unknown #
vertex $-1 -1 $-1 $184 $331 #
ellipse-curve $-1 -1 $-1 0 0 -5 0 0 -1 5 0 0 1 I I #
face $-1 -1 $-1 $332 $261 $47 $-1 $333 forward single #
loop $-1 -1 $-1 $-1 $334 $185 #
plane-surface $-1 -1 $-1 -74.000000000000043 -10 5 0 1 0 0 0 1 forward_v I I I I #
coedge $-1 -1 $-1 $335 $336 $337 $338 forward $186 $-1 #
coedge $-1 -1 $-1 $339 $188 $336 $340 reversed $131 $-1 #
coedge $-1 -1 $-1 $188 $339 $189 $257 forward $131 $-1 #
coedge $-1 -1 $-1 $191 $337 $188 $255 reversed $261 $-1 #
edge $-1 -1 $-1 $263 -74.000000000000071 $341 74.000000000000057 $188 $342 forward @7 unknown #
coedge $-1 -1 $-1 $190 $189 $343 $344 reversed $85 $-1 #
edge $-1 -1 $-1 $345 0 $263 5 $253 $346 forward @7 unknown #
coedge $-1 -1 $-1 $347 $334 $190 $259 reversed $249 $-1 #
edge $-1 -1 $-1 $348 0 $262 5 $190 $349 forward @7 unknown #
coedge $-1 -1 $-1 $337 $191 $334 $350 reversed $261 $-1 #
loop $-1 -1 $-1 $-1 $191 $248 #
vertex $-1 -1 $-1 $259 $351 #
vertex $-1 -1 $-1 $257 $352 #
straight-curve $-1 -1 $-1 74.000000000000057 -6.25 10 0 -1 0 I I #
model_id-kcp-attrib $-1 -1 $-1 $-1 $194 1 1021385851 1021385851 -1730936830 6 #
face $353 -1 $-1 $354 $355 $48 $-1 $356 reversed single #
loop $-1 -1 $-1 $-1 $357 $194 #
plane-surface $-1 -1 $-1 -74.000000000000057 0 0 1 0 0 0 0 -1 forward_v I I I I #
coedge $-1 -1 $-1 $358 $277 $359 $360 forward $195 $-1 #
coedge $-1 -1 $-1 $361 $197 $358 $362 forward $136 $-1 #
coedge $-1 -1 $-1 $197 $361 $363 $364 forward $136 $-1 #
coedge $-1 -1 $-1 $280 $279 $197 $273 reversed $281 $-1 #
edge $-1 -1 $-1 $365 -15 $366 15 $272 $367 forward @7 unknown #
coedge $-1 -1 $-1 $199 $198 $368 $369 forward $89 $-1 #
coedge $-1 -1 $-1 $370 $371 $198 $276 reversed $355 $-1 #
edge $-1 -1 $-1 $283 -74.000000000000057 $372 74.000000000000057 $275 $373 forward @7 unknown #
coedge $-1 -1 $-1 $269 $374 $199 $278 reversed $195 $-1 #
edge $-1 -1 $-1 $375 -74.000000000000057 $282 74.000000000000057 $277 $376 forward @7 unknown #
coedge $-1 -1 $-1 $272 $200 $374 $377 forward $281 $-1 #
coedge $-1 -1 $-1 $200 $272 $370 $378 reversed $281 $-1 #
loop $-1 -1 $-1 $-1 $279 $354 #
vertex $-1 -1 $-1 $201 $379 #
vertex $-1 -1 $-1 $201 $380 #
straight-curve $-1 -1 $-1 74.000000000000057 0 10 0 1 0 I I #
primitive_order-cdc-attrib $-1 -1 $-1 $203 $94 4 3 #
face_name-twe-attrib $-1 -1 $381 $204 $142 5 #
model_id-kcp-attrib $-1 -1 $382 $-1 $205 1 1021385851 1021385851 -1730936831 7 #
face $383 -1 $-1 $384 $385 $13 $-1 $386 reversed single #
loop $387 -1 $-1 $388 $389 $205 #
cone-surface $390 -1 $-1 0 80 5 0 0 -1 5 0 0 1 I I 0 1 5 forward I I I I #
model_id-kcp-attrib $-1 -1 $391 $-1 $206 1 1021385851 1021385851 -1730936831 19 #
loop $392 -1 $-1 $-1 $393 $142 #
surf-twe-attrib $-1 -1 $-1 $-1 $207 34 #
loop_type-twe-attrib $-1 -1 $-1 $208 $143 1 #
loop_type-twe-attrib $-1 -1 $-1 $-1 $209 0 #
coedge $-1 -1 $-1 $296 $296 $213 $300 reversed $209 $-1 #
coedge $-1 -1 $-1 $297 $297 $210 $298 forward $385 $-1 #
edge $394 -1 $-1 $395 -3.1415926535897931 $395 3.1415926535897931 $297 $396 forward @7 unknown #
surf-twe-attrib $-1 -1 $-1 $211 $144 7 #
edge $397 -1 $-1 $398 0 $398 6.2831853071795862 $296 $399 forward @7 unknown #
attrib_edge_convexity-kcp-attrib $-1 -1 $400 $-1 $215 1 #
vertex $-1 -1 $-1 $215 $401 #
ellipse-curve $402 -1 $-1 -40 80 5 0 0 -1 8 0 0 1 I I #
convexity-sys-attrib $-1 -1 $403 $216 $153 #
model_id-kcp-attrib $-1 -1 $-1 $-1 $217 1 1021385851 1021385851 -1730936831 23 #
point $-1 -1 $-1 35 80 -5 #
cur-twe-attrib $-1 -1 $-1 $-1 $218 44 #
convexity-sys-attrib $-1 -1 $404 $219 $155 #
point $-1 -1 $-1 48 80 -5 #
cur-twe-attrib $-1 -1 $-1 $-1 $221 46 #
loop_type-twe-attrib $-1 -1 $-1 $-1 $223 1 #
loop $405 -1 $-1 $406 $407 $224 #
model_id-kcp-attrib $-1 -1 $408 $-1 $224 1 1021385851 1021385851 -1730936831 14 #
face $409 -1 $-1 $410 $411 $13 $-1 $412 forward single #
plane-surface $413 -1 $-1 74.000000000000099 95 5 0 0 1 1 0 0 forward_v I I I I #
edge_name-twe-attrib $-1 -1 $-1 $225 $104 18 8704 #
vertex $-1 -1 $-1 $229 $414 #
ellipse-curve $-1 -1 $-1 0 0 5.0000000000000009 0 0 1 8 0 0 1 I I #
point $-1 -1 $-1 8 0 -5.0000000000000009 #
vertex $-1 -1 $-1 $233 $415 #
ellipse-curve $-1 -1 $-1 0 0 5.0000000000000009 0 0 1 8 0 0 1 I I #
point $-1 -1 $-1 8 0 -5.0000000000000009 #
vertex $-1 -1 $-1 $237 $416 #
ellipse-curve $-1 -1 $-1 0 0 5 0 0 1 5 0 0 1 I I #
point $-1 -1 $-1 5 0 -5 #
vertex $-1 -1 $-1 $241 $417 #
ellipse-curve $-1 -1 $-1 0 0 10 0 0 1 5 0 0 1 I I #
point $-1 -1 $-1 5 0 -10 #
vertex $-1 -1 $-1 $245 $418 #
ellipse-curve $-1 -1 $-1 0 0 5 0 0 1 5 0 0 1 I I #
point $-1 -1 $-1 5 0 -5 #
face $-1 -1 $-1 $-1 $419 $47 $-1 $420 reversed single #
plane-surface $-1 -1 $-1 3.1086244689504383e-015 -12.5 10 0 0 1 1 0 0 forward_v I I I I #
coedge $-1 -1 $-1 $258 $421 $260 $350 forward $249 $-1 #
coedge $-1 -1 $-1 $422 $251 $421 $423 reversed $186 $-1 #
coedge $-1 -1 $-1 $251 $422 $252 $340 forward $186 $-1 #
coedge $-1 -1 $-1 $254 $260 $251 $338 reversed $261 $-1 #
edge $-1 -1 $-1 $341 -8.75 $424 -3.75 $251 $425 forward @7 unknown #
coedge $-1 -1 $-1 $253 $252 $426 $427 reversed $131 $-1 #
edge $-1 -1 $-1 $428 0 $341 5 $336 $429 forward @7 unknown #
vertex $-1 -1 $-1 $340 $430 #
straight-curve $-1 -1 $-1 0 -15 10 -1 0 0 I I #
coedge $-1 -1 $-1 $426 $431 $256 $344 forward $419 $-1 #
edge $432 -1 $-1 $348 3.75 $345 8.75 $256 $433 forward @7 unknown #
vertex $-1 -1 $-1 $344 $434 #
straight-curve $-1 -1 $-1 74.000000000000071 -15 5 0 0 1 I I #
coedge $-1 -1 $-1 $421 $258 $431 $435 reversed $249 $-1 #
vertex $-1 -1 $-1 $435 $436 #
straight-curve $-1 -1 $-1 74.000000000000071 -10 5 0 0 1 I I #
edge $-1 -1 $-1 $424 -111.00000000000007 $262 37.000000000000043 $334 $437 forward @7 unknown #
point $-1 -1 $-1 74.000000000000071 -10 10 #
point $-1 -1 $-1 74.000000000000071 -15 10 #
model_id-kcp-attrib $-1 -1 $-1 $-1 $266 1 1021385851 1021385851 -1730936830 4 #
face $438 -1 $-1 $-1 $281 $48 $-1 $439 reversed single #
loop $-1 -1 $-1 $-1 $370 $266 #
plane-surface $-1 -1 $-1 0 15 0 0 -1 0 0 0 -1 forward_v I I I I #
coedge $-1 -1 $-1 $440 $368 $371 $441 forward $267 $-1 #
coedge $-1 -1 $-1 $374 $269 $270 $362 reversed $195 $-1 #
coedge $-1 -1 $-1 $368 $440 $269 $360 reversed $267 $-1 #
edge $-1 -1 $-1 $375 -10 $442 10 $359 $443 forward @7 unknown #
coedge $-1 -1 $-1 $271 $270 $440 $444 forward $136 $-1 #
edge $-1 -1 $-1 $366 -74.000000000000057 $442 74.000000000000057 $358 $445 forward @7 unknown #
coedge $-1 -1 $-1 $371 $370 $271 $364 reversed $355 $-1 #
edge $-1 -1 $-1 $446 -74.000000000000057 $365 74.000000000000057 $363 $447 forward @7 unknown #
vertex $-1 -1 $-1 $273 $448 #
vertex $-1 -1 $-1 $377 $449 #
straight-curve $-1 -1 $-1 74.000000000000057 0 -10 0 -1 0 I I #
coedge $-1 -1 $-1 $357 $359 $274 $369 reversed $267 $-1 #
edge $-1 -1 $-1 $372 -15 $375 15 $368 $450 forward @7 unknown #
coedge $-1 -1 $-1 $363 $275 $280 $378 forward $355 $-1 #
coedge $-1 -1 $-1 $275 $363 $357 $441 reversed $355 $-1 #
vertex $-1 -1 $-1 $276 $451 #
straight-curve $-1 -1 $-1 0 15 10 -1 0 0 I I #
coedge $-1 -1 $-1 $277 $358 $279 $377 reversed $195 $-1 #
vertex $-1 -1 $-1 $369 $452 #
straight-curve $-1 -1 $-1 0 -15 10 1 0 0 I I #
edge $-1 -1 $-1 $282 -10 $366 10 $279 $453 forward @7 unknown #
edge $-1 -1 $-1 $283 -10 $365 10 $280 $454 forward @7 unknown #
point $-1 -1 $-1 74.000000000000057 -15 10 #
point $-1 -1 $-1 74.000000000000057 15 10 #
primitive_order-cdc-attrib $-1 -1 $-1 $286 $142 3 10 #
face_name-twe-attrib $-1 -1 $455 $287 $205 6 #
model_id-kcp-attrib $-1 -1 $456 $-1 $288 1 1021385851 1021385851 -1730936831 8 #
face $457 -1 $-1 $458 $459 $13 $-1 $460 forward single #
loop $461 -1 $-1 $462 $297 $288 #
cone-surface $463 -1 $-1 -40 80 5 0 0 -1 5 0 0 1 I I 0 1 5 forward I I I I #
model_id-kcp-attrib $-1 -1 $464 $-1 $289 1 1021385851 1021385851 -1730936831 26 #
loop $465 -1 $-1 $-1 $466 $205 #
coedge $-1 -1 $-1 $389 $389 $467 $468 reversed $289 $-1 #
surf-twe-attrib $-1 -1 $-1 $-1 $290 53 #
loop_type-twe-attrib $-1 -1 $-1 $291 $206 0 #
model_id-kcp-attrib $-1 -1 $469 $-1 $292 1 1021385851 1021385851 -1730936831 20 #
coedge $-1 -1 $-1 $393 $393 $470 $471 reversed $292 $-1 #
attrib_edge_convexity-kcp-attrib $-1 -1 $472 $-1 $298 1 #
vertex $473 -1 $-1 $298 $474 #
ellipse-curve $475 -1 $-1 -40 80 -5 0 0 1 5 0 0 1 I I #
attrib_edge_convexity-kcp-attrib $-1 -1 $476 $-1 $300 2 #
vertex $-1 -1 $-1 $300 $477 #
ellipse-curve $478 -1 $-1 -40 80 -5 0 0 -1 8 0 0 1 I I #
convexity-sys-attrib $-1 -1 $479 $301 $215 #
point $-1 -1 $-1 -32 80 5 #
cur-twe-attrib $-1 -1 $-1 $-1 $303 63 #
edge_name-twe-attrib $-1 -1 $-1 $304 $153 3 8704 #
edge_name-twe-attrib $-1 -1 $-1 $308 $155 1 4608 #
model_id-kcp-attrib $-1 -1 $480 $-1 $312 1 1021385851 1021385851 -1730936831 29 #
loop $481 -1 $-1 $-1 $482 $224 #
coedge $-1 -1 $-1 $407 $407 $466 $483 forward $312 $-1 #
face_name-twe-attrib $-1 -1 $484 $313 $224 13 #
model_id-kcp-attrib $-1 -1 $485 $-1 $314 1 1021385851 1021385851 -1730936831 15 #
face $486 -1 $-1 $-1 $487 $13 $-1 $488 forward single #
loop $489 -1 $-1 $-1 $490 $314 #
plane-surface $491 -1 $-1 -74 76.666666666666998 -3.3333333333333299 -1 0 0 0 0 1 forward_v I I I I #
surf-twe-attrib $-1 -1 $-1 $-1 $315 72 #
point $-1 -1 $-1 8 0 5.0000000000000009 #
point $-1 -1 $-1 8 0 5.0000000000000009 #
point $-1 -1 $-1 5 0 5 #
point $-1 -1 $-1 5 0 10 #
point $-1 -1 $-1 5 0 5 #
loop $-1 -1 $-1 $-1 $431 $332 #
plane-surface $-1 -1 $-1 3.1086244689504383e-015 -12.5 5 0 0 1 1 0 0 forward_v I I I I #
coedge $-1 -1 $-1 $334 $347 $335 $423 forward $249 $-1 #
coedge $-1 -1 $-1 $336 $335 $492 $493 reversed $186 $-1 #
edge $-1 -1 $-1 $494 0 $424 5 $421 $495 forward @7 unknown #
vertex $-1 -1 $-1 $423 $496 #
straight-curve $-1 -1 $-1 -74.000000000000057 -6.25 10 0 1 0 I I #
coedge $-1 -1 $-1 $492 $343 $339 $427 forward $419 $-1 #
edge $497 -1 $-1 $345 -74.000000000000057 $428 74.000000000000057 $339 $498 forward @7 unknown #
vertex $-1 -1 $-1 $427 $499 #
straight-curve $-1 -1 $-1 -74.000000000000057 -15 5 0 0 1 I I #
point $-1 -1 $-1 -74.000000000000057 -15 10 #
coedge $-1 -1 $-1 $343 $492 $347 $435 forward $419 $-1 #
convexity-sys-attrib $-1 -1 $-1 $-1 $344 #
straight-curve $-1 -1 $-1 74.000000000000057 -6.25 5 0 -1 0 I I #
point $-1 -1 $-1 74.000000000000057 -15 5 #
edge $500 -1 $-1 $494 -111.00000000000007 $348 37.000000000000028 $347 $501 forward @7 unknown #
point $-1 -1 $-1 74.000000000000057 -10 5 #
straight-curve $-1 -1 $-1 37.000000000000028 -10 10 1 0 0 I I #
model_id-kcp-attrib $-1 -1 $-1 $-1 $354 1 1021385851 1021385851 -1730936830 7 #
plane-surface $-1 -1 $-1 74.000000000000057 0 0 -1 0 0 0 0 1 forward_v I I I I #
coedge $-1 -1 $-1 $359 $357 $361 $444 reversed $267 $-1 #
edge $-1 -1 $-1 $372 -10 $446 10 $371 $502 forward @7 unknown #
vertex $-1 -1 $-1 $444 $503 #
straight-curve $-1 -1 $-1 -74.000000000000057 -15 0 0 0 -1 I I #
edge $-1 -1 $-1 $442 -15 $446 15 $440 $504 forward @7 unknown #
straight-curve $-1 -1 $-1 0 -15 -10 -1 0 0 I I #
vertex $-1 -1 $-1 $364 $505 #
straight-curve $-1 -1 $-1 0 15 -10 1 0 0 I I #
point $-1 -1 $-1 74.000000000000057 15 -10 #
point $-1 -1 $-1 74.000000000000057 -15 -10 #
straight-curve $-1 -1 $-1 -74.000000000000057 0 10 0 -1 0 I I #
point $-1 -1 $-1 -74.000000000000057 15 10 #
point $-1 -1 $-1 -74.000000000000057 -15 10 #
straight-curve $-1 -1 $-1 74.000000000000057 -15 0 0 0 -1 I I #
straight-curve $-1 -1 $-1 74.000000000000057 15 0 0 0 -1 I I #
primitive_order-cdc-attrib $-1 -1 $-1 $382 $205 2 10 #
face_name-twe-attrib $-1 -1 $506 $383 $288 7 #
model_id-kcp-attrib $-1 -1 $507 $-1 $384 1 1021385851 1021385851 -1730936831 9 #
face $508 -1 $-1 $509 $510 $13 $-1 $511 forward single #
loop $512 -1 $-1 $-1 $513 $384 #
plane-surface $514 -1 $-1 74.000000000000099 70 5 0 -1 0 0 0 -1 forward_v I I I I #
model_id-kcp-attrib $-1 -1 $515 $-1 $385 1 1021385851 1021385851 -1730936831 33 #
loop $516 -1 $-1 $-1 $517 $288 #
surf-twe-attrib $-1 -1 $-1 $-1 $386 77 #
loop_type-twe-attrib $-1 -1 $-1 $387 $289 0 #
model_id-kcp-attrib $-1 -1 $518 $-1 $388 1 1021385851 1021385851 -1730936831 27 #
coedge $-1 -1 $-1 $466 $466 $407 $483 reversed $388 $-1 #
coedge $-1 -1 $-1 $467 $467 $389 $468 forward $519 $-1 #
edge $520 -1 $-1 $521 0 $521 6.2831853071795862 $467 $522 forward @7 unknown #
loop_type-twe-attrib $-1 -1 $-1 $392 $292 1 #
coedge $-1 -1 $-1 $470 $470 $393 $471 forward $523 $-1 #
edge $524 -1 $-1 $525 0 $525 6.2831853071795862 $470 $526 forward @7 unknown #
convexity-sys-attrib $-1 -1 $527 $394 $298 #
model_id-kcp-attrib $-1 -1 $-1 $-1 $395 1 1021385851 1021385851 -1730936831 37 #
point $-1 -1 $-1 -45 80 -5 #
cur-twe-attrib $-1 -1 $-1 $-1 $396 86 #
convexity-sys-attrib $-1 -1 $528 $397 $300 #
point $-1 -1 $-1 -32 80 -5 #
cur-twe-attrib $-1 -1 $-1 $-1 $399 88 #
edge_name-twe-attrib $-1 -1 $-1 $400 $215 19 8704 #
loop_type-twe-attrib $-1 -1 $-1 $405 $312 1 #
loop_type-twe-attrib $-1 -1 $-1 $-1 $406 0 #
coedge $-1 -1 $-1 $529 $530 $531 $532 forward $406 $-1 #
edge $533 -1 $-1 $534 0 $534 6.2831853071795862 $407 $535 forward @7 unknown #
primitive_order-cdc-attrib $-1 -1 $-1 $408 $224 0 10 #
face_name-twe-attrib $-1 -1 $536 $409 $314 14 #
model_id-kcp-attrib $-1 -1 $537 $-1 $410 1 1021385851 1021385851 -1730936831 16 #
loop $538 -1 $-1 $-1 $539 $410 #
plane-surface $540 -1 $-1 74.000000000000099 76.666666666666998 -3.3333333333333299 1 0 0 0 0 -1 forward_v I I I I #
loop_type-twe-attrib $-1 -1 $-1 $-1 $411 0 #
coedge $-1 -1 $-1 $531 $541 $513 $542 reversed $411 $-1 #
surf-twe-attrib $-1 -1 $-1 $-1 $412 99 #
coedge $-1 -1 $-1 $431 $426 $422 $493 forward $419 $-1 #
edge $543 -1 $-1 $428 -8.75 $494 -3.75 $422 $544 forward @7 unknown #
vertex $-1 -1 $-1 $435 $545 #
straight-curve $-1 -1 $-1 -74.000000000000043 -10 5 0 0 1 I I #
point $-1 -1 $-1 -74.000000000000043 -10 10 #
convexity-sys-attrib $-1 -1 $-1 $-1 $427 #
straight-curve $-1 -1 $-1 0 -15 5 -1 0 0 I I #
point $-1 -1 $-1 -74.000000000000057 -15 5 #
convexity-sys-attrib $-1 -1 $-1 $-1 $435 #
straight-curve $-1 -1 $-1 37.000000000000028 -10 5 1 0 0 I I #
straight-curve $-1 -1 $-1 -74.000000000000057 15 0 0 0 -1 I I #
point $-1 -1 $-1 -74.000000000000057 -15 -10 #
straight-curve $-1 -1 $-1 -74.000000000000057 0 -10 0 1 0 I I #
point $-1 -1 $-1 -74.000000000000057 15 -10 #
primitive_order-cdc-attrib $-1 -1 $-1 $456 $288 1 10 #
face_name-twe-attrib $-1 -1 $546 $457 $384 8 #
model_id-kcp-attrib $-1 -1 $547 $-1 $458 1 1021385851 1021385851 -1730936831 10 #
face $548 -1 $-1 $549 $550 $13 $-1 $551 forward single #
loop $552 -1 $-1 $-1 $553 $458 #
plane-surface $554 -1 $-1 74.000000000000099 70 0 0 0 1 1 0 0 forward_v I I I I #
loop_type-twe-attrib $-1 -1 $-1 $-1 $459 0 #
coedge $-1 -1 $-1 $555 $556 $490 $542 forward $459 $-1 #
surf-twe-attrib $-1 -1 $-1 $-1 $460 103 #
loop_type-twe-attrib $-1 -1 $-1 $461 $385 0 #
model_id-kcp-attrib $-1 -1 $557 $-1 $462 1 1021385851 1021385851 -1730936831 34 #
coedge $-1 -1 $-1 $517 $517 $558 $559 reversed $462 $-1 #
loop_type-twe-attrib $-1 -1 $-1 $465 $388 1 #
loop $560 -1 $-1 $561 $467 $549 #
attrib_edge_convexity-kcp-attrib $-1 -1 $562 $-1 $468 1 #
vertex $563 -1 $-1 $468 $564 #
ellipse-curve $565 -1 $-1 0 80 -15 0 0 1 5 0 0 1 I I #
loop $566 -1 $-1 $519 $470 $549 #
attrib_edge_convexity-kcp-attrib $-1 -1 $567 $-1 $471 1 #
vertex $568 -1 $-1 $471 $569 #
ellipse-curve $570 -1 $-1 40 80 -15 0 0 1 5 0 0 1 I I #
edge_name-twe-attrib $-1 -1 $-1 $472 $298 4 8704 #
edge_name-twe-attrib $-1 -1 $-1 $476 $300 2 4608 #
coedge $-1 -1 $-1 $571 $482 $556 $572 reversed $406 $-1 #
coedge $-1 -1 $-1 $482 $571 $573 $574 forward $406 $-1 #
coedge $-1 -1 $-1 $575 $490 $482 $532 reversed $411 $-1 #
edge $576 -1 $-1 $577 0 $578 25 $482 $579 forward @7 unknown #
attrib_edge_convexity-kcp-attrib $-1 -1 $580 $-1 $483 1 #
vertex $581 -1 $-1 $483 $582 #
ellipse-curve $583 -1 $-1 0 80 5 0 0 -1 5 0 0 1 I I #
primitive_order-cdc-attrib $-1 -1 $-1 $485 $314 0 10 #
face_name-twe-attrib $-1 -1 $584 $486 $410 15 #
loop_type-twe-attrib $-1 -1 $-1 $-1 $487 0 #
coedge $-1 -1 $-1 $585 $586 $571 $587 forward $487 $-1 #
surf-twe-attrib $-1 -1 $-1 $-1 $488 125 #
coedge $-1 -1 $-1 $490 $588 $553 $589 reversed $411 $-1 #
edge $590 -1 $-1 $578 0 $591 5 $513 $592 forward @7 unknown #
convexity-sys-attrib $-1 -1 $-1 $-1 $493 #
straight-curve $-1 -1 $-1 -74.000000000000057 -6.25 5 0 1 0 I I #
point $-1 -1 $-1 -74.000000000000043 -10 5 #
primitive_order-cdc-attrib $-1 -1 $-1 $507 $384 0 10 #
face_name-twe-attrib $-1 -1 $593 $508 $458 9 #
model_id-kcp-attrib $-1 -1 $594 $-1 $509 1 1021385851 1021385851 -1730936831 11 #
face $595 -1 $-1 $596 $523 $13 $-1 $597 forward single #
loop $598 -1 $-1 $-1 $599 $509 #
plane-surface $600 -1 $-1 74.000000000000099 65 0 0 -1 0 0 0 -1 forward_v I I I I #
loop_type-twe-attrib $-1 -1 $-1 $-1 $510 0 #
coedge $-1 -1 $-1 $601 $602 $541 $589 forward $510 $-1 #
surf-twe-attrib $-1 -1 $-1 $-1 $511 131 #
coedge $-1 -1 $-1 $603 $513 $602 $604 reversed $459 $-1 #
coedge $-1 -1 $-1 $513 $603 $529 $572 forward $459 $-1 #
loop_type-twe-attrib $-1 -1 $-1 $516 $462 1 #
coedge $-1 -1 $-1 $558 $558 $517 $559 forward $561 $-1 #
edge $605 -1 $-1 $606 0 $606 6.2831853071795862 $558 $607 forward @7 unknown #
model_id-kcp-attrib $-1 -1 $608 $-1 $519 1 1021385851 1021385851 -1730936831 28 #
loop $609 -1 $-1 $610 $558 $549 #
convexity-sys-attrib $-1 -1 $611 $520 $468 #
model_id-kcp-attrib $-1 -1 $-1 $-1 $521 1 1021385851 1021385851 -1730936831 30 #
point $-1 -1 $-1 5 80 -15 #
cur-twe-attrib $-1 -1 $-1 $-1 $522 140 #
model_id-kcp-attrib $-1 -1 $612 $-1 $523 1 1021385851 1021385851 -1730936831 22 #
convexity-sys-attrib $-1 -1 $613 $524 $471 #
model_id-kcp-attrib $-1 -1 $-1 $-1 $525 1 1021385851 1021385851 -1730936831 24 #
point $-1 -1 $-1 45 80 -15 #
cur-twe-attrib $-1 -1 $-1 $-1 $526 142 #
coedge $-1 -1 $-1 $530 $529 $539 $587 reversed $406 $-1 #
edge $614 -1 $-1 $615 0 $578 148.00000000000011 $556 $616 forward @7 unknown #
coedge $-1 -1 $-1 $617 $618 $530 $574 reversed $619 $-1 #
edge $620 -1 $-1 $621 0 $577 148.00000000000011 $530 $622 forward @7 unknown #
coedge $-1 -1 $-1 $623 $531 $618 $624 reversed $411 $-1 #
attrib_edge_convexity-kcp-attrib $-1 -1 $625 $-1 $532 1 #
vertex $-1 -1 $-1 $574 $626 #
vertex $-1 -1 $-1 $572 $627 #
straight-curve $628 -1 $-1 -74 95 5 0 -1 0 I I #
convexity-sys-attrib $-1 -1 $629 $533 $483 #
model_id-kcp-attrib $-1 -1 $-1 $-1 $534 1 1021385851 1021385851 -1730936831 31 #
point $-1 -1 $-1 5 80 5 #
cur-twe-attrib $-1 -1 $-1 $-1 $535 149 #
primitive_order-cdc-attrib $-1 -1 $-1 $537 $410 0 10 #
coedge $-1 -1 $-1 $630 $539 $603 $631 forward $487 $-1 #
coedge $-1 -1 $-1 $539 $632 $617 $633 forward $487 $-1 #
edge $634 -1 $-1 $621 0 $615 25 $539 $635 forward @7 unknown #
coedge $-1 -1 $-1 $541 $623 $599 $636 reversed $411 $-1 #
edge $637 -1 $-1 $591 0 $638 5 $553 $639 forward @7 unknown #
attrib_edge_convexity-kcp-attrib $-1 -1 $640 $-1 $542 1 #
vertex $-1 -1 $-1 $604 $641 #
straight-curve $642 -1 $-1 -74 70 5 0 0 -1 I I #
primitive_order-cdc-attrib $-1 -1 $-1 $547 $458 0 10 #
face_name-twe-attrib $-1 -1 $643 $548 $509 10 #
model_id-kcp-attrib $-1 -1 $644 $-1 $549 1 1021385851 1021385851 -1730936831 12 #
face $645 -1 $-1 $224 $619 $13 $-1 $646 forward single #
plane-surface $647 -1 $-1 74.000000000000099 65 -15 0 0 -1 -1 0 0 forward_v I I I I #
loop_type-twe-attrib $-1 -1 $-1 $-1 $550 0 #
coedge $-1 -1 $-1 $648 $649 $588 $636 forward $550 $-1 #
surf-twe-attrib $-1 -1 $-1 $-1 $551 159 #
coedge $-1 -1 $-1 $650 $553 $649 $651 reversed $510 $-1 #
coedge $-1 -1 $-1 $553 $650 $555 $604 forward $510 $-1 #
coedge $-1 -1 $-1 $556 $555 $585 $631 reversed $459 $-1 #
edge $652 -1 $-1 $653 0 $591 148.00000000000011 $602 $654 forward @7 unknown #
attrib_edge_convexity-kcp-attrib $-1 -1 $655 $-1 $559 1 #
vertex $656 -1 $-1 $559 $657 #
ellipse-curve $658 -1 $-1 -40 80 -15 0 0 1 5 0 0 1 I I #
loop_type-twe-attrib $-1 -1 $-1 $560 $519 1 #
model_id-kcp-attrib $-1 -1 $659 $-1 $561 1 1021385851 1021385851 -1730936831 36 #
loop $660 -1 $-1 $-1 $661 $549 #
edge_name-twe-attrib $-1 -1 $-1 $562 $468 12 8704 #
loop_type-twe-attrib $-1 -1 $-1 $566 $523 1 #
edge_name-twe-attrib $-1 -1 $-1 $567 $471 11 8704 #
attrib_edge_convexity-kcp-attrib $-1 -1 $662 $-1 $572 1 #
vertex $-1 -1 $-1 $587 $663 #
straight-curve $664 -1 $-1 74.000000000000099 70 5 -1 0 0 I I #
coedge $-1 -1 $-1 $665 $573 $586 $633 reversed $619 $-1 #
coedge $-1 -1 $-1 $573 $665 $575 $624 forward $619 $-1 #
loop $666 -1 $-1 $-1 $618 $596 #
edge_name-twe-attrib $-1 -1 $-1 $-1 $574 22 8704 #
vertex $-1 -1 $-1 $587 $667 #
straight-curve $668 -1 $-1 74.000000000000099 95 5 -1 0 0 I I #
coedge $-1 -1 $-1 $588 $575 $661 $669 reversed $411 $-1 #
edge $670 -1 $-1 $671 0 $577 20 $618 $672 forward @7 unknown #
convexity-sys-attrib $-1 -1 $673 $576 $532 #
point $-1 -1 $-1 -74 95 5 #
point $-1 -1 $-1 -74 70 5 #
cur-twe-attrib $-1 -1 $-1 $-1 $579 178 #
edge_name-twe-attrib $-1 -1 $-1 $580 $483 20 8704 #
coedge $-1 -1 $-1 $674 $585 $650 $675 forward $487 $-1 #
edge $676 -1 $-1 $615 0 $653 5 $585 $677 forward @7 unknown #
coedge $-1 -1 $-1 $586 $674 $678 $679 forward $487 $-1 #
edge $680 -1 $-1 $681 0 $621 20 $586 $682 forward @7 unknown #
edge_name-twe-attrib $-1 -1 $-1 $-1 $587 23 8704 #
straight-curve $683 -1 $-1 74.000000000000099 95 5 0 -1 0 I I #
edge $684 -1 $-1 $638 0 $685 15 $599 $686 forward @7 unknown #
attrib_edge_convexity-kcp-attrib $-1 -1 $687 $-1 $589 1 #
vertex $-1 -1 $-1 $651 $688 #
straight-curve $689 -1 $-1 -74 70 0 0 -1 0 I I #
convexity-sys-attrib $-1 -1 $690 $590 $542 #
point $-1 -1 $-1 -74 70 0 #
cur-twe-attrib $-1 -1 $-1 $-1 $592 187 #
primitive_order-cdc-attrib $-1 -1 $-1 $594 $509 0 10 #
face_name-twe-attrib $-1 -1 $691 $595 $549 11 #
model_id-kcp-attrib $-1 -1 $692 $-1 $596 1 1021385851 1021385851 -1730936831 13 #
plane-surface $693 -1 $-1 74.000000000000099 95 -15 0 1 0 0 0 1 forward_v I I I I #
surf-twe-attrib $-1 -1 $-1 $-1 $597 190 #
coedge $-1 -1 $-1 $694 $599 $695 $696 reversed $550 $-1 #
coedge $-1 -1 $-1 $599 $694 $601 $651 forward $550 $-1 #
coedge $-1 -1 $-1 $602 $601 $630 $675 reversed $510 $-1 #
edge $697 -1 $-1 $698 0 $638 148.00000000000011 $649 $699 forward @7 unknown #
attrib_edge_convexity-kcp-attrib $-1 -1 $700 $-1 $604 2 #
vertex $-1 -1 $-1 $631 $701 #
straight-curve $702 -1 $-1 74.000000000000099 70 0 -1 0 0 I I #
convexity-sys-attrib $-1 -1 $703 $605 $559 #
model_id-kcp-attrib $-1 -1 $-1 $-1 $606 1 1021385851 1021385851 -1730936831 38 #
point $-1 -1 $-1 -35 80 -15 #
cur-twe-attrib $-1 -1 $-1 $-1 $607 199 #
loop_type-twe-attrib $-1 -1 $-1 $609 $561 1 #
loop_type-twe-attrib $-1 -1 $-1 $-1 $610 0 #
coedge $-1 -1 $-1 $704 $695 $623 $669 forward $610 $-1 #
convexity-sys-attrib $-1 -1 $705 $614 $572 #
point $-1 -1 $-1 74.000000000000099 70 5 #
cur-twe-attrib $-1 -1 $-1 $-1 $616 208 #
coedge $-1 -1 $-1 $618 $617 $704 $706 forward $619 $-1 #
loop_type-twe-attrib $-1 -1 $-1 $-1 $619 0 #
point $-1 -1 $-1 74.000000000000099 95 5 #
cur-twe-attrib $-1 -1 $-1 $-1 $622 210 #
edge $707 -1 $-1 $685 0 $671 30 $661 $708 forward @7 unknown #
attrib_edge_convexity-kcp-attrib $-1 -1 $709 $-1 $624 1 #
vertex $-1 -1 $-1 $706 $710 #
straight-curve $711 -1 $-1 -74 95 -15 0 0 1 I I #
edge_name-twe-attrib $-1 -1 $-1 $625 $532 21 8704 #
coedge $-1 -1 $-1 $632 $630 $694 $712 forward $487 $-1 #
edge $713 -1 $-1 $653 0 $698 5 $630 $714 forward @7 unknown #
attrib_edge_convexity-kcp-attrib $-1 -1 $715 $-1 $631 1 #
straight-curve $716 -1 $-1 74.000000000000099 70 5 0 0 -1 I I #
coedge $-1 -1 $-1 $695 $704 $632 $679 reversed $610 $-1 #
edge $717 -1 $-1 $718 0 $681 30 $632 $719 forward @7 unknown #
edge_name-twe-attrib $-1 -1 $-1 $-1 $633 28 8704 #
vertex $-1 -1 $-1 $679 $720 #
straight-curve $721 -1 $-1 74.000000000000099 95 -15 0 0 1 I I #
cur-twe-attrib $-1 -1 $-1 $-1 $635 220 #
attrib_edge_convexity-kcp-attrib $-1 -1 $722 $-1 $636 1 #
vertex $-1 -1 $-1 $696 $723 #
straight-curve $724 -1 $-1 -74 65 0 0 0 -1 I I #
convexity-sys-attrib $-1 -1 $725 $637 $589 #
point $-1 -1 $-1 -74 65 0 #
cur-twe-attrib $-1 -1 $-1 $-1 $639 222 #
edge_name-twe-attrib $-1 -1 $-1 $640 $542 5 8704 #
primitive_order-cdc-attrib $-1 -1 $-1 $644 $549 0 10 #
face_name-twe-attrib $-1 -1 $726 $645 $596 12 #
surf-twe-attrib $-1 -1 $-1 $-1 $646 228 #
coedge $-1 -1 $-1 $649 $648 $674 $712 reversed $550 $-1 #
coedge $-1 -1 $-1 $661 $678 $648 $696 forward $610 $-1 #
edge $727 -1 $-1 $718 0 $685 148.00000000000011 $695 $728 forward @7 unknown #
attrib_edge_convexity-kcp-attrib $-1 -1 $729 $-1 $651 1 #
vertex $-1 -1 $-1 $675 $730 #
straight-curve $731 -1 $-1 74.000000000000099 65 0 -1 0 0 I I #
convexity-sys-attrib $-1 -1 $732 $652 $604 #
point $-1 -1 $-1 74.000000000000099 70 0 #
cur-twe-attrib $-1 -1 $-1 $-1 $654 236 #
edge_name-twe-attrib $-1 -1 $-1 $655 $559 13 8704 #
coedge $-1 -1 $-1 $678 $661 $665 $706 reversed $610 $-1 #
edge_name-twe-attrib $-1 -1 $-1 $662 $572 6 8704 #
edge $733 -1 $-1 $681 0 $671 148.00000000000011 $665 $734 forward @7 unknown #
attrib_edge_convexity-kcp-attrib $-1 -1 $735 $-1 $669 1 #
straight-curve $736 -1 $-1 -74 65 -15 0 1 0 I I #
convexity-sys-attrib $-1 -1 $737 $670 $624 #
point $-1 -1 $-1 -74 95 -15 #
cur-twe-attrib $-1 -1 $-1 $-1 $672 252 #
edge $738 -1 $-1 $698 0 $718 15 $674 $739 forward @7 unknown #
attrib_edge_convexity-kcp-attrib $-1 -1 $740 $-1 $675 1 #
straight-curve $741 -1 $-1 74.000000000000099 70 0 0 -1 0 I I #
convexity-sys-attrib $-1 -1 $742 $676 $631 #
cur-twe-attrib $-1 -1 $-1 $-1 $677 257 #
attrib_edge_convexity-kcp-attrib $-1 -1 $743 $-1 $679 1 #
vertex $-1 -1 $-1 $712 $744 #
straight-curve $745 -1 $-1 74.000000000000099 65 -15 0 1 0 I I #
point $-1 -1 $-1 74.000000000000099 95 -15 #
cur-twe-attrib $-1 -1 $-1 $-1 $682 259 #
convexity-sys-attrib $-1 -1 $746 $684 $636 #
point $-1 -1 $-1 -74 65 -15 #
cur-twe-attrib $-1 -1 $-1 $-1 $686 262 #
edge_name-twe-attrib $-1 -1 $-1 $687 $589 7 8704 #
primitive_order-cdc-attrib $-1 -1 $-1 $692 $596 0 10 #
attrib_edge_convexity-kcp-attrib $-1 -1 $747 $-1 $696 1 #
straight-curve $748 -1 $-1 74.000000000000099 65 -15 -1 0 0 I I #
convexity-sys-attrib $-1 -1 $749 $697 $651 #
point $-1 -1 $-1 74.000000000000099 65 0 #
cur-twe-attrib $-1 -1 $-1 $-1 $699 275 #
edge_name-twe-attrib $-1 -1 $-1 $700 $604 8 4608 #
attrib_edge_convexity-kcp-attrib $-1 -1 $750 $-1 $706 1 #
straight-curve $751 -1 $-1 74.000000000000099 95 -15 -1 0 0 I I #
convexity-sys-attrib $-1 -1 $752 $707 $669 #
cur-twe-attrib $-1 -1 $-1 $-1 $708 289 #
edge_name-twe-attrib $-1 -1 $-1 $709 $624 16 8704 #
attrib_edge_convexity-kcp-attrib $-1 -1 $753 $-1 $712 1 #
straight-curve $754 -1 $-1 74.000000000000099 65 0 0 0 -1 I I #
convexity-sys-attrib $-1 -1 $755 $713 $675 #
cur-twe-attrib $-1 -1 $-1 $-1 $714 294 #
edge_name-twe-attrib $-1 -1 $-1 $715 $631 24 8704 #
convexity-sys-attrib $-1 -1 $756 $717 $679 #
point $-1 -1 $-1 74.000000000000099 65 -15 #
cur-twe-attrib $-1 -1 $-1 $-1 $719 298 #
edge_name-twe-attrib $-1 -1 $-1 $722 $636 9 8704 #
convexity-sys-attrib $-1 -1 $757 $727 $696 #
cur-twe-attrib $-1 -1 $-1 $-1 $728 312 #
edge_name-twe-attrib $-1 -1 $-1 $729 $651 10 8704 #
convexity-sys-attrib $-1 -1 $758 $733 $706 #
cur-twe-attrib $-1 -1 $-1 $-1 $734 319 #
edge_name-twe-attrib $-1 -1 $-1 $735 $669 14 8704 #
convexity-sys-attrib $-1 -1 $759 $738 $712 #
cur-twe-attrib $-1 -1 $-1 $-1 $739 324 #
edge_name-twe-attrib $-1 -1 $-1 $740 $675 25 8704 #
edge_name-twe-attrib $-1 -1 $-1 $743 $679 27 8704 #
edge_name-twe-attrib $-1 -1 $-1 $747 $696 15 8704 #
edge_name-twe-attrib $-1 -1 $-1 $750 $706 17 8704 #
edge_name-twe-attrib $-1 -1 $-1 $753 $712 26 8704 #
End-of-ACIS-data 