105 276 1 0                             
body $-1 $1 $-1 $2 #
lump $-1 $-1 $3 $0 #
transform $-1 1 0 0 0 -3.49148133884313e-15 1 0 -1 -3.49148133884313e-15 0 9.375 70 0.9375 1 0 0 #
shell $-1 $-1 $-1 $4 $1 #
face $-1 $5 $6 $3 $-1 $7 forward single #
face $-1 $8 $9 $3 $-1 $10 reversed single #
loop $-1 $-1 $11 $4 #
cone-surface $-1 37.8108891324553 0 -20.4903810567666 0 -1 0 1.2940952255126 0 -4.82962913144534 1 0 1 0 #
face $-1 $12 $13 $3 $-1 $14 reversed single #
loop $-1 $-1 $15 $5 #
plane-surface $-1 0 -75 0 0 1 -0 -0 0 1 0 #
coedge $-1 $16 $17 $18 $19 0 $6 $-1 #
face $-1 $20 $21 $3 $-1 $22 forward single #
loop $-1 $-1 $23 $8 #
plane-surface $-1 44.6410161513775 0 -18.6602540378444 -0.866025403784438 0 0.500000000000001 0.500000000000001 0 0.866025403784438 0 #
coedge $-1 $24 $25 $17 $26 1 $9 $-1 #
coedge $-1 $27 $11 $28 $29 0 $6 $-1 #
coedge $-1 $11 $27 $15 $26 0 $6 $-1 #
coedge $-1 $30 $31 $11 $19 1 $32 $-1 #
edge $-1 $33 $34 $18 $35 0 #
face $-1 $36 $37 $3 $-1 $38 forward single #
loop $-1 $-1 $39 $12 #
cone-surface $-1 42.8108891324553 0 -11.8301270189222 0 1 0 4.82962913144534 0 1.2940952255126 1 0 1 0 #
coedge $-1 $40 $41 $27 $42 1 $13 $-1 #
coedge $-1 $43 $15 $41 $44 1 $9 $-1 #
coedge $-1 $15 $45 $30 $46 1 $9 $-1 #
edge $-1 $47 $33 $15 $48 0 #
coedge $-1 $17 $16 $23 $42 0 $6 $-1 #
coedge $-1 $49 $50 $16 $29 1 $51 $-1 #
edge $-1 $34 $52 $28 $53 0 #
coedge $-1 $54 $18 $25 $46 0 $32 $-1 #
coedge $-1 $18 $54 $49 $55 0 $32 $-1 #
loop $-1 $-1 $18 $56 #
vertex $-1 $26 $57 #
vertex $-1 $55 $58 #
straight-curve $-1 35.3108891324553 0 -24.8205080756888 0 1 0 #
face $-1 $59 $60 $3 $-1 $61 forward single #
loop $-1 $-1 $62 $20 #
cone-surface $-1 -13.6602540378444 0 5 0 1 0 -1.29409522551261 0 4.82962913144534 1 0 1 0 #
coedge $-1 $63 $64 $65 $66 0 $21 $-1 #
coedge $-1 $67 $23 $50 $68 1 $13 $-1 #
coedge $-1 $23 $67 $24 $44 0 $13 $-1 #
edge $-1 $52 $47 $23 $69 0 #
coedge $-1 $70 $24 $63 $71 1 $9 $-1 #
edge $-1 $72 $47 $41 $73 0 #
coedge $-1 $25 $74 $75 $76 1 $9 $-1 #
edge $-1 $33 $77 $25 $78 0 #
vertex $-1 $44 $79 #
ellipse-curve $-1 37.8108891324553 -75 -20.4903810567666 0 1 -0 1.2940952255126 0 -4.82962913144534 1 #
coedge $-1 $80 $28 $31 $55 1 $51 $-1 #
coedge $-1 $28 $81 $40 $68 0 $51 $-1 #
loop $-1 $-1 $28 $82 #
vertex $-1 $68 $83 #
ellipse-curve $-1 37.8108891324553 75 -20.4903810567666 0 -1 0 1.2940952255126 0 -4.82962913144534 1 #
coedge $-1 $31 $30 $84 $85 1 $32 $-1 #
edge $-1 $86 $34 $49 $87 0 #
face $-1 $82 $32 $3 $-1 $88 reversed single #
point $-1 35.3108891324553 -75 -24.8205080756888 #
point $-1 35.3108891324553 75 -24.8205080756888 #
face $-1 $89 $90 $3 $-1 $91 forward single #
loop $-1 $-1 $92 $36 #
plane-surface $-1 0 0 10 0 0 1 1 0 0 0 #
coedge $-1 $93 $94 $95 $96 0 $37 $-1 #
coedge $-1 $97 $39 $43 $71 0 $21 $-1 #
coedge $-1 $39 $97 $81 $98 0 $21 $-1 #
coedge $-1 $99 $100 $39 $66 1 $101 $-1 #
edge $-1 $102 $103 $65 $104 0 #
coedge $-1 $41 $40 $97 $105 1 $13 $-1 #
edge $-1 $106 $52 $40 $107 0 #
straight-curve $-1 42.1410161513775 0 -22.9903810567666 0 -1 0 #
coedge $-1 $108 $43 $100 $109 1 $9 $-1 #
edge $-1 $103 $72 $43 $110 0 #
vertex $-1 $71 $111 #
straight-curve $-1 44.6410161513775 -75 -18.6602540378444 -0.500000000000001 0 -0.866025403784438 #
coedge $-1 $45 $112 $113 $114 1 $9 $-1 #
coedge $-1 $115 $84 $45 $76 0 $116 $-1 #
edge $-1 $77 $117 $45 $118 0 #
vertex $-1 $46 $119 #
straight-curve $-1 22.3205080756887 -75 -17.3205080756888 -0.866025403784438 0 0.500000000000001 #
point $-1 42.1410161513775 -75 -22.9903810567666 #
coedge $-1 $120 $49 $121 $122 1 $51 $-1 #
coedge $-1 $50 $123 $64 $98 1 $51 $-1 #
face $-1 $-1 $51 $3 $-1 $124 reversed single #
point $-1 42.1410161513775 75 -22.9903810567666 #
coedge $-1 $75 $121 $54 $85 0 $116 $-1 #
edge $-1 $86 $77 $84 $125 0 #
vertex $-1 $122 $126 #
straight-curve $-1 22.3205080756887 75 -17.3205080756888 0.866025403784438 0 -0.500000000000001 #
plane-surface $-1 22.3205080756887 0 -17.3205080756888 0.500000000000001 0 0.866025403784438 0.866025403784438 0 -0.500000000000001 0 #
face $-1 $127 $128 $3 $-1 $129 reversed single #
loop $-1 $-1 $130 $59 #
cone-surface $-1 -42.8108891324553 0 -11.8301270189222 0 -1 0 -4.82962913144534 0 1.2940952255126 1 0 1 0 #
coedge $-1 $131 $132 $133 $134 1 $60 $-1 #
coedge $-1 $133 $62 $135 $136 0 $37 $-1 #
coedge $-1 $62 $133 $137 $138 0 $37 $-1 #
coedge $-1 $139 $140 $62 $96 1 $141 $-1 #
edge $-1 $142 $143 $95 $144 0 #
coedge $-1 $64 $63 $67 $105 0 $21 $-1 #
edge $-1 $106 $102 $81 $145 0 #
coedge $-1 $146 $65 $123 $147 0 $101 $-1 #
coedge $-1 $65 $146 $70 $109 0 $101 $-1 #
loop $-1 $-1 $65 $148 #
vertex $-1 $66 $149 #
vertex $-1 $109 $150 #
straight-curve $-1 45.3108891324553 0 -7.49999999999999 -0 -1 -0 #
edge $-1 $72 $106 $67 $151 0 #
vertex $-1 $105 $152 #
straight-curve $-1 44.6410161513775 75 -18.6602540378444 -0.500000000000001 0 -0.866025403784438 #
coedge $-1 $153 $70 $154 $155 1 $9 $-1 #
edge $-1 $156 $103 $70 $157 0 #
ellipse-curve $-1 42.8108891324553 -75 -11.8301270189222 0 1 -0 4.82962913144534 0 1.2940952255126 1 #
point $-1 47.1410161513775 -75 -14.3301270189222 #
coedge $-1 $74 $158 $159 $160 1 $9 $-1 #
coedge $-1 $161 $162 $74 $114 0 $163 $-1 #
edge $-1 $117 $164 $74 $165 0 #
coedge $-1 $121 $75 $162 $166 0 $116 $-1 #
loop $-1 $-1 $115 $167 #
vertex $-1 $76 $168 #
straight-curve $-1 0 -75 -10 -1 0 0 #
point $-1 9.64101615137754 -75 -10 #
coedge $-1 $169 $80 $170 $171 1 $51 $-1 #
coedge $-1 $84 $115 $80 $122 0 $116 $-1 #
edge $-1 $172 $86 $80 $173 0 #
coedge $-1 $81 $174 $99 $147 1 $51 $-1 #
plane-surface $-1 0 75 0 0 -1 0 0 0 -1 0 #
straight-curve $-1 9.64101615137754 0 -10 0 -1 0 #
point $-1 9.64101615137754 75 -10 #
face $-1 $175 $176 $3 $-1 $177 forward single #
loop $-1 $-1 $178 $89 #
plane-surface $-1 -44.6410161513775 0 -18.6602540378444 0.866025403784438 0 0.500000000000001 0.500000000000001 0 -0.866025403784438 0 #
coedge $-1 $179 $180 $181 $182 0 $90 $-1 #
coedge $-1 $183 $92 $153 $184 0 $60 $-1 #
coedge $-1 $92 $183 $185 $186 0 $60 $-1 #
coedge $-1 $94 $93 $92 $134 0 $37 $-1 #
edge $-1 $187 $188 $92 $189 0 #
coedge $-1 $190 $153 $93 $136 1 $9 $-1 #
edge $-1 $143 $187 $135 $191 0 #
coedge $-1 $185 $192 $94 $138 1 $51 $-1 #
edge $-1 $188 $142 $137 $193 0 #
coedge $-1 $181 $95 $192 $194 0 $141 $-1 #
coedge $-1 $95 $181 $190 $195 0 $141 $-1 #
loop $-1 $-1 $95 $196 #
vertex $-1 $96 $197 #
vertex $-1 $195 $198 #
straight-curve $-1 -16.1602540378444 0 9.33012701892219 0 -1 0 #
ellipse-curve $-1 42.8108891324553 75 -11.8301270189222 0 -1 0 4.82962913144534 0 1.2940952255126 1 #
coedge $-1 $100 $99 $199 $200 1 $101 $-1 #
edge $-1 $102 $201 $123 $202 0 #
face $-1 $196 $101 $3 $-1 $203 forward single #
point $-1 45.3108891324553 75 -7.5 #
point $-1 45.3108891324553 -75 -7.5 #
straight-curve $-1 47.1410161513775 0 -14.3301270189222 0 1 0 #
point $-1 47.1410161513775 75 -14.3301270189222 #
coedge $-1 $135 $108 $131 $184 1 $9 $-1 #
coedge $-1 $199 $204 $108 $155 0 $205 $-1 #
edge $-1 $206 $156 $108 $207 0 #
vertex $-1 $155 $208 #
straight-curve $-1 32.3205080756888 -75 -1.95399252334028e-14 0.866025403784438 0 -0.500000000000001 #
coedge $-1 $112 $209 $210 $211 0 $9 $-1 #
coedge $-1 $212 $213 $112 $160 0 $176 $-1 #
edge $-1 $164 $214 $112 $215 0 #
coedge $-1 $170 $113 $213 $216 1 $163 $-1 #
coedge $-1 $113 $170 $115 $166 1 $163 $-1 #
loop $-1 $-1 $161 $217 #
vertex $-1 $114 $218 #
straight-curve $-1 -22.3205080756887 -75 -17.3205080756888 -0.866025403784438 0 -0.500000000000001 #
edge $-1 $117 $172 $115 $219 0 #
face $-1 $56 $116 $3 $-1 $220 reversed single #
point $-1 -9.64101615137754 -75 -10 #
coedge $-1 $221 $120 $222 $223 1 $51 $-1 #
coedge $-1 $162 $161 $120 $171 0 $163 $-1 #
edge $-1 $224 $172 $120 $225 0 #
vertex $-1 $171 $226 #
straight-curve $-1 0 75 -10 1 0 0 #
coedge $-1 $123 $185 $227 $228 1 $51 $-1 #
face $-1 $148 $205 $3 $-1 $229 forward single #
loop $-1 $-1 $213 $127 #
cone-surface $-1 -37.8108891324553 0 -20.4903810567666 0 1 0 -1.2940952255126 0 -4.82962913144534 1 0 1 0 #
coedge $-1 $230 $210 $231 $232 1 $128 $-1 #
coedge $-1 $231 $130 $233 $234 0 $90 $-1 #
coedge $-1 $130 $231 $209 $235 0 $90 $-1 #
coedge $-1 $140 $139 $130 $182 1 $141 $-1 #
edge $-1 $236 $237 $181 $238 0 #
coedge $-1 $132 $131 $204 $239 1 $60 $-1 #
edge $-1 $187 $206 $153 $240 0 #
coedge $-1 $174 $137 $132 $186 1 $51 $-1 #
edge $-1 $241 $188 $185 $242 0 #
vertex $-1 $136 $243 #
vertex $-1 $186 $244 #
straight-curve $-1 -13.6602540378444 0 10 0 1 0 #
coedge $-1 $209 $135 $140 $195 1 $9 $-1 #
ellipse-curve $-1 -13.6602540378444 -75 5 0 1 -0 -1.29409522551261 0 4.82962913144534 1 #
coedge $-1 $137 $233 $139 $194 1 $51 $-1 #
ellipse-curve $-1 -13.6602540378444 75 5 0 -1 0 -1.29409522551261 0 4.82962913144534 1 #
edge $-1 $142 $237 $192 $245 0 #
edge $-1 $236 $143 $190 $246 0 #
face $-1 $217 $141 $3 $-1 $247 forward single #
point $-1 -16.1602540378444 75 9.33012701892221 #
point $-1 -16.1602540378444 -75 9.33012701892221 #
coedge $-1 $227 $154 $146 $200 0 $205 $-1 #
edge $-1 $156 $201 $146 $248 0 #
vertex $-1 $147 $249 #
straight-curve $-1 32.3205080756888 75 -1.95399252334028e-14 -0.866025403784438 0 0.500000000000001 #
plane-surface $-1 32.3205080756888 0 -1.95399252334028e-14 0.500000000000001 0 0.866025403784438 0.866025403784438 0 -0.500000000000001 0 #
coedge $-1 $154 $227 $183 $239 0 $205 $-1 #
loop $-1 $-1 $199 $175 #
vertex $-1 $184 $250 #
ellipse-curve $-1 13.6602540378444 -75 5 0 1 -0 1.29409522551261 0 4.82962913144534 1 #
point $-1 16.1602540378444 -75 9.33012701892221 #
coedge $-1 $158 $190 $180 $235 1 $9 $-1 #
coedge $-1 $178 $251 $158 $211 1 $128 $-1 #
edge $-1 $252 $214 $210 $253 0 #
coedge $-1 $222 $159 $251 $254 0 $176 $-1 #
coedge $-1 $159 $222 $161 $216 0 $176 $-1 #
vertex $-1 $211 $255 #
ellipse-curve $-1 -37.8108891324553 -75 -20.4903810567666 0 1 -0 -1.2940952255126 0 -4.82962913144534 1 #
edge $-1 $224 $164 $161 $256 0 #
face $-1 $167 $163 $3 $-1 $257 reversed single #
point $-1 -35.3108891324553 -75 -24.8205080756888 #
straight-curve $-1 -9.64101615137754 0 -10 0 1 -0 #
plane-surface $-1 0 0 -10 0 0 1 1 0 0 0 #
coedge $-1 $233 $169 $230 $258 1 $51 $-1 #
coedge $-1 $213 $212 $169 $223 0 $176 $-1 #
edge $-1 $259 $224 $169 $260 0 #
vertex $-1 $216 $261 #
straight-curve $-1 -22.3205080756887 75 -17.3205080756888 0.866025403784438 0 0.500000000000001 #
point $-1 -9.64101615137754 75 -10 #
coedge $-1 $204 $199 $174 $228 0 $205 $-1 #
edge $-1 $201 $241 $174 $262 0 #
cone-surface $-1 13.6602540378444 0 5 0 -1 0 1.29409522551261 0 4.82962913144534 1 0 1 0 #
coedge $-1 $251 $178 $221 $258 0 $128 $-1 #
coedge $-1 $180 $179 $178 $232 0 $90 $-1 #
edge $-1 $263 $252 $178 $264 0 #
coedge $-1 $192 $221 $179 $234 1 $51 $-1 #
edge $-1 $237 $263 $233 $265 0 #
edge $-1 $252 $236 $209 $266 0 #
vertex $-1 $235 $267 #
vertex $-1 $194 $268 #
straight-curve $-1 -45.3108891324553 0 -7.49999999999999 0 1 0 #
edge $-1 $241 $206 $183 $269 0 #
straight-curve $-1 0 -75 10 1 0 0 #
vertex $-1 $239 $270 #
straight-curve $-1 0 75 10 -1 0 0 #
point $-1 -13.6602540378444 -75 10 #
point $-1 -13.6602540378444 75 10 #
straight-curve $-1 -32.3205080756888 75 -1.95399252334028e-14 -0.866025403784438 0 -0.500000000000001 #
straight-curve $-1 -32.3205080756888 -75 -1.95399252334028e-14 0.866025403784438 0 0.500000000000001 #
plane-surface $-1 -32.3205080756888 0 -1.95399252334028e-14 -0.500000000000001 0 0.866025403784438 0.866025403784438 0 0.500000000000001 0 #
straight-curve $-1 16.1602540378444 0 9.33012701892219 0 1 0 #
point $-1 16.1602540378444 75 9.33012701892221 #
point $-1 13.6602540378444 -75 10 #
coedge $-1 $210 $230 $212 $254 1 $128 $-1 #
vertex $-1 $232 $271 #
straight-curve $-1 -44.6410161513775 -75 -18.6602540378444 0.500000000000001 0 -0.866025403784438 #
edge $-1 $214 $259 $251 $272 0 #
point $-1 -42.1410161513775 -75 -22.9903810567666 #
straight-curve $-1 -35.3108891324553 0 -24.8205080756888 -0 -1 -0 #
plane-surface $-1 -22.3205080756887 0 -17.3205080756888 -0.500000000000001 0 0.866025403784438 0.866025403784438 0 0.500000000000001 0 #
edge $-1 $263 $259 $221 $273 0 #
vertex $-1 $258 $274 #
ellipse-curve $-1 -37.8108891324553 75 -20.4903810567666 0 -1 0 -1.2940952255126 0 -4.82962913144534 1 #
point $-1 -35.3108891324553 75 -24.8205080756888 #
ellipse-curve $-1 13.6602540378444 75 5 0 -1 0 1.29409522551261 0 4.82962913144534 1 #
vertex $-1 $232 $275 #
straight-curve $-1 -47.1410161513775 0 -14.3301270189222 0 -1 0 #
ellipse-curve $-1 -42.8108891324553 75 -11.8301270189222 0 -1 0 -4.82962913144534 0 1.2940952255126 1 #
ellipse-curve $-1 -42.8108891324553 -75 -11.8301270189222 0 1 -0 -4.82962913144534 0 1.2940952255126 1 #
point $-1 -45.3108891324553 -75 -7.5 #
point $-1 -45.3108891324553 75 -7.5 #
straight-curve $-1 13.6602540378444 0 10 -0 -1 -0 #
point $-1 13.6602540378444 75 10 #
point $-1 -47.1410161513775 -75 -14.3301270189222 #
straight-curve $-1 -42.1410161513775 0 -22.9903810567666 0 1 0 #
straight-curve $-1 -44.6410161513775 75 -18.6602540378444 0.500000000000001 0 -0.866025403784438 #
point $-1 -42.1410161513775 75 -22.9903810567666 #
point $-1 -47.1410161513775 75 -14.3301270189222 #
