600 0 2 0           
24 FBMach with ACIS - 6.0.3 13 ACIS 6.0.3 NT 24 Tue May 22 12:25:08 2001 
1 9.9999999999999995e-007 1e-010 
body $2 $3 $-1 $4 #
bdycol-kcp $-1 1 5 $5 $6 $7 $8 $9 #
model_id-kcp-attrib $-1 $-1 $-1 $0 1 990548707 70 1095106561 1 #
lump $-1 $-1 $10 $0 #
transform $-1 -1 -3.9589621511090302e-030 0 1.3196540503696845e-030 -1 -3.4914813388431286e-015 0 -3.4914813388431294e-015 1 7.1054273576010019e-015 16.636116120359581 -0.31249999999994316 1 rotate no_reflect no_shear #
body $11 $12 $-1 $13 #
body $14 $15 $-1 $16 #
body $17 $18 $-1 $19 #
body $20 $21 $-1 $22 #
body $23 $24 $-1 $25 #
shell $-1 $-1 $-1 $26 $-1 $3 #
model_id-kcp-attrib $-1 $-1 $-1 $5 1 990548707 70 1095106562 1 #
lump $-1 $-1 $27 $5 #
transform $-1 1 0 0 0 1 0 0 0 1 3.5527136788005009e-015 16.636116120359347 70.000000000000028 1 no_rotate no_reflect no_shear #
rgb_color-st-attrib $-1 $28 $-1 $6 0.5 1 1 #
lump $-1 $29 $30 $6 #
transform $-1 1 0 0 0 1 0 0 0 1 3.5527136788005009e-015 16.636116120359347 70.000000000000028 1 no_rotate no_reflect no_shear #
rgb_color-st-attrib $-1 $31 $-1 $7 0.5 0.5 1 #
lump $-1 $-1 $32 $7 #
transform $-1 1 0 0 0 1 0 0 0 1 3.5527136788005009e-015 16.636116120359347 70.000000000000028 1 no_rotate no_reflect no_shear #
rgb_color-st-attrib $-1 $33 $-1 $8 0.5 0.5 1 #
lump $-1 $-1 $34 $8 #
transform $-1 1 0 0 0 1 0 0 0 1 3.5527136788005009e-015 16.636116120359347 70.000000000000028 1 no_rotate no_reflect no_shear #
rgb_color-st-attrib $-1 $35 $-1 $9 0.5 0.5 1 #
lump $-1 $-1 $36 $9 #
transform $-1 1 0 0 0 1 0 0 0 1 3.5527136788005009e-015 16.636116120359347 70.000000000000028 1 no_rotate no_reflect no_shear #
face $37 $38 $39 $10 $-1 $40 forward single #
shell $-1 $-1 $-1 $41 $-1 $12 #
model_id-kcp-attrib $-1 $-1 $14 $6 1 990548707 340 1096024067 1 #
lump $-1 $-1 $42 $6 #
shell $-1 $-1 $-1 $43 $-1 $15 #
model_id-kcp-attrib $-1 $-1 $17 $7 1 990548707 410 1100611588 1 #
shell $-1 $-1 $-1 $44 $-1 $18 #
model_id-kcp-attrib $-1 $-1 $20 $8 1 990548707 420 1101266949 1 #
shell $-1 $-1 $-1 $45 $-1 $21 #
model_id-kcp-attrib $-1 $-1 $23 $9 1 990548707 440 1102577670 1 #
shell $-1 $-1 $-1 $46 $-1 $24 #
model_id-kcp-attrib $-1 $-1 $-1 $26 1 990548707 70 1095106561 2 #
face $47 $48 $49 $10 $-1 $50 reversed single #
loop $-1 $-1 $51 $26 #
cone-surface $-1 -35.447708561676848 -11.948616120359347 70.3125 0 0 -1 -1.2132142739180625 -4.5277773107300057 0 1 I I 0 1 4.6874999999999973 forward I I I I #
face $52 $53 $54 $27 $-1 $55 forward single #
shell $-1 $-1 $-1 $56 $-1 $29 #
face $-1 $57 $58 $30 $-1 $59 reversed single #
face $-1 $60 $61 $32 $-1 $62 reversed single #
face $-1 $63 $64 $34 $-1 $65 reversed single #
face $-1 $66 $67 $36 $-1 $68 reversed single #
model_id-kcp-attrib $-1 $69 $-1 $38 1 990548707 70 1095106561 31 #
face $70 $71 $72 $10 $-1 $73 reversed single #
loop $-1 $-1 $74 $38 #
plane-surface $-1 3.5527136788005009e-015 7.2611161203593433 0 0 0 1 0 0.9375 0 forward_v I I I I #
coedge $-1 $75 $76 $77 $78 forward $39 $-1 #
model_id-kcp-attrib $-1 $-1 $-1 $41 1 990548707 70 1095106562 4 #
face $79 $80 $81 $27 $-1 $82 reversed single #
loop $-1 $-1 $83 $41 #
plane-surface $-1 0 0 70.312500000000057 0 0 1 1 0 0 forward_v I I I I #
face $-1 $84 $85 $42 $-1 $86 reversed single #
face $-1 $87 $88 $30 $-1 $89 reversed single #
loop $-1 $-1 $90 $43 #
plane-surface $-1 -46.538452641916408 2.1138838796404258 70.3125 -0.500000000000001 -0.86602540378443804 -3.031649005909761e-015 0.86602540378443804 -0.500000000000001 -1.7457406694215683e-015 forward_v I I I I #
face $-1 $91 $92 $32 $-1 $93 reversed single #
loop $-1 $-1 $94 $44 #
plane-surface $-1 41.850952641916365 10.232872040119773 4.4188430412775171e-014 0.86602540378443804 0.500000000000001 1.7457406694215683e-015 -0.500000000000001 0.86602540378443804 0 forward_v I I I I #
face $-1 $95 $96 $34 $-1 $97 reversed single #
loop $-1 $-1 $98 $45 #
plane-surface $-1 -41.850952641916365 10.232872040119773 4.4188430412775171e-014 -0.86602540378443804 0.500000000000001 1.7457406694215683e-015 -0.500000000000001 -0.86602540378443804 0 forward_v I I I I #
face $-1 $99 $100 $36 $-1 $101 forward single #
loop $-1 $-1 $102 $46 #
plane-surface $-1 28.814598361077984 -8.1189881604791481 -4.0025803217497092e-014 0.500000000000001 -0.86602540378443804 -3.0237115362774515e-015 0.86602540378443804 0.500000000000001 0 forward_v I I I I #
model_id-kcp-attrib $-1 $-1 $47 $38 1 990548707 70 1095106561 3 #
model_id-kcp-attrib $-1 $-1 $-1 $48 1 990548707 70 1095106561 4 #
face $103 $104 $105 $10 $-1 $106 forward single #
loop $-1 $-1 $107 $48 #
plane-surface $-1 -41.850952641916408 -10.23287204011978 70.3125 0.86602540378443804 0.500000000000001 0 -0.46875000000000094 0.8118988160479107 0 forward_v I I I I #
coedge $-1 $108 $109 $76 $110 reversed $49 $-1 #
coedge $-1 $111 $51 $112 $113 forward $39 $-1 #
coedge $-1 $51 $111 $74 $110 forward $39 $-1 #
coedge $-1 $114 $115 $51 $78 reversed $116 $-1 #
edge $117 $118 -75 $119 75 $77 $120 forward 7 unknown #
model_id-kcp-attrib $-1 $-1 $-1 $53 1 990548707 70 1095106562 2 #
face $121 $122 $123 $27 $-1 $124 reversed single #
loop $-1 $-1 $125 $53 #
plane-surface $-1 0 0 -70.312500000000057 0 0 1 1 0 0 forward_v I I I I #
coedge $-1 $126 $127 $128 $129 forward $54 $-1 #
face $-1 $130 $131 $42 $-1 $132 forward single #
loop $-1 $-1 $133 $56 #
plane-surface $-1 44.822708561676848 0 0 -1 0 0 0 0 1 forward_v I I I I #
face $-1 $134 $135 $30 $-1 $136 reversed single #
loop $-1 $-1 $137 $57 #
plane-surface $-1 0 0 -70.312500000000057 0 0 1 1 0 0 forward_v I I I I #
coedge $-1 $138 $139 $140 $141 reversed $58 $-1 #
face $-1 $142 $143 $32 $-1 $144 forward single #
loop $-1 $-1 $145 $60 #
plane-surface $-1 0 0 -70.312500000000057 0 0 1 1 0 0 forward_v I I I I #
coedge $-1 $146 $147 $148 $149 forward $61 $-1 #
face $-1 $150 $151 $34 $-1 $152 forward single #
loop $-1 $-1 $153 $63 #
plane-surface $-1 -44.822708561676848 0 0 1 0 0 0 0 -1 forward_v I I I I #
coedge $-1 $154 $155 $156 $157 forward $64 $-1 #
face $-1 $158 $159 $36 $-1 $160 reversed single #
loop $-1 $-1 $161 $66 #
plane-surface $-1 0 0 70.312500000000057 0 0 1 1 0 0 forward_v I I I I #
coedge $-1 $162 $163 $164 $165 forward $67 $-1 #
model_id-kcp-attrib $-1 $-1 $-1 $71 1 990548707 70 1095106561 5 #
face $166 $167 $168 $10 $-1 $169 forward single #
loop $-1 $-1 $170 $71 #
cone-surface $-1 -40.135208561676848 -3.8296279598802183 70.3125 0 0 1 -4.5277773107300057 1.2132142739180625 0 1 I I 0 1 4.6874999999999973 forward I I I I #
coedge $-1 $171 $172 $111 $173 reversed $72 $-1 #
coedge $-1 $174 $74 $172 $175 reversed $49 $-1 #
coedge $-1 $74 $176 $114 $177 reversed $49 $-1 #
edge $178 $179 -0.78539816339744928 $118 0.78539816339744728 $74 $180 forward 7 unknown #
coedge $-1 $76 $75 $107 $173 forward $39 $-1 #
coedge $-1 $181 $182 $75 $113 reversed $183 $-1 #
edge $184 $119 -0.78539816339744728 $185 0.78539816339744928 $112 $186 forward 7 unknown #
coedge $-1 $187 $77 $109 $177 forward $116 $-1 #
coedge $-1 $77 $187 $181 $188 forward $116 $-1 #
loop $-1 $-1 $77 $189 #
attrib_edge_convexity-kcp-attrib $-1 $190 $-1 $78 3 #
vertex $-1 $110 $191 #
vertex $-1 $188 $192 #
straight-curve $-1 -33.103958561676848 -16.008110200598907 70.3125 0 0 0.9375 I I #
model_id-kcp-attrib $-1 $-1 $-1 $80 1 990548707 70 1095106562 3 #
face $-1 $193 $194 $27 $-1 $195 reversed single #
loop $-1 $-1 $196 $80 #
plane-surface $-1 0 -16.636116120359588 0 0 1 0 0 0 1 forward_v I I I I #
coedge $-1 $197 $198 $199 $200 forward $81 $-1 #
coedge $-1 $201 $83 $202 $203 forward $54 $-1 #
coedge $-1 $83 $201 $204 $205 forward $54 $-1 #
coedge $-1 $206 $207 $83 $129 reversed $208 $-1 #
edge $-1 $209 -16.636116120359588 $210 16.636116120359588 $128 $211 forward 7 unknown #
face $-1 $212 $213 $42 $-1 $89 reversed single #
loop $-1 $-1 $214 $84 #
plane-surface $-1 0 0 70.312500000000057 0 0 1 1 0 0 forward_v I I I I #
coedge $-1 $215 $216 $217 $218 forward $85 $-1 #
face $-1 $219 $220 $30 $-1 $132 forward single #
loop $-1 $-1 $140 $87 #
plane-surface $-1 0 -16.636116120359588 0 0 1 0 0 0 1 forward_v I I I I #
coedge $-1 $221 $222 $138 $223 forward $88 $-1 #
coedge $-1 $224 $90 $137 $223 reversed $58 $-1 #
coedge $-1 $90 $224 $225 $226 reversed $58 $-1 #
coedge $-1 $227 $228 $90 $141 forward $135 $-1 #
edge $-1 $229 -105.46875000000013 $230 35.156249999999872 $140 $231 forward 7 unknown #
face $-1 $232 $233 $32 $-1 $234 forward single #
loop $-1 $-1 $148 $91 #
plane-surface $-1 -19.439598361077884 49.050476320958481 -70.312499999999829 0.500000000000001 0.86602540378443804 3.031649005909761e-015 -0.86602540378443804 0.500000000000001 1.7457406694215683e-015 forward_v I I I I #
coedge $-1 $235 $236 $146 $237 reversed $92 $-1 #
coedge $-1 $238 $94 $145 $237 forward $61 $-1 #
coedge $-1 $94 $238 $239 $240 forward $61 $-1 #
coedge $-1 $241 $242 $94 $149 reversed $143 $-1 #
edge $243 $244 -105.46875 $245 35.156250000000114 $148 $246 forward 7 unknown #
face $-1 $247 $248 $34 $-1 $249 reversed single #
loop $-1 $-1 $156 $95 #
plane-surface $-1 0 0 70.312500000000057 0 0 1 1 0 0 forward_v I I I I #
coedge $-1 $250 $251 $154 $252 reversed $96 $-1 #
coedge $-1 $253 $98 $153 $252 forward $64 $-1 #
coedge $-1 $98 $253 $254 $255 forward $64 $-1 #
coedge $-1 $256 $257 $98 $157 reversed $151 $-1 #
edge $258 $259 -1.3620547965572407 $260 11.975286429790671 $156 $261 forward 7 unknown #
face $-1 $262 $263 $36 $-1 $264 reversed single #
loop $-1 $-1 $164 $99 #
plane-surface $-1 0 -16.636116120359588 0 0 1 0 0 0 1 forward_v I I I I #
coedge $-1 $265 $266 $162 $267 reversed $100 $-1 #
coedge $-1 $268 $102 $161 $267 forward $67 $-1 #
coedge $-1 $102 $268 $269 $270 forward $67 $-1 #
coedge $-1 $271 $272 $102 $165 reversed $159 $-1 #
edge $273 $274 -70.312500000000043 $275 70.312500000000071 $164 $276 forward 7 unknown #
model_id-kcp-attrib $-1 $-1 $-1 $104 1 990548707 70 1095106561 6 #
face $277 $278 $279 $10 $-1 $280 forward single #
loop $-1 $-1 $281 $104 #
cone-surface $-1 12.806488160479129 11.948616120359343 70.3125 0 0 1 1.2132142739180718 4.5277773107300057 0 1 I I 0 1 4.6875 forward I I I I #
coedge $-1 $282 $283 $284 $285 forward $105 $-1 #
coedge $-1 $286 $107 $182 $287 reversed $72 $-1 #
coedge $-1 $107 $286 $108 $175 forward $72 $-1 #
edge $288 $185 -75 $179 75 $107 $289 forward 7 unknown #
coedge $-1 $290 $108 $282 $291 reversed $49 $-1 #
edge $292 $293 -5.0000000000000053 $179 5.0000000000000071 $172 $294 forward 7 unknown #
coedge $-1 $109 $295 $296 $297 reversed $49 $-1 #
edge $298 $118 -15.000000000000018 $299 14.641016151377499 $109 $300 forward 7 unknown #
model_id-kcp-attrib $-1 $301 $-1 $110 1 990548707 70 1095106561 26 #
vertex $-1 $175 $302 #
ellipse-curve $-1 -35.447708561676848 -11.948616120359347 0 0 0 1 -1.2132142739180625 -4.5277773107300057 0 1 I I #
coedge $-1 $303 $112 $115 $188 reversed $183 $-1 #
coedge $-1 $112 $304 $171 $287 forward $183 $-1 #
loop $-1 $-1 $112 $305 #
model_id-kcp-attrib $-1 $-1 $-1 $113 1 990548707 70 1095106561 25 #
vertex $-1 $287 $306 #
ellipse-curve $-1 -35.447708561676848 -11.948616120359347 140.625 0 0 -1 -1.2132142739180625 -4.5277773107300057 0 1 I I #
coedge $-1 $115 $114 $307 $308 reversed $116 $-1 #
edge $309 $310 -14.641016151377499 $119 15.000000000000018 $181 $311 forward 7 unknown #
face $312 $305 $116 $10 $-1 $313 reversed single #
convexity-sys-attrib $-1 $-1 $117 $78 #
point $-1 -33.103958561676848 -16.008110200598907 0 #
point $-1 -33.103958561676848 -16.008110200598907 140.625 #
face $-1 $314 $315 $27 $-1 $316 reversed single #
loop $-1 $-1 $317 $122 #
plane-surface $-1 -44.822708561676848 0 0 1 0 0 0 0 -1 forward_v I I I I #
coedge $-1 $318 $204 $319 $320 forward $123 $-1 #
coedge $-1 $321 $125 $318 $322 forward $81 $-1 #
coedge $-1 $125 $321 $323 $324 forward $81 $-1 #
coedge $-1 $207 $206 $125 $200 reversed $208 $-1 #
edge $-1 $325 -16.636116120359588 $326 16.636116120359588 $199 $327 forward 7 unknown #
coedge $-1 $127 $126 $328 $329 forward $54 $-1 #
coedge $-1 $330 $331 $126 $203 reversed $315 $-1 #
edge $-1 $210 -44.822708561676848 $332 44.822708561676848 $202 $333 forward 7 unknown #
coedge $-1 $196 $334 $127 $205 reversed $123 $-1 #
edge $-1 $335 -44.822708561676848 $209 44.822708561676848 $204 $336 forward 7 unknown #
coedge $-1 $199 $128 $334 $337 forward $208 $-1 #
coedge $-1 $128 $199 $330 $338 reversed $208 $-1 #
loop $-1 $-1 $206 $314 #
vertex $-1 $129 $339 #
vertex $-1 $129 $340 #
straight-curve $-1 44.822708561676848 0 70.312500000000057 0 1 0 I I #
face $-1 $341 $342 $42 $-1 $343 reversed single #
loop $-1 $-1 $344 $130 #
coedge $-1 $345 $346 $347 $348 forward $131 $-1 #
coedge $-1 $349 $133 $350 $351 reversed $85 $-1 #
coedge $-1 $133 $349 $345 $352 reversed $85 $-1 #
coedge $-1 $347 $353 $133 $218 reversed $354 $-1 #
edge $-1 $355 -105.46875000000001 $356 35.15625 $133 $357 forward 7 unknown #
face $-1 $-1 $358 $30 $-1 $359 reversed single #
loop $-1 $-1 $225 $134 #
coedge $-1 $222 $137 $228 $360 forward $88 $-1 #
coedge $-1 $137 $221 $361 $362 forward $88 $-1 #
edge $-1 $363 -18.699041477096021 $229 16.819787909731275 $137 $364 forward 7 unknown #
coedge $-1 $139 $138 $365 $366 reversed $58 $-1 #
coedge $-1 $367 $368 $139 $226 forward $220 $-1 #
edge $-1 $230 -16.819787909730543 $369 18.699041477095776 $225 $370 forward 7 unknown #
coedge $-1 $371 $140 $368 $372 reversed $135 $-1 #
coedge $-1 $140 $371 $221 $360 reversed $135 $-1 #
vertex $-1 $360 $373 #
vertex $-1 $226 $374 #
straight-curve $-1 -14.062499999999808 -16.636116120359588 35.156250000000057 -6.0632980118195101e-015 0 1 I I #
face $-1 $-1 $375 $32 $-1 $376 reversed single #
loop $-1 $-1 $239 $142 #
plane-surface $-1 0 0 70.312500000000057 0 0 1 1 0 0 forward_v I I I I #
coedge $-1 $236 $145 $242 $377 forward $92 $-1 #
coedge $-1 $145 $235 $378 $379 forward $92 $-1 #
edge $380 $245 0.088262750748324709 $381 11.975286429790247 $145 $382 forward 7 unknown #
coedge $-1 $147 $146 $383 $384 forward $61 $-1 #
coedge $-1 $385 $386 $147 $240 reversed $233 $-1 #
edge $387 $388 -11.975286429790671 $244 -0.08826275074875943 $239 $389 forward 7 unknown #
coedge $-1 $390 $148 $386 $391 reversed $143 $-1 #
coedge $-1 $148 $390 $235 $377 reversed $143 $-1 #
convexity-sys-attrib $-1 $-1 $-1 $149 #
vertex $-1 $149 $392 #
vertex $-1 $377 $393 #
straight-curve $-1 38.879196722155868 15.380104280838641 -35.156249999999943 -7.9374696323091529e-018 3.505229439529824e-015 -1 I I #
face $-1 $-1 $394 $34 $-1 $395 reversed single #
loop $-1 $-1 $254 $150 #
plane-surface $-1 0 16.636116120359588 0 0 -1 0 0 0 -1 forward_v I I I I #
coedge $-1 $396 $153 $257 $397 reversed $96 $-1 #
coedge $-1 $153 $396 $398 $399 reversed $96 $-1 #
edge $400 $260 -70.312500000000028 $401 70.312500000000085 $153 $402 forward 7 unknown #
coedge $-1 $155 $154 $403 $404 forward $64 $-1 #
coedge $-1 $405 $406 $155 $255 reversed $248 $-1 #
edge $407 $408 -70.312500000000114 $259 70.3125 $254 $409 forward 7 unknown #
coedge $-1 $257 $156 $406 $410 forward $151 $-1 #
coedge $-1 $156 $256 $250 $397 forward $151 $-1 #
convexity-sys-attrib $-1 $-1 $-1 $157 #
vertex $-1 $410 $411 #
vertex $-1 $157 $412 #
straight-curve $-1 -38.835065346781498 15.456542065194574 70.312500000000057 -0.500000000000001 -0.86602540378443804 0 I I #
face $-1 $-1 $413 $36 $-1 $414 reversed single #
loop $-1 $-1 $269 $158 #
plane-surface $-1 0 0 -70.312500000000057 0 0 1 1 0 0 forward_v I I I I #
coedge $-1 $266 $161 $272 $415 forward $100 $-1 #
coedge $-1 $161 $265 $416 $417 forward $100 $-1 #
edge $418 $275 -6.5869158696107855 $419 28.931913517215477 $161 $420 forward 7 unknown #
coedge $-1 $163 $162 $421 $422 forward $67 $-1 #
coedge $-1 $423 $424 $163 $270 reversed $263 $-1 #
edge $425 $426 -28.931913517215726 $274 6.58691586961152 $269 $427 forward 7 unknown #
coedge $-1 $428 $164 $424 $429 reversed $159 $-1 #
coedge $-1 $164 $428 $265 $415 reversed $159 $-1 #
convexity-sys-attrib $-1 $-1 $-1 $165 #
vertex $-1 $165 $430 #
vertex $-1 $415 $431 #
straight-curve $-1 14.062499999999641 -16.636116120359588 -1.7927755088956859e-014 6.0474230725548911e-015 0 1 I I #
model_id-kcp-attrib $-1 $-1 $-1 $167 1 990548707 70 1095106561 7 #
face $432 $433 $434 $10 $-1 $435 forward single #
loop $-1 $-1 $436 $167 #
plane-surface $-1 3.5527136788005009e-015 16.636116120359343 70.3125 0 1 0 -0.9375 0 0 forward_v I I I I #
coedge $-1 $437 $438 $439 $440 forward $168 $-1 #
coedge $-1 $441 $170 $174 $291 forward $105 $-1 #
coedge $-1 $170 $441 $304 $442 forward $105 $-1 #
coedge $-1 $443 $444 $170 $285 reversed $445 $-1 #
edge $446 $447 -75 $448 75 $284 $449 forward 7 unknown #
coedge $-1 $172 $171 $441 $450 reversed $72 $-1 #
edge $451 $452 -5.0000000000000053 $185 5.0000000000000071 $171 $453 forward 7 unknown #
attrib_edge_convexity-kcp-attrib $-1 $454 $-1 $173 3 #
straight-curve $-1 -39.507202641916408 -14.292366120359347 70.3125 0 0 -0.9375 I I #
coedge $-1 $455 $174 $444 $456 reversed $49 $-1 #
edge $457 $448 -0.78539816339744972 $293 0.78539816339744728 $174 $458 forward 7 unknown #
model_id-kcp-attrib $-1 $459 $-1 $175 1 990548707 70 1095106561 27 #
vertex $-1 $291 $460 #
straight-curve $-1 -41.850952641916408 -10.23287204011978 0 0.46875000000000094 -0.8118988160479107 0 I I #
coedge $-1 $176 $461 $462 $463 reversed $49 $-1 #
coedge $-1 $464 $307 $176 $297 forward $465 $-1 #
edge $466 $299 -9.6410161513775403 $467 9.6410161513775403 $176 $468 forward 7 unknown #
attrib_edge_convexity-kcp-attrib $-1 $469 $-1 $177 1 #
vertex $-1 $177 $470 #
straight-curve $-1 -20.925476320958154 -8.9768602005989067 0 0.8118988160479107 0.46875000000000094 0 I I #
attrib_edge_convexity-kcp-attrib $-1 $471 $178 $110 1 #
point $-1 -39.507202641916408 -14.292366120359347 0 #
coedge $-1 $472 $181 $473 $474 reversed $183 $-1 #
coedge $-1 $182 $475 $283 $442 reversed $183 $-1 #
face $476 $-1 $183 $10 $-1 $477 reversed single #
point $-1 -39.507202641916408 -14.292366120359347 140.625 #
coedge $-1 $296 $473 $187 $308 forward $465 $-1 #
edge $478 $310 -75 $299 75 $307 $479 forward 7 unknown #
attrib_edge_convexity-kcp-attrib $-1 $480 $-1 $188 1 #
vertex $-1 $474 $481 #
straight-curve $-1 -20.925476320958154 -8.9768602005989067 140.625 -0.8118988160479107 -0.46875000000000094 0 I I #
model_id-kcp-attrib $-1 $-1 $-1 $189 1 990548707 70 1095106561 16 #
plane-surface $-1 -20.925476320958154 -8.9768602005989067 70.3125 -0.500000000000001 0.86602540378443804 0 -0.8118988160479107 -0.46875000000000094 0 forward_v I I I I #
face $-1 $-1 $208 $27 $-1 $482 reversed single #
loop $-1 $-1 $330 $193 #
plane-surface $-1 0 16.636116120359588 0 0 -1 0 0 0 -1 forward_v I I I I #
coedge $-1 $483 $328 $331 $484 forward $194 $-1 #
coedge $-1 $334 $196 $197 $322 reversed $123 $-1 #
coedge $-1 $328 $483 $196 $320 reversed $194 $-1 #
edge $-1 $335 -70.312500000000057 $485 70.312500000000057 $319 $486 forward 7 unknown #
coedge $-1 $198 $197 $483 $487 forward $81 $-1 #
edge $-1 $326 -44.822708561676848 $485 44.822708561676848 $318 $488 forward 7 unknown #
coedge $-1 $331 $330 $198 $324 reversed $315 $-1 #
edge $-1 $489 -44.822708561676848 $325 44.822708561676848 $323 $490 forward 7 unknown #
vertex $-1 $200 $491 #
vertex $-1 $337 $492 #
straight-curve $-1 44.822708561676848 0 -70.312500000000057 0 -1 0 I I #
coedge $-1 $317 $319 $201 $329 reversed $194 $-1 #
edge $-1 $332 -16.636116120359588 $335 16.636116120359588 $328 $493 forward 7 unknown #
coedge $-1 $323 $202 $207 $338 forward $315 $-1 #
coedge $-1 $202 $323 $317 $484 reversed $315 $-1 #
vertex $-1 $203 $494 #
straight-curve $-1 0 16.636116120359588 70.312500000000057 -1 0 0 I I #
coedge $-1 $204 $318 $206 $337 reversed $123 $-1 #
vertex $-1 $329 $495 #
straight-curve $-1 0 -16.636116120359588 70.312500000000057 1 0 0 I I #
edge $-1 $209 -70.312500000000057 $326 70.312500000000057 $206 $496 forward 7 unknown #
edge $-1 $210 -70.312500000000057 $325 70.312500000000057 $207 $497 forward 7 unknown #
point $-1 44.822708561676848 -16.636116120359588 70.312500000000057 #
point $-1 44.822708561676848 16.636116120359588 70.312500000000057 #
face $-1 $-1 $354 $42 $-1 $498 reversed single #
loop $-1 $-1 $499 $212 #
plane-surface $-1 0 16.636116120359588 0 0 -1 0 0 0 -1 forward_v I I I I #
coedge $-1 $500 $350 $353 $501 forward $213 $-1 #
coedge $-1 $346 $214 $216 $352 forward $131 $-1 #
coedge $-1 $214 $345 $502 $503 forward $131 $-1 #
coedge $-1 $504 $217 $214 $348 reversed $354 $-1 #
edge $-1 $505 44.14850831092739 $355 53.523508310928356 $214 $506 forward 7 unknown #
coedge $-1 $216 $215 $507 $508 reversed $85 $-1 #
coedge $-1 $344 $500 $215 $351 forward $213 $-1 #
edge $-1 $509 -16.636116120359588 $356 -11.948616120359588 $215 $510 forward 7 unknown #
edge $-1 $355 11.948616120359089 $511 16.636116120359588 $216 $512 forward 7 unknown #
coedge $-1 $217 $504 $344 $501 reversed $354 $-1 #
loop $-1 $-1 $217 $341 #
vertex $-1 $352 $513 #
vertex $-1 $501 $514 #
straight-curve $-1 44.822708561676848 11.948616120359464 -35.156249999999957 0 3.5006467393009261e-015 -1 I I #
loop $-1 $-1 $365 $219 #
plane-surface $-1 -44.822708561676848 0 0 1 0 0 0 0 -1 forward_v I I I I #
edge $-1 $229 14.062499999999176 $515 44.822708561676848 $228 $516 forward 7 unknown #
coedge $-1 $517 $365 $222 $362 reversed $358 $-1 #
edge $-1 $515 -16.636116120359588 $363 1.1232985730540967 $361 $518 forward 7 unknown #
vertex $-1 $366 $519 #
straight-curve $-1 -28.628863616092811 -8.2262221654939314 -70.312500000000057 0.86602540378443804 -0.500000000000001 0 I I #
coedge $-1 $361 $520 $224 $366 forward $358 $-1 #
edge $-1 $369 -35.15625 $363 105.46875 $365 $521 forward 7 unknown #
coedge $-1 $368 $225 $520 $522 forward $220 $-1 #
coedge $-1 $225 $367 $227 $372 forward $220 $-1 #
vertex $-1 $522 $523 #
straight-curve $-1 -28.628863616093025 -8.2262221654943009 70.312500000000057 -0.86602540378443804 0.500000000000001 0 I I #
coedge $-1 $228 $227 $517 $524 forward $135 $-1 #
edge $-1 $525 -44.822708561676848 $230 -14.062500000000021 $227 $526 forward 7 unknown #
point $-1 -14.062499999999176 -16.636116120359588 -70.312500000000071 #
point $-1 -14.062500000000021 -16.636116120359588 70.312499999999929 #
loop $-1 $-1 $383 $232 #
plane-surface $-1 44.822708561676848 0 0 -1 0 0 0 0 1 forward_v I I I I #
edge $-1 $245 46.660531989969783 $527 53.523508310928108 $235 $528 forward 7 unknown #
coedge $-1 $529 $383 $236 $379 reversed $375 $-1 #
edge $-1 $527 -11.948616120359588 $381 -5.0856397994012967 $378 $530 forward 7 unknown #
convexity-sys-attrib $-1 $-1 $-1 $237 #
vertex $-1 $237 $531 #
straight-curve $-1 38.835065346781711 15.456542065194697 -70.312500000000057 0.500000000000001 -0.86602540378443804 0 I I #
coedge $-1 $378 $532 $238 $384 reversed $375 $-1 #
edge $533 $381 -70.312500000000085 $388 70.312500000000028 $383 $534 forward 7 unknown #
coedge $-1 $386 $239 $532 $535 forward $233 $-1 #
coedge $-1 $239 $385 $241 $391 forward $233 $-1 #
convexity-sys-attrib $-1 $-1 $-1 $240 #
vertex $-1 $535 $536 #
straight-curve $-1 38.835065346781498 15.456542065194574 70.312500000000057 -0.500000000000001 0.86602540378443804 0 I I #
coedge $-1 $242 $241 $529 $537 reversed $143 $-1 #
edge $-1 $538 -53.523508310928356 $244 -46.660531989970039 $386 $539 forward 7 unknown #
point $-1 38.879196722155882 15.380104280838257 70.312500000000057 #
point $-1 38.879196722155875 15.380104280838754 -70.312500000000057 #
loop $-1 $-1 $403 $247 #
plane-surface $-1 0 0 -70.312500000000057 0 0 1 1 0 0 forward_v I I I I #
coedge $-1 $251 $250 $540 $541 forward $96 $-1 #
edge $-1 $542 -16.636116120359588 $260 -5.0856397994008065 $250 $543 forward 7 unknown #
coedge $-1 $544 $403 $251 $399 forward $394 $-1 #
edge $-1 $401 5.0856397994012967 $545 16.636116120359588 $251 $546 forward 7 unknown #
convexity-sys-attrib $-1 $-1 $-1 $252 #
vertex $-1 $399 $547 #
straight-curve $-1 -44.822708561676848 5.0856397994010463 2.198669077665035e-014 0 3.4914813388431294e-015 -1 I I #
coedge $-1 $398 $544 $253 $404 reversed $394 $-1 #
edge $548 $401 -11.975286429790247 $408 1.362054796557099 $403 $549 forward 7 unknown #
coedge $-1 $540 $254 $544 $550 reversed $248 $-1 #
coedge $-1 $254 $540 $256 $410 reversed $248 $-1 #
convexity-sys-attrib $-1 $-1 $-1 $255 #
vertex $-1 $255 $551 #
straight-curve $-1 -38.154037948503017 16.636116120359588 5.6823682237503928e-014 2.0158076908516412e-015 0 1 I I #
edge $-1 $259 38.154037948502875 $542 44.822708561676848 $406 $552 forward 7 unknown #
point $-1 -38.154037948502875 16.636116120359588 70.312500000000057 #
point $-1 -44.822708561676848 5.0856397994008065 70.312500000000057 #
loop $-1 $-1 $421 $262 #
plane-surface $-1 44.822708561676848 0 0 -1 0 0 0 0 1 forward_v I I I I #
edge $-1 $275 14.062500000000066 $553 44.822708561676848 $272 $554 forward 7 unknown #
coedge $-1 $555 $421 $266 $417 reversed $413 $-1 #
edge $-1 $553 -16.636116120359588 $419 1.1232985730535803 $416 $556 forward 7 unknown #
convexity-sys-attrib $-1 $-1 $-1 $267 #
vertex $-1 $267 $557 #
straight-curve $-1 19.766936475673869 -13.342658185554189 70.312500000000057 0.86602540378443804 0.500000000000001 0 I I #
coedge $-1 $416 $558 $268 $422 reversed $413 $-1 #
edge $559 $419 -70.312500000000057 $426 70.312500000000057 $421 $560 forward 7 unknown #
coedge $-1 $424 $269 $558 $561 forward $263 $-1 #
coedge $-1 $269 $423 $271 $429 forward $263 $-1 #
convexity-sys-attrib $-1 $-1 $-1 $270 #
vertex $-1 $561 $562 #
straight-curve $-1 19.766936475673656 -13.342658185553821 -70.312500000000057 -0.86602540378443804 -0.500000000000001 0 I I #
coedge $-1 $272 $271 $555 $563 reversed $159 $-1 #
edge $-1 $564 -44.822708561676848 $274 -14.062499999999217 $271 $565 forward 7 unknown #
point $-1 14.062499999999217 -16.636116120359588 -70.312500000000057 #
point $-1 14.062500000000066 -16.636116120359588 70.312500000000057 #
model_id-kcp-attrib $-1 $-1 $-1 $278 1 990548707 70 1095106561 8 #
face $566 $567 $568 $10 $-1 $569 reversed single #
loop $-1 $-1 $570 $278 #
cone-surface $-1 40.135208561676848 -3.8296279598802183 70.3125 0 0 -1 4.5277773107300057 1.2132142739180625 0 1 I I 0 1 4.6874999999999973 forward I I I I #
coedge $-1 $571 $572 $573 $574 reversed $279 $-1 #
coedge $-1 $573 $281 $575 $576 forward $168 $-1 #
coedge $-1 $281 $573 $577 $578 forward $168 $-1 #
coedge $-1 $579 $580 $281 $440 reversed $581 $-1 #
edge $582 $583 -75 $584 75 $439 $585 forward 7 unknown #
coedge $-1 $283 $282 $286 $450 forward $105 $-1 #
edge $586 $452 -0.78539816339744728 $447 0.78539816339744972 $304 $587 forward 7 unknown #
coedge $-1 $588 $284 $475 $589 forward $445 $-1 #
coedge $-1 $284 $588 $290 $456 forward $445 $-1 #
loop $-1 $-1 $284 $590 #
attrib_edge_convexity-kcp-attrib $-1 $591 $-1 $285 3 #
vertex $-1 $285 $592 #
vertex $-1 $456 $593 #
straight-curve $-1 -42.478958561676848 0.22986612035935217 70.3125 0 0 -0.9375 I I #
edge $594 $293 -75 $452 75 $286 $595 forward 7 unknown #
model_id-kcp-attrib $-1 $596 $-1 $287 1 990548707 70 1095106561 24 #
vertex $-1 $450 $597 #
straight-curve $-1 -41.850952641916408 -10.23287204011978 140.625 0.46875000000000094 -0.8118988160479107 0 I I #
convexity-sys-attrib $-1 $-1 $288 $173 #
coedge $-1 $598 $290 $599 $600 reversed $49 $-1 #
edge $601 $602 -18.660254037844417 $448 14.999999999999924 $290 $603 forward 7 unknown #
model_id-kcp-attrib $-1 $604 $-1 $291 1 990548707 70 1095106561 28 #
ellipse-curve $-1 -40.135208561676848 -3.8296279598802183 0 0 0 1 -4.5277773107300057 1.2132142739180625 0 1 I I #
attrib_edge_convexity-kcp-attrib $-1 $605 $292 $175 1 #
point $-1 -44.194702641916408 -6.1733779598802183 0 #
coedge $-1 $295 $606 $607 $608 reversed $49 $-1 #
coedge $-1 $609 $610 $295 $463 forward $611 $-1 #
edge $612 $467 -14.641016151377499 $613 15.000000000000018 $295 $614 forward 7 unknown #
coedge $-1 $473 $296 $610 $615 forward $465 $-1 #
loop $-1 $-1 $464 $616 #
attrib_edge_convexity-kcp-attrib $-1 $617 $-1 $297 1 #
vertex $-1 $297 $618 #
straight-curve $-1 3.5527136788005009e-015 -2.1138838796406567 0 0.9375 0 0 I I #
convexity-sys-attrib $-1 $-1 $298 $177 #
point $-1 -9.0384526419164413 -2.1138838796406567 0 #
convexity-sys-attrib $-1 $-1 $301 $110 #
coedge $-1 $619 $303 $620 $621 reversed $183 $-1 #
coedge $-1 $307 $464 $303 $474 forward $465 $-1 #
edge $622 $623 -9.6410161513775403 $310 9.6410161513775403 $303 $624 forward 7 unknown #
coedge $-1 $304 $625 $443 $589 reversed $183 $-1 #
model_id-kcp-attrib $-1 $626 $-1 $305 1 990548707 70 1095106561 20 #
plane-surface $-1 3.5527136788005009e-015 7.2611161203593433 140.625 0 0 -1 0 -0.9375 0 forward_v I I I I #
attrib_edge_convexity-kcp-attrib $-1 $627 $-1 $308 2 #
straight-curve $-1 -9.0384526419164413 -2.1138838796406567 70.3125 0 0 -0.9375 I I #
convexity-sys-attrib $-1 $-1 $309 $188 #
point $-1 -9.0384526419164413 -2.1138838796406567 140.625 #
plane-surface $-1 44.822708561676848 0 0 -1 0 0 0 0 1 forward_v I I I I #
coedge $-1 $319 $317 $321 $487 reversed $194 $-1 #
edge $-1 $332 -70.312500000000057 $489 70.312500000000057 $331 $628 forward 7 unknown #
vertex $-1 $487 $629 #
straight-curve $-1 -44.822708561676848 -16.636116120359588 0 0 0 -1 I I #
edge $-1 $485 -16.636116120359588 $489 16.636116120359588 $483 $630 forward 7 unknown #
straight-curve $-1 0 -16.636116120359588 -70.312500000000057 -1 0 0 I I #
vertex $-1 $324 $631 #
straight-curve $-1 0 16.636116120359588 -70.312500000000057 1 0 0 I I #
point $-1 44.822708561676848 16.636116120359588 -70.312500000000057 #
point $-1 44.822708561676848 -16.636116120359588 -70.312500000000057 #
straight-curve $-1 -44.822708561676848 0 70.312500000000057 0 -1 0 I I #
point $-1 -44.822708561676848 16.636116120359588 70.312500000000057 #
point $-1 -44.822708561676848 -16.636116120359588 70.312500000000057 #
straight-curve $-1 44.822708561676848 -16.636116120359588 0 0 0 -1 I I #
straight-curve $-1 44.822708561676848 16.636116120359588 0 0 0 -1 I I #
plane-surface $-1 -19.439598361077884 49.050476320958481 -70.312499999999829 0.500000000000001 0.86602540378443804 3.031649005909761e-015 -0.86602540378443804 0.500000000000001 1.7457406694215683e-015 forward_v I I I I #
coedge $-1 $502 $632 $504 $633 forward $342 $-1 #
coedge $-1 $350 $344 $632 $634 forward $213 $-1 #
edge $-1 $356 -53.523508310928108 $635 -44.148508310928122 $344 $636 forward 7 unknown #
coedge $-1 $507 $499 $346 $503 reversed $342 $-1 #
edge $-1 $511 -44.822708561676848 $505 -36.703720401196904 $502 $637 forward 7 unknown #
coedge $-1 $353 $347 $499 $633 reversed $354 $-1 #
vertex $-1 $633 $638 #
straight-curve $-1 -1.5300093352546096 38.710370275823323 70.312500000000057 0.86602540378443804 -0.500000000000001 0 I I #
coedge $-1 $632 $502 $349 $508 forward $342 $-1 #
edge $-1 $511 -70.312500000000057 $509 70.312500000000057 $349 $639 forward 7 unknown #
vertex $-1 $351 $640 #
straight-curve $-1 44.822708561676848 0 -70.312500000000057 0 -1 0 I I #
vertex $-1 $352 $641 #
straight-curve $-1 44.822708561676848 0 70.312500000000057 0 1 0 I I #
point $-1 44.822708561676848 11.948616120359089 70.312500000000057 #
point $-1 44.822708561676848 11.948616120359588 -70.312499999999957 #
vertex $-1 $362 $642 #
straight-curve $-1 0 -16.636116120359588 -70.312500000000057 -1 0 0 I I #
coedge $-1 $520 $361 $371 $524 reversed $358 $-1 #
straight-curve $-1 -44.822708561676848 0 -70.312500000000057 0 1 0 I I #
point $-1 -44.822708561676848 1.1232985730540967 -70.3125 #
coedge $-1 $365 $517 $367 $522 reversed $358 $-1 #
straight-curve $-1 -44.822708561676848 1.1232985730537282 35.15625 0 3.5006467393009261e-015 -1 I I #
edge $-1 $369 -1.1232985730536065 $525 16.636116120359588 $520 $643 forward 7 unknown #
point $-1 -44.822708561676848 1.1232985730536065 70.3125 #
edge $-1 $525 -70.312500000000057 $515 70.312500000000057 $517 $644 forward 7 unknown #
vertex $-1 $522 $645 #
straight-curve $-1 0 -16.636116120359588 70.312500000000057 1 0 0 I I #
vertex $-1 $379 $646 #
straight-curve $-1 -1.5300093352543964 38.710370275823692 -70.312500000000057 0.86602540378443804 -0.500000000000001 0 I I #
coedge $-1 $532 $378 $390 $537 forward $375 $-1 #
straight-curve $-1 44.822708561676848 0 -70.312500000000057 0 -1 0 I I #
point $-1 44.822708561676848 5.0856397994012967 -70.312500000000057 #
coedge $-1 $383 $529 $385 $535 reversed $375 $-1 #
convexity-sys-attrib $-1 $-1 $-1 $384 #
straight-curve $-1 44.822708561676848 5.0856397994010463 2.198669077665035e-014 0 -3.4914813388431294e-015 1 I I #
edge $-1 $388 5.0856397994008065 $538 11.948616120359089 $532 $647 forward 7 unknown #
point $-1 44.822708561676848 5.0856397994008065 70.312500000000057 #
edge $-1 $527 -35.15625 $538 105.46875000000001 $529 $648 forward 7 unknown #
vertex $-1 $537 $649 #
straight-curve $-1 -1.5300093352546096 38.710370275823323 70.312500000000057 -0.86602540378443804 0.500000000000001 0 I I #
coedge $-1 $406 $405 $396 $541 reversed $248 $-1 #
edge $-1 $542 -70.312500000000057 $545 70.312500000000057 $540 $650 forward 7 unknown #
vertex $-1 $410 $651 #
straight-curve $-1 -44.822708561676848 0 70.312500000000057 0 -1 0 I I #
coedge $-1 $403 $398 $405 $550 forward $394 $-1 #
vertex $-1 $550 $652 #
straight-curve $-1 -44.822708561676848 0 -70.312500000000057 0 1 0 I I #
point $-1 -44.822708561676848 5.0856397994012967 -70.312500000000057 #
convexity-sys-attrib $-1 $-1 $-1 $404 #
straight-curve $-1 -38.835065346781711 15.456542065194697 -70.312500000000057 0.500000000000001 0.86602540378443804 0 I I #
edge $-1 $545 -44.822708561676848 $408 -38.154037948503159 $405 $653 forward 7 unknown #
point $-1 -38.154037948503159 16.636116120359588 -70.312500000000057 #
straight-curve $-1 0 16.636116120359588 70.312500000000057 -1 0 0 I I #
vertex $-1 $417 $654 #
straight-curve $-1 0 -16.636116120359588 70.312500000000057 1 0 0 I I #
coedge $-1 $558 $416 $428 $563 forward $413 $-1 #
straight-curve $-1 44.822708561676848 0 70.312500000000057 0 1 0 I I #
point $-1 44.822708561676848 1.1232985730535803 70.312500000000057 #
coedge $-1 $421 $555 $423 $561 reversed $413 $-1 #
convexity-sys-attrib $-1 $-1 $-1 $422 #
straight-curve $-1 44.822708561676848 1.1232985730538227 -1.9172777766813827e-015 0 3.4914813388431294e-015 -1 I I #
edge $-1 $426 -1.1232985730540705 $564 16.636116120359588 $558 $655 forward 7 unknown #
point $-1 44.822708561676848 1.1232985730540705 -70.312500000000057 #
edge $-1 $553 -70.312500000000057 $564 70.312500000000057 $555 $656 forward 7 unknown #
vertex $-1 $563 $657 #
straight-curve $-1 0 -16.636116120359588 -70.312500000000057 -1 0 0 I I #
model_id-kcp-attrib $-1 $-1 $-1 $433 1 990548707 70 1095106561 9 #
face $658 $659 $660 $10 $-1 $661 forward single #
loop $-1 $-1 $662 $433 #
plane-surface $-1 41.850952641916408 -10.23287204011978 70.3125 -0.86602540378443804 0.500000000000001 0 -0.46875000000000094 -0.8118988160479107 0 forward_v I I I I #
coedge $-1 $663 $664 $665 $666 forward $434 $-1 #
coedge $-1 $667 $436 $598 $668 forward $279 $-1 #
coedge $-1 $436 $667 $669 $670 forward $279 $-1 #
coedge $-1 $438 $437 $436 $574 forward $168 $-1 #
edge $671 $672 -75 $673 75 $436 $674 forward 7 unknown #
coedge $-1 $675 $598 $437 $576 reversed $49 $-1 #
edge $676 $584 -0.26179938779914647 $672 0.26179938779915068 $575 $677 forward 7 unknown #
coedge $-1 $669 $678 $438 $578 reversed $183 $-1 #
edge $679 $673 -0.26179938779915068 $583 0.26179938779914647 $577 $680 forward 7 unknown #
coedge $-1 $665 $439 $678 $681 forward $581 $-1 #
coedge $-1 $439 $665 $675 $682 forward $581 $-1 #
loop $-1 $-1 $439 $683 #
attrib_edge_convexity-kcp-attrib $-1 $684 $-1 $440 3 #
vertex $-1 $440 $685 #
vertex $-1 $682 $686 #
straight-curve $-1 15.150238160479129 16.008110200598896 70.3125 0 0 -0.9375 I I #
model_id-kcp-attrib $-1 $-1 $-1 $442 1 990548707 70 1095106561 23 #
ellipse-curve $-1 -40.135208561676848 -3.8296279598802183 140.625 0 0 -1 -4.5277773107300057 1.2132142739180625 0 1 I I #
coedge $-1 $444 $443 $687 $688 reversed $445 $-1 #
edge $689 $447 -14.999999999999924 $690 18.660254037844417 $475 $691 forward 7 unknown #
face $692 $683 $445 $10 $-1 $693 forward single #
convexity-sys-attrib $-1 $-1 $446 $285 #
point $-1 -42.478958561676848 0.22986612035934328 140.625 #
point $-1 -42.478958561676848 0.22986612035934328 0 #
attrib_edge_convexity-kcp-attrib $-1 $694 $-1 $450 3 #
straight-curve $-1 -44.194702641916408 -6.1733779598802183 70.3125 0 0 0.9375 I I #
attrib_edge_convexity-kcp-attrib $-1 $695 $451 $287 1 #
point $-1 -44.194702641916408 -6.1733779598802183 140.625 #
coedge $-1 $575 $455 $571 $668 reversed $49 $-1 #
coedge $-1 $687 $696 $455 $600 forward $697 $-1 #
edge $698 $699 -0.26179938779915068 $602 0.26179938779914647 $455 $700 forward 7 unknown #
model_id-kcp-attrib $-1 $701 $-1 $456 1 990548707 70 1095106561 29 #
vertex $-1 $600 $702 #
straight-curve $-1 -30.300476320958246 7.2611161203593246 0 -0.8118988160479107 -0.46875000000000094 0 I I #
attrib_edge_convexity-kcp-attrib $-1 $703 $457 $291 1 #
convexity-sys-attrib $-1 $-1 $459 $175 #
coedge $-1 $461 $704 $705 $706 forward $49 $-1 #
coedge $-1 $707 $708 $461 $608 forward $660 $-1 #
edge $709 $613 -0.78539816339744728 $710 0.78539816339744928 $461 $711 forward 7 unknown #
coedge $-1 $620 $462 $708 $712 reversed $611 $-1 #
coedge $-1 $462 $620 $464 $615 reversed $611 $-1 #
loop $-1 $-1 $609 $713 #
attrib_edge_convexity-kcp-attrib $-1 $714 $-1 $463 1 #
vertex $-1 $463 $715 #
straight-curve $-1 20.925476320958161 -8.9768602005989067 0 0.8118988160479107 -0.46875000000000094 0 I I #
edge $716 $467 -75 $623 75 $464 $717 forward 7 unknown #
face $718 $189 $465 $10 $-1 $719 reversed single #
convexity-sys-attrib $-1 $-1 $466 $297 #
point $-1 9.0384526419164484 -2.1138838796406567 0 #
coedge $-1 $720 $472 $721 $722 reversed $183 $-1 #
coedge $-1 $610 $609 $472 $621 forward $611 $-1 #
edge $723 $724 -15.000000000000018 $623 14.641016151377499 $472 $725 forward 7 unknown #
attrib_edge_convexity-kcp-attrib $-1 $726 $-1 $474 1 #
vertex $-1 $621 $727 #
straight-curve $-1 3.5527136788005009e-015 -2.1138838796406567 140.625 -0.9375 0 0 I I #
coedge $-1 $475 $669 $728 $729 reversed $183 $-1 #
model_id-kcp-attrib $-1 $-1 $476 $305 1 990548707 70 1095106561 17 #
convexity-sys-attrib $-1 $-1 $478 $308 #
straight-curve $-1 -44.822708561676848 16.636116120359588 0 0 0 -1 I I #
point $-1 -44.822708561676848 -16.636116120359588 -70.312500000000057 #
straight-curve $-1 -44.822708561676848 0 -70.312500000000057 0 1 0 I I #
point $-1 -44.822708561676848 16.636116120359588 -70.312500000000057 #
coedge $-1 $499 $507 $500 $634 reversed $342 $-1 #
edge $-1 $635 -35.156250000000313 $505 105.46874999999969 $499 $730 forward 7 unknown #
edge $-1 $635 36.703720401197749 $509 44.822708561676848 $632 $731 forward 7 unknown #
vertex $-1 $634 $732 #
straight-curve $-1 -1.5300093352543964 38.710370275823692 -70.312500000000057 -0.86602540378443804 0.500000000000001 0 I I #
straight-curve $-1 0 16.636116120359588 70.312500000000057 -1 0 0 I I #
point $-1 36.703720401196904 16.636116120359588 70.312500000000057 #
straight-curve $-1 44.822708561676848 16.636116120359588 0 0 0 -1 I I #
point $-1 44.822708561676848 16.636116120359588 -70.312500000000057 #
point $-1 44.822708561676848 16.636116120359588 70.312500000000057 #
point $-1 -44.822708561676848 -16.636116120359588 -70.312500000000057 #
straight-curve $-1 -44.822708561676848 0 70.312500000000057 0 -1 0 I I #
straight-curve $-1 -44.822708561676848 -16.636116120359588 0 0 0 -1 I I #
point $-1 -44.822708561676848 -16.636116120359588 70.312500000000057 #
point $-1 44.822708561676848 11.948616120359588 -70.312499999999957 #
straight-curve $-1 44.822708561676848 0 70.312500000000057 0 1 0 I I #
straight-curve $-1 44.822708561676848 11.948616120359464 -35.156249999999957 0 -3.5006467393009261e-015 1 I I #
point $-1 44.822708561676848 11.948616120359089 70.312500000000057 #
straight-curve $-1 -44.822708561676848 16.636116120359588 0 0 0 -1 I I #
point $-1 -44.822708561676848 16.636116120359588 70.312500000000057 #
point $-1 -44.822708561676848 16.636116120359588 -70.312500000000057 #
straight-curve $-1 0 16.636116120359588 -70.312500000000057 1 0 0 I I #
point $-1 44.822708561676848 -16.636116120359588 70.312500000000057 #
straight-curve $-1 44.822708561676848 0 -70.312500000000057 0 -1 0 I I #
straight-curve $-1 44.822708561676848 -16.636116120359588 0 0 0 -1 I I #
point $-1 44.822708561676848 -16.636116120359588 -70.312500000000057 #
model_id-kcp-attrib $-1 $-1 $-1 $567 1 990548707 70 1095106561 10 #
face $733 $590 $697 $10 $-1 $734 forward single #
loop $-1 $-1 $708 $567 #
cone-surface $-1 35.447708561676848 -11.948616120359347 70.3125 0 0 1 1.2132142739180625 -4.5277773107300057 0 1 I I 0 1 4.6874999999999973 forward I I I I #
coedge $-1 $735 $705 $736 $737 reversed $568 $-1 #
coedge $-1 $736 $570 $738 $739 forward $434 $-1 #
coedge $-1 $570 $736 $704 $740 forward $434 $-1 #
coedge $-1 $580 $579 $570 $666 reversed $581 $-1 #
edge $741 $742 -75 $743 75 $665 $744 forward 7 unknown #
coedge $-1 $572 $571 $696 $745 reversed $279 $-1 #
edge $746 $672 -13.6602540378444 $699 13.6602540378444 $598 $747 forward 7 unknown #
coedge $-1 $625 $577 $572 $670 reversed $183 $-1 #
edge $748 $749 -13.6602540378444 $673 13.6602540378444 $669 $750 forward 7 unknown #
attrib_edge_convexity-kcp-attrib $-1 $751 $-1 $574 3 #
vertex $-1 $576 $752 #
vertex $-1 $670 $753 #
straight-curve $-1 12.806488160479129 16.636116120359343 70.3125 0 0 0.9375 I I #
coedge $-1 $704 $575 $580 $682 reversed $49 $-1 #
model_id-kcp-attrib $-1 $754 $-1 $576 1 990548707 70 1095106561 33 #
ellipse-curve $-1 12.806488160479129 11.948616120359343 0 0 0 1 1.2132142739180718 4.5277773107300057 0 1 I I #
coedge $-1 $577 $738 $579 $681 reversed $183 $-1 #
model_id-kcp-attrib $-1 $-1 $-1 $578 1 990548707 70 1095106561 18 #
ellipse-curve $-1 12.806488160479129 11.948616120359343 140.625 0 0 -1 1.2132142739180718 4.5277773107300057 0 1 I I #
edge $755 $583 -18.660254037844417 $743 14.999999999999924 $678 $756 forward 7 unknown #
edge $757 $742 -14.999999999999924 $584 18.660254037844417 $675 $758 forward 7 unknown #
face $759 $713 $581 $10 $-1 $760 forward single #
convexity-sys-attrib $-1 $-1 $582 $440 #
point $-1 15.150238160479129 16.008110200598914 140.625 #
point $-1 15.150238160479129 16.008110200598914 0 #
coedge $-1 $728 $599 $588 $688 forward $697 $-1 #
edge $761 $602 -75 $690 75 $588 $762 forward 7 unknown #
model_id-kcp-attrib $-1 $763 $-1 $589 1 990548707 70 1095106561 22 #
vertex $-1 $589 $764 #
straight-curve $-1 -30.300476320958246 7.2611161203593246 140.625 0.8118988160479107 0.46875000000000094 0 I I #
model_id-kcp-attrib $-1 $-1 $-1 $590 1 990548707 70 1095106561 12 #
plane-surface $-1 -30.300476320958246 7.2611161203593246 70.3125 -0.500000000000001 0.86602540378443804 0 -0.8118988160479107 -0.46875000000000094 0 forward_v I I I I #
convexity-sys-attrib $-1 $-1 $594 $450 #
convexity-sys-attrib $-1 $-1 $596 $287 #
coedge $-1 $599 $728 $667 $745 forward $697 $-1 #
loop $-1 $-1 $687 $659 #
model_id-kcp-attrib $-1 $765 $-1 $600 1 990548707 70 1095106561 30 #
vertex $-1 $668 $766 #
ellipse-curve $-1 -12.806488160479121 11.948616120359343 0 0 0 1 -1.2132142739180718 4.5277773107300057 0 1 I I #
attrib_edge_convexity-kcp-attrib $-1 $767 $601 $456 1 #
point $-1 -15.150238160479121 16.008110200598914 0 #
convexity-sys-attrib $-1 $-1 $604 $291 #
coedge $-1 $606 $675 $664 $740 reversed $49 $-1 #
coedge $-1 $662 $768 $606 $706 reversed $568 $-1 #
edge $769 $770 -5.0000000000000053 $710 5.0000000000000071 $705 $771 forward 7 unknown #
coedge $-1 $721 $607 $768 $772 forward $660 $-1 #
coedge $-1 $607 $721 $609 $712 forward $660 $-1 #
attrib_edge_convexity-kcp-attrib $-1 $773 $-1 $608 1 #
vertex $-1 $706 $774 #
ellipse-curve $-1 35.447708561676848 -11.948616120359347 0 0 0 1 1.2132142739180625 -4.5277773107300057 0 1 I I #
edge $775 $724 -75 $613 75 $609 $776 forward 7 unknown #
face $777 $616 $611 $10 $-1 $778 reversed single #
convexity-sys-attrib $-1 $-1 $612 $463 #
point $-1 33.103958561676848 -16.008110200598907 0 #
attrib_edge_convexity-kcp-attrib $-1 $779 $-1 $615 2 #
straight-curve $-1 9.0384526419164484 -2.1138838796406567 70.3125 0 0 0.9375 I I #
model_id-kcp-attrib $-1 $-1 $-1 $616 1 990548707 70 1095106561 15 #
plane-surface $-1 3.5527136788005009e-015 -2.1138838796406567 70.3125 0 1 0 -0.9375 0 0 forward_v I I I I #
coedge $-1 $738 $619 $735 $780 reversed $183 $-1 #
coedge $-1 $708 $707 $619 $722 forward $660 $-1 #
edge $-1 $781 -0.78539816339744928 $724 0.78539816339744728 $619 $782 forward 7 unknown #
attrib_edge_convexity-kcp-attrib $-1 $783 $-1 $621 1 #
vertex $-1 $712 $784 #
straight-curve $-1 20.925476320958161 -8.9768602005989067 140.625 -0.8118988160479107 0.46875000000000094 0 I I #
convexity-sys-attrib $-1 $-1 $622 $474 #
point $-1 9.0384526419164484 -2.1138838796406567 140.625 #
coedge $-1 $696 $687 $625 $729 forward $697 $-1 #
edge $785 $690 -0.26179938779914647 $749 0.26179938779915068 $625 $786 forward 7 unknown #
straight-curve $-1 36.703720401197529 16.636116120359585 -35.156249999999631 -6.0632980118195101e-015 0 1 I I #
straight-curve $-1 0 16.636116120359588 -70.312500000000057 1 0 0 I I #
point $-1 36.703720401197749 16.636116120359588 -70.312499999999943 #
model_id-kcp-attrib $-1 $-1 $-1 $659 1 990548707 70 1095106561 11 #
cone-surface $-1 -12.806488160479121 11.948616120359343 70.3125 0 0 -1 -1.2132142739180718 4.5277773107300057 0 1 I I 0 1 4.6875 forward I I I I #
coedge $-1 $768 $662 $720 $780 forward $568 $-1 #
coedge $-1 $664 $663 $662 $737 forward $434 $-1 #
edge $787 $788 -75 $770 75 $662 $789 forward 7 unknown #
coedge $-1 $678 $720 $663 $739 reversed $183 $-1 #
edge $-1 $743 -0.78539816339744972 $788 0.78539816339744728 $738 $790 forward 7 unknown #
edge $791 $770 -0.78539816339744728 $742 0.78539816339744972 $704 $792 forward 7 unknown #
attrib_edge_convexity-kcp-attrib $-1 $793 $-1 $666 3 #
vertex $-1 $740 $794 #
vertex $-1 $681 $795 #
straight-curve $-1 42.478958561676848 0.22986612035935217 70.3125 0 0 0.9375 I I #
edge $796 $749 -75 $699 75 $667 $797 forward 7 unknown #
model_id-kcp-attrib $-1 $798 $-1 $668 1 990548707 70 1095106561 32 #
straight-curve $-1 3.5527136788005009e-015 16.636116120359343 0 -0.9375 0 0 I I #
model_id-kcp-attrib $-1 $799 $-1 $670 1 990548707 70 1095106561 19 #
vertex $-1 $745 $800 #
straight-curve $-1 3.5527136788005009e-015 16.636116120359343 140.625 0.9375 0 0 I I #
convexity-sys-attrib $-1 $-1 $671 $574 #
point $-1 12.806488160479129 16.636116120359343 0 #
point $-1 12.806488160479129 16.636116120359343 140.625 #
attrib_edge_convexity-kcp-attrib $-1 $801 $676 $576 1 #
attrib_edge_convexity-kcp-attrib $-1 $802 $-1 $681 1 #
straight-curve $-1 30.300476320958253 7.2611161203593246 140.625 0.8118988160479107 -0.46875000000000094 0 I I #
attrib_edge_convexity-kcp-attrib $-1 $803 $-1 $682 1 #
straight-curve $-1 30.300476320958253 7.2611161203593246 0 -0.8118988160479107 0.46875000000000094 0 I I #
model_id-kcp-attrib $-1 $-1 $-1 $683 1 990548707 70 1095106561 13 #
plane-surface $-1 30.300476320958253 7.2611161203593246 70.3125 0.500000000000001 0.86602540378443804 0 -0.8118988160479107 0.46875000000000094 0 forward_v I I I I #
attrib_edge_convexity-kcp-attrib $-1 $804 $-1 $688 3 #
straight-curve $-1 -15.150238160479121 16.008110200598896 70.3125 0 0 0.9375 I I #
attrib_edge_convexity-kcp-attrib $-1 $805 $689 $589 1 #
point $-1 -15.150238160479121 16.008110200598914 140.625 #
attrib_edge_convexity-kcp-attrib $-1 $806 $698 $600 1 #
point $-1 -12.806488160479121 16.636116120359343 0 #
convexity-sys-attrib $-1 $-1 $701 $456 #
coedge $-1 $705 $735 $707 $772 reversed $568 $-1 #
attrib_edge_convexity-kcp-attrib $-1 $807 $-1 $706 1 #
vertex $-1 $737 $808 #
straight-curve $-1 41.850952641916408 -10.23287204011978 0 -0.46875000000000094 -0.8118988160479107 0 I I #
edge $809 $710 -75 $781 75 $768 $810 forward 7 unknown #
convexity-sys-attrib $-1 $-1 $709 $608 #
point $-1 39.507202641916408 -14.292366120359347 0 #
attrib_edge_convexity-kcp-attrib $-1 $811 $-1 $712 3 #
straight-curve $-1 33.103958561676848 -16.008110200598907 70.3125 0 0 -0.9375 I I #
model_id-kcp-attrib $-1 $-1 $-1 $713 1 990548707 70 1095106561 14 #
plane-surface $-1 20.925476320958161 -8.9768602005989067 70.3125 0.500000000000001 0.86602540378443804 0 -0.8118988160479107 0.46875000000000094 0 forward_v I I I I #
convexity-sys-attrib $-1 $-1 $716 $615 #
edge $812 $788 -5.0000000000000053 $781 5.0000000000000071 $720 $813 forward 7 unknown #
vertex $-1 $780 $814 #
ellipse-curve $-1 35.447708561676848 -11.948616120359347 140.625 0 0 -1 1.2132142739180625 -4.5277773107300057 0 1 I I #
convexity-sys-attrib $-1 $-1 $723 $621 #
point $-1 33.103958561676848 -16.008110200598907 140.625 #
model_id-kcp-attrib $-1 $-1 $-1 $729 1 990548707 70 1095106561 21 #
ellipse-curve $-1 -12.806488160479121 11.948616120359343 140.625 0 0 -1 -1.2132142739180718 4.5277773107300057 0 1 I I #
attrib_edge_convexity-kcp-attrib $-1 $815 $-1 $737 3 #
vertex $-1 $737 $816 #
straight-curve $-1 44.194702641916408 -6.1733779598802183 70.3125 0 0 -0.9375 I I #
ellipse-curve $-1 40.135208561676848 -3.8296279598802183 140.625 0 0 -1 4.5277773107300057 1.2132142739180625 0 1 I I #
attrib_edge_convexity-kcp-attrib $-1 $817 $-1 $740 1 #
ellipse-curve $-1 40.135208561676848 -3.8296279598802183 0 0 0 1 4.5277773107300057 1.2132142739180625 0 1 I I #
convexity-sys-attrib $-1 $-1 $741 $666 #
point $-1 42.478958561676848 0.22986612035934328 0 #
point $-1 42.478958561676848 0.22986612035934328 140.625 #
attrib_edge_convexity-kcp-attrib $-1 $818 $-1 $745 3 #
straight-curve $-1 -12.806488160479121 16.636116120359343 70.3125 0 0 -0.9375 I I #
attrib_edge_convexity-kcp-attrib $-1 $819 $746 $668 1 #
attrib_edge_convexity-kcp-attrib $-1 $820 $748 $670 1 #
point $-1 -12.806488160479121 16.636116120359343 140.625 #
convexity-sys-attrib $-1 $-1 $754 $576 #
convexity-sys-attrib $-1 $-1 $755 $681 #
convexity-sys-attrib $-1 $-1 $757 $682 #
convexity-sys-attrib $-1 $-1 $761 $688 #
convexity-sys-attrib $-1 $-1 $763 $589 #
convexity-sys-attrib $-1 $-1 $765 $600 #
convexity-sys-attrib $-1 $-1 $769 $706 #
point $-1 44.194702641916408 -6.1733779598802183 0 #
attrib_edge_convexity-kcp-attrib $-1 $821 $-1 $772 3 #
straight-curve $-1 39.507202641916408 -14.292366120359347 70.3125 0 0 0.9375 I I #
convexity-sys-attrib $-1 $-1 $775 $712 #
attrib_edge_convexity-kcp-attrib $-1 $822 $-1 $780 1 #
straight-curve $-1 41.850952641916408 -10.23287204011978 140.625 -0.46875000000000094 -0.8118988160479107 0 I I #
point $-1 39.507202641916408 -14.292366120359347 140.625 #
convexity-sys-attrib $-1 $-1 $787 $737 #
point $-1 44.194702641916408 -6.1733779598802183 140.625 #
convexity-sys-attrib $-1 $-1 $791 $740 #
convexity-sys-attrib $-1 $-1 $796 $745 #
convexity-sys-attrib $-1 $-1 $798 $668 #
convexity-sys-attrib $-1 $-1 $799 $670 #
convexity-sys-attrib $-1 $-1 $809 $772 #
convexity-sys-attrib $-1 $-1 $812 $780 #
End-of-ACIS-data 