106 0 1 0           
body $-1 $1 $-1 $-1 #
lump $-1 $-1 $2 $0 #
shell $-1 $-1 $-1 $3 $1 #
face $-1 $4 $5 $2 $-1 $6 forward single #
face $-1 $7 $8 $2 $-1 $9 reversed single #
loop $-1 $-1 $10 $3 #
plane-surface $-1 -20 -15 0 0 0 1 1 0 0 0 I I I I #
face $-1 $11 $12 $2 $-1 $13 reversed single #
loop $-1 $-1 $14 $4 #
plane-surface $-1 -15 -15 -5 -1 0 0 0 0 1 0 I I I I #
coedge $-1 $15 $16 $17 $18 1 $5 $-1 #
face $-1 $19 $20 $2 $-1 $21 reversed single #
loop $-1 $-1 $22 $7 #
plane-surface $-1 -20 -10 -5 0 -1 0 0 0 -1 0 I I I I #
coedge $-1 $23 $24 $25 $26 1 $8 $-1 #
coedge $-1 $27 $10 $28 $29 1 $5 $-1 #
coedge $-1 $10 $27 $30 $31 0 $5 $-1 #
coedge $-1 $32 $33 $10 $18 0 $20 $-1 #
edge $-1 $34 $35 $17 $36 0 #
face $-1 $37 $38 $2 $-1 $39 forward single #
loop $-1 $-1 $17 $11 #
plane-surface $-1 -20 20 0 -1 0 0 0 0 1 0 I I I I #
coedge $-1 $30 $40 $32 $41 1 $12 $-1 #
coedge $-1 $42 $14 $43 $44 1 $8 $-1 #
coedge $-1 $14 $42 $27 $45 1 $8 $-1 #
coedge $-1 $28 $46 $14 $26 0 $47 $-1 #
edge $-1 $48 $49 $25 $50 0 #
coedge $-1 $16 $15 $24 $45 0 $5 $-1 #
coedge $-1 $51 $25 $15 $29 0 $47 $-1 #
edge $-1 $49 $34 $28 $52 0 #
coedge $-1 $53 $22 $16 $31 1 $12 $-1 #
edge $-1 $54 $35 $30 $55 0 #
coedge $-1 $56 $17 $22 $41 0 $20 $-1 #
coedge $-1 $17 $57 $51 $58 1 $20 $-1 #
vertex $-1 $29 $59 #
vertex $-1 $18 $60 #
straight-curve $-1 -20 2.5 0 0 1 0 I I #
face $-1 $61 $62 $2 $-1 $63 forward single #
loop $-1 $-1 $64 $19 #
plane-surface $-1 0 20 -10 0 0 1 1 0 0 0 I I I I #
coedge $-1 $22 $53 $64 $65 1 $12 $-1 #
edge $-1 $35 $66 $32 $67 0 #
coedge $-1 $24 $23 $53 $68 1 $8 $-1 #
coedge $-1 $69 $64 $23 $44 0 $38 $-1 #
edge $-1 $70 $48 $43 $71 0 #
edge $-1 $49 $54 $24 $72 0 #
coedge $-1 $25 $73 $69 $74 0 $47 $-1 #
loop $-1 $-1 $28 $75 #
vertex $-1 $74 $76 #
vertex $-1 $29 $77 #
straight-curve $-1 -15 -15 0 0 0 1 I I #
coedge $-1 $78 $28 $33 $58 0 $47 $-1 #
straight-curve $-1 -10 -15 0 -1 0 0 I I #
coedge $-1 $40 $30 $42 $68 0 $12 $-1 #
vertex $-1 $45 $79 #
straight-curve $-1 -20 -10 0 -1 0 0 I I #
coedge $-1 $80 $32 $81 $82 1 $20 $-1 #
coedge $-1 $33 $80 $83 $84 1 $20 $-1 #
edge $-1 $34 $85 $51 $86 0 #
point $-1 -20 -15 0 #
point $-1 -20 -10 0 #
face $-1 $87 $88 $2 $-1 $89 reversed single #
loop $-1 $-1 $90 $37 #
plane-surface $-1 0 20 0 0 1 0 0 0 1 0 I I I I #
coedge $-1 $43 $81 $40 $65 0 $38 $-1 #
edge $-1 $66 $70 $64 $91 0 #
vertex $-1 $82 $92 #
straight-curve $-1 -20 -10 -2.5 0 0 -1 I I #
edge $-1 $54 $70 $42 $93 0 #
coedge $-1 $94 $43 $46 $74 1 $38 $-1 #
vertex $-1 $65 $95 #
straight-curve $-1 -15 2.5 -10 0 -1 0 I I #
straight-curve $-1 -15 -15 0 0 1 0 I I #
coedge $-1 $46 $96 $97 $98 0 $47 $-1 #
edge $-1 $99 $48 $46 $100 0 #
face $-1 $101 $47 $2 $-1 $102 forward single #
point $-1 -15 -15 -10 #
point $-1 -15 -15 0 #
coedge $-1 $103 $51 $104 $105 0 $47 $-1 #
point $-1 -15 -10 0 #
coedge $-1 $57 $56 $106 $107 1 $20 $-1 #
coedge $-1 $64 $108 $56 $82 0 $38 $-1 #
edge $-1 $109 $66 $81 $110 0 #
coedge $-1 $111 $104 $57 $84 0 $112 $-1 #
edge $-1 $85 $113 $57 $114 0 #
vertex $-1 $105 $115 #
straight-curve $-1 -20 -15 2.5 0 0 1 I I #
face $-1 $116 $117 $2 $-1 $118 reversed single #
loop $-1 $-1 $119 $61 #
plane-surface $-1 0 20 -20 0 0 1 1 0 0 0 I I I I #
coedge $-1 $120 $121 $122 $123 1 $62 $-1 #
straight-curve $-1 -10 -10 -10 1 0 0 I I #
point $-1 -20 -10 -10 #
straight-curve $-1 -15 -10 -5 0 0 -1 I I #
coedge $-1 $108 $69 $124 $125 0 $38 $-1 #
point $-1 -15 -10 -10 #
coedge $-1 $73 $126 $127 $128 0 $47 $-1 #
coedge $-1 $129 $124 $73 $98 1 $130 $-1 #
edge $-1 $131 $99 $73 $132 0 #
vertex $-1 $125 $133 #
straight-curve $-1 0 -15 -10 -1 0 0 I I #
face $-1 $134 $112 $2 $-1 $135 forward single #
plane-surface $-1 0 -15 5 0 1 0 0 0 1 0 I I I I #
coedge $-1 $136 $78 $137 $138 1 $47 $-1 #
coedge $-1 $83 $139 $78 $105 1 $112 $-1 #
edge $-1 $85 $140 $78 $141 0 #
coedge $-1 $142 $143 $80 $107 0 $144 $-1 #
edge $-1 $113 $109 $106 $145 0 #
coedge $-1 $81 $94 $142 $146 0 $38 $-1 #
vertex $-1 $146 $147 #
straight-curve $-1 -20 20 -10 0 -1 0 I I #
coedge $-1 $139 $83 $143 $148 1 $112 $-1 #
loop $-1 $-1 $104 $101 #
vertex $-1 $148 $149 #
straight-curve $-1 -20 20 10 0 1 0 I I #
point $-1 -20 -15 10 #
face $-1 $150 $151 $2 $-1 $152 forward single #
loop $-1 $-1 $153 $87 #
plane-surface $-1 40 20 0 -1 0 0 0 0 1 0 I I I I #
coedge $-1 $154 $155 $156 $157 0 $88 $-1 #
coedge $-1 $158 $90 $159 $160 1 $62 $-1 #
coedge $-1 $90 $161 $162 $163 1 $62 $-1 #
coedge $-1 $164 $165 $90 $123 0 $166 $-1 #
edge $-1 $167 $168 $122 $169 0 #
coedge $-1 $97 $170 $94 $125 1 $130 $-1 #
edge $-1 $99 $171 $94 $172 0 #
coedge $-1 $96 $173 $174 $175 0 $47 $-1 #
coedge $-1 $176 $177 $96 $128 1 $178 $-1 #
edge $-1 $179 $131 $96 $180 0 #
coedge $-1 $170 $97 $177 $181 1 $130 $-1 #
loop $-1 $-1 $170 $182 #
vertex $-1 $128 $183 #
straight-curve $-1 20 -15 2.5 0 0 -1 I I #
point $-1 20 -15 -10 #
face $-1 $184 $185 $2 $-1 $186 forward single #
plane-surface $-1 -30 20 10 0 0 1 1 0 0 0 I I I I #
coedge $-1 $187 $103 $188 $189 1 $47 $-1 #
coedge $-1 $190 $191 $103 $138 0 $185 $-1 #
edge $-1 $192 $140 $137 $193 0 #
coedge $-1 $104 $111 $190 $194 1 $112 $-1 #
vertex $-1 $138 $195 #
straight-curve $-1 -15 -15 10 -1 0 0 I I #
coedge $-1 $196 $106 $108 $146 1 $144 $-1 #
coedge $-1 $106 $197 $111 $148 0 $144 $-1 #
loop $-1 $-1 $198 $184 #
straight-curve $-1 -20 10 0 0 0 -1 I I #
edge $-1 $171 $109 $108 $199 0 #
point $-1 -20 10 -10 #
edge $-1 $200 $113 $143 $201 0 #
point $-1 -20 10 10 #
face $-1 $202 $203 $2 $-1 $204 forward single #
loop $-1 $-1 $205 $116 #
plane-surface $-1 0 20 20 0 0 1 1 0 0 0 I I I I #
coedge $-1 $206 $207 $208 $209 0 $117 $-1 #
coedge $-1 $210 $119 $207 $211 0 $88 $-1 #
coedge $-1 $119 $210 $212 $213 0 $88 $-1 #
coedge $-1 $161 $208 $119 $157 1 $62 $-1 #
edge $-1 $214 $215 $119 $216 0 #
coedge $-1 $217 $120 $218 $219 1 $62 $-1 #
coedge $-1 $220 $221 $120 $160 0 $222 $-1 #
edge $-1 $223 $167 $159 $224 0 #
coedge $-1 $121 $156 $225 $226 1 $62 $-1 #
coedge $-1 $227 $228 $121 $163 0 $229 $-1 #
edge $-1 $168 $230 $162 $231 0 #
coedge $-1 $232 $122 $228 $233 1 $166 $-1 #
coedge $-1 $122 $232 $220 $234 0 $166 $-1 #
loop $-1 $-1 $122 $235 #
vertex $-1 $234 $236 #
vertex $-1 $233 $237 #
straight-curve $-1 -10 20 5 0 0 1 I I #
coedge $-1 $124 $129 $196 $238 1 $130 $-1 #
vertex $-1 $125 $239 #
straight-curve $-1 20 20 -10 0 1 0 I I #
coedge $-1 $126 $240 $241 $242 1 $47 $-1 #
coedge $-1 $243 $244 $126 $175 1 $245 $-1 #
edge $-1 $246 $179 $174 $247 0 #
coedge $-1 $248 $127 $244 $249 1 $178 $-1 #
coedge $-1 $127 $248 $129 $181 0 $178 $-1 #
loop $-1 $-1 $248 $202 #
vertex $-1 $175 $250 #
straight-curve $-1 15 -15 10 -1 0 0 I I #
edge $-1 $251 $131 $129 $252 0 #
face $-1 $253 $130 $2 $-1 $254 reversed single #
point $-1 20 -15 10 #
face $-1 $255 $144 $2 $-1 $256 reversed single #
loop $-1 $-1 $190 $134 #
plane-surface $-1 -35 20 5 1 0 0 0 0 -1 0 I I I I #
coedge $-1 $257 $136 $258 $259 0 $47 $-1 #
coedge $-1 $260 $261 $136 $189 0 $229 $-1 #
edge $-1 $262 $192 $188 $263 0 #
coedge $-1 $264 $137 $139 $194 0 $185 $-1 #
coedge $-1 $137 $264 $260 $265 1 $185 $-1 #
vertex $-1 $189 $266 #
straight-curve $-1 -35 -15 5 0 0 -1 I I #
edge $-1 $140 $200 $190 $267 0 #
point $-1 -35 -15 10 #
coedge $-1 $198 $142 $170 $238 0 $144 $-1 #
coedge $-1 $143 $268 $264 $269 1 $144 $-1 #
coedge $-1 $270 $196 $248 $271 0 $144 $-1 #
straight-curve $-1 0 10 -10 -1 0 0 I I #
vertex $-1 $148 $272 #
straight-curve $-1 -15 10 10 1 0 0 I I #
face $-1 $182 $178 $2 $-1 $273 forward single #
loop $-1 $-1 $218 $150 #
plane-surface $-1 10 20 10 -1 0 0 0 0 1 0 I I I I #
coedge $-1 $274 $275 $217 $276 0 $151 $-1 #
coedge $-1 $277 $153 $275 $278 1 $117 $-1 #
coedge $-1 $153 $277 $154 $211 1 $117 $-1 #
coedge $-1 $156 $217 $153 $209 1 $62 $-1 #
edge $-1 $215 $279 $153 $280 0 #
coedge $-1 $155 $154 $281 $282 0 $88 $-1 #
edge $-1 $215 $283 $207 $284 0 #
coedge $-1 $285 $225 $155 $213 1 $286 $-1 #
edge $-1 $287 $214 $212 $288 0 #
vertex $-1 $213 $289 #
vertex $-1 $209 $290 #
straight-curve $-1 0 20 -20 1 0 0 I I #
coedge $-1 $208 $158 $205 $276 1 $62 $-1 #
coedge $-1 $291 $292 $158 $219 0 $203 $-1 #
edge $-1 $293 $223 $218 $294 0 #
coedge $-1 $295 $159 $165 $234 1 $222 $-1 #
coedge $-1 $159 $295 $291 $296 1 $222 $-1 #
loop $-1 $-1 $159 $297 #
vertex $-1 $160 $298 #
straight-curve $-1 0 20 0 -1 0 0 I I #
coedge $-1 $212 $299 $161 $226 0 $286 $-1 #
edge $-1 $230 $214 $225 $300 0 #
coedge $-1 $301 $162 $299 $302 0 $229 $-1 #
coedge $-1 $162 $303 $164 $233 0 $229 $-1 #
loop $-1 $-1 $162 $304 #
vertex $-1 $163 $305 #
straight-curve $-1 0 20 20 -1 0 0 I I #
coedge $-1 $165 $164 $306 $307 1 $166 $-1 #
edge $-1 $308 $168 $228 $309 0 #
edge $-1 $310 $167 $165 $311 0 #
face $-1 $304 $166 $2 $-1 $312 forward single #
point $-1 -10 20 0 #
point $-1 -10 20 20 #
edge $-1 $171 $251 $196 $313 0 #
point $-1 20 10 -10 #
coedge $-1 $173 $257 $314 $315 0 $47 $-1 #
coedge $-1 $316 $317 $173 $242 0 $151 $-1 #
edge $-1 $246 $318 $241 $263 0 #
coedge $-1 $319 $174 $317 $320 1 $245 $-1 #
coedge $-1 $174 $319 $176 $249 0 $245 $-1 #
loop $-1 $-1 $244 $253 #
vertex $-1 $242 $321 #
straight-curve $-1 35 -15 5 0 0 -1 I I #
coedge $-1 $177 $176 $198 $271 1 $178 $-1 #
edge $-1 $322 $179 $244 $323 0 #
point $-1 35 -15 10 #
vertex $-1 $271 $324 #
straight-curve $-1 20 20 10 0 -1 0 I I #
face $-1 $75 $245 $2 $-1 $325 forward single #
plane-surface $-1 20 20 0 1 0 0 0 0 -1 0 I I I I #
face $-1 $326 $286 $2 $-1 $327 reversed single #
plane-surface $-1 0 10 0 0 1 0 0 0 1 0 I I I I #
coedge $-1 $240 $187 $328 $329 0 $47 $-1 #
coedge $-1 $330 $331 $187 $259 1 $332 $-1 #
edge $-1 $262 $333 $187 $334 0 #
coedge $-1 $303 $188 $191 $265 0 $229 $-1 #
coedge $-1 $188 $301 $330 $335 0 $229 $-1 #
vertex $-1 $335 $336 #
straight-curve $-1 0 -15 20 -1 0 0 I I #
coedge $-1 $191 $190 $197 $269 0 $185 $-1 #
edge $-1 $192 $337 $260 $338 0 #
point $-1 -35 -15 20 #
straight-curve $-1 -35 20 10 0 1 0 I I #
coedge $-1 $197 $306 $303 $339 1 $144 $-1 #
edge $-1 $200 $337 $264 $340 0 #
coedge $-1 $341 $198 $319 $342 1 $144 $-1 #
edge $-1 $251 $322 $198 $343 0 #
point $-1 -35 10 10 #
plane-surface $-1 30 20 10 0 0 1 1 0 0 0 I I I I #
coedge $-1 $344 $205 $292 $345 0 $151 $-1 #
coedge $-1 $205 $346 $206 $278 0 $151 $-1 #
edge $-1 $279 $293 $205 $347 0 #
coedge $-1 $207 $206 $348 $349 0 $117 $-1 #
edge $-1 $350 $279 $206 $351 0 #
vertex $-1 $278 $352 #
straight-curve $-1 40 20 0 0 0 1 I I #
coedge $-1 $348 $353 $210 $282 1 $354 $-1 #
edge $-1 $283 $287 $281 $355 0 #
vertex $-1 $349 $356 #
straight-curve $-1 40 20 -20 0 -1 0 I I #
coedge $-1 $299 $212 $353 $357 1 $286 $-1 #
loop $-1 $-1 $225 $255 #
vertex $-1 $213 $358 #
straight-curve $-1 -40 20 -20 0 1 0 I I #
point $-1 -40 20 -20 #
point $-1 40 20 -20 #
coedge $-1 $359 $218 $221 $296 0 $203 $-1 #
coedge $-1 $218 $359 $274 $345 1 $203 $-1 #
vertex $-1 $219 $360 #
straight-curve $-1 10 20 5 0 0 -1 I I #
coedge $-1 $221 $220 $361 $362 1 $222 $-1 #
edge $-1 $223 $363 $291 $364 0 #
face $-1 $365 $222 $2 $-1 $366 forward single #
point $-1 10 20 0 #
coedge $-1 $225 $285 $227 $302 1 $286 $-1 #
straight-curve $-1 -40 20 0 0 0 -1 I I #
coedge $-1 $261 $227 $367 $368 0 $229 $-1 #
edge $-1 $230 $369 $299 $370 0 #
coedge $-1 $228 $260 $268 $339 0 $229 $-1 #
face $-1 $371 $229 $2 $-1 $152 forward single #
point $-1 -40 20 20 #
coedge $-1 $268 $361 $232 $307 0 $144 $-1 #
edge $-1 $310 $308 $306 $372 0 #
vertex $-1 $339 $373 #
straight-curve $-1 -10 20 20 0 1 0 I I #
vertex $-1 $362 $374 #
straight-curve $-1 -10 20 0 0 1 0 I I #
plane-surface $-1 -10 20 10 1 0 0 0 0 -1 0 I I I I #
straight-curve $-1 20 10 0 0 0 1 I I #
coedge $-1 $375 $376 $240 $315 1 $377 $-1 #
edge $-1 $378 $318 $240 $379 0 #
coedge $-1 $346 $241 $376 $380 0 $151 $-1 #
coedge $-1 $241 $344 $243 $320 0 $151 $-1 #
vertex $-1 $242 $381 #
coedge $-1 $244 $243 $270 $342 0 $245 $-1 #
edge $-1 $382 $246 $317 $383 0 #
point $-1 35 -15 20 #
vertex $-1 $342 $384 #
straight-curve $-1 35 20 10 0 -1 0 I I #
point $-1 20 10 10 #
plane-surface $-1 35 20 5 -1 0 0 0 0 1 0 I I I I #
face $-1 $297 $385 $2 $-1 $366 forward single #
plane-surface $-1 -40 20 0 1 0 0 0 0 -1 0 I I I I #
coedge $-1 $386 $387 $257 $329 1 $385 $-1 #
edge $-1 $333 $378 $257 $388 0 #
coedge $-1 $389 $258 $261 $335 1 $332 $-1 #
coedge $-1 $258 $389 $386 $390 0 $332 $-1 #
loop $-1 $-1 $258 $391 #
vertex $-1 $329 $392 #
straight-curve $-1 -10 -15 7.5 0 0 -1 I I #
edge $-1 $393 $262 $261 $309 0 #
point $-1 -10 -15 20 #
vertex $-1 $265 $394 #
straight-curve $-1 -35 20 20 0 1 0 I I #
edge $-1 $337 $308 $268 $395 0 #
straight-curve $-1 -35 10 2.5 0 0 1 I I #
coedge $-1 $396 $270 $344 $397 1 $144 $-1 #
edge $-1 $382 $322 $319 $398 0 #
straight-curve $-1 15 10 10 1 0 0 I I #
coedge $-1 $317 $274 $341 $397 0 $151 $-1 #
edge $-1 $293 $399 $274 $400 0 #
coedge $-1 $275 $316 $401 $402 0 $151 $-1 #
straight-curve $-1 0 20 20 -1 0 0 I I #
coedge $-1 $401 $281 $277 $349 1 $354 $-1 #
edge $-1 $350 $283 $277 $403 0 #
vertex $-1 $278 $404 #
straight-curve $-1 40 20 20 0 1 0 I I #
point $-1 40 20 20 #
coedge $-1 $281 $367 $285 $357 0 $354 $-1 #
loop $-1 $-1 $348 $371 #
straight-curve $-1 0 -20 -20 -1 0 0 I I #
point $-1 40 -20 -20 #
edge $-1 $369 $287 $285 $405 0 #
point $-1 -40 -20 -20 #
coedge $-1 $292 $291 $396 $406 1 $203 $-1 #
point $-1 10 20 20 #
coedge $-1 $306 $396 $295 $362 0 $144 $-1 #
edge $-1 $363 $310 $361 $407 0 #
vertex $-1 $362 $408 #
straight-curve $-1 10 20 0 0 -1 0 I I #
face $-1 $391 $377 $2 $-1 $204 forward single #
plane-surface $-1 0 20 0 0 0 1 1 0 0 0 I I I I #
coedge $-1 $353 $409 $301 $368 1 $354 $-1 #
edge $-1 $369 $393 $367 $410 0 #
vertex $-1 $302 $411 #
straight-curve $-1 -40 20 20 0 -1 0 I I #
face $-1 $-1 $354 $2 $-1 $412 reversed single #
straight-curve $-1 -10 10 5 0 0 1 I I #
point $-1 -10 10 20 #
point $-1 -10 10 0 #
coedge $-1 $413 $314 $387 $414 0 $377 $-1 #
coedge $-1 $314 $413 $316 $380 1 $377 $-1 #
loop $-1 $-1 $314 $365 #
vertex $-1 $329 $415 #
straight-curve $-1 10 -15 7.5 0 0 1 I I #
edge $-1 $318 $416 $316 $400 0 #
point $-1 10 -15 20 #
vertex $-1 $320 $417 #
straight-curve $-1 35 20 20 0 -1 0 I I #
point $-1 35 10 10 #
loop $-1 $-1 $328 $326 #
coedge $-1 $418 $328 $331 $390 1 $385 $-1 #
coedge $-1 $328 $418 $375 $414 1 $385 $-1 #
straight-curve $-1 0 -15 0 1 0 0 I I #
coedge $-1 $331 $330 $409 $419 1 $332 $-1 #
edge $-1 $420 $333 $331 $311 0 #
face $-1 $235 $332 $2 $-1 $312 forward single #
point $-1 -10 -15 0 #
vertex $-1 $368 $421 #
point $-1 -35 10 20 #
straight-curve $-1 0 10 20 1 0 0 I I #
coedge $-1 $361 $341 $359 $406 0 $144 $-1 #
edge $-1 $399 $382 $341 $395 0 #
straight-curve $-1 35 10 2.5 0 0 -1 I I #
vertex $-1 $406 $422 #
straight-curve $-1 10 20 20 0 -1 0 I I #
coedge $-1 $423 $348 $346 $402 1 $354 $-1 #
edge $-1 $416 $350 $401 $410 0 #
straight-curve $-1 40 -20 0 0 0 -1 I I #
point $-1 40 -20 20 #
straight-curve $-1 -40 -20 0 0 0 -1 I I #
edge $-1 $399 $363 $396 $424 0 #
straight-curve $-1 0 10 0 -1 0 0 I I #
point $-1 10 10 0 #
coedge $-1 $367 $425 $389 $419 0 $354 $-1 #
straight-curve $-1 0 -20 20 1 0 0 I I #
point $-1 -40 -20 20 #
plane-surface $-1 0 -20 0 0 1 0 0 0 1 0 I I I I #
coedge $-1 $376 $375 $423 $426 1 $377 $-1 #
edge $-1 $378 $427 $375 $364 0 #
point $-1 10 -15 0 #
vertex $-1 $426 $428 #
point $-1 35 10 20 #
coedge $-1 $387 $386 $425 $429 1 $385 $-1 #
edge $-1 $420 $393 $409 $430 0 #
vertex $-1 $429 $431 #
point $-1 -10 -20 20 #
point $-1 10 10 20 #
coedge $-1 $425 $401 $413 $426 0 $354 $-1 #
straight-curve $-1 10 10 5 0 0 -1 I I #
coedge $-1 $409 $423 $418 $429 0 $354 $-1 #
edge $-1 $416 $427 $423 $432 0 #
vertex $-1 $429 $433 #
point $-1 10 -20 20 #
edge $-1 $427 $420 $425 $434 0 #
straight-curve $-1 -10 -20 5 0 0 1 I I #
point $-1 -10 -20 0 #
straight-curve $-1 10 -20 5 0 0 -1 I I #
point $-1 10 -20 0 #
straight-curve $-1 0 -20 0 -1 0 0 I I #
End-of-ACIS-data 