600 0 1 0           
81 GICL ACIS Healer - Source: /gicl/data5/repository/Heriot_Watt/ex15/ex15.sat - 6 0 18 ACIS 6.0.3 Solaris 24 Sat Apr 13 23:39:01 2002 
1 9.999999999999999547e-07 1.000000000000000036e-10 
body $-1 $1 $-1 $-1 #
lump $-1 $-1 $2 $0 #
shell $-1 $-1 $-1 $3 $-1 $1 #
face $-1 $4 $5 $2 $-1 $6 forward single #
face $-1 $7 $8 $2 $-1 $9 reversed single #
loop $-1 $-1 $10 $3 #
plane-surface $-1 -20 -15 0 0 0 1 1 0 0 forward_v I I I I #
face $-1 $11 $12 $2 $-1 $13 reversed single #
loop $-1 $-1 $14 $4 #
plane-surface $-1 -15 -15 -5 -1 0 0 0 0 1 forward_v I I I I #
coedge $-1 $15 $16 $17 $18 reversed $5 $-1 #
face $-1 $19 $20 $2 $-1 $21 reversed single #
loop $-1 $-1 $22 $7 #
plane-surface $-1 -20 -10 -5 0 -1 0 0 0 -1 forward_v I I I I #
coedge $-1 $23 $24 $25 $26 reversed $8 $-1 #
coedge $-1 $27 $10 $28 $29 reversed $5 $-1 #
coedge $-1 $10 $27 $30 $31 forward $5 $-1 #
coedge $-1 $32 $33 $10 $18 forward $20 $-1 #
edge $-1 $34 -17.5 $35 -12.5 $17 $36 forward 7 unknown #
face $-1 $37 $38 $2 $-1 $39 forward single #
loop $-1 $-1 $17 $11 #
plane-surface $-1 -20 20 0 -1 0 0 0 0 1 forward_v I I I I #
coedge $-1 $30 $40 $32 $41 reversed $12 $-1 #
coedge $-1 $42 $14 $43 $44 reversed $8 $-1 #
coedge $-1 $14 $42 $27 $45 reversed $8 $-1 #
coedge $-1 $28 $46 $14 $26 forward $47 $-1 #
edge $-1 $48 -10 $49 0 $25 $50 forward 7 unknown #
coedge $-1 $16 $15 $24 $45 forward $5 $-1 #
coedge $-1 $51 $25 $15 $29 forward $47 $-1 #
edge $-1 $49 5 $34 10 $28 $52 forward 7 unknown #
coedge $-1 $53 $22 $16 $31 reversed $12 $-1 #
edge $-1 $54 -5 $35 0 $30 $55 forward 7 unknown #
coedge $-1 $56 $17 $22 $41 forward $20 $-1 #
coedge $-1 $17 $57 $51 $58 reversed $20 $-1 #
vertex $-1 $29 $59 #
vertex $-1 $18 $60 #
straight-curve $-1 -20 2.5 0 0 1 0 I I #
face $-1 $61 $62 $2 $-1 $63 forward single #
loop $-1 $-1 $64 $19 #
plane-surface $-1 0 20 -10 0 0 1 1 0 0 forward_v I I I I #
coedge $-1 $22 $53 $64 $65 reversed $12 $-1 #
edge $-1 $35 -2.5 $66 7.5 $32 $67 forward 7 unknown #
coedge $-1 $24 $23 $53 $68 reversed $8 $-1 #
coedge $-1 $69 $64 $23 $44 forward $38 $-1 #
edge $-1 $70 12.5 $48 17.5 $43 $71 forward 7 unknown #
edge $-1 $49 0 $54 5 $24 $72 forward 7 unknown #
coedge $-1 $25 $73 $69 $74 forward $47 $-1 #
loop $-1 $-1 $28 $75 #
vertex $-1 $74 $76 #
vertex $-1 $29 $77 #
straight-curve $-1 -15 -15 0 0 0 1 I I #
coedge $-1 $78 $28 $33 $58 forward $47 $-1 #
straight-curve $-1 -10 -15 0 -1 0 0 I I #
coedge $-1 $40 $30 $42 $68 forward $12 $-1 #
vertex $-1 $45 $79 #
straight-curve $-1 -20 -10 0 -1 0 0 I I #
coedge $-1 $80 $32 $81 $82 reversed $20 $-1 #
coedge $-1 $33 $80 $83 $84 reversed $20 $-1 #
edge $-1 $34 -2.5 $85 7.5 $51 $86 forward 7 unknown #
point $-1 -20 -15 0 #
point $-1 -20 -10 0 #
face $-1 $87 $88 $2 $-1 $89 reversed single #
loop $-1 $-1 $90 $37 #
plane-surface $-1 0 20 0 0 1 0 0 0 1 forward_v I I I I #
coedge $-1 $43 $81 $40 $65 forward $38 $-1 #
edge $-1 $66 -10 $70 -5 $64 $91 forward 7 unknown #
vertex $-1 $82 $92 #
straight-curve $-1 -20 -10 -2.5 0 0 -1 I I #
edge $-1 $54 -5 $70 5 $42 $93 forward 7 unknown #
coedge $-1 $94 $43 $46 $74 reversed $38 $-1 #
vertex $-1 $65 $95 #
straight-curve $-1 -15 2.5 -10 0 -1 0 I I #
straight-curve $-1 -15 -15 0 0 1 0 I I #
coedge $-1 $46 $96 $97 $98 forward $47 $-1 #
edge $-1 $99 -20 $48 15 $46 $100 forward 7 unknown #
face $-1 $101 $47 $2 $-1 $102 forward single #
point $-1 -15 -15 -10 #
point $-1 -15 -15 0 #
coedge $-1 $103 $51 $104 $105 forward $47 $-1 #
point $-1 -15 -10 0 #
coedge $-1 $57 $56 $106 $107 reversed $20 $-1 #
coedge $-1 $64 $108 $56 $82 forward $38 $-1 #
edge $-1 $109 10 $66 30 $81 $110 forward 7 unknown #
coedge $-1 $111 $104 $57 $84 forward $112 $-1 #
edge $-1 $85 -35 $113 -10 $57 $114 forward 7 unknown #
vertex $-1 $105 $115 #
straight-curve $-1 -20 -15 2.5 0 0 1 I I #
face $-1 $116 $117 $2 $-1 $118 reversed single #
loop $-1 $-1 $119 $61 #
plane-surface $-1 0 20 -20 0 0 1 1 0 0 forward_v I I I I #
coedge $-1 $120 $121 $122 $123 reversed $62 $-1 #
straight-curve $-1 -10 -10 -10 1 0 0 I I #
point $-1 -20 -10 -10 #
straight-curve $-1 -15 -10 -5 0 0 -1 I I #
coedge $-1 $108 $69 $124 $125 forward $38 $-1 #
point $-1 -15 -10 -10 #
coedge $-1 $73 $126 $127 $128 forward $47 $-1 #
coedge $-1 $129 $124 $73 $98 reversed $130 $-1 #
edge $-1 $131 -7.5 $99 12.5 $73 $132 forward 7 unknown #
vertex $-1 $125 $133 #
straight-curve $-1 0 -15 -10 -1 0 0 I I #
face $-1 $134 $112 $2 $-1 $135 forward single #
plane-surface $-1 0 -15 5 0 1 0 0 0 1 forward_v I I I I #
coedge $-1 $136 $78 $137 $138 reversed $47 $-1 #
coedge $-1 $83 $139 $78 $105 reversed $112 $-1 #
edge $-1 $85 5 $140 20 $78 $141 forward 7 unknown #
coedge $-1 $142 $143 $80 $107 forward $144 $-1 #
edge $-1 $113 -10 $109 10 $106 $145 forward 7 unknown #
coedge $-1 $81 $94 $142 $146 forward $38 $-1 #
vertex $-1 $146 $147 #
straight-curve $-1 -20 20 -10 0 -1 0 I I #
coedge $-1 $139 $83 $143 $148 reversed $112 $-1 #
loop $-1 $-1 $104 $101 #
vertex $-1 $148 $149 #
straight-curve $-1 -20 20 10 0 1 0 I I #
point $-1 -20 -15 10 #
face $-1 $150 $151 $2 $-1 $152 forward single #
loop $-1 $-1 $153 $87 #
plane-surface $-1 40 20 0 -1 0 0 0 0 1 forward_v I I I I #
coedge $-1 $154 $155 $156 $157 forward $88 $-1 #
coedge $-1 $158 $90 $159 $160 reversed $62 $-1 #
coedge $-1 $90 $161 $162 $163 reversed $62 $-1 #
coedge $-1 $164 $165 $90 $123 forward $166 $-1 #
edge $-1 $167 -5 $168 15 $122 $169 forward 7 unknown #
coedge $-1 $97 $170 $94 $125 reversed $130 $-1 #
edge $-1 $99 -35 $171 -10 $94 $172 forward 7 unknown #
coedge $-1 $96 $173 $174 $175 forward $47 $-1 #
coedge $-1 $176 $177 $96 $128 reversed $178 $-1 #
edge $-1 $179 -20 $131 -5 $96 $180 forward 7 unknown #
coedge $-1 $170 $97 $177 $181 reversed $130 $-1 #
loop $-1 $-1 $170 $182 #
vertex $-1 $128 $183 #
straight-curve $-1 20 -15 2.5 0 0 -1 I I #
point $-1 20 -15 -10 #
face $-1 $184 $185 $2 $-1 $186 forward single #
plane-surface $-1 -30 20 10 0 0 1 1 0 0 forward_v I I I I #
coedge $-1 $187 $103 $188 $189 reversed $47 $-1 #
coedge $-1 $190 $191 $103 $138 forward $185 $-1 #
edge $-1 $192 -15 $140 -5 $137 $193 forward 7 unknown #
coedge $-1 $104 $111 $190 $194 reversed $112 $-1 #
vertex $-1 $138 $195 #
straight-curve $-1 -15 -15 10 -1 0 0 I I #
coedge $-1 $196 $106 $108 $146 reversed $144 $-1 #
coedge $-1 $106 $197 $111 $148 forward $144 $-1 #
loop $-1 $-1 $198 $184 #
straight-curve $-1 -20 10 0 0 0 -1 I I #
edge $-1 $171 -20 $109 20 $108 $199 forward 7 unknown #
point $-1 -20 10 -10 #
edge $-1 $200 -20 $113 -5 $143 $201 forward 7 unknown #
point $-1 -20 10 10 #
face $-1 $202 $203 $2 $-1 $204 forward single #
loop $-1 $-1 $205 $116 #
plane-surface $-1 0 20 20 0 0 1 1 0 0 forward_v I I I I #
coedge $-1 $206 $207 $208 $209 forward $117 $-1 #
coedge $-1 $210 $119 $207 $211 forward $88 $-1 #
coedge $-1 $119 $210 $212 $213 forward $88 $-1 #
coedge $-1 $161 $208 $119 $157 reversed $62 $-1 #
edge $-1 $214 -40 $215 40 $119 $216 forward 7 unknown #
coedge $-1 $217 $120 $218 $219 reversed $62 $-1 #
coedge $-1 $220 $221 $120 $160 forward $222 $-1 #
edge $-1 $223 -10 $167 10 $159 $224 forward 7 unknown #
coedge $-1 $121 $156 $225 $226 reversed $62 $-1 #
coedge $-1 $227 $228 $121 $163 forward $229 $-1 #
edge $-1 $168 10 $230 40 $162 $231 forward 7 unknown #
coedge $-1 $232 $122 $228 $233 reversed $166 $-1 #
coedge $-1 $122 $232 $220 $234 forward $166 $-1 #
loop $-1 $-1 $122 $235 #
vertex $-1 $234 $236 #
vertex $-1 $233 $237 #
straight-curve $-1 -10 20 5 0 0 1 I I #
coedge $-1 $124 $129 $196 $238 reversed $130 $-1 #
vertex $-1 $125 $239 #
straight-curve $-1 20 20 -10 0 1 0 I I #
coedge $-1 $126 $240 $241 $242 reversed $47 $-1 #
coedge $-1 $243 $244 $126 $175 reversed $245 $-1 #
edge $-1 $246 -15 $179 -5 $174 $247 forward 7 unknown #
coedge $-1 $248 $127 $244 $249 reversed $178 $-1 #
coedge $-1 $127 $248 $129 $181 forward $178 $-1 #
loop $-1 $-1 $248 $202 #
vertex $-1 $175 $250 #
straight-curve $-1 15 -15 10 -1 0 0 I I #
edge $-1 $251 10 $131 35 $129 $252 forward 7 unknown #
face $-1 $253 $130 $2 $-1 $254 reversed single #
point $-1 20 -15 10 #
face $-1 $255 $144 $2 $-1 $256 reversed single #
loop $-1 $-1 $190 $134 #
plane-surface $-1 -35 20 5 1 0 0 0 0 -1 forward_v I I I I #
coedge $-1 $257 $136 $258 $259 forward $47 $-1 #
coedge $-1 $260 $261 $136 $189 forward $229 $-1 #
edge $-1 $262 10 $192 35 $188 $263 forward 7 unknown #
coedge $-1 $264 $137 $139 $194 forward $185 $-1 #
coedge $-1 $137 $264 $260 $265 reversed $185 $-1 #
vertex $-1 $189 $266 #
straight-curve $-1 -35 -15 5 0 0 -1 I I #
edge $-1 $140 -35 $200 -10 $190 $267 forward 7 unknown #
point $-1 -35 -15 10 #
coedge $-1 $198 $142 $170 $238 forward $144 $-1 #
coedge $-1 $143 $268 $264 $269 reversed $144 $-1 #
coedge $-1 $270 $196 $248 $271 forward $144 $-1 #
straight-curve $-1 0 10 -10 -1 0 0 I I #
vertex $-1 $148 $272 #
straight-curve $-1 -15 10 10 1 0 0 I I #
face $-1 $182 $178 $2 $-1 $273 forward single #
loop $-1 $-1 $218 $150 #
plane-surface $-1 10 20 10 -1 0 0 0 0 1 forward_v I I I I #
coedge $-1 $274 $275 $217 $276 forward $151 $-1 #
coedge $-1 $277 $153 $275 $278 reversed $117 $-1 #
coedge $-1 $153 $277 $154 $211 reversed $117 $-1 #
coedge $-1 $156 $217 $153 $209 reversed $62 $-1 #
edge $-1 $215 -20 $279 20 $153 $280 forward 7 unknown #
coedge $-1 $155 $154 $281 $282 forward $88 $-1 #
edge $-1 $215 0 $283 40 $207 $284 forward 7 unknown #
coedge $-1 $285 $225 $155 $213 reversed $286 $-1 #
edge $-1 $287 -40 $214 0 $212 $288 forward 7 unknown #
vertex $-1 $213 $289 #
vertex $-1 $209 $290 #
straight-curve $-1 0 20 -20 1 0 0 I I #
coedge $-1 $208 $158 $205 $276 reversed $62 $-1 #
coedge $-1 $291 $292 $158 $219 forward $203 $-1 #
edge $-1 $293 -15 $223 5 $218 $294 forward 7 unknown #
coedge $-1 $295 $159 $165 $234 reversed $222 $-1 #
coedge $-1 $159 $295 $291 $296 reversed $222 $-1 #
loop $-1 $-1 $159 $297 #
vertex $-1 $160 $298 #
straight-curve $-1 0 20 0 -1 0 0 I I #
coedge $-1 $212 $299 $161 $226 forward $286 $-1 #
edge $-1 $230 -20 $214 20 $225 $300 forward 7 unknown #
coedge $-1 $301 $162 $299 $302 forward $229 $-1 #
coedge $-1 $162 $303 $164 $233 forward $229 $-1 #
loop $-1 $-1 $162 $304 #
vertex $-1 $163 $305 #
straight-curve $-1 0 20 20 -1 0 0 I I #
coedge $-1 $165 $164 $306 $307 reversed $166 $-1 #
edge $-1 $308 -10 $168 0 $228 $309 forward 7 unknown #
edge $-1 $310 -10 $167 0 $165 $311 forward 7 unknown #
face $-1 $304 $166 $2 $-1 $312 forward single #
point $-1 -10 20 0 #
point $-1 -10 20 20 #
edge $-1 $171 -10 $251 10 $196 $313 forward 7 unknown #
point $-1 20 10 -10 #
coedge $-1 $173 $257 $314 $315 forward $47 $-1 #
coedge $-1 $316 $317 $173 $242 forward $151 $-1 #
edge $-1 $246 -35 $318 -10 $241 $263 forward 7 unknown #
coedge $-1 $319 $174 $317 $320 reversed $245 $-1 #
coedge $-1 $174 $319 $176 $249 forward $245 $-1 #
loop $-1 $-1 $244 $253 #
vertex $-1 $242 $321 #
straight-curve $-1 35 -15 5 0 0 -1 I I #
coedge $-1 $177 $176 $198 $271 reversed $178 $-1 #
edge $-1 $322 10 $179 35 $244 $323 forward 7 unknown #
point $-1 35 -15 10 #
vertex $-1 $271 $324 #
straight-curve $-1 20 20 10 0 -1 0 I I #
face $-1 $75 $245 $2 $-1 $325 forward single #
plane-surface $-1 20 20 0 1 0 0 0 0 -1 forward_v I I I I #
face $-1 $326 $286 $2 $-1 $327 reversed single #
plane-surface $-1 0 10 0 0 1 0 0 0 1 forward_v I I I I #
coedge $-1 $240 $187 $328 $329 forward $47 $-1 #
coedge $-1 $330 $331 $187 $259 reversed $332 $-1 #
edge $-1 $262 -12.5 $333 7.5 $187 $334 forward 7 unknown #
coedge $-1 $303 $188 $191 $265 forward $229 $-1 #
coedge $-1 $188 $301 $330 $335 forward $229 $-1 #
vertex $-1 $335 $336 #
straight-curve $-1 0 -15 20 -1 0 0 I I #
coedge $-1 $191 $190 $197 $269 forward $185 $-1 #
edge $-1 $192 -35 $337 -10 $260 $338 forward 7 unknown #
point $-1 -35 -15 20 #
straight-curve $-1 -35 20 10 0 1 0 I I #
coedge $-1 $197 $306 $303 $339 reversed $144 $-1 #
edge $-1 $200 7.5 $337 17.5 $264 $340 forward 7 unknown #
coedge $-1 $341 $198 $319 $342 reversed $144 $-1 #
edge $-1 $251 5 $322 20 $198 $343 forward 7 unknown #
point $-1 -35 10 10 #
plane-surface $-1 30 20 10 0 0 1 1 0 0 forward_v I I I I #
coedge $-1 $344 $205 $292 $345 forward $151 $-1 #
coedge $-1 $205 $346 $206 $278 forward $151 $-1 #
edge $-1 $279 -40 $293 -10 $205 $347 forward 7 unknown #
coedge $-1 $207 $206 $348 $349 forward $117 $-1 #
edge $-1 $350 -40 $279 0 $206 $351 forward 7 unknown #
vertex $-1 $278 $352 #
straight-curve $-1 40 20 0 0 0 1 I I #
coedge $-1 $348 $353 $210 $282 reversed $354 $-1 #
edge $-1 $283 -40 $287 40 $281 $355 forward 7 unknown #
vertex $-1 $349 $356 #
straight-curve $-1 40 20 -20 0 -1 0 I I #
coedge $-1 $299 $212 $353 $357 reversed $286 $-1 #
loop $-1 $-1 $225 $255 #
vertex $-1 $213 $358 #
straight-curve $-1 -40 20 -20 0 1 0 I I #
point $-1 -40 20 -20 #
point $-1 40 20 -20 #
coedge $-1 $359 $218 $221 $296 forward $203 $-1 #
coedge $-1 $218 $359 $274 $345 reversed $203 $-1 #
vertex $-1 $219 $360 #
straight-curve $-1 10 20 5 0 0 -1 I I #
coedge $-1 $221 $220 $361 $362 reversed $222 $-1 #
edge $-1 $223 0 $363 10 $291 $364 forward 7 unknown #
face $-1 $365 $222 $2 $-1 $366 forward single #
point $-1 10 20 0 #
coedge $-1 $225 $285 $227 $302 reversed $286 $-1 #
straight-curve $-1 -40 20 0 0 0 -1 I I #
coedge $-1 $261 $227 $367 $368 forward $229 $-1 #
edge $-1 $230 0 $369 40 $299 $370 forward 7 unknown #
coedge $-1 $228 $260 $268 $339 forward $229 $-1 #
face $-1 $371 $229 $2 $-1 $152 forward single #
point $-1 -40 20 20 #
coedge $-1 $268 $361 $232 $307 forward $144 $-1 #
edge $-1 $310 -5 $308 15 $306 $372 forward 7 unknown #
vertex $-1 $339 $373 #
straight-curve $-1 -10 20 20 0 1 0 I I #
vertex $-1 $362 $374 #
straight-curve $-1 -10 20 0 0 1 0 I I #
plane-surface $-1 -10 20 10 1 0 0 0 0 -1 forward_v I I I I #
straight-curve $-1 20 10 0 0 0 1 I I #
coedge $-1 $375 $376 $240 $315 reversed $377 $-1 #
edge $-1 $378 -7.5 $318 12.5 $240 $379 forward 7 unknown #
coedge $-1 $346 $241 $376 $380 forward $151 $-1 #
coedge $-1 $241 $344 $243 $320 forward $151 $-1 #
vertex $-1 $242 $381 #
coedge $-1 $244 $243 $270 $342 forward $245 $-1 #
edge $-1 $382 10 $246 35 $317 $383 forward 7 unknown #
point $-1 35 -15 20 #
vertex $-1 $342 $384 #
straight-curve $-1 35 20 10 0 -1 0 I I #
point $-1 20 10 10 #
plane-surface $-1 35 20 5 -1 0 0 0 0 1 forward_v I I I I #
face $-1 $297 $385 $2 $-1 $366 forward single #
plane-surface $-1 -40 20 0 1 0 0 0 0 -1 forward_v I I I I #
coedge $-1 $386 $387 $257 $329 reversed $385 $-1 #
edge $-1 $333 -10 $378 10 $257 $388 forward 7 unknown #
coedge $-1 $389 $258 $261 $335 reversed $332 $-1 #
coedge $-1 $258 $389 $386 $390 forward $332 $-1 #
loop $-1 $-1 $258 $391 #
vertex $-1 $329 $392 #
straight-curve $-1 -10 -15 7.5 0 0 -1 I I #
edge $-1 $393 -40 $262 -35 $261 $309 forward 7 unknown #
point $-1 -10 -15 20 #
vertex $-1 $265 $394 #
straight-curve $-1 -35 20 20 0 1 0 I I #
edge $-1 $337 -35 $308 -10 $268 $395 forward 7 unknown #
straight-curve $-1 -35 10 2.5 0 0 1 I I #
coedge $-1 $396 $270 $344 $397 reversed $144 $-1 #
edge $-1 $382 -17.5 $322 -7.5 $319 $398 forward 7 unknown #
straight-curve $-1 15 10 10 1 0 0 I I #
coedge $-1 $317 $274 $341 $397 forward $151 $-1 #
edge $-1 $293 0 $399 10 $274 $400 forward 7 unknown #
coedge $-1 $275 $316 $401 $402 forward $151 $-1 #
straight-curve $-1 0 20 20 -1 0 0 I I #
coedge $-1 $401 $281 $277 $349 reversed $354 $-1 #
edge $-1 $350 -20 $283 20 $277 $403 forward 7 unknown #
vertex $-1 $278 $404 #
straight-curve $-1 40 20 20 0 1 0 I I #
point $-1 40 20 20 #
coedge $-1 $281 $367 $285 $357 forward $354 $-1 #
loop $-1 $-1 $348 $371 #
straight-curve $-1 0 -20 -20 -1 0 0 I I #
point $-1 40 -20 -20 #
edge $-1 $369 -20 $287 20 $285 $405 forward 7 unknown #
point $-1 -40 -20 -20 #
coedge $-1 $292 $291 $396 $406 reversed $203 $-1 #
point $-1 10 20 20 #
coedge $-1 $306 $396 $295 $362 forward $144 $-1 #
edge $-1 $363 -10 $310 10 $361 $407 forward 7 unknown #
vertex $-1 $362 $408 #
straight-curve $-1 10 20 0 0 -1 0 I I #
face $-1 $391 $377 $2 $-1 $204 forward single #
plane-surface $-1 0 20 0 0 0 1 1 0 0 forward_v I I I I #
coedge $-1 $353 $409 $301 $368 reversed $354 $-1 #
edge $-1 $369 -40 $393 -10 $367 $410 forward 7 unknown #
vertex $-1 $302 $411 #
straight-curve $-1 -40 20 20 0 -1 0 I I #
face $-1 $-1 $354 $2 $-1 $412 reversed single #
straight-curve $-1 -10 10 5 0 0 1 I I #
point $-1 -10 10 20 #
point $-1 -10 10 0 #
coedge $-1 $413 $314 $387 $414 forward $377 $-1 #
coedge $-1 $314 $413 $316 $380 reversed $377 $-1 #
loop $-1 $-1 $314 $365 #
vertex $-1 $329 $415 #
straight-curve $-1 10 -15 7.5 0 0 1 I I #
edge $-1 $318 35 $416 40 $316 $400 forward 7 unknown #
point $-1 10 -15 20 #
vertex $-1 $320 $417 #
straight-curve $-1 35 20 20 0 -1 0 I I #
point $-1 35 10 10 #
loop $-1 $-1 $328 $326 #
coedge $-1 $418 $328 $331 $390 reversed $385 $-1 #
coedge $-1 $328 $418 $375 $414 reversed $385 $-1 #
straight-curve $-1 0 -15 0 1 0 0 I I #
coedge $-1 $331 $330 $409 $419 reversed $332 $-1 #
edge $-1 $420 -40 $333 -35 $331 $311 forward 7 unknown #
face $-1 $235 $332 $2 $-1 $312 forward single #
point $-1 -10 -15 0 #
vertex $-1 $368 $421 #
point $-1 -35 10 20 #
straight-curve $-1 0 10 20 1 0 0 I I #
coedge $-1 $361 $341 $359 $406 forward $144 $-1 #
edge $-1 $399 10 $382 35 $341 $395 forward 7 unknown #
straight-curve $-1 35 10 2.5 0 0 -1 I I #
vertex $-1 $406 $422 #
straight-curve $-1 10 20 20 0 -1 0 I I #
coedge $-1 $423 $348 $346 $402 reversed $354 $-1 #
edge $-1 $416 10 $350 40 $401 $410 forward 7 unknown #
straight-curve $-1 40 -20 0 0 0 -1 I I #
point $-1 40 -20 20 #
straight-curve $-1 -40 -20 0 0 0 -1 I I #
edge $-1 $399 -15 $363 5 $396 $424 forward 7 unknown #
straight-curve $-1 0 10 0 -1 0 0 I I #
point $-1 10 10 0 #
coedge $-1 $367 $425 $389 $419 forward $354 $-1 #
straight-curve $-1 0 -20 20 1 0 0 I I #
point $-1 -40 -20 20 #
plane-surface $-1 0 -20 0 0 1 0 0 0 1 forward_v I I I I #
coedge $-1 $376 $375 $423 $426 reversed $377 $-1 #
edge $-1 $378 35 $427 40 $375 $364 forward 7 unknown #
point $-1 10 -15 0 #
vertex $-1 $426 $428 #
point $-1 35 10 20 #
coedge $-1 $387 $386 $425 $429 reversed $385 $-1 #
edge $-1 $420 -5 $393 15 $409 $430 forward 7 unknown #
vertex $-1 $429 $431 #
point $-1 -10 -20 20 #
point $-1 10 10 20 #
coedge $-1 $425 $401 $413 $426 forward $354 $-1 #
straight-curve $-1 10 10 5 0 0 -1 I I #
coedge $-1 $409 $423 $418 $429 forward $354 $-1 #
edge $-1 $416 -15 $427 5 $423 $432 forward 7 unknown #
vertex $-1 $429 $433 #
point $-1 10 -20 20 #
edge $-1 $427 -10 $420 10 $425 $434 forward 7 unknown #
straight-curve $-1 -10 -20 5 0 0 1 I I #
point $-1 -10 -20 0 #
straight-curve $-1 10 -20 5 0 0 -1 I I #
point $-1 10 -20 0 #
straight-curve $-1 0 -20 0 -1 0 0 I I #
End-of-ACIS-data 