600 0 2 0           
24 FBMach with ACIS - 6.0.3 13 ACIS 6.0.3 NT 24 Wed May 23 20:25:31 2001 
1 9.9999999999999995e-007 1e-010 
body $2 $3 $-1 $4 #
bdycol-kcp $-1 1 4 $5 $6 $7 $8 #
model_id-kcp-attrib $-1 $-1 $-1 $0 1 990663930 60 -1640235007 1 #
lump $-1 $-1 $9 $0 #
transform $-1 1 0 0 0 1 0 0 0 1 0 0 0 1 no_rotate no_reflect no_shear #
body $10 $11 $-1 $12 #
body $13 $14 $-1 $15 #
body $16 $17 $-1 $18 #
body $19 $20 $-1 $21 #
shell $-1 $-1 $-1 $22 $-1 $3 #
model_id-kcp-attrib $-1 $-1 $-1 $5 1 990663930 60 -1640235006 1 #
lump $-1 $-1 $23 $5 #
transform $-1 1 0 0 0 1 0 0 0 1 0 0 0 1 no_rotate no_reflect no_shear #
rgb_color-st-attrib $-1 $24 $-1 $6 0 0 1 #
lump $-1 $-1 $25 $6 #
transform $-1 1 0 0 0 1 0 0 0 1 0 0 0 1 no_rotate no_reflect no_shear #
rgb_color-st-attrib $-1 $26 $-1 $7 0.59999999999999998 0.90000000000000002 1 #
lump $-1 $-1 $27 $7 #
transform $-1 1 0 0 0 1 0 0 0 1 0 0 0 1 no_rotate no_reflect no_shear #
rgb_color-st-attrib $-1 $28 $-1 $8 0.59999999999999998 0.90000000000000002 1 #
lump $-1 $-1 $29 $8 #
transform $-1 1 0 0 0 1 0 0 0 1 0 0 0 1 no_rotate no_reflect no_shear #
face $30 $31 $32 $9 $-1 $33 forward single #
shell $-1 $-1 $-1 $34 $-1 $11 #
model_id-kcp-attrib $-1 $-1 $13 $6 1 990663930 400 -1634729981 1 #
shell $-1 $-1 $-1 $35 $-1 $14 #
model_id-kcp-attrib $-1 $-1 $16 $7 1 990663930 690 -1632501756 1 #
shell $-1 $-1 $-1 $36 $-1 $17 #
model_id-kcp-attrib $-1 $-1 $19 $8 1 990663930 1121 -1637810171 1 #
shell $-1 $-1 $-1 $37 $-1 $20 #
model_id-kcp-attrib $-1 $-1 $-1 $22 1 990663930 60 -1640235007 2 #
face $38 $39 $40 $9 $-1 $41 reversed single #
loop $-1 $-1 $42 $22 #
plane-surface $-1 -20 -15 0 0 0 1 1 0 0 forward_v I I I I #
face $43 $44 $45 $23 $-1 $46 forward single #
face $-1 $47 $48 $25 $-1 $49 forward single #
face $-1 $50 $51 $27 $-1 $52 forward single #
face $-1 $53 $54 $29 $-1 $55 forward single #
model_id-kcp-attrib $-1 $-1 $-1 $31 1 990663930 60 -1640235007 3 #
face $56 $57 $58 $9 $-1 $59 reversed single #
loop $-1 $-1 $60 $31 #
plane-surface $-1 -15 -15 -5 -1 0 0 0 0 1 forward_v I I I I #
coedge $-1 $61 $62 $63 $64 reversed $32 $-1 #
model_id-kcp-attrib $-1 $65 $-1 $34 1 990663930 60 -1640235006 7 #
face $66 $67 $68 $23 $-1 $69 reversed single #
loop $-1 $-1 $70 $34 #
plane-surface $-1 0 0 20 0 0 1 1 0 0 forward_v I I I I #
face $-1 $71 $72 $25 $-1 $73 forward single #
loop $-1 $-1 $74 $35 #
plane-surface $-1 20 -15 -10 0 -1 0 0 0 -1 forward_v I I I I #
face $-1 $75 $76 $27 $-1 $77 forward single #
loop $-1 $-1 $78 $36 #
plane-surface $-1 10 -20 10 0 -1 0 0 0 -1 forward_v I I I I #
face $-1 $79 $80 $29 $-1 $81 forward single #
loop $-1 $-1 $82 $37 #
plane-surface $-1 -10 -15 0 0 -1 0 0 0 -1 forward_v I I I I #
model_id-kcp-attrib $-1 $-1 $-1 $39 1 990663930 60 -1640235007 4 #
face $83 $84 $85 $9 $-1 $86 reversed single #
loop $-1 $-1 $87 $39 #
plane-surface $-1 -20 -10 -5 0 -1 0 0 0 -1 forward_v I I I I #
coedge $-1 $88 $89 $90 $91 reversed $40 $-1 #
coedge $-1 $92 $42 $93 $94 reversed $32 $-1 #
coedge $-1 $42 $92 $95 $96 forward $32 $-1 #
coedge $-1 $97 $98 $42 $64 forward $85 $-1 #
edge $-1 $99 -17.5 $100 -12.5 $63 $101 forward 7 unknown #
model_id-kcp-attrib $-1 $-1 $43 $34 1 990663930 60 -1640235006 5 #
model_id-kcp-attrib $-1 $-1 $-1 $44 1 990663930 60 -1640235006 3 #
face $102 $103 $104 $23 $-1 $105 reversed single #
loop $-1 $-1 $106 $44 #
plane-surface $-1 0 0 -20 0 0 1 1 0 0 forward_v I I I I #
coedge $-1 $107 $108 $109 $110 forward $45 $-1 #
face $-1 $111 $112 $25 $-1 $113 forward single #
loop $-1 $-1 $114 $47 #
plane-surface $-1 -15 -15 -10 -1 0 0 0 0 1 forward_v I I I I #
coedge $-1 $115 $116 $117 $118 forward $48 $-1 #
face $-1 $119 $120 $27 $-1 $121 forward single #
loop $-1 $-1 $122 $50 #
plane-surface $-1 -10 -20 10 -1 0 0 0 0 1 forward_v I I I I #
coedge $-1 $123 $124 $125 $126 forward $51 $-1 #
face $-1 $127 $128 $29 $-1 $129 forward single #
loop $-1 $-1 $130 $53 #
plane-surface $-1 -20 -15 0 -1 0 0 0 0 1 forward_v I I I I #
coedge $-1 $131 $132 $133 $134 forward $54 $-1 #
model_id-kcp-attrib $-1 $-1 $-1 $57 1 990663930 60 -1640235007 5 #
face $135 $136 $137 $9 $-1 $138 forward single #
loop $-1 $-1 $63 $57 #
plane-surface $-1 -20 20 0 -1 0 0 0 0 1 forward_v I I I I #
coedge $-1 $95 $139 $97 $140 reversed $58 $-1 #
coedge $-1 $141 $60 $142 $143 reversed $40 $-1 #
coedge $-1 $60 $141 $92 $144 reversed $40 $-1 #
coedge $-1 $93 $145 $60 $91 forward $146 $-1 #
edge $-1 $147 -10 $148 0 $90 $149 forward 7 unknown #
coedge $-1 $62 $61 $89 $144 forward $32 $-1 #
coedge $-1 $150 $90 $61 $94 forward $146 $-1 #
edge $-1 $148 5 $99 10 $93 $151 forward 7 unknown #
coedge $-1 $152 $87 $62 $96 reversed $58 $-1 #
edge $-1 $153 -5 $100 0 $95 $154 forward 7 unknown #
coedge $-1 $155 $63 $87 $140 forward $85 $-1 #
coedge $-1 $63 $156 $150 $157 reversed $85 $-1 #
vertex $-1 $94 $158 #
vertex $-1 $64 $159 #
straight-curve $-1 -20 2.5 0 0 1 0 I I #
model_id-kcp-attrib $-1 $-1 $-1 $67 1 990663930 60 -1640235006 8 #
face $160 $161 $162 $23 $-1 $163 reversed single #
loop $-1 $-1 $164 $67 #
plane-surface $-1 0 -20 0 0 1 0 0 0 1 forward_v I I I I #
coedge $-1 $165 $166 $167 $168 forward $68 $-1 #
coedge $-1 $169 $70 $170 $171 forward $45 $-1 #
coedge $-1 $70 $169 $172 $173 forward $45 $-1 #
coedge $-1 $174 $175 $70 $110 reversed $176 $-1 #
edge $-1 $177 -20 $178 20 $109 $179 forward 7 unknown #
face $-1 $180 $181 $25 $-1 $182 forward single #
loop $-1 $-1 $183 $71 #
plane-surface $-1 -15 -10 -10 0 -1 0 0 0 -1 forward_v I I I I #
coedge $-1 $184 $185 $186 $187 forward $72 $-1 #
coedge $-1 $188 $74 $185 $189 reversed $48 $-1 #
coedge $-1 $74 $188 $190 $191 forward $48 $-1 #
coedge $-1 $192 $186 $74 $118 reversed $193 $-1 #
edge $-1 $194 -20 $195 15 $74 $196 forward 7 unknown #
face $-1 $197 $198 $27 $-1 $199 forward single #
loop $-1 $-1 $200 $75 #
plane-surface $-1 -10 -15 10 0 -1 0 0 0 -1 forward_v I I I I #
coedge $-1 $201 $202 $203 $204 forward $76 $-1 #
coedge $-1 $205 $78 $202 $206 reversed $51 $-1 #
coedge $-1 $78 $205 $207 $208 forward $51 $-1 #
coedge $-1 $209 $203 $78 $126 reversed $210 $-1 #
edge $-1 $211 -23.75 $212 -3.75 $78 $213 forward 7 unknown #
face $-1 $214 $215 $29 $-1 $216 forward single #
loop $-1 $-1 $217 $79 #
plane-surface $-1 -20 10 0 0 1 0 0 0 1 forward_v I I I I #
coedge $-1 $218 $219 $220 $221 forward $80 $-1 #
coedge $-1 $222 $82 $219 $223 reversed $54 $-1 #
coedge $-1 $82 $222 $224 $225 forward $54 $-1 #
coedge $-1 $226 $220 $82 $134 reversed $227 $-1 #
edge $-1 $228 10 $229 20 $82 $230 forward 7 unknown #
model_id-kcp-attrib $-1 $-1 $-1 $84 1 990663930 60 -1640235007 6 #
face $231 $232 $233 $9 $-1 $234 forward single #
loop $-1 $-1 $235 $84 #
plane-surface $-1 0 20 -10 0 0 1 1 0 0 forward_v I I I I #
coedge $-1 $87 $152 $235 $236 reversed $58 $-1 #
edge $-1 $100 -2.5 $237 7.5 $97 $238 forward 7 unknown #
coedge $-1 $89 $88 $152 $239 reversed $40 $-1 #
coedge $-1 $240 $235 $88 $143 forward $137 $-1 #
edge $-1 $241 12.5 $147 17.5 $142 $242 forward 7 unknown #
edge $-1 $148 0 $153 5 $89 $243 forward 7 unknown #
coedge $-1 $90 $244 $240 $245 forward $146 $-1 #
loop $-1 $-1 $93 $246 #
vertex $-1 $245 $247 #
vertex $-1 $94 $248 #
straight-curve $-1 -15 -15 0 0 0 1 I I #
coedge $-1 $249 $93 $98 $157 forward $146 $-1 #
straight-curve $-1 -10 -15 0 -1 0 0 I I #
coedge $-1 $139 $95 $141 $239 forward $58 $-1 #
vertex $-1 $144 $250 #
straight-curve $-1 -20 -10 0 -1 0 0 I I #
coedge $-1 $251 $97 $252 $253 reversed $85 $-1 #
coedge $-1 $98 $251 $254 $255 reversed $85 $-1 #
edge $-1 $99 -2.5 $256 7.5 $150 $257 forward 7 unknown #
point $-1 -20 -15 0 #
point $-1 -20 -10 0 #
model_id-kcp-attrib $-1 $-1 $-1 $103 1 990663930 60 -1640235006 6 #
face $258 $259 $260 $23 $-1 $261 reversed single #
loop $-1 $-1 $262 $103 #
plane-surface $-1 -40 0 0 1 0 0 0 0 -1 forward_v I I I I #
coedge $-1 $263 $172 $264 $265 forward $104 $-1 #
coedge $-1 $266 $106 $263 $267 forward $68 $-1 #
coedge $-1 $106 $266 $268 $269 forward $68 $-1 #
coedge $-1 $175 $174 $106 $168 reversed $176 $-1 #
edge $-1 $270 -20 $271 20 $167 $272 forward 7 unknown #
coedge $-1 $108 $107 $273 $274 forward $45 $-1 #
coedge $-1 $275 $276 $107 $171 reversed $260 $-1 #
edge $-1 $178 -40 $277 40 $170 $278 forward 7 unknown #
coedge $-1 $164 $279 $108 $173 reversed $104 $-1 #
edge $-1 $280 -40 $177 40 $172 $281 forward 7 unknown #
coedge $-1 $167 $109 $279 $282 forward $176 $-1 #
coedge $-1 $109 $167 $275 $283 reversed $176 $-1 #
loop $-1 $-1 $174 $259 #
vertex $-1 $110 $284 #
vertex $-1 $110 $285 #
straight-curve $-1 40 0 20 0 1 0 I I #
face $-1 $286 $287 $25 $-1 $288 forward single #
loop $-1 $-1 $289 $111 #
plane-surface $-1 -20 -10 -10 -1 0 0 0 0 1 forward_v I I I I #
coedge $-1 $290 $291 $292 $293 forward $112 $-1 #
coedge $-1 $294 $114 $291 $295 reversed $72 $-1 #
coedge $-1 $114 $294 $115 $189 forward $72 $-1 #
coedge $-1 $117 $292 $114 $187 reversed $193 $-1 #
edge $-1 $195 -6.25 $296 -1.25 $114 $297 forward 7 unknown #
coedge $-1 $116 $115 $298 $299 reversed $48 $-1 #
edge $300 $301 0 $195 10 $185 $302 forward 7 unknown #
coedge $-1 $303 $304 $116 $191 reversed $305 $-1 #
edge $-1 $306 0 $194 10 $116 $307 forward 7 unknown #
coedge $-1 $308 $117 $304 $309 reversed $193 $-1 #
loop $-1 $-1 $117 $310 #
vertex $-1 $191 $311 #
vertex $-1 $189 $312 #
straight-curve $-1 0 -15 0 -1 0 0 I I #
face $-1 $313 $314 $27 $-1 $315 forward single #
loop $-1 $-1 $316 $119 #
plane-surface $-1 -35 -15 10 -1 0 0 0 0 1 forward_v I I I I #
coedge $-1 $317 $318 $319 $320 forward $120 $-1 #
coedge $-1 $321 $122 $318 $322 reversed $76 $-1 #
coedge $-1 $122 $321 $123 $206 forward $76 $-1 #
coedge $-1 $125 $319 $122 $204 reversed $210 $-1 #
edge $-1 $212 -28.75 $323 -23.75 $122 $324 forward 7 unknown #
coedge $-1 $124 $123 $325 $326 reversed $51 $-1 #
edge $-1 $327 0 $212 10 $202 $328 forward 7 unknown #
coedge $-1 $329 $330 $124 $208 reversed $331 $-1 #
edge $-1 $332 0 $211 10 $124 $333 forward 7 unknown #
coedge $-1 $334 $125 $330 $335 reversed $210 $-1 #
loop $-1 $-1 $125 $336 #
vertex $-1 $208 $337 #
vertex $-1 $206 $338 #
straight-curve $-1 -13.75 -20 20 -1 0 0 I I #
face $-1 $339 $340 $29 $-1 $341 forward single #
loop $-1 $-1 $342 $127 #
plane-surface $-1 -10 10 0 -1 0 0 0 0 1 forward_v I I I I #
coedge $-1 $343 $344 $345 $346 forward $128 $-1 #
coedge $-1 $347 $130 $344 $348 reversed $80 $-1 #
coedge $-1 $130 $347 $131 $223 forward $80 $-1 #
coedge $-1 $133 $345 $130 $221 reversed $227 $-1 #
edge $-1 $229 -25 $349 0 $130 $350 forward 7 unknown #
coedge $-1 $132 $131 $351 $352 reversed $54 $-1 #
edge $353 $354 0 $229 10 $219 $355 forward 7 unknown #
coedge $-1 $356 $357 $132 $225 reversed $358 $-1 #
edge $-1 $359 0 $228 10 $132 $360 forward 7 unknown #
coedge $-1 $361 $133 $357 $362 reversed $227 $-1 #
loop $-1 $-1 $133 $363 #
vertex $-1 $225 $364 #
vertex $-1 $223 $365 #
straight-curve $-1 0 -15 10 -1 0 0 I I #
model_id-kcp-attrib $-1 $-1 $-1 $136 1 990663930 60 -1640235007 7 #
face $366 $367 $368 $9 $-1 $369 reversed single #
loop $-1 $-1 $370 $136 #
plane-surface $-1 0 20 0 0 1 0 0 0 1 forward_v I I I I #
coedge $-1 $142 $252 $139 $236 forward $137 $-1 #
edge $-1 $237 -10 $241 -5 $235 $371 forward 7 unknown #
vertex $-1 $253 $372 #
straight-curve $-1 -20 -10 -2.5 0 0 -1 I I #
edge $-1 $153 -5 $241 5 $141 $373 forward 7 unknown #
coedge $-1 $374 $142 $145 $245 reversed $137 $-1 #
vertex $-1 $236 $375 #
straight-curve $-1 -15 2.5 -10 0 -1 0 I I #
straight-curve $-1 -15 -15 0 0 1 0 I I #
coedge $-1 $145 $376 $377 $378 forward $146 $-1 #
edge $-1 $379 -20 $147 15 $145 $380 forward 7 unknown #
face $381 $382 $146 $9 $-1 $383 forward single #
point $-1 -15 -15 -10 #
point $-1 -15 -15 0 #
coedge $-1 $384 $150 $385 $386 forward $146 $-1 #
point $-1 -15 -10 0 #
coedge $-1 $156 $155 $387 $388 reversed $85 $-1 #
coedge $-1 $235 $389 $155 $253 forward $137 $-1 #
edge $-1 $390 10 $237 30 $252 $391 forward 7 unknown #
coedge $-1 $392 $385 $156 $255 forward $393 $-1 #
edge $-1 $256 -35 $394 -10 $156 $395 forward 7 unknown #
vertex $-1 $386 $396 #
straight-curve $-1 -20 -15 2.5 0 0 1 I I #
model_id-kcp-attrib $-1 $-1 $-1 $161 1 990663930 60 -1640235006 2 #
face $397 $-1 $176 $23 $-1 $398 reversed single #
loop $-1 $-1 $275 $161 #
plane-surface $-1 0 20 0 0 -1 0 0 0 -1 forward_v I I I I #
coedge $-1 $399 $273 $276 $400 forward $162 $-1 #
coedge $-1 $279 $164 $165 $267 reversed $104 $-1 #
coedge $-1 $273 $399 $164 $265 reversed $162 $-1 #
edge $-1 $280 -20 $401 20 $264 $402 forward 7 unknown #
coedge $-1 $166 $165 $399 $403 forward $68 $-1 #
edge $-1 $271 -40 $401 40 $263 $404 forward 7 unknown #
coedge $-1 $276 $275 $166 $269 reversed $260 $-1 #
edge $-1 $405 -40 $270 40 $268 $406 forward 7 unknown #
vertex $-1 $168 $407 #
vertex $-1 $282 $408 #
straight-curve $-1 40 0 -20 0 -1 0 I I #
coedge $-1 $262 $264 $169 $274 reversed $162 $-1 #
edge $-1 $277 -20 $280 20 $273 $409 forward 7 unknown #
coedge $-1 $268 $170 $175 $283 forward $260 $-1 #
coedge $-1 $170 $268 $262 $400 reversed $260 $-1 #
vertex $-1 $171 $410 #
straight-curve $-1 0 20 20 -1 0 0 I I #
coedge $-1 $172 $263 $174 $282 reversed $104 $-1 #
vertex $-1 $274 $411 #
straight-curve $-1 0 -20 20 1 0 0 I I #
edge $-1 $177 -20 $271 20 $174 $412 forward 7 unknown #
edge $-1 $178 -20 $270 20 $175 $413 forward 7 unknown #
point $-1 40 -20 20 #
point $-1 40 20 20 #
face $-1 $310 $305 $25 $-1 $414 forward single #
loop $-1 $-1 $415 $180 #
plane-surface $-1 -20 10 -10 0 1 0 0 0 1 forward_v I I I I #
coedge $-1 $416 $417 $418 $419 forward $181 $-1 #
coedge $-1 $420 $183 $417 $421 reversed $112 $-1 #
coedge $-1 $183 $420 $184 $295 forward $112 $-1 #
coedge $-1 $186 $418 $183 $293 reversed $193 $-1 #
edge $-1 $296 5 $422 10 $183 $423 forward 7 unknown #
coedge $-1 $185 $184 $424 $425 reversed $72 $-1 #
edge $-1 $426 0 $296 10 $291 $427 forward 7 unknown #
vertex $-1 $295 $428 #
straight-curve $-1 -15 -8.75 0 0 1 0 I I #
coedge $-1 $424 $429 $188 $299 forward $430 $-1 #
edge $431 $306 -20 $301 15 $188 $432 forward 7 unknown #
convexity-sys-attrib $-1 $-1 $-1 $189 #
vertex $-1 $299 $433 #
straight-curve $-1 -15 -15 -10 0 0 1 I I #
coedge $-1 $434 $190 $429 $435 reversed $305 $-1 #
coedge $-1 $190 $434 $192 $309 forward $305 $-1 #
loop $-1 $-1 $304 $286 #
vertex $-1 $435 $436 #
straight-curve $-1 20 -15 -10 0 0 1 I I #
coedge $-1 $418 $192 $415 $437 reversed $193 $-1 #
edge $-1 $438 -1.25 $194 23.75 $304 $439 forward 7 unknown #
face $-1 $440 $193 $25 $-1 $441 forward single #
point $-1 20 -15 0 #
point $-1 -15 -15 0 #
face $-1 $442 $443 $27 $-1 $444 forward single #
loop $-1 $-1 $445 $197 #
plane-surface $-1 -35 10 10 0 1 0 0 0 1 forward_v I I I I #
coedge $-1 $446 $447 $448 $449 forward $198 $-1 #
coedge $-1 $450 $200 $447 $451 reversed $120 $-1 #
coedge $-1 $200 $450 $201 $322 forward $120 $-1 #
coedge $-1 $203 $448 $200 $320 reversed $210 $-1 #
edge $-1 $323 -3.75 $452 21.25 $200 $453 forward 7 unknown #
coedge $-1 $202 $201 $454 $455 reversed $76 $-1 #
edge $456 $457 0 $323 10 $318 $458 forward 7 unknown #
vertex $-1 $322 $459 #
straight-curve $-1 -10 8.75 20 0 1 0 I I #
coedge $-1 $454 $460 $205 $326 forward $461 $-1 #
edge $462 $332 -23.75 $327 -3.75 $205 $463 forward 7 unknown #
vertex $-1 $326 $464 #
straight-curve $-1 -10 -20 10 0 0 1 I I #
coedge $-1 $465 $207 $460 $466 reversed $331 $-1 #
coedge $-1 $207 $465 $209 $335 forward $331 $-1 #
loop $-1 $-1 $330 $467 #
vertex $-1 $466 $468 #
straight-curve $-1 10 -20 10 0 0 1 I I #
coedge $-1 $469 $209 $470 $471 reversed $210 $-1 #
edge $-1 $472 23.75 $211 28.75 $330 $473 forward 7 unknown #
face $-1 $474 $210 $27 $-1 $475 forward single #
point $-1 10 -20 20 #
point $-1 -10 -20 20 #
face $-1 $476 $477 $29 $-1 $478 forward single #
loop $-1 $-1 $479 $214 #
plane-surface $-1 -10 20 0 0 1 0 0 0 1 forward_v I I I I #
coedge $-1 $480 $481 $482 $483 forward $215 $-1 #
coedge $-1 $484 $217 $481 $485 reversed $128 $-1 #
coedge $-1 $217 $484 $218 $348 forward $128 $-1 #
coedge $-1 $220 $482 $217 $346 reversed $227 $-1 #
edge $-1 $349 -20 $486 -10 $217 $487 forward 7 unknown #
coedge $-1 $219 $218 $488 $489 reversed $80 $-1 #
edge $-1 $490 0 $349 10 $344 $491 forward 7 unknown #
vertex $-1 $348 $492 #
straight-curve $-1 -20 10 10 0 1 0 I I #
coedge $-1 $488 $493 $222 $352 forward $494 $-1 #
edge $495 $359 10 $354 20 $222 $496 forward 7 unknown #
convexity-sys-attrib $-1 $-1 $-1 $223 #
vertex $-1 $352 $497 #
straight-curve $-1 -20 -15 0 0 0 1 I I #
coedge $-1 $498 $224 $493 $499 reversed $358 $-1 #
coedge $-1 $224 $498 $226 $362 forward $358 $-1 #
loop $-1 $-1 $357 $500 #
vertex $-1 $499 $501 #
straight-curve $-1 -10 -15 0 0 0 1 I I #
coedge $-1 $502 $226 $503 $504 reversed $227 $-1 #
edge $-1 $505 -30 $228 -25 $357 $506 forward 7 unknown #
face $-1 $507 $227 $29 $-1 $508 forward single #
point $-1 -10 -15 10 #
point $-1 -20 -15 10 #
model_id-kcp-attrib $-1 $-1 $-1 $232 1 990663930 60 -1640235007 8 #
face $509 $510 $511 $9 $-1 $512 reversed single #
loop $-1 $-1 $513 $232 #
plane-surface $-1 0 20 -20 0 0 1 1 0 0 forward_v I I I I #
coedge $-1 $514 $515 $516 $517 reversed $233 $-1 #
straight-curve $-1 -10 -10 -10 1 0 0 I I #
point $-1 -20 -10 -10 #
straight-curve $-1 -15 -10 -5 0 0 -1 I I #
coedge $-1 $389 $240 $518 $519 forward $137 $-1 #
point $-1 -15 -10 -10 #
coedge $-1 $244 $520 $521 $522 forward $146 $-1 #
coedge $-1 $523 $518 $244 $378 reversed $524 $-1 #
edge $-1 $525 -7.5 $379 12.5 $244 $526 forward 7 unknown #
vertex $-1 $519 $527 #
straight-curve $-1 0 -15 -10 -1 0 0 I I #
model_id-kcp-attrib $-1 $-1 $-1 $246 1 990663930 60 -1640235007 15 #
face $528 $529 $393 $9 $-1 $530 forward single #
plane-surface $-1 0 -15 5 0 1 0 0 0 1 forward_v I I I I #
coedge $-1 $531 $249 $532 $533 reversed $146 $-1 #
coedge $-1 $254 $534 $249 $386 reversed $393 $-1 #
edge $-1 $256 5 $535 20 $249 $536 forward 7 unknown #
coedge $-1 $537 $538 $251 $388 forward $539 $-1 #
edge $-1 $394 -10 $390 10 $387 $540 forward 7 unknown #
coedge $-1 $252 $374 $537 $541 forward $137 $-1 #
vertex $-1 $541 $542 #
straight-curve $-1 -20 20 -10 0 -1 0 I I #
coedge $-1 $534 $254 $538 $543 reversed $393 $-1 #
loop $-1 $-1 $385 $382 #
vertex $-1 $543 $544 #
straight-curve $-1 -20 20 10 0 1 0 I I #
point $-1 -20 -15 10 #
model_id-kcp-attrib $-1 $-1 $-1 $259 1 990663930 60 -1640235006 4 #
plane-surface $-1 40 0 0 -1 0 0 0 0 1 forward_v I I I I #
coedge $-1 $264 $262 $266 $403 reversed $162 $-1 #
edge $-1 $277 -20 $405 20 $276 $545 forward 7 unknown #
vertex $-1 $403 $546 #
straight-curve $-1 -40 -20 0 0 0 -1 I I #
edge $-1 $401 -20 $405 20 $399 $547 forward 7 unknown #
straight-curve $-1 0 -20 -20 -1 0 0 I I #
vertex $-1 $269 $548 #
straight-curve $-1 0 20 -20 1 0 0 I I #
point $-1 40 20 -20 #
point $-1 40 -20 -20 #
straight-curve $-1 -40 0 20 0 -1 0 I I #
point $-1 -40 20 20 #
point $-1 -40 -20 20 #
straight-curve $-1 40 -20 0 0 0 -1 I I #
straight-curve $-1 40 20 0 0 0 -1 I I #
plane-surface $-1 20 10 -10 1 0 0 0 0 -1 forward_v I I I I #
coedge $-1 $549 $550 $308 $437 forward $287 $-1 #
coedge $-1 $551 $289 $550 $552 reversed $181 $-1 #
coedge $-1 $289 $551 $290 $421 forward $181 $-1 #
coedge $-1 $292 $308 $289 $419 reversed $193 $-1 #
edge $-1 $422 -18.75 $553 1.25 $289 $554 forward 7 unknown #
coedge $-1 $291 $290 $555 $556 reversed $112 $-1 #
edge $-1 $557 0 $422 10 $417 $558 forward 7 unknown #
vertex $-1 $421 $559 #
straight-curve $-1 -10 -10 0 -1 0 0 I I #
coedge $-1 $555 $298 $294 $425 forward $430 $-1 #
edge $560 $301 -6.25 $426 -1.25 $294 $561 forward 7 unknown #
vertex $-1 $425 $562 #
straight-curve $-1 -15 -10 -10 0 0 1 I I #
point $-1 -15 -10 0 #
coedge $-1 $298 $563 $303 $435 forward $430 $-1 #
loop $-1 $-1 $429 $440 #
convexity-sys-attrib $-1 $-1 $-1 $299 #
straight-curve $-1 0 -15 -10 -1 0 0 I I #
point $-1 -15 -15 -10 #
coedge $-1 $304 $303 $549 $564 forward $305 $-1 #
edge $565 $566 -1.25 $306 23.75 $303 $567 forward 7 unknown #
point $-1 20 -15 -10 #
edge $-1 $553 -20 $438 20 $415 $568 forward 7 unknown #
vertex $-1 $564 $569 #
straight-curve $-1 20 8.75 0 0 -1 0 I I #
face $-1 $-1 $430 $25 $-1 $570 reversed single #
plane-surface $-1 0.19230769230769207 -2.3076923076923075 0 0 0 1 1 0 0 forward_v I I I I #
face $-1 $571 $572 $27 $-1 $573 forward single #
loop $-1 $-1 $574 $313 #
plane-surface $-1 -10 10 10 -1 0 0 0 0 1 forward_v I I I I #
coedge $-1 $575 $576 $577 $578 forward $314 $-1 #
coedge $-1 $579 $316 $576 $580 reversed $198 $-1 #
coedge $-1 $316 $579 $317 $451 forward $198 $-1 #
coedge $-1 $319 $577 $316 $449 reversed $210 $-1 #
edge $-1 $452 -23.75 $581 1.25 $316 $582 forward 7 unknown #
coedge $-1 $318 $317 $583 $584 reversed $120 $-1 #
edge $-1 $585 0 $452 10 $447 $586 forward 7 unknown #
vertex $-1 $451 $587 #
straight-curve $-1 -13.75 -15 20 -1 0 0 I I #
coedge $-1 $583 $325 $321 $455 forward $461 $-1 #
edge $588 $327 -28.75 $457 -23.75 $321 $589 forward 7 unknown #
convexity-sys-attrib $-1 $-1 $-1 $322 #
vertex $-1 $455 $590 #
straight-curve $-1 -10 -15 10 0 0 1 I I #
point $-1 -10 -15 20 #
coedge $-1 $325 $591 $329 $466 forward $461 $-1 #
loop $-1 $-1 $460 $474 #
convexity-sys-attrib $-1 $-1 $-1 $326 #
straight-curve $-1 -13.75 -20 10 -1 0 0 I I #
point $-1 -10 -20 10 #
coedge $-1 $330 $329 $592 $593 forward $331 $-1 #
edge $594 $595 23.75 $332 28.75 $329 $596 forward 7 unknown #
face $-1 $336 $331 $27 $-1 $597 forward single #
point $-1 10 -20 10 #
coedge $-1 $598 $334 $599 $600 reversed $210 $-1 #
coedge $-1 $592 $601 $334 $471 forward $602 $-1 #
edge $-1 $603 -48.75 $472 -23.75 $470 $604 forward 7 unknown #
vertex $-1 $593 $605 #
straight-curve $-1 10 8.75 20 0 -1 0 I I #
face $-1 $-1 $461 $27 $-1 $606 reversed single #
plane-surface $-1 6.6613381477509392e-016 -1.1363636363636369 20 0 0 1 1 0 0 forward_v I I I I #
face $-1 $607 $608 $29 $-1 $609 forward single #
loop $-1 $-1 $610 $339 #
plane-surface $-1 10 20 0 1 0 0 0 0 -1 forward_v I I I I #
coedge $-1 $611 $612 $613 $614 forward $340 $-1 #
coedge $-1 $615 $342 $612 $616 reversed $215 $-1 #
coedge $-1 $342 $615 $343 $485 forward $215 $-1 #
coedge $-1 $345 $613 $342 $483 reversed $227 $-1 #
edge $-1 $486 0 $617 10 $342 $618 forward 7 unknown #
coedge $-1 $344 $343 $619 $620 reversed $128 $-1 #
edge $-1 $621 0 $486 10 $481 $622 forward 7 unknown #
vertex $-1 $485 $623 #
straight-curve $-1 0 10 10 1 0 0 I I #
coedge $-1 $619 $351 $347 $489 forward $494 $-1 #
edge $624 $354 -25 $490 0 $347 $625 forward 7 unknown #
vertex $-1 $489 $626 #
straight-curve $-1 -20 10 0 0 0 1 I I #
point $-1 -20 10 10 #
coedge $-1 $351 $627 $356 $499 forward $494 $-1 #
loop $-1 $-1 $493 $507 #
convexity-sys-attrib $-1 $-1 $-1 $352 #
straight-curve $-1 0 -15 0 -1 0 0 I I #
point $-1 -20 -15 0 #
coedge $-1 $357 $356 $628 $629 forward $358 $-1 #
edge $630 $631 -30 $359 -25 $356 $632 forward 7 unknown #
face $-1 $363 $358 $29 $-1 $633 forward single #
point $-1 -10 -15 0 #
coedge $-1 $634 $361 $635 $636 reversed $227 $-1 #
coedge $-1 $628 $637 $361 $504 forward $638 $-1 #
edge $-1 $639 -10 $505 10 $503 $640 forward 7 unknown #
vertex $-1 $629 $641 #
straight-curve $-1 -10 10 10 0 1 0 I I #
face $-1 $-1 $494 $29 $-1 $642 reversed single #
plane-surface $-1 0 -0.625 10 0 0 1 1 0 0 forward_v I I I I #
model_id-kcp-attrib $-1 $-1 $-1 $367 1 990663930 60 -1640235007 9 #
face $643 $644 $645 $9 $-1 $646 forward single #
loop $-1 $-1 $647 $367 #
plane-surface $-1 40 20 0 -1 0 0 0 0 1 forward_v I I I I #
coedge $-1 $648 $649 $650 $651 forward $368 $-1 #
coedge $-1 $652 $370 $653 $654 reversed $233 $-1 #
coedge $-1 $370 $655 $656 $657 reversed $233 $-1 #
coedge $-1 $658 $659 $370 $517 forward $660 $-1 #
edge $661 $662 -5 $663 15 $516 $664 forward 7 unknown #
coedge $-1 $377 $665 $374 $519 reversed $524 $-1 #
edge $-1 $379 -35 $666 -10 $374 $667 forward 7 unknown #
coedge $-1 $376 $668 $669 $670 forward $146 $-1 #
coedge $-1 $671 $672 $376 $522 reversed $673 $-1 #
edge $-1 $674 -20 $525 -5 $376 $675 forward 7 unknown #
coedge $-1 $665 $377 $672 $676 reversed $524 $-1 #
loop $-1 $-1 $665 $677 #
vertex $-1 $522 $678 #
straight-curve $-1 20 -15 2.5 0 0 -1 I I #
point $-1 20 -15 -10 #
model_id-kcp-attrib $-1 $-1 $-1 $382 1 990663930 60 -1640235007 16 #
face $679 $680 $681 $9 $-1 $682 forward single #
plane-surface $-1 -30 20 10 0 0 1 1 0 0 forward_v I I I I #
coedge $-1 $683 $384 $684 $685 reversed $146 $-1 #
coedge $-1 $686 $687 $384 $533 forward $681 $-1 #
edge $-1 $688 -15 $535 -5 $532 $689 forward 7 unknown #
coedge $-1 $385 $392 $686 $690 reversed $393 $-1 #
vertex $-1 $533 $691 #
straight-curve $-1 -15 -15 10 -1 0 0 I I #
coedge $-1 $692 $387 $389 $541 reversed $539 $-1 #
coedge $-1 $387 $693 $392 $543 forward $539 $-1 #
loop $-1 $-1 $694 $680 #
straight-curve $-1 -20 10 0 0 0 -1 I I #
edge $-1 $666 -20 $390 20 $389 $695 forward 7 unknown #
point $-1 -20 10 -10 #
edge $-1 $696 -20 $394 -5 $538 $697 forward 7 unknown #
point $-1 -20 10 10 #
straight-curve $-1 -40 20 0 0 0 -1 I I #
point $-1 -40 -20 -20 #
straight-curve $-1 -40 0 -20 0 1 0 I I #
point $-1 -40 20 -20 #
coedge $-1 $698 $415 $434 $564 reversed $287 $-1 #
coedge $-1 $415 $698 $416 $552 forward $287 $-1 #
coedge $-1 $417 $416 $699 $700 reversed $181 $-1 #
edge $-1 $701 0 $553 10 $550 $702 forward 7 unknown #
vertex $-1 $552 $703 #
straight-curve $-1 -20 8.75 0 0 1 0 I I #
coedge $-1 $699 $424 $420 $556 forward $430 $-1 #
edge $704 $426 5 $557 10 $420 $705 forward 7 unknown #
vertex $-1 $556 $706 #
straight-curve $-1 -20 -10 -10 0 0 1 I I #
point $-1 -20 -10 0 #
convexity-sys-attrib $-1 $-1 $-1 $425 #
straight-curve $-1 -15 -8.75 -10 0 1 0 I I #
point $-1 -15 -10 -10 #
coedge $-1 $429 $699 $698 $707 forward $430 $-1 #
edge $-1 $566 0 $438 10 $434 $708 forward 7 unknown #
convexity-sys-attrib $-1 $-1 $-1 $435 #
vertex $-1 $435 $709 #
straight-curve $-1 20 8.75 -10 0 -1 0 I I #
straight-curve $-1 0 10 0 1 0 0 I I #
point $-1 20 10 0 #
plane-surface $-1 0.19230769230769207 -2.3076923076923075 -10 0 0 1 1 0 0 forward_v I I I I #
face $-1 $710 $711 $27 $-1 $712 forward single #
loop $-1 $-1 $713 $442 #
plane-surface $-1 -10 20 10 0 1 0 0 0 1 forward_v I I I I #
coedge $-1 $714 $715 $716 $717 forward $443 $-1 #
coedge $-1 $718 $445 $715 $719 reversed $314 $-1 #
coedge $-1 $445 $718 $446 $580 forward $314 $-1 #
coedge $-1 $448 $716 $445 $578 reversed $210 $-1 #
edge $-1 $581 -21.25 $720 3.75 $445 $721 forward 7 unknown #
coedge $-1 $447 $446 $722 $723 reversed $198 $-1 #
edge $-1 $724 0 $581 10 $576 $725 forward 7 unknown #
vertex $-1 $580 $726 #
straight-curve $-1 -35 8.75 20 0 1 0 I I #
coedge $-1 $722 $454 $450 $584 forward $461 $-1 #
edge $727 $457 -3.75 $585 21.25 $450 $728 forward 7 unknown #
vertex $-1 $584 $729 #
straight-curve $-1 -35 -15 10 0 0 1 I I #
point $-1 -35 -15 20 #
convexity-sys-attrib $-1 $-1 $-1 $455 #
straight-curve $-1 -10 8.75 10 0 1 0 I I #
point $-1 -10 -15 10 #
coedge $-1 $460 $730 $731 $732 forward $461 $-1 #
coedge $-1 $731 $470 $465 $593 reversed $602 $-1 #
edge $-1 $595 0 $472 10 $465 $733 forward 7 unknown #
convexity-sys-attrib $-1 $-1 $-1 $466 #
vertex $-1 $466 $734 #
straight-curve $-1 10 8.75 10 0 -1 0 I I #
plane-surface $-1 10 -15 10 1 0 0 0 0 -1 forward_v I I I I #
coedge $-1 $735 $469 $736 $737 reversed $210 $-1 #
coedge $-1 $738 $739 $469 $600 forward $740 $-1 #
edge $-1 $741 -1.25 $603 23.75 $599 $742 forward 7 unknown #
coedge $-1 $470 $731 $738 $743 forward $602 $-1 #
loop $-1 $-1 $470 $744 #
vertex $-1 $743 $745 #
straight-curve $-1 -13.75 -15 20 -1 0 0 I I #
point $-1 10 -15 20 #
plane-surface $-1 6.6613381477509392e-016 -1.1363636363636369 10 0 0 1 1 0 0 forward_v I I I I #
face $-1 $746 $747 $29 $-1 $748 forward single #
loop $-1 $-1 $749 $476 #
plane-surface $-1 10 10 0 0 1 0 0 0 1 forward_v I I I I #
coedge $-1 $750 $751 $752 $753 forward $477 $-1 #
coedge $-1 $754 $479 $751 $755 reversed $340 $-1 #
coedge $-1 $479 $754 $480 $616 forward $340 $-1 #
coedge $-1 $482 $752 $479 $614 reversed $227 $-1 #
edge $-1 $617 -10 $756 10 $479 $757 forward 7 unknown #
coedge $-1 $481 $480 $758 $759 reversed $215 $-1 #
edge $-1 $760 0 $617 10 $612 $761 forward 7 unknown #
vertex $-1 $616 $762 #
straight-curve $-1 -10 10 10 0 1 0 I I #
coedge $-1 $758 $488 $484 $620 forward $494 $-1 #
edge $763 $490 -20 $621 -10 $484 $764 forward 7 unknown #
vertex $-1 $620 $765 #
straight-curve $-1 -10 10 0 0 0 1 I I #
point $-1 -10 10 10 #
convexity-sys-attrib $-1 $-1 $-1 $489 #
straight-curve $-1 -20 10 0 0 1 0 I I #
point $-1 -20 10 0 #
coedge $-1 $493 $766 $767 $768 forward $494 $-1 #
coedge $-1 $767 $503 $498 $629 reversed $638 $-1 #
edge $-1 $631 0 $505 10 $498 $769 forward 7 unknown #
convexity-sys-attrib $-1 $-1 $-1 $499 #
vertex $-1 $499 $770 #
straight-curve $-1 -10 10 0 0 1 0 I I #
plane-surface $-1 -10 -20 0 -1 0 0 0 0 1 forward_v I I I I #
coedge $-1 $771 $502 $772 $773 reversed $227 $-1 #
coedge $-1 $774 $775 $502 $636 forward $776 $-1 #
edge $-1 $777 25 $639 30 $635 $778 forward 7 unknown #
coedge $-1 $503 $767 $774 $779 forward $638 $-1 #
loop $-1 $-1 $503 $780 #
vertex $-1 $779 $781 #
straight-curve $-1 0 -20 10 -1 0 0 I I #
point $-1 -10 -20 10 #
plane-surface $-1 0 -0.625 0 0 0 1 1 0 0 forward_v I I I I #
model_id-kcp-attrib $-1 $-1 $-1 $510 1 990663930 60 -1640235007 10 #
face $782 $783 $784 $9 $-1 $785 forward single #
loop $-1 $-1 $786 $510 #
plane-surface $-1 0 20 20 0 0 1 1 0 0 forward_v I I I I #
coedge $-1 $787 $788 $789 $790 forward $511 $-1 #
coedge $-1 $791 $513 $788 $792 forward $368 $-1 #
coedge $-1 $513 $791 $793 $794 forward $368 $-1 #
coedge $-1 $655 $789 $513 $651 reversed $233 $-1 #
edge $795 $796 -40 $797 40 $513 $798 forward 7 unknown #
coedge $-1 $799 $514 $800 $801 reversed $233 $-1 #
coedge $-1 $802 $803 $514 $654 forward $804 $-1 #
edge $805 $806 -10 $662 10 $653 $807 forward 7 unknown #
coedge $-1 $515 $650 $808 $809 reversed $233 $-1 #
coedge $-1 $810 $811 $515 $657 forward $812 $-1 #
edge $813 $663 10 $814 40 $656 $815 forward 7 unknown #
coedge $-1 $816 $516 $811 $817 reversed $660 $-1 #
coedge $-1 $516 $816 $802 $818 forward $660 $-1 #
loop $-1 $-1 $516 $819 #
attrib_edge_convexity-kcp-attrib $-1 $820 $-1 $517 1 #
vertex $-1 $818 $821 #
vertex $-1 $817 $822 #
straight-curve $-1 -10 20 5 0 0 1 I I #
coedge $-1 $518 $523 $692 $823 reversed $524 $-1 #
vertex $-1 $519 $824 #
straight-curve $-1 20 20 -10 0 1 0 I I #
coedge $-1 $520 $825 $826 $827 reversed $146 $-1 #
coedge $-1 $828 $829 $520 $670 reversed $830 $-1 #
edge $-1 $831 -15 $674 -5 $669 $832 forward 7 unknown #
coedge $-1 $833 $521 $829 $834 reversed $673 $-1 #
coedge $-1 $521 $833 $523 $676 forward $673 $-1 #
loop $-1 $-1 $833 $783 #
vertex $-1 $670 $835 #
straight-curve $-1 15 -15 10 -1 0 0 I I #
edge $-1 $836 10 $525 35 $523 $837 forward 7 unknown #
face $838 $839 $524 $9 $-1 $840 reversed single #
point $-1 20 -15 10 #
model_id-kcp-attrib $-1 $-1 $-1 $529 1 990663930 60 -1640235007 17 #
face $841 $842 $539 $9 $-1 $843 reversed single #
loop $-1 $-1 $686 $529 #
plane-surface $-1 -35 20 5 1 0 0 0 0 -1 forward_v I I I I #
coedge $-1 $844 $531 $845 $846 forward $146 $-1 #
coedge $-1 $847 $848 $531 $685 forward $812 $-1 #
edge $-1 $849 10 $688 35 $684 $850 forward 7 unknown #
coedge $-1 $851 $532 $534 $690 forward $681 $-1 #
coedge $-1 $532 $851 $847 $852 reversed $681 $-1 #
vertex $-1 $685 $853 #
straight-curve $-1 -35 -15 5 0 0 -1 I I #
edge $-1 $535 -35 $696 -10 $686 $854 forward 7 unknown #
point $-1 -35 -15 10 #
coedge $-1 $694 $537 $665 $823 forward $539 $-1 #
coedge $-1 $538 $855 $851 $856 reversed $539 $-1 #
coedge $-1 $857 $692 $833 $858 forward $539 $-1 #
straight-curve $-1 0 10 -10 -1 0 0 I I #
vertex $-1 $543 $859 #
straight-curve $-1 -15 10 10 1 0 0 I I #
coedge $-1 $550 $549 $563 $707 reversed $287 $-1 #
coedge $-1 $563 $555 $551 $700 forward $430 $-1 #
edge $860 $557 -18.75 $701 1.25 $551 $861 forward 7 unknown #
vertex $-1 $700 $862 #
straight-curve $-1 -20 10 -10 0 0 1 I I #
point $-1 -20 10 0 #
convexity-sys-attrib $-1 $-1 $-1 $556 #
straight-curve $-1 -10 -10 -10 -1 0 0 I I #
point $-1 -20 -10 -10 #
edge $863 $701 -20 $566 20 $698 $864 forward 7 unknown #
straight-curve $-1 20 10 -10 0 0 1 I I #
point $-1 20 10 -10 #
face $-1 $865 $866 $27 $-1 $867 forward single #
loop $-1 $-1 $868 $571 #
plane-surface $-1 10 20 10 1 0 0 0 0 -1 forward_v I I I I #
coedge $-1 $869 $870 $871 $872 forward $572 $-1 #
coedge $-1 $873 $574 $870 $874 reversed $443 $-1 #
coedge $-1 $574 $873 $575 $719 forward $443 $-1 #
coedge $-1 $577 $871 $574 $717 reversed $210 $-1 #
edge $-1 $720 1.25 $875 11.25 $574 $876 forward 7 unknown #
coedge $-1 $576 $575 $877 $878 reversed $314 $-1 #
edge $-1 $879 0 $720 10 $715 $880 forward 7 unknown #
vertex $-1 $719 $881 #
straight-curve $-1 -13.75 10 20 1 0 0 I I #
coedge $-1 $877 $583 $579 $723 forward $461 $-1 #
edge $882 $585 -23.75 $724 1.25 $579 $883 forward 7 unknown #
vertex $-1 $723 $884 #
straight-curve $-1 -35 10 10 0 0 1 I I #
point $-1 -35 10 20 #
convexity-sys-attrib $-1 $-1 $-1 $584 #
straight-curve $-1 -13.75 -15 10 -1 0 0 I I #
point $-1 -35 -15 10 #
coedge $-1 $591 $885 $886 $887 forward $461 $-1 #
coedge $-1 $601 $592 $591 $732 reversed $602 $-1 #
edge $888 $889 -48.75 $595 -23.75 $731 $890 forward 7 unknown #
straight-curve $-1 10 -15 10 0 0 1 I I #
point $-1 10 -15 10 #
coedge $-1 $871 $598 $868 $891 reversed $210 $-1 #
coedge $-1 $892 $893 $598 $737 forward $866 $-1 #
edge $-1 $894 23.75 $741 48.75 $736 $895 forward 7 unknown #
coedge $-1 $886 $599 $601 $743 reversed $740 $-1 #
coedge $-1 $599 $886 $892 $896 forward $740 $-1 #
loop $-1 $-1 $599 $865 #
vertex $-1 $896 $897 #
straight-curve $-1 35 8.75 20 0 -1 0 I I #
edge $-1 $889 0 $603 10 $601 $898 forward 7 unknown #
face $-1 $467 $602 $27 $-1 $899 forward single #
point $-1 35 -15 20 #
face $-1 $900 $901 $29 $-1 $902 forward single #
loop $-1 $-1 $903 $607 #
plane-surface $-1 20 10 0 1 0 0 0 0 -1 forward_v I I I I #
coedge $-1 $904 $905 $906 $907 forward $608 $-1 #
coedge $-1 $908 $610 $905 $909 reversed $477 $-1 #
coedge $-1 $610 $908 $611 $755 forward $477 $-1 #
coedge $-1 $613 $906 $610 $753 reversed $227 $-1 #
edge $-1 $756 -10 $910 0 $610 $911 forward 7 unknown #
coedge $-1 $612 $611 $912 $913 reversed $340 $-1 #
edge $-1 $914 0 $756 10 $751 $915 forward 7 unknown #
vertex $-1 $755 $916 #
straight-curve $-1 0 20 10 1 0 0 I I #
coedge $-1 $912 $619 $615 $759 forward $494 $-1 #
edge $917 $621 0 $760 10 $615 $918 forward 7 unknown #
vertex $-1 $759 $919 #
straight-curve $-1 -10 20 0 0 0 1 I I #
point $-1 -10 20 10 #
convexity-sys-attrib $-1 $-1 $-1 $620 #
straight-curve $-1 0 10 0 1 0 0 I I #
point $-1 -10 10 0 #
coedge $-1 $627 $920 $921 $922 forward $494 $-1 #
coedge $-1 $637 $628 $627 $768 reversed $638 $-1 #
edge $923 $924 -10 $631 10 $767 $925 forward 7 unknown #
straight-curve $-1 -10 -20 0 0 0 1 I I #
point $-1 -10 -20 0 #
coedge $-1 $906 $634 $903 $926 reversed $227 $-1 #
coedge $-1 $927 $928 $634 $773 forward $901 $-1 #
edge $-1 $929 -20 $777 -10 $772 $930 forward 7 unknown #
coedge $-1 $921 $635 $637 $779 reversed $776 $-1 #
coedge $-1 $635 $921 $927 $931 forward $776 $-1 #
loop $-1 $-1 $635 $900 #
vertex $-1 $931 $932 #
straight-curve $-1 10 10 10 0 -1 0 I I #
edge $-1 $924 0 $639 10 $637 $933 forward 7 unknown #
face $-1 $500 $638 $29 $-1 $934 forward single #
point $-1 10 -20 10 #
model_id-kcp-attrib $-1 $-1 $-1 $644 1 990663930 60 -1640235007 11 #
face $935 $677 $673 $9 $-1 $936 forward single #
loop $-1 $-1 $800 $644 #
plane-surface $-1 10 20 10 -1 0 0 0 0 1 forward_v I I I I #
coedge $-1 $937 $938 $799 $939 forward $645 $-1 #
coedge $-1 $940 $647 $938 $941 reversed $511 $-1 #
coedge $-1 $647 $940 $648 $792 reversed $511 $-1 #
coedge $-1 $650 $799 $647 $790 reversed $233 $-1 #
edge $942 $797 -20 $943 20 $647 $944 forward 7 unknown #
coedge $-1 $649 $648 $945 $946 forward $368 $-1 #
edge $947 $797 0 $948 40 $788 $949 forward 7 unknown #
coedge $-1 $950 $808 $649 $794 reversed $951 $-1 #
edge $952 $953 -40 $796 0 $793 $954 forward 7 unknown #
attrib_edge_convexity-kcp-attrib $-1 $955 $-1 $651 1 #
vertex $-1 $794 $956 #
vertex $-1 $790 $957 #
straight-curve $-1 0 20 -20 1 0 0 I I #
coedge $-1 $789 $652 $786 $939 reversed $233 $-1 #
coedge $-1 $958 $959 $652 $801 forward $784 $-1 #
edge $960 $961 -15 $806 5 $800 $962 forward 7 unknown #
coedge $-1 $963 $653 $659 $818 reversed $804 $-1 #
coedge $-1 $653 $963 $958 $964 reversed $804 $-1 #
loop $-1 $-1 $653 $965 #
attrib_edge_convexity-kcp-attrib $-1 $966 $-1 $654 1 #
vertex $-1 $654 $967 #
straight-curve $-1 0 20 0 -1 0 0 I I #
coedge $-1 $793 $968 $655 $809 forward $951 $-1 #
edge $969 $814 -20 $796 20 $808 $970 forward 7 unknown #
coedge $-1 $971 $656 $968 $972 forward $812 $-1 #
coedge $-1 $656 $973 $658 $817 forward $812 $-1 #
loop $-1 $-1 $656 $974 #
attrib_edge_convexity-kcp-attrib $-1 $975 $-1 $657 1 #
vertex $-1 $657 $976 #
straight-curve $-1 0 20 20 -1 0 0 I I #
coedge $-1 $659 $658 $977 $978 reversed $660 $-1 #
edge $-1 $979 -10 $663 0 $811 $980 forward 7 unknown #
edge $-1 $981 -10 $662 0 $659 $982 forward 7 unknown #
face $983 $974 $660 $9 $-1 $984 forward single #
convexity-sys-attrib $-1 $-1 $661 $517 #
point $-1 -10 20 0 #
point $-1 -10 20 20 #
edge $-1 $666 -10 $836 10 $692 $985 forward 7 unknown #
point $-1 20 10 -10 #
coedge $-1 $668 $844 $986 $987 forward $146 $-1 #
coedge $-1 $988 $989 $668 $827 forward $645 $-1 #
edge $-1 $831 -35 $990 -10 $826 $850 forward 7 unknown #
coedge $-1 $991 $669 $989 $992 reversed $830 $-1 #
coedge $-1 $669 $991 $671 $834 forward $830 $-1 #
loop $-1 $-1 $829 $839 #
vertex $-1 $827 $993 #
straight-curve $-1 35 -15 5 0 0 -1 I I #
coedge $-1 $672 $671 $694 $858 reversed $673 $-1 #
edge $-1 $994 10 $674 35 $829 $995 forward 7 unknown #
point $-1 35 -15 10 #
vertex $-1 $858 $996 #
straight-curve $-1 20 20 10 0 -1 0 I I #
model_id-kcp-attrib $-1 $-1 $-1 $677 1 990663930 60 -1640235007 13 #
face $997 $246 $830 $9 $-1 $998 forward single #
plane-surface $-1 20 20 0 1 0 0 0 0 -1 forward_v I I I I #
model_id-kcp-attrib $-1 $-1 $-1 $680 1 990663930 60 -1640235007 18 #
face $999 $1000 $951 $9 $-1 $1001 reversed single #
plane-surface $-1 0 10 0 0 1 0 0 0 1 forward_v I I I I #
coedge $-1 $825 $683 $1002 $1003 forward $146 $-1 #
coedge $-1 $1004 $1005 $683 $846 reversed $1006 $-1 #
edge $-1 $849 -12.5 $1007 7.5 $683 $1008 forward 7 unknown #
coedge $-1 $973 $684 $687 $852 forward $812 $-1 #
coedge $-1 $684 $971 $1004 $1009 forward $812 $-1 #
vertex $-1 $1009 $1010 #
straight-curve $-1 0 -15 20 -1 0 0 I I #
coedge $-1 $687 $686 $693 $856 forward $681 $-1 #
edge $-1 $688 -35 $1011 -10 $847 $1012 forward 7 unknown #
point $-1 -35 -15 20 #
straight-curve $-1 -35 20 10 0 1 0 I I #
coedge $-1 $693 $977 $973 $1013 reversed $539 $-1 #
edge $-1 $696 7.5 $1011 17.5 $851 $1014 forward 7 unknown #
coedge $-1 $1015 $694 $991 $1016 reversed $539 $-1 #
edge $-1 $836 5 $994 20 $694 $1017 forward 7 unknown #
point $-1 -35 10 10 #
convexity-sys-attrib $-1 $-1 $-1 $700 #
straight-curve $-1 -20 8.75 -10 0 1 0 I I #
point $-1 -20 10 -10 #
convexity-sys-attrib $-1 $-1 $-1 $707 #
straight-curve $-1 0 10 -10 1 0 0 I I #
face $-1 $744 $740 $27 $-1 $1018 forward single #
loop $-1 $-1 $736 $710 #
plane-surface $-1 10 10 10 0 1 0 0 0 1 forward_v I I I I #
coedge $-1 $1019 $1020 $735 $891 forward $711 $-1 #
coedge $-1 $1021 $713 $1020 $1022 reversed $572 $-1 #
coedge $-1 $713 $1021 $714 $874 forward $572 $-1 #
coedge $-1 $716 $735 $713 $872 reversed $210 $-1 #
edge $-1 $875 3.75 $1023 23.75 $713 $1024 forward 7 unknown #
coedge $-1 $715 $714 $1025 $1026 reversed $443 $-1 #
edge $-1 $1027 0 $875 10 $870 $1028 forward 7 unknown #
vertex $-1 $874 $1029 #
straight-curve $-1 -10 8.75 20 0 1 0 I I #
coedge $-1 $1025 $722 $718 $878 forward $461 $-1 #
edge $1030 $724 -21.25 $879 3.75 $718 $1031 forward 7 unknown #
vertex $-1 $878 $1032 #
straight-curve $-1 -10 10 10 0 0 1 I I #
point $-1 -10 10 20 #
convexity-sys-attrib $-1 $-1 $-1 $723 #
straight-curve $-1 -35 8.75 10 0 1 0 I I #
point $-1 -35 10 10 #
coedge $-1 $730 $1033 $1034 $1035 forward $461 $-1 #
coedge $-1 $739 $738 $730 $887 reversed $740 $-1 #
edge $1036 $1037 -1.25 $889 23.75 $886 $1038 forward 7 unknown #
convexity-sys-attrib $-1 $-1 $-1 $732 #
vertex $-1 $887 $1039 #
straight-curve $-1 -13.75 -15 10 -1 0 0 I I #
edge $-1 $1023 -11.25 $894 -1.25 $868 $1040 forward 7 unknown #
coedge $-1 $1034 $736 $739 $896 reversed $866 $-1 #
coedge $-1 $736 $1034 $1019 $1041 forward $866 $-1 #
vertex $-1 $1041 $1042 #
straight-curve $-1 -13.75 10 20 1 0 0 I I #
edge $-1 $1037 0 $741 10 $739 $1043 forward 7 unknown #
point $-1 35 10 20 #
straight-curve $-1 35 -15 10 0 0 1 I I #
plane-surface $-1 35 -15 10 0 -1 0 0 0 -1 forward_v I I I I #
face $-1 $780 $776 $29 $-1 $1044 forward single #
loop $-1 $-1 $772 $746 #
plane-surface $-1 20 -15 0 0 -1 0 0 0 -1 forward_v I I I I #
coedge $-1 $1045 $1046 $771 $926 forward $747 $-1 #
coedge $-1 $1047 $749 $1046 $1048 reversed $608 $-1 #
coedge $-1 $749 $1047 $750 $909 forward $608 $-1 #
coedge $-1 $752 $771 $749 $907 reversed $227 $-1 #
edge $-1 $910 10 $1049 20 $749 $1050 forward 7 unknown #
coedge $-1 $751 $750 $1051 $1052 reversed $477 $-1 #
edge $-1 $1053 0 $910 10 $905 $1054 forward 7 unknown #
vertex $-1 $909 $1055 #
straight-curve $-1 10 10 10 0 -1 0 I I #
coedge $-1 $1051 $758 $754 $913 forward $494 $-1 #
edge $1056 $760 -10 $914 10 $754 $1057 forward 7 unknown #
vertex $-1 $913 $1058 #
straight-curve $-1 10 20 0 0 0 1 I I #
point $-1 10 20 10 #
convexity-sys-attrib $-1 $-1 $-1 $759 #
straight-curve $-1 -10 10 0 0 1 0 I I #
point $-1 -10 20 0 #
coedge $-1 $766 $1059 $1060 $1061 forward $494 $-1 #
coedge $-1 $775 $774 $766 $922 reversed $776 $-1 #
edge $1062 $1063 25 $924 30 $921 $1064 forward 7 unknown #
convexity-sys-attrib $-1 $-1 $-1 $768 #
vertex $-1 $922 $1065 #
straight-curve $-1 0 -20 0 -1 0 0 I I #
edge $-1 $1049 0 $929 25 $903 $1066 forward 7 unknown #
coedge $-1 $1060 $772 $775 $931 reversed $901 $-1 #
coedge $-1 $772 $1060 $1045 $1067 forward $901 $-1 #
vertex $-1 $1067 $1068 #
straight-curve $-1 0 -15 10 -1 0 0 I I #
edge $-1 $1063 0 $777 10 $775 $1069 forward 7 unknown #
point $-1 10 -15 10 #
straight-curve $-1 10 -20 0 0 0 1 I I #
plane-surface $-1 10 -20 0 0 -1 0 0 0 -1 forward_v I I I I #
model_id-kcp-attrib $-1 $-1 $-1 $783 1 990663930 60 -1640235007 12 #
plane-surface $-1 30 20 10 0 0 1 1 0 0 forward_v I I I I #
coedge $-1 $1070 $786 $959 $1071 forward $645 $-1 #
coedge $-1 $786 $1072 $787 $941 forward $645 $-1 #
edge $1073 $943 -40 $961 -10 $786 $1074 forward 7 unknown #
coedge $-1 $788 $787 $1075 $1076 forward $511 $-1 #
edge $1077 $1078 -40 $943 0 $787 $1079 forward 7 unknown #
attrib_edge_convexity-kcp-attrib $-1 $1080 $-1 $790 1 #
vertex $-1 $941 $1081 #
straight-curve $-1 40 20 0 0 0 1 I I #
coedge $-1 $1075 $1082 $791 $946 reversed $1083 $-1 #
edge $1084 $948 -40 $953 40 $945 $1085 forward 7 unknown #
attrib_edge_convexity-kcp-attrib $-1 $1086 $-1 $792 1 #
vertex $-1 $1076 $1087 #
straight-curve $-1 40 20 -20 0 -1 0 I I #
coedge $-1 $968 $793 $1082 $1088 reversed $951 $-1 #
loop $-1 $-1 $808 $842 #
attrib_edge_convexity-kcp-attrib $-1 $1089 $-1 $794 1 #
vertex $-1 $794 $1090 #
straight-curve $-1 -40 20 -20 0 1 0 I I #
convexity-sys-attrib $-1 $-1 $795 $651 #
point $-1 -40 20 -20 #
point $-1 40 20 -20 #
coedge $-1 $1091 $800 $803 $964 forward $784 $-1 #
coedge $-1 $800 $1091 $937 $1071 reversed $784 $-1 #
attrib_edge_convexity-kcp-attrib $-1 $1092 $-1 $801 1 #
vertex $-1 $801 $1093 #
straight-curve $-1 10 20 5 0 0 -1 I I #
coedge $-1 $803 $802 $1094 $1095 reversed $804 $-1 #
edge $-1 $806 0 $1096 10 $958 $1097 forward 7 unknown #
face $1098 $1099 $804 $9 $-1 $1100 forward single #
convexity-sys-attrib $-1 $-1 $805 $654 #
point $-1 10 20 0 #
coedge $-1 $808 $950 $810 $972 reversed $951 $-1 #
attrib_edge_convexity-kcp-attrib $-1 $1101 $-1 $809 1 #
straight-curve $-1 -40 20 0 0 0 -1 I I #
coedge $-1 $848 $810 $1102 $1103 forward $812 $-1 #
edge $-1 $814 0 $1104 40 $968 $1105 forward 7 unknown #
coedge $-1 $811 $847 $855 $1013 forward $812 $-1 #
face $1106 $1107 $812 $9 $-1 $646 forward single #
convexity-sys-attrib $-1 $-1 $813 $657 #
point $-1 -40 20 20 #
coedge $-1 $855 $1094 $816 $978 forward $539 $-1 #
edge $-1 $981 -5 $979 15 $977 $1108 forward 7 unknown #
vertex $-1 $1013 $1109 #
straight-curve $-1 -10 20 20 0 1 0 I I #
vertex $-1 $1095 $1110 #
straight-curve $-1 -10 20 0 0 1 0 I I #
model_id-kcp-attrib $-1 $-1 $-1 $819 1 990663930 60 -1640235007 24 #
plane-surface $-1 -10 20 10 1 0 0 0 0 -1 forward_v I I I I #
straight-curve $-1 20 10 0 0 0 1 I I #
coedge $-1 $1111 $1112 $825 $987 reversed $1113 $-1 #
edge $-1 $1114 -7.5 $990 12.5 $825 $1115 forward 7 unknown #
coedge $-1 $1072 $826 $1112 $1116 forward $645 $-1 #
coedge $-1 $826 $1070 $828 $992 forward $645 $-1 #
vertex $-1 $827 $1117 #
coedge $-1 $829 $828 $857 $1016 forward $830 $-1 #
edge $-1 $1118 10 $831 35 $989 $1119 forward 7 unknown #
point $-1 35 -15 20 #
vertex $-1 $1016 $1120 #
straight-curve $-1 35 20 10 0 -1 0 I I #
point $-1 20 10 10 #
model_id-kcp-attrib $-1 $-1 $-1 $839 1 990663930 60 -1640235007 14 #
plane-surface $-1 35 20 5 -1 0 0 0 0 1 forward_v I I I I #
model_id-kcp-attrib $-1 $-1 $-1 $842 1 990663930 60 -1640235007 19 #
face $1121 $965 $1122 $9 $-1 $1100 forward single #
plane-surface $-1 -40 20 0 1 0 0 0 0 -1 forward_v I I I I #
coedge $-1 $1123 $1124 $844 $1003 reversed $1122 $-1 #
edge $-1 $1007 -10 $1114 10 $844 $1125 forward 7 unknown #
coedge $-1 $1126 $845 $848 $1009 reversed $1006 $-1 #
coedge $-1 $845 $1126 $1123 $1127 forward $1006 $-1 #
loop $-1 $-1 $845 $1128 #
vertex $-1 $1003 $1129 #
straight-curve $-1 -10 -15 7.5 0 0 -1 I I #
edge $-1 $1130 -40 $849 -35 $848 $980 forward 7 unknown #
point $-1 -10 -15 20 #
vertex $-1 $852 $1131 #
straight-curve $-1 -35 20 20 0 1 0 I I #
edge $-1 $1011 -35 $979 -10 $855 $1132 forward 7 unknown #
straight-curve $-1 -35 10 2.5 0 0 1 I I #
coedge $-1 $1133 $857 $1070 $1134 reversed $539 $-1 #
edge $-1 $1118 -17.5 $994 -7.5 $991 $1135 forward 7 unknown #
straight-curve $-1 15 10 10 1 0 0 I I #
plane-surface $-1 35 10 10 1 0 0 0 0 -1 forward_v I I I I #
coedge $-1 $1136 $868 $893 $1041 reversed $711 $-1 #
coedge $-1 $868 $1136 $869 $1022 forward $711 $-1 #
coedge $-1 $870 $869 $1137 $1138 reversed $572 $-1 #
edge $-1 $1139 0 $1023 10 $1020 $1140 forward 7 unknown #
vertex $-1 $1022 $1141 #
straight-curve $-1 -13.75 20 20 1 0 0 I I #
coedge $-1 $1137 $877 $873 $1026 forward $461 $-1 #
edge $1142 $879 1.25 $1027 11.25 $873 $1143 forward 7 unknown #
vertex $-1 $1026 $1144 #
straight-curve $-1 -10 20 10 0 0 1 I I #
point $-1 -10 20 20 #
convexity-sys-attrib $-1 $-1 $-1 $878 #
straight-curve $-1 -13.75 10 10 1 0 0 I I #
point $-1 -10 10 10 #
coedge $-1 $885 $1137 $1136 $1145 forward $461 $-1 #
coedge $-1 $893 $892 $885 $1035 reversed $866 $-1 #
edge $1146 $1147 23.75 $1037 48.75 $1034 $1148 forward 7 unknown #
convexity-sys-attrib $-1 $-1 $-1 $887 #
vertex $-1 $1035 $1149 #
straight-curve $-1 35 8.75 10 0 -1 0 I I #
point $-1 35 -15 10 #
straight-curve $-1 10 8.75 20 0 -1 0 I I #
edge $-1 $1147 0 $894 10 $893 $1150 forward 7 unknown #
point $-1 10 10 20 #
straight-curve $-1 35 10 10 0 0 1 I I #
plane-surface $-1 10 -15 0 1 0 0 0 0 -1 forward_v I I I I #
coedge $-1 $1151 $903 $928 $1067 reversed $747 $-1 #
coedge $-1 $903 $1151 $904 $1048 forward $747 $-1 #
coedge $-1 $905 $904 $1152 $1153 reversed $608 $-1 #
edge $-1 $1154 0 $1049 10 $1046 $1155 forward 7 unknown #
vertex $-1 $1048 $1156 #
straight-curve $-1 0 10 10 1 0 0 I I #
coedge $-1 $1152 $912 $908 $1052 forward $494 $-1 #
edge $1157 $914 -10 $1053 0 $908 $1158 forward 7 unknown #
vertex $-1 $1052 $1159 #
straight-curve $-1 10 10 0 0 0 1 I I #
point $-1 10 10 10 #
convexity-sys-attrib $-1 $-1 $-1 $913 #
straight-curve $-1 0 20 0 1 0 0 I I #
point $-1 10 20 0 #
coedge $-1 $920 $1152 $1151 $1160 forward $494 $-1 #
coedge $-1 $928 $927 $920 $1061 reversed $901 $-1 #
edge $1161 $1162 -20 $1063 -10 $1060 $1163 forward 7 unknown #
convexity-sys-attrib $-1 $-1 $-1 $922 #
vertex $-1 $1061 $1164 #
straight-curve $-1 10 10 0 0 -1 0 I I #
point $-1 10 -20 0 #
straight-curve $-1 20 10 10 0 -1 0 I I #
edge $-1 $1162 0 $929 10 $928 $1165 forward 7 unknown #
point $-1 20 -15 10 #
straight-curve $-1 10 -15 0 0 0 1 I I #
coedge $-1 $989 $937 $1015 $1134 forward $645 $-1 #
edge $-1 $961 0 $1166 10 $937 $1167 forward 7 unknown #
coedge $-1 $938 $988 $1168 $1169 forward $645 $-1 #
attrib_edge_convexity-kcp-attrib $-1 $1170 $-1 $939 1 #
straight-curve $-1 0 20 20 -1 0 0 I I #
coedge $-1 $1168 $945 $940 $1076 reversed $1083 $-1 #
edge $1171 $1078 -20 $948 20 $940 $1172 forward 7 unknown #
attrib_edge_convexity-kcp-attrib $-1 $1173 $-1 $941 1 #
vertex $-1 $941 $1174 #
straight-curve $-1 40 20 20 0 1 0 I I #
convexity-sys-attrib $-1 $-1 $942 $790 #
point $-1 40 20 20 #
coedge $-1 $945 $1102 $950 $1088 forward $1083 $-1 #
loop $-1 $-1 $1075 $1107 #
attrib_edge_convexity-kcp-attrib $-1 $1175 $-1 $946 1 #
straight-curve $-1 0 -20 -20 -1 0 0 I I #
convexity-sys-attrib $-1 $-1 $947 $792 #
point $-1 40 -20 -20 #
edge $-1 $1104 -20 $953 20 $950 $1176 forward 7 unknown #
convexity-sys-attrib $-1 $-1 $952 $794 #
point $-1 -40 -20 -20 #
coedge $-1 $959 $958 $1133 $1177 reversed $784 $-1 #
convexity-sys-attrib $-1 $-1 $960 $801 #
point $-1 10 20 20 #
coedge $-1 $977 $1133 $963 $1095 forward $539 $-1 #
edge $-1 $1096 -10 $981 10 $1094 $1178 forward 7 unknown #
vertex $-1 $1095 $1179 #
straight-curve $-1 10 20 0 0 -1 0 I I #
model_id-kcp-attrib $-1 $-1 $-1 $965 1 990663930 60 -1640235007 21 #
face $1180 $1128 $1113 $9 $-1 $785 forward single #
plane-surface $-1 0 20 0 0 0 1 1 0 0 forward_v I I I I #
convexity-sys-attrib $-1 $-1 $969 $809 #
coedge $-1 $1082 $1181 $971 $1103 reversed $1083 $-1 #
edge $-1 $1104 -40 $1130 -10 $1102 $1182 forward 7 unknown #
vertex $-1 $972 $1183 #
straight-curve $-1 -40 20 20 0 -1 0 I I #
model_id-kcp-attrib $-1 $-1 $-1 $974 1 990663930 60 -1640235007 25 #
face $1184 $-1 $1083 $9 $-1 $1185 reversed single #
straight-curve $-1 -10 10 5 0 0 1 I I #
point $-1 -10 10 20 #
point $-1 -10 10 0 #
coedge $-1 $1186 $986 $1124 $1187 forward $1113 $-1 #
coedge $-1 $986 $1186 $988 $1116 reversed $1113 $-1 #
loop $-1 $-1 $986 $1099 #
vertex $-1 $1003 $1188 #
straight-curve $-1 10 -15 7.5 0 0 1 I I #
edge $-1 $990 35 $1189 40 $988 $1167 forward 7 unknown #
point $-1 10 -15 20 #
vertex $-1 $992 $1190 #
straight-curve $-1 35 20 20 0 -1 0 I I #
point $-1 35 10 10 #
model_id-kcp-attrib $-1 $-1 $-1 $1000 1 990663930 60 -1640235007 20 #
loop $-1 $-1 $1002 $1000 #
coedge $-1 $1191 $1002 $1005 $1127 reversed $1122 $-1 #
coedge $-1 $1002 $1191 $1111 $1187 reversed $1122 $-1 #
straight-curve $-1 0 -15 0 1 0 0 I I #
coedge $-1 $1005 $1004 $1181 $1192 reversed $1006 $-1 #
edge $-1 $1193 -40 $1007 -35 $1005 $982 forward 7 unknown #
face $1194 $819 $1006 $9 $-1 $984 forward single #
point $-1 -10 -15 0 #
vertex $-1 $1103 $1195 #
point $-1 -35 10 20 #
straight-curve $-1 0 10 20 1 0 0 I I #
coedge $-1 $1094 $1015 $1091 $1177 forward $539 $-1 #
edge $-1 $1166 10 $1118 35 $1015 $1132 forward 7 unknown #
straight-curve $-1 35 10 2.5 0 0 -1 I I #
coedge $-1 $1020 $1019 $1033 $1145 reversed $711 $-1 #
coedge $-1 $1033 $1025 $1021 $1138 forward $461 $-1 #
edge $1196 $1027 3.75 $1139 23.75 $1021 $1197 forward 7 unknown #
vertex $-1 $1138 $1198 #
straight-curve $-1 10 20 10 0 0 1 I I #
point $-1 10 20 20 #
convexity-sys-attrib $-1 $-1 $-1 $1026 #
straight-curve $-1 -10 8.75 10 0 1 0 I I #
point $-1 -10 20 10 #
edge $1199 $1139 -11.25 $1147 -1.25 $1136 $1200 forward 7 unknown #
convexity-sys-attrib $-1 $-1 $-1 $1035 #
vertex $-1 $1145 $1201 #
straight-curve $-1 -13.75 10 10 1 0 0 I I #
point $-1 35 10 10 #
straight-curve $-1 10 10 10 0 0 1 I I #
coedge $-1 $1046 $1045 $1059 $1160 reversed $747 $-1 #
coedge $-1 $1059 $1051 $1047 $1153 forward $494 $-1 #
edge $1202 $1053 10 $1154 20 $1047 $1203 forward 7 unknown #
vertex $-1 $1153 $1204 #
straight-curve $-1 20 10 0 0 0 1 I I #
point $-1 20 10 10 #
convexity-sys-attrib $-1 $-1 $-1 $1052 #
straight-curve $-1 10 10 0 0 -1 0 I I #
point $-1 10 10 0 #
edge $1205 $1154 0 $1162 25 $1151 $1206 forward 7 unknown #
convexity-sys-attrib $-1 $-1 $-1 $1061 #
vertex $-1 $1160 $1207 #
straight-curve $-1 0 -15 0 -1 0 0 I I #
point $-1 10 -15 0 #
straight-curve $-1 20 -15 0 0 0 1 I I #
vertex $-1 $1177 $1208 #
straight-curve $-1 10 20 20 0 -1 0 I I #
coedge $-1 $1209 $1075 $1072 $1169 reversed $1083 $-1 #
edge $-1 $1189 10 $1078 40 $1168 $1182 forward 7 unknown #
convexity-sys-attrib $-1 $-1 $1073 $939 #
attrib_edge_convexity-kcp-attrib $-1 $1210 $-1 $1076 1 #
straight-curve $-1 40 -20 0 0 0 -1 I I #
convexity-sys-attrib $-1 $-1 $1077 $941 #
point $-1 40 -20 20 #
convexity-sys-attrib $-1 $-1 $1084 $946 #
straight-curve $-1 -40 -20 0 0 0 -1 I I #
edge $-1 $1166 -15 $1096 5 $1133 $1211 forward 7 unknown #
straight-curve $-1 0 10 0 -1 0 0 I I #
point $-1 10 10 0 #
model_id-kcp-attrib $-1 $-1 $-1 $1099 1 990663930 60 -1640235007 22 #
coedge $-1 $1102 $1212 $1126 $1192 forward $1083 $-1 #
straight-curve $-1 0 -20 20 1 0 0 I I #
point $-1 -40 -20 20 #
model_id-kcp-attrib $-1 $-1 $-1 $1107 1 990663930 60 -1640235007 26 #
plane-surface $-1 0 -20 0 0 1 0 0 0 1 forward_v I I I I #
coedge $-1 $1112 $1111 $1209 $1213 reversed $1113 $-1 #
edge $-1 $1114 35 $1214 40 $1111 $1097 forward 7 unknown #
point $-1 10 -15 0 #
vertex $-1 $1213 $1215 #
point $-1 35 10 20 #
coedge $-1 $1124 $1123 $1212 $1216 reversed $1122 $-1 #
edge $-1 $1193 -5 $1130 15 $1181 $1217 forward 7 unknown #
vertex $-1 $1216 $1218 #
model_id-kcp-attrib $-1 $-1 $-1 $1128 1 990663930 60 -1640235007 23 #
point $-1 -10 -20 20 #
convexity-sys-attrib $-1 $-1 $-1 $1138 #
straight-curve $-1 -13.75 20 10 1 0 0 I I #
point $-1 10 20 10 #
convexity-sys-attrib $-1 $-1 $-1 $1145 #
straight-curve $-1 10 8.75 10 0 -1 0 I I #
point $-1 10 10 10 #
convexity-sys-attrib $-1 $-1 $-1 $1153 #
straight-curve $-1 0 10 0 1 0 0 I I #
point $-1 20 10 0 #
convexity-sys-attrib $-1 $-1 $-1 $1160 #
straight-curve $-1 20 10 0 0 -1 0 I I #
point $-1 20 -15 0 #
point $-1 10 10 20 #
coedge $-1 $1212 $1168 $1186 $1213 forward $1083 $-1 #
convexity-sys-attrib $-1 $-1 $1171 $1076 #
straight-curve $-1 10 10 5 0 0 -1 I I #
coedge $-1 $1181 $1209 $1191 $1216 forward $1083 $-1 #
edge $-1 $1189 -15 $1214 5 $1209 $1219 forward 7 unknown #
vertex $-1 $1216 $1220 #
point $-1 10 -20 20 #
edge $-1 $1214 -10 $1193 10 $1212 $1221 forward 7 unknown #
straight-curve $-1 -10 -20 5 0 0 1 I I #
point $-1 -10 -20 0 #
straight-curve $-1 10 -20 5 0 0 -1 I I #
point $-1 10 -20 0 #
straight-curve $-1 0 -20 0 -1 0 0 I I #
End-of-ACIS-data 