#define _width 276
#define _height 270
static char _bits[] = {
 0x00,0x00,0x00,0x00,0x00,0x00,0x00,0x00,0x00,0x00,0x00,0x00,0x00,0x00,0x00,
 0x00,0x00,0x04,0x00,0x00,0x00,0x00,0x00,0x00,0x00,0x00,0x00,0x00,0x00,0x00,
 0x00,0x00,0x00,0x00,0x00,0x00,0x00,0x00,0x00,0x00,0x00,0x00,0x00,0x00,0x00,
 0x00,0x00,0x00,0x00,0x00,0x00,0x80,0x3b,0x00,0x00,0x00,0x00,0x00,0x00,0x00,
 0x00,0x00,0x00,0x00,0x00,0x00,0x00,0x00,0x00,0x00,0x00,0x00,0x00,0x00,0x00,
 0x00,0x00,0x00,0x00,0x00,0x00,0x00,0x00,0x00,0x00,0x00,0x70,0xc0,0x01,0x00,
 0x00,0x00,0x00,0x00,0x00,0x00,0x00,0x00,0x00,0x00,0x00,0x00,0x00,0x00,0x00,
 0x00,0x00,0x00,0x00,0x00,0x00,0x00,0x00,0x00,0x00,0x00,0x00,0x00,0x00,0x00,
 0x00,0x70,0xc0,0x01,0x00,0x00,0x00,0x00,0x00,0x00,0x00,0x00,0x00,0x00,0x00,
 0x00,0x00,0x00,0x00,0x00,0x00,0x00,0x00,0x00,0x00,0x00,0x00,0x00,0x00,0x00,
 0x00,0x00,0x00,0x00,0x00,0x00,0x0e,0x00,0x0e,0x00,0x00,0x00,0x00,0x00,0x00,
 0x00,0x00,0x00,0x00,0x00,0x00,0x00,0x00,0x00,0x00,0x00,0x00,0x00,0x00,0x00,
 0x00,0x00,0x00,0x00,0x00,0x00,0x00,0x00,0x00,0x00,0x00,0x01,0x00,0x30,0x00,
 0x00,0x00,0x00,0x00,0x00,0x00,0x00,0x00,0x00,0x00,0x00,0x00,0x00,0x00,0x00,
 0x00,0x00,0x00,0x00,0x00,0x00,0x00,0x00,0x00,0x00,0x00,0x00,0x00,0x00,0x00,
 0x00,0x01,0x00,0x30,0x00,0x00,0x00,0x00,0x00,0x00,0x00,0x00,0x00,0x00,0x00,
 0x00,0x00,0x00,0x00,0x00,0x00,0x00,0x00,0x00,0x00,0x00,0x00,0x00,0x00,0x00,
 0x00,0x00,0x00,0x00,0x00,0xe0,0x00,0x00,0xc0,0x00,0x00,0x00,0x00,0x00,0x00,
 0x00,0x00,0x00,0x00,0x00,0x00,0x00,0x00,0x00,0x00,0x00,0x00,0x00,0x00,0x00,
 0x00,0x00,0x00,0x00,0x00,0x00,0x00,0x00,0x00,0x00,0x1c,0x00,0x00,0x00,0x07,
 0x00,0x00,0x00,0x00,0x00,0x00,0x00,0x00,0x00,0x00,0x00,0x00,0x00,0x00,0x00,
 0x00,0x00,0x00,0x00,0x00,0x00,0x00,0x00,0x00,0x00,0x00,0x00,0x00,0x00,0x00,
 0x1c,0x00,0x00,0x00,0x07,0x00,0x00,0x00,0x00,0x00,0x00,0x00,0x00,0x00,0x00,
 0x00,0x00,0x00,0x00,0x00,0x00,0x00,0x00,0x00,0x00,0x00,0x00,0x00,0x00,0x00,
 0x00,0x00,0x00,0x00,0x80,0x03,0x00,0x00,0x00,0x18,0x00,0x00,0x00,0x00,0x00,
 0x00,0x00,0x00,0x00,0x00,0x00,0x00,0x00,0x00,0x00,0x00,0x00,0x00,0x00,0x00,
 0x00,0x00,0x00,0x00,0x00,0x00,0x00,0x00,0x00,0x40,0x00,0x00,0x00,0x00,0xe0,
 0x00,0x00,0x00,0x00,0x00,0x00,0x00,0x00,0x00,0x00,0x00,0x00,0x00,0x00,0x00,
 0x00,0x00,0x00,0x00,0x00,0x00,0x00,0x00,0x00,0x00,0x00,0x00,0x00,0x00,0x38,
 0x00,0x00,0x00,0x00,0x00,0x03,0x00,0x00,0x00,0x00,0x00,0x00,0x00,0x00,0x00,
 0x00,0x00,0x00,0x00,0x00,0x00,0x00,0x00,0x00,0x00,0x00,0x00,0x00,0x00,0x00,
 0x00,0x00,0x00,0x00,0x38,0x00,0x00,0x00,0x00,0x00,0x03,0x00,0x00,0x00,0x00,
 0x00,0x00,0x00,0x00,0x00,0x00,0x00,0x00,0x00,0x00,0x00,0x00,0x00,0x00,0x00,
 0x00,0x00,0x00,0x00,0x00,0x00,0x00,0x00,0x00,0x07,0x00,0x00,0x00,0x00,0x00,
 0x1c,0x00,0x00,0x00,0x00,0x00,0x00,0x00,0x00,0x00,0x00,0x00,0x00,0x00,0x00,
 0x00,0x00,0x00,0x00,0x00,0x00,0x00,0x00,0x00,0x00,0x00,0x00,0x00,0xe0,0x00,
 0x00,0x00,0x00,0x00,0x00,0x60,0x00,0x00,0x00,0x00,0x00,0x00,0x00,0x00,0x00,
 0x00,0x00,0x00,0x00,0x00,0x00,0x00,0x00,0x00,0x00,0x00,0x00,0x00,0x00,0x00,
 0x00,0x00,0x00,0xe0,0x00,0x00,0x00,0x00,0x00,0x00,0x60,0x00,0x00,0x00,0x00,
 0x00,0x00,0x00,0x00,0x00,0x00,0x00,0x00,0x00,0x00,0x00,0x00,0x00,0x00,0x00,
 0x00,0x00,0x00,0x00,0x00,0x00,0x00,0x00,0x10,0x00,0x00,0xf0,0xff,0x00,0x00,
 0x80,0x03,0x00,0x00,0x00,0x00,0x00,0x00,0x00,0x00,0x00,0x00,0x00,0x00,0x00,
 0x00,0x00,0x00,0x00,0x00,0x00,0x00,0x00,0x00,0x00,0x00,0x00,0x00,0x0e,0x00,
 0x00,0x0e,0x00,0x0f,0x00,0x00,0x1c,0x00,0x00,0x00,0x00,0x00,0x00,0x00,0x00,
 0x00,0x00,0x00,0x00,0x00,0x00,0x00,0x00,0x00,0x00,0x00,0x00,0x00,0x00,0x00,
 0x00,0x00,0x00,0x0e,0x00,0x00,0x0e,0x00,0x0f,0x00,0x00,0x1c,0x00,0x00,0x00,
 0x00,0x00,0x00,0x00,0x00,0x00,0x00,0x00,0x00,0x00,0x00,0x00,0x00,0x00,0x00,
 0x00,0x00,0x00,0x00,0x00,0x00,0x00,0xc0,0x01,0x00,0xc0,0x01,0x00,0x30,0x00,
 0x00,0x60,0x00,0x00,0x00,0x00,0x00,0x00,0x00,0x00,0x00,0x00,0x00,0x00,0x00,
 0x00,0x00,0x00,0x00,0x00,0x00,0x00,0x00,0x00,0x00,0x00,0x00,0x38,0x00,0x00,
 0xf0,0x00,0x00,0xf0,0x00,0x00,0x80,0x01,0x00,0x00,0x00,0x00,0x00,0x00,0x00,
 0x00,0x00,0x00,0x00,0x00,0x00,0x00,0x00,0x00,0x00,0x00,0x00,0x00,0x00,0x00,
 0x00,0x00,0x38,0x00,0x00,0xf0,0x00,0x00,0xf0,0x00,0x00,0x80,0x01,0x00,0x00,
 0x00,0x00,0x00,0x00,0x00,0x00,0x00,0x00,0x00,0x00,0x00,0x00,0x00,0x00,0x00,
 0x00,0x00,0x00,0x00,0x00,0x00,0x00,0x04,0x00,0x00,0xce,0x00,0x00,0x30,0x07,
 0x00,0x00,0x0e,0x00,0x00,0x00,0x00,0x00,0x00,0x00,0x00,0x00,0x00,0x00,0x00,
 0x00,0x00,0x00,0x00,0x00,0x00,0x00,0x00,0x00,0x00,0x00,0x80,0x03,0x00,0xc0,
 0xc1,0x00,0x00,0x30,0x38,0x00,0x00,0x70,0x00,0x00,0x00,0x00,0x00,0x00,0x00,
 0x00,0x00,0x00,0x00,0x00,0x00,0x00,0x00,0x00,0x00,0x00,0x00,0x00,0x00,0x00,
 0x00,0x70,0x00,0x00,0x30,0xc0,0x00,0x00,0x30,0xc0,0x01,0x00,0x80,0x00,0x00,
 0x00,0x00,0x00,0x00,0x00,0x00,0x00,0x00,0x00,0x00,0x00,0x00,0x00,0x00,0x00,
 0x00,0x00,0x00,0x00,0x00,0x00,0x70,0x00,0x00,0x30,0xc0,0x00,0x00,0x30,0xc0,
 0x01,0x00,0x80,0x00,0x00,0x00,0x00,0x00,0x00,0x00,0x00,0x00,0x00,0x00,0x00,
 0x00,0x00,0x00,0x00,0x00,0x00,0x00,0x00,0x00,0x00,0x00,0x0e,0x00,0x00,0x0c,
 0xc0,0x00,0x00,0x30,0x00,0x02,0x00,0x00,0x07,0x00,0x00,0x00,0x00,0x00,0x00,
 0x00,0x00,0x00,0x00,0x00,0x00,0x00,0x00,0x00,0x00,0x00,0x00,0x00,0x00,0x00,
 0x00,0x01,0x00,0x80,0x03,0xc0,0x00,0x00,0x30,0x00,0x1c,0x00,0x00,0x38,0x00,
 0x00,0x00,0x00,0x00,0x00,0x00,0x00,0x00,0x00,0x00,0x00,0x00,0x00,0x00,0x00,
 0x00,0x00,0x00,0x00,0x00,0x00,0x01,0x00,0x80,0x03,0xc0,0x00,0x00,0x30,0x00,
 0x1c,0x00,0x00,0x38,0x00,0x00,0x00,0x00,0x00,0x00,0x00,0x00,0x00,0x00,0x00,
 0x00,0x00,0x00,0x00,0x00,0x00,0x00,0x00,0x00,0x00,0xe0,0x00,0x00,0x70,0x00,
 0xc0,0x00,0x00,0x30,0x00,0xe0,0x00,0x00,0xc0,0x01,0x00,0x00,0x00,0x00,0x00,
 0x00,0x00,0x00,0x00,0x00,0x00,0x00,0x00,0x00,0x00,0x00,0x00,0x00,0x00,0x00,
 0x1c,0x00,0x00,0x0e,0x00,0xc0,0x00,0x00,0x30,0x00,0x00,0x07,0x00,0x00,0x02,
 0x00,0x00,0x00,0x00,0x00,0x00,0x00,0x00,0x00,0x00,0x00,0x00,0x00,0x00,0x00,
 0x00,0x00,0x00,0x00,0x00,0x1c,0x00,0x00,0x0e,0x00,0xc0,0x00,0x00,0x30,0x00,
 0x00,0x07,0x00,0x00,0x02,0x00,0x00,0x00,0x00,0x00,0x00,0x00,0x00,0x00,0x00,
 0x00,0x00,0x00,0x00,0x00,0x00,0x00,0x00,0x00,0x80,0x03,0x00,0x80,0x01,0x00,
 0xc0,0x00,0x00,0x30,0x00,0x00,0x18,0x00,0x00,0x1c,0x00,0x00,0x00,0x00,0x00,
 0x00,0x00,0x00,0x00,0x00,0x00,0x00,0x00,0x00,0x00,0x00,0x00,0x00,0x00,0x40,
 0x00,0x00,0x60,0x00,0x00,0xc0,0x00,0x00,0x30,0x00,0x00,0x60,0x00,0x00,0xe0,
 0x00,0x00,0x00,0x00,0x00,0x00,0x00,0x00,0x00,0x00,0x00,0x00,0x00,0x00,0x00,
 0x00,0x00,0x00,0x00,0x40,0x00,0x00,0x60,0x00,0x00,0xc0,0x00,0x00,0x30,0x00,
 0x00,0x60,0x00,0x00,0xe0,0x00,0x00,0x00,0x00,0x00,0x00,0x00,0x00,0x00,0x00,
 0x00,0x00,0x00,0x00,0x00,0x00,0x00,0x00,0x00,0x38,0x00,0x00,0x1c,0x00,0x00,
 0xc0,0x00,0x00,0x30,0x00,0x00,0x80,0x03,0x00,0x00,0x07,0x00,0x00,0x00,0x00,
 0x00,0x00,0x00,0x00,0x00,0x00,0x00,0x00,0x00,0x00,0x00,0x00,0x00,0x00,0x07,
 0x00,0x80,0x03,0x00,0x00,0xc0,0x00,0x00,0x30,0x00,0x00,0x00,0x1c,0x00,0x00,
 0x08,0x00,0x00,0x00,0x00,0x00,0x00,0x00,0x00,0x00,0x00,0x00,0x00,0x00,0x00,
 0x00,0x00,0x00,0xe0,0x00,0x00,0x60,0x00,0x00,0x00,0xc0,0x00,0x00,0x30,0x00,
 0x00,0x00,0xe0,0x00,0x00,0x70,0x00,0x00,0x00,0x00,0x00,0x00,0x00,0x00,0x00,
 0x00,0x00,0x00,0x00,0x00,0x00,0x00,0x00,0xe0,0x00,0x00,0x60,0x00,0x00,0x00,
 0xc0,0x00,0x00,0x30,0x00,0x00,0x00,0xe0,0x00,0x00,0x70,0x00,0x00,0x00,0x00,
 0x00,0x00,0x00,0x00,0x00,0x00,0x00,0x00,0x00,0x00,0x00,0x00,0x00,0x18,0x00,
 0x00,0x1c,0x00,0x00,0x00,0xc0,0x00,0x00,0x30,0x00,0x00,0x00,0x00,0x03,0x00,
 0x80,0x03,0x00,0x00,0x00,0x00,0x00,0x00,0x00,0x00,0x00,0x00,0x00,0x00,0x00,
 0x00,0x00,0x00,0x06,0x00,0x00,0x03,0x00,0x00,0x00,0xc0,0x00,0x00,0x30,0x00,
 0x00,0x00,0x00,0x0c,0x00,0x00,0x04,0x00,0x00,0x00,0x00,0x00,0x00,0x00,0x00,
 0x00,0x00,0x00,0x00,0x00,0x00,0x00,0x00,0x06,0x00,0x00,0x03,0x00,0x00,0x00,
 0xc0,0x00,0x00,0x30,0x00,0x00,0x00,0x00,0x0c,0x00,0x00,0x04,0x00,0x00,0x00,
 0x00,0x00,0x00,0x00,0x00,0x00,0x00,0x00,0x00,0x00,0x00,0x00,0xc0,0x01,0x00,
 0xe0,0x00,0x00,0x00,0x00,0xc0,0xf0,0xff,0x30,0x00,0x00,0x00,0x00,0x70,0x00,
 0x00,0x38,0x00,0x00,0x00,0x00,0x00,0x00,0x00,0x00,0x00,0x00,0x00,0x00,0x00,
 0x00,0x00,0x30,0x00,0x00,0x1c,0x00,0x00,0x00,0x00,0xc0,0x0f,0x00,0x37,0x00,
 0x00,0x00,0x00,0x80,0x03,0x00,0xc0,0x01,0x00,0x00,0x00,0x00,0x00,0x00,0x00,
 0x00,0x00,0x00,0x00,0x00,0x00,0x00,0x30,0x00,0x00,0x1c,0x00,0x00,0x00,0x00,
 0xc0,0x0f,0x00,0x37,0x00,0x00,0x00,0x00,0x80,0x03,0x00,0xc0,0x01,0x00,0x00,
 0x00,0x00,0x00,0x00,0x00,0x00,0x00,0x00,0x00,0x00,0x00,0x00,0x0e,0x00,0x00,
 0x03,0x00,0x00,0x00,0x00,0xc0,0x00,0x00,0x38,0x00,0x00,0x00,0x00,0x00,0x0c,
 0x00,0x00,0x0e,0x00,0x00,0x00,0x00,0x00,0x00,0x00,0x00,0x00,0x00,0x00,0x00,
 0x00,0xc0,0x01,0x00,0xc0,0x00,0x00,0x00,0x00,0x00,0x30,0x00,0x00,0xc0,0x00,
 0x00,0x00,0x00,0x00,0x30,0x00,0x00,0x30,0x00,0x00,0x00,0x00,0x00,0x00,0x00,
 0x00,0x00,0x00,0x00,0x00,0x00,0x30,0x00,0x00,0x38,0x00,0x00,0x00,0x00,0x00,
 0x0e,0x00,0x00,0x00,0x07,0x00,0x00,0x00,0x00,0xc0,0x01,0x00,0xc0,0x00,0x00,
 0x00,0x00,0x00,0x00,0x00,0x00,0x00,0x00,0x00,0x00,0x00,0x30,0x00,0x00,0x38,
 0x00,0x00,0x00,0x00,0x00,0x0e,0x00,0x00,0x00,0x07,0x00,0x00,0x00,0x00,0xc0,
 0x01,0x00,0xc0,0x00,0x00,0x00,0x00,0x00,0x00,0x00,0x00,0x00,0x00,0x00,0x00,
 0x00,0x0c,0x00,0x00,0x07,0x00,0x00,0x00,0x00,0xc0,0x01,0x00,0x00,0x00,0x38,
 0x00,0x00,0x00,0x00,0x00,0x0e,0x00,0x00,0x07,0x00,0x00,0x00,0x00,0x00,0x00,
 0x00,0x00,0x00,0x00,0x00,0x80,0x03,0x00,0xc0,0x00,0x00,0x00,0x00,0x00,0x30,
 0x00,0x00,0x00,0x00,0xc0,0x00,0x00,0x00,0x00,0x00,0x70,0x00,0x00,0x38,0x00,
 0x00,0x00,0x00,0x00,0x00,0x00,0x00,0x00,0x00,0x00,0x80,0x03,0x00,0xc0,0x00,
 0x00,0x00,0x00,0x00,0x30,0x00,0x00,0x00,0x00,0xc0,0x00,0x00,0x00,0x00,0x00,
 0x70,0x00,0x00,0x38,0x00,0x00,0x00,0x00,0x00,0x00,0x00,0x00,0x00,0x00,0x00,
 0x70,0x00,0x00,0x38,0x00,0x00,0x00,0x00,0x00,0x0c,0x00,0x00,0x00,0x00,0x00,
 0x03,0x00,0x00,0x00,0x00,0x80,0x01,0x00,0xc0,0x00,0x00,0x00,0x00,0x00,0x00,
 0x00,0x00,0x00,0x00,0x00,0x0c,0x00,0x00,0x06,0x00,0x00,0x00,0x00,0x80,0x03,
 0x00,0x00,0x00,0x00,0x00,0x1c,0x00,0x00,0x00,0x00,0x00,0x06,0x00,0x00,0x03,
 0x00,0x00,0x00,0x00,0x00,0x00,0x00,0x00,0x00,0x00,0x0c,0x00,0x00,0x06,0x00,
 0x00,0x00,0x00,0x80,0x03,0x00,0x00,0x00,0x00,0x00,0x1c,0x00,0x00,0x00,0x00,
 0x00,0x06,0x00,0x00,0x03,0x00,0x00,0x00,0x00,0x00,0x00,0x00,0x00,0x00,0x00,
 0x03,0x00,0xc0,0x01,0x00,0x00,0x00,0x00,0x70,0x00,0x00,0xf0,0xff,0x00,0x00,
 0xe0,0x00,0x00,0x00,0x00,0x00,0x38,0x00,0x00,0x1c,0x00,0x00,0x00,0x00,0x00,
 0x00,0x00,0x00,0x00,0xe0,0x00,0x00,0x38,0x00,0x00,0x00,0x00,0x00,0x0c,0x00,
 0x00,0x0f,0x00,0x07,0x00,0x00,0x03,0x00,0x00,0x00,0x00,0xc0,0x01,0x00,0x60,
 0x00,0x00,0x00,0x00,0x00,0x00,0x00,0x00,0x00,0xe0,0x00,0x00,0x38,0x00,0x00,
 0x00,0x00,0x00,0x0c,0x00,0x00,0x0f,0x00,0x07,0x00,0x00,0x03,0x00,0x00,0x00,
 0x00,0xc0,0x01,0x00,0x60,0x00,0x00,0x00,0x00,0x00,0x00,0x00,0x00,0x00,0x1c,
 0x00,0x00,0x06,0x00,0x00,0x00,0x00,0x80,0x03,0x00,0xc0,0x00,0x00,0x38,0x00,
 0x00,0x1c,0x00,0x00,0x00,0x00,0x00,0x06,0x00,0x80,0x03,0x00,0x00,0x00,0x00,
 0x00,0x00,0x00,0x80,0x03,0x00,0xc0,0x01,0x00,0x00,0x00,0x00,0x60,0x00,0x00,
 0xf0,0x00,0x00,0xf0,0x00,0x00,0x60,0x00,0x00,0x00,0x00,0x00,0x38,0x00,0x00,
 0x1c,0x00,0x00,0x00,0x00,0x00,0x00,0x00,0x40,0x00,0x00,0x30,0x00,0x00,0x00,
 0x00,0x00,0x1c,0x00,0x00,0xce,0x00,0x00,0x30,0x07,0x00,0x80,0x03,0x00,0x00,
 0x00,0x00,0xc0,0x00,0x00,0x60,0x00,0x00,0x00,0x00,0x00,0x00,0x00,0x40,0x00,
 0x00,0x30,0x00,0x00,0x00,0x00,0x00,0x1c,0x00,0x00,0xce,0x00,0x00,0x30,0x07,
 0x00,0x80,0x03,0x00,0x00,0x00,0x00,0xc0,0x00,0x00,0x60,0x00,0x00,0x00,0x00,
 0x00,0x00,0x00,0x38,0x00,0x00,0x0e,0x00,0x00,0x00,0x00,0x00,0x03,0x00,0xc0,
 0xc1,0x00,0x00,0x30,0x18,0x00,0x00,0x0c,0x00,0x00,0x00,0x00,0x00,0x07,0x00,
 0x80,0x01,0x00,0x00,0x00,0x00,0x00,0x00,0x07,0x00,0xc0,0x01,0x00,0x00,0x00,
 0x00,0xe0,0x00,0x00,0x30,0xc0,0x00,0x00,0x30,0xe0,0x00,0x00,0x70,0x00,0x00,
 0x00,0x00,0x00,0x38,0x00,0x00,0x0e,0x00,0x00,0x00,0x00,0x00,0x00,0x07,0x00,
 0xc0,0x01,0x00,0x00,0x00,0x00,0xe0,0x00,0x00,0x30,0xc0,0x00,0x00,0x30,0xe0,
 0x00,0x00,0x70,0x00,0x00,0x00,0x00,0x00,0x38,0x00,0x00,0x0e,0x00,0x00,0x00,
 0x00,0x00,0xe0,0x00,0x00,0x30,0x00,0x00,0x00,0x00,0x00,0x1c,0x00,0x00,0x0c,
 0xc0,0x00,0x00,0x30,0x00,0x03,0x00,0x80,0x03,0x00,0x00,0x00,0x00,0xc0,0x00,
 0x00,0x70,0x00,0x00,0x00,0x00,0x00,0x10,0x00,0x00,0x0c,0x00,0x00,0x00,0x00,
 0x00,0x03,0x00,0x80,0x03,0xc0,0x00,0x00,0x30,0x00,0x1c,0x00,0x00,0x0c,0x00,
 0x00,0x00,0x00,0x00,0x03,0x00,0x80,0x03,0x00,0x00,0x00,0x00,0x10,0x00,0x00,
 0x0c,0x00,0x00,0x00,0x00,0x00,0x03,0x00,0x80,0x03,0xc0,0x00,0x00,0x30,0x00,
 0x1c,0x00,0x00,0x0c,0x00,0x00,0x00,0x00,0x00,0x03,0x00,0x80,0x03,0x00,0x00,
 0x00,0x00,0x0e,0x00,0x80,0x03,0x00,0x00,0x00,0x00,0xc0,0x00,0x00,0x60,0x00,
 0xc0,0x00,0x00,0x30,0x00,0x60,0x00,0x00,0x30,0x00,0x00,0x00,0x00,0x00,0x1c,
 0x00,0x00,0x04,0x00,0x00,0x00,0xc0,0x01,0x00,0x70,0x00,0x00,0x00,0x00,0x00,
 0x38,0x00,0x00,0x1c,0x00,0xc0,0x00,0x00,0x30,0x00,0x80,0x03,0x00,0xc0,0x01,
 0x00,0x00,0x00,0x00,0xe0,0x00,0x00,0x38,0x00,0x00,0x00,0xc0,0x01,0x00,0x70,
 0x00,0x00,0x00,0x00,0x00,0x38,0x00,0x00,0x1c,0x00,0xc0,0x00,0x00,0x30,0x00,
 0x80,0x03,0x00,0xc0,0x01,0x00,0x00,0x00,0x00,0xe0,0x00,0x00,0x38,0x00,0x00,
 0x00,0x38,0x00,0x00,0x0c,0x00,0x00,0x00,0x00,0x00,0x07,0x00,0x80,0x03,0x00,
 0xc0,0x00,0x00,0x30,0x00,0x00,0x1c,0x00,0x00,0x0e,0x00,0x00,0x00,0x00,0x00,
 0x03,0x00,0xc0,0x01,0x00,0x00,0x04,0x00,0x00,0x0e,0x00,0x00,0x00,0x00,0xc0,
 0x00,0x00,0x60,0x00,0x00,0xc0,0x00,0x00,0x30,0x00,0x00,0x20,0x00,0x00,0x30,
 0x00,0x00,0x00,0x00,0x00,0x07,0x00,0x00,0x02,0x00,0x80,0x03,0x00,0x80,0x0d,
 0x00,0x00,0x00,0x00,0x30,0x00,0x00,0x18,0x00,0x00,0xc0,0x00,0x00,0x30,0x00,
 0x00,0xc0,0x01,0x00,0xc0,0x00,0x00,0x00,0x00,0x00,0x1b,0x00,0x00,0x1c,0x00,
 0x80,0x03,0x00,0x80,0x0d,0x00,0x00,0x00,0x00,0x30,0x00,0x00,0x18,0x00,0x00,
 0xc0,0x00,0x00,0x30,0x00,0x00,0xc0,0x01,0x00,0xc0,0x00,0x00,0x00,0x00,0x00,
 0x1b,0x00,0x00,0x1c,0x00,0x70,0x00,0x00,0x40,0x0c,0x00,0x00,0x00,0x00,0x0e,
 0x00,0x00,0x07,0x00,0x00,0xc0,0x00,0x00,0x30,0x00,0x00,0x00,0x0e,0x00,0x00,
 0x07,0x00,0x00,0x00,0x00,0x23,0x00,0x00,0xe0,0x00,0x0e,0x00,0x00,0x40,0x0c,
 0x00,0x00,0x00,0xc0,0x01,0x00,0xe0,0x00,0x00,0x00,0xc0,0x00,0x00,0x30,0x00,
 0x00,0x00,0x70,0x00,0x00,0x38,0x00,0x00,0x00,0x00,0x23,0x00,0x00,0x00,0x07,
 0x0e,0x00,0x00,0x40,0x0c,0x00,0x00,0x00,0xc0,0x01,0x00,0xe0,0x00,0x00,0x00,
 0xc0,0x00,0x00,0x30,0x00,0x00,0x00,0x70,0x00,0x00,0x38,0x00,0x00,0x00,0x00,
 0x23,0x00,0x00,0x00,0x07,0x01,0x00,0x00,0x40,0x0c,0x00,0x00,0x00,0x38,0x00,
 0x00,0x10,0x00,0x00,0x00,0xc0,0x00,0x00,0x30,0x00,0x00,0x00,0x80,0x00,0x00,
 0xc0,0x01,0x00,0x00,0x00,0x23,0x00,0x00,0x00,0x08,0x0f,0x00,0x00,0x40,0x0c,
 0x00,0x00,0x00,0x04,0x00,0x00,0x0e,0x00,0x00,0x00,0xc0,0x00,0x00,0x30,0x00,
 0x00,0x00,0x00,0x07,0x00,0x00,0x02,0x00,0x00,0x00,0x23,0x00,0x00,0x00,0x0f,
 0x0f,0x00,0x00,0x40,0x0c,0x00,0x00,0x00,0x04,0x00,0x00,0x0e,0x00,0x00,0x00,
 0xc0,0x00,0x00,0x30,0x00,0x00,0x00,0x00,0x07,0x00,0x00,0x02,0x00,0x00,0x00,
 0x23,0x00,0x00,0x00,0x0f,0x71,0x00,0x00,0x80,0x0d,0x00,0x00,0x80,0x03,0x00,
 0xc0,0x01,0x00,0x00,0x00,0xc0,0x00,0x00,0x30,0x00,0x00,0x00,0x00,0x38,0x00,
 0x00,0x1c,0x00,0x00,0x00,0x23,0x00,0x00,0xe0,0x08,0x81,0x03,0x00,0x80,0x0d,
 0x00,0x00,0x70,0x00,0x00,0x38,0x00,0x00,0x00,0x00,0xc0,0xff,0xff,0x3f,0x00,
 0x00,0x00,0x00,0x40,0x00,0x00,0xe0,0x00,0x00,0x00,0x1f,0x00,0x00,0x1c,0x08,
 0x01,0x04,0x00,0x00,0x0e,0x00,0x00,0x0e,0x00,0x00,0x04,0x00,0x00,0x00,0x00,
 0xc0,0x00,0x00,0x30,0x00,0x00,0x00,0x00,0x80,0x03,0x00,0x00,0x07,0x00,0x00,
 0x03,0x00,0x00,0x02,0x08,0x01,0x04,0x00,0x00,0x0e,0x00,0x00,0x0e,0x00,0x00,
 0x04,0x00,0x00,0x00,0x00,0xc0,0x00,0x00,0x30,0x00,0x00,0x00,0x00,0x80,0x03,
 0x00,0x00,0x07,0x00,0x00,0x03,0x00,0x00,0x02,0x08,0x01,0x38,0x00,0x00,0x70,
 0x00,0x00,0x01,0x00,0x80,0x03,0x00,0x00,0x00,0x00,0x30,0x00,0x00,0xc0,0x00,
 0x00,0x00,0x00,0x00,0x1c,0x00,0x00,0x08,0x00,0xe0,0x00,0x00,0xc0,0x01,0x08,
 0x01,0xc0,0x01,0x00,0x80,0x03,0xe0,0x00,0x00,0x70,0x00,0x00,0x00,0x00,0x00,
 0x0e,0x00,0x00,0x00,0x07,0x00,0x00,0x00,0x00,0xe0,0x00,0x00,0x70,0x00,0x1c,
 0x00,0x00,0x38,0x00,0x08,0x01,0xc0,0x01,0x00,0x80,0x03,0xe0,0x00,0x00,0x70,
 0x00,0x00,0x00,0x00,0x00,0x0e,0x00,0x00,0x00,0x07,0x00,0x00,0x00,0x00,0xe0,
 0x00,0x00,0x70,0x00,0x1c,0x00,0x00,0x38,0x00,0x08,0x01,0x00,0x0e,0x00,0x00,
 0x0c,0x1c,0x00,0x00,0x08,0x00,0x00,0x00,0x00,0x80,0x01,0x00,0x00,0x00,0x18,
 0x00,0x00,0x00,0x00,0x00,0x01,0x00,0x80,0x03,0x03,0x00,0x00,0x04,0x00,0x08,
 0x01,0x00,0x10,0x00,0x00,0xb0,0x03,0x00,0x00,0x07,0x00,0x00,0x00,0x00,0x70,
 0x00,0x00,0x00,0x00,0xe0,0x00,0x00,0x00,0x00,0x00,0x0e,0x00,0x00,0xdc,0x00,
 0x00,0x80,0x03,0x00,0x08,0x01,0x00,0x10,0x00,0x00,0xb0,0x03,0x00,0x00,0x07,
 0x00,0x00,0x00,0x00,0x70,0x00,0x00,0x00,0x00,0xe0,0x00,0x00,0x00,0x00,0x00,
 0x0e,0x00,0x00,0xdc,0x00,0x00,0x80,0x03,0x00,0x08,0x01,0x00,0xe0,0x00,0x00,
 0xc0,0x01,0x00,0xe0,0x00,0x00,0x00,0x00,0x00,0x0c,0x00,0x00,0x00,0x00,0x00,
 0x03,0x00,0x00,0x00,0x00,0x70,0x00,0x00,0x38,0x00,0x00,0x70,0x00,0x00,0x08,
 0x01,0x00,0x00,0x07,0x00,0x00,0x0e,0x00,0x1c,0x00,0x00,0x00,0x00,0x00,0x03,
 0x00,0x00,0x00,0x00,0x00,0x0c,0x00,0x00,0x00,0x00,0x80,0x01,0x00,0x07,0x00,
 0x00,0x0e,0x00,0x00,0x08,0x01,0x00,0x00,0x07,0x00,0x00,0x0e,0x00,0x1c,0x00,
 0x00,0x00,0x00,0x00,0x03,0x00,0x00,0x00,0x00,0x00,0x0c,0x00,0x00,0x00,0x00,
 0x80,0x01,0x00,0x07,0x00,0x00,0x0e,0x00,0x00,0x08,0x01,0x00,0x00,0x38,0x00,
 0x00,0x10,0x00,0x02,0x00,0x00,0x00,0x00,0xe0,0x00,0x00,0xf0,0x3f,0x00,0x00,
 0x70,0x00,0x00,0x00,0x00,0x00,0x06,0x80,0x00,0x00,0x80,0x01,0x00,0x00,0x08,
 0x01,0x00,0x00,0x40,0x00,0x00,0xe0,0xc0,0x01,0x00,0x00,0x00,0x00,0x1c,0x00,
 0x00,0x0e,0xc0,0x01,0x00,0x80,0x03,0x00,0x00,0x00,0x00,0x38,0x70,0x00,0x00,
 0x60,0x00,0x00,0x00,0x08,0x01,0x00,0x00,0x80,0x03,0x00,0x00,0x3f,0x00,0x00,
 0x00,0x00,0x80,0x03,0x00,0x00,0x01,0x00,0x0e,0x00,0x00,0x1c,0x00,0x00,0x00,
 0x00,0xc0,0x0f,0x00,0x00,0x1c,0x00,0x00,0x00,0x08,0x01,0x00,0x00,0x80,0x03,
 0x00,0x00,0x3f,0x00,0x00,0x00,0x00,0x80,0x03,0x00,0x00,0x01,0x00,0x0e,0x00,
 0x00,0x1c,0x00,0x00,0x00,0x00,0xc0,0x0f,0x00,0x00,0x1c,0x00,0x00,0x00,0x08,
 0x01,0x00,0x00,0x00,0x1c,0x00,0x00,0x3e,0x00,0x00,0x00,0x00,0x40,0x00,0x00,
 0xe0,0x01,0x00,0x78,0x00,0x00,0x20,0x00,0x00,0x00,0x00,0xc0,0x07,0x00,0x80,
 0x03,0x00,0x00,0x00,0x08,0x01,0x00,0x00,0x00,0xe0,0x00,0x00,0x40,0x00,0x00,
 0x00,0x00,0x38,0x00,0x00,0x1c,0x01,0x00,0x88,0x03,0x00,0xc0,0x01,0x00,0x00,
 0x00,0x20,0x00,0x00,0x60,0x00,0x00,0x00,0x00,0x08,0x01,0x00,0x00,0x00,0xe0,
 0x00,0x00,0x40,0x00,0x00,0x00,0x00,0x38,0x00,0x00,0x1c,0x01,0x00,0x88,0x03,
 0x00,0xc0,0x01,0x00,0x00,0x00,0x20,0x00,0x00,0x60,0x00,0x00,0x00,0x00,0x08,
 0x01,0x00,0x00,0x00,0x00,0x03,0x00,0x80,0x03,0x00,0x00,0x00,0x07,0x00,0x80,
 0x03,0x01,0x00,0x08,0x1c,0x00,0x00,0x0e,0x00,0x00,0x00,0x1c,0x00,0x00,0x1c,
 0x00,0x00,0x00,0x00,0x08,0x01,0x00,0x00,0x00,0x00,0x0c,0x00,0x00,0x1c,0x00,
 0x00,0x80,0x00,0x00,0x40,0x00,0x01,0x00,0x08,0xe0,0x00,0x00,0x10,0x00,0x00,
 0x80,0x03,0x00,0x00,0x03,0x00,0x00,0x00,0x00,0x08,0x01,0x00,0x00,0x00,0x00,
 0x0c,0x00,0x00,0x1c,0x00,0x00,0x80,0x00,0x00,0x40,0x00,0x01,0x00,0x08,0xe0,
 0x00,0x00,0x10,0x00,0x00,0x80,0x03,0x00,0x00,0x03,0x00,0x00,0x00,0x00,0x08,
 0x01,0x00,0x00,0x00,0x00,0x70,0x00,0x00,0xe0,0x00,0x00,0x70,0x00,0x00,0x38,
 0x00,0x01,0x00,0x08,0x00,0x01,0x00,0xe0,0x00,0x00,0x70,0x00,0x00,0xc0,0x00,
 0x00,0x00,0x00,0x00,0x08,0x01,0x00,0x00,0x00,0x00,0x80,0x03,0x00,0x00,0x01,
 0x00,0x0e,0x00,0x00,0x07,0x00,0x01,0x00,0x08,0x00,0x0e,0x00,0x00,0x07,0x00,
 0x08,0x00,0x00,0x38,0x00,0x00,0x00,0x00,0x00,0x08,0x01,0x00,0x00,0x00,0x00,
 0x80,0x03,0x00,0x00,0x01,0x00,0x0e,0x00,0x00,0x07,0x00,0x01,0x00,0x08,0x00,
 0x0e,0x00,0x00,0x07,0x00,0x08,0x00,0x00,0x38,0x00,0x00,0x00,0x00,0x00,0x08,
 0x01,0x00,0x00,0x00,0x00,0x00,0x0c,0x00,0x00,0x0e,0x00,0x01,0x00,0xe0,0x00,
 0x00,0x01,0x00,0x08,0x00,0x70,0x00,0x00,0x08,0x00,0x07,0x00,0x00,0x07,0x00,
 0x00,0x00,0x00,0x00,0x08,0x01,0x00,0x00,0x00,0x00,0x00,0x30,0x00,0x00,0x70,
 0xe0,0x00,0x00,0x1c,0x00,0x00,0x01,0x00,0x08,0x00,0x80,0x03,0x00,0x70,0xe0,
 0x00,0x00,0xc0,0x00,0x00,0x00,0x00,0x00,0x00,0x08,0x01,0x00,0x00,0x00,0x00,
 0x00,0xc0,0x01,0x00,0x80,0x1c,0x00,0x00,0x1c,0x00,0x00,0x01,0x00,0x08,0x00,
 0x00,0x04,0x00,0x80,0x1f,0x00,0x00,0x30,0x00,0x00,0x00,0x00,0x00,0x00,0x08,
 0x01,0x00,0x00,0x00,0x00,0x00,0xc0,0x01,0x00,0x80,0x1c,0x00,0x00,0x1c,0x00,
 0x00,0x01,0x00,0x08,0x00,0x00,0x04,0x00,0x80,0x1f,0x00,0x00,0x30,0x00,0x00,
 0x00,0x00,0x00,0x00,0x08,0x01,0x00,0x00,0x00,0x00,0x00,0x00,0x0e,0x00,0x00,
 0x07,0x00,0x00,0x1c,0x00,0x00,0x01,0x00,0x08,0x00,0x00,0x38,0x00,0x00,0x0e,
 0x00,0x00,0x0e,0x00,0x00,0x00,0x00,0x00,0x00,0x08,0x01,0x00,0x00,0x00,0x00,
 0x00,0x00,0x30,0x00,0x00,0x38,0x00,0x00,0x1c,0x00,0x00,0x01,0x00,0x08,0x00,
 0x00,0xc0,0x01,0xc0,0x01,0x00,0xc0,0x01,0x00,0x00,0x00,0x00,0x00,0x00,0x08,
 0x01,0x00,0x00,0x00,0x00,0x00,0x00,0x30,0x00,0x00,0x38,0x00,0x00,0x1c,0x00,
 0x00,0x01,0x00,0x08,0x00,0x00,0xc0,0x01,0xc0,0x01,0x00,0xc0,0x01,0x00,0x00,
 0x00,0x00,0x00,0x00,0x08,0x01,0x00,0x00,0x00,0x00,0x00,0x00,0xc0,0x01,0x00,
 0xc0,0x01,0x00,0x10,0x00,0x00,0x01,0x00,0x08,0x00,0x00,0x00,0x0e,0x38,0x00,
 0x00,0x38,0x00,0x00,0x00,0x00,0x00,0x00,0x00,0x08,0x01,0x00,0x00,0x00,0x00,
 0x00,0x00,0x00,0x06,0x00,0x00,0x02,0x00,0xe0,0x00,0x00,0x01,0x00,0x08,0x00,
 0x00,0x00,0x70,0x04,0x00,0x00,0x04,0x00,0x00,0x00,0x00,0x00,0x00,0x00,0x08,
 0x01,0x00,0x00,0x00,0x00,0x00,0x00,0x00,0x06,0x00,0x00,0x02,0x00,0xe0,0x00,
 0x00,0x01,0x00,0x08,0x00,0x00,0x00,0x70,0x04,0x00,0x00,0x04,0x00,0x00,0x00,
 0x00,0x00,0x00,0x00,0x08,0x01,0x00,0x00,0x00,0x00,0x00,0x00,0x00,0x18,0x00,
 0x00,0x1c,0x00,0x00,0x07,0x00,0x01,0x04,0x08,0x00,0x00,0x00,0x80,0x03,0x00,
 0x80,0x03,0x00,0x00,0x00,0x00,0x00,0x00,0x00,0x08,0x01,0x00,0x00,0x00,0x00,
 0x00,0x00,0x00,0xe0,0x00,0x00,0xe0,0x00,0x00,0x38,0x00,0x81,0x3b,0x08,0x00,
 0x00,0x00,0x70,0x00,0x00,0x70,0x00,0x00,0x00,0x00,0x00,0x00,0x00,0x00,0x08,
 0x01,0x00,0x00,0x00,0x00,0x00,0x00,0x00,0x00,0x07,0x00,0x00,0x07,0x00,0xc0,
 0x01,0x71,0xc0,0x08,0x00,0x00,0x00,0x0e,0x00,0x00,0x08,0x00,0x00,0x00,0x00,
 0x00,0x00,0x00,0x00,0x08,0x01,0x00,0x00,0x00,0x00,0x00,0x00,0x00,0x00,0x07,
 0x00,0x00,0x07,0x00,0xc0,0x01,0x71,0xc0,0x08,0x00,0x00,0x00,0x0e,0x00,0x00,
 0x08,0x00,0x00,0x00,0x00,0x00,0x00,0x00,0x00,0x08,0x01,0x00,0x00,0x00,0x00,
 0x00,0x00,0x00,0x00,0x38,0x00,0x00,0x18,0x00,0x00,0x0e,0x0f,0x00,0x0f,0x00,
 0x00,0x80,0x01,0x00,0x00,0x07,0x00,0x00,0x00,0x00,0x00,0x00,0x00,0x00,0x08,
 0x01,0x00,0x00,0x00,0x00,0x00,0x00,0x00,0x00,0x40,0x00,0x00,0x60,0x00,0x00,
 0xf0,0x01,0x00,0x08,0x00,0x00,0x60,0x00,0x00,0xe0,0x00,0x00,0x00,0x00,0x00,
 0x00,0x00,0x00,0x00,0x08,0x01,0x00,0x00,0x00,0x00,0x00,0x00,0x00,0x00,0x40,
 0x00,0x00,0x60,0x00,0x00,0xf0,0x01,0x00,0x08,0x00,0x00,0x60,0x00,0x00,0xe0,
 0x00,0x00,0x00,0x00,0x00,0x00,0x00,0x00,0x00,0x08,0x01,0x00,0x00,0x00,0x00,
 0x00,0x00,0x00,0x00,0x80,0x03,0x00,0xc0,0x03,0x00,0x00,0x00,0x00,0x70,0x00,
 0x00,0x1c,0x00,0x00,0x1c,0x00,0x00,0x00,0x00,0x00,0x00,0x00,0x00,0x00,0x08,
 0x01,0x00,0x00,0x00,0x00,0x00,0x00,0x00,0x00,0x00,0x1c,0x00,0x00,0x1e,0x00,
 0x00,0x00,0x00,0x80,0x00,0x80,0x03,0x00,0x00,0x02,0x00,0x00,0x00,0x00,0x00,
 0x00,0x00,0x00,0x00,0x08,0x01,0x00,0x00,0x00,0x00,0x00,0x00,0x00,0x00,0x00,
 0x1c,0x00,0x00,0x1e,0x00,0x00,0x00,0x00,0x80,0x00,0x80,0x03,0x00,0x00,0x02,
 0x00,0x00,0x00,0x00,0x00,0x00,0x00,0x00,0x00,0x08,0x01,0x00,0x00,0x00,0x00,
 0x00,0x00,0x00,0x00,0x00,0xe0,0x00,0x00,0x70,0x00,0x00,0x00,0x00,0x00,0x07,
 0x60,0x00,0x00,0xc0,0x01,0x00,0x00,0x00,0x00,0x00,0x00,0x00,0x00,0x00,0x08,
 0x01,0x00,0x00,0x00,0x00,0x00,0x00,0x00,0x00,0x00,0x00,0x01,0x00,0x80,0x03,
 0x00,0x00,0x00,0x00,0x18,0x1c,0x00,0x00,0x38,0x00,0x00,0x00,0x00,0x00,0x00,
 0x00,0x00,0x00,0x00,0x08,0x01,0x00,0x00,0x00,0x00,0x00,0x00,0x00,0x00,0x00,
 0x00,0x01,0x00,0x80,0x03,0x00,0x00,0x00,0x00,0x18,0x1c,0x00,0x00,0x38,0x00,
 0x00,0x00,0x00,0x00,0x00,0x00,0x00,0x00,0x00,0x08,0x01,0x00,0x00,0x00,0x00,
 0x00,0x00,0x00,0x00,0x00,0x00,0x0e,0x00,0x00,0x0c,0x00,0x00,0x00,0x00,0xe0,
 0x03,0x00,0x00,0x07,0x00,0x00,0x00,0x00,0x00,0x00,0x00,0x00,0x00,0x00,0x08,
 0x01,0x00,0x00,0x00,0x00,0x00,0x00,0x00,0x00,0x00,0x00,0x70,0x00,0x00,0x38,
 0x00,0x00,0x00,0x00,0xc0,0x01,0x00,0x80,0x00,0x00,0x00,0x00,0x00,0x00,0x00,
 0x00,0x00,0x00,0x00,0x08,0x01,0x00,0x00,0x00,0x00,0x00,0x00,0x00,0x00,0x00,
 0x00,0x80,0x03,0x00,0xc0,0x01,0x00,0x00,0x00,0x38,0x00,0x00,0x70,0x00,0x00,
 0x00,0x00,0x00,0x00,0x00,0x00,0x00,0x00,0x00,0x08,0x01,0x00,0x00,0x00,0x00,
 0x00,0x00,0x00,0x00,0x00,0x00,0x80,0x03,0x00,0xc0,0x01,0x00,0x00,0x00,0x38,
 0x00,0x00,0x70,0x00,0x00,0x00,0x00,0x00,0x00,0x00,0x00,0x00,0x00,0x00,0x08,
 0x01,0x00,0x00,0x00,0x00,0x00,0x00,0x00,0x00,0x00,0x00,0x00,0x04,0x00,0x00,
 0x0e,0x00,0x00,0x00,0x07,0x00,0x00,0x0e,0x00,0x00,0x00,0x00,0x00,0x00,0x00,
 0x00,0x00,0x00,0x00,0x08,0x01,0x00,0x00,0x00,0x00,0x00,0x00,0x00,0x00,0x00,
 0x00,0x00,0x38,0x00,0x00,0x30,0x00,0x00,0xc0,0x00,0x00,0x80,0x01,0x00,0x00,
 0x00,0x00,0x00,0x00,0x00,0x00,0x00,0x00,0x00,0x08,0x01,0x00,0x00,0x00,0x00,
 0x00,0x00,0x00,0x00,0x00,0x00,0x00,0x38,0x00,0x00,0x30,0x00,0x00,0xc0,0x00,
 0x00,0x80,0x01,0x00,0x00,0x00,0x00,0x00,0x00,0x00,0x00,0x00,0x00,0x00,0x08,
 0x01,0x00,0x00,0x00,0x00,0x00,0x00,0x00,0x00,0x00,0x00,0x00,0xc0,0x01,0x00,
 0xc0,0x00,0x00,0x38,0x00,0x00,0x60,0x00,0x00,0x00,0x00,0x00,0x00,0x00,0x00,
 0x00,0x00,0x00,0x00,0x08,0x01,0x00,0x00,0x00,0x00,0x00,0x00,0x00,0x00,0x00,
 0x00,0x00,0x00,0x0e,0x00,0x00,0x0f,0x00,0x07,0x00,0x00,0x1c,0x00,0x00,0x00,
 0x00,0x00,0x00,0x00,0x00,0x00,0x00,0x00,0x00,0x08,0x01,0x00,0x00,0x00,0x00,
 0x00,0x00,0x00,0x00,0x00,0x00,0x00,0x00,0x0e,0x00,0x00,0x0f,0x00,0x07,0x00,
 0x00,0x1c,0x00,0x00,0x00,0x00,0x00,0x00,0x00,0x00,0x00,0x00,0x00,0x00,0x08,
 0x01,0x00,0x00,0x00,0x00,0x00,0x00,0x00,0x00,0x00,0x00,0x00,0x00,0x10,0x00,
 0x00,0xf0,0xff,0x00,0x00,0x80,0x03,0x00,0x00,0x00,0x00,0x00,0x00,0x00,0x00,
 0x00,0x00,0x00,0x00,0x08,0x01,0x00,0x00,0x00,0x00,0x00,0x00,0x00,0x00,0x00,
 0x00,0x00,0x00,0xe0,0x00,0x00,0x00,0x00,0x00,0x00,0x60,0x00,0x00,0x00,0x00,
 0x00,0x00,0x00,0x00,0x00,0x00,0x00,0x00,0x00,0x08,0x01,0x00,0x00,0x00,0x00,
 0x00,0x00,0x00,0x00,0x00,0x00,0x00,0x00,0xe0,0x00,0x00,0x00,0x00,0x00,0x00,
 0x60,0x00,0x00,0x00,0x00,0x00,0x00,0x00,0x00,0x00,0x00,0x00,0x00,0x00,0x08,
 0x01,0x00,0x00,0x00,0x00,0x00,0x00,0x00,0x00,0x00,0x00,0x00,0x00,0x00,0x07,
 0x00,0x00,0x00,0x00,0x00,0x1c,0x00,0x00,0x00,0x00,0x00,0x00,0x00,0x00,0x00,
 0x00,0x00,0x00,0x00,0x08,0x01,0x00,0x00,0x00,0x00,0x00,0x00,0x00,0x00,0x00,
 0x00,0x00,0x00,0x00,0x38,0x00,0x00,0x00,0x00,0x00,0x03,0x00,0x00,0x00,0x00,
 0x00,0x00,0x00,0x00,0x00,0x00,0x00,0x00,0x00,0x08,0x01,0x00,0x00,0x00,0x00,
 0x00,0x00,0x00,0x00,0x00,0x00,0x00,0x00,0x00,0x40,0x00,0x00,0x00,0x00,0xe0,
 0x00,0x00,0x00,0x00,0x00,0x00,0x00,0x00,0x00,0x00,0x00,0x00,0x00,0x00,0x08,
 0x01,0x00,0x00,0x00,0x00,0x00,0x00,0x00,0x00,0x00,0x00,0x00,0x00,0x00,0x40,
 0x00,0x00,0x00,0x00,0xe0,0x00,0x00,0x00,0x00,0x00,0x00,0x00,0x00,0x00,0x00,
 0x00,0x00,0x00,0x00,0x08,0x01,0x00,0x00,0x00,0x00,0x00,0x00,0x00,0x00,0x00,
 0x00,0x00,0x00,0x00,0x80,0x03,0x00,0x00,0x00,0x18,0x00,0x00,0x00,0x00,0x00,
 0x00,0x00,0x00,0x00,0x00,0x00,0x00,0x00,0x00,0x08,0x01,0x00,0x00,0x00,0x00,
 0x00,0x00,0x00,0x00,0x00,0x00,0x00,0x00,0x00,0x00,0x1c,0x00,0x00,0x00,0x07,
 0x00,0x00,0x00,0x00,0x00,0x00,0x00,0x00,0x00,0x00,0x00,0x00,0x00,0x00,0x08,
 0x01,0x00,0x00,0x00,0x00,0x00,0x00,0x00,0x00,0x00,0x00,0x00,0x00,0x00,0x00,
 0x1c,0x00,0x00,0x00,0x07,0x00,0x00,0x00,0x00,0x00,0x00,0x00,0x00,0x00,0x00,
 0x00,0x00,0x00,0x00,0x08,0x01,0x00,0x00,0x00,0x00,0x00,0x00,0x00,0x00,0x00,
 0x00,0x00,0x00,0x00,0x00,0xe0,0x00,0x00,0xc0,0x00,0x00,0x00,0x00,0x00,0x00,
 0x00,0x00,0x00,0x00,0x00,0x00,0x00,0x00,0x00,0x08,0x01,0x00,0x00,0x00,0x00,
 0x00,0x00,0x00,0x00,0x00,0x00,0x00,0x00,0x00,0x00,0x00,0x01,0x00,0x30,0x00,
 0x00,0x00,0x00,0x00,0x00,0x00,0x00,0x00,0x00,0x00,0x00,0x00,0x00,0x00,0x08,
 0x01,0x00,0x00,0x00,0x00,0x00,0x00,0x00,0x00,0x00,0x00,0x00,0x00,0x00,0x00,
 0x00,0x01,0x00,0x30,0x00,0x00,0x00,0x00,0x00,0x00,0x00,0x00,0x00,0x00,0x00,
 0x00,0x00,0x00,0x00,0x08,0x01,0x00,0x00,0x00,0x00,0x00,0x00,0x00,0x00,0x00,
 0x00,0x00,0x00,0x00,0x00,0x00,0x0e,0x00,0x0e,0x00,0x00,0x00,0x00,0x00,0x00,
 0x00,0x00,0x00,0x00,0x00,0x00,0x00,0x00,0x00,0x08,0x01,0x00,0x00,0x00,0x00,
 0x00,0x00,0x00,0x00,0x00,0x00,0x00,0x00,0x00,0x00,0x00,0x70,0xc0,0x01,0x00,
 0x00,0x00,0x00,0x00,0x00,0x00,0x00,0x00,0x00,0x00,0x00,0x00,0x00,0x00,0x08,
 0x01,0x00,0x00,0x00,0x00,0x00,0x00,0x00,0x00,0x00,0x00,0x00,0x00,0x00,0x00,
 0x00,0x80,0x3b,0x00,0x00,0x00,0x00,0x00,0x00,0x00,0x00,0x00,0x00,0x00,0x00,
 0x00,0x00,0x00,0x00,0x08,0x01,0x00,0x00,0x00,0x00,0x00,0x00,0x00,0x00,0x00,
 0x00,0x00,0x00,0x00,0x00,0x00,0x80,0x3b,0x00,0x00,0x00,0x00,0x00,0x00,0x00,
 0x00,0x00,0x00,0x00,0x00,0x00,0x00,0x00,0x00,0x08,0x01,0x00,0x00,0x00,0x00,
 0x00,0x00,0x00,0x00,0x00,0x00,0x00,0x00,0x00,0x00,0x00,0x00,0x04,0x00,0x00,
 0x00,0x00,0x00,0x00,0x00,0x00,0x00,0x00,0x00,0x00,0x00,0x00,0x00,0x00,0x08,
 0x01,0x00,0x00,0x00,0x00,0x00,0x00,0x00,0x00,0x00,0x00,0x00,0x00,0x00,0x00,
 0x00,0x00,0x04,0x00,0x00,0x00,0x00,0x00,0x00,0x00,0x00,0x00,0x00,0x00,0x00,
 0x00,0x00,0x00,0x00,0x08,0x01,0x00,0x00,0x00,0x00,0x00,0x00,0x00,0x00,0x00,
 0x00,0x00,0x00,0x00,0x00,0x00,0x00,0x04,0x00,0x00,0x00,0x00,0x00,0x00,0x00,
 0x00,0x00,0x00,0x00,0x00,0x00,0x00,0x00,0x00,0x08,0x01,0x00,0x00,0x00,0x00,
 0x00,0x00,0x00,0x00,0x00,0x00,0x00,0x00,0x00,0x00,0x00,0x00,0x04,0x00,0x00,
 0x00,0x00,0x00,0x00,0x00,0x00,0x00,0x00,0x00,0x00,0x00,0x00,0x00,0x00,0x08,
 0x01,0x00,0x00,0x00,0x00,0x00,0x00,0x00,0x00,0x00,0x00,0x00,0x00,0x00,0x00,
 0x00,0x00,0x04,0x00,0x00,0x00,0x00,0x00,0x00,0x00,0x00,0x00,0x00,0x00,0x00,
 0x00,0x00,0x00,0x00,0x08,0x01,0x00,0x00,0x00,0x00,0x00,0x00,0x00,0x00,0x00,
 0x00,0x00,0x00,0x00,0x00,0x00,0x00,0x04,0x00,0x00,0x00,0x00,0x00,0x00,0x00,
 0x00,0x00,0x00,0x00,0x00,0x00,0x00,0x00,0x00,0x08,0x01,0x00,0x00,0x00,0x00,
 0x00,0x00,0x00,0x00,0x00,0x00,0x00,0x00,0x00,0x00,0x00,0x00,0x04,0x00,0x00,
 0x00,0x00,0x00,0x00,0x00,0x00,0x00,0x00,0x00,0x00,0x00,0x00,0x00,0x00,0x08,
 0x01,0x00,0x00,0x00,0x00,0x00,0x00,0x00,0x00,0x00,0x00,0x00,0x00,0x00,0x00,
 0x00,0x00,0x04,0x00,0x00,0x00,0x00,0x00,0x00,0x00,0x00,0x00,0x00,0x00,0x00,
 0x00,0x00,0x00,0x00,0x08,0x01,0x00,0x00,0x00,0x00,0x00,0x00,0x00,0x00,0x00,
 0x00,0x00,0x00,0x00,0x00,0x00,0x00,0x04,0x00,0x00,0x00,0x00,0x00,0x00,0x00,
 0x00,0x00,0x00,0x00,0x00,0x00,0x00,0x00,0x00,0x08,0x01,0x00,0x00,0x00,0x00,
 0x00,0x00,0x00,0x00,0x00,0x00,0x00,0x00,0x00,0x00,0x00,0x00,0x04,0x00,0x00,
 0x00,0x00,0x00,0x00,0x00,0x00,0x00,0x00,0x00,0x00,0x00,0x00,0x00,0x00,0x08,
 0x01,0x00,0x00,0x00,0x00,0x00,0x00,0x00,0x00,0x00,0x00,0x00,0x00,0x00,0x00,
 0x00,0x00,0x04,0x00,0x00,0x00,0x00,0x00,0x00,0x00,0x00,0x00,0x00,0x00,0x00,
 0x00,0x00,0x00,0x00,0x08,0x01,0x00,0x00,0x00,0x00,0x00,0x00,0x00,0x00,0x00,
 0x00,0x00,0x00,0x00,0x00,0x00,0x00,0x04,0x00,0x00,0x00,0x00,0x00,0x00,0x00,
 0x00,0x00,0x00,0x00,0x00,0x00,0x00,0x00,0x00,0x08,0x01,0x00,0x00,0x00,0x00,
 0x00,0x00,0x00,0x00,0x00,0x00,0x00,0x00,0x00,0x00,0x00,0x00,0x04,0x00,0x00,
 0x00,0x00,0x00,0x00,0x00,0x00,0x00,0x00,0x00,0x00,0x00,0x00,0x00,0x00,0x08,
 0x01,0x00,0x00,0x00,0x00,0x00,0x00,0x00,0x00,0x00,0x00,0x00,0x00,0x00,0x00,
 0x00,0x00,0x04,0x00,0x00,0x00,0x00,0x00,0x00,0x00,0x00,0x00,0x00,0x00,0x00,
 0x00,0x00,0x00,0x00,0x08,0x01,0x00,0x00,0x00,0x00,0x00,0x00,0x00,0x00,0x00,
 0x00,0x00,0x00,0x00,0x00,0x00,0x00,0x04,0x00,0x00,0x00,0x00,0x00,0x00,0x00,
 0x00,0x00,0x00,0x00,0x00,0x00,0x00,0x00,0x00,0x08,0x01,0x00,0x00,0x00,0x00,
 0x00,0x00,0x00,0x00,0x00,0x00,0x00,0x00,0x00,0x00,0x00,0x00,0x04,0x00,0x00,
 0x00,0x00,0x00,0x00,0x00,0x00,0x00,0x00,0x00,0x00,0x00,0x00,0x00,0x00,0x08,
 0x01,0x00,0x00,0x00,0x00,0x00,0x00,0x00,0x00,0x00,0x00,0x00,0x00,0x00,0x00,
 0x00,0x00,0x04,0x00,0x00,0x00,0x00,0x00,0x00,0x00,0x00,0x00,0x00,0x00,0x00,
 0x00,0x00,0x00,0x00,0x08,0x01,0x00,0x00,0x00,0x00,0x00,0x00,0x00,0x00,0x00,
 0x00,0x00,0x00,0x00,0x00,0x00,0x00,0x04,0x00,0x00,0x00,0x00,0x00,0x00,0x00,
 0x00,0x00,0x00,0x00,0x00,0x00,0x00,0x00,0x00,0x08,0x01,0x00,0x00,0x00,0x00,
 0x00,0x00,0x00,0x00,0x00,0x00,0x00,0x00,0x00,0x00,0x00,0x00,0x04,0x00,0x00,
 0x00,0x00,0x00,0x00,0x00,0x00,0x00,0x00,0x00,0x00,0x00,0x00,0x00,0x00,0x08,
 0x01,0x00,0x00,0x00,0x00,0x00,0x00,0x00,0x00,0x00,0x00,0x00,0x00,0x00,0x00,
 0x00,0x00,0x04,0x00,0x00,0x00,0x00,0x00,0x00,0x00,0x00,0x00,0x00,0x00,0x00,
 0x00,0x00,0x00,0x00,0x08,0x01,0x00,0x00,0x00,0x00,0x00,0x00,0x00,0x00,0x00,
 0x00,0x00,0x00,0x00,0x00,0x00,0x00,0x04,0x00,0x00,0x00,0x00,0x00,0x00,0x00,
 0x00,0x00,0x00,0x00,0x00,0x00,0x00,0x00,0x00,0x08,0x01,0x00,0x00,0x00,0x00,
 0x00,0x00,0x00,0x00,0x00,0x00,0x00,0x00,0x00,0x00,0x00,0x00,0x04,0x00,0x00,
 0x00,0x00,0x00,0x00,0x00,0x00,0x00,0x00,0x00,0x00,0x00,0x00,0x00,0x00,0x08,
 0x01,0x00,0x00,0x00,0x00,0x00,0x00,0x00,0x00,0x00,0x00,0x00,0x00,0x00,0x00,
 0x00,0x00,0x04,0x00,0x00,0x00,0x00,0x00,0x00,0x00,0x00,0x00,0x00,0x00,0x00,
 0x00,0x00,0x00,0x00,0x08,0x01,0x00,0x00,0x00,0x00,0x00,0x00,0x00,0x00,0x00,
 0x00,0x00,0x00,0x00,0x00,0x00,0x00,0x04,0x00,0x00,0x00,0x00,0x00,0x00,0x00,
 0x00,0x00,0x00,0x00,0x00,0x00,0x00,0x00,0x00,0x08,0x01,0x00,0x00,0x00,0x00,
 0x00,0x00,0x00,0x00,0x00,0x00,0x00,0x00,0x00,0x00,0x00,0x00,0x04,0x00,0x00,
 0x00,0x00,0x00,0x00,0x00,0x00,0x00,0x00,0x00,0x00,0x00,0x00,0x00,0x00,0x08,
 0x01,0x00,0x00,0x00,0x00,0x00,0x00,0x00,0x00,0x00,0x00,0x00,0x00,0x00,0x00,
 0x00,0x00,0x04,0x00,0x00,0x00,0x00,0x00,0x00,0x00,0x00,0x00,0x00,0x00,0x00,
 0x00,0x00,0x00,0x00,0x08,0x01,0x00,0x00,0x00,0x00,0x00,0x00,0x00,0x00,0x00,
 0x00,0x00,0x00,0x00,0x00,0x00,0x00,0x04,0x00,0x00,0x00,0x00,0x00,0x00,0x00,
 0x00,0x00,0x00,0x00,0x00,0x00,0x00,0x00,0x00,0x08,0x0e,0x00,0x00,0x00,0x00,
 0x00,0x00,0x00,0x00,0x00,0x00,0x00,0x00,0x00,0x00,0x00,0x00,0x04,0x00,0x00,
 0x00,0x00,0x00,0x00,0x00,0x00,0x00,0x00,0x00,0x00,0x00,0x00,0x00,0x00,0x07,
 0x0e,0x00,0x00,0x00,0x00,0x00,0x00,0x00,0x00,0x00,0x00,0x00,0x00,0x00,0x00,
 0x00,0x00,0x04,0x00,0x00,0x00,0x00,0x00,0x00,0x00,0x00,0x00,0x00,0x00,0x00,
 0x00,0x00,0x00,0x00,0x07,0x70,0x00,0x00,0x00,0x00,0x00,0x00,0x00,0x00,0x00,
 0x00,0x00,0x00,0x00,0x00,0x00,0x00,0x04,0x00,0x00,0x00,0x00,0x00,0x00,0x00,
 0x00,0x00,0x00,0x00,0x00,0x00,0x00,0x00,0xe0,0x00,0x80,0x03,0x00,0x00,0x00,
 0x00,0x00,0x00,0x00,0x00,0x00,0x00,0x00,0x00,0x00,0x00,0x00,0x04,0x00,0x00,
 0x00,0x00,0x00,0x00,0x00,0x00,0x00,0x00,0x00,0x00,0x00,0x00,0x00,0x1c,0x00,
 0x80,0x03,0x00,0x00,0x00,0x00,0x00,0x00,0x00,0x00,0x00,0x00,0x00,0x00,0x00,
 0x00,0x00,0x04,0x00,0x00,0x00,0x00,0x00,0x00,0x00,0x00,0x00,0x00,0x00,0x00,
 0x00,0x00,0x00,0x1c,0x00,0x00,0x04,0x00,0x00,0x00,0x00,0x00,0x00,0x00,0x00,
 0x00,0x00,0x00,0x00,0x00,0x00,0x00,0x04,0x00,0x00,0x00,0x00,0x00,0x00,0x00,
 0x00,0x00,0x00,0x00,0x00,0x00,0x00,0x00,0x02,0x00,0x00,0x38,0x00,0x00,0x00,
 0x00,0x00,0x00,0x00,0x00,0x00,0x00,0x00,0x00,0x00,0x00,0x00,0x04,0x00,0x00,
 0x00,0x00,0x00,0x00,0x00,0x00,0x00,0x00,0x00,0x00,0x00,0x00,0xc0,0x01,0x00,
 0x00,0xc0,0x01,0x00,0x00,0x00,0x00,0x00,0x00,0x00,0x00,0x00,0x00,0x00,0x00,
 0x00,0x00,0x04,0x00,0x00,0x00,0x00,0x00,0x00,0x00,0x00,0x00,0x00,0x00,0x00,
 0x00,0x00,0x38,0x00,0x00,0x00,0xc0,0x01,0x00,0x00,0x00,0x00,0x00,0x00,0x00,
 0x00,0x00,0x00,0x00,0x00,0x00,0x00,0x04,0x00,0x00,0x00,0x00,0x00,0x00,0x00,
 0x00,0x00,0x00,0x00,0x00,0x00,0x00,0x38,0x00,0x00,0x00,0x00,0x0e,0x00,0x00,
 0x00,0x00,0x00,0x00,0x00,0x00,0x00,0x00,0x00,0x00,0x00,0x00,0x04,0x00,0x00,
 0x00,0x00,0x00,0x00,0x00,0x00,0x00,0x00,0x00,0x00,0x00,0x00,0x04,0x00,0x00,
 0x00,0x00,0x10,0x00,0x00,0x00,0x00,0x00,0x00,0x00,0x00,0x00,0x00,0x00,0x00,
 0x00,0x00,0x04,0x00,0x00,0x00,0x00,0x00,0x00,0x00,0x00,0x00,0x00,0x00,0x00,
 0x00,0x80,0x03,0x00,0x00,0x00,0x00,0x10,0x00,0x00,0x00,0x00,0x00,0x00,0x00,
 0x00,0x00,0x00,0x00,0x00,0x00,0x00,0x04,0x00,0x00,0x00,0x00,0x00,0x00,0x00,
 0x00,0x00,0x00,0x00,0x00,0x00,0x80,0x03,0x00,0x00,0x00,0x00,0xe0,0x00,0x00,
 0x00,0x00,0x00,0x00,0x00,0x00,0x00,0x00,0x00,0x00,0x00,0x00,0x04,0x00,0x00,
 0x00,0x00,0x00,0x00,0x00,0x00,0x00,0x00,0x00,0x00,0x00,0x70,0x00,0x00,0x00,
 0x00,0x00,0x00,0x07,0x00,0x00,0x00,0x00,0x00,0x00,0x00,0x00,0x00,0x00,0x00,
 0x00,0x00,0x04,0x00,0x00,0x00,0x00,0x00,0x00,0x00,0x00,0x00,0x00,0x00,0x00,
 0x00,0x0e,0x00,0x00,0x00,0x00,0x00,0x00,0x07,0x00,0x00,0x00,0x00,0x00,0x00,
 0x00,0x00,0x00,0x00,0x00,0x00,0x00,0x04,0x00,0x00,0x00,0x00,0x00,0x00,0x00,
 0x00,0x00,0x00,0x00,0x00,0x00,0x0e,0x00,0x00,0x00,0x00,0x00,0x00,0x38,0x00,
 0x00,0x00,0x00,0x00,0x00,0x00,0x00,0x00,0x00,0x00,0x00,0x00,0x04,0x00,0x00,
 0x00,0x00,0x00,0x00,0x00,0x00,0x00,0x00,0x00,0x00,0x80,0x01,0x00,0x00,0x00,
 0x00,0x00,0x00,0x40,0x00,0x00,0x00,0x00,0x00,0x00,0x00,0x00,0x00,0x00,0x00,
 0x00,0x00,0x04,0x00,0x00,0x00,0x00,0x00,0x00,0x00,0x00,0x00,0x00,0x00,0x00,
 0x60,0x00,0x00,0x00,0x00,0x00,0x00,0x00,0x40,0x00,0x00,0x00,0x00,0x00,0x00,
 0x00,0x00,0x00,0x00,0x00,0x00,0x00,0x04,0x00,0x00,0x00,0x00,0x00,0x00,0x00,
 0x00,0x00,0x00,0x00,0x00,0x60,0x00,0x00,0x00,0x00,0x00,0x00,0x00,0x80,0x03,
 0x00,0x00,0x00,0x00,0x00,0x00,0x00,0x00,0x00,0x00,0x00,0x00,0x04,0x00,0x00,
 0x00,0x00,0x00,0x00,0x00,0x00,0x00,0x00,0x00,0x00,0x1c,0x00,0x00,0x00,0x00,
 0x00,0x00,0x00,0x00,0x1c,0x00,0x00,0x00,0x00,0x00,0x00,0x00,0x00,0x00,0x00,
 0x00,0x00,0x04,0x00,0x00,0x00,0x00,0x00,0x00,0x00,0x00,0x00,0x00,0x00,0x80,
 0x03,0x00,0x00,0x00,0x00,0x00,0x00,0x00,0x00,0xe0,0x00,0x00,0x00,0x00,0x00,
 0x00,0x00,0x00,0x00,0x00,0x00,0x00,0x04,0x00,0x00,0x00,0x00,0x00,0x00,0x00,
 0x00,0x00,0x00,0x00,0x60,0x00,0x00,0x00,0x00,0x00,0x00,0x00,0x00,0x00,0xe0,
 0x00,0x00,0x00,0x00,0x00,0x00,0x00,0x00,0x00,0x00,0x00,0x00,0x04,0x00,0x00,
 0x00,0x00,0x00,0x00,0x00,0x00,0x00,0x00,0x00,0x60,0x00,0x00,0x00,0x00,0x00,
 0x00,0x00,0x00,0x00,0x00,0x03,0x00,0x00,0x00,0x00,0x00,0x00,0x00,0x00,0x00,
 0x00,0x00,0x04,0x00,0x00,0x00,0x00,0x00,0x00,0x00,0x00,0x00,0x00,0x00,0x1c,
 0x00,0x00,0x00,0x00,0x00,0x00,0x00,0x00,0x00,0x00,0x0c,0x00,0x00,0x00,0x00,
 0x00,0x00,0x00,0x00,0x00,0x00,0x00,0x04,0x00,0x00,0x00,0x00,0x00,0x00,0x00,
 0x00,0x00,0x00,0x00,0x03,0x00,0x00,0x00,0x00,0x00,0x00,0x00,0x00,0x00,0x00,
 0x0c,0x00,0x00,0x00,0x00,0x00,0x00,0x00,0x00,0x00,0x00,0x00,0x04,0x00,0x00,
 0x00,0x00,0x00,0x00,0x00,0x00,0x00,0x00,0x00,0x03,0x00,0x00,0x00,0x00,0x00,
 0x00,0x00,0x00,0x00,0x00,0x70,0x00,0x00,0x00,0x00,0x00,0x00,0x00,0x00,0x00,
 0x00,0x00,0x04,0x00,0x00,0x00,0x00,0x00,0x00,0x00,0x00,0x00,0x00,0xc0,0x00,
 0x00,0x00,0x00,0x00,0x00,0x00,0x00,0x00,0x00,0x00,0x80,0x03,0x00,0x00,0x00,
 0x00,0x00,0x00,0x00,0x00,0x00,0x00,0x04,0x00,0x00,0x00,0x00,0x00,0x00,0x00,
 0x00,0x00,0x00,0x38,0x00,0x00,0x00,0x00,0x00,0x00,0x00,0x00,0x00,0x00,0x00,
 0x80,0x03,0x00,0x00,0x00,0x00,0x00,0x00,0x00,0x00,0x00,0x00,0x04,0x00,0x00,
 0x00,0x00,0x00,0x00,0x00,0x00,0x00,0x00,0x38,0x00,0x00,0x00,0x00,0x00,0x00,
 0x00,0x00,0x00,0x00,0x00,0x00,0x0c,0x00,0x00,0x00,0x00,0x00,0x00,0x00,0x00,
 0x00,0x00,0x04,0x00,0x00,0x00,0x00,0x00,0x00,0x00,0x00,0x00,0x00,0x07,0x00,
 0x00,0x00,0x00,0x00,0x00,0x00,0x00,0x00,0x00,0x00,0x00,0x30,0x00,0x00,0x00,
 0x00,0x00,0x00,0x00,0x00,0x00,0x00,0x04,0x00,0x00,0x00,0x00,0x00,0x00,0x00,
 0x00,0x00,0xc0,0x00,0x00,0x00,0x00,0x00,0x00,0x00,0x00,0x00,0x00,0x00,0x00,
 0x00,0x30,0x00,0x00,0x00,0x00,0x00,0x00,0x00,0x00,0x00,0x00,0x04,0x00,0x00,
 0x00,0x00,0x00,0x00,0x00,0x00,0x00,0xc0,0x00,0x00,0x00,0x00,0x00,0x00,0x00,
 0x00,0x00,0x00,0x00,0x00,0x00,0xc0,0x01,0x00,0x00,0x00,0x00,0x00,0x00,0x00,
 0x00,0x00,0x04,0x00,0x00,0x00,0x00,0x00,0x00,0x00,0x00,0x00,0x30,0x00,0x00,
 0x00,0x00,0x00,0x00,0x00,0x00,0x00,0x00,0x00,0x00,0x00,0x00,0x0e,0x00,0x00,
 0x00,0x00,0x00,0x00,0x00,0x00,0x00,0x04,0x00,0x00,0x00,0x00,0x00,0x00,0x00,
 0x00,0x00,0x0e,0x00,0x00,0x00,0x00,0x00,0x00,0x00,0x00,0x00,0x00,0x00,0x00,
 0x00,0x00,0x30,0x00,0x00,0x00,0x00,0x00,0x00,0x00,0x00,0x00,0x04,0x00,0x00,
 0x00,0x00,0x00,0x00,0x00,0x00,0xc0,0x01,0x00,0x00,0x00,0x00,0x00,0x00,0x00,
 0x00,0x00,0x00,0x00,0x00,0x00,0x00,0x30,0x00,0x00,0x00,0x00,0x00,0x00,0x00,
 0x00,0x00,0x04,0x00,0x00,0x00,0x00,0x00,0x00,0x00,0x00,0xc0,0x01,0x00,0x00,
 0x00,0x00,0x00,0x00,0x00,0x00,0x00,0x00,0x00,0x00,0x00,0x00,0xc0,0x01,0x00,
 0x00,0x00,0x00,0x00,0x00,0x00,0x00,0x04,0x00,0x00,0x00,0x00,0x00,0x00,0x00,
 0x00,0x38,0x00,0x00,0x00,0x00,0x00,0x00,0x00,0x00,0x00,0x00,0x00,0x00,0x00,
 0x00,0x00,0x00,0x06,0x00,0x00,0x00,0x00,0x00,0x00,0x00,0x00,0x04,0x00,0x00,
 0x00,0x00,0x00,0x00,0x00,0x00,0x04,0x00,0x00,0x00,0x00,0x00,0x00,0x00,0x00,
 0x00,0x00,0x00,0x00,0x00,0x00,0x00,0x00,0x06,0x00,0x00,0x00,0x00,0x00,0x00,
 0x00,0x00,0x04,0x00,0x00,0x00,0x00,0x00,0x00,0x00,0x00,0x04,0x00,0x00,0x00,
 0x00,0x00,0x00,0x00,0x00,0x00,0x00,0x00,0x00,0x00,0x00,0x00,0x00,0x18,0x00,
 0x00,0x00,0x00,0x00,0x00,0x00,0x00,0x04,0x00,0x00,0x00,0x00,0x00,0x00,0x00,
 0x80,0x03,0x00,0x00,0x00,0x00,0x00,0x00,0x00,0x00,0x00,0x00,0x00,0x00,0x00,
 0x00,0x00,0x00,0xe0,0x00,0x00,0x00,0x00,0x00,0x00,0x00,0x00,0x04,0x00,0x00,
 0x00,0x00,0x00,0x00,0x00,0x70,0x00,0x00,0x00,0x00,0x00,0x00,0x00,0x00,0x00,
 0x00,0x00,0x00,0x00,0x00,0x00,0x00,0x00,0xe0,0x00,0x00,0x00,0x00,0x00,0x00,
 0x00,0x00,0x04,0x00,0x00,0x00,0x00,0x00,0x00,0x00,0x70,0x00,0x00,0x00,0x00,
 0x00,0x00,0x00,0x00,0x00,0x00,0x00,0x00,0x00,0x00,0x00,0x00,0x00,0x00,0x07,
 0x00,0x00,0x00,0x00,0x00,0x00,0x00,0x04,0x00,0x00,0x00,0x00,0x00,0x00,0x00,
 0x08,0x00,0x00,0x00,0x00,0x00,0x00,0x00,0x00,0x00,0x00,0x00,0x00,0x00,0x00,
 0x00,0x00,0x00,0x00,0x38,0x00,0x00,0x00,0x00,0x00,0x00,0x00,0x04,0x00,0x00,
 0x00,0x00,0x00,0x00,0x00,0x07,0x00,0x00,0x00,0x00,0x00,0x00,0x00,0x00,0x00,
 0x00,0x00,0x00,0x00,0x00,0x00,0x00,0x00,0x00,0x40,0x00,0x00,0x00,0x00,0x00,
 0x00,0x00,0x04,0x00,0x00,0x00,0x00,0x00,0x00,0xe0,0x00,0x00,0x00,0x00,0x00,
 0x00,0x00,0x00,0x00,0x00,0x00,0x00,0x00,0x00,0x00,0x00,0x00,0x00,0x00,0x40,
 0x00,0x00,0x00,0x00,0x00,0x00,0x00,0x04,0x00,0x00,0x00,0x00,0x00,0x00,0xe0,
 0x00,0x00,0x00,0x00,0x00,0x00,0x00,0x00,0x00,0x00,0x00,0x00,0x00,0x00,0x00,
 0x00,0x00,0x00,0x00,0x80,0x03,0x00,0x00,0x00,0x00,0x00,0x00,0x04,0x00,0x00,
 0x00,0x00,0x00,0x00,0x1c,0x00,0x00,0x00,0x00,0x00,0x00,0x00,0x00,0x00,0x00,
 0x00,0x00,0x00,0x00,0x00,0x00,0x00,0x00,0x00,0x00,0x1c,0x00,0x00,0x00,0x00,
 0x00,0x00,0x04,0x00,0x00,0x00,0x00,0x00,0x00,0x02,0x00,0x00,0x00,0x00,0x00,
 0x00,0x00,0x00,0x00,0x00,0x00,0x00,0x00,0x00,0x00,0x00,0x00,0x00,0x00,0x00,
 0x1c,0x00,0x00,0x00,0x00,0x00,0x00,0x04,0x00,0x00,0x00,0x00,0x00,0x00,0x02,
 0x00,0x00,0x00,0x00,0x00,0x00,0x00,0x00,0x00,0x00,0x00,0x00,0x00,0x00,0x00,
 0x00,0x00,0x00,0x00,0x00,0xe0,0x00,0x00,0x00,0x00,0x00,0x00,0x04,0x00,0x00,
 0x00,0x00,0x00,0xc0,0x01,0x00,0x00,0x00,0x00,0x00,0x00,0x00,0x00,0x00,0x00,
 0x00,0x00,0x00,0x00,0x00,0x00,0x00,0x00,0x00,0x00,0x00,0x01,0x00,0x00,0x00,
 0x00,0x00,0x04,0x00,0x00,0x00,0x00,0x00,0x38,0x00,0x00,0x00,0x00,0x00,0x00,
 0x00,0x00,0x00,0x00,0x00,0x00,0x00,0x00,0x00,0x00,0x00,0x00,0x00,0x00,0x00,
 0x00,0x01,0x00,0x00,0x00,0x00,0x00,0x04,0x00,0x00,0x00,0x00,0x00,0x38,0x00,
 0x00,0x00,0x00,0x00,0x00,0x00,0x00,0x00,0x00,0x00,0x00,0x00,0x00,0x00,0x00,
 0x00,0x00,0x00,0x00,0x00,0x00,0x0e,0x00,0x00,0x00,0x00,0x00,0x04,0x00,0x00,
 0x00,0x00,0x00,0x07,0x00,0x00,0x00,0x00,0x00,0x00,0x00,0x00,0x00,0x00,0x00,
 0x00,0x00,0x00,0x00,0x00,0x00,0x00,0x00,0x00,0x00,0x00,0x70,0x00,0x00,0x00,
 0x00,0x00,0x04,0x00,0x00,0x00,0x00,0x80,0x00,0x00,0x00,0x00,0x00,0x00,0x00,
 0x00,0x00,0x00,0x00,0x00,0x00,0x00,0x00,0x00,0x00,0x00,0x00,0x00,0x00,0x00,
 0x00,0x70,0x00,0x00,0x00,0x00,0x00,0x04,0x00,0x00,0x00,0x00,0x80,0x00,0x00,
 0x00,0x00,0x00,0x00,0x00,0x00,0x00,0x00,0x00,0x00,0x00,0x00,0x00,0x00,0x00,
 0x00,0x00,0x00,0x00,0x00,0x00,0x80,0x03,0x00,0x00,0x00,0x00,0x04,0x00,0x00,
 0x00,0x00,0x70,0x00,0x00,0x00,0x00,0x00,0x00,0x00,0x00,0x00,0x00,0x00,0x00,
 0x00,0x00,0x00,0x00,0x00,0x00,0x00,0x00,0x00,0x00,0x00,0x00,0x04,0x00,0x00,
 0x00,0x00,0x04,0x00,0x00,0x00,0x00,0x0e,0x00,0x00,0x00,0x00,0x00,0x00,0x00,
 0x00,0x00,0x00,0x00,0x00,0x00,0x00,0x00,0x00,0x00,0x00,0x00,0x00,0x00,0x00,
 0x00,0x00,0x38,0x00,0x00,0x00,0x00,0x04,0x00,0x00,0x00,0x80,0x01,0x00,0x00,
 0x00,0x00,0x00,0x00,0x00,0x00,0x00,0x00,0x00,0x00,0x00,0x00,0x00,0x00,0x00,
 0x00,0x00,0x00,0x00,0x00,0x00,0x00,0x38,0x00,0x00,0x00,0x00,0x04,0x00,0x00,
 0x00,0x80,0x01,0x00,0x00,0x00,0x00,0x00,0x00,0x00,0x00,0x00,0x00,0x00,0x00,
 0x00,0x00,0x00,0x00,0x00,0x00,0x00,0x00,0x00,0x00,0x00,0x00,0xc0,0x01,0x00,
 0x00,0x00,0x04,0x00,0x00,0x00,0x60,0x00,0x00,0x00,0x00,0x00,0x00,0x00,0x00,
 0x00,0x00,0x00,0x00,0x00,0x00,0x00,0x00,0x00,0x00,0x00,0x00,0x00,0x00,0x00,
 0x00,0x00,0x00,0x0e,0x00,0x00,0x00,0x04,0x00,0x00,0x00,0x1c,0x00,0x00,0x00,
 0x00,0x00,0x00,0x00,0x00,0x00,0x00,0x00,0x00,0x00,0x00,0x00,0x00,0x00,0x00,
 0x00,0x00,0x00,0x00,0x00,0x00,0x00,0x00,0x0e,0x00,0x00,0x00,0x04,0x00,0x00,
 0x00,0x1c,0x00,0x00,0x00,0x00,0x00,0x00,0x00,0x00,0x00,0x00,0x00,0x00,0x00,
 0x00,0x00,0x00,0x00,0x00,0x00,0x00,0x00,0x00,0x00,0x00,0x00,0x00,0x10,0x00,
 0x00,0x00,0x04,0x00,0x00,0x80,0x03,0x00,0x00,0x00,0x00,0x00,0x00,0x00,0x00,
 0x00,0x00,0x00,0x00,0x00,0x00,0x00,0x00,0x00,0x00,0x00,0x00,0x00,0x00,0x00,
 0x00,0x00,0x00,0xe0,0x00,0x00,0x00,0x04,0x00,0x00,0x60,0x00,0x00,0x00,0x00,
 0x00,0x00,0x00,0x00,0x00,0x00,0x00,0x00,0x00,0x00,0x00,0x00,0x00,0x00,0x00,
 0x00,0x00,0x00,0x00,0x00,0x00,0x00,0x00,0xe0,0x00,0x00,0x00,0x04,0x00,0x00,
 0x60,0x00,0x00,0x00,0x00,0x00,0x00,0x00,0x00,0x00,0x00,0x00,0x00,0x00,0x00,
 0x00,0x00,0x00,0x00,0x00,0x00,0x00,0x00,0x00,0x00,0x00,0x00,0x00,0x00,0x07,
 0x00,0x00,0x04,0x00,0x00,0x1c,0x00,0x00,0x00,0x00,0x00,0x00,0x00,0x00,0x00,
 0x00,0x00,0x00,0x00,0x00,0x00,0x00,0x00,0x00,0x00,0x00,0x00,0x00,0x00,0x00,
 0x00,0x00,0x00,0x00,0x38,0x00,0x00,0x04,0x00,0x00,0x03,0x00,0x00,0x00,0x00,
 0x00,0x00,0x00,0x00,0x00,0x00,0x00,0x00,0x00,0x00,0x00,0x00,0x00,0x00,0x00,
 0x00,0x00,0x00,0x00,0x00,0x00,0x00,0x00,0x00,0x38,0x00,0x00,0x04,0x00,0x00,
 0x03,0x00,0x00,0x00,0x00,0x00,0x00,0x00,0x00,0x00,0x00,0x00,0x00,0x00,0x00,
 0x00,0x00,0x00,0x00,0x00,0x00,0x00,0x00,0x00,0x00,0x00,0x00,0x00,0x00,0x40,
 0x00,0x00,0x04,0x00,0xe0,0x00,0x00,0x00,0x00,0x00,0x00,0x00,0x00,0x00,0x00,
 0x00,0x00,0x00,0x00,0x00,0x00,0x00,0x00,0x00,0x00,0x00,0x00,0x00,0x00,0x08,
 0x00,0x00,0x00,0x00,0x80,0x03,0x30,0x04,0x00,0xf8,0x0f,0x00,0x00,0x08,0x00,
 0x00,0x00,0x00,0x00,0x00,0x00,0x00,0x00,0x00,0x00,0x00,0x00,0x00,0x00,0x00,
 0x00,0x00,0x00,0x00,0x00,0x00,0x02,0x00,0x00,0x00,0x1c,0x01,0x04,0x00,0x27,
 0x10,0x00,0x00,0x08,0x00,0x40,0x00,0x00,0x00,0x00,0x00,0x00,0x00,0x00,0x00,
 0x00,0x00,0x00,0x00,0x00,0x00,0x00,0x00,0x00,0x00,0x00,0x02,0x00,0x00,0x00,
 0x1c,0x01,0x04,0x00,0x27,0x10,0x00,0x00,0x08,0x00,0x40,0x00,0x00,0x00,0x00,
 0x00,0x00,0x00,0x00,0x00,0x00,0x00,0x00,0x00,0x00,0x00,0x00,0x00,0x00,0x00,
 0x00,0x02,0x00,0x00,0x00,0xe0,0x01,0x04,0xc0,0x20,0x10,0x00,0x00,0x08,0x00,
 0x40,0x00,0x00,0x00,0x00,0x00,0x00,0x00,0x00,0x00,0x00,0x00,0x00,0x00,0x00,
 0x00,0x00,0x00,0x00,0x88,0x1f,0xef,0x87,0xfd,0x07,0xde,0x37,0x3e,0x78,0x23,
 0x10,0x3f,0xf0,0x88,0xf1,0xf1,0x3d,0x00,0x00,0x00,0x00,0x00,0x00,0x00,0x00,
 0x00,0x00,0x00,0x00,0x00,0x00,0x00,0x00,0x00,0x88,0x1f,0xef,0x87,0xfd,0x07,
 0xde,0x37,0x3e,0x78,0x23,0x10,0x3f,0xf0,0x88,0xf1,0xf1,0x3d,0x00,0x00,0x00,
 0x00,0x00,0x00,0x00,0x00,0x00,0x00,0x00,0x00,0x00,0x00,0x00,0x00,0x00,0x88,
 0x20,0x12,0x98,0x03,0x84,0x21,0x3f,0xc6,0x8e,0xe3,0x8f,0x40,0x0c,0x4b,0x0c,
 0x46,0xc2,0x00,0x00,0x00,0x00,0x00,0x00,0x00,0x00,0x00,0x00,0x00,0x00,0x00,
 0x00,0x00,0x00,0x00,0x88,0x20,0xf2,0x9f,0xe1,0x87,0x01,0x71,0xc6,0x07,0x23,
 0x80,0x40,0x0c,0x78,0xfc,0x47,0x1e,0x00,0x00,0x00,0x00,0x00,0x00,0x00,0x00,
 0x00,0x00,0x00,0x00,0x00,0x00,0x00,0x00,0x00,0x88,0x20,0xf2,0x9f,0xe1,0x87,
 0x01,0x71,0xc6,0x07,0x23,0x80,0x40,0x0c,0x78,0xfc,0x47,0x1e,0x00,0x00,0x00,
 0x00,0x00,0x00,0x00,0x00,0x00,0x00,0x00,0x00,0x00,0x00,0x00,0x00,0x00,0x88,
 0x20,0x12,0x80,0x11,0x84,0x01,0xb1,0xff,0x06,0x23,0x80,0x40,0x0c,0x48,0x0c,
 0x40,0xe0,0x00,0x00,0x00,0x00,0x00,0x00,0x00,0x00,0x00,0x00,0x00,0x00,0x00,
 0x00,0x00,0x00,0x00,0x88,0x20,0x12,0x98,0x11,0x84,0x21,0x31,0xc6,0x86,0x23,
 0x80,0x40,0x0c,0x8b,0x0d,0x46,0xc2,0x00,0x00,0x00,0x00,0x00,0x00,0x00,0x00,
 0x00,0x00,0x00,0x00,0x00,0x00,0x00,0x00,0x00,0x88,0x20,0xee,0x87,0xe1,0x0b,
 0x1e,0x37,0xc2,0x78,0x23,0x00,0x3f,0xf0,0x08,0xf2,0xc1,0x3d,0x00,0x00,0x00,
 0x00,0x00,0x00,0x00,0x00,0x00,0x00,0x00,0x00,0x00,0x00,0x00,0x00,0x00,0x88,
 0x20,0xee,0x87,0xe1,0x0b,0x1e,0x37,0xc2,0x78,0x23,0x00,0x3f,0xf0,0x08,0xf2,
 0xc1,0x3d,0x00,0x00,0x00,0x00,0x00,0x00,0x00,0x00,0x00,0x00,0x00,0x00,0x00,
 0x00,0x00,0x00,0x00,0x00,0x00,0x00,0x00,0x00,0x00,0x00,0x00,0x00,0x00,0x03,
 0x00,0x00,0x00,0x00,0x00,0x00,0x00,0x00,0x00,0x00,0x00,0x00,0x00,0x00,0x00,
 0x00,0x00,0x00,0x00,0x00,0x00,0x00,0x00,0x00,0x00,0x00,0x00,0x00,0x00,0x00,
 0x00,0x00,0x00,0x06,0x03,0x00,0x00,0x00,0x00,0x00,0x00,0x00,0x00,0x00,0x00,
 0x00,0x00,0x00,0x00,0x00,0x00,0x00,0x00,0x00,0x00,0x00,0x00,0x00,0x00,0x00,
 0x00,0x00,0x00,0x00,0x00,0x00,0x00,0x00,0x06,0x03,0x00,0x00,0x00,0x00,0x00,
 0x00,0x00,0x00,0x00,0x00,0x00,0x00,0x00,0x00,0x00,0x00,0x00,0x00,0x00,0x00,
 0x00,0x00,0x00,0x00,0x00,0x00,0x00,0x00,0x00,0x00,0x00,0x00,0x00,0xf8,0x00,
 0x00,0x00,0x00,0x00,0x00,0x00,0x00,0x00,0x00,0x00,0x00,0x00,0x00,0x00,0x00};
