107 0 1 0           
body $1 $2 $-1 $3 #
display_attribute-st-attrib $-1 $4 $-1 $0 1 #
lump $-1 $-1 $5 $0 #
transform $-1 1 0 0 0 1 0 0 0 1 15 15 5 1 1 0 0 #
named_string_attribute-named_attribute-st-attrib $-1 $6 $1 $0 4 name18 interactingPockets#
shell $-1 $-1 $-1 $7 $-1 $2 #
rgb_color-st-attrib $-1 $8 $4 $0 0 1 0 #
face $9 $10 $11 $5 $-1 $12 forward single #
id_attribute-st-attrib $-1 $-1 $6 $0 1 #
fmesh-eye-attrib $-1 $-1 $-1 $7 #
face $13 $14 $15 $5 $-1 $16 forward single #
loop $-1 $-1 $17 $7 #
cone-surface $-1 7.5 -7.5 -2.5 0 0 -1 1.767766952966368654 -1.767766952966368654 0 1 I I 0 -1 0 I I I I #
fmesh-eye-attrib $-1 $-1 $-1 $10 #
face $18 $19 $20 $5 $-1 $21 forward single #
loop $-1 $-1 $22 $10 #
plane-surface $-1 10 0 -2.5 -1 0 0 0 0 1 0 I I I I #
coedge $-1 $23 $24 $25 $26 0 $11 $-1 #
fmesh-eye-attrib $-1 $-1 $-1 $14 #
face $27 $28 $29 $5 $-1 $30 forward single #
loop $-1 $-1 $31 $14 #
cone-surface $-1 10 -10 2.5 0 0 -1 1.767766952966368654 -1.767766952966368654 0 1 I I 0 -1 0 I I I I #
coedge $-1 $32 $33 $34 $35 1 $15 $-1 #
coedge $-1 $34 $17 $36 $37 1 $11 $-1 #
coedge $-1 $17 $34 $38 $39 1 $11 $-1 #
coedge $-1 $40 $41 $17 $26 1 $42 $-1 #
edge $43 $44 $45 $25 $46 0 #
fmesh-eye-attrib $-1 $-1 $-1 $19 #
face $47 $48 $49 $5 $-1 $50 forward single #
loop $-1 $51 $52 $19 #
plane-surface $-1 0 0 0 0 0 1 1 0 0 0 I I I I #
coedge $-1 $53 $54 $55 $56 0 $20 $-1 #
coedge $-1 $57 $22 $58 $59 1 $15 $-1 #
coedge $-1 $22 $57 $60 $61 0 $15 $-1 #
coedge $-1 $24 $23 $22 $35 0 $11 $-1 #
edge $62 $63 $64 $22 $65 0 #
coedge $-1 $52 $58 $23 $37 0 $29 $-1 #
edge $66 $63 $45 $36 $67 0 #
coedge $-1 $60 $68 $24 $39 0 $69 $-1 #
edge $70 $44 $64 $38 $71 0 #
coedge $-1 $72 $25 $68 $73 0 $42 $-1 #
coedge $-1 $25 $72 $52 $74 1 $42 $-1 #
loop $-1 $-1 $25 $75 #
ptlist-eye-attrib $-1 $-1 $-1 $26 #
vertex $-1 $73 $76 #
vertex $-1 $74 $77 #
straight-curve $-1 7.5 -10 -2.5 0 -0 1 F -10.25 F 10.25 #
fmesh-eye-attrib $-1 $-1 $-1 $28 #
face $78 $79 $80 $5 $-1 $81 forward single #
loop $-1 $-1 $82 $28 #
plane-surface $-1 12.5 0 2.5 -1 0 0 0 0 1 0 I I I I #
loop $-1 $-1 $83 $19 #
coedge $-1 $84 $36 $41 $74 0 $29 $-1 #
coedge $-1 $85 $31 $86 $87 1 $20 $-1 #
coedge $-1 $31 $85 $83 $88 1 $20 $-1 #
coedge $-1 $89 $90 $31 $56 1 $91 $-1 #
edge $92 $93 $94 $55 $95 0 #
coedge $-1 $33 $32 $96 $97 1 $15 $-1 #
coedge $-1 $36 $98 $32 $59 0 $29 $-1 #
edge $99 $100 $63 $58 $101 0 #
coedge $-1 $102 $38 $33 $61 1 $69 $-1 #
edge $103 $104 $64 $33 $105 0 #
ptlist-eye-attrib $-1 $-1 $-1 $35 #
vertex $-1 $37 $106 #
vertex $-1 $35 $107 #
straight-curve $-1 10 -7.5 -2.5 0 0 -1 F -10.25 F 10.25 #
ptlist-eye-attrib $-1 $-1 $-1 $37 #
ellipse-curve $-1 7.5 -7.5 0 -0 -0 -1 1.767766952966368654 -1.767766952966368654 0 1 I I #
coedge $-1 $38 $108 $40 $73 1 $69 $-1 #
loop $-1 $109 $38 $110 #
ptlist-eye-attrib $-1 $-1 $-1 $39 #
ellipse-curve $-1 7.5 -7.5 -5 0 0 1 1.767766952966368654 -1.767766952966368654 0 1 I I #
coedge $-1 $41 $40 $111 $112 1 $42 $-1 #
edge $113 $44 $114 $40 $115 0 #
edge $116 $45 $117 $52 $118 0 #
face $119 $120 $42 $5 $-1 $121 forward single #
point $-1 7.5 -10 -5 #
point $-1 7.5 -10 0 #
fmesh-eye-attrib $-1 $-1 $-1 $48 #
face $122 $123 $124 $5 $-1 $125 forward single #
loop $-1 $-1 $126 $48 #
cone-surface $-1 10 10 2.5 -0 -0 -1 1.767766952966368654 1.767766952966368654 0 1 I I 0 -1 0 I I I I #
coedge $-1 $127 $128 $85 $129 1 $49 $-1 #
coedge $-1 $130 $131 $54 $88 0 $51 $-1 #
coedge $-1 $132 $52 $133 $134 0 $29 $-1 #
coedge $-1 $54 $53 $82 $129 0 $20 $-1 #
coedge $-1 $135 $136 $53 $87 0 $137 $-1 #
edge $138 $139 $94 $86 $140 0 #
edge $141 $93 $142 $83 $143 0 #
coedge $-1 $144 $55 $131 $145 0 $91 $-1 #
coedge $-1 $55 $144 $135 $146 1 $91 $-1 #
loop $-1 $-1 $55 $147 #
ptlist-eye-attrib $-1 $-1 $-1 $56 #
vertex $-1 $145 $148 #
vertex $-1 $146 $149 #
straight-curve $-1 10 -12.5 2.5 0 -0 1 F -10.25 F 10.25 #
coedge $-1 $150 $151 $57 $97 0 $124 $-1 #
edge $152 $104 $100 $57 $153 0 #
coedge $-1 $58 $154 $150 $155 0 $29 $-1 #
ptlist-eye-attrib $-1 $-1 $-1 $59 #
vertex $-1 $59 $156 #
straight-curve $-1 10 0 0 0 -1 0 I I #
coedge $-1 $157 $60 $151 $158 0 $69 $-1 #
ptlist-eye-attrib $-1 $-1 $-1 $61 #
vertex $-1 $61 $159 #
straight-curve $-1 10 0 -5 0 -1 0 I I #
point $-1 10 -7.5 0 #
point $-1 10 -7.5 -5 #
coedge $-1 $68 $160 $161 $162 0 $69 $-1 #
loop $-1 $163 $164 $110 #
face $165 $75 $69 $5 $-1 $166 forward single #
coedge $-1 $161 $133 $72 $112 0 $167 $-1 #
edge $168 $117 $114 $72 $169 0 #
ptlist-eye-attrib $-1 $-1 $-1 $73 #
vertex $-1 $162 $170 #
straight-curve $-1 0 -10 -5 -1 0 0 I I #
ptlist-eye-attrib $-1 $-1 $-1 $74 #
vertex $-1 $134 $171 #
straight-curve $-1 0 -10 0 -1 0 0 I I #
fmesh-eye-attrib $-1 $172 $-1 $75 #
face $173 $147 $174 $5 $-1 $175 forward single #
plane-surface $-1 0 -10 -2.5 0 1 0 0 0 1 0 I I I I #
fmesh-eye-attrib $-1 $-1 $-1 $79 #
face $176 $177 $178 $5 $-1 $179 forward single #
loop $-1 $-1 $96 $79 #
cone-surface $-1 7.5 7.5 -2.5 -0 -0 -1 1.767766952966368654 1.767766952966368654 0 1 I I 0 -1 0 I I I I #
coedge $-1 $180 $181 $182 $183 0 $80 $-1 #
coedge $-1 $182 $82 $136 $184 1 $49 $-1 #
coedge $-1 $82 $182 $130 $185 0 $49 $-1 #
edge $186 $139 $142 $82 $187 0 #
coedge $-1 $188 $83 $128 $185 1 $51 $-1 #
coedge $-1 $83 $189 $89 $145 1 $51 $-1 #
coedge $-1 $190 $84 $191 $192 0 $29 $-1 #
coedge $-1 $111 $193 $84 $134 1 $167 $-1 #
edge $194 $117 $195 $84 $196 0 #
coedge $-1 $197 $86 $90 $146 0 $137 $-1 #
coedge $-1 $86 $198 $127 $184 0 $137 $-1 #
loop $-1 $199 $135 $200 #
ptlist-eye-attrib $-1 $-1 $-1 $87 #
vertex $-1 $87 $201 #
ellipse-curve $-1 10 -10 5 -0 -0 -1 1.767766952966368654 -1.767766952966368654 0 1 I I #
ptlist-eye-attrib $-1 $-1 $-1 $88 #
vertex $-1 $129 $202 #
ellipse-curve $-1 10 -10 0 0 0 1 1.767766952966368654 -1.767766952966368654 0 1 I I #
coedge $-1 $90 $89 $203 $204 1 $91 $-1 #
edge $205 $93 $206 $89 $207 0 #
edge $208 $94 $209 $135 $210 0 #
face $211 $212 $91 $5 $-1 $213 forward single #
point $-1 10 -12.5 0 #
point $-1 10 -12.5 5 #
coedge $-1 $214 $96 $98 $155 1 $124 $-1 #
coedge $-1 $96 $214 $102 $158 1 $124 $-1 #
ptlist-eye-attrib $-1 $-1 $-1 $97 #
straight-curve $-1 10 7.5 -2.5 -0 0 1 F -10.25 F 10.25 #
coedge $-1 $98 $190 $215 $216 0 $29 $-1 #
edge $217 $218 $100 $98 $219 0 #
point $-1 10 7.5 0 #
coedge $-1 $220 $102 $221 $222 1 $69 $-1 #
edge $223 $104 $224 $102 $225 0 #
point $-1 10 7.5 -5 #
coedge $-1 $108 $220 $226 $227 1 $69 $-1 #
coedge $-1 $193 $111 $108 $162 1 $167 $-1 #
edge $228 $229 $114 $108 $230 0 #
loop $-1 $-1 $231 $110 #
coedge $-1 $232 $233 $234 $235 0 $109 $-1 #
fmesh-eye-attrib $-1 $236 $-1 $110 #
plane-surface $-1 0 0 -5 0 0 1 1 0 0 0 I I I I #
loop $-1 $-1 $193 $237 #
ptlist-eye-attrib $-1 $-1 $-1 $112 #
straight-curve $-1 -7.5 -10 -2.5 0 0 -1 F -10.25 F 10.25 #
point $-1 -7.5 -10 -5 #
point $-1 -7.5 -10 0 #
id_attribute-st-attrib $-1 $238 $119 $75 0 #
fmesh-eye-attrib $-1 $239 $-1 $120 #
loop $-1 $-1 $240 $120 #
plane-surface $-1 0 10 -2.5 0 -1 0 0 0 -1 0 I I I I #
fmesh-eye-attrib $-1 $-1 $-1 $123 #
face $241 $242 $243 $5 $-1 $244 forward single #
loop $-1 $-1 $245 $123 #
cone-surface $-1 -7.5 7.5 -2.5 0 0 -1 -1.767766952966368654 1.767766952966368654 0 1 I I 0 -1 0 I I I I #
coedge $-1 $246 $126 $198 $247 1 $80 $-1 #
coedge $-1 $126 $246 $188 $248 1 $80 $-1 #
coedge $-1 $128 $127 $126 $183 1 $49 $-1 #
edge $249 $250 $251 $182 $252 0 #
edge $253 $251 $139 $136 $254 0 #
edge $255 $250 $142 $128 $256 0 #
ptlist-eye-attrib $-1 $-1 $-1 $129 #
straight-curve $-1 12.5 -10 2.5 0 0 -1 F -10.25 F 10.25 #
coedge $-1 $257 $130 $181 $248 0 $51 $-1 #
coedge $-1 $131 $258 $259 $260 0 $51 $-1 #
coedge $-1 $154 $132 $261 $262 0 $29 $-1 #
coedge $-1 $263 $264 $132 $192 1 $243 $-1 #
edge $265 $195 $266 $132 $267 0 #
coedge $-1 $133 $161 $263 $268 0 $167 $-1 #
ptlist-eye-attrib $-1 $-1 $-1 $134 #
vertex $-1 $192 $269 #
ellipse-curve $-1 -7.5 -7.5 0 -0 -0 -1 -1.767766952966368654 -1.767766952966368654 0 1 I I #
coedge $-1 $270 $135 $271 $272 0 $137 $-1 #
coedge $-1 $136 $273 $180 $247 0 $137 $-1 #
loop $-1 $-1 $274 $200 #
face $275 $276 $137 $5 $-1 $277 forward single #
point $-1 12.5 -10 5 #
point $-1 12.5 -10 0 #
coedge $-1 $259 $271 $144 $204 0 $278 $-1 #
edge $279 $209 $206 $144 $280 0 #
ptlist-eye-attrib $-1 $-1 $-1 $145 #
vertex $-1 $260 $281 #
straight-curve $-1 0 -12.5 0 -1 0 0 I I #
ptlist-eye-attrib $-1 $-1 $-1 $146 #
vertex $-1 $272 $282 #
straight-curve $-1 0 -12.5 5 -1 0 0 I I #
fmesh-eye-attrib $-1 $283 $-1 $147 #
face $284 $200 $285 $5 $-1 $286 forward single #
plane-surface $-1 0 -12.5 2.5 0 1 0 0 0 1 0 I I I I #
coedge $-1 $151 $150 $240 $287 0 $124 $-1 #
coedge $-1 $288 $240 $154 $216 1 $174 $-1 #
edge $289 $290 $218 $154 $291 0 #
ptlist-eye-attrib $-1 $-1 $-1 $155 #
vertex $-1 $155 $292 #
ellipse-curve $-1 7.5 7.5 0 -0 -0 -1 1.767766952966368654 1.767766952966368654 0 1 I I #
coedge $-1 $160 $157 $293 $294 0 $69 $-1 #
coedge $-1 $240 $288 $157 $222 0 $174 $-1 #
edge $295 $296 $224 $221 $297 0 #
ptlist-eye-attrib $-1 $-1 $-1 $158 #
vertex $-1 $158 $298 #
ellipse-curve $-1 7.5 7.5 -5 0 0 1 1.767766952966368654 1.767766952966368654 0 1 I I #
coedge $-1 $264 $263 $160 $227 0 $243 $-1 #
edge $299 $229 $300 $226 $301 0 #
ptlist-eye-attrib $-1 $-1 $-1 $162 #
vertex $-1 $227 $302 #
ellipse-curve $-1 -7.5 -7.5 -5 0 0 1 -1.767766952966368654 -1.767766952966368654 0 1 I I #
coedge $-1 $303 $304 $305 $306 0 $163 $-1 #
coedge $-1 $307 $164 $308 $309 0 $109 $-1 #
coedge $-1 $164 $310 $311 $312 0 $109 $-1 #
coedge $-1 $313 $314 $164 $235 1 $315 $-1 #
edge $316 $317 $318 $164 $319 0 #
id_attribute-st-attrib $-1 $320 $165 $110 0 #
face $321 $322 $167 $5 $-1 $323 forward single #
fmesh-eye-attrib $-1 $-1 $172 $75 #
id_attribute-st-attrib $-1 $324 $173 $120 0 #
coedge $-1 $215 $221 $214 $287 1 $174 $-1 #
fmesh-eye-attrib $-1 $-1 $-1 $177 #
face $325 $326 $327 $5 $-1 $328 forward single #
loop $-1 $-1 $264 $177 #
plane-surface $-1 -10 0 -2.5 1 0 0 0 0 -1 0 I I I I #
coedge $-1 $261 $293 $288 $329 0 $178 $-1 #
coedge $-1 $181 $180 $330 $331 0 $80 $-1 #
edge $332 $333 $251 $198 $334 0 #
edge $335 $250 $336 $188 $337 0 #
ptlist-eye-attrib $-1 $-1 $-1 $183 #
vertex $-1 $185 $338 #
vertex $-1 $184 $339 #
straight-curve $-1 12.5 10 2.5 -0 0 1 F -10.25 F 10.25 #
ptlist-eye-attrib $-1 $-1 $-1 $184 #
straight-curve $-1 12.5 0 5 0 -1 0 I I #
ptlist-eye-attrib $-1 $-1 $-1 $185 #
straight-curve $-1 12.5 0 0 0 -1 0 I I #
coedge $-1 $340 $188 $341 $342 1 $51 $-1 #
coedge $-1 $189 $340 $343 $344 1 $51 $-1 #
coedge $-1 $345 $203 $189 $260 1 $278 $-1 #
edge $346 $347 $206 $189 $348 0 #
coedge $-1 $349 $245 $190 $262 1 $178 $-1 #
edge $350 $266 $290 $190 $351 0 #
coedge $-1 $226 $191 $193 $268 1 $243 $-1 #
coedge $-1 $191 $226 $349 $352 1 $243 $-1 #
ptlist-eye-attrib $-1 $-1 $-1 $192 #
vertex $-1 $262 $353 #
straight-curve $-1 -10 0 0 0 1 0 I I #
edge $354 $229 $195 $263 $355 0 #
point $-1 -10 -7.5 0 #
coedge $-1 $356 $197 $357 $358 0 $137 $-1 #
coedge $-1 $203 $345 $197 $272 1 $278 $-1 #
edge $359 $209 $360 $197 $361 0 #
coedge $-1 $198 $356 $362 $363 0 $137 $-1 #
coedge $-1 $364 $365 $366 $367 0 $199 $-1 #
fmesh-eye-attrib $-1 $368 $-1 $200 #
face $369 $370 $371 $5 $-1 $372 reversed single #
plane-surface $-1 0 0 5 0 0 1 1 0 0 0 I I I I #
loop $-1 $-1 $345 $322 #
ptlist-eye-attrib $-1 $-1 $-1 $204 #
straight-curve $-1 -10 -12.5 2.5 0 0 -1 F -10.25 F 10.25 #
point $-1 -10 -12.5 0 #
point $-1 -10 -12.5 5 #
id_attribute-st-attrib $-1 $373 $211 $147 0 #
fmesh-eye-attrib $-1 $374 $-1 $212 #
loop $-1 $-1 $330 $212 #
plane-surface $-1 0 12.5 2.5 0 -1 0 0 0 -1 0 I I I I #
edge $375 $218 $224 $240 $376 0 #
coedge $-1 $221 $215 $245 $329 1 $174 $-1 #
ptlist-eye-attrib $-1 $-1 $-1 $216 #
vertex $-1 $216 $377 #
straight-curve $-1 0 10 0 1 0 -0 I I #
point $-1 7.5 10 0 #
coedge $-1 $245 $349 $220 $294 1 $178 $-1 #
edge $378 $296 $300 $220 $379 0 #
ptlist-eye-attrib $-1 $-1 $-1 $222 #
vertex $-1 $222 $380 #
straight-curve $-1 0 10 -5 1 0 0 I I #
point $-1 7.5 10 -5 #
ptlist-eye-attrib $-1 $-1 $-1 $227 #
vertex $-1 $352 $381 #
straight-curve $-1 -10 0 -5 0 1 0 I I #
point $-1 -10 -7.5 -5 #
coedge $-1 $382 $231 $383 $384 0 $163 $-1 #
coedge $-1 $231 $385 $386 $387 0 $163 $-1 #
coedge $-1 $388 $389 $231 $306 1 $390 $-1 #
edge $391 $392 $393 $231 $394 0 #
coedge $-1 $395 $232 $396 $397 0 $109 $-1 #
coedge $-1 $398 $399 $232 $309 1 $400 $-1 #
edge $401 $318 $402 $232 $403 0 #
coedge $-1 $233 $404 $405 $406 0 $109 $-1 #
coedge $-1 $407 $408 $233 $312 1 $409 $-1 #
edge $410 $411 $317 $233 $412 0 #
coedge $-1 $413 $234 $408 $414 0 $315 $-1 #
coedge $-1 $234 $413 $398 $415 1 $315 $-1 #
loop $-1 $-1 $314 $416 #
ptlist-eye-attrib $-1 $-1 $-1 $235 #
vertex $-1 $235 $417 #
vertex $-1 $309 $418 #
straight-curve $-1 -2.5 -4.440892098500626162e-16 -5 0 -1 0 I I #
fmesh-eye-attrib $-1 $-1 $236 $110 #
fmesh-eye-attrib $-1 $-1 $-1 $237 #
face $419 $420 $278 $5 $-1 $421 forward single #
cone-surface $-1 -7.5 -7.5 -2.5 -0 -0 -1 -1.767766952966368654 -1.767766952966368654 0 1 I I 0 -1 0 I I I I #
fmesh-eye-attrib $-1 $-1 $239 $120 #
fmesh-eye-attrib $-1 $-1 $-1 $242 #
face $422 $237 $423 $5 $-1 $424 forward single #
loop $-1 $-1 $425 $242 #
cone-surface $-1 -10 10 2.5 0 0 -1 -1.767766952966368654 1.767766952966368654 0 1 I I 0 -1 0 I I I I #
edge $426 $296 $290 $288 $427 0 #
coedge $-1 $362 $341 $246 $331 1 $285 $-1 #
edge $428 $333 $336 $330 $429 0 #
ptlist-eye-attrib $-1 $-1 $-1 $247 #
vertex $-1 $247 $430 #
ellipse-curve $-1 10 10 5 -0 -0 -1 1.767766952966368654 1.767766952966368654 0 1 I I #
ptlist-eye-attrib $-1 $-1 $-1 $248 #
vertex $-1 $248 $431 #
ellipse-curve $-1 10 10 0 0 0 1 1.767766952966368654 1.767766952966368654 0 1 I I #
point $-1 12.5 10 0 #
point $-1 12.5 10 5 #
coedge $-1 $258 $257 $432 $433 0 $51 $-1 #
coedge $-1 $330 $434 $257 $342 0 $285 $-1 #
edge $435 $436 $336 $341 $437 0 #
coedge $-1 $438 $439 $258 $344 0 $423 $-1 #
edge $440 $347 $441 $343 $442 0 #
coedge $-1 $271 $259 $439 $443 0 $278 $-1 #
ptlist-eye-attrib $-1 $-1 $-1 $260 #
vertex $-1 $344 $444 #
ellipse-curve $-1 -10 -10 0 0 0 1 -1.767766952966368654 -1.767766952966368654 0 1 I I #
coedge $-1 $293 $261 $264 $352 0 $178 $-1 #
ptlist-eye-attrib $-1 $-1 $-1 $262 #
ellipse-curve $-1 -7.5 7.5 0 -0 -0 -1 -1.767766952966368654 1.767766952966368654 0 1 I I #
edge $445 $266 $300 $264 $446 0 #
point $-1 -10 7.5 0 #
ptlist-eye-attrib $-1 $-1 $-1 $268 #
straight-curve $-1 -10 -7.5 -2.5 -0 -0 1 F -10.25 F 10.25 #
coedge $-1 $273 $270 $447 $448 0 $137 $-1 #
coedge $-1 $439 $438 $270 $358 1 $423 $-1 #
edge $449 $360 $450 $270 $451 0 #
ptlist-eye-attrib $-1 $-1 $-1 $272 #
vertex $-1 $358 $452 #
ellipse-curve $-1 -10 -10 5 -0 -0 -1 -1.767766952966368654 -1.767766952966368654 0 1 I I #
coedge $-1 $434 $330 $273 $363 1 $285 $-1 #
edge $453 $454 $333 $273 $455 0 #
coedge $-1 $456 $274 $457 $458 0 $199 $-1 #
coedge $-1 $274 $456 $459 $460 0 $199 $-1 #
coedge $-1 $461 $462 $274 $367 1 $463 $-1 #
edge $464 $465 $466 $366 $467 0 #
id_attribute-st-attrib $-1 $468 $275 $200 0 #
fmesh-eye-attrib $-1 $469 $-1 $276 #
face $470 $471 $472 $5 $-1 $473 reversed single #
loop $-1 $-1 $474 $276 #
plane-surface $-1 15 15 -15 -0 -0 1 1 -0 0 0 I I I I #
fmesh-eye-attrib $-1 $-1 $283 $147 #
id_attribute-st-attrib $-1 $475 $284 $212 0 #
ptlist-eye-attrib $-1 $-1 $-1 $287 #
straight-curve $-1 7.5 10 -2.5 -0 0 -1 F -10.25 F 10.25 #
point $-1 -7.5 10 0 #
ptlist-eye-attrib $-1 $-1 $-1 $294 #
ellipse-curve $-1 -7.5 7.5 -5 0 0 1 -1.767766952966368654 1.767766952966368654 0 1 I I #
point $-1 -7.5 10 -5 #
point $-1 -10 7.5 -5 #
coedge $-1 $476 $303 $477 $478 0 $163 $-1 #
coedge $-1 $479 $480 $303 $384 1 $481 $-1 #
edge $482 $393 $483 $303 $484 0 #
coedge $-1 $304 $485 $486 $487 0 $163 $-1 #
coedge $-1 $488 $489 $304 $387 1 $490 $-1 #
edge $491 $492 $392 $304 $493 0 #
coedge $-1 $494 $305 $489 $495 0 $390 $-1 #
coedge $-1 $305 $494 $479 $496 1 $390 $-1 #
loop $-1 $-1 $389 $497 #
ptlist-eye-attrib $-1 $-1 $-1 $306 #
vertex $-1 $306 $498 #
vertex $-1 $384 $499 #
straight-curve $-1 2.5 0 -5 0 1 -0 I I #
coedge $-1 $500 $307 $501 $502 0 $109 $-1 #
coedge $-1 $503 $504 $307 $397 1 $505 $-1 #
edge $506 $402 $507 $307 $508 0 #
coedge $-1 $509 $308 $314 $415 0 $400 $-1 #
coedge $-1 $308 $509 $503 $510 0 $400 $-1 #
loop $-1 $-1 $398 $420 #
ptlist-eye-attrib $-1 $-1 $-1 $309 #
vertex $-1 $397 $511 #
ellipse-curve $-1 -3.5 1.000000000000000888 -5 -0 -0 -1 0.7071067811865474617 -0.7071067811865474617 0 1 I I #
coedge $-1 $310 $512 $513 $514 0 $109 $-1 #
coedge $-1 $515 $516 $310 $406 1 $517 $-1 #
edge $518 $519 $411 $310 $520 0 #
coedge $-1 $521 $311 $516 $522 1 $409 $-1 #
coedge $-1 $311 $521 $313 $414 1 $409 $-1 #
loop $-1 $-1 $407 $523 #
ptlist-eye-attrib $-1 $-1 $-1 $312 #
vertex $-1 $312 $524 #
straight-curve $-1 -3.750000000000000444 2.500000000000000444 -5 -1 1.224646799147353207e-16 0 I I #
coedge $-1 $314 $313 $525 $526 0 $315 $-1 #
edge $527 $317 $528 $408 $529 0 #
edge $530 $318 $531 $314 $532 0 #
face $533 $534 $315 $5 $-1 $535 reversed single #
point $-1 -2.5 2.499999999999999112 -5 #
point $-1 -2.5 1.000000000000000888 -5 #
fmesh-eye-attrib $-1 $-1 $-1 $322 #
face $536 $416 $400 $5 $-1 $537 forward single #
cone-surface $-1 -10 -10 2.5 -0 -0 -1 -1.767766952966368654 -1.767766952966368654 0 1 I I 0 -1 0 I I I I #
fmesh-eye-attrib $-1 $-1 $-1 $326 #
loop $-1 $-1 $438 $326 #
plane-surface $-1 -12.5 0 2.5 1 0 0 0 0 -1 0 I I I I #
coedge $-1 $447 $432 $434 $538 0 $327 $-1 #
ptlist-eye-attrib $-1 $-1 $-1 $329 #
straight-curve $-1 -7.5 10 -2.5 -0 -0 1 F -10.25 F 10.25 #
ptlist-eye-attrib $-1 $-1 $-1 $331 #
straight-curve $-1 10 12.5 2.5 -0 0 -1 F -10.25 F 10.25 #
point $-1 10 12.5 5 #
point $-1 10 12.5 0 #
coedge $-1 $425 $539 $340 $433 1 $327 $-1 #
edge $540 $436 $441 $340 $541 0 #
coedge $-1 $341 $362 $425 $538 1 $285 $-1 #
ptlist-eye-attrib $-1 $-1 $-1 $342 #
vertex $-1 $342 $542 #
straight-curve $-1 0 12.5 0 1 0 0 I I #
coedge $-1 $357 $343 $539 $543 1 $423 $-1 #
coedge $-1 $343 $357 $345 $443 1 $423 $-1 #
ptlist-eye-attrib $-1 $-1 $-1 $344 #
vertex $-1 $543 $544 #
straight-curve $-1 -12.5 0 0 0 1 0 I I #
edge $545 $347 $360 $439 $546 0 #
point $-1 -12.5 -10 0 #
ptlist-eye-attrib $-1 $-1 $-1 $352 #
straight-curve $-1 -10 7.5 -2.5 0 -0 -1 F -10.25 F 10.25 #
coedge $-1 $539 $425 $356 $448 1 $327 $-1 #
edge $547 $450 $454 $356 $548 0 #
ptlist-eye-attrib $-1 $-1 $-1 $358 #
vertex $-1 $448 $549 #
straight-curve $-1 -12.5 0 5 0 1 0 I I #
point $-1 -12.5 -10 5 #
ptlist-eye-attrib $-1 $-1 $-1 $363 #
vertex $-1 $363 $550 #
straight-curve $-1 0 12.5 5 1 0 -0 I I #
coedge $-1 $365 $364 $551 $552 0 $199 $-1 #
coedge $-1 $553 $554 $364 $458 1 $555 $-1 #
edge $556 $466 $557 $457 $558 0 #
coedge $-1 $559 $560 $365 $460 1 $472 $-1 #
edge $561 $562 $465 $459 $563 0 #
coedge $-1 $564 $366 $560 $565 0 $463 $-1 #
coedge $-1 $366 $564 $553 $566 1 $463 $-1 #
loop $-1 $-1 $461 $567 #
ptlist-eye-attrib $-1 $-1 $-1 $367 #
vertex $-1 $367 $568 #
vertex $-1 $367 $569 #
straight-curve $-1 15 0 5 0 1 0 I I #
fmesh-eye-attrib $-1 $-1 $368 $200 #
fmesh-eye-attrib $-1 $570 $369 $276 #
fmesh-eye-attrib $-1 $571 $-1 $370 #
face $572 $573 $574 $5 $-1 $575 reversed single #
loop $-1 $-1 $559 $370 #
plane-surface $-1 0 -15 0 0 1 -0 -0 0 1 0 I I I I #
coedge $-1 $576 $577 $578 $579 1 $371 $-1 #
fmesh-eye-attrib $-1 $-1 $374 $212 #
coedge $-1 $580 $382 $581 $582 0 $163 $-1 #
coedge $-1 $583 $584 $382 $478 1 $585 $-1 #
edge $586 $483 $587 $382 $588 0 #
coedge $-1 $589 $383 $389 $496 0 $481 $-1 #
coedge $-1 $383 $589 $583 $590 0 $481 $-1 #
loop $-1 $-1 $479 $591 #
ptlist-eye-attrib $-1 $-1 $-1 $384 #
vertex $-1 $478 $592 #
ellipse-curve $-1 3.5 -1 -5 -0 -0 -1 -0.7071067811865474617 0.7071067811865474617 0 1 I I #
coedge $-1 $385 $593 $594 $595 0 $163 $-1 #
coedge $-1 $596 $597 $385 $487 1 $598 $-1 #
edge $599 $600 $492 $385 $601 0 #
coedge $-1 $602 $386 $597 $603 1 $490 $-1 #
coedge $-1 $386 $602 $388 $495 1 $490 $-1 #
loop $-1 $-1 $488 $604 #
ptlist-eye-attrib $-1 $-1 $-1 $387 #
vertex $-1 $387 $605 #
straight-curve $-1 3.75 -2.5 -5 1 0 0 I I #
coedge $-1 $389 $388 $606 $607 0 $390 $-1 #
edge $608 $392 $609 $388 $610 0 #
edge $611 $393 $612 $389 $613 0 #
face $614 $523 $390 $5 $-1 $615 reversed single #
point $-1 2.5 -2.5 -5 #
point $-1 2.5 -1 -5 #
coedge $-1 $616 $395 $617 $618 0 $109 $-1 #
coedge $-1 $619 $620 $395 $502 1 $621 $-1 #
edge $622 $507 $623 $395 $624 0 #
coedge $-1 $625 $396 $399 $510 1 $505 $-1 #
coedge $-1 $396 $625 $619 $626 1 $505 $-1 #
loop $-1 $-1 $503 $627 #
ptlist-eye-attrib $-1 $-1 $-1 $397 #
vertex $-1 $502 $628 #
straight-curve $-1 -1.875000000000000444 6.585571448599964351e-16 -5 -1 1.224646799147353207e-16 0 I I #
coedge $-1 $399 $398 $629 $630 1 $400 $-1 #
edge $631 $632 $402 $503 $633 0 #
point $-1 -3.5 8.575622497214412481e-16 -5 #
coedge $-1 $404 $634 $635 $636 0 $109 $-1 #
coedge $-1 $637 $638 $404 $514 1 $639 $-1 #
edge $640 $641 $519 $404 $642 0 #
coedge $-1 $643 $405 $638 $644 0 $517 $-1 #
coedge $-1 $405 $643 $407 $522 0 $517 $-1 #
loop $-1 $-1 $516 $645 #
ptlist-eye-attrib $-1 $-1 $-1 $406 #
vertex $-1 $406 $646 #
ellipse-curve $-1 5.5 4.499999999999999112 -5 -0 -0 -1 1.414213562373094923 -1.414213562373094923 0 1 I I #
coedge $-1 $408 $407 $647 $648 0 $409 $-1 #
edge $649 $650 $411 $407 $651 0 #
face $652 $653 $409 $5 $-1 $654 forward single #
point $-1 5.5 2.499999999999999112 -5 #
coedge $-1 $647 $629 $413 $526 1 $655 $-1 #
edge $656 $528 $531 $525 $657 0 #
ptlist-eye-attrib $-1 $-1 $-1 $414 #
vertex $-1 $526 $658 #
straight-curve $-1 -2.5 2.499999999999999112 -7.5 0 0 -1 I I #
ptlist-eye-attrib $-1 $-1 $-1 $415 #
vertex $-1 $415 $659 #
straight-curve $-1 -2.5 1.000000000000000888 -7.5 -0 -0 -1 F -5.599999999999999645 F 5.599999999999999645 #
fmesh-eye-attrib $-1 $-1 $-1 $416 #
face $660 $627 $621 $5 $-1 $661 forward single #
plane-surface $-1 -2.5 -8.881784197001252323e-16 -7.5 1 0 0 0 0 -1 0 I I I I #
fmesh-eye-attrib $-1 $-1 $-1 $420 #
cone-surface $-1 -3.5 1.000000000000000888 -7.5 0 0 1 0.7071067811865474617 -0.7071067811865474617 0 1 I I 0 -1 0 I I I I #
edge $662 $436 $454 $434 $663 0 #
coedge $-1 $432 $447 $438 $543 0 $327 $-1 #
ptlist-eye-attrib $-1 $-1 $-1 $433 #
ellipse-curve $-1 -10 10 0 0 0 1 -1.767766952966368654 1.767766952966368654 0 1 I I #
point $-1 -10 12.5 0 #
edge $664 $450 $441 $438 $665 0 #
point $-1 -12.5 10 0 #
ptlist-eye-attrib $-1 $-1 $-1 $443 #
straight-curve $-1 -12.5 -10 2.5 -0 -0 1 F -10.25 F 10.25 #
ptlist-eye-attrib $-1 $-1 $-1 $448 #
ellipse-curve $-1 -10 10 5 -0 -0 -1 -1.767766952966368654 1.767766952966368654 0 1 I I #
point $-1 -12.5 10 5 #
point $-1 -10 12.5 5 #
coedge $-1 $666 $667 $456 $552 1 $574 $-1 #
edge $668 $557 $562 $551 $669 0 #
coedge $-1 $578 $457 $462 $566 0 $555 $-1 #
coedge $-1 $457 $578 $666 $670 1 $555 $-1 #
loop $-1 $-1 $553 $573 #
ptlist-eye-attrib $-1 $-1 $-1 $458 #
vertex $-1 $458 $671 #
straight-curve $-1 0 15 5 -1 0 0 I I #
coedge $-1 $672 $459 $667 $673 0 $472 $-1 #
coedge $-1 $459 $672 $461 $565 1 $472 $-1 #
ptlist-eye-attrib $-1 $674 $-1 $460 #
vertex $-1 $552 $675 #
straight-curve $-1 0 -15 5 1 0 0 I I #
coedge $-1 $462 $461 $576 $676 0 $463 $-1 #
edge $677 $465 $678 $461 $679 0 #
edge $680 $466 $681 $462 $682 0 #
face $683 $-1 $463 $5 $-1 $684 reversed single #
point $-1 15 -15 5 #
point $-1 15 15 5 #
fmesh-eye-attrib $-1 $685 $469 $276 #
fmesh-eye-attrib $-1 $686 $470 $370 #
fmesh-eye-attrib $-1 $687 $-1 $471 #
face $688 $567 $555 $5 $-1 $689 reversed single #
loop $-1 $-1 $666 $471 #
plane-surface $-1 -15 0 0 1 0 0 0 0 -1 0 I I I I #
coedge $-1 $690 $474 $564 $676 1 $371 $-1 #
coedge $-1 $474 $690 $691 $692 1 $371 $-1 #
coedge $-1 $554 $553 $474 $579 0 $555 $-1 #
edge $693 $681 $694 $578 $695 0 #
coedge $-1 $696 $476 $697 $698 0 $163 $-1 #
coedge $-1 $699 $700 $476 $582 1 $701 $-1 #
edge $702 $587 $703 $476 $704 0 #
coedge $-1 $705 $477 $480 $590 1 $585 $-1 #
coedge $-1 $477 $705 $699 $706 1 $585 $-1 #
loop $-1 $-1 $584 $707 #
ptlist-eye-attrib $-1 $-1 $-1 $478 #
vertex $-1 $582 $708 #
straight-curve $-1 1.875 0 -5 1 0 -0 I I #
coedge $-1 $480 $479 $709 $710 1 $481 $-1 #
edge $711 $712 $483 $583 $713 0 #
face $714 $497 $481 $5 $-1 $715 forward single #
point $-1 3.5 0 -5 #
coedge $-1 $485 $716 $717 $718 0 $163 $-1 #
coedge $-1 $719 $720 $485 $595 1 $721 $-1 #
edge $722 $723 $600 $485 $724 0 #
coedge $-1 $725 $486 $720 $726 0 $598 $-1 #
coedge $-1 $486 $725 $488 $603 0 $598 $-1 #
loop $-1 $-1 $597 $727 #
ptlist-eye-attrib $-1 $-1 $-1 $487 #
vertex $-1 $487 $728 #
ellipse-curve $-1 -5.5 -4.5 -5 -0 -0 -1 -1.414213562373094923 1.414213562373094923 0 1 I I #
coedge $-1 $489 $488 $729 $730 0 $490 $-1 #
edge $731 $732 $492 $488 $733 0 #
face $734 $707 $490 $5 $-1 $735 forward single #
point $-1 -5.5 -2.5 -5 #
coedge $-1 $729 $709 $494 $607 1 $736 $-1 #
edge $737 $609 $612 $606 $738 0 #
ptlist-eye-attrib $-1 $-1 $-1 $495 #
vertex $-1 $730 $739 #
straight-curve $-1 2.5 -2.5 -7.5 0 0 -1 I I #
ptlist-eye-attrib $-1 $-1 $-1 $496 #
vertex $-1 $496 $740 #
straight-curve $-1 2.5 -1 -7.5 -0 -0 -1 F -5.599999999999999645 F 5.599999999999999645 #
fmesh-eye-attrib $-1 $-1 $-1 $497 #
plane-surface $-1 2.5 0 -7.5 -1 0 0 0 0 1 0 I I I I #
coedge $-1 $634 $500 $741 $742 0 $109 $-1 #
coedge $-1 $743 $744 $500 $618 1 $745 $-1 #
edge $746 $623 $747 $500 $748 0 #
coedge $-1 $749 $501 $504 $626 0 $621 $-1 #
coedge $-1 $501 $749 $743 $750 0 $621 $-1 #
loop $-1 $-1 $620 $534 #
ptlist-eye-attrib $-1 $-1 $-1 $502 #
vertex $-1 $618 $751 #
ellipse-curve $-1 -6.5 1.000000000000001332 -5 -0 -0 -1 -0.7071067811865475727 -0.7071067811865474617 0 1 I I #
coedge $-1 $504 $503 $752 $753 0 $505 $-1 #
edge $754 $507 $755 $504 $756 0 #
face $757 $758 $505 $5 $-1 $759 forward single #
point $-1 -6.5 1.224956289465647284e-15 -5 #
coedge $-1 $525 $752 $509 $630 0 $655 $-1 #
edge $760 $632 $531 $629 $761 0 #
ptlist-eye-attrib $-1 $-1 $-1 $510 #
vertex $-1 $753 $762 #
straight-curve $-1 -3.5 8.881784197001252323e-16 -7.5 -0 -0 1 F -5.599999999999999645 F 5.599999999999999645 #
coedge $-1 $512 $616 $763 $764 0 $109 $-1 #
coedge $-1 $765 $766 $512 $636 1 $767 $-1 #
edge $768 $769 $641 $512 $770 0 #
coedge $-1 $771 $513 $766 $772 1 $639 $-1 #
coedge $-1 $513 $771 $515 $644 1 $639 $-1 #
loop $-1 $-1 $637 $773 #
ptlist-eye-attrib $-1 $-1 $-1 $514 #
vertex $-1 $514 $774 #
straight-curve $-1 7.5 2.499999999999999112 -5 -1.224646799147353207e-16 -1 0 I I #
coedge $-1 $516 $515 $775 $776 1 $517 $-1 #
edge $777 $519 $778 $638 $779 0 #
face $780 $773 $517 $5 $-1 $781 forward single #
point $-1 7.5 4.499999999999999112 -5 #
coedge $-1 $775 $525 $521 $648 1 $655 $-1 #
edge $782 $650 $528 $647 $783 0 #
ptlist-eye-attrib $-1 $-1 $-1 $522 #
vertex $-1 $648 $784 #
straight-curve $-1 5.5 2.499999999999999112 -5 0 0 1 F -11.19999999999999929 F 6.200000000000000178 #
fmesh-eye-attrib $-1 $785 $-1 $523 #
face $786 $604 $655 $5 $-1 $787 reversed single #
plane-surface $-1 -7.500000000000000888 2.500000000000000888 -5 1.224646799147353207e-16 1 -0 -0 0 -1 0 I I I I #
loop $-1 $-1 $629 $653 #
ptlist-eye-attrib $-1 $-1 $-1 $526 #
straight-curve $-1 -2.5 2.499999999999999556 -10 0 -1 0 I I #
point $-1 -2.5 2.499999999999999112 -10 #
point $-1 -2.5 1.000000000000000888 -10 #
fmesh-eye-attrib $-1 $-1 $-1 $534 #
cone-surface $-1 -6.5 1.000000000000001332 -7.5 0 0 -1 -0.7071067811865475727 -0.7071067811865474617 0 1 I I 0 -1 0 I I I I #
ptlist-eye-attrib $-1 $-1 $-1 $538 #
straight-curve $-1 -10 12.5 2.5 -0 -0 1 F -10.25 F 10.25 #
ptlist-eye-attrib $-1 $-1 $-1 $543 #
straight-curve $-1 -12.5 10 2.5 0 -0 -1 F -10.25 F 10.25 #
coedge $-1 $691 $551 $554 $670 0 $574 $-1 #
coedge $-1 $551 $691 $559 $673 1 $574 $-1 #
ptlist-eye-attrib $-1 $-1 $-1 $552 #
straight-curve $-1 -15 0 5 0 -1 0 I I #
edge $788 $557 $694 $554 $789 0 #
point $-1 -15 15 5 #
coedge $-1 $560 $559 $690 $790 0 $472 $-1 #
edge $791 $562 $792 $667 $793 0 #
id_attribute-st-attrib $-1 $-1 $561 $460 0 #
point $-1 -15 -15 5 #
edge $794 $678 $681 $564 $795 0 #
ptlist-eye-attrib $-1 $796 $-1 $565 #
vertex $-1 $565 $797 #
straight-curve $-1 15 -15 0 0 0 -1 I I #
ptlist-eye-attrib $-1 $-1 $-1 $566 #
vertex $-1 $566 $798 #
straight-curve $-1 15 15 0 0 0 -1 I I #
fmesh-eye-attrib $-1 $799 $-1 $567 #
plane-surface $-1 15 0 0 -1 0 0 0 -0 1 0 I I I I #
id_attribute-st-attrib $-1 $-1 $570 $276 0 #
fmesh-eye-attrib $-1 $800 $571 $370 #
fmesh-eye-attrib $-1 $801 $572 $471 #
fmesh-eye-attrib $-1 $802 $-1 $573 #
plane-surface $-1 0 15 0 0 -1 0 0 0 -1 0 I I I I #
coedge $-1 $577 $576 $672 $790 1 $371 $-1 #
coedge $-1 $667 $666 $577 $692 0 $574 $-1 #
edge $803 $694 $792 $691 $804 0 #
ptlist-eye-attrib $-1 $-1 $-1 $579 #
vertex $-1 $670 $805 #
straight-curve $-1 0 15 -15 -1 -0 -0 I I #
coedge $-1 $716 $580 $806 $807 0 $163 $-1 #
coedge $-1 $808 $809 $580 $698 1 $810 $-1 #
edge $811 $703 $812 $580 $813 0 #
coedge $-1 $814 $581 $584 $706 0 $701 $-1 #
coedge $-1 $581 $814 $808 $815 0 $701 $-1 #
loop $-1 $-1 $700 $816 #
ptlist-eye-attrib $-1 $-1 $-1 $582 #
vertex $-1 $698 $817 #
ellipse-curve $-1 6.5 -1 -5 -0 -0 -1 0.7071067811865474617 0.7071067811865474617 0 1 I I #
coedge $-1 $584 $583 $818 $819 0 $585 $-1 #
edge $820 $587 $821 $584 $822 0 #
face $823 $110 $585 $5 $-1 $824 forward single #
point $-1 6.5 0 -5 #
coedge $-1 $606 $818 $589 $710 0 $736 $-1 #
edge $825 $712 $612 $709 $826 0 #
ptlist-eye-attrib $-1 $-1 $-1 $590 #
vertex $-1 $819 $827 #
straight-curve $-1 3.5 0 -7.5 0 0 1 F -5.599999999999999645 F 5.599999999999999645 #
fmesh-eye-attrib $-1 $-1 $-1 $591 #
cone-surface $-1 3.5 -1 -7.5 0 0 1 -0.7071067811865474617 0.7071067811865474617 0 1 I I 0 -1 0 I I I I #
coedge $-1 $593 $696 $828 $829 0 $163 $-1 #
coedge $-1 $830 $831 $593 $718 1 $832 $-1 #
edge $833 $834 $723 $593 $835 0 #
coedge $-1 $836 $594 $831 $837 1 $721 $-1 #
coedge $-1 $594 $836 $596 $726 1 $721 $-1 #
loop $-1 $-1 $720 $838 #
ptlist-eye-attrib $-1 $-1 $-1 $595 #
vertex $-1 $595 $839 #
straight-curve $-1 -7.5 -2.5 -5 0 1 -0 I I #
coedge $-1 $597 $596 $840 $841 1 $598 $-1 #
edge $842 $600 $843 $720 $844 0 #
face $845 $846 $598 $5 $-1 $847 forward single #
point $-1 -7.5 -4.5 -5 #
coedge $-1 $840 $606 $602 $730 1 $736 $-1 #
edge $848 $732 $609 $729 $849 0 #
ptlist-eye-attrib $-1 $-1 $-1 $603 #
vertex $-1 $730 $850 #
straight-curve $-1 -5.5 -2.5 -5 -0 -0 1 F -11.19999999999999929 F 6.200000000000000178 #
fmesh-eye-attrib $-1 $851 $-1 $604 #
plane-surface $-1 7.5 -2.5 -5 -0 -1 -0 0 0 -1 0 I I I I #
loop $-1 $-1 $852 $846 #
ptlist-eye-attrib $-1 $-1 $-1 $607 #
straight-curve $-1 2.5 -2.5 -10 0 1 0 I I #
point $-1 2.5 -2.5 -10 #
point $-1 2.5 -1 -10 #
coedge $-1 $853 $854 $616 $742 1 $855 $-1 #
edge $856 $747 $857 $616 $858 0 #
coedge $-1 $859 $617 $620 $750 1 $745 $-1 #
coedge $-1 $617 $859 $853 $860 1 $745 $-1 #
loop $-1 $-1 $743 $861 #
ptlist-eye-attrib $-1 $-1 $-1 $618 #
vertex $-1 $742 $862 #
straight-curve $-1 -7.5 3.125000000000000888 -5 1.224646799147353207e-16 1 -0 I I #
coedge $-1 $620 $619 $863 $864 1 $621 $-1 #
edge $865 $866 $623 $743 $867 0 #
point $-1 -7.5 1.000000000000001776 -5 #
coedge $-1 $629 $863 $625 $753 1 $655 $-1 #
edge $868 $632 $755 $625 $869 0 #
ptlist-eye-attrib $-1 $-1 $-1 $626 #
vertex $-1 $626 $870 #
straight-curve $-1 -6.5 1.332267629550187849e-15 -7.5 0 -0 -1 F -5.599999999999999645 F 5.599999999999999645 #
fmesh-eye-attrib $-1 $-1 $-1 $627 #
face $871 $861 $855 $5 $-1 $872 forward single #
plane-surface $-1 -3.750000000000000888 8.881784197001252323e-16 -7.5 1.224646799147353207e-16 1 0 -0 0 -1 0 I I I I #
ptlist-eye-attrib $-1 $-1 $-1 $630 #
ellipse-curve $-1 -3.5 1.000000000000000888 -10 0 -0 1 0.7071067811865474617 -0.7071067811865474617 0 1 I I #
point $-1 -3.5 8.575622497214412481e-16 -10 #
coedge $-1 $873 $874 $634 $764 1 $875 $-1 #
edge $876 $857 $769 $634 $877 0 #
coedge $-1 $878 $635 $874 $879 0 $767 $-1 #
coedge $-1 $635 $878 $637 $772 0 $767 $-1 #
loop $-1 $-1 $766 $880 #
ptlist-eye-attrib $-1 $-1 $-1 $636 #
vertex $-1 $636 $881 #
ellipse-curve $-1 5.5 5.499999999999999112 -5 -0 -0 -1 1.414213562373094923 1.414213562373094923 0 1 I I #
coedge $-1 $638 $637 $882 $883 0 $639 $-1 #
edge $884 $885 $641 $637 $886 0 #
face $887 $888 $639 $5 $-1 $889 reversed single #
point $-1 7.5 5.499999999999999112 -5 #
coedge $-1 $882 $647 $643 $776 0 $655 $-1 #
edge $890 $650 $778 $775 $891 0 #
ptlist-eye-attrib $-1 $-1 $-1 $644 #
vertex $-1 $644 $892 #
straight-curve $-1 7.5 4.499999999999999112 -5 0 -0 -1 F -6.200000000000000178 F 11.19999999999999929 #
fmesh-eye-attrib $-1 $-1 $-1 $645 #
cone-surface $-1 5.5 4.499999999999999112 -5 -0 -0 -1 1.414213562373094923 -1.414213562373094923 0 1 I I 0 -1 0 I I I I #
ptlist-eye-attrib $-1 $-1 $-1 $648 #
straight-curve $-1 3.75 2.499999999999999112 -10 -1 0 0 I I #
point $-1 5.5 2.499999999999999112 -10 #
id_attribute-st-attrib $-1 $893 $652 $523 0 #
fmesh-eye-attrib $-1 $894 $-1 $653 #
plane-surface $-1 7.5 4.999999999999999112 -10 -0 0 -1 1 -1.224646799147353207e-16 0 0 I I I I #
ptlist-eye-attrib $-1 $-1 $-1 $670 #
straight-curve $-1 -15 15 0 0 0 -1 I I #
edge $895 $792 $678 $672 $896 0 #
ptlist-eye-attrib $-1 $897 $-1 $673 #
vertex $-1 $673 $898 #
straight-curve $-1 -15 -15 0 0 0 -1 I I #
ptlist-eye-attrib $-1 $-1 $-1 $676 #
straight-curve $-1 15 0 -15 0 1 0 I I #
id_attribute-st-attrib $-1 $-1 $677 $565 0 #
point $-1 15 -15 -15 #
point $-1 15 15 -15 #
id_attribute-st-attrib $-1 $899 $683 $567 0 #
id_attribute-st-attrib $-1 $-1 $686 $370 0 #
id_attribute-st-attrib $-1 $900 $687 $471 0 #
id_attribute-st-attrib $-1 $901 $688 $573 0 #
ptlist-eye-attrib $-1 $-1 $-1 $692 #
straight-curve $-1 -15 0 -15 -0 -1 -0 I I #
point $-1 -15 15 -15 #
coedge $-1 $902 $903 $696 $807 1 $904 $-1 #
edge $905 $812 $906 $696 $907 0 #
coedge $-1 $908 $697 $700 $815 1 $810 $-1 #
coedge $-1 $697 $908 $902 $909 1 $810 $-1 #
loop $-1 $-1 $809 $910 #
ptlist-eye-attrib $-1 $-1 $-1 $698 #
vertex $-1 $807 $911 #
straight-curve $-1 7.5 -3.125 -5 0 -1 0 I I #
coedge $-1 $700 $699 $912 $913 1 $701 $-1 #
edge $914 $915 $703 $808 $916 0 #
face $917 $910 $701 $5 $-1 $918 forward single #
point $-1 7.5 -1 -5 #
coedge $-1 $709 $912 $705 $819 1 $736 $-1 #
edge $919 $712 $821 $705 $920 0 #
ptlist-eye-attrib $-1 $-1 $-1 $706 #
vertex $-1 $913 $921 #
straight-curve $-1 6.5 0 -7.5 -0 0 -1 F -5.599999999999999645 F 5.599999999999999645 #
fmesh-eye-attrib $-1 $922 $-1 $707 #
plane-surface $-1 3.75 0 -7.5 0 -1 0 0 0 -1 0 I I I I #
ptlist-eye-attrib $-1 $-1 $-1 $710 #
ellipse-curve $-1 3.5 -1 -10 -0 -0 1 -0.7071067811865474617 0.7071067811865474617 0 1 I I #
point $-1 3.5 0 -10 #
coedge $-1 $923 $924 $716 $829 1 $925 $-1 #
edge $926 $906 $834 $716 $927 0 #
coedge $-1 $928 $717 $924 $929 0 $832 $-1 #
coedge $-1 $717 $928 $719 $837 0 $832 $-1 #
loop $-1 $-1 $831 $930 #
ptlist-eye-attrib $-1 $-1 $-1 $718 #
vertex $-1 $718 $931 #
ellipse-curve $-1 -5.5 -5.5 -5 -0 -0 -1 -1.414213562373094923 -1.414213562373094923 0 1 I I #
coedge $-1 $720 $719 $932 $933 0 $721 $-1 #
edge $934 $935 $723 $719 $936 0 #
face $937 $930 $721 $5 $-1 $938 reversed single #
point $-1 -7.5 -5.5 -5 #
coedge $-1 $932 $729 $725 $841 0 $736 $-1 #
edge $939 $732 $843 $840 $940 0 #
ptlist-eye-attrib $-1 $-1 $-1 $726 #
vertex $-1 $726 $941 #
straight-curve $-1 -7.5 -4.5 -5 -0 0 -1 F -6.200000000000000178 F 11.19999999999999929 #
fmesh-eye-attrib $-1 $-1 $-1 $727 #
face $942 $838 $736 $5 $-1 $943 reversed single #
cone-surface $-1 -5.5 -4.5 -5 0 0 -1 -1.414213562373094923 1.414213562373094923 0 1 I I 0 -1 0 I I I I #
ptlist-eye-attrib $-1 $-1 $-1 $730 #
straight-curve $-1 -3.75 -2.5 -10 1 0 0 I I #
point $-1 -5.5 -2.5 -10 #
id_attribute-st-attrib $-1 $944 $734 $604 0 #
coedge $-1 $945 $946 $947 $948 0 $736 $-1 #
coedge $-1 $949 $741 $744 $860 0 $855 $-1 #
coedge $-1 $741 $949 $873 $950 0 $855 $-1 #
loop $-1 $-1 $853 $758 #
ptlist-eye-attrib $-1 $-1 $-1 $742 #
vertex $-1 $764 $951 #
ellipse-curve $-1 -5.5 5.500000000000000888 -5 -0 -0 -1 -1.414213562373094923 1.414213562373094923 0 1 I I #
coedge $-1 $744 $743 $952 $953 0 $745 $-1 #
edge $954 $747 $955 $744 $956 0 #
face $957 $880 $745 $5 $-1 $958 forward single #
point $-1 -7.5 5.500000000000000888 -5 #
coedge $-1 $752 $952 $749 $864 0 $655 $-1 #
edge $959 $866 $755 $863 $960 0 #
ptlist-eye-attrib $-1 $-1 $-1 $750 #
vertex $-1 $953 $961 #
straight-curve $-1 -7.500000000000000888 1.000000000000001554 -7.5 -0 -0 1 F -5.599999999999999645 F 5.599999999999999645 #
ptlist-eye-attrib $-1 $-1 $-1 $753 #
straight-curve $-1 -3.750000000000000888 8.881784197001252323e-16 -10 -1 1.224646799147353207e-16 0 I I #
point $-1 -6.5 1.224956289465647284e-15 -10 #
fmesh-eye-attrib $-1 $-1 $-1 $758 #
cone-surface $-1 -5.5 5.500000000000000888 -7.5 0 0 1 -1.414213562373094923 1.414213562373094923 0 1 I I 0 -1 0 I I I I #
coedge $-1 $962 $763 $854 $950 1 $875 $-1 #
coedge $-1 $763 $962 $765 $879 1 $875 $-1 #
loop $-1 $-1 $873 $963 #
ptlist-eye-attrib $-1 $-1 $-1 $764 #
straight-curve $-1 5.35782974626967062e-16 7.5 -5 1 -1.224646799147353207e-16 0 I I #
coedge $-1 $766 $765 $964 $965 1 $767 $-1 #
edge $966 $769 $967 $874 $968 0 #
face $969 $963 $767 $5 $-1 $970 forward single #
point $-1 5.5 7.499999999999999112 -5 #
coedge $-1 $964 $775 $771 $883 1 $655 $-1 #
edge $971 $885 $778 $882 $972 0 #
ptlist-eye-attrib $-1 $-1 $-1 $772 #
vertex $-1 $883 $973 #
straight-curve $-1 7.5 5.499999999999999112 -6.25 -0 0 1 F -9.949999999999999289 F 7.450000000000000178 #
fmesh-eye-attrib $-1 $-1 $-1 $773 #
face $974 $975 $904 $5 $-1 $976 forward single #
plane-surface $-1 7.5 4.999999999999999112 -5 1 -1.224646799147353207e-16 0 0 0 1 0 I I I I #
ptlist-eye-attrib $-1 $-1 $-1 $776 #
ellipse-curve $-1 5.5 4.499999999999999112 -10 0 -0 1 1.414213562373094923 -1.414213562373094923 0 1 I I #
point $-1 7.5 4.499999999999999112 -10 #
fmesh-eye-attrib $-1 $-1 $785 $523 #
id_attribute-st-attrib $-1 $977 $786 $653 0 #
ptlist-eye-attrib $-1 $-1 $-1 $790 #
straight-curve $-1 0 -15 -15 1 0 0 I I #
id_attribute-st-attrib $-1 $-1 $791 $673 0 #
point $-1 -15 -15 -15 #
fmesh-eye-attrib $-1 $-1 $799 $567 #
fmesh-eye-attrib $-1 $-1 $801 $471 #
fmesh-eye-attrib $-1 $-1 $802 $573 #
coedge $-1 $947 $806 $809 $909 0 $904 $-1 #
coedge $-1 $806 $947 $923 $978 0 $904 $-1 #
loop $-1 $-1 $902 $888 #
ptlist-eye-attrib $-1 $-1 $-1 $807 #
vertex $-1 $829 $979 #
ellipse-curve $-1 5.5 -5.5 -5 -0 -0 -1 1.414213562373094923 -1.414213562373094923 0 1 I I #
coedge $-1 $809 $808 $945 $980 0 $810 $-1 #
edge $981 $812 $982 $809 $983 0 #
face $984 $591 $810 $5 $-1 $985 forward single #
point $-1 7.5 -5.5 -5 #
coedge $-1 $818 $945 $814 $913 0 $736 $-1 #
edge $986 $915 $821 $912 $987 0 #
ptlist-eye-attrib $-1 $-1 $-1 $815 #
vertex $-1 $980 $988 #
straight-curve $-1 7.5 -1 -7.5 -0 0 1 F -5.599999999999999645 F 5.599999999999999645 #
fmesh-eye-attrib $-1 $-1 $-1 $816 #
cone-surface $-1 6.5 -1 -7.5 -0 -0 -1 0.7071067811865474617 0.7071067811865474617 0 1 I I 0 -1 0 I I I I #
ptlist-eye-attrib $-1 $-1 $-1 $819 #
straight-curve $-1 3.75 0 -10 1 0 0 I I #
point $-1 6.5 0 -10 #
id_attribute-st-attrib $-1 $989 $823 $707 0 #
coedge $-1 $990 $828 $903 $978 1 $925 $-1 #
coedge $-1 $828 $990 $830 $929 1 $925 $-1 #
loop $-1 $-1 $923 $975 #
ptlist-eye-attrib $-1 $-1 $-1 $829 #
straight-curve $-1 0 -7.5 -5 -1 0 0 I I #
coedge $-1 $831 $830 $991 $992 1 $832 $-1 #
edge $993 $834 $994 $924 $995 0 #
face $996 $816 $832 $5 $-1 $997 forward single #
point $-1 -5.5 -7.5 -5 #
coedge $-1 $991 $840 $836 $933 1 $736 $-1 #
edge $998 $935 $843 $932 $999 0 #
ptlist-eye-attrib $-1 $-1 $-1 $837 #
vertex $-1 $933 $1000 #
straight-curve $-1 -7.5 -5.5 -6.25 0 -0 1 F -9.949999999999999289 F 7.450000000000000178 #
fmesh-eye-attrib $-1 $-1 $-1 $838 #
plane-surface $-1 -7.5 -5 -5 -1 0 0 0 0 1 0 I I I I #
ptlist-eye-attrib $-1 $-1 $-1 $841 #
ellipse-curve $-1 -5.5 -4.5 -10 -0 -0 1 -1.414213562373094923 1.414213562373094923 0 1 I I #
point $-1 -7.5 -4.5 -10 #
fmesh-eye-attrib $-1 $-1 $-1 $846 #
plane-surface $-1 -7.5 -5 -10 0 0 -1 -1 0 0 0 I I I I #
fmesh-eye-attrib $-1 $-1 $851 $604 #
coedge $-1 $912 $852 $908 $980 1 $736 $-1 #
coedge $-1 $852 $991 $990 $1001 1 $736 $-1 #
coedge $-1 $903 $902 $852 $948 1 $904 $-1 #
edge $1002 $1003 $982 $852 $1004 0 #
coedge $-1 $854 $853 $1005 $1006 1 $855 $-1 #
edge $1007 $1008 $857 $873 $1009 0 #
point $-1 -5.5 7.500000000000000888 -5 #
coedge $-1 $863 $1005 $859 $953 1 $655 $-1 #
edge $1010 $866 $955 $859 $1011 0 #
ptlist-eye-attrib $-1 $-1 $-1 $860 #
vertex $-1 $860 $1012 #
straight-curve $-1 -7.5 5.500000000000000888 -7.5 0 -0 -1 F -8.699999999999999289 F 8.699999999999999289 #
fmesh-eye-attrib $-1 $-1 $-1 $861 #
plane-surface $-1 -7.5 6.250000000000000888 -7.5 1 -1.224646799147353207e-16 0 0 0 1 0 I I I I #
ptlist-eye-attrib $-1 $-1 $-1 $864 #
ellipse-curve $-1 -6.5 1.000000000000001332 -10 0 -0 1 -0.7071067811865475727 -0.7071067811865474617 0 1 I I #
point $-1 -7.500000000000000888 1.000000000000001776 -10 #
coedge $-1 $874 $873 $1013 $1014 0 $875 $-1 #
face $1015 $645 $875 $5 $-1 $1016 forward single #
coedge $-1 $1013 $882 $878 $965 0 $655 $-1 #
edge $1017 $885 $967 $964 $1018 0 #
ptlist-eye-attrib $-1 $-1 $-1 $879 #
vertex $-1 $879 $1019 #
straight-curve $-1 5.5 7.499999999999999112 -6.25 0 0 -1 F -7.450000000000000178 F 9.949999999999999289 #
fmesh-eye-attrib $-1 $-1 $-1 $880 #
cone-surface $-1 5.5 5.499999999999999112 -6.25 -0 -0 -1 1.414213562373094923 1.414213562373094923 0 1 I I 0 -1 0 I I I I #
ptlist-eye-attrib $-1 $-1 $-1 $883 #
straight-curve $-1 7.5 4.999999999999999112 -10 -1.224646799147353207e-16 -1 0 I I #
point $-1 7.5 5.499999999999999112 -10 #
fmesh-eye-attrib $-1 $-1 $-1 $888 #
face $1020 $727 $925 $5 $-1 $1021 forward single #
cone-surface $-1 5.5 -5.5 -7.5 0 0 1 1.414213562373094923 -1.414213562373094923 0 1 I I 0 -1 0 I I I I #
fmesh-eye-attrib $-1 $-1 $894 $653 #
edge $1022 $1003 $906 $923 $1023 0 #
point $-1 5.5 -7.5 -5 #
edge $1024 $915 $982 $908 $1025 0 #
ptlist-eye-attrib $-1 $-1 $-1 $909 #
vertex $-1 $948 $1026 #
straight-curve $-1 7.5 -5.5 -7.5 -0 0 -1 F -8.699999999999999289 F 8.699999999999999289 #
fmesh-eye-attrib $-1 $-1 $-1 $910 #
plane-surface $-1 7.5 -6.25 -7.5 -1 0 0 0 0 1 0 I I I I #
ptlist-eye-attrib $-1 $-1 $-1 $913 #
ellipse-curve $-1 6.5 -1 -10 -0 -0 1 0.7071067811865474617 0.7071067811865474617 0 1 I I #
point $-1 7.5 -1 -10 #
fmesh-eye-attrib $-1 $-1 $922 $707 #
coedge $-1 $924 $923 $946 $1001 0 $925 $-1 #
coedge $-1 $946 $932 $928 $992 0 $736 $-1 #
edge $1027 $935 $994 $991 $1028 0 #
ptlist-eye-attrib $-1 $-1 $-1 $929 #
vertex $-1 $992 $1029 #
straight-curve $-1 -5.5 -7.5 -6.25 -0 0 -1 F -7.450000000000000178 F 9.949999999999999289 #
fmesh-eye-attrib $-1 $-1 $-1 $930 #
cone-surface $-1 -5.5 -5.5 -6.25 0 0 -1 -1.414213562373094923 -1.414213562373094923 0 1 I I 0 -1 0 I I I I #
ptlist-eye-attrib $-1 $-1 $-1 $933 #
straight-curve $-1 -7.5 -5 -10 0 1 0 I I #
point $-1 -7.5 -5.5 -10 #
edge $1030 $1003 $994 $990 $1031 0 #
ptlist-eye-attrib $-1 $-1 $-1 $948 #
vertex $-1 $1001 $1032 #
ellipse-curve $-1 5.5 -5.5 -10 -0 -0 1 1.414213562373094923 -1.414213562373094923 0 1 I I #
coedge $-1 $952 $1013 $949 $1006 0 $655 $-1 #
edge $1033 $1008 $955 $1005 $1034 0 #
ptlist-eye-attrib $-1 $-1 $-1 $950 #
vertex $-1 $1014 $1035 #
straight-curve $-1 -5.5 7.500000000000000888 -7.5 0 0 1 F -8.699999999999999289 F 8.699999999999999289 #
ptlist-eye-attrib $-1 $-1 $-1 $953 #
straight-curve $-1 -7.5 6.250000000000000888 -10 1.224646799147353207e-16 1 0 I I #
point $-1 -7.5 5.500000000000000888 -10 #
coedge $-1 $1005 $964 $962 $1014 1 $655 $-1 #
edge $1036 $1008 $967 $962 $1037 0 #
fmesh-eye-attrib $-1 $-1 $-1 $963 #
plane-surface $-1 1.530808498934191571e-16 7.5 -7.5 -1.224646799147353207e-16 -1 0 0 0 1 0 I I I I #
ptlist-eye-attrib $-1 $-1 $-1 $965 #
ellipse-curve $-1 5.5 5.499999999999999112 -10 0 -0 1 1.414213562373094923 1.414213562373094923 0 1 I I #
point $-1 5.5 7.499999999999999112 -10 #
fmesh-eye-attrib $-1 $-1 $-1 $975 #
plane-surface $-1 0 -7.5 -7.5 0 1 0 0 0 1 0 I I I I #
ptlist-eye-attrib $-1 $-1 $-1 $978 #
straight-curve $-1 5.5 -7.5 -7.5 -0 -0 1 F -8.699999999999999289 F 8.699999999999999289 #
ptlist-eye-attrib $-1 $-1 $-1 $980 #
straight-curve $-1 7.5 -6.25 -10 0 -1 0 I I #
point $-1 7.5 -5.5 -10 #
ptlist-eye-attrib $-1 $-1 $-1 $992 #
ellipse-curve $-1 -5.5 -5.5 -10 -0 -0 1 -1.414213562373094923 -1.414213562373094923 0 1 I I #
point $-1 -5.5 -7.5 -10 #
ptlist-eye-attrib $-1 $-1 $-1 $1001 #
straight-curve $-1 0 -7.5 -10 -1 0 0 I I #
point $-1 5.5 -7.5 -10 #
ptlist-eye-attrib $-1 $-1 $-1 $1006 #
ellipse-curve $-1 -5.5 5.500000000000000888 -10 0 -0 1 -1.414213562373094923 1.414213562373094923 0 1 I I #
point $-1 -5.5 7.500000000000000888 -10 #
ptlist-eye-attrib $-1 $-1 $-1 $1014 #
straight-curve $-1 1.530808498934191571e-16 7.5 -10 1 -1.224646799147353207e-16 0 I I #
End-of-ACIS-data 