600 0 1 0           
82 GICL ACIS Healer - Source: /gicl/data5/repository/STEP/STI/socket/socket.sat - 6 0 18 ACIS 6.0.3 Solaris 24 Sun Apr 14 00:08:57 2002 
1 9.999999999999999547e-07 1.000000000000000036e-10 
body $1 $2 $-1 $3 #
attrib_gssl_step_cc1_details-attrib_gssl_step-attrib $-1 $-1 $-1 $0 $4 $5 $6 $7 $8 $9 $10 $11 $12 $13 $14 $15 $16 $17 $18 $19 $20 $21 $22 $23 $24 $25 $26 $27 $28 $29 $30 $31 $32 $33 $34 $35 #
lump $-1 $-1 $36 $0 #
transform $-1 1 0 0 0 1 0 0 0 1 0 0 0 1 no_rotate no_reflect no_shear #
attrib_gssl_step_product_details-attrib_gssl_step-attrib $-1 $-1 $-1 $-1 7 Product 9 Test Part 1 1 6 detail 6 detail #
attrib_gssl_step_application_details-attrib_gssl_step-attrib $-1 $-1 $-1 $-1 70 configuration controlled 3d designs of mechanical parts and assemblies 22 International Standard 21 config_control_design 1994 #
attrib_gssl_step_mech_con_details-attrib_gssl_step-attrib $-1 $-1 $-1 $-1 19 3D Mechanical Parts 10 mechanical #
attrib_gssl_step_des_con_details-attrib_gssl_step-attrib $-1 $-1 $-1 $-1 19 3D Mechanical Parts 6 design #
attrib_gssl_step_person_details-attrib_gssl_step-attrib $-1 $-1 $-1 $-1 1 1 9 Last Name 10 First Name 0 0 0 #
attrib_gssl_step_person_details-attrib_gssl_step-attrib $-1 $-1 $-1 $-1 1 2 9 Last Name 10 First Name 0 0 0 #
attrib_gssl_step_person_details-attrib_gssl_step-attrib $-1 $-1 $-1 $-1 1 3 9 Last Name 10 First Name 0 0 0 #
attrib_gssl_step_person_details-attrib_gssl_step-attrib $-1 $-1 $-1 $-1 1 2 9 Last Name 10 First Name 0 0 0 #
attrib_gssl_step_person_details-attrib_gssl_step-attrib $-1 $-1 $-1 $-1 1 2 9 Last Name 10 First Name 0 0 0 #
attrib_gssl_step_person_details-attrib_gssl_step-attrib $-1 $-1 $-1 $-1 1 3 9 Last Name 10 First Name 0 0 0 #
attrib_gssl_step_person_details-attrib_gssl_step-attrib $-1 $-1 $-1 $-1 1 3 9 Last Name 10 First Name 0 0 0 #
attrib_gssl_step_person_details-attrib_gssl_step-attrib $-1 $-1 $-1 $-1 1 3 9 Last Name 10 First Name 0 0 0 #
attrib_gssl_step_org_details-attrib_gssl_step-attrib $-1 $-1 $-1 $-1 3 STI 3 R&D 3 R&D 12 design_owner #
attrib_gssl_step_org_details-attrib_gssl_step-attrib $-1 $-1 $-1 $-1 3 STI 3 R&D 3 R&D 7 creator #
attrib_gssl_step_org_details-attrib_gssl_step-attrib $-1 $-1 $-1 $-1 3 STI 3 R&D 3 R&D 0  #
attrib_gssl_step_org_details-attrib_gssl_step-attrib $-1 $-1 $-1 $-1 3 STI 3 R&D 3 R&D 7 creator #
attrib_gssl_step_org_details-attrib_gssl_step-attrib $-1 $-1 $-1 $-1 3 STI 3 R&D 3 R&D 15 design_supplier #
attrib_gssl_step_org_details-attrib_gssl_step-attrib $-1 $-1 $-1 $-1 3 STI 3 R&D 3 R&D 0  #
attrib_gssl_step_org_details-attrib_gssl_step-attrib $-1 $-1 $-1 $-1 3 STI 3 R&D 3 R&D 0  #
attrib_gssl_step_org_details-attrib_gssl_step-attrib $-1 $-1 $-1 $-1 3 STI 3 R&D 3 R&D 22 classification_officer #
attrib_gssl_step_datetime_details-attrib_gssl_step-attrib $-1 $-1 $-1 $-1 1997 1 1 0 0 0 5 0 1 13 creation_date #
attrib_gssl_step_datetime_details-attrib_gssl_step-attrib $-1 $-1 $-1 $-1 1997 1 1 0 0 0 5 0 1 0  #
attrib_gssl_step_datetime_details-attrib_gssl_step-attrib $-1 $-1 $-1 $-1 1997 1 1 0 0 0 5 0 1 0  #
attrib_gssl_step_datetime_details-attrib_gssl_step-attrib $-1 $-1 $-1 $-1 1997 1 1 0 0 0 5 0 1 19 classification_date #
attrib_gssl_step_datetime_details-attrib_gssl_step-attrib $-1 $-1 $-1 $-1 1997 1 1 0 0 0 5 0 1 0  #
attrib_gssl_step_security_details-attrib_gssl_step-attrib $-1 $-1 $-1 $-1 7 Version 20 Security for version 12 unclassified #
attrib_gssl_step_approval_details-attrib_gssl_step-attrib $-1 $-1 $-1 $-1 19 Definition approval 16 not_yet_approved 19 definition approval 0  #
attrib_gssl_step_approval_details-attrib_gssl_step-attrib $-1 $-1 $-1 $-1 16 Version approval 16 not_yet_approved 16 version approval 0  #
attrib_gssl_step_approval_details-attrib_gssl_step-attrib $-1 $-1 $-1 $-1 25 Version Security approval 16 not_yet_approved 25 version security approval 0  #
attrib_gssl_step_product_def_form_details-attrib_gssl_step-attrib $-1 $-1 $-1 $-1 9 Test Part 7 Version 0 #
attrib_gssl_step_product_def_details-attrib_gssl_step-attrib $-1 $-1 $-1 $-1 9 Test Part 7 Version #
attrib_gssl_step_product_def_spec_details-attrib_gssl_step-attrib $-1 $-1 $-1 $-1 9 Test Part 7 Version #
shell $-1 $-1 $-1 $37 $-1 $2 #
face $-1 $38 $39 $36 $-1 $40 reversed single #
face $-1 $41 $42 $36 $-1 $43 reversed single #
loop $-1 $44 $45 $37 #
cone-surface $-1 -75 0 0 0 0 1 10 0 0 1 I I 0 1 10 forward I I I I #
face $-1 $46 $47 $36 $-1 $48 forward single #
loop $-1 $49 $50 $38 #
cone-surface $-1 75 0 0 0 0 1 10 0 0 1 I I 0 1 10 forward I I I I #
loop $-1 $-1 $51 $37 #
coedge $-1 $45 $45 $52 $53 reversed $39 $-1 #
face $-1 $54 $55 $36 $-1 $56 forward single #
loop $-1 $-1 $57 $41 #
plane-surface $-1 27.5 0 62.5 -1 0 0 0 -0 1 forward_v I I I I #
loop $-1 $-1 $58 $38 #
coedge $-1 $50 $50 $59 $60 reversed $42 $-1 #
coedge $-1 $51 $51 $61 $62 reversed $44 $-1 #
coedge $-1 $52 $52 $45 $53 forward $63 $-1 #
edge $-1 $64 -3.141592653589799777 $64 3.141592653589786455 $45 $65 forward 7 unknown #
face $-1 $66 $67 $36 $-1 $56 forward single #
loop $-1 $-1 $68 $46 #
plane-surface $-1 0 0 50 0 0 1 1 0 0 forward_v I I I I #
coedge $-1 $69 $70 $71 $72 reversed $47 $-1 #
coedge $-1 $58 $58 $73 $74 reversed $49 $-1 #
coedge $-1 $59 $59 $50 $60 forward $75 $-1 #
edge $-1 $76 -3.141592653589799777 $76 3.141592653589786455 $50 $77 forward 7 unknown #
coedge $-1 $61 $61 $51 $62 forward $78 $-1 #
edge $-1 $79 -3.141592653589799777 $79 3.141592653589786455 $51 $80 forward 7 unknown #
loop $-1 $81 $52 $82 #
vertex $-1 $53 $83 #
ellipse-curve $-1 -75 0 25 0 0 -1 10 0 0 1 I I #
face $-1 $84 $85 $36 $-1 $56 forward single #
loop $-1 $-1 $86 $54 #
coedge $-1 $87 $88 $89 $90 reversed $55 $-1 #
coedge $-1 $91 $57 $92 $93 forward $47 $-1 #
coedge $-1 $57 $94 $95 $96 forward $47 $-1 #
coedge $-1 $97 $98 $57 $72 forward $99 $-1 #
edge $-1 $100 1.570796326794876796 $101 4.712388980384709214 $57 $102 forward 7 unknown #
coedge $-1 $73 $73 $58 $74 forward $103 $-1 #
edge $-1 $104 -3.141592653589799777 $104 3.141592653589786455 $58 $105 forward 7 unknown #
loop $-1 $106 $59 $107 #
vertex $-1 $60 $108 #
ellipse-curve $-1 75 0 -25 0 0 1 10 0 0 1 I I #
loop $-1 $109 $61 $110 #
vertex $-1 $62 $111 #
ellipse-curve $-1 -75 0 -25 0 0 1 10 0 0 1 I I #
loop $-1 $-1 $112 $82 #
face $-1 $113 $63 $36 $-1 $114 forward single #
point $-1 -85 -6.982962677686270497e-14 25 #
face $-1 $115 $116 $36 $-1 $56 forward single #
loop $-1 $-1 $117 $66 #
coedge $-1 $118 $119 $120 $121 reversed $67 $-1 #
coedge $-1 $122 $68 $123 $124 reversed $55 $-1 #
coedge $-1 $68 $122 $125 $126 reversed $55 $-1 #
coedge $-1 $127 $128 $68 $90 forward $129 $-1 #
edge $-1 $130 1.292206624403246185 $131 1.369438406004565678 $68 $132 forward 7 unknown #
coedge $-1 $133 $69 $134 $135 reversed $47 $-1 #
coedge $-1 $117 $136 $69 $93 reversed $85 $-1 #
edge $-1 $100 -35 $137 -25.49509756796389937 $69 $138 forward 7 unknown #
coedge $-1 $70 $133 $139 $140 reversed $47 $-1 #
coedge $-1 $141 $142 $70 $96 reversed $116 $-1 #
edge $-1 $143 -96.14442261514710708 $101 -65 $70 $138 forward 7 unknown #
coedge $-1 $144 $71 $142 $145 forward $99 $-1 #
coedge $-1 $71 $144 $117 $146 forward $99 $-1 #
loop $-1 $147 $97 $148 #
vertex $-1 $72 $149 #
vertex $-1 $72 $150 #
ellipse-curve $-1 27.5 50 50.00000000000029843 -1 0 0 0 0 -15 1 I I #
loop $-1 $151 $73 $152 #
vertex $-1 $74 $153 #
ellipse-curve $-1 75 0 25 0 0 -1 10 0 0 1 I I #
loop $-1 $-1 $154 $107 #
face $-1 $155 $75 $36 $-1 $156 reversed single #
point $-1 65 6.982962677686270497e-14 -25 #
loop $-1 $-1 $157 $110 #
face $-1 $158 $78 $36 $-1 $159 reversed single #
point $-1 -85 6.982962677686270497e-14 -25 #
coedge $-1 $160 $161 $162 $163 reversed $81 $-1 #
face $-1 $110 $164 $36 $-1 $165 forward single #
plane-surface $-1 -75 0 25 0 0 1 1 0 0 forward_v I I I I #
face $-1 $166 $167 $36 $-1 $56 forward single #
loop $-1 $-1 $142 $84 #
coedge $-1 $168 $92 $98 $146 reversed $85 $-1 #
coedge $-1 $169 $86 $170 $171 reversed $67 $-1 #
coedge $-1 $86 $169 $172 $173 reversed $67 $-1 #
coedge $-1 $174 $175 $86 $121 forward $176 $-1 #
edge $-1 $177 72.5 $178 80 $86 $179 forward 7 unknown #
coedge $-1 $88 $87 $180 $181 reversed $55 $-1 #
coedge $-1 $182 $183 $87 $124 forward $184 $-1 #
edge $-1 $185 65 $130 96.14442261514710708 $87 $138 forward 7 unknown #
coedge $-1 $186 $187 $88 $126 forward $188 $-1 #
edge $-1 $131 -97.97958971132709394 $189 -65 $88 $190 forward 7 unknown #
coedge $-1 $191 $89 $187 $192 forward $129 $-1 #
coedge $-1 $89 $193 $182 $194 forward $129 $-1 #
loop $-1 $-1 $195 $196 #
vertex $-1 $90 $197 #
vertex $-1 $90 $198 #
ellipse-curve $-1 0 0 50 0 0 -1 100 0 0 1 I I #
coedge $-1 $94 $91 $199 $200 reversed $47 $-1 #
coedge $-1 $201 $202 $91 $135 forward $203 $-1 #
edge $-1 $204 -75 $137 -50 $91 $205 forward 7 unknown #
coedge $-1 $92 $168 $201 $206 reversed $85 $-1 #
vertex $-1 $93 $207 #
straight-curve $-1 27.5 0 50 0 -1 0 I I #
coedge $-1 $208 $209 $94 $140 forward $129 $-1 #
edge $-1 $143 50 $210 75 $94 $211 forward 7 unknown #
coedge $-1 $212 $95 $209 $213 reversed $116 $-1 #
coedge $-1 $95 $212 $97 $145 reversed $116 $-1 #
vertex $-1 $140 $214 #
coedge $-1 $98 $97 $215 $216 reversed $99 $-1 #
edge $-1 $101 72.5 $217 80 $142 $218 forward 7 unknown #
edge $-1 $219 -80 $100 -72.5 $117 $220 forward 7 unknown #
loop $-1 $-1 $221 $148 #
face $-1 $222 $99 $36 $-1 $223 reversed single #
point $-1 27.5 35 50 #
point $-1 27.5 65 50 #
loop $-1 $-1 $224 $152 #
face $-1 $225 $103 $36 $-1 $226 forward single #
point $-1 65 -6.982962677686270497e-14 25 #
coedge $-1 $227 $228 $229 $230 reversed $106 $-1 #
face $-1 $152 $231 $36 $-1 $232 forward single #
plane-surface $-1 75 0 -25 0 0 1 1 0 0 forward_v I I I I #
coedge $-1 $233 $234 $235 $236 reversed $109 $-1 #
face $-1 $107 $237 $36 $-1 $238 forward single #
plane-surface $-1 -75 0 -25 0 0 1 1 0 0 forward_v I I I I #
coedge $-1 $161 $112 $239 $240 reversed $81 $-1 #
coedge $-1 $112 $160 $241 $242 reversed $81 $-1 #
coedge $-1 $243 $239 $112 $163 forward $129 $-1 #
edge $-1 $244 -3.141592653589793116 $245 -2.094395102393195707 $162 $246 forward 7 unknown #
loop $-1 $247 $248 $113 #
plane-surface $-1 -50 0 50 -1 0 0 0 -0 1 forward_v I I I I #
face $-1 $249 $250 $36 $-1 $56 forward single #
loop $-1 $-1 $251 $115 #
coedge $-1 $136 $117 $252 $253 reversed $85 $-1 #
coedge $-1 $119 $118 $254 $255 reversed $67 $-1 #
coedge $-1 $183 $256 $118 $171 forward $184 $-1 #
edge $-1 $257 25.49509756796389937 $177 35 $118 $138 forward 7 unknown #
coedge $-1 $258 $186 $119 $173 forward $188 $-1 #
edge $-1 $178 -35 $259 -31.72144385112380149 $119 $190 forward 7 unknown #
coedge $-1 $180 $120 $186 $260 reversed $176 $-1 #
coedge $-1 $120 $180 $183 $261 forward $176 $-1 #
loop $-1 $-1 $180 $262 #
vertex $-1 $121 $263 #
vertex $-1 $121 $264 #
straight-curve $-1 100 -35 50 -1 0 3.491481338843129805e-15 I I #
coedge $-1 $175 $174 $122 $181 forward $176 $-1 #
edge $-1 $189 -80 $185 -72.5 $122 $265 forward 7 unknown #
coedge $-1 $266 $123 $128 $194 reversed $184 $-1 #
coedge $-1 $123 $170 $175 $261 reversed $184 $-1 #
loop $-1 $-1 $182 $267 #
vertex $-1 $124 $268 #
coedge $-1 $172 $125 $174 $260 forward $188 $-1 #
coedge $-1 $125 $269 $127 $192 reversed $188 $-1 #
loop $-1 $-1 $125 $270 #
vertex $-1 $181 $271 #
straight-curve $-1 20 0 50 0 1 0 I I #
coedge $-1 $272 $127 $273 $274 forward $129 $-1 #
edge $-1 $131 -50 $275 0 $187 $276 forward 7 unknown #
coedge $-1 $128 $277 $278 $279 reversed $129 $-1 #
edge $-1 $280 -75 $130 -50 $182 $281 forward 7 unknown #
coedge $-1 $282 $283 $284 $285 forward $129 $-1 #
face $-1 $286 $287 $36 $-1 $288 forward single #
point $-1 27.5 -96.14442261514710708 50 #
point $-1 20 -97.97958971132709394 50 #
coedge $-1 $289 $290 $133 $200 forward $291 $-1 #
edge $-1 $210 -96.14442261514710708 $204 -25.49509756796389937 $133 $292 forward 7 unknown #
coedge $-1 $293 $134 $136 $206 forward $203 $-1 #
coedge $-1 $134 $294 $289 $295 reversed $203 $-1 #
loop $-1 $-1 $296 $297 #
vertex $-1 $135 $298 #
straight-curve $-1 27.5 25.49509756796389937 0 0 0 -1 I I #
edge $-1 $137 0.7475843496690203205 $299 1.008260082251041023 $136 $300 forward 7 unknown #
point $-1 27.5 25.49509756796389937 50 #
coedge $-1 $301 $139 $290 $302 reversed $129 $-1 #
coedge $-1 $139 $303 $141 $213 forward $129 $-1 #
vertex $-1 $200 $304 #
straight-curve $-1 27.5 96.14442261514710708 0 0 0 1 I I #
coedge $-1 $142 $141 $305 $306 reversed $116 $-1 #
edge $-1 $307 -1.369438406004565678 $143 -1.292206624403246185 $141 $308 forward 7 unknown #
point $-1 27.5 96.14442261514710708 50 #
coedge $-1 $305 $252 $144 $216 forward $309 $-1 #
edge $-1 $219 -1.570796326794876796 $217 1.570796326794876796 $215 $310 forward 7 unknown #
vertex $-1 $145 $311 #
straight-curve $-1 100 65 50 -1 0 3.491481338843129805e-15 I I #
vertex $-1 $146 $312 #
straight-curve $-1 100 35 50 1 0 -3.491481338843129805e-15 I I #
coedge $-1 $221 $221 $313 $314 reversed $147 $-1 #
face $-1 $315 $316 $36 $-1 $317 forward single #
cone-surface $-1 100 50 50 1 0 -3.491481338843129805e-15 -5.237222008264694984e-14 0 -15 1 I I 0 1 15 forward I I I I #
coedge $-1 $318 $319 $320 $321 reversed $151 $-1 #
face $-1 $322 $323 $36 $-1 $324 forward single #
plane-surface $-1 75 0 25 0 0 1 1 0 0 forward_v I I I I #
coedge $-1 $228 $154 $325 $326 reversed $106 $-1 #
coedge $-1 $154 $227 $327 $328 reversed $106 $-1 #
coedge $-1 $327 $329 $154 $230 forward $287 $-1 #
edge $-1 $330 -1.047197551196597853 $331 0 $229 $332 forward 7 unknown #
loop $-1 $-1 $333 $155 #
plane-surface $-1 50 0 -50 1 0 0 0 0 -1 forward_v I I I I #
coedge $-1 $234 $157 $334 $335 reversed $109 $-1 #
coedge $-1 $157 $233 $336 $337 reversed $109 $-1 #
coedge $-1 $336 $338 $157 $236 forward $287 $-1 #
edge $-1 $339 2.094395102393195707 $340 3.141592653589793116 $235 $341 forward 7 unknown #
loop $-1 $-1 $342 $158 #
plane-surface $-1 -50 0 -50 -1 0 0 0 -0 1 forward_v I I I I #
coedge $-1 $162 $343 $160 $240 forward $129 $-1 #
edge $-1 $344 2.094395102393195707 $244 3.141592653589793116 $239 $246 forward 7 unknown #
coedge $-1 $345 $346 $161 $242 forward $347 $-1 #
edge $-1 $245 -86.60254037844390496 $344 86.60254037844390496 $161 $348 forward 7 unknown #
coedge $-1 $349 $162 $346 $350 forward $129 $-1 #
vertex $-1 $240 $351 #
vertex $-1 $163 $352 #
ellipse-curve $-1 0 0 25 0 0 -1 100 0 0 1 I I #
loop $-1 $347 $353 $113 #
coedge $-1 $248 $248 $354 $355 forward $164 $-1 #
face $-1 $356 $357 $36 $-1 $56 forward single #
loop $-1 $-1 $358 $166 #
coedge $-1 $359 $360 $361 $362 reversed $167 $-1 #
coedge $-1 $215 $363 $168 $253 forward $309 $-1 #
edge $-1 $299 31.72144385112380149 $219 35 $168 $364 forward 7 unknown #
coedge $-1 $294 $365 $169 $255 forward $203 $-1 #
edge $-1 $259 -1.008260082251041023 $257 -0.7475843496690203205 $169 $366 forward 7 unknown #
coedge $-1 $170 $266 $294 $367 reversed $184 $-1 #
vertex $-1 $171 $368 #
coedge $-1 $269 $172 $365 $369 forward $188 $-1 #
vertex $-1 $255 $370 #
edge $-1 $189 -1.570796326794876796 $178 1.570796326794876796 $174 $371 forward 7 unknown #
edge $-1 $185 1.570796326794876796 $177 4.712388980384709214 $183 $372 forward 7 unknown #
face $-1 $270 $373 $36 $-1 $374 reversed single #
point $-1 27.5 -35 50 #
point $-1 20 -35 50 #
straight-curve $-1 100 -65 50 1 0 -3.491481338843129805e-15 I I #
coedge $-1 $256 $182 $375 $376 reversed $184 $-1 #
face $-1 $377 $184 $36 $-1 $48 forward single #
point $-1 27.5 -65 50 #
coedge $-1 $187 $258 $378 $379 forward $188 $-1 #
face $-1 $380 $188 $36 $-1 $381 forward single #
point $-1 20 -65 50 #
coedge $-1 $283 $191 $382 $383 forward $129 $-1 #
coedge $-1 $378 $382 $191 $274 reversed $316 $-1 #
edge $-1 $275 1.369438406004565678 $384 1.570796326794896558 $191 $385 forward 7 unknown #
vertex $-1 $379 $386 #
straight-curve $-1 20 -97.97958971132709394 0 0 0 -1 I I #
coedge $-1 $193 $320 $387 $388 forward $129 $-1 #
coedge $-1 $389 $375 $193 $279 forward $291 $-1 #
edge $-1 $280 -1.292206624403246185 $390 -1.047197551196597853 $193 $391 forward 7 unknown #
vertex $-1 $194 $392 #
straight-curve $-1 27.5 -96.14442261514710708 0 0 0 -1 I I #
coedge $-1 $393 $195 $394 $395 forward $129 $-1 #
coedge $-1 $195 $272 $396 $397 forward $129 $-1 #
coedge $-1 $398 $399 $195 $285 reversed $400 $-1 #
edge $-1 $401 1.77215424758522766 $402 1.849386029186547153 $284 $132 forward 7 unknown #
face $-1 $403 $404 $36 $-1 $405 reversed single #
loop $-1 $129 $338 $196 #
cone-surface $-1 0 0 0 0 0 1 100 0 0 1 I I 0 1 100 forward I I I I #
coedge $-1 $375 $199 $202 $295 forward $291 $-1 #
coedge $-1 $199 $389 $208 $302 forward $291 $-1 #
loop $-1 $-1 $375 $406 #
straight-curve $-1 27.5 0 75 0 -1 0 I I #
coedge $-1 $407 $201 $363 $408 reversed $203 $-1 #
coedge $-1 $202 $254 $256 $367 forward $203 $-1 #
edge $-1 $204 -0.7475843496690203205 $409 0.7475843496690203205 $202 $410 forward 7 unknown #
coedge $-1 $411 $412 $413 $414 forward $203 $-1 #
face $-1 $415 $416 $36 $-1 $417 reversed single #
point $-1 27.5 25.49509756796389937 75 #
vertex $-1 $253 $418 #
ellipse-curve $-1 0 0 50 0 0 1 37.5 0 0 1 I I #
coedge $-1 $419 $208 $420 $421 forward $129 $-1 #
edge $-1 $422 1.047197551196597853 $210 1.292206624403246185 $208 $391 forward 7 unknown #
coedge $-1 $209 $423 $424 $425 forward $129 $-1 #
point $-1 27.5 96.14442261514710708 75 #
coedge $-1 $424 $215 $212 $306 forward $309 $-1 #
edge $-1 $217 65 $307 97.97958971132709394 $212 $364 forward 7 unknown #
vertex $-1 $213 $426 #
ellipse-curve $-1 0 0 50 0 0 -1 100 0 0 1 I I #
loop $-1 $-1 $305 $380 #
ellipse-curve $-1 20 50 50.00000000000029843 1 0 0 0 0 -15 1 I I #
point $-1 20 65 50 #
point $-1 20 35 50 #
coedge $-1 $313 $313 $221 $314 forward $323 $-1 #
edge $-1 $427 -3.141592653589799777 $427 3.141592653589786455 $221 $428 forward 7 unknown #
face $-1 $406 $429 $36 $-1 $317 forward single #
loop $-1 $-1 $430 $222 #
plane-surface $-1 0 0 0 0 0 1 1 0 0 forward_v I I I I #
coedge $-1 $319 $224 $419 $431 reversed $151 $-1 #
coedge $-1 $224 $318 $432 $433 reversed $151 $-1 #
coedge $-1 $277 $419 $224 $321 forward $129 $-1 #
edge $-1 $434 0 $435 1.047197551196597853 $320 $436 forward 7 unknown #
face $-1 $-1 $437 $36 $-1 $438 forward single #
loop $-1 $439 $313 $225 #
plane-surface $-1 50 0 50 1 0 0 0 0 -1 forward_v I I I I #
coedge $-1 $333 $440 $227 $326 forward $231 $-1 #
edge $-1 $441 -86.60254037844390496 $330 86.60254037844390496 $227 $442 forward 7 unknown #
coedge $-1 $443 $229 $228 $328 forward $287 $-1 #
edge $-1 $331 0 $441 1.047197551196597853 $327 $332 forward 7 unknown #
coedge $-1 $229 $444 $333 $445 forward $287 $-1 #
vertex $-1 $445 $446 #
vertex $-1 $230 $447 #
ellipse-curve $-1 0 0 -25 0 0 1 100 0 0 1 I I #
coedge $-1 $448 $325 $329 $445 reversed $231 $-1 #
coedge $-1 $342 $449 $233 $335 forward $237 $-1 #
edge $-1 $450 -86.60254037844390496 $339 86.60254037844390496 $233 $451 forward 7 unknown #
coedge $-1 $452 $235 $234 $337 forward $287 $-1 #
edge $-1 $340 -3.141592653589793116 $450 -2.094395102393195707 $336 $341 forward 7 unknown #
coedge $-1 $235 $453 $342 $454 forward $287 $-1 #
vertex $-1 $454 $455 #
vertex $-1 $236 $456 #
ellipse-curve $-1 0 0 -25 0 0 1 100 0 0 1 I I #
coedge $-1 $457 $334 $338 $454 reversed $237 $-1 #
coedge $-1 $239 $393 $345 $458 forward $129 $-1 #
vertex $-1 $458 $459 #
coedge $-1 $460 $241 $343 $458 reversed $347 $-1 #
coedge $-1 $241 $460 $243 $350 reversed $347 $-1 #
loop $-1 $-1 $346 $113 #
straight-curve $-1 -50 0 25 0 -1 0 I I #
coedge $-1 $461 $243 $462 $463 reversed $129 $-1 #
edge $-1 $245 25 $464 75 $243 $465 forward 7 unknown #
point $-1 -100 0 25 #
point $-1 -50 86.60254037844390496 25 #
coedge $-1 $353 $353 $466 $467 forward $247 $-1 #
coedge $-1 $354 $354 $248 $355 reversed $468 $-1 #
edge $-1 $469 -3.141592653589802886 $469 3.141592653589783346 $354 $470 forward 7 unknown #
face $-1 $471 $400 $36 $-1 $56 forward single #
loop $-1 $-1 $472 $249 #
coedge $-1 $473 $474 $475 $476 reversed $250 $-1 #
coedge $-1 $477 $251 $478 $479 reversed $167 $-1 #
coedge $-1 $251 $477 $480 $481 reversed $167 $-1 #
coedge $-1 $482 $461 $251 $362 forward $129 $-1 #
edge $-1 $483 -1.849386029186547153 $484 -1.77215424758522766 $251 $308 forward 7 unknown #
coedge $-1 $252 $485 $293 $408 forward $309 $-1 #
straight-curve $-1 20 0 50 0 1 0 I I #
coedge $-1 $254 $486 $258 $369 reversed $203 $-1 #
ellipse-curve $-1 0 0 50 0 0 1 37.5 0 0 1 I I #
edge $-1 $257 50 $409 75 $256 $487 forward 7 unknown #
point $-1 27.5 -25.49509756796389937 50 #
edge $-1 $259 -50 $488 0 $258 $489 forward 7 unknown #
point $-1 20 -31.72144385112380149 50 #
ellipse-curve $-1 20 -50 50.00000000000029843 1 0 0 0 0 -15 1 I I #
ellipse-curve $-1 27.5 -50 50.00000000000029843 -1 0 0 0 0 -15 1 I I #
loop $-1 $176 $490 $262 #
cone-surface $-1 100 -50 50 1 0 -3.491481338843129805e-15 -5.237222008264694984e-14 0 -15 1 I I 0 1 15 forward I I I I #
coedge $-1 $278 $289 $266 $376 forward $291 $-1 #
edge $-1 $409 25.49509756796389937 $280 96.14442261514710708 $266 $292 forward 7 unknown #
face $-1 $262 $491 $36 $-1 $492 forward single #
coedge $-1 $430 $273 $269 $379 reversed $316 $-1 #
edge $-1 $488 31.72144385112380149 $275 97.97958971132709394 $269 $493 forward 7 unknown #
face $-1 $196 $309 $36 $-1 $381 forward single #
plane-surface $-1 20 0 37.5 -1 0 0 0 -0 1 forward_v I I I I #
coedge $-1 $273 $494 $272 $383 reversed $316 $-1 #
edge $-1 $384 1.570796326794896558 $495 1.77215424758522766 $272 $385 forward 7 unknown #
vertex $-1 $274 $496 #
ellipse-curve $-1 0 0 0 0 0 -1 100 0 0 1 I I #
point $-1 20 -97.97958971132709394 0 #
coedge $-1 $432 $497 $277 $388 reversed $498 $-1 #
edge $-1 $435 25 $390 75 $277 $499 forward 7 unknown #
coedge $-1 $290 $278 $497 $500 forward $291 $-1 #
vertex $-1 $388 $501 #
ellipse-curve $-1 0 0 75 0 0 1 100 0 0 1 I I #
point $-1 27.5 -96.14442261514710708 75 #
coedge $-1 $343 $282 $502 $503 reversed $129 $-1 #
coedge $-1 $504 $505 $282 $395 reversed $506 $-1 #
edge $-1 $402 50 $507 75 $394 $508 forward 7 unknown #
coedge $-1 $509 $510 $283 $397 reversed $491 $-1 #
edge $-1 $495 0 $401 50 $396 $511 forward 7 unknown #
coedge $-1 $512 $284 $510 $513 reversed $400 $-1 #
coedge $-1 $284 $512 $504 $514 reversed $400 $-1 #
loop $-1 $-1 $512 $356 #
vertex $-1 $285 $515 #
vertex $-1 $514 $516 #
face $-1 $297 $517 $36 $-1 $518 forward single #
loop $-1 $519 $466 $286 #
cone-surface $-1 -100 50 50 1 0 -3.491481338843129411e-15 -3.491481338843129569e-14 0 -10 1 I I 0 1 10 forward I I I I #
face $-1 $82 $291 $36 $-1 $518 forward single #
coedge $-1 $520 $293 $521 $522 reversed $203 $-1 #
edge $-1 $523 0 $299 50 $363 $524 forward 7 unknown #
vertex $-1 $376 $525 #
ellipse-curve $-1 0 0 75 0 0 -1 37.5 0 0 1 I I #
coedge $-1 $526 $296 $527 $528 forward $203 $-1 #
coedge $-1 $296 $529 $530 $531 reversed $203 $-1 #
coedge $-1 $505 $532 $296 $414 reversed $506 $-1 #
edge $-1 $533 -75 $534 -50 $413 $535 forward 7 unknown #
face $-1 $536 $537 $36 $-1 $492 forward single #
loop $-1 $203 $538 $297 #
cone-surface $-1 0 0 0 0 0 1 37.5 0 0 1 I I 0 1 37.5 forward I I I I #
point $-1 20 31.72144385112380149 50 #
coedge $-1 $320 $301 $318 $431 forward $129 $-1 #
coedge $-1 $497 $432 $301 $421 reversed $498 $-1 #
edge $-1 $422 -75 $539 -25 $301 $540 forward 7 unknown #
vertex $-1 $302 $541 #
coedge $-1 $303 $542 $543 $544 forward $129 $-1 #
coedge $-1 $485 $305 $303 $425 reversed $309 $-1 #
edge $-1 $545 0 $307 50 $424 $546 forward 7 unknown #
point $-1 20 97.97958971132709394 50 #
vertex $-1 $314 $547 #
ellipse-curve $-1 50 50 50.00000000000019895 -1 0 0 0 0 -15 1 I I #
loop $-1 $-1 $521 $315 #
coedge $-1 $494 $378 $486 $548 forward $316 $-1 #
edge $-1 $539 -1.047197551196597853 $434 0 $419 $436 forward 7 unknown #
coedge $-1 $420 $387 $319 $433 forward $498 $-1 #
edge $-1 $435 -86.60254037844390496 $539 86.60254037844390496 $319 $549 forward 7 unknown #
vertex $-1 $431 $550 #
vertex $-1 $321 $551 #
ellipse-curve $-1 0 0 25 0 0 -1 100 0 0 1 I I #
loop $-1 $552 $553 $322 #
plane-surface $-1 0 0 -75 0 0 -1 -1 0 0 forward_v I I I I #
loop $-1 $498 $554 $225 #
coedge $-1 $325 $448 $443 $555 reversed $231 $-1 #
vertex $-1 $328 $556 #
straight-curve $-1 50 0 -25 0 -1 0 I I #
coedge $-1 $453 $327 $440 $555 forward $287 $-1 #
coedge $-1 $329 $452 $557 $558 reversed $287 $-1 #
edge $-1 $559 -75 $330 -25 $329 $560 forward 7 unknown #
point $-1 50 -86.60254037844390496 -25 #
point $-1 100 0 -25 #
coedge $-1 $440 $333 $561 $562 reversed $231 $-1 #
coedge $-1 $334 $457 $452 $563 reversed $237 $-1 #
vertex $-1 $337 $564 #
straight-curve $-1 -50 0 -25 0 1 0 I I #
coedge $-1 $444 $336 $449 $563 forward $287 $-1 #
coedge $-1 $338 $443 $565 $566 reversed $287 $-1 #
edge $-1 $567 -75 $339 -25 $338 $568 forward 7 unknown #
point $-1 -50 86.60254037844390496 -25 #
point $-1 -100 0 -25 #
coedge $-1 $449 $342 $569 $570 reversed $237 $-1 #
edge $-1 $571 -75 $344 -25 $343 $572 forward 7 unknown #
point $-1 -50 -86.60254037844390496 25 #
coedge $-1 $346 $345 $573 $574 reversed $347 $-1 #
coedge $-1 $361 $349 $575 $576 forward $129 $-1 #
coedge $-1 $573 $577 $349 $463 forward $517 $-1 #
edge $-1 $578 1.849386029186547153 $464 2.094395102393195707 $349 $391 forward 7 unknown #
vertex $-1 $350 $579 #
straight-curve $-1 -50 86.60254037844390496 0 0 0 1 I I #
coedge $-1 $466 $466 $353 $467 reversed $404 $-1 #
edge $-1 $580 -3.141592653589802886 $580 3.141592653589783346 $466 $581 forward 7 unknown #
loop $-1 $-1 $354 $536 #
vertex $-1 $355 $582 #
ellipse-curve $-1 -50 -50 49.99999999999980105 1 0 0 0 0 -10 1 I I #
face $-1 $583 $584 $36 $-1 $585 forward single #
coedge $-1 $586 $587 $588 $589 reversed $357 $-1 #
coedge $-1 $590 $358 $591 $592 reversed $250 $-1 #
coedge $-1 $358 $590 $593 $594 reversed $250 $-1 #
coedge $-1 $595 $596 $358 $476 forward $519 $-1 #
edge $-1 $597 72.5 $598 80 $358 $599 forward 7 unknown #
coedge $-1 $360 $359 $600 $601 reversed $167 $-1 #
coedge $-1 $575 $602 $359 $479 forward $584 $-1 #
edge $-1 $603 60 $483 96.14442261514710708 $359 $604 forward 7 unknown #
coedge $-1 $605 $606 $360 $481 forward $537 $-1 #
edge $-1 $484 -97.97958971132709394 $607 -60 $360 $608 forward 7 unknown #
coedge $-1 $542 $361 $606 $609 forward $129 $-1 #
vertex $-1 $362 $610 #
vertex $-1 $362 $611 #
coedge $-1 $363 $424 $612 $613 forward $309 $-1 #
coedge $-1 $365 $526 $430 $548 reversed $203 $-1 #
straight-curve $-1 27.5 -25.49509756796389937 0 0 0 1 I I #
vertex $-1 $369 $614 #
straight-curve $-1 20 -31.72144385112380149 0 0 0 -1 I I #
coedge $-1 $490 $490 $554 $615 reversed $373 $-1 #
loop $-1 $-1 $510 $377 #
plane-surface $-1 -20 0 37.5 1 0 0 0 0 -1 forward_v I I I I #
straight-curve $-1 20 0 0 0 -1 0 I I #
coedge $-1 $382 $430 $509 $616 reversed $316 $-1 #
vertex $-1 $397 $617 #
point $-1 0 -100 0 #
coedge $-1 $387 $420 $389 $500 reversed $498 $-1 #
loop $-1 $-1 $387 $225 #
straight-curve $-1 50 -86.60254037844390496 0 0 0 1 I I #
edge $-1 $390 -86.60254037844390496 $422 86.60254037844390496 $389 $618 forward 7 unknown #
point $-1 50 -86.60254037844390496 75 #
coedge $-1 $619 $573 $393 $503 forward $517 $-1 #
edge $-1 $571 -2.094395102393195707 $507 -1.849386029186547153 $393 $391 forward 7 unknown #
coedge $-1 $620 $394 $399 $514 forward $506 $-1 #
coedge $-1 $394 $413 $619 $621 reversed $506 $-1 #
loop $-1 $-1 $620 $583 #
vertex $-1 $621 $622 #
straight-curve $-1 -27.5 -96.14442261514710708 0 0 0 1 I I #
coedge $-1 $623 $396 $494 $616 forward $491 $-1 #
coedge $-1 $396 $624 $398 $513 forward $491 $-1 #
straight-curve $-1 -20 -97.97958971132709394 0 0 0 1 I I #
coedge $-1 $399 $398 $625 $626 reversed $400 $-1 #
edge $-1 $627 60 $401 97.97958971132709394 $398 $628 forward 7 unknown #
edge $-1 $402 -96.14442261514710708 $629 -60 $399 $604 forward 7 unknown #
point $-1 -20 -97.97958971132709394 50 #
point $-1 -27.5 -96.14442261514710708 50 #
loop $-1 $-1 $619 $403 #
plane-surface $-1 0 0 75 0 0 1 1 0 0 forward_v I I I I #
loop $-1 $-1 $600 $286 #
coedge $-1 $630 $407 $631 $632 reversed $203 $-1 #
coedge $-1 $612 $633 $407 $522 forward $429 $-1 #
edge $-1 $634 -2.133332571338752537 $523 -1.008260082251041023 $407 $635 forward 7 unknown #
vertex $-1 $613 $636 #
straight-curve $-1 20 31.72144385112380149 0 0 0 1 I I #
point $-1 27.5 -25.49509756796389937 75 #
coedge $-1 $486 $411 $623 $637 reversed $203 $-1 #
coedge $-1 $587 $586 $411 $528 reversed $357 $-1 #
edge $-1 $534 -2.394008303920772907 $638 -2.133332571338752537 $527 $366 forward 7 unknown #
coedge $-1 $412 $630 $639 $640 forward $203 $-1 #
coedge $-1 $577 $619 $412 $531 forward $517 $-1 #
edge $-1 $533 2.394008303920772907 $641 3.889177003258813325 $530 $642 forward 7 unknown #
coedge $-1 $413 $620 $587 $643 forward $506 $-1 #
vertex $-1 $414 $644 #
vertex $-1 $528 $645 #
straight-curve $-1 -27.5 -25.49509756796389937 0 0 0 -1 I I #
face $-1 $148 $646 $36 $-1 $647 reversed single #
loop $-1 $-1 $480 $415 #
coedge $-1 $538 $538 $553 $648 reversed $416 $-1 #
vertex $-1 $421 $649 #
straight-curve $-1 50 86.60254037844390496 0 0 0 -1 I I #
point $-1 50 86.60254037844390496 75 #
coedge $-1 $423 $482 $650 $651 forward $129 $-1 #
coedge $-1 $650 $612 $423 $544 reversed $429 $-1 #
edge $-1 $652 -1.570796326794896558 $545 -1.369438406004565678 $423 $653 forward 7 unknown #
vertex $-1 $425 $654 #
straight-curve $-1 20 97.97958971132709394 0 0 0 1 I I #
point $-1 50 49.99999999999990052 65.00000000000019895 #
edge $-1 $488 1.008260082251041023 $655 2.133332571338752537 $486 $656 forward 7 unknown #
straight-curve $-1 50 0 25 0 1 0 I I #
point $-1 100 0 25 #
point $-1 50 -86.60254037844390496 25 #
loop $-1 $-1 $569 $322 #
coedge $-1 $553 $553 $538 $648 forward $437 $-1 #
coedge $-1 $554 $554 $490 $615 forward $439 $-1 #
edge $-1 $441 25 $657 75 $443 $658 forward 7 unknown #
point $-1 50 86.60254037844390496 -25 #
coedge $-1 $569 $561 $444 $558 forward $552 $-1 #
edge $-1 $559 1.047197551196597853 $659 2.094395102393195707 $444 $660 forward 7 unknown #
vertex $-1 $558 $661 #
straight-curve $-1 50 -86.60254037844390496 0 0 0 1 I I #
coedge $-1 $557 $565 $448 $562 forward $552 $-1 #
edge $-1 $657 -86.60254037844390496 $559 86.60254037844390496 $448 $662 forward 7 unknown #
edge $-1 $450 25 $659 75 $452 $663 forward 7 unknown #
point $-1 -50 -86.60254037844390496 -25 #
coedge $-1 $561 $569 $453 $566 forward $552 $-1 #
edge $-1 $567 -2.094395102393195707 $657 -1.047197551196597853 $453 $660 forward 7 unknown #
vertex $-1 $454 $664 #
straight-curve $-1 -50 86.60254037844390496 0 0 0 1 I I #
coedge $-1 $565 $557 $457 $570 forward $552 $-1 #
edge $-1 $659 -86.60254037844390496 $567 86.60254037844390496 $457 $665 forward 7 unknown #
vertex $-1 $503 $666 #
straight-curve $-1 -50 -86.60254037844390496 0 0 0 -1 I I #
coedge $-1 $502 $462 $460 $574 forward $517 $-1 #
edge $-1 $464 -86.60254037844390496 $571 86.60254037844390496 $573 $667 forward 7 unknown #
coedge $-1 $668 $478 $461 $576 reversed $584 $-1 #
edge $-1 $578 -75 $483 -50 $575 $669 forward 7 unknown #
coedge $-1 $462 $530 $668 $670 forward $517 $-1 #
vertex $-1 $576 $671 #
point $-1 -50 86.60254037844390496 75 #
vertex $-1 $467 $672 #
ellipse-curve $-1 -50 50 49.99999999999980105 1 0 0 0 0 -10 1 I I #
point $-1 -50 -49.99999999999990052 59.99999999999980105 #
face $-1 $267 $506 $36 $-1 $585 forward single #
loop $-1 $-1 $575 $471 #
plane-surface $-1 -27.5 0 62.5 1 0 0 0 0 -1 forward_v I I I I #
coedge $-1 $527 $472 $673 $674 reversed $357 $-1 #
coedge $-1 $472 $527 $532 $643 reversed $357 $-1 #
coedge $-1 $675 $676 $472 $589 forward $646 $-1 #
edge $-1 $677 -80 $678 -72.5 $472 $679 forward 7 unknown #
coedge $-1 $474 $473 $630 $680 reversed $250 $-1 #
coedge $-1 $602 $639 $473 $592 forward $584 $-1 #
edge $-1 $681 25.49509756796389937 $597 40 $473 $604 forward 7 unknown #
coedge $-1 $631 $605 $474 $594 forward $537 $-1 #
edge $-1 $598 -40 $682 -31.72144385112380149 $474 $608 forward 7 unknown #
coedge $-1 $600 $475 $605 $683 reversed $519 $-1 #
coedge $-1 $475 $600 $602 $684 forward $519 $-1 #
vertex $-1 $476 $685 #
vertex $-1 $476 $686 #
straight-curve $-1 -100 40 50 1 0 -3.491481338843129805e-15 I I #
coedge $-1 $596 $595 $477 $601 forward $519 $-1 #
edge $-1 $607 -80 $603 -72.5 $477 $687 forward 7 unknown #
coedge $-1 $478 $591 $596 $684 reversed $584 $-1 #
vertex $-1 $479 $688 #
straight-curve $-1 -27.5 0 50 0 1 0 I I #
coedge $-1 $593 $480 $595 $683 forward $537 $-1 #
coedge $-1 $480 $689 $482 $609 reversed $537 $-1 #
vertex $-1 $601 $690 #
straight-curve $-1 -20 0 50 0 -1 0 I I #
edge $-1 $484 -50 $691 0 $482 $692 forward 7 unknown #
point $-1 -27.5 96.14442261514710708 50 #
point $-1 -20 97.97958971132709394 50 #
coedge $-1 $543 $521 $485 $613 reversed $429 $-1 #
edge $-1 $545 -97.97958971132709394 $523 -31.72144385112380149 $485 $493 forward 7 unknown #
point $-1 20 -31.72144385112380149 0 #
edge $-1 $693 -3.141592653589799777 $693 3.141592653589786455 $490 $694 forward 7 unknown #
edge $-1 $495 -97.97958971132709394 $655 -31.72144385112380149 $509 $695 forward 7 unknown #
point $-1 -20 -97.97958971132709394 0 #
straight-curve $-1 50 0 75 0 1 0 I I #
coedge $-1 $530 $502 $505 $621 forward $517 $-1 #
coedge $-1 $532 $504 $675 $696 reversed $506 $-1 #
edge $-1 $507 -96.14442261514710708 $533 -25.49509756796389937 $505 $697 forward 7 unknown #
point $-1 -27.5 -96.14442261514710708 75 #
coedge $-1 $673 $509 $526 $637 forward $491 $-1 #
coedge $-1 $510 $673 $676 $698 forward $491 $-1 #
coedge $-1 $676 $675 $512 $626 forward $646 $-1 #
edge $-1 $629 72.5 $627 80 $512 $699 forward 7 unknown #
vertex $-1 $626 $700 #
straight-curve $-1 -20 0 50 0 -1 0 I I #
vertex $-1 $626 $701 #
coedge $-1 $529 $520 $590 $680 forward $203 $-1 #
coedge $-1 $689 $593 $520 $632 forward $537 $-1 #
edge $-1 $682 -50 $634 0 $520 $702 forward 7 unknown #
coedge $-1 $521 $650 $689 $703 reversed $429 $-1 #
vertex $-1 $522 $704 #
ellipse-curve $-1 0 0 0 0 0 -1 37.5 0 0 1 I I #
point $-1 20 31.72144385112380149 0 #
edge $-1 $655 0 $638 50 $623 $705 forward 7 unknown #
vertex $-1 $674 $706 #
coedge $-1 $591 $668 $529 $640 reversed $584 $-1 #
edge $-1 $681 50 $641 75 $639 $707 forward 7 unknown #
vertex $-1 $670 $708 #
ellipse-curve $-1 0 0 75 0 0 -1 37.5 0 0 1 I I #
edge $-1 $678 -40 $534 -25.49509756796389937 $587 $604 forward 7 unknown #
point $-1 -27.5 -25.49509756796389937 75 #
point $-1 -27.5 -25.49509756796389937 50 #
loop $-1 $468 $625 $536 #
cone-surface $-1 -100 -50 50 1 0 -3.491481338843129411e-15 -3.491481338843129569e-14 0 -10 1 I I 0 1 10 forward I I I I #
edge $-1 $709 -3.141592653589799777 $709 3.141592653589786455 $538 $710 forward 7 unknown #
point $-1 50 86.60254037844390496 25 #
coedge $-1 $633 $543 $542 $651 reversed $429 $-1 #
edge $-1 $691 -1.77215424758522766 $652 -1.570796326794896558 $542 $653 forward 7 unknown #
vertex $-1 $651 $711 #
ellipse-curve $-1 0 0 0 0 0 -1 100 0 0 1 I I #
point $-1 20 97.97958971132709394 0 #
vertex $-1 $616 $712 #
ellipse-curve $-1 0 0 0 0 0 -1 37.5 0 0 1 I I #
vertex $-1 $555 $713 #
straight-curve $-1 50 86.60254037844390496 0 0 0 -1 I I #
vertex $-1 $563 $714 #
ellipse-curve $-1 0 0 -75 0 0 -1 100 0 0 1 I I #
point $-1 50 -86.60254037844390496 -75 #
straight-curve $-1 50 0 -75 0 -1 0 I I #
straight-curve $-1 -50 -86.60254037844390496 0 0 0 -1 I I #
point $-1 -50 86.60254037844390496 -75 #
straight-curve $-1 -50 0 -75 0 1 0 I I #
point $-1 -50 -86.60254037844390496 75 #
straight-curve $-1 -50 0 75 0 -1 0 I I #
coedge $-1 $639 $575 $577 $670 reversed $584 $-1 #
straight-curve $-1 -27.5 96.14442261514710708 0 0 0 -1 I I #
edge $-1 $641 25.49509756796389937 $578 96.14442261514710708 $668 $697 forward 7 unknown #
point $-1 -27.5 96.14442261514710708 75 #
point $-1 -50 50.00000000000009948 59.99999999999980105 #
coedge $-1 $624 $623 $586 $674 forward $491 $-1 #
edge $-1 $638 31.72144385112380149 $677 40 $586 $628 forward 7 unknown #
coedge $-1 $625 $588 $620 $696 forward $646 $-1 #
coedge $-1 $588 $625 $624 $698 reversed $646 $-1 #
vertex $-1 $589 $715 #
vertex $-1 $589 $716 #
straight-curve $-1 -100 -40 50 -1 0 3.491481338843129805e-15 I I #
edge $-1 $682 2.133332571338752537 $681 2.394008303920772907 $590 $300 forward 7 unknown #
vertex $-1 $592 $717 #
vertex $-1 $680 $718 #
edge $-1 $607 -1.570796326794926534 $598 1.570796326794926534 $595 $719 forward 7 unknown #
edge $-1 $603 1.570796326794926534 $597 4.712388980384659476 $602 $720 forward 7 unknown #
point $-1 -27.5 40 50 #
point $-1 -20 40 50 #
straight-curve $-1 -100 60 50 -1 0 3.491481338843129805e-15 I I #
point $-1 -27.5 60 50 #
coedge $-1 $606 $631 $633 $703 forward $537 $-1 #
point $-1 -20 60 50 #
vertex $-1 $609 $721 #
straight-curve $-1 -20 97.97958971132709394 0 0 0 -1 I I #
vertex $-1 $615 $722 #
ellipse-curve $-1 50 -50 50.00000000000019895 -1 0 0 0 0 -15 1 I I #
straight-curve $-1 -20 0 0 0 1 0 I I #
edge $-1 $678 1.570796326794926534 $629 4.712388980384659476 $620 $723 forward 7 unknown #
straight-curve $-1 -27.5 0 75 0 1 0 I I #
edge $-1 $677 -1.570796326794926534 $627 1.570796326794926534 $624 $724 forward 7 unknown #
straight-curve $-1 -100 -60 50 1 0 -3.491481338843129805e-15 I I #
point $-1 -20 -60 50 #
point $-1 -27.5 -60 50 #
straight-curve $-1 -20 31.72144385112380149 0 0 0 -1 I I #
edge $-1 $634 31.72144385112380149 $691 97.97958971132709394 $689 $695 forward 7 unknown #
point $-1 -20 31.72144385112380149 0 #
straight-curve $-1 -20 -31.72144385112380149 0 0 0 1 I I #
point $-1 -20 -31.72144385112380149 50 #
straight-curve $-1 -27.5 25.49509756796389937 0 0 0 1 I I #
point $-1 -27.5 25.49509756796389937 75 #
vertex $-1 $648 $725 #
ellipse-curve $-1 0 0 -75 0 0 1 37.5 0 0 1 I I #
point $-1 0 100 0 #
point $-1 -20 -31.72144385112380149 0 #
point $-1 50 86.60254037844390496 -75 #
point $-1 -50 -86.60254037844390496 -75 #
point $-1 -20 -40 50 #
point $-1 -27.5 -40 50 #
point $-1 -27.5 25.49509756796389937 50 #
point $-1 -20 31.72144385112380149 50 #
ellipse-curve $-1 -20 50 49.99999999999970157 -1 0 0 0 0 -10 1 I I #
ellipse-curve $-1 -27.5 50 49.99999999999970157 1 0 0 0 0 -10 1 I I #
point $-1 -20 97.97958971132709394 0 #
point $-1 50 -50.00000000000009948 65.00000000000019895 #
ellipse-curve $-1 -27.5 -50 49.99999999999970157 1 0 0 0 0 -10 1 I I #
ellipse-curve $-1 -20 -50 49.99999999999970157 -1 0 0 0 0 -10 1 I I #
point $-1 -37.5 2.618611004132350143e-13 -75 #
End-of-ACIS-data 