700 0 2 0           
24 FBMach with ACIS - 7.0.3 13 ACIS 7.0.3 NT 24 Tue May 14 10:16:55 2002 
1 9.9999999999999995e-007 1e-010 
body $2 -1 $-1 $3 $-1 $4 #
bdycol-kcp $-1 -1 1 7 $5 $6 $7 $8 $9 $10 $11 #
model_id-kcp-attrib $-1 -1 $-1 $-1 $0 1 1021385814 1021385814 -215023615 1 #
lump $-1 -1 $-1 $-1 $12 $0 #
transform $-1 -1 1 0 0 0 1 0 0 0 1 0 0 0 1 rotate no_reflect no_shear #
body $13 -1 $-1 $14 $-1 $15 #
body $16 -1 $-1 $17 $-1 $18 #
body $19 -1 $-1 $20 $-1 $21 #
body $22 -1 $-1 $23 $-1 $24 #
body $25 -1 $-1 $26 $-1 $27 #
body $28 -1 $-1 $29 $-1 $30 #
body $31 -1 $-1 $32 $-1 $33 #
shell $-1 -1 $-1 $-1 $-1 $34 $-1 $3 #
model_id-kcp-attrib $-1 -1 $-1 $-1 $5 1 1021385814 1021385814 -214368254 1 #
lump $-1 -1 $-1 $-1 $35 $5 #
transform $-1 -1 1 0 0 0 1 0 0 0 1 0.8125 -0.25 0 1 no_rotate no_reflect no_shear #
rgb_color-st-attrib $-1 -1 $36 $-1 $6 1 1 0.5 #
lump $-1 -1 $-1 $-1 $37 $6 #
transform $-1 -1 -1 0 0 0 0 1 0 1 0 0.8125 0.23999999999999999 0 1 rotate no_reflect no_shear #
rgb_color-st-attrib $-1 -1 $38 $-1 $7 1 1 0.5 #
lump $-1 -1 $-1 $-1 $39 $7 #
transform $-1 -1 -1 0 0 0 0 1 0 1 0 0.8125 -0.01 0 1 rotate no_reflect no_shear #
rgb_color-st-attrib $-1 -1 $40 $-1 $8 1 1 0.5 #
lump $-1 -1 $-1 $-1 $41 $8 #
transform $-1 -1 1 0 0 0 0 1 0 -1 0 0.8125 -0.73999999999999999 0 1 rotate no_reflect no_shear #
rgb_color-st-attrib $-1 -1 $42 $-1 $9 0.5 1 1 #
lump $-1 -1 $-1 $-1 $43 $9 #
transform $-1 -1 1 0 0 0 -3.8285889215894375e-016 1 0 -1 -3.8285889215894375e-016 0.8125 -0.53125 -3.1825145410712199e-016 1 rotate no_reflect no_shear #
rgb_color-st-attrib $-1 -1 $44 $-1 $10 0.5 1 1 #
lump $-1 -1 $-1 $-1 $45 $10 #
transform $-1 -1 1 0 0 0 -3.8285889215894375e-016 1 0 -1 -3.8285889215894375e-016 0.8125 -0.03125 -1.2682200802765012e-016 1 rotate no_reflect no_shear #
rgb_color-st-attrib $-1 -1 $46 $-1 $11 0.5 1 1 #
lump $-1 -1 $-1 $-1 $47 $11 #
transform $-1 -1 1 0 0 0 1 0 0 0 1 0.8125 -0.25 0 1 no_rotate no_reflect no_shear #
face $48 -1 $-1 $49 $50 $12 $-1 $51 reversed single #
shell $-1 -1 $-1 $-1 $-1 $52 $-1 $14 #
model_id-kcp-attrib $-1 -1 $-1 $16 $6 1 1021385814 1021385814 -213712893 1 #
shell $-1 -1 $-1 $-1 $-1 $53 $-1 $17 #
model_id-kcp-attrib $-1 -1 $-1 $19 $7 1 1021385814 1021385814 -213057532 1 #
shell $-1 -1 $-1 $-1 $-1 $54 $-1 $20 #
model_id-kcp-attrib $-1 -1 $-1 $22 $8 1 1021385814 1021385814 -213057531 1 #
shell $-1 -1 $-1 $-1 $-1 $55 $-1 $23 #
model_id-kcp-attrib $-1 -1 $-1 $25 $9 1 1021385814 1021385814 -209059834 1 #
shell $-1 -1 $-1 $-1 $-1 $56 $-1 $26 #
model_id-kcp-attrib $-1 -1 $-1 $28 $10 1 1021385814 1021385814 -209059833 1 #
shell $-1 -1 $-1 $-1 $-1 $57 $-1 $29 #
model_id-kcp-attrib $-1 -1 $-1 $31 $11 1 1021385814 1021385815 -217710584 1 #
shell $-1 -1 $-1 $-1 $-1 $58 $-1 $32 #
model_id-kcp-attrib $-1 -1 $59 $-1 $34 1 1021385814 1021385814 -215023615 2 #
face $60 -1 $-1 $61 $62 $12 $-1 $63 reversed single #
loop $64 -1 $-1 $65 $66 $34 #
plane-surface $67 -1 $-1 0.8125 0.25 0 0 -1 0 0 0 -1 forward_v I I I I #
face $-1 -1 $-1 $68 $69 $35 $-1 $70 forward single #
face $-1 -1 $-1 $71 $72 $37 $-1 $73 reversed single #
face $-1 -1 $-1 $74 $75 $39 $-1 $76 reversed single #
face $-1 -1 $-1 $77 $78 $41 $-1 $79 reversed single #
face $-1 -1 $-1 $80 $81 $43 $-1 $82 forward single #
face $-1 -1 $-1 $83 $84 $45 $-1 $85 forward single #
face $-1 -1 $-1 $86 $87 $47 $-1 $88 reversed single #
face_name-twe-attrib $-1 -1 $-1 $48 $34 1 #
model_id-kcp-attrib $-1 -1 $89 $-1 $49 1 1021385814 1021385814 -215023615 3 #
face $90 -1 $-1 $91 $92 $12 $-1 $93 forward single #
loop $94 -1 $-1 $95 $96 $49 #
plane-surface $97 -1 $-1 0.8125 0 0 0 -1 0 0 0 -1 forward_v I I I I #
loop_type-twe-attrib $-1 -1 $-1 $-1 $50 1 #
loop $98 -1 $-1 $-1 $99 $34 #
coedge $-1 -1 $-1 $66 $66 $100 $101 reversed $50 $-1 #
surf-twe-attrib $-1 -1 $-1 $-1 $51 4 #
face $-1 -1 $-1 $102 $103 $35 $-1 $104 reversed single #
loop $-1 -1 $-1 $-1 $105 $52 #
plane-surface $-1 -1 $-1 0 0 1.15625 0 0 1 1 0 0 forward_v I I I I #
face $-1 -1 $-1 $106 $107 $37 $-1 $108 forward single #
loop $-1 -1 $-1 $109 $110 $53 #
cone-surface $-1 -1 $-1 0 0 0.39625000000000055 0 0 1 0.40625 0 0 1 I I -0.70710678118654702 0.70710678118654802 0.40625 forward I I I I #
face $-1 -1 $-1 $111 $112 $39 $-1 $113 forward single #
loop $-1 -1 $-1 $114 $115 $54 #
cone-surface $-1 -1 $-1 0 0 0.56812500000000077 0 0 1 0.578125 0 0 1 I I -0.70710678118654713 0.70710678118654802 0.578125 forward I I I I #
face $-1 -1 $-1 $116 $117 $41 $-1 $118 forward single #
loop $-1 -1 $-1 $119 $120 $55 #
cone-surface $-1 -1 $-1 0 0 0.56812500000000088 0 0 1 0.578125 0 0 1 I I -0.70710678118654713 0.70710678118654802 0.578125 forward I I I I #
face $-1 -1 $-1 $121 $122 $43 $-1 $123 forward single #
loop $-1 -1 $-1 $124 $125 $56 #
cone-surface $-1 -1 $-1 0 0 0 0 0 1 0.25 0 0 1 I I 0 1 0.25 forward I I I I #
face $-1 -1 $-1 $126 $127 $45 $-1 $128 forward single #
loop $-1 -1 $-1 $129 $130 $57 #
cone-surface $-1 -1 $-1 0 0 0 0 0 1 0.40625 0 0 1 I I 0 1 0.40625 forward I I I I #
face $-1 -1 $-1 $131 $132 $47 $-1 $88 reversed single #
loop $-1 -1 $-1 $-1 $133 $58 #
cone-surface $-1 -1 $-1 0 0.5 0 0 1 0 -1.15625 0 0 1 I I 0 1 1.15625 forward I I I I #
face_name-twe-attrib $-1 -1 $-1 $60 $49 2 #
model_id-kcp-attrib $-1 -1 $134 $-1 $61 1 1021385814 1021385814 -215023615 4 #
face $135 -1 $-1 $136 $137 $12 $-1 $138 reversed single #
loop $139 -1 $-1 $140 $141 $61 #
plane-surface $142 -1 $-1 0.8125 -0.75 0 0 -1 0 0 0 -1 forward_v I I I I #
loop_type-twe-attrib $-1 -1 $-1 $-1 $62 1 #
loop $143 -1 $-1 $-1 $144 $49 #
coedge $-1 -1 $-1 $96 $96 $145 $146 forward $62 $-1 #
surf-twe-attrib $-1 -1 $-1 $-1 $63 6 #
loop_type-twe-attrib $-1 -1 $-1 $-1 $65 0 #
coedge $-1 -1 $-1 $99 $99 $147 $148 reversed $65 $-1 #
coedge $-1 -1 $-1 $100 $100 $66 $101 forward $149 $-1 #
edge $150 -1 $-1 $151 0 $151 6.2831853071795862 $100 $152 forward @7 unknown #
face $153 -1 $-1 $154 $155 $35 $-1 $156 reversed single #
loop $-1 -1 $-1 $-1 $157 $68 #
plane-surface $-1 -1 $-1 0 0 -1.15625 0 0 1 1 0 0 forward_v I I I I #
coedge $-1 -1 $-1 $158 $159 $160 $161 forward $69 $-1 #
face $-1 -1 $-1 $-1 $162 $37 $-1 $163 forward single #
loop $-1 -1 $-1 $164 $165 $71 #
cone-surface $-1 -1 $-1 0 0 0 0 0 1 0.8125 0 0 1 I I 0 1 0.8125 forward I I I I #
loop $-1 -1 $-1 $-1 $166 $53 #
coedge $-1 -1 $-1 $110 $110 $167 $168 reversed $72 $-1 #
face $-1 -1 $-1 $-1 $169 $39 $-1 $170 forward single #
loop $-1 -1 $-1 $171 $172 $74 #
cone-surface $-1 -1 $-1 0 0 0 0 0 1 1.15625 0 0 1 I I 0 1 1.15625 forward I I I I #
loop $-1 -1 $-1 $-1 $173 $54 #
coedge $-1 -1 $-1 $115 $115 $174 $175 reversed $75 $-1 #
face $-1 -1 $-1 $-1 $176 $41 $-1 $177 forward single #
loop $-1 -1 $-1 $178 $179 $77 #
cone-surface $-1 -1 $-1 0 0 0 0 0 1 1.15625 0 0 1 I I 0 1 1.15625 forward I I I I #
loop $-1 -1 $-1 $-1 $180 $55 #
coedge $-1 -1 $-1 $120 $120 $181 $182 reversed $78 $-1 #
face $-1 -1 $-1 $-1 $183 $43 $-1 $184 forward single #
loop $-1 -1 $-1 $-1 $185 $80 #
plane-surface $-1 -1 $-1 0 0 -0.21875000000000011 0 0 -1 -1 0 0 forward_v I I I I #
loop $-1 -1 $-1 $-1 $186 $56 #
coedge $-1 -1 $-1 $125 $125 $185 $187 reversed $81 $-1 #
face $-1 -1 $-1 $-1 $188 $45 $-1 $189 forward single #
loop $-1 -1 $-1 $-1 $190 $83 #
plane-surface $-1 -1 $-1 0 0 -0.28125000000000017 0 0 -1 -1 0 0 forward_v I I I I #
loop $-1 -1 $-1 $-1 $191 $57 #
coedge $-1 -1 $-1 $130 $130 $190 $192 reversed $84 $-1 #
face $-1 -1 $-1 $193 $194 $47 $-1 $88 reversed single #
loop $-1 -1 $-1 $-1 $195 $86 #
coedge $-1 -1 $-1 $196 $197 $198 $199 reversed $87 $-1 #
face_name-twe-attrib $-1 -1 $-1 $90 $61 3 #
model_id-kcp-attrib $-1 -1 $200 $-1 $91 1 1021385814 1021385814 -215023615 5 #
face $201 -1 $-1 $202 $203 $12 $-1 $204 forward single #
loop $205 -1 $-1 $206 $207 $91 #
plane-surface $208 -1 $-1 0.8125 -0.3125 0 0 -1 0 0 0 -1 forward_v I I I I #
loop_type-twe-attrib $-1 -1 $-1 $-1 $92 0 #
loop $209 -1 $-1 $-1 $210 $61 #
coedge $-1 -1 $-1 $141 $141 $211 $212 forward $92 $-1 #
surf-twe-attrib $-1 -1 $-1 $-1 $93 10 #
loop_type-twe-attrib $-1 -1 $-1 $-1 $95 0 #
coedge $-1 -1 $-1 $144 $144 $213 $214 reversed $95 $-1 #
coedge $-1 -1 $-1 $145 $145 $96 $146 reversed $215 $-1 #
edge $216 -1 $-1 $217 -3.1415926535897931 $217 3.1415926535897931 $145 $218 forward @7 unknown #
coedge $-1 -1 $-1 $147 $147 $99 $148 forward $203 $-1 #
edge $219 -1 $-1 $220 0 $220 6.2831853071795862 $147 $221 forward @7 unknown #
loop $222 -1 $-1 $-1 $100 $223 #
attrib_edge_convexity-kcp-attrib $-1 -1 $224 $-1 $101 1 #
vertex $-1 -1 $-1 $101 $225 #
ellipse-curve $226 -1 $-1 0.8125 0.25 0 0 1 0 -0.40625 0 0 1 I I #
model_id-kcp-attrib $-1 -1 $-1 $-1 $102 1 1021385814 1021385814 -214368254 3 #
face $-1 -1 $-1 $227 $228 $35 $-1 $229 reversed single #
loop $-1 -1 $-1 $-1 $230 $102 #
plane-surface $-1 -1 $-1 0 -0.5 0 0 1 0 0 0 1 forward_v I I I I #
coedge $-1 -1 $-1 $231 $232 $233 $234 forward $103 $-1 #
coedge $-1 -1 $-1 $235 $105 $236 $237 forward $69 $-1 #
coedge $-1 -1 $-1 $105 $235 $238 $239 forward $69 $-1 #
coedge $-1 -1 $-1 $240 $241 $105 $161 reversed $242 $-1 #
edge $-1 -1 $-1 $243 -0.5 $244 0.5 $160 $245 forward @7 unknown #
loop $-1 -1 $-1 $246 $167 $106 #
plane-surface $-1 -1 $-1 0 0 0.009999999999999995 0 0 1 1 0 0 forward_v I I I I #
loop $-1 -1 $-1 $-1 $247 $71 #
coedge $-1 -1 $-1 $165 $165 $166 $248 reversed $107 $-1 #
coedge $-1 -1 $-1 $166 $166 $165 $248 forward $109 $-1 #
coedge $-1 -1 $-1 $167 $167 $110 $168 forward $162 $-1 #
edge $-1 -1 $-1 $249 -3.1415926535897931 $249 3.1415926535897931 $167 $250 forward @7 unknown #
loop $-1 -1 $-1 $251 $174 $111 #
plane-surface $-1 -1 $-1 0 0 0.01 0 0 1 1 0 0 forward_v I I I I #
loop $-1 -1 $-1 $-1 $252 $74 #
coedge $-1 -1 $-1 $172 $172 $173 $253 reversed $112 $-1 #
coedge $-1 -1 $-1 $173 $173 $172 $253 forward $114 $-1 #
coedge $-1 -1 $-1 $174 $174 $115 $175 forward $169 $-1 #
edge $-1 -1 $-1 $254 -3.1415926535897931 $254 3.1415926535897931 $174 $255 forward @7 unknown #
loop $-1 -1 $-1 $256 $181 $116 #
plane-surface $-1 -1 $-1 0 0 0.010000000000000009 0 0 1 1 0 0 forward_v I I I I #
loop $-1 -1 $-1 $-1 $257 $77 #
coedge $-1 -1 $-1 $179 $179 $180 $258 reversed $117 $-1 #
coedge $-1 -1 $-1 $180 $180 $179 $258 forward $119 $-1 #
coedge $-1 -1 $-1 $181 $181 $120 $182 forward $176 $-1 #
edge $-1 -1 $-1 $259 -3.1415926535897931 $259 3.1415926535897931 $181 $260 forward @7 unknown #
loop $-1 -1 $-1 $-1 $261 $121 #
plane-surface $-1 -1 $-1 0 0 0.21875000000000011 0 0 1 1 0 0 forward_v I I I I #
coedge $-1 -1 $-1 $185 $185 $125 $187 forward $122 $-1 #
coedge $-1 -1 $-1 $186 $186 $261 $262 reversed $124 $-1 #
edge $-1 -1 $-1 $263 0 $263 6.2831853071795862 $185 $264 forward @7 unknown #
loop $-1 -1 $-1 $-1 $265 $126 #
plane-surface $-1 -1 $-1 0 0 0.28125000000000017 0 0 1 1 0 0 forward_v I I I I #
coedge $-1 -1 $-1 $190 $190 $130 $192 forward $127 $-1 #
coedge $-1 -1 $-1 $191 $191 $265 $266 reversed $129 $-1 #
edge $-1 -1 $-1 $267 0 $267 6.2831853071795862 $190 $268 forward @7 unknown #
face $-1 -1 $-1 $269 $270 $47 $-1 $88 reversed single #
loop $-1 -1 $-1 $-1 $271 $131 #
coedge $-1 -1 $-1 $272 $273 $274 $275 reversed $132 $-1 #
coedge $-1 -1 $-1 $276 $133 $277 $278 forward $87 $-1 #
coedge $-1 -1 $-1 $133 $276 $279 $280 reversed $87 $-1 #
coedge $-1 -1 $-1 $281 $282 $133 $199 forward $283 $-1 #
edge $-1 -1 $-1 $284 0 $285 1.5707963267948966 $198 $286 forward @7 unknown #
face_name-twe-attrib $-1 -1 $-1 $135 $91 4 #
model_id-kcp-attrib $-1 -1 $287 $-1 $136 1 1021385814 1021385814 -215023615 6 #
face $288 -1 $-1 $289 $290 $12 $-1 $291 forward single #
loop $292 -1 $-1 $293 $147 $136 #
cone-surface $294 -1 $-1 0.8125 0.23000000000000001 0 0 -1 0 -0.8125 0 0 1 I I 0.70710678118654702 0.70710678118654802 0.8125 forward I I I I #
model_id-kcp-attrib $-1 -1 $295 $-1 $137 1 1021385814 1021385814 -215023615 21 #
loop $296 -1 $-1 $-1 $297 $91 #
coedge $-1 -1 $-1 $207 $207 $298 $299 forward $137 $-1 #
surf-twe-attrib $-1 -1 $-1 $-1 $138 18 #
model_id-kcp-attrib $-1 -1 $300 $-1 $140 1 1021385814 1021385814 -215023615 20 #
coedge $-1 -1 $-1 $210 $210 $301 $302 reversed $140 $-1 #
coedge $-1 -1 $-1 $211 $211 $141 $212 reversed $303 $-1 #
edge $304 -1 $-1 $305 -3.1415926535897931 $305 3.1415926535897931 $211 $306 forward @7 unknown #
coedge $-1 -1 $-1 $213 $213 $144 $214 forward $307 $-1 #
edge $308 -1 $-1 $309 0 $309 6.2831853071795862 $213 $310 forward @7 unknown #
loop $311 -1 $-1 $-1 $145 $312 #
edge_name-twe-attrib $-1 -1 $-1 $-1 $146 6 8448 #
vertex $-1 -1 $-1 $146 $313 #
ellipse-curve $314 -1 $-1 0.8125 0 0 0 -1 0 -0.86906854249492405 0 0 1 I I #
attrib_edge_convexity-kcp-attrib $-1 -1 $315 $-1 $148 1 #
vertex $-1 -1 $-1 $148 $316 #
ellipse-curve $317 -1 $-1 0.8125 0.25 0 0 -1 0 -0.79249999999999998 0 0 1 I I #
loop_type-twe-attrib $-1 -1 $-1 $-1 $149 1 #
face $318 -1 $-1 $-1 $319 $12 $-1 $320 reversed single #
convexity-sys-attrib $-1 -1 $321 $150 $101 #
point $-1 -1 $-1 0.40625 0.25 0 #
cur-twe-attrib $-1 -1 $-1 $-1 $152 28 #
face $322 -1 $-1 $323 $324 $35 $-1 $325 reversed single #
loop $-1 -1 $-1 $-1 $326 $154 #
plane-surface $-1 -1 $-1 -1.15625 0 0 1 0 0 0 0 -1 forward_v I I I I #
coedge $-1 -1 $-1 $327 $238 $328 $329 forward $155 $-1 #
coedge $-1 -1 $-1 $330 $157 $327 $331 forward $103 $-1 #
coedge $-1 -1 $-1 $157 $330 $332 $333 forward $103 $-1 #
coedge $-1 -1 $-1 $241 $240 $157 $234 reversed $242 $-1 #
edge $-1 -1 $-1 $334 -0.5 $335 0.5 $233 $336 forward @7 unknown #
coedge $-1 -1 $-1 $159 $158 $337 $338 forward $69 $-1 #
coedge $-1 -1 $-1 $339 $340 $158 $237 reversed $324 $-1 #
edge $-1 -1 $-1 $244 -1.15625 $341 1.15625 $236 $342 forward @7 unknown #
coedge $-1 -1 $-1 $230 $343 $159 $239 reversed $155 $-1 #
edge $-1 -1 $-1 $344 -1.15625 $243 1.15625 $238 $345 forward @7 unknown #
coedge $-1 -1 $-1 $233 $160 $343 $346 forward $242 $-1 #
coedge $-1 -1 $-1 $160 $233 $339 $347 reversed $242 $-1 #
loop $-1 -1 $-1 $-1 $240 $323 #
vertex $-1 -1 $-1 $161 $348 #
vertex $-1 -1 $-1 $161 $349 #
straight-curve $-1 -1 $-1 1.15625 0 1.15625 0 1 0 I I #
loop $-1 -1 $-1 $-1 $350 $106 #
coedge $-1 -1 $-1 $247 $247 $350 $351 reversed $164 $-1 #
edge $-1 -1 $-1 $352 0 $352 6.2831853071795862 $165 $353 forward @7 unknown #
vertex $-1 -1 $-1 $168 $354 #
ellipse-curve $-1 -1 $-1 0 0 0.010000000000000009 0 0 -1 0.79249999999999998 0 0 1 I I #
loop $-1 -1 $-1 $-1 $355 $111 #
coedge $-1 -1 $-1 $252 $252 $355 $356 reversed $171 $-1 #
edge $-1 -1 $-1 $357 0 $357 6.2831853071795862 $172 $358 forward @7 unknown #
vertex $-1 -1 $-1 $175 $359 #
ellipse-curve $-1 -1 $-1 0 0 0.010000000000000009 0 0 -1 1.13625 0 0 1 I I #
loop $-1 -1 $-1 $-1 $360 $116 #
coedge $-1 -1 $-1 $257 $257 $360 $361 reversed $178 $-1 #
edge $-1 -1 $-1 $362 0 $362 6.2831853071795862 $179 $363 forward @7 unknown #
vertex $-1 -1 $-1 $182 $364 #
ellipse-curve $-1 -1 $-1 0 0 0.010000000000000009 0 0 -1 1.1362500000000002 0 0 1 I I #
coedge $-1 -1 $-1 $261 $261 $186 $262 forward $183 $-1 #
edge $-1 -1 $-1 $365 0 $365 6.2831853071795862 $261 $366 forward @7 unknown #
vertex $-1 -1 $-1 $187 $367 #
ellipse-curve $-1 -1 $-1 0 0 -0.21875000000000011 0 0 -1 0.25 0 0 1 I I #
coedge $-1 -1 $-1 $265 $265 $191 $266 forward $188 $-1 #
edge $-1 -1 $-1 $368 0 $368 6.2831853071795862 $265 $369 forward @7 unknown #
vertex $-1 -1 $-1 $192 $370 #
ellipse-curve $-1 -1 $-1 0 0 -0.28125000000000017 0 0 -1 0.40625 0 0 1 I I #
face $-1 -1 $-1 $371 $372 $47 $-1 $373 forward single #
loop $-1 -1 $-1 $-1 $374 $193 #
coedge $-1 -1 $-1 $375 $376 $374 $377 forward $194 $-1 #
coedge $-1 -1 $-1 $378 $195 $379 $380 reversed $132 $-1 #
coedge $-1 -1 $-1 $195 $378 $197 $280 forward $132 $-1 #
coedge $-1 -1 $-1 $381 $382 $195 $275 forward $383 $-1 #
edge $-1 -1 $-1 $384 -3.1415926535897931 $385 -1.5707963267948966 $274 $386 forward @7 unknown #
coedge $-1 -1 $-1 $197 $196 $387 $388 reversed $87 $-1 #
coedge $-1 -1 $-1 $376 $375 $389 $278 reversed $194 $-1 #
edge $-1 -1 $-1 $284 -1 $390 0 $389 $391 forward @7 unknown #
coedge $-1 -1 $-1 $392 $393 $394 $280 forward $395 $-1 #
edge $-1 -1 $-1 $285 -1 $385 0 $279 $396 forward @7 unknown #
coedge $-1 -1 $-1 $282 $198 $393 $397 reversed $283 $-1 #
coedge $-1 -1 $-1 $198 $281 $398 $399 forward $283 $-1 #
loop $-1 -1 $-1 $-1 $198 $400 #
vertex $-1 -1 $-1 $401 $402 #
vertex $-1 -1 $-1 $403 $404 #
ellipse-curve $-1 -1 $-1 0 -0.5 0 0 1 0 -1.15625 0 0 1 I I #
face_name-twe-attrib $-1 -1 $-1 $201 $136 5 #
model_id-kcp-attrib $-1 -1 $405 $-1 $202 1 1021385814 1021385814 -215023615 7 #
face $406 -1 $-1 $407 $408 $12 $-1 $409 forward single #
loop $410 -1 $-1 $411 $412 $202 #
cone-surface $413 -1 $-1 0.8125 0.29999999999999999 0 0 -1 0 -0.8125 0 0 1 I I 0 1 0.8125 forward I I I I #
loop_type-twe-attrib $-1 -1 $-1 $-1 $203 0 #
loop $414 -1 $-1 $-1 $415 $136 #
surf-twe-attrib $-1 -1 $-1 $-1 $204 30 #
loop_type-twe-attrib $-1 -1 $-1 $205 $137 1 #
loop_type-twe-attrib $-1 -1 $-1 $-1 $206 0 #
coedge $-1 -1 $-1 $297 $297 $416 $417 reversed $206 $-1 #
coedge $-1 -1 $-1 $298 $298 $207 $299 reversed $418 $-1 #
edge $419 -1 $-1 $420 -3.1415926535897931 $420 3.1415926535897931 $298 $421 forward @7 unknown #
loop_type-twe-attrib $-1 -1 $-1 $209 $140 1 #
coedge $-1 -1 $-1 $301 $301 $210 $302 forward $422 $-1 #
edge $423 -1 $-1 $424 0 $424 6.2831853071795862 $301 $425 forward @7 unknown #
loop $426 -1 $-1 $-1 $211 $427 #
attrib_edge_convexity-kcp-attrib $-1 -1 $428 $-1 $212 1 #
vertex $-1 -1 $-1 $212 $429 #
ellipse-curve $430 -1 $-1 0.8125 -0.75 0 0 -1 0 -1.13625 0 0 1 I I #
loop $431 -1 $-1 $432 $213 $433 #
attrib_edge_convexity-kcp-attrib $-1 -1 $434 $-1 $214 1 #
vertex $-1 -1 $-1 $214 $435 #
ellipse-curve $436 -1 $-1 0.8125 0 0 0 -1 0 -1.13625 0 0 1 I I #
loop_type-twe-attrib $-1 -1 $-1 $-1 $215 1 #
face $437 -1 $-1 $433 $438 $12 $-1 $439 reversed single #
point $-1 -1 $-1 1.68156854249492 0 -1.06430182520666e-016 #
cur-twe-attrib $-1 -1 $-1 $-1 $218 40 #
convexity-sys-attrib $-1 -1 $440 $219 $148 #
point $-1 -1 $-1 0.020000000000000101 0.25 0 #
cur-twe-attrib $-1 -1 $-1 $-1 $221 42 #
model_id-kcp-attrib $-1 -1 $441 $-1 $223 1 1021385814 1021385814 -215023615 15 #
loop $442 -1 $-1 $149 $416 $223 #
cone-surface $443 -1 $-1 0.8125 0.29999999999999999 0 0 -1 0 -0.40625 0 0 1 I I 0 1 0.40625 forward I I I I #
edge_name-twe-attrib $-1 -1 $-1 $224 $101 14 8704 #
model_id-kcp-attrib $-1 -1 $-1 $-1 $227 1 1021385814 1021385814 -214368254 2 #
face $-1 -1 $-1 $-1 $242 $35 $-1 $444 reversed single #
loop $-1 -1 $-1 $-1 $339 $227 #
plane-surface $-1 -1 $-1 0 0.5 0 0 -1 0 0 0 -1 forward_v I I I I #
coedge $-1 -1 $-1 $445 $337 $340 $446 forward $228 $-1 #
coedge $-1 -1 $-1 $343 $230 $231 $331 reversed $155 $-1 #
coedge $-1 -1 $-1 $337 $445 $230 $329 reversed $228 $-1 #
edge $-1 -1 $-1 $344 -1.15625 $447 1.15625 $328 $448 forward @7 unknown #
coedge $-1 -1 $-1 $232 $231 $445 $449 forward $103 $-1 #
edge $-1 -1 $-1 $335 -1.15625 $447 1.15625 $327 $450 forward @7 unknown #
coedge $-1 -1 $-1 $340 $339 $232 $333 reversed $324 $-1 #
edge $-1 -1 $-1 $451 -1.15625 $334 1.15625 $332 $452 forward @7 unknown #
vertex $-1 -1 $-1 $234 $453 #
vertex $-1 -1 $-1 $346 $454 #
straight-curve $-1 -1 $-1 1.15625 0 -1.15625 0 -1 0 I I #
coedge $-1 -1 $-1 $326 $328 $235 $338 reversed $228 $-1 #
edge $-1 -1 $-1 $341 -0.5 $344 0.5 $337 $455 forward @7 unknown #
coedge $-1 -1 $-1 $332 $236 $241 $347 forward $324 $-1 #
coedge $-1 -1 $-1 $236 $332 $326 $446 reversed $324 $-1 #
vertex $-1 -1 $-1 $237 $456 #
straight-curve $-1 -1 $-1 0 0.5 1.15625 -1 0 0 I I #
coedge $-1 -1 $-1 $238 $327 $240 $346 reversed $155 $-1 #
vertex $-1 -1 $-1 $338 $457 #
straight-curve $-1 -1 $-1 0 -0.5 1.15625 1 0 0 I I #
edge $-1 -1 $-1 $243 -1.15625 $335 1.15625 $240 $458 forward @7 unknown #
edge $-1 -1 $-1 $244 -1.15625 $334 1.15625 $241 $459 forward @7 unknown #
point $-1 -1 $-1 1.15625 -0.5 1.15625 #
point $-1 -1 $-1 1.15625 0.5 1.15625 #
coedge $-1 -1 $-1 $350 $350 $247 $351 forward $246 $-1 #
edge $-1 -1 $-1 $460 0 $460 6.2831853071795862 $350 $461 forward @7 unknown #
vertex $-1 -1 $-1 $248 $462 #
ellipse-curve $-1 -1 $-1 0 0 -0.009999999999999995 0 0 -1 0.8125 0 0 1 I I #
point $-1 -1 $-1 -0.79249999999999998 9.7050053540423394e-017 0.010000000000000009 #
coedge $-1 -1 $-1 $355 $355 $252 $356 forward $251 $-1 #
edge $-1 -1 $-1 $463 0 $463 6.2831853071795862 $355 $464 forward @7 unknown #
vertex $-1 -1 $-1 $253 $465 #
ellipse-curve $-1 -1 $-1 0 0 -0.01 0 0 -1 1.15625 0 0 1 I I #
point $-1 -1 $-1 -1.13625 1.3914589695306762e-016 0.010000000000000009 #
coedge $-1 -1 $-1 $360 $360 $257 $361 forward $256 $-1 #
edge $-1 -1 $-1 $466 0 $466 6.2831853071795862 $360 $467 forward @7 unknown #
vertex $-1 -1 $-1 $258 $468 #
ellipse-curve $-1 -1 $-1 0 0 -0.010000000000000009 0 0 -1 1.15625 0 0 1 I I #
point $-1 -1 $-1 -1.1362500000000002 1.3914589695306765e-016 0.010000000000000009 #
vertex $-1 -1 $-1 $262 $469 #
ellipse-curve $-1 -1 $-1 0 0 0.21875000000000011 0 0 1 0.25 0 0 1 I I #
point $-1 -1 $-1 0.25 0 -0.21875000000000011 #
vertex $-1 -1 $-1 $266 $470 #
ellipse-curve $-1 -1 $-1 0 0 0.28125000000000017 0 0 1 0.40625 0 0 1 I I #
point $-1 -1 $-1 0.40625 0 -0.28125000000000017 #
face $-1 -1 $-1 $471 $472 $47 $-1 $473 reversed single #
loop $-1 -1 $-1 $-1 $394 $269 #
plane-surface $-1 -1 $-1 0 0 1.15625 0 0 1 1 0 0 forward_v I I I I #
coedge $-1 -1 $-1 $474 $475 $476 $377 reversed $270 $-1 #
coedge $-1 -1 $-1 $277 $271 $477 $478 reversed $194 $-1 #
coedge $-1 -1 $-1 $271 $277 $479 $480 reversed $194 $-1 #
edge $-1 -1 $-1 $481 -1 $482 0 $476 $483 forward @7 unknown #
coedge $-1 -1 $-1 $273 $272 $484 $485 reversed $132 $-1 #
coedge $-1 -1 $-1 $486 $487 $488 $380 forward $489 $-1 #
edge $-1 -1 $-1 $490 -1 $384 0 $379 $491 forward @7 unknown #
coedge $-1 -1 $-1 $382 $274 $492 $493 reversed $383 $-1 #
coedge $-1 -1 $-1 $274 $381 $486 $494 forward $383 $-1 #
loop $-1 -1 $-1 $-1 $274 $495 #
vertex $-1 -1 $-1 $496 $497 #
vertex $-1 -1 $-1 $498 $499 #
ellipse-curve $-1 -1 $-1 0 0.5 0 0 -1 0 -1.15625 0 0 1 I I #
coedge $-1 -1 $-1 $500 $501 $276 $388 forward $502 $-1 #
edge $-1 -1 $-1 $385 -1.5707963267948966 $390 0 $387 $386 forward @7 unknown #
coedge $-1 -1 $-1 $503 $504 $505 $278 forward $472 $-1 #
vertex $-1 -1 $-1 $506 $507 #
straight-curve $-1 -1 $-1 -1.15625 0.5 0 0 1 0 I I #
coedge $-1 -1 $-1 $508 $279 $501 $498 forward $395 $-1 #
coedge $-1 -1 $-1 $279 $508 $281 $397 forward $395 $-1 #
coedge $-1 -1 $-1 $509 $492 $273 $280 reversed $372 $-1 #
loop $-1 -1 $-1 $-1 $279 $510 #
straight-curve $-1 -1 $-1 0 0.5 1.15625 0 1 0 I I #
edge $-1 -1 $-1 $511 -1.15625 $285 0 $281 $512 forward @7 unknown #
coedge $-1 -1 $-1 $513 $505 $282 $399 reversed $514 $-1 #
edge $-1 -1 $-1 $511 -1.15625 $284 0 $398 $515 forward @7 unknown #
face $-1 -1 $-1 $516 $283 $47 $-1 $517 reversed single #
edge $-1 -1 $-1 $284 0 $518 1.15625 $504 $515 forward @7 unknown #
point $-1 -1 $-1 -1.15625 -0.5 0 #
edge $-1 -1 $-1 $285 0 $519 1.15625 $520 $512 forward @7 unknown #
point $-1 -1 $-1 0 -0.5 1.15625 #
face_name-twe-attrib $-1 -1 $-1 $288 $202 6 #
model_id-kcp-attrib $-1 -1 $521 $-1 $289 1 1021385814 1021385814 -215023615 8 #
face $522 -1 $-1 $312 $523 $12 $-1 $524 reversed single #
loop $525 -1 $-1 $526 $527 $289 #
cone-surface $528 -1 $-1 0.8125 0.056568542494923997 0 0 1 0 -0.8125 0 0 1 I I 0.70710678118654702 0.70710678118654902 0.8125 forward I I I I #
loop_type-twe-attrib $-1 -1 $-1 $-1 $290 0 #
loop $529 -1 $-1 $-1 $530 $202 #
coedge $-1 -1 $-1 $412 $412 $415 $531 forward $290 $-1 #
surf-twe-attrib $-1 -1 $-1 $-1 $291 48 #
loop_type-twe-attrib $-1 -1 $-1 $-1 $293 1 #
coedge $-1 -1 $-1 $415 $415 $412 $531 reversed $293 $-1 #
coedge $-1 -1 $-1 $416 $416 $297 $417 forward $319 $-1 #
edge $532 -1 $-1 $533 0 $533 6.2831853071795862 $416 $534 forward @7 unknown #
loop $535 -1 $-1 $-1 $298 $536 #
attrib_edge_convexity-kcp-attrib $-1 -1 $537 $-1 $299 1 #
vertex $538 -1 $-1 $299 $539 #
ellipse-curve $540 -1 $-1 0.8125 -0.3125 0 0 -1 0 -0.25 0 0 1 I I #
loop $541 -1 $-1 $418 $301 $536 #
attrib_edge_convexity-kcp-attrib $-1 -1 $542 $-1 $302 1 #
vertex $543 -1 $-1 $302 $544 #
ellipse-curve $545 -1 $-1 0.8125 -0.75 0 0 -1 0 -0.25 0 0 1 I I #
loop_type-twe-attrib $-1 -1 $-1 $-1 $303 1 #
face $546 -1 $-1 $536 $547 $12 $-1 $548 forward single #
convexity-sys-attrib $-1 -1 $549 $304 $212 #
point $-1 -1 $-1 1.94875 -0.75 -1.39150468548703e-016 #
cur-twe-attrib $-1 -1 $-1 $-1 $306 58 #
loop_type-twe-attrib $-1 -1 $-1 $-1 $307 0 #
loop $550 -1 $-1 $-1 $551 $433 #
face $552 -1 $-1 $553 $307 $12 $-1 $554 forward single #
convexity-sys-attrib $-1 -1 $555 $308 $214 #
point $-1 -1 $-1 -0.32374999999999998 0 0 #
cur-twe-attrib $-1 -1 $-1 $-1 $310 60 #
model_id-kcp-attrib $-1 -1 $556 $-1 $312 1 1021385814 1021385814 -215023615 10 #
loop $557 -1 $-1 $215 $558 $312 #
cone-surface $559 -1 $-1 0.8125 0 0 0 1 0 -0.86906854249492405 0 0 1 I I 0.70710678118654702 0.70710678118654902 0.86906854249492405 forward I I I I #
edge_name-twe-attrib $-1 -1 $-1 $315 $148 1 8448 #
face_name-twe-attrib $-1 -1 $-1 $318 $223 14 #
loop_type-twe-attrib $-1 -1 $-1 $-1 $319 0 #
surf-twe-attrib $-1 -1 $-1 $-1 $320 69 #
plane-surface $-1 -1 $-1 1.15625 0 0 -1 0 0 0 0 1 forward_v I I I I #
coedge $-1 -1 $-1 $328 $326 $330 $449 reversed $228 $-1 #
edge $-1 -1 $-1 $341 -1.15625 $451 1.15625 $340 $560 forward @7 unknown #
vertex $-1 -1 $-1 $449 $561 #
straight-curve $-1 -1 $-1 -1.15625 -0.5 0 0 0 -1 I I #
edge $-1 -1 $-1 $447 -0.5 $451 0.5 $445 $562 forward @7 unknown #
straight-curve $-1 -1 $-1 0 -0.5 -1.15625 -1 0 0 I I #
vertex $-1 -1 $-1 $333 $563 #
straight-curve $-1 -1 $-1 0 0.5 -1.15625 1 0 0 I I #
point $-1 -1 $-1 1.15625 0.5 -1.15625 #
point $-1 -1 $-1 1.15625 -0.5 -1.15625 #
straight-curve $-1 -1 $-1 -1.15625 0 1.15625 0 -1 0 I I #
point $-1 -1 $-1 -1.15625 0.5 1.15625 #
point $-1 -1 $-1 -1.15625 -0.5 1.15625 #
straight-curve $-1 -1 $-1 1.15625 -0.5 0 0 0 -1 I I #
straight-curve $-1 -1 $-1 1.15625 0.5 0 0 0 -1 I I #
vertex $-1 -1 $-1 $351 $564 #
ellipse-curve $-1 -1 $-1 0 0 0.009999999999999995 0 0 1 0.8125 0 0 1 I I #
point $-1 -1 $-1 0.8125 0 -0.009999999999999995 #
vertex $-1 -1 $-1 $356 $565 #
ellipse-curve $-1 -1 $-1 0 0 0.01 0 0 1 1.15625 0 0 1 I I #
point $-1 -1 $-1 1.15625 0 -0.01 #
vertex $-1 -1 $-1 $361 $566 #
ellipse-curve $-1 -1 $-1 0 0 0.010000000000000009 0 0 1 1.15625 0 0 1 I I #
point $-1 -1 $-1 1.15625 0 -0.010000000000000009 #
point $-1 -1 $-1 0.25 0 0.21875000000000011 #
point $-1 -1 $-1 0.40625 0 0.28125000000000017 #
face $-1 -1 $-1 $567 $568 $47 $-1 $569 reversed single #
loop $-1 -1 $-1 $-1 $389 $371 #
plane-surface $-1 -1 $-1 -1.15625 0 0 1 0 0 0 0 -1 forward_v I I I I #
coedge $-1 -1 $-1 $570 $374 $571 $572 reversed $270 $-1 #
coedge $-1 -1 $-1 $374 $570 $573 $574 reversed $270 $-1 #
coedge $-1 -1 $-1 $575 $576 $577 $377 forward $578 $-1 #
coedge $-1 -1 $-1 $579 $580 $375 $478 forward $581 $-1 #
edge $-1 -1 $-1 $390 0 $482 1.5707963267948966 $477 $386 forward @7 unknown #
coedge $-1 -1 $-1 $582 $583 $376 $480 forward $584 $-1 #
edge $-1 -1 $-1 $481 -1.5707963267948966 $284 0 $479 $286 forward @7 unknown #
vertex $-1 -1 $-1 $585 $586 #
vertex $-1 -1 $-1 $587 $588 #
straight-curve $-1 -1 $-1 0 0.5 -1.15625 0 1 0 I I #
coedge $-1 -1 $-1 $589 $520 $378 $485 forward $590 $-1 #
edge $-1 -1 $-1 $285 1.5707963267948966 $490 3.1415926535897931 $484 $286 forward @7 unknown #
coedge $-1 -1 $-1 $591 $379 $382 $494 reversed $489 $-1 #
coedge $-1 -1 $-1 $379 $591 $589 $592 forward $489 $-1 #
coedge $-1 -1 $-1 $593 $594 $570 $380 reversed $568 $-1 #
loop $-1 -1 $-1 $-1 $379 $595 #
vertex $-1 -1 $-1 $596 $597 #
straight-curve $-1 -1 $-1 1.15625 0.5 0 0 1 0 I I #
coedge $-1 -1 $-1 $394 $598 $381 $493 forward $372 $-1 #
edge $-1 -1 $-1 $599 -1.15625 $385 0 $381 $600 forward @7 unknown #
edge $-1 -1 $-1 $599 -1.15625 $384 0 $486 $601 forward @7 unknown #
face $-1 -1 $-1 $602 $383 $47 $-1 $603 reversed single #
edge $-1 -1 $-1 $384 0 $604 1.15625 $594 $601 forward @7 unknown #
point $-1 -1 $-1 1.15625 0.5 0 #
edge $-1 -1 $-1 $385 0 $605 1.15625 $501 $600 forward @7 unknown #
point $-1 -1 $-1 0 0.5 1.15625 #
coedge $-1 -1 $-1 $501 $387 $606 $607 reversed $502 $-1 #
coedge $-1 -1 $-1 $387 $500 $392 $498 reversed $502 $-1 #
loop $-1 -1 $-1 $-1 $387 $602 #
coedge $-1 -1 $-1 $608 $389 $580 $506 forward $472 $-1 #
coedge $-1 -1 $-1 $389 $608 $582 $401 reversed $472 $-1 #
coedge $-1 -1 $-1 $398 $606 $196 $278 reversed $514 $-1 #
edge $-1 -1 $-1 $390 0 $609 1.15625 $580 $610 forward @7 unknown #
point $-1 -1 $-1 -1.15625 0.5 0 #
coedge $-1 -1 $-1 $393 $392 $513 $611 forward $395 $-1 #
coedge $-1 -1 $-1 $598 $394 $520 $403 forward $372 $-1 #
face $-1 -1 $-1 $612 $395 $47 $-1 $373 forward single #
vertex $-1 -1 $-1 $611 $613 #
straight-curve $-1 -1 $-1 0 -0.5 1.15625 1 0 0 I I #
coedge $-1 -1 $-1 $606 $398 $508 $611 reversed $514 $-1 #
loop $-1 -1 $-1 $-1 $505 $614 #
straight-curve $-1 -1 $-1 -1.15625 -0.5 0 0 0 -1 I I #
face $-1 -1 $-1 $615 $590 $47 $-1 $517 reversed single #
plane-surface $-1 -1 $-1 0 -0.5 0 0 1 0 0 0 1 forward_v I I I I #
vertex $-1 -1 $-1 $616 $617 #
vertex $-1 -1 $-1 $618 $619 #
coedge $-1 -1 $-1 $484 $589 $509 $403 reversed $590 $-1 #
face_name-twe-attrib $-1 -1 $-1 $406 $289 7 #
model_id-kcp-attrib $-1 -1 $620 $-1 $407 1 1021385814 1021385814 -215023615 9 #
loop $621 -1 $-1 $622 $623 $407 #
torus-surface $624 -1 $-1 0.8125 0 0 0 -1 0 0.8125 0.040000000000000001 0 0 -1 forward_v I I I I #
loop_type-twe-attrib $-1 -1 $-1 $-1 $408 0 #
loop $625 -1 $-1 $-1 $626 $289 #
coedge $-1 -1 $-1 $527 $527 $530 $627 forward $408 $-1 #
surf-twe-attrib $-1 -1 $-1 $-1 $409 73 #
loop_type-twe-attrib $-1 -1 $-1 $-1 $411 1 #
coedge $-1 -1 $-1 $530 $530 $527 $627 reversed $411 $-1 #
edge $628 -1 $-1 $629 -3.1415926535897931 $629 3.1415926535897931 $412 $630 forward @7 unknown #
attrib_edge_convexity-kcp-attrib $-1 -1 $631 $-1 $417 2 #
vertex $-1 -1 $-1 $417 $632 #
ellipse-curve $633 -1 $-1 0.8125 -0.3125 0 0 -1 0 -0.40625 0 0 1 I I #
model_id-kcp-attrib $-1 -1 $634 $-1 $418 1 1021385814 1021385814 -215023615 19 #
face $635 -1 $-1 $223 $422 $12 $-1 $636 reversed single #
convexity-sys-attrib $-1 -1 $637 $419 $299 #
model_id-kcp-attrib $-1 -1 $-1 $-1 $420 1 1021385814 1021385814 -215023615 23 #
point $-1 -1 $-1 1.0625 -0.3125 -3.0616164697184302e-017 #
cur-twe-attrib $-1 -1 $-1 $-1 $421 82 #
model_id-kcp-attrib $-1 -1 $638 $-1 $422 1 1021385814 1021385814 -215023615 18 #
convexity-sys-attrib $-1 -1 $639 $423 $302 #
model_id-kcp-attrib $-1 -1 $-1 $-1 $424 1 1021385814 1021385814 -215023615 22 #
point $-1 -1 $-1 0.5625 -0.75 0 #
cur-twe-attrib $-1 -1 $-1 $-1 $425 84 #
model_id-kcp-attrib $-1 -1 $640 $-1 $427 1 1021385814 1021385814 -215023615 13 #
loop $641 -1 $-1 $303 $642 $427 #
cone-surface $643 -1 $-1 0.8125 -0.72999999999999998 0 0 1 0 -1.15625 0 0 1 I I 0.70710678118654702 0.70710678118654802 1.15625 forward I I I I #
edge_name-twe-attrib $-1 -1 $-1 $428 $212 10 8448 #
loop_type-twe-attrib $-1 -1 $-1 $-1 $432 1 #
coedge $-1 -1 $-1 $551 $551 $644 $645 reversed $432 $-1 #
model_id-kcp-attrib $-1 -1 $646 $-1 $433 1 1021385814 1021385814 -215023615 11 #
face $647 -1 $-1 $427 $648 $12 $-1 $649 forward single #
cone-surface $650 -1 $-1 0.8125 -0.02 0 0 -1 0 -1.15625 0 0 1 I I 0.70710678118654702 0.70710678118654802 1.15625 forward I I I I #
edge_name-twe-attrib $-1 -1 $-1 $434 $214 7 8448 #
face_name-twe-attrib $-1 -1 $-1 $437 $312 9 #
loop_type-twe-attrib $-1 -1 $-1 $-1 $438 0 #
coedge $-1 -1 $-1 $558 $558 $651 $652 forward $438 $-1 #
surf-twe-attrib $-1 -1 $-1 $-1 $439 94 #
straight-curve $-1 -1 $-1 -1.15625 0.5 0 0 0 -1 I I #
point $-1 -1 $-1 -1.15625 -0.5 -1.15625 #
straight-curve $-1 -1 $-1 -1.15625 0 -1.15625 0 1 0 I I #
point $-1 -1 $-1 -1.15625 0.5 -1.15625 #
point $-1 -1 $-1 0.8125 0 0.009999999999999995 #
point $-1 -1 $-1 1.15625 0 0.01 #
point $-1 -1 $-1 1.15625 0 0.010000000000000009 #
face $-1 -1 $-1 $495 $653 $47 $-1 $603 reversed single #
loop $-1 -1 $-1 $-1 $488 $471 #
plane-surface $-1 -1 $-1 1.15625 0 0 -1 0 0 0 0 1 forward_v I I I I #
coedge $-1 -1 $-1 $475 $474 $272 $380 forward $270 $-1 #
coedge $-1 -1 $-1 $654 $655 $474 $572 forward $656 $-1 #
edge $-1 -1 $-1 $490 -3.1415926535897931 $481 -1.5707963267948966 $571 $286 forward @7 unknown #
coedge $-1 -1 $-1 $657 $658 $475 $574 forward $653 $-1 #
edge $-1 -1 $-1 $482 1.5707963267948966 $384 3.1415926535897931 $573 $386 forward @7 unknown #
coedge $-1 -1 $-1 $659 $476 $658 $587 forward $578 $-1 #
coedge $-1 -1 $-1 $476 $659 $654 $660 forward $578 $-1 #
coedge $-1 -1 $-1 $661 $662 $271 $377 reversed $663 $-1 #
loop $-1 -1 $-1 $-1 $476 $612 #
coedge $-1 -1 $-1 $580 $477 $662 $664 reversed $581 $-1 #
coedge $-1 -1 $-1 $477 $579 $503 $506 reversed $581 $-1 #
loop $-1 -1 $-1 $-1 $477 $665 #
coedge $-1 -1 $-1 $583 $479 $504 $401 forward $584 $-1 #
coedge $-1 -1 $-1 $479 $582 $661 $585 reversed $584 $-1 #
loop $-1 -1 $-1 $-1 $479 $666 #
edge $-1 -1 $-1 $481 0 $518 1.15625 $583 $667 forward @7 unknown #
point $-1 -1 $-1 0 -0.5 -1.15625 #
edge $-1 -1 $-1 $482 0 $604 1.15625 $658 $668 forward @7 unknown #
point $-1 -1 $-1 0 0.5 -1.15625 #
coedge $-1 -1 $-1 $520 $484 $487 $592 reversed $590 $-1 #
loop $-1 -1 $-1 $-1 $484 $516 #
coedge $-1 -1 $-1 $487 $486 $598 $618 reversed $489 $-1 #
edge $-1 -1 $-1 $519 -1.15625 $490 0 $487 $669 forward @7 unknown #
coedge $-1 -1 $-1 $670 $488 $655 $596 forward $568 $-1 #
coedge $-1 -1 $-1 $488 $670 $657 $496 reversed $568 $-1 #
face $-1 -1 $-1 $-1 $489 $47 $-1 $569 reversed single #
edge $-1 -1 $-1 $490 0 $671 1.15625 $593 $669 forward @7 unknown #
point $-1 -1 $-1 1.15625 -0.5 0 #
coedge $-1 -1 $-1 $492 $509 $591 $618 forward $372 $-1 #
vertex $-1 -1 $-1 $618 $672 #
straight-curve $-1 -1 $-1 0 0.5 1.15625 -1 0 0 I I #
straight-curve $-1 -1 $-1 1.15625 0.5 0 0 0 -1 I I #
face $-1 -1 $-1 $665 $502 $47 $-1 $603 reversed single #
plane-surface $-1 -1 $-1 0 0.5 0 0 -1 0 0 0 -1 forward_v I I I I #
vertex $-1 -1 $-1 $673 $674 #
vertex $-1 -1 $-1 $498 $675 #
coedge $-1 -1 $-1 $505 $513 $500 $607 forward $514 $-1 #
edge $-1 -1 $-1 $605 -1.15625 $390 0 $500 $610 forward @7 unknown #
coedge $-1 -1 $-1 $504 $503 $676 $616 reversed $472 $-1 #
vertex $-1 -1 $-1 $664 $677 #
straight-curve $-1 -1 $-1 -1.15625 0.5 0 0 0 -1 I I #
edge $-1 -1 $-1 $605 -0.5 $511 0.5 $513 $678 forward @7 unknown #
face $-1 -1 $-1 $614 $578 $47 $-1 $679 reversed single #
point $-1 -1 $-1 -1.15625 -0.5 1.15625 #
face $-1 -1 $-1 $595 $514 $47 $-1 $473 reversed single #
face $-1 -1 $-1 $680 $656 $47 $-1 $517 reversed single #
edge $-1 -1 $-1 $518 -0.5 $609 0.5 $608 $681 forward @7 unknown #
point $-1 -1 $-1 -1.15625 -0.5 -1.15625 #
edge $-1 -1 $-1 $519 -0.5 $599 0.5 $591 $682 forward @7 unknown #
point $-1 -1 $-1 1.15625 -0.5 1.15625 #
face_name-twe-attrib $-1 -1 $-1 $522 $407 8 #
loop_type-twe-attrib $-1 -1 $-1 $-1 $523 0 #
loop $683 -1 $-1 $-1 $651 $407 #
coedge $-1 -1 $-1 $623 $623 $626 $684 forward $523 $-1 #
surf-twe-attrib $-1 -1 $-1 $-1 $524 103 #
loop_type-twe-attrib $-1 -1 $-1 $-1 $526 1 #
coedge $-1 -1 $-1 $626 $626 $623 $684 reversed $526 $-1 #
edge $685 -1 $-1 $686 -3.1415926535897931 $686 3.1415926535897931 $527 $687 forward @7 unknown #
attrib_edge_convexity-kcp-attrib $-1 -1 $688 $-1 $531 1 #
vertex $-1 -1 $-1 $531 $689 #
ellipse-curve $690 -1 $-1 0.8125 0.23000000000000001 0 0 -1 0 -0.8125 0 0 1 I I #
convexity-sys-attrib $-1 -1 $691 $532 $417 #
point $-1 -1 $-1 0.40625 -0.3125 0 #
cur-twe-attrib $-1 -1 $-1 $-1 $534 113 #
loop_type-twe-attrib $-1 -1 $-1 $535 $418 1 #
model_id-kcp-attrib $-1 -1 $692 $-1 $536 1 1021385814 1021385814 -215023615 14 #
cone-surface $693 -1 $-1 0.8125 0.29999999999999999 0 0 -1 0 -0.25 0 0 1 I I 0 1 0.25 forward I I I I #
edge_name-twe-attrib $-1 -1 $-1 $537 $299 12 8704 #
loop_type-twe-attrib $-1 -1 $-1 $541 $422 0 #
edge_name-twe-attrib $-1 -1 $-1 $542 $302 11 8704 #
face_name-twe-attrib $-1 -1 $-1 $546 $427 12 #
loop_type-twe-attrib $-1 -1 $-1 $-1 $547 0 #
coedge $-1 -1 $-1 $642 $642 $694 $695 forward $547 $-1 #
surf-twe-attrib $-1 -1 $-1 $-1 $548 123 #
coedge $-1 -1 $-1 $644 $644 $551 $645 forward $648 $-1 #
edge $696 -1 $-1 $697 -3.1415926535897931 $697 3.1415926535897931 $644 $698 forward @7 unknown #
face_name-twe-attrib $-1 -1 $-1 $552 $433 10 #
model_id-kcp-attrib $-1 -1 $699 $-1 $553 1 1021385814 1021385814 -215023615 12 #
loop $700 -1 $-1 $701 $644 $553 #
cone-surface $702 -1 $-1 0.8125 0.29999999999999999 0 0 -1 0 -1.15625 0 0 1 I I 0 1 1.15625 forward I I I I #
surf-twe-attrib $-1 -1 $-1 $-1 $554 128 #
coedge $-1 -1 $-1 $651 $651 $558 $652 reversed $622 $-1 #
edge $703 -1 $-1 $704 -3.1415926535897931 $704 3.1415926535897931 $558 $705 forward @7 unknown #
loop $-1 -1 $-1 $-1 $573 $567 #
coedge $-1 -1 $-1 $655 $571 $576 $660 reversed $656 $-1 #
coedge $-1 -1 $-1 $571 $654 $593 $596 reversed $656 $-1 #
loop $-1 -1 $-1 $-1 $571 $615 #
coedge $-1 -1 $-1 $658 $573 $594 $496 forward $653 $-1 #
coedge $-1 -1 $-1 $573 $657 $575 $587 reversed $653 $-1 #
coedge $-1 -1 $-1 $576 $575 $670 $673 forward $578 $-1 #
edge $-1 -1 $-1 $671 -1.15625 $481 0 $654 $667 forward @7 unknown #
coedge $-1 -1 $-1 $676 $577 $583 $585 forward $663 $-1 #
coedge $-1 -1 $-1 $577 $676 $579 $664 forward $663 $-1 #
loop $-1 -1 $-1 $-1 $577 $680 #
edge $-1 -1 $-1 $609 -1.15625 $482 0 $579 $668 forward @7 unknown #
face $-1 -1 $-1 $666 $581 $47 $-1 $603 reversed single #
face $-1 -1 $-1 $400 $584 $47 $-1 $517 reversed single #
straight-curve $-1 -1 $-1 0 -0.5 -1.15625 -1 0 0 I I #
straight-curve $-1 -1 $-1 0 0.5 -1.15625 1 0 0 I I #
straight-curve $-1 -1 $-1 1.15625 -0.5 0 0 0 -1 I I #
coedge $-1 -1 $-1 $594 $593 $659 $673 reversed $568 $-1 #
vertex $-1 -1 $-1 $596 $706 #
point $-1 -1 $-1 1.15625 0.5 1.15625 #
edge $-1 -1 $-1 $604 -0.5 $671 0.5 $670 $707 forward @7 unknown #
point $-1 -1 $-1 1.15625 0.5 -1.15625 #
point $-1 -1 $-1 -1.15625 0.5 1.15625 #
coedge $-1 -1 $-1 $662 $661 $608 $616 forward $663 $-1 #
point $-1 -1 $-1 -1.15625 0.5 -1.15625 #
straight-curve $-1 -1 $-1 -1.15625 0 1.15625 0 -1 0 I I #
plane-surface $-1 -1 $-1 0 0 -1.15625 0 0 1 1 0 0 forward_v I I I I #
face $-1 -1 $-1 $510 $663 $47 $-1 $679 reversed single #
straight-curve $-1 -1 $-1 -1.15625 0 -1.15625 0 1 0 I I #
straight-curve $-1 -1 $-1 1.15625 0 1.15625 0 1 0 I I #
loop_type-twe-attrib $-1 -1 $-1 $-1 $622 1 #
edge $708 -1 $-1 $709 -3.1415926535897931 $709 3.1415926535897931 $623 $710 forward @7 unknown #
edge_name-twe-attrib $-1 -1 $-1 $-1 $627 3 8448 #
vertex $-1 -1 $-1 $627 $711 #
ellipse-curve $712 -1 $-1 0.8125 0.056568542494923997 0 0 -1 0 -0.8125 0 0 1 I I #
convexity-sys-attrib $-1 -1 $713 $628 $531 #
point $-1 -1 $-1 1.625 0.23000000000000001 -9.9502535265848999e-017 #
cur-twe-attrib $-1 -1 $-1 $-1 $630 145 #
edge_name-twe-attrib $-1 -1 $-1 $631 $417 13 4608 #
face_name-twe-attrib $-1 -1 $-1 $635 $536 13 #
surf-twe-attrib $-1 -1 $-1 $-1 $636 150 #
coedge $-1 -1 $-1 $694 $694 $642 $695 reversed $701 $-1 #
edge $714 -1 $-1 $715 -3.1415926535897931 $715 3.1415926535897931 $642 $716 forward @7 unknown #
attrib_edge_convexity-kcp-attrib $-1 -1 $717 $-1 $645 1 #
vertex $-1 -1 $-1 $645 $718 #
ellipse-curve $719 -1 $-1 0.8125 -0.02 0 0 -1 0 -1.15625 0 0 1 I I #
face_name-twe-attrib $-1 -1 $-1 $647 $553 11 #
loop_type-twe-attrib $-1 -1 $-1 $-1 $648 0 #
loop $720 -1 $-1 $-1 $694 $553 #
surf-twe-attrib $-1 -1 $-1 $-1 $649 162 #
edge_name-twe-attrib $-1 -1 $-1 $-1 $652 5 20480 #
vertex $-1 -1 $-1 $652 $721 #
ellipse-curve $722 -1 $-1 0.8125 -0.028284271247461999 0 0 -1 0 -0.84078427124746202 0 0 1 I I #
point $-1 -1 $-1 1.15625 -0.5 -1.15625 #
straight-curve $-1 -1 $-1 1.15625 0 -1.15625 0 -1 0 I I #
edge_name-twe-attrib $-1 -1 $-1 $-1 $684 4 24576 #
vertex $-1 -1 $-1 $684 $723 #
ellipse-curve $724 -1 $-1 0.8125 0.028284271247461999 0 0 -1 0 -0.78421572875253798 0 0 1 I I #
point $-1 -1 $-1 1.625 0.056568542494923997 -9.9502535265848999e-017 #
cur-twe-attrib $-1 -1 $-1 $-1 $687 173 #
edge_name-twe-attrib $-1 -1 $-1 $688 $531 2 8448 #
attrib_edge_convexity-kcp-attrib $-1 -1 $725 $-1 $695 1 #
vertex $-1 -1 $-1 $695 $726 #
ellipse-curve $727 -1 $-1 0.8125 -0.72999999999999998 0 0 -1 0 -1.15625 0 0 1 I I #
convexity-sys-attrib $-1 -1 $728 $696 $645 #
point $-1 -1 $-1 1.96875 -0.02 -1.41599761724477e-016 #
cur-twe-attrib $-1 -1 $-1 $-1 $698 185 #
loop_type-twe-attrib $-1 -1 $-1 $-1 $701 1 #
point $-1 -1 $-1 1.65328427124746 -0.028284271247461999 -1.0296635889325699e-016 #
cur-twe-attrib $-1 -1 $-1 $-1 $705 191 #
point $-1 -1 $-1 1.59671572875254 0.028284271247461999 -9.6038711638440399e-017 #
cur-twe-attrib $-1 -1 $-1 $-1 $710 193 #
convexity-sys-attrib $-1 -1 $729 $714 $695 #
point $-1 -1 $-1 1.96875 -0.72999999999999998 -1.41599761724477e-016 #
cur-twe-attrib $-1 -1 $-1 $-1 $716 201 #
edge_name-twe-attrib $-1 -1 $-1 $717 $645 8 8448 #
edge_name-twe-attrib $-1 -1 $-1 $725 $695 9 8448 #
End-of-ACIS-data 