600 0 1 0           
79 GICL ACIS Healer - Source: /gicl/data5/repository/UMD/tmp/notch/notch.sat - 6 0 18 ACIS 6.0.3 Solaris 24 Sun Apr 14 00:33:55 2002 
1 9.999999999999999547e-07 1.000000000000000036e-10 
body $-1 $1 $-1 $-1 #
lump $-1 $-1 $2 $0 #
shell $-1 $-1 $-1 $3 $-1 $1 #
face $-1 $4 $5 $2 $-1 $6 forward single #
face $-1 $7 $8 $2 $-1 $9 reversed single #
loop $-1 $-1 $10 $3 #
plane-surface $-1 0 -7.105427357601001859e-15 49.99999999999997868 -0 0 1 1 0 -0 forward_v I I I I #
face $-1 $11 $12 $2 $-1 $13 reversed single #
loop $-1 $-1 $14 $4 #
plane-surface $-1 -5 -19.99999999999980105 35.00000000000044054 0 -1 -6.982962677686269866e-15 0 6.982962677686269866e-15 -1 reverse_v I I I I #
coedge $-1 $15 $16 $17 $18 forward $5 $-1 #
face $-1 $19 $20 $2 $-1 $21 forward single #
loop $-1 $-1 $22 $7 #
plane-surface $-1 -35 -39.99999999999980105 35.00000000000029843 1 0 -0 0 6.982962677686269866e-15 -1 reverse_v I I I I #
coedge $-1 $23 $24 $25 $26 reversed $8 $-1 #
coedge $-1 $27 $10 $28 $29 forward $5 $-1 #
coedge $-1 $10 $25 $22 $30 forward $5 $-1 #
coedge $-1 $31 $32 $10 $18 reversed $20 $-1 #
edge $-1 $33 -37.5 $34 12.5 $17 $35 forward 7 unknown #
face $-1 $36 $37 $2 $-1 $38 reversed single #
loop $-1 $-1 $17 $11 #
plane-surface $-1 5 -44.99999999999980105 35.00000000000044054 0 -1 -6.982962677686269866e-15 0 6.982962677686269866e-15 -1 reverse_v I I I I #
coedge $-1 $39 $40 $16 $30 reversed $12 $-1 #
coedge $-1 $41 $14 $42 $43 forward $8 $-1 #
coedge $-1 $14 $41 $39 $44 forward $8 $-1 #
coedge $-1 $16 $27 $14 $26 forward $5 $-1 #
edge $-1 $45 -14.5 $46 32.5 $14 $47 forward 7 unknown #
coedge $-1 $25 $15 $48 $49 forward $5 $-1 #
coedge $-1 $50 $51 $15 $29 reversed $37 $-1 #
edge $-1 $34 -25.00000000000000355 $52 -3 $28 $53 forward 7 unknown #
edge $-1 $46 0 $33 25.00000000000000355 $22 $54 forward 7 unknown #
coedge $-1 $55 $17 $40 $56 reversed $20 $-1 #
coedge $-1 $17 $57 $50 $58 forward $20 $-1 #
vertex $-1 $56 $59 #
vertex $-1 $58 $60 #
straight-curve $-1 2.5 -44.99999999999990763 49.99999999999996447 1 -0 0 I I #
face $-1 $61 $62 $2 $-1 $63 forward single #
loop $-1 $-1 $28 $19 #
plane-surface $-1 15 -39.99999999999980105 35.00000000000029843 -1 0 0 0 -6.982962677686269866e-15 1 reverse_v I I I I #
coedge $-1 $64 $22 $24 $44 reversed $12 $-1 #
coedge $-1 $22 $65 $31 $56 forward $12 $-1 #
coedge $-1 $24 $23 $66 $67 forward $8 $-1 #
coedge $-1 $48 $68 $23 $43 reversed $69 $-1 #
edge $-1 $45 15.0000000000003979 $70 47 $23 $71 forward 7 unknown #
edge $-1 $72 -17.00000000000000355 $46 14.9999999999996021 $39 $73 forward 7 unknown #
vertex $-1 $26 $74 #
vertex $-1 $44 $75 #
straight-curve $-1 -2.5 -19.99999999999990408 50.00000000000004263 -1 0 0 I I #
coedge $-1 $76 $42 $27 $49 reversed $69 $-1 #
edge $-1 $52 -0.785398163397448279 $45 0.785398163397448279 $48 $77 forward 7 unknown #
coedge $-1 $78 $28 $32 $58 reversed $37 $-1 #
coedge $-1 $28 $78 $76 $79 forward $37 $-1 #
vertex $-1 $79 $80 #
straight-curve $-1 15 -19.99999999999990408 50.00000000000004263 0 1 0 I I #
straight-curve $-1 -35 -19.99999999999990408 50.00000000000004263 0 -1 0 I I #
coedge $-1 $57 $31 $81 $82 forward $20 $-1 #
edge $-1 $83 -20.00000000000009237 $33 14.9999999999996092 $40 $84 reversed 7 unknown #
coedge $-1 $32 $55 $85 $86 forward $20 $-1 #
edge $-1 $87 -16.99999999999989342 $34 14.9999999999996092 $50 $88 forward 7 unknown #
point $-1 -35 -44.99999999999990763 49.99999999999996447 #
point $-1 15 -44.99999999999990763 49.99999999999996447 #
face $-1 $89 $69 $2 $-1 $90 forward single #
loop $-1 $-1 $81 $36 #
plane-surface $-1 -5 -39.99999999999965894 15.00000000000029843 0 6.982962677686269866e-15 -1 -1 0 0 reverse_v I I I I #
coedge $-1 $65 $39 $91 $92 forward $12 $-1 #
coedge $-1 $40 $64 $93 $94 forward $12 $-1 #
coedge $-1 $95 $91 $41 $67 reversed $96 $-1 #
edge $-1 $70 -27 $72 20 $41 $97 forward 7 unknown #
coedge $-1 $42 $76 $98 $99 forward $69 $-1 #
loop $-1 $-1 $48 $61 #
vertex $-1 $43 $100 #
straight-curve $-1 12 -19.99999999999981171 65.00000000000044054 0 6.982962677686269866e-15 -1 I I #
vertex $-1 $92 $101 #
straight-curve $-1 -35 -19.99999999999980105 35.00000000000044054 0 -6.982962677686269866e-15 1 I I #
point $-1 12 -19.99999999999970512 50.00000000000004263 #
point $-1 -35 -19.99999999999990408 50.00000000000004263 #
coedge $-1 $68 $48 $51 $79 reversed $69 $-1 #
ellipse-curve $-1 12 -22.99999999999990408 49.99999999999981526 -0 -0 1 2.121320343559640165 2.121320343559640165 1.481310078649358338e-14 1 I I #
coedge $-1 $51 $50 $102 $103 forward $37 $-1 #
edge $-1 $104 -17.00000000000000355 $52 14.99999999999959499 $51 $105 forward 7 unknown #
point $-1 15 -22.99999999999990408 50.00000000000001421 #
coedge $-1 $93 $106 $55 $82 reversed $62 $-1 #
edge $-1 $83 -35 $107 12 $81 $108 forward 7 unknown #
vertex $-1 $94 $109 #
straight-curve $-1 -35 -44.99999999999980105 35.00000000000035527 0 6.982962677686269866e-15 -1 I I #
coedge $-1 $110 $102 $57 $86 reversed $111 $-1 #
edge $-1 $107 -0.785398163397448279 $87 0.7853981633975145593 $85 $112 forward 7 unknown #
vertex $-1 $86 $113 #
straight-curve $-1 15 -44.99999999999980105 35.00000000000035527 0 -6.982962677686269866e-15 1 I I #
face $-1 $114 $111 $2 $-1 $115 forward single #
cone-surface $-1 12 -22.99999999999981171 36.50000000000041922 -0 6.982962677686269866e-15 -1 2.121320343559640165 2.121320343559640165 1.481310078649358338e-14 1 I I -0 1 2.999999999999996447 reversed I I I I #
coedge $-1 $66 $116 $64 $92 reversed $96 $-1 #
edge $-1 $72 -0.78539816339744839 $117 0.785398163397448168 $64 $118 forward 7 unknown #
coedge $-1 $119 $81 $65 $94 reversed $62 $-1 #
edge $-1 $117 -16.99999999999999645 $83 5.000000000000071054 $65 $120 forward 7 unknown #
coedge $-1 $116 $66 $121 $122 reversed $96 $-1 #
loop $-1 $-1 $66 $123 #
straight-curve $-1 -15 -19.99999999999968381 18.00000000000043698 -1 0 0 I I #
coedge $-1 $124 $121 $68 $99 reversed $125 $-1 #
edge $-1 $104 -0.785398163397448279 $70 0.785398163397448279 $98 $126 forward 7 unknown #
point $-1 12 -19.99999999999968381 18.00000000000043698 #
point $-1 -35 -19.99999999999968381 18.00000000000043698 #
coedge $-1 $85 $127 $78 $103 reversed $111 $-1 #
edge $-1 $87 -5 $104 16.99999999999999645 $78 $128 forward 7 unknown #
vertex $-1 $103 $129 #
straight-curve $-1 15 -22.99999999999980105 35.00000000000041922 0 -6.982962677686269866e-15 1 I I #
coedge $-1 $81 $119 $110 $130 forward $62 $-1 #
vertex $-1 $130 $131 #
straight-curve $-1 0 -44.99999999999972999 15.0000000000002629 1 0 -0 I I #
point $-1 -35 -44.99999999999972999 15.0000000000002629 #
coedge $-1 $127 $85 $106 $130 reversed $111 $-1 #
loop $-1 $-1 $85 $89 #
ellipse-curve $-1 12 -44.99999999999975131 18.0000000000002629 -0 -1 -6.982962677686269866e-15 2.121320343559640165 1.481310078649358338e-14 -2.121320343559640165 1 I I #
point $-1 15 -44.99999999999968026 18.00000000000046185 #
face $-1 $123 $125 $2 $-1 $132 forward single #
cone-surface $-1 12 -39.99999999999968026 18.00000000000029843 -0 -1 -6.982962677686269866e-15 2.121320343559640165 1.481310078649358338e-14 -2.121320343559640165 1 I I -0 1 2.999999999999996447 reversed I I I I #
coedge $-1 $91 $95 $119 $133 forward $96 $-1 #
vertex $-1 $133 $134 #
ellipse-curve $-1 -35 -22.99999999999968381 18.00000000000041567 -1 -0 0 0 2.12132034355965482 -2.12132034355962551 1 I I #
coedge $-1 $106 $93 $116 $133 reversed $62 $-1 #
straight-curve $-1 -35 -39.99999999999965894 15.00000000000029843 0 -1 -6.982962677686269866e-15 I I #
coedge $-1 $98 $124 $95 $122 forward $125 $-1 #
edge $-1 $135 -0.785398163397448168 $70 0.78539816339744839 $95 $136 forward 7 unknown #
face $-1 $-1 $96 $2 $-1 $137 forward single #
coedge $-1 $121 $98 $127 $138 reversed $125 $-1 #
loop $-1 $-1 $98 $114 #
ellipse-curve $-1 12 -22.99999999999968381 18.00000000000041567 -0 -6.982962677686269866e-15 1 2.121320343559640165 2.121320343559640165 1.481310078649358338e-14 1 I I #
coedge $-1 $102 $110 $124 $138 forward $111 $-1 #
straight-curve $-1 15 -39.99999999999968026 18.00000000000029843 0 1 6.982962677686269866e-15 I I #
point $-1 15 -22.99999999999968381 18.00000000000041567 #
edge $-1 $135 -16.99999999999999645 $107 5.000000000000071054 $106 $139 forward 7 unknown #
point $-1 12 -44.99999999999972999 15.0000000000002629 #
sphere-surface $-1 12 -22.99999999999968381 18.00000000000041567 3 -1 0 0 0 6.982962677686269866e-15 -1 reverse_v I I I I #
edge $-1 $135 -17 $117 30 $119 $140 reversed 7 unknown #
point $-1 -35 -22.99999999999966249 15.00000000000041567 #
vertex $-1 $138 $141 #
ellipse-curve $-1 12 -22.99999999999968381 18.00000000000041567 1 -0 -0 0 2.12132034355965482 -2.12132034355962551 1 I I #
cone-surface $-1 -6.5 -22.99999999999968381 18.00000000000041567 1 -0 -0 0 2.12132034355965482 -2.12132034355962551 1 I I -0 1 2.999999999999996447 reversed I I I I #
edge $-1 $135 -0.785398163397448279 $104 0.785398163397448279 $127 $142 forward 7 unknown #
straight-curve $-1 12 -39.99999999999965894 15.00000000000029843 0 -1 -6.982962677686269866e-15 I I #
straight-curve $-1 -5 -22.99999999999966249 15.00000000000041567 1 0 0 I I #
point $-1 12 -22.99999999999966249 15.00000000000041567 #
ellipse-curve $-1 12 -22.99999999999968381 18.00000000000041567 -0 -1 -6.982962677686269866e-15 2.121320343559640165 1.481310078649358338e-14 -2.121320343559640165 1 I I #
End-of-ACIS-data 