600 0 2 0           
24 FBMach with ACIS - 6.0.3 13 ACIS 6.0.3 NT 24 Tue May 22 12:24:22 2001 
1 9.9999999999999995e-007 1e-010 
body $2 $3 $-1 $4 #
bdycol-kcp $-1 1 2 $5 $6 #
model_id-kcp-attrib $-1 $-1 $-1 $0 1 990548662 50 1009909761 1 #
lump $-1 $-1 $7 $0 #
transform $-1 -1 0 0 0 1 0 0 0 -1 -10 -32.499999999999908 49.999999999999979 1 rotate no_reflect no_shear #
body $8 $9 $-1 $10 #
body $11 $12 $-1 $13 #
shell $-1 $-1 $-1 $14 $-1 $3 #
model_id-kcp-attrib $-1 $-1 $-1 $5 1 990548662 50 1009909762 1 #
lump $-1 $-1 $15 $5 #
transform $-1 1 0 0 0 1 0 0 0 1 -10 -32.499999999999723 32.500000000000242 1 no_rotate no_reflect no_shear #
rgb_color-st-attrib $-1 $16 $-1 $6 0.5 1 1 #
lump $-1 $-1 $17 $6 #
transform $-1 1 0 0 0 1 0 0 0 1 -10 -32.499999999999723 32.500000000000242 1 no_rotate no_reflect no_shear #
face $18 $19 $20 $7 $-1 $21 forward single #
shell $-1 $-1 $-1 $22 $-1 $9 #
model_id-kcp-attrib $-1 $-1 $11 $6 1 990548662 150 1016463363 1 #
shell $-1 $-1 $-1 $23 $-1 $12 #
model_id-kcp-attrib $-1 $24 $-1 $14 1 990548662 50 1009909761 12 #
face $25 $26 $27 $7 $-1 $28 reversed single #
loop $-1 $-1 $29 $14 #
plane-surface $-1 -10 32.499999999999901 1.7763568394002505e-015 0 0 -1 -1 0 0 forward_v I I I I #
face $30 $31 $32 $15 $-1 $33 forward single #
face $-1 $34 $35 $17 $-1 $36 reversed single #
model_id-kcp-attrib $-1 $-1 $18 $14 1 990548662 50 1009909761 2 #
model_id-kcp-attrib $-1 $-1 $-1 $19 1 990548662 50 1009909761 3 #
face $37 $38 $39 $7 $-1 $40 reversed single #
loop $-1 $-1 $41 $19 #
plane-surface $-1 -5 12.500000000000107 14.99999999999954 0 -1 6.9829626776862699e-015 0 6.9829626776862699e-015 1 reverse_v I I I I #
coedge $-1 $42 $43 $44 $45 forward $20 $-1 #
model_id-kcp-attrib $-1 $-1 $-1 $22 1 990548662 50 1009909762 2 #
face $46 $47 $48 $15 $-1 $49 reversed single #
loop $-1 $-1 $50 $22 #
plane-surface $-1 0 0 17.499999999999975 0 0 1 1 0 0 forward_v I I I I #
face $-1 $51 $52 $17 $-1 $53 forward single #
loop $-1 $-1 $54 $23 #
cone-surface $-1 22 9.5000000000000355 17.499999999999737 0 0 1 3 1.7763568394002505e-015 0 1 I I 0 1 3 forward I I I I #
model_id-kcp-attrib $-1 $-1 $-1 $26 1 990548662 50 1009909761 4 #
face $55 $56 $57 $7 $-1 $58 forward single #
loop $-1 $-1 $59 $26 #
plane-surface $-1 25 -7.4999999999998934 14.99999999999968 -1 0 0 0 6.9829626776862699e-015 1 reverse_v I I I I #
coedge $-1 $60 $61 $62 $63 reversed $27 $-1 #
coedge $-1 $64 $29 $65 $66 forward $20 $-1 #
coedge $-1 $29 $62 $59 $67 forward $20 $-1 #
coedge $-1 $68 $69 $29 $45 reversed $57 $-1 #
edge $70 $71 -37.5 $72 12.5 $44 $73 forward 7 unknown #
model_id-kcp-attrib $-1 $-1 $-1 $31 1 990548662 50 1009909762 7 #
face $74 $75 $76 $15 $-1 $77 reversed single #
loop $-1 $-1 $78 $31 #
plane-surface $-1 0 0 -17.499999999999975 0 0 1 1 0 0 forward_v I I I I #
coedge $-1 $79 $80 $81 $82 forward $32 $-1 #
face $-1 $83 $84 $17 $-1 $85 reversed single #
loop $-1 $-1 $86 $34 #
plane-surface $-1 0 0 17.499999999999975 0 0 1 1 0 0 forward_v I I I I #
coedge $-1 $87 $88 $86 $89 reversed $35 $-1 #
model_id-kcp-attrib $-1 $-1 $-1 $38 1 990548662 50 1009909761 5 #
face $90 $91 $92 $7 $-1 $93 reversed single #
loop $-1 $-1 $44 $38 #
plane-surface $-1 -15 -12.499999999999893 14.999999999999538 0 -1 6.9829626776862699e-015 0 6.9829626776862699e-015 1 reverse_v I I I I #
coedge $-1 $94 $95 $43 $67 reversed $39 $-1 #
coedge $-1 $96 $41 $97 $98 forward $27 $-1 #
coedge $-1 $41 $96 $94 $99 forward $27 $-1 #
coedge $-1 $43 $64 $41 $63 forward $20 $-1 #
edge $100 $101 -14.5 $102 32.5 $41 $103 forward 7 unknown #
coedge $-1 $62 $42 $104 $105 forward $20 $-1 #
coedge $-1 $106 $107 $42 $66 reversed $92 $-1 #
edge $108 $72 -25 $109 -3 $65 $110 forward 7 unknown #
edge $111 $102 0 $71 25 $59 $112 forward 7 unknown #
coedge $-1 $113 $44 $95 $114 reversed $57 $-1 #
coedge $-1 $44 $115 $106 $116 forward $57 $-1 #
attrib_edge_convexity-kcp-attrib $-1 $117 $-1 $45 1 #
vertex $-1 $114 $118 #
vertex $-1 $116 $119 #
straight-curve $-1 -12.5 -12.499999999999998 1.5987211554602254e-014 -1 0 0 I I #
model_id-kcp-attrib $-1 $-1 $-1 $47 1 990548662 50 1009909762 5 #
face $120 $121 $122 $15 $-1 $123 reversed single #
loop $-1 $-1 $124 $47 #
plane-surface $-1 0 -12.500000000000258 0 0 1 0 0 0 1 forward_v I I I I #
coedge $-1 $125 $126 $127 $128 forward $48 $-1 #
coedge $-1 $129 $50 $130 $131 forward $32 $-1 #
coedge $-1 $50 $129 $132 $133 forward $32 $-1 #
coedge $-1 $134 $135 $50 $82 reversed $136 $-1 #
edge $-1 $137 -12.500000000000258 $138 12.500000000000258 $81 $139 forward 7 unknown #
face $-1 $140 $141 $17 $-1 $142 reversed single #
loop $-1 $-1 $143 $51 #
plane-surface $-1 25 0 0 -1 0 0 0 0 1 forward_v I I I I #
coedge $-1 $144 $145 $54 $89 forward $52 $-1 #
coedge $-1 $146 $54 $147 $148 reversed $35 $-1 #
coedge $-1 $54 $146 $143 $149 forward $35 $-1 #
edge $-1 $150 -1.5707963267948961 $151 -5.9211894646675012e-016 $86 $152 forward 7 unknown #
model_id-kcp-attrib $-1 $-1 $-1 $56 1 990548662 50 1009909761 6 #
face $153 $154 $155 $7 $-1 $156 forward single #
loop $-1 $-1 $65 $56 #
plane-surface $-1 -25 -7.4999999999998934 14.99999999999968 1 0 0 0 -6.9829626776862699e-015 -1 reverse_v I I I I #
coedge $-1 $157 $59 $61 $99 reversed $39 $-1 #
coedge $-1 $59 $158 $68 $114 forward $39 $-1 #
coedge $-1 $61 $60 $159 $160 forward $27 $-1 #
coedge $-1 $104 $161 $60 $98 reversed $162 $-1 #
edge $163 $101 15.0000000000004 $164 47 $60 $165 forward 7 unknown #
edge $166 $167 -17 $102 14.9999999999996 $94 $168 forward 7 unknown #
attrib_edge_convexity-kcp-attrib $-1 $169 $-1 $63 1 #
vertex $-1 $63 $170 #
vertex $-1 $99 $171 #
straight-curve $-1 -7.5 12.500000000000004 -6.0396132539608516e-014 1 0 0 I I #
coedge $-1 $172 $97 $64 $105 reversed $162 $-1 #
edge $173 $109 -0.78539816339744828 $101 0.78539816339744828 $104 $174 forward 7 unknown #
coedge $-1 $175 $65 $69 $116 reversed $92 $-1 #
coedge $-1 $65 $175 $172 $176 forward $92 $-1 #
attrib_edge_convexity-kcp-attrib $-1 $177 $-1 $66 1 #
vertex $-1 $176 $178 #
straight-curve $-1 -25 12.500000000000004 -6.0396132539608516e-014 0 1 0 I I #
attrib_edge_convexity-kcp-attrib $-1 $179 $-1 $67 1 #
straight-curve $-1 25 12.500000000000004 -6.0396132539608516e-014 0 -1 0 I I #
coedge $-1 $115 $68 $180 $181 forward $57 $-1 #
edge $182 $183 -20.000000000000089 $71 14.999999999999611 $95 $184 reversed 7 unknown #
coedge $-1 $69 $113 $185 $186 forward $57 $-1 #
edge $-1 $187 -16.99999999999989 $72 14.999999999999611 $106 $188 forward 7 unknown #
convexity-sys-attrib $-1 $-1 $70 $45 #
point $-1 25 -12.499999999999998 1.5987211554602254e-014 #
point $-1 -25 -12.499999999999998 1.5987211554602254e-014 #
model_id-kcp-attrib $-1 $-1 $-1 $75 1 990548662 50 1009909762 4 #
face $189 $190 $191 $15 $-1 $192 reversed single #
loop $-1 $-1 $193 $75 #
plane-surface $-1 -25 0 0 1 0 0 0 0 -1 forward_v I I I I #
coedge $-1 $194 $132 $195 $196 forward $76 $-1 #
coedge $-1 $197 $78 $194 $198 forward $48 $-1 #
coedge $-1 $78 $197 $199 $200 forward $48 $-1 #
coedge $-1 $135 $134 $78 $128 reversed $136 $-1 #
edge $-1 $201 -12.500000000000258 $202 12.500000000000258 $127 $203 forward 7 unknown #
coedge $-1 $80 $79 $204 $205 forward $32 $-1 #
coedge $-1 $206 $207 $79 $131 reversed $191 $-1 #
edge $-1 $138 -25 $208 25 $130 $209 forward 7 unknown #
coedge $-1 $124 $210 $80 $133 reversed $76 $-1 #
edge $-1 $211 -25 $137 25 $132 $212 forward 7 unknown #
coedge $-1 $127 $81 $210 $213 forward $136 $-1 #
coedge $-1 $81 $127 $206 $214 reversed $136 $-1 #
loop $-1 $-1 $134 $190 #
vertex $-1 $82 $215 #
vertex $-1 $82 $216 #
straight-curve $-1 25 0 17.499999999999975 0 1 0 I I #
face $-1 $-1 $217 $17 $-1 $218 reversed single #
loop $-1 $-1 $219 $83 #
plane-surface $-1 0 0 -17.499999999999975 0 0 1 1 0 0 forward_v I I I I #
coedge $-1 $220 $221 $88 $149 reversed $84 $-1 #
coedge $-1 $145 $86 $221 $222 forward $52 $-1 #
coedge $-1 $86 $144 $223 $224 forward $52 $-1 #
coedge $-1 $88 $87 $219 $225 reversed $35 $-1 #
coedge $-1 $223 $226 $87 $148 forward $217 $-1 #
edge $-1 $227 -34.999999999999716 $150 2.3803181647963356e-013 $147 $228 forward 7 unknown #
edge $-1 $229 -34.999999999999716 $151 2.3803181647963356e-013 $143 $230 forward 7 unknown #
vertex $-1 $89 $231 #
vertex $-1 $222 $232 #
ellipse-curve $-1 22 9.5000000000000355 17.499999999999975 0 0 -1 3 1.7763568394002505e-015 0 1 I I #
model_id-kcp-attrib $-1 $-1 $-1 $91 1 990548662 50 1009909761 7 #
face $233 $234 $162 $7 $-1 $235 forward single #
loop $-1 $-1 $180 $91 #
plane-surface $-1 -5 -7.499999999999754 34.99999999999968 0 6.9829626776862699e-015 1 1 0 0 reverse_v I I I I #
coedge $-1 $158 $94 $236 $237 forward $39 $-1 #
coedge $-1 $95 $157 $238 $239 forward $39 $-1 #
coedge $-1 $240 $236 $96 $160 reversed $241 $-1 #
edge $242 $164 -27 $167 20 $96 $243 forward 7 unknown #
coedge $-1 $97 $172 $244 $245 forward $162 $-1 #
loop $-1 $-1 $104 $154 #
attrib_edge_convexity-kcp-attrib $-1 $246 $-1 $98 3 #
vertex $-1 $98 $247 #
straight-curve $-1 -22 12.500000000000096 -15.000000000000458 0 6.9829626776862699e-015 1 I I #
attrib_edge_convexity-kcp-attrib $-1 $248 $-1 $99 1 #
vertex $-1 $237 $249 #
straight-curve $-1 25 12.500000000000107 14.99999999999954 0 -6.9829626776862699e-015 -1 I I #
convexity-sys-attrib $-1 $-1 $100 $63 #
point $-1 -22 12.500000000000203 -6.0396132539608516e-014 #
point $-1 25 12.500000000000004 -6.0396132539608516e-014 #
coedge $-1 $161 $104 $107 $176 reversed $162 $-1 #
attrib_edge_convexity-kcp-attrib $-1 $250 $-1 $105 1 #
ellipse-curve $-1 -22 9.5000000000000036 1.6164847238542279e-013 0 0 -1 -2.1213203435596402 2.1213203435596402 -1.4813100786493583e-014 1 I I #
coedge $-1 $107 $106 $251 $252 forward $92 $-1 #
edge $-1 $253 -17 $109 14.9999999999996 $107 $254 forward 7 unknown #
convexity-sys-attrib $-1 $-1 $108 $66 #
point $-1 -25 9.5000000000000036 -3.907985046680551e-014 #
convexity-sys-attrib $-1 $-1 $111 $67 #
coedge $-1 $238 $255 $113 $181 reversed $155 $-1 #
edge $256 $183 -35 $257 12 $180 $258 forward 7 unknown #
attrib_edge_convexity-kcp-attrib $-1 $259 $-1 $114 1 #
vertex $-1 $239 $260 #
straight-curve $-1 25 -12.499999999999893 14.999999999999627 0 6.9829626776862699e-015 1 I I #
coedge $-1 $261 $251 $115 $186 reversed $262 $-1 #
edge $263 $257 -0.78539816339744828 $187 0.78539816339751456 $185 $264 forward 7 unknown #
vertex $-1 $186 $265 #
straight-curve $-1 -25 -12.499999999999893 14.999999999999627 0 -6.9829626776862699e-015 -1 I I #
model_id-kcp-attrib $-1 $-1 $-1 $121 1 990548662 50 1009909762 3 #
face $266 $-1 $136 $15 $-1 $267 reversed single #
loop $-1 $-1 $206 $121 #
plane-surface $-1 0 12.500000000000258 0 0 -1 0 0 0 -1 forward_v I I I I #
coedge $-1 $268 $204 $207 $269 forward $122 $-1 #
coedge $-1 $210 $124 $125 $198 reversed $76 $-1 #
coedge $-1 $204 $268 $124 $196 reversed $122 $-1 #
edge $-1 $211 -17.499999999999975 $270 17.499999999999975 $195 $271 forward 7 unknown #
coedge $-1 $126 $125 $268 $272 forward $48 $-1 #
edge $-1 $202 -25 $270 25 $194 $273 forward 7 unknown #
coedge $-1 $207 $206 $126 $200 reversed $191 $-1 #
edge $-1 $274 -25 $201 25 $199 $275 forward 7 unknown #
vertex $-1 $128 $276 #
vertex $-1 $213 $277 #
straight-curve $-1 25 0 -17.499999999999975 0 -1 0 I I #
coedge $-1 $193 $195 $129 $205 reversed $122 $-1 #
edge $-1 $208 -12.500000000000258 $211 12.500000000000258 $204 $278 forward 7 unknown #
coedge $-1 $199 $130 $135 $214 forward $191 $-1 #
coedge $-1 $130 $199 $193 $269 reversed $191 $-1 #
vertex $-1 $131 $279 #
straight-curve $-1 0 12.500000000000258 17.499999999999975 -1 0 0 I I #
coedge $-1 $132 $194 $134 $213 reversed $76 $-1 #
vertex $-1 $205 $280 #
straight-curve $-1 0 -12.500000000000258 17.499999999999975 1 0 0 I I #
edge $-1 $137 -17.499999999999975 $202 17.499999999999975 $134 $281 forward 7 unknown #
edge $-1 $138 -17.499999999999975 $201 17.499999999999975 $135 $282 forward 7 unknown #
point $-1 25 -12.500000000000258 17.499999999999975 #
point $-1 25 12.500000000000258 17.499999999999975 #
loop $-1 $-1 $147 $140 #
plane-surface $-1 0 12.500000000000258 0 0 -1 0 0 0 -1 forward_v I I I I #
coedge $-1 $283 $284 $146 $225 forward $141 $-1 #
coedge $-1 $285 $143 $284 $286 reversed $84 $-1 #
coedge $-1 $143 $285 $144 $222 reversed $84 $-1 #
edge $-1 $151 9.5000000000000391 $287 12.500000000000258 $221 $288 forward 7 unknown #
coedge $-1 $289 $147 $145 $224 reversed $217 $-1 #
edge $-1 $287 -25 $150 -22 $223 $290 forward 7 unknown #
edge $-1 $229 5.9211894646675012e-016 $227 1.5707963267948961 $219 $291 forward 7 unknown #
coedge $-1 $147 $289 $283 $292 reversed $217 $-1 #
vertex $-1 $292 $293 #
straight-curve $-1 22 12.500000000000258 17.499999999999737 0 0 1 I I #
vertex $-1 $149 $294 #
straight-curve $-1 25 9.5000000000000355 17.499999999999737 0 0 1 I I #
point $-1 22 12.500000000000039 17.499999999999975 #
point $-1 25 9.5000000000000391 17.499999999999975 #
model_id-kcp-attrib $-1 $-1 $-1 $154 1 990548662 50 1009909761 8 #
face $295 $296 $262 $7 $-1 $297 forward single #
cone-surface $-1 -22 9.5000000000000959 13.499999999999561 0 6.9829626776862699e-015 1 -2.1213203435596402 2.1213203435596402 -1.4813100786493583e-014 1 I I 0 1 2.9999999999999964 reversed I I I I #
coedge $-1 $159 $298 $157 $237 reversed $241 $-1 #
edge $299 $167 -0.78539816339744828 $300 0.78539816339744828 $157 $301 forward 7 unknown #
coedge $-1 $302 $180 $158 $239 reversed $155 $-1 #
edge $303 $300 -17 $183 5.0000000000000702 $158 $304 forward 7 unknown #
coedge $-1 $298 $159 $305 $306 reversed $241 $-1 #
loop $-1 $-1 $159 $307 #
model_id-kcp-attrib $-1 $308 $-1 $160 1 990548662 50 1009909761 14 #
straight-curve $-1 5 12.500000000000224 31.999999999999542 1 0 0 I I #
coedge $-1 $309 $305 $161 $245 reversed $310 $-1 #
edge $-1 $253 -0.78539816339744828 $164 0.78539816339744828 $244 $311 forward 7 unknown #
convexity-sys-attrib $-1 $-1 $163 $98 #
point $-1 -22 12.500000000000224 31.999999999999542 #
convexity-sys-attrib $-1 $-1 $166 $99 #
point $-1 25 12.500000000000224 31.999999999999542 #
convexity-sys-attrib $-1 $-1 $173 $105 #
coedge $-1 $185 $312 $175 $252 reversed $262 $-1 #
edge $313 $187 -5 $253 17 $175 $314 forward 7 unknown #
vertex $-1 $252 $315 #
straight-curve $-1 -25 9.5000000000001066 14.999999999999561 0 -6.9829626776862699e-015 -1 I I #
coedge $-1 $180 $302 $261 $316 forward $155 $-1 #
model_id-kcp-attrib $-1 $-1 $-1 $181 1 990548662 50 1009909761 17 #
vertex $-1 $316 $317 #
straight-curve $-1 -10 -12.499999999999824 34.999999999999716 -1 0 0 I I #
convexity-sys-attrib $-1 $-1 $182 $114 #
point $-1 25 -12.499999999999824 34.999999999999716 #
coedge $-1 $312 $185 $255 $316 reversed $262 $-1 #
loop $-1 $-1 $185 $234 #
model_id-kcp-attrib $-1 $-1 $-1 $186 1 990548662 50 1009909761 18 #
ellipse-curve $-1 -22 -12.499999999999844 31.999999999999716 0 -1 6.9829626776862699e-015 -2.1213203435596402 1.4813100786493583e-014 2.1213203435596402 1 I I #
point $-1 -25 -12.499999999999774 31.999999999999517 #
model_id-kcp-attrib $-1 $-1 $-1 $190 1 990548662 50 1009909762 6 #
plane-surface $-1 25 0 0 -1 0 0 0 0 1 forward_v I I I I #
coedge $-1 $195 $193 $197 $272 reversed $122 $-1 #
edge $-1 $208 -17.499999999999975 $274 17.499999999999975 $207 $318 forward 7 unknown #
vertex $-1 $272 $319 #
straight-curve $-1 -25 -12.500000000000258 0 0 0 -1 I I #
edge $-1 $270 -12.500000000000258 $274 12.500000000000258 $268 $320 forward 7 unknown #
straight-curve $-1 0 -12.500000000000258 -17.499999999999975 -1 0 0 I I #
vertex $-1 $200 $321 #
straight-curve $-1 0 12.500000000000258 -17.499999999999975 1 0 0 I I #
point $-1 25 12.500000000000258 -17.499999999999975 #
point $-1 25 -12.500000000000258 -17.499999999999975 #
straight-curve $-1 -25 0 17.499999999999975 0 -1 0 I I #
point $-1 -25 12.500000000000258 17.499999999999975 #
point $-1 -25 -12.500000000000258 17.499999999999975 #
straight-curve $-1 25 -12.500000000000258 0 0 0 -1 I I #
straight-curve $-1 25 12.500000000000258 0 0 0 -1 I I #
coedge $-1 $284 $219 $226 $292 forward $141 $-1 #
coedge $-1 $219 $283 $220 $286 forward $141 $-1 #
coedge $-1 $221 $220 $289 $322 reversed $84 $-1 #
edge $-1 $323 -12.500000000000258 $229 -9.5000000000000391 $220 $324 forward 7 unknown #
vertex $-1 $222 $325 #
straight-curve $-1 25 0 17.499999999999975 0 1 0 I I #
coedge $-1 $226 $223 $285 $322 forward $217 $-1 #
straight-curve $-1 0 12.500000000000258 17.499999999999975 -1 0 0 I I #
ellipse-curve $-1 22 9.5000000000000355 -17.499999999999979 0 0 1 3 1.7763568394002505e-015 0 1 I I #
edge $-1 $227 22 $323 25 $226 $326 forward 7 unknown #
point $-1 22 12.500000000000039 -17.499999999999979 #
point $-1 25 9.5000000000000391 -17.499999999999979 #
model_id-kcp-attrib $-1 $-1 $-1 $234 1 990548662 50 1009909761 9 #
face $327 $307 $310 $7 $-1 $328 forward single #
cone-surface $-1 -22 -7.4999999999997744 31.99999999999968 0 -1 6.9829626776862699e-015 -2.1213203435596402 1.4813100786493583e-014 2.1213203435596402 1 I I 0 1 2.9999999999999964 reversed I I I I #
coedge $-1 $236 $240 $302 $329 forward $241 $-1 #
model_id-kcp-attrib $-1 $330 $-1 $237 1 990548662 50 1009909761 15 #
vertex $-1 $329 $331 #
ellipse-curve $-1 25 9.5000000000002238 31.999999999999563 1 0 0 0 2.1213203435596548 2.1213203435596255 1 I I #
coedge $-1 $255 $238 $298 $329 reversed $155 $-1 #
model_id-kcp-attrib $-1 $332 $-1 $239 1 990548662 50 1009909761 16 #
straight-curve $-1 25 -7.499999999999754 34.99999999999968 0 -1 6.9829626776862699e-015 I I #
coedge $-1 $244 $309 $240 $306 forward $310 $-1 #
edge $-1 $333 -0.78539816339744828 $164 0.78539816339744828 $240 $334 forward 7 unknown #
face $335 $-1 $241 $7 $-1 $336 forward single #
attrib_edge_convexity-kcp-attrib $-1 $337 $242 $160 3 #
coedge $-1 $305 $244 $312 $338 reversed $310 $-1 #
loop $-1 $-1 $244 $296 #
ellipse-curve $-1 -22 9.5000000000002238 31.999999999999563 0 -6.9829626776862699e-015 -1 -2.1213203435596402 2.1213203435596402 -1.4813100786493583e-014 1 I I #
coedge $-1 $251 $261 $309 $338 forward $262 $-1 #
model_id-kcp-attrib $-1 $-1 $-1 $252 1 990548662 50 1009909761 13 #
straight-curve $-1 -25 -7.4999999999997744 31.99999999999968 0 1 -6.9829626776862699e-015 I I #
point $-1 -25 9.5000000000002238 31.999999999999563 #
edge $-1 $333 -17 $257 5.0000000000000702 $255 $339 forward 7 unknown #
point $-1 -22 -12.499999999999824 34.999999999999716 #
straight-curve $-1 -25 12.500000000000258 0 0 0 -1 I I #
point $-1 -25 -12.500000000000258 -17.499999999999975 #
straight-curve $-1 -25 0 -17.499999999999975 0 1 0 I I #
point $-1 -25 12.500000000000258 -17.499999999999975 #
edge $-1 $287 -17.499999999999975 $323 17.499999999999975 $285 $340 forward 7 unknown #
vertex $-1 $286 $341 #
straight-curve $-1 25 0 -17.499999999999975 0 -1 0 I I #
point $-1 25 12.500000000000258 17.499999999999975 #
straight-curve $-1 0 12.500000000000258 -17.499999999999975 1 0 0 I I #
model_id-kcp-attrib $-1 $-1 $-1 $296 1 990548662 50 1009909761 10 #
sphere-surface $-1 -22 9.5000000000002238 31.999999999999563 3 1 0 0 0 6.9829626776862699e-015 1 reverse_v I I I I #
edge $-1 $333 -17 $300 30 $302 $342 reversed 7 unknown #
attrib_edge_convexity-kcp-attrib $-1 $343 $299 $237 1 #
point $-1 25 9.5000000000002451 34.999999999999559 #
attrib_edge_convexity-kcp-attrib $-1 $344 $303 $239 1 #
vertex $-1 $338 $345 #
ellipse-curve $-1 -22 9.5000000000002238 31.999999999999563 -1 0 0 0 2.1213203435596548 2.1213203435596255 1 I I #
model_id-kcp-attrib $-1 $-1 $-1 $307 1 990548662 50 1009909761 11 #
cone-surface $-1 -3.5 9.5000000000002238 31.999999999999563 -1 0 0 0 2.1213203435596548 2.1213203435596255 1 I I 0 1 2.9999999999999964 reversed I I I I #
convexity-sys-attrib $-1 $-1 $308 $160 #
edge $-1 $333 -0.78539816339744828 $253 0.78539816339744828 $312 $346 forward 7 unknown #
straight-curve $-1 -22 -7.499999999999754 34.99999999999968 0 -1 6.9829626776862699e-015 I I #
straight-curve $-1 25 12.500000000000258 0 0 0 -1 I I #
point $-1 25 12.500000000000258 -17.499999999999975 #
straight-curve $-1 -5 9.5000000000002451 34.999999999999559 -1 0 0 I I #
convexity-sys-attrib $-1 $-1 $330 $237 #
convexity-sys-attrib $-1 $-1 $332 $239 #
point $-1 -22 9.5000000000002451 34.999999999999559 #
ellipse-curve $-1 -22 9.5000000000002238 31.999999999999563 0 -1 6.9829626776862699e-015 -2.1213203435596402 1.4813100786493583e-014 2.1213203435596402 1 I I #
End-of-ACIS-data 