600 0 2 0           
24 FBMach with ACIS - 6.0.3 13 ACIS 6.0.3 NT 24 Sun Mar 31 23:25:07 2002 
1 9.9999999999999995e-007 1e-010 
body $2 $3 $-1 $4 #
bdycol-kcp $-1 1 2 $5 $6 #
model_id-kcp-attrib $-1 $7 $-1 $0 1 1017635106 70 -1857683455 1 #
lump $-1 $-1 $8 $0 #
transform $-1 1 0 0 0 1 0 0 0 1 0 0 0 1 rotate no_reflect no_shear #
body $9 $10 $-1 $11 #
body $12 $13 $-1 $14 #
aggregate_advspl_attribute-aggregate_geombuild_base_attribute-aggregate_body_attribute-attrib_HH-attrib $-1 $15 $2 $0 F #
shell $-1 $-1 $-1 $16 $-1 $3 #
model_id-kcp-attrib $-1 $-1 $-1 $5 1 1017635106 70 -1857683454 1 #
lump $-1 $-1 $17 $5 #
transform $-1 1 0 0 0 1 0 0 0 1 -10 -32.499999999999694 32.500000000000156 1 no_rotate no_reflect no_shear #
rgb_color-st-attrib $-1 $18 $-1 $6 0.5 1 1 #
lump $-1 $-1 $19 $6 #
transform $-1 1 0 0 0 1 0 0 0 1 -10 -32.499999999999694 32.500000000000156 1 no_rotate no_reflect no_shear #
aggregate_secndry_attribute-aggregate_geombuild_base_attribute-aggregate_body_attribute-attrib_HH-attrib $-1 $20 $7 $0 F #
face $21 $22 $23 $8 $-1 $24 forward single #
shell $-1 $-1 $-1 $25 $-1 $10 #
model_id-kcp-attrib $-1 $-1 $12 $6 1 1017635106 180 -1850474493 1 #
shell $-1 $-1 $-1 $26 $-1 $13 #
aggregate_sharped_attribute-aggregate_geombuild_base_attribute-aggregate_body_attribute-attrib_HH-attrib $-1 $27 $15 $0 F #
model_id-kcp-attrib $-1 $28 $-1 $16 1 1017635106 70 -1857683455 12 #
face $29 $30 $31 $8 $-1 $32 reversed single #
loop $-1 $-1 $33 $16 #
plane-surface $-1 0 -7.1054273576010019e-015 49.999999999999979 0 0 1 1 0 0 forward_v I I I I #
face $34 $35 $36 $17 $-1 $37 forward single #
face $-1 $38 $39 $19 $-1 $40 reversed single #
aggregate_reblend_attribute-aggregate_geombuild_base_attribute-aggregate_body_attribute-attrib_HH-attrib $-1 $41 $20 $0 F #
model_id-kcp-attrib $-1 $42 $21 $16 1 1017635106 70 -1857683455 2 #
model_id-kcp-attrib $-1 $43 $-1 $22 1 1017635106 70 -1857683455 3 #
face $44 $45 $46 $8 $-1 $47 reversed single #
loop $-1 $-1 $48 $22 #
plane-surface $-1 -5 -19.999999999999801 35.000000000000441 0 -1 -6.9829626776862699e-015 0 6.9829626776862699e-015 -1 reverse_v I I I I #
coedge $49 $50 $51 $52 $53 forward $23 $-1 #
model_id-kcp-attrib $-1 $-1 $-1 $25 1 1017635106 70 -1857683454 2 #
face $54 $55 $56 $17 $-1 $57 reversed single #
loop $-1 $-1 $58 $25 #
plane-surface $-1 0 0 17.49999999999989 0 0 1 1 0 0 forward_v I I I I #
face $-1 $59 $60 $19 $-1 $61 forward single #
loop $-1 $-1 $62 $26 #
cone-surface $-1 22 9.5000000000000071 17.499999999999822 0 0 1 3 1.7763568394002505e-015 0 1 I I 0 1 3 forward I I I I #
aggregate_isospline_attribute-aggregate_geombuild_base_attribute-aggregate_body_attribute-attrib_HH-attrib $-1 $63 $27 $0 F #
attrib_hh_face_geombuild-attrib_entity_geombuild-individual_entity_attribute-attrib_HH-attrib $-1 $-1 $28 $16 F #
attrib_hh_face_geombuild-attrib_entity_geombuild-individual_entity_attribute-attrib_HH-attrib $-1 $-1 $29 $22 F #
model_id-kcp-attrib $-1 $64 $-1 $30 1 1017635106 70 -1857683455 4 #
face $65 $66 $67 $8 $-1 $68 forward single #
loop $-1 $-1 $69 $30 #
plane-surface $-1 -35 -39.999999999999801 35.000000000000298 1 0 0 0 6.9829626776862699e-015 -1 reverse_v I I I I #
coedge $70 $71 $72 $73 $74 reversed $31 $-1 #
attrib_hh_coedge_geombuild-attrib_entity_geombuild-individual_entity_attribute-attrib_HH-attrib $-1 $-1 $-1 $33 F #
coedge $75 $76 $33 $77 $78 forward $23 $-1 #
coedge $79 $33 $73 $69 $80 forward $23 $-1 #
coedge $81 $82 $83 $33 $53 reversed $67 $-1 #
edge $84 $85 -37.5 $86 12.5 $52 $87 forward 7 unknown #
model_id-kcp-attrib $-1 $-1 $-1 $35 1 1017635106 70 -1857683454 7 #
face $88 $89 $90 $17 $-1 $91 reversed single #
loop $-1 $-1 $92 $35 #
plane-surface $-1 0 0 -17.49999999999989 0 0 1 1 0 0 forward_v I I I I #
coedge $-1 $93 $94 $95 $96 forward $36 $-1 #
face $-1 $97 $98 $19 $-1 $99 reversed single #
loop $-1 $-1 $100 $38 #
plane-surface $-1 0 0 17.49999999999989 0 0 1 1 0 0 forward_v I I I I #
coedge $-1 $101 $102 $100 $103 reversed $39 $-1 #
aggregate_analytic_solver_attribute-aggregate_geombuild_base_attribute-aggregate_body_attribute-attrib_HH-attrib $-1 $104 $41 $0 F #
attrib_hh_face_geombuild-attrib_entity_geombuild-individual_entity_attribute-attrib_HH-attrib $-1 $-1 $44 $30 F #
model_id-kcp-attrib $-1 $105 $-1 $45 1 1017635106 70 -1857683455 5 #
face $106 $107 $108 $8 $-1 $109 reversed single #
loop $-1 $-1 $52 $45 #
plane-surface $-1 5 -44.999999999999801 35.000000000000441 0 -1 -6.9829626776862699e-015 0 6.9829626776862699e-015 -1 reverse_v I I I I #
coedge $110 $111 $112 $51 $80 reversed $46 $-1 #
attrib_hh_coedge_geombuild-attrib_entity_geombuild-individual_entity_attribute-attrib_HH-attrib $-1 $-1 $-1 $48 F #
coedge $113 $114 $48 $115 $116 forward $31 $-1 #
coedge $117 $48 $114 $111 $118 forward $31 $-1 #
coedge $119 $51 $76 $48 $74 forward $23 $-1 #
edge $120 $121 -14.5 $122 32.5 $48 $123 forward 7 unknown #
attrib_hh_coedge_geombuild-attrib_entity_geombuild-individual_entity_attribute-attrib_HH-attrib $-1 $-1 $-1 $50 F #
coedge $124 $73 $50 $125 $126 forward $23 $-1 #
coedge $127 $128 $129 $50 $78 reversed $108 $-1 #
edge $130 $86 -25.000000000000004 $131 -3 $77 $132 forward 7 unknown #
attrib_hh_coedge_geombuild-attrib_entity_geombuild-individual_entity_attribute-attrib_HH-attrib $-1 $-1 $-1 $51 F #
edge $133 $122 0 $85 25.000000000000004 $69 $134 forward 7 unknown #
attrib_hh_coedge_geombuild-attrib_entity_geombuild-individual_entity_attribute-attrib_HH-attrib $-1 $-1 $-1 $52 F #
coedge $135 $136 $52 $112 $137 reversed $67 $-1 #
coedge $138 $52 $139 $128 $140 forward $67 $-1 #
attrib_edge_convexity-kcp-attrib $-1 $141 $-1 $53 1 #
vertex $142 $137 $143 #
vertex $144 $140 $145 #
straight-curve $-1 2.5 -44.999999999999908 49.999999999999964 1 0 0 I I #
model_id-kcp-attrib $-1 $-1 $-1 $55 1 1017635106 70 -1857683454 5 #
face $146 $147 $148 $17 $-1 $149 reversed single #
loop $-1 $-1 $150 $55 #
plane-surface $-1 0 -12.500000000000211 0 0 1 0 0 0 1 forward_v I I I I #
coedge $-1 $151 $152 $153 $154 forward $56 $-1 #
coedge $-1 $155 $58 $156 $157 forward $36 $-1 #
coedge $-1 $58 $155 $158 $159 forward $36 $-1 #
coedge $-1 $160 $161 $58 $96 reversed $162 $-1 #
edge $-1 $163 -12.500000000000211 $164 12.500000000000211 $95 $165 forward 7 unknown #
face $-1 $166 $167 $19 $-1 $168 reversed single #
loop $-1 $-1 $169 $59 #
plane-surface $-1 25 0 0 -1 0 0 0 0 1 forward_v I I I I #
coedge $-1 $170 $171 $62 $103 forward $60 $-1 #
coedge $-1 $172 $62 $173 $174 reversed $39 $-1 #
coedge $-1 $62 $172 $169 $175 forward $39 $-1 #
edge $-1 $176 -1.5707963267948961 $177 -5.9211894646675012e-016 $100 $178 forward 7 unknown #
aggregate_geombuild_attribute-aggregate_geombuild_base_attribute-aggregate_body_attribute-attrib_HH-attrib $-1 $179 $63 $0 #
attrib_hh_face_geombuild-attrib_entity_geombuild-individual_entity_attribute-attrib_HH-attrib $-1 $-1 $65 $45 F #
model_id-kcp-attrib $-1 $180 $-1 $66 1 1017635106 70 -1857683455 6 #
face $181 $182 $183 $8 $-1 $184 forward single #
loop $-1 $-1 $77 $66 #
plane-surface $-1 15 -39.999999999999801 35.000000000000298 -1 0 0 0 -6.9829626776862699e-015 1 reverse_v I I I I #
attrib_hh_coedge_geombuild-attrib_entity_geombuild-individual_entity_attribute-attrib_HH-attrib $-1 $-1 $-1 $69 F #
coedge $185 $186 $69 $72 $118 reversed $46 $-1 #
coedge $187 $69 $188 $82 $137 forward $46 $-1 #
attrib_hh_coedge_geombuild-attrib_entity_geombuild-individual_entity_attribute-attrib_HH-attrib $-1 $-1 $-1 $71 F #
coedge $189 $72 $71 $190 $191 forward $31 $-1 #
coedge $192 $125 $193 $71 $116 reversed $194 $-1 #
edge $195 $121 15.000000000000398 $196 47 $71 $197 forward 7 unknown #
attrib_hh_coedge_geombuild-attrib_entity_geombuild-individual_entity_attribute-attrib_HH-attrib $-1 $-1 $-1 $72 F #
edge $198 $199 -17.000000000000004 $122 14.999999999999602 $111 $200 forward 7 unknown #
attrib_hh_coedge_geombuild-attrib_entity_geombuild-individual_entity_attribute-attrib_HH-attrib $-1 $-1 $-1 $73 F #
attrib_edge_convexity-kcp-attrib $-1 $201 $-1 $74 1 #
vertex $202 $74 $203 #
vertex $204 $118 $205 #
straight-curve $-1 -2.5 -19.999999999999904 50.000000000000043 -1 0 0 I I #
attrib_hh_coedge_geombuild-attrib_entity_geombuild-individual_entity_attribute-attrib_HH-attrib $-1 $-1 $-1 $76 F #
coedge $206 $207 $115 $76 $126 reversed $194 $-1 #
edge $208 $131 -0.78539816339744828 $121 0.78539816339744828 $125 $209 forward 7 unknown #
attrib_hh_coedge_geombuild-attrib_entity_geombuild-individual_entity_attribute-attrib_HH-attrib $-1 $-1 $-1 $77 F #
coedge $210 $211 $77 $83 $140 reversed $108 $-1 #
coedge $212 $77 $211 $207 $213 forward $108 $-1 #
attrib_edge_convexity-kcp-attrib $-1 $214 $-1 $78 1 #
vertex $215 $213 $216 #
straight-curve $-1 15 -19.999999999999904 50.000000000000043 0 1 0 I I #
attrib_edge_convexity-kcp-attrib $-1 $217 $-1 $80 1 #
straight-curve $-1 -35 -19.999999999999904 50.000000000000043 0 -1 0 I I #
attrib_hh_coedge_geombuild-attrib_entity_geombuild-individual_entity_attribute-attrib_HH-attrib $-1 $-1 $-1 $82 F #
coedge $218 $139 $82 $219 $220 forward $67 $-1 #
edge $221 $222 -20.000000000000092 $85 14.999999999999609 $112 $223 reversed 7 unknown #
attrib_hh_coedge_geombuild-attrib_entity_geombuild-individual_entity_attribute-attrib_HH-attrib $-1 $-1 $-1 $83 F #
coedge $224 $83 $136 $225 $226 forward $67 $-1 #
edge $227 $228 -16.999999999999893 $86 14.999999999999609 $128 $229 forward 7 unknown #
convexity-sys-attrib $-1 $230 $84 $53 #
attrib_hh_vertex_geombuild-attrib_entity_geombuild-individual_entity_attribute-attrib_HH-attrib $-1 $-1 $-1 $85 F #
point $-1 -35 -44.999999999999908 49.999999999999964 #
attrib_hh_vertex_geombuild-attrib_entity_geombuild-individual_entity_attribute-attrib_HH-attrib $-1 $-1 $-1 $86 F #
point $-1 15 -44.999999999999908 49.999999999999964 #
model_id-kcp-attrib $-1 $-1 $-1 $89 1 1017635106 70 -1857683454 4 #
face $231 $232 $233 $17 $-1 $234 reversed single #
loop $-1 $-1 $235 $89 #
plane-surface $-1 -25 0 0 1 0 0 0 0 -1 forward_v I I I I #
coedge $-1 $236 $158 $237 $238 forward $90 $-1 #
coedge $-1 $239 $92 $236 $240 forward $56 $-1 #
coedge $-1 $92 $239 $241 $242 forward $56 $-1 #
coedge $-1 $161 $160 $92 $154 reversed $162 $-1 #
edge $-1 $243 -12.500000000000211 $244 12.500000000000211 $153 $245 forward 7 unknown #
coedge $-1 $94 $93 $246 $247 forward $36 $-1 #
coedge $-1 $248 $249 $93 $157 reversed $233 $-1 #
edge $-1 $164 -25 $250 25 $156 $251 forward 7 unknown #
coedge $-1 $150 $252 $94 $159 reversed $90 $-1 #
edge $-1 $253 -25 $163 25 $158 $254 forward 7 unknown #
coedge $-1 $153 $95 $252 $255 forward $162 $-1 #
coedge $-1 $95 $153 $248 $256 reversed $162 $-1 #
loop $-1 $-1 $160 $232 #
vertex $-1 $96 $257 #
vertex $-1 $96 $258 #
straight-curve $-1 25 0 17.49999999999989 0 1 0 I I #
face $-1 $-1 $259 $19 $-1 $260 reversed single #
loop $-1 $-1 $261 $97 #
plane-surface $-1 0 0 -17.49999999999989 0 0 1 1 0 0 forward_v I I I I #
coedge $-1 $262 $263 $102 $175 reversed $98 $-1 #
coedge $-1 $171 $100 $263 $264 forward $60 $-1 #
coedge $-1 $100 $170 $265 $266 forward $60 $-1 #
coedge $-1 $102 $101 $261 $267 reversed $39 $-1 #
coedge $-1 $265 $268 $101 $174 forward $259 $-1 #
edge $-1 $269 -34.999999999999716 $176 6.7501559897209518e-014 $173 $270 forward 7 unknown #
edge $-1 $271 -34.999999999999716 $177 6.7501559897209518e-014 $169 $272 forward 7 unknown #
vertex $-1 $103 $273 #
vertex $-1 $264 $274 #
ellipse-curve $-1 22 9.5000000000000071 17.49999999999989 0 0 -1 3 1.7763568394002505e-015 0 1 I I #
aggregate_stitch_attribute-aggregate_stitch_base_attribute-aggregate_body_attribute-attrib_HH-attrib $-1 $275 $104 $0 F #
attrib_hh_face_geombuild-attrib_entity_geombuild-individual_entity_attribute-attrib_HH-attrib $-1 $-1 $106 $66 F #
model_id-kcp-attrib $-1 $276 $-1 $107 1 1017635106 70 -1857683455 7 #
face $277 $278 $194 $8 $-1 $279 forward single #
loop $-1 $-1 $219 $107 #
plane-surface $-1 -5 -39.999999999999659 15.000000000000298 0 6.9829626776862699e-015 -1 -1 0 0 reverse_v I I I I #
attrib_hh_coedge_geombuild-attrib_entity_geombuild-individual_entity_attribute-attrib_HH-attrib $-1 $-1 $-1 $111 F #
coedge $280 $188 $111 $281 $282 forward $46 $-1 #
attrib_hh_coedge_geombuild-attrib_entity_geombuild-individual_entity_attribute-attrib_HH-attrib $-1 $-1 $-1 $112 F #
coedge $283 $112 $186 $284 $285 forward $46 $-1 #
attrib_hh_coedge_geombuild-attrib_entity_geombuild-individual_entity_attribute-attrib_HH-attrib $-1 $-1 $-1 $114 F #
coedge $286 $287 $281 $114 $191 reversed $288 $-1 #
edge $289 $196 -27 $199 20 $114 $290 forward 7 unknown #
attrib_hh_coedge_geombuild-attrib_entity_geombuild-individual_entity_attribute-attrib_HH-attrib $-1 $-1 $-1 $115 F #
coedge $291 $115 $207 $292 $293 forward $194 $-1 #
loop $-1 $-1 $125 $182 #
attrib_edge_convexity-kcp-attrib $-1 $294 $-1 $116 3 #
vertex $295 $116 $296 #
straight-curve $-1 12 -19.999999999999812 65.000000000000441 0 6.9829626776862699e-015 -1 I I #
attrib_edge_convexity-kcp-attrib $-1 $297 $-1 $118 1 #
vertex $298 $282 $299 #
straight-curve $-1 -35 -19.999999999999801 35.000000000000441 0 -6.9829626776862699e-015 1 I I #
convexity-sys-attrib $-1 $300 $120 $74 #
attrib_hh_vertex_geombuild-attrib_entity_geombuild-individual_entity_attribute-attrib_HH-attrib $-1 $-1 $-1 $121 F #
point $-1 12 -19.999999999999705 50.000000000000043 #
attrib_hh_vertex_geombuild-attrib_entity_geombuild-individual_entity_attribute-attrib_HH-attrib $-1 $-1 $-1 $122 F #
point $-1 -35 -19.999999999999904 50.000000000000043 #
attrib_hh_coedge_geombuild-attrib_entity_geombuild-individual_entity_attribute-attrib_HH-attrib $-1 $-1 $-1 $125 F #
coedge $301 $193 $125 $129 $213 reversed $194 $-1 #
attrib_edge_convexity-kcp-attrib $-1 $302 $-1 $126 1 #
ellipse-curve $-1 12 -22.999999999999904 49.999999999999815 0 0 1 2.1213203435596402 2.1213203435596402 1.4813100786493583e-014 1 I I #
attrib_hh_coedge_geombuild-attrib_entity_geombuild-individual_entity_attribute-attrib_HH-attrib $-1 $-1 $-1 $128 F #
coedge $303 $129 $128 $304 $305 forward $108 $-1 #
attrib_hh_coedge_geombuild-attrib_entity_geombuild-individual_entity_attribute-attrib_HH-attrib $-1 $-1 $-1 $129 F #
edge $306 $307 -17.000000000000004 $131 14.999999999999595 $129 $308 forward 7 unknown #
convexity-sys-attrib $-1 $309 $130 $78 #
attrib_hh_vertex_geombuild-attrib_entity_geombuild-individual_entity_attribute-attrib_HH-attrib $-1 $-1 $-1 $131 F #
point $-1 15 -22.999999999999904 50.000000000000014 #
convexity-sys-attrib $-1 $310 $133 $80 #
attrib_hh_coedge_geombuild-attrib_entity_geombuild-individual_entity_attribute-attrib_HH-attrib $-1 $-1 $-1 $136 F #
coedge $311 $284 $312 $136 $220 reversed $183 $-1 #
edge $313 $222 -35 $314 12 $219 $315 forward 7 unknown #
attrib_edge_convexity-kcp-attrib $-1 $316 $-1 $137 1 #
vertex $317 $285 $318 #
straight-curve $-1 -35 -44.999999999999801 35.000000000000355 0 6.9829626776862699e-015 -1 I I #
attrib_hh_coedge_geombuild-attrib_entity_geombuild-individual_entity_attribute-attrib_HH-attrib $-1 $-1 $-1 $139 F #
coedge $319 $320 $304 $139 $226 reversed $321 $-1 #
edge $322 $314 -0.78539816339744828 $228 0.78539816339751456 $225 $323 forward 7 unknown #
attrib_hh_edge_geombuild-attrib_entity_geombuild-individual_entity_attribute-attrib_HH-attrib $-1 $-1 $-1 $140 F #
vertex $324 $226 $325 #
straight-curve $-1 15 -44.999999999999801 35.000000000000355 0 -6.9829626776862699e-015 1 I I #
attrib_hh_edge_geombuild-attrib_entity_geombuild-individual_entity_attribute-attrib_HH-attrib $-1 $-1 $141 $53 F #
model_id-kcp-attrib $-1 $-1 $-1 $147 1 1017635106 70 -1857683454 3 #
face $326 $-1 $162 $17 $-1 $327 reversed single #
loop $-1 $-1 $248 $147 #
plane-surface $-1 0 12.500000000000211 0 0 -1 0 0 0 -1 forward_v I I I I #
coedge $-1 $328 $246 $249 $329 forward $148 $-1 #
coedge $-1 $252 $150 $151 $240 reversed $90 $-1 #
coedge $-1 $246 $328 $150 $238 reversed $148 $-1 #
edge $-1 $253 -17.49999999999989 $330 17.49999999999989 $237 $331 forward 7 unknown #
coedge $-1 $152 $151 $328 $332 forward $56 $-1 #
edge $-1 $244 -25 $330 25 $236 $333 forward 7 unknown #
coedge $-1 $249 $248 $152 $242 reversed $233 $-1 #
edge $-1 $334 -25 $243 25 $241 $335 forward 7 unknown #
vertex $-1 $154 $336 #
vertex $-1 $255 $337 #
straight-curve $-1 25 0 -17.49999999999989 0 -1 0 I I #
coedge $-1 $235 $237 $155 $247 reversed $148 $-1 #
edge $-1 $250 -12.500000000000211 $253 12.500000000000211 $246 $338 forward 7 unknown #
coedge $-1 $241 $156 $161 $256 forward $233 $-1 #
coedge $-1 $156 $241 $235 $329 reversed $233 $-1 #
vertex $-1 $157 $339 #
straight-curve $-1 0 12.500000000000211 17.49999999999989 -1 0 0 I I #
coedge $-1 $158 $236 $160 $255 reversed $90 $-1 #
vertex $-1 $247 $340 #
straight-curve $-1 0 -12.500000000000211 17.49999999999989 1 0 0 I I #
edge $-1 $163 -17.49999999999989 $244 17.49999999999989 $160 $341 forward 7 unknown #
edge $-1 $164 -17.49999999999989 $243 17.49999999999989 $161 $342 forward 7 unknown #
point $-1 25 -12.500000000000211 17.49999999999989 #
point $-1 25 12.500000000000211 17.49999999999989 #
loop $-1 $-1 $173 $166 #
plane-surface $-1 0 12.500000000000211 0 0 -1 0 0 0 -1 forward_v I I I I #
coedge $-1 $343 $344 $172 $267 forward $167 $-1 #
coedge $-1 $345 $169 $344 $346 reversed $98 $-1 #
coedge $-1 $169 $345 $170 $264 reversed $98 $-1 #
edge $-1 $177 9.5000000000000107 $347 12.500000000000211 $263 $348 forward 7 unknown #
coedge $-1 $349 $173 $171 $266 reversed $259 $-1 #
edge $-1 $347 -25 $176 -22 $265 $350 forward 7 unknown #
edge $-1 $271 5.9211894646675012e-016 $269 1.5707963267948961 $261 $351 forward 7 unknown #
coedge $-1 $173 $349 $343 $352 reversed $259 $-1 #
vertex $-1 $352 $353 #
straight-curve $-1 22 12.500000000000211 17.499999999999822 0 0 1 I I #
vertex $-1 $175 $354 #
straight-curve $-1 25 9.5000000000000071 17.499999999999822 0 0 1 I I #
point $-1 22 12.500000000000011 17.49999999999989 #
point $-1 25 9.5000000000000107 17.49999999999989 #
aggregate_simgeom_attribute-aggregate_simgeom_base_attribute-aggregate_body_attribute-attrib_HH-attrib $-1 $-1 $179 $0 F #
attrib_hh_face_geombuild-attrib_entity_geombuild-individual_entity_attribute-attrib_HH-attrib $-1 $-1 $181 $107 F #
model_id-kcp-attrib $-1 $355 $-1 $182 1 1017635106 70 -1857683455 8 #
face $356 $357 $321 $8 $-1 $358 forward single #
cone-surface $-1 12 -22.999999999999812 36.500000000000419 0 6.9829626776862699e-015 -1 2.1213203435596402 2.1213203435596402 1.4813100786493583e-014 1 I I 0 1 2.9999999999999964 reversed I I I I #
attrib_hh_coedge_geombuild-attrib_entity_geombuild-individual_entity_attribute-attrib_HH-attrib $-1 $-1 $-1 $186 F #
coedge $359 $190 $360 $186 $282 reversed $288 $-1 #
edge $361 $199 -0.78539816339744839 $362 0.78539816339744817 $186 $363 forward 7 unknown #
attrib_hh_coedge_geombuild-attrib_entity_geombuild-individual_entity_attribute-attrib_HH-attrib $-1 $-1 $-1 $188 F #
coedge $364 $365 $219 $188 $285 reversed $183 $-1 #
edge $366 $362 -16.999999999999996 $222 5.0000000000000711 $188 $367 forward 7 unknown #
attrib_hh_coedge_geombuild-attrib_entity_geombuild-individual_entity_attribute-attrib_HH-attrib $-1 $-1 $-1 $190 F #
coedge $368 $360 $190 $369 $370 reversed $288 $-1 #
loop $-1 $-1 $190 $371 #
model_id-kcp-attrib $-1 $372 $-1 $191 1 1017635106 70 -1857683455 14 #
straight-curve $-1 -15 -19.999999999999684 18.000000000000437 -1 0 0 I I #
attrib_hh_coedge_geombuild-attrib_entity_geombuild-individual_entity_attribute-attrib_HH-attrib $-1 $-1 $-1 $193 F #
coedge $373 $374 $369 $193 $293 reversed $375 $-1 #
edge $376 $307 -0.78539816339744828 $196 0.78539816339744828 $292 $377 forward 7 unknown #
convexity-sys-attrib $-1 $378 $195 $116 #
attrib_hh_vertex_geombuild-attrib_entity_geombuild-individual_entity_attribute-attrib_HH-attrib $-1 $-1 $-1 $196 F #
point $-1 12 -19.999999999999684 18.000000000000437 #
convexity-sys-attrib $-1 $379 $198 $118 #
attrib_hh_vertex_geombuild-attrib_entity_geombuild-individual_entity_attribute-attrib_HH-attrib $-1 $-1 $-1 $199 F #
point $-1 -35 -19.999999999999684 18.000000000000437 #
attrib_hh_edge_geombuild-attrib_entity_geombuild-individual_entity_attribute-attrib_HH-attrib $-1 $-1 $201 $74 F #
attrib_hh_coedge_geombuild-attrib_entity_geombuild-individual_entity_attribute-attrib_HH-attrib $-1 $-1 $-1 $207 F #
convexity-sys-attrib $-1 $380 $208 $126 #
attrib_hh_coedge_geombuild-attrib_entity_geombuild-individual_entity_attribute-attrib_HH-attrib $-1 $-1 $-1 $211 F #
coedge $381 $225 $382 $211 $305 reversed $321 $-1 #
edge $383 $228 -5 $307 16.999999999999996 $211 $384 forward 7 unknown #
attrib_hh_edge_geombuild-attrib_entity_geombuild-individual_entity_attribute-attrib_HH-attrib $-1 $-1 $-1 $213 F #
vertex $385 $305 $386 #
straight-curve $-1 15 -22.999999999999801 35.000000000000419 0 -6.9829626776862699e-015 1 I I #
attrib_hh_edge_geombuild-attrib_entity_geombuild-individual_entity_attribute-attrib_HH-attrib $-1 $-1 $214 $78 F #
attrib_hh_edge_geombuild-attrib_entity_geombuild-individual_entity_attribute-attrib_HH-attrib $-1 $-1 $217 $80 F #
attrib_hh_coedge_geombuild-attrib_entity_geombuild-individual_entity_attribute-attrib_HH-attrib $-1 $-1 $-1 $219 F #
coedge $387 $219 $365 $320 $388 forward $183 $-1 #
model_id-kcp-attrib $-1 $389 $-1 $220 1 1017635106 70 -1857683455 17 #
vertex $390 $388 $391 #
straight-curve $-1 0 -44.99999999999973 15.000000000000263 1 0 0 I I #
convexity-sys-attrib $-1 $392 $221 $137 #
attrib_hh_vertex_geombuild-attrib_entity_geombuild-individual_entity_attribute-attrib_HH-attrib $-1 $-1 $-1 $222 F #
point $-1 -35 -44.99999999999973 15.000000000000263 #
attrib_hh_coedge_geombuild-attrib_entity_geombuild-individual_entity_attribute-attrib_HH-attrib $-1 $-1 $-1 $225 F #
coedge $393 $382 $225 $312 $388 reversed $321 $-1 #
loop $-1 $-1 $225 $278 #
model_id-kcp-attrib $-1 $394 $-1 $226 1 1017635106 70 -1857683455 18 #
ellipse-curve $-1 12 -44.999999999999751 18.000000000000263 0 -1 -6.9829626776862699e-015 2.1213203435596402 1.4813100786493583e-014 -2.1213203435596402 1 I I #
attrib_hh_vertex_geombuild-attrib_entity_geombuild-individual_entity_attribute-attrib_HH-attrib $-1 $-1 $-1 $228 F #
point $-1 15 -44.99999999999968 18.000000000000462 #
model_id-kcp-attrib $-1 $-1 $-1 $232 1 1017635106 70 -1857683454 6 #
plane-surface $-1 25 0 0 -1 0 0 0 0 1 forward_v I I I I #
coedge $-1 $237 $235 $239 $332 reversed $148 $-1 #
edge $-1 $250 -17.49999999999989 $334 17.49999999999989 $249 $395 forward 7 unknown #
vertex $-1 $332 $396 #
straight-curve $-1 -25 -12.500000000000211 0 0 0 -1 I I #
edge $-1 $330 -12.500000000000211 $334 12.500000000000211 $328 $397 forward 7 unknown #
straight-curve $-1 0 -12.500000000000211 -17.49999999999989 -1 0 0 I I #
vertex $-1 $242 $398 #
straight-curve $-1 0 12.500000000000211 -17.49999999999989 1 0 0 I I #
point $-1 25 12.500000000000211 -17.49999999999989 #
point $-1 25 -12.500000000000211 -17.49999999999989 #
straight-curve $-1 -25 0 17.49999999999989 0 -1 0 I I #
point $-1 -25 12.500000000000211 17.49999999999989 #
point $-1 -25 -12.500000000000211 17.49999999999989 #
straight-curve $-1 25 -12.500000000000211 0 0 0 -1 I I #
straight-curve $-1 25 12.500000000000211 0 0 0 -1 I I #
coedge $-1 $344 $261 $268 $352 forward $167 $-1 #
coedge $-1 $261 $343 $262 $346 forward $167 $-1 #
coedge $-1 $263 $262 $349 $399 reversed $98 $-1 #
edge $-1 $400 -12.500000000000211 $271 -9.5000000000000107 $262 $401 forward 7 unknown #
vertex $-1 $264 $402 #
straight-curve $-1 25 0 17.49999999999989 0 1 0 I I #
coedge $-1 $268 $265 $345 $399 forward $259 $-1 #
straight-curve $-1 0 12.500000000000211 17.49999999999989 -1 0 0 I I #
ellipse-curve $-1 22 9.5000000000000071 -17.499999999999893 0 0 1 3 1.7763568394002505e-015 0 1 I I #
edge $-1 $269 22 $400 25 $268 $403 forward 7 unknown #
point $-1 22 12.500000000000011 -17.499999999999893 #
point $-1 25 9.5000000000000107 -17.499999999999893 #
attrib_hh_face_geombuild-attrib_entity_geombuild-individual_entity_attribute-attrib_HH-attrib $-1 $-1 $277 $182 F #
model_id-kcp-attrib $-1 $404 $-1 $278 1 1017635106 70 -1857683455 9 #
face $405 $371 $375 $8 $-1 $406 forward single #
cone-surface $-1 12 -39.99999999999968 18.000000000000298 0 -1 -6.9829626776862699e-015 2.1213203435596402 1.4813100786493583e-014 -2.1213203435596402 1 I I 0 1 2.9999999999999964 reversed I I I I #
attrib_hh_coedge_geombuild-attrib_entity_geombuild-individual_entity_attribute-attrib_HH-attrib $-1 $-1 $-1 $281 F #
coedge $407 $281 $287 $365 $408 forward $288 $-1 #
model_id-kcp-attrib $-1 $409 $-1 $282 1 1017635106 70 -1857683455 15 #
vertex $410 $408 $411 #
ellipse-curve $-1 -35 -22.999999999999684 18.000000000000416 -1 0 0 0 2.1213203435596548 -2.1213203435596255 1 I I #
attrib_hh_coedge_geombuild-attrib_entity_geombuild-individual_entity_attribute-attrib_HH-attrib $-1 $-1 $-1 $284 F #
coedge $412 $312 $284 $360 $408 reversed $183 $-1 #
model_id-kcp-attrib $-1 $413 $-1 $285 1 1017635106 70 -1857683455 16 #
straight-curve $-1 -35 -39.999999999999659 15.000000000000298 0 -1 -6.9829626776862699e-015 I I #
attrib_hh_coedge_geombuild-attrib_entity_geombuild-individual_entity_attribute-attrib_HH-attrib $-1 $-1 $-1 $287 F #
coedge $414 $292 $374 $287 $370 forward $375 $-1 #
edge $415 $416 -0.78539816339744817 $196 0.78539816339744839 $287 $417 forward 7 unknown #
face $418 $-1 $288 $8 $-1 $419 forward single #
attrib_edge_convexity-kcp-attrib $-1 $420 $289 $191 3 #
attrib_hh_coedge_geombuild-attrib_entity_geombuild-individual_entity_attribute-attrib_HH-attrib $-1 $-1 $-1 $292 F #
coedge $421 $369 $292 $382 $422 reversed $375 $-1 #
loop $-1 $-1 $292 $357 #
attrib_hh_edge_geombuild-attrib_entity_geombuild-individual_entity_attribute-attrib_HH-attrib $-1 $-1 $-1 $293 F #
ellipse-curve $-1 12 -22.999999999999684 18.000000000000416 0 -6.9829626776862699e-015 1 2.1213203435596402 2.1213203435596402 1.4813100786493583e-014 1 I I #
attrib_hh_edge_geombuild-attrib_entity_geombuild-individual_entity_attribute-attrib_HH-attrib $-1 $-1 $294 $116 F #
attrib_hh_edge_geombuild-attrib_entity_geombuild-individual_entity_attribute-attrib_HH-attrib $-1 $-1 $297 $118 F #
attrib_hh_edge_geombuild-attrib_entity_geombuild-individual_entity_attribute-attrib_HH-attrib $-1 $-1 $302 $126 F #
attrib_hh_coedge_geombuild-attrib_entity_geombuild-individual_entity_attribute-attrib_HH-attrib $-1 $-1 $-1 $304 F #
coedge $423 $304 $320 $374 $422 forward $321 $-1 #
model_id-kcp-attrib $-1 $424 $-1 $305 1 1017635106 70 -1857683455 13 #
straight-curve $-1 15 -39.99999999999968 18.000000000000298 0 1 6.9829626776862699e-015 I I #
attrib_hh_vertex_geombuild-attrib_entity_geombuild-individual_entity_attribute-attrib_HH-attrib $-1 $-1 $-1 $307 F #
point $-1 15 -22.999999999999684 18.000000000000416 #
attrib_hh_coedge_geombuild-attrib_entity_geombuild-individual_entity_attribute-attrib_HH-attrib $-1 $-1 $-1 $312 F #
edge $425 $416 -16.999999999999996 $314 5.0000000000000711 $312 $426 forward 7 unknown #
attrib_hh_edge_geombuild-attrib_entity_geombuild-individual_entity_attribute-attrib_HH-attrib $-1 $-1 $313 $220 F #
attrib_hh_vertex_geombuild-attrib_entity_geombuild-individual_entity_attribute-attrib_HH-attrib $-1 $-1 $-1 $314 F #
point $-1 12 -44.99999999999973 15.000000000000263 #
attrib_hh_edge_geombuild-attrib_entity_geombuild-individual_entity_attribute-attrib_HH-attrib $-1 $-1 $316 $137 F #
attrib_hh_coedge_geombuild-attrib_entity_geombuild-individual_entity_attribute-attrib_HH-attrib $-1 $-1 $-1 $320 F #
attrib_hh_edge_geombuild-attrib_entity_geombuild-individual_entity_attribute-attrib_HH-attrib $-1 $-1 $322 $226 F #
straight-curve $-1 -25 12.500000000000211 0 0 0 -1 I I #
point $-1 -25 -12.500000000000211 -17.49999999999989 #
straight-curve $-1 -25 0 -17.49999999999989 0 1 0 I I #
point $-1 -25 12.500000000000211 -17.49999999999989 #
edge $-1 $347 -17.49999999999989 $400 17.49999999999989 $345 $427 forward 7 unknown #
vertex $-1 $346 $428 #
straight-curve $-1 25 0 -17.49999999999989 0 -1 0 I I #
point $-1 25 12.500000000000211 17.49999999999989 #
straight-curve $-1 0 12.500000000000211 -17.49999999999989 1 0 0 I I #
attrib_hh_face_geombuild-attrib_entity_geombuild-individual_entity_attribute-attrib_HH-attrib $-1 $-1 $356 $278 F #
model_id-kcp-attrib $-1 $429 $-1 $357 1 1017635106 70 -1857683455 10 #
sphere-surface $-1 12 -22.999999999999684 18.000000000000416 3 -1 0 0 0 6.9829626776862699e-015 -1 reverse_v I I I I #
attrib_hh_coedge_geombuild-attrib_entity_geombuild-individual_entity_attribute-attrib_HH-attrib $-1 $-1 $-1 $360 F #
edge $430 $416 -17 $362 30 $365 $431 reversed 7 unknown #
attrib_edge_convexity-kcp-attrib $-1 $432 $361 $282 1 #
attrib_hh_vertex_geombuild-attrib_entity_geombuild-individual_entity_attribute-attrib_HH-attrib $-1 $-1 $-1 $362 F #
point $-1 -35 -22.999999999999662 15.000000000000416 #
attrib_hh_coedge_geombuild-attrib_entity_geombuild-individual_entity_attribute-attrib_HH-attrib $-1 $-1 $-1 $365 F #
attrib_edge_convexity-kcp-attrib $-1 $433 $366 $285 1 #
attrib_hh_coedge_geombuild-attrib_entity_geombuild-individual_entity_attribute-attrib_HH-attrib $-1 $-1 $-1 $369 F #
attrib_hh_edge_geombuild-attrib_entity_geombuild-individual_entity_attribute-attrib_HH-attrib $-1 $-1 $-1 $370 F #
vertex $434 $422 $435 #
ellipse-curve $-1 12 -22.999999999999684 18.000000000000416 1 0 0 0 2.1213203435596548 -2.1213203435596255 1 I I #
model_id-kcp-attrib $-1 $436 $-1 $371 1 1017635106 70 -1857683455 11 #
cone-surface $-1 -6.5 -22.999999999999684 18.000000000000416 1 0 0 0 2.1213203435596548 -2.1213203435596255 1 I I 0 1 2.9999999999999964 reversed I I I I #
convexity-sys-attrib $-1 $437 $372 $191 #
attrib_hh_coedge_geombuild-attrib_entity_geombuild-individual_entity_attribute-attrib_HH-attrib $-1 $-1 $-1 $374 F #
edge $438 $416 -0.78539816339744828 $307 0.78539816339744828 $382 $439 forward 7 unknown #
attrib_hh_coedge_geombuild-attrib_entity_geombuild-individual_entity_attribute-attrib_HH-attrib $-1 $-1 $-1 $382 F #
attrib_hh_edge_geombuild-attrib_entity_geombuild-individual_entity_attribute-attrib_HH-attrib $-1 $-1 $383 $305 F #
attrib_hh_edge_geombuild-attrib_entity_geombuild-individual_entity_attribute-attrib_HH-attrib $-1 $-1 $-1 $388 F #
straight-curve $-1 12 -39.999999999999659 15.000000000000298 0 -1 -6.9829626776862699e-015 I I #
straight-curve $-1 25 12.500000000000211 0 0 0 -1 I I #
point $-1 25 12.500000000000211 -17.49999999999989 #
attrib_hh_face_geombuild-attrib_entity_geombuild-individual_entity_attribute-attrib_HH-attrib $-1 $-1 $405 $357 F #
attrib_hh_edge_geombuild-attrib_entity_geombuild-individual_entity_attribute-attrib_HH-attrib $-1 $-1 $-1 $408 F #
straight-curve $-1 -5 -22.999999999999662 15.000000000000416 1 0 0 I I #
convexity-sys-attrib $-1 $440 $409 $282 #
convexity-sys-attrib $-1 $441 $413 $285 #
attrib_hh_vertex_geombuild-attrib_entity_geombuild-individual_entity_attribute-attrib_HH-attrib $-1 $-1 $-1 $416 F #
point $-1 12 -22.999999999999662 15.000000000000416 #
attrib_hh_face_geombuild-attrib_entity_geombuild-individual_entity_attribute-attrib_HH-attrib $-1 $-1 $418 $371 F #
attrib_hh_edge_geombuild-attrib_entity_geombuild-individual_entity_attribute-attrib_HH-attrib $-1 $-1 $420 $191 F #
attrib_hh_edge_geombuild-attrib_entity_geombuild-individual_entity_attribute-attrib_HH-attrib $-1 $-1 $-1 $422 F #
ellipse-curve $-1 12 -22.999999999999684 18.000000000000416 0 -1 -6.9829626776862699e-015 2.1213203435596402 1.4813100786493583e-014 -2.1213203435596402 1 I I #
attrib_hh_edge_geombuild-attrib_entity_geombuild-individual_entity_attribute-attrib_HH-attrib $-1 $-1 $432 $282 F #
attrib_hh_edge_geombuild-attrib_entity_geombuild-individual_entity_attribute-attrib_HH-attrib $-1 $-1 $433 $285 F #
End-of-ACIS-data 