105 144 1 0                             
body $-1 $1 $-1 $2 #
lump $-1 $-1 $3 $0 #
transform $-1 -1 0 0 0 -1 -6.98296267768627e-15 0 6.98296267768627e-15 -1 -5 -39.9999999999998 35.0000000000003 1 1 1 0 #
shell $-1 $-1 $-1 $4 $1 #
face $-1 $5 $6 $3 $-1 $7 forward single #
face $-1 $8 $9 $3 $-1 $10 reversed single #
loop $-1 $-1 $11 $4 #
plane-surface $-1 -5 -39.9999999999999 -14.9999999999994 0 -6.98296267768627e-15 -1 -1 0 0 1 #
face $-1 $12 $13 $3 $-1 $14 reversed single #
loop $-1 $-1 $15 $5 #
plane-surface $-1 0 -20 0 0 1 -0 -0 0 1 0 #
coedge $-1 $16 $17 $18 $19 1 $6 $-1 #
face $-1 $20 $21 $3 $-1 $22 forward single #
loop $-1 $-1 $23 $8 #
plane-surface $-1 30 0 0 -1 0 0 0 0 1 0 #
coedge $-1 $24 $25 $26 $27 0 $9 $-1 #
coedge $-1 $26 $11 $23 $28 1 $6 $-1 #
coedge $-1 $11 $29 $30 $31 1 $6 $-1 #
coedge $-1 $32 $33 $11 $19 0 $21 $-1 #
edge $-1 $34 $35 $18 $36 0 #
face $-1 $37 $38 $3 $-1 $39 reversed single #
loop $-1 $-1 $18 $12 #
plane-surface $-1 -10 5 -1.77635683940025e-13 0 1 0 0 0 1 0 #
coedge $-1 $40 $41 $16 $28 0 $13 $-1 #
coedge $-1 $42 $15 $41 $43 1 $9 $-1 #
coedge $-1 $15 $42 $44 $45 1 $9 $-1 #
coedge $-1 $29 $16 $15 $27 1 $6 $-1 #
edge $-1 $46 $47 $15 $48 0 #
edge $-1 $47 $34 $23 $49 0 #
coedge $-1 $17 $26 $50 $51 1 $6 $-1 #
coedge $-1 $52 $53 $17 $31 0 $38 $-1 #
edge $-1 $35 $54 $30 $55 0 #
coedge $-1 $56 $18 $53 $57 1 $21 $-1 #
coedge $-1 $18 $58 $40 $59 0 $21 $-1 #
vertex $-1 $59 $60 #
vertex $-1 $57 $61 #
straight-curve $-1 -7.5 5 -14.9999999999997 -1 0 -0 #
face $-1 $62 $63 $3 $-1 $64 forward single #
loop $-1 $-1 $30 $20 #
plane-surface $-1 -20 0 0 1 0 0 0 0 -1 0 #
coedge $-1 $65 $23 $33 $59 1 $13 $-1 #
coedge $-1 $23 $66 $24 $43 0 $13 $-1 #
coedge $-1 $25 $24 $67 $68 1 $9 $-1 #
edge $-1 $69 $47 $41 $70 0 #
coedge $-1 $71 $50 $25 $45 0 $72 $-1 #
edge $-1 $46 $73 $25 $74 0 #
vertex $-1 $27 $75 #
vertex $-1 $43 $76 #
straight-curve $-1 -2.5 -20 -14.9999999999996 1 0 0 #
straight-curve $-1 30 -20 -14.9999999999996 0 1 -6.98296267768627e-15 #
coedge $-1 $44 $77 $29 $51 0 $72 $-1 #
edge $-1 $54 $46 $50 $78 0 #
coedge $-1 $79 $30 $77 $80 1 $38 $-1 #
coedge $-1 $30 $79 $32 $57 0 $38 $-1 #
vertex $-1 $80 $81 #
straight-curve $-1 -20 -20 -14.9999999999996 0 -1 6.98296267768627e-15 #
coedge $-1 $58 $32 $82 $83 1 $21 $-1 #
edge $-1 $84 $35 $53 $85 0 #
coedge $-1 $33 $56 $86 $87 1 $21 $-1 #
edge $-1 $88 $34 $40 $89 1 #
point $-1 30 5 -14.9999999999997 #
point $-1 -20 5 -14.9999999999997 #
face $-1 $90 $72 $3 $-1 $91 forward single #
loop $-1 $-1 $86 $37 #
plane-surface $-1 0 0 20 0 0 1 1 0 0 0 #
coedge $-1 $66 $40 $92 $93 1 $13 $-1 #
coedge $-1 $41 $65 $94 $95 1 $13 $-1 #
coedge $-1 $94 $96 $42 $68 0 $97 $-1 #
edge $-1 $73 $69 $42 $98 0 #
vertex $-1 $95 $99 #
straight-curve $-1 30 -20 0 0 0 -1 #
coedge $-1 $77 $44 $100 $101 1 $72 $-1 #
loop $-1 $-1 $50 $62 #
vertex $-1 $45 $102 #
straight-curve $-1 -17 -20.0000000000002 -30 0 0 1 #
point $-1 -17 -20.0000000000002 -14.9999999999996 #
point $-1 30 -20 -14.9999999999996 #
coedge $-1 $50 $71 $52 $80 0 $72 $-1 #
ellipse-curve $-1 -17 -17 -14.9999999999994 -0 6.98296267768627e-15 1 -2.12132034355964 -2.12132034355964 0 1 #
coedge $-1 $53 $52 $103 $104 1 $38 $-1 #
edge $-1 $105 $54 $52 $106 0 #
point $-1 -20 -17 -14.9999999999996 #
coedge $-1 $103 $107 $56 $83 0 $108 $-1 #
edge $-1 $109 $84 $82 $110 0 #
vertex $-1 $83 $111 #
straight-curve $-1 -20 5 -8.88178419700125e-14 0 0 -1 #
coedge $-1 $112 $92 $58 $87 0 $63 $-1 #
edge $-1 $88 $109 $86 $113 0 #
vertex $-1 $93 $114 #
straight-curve $-1 30 5 -8.88178419700125e-14 0 -0 1 #
face $-1 $115 $108 $3 $-1 $116 forward single #
cone-surface $-1 -17 -17 -1.5 0 0 -1 -2.12132034355964 -2.12132034355964 0 1 0 1 0 #
coedge $-1 $86 $117 $65 $93 0 $63 $-1 #
edge $-1 $118 $88 $65 $119 0 #
coedge $-1 $120 $67 $66 $95 0 $97 $-1 #
edge $-1 $69 $118 $66 $121 0 #
coedge $-1 $67 $120 $122 $123 0 $97 $-1 #
loop $-1 $-1 $67 $124 #
straight-curve $-1 10 -20 17 1 0 0 #
point $-1 30 -20 17 #
coedge $-1 $122 $125 $71 $101 0 $126 $-1 #
edge $-1 $105 $73 $100 $127 0 #
point $-1 -17 -20 17 #
coedge $-1 $128 $82 $79 $104 0 $108 $-1 #
edge $-1 $84 $105 $79 $129 0 #
vertex $-1 $104 $130 #
straight-curve $-1 -20 -17 0 0 0 -1 #
coedge $-1 $82 $128 $112 $131 0 $108 $-1 #
loop $-1 $-1 $82 $90 #
vertex $-1 $131 $132 #
ellipse-curve $-1 -17 5.00000000000007 17 -0 -1 -0 -2.12132034355964 0 2.12132034355964 1 #
point $-1 -20 5 16.9999999999998 #
coedge $-1 $117 $86 $107 $131 1 $63 $-1 #
straight-curve $-1 -5 5.00000000000007 20 -1 0 0 #
point $-1 30 5.00000000000007 20 #
face $-1 $124 $126 $3 $-1 $133 forward single #
cone-surface $-1 -17 0 17 0 -1 0 -2.12132034355964 0 2.12132034355964 1 0 1 0 #
coedge $-1 $92 $112 $120 $134 0 $63 $-1 #
vertex $-1 $134 $135 #
straight-curve $-1 30 0 20 0 1 0 #
coedge $-1 $96 $94 $117 $134 1 $97 $-1 #
ellipse-curve $-1 30 -17 17 -1 0 0 0 -2.12132034355964 2.12132034355964 1 #
coedge $-1 $125 $100 $96 $123 1 $126 $-1 #
edge $-1 $136 $73 $96 $137 0 #
face $-1 $-1 $97 $3 $-1 $138 forward single #
coedge $-1 $100 $122 $128 $139 0 $126 $-1 #
loop $-1 $-1 $100 $115 #
ellipse-curve $-1 -17 -17 17 0 0 1 -2.12132034355964 -2.12132034355964 0 1 #
coedge $-1 $107 $103 $125 $139 1 $108 $-1 #
straight-curve $-1 -20 0 17 0 -1 0 #
point $-1 -20 -17 17 #
edge $-1 $136 $109 $112 $140 0 #
point $-1 -17 5.00000000000007 20 #
sphere-surface $-1 -17 -17 17 3 1 0 0 0 0 1 0 #
edge $-1 $136 $118 $117 $141 1 #
point $-1 30 -17 20 #
vertex $-1 $139 $142 #
ellipse-curve $-1 -17 -17 17 1 0 0 0 -2.12132034355964 2.12132034355964 1 #
cone-surface $-1 1.5 -17 17 1 0 0 0 -2.12132034355964 2.12132034355964 1 0 1 0 #
edge $-1 $136 $105 $128 $143 0 #
straight-curve $-1 -17 0 20 0 1 0 #
straight-curve $-1 0 -17 20 -1 -0 -0 #
point $-1 -17 -17 20 #
ellipse-curve $-1 -17 -17 17 -0 -1 0 -2.12132034355964 0 2.12132034355964 1 #
