600 0 2 0           
24 FBMach with ACIS - 6.0.3 13 ACIS 6.0.3 NT 24 Wed May 23 20:18:33 2001 
1 9.9999999999999995e-007 1e-010 
body $2 $3 $-1 $4 #
bdycol-kcp $-1 1 4 $5 $6 $7 $8 #
model_id-kcp-attrib $-1 $-1 $-1 $0 1 990663513 50 -1640890367 1 #
lump $-1 $-1 $9 $0 #
transform $-1 1 0 0 0 1 0 0 0 1 0 0 0 1 no_rotate no_reflect no_shear #
body $10 $11 $-1 $12 #
body $13 $14 $-1 $15 #
body $16 $17 $-1 $18 #
body $19 $20 $-1 $21 #
shell $-1 $-1 $-1 $22 $-1 $3 #
model_id-kcp-attrib $-1 $-1 $-1 $5 1 990663513 50 -1640890366 1 #
lump $-1 $-1 $23 $5 #
transform $-1 1 0 0 0 1 0 0 0 1 0 0 0 1 no_rotate no_reflect no_shear #
rgb_color-st-attrib $-1 $24 $-1 $6 1 0 0 #
lump $-1 $-1 $25 $6 #
transform $-1 1 0 0 0 1 0 0 0 1 0 0 0 1 no_rotate no_reflect no_shear #
rgb_color-st-attrib $-1 $26 $-1 $7 1 0 0 #
lump $-1 $-1 $27 $7 #
transform $-1 1 0 0 0 1 0 0 0 1 0 0 0 1 no_rotate no_reflect no_shear #
rgb_color-st-attrib $-1 $28 $-1 $8 1 0 0 #
lump $-1 $-1 $29 $8 #
transform $-1 1 0 0 0 1 0 0 0 1 0 0 0 1 no_rotate no_reflect no_shear #
face $30 $31 $32 $9 $-1 $33 forward single #
shell $-1 $-1 $-1 $34 $-1 $11 #
model_id-kcp-attrib $-1 $-1 $13 $6 1 990663513 290 -1641938941 1 #
shell $-1 $-1 $-1 $35 $-1 $14 #
model_id-kcp-attrib $-1 $-1 $16 $7 1 990663513 400 -1634729980 1 #
shell $-1 $-1 $-1 $36 $-1 $17 #
model_id-kcp-attrib $-1 $-1 $19 $8 1 990663513 500 -1628176379 1 #
shell $-1 $-1 $-1 $37 $-1 $20 #
model_id-kcp-attrib $-1 $-1 $-1 $22 1 990663513 50 -1640890367 2 #
face $38 $39 $40 $9 $-1 $41 reversed single #
loop $-1 $-1 $42 $22 #
plane-surface $-1 0 0 10 0 0 1 1 0 0 forward_v I I I I #
face $43 $44 $45 $23 $-1 $46 forward single #
face $-1 $47 $48 $25 $-1 $49 forward single #
face $-1 $50 $51 $27 $-1 $52 forward single #
face $-1 $53 $54 $29 $-1 $55 forward single #
model_id-kcp-attrib $-1 $-1 $-1 $31 1 990663513 50 -1640890367 3 #
face $56 $57 $58 $9 $-1 $59 reversed single #
loop $-1 $-1 $60 $31 #
plane-surface $-1 0 -10 0 0 1 0 0 0 1 forward_v I I I I #
coedge $-1 $61 $62 $63 $64 reversed $32 $-1 #
model_id-kcp-attrib $-1 $-1 $-1 $34 1 990663513 50 -1640890366 2 #
face $65 $66 $67 $23 $-1 $68 reversed single #
loop $-1 $-1 $69 $34 #
plane-surface $-1 0 0 20 0 0 1 1 0 0 forward_v I I I I #
face $-1 $70 $71 $25 $-1 $72 forward single #
loop $-1 $-1 $73 $35 #
plane-surface $-1 -30 10 -10 -1 0 0 0 0 1 forward_v I I I I #
face $-1 $74 $75 $27 $-1 $76 forward single #
loop $-1 $-1 $77 $36 #
plane-surface $-1 30 -30 -10 0 -1 0 0 0 -1 forward_v I I I I #
face $-1 $78 $79 $29 $-1 $80 forward single #
loop $-1 $-1 $81 $37 #
plane-surface $-1 -30 30 10 0 1 0 0 0 1 forward_v I I I I #
model_id-kcp-attrib $-1 $-1 $-1 $39 1 990663513 50 -1640890367 4 #
face $82 $83 $84 $9 $-1 $85 forward single #
loop $-1 $-1 $86 $39 #
plane-surface $-1 0 10 0 0 -1 0 0 0 -1 forward_v I I I I #
coedge $-1 $87 $88 $89 $90 reversed $40 $-1 #
coedge $-1 $91 $42 $88 $92 forward $32 $-1 #
coedge $-1 $42 $91 $93 $94 forward $32 $-1 #
coedge $-1 $95 $89 $42 $64 forward $96 $-1 #
edge $-1 $97 -10 $98 10 $63 $99 forward 7 unknown #
model_id-kcp-attrib $-1 $-1 $-1 $44 1 990663513 50 -1640890366 3 #
face $100 $101 $102 $23 $-1 $103 reversed single #
loop $-1 $-1 $104 $44 #
plane-surface $-1 0 0 -20 0 0 1 1 0 0 forward_v I I I I #
coedge $-1 $105 $106 $107 $108 forward $45 $-1 #
face $-1 $109 $110 $25 $-1 $111 forward single #
loop $-1 $-1 $112 $47 #
plane-surface $-1 -30 30 -10 0 1 0 0 0 1 forward_v I I I I #
coedge $-1 $113 $114 $115 $116 forward $48 $-1 #
face $-1 $117 $118 $27 $-1 $119 forward single #
loop $-1 $-1 $120 $50 #
plane-surface $-1 -30 -30 -10 -1 0 0 0 0 1 forward_v I I I I #
coedge $-1 $121 $122 $123 $124 forward $51 $-1 #
face $-1 $125 $126 $29 $-1 $127 forward single #
loop $-1 $-1 $128 $53 #
plane-surface $-1 30 30 10 1 0 0 0 0 -1 forward_v I I I I #
coedge $-1 $129 $130 $131 $132 forward $54 $-1 #
model_id-kcp-attrib $-1 $-1 $-1 $57 1 990663513 50 -1640890367 5 #
face $133 $134 $135 $9 $-1 $85 forward single #
loop $-1 $-1 $136 $57 #
plane-surface $-1 0 0 -10 0 0 1 1 0 0 forward_v I I I I #
coedge $-1 $93 $137 $95 $138 reversed $58 $-1 #
coedge $-1 $139 $60 $136 $140 reversed $40 $-1 #
coedge $-1 $60 $139 $61 $92 reversed $40 $-1 #
coedge $-1 $63 $141 $60 $90 forward $96 $-1 #
edge $-1 $142 -12.5 $97 7.5 $89 $143 forward 7 unknown #
coedge $-1 $62 $61 $144 $145 reversed $32 $-1 #
edge $-1 $97 -30 $146 30 $88 $147 forward 7 unknown #
coedge $-1 $148 $86 $62 $94 reversed $58 $-1 #
edge $-1 $149 -30 $98 30 $93 $150 forward 7 unknown #
coedge $-1 $151 $63 $86 $138 forward $96 $-1 #
loop $-1 $-1 $95 $152 #
vertex $-1 $64 $153 #
vertex $-1 $64 $154 #
straight-curve $-1 -30 0 10 0 1 0 I I #
model_id-kcp-attrib $-1 $-1 $-1 $66 1 990663513 50 -1640890366 4 #
face $155 $156 $157 $23 $-1 $158 reversed single #
loop $-1 $-1 $159 $66 #
plane-surface $-1 0 -40 0 0 1 0 0 0 1 forward_v I I I I #
coedge $-1 $160 $161 $162 $163 forward $67 $-1 #
coedge $-1 $164 $69 $165 $166 forward $45 $-1 #
coedge $-1 $69 $164 $167 $168 forward $45 $-1 #
coedge $-1 $169 $170 $69 $108 reversed $171 $-1 #
edge $-1 $172 -40 $173 40 $107 $174 forward 7 unknown #
face $-1 $175 $176 $25 $-1 $177 forward single #
loop $-1 $-1 $178 $70 #
plane-surface $-1 30 30 -10 1 0 0 0 0 -1 forward_v I I I I #
coedge $-1 $179 $180 $181 $182 forward $71 $-1 #
coedge $-1 $183 $73 $180 $184 reversed $48 $-1 #
coedge $-1 $73 $183 $185 $186 forward $48 $-1 #
coedge $-1 $187 $181 $73 $116 reversed $188 $-1 #
edge $-1 $189 0 $190 20 $73 $191 forward 7 unknown #
face $-1 $192 $193 $27 $-1 $194 forward single #
loop $-1 $-1 $195 $74 #
plane-surface $-1 -30 -10 -10 0 1 0 0 0 1 forward_v I I I I #
coedge $-1 $196 $197 $198 $199 forward $75 $-1 #
coedge $-1 $200 $77 $197 $201 reversed $51 $-1 #
coedge $-1 $77 $200 $202 $203 forward $51 $-1 #
coedge $-1 $204 $198 $77 $124 reversed $205 $-1 #
edge $-1 $206 -30 $207 30 $77 $208 forward 7 unknown #
face $-1 $209 $210 $29 $-1 $211 forward single #
loop $-1 $-1 $212 $78 #
plane-surface $-1 30 -30 10 0 -1 0 0 0 -1 forward_v I I I I #
coedge $-1 $213 $214 $215 $216 forward $79 $-1 #
coedge $-1 $217 $81 $214 $218 reversed $54 $-1 #
coedge $-1 $81 $217 $219 $220 forward $54 $-1 #
coedge $-1 $221 $215 $81 $132 reversed $222 $-1 #
edge $-1 $223 -30 $224 30 $81 $225 forward 7 unknown #
model_id-kcp-attrib $-1 $-1 $-1 $83 1 990663513 50 -1640890367 6 #
face $226 $227 $228 $9 $-1 $229 forward single #
loop $-1 $-1 $230 $83 #
coedge $-1 $231 $232 $87 $140 forward $84 $-1 #
coedge $-1 $86 $148 $230 $233 reversed $58 $-1 #
edge $-1 $98 -7.5 $234 12.5 $95 $235 forward 7 unknown #
coedge $-1 $88 $87 $236 $237 reversed $40 $-1 #
edge $-1 $238 -30 $142 30 $136 $239 forward 7 unknown #
coedge $-1 $89 $240 $231 $241 forward $96 $-1 #
vertex $-1 $241 $242 #
straight-curve $-1 -30 -10 2.5 0 0 1 I I #
coedge $-1 $236 $243 $91 $145 forward $228 $-1 #
edge $-1 $149 -10 $146 10 $144 $244 forward 7 unknown #
vertex $-1 $145 $245 #
straight-curve $-1 0 -10 10 1 0 0 I I #
coedge $-1 $137 $93 $243 $246 reversed $58 $-1 #
vertex $-1 $145 $247 #
straight-curve $-1 0 10 10 -1 0 0 I I #
coedge $-1 $248 $95 $249 $250 forward $96 $-1 #
face $251 $252 $96 $9 $-1 $253 forward single #
point $-1 -30 -10 10 #
point $-1 -30 10 10 #
model_id-kcp-attrib $-1 $-1 $-1 $101 1 990663513 50 -1640890366 5 #
face $254 $255 $256 $23 $-1 $257 reversed single #
loop $-1 $-1 $258 $101 #
plane-surface $-1 -40 0 0 1 0 0 0 0 -1 forward_v I I I I #
coedge $-1 $259 $167 $260 $261 forward $102 $-1 #
coedge $-1 $262 $104 $259 $263 forward $67 $-1 #
coedge $-1 $104 $262 $264 $265 forward $67 $-1 #
coedge $-1 $170 $169 $104 $163 reversed $171 $-1 #
edge $-1 $266 -40 $267 40 $162 $268 forward 7 unknown #
coedge $-1 $106 $105 $269 $270 forward $45 $-1 #
coedge $-1 $271 $272 $105 $166 reversed $256 $-1 #
edge $-1 $173 -40 $273 40 $165 $274 forward 7 unknown #
coedge $-1 $159 $275 $106 $168 reversed $102 $-1 #
edge $-1 $276 -40 $172 40 $167 $277 forward 7 unknown #
coedge $-1 $162 $107 $275 $278 forward $171 $-1 #
coedge $-1 $107 $162 $271 $279 reversed $171 $-1 #
loop $-1 $-1 $169 $255 #
vertex $-1 $108 $280 #
vertex $-1 $108 $281 #
straight-curve $-1 40 0 20 0 1 0 I I #
face $-1 $282 $188 $25 $-1 $283 forward single #
loop $-1 $-1 $284 $109 #
plane-surface $-1 30 10 -10 0 -1 0 0 0 -1 forward_v I I I I #
coedge $-1 $285 $286 $287 $288 forward $110 $-1 #
coedge $-1 $289 $112 $286 $290 reversed $71 $-1 #
coedge $-1 $112 $289 $113 $184 forward $71 $-1 #
coedge $-1 $115 $287 $112 $182 reversed $188 $-1 #
edge $-1 $190 -30 $291 30 $112 $292 forward 7 unknown #
coedge $-1 $114 $113 $293 $294 reversed $48 $-1 #
edge $295 $296 0 $190 20 $180 $297 forward 7 unknown #
coedge $-1 $298 $284 $114 $186 reversed $176 $-1 #
edge $299 $300 0 $189 20 $114 $301 forward 7 unknown #
coedge $-1 $287 $115 $284 $302 reversed $188 $-1 #
loop $-1 $-1 $115 $175 #
vertex $-1 $186 $303 #
vertex $-1 $184 $304 #
straight-curve $-1 -30 10 10 0 1 0 I I #
face $-1 $305 $205 $27 $-1 $306 forward single #
loop $-1 $-1 $307 $117 #
plane-surface $-1 30 -10 -10 1 0 0 0 0 -1 forward_v I I I I #
coedge $-1 $308 $309 $310 $311 forward $118 $-1 #
coedge $-1 $312 $120 $309 $313 reversed $75 $-1 #
coedge $-1 $120 $312 $121 $201 forward $75 $-1 #
coedge $-1 $123 $310 $120 $199 reversed $205 $-1 #
edge $-1 $207 -20 $314 0 $120 $315 forward 7 unknown #
coedge $-1 $122 $121 $316 $317 reversed $51 $-1 #
edge $318 $319 0 $207 20 $197 $320 forward 7 unknown #
coedge $-1 $321 $307 $122 $203 reversed $193 $-1 #
edge $322 $323 0 $206 20 $122 $324 forward 7 unknown #
coedge $-1 $310 $123 $307 $325 reversed $205 $-1 #
loop $-1 $-1 $123 $192 #
vertex $-1 $203 $326 #
vertex $-1 $201 $327 #
straight-curve $-1 0 -30 10 -1 0 0 I I #
face $-1 $328 $222 $29 $-1 $329 forward single #
loop $-1 $-1 $330 $125 #
plane-surface $-1 -30 -30 10 -1 0 0 0 0 1 forward_v I I I I #
coedge $-1 $331 $332 $333 $334 forward $126 $-1 #
coedge $-1 $335 $128 $332 $336 reversed $79 $-1 #
coedge $-1 $128 $335 $129 $218 forward $79 $-1 #
coedge $-1 $131 $333 $128 $216 reversed $222 $-1 #
edge $-1 $224 -30 $337 30 $128 $338 forward 7 unknown #
coedge $-1 $130 $129 $339 $340 reversed $54 $-1 #
edge $341 $342 0 $224 10 $214 $343 forward 7 unknown #
coedge $-1 $344 $330 $130 $220 reversed $210 $-1 #
edge $345 $346 0 $223 10 $130 $347 forward 7 unknown #
coedge $-1 $333 $131 $330 $348 reversed $222 $-1 #
loop $-1 $-1 $131 $209 #
vertex $-1 $220 $349 #
vertex $-1 $218 $350 #
straight-curve $-1 0 30 20 1 0 0 I I #
model_id-kcp-attrib $-1 $-1 $-1 $134 1 990663513 50 -1640890367 7 #
face $351 $152 $352 $9 $-1 $353 forward single #
loop $-1 $-1 $243 $134 #
plane-surface $-1 30 0 5 -1 0 0 0 0 1 forward_v I I I I #
coedge $-1 $354 $249 $137 $233 forward $135 $-1 #
coedge $-1 $355 $136 $141 $241 reversed $84 $-1 #
coedge $-1 $136 $355 $356 $357 reversed $84 $-1 #
edge $-1 $234 -30 $358 30 $230 $359 forward 7 unknown #
vertex $-1 $233 $360 #
straight-curve $-1 -30 10 2.5 0 0 -1 I I #
coedge $-1 $356 $144 $139 $237 forward $228 $-1 #
edge $-1 $146 -7.5 $238 12.5 $236 $361 forward 7 unknown #
vertex $-1 $237 $362 #
straight-curve $-1 0 -10 -10 -1 0 0 I I #
coedge $-1 $141 $363 $364 $365 forward $96 $-1 #
edge $-1 $366 -30 $142 -10 $141 $367 forward 7 unknown #
point $-1 -30 -10 -10 #
coedge $-1 $144 $368 $148 $246 forward $228 $-1 #
straight-curve $-1 30 0 10 0 -1 0 I I #
point $-1 30 -10 10 #
edge $-1 $358 -12.5 $149 7.5 $243 $369 forward 7 unknown #
point $-1 30 10 10 #
coedge $-1 $363 $151 $370 $371 reversed $96 $-1 #
coedge $-1 $230 $372 $151 $250 reversed $135 $-1 #
edge $-1 $234 10 $373 30 $151 $367 forward 7 unknown #
model_id-kcp-attrib $-1 $-1 $-1 $152 1 990663513 50 -1640890367 9 #
face $374 $375 $376 $9 $-1 $377 forward single #
plane-surface $-1 -30 0 5 1 0 0 0 0 -1 forward_v I I I I #
model_id-kcp-attrib $-1 $-1 $-1 $156 1 990663513 50 -1640890366 6 #
face $378 $-1 $171 $23 $-1 $379 reversed single #
loop $-1 $-1 $271 $156 #
plane-surface $-1 0 40 0 0 -1 0 0 0 -1 forward_v I I I I #
coedge $-1 $380 $269 $272 $381 forward $157 $-1 #
coedge $-1 $275 $159 $160 $263 reversed $102 $-1 #
coedge $-1 $269 $380 $159 $261 reversed $157 $-1 #
edge $-1 $276 -20 $382 20 $260 $383 forward 7 unknown #
coedge $-1 $161 $160 $380 $384 forward $67 $-1 #
edge $-1 $267 -40 $382 40 $259 $385 forward 7 unknown #
coedge $-1 $272 $271 $161 $265 reversed $256 $-1 #
edge $-1 $386 -40 $266 40 $264 $387 forward 7 unknown #
vertex $-1 $163 $388 #
vertex $-1 $278 $389 #
straight-curve $-1 40 0 -20 0 -1 0 I I #
coedge $-1 $258 $260 $164 $270 reversed $157 $-1 #
edge $-1 $273 -40 $276 40 $269 $390 forward 7 unknown #
coedge $-1 $264 $165 $170 $279 forward $256 $-1 #
coedge $-1 $165 $264 $258 $381 reversed $256 $-1 #
vertex $-1 $166 $391 #
straight-curve $-1 0 40 20 -1 0 0 I I #
coedge $-1 $167 $259 $169 $278 reversed $102 $-1 #
vertex $-1 $270 $392 #
straight-curve $-1 0 -40 20 1 0 0 I I #
edge $-1 $172 -20 $267 20 $169 $393 forward 7 unknown #
edge $-1 $173 -20 $266 20 $170 $394 forward 7 unknown #
point $-1 40 -40 20 #
point $-1 40 40 20 #
face $-1 $-1 $395 $25 $-1 $396 reversed single #
plane-surface $-1 0 20 10 0 0 1 1 0 0 forward_v I I I I #
coedge $-1 $185 $397 $187 $302 forward $176 $-1 #
coedge $-1 $398 $178 $397 $399 reversed $110 $-1 #
coedge $-1 $178 $398 $179 $290 forward $110 $-1 #
coedge $-1 $181 $187 $178 $288 reversed $188 $-1 #
edge $-1 $291 -20 $400 0 $178 $401 forward 7 unknown #
coedge $-1 $180 $179 $402 $403 reversed $71 $-1 #
edge $404 $405 0 $291 20 $286 $406 forward 7 unknown #
vertex $-1 $290 $407 #
straight-curve $-1 0 30 10 1 0 0 I I #
coedge $-1 $402 $408 $183 $294 forward $395 $-1 #
edge $409 $300 0 $296 20 $183 $410 forward 7 unknown #
convexity-sys-attrib $-1 $-1 $-1 $184 #
vertex $-1 $294 $411 #
straight-curve $-1 -30 30 -10 0 0 1 I I #
coedge $-1 $397 $185 $408 $412 reversed $176 $-1 #
convexity-sys-attrib $-1 $-1 $-1 $186 #
vertex $-1 $412 $413 #
straight-curve $-1 -30 10 -10 0 0 1 I I #
edge $-1 $400 -30 $189 30 $284 $414 forward 7 unknown #
point $-1 -30 10 10 #
point $-1 -30 30 10 #
face $-1 $-1 $415 $27 $-1 $416 reversed single #
plane-surface $-1 0 -20 10 0 0 1 1 0 0 forward_v I I I I #
coedge $-1 $202 $417 $204 $325 forward $193 $-1 #
coedge $-1 $418 $195 $417 $419 reversed $118 $-1 #
coedge $-1 $195 $418 $196 $313 forward $118 $-1 #
coedge $-1 $198 $204 $195 $311 reversed $205 $-1 #
edge $-1 $314 -30 $420 30 $195 $421 forward 7 unknown #
coedge $-1 $197 $196 $422 $423 reversed $75 $-1 #
edge $424 $425 0 $314 20 $309 $426 forward 7 unknown #
vertex $-1 $313 $427 #
straight-curve $-1 -30 -10 10 0 1 0 I I #
coedge $-1 $422 $428 $200 $317 forward $415 $-1 #
edge $429 $323 -30 $319 30 $200 $430 forward 7 unknown #
convexity-sys-attrib $-1 $-1 $-1 $201 #
vertex $-1 $317 $431 #
straight-curve $-1 -30 -30 -10 0 0 1 I I #
coedge $-1 $417 $202 $428 $432 reversed $193 $-1 #
convexity-sys-attrib $-1 $-1 $-1 $203 #
vertex $-1 $432 $433 #
straight-curve $-1 30 -30 -10 0 0 1 I I #
edge $-1 $420 0 $206 20 $307 $434 forward 7 unknown #
point $-1 30 -30 10 #
point $-1 -30 -30 10 #
face $-1 $-1 $435 $29 $-1 $436 reversed single #
plane-surface $-1 0 0 20 0 0 1 1 0 0 forward_v I I I I #
coedge $-1 $219 $437 $221 $348 forward $210 $-1 #
coedge $-1 $438 $212 $437 $439 reversed $126 $-1 #
coedge $-1 $212 $438 $213 $336 forward $126 $-1 #
coedge $-1 $215 $221 $212 $334 reversed $222 $-1 #
edge $-1 $337 -30 $440 30 $212 $441 forward 7 unknown #
coedge $-1 $214 $213 $442 $443 reversed $79 $-1 #
edge $444 $445 0 $337 10 $332 $446 forward 7 unknown #
vertex $-1 $336 $447 #
straight-curve $-1 30 0 20 0 -1 0 I I #
coedge $-1 $442 $448 $217 $340 forward $435 $-1 #
edge $449 $346 -30 $342 30 $217 $450 forward 7 unknown #
convexity-sys-attrib $-1 $-1 $-1 $218 #
vertex $-1 $340 $451 #
straight-curve $-1 30 30 10 0 0 1 I I #
coedge $-1 $437 $219 $448 $452 reversed $210 $-1 #
convexity-sys-attrib $-1 $-1 $-1 $220 #
vertex $-1 $452 $453 #
straight-curve $-1 -30 30 10 0 0 1 I I #
edge $-1 $440 -30 $223 30 $330 $454 forward 7 unknown #
point $-1 -30 30 20 #
point $-1 30 30 20 #
model_id-kcp-attrib $-1 $-1 $-1 $227 1 990663513 50 -1640890367 8 #
loop $-1 $-1 $364 $227 #
plane-surface $-1 0 -30 5 0 1 0 0 0 1 forward_v I I I I #
coedge $-1 $372 $230 $368 $455 reversed $135 $-1 #
coedge $-1 $232 $231 $456 $457 reversed $84 $-1 #
coedge $-1 $458 $236 $232 $357 forward $228 $-1 #
edge $-1 $238 10 $459 30 $356 $460 forward 7 unknown #
vertex $-1 $455 $461 #
straight-curve $-1 0 10 -10 1 0 0 I I #
point $-1 -30 10 -10 #
straight-curve $-1 30 -10 2.5 0 0 -1 I I #
point $-1 30 -10 -10 #
coedge $-1 $240 $248 $462 $463 reversed $96 $-1 #
coedge $-1 $464 $456 $240 $365 reversed $352 $-1 #
edge $-1 $465 -15 $366 15 $240 $466 forward 7 unknown #
vertex $-1 $241 $467 #
straight-curve $-1 -30 0 -10 0 1 0 I I #
coedge $-1 $243 $468 $354 $455 forward $228 $-1 #
straight-curve $-1 30 10 2.5 0 0 1 I I #
coedge $-1 $469 $470 $248 $371 forward $376 $-1 #
edge $-1 $471 -15 $373 15 $370 $472 forward 7 unknown #
coedge $-1 $249 $354 $469 $473 reversed $135 $-1 #
vertex $-1 $473 $474 #
model_id-kcp-attrib $-1 $-1 $-1 $252 1 990663513 50 -1640890367 10 #
face $475 $476 $477 $9 $-1 $478 forward single #
loop $-1 $-1 $479 $252 #
plane-surface $-1 0 30 5 0 -1 0 0 0 -1 forward_v I I I I #
model_id-kcp-attrib $-1 $-1 $-1 $255 1 990663513 50 -1640890366 7 #
plane-surface $-1 40 0 0 -1 0 0 0 0 1 forward_v I I I I #
coedge $-1 $260 $258 $262 $384 reversed $157 $-1 #
edge $-1 $273 -20 $386 20 $272 $480 forward 7 unknown #
vertex $-1 $384 $481 #
straight-curve $-1 -40 -40 0 0 0 -1 I I #
edge $-1 $382 -40 $386 40 $380 $482 forward 7 unknown #
straight-curve $-1 0 -40 -20 -1 0 0 I I #
vertex $-1 $265 $483 #
straight-curve $-1 0 40 -20 1 0 0 I I #
point $-1 40 40 -20 #
point $-1 40 -40 -20 #
straight-curve $-1 -40 0 20 0 -1 0 I I #
point $-1 -40 40 20 #
point $-1 -40 -40 20 #
straight-curve $-1 40 -40 0 0 0 -1 I I #
straight-curve $-1 40 40 0 0 0 -1 I I #
loop $-1 $-1 $408 $282 #
plane-surface $-1 0 20 -10 0 0 1 1 0 0 forward_v I I I I #
coedge $-1 $284 $298 $285 $399 forward $176 $-1 #
coedge $-1 $286 $285 $484 $485 reversed $110 $-1 #
edge $486 $487 0 $400 20 $397 $488 forward 7 unknown #
vertex $-1 $399 $489 #
straight-curve $-1 30 10 10 0 -1 0 I I #
coedge $-1 $484 $293 $289 $403 forward $395 $-1 #
edge $490 $296 -30 $405 30 $289 $491 forward 7 unknown #
convexity-sys-attrib $-1 $-1 $-1 $290 #
vertex $-1 $403 $492 #
straight-curve $-1 30 30 -10 0 0 1 I I #
point $-1 30 30 10 #
coedge $-1 $293 $484 $298 $412 forward $395 $-1 #
convexity-sys-attrib $-1 $-1 $-1 $294 #
straight-curve $-1 -30 10 -10 0 1 0 I I #
point $-1 -30 30 -10 #
edge $493 $487 -30 $300 30 $298 $494 forward 7 unknown #
point $-1 -30 10 -10 #
straight-curve $-1 0 10 10 -1 0 0 I I #
loop $-1 $-1 $428 $305 #
plane-surface $-1 0 -20 -10 0 0 1 1 0 0 forward_v I I I I #
coedge $-1 $307 $321 $308 $419 forward $193 $-1 #
coedge $-1 $309 $308 $495 $496 reversed $118 $-1 #
edge $497 $498 0 $420 20 $417 $499 forward 7 unknown #
vertex $-1 $419 $500 #
straight-curve $-1 0 -10 10 1 0 0 I I #
coedge $-1 $495 $316 $312 $423 forward $415 $-1 #
edge $501 $319 -20 $425 0 $312 $502 forward 7 unknown #
convexity-sys-attrib $-1 $-1 $-1 $313 #
vertex $-1 $423 $503 #
straight-curve $-1 -30 -10 -10 0 0 1 I I #
point $-1 -30 -10 10 #
coedge $-1 $316 $495 $321 $432 forward $415 $-1 #
convexity-sys-attrib $-1 $-1 $-1 $317 #
straight-curve $-1 0 -30 -10 -1 0 0 I I #
point $-1 -30 -30 -10 #
edge $504 $498 0 $323 20 $321 $505 forward 7 unknown #
point $-1 30 -30 -10 #
straight-curve $-1 30 -10 10 0 -1 0 I I #
loop $-1 $-1 $448 $328 #
plane-surface $-1 0 0 10 0 0 1 1 0 0 forward_v I I I I #
coedge $-1 $330 $344 $331 $439 forward $210 $-1 #
coedge $-1 $332 $331 $506 $507 reversed $126 $-1 #
edge $508 $509 0 $440 10 $437 $510 forward 7 unknown #
vertex $-1 $439 $511 #
straight-curve $-1 0 -30 20 -1 0 0 I I #
coedge $-1 $506 $339 $335 $443 forward $435 $-1 #
edge $512 $342 -30 $445 30 $335 $513 forward 7 unknown #
convexity-sys-attrib $-1 $-1 $-1 $336 #
vertex $-1 $443 $514 #
straight-curve $-1 30 -30 10 0 0 1 I I #
point $-1 30 -30 20 #
coedge $-1 $339 $506 $344 $452 forward $435 $-1 #
convexity-sys-attrib $-1 $-1 $-1 $340 #
straight-curve $-1 0 30 10 1 0 0 I I #
point $-1 30 30 10 #
edge $515 $509 -30 $346 30 $344 $516 forward 7 unknown #
point $-1 -30 30 10 #
straight-curve $-1 -30 0 20 0 1 0 I I #
edge $-1 $517 -30 $358 -10 $368 $460 forward 7 unknown #
coedge $-1 $364 $518 $355 $457 forward $352 $-1 #
edge $-1 $459 -30 $366 30 $456 $519 forward 7 unknown #
coedge $-1 $520 $356 $518 $521 reversed $228 $-1 #
vertex $-1 $521 $522 #
straight-curve $-1 30 0 -10 0 -1 0 I I #
point $-1 30 10 -10 #
coedge $-1 $523 $524 $363 $463 forward $477 $-1 #
edge $525 $465 -30 $471 30 $462 $526 forward 7 unknown #
coedge $-1 $518 $364 $524 $527 reversed $352 $-1 #
vertex $-1 $527 $528 #
straight-curve $-1 -30 -30 5 0 0 -1 I I #
point $-1 -30 -30 -10 #
coedge $-1 $368 $520 $479 $529 forward $228 $-1 #
coedge $-1 $479 $370 $372 $473 forward $376 $-1 #
coedge $-1 $370 $479 $523 $530 reversed $376 $-1 #
vertex $-1 $463 $531 #
straight-curve $-1 -30 30 5 0 0 -1 I I #
edge $-1 $373 -30 $517 30 $469 $532 forward 7 unknown #
point $-1 -30 30 -10 #
model_id-kcp-attrib $-1 $-1 $-1 $375 1 990663513 50 -1640890367 11 #
face $533 $534 $535 $9 $-1 $536 reversed single #
loop $-1 $537 $524 $375 #
plane-surface $-1 0 0 20 0 0 1 1 0 0 forward_v I I I I #
coedge $-1 $470 $469 $468 $529 reversed $376 $-1 #
straight-curve $-1 -40 40 0 0 0 -1 I I #
point $-1 -40 -40 -20 #
straight-curve $-1 -40 0 -20 0 1 0 I I #
point $-1 -40 40 -20 #
coedge $-1 $408 $402 $398 $485 forward $395 $-1 #
edge $538 $405 -20 $487 0 $398 $539 forward 7 unknown #
convexity-sys-attrib $-1 $-1 $-1 $399 #
vertex $-1 $412 $540 #
straight-curve $-1 30 10 -10 0 0 1 I I #
point $-1 30 10 10 #
convexity-sys-attrib $-1 $-1 $-1 $403 #
straight-curve $-1 0 30 -10 1 0 0 I I #
point $-1 30 30 -10 #
convexity-sys-attrib $-1 $-1 $-1 $412 #
straight-curve $-1 0 10 -10 -1 0 0 I I #
coedge $-1 $428 $422 $418 $496 forward $415 $-1 #
edge $541 $425 -30 $498 30 $418 $542 forward 7 unknown #
convexity-sys-attrib $-1 $-1 $-1 $419 #
vertex $-1 $432 $543 #
straight-curve $-1 30 -10 -10 0 0 1 I I #
point $-1 30 -10 10 #
convexity-sys-attrib $-1 $-1 $-1 $423 #
straight-curve $-1 -30 -10 -10 0 1 0 I I #
point $-1 -30 -10 -10 #
convexity-sys-attrib $-1 $-1 $-1 $432 #
straight-curve $-1 30 -10 -10 0 -1 0 I I #
coedge $-1 $448 $442 $438 $507 forward $435 $-1 #
edge $544 $445 -30 $509 30 $438 $545 forward 7 unknown #
convexity-sys-attrib $-1 $-1 $-1 $439 #
vertex $-1 $452 $546 #
straight-curve $-1 -30 -30 10 0 0 1 I I #
point $-1 -30 -30 20 #
convexity-sys-attrib $-1 $-1 $-1 $443 #
straight-curve $-1 30 0 10 0 -1 0 I I #
point $-1 30 -30 10 #
convexity-sys-attrib $-1 $-1 $-1 $452 #
straight-curve $-1 -30 0 10 0 1 0 I I #
vertex $-1 $455 $547 #
coedge $-1 $456 $464 $458 $521 forward $352 $-1 #
straight-curve $-1 0 -30 -10 -1 0 0 I I #
coedge $-1 $468 $458 $548 $549 reversed $228 $-1 #
edge $-1 $550 -15 $459 15 $458 $551 forward 7 unknown #
point $-1 30 -30 -10 #
coedge $-1 $548 $462 $470 $530 forward $477 $-1 #
coedge $-1 $462 $548 $464 $527 forward $477 $-1 #
attrib_edge_convexity-kcp-attrib $-1 $552 $-1 $463 1 #
straight-curve $-1 -30 0 20 0 1 0 I I #
edge $553 $550 -30 $465 30 $524 $554 forward 7 unknown #
point $-1 -30 -30 20 #
edge $-1 $555 -15 $517 15 $468 $556 forward 7 unknown #
edge $557 $471 -30 $555 30 $523 $558 forward 7 unknown #
point $-1 -30 30 20 #
straight-curve $-1 0 30 -10 1 0 0 I I #
model_id-kcp-attrib $-1 $-1 $-1 $476 1 990663513 50 -1640890367 12 #
face $559 $560 $561 $9 $-1 $562 reversed single #
loop $-1 $-1 $563 $476 #
plane-surface $-1 0 0 -20 0 0 1 1 0 0 forward_v I I I I #
loop $-1 $-1 $564 $375 #
convexity-sys-attrib $-1 $-1 $-1 $485 #
straight-curve $-1 30 10 -10 0 -1 0 I I #
point $-1 30 10 -10 #
convexity-sys-attrib $-1 $-1 $-1 $496 #
straight-curve $-1 0 -10 -10 1 0 0 I I #
point $-1 30 -10 -10 #
convexity-sys-attrib $-1 $-1 $-1 $507 #
straight-curve $-1 0 -30 10 -1 0 0 I I #
point $-1 -30 -30 10 #
point $-1 30 30 -10 #
coedge $-1 $524 $523 $520 $549 forward $477 $-1 #
edge $565 $555 -30 $550 30 $548 $566 forward 7 unknown #
vertex $-1 $527 $567 #
straight-curve $-1 30 -30 5 0 0 -1 I I #
convexity-sys-attrib $-1 $-1 $525 $463 #
attrib_edge_convexity-kcp-attrib $-1 $568 $-1 $527 1 #
straight-curve $-1 0 -30 20 -1 0 0 I I #
vertex $-1 $530 $569 #
straight-curve $-1 30 30 5 0 0 -1 I I #
attrib_edge_convexity-kcp-attrib $-1 $570 $-1 $530 1 #
straight-curve $-1 0 30 20 1 0 0 I I #
model_id-kcp-attrib $-1 $-1 $-1 $534 1 990663513 50 -1640890367 13 #
face $571 $572 $573 $9 $-1 $574 reversed single #
loop $-1 $-1 $575 $534 #
plane-surface $-1 0 -40 0 0 1 0 0 0 1 forward_v I I I I #
coedge $-1 $576 $577 $578 $579 forward $535 $-1 #
coedge $-1 $580 $581 $582 $583 forward $537 $-1 #
attrib_edge_convexity-kcp-attrib $-1 $584 $-1 $549 1 #
straight-curve $-1 30 0 20 0 -1 0 I I #
point $-1 30 -30 20 #
convexity-sys-attrib $-1 $-1 $553 $527 #
point $-1 30 30 20 #
convexity-sys-attrib $-1 $-1 $557 $530 #
model_id-kcp-attrib $-1 $-1 $-1 $560 1 990663513 50 -1640890367 14 #
face $585 $586 $587 $9 $-1 $588 reversed single #
loop $-1 $-1 $589 $560 #
plane-surface $-1 -40 0 0 1 0 0 0 0 -1 forward_v I I I I #
coedge $-1 $590 $591 $592 $593 forward $561 $-1 #
coedge $-1 $594 $563 $590 $595 forward $535 $-1 #
coedge $-1 $563 $594 $596 $597 forward $535 $-1 #
coedge $-1 $598 $599 $563 $579 reversed $600 $-1 #
edge $-1 $601 -40 $602 40 $578 $603 forward 7 unknown #
coedge $-1 $604 $564 $605 $606 forward $537 $-1 #
coedge $-1 $564 $604 $591 $607 forward $537 $-1 #
coedge $-1 $599 $598 $564 $583 reversed $600 $-1 #
edge $608 $609 -40 $610 40 $582 $611 forward 7 unknown #
convexity-sys-attrib $-1 $-1 $565 $549 #
model_id-kcp-attrib $-1 $-1 $-1 $572 1 990663513 50 -1640890367 15 #
face $612 $-1 $600 $9 $-1 $613 reversed single #
loop $-1 $-1 $614 $572 #
plane-surface $-1 0 40 0 0 -1 0 0 0 -1 forward_v I I I I #
coedge $-1 $615 $616 $617 $618 forward $573 $-1 #
coedge $-1 $619 $575 $576 $595 reversed $561 $-1 #
coedge $-1 $575 $619 $581 $607 reversed $561 $-1 #
coedge $-1 $616 $615 $575 $593 reversed $573 $-1 #
edge $620 $621 -20 $622 20 $592 $623 forward 7 unknown #
coedge $-1 $577 $576 $615 $624 forward $535 $-1 #
edge $625 $602 -40 $622 40 $590 $626 forward 7 unknown #
coedge $-1 $617 $614 $577 $597 reversed $587 $-1 #
edge $-1 $627 -40 $601 40 $596 $628 forward 7 unknown #
coedge $-1 $582 $578 $614 $629 reversed $600 $-1 #
coedge $-1 $578 $582 $619 $630 forward $600 $-1 #
loop $-1 $-1 $599 $586 #
vertex $-1 $579 $631 #
vertex $-1 $630 $632 #
straight-curve $-1 40 0 -20 0 -1 0 I I #
coedge $-1 $581 $580 $616 $633 forward $537 $-1 #
coedge $-1 $614 $617 $580 $606 reversed $587 $-1 #
edge $634 $610 -40 $635 40 $605 $636 forward 7 unknown #
edge $637 $621 -40 $609 40 $591 $638 forward 7 unknown #
attrib_edge_convexity-kcp-attrib $-1 $639 $-1 $583 1 #
vertex $-1 $583 $640 #
vertex $-1 $583 $641 #
straight-curve $-1 40 0 20 0 1 0 I I #
model_id-kcp-attrib $-1 $-1 $-1 $586 1 990663513 50 -1640890367 16 #
plane-surface $-1 40 0 0 -1 0 0 0 0 1 forward_v I I I I #
coedge $-1 $596 $605 $598 $629 forward $587 $-1 #
coedge $-1 $592 $589 $594 $624 reversed $573 $-1 #
coedge $-1 $589 $592 $604 $633 reversed $573 $-1 #
coedge $-1 $605 $596 $589 $618 reversed $587 $-1 #
edge $642 $635 -20 $627 20 $617 $643 forward 7 unknown #
coedge $-1 $591 $590 $599 $630 reversed $561 $-1 #
attrib_edge_convexity-kcp-attrib $-1 $644 $-1 $593 1 #
vertex $-1 $633 $645 #
vertex $-1 $624 $646 #
straight-curve $-1 -40 -40 0 0 0 -1 I I #
edge $647 $622 -40 $627 40 $615 $648 forward 7 unknown #
attrib_edge_convexity-kcp-attrib $-1 $649 $-1 $595 1 #
straight-curve $-1 0 -40 -20 -1 0 0 I I #
vertex $-1 $597 $650 #
straight-curve $-1 0 40 -20 1 0 0 I I #
edge $-1 $610 -20 $601 20 $598 $651 forward 7 unknown #
edge $652 $609 -20 $602 20 $599 $653 forward 7 unknown #
point $-1 40 40 -20 #
point $-1 40 -40 -20 #
edge $654 $635 -40 $621 40 $616 $655 forward 7 unknown #
attrib_edge_convexity-kcp-attrib $-1 $656 $-1 $606 1 #
vertex $-1 $606 $657 #
straight-curve $-1 0 40 20 -1 0 0 I I #
attrib_edge_convexity-kcp-attrib $-1 $658 $-1 $607 1 #
straight-curve $-1 0 -40 20 1 0 0 I I #
convexity-sys-attrib $-1 $-1 $608 $583 #
point $-1 40 -40 20 #
point $-1 40 40 20 #
attrib_edge_convexity-kcp-attrib $-1 $659 $-1 $618 1 #
straight-curve $-1 -40 40 0 0 0 -1 I I #
convexity-sys-attrib $-1 $-1 $620 $593 #
point $-1 -40 -40 20 #
point $-1 -40 -40 -20 #
attrib_edge_convexity-kcp-attrib $-1 $660 $-1 $624 1 #
straight-curve $-1 -40 0 -20 0 1 0 I I #
convexity-sys-attrib $-1 $-1 $625 $595 #
point $-1 -40 40 -20 #
straight-curve $-1 40 40 0 0 0 -1 I I #
attrib_edge_convexity-kcp-attrib $-1 $661 $-1 $630 1 #
straight-curve $-1 40 -40 0 0 0 -1 I I #
attrib_edge_convexity-kcp-attrib $-1 $662 $-1 $633 1 #
straight-curve $-1 -40 0 20 0 -1 0 I I #
convexity-sys-attrib $-1 $-1 $634 $606 #
point $-1 -40 40 20 #
convexity-sys-attrib $-1 $-1 $637 $607 #
convexity-sys-attrib $-1 $-1 $642 $618 #
convexity-sys-attrib $-1 $-1 $647 $624 #
convexity-sys-attrib $-1 $-1 $652 $630 #
convexity-sys-attrib $-1 $-1 $654 $633 #
End-of-ACIS-data 