600 0 1 0           
81 GICL ACIS Healer - Source: /gicl/data5/repository/Heriot_Watt/ex38/ex38.sat - 6 0 18 ACIS 6.0.3 Solaris 24 Sat Apr 13 23:38:31 2002 
1 9.999999999999999547e-07 1.000000000000000036e-10 
body $-1 $1 $-1 $-1 #
lump $-1 $-1 $2 $0 #
shell $-1 $-1 $-1 $3 $-1 $1 #
face $-1 $4 $5 $2 $-1 $6 forward single #
face $-1 $7 $8 $2 $-1 $9 reversed single #
loop $-1 $-1 $10 $3 #
plane-surface $-1 0 0 10 0 0 1 1 0 0 forward_v I I I I #
face $-1 $11 $12 $2 $-1 $13 reversed single #
loop $-1 $-1 $14 $4 #
plane-surface $-1 0 -10 0 0 1 0 0 0 1 forward_v I I I I #
coedge $-1 $15 $16 $17 $18 reversed $5 $-1 #
face $-1 $19 $20 $2 $-1 $21 forward single #
loop $-1 $-1 $22 $7 #
plane-surface $-1 0 10 0 0 -1 0 0 0 -1 forward_v I I I I #
coedge $-1 $23 $24 $25 $26 reversed $8 $-1 #
coedge $-1 $27 $10 $24 $28 forward $5 $-1 #
coedge $-1 $10 $27 $29 $30 forward $5 $-1 #
coedge $-1 $31 $25 $10 $18 forward $32 $-1 #
edge $-1 $33 -10 $34 10 $17 $35 forward 7 unknown #
face $-1 $36 $37 $2 $-1 $21 forward single #
loop $-1 $-1 $38 $11 #
plane-surface $-1 0 0 -10 0 0 1 1 0 0 forward_v I I I I #
coedge $-1 $29 $39 $31 $40 reversed $12 $-1 #
coedge $-1 $41 $14 $38 $42 reversed $8 $-1 #
coedge $-1 $14 $41 $15 $28 reversed $8 $-1 #
coedge $-1 $17 $43 $14 $26 forward $32 $-1 #
edge $-1 $44 -12.5 $33 7.5 $25 $45 forward 7 unknown #
coedge $-1 $16 $15 $46 $47 reversed $5 $-1 #
edge $-1 $33 -30 $48 30 $24 $49 forward 7 unknown #
coedge $-1 $50 $22 $16 $30 reversed $12 $-1 #
edge $-1 $51 -30 $34 30 $29 $52 forward 7 unknown #
coedge $-1 $53 $17 $22 $40 forward $32 $-1 #
loop $-1 $-1 $31 $54 #
vertex $-1 $18 $55 #
vertex $-1 $18 $56 #
straight-curve $-1 -30 0 10 0 1 0 I I #
face $-1 $57 $58 $2 $-1 $59 forward single #
loop $-1 $-1 $60 $19 #
coedge $-1 $61 $62 $23 $42 forward $20 $-1 #
coedge $-1 $22 $50 $60 $63 reversed $12 $-1 #
edge $-1 $34 -7.5 $64 12.5 $31 $65 forward 7 unknown #
coedge $-1 $24 $23 $66 $67 reversed $8 $-1 #
edge $-1 $68 -30 $44 30 $38 $69 forward 7 unknown #
coedge $-1 $25 $70 $61 $71 forward $32 $-1 #
vertex $-1 $71 $72 #
straight-curve $-1 -30 -10 2.5 0 0 1 I I #
coedge $-1 $66 $73 $27 $47 forward $58 $-1 #
edge $-1 $51 -10 $48 10 $46 $74 forward 7 unknown #
vertex $-1 $47 $75 #
straight-curve $-1 0 -10 10 1 0 0 I I #
coedge $-1 $39 $29 $73 $76 reversed $12 $-1 #
vertex $-1 $47 $77 #
straight-curve $-1 0 10 10 -1 0 0 I I #
coedge $-1 $78 $31 $79 $80 forward $32 $-1 #
face $-1 $81 $32 $2 $-1 $82 forward single #
point $-1 -30 -10 10 #
point $-1 -30 10 10 #
face $-1 $54 $83 $2 $-1 $84 forward single #
loop $-1 $-1 $73 $36 #
plane-surface $-1 30 0 5 -1 0 0 0 0 1 forward_v I I I I #
coedge $-1 $85 $79 $39 $63 forward $37 $-1 #
coedge $-1 $86 $38 $43 $71 reversed $20 $-1 #
coedge $-1 $38 $86 $87 $88 reversed $20 $-1 #
edge $-1 $64 -30 $89 30 $60 $90 forward 7 unknown #
vertex $-1 $63 $91 #
straight-curve $-1 -30 10 2.5 0 0 -1 I I #
coedge $-1 $87 $46 $41 $67 forward $58 $-1 #
edge $-1 $48 -7.5 $68 12.5 $66 $92 forward 7 unknown #
vertex $-1 $67 $93 #
straight-curve $-1 0 -10 -10 -1 0 0 I I #
coedge $-1 $43 $94 $95 $96 forward $32 $-1 #
edge $-1 $97 -30 $44 -10 $43 $98 forward 7 unknown #
point $-1 -30 -10 -10 #
coedge $-1 $46 $99 $50 $76 forward $58 $-1 #
straight-curve $-1 30 0 10 0 -1 0 I I #
point $-1 30 -10 10 #
edge $-1 $89 -12.5 $51 7.5 $73 $100 forward 7 unknown #
point $-1 30 10 10 #
coedge $-1 $94 $53 $101 $102 reversed $32 $-1 #
coedge $-1 $60 $103 $53 $80 reversed $37 $-1 #
edge $-1 $64 10 $104 30 $53 $98 forward 7 unknown #
face $-1 $105 $106 $2 $-1 $107 forward single #
plane-surface $-1 -30 0 5 1 0 0 0 0 -1 forward_v I I I I #
loop $-1 $-1 $95 $57 #
plane-surface $-1 0 -30 5 0 1 0 0 0 1 forward_v I I I I #
coedge $-1 $103 $60 $99 $108 reversed $37 $-1 #
coedge $-1 $62 $61 $109 $110 reversed $20 $-1 #
coedge $-1 $111 $66 $62 $88 forward $58 $-1 #
edge $-1 $68 10 $112 30 $87 $113 forward 7 unknown #
vertex $-1 $108 $114 #
straight-curve $-1 0 10 -10 1 0 0 I I #
point $-1 -30 10 -10 #
straight-curve $-1 30 -10 2.5 0 0 -1 I I #
point $-1 30 -10 -10 #
coedge $-1 $70 $78 $115 $116 reversed $32 $-1 #
coedge $-1 $117 $109 $70 $96 reversed $83 $-1 #
edge $-1 $118 -15 $97 15 $70 $119 forward 7 unknown #
vertex $-1 $71 $120 #
straight-curve $-1 -30 0 -10 0 1 0 I I #
coedge $-1 $73 $121 $85 $108 forward $58 $-1 #
straight-curve $-1 30 10 2.5 0 0 1 I I #
coedge $-1 $122 $123 $78 $102 forward $106 $-1 #
edge $-1 $124 -15 $104 15 $101 $125 forward 7 unknown #
coedge $-1 $79 $85 $122 $126 reversed $37 $-1 #
vertex $-1 $126 $127 #
face $-1 $128 $129 $2 $-1 $130 forward single #
loop $-1 $-1 $131 $81 #
plane-surface $-1 0 30 5 0 -1 0 0 0 -1 forward_v I I I I #
edge $-1 $132 -30 $89 -10 $99 $113 forward 7 unknown #
coedge $-1 $95 $133 $86 $110 forward $83 $-1 #
edge $-1 $112 -30 $97 30 $109 $134 forward 7 unknown #
coedge $-1 $135 $87 $133 $136 reversed $58 $-1 #
vertex $-1 $136 $137 #
straight-curve $-1 30 0 -10 0 -1 0 I I #
point $-1 30 10 -10 #
coedge $-1 $138 $139 $94 $116 forward $129 $-1 #
edge $-1 $118 -30 $124 30 $115 $140 forward 7 unknown #
coedge $-1 $133 $95 $139 $141 reversed $83 $-1 #
vertex $-1 $141 $142 #
straight-curve $-1 -30 -30 5 0 0 -1 I I #
point $-1 -30 -30 -10 #
coedge $-1 $99 $135 $131 $143 forward $58 $-1 #
coedge $-1 $131 $101 $103 $126 forward $106 $-1 #
coedge $-1 $101 $131 $138 $144 reversed $106 $-1 #
vertex $-1 $116 $145 #
straight-curve $-1 -30 30 5 0 0 -1 I I #
edge $-1 $104 -30 $132 30 $122 $146 forward 7 unknown #
point $-1 -30 30 -10 #
face $-1 $147 $148 $2 $-1 $149 reversed single #
loop $-1 $150 $139 $105 #
plane-surface $-1 0 0 20 0 0 1 1 0 0 forward_v I I I I #
coedge $-1 $123 $122 $121 $143 reversed $106 $-1 #
vertex $-1 $108 $151 #
coedge $-1 $109 $117 $111 $136 forward $83 $-1 #
straight-curve $-1 0 -30 -10 -1 0 0 I I #
coedge $-1 $121 $111 $152 $153 reversed $58 $-1 #
edge $-1 $154 -15 $112 15 $111 $155 forward 7 unknown #
point $-1 30 -30 -10 #
coedge $-1 $152 $115 $123 $144 forward $129 $-1 #
coedge $-1 $115 $152 $117 $141 forward $129 $-1 #
straight-curve $-1 -30 0 20 0 1 0 I I #
edge $-1 $154 -30 $118 30 $139 $156 forward 7 unknown #
point $-1 -30 -30 20 #
edge $-1 $157 -15 $132 15 $121 $158 forward 7 unknown #
edge $-1 $124 -30 $157 30 $138 $159 forward 7 unknown #
point $-1 -30 30 20 #
straight-curve $-1 0 30 -10 1 0 0 I I #
face $-1 $160 $161 $2 $-1 $162 reversed single #
loop $-1 $-1 $163 $128 #
plane-surface $-1 0 0 -20 0 0 1 1 0 0 forward_v I I I I #
loop $-1 $-1 $164 $105 #
point $-1 30 30 -10 #
coedge $-1 $139 $138 $135 $153 forward $129 $-1 #
edge $-1 $157 -30 $154 30 $152 $165 forward 7 unknown #
vertex $-1 $141 $166 #
straight-curve $-1 30 -30 5 0 0 -1 I I #
straight-curve $-1 0 -30 20 -1 0 0 I I #
vertex $-1 $144 $167 #
straight-curve $-1 30 30 5 0 0 -1 I I #
straight-curve $-1 0 30 20 1 0 0 I I #
face $-1 $168 $169 $2 $-1 $170 reversed single #
loop $-1 $-1 $171 $147 #
plane-surface $-1 0 -40 0 0 1 0 0 0 1 forward_v I I I I #
coedge $-1 $172 $173 $174 $175 forward $148 $-1 #
coedge $-1 $176 $177 $178 $179 forward $150 $-1 #
straight-curve $-1 30 0 20 0 -1 0 I I #
point $-1 30 -30 20 #
point $-1 30 30 20 #
face $-1 $180 $181 $2 $-1 $182 reversed single #
loop $-1 $-1 $183 $160 #
plane-surface $-1 -40 0 0 1 0 0 0 0 -1 forward_v I I I I #
coedge $-1 $184 $185 $186 $187 forward $161 $-1 #
coedge $-1 $188 $163 $184 $189 forward $148 $-1 #
coedge $-1 $163 $188 $190 $191 forward $148 $-1 #
coedge $-1 $192 $193 $163 $175 reversed $194 $-1 #
edge $-1 $195 -40 $196 40 $174 $197 forward 7 unknown #
coedge $-1 $198 $164 $199 $200 forward $150 $-1 #
coedge $-1 $164 $198 $185 $201 forward $150 $-1 #
coedge $-1 $193 $192 $164 $179 reversed $194 $-1 #
edge $-1 $202 -40 $203 40 $178 $204 forward 7 unknown #
face $-1 $-1 $194 $2 $-1 $205 reversed single #
loop $-1 $-1 $206 $168 #
plane-surface $-1 0 40 0 0 -1 0 0 0 -1 forward_v I I I I #
coedge $-1 $207 $208 $209 $210 forward $169 $-1 #
coedge $-1 $211 $171 $172 $189 reversed $161 $-1 #
coedge $-1 $171 $211 $177 $201 reversed $161 $-1 #
coedge $-1 $208 $207 $171 $187 reversed $169 $-1 #
edge $-1 $212 -20 $213 20 $186 $214 forward 7 unknown #
coedge $-1 $173 $172 $207 $215 forward $148 $-1 #
edge $-1 $196 -40 $213 40 $184 $216 forward 7 unknown #
coedge $-1 $209 $206 $173 $191 reversed $181 $-1 #
edge $-1 $217 -40 $195 40 $190 $218 forward 7 unknown #
coedge $-1 $178 $174 $206 $219 reversed $194 $-1 #
coedge $-1 $174 $178 $211 $220 forward $194 $-1 #
loop $-1 $-1 $193 $180 #
vertex $-1 $175 $221 #
vertex $-1 $220 $222 #
straight-curve $-1 40 0 -20 0 -1 0 I I #
coedge $-1 $177 $176 $208 $223 forward $150 $-1 #
coedge $-1 $206 $209 $176 $200 reversed $181 $-1 #
edge $-1 $203 -40 $224 40 $199 $225 forward 7 unknown #
edge $-1 $212 -40 $202 40 $185 $226 forward 7 unknown #
vertex $-1 $179 $227 #
vertex $-1 $179 $228 #
straight-curve $-1 40 0 20 0 1 0 I I #
plane-surface $-1 40 0 0 -1 0 0 0 0 1 forward_v I I I I #
coedge $-1 $190 $199 $192 $219 forward $181 $-1 #
coedge $-1 $186 $183 $188 $215 reversed $169 $-1 #
coedge $-1 $183 $186 $198 $223 reversed $169 $-1 #
coedge $-1 $199 $190 $183 $210 reversed $181 $-1 #
edge $-1 $224 -20 $217 20 $209 $229 forward 7 unknown #
coedge $-1 $185 $184 $193 $220 reversed $161 $-1 #
vertex $-1 $223 $230 #
vertex $-1 $215 $231 #
straight-curve $-1 -40 -40 0 0 0 -1 I I #
edge $-1 $213 -40 $217 40 $207 $232 forward 7 unknown #
straight-curve $-1 0 -40 -20 -1 0 0 I I #
vertex $-1 $191 $233 #
straight-curve $-1 0 40 -20 1 0 0 I I #
edge $-1 $203 -20 $195 20 $192 $234 forward 7 unknown #
edge $-1 $202 -20 $196 20 $193 $235 forward 7 unknown #
point $-1 40 40 -20 #
point $-1 40 -40 -20 #
edge $-1 $224 -40 $212 40 $208 $236 forward 7 unknown #
vertex $-1 $200 $237 #
straight-curve $-1 0 40 20 -1 0 0 I I #
straight-curve $-1 0 -40 20 1 0 0 I I #
point $-1 40 -40 20 #
point $-1 40 40 20 #
straight-curve $-1 -40 40 0 0 0 -1 I I #
point $-1 -40 -40 20 #
point $-1 -40 -40 -20 #
straight-curve $-1 -40 0 -20 0 1 0 I I #
point $-1 -40 40 -20 #
straight-curve $-1 40 40 0 0 0 -1 I I #
straight-curve $-1 40 -40 0 0 0 -1 I I #
straight-curve $-1 -40 0 20 0 -1 0 I I #
point $-1 -40 40 20 #
End-of-ACIS-data 