700 0 2 0           
24 FBMach with ACIS - 7.0.3 13 ACIS 7.0.3 NT 24 Tue May 14 09:19:39 2002 
1 9.9999999999999995e-007 1e-010 
body $2 -1 $-1 $3 $-1 $4 #
bdycol-kcp $-1 -1 1 4 $5 $6 $7 $8 #
model_id-kcp-attrib $-1 -1 $-1 $-1 $0 1 1021382379 1021382379 1267138561 1 #
lump $-1 -1 $-1 $-1 $9 $0 #
transform $-1 -1 1 0 0 0 1 0 0 0 1 0 0 0 1 rotate no_reflect no_shear #
body $10 -1 $-1 $11 $-1 $12 #
body $13 -1 $-1 $14 $-1 $15 #
body $16 -1 $-1 $17 $-1 $18 #
body $19 -1 $-1 $20 $-1 $21 #
shell $-1 -1 $-1 $-1 $-1 $22 $-1 $3 #
rgb_color-st-attrib $-1 -1 $23 $-1 $5 1 0 0 #
lump $-1 -1 $-1 $-1 $24 $5 #
transform $-1 -1 1 0 0 0 1 0 0 0 1 0 0 0 1 no_rotate no_reflect no_shear #
rgb_color-st-attrib $-1 -1 $25 $-1 $6 1 0 0 #
lump $-1 -1 $-1 $-1 $26 $6 #
transform $-1 -1 1 0 0 0 1 0 0 0 1 0 0 0 1 no_rotate no_reflect no_shear #
model_id-kcp-attrib $-1 -1 $-1 $-1 $7 1 1021382379 1021382379 1267138562 1 #
lump $-1 -1 $-1 $-1 $27 $7 #
transform $-1 -1 1 0 0 0 1 0 0 0 1 0 0 0 1 no_rotate no_reflect no_shear #
rgb_color-st-attrib $-1 -1 $28 $-1 $8 1 0 0 #
lump $-1 -1 $-1 $-1 $29 $8 #
transform $-1 -1 1 0 0 0 1 0 0 0 1 0 0 0 1 no_rotate no_reflect no_shear #
face $30 -1 $-1 $31 $32 $9 $-1 $33 forward single #
model_id-kcp-attrib $-1 -1 $-1 $10 $5 1 1021382379 1021382379 1259208708 1 #
shell $-1 -1 $-1 $-1 $-1 $34 $-1 $11 #
model_id-kcp-attrib $-1 -1 $-1 $13 $6 1 1021382379 1021382379 1267073029 1 #
shell $-1 -1 $-1 $-1 $-1 $35 $-1 $14 #
shell $-1 -1 $-1 $-1 $-1 $36 $-1 $17 #
model_id-kcp-attrib $-1 -1 $-1 $19 $8 1 1021382379 1021382379 1268121603 1 #
shell $-1 -1 $-1 $-1 $-1 $37 $-1 $20 #
model_id-kcp-attrib $-1 -1 $-1 $-1 $22 1 1021382379 1021382379 1267138561 2 #
face $38 -1 $-1 $39 $40 $9 $-1 $41 reversed single #
loop $-1 -1 $-1 $-1 $42 $22 #
plane-surface $-1 -1 $-1 0 0 10 0 0 1 1 0 0 forward_v I I I I #
face $-1 -1 $-1 $43 $44 $24 $-1 $45 forward single #
face $-1 -1 $-1 $46 $47 $26 $-1 $48 forward single #
face $49 -1 $-1 $50 $51 $27 $-1 $52 forward single #
face $-1 -1 $-1 $53 $54 $29 $-1 $55 forward single #
model_id-kcp-attrib $-1 -1 $-1 $-1 $31 1 1021382379 1021382379 1267138561 3 #
face $56 -1 $-1 $57 $58 $9 $-1 $59 reversed single #
loop $-1 -1 $-1 $-1 $60 $31 #
plane-surface $-1 -1 $-1 0 -10 0 0 1 0 0 0 1 forward_v I I I I #
coedge $-1 -1 $-1 $61 $62 $63 $64 reversed $32 $-1 #
face $-1 -1 $-1 $65 $66 $24 $-1 $67 forward single #
loop $-1 -1 $-1 $-1 $68 $34 #
plane-surface $-1 -1 $-1 30 -30 -10 0 -1 0 0 0 -1 forward_v I I I I #
face $-1 -1 $-1 $69 $70 $26 $-1 $71 forward single #
loop $-1 -1 $-1 $-1 $72 $35 #
plane-surface $-1 -1 $-1 -30 30 10 0 1 0 0 0 1 forward_v I I I I #
model_id-kcp-attrib $-1 -1 $-1 $-1 $36 1 1021382379 1021382379 1267138562 2 #
face $73 -1 $-1 $74 $75 $27 $-1 $76 reversed single #
loop $-1 -1 $-1 $-1 $77 $36 #
plane-surface $-1 -1 $-1 0 0 20 0 0 1 1 0 0 forward_v I I I I #
face $-1 -1 $-1 $78 $79 $29 $-1 $80 forward single #
loop $-1 -1 $-1 $-1 $81 $37 #
plane-surface $-1 -1 $-1 -30 10 -10 -1 0 0 0 0 1 forward_v I I I I #
model_id-kcp-attrib $-1 -1 $-1 $-1 $39 1 1021382379 1021382379 1267138561 4 #
face $82 -1 $-1 $83 $84 $9 $-1 $85 forward single #
loop $-1 -1 $-1 $-1 $86 $39 #
plane-surface $-1 -1 $-1 0 10 0 0 -1 0 0 0 -1 forward_v I I I I #
coedge $-1 -1 $-1 $87 $88 $89 $90 reversed $40 $-1 #
coedge $-1 -1 $-1 $91 $42 $88 $92 forward $32 $-1 #
coedge $-1 -1 $-1 $42 $91 $93 $94 forward $32 $-1 #
coedge $-1 -1 $-1 $95 $89 $42 $64 forward $96 $-1 #
edge $97 -1 $-1 $98 -10 $99 10 $63 $100 forward @7 unknown #
face $-1 -1 $-1 $101 $102 $24 $-1 $103 forward single #
loop $-1 -1 $-1 $-1 $104 $43 #
plane-surface $-1 -1 $-1 -30 -30 -10 -1 0 0 0 0 1 forward_v I I I I #
coedge $-1 -1 $-1 $105 $106 $107 $108 forward $44 $-1 #
face $-1 -1 $-1 $109 $110 $26 $-1 $111 forward single #
loop $-1 -1 $-1 $-1 $112 $46 #
plane-surface $-1 -1 $-1 30 30 10 1 0 0 0 0 -1 forward_v I I I I #
coedge $-1 -1 $-1 $113 $114 $115 $116 forward $47 $-1 #
model_id-kcp-attrib $-1 -1 $-1 $-1 $50 1 1021382379 1021382379 1267138562 3 #
face $117 -1 $-1 $118 $119 $27 $-1 $120 reversed single #
loop $-1 -1 $-1 $-1 $121 $50 #
plane-surface $-1 -1 $-1 0 0 -20 0 0 1 1 0 0 forward_v I I I I #
coedge $-1 -1 $-1 $122 $123 $124 $125 forward $51 $-1 #
face $-1 -1 $-1 $126 $127 $29 $-1 $128 forward single #
loop $-1 -1 $-1 $-1 $129 $53 #
plane-surface $-1 -1 $-1 -30 30 -10 0 1 0 0 0 1 forward_v I I I I #
coedge $-1 -1 $-1 $130 $131 $132 $133 forward $54 $-1 #
model_id-kcp-attrib $-1 -1 $-1 $-1 $57 1 1021382379 1021382379 1267138561 5 #
face $134 -1 $-1 $135 $136 $9 $-1 $85 forward single #
loop $-1 -1 $-1 $-1 $137 $57 #
plane-surface $-1 -1 $-1 0 0 -10 0 0 1 1 0 0 forward_v I I I I #
coedge $-1 -1 $-1 $93 $138 $95 $139 reversed $58 $-1 #
coedge $-1 -1 $-1 $140 $60 $137 $141 reversed $40 $-1 #
coedge $-1 -1 $-1 $60 $140 $61 $92 reversed $40 $-1 #
coedge $-1 -1 $-1 $63 $142 $60 $90 forward $96 $-1 #
edge $-1 -1 $-1 $143 -12.5 $98 7.5 $89 $144 forward @7 unknown #
coedge $-1 -1 $-1 $62 $61 $145 $146 reversed $32 $-1 #
edge $147 -1 $-1 $98 -30 $148 30 $88 $149 forward @7 unknown #
coedge $-1 -1 $-1 $150 $86 $62 $94 reversed $58 $-1 #
edge $151 -1 $-1 $152 -30 $99 30 $93 $153 forward @7 unknown #
coedge $-1 -1 $-1 $154 $63 $86 $139 forward $96 $-1 #
loop $-1 -1 $-1 $-1 $95 $155 #
attrib_edge_convexity-kcp-attrib $-1 -1 $156 $-1 $64 2 #
vertex $-1 -1 $-1 $64 $157 #
vertex $-1 -1 $-1 $64 $158 #
straight-curve $-1 -1 $-1 -30 0 10 0 1 0 I I #
face $-1 -1 $-1 $159 $160 $24 $-1 $161 forward single #
loop $-1 -1 $-1 $-1 $162 $65 #
plane-surface $-1 -1 $-1 -30 -10 -10 0 1 0 0 0 1 forward_v I I I I #
coedge $-1 -1 $-1 $163 $164 $165 $166 forward $66 $-1 #
coedge $-1 -1 $-1 $167 $68 $164 $168 reversed $44 $-1 #
coedge $-1 -1 $-1 $68 $167 $169 $170 forward $44 $-1 #
coedge $-1 -1 $-1 $171 $165 $68 $108 reversed $172 $-1 #
edge $-1 -1 $-1 $173 -30 $174 30 $68 $175 forward @7 unknown #
face $-1 -1 $-1 $176 $177 $26 $-1 $178 forward single #
loop $-1 -1 $-1 $-1 $179 $69 #
plane-surface $-1 -1 $-1 30 -30 10 0 -1 0 0 0 -1 forward_v I I I I #
coedge $-1 -1 $-1 $180 $181 $182 $183 forward $70 $-1 #
coedge $-1 -1 $-1 $184 $72 $181 $185 reversed $47 $-1 #
coedge $-1 -1 $-1 $72 $184 $186 $187 forward $47 $-1 #
coedge $-1 -1 $-1 $188 $182 $72 $116 reversed $189 $-1 #
edge $-1 -1 $-1 $190 -30 $191 30 $72 $192 forward @7 unknown #
model_id-kcp-attrib $-1 -1 $-1 $-1 $74 1 1021382379 1021382379 1267138562 4 #
face $193 -1 $-1 $194 $195 $27 $-1 $196 reversed single #
loop $-1 -1 $-1 $-1 $197 $74 #
plane-surface $-1 -1 $-1 0 -40 0 0 1 0 0 0 1 forward_v I I I I #
coedge $-1 -1 $-1 $198 $199 $200 $201 forward $75 $-1 #
coedge $-1 -1 $-1 $202 $77 $203 $204 forward $51 $-1 #
coedge $-1 -1 $-1 $77 $202 $205 $206 forward $51 $-1 #
coedge $-1 -1 $-1 $207 $208 $77 $125 reversed $209 $-1 #
edge $-1 -1 $-1 $210 -40 $211 40 $124 $212 forward @7 unknown #
face $-1 -1 $-1 $213 $214 $29 $-1 $215 forward single #
loop $-1 -1 $-1 $-1 $216 $78 #
plane-surface $-1 -1 $-1 30 30 -10 1 0 0 0 0 -1 forward_v I I I I #
coedge $-1 -1 $-1 $217 $218 $219 $220 forward $79 $-1 #
coedge $-1 -1 $-1 $221 $81 $218 $222 reversed $54 $-1 #
coedge $-1 -1 $-1 $81 $221 $223 $224 forward $54 $-1 #
coedge $-1 -1 $-1 $225 $219 $81 $133 reversed $226 $-1 #
edge $-1 -1 $-1 $227 0 $228 20 $81 $229 forward @7 unknown #
model_id-kcp-attrib $-1 -1 $-1 $-1 $83 1 1021382379 1021382379 1267138561 6 #
face $230 -1 $-1 $231 $232 $9 $-1 $233 forward single #
loop $-1 -1 $-1 $-1 $234 $83 #
coedge $-1 -1 $-1 $235 $236 $87 $141 forward $84 $-1 #
coedge $-1 -1 $-1 $86 $150 $234 $237 reversed $58 $-1 #
edge $-1 -1 $-1 $99 -7.5 $238 12.5 $95 $239 forward @7 unknown #
coedge $-1 -1 $-1 $88 $87 $240 $241 reversed $40 $-1 #
edge $242 -1 $-1 $243 -30 $143 30 $137 $244 forward @7 unknown #
coedge $-1 -1 $-1 $89 $245 $235 $246 forward $96 $-1 #
vertex $-1 -1 $-1 $246 $247 #
straight-curve $-1 -1 $-1 -30 -10 2.5 0 0 1 I I #
coedge $-1 -1 $-1 $240 $248 $91 $146 forward $232 $-1 #
edge $249 -1 $-1 $152 -10 $148 10 $145 $250 forward @7 unknown #
attrib_edge_convexity-kcp-attrib $-1 -1 $251 $-1 $92 1 #
vertex $-1 -1 $-1 $146 $252 #
straight-curve $-1 -1 $-1 0 -10 10 1 0 0 I I #
coedge $-1 -1 $-1 $138 $93 $248 $253 reversed $58 $-1 #
attrib_edge_convexity-kcp-attrib $-1 -1 $254 $-1 $94 1 #
vertex $-1 -1 $-1 $146 $255 #
straight-curve $-1 -1 $-1 0 10 10 -1 0 0 I I #
coedge $-1 -1 $-1 $256 $95 $257 $258 forward $96 $-1 #
face $259 -1 $-1 $260 $96 $9 $-1 $261 forward single #
convexity-sys-attrib $-1 -1 $-1 $97 $64 #
point $-1 -1 $-1 -30 -10 10 #
point $-1 -1 $-1 -30 10 10 #
face $-1 -1 $-1 $262 $172 $24 $-1 $263 forward single #
loop $-1 -1 $-1 $-1 $264 $101 #
plane-surface $-1 -1 $-1 30 -10 -10 1 0 0 0 0 -1 forward_v I I I I #
coedge $-1 -1 $-1 $265 $266 $267 $268 forward $102 $-1 #
coedge $-1 -1 $-1 $269 $104 $266 $270 reversed $66 $-1 #
coedge $-1 -1 $-1 $104 $269 $105 $168 forward $66 $-1 #
coedge $-1 -1 $-1 $107 $267 $104 $166 reversed $172 $-1 #
edge $-1 -1 $-1 $174 -20 $271 0 $104 $272 forward @7 unknown #
coedge $-1 -1 $-1 $106 $105 $273 $274 reversed $44 $-1 #
edge $275 -1 $-1 $276 0 $174 20 $164 $277 forward @7 unknown #
coedge $-1 -1 $-1 $278 $264 $106 $170 reversed $160 $-1 #
edge $279 -1 $-1 $280 0 $173 20 $106 $281 forward @7 unknown #
coedge $-1 -1 $-1 $267 $107 $264 $282 reversed $172 $-1 #
loop $-1 -1 $-1 $-1 $107 $159 #
vertex $-1 -1 $-1 $170 $283 #
vertex $-1 -1 $-1 $168 $284 #
straight-curve $-1 -1 $-1 0 -30 10 -1 0 0 I I #
face $-1 -1 $-1 $285 $189 $26 $-1 $286 forward single #
loop $-1 -1 $-1 $-1 $287 $109 #
plane-surface $-1 -1 $-1 -30 -30 10 -1 0 0 0 0 1 forward_v I I I I #
coedge $-1 -1 $-1 $288 $289 $290 $291 forward $110 $-1 #
coedge $-1 -1 $-1 $292 $112 $289 $293 reversed $70 $-1 #
coedge $-1 -1 $-1 $112 $292 $113 $185 forward $70 $-1 #
coedge $-1 -1 $-1 $115 $290 $112 $183 reversed $189 $-1 #
edge $-1 -1 $-1 $191 -30 $294 30 $112 $295 forward @7 unknown #
coedge $-1 -1 $-1 $114 $113 $296 $297 reversed $47 $-1 #
edge $298 -1 $-1 $299 0 $191 10 $181 $300 forward @7 unknown #
coedge $-1 -1 $-1 $301 $287 $114 $187 reversed $177 $-1 #
edge $302 -1 $-1 $303 0 $190 10 $114 $304 forward @7 unknown #
coedge $-1 -1 $-1 $290 $115 $287 $305 reversed $189 $-1 #
loop $-1 -1 $-1 $-1 $115 $176 #
vertex $-1 -1 $-1 $187 $306 #
vertex $-1 -1 $-1 $185 $307 #
straight-curve $-1 -1 $-1 0 30 20 1 0 0 I I #
model_id-kcp-attrib $-1 -1 $-1 $-1 $118 1 1021382379 1021382379 1267138562 5 #
face $308 -1 $-1 $309 $310 $27 $-1 $311 reversed single #
loop $-1 -1 $-1 $-1 $312 $118 #
plane-surface $-1 -1 $-1 -40 0 0 1 0 0 0 0 -1 forward_v I I I I #
coedge $-1 -1 $-1 $313 $205 $314 $315 forward $119 $-1 #
coedge $-1 -1 $-1 $316 $121 $313 $317 forward $75 $-1 #
coedge $-1 -1 $-1 $121 $316 $318 $319 forward $75 $-1 #
coedge $-1 -1 $-1 $208 $207 $121 $201 reversed $209 $-1 #
edge $-1 -1 $-1 $320 -40 $321 40 $200 $322 forward @7 unknown #
coedge $-1 -1 $-1 $123 $122 $323 $324 forward $51 $-1 #
coedge $-1 -1 $-1 $325 $326 $122 $204 reversed $310 $-1 #
edge $-1 -1 $-1 $211 -40 $327 40 $203 $328 forward @7 unknown #
coedge $-1 -1 $-1 $197 $329 $123 $206 reversed $119 $-1 #
edge $-1 -1 $-1 $330 -40 $210 40 $205 $331 forward @7 unknown #
coedge $-1 -1 $-1 $200 $124 $329 $332 forward $209 $-1 #
coedge $-1 -1 $-1 $124 $200 $325 $333 reversed $209 $-1 #
loop $-1 -1 $-1 $-1 $207 $309 #
vertex $-1 -1 $-1 $125 $334 #
vertex $-1 -1 $-1 $125 $335 #
straight-curve $-1 -1 $-1 40 0 20 0 1 0 I I #
face $-1 -1 $-1 $336 $226 $29 $-1 $337 forward single #
loop $-1 -1 $-1 $-1 $338 $126 #
plane-surface $-1 -1 $-1 30 10 -10 0 -1 0 0 0 -1 forward_v I I I I #
coedge $-1 -1 $-1 $339 $340 $341 $342 forward $127 $-1 #
coedge $-1 -1 $-1 $343 $129 $340 $344 reversed $79 $-1 #
coedge $-1 -1 $-1 $129 $343 $130 $222 forward $79 $-1 #
coedge $-1 -1 $-1 $132 $341 $129 $220 reversed $226 $-1 #
edge $-1 -1 $-1 $228 -30 $345 30 $129 $346 forward @7 unknown #
coedge $-1 -1 $-1 $131 $130 $347 $348 reversed $54 $-1 #
edge $349 -1 $-1 $350 0 $228 20 $218 $351 forward @7 unknown #
coedge $-1 -1 $-1 $352 $338 $131 $224 reversed $214 $-1 #
edge $353 -1 $-1 $354 0 $227 20 $131 $355 forward @7 unknown #
coedge $-1 -1 $-1 $341 $132 $338 $356 reversed $226 $-1 #
loop $-1 -1 $-1 $-1 $132 $213 #
vertex $-1 -1 $-1 $224 $357 #
vertex $-1 -1 $-1 $222 $358 #
straight-curve $-1 -1 $-1 -30 10 10 0 1 0 I I #
model_id-kcp-attrib $-1 -1 $-1 $-1 $135 1 1021382379 1021382379 1267138561 7 #
face $359 -1 $-1 $155 $360 $9 $-1 $361 forward single #
loop $-1 -1 $-1 $-1 $248 $135 #
plane-surface $-1 -1 $-1 30 0 5 -1 0 0 0 0 1 forward_v I I I I #
coedge $-1 -1 $-1 $362 $257 $138 $237 forward $136 $-1 #
coedge $-1 -1 $-1 $363 $137 $142 $246 reversed $84 $-1 #
coedge $-1 -1 $-1 $137 $363 $364 $365 reversed $84 $-1 #
edge $366 -1 $-1 $238 -30 $367 30 $234 $368 forward @7 unknown #
vertex $-1 -1 $-1 $237 $369 #
straight-curve $-1 -1 $-1 -30 10 2.5 0 0 -1 I I #
coedge $-1 -1 $-1 $364 $145 $140 $241 forward $232 $-1 #
edge $-1 -1 $-1 $148 -7.5 $243 12.5 $240 $370 forward @7 unknown #
attrib_edge_convexity-kcp-attrib $-1 -1 $371 $-1 $141 2 #
vertex $-1 -1 $-1 $241 $372 #
straight-curve $-1 -1 $-1 0 -10 -10 -1 0 0 I I #
coedge $-1 -1 $-1 $142 $373 $374 $375 forward $96 $-1 #
edge $376 -1 $-1 $377 -30 $143 -10 $142 $378 forward @7 unknown #
point $-1 -1 $-1 -30 -10 -10 #
coedge $-1 -1 $-1 $145 $379 $150 $253 forward $232 $-1 #
attrib_edge_convexity-kcp-attrib $-1 -1 $380 $-1 $146 2 #
straight-curve $-1 -1 $-1 30 0 10 0 -1 0 I I #
convexity-sys-attrib $-1 -1 $-1 $147 $92 #
point $-1 -1 $-1 30 -10 10 #
edge $-1 -1 $-1 $367 -12.5 $152 7.5 $248 $381 forward @7 unknown #
convexity-sys-attrib $-1 -1 $-1 $151 $94 #
point $-1 -1 $-1 30 10 10 #
coedge $-1 -1 $-1 $373 $154 $382 $383 reversed $96 $-1 #
coedge $-1 -1 $-1 $234 $384 $154 $258 reversed $136 $-1 #
edge $385 -1 $-1 $238 10 $386 30 $154 $378 forward @7 unknown #
model_id-kcp-attrib $-1 -1 $-1 $-1 $155 1 1021382379 1021382379 1267138561 9 #
face $387 -1 $-1 $388 $389 $9 $-1 $390 forward single #
plane-surface $-1 -1 $-1 -30 0 5 1 0 0 0 0 -1 forward_v I I I I #
face $-1 -1 $-1 $-1 $391 $24 $-1 $392 reversed single #
plane-surface $-1 -1 $-1 0 -20 10 0 0 1 1 0 0 forward_v I I I I #
coedge $-1 -1 $-1 $169 $393 $171 $282 forward $160 $-1 #
coedge $-1 -1 $-1 $394 $162 $393 $395 reversed $102 $-1 #
coedge $-1 -1 $-1 $162 $394 $163 $270 forward $102 $-1 #
coedge $-1 -1 $-1 $165 $171 $162 $268 reversed $172 $-1 #
edge $-1 -1 $-1 $271 -30 $396 30 $162 $397 forward @7 unknown #
coedge $-1 -1 $-1 $164 $163 $398 $399 reversed $66 $-1 #
edge $400 -1 $-1 $401 0 $271 20 $266 $402 forward @7 unknown #
vertex $-1 -1 $-1 $270 $403 #
straight-curve $-1 -1 $-1 -30 -10 10 0 1 0 I I #
coedge $-1 -1 $-1 $398 $404 $167 $274 forward $391 $-1 #
edge $405 -1 $-1 $280 -30 $276 30 $167 $406 forward @7 unknown #
convexity-sys-attrib $-1 -1 $-1 $-1 $168 #
vertex $-1 -1 $-1 $274 $407 #
straight-curve $-1 -1 $-1 -30 -30 -10 0 0 1 I I #
coedge $-1 -1 $-1 $393 $169 $404 $408 reversed $160 $-1 #
convexity-sys-attrib $-1 -1 $-1 $-1 $170 #
vertex $-1 -1 $-1 $408 $409 #
straight-curve $-1 -1 $-1 30 -30 -10 0 0 1 I I #
edge $-1 -1 $-1 $396 0 $173 20 $264 $410 forward @7 unknown #
point $-1 -1 $-1 30 -30 10 #
point $-1 -1 $-1 -30 -30 10 #
face $-1 -1 $-1 $-1 $411 $26 $-1 $412 reversed single #
plane-surface $-1 -1 $-1 0 0 20 0 0 1 1 0 0 forward_v I I I I #
coedge $-1 -1 $-1 $186 $413 $188 $305 forward $177 $-1 #
coedge $-1 -1 $-1 $414 $179 $413 $415 reversed $110 $-1 #
coedge $-1 -1 $-1 $179 $414 $180 $293 forward $110 $-1 #
coedge $-1 -1 $-1 $182 $188 $179 $291 reversed $189 $-1 #
edge $-1 -1 $-1 $294 -30 $416 30 $179 $417 forward @7 unknown #
coedge $-1 -1 $-1 $181 $180 $418 $419 reversed $70 $-1 #
edge $420 -1 $-1 $421 0 $294 10 $289 $422 forward @7 unknown #
vertex $-1 -1 $-1 $293 $423 #
straight-curve $-1 -1 $-1 30 0 20 0 -1 0 I I #
coedge $-1 -1 $-1 $418 $424 $184 $297 forward $411 $-1 #
edge $425 -1 $-1 $303 -30 $299 30 $184 $426 forward @7 unknown #
convexity-sys-attrib $-1 -1 $-1 $-1 $185 #
vertex $-1 -1 $-1 $297 $427 #
straight-curve $-1 -1 $-1 30 30 10 0 0 1 I I #
coedge $-1 -1 $-1 $413 $186 $424 $428 reversed $177 $-1 #
convexity-sys-attrib $-1 -1 $-1 $-1 $187 #
vertex $-1 -1 $-1 $428 $429 #
straight-curve $-1 -1 $-1 -30 30 10 0 0 1 I I #
edge $-1 -1 $-1 $416 -30 $190 30 $287 $430 forward @7 unknown #
point $-1 -1 $-1 -30 30 20 #
point $-1 -1 $-1 30 30 20 #
model_id-kcp-attrib $-1 -1 $-1 $-1 $194 1 1021382379 1021382379 1267138562 6 #
face $431 -1 $-1 $-1 $209 $27 $-1 $432 reversed single #
loop $-1 -1 $-1 $-1 $325 $194 #
plane-surface $-1 -1 $-1 0 40 0 0 -1 0 0 0 -1 forward_v I I I I #
coedge $-1 -1 $-1 $433 $323 $326 $434 forward $195 $-1 #
coedge $-1 -1 $-1 $329 $197 $198 $317 reversed $119 $-1 #
coedge $-1 -1 $-1 $323 $433 $197 $315 reversed $195 $-1 #
edge $-1 -1 $-1 $330 -20 $435 20 $314 $436 forward @7 unknown #
coedge $-1 -1 $-1 $199 $198 $433 $437 forward $75 $-1 #
edge $-1 -1 $-1 $321 -40 $435 40 $313 $438 forward @7 unknown #
coedge $-1 -1 $-1 $326 $325 $199 $319 reversed $310 $-1 #
edge $-1 -1 $-1 $439 -40 $320 40 $318 $440 forward @7 unknown #
vertex $-1 -1 $-1 $201 $441 #
vertex $-1 -1 $-1 $332 $442 #
straight-curve $-1 -1 $-1 40 0 -20 0 -1 0 I I #
coedge $-1 -1 $-1 $312 $314 $202 $324 reversed $195 $-1 #
edge $-1 -1 $-1 $327 -40 $330 40 $323 $443 forward @7 unknown #
coedge $-1 -1 $-1 $318 $203 $208 $333 forward $310 $-1 #
coedge $-1 -1 $-1 $203 $318 $312 $434 reversed $310 $-1 #
vertex $-1 -1 $-1 $204 $444 #
straight-curve $-1 -1 $-1 0 40 20 -1 0 0 I I #
coedge $-1 -1 $-1 $205 $313 $207 $332 reversed $119 $-1 #
vertex $-1 -1 $-1 $324 $445 #
straight-curve $-1 -1 $-1 0 -40 20 1 0 0 I I #
edge $-1 -1 $-1 $210 -20 $321 20 $207 $446 forward @7 unknown #
edge $-1 -1 $-1 $211 -20 $320 20 $208 $447 forward @7 unknown #
point $-1 -1 $-1 40 -40 20 #
point $-1 -1 $-1 40 40 20 #
face $-1 -1 $-1 $-1 $448 $29 $-1 $449 reversed single #
plane-surface $-1 -1 $-1 0 20 10 0 0 1 1 0 0 forward_v I I I I #
coedge $-1 -1 $-1 $223 $450 $225 $356 forward $214 $-1 #
coedge $-1 -1 $-1 $451 $216 $450 $452 reversed $127 $-1 #
coedge $-1 -1 $-1 $216 $451 $217 $344 forward $127 $-1 #
coedge $-1 -1 $-1 $219 $225 $216 $342 reversed $226 $-1 #
edge $-1 -1 $-1 $345 -20 $453 0 $216 $454 forward @7 unknown #
coedge $-1 -1 $-1 $218 $217 $455 $456 reversed $79 $-1 #
edge $457 -1 $-1 $458 0 $345 20 $340 $459 forward @7 unknown #
vertex $-1 -1 $-1 $344 $460 #
straight-curve $-1 -1 $-1 0 30 10 1 0 0 I I #
coedge $-1 -1 $-1 $455 $461 $221 $348 forward $448 $-1 #
edge $462 -1 $-1 $354 0 $350 20 $221 $463 forward @7 unknown #
convexity-sys-attrib $-1 -1 $-1 $-1 $222 #
vertex $-1 -1 $-1 $348 $464 #
straight-curve $-1 -1 $-1 -30 30 -10 0 0 1 I I #
coedge $-1 -1 $-1 $450 $223 $461 $465 reversed $214 $-1 #
convexity-sys-attrib $-1 -1 $-1 $-1 $224 #
vertex $-1 -1 $-1 $465 $466 #
straight-curve $-1 -1 $-1 -30 10 -10 0 0 1 I I #
edge $-1 -1 $-1 $453 -30 $227 30 $338 $467 forward @7 unknown #
point $-1 -1 $-1 -30 10 10 #
point $-1 -1 $-1 -30 30 10 #
model_id-kcp-attrib $-1 -1 $-1 $-1 $231 1 1021382379 1021382379 1267138561 8 #
loop $-1 -1 $-1 $-1 $374 $231 #
plane-surface $-1 -1 $-1 0 -30 5 0 1 0 0 0 1 forward_v I I I I #
coedge $-1 -1 $-1 $384 $234 $379 $468 reversed $136 $-1 #
coedge $-1 -1 $-1 $236 $235 $469 $470 reversed $84 $-1 #
coedge $-1 -1 $-1 $471 $240 $236 $365 forward $232 $-1 #
edge $472 -1 $-1 $243 10 $473 30 $364 $474 forward @7 unknown #
attrib_edge_convexity-kcp-attrib $-1 -1 $475 $-1 $237 2 #
vertex $-1 -1 $-1 $468 $476 #
straight-curve $-1 -1 $-1 0 10 -10 1 0 0 I I #
point $-1 -1 $-1 -30 10 -10 #
straight-curve $-1 -1 $-1 30 -10 2.5 0 0 -1 I I #
convexity-sys-attrib $-1 -1 $-1 $242 $141 #
point $-1 -1 $-1 30 -10 -10 #
coedge $-1 -1 $-1 $245 $256 $477 $478 reversed $96 $-1 #
coedge $-1 -1 $-1 $479 $469 $245 $375 reversed $360 $-1 #
edge $-1 -1 $-1 $480 -15 $377 15 $245 $481 forward @7 unknown #
attrib_edge_convexity-kcp-attrib $-1 -1 $482 $-1 $246 2 #
vertex $-1 -1 $-1 $246 $483 #
straight-curve $-1 -1 $-1 -30 0 -10 0 1 0 I I #
coedge $-1 -1 $-1 $248 $484 $362 $468 forward $232 $-1 #
convexity-sys-attrib $-1 -1 $-1 $249 $146 #
straight-curve $-1 -1 $-1 30 10 2.5 0 0 1 I I #
coedge $-1 -1 $-1 $485 $486 $256 $383 forward $389 $-1 #
edge $-1 -1 $-1 $487 -15 $386 15 $382 $488 forward @7 unknown #
coedge $-1 -1 $-1 $257 $362 $485 $489 reversed $136 $-1 #
attrib_edge_convexity-kcp-attrib $-1 -1 $490 $-1 $258 2 #
vertex $-1 -1 $-1 $489 $491 #
model_id-kcp-attrib $-1 -1 $-1 $-1 $260 1 1021382379 1021382379 1267138561 10 #
face $492 -1 $-1 $493 $494 $9 $-1 $495 forward single #
loop $-1 -1 $-1 $-1 $496 $260 #
plane-surface $-1 -1 $-1 0 30 5 0 -1 0 0 0 -1 forward_v I I I I #
loop $-1 -1 $-1 $-1 $404 $262 #
plane-surface $-1 -1 $-1 0 -20 -10 0 0 1 1 0 0 forward_v I I I I #
coedge $-1 -1 $-1 $264 $278 $265 $395 forward $160 $-1 #
coedge $-1 -1 $-1 $266 $265 $497 $498 reversed $102 $-1 #
edge $499 -1 $-1 $500 0 $396 20 $393 $501 forward @7 unknown #
vertex $-1 -1 $-1 $395 $502 #
straight-curve $-1 -1 $-1 0 -10 10 1 0 0 I I #
coedge $-1 -1 $-1 $497 $273 $269 $399 forward $391 $-1 #
edge $503 -1 $-1 $276 -20 $401 0 $269 $504 forward @7 unknown #
convexity-sys-attrib $-1 -1 $-1 $-1 $270 #
vertex $-1 -1 $-1 $399 $505 #
straight-curve $-1 -1 $-1 -30 -10 -10 0 0 1 I I #
point $-1 -1 $-1 -30 -10 10 #
coedge $-1 -1 $-1 $273 $497 $278 $408 forward $391 $-1 #
convexity-sys-attrib $-1 -1 $-1 $-1 $274 #
straight-curve $-1 -1 $-1 0 -30 -10 -1 0 0 I I #
point $-1 -1 $-1 -30 -30 -10 #
edge $506 -1 $-1 $500 0 $280 20 $278 $507 forward @7 unknown #
point $-1 -1 $-1 30 -30 -10 #
straight-curve $-1 -1 $-1 30 -10 10 0 -1 0 I I #
loop $-1 -1 $-1 $-1 $424 $285 #
plane-surface $-1 -1 $-1 0 0 10 0 0 1 1 0 0 forward_v I I I I #
coedge $-1 -1 $-1 $287 $301 $288 $415 forward $177 $-1 #
coedge $-1 -1 $-1 $289 $288 $508 $509 reversed $110 $-1 #
edge $510 -1 $-1 $511 0 $416 10 $413 $512 forward @7 unknown #
vertex $-1 -1 $-1 $415 $513 #
straight-curve $-1 -1 $-1 0 -30 20 -1 0 0 I I #
coedge $-1 -1 $-1 $508 $296 $292 $419 forward $411 $-1 #
edge $514 -1 $-1 $299 -30 $421 30 $292 $515 forward @7 unknown #
convexity-sys-attrib $-1 -1 $-1 $-1 $293 #
vertex $-1 -1 $-1 $419 $516 #
straight-curve $-1 -1 $-1 30 -30 10 0 0 1 I I #
point $-1 -1 $-1 30 -30 20 #
coedge $-1 -1 $-1 $296 $508 $301 $428 forward $411 $-1 #
convexity-sys-attrib $-1 -1 $-1 $-1 $297 #
straight-curve $-1 -1 $-1 0 30 10 1 0 0 I I #
point $-1 -1 $-1 30 30 10 #
edge $517 -1 $-1 $511 -30 $303 30 $301 $518 forward @7 unknown #
point $-1 -1 $-1 -30 30 10 #
straight-curve $-1 -1 $-1 -30 0 20 0 1 0 I I #
model_id-kcp-attrib $-1 -1 $-1 $-1 $309 1 1021382379 1021382379 1267138562 7 #
plane-surface $-1 -1 $-1 40 0 0 -1 0 0 0 0 1 forward_v I I I I #
coedge $-1 -1 $-1 $314 $312 $316 $437 reversed $195 $-1 #
edge $-1 -1 $-1 $327 -20 $439 20 $326 $519 forward @7 unknown #
vertex $-1 -1 $-1 $437 $520 #
straight-curve $-1 -1 $-1 -40 -40 0 0 0 -1 I I #
edge $-1 -1 $-1 $435 -40 $439 40 $433 $521 forward @7 unknown #
straight-curve $-1 -1 $-1 0 -40 -20 -1 0 0 I I #
vertex $-1 -1 $-1 $319 $522 #
straight-curve $-1 -1 $-1 0 40 -20 1 0 0 I I #
point $-1 -1 $-1 40 40 -20 #
point $-1 -1 $-1 40 -40 -20 #
straight-curve $-1 -1 $-1 -40 0 20 0 -1 0 I I #
point $-1 -1 $-1 -40 40 20 #
point $-1 -1 $-1 -40 -40 20 #
straight-curve $-1 -1 $-1 40 -40 0 0 0 -1 I I #
straight-curve $-1 -1 $-1 40 40 0 0 0 -1 I I #
loop $-1 -1 $-1 $-1 $461 $336 #
plane-surface $-1 -1 $-1 0 20 -10 0 0 1 1 0 0 forward_v I I I I #
coedge $-1 -1 $-1 $338 $352 $339 $452 forward $214 $-1 #
coedge $-1 -1 $-1 $340 $339 $523 $524 reversed $127 $-1 #
edge $525 -1 $-1 $526 0 $453 20 $450 $527 forward @7 unknown #
vertex $-1 -1 $-1 $452 $528 #
straight-curve $-1 -1 $-1 30 10 10 0 -1 0 I I #
coedge $-1 -1 $-1 $523 $347 $343 $456 forward $448 $-1 #
edge $529 -1 $-1 $350 -30 $458 30 $343 $530 forward @7 unknown #
convexity-sys-attrib $-1 -1 $-1 $-1 $344 #
vertex $-1 -1 $-1 $456 $531 #
straight-curve $-1 -1 $-1 30 30 -10 0 0 1 I I #
point $-1 -1 $-1 30 30 10 #
coedge $-1 -1 $-1 $347 $523 $352 $465 forward $448 $-1 #
convexity-sys-attrib $-1 -1 $-1 $-1 $348 #
straight-curve $-1 -1 $-1 -30 10 -10 0 1 0 I I #
point $-1 -1 $-1 -30 30 -10 #
edge $532 -1 $-1 $526 -30 $354 30 $352 $533 forward @7 unknown #
point $-1 -1 $-1 -30 10 -10 #
straight-curve $-1 -1 $-1 0 10 10 -1 0 0 I I #
edge $534 -1 $-1 $535 -30 $367 -10 $379 $474 forward @7 unknown #
coedge $-1 -1 $-1 $374 $536 $363 $470 forward $360 $-1 #
edge $537 -1 $-1 $473 -30 $377 30 $469 $538 forward @7 unknown #
coedge $-1 -1 $-1 $539 $364 $536 $540 reversed $232 $-1 #
attrib_edge_convexity-kcp-attrib $-1 -1 $541 $-1 $365 2 #
vertex $-1 -1 $-1 $540 $542 #
straight-curve $-1 -1 $-1 30 0 -10 0 -1 0 I I #
convexity-sys-attrib $-1 -1 $-1 $366 $237 #
point $-1 -1 $-1 30 10 -10 #
coedge $-1 -1 $-1 $543 $544 $373 $478 forward $494 $-1 #
edge $545 -1 $-1 $480 -30 $487 30 $477 $546 forward @7 unknown #
coedge $-1 -1 $-1 $536 $374 $544 $547 reversed $360 $-1 #
vertex $-1 -1 $-1 $547 $548 #
straight-curve $-1 -1 $-1 -30 -30 5 0 0 -1 I I #
convexity-sys-attrib $-1 -1 $-1 $376 $246 #
point $-1 -1 $-1 -30 -30 -10 #
coedge $-1 -1 $-1 $379 $539 $496 $549 forward $232 $-1 #
coedge $-1 -1 $-1 $496 $382 $384 $489 forward $389 $-1 #
coedge $-1 -1 $-1 $382 $496 $543 $550 reversed $389 $-1 #
vertex $-1 -1 $-1 $478 $551 #
straight-curve $-1 -1 $-1 -30 30 5 0 0 -1 I I #
edge $552 -1 $-1 $386 -30 $535 30 $485 $553 forward @7 unknown #
convexity-sys-attrib $-1 -1 $-1 $385 $258 #
point $-1 -1 $-1 -30 30 -10 #
model_id-kcp-attrib $-1 -1 $-1 $-1 $388 1 1021382379 1021382379 1267138561 11 #
face $554 -1 $-1 $555 $556 $9 $-1 $557 reversed single #
loop $-1 -1 $-1 $558 $544 $388 #
plane-surface $-1 -1 $-1 0 0 20 0 0 1 1 0 0 forward_v I I I I #
coedge $-1 -1 $-1 $486 $485 $484 $549 reversed $389 $-1 #
coedge $-1 -1 $-1 $404 $398 $394 $498 forward $391 $-1 #
edge $559 -1 $-1 $401 -30 $500 30 $394 $560 forward @7 unknown #
convexity-sys-attrib $-1 -1 $-1 $-1 $395 #
vertex $-1 -1 $-1 $408 $561 #
straight-curve $-1 -1 $-1 30 -10 -10 0 0 1 I I #
point $-1 -1 $-1 30 -10 10 #
convexity-sys-attrib $-1 -1 $-1 $-1 $399 #
straight-curve $-1 -1 $-1 -30 -10 -10 0 1 0 I I #
point $-1 -1 $-1 -30 -10 -10 #
convexity-sys-attrib $-1 -1 $-1 $-1 $408 #
straight-curve $-1 -1 $-1 30 -10 -10 0 -1 0 I I #
coedge $-1 -1 $-1 $424 $418 $414 $509 forward $411 $-1 #
edge $562 -1 $-1 $421 -30 $511 30 $414 $563 forward @7 unknown #
convexity-sys-attrib $-1 -1 $-1 $-1 $415 #
vertex $-1 -1 $-1 $428 $564 #
straight-curve $-1 -1 $-1 -30 -30 10 0 0 1 I I #
point $-1 -1 $-1 -30 -30 20 #
convexity-sys-attrib $-1 -1 $-1 $-1 $419 #
straight-curve $-1 -1 $-1 30 0 10 0 -1 0 I I #
point $-1 -1 $-1 30 -30 10 #
convexity-sys-attrib $-1 -1 $-1 $-1 $428 #
straight-curve $-1 -1 $-1 -30 0 10 0 1 0 I I #
straight-curve $-1 -1 $-1 -40 40 0 0 0 -1 I I #
point $-1 -1 $-1 -40 -40 -20 #
straight-curve $-1 -1 $-1 -40 0 -20 0 1 0 I I #
point $-1 -1 $-1 -40 40 -20 #
coedge $-1 -1 $-1 $461 $455 $451 $524 forward $448 $-1 #
edge $565 -1 $-1 $458 -20 $526 0 $451 $566 forward @7 unknown #
convexity-sys-attrib $-1 -1 $-1 $-1 $452 #
vertex $-1 -1 $-1 $465 $567 #
straight-curve $-1 -1 $-1 30 10 -10 0 0 1 I I #
point $-1 -1 $-1 30 10 10 #
convexity-sys-attrib $-1 -1 $-1 $-1 $456 #
straight-curve $-1 -1 $-1 0 30 -10 1 0 0 I I #
point $-1 -1 $-1 30 30 -10 #
convexity-sys-attrib $-1 -1 $-1 $-1 $465 #
straight-curve $-1 -1 $-1 0 10 -10 -1 0 0 I I #
attrib_edge_convexity-kcp-attrib $-1 -1 $568 $-1 $468 2 #
vertex $-1 -1 $-1 $468 $569 #
coedge $-1 -1 $-1 $469 $479 $471 $540 forward $360 $-1 #
attrib_edge_convexity-kcp-attrib $-1 -1 $570 $-1 $470 2 #
straight-curve $-1 -1 $-1 0 -30 -10 -1 0 0 I I #
coedge $-1 -1 $-1 $484 $471 $571 $572 reversed $232 $-1 #
edge $-1 -1 $-1 $573 -15 $473 15 $471 $574 forward @7 unknown #
convexity-sys-attrib $-1 -1 $-1 $472 $365 #
point $-1 -1 $-1 30 -30 -10 #
coedge $-1 -1 $-1 $571 $477 $486 $550 forward $494 $-1 #
coedge $-1 -1 $-1 $477 $571 $479 $547 forward $494 $-1 #
attrib_edge_convexity-kcp-attrib $-1 -1 $575 $-1 $478 1 #
straight-curve $-1 -1 $-1 -30 0 20 0 1 0 I I #
edge $576 -1 $-1 $573 -30 $480 30 $544 $577 forward @7 unknown #
point $-1 -1 $-1 -30 -30 20 #
edge $-1 -1 $-1 $578 -15 $535 15 $484 $579 forward @7 unknown #
edge $580 -1 $-1 $487 -30 $578 30 $543 $581 forward @7 unknown #
point $-1 -1 $-1 -30 30 20 #
attrib_edge_convexity-kcp-attrib $-1 -1 $582 $-1 $489 2 #
straight-curve $-1 -1 $-1 0 30 -10 1 0 0 I I #
model_id-kcp-attrib $-1 -1 $-1 $-1 $493 1 1021382379 1021382379 1267138561 12 #
face $583 -1 $-1 $584 $585 $9 $-1 $586 reversed single #
loop $-1 -1 $-1 $-1 $587 $493 #
plane-surface $-1 -1 $-1 0 0 -20 0 0 1 1 0 0 forward_v I I I I #
loop $-1 -1 $-1 $-1 $588 $388 #
convexity-sys-attrib $-1 -1 $-1 $-1 $498 #
straight-curve $-1 -1 $-1 0 -10 -10 1 0 0 I I #
point $-1 -1 $-1 30 -10 -10 #
convexity-sys-attrib $-1 -1 $-1 $-1 $509 #
straight-curve $-1 -1 $-1 0 -30 10 -1 0 0 I I #
point $-1 -1 $-1 -30 -30 10 #
convexity-sys-attrib $-1 -1 $-1 $-1 $524 #
straight-curve $-1 -1 $-1 30 10 -10 0 -1 0 I I #
point $-1 -1 $-1 30 10 -10 #
convexity-sys-attrib $-1 -1 $-1 $534 $468 #
point $-1 -1 $-1 30 30 -10 #
convexity-sys-attrib $-1 -1 $-1 $537 $470 #
coedge $-1 -1 $-1 $544 $543 $539 $572 forward $494 $-1 #
edge $589 -1 $-1 $578 -30 $573 30 $571 $590 forward @7 unknown #
vertex $-1 -1 $-1 $547 $591 #
straight-curve $-1 -1 $-1 30 -30 5 0 0 -1 I I #
convexity-sys-attrib $-1 -1 $-1 $545 $478 #
attrib_edge_convexity-kcp-attrib $-1 -1 $592 $-1 $547 1 #
straight-curve $-1 -1 $-1 0 -30 20 -1 0 0 I I #
vertex $-1 -1 $-1 $550 $593 #
straight-curve $-1 -1 $-1 30 30 5 0 0 -1 I I #
attrib_edge_convexity-kcp-attrib $-1 -1 $594 $-1 $550 1 #
straight-curve $-1 -1 $-1 0 30 20 1 0 0 I I #
convexity-sys-attrib $-1 -1 $-1 $552 $489 #
model_id-kcp-attrib $-1 -1 $-1 $-1 $555 1 1021382379 1021382379 1267138561 13 #
face $595 -1 $-1 $596 $597 $9 $-1 $598 reversed single #
loop $-1 -1 $-1 $-1 $599 $555 #
plane-surface $-1 -1 $-1 0 -40 0 0 1 0 0 0 1 forward_v I I I I #
coedge $-1 -1 $-1 $600 $601 $602 $603 forward $556 $-1 #
coedge $-1 -1 $-1 $604 $605 $606 $607 forward $558 $-1 #
attrib_edge_convexity-kcp-attrib $-1 -1 $608 $-1 $572 1 #
straight-curve $-1 -1 $-1 30 0 20 0 -1 0 I I #
point $-1 -1 $-1 30 -30 20 #
convexity-sys-attrib $-1 -1 $-1 $576 $547 #
point $-1 -1 $-1 30 30 20 #
convexity-sys-attrib $-1 -1 $-1 $580 $550 #
model_id-kcp-attrib $-1 -1 $-1 $-1 $584 1 1021382379 1021382379 1267138561 14 #
face $609 -1 $-1 $610 $611 $9 $-1 $612 reversed single #
loop $-1 -1 $-1 $-1 $613 $584 #
plane-surface $-1 -1 $-1 -40 0 0 1 0 0 0 0 -1 forward_v I I I I #
coedge $-1 -1 $-1 $614 $615 $616 $617 forward $585 $-1 #
coedge $-1 -1 $-1 $618 $587 $614 $619 forward $556 $-1 #
coedge $-1 -1 $-1 $587 $618 $620 $621 forward $556 $-1 #
coedge $-1 -1 $-1 $622 $623 $587 $603 reversed $624 $-1 #
edge $-1 -1 $-1 $625 -40 $626 40 $602 $627 forward @7 unknown #
coedge $-1 -1 $-1 $628 $588 $629 $630 forward $558 $-1 #
coedge $-1 -1 $-1 $588 $628 $615 $631 forward $558 $-1 #
coedge $-1 -1 $-1 $623 $622 $588 $607 reversed $624 $-1 #
edge $632 -1 $-1 $633 -40 $634 40 $606 $635 forward @7 unknown #
convexity-sys-attrib $-1 -1 $-1 $589 $572 #
model_id-kcp-attrib $-1 -1 $-1 $-1 $596 1 1021382379 1021382379 1267138561 15 #
face $636 -1 $-1 $-1 $624 $9 $-1 $637 reversed single #
loop $-1 -1 $-1 $-1 $638 $596 #
plane-surface $-1 -1 $-1 0 40 0 0 -1 0 0 0 -1 forward_v I I I I #
coedge $-1 -1 $-1 $639 $640 $641 $642 forward $597 $-1 #
coedge $-1 -1 $-1 $643 $599 $600 $619 reversed $585 $-1 #
coedge $-1 -1 $-1 $599 $643 $605 $631 reversed $585 $-1 #
coedge $-1 -1 $-1 $640 $639 $599 $617 reversed $597 $-1 #
edge $644 -1 $-1 $645 -20 $646 20 $616 $647 forward @7 unknown #
coedge $-1 -1 $-1 $601 $600 $639 $648 forward $556 $-1 #
edge $649 -1 $-1 $626 -40 $646 40 $614 $650 forward @7 unknown #
coedge $-1 -1 $-1 $641 $638 $601 $621 reversed $611 $-1 #
edge $-1 -1 $-1 $651 -40 $625 40 $620 $652 forward @7 unknown #
coedge $-1 -1 $-1 $606 $602 $638 $653 reversed $624 $-1 #
coedge $-1 -1 $-1 $602 $606 $643 $654 forward $624 $-1 #
loop $-1 -1 $-1 $-1 $623 $610 #
vertex $-1 -1 $-1 $603 $655 #
vertex $-1 -1 $-1 $654 $656 #
straight-curve $-1 -1 $-1 40 0 -20 0 -1 0 I I #
coedge $-1 -1 $-1 $605 $604 $640 $657 forward $558 $-1 #
coedge $-1 -1 $-1 $638 $641 $604 $630 reversed $611 $-1 #
edge $658 -1 $-1 $634 -40 $659 40 $629 $660 forward @7 unknown #
edge $661 -1 $-1 $645 -40 $633 40 $615 $662 forward @7 unknown #
attrib_edge_convexity-kcp-attrib $-1 -1 $663 $-1 $607 1 #
vertex $-1 -1 $-1 $607 $664 #
vertex $-1 -1 $-1 $607 $665 #
straight-curve $-1 -1 $-1 40 0 20 0 1 0 I I #
model_id-kcp-attrib $-1 -1 $-1 $-1 $610 1 1021382379 1021382379 1267138561 16 #
plane-surface $-1 -1 $-1 40 0 0 -1 0 0 0 0 1 forward_v I I I I #
coedge $-1 -1 $-1 $620 $629 $622 $653 forward $611 $-1 #
coedge $-1 -1 $-1 $616 $613 $618 $648 reversed $597 $-1 #
coedge $-1 -1 $-1 $613 $616 $628 $657 reversed $597 $-1 #
coedge $-1 -1 $-1 $629 $620 $613 $642 reversed $611 $-1 #
edge $666 -1 $-1 $659 -20 $651 20 $641 $667 forward @7 unknown #
coedge $-1 -1 $-1 $615 $614 $623 $654 reversed $585 $-1 #
attrib_edge_convexity-kcp-attrib $-1 -1 $668 $-1 $617 1 #
vertex $-1 -1 $-1 $657 $669 #
vertex $-1 -1 $-1 $648 $670 #
straight-curve $-1 -1 $-1 -40 -40 0 0 0 -1 I I #
edge $671 -1 $-1 $646 -40 $651 40 $639 $672 forward @7 unknown #
attrib_edge_convexity-kcp-attrib $-1 -1 $673 $-1 $619 1 #
straight-curve $-1 -1 $-1 0 -40 -20 -1 0 0 I I #
vertex $-1 -1 $-1 $621 $674 #
straight-curve $-1 -1 $-1 0 40 -20 1 0 0 I I #
edge $-1 -1 $-1 $634 -20 $625 20 $622 $675 forward @7 unknown #
edge $676 -1 $-1 $633 -20 $626 20 $623 $677 forward @7 unknown #
point $-1 -1 $-1 40 40 -20 #
point $-1 -1 $-1 40 -40 -20 #
edge $678 -1 $-1 $659 -40 $645 40 $640 $679 forward @7 unknown #
attrib_edge_convexity-kcp-attrib $-1 -1 $680 $-1 $630 1 #
vertex $-1 -1 $-1 $630 $681 #
straight-curve $-1 -1 $-1 0 40 20 -1 0 0 I I #
attrib_edge_convexity-kcp-attrib $-1 -1 $682 $-1 $631 1 #
straight-curve $-1 -1 $-1 0 -40 20 1 0 0 I I #
convexity-sys-attrib $-1 -1 $-1 $632 $607 #
point $-1 -1 $-1 40 -40 20 #
point $-1 -1 $-1 40 40 20 #
attrib_edge_convexity-kcp-attrib $-1 -1 $683 $-1 $642 1 #
straight-curve $-1 -1 $-1 -40 40 0 0 0 -1 I I #
convexity-sys-attrib $-1 -1 $-1 $644 $617 #
point $-1 -1 $-1 -40 -40 20 #
point $-1 -1 $-1 -40 -40 -20 #
attrib_edge_convexity-kcp-attrib $-1 -1 $684 $-1 $648 1 #
straight-curve $-1 -1 $-1 -40 0 -20 0 1 0 I I #
convexity-sys-attrib $-1 -1 $-1 $649 $619 #
point $-1 -1 $-1 -40 40 -20 #
straight-curve $-1 -1 $-1 40 40 0 0 0 -1 I I #
attrib_edge_convexity-kcp-attrib $-1 -1 $685 $-1 $654 1 #
straight-curve $-1 -1 $-1 40 -40 0 0 0 -1 I I #
attrib_edge_convexity-kcp-attrib $-1 -1 $686 $-1 $657 1 #
straight-curve $-1 -1 $-1 -40 0 20 0 -1 0 I I #
convexity-sys-attrib $-1 -1 $-1 $658 $630 #
point $-1 -1 $-1 -40 40 20 #
convexity-sys-attrib $-1 -1 $-1 $661 $631 #
convexity-sys-attrib $-1 -1 $-1 $666 $642 #
convexity-sys-attrib $-1 -1 $-1 $671 $648 #
convexity-sys-attrib $-1 -1 $-1 $676 $654 #
convexity-sys-attrib $-1 -1 $-1 $678 $657 #
End-of-ACIS-data 