106 0 1 0           
body $-1 $1 $-1 $-1 #
lump $-1 $-1 $2 $0 #
shell $-1 $-1 $-1 $3 $1 #
face $-1 $4 $5 $2 $-1 $6 forward single #
face $-1 $7 $8 $2 $-1 $9 reversed single #
loop $-1 $-1 $10 $3 #
plane-surface $-1 0 0 10 0 0 1 1 0 0 0 I I I I #
face $-1 $11 $12 $2 $-1 $13 reversed single #
loop $-1 $-1 $14 $4 #
plane-surface $-1 0 -10 0 0 1 0 0 0 1 0 I I I I #
coedge $-1 $15 $16 $17 $18 1 $5 $-1 #
face $-1 $19 $20 $2 $-1 $21 forward single #
loop $-1 $-1 $22 $7 #
plane-surface $-1 0 10 0 0 -1 0 0 0 -1 0 I I I I #
coedge $-1 $23 $24 $25 $26 1 $8 $-1 #
coedge $-1 $27 $10 $24 $28 0 $5 $-1 #
coedge $-1 $10 $27 $29 $30 0 $5 $-1 #
coedge $-1 $31 $25 $10 $18 0 $32 $-1 #
edge $-1 $33 $34 $17 $35 0 #
face $-1 $36 $37 $2 $-1 $21 forward single #
loop $-1 $-1 $38 $11 #
plane-surface $-1 0 0 -10 0 0 1 1 0 0 0 I I I I #
coedge $-1 $29 $39 $31 $40 1 $12 $-1 #
coedge $-1 $41 $14 $38 $42 1 $8 $-1 #
coedge $-1 $14 $41 $15 $28 1 $8 $-1 #
coedge $-1 $17 $43 $14 $26 0 $32 $-1 #
edge $-1 $44 $33 $25 $45 0 #
coedge $-1 $16 $15 $46 $47 1 $5 $-1 #
edge $-1 $33 $48 $24 $49 0 #
coedge $-1 $50 $22 $16 $30 1 $12 $-1 #
edge $-1 $51 $34 $29 $52 0 #
coedge $-1 $53 $17 $22 $40 0 $32 $-1 #
loop $-1 $-1 $31 $54 #
vertex $-1 $18 $55 #
vertex $-1 $18 $56 #
straight-curve $-1 -30 0 10 0 1 0 I I #
face $-1 $57 $58 $2 $-1 $59 forward single #
loop $-1 $-1 $60 $19 #
coedge $-1 $61 $62 $23 $42 0 $20 $-1 #
coedge $-1 $22 $50 $60 $63 1 $12 $-1 #
edge $-1 $34 $64 $31 $65 0 #
coedge $-1 $24 $23 $66 $67 1 $8 $-1 #
edge $-1 $68 $44 $38 $69 0 #
coedge $-1 $25 $70 $61 $71 0 $32 $-1 #
vertex $-1 $71 $72 #
straight-curve $-1 -30 -10 2.5 0 0 1 I I #
coedge $-1 $66 $73 $27 $47 0 $58 $-1 #
edge $-1 $51 $48 $46 $74 0 #
vertex $-1 $47 $75 #
straight-curve $-1 0 -10 10 1 0 0 I I #
coedge $-1 $39 $29 $73 $76 1 $12 $-1 #
vertex $-1 $47 $77 #
straight-curve $-1 0 10 10 -1 0 0 I I #
coedge $-1 $78 $31 $79 $80 0 $32 $-1 #
face $-1 $81 $32 $2 $-1 $82 forward single #
point $-1 -30 -10 10 #
point $-1 -30 10 10 #
face $-1 $54 $83 $2 $-1 $84 forward single #
loop $-1 $-1 $73 $36 #
plane-surface $-1 30 0 5 -1 0 0 0 0 1 0 I I I I #
coedge $-1 $85 $79 $39 $63 0 $37 $-1 #
coedge $-1 $86 $38 $43 $71 1 $20 $-1 #
coedge $-1 $38 $86 $87 $88 1 $20 $-1 #
edge $-1 $64 $89 $60 $90 0 #
vertex $-1 $63 $91 #
straight-curve $-1 -30 10 2.5 0 0 -1 I I #
coedge $-1 $87 $46 $41 $67 0 $58 $-1 #
edge $-1 $48 $68 $66 $92 0 #
vertex $-1 $67 $93 #
straight-curve $-1 0 -10 -10 -1 0 0 I I #
coedge $-1 $43 $94 $95 $96 0 $32 $-1 #
edge $-1 $97 $44 $43 $98 0 #
point $-1 -30 -10 -10 #
coedge $-1 $46 $99 $50 $76 0 $58 $-1 #
straight-curve $-1 30 0 10 0 -1 0 I I #
point $-1 30 -10 10 #
edge $-1 $89 $51 $73 $100 0 #
point $-1 30 10 10 #
coedge $-1 $94 $53 $101 $102 1 $32 $-1 #
coedge $-1 $60 $103 $53 $80 1 $37 $-1 #
edge $-1 $64 $104 $53 $98 0 #
face $-1 $105 $106 $2 $-1 $107 forward single #
plane-surface $-1 -30 0 5 1 0 0 0 0 -1 0 I I I I #
loop $-1 $-1 $95 $57 #
plane-surface $-1 0 -30 5 0 1 0 0 0 1 0 I I I I #
coedge $-1 $103 $60 $99 $108 1 $37 $-1 #
coedge $-1 $62 $61 $109 $110 1 $20 $-1 #
coedge $-1 $111 $66 $62 $88 0 $58 $-1 #
edge $-1 $68 $112 $87 $113 0 #
vertex $-1 $108 $114 #
straight-curve $-1 0 10 -10 1 0 0 I I #
point $-1 -30 10 -10 #
straight-curve $-1 30 -10 2.5 0 0 -1 I I #
point $-1 30 -10 -10 #
coedge $-1 $70 $78 $115 $116 1 $32 $-1 #
coedge $-1 $117 $109 $70 $96 1 $83 $-1 #
edge $-1 $118 $97 $70 $119 0 #
vertex $-1 $71 $120 #
straight-curve $-1 -30 0 -10 0 1 0 I I #
coedge $-1 $73 $121 $85 $108 0 $58 $-1 #
straight-curve $-1 30 10 2.5 0 0 1 I I #
coedge $-1 $122 $123 $78 $102 0 $106 $-1 #
edge $-1 $124 $104 $101 $125 0 #
coedge $-1 $79 $85 $122 $126 1 $37 $-1 #
vertex $-1 $126 $127 #
face $-1 $128 $129 $2 $-1 $130 forward single #
loop $-1 $-1 $131 $81 #
plane-surface $-1 0 30 5 0 -1 0 0 0 -1 0 I I I I #
edge $-1 $132 $89 $99 $113 0 #
coedge $-1 $95 $133 $86 $110 0 $83 $-1 #
edge $-1 $112 $97 $109 $134 0 #
coedge $-1 $135 $87 $133 $136 1 $58 $-1 #
vertex $-1 $136 $137 #
straight-curve $-1 30 0 -10 0 -1 0 I I #
point $-1 30 10 -10 #
coedge $-1 $138 $139 $94 $116 0 $129 $-1 #
edge $-1 $118 $124 $115 $140 0 #
coedge $-1 $133 $95 $139 $141 1 $83 $-1 #
vertex $-1 $141 $142 #
straight-curve $-1 -30 -30 5 0 0 -1 I I #
point $-1 -30 -30 -10 #
coedge $-1 $99 $135 $131 $143 0 $58 $-1 #
coedge $-1 $131 $101 $103 $126 0 $106 $-1 #
coedge $-1 $101 $131 $138 $144 1 $106 $-1 #
vertex $-1 $116 $145 #
straight-curve $-1 -30 30 5 0 0 -1 I I #
edge $-1 $104 $132 $122 $146 0 #
point $-1 -30 30 -10 #
face $-1 $147 $148 $2 $-1 $149 reversed single #
loop $-1 $150 $139 $105 #
plane-surface $-1 0 0 20 0 0 1 1 0 0 0 I I I I #
coedge $-1 $123 $122 $121 $143 1 $106 $-1 #
vertex $-1 $108 $151 #
coedge $-1 $109 $117 $111 $136 0 $83 $-1 #
straight-curve $-1 0 -30 -10 -1 0 0 I I #
coedge $-1 $121 $111 $152 $153 1 $58 $-1 #
edge $-1 $154 $112 $111 $155 0 #
point $-1 30 -30 -10 #
coedge $-1 $152 $115 $123 $144 0 $129 $-1 #
coedge $-1 $115 $152 $117 $141 0 $129 $-1 #
straight-curve $-1 -30 0 20 0 1 0 I I #
edge $-1 $154 $118 $139 $156 0 #
point $-1 -30 -30 20 #
edge $-1 $157 $132 $121 $158 0 #
edge $-1 $124 $157 $138 $159 0 #
point $-1 -30 30 20 #
straight-curve $-1 0 30 -10 1 0 0 I I #
face $-1 $160 $161 $2 $-1 $162 reversed single #
loop $-1 $-1 $163 $128 #
plane-surface $-1 0 0 -20 0 0 1 1 0 0 0 I I I I #
loop $-1 $-1 $164 $105 #
point $-1 30 30 -10 #
coedge $-1 $139 $138 $135 $153 0 $129 $-1 #
edge $-1 $157 $154 $152 $165 0 #
vertex $-1 $141 $166 #
straight-curve $-1 30 -30 5 0 0 -1 I I #
straight-curve $-1 0 -30 20 -1 0 0 I I #
vertex $-1 $144 $167 #
straight-curve $-1 30 30 5 0 0 -1 I I #
straight-curve $-1 0 30 20 1 0 0 I I #
face $-1 $168 $169 $2 $-1 $170 reversed single #
loop $-1 $-1 $171 $147 #
plane-surface $-1 0 -40 0 0 1 0 0 0 1 0 I I I I #
coedge $-1 $172 $173 $174 $175 0 $148 $-1 #
coedge $-1 $176 $177 $178 $179 0 $150 $-1 #
straight-curve $-1 30 0 20 0 -1 0 I I #
point $-1 30 -30 20 #
point $-1 30 30 20 #
face $-1 $180 $181 $2 $-1 $182 reversed single #
loop $-1 $-1 $183 $160 #
plane-surface $-1 -40 0 0 1 0 0 0 0 -1 0 I I I I #
coedge $-1 $184 $185 $186 $187 0 $161 $-1 #
coedge $-1 $188 $163 $184 $189 0 $148 $-1 #
coedge $-1 $163 $188 $190 $191 0 $148 $-1 #
coedge $-1 $192 $193 $163 $175 1 $194 $-1 #
edge $-1 $195 $196 $174 $197 0 #
coedge $-1 $198 $164 $199 $200 0 $150 $-1 #
coedge $-1 $164 $198 $185 $201 0 $150 $-1 #
coedge $-1 $193 $192 $164 $179 1 $194 $-1 #
edge $-1 $202 $203 $178 $204 0 #
face $-1 $-1 $194 $2 $-1 $205 reversed single #
loop $-1 $-1 $206 $168 #
plane-surface $-1 0 40 0 0 -1 0 0 0 -1 0 I I I I #
coedge $-1 $207 $208 $209 $210 0 $169 $-1 #
coedge $-1 $211 $171 $172 $189 1 $161 $-1 #
coedge $-1 $171 $211 $177 $201 1 $161 $-1 #
coedge $-1 $208 $207 $171 $187 1 $169 $-1 #
edge $-1 $212 $213 $186 $214 0 #
coedge $-1 $173 $172 $207 $215 0 $148 $-1 #
edge $-1 $196 $213 $184 $216 0 #
coedge $-1 $209 $206 $173 $191 1 $181 $-1 #
edge $-1 $217 $195 $190 $218 0 #
coedge $-1 $178 $174 $206 $219 1 $194 $-1 #
coedge $-1 $174 $178 $211 $220 0 $194 $-1 #
loop $-1 $-1 $193 $180 #
vertex $-1 $175 $221 #
vertex $-1 $220 $222 #
straight-curve $-1 40 0 -20 0 -1 0 I I #
coedge $-1 $177 $176 $208 $223 0 $150 $-1 #
coedge $-1 $206 $209 $176 $200 1 $181 $-1 #
edge $-1 $203 $224 $199 $225 0 #
edge $-1 $212 $202 $185 $226 0 #
vertex $-1 $179 $227 #
vertex $-1 $179 $228 #
straight-curve $-1 40 0 20 0 1 0 I I #
plane-surface $-1 40 0 0 -1 0 0 0 0 1 0 I I I I #
coedge $-1 $190 $199 $192 $219 0 $181 $-1 #
coedge $-1 $186 $183 $188 $215 1 $169 $-1 #
coedge $-1 $183 $186 $198 $223 1 $169 $-1 #
coedge $-1 $199 $190 $183 $210 1 $181 $-1 #
edge $-1 $224 $217 $209 $229 0 #
coedge $-1 $185 $184 $193 $220 1 $161 $-1 #
vertex $-1 $223 $230 #
vertex $-1 $215 $231 #
straight-curve $-1 -40 -40 0 0 0 -1 I I #
edge $-1 $213 $217 $207 $232 0 #
straight-curve $-1 0 -40 -20 -1 0 0 I I #
vertex $-1 $191 $233 #
straight-curve $-1 0 40 -20 1 0 0 I I #
edge $-1 $203 $195 $192 $234 0 #
edge $-1 $202 $196 $193 $235 0 #
point $-1 40 40 -20 #
point $-1 40 -40 -20 #
edge $-1 $224 $212 $208 $236 0 #
vertex $-1 $200 $237 #
straight-curve $-1 0 40 20 -1 0 0 I I #
straight-curve $-1 0 -40 20 1 0 0 I I #
point $-1 40 -40 20 #
point $-1 40 40 20 #
straight-curve $-1 -40 40 0 0 0 -1 I I #
point $-1 -40 -40 20 #
point $-1 -40 -40 -20 #
straight-curve $-1 -40 0 -20 0 1 0 I I #
point $-1 -40 40 -20 #
straight-curve $-1 40 40 0 0 0 -1 I I #
straight-curve $-1 40 -40 0 0 0 -1 I I #
straight-curve $-1 -40 0 20 0 -1 0 I I #
point $-1 -40 40 20 #
End-of-ACIS-data 