**ABCDEFGHIJKLMNOPQRSTUVWXYZabcdefghijklmnopqrstuvwxyz**************************
**PARASOLID !"#$%&'()*+,-./:;<=>?@[\]^_`{|}~0123456789**************************
**PART1;MC=sun;MC_MODEL=Sun-3;MC_ID=unknown;OS=SunOS;OS_RELEASE=unknown;FRU=sdl_
parasolid_test_sun;APPL=unknown;SITE=sdl-cambridge-u.k.;USER=kramer;FORMAT=text;
GUISE=transmit;KEY=removed_6;FILE=removed_6.xmt_txt;DATE=16-oct-1990;
**PART2;SCH=SCH_210_1012;USFLD_SIZE=0;
**PART3;
**END_OF_HEADER*****************************************************************
T47 : TRANSMIT FILE created by modeller version 22012 SCH_210_10120 12 1 830 0 0
 0 0 0 1e3 1e-8 2 2 0 3 0 1 4 102 9 2 removed_613 4 339 0 1 0 5 6 7 8 9 10 14 5
 285 0 11 0 12 4 8 +16 6 334 0 13 0 14 9 18 7 318 0 15 0 16 10 50 8 286 0 5 17 0
 0 +3.26 2.495 .48 0 0 -1 30 9 336 0 6 18 0 0 +2.76 3.815 .48 0 0 1 29 10 320 0
 7 19 0 2.76 3.555 1.24 29 19 317 0 16 20 10 2.76 1.435 1.24 18 16 315 0 21 7 22
 19 29 20 292 0 22 23 19 2.771149307047645 1.435 .48 18 22 290 0 24 16 25 20 29
 23 289 0 25 26 20 2.918276427503165 1.175 .48 18 25 287 0 27 22 28 23 29 26 278
 0 28 29 23 2.771149307047645 3.555 .48 18 28 276 0 30 25 31 26 29 29 271 0 31 3
2 26 2.918276427503165 3.815 .48 18 31 269 0 33 28 34 29 29 32 267 0 34 35 29 2.
76 1.175 .48 18 34 265 0 36 31 37 32 29 35 263 0 37 38 32 2.76 1.435 .48 18 37 2
61 0 39 34 40 35 29 38 259 0 40 41 35 2.76 3.555 .48 18 40 257 0 42 37 43 38 29
 41 255 0 43 44 38 2.76 3.815 .48 18 43 253 0 45 40 46 41 29 44 233 0 46 47 41 3
.06 3.815 1.5 18 46 231 0 48 43 49 44 29 47 229 0 49 50 44 2.76 3.815 1.5 18 49
 227 0 13 46 51 47 29 50 225 0 51 52 47 2.76 1.175 1.5 18 51 223 0 53 49 54 50 2
9 52 760 0 54 55 50 3.06 3.815 .5 18 54 542 0 56 51 57 52 29 55 761 0 57 58 52 2
.918276427503165 3.815 .5 18 57 543 0 59 54 60 55 29 58 769 0 60 61 55 2.9182764
27503165 1.175 .5 18 60 551 0 62 57 63 58 29 61 770 0 63 64 58 3.06 1.175 .5 18
 63 552 0 65 60 66 61 29 64 773 0 66 67 61 3.06 1.175 1.5 18 66 555 0 68 63 69 6
4 29 67 778 0 69 70 64 3.06 3.53784271247462 .5 18 69 560 0 71 66 72 67 29 70 77
9 0 72 73 67 3.06 3.53784271247462 1.24 18 72 561 0 74 69 75 70 29 73 780 0 75 7
6 70 3.06 1.45215728752538 1.24 18 75 562 0 77 72 78 73 29 76 781 0 78 79 73 3.0
6 1.45215728752538 .5 18 78 563 0 80 75 81 76 29 79 792 0 81 82 76 2.77114930704
7645 3.555 .5 18 81 574 0 83 78 84 79 29 82 794 0 84 85 79 2.96 3.555 .5 18 84 5
76 0 86 81 87 82 29 85 795 0 87 88 82 2.771149307047645 1.435 .5 18 87 577 0 89
 84 90 85 29 88 796 0 90 91 85 2.96 1.435 .5 18 90 578 0 92 87 93 88 29 91 802 0
 93 94 88 2.96 3.555 1.24 18 93 584 0 95 90 96 91 29 94 806 0 96 0 91 2.96 1.435
 1.24 18 96 588 0 97 93 0 94 17 97 98 99 77 96 100 101 15 98 397 0 99 102 0 17 9
9 98 15 97 16 103 104 17 77 98 97 105 75 106 107 17 100 108 80 109 75 97 101 16
 101 503 0 100 110 104 111 16 110 498 0 112 113 101 114 16 104 510 0 99 101 115
 116 31 111 721 0 101 116 114 0 +2.96 1.735 1.24 0 0 1 .3 30 116 728 0 104 117 1
11 0 +1.76 1.435 1.24 -1 0 0 30 114 716 0 110 111 118 0 +2.96 3.555 0 0 0 -1 30
 118 713 0 113 114 119 0 +2.96 1.435 0 0 0 1 16 113 495 0 109 120 110 118 30 119
 712 0 120 118 121 0 +4.51 1.435 .5 1 0 0 16 120 494 0 92 122 113 119 30 121 710
 0 122 119 123 0 +4.51 3.555 .5 -1 0 0 16 122 492 0 83 124 120 121 30 123 709 0
 124 121 125 0 -2.771149307047645 3.555 0 0 0 1 16 124 491 0 126 127 122 123 31
 125 708 0 127 123 128 0 +2.96 1.735 .5 0 0 1 .3 16 127 490 0 129 130 124 125 31
 128 705 0 130 125 131 0 +2.96 3.255 .5 0 0 1 .3 16 130 487 0 86 132 127 128 31
 131 703 0 132 128 133 0 +2.96 3.255 1.24 0 0 1 .3 16 132 485 0 134 135 130 131
 30 133 692 0 135 131 136 0 +3.06 2.495 .5 0 -1 0 16 135 474 0 137 138 132 133 3
0 136 691 0 138 133 139 0 -3.06 1.45215728752538 0 0 0 1 16 138 473 0 80 107 135
 136 30 139 690 0 107 136 140 0 +3.06 2.495 1.24 0 -1 0 16 107 472 0 77 141 138
 139 30 140 689 0 141 139 142 0 +3.06 3.53784271247462 0 0 0 1 16 141 471 0 74 1
43 107 140 30 142 676 0 143 140 144 0 +4.51 1.175 .5 -1 0 0 16 143 458 0 62 145
 141 142 30 144 675 0 145 142 146 0 -2.918276427503165 1.175 0 0 0 1 16 145 457
 0 147 148 143 144 30 146 674 0 148 144 149 0 +3.06 1.175 .4 0 0 -1 16 148 456 0
 65 150 145 146 31 149 673 0 150 146 151 0 +3.26 3.45 .5 0 0 1 .5 16 150 455 0 1
52 153 148 149 30 151 672 0 153 149 154 0 +3.06 2.495 .5 0 -1 0 16 153 454 0 71
 155 150 151 30 154 664 0 155 151 156 0 +2.918276427503165 3.815 0 0 0 1 16 155
 446 0 59 157 153 154 30 156 663 0 157 154 158 0 +4.51 3.815 .5 1 0 0 16 157 445
 0 56 159 155 156 30 158 662 0 159 156 160 0 +3.06 3.815 .4 0 0 1 16 159 444 0 1
61 162 157 158 30 160 661 0 162 158 163 0 +1.53 1.175 1.5 1 0 0 16 162 443 0 164
 165 159 160 30 163 653 0 165 160 166 0 +2.771149307047645 1.435 0 0 0 1 16 165
 435 0 167 168 162 163 30 166 648 0 168 163 169 0 +1.76 3.555 1.24 1 0 0 16 168
 430 0 170 171 165 166 30 169 226 0 171 166 172 0 +2.76 2.495 1.5 0 1 0 16 171 2
24 0 173 174 168 169 30 172 237 0 174 169 175 0 +3.06 2.495 1.5 0 -1 0 16 174 23
5 0 68 176 171 172 30 175 242 0 176 172 177 0 +3.26 3.815 1.5 1 0 0 16 176 240 0
 48 178 174 175 30 177 256 0 178 175 179 0 +2.76 2.495 .48 0 -1 0 16 178 254 0 1
80 181 176 177 30 179 264 0 181 177 182 0 +2.76 2.495 .48 0 -1 0 16 181 262 0 18
3 184 178 179 31 182 279 0 184 179 185 0 +3.26 3.45 .48 0 0 -1 .5 16 184 277 0 3
3 186 181 182 30 185 281 0 186 182 187 0 +3.26 3.555 .48 1 0 0 16 186 280 0 30 1
88 184 185 31 187 293 0 188 185 189 0 +3.26 1.54 .48 0 0 -1 .5 16 188 291 0 24 1
90 186 187 30 189 299 0 190 187 191 0 +3.26 1.435 .48 -1 0 0 16 190 298 0 39 192
 188 189 30 191 307 0 192 189 193 0 +3.26 1.175 .48 1 0 0 16 192 305 0 27 194 19
0 191 30 193 312 0 194 191 195 0 +3.26 3.815 .48 -1 0 0 16 194 310 0 45 196 192
 193 30 195 321 0 196 193 197 0 +2.76 2.495 1.24 0 1 0 16 196 319 0 15 198 194 1
95 30 197 323 0 198 195 199 0 +2.76 1.435 .48 0 0 1 16 198 322 0 21 200 196 197
 30 199 326 0 200 197 18 0 +2.76 3.555 .48 0 0 -1 16 200 324 0 42 14 198 199 30
 18 331 0 14 199 9 0 +2.76 1.175 .48 0 0 -1 16 14 329 0 36 6 200 18 17 36 201 27
 53 34 202 14 15 201 367 0 53 203 0 17 27 201 204 36 25 205 192 17 53 201 36 206
 51 164 162 17 202 207 173 183 51 36 14 15 207 335 0 208 11 0 17 173 207 208 202
 49 209 171 17 183 207 202 210 34 211 181 17 210 207 183 212 37 21 198 17 211 12
 213 205 37 183 181 15 12 306 0 205 5 0 17 213 12 214 211 22 39 190 17 205 12 21
1 214 34 27 192 17 214 12 205 213 25 24 188 17 24 215 167 147 22 214 188 15 215
 399 0 147 216 0 17 167 215 217 24 87 218 165 17 147 215 24 217 25 204 145 17 21
7 215 147 167 60 219 115 17 204 201 220 27 60 147 145 17 220 201 206 204 63 62 1
43 17 206 201 53 220 66 65 148 17 62 221 219 137 60 220 143 15 221 405 0 137 222
 0 17 219 221 92 62 87 217 115 17 137 221 62 129 63 223 135 17 129 221 137 92 78
 224 127 17 223 225 226 65 78 137 135 15 225 371 0 227 228 0 17 226 225 106 223
 75 80 138 17 65 225 223 68 63 206 148 17 68 225 65 161 66 229 174 17 161 225 68
 227 46 230 159 17 229 231 232 164 46 68 174 15 231 241 0 232 233 0 17 232 231 2
09 229 49 48 176 17 164 231 229 209 66 53 162 17 209 231 164 232 51 173 171 17 4
8 234 230 13 46 232 176 15 234 361 0 45 235 0 17 230 234 236 48 54 161 159 17 13
 234 48 45 49 208 6 17 45 234 13 237 43 238 194 17 208 207 180 173 43 13 6 17 18
0 207 239 208 40 240 178 17 239 207 212 180 7 42 200 17 240 241 238 242 43 180 1
78 15 241 311 0 238 243 0 17 238 241 244 240 31 45 194 17 242 241 240 244 40 30
 186 17 244 241 242 238 28 33 184 17 30 245 246 42 28 242 186 15 245 387 0 247 2
48 0 17 246 245 249 30 81 126 124 17 42 245 30 247 40 239 200 17 247 245 42 95 7
 170 168 17 95 245 247 249 93 112 110 17 170 98 105 15 93 247 168 17 105 98 77 1
70 72 134 132 17 15 98 170 99 7 212 196 17 212 207 210 239 16 15 196 17 134 250
 112 74 93 105 132 15 250 383 0 251 252 0 17 112 250 251 134 84 95 110 17 74 250
 134 251 72 253 141 17 251 250 74 112 69 86 130 17 253 225 227 106 69 74 141 17
 227 225 161 253 54 71 153 17 106 225 253 226 72 77 107 17 71 254 86 56 69 227 1
53 15 254 379 0 255 256 0 17 86 254 83 71 84 251 130 17 56 254 71 255 54 236 157
 17 255 254 56 83 57 152 150 17 236 234 237 230 57 56 157 17 237 234 45 236 31 5
9 155 17 59 257 152 33 57 237 155 15 257 401 0 126 258 0 17 152 257 126 59 81 25
5 150 17 33 257 59 126 31 244 184 17 126 257 33 152 28 246 124 14 258 400 0 222
 216 257 4 259 -14 222 404 0 0 258 221 4 260 -14 216 398 0 258 102 215 4 261 -51
 259 628 0 258 260 261 0 +3.26 3.45 0 0 0 1 .5 50 260 630 0 222 0 259 0 +4.51 2.
495 .5 0 0 1 51 261 627 0 216 259 262 0 +3.26 1.54 0 0 0 1 .5 50 262 626 0 102 2
61 263 0 +1.76 2.495 1.24 0 0 1 14 102 396 0 216 264 98 4 262 -50 263 622 0 264
 262 265 0 +1.76 1.435 0 0 -1 0 14 264 388 0 102 248 266 4 263 -50 265 621 0 248
 263 267 0 +1.76 3.555 0 0 1 0 14 248 386 0 264 268 245 4 265 -51 267 620 0 268
 265 269 0 +2.96 1.735 0 0 0 1 .3 14 268 384 0 248 252 108 4 267 -51 269 619 0 2
52 267 270 0 +2.96 3.255 0 0 0 1 .3 14 252 382 0 268 256 250 4 269 -50 270 617 0
 256 269 271 0 +4.51 2.495 .5 0 0 1 14 256 378 0 252 228 254 4 270 -50 271 613 0
 228 270 272 0 +3.06 2.495 .4 -1 0 0 14 228 370 0 256 203 225 4 271 -50 272 611
 0 203 271 273 0 +1.53 1.175 .48 0 1 0 14 203 366 0 228 235 201 4 272 -50 273 60
8 0 235 272 274 0 +1.53 3.815 .48 0 -1 0 14 235 360 0 203 233 234 4 273 -50 274
 107 0 233 273 275 0 +3.26 2.495 1.5 0 0 1 14 233 106 0 235 243 231 4 274 +50 27
5 161 0 243 274 17 0 +3.26 2.495 .48 0 0 -1 14 243 160 0 233 11 241 4 275 +50 17
 171 0 11 275 8 0 +2.76 2.495 .48 -1 0 0 14 11 170 0 243 5 207 4 17 +15 108 385
 0 100 268 0 15 266 389 0 39 264 0 17 39 266 21 218 37 213 190 17 21 266 103 39
 16 210 198 17 218 266 39 89 22 167 165 17 89 266 218 276 87 92 120 17 276 266 8
9 103 90 109 113 17 92 221 129 219 90 89 120 17 103 266 276 21 96 99 104 17 109
 108 100 224 96 276 113 17 224 108 109 80 90 129 127 17 80 108 224 100 78 226 13
8 17 83 254 255 86 81 249 122 17 249 245 95 246 84 83 122 16 115 512 0 217 104 0
 117 31 117 730 0 115 0 116 0 +3.26 1.54 .5 0 0 1 .5 1 0 
