  0
SECTION
  2
HEADER
  9
$ACADVER
  1
AC1009
  9
$INSBASE
 10
0.0
 20
0.0
 30
0.0
  9
$EXTMIN
 10
-1.0
 20
0.0
 30
0.0
  9
$EXTMAX
 10
9.0
 20
8.0
 30
5.0
  9
$LIMMIN
 10
0.0
 20
0.0
  9
$LIMMAX
 10
12.0
 20
9.0
  9
$ORTHOMODE
 70
     0
  9
$REGENMODE
 70
     1
  9
$FILLMODE
 70
     1
  9
$QTEXTMODE
 70
     0
  9
$MIRRTEXT
 70
     1
  9
$DRAGMODE
 70
     2
  9
$LTSCALE
 40
1.0
  9
$OSMODE
 70
     0
  9
$ATTMODE
 70
     1
  9
$TEXTSIZE
 40
0.2
  9
$TRACEWID
 40
0.05
  9
$TEXTSTYLE
  7
STANDARD
  9
$CLAYER
  8
0
  9
$CELTYPE
  6
BYLAYER
  9
$CECOLOR
 62
   256
  9
$DIMSCALE
 40
1.0
  9
$DIMASZ
 40
0.18
  9
$DIMEXO
 40
0.0625
  9
$DIMDLI
 40
0.38
  9
$DIMRND
 40
0.0
  9
$DIMDLE
 40
0.0
  9
$DIMEXE
 40
0.18
  9
$DIMTP
 40
0.0
  9
$DIMTM
 40
0.0
  9
$DIMTXT
 40
0.18
  9
$DIMCEN
 40
0.09
  9
$DIMTSZ
 40
0.0
  9
$DIMTOL
 70
     0
  9
$DIMLIM
 70
     0
  9
$DIMTIH
 70
     1
  9
$DIMTOH
 70
     1
  9
$DIMSE1
 70
     0
  9
$DIMSE2
 70
     0
  9
$DIMTAD
 70
     0
  9
$DIMZIN
 70
     0
  9
$DIMBLK
  1

  9
$DIMASO
 70
     1
  9
$DIMSHO
 70
     1
  9
$DIMPOST
  1

  9
$DIMAPOST
  1

  9
$DIMALT
 70
     0
  9
$DIMALTD
 70
     2
  9
$DIMALTF
 40
25.4
  9
$DIMLFAC
 40
1.0
  9
$DIMTOFL
 70
     0
  9
$DIMTVP
 40
0.0
  9
$DIMTIX
 70
     0
  9
$DIMSOXD
 70
     0
  9
$DIMSAH
 70
     0
  9
$DIMBLK1
  1

  9
$DIMBLK2
  1

  9
$DIMSTYLE
  2
*UNNAMED
  9
$DIMCLRD
 70
     0
  9
$DIMCLRE
 70
     0
  9
$DIMCLRT
 70
     0
  9
$DIMTFAC
 40
1.0
  9
$DIMGAP
 40
0.09
  9
$LUNITS
 70
     2
  9
$LUPREC
 70
     4
  9
$SKETCHINC
 40
0.1
  9
$FILLETRAD
 40
0.0
  9
$AUNITS
 70
     0
  9
$AUPREC
 70
     0
  9
$MENU
  1
acad
  9
$ELEVATION
 40
0.0
  9
$PELEVATION
 40
0.0
  9
$THICKNESS
 40
0.0
  9
$LIMCHECK
 70
     0
  9
$BLIPMODE
 70
     1
  9
$CHAMFERA
 40
0.0
  9
$CHAMFERB
 40
0.0
  9
$SKPOLY
 70
     0
  9
$TDCREATE
 40
2449234.759406874
  9
$TDUPDATE
 40
2449248.562112754
  9
$TDINDWG
 40
0.0055964120
  9
$TDUSRTIMER
 40
0.0055964120
  9
$USRTIMER
 70
     1
  9
$ANGBASE
 50
0.0
  9
$ANGDIR
 70
     0
  9
$PDMODE
 70
     0
  9
$PDSIZE
 40
0.0
  9
$PLINEWID
 40
0.0
  9
$COORDS
 70
     0
  9
$SPLFRAME
 70
     0
  9
$SPLINETYPE
 70
     6
  9
$SPLINESEGS
 70
     8
  9
$ATTDIA
 70
     0
  9
$ATTREQ
 70
     1
  9
$HANDLING
 70
     1
  9
$HANDSEED
  5
1A3
  9
$SURFTAB1
 70
     6
  9
$SURFTAB2
 70
     6
  9
$SURFTYPE
 70
     6
  9
$SURFU
 70
     6
  9
$SURFV
 70
     6
  9
$UCSNAME
  2

  9
$UCSORG
 10
0.0
 20
0.0
 30
0.0
  9
$UCSXDIR
 10
1.0
 20
0.0
 30
0.0
  9
$UCSYDIR
 10
0.0
 20
1.0
 30
0.0
  9
$PUCSNAME
  2

  9
$PUCSORG
 10
0.0
 20
0.0
 30
0.0
  9
$PUCSXDIR
 10
1.0
 20
0.0
 30
0.0
  9
$PUCSYDIR
 10
0.0
 20
1.0
 30
0.0
  9
$USERI1
 70
     0
  9
$USERI2
 70
     0
  9
$USERI3
 70
     0
  9
$USERI4
 70
     0
  9
$USERI5
 70
     0
  9
$USERR1
 40
0.0
  9
$USERR2
 40
0.0
  9
$USERR3
 40
0.0
  9
$USERR4
 40
0.0
  9
$USERR5
 40
0.0
  9
$WORLDVIEW
 70
     1
  9
$SHADEDGE
 70
     3
  9
$SHADEDIF
 70
    70
  9
$TILEMODE
 70
     1
  9
$MAXACTVP
 70
    16
  9
$PINSBASE
 10
0.0
 20
0.0
 30
0.0
  9
$PLIMCHECK
 70
     0
  9
$PEXTMIN
 10
1.000000E+20
 20
1.000000E+20
 30
1.000000E+20
  9
$PEXTMAX
 10
-1.000000E+20
 20
-1.000000E+20
 30
-1.000000E+20
  9
$PLIMMIN
 10
0.0
 20
0.0
  9
$PLIMMAX
 10
12.0
 20
9.0
  9
$UNITMODE
 70
     0
  9
$VISRETAIN
 70
     0
  9
$PLINEGEN
 70
     0
  9
$PSLTSCALE
 70
     0
  9
$TREEDEPTH
 70
  3020
  9
$DWGCODEPAGE
  3
undefined
  0
ENDSEC
  0
SECTION
  2
TABLES
  0
TABLE
  2
VPORT
 70
     2
  0
VPORT
  2
*ACTIVE
 70
     0
 10
0.0
 20
0.0
 11
1.0
 21
1.0
 12
6.176972
 22
4.5
 13
0.0
 23
0.0
 14
1.0
 24
1.0
 15
0.0
 25
0.0
 16
0.0
 26
0.0
 36
1.0
 17
0.0
 27
0.0
 37
0.0
 40
9.0
 41
1.594883
 42
50.0
 43
0.0
 44
0.0
 50
0.0
 51
0.0
 71
     0
 72
   100
 73
     1
 74
     1
 75
     0
 76
     0
 77
     0
 78
     0
  0
ENDTAB
  0
TABLE
  2
LTYPE
 70
     1
  0
LTYPE
  2
CONTINUOUS
 70
    64
  3
Solid line
 72
    65
 73
     0
 40
0.0
  0
ENDTAB
  0
TABLE
  2
LAYER
 70
     2
  0
LAYER
  2
0
 70
    64
 62
     7
  6
CONTINUOUS
  0
LAYER
  2
AME_FRZ
 70
    65
 62
     7
  6
CONTINUOUS
  0
ENDTAB
  0
TABLE
  2
STYLE
 70
     1
  0
STYLE
  2
STANDARD
 70
     0
 40
0.0
 41
1.0
 50
0.0
 71
     0
 42
0.2
  3
txt
  4

  0
ENDTAB
  0
TABLE
  2
VIEW
 70
     0
  0
ENDTAB
  0
TABLE
  2
UCS
 70
     0
  0
ENDTAB
  0
TABLE
  2
APPID
 70
     2
  0
APPID
  2
ACAD
 70
    64
  0
APPID
  2
AME_SOL
 70
    64
  0
ENDTAB
  0
TABLE
  2
DIMSTYLE
 70
     0
  0
ENDTAB
  0
ENDSEC
  0
SECTION
  2
BLOCKS
  0
BLOCK
  8
0
  5
1
  2
AME_NIL
 70
    64
 10
0.0
 20
0.0
 30
0.0
  1
AME_NIL
  3
AME_NIL
  0
ENDBLK
  8
0
  5
2
  0
BLOCK
  8
0
  5
4
  2
AME_SOL
 70
    64
 10
0.0
 20
0.0
 30
0.0
  1
AME_SOL
  3
AME_SOL
  0
ENDBLK
  8
0
  5
5
  0
BLOCK
  8
0
  5
29
  2
*U2
 70
    65
 10
0.0
 20
0.0
 30
0.0
  1
*U
  3
*U
  0
LINE
  8
0
 62
     0
  5
2A
 10
5.0
 20
5.0
 30
0.0
 11
5.0
 21
5.0
 31
5.0
1001
AME_SOL
1070
     1
1071
       18
  0
LINE
  8
0
 62
     0
  5
2B
 10
5.0
 20
5.0
 30
5.0
 11
5.0
 21
0.0
 31
5.0
1001
AME_SOL
1070
     1
1071
       17
  0
LINE
  8
0
 62
     0
  5
2C
 10
0.0
 20
5.0
 30
5.0
 11
5.0
 21
5.0
 31
5.0
1001
AME_SOL
1070
     1
1071
       16
  0
LINE
  8
0
 62
     0
  5
2D
 10
0.0
 20
5.0
 30
0.0
 11
0.0
 21
5.0
 31
5.0
1001
AME_SOL
1070
     1
1071
       15
  0
LINE
  8
0
 62
     0
  5
2E
 10
0.0
 20
5.0
 30
5.0
 11
0.0
 21
0.0
 31
5.0
1001
AME_SOL
1070
     1
1071
       14
  0
LINE
  8
0
 62
     0
  5
2F
 10
0.0
 20
0.0
 30
0.0
 11
0.0
 21
0.0
 31
5.0
1001
AME_SOL
1070
     1
1071
       13
  0
LINE
  8
0
 62
     0
  5
30
 10
5.0
 20
0.0
 30
5.0
 11
5.0
 21
0.0
 31
0.0
1001
AME_SOL
1070
     1
1071
       12
  0
LINE
  8
0
 62
     0
  5
31
 10
0.0
 20
0.0
 30
5.0
 11
5.0
 21
0.0
 31
5.0
1001
AME_SOL
1070
     1
1071
       11
  0
LINE
  8
0
 62
     0
  5
32
 10
0.0
 20
0.0
 30
0.0
 11
5.0
 21
0.0
 31
0.0
1001
AME_SOL
1070
     1
1071
       10
  0
LINE
  8
0
 62
     0
  5
33
 10
0.0
 20
5.0
 30
0.0
 11
0.0
 21
0.0
 31
0.0
1001
AME_SOL
1070
     1
1071
        9
  0
LINE
  8
0
 62
     0
  5
34
 10
5.0
 20
0.0
 30
0.0
 11
5.0
 21
5.0
 31
0.0
1001
AME_SOL
1070
     1
1071
        8
  0
LINE
  8
0
 62
     0
  5
35
 10
5.0
 20
5.0
 30
0.0
 11
0.0
 21
5.0
 31
0.0
1001
AME_SOL
1070
     1
1071
        7
  0
ENDBLK
  8
0
  5
36
  0
BLOCK
  8
0
  5
3A
  2
*U3
 70
    65
 10
0.0
 20
0.0
 30
0.0
  1
*U
  3
*U
  0
LINE
  8
0
 62
     0
  5
3B
 10
5.0
 20
5.0
 30
0.0
 11
5.0
 21
5.0
 31
5.0
1001
AME_SOL
1070
     1
1071
       18
  0
LINE
  8
0
 62
     0
  5
3C
 10
5.0
 20
5.0
 30
5.0
 11
5.0
 21
0.0
 31
5.0
1001
AME_SOL
1070
     1
1071
       17
  0
LINE
  8
0
 62
     0
  5
3D
 10
0.0
 20
5.0
 30
5.0
 11
5.0
 21
5.0
 31
5.0
1001
AME_SOL
1070
     1
1071
       16
  0
LINE
  8
0
 62
     0
  5
3E
 10
0.0
 20
5.0
 30
0.0
 11
0.0
 21
5.0
 31
5.0
1001
AME_SOL
1070
     1
1071
       15
  0
LINE
  8
0
 62
     0
  5
3F
 10
0.0
 20
5.0
 30
5.0
 11
0.0
 21
0.0
 31
5.0
1001
AME_SOL
1070
     1
1071
       14
  0
LINE
  8
0
 62
     0
  5
40
 10
0.0
 20
0.0
 30
0.0
 11
0.0
 21
0.0
 31
5.0
1001
AME_SOL
1070
     1
1071
       13
  0
LINE
  8
0
 62
     0
  5
41
 10
5.0
 20
0.0
 30
5.0
 11
5.0
 21
0.0
 31
0.0
1001
AME_SOL
1070
     1
1071
       12
  0
LINE
  8
0
 62
     0
  5
42
 10
0.0
 20
0.0
 30
5.0
 11
5.0
 21
0.0
 31
5.0
1001
AME_SOL
1070
     1
1071
       11
  0
LINE
  8
0
 62
     0
  5
43
 10
0.0
 20
0.0
 30
0.0
 11
5.0
 21
0.0
 31
0.0
1001
AME_SOL
1070
     1
1071
       10
  0
LINE
  8
0
 62
     0
  5
44
 10
0.0
 20
5.0
 30
0.0
 11
0.0
 21
0.0
 31
0.0
1001
AME_SOL
1070
     1
1071
        9
  0
LINE
  8
0
 62
     0
  5
45
 10
5.0
 20
0.0
 30
0.0
 11
5.0
 21
5.0
 31
0.0
1001
AME_SOL
1070
     1
1071
        8
  0
LINE
  8
0
 62
     0
  5
46
 10
5.0
 20
5.0
 30
0.0
 11
0.0
 21
5.0
 31
0.0
1001
AME_SOL
1070
     1
1071
        7
  0
ENDBLK
  8
0
  5
47
  0
BLOCK
  8
0
  5
4B
  2
*U4
 70
    65
 10
0.0
 20
0.0
 30
0.0
  1
*U
  3
*U
  0
LINE
  8
0
 62
     0
  5
4C
 10
8.0
 20
8.0
 30
0.0
 11
8.0
 21
8.0
 31
5.0
1001
AME_SOL
1070
     1
1071
       18
  0
LINE
  8
0
 62
     0
  5
4D
 10
8.0
 20
8.0
 30
5.0
 11
8.0
 21
0.0
 31
5.0
1001
AME_SOL
1070
     1
1071
       17
  0
LINE
  8
0
 62
     0
  5
4E
 10
0.0
 20
8.0
 30
5.0
 11
8.0
 21
8.0
 31
5.0
1001
AME_SOL
1070
     1
1071
       16
  0
LINE
  8
0
 62
     0
  5
4F
 10
0.0
 20
8.0
 30
0.0
 11
0.0
 21
8.0
 31
5.0
1001
AME_SOL
1070
     1
1071
       15
  0
LINE
  8
0
 62
     0
  5
50
 10
0.0
 20
8.0
 30
5.0
 11
0.0
 21
0.0
 31
5.0
1001
AME_SOL
1070
     1
1071
       14
  0
LINE
  8
0
 62
     0
  5
51
 10
0.0
 20
0.0
 30
0.0
 11
0.0
 21
0.0
 31
5.0
1001
AME_SOL
1070
     1
1071
       13
  0
LINE
  8
0
 62
     0
  5
52
 10
8.0
 20
0.0
 30
5.0
 11
8.0
 21
0.0
 31
0.0
1001
AME_SOL
1070
     1
1071
       12
  0
LINE
  8
0
 62
     0
  5
53
 10
0.0
 20
0.0
 30
5.0
 11
8.0
 21
0.0
 31
5.0
1001
AME_SOL
1070
     1
1071
       11
  0
LINE
  8
0
 62
     0
  5
54
 10
0.0
 20
0.0
 30
0.0
 11
8.0
 21
0.0
 31
0.0
1001
AME_SOL
1070
     1
1071
       10
  0
LINE
  8
0
 62
     0
  5
55
 10
0.0
 20
8.0
 30
0.0
 11
0.0
 21
0.0
 31
0.0
1001
AME_SOL
1070
     1
1071
        9
  0
LINE
  8
0
 62
     0
  5
56
 10
8.0
 20
0.0
 30
0.0
 11
8.0
 21
8.0
 31
0.0
1001
AME_SOL
1070
     1
1071
        8
  0
LINE
  8
0
 62
     0
  5
57
 10
8.0
 20
8.0
 30
0.0
 11
0.0
 21
8.0
 31
0.0
1001
AME_SOL
1070
     1
1071
        7
  0
ENDBLK
  8
0
  5
58
  0
BLOCK
  8
0
  5
5E
  2
*U5
 70
    65
 10
0.0
 20
0.0
 30
0.0
  1
*U
  3
*U
  0
LINE
  8
0
 62
     7
  5
5F
 10
8.0
 20
8.0
 30
0.0
 11
8.0
 21
8.0
 31
5.0
1001
AME_SOL
1070
     1
1071
       48
  0
LINE
  8
0
 62
     7
  5
60
 10
8.0
 20
7.994463
 30
5.0
 11
8.0
 21
0.0
 31
5.0
1001
AME_SOL
1070
     1
1071
       47
  0
LINE
  8
0
 62
     7
  5
61
 10
8.0
 20
8.0
 30
5.0
 11
8.0
 21
7.996499
 31
5.0
1001
AME_SOL
1070
     1
1071
       46
  0
LINE
  8
0
 62
     7
  5
62
 10
7.995332
 20
8.0
 30
5.0
 11
8.0
 21
8.0
 31
5.0
1001
AME_SOL
1070
     1
1071
       45
  0
LINE
  8
0
 62
     7
  5
63
 10
0.0
 20
8.0
 30
5.0
 11
0.002466
 21
8.0
 31
5.0
1001
AME_SOL
1070
     1
1071
       44
  0
LINE
  8
0
 62
     7
  5
64
 10
0.0
 20
8.0
 30
0.0
 11
0.0
 21
8.0
 31
5.0
1001
AME_SOL
1070
     1
1071
       43
  0
LINE
  8
0
 62
     7
  5
65
 10
0.0
 20
8.0
 30
5.0
 11
0.0
 21
0.0
 31
5.0
1001
AME_SOL
1070
     1
1071
       42
  0
LINE
  8
0
 62
     7
  5
66
 10
0.0
 20
0.0
 30
0.0
 11
0.0
 21
0.0
 31
5.0
1001
AME_SOL
1070
     1
1071
       41
  0
LINE
  8
0
 62
     7
  5
67
 10
8.0
 20
0.0
 30
5.0
 11
8.0
 21
0.0
 31
0.0
1001
AME_SOL
1070
     1
1071
       40
  0
LINE
  8
0
 62
     7
  5
68
 10
0.0
 20
0.0
 30
5.0
 11
8.0
 21
0.0
 31
5.0
1001
AME_SOL
1070
     1
1071
       39
  0
LINE
  8
0
 62
     7
  5
69
 10
0.0
 20
0.0
 30
0.0
 11
8.0
 21
0.0
 31
0.0
1001
AME_SOL
1070
     1
1071
       38
  0
LINE
  8
0
 62
     7
  5
6A
 10
0.0
 20
8.0
 30
0.0
 11
0.0
 21
0.0
 31
0.0
1001
AME_SOL
1070
     1
1071
       37
  0
LINE
  8
0
 62
     7
  5
6B
 10
8.0
 20
7.996498
 30
0.0
 11
8.0
 21
8.0
 31
0.0
1001
AME_SOL
1070
     1
1071
       36
  0
LINE
  8
0
 62
     7
  5
6C
 10
8.0
 20
0.0
 30
0.0
 11
8.0
 21
7.994463
 31
0.0
1001
AME_SOL
1070
     1
1071
       35
  0
LINE
  8
0
 62
     7
  5
6D
 10
0.002466
 20
8.0
 30
0.0
 11
0.0
 21
8.0
 31
0.0
1001
AME_SOL
1070
     1
1071
       34
  0
LINE
  8
0
 62
     7
  5
6E
 10
8.0
 20
8.0
 30
0.0
 11
7.995331
 21
8.0
 31
0.0
1001
AME_SOL
1070
     1
1071
       33
  0
LINE
  8
0
 62
     7
  5
6F
 10
7.995331
 20
8.0
 30
0.0
 11
8.0
 21
7.996498
 31
0.0
1001
AME_SOL
1070
     1
1071
       32
  0
LINE
  8
0
 62
     7
  5
70
 10
8.0
 20
7.996499
 30
0.0
 11
8.0
 21
7.996499
 31
5.0
1001
AME_SOL
1070
     1
1071
       31
  0
LINE
  8
0
 62
     7
  5
71
 10
7.995332
 20
8.0
 30
5.0
 11
7.995332
 21
8.0
 31
0.0
1001
AME_SOL
1070
     1
1071
       30
  0
LINE
  8
0
 62
     7
  5
72
 10
8.0
 20
7.996499
 30
5.0
 11
7.995332
 21
8.0
 31
5.0
1001
AME_SOL
1070
     1
1071
       29
  0
LINE
  8
0
 62
     7
  5
73
 10
5.00097
 20
3.995772
 30
0.0
 11
3.998899
 21
4.747327
 31
0.0
1001
AME_SOL
1070
     1
1071
       28
  0
LINE
  8
0
 62
     7
  5
74
 10
3.998899
 20
4.747327
 30
5.0
 11
5.00097
 21
3.995772
 31
5.0
1001
AME_SOL
1070
     1
1071
       27
  0
LINE
  8
0
 62
     7
  5
75
 10
8.0
 20
7.994463
 30
0.0
 11
5.00097
 21
3.995772
 31
0.0
1001
AME_SOL
1070
     1
1071
       26
  0
LINE
  8
0
 62
     7
  5
76
 10
8.0
 20
7.994463
 30
5.0
 11
8.0
 21
7.994463
 31
0.0
1001
AME_SOL
1070
     1
1071
       25
  0
LINE
  8
0
 62
     7
  5
77
 10
5.000969
 20
3.995771
 30
5.0
 11
8.0
 21
7.994464
 31
5.0
1001
AME_SOL
1070
     1
1071
       24
  0
LINE
  8
0
 62
     7
  5
78
 10
5.00097
 20
3.995772
 30
0.0
 11
5.00097
 21
3.995772
 31
5.0
1001
AME_SOL
1070
     1
1071
       23
  0
LINE
  8
0
 62
     7
  5
79
 10
3.998899
 20
4.747327
 30
0.0
 11
3.000351
 21
3.998413
 31
0.0
1001
AME_SOL
1070
     1
1071
       22
  0
LINE
  8
0
 62
     7
  5
7A
 10
3.000351
 20
3.998413
 30
5.0
 11
3.9989
 21
4.747327
 31
5.0
1001
AME_SOL
1070
     1
1071
       21
  0
LINE
  8
0
 62
     7
  5
7B
 10
3.998899
 20
4.747327
 30
0.0
 11
3.998899
 21
4.747327
 31
5.0
1001
AME_SOL
1070
     1
1071
       20
  0
LINE
  8
0
 62
     7
  5
7C
 10
0.000344
 20
7.998408
 30
0.0
 11
0.002467
 21
8.0
 31
0.0
1001
AME_SOL
1070
     1
1071
       19
  0
LINE
  8
0
 62
     7
  5
7D
 10
0.002466
 20
8.0
 30
0.0
 11
0.002466
 21
8.0
 31
5.0
1001
AME_SOL
1070
     1
1071
       18
  0
LINE
  8
0
 62
     7
  5
7E
 10
0.002466
 20
8.0
 30
5.0
 11
0.000172
 21
7.998279
 31
5.0
1001
AME_SOL
1070
     1
1071
       17
  0
LINE
  8
0
 62
     7
  5
7F
 10
3.000351
 20
3.998413
 30
0.0
 11
0.000344
 21
7.998408
 31
0.0
1001
AME_SOL
1070
     1
1071
       16
  0
LINE
  8
0
 62
     7
  5
80
 10
0.000344
 20
7.998408
 30
5.0
 11
3.000351
 21
3.998414
 31
5.0
1001
AME_SOL
1070
     1
1071
       15
  0
LINE
  8
0
 62
     7
  5
81
 10
3.000351
 20
3.998414
 30
5.0
 11
3.000351
 21
3.998414
 31
0.0
1001
AME_SOL
1070
     1
1071
       14
  0
LINE
  8
0
 62
     7
  5
82
 10
0.000344
 20
7.998408
 30
0.0
 11
0.000344
 21
7.998408
 31
5.0
1001
AME_SOL
1070
     1
1071
       13
  0
ENDBLK
  8
0
  5
83
  0
BLOCK
  8
0
  5
98
  2
*U6
 70
    65
 10
0.0
 20
0.0
 30
0.0
  1
*U
  3
*U
  0
LINE
  8
0
 62
     0
  5
99
 10
2.0
 20
6.0
 30
0.0
 11
2.0
 21
6.0
 31
5.0
1001
AME_SOL
1070
     1
1071
       18
  0
LINE
  8
0
 62
     0
  5
9A
 10
2.0
 20
6.0
 30
5.0
 11
2.0
 21
0.0
 31
5.0
1001
AME_SOL
1070
     1
1071
       17
  0
LINE
  8
0
 62
     0
  5
9B
 10
0.0
 20
6.0
 30
5.0
 11
2.0
 21
6.0
 31
5.0
1001
AME_SOL
1070
     1
1071
       16
  0
LINE
  8
0
 62
     0
  5
9C
 10
0.0
 20
6.0
 30
0.0
 11
0.0
 21
6.0
 31
5.0
1001
AME_SOL
1070
     1
1071
       15
  0
LINE
  8
0
 62
     0
  5
9D
 10
0.0
 20
6.0
 30
5.0
 11
0.0
 21
0.0
 31
5.0
1001
AME_SOL
1070
     1
1071
       14
  0
LINE
  8
0
 62
     0
  5
9E
 10
0.0
 20
0.0
 30
0.0
 11
0.0
 21
0.0
 31
5.0
1001
AME_SOL
1070
     1
1071
       13
  0
LINE
  8
0
 62
     0
  5
9F
 10
2.0
 20
0.0
 30
5.0
 11
2.0
 21
0.0
 31
0.0
1001
AME_SOL
1070
     1
1071
       12
  0
LINE
  8
0
 62
     0
  5
A0
 10
0.0
 20
0.0
 30
5.0
 11
2.0
 21
0.0
 31
5.0
1001
AME_SOL
1070
     1
1071
       11
  0
LINE
  8
0
 62
     0
  5
A1
 10
0.0
 20
0.0
 30
0.0
 11
2.0
 21
0.0
 31
0.0
1001
AME_SOL
1070
     1
1071
       10
  0
LINE
  8
0
 62
     0
  5
A2
 10
0.0
 20
6.0
 30
0.0
 11
0.0
 21
0.0
 31
0.0
1001
AME_SOL
1070
     1
1071
        9
  0
LINE
  8
0
 62
     0
  5
A3
 10
2.0
 20
0.0
 30
0.0
 11
2.0
 21
6.0
 31
0.0
1001
AME_SOL
1070
     1
1071
        8
  0
LINE
  8
0
 62
     0
  5
A4
 10
2.0
 20
6.0
 30
0.0
 11
0.0
 21
6.0
 31
0.0
1001
AME_SOL
1070
     1
1071
        7
  0
ENDBLK
  8
0
  5
A5
  0
BLOCK
  8
0
  5
AA
  2
*U7
 70
    65
 10
0.0
 20
0.0
 30
0.0
  1
*U
  3
*U
  0
LINE
  8
0
 62
     7
  5
AB
 10
8.0
 20
8.0
 30
0.0
 11
8.0
 21
8.0
 31
5.0
1001
AME_SOL
1070
     1
1071
       56
  0
LINE
  8
0
 62
     7
  5
AC
 10
8.0
 20
7.994463
 30
5.0
 11
8.0
 21
0.0
 31
5.0
1001
AME_SOL
1070
     1
1071
       55
  0
LINE
  8
0
 62
     7
  5
AD
 10
8.0
 20
8.0
 30
5.0
 11
8.0
 21
7.996499
 31
5.0
1001
AME_SOL
1070
     1
1071
       54
  0
LINE
  8
0
 62
     7
  5
AE
 10
7.995332
 20
8.0
 30
5.0
 11
8.0
 21
8.0
 31
5.0
1001
AME_SOL
1070
     1
1071
       53
  0
LINE
  8
0
 62
     7
  5
AF
 10
0.0
 20
8.0
 30
5.0
 11
0.002466
 21
8.0
 31
5.0
1001
AME_SOL
1070
     1
1071
       52
  0
LINE
  8
0
 62
     7
  5
B0
 10
0.0
 20
8.0
 30
0.0
 11
0.0
 21
8.0
 31
5.0
1001
AME_SOL
1070
     1
1071
       51
  0
LINE
  8
0
 62
     7
  5
B1
 10
0.0
 20
8.0
 30
5.0
 11
0.0
 21
0.0
 31
5.0
1001
AME_SOL
1070
     1
1071
       50
  0
LINE
  8
0
 62
     7
  5
B2
 10
0.0
 20
0.0
 30
0.0
 11
0.0
 21
0.0
 31
5.0
1001
AME_SOL
1070
     1
1071
       49
  0
LINE
  8
0
 62
     7
  5
B3
 10
8.0
 20
0.0
 30
5.0
 11
8.0
 21
0.0
 31
0.0
1001
AME_SOL
1070
     1
1071
       48
  0
LINE
  8
0
 62
     7
  5
B4
 10
0.0
 20
0.0
 30
5.0
 11
8.0
 21
0.0
 31
5.0
1001
AME_SOL
1070
     1
1071
       47
  0
LINE
  8
0
 62
     7
  5
B5
 10
0.0
 20
0.0
 30
0.0
 11
8.0
 21
0.0
 31
0.0
1001
AME_SOL
1070
     1
1071
       46
  0
LINE
  8
0
 62
     7
  5
B6
 10
0.0
 20
8.0
 30
0.0
 11
0.0
 21
0.0
 31
0.0
1001
AME_SOL
1070
     1
1071
       45
  0
LINE
  8
0
 62
     7
  5
B7
 10
8.0
 20
7.996498
 30
0.0
 11
8.0
 21
8.0
 31
0.0
1001
AME_SOL
1070
     1
1071
       44
  0
LINE
  8
0
 62
     7
  5
B8
 10
8.0
 20
0.0
 30
0.0
 11
8.0
 21
7.994463
 31
0.0
1001
AME_SOL
1070
     1
1071
       43
  0
LINE
  8
0
 62
     7
  5
B9
 10
0.002466
 20
8.0
 30
0.0
 11
0.0
 21
8.0
 31
0.0
1001
AME_SOL
1070
     1
1071
       42
  0
LINE
  8
0
 62
     7
  5
BA
 10
8.0
 20
8.0
 30
0.0
 11
7.995331
 21
8.0
 31
0.0
1001
AME_SOL
1070
     1
1071
       41
  0
LINE
  8
0
 62
     7
  5
BB
 10
7.995331
 20
8.0
 30
0.0
 11
8.0
 21
7.996498
 31
0.0
1001
AME_SOL
1070
     1
1071
       40
  0
LINE
  8
0
 62
     7
  5
BC
 10
8.0
 20
7.996499
 30
0.0
 11
8.0
 21
7.996499
 31
5.0
1001
AME_SOL
1070
     1
1071
       39
  0
LINE
  8
0
 62
     7
  5
BD
 10
7.995332
 20
8.0
 30
5.0
 11
7.995332
 21
8.0
 31
0.0
1001
AME_SOL
1070
     1
1071
       38
  0
LINE
  8
0
 62
     7
  5
BE
 10
8.0
 20
7.996499
 30
5.0
 11
7.995332
 21
8.0
 31
5.0
1001
AME_SOL
1070
     1
1071
       37
  0
LINE
  8
0
 62
     7
  5
BF
 10
5.00097
 20
3.995772
 30
0.0
 11
5.0
 21
3.996499
 31
0.0
1001
AME_SOL
1070
     1
1071
       36
  0
LINE
  8
0
 62
     7
  5
C0
 10
5.0
 20
3.996499
 30
5.0
 11
5.00097
 21
3.995772
 31
5.0
1001
AME_SOL
1070
     1
1071
       35
  0
LINE
  8
0
 62
     7
  5
C1
 10
8.0
 20
7.994463
 30
0.0
 11
5.00097
 21
3.995772
 31
0.0
1001
AME_SOL
1070
     1
1071
       34
  0
LINE
  8
0
 62
     7
  5
C2
 10
8.0
 20
7.994463
 30
5.0
 11
8.0
 21
7.994463
 31
0.0
1001
AME_SOL
1070
     1
1071
       33
  0
LINE
  8
0
 62
     7
  5
C3
 10
5.000969
 20
3.995771
 30
5.0
 11
8.0
 21
7.994464
 31
5.0
1001
AME_SOL
1070
     1
1071
       32
  0
LINE
  8
0
 62
     7
  5
C4
 10
5.00097
 20
3.995772
 30
0.0
 11
5.00097
 21
3.995772
 31
5.0
1001
AME_SOL
1070
     1
1071
       31
  0
LINE
  8
0
 62
     7
  5
C5
 10
0.000344
 20
7.998408
 30
0.0
 11
0.002467
 21
8.0
 31
0.0
1001
AME_SOL
1070
     1
1071
       30
  0
LINE
  8
0
 62
     7
  5
C6
 10
0.002466
 20
8.0
 30
0.0
 11
0.002466
 21
8.0
 31
5.0
1001
AME_SOL
1070
     1
1071
       29
  0
LINE
  8
0
 62
     7
  5
C7
 10
0.002466
 20
8.0
 30
5.0
 11
0.000172
 21
7.998279
 31
5.0
1001
AME_SOL
1070
     1
1071
       28
  0
LINE
  8
0
 62
     7
  5
C8
 10
3.0
 20
3.998882
 30
0.0
 11
0.000344
 21
7.998408
 31
0.0
1001
AME_SOL
1070
     1
1071
       27
  0
LINE
  8
0
 62
     7
  5
C9
 10
0.000344
 20
7.998408
 30
5.0
 11
3.0
 21
3.998882
 31
5.0
1001
AME_SOL
1070
     1
1071
       26
  0
LINE
  8
0
 62
     7
  5
CA
 10
0.000344
 20
7.998408
 30
0.0
 11
0.000344
 21
7.998408
 31
5.0
1001
AME_SOL
1070
     1
1071
       25
  0
LINE
  8
0
 62
     7
  5
CB
 10
5.0
 20
3.996499
 30
0.0
 11
5.0
 21
2.0
 31
0.0
1001
AME_SOL
1070
     1
1071
       24
  0
LINE
  8
0
 62
     7
  5
CC
 10
5.0
 20
2.0
 30
5.0
 11
5.0
 21
3.996499
 31
5.0
1001
AME_SOL
1070
     1
1071
       23
  0
LINE
  8
0
 62
     7
  5
CD
 10
5.0
 20
3.996499
 30
0.0
 11
5.0
 21
3.996499
 31
5.0
1001
AME_SOL
1070
     1
1071
       22
  0
LINE
  8
0
 62
     7
  5
CE
 10
3.0
 20
2.0
 30
0.0
 11
3.0
 21
3.998882
 31
0.0
1001
AME_SOL
1070
     1
1071
       21
  0
LINE
  8
0
 62
     7
  5
CF
 10
3.0
 20
3.998882
 30
5.0
 11
3.0
 21
2.0
 31
5.0
1001
AME_SOL
1070
     1
1071
       20
  0
LINE
  8
0
 62
     7
  5
D0
 10
3.0
 20
3.998882
 30
5.0
 11
3.0
 21
3.998882
 31
0.0
1001
AME_SOL
1070
     1
1071
       19
  0
LINE
  8
0
 62
     7
  5
D1
 10
5.0
 20
2.0
 30
0.0
 11
3.0
 21
2.0
 31
0.0
1001
AME_SOL
1070
     1
1071
       18
  0
LINE
  8
0
 62
     7
  5
D2
 10
3.0
 20
2.0
 30
0.0
 11
3.0
 21
2.0
 31
5.0
1001
AME_SOL
1070
     1
1071
       17
  0
LINE
  8
0
 62
     7
  5
D3
 10
3.0
 20
2.0
 30
5.0
 11
5.0
 21
2.0
 31
5.0
1001
AME_SOL
1070
     1
1071
       16
  0
LINE
  8
0
 62
     7
  5
D4
 10
5.0
 20
2.0
 30
5.0
 11
5.0
 21
2.0
 31
0.0
1001
AME_SOL
1070
     1
1071
       15
  0
ENDBLK
  8
0
  5
D5
  0
BLOCK
  8
0
  5
D9
  2
AME_MAT
 70
    64
 10
0.0
 20
0.0
 30
0.0
  1
AME_MAT
  3
AME_MAT
  0
ENDBLK
  8
0
  5
DA
  0
BLOCK
  8
0
  5
14F
  2
*U9
 70
    65
 10
0.0
 20
0.0
 30
0.0
  1
*U
  3
*U
  0
LINE
  8
0
 62
     0
  5
150
 10
1.0
 20
8.0
 30
0.0
 11
1.0
 21
8.0
 31
5.0
1001
AME_SOL
1070
     1
1071
       18
  0
LINE
  8
0
 62
     0
  5
151
 10
1.0
 20
8.0
 30
5.0
 11
1.0
 21
0.0
 31
5.0
1001
AME_SOL
1070
     1
1071
       17
  0
LINE
  8
0
 62
     0
  5
152
 10
0.0
 20
8.0
 30
5.0
 11
1.0
 21
8.0
 31
5.0
1001
AME_SOL
1070
     1
1071
       16
  0
LINE
  8
0
 62
     0
  5
153
 10
0.0
 20
8.0
 30
0.0
 11
0.0
 21
8.0
 31
5.0
1001
AME_SOL
1070
     1
1071
       15
  0
LINE
  8
0
 62
     0
  5
154
 10
0.0
 20
8.0
 30
5.0
 11
0.0
 21
0.0
 31
5.0
1001
AME_SOL
1070
     1
1071
       14
  0
LINE
  8
0
 62
     0
  5
155
 10
0.0
 20
0.0
 30
0.0
 11
0.0
 21
0.0
 31
5.0
1001
AME_SOL
1070
     1
1071
       13
  0
LINE
  8
0
 62
     0
  5
156
 10
1.0
 20
0.0
 30
5.0
 11
1.0
 21
0.0
 31
0.0
1001
AME_SOL
1070
     1
1071
       12
  0
LINE
  8
0
 62
     0
  5
157
 10
0.0
 20
0.0
 30
5.0
 11
1.0
 21
0.0
 31
5.0
1001
AME_SOL
1070
     1
1071
       11
  0
LINE
  8
0
 62
     0
  5
158
 10
0.0
 20
0.0
 30
0.0
 11
1.0
 21
0.0
 31
0.0
1001
AME_SOL
1070
     1
1071
       10
  0
LINE
  8
0
 62
     0
  5
159
 10
0.0
 20
8.0
 30
0.0
 11
0.0
 21
0.0
 31
0.0
1001
AME_SOL
1070
     1
1071
        9
  0
LINE
  8
0
 62
     0
  5
15A
 10
1.0
 20
0.0
 30
0.0
 11
1.0
 21
8.0
 31
0.0
1001
AME_SOL
1070
     1
1071
        8
  0
LINE
  8
0
 62
     0
  5
15B
 10
1.0
 20
8.0
 30
0.0
 11
0.0
 21
8.0
 31
0.0
1001
AME_SOL
1070
     1
1071
        7
  0
ENDBLK
  8
0
  5
15C
  0
BLOCK
  8
0
  5
160
  2
*U10
 70
    65
 10
0.0
 20
0.0
 30
0.0
  1
*U
  3
*U
  0
LINE
  8
0
 62
     0
  5
161
 10
1.0
 20
8.0
 30
0.0
 11
1.0
 21
8.0
 31
5.0
1001
AME_SOL
1070
     1
1071
       18
  0
LINE
  8
0
 62
     0
  5
162
 10
1.0
 20
8.0
 30
5.0
 11
1.0
 21
0.0
 31
5.0
1001
AME_SOL
1070
     1
1071
       17
  0
LINE
  8
0
 62
     0
  5
163
 10
0.0
 20
8.0
 30
5.0
 11
1.0
 21
8.0
 31
5.0
1001
AME_SOL
1070
     1
1071
       16
  0
LINE
  8
0
 62
     0
  5
164
 10
0.0
 20
8.0
 30
0.0
 11
0.0
 21
8.0
 31
5.0
1001
AME_SOL
1070
     1
1071
       15
  0
LINE
  8
0
 62
     0
  5
165
 10
0.0
 20
8.0
 30
5.0
 11
0.0
 21
0.0
 31
5.0
1001
AME_SOL
1070
     1
1071
       14
  0
LINE
  8
0
 62
     0
  5
166
 10
0.0
 20
0.0
 30
0.0
 11
0.0
 21
0.0
 31
5.0
1001
AME_SOL
1070
     1
1071
       13
  0
LINE
  8
0
 62
     0
  5
167
 10
1.0
 20
0.0
 30
5.0
 11
1.0
 21
0.0
 31
0.0
1001
AME_SOL
1070
     1
1071
       12
  0
LINE
  8
0
 62
     0
  5
168
 10
0.0
 20
0.0
 30
5.0
 11
1.0
 21
0.0
 31
5.0
1001
AME_SOL
1070
     1
1071
       11
  0
LINE
  8
0
 62
     0
  5
169
 10
0.0
 20
0.0
 30
0.0
 11
1.0
 21
0.0
 31
0.0
1001
AME_SOL
1070
     1
1071
       10
  0
LINE
  8
0
 62
     0
  5
16A
 10
0.0
 20
8.0
 30
0.0
 11
0.0
 21
0.0
 31
0.0
1001
AME_SOL
1070
     1
1071
        9
  0
LINE
  8
0
 62
     0
  5
16B
 10
1.0
 20
0.0
 30
0.0
 11
1.0
 21
8.0
 31
0.0
1001
AME_SOL
1070
     1
1071
        8
  0
LINE
  8
0
 62
     0
  5
16C
 10
1.0
 20
8.0
 30
0.0
 11
0.0
 21
8.0
 31
0.0
1001
AME_SOL
1070
     1
1071
        7
  0
ENDBLK
  8
0
  5
16D
  0
BLOCK
  8
0
  5
173
  2
*U11
 70
    65
 10
0.0
 20
0.0
 30
0.0
  1
*U
  3
*U
  0
LINE
  8
0
 62
     7
  5
174
 10
9.0
 20
8.0
 30
0.0
 11
9.0
 21
8.0
 31
5.0
1001
AME_SOL
1070
     1
1071
       57
  0
LINE
  8
0
 62
     7
  5
175
 10
9.0
 20
8.0
 30
5.0
 11
9.0
 21
0.0
 31
5.0
1001
AME_SOL
1070
     1
1071
       56
  0
LINE
  8
0
 62
     7
  5
176
 10
7.99533
 20
8.0
 30
5.0
 11
9.0
 21
8.0
 31
5.0
1001
AME_SOL
1070
     1
1071
       55
  0
LINE
  8
0
 62
     7
  5
177
 10
-1.0
 20
8.0
 30
5.0
 11
0.002466
 21
8.0
 31
5.0
1001
AME_SOL
1070
     1
1071
       54
  0
LINE
  8
0
 62
     7
  5
178
 10
8.0
 20
7.996498
 30
5.0
 11
8.0
 21
7.994463
 31
5.0
1001
AME_SOL
1070
     1
1071
       53
  0
LINE
  8
0
 62
     7
  5
179
 10
9.0
 20
0.0
 30
5.0
 11
9.0
 21
0.0
 31
0.0
1001
AME_SOL
1070
     1
1071
       52
  0
LINE
  8
0
 62
     7
  5
17A
 10
-1.0
 20
0.0
 30
5.0
 11
9.0
 21
0.0
 31
5.0
1001
AME_SOL
1070
     1
1071
       51
  0
LINE
  8
0
 62
     7
  5
17B
 10
-1.0
 20
0.0
 30
0.0
 11
9.0
 21
0.0
 31
0.0
1001
AME_SOL
1070
     1
1071
       50
  0
LINE
  8
0
 62
     7
  5
17C
 10
9.0
 20
0.0
 30
0.0
 11
9.0
 21
8.0
 31
0.0
1001
AME_SOL
1070
     1
1071
       49
  0
LINE
  8
0
 62
     7
  5
17D
 10
8.0
 20
7.996498
 30
0.0
 11
8.0
 21
7.994464
 31
0.0
1001
AME_SOL
1070
     1
1071
       48
  0
LINE
  8
0
 62
     7
  5
17E
 10
0.002466
 20
8.0
 30
0.0
 11
-1.0
 21
8.0
 31
0.0
1001
AME_SOL
1070
     1
1071
       47
  0
LINE
  8
0
 62
     7
  5
17F
 10
9.0
 20
8.0
 30
0.0
 11
7.995331
 21
8.0
 31
0.0
1001
AME_SOL
1070
     1
1071
       46
  0
LINE
  8
0
 62
     7
  5
180
 10
7.995331
 20
8.0
 30
0.0
 11
8.0
 21
7.996499
 31
0.0
1001
AME_SOL
1070
     1
1071
       45
  0
LINE
  8
0
 62
     7
  5
181
 10
8.0
 20
7.996499
 30
5.0
 11
8.0
 21
7.996499
 31
0.0
1001
AME_SOL
1070
     1
1071
       44
  0
LINE
  8
0
 62
     7
  5
182
 10
7.995332
 20
8.0
 30
5.0
 11
7.995332
 21
8.0
 31
0.0
1001
AME_SOL
1070
     1
1071
       43
  0
LINE
  8
0
 62
     7
  5
183
 10
8.0
 20
7.996499
 30
5.0
 11
7.995332
 21
8.0
 31
5.0
1001
AME_SOL
1070
     1
1071
       42
  0
LINE
  8
0
 62
     7
  5
184
 10
5.00097
 20
3.995772
 30
0.0
 11
5.0
 21
3.996499
 31
0.0
1001
AME_SOL
1070
     1
1071
       41
  0
LINE
  8
0
 62
     7
  5
185
 10
5.0
 20
3.996499
 30
5.0
 11
5.00097
 21
3.995772
 31
5.0
1001
AME_SOL
1070
     1
1071
       40
  0
LINE
  8
0
 62
     7
  5
186
 10
8.0
 20
7.994464
 30
0.0
 11
5.00097
 21
3.995772
 31
0.0
1001
AME_SOL
1070
     1
1071
       39
  0
LINE
  8
0
 62
     7
  5
187
 10
5.00097
 20
3.995772
 30
0.0
 11
5.00097
 21
3.995772
 31
5.0
1001
AME_SOL
1070
     1
1071
       38
  0
LINE
  8
0
 62
     7
  5
188
 10
8.0
 20
7.994463
 30
0.0
 11
8.0
 21
7.994463
 31
5.0
1001
AME_SOL
1070
     1
1071
       37
  0
LINE
  8
0
 62
     7
  5
189
 10
5.00097
 20
3.995772
 30
5.0
 11
8.0
 21
7.994464
 31
5.0
1001
AME_SOL
1070
     1
1071
       36
  0
LINE
  8
0
 62
     7
  5
18A
 10
0.000344
 20
7.998408
 30
0.0
 11
0.002466
 21
8.0
 31
0.0
1001
AME_SOL
1070
     1
1071
       35
  0
LINE
  8
0
 62
     7
  5
18B
 10
0.002466
 20
8.0
 30
0.0
 11
0.002466
 21
8.0
 31
5.0
1001
AME_SOL
1070
     1
1071
       34
  0
LINE
  8
0
 62
     7
  5
18C
 10
0.002467
 20
8.0
 30
5.0
 11
0.000086
 21
7.998214
 31
5.0
1001
AME_SOL
1070
     1
1071
       33
  0
LINE
  8
0
 62
     7
  5
18D
 10
3.0
 20
3.998882
 30
0.0
 11
0.000086
 21
7.998753
 31
0.0
1001
AME_SOL
1070
     1
1071
       32
  0
LINE
  8
0
 62
     7
  5
18E
 10
0.000344
 20
7.998408
 30
0.0
 11
0.000344
 21
7.998408
 31
5.0
1001
AME_SOL
1070
     1
1071
       31
  0
LINE
  8
0
 62
     7
  5
18F
 10
0.000344
 20
7.998408
 30
5.0
 11
3.0
 21
3.998882
 31
5.0
1001
AME_SOL
1070
     1
1071
       30
  0
LINE
  8
0
 62
     7
  5
190
 10
5.0
 20
3.996499
 30
0.0
 11
5.0
 21
2.0
 31
0.0
1001
AME_SOL
1070
     1
1071
       29
  0
LINE
  8
0
 62
     7
  5
191
 10
5.0
 20
3.996499
 30
0.0
 11
5.0
 21
3.996499
 31
5.0
1001
AME_SOL
1070
     1
1071
       28
  0
LINE
  8
0
 62
     7
  5
192
 10
5.0
 20
2.0
 30
5.0
 11
5.0
 21
3.996499
 31
5.0
1001
AME_SOL
1070
     1
1071
       27
  0
LINE
  8
0
 62
     7
  5
193
 10
3.0
 20
2.0
 30
0.0
 11
3.0
 21
3.998882
 31
0.0
1001
AME_SOL
1070
     1
1071
       26
  0
LINE
  8
0
 62
     7
  5
194
 10
3.0
 20
3.998882
 30
5.0
 11
3.0
 21
3.998882
 31
0.0
1001
AME_SOL
1070
     1
1071
       25
  0
LINE
  8
0
 62
     7
  5
195
 10
3.0
 20
3.998882
 30
5.0
 11
3.0
 21
2.0
 31
5.0
1001
AME_SOL
1070
     1
1071
       24
  0
LINE
  8
0
 62
     7
  5
196
 10
5.0
 20
2.0
 30
0.0
 11
3.0
 21
2.0
 31
0.0
1001
AME_SOL
1070
     1
1071
       23
  0
LINE
  8
0
 62
     7
  5
197
 10
5.0
 20
2.0
 30
5.0
 11
5.0
 21
2.0
 31
0.0
1001
AME_SOL
1070
     1
1071
       22
  0
LINE
  8
0
 62
     7
  5
198
 10
3.0
 20
2.0
 30
0.0
 11
3.0
 21
2.0
 31
5.0
1001
AME_SOL
1070
     1
1071
       21
  0
LINE
  8
0
 62
     7
  5
199
 10
3.0
 20
2.0
 30
5.0
 11
5.0
 21
2.0
 31
5.0
1001
AME_SOL
1070
     1
1071
       20
  0
LINE
  8
0
 62
     7
  5
19A
 10
-1.0
 20
0.0
 30
0.0
 11
-1.0
 21
8.0
 31
0.0
1001
AME_SOL
1070
     1
1071
       19
  0
LINE
  8
0
 62
     7
  5
19B
 10
-1.0
 20
0.0
 30
5.0
 11
-1.0
 21
0.0
 31
0.0
1001
AME_SOL
1070
     1
1071
       18
  0
LINE
  8
0
 62
     7
  5
19C
 10
-1.0
 20
8.0
 30
0.0
 11
-1.0
 21
8.0
 31
5.0
1001
AME_SOL
1070
     1
1071
       17
  0
LINE
  8
0
 62
     7
  5
19D
 10
-1.0
 20
8.0
 30
5.0
 11
-1.0
 21
0.0
 31
5.0
1001
AME_SOL
1070
     1
1071
       16
  0
ENDBLK
  8
0
  5
19E
  0
ENDSEC
  0
SECTION
  2
ENTITIES
  0
INSERT
  8
AME_FRZ
  5
37
  2
*U2
 10
0.000344
 20
7.998408
 30
0.0
 50
306.87
1001
AME_SOL
1002
{
1070
     0
1071
  1964496
1070
  1536
1010
5.0
1020
5.0
1030
5.0
1005
0
1005
0
1005
5C
1040
0.0
1040
1.0
1000
MILD_STEEL
1000
0
1010
0.000344
1020
7.998408
1030
0.0
1010
0.0
1020
0.0
1030
1.0
1040
5.355892
1002
}
  0
INSERT
  8
AME_FRZ
  5
48
  2
*U3
 10
5.00097
 20
3.995772
 30
0.0
 50
53.13
1001
AME_SOL
1002
{
1070
     0
1071
  1963648
1070
  1536
1010
5.0
1020
5.0
1030
5.0
1005
0
1005
0
1005
5C
1040
0.0
1040
1.0
1000
MILD_STEEL
1000
0
1010
5.00097
1020
3.995772
1030
0.0
1010
0.0
1020
0.0
1030
1.0
1040
0.927293
1002
}
  0
INSERT
  8
AME_FRZ
  5
59
  2
*U4
 10
0.0
 20
0.0
 30
0.0
1001
AME_SOL
1002
{
1070
     0
1071
  1962568
1070
  1536
1010
8.0
1020
8.0
1030
5.0
1005
0
1005
0
1005
84
1040
0.0
1040
1.0
1000
MILD_STEEL
1000
0
1010
0.0
1020
0.0
1030
0.0
1010
0.0
1020
0.0
1030
1.0
1040
0.0
1002
}
  0
INSERT
  8
AME_FRZ
  5
5C
  2
AME_NIL
 10
0.0
 20
0.0
 30
0.0
1001
AME_SOL
1002
{
1070
     0
1071
  1965328
1070
   775
1070
     2
1005
48
1005
37
1005
0
1005
0
1005
84
1040
0.0
1040
1.0
1000
MILD_STEEL
1000
0
1010
0.0
1020
0.0
1030
0.0
1010
0.0
1020
0.0
1030
1.0
1040
0.0
1002
}
  0
INSERT
  8
AME_FRZ
  5
84
  2
*U5
 10
0.0
 20
0.0
 30
0.0
1001
AME_SOL
1002
{
1070
     0
1071
  1965856
1070
  1543
1070
     0
1005
59
1005
5C
1005
0
1005
0
1005
D6
1040
0.0
1040
1.0
1000
MILD_STEEL
1000
0
1010
0.0
1020
0.0
1030
0.0
1010
0.0
1020
0.0
1030
1.0
1040
0.0
1002
}
  0
INSERT
  8
AME_FRZ
  5
A6
  2
*U6
 10
3.0
 20
2.0
 30
0.0
1001
AME_SOL
1002
{
1070
     0
1071
  1966368
1070
  1536
1010
2.0
1020
6.0
1030
5.0
1005
0
1005
0
1005
D6
1040
0.0
1040
1.0
1000
MILD_STEEL
1000
0
1010
3.0
1020
2.0
1030
0.0
1010
0.0
1020
0.0
1030
1.0
1040
0.0
1002
}
  0
INSERT
  8
AME_FRZ
  5
D6
  2
*U7
 10
0.0
 20
0.0
 30
0.0
1001
AME_SOL
1002
{
1070
     0
1071
  1967176
1070
  1543
1070
     0
1005
84
1005
A6
1005
0
1005
0
1005
171
1040
0.0
1040
1.0
1000
MILD_STEEL
1000
0
1010
0.0
1020
0.0
1030
0.0
1010
0.0
1020
0.0
1030
1.0
1040
0.0
1002
}
  0
INSERT
  8
AME_FRZ
  5
14D
  2
AME_NIL
 10
0.0
 20
0.0
 30
0.0
  0
INSERT
  8
AME_FRZ
  5
14E
  2
AME_SOL
 10
0.0
 20
0.0
 30
0.0
1001
AME_SOL
1000
1.0
1000
sq cm
1070
     3
1070
     0
1070
     3
1000
wire
1040
0.0
1000
NONE
1040
1.0
1000
cm
1000
gm
1000
MILD_STEEL
1070
    25
1000
CSG
1070
     3
1070
     2
1070
     3
1000
cu cm
1070
     4
1070
     0
1005
14D
  0
INSERT
  8
AME_FRZ
  5
15D
  2
*U9
 10
-1.0
 20
0.0
 30
0.0
1001
AME_SOL
1002
{
1070
     0
1071
  1860936
1070
  1536
1010
1.0
1020
8.0
1030
5.0
1005
0
1005
0
1005
19F
1040
0.0
1040
1.0
1000
MILD_STEEL
1000
0
1010
-1.0
1020
0.0
1030
0.0
1010
0.0
1020
0.0
1030
1.0
1040
0.0
1002
}
  0
INSERT
  8
AME_FRZ
  5
16E
  2
*U10
 10
8.0
 20
0.0
 30
0.0
1001
AME_SOL
1002
{
1070
     0
1071
  1916432
1070
  1536
1010
1.0
1020
-8.0
1030
-5.0
1005
0
1005
0
1005
171
1040
0.0
1040
1.0
1000
MILD_STEEL
1000
0
1010
8.0
1020
0.0
1030
0.0
1010
0.0
1020
0.0
1030
1.0
1040
0.0
1002
}
  0
INSERT
  8
AME_FRZ
  5
171
  2
AME_NIL
 10
0.0
 20
0.0
 30
0.0
1001
AME_SOL
1002
{
1070
     0
1071
  1979608
1070
   775
1070
     2
1005
16E
1005
D6
1005
0
1005
0
1005
19F
1040
0.0
1040
1.0
1000
MILD_STEEL
1000
0
1010
0.0
1020
0.0
1030
0.0
1010
0.0
1020
0.0
1030
1.0
1040
0.0
1002
}
  0
INSERT
  8
0
  5
19F
  2
*U11
 10
0.0
 20
0.0
 30
0.0
1001
AME_SOL
1002
{
1070
     0
1071
  1999576
1070
  1543
1070
     2
1005
171
1005
15D
1005
0
1005
1A0
1005
0
1040
0.0
1040
1.0
1000
MILD_STEEL
1000
0
1002
}
  0
INSERT
  8
AME_FRZ
  5
1A0
  2
AME_NIL
 10
1.0
 20
1.0
 30
1.0
1001
AME_SOL
1004
E903A9FB0100F0FFFFFF000052F70F0001000000F32580BF11CA97BAD972B1BABE04104146013041170BA04001000000FBF20400F32580BF11CA97BA11CA97BA1BB47FBFBE0400417D09A0400100844E70621E00010000000100CC000000844E000000000000000000000000803F000000000000803F0000
1004
0000000080BF000000000000000005000000000000000000000000000000000000000000844E000000000000000000000000803F000000000000803F00000000000080BF000000000000000005000000000000000000000000000000000001000000FBF20400E0EF3F40C0DFFF3F02FF80BA1008A0402010
1004
00401008A0400100844E20641E00FFFF00000100F9010000844E00000000803F000000000000000000000000000000000000803F00004040000000400000000005000000000000000000000000000000000000000000844E00000000803F000000000000000000000000000000000000803F000040400000
1004
004000000000050000000000000000000000000000000000FFFFFFFFFBF20400E0EF3F40C0DFFF3F02FF80BA20104040080400411008A0400100844E60661E00FFFF00000100F8010000844E000000000000000000000000803F000000000000803F00000000000040400000004000000000050000000000
1004
00000000000000000000000000000000844E000000000000000000000000803F000000000000803F00000000000040400000004000000000050000000000000000000000000000000000FFFFFFFFFBF20400F0F79F40C0DFFF3F02FF80BA1008A040080400411008A0400100844E50611E00FFFF00000100
1004
F5010000844E000000000080000080BF000000800000008000000080000080BF0000A040000000410000A04005000000000000000000000000000000000000000000844E000000000080000080BF000000800000008000000080000080BF0000A040000000410000A0400500000000000000000000000000
1004
00000000FFFFFFFFFBF204001555CBBAF4C67F40D972B1BACF2440403E010041170BA0400100844EB0AB1E00FFFF0000010025030000844E0000B299193FBBCC4CBF0000000000000080000000000000803F1762B439F6F2FF400000000005000000000000000000000000000000000000000000844E0000
1004
B299193FBBCC4CBF0000000000000080000000000000803F1762B439F6F2FF4000000000050000000000000000000000000000000000FFFFFFFFFBF204001555CBBA6FE3FF40D972B1BA4E12804046013041170BA0400100844EF0661E00FFFF0000010024030000844E000000000080000000000000803F
1004
BBCC4C3FB299193F000000001762B439F6F2FF400000000005000000000000000000000000000000000000000000844E000000000080000000000000803FBBCC4C3FB299193F000000001762B439F6F2FF4000000000050000000000000000000000000000000000FFFFFFFFFBF204006BF89F40AB9B7F40
1004
D872B1BAC40B0041D8ECFF40170BA0400100844E185E1E00FFFF0000010089030000844E0000B299193FBBCC4C3F0000000000000000000000800000803FF207A040B9BA7F400000000005000000000000000000000000000000000000000000844E0000B299193FBBCC4C3F000000000000000000000080
1004
0000803FF207A040B9BA7F4000000000050000000000000000000000000000000000FFFFFFFFFBF20400B0C37F3FAB9B7F40D872B1BA7917A040F2ECDF40170BA0400100844EB85A1E00FFFF0000010088030000844E000000000000000000800000803FBBCC4CBFB299193F00000000F207A040B9BA7F40
1004
0000000005000000000000000000000000000000000000000000844E000000000000000000800000803FBBCC4CBFB299193F00000000F207A040B9BA7F4000000000050000000000000000000000000000000000FFFFFFFFFBF204000CF17F40CACDFF40D872B1BAC40B004174F62F41170BA0400100844E
1004
309C1D00FFFF0000010085030000844E0000BBCC4C3FB29919BF000000800000008000000000000080BF0C088040B0EE2F410000A04005000000000000000000000000000000000000000000844E0000BBCC4C3FB29919BF000000800000008000000000000080BF0C088040B0EE2F410000A04005000000
1004
0000000000000000000000000000FFFFFFFFFBF20E00F32580BF11CA97BA11CA97BA00CC973ABE04004111CA973A0100844ED87D1D00010000000300CE000000844E0000000000000000803F000000000000803F0000000000000000000080BF000000000000000005000000000000000000000000000000
1004
000000000000EE030000844E0000000000000000803F000000000000803F00000000000000000000000000000000000000000500000000000000000000000000000000000000000052040000844E0000000000000000803F000000000000803F000000000000000000000041000000000000000005000000
1004
000000000000000000000000000000000000844E0000000000000000803F000000000000803F000000000000000000000041000000000000000005000000000000000000000000000000000001000000FBF20400F32580BF11CA97BA11CA97BA00CC973A11CA973A7D09A0400100844EC0B61E0001000000
1004
0300CD000000844E00000000803F000000000000000000000000000000000000803F000080BF000000000000000005000000000000000000000000000000000000000000ED030000844E00000000803F000000000000000000000000000000000000803F0000000000000000000000000500000000000000
1004
000000000000000000000000000051040000844E00000000803F000000000000000000000000000000000000803F00000041000000000000000005000000000000000000000000000000000000000000844E00000000803F000000000000000000000000000000000000803F000000410000000000000000
1004
05000000000000000000000000000000000001000000FBF2040083F6FF4011CA97BA11CA97BABE040041BE0400417D09A0400100844EB0B71E0001000000010050040000844E000000000000000000000000803F000000000000803F00000000000000410000000000000000050000000000000000000000
1004
00000000000000000000844E000000000000000000000000803F000000000000803F0000000000000041000000000000000005000000000000000000000000000000000001000000FBF20E00F32580BF11CA97BA83F69F4000CC973ABE0400417D09A0400100844EC0B81E00010000000300CB000000844E
1004
0000000080BF000000800000008000000080000080BF0000008000000000000000410000A04005000000000000000000000000000000000000000000EB030000844E0000000080BF000000800000008000000080000080BF0000008000000041000000410000A04005000000000000000000000000000000
1004
0000000000004F040000844E0000000080BF000000800000008000000080000080BF0000008000001041000000410000A04005000000000000000000000000000000000000000000844E0000000080BF000000800000008000000080000080BF0000008000001041000000410000A0400500000000000000
1004
0000000000000000000001000000FBF20800F32580BF83F6FF4011CA97BA00CC973ABE0400417D09A0400100844ED0B91E00010000000300CA000000844E00000000008000000080000080BF000080BF000000800000008000000000000000410000A0400500000000000000000000000000000000000000
1004
0000EA030000844E00000000008000000080000080BF000080BF000000800000008000000041000000410000A040050000000000000000000000000000000000000000004E040000844E00000000008000000080000080BF000080BF000000800000008000001041000000410000A0400500000000000000
1004
0000000000000000000000000000844E00000000008000000080000080BF000080BF000000800000008000001041000000410000A04005000000000000000000000000000000000001000000FBF2040042FB0F4111CA97BA11CA97BABE041041BE0400417D09A0400100844EC0BA1E000100000001004D04
1004
0000844E000000000080000080BF000000800000008000000080000080BF00001041000000410000A04005000000000000000000000000000000000000000000844E000000000080000080BF000000800000008000000080000080BF00001041000000410000A04005000000000000000000000000000000
1004
000001000000A4EEF32580BF11CA97BA83F69F401BB47FBFBE0400417D09A040000080C0000080400200967518BB1E000000FFFF010070621E00C0B81E000000020070621E00C0B81E0001000000010000009675000000000000000000000000803F000080BF0000000000000000000080BF000080400000
1004
A0400200000080C000008040A4EEF32580BF83F6FF4011CA97BA1BB47FBFBE0400417D09A040000020C0000020400200967508BC1E000000FFFF010070621E00D0B91E000000020070621E00D0B91E00010000000100000096750000000000000000803F00000000000080BF0000000000000000000080BF
1004
00000041000020400200000020C000002040A4EEF32580BF11CA97BA11CA97BA1BB47FBF11CA973A7D09A0400000A0C00000008002009675F8BC1E000000FFFF010070621E00C0B61E000000020070621E00C0B61E0001000000010000009675000000000000000080BF00000000000080BF000000000000
1004
0000000080BF000000000000000002000000A0C000000080A4EEF32580BF11CA97BA11CA97BA1BB47FBFBE04004111CA973A000000000000004102009675E8BD1E000000FFFF010070621E00D87D1D000000020070621E00D87D1D000100000001000000967500000000000000000000000080BF000080BF
1004
0000000000000000000080BF000000000000000002000000000000000041A4EEE0EF3F40C0DFFF3FA1F39F401008A040201000401008A040000040C0000080BF02009675D8BE1E0000000100FFFF20641E00C0B81E0000000200C0B81E0020641E0001000000FFFFFFFF9675000000000000000000000000
1004
803F00000000000080BF000000000000C040000000400000A0400200000040C0000080BFA4EEE0EF3F40C0DFFF3F02FF80BA20104040201000400F08A040000000000000A04002009675C8BF1E0000000100FFFF20641E0060661E000000020060661E0020641E00FFFFFFFFFFFFFFFF96750000000080BF
1004
000000000000000000000000000080BF000000000000404000000040000000000200000000000000A040A4EEF0F79F40C0DFFF3F02FF80BA1008A040201000400F08A040010020C0FFFF1F400200967558431F0000000100FFFF20641E0050611E000000020050611E0020641E00FFFFFFFFFFFFFFFF9675
1004
00000000803F000000000000000000000000000080BF000000000000A04000000040FFFF1F400200010020C0FFFF1F40A4EEE0EF3F40C0DFFF3F02FF80BA1008A04020100040B9E8C53A0000003F000020400200967528551F0000000100FFFF20641E00D87D1D0000000200D87D1D0020641E0001000000
1004
FFFFFFFF967500000000000000000000000080BF00000000000080BF000000000000B040000000400000000002000000003F00002040A4EEE0EF3F40C0DFFF3FA1F39F4020104040080400411008A040A224803F0000404002009675C8611F0000000100FFFF60661E00C0B81E0000000200C0B81E006066
1004
1E0001000000FFFFFFFF9675000000000000000000000000803F000080BF0000000000000000000040400000A0400000A0400200A224803F00004040A4EEE0EF3F40F4C67F4002FF80BA201040403E0100410F08A0400000A0C0000000800200967550341F000000FFFF010060661E00B0AB1E0000000200
1004
60661E00B0AB1E00FFFFFFFFFFFFFFFF96750000BBCC4CBFB29919BF00000000B29919BFBBCC4C3F0000000000004040AFED7F400000000002000000A0C000000080A4EEE0EF3F40C0DFFF3F02FF80BA2010404008040041B9E8C53A0000803FADED3F400200967530301F0000000100FFFF60661E00D87D
1004
1D0000000200D87D1D0060661E0001000000FFFFFFFF967500000000000000000000000080BF000080BF0000000000000000000040400000803F0000000002000000803FADED3F40A4EEF0F79F40C0DFFF3FA1F39F401008A040080400411008A0400000C0C0AE1C80C00200967520311F0000000100FFFF
1004
50611E00C0B81E0000000200C0B81E0050611E0001000000FFFFFFFF9675000000000000000000000000803F0000803F00000000000000000000A040000000410000A04002000000C0C0AE1C80C0A4EEF0F79F40AB9B7F4002FF80BA1008A040F2ECDF400F08A040FFFF1FC0010020400200967500231F00
1004
0000FFFF010050611E00B85A1E000000020050611E00B85A1E00FFFFFFFFFFFFFFFF96750000B29919BFBBCC4CBF00000000BBCC4C3FB29919BF000000000000A040A4C67F40FFFF1F400200FFFF1FC001002040A4EEF0F79F40C0DFFF3F02FF80BA1008A04008040041B9E8C53A1474653B000000400200
1004
967538271F0000000100FFFF50611E00D87D1D0000000200D87D1D0050611E0001000000FFFFFFFF967500000000000000000000000080BF0000803F00000000000000000000A040000080400000000002001474653B00000040A4EE1555CBBAF4C67F40A1F39F40CF2440403E010041170BA040CAC02CC0
1004
9F3513400200967528281F0000000100FFFFB0AB1E00C0B81E0000000200C0B81E00B0AB1E0001000000FFFFFFFF9675000000000000000000000000803FBBCC4CBFB29919BF000000002559CF3F12D9BA400000A0400200CAC02CC09F351340A4EE1555CBBA6FE3FF40D972B1BACF2440403E010041170B
1004
A040000000000000A04002009675C8281F0000000100FFFFB0AB1E00F0661E0000000200F0661E00B0AB1E00FFFFFFFFFFFFFFFF96750000B29919BFBBCC4C3F00000000BBCC4CBFB29919BF000000001762B439F6F2FF40000000000200000000000000A040A4EE1555CBBAF4C67F40D972B1BACF244040
1004
3E010041B9E8C53A998F193FAE30B3400200967590241F0000000100FFFFB0AB1E00D87D1D0000000200D87D1D00B0AB1E0001000000FFFFFFFF967500000000000000000000000080BFBBCC4CBFB29919BF00000080C108574060376140000000000200998F193FAE30B340A4EE1555CBBA6FE3FF40A1F3
1004
9F404E1280402F060041170BA0406A4066402D7166400200967580251F0000000100FFFFF0661E00C0B81E0000000200C0B81E00F0661E0001000000FFFFFFFF9675000000000000000000000000803FB29919BFBBCC4C3F00000000E35B3840AF8922410000A04002006A4066402D716640A4EE1555CBBA
1004
A1F3FF40D972B1BA4E1280402F060041170BA040000020C00000204002009675601C1F0000000100FFFFF0661E00D0B91E0000000200D0B91E00F0661E0001000000FFFFFFFF96750000000000000000803F00000000000080BF000000000000008076A1213B00000041000020400200000020C000002040
1004
A4EE1555CBBA6FE3FF40D972B1BA4E1280402F060041B9E8C53A68E24CBF8A344CBF02009675501D1F0000000100FFFFF0661E00D87D1D0000000200D87D1D00F0661E0001000000FFFFFFFF967500000000000000000000000080BFB29919BFBBCC4C3F00000000D2FE233F60A8074100000000020068E2
1004
4CBF8A344CBFA4EE6BF89F40AB9B7F40A1F39F40C40B0041D8ECFF40170BA040264A33C02C9B0C4002009675401E1F0000000100FFFF185E1E00C0B81E0000000200C0B81E00185E1E0001000000FFFFFFFF9675000000000000000000000000803FBBCC4C3FB29919BF000000006CD1D5409994C7400000
1004
A0400200264A33C02C9B0C40A4EE83F6FF40AB9B7F4011CA97BABE040041D8ECFF407D09A040000000000000A04002009675301F1F000000FFFF0100185E1E00B0B71E0000000200185E1E00B0B71E00FFFFFFFF0100000096750000000080BF000000000000000000000000000080BF0000000000000041
1004
A5D2FF40000000000200000000000000A040A4EE6BF89F40AB9B7F40D872B1BA7917A040F2ECDF40170BA040000000000000A0400200967520201F0000000100FFFF185E1E00B85A1E0000000200B85A1E00185E1E00FFFFFFFFFFFFFFFF96750000B29919BFBBCC4CBF00000000BBCC4C3FB29919BF0000
1004
0000F207A040B9BA7F40000000000200000000000000A040A4EE6BF89F40AB9B7F40D872B1BAC40B0041D8ECFF40B9E8C53A8E4DB6C028D732BF0200967510211F0000000100FFFF185E1E00D87D1D0000000200D87D1D00185E1E0001000000FFFFFFFF967500000000000000000000000080BFBBCC4C3F
1004
B29919BF00000000339E92401BF65B400000000002008E4DB6C028D732BFA4EEB0C37F3FAB9B7F40A1F39F407917A040F2ECDF40170BA040EA91CCBE08F3CBBE0200967550221F0000000100FFFFB85A1E00C0B81E0000000200C0B81E00B85A1E0001000000FFFFFFFF9675000000000000000000000000
1004
803FB29919BFBBCC4CBF000000007E3AAA40E36E70400000A0400200EA91CCBE08F3CBBEA4EEB0C37F3FAB9B7F40D872B1BA7917A040F2ECDF40B9E8C53A7B7E19405792194002009675B8291F0000000100FFFFB85A1E00D87D1D0000000200D87D1D00B85A1E0001000000FFFFFFFF9675000000000000
1004
00000000000080BFB29919BFBBCC4CBF00000080B76DDD40FAA123400000000002007B7E194057921940A4EE0CF17F40CACDFF40A1F39F40C40B00412F060041170BA0409C6D06C0040E06C002009675A82A1F0000000100FFFF309C1D00C0B81E0000000200C0B81E00309C1D0001000000FFFFFFFF9675
1004
000000000000000000000000803FB299193FBBCC4C3F00000080933ACA40B71B14410000A04002009C6D06C0040E06C0A4EE0CF17F40A1F3FF40D872B1BAC40B00412F060041170BA040000000000000A04002009675982B1F0000000100FFFF309C1D00D0B91E0000000200D0B91E00309C1D0001000000
1004
FFFFFFFF96750000000000000000803F000000000000803F0000008000000000C2D9FF40000000410000A0400200000000000000A040A4EE83F6FF40CACDFF4011CA97BABE040041BE0400417D09A040000020C00000204002009675882C1F000000FFFF0100309C1D00B0B71E0000000200309C1D00B0B7
1004
1E00FFFFFFFF0100000096750000000080BF0000000000000000000000000000803F000000000000004151E3FF40000020400200000020C000002040A4EE0CF17F40CACDFF40D872B1BAC40B00412F060041B9E8C53A8CBCC13D52B0CD3D02009675782D1F0000000100FFFF309C1D00D87D1D0000000200
1004
D87D1D00309C1D0001000000FFFFFFFF967500000000000000000000000080BFB299193FBBCC4C3F00000000CC6DFD407CE800410000000002008CBCC13D52B0CD3DA4EEF32580BFA1F3FF40B9E8C5BABE0410412F060041B9E8C53A000000BFFB31013F02009675682E1F000000FFFF0100D87D1D00D0B9
1004
1E0000000200D87D1D00D0B91E00010000000100000096750000000000000000803F000000000000000000000000000080BF0000084100000041000000000200000000BFFB31013FA4EEF32580BFA1F3FF40B9E8C5BABE0410412F060041B9E8C53AE6F50741000018410200967558E91E000000FFFF0100
1004
D87D1D00D0B91E0000000200D87D1D00D0B91E00010000000100000096750000000000000000803F000000000000000000000000000080BF0000084100000041000000000200E6F5074100001841A4EE83F6FF4011CA97BA11CA97BABE040041BE040041B9E8C53A50E3FFC0A6D2FFC002009675B8F41E00
1004
0000FFFF0100D87D1D00B0B71E0000000200D87D1D00B0B71E00010000000100000096750000000080BF00000000000000000000000000000000000080BF000000410000000000000000020050E3FFC0A6D2FFC0A4EE42FB0F4111CA97BA11CA97BABE041041BE04004111CA973A000080C0000080400200
1004
9675A8F51E000000FFFF0100D87D1D00C0BA1E0000000200D87D1D00C0BA1E000100000001000000967500000000803F00000000000000000000000000000000000080BF0000104100008040000000000200000080C000008040A4EEF32580BFB9E8C5BAB9E8C5BABE041041B9E8C53AB9E8C53A000010C1
1004
0000803F0200967548FA1E000000FFFF0100D87D1D00C0B61E0000000200D87D1D00C0B61E0001000000010000009675000000000000000080BF000000000000000000000000000080BF0000004100000000000000000200000010C10000803FA4EEF32580BFB9E8C5BAA1F39F40BE041041B9E8C53A5F0C
1004
A040000018C10000003F0200967518FB1E000000FFFF0100C0B61E00C0B81E0000000200C0B61E00C0B81E0001000000010000009675000000000000000000000000803F00000000000080BF0000000000000841000000000000A0400200000018C10000003FA4EE42FB0F4111CA97BA11CA97BABE041041
1004
11CA973A7D09A040000020C0000020400200967560FC1E000000FFFF0100C0B61E00C0BA1E0000000200C0B61E00C0BA1E000100000001000000967500000000803F000000000000000000000000000080BF000000000000104100000000000020400200000020C000002040A4EE83F6FF4011CA97BAA1F3
1004
9F40BE040041BE0400417D09A0409FC67FC04AA57FC00200967550FD1E000000FFFF0100B0B71E00C0B81E0000000200B0B71E00C0B81E0001000000010000009675000000000000000000000000803F000080BF000000000000000000000041000080400000A04002009FC67FC04AA57FC0A4EEF32580BF
1004
A1F3FF40A1F39F40BE0410412F0600415F0CA040000020C1E6F50FC102009675F0FD1E000000FFFF0100C0B81E00D0B91E0000000200C0B81E00D0B91E00010000000100000096750000000000000000803F0000000000000000000000000000803F00001041000000410000A0400200000020C1E6F50FC1
1004
A4EEF32580BFA1F3FF40A1F39F40BE0410412F0600415F0CA040049980BF0000008002009675A0F71E000000FFFF0100C0B81E00D0B91E0000000200C0B81E00D0B91E00010000000100000096750000000000000000803F0000000000000000000000000000803F00001041000000410000A04002000499
1004
80BF00000080A4EE42FB0F4111CA97BA83F69F40BE041041BE0400417D09A04000000000000000410200967590F81E000000FFFF0100C0B81E00C0BA1E0000000200C0B81E00C0BA1E000100000001000000967500000000803F000000000000000000000080000000000000803F00001041000000410000
1004
A04002000000000000000041A4EE42FB0F4183F6FF4011CA97BABE041041BE0400417D09A0400000A0C00000008002009675D0F91E000000FFFF0100D0B91E00C0BA1E0000000200D0B91E00C0BA1E000100000001000000967500000000803F0000000000000000000000000000803F0000000000001041
1004
000000410000A04002000000A0C00000008019FC
1005
1A1
  0
INSERT
  8
AME_FRZ
  5
1A1
  2
AME_NIL
 10
1.0
 20
1.0
 30
1.0
1001
AME_SOL
1004

1005
0
  0
INSERT
  8
AME_FRZ
  5
1A2
  2
AME_MAT
 10
0.0
 20
0.0
 30
0.0
1001
AME_SOL
1000
MILD_STEEL
1040
7860.0
1040
220.0
1040
0.275
1040
207.0
1040
345.0
1040
56.0
1040
12.0
1040
0.46
  0
ENDSEC
  0
EOF
