105 293 1 0                             
body $-1 $1 $-1 $2 #
lump $-1 $-1 $3 $0 #
transform $-1 1 0 0 0 1 0 0 0 1 0 0 0 1 0 0 0 #
shell $-1 $-1 $-1 $4 $1 #
face $5 $6 $7 $3 $-1 $8 reversed single #
pid_name-sg-attrib $-1 $-1 $-1 $4 7 114 119 105 108 115 111 110 784252905 352 1 #
face $9 $10 $11 $3 $-1 $12 forward single #
loop $-1 $-1 $13 $4 #
plane-surface $-1 -0.048 -0.25 0 0 1 0 0 0 1 0 #
pid_name-sg-attrib $-1 $-1 $-1 $6 7 114 119 105 108 115 111 110 784252905 353 1 #
face $14 $15 $16 $3 $-1 $17 forward single #
loop $-1 $18 $19 $6 #
cone-surface $-1 -0.048 0.732 0 0 1 0 0.999999999999999 0 0 1 0.707106781186547 0.707106781186548 0 #
coedge $-1 $13 $13 $19 $20 1 $7 $-1 #
pid_name-sg-attrib $-1 $-1 $-1 $10 7 114 119 105 108 115 111 110 784252905 354 1 #
face $21 $22 $23 $3 $-1 $24 reversed single #
loop $-1 $25 $26 $10 #
cone-surface $-1 -0.048 -0.2655 0 0 1 0 0.03 0 0 1 0 1 0 #
loop $-1 $-1 $27 $6 #
coedge $-1 $19 $19 $13 $20 0 $11 $-1 #
edge $-1 $28 $28 $13 $29 1 #
pid_name-sg-attrib $-1 $-1 $-1 $15 7 114 119 105 108 115 111 110 784252905 355 1 #
face $30 $31 $32 $3 $-1 $33 forward single #
loop $-1 $34 $35 $15 #
torus-surface $-1 -0.048 -0.002 0 0 1 0 0.032 0.002 0 0 1 0 #
loop $-1 $-1 $36 $10 #
coedge $-1 $26 $26 $27 $37 0 $16 $-1 #
coedge $-1 $27 $27 $26 $37 1 $18 $-1 #
vertex $-1 $20 $38 #
ellipse-curve $-1 -0.048 -0.25 0 0 -1 0 0.018 0 0 1 #
pid_name-sg-attrib $-1 $-1 $-1 $22 7 114 119 105 108 115 111 110 784252905 356 1 #
face $39 $40 $41 $3 $-1 $42 forward single #
loop $-1 $43 $44 $22 #
cone-surface $-1 -0.048 -0.898 0 0 -1 0 0.999999999999999 0 0 1 0.707106781186547 0.707106781186548 0 #
loop $-1 $-1 $45 $15 #
coedge $-1 $35 $35 $36 $46 0 $23 $-1 #
coedge $-1 $36 $36 $35 $46 1 $25 $-1 #
edge $-1 $47 $47 $27 $48 1 #
point $-1 -0.03 -0.25 0 #
pid_name-sg-attrib $-1 $-1 $-1 $31 7 114 119 105 108 115 111 110 784252905 357 1 #
face $49 $50 $51 $3 $-1 $52 reversed single #
loop $-1 $-1 $53 $31 #
plane-surface $-1 -0.048 0.03 0 0 1 0 0 0 1 0 #
loop $-1 $-1 $54 $22 #
coedge $-1 $44 $44 $55 $56 0 $32 $-1 #
coedge $-1 $45 $45 $57 $58 0 $34 $-1 #
edge $-1 $59 $59 $36 $60 1 #
vertex $-1 $37 $61 #
ellipse-curve $-1 -0.048 -0.238 0 0 -1 0 0.03 0 0 1 #
pid_name-sg-attrib $-1 $-1 $-1 $40 7 114 119 105 108 115 111 110 784252905 358 1 #
face $62 $63 $64 $3 $-1 $65 reversed single #
loop $-1 $-1 $66 $40 #
plane-surface $-1 -0.048 0.035 0.0294448637286709 0.5 0 0.866025403784439 0.866025403784439 0 -0.5 0 #
coedge $-1 $67 $68 $69 $70 0 $41 $-1 #
coedge $-1 $54 $54 $71 $72 0 $43 $-1 #
coedge $-1 $55 $55 $44 $56 1 $73 $-1 #
edge $-1 $74 $74 $55 $75 1 #
coedge $-1 $57 $57 $45 $58 1 $76 $-1 #
edge $-1 $77 $77 $57 $78 0 #
vertex $-1 $46 $79 #
ellipse-curve $-1 -0.048 -0.002 0 -7.2280144832367e-17 -1 0 0.03 -2.16840434497101e-18 0 1 #
point $-1 -0.018 -0.238 0 #
pid_name-sg-attrib $-1 $-1 $-1 $50 7 114 119 105 108 115 111 110 784252905 359 1 #
face $80 $81 $82 $3 $-1 $83 reversed single #
loop $-1 $-1 $84 $50 #
plane-surface $-1 -0.0735 0.035 0.0147224318643355 -0.5 0 0.866025403784439 0.866025403784439 0 0.5 0 #
coedge $-1 $85 $86 $87 $88 1 $51 $-1 #
coedge $-1 $89 $53 $90 $91 0 $41 $-1 #
coedge $-1 $53 $92 $93 $94 0 $41 $-1 #
coedge $-1 $95 $96 $53 $70 1 $97 $-1 #
edge $-1 $98 $99 $69 $100 0 #
coedge $-1 $71 $71 $54 $72 1 $101 $-1 #
edge $-1 $102 $102 $71 $103 0 #
loop $-1 $-1 $55 $104 #
vertex $-1 $56 $105 #
ellipse-curve $-1 -0.048 0.054 0 1.44560289664734e-16 -1 0 0.048 6.93889390390723e-18 0 1 #
loop $-1 $-1 $57 $106 #
vertex $-1 $58 $107 #
ellipse-curve $-1 -0.048 -1.73472347597681e-18 0 5.42101086242752e-17 -1 0 0.032 1.73472347597681e-18 0 1 #
point $-1 -0.018 -0.002 0 #
pid_name-sg-attrib $-1 $-1 $-1 $63 7 114 119 105 108 115 111 110 784252905 360 1 #
face $108 $109 $110 $3 $-1 $111 reversed single #
loop $-1 $-1 $112 $63 #
plane-surface $-1 -0.0735 0.035 -0.0147224318643355 -1 0 0 0 0 1 0 #
coedge $-1 $113 $114 $115 $116 1 $64 $-1 #
coedge $-1 $117 $66 $118 $119 1 $51 $-1 #
coedge $-1 $66 $117 $113 $120 0 $51 $-1 #
coedge $-1 $121 $122 $66 $88 0 $123 $-1 #
edge $-1 $124 $125 $66 $126 1 #
coedge $-1 $127 $67 $128 $129 0 $41 $-1 #
coedge $-1 $130 $131 $67 $91 1 $110 $-1 #
edge $-1 $99 $132 $90 $133 0 #
coedge $-1 $68 $127 $117 $134 0 $41 $-1 #
coedge $-1 $118 $135 $68 $94 1 $136 $-1 #
edge $-1 $137 $98 $93 $138 0 #
coedge $-1 $139 $69 $135 $140 0 $97 $-1 #
coedge $-1 $69 $139 $130 $141 0 $97 $-1 #
loop $-1 $-1 $139 $109 #
vertex $-1 $70 $142 #
vertex $-1 $70 $143 #
straight-curve $-1 -0.0225 0.03 -0.0147224318643355 -0.866025403784439 0 -0.5 #
loop $-1 $-1 $71 $144 #
vertex $-1 $72 $145 #
ellipse-curve $-1 -0.048 0.0599999999999999 0 1.15648231731787e-15 -1 0 0.042 4.85722573273506e-17 0 1 #
face $146 $-1 $147 $3 $-1 $148 forward single #
point $-1 -0.096 0.054 5.87830463590729e-18 #
face $149 $104 $150 $3 $-1 $151 reversed single #
point $-1 -0.08 -1.73472347597681e-18 -3.91874033223161e-18 #
pid_name-sg-attrib $-1 $-1 $-1 $81 7 114 119 105 108 115 111 110 784252905 361 1 #
face $152 $153 $97 $3 $-1 $154 reversed single #
loop $-1 $-1 $155 $81 #
plane-surface $-1 -0.048 0.035 -0.0294448637286709 -0.5 0 -0.866025403784439 -0.866025403784439 0 0.5 0 #
coedge $-1 $156 $157 $158 $159 1 $82 $-1 #
coedge $-1 $160 $84 $86 $120 1 $64 $-1 #
coedge $-1 $84 $160 $156 $161 0 $64 $-1 #
coedge $-1 $162 $163 $84 $116 0 $164 $-1 #
edge $-1 $125 $165 $84 $166 1 #
coedge $-1 $86 $85 $92 $134 1 $51 $-1 #
coedge $-1 $167 $93 $85 $119 0 $136 $-1 #
edge $-1 $137 $124 $85 $168 0 #
edge $-1 $169 $125 $113 $170 1 #
coedge $-1 $171 $87 $163 $172 1 $123 $-1 #
coedge $-1 $87 $171 $173 $174 0 $123 $-1 #
loop $-1 $-1 $122 $175 #
vertex $-1 $174 $176 #
vertex $-1 $172 $177 #
straight-curve $-1 -0.048 0.056175 0.0294448637286709 0.866025403784439 -2.3565719195877e-16 -0.5 #
coedge $-1 $92 $89 $160 $178 0 $41 $-1 #
coedge $-1 $157 $156 $89 $129 1 $82 $-1 #
edge $-1 $132 $179 $128 $180 0 #
coedge $-1 $155 $90 $96 $141 1 $110 $-1 #
coedge $-1 $90 $155 $157 $181 1 $110 $-1 #
vertex $-1 $129 $182 #
straight-curve $-1 -0.048 0.03 -0.0294448637286709 -0.866025403784439 0 0.5 #
edge $-1 $169 $137 $117 $183 0 #
coedge $-1 $93 $167 $95 $140 1 $136 $-1 #
loop $-1 $-1 $167 $153 #
vertex $-1 $94 $184 #
straight-curve $-1 -0.0225 0.03 0.0147224318643354 1.17828595979385e-16 0 -1 #
coedge $-1 $96 $95 $185 $186 1 $97 $-1 #
edge $-1 $98 $187 $135 $188 1 #
edge $-1 $189 $99 $130 $190 0 #
point $-1 -0.0225 0.03 -0.0147224318643355 #
point $-1 -0.048 0.03 -0.0294448637286709 #
face $191 $106 $192 $3 $-1 $193 forward single #
point $-1 -0.00599999999999996 0.06 0 #
pid_name-sg-attrib $-1 $-1 $-1 $104 7 114 119 105 108 115 111 110 784252905 372 1 #
loop $-1 $73 $194 $104 #
cone-surface $-1 -0.048 -0.2655 0 0 1 0 0.048 0 0 1 0 1 0 #
pid_name-sg-attrib $-1 $-1 $-1 $106 7 114 119 105 108 115 111 110 784252905 371 1 #
loop $-1 $76 $195 $106 #
plane-surface $-1 -0.048 0 0 0 1 0 0 0 1 0 #
pid_name-sg-attrib $-1 $-1 $-1 $109 7 114 119 105 108 115 111 110 784252905 362 1 #
face $196 $197 $136 $3 $-1 $198 reversed single #
plane-surface $-1 -0.0225 0.035 -0.0147224318643355 0.5 0 -0.866025403784439 -0.866025403784439 0 -0.5 0 #
coedge $-1 $131 $130 $199 $200 1 $110 $-1 #
coedge $-1 $128 $112 $114 $161 1 $82 $-1 #
coedge $-1 $112 $128 $131 $181 0 $82 $-1 #
coedge $-1 $201 $202 $112 $159 0 $203 $-1 #
edge $-1 $165 $204 $112 $205 1 #
coedge $-1 $114 $113 $127 $178 1 $64 $-1 #
edge $-1 $179 $165 $156 $206 1 #
coedge $-1 $207 $115 $202 $208 1 $164 $-1 #
coedge $-1 $115 $207 $121 $172 0 $164 $-1 #
loop $-1 $-1 $163 $209 #
vertex $-1 $208 $210 #
straight-curve $-1 -0.0735 0.056175 0.0147224318643355 0.866025403784439 -2.3565719195877e-16 0.5 #
coedge $-1 $135 $118 $211 $212 1 $136 $-1 #
straight-curve $-1 -0.0225 0.03 0.0147224318643354 -2.65096233196074e-16 1 1.32548116598037e-16 #
vertex $-1 $134 $213 #
straight-curve $-1 -0.048 0.056175 0.0294448637286709 5.30192466392147e-16 -1 -2.65096233196074e-16 #
coedge $-1 $122 $121 $214 $215 0 $123 $-1 #
edge $-1 $216 $125 $121 $217 0 #
coedge $-1 $218 $211 $122 $174 1 $219 $-1 #
edge $-1 $220 $124 $173 $221 0 #
face $222 $209 $123 $3 $-1 $223 forward single #
point $-1 -0.0225 0.056175 0.0147224318643354 #
point $-1 -0.048 0.056175 0.0294448637286709 #
edge $-1 $179 $169 $160 $224 0 #
vertex $-1 $178 $225 #
straight-curve $-1 -0.0735 0.03 -0.0147224318643354 0 0 1 #
edge $-1 $132 $204 $131 $226 1 #
point $-1 -0.0735 0.03 -0.0147224318643354 #
straight-curve $-1 -0.048 0.03 0.0294448637286709 0.866025403784439 0 -0.5 #
point $-1 -0.0225 0.03 0.0147224318643354 #
coedge $-1 $227 $228 $139 $186 0 $229 $-1 #
edge $-1 $189 $187 $139 $230 1 #
vertex $-1 $231 $232 #
straight-curve $-1 -0.0225 0.056175 -0.0147224318643355 2.65096233196074e-16 -1 1.32548116598037e-16 #
vertex $-1 $233 $234 #
straight-curve $-1 -0.048 0.056175 -0.0294448637286709 0 -1 0 #
pid_name-sg-attrib $-1 $-1 $-1 $144 7 114 119 105 108 115 111 110 784252905 370 1 #
loop $-1 $101 $235 $144 #
plane-surface $-1 -0.048 0.06 0 0 1 0 0 0 1 0 #
coedge $-1 $194 $194 $195 $236 0 $147 $-1 #
coedge $-1 $195 $195 $194 $236 1 $150 $-1 #
pid_name-sg-attrib $-1 $-1 $-1 $153 7 114 119 105 108 115 111 110 784252905 363 1 #
face $237 $175 $219 $3 $-1 $238 forward single #
plane-surface $-1 -0.0225 0.035 0.0147224318643355 1 0 0 0 0 -1 0 #
coedge $-1 $239 $240 $155 $200 0 $241 $-1 #
edge $-1 $204 $189 $155 $242 1 #
coedge $-1 $243 $158 $240 $244 1 $203 $-1 #
coedge $-1 $158 $243 $162 $208 0 $203 $-1 #
loop $-1 $-1 $202 $245 #
vertex $-1 $244 $246 #
straight-curve $-1 -0.0735 0.056175 -0.0147224318643355 0 -2.3565719195877e-16 1 #
straight-curve $-1 -0.0735 0.056175 0.0147224318643355 0 -1 0 #
coedge $-1 $163 $162 $247 $248 0 $164 $-1 #
edge $-1 $249 $165 $162 $250 0 #
face $251 $245 $164 $3 $-1 $252 forward single #
point $-1 -0.0735 0.056175 0.0147224318643355 #
coedge $-1 $173 $253 $167 $212 0 $219 $-1 #
edge $-1 $187 $124 $167 $254 1 #
point $-1 -0.048 0.03 0.0294448637286709 #
coedge $-1 $247 $255 $171 $215 1 $192 $-1 #
edge $-1 $216 $220 $214 $256 0 #
vertex $-1 $172 $257 #
intcurve-curve $-1 0 { exactcur nubs 3 open 19 
	0 3 0.0555555555555556 2 0.111111111111111 2 0.166666666666667 2 0.222222222222222 2 
	0.277777777777778 2 0.333333333333333 2 0.388888888888889 2 0.444444444444444 2 0.5 2 
	0.555555555555556 2 0.611111111111111 2 0.666666666666667 2 0.722222222222222 2 0.777777777777778 2 
	0.833333333333333 2 0.888888888888889 2 0.944444444444444 2 1 3 
	-0.048 0.06 0.0338615932879715 
	-0.048 0.06 0.0337221567674126 
	-0.048 0.0599942895596724 0.033583031703467 
	-0.048 0.0599715309989959 0.0333060667730799 
	-0.048 0.059954482878647 0.0331682269066385 
	-0.048 0.0599093223227553 0.0328955495751729 
	-0.048 0.0598812098872123 0.0327607121101486 
	-0.048 0.0598143804195645 0.0324954106117401 
	-0.048 0.0597756633874596 0.0323649465783559 
	-0.048 0.0596882695279017 0.0321097616921363 
	-0.048 0.0596395927004485 0.0319850408393009 
	-0.048 0.059533092832251 0.0317425711643782 
	-0.048 0.0594752697915067 0.031624822342291 
	-0.048 0.059351496324837 0.0313974422426406 
	-0.048 0.0592855458989118 0.0312878109650775 
	-0.048 0.0591464941373169 0.0310773549567171 
	-0.048 0.0590733928016473 0.0309765302259198 
	-0.048 0.0589209724479691 0.0307841467073842 
	-0.048 0.0588416534299606 0.0306925879196459 
	-0.048 0.0586777263171376 0.0305190690837835 
	-0.048 0.0585931182223231 0.0304371090356594 
	-0.048 0.0584194979409325 0.0302829819853026 
	-0.048 0.0583304857543564 0.0302108149830699 
	-0.048 0.0581488846069498 0.0300763511142242 
	-0.048 0.0580562956461192 0.0300140542476112 
	-0.048 0.0578681914348693 0.0298992631780967 
	-0.048 0.0577726761844501 0.0298467689751951 
	-0.048 0.0575792880794191 0.0297515003245781 
	-0.048 0.0574814152248074 0.0297087258768627 
	-0.048 0.0572839456333219 0.0296328513130482 
	-0.048 0.0571843488964481 0.029599751196949 
	-0.048 0.0569840352786041 0.0295431495257979 
	-0.048 0.0568833183976338 0.0295196479707459 
	-0.048 0.0566813398430174 0.0294821392252492 
	-0.048 0.0565800781693713 0.0294681320348043 
	-0.048 0.0563774425723699 0.0294494942865152 
	-0.048 0.0562760686490146 0.0294448637286709 
	-0.048 0.056175 0.0294448637286709 
	0 
	null_surface 
	null_surface 
	nullbs 
	nullbs 
	} #
coedge $-1 $253 $173 $255 $258 0 $219 $-1 #
loop $-1 $-1 $253 $197 #
vertex $-1 $174 $259 #
intcurve-curve $-1 0 { exactcur nubs 3 open 19 
	0 3 0.0555555555555556 2 0.111111111111111 2 0.166666666666667 2 0.222222222222222 2 
	0.277777777777778 2 0.333333333333333 2 0.388888888888889 2 0.444444444444444 2 0.5 2 
	0.555555555555556 2 0.611111111111111 2 0.666666666666667 2 0.722222222222222 2 0.777777777777778 2 
	0.833333333333333 2 0.888888888888889 2 0.944444444444444 2 1 3 
	-0.018675 0.06 0.0169307966439858 
	-0.0187957555690194 0.06 0.0168610783837063 
	-0.0189162414086994 0.0599942895596724 0.0167915158517335 
	-0.019156100074372 0.0599715309989959 0.01665303338654 
	-0.0192754729003645 0.059954482878647 0.0165841134533193 
	-0.0195116183964499 0.0599093223227553 0.0164477747875864 
	-0.0196283910665428 0.0598812098872123 0.0163803560550743 
	-0.0198581489038266 0.0598143804195645 0.0162477053058701 
	-0.0199711340710175 0.0597756633874596 0.0161824732891779 
	-0.0201921306651456 0.0596882695279016 0.0160548808460681 
	-0.0203001420920827 0.0596395927004485 0.0159925204196504 
	-0.0205101269902131 0.059533092832251 0.0158712855821891 
	-0.0206121004614063 0.0594752697915067 0.0158124111711455 
	-0.0208090174040186 0.059351496324837 0.0156987211213203 
	-0.0209039608754376 0.0592855458989118 0.0156439054825387 
	-0.0210862211250568 0.0591464941373169 0.0155386774783585 
	-0.021173537903257 0.0590733928016472 0.0154882651129599 
	-0.0213401469175782 0.0589209724479691 0.0153920733536921 
	-0.0214194391536993 0.0588416534299606 0.0153462939598229 
	-0.0215697108735912 0.0586777263171376 0.0152595345418917 
	-0.0216406903573621 0.0585931182223231 0.0152185545178297 
	-0.0217741682983815 0.0584194979409325 0.0151414909926513 
	-0.02183666675563 0.0583304857543564 0.0151054074915349 
	-0.0219531158819414 0.0581488846069498 0.0150381755571121 
	-0.0220070665510044 0.0580562956461192 0.0150070271238056 
	-0.0221064785333316 0.0578681914348693 0.0149496315890483 
	-0.0221519398465958 0.0577726761844501 0.0149233844875975 
	-0.0222344449182144 0.0575792880794191 0.0148757501622891 
	-0.0222714886765687 0.0574814152248073 0.0148543629384314 
	-0.0223371979763332 0.0572839456333219 0.0148164256565241 
	-0.0223658635177433 0.0571843488964481 0.0147998755984745 
	-0.0224148820028569 0.0569840352786041 0.0147715747628989 
	-0.0224352349465603 0.0568833183976338 0.0147598239853729 
	-0.0224677184730246 0.0566813398430174 0.0147410696126246 
	-0.0224798490557854 0.0565800781693713 0.0147340660174022 
	-0.0224959898192731 0.0563774425723699 0.0147247471432576 
	-0.0225 0.0562760686490146 0.0147224318643354 
	-0.0225 0.056175 0.0147224318643354 
	0 
	null_surface 
	null_surface 
	nullbs 
	nullbs 
	} #
pid_name-sg-attrib $-1 $-1 $-1 $175 7 114 119 105 108 115 111 110 784252905 365 1 #
cone-surface $-1 -0.0460875 0.056175 0.0327574108981464 -0.866025403784439 0 0.5 0 0.003825 0 1 0 1 0 #
straight-curve $-1 -0.0735 0.03 0.0147224318643355 0.866025403784439 0 0.5 #
point $-1 -0.0735 0.03 0.0147224318643355 #
straight-curve $-1 -0.0735 0.056175 -0.0147224318643355 0 -1 -3.9764434979411e-16 #
coedge $-1 $260 $185 $253 $231 0 $229 $-1 #
coedge $-1 $185 $260 $239 $233 0 $229 $-1 #
loop $-1 $-1 $228 $261 #
straight-curve $-1 -0.0225 0.056175 -0.0147224318643355 -0.866025403784439 0 -0.5 #
edge $-1 $187 $262 $253 $263 1 #
point $-1 -0.0225 0.056175 -0.0147224318643355 #
edge $-1 $264 $189 $239 $265 0 #
point $-1 -0.048 0.056175 -0.0294448637286709 #
coedge $-1 $255 $266 $260 $267 1 $192 $-1 #
edge $-1 $268 $268 $195 $269 1 #
pid_name-sg-attrib $-1 $-1 $-1 $197 7 114 119 105 108 115 111 110 784252905 364 1 #
cone-surface $-1 -0.018675 0.056175 0.0147224318643355 0 0 1 0 0.003825 0 1 0 1 0 #
coedge $-1 $270 $199 $228 $233 1 $241 $-1 #
coedge $-1 $199 $270 $201 $244 0 $241 $-1 #
loop $-1 $-1 $240 $271 #
straight-curve $-1 -0.048 0.056175 -0.0294448637286709 -0.866025403784439 -2.3565719195877e-16 0.5 #
coedge $-1 $202 $201 $272 $273 0 $203 $-1 #
edge $-1 $274 $204 $201 $275 0 #
face $276 $271 $203 $3 $-1 $277 forward single #
point $-1 -0.0735 0.056175 -0.0147224318643354 #
coedge $-1 $272 $214 $207 $248 1 $192 $-1 #
edge $-1 $249 $216 $247 $278 0 #
vertex $-1 $208 $279 #
intcurve-curve $-1 0 { exactcur nubs 3 open 19 
	0 3 0.0555555555555556 2 0.111111111111111 2 0.166666666666667 2 0.222222222222222 2 
	0.277777777777778 2 0.333333333333333 2 0.388888888888889 2 0.444444444444444 2 0.5 2 
	0.555555555555556 2 0.611111111111111 2 0.666666666666667 2 0.722222222222222 2 0.777777777777778 2 
	0.833333333333333 2 0.888888888888889 2 0.944444444444444 2 1 3 
	-0.077325 0.06 0.0169307966439858 
	-0.0772042444309807 0.06 0.0168610783837063 
	-0.0770837585913006 0.0599942895596724 0.0167915158517335 
	-0.0768438999256281 0.0599715309989959 0.01665303338654 
	-0.0767245270996355 0.059954482878647 0.0165841134533193 
	-0.0764883816035501 0.0599093223227553 0.0164477747875864 
	-0.0763716089334572 0.0598812098872123 0.0163803560550743 
	-0.0761418510961734 0.0598143804195645 0.0162477053058701 
	-0.0760288659289824 0.0597756633874596 0.0161824732891779 
	-0.0758078693348544 0.0596882695279016 0.0160548808460681 
	-0.0756998579079173 0.0596395927004485 0.0159925204196504 
	-0.0754898730097869 0.059533092832251 0.0158712855821891 
	-0.0753878995385937 0.0594752697915067 0.0158124111711455 
	-0.0751909825959814 0.059351496324837 0.0156987211213203 
	-0.0750960391245624 0.0592855458989118 0.0156439054825387 
	-0.0749137788749432 0.0591464941373169 0.0155386774783585 
	-0.074826462096743 0.0590733928016472 0.0154882651129599 
	-0.0746598530824218 0.0589209724479691 0.0153920733536921 
	-0.0745805608463007 0.0588416534299606 0.0153462939598229 
	-0.0744302891264088 0.0586777263171376 0.0152595345418917 
	-0.0743593096426379 0.0585931182223231 0.0152185545178297 
	-0.0742258317016185 0.0584194979409325 0.0151414909926513 
	-0.07416333324437 0.0583304857543564 0.0151054074915349 
	-0.0740468841180586 0.0581488846069498 0.0150381755571121 
	-0.0739929334489956 0.0580562956461192 0.0150070271238056 
	-0.0738935214666684 0.0578681914348694 0.0149496315890483 
	-0.0738480601534042 0.0577726761844501 0.0149233844875976 
	-0.0737655550817856 0.0575792880794191 0.0148757501622891 
	-0.0737285113234313 0.0574814152248074 0.0148543629384314 
	-0.0736628020236668 0.0572839456333219 0.0148164256565241 
	-0.0736341364822567 0.0571843488964481 0.0147998755984745 
	-0.0735851179971432 0.0569840352786041 0.0147715747628989 
	-0.0735647650534397 0.0568833183976338 0.014759823985373 
	-0.0735322815269754 0.0566813398430174 0.0147410696126246 
	-0.0735201509442146 0.0565800781693713 0.0147340660174022 
	-0.0735040101807269 0.0563774425723699 0.0147247471432576 
	-0.0735 0.0562760686490146 0.0147224318643355 
	-0.0735 0.056175 0.0147224318643355 
	0 
	null_surface 
	null_surface 
	nullbs 
	nullbs 
	} #
pid_name-sg-attrib $-1 $-1 $-1 $209 7 114 119 105 108 115 111 110 784252905 366 1 #
cone-surface $-1 -0.0754125 0.056175 0.0180349790338109 -0.866025403784439 0 -0.5 0 0.003825 0 1 0 1 0 #
coedge $-1 $211 $218 $227 $231 1 $219 $-1 #
straight-curve $-1 -0.0225 0.056175 0.0147224318643355 0 0 -1 #
coedge $-1 $214 $235 $218 $258 1 $192 $-1 #
straight-curve $-1 -0.048 0.06 0.0338615932879715 0.866025403784439 0 -0.5 #
point $-1 -0.048 0.06 0.0338615932879715 #
edge $-1 $220 $262 $255 $280 0 #
point $-1 -0.018675 0.06 0.0169307966439858 #
coedge $-1 $228 $227 $235 $267 0 $229 $-1 #
face $281 $144 $229 $3 $-1 $282 forward single #
vertex $-1 $231 $283 #
intcurve-curve $-1 0 { exactcur nubs 3 open 19 
	0 3 0.0555555555555556 2 0.111111111111111 2 0.166666666666667 2 0.222222222222222 2 
	0.277777777777778 2 0.333333333333333 2 0.388888888888889 2 0.444444444444444 2 0.5 2 
	0.555555555555556 2 0.611111111111111 2 0.666666666666667 2 0.722222222222222 2 0.777777777777778 2 
	0.833333333333333 2 0.888888888888889 2 0.944444444444444 2 1 3 
	-0.018675 0.06 -0.0169307966439858 
	-0.0187957555690194 0.06 -0.0168610783837063 
	-0.0189162414086994 0.0599942895596724 -0.0167915158517335 
	-0.019156100074372 0.0599715309989959 -0.01665303338654 
	-0.0192754729003645 0.059954482878647 -0.0165841134533193 
	-0.0195116183964499 0.0599093223227553 -0.0164477747875864 
	-0.0196283910665428 0.0598812098872123 -0.0163803560550743 
	-0.0198581489038266 0.0598143804195645 -0.0162477053058701 
	-0.0199711340710176 0.0597756633874596 -0.0161824732891779 
	-0.0201921306651456 0.0596882695279016 -0.0160548808460681 
	-0.0203001420920827 0.0596395927004485 -0.0159925204196504 
	-0.0205101269902131 0.059533092832251 -0.0158712855821891 
	-0.0206121004614063 0.0594752697915067 -0.0158124111711455 
	-0.0208090174040186 0.059351496324837 -0.0156987211213203 
	-0.0209039608754376 0.0592855458989118 -0.0156439054825387 
	-0.0210862211250568 0.0591464941373169 -0.0155386774783585 
	-0.0211735379032569 0.0590733928016472 -0.0154882651129599 
	-0.0213401469175782 0.0589209724479691 -0.0153920733536921 
	-0.0214194391536993 0.0588416534299606 -0.015346293959823 
	-0.0215697108735912 0.0586777263171376 -0.0152595345418917 
	-0.0216406903573621 0.0585931182223231 -0.0152185545178297 
	-0.0217741682983814 0.0584194979409325 -0.0151414909926513 
	-0.0218366667556299 0.0583304857543564 -0.0151054074915349 
	-0.0219531158819414 0.0581488846069498 -0.0150381755571121 
	-0.0220070665510044 0.0580562956461192 -0.0150070271238056 
	-0.0221064785333316 0.0578681914348694 -0.0149496315890483 
	-0.0221519398465958 0.0577726761844501 -0.0149233844875976 
	-0.0222344449182144 0.0575792880794191 -0.0148757501622891 
	-0.0222714886765687 0.0574814152248073 -0.0148543629384314 
	-0.0223371979763332 0.0572839456333219 -0.0148164256565241 
	-0.0223658635177433 0.0571843488964481 -0.0147998755984745 
	-0.0224148820028569 0.0569840352786041 -0.0147715747628989 
	-0.0224352349465603 0.0568833183976338 -0.014759823985373 
	-0.0224677184730246 0.0566813398430174 -0.0147410696126246 
	-0.0224798490557854 0.0565800781693713 -0.0147340660174022 
	-0.0224959898192731 0.0563774425723699 -0.0147247471432576 
	-0.0225 0.0562760686490146 -0.0147224318643355 
	-0.0225 0.056175 -0.0147224318643355 
	0 
	null_surface 
	null_surface 
	nullbs 
	nullbs 
	} #
vertex $-1 $233 $284 #
intcurve-curve $-1 0 { exactcur nubs 3 open 19 
	0 3 0.0555555555555556 2 0.111111111111111 2 0.166666666666667 2 0.222222222222222 2 
	0.277777777777778 2 0.333333333333333 2 0.388888888888889 2 0.444444444444444 2 0.5 2 
	0.555555555555556 2 0.611111111111111 2 0.666666666666667 2 0.722222222222222 2 0.777777777777778 2 
	0.833333333333333 2 0.888888888888889 2 0.944444444444444 2 1 3 
	-0.048 0.06 -0.0338615932879715 
	-0.048 0.06 -0.0337221567674126 
	-0.048 0.0599942895596724 -0.033583031703467 
	-0.048 0.0599715309989959 -0.03330606677308 
	-0.048 0.059954482878647 -0.0331682269066386 
	-0.048 0.0599093223227553 -0.0328955495751729 
	-0.048 0.0598812098872123 -0.0327607121101486 
	-0.048 0.0598143804195645 -0.0324954106117401 
	-0.048 0.0597756633874596 -0.0323649465783559 
	-0.048 0.0596882695279016 -0.0321097616921363 
	-0.048 0.0596395927004485 -0.0319850408393009 
	-0.048 0.059533092832251 -0.0317425711643782 
	-0.048 0.0594752697915067 -0.031624822342291 
	-0.048 0.059351496324837 -0.0313974422426406 
	-0.048 0.0592855458989118 -0.0312878109650775 
	-0.048 0.0591464941373169 -0.0310773549567171 
	-0.048 0.0590733928016472 -0.0309765302259198 
	-0.048 0.0589209724479691 -0.0307841467073842 
	-0.048 0.0588416534299606 -0.0306925879196459 
	-0.048 0.0586777263171376 -0.0305190690837835 
	-0.048 0.0585931182223231 -0.0304371090356594 
	-0.048 0.0584194979409325 -0.0302829819853026 
	-0.048 0.0583304857543564 -0.0302108149830699 
	-0.048 0.0581488846069498 -0.0300763511142242 
	-0.048 0.0580562956461192 -0.0300140542476113 
	-0.048 0.0578681914348694 -0.0298992631780967 
	-0.048 0.0577726761844501 -0.0298467689751951 
	-0.048 0.0575792880794191 -0.0297515003245781 
	-0.048 0.0574814152248074 -0.0297087258768627 
	-0.048 0.0572839456333219 -0.0296328513130482 
	-0.048 0.0571843488964481 -0.029599751196949 
	-0.048 0.0569840352786041 -0.0295431495257979 
	-0.048 0.0568833183976338 -0.0295196479707459 
	-0.048 0.0566813398430174 -0.0294821392252492 
	-0.048 0.0565800781693713 -0.0294681320348043 
	-0.048 0.0563774425723699 -0.0294494942865152 
	-0.048 0.0562760686490146 -0.0294448637286709 
	-0.048 0.056175 -0.0294448637286709 
	0 
	null_surface 
	null_surface 
	nullbs 
	nullbs 
	} #
coedge $-1 $235 $272 $270 $285 1 $192 $-1 #
edge $-1 $262 $264 $235 $286 0 #
vertex $-1 $236 $287 #
ellipse-curve $-1 -0.048 -2.77555756156289e-16 0 5.78241158658936e-15 -1 0 0.048 2.77555756156289e-16 0 1 #
coedge $-1 $240 $239 $266 $285 0 $241 $-1 #
face $288 $261 $241 $3 $-1 $289 forward single #
coedge $-1 $266 $247 $243 $273 1 $192 $-1 #
edge $-1 $274 $249 $272 $290 0 #
vertex $-1 $244 $291 #
intcurve-curve $-1 0 { exactcur nubs 3 open 19 
	0 3 0.0555555555555556 2 0.111111111111111 2 0.166666666666667 2 0.222222222222222 2 
	0.277777777777778 2 0.333333333333333 2 0.388888888888889 2 0.444444444444444 2 0.5 2 
	0.555555555555556 2 0.611111111111111 2 0.666666666666667 2 0.722222222222222 2 0.777777777777778 2 
	0.833333333333333 2 0.888888888888889 2 0.944444444444444 2 1 3 
	-0.077325 0.06 -0.0169307966439858 
	-0.0772042444309806 0.06 -0.0168610783837063 
	-0.0770837585913006 0.0599942895596724 -0.0167915158517335 
	-0.076843899925628 0.0599715309989959 -0.01665303338654 
	-0.0767245270996355 0.0599544828786471 -0.0165841134533193 
	-0.0764883816035501 0.0599093223227553 -0.0164477747875864 
	-0.0763716089334572 0.0598812098872123 -0.0163803560550743 
	-0.0761418510961734 0.0598143804195645 -0.0162477053058701 
	-0.0760288659289824 0.0597756633874597 -0.016182473289178 
	-0.0758078693348544 0.0596882695279017 -0.0160548808460681 
	-0.0756998579079173 0.0596395927004485 -0.0159925204196504 
	-0.0754898730097869 0.059533092832251 -0.0158712855821891 
	-0.0753878995385937 0.0594752697915067 -0.0158124111711455 
	-0.0751909825959814 0.059351496324837 -0.0156987211213203 
	-0.0750960391245624 0.0592855458989118 -0.0156439054825387 
	-0.0749137788749432 0.0591464941373169 -0.0155386774783585 
	-0.0748264620967431 0.0590733928016472 -0.0154882651129599 
	-0.0746598530824218 0.0589209724479691 -0.0153920733536921 
	-0.0745805608463007 0.0588416534299606 -0.0153462939598229 
	-0.0744302891264088 0.0586777263171376 -0.0152595345418917 
	-0.0743593096426379 0.0585931182223231 -0.0152185545178297 
	-0.0742258317016185 0.0584194979409325 -0.0151414909926513 
	-0.07416333324437 0.0583304857543564 -0.0151054074915349 
	-0.0740468841180586 0.0581488846069498 -0.0150381755571121 
	-0.0739929334489956 0.0580562956461192 -0.0150070271238056 
	-0.0738935214666684 0.0578681914348693 -0.0149496315890483 
	-0.0738480601534042 0.0577726761844501 -0.0149233844875975 
	-0.0737655550817856 0.0575792880794191 -0.0148757501622891 
	-0.0737285113234313 0.0574814152248074 -0.0148543629384314 
	-0.0736628020236668 0.0572839456333219 -0.0148164256565241 
	-0.0736341364822567 0.0571843488964481 -0.0147998755984745 
	-0.0735851179971432 0.0569840352786041 -0.0147715747628989 
	-0.0735647650534397 0.0568833183976338 -0.014759823985373 
	-0.0735322815269754 0.0566813398430174 -0.0147410696126246 
	-0.0735201509442146 0.0565800781693713 -0.0147340660174022 
	-0.0735040101807269 0.0563774425723699 -0.0147247471432576 
	-0.0735 0.0562760686490146 -0.0147224318643354 
	-0.0735 0.056175 -0.0147224318643354 
	0 
	null_surface 
	null_surface 
	nullbs 
	nullbs 
	} #
pid_name-sg-attrib $-1 $-1 $-1 $245 7 114 119 105 108 115 111 110 784252905 367 1 #
cone-surface $-1 -0.077325 0.056175 -0.0147224318643355 0 0 -1 0 0.003825 0 1 0 1 0 #
straight-curve $-1 -0.077325 0.06 0.0169307966439858 0.866025403784439 0 0.5 #
point $-1 -0.077325 0.06 0.0169307966439858 #
straight-curve $-1 -0.018675 0.06 0.0169307966439858 0 0 -1 #
pid_name-sg-attrib $-1 $-1 $-1 $261 7 114 119 105 108 115 111 110 784252905 369 1 #
cone-surface $-1 -0.018675 0.056175 -0.0169307966439858 0.866025403784439 0 0.5 0 0.003825 0 1 0 1 0 #
point $-1 -0.018675 0.06 -0.0169307966439858 #
point $-1 -0.048 0.06 -0.0338615932879715 #
edge $-1 $264 $274 $266 $292 0 #
straight-curve $-1 -0.018675 0.06 -0.0169307966439858 -0.866025403784439 0 -0.5 #
point $-1 0 0 0 #
pid_name-sg-attrib $-1 $-1 $-1 $271 7 114 119 105 108 115 111 110 784252905 368 1 #
cone-surface $-1 -0.0499125 0.056175 -0.0327574108981464 0.866025403784439 0 -0.5 0 0.003825 0 1 0 1 0 #
straight-curve $-1 -0.077325 0.06 -0.0169307966439858 -4.09838594710905e-16 0 1 #
point $-1 -0.077325 0.06 -0.0169307966439858 #
straight-curve $-1 -0.048 0.06 -0.0338615932879715 -0.866025403784439 0 0.5 #
