600 0 1 0           
119 GICL ACIS Healer - Source: /gicl/data5/repository/Sandia/Randy_Wilson/discriminator/nas1351c00-4/nas1351c00-4.sat - 6 0 18 ACIS 6.0.3 Solaris 24 Sat Apr 13 23:38:09 2002 
1 9.999999999999999547e-07 1.000000000000000036e-10 
body $-1 $1 $-1 $2 #
lump $-1 $-1 $3 $0 #
transform $-1 1 0 0 0 1 0 0 0 1 0 0 0 1 no_rotate no_reflect no_shear #
shell $-1 $-1 $-1 $4 $-1 $1 #
face $5 $6 $7 $3 $-1 $8 reversed single #
pid_name-sg-attrib $-1 $-1 $-1 $4 7 rwilson 784252905 352 1 #
face $9 $10 $11 $3 $-1 $12 forward single #
loop $-1 $-1 $13 $4 #
plane-surface $-1 -0.048000000000000001 -0.25 0 0 1 0 0 0 1 forward_v I I I I #
pid_name-sg-attrib $-1 $-1 $-1 $6 7 rwilson 784252905 353 1 #
face $14 $15 $16 $3 $-1 $17 forward single #
loop $-1 $18 $19 $6 #
cone-surface $-1 -0.048000000000000001 0.731999999999999984 0 0 1 0 0.9999999999999990008 0 0 1 I I 0.7071067811865470176 0.7071067811865480168 0.9999999999999990008 forward I I I I #
coedge $-1 $13 $13 $19 $20 reversed $7 $-1 #
pid_name-sg-attrib $-1 $-1 $-1 $10 7 rwilson 784252905 354 1 #
face $21 $22 $23 $3 $-1 $24 reversed single #
loop $-1 $25 $26 $10 #
cone-surface $-1 -0.048000000000000001 -0.2655000000000000138 0 0 1 0 0.02999999999999999889 0 0 1 I I 0 1 0.02999999999999999889 forward I I I I #
loop $-1 $-1 $27 $6 #
coedge $-1 $19 $19 $13 $20 forward $11 $-1 #
edge $-1 $28 -6.283185307179586232 $28 -0 $13 $29 reversed 7 unknown #
pid_name-sg-attrib $-1 $-1 $-1 $15 7 rwilson 784252905 355 1 #
face $30 $31 $32 $3 $-1 $33 forward single #
loop $-1 $34 $35 $15 #
torus-surface $-1 -0.048000000000000001 -0.002000000000000000042 0 0 1 0 0.03200000000000000067 0.002000000000000000042 0 0 1 forward_v I I I I #
loop $-1 $-1 $36 $10 #
coedge $-1 $26 $26 $27 $37 forward $16 $-1 #
coedge $-1 $27 $27 $26 $37 reversed $18 $-1 #
vertex $-1 $20 $38 #
ellipse-curve $-1 -0.048000000000000001 -0.25 0 0 -1 0 0.01799999999999999864 0 0 1 I I #
pid_name-sg-attrib $-1 $-1 $-1 $22 7 rwilson 784252905 356 1 #
face $39 $40 $41 $3 $-1 $42 forward single #
loop $-1 $43 $44 $22 #
cone-surface $-1 -0.048000000000000001 -0.8980000000000000204 0 0 -1 0 0.9999999999999990008 0 0 1 I I 0.7071067811865470176 0.7071067811865480168 0.9999999999999990008 forward I I I I #
loop $-1 $-1 $45 $15 #
coedge $-1 $35 $35 $36 $46 forward $23 $-1 #
coedge $-1 $36 $36 $35 $46 reversed $25 $-1 #
edge $-1 $47 -6.283185307179586232 $47 -0 $27 $48 reversed 7 unknown #
point $-1 -0.02999999999999999889 -0.25 0 #
pid_name-sg-attrib $-1 $-1 $-1 $31 7 rwilson 784252905 357 1 #
face $49 $50 $51 $3 $-1 $52 reversed single #
loop $-1 $-1 $53 $31 #
plane-surface $-1 -0.048000000000000001 0.02999999999999999889 0 0 1 0 0 0 1 forward_v I I I I #
loop $-1 $-1 $54 $22 #
coedge $-1 $44 $44 $55 $56 forward $32 $-1 #
coedge $-1 $45 $45 $57 $58 forward $34 $-1 #
edge $-1 $59 -6.283185307179586232 $59 -0 $36 $60 reversed 7 unknown #
vertex $-1 $37 $61 #
ellipse-curve $-1 -0.048000000000000001 -0.2379999999999999893 0 0 -1 0 0.02999999999999999889 0 0 1 I I #
pid_name-sg-attrib $-1 $-1 $-1 $40 7 rwilson 784252905 358 1 #
face $62 $63 $64 $3 $-1 $65 reversed single #
loop $-1 $-1 $66 $40 #
plane-surface $-1 -0.048000000000000001 0.03500000000000000333 0.0294448637286708996 0.499999999999999889 0 0.8660254037844388186 0.8660254037844390407 0 -0.5 forward_v I I I I #
coedge $-1 $67 $68 $69 $70 forward $41 $-1 #
coedge $-1 $54 $54 $71 $72 forward $43 $-1 #
coedge $-1 $55 $55 $44 $56 reversed $73 $-1 #
edge $-1 $74 -3.141592653589793116 $74 3.141592653589793116 $55 $75 reversed 7 unknown #
coedge $-1 $57 $57 $45 $58 reversed $76 $-1 #
edge $-1 $77 -3.141592653589793116 $77 3.141592653589793116 $57 $78 forward 7 unknown #
vertex $-1 $46 $79 #
ellipse-curve $-1 -0.048000000000000001 -0.002000000000000000042 0 -7.228014483236699514e-17 -1 0 0.02999999999999999889 -2.168404344971010024e-18 0 1 I I #
point $-1 -0.01799999999999999864 -0.2379999999999999893 0 #
pid_name-sg-attrib $-1 $-1 $-1 $50 7 rwilson 784252905 359 1 #
face $80 $81 $82 $3 $-1 $83 reversed single #
loop $-1 $-1 $84 $50 #
plane-surface $-1 -0.07349999999999999589 0.03500000000000000333 0.01472243186433550011 -0.499999999999999889 0 0.8660254037844388186 0.8660254037844390407 0 0.5 forward_v I I I I #
coedge $-1 $85 $86 $87 $88 reversed $51 $-1 #
coedge $-1 $89 $53 $90 $91 forward $41 $-1 #
coedge $-1 $53 $92 $93 $94 forward $41 $-1 #
coedge $-1 $95 $96 $53 $70 reversed $97 $-1 #
edge $-1 $98 0 $99 0.02944486372867088225 $69 $100 forward 7 unknown #
coedge $-1 $71 $71 $54 $72 reversed $101 $-1 #
edge $-1 $102 0 $102 6.283185307179586232 $71 $103 forward 7 unknown #
loop $-1 $-1 $55 $104 #
vertex $-1 $56 $105 #
ellipse-curve $-1 -0.048000000000000001 0.05399999999999999939 0 1.445602896647339903e-16 -1 0 0.048000000000000001 6.938893903907229918e-18 0 1 I I #
loop $-1 $-1 $57 $106 #
vertex $-1 $58 $107 #
ellipse-curve $-1 -0.048000000000000001 -1.734723475976810176e-18 0 5.421010862427519705e-17 -1 0 0.03200000000000000067 1.734723475976810176e-18 0 1 I I #
point $-1 -0.01799999999999999864 -0.002000000000000000042 0 #
pid_name-sg-attrib $-1 $-1 $-1 $63 7 rwilson 784252905 360 1 #
face $108 $109 $110 $3 $-1 $111 reversed single #
loop $-1 $-1 $112 $63 #
plane-surface $-1 -0.07349999999999999589 0.03500000000000000333 -0.01472243186433550011 -1 0 0 0 0 1 forward_v I I I I #
coedge $-1 $113 $114 $115 $116 reversed $64 $-1 #
coedge $-1 $117 $66 $118 $119 reversed $51 $-1 #
coedge $-1 $66 $117 $113 $120 forward $51 $-1 #
coedge $-1 $121 $122 $66 $88 forward $123 $-1 #
edge $-1 $124 -0.02944486372867093082 $125 -0 $66 $126 reversed 7 unknown #
coedge $-1 $127 $67 $128 $129 forward $41 $-1 #
coedge $-1 $130 $131 $67 $91 reversed $110 $-1 #
edge $-1 $99 0 $132 0.02944486372867092389 $90 $133 forward 7 unknown #
coedge $-1 $68 $127 $117 $134 forward $41 $-1 #
coedge $-1 $118 $135 $68 $94 reversed $136 $-1 #
edge $-1 $137 0 $98 0.0294448637286708996 $93 $138 forward 7 unknown #
coedge $-1 $139 $69 $135 $140 forward $97 $-1 #
coedge $-1 $69 $139 $130 $141 forward $97 $-1 #
loop $-1 $-1 $139 $109 #
vertex $-1 $70 $142 #
vertex $-1 $70 $143 #
straight-curve $-1 -0.02249999999999999917 0.02999999999999999889 -0.01472243186433550011 -0.8660254037844390407 0 -0.5 I I #
loop $-1 $-1 $71 $144 #
vertex $-1 $72 $145 #
ellipse-curve $-1 -0.048000000000000001 0.05999999999999990064 0 1.15648231731786995e-15 -1 0 0.04200000000000000261 4.857225732735059864e-17 0 1 I I #
face $146 $-1 $147 $3 $-1 $148 forward single #
point $-1 -0.096000000000000002 0.05399999999999999939 5.878304635907290082e-18 #
face $149 $104 $150 $3 $-1 $151 reversed single #
point $-1 -0.08000000000000000167 -1.734723475976810176e-18 -3.918740332231610129e-18 #
pid_name-sg-attrib $-1 $-1 $-1 $81 7 rwilson 784252905 361 1 #
face $152 $153 $97 $3 $-1 $154 reversed single #
loop $-1 $-1 $155 $81 #
plane-surface $-1 -0.048000000000000001 0.03500000000000000333 -0.0294448637286708996 -0.499999999999999889 0 -0.8660254037844388186 -0.8660254037844390407 0 0.5 forward_v I I I I #
coedge $-1 $156 $157 $158 $159 reversed $82 $-1 #
coedge $-1 $160 $84 $86 $120 reversed $64 $-1 #
coedge $-1 $84 $160 $156 $161 forward $64 $-1 #
coedge $-1 $162 $163 $84 $116 forward $164 $-1 #
edge $-1 $125 -0.02944486372867087531 $165 -0 $84 $166 reversed 7 unknown #
coedge $-1 $86 $85 $92 $134 reversed $51 $-1 #
coedge $-1 $167 $93 $85 $119 forward $136 $-1 #
edge $-1 $137 0 $124 0.02617500000000000382 $85 $168 forward 7 unknown #
edge $-1 $169 -0.02617500000000000382 $125 -0 $113 $170 reversed 7 unknown #
coedge $-1 $171 $87 $163 $172 reversed $123 $-1 #
coedge $-1 $87 $171 $173 $174 forward $123 $-1 #
loop $-1 $-1 $122 $175 #
vertex $-1 $174 $176 #
vertex $-1 $172 $177 #
straight-curve $-1 -0.048000000000000001 0.05617500000000000271 0.0294448637286708996 0.8660254037844390407 -2.356571919587700074e-16 -0.5 I I #
coedge $-1 $92 $89 $160 $178 forward $41 $-1 #
coedge $-1 $157 $156 $89 $129 reversed $82 $-1 #
edge $-1 $132 0 $179 0.0294448637286708996 $128 $180 forward 7 unknown #
coedge $-1 $155 $90 $96 $141 reversed $110 $-1 #
coedge $-1 $90 $155 $157 $181 reversed $110 $-1 #
vertex $-1 $129 $182 #
straight-curve $-1 -0.048000000000000001 0.02999999999999999889 -0.0294448637286708996 -0.8660254037844390407 0 0.5 I I #
edge $-1 $169 0 $137 0.02944486372867093082 $117 $183 forward 7 unknown #
coedge $-1 $93 $167 $95 $140 reversed $136 $-1 #
loop $-1 $-1 $167 $153 #
vertex $-1 $94 $184 #
straight-curve $-1 -0.02249999999999999917 0.02999999999999999889 0.01472243186433539949 1.178285959793850037e-16 0 -1 I I #
coedge $-1 $96 $95 $185 $186 reversed $97 $-1 #
edge $-1 $98 -0.02617500000000000382 $187 -0 $135 $188 reversed 7 unknown #
edge $-1 $189 0 $99 0.02617500000000000382 $130 $190 forward 7 unknown #
point $-1 -0.02249999999999999917 0.02999999999999999889 -0.01472243186433550011 #
point $-1 -0.048000000000000001 0.02999999999999999889 -0.0294448637286708996 #
face $191 $106 $192 $3 $-1 $193 forward single #
point $-1 -0.005999999999999960226 0.05999999999999999778 0 #
pid_name-sg-attrib $-1 $-1 $-1 $104 7 rwilson 784252905 372 1 #
loop $-1 $73 $194 $104 #
cone-surface $-1 -0.048000000000000001 -0.2655000000000000138 0 0 1 0 0.048000000000000001 0 0 1 I I 0 1 0.048000000000000001 forward I I I I #
pid_name-sg-attrib $-1 $-1 $-1 $106 7 rwilson 784252905 371 1 #
loop $-1 $76 $195 $106 #
plane-surface $-1 -0.048000000000000001 0 0 0 1 0 0 0 1 forward_v I I I I #
pid_name-sg-attrib $-1 $-1 $-1 $109 7 rwilson 784252905 362 1 #
face $196 $197 $136 $3 $-1 $198 reversed single #
plane-surface $-1 -0.02249999999999999917 0.03500000000000000333 -0.01472243186433550011 0.499999999999999889 0 -0.8660254037844388186 -0.8660254037844390407 0 -0.5 forward_v I I I I #
coedge $-1 $131 $130 $199 $200 reversed $110 $-1 #
coedge $-1 $128 $112 $114 $161 reversed $82 $-1 #
coedge $-1 $112 $128 $131 $181 forward $82 $-1 #
coedge $-1 $201 $202 $112 $159 forward $203 $-1 #
edge $-1 $165 -0.02944486372867100021 $204 -1.006139616066548115e-16 $112 $205 reversed 7 unknown #
coedge $-1 $114 $113 $127 $178 reversed $64 $-1 #
edge $-1 $179 -0.02617500000000000382 $165 -0 $156 $206 reversed 7 unknown #
coedge $-1 $207 $115 $202 $208 reversed $164 $-1 #
coedge $-1 $115 $207 $121 $172 forward $164 $-1 #
loop $-1 $-1 $163 $209 #
vertex $-1 $208 $210 #
straight-curve $-1 -0.07349999999999999589 0.05617500000000000271 0.01472243186433550011 0.8660254037844390407 -2.356571919587700074e-16 0.5 I I #
coedge $-1 $135 $118 $211 $212 reversed $136 $-1 #
straight-curve $-1 -0.02249999999999999917 0.02999999999999999889 0.01472243186433539949 -2.650962331960739973e-16 1 1.325481165980369987e-16 I I #
vertex $-1 $134 $213 #
straight-curve $-1 -0.048000000000000001 0.05617500000000000271 0.0294448637286708996 5.301924663921470086e-16 -1 -2.650962331960739973e-16 I I #
coedge $-1 $122 $121 $214 $215 forward $123 $-1 #
edge $-1 $216 0 $125 1 $121 $217 forward 7 unknown #
coedge $-1 $218 $211 $122 $174 reversed $219 $-1 #
edge $-1 $220 0 $124 1 $173 $221 forward 7 unknown #
face $222 $209 $123 $3 $-1 $223 forward single #
point $-1 -0.02249999999999999917 0.05617500000000000271 0.01472243186433539949 #
point $-1 -0.048000000000000001 0.05617500000000000271 0.0294448637286708996 #
edge $-1 $179 0 $169 0.02944486372867087531 $160 $224 forward 7 unknown #
vertex $-1 $178 $225 #
straight-curve $-1 -0.07349999999999999589 0.02999999999999999889 -0.01472243186433539949 0 0 1 I I #
edge $-1 $132 -0.02617500000000000382 $204 4.000857334328780251e-32 $131 $226 reversed 7 unknown #
point $-1 -0.07349999999999999589 0.02999999999999999889 -0.01472243186433539949 #
straight-curve $-1 -0.048000000000000001 0.02999999999999999889 0.0294448637286708996 0.8660254037844390407 0 -0.5 I I #
point $-1 -0.02249999999999999917 0.02999999999999999889 0.01472243186433539949 #
coedge $-1 $227 $228 $139 $186 forward $229 $-1 #
edge $-1 $189 -0.02944486372867088225 $187 -0 $139 $230 reversed 7 unknown #
vertex $-1 $231 $232 #
straight-curve $-1 -0.02249999999999999917 0.05617500000000000271 -0.01472243186433550011 2.650962331960739973e-16 -1 1.325481165980369987e-16 I I #
vertex $-1 $233 $234 #
straight-curve $-1 -0.048000000000000001 0.05617500000000000271 -0.0294448637286708996 0 -1 0 I I #
pid_name-sg-attrib $-1 $-1 $-1 $144 7 rwilson 784252905 370 1 #
loop $-1 $101 $235 $144 #
plane-surface $-1 -0.048000000000000001 0.05999999999999999778 0 0 1 0 0 0 1 forward_v I I I I #
coedge $-1 $194 $194 $195 $236 forward $147 $-1 #
coedge $-1 $195 $195 $194 $236 reversed $150 $-1 #
pid_name-sg-attrib $-1 $-1 $-1 $153 7 rwilson 784252905 363 1 #
face $237 $175 $219 $3 $-1 $238 forward single #
plane-surface $-1 -0.02249999999999999917 0.03500000000000000333 0.01472243186433550011 1 0 0 0 0 -1 forward_v I I I I #
coedge $-1 $239 $240 $155 $200 forward $241 $-1 #
edge $-1 $204 -0.02944486372867092389 $189 -0 $155 $242 reversed 7 unknown #
coedge $-1 $243 $158 $240 $244 reversed $203 $-1 #
coedge $-1 $158 $243 $162 $208 forward $203 $-1 #
loop $-1 $-1 $202 $245 #
vertex $-1 $244 $246 #
straight-curve $-1 -0.07349999999999999589 0.05617500000000000271 -0.01472243186433550011 0 -2.356571919587700074e-16 1 I I #
straight-curve $-1 -0.07349999999999999589 0.05617500000000000271 0.01472243186433550011 0 -1 0 I I #
coedge $-1 $163 $162 $247 $248 forward $164 $-1 #
edge $-1 $249 0 $165 1 $162 $250 forward 7 unknown #
face $251 $245 $164 $3 $-1 $252 forward single #
point $-1 -0.07349999999999999589 0.05617500000000000271 0.01472243186433550011 #
coedge $-1 $173 $253 $167 $212 forward $219 $-1 #
edge $-1 $187 -0.02944486372867100021 $124 -1.006139616066548115e-16 $167 $254 reversed 7 unknown #
point $-1 -0.048000000000000001 0.02999999999999999889 0.0294448637286708996 #
coedge $-1 $247 $255 $171 $215 reversed $192 $-1 #
edge $-1 $216 0 $220 0.03386159328797151008 $214 $256 forward 7 unknown #
vertex $-1 $172 $257 #
intcurve-curve $-1 forward { exactcur full nubs 3 open 19 
	0 3 0.05555555555555560104 2 0.1111111111111109939 2 0.1666666666666669905 2 0.2222222222222219878 2 
	0.2777777777777780122 2 0.3333333333333329818 2 0.3888888888888890061 2 0.4444444444444439757 2 0.5 2 
	0.5555555555555560243 2 0.6111111111111110494 2 0.6666666666666669627 2 0.7222222222222219878 2 0.7777777777777780122 2 
	0.8333333333333330373 2 0.8888888888888889506 2 0.9444444444444439757 2 1 3 
	-0.048000000000000001 0.05999999999999999778 0.03386159328797150314 
	-0.048000000000000001 0.05999999999999999778 0.03372215676741260187 
	-0.048000000000000001 0.05999428955967239796 0.03358303170346699923 
	-0.048000000000000001 0.05997153099899590195 0.03330606677307990093 
	-0.048000000000000001 0.05995448287864699882 0.03316822690663850243 
	-0.048000000000000001 0.05990932232275530261 0.03289554957517289852 
	-0.048000000000000001 0.05988120988721230137 0.0327607121101486029 
	-0.048000000000000001 0.05981438041956450152 0.03249541061174009843 
	-0.048000000000000001 0.05977566338745959884 0.03236494657835590344 
	-0.048000000000000001 0.05968826952790169671 0.03210976169213630022 
	-0.048000000000000001 0.05963959270044850297 0.03198504083930089892 
	-0.048000000000000001 0.05953309283225100002 0.0317425711643782027 
	-0.048000000000000001 0.05947526979150669774 0.03162482234229099798 
	-0.048000000000000001 0.05935149632483700116 0.03139744224264059969 
	-0.048000000000000001 0.05928554589891180115 0.03128781096507750326 
	-0.048000000000000001 0.05914649413731690175 0.03107735495671709938 
	-0.048000000000000001 0.0590733928016472995 0.03097653022591979888 
	-0.048000000000000001 0.05892097244796910133 0.03078414670738420164 
	-0.048000000000000001 0.05884165342996060255 0.03069258791964590144 
	-0.048000000000000001 0.0586777263171376004 0.03051906908378350033 
	-0.048000000000000001 0.05859311822232309702 0.03043710903565939943 
	-0.048000000000000001 0.05841949794093249937 0.03028298198530260041 
	-0.048000000000000001 0.05833048575435639815 0.03021081498306989882 
	-0.048000000000000001 0.05814888460694980082 0.03007635111422420071 
	-0.048000000000000001 0.05805629564611920063 0.03001405424761120072 
	-0.048000000000000001 0.05786819143486929967 0.02989926317809669942 
	-0.048000000000000001 0.057772676184450103 0.02984676897519510097 
	-0.048000000000000001 0.05757928807941910254 0.02975150032457810068 
	-0.048000000000000001 0.05748141522480740284 0.02970872587686269883 
	-0.048000000000000001 0.05728394563332189771 0.02963285131304820019 
	-0.048000000000000001 0.05718434889644809921 0.02959975119694899931 
	-0.048000000000000001 0.05698403527860410045 0.02954314952579789946 
	-0.048000000000000001 0.05688331839763380304 0.02951964797074589988 
	-0.048000000000000001 0.05668133984301740314 0.02948213922524919872 
	-0.048000000000000001 0.05658007816937130063 0.02946813203480429938 
	-0.048000000000000001 0.05637744257236990131 0.02944949428651520013 
	-0.048000000000000001 0.05627606864901459754 0.0294448637286708996 
	-0.048000000000000001 0.05617500000000000271 0.0294448637286708996 
	0 
	null_surface 
	null_surface 
	nullbs 
	nullbs 
	I I 
	0 
	1 0.8888888888888889506 
	16 0.05555555555555560104 0.1111111111111109939 0.1666666666666669905 0.2222222222222219878 0.2777777777777780122 0.3333333333333329818 0.3888888888888890061 0.4444444444444439757 0.5 0.5555555555555560243 0.6111111111111110494 0.6666666666666669627 0.7222222222222219878 0.7777777777777780122 0.8333333333333330373 0.9444444444444439757 
	F 1 F 0 } I I #
coedge $-1 $253 $173 $255 $258 forward $219 $-1 #
loop $-1 $-1 $253 $197 #
vertex $-1 $174 $259 #
intcurve-curve $-1 forward { exactcur full nubs 3 open 19 
	0 3 0.05555555555555560104 2 0.1111111111111109939 2 0.1666666666666669905 2 0.2222222222222219878 2 
	0.2777777777777780122 2 0.3333333333333329818 2 0.3888888888888890061 2 0.4444444444444439757 2 0.5 2 
	0.5555555555555560243 2 0.6111111111111110494 2 0.6666666666666669627 2 0.7222222222222219878 2 0.7777777777777780122 2 
	0.8333333333333330373 2 0.8888888888888889506 2 0.9444444444444439757 2 1 3 
	-0.01867500000000000063 0.05999999999999999778 0.01693079664398580014 
	-0.01879575556901939837 0.05999999999999999778 0.01686107838370630094 
	-0.01891624140869940102 0.05999428955967239796 0.01679151585173349961 
	-0.01915610007437200044 0.05997153099899590195 0.01665303338653999904 
	-0.01927547290036450006 0.05995448287864699882 0.01658411345331929979 
	-0.01951161839644989862 0.05990932232275530261 0.01644777478758640069 
	-0.01962839106654280102 0.05988120988721230137 0.01638035605507430145 
	-0.01985814890382659945 0.05981438041956450152 0.01624770530587010126 
	-0.01997113407101749893 0.05977566338745959884 0.01618247328917789968 
	-0.0201921306651456009 0.05968826952790159956 0.01605488084606810154 
	-0.02030014209208269929 0.05963959270044850297 0.01599252041965040089 
	-0.02051012699021309907 0.05953309283225100002 0.01587128558218910135 
	-0.02061210046140629984 0.05947526979150669774 0.01581241117114549899 
	-0.02080901740401859892 0.05935149632483700116 0.01569872112132029984 
	-0.02090396087543760009 0.05928554589891180115 0.01564390548253869959 
	-0.02108622112505680046 0.05914649413731690175 0.01553867747835849938 
	-0.02117353790325699966 0.05907339280164720235 0.01548826511295989944 
	-0.02134014691757820173 0.05892097244796910133 0.01539207335369210082 
	-0.02141943915369929827 0.05884165342996060255 0.01534629395982290041 
	-0.02156971087359120173 0.0586777263171376004 0.01525953454189169986 
	-0.02164069035736209887 0.05859311822232309702 0.01521855451782969972 
	-0.02177416829838150006 0.05841949794093249937 0.0151414909926513002 
	-0.02183666675563000065 0.05833048575435639815 0.01510540749153490084 
	-0.02195311588194140059 0.05814888460694980082 0.01503817555711210036 
	-0.02200706655100440057 0.05805629564611920063 0.01500702712380560036 
	-0.02210647853333159996 0.05786819143486929967 0.0149496315890482994 
	-0.02215193984659579937 0.057772676184450103 0.01492338448759750018 
	-0.02223444491821439939 0.05757928807941910254 0.01487575016228910064 
	-0.02227148867656869938 0.05748141522480729876 0.01485436293843139972 
	-0.02233719797633320139 0.05728394563332189771 0.0148164256565241001 
	-0.02236586351774329934 0.05718434889644809921 0.01479987559847449965 
	-0.0224148820028568993 0.05698403527860410045 0.01477157476289889942 
	-0.02243523494656030071 0.05688331839763380304 0.01475982398537289964 
	-0.02246771847302459976 0.05668133984301740314 0.01474106961262459936 
	-0.02247984905578540027 0.05658007816937130063 0.0147340660174022 
	-0.02249598981927310171 0.05637744257236990131 0.01472474714325760006 
	-0.02249999999999999917 0.05627606864901459754 0.01472243186433539949 
	-0.02249999999999999917 0.05617500000000000271 0.01472243186433539949 
	0 
	null_surface 
	null_surface 
	nullbs 
	nullbs 
	I I 
	0 
	0 
	17 0.05555555555555560104 0.1111111111111109939 0.1666666666666669905 0.2222222222222219878 0.2777777777777780122 0.3333333333333329818 0.3888888888888890061 0.4444444444444439757 0.5 0.5555555555555560243 0.6111111111111110494 0.6666666666666669627 0.7222222222222219878 0.7777777777777780122 0.8333333333333330373 0.8888888888888889506 0.9444444444444439757 
	F 1 F 0 } I I #
pid_name-sg-attrib $-1 $-1 $-1 $175 7 rwilson 784252905 365 1 #
cone-surface $-1 -0.04608750000000000346 0.05617500000000000271 0.03275741089814639823 -0.8660254037844388186 0 0.499999999999999889 0 0.003824999999999999841 0 1 I I 0 1 0.003824999999999999841 forward I I I I #
straight-curve $-1 -0.07349999999999999589 0.02999999999999999889 0.01472243186433550011 0.8660254037844390407 0 0.5 I I #
point $-1 -0.07349999999999999589 0.02999999999999999889 0.01472243186433550011 #
straight-curve $-1 -0.07349999999999999589 0.05617500000000000271 -0.01472243186433550011 0 -1 -3.976443497941100099e-16 I I #
coedge $-1 $260 $185 $253 $231 forward $229 $-1 #
coedge $-1 $185 $260 $239 $233 forward $229 $-1 #
loop $-1 $-1 $228 $261 #
straight-curve $-1 -0.02249999999999999917 0.05617500000000000271 -0.01472243186433550011 -0.8660254037844390407 0 -0.5 I I #
edge $-1 $187 -1 $262 -0 $253 $263 reversed 7 unknown #
point $-1 -0.02249999999999999917 0.05617500000000000271 -0.01472243186433550011 #
edge $-1 $264 0 $189 1 $239 $265 forward 7 unknown #
point $-1 -0.048000000000000001 0.05617500000000000271 -0.0294448637286708996 #
coedge $-1 $255 $266 $260 $267 reversed $192 $-1 #
edge $-1 $268 -6.283185307179586232 $268 -0 $195 $269 reversed 7 unknown #
pid_name-sg-attrib $-1 $-1 $-1 $197 7 rwilson 784252905 364 1 #
cone-surface $-1 -0.01867500000000000063 0.05617500000000000271 0.01472243186433550011 0 0 1 0 0.003824999999999999841 0 1 I I 0 1 0.003824999999999999841 forward I I I I #
coedge $-1 $270 $199 $228 $233 reversed $241 $-1 #
coedge $-1 $199 $270 $201 $244 forward $241 $-1 #
loop $-1 $-1 $240 $271 #
straight-curve $-1 -0.048000000000000001 0.05617500000000000271 -0.0294448637286708996 -0.8660254037844390407 -2.356571919587700074e-16 0.5 I I #
coedge $-1 $202 $201 $272 $273 forward $203 $-1 #
edge $-1 $274 0 $204 1 $201 $275 forward 7 unknown #
face $276 $271 $203 $3 $-1 $277 forward single #
point $-1 -0.07349999999999999589 0.05617500000000000271 -0.01472243186433539949 #
coedge $-1 $272 $214 $207 $248 reversed $192 $-1 #
edge $-1 $249 0 $216 0.03386159328797151702 $247 $278 forward 7 unknown #
vertex $-1 $208 $279 #
intcurve-curve $-1 forward { exactcur full nubs 3 open 19 
	0 3 0.05555555555555560104 2 0.1111111111111109939 2 0.1666666666666669905 2 0.2222222222222219878 2 
	0.2777777777777780122 2 0.3333333333333329818 2 0.3888888888888890061 2 0.4444444444444439757 2 0.5 2 
	0.5555555555555560243 2 0.6111111111111110494 2 0.6666666666666669627 2 0.7222222222222219878 2 0.7777777777777780122 2 
	0.8333333333333330373 2 0.8888888888888889506 2 0.9444444444444439757 2 1 3 
	-0.07732500000000000484 0.05999999999999999778 0.01693079664398580014 
	-0.07720424443098070078 0.05999999999999999778 0.01686107838370630094 
	-0.07708375859130059404 0.05999428955967239796 0.01679151585173349961 
	-0.07684389992562809524 0.05997153099899590195 0.01665303338653999904 
	-0.076724527099635495 0.05995448287864699882 0.01658411345331929979 
	-0.07648838160355010685 0.05990932232275530261 0.01644777478758640069 
	-0.07637160893345719404 0.05988120988721230137 0.01638035605507430145 
	-0.07614185109617339908 0.05981438041956450152 0.01624770530587010126 
	-0.07602886592898240592 0.05977566338745959884 0.01618247328917789968 
	-0.07580786933485439416 0.05968826952790159956 0.01605488084606810154 
	-0.07569985790791730618 0.05963959270044850297 0.01599252041965040089 
	-0.0754898730097869064 0.05953309283225100002 0.01587128558218910135 
	-0.07538789953859370563 0.05947526979150669774 0.01581241117114549899 
	-0.07519098259598140654 0.05935149632483700116 0.01569872112132029984 
	-0.07509603912456240538 0.05928554589891180115 0.01564390548253869959 
	-0.07491377887494320154 0.05914649413731690175 0.01553867747835849938 
	-0.07482646209674299886 0.05907339280164720235 0.01548826511295989944 
	-0.07465985308242180374 0.05892097244796910133 0.01539207335369210082 
	-0.07458056084630070026 0.05884165342996060255 0.01534629395982290041 
	-0.0744302891264087968 0.0586777263171376004 0.01525953454189169986 
	-0.07435930964263789966 0.05859311822232309702 0.01521855451782969972 
	-0.07422583170161850541 0.05841949794093249937 0.0151414909926513002 
	-0.07416333324436999441 0.05833048575435639815 0.01510540749153490084 
	-0.07404688411805859793 0.05814888460694980082 0.01503817555711210036 
	-0.07399293344899560143 0.05805629564611920063 0.01500702712380560036 
	-0.07389352146666840204 0.05786819143486939682 0.0149496315890482994 
	-0.07384806015340419916 0.057772676184450103 0.01492338448759760079 
	-0.07376555508178560261 0.05757928807941910254 0.01487575016228910064 
	-0.07372851132343130609 0.05748141522480740284 0.01485436293843139972 
	-0.07366280202366680407 0.05728394563332189771 0.0148164256565241001 
	-0.07363413648225669572 0.05718434889644809921 0.01479987559847449965 
	-0.07358511799714320678 0.05698403527860410045 0.01477157476289889942 
	-0.07356476505343970129 0.05688331839763380304 0.01475982398537300025 
	-0.07353228152697539877 0.05668133984301740314 0.01474106961262459936 
	-0.07352015094421460173 0.05658007816937130063 0.0147340660174022 
	-0.07350401018072690029 0.05637744257236990131 0.01472474714325760006 
	-0.07349999999999999589 0.05627606864901459754 0.01472243186433550011 
	-0.07349999999999999589 0.05617500000000000271 0.01472243186433550011 
	0 
	null_surface 
	null_surface 
	nullbs 
	nullbs 
	I I 
	0 
	0 
	17 0.05555555555555560104 0.1111111111111109939 0.1666666666666669905 0.2222222222222219878 0.2777777777777780122 0.3333333333333329818 0.3888888888888890061 0.4444444444444439757 0.5 0.5555555555555560243 0.6111111111111110494 0.6666666666666669627 0.7222222222222219878 0.7777777777777780122 0.8333333333333330373 0.8888888888888889506 0.9444444444444439757 
	F 1 F 0 } I I #
pid_name-sg-attrib $-1 $-1 $-1 $209 7 rwilson 784252905 366 1 #
cone-surface $-1 -0.07541249999999999343 0.05617500000000000271 0.01803497903381090159 -0.8660254037844388186 0 -0.499999999999999889 0 0.003824999999999999841 0 1 I I 0 1 0.003824999999999999841 forward I I I I #
coedge $-1 $211 $218 $227 $231 reversed $219 $-1 #
straight-curve $-1 -0.02249999999999999917 0.05617500000000000271 0.01472243186433550011 0 0 -1 I I #
coedge $-1 $214 $235 $218 $258 reversed $192 $-1 #
straight-curve $-1 -0.048000000000000001 0.05999999999999999778 0.03386159328797150314 0.8660254037844390407 0 -0.5 I I #
point $-1 -0.048000000000000001 0.05999999999999999778 0.03386159328797150314 #
edge $-1 $220 0 $262 0.03386159328797160029 $255 $280 forward 7 unknown #
point $-1 -0.01867500000000000063 0.05999999999999999778 0.01693079664398580014 #
coedge $-1 $228 $227 $235 $267 forward $229 $-1 #
face $281 $144 $229 $3 $-1 $282 forward single #
vertex $-1 $231 $283 #
intcurve-curve $-1 forward { exactcur full nubs 3 open 19 
	0 3 0.05555555555555560104 2 0.1111111111111109939 2 0.1666666666666669905 2 0.2222222222222219878 2 
	0.2777777777777780122 2 0.3333333333333329818 2 0.3888888888888890061 2 0.4444444444444439757 2 0.5 2 
	0.5555555555555560243 2 0.6111111111111110494 2 0.6666666666666669627 2 0.7222222222222219878 2 0.7777777777777780122 2 
	0.8333333333333330373 2 0.8888888888888889506 2 0.9444444444444439757 2 1 3 
	-0.01867500000000000063 0.05999999999999999778 -0.01693079664398580014 
	-0.01879575556901939837 0.05999999999999999778 -0.01686107838370630094 
	-0.01891624140869940102 0.05999428955967239796 -0.01679151585173349961 
	-0.01915610007437200044 0.05997153099899590195 -0.01665303338653999904 
	-0.01927547290036450006 0.05995448287864699882 -0.01658411345331929979 
	-0.01951161839644989862 0.05990932232275530261 -0.01644777478758640069 
	-0.01962839106654280102 0.05988120988721230137 -0.01638035605507430145 
	-0.01985814890382659945 0.05981438041956450152 -0.01624770530587010126 
	-0.01997113407101759955 0.05977566338745959884 -0.01618247328917789968 
	-0.0201921306651456009 0.05968826952790159956 -0.01605488084606810154 
	-0.02030014209208269929 0.05963959270044850297 -0.01599252041965040089 
	-0.02051012699021309907 0.05953309283225100002 -0.01587128558218910135 
	-0.02061210046140629984 0.05947526979150669774 -0.01581241117114549899 
	-0.02080901740401859892 0.05935149632483700116 -0.01569872112132029984 
	-0.02090396087543760009 0.05928554589891180115 -0.01564390548253869959 
	-0.02108622112505680046 0.05914649413731690175 -0.01553867747835849938 
	-0.02117353790325689905 0.05907339280164720235 -0.01548826511295989944 
	-0.02134014691757820173 0.05892097244796910133 -0.01539207335369210082 
	-0.02141943915369929827 0.05884165342996060255 -0.01534629395982299929 
	-0.02156971087359120173 0.0586777263171376004 -0.01525953454189169986 
	-0.02164069035736209887 0.05859311822232309702 -0.01521855451782969972 
	-0.02177416829838139944 0.05841949794093249937 -0.0151414909926513002 
	-0.02183666675562990003 0.05833048575435639815 -0.01510540749153490084 
	-0.02195311588194140059 0.05814888460694980082 -0.01503817555711210036 
	-0.02200706655100440057 0.05805629564611920063 -0.01500702712380560036 
	-0.02210647853333159996 0.05786819143486939682 -0.0149496315890482994 
	-0.02215193984659579937 0.057772676184450103 -0.01492338448759760079 
	-0.02223444491821439939 0.05757928807941910254 -0.01487575016228910064 
	-0.02227148867656869938 0.05748141522480729876 -0.01485436293843139972 
	-0.02233719797633320139 0.05728394563332189771 -0.0148164256565241001 
	-0.02236586351774329934 0.05718434889644809921 -0.01479987559847449965 
	-0.0224148820028568993 0.05698403527860410045 -0.01477157476289889942 
	-0.02243523494656030071 0.05688331839763380304 -0.01475982398537300025 
	-0.02246771847302459976 0.05668133984301740314 -0.01474106961262459936 
	-0.02247984905578540027 0.05658007816937130063 -0.0147340660174022 
	-0.02249598981927310171 0.05637744257236990131 -0.01472474714325760006 
	-0.02249999999999999917 0.05627606864901459754 -0.01472243186433550011 
	-0.02249999999999999917 0.05617500000000000271 -0.01472243186433550011 
	0 
	null_surface 
	null_surface 
	nullbs 
	nullbs 
	I I 
	0 
	1 0.5 
	16 0.05555555555555560104 0.1111111111111109939 0.1666666666666669905 0.2222222222222219878 0.2777777777777780122 0.3333333333333329818 0.3888888888888890061 0.4444444444444439757 0.5555555555555560243 0.6111111111111110494 0.6666666666666669627 0.7222222222222219878 0.7777777777777780122 0.8333333333333330373 0.8888888888888889506 0.9444444444444439757 
	F 1 F 0 } I I #
vertex $-1 $233 $284 #
intcurve-curve $-1 forward { exactcur full nubs 3 open 19 
	0 3 0.05555555555555560104 2 0.1111111111111109939 2 0.1666666666666669905 2 0.2222222222222219878 2 
	0.2777777777777780122 2 0.3333333333333329818 2 0.3888888888888890061 2 0.4444444444444439757 2 0.5 2 
	0.5555555555555560243 2 0.6111111111111110494 2 0.6666666666666669627 2 0.7222222222222219878 2 0.7777777777777780122 2 
	0.8333333333333330373 2 0.8888888888888889506 2 0.9444444444444439757 2 1 3 
	-0.048000000000000001 0.05999999999999999778 -0.03386159328797150314 
	-0.048000000000000001 0.05999999999999999778 -0.03372215676741260187 
	-0.048000000000000001 0.05999428955967239796 -0.03358303170346699923 
	-0.048000000000000001 0.05997153099899590195 -0.03330606677307999808 
	-0.048000000000000001 0.05995448287864699882 -0.03316822690663859957 
	-0.048000000000000001 0.05990932232275530261 -0.03289554957517289852 
	-0.048000000000000001 0.05988120988721230137 -0.0327607121101486029 
	-0.048000000000000001 0.05981438041956450152 -0.03249541061174009843 
	-0.048000000000000001 0.05977566338745959884 -0.03236494657835590344 
	-0.048000000000000001 0.05968826952790159956 -0.03210976169213630022 
	-0.048000000000000001 0.05963959270044850297 -0.03198504083930089892 
	-0.048000000000000001 0.05953309283225100002 -0.0317425711643782027 
	-0.048000000000000001 0.05947526979150669774 -0.03162482234229099798 
	-0.048000000000000001 0.05935149632483700116 -0.03139744224264059969 
	-0.048000000000000001 0.05928554589891180115 -0.03128781096507750326 
	-0.048000000000000001 0.05914649413731690175 -0.03107735495671709938 
	-0.048000000000000001 0.05907339280164720235 -0.03097653022591979888 
	-0.048000000000000001 0.05892097244796910133 -0.03078414670738420164 
	-0.048000000000000001 0.05884165342996060255 -0.03069258791964590144 
	-0.048000000000000001 0.0586777263171376004 -0.03051906908378350033 
	-0.048000000000000001 0.05859311822232309702 -0.03043710903565939943 
	-0.048000000000000001 0.05841949794093249937 -0.03028298198530260041 
	-0.048000000000000001 0.05833048575435639815 -0.03021081498306989882 
	-0.048000000000000001 0.05814888460694980082 -0.03007635111422420071 
	-0.048000000000000001 0.05805629564611920063 -0.03001405424761130133 
	-0.048000000000000001 0.05786819143486939682 -0.02989926317809669942 
	-0.048000000000000001 0.057772676184450103 -0.02984676897519510097 
	-0.048000000000000001 0.05757928807941910254 -0.02975150032457810068 
	-0.048000000000000001 0.05748141522480740284 -0.02970872587686269883 
	-0.048000000000000001 0.05728394563332189771 -0.02963285131304820019 
	-0.048000000000000001 0.05718434889644809921 -0.02959975119694899931 
	-0.048000000000000001 0.05698403527860410045 -0.02954314952579789946 
	-0.048000000000000001 0.05688331839763380304 -0.02951964797074589988 
	-0.048000000000000001 0.05668133984301740314 -0.02948213922524919872 
	-0.048000000000000001 0.05658007816937130063 -0.02946813203480429938 
	-0.048000000000000001 0.05637744257236990131 -0.02944949428651520013 
	-0.048000000000000001 0.05627606864901459754 -0.0294448637286708996 
	-0.048000000000000001 0.05617500000000000271 -0.0294448637286708996 
	0 
	null_surface 
	null_surface 
	nullbs 
	nullbs 
	I I 
	0 
	1 0.8888888888888889506 
	16 0.05555555555555560104 0.1111111111111109939 0.1666666666666669905 0.2222222222222219878 0.2777777777777780122 0.3333333333333329818 0.3888888888888890061 0.4444444444444439757 0.5 0.5555555555555560243 0.6111111111111110494 0.6666666666666669627 0.7222222222222219878 0.7777777777777780122 0.8333333333333330373 0.9444444444444439757 
	F 1 F 0 } I I #
coedge $-1 $235 $272 $270 $285 reversed $192 $-1 #
edge $-1 $262 0 $264 0.03386159328797151008 $235 $286 forward 7 unknown #
vertex $-1 $236 $287 #
ellipse-curve $-1 -0.048000000000000001 -2.775557561562889872e-16 0 5.782411586589359611e-15 -1 0 0.048000000000000001 2.775557561562889872e-16 0 1 I I #
coedge $-1 $240 $239 $266 $285 forward $241 $-1 #
face $288 $261 $241 $3 $-1 $289 forward single #
coedge $-1 $266 $247 $243 $273 reversed $192 $-1 #
edge $-1 $274 0 $249 0.03386159328797160029 $272 $290 forward 7 unknown #
vertex $-1 $244 $291 #
intcurve-curve $-1 forward { exactcur full nubs 3 open 19 
	0 3 0.05555555555555560104 2 0.1111111111111109939 2 0.1666666666666669905 2 0.2222222222222219878 2 
	0.2777777777777780122 2 0.3333333333333329818 2 0.3888888888888890061 2 0.4444444444444439757 2 0.5 2 
	0.5555555555555560243 2 0.6111111111111110494 2 0.6666666666666669627 2 0.7222222222222219878 2 0.7777777777777780122 2 
	0.8333333333333330373 2 0.8888888888888889506 2 0.9444444444444439757 2 1 3 
	-0.07732500000000000484 0.05999999999999999778 -0.01693079664398580014 
	-0.07720424443098060363 0.05999999999999999778 -0.01686107838370630094 
	-0.07708375859130059404 0.05999428955967239796 -0.01679151585173349961 
	-0.07684389992562799809 0.05997153099899590195 -0.01665303338653999904 
	-0.076724527099635495 0.05995448287864710291 -0.01658411345331929979 
	-0.07648838160355010685 0.05990932232275530261 -0.01644777478758640069 
	-0.07637160893345719404 0.05988120988721230137 -0.01638035605507430145 
	-0.07614185109617339908 0.05981438041956450152 -0.01624770530587010126 
	-0.07602886592898240592 0.05977566338745970292 -0.01618247328917800029 
	-0.07580786933485439416 0.05968826952790169671 -0.01605488084606810154 
	-0.07569985790791730618 0.05963959270044850297 -0.01599252041965040089 
	-0.0754898730097869064 0.05953309283225100002 -0.01587128558218910135 
	-0.07538789953859370563 0.05947526979150669774 -0.01581241117114549899 
	-0.07519098259598140654 0.05935149632483700116 -0.01569872112132029984 
	-0.07509603912456240538 0.05928554589891180115 -0.01564390548253869959 
	-0.07491377887494320154 0.05914649413731690175 -0.01553867747835849938 
	-0.07482646209674309601 0.05907339280164720235 -0.01548826511295989944 
	-0.07465985308242180374 0.05892097244796910133 -0.01539207335369210082 
	-0.07458056084630070026 0.05884165342996060255 -0.01534629395982290041 
	-0.0744302891264087968 0.0586777263171376004 -0.01525953454189169986 
	-0.07435930964263789966 0.05859311822232309702 -0.01521855451782969972 
	-0.07422583170161850541 0.05841949794093249937 -0.0151414909926513002 
	-0.07416333324436999441 0.05833048575435639815 -0.01510540749153490084 
	-0.07404688411805859793 0.05814888460694980082 -0.01503817555711210036 
	-0.07399293344899560143 0.05805629564611920063 -0.01500702712380560036 
	-0.07389352146666840204 0.05786819143486929967 -0.0149496315890482994 
	-0.07384806015340419916 0.057772676184450103 -0.01492338448759750018 
	-0.07376555508178560261 0.05757928807941910254 -0.01487575016228910064 
	-0.07372851132343130609 0.05748141522480740284 -0.01485436293843139972 
	-0.07366280202366680407 0.05728394563332189771 -0.0148164256565241001 
	-0.07363413648225669572 0.05718434889644809921 -0.01479987559847449965 
	-0.07358511799714320678 0.05698403527860410045 -0.01477157476289889942 
	-0.07356476505343970129 0.05688331839763380304 -0.01475982398537300025 
	-0.07353228152697539877 0.05668133984301740314 -0.01474106961262459936 
	-0.07352015094421460173 0.05658007816937130063 -0.0147340660174022 
	-0.07350401018072690029 0.05637744257236990131 -0.01472474714325760006 
	-0.07349999999999999589 0.05627606864901459754 -0.01472243186433539949 
	-0.07349999999999999589 0.05617500000000000271 -0.01472243186433539949 
	0 
	null_surface 
	null_surface 
	nullbs 
	nullbs 
	I I 
	0 
	0 
	17 0.05555555555555560104 0.1111111111111109939 0.1666666666666669905 0.2222222222222219878 0.2777777777777780122 0.3333333333333329818 0.3888888888888890061 0.4444444444444439757 0.5 0.5555555555555560243 0.6111111111111110494 0.6666666666666669627 0.7222222222222219878 0.7777777777777780122 0.8333333333333330373 0.8888888888888889506 0.9444444444444439757 
	F 1 F 0 } I I #
pid_name-sg-attrib $-1 $-1 $-1 $245 7 rwilson 784252905 367 1 #
cone-surface $-1 -0.07732500000000000484 0.05617500000000000271 -0.01472243186433550011 0 0 -1 0 0.003824999999999999841 0 1 I I 0 1 0.003824999999999999841 forward I I I I #
straight-curve $-1 -0.07732500000000000484 0.05999999999999999778 0.01693079664398580014 0.8660254037844390407 0 0.5 I I #
point $-1 -0.07732500000000000484 0.05999999999999999778 0.01693079664398580014 #
straight-curve $-1 -0.01867500000000000063 0.05999999999999999778 0.01693079664398580014 0 0 -1 I I #
pid_name-sg-attrib $-1 $-1 $-1 $261 7 rwilson 784252905 369 1 #
cone-surface $-1 -0.01867500000000000063 0.05617500000000000271 -0.01693079664398580014 0.8660254037844388186 0 0.499999999999999889 0 0.003824999999999999841 0 1 I I 0 1 0.003824999999999999841 forward I I I I #
point $-1 -0.01867500000000000063 0.05999999999999999778 -0.01693079664398580014 #
point $-1 -0.048000000000000001 0.05999999999999999778 -0.03386159328797150314 #
edge $-1 $264 0 $274 0.03386159328797151702 $266 $292 forward 7 unknown #
straight-curve $-1 -0.01867500000000000063 0.05999999999999999778 -0.01693079664398580014 -0.8660254037844390407 0 -0.5 I I #
point $-1 0 0 0 #
pid_name-sg-attrib $-1 $-1 $-1 $271 7 rwilson 784252905 368 1 #
cone-surface $-1 -0.04991249999999999853 0.05617500000000000271 -0.03275741089814639823 0.8660254037844388186 0 -0.499999999999999889 0 0.003824999999999999841 0 1 I I 0 1 0.003824999999999999841 forward I I I I #
straight-curve $-1 -0.07732500000000000484 0.05999999999999999778 -0.01693079664398580014 -4.098385947109049866e-16 0 1 I I #
point $-1 -0.07732500000000000484 0.05999999999999999778 -0.01693079664398580014 #
straight-curve $-1 -0.048000000000000001 0.05999999999999999778 -0.03386159328797150314 -0.8660254037844390407 0 0.5 I I #
End-of-ACIS-data 