600 0 2 0           
24 FBMach with ACIS - 6.0.3 13 ACIS 6.0.3 NT 24 Tue May 22 12:37:10 2001 
1 9.9999999999999995e-007 1e-010 
body $2 $3 $-1 $4 #
bdycol-kcp $-1 1 2 $5 $6 #
model_id-kcp-attrib $-1 $-1 $-1 $0 1 990549430 40 807927809 1 #
lump $-1 $-1 $7 $0 #
transform $-1 1 0 0 0 1 0 0 0 1 0 0 0 1 no_rotate no_reflect no_shear #
body $8 $9 $-1 $10 #
body $11 $12 $-1 $13 #
shell $-1 $-1 $-1 $14 $-1 $3 #
model_id-kcp-attrib $-1 $-1 $-1 $5 1 990549430 40 807927810 1 #
lump $-1 $-1 $15 $5 #
transform $-1 1 0 0 0 1 0 0 0 1 0 0 0 1 no_rotate no_reflect no_shear #
rgb_color-st-attrib $-1 $16 $-1 $6 0.5 1 1 #
lump $-1 $-1 $17 $6 #
transform $-1 1 0 0 0 1 0 0 0 1 0 0 0 1 no_rotate no_reflect no_shear #
face $18 $19 $20 $7 $-1 $21 forward single #
shell $-1 $-1 $-1 $22 $-1 $9 #
model_id-kcp-attrib $-1 $-1 $11 $6 1 990549430 120 813170691 1 #
shell $-1 $-1 $-1 $23 $-1 $12 #
model_id-kcp-attrib $-1 $-1 $-1 $14 1 990549430 40 807927809 2 #
face $24 $25 $26 $7 $-1 $27 reversed single #
loop $-1 $-1 $28 $14 #
cone-surface $-1 43 0 18 0 1 0 4.94974746830583 0 4.94974746830583 1 I I 0 1 6.9999999999999964 forward I I I I #
face $29 $30 $31 $15 $-1 $32 forward single #
face $-1 $33 $34 $17 $-1 $35 reversed single #
model_id-kcp-attrib $-1 $36 $-1 $19 1 990549430 40 807927809 9 #
face $37 $38 $39 $7 $-1 $40 forward single #
loop $-1 $-1 $41 $19 #
plane-surface $-1 0 -50 0 0 1 0 0 0 1 forward_v I I I I #
coedge $-1 $42 $43 $44 $45 forward $20 $-1 #
model_id-kcp-attrib $-1 $-1 $-1 $22 1 990549430 40 807927810 3 #
face $46 $47 $48 $15 $-1 $49 reversed single #
loop $-1 $-1 $50 $22 #
plane-surface $-1 0 0 25 0 0 1 1 0 0 forward_v I I I I #
face $-1 $51 $52 $17 $-1 $53 forward single #
loop $-1 $-1 $54 $23 #
cone-surface $-1 43 -50 17.999999999999996 0 -1 0 7 0 7.1054273576010019e-015 1 I I 0 1 7 forward I I I I #
model_id-kcp-attrib $-1 $-1 $24 $19 1 990549430 40 807927809 3 #
model_id-kcp-attrib $-1 $-1 $-1 $25 1 990549430 40 807927809 4 #
face $55 $56 $57 $7 $-1 $58 reversed single #
loop $-1 $-1 $44 $25 #
plane-surface $-1 0 0 25 0 0 1 1 0 0 forward_v I I I I #
coedge $-1 $59 $60 $42 $61 reversed $26 $-1 #
coedge $-1 $62 $28 $41 $61 forward $20 $-1 #
coedge $-1 $28 $62 $63 $64 forward $20 $-1 #
coedge $-1 $65 $66 $28 $45 reversed $39 $-1 #
edge $67 $68 -50 $69 50 $44 $70 forward 7 unknown #
model_id-kcp-attrib $-1 $-1 $-1 $30 1 990549430 40 807927810 4 #
face $71 $72 $73 $15 $-1 $74 reversed single #
loop $-1 $-1 $75 $30 #
plane-surface $-1 0 0 -25 0 0 1 1 0 0 forward_v I I I I #
coedge $-1 $76 $77 $78 $79 forward $31 $-1 #
face $-1 $80 $81 $17 $-1 $82 reversed single #
loop $-1 $-1 $83 $33 #
plane-surface $-1 0 0 25 0 0 1 1 0 0 forward_v I I I I #
coedge $-1 $84 $85 $86 $87 reversed $34 $-1 #
model_id-kcp-attrib $-1 $-1 $-1 $38 1 990549430 40 807927809 5 #
face $88 $89 $90 $7 $-1 $91 reversed single #
loop $-1 $-1 $92 $38 #
plane-surface $-1 0 0 -25 0 0 1 1 0 0 forward_v I I I I #
coedge $-1 $93 $41 $66 $94 reversed $26 $-1 #
coedge $-1 $41 $95 $96 $97 reversed $26 $-1 #
edge $98 $69 -0.78539816339744828 $99 0.78539816339744828 $41 $100 forward 7 unknown #
coedge $-1 $43 $42 $101 $102 forward $20 $-1 #
coedge $-1 $103 $104 $43 $64 reversed $105 $-1 #
edge $-1 $106 -0.78539816339744828 $68 0.78539816339744828 $63 $107 forward 7 unknown #
coedge $-1 $108 $44 $104 $109 forward $39 $-1 #
coedge $-1 $44 $108 $59 $94 forward $39 $-1 #
attrib_edge_convexity-kcp-attrib $-1 $110 $-1 $45 3 #
vertex $-1 $45 $111 #
vertex $-1 $94 $112 #
straight-curve $-1 43 0 25 0 -1 0 I I #
model_id-kcp-attrib $-1 $-1 $-1 $47 1 990549430 40 807927810 2 #
face $113 $114 $115 $15 $-1 $116 reversed single #
loop $-1 $-1 $117 $47 #
plane-surface $-1 0 -50 0 0 1 0 0 0 1 forward_v I I I I #
coedge $-1 $118 $119 $120 $121 forward $48 $-1 #
coedge $-1 $122 $50 $123 $124 forward $31 $-1 #
coedge $-1 $50 $122 $125 $126 forward $31 $-1 #
coedge $-1 $127 $128 $50 $79 reversed $129 $-1 #
edge $-1 $130 -50 $131 50 $78 $132 forward 7 unknown #
face $-1 $133 $134 $17 $-1 $135 reversed single #
loop $-1 $-1 $136 $51 #
plane-surface $-1 0 -50 0 0 1 0 0 0 1 forward_v I I I I #
coedge $-1 $137 $138 $85 $139 forward $52 $-1 #
coedge $-1 $140 $54 $141 $142 forward $34 $-1 #
coedge $-1 $54 $140 $83 $139 reversed $34 $-1 #
coedge $-1 $143 $144 $54 $87 forward $134 $-1 #
edge $-1 $145 -5.0753052554292868e-016 $146 1.5707963267948957 $86 $147 forward 7 unknown #
model_id-kcp-attrib $-1 $-1 $-1 $56 1 990549430 40 807927809 6 #
face $148 $149 $105 $7 $-1 $150 reversed single #
loop $-1 $-1 $151 $56 #
plane-surface $-1 -50 0 0 1 0 0 0 0 -1 forward_v I I I I #
coedge $-1 $152 $153 $154 $155 forward $57 $-1 #
coedge $-1 $95 $59 $156 $157 forward $26 $-1 #
edge $158 $159 -50 $69 43 $59 $160 forward 7 unknown #
coedge $-1 $60 $93 $152 $161 reversed $26 $-1 #
coedge $-1 $154 $101 $60 $97 forward $162 $-1 #
edge $163 $99 -18 $164 25 $96 $165 forward 7 unknown #
attrib_edge_convexity-kcp-attrib $-1 $166 $-1 $61 1 #
vertex $-1 $61 $167 #
ellipse-curve $-1 43 -50 18 0 1 0 4.94974746830583 0 4.94974746830583 1 I I #
coedge $-1 $96 $168 $62 $102 reversed $162 $-1 #
edge $-1 $99 -50 $106 50 $101 $169 forward 7 unknown #
coedge $-1 $170 $63 $168 $171 forward $105 $-1 #
coedge $-1 $63 $172 $65 $109 reversed $105 $-1 #
loop $-1 $-1 $63 $89 #
vertex $-1 $64 $173 #
ellipse-curve $-1 43 50 18 0 -1 0 4.94974746830583 0 4.94974746830583 1 I I #
coedge $-1 $66 $65 $174 $175 forward $39 $-1 #
edge $176 $68 -43 $177 50 $104 $178 forward 7 unknown #
convexity-sys-attrib $-1 $-1 $67 $45 #
point $-1 43 50 25 #
point $-1 43 -50 25 #
model_id-kcp-attrib $-1 $-1 $-1 $72 1 990549430 40 807927810 5 #
face $179 $180 $181 $15 $-1 $182 reversed single #
loop $-1 $-1 $183 $72 #
plane-surface $-1 -50 0 0 1 0 0 0 0 -1 forward_v I I I I #
coedge $-1 $184 $125 $185 $186 forward $73 $-1 #
coedge $-1 $187 $75 $184 $188 forward $48 $-1 #
coedge $-1 $75 $187 $189 $190 forward $48 $-1 #
coedge $-1 $128 $127 $75 $121 reversed $129 $-1 #
edge $-1 $191 -50 $192 50 $120 $193 forward 7 unknown #
coedge $-1 $77 $76 $194 $195 forward $31 $-1 #
coedge $-1 $196 $197 $76 $124 reversed $181 $-1 #
edge $-1 $131 -50 $198 50 $123 $199 forward 7 unknown #
coedge $-1 $117 $200 $77 $126 reversed $73 $-1 #
edge $-1 $201 -50 $130 50 $125 $202 forward 7 unknown #
coedge $-1 $120 $78 $200 $203 forward $129 $-1 #
coedge $-1 $78 $120 $196 $204 reversed $129 $-1 #
loop $-1 $-1 $127 $180 #
vertex $-1 $79 $205 #
vertex $-1 $79 $206 #
straight-curve $-1 50 0 25 0 1 0 I I #
face $-1 $-1 $207 $17 $-1 $208 reversed single #
loop $-1 $-1 $86 $80 #
plane-surface $-1 0 50 0 0 -1 0 0 0 -1 forward_v I I I I #
coedge $-1 $209 $210 $140 $211 forward $81 $-1 #
coedge $-1 $212 $83 $210 $213 forward $52 $-1 #
coedge $-1 $83 $212 $143 $214 forward $52 $-1 #
edge $-1 $146 -100 $215 0 $83 $216 forward 7 unknown #
coedge $-1 $85 $84 $136 $211 reversed $34 $-1 #
coedge $-1 $217 $218 $84 $142 reversed $207 $-1 #
edge $-1 $145 -100 $219 0 $141 $220 forward 7 unknown #
coedge $-1 $144 $86 $138 $214 reversed $134 $-1 #
coedge $-1 $86 $143 $217 $221 forward $134 $-1 #
vertex $-1 $142 $222 #
vertex $-1 $87 $223 #
ellipse-curve $-1 43 50 17.999999999999996 0 -1 0 7 0 7.1054273576010019e-015 1 I I #
model_id-kcp-attrib $-1 $-1 $-1 $89 1 990549430 40 807927809 7 #
face $224 $-1 $162 $7 $-1 $225 reversed single #
plane-surface $-1 0 50 0 0 -1 0 0 0 -1 forward_v I I I I #
coedge $-1 $226 $174 $172 $227 forward $90 $-1 #
coedge $-1 $228 $92 $95 $161 forward $57 $-1 #
coedge $-1 $92 $228 $170 $229 forward $57 $-1 #
coedge $-1 $168 $96 $92 $155 reversed $162 $-1 #
edge $-1 $230 -50 $164 50 $154 $231 forward 7 unknown #
coedge $-1 $174 $226 $93 $157 reversed $90 $-1 #
edge $232 $159 -25 $233 25 $156 $234 forward 7 unknown #
attrib_edge_convexity-kcp-attrib $-1 $235 $-1 $94 1 #
vertex $-1 $175 $236 #
straight-curve $-1 0 -50 25 1 0 0 I I #
edge $237 $164 -50 $233 50 $95 $238 forward 7 unknown #
loop $-1 $-1 $101 $149 #
attrib_edge_convexity-kcp-attrib $-1 $239 $-1 $97 1 #
vertex $-1 $97 $240 #
straight-curve $-1 50 -50 0 0 0 -1 I I #
convexity-sys-attrib $-1 $-1 $98 $61 #
point $-1 50 -50 18 #
coedge $-1 $101 $154 $103 $171 reversed $162 $-1 #
straight-curve $-1 50 0 18 0 1 0 I I #
coedge $-1 $172 $103 $153 $229 reversed $105 $-1 #
edge $241 $106 -18 $230 25 $168 $242 forward 7 unknown #
coedge $-1 $104 $170 $151 $227 reversed $105 $-1 #
point $-1 50 50 18 #
coedge $-1 $151 $156 $108 $175 reversed $90 $-1 #
edge $243 $177 -50 $159 50 $174 $244 forward 7 unknown #
model_id-kcp-attrib $-1 $245 $-1 $109 1 990549430 40 807927809 11 #
vertex $-1 $109 $246 #
straight-curve $-1 0 50 25 -1 0 0 I I #
model_id-kcp-attrib $-1 $-1 $-1 $114 1 990549430 40 807927810 6 #
face $247 $-1 $129 $15 $-1 $248 reversed single #
loop $-1 $-1 $196 $114 #
plane-surface $-1 0 50 0 0 -1 0 0 0 -1 forward_v I I I I #
coedge $-1 $249 $194 $197 $250 forward $115 $-1 #
coedge $-1 $200 $117 $118 $188 reversed $73 $-1 #
coedge $-1 $194 $249 $117 $186 reversed $115 $-1 #
edge $-1 $201 -25 $251 25 $185 $252 forward 7 unknown #
coedge $-1 $119 $118 $249 $253 forward $48 $-1 #
edge $-1 $192 -50 $251 50 $184 $254 forward 7 unknown #
coedge $-1 $197 $196 $119 $190 reversed $181 $-1 #
edge $-1 $255 -50 $191 50 $189 $256 forward 7 unknown #
vertex $-1 $121 $257 #
vertex $-1 $203 $258 #
straight-curve $-1 50 0 -25 0 -1 0 I I #
coedge $-1 $183 $185 $122 $195 reversed $115 $-1 #
edge $-1 $198 -50 $201 50 $194 $259 forward 7 unknown #
coedge $-1 $189 $123 $128 $204 forward $181 $-1 #
coedge $-1 $123 $189 $183 $250 reversed $181 $-1 #
vertex $-1 $124 $260 #
straight-curve $-1 0 50 25 -1 0 0 I I #
coedge $-1 $125 $184 $127 $203 reversed $73 $-1 #
vertex $-1 $195 $261 #
straight-curve $-1 0 -50 25 1 0 0 I I #
edge $-1 $130 -25 $192 25 $127 $262 forward 7 unknown #
edge $-1 $131 -25 $191 25 $128 $263 forward 7 unknown #
point $-1 50 -50 25 #
point $-1 50 50 25 #
loop $-1 $-1 $141 $133 #
plane-surface $-1 50 0 0 -1 0 0 0 0 1 forward_v I I I I #
coedge $-1 $210 $136 $218 $264 reversed $81 $-1 #
coedge $-1 $136 $209 $137 $213 reversed $81 $-1 #
edge $-1 $215 -1.5707963267948957 $219 5.0753052554292868e-016 $136 $265 forward 7 unknown #
coedge $-1 $138 $137 $266 $267 forward $52 $-1 #
edge $-1 $215 43 $268 50 $210 $269 forward 7 unknown #
edge $-1 $270 -50 $146 -43 $143 $271 forward 7 unknown #
vertex $-1 $213 $272 #
straight-curve $-1 43 -50 25 0 -1 0 I I #
coedge $-1 $266 $141 $144 $221 reversed $207 $-1 #
coedge $-1 $141 $266 $209 $264 forward $207 $-1 #
vertex $-1 $211 $273 #
straight-curve $-1 50 -50 17.999999999999996 0 -1 0 I I #
edge $-1 $270 -25 $145 -18 $217 $274 forward 7 unknown #
point $-1 50 50 18 #
point $-1 43 50 25 #
model_id-kcp-attrib $-1 $-1 $-1 $149 1 990549430 40 807927809 8 #
plane-surface $-1 50 0 0 -1 0 0 0 0 1 forward_v I I I I #
coedge $-1 $156 $151 $228 $275 reversed $90 $-1 #
edge $276 $177 -25 $277 25 $172 $278 forward 7 unknown #
coedge $-1 $153 $152 $226 $275 forward $57 $-1 #
edge $279 $277 -50 $230 50 $170 $280 forward 7 unknown #
vertex $-1 $155 $281 #
straight-curve $-1 50 0 -25 0 -1 0 I I #
attrib_edge_convexity-kcp-attrib $-1 $282 $-1 $157 1 #
vertex $-1 $275 $283 #
straight-curve $-1 -50 -50 0 0 0 -1 I I #
convexity-sys-attrib $-1 $-1 $158 $94 #
point $-1 -50 -50 25 #
attrib_edge_convexity-kcp-attrib $-1 $284 $-1 $161 1 #
straight-curve $-1 0 -50 -25 -1 0 0 I I #
convexity-sys-attrib $-1 $-1 $163 $97 #
point $-1 50 -50 -25 #
model_id-kcp-attrib $-1 $-1 $-1 $171 1 990549430 40 807927809 10 #
straight-curve $-1 50 50 0 0 0 -1 I I #
attrib_edge_convexity-kcp-attrib $-1 $285 $-1 $175 1 #
straight-curve $-1 -50 0 25 0 -1 0 I I #
attrib_edge_convexity-kcp-attrib $-1 $286 $176 $109 1 #
point $-1 -50 50 25 #
model_id-kcp-attrib $-1 $-1 $-1 $180 1 990549430 40 807927810 7 #
plane-surface $-1 50 0 0 -1 0 0 0 0 1 forward_v I I I I #
coedge $-1 $185 $183 $187 $253 reversed $115 $-1 #
edge $-1 $198 -25 $255 25 $197 $287 forward 7 unknown #
vertex $-1 $253 $288 #
straight-curve $-1 -50 -50 0 0 0 -1 I I #
edge $-1 $251 -50 $255 50 $249 $289 forward 7 unknown #
straight-curve $-1 0 -50 -25 -1 0 0 I I #
vertex $-1 $190 $290 #
straight-curve $-1 0 50 -25 1 0 0 I I #
point $-1 50 50 -25 #
point $-1 50 -50 -25 #
straight-curve $-1 -50 0 25 0 -1 0 I I #
point $-1 -50 50 25 #
point $-1 -50 -50 25 #
straight-curve $-1 50 -50 0 0 0 -1 I I #
straight-curve $-1 50 50 0 0 0 -1 I I #
edge $-1 $268 -25 $219 -18 $218 $291 forward 7 unknown #
ellipse-curve $-1 43 -50 17.999999999999996 0 1 0 7 0 7.1054273576010019e-015 1 I I #
coedge $-1 $218 $217 $212 $267 reversed $207 $-1 #
edge $-1 $268 -50 $270 50 $266 $292 forward 7 unknown #
vertex $-1 $267 $293 #
straight-curve $-1 0 -50 25 1 0 0 I I #
vertex $-1 $267 $294 #
straight-curve $-1 0 50 25 -1 0 0 I I #
point $-1 43 -50 25 #
point $-1 50 -50 18 #
straight-curve $-1 50 50 0 0 0 -1 I I #
edge $295 $233 -50 $277 50 $226 $296 forward 7 unknown #
model_id-kcp-attrib $-1 $297 $-1 $227 1 990549430 40 807927809 12 #
vertex $-1 $229 $298 #
straight-curve $-1 -50 50 0 0 0 -1 I I #
model_id-kcp-attrib $-1 $-1 $-1 $229 1 990549430 40 807927809 13 #
straight-curve $-1 0 50 -25 1 0 0 I I #
point $-1 50 50 -25 #
convexity-sys-attrib $-1 $-1 $232 $157 #
point $-1 -50 -50 -25 #
convexity-sys-attrib $-1 $-1 $237 $161 #
convexity-sys-attrib $-1 $-1 $243 $175 #
convexity-sys-attrib $-1 $-1 $245 $109 #
straight-curve $-1 -50 50 0 0 0 -1 I I #
point $-1 -50 -50 -25 #
straight-curve $-1 -50 0 -25 0 1 0 I I #
point $-1 -50 50 -25 #
straight-curve $-1 50 -50 0 0 0 -1 I I #
straight-curve $-1 50 0 25 0 1 0 I I #
point $-1 50 -50 25 #
point $-1 50 50 25 #
attrib_edge_convexity-kcp-attrib $-1 $299 $-1 $275 1 #
straight-curve $-1 -50 0 -25 0 1 0 I I #
attrib_edge_convexity-kcp-attrib $-1 $300 $276 $227 1 #
point $-1 -50 50 -25 #
convexity-sys-attrib $-1 $-1 $295 $275 #
convexity-sys-attrib $-1 $-1 $297 $227 #
End-of-ACIS-data 