600 0 1 0           
79 GICL ACIS Healer - Source: /gicl/data5/repository/UMD/fillet1/fillet1.sat - 6 0 18 ACIS 6.0.3 Solaris 24 Sun Apr 14 00:35:33 2002 
1 9.999999999999999547e-07 1.000000000000000036e-10 
body $-1 $1 $-1 $-1 #
lump $-1 $-1 $2 $0 #
shell $-1 $-1 $-1 $3 $-1 $1 #
face $-1 $4 $5 $2 $-1 $6 forward single #
face $-1 $7 $8 $2 $-1 $9 reversed single #
loop $-1 $-1 $10 $3 #
cone-surface $-1 43 0 18 0 1 0 4.949747468305830012 0 4.949747468305830012 1 I I 0 1 6.999999999999996447 forward I I I I #
face $-1 $11 $12 $2 $-1 $13 forward single #
loop $-1 $-1 $14 $4 #
plane-surface $-1 0 -50 0 0 1 -0 -0 0 1 forward_v I I I I #
coedge $-1 $15 $16 $17 $18 forward $5 $-1 #
face $-1 $19 $20 $2 $-1 $21 reversed single #
loop $-1 $-1 $17 $7 #
plane-surface $-1 0 0 25 0 0 1 1 0 0 forward_v I I I I #
coedge $-1 $22 $23 $15 $24 reversed $8 $-1 #
coedge $-1 $25 $10 $14 $24 forward $5 $-1 #
coedge $-1 $10 $25 $26 $27 forward $5 $-1 #
coedge $-1 $28 $29 $10 $18 reversed $12 $-1 #
edge $-1 $30 -50 $31 50 $17 $32 forward 7 unknown #
face $-1 $33 $34 $2 $-1 $35 reversed single #
loop $-1 $-1 $36 $11 #
plane-surface $-1 0 0 -25 0 0 1 1 0 0 forward_v I I I I #
coedge $-1 $37 $14 $29 $38 reversed $8 $-1 #
coedge $-1 $14 $39 $40 $41 reversed $8 $-1 #
edge $-1 $31 -0.785398163397448279 $42 0.785398163397448279 $14 $43 forward 7 unknown #
coedge $-1 $16 $15 $44 $45 forward $5 $-1 #
coedge $-1 $46 $47 $16 $27 reversed $48 $-1 #
edge $-1 $49 -0.785398163397448279 $30 0.785398163397448279 $26 $50 forward 7 unknown #
coedge $-1 $51 $17 $47 $52 forward $12 $-1 #
coedge $-1 $17 $51 $22 $38 forward $12 $-1 #
vertex $-1 $18 $53 #
vertex $-1 $38 $54 #
straight-curve $-1 43 0 25 -0 -1 -0 I I #
face $-1 $55 $48 $2 $-1 $56 reversed single #
loop $-1 $-1 $57 $19 #
plane-surface $-1 -50 0 0 1 0 0 0 0 -1 forward_v I I I I #
coedge $-1 $58 $59 $60 $61 forward $20 $-1 #
coedge $-1 $39 $22 $62 $63 forward $8 $-1 #
edge $-1 $64 -50 $31 43 $22 $65 forward 7 unknown #
coedge $-1 $23 $37 $58 $66 reversed $8 $-1 #
coedge $-1 $60 $44 $23 $41 forward $67 $-1 #
edge $-1 $42 -18 $68 25 $40 $69 forward 7 unknown #
vertex $-1 $24 $70 #
ellipse-curve $-1 43 -50 18 0 1 -0 4.949747468305830012 0 4.949747468305830012 1 I I #
coedge $-1 $40 $71 $25 $45 reversed $67 $-1 #
edge $-1 $42 -50 $49 50 $44 $72 forward 7 unknown #
coedge $-1 $73 $26 $71 $74 forward $48 $-1 #
coedge $-1 $26 $75 $28 $52 reversed $48 $-1 #
loop $-1 $-1 $26 $33 #
vertex $-1 $27 $76 #
ellipse-curve $-1 43 50 18 0 -1 0 4.949747468305830012 0 4.949747468305830012 1 I I #
coedge $-1 $29 $28 $77 $78 forward $12 $-1 #
edge $-1 $30 -43 $79 50 $47 $80 forward 7 unknown #
point $-1 43 50 25 #
point $-1 43 -50 25 #
face $-1 $-1 $67 $2 $-1 $81 reversed single #
plane-surface $-1 0 50 0 0 -1 0 0 0 -1 forward_v I I I I #
coedge $-1 $82 $77 $75 $83 forward $34 $-1 #
coedge $-1 $84 $36 $39 $66 forward $20 $-1 #
coedge $-1 $36 $84 $73 $85 forward $20 $-1 #
coedge $-1 $71 $40 $36 $61 reversed $67 $-1 #
edge $-1 $86 -50 $68 50 $60 $87 forward 7 unknown #
coedge $-1 $77 $82 $37 $63 reversed $34 $-1 #
edge $-1 $64 -25 $88 25 $62 $89 forward 7 unknown #
vertex $-1 $78 $90 #
straight-curve $-1 0 -50 25 1 0 0 I I #
edge $-1 $68 -50 $88 50 $39 $91 forward 7 unknown #
loop $-1 $-1 $44 $55 #
vertex $-1 $41 $92 #
straight-curve $-1 50 -50 0 0 0 -1 I I #
point $-1 50 -50 18 #
coedge $-1 $44 $60 $46 $74 reversed $67 $-1 #
straight-curve $-1 50 0 18 0 1 0 I I #
coedge $-1 $75 $46 $59 $85 reversed $48 $-1 #
edge $-1 $49 -18 $86 25 $71 $93 forward 7 unknown #
coedge $-1 $47 $73 $57 $83 reversed $48 $-1 #
point $-1 50 50 18 #
coedge $-1 $57 $62 $51 $78 reversed $34 $-1 #
edge $-1 $79 -50 $64 50 $77 $94 forward 7 unknown #
vertex $-1 $52 $95 #
straight-curve $-1 0 50 25 -1 0 0 I I #
plane-surface $-1 50 0 0 -1 0 0 0 -0 1 forward_v I I I I #
coedge $-1 $62 $57 $84 $96 reversed $34 $-1 #
edge $-1 $79 -25 $97 25 $75 $98 forward 7 unknown #
coedge $-1 $59 $58 $82 $96 forward $20 $-1 #
edge $-1 $97 -50 $86 50 $73 $99 forward 7 unknown #
vertex $-1 $61 $100 #
straight-curve $-1 50 0 -25 0 -1 0 I I #
vertex $-1 $96 $101 #
straight-curve $-1 -50 -50 0 0 0 -1 I I #
point $-1 -50 -50 25 #
straight-curve $-1 0 -50 -25 -1 0 0 I I #
point $-1 50 -50 -25 #
straight-curve $-1 50 50 0 0 0 -1 I I #
straight-curve $-1 -50 0 25 0 -1 0 I I #
point $-1 -50 50 25 #
edge $-1 $88 -50 $97 50 $82 $102 forward 7 unknown #
vertex $-1 $85 $103 #
straight-curve $-1 -50 50 0 0 0 -1 I I #
straight-curve $-1 0 50 -25 1 0 0 I I #
point $-1 50 50 -25 #
point $-1 -50 -50 -25 #
straight-curve $-1 -50 0 -25 0 1 0 I I #
point $-1 -50 50 -25 #
End-of-ACIS-data 