105 104 1 0                             
body $-1 $1 $-1 $-1 #
lump $-1 $-1 $2 $0 #
shell $-1 $-1 $-1 $3 $1 #
face $-1 $4 $5 $2 $-1 $6 forward single #
face $-1 $7 $8 $2 $-1 $9 reversed single #
loop $-1 $-1 $10 $3 #
cone-surface $-1 43 0 18 0 1 0 4.94974746830583 0 4.94974746830583 1 0 1 0 #
face $-1 $11 $12 $2 $-1 $13 forward single #
loop $-1 $-1 $14 $4 #
plane-surface $-1 0 -50 0 0 1 -0 -0 0 1 0 #
coedge $-1 $15 $16 $17 $18 0 $5 $-1 #
face $-1 $19 $20 $2 $-1 $21 reversed single #
loop $-1 $-1 $17 $7 #
plane-surface $-1 0 0 25 0 0 1 1 0 0 0 #
coedge $-1 $22 $23 $15 $24 1 $8 $-1 #
coedge $-1 $25 $10 $14 $24 0 $5 $-1 #
coedge $-1 $10 $25 $26 $27 0 $5 $-1 #
coedge $-1 $28 $29 $10 $18 1 $12 $-1 #
edge $-1 $30 $31 $17 $32 0 #
face $-1 $33 $34 $2 $-1 $35 reversed single #
loop $-1 $-1 $36 $11 #
plane-surface $-1 0 0 -25 0 0 1 1 0 0 0 #
coedge $-1 $37 $14 $29 $38 1 $8 $-1 #
coedge $-1 $14 $39 $40 $41 1 $8 $-1 #
edge $-1 $31 $42 $14 $43 0 #
coedge $-1 $16 $15 $44 $45 0 $5 $-1 #
coedge $-1 $46 $47 $16 $27 1 $48 $-1 #
edge $-1 $49 $30 $26 $50 0 #
coedge $-1 $51 $17 $47 $52 0 $12 $-1 #
coedge $-1 $17 $51 $22 $38 0 $12 $-1 #
vertex $-1 $18 $53 #
vertex $-1 $38 $54 #
straight-curve $-1 43 0 25 -0 -1 -0 #
face $-1 $55 $48 $2 $-1 $56 reversed single #
loop $-1 $-1 $57 $19 #
plane-surface $-1 -50 0 0 1 0 0 0 0 -1 0 #
coedge $-1 $58 $59 $60 $61 0 $20 $-1 #
coedge $-1 $39 $22 $62 $63 0 $8 $-1 #
edge $-1 $64 $31 $22 $65 0 #
coedge $-1 $23 $37 $58 $66 1 $8 $-1 #
coedge $-1 $60 $44 $23 $41 0 $67 $-1 #
edge $-1 $42 $68 $40 $69 0 #
vertex $-1 $24 $70 #
ellipse-curve $-1 43 -50 18 0 1 -0 4.94974746830583 0 4.94974746830583 1 #
coedge $-1 $40 $71 $25 $45 1 $67 $-1 #
edge $-1 $42 $49 $44 $72 0 #
coedge $-1 $73 $26 $71 $74 0 $48 $-1 #
coedge $-1 $26 $75 $28 $52 1 $48 $-1 #
loop $-1 $-1 $26 $33 #
vertex $-1 $27 $76 #
ellipse-curve $-1 43 50 18 0 -1 0 4.94974746830583 0 4.94974746830583 1 #
coedge $-1 $29 $28 $77 $78 0 $12 $-1 #
edge $-1 $30 $79 $47 $80 0 #
point $-1 43 50 25 #
point $-1 43 -50 25 #
face $-1 $-1 $67 $2 $-1 $81 reversed single #
plane-surface $-1 0 50 0 0 -1 0 0 0 -1 0 #
coedge $-1 $82 $77 $75 $83 0 $34 $-1 #
coedge $-1 $84 $36 $39 $66 0 $20 $-1 #
coedge $-1 $36 $84 $73 $85 0 $20 $-1 #
coedge $-1 $71 $40 $36 $61 1 $67 $-1 #
edge $-1 $86 $68 $60 $87 0 #
coedge $-1 $77 $82 $37 $63 1 $34 $-1 #
edge $-1 $64 $88 $62 $89 0 #
vertex $-1 $78 $90 #
straight-curve $-1 0 -50 25 1 0 0 #
edge $-1 $68 $88 $39 $91 0 #
loop $-1 $-1 $44 $55 #
vertex $-1 $41 $92 #
straight-curve $-1 50 -50 0 0 0 -1 #
point $-1 50 -50 18 #
coedge $-1 $44 $60 $46 $74 1 $67 $-1 #
straight-curve $-1 50 0 18 0 1 0 #
coedge $-1 $75 $46 $59 $85 1 $48 $-1 #
edge $-1 $49 $86 $71 $93 0 #
coedge $-1 $47 $73 $57 $83 1 $48 $-1 #
point $-1 50 50 18 #
coedge $-1 $57 $62 $51 $78 1 $34 $-1 #
edge $-1 $79 $64 $77 $94 0 #
vertex $-1 $52 $95 #
straight-curve $-1 0 50 25 -1 0 0 #
plane-surface $-1 50 0 0 -1 0 0 0 -0 1 0 #
coedge $-1 $62 $57 $84 $96 1 $34 $-1 #
edge $-1 $79 $97 $75 $98 0 #
coedge $-1 $59 $58 $82 $96 0 $20 $-1 #
edge $-1 $97 $86 $73 $99 0 #
vertex $-1 $61 $100 #
straight-curve $-1 50 0 -25 0 -1 0 #
vertex $-1 $96 $101 #
straight-curve $-1 -50 -50 0 0 0 -1 #
point $-1 -50 -50 25 #
straight-curve $-1 0 -50 -25 -1 0 0 #
point $-1 50 -50 -25 #
straight-curve $-1 50 50 0 0 0 -1 #
straight-curve $-1 -50 0 25 0 -1 0 #
point $-1 -50 50 25 #
edge $-1 $88 $97 $82 $102 0 #
vertex $-1 $85 $103 #
straight-curve $-1 -50 50 0 0 0 -1 #
straight-curve $-1 0 50 -25 1 0 0 #
point $-1 50 50 -25 #
point $-1 -50 -50 -25 #
straight-curve $-1 -50 0 -25 0 1 0 #
point $-1 -50 50 -25 #
