700 0 2 0           
24 FBMach with ACIS - 7.0.3 13 ACIS 7.0.3 NT 24 Tue May 14 14:31:32 2002 
1 9.9999999999999995e-007 1e-010 
body $2 -1 $-1 $3 $-1 $4 #
bdycol-kcp $-1 -1 1 4 $5 $6 $7 $8 #
model_id-kcp-attrib $-1 -1 $-1 $-1 $0 1 1021401091 1021401091 -163184639 1 #
lump $-1 -1 $-1 $-1 $9 $0 #
transform $-1 -1 1 0 0 0 1 0 0 0 1 0 0 0 1 rotate no_reflect no_shear #
body $10 -1 $-1 $11 $-1 $12 #
body $13 -1 $-1 $14 $-1 $15 #
body $16 -1 $-1 $17 $-1 $18 #
body $19 -1 $-1 $20 $-1 $21 #
shell $-1 -1 $-1 $-1 $-1 $22 $-1 $3 #
model_id-kcp-attrib $-1 -1 $-1 $-1 $5 1 1021401091 1021401091 -163184638 1 #
lump $-1 -1 $-1 $-1 $23 $5 #
transform $-1 -1 1 0 0 0 1 0 0 0 1 0 0 1.4223999999999997 1 no_rotate no_reflect no_shear #
rgb_color-st-attrib $-1 -1 $24 $-1 $6 1 0.5 1 #
lump $-1 -1 $-1 $-1 $25 $6 #
transform $-1 -1 1 0 0 0 1 0 0 0 1 0 0 1.4223999999999997 1 no_rotate no_reflect no_shear #
rgb_color-st-attrib $-1 -1 $26 $-1 $7 0.5 1 1 #
lump $-1 -1 $-1 $-1 $27 $7 #
transform $-1 -1 1 0 0 0 1 0 0 0 1 0 0 1.4223999999999997 1 no_rotate no_reflect no_shear #
rgb_color-st-attrib $-1 -1 $28 $-1 $8 0.5 1 1 #
lump $-1 -1 $-1 $-1 $29 $8 #
transform $-1 -1 1 0 0 0 1 0 0 0 1 0 0 0 1 no_rotate no_reflect no_shear #
face $30 -1 $-1 $31 $32 $9 $-1 $33 forward single #
shell $-1 -1 $-1 $-1 $-1 $34 $-1 $11 #
model_id-kcp-attrib $-1 -1 $-1 $13 $6 1 1021401091 1021401091 -159580155 1 #
shell $-1 -1 $-1 $-1 $-1 $35 $-1 $14 #
model_id-kcp-attrib $-1 -1 $-1 $16 $7 1 1021401091 1021401091 -155910141 1 #
shell $-1 -1 $-1 $-1 $-1 $36 $-1 $17 #
model_id-kcp-attrib $-1 -1 $-1 $19 $8 1 1021401091 1021401091 -151322620 1 #
shell $-1 -1 $-1 $-1 $-1 $37 $-1 $20 #
model_id-kcp-attrib $-1 -1 $-1 $-1 $22 1 1021401091 1021401091 -163184639 2 #
face $38 -1 $-1 $39 $40 $9 $-1 $41 forward single #
loop $-1 -1 $-1 $42 $43 $22 #
plane-surface $-1 -1 $-1 0 0 3.9115999999999995 0 0 1 25.399999999999999 0 0 forward_v I I I I #
face $44 -1 $-1 $45 $46 $23 $-1 $47 forward single #
face $-1 -1 $-1 $48 $49 $25 $-1 $50 forward single #
face $-1 -1 $-1 $51 $52 $27 $-1 $53 reversed single #
face $-1 -1 $-1 $54 $55 $29 $-1 $56 forward single #
model_id-kcp-attrib $-1 -1 $-1 $-1 $31 1 1021401091 1021401091 -163184639 3 #
face $57 -1 $-1 $58 $59 $9 $-1 $60 forward single #
loop $-1 -1 $-1 $-1 $61 $31 #
cone-surface $-1 -1 $-1 0 0 0 0 0 1 7.9375 0 0 1 I I 0 1 7.9375 forward I I I I #
loop $-1 -1 $-1 $-1 $62 $22 #
coedge $-1 -1 $-1 $63 $63 $64 $65 forward $32 $-1 #
model_id-kcp-attrib $-1 -1 $-1 $-1 $34 1 1021401091 1021401091 -163184638 2 #
face $66 -1 $-1 $67 $68 $23 $-1 $69 reversed single #
loop $-1 -1 $-1 $-1 $70 $34 #
plane-surface $-1 -1 $-1 0 0 2.4891999999999999 0 0 1 1 0 0 forward_v I I I I #
face $-1 -1 $-1 $71 $72 $25 $-1 $73 forward single #
loop $-1 -1 $-1 $74 $75 $35 #
cone-surface $-1 -1 $-1 0 0 -1.4223999999999997 0 0 1 7.9375 0 0 1 I I 0 -1 7.9375 forward I I I I #
face $-1 -1 $-1 $76 $77 $27 $-1 $53 reversed single #
loop $-1 -1 $-1 $-1 $78 $36 #
cone-surface $-1 -1 $-1 -7.6020678164497142e-032 -7.0499162063697427e-016 2.4891999999999999 0 0 1 8.7629999999999981 7.0499162063697427e-016 0 1 I I 0 1 8.7629999999999981 forward I I I I #
face $-1 -1 $-1 $79 $80 $29 $-1 $81 reversed single #
loop $-1 -1 $-1 $82 $83 $37 #
cone-surface $-1 -1 $-1 0 0 3.9115999999999995 0 0 -1 3.1749999999999998 0 0 1 I I 0 1 3.1749999999999998 forward I I I I #
model_id-kcp-attrib $-1 -1 $-1 $-1 $39 1 1021401091 1021401091 -163184639 4 #
face $84 -1 $-1 $85 $86 $9 $-1 $87 reversed single #
loop $-1 -1 $-1 $-1 $88 $39 #
cone-surface $-1 -1 $-1 0 0 0 0 0 1 7.9375 0 0 1 I I 0 1 7.9375 forward I I I I #
coedge $-1 -1 $-1 $64 $89 $90 $91 forward $40 $-1 #
coedge $-1 -1 $-1 $92 $92 $93 $94 forward $42 $-1 #
coedge $-1 -1 $-1 $43 $43 $95 $96 forward $32 $-1 #
coedge $-1 -1 $-1 $97 $61 $43 $65 reversed $40 $-1 #
edge $98 -1 $-1 $99 0 $100 3.1415926535897931 $43 $101 forward @7 unknown #
model_id-kcp-attrib $-1 -1 $-1 $-1 $45 1 1021401091 1021401091 -163184638 3 #
face $-1 -1 $-1 $102 $103 $23 $-1 $104 reversed single #
loop $-1 -1 $-1 $-1 $105 $45 #
plane-surface $-1 -1 $-1 0 0 -2.4891999999999999 0 0 1 1 0 0 forward_v I I I I #
coedge $-1 -1 $-1 $106 $107 $108 $109 forward $46 $-1 #
face $-1 -1 $-1 $110 $111 $25 $-1 $112 forward single #
loop $-1 -1 $-1 $113 $114 $48 #
cone-surface $-1 -1 $-1 -7.6020678164497142e-032 -7.0499162063697427e-016 -1.4223999999999997 0 0 1 8.7629999999999981 7.0499162063697427e-016 0 1 I I 0 1 8.7629999999999981 forward I I I I #
loop $-1 -1 $-1 $-1 $115 $35 #
coedge $-1 -1 $-1 $75 $75 $116 $117 forward $49 $-1 #
face $-1 -1 $-1 $118 $119 $27 $-1 $53 reversed single #
loop $-1 -1 $-1 $-1 $120 $51 #
coedge $-1 -1 $-1 $121 $122 $123 $124 reversed $52 $-1 #
face $-1 -1 $-1 $-1 $125 $29 $-1 $126 forward single #
loop $-1 -1 $-1 $-1 $127 $54 #
plane-surface $-1 -1 $-1 0 0 -1.0668000000000002 1.5651031661648201e-032 -1.0760084267383134e-032 1 1 0 -1.5651031661648201e-032 forward_v I I I I #
loop $-1 -1 $-1 $-1 $128 $37 #
coedge $-1 -1 $-1 $83 $83 $127 $129 forward $55 $-1 #
model_id-kcp-attrib $-1 -1 $-1 $-1 $58 1 1021401091 1021401091 -163184639 5 #
face $130 -1 $-1 $131 $132 $9 $-1 $133 forward single #
loop $-1 -1 $-1 $134 $135 $58 #
plane-surface $-1 -1 $-1 0 0 0 0 0 -1 -25.399999999999999 0 0 forward_v I I I I #
coedge $-1 -1 $-1 $95 $136 $97 $137 forward $59 $-1 #
coedge $-1 -1 $-1 $61 $97 $138 $139 forward $40 $-1 #
coedge $-1 -1 $-1 $136 $95 $61 $91 reversed $59 $-1 #
edge $-1 -1 $-1 $140 0 $100 0.154 $90 $141 forward @7 unknown #
coedge $-1 -1 $-1 $62 $62 $142 $143 forward $42 $-1 #
coedge $-1 -1 $-1 $144 $145 $62 $94 reversed $146 $-1 #
edge $147 -1 $-1 $148 0 $149 3.1415926535897931 $62 $150 forward @7 unknown #
coedge $-1 -1 $-1 $90 $88 $63 $96 reversed $59 $-1 #
edge $151 -1 $-1 $100 0 $99 3.1415926535897931 $63 $152 forward @7 unknown #
coedge $-1 -1 $-1 $89 $64 $88 $137 reversed $40 $-1 #
attrib_edge_convexity-kcp-attrib $-1 -1 $153 $-1 $65 1 #
vertex $-1 -1 $-1 $96 $154 #
vertex $-1 -1 $-1 $96 $155 #
ellipse-curve $-1 -1 $-1 0 0 3.9115999999999995 0 0 1 -7.9375 0 0 1 I I #
face $-1 -1 $-1 $156 $157 $23 $-1 $158 reversed single #
loop $-1 -1 $-1 $-1 $159 $67 #
plane-surface $-1 -1 $-1 0 -8.7629999999999981 0 0 1 0 0 0 1 forward_v I I I I #
coedge $-1 -1 $-1 $160 $161 $162 $163 forward $68 $-1 #
coedge $-1 -1 $-1 $164 $70 $165 $166 forward $46 $-1 #
coedge $-1 -1 $-1 $70 $164 $167 $168 forward $46 $-1 #
coedge $-1 -1 $-1 $169 $170 $70 $109 reversed $171 $-1 #
edge $-1 -1 $-1 $172 -8.7629999999999981 $173 8.7629999999999981 $108 $174 forward @7 unknown #
face $-1 -1 $-1 $-1 $175 $25 $-1 $176 reversed single #
loop $-1 -1 $-1 $177 $178 $71 #
plane-surface $-1 -1 $-1 -0.41800691323885181 -4.4408920985006262e-016 2.4891999999999999 9.3357249343747984e-033 -1.5559541557291326e-033 1 1 0 -9.3357249343747984e-033 forward_v I I I I #
loop $-1 -1 $-1 $-1 $179 $48 #
coedge $-1 -1 $-1 $114 $114 $178 $180 forward $72 $-1 #
coedge $-1 -1 $-1 $115 $115 $181 $182 reversed $74 $-1 #
coedge $-1 -1 $-1 $116 $116 $75 $117 reversed $177 $-1 #
edge $-1 -1 $-1 $183 -3.1415926535897931 $183 3.1415926535897931 $75 $184 forward @7 unknown #
face $-1 -1 $-1 $185 $186 $27 $-1 $53 reversed single #
loop $-1 -1 $-1 $-1 $187 $76 #
coedge $-1 -1 $-1 $188 $189 $190 $191 reversed $77 $-1 #
coedge $-1 -1 $-1 $192 $78 $193 $194 reversed $52 $-1 #
coedge $-1 -1 $-1 $78 $192 $195 $196 reversed $52 $-1 #
coedge $-1 -1 $-1 $197 $198 $199 $124 forward $200 $-1 #
edge $-1 -1 $-1 $201 -4.9783999999999997 $202 0 $123 $203 forward @7 unknown #
loop $-1 -1 $-1 $-1 $204 $79 #
plane-surface $-1 -1 $-1 0 0 3.9115999999999995 1.5651031661648201e-032 -1.0760084267383134e-032 1 1 0 -1.5651031661648201e-032 forward_v I I I I #
coedge $-1 -1 $-1 $127 $127 $83 $129 reversed $80 $-1 #
coedge $-1 -1 $-1 $128 $128 $204 $205 forward $82 $-1 #
edge $-1 -1 $-1 $206 0 $206 6.2831853071795862 $83 $207 forward @7 unknown #
model_id-kcp-attrib $-1 -1 $-1 $-1 $85 1 1021401091 1021401091 -163184639 6 #
face $208 -1 $-1 $209 $210 $9 $-1 $211 forward single #
loop $-1 -1 $-1 $-1 $212 $85 #
cone-surface $-1 -1 $-1 0 0 0 0 0 -1 -8.7629999999999981 0 0 1 I I 0 1 8.7629999999999981 forward I I I I #
loop $-1 -1 $-1 $-1 $138 $58 #
coedge $-1 -1 $-1 $213 $213 $214 $215 reversed $86 $-1 #
coedge $-1 -1 $-1 $88 $90 $216 $217 forward $59 $-1 #
edge $-1 -1 $-1 $218 0 $99 0.154 $88 $219 forward @7 unknown #
coedge $-1 -1 $-1 $216 $216 $89 $139 reversed $134 $-1 #
edge $220 -1 $-1 $218 0 $140 3.1415926535897931 $89 $221 forward @7 unknown #
vertex $-1 -1 $-1 $217 $222 #
straight-curve $-1 -1 $-1 7.9375 0 0 0 0 25.399999999999999 I I #
coedge $-1 -1 $-1 $223 $224 $92 $143 reversed $225 $-1 #
edge $226 -1 $-1 $149 0 $148 3.1415926535897931 $92 $227 forward @7 unknown #
coedge $-1 -1 $-1 $228 $93 $224 $229 forward $146 $-1 #
coedge $-1 -1 $-1 $93 $228 $223 $230 reversed $146 $-1 #
loop $-1 -1 $-1 $-1 $144 $231 #
attrib_edge_convexity-kcp-attrib $-1 -1 $232 $-1 $94 1 #
vertex $-1 -1 $-1 $143 $233 #
vertex $-1 -1 $-1 $143 $234 #
ellipse-curve $-1 -1 $-1 0 0 3.9115999999999995 0 0 -1 3.1749999999999998 0 0 1 I I #
attrib_edge_convexity-kcp-attrib $-1 -1 $235 $-1 $96 1 #
ellipse-curve $-1 -1 $-1 0 0 3.9115999999999995 0 0 1 7.9375 0 0 1 I I #
convexity-sys-attrib $-1 -1 $-1 $98 $65 #
point $-1 -1 $-1 -7.9375 0 3.9115999999999995 #
point $-1 -1 $-1 7.9375 0 3.9115999999999995 #
face $-1 -1 $-1 $236 $237 $23 $-1 $238 reversed single #
loop $-1 -1 $-1 $-1 $239 $102 #
plane-surface $-1 -1 $-1 -8.7629999999999981 0 0 1 0 0 0 0 -1 forward_v I I I I #
coedge $-1 -1 $-1 $240 $167 $241 $242 forward $103 $-1 #
coedge $-1 -1 $-1 $243 $105 $240 $244 forward $68 $-1 #
coedge $-1 -1 $-1 $105 $243 $245 $246 forward $68 $-1 #
coedge $-1 -1 $-1 $170 $169 $105 $163 reversed $171 $-1 #
edge $-1 -1 $-1 $247 -8.7629999999999981 $248 8.7629999999999981 $162 $249 forward @7 unknown #
coedge $-1 -1 $-1 $107 $106 $250 $251 forward $46 $-1 #
coedge $-1 -1 $-1 $252 $253 $106 $166 reversed $237 $-1 #
edge $-1 -1 $-1 $173 -8.7629999999999981 $254 8.7629999999999981 $165 $255 forward @7 unknown #
coedge $-1 -1 $-1 $159 $256 $107 $168 reversed $103 $-1 #
edge $-1 -1 $-1 $257 -8.7629999999999981 $172 8.7629999999999981 $167 $258 forward @7 unknown #
coedge $-1 -1 $-1 $162 $108 $256 $259 forward $171 $-1 #
coedge $-1 -1 $-1 $108 $162 $252 $260 reversed $171 $-1 #
loop $-1 -1 $-1 $-1 $169 $236 #
vertex $-1 -1 $-1 $109 $261 #
vertex $-1 -1 $-1 $109 $262 #
straight-curve $-1 -1 $-1 8.7629999999999981 0 2.4891999999999999 0 1 0 I I #
loop $-1 -1 $-1 $263 $264 $110 #
plane-surface $-1 -1 $-1 -0.41800691323885181 -4.4408920985006262e-016 -1.4223999999999997 9.3357249343747984e-033 -1.5559541557291326e-033 1 1 0 -9.3357249343747984e-033 forward_v I I I I #
loop $-1 -1 $-1 $-1 $116 $71 #
coedge $-1 -1 $-1 $178 $178 $114 $180 reversed $111 $-1 #
coedge $-1 -1 $-1 $179 $179 $264 $265 reversed $113 $-1 #
edge $-1 -1 $-1 $266 -3.1415926535897931 $266 3.1415926535897931 $114 $267 forward @7 unknown #
coedge $-1 -1 $-1 $181 $181 $115 $182 forward $263 $-1 #
edge $268 -1 $-1 $269 0 $269 6.2831853071795862 $115 $270 forward @7 unknown #
vertex $-1 -1 $-1 $117 $271 #
ellipse-curve $-1 -1 $-1 0 0 2.4891999999999999 0 0 1 7.9375 0 0 1 I I #
face $-1 -1 $-1 $272 $273 $27 $-1 $274 reversed single #
loop $-1 -1 $-1 $-1 $275 $118 #
coedge $-1 -1 $-1 $276 $277 $278 $279 reversed $119 $-1 #
coedge $-1 -1 $-1 $280 $120 $281 $282 reversed $77 $-1 #
coedge $-1 -1 $-1 $120 $280 $78 $124 forward $77 $-1 #
coedge $-1 -1 $-1 $283 $284 $120 $191 forward $285 $-1 #
edge $-1 -1 $-1 $286 -3.1415926535897931 $202 -1.5707963267948966 $190 $287 forward @7 unknown #
coedge $-1 -1 $-1 $122 $121 $277 $288 forward $52 $-1 #
coedge $-1 -1 $-1 $289 $290 $121 $194 forward $291 $-1 #
edge $-1 -1 $-1 $292 -8.045094381341714e-017 $201 1.5707963267948966 $193 $293 forward @7 unknown #
coedge $-1 -1 $-1 $294 $295 $122 $196 forward $296 $-1 #
edge $-1 -1 $-1 $202 -1.5707963267948966 $297 8.045094381341714e-017 $195 $287 forward @7 unknown #
coedge $-1 -1 $-1 $298 $123 $295 $299 reversed $200 $-1 #
coedge $-1 -1 $-1 $123 $298 $289 $300 reversed $200 $-1 #
coedge $-1 -1 $-1 $301 $302 $189 $124 reversed $303 $-1 #
loop $-1 -1 $-1 $-1 $123 $304 #
vertex $-1 -1 $-1 $300 $305 #
vertex $-1 -1 $-1 $306 $307 #
straight-curve $-1 -1 $-1 -7.6020678164497142e-032 8.7629999999999981 2.4891999999999999 0 0 1 I I #
coedge $-1 -1 $-1 $204 $204 $128 $205 reversed $125 $-1 #
edge $-1 -1 $-1 $308 0 $308 6.2831853071795862 $128 $309 forward @7 unknown #
vertex $-1 -1 $-1 $129 $310 #
ellipse-curve $-1 -1 $-1 0 0 -1.0668000000000002 0 0 1 -3.1749999999999998 0 0 1 I I #
model_id-kcp-attrib $-1 -1 $-1 $-1 $131 1 1021401091 1021401091 -163184639 7 #
face $311 -1 $-1 $231 $312 $9 $-1 $313 forward single #
loop $-1 -1 $-1 $-1 $314 $131 #
cone-surface $-1 -1 $-1 0 0 0 0 0 -1 -8.7629999999999981 0 0 1 I I 0 1 8.7629999999999981 forward I I I I #
coedge $-1 -1 $-1 $315 $214 $316 $317 forward $132 $-1 #
coedge $-1 -1 $-1 $135 $135 $318 $319 reversed $86 $-1 #
coedge $-1 -1 $-1 $212 $320 $135 $215 forward $132 $-1 #
edge $321 -1 $-1 $322 0 $323 3.1415926535897931 $135 $324 forward @7 unknown #
coedge $-1 -1 $-1 $138 $138 $136 $217 reversed $134 $-1 #
edge $325 -1 $-1 $140 0 $218 3.1415926535897931 $136 $326 forward @7 unknown #
vertex $-1 -1 $-1 $217 $327 #
straight-curve $-1 -1 $-1 -7.9375 9.7203129334651195e-016 0 0 0 25.399999999999999 I I #
attrib_edge_convexity-kcp-attrib $-1 -1 $328 $-1 $139 2 #
ellipse-curve $-1 -1 $-1 0 0 0 0 0 1 -7.9375 0 0 1 I I #
point $-1 -1 $-1 7.9375 0 0 #
coedge $-1 -1 $-1 $329 $142 $145 $230 forward $225 $-1 #
coedge $-1 -1 $-1 $142 $329 $144 $229 reversed $225 $-1 #
loop $-1 -1 $-1 $-1 $223 $330 #
attrib_edge_convexity-kcp-attrib $-1 -1 $331 $-1 $143 1 #
ellipse-curve $-1 -1 $-1 0 0 3.9115999999999995 0 0 -1 -3.1749999999999998 0 0 1 I I #
coedge $-1 -1 $-1 $145 $144 $332 $333 forward $146 $-1 #
edge $-1 -1 $-1 $148 0 $334 0.19600000000000001 $224 $335 forward @7 unknown #
edge $-1 -1 $-1 $149 0 $336 0.19600000000000001 $223 $337 forward @7 unknown #
face $338 -1 $-1 $330 $146 $9 $-1 $339 reversed single #
convexity-sys-attrib $-1 -1 $-1 $147 $94 #
point $-1 -1 $-1 3.1749999999999998 0 3.9115999999999995 #
point $-1 -1 $-1 -3.1749999999999998 0 3.9115999999999995 #
convexity-sys-attrib $-1 -1 $-1 $151 $96 #
face $-1 -1 $-1 $-1 $171 $23 $-1 $340 reversed single #
loop $-1 -1 $-1 $-1 $252 $156 #
plane-surface $-1 -1 $-1 0 8.7629999999999981 0 0 -1 0 0 0 -1 forward_v I I I I #
coedge $-1 -1 $-1 $341 $250 $253 $342 forward $157 $-1 #
coedge $-1 -1 $-1 $256 $159 $160 $244 reversed $103 $-1 #
coedge $-1 -1 $-1 $250 $341 $159 $242 reversed $157 $-1 #
edge $-1 -1 $-1 $257 -2.4891999999999999 $343 2.4891999999999999 $241 $344 forward @7 unknown #
coedge $-1 -1 $-1 $161 $160 $341 $345 forward $68 $-1 #
edge $-1 -1 $-1 $248 -8.7629999999999981 $343 8.7629999999999981 $240 $346 forward @7 unknown #
coedge $-1 -1 $-1 $253 $252 $161 $246 reversed $237 $-1 #
edge $-1 -1 $-1 $347 -8.7629999999999981 $247 8.7629999999999981 $245 $348 forward @7 unknown #
vertex $-1 -1 $-1 $163 $349 #
vertex $-1 -1 $-1 $259 $350 #
straight-curve $-1 -1 $-1 8.7629999999999981 0 -2.4891999999999999 0 -1 0 I I #
coedge $-1 -1 $-1 $239 $241 $164 $251 reversed $157 $-1 #
edge $-1 -1 $-1 $254 -8.7629999999999981 $257 8.7629999999999981 $250 $351 forward @7 unknown #
coedge $-1 -1 $-1 $245 $165 $170 $260 forward $237 $-1 #
coedge $-1 -1 $-1 $165 $245 $239 $342 reversed $237 $-1 #
vertex $-1 -1 $-1 $166 $352 #
straight-curve $-1 -1 $-1 0 8.7629999999999981 2.4891999999999999 -1 0 0 I I #
coedge $-1 -1 $-1 $167 $240 $169 $259 reversed $103 $-1 #
vertex $-1 -1 $-1 $251 $353 #
straight-curve $-1 -1 $-1 0 -8.7629999999999981 2.4891999999999999 1 0 0 I I #
edge $-1 -1 $-1 $172 -2.4891999999999999 $248 2.4891999999999999 $169 $354 forward @7 unknown #
edge $-1 -1 $-1 $173 -2.4891999999999999 $247 2.4891999999999999 $170 $355 forward @7 unknown #
point $-1 -1 $-1 8.7629999999999981 -8.7629999999999981 2.4891999999999999 #
point $-1 -1 $-1 8.7629999999999981 8.7629999999999981 2.4891999999999999 #
loop $-1 -1 $-1 $-1 $181 $110 #
coedge $-1 -1 $-1 $264 $264 $179 $265 forward $175 $-1 #
edge $356 -1 $-1 $357 -3.1415926535897931 $357 3.1415926535897931 $179 $358 forward @7 unknown #
vertex $-1 -1 $-1 $180 $359 #
ellipse-curve $-1 -1 $-1 -7.6020678164497142e-032 -7.0499162063697427e-016 2.4891999999999999 0 0 -1 8.7629999999999981 7.0499162063697427e-016 0 1 I I #
convexity-sys-attrib $-1 -1 $-1 $-1 $182 #
vertex $-1 -1 $-1 $182 $360 #
ellipse-curve $-1 -1 $-1 0 0 -1.4223999999999997 0 0 1 7.9375 0 0 1 I I #
point $-1 -1 $-1 -7.9375 0 2.4891999999999999 #
face $-1 -1 $-1 $361 $303 $27 $-1 $362 reversed single #
loop $-1 -1 $-1 $-1 $363 $185 #
plane-surface $-1 -1 $-1 8.7629999999999981 0 0 -1 0 0 0 0 1 forward_v I I I I #
coedge $-1 -1 $-1 $364 $365 $366 $367 reversed $186 $-1 #
coedge $-1 -1 $-1 $368 $187 $365 $369 forward $119 $-1 #
coedge $-1 -1 $-1 $187 $368 $370 $288 reversed $119 $-1 #
coedge $-1 -1 $-1 $371 $372 $187 $279 forward $373 $-1 #
edge $-1 -1 $-1 $374 -1.5707963267948968 $292 -8.045094381341714e-017 $278 $293 forward @7 unknown #
coedge $-1 -1 $-1 $189 $188 $375 $376 reversed $77 $-1 #
coedge $-1 -1 $-1 $377 $378 $379 $282 forward $380 $-1 #
edge $-1 -1 $-1 $381 -4.9783999999999997 $286 0 $281 $382 forward @7 unknown #
coedge $-1 -1 $-1 $284 $190 $302 $306 forward $285 $-1 #
coedge $-1 -1 $-1 $190 $283 $377 $383 forward $285 $-1 #
loop $-1 -1 $-1 $-1 $190 $384 #
vertex $-1 -1 $-1 $385 $386 #
ellipse-curve $-1 -1 $-1 -7.6020678164497142e-032 -7.0499162063697427e-016 2.4891999999999999 0 0 -1 8.7629999999999981 7.0499162063697427e-016 0 1 I I #
edge $-1 -1 $-1 $292 -4.9783999999999997 $297 0 $370 $387 forward @7 unknown #
coedge $-1 -1 $-1 $290 $193 $198 $300 forward $291 $-1 #
coedge $-1 -1 $-1 $193 $289 $388 $389 forward $291 $-1 #
loop $-1 -1 $-1 $-1 $193 $390 #
vertex $-1 -1 $-1 $391 $392 #
ellipse-curve $-1 -1 $-1 -7.6020678164497142e-032 -7.0499162063697427e-016 -2.4891999999999999 0 0 1 8.7629999999999981 7.0499162063697427e-016 0 1 I I #
coedge $-1 -1 $-1 $295 $195 $393 $394 forward $296 $-1 #
coedge $-1 -1 $-1 $195 $294 $197 $299 forward $296 $-1 #
loop $-1 -1 $-1 $-1 $195 $395 #
vertex $-1 -1 $-1 $394 $396 #
coedge $-1 -1 $-1 $198 $197 $397 $398 forward $200 $-1 #
edge $-1 -1 $-1 $399 -8.7629999999999981 $202 7.6020678164497142e-032 $197 $400 forward @7 unknown #
edge $-1 -1 $-1 $201 -7.6020678164497142e-032 $401 8.7629999999999981 $198 $402 forward @7 unknown #
coedge $-1 -1 $-1 $403 $199 $404 $405 reversed $303 $-1 #
coedge $-1 -1 $-1 $199 $403 $283 $306 reversed $303 $-1 #
loop $-1 -1 $-1 $-1 $199 $272 #
face $-1 -1 $-1 $406 $200 $27 $-1 $362 reversed single #
point $-1 -1 $-1 -7.6020678164497142e-032 8.7629999999999981 -2.4891999999999999 #
edge $-1 -1 $-1 $202 7.6020678164497142e-032 $407 8.7629999999999981 $302 $400 forward @7 unknown #
point $-1 -1 $-1 -7.6020678164497142e-032 8.7629999999999981 2.4891999999999999 #
vertex $-1 -1 $-1 $205 $408 #
ellipse-curve $-1 -1 $-1 0 0 3.9115999999999995 0 0 -1 3.1749999999999998 0 0 1 I I #
point $-1 -1 $-1 -3.1749999999999998 0 -1.0668000000000002 #
model_id-kcp-attrib $-1 -1 $-1 $-1 $209 1 1021401091 1021401091 -163184639 8 #
loop $-1 -1 $-1 $409 $410 $209 #
plane-surface $-1 -1 $-1 0 0 -1.0668 0 0 -1 -25.399999999999999 0 0 forward_v I I I I #
coedge $-1 -1 $-1 $411 $318 $320 $412 forward $210 $-1 #
coedge $-1 -1 $-1 $320 $212 $410 $413 reversed $132 $-1 #
coedge $-1 -1 $-1 $318 $411 $212 $317 reversed $210 $-1 #
edge $-1 -1 $-1 $323 0 $414 0.042000000000000003 $316 $415 forward @7 unknown #
coedge $-1 -1 $-1 $314 $316 $213 $319 forward $210 $-1 #
edge $416 -1 $-1 $323 0 $322 3.1415926535897931 $213 $417 forward @7 unknown #
coedge $-1 -1 $-1 $214 $315 $314 $412 reversed $132 $-1 #
attrib_edge_convexity-kcp-attrib $-1 -1 $418 $-1 $215 1 #
vertex $-1 -1 $-1 $319 $419 #
vertex $-1 -1 $-1 $319 $420 #
ellipse-curve $-1 -1 $-1 0 0 0 0 0 -1 8.7629999999999981 0 0 1 I I #
attrib_edge_convexity-kcp-attrib $-1 -1 $421 $-1 $217 2 #
ellipse-curve $-1 -1 $-1 0 0 0 0 0 1 7.9375 0 0 1 I I #
point $-1 -1 $-1 -7.9375 0 0 #
convexity-sys-attrib $-1 -1 $-1 $220 $139 #
coedge $-1 -1 $-1 $224 $223 $422 $423 forward $225 $-1 #
face $424 -1 $-1 $-1 $225 $9 $-1 $425 reversed single #
convexity-sys-attrib $-1 -1 $-1 $226 $143 #
coedge $-1 -1 $-1 $422 $422 $228 $333 reversed $409 $-1 #
edge $-1 -1 $-1 $334 0 $336 3.1415926535897931 $332 $426 forward @7 unknown #
vertex $-1 -1 $-1 $423 $427 #
straight-curve $-1 -1 $-1 3.1749999999999998 3.8881251733860477e-016 3.9115999999999995 0 0 -25.399999999999999 I I #
vertex $-1 -1 $-1 $423 $428 #
straight-curve $-1 -1 $-1 -3.1749999999999998 0 3.9115999999999995 0 0 -25.399999999999999 I I #
model_id-kcp-attrib $-1 -1 $-1 $-1 $231 1 1021401091 1021401091 -163184639 9 #
cone-surface $-1 -1 $-1 0 0 3.9115999999999995 0 0 -1 -3.1749999999999998 0 0 1 I I 0 1 3.1749999999999998 forward I I I I #
plane-surface $-1 -1 $-1 8.7629999999999981 0 0 -1 0 0 0 0 1 forward_v I I I I #
coedge $-1 -1 $-1 $241 $239 $243 $345 reversed $157 $-1 #
edge $-1 -1 $-1 $254 -2.4891999999999999 $347 2.4891999999999999 $253 $429 forward @7 unknown #
vertex $-1 -1 $-1 $345 $430 #
straight-curve $-1 -1 $-1 -8.7629999999999981 -8.7629999999999981 0 0 0 -1 I I #
edge $-1 -1 $-1 $343 -8.7629999999999981 $347 8.7629999999999981 $341 $431 forward @7 unknown #
straight-curve $-1 -1 $-1 0 -8.7629999999999981 -2.4891999999999999 -1 0 0 I I #
vertex $-1 -1 $-1 $246 $432 #
straight-curve $-1 -1 $-1 0 8.7629999999999981 -2.4891999999999999 1 0 0 I I #
point $-1 -1 $-1 8.7629999999999981 8.7629999999999981 -2.4891999999999999 #
point $-1 -1 $-1 8.7629999999999981 -8.7629999999999981 -2.4891999999999999 #
straight-curve $-1 -1 $-1 -8.7629999999999981 0 2.4891999999999999 0 -1 0 I I #
point $-1 -1 $-1 -8.7629999999999981 8.7629999999999981 2.4891999999999999 #
point $-1 -1 $-1 -8.7629999999999981 -8.7629999999999981 2.4891999999999999 #
straight-curve $-1 -1 $-1 8.7629999999999981 -8.7629999999999981 0 0 0 -1 I I #
straight-curve $-1 -1 $-1 8.7629999999999981 8.7629999999999981 0 0 0 -1 I I #
convexity-sys-attrib $-1 -1 $-1 $-1 $265 #
vertex $-1 -1 $-1 $265 $433 #
ellipse-curve $-1 -1 $-1 -7.6020678164497142e-032 -7.0499162063697427e-016 -1.4223999999999997 0 0 -1 8.7629999999999981 7.0499162063697427e-016 0 1 I I #
point $-1 -1 $-1 -8.7629999999999981 -3.3686069341939962e-016 2.4891999999999999 #
point $-1 -1 $-1 7.9375 0 -1.4223999999999997 #
face $-1 -1 $-1 $434 $435 $27 $-1 $436 reversed single #
plane-surface $-1 -1 $-1 0 8.7629999999999981 0 0 -1 0 0 0 -1 forward_v I I I I #
coedge $-1 -1 $-1 $388 $393 $192 $288 reversed $273 $-1 #
coedge $-1 -1 $-1 $437 $275 $188 $282 forward $186 $-1 #
coedge $-1 -1 $-1 $275 $437 $438 $369 reversed $186 $-1 #
coedge $-1 -1 $-1 $439 $440 $275 $367 forward $441 $-1 #
edge $-1 -1 $-1 $381 -3.1415926535897931 $374 -1.5707963267948968 $366 $293 forward @7 unknown #
coedge $-1 -1 $-1 $277 $276 $442 $443 reversed $119 $-1 #
edge $-1 -1 $-1 $374 -4.9783999999999997 $444 0 $438 $445 forward @7 unknown #
coedge $-1 -1 $-1 $446 $447 $363 $288 forward $448 $-1 #
coedge $-1 -1 $-1 $372 $278 $447 $391 forward $373 $-1 #
coedge $-1 -1 $-1 $278 $371 $449 $450 forward $373 $-1 #
loop $-1 -1 $-1 $-1 $278 $451 #
vertex $-1 -1 $-1 $452 $453 #
coedge $-1 -1 $-1 $454 $404 $280 $376 forward $455 $-1 #
edge $-1 -1 $-1 $201 1.5707963267948966 $381 3.1415926535897931 $375 $293 forward @7 unknown #
coedge $-1 -1 $-1 $456 $281 $284 $383 reversed $380 $-1 #
coedge $-1 -1 $-1 $281 $456 $454 $457 reversed $380 $-1 #
coedge $-1 -1 $-1 $458 $459 $364 $282 reversed $435 $-1 #
loop $-1 -1 $-1 $-1 $281 $460 #
vertex $-1 -1 $-1 $457 $461 #
straight-curve $-1 -1 $-1 -8.7629999999999981 -7.0499162063697427e-016 2.4891999999999999 0 0 1 I I #
edge $-1 -1 $-1 $407 -8.7629999999999981 $286 7.0499162063697427e-016 $377 $462 forward @7 unknown #
face $-1 -1 $-1 $395 $285 $27 $-1 $463 forward single #
edge $-1 -1 $-1 $286 7.0499162063697427e-016 $464 8.7629999999999981 $459 $462 forward @7 unknown #
point $-1 -1 $-1 -8.7629999999999981 -7.0499162063697427e-016 2.4891999999999999 #
straight-curve $-1 -1 $-1 8.7629999999999981 -7.0499162063697427e-016 2.4891999999999999 0 0 1 I I #
coedge $-1 -1 $-1 $397 $363 $290 $389 reversed $273 $-1 #
edge $-1 -1 $-1 $401 -8.7629999999999981 $292 7.0499162063697427e-016 $388 $465 forward @7 unknown #
face $-1 -1 $-1 $466 $291 $27 $-1 $467 reversed single #
edge $-1 -1 $-1 $292 7.0499162063697427e-016 $468 8.7629999999999981 $447 $465 forward @7 unknown #
point $-1 -1 $-1 8.7629999999999981 -7.0499162063697427e-016 -2.4891999999999999 #
coedge $-1 -1 $-1 $363 $397 $294 $394 reversed $273 $-1 #
edge $-1 -1 $-1 $297 -7.0499162063697427e-016 $399 8.7629999999999981 $393 $469 forward @7 unknown #
face $-1 -1 $-1 $470 $296 $27 $-1 $463 forward single #
point $-1 -1 $-1 8.7629999999999981 -7.0499162063697427e-016 2.4891999999999999 #
coedge $-1 -1 $-1 $393 $388 $298 $398 reversed $273 $-1 #
edge $-1 -1 $-1 $399 -2.4891999999999999 $401 2.4891999999999999 $397 $471 forward @7 unknown #
vertex $-1 -1 $-1 $394 $472 #
straight-curve $-1 -1 $-1 0 8.7629999999999981 2.4891999999999999 -1 0 0 I I #
vertex $-1 -1 $-1 $389 $473 #
straight-curve $-1 -1 $-1 0 8.7629999999999981 -2.4891999999999999 1 0 0 I I #
coedge $-1 -1 $-1 $302 $301 $456 $474 reversed $303 $-1 #
coedge $-1 -1 $-1 $375 $454 $301 $405 forward $455 $-1 #
edge $-1 -1 $-1 $475 -8.7629999999999981 $201 -7.6020678164497142e-032 $301 $402 forward @7 unknown #
face $-1 -1 $-1 $-1 $448 $27 $-1 $274 reversed single #
vertex $-1 -1 $-1 $306 $476 #
point $-1 -1 $-1 3.1749999999999998 0 3.9115999999999995 #
loop $-1 -1 $-1 $-1 $332 $209 #
coedge $-1 -1 $-1 $477 $477 $315 $413 forward $312 $-1 #
coedge $-1 -1 $-1 $316 $314 $477 $478 reversed $210 $-1 #
edge $-1 -1 $-1 $322 0 $479 0.042000000000000003 $314 $480 forward @7 unknown #
edge $-1 -1 $-1 $479 0 $414 3.1415926535897931 $410 $481 forward @7 unknown #
vertex $-1 -1 $-1 $478 $482 #
straight-curve $-1 -1 $-1 -8.7629999999999981 0 0 0 0 -25.399999999999999 I I #
attrib_edge_convexity-kcp-attrib $-1 -1 $483 $-1 $319 1 #
ellipse-curve $-1 -1 $-1 0 0 0 0 0 -1 -8.7629999999999981 0 0 1 I I #
convexity-sys-attrib $-1 -1 $-1 $321 $215 #
point $-1 -1 $-1 8.7629999999999981 0 0 #
point $-1 -1 $-1 -8.7629999999999981 0 0 #
convexity-sys-attrib $-1 -1 $-1 $325 $217 #
coedge $-1 -1 $-1 $332 $332 $329 $423 reversed $409 $-1 #
edge $-1 -1 $-1 $336 0 $334 3.1415926535897931 $422 $484 forward @7 unknown #
model_id-kcp-attrib $-1 -1 $-1 $-1 $330 1 1021401091 1021401091 -163184639 10 #
cone-surface $-1 -1 $-1 0 0 3.9115999999999995 0 0 -1 -3.1749999999999998 0 0 1 I I 0 1 3.1749999999999998 forward I I I I #
ellipse-curve $-1 -1 $-1 0 0 -1.0668 0 0 -1 3.1749999999999998 0 0 1 I I #
point $-1 -1 $-1 3.1749999999999998 0 -1.0668 #
point $-1 -1 $-1 -3.1749999999999998 0 -1.0668 #
straight-curve $-1 -1 $-1 -8.7629999999999981 8.7629999999999981 0 0 0 -1 I I #
point $-1 -1 $-1 -8.7629999999999981 -8.7629999999999981 -2.4891999999999999 #
straight-curve $-1 -1 $-1 -8.7629999999999981 0 -2.4891999999999999 0 1 0 I I #
point $-1 -1 $-1 -8.7629999999999981 8.7629999999999981 -2.4891999999999999 #
point $-1 -1 $-1 -8.7629999999999981 -3.3686069341939962e-016 -1.4223999999999997 #
face $-1 -1 $-1 $384 $485 $27 $-1 $463 forward single #
loop $-1 -1 $-1 $-1 $379 $361 #
plane-surface $-1 -1 $-1 -8.7629999999999981 0 0 1 0 0 0 0 -1 forward_v I I I I #
coedge $-1 -1 $-1 $365 $364 $486 $487 reversed $186 $-1 #
coedge $-1 -1 $-1 $488 $489 $490 $369 forward $491 $-1 #
coedge $-1 -1 $-1 $440 $366 $489 $452 forward $441 $-1 #
coedge $-1 -1 $-1 $366 $439 $458 $492 forward $441 $-1 #
loop $-1 -1 $-1 $-1 $366 $493 #
coedge $-1 -1 $-1 $494 $495 $368 $443 forward $496 $-1 #
edge $-1 -1 $-1 $297 8.045094381341714e-017 $444 1.5707963267948968 $442 $287 forward @7 unknown #
vertex $-1 -1 $-1 $497 $498 #
straight-curve $-1 -1 $-1 -7.6020678164497142e-032 -8.7629999999999981 2.4891999999999999 0 0 1 I I #
coedge $-1 -1 $-1 $499 $370 $495 $500 reversed $448 $-1 #
coedge $-1 -1 $-1 $370 $499 $371 $391 reversed $448 $-1 #
loop $-1 -1 $-1 $-1 $370 $406 #
coedge $-1 -1 $-1 $501 $490 $372 $450 reversed $502 $-1 #
edge $-1 -1 $-1 $468 -8.7629999999999981 $374 7.6020678164497142e-032 $449 $503 forward @7 unknown #
face $-1 -1 $-1 $390 $373 $27 $-1 $467 reversed single #
edge $-1 -1 $-1 $374 7.6020678164497142e-032 $504 8.7629999999999981 $489 $503 forward @7 unknown #
point $-1 -1 $-1 -7.6020678164497142e-032 -8.7629999999999981 -2.4891999999999999 #
coedge $-1 -1 $-1 $404 $375 $378 $457 forward $455 $-1 #
loop $-1 -1 $-1 $-1 $375 $466 #
coedge $-1 -1 $-1 $378 $377 $403 $474 forward $380 $-1 #
edge $-1 -1 $-1 $381 -7.0499162063697427e-016 $475 8.7629999999999981 $378 $505 forward @7 unknown #
coedge $-1 -1 $-1 $506 $379 $440 $492 reversed $435 $-1 #
coedge $-1 -1 $-1 $379 $506 $507 $385 reversed $435 $-1 #
face $-1 -1 $-1 $304 $380 $27 $-1 $436 reversed single #
point $-1 -1 $-1 -8.7629999999999981 -7.0499162063697427e-016 -2.4891999999999999 #
straight-curve $-1 -1 $-1 -8.7629999999999981 0 2.4891999999999999 0 -1 0 I I #
plane-surface $-1 -1 $-1 0 0 2.4891999999999999 0 0 1 1 0 0 forward_v I I I I #
vertex $-1 -1 $-1 $385 $508 #
straight-curve $-1 -1 $-1 8.7629999999999981 0 -2.4891999999999999 0 -1 0 I I #
face $-1 -1 $-1 $509 $455 $27 $-1 $467 reversed single #
plane-surface $-1 -1 $-1 0 0 -2.4891999999999999 0 0 1 1 0 0 forward_v I I I I #
vertex $-1 -1 $-1 $510 $511 #
straight-curve $-1 -1 $-1 8.7629999999999981 0 2.4891999999999999 0 1 0 I I #
face $-1 -1 $-1 $512 $496 $27 $-1 $463 forward single #
straight-curve $-1 -1 $-1 8.7629999999999981 8.7629999999999981 0 0 0 -1 I I #
point $-1 -1 $-1 8.7629999999999981 8.7629999999999981 2.4891999999999999 #
point $-1 -1 $-1 8.7629999999999981 8.7629999999999981 -2.4891999999999999 #
edge $-1 -1 $-1 $407 -2.4891999999999999 $475 2.4891999999999999 $403 $513 forward @7 unknown #
vertex $-1 -1 $-1 $405 $514 #
point $-1 -1 $-1 -8.7629999999999981 8.7629999999999981 2.4891999999999999 #
coedge $-1 -1 $-1 $410 $410 $411 $478 forward $312 $-1 #
edge $-1 -1 $-1 $414 0 $479 3.1415926535897931 $477 $515 forward @7 unknown #
vertex $-1 -1 $-1 $478 $516 #
straight-curve $-1 -1 $-1 8.7629999999999981 1.0731225478545489e-015 0 0 0 -25.399999999999999 I I #
ellipse-curve $-1 -1 $-1 -3.5249581031848718e-016 -7.0499162063697436e-016 -1.0668 0 0 -1 8.7629999999999981 7.0499162063697436e-016 0 1 I I #
point $-1 -1 $-1 -8.7629999999999981 0 -1.0668 #
convexity-sys-attrib $-1 -1 $-1 $416 $319 #
ellipse-curve $-1 -1 $-1 0 0 -1.0668 0 0 -1 -3.1749999999999998 0 0 1 I I #
loop $-1 -1 $-1 $-1 $486 $434 #
coedge $-1 -1 $-1 $507 $517 $437 $487 forward $485 $-1 #
edge $-1 -1 $-1 $444 1.5707963267948968 $286 3.1415926535897931 $486 $287 forward @7 unknown #
coedge $-1 -1 $-1 $518 $438 $517 $519 reversed $491 $-1 #
coedge $-1 -1 $-1 $438 $518 $439 $452 reversed $491 $-1 #
coedge $-1 -1 $-1 $449 $520 $276 $369 reversed $502 $-1 #
loop $-1 -1 $-1 $-1 $438 $509 #
edge $-1 -1 $-1 $504 -8.7629999999999981 $381 -7.0499162063697427e-016 $458 $505 forward @7 unknown #
face $-1 -1 $-1 $451 $441 $27 $-1 $467 reversed single #
coedge $-1 -1 $-1 $495 $442 $520 $497 forward $496 $-1 #
coedge $-1 -1 $-1 $442 $494 $446 $500 forward $496 $-1 #
loop $-1 -1 $-1 $-1 $442 $470 #
edge $-1 -1 $-1 $444 -7.6020678164497142e-032 $521 8.7629999999999981 $520 $522 forward @7 unknown #
point $-1 -1 $-1 -7.6020678164497142e-032 -8.7629999999999981 2.4891999999999999 #
coedge $-1 -1 $-1 $447 $446 $501 $510 forward $448 $-1 #
edge $-1 -1 $-1 $521 -8.7629999999999981 $297 -7.0499162063697427e-016 $446 $469 forward @7 unknown #
coedge $-1 -1 $-1 $520 $449 $499 $510 reversed $502 $-1 #
loop $-1 -1 $-1 $-1 $490 $512 #
straight-curve $-1 -1 $-1 0 -8.7629999999999981 -2.4891999999999999 -1 0 0 I I #
vertex $-1 -1 $-1 $492 $523 #
straight-curve $-1 -1 $-1 -8.7629999999999981 0 -2.4891999999999999 0 1 0 I I #
coedge $-1 -1 $-1 $459 $458 $518 $524 reversed $435 $-1 #
coedge $-1 -1 $-1 $517 $486 $459 $385 forward $485 $-1 #
point $-1 -1 $-1 -8.7629999999999981 -8.7629999999999981 2.4891999999999999 #
face $-1 -1 $-1 $460 $491 $27 $-1 $525 reversed single #
edge $-1 -1 $-1 $521 -2.4891999999999999 $468 2.4891999999999999 $499 $526 forward @7 unknown #
point $-1 -1 $-1 8.7629999999999981 -8.7629999999999981 -2.4891999999999999 #
face $-1 -1 $-1 $493 $502 $27 $-1 $525 reversed single #
straight-curve $-1 -1 $-1 -8.7629999999999981 8.7629999999999981 0 0 0 -1 I I #
point $-1 -1 $-1 -8.7629999999999981 8.7629999999999981 -2.4891999999999999 #
ellipse-curve $-1 -1 $-1 0 3.5249581031848718e-016 -1.0668 0 0 -1 -8.7629999999999981 -3.5249581031848718e-016 0 1 I I #
point $-1 -1 $-1 8.7629999999999981 0 -1.0668 #
coedge $-1 -1 $-1 $486 $507 $488 $519 forward $485 $-1 #
coedge $-1 -1 $-1 $489 $488 $506 $524 forward $491 $-1 #
edge $-1 -1 $-1 $464 -8.7629999999999981 $444 -7.6020678164497142e-032 $488 $522 forward @7 unknown #
coedge $-1 -1 $-1 $490 $501 $494 $497 reversed $502 $-1 #
vertex $-1 -1 $-1 $500 $527 #
straight-curve $-1 -1 $-1 0 -8.7629999999999981 2.4891999999999999 1 0 0 I I #
point $-1 -1 $-1 -8.7629999999999981 -8.7629999999999981 -2.4891999999999999 #
edge $-1 -1 $-1 $464 -2.4891999999999999 $504 2.4891999999999999 $506 $528 forward @7 unknown #
plane-surface $-1 -1 $-1 0 -8.7629999999999981 0 0 1 0 0 0 1 forward_v I I I I #
straight-curve $-1 -1 $-1 8.7629999999999981 -8.7629999999999981 0 0 0 -1 I I #
point $-1 -1 $-1 8.7629999999999981 -8.7629999999999981 2.4891999999999999 #
straight-curve $-1 -1 $-1 -8.7629999999999981 -8.7629999999999981 0 0 0 -1 I I #
End-of-ACIS-data 