106 0 1 0           
body $-1 $1 $-1 $2 #
lump $-1 $-1 $3 $0 #
transform $-1 1 0 0 0 1 0 0 0 1 0 0 0 1 0 0 0 #
shell $-1 $-1 $-1 $4 $1 #
face $-1 $5 $6 $3 $-1 $7 forward single #
face $-1 $8 $9 $3 $-1 $10 forward single #
loop $-1 $11 $12 $4 #
plane-surface $-1 0 0 0.153999999999999998 0 0 1 1 0 0 0 I I I I #
face $-1 $13 $14 $3 $-1 $15 reversed single #
loop $-1 $16 $17 $5 #
cone-surface $-1 0 0 0 0 0 1 0.3125 0 0 1 I I 0 1 0 I I I I #
loop $-1 $-1 $18 $4 #
coedge $-1 $12 $12 $17 $19 1 $6 $-1 #
face $-1 $20 $21 $3 $-1 $22 forward single #
loop $-1 $23 $24 $8 #
plane-surface $-1 0 0 0 0 0 -1 -1 0 0 0 I I I I #
loop $-1 $-1 $25 $5 #
coedge $-1 $17 $17 $12 $19 0 $9 $-1 #
coedge $-1 $18 $18 $26 $27 1 $11 $-1 #
edge $-1 $28 $28 $17 $29 0 #
face $-1 $30 $31 $3 $-1 $32 forward single #
loop $-1 $33 $34 $13 #
plane-surface $-1 0 0 -0.04200000000000000261 0 0 -1 -1 0 0 0 I I I I #
loop $-1 $-1 $35 $8 #
coedge $-1 $24 $24 $36 $37 0 $14 $-1 #
coedge $-1 $25 $25 $35 $38 1 $16 $-1 #
coedge $-1 $26 $26 $18 $27 0 $39 $-1 #
edge $-1 $40 $40 $26 $41 0 #
vertex $-1 $19 $42 #
ellipse-curve $-1 0 0 0.153999999999999998 0 0 -1 0.3125 0 0 1 I I #
face $-1 $-1 $43 $3 $-1 $44 reversed single #
loop $-1 $45 $46 $20 #
cone-surface $-1 0 0 0 0 0 -1 -0.3449999999999999734 0 0 1 I I 0 1 0 I I I I #
loop $-1 $-1 $47 $13 #
coedge $-1 $34 $34 $46 $48 1 $21 $-1 #
coedge $-1 $35 $35 $25 $38 0 $23 $-1 #
coedge $-1 $36 $36 $24 $37 1 $45 $-1 #
edge $-1 $49 $49 $36 $50 0 #
edge $-1 $51 $51 $35 $52 0 #
loop $-1 $-1 $26 $30 #
vertex $-1 $27 $53 #
ellipse-curve $-1 0 0 0.153999999999999998 0 0 1 -0.125 0 0 1 I I #
point $-1 0.3125 0 0.153999999999999998 #
loop $-1 $39 $54 $30 #
cone-surface $-1 0 0 0.153999999999999998 0 0 -1 -0.125 0 0 1 I I 0 1 0 I I I I #
loop $-1 $-1 $36 $20 #
coedge $-1 $46 $46 $34 $48 0 $31 $-1 #
coedge $-1 $47 $47 $54 $55 0 $33 $-1 #
edge $-1 $56 $56 $46 $57 0 #
vertex $-1 $37 $58 #
ellipse-curve $-1 0 0 0 0 0 1 0.3449999999999999734 0 0 1 I I #
vertex $-1 $38 $59 #
ellipse-curve $-1 0 0 0 0 0 -1 -0.3125 0 0 1 I I #
point $-1 -0.125 0 0.153999999999999998 #
coedge $-1 $54 $54 $47 $55 1 $43 $-1 #
edge $-1 $60 $60 $54 $61 0 #
vertex $-1 $48 $62 #
ellipse-curve $-1 0 0 -0.04200000000000000261 0 0 1 -0.3449999999999999734 0 0 1 I I #
point $-1 -0.3449999999999999734 0 0 #
point $-1 0.3125 0 0 #
vertex $-1 $55 $63 #
ellipse-curve $-1 0 0 -0.04200000000000000261 0 0 1 0.125 0 0 1 I I #
point $-1 -0.3449999999999999734 0 -0.04200000000000000261 #
point $-1 -0.125 0 -0.04200000000000000261 #
End-of-ACIS-data 