600 0 1 0           
118 GICL ACIS Healer - Source: /gicl/data5/repository/NIST/Manfred_Osti/spectrometer/bearing_209/bearing_209.prt.sat - 6 0 18 ACIS 6.0.3 Solaris 24 Sun Apr 14 00:38:14 2002 
1 9.999999999999999547e-07 1.000000000000000036e-10 
body $-1 $1 $-1 $-1 #
lump $-1 $-1 $2 $0 #
shell $-1 $-1 $-1 $3 $-1 $1 #
face $-1 $4 $5 $2 $-1 $6 forward single #
face $-1 $7 $8 $2 $-1 $9 forward single #
loop $-1 $10 $11 $3 #
plane-surface $-1 0 0 3.911599999999999522 0 0 1 25.39999999999999858 0 0 forward_v I I I I #
face $-1 $12 $13 $2 $-1 $14 forward single #
loop $-1 $-1 $15 $4 #
cone-surface $-1 0 0 0 0 0 1 7.9375 0 0 1 I I 0 1 7.9375 forward I I I I #
loop $-1 $-1 $16 $3 #
coedge $-1 $17 $17 $18 $19 forward $5 $-1 #
face $-1 $20 $21 $2 $-1 $22 reversed single #
loop $-1 $-1 $23 $7 #
cone-surface $-1 0 0 0 0 0 1 7.9375 0 0 1 I I 0 1 7.9375 forward I I I I #
coedge $-1 $18 $24 $25 $26 forward $8 $-1 #
coedge $-1 $27 $27 $28 $29 forward $10 $-1 #
coedge $-1 $11 $11 $30 $31 forward $5 $-1 #
coedge $-1 $32 $15 $11 $19 reversed $8 $-1 #
edge $-1 $33 0 $34 3.141592653589793116 $11 $35 forward 7 unknown #
face $-1 $36 $37 $2 $-1 $38 forward single #
loop $-1 $39 $40 $12 #
plane-surface $-1 0 0 0 0 0 -1 -25.39999999999999858 0 0 forward_v I I I I #
coedge $-1 $30 $41 $32 $42 forward $13 $-1 #
coedge $-1 $15 $32 $43 $44 forward $8 $-1 #
coedge $-1 $41 $30 $15 $26 reversed $13 $-1 #
edge $-1 $45 0 $34 0.153999999999999998 $25 $46 forward 7 unknown #
coedge $-1 $16 $16 $47 $48 forward $10 $-1 #
coedge $-1 $49 $50 $16 $29 reversed $51 $-1 #
edge $-1 $52 0 $53 3.141592653589793116 $16 $54 forward 7 unknown #
coedge $-1 $25 $23 $17 $31 reversed $13 $-1 #
edge $-1 $34 0 $33 3.141592653589793116 $17 $55 forward 7 unknown #
coedge $-1 $24 $18 $23 $42 reversed $8 $-1 #
vertex $-1 $31 $56 #
vertex $-1 $31 $57 #
ellipse-curve $-1 0 0 3.911599999999999522 0 0 1 -7.9375 0 0 1 I I #
face $-1 $58 $59 $2 $-1 $60 forward single #
loop $-1 $-1 $61 $20 #
cone-surface $-1 0 0 0 0 0 -1 -8.762999999999998124 0 0 1 I I 0 1 8.762999999999998124 forward I I I I #
loop $-1 $-1 $43 $12 #
coedge $-1 $62 $62 $63 $64 reversed $21 $-1 #
coedge $-1 $23 $25 $65 $66 forward $13 $-1 #
edge $-1 $67 0 $33 0.153999999999999998 $23 $68 forward 7 unknown #
coedge $-1 $65 $65 $24 $44 reversed $39 $-1 #
edge $-1 $67 0 $45 3.141592653589793116 $24 $69 forward 7 unknown #
vertex $-1 $66 $70 #
straight-curve $-1 7.9375 0 0 0 0 25.39999999999999858 I I #
coedge $-1 $71 $72 $27 $48 reversed $73 $-1 #
edge $-1 $53 0 $52 3.141592653589793116 $27 $74 forward 7 unknown #
coedge $-1 $75 $28 $72 $76 forward $51 $-1 #
coedge $-1 $28 $75 $71 $77 reversed $51 $-1 #
loop $-1 $-1 $49 $78 #
vertex $-1 $48 $79 #
vertex $-1 $48 $80 #
ellipse-curve $-1 0 0 3.911599999999999522 0 0 -1 3.174999999999999822 0 0 1 I I #
ellipse-curve $-1 0 0 3.911599999999999522 0 0 1 7.9375 0 0 1 I I #
point $-1 -7.9375 0 3.911599999999999522 #
point $-1 7.9375 0 3.911599999999999522 #
face $-1 $78 $81 $2 $-1 $82 forward single #
loop $-1 $-1 $83 $36 #
cone-surface $-1 0 0 0 0 0 -1 -8.762999999999998124 0 0 1 I I 0 1 8.762999999999998124 forward I I I I #
coedge $-1 $84 $63 $85 $86 forward $37 $-1 #
coedge $-1 $40 $40 $87 $88 reversed $21 $-1 #
coedge $-1 $61 $89 $40 $64 forward $37 $-1 #
edge $-1 $90 0 $91 3.141592653589793116 $40 $92 forward 7 unknown #
coedge $-1 $43 $43 $41 $66 reversed $39 $-1 #
edge $-1 $45 0 $67 3.141592653589793116 $41 $93 forward 7 unknown #
vertex $-1 $66 $94 #
straight-curve $-1 -7.9375 9.720312933465119487e-16 0 0 0 25.39999999999999858 I I #
ellipse-curve $-1 0 0 0 0 0 1 -7.9375 0 0 1 I I #
point $-1 7.9375 0 0 #
coedge $-1 $95 $47 $50 $77 forward $73 $-1 #
coedge $-1 $47 $95 $49 $76 reversed $73 $-1 #
loop $-1 $-1 $71 $96 #
ellipse-curve $-1 0 0 3.911599999999999522 0 0 -1 -3.174999999999999822 0 0 1 I I #
coedge $-1 $50 $49 $97 $98 forward $51 $-1 #
edge $-1 $52 0 $99 0.1960000000000000075 $72 $100 forward 7 unknown #
edge $-1 $53 0 $101 0.1960000000000000075 $71 $102 forward 7 unknown #
face $-1 $96 $51 $2 $-1 $103 reversed single #
point $-1 3.174999999999999822 0 3.911599999999999522 #
point $-1 -3.174999999999999822 0 3.911599999999999522 #
loop $-1 $104 $105 $58 #
plane-surface $-1 0 0 -1.066799999999999971 0 0 -1 -25.39999999999999858 0 0 forward_v I I I I #
coedge $-1 $106 $87 $89 $107 forward $59 $-1 #
coedge $-1 $89 $61 $105 $108 reversed $37 $-1 #
coedge $-1 $87 $106 $61 $86 reversed $59 $-1 #
edge $-1 $91 0 $109 0.04200000000000000261 $85 $110 forward 7 unknown #
coedge $-1 $83 $85 $62 $88 forward $59 $-1 #
edge $-1 $91 0 $90 3.141592653589793116 $62 $111 forward 7 unknown #
coedge $-1 $63 $84 $83 $107 reversed $37 $-1 #
vertex $-1 $88 $112 #
vertex $-1 $88 $113 #
ellipse-curve $-1 0 0 0 0 0 -1 8.762999999999998124 0 0 1 I I #
ellipse-curve $-1 0 0 0 0 0 1 7.9375 0 0 1 I I #
point $-1 -7.9375 0 0 #
coedge $-1 $72 $71 $114 $115 forward $73 $-1 #
face $-1 $-1 $73 $2 $-1 $116 reversed single #
coedge $-1 $114 $114 $75 $98 reversed $104 $-1 #
edge $-1 $99 0 $101 3.141592653589793116 $97 $117 forward 7 unknown #
vertex $-1 $115 $118 #
straight-curve $-1 3.174999999999999822 3.888125173386047696e-16 3.911599999999999522 0 0 -25.39999999999999858 I I #
vertex $-1 $115 $119 #
straight-curve $-1 -3.174999999999999822 0 3.911599999999999522 0 0 -25.39999999999999858 I I #
cone-surface $-1 0 0 3.911599999999999522 0 0 -1 -3.174999999999999822 0 0 1 I I 0 1 3.174999999999999822 forward I I I I #
loop $-1 $-1 $97 $58 #
coedge $-1 $120 $120 $84 $108 forward $81 $-1 #
coedge $-1 $85 $83 $120 $121 reversed $59 $-1 #
edge $-1 $90 0 $122 0.04200000000000000261 $83 $123 forward 7 unknown #
edge $-1 $122 0 $109 3.141592653589793116 $105 $124 forward 7 unknown #
vertex $-1 $121 $125 #
straight-curve $-1 -8.762999999999998124 0 0 0 0 -25.39999999999999858 I I #
ellipse-curve $-1 0 0 0 0 0 -1 -8.762999999999998124 0 0 1 I I #
point $-1 8.762999999999998124 0 0 #
point $-1 -8.762999999999998124 0 0 #
coedge $-1 $97 $97 $95 $115 reversed $104 $-1 #
edge $-1 $101 0 $99 3.141592653589793116 $114 $126 forward 7 unknown #
cone-surface $-1 0 0 3.911599999999999522 0 0 -1 -3.174999999999999822 0 0 1 I I 0 1 3.174999999999999822 forward I I I I #
ellipse-curve $-1 0 0 -1.066799999999999971 0 0 -1 3.174999999999999822 0 0 1 I I #
point $-1 3.174999999999999822 0 -1.066799999999999971 #
point $-1 -3.174999999999999822 0 -1.066799999999999971 #
coedge $-1 $105 $105 $106 $121 forward $81 $-1 #
edge $-1 $109 0 $122 3.141592653589793116 $120 $127 forward 7 unknown #
vertex $-1 $121 $128 #
straight-curve $-1 8.762999999999998124 1.073122547854548906e-15 0 0 0 -25.39999999999999858 I I #
ellipse-curve $-1 -3.524958103184871819e-16 -7.049916206369743637e-16 -1.066799999999999971 0 0 -1 8.762999999999998124 7.049916206369743637e-16 0 1 I I #
point $-1 -8.762999999999998124 0 -1.066799999999999971 #
ellipse-curve $-1 0 0 -1.066799999999999971 0 0 -1 -3.174999999999999822 0 0 1 I I #
ellipse-curve $-1 0 3.524958103184871819e-16 -1.066799999999999971 0 0 -1 -8.762999999999998124 -3.524958103184871819e-16 0 1 I I #
point $-1 8.762999999999998124 0 -1.066799999999999971 #
End-of-ACIS-data 