600 0 1 0           
114 GICL ACIS Healer - Source: /gicl/data5/repository/NIST/Manfred_Osti/spectrometer/bearing_209/bearing_209.sat - 6 0 18 ACIS 6.0.3 Solaris 24 Sun Apr 14 00:38:13 2002 
1 9.999999999999999547e-07 1.000000000000000036e-10 
body $-1 $1 $-1 $2 #
lump $-1 $-1 $3 $0 #
transform $-1 1 0 0 0 1 0 0 0 1 0 0 0 1 no_rotate no_reflect no_shear #
shell $-1 $-1 $-1 $4 $-1 $1 #
face $-1 $5 $6 $3 $-1 $7 forward single #
face $-1 $8 $9 $3 $-1 $10 forward single #
loop $-1 $11 $12 $4 #
plane-surface $-1 0 0 0.153999999999999998 0 0 1 1 0 0 forward_v I I I I #
face $-1 $13 $14 $3 $-1 $15 reversed single #
loop $-1 $16 $17 $5 #
cone-surface $-1 0 0 0 0 0 1 0.3125 0 0 1 I I 0 1 0.3125 forward I I I I #
loop $-1 $-1 $18 $4 #
coedge $-1 $12 $12 $17 $19 reversed $6 $-1 #
face $-1 $20 $21 $3 $-1 $22 forward single #
loop $-1 $23 $24 $8 #
plane-surface $-1 0 0 0 0 0 -1 -1 0 0 forward_v I I I I #
loop $-1 $-1 $25 $5 #
coedge $-1 $17 $17 $12 $19 forward $9 $-1 #
coedge $-1 $18 $18 $26 $27 reversed $11 $-1 #
edge $-1 $28 0 $28 6.283185307179586232 $17 $29 forward 7 unknown #
face $-1 $30 $31 $3 $-1 $32 forward single #
loop $-1 $33 $34 $13 #
plane-surface $-1 0 0 -0.04200000000000000261 0 0 -1 -1 0 0 forward_v I I I I #
loop $-1 $-1 $35 $8 #
coedge $-1 $24 $24 $36 $37 forward $14 $-1 #
coedge $-1 $25 $25 $35 $38 reversed $16 $-1 #
coedge $-1 $26 $26 $18 $27 forward $39 $-1 #
edge $-1 $40 0 $40 6.283185307179586232 $26 $41 forward 7 unknown #
vertex $-1 $19 $42 #
ellipse-curve $-1 0 0 0.153999999999999998 0 0 -1 0.3125 0 0 1 I I #
face $-1 $-1 $43 $3 $-1 $44 reversed single #
loop $-1 $45 $46 $20 #
cone-surface $-1 0 0 0 0 0 -1 -0.3449999999999999734 0 0 1 I I 0 1 0.3449999999999999734 forward I I I I #
loop $-1 $-1 $47 $13 #
coedge $-1 $34 $34 $46 $48 reversed $21 $-1 #
coedge $-1 $35 $35 $25 $38 forward $23 $-1 #
coedge $-1 $36 $36 $24 $37 reversed $45 $-1 #
edge $-1 $49 -3.141592653589793116 $49 3.141592653589793116 $36 $50 forward 7 unknown #
edge $-1 $51 -3.141592653589793116 $51 3.141592653589793116 $35 $52 forward 7 unknown #
loop $-1 $-1 $26 $30 #
vertex $-1 $27 $53 #
ellipse-curve $-1 0 0 0.153999999999999998 0 0 1 -0.125 0 0 1 I I #
point $-1 0.3125 0 0.153999999999999998 #
loop $-1 $39 $54 $30 #
cone-surface $-1 0 0 0.153999999999999998 0 0 -1 -0.125 0 0 1 I I 0 1 0.125 forward I I I I #
loop $-1 $-1 $36 $20 #
coedge $-1 $46 $46 $34 $48 forward $31 $-1 #
coedge $-1 $47 $47 $54 $55 forward $33 $-1 #
edge $-1 $56 0 $56 6.283185307179586232 $46 $57 forward 7 unknown #
vertex $-1 $37 $58 #
ellipse-curve $-1 0 0 0 0 0 1 0.3449999999999999734 0 0 1 I I #
vertex $-1 $38 $59 #
ellipse-curve $-1 0 0 0 0 0 -1 -0.3125 0 0 1 I I #
point $-1 -0.125 0 0.153999999999999998 #
coedge $-1 $54 $54 $47 $55 reversed $43 $-1 #
edge $-1 $60 -3.141592653589793116 $60 3.141592653589793116 $54 $61 forward 7 unknown #
vertex $-1 $48 $62 #
ellipse-curve $-1 0 0 -0.04200000000000000261 0 0 1 -0.3449999999999999734 0 0 1 I I #
point $-1 -0.3449999999999999734 0 0 #
point $-1 0.3125 0 0 #
vertex $-1 $55 $63 #
ellipse-curve $-1 0 0 -0.04200000000000000261 0 0 1 0.125 0 0 1 I I #
point $-1 -0.3449999999999999734 0 -0.04200000000000000261 #
point $-1 -0.125 0 -0.04200000000000000261 #
End-of-ACIS-data 