600 0 1 0           
95 GICL Pro/E ACIS Translator - Source: f:/data5/repository/PTC/V18/fly_big18/oil_plug.prt.2 - 6 0 13 ACIS 6.0.3 NT 24 Thu Apr 04 13:36:40 2002 
1 9.9999999999999995e-007 1e-010 
body $-1 $1 $-1 $-1 #
lump $-1 $-1 $2 $0 #
shell $-1 $-1 $-1 $3 $-1 $1 #
face $-1 $4 $5 $2 $-1 $6 reversed single #
face $-1 $7 $8 $2 $-1 $9 forward single #
loop $-1 $-1 $10 $3 #
plane-surface $-1 0 -15 0 0 1 0 1 0 0 forward_v I I I I #
face $-1 $11 $12 $2 $-1 $13 forward single #
loop $-1 $-1 $14 $4 #
cone-surface $-1 0 -20.940000000000001 0 0 -1 0 0.99999999999999989 0 0 1 I I -0.70710678118654746 0.70710678118654757 0.99999999999999989 forward I I I I #
coedge $-1 $15 $15 $16 $17 reversed $5 $-1 #
face $-1 $18 $19 $2 $-1 $20 forward single #
loop $-1 $-1 $21 $7 #
cone-surface $-1 0 -20.940000000000001 0 0 -1 0 0.99999999999999989 0 0 1 I I -0.70710678118654746 0.70710678118654757 0.99999999999999989 forward I I I I #
coedge $-1 $16 $22 $23 $24 forward $8 $-1 #
coedge $-1 $10 $10 $25 $26 forward $5 $-1 #
coedge $-1 $27 $14 $10 $17 forward $8 $-1 #
edge $-1 $28 0 $29 3.1415926535897944 $10 $30 forward 7 unknown #
face $-1 $31 $32 $2 $-1 $33 reversed single #
loop $-1 $-1 $34 $11 #
cone-surface $-1 0 -15.75 0 0 1 0 7.9400000000000004 0 0 1 I I 0 1 7.9400000000000004 forward I I I I #
coedge $-1 $25 $35 $27 $36 forward $12 $-1 #
coedge $-1 $14 $27 $37 $38 reversed $8 $-1 #
coedge $-1 $35 $25 $14 $24 reversed $12 $-1 #
edge $-1 $39 -6.2803698347351017e-016 $28 1.4142135623730954 $23 $40 forward 7 unknown #
coedge $-1 $23 $21 $15 $26 reversed $12 $-1 #
edge $-1 $28 0 $29 3.1415926535897918 $15 $41 forward 7 unknown #
coedge $-1 $22 $16 $21 $36 reversed $8 $-1 #
vertex $-1 $26 $42 #
vertex $-1 $26 $43 #
ellipse-curve $-1 4.4408920985006262e-016 -15 2.2204460492503131e-016 0 1 0 6.9399999999999995 0 -2.2204460492503131e-016 1 I I #
face $-1 $44 $45 $2 $-1 $46 forward single #
loop $-1 $47 $48 $18 #
plane-surface $-1 0 -3 0 0 1 0 1 0 0 forward_v I I I I #
coedge $-1 $49 $50 $51 $52 forward $19 $-1 #
coedge $-1 $21 $23 $53 $54 forward $12 $-1 #
edge $-1 $55 2.3762889829260395e-029 $29 1.4142135623730954 $21 $56 forward 7 unknown #
coedge $-1 $57 $58 $22 $38 forward $59 $-1 #
edge $-1 $39 -6.2564709599468601e-033 $55 3.1415926535897944 $37 $60 forward 7 unknown #
vertex $-1 $61 $62 #
straight-curve $-1 7.9399999999999995 -14 0 -0.70710678118654746 -0.70710678118654746 0 I I #
ellipse-curve $-1 4.4408920985006262e-016 -15 -2.2204460492503131e-016 0 -1 0 6.9399999999999995 0 2.2204460492503131e-016 1 I I #
point $-1 6.9399999999999995 -15 0 #
point $-1 -6.9399999999999995 -15 1.0095814158631032e-014 #
face $-1 $63 $64 $2 $-1 $65 forward single #
loop $-1 $-1 $66 $31 #
cone-surface $-1 0 -15.75 0 0 1 0 12.5 0 0 1 I I 0 1 12.5 forward I I I I #
loop $-1 $-1 $67 $18 #
coedge $-1 $68 $68 $69 $70 forward $32 $-1 #
coedge $-1 $53 $34 $57 $71 reversed $19 $-1 #
coedge $-1 $34 $53 $58 $61 forward $19 $-1 #
coedge $-1 $67 $67 $34 $52 reversed $47 $-1 #
edge $-1 $72 0 $73 3.1415926535897931 $51 $74 forward 7 unknown #
coedge $-1 $50 $49 $35 $54 reversed $19 $-1 #
edge $-1 $39 -6.2564709599468601e-033 $55 3.1415926535897918 $53 $75 forward 7 unknown #
vertex $-1 $71 $76 #
straight-curve $-1 -7.9399999999999995 -14 -1.1550542423563459e-014 0.70710678118654746 -0.70710678118654746 1.0286482209174596e-015 I I #
coedge $-1 $77 $37 $49 $71 forward $59 $-1 #
coedge $-1 $37 $77 $50 $61 reversed $59 $-1 #
loop $-1 $-1 $37 $78 #
ellipse-curve $-1 -4.4408920985006262e-016 -14 2.2204460492503131e-016 0 1 0 7.9399999999999995 0 -2.2204460492503131e-016 1 I I #
edge $-1 $39 0 $72 11 $58 $79 forward 7 unknown #
point $-1 7.9400000000000004 -14 0 #
face $-1 $80 $81 $2 $-1 $82 forward single #
loop $-1 $83 $84 $44 #
plane-surface $-1 0 0 0 0 1 0 1 0 0 forward_v I I I I #
coedge $-1 $85 $86 $87 $88 forward $45 $-1 #
coedge $-1 $51 $51 $77 $89 forward $47 $-1 #
coedge $-1 $48 $48 $90 $91 reversed $32 $-1 #
coedge $-1 $86 $85 $48 $70 reversed $45 $-1 #
edge $-1 $92 0 $93 3.1415926535897931 $48 $94 forward 7 unknown #
edge $-1 $55 0 $73 11 $57 $95 forward 7 unknown #
vertex $-1 $61 $96 #
vertex $-1 $89 $97 #
ellipse-curve $-1 0 -3 -4.4408920985006262e-016 0 -1 0 7.9400000000000004 0 4.4408920985006262e-016 1 I I #
ellipse-curve $-1 -4.4408920985006262e-016 -14 -2.2204460492503131e-016 0 -1 0 7.9399999999999995 0 2.2204460492503131e-016 1 I I #
point $-1 -7.9399999999999995 -14 1.1550542423563459e-014 #
coedge $-1 $58 $57 $67 $89 reversed $59 $-1 #
face $-1 $-1 $59 $2 $-1 $98 forward single #
straight-curve $-1 7.9400000000000004 -14 0 0 1 0 I I #
face $-1 $99 $100 $2 $-1 $101 forward single #
loop $-1 $-1 $90 $63 #
cone-surface $-1 0 -15.75 0 0 1 0 12.5 0 0 1 I I 0 1 12.5 forward I I I I #
loop $-1 $-1 $102 $44 #
coedge $-1 $87 $87 $103 $104 forward $64 $-1 #
coedge $-1 $69 $66 $105 $106 reversed $45 $-1 #
coedge $-1 $66 $69 $107 $108 forward $45 $-1 #
coedge $-1 $84 $84 $66 $88 reversed $64 $-1 #
edge $-1 $109 0 $110 3.1415926535897931 $87 $111 forward 7 unknown #
edge $-1 $72 0 $73 3.1415926535897931 $77 $112 forward 7 unknown #
coedge $-1 $105 $107 $68 $91 forward $81 $-1 #
edge $-1 $92 0 $93 3.1415926535897931 $68 $113 forward 7 unknown #
vertex $-1 $91 $114 #
vertex $-1 $91 $115 #
ellipse-curve $-1 0 -3 4.4408920985006262e-016 0 -1 0 12.5 0 -4.4408920985006262e-016 1 I I #
straight-curve $-1 -7.9400000000000004 -14 9.723374449349675e-016 0 1 0 I I #
point $-1 7.9400000000000004 -3 0 #
point $-1 -7.9400000000000004 -3 0 #
cone-surface $-1 0 -15.75 0 0 1 0 7.9400000000000004 0 0 1 I I 0 1 7.9400000000000004 forward I I I I #
face $-1 $116 $117 $2 $-1 $118 forward single #
loop $-1 $-1 $119 $80 #
plane-surface $-1 4.5827177616926491 0 -7.9375 0 0 -1 -1 0 0 forward_v I I I I #
coedge $-1 $120 $121 $122 $123 reversed $83 $-1 #
coedge $-1 $107 $105 $84 $104 reversed $81 $-1 #
edge $-1 $109 0 $110 3.1415926535897931 $103 $124 forward 7 unknown #
coedge $-1 $103 $90 $85 $106 forward $81 $-1 #
edge $-1 $93 0 $110 3 $105 $125 forward 7 unknown #
coedge $-1 $90 $103 $86 $108 reversed $81 $-1 #
edge $-1 $92 0 $109 3 $107 $126 forward 7 unknown #
vertex $-1 $108 $127 #
vertex $-1 $104 $128 #
ellipse-curve $-1 0 0 0 0 -1 0 12.5 0 0 1 I I #
ellipse-curve $-1 0 -3 4.4408920985006262e-016 0 1 0 7.9400000000000004 0 -4.4408920985006262e-016 1 I I #
ellipse-curve $-1 0 -3 -4.4408920985006262e-016 0 1 0 12.5 0 4.4408920985006262e-016 1 I I #
point $-1 12.5 -3 0 #
point $-1 -12.5 -3 -1.5307579422779716e-015 #
face $-1 $129 $130 $2 $-1 $131 forward single #
loop $-1 $-1 $132 $99 #
plane-surface $-1 9.1654355233853106 0 0 0.86602540378443871 0 -0.50000000000000011 -0.5 0 -0.86602540378443849 forward_v I I I I #
coedge $-1 $122 $133 $134 $135 reversed $100 $-1 #
coedge $-1 $136 $102 $137 $138 reversed $83 $-1 #
coedge $-1 $102 $139 $140 $141 reversed $83 $-1 #
coedge $-1 $142 $119 $102 $123 forward $100 $-1 #
edge $-1 $143 0 $144 9.1654355233853089 $102 $145 forward 7 unknown #
ellipse-curve $-1 0 0 0 0 1 0 12.5 0 0 1 I I #
straight-curve $-1 -12.5 -3 1.5307579422779716e-015 0 1 0 I I #
straight-curve $-1 12.5 -3 0 0 1 0 I I #
point $-1 12.5 0 0 #
point $-1 -12.5 0 0 #
face $-1 $146 $147 $2 $-1 $148 forward single #
loop $-1 $-1 $149 $116 #
plane-surface $-1 4.5827177616926598 0 7.9375 0.86602540378443871 0 0.49999999999999989 0.5 0 -0.86602540378443893 forward_v I I I I #
coedge $-1 $137 $150 $151 $152 reversed $117 $-1 #
coedge $-1 $119 $153 $154 $155 reversed $100 $-1 #
coedge $-1 $156 $137 $119 $135 forward $117 $-1 #
edge $-1 $143 -2.3084452796376331e-031 $157 6.8345644766146902 $134 $158 forward 7 unknown #
coedge $-1 $159 $120 $160 $161 reversed $83 $-1 #
coedge $-1 $134 $132 $120 $138 forward $117 $-1 #
edge $-1 $162 0 $143 9.1654355233853124 $120 $163 forward 7 unknown #
coedge $-1 $121 $159 $164 $165 reversed $83 $-1 #
coedge $-1 $166 $167 $121 $141 forward $168 $-1 #
edge $-1 $144 0 $169 9.1654355233853071 $121 $170 forward 7 unknown #
coedge $-1 $171 $122 $167 $172 forward $100 $-1 #
vertex $-1 $138 $173 #
vertex $-1 $141 $174 #
straight-curve $-1 4.58271776169265 0 -7.9375 -1 0 0 I I #
face $-1 $175 $176 $2 $-1 $177 forward single #
loop $-1 $-1 $178 $129 #
plane-surface $-1 -4.5827177616926509 0 7.9375 0 0 1 1 0 0 forward_v I I I I #
coedge $-1 $160 $179 $180 $181 reversed $130 $-1 #
coedge $-1 $132 $182 $183 $184 reversed $117 $-1 #
coedge $-1 $185 $160 $132 $152 forward $130 $-1 #
edge $-1 $162 0 $186 6.8345644766146894 $151 $187 forward 7 unknown #
coedge $-1 $133 $171 $188 $189 reversed $100 $-1 #
coedge $-1 $190 $191 $133 $155 forward $192 $-1 #
edge $-1 $157 0 $193 1.0000000000000002 $133 $194 forward 7 unknown #
coedge $-1 $182 $134 $191 $195 reversed $117 $-1 #
vertex $-1 $195 $196 #
straight-curve $-1 4.5827177616926535 0 -7.9375000000000027 -1.2995391626476534e-016 1 -2.5990783252953068e-016 I I #
coedge $-1 $139 $136 $197 $198 reversed $83 $-1 #
coedge $-1 $151 $149 $136 $161 forward $130 $-1 #
edge $-1 $199 0 $162 9.1654355233853071 $136 $200 forward 7 unknown #
vertex $-1 $161 $201 #
straight-curve $-1 9.1654355233853106 0 0 -0.50000000000000011 0 -0.8660254037844386 I I #
coedge $-1 $202 $203 $139 $165 forward $176 $-1 #
edge $-1 $169 0 $204 9.1654355233853124 $139 $205 forward 7 unknown #
coedge $-1 $206 $140 $203 $207 forward $168 $-1 #
coedge $-1 $140 $208 $142 $172 reversed $168 $-1 #
loop $-1 $-1 $167 $175 #
vertex $-1 $141 $209 #
straight-curve $-1 -4.5827177616926598 0 -7.9375 -0.49999999999999989 0 0.86602540378443871 I I #
coedge $-1 $153 $142 $210 $211 reversed $100 $-1 #
edge $-1 $144 0 $212 6.8345644766146858 $167 $213 forward 7 unknown #
point $-1 4.58271776169265 0 -7.9375 #
point $-1 -4.5827177616926598 0 -7.9375 #
face $-1 $214 $168 $2 $-1 $215 forward single #
loop $-1 $-1 $203 $146 #
plane-surface $-1 -9.1654355233853106 0 0 -0.86602540378443871 0 0.50000000000000011 0.5 0 0.86602540378443849 forward_v I I I I #
coedge $-1 $197 $216 $202 $217 reversed $147 $-1 #
coedge $-1 $149 $218 $219 $220 reversed $130 $-1 #
coedge $-1 $221 $197 $149 $181 forward $147 $-1 #
edge $-1 $199 0 $222 6.8345644766146822 $180 $223 forward 7 unknown #
coedge $-1 $150 $156 $224 $225 reversed $117 $-1 #
coedge $-1 $226 $227 $150 $184 forward $228 $-1 #
edge $-1 $186 0 $229 1.0000000000000002 $150 $230 forward 7 unknown #
coedge $-1 $218 $151 $227 $231 reversed $130 $-1 #
vertex $-1 $231 $232 #
straight-curve $-1 9.1654355233853124 0 8.8817841970012523e-016 0 1 0 I I #
coedge $-1 $233 $234 $153 $189 forward $235 $-1 #
edge $-1 $193 3.1086244689504383e-015 $236 1.9960899278338666 $188 $237 forward 7 unknown #
coedge $-1 $191 $154 $234 $238 reversed $192 $-1 #
coedge $-1 $154 $190 $156 $195 forward $192 $-1 #
loop $-1 $-1 $190 $239 #
vertex $-1 $189 $240 #
intcurve-curve $-1 forward { surfintcur full nurbs 3 open 5 
	0 3 0.25561953355309236 1 0.50646186348095457 1 0.75417970502553699 1 1.0000000000000002 3 
	4.5827177616926491 6.8345644766146902 -7.9375 1 
	4.2573855244661223 6.9974195073307222 -7.9375000000000018 1 
	3.6244341331206109 7.2876772257202393 -7.9374999999999964 1.0000000000000002 
	2.7236309028511818 7.6219950814206774 -7.9375000000000027 1 
	1.8533398616381289 7.8635578558489332 -7.9374999999999964 1 
	1.2811913766379455 7.9643889307063445 -7.9375000000000009 1 
	0.99804496391693265 8 -7.9375 1 
	0.001 
	cone 0 15 -1.7763568394002505e-015 0 1 0 0.49999999999999994 0 0.86602540378443837 1 I I -0.70710678118654746 0.70710678118654757 0.99999999999999978 forward I I I I 
	plane 4.5827177616926491 0 -7.9375 0 0 -1 -1 0 0 forward_v I I I I 
	nullbs 
	nullbs 
	I I 
	0 
	0 
	0 
	} I I #
edge $-1 $241 0 $157 0.99999999999999989 $156 $242 forward 7 unknown #
point $-1 4.5827177616926491 6.8345644766146902 -7.9375 #
coedge $-1 $180 $178 $159 $198 forward $147 $-1 #
edge $-1 $204 0 $199 9.1654355233853106 $159 $243 forward 7 unknown #
vertex $-1 $198 $244 #
straight-curve $-1 4.5827177616926598 0 7.9375 0.49999999999999989 0 -0.86602540378443871 I I #
point $-1 9.1654355233853106 0 0 #
coedge $-1 $245 $164 $178 $217 forward $176 $-1 #
coedge $-1 $164 $246 $166 $207 reversed $176 $-1 #
vertex $-1 $165 $247 #
straight-curve $-1 -9.1654355233853106 0 0 0.50000000000000011 0 0.8660254037844386 I I #
coedge $-1 $248 $166 $249 $250 reversed $168 $-1 #
edge $-1 $169 0 $251 6.8345644766146911 $166 $252 forward 7 unknown #
coedge $-1 $167 $248 $253 $254 reversed $168 $-1 #
point $-1 -9.1654355233853106 0 0 #
coedge $-1 $253 $255 $171 $211 forward $256 $-1 #
edge $-1 $236 0 $212 0.99999999999999989 $171 $257 forward 7 unknown #
vertex $-1 $254 $258 #
straight-curve $-1 -4.5827177616926598 0 -7.9375 0 1 0 I I #
face $-1 $259 $260 $2 $-1 $261 forward single #
plane-surface $-1 -4.5827177616926598 0 -7.9375 -0.86602540378443871 0 -0.49999999999999989 -0.5 0 0.86602540378443893 forward_v I I I I #
coedge $-1 $178 $262 $263 $264 reversed $147 $-1 #
edge $-1 $204 0 $265 6.8345644766146876 $202 $266 forward 7 unknown #
coedge $-1 $179 $185 $267 $268 reversed $130 $-1 #
coedge $-1 $269 $270 $179 $220 forward $271 $-1 #
edge $-1 $222 0 $272 1.0000000000000002 $179 $273 forward 7 unknown #
coedge $-1 $262 $180 $270 $274 reversed $147 $-1 #
vertex $-1 $274 $275 #
straight-curve $-1 4.5827177616926598 0 7.9375 0 1 0 I I #
coedge $-1 $234 $276 $182 $225 forward $235 $-1 #
edge $-1 $229 -4.3495112551905404e-015 $241 1.9960899278339195 $224 $277 forward 7 unknown #
coedge $-1 $227 $183 $276 $278 reversed $228 $-1 #
coedge $-1 $183 $226 $185 $231 forward $228 $-1 #
loop $-1 $-1 $226 $279 #
vertex $-1 $225 $280 #
intcurve-curve $-1 forward { surfintcur full nurbs 3 open 5 
	0 3 0.25561953355309258 1 0.50646186348095479 1 0.75417970502553699 1 1.0000000000000002 3 
	9.1654355233853106 6.8345644766146894 0 1 
	9.0027694047720477 6.9974195073307213 -0.2817459821081974 1 
	8.6862937090992904 7.2876772257202393 -0.82989796637411406 1 
	8.2358920939645817 7.6219950814206756 -1.6100164475985179 1.0000000000000002 
	7.8007465733580563 7.8635578558489332 -2.3637105979750306 0.99999999999999956 
	7.5146723308579659 7.9643889307063445 -2.859205720721965 1 
	7.3730991244974611 8 -3.1044177071287926 1 
	0.001 
	cone 0 15 -1.7763568394002505e-015 0 1 0 0.49999999999999994 0 0.86602540378443837 1 I I -0.70710678118654746 0.70710678118654757 0.99999999999999978 forward I I I I 
	plane 9.1654355233853106 0 0 0.86602540378443871 0 -0.50000000000000011 -0.5 0 -0.86602540378443849 forward_v I I I I 
	nullbs 
	nullbs 
	I I 
	0 
	0 
	0 
	} I I #
edge $-1 $281 0 $186 1.0000000000000002 $185 $282 forward 7 unknown #
point $-1 9.1654355233853106 6.8345644766146894 0 #
coedge $-1 $283 $188 $255 $284 forward $235 $-1 #
coedge $-1 $188 $224 $190 $238 forward $235 $-1 #
loop $-1 $-1 $267 $259 #
vertex $-1 $284 $285 #
straight-curve $-1 0.99804496391693576 8 -7.9375 -1 0 0 I I #
edge $-1 $241 0 $193 0.79703450401063547 $234 $286 forward 7 unknown #
face $-1 $287 $192 $2 $-1 $288 forward single #
point $-1 0.99804496391693265 8 -7.9375 #
vertex $-1 $238 $289 #
intcurve-curve $-1 forward { surfintcur full nurbs 3 open 5 
	0 3 0.24582901306107188 1 0.49354981568649192 1 0.74438855492720302 1 0.99999999999999989 3 
	6.3750541605804987 8 -4.8330822928712172 1 
	6.2334464870245023 7.9643769717000064 -5.0783539782118314 1 
	5.9473220817085357 7.8635243718883778 -5.5739359855045185 1 
	5.5121505409700564 7.6219219719738796 -6.32767520407159 1.0000000000000002 
	5.0617887531837944 7.287614197972144 -7.1077247023049503 1 
	4.745355615586913 6.9973924982481739 -7.6558029738211815 1 
	4.5827177616926527 6.8345644766146902 -7.9375000000000044 1 
	0.001 
	cone 0 15 -1.7763568394002505e-015 0 1 0 0.49999999999999994 0 0.86602540378443837 1 I I -0.70710678118654746 0.70710678118654757 0.99999999999999978 forward I I I I 
	plane 9.1654355233853106 0 0 0.86602540378443871 0 -0.50000000000000011 -0.5 0 -0.86602540378443849 forward_v I I I I 
	nullbs 
	nullbs 
	I I 
	0 
	0 
	0 
	} I I #
straight-curve $-1 -4.5827177616926509 0 7.9375 1 0 0 I I #
point $-1 4.5827177616926598 0 7.9375 #
coedge $-1 $290 $202 $291 $292 reversed $176 $-1 #
coedge $-1 $203 $290 $293 $294 reversed $176 $-1 #
point $-1 -4.5827177616926509 0 7.9375 #
coedge $-1 $208 $206 $283 $295 reversed $168 $-1 #
coedge $-1 $293 $296 $206 $250 forward $260 $-1 #
edge $-1 $297 0 $251 1.0000000000000002 $206 $298 forward 7 unknown #
vertex $-1 $250 $299 #
straight-curve $-1 -9.1654355233853124 0 -8.8817841970012523e-016 0 1 0 I I #
coedge $-1 $255 $210 $208 $254 forward $256 $-1 #
edge $-1 $212 0 $300 1.0000000000000002 $208 $301 forward 7 unknown #
coedge $-1 $210 $253 $233 $284 reversed $256 $-1 #
loop $-1 $-1 $210 $287 #
intcurve-curve $-1 forward { surfintcur full nurbs 3 open 5 
	0 3 0.2458290130610721 1 0.49354981568649192 1 0.74438855492720302 1 0.99999999999999989 3 
	-0.99804496391693043 8 -7.9375 1 
	-1.28126031102893 7.964376971700009 -7.9375000000000009 1 
	-1.8535091216608739 7.8635243718883787 -7.9374999999999991 1 
	-2.7238522031378327 7.6219219719738849 -7.9375 1 
	-3.6245757787103674 7.2876141979721423 -7.9375000000000009 1 
	-4.2574420539041373 6.9973924982481694 -7.9375 1 
	-4.5827177616926598 6.8345644766146858 -7.9375 1 
	0.001 
	cone 0 15 -1.7763568394002505e-015 0 1 0 0.49999999999999994 0 0.86602540378443837 1 I I -0.70710678118654746 0.70710678118654757 0.99999999999999978 forward I I I I 
	plane 4.5827177616926491 0 -7.9375 0 0 -1 -1 0 0 forward_v I I I I 
	nullbs 
	nullbs 
	I I 
	0 
	0 
	0 
	} I I #
point $-1 -4.5827177616926598 6.8345644766146858 -7.9375 #
face $-1 $279 $235 $2 $-1 $302 forward single #
loop $-1 $-1 $296 $214 #
cone-surface $-1 0 15 -1.7763568394002505e-015 0 1 0 0.49999999999999994 0 0.86602540378443837 1 I I -0.70710678118654746 0.70710678118654757 0.99999999999999978 forward I I I I #
coedge $-1 $216 $221 $303 $304 reversed $147 $-1 #
coedge $-1 $305 $291 $216 $264 forward $306 $-1 #
edge $-1 $265 0 $307 1.0000000000000002 $216 $308 forward 7 unknown #
vertex $-1 $292 $309 #
straight-curve $-1 -4.5827177616926535 0 7.9375000000000027 0 1 0 I I #
coedge $-1 $276 $310 $218 $268 forward $235 $-1 #
edge $-1 $272 -3.9649187179138281e-015 $281 1.9960899278338178 $267 $311 forward 7 unknown #
coedge $-1 $270 $219 $310 $312 reversed $271 $-1 #
coedge $-1 $219 $269 $221 $274 forward $271 $-1 #
loop $-1 $-1 $269 $313 #
vertex $-1 $312 $314 #
intcurve-curve $-1 forward { surfintcur full nurbs 3 open 5 
	0 3 0.25561953355309275 1 0.50646186348095479 1 0.75417970502553699 1 1.0000000000000002 3 
	4.5827177616926598 6.8345644766146822 7.9375 1 
	4.7453838803059263 6.9974195073307168 7.6557540178917964 1 
	5.0618595759786862 7.2876772257202393 7.1076020336258683 1 
	5.5122611911134047 7.6219950814206756 6.3274835524014552 1.0000000000000002 
	5.9474067117199318 7.863557855848935 5.5737894020249366 1 
	6.2334809542200285 7.9643889307063453 5.0782942792779933 0.99999999999999989 
	6.375054160580536 8 4.8330822928711594 1 
	0.001 
	cone 0 15 -1.7763568394002505e-015 0 1 0 0.49999999999999994 0 0.86602540378443837 1 I I -0.70710678118654746 0.70710678118654757 0.99999999999999978 forward I I I I 
	plane 4.5827177616926598 0 7.9375 0.86602540378443871 0 0.49999999999999989 0.5 0 -0.86602540378443893 forward_v I I I I 
	nullbs 
	nullbs 
	I I 
	0 
	0 
	0 
	} I I #
edge $-1 $315 0 $222 1.0000000000000002 $221 $316 forward 7 unknown #
point $-1 4.5827177616926598 6.8345644766146822 7.9375 #
coedge $-1 $224 $267 $226 $278 forward $235 $-1 #
straight-curve $-1 7.3730991244974593 8 -3.1044177071287966 -0.50000000000000033 0 -0.86602540378443849 I I #
edge $-1 $281 0 $229 0.79703450401063514 $276 $317 forward 7 unknown #
face $-1 $239 $228 $2 $-1 $318 forward single #
point $-1 7.3730991244974611 8 -3.1044177071287926 #
vertex $-1 $278 $319 #
intcurve-curve $-1 forward { surfintcur full nurbs 3 open 5 
	0 3 0.24582901306107197 1 0.49354981568649209 1 0.74438855492720291 1 1.0000000000000002 3 
	7.3730991244974451 8 3.1044177071288255 1 
	7.514706798053445 7.9643769717000099 2.8591460217882072 1 
	7.8008312033694143 7.8635243718883814 2.363564014495513 1.0000000000000002 
	8.2360027441079051 7.6219219719738867 1.6098247959284264 1 
	8.6863645318941618 7.2876141979721423 0.82977529769506286 1.0000000000000002 
	9.0027976694910539 6.997392498248173 0.28169702617882159 1 
	9.165435523385316 6.8345644766146876 -4.4408920985006262e-015 1 
	0.001 
	cone 0 15 -1.7763568394002505e-015 0 1 0 0.49999999999999994 0 0.86602540378443837 1 I I -0.70710678118654746 0.70710678118654757 0.99999999999999978 forward I I I I 
	plane 4.5827177616926598 0 7.9375 0.86602540378443871 0 0.49999999999999989 0.5 0 -0.86602540378443893 forward_v I I I I 
	nullbs 
	nullbs 
	I I 
	0 
	0 
	0 
	} I I #
coedge $-1 $320 $233 $248 $295 forward $235 $-1 #
edge $-1 $236 0 $300 0.79703450401063858 $233 $321 forward 7 unknown #
point $-1 -0.99804496391693087 8 -7.9375000000000027 #
ellipse-curve $-1 1.0658141036401503e-014 8 -1.2434497875801753e-014 0 1 0 6.3750541605804862 0 -4.8330822928712038 1 I I #
face $-1 $322 $256 $2 $-1 $323 forward single #
cone-surface $-1 0 15 -1.7763568394002505e-015 0 1 0 0.49999999999999994 0 0.86602540378443837 1 I I -0.70710678118654746 0.70710678118654757 0.99999999999999978 forward I I I I #
point $-1 6.3750541605804969 8 -4.8330822928712163 #
coedge $-1 $246 $245 $324 $325 reversed $176 $-1 #
coedge $-1 $263 $305 $245 $292 forward $306 $-1 #
edge $-1 $326 0 $265 1.0000000000000002 $245 $327 forward 7 unknown #
coedge $-1 $296 $249 $246 $294 forward $260 $-1 #
edge $-1 $251 0 $328 1.0000000000000002 $246 $329 forward 7 unknown #
edge $-1 $300 4.4408920985006257e-016 $297 1.9960899278338702 $283 $330 forward 7 unknown #
coedge $-1 $249 $293 $320 $331 reversed $260 $-1 #
vertex $-1 $331 $332 #
intcurve-curve $-1 forward { surfintcur full nurbs 3 open 5 
	0 3 0.24582901306107258 1 0.49354981568649242 1 0.74438855492720335 1 1.0000000000000002 3 
	-7.3730991244974566 8 -3.1044177071288059 1 
	-7.5147067980534565 7.9643769717000072 -2.8591460217881841 1 
	-7.8008312033694329 7.8635243718883787 -2.3635640144954877 0.99999999999999978 
	-8.2360027441079069 7.6219219719738804 -1.6098247959284142 1 
	-8.6863645318941742 7.2876141979721423 -0.82977529769504899 1 
	-9.0027976694910556 6.9973924982481748 -0.28169702617881615 1 
	-9.165435523385316 6.8345644766146911 4.4408920985006262e-015 1 
	0.001 
	cone 0 15 -1.7763568394002505e-015 0 1 0 0.49999999999999994 0 0.86602540378443837 1 I I -0.70710678118654746 0.70710678118654757 0.99999999999999978 forward I I I I 
	plane -4.5827177616926598 0 -7.9375 -0.86602540378443871 0 -0.49999999999999989 -0.5 0 0.86602540378443893 forward_v I I I I 
	nullbs 
	nullbs 
	I I 
	0 
	0 
	0 
	} I I #
point $-1 -9.1654355233853106 6.8345644766146911 0 #
vertex $-1 $295 $333 #
intcurve-curve $-1 forward { surfintcur full nurbs 3 open 5 
	0 3 0.25561953355309264 1 0.50646186348095479 1 0.75417970502553722 1 1.0000000000000002 3 
	-4.5827177616926598 6.8345644766146858 -7.9375 1 
	-4.7453838803059245 6.9974195073307186 -7.6557540178917982 1 
	-5.0618595759786809 7.2876772257202376 -7.1076020336258772 1.0000000000000002 
	-5.5122611911133959 7.6219950814206783 -6.3274835524014703 1 
	-5.947406711719923 7.8635578558489332 -5.5737894020249525 0.99999999999999978 
	-6.2334809542200142 7.9643889307063445 -5.0782942792780172 1 
	-6.37505416058052 8 -4.8330822928711878 1 
	0.001 
	cone 0 15 -1.7763568394002505e-015 0 1 0 0.49999999999999994 0 0.86602540378443837 1 I I -0.70710678118654746 0.70710678118654757 0.99999999999999978 forward I I I I 
	plane -4.5827177616926598 0 -7.9375 -0.86602540378443871 0 -0.49999999999999989 -0.5 0 0.86602540378443893 forward_v I I I I 
	nullbs 
	nullbs 
	I I 
	0 
	0 
	0 
	} I I #
plane-surface $-1 0 8 0 0 1 0 1 0 0 forward_v I I I I #
coedge $-1 $310 $334 $262 $304 forward $235 $-1 #
edge $-1 $307 1.3322676295501878e-015 $315 1.9960899278338005 $303 $335 forward 7 unknown #
coedge $-1 $291 $263 $334 $336 reversed $306 $-1 #
loop $-1 $-1 $305 $322 #
vertex $-1 $304 $337 #
intcurve-curve $-1 forward { surfintcur full nurbs 3 open 5 
	0 3 0.25561953355309264 1 0.50646186348095479 1 0.75417970502553699 1 1.0000000000000002 3 
	-4.5827177616926509 6.8345644766146876 7.9375 1 
	-4.2573855244661196 6.9974195073307213 7.9375000000000009 0.99999999999999989 
	-3.6244341331206025 7.2876772257202438 7.9375 1 
	-2.7236309028511672 7.6219950814206792 7.9375000000000009 1 
	-1.8533398616381069 7.863557855848935 7.9375 1 
	-1.281191376637919 7.9643889307063436 7.9375 1 
	-0.99804496391690378 8 7.9375 1 
	0.001 
	cone 0 15 -1.7763568394002505e-015 0 1 0 0.49999999999999994 0 0.86602540378443837 1 I I -0.70710678118654746 0.70710678118654757 0.99999999999999978 forward I I I I 
	plane -4.5827177616926509 0 7.9375 0 0 1 1 0 0 forward_v I I I I 
	nullbs 
	nullbs 
	I I 
	0 
	0 
	0 
	} I I #
point $-1 -4.5827177616926509 6.8345644766146876 7.9375 #
coedge $-1 $267 $303 $269 $312 forward $235 $-1 #
straight-curve $-1 6.3750541605805378 8 4.8330822928711568 0.50000000000000011 0 -0.86602540378443871 I I #
edge $-1 $315 0 $272 0.79703450401064557 $310 $338 forward 7 unknown #
face $-1 $78 $271 $2 $-1 $339 forward single #
point $-1 6.375054160580536 8 4.8330822928711603 #
vertex $-1 $312 $340 #
intcurve-curve $-1 forward { surfintcur full nurbs 3 open 5 
	0 3 0.2458290130610718 1 0.49354981568649176 1 0.74438855492720268 1 1.0000000000000002 3 
	0.99804496391690734 8 7.9375 1 
	1.2812603110289051 7.9643769717000099 7.9375000000000009 1 
	1.8535091216608475 7.8635243718883787 7.9374999999999991 1 
	2.7238522031378207 7.6219219719738867 7.9375 1 
	3.6245757787103545 7.2876141979721423 7.9374999999999991 1.0000000000000002 
	4.2574420539041329 6.9973924982481694 7.9375 1 
	4.5827177616926598 6.8345644766146831 7.9375 1 
	0.001 
	cone 0 15 -1.7763568394002505e-015 0 1 0 0.49999999999999994 0 0.86602540378443837 1 I I -0.70710678118654746 0.70710678118654757 0.99999999999999978 forward I I I I 
	plane -4.5827177616926509 0 7.9375 0 0 1 1 0 0 forward_v I I I I 
	nullbs 
	nullbs 
	I I 
	0 
	0 
	0 
	} I I #
ellipse-curve $-1 -1.5543122344752192e-014 8 -6.6613381477509392e-016 0 1 0 7.3730991244974611 0 3.1044177071288246 1 I I #
cone-surface $-1 0 15 -1.7763568394002505e-015 0 1 0 0.49999999999999994 0 0.86602540378443837 1 I I -0.70710678118654746 0.70710678118654757 0.99999999999999978 forward I I I I #
point $-1 7.373099124497446 8 3.1044177071288237 #
coedge $-1 $324 $283 $296 $331 forward $235 $-1 #
ellipse-curve $-1 1.1102230246251565e-015 8 8.8817841970012523e-016 0 1 0 -0.99804496391693198 0 -7.9375000000000036 1 I I #
face $-1 $313 $306 $2 $-1 $341 forward single #
cone-surface $-1 0 15 -1.7763568394002505e-015 0 1 0 0.49999999999999994 0 0.86602540378443837 1 I I -0.70710678118654746 0.70710678118654757 0.99999999999999978 forward I I I I #
coedge $-1 $334 $320 $290 $325 forward $235 $-1 #
edge $-1 $328 8.2868174712677568e-016 $326 1.9960899278339106 $324 $342 forward 7 unknown #
vertex $-1 $336 $343 #
intcurve-curve $-1 forward { surfintcur full nurbs 3 open 5 
	0 3 0.24582901306107197 1 0.49354981568649198 1 0.74438855492720291 1 1.0000000000000002 3 
	-6.375054160580504 8 4.8330822928712092 1 
	-6.2334464870245077 7.9643769717000064 5.0783539782118252 0.99999999999999989 
	-5.9473220817085375 7.8635243718883752 5.5739359855045123 1 
	-5.5121505409700591 7.621921971973884 6.3276752040715882 1 
	-5.0617887531837962 7.2876141979721387 7.1077247023049468 0.99999999999999978 
	-4.745355615586913 6.9973924982481721 7.6558029738211806 1 
	-4.5827177616926527 6.8345644766146876 7.9375000000000044 1 
	0.001 
	cone 0 15 -1.7763568394002505e-015 0 1 0 0.49999999999999994 0 0.86602540378443837 1 I I -0.70710678118654746 0.70710678118654757 0.99999999999999978 forward I I I I 
	plane -9.1654355233853106 0 0 -0.86602540378443871 0 0.50000000000000011 0.5 0 0.86602540378443849 forward_v I I I I 
	nullbs 
	nullbs 
	I I 
	0 
	0 
	0 
	} I I #
vertex $-1 $325 $344 #
intcurve-curve $-1 forward { surfintcur full nurbs 3 open 5 
	0 3 0.25561953355309247 1 0.50646186348095479 1 0.75417970502553699 1 1.0000000000000002 3 
	-9.1654355233853106 6.8345644766146911 0 1 
	-9.0027694047720495 6.9974195073307222 0.2817459821081974 1 
	-8.6862937090992904 7.2876772257202376 0.82989796637411406 1 
	-8.2358920939645817 7.6219950814206774 1.6100164475985166 1 
	-7.8007465733580572 7.8635578558489305 2.3637105979750279 1 
	-7.5146723308579668 7.9643889307063436 2.8592057207219619 1 
	-7.373099124497462 8 3.1044177071287908 1 
	0.001 
	cone 0 15 -1.7763568394002505e-015 0 1 0 0.49999999999999994 0 0.86602540378443837 1 I I -0.70710678118654746 0.70710678118654757 0.99999999999999978 forward I I I I 
	plane -9.1654355233853106 0 0 -0.86602540378443871 0 0.50000000000000011 0.5 0 0.86602540378443849 forward_v I I I I 
	nullbs 
	nullbs 
	I I 
	0 
	0 
	0 
	} I I #
straight-curve $-1 -6.3750541605805191 8 -4.8330822928711878 -0.49999999999999994 0 0.86602540378443871 I I #
edge $-1 $297 0 $328 0.79703450401063447 $320 $345 forward 7 unknown #
point $-1 -7.373099124497454 8 -3.1044177071288095 #
point $-1 -6.37505416058052 8 -4.8330822928711878 #
coedge $-1 $303 $324 $305 $336 forward $235 $-1 #
straight-curve $-1 -0.99804496391690511 8 7.9375 1 0 0 I I #
edge $-1 $326 0 $307 0.79703450401064135 $334 $346 forward 7 unknown #
point $-1 -0.99804496391690378 8 7.9375 #
ellipse-curve $-1 -7.1054273576010019e-015 8 -1.3322676295501878e-014 0 1 0 0.99804496391690245 0 7.9375000000000178 1 I I #
cone-surface $-1 0 15 -1.7763568394002505e-015 0 1 0 0.49999999999999994 0 0.86602540378443837 1 I I -0.70710678118654746 0.70710678118654757 0.99999999999999978 forward I I I I #
point $-1 0.99804496391689534 8 7.9375000000000044 #
cone-surface $-1 0 15 -1.7763568394002505e-015 0 1 0 0.49999999999999994 0 0.86602540378443837 1 I I -0.70710678118654746 0.70710678118654757 0.99999999999999978 forward I I I I #
straight-curve $-1 -7.3730991244974629 8 3.1044177071287904 0.50000000000000033 0 0.86602540378443849 I I #
point $-1 -6.3750541605805058 8 4.8330822928712029 #
point $-1 -7.373099124497462 8 3.1044177071287908 #
ellipse-curve $-1 -8.8817841970012523e-016 8 -4.4408920985006262e-016 0 1 0 -7.3730991244974531 0 -3.104417707128809 1 I I #
ellipse-curve $-1 -1.5765166949677223e-014 8 1.4210854715202004e-014 0 1 0 -6.3750541605804898 0 4.8330822928711887 1 I I #
End-of-ACIS-data 