600 0 1 0           
99 GICL ACIS Healer - Source: /gicl/data5/repository/UMD/Tools/edge-flat_tool/edge-flat_tool.sat - 6 0 18 ACIS 6.0.3 Solaris 24 Sun Apr 14 00:33:44 2002 
1 9.999999999999999547e-07 1.000000000000000036e-10 
body $-1 $1 $-1 $-1 #
lump $-1 $-1 $2 $0 #
shell $-1 $-1 $-1 $3 $-1 $1 #
face $-1 $4 $5 $2 $-1 $6 forward single #
face $-1 $7 $8 $2 $-1 $9 forward single #
loop $-1 $10 $11 $3 #
cone-surface $-1 0 0 17 -0 -0 1 5 0 0 1 I I 0 1 5 forward I I I I #
face $-1 $12 $13 $2 $-1 $14 forward single #
loop $-1 $-1 $15 $4 #
plane-surface $-1 0 0 27 0 0 1 1 0 0 forward_v I I I I #
loop $-1 $-1 $16 $3 #
coedge $-1 $11 $11 $15 $17 reversed $5 $-1 #
face $-1 $-1 $18 $2 $-1 $19 forward single #
loop $-1 $20 $21 $7 #
cone-surface $-1 0 0 5 -0 -0 1 5 0 0 1 I I 0.7071067811865470176 0.7071067811865470176 5 reversed I I I I #
coedge $-1 $15 $15 $11 $17 forward $8 $-1 #
coedge $-1 $16 $16 $22 $23 forward $10 $-1 #
edge $-1 $24 0 $24 6.283185307179586232 $15 $25 forward 7 unknown #
loop $-1 $26 $22 $12 #
plane-surface $-1 0 0 10 0 0 1 -1 0 0 reverse_v I I I I #
loop $-1 $-1 $27 $7 #
coedge $-1 $21 $21 $28 $29 forward $13 $-1 #
coedge $-1 $22 $22 $16 $23 reversed $18 $-1 #
edge $-1 $30 -3.141592653589799777 $30 3.141592653589786455 $22 $31 forward 7 unknown #
vertex $-1 $17 $32 #
ellipse-curve $-1 0 0 27 -0 -0 1 5 0 0 1 I I #
loop $-1 $-1 $28 $12 #
coedge $-1 $27 $27 $-1 $33 forward $20 $-1 #
coedge $-1 $28 $28 $21 $29 reversed $26 $-1 #
edge $-1 $34 0 $34 6.283185307179586232 $28 $35 forward 7 unknown #
vertex $-1 $23 $36 #
ellipse-curve $-1 0 0 10 -0 -0 1 5 0 0 1 I I #
point $-1 5 0 27 #
edge $-1 $37 1 $37 0 $27 $-1 forward 7 unknown #
vertex $-1 $29 $38 #
ellipse-curve $-1 0 0 10 -0 -0 -1 10 0 0 1 I I #
point $-1 -5 3.4914813388431302e-14 10 #
vertex $-1 $33 $39 #
point $-1 10 0 10 #
point $-1 0 0 0 #
End-of-ACIS-data 