105 41 1 0                              
body $-1 $1 $-1 $2 #
lump $-1 $-1 $3 $0 #
transform $-1 1 0 0 0 1 0 0 0 -1 0 0 5 1 0 1 0 #
shell $-1 $-1 $-1 $4 $1 #
face $-1 $5 $6 $3 $-1 $7 forward single #
face $-1 $8 $9 $3 $-1 $10 forward single #
loop $-1 $11 $12 $4 #
cone-surface $-1 0 0 -12 -0 -0 1 5 0 0 1 -0 1 1 #
face $-1 $13 $14 $3 $-1 $15 forward single #
loop $-1 $-1 $16 $5 #
plane-surface $-1 0 0 -22 0 0 -1 1 0 0 1 #
loop $-1 $-1 $17 $4 #
coedge $-1 $12 $12 $16 $18 0 $6 $-1 #
face $-1 $-1 $19 $3 $-1 $20 forward single #
loop $-1 $21 $22 $8 #
cone-surface $-1 0 0 0 0 0 1 5 0 0 1 -0.707106781186547 0.707106781186547 0 #
coedge $-1 $16 $16 $12 $18 1 $9 $-1 #
coedge $-1 $17 $17 $23 $24 1 $11 $-1 #
edge $-1 $25 $25 $16 $26 0 #
loop $-1 $27 $23 $13 #
plane-surface $-1 0 0 -5 0 0 -1 -1 0 0 0 #
loop $-1 $-1 $28 $8 #
coedge $-1 $22 $22 $29 $30 1 $14 $-1 #
coedge $-1 $23 $23 $17 $24 0 $19 $-1 #
edge $-1 $31 $31 $23 $32 0 #
vertex $-1 $18 $33 #
ellipse-curve $-1 0 0 -22 -0 -0 1 5 0 0 1 #
loop $-1 $-1 $29 $13 #
coedge $-1 $28 $28 $-1 $34 1 $21 $-1 #
coedge $-1 $29 $29 $22 $30 0 $27 $-1 #
edge $-1 $35 $35 $29 $36 0 #
vertex $-1 $24 $37 #
ellipse-curve $-1 0 0 -5 -0 -0 1 5 0 0 1 #
point $-1 5 0 -22 #
edge $-1 $38 $38 $28 $-1 0 #
vertex $-1 $30 $39 #
ellipse-curve $-1 0 0 -5 0 0 -1 10 0 0 1 #
point $-1 -5 3.49148133884313e-14 -5 #
vertex $-1 $34 $40 #
point $-1 10 0 -5 #
point $-1 0 0 5 #
