600 0 2 0           
24 FBMach with ACIS - 6.0.3 13 ACIS 6.0.3 NT 24 Tue May 22 12:24:10 2001 
1 9.9999999999999995e-007 1e-010 
body $2 $3 $-1 $4 #
bdycol-kcp $-1 1 2 $5 $6 #
model_id-kcp-attrib $-1 $-1 $-1 $0 1 990548650 50 1110573057 1 #
lump $-1 $-1 $7 $0 #
transform $-1 -1 0 0 0 1 0 0 0 -1 0 0 27 1 rotate no_reflect no_shear #
body $8 $9 $-1 $10 #
body $11 $12 $-1 $13 #
shell $-1 $-1 $-1 $14 $-1 $3 #
model_id-kcp-attrib $-1 $-1 $-1 $5 1 990548650 50 1110573058 1 #
lump $-1 $-1 $15 $5 #
transform $-1 1 0 0 0 1 0 0 0 1 0 0 13.5 1 no_rotate no_reflect no_shear #
rgb_color-st-attrib $-1 $16 $-1 $6 1 0.5 1 #
lump $-1 $-1 $17 $6 #
transform $-1 1 0 0 0 1 0 0 0 1 0 0 13.5 1 no_rotate no_reflect no_shear #
face $18 $19 $20 $7 $-1 $21 forward single #
shell $-1 $-1 $-1 $22 $-1 $9 #
model_id-kcp-attrib $-1 $-1 $11 $6 1 990548650 140 1116471299 1 #
shell $-1 $-1 $-1 $23 $-1 $12 #
model_id-kcp-attrib $-1 $-1 $-1 $14 1 990548650 50 1110573057 2 #
face $24 $25 $26 $7 $-1 $27 forward single #
loop $-1 $28 $29 $14 #
cone-surface $-1 0 0 10 0 0 -1 -5 0 0 1 I I 0 1 5 forward I I I I #
face $30 $31 $32 $15 $-1 $33 forward single #
face $-1 $34 $35 $17 $-1 $36 forward single #
model_id-kcp-attrib $-1 $37 $-1 $19 1 990548650 50 1110573057 6 #
face $38 $39 $40 $7 $-1 $41 forward single #
loop $-1 $-1 $42 $19 #
plane-surface $-1 0 0 0 0 0 -1 -1 0 0 forward_v I I I I #
loop $-1 $-1 $43 $14 #
coedge $-1 $29 $29 $42 $44 reversed $20 $-1 #
model_id-kcp-attrib $-1 $-1 $-1 $22 1 990548650 50 1110573058 2 #
face $-1 $45 $46 $15 $-1 $47 reversed single #
loop $-1 $-1 $48 $22 #
plane-surface $-1 0 0 13.5 0 0 1 1 0 0 forward_v I I I I #
face $-1 $49 $50 $17 $-1 $51 forward single #
loop $-1 $52 $53 $23 #
cone-surface $-1 0 0 -3.5 0 0 1 5 0 0 1 I I 0 -1 5 forward I I I I #
model_id-kcp-attrib $-1 $-1 $24 $19 1 990548650 50 1110573057 3 #
model_id-kcp-attrib $-1 $-1 $-1 $25 1 990548650 50 1110573057 4 #
face $54 $-1 $55 $7 $-1 $56 forward single #
loop $-1 $57 $58 $25 #
cone-surface $-1 0 0 22 0 0 -1 -5 0 0 1 I I 0.70710678118654702 0.70710678118654702 5 reversed I I I I #
coedge $-1 $42 $42 $29 $44 forward $26 $-1 #
coedge $-1 $43 $43 $59 $60 forward $28 $-1 #
edge $61 $62 0 $62 6.2831853071795862 $42 $63 forward 7 unknown #
face $-1 $64 $65 $15 $-1 $66 reversed single #
loop $-1 $-1 $67 $31 #
plane-surface $-1 0 0 -13.5 0 0 1 1 0 0 forward_v I I I I #
coedge $-1 $68 $69 $70 $71 forward $32 $-1 #
face $-1 $72 $73 $17 $-1 $74 forward single #
loop $-1 $75 $76 $34 #
cone-surface $-1 -3.7491518045553436e-032 0 -3.5 0 0 1 10 0 0 1 I I 0 1 10 forward I I I I #
loop $-1 $-1 $77 $23 #
coedge $-1 $53 $53 $78 $79 forward $35 $-1 #
model_id-kcp-attrib $-1 $-1 $-1 $39 1 990548650 50 1110573057 5 #
loop $-1 $80 $59 $39 #
plane-surface $-1 0 0 17 0 0 -1 1 0 0 reverse_v I I I I #
loop $-1 $-1 $81 $25 #
coedge $-1 $58 $58 $82 $83 forward $40 $-1 #
coedge $-1 $59 $59 $43 $60 reversed $55 $-1 #
edge $-1 $84 -3.1415926535897998 $84 3.1415926535897865 $59 $85 forward 7 unknown #
attrib_edge_convexity-kcp-attrib $-1 $86 $-1 $44 1 #
vertex $-1 $44 $87 #
ellipse-curve $-1 0 0 0 0 0 -1 -5 0 0 1 I I #
face $-1 $88 $89 $15 $-1 $90 reversed single #
loop $-1 $-1 $91 $45 #
plane-surface $-1 0 -10 0 0 1 0 0 0 1 forward_v I I I I #
coedge $-1 $92 $93 $94 $95 forward $46 $-1 #
coedge $-1 $96 $48 $97 $98 forward $32 $-1 #
coedge $-1 $48 $96 $99 $100 forward $32 $-1 #
coedge $-1 $101 $102 $48 $71 reversed $103 $-1 #
edge $-1 $104 -10 $105 10 $70 $106 forward 7 unknown #
face $-1 $-1 $107 $17 $-1 $108 reversed single #
loop $-1 $109 $110 $49 #
plane-surface $-1 -0.75757575757575735 1.074744972626415e-015 13.5 0 0 1 1 0 0 forward_v I I I I #
loop $-1 $-1 $111 $34 #
coedge $-1 $76 $76 $110 $112 forward $50 $-1 #
coedge $-1 $77 $77 $113 $114 reversed $52 $-1 #
coedge $-1 $78 $78 $53 $79 reversed $109 $-1 #
edge $-1 $115 -3.1415926535897998 $115 3.1415926535897865 $53 $116 forward 7 unknown #
loop $-1 $-1 $82 $39 #
coedge $-1 $81 $81 $-1 $117 forward $57 $-1 #
coedge $-1 $82 $82 $58 $83 reversed $80 $-1 #
edge $-1 $118 0 $118 6.2831853071795862 $82 $119 forward 7 unknown #
vertex $-1 $60 $120 #
ellipse-curve $-1 0 0 17 0 0 -1 -5 0 0 1 I I #
convexity-sys-attrib $-1 $-1 $61 $44 #
point $-1 -5 0 0 #
face $-1 $121 $122 $15 $-1 $123 reversed single #
loop $-1 $-1 $124 $64 #
plane-surface $-1 -10 0 0 1 0 0 0 0 -1 forward_v I I I I #
coedge $-1 $125 $99 $126 $127 forward $65 $-1 #
coedge $-1 $128 $67 $125 $129 forward $46 $-1 #
coedge $-1 $67 $128 $130 $131 forward $46 $-1 #
coedge $-1 $102 $101 $67 $95 reversed $103 $-1 #
edge $-1 $132 -10 $133 10 $94 $134 forward 7 unknown #
coedge $-1 $69 $68 $135 $136 forward $32 $-1 #
coedge $-1 $137 $138 $68 $98 reversed $122 $-1 #
edge $-1 $105 -10 $139 10 $97 $140 forward 7 unknown #
coedge $-1 $91 $141 $69 $100 reversed $65 $-1 #
edge $-1 $142 -10 $104 10 $99 $143 forward 7 unknown #
coedge $-1 $94 $70 $141 $144 forward $103 $-1 #
coedge $-1 $70 $94 $137 $145 reversed $103 $-1 #
loop $-1 $-1 $101 $121 #
vertex $-1 $71 $146 #
vertex $-1 $71 $147 #
straight-curve $-1 10 0 13.5 0 1 0 I I #
loop $-1 $148 $149 $72 #
plane-surface $-1 -0.75757575757575735 1.074744972626415e-015 -3.5 0 0 1 1 0 0 forward_v I I I I #
loop $-1 $-1 $78 $49 #
coedge $-1 $110 $110 $76 $112 reversed $73 $-1 #
coedge $-1 $111 $111 $149 $150 reversed $75 $-1 #
edge $-1 $151 -3.1415926535897931 $151 3.1415926535897931 $76 $152 forward 7 unknown #
coedge $-1 $113 $113 $77 $114 forward $148 $-1 #
edge $-1 $153 -3.1415926535897998 $153 3.1415926535897865 $77 $154 forward 7 unknown #
vertex $-1 $79 $155 #
ellipse-curve $-1 0 0 13.5 0 0 1 5 0 0 1 I I #
edge $-1 $156 1 $156 0 $81 $-1 forward 7 unknown #
vertex $-1 $83 $157 #
ellipse-curve $-1 0 0 17 0 0 1 -10 0 0 1 I I #
point $-1 5 3.4914813388431302e-014 17 #
face $-1 $-1 $103 $15 $-1 $158 reversed single #
loop $-1 $-1 $137 $88 #
plane-surface $-1 0 10 0 0 -1 0 0 0 -1 forward_v I I I I #
coedge $-1 $159 $135 $138 $160 forward $89 $-1 #
coedge $-1 $141 $91 $92 $129 reversed $65 $-1 #
coedge $-1 $135 $159 $91 $127 reversed $89 $-1 #
edge $-1 $142 -13.5 $161 13.5 $126 $162 forward 7 unknown #
coedge $-1 $93 $92 $159 $163 forward $46 $-1 #
edge $-1 $133 -10 $161 10 $125 $164 forward 7 unknown #
coedge $-1 $138 $137 $93 $131 reversed $122 $-1 #
edge $-1 $165 -10 $132 10 $130 $166 forward 7 unknown #
vertex $-1 $95 $167 #
vertex $-1 $144 $168 #
straight-curve $-1 10 0 -13.5 0 -1 0 I I #
coedge $-1 $124 $126 $96 $136 reversed $89 $-1 #
edge $-1 $139 -10 $142 10 $135 $169 forward 7 unknown #
coedge $-1 $130 $97 $102 $145 forward $122 $-1 #
coedge $-1 $97 $130 $124 $160 reversed $122 $-1 #
vertex $-1 $98 $170 #
straight-curve $-1 0 10 13.5 -1 0 0 I I #
coedge $-1 $99 $125 $101 $144 reversed $65 $-1 #
vertex $-1 $136 $171 #
straight-curve $-1 0 -10 13.5 1 0 0 I I #
edge $-1 $104 -13.5 $133 13.5 $101 $172 forward 7 unknown #
edge $-1 $105 -13.5 $132 13.5 $102 $173 forward 7 unknown #
point $-1 10 -10 13.5 #
point $-1 10 10 13.5 #
loop $-1 $-1 $113 $72 #
coedge $-1 $149 $149 $111 $150 forward $107 $-1 #
edge $174 $175 -3.1415926535897931 $175 3.1415926535897931 $111 $176 forward 7 unknown #
vertex $-1 $112 $177 #
ellipse-curve $-1 -3.7491518045553436e-032 0 13.5 0 0 -1 10 0 0 1 I I #
vertex $-1 $114 $178 #
ellipse-curve $-1 0 0 -3.5 0 0 1 5 0 0 1 I I #
point $-1 -5 3.4914813388431302e-014 13.5 #
vertex $-1 $117 $179 #
point $-1 -10 0 17 #
plane-surface $-1 10 0 0 -1 0 0 0 0 1 forward_v I I I I #
coedge $-1 $126 $124 $128 $163 reversed $89 $-1 #
edge $-1 $139 -13.5 $165 13.5 $138 $180 forward 7 unknown #
vertex $-1 $163 $181 #
straight-curve $-1 -10 -10 0 0 0 -1 I I #
edge $-1 $161 -10 $165 10 $159 $182 forward 7 unknown #
straight-curve $-1 0 -10 -13.5 -1 0 0 I I #
vertex $-1 $131 $183 #
straight-curve $-1 0 10 -13.5 1 0 0 I I #
point $-1 10 10 -13.5 #
point $-1 10 -10 -13.5 #
straight-curve $-1 -10 0 13.5 0 -1 0 I I #
point $-1 -10 10 13.5 #
point $-1 -10 -10 13.5 #
straight-curve $-1 10 -10 0 0 0 -1 I I #
straight-curve $-1 10 10 0 0 0 -1 I I #
convexity-sys-attrib $-1 $-1 $-1 $150 #
vertex $-1 $150 $184 #
ellipse-curve $-1 -3.7491518045553436e-032 0 -3.5 0 0 -1 10 0 0 1 I I #
point $-1 -10 1.2246063538223773e-015 13.5 #
point $-1 -5 3.4914813388431302e-014 -3.5 #
point $-1 0 0 27 #
straight-curve $-1 -10 10 0 0 0 -1 I I #
point $-1 -10 -10 -13.5 #
straight-curve $-1 -10 0 -13.5 0 1 0 I I #
point $-1 -10 10 -13.5 #
point $-1 -10 1.2246063538223773e-015 -3.5 #
End-of-ACIS-data 