600 0 2 0           
24 FBMach with ACIS - 6.0.3 13 ACIS 6.0.3 NT 24 Sun Mar 31 23:24:56 2002 
1 9.9999999999999995e-007 1e-010 
body $2 $3 $-1 $4 #
bdycol-kcp $-1 1 2 $5 $6 #
model_id-kcp-attrib $-1 $7 $-1 $0 1 1017635096 60 -1975779327 1 #
lump $-1 $-1 $8 $0 #
transform $-1 1 0 0 0 1 0 0 0 1 0 0 0 1 rotate no_reflect no_shear #
body $9 $10 $-1 $11 #
body $12 $13 $-1 $14 #
aggregate_advspl_attribute-aggregate_geombuild_base_attribute-aggregate_body_attribute-attrib_HH-attrib $-1 $15 $2 $0 F #
shell $-1 $-1 $-1 $16 $-1 $3 #
model_id-kcp-attrib $-1 $-1 $-1 $5 1 1017635096 60 -1975779326 1 #
lump $-1 $-1 $17 $5 #
transform $-1 1 0 0 0 1 0 0 0 1 0 0 13.5 1 no_rotate no_reflect no_shear #
rgb_color-st-attrib $-1 $18 $-1 $6 1 0.5 1 #
lump $-1 $-1 $19 $6 #
transform $-1 1 0 0 0 1 0 0 0 1 0 0 13.5 1 no_rotate no_reflect no_shear #
aggregate_secndry_attribute-aggregate_geombuild_base_attribute-aggregate_body_attribute-attrib_HH-attrib $-1 $20 $7 $0 F #
face $21 $22 $23 $8 $-1 $24 forward single #
shell $-1 $-1 $-1 $25 $-1 $10 #
model_id-kcp-attrib $-1 $-1 $12 $6 1 1017635096 150 -1969881085 1 #
shell $-1 $-1 $-1 $26 $-1 $13 #
aggregate_sharped_attribute-aggregate_geombuild_base_attribute-aggregate_body_attribute-attrib_HH-attrib $-1 $27 $15 $0 F #
model_id-kcp-attrib $-1 $28 $-1 $16 1 1017635096 60 -1975779327 2 #
face $29 $30 $31 $8 $-1 $32 forward single #
loop $-1 $33 $34 $16 #
cone-surface $-1 0 0 17 0 0 1 5 0 0 1 I I 0 1 5 forward I I I I #
face $35 $36 $37 $17 $-1 $38 forward single #
face $-1 $39 $40 $19 $-1 $41 forward single #
aggregate_reblend_attribute-aggregate_geombuild_base_attribute-aggregate_body_attribute-attrib_HH-attrib $-1 $42 $20 $0 F #
attrib_hh_face_geombuild-attrib_entity_geombuild-individual_entity_attribute-attrib_HH-attrib $-1 $-1 $21 $16 F #
model_id-kcp-attrib $-1 $43 $-1 $22 1 1017635096 60 -1975779327 6 #
face $44 $45 $46 $8 $-1 $47 forward single #
loop $-1 $-1 $48 $22 #
plane-surface $-1 0 0 27 0 0 1 1 0 0 forward_v I I I I #
loop $-1 $-1 $49 $16 #
coedge $50 $34 $34 $48 $51 reversed $23 $-1 #
model_id-kcp-attrib $-1 $-1 $-1 $25 1 1017635096 60 -1975779326 2 #
face $-1 $52 $53 $17 $-1 $54 reversed single #
loop $-1 $-1 $55 $25 #
plane-surface $-1 0 0 13.5 0 0 1 1 0 0 forward_v I I I I #
face $-1 $56 $57 $19 $-1 $58 forward single #
loop $-1 $59 $60 $26 #
cone-surface $-1 0 0 -3.5 0 0 1 5 0 0 1 I I 0 -1 5 forward I I I I #
aggregate_isospline_attribute-aggregate_geombuild_base_attribute-aggregate_body_attribute-attrib_HH-attrib $-1 $61 $27 $0 F #
model_id-kcp-attrib $-1 $62 $29 $22 1 1017635096 60 -1975779327 3 #
model_id-kcp-attrib $-1 $63 $-1 $30 1 1017635096 60 -1975779327 4 #
face $64 $-1 $65 $8 $-1 $66 forward single #
loop $-1 $67 $68 $30 #
cone-surface $-1 0 0 5 0 0 1 5 0 0 1 I I 0.70710678118654702 0.70710678118654702 5 reversed I I I I #
coedge $69 $48 $48 $34 $51 forward $31 $-1 #
coedge $70 $49 $49 $71 $72 forward $33 $-1 #
attrib_hh_coedge_geombuild-attrib_entity_geombuild-individual_entity_attribute-attrib_HH-attrib $-1 $-1 $-1 $34 F #
edge $73 $74 0 $74 6.2831853071795862 $48 $75 forward 7 unknown #
face $-1 $76 $77 $17 $-1 $78 reversed single #
loop $-1 $-1 $79 $36 #
plane-surface $-1 0 0 -13.5 0 0 1 1 0 0 forward_v I I I I #
coedge $-1 $80 $81 $82 $83 forward $37 $-1 #
face $-1 $84 $85 $19 $-1 $86 forward single #
loop $-1 $87 $88 $39 #
cone-surface $-1 -3.7491518045553436e-032 0 -3.5 0 0 1 10 0 0 1 I I 0 1 10 forward I I I I #
loop $-1 $-1 $89 $26 #
coedge $-1 $60 $60 $90 $91 forward $40 $-1 #
aggregate_analytic_solver_attribute-aggregate_geombuild_base_attribute-aggregate_body_attribute-attrib_HH-attrib $-1 $92 $42 $0 F #
attrib_hh_face_geombuild-attrib_entity_geombuild-individual_entity_attribute-attrib_HH-attrib $-1 $-1 $43 $22 F #
attrib_hh_face_geombuild-attrib_entity_geombuild-individual_entity_attribute-attrib_HH-attrib $-1 $-1 $44 $30 F #
model_id-kcp-attrib $-1 $93 $-1 $45 1 1017635096 60 -1975779327 5 #
loop $-1 $94 $71 $45 #
plane-surface $-1 0 0 10 0 0 1 -1 0 0 reverse_v I I I I #
loop $-1 $-1 $95 $30 #
coedge $96 $68 $68 $97 $98 forward $46 $-1 #
attrib_hh_coedge_geombuild-attrib_entity_geombuild-individual_entity_attribute-attrib_HH-attrib $-1 $-1 $-1 $48 F #
attrib_hh_coedge_geombuild-attrib_entity_geombuild-individual_entity_attribute-attrib_HH-attrib $-1 $-1 $-1 $49 F #
coedge $99 $71 $71 $49 $72 reversed $65 $-1 #
edge $100 $101 -3.1415926535897998 $101 3.1415926535897865 $71 $102 forward 7 unknown #
attrib_edge_convexity-kcp-attrib $-1 $103 $-1 $51 1 #
vertex $104 $51 $105 #
ellipse-curve $-1 0 0 27 0 0 1 5 0 0 1 I I #
face $-1 $106 $107 $17 $-1 $108 reversed single #
loop $-1 $-1 $109 $52 #
plane-surface $-1 0 -10 0 0 1 0 0 0 1 forward_v I I I I #
coedge $-1 $110 $111 $112 $113 forward $53 $-1 #
coedge $-1 $114 $55 $115 $116 forward $37 $-1 #
coedge $-1 $55 $114 $117 $118 forward $37 $-1 #
coedge $-1 $119 $120 $55 $83 reversed $121 $-1 #
edge $-1 $122 -10 $123 10 $82 $124 forward 7 unknown #
face $-1 $-1 $125 $19 $-1 $126 reversed single #
loop $-1 $127 $128 $56 #
plane-surface $-1 -0.75757575757575735 1.074744972626415e-015 13.5 0 0 1 1 0 0 forward_v I I I I #
loop $-1 $-1 $129 $39 #
coedge $-1 $88 $88 $128 $130 forward $57 $-1 #
coedge $-1 $89 $89 $131 $132 reversed $59 $-1 #
coedge $-1 $90 $90 $60 $91 reversed $127 $-1 #
edge $-1 $133 -3.1415926535897998 $133 3.1415926535897865 $60 $134 forward 7 unknown #
aggregate_geombuild_attribute-aggregate_geombuild_base_attribute-aggregate_body_attribute-attrib_HH-attrib $-1 $135 $61 $0 #
attrib_hh_face_geombuild-attrib_entity_geombuild-individual_entity_attribute-attrib_HH-attrib $-1 $-1 $64 $45 F #
loop $-1 $-1 $97 $45 #
coedge $136 $95 $95 $-1 $137 forward $67 $-1 #
attrib_hh_coedge_geombuild-attrib_entity_geombuild-individual_entity_attribute-attrib_HH-attrib $-1 $-1 $-1 $68 F #
coedge $138 $97 $97 $68 $98 reversed $94 $-1 #
edge $139 $140 0 $140 6.2831853071795862 $97 $141 forward 7 unknown #
attrib_hh_coedge_geombuild-attrib_entity_geombuild-individual_entity_attribute-attrib_HH-attrib $-1 $-1 $-1 $71 F #
attrib_hh_edge_geombuild-attrib_entity_geombuild-individual_entity_attribute-attrib_HH-attrib $-1 $-1 $-1 $72 F #
vertex $142 $72 $143 #
ellipse-curve $-1 0 0 10 0 0 1 5 0 0 1 I I #
convexity-sys-attrib $-1 $144 $73 $51 #
attrib_hh_vertex_geombuild-attrib_entity_geombuild-individual_entity_attribute-attrib_HH-attrib $-1 $-1 $-1 $74 F #
point $-1 5 0 27 #
face $-1 $145 $146 $17 $-1 $147 reversed single #
loop $-1 $-1 $148 $76 #
plane-surface $-1 -10 0 0 1 0 0 0 0 -1 forward_v I I I I #
coedge $-1 $149 $117 $150 $151 forward $77 $-1 #
coedge $-1 $152 $79 $149 $153 forward $53 $-1 #
coedge $-1 $79 $152 $154 $155 forward $53 $-1 #
coedge $-1 $120 $119 $79 $113 reversed $121 $-1 #
edge $-1 $156 -10 $157 10 $112 $158 forward 7 unknown #
coedge $-1 $81 $80 $159 $160 forward $37 $-1 #
coedge $-1 $161 $162 $80 $116 reversed $146 $-1 #
edge $-1 $123 -10 $163 10 $115 $164 forward 7 unknown #
coedge $-1 $109 $165 $81 $118 reversed $77 $-1 #
edge $-1 $166 -10 $122 10 $117 $167 forward 7 unknown #
coedge $-1 $112 $82 $165 $168 forward $121 $-1 #
coedge $-1 $82 $112 $161 $169 reversed $121 $-1 #
loop $-1 $-1 $119 $145 #
vertex $-1 $83 $170 #
vertex $-1 $83 $171 #
straight-curve $-1 10 0 13.5 0 1 0 I I #
loop $-1 $172 $173 $84 #
plane-surface $-1 -0.75757575757575735 1.074744972626415e-015 -3.5 0 0 1 1 0 0 forward_v I I I I #
loop $-1 $-1 $90 $56 #
coedge $-1 $128 $128 $88 $130 reversed $85 $-1 #
coedge $-1 $129 $129 $173 $174 reversed $87 $-1 #
edge $-1 $175 -3.1415926535897931 $175 3.1415926535897931 $88 $176 forward 7 unknown #
coedge $-1 $131 $131 $89 $132 forward $172 $-1 #
edge $-1 $177 -3.1415926535897998 $177 3.1415926535897865 $89 $178 forward 7 unknown #
vertex $-1 $91 $179 #
ellipse-curve $-1 0 0 13.5 0 0 1 5 0 0 1 I I #
aggregate_stitch_attribute-aggregate_stitch_base_attribute-aggregate_body_attribute-attrib_HH-attrib $-1 $180 $92 $0 F #
attrib_hh_coedge_geombuild-attrib_entity_geombuild-individual_entity_attribute-attrib_HH-attrib $-1 $-1 $-1 $95 F #
edge $181 $182 1 $182 0 $95 $-1 forward 7 unknown #
attrib_hh_coedge_geombuild-attrib_entity_geombuild-individual_entity_attribute-attrib_HH-attrib $-1 $-1 $-1 $97 F #
attrib_hh_edge_geombuild-attrib_entity_geombuild-individual_entity_attribute-attrib_HH-attrib $-1 $-1 $-1 $98 F #
vertex $183 $98 $184 #
ellipse-curve $-1 0 0 10 0 0 -1 10 0 0 1 I I #
attrib_hh_vertex_geombuild-attrib_entity_geombuild-individual_entity_attribute-attrib_HH-attrib $-1 $-1 $-1 $101 F #
point $-1 -5 3.4914813388431302e-014 10 #
attrib_hh_edge_geombuild-attrib_entity_geombuild-individual_entity_attribute-attrib_HH-attrib $-1 $-1 $103 $51 F #
face $-1 $-1 $121 $17 $-1 $185 reversed single #
loop $-1 $-1 $161 $106 #
plane-surface $-1 0 10 0 0 -1 0 0 0 -1 forward_v I I I I #
coedge $-1 $186 $159 $162 $187 forward $107 $-1 #
coedge $-1 $165 $109 $110 $153 reversed $77 $-1 #
coedge $-1 $159 $186 $109 $151 reversed $107 $-1 #
edge $-1 $166 -13.5 $188 13.5 $150 $189 forward 7 unknown #
coedge $-1 $111 $110 $186 $190 forward $53 $-1 #
edge $-1 $157 -10 $188 10 $149 $191 forward 7 unknown #
coedge $-1 $162 $161 $111 $155 reversed $146 $-1 #
edge $-1 $192 -10 $156 10 $154 $193 forward 7 unknown #
vertex $-1 $113 $194 #
vertex $-1 $168 $195 #
straight-curve $-1 10 0 -13.5 0 -1 0 I I #
coedge $-1 $148 $150 $114 $160 reversed $107 $-1 #
edge $-1 $163 -10 $166 10 $159 $196 forward 7 unknown #
coedge $-1 $154 $115 $120 $169 forward $146 $-1 #
coedge $-1 $115 $154 $148 $187 reversed $146 $-1 #
vertex $-1 $116 $197 #
straight-curve $-1 0 10 13.5 -1 0 0 I I #
coedge $-1 $117 $149 $119 $168 reversed $77 $-1 #
vertex $-1 $160 $198 #
straight-curve $-1 0 -10 13.5 1 0 0 I I #
edge $-1 $122 -13.5 $157 13.5 $119 $199 forward 7 unknown #
edge $-1 $123 -13.5 $156 13.5 $120 $200 forward 7 unknown #
point $-1 10 -10 13.5 #
point $-1 10 10 13.5 #
loop $-1 $-1 $131 $84 #
coedge $-1 $173 $173 $129 $174 forward $125 $-1 #
edge $201 $202 -3.1415926535897931 $202 3.1415926535897931 $129 $203 forward 7 unknown #
vertex $-1 $130 $204 #
ellipse-curve $-1 -3.7491518045553436e-032 0 13.5 0 0 -1 10 0 0 1 I I #
vertex $-1 $132 $205 #
ellipse-curve $-1 0 0 -3.5 0 0 1 5 0 0 1 I I #
point $-1 -5 3.4914813388431302e-014 13.5 #
aggregate_simgeom_attribute-aggregate_simgeom_base_attribute-aggregate_body_attribute-attrib_HH-attrib $-1 $-1 $135 $0 F #
individual_stitch_attribute-stitch_base_entity_attribute-individual_entity_attribute-attrib_HH-attrib $-1 $206 $-1 $137 F #
vertex $207 $137 $208 #
attrib_hh_vertex_geombuild-attrib_entity_geombuild-individual_entity_attribute-attrib_HH-attrib $-1 $-1 $-1 $140 F #
point $-1 10 0 10 #
plane-surface $-1 10 0 0 -1 0 0 0 0 1 forward_v I I I I #
coedge $-1 $150 $148 $152 $190 reversed $107 $-1 #
edge $-1 $163 -13.5 $192 13.5 $162 $209 forward 7 unknown #
vertex $-1 $190 $210 #
straight-curve $-1 -10 -10 0 0 0 -1 I I #
edge $-1 $188 -10 $192 10 $186 $211 forward 7 unknown #
straight-curve $-1 0 -10 -13.5 -1 0 0 I I #
vertex $-1 $155 $212 #
straight-curve $-1 0 10 -13.5 1 0 0 I I #
point $-1 10 10 -13.5 #
point $-1 10 -10 -13.5 #
straight-curve $-1 -10 0 13.5 0 -1 0 I I #
point $-1 -10 10 13.5 #
point $-1 -10 -10 13.5 #
straight-curve $-1 10 -10 0 0 0 -1 I I #
straight-curve $-1 10 10 0 0 0 -1 I I #
convexity-sys-attrib $-1 $-1 $-1 $174 #
vertex $-1 $174 $213 #
ellipse-curve $-1 -3.7491518045553436e-032 0 -3.5 0 0 -1 10 0 0 1 I I #
point $-1 -10 1.2246063538223773e-015 13.5 #
point $-1 -5 3.4914813388431302e-014 -3.5 #
attrib_hh_edge_geombuild-attrib_entity_geombuild-individual_entity_attribute-attrib_HH-attrib $-1 $-1 $181 $137 F #
attrib_hh_vertex_geombuild-attrib_entity_geombuild-individual_entity_attribute-attrib_HH-attrib $-1 $-1 $-1 $182 F #
point $-1 0 0 0 #
straight-curve $-1 -10 10 0 0 0 -1 I I #
point $-1 -10 -10 -13.5 #
straight-curve $-1 -10 0 -13.5 0 1 0 I I #
point $-1 -10 10 -13.5 #
point $-1 -10 1.2246063538223773e-015 -3.5 #
End-of-ACIS-data 