105 1138 1 0                            
body $-1 $1 $-1 $2 #
lump $-1 $3 $4 $0 #
transform $-1 1 0 0 0 1 0 0 0 1 35 35 20 1 0 0 0 #
lump $-1 $5 $6 $0 #
shell $-1 $-1 $-1 $7 $1 #
lump $-1 $8 $9 $0 #
shell $-1 $-1 $-1 $10 $3 #
face $-1 $11 $12 $4 $-1 $13 forward single #
lump $-1 $14 $15 $0 #
shell $-1 $-1 $-1 $16 $5 #
face $-1 $17 $18 $6 $-1 $19 forward single #
face $-1 $20 $21 $4 $-1 $22 forward single #
loop $-1 $-1 $23 $7 #
cone-surface $-1 2.5 -10 -5 -1 -0 -0 0 -3.53553390593274 -3.53553390593274 1 0 1 0 #
lump $-1 $24 $25 $0 #
shell $-1 $-1 $-1 $26 $8 #
face $-1 $27 $28 $9 $-1 $29 forward single #
face $-1 $30 $31 $6 $-1 $32 forward single #
loop $-1 $-1 $33 $10 #
cone-surface $-1 -10 -72.5 -5 0 1 0 -3.53553390593274 0 -3.53553390593274 1 0 1 0 #
face $-1 $34 $35 $4 $-1 $36 forward single #
loop $-1 $-1 $37 $11 #
sphere-surface $-1 -10 -10 -5 5 1 0 0 0 0 1 0 #
coedge $-1 $38 $39 $40 $41 0 $12 $-1 #
lump $-1 $42 $43 $0 #
shell $-1 $-1 $-1 $44 $14 #
face $-1 $45 $46 $15 $-1 $47 forward single #
face $-1 $48 $49 $9 $-1 $50 forward single #
loop $-1 $-1 $51 $16 #
cone-surface $-1 2.5 -10 -35 1 0 0 0 -3.53553390593274 3.53553390593274 1 0 1 0 #
face $-1 $52 $53 $6 $-1 $54 forward single #
loop $-1 $-1 $55 $17 #
sphere-surface $-1 -10 -60 -5 5 1 0 0 0 0 1 0 #
coedge $-1 $56 $57 $58 $59 0 $18 $-1 #
face $-1 $60 $61 $4 $-1 $62 forward single #
loop $-1 $-1 $63 $20 #
cone-surface $-1 -10 2.5 -5 0 1 0 -3.53553390593274 0 -3.53553390593274 1 0 1 0 #
coedge $-1 $64 $65 $66 $67 0 $21 $-1 #
coedge $-1 $68 $23 $65 $69 1 $12 $-1 #
coedge $-1 $23 $68 $70 $71 0 $12 $-1 #
coedge $-1 $72 $73 $23 $41 1 $74 $-1 #
edge $-1 $75 $76 $40 $77 0 #
lump $-1 $78 $79 $0 #
shell $-1 $-1 $-1 $80 $24 #
face $-1 $81 $82 $25 $-1 $83 forward single #
face $-1 $84 $85 $15 $-1 $86 forward single #
loop $-1 $-1 $87 $26 #
cone-surface $-1 2.5 -60 -35 -1 0 0 0 3.53553390593274 3.53553390593274 1 0 1 0 #
face $-1 $88 $89 $9 $-1 $90 forward single #
loop $-1 $-1 $91 $27 #
cone-surface $-1 -10 -10 -42.5 -0 -0 -1 -3.53553390593274 -3.53553390593274 0 1 0 1 0 #
coedge $-1 $92 $93 $94 $95 0 $28 $-1 #
face $-1 $96 $97 $6 $-1 $98 reversed single #
loop $-1 $-1 $99 $30 #
cone-surface $-1 -10 -60 2.5 0 0 -1 -3.53553390593274 3.53553390593274 0 1 0 1 0 #
coedge $-1 $100 $101 $56 $102 0 $31 $-1 #
coedge $-1 $103 $33 $55 $102 1 $18 $-1 #
coedge $-1 $33 $103 $104 $105 0 $18 $-1 #
coedge $-1 $106 $107 $33 $59 1 $97 $-1 #
edge $-1 $108 $109 $58 $110 0 #
face $-1 $111 $74 $4 $-1 $112 reversed single #
loop $-1 $-1 $66 $34 #
cone-surface $-1 -10 -10 0 -0 -0 -1 -3.53553390593274 -3.53553390593274 0 1 0 1 0 #
coedge $-1 $113 $114 $115 $116 0 $35 $-1 #
coedge $-1 $65 $37 $113 $117 1 $21 $-1 #
coedge $-1 $37 $64 $38 $69 0 $21 $-1 #
coedge $-1 $118 $119 $37 $67 1 $61 $-1 #
edge $-1 $76 $120 $66 $121 0 #
coedge $-1 $39 $38 $122 $123 0 $12 $-1 #
edge $-1 $124 $76 $65 $125 0 #
coedge $-1 $126 $127 $39 $71 1 $128 $-1 #
edge $-1 $129 $75 $70 $130 0 #
coedge $-1 $131 $40 $127 $132 1 $74 $-1 #
coedge $-1 $40 $131 $118 $133 1 $74 $-1 #
loop $-1 $-1 $40 $60 #
vertex $-1 $132 $134 #
vertex $-1 $41 $135 #
straight-curve $-1 0 -15 -5 -1 0 0 #
lump $-1 $-1 $136 $0 #
shell $-1 $-1 $-1 $137 $42 #
face $-1 $138 $139 $43 $-1 $140 forward single #
face $-1 $141 $142 $25 $-1 $143 forward single #
loop $-1 $-1 $144 $44 #
cone-surface $-1 -60 2.5 -5 0 -1 0 3.53553390593274 0 -3.53553390593274 1 0 1 0 #
face $-1 $145 $146 $15 $-1 $147 forward single #
loop $-1 $-1 $148 $45 #
sphere-surface $-1 -10 -60 -35 5 1 0 0 0 0 1 0 #
coedge $-1 $149 $150 $151 $152 0 $46 $-1 #
face $-1 $153 $154 $9 $-1 $155 reversed single #
loop $-1 $-1 $156 $48 #
sphere-surface $-1 -10 -10 -35 5 1 0 0 0 0 1 0 #
coedge $-1 $157 $158 $159 $160 0 $49 $-1 #
coedge $-1 $161 $51 $162 $163 1 $28 $-1 #
coedge $-1 $51 $161 $164 $165 0 $28 $-1 #
coedge $-1 $166 $167 $51 $95 1 $168 $-1 #
edge $-1 $169 $170 $94 $171 0 #
face $-1 $172 $173 $6 $-1 $174 reversed single #
loop $-1 $-1 $107 $52 #
plane-surface $-1 -15 -70 0 1 0 0 0 0 -1 0 #
coedge $-1 $175 $176 $107 $177 0 $53 $-1 #
coedge $-1 $101 $55 $176 $178 1 $31 $-1 #
coedge $-1 $55 $100 $179 $180 0 $31 $-1 #
edge $-1 $181 $109 $55 $182 0 #
coedge $-1 $57 $56 $183 $184 0 $18 $-1 #
coedge $-1 $185 $186 $57 $105 1 $173 $-1 #
edge $-1 $187 $108 $104 $188 0 #
coedge $-1 $189 $58 $186 $190 1 $97 $-1 #
coedge $-1 $58 $189 $99 $177 1 $97 $-1 #
vertex $-1 $190 $191 #
vertex $-1 $59 $192 #
straight-curve $-1 -15 -70 -5 0 1 0 #
face $-1 $193 $128 $4 $-1 $194 reversed single #
plane-surface $-1 0 -15 0 0 1 -0 -0 0 1 0 #
coedge $-1 $195 $63 $64 $117 0 $35 $-1 #
coedge $-1 $63 $195 $196 $197 0 $35 $-1 #
coedge $-1 $198 $122 $63 $116 1 $199 $-1 #
edge $-1 $200 $124 $115 $201 0 #
edge $-1 $124 $120 $113 $202 0 #
coedge $-1 $203 $66 $73 $133 0 $61 $-1 #
coedge $-1 $66 $203 $204 $205 0 $61 $-1 #
vertex $-1 $205 $206 #
ellipse-curve $-1 -10 -10 -5 -0 -0 -1 -3.53553390593274 -3.53553390593274 0 1 #
coedge $-1 $115 $207 $68 $123 1 $199 $-1 #
edge $-1 $124 $129 $122 $208 0 #
vertex $-1 $123 $209 #
ellipse-curve $-1 -10 -10 -5 -1 -0 -0 0 -3.53553390593274 -3.53553390593274 1 #
coedge $-1 $210 $70 $207 $211 1 $128 $-1 #
coedge $-1 $70 $212 $72 $132 0 $128 $-1 #
loop $-1 $-1 $70 $111 #
vertex $-1 $211 $213 #
ellipse-curve $-1 15 -10 -5 -1 0 0 0 -3.53553390593274 -3.53553390593274 1 #
coedge $-1 $73 $72 $214 $215 1 $74 $-1 #
edge $-1 $216 $75 $127 $217 0 #
edge $-1 $76 $218 $73 $219 0 #
point $-1 15 -15 -5 #
point $-1 -10 -15 -5 #
shell $-1 $-1 $-1 $220 $78 #
face $-1 $221 $222 $79 $-1 $223 forward single #
face $-1 $224 $225 $43 $-1 $226 forward single #
loop $-1 $-1 $227 $80 #
cone-surface $-1 -60 -60 2.5 0 0 -1 3.53553390593274 3.53553390593274 0 1 0 1 0 #
face $-1 $228 $229 $25 $-1 $230 forward single #
loop $-1 $-1 $231 $81 #
sphere-surface $-1 -60 -10 -5 5 1 0 0 0 0 1 0 #
coedge $-1 $232 $233 $234 $235 0 $82 $-1 #
face $-1 $236 $237 $15 $-1 $238 reversed single #
loop $-1 $-1 $239 $84 #
cone-surface $-1 -10 -72.5 -35 0 -1 0 -3.53553390593274 0 3.53553390593274 1 0 1 0 #
coedge $-1 $240 $241 $242 $243 0 $85 $-1 #
coedge $-1 $244 $87 $241 $245 1 $46 $-1 #
coedge $-1 $87 $244 $246 $247 0 $46 $-1 #
coedge $-1 $248 $249 $87 $152 1 $250 $-1 #
edge $-1 $251 $252 $151 $253 0 #
face $-1 $254 $255 $9 $-1 $256 reversed single #
loop $-1 $-1 $164 $88 #
plane-surface $-1 15 0 -40 -1 0 0 0 0 1 0 #
coedge $-1 $257 $162 $258 $259 0 $89 $-1 #
coedge $-1 $260 $91 $257 $261 1 $49 $-1 #
coedge $-1 $91 $260 $262 $263 0 $49 $-1 #
coedge $-1 $264 $265 $91 $160 1 $255 $-1 #
edge $-1 $266 $267 $159 $268 0 #
coedge $-1 $93 $92 $265 $269 0 $28 $-1 #
coedge $-1 $156 $257 $92 $163 0 $89 $-1 #
edge $-1 $267 $170 $162 $270 0 #
coedge $-1 $271 $272 $93 $165 1 $154 $-1 #
edge $-1 $273 $169 $164 $274 0 #
coedge $-1 $275 $94 $272 $276 0 $168 $-1 #
coedge $-1 $94 $275 $277 $278 1 $168 $-1 #
loop $-1 $-1 $94 $279 #
vertex $-1 $95 $280 #
vertex $-1 $259 $281 #
straight-curve $-1 0 -10 -30 -1 -0 -0 #
face $-1 $282 $283 $6 $-1 $284 reversed single #
loop $-1 $-1 $104 $96 #
plane-surface $-1 0 -85 0 0 1 0 0 0 1 0 #
coedge $-1 $285 $99 $286 $287 0 $53 $-1 #
coedge $-1 $99 $285 $100 $178 0 $53 $-1 #
edge $-1 $109 $288 $107 $289 0 #
edge $-1 $290 $109 $176 $291 0 #
coedge $-1 $292 $293 $101 $180 1 $294 $-1 #
edge $-1 $290 $181 $179 $295 0 #
vertex $-1 $296 $297 #
ellipse-curve $-1 -10 -60 -5 0 1 0 -3.53553390593274 0 -3.53553390593274 1 #
coedge $-1 $298 $299 $103 $184 1 $283 $-1 #
edge $-1 $181 $187 $183 $300 0 #
coedge $-1 $301 $104 $299 $302 1 $173 $-1 #
coedge $-1 $104 $303 $106 $190 0 $173 $-1 #
vertex $-1 $302 $304 #
ellipse-curve $-1 -10 -85 -5 0 1 0 -3.53553390593274 0 -3.53553390593274 1 #
coedge $-1 $107 $106 $305 $306 1 $97 $-1 #
edge $-1 $307 $108 $106 $308 0 #
point $-1 -15 -85 -5 #
point $-1 -15 -60 -5 #
face $-1 $309 $199 $4 $-1 $310 reversed single #
plane-surface $-1 15 0 0 -1 0 0 0 -0 1 0 #
coedge $-1 $114 $113 $311 $312 0 $35 $-1 #
coedge $-1 $313 $314 $114 $197 1 $315 $-1 #
edge $-1 $316 $200 $196 $317 0 #
coedge $-1 $207 $115 $314 $318 0 $199 $-1 #
loop $-1 $-1 $115 $193 #
vertex $-1 $116 $319 #
straight-curve $-1 -10 0 -10 -0 -1 -0 #
ellipse-curve $-1 -10 -10 -5 0 1 0 -3.53553390593274 0 -3.53553390593274 1 #
coedge $-1 $119 $118 $320 $321 0 $61 $-1 #
coedge $-1 $322 $311 $119 $205 1 $323 $-1 #
edge $-1 $324 $120 $204 $325 0 #
point $-1 -15 -10 -5 #
coedge $-1 $122 $198 $126 $211 0 $199 $-1 #
straight-curve $-1 0 -10 -10 1 0 0 #
point $-1 -10 -10 -10 #
coedge $-1 $212 $126 $326 $327 1 $128 $-1 #
edge $-1 $328 $129 $126 $329 0 #
coedge $-1 $127 $210 $330 $331 1 $128 $-1 #
point $-1 15 -10 -10 #
coedge $-1 $330 $320 $131 $215 0 $332 $-1 #
edge $-1 $218 $216 $131 $333 0 #
vertex $-1 $331 $334 #
straight-curve $-1 15 -15 0 0 0 -1 #
vertex $-1 $133 $335 #
straight-curve $-1 -10 -15 0 0 0 1 #
face $-1 $336 $337 $136 $-1 $338 forward single #
face $-1 $339 $340 $79 $-1 $341 forward single #
loop $-1 $-1 $342 $137 #
cone-surface $-1 -60 2.5 -35 0 1 0 3.53553390593274 0 3.53553390593274 1 0 1 0 #
face $-1 $343 $344 $43 $-1 $345 forward single #
loop $-1 $-1 $346 $138 #
sphere-surface $-1 -60 -60 -5 5 1 0 0 0 0 1 0 #
coedge $-1 $347 $348 $349 $350 0 $139 $-1 #
face $-1 $351 $352 $25 $-1 $353 reversed single #
loop $-1 $-1 $354 $141 #
cone-surface $-1 -60 -10 2.5 0 0 -1 3.53553390593274 -3.53553390593274 0 1 0 1 0 #
coedge $-1 $355 $356 $232 $357 0 $142 $-1 #
coedge $-1 $358 $144 $231 $357 1 $82 $-1 #
coedge $-1 $144 $358 $359 $360 0 $82 $-1 #
coedge $-1 $361 $362 $144 $235 1 $352 $-1 #
edge $-1 $363 $364 $234 $365 0 #
face $-1 $366 $367 $15 $-1 $368 reversed single #
loop $-1 $-1 $369 $145 #
plane-surface $-1 0 -85 -40 0 1 0 0 0 1 0 #
coedge $-1 $370 $371 $372 $373 0 $146 $-1 #
coedge $-1 $241 $148 $370 $374 1 $85 $-1 #
coedge $-1 $148 $240 $149 $245 0 $85 $-1 #
coedge $-1 $375 $376 $148 $243 1 $377 $-1 #
edge $-1 $252 $378 $242 $379 0 #
coedge $-1 $150 $149 $380 $381 0 $46 $-1 #
edge $-1 $382 $252 $241 $383 0 #
coedge $-1 $384 $385 $150 $247 1 $386 $-1 #
edge $-1 $387 $251 $246 $388 0 #
coedge $-1 $389 $151 $385 $390 0 $250 $-1 #
coedge $-1 $151 $389 $375 $391 1 $250 $-1 #
loop $-1 $-1 $151 $392 #
vertex $-1 $152 $393 #
vertex $-1 $152 $394 #
straight-curve $-1 0 -55 -35 -1 0 0 #
face $-1 $395 $396 $9 $-1 $397 reversed single #
loop $-1 $-1 $265 $153 #
plane-surface $-1 0 -15 -40 0 1 0 0 0 1 0 #
coedge $-1 $162 $156 $157 $261 0 $89 $-1 #
coedge $-1 $277 $398 $156 $259 1 $399 $-1 #
edge $-1 $170 $400 $258 $401 0 #
coedge $-1 $158 $157 $402 $403 0 $49 $-1 #
edge $-1 $400 $267 $257 $404 0 #
coedge $-1 $405 $406 $158 $263 1 $396 $-1 #
edge $-1 $407 $266 $262 $408 0 #
coedge $-1 $409 $159 $406 $410 1 $255 $-1 #
coedge $-1 $159 $409 $161 $269 1 $255 $-1 #
vertex $-1 $410 $411 #
vertex $-1 $269 $412 #
straight-curve $-1 -10 -15 -40 0 0 1 #
edge $-1 $267 $273 $265 $413 0 #
ellipse-curve $-1 -10 -10 -35 -1 0 0 0 -3.53553390593274 3.53553390593274 1 #
coedge $-1 $414 $164 $409 $415 0 $154 $-1 #
coedge $-1 $164 $416 $166 $276 1 $154 $-1 #
vertex $-1 $269 $417 #
ellipse-curve $-1 15 -10 -35 -1 0 0 0 -3.53553390593274 3.53553390593274 1 #
coedge $-1 $167 $166 $418 $419 0 $168 $-1 #
edge $-1 $169 $420 $272 $421 0 #
coedge $-1 $422 $258 $167 $278 0 $399 $-1 #
edge $-1 $170 $423 $167 $424 0 #
face $-1 $425 $168 $9 $-1 $426 forward single #
point $-1 15 -10 -30 #
point $-1 -10 -10 -30 #
face $-1 $427 $294 $6 $-1 $428 forward single #
loop $-1 $-1 $183 $172 #
plane-surface $-1 0 -70 -10 0 0 1 1 0 0 0 #
coedge $-1 $176 $175 $429 $430 0 $53 $-1 #
coedge $-1 $305 $431 $175 $287 1 $432 $-1 #
edge $-1 $288 $433 $286 $434 0 #
vertex $-1 $287 $435 #
straight-curve $-1 -15 -60 0 0 0 1 #
vertex $-1 $180 $436 #
ellipse-curve $-1 -10 -60 -5 0 0 1 -3.53553390593274 3.53553390593274 0 1 #
coedge $-1 $437 $179 $438 $439 0 $294 $-1 #
coedge $-1 $179 $437 $298 $296 0 $294 $-1 #
loop $-1 $-1 $179 $282 #
ellipse-curve $-1 -10 -60 -5 -1 -0 -0 0 3.53553390593274 -3.53553390593274 1 #
edge $-1 $440 $181 $298 $441 0 #
point $-1 -10 -60 -10 #
coedge $-1 $442 $183 $293 $296 1 $283 $-1 #
coedge $-1 $183 $442 $185 $302 0 $283 $-1 #
straight-curve $-1 -10 -70 -10 -0 -1 -0 #
coedge $-1 $303 $185 $443 $444 1 $173 $-1 #
edge $-1 $445 $187 $185 $446 0 #
coedge $-1 $186 $301 $447 $448 1 $173 $-1 #
point $-1 -10 -85 -10 #
coedge $-1 $447 $286 $189 $306 0 $432 $-1 #
edge $-1 $288 $307 $189 $449 0 #
vertex $-1 $306 $450 #
straight-curve $-1 -15 -85 0 0 0 -1 #
face $-1 $451 $332 $4 $-1 $452 forward single #
plane-surface $-1 0 0 -10 0 0 1 1 0 0 0 #
coedge $-1 $204 $453 $195 $312 1 $323 $-1 #
edge $-1 $120 $316 $311 $454 0 #
coedge $-1 $455 $196 $453 $456 1 $315 $-1 #
coedge $-1 $196 $326 $198 $318 1 $315 $-1 #
loop $-1 $-1 $196 $457 #
vertex $-1 $456 $458 #
ellipse-curve $-1 -10 15 -5 0 -1 0 -3.53553390593274 0 -3.53553390593274 1 #
edge $-1 $200 $328 $314 $459 0 #
point $-1 -10 15 -10 #
coedge $-1 $214 $460 $203 $321 1 $332 $-1 #
edge $-1 $218 $324 $320 $461 0 #
coedge $-1 $453 $204 $460 $462 1 $323 $-1 #
loop $-1 $-1 $311 $451 #
vertex $-1 $462 $463 #
straight-curve $-1 -15 -10 0 0 0 -1 #
coedge $-1 $314 $455 $210 $327 0 $315 $-1 #
edge $-1 $464 $328 $210 $465 0 #
vertex $-1 $211 $466 #
straight-curve $-1 15 0 -10 0 -1 0 #
coedge $-1 $467 $214 $212 $331 0 $332 $-1 #
edge $-1 $216 $464 $212 $468 0 #
loop $-1 $-1 $320 $309 #
straight-curve $-1 0 -15 10 1 0 0 #
point $-1 15 -15 10 #
point $-1 -10 -15 10 #
face $-1 $469 $470 $136 $-1 $471 forward single #
loop $-1 $-1 $472 $220 #
cone-surface $-1 -72.5 -60 -35 -1 0 0 0 3.53553390593274 3.53553390593274 1 0 1 0 #
face $-1 $473 $474 $79 $-1 $475 forward single #
loop $-1 $-1 $476 $221 #
cone-surface $-1 -60 -10 -42.5 0 0 -1 3.53553390593274 -3.53553390593274 0 1 0 1 0 #
coedge $-1 $477 $478 $479 $480 0 $222 $-1 #
face $-1 $481 $482 $43 $-1 $483 forward single #
loop $-1 $-1 $484 $224 #
cone-surface $-1 -72.5 -60 -5 1 0 0 0 3.53553390593274 -3.53553390593274 1 0 1 0 #
coedge $-1 $485 $486 $487 $488 0 $225 $-1 #
coedge $-1 $489 $227 $486 $490 1 $139 $-1 #
coedge $-1 $227 $489 $491 $492 0 $139 $-1 #
coedge $-1 $493 $494 $227 $350 1 $495 $-1 #
edge $-1 $496 $497 $349 $498 0 #
face $-1 $499 $500 $25 $-1 $501 reversed single #
loop $-1 $-1 $362 $228 #
plane-surface $-1 -55 0 0 -1 0 0 0 0 1 0 #
coedge $-1 $502 $503 $362 $504 0 $229 $-1 #
coedge $-1 $356 $231 $503 $505 1 $142 $-1 #
coedge $-1 $231 $355 $506 $507 0 $142 $-1 #
edge $-1 $508 $364 $231 $509 0 #
coedge $-1 $233 $232 $510 $511 0 $82 $-1 #
coedge $-1 $512 $513 $233 $360 1 $500 $-1 #
edge $-1 $514 $363 $359 $515 0 #
coedge $-1 $516 $234 $513 $517 1 $352 $-1 #
coedge $-1 $234 $516 $354 $504 1 $352 $-1 #
vertex $-1 $517 $518 #
vertex $-1 $235 $519 #
straight-curve $-1 -55 0 -5 0 -1 0 #
face $-1 $392 $377 $15 $-1 $520 forward single #
loop $-1 $-1 $521 $236 #
plane-surface $-1 -15 -70 -40 1 0 0 0 0 -1 0 #
coedge $-1 $522 $523 $371 $524 1 $237 $-1 #
coedge $-1 $525 $239 $240 $374 0 $146 $-1 #
coedge $-1 $239 $525 $369 $524 0 $146 $-1 #
coedge $-1 $526 $380 $239 $373 1 $527 $-1 #
edge $-1 $528 $382 $372 $529 0 #
edge $-1 $382 $378 $370 $530 0 #
coedge $-1 $531 $242 $249 $391 0 $377 $-1 #
coedge $-1 $242 $531 $532 $533 0 $377 $-1 #
loop $-1 $-1 $242 $366 #
vertex $-1 $533 $534 #
ellipse-curve $-1 -10 -60 -35 0 0 1 -3.53553390593274 3.53553390593274 0 1 #
coedge $-1 $372 $535 $244 $381 1 $527 $-1 #
edge $-1 $382 $387 $380 $536 0 #
vertex $-1 $381 $537 #
ellipse-curve $-1 -10 -60 -35 -1 0 0 0 3.53553390593274 3.53553390593274 1 #
coedge $-1 $538 $246 $535 $539 1 $386 $-1 #
coedge $-1 $246 $540 $248 $390 1 $386 $-1 #
loop $-1 $-1 $246 $541 #
vertex $-1 $539 $542 #
ellipse-curve $-1 15 -60 -35 -1 0 0 0 3.53553390593274 3.53553390593274 1 #
coedge $-1 $249 $248 $543 $544 1 $250 $-1 #
edge $-1 $251 $545 $385 $546 0 #
edge $-1 $252 $547 $249 $548 0 #
face $-1 $549 $250 $15 $-1 $550 reversed single #
point $-1 15 -55 -35 #
point $-1 -10 -55 -35 #
face $-1 $551 $399 $9 $-1 $552 forward single #
loop $-1 $-1 $262 $254 #
plane-surface $-1 0 0 -50 0 0 1 1 0 0 0 #
coedge $-1 $258 $422 $553 $554 0 $399 $-1 #
loop $-1 $-1 $258 $395 #
vertex $-1 $554 $555 #
ellipse-curve $-1 -10 -10 -35 -0 -1 -0 -3.53553390593274 0 3.53553390593274 1 #
coedge $-1 $553 $556 $260 $403 1 $557 $-1 #
edge $-1 $400 $407 $402 $558 0 #
ellipse-curve $-1 -10 -10 -35 0 0 1 -3.53553390593274 -3.53553390593274 0 1 #
coedge $-1 $559 $262 $556 $560 0 $396 $-1 #
coedge $-1 $262 $561 $264 $410 0 $396 $-1 #
vertex $-1 $263 $562 #
ellipse-curve $-1 -10 -10 -50 0 0 1 -3.53553390593274 -3.53553390593274 0 1 #
coedge $-1 $265 $264 $271 $415 1 $255 $-1 #
edge $-1 $563 $266 $264 $564 0 #
point $-1 -10 -15 -50 #
point $-1 -10 -15 -35 #
straight-curve $-1 0 -15 -35 1 0 0 #
coedge $-1 $416 $271 $561 $565 1 $154 $-1 #
edge $-1 $273 $563 $271 $566 0 #
coedge $-1 $272 $414 $567 $568 1 $154 $-1 #
point $-1 15 -15 -35 #
coedge $-1 $567 $569 $275 $419 1 $570 $-1 #
edge $-1 $420 $423 $418 $571 0 #
vertex $-1 $276 $572 #
straight-curve $-1 15 0 -30 0 1 0 #
coedge $-1 $398 $277 $569 $573 0 $399 $-1 #
vertex $-1 $419 $574 #
straight-curve $-1 -10 0 -30 0 1 0 #
face $-1 $-1 $557 $9 $-1 $575 reversed single #
plane-surface $-1 0 0 -30 0 0 1 1 0 0 0 #
face $-1 $576 $432 $6 $-1 $577 forward single #
cone-surface $-1 0 -60 -5 1 0 0 0 3.53553390593274 -3.53553390593274 1 0 1 0 #
coedge $-1 $578 $438 $285 $430 1 $579 $-1 #
edge $-1 $433 $290 $429 $580 0 #
coedge $-1 $286 $581 $578 $582 0 $432 $-1 #
loop $-1 $-1 $286 $427 #
vertex $-1 $582 $583 #
ellipse-curve $-1 -10 -60 10 -0 -0 -1 -3.53553390593274 3.53553390593274 0 1 #
point $-1 -15 -60 10 #
point $-1 -10 -55 -5 #
coedge $-1 $293 $292 $584 $585 0 $294 $-1 #
coedge $-1 $429 $586 $292 $439 1 $579 $-1 #
edge $-1 $290 $587 $438 $588 0 #
vertex $-1 $296 $589 #
straight-curve $-1 0 -60 -10 -1 -0 -0 #
coedge $-1 $299 $298 $590 $591 0 $283 $-1 #
coedge $-1 $590 $592 $301 $444 0 $593 $-1 #
edge $-1 $594 $445 $443 $595 0 #
vertex $-1 $444 $596 #
straight-curve $-1 0 -85 -10 -1 0 0 #
coedge $-1 $581 $305 $303 $448 0 $432 $-1 #
edge $-1 $307 $594 $303 $597 0 #
straight-curve $-1 -15 -70 10 0 -1 0 #
point $-1 -15 -85 10 #
face $-1 $457 $323 $4 $-1 $598 reversed single #
plane-surface $-1 0 0 10 0 0 1 1 0 0 0 #
coedge $-1 $311 $322 $313 $456 0 $323 $-1 #
straight-curve $-1 -15 0 -5 0 1 0 #
coedge $-1 $326 $313 $467 $599 1 $315 $-1 #
edge $-1 $600 $316 $313 $601 0 #
face $-1 $-1 $315 $4 $-1 $602 reversed single #
point $-1 -15 15 -5 #
straight-curve $-1 0 15 -10 1 0 0 #
coedge $-1 $320 $467 $322 $462 0 $332 $-1 #
ellipse-curve $-1 -10 -10 10 -0 -0 -1 -3.53553390593274 -3.53553390593274 0 1 #
edge $-1 $600 $324 $322 $603 0 #
point $-1 -15 -10 10 #
vertex $-1 $331 $604 #
straight-curve $-1 15 15 0 0 0 -1 #
point $-1 15 15 -10 #
coedge $-1 $460 $330 $455 $599 0 $332 $-1 #
straight-curve $-1 15 0 10 0 1 0 #
face $-1 $605 $606 $136 $-1 $607 forward single #
loop $-1 $-1 $608 $336 #
sphere-surface $-1 -60 -60 -35 5 1 0 0 0 0 1 0 #
coedge $-1 $609 $610 $611 $612 0 $337 $-1 #
face $-1 $613 $614 $79 $-1 $615 reversed single #
loop $-1 $-1 $616 $339 #
sphere-surface $-1 -60 -10 -35 5 1 0 0 0 0 1 0 #
coedge $-1 $617 $618 $619 $620 0 $340 $-1 #
coedge $-1 $621 $342 $622 $623 1 $222 $-1 #
coedge $-1 $342 $621 $624 $625 0 $222 $-1 #
coedge $-1 $626 $627 $342 $480 1 $628 $-1 #
edge $-1 $629 $630 $479 $631 0 #
face $-1 $632 $495 $43 $-1 $633 reversed single #
loop $-1 $-1 $487 $343 #
cone-surface $-1 -60 -70 -5 0 -1 0 3.53553390593274 0 -3.53553390593274 1 0 1 0 #
coedge $-1 $634 $635 $636 $637 0 $344 $-1 #
coedge $-1 $486 $346 $635 $638 1 $225 $-1 #
coedge $-1 $346 $485 $347 $490 0 $225 $-1 #
coedge $-1 $639 $640 $346 $488 1 $482 $-1 #
edge $-1 $497 $641 $487 $642 0 #
coedge $-1 $348 $347 $643 $644 0 $139 $-1 #
edge $-1 $645 $497 $486 $646 0 #
coedge $-1 $647 $648 $348 $492 1 $649 $-1 #
edge $-1 $650 $496 $491 $651 0 #
coedge $-1 $652 $349 $648 $653 1 $495 $-1 #
coedge $-1 $349 $652 $639 $654 1 $495 $-1 #
loop $-1 $-1 $349 $481 #
vertex $-1 $653 $655 #
vertex $-1 $350 $656 #
straight-curve $-1 -55 -60 0 0 0 -1 #
face $-1 $657 $658 $25 $-1 $659 reversed single #
loop $-1 $-1 $359 $351 #
plane-surface $-1 -70 15 0 0 -1 0 0 0 -1 0 #
coedge $-1 $660 $354 $661 $662 0 $229 $-1 #
coedge $-1 $354 $660 $355 $505 0 $229 $-1 #
edge $-1 $364 $663 $362 $664 0 #
edge $-1 $665 $364 $503 $666 0 #
coedge $-1 $667 $668 $356 $507 1 $669 $-1 #
edge $-1 $665 $508 $506 $670 0 #
vertex $-1 $671 $672 #
ellipse-curve $-1 -60 -10 -5 0 -1 0 3.53553390593274 0 -3.53553390593274 1 #
coedge $-1 $673 $674 $358 $511 1 $658 $-1 #
edge $-1 $508 $514 $510 $675 0 #
coedge $-1 $676 $359 $674 $677 1 $500 $-1 #
coedge $-1 $359 $678 $361 $517 0 $500 $-1 #
vertex $-1 $677 $679 #
ellipse-curve $-1 -60 15 -5 0 -1 0 3.53553390593274 0 -3.53553390593274 1 #
coedge $-1 $362 $361 $680 $681 1 $352 $-1 #
edge $-1 $682 $363 $361 $683 0 #
point $-1 -55 15 -5 #
point $-1 -55 -10 -5 #
cone-surface $-1 -10 -60 -40 0 0 -1 -3.53553390593274 3.53553390593274 0 1 0 1 0 #
coedge $-1 $532 $684 $525 $685 1 $367 $-1 #
coedge $-1 $686 $369 $684 $687 0 $237 $-1 #
coedge $-1 $369 $688 $526 $689 1 $237 $-1 #
edge $-1 $690 $528 $369 $691 0 #
coedge $-1 $371 $370 $521 $685 0 $146 $-1 #
coedge $-1 $535 $372 $523 $689 0 $527 $-1 #
loop $-1 $-1 $372 $692 #
vertex $-1 $373 $693 #
straight-curve $-1 -10 -70 -30 0 1 0 #
ellipse-curve $-1 -10 -60 -35 0 -1 0 -3.53553390593274 0 3.53553390593274 1 #
coedge $-1 $376 $375 $694 $695 0 $377 $-1 #
coedge $-1 $696 $521 $376 $533 1 $367 $-1 #
edge $-1 $697 $378 $532 $698 0 #
point $-1 -15 -60 -35 #
coedge $-1 $380 $526 $384 $539 0 $527 $-1 #
straight-curve $-1 0 -60 -30 1 0 0 #
point $-1 -10 -60 -30 #
coedge $-1 $540 $384 $688 $699 0 $386 $-1 #
edge $-1 $700 $387 $384 $701 0 #
coedge $-1 $385 $538 $702 $703 1 $386 $-1 #
face $-1 $-1 $386 $15 $-1 $704 reversed single #
point $-1 15 -60 -30 #
coedge $-1 $702 $694 $389 $544 0 $705 $-1 #
edge $-1 $547 $545 $389 $706 0 #
vertex $-1 $703 $707 #
straight-curve $-1 15 -55 -40 0 0 -1 #
vertex $-1 $695 $708 #
straight-curve $-1 -10 -55 -40 0 0 -1 #
face $-1 $692 $705 $15 $-1 $709 reversed single #
plane-surface $-1 0 -55 -40 0 -1 0 0 0 -1 0 #
face $-1 $279 $570 $9 $-1 $710 reversed single #
cone-surface $-1 -10 0 -35 0 -1 0 -3.53553390593274 0 3.53553390593274 1 0 1 0 #
coedge $-1 $711 $402 $398 $554 1 $557 $-1 #
edge $-1 $712 $400 $553 $713 0 #
point $-1 -15 -10 -35 #
coedge $-1 $402 $711 $405 $560 1 $557 $-1 #
loop $-1 $-1 $402 $425 #
straight-curve $-1 -15 -10 -40 0 0 -1 #
coedge $-1 $561 $405 $714 $715 0 $396 $-1 #
edge $-1 $407 $716 $556 $717 0 #
coedge $-1 $406 $559 $414 $565 0 $396 $-1 #
point $-1 -15 -10 -50 #
vertex $-1 $415 $718 #
straight-curve $-1 0 -15 -50 -1 0 0 #
edge $-1 $719 $563 $414 $720 0 #
straight-curve $-1 15 -15 -40 0 0 -1 #
coedge $-1 $714 $418 $416 $568 0 $570 $-1 #
edge $-1 $420 $719 $416 $721 0 #
coedge $-1 $418 $722 $422 $573 1 $570 $-1 #
loop $-1 $-1 $569 $551 #
straight-curve $-1 0 15 -30 -1 0 0 #
point $-1 15 15 -30 #
edge $-1 $423 $712 $569 $723 0 #
point $-1 -10 15 -30 #
plane-surface $-1 -15 0 -40 1 0 0 0 0 -1 0 #
face $-1 $724 $579 $6 $-1 $725 reversed single #
plane-surface $-1 0 -70 10 0 0 1 1 0 0 0 #
coedge $-1 $586 $429 $431 $582 1 $579 $-1 #
loop $-1 $-1 $429 $576 #
straight-curve $-1 -10 -55 0 0 0 -1 #
coedge $-1 $431 $447 $592 $726 0 $432 $-1 #
edge $-1 $727 $433 $578 $728 0 #
point $-1 -10 -55 10 #
coedge $-1 $729 $590 $437 $585 1 $593 $-1 #
edge $-1 $587 $440 $584 $730 0 #
coedge $-1 $438 $578 $729 $731 0 $579 $-1 #
vertex $-1 $731 $732 #
straight-curve $-1 0 -55 -5 1 0 0 #
point $-1 15 -60 -10 #
coedge $-1 $584 $443 $442 $591 1 $593 $-1 #
edge $-1 $440 $445 $590 $733 0 #
coedge $-1 $443 $729 $581 $726 1 $593 $-1 #
loop $-1 $-1 $584 $724 #
vertex $-1 $726 $734 #
straight-curve $-1 15 -85 0 0 0 -1 #
point $-1 15 -85 -10 #
straight-curve $-1 0 -85 10 1 0 0 #
plane-surface $-1 -15 0 0 1 0 0 0 0 -1 0 #
edge $-1 $464 $600 $455 $735 0 #
vertex $-1 $599 $736 #
straight-curve $-1 -15 15 0 0 0 -1 #
plane-surface $-1 0 15 0 0 -1 0 0 0 -1 0 #
straight-curve $-1 -15 0 10 0 -1 0 #
point $-1 15 15 10 #
face $-1 $737 $738 $136 $-1 $739 reversed single #
loop $-1 $-1 $740 $469 #
cone-surface $-1 -60 -72.5 -35 0 1 0 3.53553390593274 0 3.53553390593274 1 0 1 0 #
coedge $-1 $741 $742 $609 $743 0 $470 $-1 #
coedge $-1 $744 $472 $608 $743 1 $337 $-1 #
coedge $-1 $472 $744 $745 $746 0 $337 $-1 #
coedge $-1 $747 $748 $472 $612 1 $749 $-1 #
edge $-1 $750 $751 $611 $752 0 #
face $-1 $753 $754 $79 $-1 $755 reversed single #
loop $-1 $-1 $756 $473 #
plane-surface $-1 -55 0 -40 -1 0 0 0 0 1 0 #
coedge $-1 $757 $622 $758 $759 0 $474 $-1 #
coedge $-1 $760 $476 $757 $761 1 $340 $-1 #
coedge $-1 $476 $760 $762 $763 0 $340 $-1 #
coedge $-1 $764 $756 $476 $620 1 $614 $-1 #
edge $-1 $765 $766 $619 $767 0 #
coedge $-1 $478 $477 $756 $768 0 $222 $-1 #
coedge $-1 $616 $757 $477 $623 0 $474 $-1 #
edge $-1 $766 $630 $622 $769 0 #
coedge $-1 $770 $771 $478 $625 1 $772 $-1 #
edge $-1 $773 $629 $624 $774 0 #
coedge $-1 $775 $479 $771 $776 0 $628 $-1 #
coedge $-1 $479 $775 $777 $778 1 $628 $-1 #
loop $-1 $-1 $479 $779 #
vertex $-1 $480 $780 #
vertex $-1 $759 $781 #
straight-curve $-1 -60 0 -30 -0 -1 -0 #
face $-1 $782 $649 $43 $-1 $783 forward single #
plane-surface $-1 -55 -70 0 -1 0 0 0 0 1 0 #
coedge $-1 $784 $484 $785 $786 0 $344 $-1 #
coedge $-1 $484 $784 $485 $638 0 $344 $-1 #
coedge $-1 $787 $788 $484 $637 1 $789 $-1 #
edge $-1 $641 $790 $636 $791 0 #
edge $-1 $645 $641 $635 $792 0 #
coedge $-1 $793 $487 $494 $654 0 $482 $-1 #
coedge $-1 $487 $793 $787 $794 0 $482 $-1 #
vertex $-1 $794 $795 #
ellipse-curve $-1 -60 -60 -5 -0 1 -0 3.53553390593274 0 -3.53553390593274 1 #
coedge $-1 $796 $797 $489 $644 1 $798 $-1 #
edge $-1 $645 $650 $643 $799 0 #
vertex $-1 $644 $800 #
ellipse-curve $-1 -60 -60 -5 -0 -0 -1 3.53553390593274 3.53553390593274 0 1 #
coedge $-1 $801 $491 $797 $802 0 $649 $-1 #
coedge $-1 $491 $803 $493 $653 0 $649 $-1 #
loop $-1 $-1 $491 $632 #
vertex $-1 $644 $804 #
ellipse-curve $-1 -60 -60 10 -0 -0 -1 3.53553390593274 3.53553390593274 0 1 #
coedge $-1 $494 $493 $805 $806 0 $495 $-1 #
edge $-1 $807 $496 $493 $808 0 #
edge $-1 $497 $809 $494 $810 0 #
point $-1 -55 -60 10 #
point $-1 -55 -60 -5 #
face $-1 $811 $669 $25 $-1 $812 forward single #
loop $-1 $-1 $510 $499 #
plane-surface $-1 -70 0 -10 0 0 1 1 0 0 0 #
coedge $-1 $503 $502 $813 $814 0 $229 $-1 #
coedge $-1 $680 $815 $502 $662 1 $816 $-1 #
edge $-1 $663 $817 $661 $818 0 #
vertex $-1 $662 $819 #
straight-curve $-1 -55 -10 0 0 0 1 #
vertex $-1 $507 $820 #
ellipse-curve $-1 -60 -10 -5 0 0 1 3.53553390593274 -3.53553390593274 0 1 #
coedge $-1 $821 $506 $822 $823 0 $669 $-1 #
coedge $-1 $506 $821 $673 $671 0 $669 $-1 #
loop $-1 $-1 $506 $657 #
ellipse-curve $-1 -60 -10 -5 1 -0 -0 0 -3.53553390593274 -3.53553390593274 1 #
edge $-1 $824 $508 $673 $825 0 #
point $-1 -60 -10 -10 #
coedge $-1 $826 $510 $668 $671 1 $658 $-1 #
coedge $-1 $510 $826 $512 $677 0 $658 $-1 #
straight-curve $-1 -60 0 -10 0 1 0 #
coedge $-1 $678 $512 $827 $828 1 $500 $-1 #
edge $-1 $829 $514 $512 $830 0 #
coedge $-1 $513 $676 $831 $832 1 $500 $-1 #
point $-1 -60 15 -10 #
coedge $-1 $831 $661 $516 $681 0 $816 $-1 #
edge $-1 $663 $682 $516 $833 0 #
vertex $-1 $681 $834 #
straight-curve $-1 -55 15 0 0 0 -1 #
coedge $-1 $521 $696 $522 $687 1 $367 $-1 #
edge $-1 $378 $690 $521 $835 0 #
coedge $-1 $688 $522 $836 $837 1 $237 $-1 #
edge $-1 $690 $838 $684 $839 0 #
coedge $-1 $523 $686 $538 $699 1 $237 $-1 #
edge $-1 $528 $700 $523 $840 0 #
vertex $-1 $685 $841 #
ellipse-curve $-1 -10 -85 -35 0 1 0 -3.53553390593274 0 3.53553390593274 1 #
face $-1 $541 $527 $15 $-1 $842 forward single #
point $-1 -10 -85 -30 #
coedge $-1 $543 $843 $531 $695 1 $705 $-1 #
edge $-1 $547 $697 $694 $844 0 #
coedge $-1 $684 $532 $843 $845 1 $367 $-1 #
vertex $-1 $845 $846 #
straight-curve $-1 -15 -60 -40 0 0 1 #
edge $-1 $700 $847 $538 $848 0 #
vertex $-1 $539 $849 #
straight-curve $-1 15 -70 -30 0 1 0 #
coedge $-1 $836 $543 $540 $703 0 $705 $-1 #
edge $-1 $545 $847 $540 $850 0 #
plane-surface $-1 15 -70 -40 -1 0 0 0 0 1 0 #
loop $-1 $-1 $694 $549 #
straight-curve $-1 0 -55 -50 1 0 0 #
point $-1 15 -55 -50 #
point $-1 -10 -55 -50 #
plane-surface $-1 0 -70 -50 0 0 1 1 0 0 0 #
plane-surface $-1 0 15 -40 0 -1 0 0 0 -1 0 #
coedge $-1 $556 $553 $722 $851 0 $557 $-1 #
vertex $-1 $573 $852 #
straight-curve $-1 -15 0 -35 0 -1 0 #
coedge $-1 $722 $567 $559 $715 1 $570 $-1 #
edge $-1 $716 $719 $714 $853 0 #
vertex $-1 $715 $854 #
straight-curve $-1 -15 0 -50 0 1 0 #
point $-1 15 -15 -50 #
vertex $-1 $565 $855 #
straight-curve $-1 15 0 -50 0 -1 0 #
straight-curve $-1 15 15 -40 0 0 -1 #
coedge $-1 $569 $714 $711 $851 1 $570 $-1 #
ellipse-curve $-1 -10 15 -35 0 -1 0 -3.53553390593274 0 3.53553390593274 1 #
face $-1 $-1 $593 $6 $-1 $856 reversed single #
plane-surface $-1 0 -55 0 0 -1 0 0 0 -1 0 #
edge $-1 $594 $727 $592 $857 0 #
vertex $-1 $726 $858 #
straight-curve $-1 0 -55 10 -1 0 0 #
coedge $-1 $592 $584 $586 $731 1 $593 $-1 #
ellipse-curve $-1 15 -60 -5 -1 0 0 0 3.53553390593274 -3.53553390593274 1 #
edge $-1 $727 $587 $729 $859 0 #
point $-1 15 -55 -5 #
straight-curve $-1 15 -70 -10 0 -1 0 #
point $-1 15 -85 10 #
straight-curve $-1 0 15 10 -1 0 0 #
point $-1 -15 15 10 #
face $-1 $860 $861 $136 $-1 $862 reversed single #
loop $-1 $-1 $863 $605 #
plane-surface $-1 -55 -70 -40 -1 0 0 0 0 1 0 #
coedge $-1 $864 $865 $748 $866 0 $606 $-1 #
coedge $-1 $742 $608 $865 $867 1 $470 $-1 #
coedge $-1 $608 $741 $868 $869 0 $470 $-1 #
edge $-1 $870 $751 $608 $871 0 #
coedge $-1 $610 $609 $872 $873 0 $337 $-1 #
coedge $-1 $874 $875 $610 $746 1 $876 $-1 #
edge $-1 $877 $750 $745 $878 0 #
coedge $-1 $879 $611 $875 $880 0 $749 $-1 #
coedge $-1 $611 $879 $740 $866 1 $749 $-1 #
loop $-1 $-1 $748 $860 #
vertex $-1 $612 $881 #
vertex $-1 $612 $882 #
straight-curve $-1 -70 -60 -30 1 0 0 #
face $-1 $883 $884 $79 $-1 $885 reversed single #
loop $-1 $-1 $762 $613 #
plane-surface $-1 -70 0 -50 0 0 1 1 0 0 0 #
coedge $-1 $619 $886 $621 $768 1 $614 $-1 #
coedge $-1 $622 $616 $617 $761 0 $474 $-1 #
coedge $-1 $777 $887 $616 $759 1 $888 $-1 #
edge $-1 $630 $889 $758 $890 0 #
coedge $-1 $618 $617 $891 $892 0 $340 $-1 #
edge $-1 $889 $766 $757 $893 0 #
coedge $-1 $894 $895 $618 $763 1 $754 $-1 #
edge $-1 $896 $765 $762 $897 0 #
coedge $-1 $886 $619 $895 $898 1 $614 $-1 #
vertex $-1 $898 $899 #
vertex $-1 $768 $900 #
straight-curve $-1 -55 -10 -40 0 0 1 #
edge $-1 $766 $773 $756 $901 0 #
ellipse-curve $-1 -60 -10 -35 -0 -1 -0 3.53553390593274 0 3.53553390593274 1 #
coedge $-1 $902 $624 $886 $903 0 $772 $-1 #
coedge $-1 $624 $904 $626 $776 1 $772 $-1 #
loop $-1 $-1 $624 $905 #
vertex $-1 $625 $906 #
ellipse-curve $-1 -60 15 -35 0 -1 0 3.53553390593274 0 3.53553390593274 1 #
coedge $-1 $627 $626 $907 $908 0 $628 $-1 #
edge $-1 $629 $909 $771 $910 0 #
coedge $-1 $911 $758 $627 $778 0 $888 $-1 #
edge $-1 $630 $912 $627 $913 0 #
face $-1 $914 $628 $79 $-1 $915 forward single #
point $-1 -60 15 -30 #
point $-1 -60 -10 -30 #
face $-1 $916 $798 $43 $-1 $917 reversed single #
plane-surface $-1 -70 -70 10 0 0 1 1 0 0 0 #
coedge $-1 $635 $634 $796 $918 0 $344 $-1 #
coedge $-1 $919 $920 $634 $786 1 $921 $-1 #
edge $-1 $790 $922 $785 $923 0 #
coedge $-1 $924 $636 $640 $794 1 $789 $-1 #
coedge $-1 $636 $924 $919 $925 0 $789 $-1 #
loop $-1 $-1 $636 $916 #
vertex $-1 $925 $926 #
straight-curve $-1 -70 -60 -10 -1 -0 -0 #
ellipse-curve $-1 -60 -60 -5 -1 -0 -0 0 3.53553390593274 -3.53553390593274 1 #
coedge $-1 $640 $639 $927 $928 0 $482 $-1 #
edge $-1 $929 $641 $787 $930 0 #
point $-1 -60 -60 -10 #
coedge $-1 $931 $643 $784 $918 1 $798 $-1 #
coedge $-1 $643 $931 $647 $802 1 $798 $-1 #
loop $-1 $-1 $796 $782 #
straight-curve $-1 -60 -55 0 0 0 1 #
point $-1 -60 -55 -5 #
coedge $-1 $803 $647 $932 $933 0 $649 $-1 #
edge $-1 $650 $934 $797 $935 0 #
coedge $-1 $648 $801 $936 $937 0 $649 $-1 #
point $-1 -60 -55 10 #
coedge $-1 $936 $927 $652 $806 1 $938 $-1 #
edge $-1 $807 $809 $652 $939 0 #
vertex $-1 $653 $940 #
straight-curve $-1 -55 -70 10 0 1 0 #
vertex $-1 $806 $941 #
straight-curve $-1 -55 -70 -5 0 -1 0 #
face $-1 $942 $943 $25 $-1 $944 reversed single #
cone-surface $-1 -70 -10 -5 -1 -0 -0 0 -3.53553390593274 -3.53553390593274 1 0 1 0 #
coedge $-1 $945 $822 $660 $814 1 $946 $-1 #
edge $-1 $817 $665 $813 $947 0 #
coedge $-1 $661 $948 $945 $949 0 $816 $-1 #
loop $-1 $-1 $661 $950 #
vertex $-1 $949 $951 #
ellipse-curve $-1 -60 -10 10 -0 -0 -1 3.53553390593274 -3.53553390593274 0 1 #
point $-1 -55 -10 10 #
point $-1 -60 -15 -5 #
coedge $-1 $668 $667 $952 $953 0 $669 $-1 #
coedge $-1 $813 $954 $667 $823 1 $946 $-1 #
edge $-1 $665 $955 $822 $956 0 #
vertex $-1 $953 $957 #
straight-curve $-1 -70 -10 -10 1 0 0 #
coedge $-1 $674 $673 $958 $959 0 $658 $-1 #
coedge $-1 $958 $960 $676 $828 0 $943 $-1 #
edge $-1 $961 $829 $676 $962 0 #
vertex $-1 $677 $963 #
straight-curve $-1 -70 15 -10 1 0 0 #
coedge $-1 $948 $680 $678 $832 0 $816 $-1 #
edge $-1 $682 $961 $678 $964 0 #
straight-curve $-1 -55 0 10 0 1 0 #
point $-1 -55 15 10 #
straight-curve $-1 -15 -70 -35 0 -1 0 #
coedge $-1 $843 $702 $686 $837 0 $705 $-1 #
edge $-1 $847 $838 $686 $965 0 #
vertex $-1 $845 $966 #
straight-curve $-1 -15 -85 -40 0 0 -1 #
straight-curve $-1 0 -85 -30 1 0 0 #
point $-1 -15 -85 -35 #
plane-surface $-1 0 -70 -30 0 0 1 1 0 0 0 #
coedge $-1 $694 $836 $696 $845 0 $705 $-1 #
ellipse-curve $-1 -10 -60 -50 0 0 1 -3.53553390593274 3.53553390593274 0 1 #
edge $-1 $838 $697 $696 $967 0 #
point $-1 -15 -60 -50 #
vertex $-1 $699 $968 #
straight-curve $-1 15 -85 -40 0 0 -1 #
point $-1 15 -85 -30 #
straight-curve $-1 15 -70 -50 0 -1 0 #
edge $-1 $712 $716 $722 $969 0 #
point $-1 -15 15 -35 #
straight-curve $-1 0 15 -50 1 0 0 #
point $-1 -15 15 -50 #
point $-1 15 15 -50 #
plane-surface $-1 15 -70 0 -1 0 0 0 0 1 0 #
straight-curve $-1 15 -70 10 0 1 0 #
point $-1 15 -55 10 #
straight-curve $-1 15 -55 0 0 0 -1 #
face $-1 $970 $749 $136 $-1 $971 forward single #
loop $-1 $-1 $972 $737 #
plane-surface $-1 -70 -85 -40 0 1 0 0 0 1 0 #
coedge $-1 $973 $974 $975 $976 1 $738 $-1 #
coedge $-1 $975 $740 $972 $977 0 $606 $-1 #
coedge $-1 $740 $975 $741 $867 0 $606 $-1 #
edge $-1 $751 $978 $748 $979 0 #
edge $-1 $980 $751 $865 $981 0 #
coedge $-1 $982 $983 $742 $869 1 $984 $-1 #
edge $-1 $980 $870 $868 $985 0 #
vertex $-1 $986 $987 #
ellipse-curve $-1 -60 -60 -35 1 0 0 0 3.53553390593274 3.53553390593274 1 #
coedge $-1 $988 $989 $744 $873 1 $990 $-1 #
edge $-1 $870 $877 $872 $991 0 #
coedge $-1 $992 $745 $989 $993 0 $876 $-1 #
coedge $-1 $745 $994 $747 $880 1 $876 $-1 #
loop $-1 $-1 $745 $995 #
vertex $-1 $746 $996 #
ellipse-curve $-1 -85 -60 -35 1 0 0 0 3.53553390593274 3.53553390593274 1 #
coedge $-1 $748 $747 $997 $998 0 $749 $-1 #
edge $-1 $750 $999 $875 $1000 0 #
point $-1 -85 -60 -30 #
point $-1 -60 -60 -30 #
face $-1 $779 $888 $79 $-1 $1001 forward single #
loop $-1 $-1 $891 $753 #
plane-surface $-1 -70 -15 -40 0 1 0 0 0 1 0 #
coedge $-1 $756 $764 $770 $903 1 $614 $-1 #
coedge $-1 $758 $911 $1002 $1003 0 $888 $-1 #
loop $-1 $-1 $758 $883 #
vertex $-1 $1003 $1004 #
ellipse-curve $-1 -60 -10 -35 1 -0 -0 0 -3.53553390593274 3.53553390593274 1 #
coedge $-1 $1002 $1005 $760 $892 1 $884 $-1 #
edge $-1 $889 $896 $891 $1006 0 #
ellipse-curve $-1 -60 -10 -35 0 0 1 3.53553390593274 -3.53553390593274 0 1 #
coedge $-1 $1007 $762 $1005 $1008 0 $754 $-1 #
coedge $-1 $762 $1009 $764 $898 0 $754 $-1 #
vertex $-1 $892 $1010 #
ellipse-curve $-1 -60 -10 -50 0 0 1 3.53553390593274 -3.53553390593274 0 1 #
edge $-1 $1011 $765 $764 $1012 0 #
point $-1 -55 -10 -50 #
point $-1 -55 -10 -35 #
straight-curve $-1 -55 0 -35 0 1 0 #
coedge $-1 $904 $770 $1009 $1013 1 $772 $-1 #
edge $-1 $773 $1011 $886 $1014 0 #
coedge $-1 $771 $902 $1015 $1016 1 $772 $-1 #
face $-1 $-1 $772 $79 $-1 $1017 reversed single #
point $-1 -55 15 -35 #
coedge $-1 $1015 $1018 $775 $908 1 $1019 $-1 #
edge $-1 $909 $912 $907 $1020 0 #
vertex $-1 $776 $1021 #
straight-curve $-1 -70 15 -30 -1 0 0 #
coedge $-1 $887 $777 $1018 $1022 0 $888 $-1 #
vertex $-1 $908 $1023 #
straight-curve $-1 -70 -10 -30 -1 -0 -0 #
face $-1 $905 $1019 $79 $-1 $1024 reversed single #
plane-surface $-1 -70 0 -30 0 0 1 1 0 0 0 #
face $-1 $1025 $789 $43 $-1 $1026 reversed single #
plane-surface $-1 -70 -55 0 0 -1 0 0 0 -1 0 #
edge $-1 $922 $645 $796 $1027 0 #
coedge $-1 $1028 $785 $788 $925 1 $921 $-1 #
coedge $-1 $785 $932 $931 $1029 0 $921 $-1 #
loop $-1 $-1 $785 $1030 #
vertex $-1 $1029 $1031 #
ellipse-curve $-1 -85 -60 -5 1 0 0 0 3.53553390593274 -3.53553390593274 1 #
coedge $-1 $788 $787 $1032 $1033 0 $789 $-1 #
edge $-1 $1034 $790 $919 $1035 0 #
point $-1 -85 -60 -10 #
coedge $-1 $805 $1032 $793 $928 1 $938 $-1 #
edge $-1 $809 $929 $927 $1036 0 #
vertex $-1 $794 $1037 #
straight-curve $-1 -60 -70 -10 0 1 0 #
coedge $-1 $797 $796 $920 $1029 1 $798 $-1 #
coedge $-1 $920 $1028 $801 $933 1 $921 $-1 #
edge $-1 $934 $1038 $932 $1039 0 #
vertex $-1 $802 $1040 #
straight-curve $-1 -70 -55 10 -1 0 0 #
coedge $-1 $1041 $805 $803 $937 1 $938 $-1 #
edge $-1 $1038 $807 $936 $1042 0 #
loop $-1 $-1 $927 $1025 #
straight-curve $-1 -55 -85 0 0 0 -1 #
point $-1 -55 -85 10 #
point $-1 -55 -85 -5 #
face $-1 $950 $946 $25 $-1 $1043 reversed single #
loop $-1 $-1 $952 $811 #
plane-surface $-1 -85 0 0 1 0 0 0 0 -1 0 #
coedge $-1 $954 $813 $815 $949 1 $946 $-1 #
loop $-1 $-1 $813 $942 #
straight-curve $-1 -60 -15 0 0 0 -1 #
coedge $-1 $815 $831 $960 $1044 0 $816 $-1 #
edge $-1 $1045 $817 $945 $1046 0 #
face $-1 $-1 $816 $25 $-1 $1047 forward single #
point $-1 -60 -15 10 #
coedge $-1 $1048 $958 $821 $953 1 $943 $-1 #
edge $-1 $955 $824 $952 $1049 0 #
coedge $-1 $822 $945 $1048 $1050 0 $946 $-1 #
vertex $-1 $1050 $1051 #
straight-curve $-1 -70 -15 -5 -1 0 0 #
point $-1 -85 -10 -10 #
coedge $-1 $952 $827 $826 $959 1 $943 $-1 #
edge $-1 $824 $829 $958 $1052 0 #
coedge $-1 $827 $1048 $948 $1044 1 $943 $-1 #
vertex $-1 $832 $1053 #
straight-curve $-1 -85 15 0 0 0 -1 #
point $-1 -85 15 -10 #
straight-curve $-1 -70 15 10 -1 0 0 #
straight-curve $-1 0 -85 -50 -1 0 0 #
point $-1 -15 -85 -50 #
straight-curve $-1 -15 -70 -50 0 1 0 #
point $-1 15 -85 -50 #
straight-curve $-1 -15 15 -40 0 0 -1 #
face $-1 $1054 $984 $136 $-1 $1055 forward single #
plane-surface $-1 -70 -70 -30 0 0 1 1 0 0 0 #
coedge $-1 $997 $1056 $864 $977 1 $861 $-1 #
coedge $-1 $1057 $863 $1056 $1058 0 $738 $-1 #
coedge $-1 $863 $1057 $982 $1059 1 $738 $-1 #
coedge $-1 $865 $864 $863 $976 0 $606 $-1 #
edge $-1 $1060 $980 $863 $1061 0 #
edge $-1 $978 $1060 $972 $1062 0 #
vertex $-1 $998 $1063 #
straight-curve $-1 -60 -70 -30 -0 -1 -0 #
vertex $-1 $869 $1064 #
ellipse-curve $-1 -60 -60 -35 -0 -1 -0 3.53553390593274 0 3.53553390593274 1 #
coedge $-1 $1065 $868 $974 $1059 0 $984 $-1 #
coedge $-1 $868 $1065 $988 $986 0 $984 $-1 #
loop $-1 $-1 $868 $970 #
ellipse-curve $-1 -60 -60 -35 0 0 1 3.53553390593274 3.53553390593274 0 1 #
edge $-1 $1066 $870 $988 $1067 0 #
point $-1 -60 -55 -35 #
coedge $-1 $1068 $872 $983 $986 1 $990 $-1 #
coedge $-1 $872 $1068 $874 $993 1 $990 $-1 #
loop $-1 $-1 $872 $1054 #
straight-curve $-1 -70 -55 -35 -1 0 0 #
coedge $-1 $994 $874 $1069 $1070 1 $876 $-1 #
edge $-1 $877 $1071 $989 $1072 0 #
coedge $-1 $875 $992 $1073 $1074 1 $876 $-1 #
face $-1 $-1 $876 $136 $-1 $1075 reversed single #
point $-1 -85 -55 -35 #
coedge $-1 $1073 $972 $879 $998 1 $861 $-1 #
edge $-1 $999 $978 $997 $1076 0 #
vertex $-1 $880 $1077 #
straight-curve $-1 -85 -70 -30 0 -1 0 #
cone-surface $-1 -70 -10 -35 1 0 0 0 -3.53553390593274 3.53553390593274 1 0 1 0 #
coedge $-1 $1078 $891 $887 $1003 1 $884 $-1 #
edge $-1 $1079 $889 $1002 $1080 0 #
point $-1 -60 -15 -35 #
coedge $-1 $891 $1078 $894 $1008 1 $884 $-1 #
straight-curve $-1 -60 -15 -40 0 0 -1 #
coedge $-1 $1009 $894 $1081 $1082 0 $754 $-1 #
edge $-1 $896 $1083 $1005 $1084 0 #
coedge $-1 $895 $1007 $902 $1013 0 $754 $-1 #
point $-1 -60 -15 -50 #
vertex $-1 $898 $1085 #
straight-curve $-1 -55 0 -50 0 -1 0 #
edge $-1 $1086 $1011 $902 $1087 0 #
straight-curve $-1 -55 15 -40 0 0 -1 #
coedge $-1 $1081 $907 $904 $1016 0 $1019 $-1 #
edge $-1 $909 $1086 $904 $1088 0 #
plane-surface $-1 -70 15 -40 0 -1 0 0 0 -1 0 #
coedge $-1 $907 $1089 $911 $1022 1 $1019 $-1 #
loop $-1 $-1 $1018 $914 #
straight-curve $-1 -85 0 -30 0 -1 0 #
point $-1 -85 15 -30 #
edge $-1 $912 $1079 $1018 $1090 0 #
point $-1 -85 -10 -30 #
plane-surface $-1 -85 0 -40 1 0 0 0 0 -1 0 #
face $-1 $1030 $938 $43 $-1 $1091 reversed single #
plane-surface $-1 -70 -70 -10 0 0 1 1 0 0 0 #
straight-curve $-1 -70 -55 -5 1 0 0 #
coedge $-1 $932 $919 $1041 $1092 1 $921 $-1 #
edge $-1 $934 $922 $931 $1093 0 #
face $-1 $-1 $921 $43 $-1 $1094 reversed single #
point $-1 -85 -55 -5 #
coedge $-1 $927 $1041 $924 $1033 1 $938 $-1 #
edge $-1 $929 $1034 $1032 $1095 0 #
vertex $-1 $925 $1096 #
straight-curve $-1 -85 -70 -10 0 1 0 #
ellipse-curve $-1 -60 -85 -5 0 1 0 3.53553390593274 0 -3.53553390593274 1 #
point $-1 -60 -85 -10 #
vertex $-1 $933 $1097 #
straight-curve $-1 -85 -70 10 0 -1 0 #
point $-1 -85 -55 10 #
coedge $-1 $1032 $936 $1028 $1092 0 $938 $-1 #
straight-curve $-1 -70 -85 10 1 0 0 #
plane-surface $-1 -70 -15 0 0 1 0 0 0 1 0 #
edge $-1 $961 $1045 $960 $1098 0 #
vertex $-1 $1044 $1099 #
straight-curve $-1 -70 -15 10 1 0 0 #
plane-surface $-1 -70 0 10 0 0 1 1 0 0 0 #
coedge $-1 $960 $952 $954 $1050 1 $943 $-1 #
ellipse-curve $-1 -85 -10 -5 1 0 0 0 -3.53553390593274 -3.53553390593274 1 #
edge $-1 $1045 $955 $1048 $1100 0 #
point $-1 -85 -15 -5 #
straight-curve $-1 -85 0 -10 0 1 0 #
point $-1 -85 15 10 #
face $-1 $1101 $990 $136 $-1 $1102 reversed single #
cone-surface $-1 -60 -60 -40 0 0 -1 3.53553390593274 3.53553390593274 0 1 0 1 0 #
coedge $-1 $972 $1103 $973 $1058 1 $861 $-1 #
coedge $-1 $974 $973 $1104 $1105 1 $738 $-1 #
edge $-1 $1060 $1106 $973 $1107 0 #
edge $-1 $980 $1108 $974 $1109 0 #
vertex $-1 $977 $1110 #
straight-curve $-1 -55 -70 -35 0 1 0 #
ellipse-curve $-1 -60 -85 -35 0 1 0 3.53553390593274 0 3.53553390593274 1 #
point $-1 -60 -85 -30 #
point $-1 -55 -60 -35 #
coedge $-1 $983 $982 $1111 $1112 0 $984 $-1 #
vertex $-1 $1113 $1114 #
straight-curve $-1 -60 -55 -40 0 0 1 #
coedge $-1 $989 $988 $1115 $1113 1 $990 $-1 #
coedge $-1 $1115 $1116 $992 $1070 0 $1117 $-1 #
edge $-1 $1118 $1071 $992 $1119 0 #
vertex $-1 $1113 $1120 #
straight-curve $-1 -85 -55 -40 0 0 -1 #
coedge $-1 $1103 $997 $994 $1074 0 $861 $-1 #
edge $-1 $999 $1118 $994 $1121 0 #
plane-surface $-1 -85 -70 -40 1 0 0 0 0 -1 0 #
straight-curve $-1 -70 -85 -30 1 0 0 #
point $-1 -85 -85 -30 #
coedge $-1 $1005 $1002 $1089 $1122 0 $884 $-1 #
vertex $-1 $1003 $1123 #
straight-curve $-1 -70 -15 -35 1 0 0 #
coedge $-1 $1089 $1015 $1007 $1082 1 $1019 $-1 #
edge $-1 $1083 $1086 $1081 $1124 0 #
vertex $-1 $1082 $1125 #
straight-curve $-1 -70 -15 -50 -1 0 0 #
point $-1 -55 15 -50 #
vertex $-1 $1013 $1126 #
straight-curve $-1 -70 15 -50 1 0 0 #
straight-curve $-1 -85 15 -40 0 0 -1 #
coedge $-1 $1018 $1081 $1078 $1122 1 $1019 $-1 #
ellipse-curve $-1 -85 -10 -35 1 0 0 0 -3.53553390593274 3.53553390593274 1 #
plane-surface $-1 -70 -85 0 0 1 0 0 0 1 0 #
edge $-1 $1038 $1034 $1028 $1127 0 #
straight-curve $-1 -85 -55 0 0 0 -1 #
plane-surface $-1 -85 -70 0 1 0 0 0 0 -1 0 #
straight-curve $-1 -70 -85 -10 -1 0 0 #
point $-1 -85 -85 -10 #
point $-1 -85 -85 10 #
straight-curve $-1 -85 0 10 0 -1 0 #
point $-1 -85 -15 10 #
straight-curve $-1 -85 -15 0 0 0 -1 #
face $-1 $995 $1117 $136 $-1 $1128 reversed single #
plane-surface $-1 -70 -55 -40 0 -1 0 0 0 -1 0 #
coedge $-1 $1056 $1073 $1116 $1129 1 $861 $-1 #
coedge $-1 $1116 $1111 $1057 $1105 0 $1117 $-1 #
edge $-1 $1108 $1106 $1057 $1130 0 #
vertex $-1 $1058 $1131 #
straight-curve $-1 -55 -85 -40 0 0 -1 #
vertex $-1 $1112 $1132 #
straight-curve $-1 -55 -60 -40 0 0 -1 #
point $-1 -55 -85 -35 #
coedge $-1 $1104 $1115 $1065 $1112 1 $1117 $-1 #
edge $-1 $1108 $1066 $1111 $1133 0 #
edge $-1 $1071 $1066 $1068 $1134 0 #
point $-1 -60 -55 -50 #
coedge $-1 $1111 $1069 $1068 $1113 0 $1117 $-1 #
coedge $-1 $1069 $1104 $1103 $1129 0 $1117 $-1 #
loop $-1 $-1 $1111 $1101 #
vertex $-1 $1070 $1135 #
straight-curve $-1 -85 -70 -50 0 1 0 #
point $-1 -85 -55 -50 #
straight-curve $-1 -85 -85 -40 0 0 -1 #
edge $-1 $1079 $1083 $1089 $1136 0 #
point $-1 -85 -15 -35 #
straight-curve $-1 -85 0 -50 0 1 0 #
point $-1 -85 -15 -50 #
point $-1 -85 15 -50 #
straight-curve $-1 -85 -85 0 0 0 -1 #
plane-surface $-1 -70 -70 -50 0 0 1 1 0 0 0 #
edge $-1 $1106 $1118 $1103 $1137 0 #
straight-curve $-1 -55 -70 -50 0 -1 0 #
point $-1 -55 -85 -50 #
point $-1 -55 -60 -50 #
ellipse-curve $-1 -60 -60 -50 0 0 1 3.53553390593274 3.53553390593274 0 1 #
straight-curve $-1 -70 -55 -50 1 0 0 #
point $-1 -85 -85 -50 #
straight-curve $-1 -85 -15 -40 0 0 -1 #
straight-curve $-1 -70 -85 -50 -1 0 0 #
