600 0 1 0           
85 GICL ACIS Healer - Source: /gicl/data5/repository/UMD/tmp/8notches/8notches.sat - 6 0 18 ACIS 6.0.3 Solaris 24 Sun Apr 14 00:34:13 2002 
1 9.999999999999999547e-07 1.000000000000000036e-10 
body $-1 $1 $-1 $-1 #
lump $-1 $2 $3 $0 #
lump $-1 $4 $5 $0 #
shell $-1 $-1 $-1 $6 $-1 $1 #
lump $-1 $7 $8 $0 #
shell $-1 $-1 $-1 $9 $-1 $2 #
face $-1 $10 $11 $3 $-1 $12 forward single #
lump $-1 $13 $14 $0 #
shell $-1 $-1 $-1 $15 $-1 $4 #
face $-1 $16 $17 $5 $-1 $18 forward single #
face $-1 $19 $20 $3 $-1 $21 forward single #
loop $-1 $-1 $22 $6 #
cone-surface $-1 37.5 25 15 -1 -0 -0 0 -3.535533905932739973 -3.535533905932739973 1 I I 0 1 5.000000000000003553 forward I I I I #
lump $-1 $23 $24 $0 #
shell $-1 $-1 $-1 $25 $-1 $7 #
face $-1 $26 $27 $8 $-1 $28 forward single #
face $-1 $29 $30 $5 $-1 $31 forward single #
loop $-1 $-1 $32 $9 #
cone-surface $-1 25 -37.5 15 0 1 0 -3.535533905932739973 0 -3.535533905932739973 1 I I 0 1 5.000000000000003553 forward I I I I #
face $-1 $33 $34 $3 $-1 $35 forward single #
loop $-1 $-1 $36 $10 #
sphere-surface $-1 25 25 15 5 1 0 0 0 0 1 forward_v I I I I #
coedge $-1 $37 $38 $39 $40 forward $11 $-1 #
lump $-1 $41 $42 $0 #
shell $-1 $-1 $-1 $43 $-1 $13 #
face $-1 $44 $45 $14 $-1 $46 forward single #
face $-1 $47 $48 $8 $-1 $49 forward single #
loop $-1 $-1 $50 $15 #
cone-surface $-1 37.5 25 -15 1 0 0 0 -3.535533905932739973 3.535533905932739973 1 I I 0 1 5.000000000000003553 forward I I I I #
face $-1 $51 $52 $5 $-1 $53 forward single #
loop $-1 $-1 $54 $16 #
sphere-surface $-1 25 -25 15 5 1 0 0 0 0 1 forward_v I I I I #
coedge $-1 $55 $56 $57 $58 forward $17 $-1 #
face $-1 $59 $60 $3 $-1 $61 forward single #
loop $-1 $-1 $62 $19 #
cone-surface $-1 25 37.5 15 0 1 0 -3.535533905932739973 0 -3.535533905932739973 1 I I 0 1 5.000000000000003553 forward I I I I #
coedge $-1 $63 $64 $65 $66 forward $20 $-1 #
coedge $-1 $67 $22 $64 $68 reversed $11 $-1 #
coedge $-1 $22 $67 $69 $70 forward $11 $-1 #
coedge $-1 $71 $72 $22 $40 reversed $73 $-1 #
edge $-1 $74 -15 $75 10 $39 $76 forward 7 unknown #
lump $-1 $77 $78 $0 #
shell $-1 $-1 $-1 $79 $-1 $23 #
face $-1 $80 $81 $24 $-1 $82 forward single #
face $-1 $83 $84 $14 $-1 $85 forward single #
loop $-1 $-1 $86 $25 #
cone-surface $-1 37.5 -25 -15 -1 0 0 0 3.535533905932739973 3.535533905932739973 1 I I 0 1 5.000000000000003553 forward I I I I #
face $-1 $87 $88 $8 $-1 $89 forward single #
loop $-1 $-1 $90 $26 #
cone-surface $-1 25 25 -22.5 -0 -0 -1 -3.535533905932739973 -3.535533905932739973 0 1 I I 0 1 5.000000000000003553 forward I I I I #
coedge $-1 $91 $92 $93 $94 forward $27 $-1 #
face $-1 $95 $96 $5 $-1 $97 reversed single #
loop $-1 $-1 $98 $29 #
cone-surface $-1 25 -25 22.5 0 0 -1 -3.535533905932739973 3.535533905932739973 0 1 I I 0 1 5.000000000000003553 forward I I I I #
coedge $-1 $99 $100 $55 $101 forward $30 $-1 #
coedge $-1 $102 $32 $54 $101 reversed $17 $-1 #
coedge $-1 $32 $102 $103 $104 forward $17 $-1 #
coedge $-1 $105 $106 $32 $58 reversed $96 $-1 #
edge $-1 $107 -15 $108 10 $57 $109 forward 7 unknown #
face $-1 $110 $73 $3 $-1 $111 reversed single #
loop $-1 $-1 $65 $33 #
cone-surface $-1 25 25 20 -0 -0 -1 -3.535533905932739973 -3.535533905932739973 0 1 I I 0 1 5.000000000000003553 forward I I I I #
coedge $-1 $112 $113 $114 $115 forward $34 $-1 #
coedge $-1 $64 $36 $112 $116 reversed $20 $-1 #
coedge $-1 $36 $63 $37 $68 forward $20 $-1 #
coedge $-1 $117 $118 $36 $66 reversed $60 $-1 #
edge $-1 $75 -0.785398163397448279 $119 0.785398163397448279 $65 $120 forward 7 unknown #
coedge $-1 $38 $37 $121 $122 forward $11 $-1 #
edge $-1 $123 -0.785398163397448279 $75 0.785398163397448279 $64 $124 forward 7 unknown #
coedge $-1 $125 $126 $38 $70 reversed $127 $-1 #
edge $-1 $128 -0.785398163397448279 $74 0.785398163397448279 $69 $129 forward 7 unknown #
coedge $-1 $130 $39 $126 $131 reversed $73 $-1 #
coedge $-1 $39 $130 $117 $132 reversed $73 $-1 #
loop $-1 $-1 $39 $59 #
vertex $-1 $131 $133 #
vertex $-1 $40 $134 #
straight-curve $-1 35 20 15 -1 0 0 I I #
lump $-1 $-1 $135 $0 #
shell $-1 $-1 $-1 $136 $-1 $41 #
face $-1 $137 $138 $42 $-1 $139 forward single #
face $-1 $140 $141 $24 $-1 $142 forward single #
loop $-1 $-1 $143 $43 #
cone-surface $-1 -25 37.5 15 0 -1 0 3.535533905932739973 0 -3.535533905932739973 1 I I 0 1 5.000000000000003553 forward I I I I #
face $-1 $144 $145 $14 $-1 $146 forward single #
loop $-1 $-1 $147 $44 #
sphere-surface $-1 25 -25 -15 5 1 0 0 0 0 1 forward_v I I I I #
coedge $-1 $148 $149 $150 $151 forward $45 $-1 #
face $-1 $152 $153 $8 $-1 $154 reversed single #
loop $-1 $-1 $155 $47 #
sphere-surface $-1 25 25 -15 5 1 0 0 0 0 1 forward_v I I I I #
coedge $-1 $156 $157 $158 $159 forward $48 $-1 #
coedge $-1 $160 $50 $161 $162 reversed $27 $-1 #
coedge $-1 $50 $160 $163 $164 forward $27 $-1 #
coedge $-1 $165 $166 $50 $94 reversed $167 $-1 #
edge $-1 $168 -15 $169 10 $93 $170 forward 7 unknown #
face $-1 $171 $172 $5 $-1 $173 reversed single #
loop $-1 $-1 $106 $51 #
plane-surface $-1 20 -35 20 1 0 0 0 0 -1 forward_v I I I I #
coedge $-1 $174 $175 $106 $176 forward $52 $-1 #
coedge $-1 $100 $54 $175 $177 reversed $30 $-1 #
coedge $-1 $54 $99 $178 $179 forward $30 $-1 #
edge $-1 $180 -0.785398163397448279 $108 0.785398163397448279 $54 $181 forward 7 unknown #
coedge $-1 $56 $55 $182 $183 forward $17 $-1 #
coedge $-1 $184 $185 $56 $104 reversed $172 $-1 #
edge $-1 $186 -0.785398163397448279 $107 0.785398163397448279 $103 $187 forward 7 unknown #
coedge $-1 $188 $57 $185 $189 reversed $96 $-1 #
coedge $-1 $57 $188 $98 $176 reversed $96 $-1 #
vertex $-1 $189 $190 #
vertex $-1 $58 $191 #
straight-curve $-1 20 -35 15 0 1 0 I I #
face $-1 $192 $127 $3 $-1 $193 reversed single #
plane-surface $-1 35 20 20 0 1 0 0 0 1 forward_v I I I I #
coedge $-1 $194 $62 $63 $116 forward $34 $-1 #
coedge $-1 $62 $194 $195 $196 forward $34 $-1 #
coedge $-1 $197 $121 $62 $115 reversed $198 $-1 #
edge $-1 $199 -15 $123 10 $114 $200 forward 7 unknown #
edge $-1 $123 -0.785398163397448279 $119 0.785398163397448279 $112 $201 forward 7 unknown #
coedge $-1 $202 $65 $72 $132 forward $60 $-1 #
coedge $-1 $65 $202 $203 $204 forward $60 $-1 #
vertex $-1 $204 $205 #
ellipse-curve $-1 25 25 15 -0 -0 -1 -3.535533905932739973 -3.535533905932739973 0 1 I I #
coedge $-1 $114 $206 $67 $122 reversed $198 $-1 #
edge $-1 $123 -10 $128 15 $121 $207 forward 7 unknown #
vertex $-1 $122 $208 #
ellipse-curve $-1 25 25 15 -1 -0 -0 0 -3.535533905932739973 -3.535533905932739973 1 I I #
coedge $-1 $209 $69 $206 $210 reversed $127 $-1 #
coedge $-1 $69 $211 $71 $131 forward $127 $-1 #
loop $-1 $-1 $69 $110 #
vertex $-1 $210 $212 #
ellipse-curve $-1 50 25 15 -1 0 0 0 -3.535533905932739973 -3.535533905932739973 1 I I #
coedge $-1 $72 $71 $213 $214 reversed $73 $-1 #
edge $-1 $215 -10 $74 5 $126 $216 forward 7 unknown #
edge $-1 $75 -5 $217 10 $72 $218 forward 7 unknown #
point $-1 50 20 15 #
point $-1 25 20 15 #
shell $-1 $-1 $-1 $219 $-1 $77 #
face $-1 $220 $221 $78 $-1 $222 forward single #
face $-1 $223 $224 $42 $-1 $225 forward single #
loop $-1 $-1 $226 $79 #
cone-surface $-1 -25 -25 22.5 0 0 -1 3.535533905932739973 3.535533905932739973 0 1 I I 0 1 5.000000000000003553 forward I I I I #
face $-1 $227 $228 $24 $-1 $229 forward single #
loop $-1 $-1 $230 $80 #
sphere-surface $-1 -25 25 15 5 1 0 0 0 0 1 forward_v I I I I #
coedge $-1 $231 $232 $233 $234 forward $81 $-1 #
face $-1 $235 $236 $14 $-1 $237 reversed single #
loop $-1 $-1 $238 $83 #
cone-surface $-1 25 -37.5 -15 0 -1 0 -3.535533905932739973 0 3.535533905932739973 1 I I 0 1 5.000000000000003553 forward I I I I #
coedge $-1 $239 $240 $241 $242 forward $84 $-1 #
coedge $-1 $243 $86 $240 $244 reversed $45 $-1 #
coedge $-1 $86 $243 $245 $246 forward $45 $-1 #
coedge $-1 $247 $248 $86 $151 reversed $249 $-1 #
edge $-1 $250 -15 $251 10 $150 $252 forward 7 unknown #
face $-1 $253 $254 $8 $-1 $255 reversed single #
loop $-1 $-1 $163 $87 #
plane-surface $-1 50 35 -20 -1 0 0 0 0 1 forward_v I I I I #
coedge $-1 $256 $161 $257 $258 forward $88 $-1 #
coedge $-1 $259 $90 $256 $260 reversed $48 $-1 #
coedge $-1 $90 $259 $261 $262 forward $48 $-1 #
coedge $-1 $263 $264 $90 $159 reversed $254 $-1 #
edge $-1 $265 -10 $266 5 $158 $267 forward 7 unknown #
coedge $-1 $92 $91 $264 $268 forward $27 $-1 #
coedge $-1 $155 $256 $91 $162 forward $88 $-1 #
edge $-1 $266 -0.785398163397448279 $169 0.785398163397448279 $161 $269 forward 7 unknown #
coedge $-1 $270 $271 $92 $164 reversed $153 $-1 #
edge $-1 $272 -0.785398163397448279 $168 0.785398163397448279 $163 $273 forward 7 unknown #
coedge $-1 $274 $93 $271 $275 forward $167 $-1 #
coedge $-1 $93 $274 $276 $277 reversed $167 $-1 #
loop $-1 $-1 $93 $278 #
vertex $-1 $94 $279 #
vertex $-1 $258 $280 #
straight-curve $-1 35 25 -10 -1 -0 -0 I I #
face $-1 $281 $282 $5 $-1 $283 reversed single #
loop $-1 $-1 $103 $95 #
plane-surface $-1 35 -50 20 0 1 0 0 0 1 forward_v I I I I #
coedge $-1 $284 $98 $285 $286 forward $52 $-1 #
coedge $-1 $98 $284 $99 $177 forward $52 $-1 #
edge $-1 $108 -5 $287 10 $106 $288 forward 7 unknown #
edge $-1 $289 -0.785398163397448279 $108 0.785398163397448279 $175 $290 forward 7 unknown #
coedge $-1 $291 $292 $100 $179 reversed $293 $-1 #
edge $-1 $289 -0.785398163397448279 $180 0.785398163397448279 $178 $294 forward 7 unknown #
vertex $-1 $295 $296 #
ellipse-curve $-1 25 -25 15 0 1 0 -3.535533905932739973 0 -3.535533905932739973 1 I I #
coedge $-1 $297 $298 $102 $183 reversed $282 $-1 #
edge $-1 $180 -10 $186 15 $182 $299 forward 7 unknown #
coedge $-1 $300 $103 $298 $301 reversed $172 $-1 #
coedge $-1 $103 $302 $105 $189 forward $172 $-1 #
vertex $-1 $301 $303 #
ellipse-curve $-1 25 -50 15 0 1 0 -3.535533905932739973 0 -3.535533905932739973 1 I I #
coedge $-1 $106 $105 $304 $305 reversed $96 $-1 #
edge $-1 $306 -10 $107 5 $105 $307 forward 7 unknown #
point $-1 20 -50 15 #
point $-1 20 -25 15 #
face $-1 $308 $198 $3 $-1 $309 reversed single #
plane-surface $-1 50 35 20 -1 0 0 0 0 1 forward_v I I I I #
coedge $-1 $113 $112 $310 $311 forward $34 $-1 #
coedge $-1 $312 $313 $113 $196 reversed $314 $-1 #
edge $-1 $315 -0.785398163397448279 $199 0.785398163397448279 $195 $316 forward 7 unknown #
coedge $-1 $206 $114 $313 $317 forward $198 $-1 #
loop $-1 $-1 $114 $192 #
vertex $-1 $115 $318 #
straight-curve $-1 25 35 10 -0 -1 -0 I I #
ellipse-curve $-1 25 25 15 0 1 0 -3.535533905932739973 0 -3.535533905932739973 1 I I #
coedge $-1 $118 $117 $319 $320 forward $60 $-1 #
coedge $-1 $321 $310 $118 $204 reversed $322 $-1 #
edge $-1 $323 -10 $119 5 $203 $324 forward 7 unknown #
point $-1 20 25 15 #
coedge $-1 $121 $197 $125 $210 forward $198 $-1 #
straight-curve $-1 35 25 10 1 0 0 I I #
point $-1 25 25 10 #
coedge $-1 $211 $125 $325 $326 reversed $127 $-1 #
edge $-1 $327 -15 $128 10 $125 $328 forward 7 unknown #
coedge $-1 $126 $209 $329 $330 reversed $127 $-1 #
point $-1 50 25 10 #
coedge $-1 $329 $319 $130 $214 forward $331 $-1 #
edge $-1 $217 -10 $215 15 $130 $332 forward 7 unknown #
vertex $-1 $330 $333 #
straight-curve $-1 50 20 20 0 0 -1 I I #
vertex $-1 $132 $334 #
straight-curve $-1 25 20 20 0 0 1 I I #
face $-1 $335 $336 $135 $-1 $337 forward single #
face $-1 $338 $339 $78 $-1 $340 forward single #
loop $-1 $-1 $341 $136 #
cone-surface $-1 -25 37.5 -15 0 1 0 3.535533905932739973 0 3.535533905932739973 1 I I 0 1 5.000000000000003553 forward I I I I #
face $-1 $342 $343 $42 $-1 $344 forward single #
loop $-1 $-1 $345 $137 #
sphere-surface $-1 -25 -25 15 5 1 0 0 0 0 1 forward_v I I I I #
coedge $-1 $346 $347 $348 $349 forward $138 $-1 #
face $-1 $350 $351 $24 $-1 $352 reversed single #
loop $-1 $-1 $353 $140 #
cone-surface $-1 -25 25 22.5 0 0 -1 3.535533905932739973 -3.535533905932739973 0 1 I I 0 1 5.000000000000003553 forward I I I I #
coedge $-1 $354 $355 $231 $356 forward $141 $-1 #
coedge $-1 $357 $143 $230 $356 reversed $81 $-1 #
coedge $-1 $143 $357 $358 $359 forward $81 $-1 #
coedge $-1 $360 $361 $143 $234 reversed $351 $-1 #
edge $-1 $362 -15 $363 10 $233 $364 forward 7 unknown #
face $-1 $365 $366 $14 $-1 $367 reversed single #
loop $-1 $-1 $368 $144 #
plane-surface $-1 35 -50 -20 0 1 0 0 0 1 forward_v I I I I #
coedge $-1 $369 $370 $371 $372 forward $145 $-1 #
coedge $-1 $240 $147 $369 $373 reversed $84 $-1 #
coedge $-1 $147 $239 $148 $244 forward $84 $-1 #
coedge $-1 $374 $375 $147 $242 reversed $376 $-1 #
edge $-1 $251 -0.785398163397448279 $377 0.785398163397448279 $241 $378 forward 7 unknown #
coedge $-1 $149 $148 $379 $380 forward $45 $-1 #
edge $-1 $381 -0.785398163397448279 $251 0.785398163397448279 $240 $382 forward 7 unknown #
coedge $-1 $383 $384 $149 $246 reversed $385 $-1 #
edge $-1 $386 -0.785398163397448279 $250 0.785398163397448279 $245 $387 forward 7 unknown #
coedge $-1 $388 $150 $384 $389 forward $249 $-1 #
coedge $-1 $150 $388 $374 $390 reversed $249 $-1 #
loop $-1 $-1 $150 $391 #
vertex $-1 $151 $392 #
vertex $-1 $151 $393 #
straight-curve $-1 35 -20 -15 -1 0 0 I I #
face $-1 $394 $395 $8 $-1 $396 reversed single #
loop $-1 $-1 $264 $152 #
plane-surface $-1 35 20 -20 0 1 0 0 0 1 forward_v I I I I #
coedge $-1 $161 $155 $156 $260 forward $88 $-1 #
coedge $-1 $276 $397 $155 $258 reversed $398 $-1 #
edge $-1 $169 -0.785398163397448279 $399 0.785398163397448279 $257 $400 forward 7 unknown #
coedge $-1 $157 $156 $401 $402 forward $48 $-1 #
edge $-1 $399 -0.785398163397448279 $266 0.785398163397448279 $256 $403 forward 7 unknown #
coedge $-1 $404 $405 $157 $262 reversed $395 $-1 #
edge $-1 $406 -0.785398163397448279 $265 0.785398163397448279 $261 $407 forward 7 unknown #
coedge $-1 $408 $158 $405 $409 reversed $254 $-1 #
coedge $-1 $158 $408 $160 $268 reversed $254 $-1 #
vertex $-1 $409 $410 #
vertex $-1 $268 $411 #
straight-curve $-1 25 20 -20 0 0 1 I I #
edge $-1 $266 -10 $272 15 $264 $412 forward 7 unknown #
ellipse-curve $-1 25 25 -15 -1 0 0 0 -3.535533905932739973 3.535533905932739973 1 I I #
coedge $-1 $413 $163 $408 $414 forward $153 $-1 #
coedge $-1 $163 $415 $165 $275 reversed $153 $-1 #
vertex $-1 $268 $416 #
ellipse-curve $-1 50 25 -15 -1 0 0 0 -3.535533905932739973 3.535533905932739973 1 I I #
coedge $-1 $166 $165 $417 $418 forward $167 $-1 #
edge $-1 $168 -10 $419 15 $271 $420 forward 7 unknown #
coedge $-1 $421 $257 $166 $277 forward $398 $-1 #
edge $-1 $169 -10 $422 15 $166 $423 forward 7 unknown #
face $-1 $424 $167 $8 $-1 $425 forward single #
point $-1 50 25 -10 #
point $-1 25 25 -10 #
face $-1 $426 $293 $5 $-1 $427 forward single #
loop $-1 $-1 $182 $171 #
plane-surface $-1 35 -35 10 0 0 1 1 0 0 forward_v I I I I #
coedge $-1 $175 $174 $428 $429 forward $52 $-1 #
coedge $-1 $304 $430 $174 $286 reversed $431 $-1 #
edge $-1 $287 -0.785398163397448279 $432 0.785398163397448279 $285 $433 forward 7 unknown #
vertex $-1 $286 $434 #
straight-curve $-1 20 -25 20 0 0 1 I I #
vertex $-1 $179 $435 #
ellipse-curve $-1 25 -25 15 0 0 1 -3.535533905932739973 3.535533905932739973 0 1 I I #
coedge $-1 $436 $178 $437 $438 forward $293 $-1 #
coedge $-1 $178 $436 $297 $295 forward $293 $-1 #
loop $-1 $-1 $178 $281 #
ellipse-curve $-1 25 -25 15 -1 -0 -0 0 3.535533905932739973 -3.535533905932739973 1 I I #
edge $-1 $439 -15 $180 10 $297 $440 forward 7 unknown #
point $-1 25 -25 10 #
coedge $-1 $441 $182 $292 $295 reversed $282 $-1 #
coedge $-1 $182 $441 $184 $301 forward $282 $-1 #
straight-curve $-1 25 -35 10 -0 -1 -0 I I #
coedge $-1 $302 $184 $442 $443 reversed $172 $-1 #
edge $-1 $444 -15 $186 10 $184 $445 forward 7 unknown #
coedge $-1 $185 $300 $446 $447 reversed $172 $-1 #
point $-1 25 -50 10 #
coedge $-1 $446 $285 $188 $305 forward $431 $-1 #
edge $-1 $287 -10 $306 15 $188 $448 forward 7 unknown #
vertex $-1 $305 $449 #
straight-curve $-1 20 -50 20 0 0 -1 I I #
face $-1 $450 $331 $3 $-1 $451 forward single #
plane-surface $-1 35 35 10 0 0 1 1 0 0 forward_v I I I I #
coedge $-1 $203 $452 $194 $311 reversed $322 $-1 #
edge $-1 $119 -10 $315 15 $310 $453 forward 7 unknown #
coedge $-1 $454 $195 $452 $455 reversed $314 $-1 #
coedge $-1 $195 $325 $197 $317 reversed $314 $-1 #
loop $-1 $-1 $195 $456 #
vertex $-1 $455 $457 #
ellipse-curve $-1 25 50 15 0 -1 0 -3.535533905932739973 0 -3.535533905932739973 1 I I #
edge $-1 $199 -10 $327 15 $313 $458 forward 7 unknown #
point $-1 25 50 10 #
coedge $-1 $213 $459 $202 $320 reversed $331 $-1 #
edge $-1 $217 -0.785398163397448279 $323 0.785398163397448279 $319 $460 forward 7 unknown #
coedge $-1 $452 $203 $459 $461 reversed $322 $-1 #
loop $-1 $-1 $310 $450 #
vertex $-1 $461 $462 #
straight-curve $-1 20 25 20 0 0 -1 I I #
coedge $-1 $313 $454 $209 $326 forward $314 $-1 #
edge $-1 $463 -10 $327 10 $209 $464 forward 7 unknown #
vertex $-1 $210 $465 #
straight-curve $-1 50 35 10 0 -1 0 I I #
coedge $-1 $466 $213 $211 $330 forward $331 $-1 #
edge $-1 $215 -15 $463 15 $211 $467 forward 7 unknown #
loop $-1 $-1 $319 $308 #
straight-curve $-1 35 20 30 1 0 0 I I #
point $-1 50 20 30 #
point $-1 25 20 30 #
face $-1 $468 $469 $135 $-1 $470 forward single #
loop $-1 $-1 $471 $219 #
cone-surface $-1 -37.5 -25 -15 -1 0 0 0 3.535533905932739973 3.535533905932739973 1 I I 0 1 5.000000000000003553 forward I I I I #
face $-1 $472 $473 $78 $-1 $474 forward single #
loop $-1 $-1 $475 $220 #
cone-surface $-1 -25 25 -22.5 0 0 -1 3.535533905932739973 -3.535533905932739973 0 1 I I 0 1 5.000000000000003553 forward I I I I #
coedge $-1 $476 $477 $478 $479 forward $221 $-1 #
face $-1 $480 $481 $42 $-1 $482 forward single #
loop $-1 $-1 $483 $223 #
cone-surface $-1 -37.5 -25 15 1 0 0 0 3.535533905932739973 -3.535533905932739973 1 I I 0 1 5.000000000000003553 forward I I I I #
coedge $-1 $484 $485 $486 $487 forward $224 $-1 #
coedge $-1 $488 $226 $485 $489 reversed $138 $-1 #
coedge $-1 $226 $488 $490 $491 forward $138 $-1 #
coedge $-1 $492 $493 $226 $349 reversed $494 $-1 #
edge $-1 $495 -10 $496 5 $348 $497 forward 7 unknown #
face $-1 $498 $499 $24 $-1 $500 reversed single #
loop $-1 $-1 $361 $227 #
plane-surface $-1 -20 35 20 -1 0 0 0 0 1 forward_v I I I I #
coedge $-1 $501 $502 $361 $503 forward $228 $-1 #
coedge $-1 $355 $230 $502 $504 reversed $141 $-1 #
coedge $-1 $230 $354 $505 $506 forward $141 $-1 #
edge $-1 $507 -0.785398163397448279 $363 0.785398163397448279 $230 $508 forward 7 unknown #
coedge $-1 $232 $231 $509 $510 forward $81 $-1 #
coedge $-1 $511 $512 $232 $359 reversed $499 $-1 #
edge $-1 $513 -0.785398163397448279 $362 0.785398163397448279 $358 $514 forward 7 unknown #
coedge $-1 $515 $233 $512 $516 reversed $351 $-1 #
coedge $-1 $233 $515 $353 $503 reversed $351 $-1 #
vertex $-1 $516 $517 #
vertex $-1 $234 $518 #
straight-curve $-1 -20 35 15 0 -1 0 I I #
face $-1 $391 $376 $14 $-1 $519 forward single #
loop $-1 $-1 $520 $235 #
plane-surface $-1 20 -35 -20 1 0 0 0 0 -1 forward_v I I I I #
coedge $-1 $521 $522 $370 $523 reversed $236 $-1 #
coedge $-1 $524 $238 $239 $373 forward $145 $-1 #
coedge $-1 $238 $524 $368 $523 forward $145 $-1 #
coedge $-1 $525 $379 $238 $372 reversed $526 $-1 #
edge $-1 $527 -15 $381 10 $371 $528 forward 7 unknown #
edge $-1 $381 -0.785398163397448279 $377 0.785398163397448279 $369 $529 forward 7 unknown #
coedge $-1 $530 $241 $248 $390 forward $376 $-1 #
coedge $-1 $241 $530 $531 $532 forward $376 $-1 #
loop $-1 $-1 $241 $365 #
vertex $-1 $532 $533 #
ellipse-curve $-1 25 -25 -15 0 0 1 -3.535533905932739973 3.535533905932739973 0 1 I I #
coedge $-1 $371 $534 $243 $380 reversed $526 $-1 #
edge $-1 $381 -10 $386 15 $379 $535 forward 7 unknown #
vertex $-1 $380 $536 #
ellipse-curve $-1 25 -25 -15 -1 0 0 0 3.535533905932739973 3.535533905932739973 1 I I #
coedge $-1 $537 $245 $534 $538 reversed $385 $-1 #
coedge $-1 $245 $539 $247 $389 reversed $385 $-1 #
loop $-1 $-1 $245 $540 #
vertex $-1 $538 $541 #
ellipse-curve $-1 50 -25 -15 -1 0 0 0 3.535533905932739973 3.535533905932739973 1 I I #
coedge $-1 $248 $247 $542 $543 reversed $249 $-1 #
edge $-1 $250 -5 $544 10 $384 $545 forward 7 unknown #
edge $-1 $251 -5 $546 10 $248 $547 forward 7 unknown #
face $-1 $548 $249 $14 $-1 $549 reversed single #
point $-1 50 -20 -15 #
point $-1 25 -20 -15 #
face $-1 $550 $398 $8 $-1 $551 forward single #
loop $-1 $-1 $261 $253 #
plane-surface $-1 35 35 -30 0 0 1 1 0 0 forward_v I I I I #
coedge $-1 $257 $421 $552 $553 forward $398 $-1 #
loop $-1 $-1 $257 $394 #
vertex $-1 $553 $554 #
ellipse-curve $-1 25 25 -15 -0 -1 -0 -3.535533905932739973 0 3.535533905932739973 1 I I #
coedge $-1 $552 $555 $259 $402 reversed $556 $-1 #
edge $-1 $399 -5 $406 10 $401 $557 forward 7 unknown #
ellipse-curve $-1 25 25 -15 0 0 1 -3.535533905932739973 -3.535533905932739973 0 1 I I #
coedge $-1 $558 $261 $555 $559 forward $395 $-1 #
coedge $-1 $261 $560 $263 $409 forward $395 $-1 #
vertex $-1 $262 $561 #
ellipse-curve $-1 25 25 -30 0 0 1 -3.535533905932739973 -3.535533905932739973 0 1 I I #
coedge $-1 $264 $263 $270 $414 reversed $254 $-1 #
edge $-1 $562 -15 $265 10 $263 $563 forward 7 unknown #
point $-1 25 20 -30 #
point $-1 25 20 -15 #
straight-curve $-1 35 20 -15 1 0 0 I I #
coedge $-1 $415 $270 $560 $564 reversed $153 $-1 #
edge $-1 $272 -5 $562 10 $270 $565 forward 7 unknown #
coedge $-1 $271 $413 $566 $567 reversed $153 $-1 #
point $-1 50 20 -15 #
coedge $-1 $566 $568 $274 $418 reversed $569 $-1 #
edge $-1 $419 -15 $422 10 $417 $570 forward 7 unknown #
vertex $-1 $275 $571 #
straight-curve $-1 50 35 -10 0 1 0 I I #
coedge $-1 $397 $276 $568 $572 forward $398 $-1 #
vertex $-1 $418 $573 #
straight-curve $-1 25 35 -10 0 1 0 I I #
face $-1 $-1 $556 $8 $-1 $574 reversed single #
plane-surface $-1 35 35 -10 0 0 1 1 0 0 forward_v I I I I #
face $-1 $575 $431 $5 $-1 $576 forward single #
cone-surface $-1 35 -25 15 1 0 0 0 3.535533905932739973 -3.535533905932739973 1 I I 0 1 5.000000000000003553 forward I I I I #
coedge $-1 $577 $437 $284 $429 reversed $578 $-1 #
edge $-1 $432 -10 $289 5 $428 $579 forward 7 unknown #
coedge $-1 $285 $580 $577 $581 forward $431 $-1 #
loop $-1 $-1 $285 $426 #
vertex $-1 $581 $582 #
ellipse-curve $-1 25 -25 30 -0 -0 -1 -3.535533905932739973 3.535533905932739973 0 1 I I #
point $-1 20 -25 30 #
point $-1 25 -20 15 #
coedge $-1 $292 $291 $583 $584 forward $293 $-1 #
coedge $-1 $428 $585 $291 $438 reversed $578 $-1 #
edge $-1 $289 -10 $586 15 $437 $587 forward 7 unknown #
vertex $-1 $295 $588 #
straight-curve $-1 35 -25 10 -1 -0 -0 I I #
coedge $-1 $298 $297 $589 $590 forward $282 $-1 #
coedge $-1 $589 $591 $300 $443 forward $592 $-1 #
edge $-1 $593 -10 $444 10 $442 $594 forward 7 unknown #
vertex $-1 $443 $595 #
straight-curve $-1 35 -50 10 -1 0 0 I I #
coedge $-1 $580 $304 $302 $447 forward $431 $-1 #
edge $-1 $306 -15 $593 15 $302 $596 forward 7 unknown #
straight-curve $-1 20 -35 30 0 -1 0 I I #
point $-1 20 -50 30 #
face $-1 $456 $322 $3 $-1 $597 reversed single #
plane-surface $-1 35 35 30 0 0 1 1 0 0 forward_v I I I I #
coedge $-1 $310 $321 $312 $455 forward $322 $-1 #
straight-curve $-1 20 35 15 0 1 0 I I #
coedge $-1 $325 $312 $466 $598 reversed $314 $-1 #
edge $-1 $599 -10 $315 5 $312 $600 forward 7 unknown #
face $-1 $-1 $314 $3 $-1 $601 reversed single #
point $-1 20 50 15 #
straight-curve $-1 35 50 10 1 0 0 I I #
coedge $-1 $319 $466 $321 $461 forward $331 $-1 #
ellipse-curve $-1 25 25 30 -0 -0 -1 -3.535533905932739973 -3.535533905932739973 0 1 I I #
edge $-1 $599 -15 $323 10 $321 $602 forward 7 unknown #
point $-1 20 25 30 #
vertex $-1 $330 $603 #
straight-curve $-1 50 50 20 0 0 -1 I I #
point $-1 50 50 10 #
coedge $-1 $459 $329 $454 $598 forward $331 $-1 #
straight-curve $-1 50 35 30 0 1 0 I I #
face $-1 $604 $605 $135 $-1 $606 forward single #
loop $-1 $-1 $607 $335 #
sphere-surface $-1 -25 -25 -15 5 1 0 0 0 0 1 forward_v I I I I #
coedge $-1 $608 $609 $610 $611 forward $336 $-1 #
face $-1 $612 $613 $78 $-1 $614 reversed single #
loop $-1 $-1 $615 $338 #
sphere-surface $-1 -25 25 -15 5 1 0 0 0 0 1 forward_v I I I I #
coedge $-1 $616 $617 $618 $619 forward $339 $-1 #
coedge $-1 $620 $341 $621 $622 reversed $221 $-1 #
coedge $-1 $341 $620 $623 $624 forward $221 $-1 #
coedge $-1 $625 $626 $341 $479 reversed $627 $-1 #
edge $-1 $628 -15 $629 10 $478 $630 forward 7 unknown #
face $-1 $631 $494 $42 $-1 $632 reversed single #
loop $-1 $-1 $486 $342 #
cone-surface $-1 -25 -35 15 0 -1 0 3.535533905932739973 0 -3.535533905932739973 1 I I 0 1 5.000000000000003553 forward I I I I #
coedge $-1 $633 $634 $635 $636 forward $343 $-1 #
coedge $-1 $485 $345 $634 $637 reversed $224 $-1 #
coedge $-1 $345 $484 $346 $489 forward $224 $-1 #
coedge $-1 $638 $639 $345 $487 reversed $481 $-1 #
edge $-1 $496 -0.785398163397448279 $640 0.785398163397448279 $486 $641 forward 7 unknown #
coedge $-1 $347 $346 $642 $643 forward $138 $-1 #
edge $-1 $644 -0.785398163397448279 $496 0.785398163397448279 $485 $645 forward 7 unknown #
coedge $-1 $646 $647 $347 $491 reversed $648 $-1 #
edge $-1 $649 -0.785398163397448279 $495 0.785398163397448279 $490 $650 forward 7 unknown #
coedge $-1 $651 $348 $647 $652 reversed $494 $-1 #
coedge $-1 $348 $651 $638 $653 reversed $494 $-1 #
loop $-1 $-1 $348 $480 #
vertex $-1 $652 $654 #
vertex $-1 $349 $655 #
straight-curve $-1 -20 -25 20 0 0 -1 I I #
face $-1 $656 $657 $24 $-1 $658 reversed single #
loop $-1 $-1 $358 $350 #
plane-surface $-1 -35 50 20 0 -1 0 0 0 -1 forward_v I I I I #
coedge $-1 $659 $353 $660 $661 forward $228 $-1 #
coedge $-1 $353 $659 $354 $504 forward $228 $-1 #
edge $-1 $363 -5 $662 10 $361 $663 forward 7 unknown #
edge $-1 $664 -0.785398163397448279 $363 0.785398163397448279 $502 $665 forward 7 unknown #
coedge $-1 $666 $667 $355 $506 reversed $668 $-1 #
edge $-1 $664 -0.785398163397448279 $507 0.785398163397448279 $505 $669 forward 7 unknown #
vertex $-1 $670 $671 #
ellipse-curve $-1 -25 25 15 0 -1 0 3.535533905932739973 0 -3.535533905932739973 1 I I #
coedge $-1 $672 $673 $357 $510 reversed $657 $-1 #
edge $-1 $507 -10 $513 15 $509 $674 forward 7 unknown #
coedge $-1 $675 $358 $673 $676 reversed $499 $-1 #
coedge $-1 $358 $677 $360 $516 forward $499 $-1 #
vertex $-1 $676 $678 #
ellipse-curve $-1 -25 50 15 0 -1 0 3.535533905932739973 0 -3.535533905932739973 1 I I #
coedge $-1 $361 $360 $679 $680 reversed $351 $-1 #
edge $-1 $681 -10 $362 5 $360 $682 forward 7 unknown #
point $-1 -20 50 15 #
point $-1 -20 25 15 #
cone-surface $-1 25 -25 -20 0 0 -1 -3.535533905932739973 3.535533905932739973 0 1 I I 0 1 5.000000000000003553 forward I I I I #
coedge $-1 $531 $683 $524 $684 reversed $366 $-1 #
coedge $-1 $685 $368 $683 $686 forward $236 $-1 #
coedge $-1 $368 $687 $525 $688 reversed $236 $-1 #
edge $-1 $689 -0.785398163397448279 $527 0.785398163397448279 $368 $690 forward 7 unknown #
coedge $-1 $370 $369 $520 $684 forward $145 $-1 #
coedge $-1 $534 $371 $522 $688 forward $526 $-1 #
loop $-1 $-1 $371 $691 #
vertex $-1 $372 $692 #
straight-curve $-1 25 -35 -10 0 1 0 I I #
ellipse-curve $-1 25 -25 -15 0 -1 0 -3.535533905932739973 0 3.535533905932739973 1 I I #
coedge $-1 $375 $374 $693 $694 forward $376 $-1 #
coedge $-1 $695 $520 $375 $532 reversed $366 $-1 #
edge $-1 $696 -10 $377 5 $531 $697 forward 7 unknown #
point $-1 20 -25 -15 #
coedge $-1 $379 $525 $383 $538 forward $526 $-1 #
straight-curve $-1 35 -25 -10 1 0 0 I I #
point $-1 25 -25 -10 #
coedge $-1 $539 $383 $687 $698 forward $385 $-1 #
edge $-1 $699 -15 $386 10 $383 $700 forward 7 unknown #
coedge $-1 $384 $537 $701 $702 reversed $385 $-1 #
face $-1 $-1 $385 $14 $-1 $703 reversed single #
point $-1 50 -25 -10 #
coedge $-1 $701 $693 $388 $543 forward $704 $-1 #
edge $-1 $546 -10 $544 15 $388 $705 forward 7 unknown #
vertex $-1 $702 $706 #
straight-curve $-1 50 -20 -20 0 0 -1 I I #
vertex $-1 $694 $707 #
straight-curve $-1 25 -20 -20 0 0 -1 I I #
face $-1 $691 $704 $14 $-1 $708 reversed single #
plane-surface $-1 35 -20 -20 0 -1 0 0 0 -1 forward_v I I I I #
face $-1 $278 $569 $8 $-1 $709 reversed single #
cone-surface $-1 25 35 -15 0 -1 0 -3.535533905932739973 0 3.535533905932739973 1 I I 0 1 5.000000000000003553 forward I I I I #
coedge $-1 $710 $401 $397 $553 reversed $556 $-1 #
edge $-1 $711 -15 $399 10 $552 $712 forward 7 unknown #
point $-1 20 25 -15 #
coedge $-1 $401 $710 $404 $559 reversed $556 $-1 #
loop $-1 $-1 $401 $424 #
straight-curve $-1 20 25 -20 0 0 -1 I I #
coedge $-1 $560 $404 $713 $714 forward $395 $-1 #
edge $-1 $406 -10 $715 15 $555 $716 forward 7 unknown #
coedge $-1 $405 $558 $413 $564 forward $395 $-1 #
point $-1 20 25 -30 #
vertex $-1 $414 $717 #
straight-curve $-1 35 20 -30 -1 0 0 I I #
edge $-1 $718 -15 $562 15 $413 $719 forward 7 unknown #
straight-curve $-1 50 20 -20 0 0 -1 I I #
coedge $-1 $713 $417 $415 $567 forward $569 $-1 #
edge $-1 $419 -10 $718 10 $415 $720 forward 7 unknown #
coedge $-1 $417 $721 $421 $572 reversed $569 $-1 #
loop $-1 $-1 $568 $550 #
straight-curve $-1 35 50 -10 -1 0 0 I I #
point $-1 50 50 -10 #
edge $-1 $422 -0.785398163397448279 $711 0.785398163397448279 $568 $722 forward 7 unknown #
point $-1 25 50 -10 #
plane-surface $-1 20 35 -20 1 0 0 0 0 -1 forward_v I I I I #
face $-1 $723 $578 $5 $-1 $724 reversed single #
plane-surface $-1 35 -35 30 0 0 1 1 0 0 forward_v I I I I #
coedge $-1 $585 $428 $430 $581 reversed $578 $-1 #
loop $-1 $-1 $428 $575 #
straight-curve $-1 25 -20 20 0 0 -1 I I #
coedge $-1 $430 $446 $591 $725 forward $431 $-1 #
edge $-1 $726 -15 $432 10 $577 $727 forward 7 unknown #
point $-1 25 -20 30 #
coedge $-1 $728 $589 $436 $584 reversed $592 $-1 #
edge $-1 $586 -0.785398163397448279 $439 0.785398163397448279 $583 $729 forward 7 unknown #
coedge $-1 $437 $577 $728 $730 forward $578 $-1 #
vertex $-1 $730 $731 #
straight-curve $-1 35 -20 15 1 0 0 I I #
point $-1 50 -25 10 #
coedge $-1 $583 $442 $441 $590 reversed $592 $-1 #
edge $-1 $439 -10 $444 15 $589 $732 forward 7 unknown #
coedge $-1 $442 $728 $580 $725 reversed $592 $-1 #
loop $-1 $-1 $583 $723 #
vertex $-1 $725 $733 #
straight-curve $-1 50 -50 20 0 0 -1 I I #
point $-1 50 -50 10 #
straight-curve $-1 35 -50 30 1 0 0 I I #
plane-surface $-1 20 35 20 1 0 0 0 0 -1 forward_v I I I I #
edge $-1 $463 -15 $599 15 $454 $734 forward 7 unknown #
vertex $-1 $598 $735 #
straight-curve $-1 20 50 20 0 0 -1 I I #
plane-surface $-1 35 50 20 0 -1 0 0 0 -1 forward_v I I I I #
straight-curve $-1 20 35 30 0 -1 0 I I #
point $-1 50 50 30 #
face $-1 $736 $737 $135 $-1 $738 reversed single #
loop $-1 $-1 $739 $468 #
cone-surface $-1 -25 -37.5 -15 0 1 0 3.535533905932739973 0 3.535533905932739973 1 I I 0 1 5.000000000000003553 forward I I I I #
coedge $-1 $740 $741 $608 $742 forward $469 $-1 #
coedge $-1 $743 $471 $607 $742 reversed $336 $-1 #
coedge $-1 $471 $743 $744 $745 forward $336 $-1 #
coedge $-1 $746 $747 $471 $611 reversed $748 $-1 #
edge $-1 $749 -15 $750 10 $610 $751 forward 7 unknown #
face $-1 $752 $753 $78 $-1 $754 reversed single #
loop $-1 $-1 $755 $472 #
plane-surface $-1 -20 35 -20 -1 0 0 0 0 1 forward_v I I I I #
coedge $-1 $756 $621 $757 $758 forward $473 $-1 #
coedge $-1 $759 $475 $756 $760 reversed $339 $-1 #
coedge $-1 $475 $759 $761 $762 forward $339 $-1 #
coedge $-1 $763 $755 $475 $619 reversed $613 $-1 #
edge $-1 $764 -10 $765 5 $618 $766 forward 7 unknown #
coedge $-1 $477 $476 $755 $767 forward $221 $-1 #
coedge $-1 $615 $756 $476 $622 forward $473 $-1 #
edge $-1 $765 -0.785398163397448279 $629 0.785398163397448279 $621 $768 forward 7 unknown #
coedge $-1 $769 $770 $477 $624 reversed $771 $-1 #
edge $-1 $772 -0.785398163397448279 $628 0.785398163397448279 $623 $773 forward 7 unknown #
coedge $-1 $774 $478 $770 $775 forward $627 $-1 #
coedge $-1 $478 $774 $776 $777 reversed $627 $-1 #
loop $-1 $-1 $478 $778 #
vertex $-1 $479 $779 #
vertex $-1 $758 $780 #
straight-curve $-1 -25 35 -10 -0 -1 -0 I I #
face $-1 $781 $648 $42 $-1 $782 forward single #
plane-surface $-1 -20 -35 20 -1 0 0 0 0 1 forward_v I I I I #
coedge $-1 $783 $483 $784 $785 forward $343 $-1 #
coedge $-1 $483 $783 $484 $637 forward $343 $-1 #
coedge $-1 $786 $787 $483 $636 reversed $788 $-1 #
edge $-1 $640 -10 $789 15 $635 $790 forward 7 unknown #
edge $-1 $644 -0.785398163397448279 $640 0.785398163397448279 $634 $791 forward 7 unknown #
coedge $-1 $792 $486 $493 $653 forward $481 $-1 #
coedge $-1 $486 $792 $786 $793 forward $481 $-1 #
vertex $-1 $793 $794 #
ellipse-curve $-1 -25 -25 15 0 1 0 3.535533905932739973 0 -3.535533905932739973 1 I I #
coedge $-1 $795 $796 $488 $643 reversed $797 $-1 #
edge $-1 $644 -5 $649 10 $642 $798 forward 7 unknown #
vertex $-1 $643 $799 #
ellipse-curve $-1 -25 -25 15 -0 -0 -1 3.535533905932739973 3.535533905932739973 0 1 I I #
coedge $-1 $800 $490 $796 $801 forward $648 $-1 #
coedge $-1 $490 $802 $492 $652 forward $648 $-1 #
loop $-1 $-1 $490 $631 #
vertex $-1 $643 $803 #
ellipse-curve $-1 -25 -25 30 -0 -0 -1 3.535533905932739973 3.535533905932739973 0 1 I I #
coedge $-1 $493 $492 $804 $805 forward $494 $-1 #
edge $-1 $806 -15 $495 10 $492 $807 forward 7 unknown #
edge $-1 $496 -10 $808 15 $493 $809 forward 7 unknown #
point $-1 -20 -25 30 #
point $-1 -20 -25 15 #
face $-1 $810 $668 $24 $-1 $811 forward single #
loop $-1 $-1 $509 $498 #
plane-surface $-1 -35 35 10 0 0 1 1 0 0 forward_v I I I I #
coedge $-1 $502 $501 $812 $813 forward $228 $-1 #
coedge $-1 $679 $814 $501 $661 reversed $815 $-1 #
edge $-1 $662 -0.785398163397448279 $816 0.785398163397448279 $660 $817 forward 7 unknown #
vertex $-1 $661 $818 #
straight-curve $-1 -20 25 20 0 0 1 I I #
vertex $-1 $506 $819 #
ellipse-curve $-1 -25 25 15 0 0 1 3.535533905932739973 -3.535533905932739973 0 1 I I #
coedge $-1 $820 $505 $821 $822 forward $668 $-1 #
coedge $-1 $505 $820 $672 $670 forward $668 $-1 #
loop $-1 $-1 $505 $656 #
ellipse-curve $-1 -25 25 15 1 0 0 0 -3.535533905932739973 -3.535533905932739973 1 I I #
edge $-1 $823 -15 $507 10 $672 $824 forward 7 unknown #
point $-1 -25 25 10 #
coedge $-1 $825 $509 $667 $670 reversed $657 $-1 #
coedge $-1 $509 $825 $511 $676 forward $657 $-1 #
straight-curve $-1 -25 35 10 0 1 0 I I #
coedge $-1 $677 $511 $826 $827 reversed $499 $-1 #
edge $-1 $828 -15 $513 10 $511 $829 forward 7 unknown #
coedge $-1 $512 $675 $830 $831 reversed $499 $-1 #
point $-1 -25 50 10 #
coedge $-1 $830 $660 $515 $680 forward $815 $-1 #
edge $-1 $662 -10 $681 15 $515 $832 forward 7 unknown #
vertex $-1 $680 $833 #
straight-curve $-1 -20 50 20 0 0 -1 I I #
coedge $-1 $520 $695 $521 $686 reversed $366 $-1 #
edge $-1 $377 -10 $689 15 $520 $834 forward 7 unknown #
coedge $-1 $687 $521 $835 $836 reversed $236 $-1 #
edge $-1 $689 -5 $837 10 $683 $838 forward 7 unknown #
coedge $-1 $522 $685 $537 $698 reversed $236 $-1 #
edge $-1 $527 -10 $699 15 $522 $839 forward 7 unknown #
vertex $-1 $684 $840 #
ellipse-curve $-1 25 -50 -15 0 1 0 -3.535533905932739973 0 3.535533905932739973 1 I I #
face $-1 $540 $526 $14 $-1 $841 forward single #
point $-1 25 -50 -10 #
coedge $-1 $542 $842 $530 $694 reversed $704 $-1 #
edge $-1 $546 -0.785398163397448279 $696 0.785398163397448279 $693 $843 forward 7 unknown #
coedge $-1 $683 $531 $842 $844 reversed $366 $-1 #
vertex $-1 $844 $845 #
straight-curve $-1 20 -25 -20 0 0 1 I I #
edge $-1 $699 -10 $846 10 $537 $847 forward 7 unknown #
vertex $-1 $538 $848 #
straight-curve $-1 50 -35 -10 0 1 0 I I #
coedge $-1 $835 $542 $539 $702 forward $704 $-1 #
edge $-1 $544 -15 $846 15 $539 $849 forward 7 unknown #
plane-surface $-1 50 -35 -20 -1 0 0 0 0 1 forward_v I I I I #
loop $-1 $-1 $693 $548 #
straight-curve $-1 35 -20 -30 1 0 0 I I #
point $-1 50 -20 -30 #
point $-1 25 -20 -30 #
plane-surface $-1 35 -35 -30 0 0 1 1 0 0 forward_v I I I I #
plane-surface $-1 35 50 -20 0 -1 0 0 0 -1 forward_v I I I I #
coedge $-1 $555 $552 $721 $850 forward $556 $-1 #
vertex $-1 $572 $851 #
straight-curve $-1 20 35 -15 0 -1 0 I I #
coedge $-1 $721 $566 $558 $714 reversed $569 $-1 #
edge $-1 $715 -15 $718 15 $713 $852 forward 7 unknown #
vertex $-1 $714 $853 #
straight-curve $-1 20 35 -30 0 1 0 I I #
point $-1 50 20 -30 #
vertex $-1 $564 $854 #
straight-curve $-1 50 35 -30 0 -1 0 I I #
straight-curve $-1 50 50 -20 0 0 -1 I I #
coedge $-1 $568 $713 $710 $850 reversed $569 $-1 #
ellipse-curve $-1 25 50 -15 0 -1 0 -3.535533905932739973 0 3.535533905932739973 1 I I #
face $-1 $-1 $592 $5 $-1 $855 reversed single #
plane-surface $-1 35 -20 20 0 -1 0 0 0 -1 forward_v I I I I #
edge $-1 $593 -15 $726 15 $591 $856 forward 7 unknown #
vertex $-1 $725 $857 #
straight-curve $-1 35 -20 30 -1 0 0 I I #
coedge $-1 $591 $583 $585 $730 reversed $592 $-1 #
ellipse-curve $-1 50 -25 15 -1 0 0 0 3.535533905932739973 -3.535533905932739973 1 I I #
edge $-1 $726 -10 $586 5 $728 $858 forward 7 unknown #
point $-1 50 -20 15 #
straight-curve $-1 50 -35 10 0 -1 0 I I #
point $-1 50 -50 30 #
straight-curve $-1 35 50 30 -1 0 0 I I #
point $-1 20 50 30 #
face $-1 $859 $860 $135 $-1 $861 reversed single #
loop $-1 $-1 $862 $604 #
plane-surface $-1 -20 -35 -20 -1 0 0 0 0 1 forward_v I I I I #
coedge $-1 $863 $864 $747 $865 forward $605 $-1 #
coedge $-1 $741 $607 $864 $866 reversed $469 $-1 #
coedge $-1 $607 $740 $867 $868 forward $469 $-1 #
edge $-1 $869 -0.785398163397448279 $750 0.785398163397448279 $607 $870 forward 7 unknown #
coedge $-1 $609 $608 $871 $872 forward $336 $-1 #
coedge $-1 $873 $874 $609 $745 reversed $875 $-1 #
edge $-1 $876 -0.785398163397448279 $749 0.785398163397448279 $744 $877 forward 7 unknown #
coedge $-1 $878 $610 $874 $879 forward $748 $-1 #
coedge $-1 $610 $878 $739 $865 reversed $748 $-1 #
loop $-1 $-1 $747 $859 #
vertex $-1 $611 $880 #
vertex $-1 $611 $881 #
straight-curve $-1 -35 -25 -10 1 0 0 I I #
face $-1 $882 $883 $78 $-1 $884 reversed single #
loop $-1 $-1 $761 $612 #
plane-surface $-1 -35 35 -30 0 0 1 1 0 0 forward_v I I I I #
coedge $-1 $618 $885 $620 $767 reversed $613 $-1 #
coedge $-1 $621 $615 $616 $760 forward $473 $-1 #
coedge $-1 $776 $886 $615 $758 reversed $887 $-1 #
edge $-1 $629 -0.785398163397448279 $888 0.785398163397448279 $757 $889 forward 7 unknown #
coedge $-1 $617 $616 $890 $891 forward $339 $-1 #
edge $-1 $888 -0.785398163397448279 $765 0.785398163397448279 $756 $892 forward 7 unknown #
coedge $-1 $893 $894 $617 $762 reversed $753 $-1 #
edge $-1 $895 -0.785398163397448279 $764 0.785398163397448279 $761 $896 forward 7 unknown #
coedge $-1 $885 $618 $894 $897 reversed $613 $-1 #
vertex $-1 $897 $898 #
vertex $-1 $767 $899 #
straight-curve $-1 -20 25 -20 0 0 1 I I #
edge $-1 $765 -10 $772 15 $755 $900 forward 7 unknown #
ellipse-curve $-1 -25 25 -15 -0 -1 -0 3.535533905932739973 0 3.535533905932739973 1 I I #
coedge $-1 $901 $623 $885 $902 forward $771 $-1 #
coedge $-1 $623 $903 $625 $775 reversed $771 $-1 #
loop $-1 $-1 $623 $904 #
vertex $-1 $624 $905 #
ellipse-curve $-1 -25 50 -15 0 -1 0 3.535533905932739973 0 3.535533905932739973 1 I I #
coedge $-1 $626 $625 $906 $907 forward $627 $-1 #
edge $-1 $628 -10 $908 15 $770 $909 forward 7 unknown #
coedge $-1 $910 $757 $626 $777 forward $887 $-1 #
edge $-1 $629 -10 $911 15 $626 $912 forward 7 unknown #
face $-1 $913 $627 $78 $-1 $914 forward single #
point $-1 -25 50 -10 #
point $-1 -25 25 -10 #
face $-1 $915 $797 $42 $-1 $916 reversed single #
plane-surface $-1 -35 -35 30 0 0 1 1 0 0 forward_v I I I I #
coedge $-1 $634 $633 $795 $917 forward $343 $-1 #
coedge $-1 $918 $919 $633 $785 reversed $920 $-1 #
edge $-1 $789 -0.785398163397448279 $921 0.785398163397448279 $784 $922 forward 7 unknown #
coedge $-1 $923 $635 $639 $793 reversed $788 $-1 #
coedge $-1 $635 $923 $918 $924 forward $788 $-1 #
loop $-1 $-1 $635 $915 #
vertex $-1 $924 $925 #
straight-curve $-1 -35 -25 10 -1 -0 -0 I I #
ellipse-curve $-1 -25 -25 15 -1 -0 -0 0 3.535533905932739973 -3.535533905932739973 1 I I #
coedge $-1 $639 $638 $926 $927 forward $481 $-1 #
edge $-1 $928 -15 $640 10 $786 $929 forward 7 unknown #
point $-1 -25 -25 10 #
coedge $-1 $930 $642 $783 $917 reversed $797 $-1 #
coedge $-1 $642 $930 $646 $801 reversed $797 $-1 #
loop $-1 $-1 $795 $781 #
straight-curve $-1 -25 -20 20 0 0 1 I I #
point $-1 -25 -20 15 #
coedge $-1 $802 $646 $931 $932 forward $648 $-1 #
edge $-1 $649 -10 $933 15 $796 $934 forward 7 unknown #
coedge $-1 $647 $800 $935 $936 forward $648 $-1 #
point $-1 -25 -20 30 #
coedge $-1 $935 $926 $651 $805 reversed $937 $-1 #
edge $-1 $806 -10 $808 5 $651 $938 forward 7 unknown #
vertex $-1 $652 $939 #
straight-curve $-1 -20 -35 30 0 1 0 I I #
vertex $-1 $805 $940 #
straight-curve $-1 -20 -35 15 0 -1 0 I I #
face $-1 $941 $942 $24 $-1 $943 reversed single #
cone-surface $-1 -35 25 15 -1 -0 -0 0 -3.535533905932739973 -3.535533905932739973 1 I I 0 1 5.000000000000003553 forward I I I I #
coedge $-1 $944 $821 $659 $813 reversed $945 $-1 #
edge $-1 $816 -10 $664 5 $812 $946 forward 7 unknown #
coedge $-1 $660 $947 $944 $948 forward $815 $-1 #
loop $-1 $-1 $660 $949 #
vertex $-1 $948 $950 #
ellipse-curve $-1 -25 25 30 -0 -0 -1 3.535533905932739973 -3.535533905932739973 0 1 I I #
point $-1 -20 25 30 #
point $-1 -25 20 15 #
coedge $-1 $667 $666 $951 $952 forward $668 $-1 #
coedge $-1 $812 $953 $666 $822 reversed $945 $-1 #
edge $-1 $664 -10 $954 15 $821 $955 forward 7 unknown #
vertex $-1 $952 $956 #
straight-curve $-1 -35 25 10 1 0 0 I I #
coedge $-1 $673 $672 $957 $958 forward $657 $-1 #
coedge $-1 $957 $959 $675 $827 forward $942 $-1 #
edge $-1 $960 -10 $828 10 $675 $961 forward 7 unknown #
vertex $-1 $676 $962 #
straight-curve $-1 -35 50 10 1 0 0 I I #
coedge $-1 $947 $679 $677 $831 forward $815 $-1 #
edge $-1 $681 -15 $960 15 $677 $963 forward 7 unknown #
straight-curve $-1 -20 35 30 0 1 0 I I #
point $-1 -20 50 30 #
straight-curve $-1 20 -35 -15 0 -1 0 I I #
coedge $-1 $842 $701 $685 $836 forward $704 $-1 #
edge $-1 $846 -15 $837 15 $685 $964 forward 7 unknown #
vertex $-1 $844 $965 #
straight-curve $-1 20 -50 -20 0 0 -1 I I #
straight-curve $-1 35 -50 -10 1 0 0 I I #
point $-1 20 -50 -15 #
plane-surface $-1 35 -35 -10 0 0 1 1 0 0 forward_v I I I I #
coedge $-1 $693 $835 $695 $844 forward $704 $-1 #
ellipse-curve $-1 25 -25 -30 0 0 1 -3.535533905932739973 3.535533905932739973 0 1 I I #
edge $-1 $837 -15 $696 10 $695 $966 forward 7 unknown #
point $-1 20 -25 -30 #
vertex $-1 $698 $967 #
straight-curve $-1 50 -50 -20 0 0 -1 I I #
point $-1 50 -50 -10 #
straight-curve $-1 50 -35 -30 0 -1 0 I I #
edge $-1 $711 -5 $715 10 $721 $968 forward 7 unknown #
point $-1 20 50 -15 #
straight-curve $-1 35 50 -30 1 0 0 I I #
point $-1 20 50 -30 #
point $-1 50 50 -30 #
plane-surface $-1 50 -35 20 -1 0 0 0 0 1 forward_v I I I I #
straight-curve $-1 50 -35 30 0 1 0 I I #
point $-1 50 -20 30 #
straight-curve $-1 50 -20 20 0 0 -1 I I #
face $-1 $969 $748 $135 $-1 $970 forward single #
loop $-1 $-1 $971 $736 #
plane-surface $-1 -35 -50 -20 0 1 0 0 0 1 forward_v I I I I #
coedge $-1 $972 $973 $974 $975 reversed $737 $-1 #
coedge $-1 $974 $739 $971 $976 forward $605 $-1 #
coedge $-1 $739 $974 $740 $866 forward $605 $-1 #
edge $-1 $750 -10 $977 15 $747 $978 forward 7 unknown #
edge $-1 $979 -0.785398163397448279 $750 0.785398163397448279 $864 $980 forward 7 unknown #
coedge $-1 $981 $982 $741 $868 reversed $983 $-1 #
edge $-1 $979 -0.785398163397448279 $869 0.785398163397448279 $867 $984 forward 7 unknown #
vertex $-1 $985 $986 #
ellipse-curve $-1 -25 -25 -15 1 0 0 0 3.535533905932739973 3.535533905932739973 1 I I #
coedge $-1 $987 $988 $743 $872 reversed $989 $-1 #
edge $-1 $869 -10 $876 15 $871 $990 forward 7 unknown #
coedge $-1 $991 $744 $988 $992 forward $875 $-1 #
coedge $-1 $744 $993 $746 $879 reversed $875 $-1 #
loop $-1 $-1 $744 $994 #
vertex $-1 $745 $995 #
ellipse-curve $-1 -50 -25 -15 1 0 0 0 3.535533905932739973 3.535533905932739973 1 I I #
coedge $-1 $747 $746 $996 $997 forward $748 $-1 #
edge $-1 $749 -10 $998 15 $874 $999 forward 7 unknown #
point $-1 -50 -25 -10 #
point $-1 -25 -25 -10 #
face $-1 $778 $887 $78 $-1 $1000 forward single #
loop $-1 $-1 $890 $752 #
plane-surface $-1 -35 20 -20 0 1 0 0 0 1 forward_v I I I I #
coedge $-1 $755 $763 $769 $902 reversed $613 $-1 #
coedge $-1 $757 $910 $1001 $1002 forward $887 $-1 #
loop $-1 $-1 $757 $882 #
vertex $-1 $1002 $1003 #
ellipse-curve $-1 -25 25 -15 1 0 0 0 -3.535533905932739973 3.535533905932739973 1 I I #
coedge $-1 $1001 $1004 $759 $891 reversed $883 $-1 #
edge $-1 $888 -5 $895 10 $890 $1005 forward 7 unknown #
ellipse-curve $-1 -25 25 -15 0 0 1 3.535533905932739973 -3.535533905932739973 0 1 I I #
coedge $-1 $1006 $761 $1004 $1007 forward $753 $-1 #
coedge $-1 $761 $1008 $763 $897 forward $753 $-1 #
vertex $-1 $891 $1009 #
ellipse-curve $-1 -25 25 -30 0 0 1 3.535533905932739973 -3.535533905932739973 0 1 I I #
edge $-1 $1010 -15 $764 10 $763 $1011 forward 7 unknown #
point $-1 -20 25 -30 #
point $-1 -20 25 -15 #
straight-curve $-1 -20 35 -15 0 1 0 I I #
coedge $-1 $903 $769 $1008 $1012 reversed $771 $-1 #
edge $-1 $772 -5 $1010 10 $885 $1013 forward 7 unknown #
coedge $-1 $770 $901 $1014 $1015 reversed $771 $-1 #
face $-1 $-1 $771 $78 $-1 $1016 reversed single #
point $-1 -20 50 -15 #
coedge $-1 $1014 $1017 $774 $907 reversed $1018 $-1 #
edge $-1 $908 -15 $911 10 $906 $1019 forward 7 unknown #
vertex $-1 $775 $1020 #
straight-curve $-1 -35 50 -10 -1 0 0 I I #
coedge $-1 $886 $776 $1017 $1021 forward $887 $-1 #
vertex $-1 $907 $1022 #
straight-curve $-1 -35 25 -10 -1 -0 -0 I I #
face $-1 $904 $1018 $78 $-1 $1023 reversed single #
plane-surface $-1 -35 35 -10 0 0 1 1 0 0 forward_v I I I I #
face $-1 $1024 $788 $42 $-1 $1025 reversed single #
plane-surface $-1 -35 -20 20 0 -1 0 0 0 -1 forward_v I I I I #
edge $-1 $921 -15 $644 10 $795 $1026 forward 7 unknown #
coedge $-1 $1027 $784 $787 $924 reversed $920 $-1 #
coedge $-1 $784 $931 $930 $1028 forward $920 $-1 #
loop $-1 $-1 $784 $1029 #
vertex $-1 $1028 $1030 #
ellipse-curve $-1 -50 -25 15 1 0 0 0 3.535533905932739973 -3.535533905932739973 1 I I #
coedge $-1 $787 $786 $1031 $1032 forward $788 $-1 #
edge $-1 $1033 -15 $789 10 $918 $1034 forward 7 unknown #
point $-1 -50 -25 10 #
coedge $-1 $804 $1031 $792 $927 reversed $937 $-1 #
edge $-1 $808 -0.785398163397448279 $928 0.785398163397448279 $926 $1035 forward 7 unknown #
vertex $-1 $793 $1036 #
straight-curve $-1 -25 -35 10 0 1 0 I I #
coedge $-1 $796 $795 $919 $1028 reversed $797 $-1 #
coedge $-1 $919 $1027 $800 $932 reversed $920 $-1 #
edge $-1 $933 -15 $1037 15 $931 $1038 forward 7 unknown #
vertex $-1 $801 $1039 #
straight-curve $-1 -35 -20 30 -1 0 0 I I #
coedge $-1 $1040 $804 $802 $936 reversed $937 $-1 #
edge $-1 $1037 -15 $806 15 $935 $1041 forward 7 unknown #
loop $-1 $-1 $926 $1024 #
straight-curve $-1 -20 -50 20 0 0 -1 I I #
point $-1 -20 -50 30 #
point $-1 -20 -50 15 #
face $-1 $949 $945 $24 $-1 $1042 reversed single #
loop $-1 $-1 $951 $810 #
plane-surface $-1 -50 35 20 1 0 0 0 0 -1 forward_v I I I I #
coedge $-1 $953 $812 $814 $948 reversed $945 $-1 #
loop $-1 $-1 $812 $941 #
straight-curve $-1 -25 20 20 0 0 -1 I I #
coedge $-1 $814 $830 $959 $1043 forward $815 $-1 #
edge $-1 $1044 -15 $816 10 $944 $1045 forward 7 unknown #
face $-1 $-1 $815 $24 $-1 $1046 forward single #
point $-1 -25 20 30 #
coedge $-1 $1047 $957 $820 $952 reversed $942 $-1 #
edge $-1 $954 -0.785398163397448279 $823 0.785398163397448279 $951 $1048 forward 7 unknown #
coedge $-1 $821 $944 $1047 $1049 forward $945 $-1 #
vertex $-1 $1049 $1050 #
straight-curve $-1 -35 20 15 -1 0 0 I I #
point $-1 -50 25 10 #
coedge $-1 $951 $826 $825 $958 reversed $942 $-1 #
edge $-1 $823 -10 $828 15 $957 $1051 forward 7 unknown #
coedge $-1 $826 $1047 $947 $1043 reversed $942 $-1 #
vertex $-1 $831 $1052 #
straight-curve $-1 -50 50 20 0 0 -1 I I #
point $-1 -50 50 10 #
straight-curve $-1 -35 50 30 -1 0 0 I I #
straight-curve $-1 35 -50 -30 -1 0 0 I I #
point $-1 20 -50 -30 #
straight-curve $-1 20 -35 -30 0 1 0 I I #
point $-1 50 -50 -30 #
straight-curve $-1 20 50 -20 0 0 -1 I I #
face $-1 $1053 $983 $135 $-1 $1054 forward single #
plane-surface $-1 -35 -35 -10 0 0 1 1 0 0 forward_v I I I I #
coedge $-1 $996 $1055 $863 $976 reversed $860 $-1 #
coedge $-1 $1056 $862 $1055 $1057 forward $737 $-1 #
coedge $-1 $862 $1056 $981 $1058 reversed $737 $-1 #
coedge $-1 $864 $863 $862 $975 forward $605 $-1 #
edge $-1 $1059 -15 $979 10 $862 $1060 forward 7 unknown #
edge $-1 $977 -0.785398163397448279 $1059 0.785398163397448279 $971 $1061 forward 7 unknown #
vertex $-1 $997 $1062 #
straight-curve $-1 -25 -35 -10 -0 -1 -0 I I #
vertex $-1 $868 $1063 #
ellipse-curve $-1 -25 -25 -15 -0 -1 -0 3.535533905932739973 0 3.535533905932739973 1 I I #
coedge $-1 $1064 $867 $973 $1058 forward $983 $-1 #
coedge $-1 $867 $1064 $987 $985 forward $983 $-1 #
loop $-1 $-1 $867 $969 #
ellipse-curve $-1 -25 -25 -15 0 0 1 3.535533905932739973 3.535533905932739973 0 1 I I #
edge $-1 $1065 -10 $869 5 $987 $1066 forward 7 unknown #
point $-1 -25 -20 -15 #
coedge $-1 $1067 $871 $982 $985 reversed $989 $-1 #
coedge $-1 $871 $1067 $873 $992 reversed $989 $-1 #
loop $-1 $-1 $871 $1053 #
straight-curve $-1 -35 -20 -15 -1 0 0 I I #
coedge $-1 $993 $873 $1068 $1069 reversed $875 $-1 #
edge $-1 $876 -5 $1070 10 $988 $1071 forward 7 unknown #
coedge $-1 $874 $991 $1072 $1073 reversed $875 $-1 #
face $-1 $-1 $875 $135 $-1 $1074 reversed single #
point $-1 -50 -20 -15 #
coedge $-1 $1072 $971 $878 $997 reversed $860 $-1 #
edge $-1 $998 -15 $977 10 $996 $1075 forward 7 unknown #
vertex $-1 $879 $1076 #
straight-curve $-1 -50 -35 -10 0 -1 0 I I #
cone-surface $-1 -35 25 -15 1 0 0 0 -3.535533905932739973 3.535533905932739973 1 I I 0 1 5.000000000000003553 forward I I I I #
coedge $-1 $1077 $890 $886 $1002 reversed $883 $-1 #
edge $-1 $1078 -15 $888 10 $1001 $1079 forward 7 unknown #
point $-1 -25 20 -15 #
coedge $-1 $890 $1077 $893 $1007 reversed $883 $-1 #
straight-curve $-1 -25 20 -20 0 0 -1 I I #
coedge $-1 $1008 $893 $1080 $1081 forward $753 $-1 #
edge $-1 $895 -10 $1082 15 $1004 $1083 forward 7 unknown #
coedge $-1 $894 $1006 $901 $1012 forward $753 $-1 #
point $-1 -25 20 -30 #
vertex $-1 $897 $1084 #
straight-curve $-1 -20 35 -30 0 -1 0 I I #
edge $-1 $1085 -15 $1010 15 $901 $1086 forward 7 unknown #
straight-curve $-1 -20 50 -20 0 0 -1 I I #
coedge $-1 $1080 $906 $903 $1015 forward $1018 $-1 #
edge $-1 $908 -10 $1085 10 $903 $1087 forward 7 unknown #
plane-surface $-1 -35 50 -20 0 -1 0 0 0 -1 forward_v I I I I #
coedge $-1 $906 $1088 $910 $1021 reversed $1018 $-1 #
loop $-1 $-1 $1017 $913 #
straight-curve $-1 -50 35 -10 0 -1 0 I I #
point $-1 -50 50 -10 #
edge $-1 $911 -0.785398163397448279 $1078 0.785398163397448279 $1017 $1089 forward 7 unknown #
point $-1 -50 25 -10 #
plane-surface $-1 -50 35 -20 1 0 0 0 0 -1 forward_v I I I I #
face $-1 $1029 $937 $42 $-1 $1090 reversed single #
plane-surface $-1 -35 -35 10 0 0 1 1 0 0 forward_v I I I I #
straight-curve $-1 -35 -20 15 1 0 0 I I #
coedge $-1 $931 $918 $1040 $1091 reversed $920 $-1 #
edge $-1 $933 -10 $921 5 $930 $1092 forward 7 unknown #
face $-1 $-1 $920 $42 $-1 $1093 reversed single #
point $-1 -50 -20 15 #
coedge $-1 $926 $1040 $923 $1032 reversed $937 $-1 #
edge $-1 $928 -10 $1033 15 $1031 $1094 forward 7 unknown #
vertex $-1 $924 $1095 #
straight-curve $-1 -50 -35 10 0 1 0 I I #
ellipse-curve $-1 -25 -50 15 0 1 0 3.535533905932739973 0 -3.535533905932739973 1 I I #
point $-1 -25 -50 10 #
vertex $-1 $932 $1096 #
straight-curve $-1 -50 -35 30 0 -1 0 I I #
point $-1 -50 -20 30 #
coedge $-1 $1031 $935 $1027 $1091 forward $937 $-1 #
straight-curve $-1 -35 -50 30 1 0 0 I I #
plane-surface $-1 -35 20 20 0 1 0 0 0 1 forward_v I I I I #
edge $-1 $960 -15 $1044 15 $959 $1097 forward 7 unknown #
vertex $-1 $1043 $1098 #
straight-curve $-1 -35 20 30 1 0 0 I I #
plane-surface $-1 -35 35 30 0 0 1 1 0 0 forward_v I I I I #
coedge $-1 $959 $951 $953 $1049 reversed $942 $-1 #
ellipse-curve $-1 -50 25 15 1 0 0 0 -3.535533905932739973 -3.535533905932739973 1 I I #
edge $-1 $1044 -10 $954 5 $1047 $1099 forward 7 unknown #
point $-1 -50 20 15 #
straight-curve $-1 -50 35 10 0 1 0 I I #
point $-1 -50 50 30 #
face $-1 $1100 $989 $135 $-1 $1101 reversed single #
cone-surface $-1 -25 -25 -20 0 0 -1 3.535533905932739973 3.535533905932739973 0 1 I I 0 1 5.000000000000003553 forward I I I I #
coedge $-1 $971 $1102 $972 $1057 reversed $860 $-1 #
coedge $-1 $973 $972 $1103 $1104 reversed $737 $-1 #
edge $-1 $1059 -5 $1105 10 $972 $1106 forward 7 unknown #
edge $-1 $979 -5 $1107 10 $973 $1108 forward 7 unknown #
vertex $-1 $976 $1109 #
straight-curve $-1 -20 -35 -15 0 1 0 I I #
ellipse-curve $-1 -25 -50 -15 0 1 0 3.535533905932739973 0 3.535533905932739973 1 I I #
point $-1 -25 -50 -10 #
point $-1 -20 -25 -15 #
coedge $-1 $982 $981 $1110 $1111 forward $983 $-1 #
vertex $-1 $1112 $1113 #
straight-curve $-1 -25 -20 -20 0 0 1 I I #
coedge $-1 $988 $987 $1114 $1112 reversed $989 $-1 #
coedge $-1 $1114 $1115 $991 $1069 forward $1116 $-1 #
edge $-1 $1117 -15 $1070 15 $991 $1118 forward 7 unknown #
vertex $-1 $1112 $1119 #
straight-curve $-1 -50 -20 -20 0 0 -1 I I #
coedge $-1 $1102 $996 $993 $1073 forward $860 $-1 #
edge $-1 $998 -10 $1117 10 $993 $1120 forward 7 unknown #
plane-surface $-1 -50 -35 -20 1 0 0 0 0 -1 forward_v I I I I #
straight-curve $-1 -35 -50 -10 1 0 0 I I #
point $-1 -50 -50 -10 #
coedge $-1 $1004 $1001 $1088 $1121 forward $883 $-1 #
vertex $-1 $1002 $1122 #
straight-curve $-1 -35 20 -15 1 0 0 I I #
coedge $-1 $1088 $1014 $1006 $1081 reversed $1018 $-1 #
edge $-1 $1082 -15 $1085 15 $1080 $1123 forward 7 unknown #
vertex $-1 $1081 $1124 #
straight-curve $-1 -35 20 -30 -1 0 0 I I #
point $-1 -20 50 -30 #
vertex $-1 $1012 $1125 #
straight-curve $-1 -35 50 -30 1 0 0 I I #
straight-curve $-1 -50 50 -20 0 0 -1 I I #
coedge $-1 $1017 $1080 $1077 $1121 reversed $1018 $-1 #
ellipse-curve $-1 -50 25 -15 1 0 0 0 -3.535533905932739973 3.535533905932739973 1 I I #
plane-surface $-1 -35 -50 20 0 1 0 0 0 1 forward_v I I I I #
edge $-1 $1037 -10 $1033 10 $1027 $1126 forward 7 unknown #
straight-curve $-1 -50 -20 20 0 0 -1 I I #
plane-surface $-1 -50 -35 20 1 0 0 0 0 -1 forward_v I I I I #
straight-curve $-1 -35 -50 10 -1 0 0 I I #
point $-1 -50 -50 10 #
point $-1 -50 -50 30 #
straight-curve $-1 -50 35 30 0 -1 0 I I #
point $-1 -50 20 30 #
straight-curve $-1 -50 20 20 0 0 -1 I I #
face $-1 $994 $1116 $135 $-1 $1127 reversed single #
plane-surface $-1 -35 -20 -20 0 -1 0 0 0 -1 forward_v I I I I #
coedge $-1 $1055 $1072 $1115 $1128 reversed $860 $-1 #
coedge $-1 $1115 $1110 $1056 $1104 forward $1116 $-1 #
edge $-1 $1107 -10 $1105 15 $1056 $1129 forward 7 unknown #
vertex $-1 $1057 $1130 #
straight-curve $-1 -20 -50 -20 0 0 -1 I I #
vertex $-1 $1111 $1131 #
straight-curve $-1 -20 -25 -20 0 0 -1 I I #
point $-1 -20 -50 -15 #
coedge $-1 $1103 $1114 $1064 $1111 reversed $1116 $-1 #
edge $-1 $1107 -0.785398163397448279 $1065 0.785398163397448279 $1110 $1132 forward 7 unknown #
edge $-1 $1070 -15 $1065 10 $1067 $1133 forward 7 unknown #
point $-1 -25 -20 -30 #
coedge $-1 $1110 $1068 $1067 $1112 forward $1116 $-1 #
coedge $-1 $1068 $1103 $1102 $1128 forward $1116 $-1 #
loop $-1 $-1 $1110 $1100 #
vertex $-1 $1069 $1134 #
straight-curve $-1 -50 -35 -30 0 1 0 I I #
point $-1 -50 -20 -30 #
straight-curve $-1 -50 -50 -20 0 0 -1 I I #
edge $-1 $1078 -5 $1082 10 $1088 $1135 forward 7 unknown #
point $-1 -50 20 -15 #
straight-curve $-1 -50 35 -30 0 1 0 I I #
point $-1 -50 20 -30 #
point $-1 -50 50 -30 #
straight-curve $-1 -50 -50 20 0 0 -1 I I #
plane-surface $-1 -35 -35 -30 0 0 1 1 0 0 forward_v I I I I #
edge $-1 $1105 -15 $1117 15 $1102 $1136 forward 7 unknown #
straight-curve $-1 -20 -35 -30 0 -1 0 I I #
point $-1 -20 -50 -30 #
point $-1 -20 -25 -30 #
ellipse-curve $-1 -25 -25 -30 0 0 1 3.535533905932739973 3.535533905932739973 0 1 I I #
straight-curve $-1 -35 -20 -30 1 0 0 I I #
point $-1 -50 -50 -30 #
straight-curve $-1 -50 20 -20 0 0 -1 I I #
straight-curve $-1 -35 -50 -30 -1 0 0 I I #
End-of-ACIS-data 