106 0 1 0           
body $1 $2 $-1 $3 #
f_body-lwd-attrib $-1 $4 $-1 $0 #
lump $5 $-1 $6 $0 #
transform $-1 1 0 0 0 1 0 0 0 1 0 0 -9.5249999999999986 1 0 0 0 #
ref_vt-lwd-attrib $-1 $-1 $1 $0 $7 $-1 #
ref_vt-lwd-attrib $-1 $-1 $-1 $2 $7 $-1 #
shell $8 $-1 $-1 $9 $2 #
refinement $-1 0 8 0 0 0.9354134202003479 25 0 4 1 #
ref_vt-lwd-attrib $-1 $-1 $-1 $6 $7 $-1 #
face $10 $11 $12 $6 $-1 $13 reversed single #
ref_vt-lwd-attrib $-1 $-1 $-1 $9 $7 $-1 #
face $14 $15 $16 $6 $-1 $17 reversed single #
loop $-1 $-1 $18 $9 #
plane-surface $-1 19.050000000000001 7.620000000000001 19.049999999999997 -1 0 0 0 0 1 0 I I I I #
ref_vt-lwd-attrib $-1 $-1 $-1 $11 $7 $-1 #
face $19 $20 $21 $6 $-1 $22 reversed single #
loop $-1 $-1 $23 $11 #
cone-surface $-1 24.129999999999995 7.6199999999999957 19.049999999999997 0 0 -1 -5.0799999999999947 5.3290705182007514e-15 0 1 I I 0 1 0 I I I I #
coedge $-1 $24 $25 $26 $27 1 $12 $-1 #
ref_vt-lwd-attrib $-1 $-1 $-1 $15 $7 $-1 #
face $28 $29 $30 $6 $-1 $31 reversed single #
loop $-1 $-1 $32 $15 #
plane-surface $-1 26.670000000000002 12.699999999999999 19.049999999999997 0 1 0 0 0 1 0 I I I I #
coedge $-1 $33 $34 $35 $36 1 $16 $-1 #
coedge $-1 $37 $18 $38 $39 0 $12 $-1 #
coedge $-1 $18 $37 $33 $40 1 $12 $-1 #
coedge $-1 $35 $41 $18 $27 0 $42 $-1 #
edge $-1 $43 $44 $26 $45 0 #
ref_vt-lwd-attrib $-1 $-1 $-1 $20 $7 $-1 #
face $46 $47 $48 $6 $-1 $49 reversed single #
loop $-1 $-1 $50 $20 #
cone-surface $-1 26.669999999999998 7.6200000000000019 19.049999999999997 0 0 -1 3.5527136788005009e-15 5.0799999999999974 0 1 I I 0 1 0 I I I I #
coedge $-1 $51 $52 $53 $54 1 $21 $-1 #
coedge $-1 $55 $23 $25 $40 0 $16 $-1 #
coedge $-1 $23 $55 $51 $56 1 $16 $-1 #
coedge $-1 $53 $26 $23 $36 0 $42 $-1 #
edge $-1 $44 $57 $35 $58 0 #
coedge $-1 $25 $24 $59 $60 1 $12 $-1 #
coedge $-1 $61 $62 $24 $39 1 $63 $-1 #
edge $-1 $43 $64 $38 $65 0 #
edge $-1 $44 $66 $25 $67 0 #
coedge $-1 $26 $68 $61 $69 0 $42 $-1 #
loop $-1 $70 $71 $72 #
vertex $-1 $27 $73 #
vertex $-1 $36 $74 #
straight-curve $-1 19.049999999999997 16.509999999999991 12.699999999999998 0 1 0 I I #
ref_vt-lwd-attrib $-1 $-1 $-1 $29 $7 $-1 #
face $75 $76 $63 $6 $-1 $77 reversed single #
loop $-1 $-1 $78 $29 #
plane-surface $-1 31.75 -7.6199999999999992 19.049999999999997 1 0 0 0 0 -1 0 I I I I #
coedge $-1 $79 $80 $81 $82 1 $30 $-1 #
coedge $-1 $83 $32 $34 $56 0 $21 $-1 #
coedge $-1 $32 $83 $79 $84 1 $21 $-1 #
coedge $-1 $81 $35 $32 $54 0 $42 $-1 #
edge $-1 $57 $85 $53 $86 0 #
coedge $-1 $34 $33 $87 $88 1 $16 $-1 #
edge $-1 $57 $89 $34 $90 0 #
vertex $-1 $54 $91 #
ellipse-curve $-1 24.129999999999995 7.6199999999999957 12.699999999999998 0 0 -1 -5.0799999999999947 5.3290705182007514e-15 0 1 I I #
coedge $-1 $92 $87 $37 $60 0 $93 $-1 #
edge $-1 $66 $64 $59 $94 0 #
coedge $-1 $95 $38 $41 $69 1 $63 $-1 #
coedge $-1 $38 $95 $92 $96 1 $63 $-1 #
loop $-1 $-1 $61 $47 #
vertex $-1 $60 $97 #
straight-curve $-1 19.050000000000001 -7.6199999999999992 19.049999999999997 0 0 -1 I I #
vertex $-1 $88 $98 #
straight-curve $-1 19.050000000000001 7.620000000000001 19.049999999999997 0 0 -1 I I #
coedge $-1 $41 $99 $100 $101 0 $42 $-1 #
edge $-1 $102 $43 $41 $103 0 #
loop $-1 $-1 $104 $72 #
coedge $-1 $99 $81 $78 $105 0 $42 $-1 #
face $106 $107 $42 $6 $-1 $108 forward single #
point $-1 19.050000000000001 -7.6199999999999992 12.699999999999998 #
point $-1 19.050000000000001 7.620000000000001 12.699999999999998 #
ref_vt-lwd-attrib $-1 $-1 $-1 $47 $7 $-1 #
face $109 $110 $111 $6 $-1 $112 reversed single #
cone-surface $-1 24.13000000000001 -7.6199999999999921 19.049999999999997 0 0 -1 -5.080000000000009 -7.1054273576010019e-15 0 1 I I 0 1 0 I I I I #
coedge $-1 $113 $114 $71 $105 1 $48 $-1 #
coedge $-1 $115 $50 $52 $84 0 $30 $-1 #
coedge $-1 $50 $115 $113 $116 1 $30 $-1 #
coedge $-1 $71 $53 $50 $82 0 $42 $-1 #
edge $-1 $85 $117 $81 $118 0 #
coedge $-1 $52 $51 $119 $120 1 $21 $-1 #
edge $-1 $85 $121 $52 $122 0 #
vertex $-1 $82 $123 #
straight-curve $-1 32.384999999999998 12.700000000000001 12.699999999999998 1 0 0 I I #
coedge $-1 $59 $119 $55 $88 0 $93 $-1 #
edge $-1 $89 $66 $87 $124 0 #
vertex $-1 $120 $125 #
straight-curve $-1 24.130000000000003 12.699999999999999 19.049999999999997 0 0 -1 I I #
point $-1 24.130000000000003 12.699999999999999 12.699999999999998 #
coedge $-1 $126 $59 $62 $96 0 $93 $-1 #
loop $-1 $127 $128 $129 #
straight-curve $-1 19.050000000000001 3.8100000000000005 0 0 -1 0 I I #
coedge $-1 $62 $61 $130 $131 0 $63 $-1 #
edge $-1 $64 $132 $92 $133 0 #
point $-1 19.050000000000001 -7.6199999999999992 0 #
point $-1 19.050000000000001 7.620000000000001 0 #
coedge $-1 $68 $71 $134 $135 0 $42 $-1 #
coedge $-1 $136 $130 $68 $101 1 $111 $-1 #
edge $-1 $137 $102 $68 $138 0 #
vertex $-1 $69 $139 #
ellipse-curve $-1 24.13000000000001 -7.6199999999999921 12.699999999999998 0 0 -1 -5.080000000000009 -7.1054273576010019e-15 0 1 I I #
coedge $-1 $140 $141 $142 $143 1 $70 $-1 #
edge $-1 $117 $144 $71 $145 0 #
ref_vt-lwd-attrib $-1 $-1 $-1 $72 $7 $-1 #
face $146 $147 $148 $6 $-1 $149 forward single #
plane-surface $-1 38.099999999999994 25.399999999999977 12.699999999999998 0 0 1 1 0 0 0 I I I I #
ref_vt-lwd-attrib $-1 $-1 $-1 $76 $7 $-1 #
face $150 $151 $152 $6 $-1 $153 reversed single #
loop $-1 $-1 $100 $76 #
plane-surface $-1 24.130000000000003 -12.700000000000001 19.049999999999997 0 -1 0 0 0 -1 0 I I I I #
coedge $-1 $154 $78 $80 $116 0 $48 $-1 #
coedge $-1 $78 $154 $155 $156 1 $48 $-1 #
coedge $-1 $80 $79 $157 $158 1 $30 $-1 #
edge $-1 $117 $159 $80 $160 0 #
vertex $-1 $105 $161 #
ellipse-curve $-1 26.669999999999998 7.6200000000000019 12.699999999999998 0 0 -1 3.5527136788005009e-15 5.0799999999999974 0 1 I I #
coedge $-1 $87 $157 $83 $120 0 $93 $-1 #
edge $-1 $121 $89 $119 $162 0 #
vertex $-1 $158 $163 #
straight-curve $-1 26.670000000000002 12.699999999999999 19.049999999999997 0 0 -1 I I #
point $-1 26.670000000000002 12.699999999999999 12.699999999999998 #
ellipse-curve $-1 24.129999999999995 7.6199999999999957 0 0 0 1 -5.0799999999999947 5.3290705182007514e-15 0 1 I I #
point $-1 24.130000000000003 12.699999999999999 0 #
coedge $-1 $164 $92 $165 $166 0 $93 $-1 #
loop $-1 $-1 $167 $129 #
coedge $-1 $157 $164 $154 $168 0 $93 $-1 #
face $169 $-1 $93 $6 $-1 $170 reversed single #
coedge $-1 $100 $165 $95 $131 1 $111 $-1 #
edge $-1 $102 $132 $130 $171 0 #
vertex $-1 $96 $172 #
ellipse-curve $-1 24.13000000000001 -7.6199999999999921 0 0 0 1 -5.080000000000009 -7.1054273576010019e-15 0 1 I I #
coedge $-1 $155 $173 $99 $135 1 $152 $-1 #
edge $-1 $144 $137 $99 $174 0 #
coedge $-1 $165 $100 $173 $175 0 $111 $-1 #
vertex $-1 $101 $176 #
straight-curve $-1 31.114999999999998 -12.700000000000003 12.699999999999998 -1 0 0 I I #
point $-1 24.130000000000003 -12.700000000000001 12.699999999999998 #
coedge $-1 $177 $104 $178 $179 1 $70 $-1 #
coedge $-1 $104 $177 $180 $181 1 $70 $-1 #
coedge $-1 $182 $183 $104 $143 0 $184 $-1 #
edge $-1 $185 $186 $142 $187 0 #
vertex $-1 $105 $188 #
straight-curve $-1 31.75 8.8899999999999899 12.699999999999998 0 -1 0 I I #
ref_vt-lwd-attrib $-1 $-1 $-1 $107 $7 $-1 #
face $189 $190 $191 $6 $-1 $192 reversed single #
loop $-1 $-1 $193 $107 #
plane-surface $-1 38.099999999999994 -25.399999999999977 0 0 -1 0 0 0 -1 0 I I I I #
ref_vt-lwd-attrib $-1 $-1 $-1 $110 $7 $-1 #
face $194 $195 $196 $6 $-1 $197 reversed single #
loop $-1 $-1 $134 $110 #
cone-surface $-1 26.670000000000002 -7.620000000000001 19.049999999999997 0 0 -1 5.0799999999999983 1.7763568394002505e-15 0 1 I I 0 1 0 I I I I #
coedge $-1 $114 $113 $128 $168 1 $48 $-1 #
coedge $-1 $198 $134 $114 $156 0 $152 $-1 #
edge $-1 $144 $199 $114 $200 0 #
coedge $-1 $119 $128 $115 $158 0 $93 $-1 #
edge $-1 $159 $121 $157 $201 0 #
vertex $-1 $168 $202 #
straight-curve $-1 31.75 7.6199999999999992 19.049999999999997 0 0 -1 I I #
point $-1 31.75 7.6199999999999992 12.699999999999998 #
straight-curve $-1 13.335000000000001 12.699999999999999 0 -1 0 0 I I #
point $-1 26.670000000000002 12.699999999999999 0 #
coedge $-1 $128 $126 $198 $203 0 $93 $-1 #
coedge $-1 $130 $136 $126 $166 1 $111 $-1 #
edge $-1 $132 $204 $126 $205 0 #
coedge $-1 $206 $207 $208 $209 1 $127 $-1 #
edge $-1 $199 $159 $128 $210 0 #
ref_vt-lwd-attrib $-1 $-1 $-1 $129 $7 $-1 #
plane-surface $-1 0 0 0 0 0 1 1 0 0 0 I I I I #
straight-curve $-1 24.130000000000003 -12.700000000000001 19.049999999999997 0 0 -1 I I #
point $-1 24.130000000000003 -12.700000000000001 0 #
coedge $-1 $134 $198 $136 $175 1 $152 $-1 #
ellipse-curve $-1 26.670000000000002 -7.620000000000001 12.699999999999998 0 0 -1 5.0799999999999983 1.7763568394002505e-15 0 1 I I #
edge $-1 $137 $204 $173 $211 0 #
point $-1 26.670000000000002 -12.699999999999999 12.699999999999998 #
coedge $-1 $141 $140 $193 $212 1 $70 $-1 #
coedge $-1 $213 $214 $140 $179 0 $191 $-1 #
edge $-1 $215 $185 $178 $216 0 #
coedge $-1 $217 $218 $141 $181 0 $219 $-1 #
edge $-1 $186 $220 $180 $221 0 #
coedge $-1 $222 $142 $218 $223 1 $184 $-1 #
coedge $-1 $142 $224 $213 $225 0 $184 $-1 #
loop $-1 $-1 $142 $226 #
vertex $-1 $225 $227 #
vertex $-1 $223 $228 #
straight-curve $-1 -1.4210854715202004e-14 25.399999999999999 12.699999999999998 1 0 0 I I #
point $-1 31.75 -7.6199999999999992 12.699999999999998 #
ref_vt-lwd-attrib $-1 $-1 $-1 $147 $7 $-1 #
face $229 $230 $231 $6 $-1 $232 reversed single #
loop $-1 $-1 $178 $147 #
plane-surface $-1 12.699999999999999 -25.399999999999977 19.049999999999997 1 0 0 0 0 -1 0 I I I I #
coedge $-1 $233 $234 $177 $212 0 $148 $-1 #
ref_vt-lwd-attrib $-1 $-1 $-1 $151 $7 $-1 #
face $235 $236 $237 $6 $-1 $238 reversed single #
loop $-1 $-1 $239 $151 #
cone-surface $-1 -12.699999999999999 0 14.604999999999997 0 0 -1 12.699999999999999 0 0 1 I I 0 1 0 I I I I #
coedge $-1 $173 $155 $164 $203 1 $152 $-1 #
vertex $-1 $168 $240 #
straight-curve $-1 31.75 -7.6199999999999992 19.049999999999997 0 0 -1 I I #
ellipse-curve $-1 26.669999999999998 7.6200000000000019 0 0 0 1 3.5527136788005009e-15 5.0799999999999974 0 1 I I #
point $-1 31.75 7.6199999999999992 0 #
edge $-1 $204 $199 $164 $241 0 #
vertex $-1 $166 $242 #
straight-curve $-1 12.065000000000001 -12.700000000000001 0 1 0 0 I I #
coedge $-1 $243 $167 $244 $245 1 $127 $-1 #
coedge $-1 $167 $243 $222 $246 1 $127 $-1 #
coedge $-1 $218 $217 $167 $209 0 $219 $-1 #
edge $-1 $247 $248 $208 $249 0 #
straight-curve $-1 31.75 -3.8099999999999996 0 0 1 0 I I #
straight-curve $-1 26.670000000000002 -12.699999999999999 19.049999999999997 0 0 -1 I I #
edge $-1 $220 $215 $193 $250 0 #
coedge $-1 $251 $178 $183 $225 1 $191 $-1 #
coedge $-1 $178 $251 $233 $252 1 $191 $-1 #
vertex $-1 $179 $253 #
straight-curve $-1 12.699999999999999 0 12.699999999999996 0 1 0 I I #
coedge $-1 $208 $180 $234 $254 1 $219 $-1 #
coedge $-1 $180 $208 $182 $223 0 $219 $-1 #
loop $-1 $-1 $180 $255 #
vertex $-1 $254 $256 #
straight-curve $-1 38.099999999999994 25.399999999999977 12.699999999999998 0 -1 0 I I #
coedge $-1 $257 $182 $207 $246 0 $184 $-1 #
edge $-1 $248 $186 $218 $258 0 #
coedge $-1 $183 $259 $260 $261 0 $184 $-1 #
edge $-1 $262 $185 $183 $263 0 #
face $264 $255 $184 $6 $-1 $265 forward single #
point $-1 12.700000000000045 25.399999999999999 12.699999999999998 #
point $-1 38.099999999999994 25.399999999999977 12.699999999999998 #
ref_vt-lwd-attrib $-1 $-1 $-1 $190 $7 $-1 #
face $266 $267 $268 $6 $-1 $269 forward single #
loop $-1 $-1 $270 $190 #
plane-surface $-1 -12.699999999999989 25.399999999999999 19.049999999999997 -1 0 0 0 0 1 0 I I I I #
coedge $-1 $271 $193 $214 $252 0 $148 $-1 #
coedge $-1 $193 $244 $217 $254 0 $148 $-1 #
ref_vt-lwd-attrib $-1 $-1 $-1 $195 $7 $-1 #
face $272 $72 $273 $6 $-1 $274 forward single #
loop $-1 $-1 $275 $195 #
plane-surface $-1 -12.699999999999999 0 10.159999999999997 0 0 -1 1 0 0 0 I I I I #
coedge $-1 $276 $277 $270 $278 1 $196 $-1 #
point $-1 31.75 -7.6199999999999992 0 #
ellipse-curve $-1 26.670000000000002 -7.620000000000001 0 0 0 1 5.0799999999999983 1.7763568394002505e-15 0 1 I I #
point $-1 26.670000000000002 -12.699999999999999 0 #
coedge $-1 $207 $206 $279 $280 1 $127 $-1 #
coedge $-1 $234 $281 $206 $245 0 $148 $-1 #
edge $-1 $282 $247 $244 $283 0 #
edge $-1 $248 $284 $222 $285 0 #
vertex $-1 $209 $286 #
vertex $-1 $209 $287 #
straight-curve $-1 38.099999999999994 -25.399999999999977 0 0 1 0 I I #
straight-curve $-1 38.099999999999994 -25.399999999999977 12.699999999999998 -1 0 0 I I #
coedge $-1 $214 $213 $288 $289 1 $191 $-1 #
edge $-1 $215 $290 $233 $291 0 #
point $-1 12.699999999999999 -25.399999999999977 12.699999999999998 #
edge $-1 $247 $220 $234 $292 0 #
face $293 $129 $219 $6 $-1 $294 forward single #
point $-1 38.099999999999994 -25.399999999999977 12.699999999999998 #
coedge $-1 $295 $222 $296 $297 0 $184 $-1 #
straight-curve $-1 38.099999999999994 25.399999999999977 0 0 0 1 I I #
coedge $-1 $224 $295 $298 $299 0 $184 $-1 #
coedge $-1 $300 $288 $224 $261 1 $268 $-1 #
edge $-1 $301 $262 $224 $302 0 #
vertex $-1 $225 $303 #
straight-curve $-1 12.700000000000001 25.399999999999999 9.5249999999999986 0 0 1 I I #
ref_vt-lwd-attrib $-1 $-1 $-1 $226 $7 $-1 #
plane-surface $-1 -38.100000000000023 25.399999999999999 0 0 1 0 0 0 1 0 I I I I #
ref_vt-lwd-attrib $-1 $-1 $-1 $230 $7 $-1 #
face $304 $226 $305 $6 $-1 $306 forward single #
loop $-1 $-1 $260 $230 #
plane-surface $-1 12.699999999999999 25.399999999999977 6.3499999999999979 0 0 1 1 0 0 0 I I I I #
coedge $-1 $307 $308 $239 $278 0 $231 $-1 #
coedge $-1 $309 $233 $310 $311 0 $148 $-1 #
ref_vt-lwd-attrib $-1 $-1 $-1 $236 $7 $-1 #
loop $-1 $-1 $312 $236 #
plane-surface $-1 38.099999999999994 -25.399999999999977 19.049999999999997 0 0 1 1 0 0 0 I I I I #
coedge $-1 $313 $313 $308 $314 1 $237 $-1 #
coedge $-1 $315 $239 $313 $316 0 $196 $-1 #
coedge $-1 $239 $315 $312 $317 1 $196 $-1 #
edge $-1 $318 $319 $270 $320 0 #
coedge $-1 $321 $296 $243 $280 0 $305 $-1 #
edge $-1 $284 $282 $279 $322 0 #
coedge $-1 $244 $323 $321 $324 1 $148 $-1 #
vertex $-1 $280 $325 #
straight-curve $-1 -38.100000000000023 -25.399999999999999 0 1 0 0 I I #
vertex $-1 $246 $326 #
straight-curve $-1 38.100000000000023 25.399999999999999 0 -1 0 0 I I #
point $-1 38.099999999999994 -25.399999999999977 0 #
point $-1 38.099999999999994 25.399999999999977 0 #
coedge $-1 $260 $310 $251 $289 0 $268 $-1 #
edge $-1 $290 $262 $251 $327 0 #
vertex $-1 $252 $328 #
straight-curve $-1 12.700000000000001 -25.399999999999977 9.5249999999999986 0 0 -1 I I #
straight-curve $-1 38.099999999999994 -25.399999999999977 0 0 0 1 I I #
ref_vt-lwd-attrib $-1 $-1 $-1 $255 $7 $-1 #
plane-surface $-1 38.099999999999994 25.399999999999977 0 1 0 0 0 0 -1 0 I I I I #
coedge $-1 $259 $257 $329 $330 0 $184 $-1 #
coedge $-1 $279 $331 $257 $297 1 $305 $-1 #
edge $-1 $284 $332 $257 $333 0 #
coedge $-1 $334 $335 $259 $299 1 $231 $-1 #
edge $-1 $336 $301 $259 $337 0 #
coedge $-1 $310 $260 $335 $338 0 $268 $-1 #
vertex $-1 $299 $339 #
straight-curve $-1 -12.700000000000012 25.399999999999999 6.3499999999999979 1 0 0 I I #
point $-1 12.699999999999999 25.399999999999977 6.3499999999999979 #
ref_vt-lwd-attrib $-1 $-1 $-1 $267 $7 $-1 #
loop $-1 $-1 $331 $267 #
plane-surface $-1 -38.099999999999994 -25.399999999999977 0 -1 0 0 0 0 1 0 I I I I #
coedge $-1 $340 $270 $341 $342 1 $231 $-1 #
coedge $-1 $270 $343 $275 $314 0 $231 $-1 #
coedge $-1 $323 $271 $340 $344 0 $148 $-1 #
coedge $-1 $288 $300 $271 $311 1 $268 $-1 #
edge $-1 $290 $345 $271 $346 0 #
coedge $-1 $347 $341 $277 $317 0 $273 $-1 #
coedge $-1 $275 $275 $276 $316 1 $237 $-1 #
edge $-1 $348 $318 $308 $349 0 #
coedge $-1 $277 $276 $343 $350 1 $196 $-1 #
edge $-1 $318 $348 $313 $351 0 #
edge $-1 $319 $352 $312 $353 0 #
vertex $-1 $278 $354 #
vertex $-1 $342 $355 #
straight-curve $-1 -12.699999999999989 -12.699999999999999 14.604999999999997 0 0 1 I I #
coedge $-1 $331 $279 $281 $324 0 $305 $-1 #
straight-curve $-1 -38.099999999999994 25.399999999999977 0 0 -1 0 I I #
coedge $-1 $281 $309 $356 $357 0 $148 $-1 #
edge $-1 $282 $358 $321 $359 0 #
point $-1 -38.099999999999994 -25.399999999999977 0 #
point $-1 -38.100000000000023 25.399999999999999 0 #
straight-curve $-1 12.699999999999999 -25.399999999999977 6.3499999999999979 0 1 0 I I #
point $-1 12.699999999999999 -25.399999999999977 6.3499999999999979 #
coedge $-1 $360 $347 $295 $330 1 $273 $-1 #
edge $-1 $332 $336 $295 $361 0 #
coedge $-1 $296 $321 $360 $362 0 $305 $-1 #
vertex $-1 $297 $363 #
straight-curve $-1 -38.100000000000023 25.399999999999999 0 0 0 1 I I #
coedge $-1 $343 $298 $347 $364 1 $231 $-1 #
coedge $-1 $298 $340 $300 $338 1 $231 $-1 #
vertex $-1 $330 $365 #
straight-curve $-1 -12.699999999999989 25.399999999999999 9.5249999999999986 0 0 -1 I I #
edge $-1 $301 $345 $335 $366 0 #
point $-1 -12.699999999999989 25.399999999999999 6.3499999999999979 #
coedge $-1 $335 $307 $309 $344 1 $231 $-1 #
coedge $-1 $312 $356 $307 $342 0 $273 $-1 #
edge $-1 $367 $319 $341 $368 0 #
coedge $-1 $308 $334 $315 $350 0 $231 $-1 #
edge $-1 $345 $367 $309 $369 0 #
vertex $-1 $344 $370 #
straight-curve $-1 25.399999999999999 -25.399999999999977 6.3499999999999979 -1 0 0 I I #
coedge $-1 $329 $312 $334 $364 0 $273 $-1 #
vertex $-1 $350 $371 #
straight-curve $-1 -12.699999999999989 12.699999999999999 10.159999999999997 0 -1 0 I I #
edge $-1 $352 $348 $343 $372 0 #
ellipse-curve $-1 -12.699999999999999 0 10.159999999999997 0 0 -1 12.699999999999999 0 0 1 I I #
vertex $-1 $350 $373 #
ellipse-curve $-1 -12.699999999999999 0 19.049999999999997 0 0 -1 12.699999999999999 0 0 1 I I #
point $-1 -12.699999999999989 -12.699999999999999 10.159999999999997 #
point $-1 -12.699999999999989 -12.699999999999999 19.049999999999997 #
coedge $-1 $341 $360 $323 $357 1 $273 $-1 #
edge $-1 $367 $358 $323 $374 0 #
vertex $-1 $324 $375 #
straight-curve $-1 -38.099999999999994 -25.399999999999977 0 0 0 1 I I #
coedge $-1 $356 $329 $331 $362 1 $273 $-1 #
straight-curve $-1 38.100000000000023 25.399999999999999 19.049999999999997 1 0 0 I I #
edge $-1 $358 $332 $331 $376 0 #
point $-1 -38.100000000000023 25.399999999999999 19.049999999999997 #
edge $-1 $352 $336 $347 $368 0 #
point $-1 -12.699999999999989 25.399999999999999 19.049999999999997 #
straight-curve $-1 -12.699999999999999 25.399999999999977 6.3499999999999979 0 -1 0 I I #
vertex $-1 $344 $377 #
straight-curve $-1 -12.699999999999989 1.0658141036401503e-14 19.049999999999997 0 1 0 I I #
straight-curve $-1 -12.699999999999989 -25.399999999999977 9.5249999999999986 0 0 1 I I #
point $-1 -12.699999999999999 -25.399999999999977 6.3499999999999979 #
point $-1 -12.699999999999989 12.699999999999999 10.159999999999997 #
straight-curve $-1 -12.699999999999989 12.699999999999999 14.604999999999997 0 0 -1 I I #
point $-1 -12.699999999999989 12.699999999999999 19.049999999999997 #
straight-curve $-1 -38.100000000000023 -25.399999999999999 19.049999999999997 -1 0 0 I I #
point $-1 -38.099999999999994 -25.399999999999977 19.049999999999997 #
straight-curve $-1 -38.099999999999994 25.399999999999977 19.049999999999997 0 1 0 I I #
point $-1 -12.699999999999999 -25.399999999999977 19.049999999999997 #
End-of-ACIS-data 