600 0 2 0           
24 FBMach with ACIS - 6.0.3 13 ACIS 6.0.3 NT 24 Wed May 23 20:29:33 2001 
1 9.9999999999999995e-007 1e-010 
body $2 $3 $-1 $4 #
bdycol-kcp $-1 1 5 $5 $6 $7 $8 $9 #
model_id-kcp-attrib $-1 $10 $-1 $0 1 990664172 70 -1371144191 1 #
lump $11 $-1 $12 $0 #
transform $-1 1 0 0 0 1 0 0 0 1 0 0 -9.5249999999999986 1 rotate no_reflect no_shear #
body $13 $14 $-1 $15 #
body $16 $17 $-1 $18 #
body $19 $20 $-1 $21 #
body $22 $23 $-1 $24 #
body $25 $26 $-1 $27 #
f_body-rbase-attrib $-1 $28 $2 $0 #
ref_vt-eye-attrib $-1 $-1 $-1 $3 $29 $-1 #
shell $30 $-1 $-1 $31 $-1 $3 #
model_id-kcp-attrib $-1 $-1 $-1 $5 1 990664172 70 -1371144190 1 #
lump $-1 $-1 $32 $5 #
transform $-1 1 0 0 0 1 0 0 0 1 -1.4210854715202004e-014 0 0 1 no_rotate no_reflect no_shear #
rgb_color-st-attrib $-1 $33 $-1 $6 0.5 1 1 #
lump $-1 $-1 $34 $6 #
transform $-1 1 0 0 0 1 0 0 0 1 0 0 -9.5249999999999986 1 no_rotate no_reflect no_shear #
rgb_color-st-attrib $-1 $35 $-1 $7 1 0 0 #
lump $36 $-1 $37 $7 #
transform $-1 1 0 0 0 1 0 0 0 1 5.3290705182007514e-015 1.4210854715202004e-014 90.366341127867088 1 no_rotate no_reflect no_shear #
rgb_color-st-attrib $-1 $38 $-1 $8 0.59999999999999998 0.90000000000000002 1 #
lump $-1 $-1 $39 $8 #
transform $-1 1 0 0 0 1 0 0 0 1 -1.4210854715202004e-014 0 0 1 no_rotate no_reflect no_shear #
rgb_color-st-attrib $-1 $40 $-1 $9 0.59999999999999998 0.90000000000000002 1 #
lump $-1 $-1 $41 $9 #
transform $-1 1 0 0 0 1 0 0 0 1 -1.4210854715202004e-014 0 0 1 no_rotate no_reflect no_shear #
ref_vt-eye-attrib $-1 $-1 $10 $0 $29 $-1 #
eye_refinement $-1 5 grid  1 3 tri 1 4 surf 0 3 adj 0 4 grad 0 9 postcheck 0 4 stol 0.9354134202003479 4 ntol 25 4 dsil 0 8 flatness 0 7 pixarea 0 4 hmax 0 6 gridar 0 5 mgrid 10000 5 ugrid 0 5 vgrid 0 10 end_fields #
ref_vt-eye-attrib $-1 $-1 $-1 $12 $29 $-1 #
face $42 $43 $44 $12 $-1 $45 reversed single #
shell $-1 $-1 $-1 $46 $-1 $14 #
model_id-kcp-attrib $-1 $-1 $16 $6 1 990664172 250 -1359347709 1 #
shell $-1 $-1 $-1 $47 $-1 $17 #
model_id-kcp-attrib $-1 $48 $19 $7 1 990664172 360 -1368915964 1 #
ref_vt-eye-attrib $-1 $-1 $-1 $20 $29 $-1 #
shell $49 $-1 $-1 $50 $-1 $20 #
model_id-kcp-attrib $-1 $51 $22 $8 1 990664172 560 -1372585979 1 #
shell $-1 $-1 $-1 $52 $-1 $23 #
model_id-kcp-attrib $-1 $53 $25 $9 1 990664172 690 -1364066298 1 #
shell $-1 $-1 $-1 $54 $-1 $26 #
model_id-kcp-attrib $-1 $55 $-1 $31 1 990664172 70 -1371144191 2 #
face $56 $57 $58 $12 $-1 $59 reversed single #
loop $-1 $-1 $60 $31 #
plane-surface $-1 19.050000000000001 7.620000000000001 19.049999999999997 -1 0 0 0 0 1 forward_v I I I I #
face $61 $62 $63 $32 $-1 $64 forward single #
face $-1 $65 $66 $34 $-1 $67 forward single #
ref_vt-eye-attrib $-1 $-1 $35 $7 $29 $-1 #
ref_vt-eye-attrib $-1 $-1 $-1 $37 $29 $-1 #
face $-1 $68 $69 $37 $-1 $70 forward single #
ref_vt-eye-attrib $-1 $-1 $38 $8 $29 $-1 #
face $71 $72 $73 $39 $-1 $74 forward single #
ref_vt-eye-attrib $-1 $-1 $40 $9 $29 $-1 #
face $75 $76 $77 $41 $-1 $78 forward single #
ref_vt-eye-attrib $-1 $-1 $42 $31 $29 $-1 #
model_id-kcp-attrib $-1 $79 $-1 $43 1 990664172 70 -1371144191 3 #
face $80 $81 $82 $12 $-1 $83 reversed single #
loop $-1 $-1 $84 $43 #
cone-surface $-1 24.129999999999995 7.6199999999999957 19.049999999999997 0 0 -1 -5.0799999999999947 5.3290705182007514e-015 0 1 I I 0 1 5.0799999999999947 forward I I I I #
coedge $-1 $85 $86 $87 $88 reversed $44 $-1 #
model_id-kcp-attrib $-1 $-1 $-1 $46 1 990664172 70 -1371144190 2 #
face $89 $90 $91 $32 $-1 $92 reversed single #
loop $-1 $-1 $93 $46 #
plane-surface $-1 0 0 9.5249999999999986 0 0 1 1 0 0 forward_v I I I I #
face $-1 $94 $95 $34 $-1 $96 forward single #
loop $-1 $-1 $97 $47 #
cone-surface $-1 26.669999999999998 7.6200000000000019 12.699999999999998 0 0 -1 3.5527136788005009e-015 5.0799999999999974 0 1 I I 0 1 5.0799999999999974 forward I I I I #
face $-1 $98 $99 $37 $-1 $100 reversed single #
loop $-1 $-1 $101 $50 #
plane-surface $-1 -1.1034944002334887e-015 -1.1546319456101628e-014 -87.191341127867091 0 0 1 1 0 0 forward_v I I I I #
ref_vt-eye-attrib $-1 $-1 $-1 $52 $29 $-1 #
face $102 $103 $104 $39 $-1 $105 forward single #
loop $-1 $-1 $106 $52 #
cone-surface $-1 -12.699999999999985 0 3.1749999999999972 0 0 1 12.699999999999999 0 0 1 I I 0 1 12.699999999999999 forward I I I I #
ref_vt-eye-attrib $-1 $-1 $-1 $54 $29 $-1 #
face $107 $108 $109 $41 $-1 $110 forward single #
loop $-1 $-1 $111 $54 #
plane-surface $-1 -12.699999999999974 12.699999999999999 0.63499999999999801 1 0 0 0 0 -1 forward_v I I I I #
ref_vt-eye-attrib $-1 $-1 $56 $43 $29 $-1 #
model_id-kcp-attrib $-1 $112 $-1 $57 1 990664172 70 -1371144191 4 #
face $113 $114 $115 $12 $-1 $116 reversed single #
loop $-1 $-1 $117 $57 #
plane-surface $-1 26.670000000000002 12.699999999999999 19.049999999999997 0 1 0 0 0 1 forward_v I I I I #
coedge $-1 $118 $119 $120 $121 reversed $58 $-1 #
coedge $-1 $122 $60 $123 $124 forward $44 $-1 #
coedge $-1 $60 $122 $118 $125 reversed $44 $-1 #
coedge $-1 $120 $126 $60 $88 forward $127 $-1 #
edge $-1 $128 -24.129999999999988 $129 -8.8899999999999899 $87 $130 forward 7 unknown #
model_id-kcp-attrib $-1 $-1 $-1 $62 1 990664172 70 -1371144190 7 #
face $131 $132 $133 $32 $-1 $134 reversed single #
loop $-1 $-1 $135 $62 #
plane-surface $-1 0 0 -9.5249999999999986 0 0 1 1 0 0 forward_v I I I I #
coedge $-1 $136 $137 $138 $139 forward $63 $-1 #
face $-1 $140 $141 $34 $-1 $142 forward single #
loop $-1 $-1 $143 $65 #
plane-surface $-1 26.670000000000002 12.699999999999999 12.699999999999998 0 1 0 0 0 1 forward_v I I I I #
coedge $-1 $144 $145 $146 $147 forward $66 $-1 #
face $-1 $148 $149 $37 $-1 $150 reversed single #
loop $-1 $-1 $151 $68 #
plane-surface $-1 -1.9539925233402755e-014 -25.400000000000013 -90.366341127867088 0 1 0 0 0 1 forward_v I I I I #
coedge $-1 $152 $153 $154 $155 forward $69 $-1 #
ref_vt-eye-attrib $-1 $-1 $-1 $72 $29 $-1 #
face $-1 $156 $157 $39 $-1 $158 forward single #
loop $-1 $-1 $159 $72 #
plane-surface $-1 -12.699999999999974 12.700000000000003 3.1750000000000043 -1 0 0 0 0 1 forward_v I I I I #
coedge $-1 $160 $161 $162 $163 forward $73 $-1 #
ref_vt-eye-attrib $-1 $-1 $-1 $76 $29 $-1 #
face $-1 $164 $165 $41 $-1 $166 forward single #
loop $-1 $-1 $167 $76 #
cone-surface $-1 -12.699999999999985 0 0.63499999999999091 0 0 1 12.699999999999999 0 0 1 I I 0 1 12.699999999999999 forward I I I I #
coedge $-1 $168 $169 $170 $171 forward $77 $-1 #
ref_vt-eye-attrib $-1 $-1 $80 $57 $29 $-1 #
model_id-kcp-attrib $-1 $172 $-1 $81 1 990664172 70 -1371144191 5 #
face $173 $174 $175 $12 $-1 $176 reversed single #
loop $-1 $-1 $177 $81 #
cone-surface $-1 26.669999999999998 7.6200000000000019 19.049999999999997 0 0 -1 3.5527136788005009e-015 5.0799999999999974 0 1 I I 0 1 5.0799999999999974 forward I I I I #
coedge $-1 $178 $179 $180 $181 reversed $82 $-1 #
coedge $-1 $182 $84 $86 $125 forward $58 $-1 #
coedge $-1 $84 $182 $178 $183 reversed $58 $-1 #
coedge $-1 $180 $87 $84 $121 forward $127 $-1 #
edge $-1 $129 0 $184 1.570796326794897 $120 $185 forward 7 unknown #
coedge $-1 $86 $85 $186 $187 reversed $44 $-1 #
coedge $-1 $188 $189 $85 $124 reversed $190 $-1 #
edge $-1 $128 6.3499999999999996 $191 19.049999999999997 $123 $192 forward 7 unknown #
edge $-1 $129 6.3499999999999996 $193 19.049999999999997 $86 $194 forward 7 unknown #
coedge $-1 $87 $195 $188 $196 forward $127 $-1 #
loop $-1 $197 $198 $199 #
vertex $-1 $88 $200 #
vertex $-1 $121 $201 #
straight-curve $-1 19.049999999999997 16.509999999999991 12.699999999999998 0 1 0 I I #
model_id-kcp-attrib $-1 $-1 $-1 $90 1 990664172 70 -1371144190 3 #
face $202 $203 $204 $32 $-1 $205 reversed single #
loop $-1 $-1 $206 $90 #
plane-surface $-1 0 -25.399999999999999 0 0 1 0 0 0 1 forward_v I I I I #
coedge $-1 $207 $208 $209 $210 forward $91 $-1 #
coedge $-1 $211 $93 $212 $213 forward $63 $-1 #
coedge $-1 $93 $211 $214 $215 forward $63 $-1 #
coedge $-1 $216 $217 $93 $139 reversed $218 $-1 #
edge $-1 $219 -25.399999999999999 $220 25.399999999999999 $138 $221 forward 7 unknown #
face $-1 $222 $223 $34 $-1 $224 forward single #
loop $-1 $-1 $225 $94 #
cone-surface $-1 24.129999999999995 7.6199999999999957 12.699999999999998 0 0 -1 -5.0799999999999947 5.3290705182007514e-015 0 1 I I 0 1 5.0799999999999947 forward I I I I #
coedge $-1 $226 $227 $228 $229 forward $95 $-1 #
coedge $-1 $230 $97 $227 $231 reversed $66 $-1 #
coedge $-1 $97 $230 $232 $233 forward $66 $-1 #
coedge $-1 $234 $228 $97 $147 reversed $235 $-1 #
edge $-1 $236 -1.5707963267948963 $237 0 $97 $238 forward 7 unknown #
face $239 $240 $241 $37 $-1 $242 reversed single #
loop $-1 $-1 $154 $98 #
plane-surface $-1 -1.9539925233402755e-014 25.399999999999984 -90.366341127867088 0 -1 0 0 0 -1 forward_v I I I I #
coedge $-1 $243 $244 $245 $246 reversed $99 $-1 #
coedge $-1 $245 $101 $247 $248 forward $69 $-1 #
coedge $-1 $101 $245 $249 $250 forward $69 $-1 #
coedge $-1 $251 $252 $101 $155 reversed $149 $-1 #
edge $-1 $253 -12.700000000000051 $254 12.699999999999983 $154 $255 forward 7 unknown #
face $-1 $256 $257 $39 $-1 $258 forward single #
loop $-1 $-1 $259 $103 #
plane-surface $-1 -12.699999999999974 25.399999999999999 3.1750000000000043 0 1 0 0 0 1 forward_v I I I I #
coedge $-1 $260 $261 $262 $263 forward $104 $-1 #
coedge $-1 $264 $106 $261 $265 reversed $73 $-1 #
coedge $-1 $106 $264 $266 $267 forward $73 $-1 #
coedge $-1 $268 $262 $106 $163 reversed $269 $-1 #
edge $-1 $270 1.5707963267948957 $271 4.7123889803846906 $106 $272 forward 7 unknown #
face $-1 $-1 $273 $41 $-1 $274 reversed single #
loop $-1 $-1 $170 $108 #
plane-surface $-1 -17.154005283006139 -7.4461898793995724e-016 3.1749999999999972 0 0 1 1 0 0 forward_v I I I I #
coedge $-1 $275 $276 $277 $278 forward $109 $-1 #
coedge $-1 $279 $111 $276 $280 reversed $77 $-1 #
coedge $-1 $111 $279 $275 $281 forward $77 $-1 #
coedge $-1 $277 $277 $111 $171 reversed $165 $-1 #
edge $-1 $282 -12.699999999999992 $283 12.700000000000006 $111 $284 forward 7 unknown #
ref_vt-eye-attrib $-1 $-1 $113 $81 $29 $-1 #
model_id-kcp-attrib $-1 $285 $-1 $114 1 990664172 70 -1371144191 6 #
face $286 $287 $190 $12 $-1 $288 reversed single #
loop $-1 $-1 $289 $114 #
plane-surface $-1 31.75 -7.6199999999999992 19.049999999999997 1 0 0 0 0 -1 forward_v I I I I #
coedge $-1 $290 $291 $292 $293 reversed $115 $-1 #
coedge $-1 $294 $117 $119 $183 forward $82 $-1 #
coedge $-1 $117 $294 $290 $295 reversed $82 $-1 #
coedge $-1 $292 $120 $117 $181 forward $127 $-1 #
edge $-1 $184 -8.2549999999999955 $296 -5.7149999999999963 $180 $297 forward 7 unknown #
coedge $-1 $119 $118 $298 $299 reversed $58 $-1 #
edge $-1 $184 6.3499999999999996 $300 19.049999999999997 $119 $301 forward 7 unknown #
vertex $-1 $181 $302 #
ellipse-curve $-1 24.129999999999995 7.6199999999999957 12.699999999999998 0 0 -1 -5.0799999999999947 5.3290705182007514e-015 0 1 I I #
coedge $-1 $303 $298 $122 $187 forward $304 $-1 #
edge $-1 $193 -3.8100000000000005 $191 11.43 $186 $305 forward 7 unknown #
coedge $-1 $306 $123 $126 $196 reversed $190 $-1 #
coedge $-1 $123 $306 $303 $307 reversed $190 $-1 #
loop $-1 $-1 $188 $174 #
vertex $-1 $187 $308 #
straight-curve $-1 19.050000000000001 -7.6199999999999992 19.049999999999997 0 0 -1 I I #
vertex $-1 $299 $309 #
straight-curve $-1 19.050000000000001 7.620000000000001 19.049999999999997 0 0 -1 I I #
coedge $-1 $126 $310 $311 $312 forward $127 $-1 #
edge $-1 $313 -1.5707963267948939 $128 0 $126 $314 forward 7 unknown #
loop $-1 $-1 $315 $199 #
coedge $-1 $310 $292 $289 $316 forward $127 $-1 #
face $317 $318 $127 $12 $-1 $319 forward single #
point $-1 19.050000000000001 -7.6199999999999992 12.699999999999998 #
point $-1 19.050000000000001 7.620000000000001 12.699999999999998 #
model_id-kcp-attrib $-1 $-1 $-1 $132 1 990664172 70 -1371144190 4 #
face $320 $321 $322 $32 $-1 $323 reversed single #
loop $-1 $-1 $324 $132 #
plane-surface $-1 -38.100000000000009 0 0 1 0 0 0 0 -1 forward_v I I I I #
coedge $-1 $325 $214 $326 $327 forward $133 $-1 #
coedge $-1 $328 $135 $325 $329 forward $91 $-1 #
coedge $-1 $135 $328 $330 $331 forward $91 $-1 #
coedge $-1 $217 $216 $135 $210 reversed $218 $-1 #
edge $-1 $332 -25.399999999999999 $333 25.399999999999999 $209 $334 forward 7 unknown #
coedge $-1 $137 $136 $335 $336 forward $63 $-1 #
coedge $-1 $337 $338 $136 $213 reversed $322 $-1 #
edge $-1 $220 -38.100000000000009 $339 38.100000000000009 $212 $340 forward 7 unknown #
coedge $-1 $206 $341 $137 $215 reversed $133 $-1 #
edge $-1 $342 -38.100000000000009 $219 38.100000000000009 $214 $343 forward 7 unknown #
coedge $-1 $209 $138 $341 $344 forward $218 $-1 #
coedge $-1 $138 $209 $337 $345 reversed $218 $-1 #
loop $-1 $-1 $216 $321 #
vertex $-1 $139 $346 #
vertex $-1 $139 $347 #
straight-curve $-1 38.100000000000009 0 9.5249999999999986 0 1 0 I I #
face $-1 $348 $349 $34 $-1 $350 forward single #
loop $-1 $-1 $351 $140 #
plane-surface $-1 19.050000000000001 7.620000000000001 12.699999999999998 -1 0 0 0 0 1 forward_v I I I I #
coedge $-1 $352 $353 $354 $355 forward $141 $-1 #
coedge $-1 $356 $143 $353 $357 reversed $95 $-1 #
coedge $-1 $143 $356 $144 $231 forward $95 $-1 #
coedge $-1 $146 $354 $143 $229 reversed $235 $-1 #
edge $-1 $237 5.7149999999999963 $358 8.2549999999999955 $143 $359 forward 7 unknown #
coedge $-1 $145 $144 $360 $361 forward $66 $-1 #
edge $-1 $362 0 $237 12.699999999999998 $227 $363 forward 7 unknown #
coedge $-1 $364 $365 $145 $233 reversed $366 $-1 #
edge $-1 $367 0 $236 12.699999999999998 $145 $368 forward 7 unknown #
coedge $-1 $369 $146 $365 $370 reversed $235 $-1 #
loop $-1 $-1 $146 $371 #
vertex $-1 $233 $372 #
vertex $-1 $231 $373 #
ellipse-curve $-1 26.669999999999998 7.6200000000000019 0 0 0 1 3.5527136788005009e-015 5.0799999999999974 0 1 I I #
ref_vt-eye-attrib $-1 $-1 $-1 $148 $29 $-1 #
face $-1 $374 $375 $37 $-1 $376 reversed single #
loop $-1 $-1 $377 $148 #
plane-surface $-1 12.699999999999994 0 0 -1 0 0 0 0 1 forward_v I I I I #
coedge $-1 $378 $151 $379 $380 forward $99 $-1 #
coedge $-1 $151 $378 $381 $382 forward $99 $-1 #
coedge $-1 $153 $152 $151 $246 forward $69 $-1 #
edge $-1 $383 -12.699999999999994 $384 12.700000000000005 $151 $385 forward 7 unknown #
coedge $-1 $386 $379 $152 $248 reversed $387 $-1 #
edge $-1 $254 -25.399999999999991 $383 25.399999999999984 $247 $388 forward 7 unknown #
coedge $-1 $381 $377 $153 $250 reversed $241 $-1 #
edge $-1 $384 -25.399999999999984 $253 25.399999999999991 $249 $389 forward 7 unknown #
coedge $-1 $390 $154 $377 $391 forward $149 $-1 #
coedge $-1 $154 $390 $386 $392 forward $149 $-1 #
vertex $-1 $250 $393 #
vertex $-1 $248 $394 #
straight-curve $-1 -1.0321709816818122e-014 25.399999999999984 -87.191341127867091 -1 0 0 I I #
face $-1 $395 $396 $39 $-1 $397 forward single #
loop $-1 $-1 $398 $156 #
plane-surface $-1 38.100000000000009 25.399999999999999 3.1749999999999972 1 0 0 0 0 -1 forward_v I I I I #
coedge $-1 $399 $400 $401 $402 forward $157 $-1 #
coedge $-1 $403 $159 $400 $404 reversed $104 $-1 #
coedge $-1 $159 $403 $160 $265 forward $104 $-1 #
coedge $-1 $162 $401 $159 $263 reversed $269 $-1 #
edge $-1 $271 -1.7763568394002505e-015 $405 12.699999999999994 $159 $406 forward 7 unknown #
coedge $-1 $161 $160 $407 $408 reversed $73 $-1 #
edge $409 $410 0 $271 6.3499999999999996 $261 $411 forward 7 unknown #
coedge $-1 $412 $413 $161 $267 reversed $414 $-1 #
edge $-1 $415 0 $270 6.3499999999999996 $161 $416 forward 7 unknown #
coedge $-1 $417 $162 $413 $418 reversed $269 $-1 #
loop $-1 $-1 $162 $419 #
vertex $-1 $267 $420 #
vertex $-1 $265 $421 #
ellipse-curve $-1 -12.699999999999985 0 9.5249999999999968 0 0 -1 12.699999999999999 0 0 1 I I #
loop $-1 $-1 $422 $164 #
plane-surface $-1 -17.154005283006139 -7.4461898793995724e-016 0.63499999999999091 0 0 1 1 0 0 forward_v I I I I #
coedge $-1 $423 $167 $169 $281 reversed $109 $-1 #
coedge $-1 $167 $423 $168 $280 forward $109 $-1 #
coedge $-1 $170 $170 $167 $278 reversed $165 $-1 #
edge $-1 $283 1.5707963267948957 $282 4.7123889803846906 $167 $424 forward 7 unknown #
coedge $-1 $169 $168 $425 $426 reversed $77 $-1 #
edge $-1 $427 0 $283 2.5400000000000063 $276 $428 forward 7 unknown #
edge $-1 $429 0 $282 2.5400000000000063 $169 $430 forward 7 unknown #
vertex $-1 $281 $431 #
vertex $-1 $280 $432 #
straight-curve $-1 -12.699999999999974 7.1054273576010019e-015 3.1749999999999972 0 -1 0 I I #
ref_vt-eye-attrib $-1 $-1 $173 $114 $29 $-1 #
model_id-kcp-attrib $-1 $433 $-1 $174 1 990664172 70 -1371144191 7 #
face $434 $435 $436 $12 $-1 $437 reversed single #
cone-surface $-1 24.13000000000001 -7.6199999999999921 19.049999999999997 0 0 -1 -5.080000000000009 -7.1054273576010019e-015 0 1 I I 0 1 5.080000000000009 forward I I I I #
coedge $-1 $438 $439 $198 $316 reversed $175 $-1 #
coedge $-1 $440 $177 $179 $295 forward $115 $-1 #
coedge $-1 $177 $440 $438 $441 reversed $115 $-1 #
coedge $-1 $198 $180 $177 $293 forward $127 $-1 #
edge $-1 $296 0 $442 1.5707963267948963 $292 $443 forward 7 unknown #
coedge $-1 $179 $178 $444 $445 reversed $82 $-1 #
edge $-1 $296 6.3499999999999996 $446 19.049999999999997 $179 $447 forward 7 unknown #
vertex $-1 $293 $448 #
straight-curve $-1 32.384999999999998 12.700000000000001 12.699999999999998 1 0 0 I I #
coedge $-1 $186 $444 $182 $299 forward $304 $-1 #
edge $-1 $300 -1.570796326794897 $193 0 $298 $449 forward 7 unknown #
vertex $-1 $445 $450 #
straight-curve $-1 24.130000000000003 12.699999999999999 19.049999999999997 0 0 -1 I I #
point $-1 24.130000000000003 12.699999999999999 12.699999999999998 #
coedge $-1 $451 $186 $189 $307 forward $304 $-1 #
loop $-1 $452 $453 $454 #
straight-curve $-1 19.050000000000001 3.8100000000000005 0 0 -1 0 I I #
coedge $-1 $189 $188 $455 $456 forward $190 $-1 #
edge $-1 $191 0 $457 1.5707963267948939 $303 $458 forward 7 unknown #
point $-1 19.050000000000001 -7.6199999999999992 0 #
point $-1 19.050000000000001 7.620000000000001 0 #
coedge $-1 $195 $198 $459 $460 forward $127 $-1 #
coedge $-1 $461 $455 $195 $312 reversed $436 $-1 #
edge $-1 $462 4.4449999999999967 $313 6.9849999999999959 $195 $463 forward 7 unknown #
vertex $-1 $196 $464 #
ellipse-curve $-1 24.13000000000001 -7.6199999999999921 12.699999999999998 0 0 -1 -5.080000000000009 -7.1054273576010019e-015 0 1 I I #
coedge $-1 $465 $466 $467 $468 reversed $197 $-1 #
edge $-1 $442 1.2699999999999907 $469 16.509999999999991 $198 $470 forward 7 unknown #
model_id-kcp-attrib $-1 $471 $-1 $199 1 990664172 70 -1371144191 13 #
face $472 $473 $474 $12 $-1 $475 forward single #
plane-surface $-1 38.099999999999994 25.399999999999977 12.699999999999998 0 0 1 1 0 0 forward_v I I I I #
model_id-kcp-attrib $-1 $-1 $-1 $203 1 990664172 70 -1371144190 5 #
face $476 $-1 $218 $32 $-1 $477 reversed single #
loop $-1 $-1 $337 $203 #
plane-surface $-1 0 25.399999999999999 0 0 -1 0 0 0 -1 forward_v I I I I #
coedge $-1 $478 $335 $338 $479 forward $204 $-1 #
coedge $-1 $341 $206 $207 $329 reversed $133 $-1 #
coedge $-1 $335 $478 $206 $327 reversed $204 $-1 #
edge $-1 $342 -9.5249999999999986 $480 9.5249999999999986 $326 $481 forward 7 unknown #
coedge $-1 $208 $207 $478 $482 forward $91 $-1 #
edge $-1 $333 -38.100000000000009 $480 38.100000000000009 $325 $483 forward 7 unknown #
coedge $-1 $338 $337 $208 $331 reversed $322 $-1 #
edge $-1 $484 -38.100000000000009 $332 38.100000000000009 $330 $485 forward 7 unknown #
vertex $-1 $210 $486 #
vertex $-1 $344 $487 #
straight-curve $-1 38.100000000000009 0 -9.5249999999999986 0 -1 0 I I #
coedge $-1 $324 $326 $211 $336 reversed $204 $-1 #
edge $-1 $339 -25.399999999999999 $342 25.399999999999999 $335 $488 forward 7 unknown #
coedge $-1 $330 $212 $217 $345 forward $322 $-1 #
coedge $-1 $212 $330 $324 $479 reversed $322 $-1 #
vertex $-1 $213 $489 #
straight-curve $-1 0 25.399999999999999 9.5249999999999986 -1 0 0 I I #
coedge $-1 $214 $325 $216 $344 reversed $133 $-1 #
vertex $-1 $336 $490 #
straight-curve $-1 0 -25.399999999999999 9.5249999999999986 1 0 0 I I #
edge $-1 $219 -9.5249999999999986 $333 9.5249999999999986 $216 $491 forward 7 unknown #
edge $-1 $220 -9.5249999999999986 $332 9.5249999999999986 $217 $492 forward 7 unknown #
point $-1 38.100000000000009 -25.399999999999999 9.5249999999999986 #
point $-1 38.100000000000009 25.399999999999999 9.5249999999999986 #
face $-1 $493 $494 $34 $-1 $495 forward single #
loop $-1 $-1 $496 $222 #
cone-surface $-1 24.13000000000001 -7.6199999999999921 12.699999999999998 0 0 -1 -5.080000000000009 -7.1054273576010019e-015 0 1 I I 0 1 5.080000000000009 forward I I I I #
coedge $-1 $497 $498 $499 $500 forward $223 $-1 #
coedge $-1 $501 $225 $498 $502 reversed $141 $-1 #
coedge $-1 $225 $501 $226 $357 forward $141 $-1 #
coedge $-1 $228 $499 $225 $355 reversed $235 $-1 #
edge $-1 $358 -1.570796326794897 $503 0 $225 $504 forward 7 unknown #
coedge $-1 $227 $226 $505 $506 forward $95 $-1 #
edge $-1 $507 0 $358 12.699999999999998 $353 $508 forward 7 unknown #
vertex $-1 $357 $509 #
straight-curve $-1 32.384999999999998 12.700000000000001 0 -1 0 0 I I #
coedge $-1 $505 $510 $230 $361 reversed $511 $-1 #
edge $-1 $362 0 $367 1.5707963267948963 $230 $512 forward 7 unknown #
vertex $-1 $506 $513 #
straight-curve $-1 26.670000000000002 12.699999999999999 12.699999999999998 0 0 -1 I I #
coedge $-1 $514 $232 $510 $515 forward $366 $-1 #
coedge $-1 $232 $514 $234 $370 forward $366 $-1 #
loop $-1 $-1 $365 $516 #
vertex $-1 $515 $517 #
straight-curve $-1 31.75 7.6199999999999992 12.699999999999998 0 0 -1 I I #
coedge $-1 $518 $234 $519 $520 reversed $235 $-1 #
edge $-1 $521 -16.509999999999991 $236 -1.2699999999999907 $365 $522 forward 7 unknown #
face $-1 $523 $235 $34 $-1 $524 reversed single #
point $-1 31.75 7.6199999999999992 0 #
point $-1 26.670000000000002 12.699999999999999 0 #
face $525 $-1 $387 $37 $-1 $526 reversed single #
loop $-1 $-1 $527 $240 #
plane-surface $-1 0 0 -93.541341127867099 0 0 1 1 0 0 forward_v I I I I #
coedge $-1 $249 $528 $251 $391 reversed $241 $-1 #
coedge $-1 $244 $243 $529 $530 forward $99 $-1 #
coedge $-1 $247 $531 $243 $380 reversed $387 $-1 #
edge $-1 $383 42.008170563933547 $532 48.358170563933541 $379 $533 forward 7 unknown #
coedge $-1 $528 $249 $244 $382 reversed $241 $-1 #
edge $-1 $534 -48.358170563933541 $384 -42.008170563933547 $381 $535 forward 7 unknown #
vertex $-1 $248 $536 #
vertex $-1 $250 $537 #
straight-curve $-1 -1.0321709816818122e-014 -25.400000000000013 -87.191341127867091 1 0 0 I I #
coedge $-1 $531 $247 $252 $392 reversed $387 $-1 #
loop $-1 $-1 $386 $374 #
straight-curve $-1 -12.699999999999994 -5.773159728050814e-015 -87.191341127867091 0 -1 0 I I #
straight-curve $-1 12.699999999999994 -5.773159728050814e-015 -87.191341127867091 0 1 0 I I #
coedge $-1 $252 $251 $527 $538 forward $149 $-1 #
edge $-1 $253 42.008170563933547 $539 48.358170563933541 $377 $540 forward 7 unknown #
edge $-1 $541 -48.358170563933541 $254 -42.008170563933547 $386 $542 forward 7 unknown #
point $-1 12.70000000000004 25.399999999999984 -87.191341127867091 #
point $-1 -12.699999999999994 25.399999999999984 -87.191341127867091 #
face $543 $419 $414 $39 $-1 $544 forward single #
loop $-1 $-1 $545 $256 #
plane-surface $-1 38.100000000000009 -25.399999999999999 3.1749999999999972 0 -1 0 0 0 -1 forward_v I I I I #
coedge $-1 $546 $547 $548 $549 forward $257 $-1 #
coedge $-1 $550 $259 $547 $551 reversed $157 $-1 #
coedge $-1 $259 $550 $260 $404 forward $157 $-1 #
coedge $-1 $262 $548 $259 $402 reversed $269 $-1 #
edge $-1 $405 -19.049999999999979 $552 31.750000000000004 $259 $553 forward 7 unknown #
coedge $-1 $261 $260 $554 $555 reversed $104 $-1 #
edge $-1 $556 0 $405 6.3499999999999996 $400 $557 forward 7 unknown #
vertex $-1 $404 $558 #
straight-curve $-1 -12.699999999999974 12.700000000000005 9.5249999999999968 0 1 0 I I #
coedge $-1 $554 $559 $264 $408 forward $560 $-1 #
edge $561 $415 1.5707963267948957 $410 4.7123889803846906 $264 $562 forward 7 unknown #
convexity-sys-attrib $-1 $-1 $-1 $265 #
vertex $-1 $408 $563 #
straight-curve $-1 -12.699999999999974 12.700000000000003 3.1750000000000043 0 0 1 I I #
coedge $-1 $564 $266 $559 $565 reversed $414 $-1 #
coedge $-1 $266 $564 $268 $418 forward $414 $-1 #
loop $-1 $-1 $413 $395 #
vertex $-1 $565 $566 #
straight-curve $-1 -12.699999999999974 -12.699999999999999 3.1750000000000043 0 0 1 I I #
coedge $-1 $548 $268 $545 $567 reversed $269 $-1 #
edge $-1 $568 -38.09999999999998 $270 -25.400000000000006 $413 $569 forward 7 unknown #
face $-1 $570 $269 $39 $-1 $571 forward single #
point $-1 -12.699999999999974 -12.699999999999999 9.5250000000000039 #
point $-1 -12.699999999999974 12.700000000000003 9.5250000000000039 #
coedge $-1 $425 $425 $423 $572 forward $273 $-1 #
coedge $-1 $276 $275 $422 $572 reversed $109 $-1 #
ellipse-curve $-1 -12.699999999999985 0 3.1749999999999972 0 0 -1 12.699999999999999 0 0 1 I I #
coedge $-1 $422 $422 $279 $426 forward $273 $-1 #
edge $573 $429 -12.699999999999992 $427 12.700000000000006 $279 $574 forward 7 unknown #
vertex $-1 $572 $575 #
straight-curve $-1 -12.699999999999974 -12.699999999999999 0.63499999999999801 0 0 1 I I #
vertex $-1 $572 $576 #
straight-curve $-1 -12.699999999999974 12.699999999999999 0.63499999999999801 0 0 1 I I #
point $-1 -12.699999999999974 12.699999999999999 3.1750000000000043 #
point $-1 -12.699999999999974 -12.699999999999999 3.1750000000000043 #
ref_vt-eye-attrib $-1 $-1 $286 $174 $29 $-1 #
model_id-kcp-attrib $-1 $577 $-1 $287 1 990664172 70 -1371144191 8 #
face $578 $579 $580 $12 $-1 $581 reversed single #
loop $-1 $-1 $311 $287 #
plane-surface $-1 24.130000000000003 -12.700000000000001 19.049999999999997 0 -1 0 0 0 -1 forward_v I I I I #
coedge $-1 $582 $289 $291 $441 forward $175 $-1 #
coedge $-1 $289 $582 $583 $584 reversed $175 $-1 #
coedge $-1 $291 $290 $585 $586 reversed $115 $-1 #
edge $-1 $442 6.3499999999999996 $587 19.049999999999997 $291 $588 forward 7 unknown #
vertex $-1 $316 $589 #
ellipse-curve $-1 26.669999999999998 7.6200000000000019 12.699999999999998 0 0 -1 3.5527136788005009e-015 5.0799999999999974 0 1 I I #
coedge $-1 $298 $585 $294 $445 forward $304 $-1 #
edge $-1 $446 -13.335000000000001 $300 -10.795000000000002 $444 $590 forward 7 unknown #
vertex $-1 $586 $591 #
straight-curve $-1 26.670000000000002 12.699999999999999 19.049999999999997 0 0 -1 I I #
point $-1 26.670000000000002 12.699999999999999 12.699999999999998 #
ellipse-curve $-1 24.129999999999995 7.6199999999999957 0 0 0 1 -5.0799999999999947 5.3290705182007514e-015 0 1 I I #
point $-1 24.130000000000003 12.699999999999999 0 #
coedge $-1 $592 $303 $593 $594 forward $304 $-1 #
loop $-1 $-1 $595 $454 #
coedge $-1 $585 $592 $582 $596 forward $304 $-1 #
face $597 $-1 $304 $12 $-1 $598 reversed single #
coedge $-1 $311 $593 $306 $456 reversed $436 $-1 #
edge $-1 $313 6.3499999999999996 $457 19.049999999999997 $455 $599 forward 7 unknown #
vertex $-1 $307 $600 #
ellipse-curve $-1 24.13000000000001 -7.6199999999999921 0 0 0 1 -5.080000000000009 -7.1054273576010019e-015 0 1 I I #
coedge $-1 $583 $601 $310 $460 reversed $580 $-1 #
edge $-1 $469 0 $462 1.570796326794897 $310 $602 forward 7 unknown #
coedge $-1 $593 $311 $601 $603 forward $436 $-1 #
vertex $-1 $312 $604 #
straight-curve $-1 31.114999999999998 -12.700000000000003 12.699999999999998 -1 0 0 I I #
point $-1 24.130000000000003 -12.700000000000001 12.699999999999998 #
coedge $-1 $605 $315 $606 $607 reversed $197 $-1 #
coedge $-1 $315 $605 $608 $609 reversed $197 $-1 #
coedge $-1 $610 $611 $315 $468 forward $612 $-1 #
edge $-1 $613 12.70000000000006 $614 38.100000000000009 $467 $615 forward 7 unknown #
vertex $-1 $316 $616 #
straight-curve $-1 31.75 8.8899999999999899 12.699999999999998 0 -1 0 I I #
ref_vt-eye-attrib $-1 $-1 $317 $199 $29 $-1 #
model_id-kcp-attrib $-1 $617 $-1 $318 1 990664172 70 -1371144191 14 #
face $618 $619 $620 $12 $-1 $621 reversed single #
loop $-1 $-1 $622 $318 #
plane-surface $-1 38.099999999999994 -25.399999999999977 0 0 -1 0 0 0 -1 forward_v I I I I #
model_id-kcp-attrib $-1 $-1 $-1 $321 1 990664172 70 -1371144190 6 #
plane-surface $-1 38.100000000000009 0 0 -1 0 0 0 0 1 forward_v I I I I #
coedge $-1 $326 $324 $328 $482 reversed $204 $-1 #
edge $-1 $339 -9.5249999999999986 $484 9.5249999999999986 $338 $623 forward 7 unknown #
vertex $-1 $482 $624 #
straight-curve $-1 -38.100000000000009 -25.399999999999999 0 0 0 -1 I I #
edge $-1 $480 -25.399999999999999 $484 25.399999999999999 $478 $625 forward 7 unknown #
straight-curve $-1 0 -25.399999999999999 -9.5249999999999986 -1 0 0 I I #
vertex $-1 $331 $626 #
straight-curve $-1 0 25.399999999999999 -9.5249999999999986 1 0 0 I I #
point $-1 38.100000000000009 25.399999999999999 -9.5249999999999986 #
point $-1 38.100000000000009 -25.399999999999999 -9.5249999999999986 #
straight-curve $-1 -38.100000000000009 0 9.5249999999999986 0 -1 0 I I #
point $-1 -38.100000000000009 25.399999999999999 9.5249999999999986 #
point $-1 -38.100000000000009 -25.399999999999999 9.5249999999999986 #
straight-curve $-1 38.100000000000009 -25.399999999999999 0 0 0 -1 I I #
straight-curve $-1 38.100000000000009 25.399999999999999 0 0 0 -1 I I #
face $-1 $516 $627 $34 $-1 $628 forward single #
loop $-1 $-1 $629 $348 #
plane-surface $-1 24.130000000000003 -12.700000000000001 12.699999999999998 0 -1 0 0 0 -1 forward_v I I I I #
coedge $-1 $630 $631 $632 $633 forward $349 $-1 #
coedge $-1 $634 $351 $631 $635 reversed $223 $-1 #
coedge $-1 $351 $634 $352 $502 forward $223 $-1 #
coedge $-1 $354 $632 $351 $500 reversed $235 $-1 #
edge $-1 $503 8.8899999999999899 $636 24.129999999999988 $351 $637 forward 7 unknown #
coedge $-1 $353 $352 $638 $639 forward $141 $-1 #
edge $-1 $640 0 $503 12.699999999999998 $498 $641 forward 7 unknown #
vertex $-1 $502 $642 #
ellipse-curve $-1 24.129999999999995 7.6199999999999957 0 0 0 1 -5.0799999999999947 5.3290705182007514e-015 0 1 I I #
coedge $-1 $638 $360 $356 $506 reversed $511 $-1 #
edge $-1 $507 -8.2549999999999955 $362 -5.7149999999999963 $356 $643 forward 7 unknown #
vertex $-1 $639 $644 #
straight-curve $-1 24.130000000000003 12.699999999999999 12.699999999999998 0 0 -1 I I #
point $-1 24.130000000000003 12.699999999999999 0 #
coedge $-1 $360 $645 $364 $515 reversed $511 $-1 #
loop $-1 $-1 $510 $523 #
ellipse-curve $-1 26.669999999999998 7.6200000000000019 12.699999999999998 0 0 -1 3.5527136788005009e-015 5.0799999999999974 0 1 I I #
point $-1 26.670000000000002 12.699999999999999 12.699999999999998 #
coedge $-1 $365 $364 $646 $647 forward $366 $-1 #
edge $-1 $367 1.2699999999999907 $648 16.509999999999991 $364 $649 forward 7 unknown #
face $-1 $371 $366 $34 $-1 $650 forward single #
point $-1 31.75 7.6199999999999992 12.699999999999998 #
coedge $-1 $632 $369 $629 $651 reversed $235 $-1 #
coedge $-1 $646 $652 $369 $520 forward $627 $-1 #
edge $-1 $653 -1.570796326794897 $521 0 $519 $654 forward 7 unknown #
vertex $-1 $647 $655 #
straight-curve $-1 31.75 8.8899999999999899 0 0 1 0 I I #
face $-1 $-1 $511 $34 $-1 $656 forward single #
plane-surface $-1 25.399999999999999 -1.9984014443252818e-015 1.7763568394002505e-015 1.2724424596703161e-030 3.3251654850824233e-031 1 1 0 -1.2724424596703161e-030 forward_v I I I I #
ref_vt-eye-attrib $-1 $-1 $-1 $374 $29 $-1 #
plane-surface $-1 -12.699999999999994 0 0 1 0 0 0 0 -1 forward_v I I I I #
coedge $-1 $657 $658 $390 $538 reversed $375 $-1 #
coedge $-1 $377 $381 $657 $659 reversed $241 $-1 #
coedge $-1 $658 $657 $378 $530 reversed $375 $-1 #
edge $660 $532 -12.699999999999996 $534 12.700000000000003 $529 $661 forward 7 unknown #
coedge $-1 $379 $386 $658 $662 reversed $387 $-1 #
vertex $-1 $662 $663 #
straight-curve $-1 -12.699999999999994 -25.400000000000013 -45.183170563933544 0 0 -1 I I #
vertex $-1 $530 $664 #
straight-curve $-1 12.699999999999994 -25.400000000000013 -45.183170563933544 0 0 1 I I #
point $-1 -12.700000000000005 -25.399999999999991 -87.191341127867091 #
point $-1 12.699999999999994 -25.399999999999991 -87.191341127867091 #
edge $665 $539 -12.700000000000003 $541 12.699999999999985 $527 $666 forward 7 unknown #
vertex $-1 $659 $667 #
straight-curve $-1 12.699999999999994 25.399999999999984 -45.183170563933544 0 0 -1 I I #
vertex $-1 $538 $668 #
straight-curve $-1 -12.699999999999994 25.399999999999984 -45.183170563933544 0 0 1 I I #
ref_vt-eye-attrib $-1 $-1 $-1 $395 $29 $-1 #
plane-surface $-1 -12.699999999999985 -25.399999999999977 3.1750000000000043 -1 0 0 0 0 1 forward_v I I I I #
coedge $-1 $669 $670 $417 $567 forward $396 $-1 #
coedge $-1 $671 $398 $670 $672 reversed $257 $-1 #
coedge $-1 $398 $671 $399 $551 forward $257 $-1 #
coedge $-1 $401 $417 $398 $549 reversed $269 $-1 #
edge $-1 $552 -25.399999999999991 $673 25.400000000000006 $398 $674 forward 7 unknown #
coedge $-1 $400 $399 $675 $676 reversed $157 $-1 #
edge $-1 $677 0 $552 6.3499999999999996 $547 $678 forward 7 unknown #
vertex $-1 $551 $679 #
straight-curve $-1 6.350000000000005 25.399999999999999 9.5249999999999968 1 0 0 I I #
coedge $-1 $675 $407 $403 $555 forward $560 $-1 #
edge $680 $410 -5.3290705182007514e-015 $556 12.699999999999994 $403 $681 forward 7 unknown #
vertex $-1 $555 $682 #
straight-curve $-1 -12.699999999999974 25.399999999999999 3.1750000000000043 0 0 1 I I #
point $-1 -12.699999999999974 25.399999999999999 9.5250000000000039 #
coedge $-1 $407 $683 $412 $565 forward $560 $-1 #
loop $-1 $-1 $559 $570 #
convexity-sys-attrib $-1 $-1 $-1 $408 #
ellipse-curve $-1 -12.699999999999985 0 3.1749999999999972 0 0 -1 12.699999999999999 0 0 1 I I #
point $-1 -12.699999999999974 12.699999999999999 3.1750000000000043 #
coedge $-1 $413 $412 $669 $684 forward $414 $-1 #
edge $685 $686 -38.09999999999998 $415 -25.400000000000006 $412 $687 forward 7 unknown #
point $-1 -12.699999999999974 -12.699999999999999 3.1750000000000043 #
edge $-1 $673 -31.750000000000004 $568 19.04999999999999 $545 $688 forward 7 unknown #
vertex $-1 $684 $689 #
straight-curve $-1 -12.699999999999974 12.700000000000005 9.5249999999999968 0 1 0 I I #
face $-1 $-1 $560 $39 $-1 $690 reversed single #
plane-surface $-1 9.6724438509238073 1.1842865354839869e-015 9.5249999999999968 4.6512361145750596e-032 2.4774516739016415e-032 1 1 0 -4.6512361145750596e-032 forward_v I I I I #
edge $691 $427 1.5707963267948957 $429 4.7123889803846906 $423 $692 forward 7 unknown #
convexity-sys-attrib $-1 $-1 $-1 $426 #
straight-curve $-1 -12.699999999999974 7.1054273576010019e-015 0.63499999999999091 0 -1 0 I I #
point $-1 -12.699999999999974 -12.699999999999999 0.63499999999999801 #
point $-1 -12.699999999999974 12.699999999999999 0.63499999999999801 #
ref_vt-eye-attrib $-1 $-1 $434 $287 $29 $-1 #
model_id-kcp-attrib $-1 $693 $-1 $435 1 990664172 70 -1371144191 9 #
face $694 $695 $696 $12 $-1 $697 reversed single #
loop $-1 $-1 $459 $435 #
cone-surface $-1 26.670000000000002 -7.620000000000001 19.049999999999997 0 0 -1 5.0799999999999983 1.7763568394002505e-015 0 1 I I 0 1 5.0799999999999983 forward I I I I #
coedge $-1 $439 $438 $453 $596 reversed $175 $-1 #
coedge $-1 $698 $459 $439 $584 forward $580 $-1 #
edge $-1 $469 6.3499999999999996 $699 19.049999999999997 $439 $700 forward 7 unknown #
coedge $-1 $444 $453 $440 $586 forward $304 $-1 #
edge $-1 $587 -1.5707963267948963 $446 0 $585 $701 forward 7 unknown #
vertex $-1 $596 $702 #
straight-curve $-1 31.75 7.6199999999999992 19.049999999999997 0 0 -1 I I #
point $-1 31.75 7.6199999999999992 12.699999999999998 #
straight-curve $-1 13.335000000000001 12.699999999999999 0 -1 0 0 I I #
point $-1 26.670000000000002 12.699999999999999 0 #
coedge $-1 $453 $451 $698 $703 forward $304 $-1 #
coedge $-1 $455 $461 $451 $594 reversed $436 $-1 #
edge $-1 $457 12.065000000000001 $704 14.605 $451 $705 forward 7 unknown #
coedge $-1 $706 $707 $708 $709 reversed $452 $-1 #
edge $-1 $699 -3.8099999999999996 $587 11.43 $453 $710 forward 7 unknown #
model_id-kcp-attrib $-1 $711 $-1 $454 1 990664172 70 -1371144191 21 #
plane-surface $-1 0 0 0 0 0 1 1 0 0 forward_v I I I I #
straight-curve $-1 24.130000000000003 -12.700000000000001 19.049999999999997 0 0 -1 I I #
point $-1 24.130000000000003 -12.700000000000001 0 #
coedge $-1 $459 $698 $461 $603 reversed $580 $-1 #
ellipse-curve $-1 26.670000000000002 -7.620000000000001 12.699999999999998 0 0 -1 5.0799999999999983 1.7763568394002505e-015 0 1 I I #
edge $-1 $462 6.3499999999999996 $704 19.049999999999997 $601 $712 forward 7 unknown #
point $-1 26.670000000000002 -12.699999999999999 12.699999999999998 #
coedge $-1 $466 $465 $622 $713 reversed $197 $-1 #
coedge $-1 $714 $715 $465 $607 forward $620 $-1 #
edge $-1 $716 -25.399999999999977 $613 25.399999999999999 $606 $717 forward 7 unknown #
coedge $-1 $718 $719 $466 $609 forward $720 $-1 #
edge $-1 $614 0 $721 50.799999999999955 $608 $722 forward 7 unknown #
coedge $-1 $723 $467 $719 $724 reversed $612 $-1 #
coedge $-1 $467 $725 $714 $726 forward $612 $-1 #
loop $-1 $-1 $467 $727 #
vertex $-1 $726 $728 #
vertex $-1 $724 $729 #
straight-curve $-1 -1.4210854715202004e-014 25.399999999999999 12.699999999999998 1 0 0 I I #
point $-1 31.75 -7.6199999999999992 12.699999999999998 #
ref_vt-eye-attrib $-1 $-1 $472 $318 $29 $-1 #
model_id-kcp-attrib $-1 $730 $-1 $473 1 990664172 70 -1371144191 15 #
face $731 $732 $733 $12 $-1 $734 reversed single #
loop $-1 $-1 $606 $473 #
plane-surface $-1 12.699999999999999 -25.399999999999977 19.049999999999997 1 0 0 0 0 -1 forward_v I I I I #
coedge $-1 $735 $736 $605 $713 forward $474 $-1 #
straight-curve $-1 -38.100000000000009 25.399999999999999 0 0 0 -1 I I #
point $-1 -38.100000000000009 -25.399999999999999 -9.5249999999999986 #
straight-curve $-1 -38.100000000000009 0 -9.5249999999999986 0 1 0 I I #
point $-1 -38.100000000000009 25.399999999999999 -9.5249999999999986 #
loop $-1 $-1 $519 $493 #
cone-surface $-1 26.670000000000002 -7.620000000000001 12.699999999999998 0 0 -1 5.0799999999999983 1.7763568394002505e-015 0 1 I I 0 1 5.0799999999999983 forward I I I I #
coedge $-1 $737 $738 $518 $651 forward $494 $-1 #
coedge $-1 $739 $496 $738 $740 reversed $349 $-1 #
coedge $-1 $496 $739 $497 $635 forward $349 $-1 #
coedge $-1 $499 $518 $496 $633 reversed $235 $-1 #
edge $-1 $636 0 $741 1.5707963267948939 $496 $742 forward 7 unknown #
coedge $-1 $498 $497 $743 $744 forward $223 $-1 #
edge $-1 $745 0 $636 12.699999999999998 $631 $746 forward 7 unknown #
vertex $-1 $635 $747 #
straight-curve $-1 19.049999999999997 16.509999999999991 0 0 -1 0 I I #
coedge $-1 $743 $505 $501 $639 reversed $511 $-1 #
edge $-1 $640 0 $507 1.570796326794897 $501 $748 forward 7 unknown #
vertex $-1 $744 $749 #
straight-curve $-1 19.050000000000001 7.620000000000001 12.699999999999998 0 0 -1 I I #
point $-1 19.050000000000001 7.620000000000001 0 #
straight-curve $-1 32.384999999999998 12.700000000000001 12.699999999999998 1 0 0 I I #
point $-1 24.130000000000003 12.699999999999999 12.699999999999998 #
coedge $-1 $510 $750 $751 $752 reversed $511 $-1 #
coedge $-1 $751 $519 $514 $647 reversed $627 $-1 #
edge $-1 $648 0 $521 12.699999999999998 $514 $753 forward 7 unknown #
vertex $-1 $515 $754 #
straight-curve $-1 31.75 8.8899999999999899 12.699999999999998 0 -1 0 I I #
plane-surface $-1 31.75 -7.6199999999999992 12.699999999999998 1 0 0 0 0 -1 forward_v I I I I #
edge $-1 $741 -6.9849999999999959 $653 -4.4449999999999967 $629 $755 forward 7 unknown #
coedge $-1 $519 $751 $737 $756 forward $627 $-1 #
vertex $-1 $756 $757 #
ellipse-curve $-1 26.670000000000002 -7.620000000000001 0 0 0 1 5.0799999999999983 1.7763568394002505e-015 0 1 I I #
point $-1 31.75 -7.6199999999999992 0 #
plane-surface $-1 25.399999999999999 -1.9984014443252818e-015 12.699999999999999 1.2724424596703161e-030 3.3251654850824233e-031 1 1 0 -1.2724424596703161e-030 forward_v I I I I #
coedge $-1 $529 $527 $528 $659 forward $375 $-1 #
coedge $-1 $527 $529 $531 $662 forward $375 $-1 #
edge $758 $539 -25.399999999999963 $534 25.399999999999991 $528 $759 forward 7 unknown #
convexity-sys-attrib $-1 $-1 $-1 $530 #
straight-curve $-1 -9.7699626167013776e-015 -25.400000000000013 -93.541341127867099 1 0 0 I I #
edge $760 $532 -25.399999999999991 $541 25.399999999999984 $531 $761 forward 7 unknown #
point $-1 -12.700000000000005 -25.399999999999991 -93.541341127867085 #
point $-1 12.699999999999994 -25.399999999999991 -93.541341127867085 #
convexity-sys-attrib $-1 $-1 $-1 $538 #
straight-curve $-1 -9.7699626167013776e-015 25.399999999999984 -93.541341127867099 -1 0 0 I I #
point $-1 12.699999999999994 25.399999999999963 -93.541341127867085 #
point $-1 -12.699999999999994 25.399999999999984 -93.541341127867085 #
coedge $-1 $762 $545 $564 $684 reversed $396 $-1 #
coedge $-1 $545 $762 $546 $672 forward $396 $-1 #
coedge $-1 $547 $546 $763 $764 reversed $257 $-1 #
edge $-1 $765 0 $673 6.3499999999999996 $670 $766 forward 7 unknown #
vertex $-1 $672 $767 #
straight-curve $-1 38.100000000000009 5.3290705182007514e-015 9.5249999999999968 0 -1 0 I I #
coedge $-1 $763 $554 $550 $676 forward $560 $-1 #
edge $768 $556 -19.049999999999979 $677 31.750000000000004 $550 $769 forward 7 unknown #
vertex $-1 $676 $770 #
straight-curve $-1 38.100000000000009 25.399999999999999 3.1749999999999972 0 0 1 I I #
point $-1 38.100000000000009 25.399999999999999 9.5249999999999968 #
convexity-sys-attrib $-1 $-1 $-1 $555 #
straight-curve $-1 -12.699999999999974 12.700000000000005 3.1749999999999972 0 1 0 I I #
point $-1 -12.699999999999974 25.399999999999999 3.1750000000000043 #
coedge $-1 $559 $763 $762 $771 forward $560 $-1 #
edge $-1 $686 0 $568 6.3499999999999996 $564 $772 forward 7 unknown #
convexity-sys-attrib $-1 $-1 $-1 $565 #
vertex $-1 $565 $773 #
straight-curve $-1 -12.699999999999974 12.700000000000005 3.1749999999999972 0 1 0 I I #
straight-curve $-1 6.350000000000005 -25.399999999999999 9.5249999999999968 -1 0 0 I I #
point $-1 -12.699999999999985 -25.399999999999977 9.5250000000000039 #
plane-surface $-1 9.6724438509238073 1.1842865354839869e-015 3.1749999999999972 4.6512361145750596e-032 2.4774516739016415e-032 1 1 0 -4.6512361145750596e-032 forward_v I I I I #
convexity-sys-attrib $-1 $-1 $-1 $572 #
ellipse-curve $-1 -12.699999999999985 0 0.63499999999999091 0 0 -1 12.699999999999999 0 0 1 I I #
ref_vt-eye-attrib $-1 $-1 $578 $435 $29 $-1 #
model_id-kcp-attrib $-1 $774 $-1 $579 1 990664172 70 -1371144191 10 #
face $775 $776 $777 $12 $-1 $778 reversed single #
loop $-1 $-1 $779 $579 #
cone-surface $-1 -12.699999999999999 0 14.604999999999997 0 0 -1 12.699999999999999 0 0 1 I I 0 1 12.699999999999999 forward I I I I #
coedge $-1 $601 $583 $592 $703 reversed $580 $-1 #
vertex $-1 $596 $780 #
straight-curve $-1 31.75 -7.6199999999999992 19.049999999999997 0 0 -1 I I #
ellipse-curve $-1 26.669999999999998 7.6200000000000019 0 0 0 1 3.5527136788005009e-015 5.0799999999999974 0 1 I I #
point $-1 31.75 7.6199999999999992 0 #
edge $-1 $704 -1.570796326794897 $699 0 $592 $781 forward 7 unknown #
vertex $-1 $594 $782 #
straight-curve $-1 12.065000000000001 -12.700000000000001 0 1 0 0 I I #
coedge $-1 $783 $595 $784 $785 reversed $452 $-1 #
coedge $-1 $595 $783 $723 $786 reversed $452 $-1 #
coedge $-1 $719 $718 $595 $709 forward $720 $-1 #
edge $-1 $787 0 $788 50.799999999999955 $708 $789 forward 7 unknown #
straight-curve $-1 31.75 -3.8099999999999996 0 0 1 0 I I #
ref_vt-eye-attrib $-1 $-1 $597 $454 $29 $-1 #
straight-curve $-1 26.670000000000002 -12.699999999999999 19.049999999999997 0 0 -1 I I #
edge $790 $721 0 $716 25.399999999999995 $622 $791 forward 7 unknown #
coedge $-1 $792 $606 $611 $726 reversed $620 $-1 #
coedge $-1 $606 $792 $735 $793 reversed $620 $-1 #
vertex $-1 $607 $794 #
straight-curve $-1 12.699999999999999 0 12.699999999999996 0 1 0 I I #
coedge $-1 $708 $608 $736 $795 reversed $720 $-1 #
coedge $-1 $608 $708 $610 $724 forward $720 $-1 #
loop $-1 $-1 $608 $796 #
vertex $-1 $795 $797 #
straight-curve $-1 38.099999999999994 25.399999999999977 12.699999999999998 0 -1 0 I I #
coedge $-1 $798 $610 $707 $786 forward $612 $-1 #
edge $-1 $788 0 $614 12.699999999999998 $719 $799 forward 7 unknown #
coedge $-1 $611 $800 $801 $802 forward $612 $-1 #
edge $-1 $803 -3.1750000000000007 $613 3.1749999999999989 $611 $804 forward 7 unknown #
face $805 $796 $612 $12 $-1 $806 forward single #
point $-1 12.700000000000045 25.399999999999999 12.699999999999998 #
point $-1 38.099999999999994 25.399999999999977 12.699999999999998 #
ref_vt-eye-attrib $-1 $-1 $618 $473 $29 $-1 #
model_id-kcp-attrib $-1 $807 $-1 $619 1 990664172 70 -1371144191 16 #
face $808 $809 $810 $12 $-1 $811 forward single #
loop $-1 $-1 $812 $619 #
plane-surface $-1 -12.699999999999989 25.399999999999999 19.049999999999997 -1 0 0 0 0 1 forward_v I I I I #
coedge $-1 $813 $622 $715 $793 forward $474 $-1 #
coedge $-1 $622 $784 $718 $795 forward $474 $-1 #
coedge $-1 $814 $629 $652 $756 reversed $494 $-1 #
coedge $-1 $629 $814 $630 $740 forward $494 $-1 #
coedge $-1 $631 $630 $815 $816 forward $349 $-1 #
edge $-1 $817 0 $741 12.699999999999998 $738 $818 forward 7 unknown #
vertex $-1 $740 $819 #
ellipse-curve $-1 24.13000000000001 -7.6199999999999921 0 0 0 1 -5.080000000000009 -7.1054273576010019e-015 0 1 I I #
coedge $-1 $815 $638 $634 $744 reversed $511 $-1 #
edge $-1 $745 -24.129999999999988 $640 -8.8899999999999899 $634 $820 forward 7 unknown #
vertex $-1 $816 $821 #
straight-curve $-1 19.050000000000001 -7.6199999999999992 12.699999999999998 0 0 -1 I I #
point $-1 19.050000000000001 -7.6199999999999992 0 #
ellipse-curve $-1 24.129999999999995 7.6199999999999957 12.699999999999998 0 0 -1 -5.0799999999999947 5.3290705182007514e-015 0 1 I I #
point $-1 19.050000000000001 7.620000000000001 12.699999999999998 #
coedge $-1 $645 $815 $814 $822 reversed $511 $-1 #
coedge $-1 $652 $646 $645 $752 forward $627 $-1 #
edge $-1 $648 0 $823 1.570796326794897 $751 $824 forward 7 unknown #
straight-curve $-1 31.75 -7.6199999999999992 12.699999999999998 0 0 -1 I I #
point $-1 31.75 -7.6199999999999992 12.699999999999998 #
straight-curve $-1 31.114999999999998 -12.700000000000003 0 1 0 0 I I #
edge $-1 $823 0 $653 12.699999999999998 $652 $825 forward 7 unknown #
point $-1 26.670000000000002 -12.700000000000001 0 #
convexity-sys-attrib $-1 $-1 $-1 $659 #
straight-curve $-1 12.699999999999994 0 -93.541341127867099 0 -1 0 I I #
convexity-sys-attrib $-1 $-1 $-1 $662 #
straight-curve $-1 -12.699999999999994 0 -93.541341127867099 0 1 0 I I #
coedge $-1 $670 $669 $683 $771 reversed $396 $-1 #
coedge $-1 $683 $675 $671 $764 forward $560 $-1 #
edge $826 $677 -25.399999999999991 $765 25.400000000000006 $671 $827 forward 7 unknown #
vertex $-1 $764 $828 #
straight-curve $-1 38.100000000000009 -25.399999999999999 3.1749999999999972 0 0 1 I I #
point $-1 38.100000000000009 -25.399999999999999 9.5249999999999968 #
convexity-sys-attrib $-1 $-1 $-1 $676 #
straight-curve $-1 6.350000000000005 25.399999999999999 3.1749999999999972 1 0 0 I I #
point $-1 38.100000000000009 25.399999999999999 3.1749999999999972 #
edge $829 $765 -31.750000000000004 $686 19.04999999999999 $762 $830 forward 7 unknown #
straight-curve $-1 -12.699999999999985 -25.399999999999977 3.1750000000000043 0 0 1 I I #
point $-1 -12.699999999999985 -25.399999999999977 3.1750000000000043 #
ref_vt-eye-attrib $-1 $-1 $694 $579 $29 $-1 #
model_id-kcp-attrib $-1 $831 $-1 $695 1 990664172 70 -1371144191 11 #
face $832 $199 $833 $12 $-1 $834 forward single #
loop $-1 $-1 $835 $695 #
plane-surface $-1 -12.699999999999999 0 10.159999999999997 0 0 -1 1 0 0 forward_v I I I I #
coedge $-1 $836 $837 $812 $838 reversed $696 $-1 #
point $-1 31.75 -7.6199999999999992 0 #
ellipse-curve $-1 26.670000000000002 -7.620000000000001 0 0 0 1 5.0799999999999983 1.7763568394002505e-015 0 1 I I #
point $-1 26.670000000000002 -12.699999999999999 0 #
coedge $-1 $707 $706 $839 $840 reversed $452 $-1 #
coedge $-1 $736 $841 $706 $785 forward $474 $-1 #
edge $842 $843 2.8421709430404007e-014 $787 76.200000000000017 $784 $844 forward 7 unknown #
edge $-1 $788 2.8421709430404007e-014 $845 76.200000000000045 $723 $846 forward 7 unknown #
vertex $-1 $709 $847 #
vertex $-1 $709 $848 #
straight-curve $-1 38.099999999999994 -25.399999999999977 0 0 1 0 I I #
attrib_edge_convexity-kcp-attrib $-1 $849 $-1 $713 1 #
straight-curve $-1 38.099999999999994 -25.399999999999977 12.699999999999998 -1 0 0 I I #
coedge $-1 $715 $714 $850 $851 reversed $620 $-1 #
edge $852 $716 -3.1749999999999989 $853 3.1750000000000007 $735 $854 forward 7 unknown #
point $-1 12.699999999999999 -25.399999999999977 12.699999999999998 #
edge $855 $787 0 $721 12.699999999999998 $736 $856 forward 7 unknown #
face $857 $454 $720 $12 $-1 $858 forward single #
point $-1 38.099999999999994 -25.399999999999977 12.699999999999998 #
coedge $-1 $859 $723 $860 $861 forward $612 $-1 #
straight-curve $-1 38.099999999999994 25.399999999999977 0 0 0 1 I I #
coedge $-1 $725 $859 $862 $863 forward $612 $-1 #
coedge $-1 $864 $850 $725 $802 reversed $810 $-1 #
edge $-1 $865 2.3092638912203256e-014 $803 25.400000000000013 $725 $866 forward 7 unknown #
vertex $-1 $726 $867 #
straight-curve $-1 12.700000000000001 25.399999999999999 9.5249999999999986 0 0 1 I I #
model_id-kcp-attrib $-1 $868 $-1 $727 1 990664172 70 -1371144191 19 #
plane-surface $-1 -38.100000000000023 25.399999999999999 0 0 1 0 0 0 1 forward_v I I I I #
ref_vt-eye-attrib $-1 $-1 $731 $619 $29 $-1 #
model_id-kcp-attrib $-1 $869 $-1 $732 1 990664172 70 -1371144191 17 #
face $870 $727 $871 $12 $-1 $872 forward single #
loop $-1 $-1 $801 $732 #
plane-surface $-1 12.699999999999999 25.399999999999977 6.3499999999999979 0 0 1 1 0 0 forward_v I I I I #
coedge $-1 $873 $874 $779 $838 forward $733 $-1 #
coedge $-1 $875 $735 $876 $877 forward $474 $-1 #
coedge $-1 $738 $737 $750 $822 forward $494 $-1 #
coedge $-1 $750 $743 $739 $816 reversed $511 $-1 #
edge $-1 $817 -1.5707963267948939 $745 0 $739 $878 forward 7 unknown #
vertex $-1 $822 $879 #
straight-curve $-1 24.130000000000003 -12.700000000000001 12.699999999999998 0 0 -1 I I #
point $-1 24.130000000000003 -12.700000000000001 0 #
straight-curve $-1 19.049999999999997 16.509999999999991 12.699999999999998 0 1 0 I I #
point $-1 19.050000000000001 -7.6199999999999992 12.699999999999998 #
edge $-1 $823 4.4449999999999967 $817 6.9849999999999959 $814 $880 forward 7 unknown #
vertex $-1 $752 $881 #
ellipse-curve $-1 26.670000000000002 -7.620000000000001 12.699999999999998 0 0 -1 5.0799999999999983 1.7763568394002505e-015 0 1 I I #
straight-curve $-1 26.670000000000002 -12.700000000000001 12.699999999999998 0 0 -1 I I #
convexity-sys-attrib $-1 $-1 $-1 $764 #
straight-curve $-1 38.100000000000009 5.3290705182007514e-015 3.1749999999999972 0 -1 0 I I #
point $-1 38.100000000000009 -25.399999999999999 3.1749999999999972 #
convexity-sys-attrib $-1 $-1 $-1 $771 #
straight-curve $-1 6.350000000000005 -25.399999999999999 3.1749999999999972 -1 0 0 I I #
ref_vt-eye-attrib $-1 $-1 $775 $695 $29 $-1 #
model_id-kcp-attrib $-1 $882 $-1 $776 1 990664172 70 -1371144191 12 #
loop $-1 $-1 $883 $776 #
plane-surface $-1 38.099999999999994 -25.399999999999977 19.049999999999997 0 0 1 1 0 0 forward_v I I I I #
coedge $-1 $884 $884 $874 $885 reversed $777 $-1 #
coedge $-1 $886 $779 $884 $887 forward $696 $-1 #
coedge $-1 $779 $886 $883 $888 reversed $696 $-1 #
edge $-1 $889 -4.4450000000000003 $890 4.4450000000000003 $812 $891 forward 7 unknown #
coedge $-1 $892 $860 $783 $840 forward $871 $-1 #
edge $893 $845 -2.1316282072803006e-014 $843 50.799999999999955 $839 $894 forward 7 unknown #
coedge $-1 $784 $895 $892 $896 reversed $474 $-1 #
attrib_edge_convexity-kcp-attrib $-1 $897 $-1 $785 1 #
vertex $-1 $840 $898 #
straight-curve $-1 -38.100000000000023 -25.399999999999999 0 1 0 0 I I #
vertex $-1 $786 $899 #
straight-curve $-1 38.100000000000023 25.399999999999999 0 -1 0 0 I I #
point $-1 38.099999999999994 -25.399999999999977 0 #
point $-1 38.099999999999994 25.399999999999977 0 #
convexity-sys-attrib $-1 $-1 $790 $713 #
coedge $-1 $801 $876 $792 $851 forward $810 $-1 #
edge $-1 $853 0 $803 50.799999999999955 $792 $900 forward 7 unknown #
attrib_edge_convexity-kcp-attrib $-1 $901 $-1 $793 1 #
vertex $-1 $793 $902 #
straight-curve $-1 12.700000000000001 -25.399999999999977 9.5249999999999986 0 0 -1 I I #
attrib_edge_convexity-kcp-attrib $-1 $903 $-1 $795 1 #
straight-curve $-1 38.099999999999994 -25.399999999999977 0 0 0 1 I I #
model_id-kcp-attrib $-1 $904 $-1 $796 1 990664172 70 -1371144191 20 #
plane-surface $-1 38.099999999999994 25.399999999999977 0 1 0 0 0 0 -1 forward_v I I I I #
coedge $-1 $800 $798 $905 $906 forward $612 $-1 #
coedge $-1 $839 $907 $798 $861 reversed $871 $-1 #
edge $908 $845 0 $909 19.049999999999997 $798 $910 forward 7 unknown #
coedge $-1 $911 $912 $800 $863 reversed $733 $-1 #
edge $-1 $913 -9.5249999999999986 $865 3.1750000000000007 $800 $914 forward 7 unknown #
coedge $-1 $876 $801 $912 $915 forward $810 $-1 #
vertex $-1 $863 $916 #
straight-curve $-1 -12.700000000000012 25.399999999999999 6.3499999999999979 1 0 0 I I #
point $-1 12.699999999999999 25.399999999999977 6.3499999999999979 #
ref_vt-eye-attrib $-1 $-1 $805 $727 $29 $-1 #
ref_vt-eye-attrib $-1 $-1 $808 $732 $29 $-1 #
model_id-kcp-attrib $-1 $917 $-1 $809 1 990664172 70 -1371144191 18 #
loop $-1 $-1 $907 $809 #
plane-surface $-1 -38.099999999999994 -25.399999999999977 0 -1 0 0 0 0 1 forward_v I I I I #
coedge $-1 $918 $812 $919 $920 reversed $733 $-1 #
coedge $-1 $812 $921 $835 $885 forward $733 $-1 #
coedge $-1 $895 $813 $918 $922 forward $474 $-1 #
coedge $-1 $850 $864 $813 $877 reversed $810 $-1 #
edge $923 $853 12.699999999999999 $924 38.099999999999994 $813 $925 forward 7 unknown #
ellipse-curve $-1 24.13000000000001 -7.6199999999999921 12.699999999999998 0 0 -1 -5.080000000000009 -7.1054273576010019e-015 0 1 I I #
point $-1 24.130000000000003 -12.700000000000001 12.699999999999998 #
straight-curve $-1 31.114999999999998 -12.700000000000003 12.699999999999998 -1 0 0 I I #
point $-1 26.670000000000002 -12.699999999999999 12.699999999999998 #
ref_vt-eye-attrib $-1 $-1 $832 $776 $29 $-1 #
coedge $-1 $926 $919 $837 $888 forward $833 $-1 #
coedge $-1 $835 $835 $836 $887 reversed $777 $-1 #
edge $-1 $927 0 $889 25.399999999999999 $874 $928 forward 7 unknown #
coedge $-1 $837 $836 $921 $929 reversed $696 $-1 #
edge $-1 $889 1.5707963267948957 $927 4.7123889803846906 $884 $930 forward 7 unknown #
edge $931 $890 1.5707963267948957 $932 4.7123889803846906 $883 $933 forward 7 unknown #
vertex $-1 $838 $934 #
vertex $-1 $920 $935 #
straight-curve $-1 -12.699999999999989 -12.699999999999999 14.604999999999997 0 0 1 I I #
coedge $-1 $907 $839 $841 $896 forward $871 $-1 #
attrib_edge_convexity-kcp-attrib $-1 $936 $-1 $840 1 #
straight-curve $-1 -38.099999999999994 25.399999999999977 0 0 -1 0 I I #
coedge $-1 $841 $875 $937 $938 forward $474 $-1 #
edge $939 $843 0 $940 19.049999999999997 $892 $941 forward 7 unknown #
convexity-sys-attrib $-1 $-1 $842 $785 #
point $-1 -38.099999999999994 -25.399999999999977 0 #
point $-1 -38.100000000000023 25.399999999999999 0 #
straight-curve $-1 12.699999999999999 -25.399999999999977 6.3499999999999979 0 1 0 I I #
convexity-sys-attrib $-1 $-1 $852 $793 #
point $-1 12.699999999999999 -25.399999999999977 6.3499999999999979 #
convexity-sys-attrib $-1 $-1 $855 $795 #
ref_vt-eye-attrib $-1 $-1 $857 $796 $29 $-1 #
coedge $-1 $942 $926 $859 $906 reversed $833 $-1 #
edge $943 $909 -76.200000000000045 $913 -50.800000000000011 $859 $944 forward 7 unknown #
coedge $-1 $860 $892 $942 $945 forward $871 $-1 #
attrib_edge_convexity-kcp-attrib $-1 $946 $-1 $861 1 #
vertex $-1 $861 $947 #
straight-curve $-1 -38.100000000000023 25.399999999999999 0 0 0 1 I I #
coedge $-1 $921 $862 $926 $948 reversed $733 $-1 #
coedge $-1 $862 $918 $864 $915 reversed $733 $-1 #
vertex $-1 $906 $949 #
straight-curve $-1 -12.699999999999989 25.399999999999999 9.5249999999999986 0 0 -1 I I #
edge $-1 $865 -2.1316282072803006e-014 $924 50.799999999999955 $912 $950 forward 7 unknown #
point $-1 -12.699999999999989 25.399999999999999 6.3499999999999979 #
ref_vt-eye-attrib $-1 $-1 $870 $809 $29 $-1 #
coedge $-1 $912 $873 $875 $922 reversed $733 $-1 #
coedge $-1 $883 $937 $873 $920 forward $833 $-1 #
edge $951 $952 -25.399999999999988 $890 -12.70000000000001 $919 $953 forward 7 unknown #
coedge $-1 $874 $911 $886 $929 forward $733 $-1 #
edge $954 $924 -3.1750000000000007 $952 9.5249999999999986 $875 $955 forward 7 unknown #
attrib_edge_convexity-kcp-attrib $-1 $956 $-1 $877 1 #
vertex $-1 $922 $957 #
straight-curve $-1 25.399999999999999 -25.399999999999977 6.3499999999999979 -1 0 0 I I #
coedge $-1 $905 $883 $911 $948 forward $833 $-1 #
vertex $-1 $929 $958 #
straight-curve $-1 -12.699999999999989 12.699999999999999 10.159999999999997 0 -1 0 I I #
edge $-1 $932 -4.4450000000000003 $927 4.4450000000000003 $921 $959 forward 7 unknown #
ellipse-curve $-1 -12.699999999999999 0 10.159999999999997 0 0 -1 12.699999999999999 0 0 1 I I #
attrib_edge_convexity-kcp-attrib $-1 $960 $-1 $888 1 #
vertex $-1 $929 $961 #
ellipse-curve $-1 -12.699999999999999 0 19.049999999999997 0 0 -1 12.699999999999999 0 0 1 I I #
point $-1 -12.699999999999989 -12.699999999999999 10.159999999999997 #
point $-1 -12.699999999999989 -12.699999999999999 19.049999999999997 #
convexity-sys-attrib $-1 $-1 $893 $840 #
coedge $-1 $919 $942 $895 $938 reversed $833 $-1 #
edge $962 $952 -25.400000000000023 $940 -2.8421709430404007e-014 $895 $963 forward 7 unknown #
attrib_edge_convexity-kcp-attrib $-1 $964 $-1 $896 1 #
vertex $-1 $896 $965 #
straight-curve $-1 -38.099999999999994 -25.399999999999977 0 0 0 1 I I #
coedge $-1 $937 $905 $907 $945 reversed $833 $-1 #
attrib_edge_convexity-kcp-attrib $-1 $966 $-1 $906 1 #
straight-curve $-1 38.100000000000023 25.399999999999999 19.049999999999997 1 0 0 I I #
edge $967 $940 -50.799999999999955 $909 2.1316282072803006e-014 $907 $968 forward 7 unknown #
convexity-sys-attrib $-1 $-1 $908 $861 #
point $-1 -38.100000000000023 25.399999999999999 19.049999999999997 #
edge $969 $932 12.699999999999989 $913 25.399999999999988 $926 $953 forward 7 unknown #
point $-1 -12.699999999999989 25.399999999999999 19.049999999999997 #
straight-curve $-1 -12.699999999999999 25.399999999999977 6.3499999999999979 0 -1 0 I I #
attrib_edge_convexity-kcp-attrib $-1 $970 $-1 $920 1 #
vertex $-1 $922 $971 #
straight-curve $-1 -12.699999999999989 1.0658141036401503e-014 19.049999999999997 0 1 0 I I #
attrib_edge_convexity-kcp-attrib $-1 $972 $-1 $922 1 #
straight-curve $-1 -12.699999999999989 -25.399999999999977 9.5249999999999986 0 0 1 I I #
convexity-sys-attrib $-1 $-1 $923 $877 #
point $-1 -12.699999999999999 -25.399999999999977 6.3499999999999979 #
point $-1 -12.699999999999989 12.699999999999999 10.159999999999997 #
straight-curve $-1 -12.699999999999989 12.699999999999999 14.604999999999997 0 0 -1 I I #
convexity-sys-attrib $-1 $-1 $931 $888 #
point $-1 -12.699999999999989 12.699999999999999 19.049999999999997 #
attrib_edge_convexity-kcp-attrib $-1 $973 $-1 $938 1 #
straight-curve $-1 -38.100000000000023 -25.399999999999999 19.049999999999997 -1 0 0 I I #
convexity-sys-attrib $-1 $-1 $939 $896 #
point $-1 -38.099999999999994 -25.399999999999977 19.049999999999997 #
convexity-sys-attrib $-1 $-1 $943 $906 #
attrib_edge_convexity-kcp-attrib $-1 $974 $-1 $945 1 #
straight-curve $-1 -38.099999999999994 25.399999999999977 19.049999999999997 0 1 0 I I #
attrib_edge_convexity-kcp-attrib $-1 $975 $-1 $948 1 #
convexity-sys-attrib $-1 $-1 $951 $920 #
point $-1 -12.699999999999999 -25.399999999999977 19.049999999999997 #
convexity-sys-attrib $-1 $-1 $954 $922 #
convexity-sys-attrib $-1 $-1 $962 $938 #
convexity-sys-attrib $-1 $-1 $967 $945 #
convexity-sys-attrib $-1 $-1 $969 $948 #
End-of-ACIS-data 