600 0 1 0           
7 Unknown 16 ACIS 6.0 Solaris 24 Thu Aug 17 17:43:26 2000 
-1 9.999999999999999547e-07 1.000000000000000036e-10 
body $1 $2 $-1 $3 #
attrib_gssl_step_cc1_details-attrib_gssl_step-attrib $-1 $-1 $-1 $0 $4 $5 $6 $7 $8 $9 $10 $11 $12 $13 $14 $15 $16 $17 $18 $19 $20 $21 $22 $23 $24 $25 $26 $27 $28 $29 $30 $31 $32 $33 $34 $35 #
lump $-1 $-1 $36 $0 #
transform $-1 1 0 0 0 1 0 0 0 1 0 0 0 1 no_rotate no_reflect no_shear #
attrib_gssl_step_product_details-attrib_gssl_step-attrib $-1 $-1 $-1 $-1 7 Product 9 Test Part 1 1 6 detail 6 detail #
attrib_gssl_step_application_details-attrib_gssl_step-attrib $-1 $-1 $-1 $-1 70 configuration controlled 3d designs of mechanical parts and assemblies 22 International Standard 21 config_control_design 1994 #
attrib_gssl_step_mech_con_details-attrib_gssl_step-attrib $-1 $-1 $-1 $-1 19 3D Mechanical Parts 10 mechanical #
attrib_gssl_step_des_con_details-attrib_gssl_step-attrib $-1 $-1 $-1 $-1 19 3D Mechanical Parts 6 design #
attrib_gssl_step_person_details-attrib_gssl_step-attrib $-1 $-1 $-1 $-1 1 1 9 Last Name 10 First Name 0 0 0 #
attrib_gssl_step_person_details-attrib_gssl_step-attrib $-1 $-1 $-1 $-1 1 2 9 Last Name 10 First Name 0 0 0 #
attrib_gssl_step_person_details-attrib_gssl_step-attrib $-1 $-1 $-1 $-1 1 3 9 Last Name 10 First Name 0 0 0 #
attrib_gssl_step_person_details-attrib_gssl_step-attrib $-1 $-1 $-1 $-1 1 2 9 Last Name 10 First Name 0 0 0 #
attrib_gssl_step_person_details-attrib_gssl_step-attrib $-1 $-1 $-1 $-1 1 2 9 Last Name 10 First Name 0 0 0 #
attrib_gssl_step_person_details-attrib_gssl_step-attrib $-1 $-1 $-1 $-1 1 3 9 Last Name 10 First Name 0 0 0 #
attrib_gssl_step_person_details-attrib_gssl_step-attrib $-1 $-1 $-1 $-1 1 3 9 Last Name 10 First Name 0 0 0 #
attrib_gssl_step_person_details-attrib_gssl_step-attrib $-1 $-1 $-1 $-1 1 3 9 Last Name 10 First Name 0 0 0 #
attrib_gssl_step_org_details-attrib_gssl_step-attrib $-1 $-1 $-1 $-1 3 STI 3 R&D 3 R&D 12 design_owner #
attrib_gssl_step_org_details-attrib_gssl_step-attrib $-1 $-1 $-1 $-1 3 STI 3 R&D 3 R&D 7 creator #
attrib_gssl_step_org_details-attrib_gssl_step-attrib $-1 $-1 $-1 $-1 3 STI 3 R&D 3 R&D 0  #
attrib_gssl_step_org_details-attrib_gssl_step-attrib $-1 $-1 $-1 $-1 3 STI 3 R&D 3 R&D 7 creator #
attrib_gssl_step_org_details-attrib_gssl_step-attrib $-1 $-1 $-1 $-1 3 STI 3 R&D 3 R&D 15 design_supplier #
attrib_gssl_step_org_details-attrib_gssl_step-attrib $-1 $-1 $-1 $-1 3 STI 3 R&D 3 R&D 0  #
attrib_gssl_step_org_details-attrib_gssl_step-attrib $-1 $-1 $-1 $-1 3 STI 3 R&D 3 R&D 0  #
attrib_gssl_step_org_details-attrib_gssl_step-attrib $-1 $-1 $-1 $-1 3 STI 3 R&D 3 R&D 22 classification_officer #
attrib_gssl_step_datetime_details-attrib_gssl_step-attrib $-1 $-1 $-1 $-1 1997 1 1 0 0 0 5 0 1 13 creation_date #
attrib_gssl_step_datetime_details-attrib_gssl_step-attrib $-1 $-1 $-1 $-1 1997 1 1 0 0 0 5 0 1 0  #
attrib_gssl_step_datetime_details-attrib_gssl_step-attrib $-1 $-1 $-1 $-1 1997 1 1 0 0 0 5 0 1 0  #
attrib_gssl_step_datetime_details-attrib_gssl_step-attrib $-1 $-1 $-1 $-1 1997 1 1 0 0 0 5 0 1 19 classification_date #
attrib_gssl_step_datetime_details-attrib_gssl_step-attrib $-1 $-1 $-1 $-1 1997 1 1 0 0 0 5 0 1 0  #
attrib_gssl_step_security_details-attrib_gssl_step-attrib $-1 $-1 $-1 $-1 7 Version 20 Security for version 12 unclassified #
attrib_gssl_step_approval_details-attrib_gssl_step-attrib $-1 $-1 $-1 $-1 19 Definition approval 16 not_yet_approved 19 definition approval 0  #
attrib_gssl_step_approval_details-attrib_gssl_step-attrib $-1 $-1 $-1 $-1 16 Version approval 16 not_yet_approved 16 version approval 0  #
attrib_gssl_step_approval_details-attrib_gssl_step-attrib $-1 $-1 $-1 $-1 25 Version Security approval 16 not_yet_approved 25 version security approval 0  #
attrib_gssl_step_product_def_form_details-attrib_gssl_step-attrib $-1 $-1 $-1 $-1 9 Test Part 7 Version 0 #
attrib_gssl_step_product_def_details-attrib_gssl_step-attrib $-1 $-1 $-1 $-1 9 Test Part 7 Version #
attrib_gssl_step_product_def_spec_details-attrib_gssl_step-attrib $-1 $-1 $-1 $-1 9 Test Part 7 Version #
shell $-1 $-1 $-1 $37 $-1 $2 #
face $-1 $38 $39 $36 $-1 $40 reversed single #
face $-1 $41 $42 $36 $-1 $43 reversed single #
loop $-1 $-1 $44 $37 #
cone-surface $-1 -17.5 0 10 0 0 1 2.5 0 0 1 I I 0 1 2.5 forward I I I I #
face $-1 $45 $46 $36 $-1 $47 forward single #
loop $-1 $-1 $48 $38 #
cone-surface $-1 17.5 0 10 0 0 1 2.5 0 0 1 I I 0 1 2.5 forward I I I I #
coedge $-1 $49 $50 $51 $52 reversed $39 $-1 #
face $-1 $53 $54 $36 $-1 $55 forward single #
loop $-1 $56 $57 $41 #
plane-surface $-1 0 0 12.5 0 0 1 1 0 0 forward_v I I I I #
coedge $-1 $58 $59 $60 $61 reversed $42 $-1 #
coedge $-1 $62 $44 $63 $64 forward $39 $-1 #
coedge $-1 $44 $62 $57 $65 reversed $39 $-1 #
coedge $-1 $66 $67 $44 $52 forward $68 $-1 #
edge $-1 $69 -2.5 $70 2.5 $44 $71 reversed 7 unknown #
face $-1 $72 $68 $36 $-1 $73 forward single #
loop $-1 $-1 $74 $45 #
plane-surface $-1 0 0 7.5 0 0 1 1 0 0 forward_v I I I I #
loop $-1 $-1 $75 $41 #
coedge $-1 $76 $77 $50 $65 forward $46 $-1 #
coedge $-1 $78 $48 $79 $80 forward $42 $-1 #
coedge $-1 $48 $81 $82 $83 reversed $42 $-1 #
coedge $-1 $84 $85 $48 $61 forward $86 $-1 #
edge $-1 $87 -2.5 $88 2.5 $48 $89 reversed 7 unknown #
coedge $-1 $50 $49 $90 $91 forward $39 $-1 #
coedge $-1 $92 $93 $49 $64 reversed $94 $-1 #
edge $-1 $69 1.570796326794896558 $95 4.712388980384689674 $49 $96 forward 7 unknown #
edge $-1 $70 1.570796326794896558 $97 4.712388980384689674 $50 $98 forward 7 unknown #
coedge $-1 $99 $51 $77 $100 reversed $68 $-1 #
coedge $-1 $51 $99 $92 $101 forward $68 $-1 #
loop $-1 $-1 $99 $53 #
vertex $-1 $52 $102 #
vertex $-1 $52 $103 #
straight-curve $-1 -17.5 -2.5 10 0 0 -1 I I #
face $-1 $104 $105 $36 $-1 $73 forward single #
plane-surface $-1 0 -2.5 10 0 1 0 0 0 1 forward_v I I I I #
coedge $-1 $106 $79 $85 $107 reversed $54 $-1 #
coedge $-1 $108 $109 $110 $111 forward $56 $-1 #
coedge $-1 $112 $57 $113 $114 forward $46 $-1 #
coedge $-1 $57 $115 $66 $100 forward $46 $-1 #
coedge $-1 $116 $58 $117 $118 forward $42 $-1 #
coedge $-1 $74 $117 $58 $80 reversed $54 $-1 #
edge $-1 $87 -1.570796326794896558 $119 0 $58 $120 forward 7 unknown #
coedge $-1 $59 $116 $121 $122 reversed $42 $-1 #
coedge $-1 $121 $123 $59 $83 forward $46 $-1 #
edge $-1 $88 -1.570796326794896558 $124 0 $59 $125 forward 7 unknown #
coedge $-1 $126 $60 $123 $127 reversed $86 $-1 #
coedge $-1 $60 $126 $74 $107 forward $86 $-1 #
loop $-1 $-1 $126 $128 #
vertex $-1 $61 $129 #
vertex $-1 $61 $130 #
straight-curve $-1 17.5 2.5 10 0 0 -1 I I #
coedge $-1 $131 $113 $62 $91 reversed $132 $-1 #
edge $-1 $95 -2.5 $97 2.5 $62 $133 reversed 7 unknown #
coedge $-1 $134 $63 $67 $101 reversed $94 $-1 #
coedge $-1 $63 $134 $131 $135 reversed $94 $-1 #
loop $-1 $-1 $92 $136 #
vertex $-1 $64 $137 #
ellipse-curve $-1 -17.5 0 7.5 0 0 -1 2.5 0 0 1 I I #
vertex $-1 $91 $138 #
ellipse-curve $-1 -17.5 0 12.5 0 0 -1 2.5 0 0 1 I I #
coedge $-1 $67 $66 $139 $140 reversed $68 $-1 #
edge $-1 $141 4.330127018922190096 $70 17.5 $77 $142 forward 7 unknown #
edge $-1 $143 4.330127018922190096 $69 17.5 $67 $144 forward 7 unknown #
point $-1 -17.5 -2.5 7.5 #
point $-1 -17.5 -2.5 12.5 #
face $-1 $136 $132 $36 $-1 $145 forward single #
loop $-1 $-1 $146 $72 #
coedge $-1 $147 $74 $148 $149 reversed $54 $-1 #
edge $-1 $150 4.330127018922190096 $87 17.5 $74 $151 forward 7 unknown #
coedge $-1 $152 $75 $153 $154 forward $56 $-1 #
coedge $-1 $75 $155 $156 $157 forward $56 $-1 #
coedge $-1 $158 $159 $75 $111 reversed $160 $-1 #
edge $-1 $161 0 $162 4.712388980384689674 $75 $163 forward 7 unknown #
coedge $-1 $123 $76 $164 $165 forward $46 $-1 #
coedge $-1 $90 $166 $76 $114 reversed $132 $-1 #
edge $-1 $97 -17.5 $167 -4.330127018922190096 $76 $168 forward 7 unknown #
coedge $-1 $77 $169 $170 $171 forward $46 $-1 #
coedge $-1 $81 $78 $172 $173 forward $42 $-1 #
coedge $-1 $79 $147 $78 $118 reversed $54 $-1 #
edge $-1 $119 0 $174 1.570796326794896558 $78 $120 forward 7 unknown #
vertex $-1 $80 $175 #
ellipse-curve $-1 17.5 0 7.5 0 0 -1 2.5 0 0 1 I I #
coedge $-1 $169 $82 $81 $122 forward $46 $-1 #
edge $-1 $124 0 $176 1.570796326794896558 $81 $125 forward 7 unknown #
coedge $-1 $82 $112 $84 $127 forward $46 $-1 #
vertex $-1 $122 $177 #
ellipse-curve $-1 17.5 0 12.5 0 0 -1 2.5 0 0 1 I I #
coedge $-1 $85 $84 $178 $179 reversed $86 $-1 #
edge $-1 $180 4.330127018922190096 $88 17.5 $123 $168 forward 7 unknown #
face $-1 $181 $86 $36 $-1 $145 forward single #
point $-1 17.5 2.5 7.5 #
point $-1 17.5 2.5 12.5 #
coedge $-1 $166 $90 $93 $135 forward $132 $-1 #
loop $-1 $-1 $166 $104 #
straight-curve $-1 -17.5 2.5 10 0 0 -1 I I #
coedge $-1 $93 $92 $182 $183 reversed $94 $-1 #
edge $-1 $95 -17.5 $184 -4.330127018922190096 $131 $151 forward 7 unknown #
face $-1 $128 $94 $36 $-1 $55 forward single #
point $-1 -17.5 2.5 7.5 #
point $-1 -17.5 2.5 12.5 #
coedge $-1 $170 $182 $99 $140 forward $185 $-1 #
edge $-1 $143 7.5 $141 12.5 $99 $186 forward 7 unknown #
vertex $-1 $171 $187 #
straight-curve $-1 0 -2.5 12.5 -1 0 0 I I #
vertex $-1 $140 $188 #
straight-curve $-1 0 -2.5 7.5 -1 0 0 I I #
plane-surface $-1 0 2.5 10 0 -1 0 0 0 -1 forward_v I I I I #
coedge $-1 $189 $190 $191 $192 reversed $105 $-1 #
coedge $-1 $117 $106 $190 $193 reversed $54 $-1 #
coedge $-1 $178 $191 $106 $149 forward $185 $-1 #
edge $-1 $194 -0.5235987755982991487 $150 0.5235987755982991487 $106 $195 forward 7 unknown #
vertex $-1 $107 $196 #
straight-curve $-1 0 2.5 7.5 1 0 0 I I #
coedge $-1 $197 $108 $198 $199 forward $56 $-1 #
coedge $-1 $200 $201 $108 $154 reversed $202 $-1 #
edge $-1 $162 5.625 $203 15.625 $108 $204 forward 7 unknown #
coedge $-1 $109 $205 $206 $207 forward $56 $-1 #
coedge $-1 $208 $209 $109 $157 reversed $210 $-1 #
edge $-1 $211 -10 $161 10 $109 $212 forward 7 unknown #
coedge $-1 $213 $110 $209 $214 reversed $160 $-1 #
coedge $-1 $110 $213 $200 $215 reversed $160 $-1 #
loop $-1 $-1 $158 $216 #
vertex $-1 $111 $217 #
vertex $-1 $111 $218 #
ellipse-curve $-1 -12.5 12.5 12.5 0 0 -1 2.5 0 0 1 I I #
coedge $-1 $219 $178 $112 $165 reversed $185 $-1 #
edge $-1 $167 -2.617993877991493967 $180 -0.5235987755982991487 $112 $220 forward 7 unknown #
coedge $-1 $113 $131 $219 $221 reversed $132 $-1 #
vertex $-1 $114 $222 #
straight-curve $-1 0 2.5 12.5 1 0 0 I I #
coedge $-1 $115 $121 $189 $223 forward $46 $-1 #
coedge $-1 $191 $139 $115 $171 reversed $185 $-1 #
edge $-1 $224 0.5235987755982991487 $141 2.617993877991493967 $115 $220 forward 7 unknown #
coedge $-1 $190 $189 $116 $173 reversed $105 $-1 #
edge $-1 $174 -2.5 $176 2.5 $116 $225 reversed 7 unknown #
vertex $-1 $118 $226 #
point $-1 20 0 7.5 #
vertex $-1 $173 $227 #
point $-1 20 0 12.5 #
coedge $-1 $164 $148 $126 $179 forward $185 $-1 #
edge $-1 $150 7.5 $180 12.5 $126 $228 forward 7 unknown #
vertex $-1 $165 $229 #
face $-1 $230 $185 $36 $-1 $231 reversed single #
coedge $-1 $139 $219 $134 $183 forward $185 $-1 #
edge $-1 $184 2.617993877991493967 $143 3.665191429188092265 $134 $232 forward 7 unknown #
vertex $-1 $221 $233 #
loop $-1 $234 $178 $181 #
straight-curve $-1 -4.330127018922190096 -2.5 0 0 0 1 I I #
point $-1 -4.330127018922190096 -2.5 12.5 #
point $-1 -4.330127018922190096 -2.5 7.5 #
coedge $-1 $172 $146 $169 $223 reversed $105 $-1 #
coedge $-1 $146 $172 $147 $193 forward $105 $-1 #
coedge $-1 $148 $170 $146 $192 forward $185 $-1 #
edge $-1 $224 -12.5 $194 -7.5 $146 $235 forward 7 unknown #
edge $-1 $174 -17.5 $194 -4.330127018922190096 $147 $144 forward 7 unknown #
vertex $-1 $149 $236 #
ellipse-curve $-1 0 0 7.5 0 0 1 5 0 0 1 I I #
point $-1 4.330127018922190096 2.5 7.5 #
coedge $-1 $237 $152 $238 $239 forward $56 $-1 #
coedge $-1 $240 $241 $152 $199 reversed $242 $-1 #
edge $-1 $203 12.5 $243 40 $152 $244 forward 7 unknown #
coedge $-1 $245 $153 $159 $215 forward $202 $-1 #
coedge $-1 $153 $245 $240 $246 reversed $202 $-1 #
loop $-1 $-1 $200 $247 #
vertex $-1 $154 $248 #
straight-curve $-1 -12.5 9.375 12.5 0 1 0 I I #
coedge $-1 $155 $249 $250 $251 forward $56 $-1 #
coedge $-1 $250 $252 $155 $207 reversed $253 $-1 #
edge $-1 $254 0 $211 3.141592653589793116 $155 $255 forward 7 unknown #
coedge $-1 $256 $156 $252 $257 forward $210 $-1 #
coedge $-1 $156 $256 $158 $214 forward $210 $-1 #
loop $-1 $-1 $209 $258 #
vertex $-1 $207 $259 #
straight-curve $-1 0 12.5 12.5 -1 0 0 I I #
coedge $-1 $159 $158 $260 $261 reversed $160 $-1 #
edge $-1 $262 -12.5 $161 12.5 $158 $263 forward 7 unknown #
edge $-1 $162 -12.5 $264 12.5 $159 $265 forward 7 unknown #
face $-1 $258 $160 $36 $-1 $266 reversed single #
point $-1 -10 12.5 12.5 #
point $-1 -12.5 15 12.5 #
coedge $-1 $182 $164 $166 $221 forward $185 $-1 #
ellipse-curve $-1 0 0 12.5 0 0 -1 5 0 0 1 I I #
edge $-1 $167 -12.5 $184 -7.5 $166 $267 forward 7 unknown #
point $-1 -4.330127018922190096 2.5 12.5 #
edge $-1 $176 -17.5 $224 -4.330127018922190096 $169 $142 forward 7 unknown #
vertex $-1 $223 $268 #
straight-curve $-1 17.5 -2.5 10 0 0 -1 I I #
point $-1 17.5 -2.5 7.5 #
point $-1 17.5 -2.5 12.5 #
straight-curve $-1 4.330127018922190096 2.5 0 0 0 1 I I #
point $-1 4.330127018922190096 2.5 12.5 #
face $-1 $216 $269 $36 $-1 $270 reversed single #
cone-surface $-1 0 0 0 0 0 1 5 0 0 1 I I 0 1 5 forward I I I I #
ellipse-curve $-1 0 0 7.5 0 0 1 5 0 0 1 I I #
point $-1 -4.330127018922190096 2.5 7.5 #
loop $-1 $271 $272 $181 #
straight-curve $-1 4.330127018922190096 -2.5 0 0 0 -1 I I #
point $-1 4.330127018922190096 -2.5 7.5 #
coedge $-1 $273 $197 $274 $275 forward $56 $-1 #
coedge $-1 $276 $277 $197 $239 reversed $278 $-1 #
edge $-1 $243 -18.75 $279 6.25 $197 $280 forward 7 unknown #
coedge $-1 $281 $198 $201 $246 forward $242 $-1 #
coedge $-1 $198 $282 $276 $283 forward $242 $-1 #
loop $-1 $-1 $282 $284 #
vertex $-1 $199 $285 #
straight-curve $-1 0 25 12.5 -1 0 0 I I #
coedge $-1 $201 $200 $286 $287 reversed $202 $-1 #
edge $-1 $203 -12.5 $288 12.5 $201 $289 forward 7 unknown #
face $-1 $284 $202 $36 $-1 $290 forward single #
point $-1 -12.5 25 12.5 #
coedge $-1 $205 $291 $292 $293 forward $56 $-1 #
coedge $-1 $294 $206 $205 $251 reversed $253 $-1 #
edge $-1 $295 -1.570796326794896558 $254 0 $205 $255 forward 7 unknown #
coedge $-1 $206 $296 $208 $257 reversed $253 $-1 #
loop $-1 $-1 $252 $297 #
vertex $-1 $251 $298 #
ellipse-curve $-1 12.5 12.5 12.5 0 0 -1 2.5 0 0 1 I I #
coedge $-1 $209 $208 $299 $300 reversed $210 $-1 #
edge $-1 $211 -12.5 $301 12.5 $208 $302 forward 7 unknown #
face $-1 $297 $303 $36 $-1 $304 forward single #
point $-1 10 12.5 12.5 #
coedge $-1 $299 $286 $213 $261 forward $305 $-1 #
edge $-1 $264 1.570796326794896558 $262 6.283185307179586232 $213 $306 forward 7 unknown #
vertex $-1 $214 $307 #
straight-curve $-1 -10 12.5 0 0 0 1 I I #
vertex $-1 $261 $308 #
straight-curve $-1 -12.5 15 0 0 0 -1 I I #
cone-surface $-1 -12.5 12.5 0 0 0 1 2.5 0 0 1 I I 0 1 2.5 forward I I I I #
straight-curve $-1 -4.330127018922190096 2.5 0 0 0 -1 I I #
point $-1 4.330127018922190096 -2.5 12.5 #
loop $-1 $309 $310 $230 #
cone-surface $-1 0 0 0 0 -1 -3.491481338843129805e-15 2.5 0 0 1 I I 0 1 2.5 forward I I I I #
loop $-1 $311 $312 $181 #
coedge $-1 $272 $272 $313 $314 reversed $234 $-1 #
coedge $-1 $315 $237 $316 $317 forward $56 $-1 #
coedge $-1 $318 $319 $237 $275 reversed $320 $-1 #
edge $-1 $279 -17.5 $321 -5 $237 $322 forward 7 unknown #
coedge $-1 $323 $238 $241 $283 reversed $278 $-1 #
coedge $-1 $238 $323 $318 $324 reversed $278 $-1 #
loop $-1 $-1 $323 $325 #
vertex $-1 $239 $326 #
straight-curve $-1 -40 6.25 12.5 0 -1 0 I I #
coedge $-1 $327 $240 $328 $329 reversed $242 $-1 #
coedge $-1 $241 $330 $331 $332 forward $242 $-1 #
edge $-1 $333 -0.6249999999999098499 $243 9.375 $241 $334 forward 7 unknown #
face $-1 $325 $242 $36 $-1 $335 reversed single #
point $-1 -40 25 12.5 #
coedge $-1 $260 $328 $245 $287 forward $305 $-1 #
edge $-1 $288 -15.625 $264 -5.625 $286 $336 forward 7 unknown #
vertex $-1 $329 $337 #
straight-curve $-1 -12.5 25 0 0 0 -1 I I #
plane-surface $-1 -12.5 18.75 0 1 0 0 0 0 -1 forward_v I I I I #
coedge $-1 $249 $338 $339 $340 forward $56 $-1 #
coedge $-1 $341 $342 $249 $293 reversed $343 $-1 #
edge $-1 $344 -15.625 $295 -5.625 $249 $345 forward 7 unknown #
coedge $-1 $346 $250 $342 $347 reversed $253 $-1 #
vertex $-1 $293 $348 #
coedge $-1 $252 $346 $349 $350 reversed $253 $-1 #
face $-1 $351 $253 $36 $-1 $352 reversed single #
point $-1 15 12.5 12.5 #
coedge $-1 $349 $260 $256 $300 forward $305 $-1 #
edge $-1 $262 -10 $301 10 $256 $353 forward 7 unknown #
vertex $-1 $257 $354 #
straight-curve $-1 10 12.5 0 0 0 -1 I I #
loop $-1 $210 $355 $258 #
plane-surface $-1 0 12.5 0 0 1 0 0 0 1 forward_v I I I I #
loop $-1 $-1 $260 $351 #
ellipse-curve $-1 -12.5 12.5 -12.5 0 0 1 2.5 0 0 1 I I #
point $-1 -10 12.5 -12.5 #
point $-1 -12.5 15 -12.5 #
loop $-1 $-1 $356 $230 #
coedge $-1 $310 $310 $355 $357 reversed $269 $-1 #
loop $-1 $-1 $358 $181 #
coedge $-1 $312 $312 $356 $359 reversed $271 $-1 #
coedge $-1 $313 $313 $272 $314 forward $360 $-1 #
edge $-1 $361 0 $361 15.37562208415080001 $272 $362 forward 7 unknown #
coedge $-1 $363 $273 $364 $365 forward $56 $-1 #
coedge $-1 $366 $367 $273 $317 reversed $368 $-1 #
edge $-1 $321 -6.25 $369 18.75 $273 $370 forward 7 unknown #
coedge $-1 $371 $274 $277 $324 forward $320 $-1 #
coedge $-1 $274 $372 $366 $373 reversed $320 $-1 #
loop $-1 $-1 $371 $374 #
vertex $-1 $275 $375 #
straight-curve $-1 -22.5 0 12.5 1 0 0 I I #
coedge $-1 $277 $276 $376 $377 forward $278 $-1 #
edge $-1 $279 -9.375 $378 0.625 $318 $379 forward 7 unknown #
face $-1 $380 $278 $36 $-1 $381 forward single #
point $-1 -40 0 12.5 #
coedge $-1 $382 $281 $383 $384 reversed $242 $-1 #
coedge $-1 $286 $385 $281 $329 forward $305 $-1 #
edge $-1 $386 -62.5 $288 -12.5 $328 $387 forward 7 unknown #
coedge $-1 $282 $388 $389 $390 forward $242 $-1 #
coedge $-1 $389 $376 $282 $332 reversed $391 $-1 #
edge $-1 $392 0 $333 1.570796326794896558 $331 $393 forward 7 unknown #
vertex $-1 $377 $394 #
straight-curve $-1 -40 25 3.125 0 0 1 I I #
plane-surface $-1 0 25 0 0 -1 0 0 0 -1 forward_v I I I I #
straight-curve $-1 -12.5 9.375 -12.5 0 -1 0 I I #
point $-1 -12.5 25 -12.5 #
coedge $-1 $291 $395 $396 $397 forward $56 $-1 #
coedge $-1 $398 $399 $291 $340 reversed $400 $-1 #
edge $-1 $401 -40 $344 -12.5 $291 $244 forward 7 unknown #
coedge $-1 $402 $292 $399 $403 reversed $343 $-1 #
coedge $-1 $292 $402 $294 $347 forward $343 $-1 #
loop $-1 $-1 $342 $404 #
vertex $-1 $340 $405 #
straight-curve $-1 12.5 9.375 12.5 0 -1 0 I I #
coedge $-1 $296 $294 $406 $407 reversed $253 $-1 #
edge $-1 $408 -12.5 $295 12.5 $294 $409 forward 7 unknown #
point $-1 12.5 15 12.5 #
coedge $-1 $406 $299 $296 $350 forward $305 $-1 #
edge $-1 $301 -3.141592653589793116 $410 0 $296 $411 forward 7 unknown #
face $-1 $404 $412 $36 $-1 $413 reversed single #
cone-surface $-1 12.5 12.5 0 0 0 1 2.5 0 0 1 I I 0 1 2.5 forward I I I I #
straight-curve $-1 0 12.5 -12.5 1 0 0 I I #
point $-1 10 12.5 -12.5 #
coedge $-1 $355 $355 $310 $357 forward $303 $-1 #
coedge $-1 $356 $356 $312 $359 forward $309 $-1 #
edge $-1 $414 -3.141592653589799777 $414 3.141592653589786455 $310 $415 forward 7 unknown #
coedge $-1 $358 $358 $416 $417 reversed $311 $-1 #
edge $-1 $418 0 $418 15.37562208415080001 $312 $419 forward 7 unknown #
loop $-1 $420 $313 $421 #
vertex $-1 $314 $422 #
intcurve-curve $-1 forward { exactcur full nurbs 3 periodic 33 
	0 3 0.4811440011018349727 2 0.9622880022036699454 2 1.443432003305499922 2 1.924576004407339891 2 
	2.404408383564930141 2 2.884240762722510176 2 3.364073141880099982 2 3.843905521037680018 2 4.323737900195269823 2 
	4.803570279352849859 2 5.283402658510439664 2 5.763235037668030358 2 6.244379038769870327 2 6.725523039871710296 2 
	7.206667040973560034 2 7.687811042075400003 2 8.168955043177239972 2 8.650099044279080829 2 9.131243045380930567 2 
	9.612387046482769648 2 10.09221942564029995 2 10.57205180479789952 2 11.05188418395550087 2 11.53171656311310045 2 
	12.01154894227070002 2 12.4913813214282996 2 12.9712137005857997 2 13.45104607974339928 2 13.93219008084530053 2 
	14.41333408194710053 2 14.89447808304900001 2 15.37562208415080001 3 
	2.5 -4.330127018922190096 -1.511855768138730075e-14 1 
	2.5 -4.330127018922190096 -0.1603813337006269879 1 
	2.484324272132630185 -4.339298601576789594 -0.3250483228181589856 1 
	2.419587660941989959 -4.375725652700899637 -0.6504760247244359972 1 
	2.370553414479069865 -4.40292020019967989 -0.8112488520610540155 1 
	2.242232321053410082 -4.469633420834360216 -1.118053549866719898 1 
	2.162843296140700033 -4.50911901986659025 -1.26438313276769998 1 
	1.980404217889990104 -4.592172099391079954 -1.534455918960480059 1 
	1.87732826164698996 -4.635661451169750258 -1.658205644285760005 1 
	1.658504313741030023 -4.718369129321829725 -1.877029592191719942 1 
	1.5349026132758401 -4.760658410769700311 -1.980062860243769984 1 
	1.264769252462200066 -4.839437288971780049 -2.162621950865470044 1 
	1.118229593645009956 -4.875866557168180293 -2.242161966026800179 1 
	0.810984990363109004 -4.936275466307150417 -2.37066049845748994 1 
	0.6499871261909649922 -4.960268245560039979 -2.419721681027919846 1 
	0.3244698334328690037 -4.992140188273480383 -2.484402464407330147 1 
	0.1599441263858789875 -5 -2.500000000000019984 1 
	-0.1599441263858439877 -5 -2.500000000000019984 1 
	-0.324469833432832977 -4.992140188273490153 -2.484402464407339917 1 
	-0.6499871261909300202 -4.960268245560039979 -2.419721681027919846 1 
	-0.8109849903630750312 -4.936275466307150417 -2.370660498457500154 1 
	-1.11822959364497998 -4.875866557168180293 -2.242161966026820163 1 
	-1.26476925246217009 -4.839437288971789819 -2.162621950865490028 1 
	-1.534902613275809902 -4.760658410769710081 -1.980062860243789968 1 
	-1.658504313741010039 -4.718369129321840383 -1.877029592191749918 1 
	-1.877328261646969976 -4.635661451169760028 -1.658205644285779989 1 
	-1.980404217889969898 -4.592172099391079954 -1.534455918960500043 1 
	-2.162843296140689819 -4.50911901986660002 -1.264383132767719964 1 
	-2.242232321053399868 -4.469633420834360216 -1.118053549866740104 1 
	-2.370553414479060095 -4.40292020019967989 -0.8112488520610670051 1 
	-2.419587660941989959 -4.375725652700899637 -0.6504760247244469884 1 
	-2.484324272132630185 -4.339298601576789594 -0.3250483228181639817 1 
	-2.5 -4.330127018922190096 -0.1603813337006300133 1 
	-2.5 -4.330127018922190096 0.1603813337005980111 1 
	-2.484324272132630185 -4.339298601576789594 0.3250483228181320072 1 
	-2.419587660941989959 -4.375725652700899637 0.6504760247244140148 1 
	-2.370553414479060095 -4.40292020019967989 0.8112488520610340315 1 
	-2.242232321053399868 -4.469633420834360216 1.118053549866699914 1 
	-2.162843296140689819 -4.50911901986660002 1.264383132767679996 1 
	-1.98040421788997989 -4.592172099391079954 1.534455918960470067 1 
	-1.877328261646979968 -4.635661451169760028 1.658205644285740021 1 
	-1.658504313741010039 -4.718369129321840383 1.87702959219170995 1 
	-1.534902613275819894 -4.760658410769710081 1.98006286024375 1 
	-1.264769252462180082 -4.839437288971789819 2.16262195086545006 1 
	-1.118229593644989972 -4.875866557168180293 2.242161966026780195 1 
	-0.8109849903630870216 -4.936275466307150417 2.370660498457460186 1 
	-0.649987126190944009 -4.960268245560039979 2.419721681027890092 1 
	-0.3244698334328490197 -4.992140188273490153 2.484402464407299949 1 
	-0.1599441263858610018 -5 2.499999999999980016 1 
	0.1599441263858610018 -5 2.499999999999980016 1 
	0.3244698334328500189 -4.992140188273490153 2.484402464407299949 1 
	0.649987126190944009 -4.960268245560039979 2.419721681027890092 1 
	0.8109849903630870216 -4.936275466307150417 2.370660498457460186 1 
	1.118229593644989972 -4.875866557168180293 2.242161966026780195 1 
	1.264769252462180082 -4.839437288971789819 2.16262195086545006 1 
	1.534902613275819894 -4.760658410769710081 1.98006286024375 1 
	1.658504313741010039 -4.718369129321840383 1.87702959219170995 1 
	1.877328261646979968 -4.635661451169760028 1.658205644285740021 1 
	1.98040421788997989 -4.592172099391079954 1.534455918960470067 1 
	2.162843296140689819 -4.50911901986660002 1.264383132767679996 1 
	2.242232321053399868 -4.469633420834360216 1.118053549866699914 1 
	2.370553414479060095 -4.40292020019967989 0.8112488520610340315 1 
	2.419587660941989959 -4.375725652700899637 0.6504760247244140148 1 
	2.484324272132630185 -4.339298601576789594 0.3250483228181330064 1 
	2.5 -4.330127018922190096 0.1603813337005990103 1 
	2.5 -4.330127018922190096 -1.511855768138730075e-14 1 
	0 
	null_surface 
	null_surface 
	nullbs 
	nullbs 
	I I 
	0 
	0 
	0 
	F 1 F 0 } I I #
coedge $-1 $423 $315 $424 $425 forward $56 $-1 #
coedge $-1 $426 $427 $315 $365 reversed $428 $-1 #
edge $-1 $369 -27.5 $429 -20 $315 $430 forward 7 unknown #
coedge $-1 $431 $316 $319 $373 forward $368 $-1 #
coedge $-1 $316 $431 $426 $432 reversed $368 $-1 #
loop $-1 $-1 $367 $433 #
vertex $-1 $317 $434 #
straight-curve $-1 -27.5 -6.25 12.5 0 -1 0 I I #
coedge $-1 $435 $318 $436 $437 forward $320 $-1 #
coedge $-1 $319 $438 $439 $440 reversed $320 $-1 #
edge $-1 $321 -12.5 $441 12.5 $319 $442 forward 7 unknown #
face $-1 $443 $320 $36 $-1 $444 forward single #
point $-1 -27.5 0 12.5 #
coedge $-1 $331 $436 $323 $377 reversed $391 $-1 #
edge $-1 $333 -25.00000000000000711 $378 -8.475965199624620172e-15 $376 $445 forward 7 unknown #
vertex $-1 $377 $446 #
straight-curve $-1 -40 0 3.125 0 0 -1 I I #
face $-1 $447 $448 $36 $-1 $47 forward single #
plane-surface $-1 -40 12.5 6.25 -1 0 0 0 -0 1 forward_v I I I I #
coedge $-1 $449 $327 $450 $451 reversed $242 $-1 #
coedge $-1 $452 $453 $327 $384 forward $454 $-1 #
edge $-1 $455 -12.5 $386 12.5 $327 $456 forward 7 unknown #
coedge $-1 $328 $439 $452 $457 forward $305 $-1 #
vertex $-1 $457 $458 #
straight-curve $-1 0 25 -12.5 1 0 0 I I #
coedge $-1 $330 $459 $460 $461 forward $242 $-1 #
coedge $-1 $462 $331 $330 $390 reversed $391 $-1 #
edge $-1 $463 -3.141592653589758477 $392 0 $389 $393 forward 7 unknown #
loop $-1 $-1 $376 $464 #
vertex $-1 $332 $465 #
ellipse-curve $-1 -40 25 8.728703347107829602e-14 0 -1 0 2.5 0 0 1 I I #
point $-1 -40 25 2.50000000000009015 #
coedge $-1 $338 $466 $467 $468 forward $56 $-1 #
coedge $-1 $469 $470 $338 $397 reversed $471 $-1 #
edge $-1 $472 -6.25 $401 18.75 $338 $473 forward 7 unknown #
coedge $-1 $474 $339 $470 $475 forward $400 $-1 #
coedge $-1 $339 $476 $341 $403 forward $400 $-1 #
loop $-1 $-1 $474 $477 #
vertex $-1 $397 $478 #
coedge $-1 $342 $341 $479 $480 reversed $343 $-1 #
edge $-1 $481 -12.5 $344 12.5 $341 $482 forward 7 unknown #
face $-1 $421 $343 $36 $-1 $483 forward single #
point $-1 12.5 25 12.5 #
coedge $-1 $479 $349 $346 $407 forward $305 $-1 #
edge $-1 $410 0 $408 1.570796326794896558 $346 $411 forward 7 unknown #
vertex $-1 $347 $484 #
straight-curve $-1 12.5 15 0 0 0 1 I I #
vertex $-1 $407 $485 #
ellipse-curve $-1 12.5 12.5 -12.5 0 0 1 2.5 0 0 1 I I #
loop $-1 $305 $416 $351 #
plane-surface $-1 0 0 -12.5 0 0 1 1 0 0 forward_v I I I I #
vertex $-1 $357 $486 #
ellipse-curve $-1 0 12.5 4.36435167355391985e-14 0 -1 0 2.5 0 0 1 I I #
coedge $-1 $416 $416 $358 $417 forward $412 $-1 #
edge $-1 $487 0 $487 6.283185307179586232 $358 $488 forward 7 unknown #
vertex $-1 $359 $489 #
intcurve-curve $-1 forward { exactcur full nurbs 3 periodic 33 
	0 3 0.4811440011018420226 2 0.9622880022036840453 2 1.443432003305529898 2 1.924576004407370089 2 
	2.404408383564950125 2 2.88424076272253016 2 3.364073141880119966 2 3.843905521037700002 2 4.323737900195279593 2 
	4.803570279352870287 2 5.283402658510450323 2 5.763235037668040128 2 6.244379038769880097 2 6.725523039871720066 2 
	7.206667040973560034 2 7.687811042075400003 2 8.16895504317725063 2 8.650099044279089711 2 9.131243045380930567 2 
	9.612387046482780306 2 10.09221942564039942 2 10.57205180479789952 2 11.05188418395550087 2 11.53171656311310045 2 
	12.01154894227070002 2 12.4913813214282996 2 12.97121370058589918 2 13.45104607974350053 2 13.93219008084530053 2 
	14.41333408194710053 2 14.89447808304900001 2 15.37562208415080001 3 
	2.5 4.330127018922190096 1.511855768138730075e-14 1 
	2.5 4.330127018922190096 0.1603813337006289863 1 
	2.484324272132630185 4.339298601576789594 0.3250483228181629825 1 
	2.419587660941989959 4.375725652700899637 0.65047602472444499 1 
	2.370553414479060095 4.40292020019967989 0.8112488520610640075 1 
	2.242232321053399868 4.469633420834360216 1.11805354986672989 1 
	2.162843296140689819 4.50911901986660002 1.264383132767709972 1 
	1.98040421788997989 4.592172099391079954 1.534455918960500043 1 
	1.877328261646979968 4.635661451169760028 1.658205644285779989 1 
	1.658504313741010039 4.718369129321840383 1.877029592191739926 1 
	1.534902613275819894 4.760658410769710081 1.980062860243779976 1 
	1.264769252462180082 4.839437288971789819 2.162621950865479814 1 
	1.118229593644989972 4.875866557168180293 2.242161966026809949 1 
	0.8109849903630880208 4.936275466307150417 2.37066049845748994 1 
	0.6499871261909450082 4.960268245560039979 2.419721681027919846 1 
	0.3244698334328500189 4.992140188273490153 2.484402464407339917 1 
	0.1599441263858610018 5 2.500000000000019984 1 
	-0.1599441263858610018 5 2.500000000000019984 1 
	-0.3244698334328490197 4.992140188273490153 2.484402464407339917 1 
	-0.649987126190944009 4.960268245560039979 2.419721681027919846 1 
	-0.8109849903630880208 4.936275466307150417 2.37066049845748994 1 
	-1.118229593644989972 4.875866557168180293 2.242161966026809949 1 
	-1.264769252462180082 4.839437288971789819 2.162621950865479814 1 
	-1.534902613275819894 4.760658410769710081 1.980062860243779976 1 
	-1.658504313741010039 4.718369129321840383 1.877029592191739926 1 
	-1.877328261646979968 4.635661451169760028 1.658205644285779989 1 
	-1.98040421788997989 4.592172099391079954 1.534455918960500043 1 
	-2.162843296140689819 4.50911901986660002 1.264383132767709972 1 
	-2.242232321053399868 4.469633420834360216 1.11805354986672989 1 
	-2.370553414479060095 4.40292020019967989 0.8112488520610640075 1 
	-2.419587660941989959 4.375725652700899637 0.65047602472444499 1 
	-2.484324272132630185 4.339298601576789594 0.3250483228181629825 1 
	-2.5 4.330127018922190096 0.1603813337006289863 1 
	-2.5 4.330127018922190096 -0.1603813337005990103 1 
	-2.484324272132630185 4.339298601576789594 -0.3250483228181340056 1 
	-2.419587660941989959 4.375725652700899637 -0.6504760247244160132 1 
	-2.370553414479060095 4.40292020019967989 -0.8112488520610360299 1 
	-2.242232321053399868 4.469633420834360216 -1.118053549866709906 1 
	-2.162843296140689819 4.50911901986660002 -1.264383132767689988 1 
	-1.980404217889969898 4.592172099391079954 -1.534455918960470067 1 
	-1.877328261646969976 4.635661451169760028 -1.658205644285750013 1 
	-1.658504313741010039 4.718369129321840383 -1.87702959219170995 1 
	-1.534902613275809902 4.760658410769710081 -1.980062860243759992 1 
	-1.26476925246217009 4.839437288971789819 -2.16262195086545006 1 
	-1.11822959364497998 4.875866557168180293 -2.242161966026780195 1 
	-0.8109849903630750312 4.936275466307150417 -2.370660498457460186 1 
	-0.6499871261909300202 4.960268245560039979 -2.419721681027890092 1 
	-0.324469833432832977 4.992140188273490153 -2.484402464407299949 1 
	-0.1599441263858449869 5 -2.499999999999980016 1 
	0.1599441263858789875 5 -2.499999999999980016 1 
	0.3244698334328680045 4.992140188273490153 -2.484402464407299949 1 
	0.649987126190963993 4.960268245560039979 -2.419721681027879878 1 
	0.8109849903631080048 4.936275466307150417 -2.370660498457449972 1 
	1.118229593645009956 4.875866557168180293 -2.242161966026769981 1 
	1.264769252462200066 4.839437288971780049 -2.162621950865430076 1 
	1.5349026132758401 4.760658410769700311 -1.980062860243730016 1 
	1.658504313741030023 4.718369129321829725 -1.877029592191689966 1 
	1.87732826164698996 4.635661451169750258 -1.658205644285730029 1 
	1.980404217889990104 4.592172099391079954 -1.534455918960450083 1 
	2.162843296140700033 4.50911901986659025 -1.264383132767670004 1 
	2.242232321053410082 4.469633420834360216 -1.118053549866689922 1 
	2.370553414479069865 4.40292020019967989 -0.8112488520610230402 1 
	2.419587660941989959 4.375725652700899637 -0.6504760247244040228 1 
	2.484324272132630185 4.339298601576789594 -0.3250483228181280104 1 
	2.5 4.330127018922190096 -0.1603813337005960127 1 
	2.5 4.330127018922190096 1.511855768138730075e-14 1 
	0 
	null_surface 
	null_surface 
	nullbs 
	nullbs 
	I I 
	0 
	0 
	0 
	F 1 F 0 } I I #
loop $-1 $-1 $490 $421 #
face $-1 $464 $360 $36 $-1 $270 reversed single #
point $-1 2.5 -4.330127018922190096 -1.511855768138730075e-14 #
coedge $-1 $491 $363 $492 $493 forward $56 $-1 #
coedge $-1 $494 $495 $363 $425 reversed $496 $-1 #
edge $-1 $429 -15.625 $497 -3.125 $363 $498 forward 7 unknown #
coedge $-1 $499 $364 $367 $432 forward $428 $-1 #
coedge $-1 $364 $500 $494 $501 forward $428 $-1 #
loop $-1 $-1 $427 $502 #
vertex $-1 $365 $503 #
straight-curve $-1 0 -25 12.5 1 0 0 I I #
coedge $-1 $367 $366 $504 $505 reversed $368 $-1 #
edge $-1 $369 -12.5 $506 12.5 $367 $507 forward 7 unknown #
face $-1 $508 $368 $36 $-1 $509 forward single #
point $-1 -27.5 -25 12.5 #
coedge $-1 $510 $371 $511 $512 forward $320 $-1 #
coedge $-1 $376 $462 $371 $437 reversed $391 $-1 #
edge $-1 $378 -1.570796326794896558 $513 3.141592653589793116 $436 $514 forward 7 unknown #
coedge $-1 $372 $515 $516 $517 reversed $320 $-1 #
coedge $-1 $385 $504 $372 $440 forward $305 $-1 #
edge $-1 $441 5 $518 40 $439 $519 forward 7 unknown #
vertex $-1 $505 $520 #
straight-curve $-1 -27.5 0 0 0 0 -1 I I #
face $-1 $521 $522 $36 $-1 $523 forward single #
plane-surface $-1 -45 0 0 0 -1 0 0 0 -1 forward_v I I I I #
straight-curve $-1 -40 -8.475965199624620172e-15 2.5 0 -1 -3.491481338843129805e-15 I I #
point $-1 -40 0 2.5 #
face $-1 $524 $525 $36 $-1 $526 forward single #
loop $-1 $-1 $527 $380 #
coedge $-1 $459 $382 $528 $529 forward $242 $-1 #
coedge $-1 $530 $527 $382 $451 forward $448 $-1 #
edge $-1 $531 55 $455 62.5 $382 $244 forward 7 unknown #
coedge $-1 $516 $383 $385 $457 reversed $454 $-1 #
coedge $-1 $383 $516 $530 $532 reversed $454 $-1 #
loop $-1 $-1 $516 $533 #
vertex $-1 $384 $534 #
straight-curve $-1 -62.5 25 0 0 0 -1 I I #
edge $-1 $518 0 $386 25 $385 $535 forward 7 unknown #
point $-1 -62.5 25 -12.5 #
coedge $-1 $388 $449 $536 $537 forward $242 $-1 #
coedge $-1 $538 $539 $388 $461 reversed $522 $-1 #
edge $-1 $540 -28.75 $463 -18.75 $460 $541 forward 7 unknown #
coedge $-1 $436 $389 $539 $542 reversed $391 $-1 #
vertex $-1 $390 $543 #
face $-1 $374 $391 $36 $-1 $544 reversed single #
point $-1 -37.5 25 8.728703347107829602e-14 #
coedge $-1 $395 $545 $546 $547 forward $56 $-1 #
coedge $-1 $548 $549 $395 $468 reversed $550 $-1 #
edge $-1 $551 5 $472 17.5 $395 $552 forward 7 unknown #
coedge $-1 $553 $396 $549 $554 reversed $471 $-1 #
coedge $-1 $396 $553 $398 $475 reversed $471 $-1 #
loop $-1 $-1 $553 $555 #
vertex $-1 $468 $556 #
straight-curve $-1 40 6.25 12.5 0 1 0 I I #
coedge $-1 $557 $398 $558 $559 forward $400 $-1 #
edge $-1 $401 -9.375 $560 0.6249999999999098499 $470 $561 forward 7 unknown #
coedge $-1 $399 $562 $563 $564 reversed $400 $-1 #
face $-1 $565 $400 $36 $-1 $335 reversed single #
point $-1 40 25 12.5 #
coedge $-1 $563 $406 $402 $480 forward $305 $-1 #
edge $-1 $408 5.625 $481 15.625 $479 $566 forward 7 unknown #
vertex $-1 $480 $567 #
straight-curve $-1 12.5 25 0 0 0 1 I I #
plane-surface $-1 12.5 18.75 0 -1 0 0 0 -0 1 forward_v I I I I #
point $-1 12.5 15 -12.5 #
point $-1 15 12.5 -12.5 #
point $-1 -2.5 12.5 6.110092342975480216e-14 #
vertex $-1 $417 $568 #
ellipse-curve $-1 0 0 -12.5 0 0 1 5 0 0 1 I I #
point $-1 2.5 4.330127018922190096 1.511855768138730075e-14 #
coedge $-1 $490 $490 $569 $570 reversed $420 $-1 #
coedge $-1 $545 $423 $571 $572 forward $56 $-1 #
coedge $-1 $573 $574 $423 $493 reversed $575 $-1 #
edge $-1 $497 -20 $576 20 $423 $577 forward 7 unknown #
coedge $-1 $578 $424 $427 $501 reversed $496 $-1 #
coedge $-1 $424 $578 $573 $579 reversed $496 $-1 #
loop $-1 $-1 $578 $580 #
vertex $-1 $425 $581 #
straight-curve $-1 -20 -9.375 12.5 0 1 0 I I #
coedge $-1 $582 $426 $583 $584 reversed $428 $-1 #
coedge $-1 $427 $585 $586 $587 forward $428 $-1 #
edge $-1 $588 -1.875 $429 10.625 $494 $589 forward 7 unknown #
face $-1 $590 $428 $36 $-1 $591 reversed single #
point $-1 -20 -25 12.5 #
coedge $-1 $439 $583 $431 $505 forward $305 $-1 #
edge $-1 $506 -18.75 $441 6.25 $504 $592 forward 7 unknown #
vertex $-1 $584 $593 #
straight-curve $-1 -27.5 -25 0 0 0 -1 I I #
face $-1 $502 $594 $36 $-1 $47 forward single #
plane-surface $-1 -27.5 -12.5 0 -1 0 0 0 -0 1 forward_v I I I I #
coedge $-1 $595 $435 $596 $597 forward $320 $-1 #
coedge $-1 $539 $538 $435 $512 reversed $522 $-1 #
edge $-1 $513 -3.75 $598 6.25 $435 $599 forward 7 unknown #
vertex $-1 $542 $600 #
ellipse-curve $-1 -40 0 0 0 1 0 2.5 0 0 1 I I #
coedge $-1 $438 $595 $601 $602 reversed $320 $-1 #
coedge $-1 $453 $452 $438 $517 forward $454 $-1 #
edge $-1 $518 -12.5 $603 12.5 $438 $604 forward 7 unknown #
vertex $-1 $440 $605 #
straight-curve $-1 -22.5 0 -12.5 -1 0 0 I I #
point $-1 -27.5 0 -12.5 #
face $-1 $555 $606 $36 $-1 $607 reversed single #
loop $-1 $-1 $539 $443 #
plane-surface $-1 -47.5 12.5 0 0 0 1 1 0 0 forward_v I I I I #
face $-1 $608 $609 $36 $-1 $610 forward single #
loop $-1 $-1 $611 $447 #
plane-surface $-1 47.5 12.5 0 0 0 1 1 0 0 forward_v I I I I #
coedge $-1 $450 $601 $612 $613 forward $448 $-1 #
coedge $-1 $612 $614 $449 $529 reversed $615 $-1 #
edge $-1 $531 -9.375 $616 0.6249999999999098499 $528 $617 forward 7 unknown #
coedge $-1 $601 $450 $453 $532 forward $448 $-1 #
vertex $-1 $529 $618 #
edge $-1 $455 -25 $603 0 $530 $619 forward 7 unknown #
face $-1 $-1 $454 $36 $-1 $620 reversed single #
point $-1 -62.5 25 12.5 #
straight-curve $-1 -62.5 0 -12.5 0 1 0 I I #
coedge $-1 $621 $622 $459 $537 reversed $623 $-1 #
edge $-1 $616 1.570796326794896558 $540 6.283185307179586232 $536 $624 forward 7 unknown #
coedge $-1 $511 $460 $622 $625 forward $522 $-1 #
coedge $-1 $460 $511 $462 $542 forward $522 $-1 #
vertex $-1 $461 $626 #
straight-curve $-1 -23.75 25 0 1 0 0 I I #
edge $-1 $513 7.619026212181150377e-29 $463 25 $462 $627 forward 7 unknown #
point $-1 -42.5 25 0 #
cone-surface $-1 -40 0 0 0 -1 -3.491481338843129805e-15 2.5 0 0 1 I I 0 1 2.5 forward I I I I #
coedge $-1 $466 $491 $628 $629 forward $56 $-1 #
coedge $-1 $630 $631 $466 $547 reversed $632 $-1 #
edge $-1 $633 -18.75 $551 6.25 $466 $634 forward 7 unknown #
coedge $-1 $635 $467 $631 $636 forward $550 $-1 #
coedge $-1 $467 $637 $469 $554 forward $550 $-1 #
loop $-1 $-1 $637 $608 #
vertex $-1 $547 $638 #
straight-curve $-1 22.5 0 12.5 1 0 0 I I #
coedge $-1 $470 $469 $639 $640 forward $471 $-1 #
edge $-1 $641 -0.625 $472 9.375 $469 $642 forward 7 unknown #
face $-1 $643 $471 $36 $-1 $644 forward single #
point $-1 40 0 12.5 #
coedge $-1 $645 $474 $646 $647 forward $400 $-1 #
coedge $-1 $639 $648 $474 $559 reversed $606 $-1 #
edge $-1 $560 1.570796326794896558 $649 6.283185307179586232 $558 $650 forward 7 unknown #
vertex $-1 $559 $651 #
straight-curve $-1 40 25 3.125 0 0 -1 I I #
coedge $-1 $476 $652 $653 $654 forward $400 $-1 #
coedge $-1 $655 $479 $476 $564 forward $305 $-1 #
edge $-1 $481 12.5 $656 62.5 $563 $387 forward 7 unknown #
face $-1 $657 $658 $36 $-1 $659 reversed single #
straight-curve $-1 12.5 9.375 -12.5 0 1 0 I I #
point $-1 12.5 25 -12.5 #
point $-1 5 0 -12.5 #
coedge $-1 $569 $569 $490 $570 forward $660 $-1 #
edge $-1 $661 -3.141592653589799777 $661 3.141592653589786455 $490 $662 forward 7 unknown #
coedge $-1 $663 $664 $491 $572 reversed $665 $-1 #
edge $-1 $576 3.125 $666 15.625 $491 $667 forward 7 unknown #
coedge $-1 $668 $492 $495 $579 forward $575 $-1 #
coedge $-1 $492 $669 $663 $670 reversed $575 $-1 #
loop $-1 $-1 $668 $657 #
vertex $-1 $493 $671 #
straight-curve $-1 0 -12.5 12.5 1 0 0 I I #
coedge $-1 $495 $494 $672 $673 reversed $496 $-1 #
edge $-1 $497 -8.75 $674 3.75 $573 $675 forward 7 unknown #
face $-1 $247 $496 $36 $-1 $676 forward single #
point $-1 -20 -12.5 12.5 #
coedge $-1 $628 $499 $630 $677 forward $428 $-1 #
coedge $-1 $504 $678 $499 $584 forward $305 $-1 #
edge $-1 $679 -27.5 $506 27.5 $583 $680 forward 7 unknown #
coedge $-1 $500 $681 $682 $683 forward $428 $-1 #
coedge $-1 $684 $672 $500 $587 reversed $658 $-1 #
edge $-1 $685 -0.785398163397448279 $588 0.785398163397448279 $586 $686 forward 7 unknown #
vertex $-1 $673 $687 #
straight-curve $-1 -20 -25 1.875 0 0 1 I I #
face $-1 $688 $632 $36 $-1 $689 forward single #
plane-surface $-1 0 -25 0 0 1 0 0 0 1 forward_v I I I I #
straight-curve $-1 -27.5 -6.25 -12.5 0 1 0 I I #
point $-1 -27.5 -25 -12.5 #
loop $-1 $-1 $690 $508 #
coedge $-1 $515 $510 $691 $692 forward $320 $-1 #
coedge $-1 $622 $621 $510 $597 reversed $623 $-1 #
edge $-1 $598 0 $693 4.712388980384689674 $510 $694 forward 7 unknown #
vertex $-1 $512 $695 #
straight-curve $-1 -46.25 0 0 -1 0 0 I I #
point $-1 -42.5 0 0 #
coedge $-1 $527 $530 $515 $602 forward $448 $-1 #
edge $-1 $603 -40 $696 -32.5 $515 $322 forward 7 unknown #
vertex $-1 $602 $697 #
straight-curve $-1 -62.5 0 0 0 0 1 I I #
point $-1 -62.5 0 -12.5 #
loop $-1 $-1 $648 $521 #
cone-surface $-1 40 0 0 0 -1 -3.491481338843129805e-15 2.5 0 0 1 I I 0 1 2.5 forward I I I I #
face $-1 $433 $550 $36 $-1 $698 forward single #
loop $-1 $-1 $699 $524 #
plane-surface $-1 55 12.5 6.25 -1 0 0 0 -0 1 forward_v I I I I #
coedge $-1 $700 $646 $648 $701 forward $525 $-1 #
coedge $-1 $691 $528 $527 $613 reversed $615 $-1 #
edge $-1 $696 -6.25 $531 18.75 $612 $702 forward 7 unknown #
coedge $-1 $528 $691 $621 $703 forward $615 $-1 #
loop $-1 $-1 $614 $704 #
vertex $-1 $537 $705 #
straight-curve $-1 -55 25 3.125 0 0 -1 I I #
point $-1 -55 25 12.5 #
straight-curve $-1 -62.5 0 12.5 0 -1 0 I I #
plane-surface $-1 -62.5 0 0 1 0 0 0 0 -1 forward_v I I I I #
coedge $-1 $596 $536 $614 $703 reversed $623 $-1 #
coedge $-1 $536 $596 $538 $625 reversed $623 $-1 #
loop $-1 $-1 $622 $643 #
ellipse-curve $-1 -55 25 8.728703347107829602e-14 0 -1 0 2.5 0 0 1 I I #
edge $-1 $540 -25 $598 -7.619026212181150377e-29 $538 $706 forward 7 unknown #
point $-1 -52.5 25 8.728703347107829602e-14 #
straight-curve $-1 -42.5 -7.619026212181150377e-29 0 0 1 3.491481338843129805e-15 I I #
coedge $-1 $707 $582 $545 $629 reversed $428 $-1 #
edge $-1 $666 20 $633 27.5 $545 $430 forward 7 unknown #
coedge $-1 $708 $546 $582 $677 reversed $632 $-1 #
coedge $-1 $546 $708 $548 $636 reversed $632 $-1 #
loop $-1 $-1 $631 $590 #
vertex $-1 $629 $709 #
straight-curve $-1 27.5 -6.25 12.5 0 1 0 I I #
coedge $-1 $710 $548 $711 $712 reversed $550 $-1 #
edge $-1 $551 -12.5 $713 12.5 $548 $714 forward 7 unknown #
coedge $-1 $549 $715 $716 $717 forward $550 $-1 #
point $-1 27.5 0 12.5 #
coedge $-1 $716 $558 $553 $640 reversed $606 $-1 #
edge $-1 $641 8.475965199624620172e-15 $560 25.00000000000000711 $639 $718 forward 7 unknown #
vertex $-1 $640 $719 #
straight-curve $-1 40 0 3.125 0 0 1 I I #
face $-1 $704 $623 $36 $-1 $720 reversed single #
plane-surface $-1 40 12.5 6.25 1 0 0 0 0 -1 forward_v I I I I #
coedge $-1 $721 $557 $722 $723 forward $400 $-1 #
coedge $-1 $611 $724 $557 $647 reversed $525 $-1 #
edge $-1 $649 18.75 $725 28.75 $557 $726 forward 7 unknown #
coedge $-1 $558 $716 $611 $701 reversed $606 $-1 #
vertex $-1 $701 $727 #
ellipse-curve $-1 40 25 8.728703347107829602e-14 0 -1 0 2.5 0 0 1 I I #
point $-1 40 25 2.50000000000009015 #
coedge $-1 $562 $728 $729 $730 reversed $400 $-1 #
coedge $-1 $731 $732 $562 $654 reversed $733 $-1 #
edge $-1 $734 -12.5 $656 12.5 $562 $735 forward 7 unknown #
coedge $-1 $711 $563 $732 $736 forward $305 $-1 #
vertex $-1 $564 $737 #
face $-1 $738 $660 $36 $-1 $739 forward single #
loop $-1 $-1 $672 $565 #
cone-surface $-1 -15 -18.75 0 0 1 0 -3.535533905932737309 0 -3.535533905932737309 1 I I 0 1 5 forward I I I I #
loop $-1 $575 $569 $657 #
vertex $-1 $570 $740 #
ellipse-curve $-1 0 -12.5 -4.364351673553909752e-14 0 1 0 2.5 0 0 1 I I #
coedge $-1 $741 $571 $574 $670 forward $665 $-1 #
coedge $-1 $571 $741 $707 $742 reversed $665 $-1 #
loop $-1 $-1 $741 $743 #
vertex $-1 $572 $744 #
straight-curve $-1 20 -9.375 12.5 0 -1 0 I I #
coedge $-1 $745 $573 $746 $747 forward $575 $-1 #
coedge $-1 $574 $745 $748 $749 forward $575 $-1 #
edge $-1 $576 -8.75 $750 3.75 $574 $751 forward 7 unknown #
point $-1 20 -12.5 12.5 #
coedge $-1 $586 $746 $578 $673 forward $658 $-1 #
edge $-1 $674 -6.25 $588 6.25 $672 $752 forward 7 unknown #
vertex $-1 $673 $753 #
straight-curve $-1 -20 -12.5 3.75 0 0 -1 I I #
plane-surface $-1 -20 -18.75 3.75 1 0 0 0 0 -1 forward_v I I I I #
edge $-1 $679 -12.5 $633 12.5 $582 $754 forward 7 unknown #
coedge $-1 $583 $711 $708 $755 forward $305 $-1 #
vertex $-1 $755 $756 #
straight-curve $-1 0 -25 -12.5 -1 0 0 I I #
coedge $-1 $585 $707 $757 $758 forward $428 $-1 #
coedge $-1 $759 $760 $585 $683 reversed $761 $-1 #
edge $-1 $762 -15 $685 15 $682 $763 forward 7 unknown #
coedge $-1 $746 $586 $760 $764 forward $658 $-1 #
vertex $-1 $587 $765 #
ellipse-curve $-1 -15 -25 0 0 1 0 -3.535533905932737753 0 -3.535533905932737753 1 I I #
point $-1 -20 -25 0 #
face $-1 $533 $733 $36 $-1 $766 reversed single #
plane-surface $-1 27.5 -12.5 0 1 0 0 0 0 -1 forward_v I I I I #
coedge $-1 $767 $729 $768 $769 forward $594 $-1 #
coedge $-1 $614 $612 $595 $692 reversed $615 $-1 #
edge $-1 $693 -0.625 $696 9.375 $595 $770 forward 7 unknown #
vertex $-1 $597 $771 #
ellipse-curve $-1 -55 0 0 0 1 0 2.5 0 0 1 I I #
point $-1 -52.5 0 0 #
vertex $-1 $692 $772 #
point $-1 -62.5 0 12.5 #
plane-surface $-1 45 0 0 0 -1 0 0 0 -1 forward_v I I I I #
coedge $-1 $773 $774 $775 $776 forward $609 $-1 #
coedge $-1 $724 $611 $715 $777 reversed $525 $-1 #
edge $-1 $649 -25 $778 -7.619026212181150377e-29 $648 $779 forward 7 unknown #
straight-curve $-1 -55 6.25 12.5 0 1 0 I I #
edge $-1 $693 8.475965199624620172e-15 $616 25.00000000000000711 $621 $780 forward 7 unknown #
face $-1 $781 $615 $36 $-1 $782 forward single #
point $-1 -55 25 2.50000000000009015 #
straight-curve $-1 -52.5 -7.619026212181150377e-29 0 0 -1 -3.491481338843129805e-15 I I #
coedge $-1 $681 $628 $664 $742 forward $428 $-1 #
coedge $-1 $631 $630 $678 $755 reversed $632 $-1 #
point $-1 27.5 -25 12.5 #
coedge $-1 $783 $635 $784 $785 reversed $550 $-1 #
coedge $-1 $678 $655 $635 $712 forward $305 $-1 #
edge $-1 $786 -40 $713 -5 $711 $787 forward 7 unknown #
vertex $-1 $712 $788 #
straight-curve $-1 27.5 0 0 0 0 -1 I I #
coedge $-1 $637 $789 $700 $777 forward $550 $-1 #
coedge $-1 $648 $639 $637 $717 reversed $606 $-1 #
edge $-1 $778 0 $641 4.712388980384689674 $716 $790 forward 7 unknown #
straight-curve $-1 40 -8.475965199624620172e-15 2.5 0 1 3.491481338843129805e-15 I I #
point $-1 40 0 2.5 #
cone-surface $-1 -55 0 0 0 -1 -3.491481338843129805e-15 2.5 0 0 1 I I 0 1 2.5 forward I I I I #
coedge $-1 $728 $645 $791 $792 forward $400 $-1 #
coedge $-1 $793 $791 $645 $723 reversed $794 $-1 #
edge $-1 $725 -3.141592653589758477 $795 0 $722 $796 forward 7 unknown #
coedge $-1 $646 $700 $793 $797 forward $525 $-1 #
vertex $-1 $797 $798 #
straight-curve $-1 23.75 25 0 1 0 0 I I #
point $-1 42.5 25 8.728703347107829602e-14 #
coedge $-1 $652 $721 $774 $799 forward $400 $-1 #
coedge $-1 $690 $800 $652 $730 forward $594 $-1 #
edge $-1 $734 -62.5 $801 -55 $652 $244 forward 7 unknown #
coedge $-1 $784 $653 $800 $802 reversed $733 $-1 #
coedge $-1 $653 $784 $655 $736 reversed $733 $-1 #
loop $-1 $-1 $784 $688 #
vertex $-1 $730 $803 #
straight-curve $-1 62.5 25 0 0 0 -1 I I #
edge $-1 $656 -25 $786 0 $655 $804 forward 7 unknown #
point $-1 62.5 25 -12.5 #
face $-1 $805 $761 $36 $-1 $806 forward single #
plane-surface $-1 0 -12.5 3.75 0 -1 0 0 0 -1 forward_v I I I I #
point $-1 -2.5 -12.5 -6.110092342975480216e-14 #
coedge $-1 $664 $663 $807 $808 reversed $665 $-1 #
edge $-1 $666 -10.625 $809 1.875 $664 $810 forward 7 unknown #
face $-1 $580 $665 $36 $-1 $811 forward single #
point $-1 20 -25 12.5 #
coedge $-1 $669 $668 $812 $813 forward $575 $-1 #
coedge $-1 $672 $684 $668 $747 reversed $658 $-1 #
edge $-1 $674 -0.785398163397448279 $814 0.785398163397448279 $746 $815 forward 7 unknown #
coedge $-1 $816 $807 $669 $749 reversed $817 $-1 #
edge $-1 $818 -0.785398163397448279 $750 0.785398163397448279 $669 $819 forward 7 unknown #
vertex $-1 $749 $820 #
straight-curve $-1 20 -12.5 3.75 0 0 -1 I I #
straight-curve $-1 -20 -18.75 0 0 -1 0 I I #
point $-1 -20 -12.5 0 #
straight-curve $-1 27.5 -25 0 0 0 1 I I #
edge $-1 $713 -6.25 $679 18.75 $678 $821 forward 7 unknown #
point $-1 27.5 -25 -12.5 #
coedge $-1 $807 $816 $681 $758 reversed $817 $-1 #
edge $-1 $809 -0.785398163397448279 $762 0.785398163397448279 $757 $822 forward 7 unknown #
coedge $-1 $812 $682 $816 $823 reversed $761 $-1 #
coedge $-1 $682 $812 $684 $764 reversed $761 $-1 #
loop $-1 $-1 $760 $738 #
vertex $-1 $683 $824 #
straight-curve $-1 0 -25 -5 -1 0 0 I I #
edge $-1 $685 -6.25 $814 6.25 $684 $825 forward 7 unknown #
point $-1 -15 -25 -5 #
plane-surface $-1 62.5 0 0 -1 0 0 0 -0 1 forward_v I I I I #
coedge $-1 $800 $690 $783 $826 forward $594 $-1 #
coedge $-1 $774 $773 $690 $769 reversed $609 $-1 #
edge $-1 $801 -18.75 $827 6.25 $768 $828 forward 7 unknown #
straight-curve $-1 -55 0 3.125 0 0 1 I I #
point $-1 -55 0 2.5 #
point $-1 -55 0 12.5 #
coedge $-1 $768 $699 $829 $830 reversed $609 $-1 #
coedge $-1 $699 $768 $728 $799 reversed $609 $-1 #
coedge $-1 $791 $831 $699 $776 reversed $794 $-1 #
edge $-1 $832 -25.00000000000000711 $833 -8.475965199624620172e-15 $775 $834 forward 7 unknown #
edge $-1 $835 -6.25 $778 3.75 $700 $836 forward 7 unknown #
vertex $-1 $701 $837 #
straight-curve $-1 42.5 -7.619026212181150377e-29 0 0 -1 -3.491481338843129805e-15 I I #
straight-curve $-1 -55 -8.475965199624620172e-15 2.5 0 1 3.491481338843129805e-15 I I #
face $-1 $477 $794 $36 $-1 $838 reversed single #
plane-surface $-1 -55 12.5 6.25 1 0 0 0 0 -1 forward_v I I I I #
coedge $-1 $829 $710 $767 $826 reversed $550 $-1 #
coedge $-1 $732 $731 $710 $785 forward $733 $-1 #
edge $-1 $839 -12.5 $786 12.5 $710 $840 forward 7 unknown #
vertex $-1 $736 $841 #
straight-curve $-1 22.5 0 -12.5 -1 0 0 I I #
point $-1 27.5 0 -12.5 #
coedge $-1 $715 $829 $831 $842 forward $550 $-1 #
ellipse-curve $-1 40 0 0 0 1 0 2.5 0 0 1 I I #
coedge $-1 $722 $775 $721 $792 reversed $794 $-1 #
edge $-1 $795 0 $832 1.570796326794896558 $791 $796 forward 7 unknown #
coedge $-1 $831 $722 $724 $797 reversed $794 $-1 #
loop $-1 $-1 $793 $781 #
vertex $-1 $792 $843 #
ellipse-curve $-1 55 25 8.728703347107829602e-14 0 -1 0 2.5 0 0 1 I I #
edge $-1 $835 7.619026212181150377e-29 $725 25 $793 $844 forward 7 unknown #
point $-1 52.5 25 0 #
edge $-1 $832 -0.6249999999999098499 $801 9.375 $728 $845 forward 7 unknown #
coedge $-1 $729 $767 $731 $802 forward $594 $-1 #
vertex $-1 $799 $846 #
edge $-1 $839 0 $734 25 $800 $847 forward 7 unknown #
point $-1 62.5 25 12.5 #
straight-curve $-1 62.5 0 -12.5 0 -1 0 I I #
face $-1 $743 $817 $36 $-1 $848 reversed single #
plane-surface $-1 0 -18.75 -5 0 0 1 1 0 0 forward_v I I I I #
coedge $-1 $748 $757 $741 $808 forward $817 $-1 #
edge $-1 $809 -6.25 $750 6.25 $807 $849 forward 7 unknown #
vertex $-1 $808 $850 #
straight-curve $-1 20 -25 1.875 0 0 -1 I I #
plane-surface $-1 20 -18.75 3.75 -1 0 0 0 -0 1 forward_v I I I I #
coedge $-1 $760 $759 $745 $813 reversed $761 $-1 #
edge $-1 $814 -15 $818 15 $745 $851 forward 7 unknown #
vertex $-1 $764 $852 #
ellipse-curve $-1 -15 -12.5 0 0 -1 -0 -3.535533905932737753 0 -3.535533905932737753 1 I I #
coedge $-1 $757 $748 $759 $823 forward $817 $-1 #
loop $-1 $-1 $807 $805 #
vertex $-1 $813 $853 #
ellipse-curve $-1 15 -12.5 0 0 -1 0 3.535533905932737753 0 -3.535533905932737753 1 I I #
point $-1 20 -12.5 0 #
straight-curve $-1 27.5 -6.25 -12.5 0 -1 0 I I #
ellipse-curve $-1 15 -25 0 0 1 0 3.535533905932737753 0 -3.535533905932737753 1 I I #
edge $-1 $818 -6.25 $762 6.25 $759 $854 forward 7 unknown #
point $-1 15 -25 -5 #
straight-curve $-1 -15 -18.75 -5 0 1 0 I I #
edge $-1 $827 32.5 $839 40 $783 $552 forward 7 unknown #
vertex $-1 $830 $855 #
straight-curve $-1 55 6.25 12.5 0 -1 0 I I #
coedge $-1 $789 $783 $773 $830 forward $550 $-1 #
edge $-1 $827 -9.375 $833 0.625 $773 $856 forward 7 unknown #
coedge $-1 $775 $793 $789 $842 reversed $794 $-1 #
vertex $-1 $776 $857 #
vertex $-1 $842 $858 #
straight-curve $-1 55 -8.475965199624620172e-15 2.5 0 -1 -3.491481338843129805e-15 I I #
vertex $-1 $797 $859 #
straight-curve $-1 46.25 0 0 -1 0 0 I I #
point $-1 42.5 0 0 #
cone-surface $-1 55 0 0 0 -1 -3.491481338843129805e-15 2.5 0 0 1 I I 0 1 2.5 forward I I I I #
vertex $-1 $785 $860 #
straight-curve $-1 62.5 0 0 0 0 -1 I I #
point $-1 62.5 0 -12.5 #
edge $-1 $833 -1.570796326794896558 $835 3.141592653589793116 $831 $861 forward 7 unknown #
point $-1 57.5 25 8.728703347107829602e-14 #
straight-curve $-1 52.5 -7.619026212181150377e-29 0 0 1 3.491481338843129805e-15 I I #
straight-curve $-1 55 25 3.125 0 0 1 I I #
point $-1 55 25 12.5 #
straight-curve $-1 62.5 0 12.5 0 1 0 I I #
cone-surface $-1 15 -18.75 0 0 -1 0 3.535533905932737309 0 -3.535533905932737309 1 I I 0 1 5 forward I I I I #
straight-curve $-1 20 -18.75 0 0 1 0 I I #
point $-1 20 -25 0 #
straight-curve $-1 0 -12.5 -5 1 0 0 I I #
point $-1 -15 -12.5 -5 #
point $-1 15 -12.5 -5 #
straight-curve $-1 15 -18.75 -5 0 -1 0 I I #
point $-1 55 0 12.5 #
straight-curve $-1 55 0 3.125 0 0 -1 I I #
point $-1 55 25 2.50000000000009015 #
point $-1 55 0 2.5 #
point $-1 52.5 0 0 #
point $-1 62.5 0 12.5 #
ellipse-curve $-1 55 0 0 0 1 0 2.5 0 0 1 I I #
End-of-ACIS-data 