600 0 1 0           
107 GICL ACIS Healer - Source: /gicl/data5/repository/ICEM-CDC/Fixture_Models/DiamondPin1/DiamondPin1.sat - 6 0 18 ACIS 6.0.3 Solaris 24 Sat Apr 13 23:07:29 2002 
1 9.999999999999999547e-07 1.000000000000000036e-10 
body $-1 $1 $-1 $2 #
lump $-1 $-1 $3 $0 #
transform $-1 1 0 0 0 1 0 0 0 1 0 0 0 1 no_rotate no_reflect no_shear #
shell $-1 $-1 $-1 $4 $-1 $1 #
face $5 $6 $7 $3 $-1 $8 reversed single #
face_name-twe-attrib $-1 $-1 $-1 $4 1 #
face $9 $10 $11 $3 $-1 $12 forward single #
loop $13 $14 $15 $4 #
plane-surface $16 0 0 0 0 1 0 0 0 1 forward_v I I I I #
face_name-twe-attrib $-1 $-1 $-1 $6 2 #
face $17 $18 $19 $3 $-1 $20 forward single #
loop $21 $-1 $22 $6 #
plane-surface $23 0.03099999999999999978 0 0.1246499999999999969 0.939692620785908761 0 0.3420201433256679358 0.3420201433256679913 0 -0.939692620785908983 forward_v I I I I #
loop_type-twe-attrib $-1 $-1 $-1 $7 0 #
loop $24 $-1 $25 $4 #
coedge $-1 $26 $27 $28 $29 forward $7 $-1 #
surf-twe-attrib $-1 $-1 $-1 $8 4 #
face_name-twe-attrib $-1 $-1 $-1 $10 3 #
face $30 $31 $32 $3 $-1 $33 forward single #
loop $34 $-1 $35 $10 #
plane-surface $36 0.07636888970128200005 0 0 0.939692620785908761 0 -0.3420201433256679358 -0.3420201433256679913 0 -0.939692620785908983 forward_v I I I I #
loop_type-twe-attrib $-1 $-1 $-1 $11 0 #
coedge $-1 $28 $37 $38 $39 forward $11 $-1 #
surf-twe-attrib $-1 $-1 $-1 $12 6 #
loop_type-twe-attrib $-1 $-1 $-1 $14 1 #
coedge $-1 $25 $25 $40 $41 reversed $14 $-1 #
coedge $-1 $42 $15 $43 $44 forward $7 $-1 #
coedge $-1 $15 $45 $46 $47 forward $7 $-1 #
coedge $-1 $48 $22 $15 $29 reversed $11 $-1 #
edge $49 $50 -0.132649759339122375 $51 0 $28 $52 forward 7 unknown #
face_name-twe-attrib $-1 $-1 $-1 $18 4 #
face $53 $54 $55 $3 $-1 $56 forward single #
loop $57 $-1 $58 $18 #
plane-surface $59 0.03099999999999999978 0 -0.1246499999999999969 0 0 -1 -1 0 0 forward_v I I I I #
loop_type-twe-attrib $-1 $-1 $-1 $19 0 #
coedge $-1 $46 $60 $48 $61 forward $19 $-1 #
surf-twe-attrib $-1 $-1 $-1 $20 10 #
coedge $-1 $22 $48 $62 $63 forward $11 $-1 #
coedge $-1 $64 $43 $22 $39 reversed $65 $-1 #
edge $66 $67 -0.2434234658475369906 $51 0 $38 $68 forward 7 unknown #
coedge $-1 $40 $40 $25 $41 forward $69 $-1 #
edge $70 $71 0 $71 6.283185307179586232 $40 $72 forward 7 unknown #
coedge $-1 $73 $26 $74 $75 forward $7 $-1 #
coedge $-1 $38 $76 $26 $44 reversed $65 $-1 #
edge $77 $51 -0.06199999999999999956 $78 0 $43 $79 forward 7 unknown #
coedge $-1 $27 $73 $80 $81 forward $7 $-1 #
coedge $-1 $82 $35 $27 $47 reversed $19 $-1 #
edge $83 $84 -0.132649759339122375 $50 0 $46 $85 forward 7 unknown #
coedge $-1 $37 $28 $35 $61 reversed $11 $-1 #
edge_name-twe-attrib $-1 $-1 $-1 $29 1 8704 #
vertex $-1 $61 $86 #
vertex $-1 $39 $87 #
straight-curve $88 0.03099999999999999978 0 0.1246499999999999969 -0.3420201433256679913 0 0.939692620785908983 I I #
face_name-twe-attrib $-1 $-1 $-1 $31 5 #
face $89 $90 $91 $3 $-1 $92 forward single #
loop $93 $-1 $94 $31 #
plane-surface $95 -0.03099999999999999978 0 -0.1246499999999999969 -0.939692620785908761 0 -0.3420201433256679358 -0.3420201433256679913 0 0.939692620785908983 forward_v I I I I #
loop_type-twe-attrib $-1 $-1 $-1 $32 0 #
coedge $-1 $80 $96 $82 $97 forward $32 $-1 #
surf-twe-attrib $-1 $-1 $-1 $33 18 #
coedge $-1 $35 $82 $98 $99 forward $19 $-1 #
edge $100 $101 -0.3336253360832169834 $50 0 $35 $102 forward 7 unknown #
coedge $-1 $98 $103 $37 $63 reversed $104 $-1 #
edge $105 $101 0 $67 0.1768340231386890116 $62 $106 forward 7 unknown #
coedge $-1 $107 $38 $103 $108 forward $65 $-1 #
loop $109 $-1 $38 $90 #
edge_name-twe-attrib $-1 $-1 $-1 $39 10 8448 #
vertex $-1 $39 $110 #
straight-curve $111 0.03099999999999999978 0 0.1246499999999999969 0 -1 0 I I #
loop $112 $113 $40 $114 #
edge_name-twe-attrib $-1 $-1 $-1 $41 24 4608 #
vertex $-1 $41 $115 #
ellipse-curve $116 0 0 0 2.000000000000000155e-15 -1 0 -0.07000000000000000666 -1.400000000000000069e-16 0 1 I I #
coedge $-1 $45 $42 $117 $118 forward $7 $-1 #
coedge $-1 $119 $120 $42 $75 reversed $91 $-1 #
edge $121 $78 -0.132649759339122375 $122 0 $74 $123 forward 7 unknown #
coedge $-1 $43 $107 $119 $124 forward $65 $-1 #
edge_name-twe-attrib $-1 $-1 $-1 $44 12 8704 #
vertex $-1 $124 $125 #
straight-curve $126 -0.03099999999999999978 0 0.1246499999999999969 -1 0 0 I I #
coedge $-1 $127 $58 $45 $81 reversed $32 $-1 #
edge $128 $129 -0.06199999999999999956 $84 0 $80 $130 forward 7 unknown #
coedge $-1 $60 $46 $58 $97 reversed $19 $-1 #
edge_name-twe-attrib $-1 $-1 $-1 $47 3 8704 #
vertex $-1 $97 $131 #
straight-curve $132 0.07636888970128200005 0 0 0.3420201433256679913 0 0.939692620785908983 I I #
point $-1 0.07636888970128200005 0 0 #
point $-1 0.03099999999999999978 0 0.1246499999999999969 #
cur-twe-attrib $-1 $-1 $-1 $52 29 #
face_name-twe-attrib $-1 $-1 $-1 $54 6 #
face $133 $134 $65 $3 $-1 $135 forward single #
loop $136 $-1 $120 $54 #
plane-surface $137 -0.07636888970128200005 0 0 -0.939692620785908761 0 0.3420201433256679358 0.3420201433256679913 0 0.939692620785908983 forward_v I I I I #
loop_type-twe-attrib $-1 $-1 $-1 $55 0 #
coedge $-1 $117 $138 $127 $139 forward $55 $-1 #
surf-twe-attrib $-1 $-1 $-1 $56 31 #
coedge $-1 $58 $140 $141 $142 forward $32 $-1 #
edge $143 $144 -0.2434234658475369906 $84 0 $58 $145 forward 7 unknown #
coedge $-1 $141 $62 $60 $99 reversed $104 $-1 #
edge $146 $144 0 $101 0.1768155597300850035 $98 $147 forward 7 unknown #
edge_name-twe-attrib $-1 $-1 $-1 $61 2 8448 #
vertex $-1 $61 $148 #
straight-curve $149 0.07636888970128200005 0 0 0 -1 0 I I #
coedge $-1 $62 $150 $64 $108 reversed $104 $-1 #
loop $151 $152 $153 $154 #
edge_name-twe-attrib $-1 $-1 $-1 $63 18 8448 #
intcurve-curve $155 forward { exactcur full nubs 3 open 27 
	0 3 0.006841289535337529912 1 0.01368604980679869951 1 0.02050470496665589976 1 0.02731241959847209924 1 
	0.03411834965799340202 1 0.04092126838010540224 1 0.04774235062555619996 1 0.05457146570953329973 1 0.06138430675713629769 1 
	0.06816996520005569327 1 0.07495301282020880307 1 0.08182587472657250338 1 0.0886512621269448936 1 0.09536390162794949887 1 
	0.1023562381561920059 1 0.1089736818298689958 1 0.1159248416928539971 1 0.1226137510263590052 1 0.1293462088295720125 1 
	0.1364564695882700129 1 0.1429666657334799917 1 0.1496730790938710087 1 0.1569852448806469958 1 0.1634657499691780091 1 
	0.169940201516213002 1 0.1768340231386890116 3 
	0.07636888970128200005 0.3336253360832169834 0 
	0.07569784501509239927 0.334787619573846007 0.001843680122750890066 
	0.07431965229978600151 0.3369440492435640255 0.005630233487712499839 
	0.07214504514996250562 0.3394966586089129823 0.01160491752803569955 
	0.069873904333633996 0.3411713502084510186 0.01784482563730360044 
	0.06754364506285069625 0.3417902105941110213 0.0242471603652530017 
	0.06521211782062889817 0.341275261352287973 0.03065297881609990033 
	0.06293769548470000419 0.3396957114658559762 0.03690190282636769681 
	0.06075805585009320248 0.3372245910752190157 0.04289041350500129995 
	0.05868711375216519727 0.3340598268933059889 0.04858028015605239669 
	0.05672482586802100185 0.3303797766678269743 0.05397162180821239719 
	0.05486024408405699992 0.3263184439218960176 0.05909451815637749988 
	0.05307089546150989962 0.3219485718819610209 0.06401071309235630002 
	0.05134756781402430303 0.3173391494250650258 0.06874551689014769817 
	0.0496891973143660029 0.3125646548960789861 0.0733018523910466957 
	0.04807114736304989727 0.3076186367237500052 0.07774740809583929879 
	0.04651250567836229949 0.3026056612953409997 0.08202974092953739527 
	0.04497267099494099696 0.2974376497272049891 0.08626040195193100668 
	0.04348725899977230053 0.2922666991483729992 0.09034153786724259672 
	0.04202127744543430327 0.2869991870452590077 0.09436928908512559611 
	0.04056813407771719948 0.2816335985093539884 0.09836176767515719677 
	0.03914955762984659998 0.2762646190206500263 0.1022592744334509945 
	0.037751789975661601 0.2708601376184630039 0.1060996095009699991 
	0.03635680162983769698 0.2653654874870440272 0.1099323084815219953 
	0.03497963986224340155 0.2598447774945800148 0.1137160293409250067 
	0.0336317723045842995 0.2543575641771519957 0.117419265020008004 
	0.03232316195887099952 0.2489597704168229897 0.1210146423957230016 
	0.0314490316995758995 0.2453094336572179957 0.1234162955447959953 
	0.03099999999999999978 0.2434234658475369906 0.1246499999999999969 
	0 
	null_surface 
	null_surface 
	nullbs 
	nullbs 
	I I 
	0 
	0 
	25 0.006841289535337529912 0.01368604980679869951 0.02050470496665589976 0.02731241959847209924 0.03411834965799340202 0.04092126838010540224 0.04774235062555619996 0.05457146570953329973 0.06138430675713629769 0.06816996520005569327 0.07495301282020880307 0.08182587472657250338 0.0886512621269448936 0.09536390162794949887 0.1023562381561920059 0.1089736818298689958 0.1159248416928539971 0.1226137510263590052 0.1293462088295720125 0.1364564695882700129 0.1429666657334799917 0.1496730790938710087 0.1569852448806469958 0.1634657499691780091 0.169940201516213002 
	F 1 F 0 } I I #
coedge $-1 $76 $64 $150 $156 forward $65 $-1 #
edge $157 $67 0 $158 0.03188837670656510109 $103 $159 forward 7 unknown #
loop_type-twe-attrib $-1 $-1 $-1 $65 0 #
point $-1 0.03099999999999999978 0.2434234658475369906 0.1246499999999999969 #
cur-twe-attrib $-1 $-1 $-1 $68 39 #
loop_type-twe-attrib $-1 $-1 $-1 $69 0 #
loop $160 $-1 $161 $114 #
face $162 $163 $69 $3 $-1 $164 forward single #
point $-1 -0.07000000000000000666 -1.400000000000000069e-16 0 #
cur-twe-attrib $-1 $-1 $-1 $72 41 #
coedge $-1 $165 $94 $73 $118 reversed $55 $-1 #
edge $166 $122 -0.132649759339122375 $129 0 $117 $167 forward 7 unknown #
coedge $-1 $168 $74 $76 $124 reversed $91 $-1 #
coedge $-1 $74 $168 $165 $169 forward $91 $-1 #
edge_name-twe-attrib $-1 $-1 $-1 $75 9 8704 #
vertex $-1 $169 $170 #
straight-curve $171 -0.07636888970128200005 0 0 -0.3420201433256679913 0 -0.939692620785908983 I I #
edge $172 $173 -0.2434234658475369906 $78 0 $76 $174 forward 7 unknown #
point $-1 -0.03099999999999999978 0 0.1246499999999999969 #
cur-twe-attrib $-1 $-1 $-1 $79 44 #
coedge $-1 $140 $80 $94 $139 reversed $32 $-1 #
edge_name-twe-attrib $-1 $-1 $-1 $81 5 8704 #
vertex $-1 $139 $175 #
straight-curve $176 0.03099999999999999978 0 -0.1246499999999999969 1 0 0 I I #
point $-1 0.03099999999999999978 0 -0.1246499999999999969 #
cur-twe-attrib $-1 $-1 $-1 $85 47 #
face_name-twe-attrib $-1 $-1 $-1 $90 7 #
face $177 $154 $178 $3 $-1 $179 reversed single #
plane-surface $180 -0.03099999999999999978 0 0.1246499999999999969 0 0 1 1 0 0 forward_v I I I I #
loop_type-twe-attrib $-1 $-1 $-1 $91 0 #
surf-twe-attrib $-1 $-1 $-1 $92 54 #
coedge $-1 $94 $165 $181 $182 forward $55 $-1 #
edge $183 $184 -0.2434234658475369906 $129 0 $94 $185 forward 7 unknown #
coedge $-1 $96 $127 $153 $186 forward $32 $-1 #
coedge $-1 $153 $98 $96 $142 reversed $104 $-1 #
edge $187 $188 0 $144 0.03188837670656510109 $141 $189 forward 7 unknown #
edge_name-twe-attrib $-1 $-1 $-1 $97 4 8448 #
vertex $-1 $97 $190 #
straight-curve $191 0.03099999999999999978 0 -0.1246499999999999969 0 -1 0 I I #
edge_name-twe-attrib $-1 $-1 $-1 $99 19 8448 #
intcurve-curve $192 forward { exactcur full nubs 3 open 23 
	0 3 0.008266954859621280377 1 0.01596194304970879885 1 0.02357785527490130137 1 0.03212375016759919794 1 
	0.04005316883722870314 1 0.04786588729577089668 1 0.05615616614473629975 1 0.06384743458758550261 1 0.07211458301653650427 1 
	0.08009361920298349591 1 0.08814561142451339537 1 0.09628785286258730036 1 0.1043148488264079993 1 0.112320859586533997 1 
	0.120370986236911004 1 0.1284472880264589945 1 0.1365058838332580127 1 0.1445404588407160074 1 0.1525756664940260132 1 
	0.1606219370194889862 1 0.1687057290716590108 1 0.1768155597300850035 3 
	0.03099999999999999978 0.2434234658475369906 -0.1246499999999999969 
	0.03153847125646969812 0.2456850867021440066 -0.1231705623818240003 
	0.03258300018190520009 0.2500420252678530186 -0.120300742745224995 
	0.0341414209282758993 0.2564457388670610127 -0.116019016934558003 
	0.03573515974103620013 0.2628898283306930206 -0.1116402555339919972 
	0.03736478862709900067 0.2693541377750889865 -0.107162886967444998 
	0.03903158292961399906 0.2758192933012850179 -0.1025834072584100032 
	0.04070663115175299912 0.2821589033433580251 -0.09798125009158499543 
	0.04239508145779360276 0.2883671064416150065 -0.09334227100186680282 
	0.04415118147424099831 0.2946102121053559841 -0.08851742586037469884 
	0.0459253293345849023 0.3006740050926500207 -0.08364299467530389443 
	0.04777591962100279782 0.3067021121997670074 -0.07855853965070959399 
	0.04967502029619230014 0.3125431500891450165 -0.07334080342835359867 
	0.05164836727754999746 0.3181938998710749922 -0.06791907715632790332 
	0.05370297753890750092 0.3235702101046519785 -0.06227408185746589886 
	0.05585136229610879882 0.328577780744859993 -0.05637144324875419804 
	0.05812650127396509769 0.333117825788546984 -0.05012055028097559678 
	0.06055020011733820012 0.3369966362407850191 -0.04346149243724620193 
	0.06312675609666350274 0.3399325086065559942 -0.036382463064091701 
	0.06583326432860689414 0.3415972769139389853 -0.02894639281125720165 
	0.06860025013619569512 0.3417248491854499859 -0.02134416178495539967 
	0.07132711268384700487 0.3402872595979190007 -0.01385216850932960084 
	0.07393447041966029476 0.3375187356804529859 -0.006688512005740049685 
	0.07557341704351419609 0.3350031351425030168 -0.002185543165010560198 
	0.07636888970128200005 0.3336253360832169834 0 
	0 
	null_surface 
	null_surface 
	nullbs 
	nullbs 
	I I 
	0 
	0 
	21 0.008266954859621280377 0.01596194304970879885 0.02357785527490130137 0.03212375016759919794 0.04005316883722870314 0.04786588729577089668 0.05615616614473629975 0.06384743458758550261 0.07211458301653650427 0.08009361920298349591 0.08814561142451339537 0.09628785286258730036 0.1043148488264079993 0.112320859586533997 0.120370986236911004 0.1284472880264589945 0.1365058838332580127 0.1445404588407160074 0.1525756664940260132 0.1606219370194889862 0.1687057290716590108 
	F 1 F 0 } I I #
point $-1 0.07636888970128200005 0.3336253360832169834 0 #
cur-twe-attrib $-1 $-1 $-1 $102 61 #
coedge $-1 $103 $193 $107 $156 reversed $104 $-1 #
loop_type-twe-attrib $-1 $-1 $-1 $104 0 #
loop $194 $-1 $195 $154 #
coedge $-1 $181 $141 $140 $186 reversed $104 $-1 #
face $196 $197 $104 $3 $-1 $198 forward single #
cur-twe-attrib $-1 $-1 $-1 $106 63 #
edge $199 $158 0 $173 0.03188837670656510109 $150 $200 forward 7 unknown #
edge_name-twe-attrib $-1 $-1 $-1 $108 17 8448 #
vertex $-1 $108 $201 #
intcurve-curve $202 forward { exactcur full nubs 3 open 5 
	0 3 0.007981749034020279437 1 0.01594886328243510024 1 0.02391189326641880025 1 0.03188837670656510109 3 
	0.03099999999999999978 0.2434234658475369906 0.1246499999999999969 
	0.02854525948133499955 0.2444495998281920046 0.1246499999999999969 
	0.02355562231346679941 0.2463058090546079992 0.1246499999999999969 
	0.01585211303809879943 0.248398578114408991 0.1246499999999999969 
	0.007976561148568549892 0.2497037298841709996 0.1246499999999999969 
	0.002658827813382089872 0.25 0.1246499999999999969 
	0 0.25 0.1246499999999999969 
	0 
	null_surface 
	null_surface 
	nullbs 
	nullbs 
	I I 
	0 
	0 
	3 0.007981749034020279437 0.01594886328243510024 0.02391189326641880025 
	F 1 F 0 } I I #
loop_type-twe-attrib $-1 $-1 $-1 $113 1 #
coedge $-1 $161 $161 $203 $204 reversed $113 $-1 #
face_name-twe-attrib $-1 $-1 $-1 $114 12 #
face $205 $206 $207 $3 $-1 $208 forward single #
cone-surface $209 0 -0.3950099999999999723 0 0 1 0 0.07000000000000000666 0 0 1 I I 0 1 0.07000000000000000666 forward I I I I #
coedge $-1 $138 $117 $120 $169 reversed $55 $-1 #
edge_name-twe-attrib $-1 $-1 $-1 $118 7 8704 #
straight-curve $210 -0.03099999999999999978 0 -0.1246499999999999969 0.3420201433256679913 0 -0.939692620785908983 I I #
coedge $-1 $120 $119 $193 $211 forward $91 $-1 #
edge $212 $213 -0.3336253360832169834 $122 0 $120 $214 forward 7 unknown #
point $-1 -0.07636888970128200005 0 0 #
cur-twe-attrib $-1 $-1 $-1 $123 75 #
edge_name-twe-attrib $-1 $-1 $-1 $124 11 8448 #
vertex $-1 $124 $215 #
straight-curve $216 -0.03099999999999999978 0 0.1246499999999999969 0 -1 0 I I #
point $-1 -0.03099999999999999978 0 -0.1246499999999999969 #
cur-twe-attrib $-1 $-1 $-1 $130 81 #
face_name-twe-attrib $-1 $-1 $-1 $134 8 #
loop $217 $-1 $218 $134 #
plane-surface $219 0 0.3738000000000000211 0 0 -1 0 0 0 -1 forward_v I I I I #
surf-twe-attrib $-1 $-1 $-1 $135 90 #
coedge $-1 $193 $153 $138 $182 reversed $104 $-1 #
edge $220 $213 0 $184 0.1768340231386890116 $181 $221 forward 7 unknown #
edge_name-twe-attrib $-1 $-1 $-1 $139 6 8448 #
vertex $-1 $139 $222 #
straight-curve $223 -0.03099999999999999978 0 -0.1246499999999999969 0 -1 0 I I #
edge $224 $184 0 $188 0.03188837670656510109 $153 $225 forward 7 unknown #
edge_name-twe-attrib $-1 $-1 $-1 $142 20 8448 #
vertex $-1 $186 $226 #
intcurve-curve $227 forward { exactcur full nubs 3 open 5 
	0 3 0.007976483440146269616 1 0.01593951342413000086 1 0.02390662767254480084 1 0.03188837670656510109 3 
	0 0.25 -0.1246499999999999969 
	0.002658827813382089872 0.25 -0.1246499999999999969 
	0.007976561148568549892 0.2497037298841709996 -0.1246499999999999969 
	0.01585211303809879943 0.248398578114408991 -0.1246499999999999969 
	0.0235556223134666988 0.2463058090546079992 -0.1246499999999999969 
	0.02854525948133499955 0.2444495998281920046 -0.1246499999999999969 
	0.03099999999999999978 0.2434234658475369906 -0.1246499999999999969 
	0 
	null_surface 
	null_surface 
	nullbs 
	nullbs 
	I I 
	0 
	0 
	3 0.007976483440146269616 0.01593951342413000086 0.02390662767254480084 
	F 1 F 0 } I I #
point $-1 0.03099999999999999978 0.2434234658475369906 -0.1246499999999999969 #
cur-twe-attrib $-1 $-1 $-1 $145 97 #
cur-twe-attrib $-1 $-1 $-1 $147 99 #
coedge $-1 $150 $181 $168 $211 reversed $104 $-1 #
loop_type-twe-attrib $-1 $-1 $-1 $152 1 #
coedge $-1 $195 $195 $218 $228 forward $152 $-1 #
face_name-twe-attrib $-1 $-1 $-1 $154 9 #
face $229 $230 $231 $3 $-1 $232 forward single #
cone-surface $233 0 0.3738000000000000211 0 0 -1 0 0 0 0.05317403667432400033 1 I I 0.4999999999999990008 0.8660254037844390407 0.05317403667432400033 forward I I I I #
edge_name-twe-attrib $-1 $-1 $-1 $156 16 8448 #
intcurve-curve $234 forward { exactcur full nubs 3 open 5 
	0 3 0.007976483440146269616 1 0.01593951342413000086 1 0.02390662767254480084 1 0.03188837670656510109 3 
	0 0.25 0.1246499999999999969 
	-0.002658827813382089872 0.25 0.1246499999999999969 
	-0.007976561148568549892 0.2497037298841709996 0.1246499999999999969 
	-0.01585211303809879943 0.248398578114408991 0.1246499999999999969 
	-0.02355562231346679941 0.2463058090546079992 0.1246499999999999969 
	-0.02854525948133499955 0.2444495998281920046 0.1246499999999999969 
	-0.03099999999999999978 0.2434234658475369906 0.1246499999999999969 
	0 
	null_surface 
	null_surface 
	nullbs 
	nullbs 
	I I 
	0 
	0 
	3 0.007976483440146269616 0.01593951342413000086 0.02390662767254480084 
	F 1 F 0 } I I #
point $-1 0 0.25 0.1246499999999999969 #
cur-twe-attrib $-1 $-1 $-1 $159 108 #
coedge $-1 $203 $203 $161 $204 forward $235 $-1 #
edge $236 $237 -3.141592653589793116 $237 3.141592653589793116 $203 $238 forward 7 unknown #
face_name-twe-attrib $-1 $-1 $-1 $163 13 #
face $239 $-1 $240 $3 $-1 $241 forward single #
loop $242 $243 $244 $163 #
cone-surface $245 0 -0.3950099999999999723 0 0 1 0 0.09389999999999999736 0 0 1 I I 0 1 0.09389999999999999736 forward I I I I #
surf-twe-attrib $-1 $-1 $-1 $164 114 #
cur-twe-attrib $-1 $-1 $-1 $167 118 #
edge $246 $173 0 $213 0.1768155597300850035 $193 $247 forward 7 unknown #
edge_name-twe-attrib $-1 $-1 $-1 $169 8 8448 #
vertex $-1 $169 $248 #
straight-curve $249 -0.07636888970128200005 0 0 0 -1 0 I I #
point $-1 -0.03099999999999999978 0.2434234658475369906 0.1246499999999999969 #
cur-twe-attrib $-1 $-1 $-1 $174 124 #
loop_type-twe-attrib $-1 $-1 $-1 $178 0 #
coedge $-1 $218 $218 $195 $228 reversed $178 $-1 #
surf-twe-attrib $-1 $-1 $-1 $179 134 #
edge_name-twe-attrib $-1 $-1 $-1 $182 14 8448 #
intcurve-curve $250 forward { exactcur full nubs 3 open 27 
	0 3 0.006841289535337529912 1 0.01368604980679869951 1 0.02050470496665589976 1 0.02731241959847209924 1 
	0.03411834965799340202 1 0.04092126838010540224 1 0.04774235062555619996 1 0.05457146570953329973 1 0.06138430675713629769 1 
	0.06816996520005569327 1 0.07495301282020880307 1 0.08182587472657250338 1 0.0886512621269448936 1 0.09536390162794949887 1 
	0.1023562381561920059 1 0.1089736818298689958 1 0.1159248416928539971 1 0.1226137510263600044 1 0.1293462088295720125 1 
	0.1364564695882690137 1 0.1429666657334799917 1 0.1496730790938710087 1 0.1569852448806469958 1 0.1634657499691790083 1 
	0.169940201516213002 1 0.1768340231386890116 3 
	-0.07636888970128200005 0.3336253360832169834 0 
	-0.07569784501509239927 0.334787619573846007 -0.001843680122750890066 
	-0.07431965229978600151 0.3369440492435640255 -0.005630233487712499839 
	-0.07214504514996250562 0.3394966586089129823 -0.01160491752803569955 
	-0.069873904333633996 0.3411713502084510186 -0.01784482563730360044 
	-0.06754364506285069625 0.3417902105941110213 -0.0242471603652530017 
	-0.06521211782062889817 0.341275261352287973 -0.03065297881609990033 
	-0.06293769548470000419 0.3396957114658559762 -0.03690190282636769681 
	-0.06075805585009320248 0.3372245910752190157 -0.04289041350500129995 
	-0.05868711375216519727 0.3340598268933059889 -0.04858028015605239669 
	-0.05672482586802100185 0.3303797766678269743 -0.05397162180821239719 
	-0.05486024408405699992 0.3263184439218960176 -0.05909451815637749988 
	-0.05307089546150989962 0.3219485718819610209 -0.06401071309235630002 
	-0.05134756781402430303 0.3173391494250650258 -0.06874551689014769817 
	-0.0496891973143660029 0.3125646548960789861 -0.0733018523910466957 
	-0.04807114736304989727 0.3076186367237500052 -0.07774740809583929879 
	-0.04651250567836229949 0.3026056612953409997 -0.08202974092953750629 
	-0.04497267099494099696 0.2974376497272049891 -0.08626040195193100668 
	-0.04348725899977220338 0.2922666991483729992 -0.09034153786724299917 
	-0.04202127744543440041 0.2869991870452580085 -0.09436928908512499936 
	-0.04056813407771719948 0.2816335985093539884 -0.09836176767515729391 
	-0.03914955762984639875 0.2762646190206510255 -0.1022592744334519937 
	-0.03775178997566180222 0.2708601376184630039 -0.1060996095009699991 
	-0.03635680162983769698 0.2653654874870450264 -0.1099323084815219953 
	-0.03497963986224320032 0.2598447774945800148 -0.1137160293409250067 
	-0.03363177230458450073 0.2543575641771509965 -0.1174192650200070048 
	-0.03232316195887079829 0.2489597704168229897 -0.1210146423957230016 
	-0.0314490316995758995 0.2453094336572179957 -0.1234162955447959953 
	-0.03099999999999999978 0.2434234658475369906 -0.1246499999999999969 
	0 
	null_surface 
	null_surface 
	nullbs 
	nullbs 
	I I 
	0 
	0 
	25 0.006841289535337529912 0.01368604980679869951 0.02050470496665589976 0.02731241959847209924 0.03411834965799340202 0.04092126838010540224 0.04774235062555619996 0.05457146570953329973 0.06138430675713629769 0.06816996520005569327 0.07495301282020880307 0.08182587472657250338 0.0886512621269448936 0.09536390162794949887 0.1023562381561920059 0.1089736818298689958 0.1159248416928539971 0.1226137510263600044 0.1293462088295720125 0.1364564695882690137 0.1429666657334799917 0.1496730790938710087 0.1569852448806469958 0.1634657499691790083 0.169940201516213002 
	F 1 F 0 } I I #
point $-1 -0.03099999999999999978 0.2434234658475369906 -0.1246499999999999969 #
cur-twe-attrib $-1 $-1 $-1 $185 139 #
edge_name-twe-attrib $-1 $-1 $-1 $186 13 8448 #
intcurve-curve $251 forward { exactcur full nubs 3 open 5 
	0 3 0.007981749034020279437 1 0.01594886328243510024 1 0.02391189326641880025 1 0.03188837670656510109 3 
	-0.03099999999999999978 0.2434234658475369906 -0.1246499999999999969 
	-0.02854525948133499955 0.2444495998281920046 -0.1246499999999999969 
	-0.02355562231346679941 0.2463058090546079992 -0.1246499999999999969 
	-0.01585211303809879943 0.248398578114408991 -0.1246499999999999969 
	-0.007976561148568549892 0.2497037298841709996 -0.1246499999999999969 
	-0.002658827813382089872 0.25 -0.1246499999999999969 
	0 0.25 -0.1246499999999999969 
	0 
	null_surface 
	null_surface 
	nullbs 
	nullbs 
	I I 
	0 
	0 
	3 0.007981749034020279437 0.01594886328243510024 0.02391189326641880025 
	F 1 F 0 } I I #
point $-1 0 0.25 -0.1246499999999999969 #
cur-twe-attrib $-1 $-1 $-1 $189 142 #
edge $252 $253 0 $253 6.283185307179586232 $195 $254 forward 7 unknown #
face_name-twe-attrib $-1 $-1 $-1 $197 10 #
face $255 $114 $256 $3 $-1 $257 reversed single #
loop $258 $235 $259 $197 #
plane-surface $260 0 -0.02999999999999999889 0 0 1 0 0 0 1 forward_v I I I I #
surf-twe-attrib $-1 $-1 $-1 $198 154 #
cur-twe-attrib $-1 $-1 $-1 $200 156 #
loop $261 $-1 $203 $197 #
edge_name-twe-attrib $-1 $-1 $-1 $204 22 4608 #
vertex $-1 $204 $262 #
ellipse-curve $263 0 -0.02999999999999999889 0 0 -1 0 -0.07000000000000000666 0 0 1 I I #
face_name-twe-attrib $-1 $-1 $-1 $206 14 #
loop $264 $265 $266 $206 #
cone-surface $267 0 -0.3562000000000000166 0 0 1 0 -0.09389999999999999736 0 0 1 I I 0.7071067811865470176 0.7071067811865480168 0.09389999999999999736 forward I I I I #
loop_type-twe-attrib $-1 $-1 $-1 $207 0 #
loop $268 $-1 $269 $163 #
coedge $-1 $244 $244 $259 $270 reversed $207 $-1 #
surf-twe-attrib $-1 $-1 $-1 $208 163 #
edge_name-twe-attrib $-1 $-1 $-1 $211 15 8448 #
intcurve-curve $271 forward { exactcur full nubs 3 open 23 
	0 3 0.008266954859621280377 1 0.01596194304970879885 1 0.02357785527490130137 1 0.03212375016759919794 1 
	0.04005316883722870314 1 0.04786588729577089668 1 0.05615616614473629975 1 0.06384743458758550261 1 0.07211458301653650427 1 
	0.08009361920298349591 1 0.08814561142451339537 1 0.09628785286258730036 1 0.1043148488264079993 1 0.112320859586533997 1 
	0.120370986236911004 1 0.1284472880264589945 1 0.1365058838332580127 1 0.1445404588407160074 1 0.1525756664940260132 1 
	0.1606219370194889862 1 0.1687057290716590108 1 0.1768155597300850035 3 
	-0.03099999999999999978 0.2434234658475369906 0.1246499999999999969 
	-0.03153847125646969812 0.2456850867021440066 0.1231705623818240003 
	-0.03258300018190520009 0.2500420252678530186 0.120300742745224995 
	-0.0341414209282758993 0.2564457388670610127 0.116019016934558003 
	-0.03573515974103620013 0.2628898283306930206 0.1116402555339919972 
	-0.03736478862709900067 0.2693541377750889865 0.107162886967444998 
	-0.03903158292961399906 0.2758192933012850179 0.1025834072584100032 
	-0.04070663115175299912 0.2821589033433580251 0.09798125009158499543 
	-0.04239508145779360276 0.2883671064416150065 0.09334227100186680282 
	-0.04415118147424099831 0.2946102121053559841 0.08851742586037469884 
	-0.0459253293345849023 0.3006740050926500207 0.08364299467530389443 
	-0.04777591962100279782 0.3067021121997670074 0.07855853965070959399 
	-0.04967502029619230014 0.3125431500891450165 0.07334080342835359867 
	-0.05164836727754999746 0.3181938998710749922 0.06791907715632790332 
	-0.05370297753890750092 0.3235702101046519785 0.06227408185746589886 
	-0.05585136229610879882 0.328577780744859993 0.05637144324875419804 
	-0.05812650127396509769 0.333117825788546984 0.05012055028097559678 
	-0.06055020011733820012 0.3369966362407850191 0.04346149243724620193 
	-0.06312675609666350274 0.3399325086065559942 0.036382463064091701 
	-0.06583326432860689414 0.3415972769139389853 0.02894639281125720165 
	-0.06860025013619569512 0.3417248491854499859 0.02134416178495539967 
	-0.07132711268384700487 0.3402872595979190007 0.01385216850932960084 
	-0.07393447041966029476 0.3375187356804529859 0.006688512005740049685 
	-0.07557341704351419609 0.3350031351425030168 0.002185543165010560198 
	-0.07636888970128200005 0.3336253360832169834 0 
	0 
	null_surface 
	null_surface 
	nullbs 
	nullbs 
	I I 
	0 
	0 
	21 0.008266954859621280377 0.01596194304970879885 0.02357785527490130137 0.03212375016759919794 0.04005316883722870314 0.04786588729577089668 0.05615616614473629975 0.06384743458758550261 0.07211458301653650427 0.08009361920298349591 0.08814561142451339537 0.09628785286258730036 0.1043148488264079993 0.112320859586533997 0.120370986236911004 0.1284472880264589945 0.1365058838332580127 0.1445404588407160074 0.1525756664940260132 0.1606219370194889862 0.1687057290716590108 
	F 1 F 0 } I I #
point $-1 -0.07636888970128200005 0.3336253360832169834 0 #
cur-twe-attrib $-1 $-1 $-1 $214 169 #
cur-twe-attrib $-1 $-1 $-1 $221 182 #
cur-twe-attrib $-1 $-1 $-1 $225 186 #
edge_name-twe-attrib $-1 $-1 $-1 $228 21 8448 #
vertex $-1 $228 $272 #
ellipse-curve $273 0 0.3738000000000000211 0 0 -1 0 0 0 0.05317403667432400033 1 I I #
face_name-twe-attrib $-1 $-1 $-1 $230 11 #
loop $274 $-1 $275 $230 #
plane-surface $276 0 -0.3761999999999999789 0 0 1 0 0 0 1 forward_v I I I I #
loop_type-twe-attrib $-1 $-1 $-1 $231 0 #
coedge $-1 $259 $259 $244 $270 forward $231 $-1 #
surf-twe-attrib $-1 $-1 $-1 $232 197 #
loop_type-twe-attrib $-1 $-1 $-1 $235 1 #
point $-1 0.07000000000000000666 -0.02999999999999999889 -8.572526115211599904e-18 #
cur-twe-attrib $-1 $-1 $-1 $238 204 #
loop_type-twe-attrib $-1 $-1 $-1 $240 0 #
loop $277 $-1 $278 $206 #
coedge $-1 $266 $266 $269 $279 reversed $240 $-1 #
surf-twe-attrib $-1 $-1 $-1 $241 206 #
loop_type-twe-attrib $-1 $-1 $-1 $243 1 #
coedge $-1 $269 $269 $266 $279 forward $243 $-1 #
edge $280 $281 0 $281 6.283185307179586232 $244 $282 forward 7 unknown #
cur-twe-attrib $-1 $-1 $-1 $247 211 #
point $-1 0 0.3738000000000000211 0.05317403667432400033 #
cur-twe-attrib $-1 $-1 $-1 $254 228 #
loop_type-twe-attrib $-1 $-1 $-1 $256 0 #
coedge $-1 $275 $275 $278 $283 forward $256 $-1 #
surf-twe-attrib $-1 $-1 $-1 $257 230 #
loop_type-twe-attrib $-1 $-1 $-1 $265 1 #
coedge $-1 $278 $278 $275 $283 reversed $265 $-1 #
edge $284 $285 -3.141592653589793116 $285 3.141592653589793116 $266 $286 forward 7 unknown #
edge_name-twe-attrib $-1 $-1 $-1 $270 25 8704 #
vertex $-1 $270 $287 #
ellipse-curve $288 0 -0.02999999999999999889 0 0 1 0 -0.09389999999999999736 0 0 1 I I #
edge $289 $290 -3.141592653589793116 $290 3.141592653589793116 $275 $291 forward 7 unknown #
edge_name-twe-attrib $-1 $-1 $-1 $279 26 8448 #
vertex $-1 $279 $292 #
ellipse-curve $293 0 -0.3562000000000000166 0 0 1 0 -0.09389999999999999736 0 0 1 I I #
point $-1 -0.09389999999999999736 -0.02999999999999999889 0 #
cur-twe-attrib $-1 $-1 $-1 $282 270 #
edge_name-twe-attrib $-1 $-1 $-1 $283 23 8448 #
vertex $-1 $283 $294 #
ellipse-curve $295 0 -0.3761999999999999789 0 0 -1 0 -0.07389999999999999347 0 0 1 I I #
point $-1 0.09389999999999999736 -0.3562000000000000166 1.14994314602623998e-17 #
cur-twe-attrib $-1 $-1 $-1 $286 279 #
point $-1 0.07389999999999999347 -0.3761999999999999789 -9.050138284487679422e-18 #
cur-twe-attrib $-1 $-1 $-1 $291 283 #
End-of-ACIS-data 