104 296 0 0                             
body $-1 $1 $-1 $2 #
lump $-1 $-1 $3 $0 #
transform $-1 1 0 0 0 1 0 0 0 1 0 0 0 1 0 0 0 #
shell $-1 $-1 $-1 $4 $1 #
face $5 $6 $7 $3 $-1 $8 1 #
face_name-twe-attrib $-1 $-1 $-1 $4 1 #
face $9 $10 $11 $3 $-1 $12 0 #
loop $13 $14 $15 $4 #
plane-surface $16 0 0 0 0 1 0 0 0 1 0 #
face_name-twe-attrib $-1 $-1 $-1 $6 2 #
face $17 $18 $19 $3 $-1 $20 0 #
loop $21 $-1 $22 $6 #
plane-surface $23 0.031 0 0.12465 0.939692620785909 0 0.342020143325668 0.342020143325668 0 -0.939692620785909 0 #
loop_type-twe-attrib $-1 $-1 $-1 $7 0 #
loop $24 $-1 $25 $4 #
coedge $-1 $26 $27 $28 $29 0 $7 $-1 #
surf-twe-attrib $-1 $-1 $-1 $8 4 #
face_name-twe-attrib $-1 $-1 $-1 $10 3 #
face $30 $31 $32 $3 $-1 $33 0 #
loop $34 $-1 $35 $10 #
plane-surface $36 0.076368889701282 0 0 0.939692620785909 0 -0.342020143325668 -0.342020143325668 0 -0.939692620785909 0 #
loop_type-twe-attrib $-1 $-1 $-1 $11 0 #
coedge $-1 $28 $37 $38 $39 0 $11 $-1 #
surf-twe-attrib $-1 $-1 $-1 $12 6 #
loop_type-twe-attrib $-1 $-1 $-1 $14 1 #
coedge $-1 $25 $25 $40 $41 1 $14 $-1 #
coedge $-1 $42 $15 $43 $44 0 $7 $-1 #
coedge $-1 $15 $45 $46 $47 0 $7 $-1 #
coedge $-1 $48 $22 $15 $29 1 $11 $-1 #
edge $49 $50 $51 $28 $52 0 #
face_name-twe-attrib $-1 $-1 $-1 $18 4 #
face $53 $54 $55 $3 $-1 $56 0 #
loop $57 $-1 $58 $18 #
plane-surface $59 0.031 0 -0.12465 0 0 -1 -1 0 0 0 #
loop_type-twe-attrib $-1 $-1 $-1 $19 0 #
coedge $-1 $46 $60 $48 $61 0 $19 $-1 #
surf-twe-attrib $-1 $-1 $-1 $20 10 #
coedge $-1 $22 $48 $62 $63 0 $11 $-1 #
coedge $-1 $64 $43 $22 $39 1 $65 $-1 #
edge $66 $67 $51 $38 $68 0 #
coedge $-1 $40 $40 $25 $41 0 $69 $-1 #
edge $70 $71 $71 $40 $72 0 #
coedge $-1 $73 $26 $74 $75 0 $7 $-1 #
coedge $-1 $38 $76 $26 $44 1 $65 $-1 #
edge $77 $51 $78 $43 $79 0 #
coedge $-1 $27 $73 $80 $81 0 $7 $-1 #
coedge $-1 $82 $35 $27 $47 1 $19 $-1 #
edge $83 $84 $50 $46 $85 0 #
coedge $-1 $37 $28 $35 $61 1 $11 $-1 #
edge_name-twe-attrib $-1 $-1 $-1 $29 1 8704 #
vertex $-1 $61 $86 #
vertex $-1 $39 $87 #
straight-curve $88 0.031 0 0.12465 -0.342020143325668 0 0.939692620785909 #
face_name-twe-attrib $-1 $-1 $-1 $31 5 #
face $89 $90 $91 $3 $-1 $92 0 #
loop $93 $-1 $94 $31 #
plane-surface $95 -0.031 0 -0.12465 -0.939692620785909 0 -0.342020143325668 -0.342020143325668 0 0.939692620785909 0 #
loop_type-twe-attrib $-1 $-1 $-1 $32 0 #
coedge $-1 $80 $96 $82 $97 0 $32 $-1 #
surf-twe-attrib $-1 $-1 $-1 $33 18 #
coedge $-1 $35 $82 $98 $99 0 $19 $-1 #
edge $100 $101 $50 $35 $102 0 #
coedge $-1 $98 $103 $37 $63 1 $104 $-1 #
edge $105 $101 $67 $62 $106 0 #
coedge $-1 $107 $38 $103 $108 0 $65 $-1 #
loop $109 $-1 $38 $90 #
edge_name-twe-attrib $-1 $-1 $-1 $39 10 8448 #
vertex $-1 $39 $110 #
straight-curve $111 0.031 0 0.12465 0 -1 0 #
loop $112 $113 $40 $114 #
edge_name-twe-attrib $-1 $-1 $-1 $41 24 4608 #
vertex $-1 $41 $115 #
ellipse-curve $116 0 0 0 2e-15 -1 0 -0.07 -1.4e-16 0 1 #
coedge $-1 $45 $42 $117 $118 0 $7 $-1 #
coedge $-1 $119 $120 $42 $75 1 $91 $-1 #
edge $121 $78 $122 $74 $123 0 #
coedge $-1 $43 $107 $119 $124 0 $65 $-1 #
edge_name-twe-attrib $-1 $-1 $-1 $44 12 8704 #
vertex $-1 $124 $125 #
straight-curve $126 -0.031 0 0.12465 -1 0 0 #
coedge $-1 $127 $58 $45 $81 1 $32 $-1 #
edge $128 $129 $84 $80 $130 0 #
coedge $-1 $60 $46 $58 $97 1 $19 $-1 #
edge_name-twe-attrib $-1 $-1 $-1 $47 3 8704 #
vertex $-1 $97 $131 #
straight-curve $132 0.076368889701282 0 0 0.342020143325668 0 0.939692620785909 #
point $-1 0.076368889701282 0 0 #
point $-1 0.031 0 0.12465 #
cur-twe-attrib $-1 $-1 $-1 $52 29 #
face_name-twe-attrib $-1 $-1 $-1 $54 6 #
face $133 $134 $65 $3 $-1 $135 0 #
loop $136 $-1 $120 $54 #
plane-surface $137 -0.076368889701282 0 0 -0.939692620785909 0 0.342020143325668 0.342020143325668 0 0.939692620785909 0 #
loop_type-twe-attrib $-1 $-1 $-1 $55 0 #
coedge $-1 $117 $138 $127 $139 0 $55 $-1 #
surf-twe-attrib $-1 $-1 $-1 $56 31 #
coedge $-1 $58 $140 $141 $142 0 $32 $-1 #
edge $143 $144 $84 $58 $145 0 #
coedge $-1 $141 $62 $60 $99 1 $104 $-1 #
edge $146 $144 $101 $98 $147 0 #
edge_name-twe-attrib $-1 $-1 $-1 $61 2 8448 #
vertex $-1 $61 $148 #
straight-curve $149 0.076368889701282 0 0 0 -1 0 #
coedge $-1 $62 $150 $64 $108 1 $104 $-1 #
loop $151 $152 $153 $154 #
edge_name-twe-attrib $-1 $-1 $-1 $63 18 8448 #
intcurve-curve $155 0 { exactcur nubs 3 open 27 
	0 3 0.00684128953533753 1 0.0136860498067987 1 0.0205047049666559 1 0.0273124195984721 1 
	0.0341183496579934 1 0.0409212683801054 1 0.0477423506255562 1 0.0545714657095333 1 0.0613843067571363 1 
	0.0681699652000557 1 0.0749530128202088 1 0.0818258747265725 1 0.0886512621269449 1 0.0953639016279495 1 
	0.102356238156192 1 0.108973681829869 1 0.115924841692854 1 0.122613751026359 1 0.129346208829572 1 
	0.13645646958827 1 0.14296666573348 1 0.149673079093871 1 0.156985244880647 1 0.163465749969178 1 
	0.169940201516213 1 0.176834023138689 3 
	0.076368889701282 0.333625336083217 0 
	0.0756978450150924 0.334787619573846 0.00184368012275089 
	0.074319652299786 0.336944049243564 0.0056302334877125 
	0.0721450451499625 0.339496658608913 0.0116049175280357 
	0.069873904333634 0.341171350208451 0.0178448256373036 
	0.0675436450628507 0.341790210594111 0.024247160365253 
	0.0652121178206289 0.341275261352288 0.0306529788160999 
	0.0629376954847 0.339695711465856 0.0369019028263677 
	0.0607580558500932 0.337224591075219 0.0428904135050013 
	0.0586871137521652 0.334059826893306 0.0485802801560524 
	0.056724825868021 0.330379776667827 0.0539716218082124 
	0.054860244084057 0.326318443921896 0.0590945181563775 
	0.0530708954615099 0.321948571881961 0.0640107130923563 
	0.0513475678140243 0.317339149425065 0.0687455168901477 
	0.049689197314366 0.312564654896079 0.0733018523910467 
	0.0480711473630499 0.30761863672375 0.0777474080958393 
	0.0465125056783623 0.302605661295341 0.0820297409295374 
	0.044972670994941 0.297437649727205 0.086260401951931 
	0.0434872589997723 0.292266699148373 0.0903415378672426 
	0.0420212774454343 0.286999187045259 0.0943692890851256 
	0.0405681340777172 0.281633598509354 0.0983617676751572 
	0.0391495576298466 0.27626461902065 0.102259274433451 
	0.0377517899756616 0.270860137618463 0.10609960950097 
	0.0363568016298377 0.265365487487044 0.109932308481522 
	0.0349796398622434 0.25984477749458 0.113716029340925 
	0.0336317723045843 0.254357564177152 0.117419265020008 
	0.032323161958871 0.248959770416823 0.121014642395723 
	0.0314490316995759 0.245309433657218 0.123416295544796 
	0.031 0.243423465847537 0.12465 
	0 
	null_surface 
	null_surface 
	nullbs 
	nullbs 
	} #
coedge $-1 $76 $64 $150 $156 0 $65 $-1 #
edge $157 $67 $158 $103 $159 0 #
loop_type-twe-attrib $-1 $-1 $-1 $65 0 #
point $-1 0.031 0.243423465847537 0.12465 #
cur-twe-attrib $-1 $-1 $-1 $68 39 #
loop_type-twe-attrib $-1 $-1 $-1 $69 0 #
loop $160 $-1 $161 $114 #
face $162 $163 $69 $3 $-1 $164 0 #
point $-1 -0.07 -1.4e-16 0 #
cur-twe-attrib $-1 $-1 $-1 $72 41 #
coedge $-1 $165 $94 $73 $118 1 $55 $-1 #
edge $166 $122 $129 $117 $167 0 #
coedge $-1 $168 $74 $76 $124 1 $91 $-1 #
coedge $-1 $74 $168 $165 $169 0 $91 $-1 #
edge_name-twe-attrib $-1 $-1 $-1 $75 9 8704 #
vertex $-1 $169 $170 #
straight-curve $171 -0.076368889701282 0 0 -0.342020143325668 0 -0.939692620785909 #
edge $172 $173 $78 $76 $174 0 #
point $-1 -0.031 0 0.12465 #
cur-twe-attrib $-1 $-1 $-1 $79 44 #
coedge $-1 $140 $80 $94 $139 1 $32 $-1 #
edge_name-twe-attrib $-1 $-1 $-1 $81 5 8704 #
vertex $-1 $139 $175 #
straight-curve $176 0.031 0 -0.12465 1 0 0 #
point $-1 0.031 0 -0.12465 #
cur-twe-attrib $-1 $-1 $-1 $85 47 #
face_name-twe-attrib $-1 $-1 $-1 $90 7 #
face $177 $154 $178 $3 $-1 $179 1 #
plane-surface $180 -0.031 0 0.12465 0 0 1 1 0 0 0 #
loop_type-twe-attrib $-1 $-1 $-1 $91 0 #
surf-twe-attrib $-1 $-1 $-1 $92 54 #
coedge $-1 $94 $165 $181 $182 0 $55 $-1 #
edge $183 $184 $129 $94 $185 0 #
coedge $-1 $96 $127 $153 $186 0 $32 $-1 #
coedge $-1 $153 $98 $96 $142 1 $104 $-1 #
edge $187 $188 $144 $141 $189 0 #
edge_name-twe-attrib $-1 $-1 $-1 $97 4 8448 #
vertex $-1 $97 $190 #
straight-curve $191 0.031 0 -0.12465 0 -1 0 #
edge_name-twe-attrib $-1 $-1 $-1 $99 19 8448 #
intcurve-curve $192 0 { exactcur nubs 3 open 23 
	0 3 0.00826695485962128 1 0.0159619430497088 1 0.0235778552749013 1 0.0321237501675992 1 
	0.0400531688372287 1 0.0478658872957709 1 0.0561561661447363 1 0.0638474345875855 1 0.0721145830165365 1 
	0.0800936192029835 1 0.0881456114245134 1 0.0962878528625873 1 0.104314848826408 1 0.112320859586534 1 
	0.120370986236911 1 0.128447288026459 1 0.136505883833258 1 0.144540458840716 1 0.152575666494026 1 
	0.160621937019489 1 0.168705729071659 1 0.176815559730085 3 
	0.031 0.243423465847537 -0.12465 
	0.0315384712564697 0.245685086702144 -0.123170562381824 
	0.0325830001819052 0.250042025267853 -0.120300742745225 
	0.0341414209282759 0.256445738867061 -0.116019016934558 
	0.0357351597410362 0.262889828330693 -0.111640255533992 
	0.037364788627099 0.269354137775089 -0.107162886967445 
	0.039031582929614 0.275819293301285 -0.10258340725841 
	0.040706631151753 0.282158903343358 -0.097981250091585 
	0.0423950814577936 0.288367106441615 -0.0933422710018668 
	0.044151181474241 0.294610212105356 -0.0885174258603747 
	0.0459253293345849 0.30067400509265 -0.0836429946753039 
	0.0477759196210028 0.306702112199767 -0.0785585396507096 
	0.0496750202961923 0.312543150089145 -0.0733408034283536 
	0.05164836727755 0.318193899871075 -0.0679190771563279 
	0.0537029775389075 0.323570210104652 -0.0622740818574659 
	0.0558513622961088 0.32857778074486 -0.0563714432487542 
	0.0581265012739651 0.333117825788547 -0.0501205502809756 
	0.0605502001173382 0.336996636240785 -0.0434614924372462 
	0.0631267560966635 0.339932508606556 -0.0363824630640917 
	0.0658332643286069 0.341597276913939 -0.0289463928112572 
	0.0686002501361957 0.34172484918545 -0.0213441617849554 
	0.071327112683847 0.340287259597919 -0.0138521685093296 
	0.0739344704196603 0.337518735680453 -0.00668851200574005 
	0.0755734170435142 0.335003135142503 -0.00218554316501056 
	0.076368889701282 0.333625336083217 0 
	0 
	null_surface 
	null_surface 
	nullbs 
	nullbs 
	} #
point $-1 0.076368889701282 0.333625336083217 0 #
cur-twe-attrib $-1 $-1 $-1 $102 61 #
coedge $-1 $103 $193 $107 $156 1 $104 $-1 #
loop_type-twe-attrib $-1 $-1 $-1 $104 0 #
loop $194 $-1 $195 $154 #
coedge $-1 $181 $141 $140 $186 1 $104 $-1 #
face $196 $197 $104 $3 $-1 $198 0 #
cur-twe-attrib $-1 $-1 $-1 $106 63 #
edge $199 $158 $173 $150 $200 0 #
edge_name-twe-attrib $-1 $-1 $-1 $108 17 8448 #
vertex $-1 $108 $201 #
intcurve-curve $202 0 { exactcur nubs 3 open 5 
	0 3 0.00798174903402028 1 0.0159488632824351 1 0.0239118932664188 1 0.0318883767065651 3 
	0.031 0.243423465847537 0.12465 
	0.028545259481335 0.244449599828192 0.12465 
	0.0235556223134668 0.246305809054608 0.12465 
	0.0158521130380988 0.248398578114409 0.12465 
	0.00797656114856855 0.249703729884171 0.12465 
	0.00265882781338209 0.25 0.12465 
	0 0.25 0.12465 
	0 
	null_surface 
	null_surface 
	nullbs 
	nullbs 
	} #
loop_type-twe-attrib $-1 $-1 $-1 $113 1 #
coedge $-1 $161 $161 $203 $204 1 $113 $-1 #
face_name-twe-attrib $-1 $-1 $-1 $114 12 #
face $205 $206 $207 $3 $-1 $208 0 #
cone-surface $209 0 -0.39501 0 0 1 0 0.07 0 0 1 0 1 0 #
coedge $-1 $138 $117 $120 $169 1 $55 $-1 #
edge_name-twe-attrib $-1 $-1 $-1 $118 7 8704 #
straight-curve $210 -0.031 0 -0.12465 0.342020143325668 0 -0.939692620785909 #
coedge $-1 $120 $119 $193 $211 0 $91 $-1 #
edge $212 $213 $122 $120 $214 0 #
point $-1 -0.076368889701282 0 0 #
cur-twe-attrib $-1 $-1 $-1 $123 75 #
edge_name-twe-attrib $-1 $-1 $-1 $124 11 8448 #
vertex $-1 $124 $215 #
straight-curve $216 -0.031 0 0.12465 0 -1 0 #
point $-1 -0.031 0 -0.12465 #
cur-twe-attrib $-1 $-1 $-1 $130 81 #
face_name-twe-attrib $-1 $-1 $-1 $134 8 #
loop $217 $-1 $218 $134 #
plane-surface $219 0 0.3738 0 0 -1 0 0 0 -1 0 #
surf-twe-attrib $-1 $-1 $-1 $135 90 #
coedge $-1 $193 $153 $138 $182 1 $104 $-1 #
edge $220 $213 $184 $181 $221 0 #
edge_name-twe-attrib $-1 $-1 $-1 $139 6 8448 #
vertex $-1 $139 $222 #
straight-curve $223 -0.031 0 -0.12465 0 -1 0 #
edge $224 $184 $188 $153 $225 0 #
edge_name-twe-attrib $-1 $-1 $-1 $142 20 8448 #
vertex $-1 $186 $226 #
intcurve-curve $227 0 { exactcur nubs 3 open 5 
	0 3 0.00797648344014627 1 0.01593951342413 1 0.0239066276725448 1 0.0318883767065651 3 
	0 0.25 -0.12465 
	0.00265882781338209 0.25 -0.12465 
	0.00797656114856855 0.249703729884171 -0.12465 
	0.0158521130380988 0.248398578114409 -0.12465 
	0.0235556223134667 0.246305809054608 -0.12465 
	0.028545259481335 0.244449599828192 -0.12465 
	0.031 0.243423465847537 -0.12465 
	0 
	null_surface 
	null_surface 
	nullbs 
	nullbs 
	} #
point $-1 0.031 0.243423465847537 -0.12465 #
cur-twe-attrib $-1 $-1 $-1 $145 97 #
cur-twe-attrib $-1 $-1 $-1 $147 99 #
coedge $-1 $150 $181 $168 $211 1 $104 $-1 #
loop_type-twe-attrib $-1 $-1 $-1 $152 1 #
coedge $-1 $195 $195 $218 $228 0 $152 $-1 #
face_name-twe-attrib $-1 $-1 $-1 $154 9 #
face $229 $230 $231 $3 $-1 $232 0 #
cone-surface $233 0 0.3738 0 0 -1 0 0 0 0.053174036674324 1 0.499999999999999 0.866025403784439 0 #
edge_name-twe-attrib $-1 $-1 $-1 $156 16 8448 #
intcurve-curve $234 0 { exactcur nubs 3 open 5 
	0 3 0.00797648344014627 1 0.01593951342413 1 0.0239066276725448 1 0.0318883767065651 3 
	0 0.25 0.12465 
	-0.00265882781338209 0.25 0.12465 
	-0.00797656114856855 0.249703729884171 0.12465 
	-0.0158521130380988 0.248398578114409 0.12465 
	-0.0235556223134668 0.246305809054608 0.12465 
	-0.028545259481335 0.244449599828192 0.12465 
	-0.031 0.243423465847537 0.12465 
	0 
	null_surface 
	null_surface 
	nullbs 
	nullbs 
	} #
point $-1 0 0.25 0.12465 #
cur-twe-attrib $-1 $-1 $-1 $159 108 #
coedge $-1 $203 $203 $161 $204 0 $235 $-1 #
edge $236 $237 $237 $203 $238 0 #
face_name-twe-attrib $-1 $-1 $-1 $163 13 #
face $239 $-1 $240 $3 $-1 $241 0 #
loop $242 $243 $244 $163 #
cone-surface $245 0 -0.39501 0 0 1 0 0.0939 0 0 1 0 1 0 #
surf-twe-attrib $-1 $-1 $-1 $164 114 #
cur-twe-attrib $-1 $-1 $-1 $167 118 #
edge $246 $173 $213 $193 $247 0 #
edge_name-twe-attrib $-1 $-1 $-1 $169 8 8448 #
vertex $-1 $169 $248 #
straight-curve $249 -0.076368889701282 0 0 0 -1 0 #
point $-1 -0.031 0.243423465847537 0.12465 #
cur-twe-attrib $-1 $-1 $-1 $174 124 #
loop_type-twe-attrib $-1 $-1 $-1 $178 0 #
coedge $-1 $218 $218 $195 $228 1 $178 $-1 #
surf-twe-attrib $-1 $-1 $-1 $179 134 #
edge_name-twe-attrib $-1 $-1 $-1 $182 14 8448 #
intcurve-curve $250 0 { exactcur nubs 3 open 27 
	0 3 0.00684128953533753 1 0.0136860498067987 1 0.0205047049666559 1 0.0273124195984721 1 
	0.0341183496579934 1 0.0409212683801054 1 0.0477423506255562 1 0.0545714657095333 1 0.0613843067571363 1 
	0.0681699652000557 1 0.0749530128202088 1 0.0818258747265725 1 0.0886512621269449 1 0.0953639016279495 1 
	0.102356238156192 1 0.108973681829869 1 0.115924841692854 1 0.12261375102636 1 0.129346208829572 1 
	0.136456469588269 1 0.14296666573348 1 0.149673079093871 1 0.156985244880647 1 0.163465749969179 1 
	0.169940201516213 1 0.176834023138689 3 
	-0.076368889701282 0.333625336083217 0 
	-0.0756978450150924 0.334787619573846 -0.00184368012275089 
	-0.074319652299786 0.336944049243564 -0.0056302334877125 
	-0.0721450451499625 0.339496658608913 -0.0116049175280357 
	-0.069873904333634 0.341171350208451 -0.0178448256373036 
	-0.0675436450628507 0.341790210594111 -0.024247160365253 
	-0.0652121178206289 0.341275261352288 -0.0306529788160999 
	-0.0629376954847 0.339695711465856 -0.0369019028263677 
	-0.0607580558500932 0.337224591075219 -0.0428904135050013 
	-0.0586871137521652 0.334059826893306 -0.0485802801560524 
	-0.056724825868021 0.330379776667827 -0.0539716218082124 
	-0.054860244084057 0.326318443921896 -0.0590945181563775 
	-0.0530708954615099 0.321948571881961 -0.0640107130923563 
	-0.0513475678140243 0.317339149425065 -0.0687455168901477 
	-0.049689197314366 0.312564654896079 -0.0733018523910467 
	-0.0480711473630499 0.30761863672375 -0.0777474080958393 
	-0.0465125056783623 0.302605661295341 -0.0820297409295375 
	-0.044972670994941 0.297437649727205 -0.086260401951931 
	-0.0434872589997722 0.292266699148373 -0.090341537867243 
	-0.0420212774454344 0.286999187045258 -0.094369289085125 
	-0.0405681340777172 0.281633598509354 -0.0983617676751573 
	-0.0391495576298464 0.276264619020651 -0.102259274433452 
	-0.0377517899756618 0.270860137618463 -0.10609960950097 
	-0.0363568016298377 0.265365487487045 -0.109932308481522 
	-0.0349796398622432 0.25984477749458 -0.113716029340925 
	-0.0336317723045845 0.254357564177151 -0.117419265020007 
	-0.0323231619588708 0.248959770416823 -0.121014642395723 
	-0.0314490316995759 0.245309433657218 -0.123416295544796 
	-0.031 0.243423465847537 -0.12465 
	0 
	null_surface 
	null_surface 
	nullbs 
	nullbs 
	} #
point $-1 -0.031 0.243423465847537 -0.12465 #
cur-twe-attrib $-1 $-1 $-1 $185 139 #
edge_name-twe-attrib $-1 $-1 $-1 $186 13 8448 #
intcurve-curve $251 0 { exactcur nubs 3 open 5 
	0 3 0.00798174903402028 1 0.0159488632824351 1 0.0239118932664188 1 0.0318883767065651 3 
	-0.031 0.243423465847537 -0.12465 
	-0.028545259481335 0.244449599828192 -0.12465 
	-0.0235556223134668 0.246305809054608 -0.12465 
	-0.0158521130380988 0.248398578114409 -0.12465 
	-0.00797656114856855 0.249703729884171 -0.12465 
	-0.00265882781338209 0.25 -0.12465 
	0 0.25 -0.12465 
	0 
	null_surface 
	null_surface 
	nullbs 
	nullbs 
	} #
point $-1 0 0.25 -0.12465 #
cur-twe-attrib $-1 $-1 $-1 $189 142 #
edge $252 $253 $253 $195 $254 0 #
face_name-twe-attrib $-1 $-1 $-1 $197 10 #
face $255 $114 $256 $3 $-1 $257 1 #
loop $258 $235 $259 $197 #
plane-surface $260 0 -0.03 0 0 1 0 0 0 1 0 #
surf-twe-attrib $-1 $-1 $-1 $198 154 #
cur-twe-attrib $-1 $-1 $-1 $200 156 #
loop $261 $-1 $203 $197 #
edge_name-twe-attrib $-1 $-1 $-1 $204 22 4608 #
vertex $-1 $204 $262 #
ellipse-curve $263 0 -0.03 0 0 -1 0 -0.07 0 0 1 #
face_name-twe-attrib $-1 $-1 $-1 $206 14 #
loop $264 $265 $266 $206 #
cone-surface $267 0 -0.3562 0 0 1 0 -0.0939 0 0 1 0.707106781186547 0.707106781186548 0 #
loop_type-twe-attrib $-1 $-1 $-1 $207 0 #
loop $268 $-1 $269 $163 #
coedge $-1 $244 $244 $259 $270 1 $207 $-1 #
surf-twe-attrib $-1 $-1 $-1 $208 163 #
edge_name-twe-attrib $-1 $-1 $-1 $211 15 8448 #
intcurve-curve $271 0 { exactcur nubs 3 open 23 
	0 3 0.00826695485962128 1 0.0159619430497088 1 0.0235778552749013 1 0.0321237501675992 1 
	0.0400531688372287 1 0.0478658872957709 1 0.0561561661447363 1 0.0638474345875855 1 0.0721145830165365 1 
	0.0800936192029835 1 0.0881456114245134 1 0.0962878528625873 1 0.104314848826408 1 0.112320859586534 1 
	0.120370986236911 1 0.128447288026459 1 0.136505883833258 1 0.144540458840716 1 0.152575666494026 1 
	0.160621937019489 1 0.168705729071659 1 0.176815559730085 3 
	-0.031 0.243423465847537 0.12465 
	-0.0315384712564697 0.245685086702144 0.123170562381824 
	-0.0325830001819052 0.250042025267853 0.120300742745225 
	-0.0341414209282759 0.256445738867061 0.116019016934558 
	-0.0357351597410362 0.262889828330693 0.111640255533992 
	-0.037364788627099 0.269354137775089 0.107162886967445 
	-0.039031582929614 0.275819293301285 0.10258340725841 
	-0.040706631151753 0.282158903343358 0.097981250091585 
	-0.0423950814577936 0.288367106441615 0.0933422710018668 
	-0.044151181474241 0.294610212105356 0.0885174258603747 
	-0.0459253293345849 0.30067400509265 0.0836429946753039 
	-0.0477759196210028 0.306702112199767 0.0785585396507096 
	-0.0496750202961923 0.312543150089145 0.0733408034283536 
	-0.05164836727755 0.318193899871075 0.0679190771563279 
	-0.0537029775389075 0.323570210104652 0.0622740818574659 
	-0.0558513622961088 0.32857778074486 0.0563714432487542 
	-0.0581265012739651 0.333117825788547 0.0501205502809756 
	-0.0605502001173382 0.336996636240785 0.0434614924372462 
	-0.0631267560966635 0.339932508606556 0.0363824630640917 
	-0.0658332643286069 0.341597276913939 0.0289463928112572 
	-0.0686002501361957 0.34172484918545 0.0213441617849554 
	-0.071327112683847 0.340287259597919 0.0138521685093296 
	-0.0739344704196603 0.337518735680453 0.00668851200574005 
	-0.0755734170435142 0.335003135142503 0.00218554316501056 
	-0.076368889701282 0.333625336083217 0 
	0 
	null_surface 
	null_surface 
	nullbs 
	nullbs 
	} #
point $-1 -0.076368889701282 0.333625336083217 0 #
cur-twe-attrib $-1 $-1 $-1 $214 169 #
cur-twe-attrib $-1 $-1 $-1 $221 182 #
cur-twe-attrib $-1 $-1 $-1 $225 186 #
edge_name-twe-attrib $-1 $-1 $-1 $228 21 8448 #
vertex $-1 $228 $272 #
ellipse-curve $273 0 0.3738 0 0 -1 0 0 0 0.053174036674324 1 #
face_name-twe-attrib $-1 $-1 $-1 $230 11 #
loop $274 $-1 $275 $230 #
plane-surface $276 0 -0.3762 0 0 1 0 0 0 1 0 #
loop_type-twe-attrib $-1 $-1 $-1 $231 0 #
coedge $-1 $259 $259 $244 $270 0 $231 $-1 #
surf-twe-attrib $-1 $-1 $-1 $232 197 #
loop_type-twe-attrib $-1 $-1 $-1 $235 1 #
point $-1 0.07 -0.03 -8.5725261152116e-18 #
cur-twe-attrib $-1 $-1 $-1 $238 204 #
loop_type-twe-attrib $-1 $-1 $-1 $240 0 #
loop $277 $-1 $278 $206 #
coedge $-1 $266 $266 $269 $279 1 $240 $-1 #
surf-twe-attrib $-1 $-1 $-1 $241 206 #
loop_type-twe-attrib $-1 $-1 $-1 $243 1 #
coedge $-1 $269 $269 $266 $279 0 $243 $-1 #
edge $280 $281 $281 $244 $282 0 #
cur-twe-attrib $-1 $-1 $-1 $247 211 #
point $-1 0 0.3738 0.053174036674324 #
cur-twe-attrib $-1 $-1 $-1 $254 228 #
loop_type-twe-attrib $-1 $-1 $-1 $256 0 #
coedge $-1 $275 $275 $278 $283 0 $256 $-1 #
surf-twe-attrib $-1 $-1 $-1 $257 230 #
loop_type-twe-attrib $-1 $-1 $-1 $265 1 #
coedge $-1 $278 $278 $275 $283 1 $265 $-1 #
edge $284 $285 $285 $266 $286 0 #
edge_name-twe-attrib $-1 $-1 $-1 $270 25 8704 #
vertex $-1 $270 $287 #
ellipse-curve $288 0 -0.03 0 0 1 0 -0.0939 0 0 1 #
edge $289 $290 $290 $275 $291 0 #
edge_name-twe-attrib $-1 $-1 $-1 $279 26 8448 #
vertex $-1 $279 $292 #
ellipse-curve $293 0 -0.3562 0 0 1 0 -0.0939 0 0 1 #
point $-1 -0.0939 -0.03 0 #
cur-twe-attrib $-1 $-1 $-1 $282 270 #
edge_name-twe-attrib $-1 $-1 $-1 $283 23 8448 #
vertex $-1 $283 $294 #
ellipse-curve $295 0 -0.3762 0 0 -1 0 -0.0739 0 0 1 #
point $-1 0.0939 -0.3562 1.14994314602624e-17 #
cur-twe-attrib $-1 $-1 $-1 $286 279 #
point $-1 0.0739 -0.3762 -9.05013828448768e-18 #
cur-twe-attrib $-1 $-1 $-1 $291 283 #
