700 0 2 0           
24 FBMach with ACIS - 7.0.3 13 ACIS 7.0.3 NT 24 Tue May 14 12:05:10 2002 
1 9.9999999999999995e-007 1e-010 
body $2 -1 $-1 $3 $-1 $4 #
bdycol-kcp $-1 -1 1 2 $5 $6 #
model_id-kcp-attrib $-1 -1 $-1 $-1 $0 1 1021392309 1021392309 40304641 1 #
lump $-1 -1 $-1 $-1 $7 $0 #
transform $-1 -1 1 0 0 0 1 0 0 0 1 0 0 0 1 rotate no_reflect no_shear #
body $8 -1 $-1 $9 $-1 $10 #
body $11 -1 $-1 $12 $-1 $13 #
shell $-1 -1 $-1 $-1 $-1 $14 $-1 $3 #
model_id-kcp-attrib $-1 -1 $-1 $-1 $5 1 1021392309 1021392309 40304642 1 #
lump $-1 -1 $-1 $-1 $15 $5 #
transform $-1 -1 1 0 0 0 1 0 0 0 1 0 -0.0011999999999999789 0 1 no_rotate no_reflect no_shear #
rgb_color-st-attrib $-1 -1 $16 $-1 $6 1 1 0.5 #
lump $-1 -1 $-1 $-1 $17 $6 #
transform $-1 -1 1 0 0 0 0 1 0 -1 0 0 -0.36619999999999997 0 1 rotate no_reflect no_shear #
face $18 -1 $-1 $19 $20 $7 $-1 $21 reversed single #
shell $-1 -1 $-1 $-1 $-1 $22 $-1 $9 #
model_id-kcp-attrib $-1 -1 $-1 $11 $6 1 1021392309 1021392309 41615363 1 #
shell $-1 -1 $-1 $-1 $-1 $23 $-1 $12 #
model_id-kcp-attrib $-1 -1 $24 $-1 $14 1 1021392309 1021392309 40304641 2 #
face $25 -1 $-1 $26 $27 $7 $-1 $28 forward single #
loop $29 -1 $-1 $30 $31 $14 #
plane-surface $32 -1 $-1 0 0 0 0 1 0 0 0 1 forward_v I I I I #
face $33 -1 $-1 $34 $35 $15 $-1 $36 forward single #
face $-1 -1 $-1 $37 $38 $17 $-1 $39 reversed single #
face_name-twe-attrib $-1 -1 $-1 $18 $14 1 #
model_id-kcp-attrib $-1 -1 $40 $-1 $19 1 1021392309 1021392309 40304641 3 #
face $41 -1 $-1 $42 $43 $7 $-1 $44 forward single #
loop $45 -1 $-1 $-1 $46 $19 #
plane-surface $47 -1 $-1 0.031 0 0.12465 0.93969262078590876 0 0.34202014332566794 0.34202014332566799 0 -0.93969262078590898 forward_v I I I I #
loop_type-twe-attrib $-1 -1 $-1 $-1 $20 0 #
loop $48 -1 $-1 $-1 $49 $14 #
coedge $-1 -1 $-1 $50 $51 $52 $53 forward $20 $-1 #
surf-twe-attrib $-1 -1 $-1 $-1 $21 4 #
model_id-kcp-attrib $-1 -1 $-1 $-1 $22 1 1021392309 1021392309 40304642 3 #
face $54 -1 $-1 $55 $56 $15 $-1 $57 reversed single #
loop $-1 -1 $-1 $-1 $58 $22 #
plane-surface $-1 -1 $-1 0 0 0.12465000000000001 0 0 1 1 0 0 forward_v I I I I #
face $-1 -1 $-1 $59 $60 $17 $-1 $61 forward single #
loop $-1 -1 $-1 $62 $63 $23 #
cone-surface $-1 -1 $-1 0 0 0.036950000000000149 0 0 1 0.046949999999999999 0 0 1 I I -0.70710678118654702 0.70710678118654813 0.046949999999999999 forward I I I I #
face_name-twe-attrib $-1 -1 $-1 $25 $19 2 #
model_id-kcp-attrib $-1 -1 $64 $-1 $26 1 1021392309 1021392309 40304641 4 #
face $65 -1 $-1 $66 $67 $7 $-1 $68 forward single #
loop $69 -1 $-1 $-1 $70 $26 #
plane-surface $71 -1 $-1 0.076368889701282 0 0 0.93969262078590876 0 -0.34202014332566794 -0.34202014332566799 0 -0.93969262078590898 forward_v I I I I #
loop_type-twe-attrib $-1 -1 $-1 $-1 $27 0 #
coedge $-1 -1 $-1 $52 $72 $73 $74 forward $27 $-1 #
surf-twe-attrib $-1 -1 $-1 $-1 $28 6 #
loop_type-twe-attrib $-1 -1 $-1 $-1 $30 1 #
coedge $-1 -1 $-1 $49 $49 $75 $76 reversed $30 $-1 #
coedge $-1 -1 $-1 $77 $31 $78 $79 forward $20 $-1 #
coedge $-1 -1 $-1 $31 $80 $81 $82 forward $20 $-1 #
coedge $-1 -1 $-1 $83 $46 $31 $53 reversed $27 $-1 #
edge $84 -1 $-1 $85 -0.13264975933912238 $86 0 $52 $87 forward @7 unknown #
model_id-kcp-attrib $-1 -1 $-1 $-1 $34 1 1021392309 1021392309 40304642 2 #
face $88 -1 $-1 $89 $90 $15 $-1 $91 reversed single #
loop $-1 -1 $-1 $-1 $92 $34 #
plane-surface $-1 -1 $-1 0 0 -0.12465000000000001 0 0 1 1 0 0 forward_v I I I I #
coedge $-1 -1 $-1 $93 $94 $95 $96 forward $35 $-1 #
face $-1 -1 $-1 $-1 $97 $17 $-1 $98 forward single #
loop $-1 -1 $-1 $99 $100 $37 #
cone-surface $-1 -1 $-1 0 0 0 0 0 1 0.093899999999999997 0 0 1 I I 0 1 0.093899999999999997 forward I I I I #
loop $-1 -1 $-1 $-1 $101 $23 #
coedge $-1 -1 $-1 $63 $63 $102 $103 reversed $38 $-1 #
face_name-twe-attrib $-1 -1 $-1 $41 $26 3 #
model_id-kcp-attrib $-1 -1 $104 $-1 $42 1 1021392309 1021392309 40304641 5 #
face $105 -1 $-1 $106 $107 $7 $-1 $108 forward single #
loop $109 -1 $-1 $-1 $110 $42 #
plane-surface $111 -1 $-1 0.031 0 -0.12465 0 0 -1 -1 0 0 forward_v I I I I #
loop_type-twe-attrib $-1 -1 $-1 $-1 $43 0 #
coedge $-1 -1 $-1 $81 $112 $83 $113 forward $43 $-1 #
surf-twe-attrib $-1 -1 $-1 $-1 $44 10 #
coedge $-1 -1 $-1 $46 $83 $114 $115 forward $27 $-1 #
coedge $-1 -1 $-1 $116 $78 $46 $74 reversed $117 $-1 #
edge $118 -1 $-1 $119 -0.24342346584753699 $86 0 $73 $120 forward @7 unknown #
coedge $-1 -1 $-1 $75 $75 $49 $76 forward $121 $-1 #
edge $122 -1 $-1 $123 0 $123 6.2831853071795862 $75 $124 forward @7 unknown #
coedge $-1 -1 $-1 $125 $50 $126 $127 forward $20 $-1 #
coedge $-1 -1 $-1 $73 $128 $50 $79 reversed $117 $-1 #
edge $129 -1 $-1 $86 -0.062 $130 0 $78 $131 forward @7 unknown #
coedge $-1 -1 $-1 $51 $125 $132 $133 forward $20 $-1 #
coedge $-1 -1 $-1 $134 $70 $51 $82 reversed $43 $-1 #
edge $135 -1 $-1 $136 -0.13264975933912238 $85 0 $81 $137 forward @7 unknown #
coedge $-1 -1 $-1 $72 $52 $70 $113 reversed $27 $-1 #
edge_name-twe-attrib $-1 -1 $-1 $-1 $53 1 8704 #
vertex $-1 -1 $-1 $113 $138 #
vertex $-1 -1 $-1 $74 $139 #
straight-curve $140 -1 $-1 0.031 0 0.12465 -0.34202014332566799 0 0.93969262078590898 I I #
model_id-kcp-attrib $-1 -1 $-1 $-1 $55 1 1021392309 1021392309 40304642 5 #
face $-1 -1 $-1 $141 $142 $15 $-1 $143 reversed single #
loop $-1 -1 $-1 $-1 $144 $55 #
plane-surface $-1 -1 $-1 0 -0.375 0 0 1 0 0 0 1 forward_v I I I I #
coedge $-1 -1 $-1 $145 $146 $147 $148 forward $56 $-1 #
coedge $-1 -1 $-1 $149 $58 $150 $151 forward $35 $-1 #
coedge $-1 -1 $-1 $58 $149 $152 $153 forward $35 $-1 #
coedge $-1 -1 $-1 $154 $155 $58 $96 reversed $156 $-1 #
edge $-1 -1 $-1 $157 -0.375 $158 0.375 $95 $159 forward @7 unknown #
loop $-1 -1 $-1 $160 $102 $59 #
plane-surface $-1 -1 $-1 0 0 0.0099999999999999811 0 0 1 1 0 0 forward_v I I I I #
loop $-1 -1 $-1 $-1 $161 $37 #
coedge $-1 -1 $-1 $100 $100 $101 $162 reversed $60 $-1 #
coedge $-1 -1 $-1 $101 $101 $100 $162 forward $62 $-1 #
coedge $-1 -1 $-1 $102 $102 $63 $103 forward $97 $-1 #
edge $-1 -1 $-1 $163 -3.1415926535897931 $163 3.1415926535897931 $102 $164 forward @7 unknown #
face_name-twe-attrib $-1 -1 $-1 $65 $42 4 #
model_id-kcp-attrib $-1 -1 $165 $-1 $66 1 1021392309 1021392309 40304641 6 #
face $166 -1 $-1 $167 $168 $7 $-1 $169 forward single #
loop $170 -1 $-1 $-1 $171 $66 #
plane-surface $172 -1 $-1 -0.031 0 -0.12465 -0.93969262078590876 0 -0.34202014332566794 -0.34202014332566799 0 0.93969262078590898 forward_v I I I I #
loop_type-twe-attrib $-1 -1 $-1 $-1 $67 0 #
coedge $-1 -1 $-1 $132 $173 $134 $174 forward $67 $-1 #
surf-twe-attrib $-1 -1 $-1 $-1 $68 18 #
coedge $-1 -1 $-1 $70 $134 $175 $176 forward $43 $-1 #
edge $177 -1 $-1 $178 -0.33362533608321698 $85 0 $70 $179 forward @7 unknown #
coedge $-1 -1 $-1 $175 $180 $72 $115 reversed $181 $-1 #
edge $182 -1 $-1 $178 0 $119 0.17683402313868901 $114 $183 forward @7 unknown #
coedge $-1 -1 $-1 $184 $73 $180 $185 forward $117 $-1 #
loop $186 -1 $-1 $-1 $73 $167 #
edge_name-twe-attrib $-1 -1 $-1 $-1 $74 10 8448 #
vertex $-1 -1 $-1 $74 $187 #
straight-curve $188 -1 $-1 0.031 0 0.12465 0 -1 0 I I #
loop $189 -1 $-1 $190 $75 $191 #
edge_name-twe-attrib $-1 -1 $-1 $-1 $76 24 4608 #
vertex $-1 -1 $-1 $76 $192 #
ellipse-curve $193 -1 $-1 0 0 0 2.0000000000000002e-015 -1 0 -0.070000000000000007 -1.4000000000000001e-016 0 1 I I #
coedge $-1 -1 $-1 $80 $77 $194 $195 forward $20 $-1 #
coedge $-1 -1 $-1 $196 $197 $77 $127 reversed $168 $-1 #
edge $198 -1 $-1 $130 -0.13264975933912238 $199 0 $126 $200 forward @7 unknown #
coedge $-1 -1 $-1 $78 $184 $196 $201 forward $117 $-1 #
edge_name-twe-attrib $-1 -1 $-1 $-1 $79 12 8704 #
vertex $-1 -1 $-1 $201 $202 #
straight-curve $203 -1 $-1 -0.031 0 0.12465 -1 0 0 I I #
coedge $-1 -1 $-1 $204 $110 $80 $133 reversed $67 $-1 #
edge $205 -1 $-1 $206 -0.062 $136 0 $132 $207 forward @7 unknown #
coedge $-1 -1 $-1 $112 $81 $110 $174 reversed $43 $-1 #
edge_name-twe-attrib $-1 -1 $-1 $-1 $82 3 8704 #
vertex $-1 -1 $-1 $174 $208 #
straight-curve $209 -1 $-1 0.076368889701282 0 0 0.34202014332566799 0 0.93969262078590898 I I #
point $-1 -1 $-1 0.076368889701282 0 0 #
point $-1 -1 $-1 0.031 0 0.12465 #
cur-twe-attrib $-1 -1 $-1 $-1 $87 29 #
face $210 -1 $-1 $211 $212 $15 $-1 $213 reversed single #
loop $-1 -1 $-1 $-1 $214 $89 #
plane-surface $-1 -1 $-1 -0.093899999999999997 0 0 1 0 0 0 0 -1 forward_v I I I I #
coedge $-1 -1 $-1 $215 $152 $216 $217 forward $90 $-1 #
coedge $-1 -1 $-1 $218 $92 $215 $219 forward $56 $-1 #
coedge $-1 -1 $-1 $92 $218 $220 $221 forward $56 $-1 #
coedge $-1 -1 $-1 $155 $154 $92 $148 reversed $156 $-1 #
edge $-1 -1 $-1 $222 -0.375 $223 0.375 $147 $224 forward @7 unknown #
coedge $-1 -1 $-1 $94 $93 $225 $226 forward $35 $-1 #
coedge $-1 -1 $-1 $227 $228 $93 $151 reversed $212 $-1 #
edge $-1 -1 $-1 $158 -0.093899999999999997 $229 0.093899999999999997 $150 $230 forward @7 unknown #
coedge $-1 -1 $-1 $144 $231 $94 $153 reversed $90 $-1 #
edge $-1 -1 $-1 $232 -0.093899999999999997 $157 0.093899999999999997 $152 $233 forward @7 unknown #
coedge $-1 -1 $-1 $147 $95 $231 $234 forward $156 $-1 #
coedge $-1 -1 $-1 $95 $147 $227 $235 reversed $156 $-1 #
loop $-1 -1 $-1 $-1 $154 $211 #
vertex $-1 -1 $-1 $96 $236 #
vertex $-1 -1 $-1 $96 $237 #
straight-curve $-1 -1 $-1 0.093899999999999997 0 0.12465000000000001 0 1 0 I I #
loop $-1 -1 $-1 $-1 $238 $59 #
coedge $-1 -1 $-1 $161 $161 $238 $239 reversed $99 $-1 #
edge $-1 -1 $-1 $240 0 $240 6.2831853071795862 $100 $241 forward @7 unknown #
vertex $-1 -1 $-1 $103 $242 #
ellipse-curve $-1 -1 $-1 0 0 0.0099999999999999811 0 0 -1 0.073900000000000132 0 0 1 I I #
face_name-twe-attrib $-1 -1 $-1 $105 $66 5 #
model_id-kcp-attrib $-1 -1 $243 $-1 $106 1 1021392309 1021392309 40304641 7 #
face $244 -1 $-1 $245 $117 $7 $-1 $246 forward single #
loop $247 -1 $-1 $-1 $197 $106 #
plane-surface $248 -1 $-1 -0.076368889701282 0 0 -0.93969262078590876 0 0.34202014332566794 0.34202014332566799 0 0.93969262078590898 forward_v I I I I #
loop_type-twe-attrib $-1 -1 $-1 $-1 $107 0 #
coedge $-1 -1 $-1 $194 $249 $204 $250 forward $107 $-1 #
surf-twe-attrib $-1 -1 $-1 $-1 $108 31 #
coedge $-1 -1 $-1 $110 $251 $252 $253 forward $67 $-1 #
edge $254 -1 $-1 $255 -0.24342346584753699 $136 0 $110 $256 forward @7 unknown #
coedge $-1 -1 $-1 $252 $114 $112 $176 reversed $181 $-1 #
edge $257 -1 $-1 $255 0 $178 0.176815559730085 $175 $258 forward @7 unknown #
edge_name-twe-attrib $-1 -1 $-1 $-1 $113 2 8448 #
vertex $-1 -1 $-1 $113 $259 #
straight-curve $260 -1 $-1 0.076368889701282 0 0 0 -1 0 I I #
coedge $-1 -1 $-1 $114 $261 $116 $185 reversed $181 $-1 #
loop $262 -1 $-1 $263 $264 $265 #
edge_name-twe-attrib $-1 -1 $-1 $-1 $115 18 8448 #
intcurve-curve $266 -1 $-1 forward { exactcur full nubs 3 open 27 
	0 3 0.0068412895353375299 1 0.0136860498067987 1 0.0205047049666559 1 0.027312419598472099 1 
	0.034118349657993402 1 0.040921268380105402 1 0.0477423506255562 1 0.0545714657095333 1 0.061384306757136298 1 
	0.068169965200055693 1 0.074953012820208803 1 0.081825874726572503 1 0.088651262126944894 1 0.095363901627949499 1 
	0.10235623815619201 1 0.108973681829869 1 0.115924841692854 1 0.12261375102635901 1 0.12934620882957201 1 
	0.13645646958827001 1 0.14296666573347999 1 0.14967307909387101 1 0.156985244880647 1 0.16346574996917801 1 
	0.169940201516213 1 0.17683402313868901 3 
	0.076368889701282 0.33362533608321698 0 
	0.075697845015092399 0.33478761957384601 0.0018436801227508901 
	0.074319652299786002 0.33694404924356403 0.0056302334877124998 
	0.072145045149962506 0.33949665860891298 0.0116049175280357 
	0.069873904333633996 0.34117135020845102 0.0178448256373036 
	0.067543645062850696 0.34179021059411102 0.024247160365253002 
	0.065212117820628898 0.34127526135228797 0.0306529788160999 
	0.062937695484700004 0.33969571146585598 0.036901902826367697 
	0.060758055850093202 0.33722459107521902 0.0428904135050013 
	0.058687113752165197 0.33405982689330599 0.048580280156052397 
	0.056724825868021002 0.33037977666782697 0.053971621808212397 
	0.054860244084057 0.32631844392189602 0.0590945181563775 
	0.0530708954615099 0.32194857188196102 0.0640107130923563 
	0.051347567814024303 0.31733914942506503 0.068745516890147698 
	0.049689197314366003 0.31256465489607899 0.073301852391046696 
	0.048071147363049897 0.30761863672375001 0.077747408095839299 
	0.046512505678362299 0.302605661295341 0.082029740929537395 
	0.044972670994940997 0.29743764972720499 0.086260401951931007 
	0.043487258999772301 0.292266699148373 0.090341537867242597 
	0.042021277445434303 0.28699918704525901 0.094369289085125596 
	0.040568134077717199 0.28163359850935399 0.098361767675157197 
	0.0391495576298466 0.27626461902065003 0.10225927443345099 
	0.037751789975661601 0.270860137618463 0.10609960950097 
	0.036356801629837697 0.26536548748704403 0.109932308481522 
	0.034979639862243402 0.25984477749458001 0.11371602934092501 
	0.0336317723045843 0.254357564177152 0.117419265020008 
	0.032323161958871 0.24895977041682299 0.121014642395723 
	0.0314490316995759 0.245309433657218 0.123416295544796 
	0.031 0.24342346584753699 0.12465 
	0 
	null_surface 
	null_surface 
	nullbs 
	nullbs 
	I I 
	0 
	0 
	25 0.0068412895353375299 0.0136860498067987 0.0205047049666559 0.027312419598472099 0.034118349657993402 0.040921268380105402 0.0477423506255562 0.0545714657095333 0.061384306757136298 0.068169965200055693 0.074953012820208803 0.081825874726572503 0.088651262126944894 0.095363901627949499 0.10235623815619201 0.108973681829869 0.115924841692854 0.12261375102635901 0.12934620882957201 0.13645646958827001 0.14296666573347999 0.14967307909387101 0.156985244880647 0.16346574996917801 0.169940201516213 
	F 1 F 0 } I I #
coedge $-1 -1 $-1 $128 $116 $261 $267 forward $117 $-1 #
edge $268 -1 $-1 $119 0 $269 0.031888376706565101 $180 $270 forward @7 unknown #
loop_type-twe-attrib $-1 -1 $-1 $-1 $117 0 #
point $-1 -1 $-1 0.031 0.24342346584753699 0.12465 #
cur-twe-attrib $-1 -1 $-1 $-1 $120 39 #
loop_type-twe-attrib $-1 -1 $-1 $-1 $121 0 #
loop $271 -1 $-1 $-1 $272 $191 #
face $273 -1 $-1 $274 $121 $7 $-1 $275 forward single #
point $-1 -1 $-1 -0.070000000000000007 -1.4000000000000001e-016 0 #
cur-twe-attrib $-1 -1 $-1 $-1 $124 41 #
coedge $-1 -1 $-1 $276 $171 $125 $195 reversed $107 $-1 #
edge $277 -1 $-1 $199 -0.13264975933912238 $206 0 $194 $278 forward @7 unknown #
coedge $-1 -1 $-1 $279 $126 $128 $201 reversed $168 $-1 #
coedge $-1 -1 $-1 $126 $279 $276 $280 forward $168 $-1 #
edge_name-twe-attrib $-1 -1 $-1 $-1 $127 9 8704 #
vertex $-1 -1 $-1 $280 $281 #
straight-curve $282 -1 $-1 -0.076368889701282 0 0 -0.34202014332566799 0 -0.93969262078590898 I I #
edge $283 -1 $-1 $284 -0.24342346584753699 $130 0 $128 $285 forward @7 unknown #
point $-1 -1 $-1 -0.031 0 0.12465 #
cur-twe-attrib $-1 -1 $-1 $-1 $131 44 #
coedge $-1 -1 $-1 $251 $132 $171 $250 reversed $67 $-1 #
attrib_edge_convexity-kcp-attrib $-1 -1 $286 $-1 $133 1 #
vertex $-1 -1 $-1 $250 $287 #
straight-curve $288 -1 $-1 0.031 0 -0.12465 1 0 0 I I #
point $-1 -1 $-1 0.031 0 -0.12465 #
cur-twe-attrib $-1 -1 $-1 $-1 $137 47 #
model_id-kcp-attrib $-1 -1 $-1 $-1 $141 1 1021392309 1021392309 40304642 4 #
face $-1 -1 $-1 $-1 $156 $15 $-1 $289 reversed single #
loop $-1 -1 $-1 $-1 $227 $141 #
plane-surface $-1 -1 $-1 0 0.375 0 0 -1 0 0 0 -1 forward_v I I I I #
coedge $-1 -1 $-1 $290 $225 $228 $291 forward $142 $-1 #
coedge $-1 -1 $-1 $231 $144 $145 $219 reversed $90 $-1 #
coedge $-1 -1 $-1 $225 $290 $144 $217 reversed $142 $-1 #
edge $-1 -1 $-1 $232 -0.12465000000000001 $292 0.12465000000000001 $216 $293 forward @7 unknown #
coedge $-1 -1 $-1 $146 $145 $290 $294 forward $56 $-1 #
edge $-1 -1 $-1 $223 -0.093899999999999997 $292 0.093899999999999997 $215 $295 forward @7 unknown #
coedge $-1 -1 $-1 $228 $227 $146 $221 reversed $212 $-1 #
edge $-1 -1 $-1 $296 -0.093899999999999997 $222 0.093899999999999997 $220 $297 forward @7 unknown #
vertex $-1 -1 $-1 $148 $298 #
vertex $-1 -1 $-1 $234 $299 #
straight-curve $-1 -1 $-1 0.093899999999999997 0 -0.12465000000000001 0 -1 0 I I #
coedge $-1 -1 $-1 $214 $216 $149 $226 reversed $142 $-1 #
edge $-1 -1 $-1 $229 -0.375 $232 0.375 $225 $300 forward @7 unknown #
coedge $-1 -1 $-1 $220 $150 $155 $235 forward $212 $-1 #
coedge $-1 -1 $-1 $150 $220 $214 $291 reversed $212 $-1 #
vertex $-1 -1 $-1 $151 $301 #
straight-curve $-1 -1 $-1 0 0.375 0.12465000000000001 -1 0 0 I I #
coedge $-1 -1 $-1 $152 $215 $154 $234 reversed $90 $-1 #
vertex $-1 -1 $-1 $226 $302 #
straight-curve $-1 -1 $-1 0 -0.375 0.12465000000000001 1 0 0 I I #
edge $-1 -1 $-1 $157 -0.12465000000000001 $223 0.12465000000000001 $154 $303 forward @7 unknown #
edge $-1 -1 $-1 $158 -0.12465000000000001 $222 0.12465000000000001 $155 $304 forward @7 unknown #
point $-1 -1 $-1 0.093899999999999997 -0.375 0.12465000000000001 #
point $-1 -1 $-1 0.093899999999999997 0.375 0.12465000000000001 #
coedge $-1 -1 $-1 $238 $238 $161 $239 forward $160 $-1 #
edge $-1 -1 $-1 $305 0 $305 6.2831853071795862 $238 $306 forward @7 unknown #
vertex $-1 -1 $-1 $162 $307 #
ellipse-curve $-1 -1 $-1 0 0 -0.0099999999999999811 0 0 -1 0.093899999999999997 0 0 1 I I #
point $-1 -1 $-1 -0.073900000000000132 9.0498409547473834e-018 0.0099999999999999811 #
face_name-twe-attrib $-1 -1 $-1 $166 $106 6 #
model_id-kcp-attrib $-1 -1 $308 $-1 $167 1 1021392309 1021392309 40304641 8 #
face $309 -1 $-1 $265 $310 $7 $-1 $311 reversed single #
plane-surface $312 -1 $-1 -0.031 0 0.12465 0 0 1 1 0 0 forward_v I I I I #
loop_type-twe-attrib $-1 -1 $-1 $-1 $168 0 #
surf-twe-attrib $-1 -1 $-1 $-1 $169 54 #
coedge $-1 -1 $-1 $171 $276 $313 $314 forward $107 $-1 #
edge $315 -1 $-1 $316 -0.24342346584753699 $206 0 $171 $317 forward @7 unknown #
coedge $-1 -1 $-1 $173 $204 $264 $318 forward $67 $-1 #
coedge $-1 -1 $-1 $264 $175 $173 $253 reversed $181 $-1 #
edge $319 -1 $-1 $320 0 $255 0.031888376706565101 $252 $321 forward @7 unknown #
attrib_edge_convexity-kcp-attrib $-1 -1 $322 $-1 $174 1 #
vertex $-1 -1 $-1 $174 $323 #
straight-curve $324 -1 $-1 0.031 0 -0.12465 0 -1 0 I I #
edge_name-twe-attrib $-1 -1 $-1 $-1 $176 19 8448 #
intcurve-curve $325 -1 $-1 forward { exactcur full nubs 3 open 23 
	0 3 0.0082669548596212804 1 0.015961943049708799 1 0.023577855274901301 1 0.032123750167599198 1 
	0.040053168837228703 1 0.047865887295770897 1 0.0561561661447363 1 0.063847434587585503 1 0.072114583016536504 1 
	0.080093619202983496 1 0.088145611424513395 1 0.0962878528625873 1 0.104314848826408 1 0.112320859586534 1 
	0.120370986236911 1 0.12844728802645899 1 0.13650588383325801 1 0.14454045884071601 1 0.15257566649402601 1 
	0.16062193701948899 1 0.16870572907165901 1 0.176815559730085 3 
	0.031 0.24342346584753699 -0.12465 
	0.031538471256469698 0.24568508670214401 -0.123170562381824 
	0.0325830001819052 0.25004202526785302 -0.120300742745225 
	0.034141420928275899 0.25644573886706101 -0.116019016934558 
	0.0357351597410362 0.26288982833069302 -0.111640255533992 
	0.037364788627099001 0.26935413777508899 -0.107162886967445 
	0.039031582929613999 0.27581929330128502 -0.10258340725841 
	0.040706631151752999 0.28215890334335803 -0.097981250091584995 
	0.042395081457793603 0.28836710644161501 -0.093342271001866803 
	0.044151181474240998 0.29461021210535598 -0.088517425860374699 
	0.045925329334584902 0.30067400509265002 -0.083642994675303894 
	0.047775919621002798 0.30670211219976701 -0.078558539650709594 
	0.0496750202961923 0.31254315008914502 -0.073340803428353599 
	0.051648367277549997 0.31819389987107499 -0.067919077156327903 
	0.053702977538907501 0.32357021010465198 -0.062274081857465899 
	0.055851362296108799 0.32857778074485999 -0.056371443248754198 
	0.058126501273965098 0.33311782578854698 -0.050120550280975597 
	0.0605502001173382 0.33699663624078502 -0.043461492437246202 
	0.063126756096663503 0.33993250860655599 -0.036382463064091701 
	0.065833264328606894 0.34159727691393899 -0.028946392811257202 
	0.068600250136195695 0.34172484918544999 -0.0213441617849554 
	0.071327112683847005 0.340287259597919 -0.013852168509329601 
	0.073934470419660295 0.33751873568045299 -0.0066885120057400497 
	0.075573417043514196 0.33500313514250302 -0.0021855431650105602 
	0.076368889701282 0.33362533608321698 0 
	0 
	null_surface 
	null_surface 
	nullbs 
	nullbs 
	I I 
	0 
	0 
	21 0.0082669548596212804 0.015961943049708799 0.023577855274901301 0.032123750167599198 0.040053168837228703 0.047865887295770897 0.0561561661447363 0.063847434587585503 0.072114583016536504 0.080093619202983496 0.088145611424513395 0.0962878528625873 0.104314848826408 0.112320859586534 0.120370986236911 0.12844728802645899 0.13650588383325801 0.14454045884071601 0.15257566649402601 0.16062193701948899 0.16870572907165901 
	F 1 F 0 } I I #
point $-1 -1 $-1 0.076368889701282 0.33362533608321698 0 #
cur-twe-attrib $-1 -1 $-1 $-1 $179 61 #
coedge $-1 -1 $-1 $180 $326 $184 $267 reversed $181 $-1 #
loop_type-twe-attrib $-1 -1 $-1 $-1 $181 0 #
loop $327 -1 $-1 $-1 $328 $265 #
coedge $-1 -1 $-1 $313 $252 $251 $318 reversed $181 $-1 #
face $329 -1 $-1 $330 $181 $7 $-1 $331 forward single #
cur-twe-attrib $-1 -1 $-1 $-1 $183 63 #
edge $332 -1 $-1 $269 0 $284 0.031888376706565101 $261 $333 forward @7 unknown #
edge_name-twe-attrib $-1 -1 $-1 $-1 $185 17 8448 #
vertex $-1 -1 $-1 $185 $334 #
intcurve-curve $335 -1 $-1 forward { exactcur full nubs 3 open 5 
	0 3 0.0079817490340202794 1 0.0159488632824351 1 0.0239118932664188 1 0.031888376706565101 3 
	0.031 0.24342346584753699 0.12465 
	0.028545259481335 0.244449599828192 0.12465 
	0.023555622313466799 0.246305809054608 0.12465 
	0.015852113038098799 0.24839857811440899 0.12465 
	0.0079765611485685499 0.249703729884171 0.12465 
	0.0026588278133820899 0.25 0.12465 
	0 0.25 0.12465 
	0 
	null_surface 
	null_surface 
	nullbs 
	nullbs 
	I I 
	0 
	0 
	3 0.0079817490340202794 0.0159488632824351 0.0239118932664188 
	F 1 F 0 } I I #
loop_type-twe-attrib $-1 -1 $-1 $-1 $190 1 #
coedge $-1 -1 $-1 $272 $272 $336 $337 reversed $190 $-1 #
model_id-kcp-attrib $-1 -1 $338 $-1 $191 1 1021392309 1021392309 40304641 13 #
face $339 -1 $-1 $340 $341 $7 $-1 $342 forward single #
cone-surface $343 -1 $-1 0 -0.39500999999999997 0 0 1 0 0.070000000000000007 0 0 1 I I 0 1 0.070000000000000007 forward I I I I #
coedge $-1 -1 $-1 $249 $194 $197 $280 reversed $107 $-1 #
edge_name-twe-attrib $-1 -1 $-1 $-1 $195 7 8704 #
straight-curve $344 -1 $-1 -0.031 0 -0.12465 0.34202014332566799 0 -0.93969262078590898 I I #
coedge $-1 -1 $-1 $197 $196 $326 $345 forward $168 $-1 #
edge $346 -1 $-1 $347 -0.33362533608321698 $199 0 $197 $348 forward @7 unknown #
point $-1 -1 $-1 -0.076368889701282 0 0 #
cur-twe-attrib $-1 -1 $-1 $-1 $200 75 #
edge_name-twe-attrib $-1 -1 $-1 $-1 $201 11 8448 #
vertex $-1 -1 $-1 $201 $349 #
straight-curve $350 -1 $-1 -0.031 0 0.12465 0 -1 0 I I #
convexity-sys-attrib $-1 -1 $351 $205 $133 #
point $-1 -1 $-1 -0.031 0 -0.12465 #
cur-twe-attrib $-1 -1 $-1 $-1 $207 81 #
plane-surface $-1 -1 $-1 0.093899999999999997 0 0 -1 0 0 0 0 1 forward_v I I I I #
coedge $-1 -1 $-1 $216 $214 $218 $294 reversed $142 $-1 #
edge $-1 -1 $-1 $229 -0.12465000000000001 $296 0.12465000000000001 $228 $352 forward @7 unknown #
vertex $-1 -1 $-1 $294 $353 #
straight-curve $-1 -1 $-1 -0.093899999999999997 -0.375 0 0 0 -1 I I #
edge $-1 -1 $-1 $292 -0.375 $296 0.375 $290 $354 forward @7 unknown #
straight-curve $-1 -1 $-1 0 -0.375 -0.12465000000000001 -1 0 0 I I #
vertex $-1 -1 $-1 $221 $355 #
straight-curve $-1 -1 $-1 0 0.375 -0.12465000000000001 1 0 0 I I #
point $-1 -1 $-1 0.093899999999999997 0.375 -0.12465000000000001 #
point $-1 -1 $-1 0.093899999999999997 -0.375 -0.12465000000000001 #
straight-curve $-1 -1 $-1 -0.093899999999999997 0 0.12465000000000001 0 -1 0 I I #
point $-1 -1 $-1 -0.093899999999999997 0.375 0.12465000000000001 #
point $-1 -1 $-1 -0.093899999999999997 -0.375 0.12465000000000001 #
straight-curve $-1 -1 $-1 0.093899999999999997 -0.375 0 0 0 -1 I I #
straight-curve $-1 -1 $-1 0.093899999999999997 0.375 0 0 0 -1 I I #
vertex $-1 -1 $-1 $239 $356 #
ellipse-curve $-1 -1 $-1 0 0 0.0099999999999999811 0 0 1 0.093899999999999997 0 0 1 I I #
point $-1 -1 $-1 0.093899999999999997 0 -0.0099999999999999811 #
face_name-twe-attrib $-1 -1 $-1 $244 $167 7 #
model_id-kcp-attrib $-1 -1 $357 $-1 $245 1 1021392309 1021392309 40304641 9 #
loop $358 -1 $-1 $-1 $359 $245 #
plane-surface $360 -1 $-1 0 0.37380000000000002 0 0 -1 0 0 0 -1 forward_v I I I I #
surf-twe-attrib $-1 -1 $-1 $-1 $246 90 #
coedge $-1 -1 $-1 $326 $264 $249 $314 reversed $181 $-1 #
edge $361 -1 $-1 $347 0 $316 0.17683402313868901 $313 $362 forward @7 unknown #
attrib_edge_convexity-kcp-attrib $-1 -1 $363 $-1 $250 1 #
vertex $-1 -1 $-1 $250 $364 #
straight-curve $365 -1 $-1 -0.031 0 -0.12465 0 -1 0 I I #
edge $366 -1 $-1 $316 0 $320 0.031888376706565101 $264 $367 forward @7 unknown #
attrib_edge_convexity-kcp-attrib $-1 -1 $368 $-1 $253 1 #
vertex $-1 -1 $-1 $318 $369 #
intcurve-curve $370 -1 $-1 forward { exactcur full nubs 3 open 5 
	0 3 0.0079764834401462696 1 0.015939513424130001 1 0.023906627672544801 1 0.031888376706565101 3 
	0 0.25 -0.12465 
	0.0026588278133820899 0.25 -0.12465 
	0.0079765611485685499 0.249703729884171 -0.12465 
	0.015852113038098799 0.24839857811440899 -0.12465 
	0.023555622313466699 0.246305809054608 -0.12465 
	0.028545259481335 0.244449599828192 -0.12465 
	0.031 0.24342346584753699 -0.12465 
	0 
	null_surface 
	null_surface 
	nullbs 
	nullbs 
	I I 
	0 
	0 
	3 0.0079764834401462696 0.015939513424130001 0.023906627672544801 
	F 1 F 0 } I I #
convexity-sys-attrib $-1 -1 $371 $254 $174 #
point $-1 -1 $-1 0.031 0.24342346584753699 -0.12465 #
cur-twe-attrib $-1 -1 $-1 $-1 $256 97 #
cur-twe-attrib $-1 -1 $-1 $-1 $258 99 #
coedge $-1 -1 $-1 $261 $313 $279 $345 reversed $181 $-1 #
loop_type-twe-attrib $-1 -1 $-1 $-1 $263 1 #
coedge $-1 -1 $-1 $328 $328 $359 $372 forward $263 $-1 #
model_id-kcp-attrib $-1 -1 $373 $-1 $265 1 1021392309 1021392309 40304641 10 #
face $374 -1 $-1 $375 $376 $7 $-1 $377 forward single #
cone-surface $378 -1 $-1 0 0.37380000000000002 0 0 -1 0 0 0 0.053174036674324 1 I I 0.499999999999999 0.86602540378443904 0.053174036674324 forward I I I I #
edge_name-twe-attrib $-1 -1 $-1 $-1 $267 16 8448 #
intcurve-curve $379 -1 $-1 forward { exactcur full nubs 3 open 5 
	0 3 0.0079764834401462696 1 0.015939513424130001 1 0.023906627672544801 1 0.031888376706565101 3 
	0 0.25 0.12465 
	-0.0026588278133820899 0.25 0.12465 
	-0.0079765611485685499 0.249703729884171 0.12465 
	-0.015852113038098799 0.24839857811440899 0.12465 
	-0.023555622313466799 0.246305809054608 0.12465 
	-0.028545259481335 0.244449599828192 0.12465 
	-0.031 0.24342346584753699 0.12465 
	0 
	null_surface 
	null_surface 
	nullbs 
	nullbs 
	I I 
	0 
	0 
	3 0.0079764834401462696 0.015939513424130001 0.023906627672544801 
	F 1 F 0 } I I #
point $-1 -1 $-1 0 0.25 0.12465 #
cur-twe-attrib $-1 -1 $-1 $-1 $270 108 #
coedge $-1 -1 $-1 $336 $336 $272 $337 forward $380 $-1 #
edge $381 -1 $-1 $382 -3.1415926535897931 $382 3.1415926535897931 $336 $383 forward @7 unknown #
face_name-twe-attrib $-1 -1 $-1 $273 $191 12 #
model_id-kcp-attrib $-1 -1 $384 $-1 $274 1 1021392309 1021392309 40304641 14 #
face $385 -1 $-1 $-1 $386 $7 $-1 $387 forward single #
loop $388 -1 $-1 $389 $390 $274 #
cone-surface $391 -1 $-1 0 -0.39500999999999997 0 0 1 0 0.093899999999999997 0 0 1 I I 0 1 0.093899999999999997 forward I I I I #
surf-twe-attrib $-1 -1 $-1 $-1 $275 114 #
cur-twe-attrib $-1 -1 $-1 $-1 $278 118 #
edge $392 -1 $-1 $284 0 $347 0.176815559730085 $326 $393 forward @7 unknown #
edge_name-twe-attrib $-1 -1 $-1 $-1 $280 8 8448 #
vertex $-1 -1 $-1 $280 $394 #
straight-curve $395 -1 $-1 -0.076368889701282 0 0 0 -1 0 I I #
point $-1 -1 $-1 -0.031 0.24342346584753699 0.12465 #
cur-twe-attrib $-1 -1 $-1 $-1 $285 124 #
edge_name-twe-attrib $-1 -1 $-1 $286 $133 5 8704 #
straight-curve $-1 -1 $-1 -0.093899999999999997 0.375 0 0 0 -1 I I #
point $-1 -1 $-1 -0.093899999999999997 -0.375 -0.12465000000000001 #
straight-curve $-1 -1 $-1 -0.093899999999999997 0 -0.12465000000000001 0 1 0 I I #
point $-1 -1 $-1 -0.093899999999999997 0.375 -0.12465000000000001 #
point $-1 -1 $-1 0.093899999999999997 0 0.0099999999999999811 #
face_name-twe-attrib $-1 -1 $-1 $309 $245 8 #
loop_type-twe-attrib $-1 -1 $-1 $-1 $310 0 #
coedge $-1 -1 $-1 $359 $359 $328 $372 reversed $310 $-1 #
surf-twe-attrib $-1 -1 $-1 $-1 $311 134 #
edge_name-twe-attrib $-1 -1 $-1 $-1 $314 14 8448 #
intcurve-curve $396 -1 $-1 forward { exactcur full nubs 3 open 27 
	0 3 0.0068412895353375299 1 0.0136860498067987 1 0.0205047049666559 1 0.027312419598472099 1 
	0.034118349657993402 1 0.040921268380105402 1 0.0477423506255562 1 0.0545714657095333 1 0.061384306757136298 1 
	0.068169965200055693 1 0.074953012820208803 1 0.081825874726572503 1 0.088651262126944894 1 0.095363901627949499 1 
	0.10235623815619201 1 0.108973681829869 1 0.115924841692854 1 0.12261375102636 1 0.12934620882957201 1 
	0.13645646958826901 1 0.14296666573347999 1 0.14967307909387101 1 0.156985244880647 1 0.16346574996917901 1 
	0.169940201516213 1 0.17683402313868901 3 
	-0.076368889701282 0.33362533608321698 0 
	-0.075697845015092399 0.33478761957384601 -0.0018436801227508901 
	-0.074319652299786002 0.33694404924356403 -0.0056302334877124998 
	-0.072145045149962506 0.33949665860891298 -0.0116049175280357 
	-0.069873904333633996 0.34117135020845102 -0.0178448256373036 
	-0.067543645062850696 0.34179021059411102 -0.024247160365253002 
	-0.065212117820628898 0.34127526135228797 -0.0306529788160999 
	-0.062937695484700004 0.33969571146585598 -0.036901902826367697 
	-0.060758055850093202 0.33722459107521902 -0.0428904135050013 
	-0.058687113752165197 0.33405982689330599 -0.048580280156052397 
	-0.056724825868021002 0.33037977666782697 -0.053971621808212397 
	-0.054860244084057 0.32631844392189602 -0.0590945181563775 
	-0.0530708954615099 0.32194857188196102 -0.0640107130923563 
	-0.051347567814024303 0.31733914942506503 -0.068745516890147698 
	-0.049689197314366003 0.31256465489607899 -0.073301852391046696 
	-0.048071147363049897 0.30761863672375001 -0.077747408095839299 
	-0.046512505678362299 0.302605661295341 -0.082029740929537506 
	-0.044972670994940997 0.29743764972720499 -0.086260401951931007 
	-0.043487258999772203 0.292266699148373 -0.090341537867242999 
	-0.0420212774454344 0.28699918704525801 -0.094369289085124999 
	-0.040568134077717199 0.28163359850935399 -0.098361767675157294 
	-0.039149557629846399 0.27626461902065103 -0.10225927443345199 
	-0.037751789975661802 0.270860137618463 -0.10609960950097 
	-0.036356801629837697 0.26536548748704503 -0.109932308481522 
	-0.0349796398622432 0.25984477749458001 -0.11371602934092501 
	-0.033631772304584501 0.254357564177151 -0.117419265020007 
	-0.032323161958870798 0.24895977041682299 -0.121014642395723 
	-0.0314490316995759 0.245309433657218 -0.123416295544796 
	-0.031 0.24342346584753699 -0.12465 
	0 
	null_surface 
	null_surface 
	nullbs 
	nullbs 
	I I 
	0 
	0 
	25 0.0068412895353375299 0.0136860498067987 0.0205047049666559 0.027312419598472099 0.034118349657993402 0.040921268380105402 0.0477423506255562 0.0545714657095333 0.061384306757136298 0.068169965200055693 0.074953012820208803 0.081825874726572503 0.088651262126944894 0.095363901627949499 0.10235623815619201 0.108973681829869 0.115924841692854 0.12261375102636 0.12934620882957201 0.13645646958826901 0.14296666573347999 0.14967307909387101 0.156985244880647 0.16346574996917901 0.169940201516213 
	F 1 F 0 } I I #
convexity-sys-attrib $-1 -1 $397 $315 $250 #
point $-1 -1 $-1 -0.031 0.24342346584753699 -0.12465 #
cur-twe-attrib $-1 -1 $-1 $-1 $317 139 #
attrib_edge_convexity-kcp-attrib $-1 -1 $398 $-1 $318 1 #
intcurve-curve $399 -1 $-1 forward { exactcur full nubs 3 open 5 
	0 3 0.0079817490340202794 1 0.0159488632824351 1 0.0239118932664188 1 0.031888376706565101 3 
	-0.031 0.24342346584753699 -0.12465 
	-0.028545259481335 0.244449599828192 -0.12465 
	-0.023555622313466799 0.246305809054608 -0.12465 
	-0.015852113038098799 0.24839857811440899 -0.12465 
	-0.0079765611485685499 0.249703729884171 -0.12465 
	-0.0026588278133820899 0.25 -0.12465 
	0 0.25 -0.12465 
	0 
	null_surface 
	null_surface 
	nullbs 
	nullbs 
	I I 
	0 
	0 
	3 0.0079817490340202794 0.0159488632824351 0.0239118932664188 
	F 1 F 0 } I I #
convexity-sys-attrib $-1 -1 $400 $319 $253 #
point $-1 -1 $-1 0 0.25 -0.12465 #
cur-twe-attrib $-1 -1 $-1 $-1 $321 142 #
edge_name-twe-attrib $-1 -1 $-1 $322 $174 4 8448 #
edge $401 -1 $-1 $402 0 $402 6.2831853071795862 $328 $403 forward @7 unknown #
face_name-twe-attrib $-1 -1 $-1 $329 $265 9 #
model_id-kcp-attrib $-1 -1 $404 $-1 $330 1 1021392309 1021392309 40304641 11 #
face $405 -1 $-1 $191 $406 $7 $-1 $407 reversed single #
loop $408 -1 $-1 $380 $409 $330 #
plane-surface $410 -1 $-1 0 -0.029999999999999999 0 0 1 0 0 0 1 forward_v I I I I #
surf-twe-attrib $-1 -1 $-1 $-1 $331 154 #
cur-twe-attrib $-1 -1 $-1 $-1 $333 156 #
loop $411 -1 $-1 $-1 $336 $330 #
edge_name-twe-attrib $-1 -1 $-1 $-1 $337 22 4608 #
vertex $-1 -1 $-1 $337 $412 #
ellipse-curve $413 -1 $-1 0 -0.029999999999999999 0 0 -1 0 -0.070000000000000007 0 0 1 I I #
face_name-twe-attrib $-1 -1 $-1 $339 $274 13 #
model_id-kcp-attrib $-1 -1 $414 $-1 $340 1 1021392309 1021392309 40304641 15 #
loop $415 -1 $-1 $416 $417 $340 #
cone-surface $418 -1 $-1 0 -0.35620000000000002 0 0 1 0 -0.093899999999999997 0 0 1 I I 0.70710678118654702 0.70710678118654802 0.093899999999999997 forward I I I I #
loop_type-twe-attrib $-1 -1 $-1 $-1 $341 0 #
loop $419 -1 $-1 $-1 $420 $274 #
coedge $-1 -1 $-1 $390 $390 $409 $421 reversed $341 $-1 #
surf-twe-attrib $-1 -1 $-1 $-1 $342 163 #
edge_name-twe-attrib $-1 -1 $-1 $-1 $345 15 8448 #
intcurve-curve $422 -1 $-1 forward { exactcur full nubs 3 open 23 
	0 3 0.0082669548596212804 1 0.015961943049708799 1 0.023577855274901301 1 0.032123750167599198 1 
	0.040053168837228703 1 0.047865887295770897 1 0.0561561661447363 1 0.063847434587585503 1 0.072114583016536504 1 
	0.080093619202983496 1 0.088145611424513395 1 0.0962878528625873 1 0.104314848826408 1 0.112320859586534 1 
	0.120370986236911 1 0.12844728802645899 1 0.13650588383325801 1 0.14454045884071601 1 0.15257566649402601 1 
	0.16062193701948899 1 0.16870572907165901 1 0.176815559730085 3 
	-0.031 0.24342346584753699 0.12465 
	-0.031538471256469698 0.24568508670214401 0.123170562381824 
	-0.0325830001819052 0.25004202526785302 0.120300742745225 
	-0.034141420928275899 0.25644573886706101 0.116019016934558 
	-0.0357351597410362 0.26288982833069302 0.111640255533992 
	-0.037364788627099001 0.26935413777508899 0.107162886967445 
	-0.039031582929613999 0.27581929330128502 0.10258340725841 
	-0.040706631151752999 0.28215890334335803 0.097981250091584995 
	-0.042395081457793603 0.28836710644161501 0.093342271001866803 
	-0.044151181474240998 0.29461021210535598 0.088517425860374699 
	-0.045925329334584902 0.30067400509265002 0.083642994675303894 
	-0.047775919621002798 0.30670211219976701 0.078558539650709594 
	-0.0496750202961923 0.31254315008914502 0.073340803428353599 
	-0.051648367277549997 0.31819389987107499 0.067919077156327903 
	-0.053702977538907501 0.32357021010465198 0.062274081857465899 
	-0.055851362296108799 0.32857778074485999 0.056371443248754198 
	-0.058126501273965098 0.33311782578854698 0.050120550280975597 
	-0.0605502001173382 0.33699663624078502 0.043461492437246202 
	-0.063126756096663503 0.33993250860655599 0.036382463064091701 
	-0.065833264328606894 0.34159727691393899 0.028946392811257202 
	-0.068600250136195695 0.34172484918544999 0.0213441617849554 
	-0.071327112683847005 0.340287259597919 0.013852168509329601 
	-0.073934470419660295 0.33751873568045299 0.0066885120057400497 
	-0.075573417043514196 0.33500313514250302 0.0021855431650105602 
	-0.076368889701282 0.33362533608321698 0 
	0 
	null_surface 
	null_surface 
	nullbs 
	nullbs 
	I I 
	0 
	0 
	21 0.0082669548596212804 0.015961943049708799 0.023577855274901301 0.032123750167599198 0.040053168837228703 0.047865887295770897 0.0561561661447363 0.063847434587585503 0.072114583016536504 0.080093619202983496 0.088145611424513395 0.0962878528625873 0.104314848826408 0.112320859586534 0.120370986236911 0.12844728802645899 0.13650588383325801 0.14454045884071601 0.15257566649402601 0.16062193701948899 0.16870572907165901 
	F 1 F 0 } I I #
point $-1 -1 $-1 -0.076368889701282 0.33362533608321698 0 #
cur-twe-attrib $-1 -1 $-1 $-1 $348 169 #
cur-twe-attrib $-1 -1 $-1 $-1 $362 182 #
edge_name-twe-attrib $-1 -1 $-1 $363 $250 6 8448 #
convexity-sys-attrib $-1 -1 $423 $366 $318 #
cur-twe-attrib $-1 -1 $-1 $-1 $367 186 #
edge_name-twe-attrib $-1 -1 $-1 $368 $253 20 8448 #
attrib_edge_convexity-kcp-attrib $-1 -1 $424 $-1 $372 1 #
vertex $-1 -1 $-1 $372 $425 #
ellipse-curve $426 -1 $-1 0 0.37380000000000002 0 0 -1 0 0 0 0.053174036674324 1 I I #
face_name-twe-attrib $-1 -1 $-1 $374 $330 10 #
model_id-kcp-attrib $-1 -1 $427 $-1 $375 1 1021392309 1021392309 40304641 12 #
loop $428 -1 $-1 $-1 $429 $375 #
plane-surface $430 -1 $-1 0 -0.37619999999999998 0 0 1 0 0 0 1 forward_v I I I I #
loop_type-twe-attrib $-1 -1 $-1 $-1 $376 0 #
coedge $-1 -1 $-1 $409 $409 $390 $421 forward $376 $-1 #
surf-twe-attrib $-1 -1 $-1 $-1 $377 197 #
loop_type-twe-attrib $-1 -1 $-1 $-1 $380 1 #
point $-1 -1 $-1 0.070000000000000007 -0.029999999999999999 -8.5725261152115999e-018 #
cur-twe-attrib $-1 -1 $-1 $-1 $383 204 #
face_name-twe-attrib $-1 -1 $-1 $385 $340 14 #
loop_type-twe-attrib $-1 -1 $-1 $-1 $386 0 #
loop $431 -1 $-1 $-1 $432 $340 #
coedge $-1 -1 $-1 $417 $417 $420 $433 reversed $386 $-1 #
surf-twe-attrib $-1 -1 $-1 $-1 $387 206 #
loop_type-twe-attrib $-1 -1 $-1 $-1 $389 1 #
coedge $-1 -1 $-1 $420 $420 $417 $433 forward $389 $-1 #
edge $434 -1 $-1 $435 0 $435 6.2831853071795862 $390 $436 forward @7 unknown #
cur-twe-attrib $-1 -1 $-1 $-1 $393 211 #
edge_name-twe-attrib $-1 -1 $-1 $398 $318 13 8448 #
convexity-sys-attrib $-1 -1 $437 $401 $372 #
point $-1 -1 $-1 0 0.37380000000000002 0.053174036674324 #
cur-twe-attrib $-1 -1 $-1 $-1 $403 228 #
face_name-twe-attrib $-1 -1 $-1 $405 $375 11 #
loop_type-twe-attrib $-1 -1 $-1 $-1 $406 0 #
coedge $-1 -1 $-1 $429 $429 $432 $438 forward $406 $-1 #
surf-twe-attrib $-1 -1 $-1 $-1 $407 230 #
loop_type-twe-attrib $-1 -1 $-1 $-1 $416 1 #
coedge $-1 -1 $-1 $432 $432 $429 $438 reversed $416 $-1 #
edge $439 -1 $-1 $440 -3.1415926535897931 $440 3.1415926535897931 $417 $441 forward @7 unknown #
edge_name-twe-attrib $-1 -1 $-1 $-1 $421 25 8704 #
vertex $-1 -1 $-1 $421 $442 #
ellipse-curve $443 -1 $-1 0 -0.029999999999999999 0 0 1 0 -0.093899999999999997 0 0 1 I I #
edge_name-twe-attrib $-1 -1 $-1 $424 $372 21 8448 #
edge $444 -1 $-1 $445 -3.1415926535897931 $445 3.1415926535897931 $429 $446 forward @7 unknown #
attrib_edge_convexity-kcp-attrib $-1 -1 $447 $-1 $433 1 #
vertex $-1 -1 $-1 $433 $448 #
ellipse-curve $449 -1 $-1 0 -0.35620000000000002 0 0 1 0 -0.093899999999999997 0 0 1 I I #
point $-1 -1 $-1 -0.093899999999999997 -0.029999999999999999 0 #
cur-twe-attrib $-1 -1 $-1 $-1 $436 270 #
attrib_edge_convexity-kcp-attrib $-1 -1 $450 $-1 $438 1 #
vertex $-1 -1 $-1 $438 $451 #
ellipse-curve $452 -1 $-1 0 -0.37619999999999998 0 0 -1 0 -0.073899999999999993 0 0 1 I I #
convexity-sys-attrib $-1 -1 $453 $439 $433 #
point $-1 -1 $-1 0.093899999999999997 -0.35620000000000002 1.14994314602624e-017 #
cur-twe-attrib $-1 -1 $-1 $-1 $441 279 #
convexity-sys-attrib $-1 -1 $454 $444 $438 #
point $-1 -1 $-1 0.073899999999999993 -0.37619999999999998 -9.0501382844876794e-018 #
cur-twe-attrib $-1 -1 $-1 $-1 $446 283 #
edge_name-twe-attrib $-1 -1 $-1 $447 $433 26 8448 #
edge_name-twe-attrib $-1 -1 $-1 $450 $438 23 8448 #
End-of-ACIS-data 