201 0 1 0           
7 Unknown 11 ACIS 2.1 NT 24 Fri Jun 05 15:38:29 1998 
-1 9.9999999999999995e-007 1e-010 
body $-1 $1 $-1 $2 #
lump $-1 $-1 $3 $0 #
transform $-1 0.70710678118654746 0 0.70710678118654746 0.70710678118654746 0 -0.70710678118654746 0 1 0 0 4.9220 7.1354 0.99999999999999989 no_rotate no_reflect no_shear #
shell $-1 $-1 $-1 $4 $-1 $1 #
face $-1 $5 $6 $3 $-1 $7 forward single #
face $-1 $8 $9 $3 $-1 $10 forward single #
loop $-1 $-1 $11 $4 #
plane-surface $-1 0 0 0.57799999999999996 0 0 1 1 0 0 forward_v I I I I #
face $-1 $12 $13 $3 $-1 $14 reversed single #
loop $-1 $15 $16 $5 #
plane-surface $-1 0 0 0 0 0 1 1 0 0 forward_v I I I I #
coedge $-1 $11 $11 $17 $18 0 $6 $-1 #
face $-1 $19 $20 $3 $-1 $21 forward single #
loop $-1 $-1 $22 $8 #
plane-surface $-1 0 0 -1.8600000000000001 0 0 1 1 0 0 forward_v I I I I #
loop $-1 $-1 $23 $5 #
coedge $-1 $16 $16 $24 $25 0 $9 $-1 #
coedge $-1 $17 $17 $11 $18 1 $26 $-1 #
edge $-1 $27 $27 $17 $28 forward #
face $-1 $29 $30 $3 $-1 $31 forward single #
loop $-1 $32 $33 $12 #
cone-surface $-1 0 0 -1.9819 0 0 1 -0.125 0 0 1 I I 0 1 forward I I I I #
coedge $-1 $22 $22 $34 $35 1 $13 $-1 #
coedge $-1 $23 $23 $36 $37 0 $15 $-1 #
coedge $-1 $24 $24 $16 $25 1 $38 $-1 #
edge $-1 $39 $39 $16 $40 forward #
loop $-1 $41 $17 $42 #
vertex $-1 $18 $43 #
ellipse-curve $-1 0 0 0.57799999999999996 0 0 1 0.092999999999999999 0 0 1 I I #
face $-1 $44 $38 $3 $-1 $45 forward single #
loop $-1 $46 $47 $19 #
cone-surface $-1 0 0 0.081000000000000003 0 0 1 0.125 0 0 1 I I 0.69542142751605396 0.71860214176659198 forward I I I I #
loop $-1 $-1 $48 $12 #
coedge $-1 $33 $33 $49 $50 0 $20 $-1 #
coedge $-1 $34 $34 $22 $35 0 $51 $-1 #
edge $-1 $52 $52 $34 $53 forward #
coedge $-1 $36 $36 $23 $37 1 $54 $-1 #
edge $-1 $55 $55 $36 $56 forward #
loop $-1 $57 $24 $29 #
vertex $-1 $25 $58 #
ellipse-curve $-1 0 0 0 0 0 -1 0.095000000000000001 0 0 1 I I #
loop $-1 $-1 $59 $42 #
face $-1 $60 $26 $3 $-1 $61 forward single #
point $-1 0.092999999999999999 0 0.57799999999999996 #
face $-1 $42 $62 $3 $-1 $63 forward single #
cone-surface $-1 0 0 -1.9819 0 0 1 -0.095000000000000001 0 0 1 I I 0 1 forward I I I I #
loop $-1 $-1 $49 $19 #
coedge $-1 $47 $47 $64 $65 0 $30 $-1 #
coedge $-1 $48 $48 $59 $66 0 $32 $-1 #
coedge $-1 $49 $49 $33 $50 1 $46 $-1 #
edge $-1 $67 $67 $49 $68 forward #
loop $-1 $-1 $34 $60 #
vertex $-1 $35 $69 #
ellipse-curve $-1 0 0 -1.8600000000000001 0 0 1 0.1555 0 0 1 I I #
loop $-1 $-1 $36 $44 #
vertex $-1 $37 $70 #
ellipse-curve $-1 0 0 0 0 0 1 0.1875 0 0 1 I I #
loop $-1 $-1 $64 $29 #
point $-1 -0.095000000000000001 0 0 #
coedge $-1 $59 $59 $48 $66 1 $41 $-1 #
face $-1 $-1 $71 $3 $-1 $72 forward single #
cone-surface $-1 0 0 0.54600000000000004 0 0 -1 0.125 0 0 1 I I 0.70710678118654702 0.70710678118654802 forward I I I I #
loop $-1 $54 $73 $44 #
cone-surface $-1 0 0 -1.9819 0 0 1 -0.1875 0 0 1 I I 0 1 forward I I I I #
coedge $-1 $64 $64 $47 $65 1 $57 $-1 #
edge $-1 $74 $74 $64 $75 forward #
edge $-1 $76 $76 $59 $77 forward #
vertex $-1 $50 $78 #
ellipse-curve $-1 0 0 0.081000000000000003 0 0 1 0.125 0 0 1 I I #
point $-1 0.1555 0 -1.8600000000000001 #
point $-1 0.1875 0 0 #
loop $-1 $51 $79 $60 #
cone-surface $-1 0 0 -1.8280000000000001 0 0 1 0.1875 0 0 1 I I 0.70710678118654702 0.70710678118654802 forward I I I I #
coedge $-1 $73 $73 $79 $80 0 $62 $-1 #
vertex $-1 $65 $81 #
ellipse-curve $-1 0 0 0.050000000000000003 0 0 1 0.095000000000000001 0 0 1 I I #
vertex $-1 $66 $82 #
ellipse-curve $-1 0 0 0.54600000000000004 0 0 -1 0.125 0 0 1 I I #
point $-1 -0.125 0 0.081000000000000003 #
coedge $-1 $79 $79 $73 $80 1 $71 $-1 #
edge $-1 $83 $83 $79 $84 forward #
point $-1 -0.095000000000000001 0 0.050000000000000003 #
point $-1 -0.125 0 0.54600000000000004 #
vertex $-1 $80 $85 #
ellipse-curve $-1 0 0 -1.8280000000000001 0 0 1 0.1875 0 0 1 I I #
point $-1 -0.1875 0 -1.8280000000000001 #
End-of-ACIS-data 