  0
SECTION
  2
HEADER
  9
$ACADVER
  1
AC1009
  9
$INSBASE
 10
0.0
 20
0.0
 30
0.0
  9
$EXTMIN
 10
0.0
 20
0.0
 30
0.0
  9
$EXTMAX
 10
5.0
 20
4.0
 30
3.0
  9
$LIMMIN
 10
0.0
 20
0.0
  9
$LIMMAX
 10
12.0
 20
9.0
  9
$ORTHOMODE
 70
     0
  9
$REGENMODE
 70
     1
  9
$FILLMODE
 70
     1
  9
$QTEXTMODE
 70
     0
  9
$MIRRTEXT
 70
     1
  9
$DRAGMODE
 70
     2
  9
$LTSCALE
 40
1.0
  9
$OSMODE
 70
     0
  9
$ATTMODE
 70
     1
  9
$TEXTSIZE
 40
0.2
  9
$TRACEWID
 40
0.05
  9
$TEXTSTYLE
  7
STANDARD
  9
$CLAYER
  8
0
  9
$CELTYPE
  6
BYLAYER
  9
$CECOLOR
 62
   256
  9
$DIMSCALE
 40
1.0
  9
$DIMASZ
 40
0.18
  9
$DIMEXO
 40
0.0625
  9
$DIMDLI
 40
0.38
  9
$DIMRND
 40
0.0
  9
$DIMDLE
 40
0.0
  9
$DIMEXE
 40
0.18
  9
$DIMTP
 40
0.0
  9
$DIMTM
 40
0.0
  9
$DIMTXT
 40
0.18
  9
$DIMCEN
 40
0.09
  9
$DIMTSZ
 40
0.0
  9
$DIMTOL
 70
     0
  9
$DIMLIM
 70
     0
  9
$DIMTIH
 70
     1
  9
$DIMTOH
 70
     1
  9
$DIMSE1
 70
     0
  9
$DIMSE2
 70
     0
  9
$DIMTAD
 70
     0
  9
$DIMZIN
 70
     0
  9
$DIMBLK
  1

  9
$DIMASO
 70
     1
  9
$DIMSHO
 70
     1
  9
$DIMPOST
  1

  9
$DIMAPOST
  1

  9
$DIMALT
 70
     0
  9
$DIMALTD
 70
     2
  9
$DIMALTF
 40
25.4
  9
$DIMLFAC
 40
1.0
  9
$DIMTOFL
 70
     0
  9
$DIMTVP
 40
0.0
  9
$DIMTIX
 70
     0
  9
$DIMSOXD
 70
     0
  9
$DIMSAH
 70
     0
  9
$DIMBLK1
  1

  9
$DIMBLK2
  1

  9
$DIMSTYLE
  2
*UNNAMED
  9
$DIMCLRD
 70
     0
  9
$DIMCLRE
 70
     0
  9
$DIMCLRT
 70
     0
  9
$DIMTFAC
 40
1.0
  9
$DIMGAP
 40
0.09
  9
$LUNITS
 70
     2
  9
$LUPREC
 70
     4
  9
$SKETCHINC
 40
0.1
  9
$FILLETRAD
 40
0.0
  9
$AUNITS
 70
     0
  9
$AUPREC
 70
     0
  9
$MENU
  1
acad
  9
$ELEVATION
 40
0.0
  9
$PELEVATION
 40
0.0
  9
$THICKNESS
 40
0.0
  9
$LIMCHECK
 70
     0
  9
$BLIPMODE
 70
     1
  9
$CHAMFERA
 40
0.0
  9
$CHAMFERB
 40
0.0
  9
$SKPOLY
 70
     0
  9
$TDCREATE
 40
2448850.850916712
  9
$TDUPDATE
 40
2448850.856947534
  9
$TDINDWG
 40
0.0060308218
  9
$TDUSRTIMER
 40
0.0060308218
  9
$USRTIMER
 70
     1
  9
$ANGBASE
 50
0.0
  9
$ANGDIR
 70
     0
  9
$PDMODE
 70
     0
  9
$PDSIZE
 40
0.0
  9
$PLINEWID
 40
0.0
  9
$COORDS
 70
     0
  9
$SPLFRAME
 70
     0
  9
$SPLINETYPE
 70
     6
  9
$SPLINESEGS
 70
     8
  9
$ATTDIA
 70
     0
  9
$ATTREQ
 70
     1
  9
$HANDLING
 70
     1
  9
$HANDSEED
  5
7A
  9
$SURFTAB1
 70
     6
  9
$SURFTAB2
 70
     6
  9
$SURFTYPE
 70
     6
  9
$SURFU
 70
     6
  9
$SURFV
 70
     6
  9
$UCSNAME
  2

  9
$UCSORG
 10
0.0
 20
0.0
 30
0.0
  9
$UCSXDIR
 10
1.0
 20
0.0
 30
0.0
  9
$UCSYDIR
 10
0.0
 20
1.0
 30
0.0
  9
$PUCSNAME
  2

  9
$PUCSORG
 10
0.0
 20
0.0
 30
0.0
  9
$PUCSXDIR
 10
1.0
 20
0.0
 30
0.0
  9
$PUCSYDIR
 10
0.0
 20
1.0
 30
0.0
  9
$USERI1
 70
     0
  9
$USERI2
 70
     0
  9
$USERI3
 70
     0
  9
$USERI4
 70
     0
  9
$USERI5
 70
     0
  9
$USERR1
 40
0.0
  9
$USERR2
 40
0.0
  9
$USERR3
 40
0.0
  9
$USERR4
 40
0.0
  9
$USERR5
 40
0.0
  9
$WORLDVIEW
 70
     1
  9
$SHADEDGE
 70
     3
  9
$SHADEDIF
 70
    70
  9
$TILEMODE
 70
     1
  9
$MAXACTVP
 70
    16
  9
$PINSBASE
 10
0.0
 20
0.0
 30
0.0
  9
$PLIMCHECK
 70
     0
  9
$PEXTMIN
 10
1.000000E+20
 20
1.000000E+20
 30
1.000000E+20
  9
$PEXTMAX
 10
-1.000000E+20
 20
-1.000000E+20
 30
-1.000000E+20
  9
$PLIMMIN
 10
0.0
 20
0.0
  9
$PLIMMAX
 10
12.0
 20
9.0
  9
$UNITMODE
 70
     0
  9
$VISRETAIN
 70
     0
  9
$PLINEGEN
 70
     0
  9
$PSLTSCALE
 70
     0
  9
$TREEDEPTH
 70
  3020
  9
$DWGCODEPAGE
  3
undefined
  0
ENDSEC
  0
SECTION
  2
TABLES
  0
TABLE
  2
VPORT
 70
     2
  0
VPORT
  2
*ACTIVE
 70
     0
 10
0.0
 20
0.0
 11
1.0
 21
1.0
 12
1.832692
 22
0.390928
 13
0.0
 23
0.0
 14
1.0
 24
1.0
 15
0.0
 25
0.0
 16
1.5
 26
1.2
 36
0.9
 17
0.0
 27
0.0
 37
0.0
 40
6.215086
 41
1.594883
 42
50.0
 43
0.0
 44
0.0
 50
0.0
 51
0.0
 71
     0
 72
   100
 73
     1
 74
     1
 75
     0
 76
     0
 77
     0
 78
     0
  0
ENDTAB
  0
TABLE
  2
LTYPE
 70
     1
  0
LTYPE
  2
CONTINUOUS
 70
    64
  3
Solid line
 72
    65
 73
     0
 40
0.0
  0
ENDTAB
  0
TABLE
  2
LAYER
 70
     2
  0
LAYER
  2
0
 70
    64
 62
     7
  6
CONTINUOUS
  0
LAYER
  2
AME_FRZ
 70
    65
 62
     7
  6
CONTINUOUS
  0
ENDTAB
  0
TABLE
  2
STYLE
 70
     1
  0
STYLE
  2
STANDARD
 70
     0
 40
0.0
 41
1.0
 50
0.0
 71
     0
 42
0.2
  3
txt
  4

  0
ENDTAB
  0
TABLE
  2
VIEW
 70
     0
  0
ENDTAB
  0
TABLE
  2
UCS
 70
     0
  0
ENDTAB
  0
TABLE
  2
APPID
 70
     2
  0
APPID
  2
ACAD
 70
    64
  0
APPID
  2
AME_SOL
 70
    64
  0
ENDTAB
  0
TABLE
  2
DIMSTYLE
 70
     0
  0
ENDTAB
  0
ENDSEC
  0
SECTION
  2
BLOCKS
  0
BLOCK
  8
0
  5
1
  2
AME_NIL
 70
    64
 10
0.0
 20
0.0
 30
0.0
  1
AME_NIL
  3
AME_NIL
  0
ENDBLK
  8
0
  5
2
  0
BLOCK
  8
0
  5
4
  2
AME_SOL
 70
    64
 10
0.0
 20
0.0
 30
0.0
  1
AME_SOL
  3
AME_SOL
  0
ENDBLK
  8
0
  5
5
  0
BLOCK
  8
0
  5
7
  2
*U2
 70
    65
 10
0.0
 20
0.0
 30
0.0
  1
*U
  3
*U
  0
LINE
  8
0
 62
     0
  5
8
 10
5.0
 20
4.0
 30
0.0
 11
5.0
 21
4.0
 31
3.0
1001
AME_SOL
1070
     1
1071
       18
  0
LINE
  8
0
 62
     0
  5
9
 10
5.0
 20
4.0
 30
3.0
 11
5.0
 21
0.0
 31
3.0
1001
AME_SOL
1070
     1
1071
       17
  0
LINE
  8
0
 62
     0
  5
A
 10
0.0
 20
4.0
 30
3.0
 11
5.0
 21
4.0
 31
3.0
1001
AME_SOL
1070
     1
1071
       16
  0
LINE
  8
0
 62
     0
  5
B
 10
0.0
 20
4.0
 30
0.0
 11
0.0
 21
4.0
 31
3.0
1001
AME_SOL
1070
     1
1071
       15
  0
LINE
  8
0
 62
     0
  5
C
 10
0.0
 20
4.0
 30
3.0
 11
0.0
 21
0.0
 31
3.0
1001
AME_SOL
1070
     1
1071
       14
  0
LINE
  8
0
 62
     0
  5
D
 10
0.0
 20
0.0
 30
0.0
 11
0.0
 21
0.0
 31
3.0
1001
AME_SOL
1070
     1
1071
       13
  0
LINE
  8
0
 62
     0
  5
E
 10
5.0
 20
0.0
 30
3.0
 11
5.0
 21
0.0
 31
0.0
1001
AME_SOL
1070
     1
1071
       12
  0
LINE
  8
0
 62
     0
  5
F
 10
0.0
 20
0.0
 30
3.0
 11
5.0
 21
0.0
 31
3.0
1001
AME_SOL
1070
     1
1071
       11
  0
LINE
  8
0
 62
     0
  5
10
 10
0.0
 20
0.0
 30
0.0
 11
5.0
 21
0.0
 31
0.0
1001
AME_SOL
1070
     1
1071
       10
  0
LINE
  8
0
 62
     0
  5
11
 10
0.0
 20
4.0
 30
0.0
 11
0.0
 21
0.0
 31
0.0
1001
AME_SOL
1070
     1
1071
        9
  0
LINE
  8
0
 62
     0
  5
12
 10
5.0
 20
0.0
 30
0.0
 11
5.0
 21
4.0
 31
0.0
1001
AME_SOL
1070
     1
1071
        8
  0
LINE
  8
0
 62
     0
  5
13
 10
5.0
 20
4.0
 30
0.0
 11
0.0
 21
4.0
 31
0.0
1001
AME_SOL
1070
     1
1071
        7
  0
ENDBLK
  8
0
  5
14
  0
BLOCK
  8
0
  5
18
  2
*U3
 70
    65
 10
0.0
 20
0.0
 30
0.0
  1
*U
  3
*U
  0
LINE
  8
0
 62
     0
  5
19
 10
3.0
 20
1.0
 30
0.0
 11
3.0
 21
1.0
 31
1.0
1001
AME_SOL
1070
     1
1071
       18
  0
LINE
  8
0
 62
     0
  5
1A
 10
3.0
 20
1.0
 30
1.0
 11
3.0
 21
0.0
 31
1.0
1001
AME_SOL
1070
     1
1071
       17
  0
LINE
  8
0
 62
     0
  5
1B
 10
0.0
 20
1.0
 30
1.0
 11
3.0
 21
1.0
 31
1.0
1001
AME_SOL
1070
     1
1071
       16
  0
LINE
  8
0
 62
     0
  5
1C
 10
0.0
 20
1.0
 30
0.0
 11
0.0
 21
1.0
 31
1.0
1001
AME_SOL
1070
     1
1071
       15
  0
LINE
  8
0
 62
     0
  5
1D
 10
0.0
 20
1.0
 30
1.0
 11
0.0
 21
0.0
 31
1.0
1001
AME_SOL
1070
     1
1071
       14
  0
LINE
  8
0
 62
     0
  5
1E
 10
0.0
 20
0.0
 30
0.0
 11
0.0
 21
0.0
 31
1.0
1001
AME_SOL
1070
     1
1071
       13
  0
LINE
  8
0
 62
     0
  5
1F
 10
3.0
 20
0.0
 30
1.0
 11
3.0
 21
0.0
 31
0.0
1001
AME_SOL
1070
     1
1071
       12
  0
LINE
  8
0
 62
     0
  5
20
 10
0.0
 20
0.0
 30
1.0
 11
3.0
 21
0.0
 31
1.0
1001
AME_SOL
1070
     1
1071
       11
  0
LINE
  8
0
 62
     0
  5
21
 10
0.0
 20
0.0
 30
0.0
 11
3.0
 21
0.0
 31
0.0
1001
AME_SOL
1070
     1
1071
       10
  0
LINE
  8
0
 62
     0
  5
22
 10
0.0
 20
1.0
 30
0.0
 11
0.0
 21
0.0
 31
0.0
1001
AME_SOL
1070
     1
1071
        9
  0
LINE
  8
0
 62
     0
  5
23
 10
3.0
 20
0.0
 30
0.0
 11
3.0
 21
1.0
 31
0.0
1001
AME_SOL
1070
     1
1071
        8
  0
LINE
  8
0
 62
     0
  5
24
 10
3.0
 20
1.0
 30
0.0
 11
0.0
 21
1.0
 31
0.0
1001
AME_SOL
1070
     1
1071
        7
  0
ENDBLK
  8
0
  5
25
  0
BLOCK
  8
0
  5
29
  2
*U4
 70
    65
 10
0.0
 20
0.0
 30
0.0
  1
*U
  3
*U
  0
LINE
  8
0
 62
     0
  5
2A
 10
2.0
 20
1.0
 30
0.0
 11
2.0
 21
1.0
 31
1.0
1001
AME_SOL
1070
     1
1071
       18
  0
LINE
  8
0
 62
     0
  5
2B
 10
2.0
 20
1.0
 30
1.0
 11
2.0
 21
0.0
 31
1.0
1001
AME_SOL
1070
     1
1071
       17
  0
LINE
  8
0
 62
     0
  5
2C
 10
0.0
 20
1.0
 30
1.0
 11
2.0
 21
1.0
 31
1.0
1001
AME_SOL
1070
     1
1071
       16
  0
LINE
  8
0
 62
     0
  5
2D
 10
0.0
 20
1.0
 30
0.0
 11
0.0
 21
1.0
 31
1.0
1001
AME_SOL
1070
     1
1071
       15
  0
LINE
  8
0
 62
     0
  5
2E
 10
0.0
 20
1.0
 30
1.0
 11
0.0
 21
0.0
 31
1.0
1001
AME_SOL
1070
     1
1071
       14
  0
LINE
  8
0
 62
     0
  5
2F
 10
0.0
 20
0.0
 30
0.0
 11
0.0
 21
0.0
 31
1.0
1001
AME_SOL
1070
     1
1071
       13
  0
LINE
  8
0
 62
     0
  5
30
 10
2.0
 20
0.0
 30
1.0
 11
2.0
 21
0.0
 31
0.0
1001
AME_SOL
1070
     1
1071
       12
  0
LINE
  8
0
 62
     0
  5
31
 10
0.0
 20
0.0
 30
1.0
 11
2.0
 21
0.0
 31
1.0
1001
AME_SOL
1070
     1
1071
       11
  0
LINE
  8
0
 62
     0
  5
32
 10
0.0
 20
0.0
 30
0.0
 11
2.0
 21
0.0
 31
0.0
1001
AME_SOL
1070
     1
1071
       10
  0
LINE
  8
0
 62
     0
  5
33
 10
0.0
 20
1.0
 30
0.0
 11
0.0
 21
0.0
 31
0.0
1001
AME_SOL
1070
     1
1071
        9
  0
LINE
  8
0
 62
     0
  5
34
 10
2.0
 20
0.0
 30
0.0
 11
2.0
 21
1.0
 31
0.0
1001
AME_SOL
1070
     1
1071
        8
  0
LINE
  8
0
 62
     0
  5
35
 10
2.0
 20
1.0
 30
0.0
 11
0.0
 21
1.0
 31
0.0
1001
AME_SOL
1070
     1
1071
        7
  0
ENDBLK
  8
0
  5
36
  0
BLOCK
  8
0
  5
3A
  2
*U5
 70
    65
 10
0.0
 20
0.0
 30
0.0
  1
*U
  3
*U
  0
LINE
  8
0
 62
     0
  5
3B
 10
1.0
 20
1.0
 30
0.0
 11
1.0
 21
1.0
 31
1.0
1001
AME_SOL
1070
     1
1071
       18
  0
LINE
  8
0
 62
     0
  5
3C
 10
1.0
 20
1.0
 30
1.0
 11
1.0
 21
0.0
 31
1.0
1001
AME_SOL
1070
     1
1071
       17
  0
LINE
  8
0
 62
     0
  5
3D
 10
0.0
 20
1.0
 30
1.0
 11
1.0
 21
1.0
 31
1.0
1001
AME_SOL
1070
     1
1071
       16
  0
LINE
  8
0
 62
     0
  5
3E
 10
0.0
 20
1.0
 30
0.0
 11
0.0
 21
1.0
 31
1.0
1001
AME_SOL
1070
     1
1071
       15
  0
LINE
  8
0
 62
     0
  5
3F
 10
0.0
 20
1.0
 30
1.0
 11
0.0
 21
0.0
 31
1.0
1001
AME_SOL
1070
     1
1071
       14
  0
LINE
  8
0
 62
     0
  5
40
 10
0.0
 20
0.0
 30
0.0
 11
0.0
 21
0.0
 31
1.0
1001
AME_SOL
1070
     1
1071
       13
  0
LINE
  8
0
 62
     0
  5
41
 10
1.0
 20
0.0
 30
1.0
 11
1.0
 21
0.0
 31
0.0
1001
AME_SOL
1070
     1
1071
       12
  0
LINE
  8
0
 62
     0
  5
42
 10
0.0
 20
0.0
 30
1.0
 11
1.0
 21
0.0
 31
1.0
1001
AME_SOL
1070
     1
1071
       11
  0
LINE
  8
0
 62
     0
  5
43
 10
0.0
 20
0.0
 30
0.0
 11
1.0
 21
0.0
 31
0.0
1001
AME_SOL
1070
     1
1071
       10
  0
LINE
  8
0
 62
     0
  5
44
 10
0.0
 20
1.0
 30
0.0
 11
0.0
 21
0.0
 31
0.0
1001
AME_SOL
1070
     1
1071
        9
  0
LINE
  8
0
 62
     0
  5
45
 10
1.0
 20
0.0
 30
0.0
 11
1.0
 21
1.0
 31
0.0
1001
AME_SOL
1070
     1
1071
        8
  0
LINE
  8
0
 62
     0
  5
46
 10
1.0
 20
1.0
 30
0.0
 11
0.0
 21
1.0
 31
0.0
1001
AME_SOL
1070
     1
1071
        7
  0
ENDBLK
  8
0
  5
47
  0
BLOCK
  8
0
  5
4E
  2
*U6
 70
    65
 10
0.0
 20
0.0
 30
0.0
  1
*U
  3
*U
  0
LINE
  8
0
 62
     7
  5
4F
 10
5.0
 20
4.0
 30
0.0
 11
5.0
 21
4.0
 31
3.0
1001
AME_SOL
1070
     1
1071
       51
  0
LINE
  8
0
 62
     7
  5
50
 10
5.0
 20
4.0
 30
3.0
 11
5.0
 21
0.0
 31
3.0
1001
AME_SOL
1070
     1
1071
       50
  0
LINE
  8
0
 62
     7
  5
51
 10
0.0
 20
4.0
 30
3.0
 11
5.0
 21
4.0
 31
3.0
1001
AME_SOL
1070
     1
1071
       49
  0
LINE
  8
0
 62
     7
  5
52
 10
0.0
 20
4.0
 30
0.0
 11
0.0
 21
4.0
 31
3.0
1001
AME_SOL
1070
     1
1071
       48
  0
LINE
  8
0
 62
     7
  5
53
 10
0.0
 20
4.0
 30
3.0
 11
0.0
 21
0.0
 31
3.0
1001
AME_SOL
1070
     1
1071
       47
  0
LINE
  8
0
 62
     7
  5
54
 10
0.0
 20
0.0
 30
0.0
 11
0.0
 21
0.0
 31
3.0
1001
AME_SOL
1070
     1
1071
       46
  0
LINE
  8
0
 62
     7
  5
55
 10
5.0
 20
0.0
 30
3.0
 11
5.0
 21
0.0
 31
0.0
1001
AME_SOL
1070
     1
1071
       45
  0
LINE
  8
0
 62
     7
  5
56
 10
0.0
 20
0.0
 30
3.0
 11
5.0
 21
0.0
 31
3.0
1001
AME_SOL
1070
     1
1071
       44
  0
LINE
  8
0
 62
     7
  5
57
 10
0.0
 20
0.0
 30
0.0
 11
5.0
 21
0.0
 31
0.0
1001
AME_SOL
1070
     1
1071
       43
  0
LINE
  8
0
 62
     7
  5
58
 10
0.0
 20
4.0
 30
0.0
 11
0.0
 21
0.0
 31
0.0
1001
AME_SOL
1070
     1
1071
       42
  0
LINE
  8
0
 62
     7
  5
59
 10
5.0
 20
0.0
 30
0.0
 11
5.0
 21
4.0
 31
0.0
1001
AME_SOL
1070
     1
1071
       41
  0
LINE
  8
0
 62
     7
  5
5A
 10
5.0
 20
4.0
 30
0.0
 11
0.0
 21
4.0
 31
0.0
1001
AME_SOL
1070
     1
1071
       40
  0
LINE
  8
0
 62
     7
  5
5B
 10
4.0
 20
4.0
 30
2.0
 11
4.0
 21
4.0
 31
1.0
1001
AME_SOL
1070
     1
1071
       39
  0
LINE
  8
0
 62
     7
  5
5C
 10
3.0
 20
4.0
 30
2.0
 11
4.0
 21
4.0
 31
2.0
1001
AME_SOL
1070
     1
1071
       38
  0
LINE
  8
0
 62
     7
  5
5D
 10
4.0
 20
4.0
 30
2.0
 11
4.0
 21
1.0
 31
2.0
1001
AME_SOL
1070
     1
1071
       37
  0
LINE
  8
0
 62
     7
  5
5E
 10
3.0
 20
4.0
 30
1.0
 11
3.0
 21
4.0
 31
2.0
1001
AME_SOL
1070
     1
1071
       36
  0
LINE
  8
0
 62
     7
  5
5F
 10
3.0
 20
4.0
 30
2.0
 11
3.0
 21
3.0
 31
2.0
1001
AME_SOL
1070
     1
1071
       35
  0
LINE
  8
0
 62
     7
  5
60
 10
4.0
 20
4.0
 30
1.0
 11
3.0
 21
4.0
 31
1.0
1001
AME_SOL
1070
     1
1071
       34
  0
LINE
  8
0
 62
     7
  5
61
 10
3.0
 20
4.0
 30
1.0
 11
3.0
 21
3.0
 31
1.0
1001
AME_SOL
1070
     1
1071
       33
  0
LINE
  8
0
 62
     7
  5
62
 10
4.0
 20
1.0
 30
1.0
 11
4.0
 21
4.0
 31
1.0
1001
AME_SOL
1070
     1
1071
       32
  0
LINE
  8
0
 62
     7
  5
63
 10
2.0
 20
3.0
 30
1.0
 11
3.0
 21
3.0
 31
1.0
1001
AME_SOL
1070
     1
1071
       31
  0
LINE
  8
0
 62
     7
  5
64
 10
3.0
 20
3.0
 30
2.0
 11
3.0
 21
3.0
 31
1.0
1001
AME_SOL
1070
     1
1071
       30
  0
LINE
  8
0
 62
     7
  5
65
 10
3.0
 20
3.0
 30
2.0
 11
2.0
 21
3.0
 31
2.0
1001
AME_SOL
1070
     1
1071
       29
  0
LINE
  8
0
 62
     7
  5
66
 10
2.0
 20
2.0
 30
1.0
 11
2.0
 21
3.0
 31
1.0
1001
AME_SOL
1070
     1
1071
       28
  0
LINE
  8
0
 62
     7
  5
67
 10
2.0
 20
3.0
 30
1.0
 11
2.0
 21
3.0
 31
2.0
1001
AME_SOL
1070
     1
1071
       27
  0
LINE
  8
0
 62
     7
  5
68
 10
2.0
 20
3.0
 30
2.0
 11
2.0
 21
2.0
 31
2.0
1001
AME_SOL
1070
     1
1071
       26
  0
LINE
  8
0
 62
     7
  5
69
 10
1.0
 20
2.0
 30
1.0
 11
2.0
 21
2.0
 31
1.0
1001
AME_SOL
1070
     1
1071
       25
  0
LINE
  8
0
 62
     7
  5
6A
 10
2.0
 20
2.0
 30
2.0
 11
2.0
 21
2.0
 31
1.0
1001
AME_SOL
1070
     1
1071
       24
  0
LINE
  8
0
 62
     7
  5
6B
 10
2.0
 20
2.0
 30
2.0
 11
1.0
 21
2.0
 31
2.0
1001
AME_SOL
1070
     1
1071
       23
  0
LINE
  8
0
 62
     7
  5
6C
 10
1.0
 20
1.0
 30
1.0
 11
1.0
 21
2.0
 31
1.0
1001
AME_SOL
1070
     1
1071
       22
  0
LINE
  8
0
 62
     7
  5
6D
 10
1.0
 20
2.0
 30
1.0
 11
1.0
 21
2.0
 31
2.0
1001
AME_SOL
1070
     1
1071
       21
  0
LINE
  8
0
 62
     7
  5
6E
 10
1.0
 20
2.0
 30
2.0
 11
1.0
 21
1.0
 31
2.0
1001
AME_SOL
1070
     1
1071
       20
  0
LINE
  8
0
 62
     7
  5
6F
 10
4.0
 20
1.0
 30
1.0
 11
1.0
 21
1.0
 31
1.0
1001
AME_SOL
1070
     1
1071
       19
  0
LINE
  8
0
 62
     7
  5
70
 10
1.0
 20
1.0
 30
1.0
 11
1.0
 21
1.0
 31
2.0
1001
AME_SOL
1070
     1
1071
       18
  0
LINE
  8
0
 62
     7
  5
71
 10
4.0
 20
1.0
 30
2.0
 11
4.0
 21
1.0
 31
1.0
1001
AME_SOL
1070
     1
1071
       17
  0
LINE
  8
0
 62
     7
  5
72
 10
1.0
 20
1.0
 30
2.0
 11
4.0
 21
1.0
 31
2.0
1001
AME_SOL
1070
     1
1071
       16
  0
ENDBLK
  8
0
  5
73
  0
BLOCK
  8
0
  5
77
  2
AME_MAT
 70
    64
 10
0.0
 20
0.0
 30
0.0
  1
AME_MAT
  3
AME_MAT
  0
ENDBLK
  8
0
  5
78
  0
ENDSEC
  0
SECTION
  2
ENTITIES
  0
INSERT
  8
AME_FRZ
  5
3
  2
AME_NIL
 10
0.0
 20
0.0
 30
0.0
  0
INSERT
  8
AME_FRZ
  5
6
  2
AME_SOL
 10
0.0
 20
0.0
 30
0.0
1001
AME_SOL
1000
1.0
1000
sq cm
1070
     3
1070
     0
1070
     3
1000
wire
1040
0.0
1000
NONE
1040
1.0
1000
cm
1000
gm
1000
MILD_STEEL
1070
    25
1000
CSG
1070
     3
1070
     2
1070
     3
1000
cu cm
1070
     4
1070
     0
1005
3
  0
INSERT
  8
AME_FRZ
  5
15
  2
*U2
 10
0.0
 20
0.0
 30
0.0
1001
AME_SOL
1002
{
1070
     0
1071
  1858928
1070
  1536
1010
5.0
1020
4.0
1030
3.0
1005
0
1005
0
1005
74
1040
0.0
1040
1.0
1000
MILD_STEEL
1000
0
1010
0.0
1020
0.0
1030
0.0
1010
0.0
1020
0.0
1030
1.0
1040
0.0
1002
}
  0
INSERT
  8
AME_FRZ
  5
26
  2
*U3
 10
1.0
 20
1.0
 30
1.0
1001
AME_SOL
1002
{
1070
     0
1071
  1859824
1070
  1536
1010
3.0
1020
1.0
1030
1.0
1005
0
1005
0
1005
4C
1040
0.0
1040
1.0
1000
MILD_STEEL
1000
0
1010
1.0
1020
1.0
1030
1.0
1010
0.0
1020
0.0
1030
1.0
1040
0.0
1002
}
  0
INSERT
  8
AME_FRZ
  5
37
  2
*U4
 10
2.0
 20
2.0
 30
1.0
1001
AME_SOL
1002
{
1070
     0
1071
  1928792
1070
  1536
1010
2.0
1020
1.0
1030
1.0
1005
0
1005
0
1005
4B
1040
0.0
1040
1.0
1000
MILD_STEEL
1000
0
1010
2.0
1020
2.0
1030
1.0
1010
0.0
1020
0.0
1030
1.0
1040
0.0
1002
}
  0
INSERT
  8
AME_FRZ
  5
48
  2
*U5
 10
3.0
 20
3.0
 30
1.0
1001
AME_SOL
1002
{
1070
     0
1071
  1965832
1070
  1536
1010
1.0
1020
1.0
1030
1.0
1005
0
1005
0
1005
4B
1040
0.0
1040
1.0
1000
MILD_STEEL
1000
0
1010
3.0
1020
3.0
1030
1.0
1010
0.0
1020
0.0
1030
1.0
1040
0.0
1002
}
  0
INSERT
  8
AME_FRZ
  5
4B
  2
AME_NIL
 10
0.0
 20
0.0
 30
0.0
1001
AME_SOL
1002
{
1070
     0
1071
  1976224
1070
   775
1070
     2
1005
48
1005
37
1005
0
1005
0
1005
4C
1040
0.0
1040
1.0
1000
MILD_STEEL
1000
0
1010
0.0
1020
0.0
1030
0.0
1010
0.0
1020
0.0
1030
1.0
1040
0.0
1002
}
  0
INSERT
  8
AME_FRZ
  5
4C
  2
AME_NIL
 10
0.0
 20
0.0
 30
0.0
1001
AME_SOL
1002
{
1070
     0
1071
  1990200
1070
   775
1070
     2
1005
4B
1005
26
1005
0
1005
0
1005
74
1040
0.0
1040
1.0
1000
MILD_STEEL
1000
0
1010
0.0
1020
0.0
1030
0.0
1010
0.0
1020
0.0
1030
1.0
1040
0.0
1002
}
  0
INSERT
  8
0
  5
74
  2
*U6
 10
0.0
 20
0.0
 30
0.0
1001
AME_SOL
1002
{
1070
     0
1071
  1999432
1070
  1543
1070
     0
1005
15
1005
4C
1005
0
1005
75
1005
0
1040
0.0
1040
1.0
1000
MILD_STEEL
1000
0
1002
}
  0
INSERT
  8
AME_FRZ
  5
75
  2
AME_NIL
 10
1.0
 20
1.0
 30
1.0
1001
AME_SOL
1004
E903A9FB0100F0FFFFFF000052F70F0001000000304662BA304662BA304662BA1207A04012078040240E404001000000FBF2040000D87F3F00D87F3F00D87F3F000580400014803F000A00400100844E701C1E00FFFF0000010031010000844E00000000803F000000000000000000000000000000000000
1004
803F0000803F0000803F0000803F05000000000000000000000000000000000000000000844E00000000803F000000000000000000000000000000000000803F0000803F0000803F0000803F050000000000000000000000000000000000FFFFFFFFFBF2040000D87F3F00D87F3F00D87F3F0014803F000A
1004
0040000A00400100844ED0C01E00FFFF0000010030010000844E000000000000000000000000803F000000000000803F000000000000803F0000803F0000803F05000000000000000000000000000000000000000000844E000000000000000000000000803F000000000000803F000000000000803F0000
1004
803F0000803F050000000000000000000000000000000000FFFFFFFFFBF2040000D87F3F00ECFF3F00D87F3F00058040000A0040000A00400100844EC0C11E00FFFF000001002E010000844E00000000008000000080000080BF000080BF0000008000000080000080400000004000000040050000000000
1004
00000000000000000000000000000000844E0000000080BF000000800000008000000000000000000000803F00000040000000400000803F050000000000000000000000000000000000FFFFFFFFFBF2040000ECFF3F00ECFF3F00D87F3F000A0040000A4040000A00400100844EB0C21E00FFFF00000100
1004
F8010000844E000000000000000000000000803F000000000000803F0000000000000040000000400000803F05000000000000000000000000000000000000000000844E000000000000000000000000803F000000000000803F0000000000000040000000400000803F0500000000000000000000000000
1004
00000000FFFFFFFFFBF2040000ECFF3F00F63F4000D87F3F00058040000A4040000A00400100844E90DB1D00FFFF00000100F6010000844E00000000008000000080000080BF000080BF000000800000008000008040000040400000004005000000000000000000000000000000000000000000844E0000
1004
000080BF000000800000008000000000000000000000803F00004040000040400000803F050000000000000000000000000000000000FFFFFFFFFBF2080000D87F3F00D87F3F00D87F3F00058040000A00400014803F0100844EF0C21D00FFFF0000030032010000844E0000000000000000803F00000000
1004
0000803F00000000000000000000803F0000803F0000803F05000000000000000000000000000000000000000000FA010000844E0000000000000000803F000000000000803F000000000000000000000040000000400000803F050000000000000000000000000000000000000000005E020000844E0000
1004
000000000000803F000000000000803F000000000000000000004040000040400000803F05000000000000000000000000000000000000000000844E0000000000000000803F000000000000803F000000000000000000004040000040400000803F050000000000000000000000000000000000FFFFFFFF
1004
FBF2040000F63F4000F63F4000D87F3F000A404000058040000A00400100844ED0DD1D00FFFF000001005C020000844E000000000000000000000000803F000000000000803F0000000000004040000040400000803F05000000000000000000000000000000000000000000844E00000000000000000000
1004
0000803F000000000000803F0000000000004040000040400000803F050000000000000000000000000000000000FFFFFFFFFBF2080000D87F3F00D87F3F00ECFF3F00058040000A0040000A00400100844EF8EC1D00FFFF000003002F010000844E0000000080BF000000800000008000000080000080BF
1004
0000008000008040000000400000004005000000000000000000000000000000000000000000F7010000844E0000000080BF000000800000008000000080000080BF00000080000080400000404000000040050000000000000000000000000000000000000000005B020000844E0000000080BF00000080
1004
0000008000000080000080BF0000008000008040000080400000004005000000000000000000000000000000000000000000844E0000000080BF000000800000008000000080000080BF00000080000080400000804000000040050000000000000000000000000000000000FFFFFFFFFBF2040000F67F40
1004
00D87F3F00D87F3F00058040000A0040000A00400100844E40ED1D00FFFF000003002D010000844E000000000080000080BF000000800000008000000080000080BF00008040000000400000004005000000000000000000000000000000000000000000F5010000844E000000000080000080BF00000080
1004
0000008000000080000080BF0000804000004040000000400500000000000000000000000000000000000000000059020000844E000000000080000080BF000000800000008000000080000080BF00008040000080400000004005000000000000000000000000000000000000000000844E000000000080
1004
000080BF000000800000008000000080000080BF000080400000804000000040050000000000000000000000000000000000FFFFFFFFFBF20400304662BA304662BA304662BA1207A040120780403046623A0100844E60EE1D00010000000100C2020000844E0000000000000000803F000000000000803F
1004
000000000000000000000000000000000000000005000000000000000000000000000000000000000000844E0000000000000000803F000000000000803F000000000000000000000000000000000000000005000000000000000000000000000000000001000000FBF20400304662BA304662BA304662BA
1004
1207A0403046623A240E40400100844ED0ED1D00010000000100C1020000844E00000000803F000000000000000000000000000000000000803F00000000000000000000000005000000000000000000000000000000000000000000844E00000000803F000000000000000000000000000000000000803F
1004
00000000000000000000000005000000000000000000000000000000000001000000FBF20400304662BA304662BA304662BA3046623A12078040240E40400100844EF0EE1D00010000000100C0020000844E000000000000000000000000803F000000000000803F00000000000000000000000000000000
1004
05000000000000000000000000000000000000000000844E000000000000000000000000803F000000000000803F0000000000000000000000000000000005000000000000000000000000000000000001000000FBF20400304662BA304662BADCF13F401207A04012078040240E40400100844E68EB1D00
1004
010000000100BF020000844E0000000080BF000000800000008000000080000080BF000000800000A040000080400000404005000000000000000000000000000000000000000000844E0000000080BF000000800000008000000080000080BF000000800000A04000008040000040400500000000000000
1004
0000000000000000000001000000FBF20800304662BADCF17F40304662BA1207A04012078040240E40400100844E48EA1D00010000000100BE020000844E00000000008000000080000080BF000080BF00000080000000800000A04000008040000040400500000000000000000000000000000000000000
1004
0000844E00000000008000000080000080BF000080BF00000080000000800000A040000080400000404005000000000000000000000000000000000001000000FBF20400EEF89F40304662BA304662BA1207A04012078040240E40400100844EB0DC1D00010000000100BD020000844E0000000000800000
1004
80BF000000800000008000000080000080BF0000A040000080400000404005000000000000000000000000000000000000000000844E000000000080000080BF000000800000008000000080000080BF0000A040000080400000404005000000000000000000000000000000000001000000A4EE00D87F3F
1004
00D87F3F00ECFF3F000580400014803F000A00400000C0BF0000C03F0200967590D01D0000000100FFFF701C1E00F8EC1D0000000200F8EC1D00701C1E00FFFFFFFFFFFFFFFF9675000000000000000000000000803F00000000000080BF00000000000020400000803F0000004002000000C0BF0000C03F
1004
A4EE00F67F4000D87F3F00D87F3F000580400014803F000A0040FFFFFFBE0100003F02009675B0C81D0000000100FFFF701C1E0040ED1D000000020040ED1D00701C1E00FFFFFFFFFFFFFFFF967500000000803F000000000000000000000000000080BF0000000000008040FFFF7F3F0000C03F0200FFFF
1004
FFBE0100003FA4EE00D87F3F00D87F3F00D87F3F0014803F0014803F000A0040000000000000803F0200967500C71D0000000100FFFF701C1E00D0C01E0000000200D0C01E00701C1E00FFFFFFFFFFFFFFFF96750000000080BF000000000000000000000000000080BF000000000000803F0000803F0000
1004
803F0200000000000000803FA4EE00D87F3F00D87F3F00D87F3F000580400014803F0014803FFFFFFFBF0100803F0200967570FE1D0000000100FFFF701C1E00F0C21D0000000200F0C21D00701C1E00FFFFFFFFFFFFFFFF967500000000000000000000000080BF00000000000080BF0000000001000040
1004
0000803F0000803F0200FFFFFFBF0100803FA4EE00D87F3F00D87F3F00ECFF3F0014803F000A0040000A0040FFFFFF3E0000C03F02009675F0021E0000000100FFFFD0C01E00F8EC1D0000000200F8EC1D00D0C01E00FFFFFFFFFFFFFFFF9675000000000000000000000000803F000080BF000000000000
1004
00000000803F00002040000000400200FFFFFF3E0000C03FA4EE00D87F3F00ECFF3F00D87F3F0014803F000A0040000A0040000000000000803F0200967510041E0000000100FFFFD0C01E00C0C11E0000000200C0C11E00D0C01E00FFFFFFFFFFFFFFFF96750000000000000000803F00000000000080BF
1004
00000000000000000000803F000000400000803F0200000000000000803FA4EE00D87F3F00D87F3F00D87F3F0014803F000A00400014803F010080BF000020B402009675C0061E0000000100FFFFD0C01E00F0C21D0000000200F0C21D00D0C01E00FFFFFFFFFFFFFFFF9675000000000000000000000000
1004
80BF000080BF00000000000000000000803F010000400000803F0200010080BF000020B4A4EE00D87F3F00ECFF3F00ECFF3F00058040000A0040000A00400100803F010000400200967558051E0000000100FFFFC0C11E00F8EC1D0000000200F8EC1D00C0C11E00FFFFFFFFFFFFFFFF9675000000000000
1004
000000000000803F000000000000803F0000008000004040000000400000004002000100803F01000040A4EE00ECFF3F00ECFF3F00D87F3F000A0040000A0040000A0040000080BF0000008002009675300A1E000000FFFF0100C0C11E00B0C21E0000000200C0C11E00B0C21E00FFFFFFFFFFFFFFFF9675
1004
0000000080BF0000000000000000000000000000803F0000000000000040000000400000803F0200000080BF00000080A4EE00D87F3F00ECFF3F00D87F3F00058040000A00400014803F0000C0BFFFFFFFBE0200967528FE1D0000000100FFFFC0C11E00F0C21D0000000200F0C21D00C0C11E00FFFFFFFF
1004
FFFFFFFF967500000000000000000000000080BF000000000000803F0000000000002040000000400000803F02000000C0BFFFFFFFBEA4EE00ECFF3F00ECFF3F00ECFF3F000A0040000A4040000A0040000000000100803F0200967530FC1D0000000100FFFFB0C21E00F8EC1D0000000200F8EC1D00B0C2
1004
1E00FFFFFFFFFFFFFFFF9675000000000000000000000000803F000080BF00000000000000000000004000004040000000400200000000000100803FA4EE00ECFF3F00F63F4000D87F3F000A0040000A4040000A0040000000000000803F0200967530F11D0000000100FFFFB0C21E0090DB1D0000000200
1004
90DB1D00B0C21E00FFFFFFFFFFFFFFFF96750000000000000000803F00000000000080BF000000000000000000000040000040400000803F0200000000000000803FA4EE00ECFF3F00ECFF3F00D87F3F000A0040000A40400014803FFFFFFFBE0200003F0200967580EF1D0000000100FFFFB0C21E00F0C2
1004
1D0000000200F0C21D00B0C21E00FFFFFFFFFFFFFFFF967500000000000000000000000080BF000080BF000000000000000000000040000020400000803F0200FFFFFFBE0200003FA4EE00ECFF3F00F63F4000ECFF3F00058040000A4040000A00400200003F0200C03F02009675F8491D0000000100FFFF
1004
90DB1D00F8EC1D0000000200F8EC1D0090DB1D00FFFFFFFFFFFFFFFF9675000000000000000000000000803F000000000000803F0000008001006040000040400000004002000200003F0200C03FA4EE00F63F4000F63F4000D87F3F000A4040000A4040000A0040000080BF000000800200967508581D00
1004
0000FFFF010090DB1D00D0DD1D000000020090DB1D00D0DD1D00FFFFFFFFFFFFFFFF96750000000080BF0000000000000000000000000000803F0000000000004040000040400000803F0200000080BF00000080A4EE00ECFF3F00F63F4000D87F3F00058040000A40400014803F010080BF000000000200
1004
9675D85C1D0000000100FFFF90DB1D00F0C21D0000000200F0C21D0090DB1D00FFFFFFFFFFFFFFFF967500000000000000000000000080BF000000000000803F0000000000004040000040400000803F0200010080BF00000000A4EE00F67F4000D87F3F00D87F3F00058040000580400014803F010020C0
1004
FAFFFF3E0200967538611D0000000100FFFFF0C21D0040ED1D000000020040ED1D00F0C21D00FFFFFFFFFFFFFFFF967500000000803F00000000000000000000000000000000000080BF00008040010060400000803F0200010020C0FAFFFF3EA4EE00F63F4000F63F4000D87F3F000A4040000580400014
1004
803FFFFF7FBF0000000002009675D86F1D0000000100FFFFF0C21D00D0DD1D0000000200D0DD1D00F0C21D00FFFFFFFFFFFFFFFF96750000000080BF00000000000000000000000000000000000080BF00004040000040400000803F0200FFFF7FBF00000000A4EE00F63F40DCF17F4000D87F3F00058040
1004
000580400014803F00000000FFFF7F3F02009675887A1D0000000100FFFFF0C21D0048EA1D000000020048EA1D00F0C21D0001000000FFFFFFFF96750000000000000000803F000000000000000000000000000080BF00008040000080400000803F020000000000FFFF7F3FA4EE00F63F4000F63F4000EC
1004
FF3F000A404000058040000A0040FAFFFFBE0200003F02009675307C1D0000000100FFFFD0DD1D00F8EC1D0000000200F8EC1D00D0DD1D00FFFFFFFFFFFFFFFF9675000000000000000000000000803F000080BF00000000000000000000404001006040000000400200FAFFFFBE0200003FA4EE00F63F40
1004
DCF17F4000D87F3F000A404000058040000A0040010080BF000020B402009675507D1D0000000100FFFFD0DD1D0048EA1D000000020048EA1D00D0DD1D0001000000FFFFFFFF96750000000000000000803F00000000000080BF00000000000000000000404000008040010000400200010080BF000020B4
1004
A4EE00F67F4000D87F3F00ECFF3F0005804000058040000A0040000000000000404002009675707E1D0000000100FFFFF8EC1D0040ED1D000000020040ED1D00F8EC1D00FFFFFFFFFFFFFFFF967500000000803F000000000000000000000080000000000000803F00008040000080400000004002000000
1004
000000004040A4EE00F63F40DCF17F4000ECFF3F0005804000058040000A0040FEFFBFBFFAFFFFBE02009675487F1D0000000100FFFFF8EC1D0048EA1D000000020048EA1D00F8EC1D0001000000FFFFFFFF96750000000000000000803F0000000000000000000000000000803F00009040000080400000
1004
00400200FEFFBFBFFAFFFFBEA4EE00F67F40DCF17F4000D87F3F0005804000058040000A0040FFFFFF3E0000C03F02009675B0801D0000000100FFFF40ED1D0048EA1D000000020048EA1D0040ED1D0001000000FFFFFFFF96750000000000000000803F000000000000803F000000800000000000008040
1004
00008040000020400200FFFFFF3E0000C03FA4EE304662BADCF17F40304662BA1207A040120780403046623A000020C0000020400200967588811D000000FFFF010060EE1D0048EA1D000000020060EE1D0048EA1D00010000000100000096750000000000000000803F0000000000000000000000000000
1004
80BF0000204000008040000000000200000020C000002040A4EEEEF89F40304662BA304662BA1207A040120780403046623A000000C00000004002009675C8861D000000FFFF010060EE1D00B0DC1D000000020060EE1D00B0DC1D000100000001000000967500000000803F000000000000000000000000
1004
00000000000080BF0000A04000000040000000000200000000C000000040A4EE304662BA304662BA304662BA3046623A120780403046623A000080C0000000800200967578881D000000FFFF010060EE1D00F0EE1D000000020060EE1D00F0EE1D00010000000100000096750000000080BF000000000000
1004
00000000000000000000000080BF0000000000000000000000000200000080C000000080A4EE304662BA304662BA304662BA1207A0403046623A3046623A000000000000A0400200967528891D000000FFFF010060EE1D00D0ED1D000000020060EE1D00D0ED1D0001000000010000009675000000000000
1004
000080BF000000000000000000000000000080BF0000000000000000000000000200000000000000A040A4EE304662BA304662BADCF13F401207A0403046623A240E4040000020C00000204002009675D08B1D000000FFFF0100D0ED1D0068EB1D0000000200D0ED1D0068EB1D0001000000010000009675
1004
000000000000000000000000803F00000000000080BF000000000000204000000000000040400200000020C000002040A4EEEEF89F40304662BA304662BA1207A0403046623A240E40400000C0BF0000C03F02009675E8841D000000FFFF0100D0ED1D00B0DC1D0000000200D0ED1D00B0DC1D0001000000
1004
01000000967500000000803F000000000000000000000000000080BF000000000000A040000000000000C03F02000000C0BF0000C03FA4EE304662BA304662BA304662BA3046623A3046623A240E404000000000000040400200967568931D000000FFFF0100D0ED1D00F0EE1D0000000200D0ED1D00F0EE
1004
1D00010000000100000096750000000080BF000000000000000000000000000080BF0000000000000000000000000000000002000000000000004040A4EE304662BA304662BADCF13F403046623A12078040240E4040000000C0000000400200967548921D000000FFFF0100F0EE1D0068EB1D0000000200
1004
F0EE1D0068EB1D0001000000010000009675000000000000000000000000803F000080BF00000000000000000000000000000040000040400200000000C000000040A4EE304662BADCF17F40304662BA3046623A12078040240E40400000C0BF0000C03F0200967540941D000000FFFF0100F0EE1D0048EA
1004
1D0000000200F0EE1D0048EA1D00010000000100000096750000000000000000803F00000000000080BF000000000000000000000000000080400000C03F02000000C0BF0000C03FA4EE304662BADCF17F40DCF13F401207A04012078040240E40400000A0C0000000800200967598A41D000000FFFF0100
1004
68EB1D0048EA1D000000020068EB1D0048EA1D00010000000100000096750000000000000000803F0000000000000000000000000000803F0000A040000080400000404002000000A0C000000080A4EEEEF89F40304662BADCF13F401207A04012078040240E404000000000000080400200967568A71D00
1004
0000FFFF010068EB1D00B0DC1D000000020068EB1D00B0DC1D000100000001000000967500000000803F000000000000000000000080000000000000803F0000A040000080400000404002000000000000008040A4EEEEF89F40DCF17F40304662BA1207A04012078040240E4040000040C0000000800200
1004
9675F8911D000000FFFF010048EA1D00B0DC1D000000020048EA1D00B0DC1D000100000001000000967500000000803F0000000000000000000000000000803F000000000000A04000008040000040400200000040C00000008019FC
1005
76
  0
INSERT
  8
AME_FRZ
  5
76
  2
AME_NIL
 10
1.0
 20
1.0
 30
1.0
1001
AME_SOL
1004

1005
0
  0
INSERT
  8
AME_FRZ
  5
79
  2
AME_MAT
 10
0.0
 20
0.0
 30
0.0
1001
AME_SOL
1000
MILD_STEEL
1040
7860.0
1040
220.0
1040
0.275
1040
207.0
1040
345.0
1040
56.0
1040
12.0
1040
0.46
  0
ENDSEC
  0
EOF
