600 0 2 0           
24 FBMach with ACIS - 6.0.3 13 ACIS 6.0.3 NT 24 Tue May 22 15:35:16 2001 
1 9.9999999999999995e-007 1e-010 
body $2 $3 $-1 $4 #
bdycol-kcp $-1 1 2 $5 $6 #
model_id-kcp-attrib $-1 $-1 $-1 $0 1 990560115 60 540803073 1 #
lump $-1 $-1 $7 $0 #
transform $-1 1 0 0 0 1 0 0 0 1 0 0 0 1 no_rotate no_reflect no_shear #
body $8 $9 $-1 $10 #
body $11 $12 $-1 $13 #
shell $-1 $-1 $-1 $14 $-1 $3 #
model_id-kcp-attrib $-1 $-1 $-1 $5 1 990560115 60 540803074 1 #
lump $-1 $-1 $15 $5 #
transform $-1 1 0 0 0 1 0 0 0 1 0 0 0 1 no_rotate no_reflect no_shear #
rgb_color-st-attrib $-1 $16 $-1 $6 0.5 1 1 #
lump $-1 $-1 $17 $6 #
transform $-1 -1 0 -1.2246063538223773e-016 0 1 0 1.2246063538223773e-016 0 -1 1.9642679792279163e-016 0 2.4054550479723476e-032 1 rotate no_reflect no_shear #
face $18 $19 $20 $7 $-1 $21 reversed single #
shell $-1 $-1 $-1 $22 $-1 $9 #
model_id-kcp-attrib $-1 $-1 $11 $6 1 990560115 100 543424515 1 #
shell $-1 $-1 $-1 $23 $-1 $12 #
model_id-kcp-attrib $-1 $24 $-1 $14 1 990560115 60 540803073 39 #
face $25 $26 $27 $7 $-1 $28 forward single #
loop $-1 $29 $30 $14 #
plane-surface $-1 0 0 -1.6039995 0 0 1 1 0 0 forward_v I I I I #
face $31 $32 $33 $15 $-1 $34 forward single #
face $-1 $35 $36 $17 $-1 $37 forward single #
model_id-kcp-attrib $-1 $38 $18 $14 1 990560115 60 540803073 37 #
model_id-kcp-attrib $-1 $39 $-1 $19 1 990560115 60 540803073 38 #
face $40 $41 $42 $7 $-1 $43 forward single #
loop $-1 $44 $45 $19 #
plane-surface $-1 0 0 1.6039995 0 0 1 1 0 0 forward_v I I I I #
loop $46 $-1 $47 $14 #
coedge $-1 $30 $30 $48 $49 forward $20 $-1 #
model_id-kcp-attrib $-1 $-1 $-1 $22 1 990560115 60 540803074 3 #
face $50 $51 $52 $15 $-1 $53 reversed single #
loop $-1 $-1 $54 $22 #
plane-surface $-1 0 0 1.6039995 0 0 1 1 0 0 forward_v I I I I #
face $-1 $55 $56 $17 $-1 $57 forward single #
loop $-1 $58 $59 $23 #
cone-surface $-1 0 0 0 0 0 1 1.3 0 0 1 I I 0 1 1.3 forward I I I I #
model_id-kcp-attrib $-1 $-1 $24 $14 1 990560115 60 540803073 2 #
model_id-kcp-attrib $-1 $-1 $25 $19 1 990560115 60 540803073 3 #
model_id-kcp-attrib $-1 $-1 $-1 $26 1 990560115 60 540803073 4 #
face $60 $61 $62 $7 $-1 $63 forward single #
loop $-1 $64 $48 $26 #
cone-surface $-1 0 0 -1.6039995 0 0 -1 1.9950000000000001 0 0 1 I I 0.98768834059513799 0.15643446504023101 1.9950000000000001 forward I I I I #
loop $65 $-1 $66 $19 #
coedge $-1 $45 $45 $67 $68 forward $27 $-1 #
model_id-kcp-attrib $-1 $-1 $-1 $29 1 990560115 60 540803073 43 #
coedge $-1 $47 $47 $69 $70 forward $29 $-1 #
coedge $-1 $48 $48 $30 $49 reversed $42 $-1 #
edge $71 $72 -3.1415926535897931 $72 3.1415926535897931 $30 $73 forward 7 unknown #
model_id-kcp-attrib $-1 $-1 $-1 $32 1 990560115 60 540803074 2 #
face $-1 $74 $75 $15 $-1 $76 reversed single #
loop $-1 $-1 $77 $32 #
plane-surface $-1 0 0 -1.6039995 0 0 1 1 0 0 forward_v I I I I #
coedge $-1 $78 $79 $80 $81 forward $33 $-1 #
face $-1 $-1 $82 $17 $-1 $83 forward single #
loop $-1 $-1 $84 $35 #
plane-surface $-1 0 0 -1.6039995000000002 0 0 -1 -1 0 0 forward_v I I I I #
loop $-1 $-1 $85 $23 #
coedge $-1 $59 $59 $84 $86 reversed $36 $-1 #
model_id-kcp-attrib $-1 $-1 $-1 $41 1 990560115 60 540803073 5 #
face $87 $88 $89 $7 $-1 $90 forward single #
loop $-1 $91 $92 $41 #
cone-surface $-1 0 0 1.6039995 0 0 1 1.9950000000000001 0 0 1 I I 0.99580149327870804 0.091538986141947803 1.9950000000000001 forward I I I I #
loop $-1 $-1 $93 $26 #
model_id-kcp-attrib $-1 $-1 $-1 $44 1 990560115 60 540803073 42 #
coedge $-1 $66 $66 $94 $95 reversed $44 $-1 #
coedge $-1 $67 $67 $45 $68 reversed $91 $-1 #
edge $-1 $96 0 $96 6.2831853071795862 $67 $97 forward 7 unknown #
coedge $-1 $69 $69 $47 $70 reversed $98 $-1 #
edge $99 $100 -3.1415926535897931 $100 3.1415926535897931 $69 $101 forward 7 unknown #
attrib_edge_convexity-kcp-attrib $-1 $102 $-1 $49 1 #
vertex $-1 $49 $103 #
ellipse-curve $-1 0 0 -1.6039995 0 0 -1 1.9950000000000001 0 0 1 I I #
face $-1 $104 $105 $15 $-1 $106 reversed single #
loop $-1 $-1 $107 $51 #
plane-surface $-1 0 -1.9950000000000001 0 0 1 0 0 0 1 forward_v I I I I #
coedge $-1 $108 $109 $110 $111 forward $52 $-1 #
coedge $-1 $112 $54 $113 $114 forward $33 $-1 #
coedge $-1 $54 $112 $115 $116 forward $33 $-1 #
coedge $-1 $117 $118 $54 $81 reversed $119 $-1 #
edge $-1 $120 -1.9950000000000001 $121 1.9950000000000001 $80 $122 forward 7 unknown #
loop $-1 $-1 $123 $55 #
plane-surface $-1 0 0 1.6039995000000002 0 0 1 1 0 0 forward_v I I I I #
coedge $-1 $84 $84 $59 $86 forward $56 $-1 #
coedge $-1 $85 $85 $123 $124 reversed $58 $-1 #
edge $-1 $125 0 $125 6.2831853071795862 $84 $126 forward 7 unknown #
model_id-kcp-attrib $-1 $-1 $-1 $61 1 990560115 60 540803073 6 #
face $127 $128 $129 $7 $-1 $130 forward single #
loop $-1 $131 $132 $61 #
cone-surface $-1 0 0 1.4412984069532799 0 0 -1 1.9950000000000001 0 0 1 I I 0.98768834059513799 0.15643446504023101 1.9950000000000001 forward I I I I #
loop $-1 $-1 $67 $41 #
coedge $-1 $92 $92 $133 $134 forward $62 $-1 #
coedge $-1 $93 $93 $135 $136 forward $64 $-1 #
coedge $-1 $94 $94 $66 $95 forward $137 $-1 #
edge $138 $139 0 $139 6.2831853071795862 $94 $140 forward 7 unknown #
vertex $-1 $68 $141 #
ellipse-curve $-1 0 0 1.6039995 0 0 1 1.9950000000000001 0 0 1 I I #
loop $142 $-1 $69 $143 #
attrib_edge_convexity-kcp-attrib $-1 $144 $-1 $70 1 #
vertex $145 $70 $146 #
ellipse-curve $-1 0 0 -1.6039995 0 0 1 1.3 0 0 1 I I #
convexity-sys-attrib $-1 $-1 $71 $49 #
point $-1 -1.9950000000000001 0 -1.6039995 #
face $-1 $147 $148 $15 $-1 $149 reversed single #
loop $-1 $-1 $150 $74 #
plane-surface $-1 -1.9950000000000001 0 0 1 0 0 0 0 -1 forward_v I I I I #
coedge $-1 $151 $115 $152 $153 forward $75 $-1 #
coedge $-1 $154 $77 $151 $155 forward $52 $-1 #
coedge $-1 $77 $154 $156 $157 forward $52 $-1 #
coedge $-1 $118 $117 $77 $111 reversed $119 $-1 #
edge $-1 $158 -1.9950000000000001 $159 1.9950000000000001 $110 $160 forward 7 unknown #
coedge $-1 $79 $78 $161 $162 forward $33 $-1 #
coedge $-1 $163 $164 $78 $114 reversed $148 $-1 #
edge $-1 $121 -1.9950000000000001 $165 1.9950000000000001 $113 $166 forward 7 unknown #
coedge $-1 $107 $167 $79 $116 reversed $75 $-1 #
edge $-1 $168 -1.9950000000000001 $120 1.9950000000000001 $115 $169 forward 7 unknown #
coedge $-1 $110 $80 $167 $170 forward $119 $-1 #
coedge $-1 $80 $110 $163 $171 reversed $119 $-1 #
loop $-1 $-1 $117 $147 #
vertex $-1 $81 $172 #
vertex $-1 $81 $173 #
straight-curve $-1 1.9950000000000001 0 1.6039995 0 1 0 I I #
coedge $-1 $123 $123 $85 $124 forward $82 $-1 #
edge $-1 $174 0 $174 6.2831853071795862 $123 $175 forward 7 unknown #
vertex $-1 $86 $176 #
ellipse-curve $-1 0 0 -1.6039995000000002 0 0 -1 1.3 0 0 1 I I #
model_id-kcp-attrib $-1 $-1 $-1 $88 1 990560115 60 540803073 7 #
face $177 $178 $179 $7 $-1 $180 forward single #
loop $-1 $181 $182 $88 #
cone-surface $-1 0 0 1.4412984069532799 0 0 1 1.9950000000000001 0 0 1 I I 0.98768834059513799 0.15643446504023101 1.9950000000000001 forward I I I I #
loop $-1 $-1 $133 $61 #
coedge $-1 $132 $132 $183 $184 forward $89 $-1 #
coedge $-1 $133 $133 $92 $134 reversed $131 $-1 #
edge $-1 $185 -3.1415926535897931 $185 3.1415926535897931 $133 $186 forward 7 unknown #
coedge $-1 $135 $135 $93 $136 reversed $187 $-1 #
edge $-1 $188 -3.1415926535897931 $188 3.1415926535897931 $135 $189 forward 7 unknown #
loop $190 $98 $94 $143 #
attrib_edge_convexity-kcp-attrib $-1 $191 $-1 $95 1 #
vertex $192 $95 $193 #
ellipse-curve $-1 0 0 1.6039995 0 0 1 -1.3 0 0 1 I I #
point $-1 1.9950000000000001 0 1.6039995 #
model_id-kcp-attrib $-1 $-1 $-1 $98 1 990560115 60 540803073 41 #
face $194 $-1 $137 $7 $-1 $195 reversed single #
convexity-sys-attrib $-1 $-1 $99 $70 #
model_id-kcp-attrib $-1 $-1 $-1 $100 1 990560115 60 540803073 45 #
point $-1 -1.3 0 -1.6039995 #
face $-1 $-1 $119 $15 $-1 $196 reversed single #
loop $-1 $-1 $163 $104 #
plane-surface $-1 0 1.9950000000000001 0 0 -1 0 0 0 -1 forward_v I I I I #
coedge $-1 $197 $161 $164 $198 forward $105 $-1 #
coedge $-1 $167 $107 $108 $155 reversed $75 $-1 #
coedge $-1 $161 $197 $107 $153 reversed $105 $-1 #
edge $-1 $168 -1.6039995 $199 1.6039995 $152 $200 forward 7 unknown #
coedge $-1 $109 $108 $197 $201 forward $52 $-1 #
edge $-1 $159 -1.9950000000000001 $199 1.9950000000000001 $151 $202 forward 7 unknown #
coedge $-1 $164 $163 $109 $157 reversed $148 $-1 #
edge $-1 $203 -1.9950000000000001 $158 1.9950000000000001 $156 $204 forward 7 unknown #
vertex $-1 $111 $205 #
vertex $-1 $170 $206 #
straight-curve $-1 1.9950000000000001 0 -1.6039995 0 -1 0 I I #
coedge $-1 $150 $152 $112 $162 reversed $105 $-1 #
edge $-1 $165 -1.9950000000000001 $168 1.9950000000000001 $161 $207 forward 7 unknown #
coedge $-1 $156 $113 $118 $171 forward $148 $-1 #
coedge $-1 $113 $156 $150 $198 reversed $148 $-1 #
vertex $-1 $114 $208 #
straight-curve $-1 0 1.9950000000000001 1.6039995 -1 0 0 I I #
coedge $-1 $115 $151 $117 $170 reversed $75 $-1 #
vertex $-1 $162 $209 #
straight-curve $-1 0 -1.9950000000000001 1.6039995 1 0 0 I I #
edge $-1 $120 -1.6039995 $159 1.6039995 $117 $210 forward 7 unknown #
edge $-1 $121 -1.6039995 $158 1.6039995 $118 $211 forward 7 unknown #
point $-1 1.9950000000000001 -1.9950000000000001 1.6039995 #
point $-1 1.9950000000000001 1.9950000000000001 1.6039995 #
vertex $-1 $124 $212 #
ellipse-curve $-1 0 0 1.6039995000000002 0 0 1 1.3 0 0 1 I I #
point $-1 1.3 0 -1.6039995000000002 #
model_id-kcp-attrib $-1 $-1 $-1 $128 1 990560115 60 540803073 8 #
face $213 $214 $215 $7 $-1 $216 forward single #
loop $-1 $217 $218 $128 #
cone-surface $-1 0 0 1.2353986345313801 0 0 -1 1.9950000000000001 0 0 1 I I 0.98768834059513799 0.15643446504023201 1.9950000000000001 forward I I I I #
loop $-1 $-1 $183 $88 #
coedge $-1 $182 $182 $219 $220 forward $129 $-1 #
coedge $-1 $183 $183 $132 $184 reversed $181 $-1 #
edge $-1 $221 -3.1415926535897931 $221 3.1415926535897931 $183 $222 forward 7 unknown #
vertex $-1 $134 $223 #
ellipse-curve $-1 0 0 1.5442482931642301 0 0 1 1.345 0 0 1 I I #
loop $-1 $224 $135 $225 #
vertex $-1 $136 $226 #
ellipse-curve $-1 0 0 -1.5010496137890501 0 0 -1 1.345 0 0 1 I I #
model_id-kcp-attrib $-1 $-1 $-1 $137 1 990560115 60 540803073 40 #
convexity-sys-attrib $-1 $-1 $138 $95 #
model_id-kcp-attrib $-1 $-1 $-1 $139 1 990560115 60 540803073 44 #
point $-1 -1.3 0 1.6039995 #
model_id-kcp-attrib $-1 $-1 $-1 $143 1 990560115 60 540803073 36 #
cone-surface $-1 0 0 1.6039995 0 0 -1 -1.3 0 0 1 I I 0 1 1.3 forward I I I I #
plane-surface $-1 1.9950000000000001 0 0 -1 0 0 0 0 1 forward_v I I I I #
coedge $-1 $152 $150 $154 $201 reversed $105 $-1 #
edge $-1 $165 -1.6039995 $203 1.6039995 $164 $227 forward 7 unknown #
vertex $-1 $201 $228 #
straight-curve $-1 -1.9950000000000001 -1.9950000000000001 0 0 0 -1 I I #
edge $-1 $199 -1.9950000000000001 $203 1.9950000000000001 $197 $229 forward 7 unknown #
straight-curve $-1 0 -1.9950000000000001 -1.6039995 -1 0 0 I I #
vertex $-1 $157 $230 #
straight-curve $-1 0 1.9950000000000001 -1.6039995 1 0 0 I I #
point $-1 1.9950000000000001 1.9950000000000001 -1.6039995 #
point $-1 1.9950000000000001 -1.9950000000000001 -1.6039995 #
straight-curve $-1 -1.9950000000000001 0 1.6039995 0 -1 0 I I #
point $-1 -1.9950000000000001 1.9950000000000001 1.6039995 #
point $-1 -1.9950000000000001 -1.9950000000000001 1.6039995 #
straight-curve $-1 1.9950000000000001 -1.9950000000000001 0 0 0 -1 I I #
straight-curve $-1 1.9950000000000001 1.9950000000000001 0 0 0 -1 I I #
point $-1 1.3 0 1.6039995000000002 #
model_id-kcp-attrib $-1 $-1 $-1 $178 1 990560115 60 540803073 9 #
face $231 $232 $233 $7 $-1 $234 forward single #
loop $-1 $235 $236 $178 #
cone-surface $-1 0 0 1.2353986345313801 0 0 1 1.9950000000000001 0 0 1 I I 0.98768834059513799 0.15643446504023201 1.9950000000000001 forward I I I I #
loop $-1 $-1 $219 $128 #
coedge $-1 $218 $218 $237 $238 forward $179 $-1 #
coedge $-1 $219 $219 $182 $220 reversed $217 $-1 #
edge $-1 $239 -3.1415926535897931 $239 3.1415926535897931 $219 $240 forward 7 unknown #
vertex $-1 $184 $241 #
ellipse-curve $-1 0 0 1.4412984069532799 0 0 1 1.9950000000000001 0 0 1 I I #
point $-1 -1.345 0 1.5442482931642301 #
loop $-1 $-1 $242 $225 #
face $243 $143 $187 $7 $-1 $244 forward single #
point $-1 -1.345 0 -1.5010496137890501 #
straight-curve $-1 -1.9950000000000001 1.9950000000000001 0 0 0 -1 I I #
point $-1 -1.9950000000000001 -1.9950000000000001 -1.6039995 #
straight-curve $-1 -1.9950000000000001 0 -1.6039995 0 1 0 I I #
point $-1 -1.9950000000000001 1.9950000000000001 -1.6039995 #
model_id-kcp-attrib $-1 $-1 $-1 $214 1 990560115 60 540803073 10 #
face $245 $246 $247 $7 $-1 $248 forward single #
loop $-1 $249 $250 $214 #
cone-surface $-1 0 0 1.02949886210949 0 0 -1 1.9950000000000001 0 0 1 I I 0.98768834059513799 0.15643446504023101 1.9950000000000001 forward I I I I #
loop $-1 $-1 $237 $178 #
coedge $-1 $236 $236 $251 $252 forward $215 $-1 #
coedge $-1 $237 $237 $218 $238 reversed $235 $-1 #
edge $-1 $253 -3.1415926535897931 $253 3.1415926535897931 $237 $254 forward 7 unknown #
vertex $-1 $220 $255 #
ellipse-curve $-1 0 0 1.33834852074233 0 0 1 1.345 0 0 1 I I #
point $-1 -1.9950000000000001 0 1.4412984069532799 #
coedge $-1 $242 $242 $256 $257 reversed $224 $-1 #
model_id-kcp-attrib $-1 $-1 $-1 $225 1 990560115 60 540803073 35 #
cone-surface $-1 0 0 -1.3980997275781 0 0 1 1.9950000000000001 0 0 1 I I 0.98768834059513799 0.15643446504023101 1.9950000000000001 forward I I I I #
model_id-kcp-attrib $-1 $-1 $-1 $232 1 990560115 60 540803073 11 #
face $258 $259 $260 $7 $-1 $261 forward single #
loop $-1 $262 $263 $232 #
cone-surface $-1 0 0 1.02949886210949 0 0 1 1.9950000000000001 0 0 1 I I 0.98768834059513799 0.15643446504023101 1.9950000000000001 forward I I I I #
loop $-1 $-1 $251 $214 #
coedge $-1 $250 $250 $264 $265 forward $233 $-1 #
coedge $-1 $251 $251 $236 $252 reversed $249 $-1 #
edge $-1 $266 -3.1415926535897931 $266 3.1415926535897931 $251 $267 forward 7 unknown #
vertex $-1 $238 $268 #
ellipse-curve $-1 0 0 1.2353986345313801 0 0 1 1.9950000000000001 0 0 1 I I #
point $-1 -1.345 0 1.33834852074233 #
coedge $-1 $256 $256 $242 $257 forward $269 $-1 #
edge $-1 $270 -3.1415926535897931 $270 3.1415926535897931 $242 $271 forward 7 unknown #
model_id-kcp-attrib $-1 $-1 $-1 $246 1 990560115 60 540803073 12 #
face $272 $273 $274 $7 $-1 $275 forward single #
loop $-1 $276 $277 $246 #
cone-surface $-1 0 0 0.82359908968758899 0 0 -1 1.9950000000000001 0 0 1 I I 0.98768834059513799 0.15643446504023201 1.9950000000000001 forward I I I I #
loop $-1 $-1 $264 $232 #
coedge $-1 $263 $263 $278 $279 forward $247 $-1 #
coedge $-1 $264 $264 $250 $265 reversed $262 $-1 #
edge $-1 $280 -3.1415926535897931 $280 3.1415926535897931 $264 $281 forward 7 unknown #
vertex $-1 $252 $282 #
ellipse-curve $-1 0 0 1.13244874832044 0 0 1 1.345 0 0 1 I I #
point $-1 -1.9950000000000001 0 1.2353986345313801 #
loop $-1 $283 $256 $284 #
vertex $-1 $257 $285 #
ellipse-curve $-1 0 0 -1.3980997275781 0 0 1 1.9950000000000001 0 0 1 I I #
model_id-kcp-attrib $-1 $-1 $-1 $259 1 990560115 60 540803073 13 #
face $286 $287 $288 $7 $-1 $289 forward single #
loop $-1 $290 $291 $259 #
cone-surface $-1 0 0 0.82359908968758899 0 0 1 1.9950000000000001 0 0 1 I I 0.98768834059513799 0.15643446504023201 1.9950000000000001 forward I I I I #
loop $-1 $-1 $278 $246 #
coedge $-1 $277 $277 $292 $293 forward $260 $-1 #
coedge $-1 $278 $278 $263 $279 reversed $276 $-1 #
edge $-1 $294 -3.1415926535897931 $294 3.1415926535897931 $278 $295 forward 7 unknown #
vertex $-1 $265 $296 #
ellipse-curve $-1 0 0 1.02949886210949 0 0 1 1.9950000000000001 0 0 1 I I #
point $-1 -1.345 0 1.13244874832044 #
loop $-1 $-1 $297 $284 #
face $298 $225 $269 $7 $-1 $299 forward single #
point $-1 -1.9950000000000001 0 -1.3980997275781 #
model_id-kcp-attrib $-1 $-1 $-1 $273 1 990560115 60 540803073 14 #
face $300 $301 $302 $7 $-1 $303 forward single #
loop $-1 $304 $305 $273 #
cone-surface $-1 0 0 0.61769931726569105 0 0 -1 1.9950000000000001 0 0 1 I I 0.98768834059513799 0.15643446504023101 1.9950000000000001 forward I I I I #
loop $-1 $-1 $292 $259 #
coedge $-1 $291 $291 $306 $307 forward $274 $-1 #
coedge $-1 $292 $292 $277 $293 reversed $290 $-1 #
edge $-1 $308 -3.1415926535897931 $308 3.1415926535897931 $292 $309 forward 7 unknown #
vertex $-1 $279 $310 #
ellipse-curve $-1 0 0 0.92654897589853702 0 0 1 1.345 0 0 1 I I #
point $-1 -1.9950000000000001 0 1.02949886210949 #
coedge $-1 $297 $297 $311 $312 reversed $283 $-1 #
model_id-kcp-attrib $-1 $-1 $-1 $284 1 990560115 60 540803073 34 #
cone-surface $-1 0 0 -1.3980997275781 0 0 -1 1.9950000000000001 0 0 1 I I 0.98768834059513799 0.15643446504023101 1.9950000000000001 forward I I I I #
model_id-kcp-attrib $-1 $-1 $-1 $287 1 990560115 60 540803073 15 #
face $313 $314 $315 $7 $-1 $316 forward single #
loop $-1 $317 $318 $287 #
cone-surface $-1 0 0 0.61769931726569105 0 0 1 1.9950000000000001 0 0 1 I I 0.98768834059513799 0.15643446504023101 1.9950000000000001 forward I I I I #
loop $-1 $-1 $306 $273 #
coedge $-1 $305 $305 $319 $320 forward $288 $-1 #
coedge $-1 $306 $306 $291 $307 reversed $304 $-1 #
edge $-1 $321 -3.1415926535897931 $321 3.1415926535897931 $306 $322 forward 7 unknown #
vertex $-1 $293 $323 #
ellipse-curve $-1 0 0 0.82359908968758899 0 0 1 1.9950000000000001 0 0 1 I I #
point $-1 -1.345 0 0.92654897589853702 #
coedge $-1 $311 $311 $297 $312 forward $324 $-1 #
edge $-1 $325 -3.1415926535897931 $325 3.1415926535897931 $297 $326 forward 7 unknown #
model_id-kcp-attrib $-1 $-1 $-1 $301 1 990560115 60 540803073 16 #
face $327 $328 $329 $7 $-1 $330 forward single #
loop $-1 $331 $332 $301 #
cone-surface $-1 0 0 0.411799544843795 0 0 -1 1.9950000000000001 0 0 1 I I 0.98768834059513799 0.15643446504023201 1.9950000000000001 forward I I I I #
loop $-1 $-1 $319 $287 #
coedge $-1 $318 $318 $333 $334 forward $302 $-1 #
coedge $-1 $319 $319 $305 $320 reversed $317 $-1 #
edge $-1 $335 -3.1415926535897931 $335 3.1415926535897931 $319 $336 forward 7 unknown #
vertex $-1 $307 $337 #
ellipse-curve $-1 0 0 0.72064920347663997 0 0 1 1.345 0 0 1 I I #
point $-1 -1.9950000000000001 0 0.82359908968758899 #
loop $-1 $338 $311 $339 #
vertex $-1 $312 $340 #
ellipse-curve $-1 0 0 -1.2951498413671501 0 0 1 1.345 0 0 1 I I #
model_id-kcp-attrib $-1 $-1 $-1 $314 1 990560115 60 540803073 17 #
face $341 $342 $343 $7 $-1 $344 forward single #
loop $-1 $345 $346 $314 #
cone-surface $-1 0 0 0.411799544843795 0 0 1 1.9950000000000001 0 0 1 I I 0.98768834059513799 0.15643446504023201 1.9950000000000001 forward I I I I #
loop $-1 $-1 $333 $301 #
coedge $-1 $332 $332 $347 $348 forward $315 $-1 #
coedge $-1 $333 $333 $318 $334 reversed $331 $-1 #
edge $-1 $349 -3.1415926535897931 $349 3.1415926535897931 $333 $350 forward 7 unknown #
vertex $-1 $320 $351 #
ellipse-curve $-1 0 0 0.61769931726569105 0 0 1 1.9950000000000001 0 0 1 I I #
point $-1 -1.345 0 0.72064920347663997 #
loop $-1 $-1 $352 $339 #
face $353 $284 $324 $7 $-1 $354 forward single #
point $-1 -1.345 0 -1.2951498413671501 #
model_id-kcp-attrib $-1 $-1 $-1 $328 1 990560115 60 540803073 18 #
face $355 $356 $357 $7 $-1 $358 forward single #
loop $-1 $359 $360 $328 #
cone-surface $-1 0 0 0.205899772421897 0 0 -1 1.9950000000000001 0 0 1 I I 0.98768834059513799 0.15643446504023101 1.9950000000000001 forward I I I I #
loop $-1 $-1 $347 $314 #
coedge $-1 $346 $346 $361 $362 forward $329 $-1 #
coedge $-1 $347 $347 $332 $348 reversed $345 $-1 #
edge $-1 $363 -3.1415926535897931 $363 3.1415926535897931 $347 $364 forward 7 unknown #
vertex $-1 $334 $365 #
ellipse-curve $-1 0 0 0.51474943105474302 0 0 1 1.345 0 0 1 I I #
point $-1 -1.9950000000000001 0 0.61769931726569105 #
coedge $-1 $352 $352 $366 $367 reversed $338 $-1 #
model_id-kcp-attrib $-1 $-1 $-1 $339 1 990560115 60 540803073 33 #
cone-surface $-1 0 0 -1.1921999551562099 0 0 1 1.9950000000000001 0 0 1 I I 0.98768834059513799 0.15643446504023101 1.9950000000000001 forward I I I I #
model_id-kcp-attrib $-1 $-1 $-1 $342 1 990560115 60 540803073 19 #
face $368 $369 $370 $7 $-1 $371 forward single #
loop $-1 $372 $373 $342 #
cone-surface $-1 0 0 0.205899772421897 0 0 1 1.9950000000000001 0 0 1 I I 0.98768834059513799 0.15643446504023101 1.9950000000000001 forward I I I I #
loop $-1 $-1 $361 $328 #
coedge $-1 $360 $360 $374 $375 forward $343 $-1 #
coedge $-1 $361 $361 $346 $362 reversed $359 $-1 #
edge $-1 $376 -3.1415926535897931 $376 3.1415926535897931 $361 $377 forward 7 unknown #
vertex $-1 $348 $378 #
ellipse-curve $-1 0 0 0.411799544843795 0 0 1 1.9950000000000001 0 0 1 I I #
point $-1 -1.345 0 0.51474943105474302 #
coedge $-1 $366 $366 $352 $367 forward $379 $-1 #
edge $-1 $380 -3.1415926535897931 $380 3.1415926535897931 $352 $381 forward 7 unknown #
model_id-kcp-attrib $-1 $-1 $-1 $356 1 990560115 60 540803073 20 #
face $382 $383 $384 $7 $-1 $385 forward single #
loop $-1 $386 $387 $356 #
cone-surface $-1 0 0 0 0 0 -1 1.9950000000000001 0 0 1 I I 0.98768834059513799 0.15643446504023101 1.9950000000000001 forward I I I I #
loop $-1 $-1 $374 $342 #
coedge $-1 $373 $373 $388 $389 forward $357 $-1 #
coedge $-1 $374 $374 $360 $375 reversed $372 $-1 #
edge $-1 $390 -3.1415926535897931 $390 3.1415926535897931 $374 $391 forward 7 unknown #
vertex $-1 $362 $392 #
ellipse-curve $-1 0 0 0.30884965863284602 0 0 1 1.345 0 0 1 I I #
point $-1 -1.9950000000000001 0 0.411799544843795 #
loop $-1 $393 $366 $394 #
vertex $-1 $367 $395 #
ellipse-curve $-1 0 0 -1.1921999551562099 0 0 1 1.9950000000000001 0 0 1 I I #
model_id-kcp-attrib $-1 $-1 $-1 $369 1 990560115 60 540803073 21 #
face $396 $397 $398 $7 $-1 $399 forward single #
loop $-1 $400 $401 $369 #
cone-surface $-1 0 0 0 0 0 1 1.9950000000000001 0 0 1 I I 0.98768834059513799 0.15643446504023101 1.9950000000000001 forward I I I I #
loop $-1 $-1 $388 $356 #
coedge $-1 $387 $387 $402 $403 forward $370 $-1 #
coedge $-1 $388 $388 $373 $389 reversed $386 $-1 #
edge $-1 $404 -3.1415926535897931 $404 3.1415926535897931 $388 $405 forward 7 unknown #
vertex $-1 $375 $406 #
ellipse-curve $-1 0 0 0.205899772421897 0 0 1 1.9950000000000001 0 0 1 I I #
point $-1 -1.345 0 0.30884965863284602 #
loop $-1 $-1 $407 $394 #
face $408 $339 $379 $7 $-1 $409 forward single #
point $-1 -1.9950000000000001 0 -1.1921999551562099 #
model_id-kcp-attrib $-1 $-1 $-1 $383 1 990560115 60 540803073 22 #
face $410 $411 $412 $7 $-1 $413 forward single #
loop $-1 $414 $415 $383 #
cone-surface $-1 0 0 -0.205899772421897 0 0 -1 1.9950000000000001 0 0 1 I I 0.98768834059513799 0.15643446504023101 1.9950000000000001 forward I I I I #
loop $-1 $-1 $402 $369 #
coedge $-1 $401 $401 $416 $417 forward $384 $-1 #
coedge $-1 $402 $402 $387 $403 reversed $400 $-1 #
edge $-1 $418 -3.1415926535897931 $418 3.1415926535897931 $402 $419 forward 7 unknown #
vertex $-1 $389 $420 #
ellipse-curve $-1 0 0 0.102949886210948 0 0 1 1.345 0 0 1 I I #
point $-1 -1.9950000000000001 0 0.205899772421897 #
coedge $-1 $407 $407 $421 $422 reversed $393 $-1 #
model_id-kcp-attrib $-1 $-1 $-1 $394 1 990560115 60 540803073 32 #
cone-surface $-1 0 0 -1.1921999551562099 0 0 -1 1.9950000000000001 0 0 1 I I 0.99580149327870804 0.091538986141947803 1.9950000000000001 forward I I I I #
model_id-kcp-attrib $-1 $-1 $-1 $397 1 990560115 60 540803073 23 #
face $423 $424 $425 $7 $-1 $426 forward single #
loop $-1 $427 $428 $397 #
cone-surface $-1 0 0 -0.205899772421897 0 0 1 1.9950000000000001 0 0 1 I I 0.98768834059513799 0.15643446504023101 1.9950000000000001 forward I I I I #
loop $-1 $-1 $416 $383 #
coedge $-1 $415 $415 $429 $430 forward $398 $-1 #
coedge $-1 $416 $416 $401 $417 reversed $414 $-1 #
edge $-1 $431 -3.1415926535897931 $431 3.1415926535897931 $416 $432 forward 7 unknown #
vertex $-1 $403 $433 #
ellipse-curve $-1 0 0 0 0 0 1 1.9950000000000001 0 0 1 I I #
point $-1 -1.345 0 0.102949886210948 #
coedge $-1 $421 $421 $407 $422 forward $434 $-1 #
edge $-1 $435 -3.1415926535897931 $435 3.1415926535897931 $407 $436 forward 7 unknown #
model_id-kcp-attrib $-1 $-1 $-1 $411 1 990560115 60 540803073 24 #
face $437 $438 $439 $7 $-1 $440 forward single #
loop $-1 $441 $442 $411 #
cone-surface $-1 0 0 -0.411799544843794 0 0 -1 1.9950000000000001 0 0 1 I I 0.98768834059513799 0.15643446504023101 1.9950000000000001 forward I I I I #
loop $-1 $-1 $429 $397 #
coedge $-1 $428 $428 $443 $444 forward $412 $-1 #
coedge $-1 $429 $429 $415 $430 reversed $427 $-1 #
edge $-1 $445 -3.1415926535897931 $445 3.1415926535897931 $429 $446 forward 7 unknown #
vertex $-1 $417 $447 #
ellipse-curve $-1 0 0 -0.102949886210949 0 0 1 1.345 0 0 1 I I #
point $-1 -1.9950000000000001 0 0 #
loop $-1 $448 $421 $449 #
vertex $-1 $422 $450 #
ellipse-curve $-1 0 0 -1.13244874832043 0 0 1 1.345 0 0 1 I I #
model_id-kcp-attrib $-1 $-1 $-1 $424 1 990560115 60 540803073 25 #
face $451 $452 $453 $7 $-1 $454 forward single #
loop $-1 $455 $456 $424 #
cone-surface $-1 0 0 -0.411799544843794 0 0 1 1.9950000000000001 0 0 1 I I 0.98768834059513799 0.15643446504023101 1.9950000000000001 forward I I I I #
loop $-1 $-1 $443 $411 #
coedge $-1 $442 $442 $457 $458 forward $425 $-1 #
coedge $-1 $443 $443 $428 $444 reversed $441 $-1 #
edge $-1 $459 -3.1415926535897931 $459 3.1415926535897931 $443 $460 forward 7 unknown #
vertex $-1 $430 $461 #
ellipse-curve $-1 0 0 -0.205899772421897 0 0 1 1.9950000000000001 0 0 1 I I #
point $-1 -1.345 0 -0.102949886210949 #
loop $-1 $-1 $462 $449 #
face $463 $394 $434 $7 $-1 $464 forward single #
point $-1 -1.345 0 -1.13244874832043 #
model_id-kcp-attrib $-1 $-1 $-1 $438 1 990560115 60 540803073 26 #
face $465 $466 $467 $7 $-1 $468 forward single #
loop $-1 $469 $470 $438 #
cone-surface $-1 0 0 -0.61769931726569105 0 0 -1 1.9950000000000001 0 0 1 I I 0.98768834059513799 0.15643446504023101 1.9950000000000001 forward I I I I #
loop $-1 $-1 $457 $424 #
coedge $-1 $456 $456 $471 $472 forward $439 $-1 #
coedge $-1 $457 $457 $442 $458 reversed $455 $-1 #
edge $-1 $473 -3.1415926535897931 $473 3.1415926535897931 $457 $474 forward 7 unknown #
vertex $-1 $444 $475 #
ellipse-curve $-1 0 0 -0.30884965863284602 0 0 1 1.345 0 0 1 I I #
point $-1 -1.9950000000000001 0 -0.205899772421897 #
coedge $-1 $462 $462 $476 $477 reversed $448 $-1 #
model_id-kcp-attrib $-1 $-1 $-1 $449 1 990560115 60 540803073 31 #
cone-surface $-1 0 0 -1.02949886210949 0 0 1 1.9950000000000001 0 0 1 I I 0.98768834059513799 0.15643446504023101 1.9950000000000001 forward I I I I #
model_id-kcp-attrib $-1 $-1 $-1 $452 1 990560115 60 540803073 27 #
face $478 $479 $480 $7 $-1 $481 forward single #
loop $-1 $482 $483 $452 #
cone-surface $-1 0 0 -0.61769931726569105 0 0 1 1.9950000000000001 0 0 1 I I 0.98768834059513799 0.15643446504023101 1.9950000000000001 forward I I I I #
loop $-1 $-1 $471 $438 #
coedge $-1 $470 $470 $484 $485 forward $453 $-1 #
coedge $-1 $471 $471 $456 $472 reversed $469 $-1 #
edge $-1 $486 -3.1415926535897931 $486 3.1415926535897931 $471 $487 forward 7 unknown #
vertex $-1 $458 $488 #
ellipse-curve $-1 0 0 -0.411799544843794 0 0 1 1.9950000000000001 0 0 1 I I #
point $-1 -1.345 0 -0.30884965863284602 #
coedge $-1 $476 $476 $462 $477 forward $489 $-1 #
edge $-1 $490 -3.1415926535897931 $490 3.1415926535897931 $462 $491 forward 7 unknown #
model_id-kcp-attrib $-1 $-1 $-1 $466 1 990560115 60 540803073 28 #
face $492 $493 $494 $7 $-1 $495 forward single #
loop $-1 $496 $497 $466 #
cone-surface $-1 0 0 -0.82359908968758799 0 0 -1 1.9950000000000001 0 0 1 I I 0.98768834059513799 0.15643446504023101 1.9950000000000001 forward I I I I #
loop $-1 $-1 $484 $452 #
coedge $-1 $483 $483 $498 $499 forward $467 $-1 #
coedge $-1 $484 $484 $470 $485 reversed $482 $-1 #
edge $-1 $500 -3.1415926535897931 $500 3.1415926535897931 $484 $501 forward 7 unknown #
vertex $-1 $472 $502 #
ellipse-curve $-1 0 0 -0.51474943105474302 0 0 1 1.345 0 0 1 I I #
point $-1 -1.9950000000000001 0 -0.411799544843794 #
loop $-1 $503 $476 $493 #
vertex $-1 $477 $504 #
ellipse-curve $-1 0 0 -1.02949886210949 0 0 1 1.9950000000000001 0 0 1 I I #
model_id-kcp-attrib $-1 $-1 $-1 $479 1 990560115 60 540803073 29 #
face $505 $449 $489 $7 $-1 $506 forward single #
loop $-1 $507 $508 $479 #
cone-surface $-1 0 0 -0.82359908968758799 0 0 1 1.9950000000000001 0 0 1 I I 0.98768834059513799 0.15643446504023101 1.9950000000000001 forward I I I I #
loop $-1 $-1 $498 $466 #
coedge $-1 $497 $497 $509 $510 forward $480 $-1 #
coedge $-1 $498 $498 $483 $499 reversed $496 $-1 #
edge $-1 $511 -3.1415926535897931 $511 3.1415926535897931 $498 $512 forward 7 unknown #
vertex $-1 $485 $513 #
ellipse-curve $-1 0 0 -0.61769931726569105 0 0 1 1.9950000000000001 0 0 1 I I #
point $-1 -1.345 0 -0.51474943105474302 #
loop $-1 $-1 $514 $493 #
point $-1 -1.9950000000000001 0 -1.02949886210949 #
model_id-kcp-attrib $-1 $-1 $-1 $493 1 990560115 60 540803073 30 #
cone-surface $-1 0 0 -1.02949886210949 0 0 -1 1.9950000000000001 0 0 1 I I 0.98768834059513799 0.15643446504023101 1.9950000000000001 forward I I I I #
loop $-1 $-1 $509 $479 #
coedge $-1 $508 $508 $514 $515 forward $494 $-1 #
coedge $-1 $509 $509 $497 $510 reversed $507 $-1 #
edge $-1 $516 -3.1415926535897931 $516 3.1415926535897931 $509 $517 forward 7 unknown #
vertex $-1 $499 $518 #
ellipse-curve $-1 0 0 -0.72064920347663997 0 0 1 1.345 0 0 1 I I #
point $-1 -1.9950000000000001 0 -0.61769931726569105 #
coedge $-1 $514 $514 $508 $515 reversed $503 $-1 #
edge $-1 $519 -3.1415926535897931 $519 3.1415926535897931 $514 $520 forward 7 unknown #
vertex $-1 $510 $521 #
ellipse-curve $-1 0 0 -0.82359908968758799 0 0 1 1.9950000000000001 0 0 1 I I #
point $-1 -1.345 0 -0.72064920347663997 #
vertex $-1 $515 $522 #
ellipse-curve $-1 0 0 -0.92654897589853702 0 0 1 1.345 0 0 1 I I #
point $-1 -1.9950000000000001 0 -0.82359908968758799 #
point $-1 -1.345 0 -0.92654897589853702 #
End-of-ACIS-data 