600 0 1 0           
82 GICL ACIS Healer - Source: /gicl/data5/repository/SDRC_I-DEAS/bmw/Part31.sat - 6 0 18 ACIS 6.0.3 Solaris 24 Sat Apr 13 23:15:48 2002 
1 9.999999999999999547e-07 1.000000000000000036e-10 
body $-1 $1 $-1 $-1 #
lump $-1 $-1 $2 $0 #
shell $-1 $-1 $-1 $3 $-1 $1 #
face $-1 $4 $5 $2 $-1 $6 reversed single #
face $-1 $7 $8 $2 $-1 $9 reversed single #
loop $-1 $-1 $10 $3 #
plane-surface $-1 -310.9738874486374698 13.42920358389397251 -86.7880138165032804 -0.3347038706432399757 0.6105511586102645438 0.7177747569370888092 0.9063077847862642811 -0 0.4226182665666669558 forward_v I I I I #
face $-1 $11 $12 $2 $-1 $13 reversed single #
loop $-1 $-1 $14 $4 #
cone-surface $-1 -309.6350719800220759 10.98699892175830151 -89.6591128272026765 -0.3347038706432376443 0.6105511586102685406 0.7177747569370863667 -0.6304682495372162521 0.3068691242823469167 -0.5550201633031264237 1 I I 0 1 0.8942629673565629655 forward I I I I #
coedge $-1 $10 $10 $15 $16 forward $5 $-1 #
face $-1 $17 $18 $2 $-1 $19 reversed single #
loop $-1 $-1 $20 $7 #
plane-surface $-1 -321.2280310534709997 -6.917049380339559406 -74.26273805397185868 -0.3347038706432518551 0.6105511586102649879 0.717774756937082925 0.9063077847862571756 -0 0.4226182665666821103 forward_v I I I I #
coedge $-1 $21 $22 $23 $24 reversed $8 $-1 #
coedge $-1 $22 $21 $10 $16 reversed $8 $-1 #
edge $-1 $25 0 $25 1 $10 $26 forward 7 unknown #
face $-1 $27 $28 $2 $-1 $29 forward single #
loop $-1 $-1 $30 $11 #
cone-surface $-1 -319.8892155071251295 -9.359253994178221348 -77.13383706950713758 -0.3347038706432398647 0.6105511586102647659 0.7177747569370885872 -0.5322554100058596305 -0.60762040650882021 0.2686572569259908505 1 I I 0 1 0.8512785099986064363 forward I I I I #
coedge $-1 $20 $20 $31 $32 forward $12 $-1 #
coedge $-1 $15 $14 $22 $33 forward $8 $-1 #
coedge $-1 $14 $15 $21 $33 reversed $8 $-1 #
coedge $-1 $23 $23 $14 $24 forward $34 $-1 #
edge $-1 $35 0 $35 1 $14 $36 forward 7 unknown #
vertex $-1 $16 $37 #
intcurve-curve $-1 forward { exactcur full nurbs 2 periodic 4 
	0 2 0.3333333333333329818 2 0.6666666666666669627 2 1 2 
	-310.6211989695855209 14.12900742186061365 -87.21881727122493544 1 
	-309.2956100693227768 13.94028436469610632 -86.44015403236579687 0.5 
	-310.4874372589683276 12.98494009478648792 -86.18328044413942735 1 
	-311.6792644486141057 12.02959582487687129 -85.92640685591311467 0.5 
	-311.8130261592311854 13.17366315195101123 -86.96194368299862276 1 
	-311.9467878698483219 14.31773047902513696 -87.99748051008408822 0.5 
	-310.6211989695855209 14.12900742186061365 -87.21881727122493544 1 
	0 
	null_surface 
	null_surface 
	nullbs 
	nullbs 
	I I 
	0 
	0 
	0 
	F 1 F 0 } I I #
face $-1 $38 $39 $2 $-1 $40 forward single #
loop $-1 $41 $42 $17 #
plane-surface $-1 -319.5545132114833109 -9.969808277903457139 -77.85160990260465042 0.3347038706432378663 -0.6105511586102687627 -0.7177747569370860337 -0.9063077847862647252 0 -0.4226182665666661231 forward_v I I I I #
coedge $-1 $43 $44 $45 $46 reversed $18 $-1 #
coedge $-1 $44 $43 $20 $32 reversed $18 $-1 #
edge $-1 $47 0 $47 1 $20 $48 forward 7 unknown #
edge $-1 $35 0 $25 1 $22 $49 forward 7 unknown #
loop $-1 $-1 $23 $38 #
vertex $-1 $24 $50 #
intcurve-curve $-1 forward { exactcur full nurbs 2 periodic 4 
	0 2 0.3333333333333329818 2 0.6666666666666669627 2 1 2 
	-308.947679616369328 11.07625162880928116 -90.80769105591039647 1 
	-310.2732685166321289 11.26497468597381868 -91.58635429476950662 0.5 
	-310.1395068060149924 10.12090735889969295 -90.55081746768402695 1 
	-310.0057450953979128 8.976840031825524591 -89.51528064059854728 0.5 
	-308.8139179057521915 9.932184301735141219 -89.77215422882488838 1 
	-307.622090716106527 10.88752857164474364 -90.02902781705127211 0.5 
	-308.947679616369328 11.07625162880928116 -90.80769105591039647 1 
	0 
	null_surface 
	null_surface 
	nullbs 
	nullbs 
	I I 
	0 
	0 
	0 
	F 1 F 0 } I I #
point $-1 -310.6211989695855209 14.12900742186061365 -87.21881727122493544 #
face $-1 $-1 $51 $2 $-1 $52 forward single #
loop $-1 $-1 $53 $27 #
torus-surface $-1 -314.4274398729302789 0.2033213051796955995 -84.11424970529209588 0.8558210910419590256 -0.1218425807996058874 0.5027172621184223811 13.00000000000012257 1.999999999999923617 0.3347038706432388655 -0.6105511586102684296 -0.7177747569370860337 forward_v I I I I #
loop $-1 $-1 $45 $17 #
coedge $-1 $42 $42 $53 $54 reversed $28 $-1 #
coedge $-1 $31 $30 $44 $55 forward $18 $-1 #
coedge $-1 $30 $31 $43 $55 reversed $18 $-1 #
coedge $-1 $45 $45 $30 $46 forward $41 $-1 #
edge $-1 $56 0 $56 1 $30 $57 forward 7 unknown #
vertex $-1 $32 $58 #
intcurve-curve $-1 forward { exactcur full nurbs 2 periodic 4 
	0 2 0.3333333333333329818 2 0.6666666666666669627 2 1 2 
	-321.9565730929056713 -6.813327389099669062 -74.69069044360557541 1 
	-321.3750615479086719 -5.659493240321181062 -75.40099769043905553 0.5 
	-320.5730041655957621 -6.391993270666638693 -74.40391546425217939 1 
	-319.770946783282966 -7.124493301012094548 -73.40683323806533167 0.5 
	-321.1545157105928752 -7.545827419445124917 -73.69360821741867085 1 
	-322.5380846379027844 -7.967161537878154398 -73.98038319677212371 0.5 
	-321.9565730929056713 -6.813327389099669062 -74.69069044360557541 1 
	0 
	null_surface 
	null_surface 
	nullbs 
	nullbs 
	I I 
	0 
	0 
	0 
	F 1 F 0 } I I #
intcurve-curve $-1 forward { exactcur full nubs 1 open 2 
	0 1 1 1 
	-308.947679616369328 11.07625162880928116 -90.80769105591039647 
	-310.6211989695855209 14.12900742186061365 -87.21881727122493544 
	0 
	null_surface 
	null_surface 
	nullbs 
	nullbs 
	I I 
	0 
	0 
	0 
	F 1 F 0 } I I #
point $-1 -308.947679616369328 11.07625162880928116 -90.80769105591039647 #
loop $-1 $34 $59 $38 #
plane-surface $-1 -309.3003665343774173 10.37645088826300466 -90.3768895079793424 0.3347038706432350352 -0.6105511586102616572 -0.7177747569370933611 -0.9063077847862677228 0 -0.4226182665666596283 forward_v I I I I #
coedge $-1 $60 $61 $42 $54 forward $39 $-1 #
edge $-1 $62 0 $62 1 $42 $63 forward 7 unknown #
edge $-1 $56 0 $47 1 $44 $64 forward 7 unknown #
vertex $-1 $46 $65 #
intcurve-curve $-1 forward { exactcur full nurbs 2 periodic 4 
	0 2 0.3333333333333329818 2 0.6666666666666669627 2 1 2 
	-320.2830537396894783 -9.866083182151008657 -78.27956422829100802 1 
	-320.8645652846865914 -11.01991733092946646 -77.56925698145755632 0.5 
	-319.4809963573766822 -10.5985832124964432 -77.28248200210413188 1 
	-318.097427430066773 -10.17724909406343414 -76.99570702275073586 0.5 
	-318.8994848123795691 -9.444749063717978288 -77.992789248937612 1 
	-319.7015421946924221 -8.712249033372522433 -78.98987147512448814 0.5 
	-320.2830537396894783 -9.866083182151008657 -78.27956422829100802 1 
	0 
	null_surface 
	null_surface 
	nullbs 
	nullbs 
	I I 
	0 
	0 
	0 
	F 1 F 0 } I I #
point $-1 -321.9565730929056713 -6.813327389099669062 -74.69069044360557541 #
coedge $-1 $59 $59 $66 $67 reversed $51 $-1 #
coedge $-1 $66 $53 $61 $68 reversed $39 $-1 #
coedge $-1 $53 $66 $60 $68 forward $39 $-1 #
vertex $-1 $68 $69 #
intcurve-curve $-1 forward { exactcur full nurbs 2 periodic 4 
	0 2 0.3333333333333329818 2 0.6666666666666669627 2 1 2 
	-321.2661538185658969 -9.726119991189264624 -78.85704635068108814 1 
	-322.6323613244924786 -12.4369464368853091 -77.18824527443962324 0.5 
	-319.3817942984032356 -11.44706095643611121 -76.5144940262050568 1 
	-316.1312272723141064 -10.45717547598692931 -75.84074277797054719 0.5 
	-318.015586792476654 -8.73623451074006141 -78.18329510244657854 1 
	-319.8999463126392584 -7.015293545493246796 -80.52584742692260988 0.5 
	-321.2661538185658969 -9.726119991189264624 -78.85704635068108814 1 
	0 
	null_surface 
	null_surface 
	nullbs 
	nullbs 
	I I 
	0 
	0 
	0 
	F 1 F 0 } I I #
intcurve-curve $-1 forward { exactcur full nubs 1 open 2 
	0 1 1 1 
	-320.2830537396894783 -9.866083182151008657 -78.27956422829100802 
	-321.9565730929056713 -6.813327389099669062 -74.69069044360557541 
	0 
	null_surface 
	null_surface 
	nullbs 
	nullbs 
	I I 
	0 
	0 
	0 
	F 1 F 0 } I I #
point $-1 -320.2830537396894783 -9.866083182151008657 -78.27956422829100802 #
coedge $-1 $61 $60 $59 $67 forward $39 $-1 #
edge $-1 $70 0 $70 1 $66 $71 forward 7 unknown #
edge $-1 $70 0 $62 2.501851166488375799 $61 $72 forward 7 unknown #
point $-1 -321.2661538185658969 -9.726119991189264624 -78.85704635068108814 #
vertex $-1 $67 $73 #
intcurve-curve $-1 forward { exactcur full nurbs 2 periodic 4 
	0 2 0.3333333333333329818 2 0.6666666666666669627 2 1 2 
	-311.0120102914627296 10.6201329247472458 -91.38232210837662706 1 
	-312.3782177973894818 7.909306479051227967 -89.71352103213514795 0.5 
	-309.127650771300182 8.899191959500420523 -89.03976978390059571 1 
	-305.877083745210939 9.889077439949623738 -88.36601853566608611 0.5 
	-307.7614432653736003 11.61001840519644901 -90.70857086014208903 1 
	-309.6458027855361479 13.33095937044330626 -93.05112318461813459 0.5 
	-311.0120102914627296 10.6201329247472458 -91.38232210837662706 1 
	0 
	null_surface 
	null_surface 
	nullbs 
	nullbs 
	I I 
	0 
	0 
	0 
	F 1 F 0 } I I #
intcurve-curve $-1 forward { exactcur full nurbs 2 open 3 
	0 2 1.2509255832441879 2 2.501851166488375799 2 
	-311.0120102914627296 10.6201329247472458 -91.38232210837662706 1 
	-315.3631606098248881 18.55729798668072306 -82.05125026819447953 0.7071067811865470176 
	-320.4902323733763865 8.384171528712464294 -75.78861238934672429 1 
	-325.6173041369278849 -1.788954929255789139 -69.52597451049896904 0.7071067811865470176 
	-321.2661538185658969 -9.726119991189264624 -78.85704635068108814 1 
	0 
	null_surface 
	null_surface 
	nullbs 
	nullbs 
	I I 
	0 
	0 
	0 
	F 1 F 0 } I I #
point $-1 -311.0120102914627296 10.6201329247472458 -91.38232210837662706 #
End-of-ACIS-data 