600 0 1 0           
7 Unknown 16 ACIS 6.0 Solaris 24 Thu Aug 24 19:05:30 2000 
-1 9.999999999999999547e-07 1.000000000000000036e-10 
body $-1 $1 $-1 $-1 #
lump $-1 $-1 $2 $0 #
shell $-1 $-1 $-1 $3 $-1 $1 #
face $-1 $4 $5 $2 $-1 $6 forward single #
face $-1 $7 $8 $2 $-1 $9 forward single #
loop $-1 $10 $11 $3 #
spline-surface $-1 forward { exactsur full nubs 1 1 open open none none 2 2 
	0 1 1 1 
	0 1 1 1 
	176.5719736145726131 -11.20433233442352616 -22.49999999999997868 
	153.4820189479250132 -11.8856250892236659 -22.49999999999997868 
	175.8906808597724591 11.88562233222400977 -22.49999999999997158 
	152.8007261931248593 11.20432957742387003 -22.49999999999997158 
	0 
	0 
	0 
	0 
	0 
	0 
	0 
	F 1 F 0 F 1 F 0 } I I I I #
face $-1 $12 $13 $2 $-1 $14 forward single #
loop $-1 $15 $16 $4 #
spline-surface $-1 forward { exactsur full nubs 1 1 open open none none 2 2 
	0 1 1 1 
	0 1 1 1 
	152.8007261931249161 11.20432957742384872 62.50000000000006395 
	153.4820189479250132 -11.88562508922369432 62.50000000000005684 
	175.8906808597724591 11.88562233222398845 62.50000000000004974 
	176.5719736145726131 -11.20433233442355458 62.50000000000004263 
	0 
	0 
	0 
	0 
	0 
	0 
	0 
	F 1 F 0 F 1 F 0 } I I I I #
loop $-1 $-1 $17 $3 #
tcoedge-coedge $-1 $11 $11 $18 $19 reversed $5 $20 -1 -0 #
face $-1 $-1 $21 $2 $-1 $22 forward single #
loop $-1 $-1 $18 $7 #
spline-surface $-1 forward { exactsur full nurbs 2 1 both periodic open none none 4 2 
	0 2 0.448295503135474005 2 0.8965910062709490091 2 1.34488650940642307 2 
	0 1 1 1 
	153.6911466654914022 -0.324425070365023771 -22.49999999999997158 1 
	154.2530673713175986 -19.36869573427767932 -22.49999999999997868 0.5 
	170.4649292098996227 -9.359922796163388625 -22.49999999999997868 1 
	186.6767910484817037 0.6488501419508523327 -22.49999999999997868 0.5 
	169.9030085040734832 9.684347867749231398 -22.49999999999997158 1 
	153.1292259596652627 18.71984559354762467 -22.49999999999997158 0.5 
	153.6911466654914022 -0.324425070365023771 -22.49999999999997158 1 
	153.6911466654914022 -0.3244250703650521928 62.50000000000005684 1 
	154.2530673713175986 -19.36869573427770774 62.50000000000004974 0.5 
	170.4649292098996227 -9.359922796163417047 62.50000000000004263 1 
	186.6767910484817037 0.6488501419508310164 62.50000000000004974 0.5 
	169.9030085040734832 9.684347867749210081 62.50000000000004974 1 
	153.1292259596653196 18.71984559354760336 62.50000000000006395 0.5 
	153.6911466654914022 -0.3244250703650521928 62.50000000000005684 1 
	0 
	0 
	0 
	0 
	0 
	0 
	0 
	F 1 F 0 F 1 F 0 } I I I I #
loop $-1 $-1 $23 $4 #
tcoedge-coedge $-1 $16 $16 $24 $25 reversed $8 $26 -1 -0 #
tcoedge-coedge $-1 $17 $17 $27 $28 forward $10 $29 0 1 #
tcoedge-coedge $-1 $30 $31 $11 $19 forward $13 $32 0 1 #
tedge-edge $-1 $33 0 $33 1 $11 $34 forward 7 unknown 0.0003665322716533892162 #
pcurve $-1 0 forward { exppc nubs 2 periodic 37 
	-1 2 -0.9583333333333333703 2 -0.9166666666666667407 2 -0.8958333333333333703 2 -0.875 2 
	-0.8541666666666667407 2 -0.8333333333333333703 2 -0.8125 2 -0.7916666666666667407 2 -0.7708333333333333703 2 
	-0.75 2 -0.7083333333333333703 2 -0.6666666666666667407 2 -0.625 2 -0.5833333333333333703 2 
	-0.5625 2 -0.5416666666666667407 2 -0.5208333333333333703 2 -0.5 2 -0.4791666666666666852 2 
	-0.4583333333333333703 2 -0.4375 2 -0.4166666666666666852 2 -0.375 2 -0.3333333333333333703 2 
	-0.2916666666666666852 2 -0.25 2 -0.2291666666666666574 2 -0.2083333333333333148 2 -0.1874999999999999722 2 
	-0.1666666666666666297 2 -0.1458333333333333148 2 -0.1249999999999999722 2 -0.1041666666666666435 2 -0.08333333333333331483 2 
	-0.04166666666666665741 2 -0 2 
	0.9761899001751039862 0.5000000449127379731 
	0.9761899001751040972 0.5549857762660718175 
	0.9636585738073021323 0.6085245146890483348 
	0.949734877843079639 0.668012001825681212 
	0.9212448537931990922 0.7220578061473382769 
	0.9061618998844356287 0.7506702907882216724 
	0.8873484072690398516 0.7769804080731691487 
	0.8679648088168113729 0.8040878016394822358 
	0.8449945853448430633 0.82823119635863518 
	0.8215507490177926808 0.852872393030749798 
	0.7948427781788690583 0.8739315081316259004 
	0.7678565993103710907 0.8952099890148046413 
	0.7380946991868539975 0.912393030062711996 
	0.7083327990633252469 0.9295760711106261232 
	0.676412004630312147 0.9423075471202226883 
	0.6448202905522844031 0.9549077707998210318 
	0.6117584700910444484 0.962890130285157464 
	0.5793645651946814912 0.970711229982910595 
	0.5461970745097577407 0.9739442218761406034 
	0.5140050982567377913 0.9770821257725114117 
	0.4816844827379677119 0.9758381047011689402 
	0.4206344312025177001 0.9734882871219666667 
	0.3621549081527701275 0.9558028179732341867 
	0.3095233374079958688 0.9398858957393745328 
	0.2619042972103490241 0.9123930300627113299 
	0.2142852570127073975 0.8849001643860512356 
	0.1741850126357345485 0.8472783481969267116 
	0.1296291855502132995 0.805476330209014435 
	0.09706915806464060104 0.7537803434665677482 
	0.0798314964546337491 0.726411879897040702 
	0.06645301281701285201 0.6969638587157096499 
	0.05266912058431229282 0.6666234732561560072 
	0.04324543915991869991 0.6346589788392614784 
	0.03362745502574456674 0.6020354226818149801 
	0.0287437117866270811 0.5683760839013357602 
	0.02380909622210398285 0.5343661270085729997 
	0.02380909622210395857 0.5000000449127398605 
	0.02380909622210394122 0.4656339628168781886 
	0.02874371178662276163 0.4316240059241420735 
	0.03362745502573293022 0.3979646671437112593 
	0.04324543915992108689 0.3653411109862184092 
	0.05266912058432914046 0.3333766165692758632 
	0.06645301281700946583 0.3030362311097665184 
	0.07983149645461853905 0.2735882099284615565 
	0.09706915806464060104 0.246219746358910363 
	0.1296291855502106904 0.1945237596164677563 
	0.1741850126357349371 0.1527217416285525931 
	0.2142852570127120326 0.1150999254394239335 
	0.2619042972103490241 0.08760705976276648987 
	0.3095233374079880417 0.0601141940861079152 
	0.3621549081527747904 0.04419727185224437555 
	0.4206344312025276366 0.02651180270351020246 
	0.4816844827379642702 0.02416198512430843548 
	0.5140050982567234694 0.02291796405296637335 
	0.5461970745097541879 0.02605586794933809416 
	0.5793645651946912611 0.02928885984256918498 
	0.6117584700910458917 0.03710995954032018235 
	0.6448202905522828488 0.04509231902565584427 
	0.6764120046303111478 0.0576925427052544168 
	0.7083327990633103699 0.07042401871484535447 
	0.738094699186851666 0.087607059762766476 
	0.7678565993103912968 0.1047901008106865983 
	0.7948427781788709456 0.1260685816938507675 
	0.8215507490177871297 0.1471276967947209302 
	0.8449945853448431743 0.1717688934668414602 
	0.8679648088168041564 0.195912288185986716 
	0.8873484072690390745 0.2230196817523086572 
	0.9061618998844449546 0.24932979903727015 
	0.9212448537932004244 0.2779422836781384465 
	0.9497348778430791949 0.3319880879997921808 
	0.9636585738073035756 0.391475575136430054 
	0.9761899001751038751 0.4450143135593971344 
	0.9761899001751039862 0.5000000449127379731 
	0.001000000000000000021 
	spline forward { ref 0 } I I I I 
	} 0 0 #
loop $-1 $-1 $27 $12 #
spline-surface $-1 forward { exactsur full nurbs 2 1 both periodic open none none 4 2 
	0 2 0.3333333333333329818 2 0.6666666666666669627 2 1 2 
	0 1 1 1 
	157.1896241000509633 -0.2211989114830288372 -22.49999999999997158 1 
	156.8064963460786601 12.76353108663926861 -22.49999999999997158 0.5 
	168.2431662627206777 6.602964455413037115 -22.49999999999997868 1 
	179.6798361793625247 0.4423978241868553596 -22.49999999999997868 0.5 
	168.6262940166929809 -6.381765542709217698 -22.49999999999997868 1 
	157.5727518540234371 -13.20592890960529076 -22.49999999999997868 0.5 
	157.1896241000509633 -0.2211989114830288372 -22.49999999999997158 1 
	157.1896241000510202 -0.2211989114830572589 62.50000000000005684 1 
	156.8064963460787169 12.76353108663924729 62.50000000000006395 0.5 
	168.2431662627206777 6.602964455413015799 62.50000000000004974 1 
	179.6798361793625247 0.4423978241868269379 62.50000000000004974 0.5 
	168.6262940166929809 -6.38176554270924612 62.50000000000004263 1 
	157.5727518540234371 -13.20592890960531918 62.50000000000005684 0.5 
	157.1896241000510202 -0.2211989114830572589 62.50000000000005684 1 
	0 
	0 
	0 
	0 
	0 
	0 
	0 
	F 1 F 0 F 1 F 0 } I I I I #
tcoedge-coedge $-1 $23 $23 $35 $36 forward $15 $37 0 1 #
tcoedge-coedge $-1 $31 $30 $16 $25 forward $13 $38 0 1 #
tedge-edge $-1 $39 0 $39 1 $16 $40 forward 7 unknown 0.0003665322716717697498 #
pcurve $-1 0 forward { exppc nubs 2 periodic 37 
	-1 2 -0.9583333333333333703 2 -0.9166666666666667407 2 -0.8958333333333333703 2 -0.875 2 
	-0.8541666666666667407 2 -0.8333333333333333703 2 -0.8125 2 -0.7916666666666667407 2 -0.7708333333333333703 2 
	-0.75 2 -0.7083333333333333703 2 -0.6666666666666667407 2 -0.625 2 -0.5833333333333333703 2 
	-0.5625 2 -0.5416666666666667407 2 -0.5208333333333333703 2 -0.5 2 -0.4791666666666666852 2 
	-0.4583333333333333703 2 -0.4375 2 -0.4166666666666666852 2 -0.375 2 -0.3333333333333333703 2 
	-0.2916666666666666852 2 -0.25 2 -0.2291666666666666574 2 -0.2083333333333333148 2 -0.1874999999999999722 2 
	-0.1666666666666666297 2 -0.1458333333333333148 2 -0.1249999999999999722 2 -0.1041666666666666435 2 -0.08333333333333331483 2 
	-0.04166666666666665741 2 -0 2 
	0.4999999550872620269 0.02381009982489597568 
	0.5549856864405928736 0.023810099824895882 
	0.6085244248635695019 0.03634142619269784685 
	0.6680119120002082633 0.05026512215692177654 
	0.7220577163218625527 0.07875514620680090783 
	0.7506702009627330696 0.09383810011555764052 
	0.776980318247691093 0.1126515927309608006 
	0.8040877118140101754 0.1320351911831935121 
	0.8282311065331586786 0.1550054146551576861 
	0.8528723032052760722 0.1784492509822107054 
	0.8739314183061489549 0.2051572218211304144 
	0.8952098991893215896 0.2321434006896208324 
	0.9123929402372334962 0.2619053008131460025 
	0.9295759812851527304 0.291667200936683968 
	0.9423074572947458538 0.3235879953696886302 
	0.9549076809743447525 0.3551797094477177619 
	0.9628900404596807405 0.3882415299089558292 
	0.970711140157431096 0.4206354348053078507 
	0.9739441320506618816 0.4538029254902413712 
	0.977082035947033356 0.4859949017432693141 
	0.9758380148756911066 0.5183155172620329543 
	0.973488197296488722 0.5793655687974842428 
	0.9558027281477567971 0.637845091847229706 
	0.9398858059138981424 0.6904766625920006895 
	0.9123929402372329411 0.7380957027896510869 
	0.8849000745605741791 0.7857147429872903821 
	0.8472782583714471016 0.8258149873642660621 
	0.8054762403835329376 0.8703708144497894761 
	0.7537802536410904697 0.9029308419353595516 
	0.7264117900715667542 0.9201685035453643913 
	0.6969637688902321493 0.9335469871829867872 
	0.6666233834306782846 0.947330879415687388 
	0.6346588890137824235 0.9567545608400813695 
	0.6020353328563343709 0.9663725449742559537 
	0.5683759940758578155 0.9712562882133730646 
	0.5343660371830958322 0.9761909037778960796 
	0.4999999550872601395 0.9761909037778960796 
	0.4656338729914011321 0.9761909037778960796 
	0.4316239160986656831 0.9712562882133772835 
	0.3979645773182292068 0.9663725449742663898 
	0.3653410211607389657 0.956754560840079038 
	0.3333765267438189017 0.947330879415677618 
	0.3030361412842907387 0.9335469871829886745 
	0.273588120102964405 0.9201685035453699424 
	0.2462196565334316967 0.9029308419353595516 
	0.1945236697909912826 0.8703708144497909194 
	0.1527216518030736214 0.8258149873642639527 
	0.1150998356139490142 0.7857147429872910482 
	0.08760696993728986359 0.7380957027896510869 
	0.06011410426062336471 0.690476662591998358 
	0.04419718202676421043 0.6378450918472254871 
	0.02651171287803429089 0.5793655687974860191 
	0.02416189529883192022 0.5183155172620359519 
	0.02291787422748921971 0.4859949017432603768 
	0.02605577812385950071 0.4538029254902459786 
	0.02928877001708982825 0.4206354348053178427 
	0.03710986971484304259 0.3882415299089538308 
	0.04509222920017882941 0.3551797094477163741 
	0.05769245287977734643 0.3235879953696882416 
	0.07042392888937050455 0.2916672009366834684 
	0.08760696993728801785 0.2619053008131485005 
	0.1047900109852059336 0.2321434006896129221 
	0.126068491868373711 0.2051572218211287213 
	0.1471276069692400157 0.1784492509822174777 
	0.1717688036413651254 0.1550054146551571033 
	0.1959121983605172646 0.1320351911831896263 
	0.2230195919268320448 0.1126515927309600235 
	0.2493297092117920388 0.09383810011555535069 
	0.2779421938526604463 0.07875514620679968658 
	0.3319879981743176223 0.05026512215691898711 
	0.3914754853109526089 0.03634142619269531416 
	0.445014223733915526 0.02381009982489606935 
	0.4999999550872620269 0.02381009982489597568 
	0.001000000000000000021 
	spline forward { ref 1 } I I I I 
	} 0 0 #
tcoedge-coedge $-1 $41 $42 $17 $28 reversed $21 $43 -1 -0 #
tedge-edge $-1 $44 0 $44 1 $17 $45 forward 7 unknown 0.0003985863474213564763 #
pcurve $-1 0 forward { exppc nubs 2 periodic 25 
	0 2 0.04166666666666666435 2 0.08333333333333332871 2 0.125 2 0.1666666666666666574 2 
	0.2083333333333333148 2 0.25 2 0.2916666666666666297 2 0.3333333333333333148 2 0.375 2 
	0.4166666666666666297 2 0.4583333333333333148 2 0.5 2 0.5416666666666666297 2 0.5833333333333332593 2 
	0.625 2 0.6666666666666666297 2 0.7083333333333332593 2 0.75 2 0.7916666666666667407 2 
	0.8333333333333333703 2 0.875 2 0.9166666666666667407 2 0.9583333333333333703 2 1 2 
	0.8246747722734905084 0.5000000449127379731 
	0.8246747722734903974 0.4625097735354607997 
	0.8161306861136261581 0.4260060882470727561 
	0.8066372570471107561 0.3854464379266430707 
	0.7872122406494637126 0.3485970258891475382 
	0.7662332229400060646 0.3087996608886545147 
	0.7352234212528586665 0.2762060780178086095 
	0.7029215444954092229 0.2422544291940063599 
	0.6623371352360472031 0.2188230095832119915 
	0.6217527259766835179 0.1953915899724166794 
	0.576198797216176728 0.1843931685224523276 
	0.5324670256060903828 0.1738346839304865665 
	0.487511987657256729 0.1755650041478991064 
	0.4458869525194510408 0.1771671524973550127 
	0.4060145504400797245 0.189225426916944689 
	0.370129388568659734 0.2000778738945711011 
	0.3376618611611608145 0.2188230095832119915 
	0.3051943337536698331 0.2375681452718483022 
	0.2778532580421019249 0.2632193835826105999 
	0.2474742850292485641 0.29172075948345777 
	0.2252742662890838687 0.3269680231714915952 
	0.2012982460497026449 0.3650350679545735222 
	0.1885762761267705812 0.4081871354173827182 
	0.1753242241237176202 0.453137205691137912 
	0.1753242241237176202 0.5000000449127379731 
	0.1753242241237176202 0.5468628841343305957 
	0.1885762761267722465 0.5918129544080937832 
	0.201298246049707058 0.6349650218709145255 
	0.2252742662890806769 0.6730320666539848506 
	0.2474742850292420138 0.7082793303420138464 
	0.2778532580421007037 0.7367807062428664011 
	0.3051943337536677792 0.7624319445536282824 
	0.337661861161158372 0.7811770802422646209 
	0.3701293885686540164 0.799922215930903846 
	0.4060145504400789473 0.8107746629085319512 
	0.4458869525194502081 0.822832937328121794 
	0.4875119876572590605 0.8244350856775779501 
	0.532467025606086386 0.8261654058949904345 
	0.5761987972161749516 0.815606921303024146 
	0.621752725976689069 0.8046084998530580457 
	0.6623371352360447606 0.7811770802422670634 
	0.7029215444954030056 0.7577456606314747489 
	0.735223421252855891 0.7237940118076690021 
	0.7662332229400095063 0.6912004289368167687 
	0.7872122406494637126 0.6514030639363298514 
	0.8066372570471095349 0.6145536518988363728 
	0.8161306861136251589 0.5739940015784049665 
	0.8246747722734906194 0.5374903162900105391 
	0.8246747722734905084 0.5000000449127379731 
	0.001000000000000000021 
	spline forward { ref 0 } I I I I 
	} 0 0 #
coedge $-1 $24 $18 $31 $46 reversed $13 $47 #
coedge $-1 $18 $24 $30 $46 forward $13 $48 #
pcurve $-1 0 forward { exppc nubs 2 periodic 37 
	0 2 0.04166666666666666435 2 0.08333333333333332871 2 0.1041666666666666574 2 0.125 2 
	0.1458333333333333148 2 0.1666666666666666574 2 0.1875 2 0.2083333333333333148 2 0.2291666666666666574 2 
	0.25 2 0.2916666666666666297 2 0.3333333333333333148 2 0.375 2 0.4166666666666666297 2 
	0.4375 2 0.4583333333333333148 2 0.4791666666666666297 2 0.5 2 0.5208333333333332593 2 
	0.5416666666666666297 2 0.5625 2 0.5833333333333332593 2 0.625 2 0.6666666666666666297 2 
	0.7083333333333332593 2 0.75 2 0.7708333333333333703 2 0.7916666666666667407 2 0.8125 2 
	0.8333333333333333703 2 0.8541666666666667407 2 0.875 2 0.8958333333333333703 2 0.9166666666666667407 2 
	0.9583333333333333703 2 1 2 
	0 0 
	0.02963937210813014783 0 
	0.05603693789193358449 0 
	0.08534065770698229247 0 
	0.1120738757838688204 0 
	0.1263228771060256328 0 
	0.1400923447298405844 0 
	0.1542780179241795557 0 
	0.1681108136758726612 0 
	0.1822280885175068255 0 
	0.1961292826217697349 0 
	0.2101749047167608686 0 
	0.2241477515677364474 0 
	0.2381205984187131086 0 
	0.252166220513705297 0 
	0.2660674146179675681 0 
	0.2801846894596010662 0 
	0.2940174852112946158 0 
	0.3082031584056341145 0 
	0.3219726260294494269 0 
	0.3362216273516067111 0 
	0.3629548454284931003 0 
	0.3922585652435416903 0 
	0.4186561310273446135 0 
	0.448295503135474005 0 
	0.4779348752436043402 0 
	0.5043324410274079295 0 
	0.533636160842456797 0 
	0.5603693789193434638 0 
	0.5746183802414999153 0 
	0.5883878478653146171 0 
	0.6025735210596541158 0 
	0.6164063168113477209 0 
	0.6305235916529816631 0 
	0.6444247857572443783 0 
	0.6584704078522357618 0 
	0.6724432547032115348 0 
	0.6864161015541871969 0 
	0.7004617236491783583 0 
	0.7143629177534411845 0 
	0.7284801925950753487 0 
	0.7423129883467690648 0 
	0.7564986615411087856 0 
	0.7702681291649238204 0 
	0.7845171304870806051 0 
	0.8112503485639666057 0 
	0.840554068379014363 0 
	0.8669516341628182854 0 
	0.8965910062709490091 0 
	0.9262303783790797329 0 
	0.9526279441628833222 0 
	0.9819316639779315237 0 
	1.008664882054817413 0 
	1.022913883376974864 0 
	1.036683351000790454 0 
	1.050869024195128842 0 
	1.064701819946821448 0 
	1.078819094788455724 0 
	1.092720288892718994 0 
	1.106765910987710377 0 
	1.120738757838686039 0 
	1.134711604689661701 0 
	1.148757226784652863 0 
	1.162658420888915689 0 
	1.176775695730549964 0 
	1.190608491482243458 0 
	1.204794164676582513 0 
	1.218563632300397659 0 
	1.232812633622554666 0 
	1.259545851699440444 0 
	1.288849571514488535 0 
	1.315247137298292346 0 
	1.34488650940642307 0 
	0.001000000000000000021 
	spline forward { ref 2 } I I I I 
	} 0 0 #
tvertex-vertex $-1 $19 $49 2.128184891313857333e-14 #
intcurve-curve $-1 forward { exactcur full nurbs 2 periodic 4 
	0 2 0.3333333333333329818 2 0.6666666666666669627 2 1 2 
	153.6911466654914022 -0.324425070365023771 -22.49999999999997158 1 
	154.2530673713175986 -19.36869573427767932 -22.49999999999998224 0.5 
	170.4649292098996227 -9.359922796163388625 -22.49999999999997868 1 
	186.6767910484817037 0.6488501419508523327 -22.49999999999997868 0.5 
	169.9030085040734832 9.684347867749231398 -22.49999999999997158 1 
	153.1292259596652627 18.71984559354762823 -22.49999999999997158 0.5 
	153.6911466654914022 -0.324425070365023771 -22.49999999999997158 1 
	0 
	null_surface 
	null_surface 
	nullbs 
	nullbs 
	I I 
	0 
	0 
	0 
	F 1 F 0 } I I #
tcoedge-coedge $-1 $42 $41 $23 $36 reversed $21 $50 -1 -0 #
tedge-edge $-1 $51 0 $51 1 $23 $52 forward 7 unknown 0.0003985863474157526148 #
pcurve $-1 0 forward { exppc nubs 2 periodic 25 
	0 2 0.04166666666666666435 2 0.08333333333333332871 2 0.125 2 0.1666666666666666574 2 
	0.2083333333333333148 2 0.25 2 0.2916666666666666297 2 0.3333333333333333148 2 0.375 2 
	0.4166666666666666297 2 0.4583333333333333148 2 0.5 2 0.5416666666666666297 2 0.5833333333333332593 2 
	0.625 2 0.6666666666666666297 2 0.7083333333333332593 2 0.75 2 0.7916666666666667407 2 
	0.8333333333333333703 2 0.875 2 0.9166666666666667407 2 0.9583333333333333703 2 1 2 
	0.4999999550872620269 0.1753252277265096026 
	0.4625096837099842428 0.1753252277265097137 
	0.4260059984215963658 0.1838693138863738419 
	0.3854463481011636272 0.1933627429528899655 
	0.348596936063669649 0.2127877593505360654 
	0.308799571063181455 0.2337667770599911043 
	0.2762059881923302207 0.264776578747143887 
	0.2422543393685283597 0.2970784555045932751 
	0.2188229197577335194 0.3376628647639565162 
	0.1953915001469403168 0.3782472740233169262 
	0.1843930786969761038 0.4238012027838244378 
	0.1738345941050096488 0.4675329743939151683 
	0.1755649143224222997 0.5124880123427439926 
	0.1771670626718784003 0.5541130474805482375 
	0.1892253370914688815 0.5939854495599219408 
	0.2000777840690972365 0.6298706114313479265 
	0.2188229197577353791 0.662338138838841628 
	0.2375680554463719951 0.6948056662463326649 
	0.2632192937571337099 0.7221467419578995184 
	0.2917206696579863756 0.7525257149707582638 
	0.3269679333460144832 0.7747257337109186848 
	0.3650349781290916917 0.7987017539502964114 
	0.4081870455919060503 0.8114237238732293633 
	0.4531371158656716247 0.8246757758762847113 
	0.4999999550872620269 0.8246757758762847113 
	0.5468627943088532062 0.8246757758762847113 
	0.5918128645826172818 0.8114237238732291413 
	0.6349649320454319179 0.7987017539502954122 
	0.6730319768285075721 0.7747257337109180186 
	0.7082792405165366789 0.7525257149707561544 
	0.7367806164173893446 0.7221467419578968538 
	0.7624318547281537795 0.6948056662463265587 
	0.7811769904167880085 0.6623381388388391855 
	0.7999221261054257903 0.6298706114313457061 
	0.8107745730830544506 0.5939854495599181661 
	0.8228328475026440714 0.5541130474805469053 
	0.8244349958521002275 0.5124880123427396628 
	0.8261653160695128228 0.4675329743939107274 
	0.8156068314775468675 0.423801202783822939 
	0.8046084100275833206 0.3782472740233189246 
	0.7811769904167886747 0.3376628647639565162 
	0.7577455708059915862 0.2970784555045897779 
	0.7237939219821920567 0.2647765787471431098 
	0.6912003391113431539 0.2337667770599929362 
	0.6514029741108526839 0.2127877593505367038 
	0.6145535620733593163 0.1933627429528909092 
	0.5739939117529264667 0.1838693138863750076 
	0.5374902264645319283 0.1753252277265094916 
	0.4999999550872620269 0.1753252277265096026 
	0.001000000000000000021 
	spline forward { ref 1 } I I I I 
	} 0 0 #
pcurve $-1 0 forward { exppc nubs 2 periodic 37 
	0 2 0.04166666666666666435 2 0.08333333333333332871 2 0.1041666666666666574 2 0.125 2 
	0.1458333333333333148 2 0.1666666666666666574 2 0.1875 2 0.2083333333333333148 2 0.2291666666666666574 2 
	0.25 2 0.2916666666666666297 2 0.3333333333333333148 2 0.375 2 0.4166666666666666297 2 
	0.4375 2 0.4583333333333333148 2 0.4791666666666666297 2 0.5 2 0.5208333333333332593 2 
	0.5416666666666666297 2 0.5625 2 0.5833333333333332593 2 0.625 2 0.6666666666666666297 2 
	0.7083333333333332593 2 0.75 2 0.7708333333333333703 2 0.7916666666666667407 2 0.8125 2 
	0.8333333333333333703 2 0.8541666666666667407 2 0.875 2 0.8958333333333333703 2 0.9166666666666667407 2 
	0.9583333333333333703 2 1 2 
	1.34488650940642307 1 
	1.315247137298292568 0.999999999999999778 
	1.288849571514488979 0.9999999999999996669 
	1.259545851699440444 0.999999999999999778 
	1.232812633622554443 1 
	1.218563632300397659 1 
	1.204794164676582957 1 
	1.190608491482243458 0.999999999999999778 
	1.176775695730549964 0.9999999999999995559 
	1.162658420888916133 0.999999999999999778 
	1.148757226784653307 0.999999999999999889 
	1.134711604689661923 0.999999999999999889 
	1.120738757838686039 1 
	1.106765910987710377 1.000000000000000222 
	1.092720288892718994 1 
	1.07881909478845639 0.999999999999999778 
	1.064701819946822559 0.999999999999999778 
	1.050869024195128842 0.999999999999999778 
	1.036683351000789122 0.9999999999999996669 
	1.022913883376973754 0.9999999999999996669 
	1.008664882054816747 1 
	0.9819316639779303024 1 
	0.9526279441628817679 1 
	0.9262303783790787337 1 
	0.8965910062709490091 1 
	0.8669516341628187295 1 
	0.8405540683790152512 1 
	0.8112503485639667167 1 
	0.784517130487080161 1 
	0.7702681291649231543 1 
	0.7564986615411082305 1 
	0.7423129883467688428 1 
	0.7284801925950753487 1 
	0.7143629177534411845 1 
	0.7004617236491783583 1 
	0.6864161015541871969 1 
	0.6724432547032115348 1 
	0.6584704078522357618 1 
	0.6444247857572444893 1 
	0.6305235916529817741 1 
	0.6164063168113477209 1 
	0.6025735210596541158 1 
	0.5883878478653145061 1 
	0.5746183802414998043 0.999999999999999889 
	0.5603693789193433528 1 
	0.5336361608424569081 0.999999999999999889 
	0.5043324410274084846 0.999999999999999778 
	0.4779348752436047287 1 
	0.448295503135474005 1 
	0.4186561310273437808 1 
	0.3922585652435401915 1 
	0.3629548454284920456 1 
	0.336221627351606045 1 
	0.3219726260294486497 0.9999999999999995559 
	0.3082031584056331708 0.9999999999999994449 
	0.2940174852112945603 0.999999999999999778 
	0.2801846894596018989 1 
	0.266067414617967235 0.999999999999999889 
	0.2521662205137037982 0.999999999999999889 
	0.238120598418712387 1 
	0.2241477515677364474 1 
	0.2101749047167614237 1 
	0.1961292826217708452 1 
	0.1822280885175078802 1 
	0.1681108136758736604 1 
	0.154278017924179861 1.000000000000000222 
	0.140092344729840057 1 
	0.1263228771060254663 1 
	0.1120738757838690147 1 
	0.08534065770698258391 1 
	0.05603693789193393837 1 
	0.0296393721081303109 1 
	0 1 
	0.001000000000000000021 
	spline forward { ref 2 } I I I I 
	} 0 0 #
tvertex-vertex $-1 $25 $53 3.426112997215453123e-14 #
intcurve-curve $-1 forward { exactcur full nurbs 2 periodic 4 
	0 2 0.3333333333333329818 2 0.6666666666666669627 2 1 2 
	153.6911466654914022 -0.3244250703650521928 62.50000000000005684 1 
	153.1292259596653196 18.71984559354760336 62.50000000000006395 0.5 
	169.9030085040734832 9.684347867749210081 62.50000000000004974 1 
	186.6767910484817037 0.6488501419508310164 62.50000000000004974 0.5 
	170.4649292098996227 -9.359922796163417047 62.50000000000004263 1 
	154.2530673713175986 -19.36869573427770774 62.50000000000004974 0.5 
	153.6911466654914022 -0.3244250703650521928 62.50000000000005684 1 
	0 
	null_surface 
	null_surface 
	nullbs 
	nullbs 
	I I 
	0 
	0 
	0 
	F 1 F 0 } I I #
coedge $-1 $35 $27 $42 $54 forward $21 $55 #
coedge $-1 $27 $35 $41 $54 reversed $21 $56 #
pcurve $-1 0 forward { exppc nubs 2 periodic 25 
	-1 2 -0.9583333333333333703 2 -0.9166666666666667407 2 -0.875 2 -0.8333333333333333703 2 
	-0.7916666666666667407 2 -0.75 2 -0.7083333333333333703 2 -0.6666666666666667407 2 -0.625 2 
	-0.5833333333333333703 2 -0.5416666666666667407 2 -0.5 2 -0.4583333333333333703 2 -0.4166666666666666852 2 
	-0.375 2 -0.3333333333333333703 2 -0.2916666666666666852 2 -0.25 2 -0.2083333333333333148 2 
	-0.1666666666666666297 2 -0.1249999999999999722 2 -0.08333333333333331483 2 -0.04166666666666665741 2 -0 2 
	0 0 
	0.02203856749311300725 0 
	0.04166666666666676844 0 
	0.06345565749235451691 0 
	0.08333333333333282911 0 
	0.1047854785478819217 0 
	0.1250000000000520972 0 
	0.1460481099656609216 0 
	0.1666666666666664909 0 
	0.1872852233676720046 0 
	0.2083333333332807458 0 
	0.2285478547854508102 0 
	0.2499999999999998335 0 
	0.2698776758409791032 0 
	0.2916666666666680174 0 
	0.3112947658402209217 0 
	0.3333333333333329818 0 
	0.3553719008264450974 0 
	0.3749999999999985012 0 
	0.3967889908256873044 0 
	0.4166666666666666297 0 
	0.4381188118812150423 0 
	0.4583333333333845516 0 
	0.4793814432989939034 0 
	0.5 0 
	0.5206185567010053195 0 
	0.5416666666666138941 0 
	0.5618811881187839585 0 
	0.5833333333333327042 0 
	0.6032110091743119185 0 
	0.6250000000000007772 0 
	0.6446280991735535704 0 
	0.6666666666666652974 0 
	0.6887052341597794669 0 
	0.7083333333333345916 0 
	0.7301223241590215629 0 
	0.7499999999999992228 0 
	0.7714521452145484126 0 
	0.7916666666667185881 0 
	0.8127147766323277178 0 
	0.8333333333333334814 0 
	0.8539518900343386898 0 
	0.8749999999999471534 0 
	0.895214521452117773 0 
	0.9166666666666672958 0 
	0.9365443425076458439 0 
	0.9583333333333335924 0 
	0.9779614325068871628 0 
	1 0 
	0.001000000000000000021 
	spline forward { ref 4 } I I I I 
	} 0 0 #
tvertex-vertex $-1 $28 $57 4.162137128766112314e-14 #
intcurve-curve $-1 forward { exactcur full nurbs 2 periodic 4 
	0 2 0.3333333333333329818 2 0.6666666666666669627 2 1 2 
	157.1896241000509633 -0.2211989114830288372 -22.49999999999997158 1 
	157.5727518540234371 -13.20592890960529076 -22.49999999999998224 0.5 
	168.6262940166929809 -6.381765542709217698 -22.49999999999997868 1 
	179.6798361793625247 0.4423978241868553596 -22.49999999999997868 0.5 
	168.2431662627206777 6.602964455413037115 -22.49999999999997868 1 
	156.8064963460786601 12.76353108663926861 -22.49999999999997158 0.5 
	157.1896241000509633 -0.2211989114830288372 -22.49999999999997158 1 
	0 
	null_surface 
	null_surface 
	nullbs 
	nullbs 
	I I 
	0 
	0 
	0 
	F 1 F 0 } I I #
edge $-1 $39 0 $33 1 $31 $58 forward 7 unknown #
pcurve $-1 0 forward { exppc nubs 2 open 7 
	-1 2 -0.8333333333333333703 2 -0.6666666666666667407 2 -0.5 2 -0.3333333333333333703 2 
	-0.1666666666666666297 2 -0 2 
	1.34488650940642307 0 
	1.34488650940642307 0.08333333333333331483 
	1.34488650940642307 0.1666666666666666297 
	1.34488650940642307 0.2499999999999999722 
	1.34488650940642307 0.3333333333333333148 
	1.34488650940642307 0.4166666666666666297 
	1.34488650940642307 0.5 
	1.34488650940642307 0.5833333333333332593 
	1.34488650940642307 0.6666666666666666297 
	1.34488650940642307 0.75 
	1.34488650940642307 0.8333333333333333703 
	1.34488650940642307 0.9166666666666667407 
	1.34488650940642307 1 
	0.001000000000000000021 
	spline forward { ref 2 } I I I I 
	} 0 0 #
pcurve $-1 0 forward { exppc nubs 2 open 7 
	0 2 0.1666666666666666574 2 0.3333333333333333148 2 0.5 2 0.6666666666666666297 2 
	0.8333333333333333703 2 1 2 
	0 1 
	0 0.9166666666666667407 
	0 0.8333333333333335924 
	0 0.750000000000000222 
	0 0.6666666666666667407 
	0 0.5833333333333333703 
	0 0.5 
	0 0.4166666666666666852 
	0 0.3333333333333333703 
	0 0.25 
	0 0.1666666666666666297 
	0 0.08333333333333331483 
	0 0 
	0.001000000000000000021 
	spline forward { ref 2 } I I I I 
	} 0 0 #
point $-1 153.6911466654914022 -0.324425070365023771 -22.49999999999997158 #
pcurve $-1 0 forward { exppc nubs 2 periodic 25 
	-1 2 -0.9583333333333333703 2 -0.9166666666666667407 2 -0.875 2 -0.8333333333333333703 2 
	-0.7916666666666667407 2 -0.75 2 -0.7083333333333333703 2 -0.6666666666666667407 2 -0.625 2 
	-0.5833333333333333703 2 -0.5416666666666667407 2 -0.5 2 -0.4583333333333333703 2 -0.4166666666666666852 2 
	-0.375 2 -0.3333333333333333703 2 -0.2916666666666666852 2 -0.25 2 -0.2083333333333333148 2 
	-0.1666666666666666297 2 -0.1249999999999999722 2 -0.08333333333333331483 2 -0.04166666666666665741 2 -0 2 
	1 1 
	0.9779614325068871628 1 
	0.9583333333333335924 1 
	0.9365443425076455108 1 
	0.9166666666666668517 1 
	0.895214521452117773 1 
	0.8749999999999475975 1 
	0.8539518900343389118 1 
	0.8333333333333334814 1 
	0.8127147766323281619 1 
	0.7916666666667196983 1 
	0.7714521452145497449 1 
	0.7500000000000008882 1 
	0.7301223241590216739 1 
	0.7083333333333329263 1 
	0.6887052341597786898 0.999999999999999889 
	0.6666666666666652974 0.999999999999999778 
	0.6446280991735535704 0.999999999999999778 
	0.6250000000000007772 0.999999999999999778 
	0.6032110091743124736 0.9999999999999996669 
	0.5833333333333338144 0.999999999999999889 
	0.5618811881187847357 0.9999999999999995559 
	0.5416666666666146712 0.9999999999999996669 
	0.5206185567010057635 1 
	0.5 1 
	0.4793814432989939034 0.999999999999999889 
	0.4583333333333845516 0.999999999999999778 
	0.4381188118812149312 1 
	0.4166666666666662411 1 
	0.3967889908256873599 1 
	0.3749999999999991118 0.999999999999999889 
	0.3553719008264456525 0.999999999999999778 
	0.3333333333333329818 0.999999999999999778 
	0.3112947658402195894 0.9999999999999995559 
	0.291666666666665797 0.9999999999999995559 
	0.2698776758409786591 0.999999999999999778 
	0.2500000000000007772 1 
	0.2285478547854512543 0.999999999999999889 
	0.2083333333332806625 0.999999999999999778 
	0.1872852233676719491 0.999999999999999778 
	0.1666666666666664909 1 
	0.1460481099656610326 1 
	0.1250000000000523193 0.999999999999999778 
	0.104785478547882116 0.9999999999999996669 
	0.08333333333333307891 0.999999999999999778 
	0.06345565749235439201 0.999999999999999778 
	0.04166666666666618557 0.999999999999999778 
	0.02203856749311268806 0.999999999999999889 
	0 1 
	0.001000000000000000021 
	spline forward { ref 4 } I I I I 
	} 0 0 #
tvertex-vertex $-1 $36 $59 3.960120553189475441e-14 #
intcurve-curve $-1 forward { exactcur full nurbs 2 periodic 4 
	0 2 0.3333333333333329818 2 0.6666666666666669627 2 1 2 
	157.1896241000510202 -0.2211989114830572589 62.50000000000005684 1 
	156.8064963460787169 12.76353108663924729 62.50000000000006395 0.5 
	168.2431662627206777 6.602964455413015799 62.50000000000004974 1 
	179.6798361793625247 0.4423978241868269379 62.50000000000004974 0.5 
	168.6262940166929809 -6.38176554270924612 62.50000000000004263 1 
	157.5727518540234371 -13.2059289096053174 62.50000000000005684 0.5 
	157.1896241000510202 -0.2211989114830572589 62.50000000000005684 1 
	0 
	null_surface 
	null_surface 
	nullbs 
	nullbs 
	I I 
	0 
	0 
	0 
	F 1 F 0 } I I #
point $-1 153.6911466654914022 -0.3244250703650521928 62.50000000000005684 #
edge $-1 $44 0 $51 1 $42 $60 forward 7 unknown #
pcurve $-1 0 forward { exppc nubs 2 open 7 
	0 2 0.1666666666666666574 2 0.3333333333333333148 2 0.5 2 0.6666666666666666297 2 
	0.8333333333333333703 2 1 2 
	1 0 
	1 0.08333333333333332871 
	1 0.1666666666666666574 
	1 0.25 
	1 0.3333333333333333148 
	1 0.4166666666666666297 
	1 0.5 
	1 0.5833333333333332593 
	1 0.6666666666666666297 
	1 0.75 
	1 0.8333333333333333703 
	1 0.9166666666666667407 
	1 1 
	0.001000000000000000021 
	spline forward { ref 4 } I I I I 
	} 0 0 #
pcurve $-1 0 forward { exppc nubs 2 open 7 
	-1 2 -0.8333333333333333703 2 -0.6666666666666667407 2 -0.5 2 -0.3333333333333333703 2 
	-0.1666666666666666297 2 -0 2 
	0 1 
	0 0.9166666666666667407 
	0 0.8333333333333333703 
	0 0.75 
	0 0.6666666666666667407 
	0 0.5833333333333333703 
	0 0.5 
	0 0.4166666666666666852 
	0 0.3333333333333333703 
	0 0.25 
	0 0.1666666666666666297 
	0 0.08333333333333331483 
	0 0 
	0.001000000000000000021 
	spline forward { ref 4 } I I I I 
	} 0 0 #
point $-1 157.1896241000509633 -0.2211989114830288372 -22.49999999999997158 #
intcurve-curve $-1 forward { exactcur full nubs 1 open 2 
	0 1 1 1 
	153.6911466654914022 -0.3244250703650521928 62.50000000000005684 
	153.6911466654914022 -0.324425070365023771 -22.49999999999997158 
	0 
	null_surface 
	null_surface 
	nullbs 
	nullbs 
	I I 
	0 
	0 
	0 
	F 1 F 0 } I I #
point $-1 157.1896241000510202 -0.2211989114830572589 62.50000000000005684 #
intcurve-curve $-1 forward { exactcur full nubs 1 open 2 
	0 1 1 1 
	157.1896241000509633 -0.2211989114830288372 -22.49999999999997158 
	157.1896241000510202 -0.2211989114830572589 62.50000000000005684 
	0 
	null_surface 
	null_surface 
	nullbs 
	nullbs 
	I I 
	0 
	0 
	0 
	F 1 F 0 } I I #
End-of-ACIS-data 