600 0 1 0           
82 GICL ACIS Healer - Source: /gicl/data5/repository/SDRC_I-DEAS/bmw/Part15.sat - 6 0 18 ACIS 6.0.3 Solaris 24 Sat Apr 13 23:15:23 2002 
1 9.999999999999999547e-07 1.000000000000000036e-10 
body $-1 $1 $-1 $-1 #
lump $-1 $-1 $2 $0 #
shell $-1 $-1 $-1 $3 $-1 $1 #
face $-1 $4 $5 $2 $-1 $6 reversed single #
face $-1 $7 $8 $2 $-1 $9 reversed single #
loop $-1 $-1 $10 $3 #
plane-surface $-1 -305.6234335505929494 -13.48654138511124856 44.06488976887204956 -0.338628927423794468 -0.598310564265390088 -0.7261920670182517856 -0.9063077845118432396 0 0.4226182671551648729 forward_v I I I I #
face $-1 $11 $12 $2 $-1 $13 reversed single #
loop $-1 $-1 $14 $4 #
cone-surface $-1 -304.2689178534876078 -11.09329909988207064 46.96965801960845255 -0.3386289274238105662 -0.5983105642653969714 -0.726192067018238685 -0.6535330085196164873 -0.2851724090229659225 0.53970136065484553 1 I I 0 1 0.8942629673565569703 forward I I I I #
coedge $-1 $10 $10 $15 $16 forward $5 $-1 #
face $-1 $17 $18 $2 $-1 $19 reversed single #
loop $-1 $-1 $20 $7 #
plane-surface $-1 -314.8727277269784963 7.207185290318836479 31.32831891161774962 -0.3386289274238121205 -0.5983105642653916423 -0.7261920670182422377 -0.9063077845118326925 0 0.4226182671551875769 forward_v I I I I #
coedge $-1 $21 $22 $23 $24 reversed $8 $-1 #
coedge $-1 $22 $21 $10 $16 reversed $8 $-1 #
edge $-1 $25 0 $25 1 $10 $26 forward 7 unknown #
face $-1 $27 $28 $2 $-1 $29 forward single #
loop $-1 $-1 $30 $11 #
cone-surface $-1 -313.5182119539900896 9.600427524594403295 34.23308716895001425 -0.3386289274238090119 -0.5983105642653936407 -0.7261920670182421267 -0.5045235542808654827 0.625752245141583785 -0.2802948669910350077 1 I I 0 1 0.8512785099986092119 forward I I I I #
coedge $-1 $20 $20 $31 $32 forward $12 $-1 #
coedge $-1 $15 $14 $22 $33 forward $8 $-1 #
coedge $-1 $14 $15 $21 $33 reversed $8 $-1 #
coedge $-1 $23 $23 $14 $24 forward $34 $-1 #
edge $-1 $35 0 $35 1 $14 $36 forward 7 unknown #
vertex $-1 $16 $37 #
intcurve-curve $-1 forward { exactcur full nurbs 2 periodic 4 
	0 2 0.3333333333333329818 2 0.6666666666666669627 2 1 2 
	-305.3053065944032483 -14.19829648682328127 44.50296066087613411 1 
	-303.9560851191498614 -14.05509433852824053 43.75582391315533926 0.5 
	-305.1078863099459113 -13.05906271785634232 43.4722859230047618 1 
	-306.2596875007419612 -12.06303109718447786 43.18874793285421987 0.5 
	-306.4571077851992982 -13.2022648661514026 44.21942267072557797 1 
	-306.6545280696566351 -14.34149863511836109 45.2500974085969645 0.5 
	-305.3053065944032483 -14.19829648682328127 44.50296066087613411 1 
	0 
	null_surface 
	null_surface 
	nullbs 
	nullbs 
	I I 
	0 
	0 
	0 
	F 1 F 0 } I I #
face $-1 $38 $39 $2 $-1 $40 forward single #
loop $-1 $41 $42 $17 #
plane-surface $-1 -313.1795844472262615 10.19874126734553244 34.95927727967446685 0.3386289274238081792 0.5983105642654028555 0.7261920670182349102 0.9063077845118329146 0 -0.4226182671551869663 forward_v I I I I #
coedge $-1 $43 $44 $45 $46 reversed $18 $-1 #
coedge $-1 $44 $43 $20 $32 reversed $18 $-1 #
edge $-1 $47 0 $47 1 $20 $48 forward 7 unknown #
edge $-1 $35 0 $25 1 $22 $49 forward 7 unknown #
loop $-1 $-1 $23 $38 #
vertex $-1 $24 $50 #
intcurve-curve $-1 forward { exactcur full nurbs 2 periodic 4 
	0 2 0.3333333333333329818 2 0.6666666666666669627 2 1 2 
	-303.6121619572841723 -11.20674366549629042 48.13392099596732976 1 
	-304.9613834325375592 -11.34994581379137024 48.88105774368815304 0.5 
	-304.7639631480802791 -10.21071204482441885 47.85038300581676651 1 
	-304.5665428636228853 -9.071478275857508322 46.8197082679454013 0.5 
	-303.4147416728268354 -10.06750989652936568 47.10324625809594323 1 
	-302.2629404820307855 -11.06354151720127099 47.3867842482465278 0.5 
	-303.6121619572841723 -11.20674366549629042 48.13392099596732976 1 
	0 
	null_surface 
	null_surface 
	nullbs 
	nullbs 
	I I 
	0 
	0 
	0 
	F 1 F 0 } I I #
point $-1 -305.3053065944032483 -14.19829648682328127 44.50296066087613411 #
face $-1 $-1 $51 $2 $-1 $52 forward single #
loop $-1 $-1 $53 $27 #
torus-surface $-1 -308.5549359763147663 -0.1481252233784076111 41.32756466129747963 0.8710786540077886109 0.09245356442644457606 -0.4823632624452494633 13.00000000000015099 1.999999999999797495 0.3386289274238183933 0.5983105642653993028 0.7261920670182331339 forward_v I I I I #
loop $-1 $-1 $45 $17 #
coedge $-1 $42 $42 $53 $54 reversed $28 $-1 #
coedge $-1 $31 $30 $44 $55 forward $18 $-1 #
coedge $-1 $30 $31 $43 $55 reversed $18 $-1 #
coedge $-1 $45 $45 $30 $46 forward $41 $-1 #
edge $-1 $56 0 $56 1 $30 $57 forward 7 unknown #
vertex $-1 $32 $58 #
intcurve-curve $-1 forward { exactcur full nurbs 2 periodic 4 
	0 2 0.3333333333333329818 2 0.6666666666666669627 2 1 2 
	-315.6142582023607019 7.128481534963803767 31.7389443802095208 1 
	-315.0897315767776377 5.954942183838073611 32.46123415251035027 0.5 
	-314.2396990815561253 6.65976745825445704 31.48415104736122672 1 
	-313.3896665863346129 7.364592732670807607 30.50706794221216711 0.5 
	-314.7642257071391327 7.833306809380168545 30.76186127506042922 1 
	-316.1387848279437662 8.302020886089477969 31.01665460790874107 0.5 
	-315.6142582023607019 7.128481534963803767 31.7389443802095208 1 
	0 
	null_surface 
	null_surface 
	nullbs 
	nullbs 
	I I 
	0 
	0 
	0 
	F 1 F 0 } I I #
intcurve-curve $-1 forward { exactcur full nubs 1 open 2 
	0 1 1 1 
	-303.6121619572841723 -11.20674366549629042 48.13392099596732976 
	-305.3053065944032483 -14.19829648682328127 44.50296066087613411 
	0 
	null_surface 
	null_surface 
	nullbs 
	nullbs 
	I I 
	0 
	0 
	0 
	F 1 F 0 } I I #
point $-1 -303.6121619572841723 -11.20674366549629042 48.13392099596732976 #
loop $-1 $34 $59 $38 #
plane-surface $-1 -303.9302875054037258 -10.49499171410243115 47.69585204292046399 0.3386289274238110103 0.5983105642653958611 0.7261920670182392401 0.9063077845118324705 0 -0.422618267155187799 forward_v I I I I #
coedge $-1 $60 $61 $42 $54 forward $39 $-1 #
edge $-1 $62 0 $62 1 $42 $63 forward 7 unknown #
edge $-1 $56 0 $47 1 $44 $64 forward 7 unknown #
vertex $-1 $46 $65 #
intcurve-curve $-1 forward { exactcur full nurbs 2 periodic 4 
	0 2 0.3333333333333329818 2 0.6666666666666669627 2 1 2 
	-313.9211135652415692 10.12003435629079462 35.36990471530072 1 
	-314.4456401908246335 11.29357370741648303 34.64761494299993672 0.5 
	-313.0710810700201137 10.82485963070714519 34.39282161015162842 1 
	-311.6965219492155938 10.35614555399778425 34.13802827730336276 0.5 
	-312.5465544444370494 9.651320279581476314 35.11511138245243302 1 
	-313.3965869396586186 8.946495005165065351 36.09219448760154592 0.5 
	-313.9211135652415692 10.12003435629079462 35.36990471530072 1 
	0 
	null_surface 
	null_surface 
	nullbs 
	nullbs 
	I I 
	0 
	0 
	0 
	F 1 F 0 } I I #
point $-1 -315.6142582023607019 7.128481534963803767 31.7389443802095208 #
coedge $-1 $59 $59 $66 $67 reversed $51 $-1 #
coedge $-1 $66 $53 $61 $68 reversed $39 $-1 #
coedge $-1 $53 $66 $60 $68 forward $39 $-1 #
vertex $-1 $68 $69 #
intcurve-curve $-1 forward { exactcur full nurbs 2 periodic 4 
	0 2 0.3333333333333329818 2 0.6666666666666669627 2 1 2 
	-314.9217403345817843 10.01383096000689221 35.92400576085873354 1 
	-316.1540670512140423 12.77095295320184221 34.22705285104791528 0.5 
	-312.9246677308744893 11.66975264988369787 33.62843951861758285 1 
	-309.6952684105351068 10.56855234656560327 33.02982618618730015 0.5 
	-311.6923410142424018 8.912630656688797615 35.32539242842844374 1 
	-313.6894136179497536 7.256708966811959982 37.62095867066962995 0.5 
	-314.9217403345817843 10.01383096000689221 35.92400576085873354 1 
	0 
	null_surface 
	null_surface 
	nullbs 
	nullbs 
	I I 
	0 
	0 
	0 
	F 1 F 0 } I I #
intcurve-curve $-1 forward { exactcur full nubs 1 open 2 
	0 1 1 1 
	-313.9211135652415692 10.12003435629079462 35.36990471530072 
	-315.6142582023607019 7.128481534963803767 31.7389443802095208 
	0 
	null_surface 
	null_surface 
	nullbs 
	nullbs 
	I I 
	0 
	0 
	0 
	F 1 F 0 } I I #
point $-1 -313.9211135652415692 10.12003435629079462 35.36990471530072 #
coedge $-1 $61 $60 $59 $67 forward $39 $-1 #
edge $-1 $70 0 $70 1 $66 $71 forward 7 unknown #
edge $-1 $70 0 $62 2.501851166488375799 $61 $72 forward 7 unknown #
point $-1 -314.9217403345817843 10.01383096000689221 35.92400576085873354 #
vertex $-1 $67 $73 #
intcurve-curve $-1 forward { exactcur full nurbs 2 periodic 4 
	0 2 0.3333333333333329818 2 0.6666666666666669627 2 1 2 
	-305.6724462340793025 -10.67989566446961192 48.66057661151717184 1 
	-306.9047729507115037 -7.922773671274677021 46.96362370170633938 0.5 
	-303.6753736303719506 -9.023973974592799152 46.36501036927599984 1 
	-300.4459743100325682 -10.12517427791091507 45.76639703684573135 0.5 
	-302.4430469137398632 -11.78109596778769941 48.06196327908686783 1 
	-304.4401195174472718 -13.43701765766453171 50.35752952132807536 0.5 
	-305.6724462340793025 -10.67989566446961192 48.66057661151717184 1 
	0 
	null_surface 
	null_surface 
	nullbs 
	nullbs 
	I I 
	0 
	0 
	0 
	F 1 F 0 } I I #
intcurve-curve $-1 forward { exactcur full nurbs 2 open 3 
	0 2 1.2509255832441879 2 2.501851166488375799 2 
	-305.6724462340793025 -10.67989566446961192 48.66057661151717184 1 
	-310.0746222905888203 -18.45793299991978031 39.22007974028007027 0.7071067811865470176 
	-314.6992693408400896 -8.111069687681563778 32.85179431495085822 1 
	-319.3239163910914158 2.2357936245567398 26.48350888962164973 0.7071067811865470176 
	-314.9217403345817843 10.01383096000689221 35.92400576085873354 1 
	0 
	null_surface 
	null_surface 
	nullbs 
	nullbs 
	I I 
	0 
	0 
	0 
	F 1 F 0 } I I #
point $-1 -305.6724462340793025 -10.67989566446961192 48.66057661151717184 #
End-of-ACIS-data 