600 0 1 0           
7 Unknown 16 ACIS 6.0 Solaris 24 Thu Aug 24 19:05:25 2000 
-1 9.999999999999999547e-07 1.000000000000000036e-10 
body $-1 $1 $-1 $-1 #
lump $-1 $-1 $2 $0 #
shell $-1 $-1 $-1 $3 $-1 $1 #
face $-1 $4 $5 $2 $-1 $6 forward single #
face $-1 $7 $8 $2 $-1 $9 forward single #
loop $-1 $-1 $10 $3 #
spline-surface $-1 forward { exactsur full nubs 1 1 open open none none 2 2 
	0 1 1 1 
	0 1 1 1 
	-99.99999999999671729 -108.1375017577991287 -21.86249569354834676 
	-99.99999999999670308 -91.86249820536230004 -21.86249569354836453 
	-100.0000000000033111 -108.1375017577991429 -38.13749924598517538 
	-100.0000000000032969 -91.86249820536231425 -38.13749924598519669 
	0 
	0 
	0 
	0 
	0 
	0 
	0 
	F 1 F 0 F 1 F 0 } I I I I #
face $-1 $-1 $11 $2 $-1 $12 reversed single #
loop $-1 $-1 $13 $4 #
spline-surface $-1 forward { exactsur full nurbs 2 1 both periodic open none none 4 2 
	0 2 0.3333333333333329818 2 0.6666666666666669627 2 1 2 
	0 1 1 1 
	-99.99999999999687361 -99.99999999999997158 -22.24999999999798561 1 
	-99.99999999999688782 -113.4233937586587899 -22.24999999999799272 0.5 
	-100.0000000000015916 -106.7116968793293665 -33.87499999999799627 1 
	-100.0000000000062954 -99.99999999999998579 -45.49999999999799627 0.5 
	-100.0000000000015774 -93.28830312067057662 -33.87499999999800337 1 
	-99.9999999999968594 -86.57660624134116745 -22.24999999999801048 0.5 
	-99.99999999999687361 -99.99999999999997158 -22.24999999999798561 1 
	-14.9999999999968594 -100.0000000000000568 -22.25000000003242917 1 
	-14.99999999999687361 -113.4233937586588752 -22.25000000003243628 0.5 
	-15.0000000000015774 -106.711696879329466 -33.87500000003243628 1 
	-15.0000000000062812 -100.0000000000000853 -45.50000000003244338 0.5 
	-15.00000000000156319 -93.28830312067067609 -33.87500000003244338 1 
	-14.99999999999684519 -86.57660624134126692 -22.25000000003245404 0.5 
	-14.9999999999968594 -100.0000000000000568 -22.25000000003242917 1 
	0 
	0 
	0 
	0 
	0 
	0 
	0 
	F 1 F 0 F 1 F 0 } I I I I #
tcoedge-coedge $-1 $10 $10 $14 $15 reversed $5 $16 -1 -0 #
loop $-1 $-1 $17 $7 #
spline-surface $-1 forward { exactsur full nurbs 2 2 both periodic open none high 4 2 
	0 2 0.3333333333333329818 2 0.6666666666666669627 2 1 2 
	0.3782607574118859728 2 1 2 
	-19.48247733150166994 -91.65901839514295091 -30.00000000003062439 0.8622350052112119911 
	-19.48247733150749639 -91.65901839514296512 -44.44630431983430441 0.4311175026056059956 
	-19.48360459395379962 -104.1698848761091369 -37.22315215993245374 0.8622350052112119911 
	-19.48473185640004601 -116.680751357075323 -30.00000000003061373 0.4311175026056059956 
	-19.48360459394794475 -104.1698848761091227 -22.77684784012878083 0.8622350052112119911 
	-19.48247733149578664 -91.65901839514295091 -15.55369568022695859 0.4311175026056059956 
	-19.48247733150166994 -91.65901839514295091 -30.00000000003062439 0.8622350052112119911 
	-14.99951567997453594 -94.62479817634155665 -30.00000000003243272 0.8178967919757309524 
	-14.99951567997830182 -94.62479817634157087 -39.31012269733822961 0.4089483959878659758 
	-15.00024216001462207 -102.6876009118295485 -34.65506134868532229 0.8178967919757309524 
	-15.00096864005088548 -110.7504036473175688 -30.00000000003243272 0.4089483959878659758 
	-15.00024216001084199 -102.6876009118295485 -25.34493865137955027 0.8178967919757309524 
	-14.99951567997075585 -94.62479817634155665 -20.68987730272667136 0.4089483959878659758 
	-14.99951567997453594 -94.62479817634155665 -30.00000000003243272 0.8178967919757309524 
	-15 -100.0000000000002274 -30.00000000003243628 1 
	-15 -100.0000000000002274 -30.00000000003244693 0.5 
	-15 -100.0000000000002274 -30.00000000003244693 1 
	-15 -100.0000000000002558 -30.00000000003243983 0.5 
	-15 -100.0000000000002274 -30.00000000003243272 1 
	-15 -100.0000000000002274 -30.00000000003242917 0.5 
	-15 -100.0000000000002274 -30.00000000003243628 1 
	0 
	0 
	0 
	0 
	0 
	0 
	0 
	F 1 F 0 F 1 F 0 } I I I I #
tcoedge-coedge $-1 $18 $19 $17 $20 forward $8 $21 0 1 #
tcoedge-coedge $-1 $19 $22 $10 $15 forward $8 $23 0 1 #
tedge-edge $-1 $24 0 $24 1 $10 $25 forward 7 unknown 0.0003503845440930342158 #
pcurve $-1 0 forward { exppc nubs 2 periodic 31 
	-1 2 -0.9583333333333333703 2 -0.9166666666666667407 2 -0.875 2 -0.8541666666666667407 2 
	-0.8333333333333333703 2 -0.8125 2 -0.7916666666666667407 2 -0.75 2 -0.7083333333333333703 2 
	-0.6666666666666667407 2 -0.625 2 -0.5833333333333333703 2 -0.5416666666666667407 2 -0.5208333333333333703 2 
	-0.5 2 -0.4791666666666666852 2 -0.4583333333333333703 2 -0.4166666666666666852 2 -0.375 2 
	-0.3333333333333333703 2 -0.2916666666666666852 2 -0.25 2 -0.2083333333333333148 2 -0.1874999999999999722 2 
	-0.1666666666666666297 2 -0.1458333333333333148 2 -0.1249999999999999722 2 -0.08333333333333331483 2 -0.04166666666666665741 2 
	-0 2 
	0.4999999988682490848 0.02380978321762709099 
	0.554985726789022582 0.02380978321762700078 
	0.6085244618697763785 0.03634110880314537356 
	0.6680119452928359181 0.05026480389816573302 
	0.7220577462406050362 0.07875482616951504089 
	0.780427211264196119 0.1095240502225724444 
	0.8282311298238891339 0.1550050898578493319 
	0.8528723249577494503 0.1784489247213921492 
	0.8739314387439779397 0.205156893893029546 
	0.8952099182988131343 0.2321430710768717098 
	0.9123929582740534228 0.2619049693424749248 
	0.9295759982492938223 0.2916668676080784173 
	0.942307473464111478 0.3235876600483945098 
	0.9549076963571254684 0.3551793721542708671 
	0.9628900553441512855 0.3882411905515778527 
	0.9783758317789817971 0.4523811182423546073 
	0.9758380289518692186 0.5183151697846187789 
	0.9734882115193574936 0.5793652175089371026 
	0.9558027434746636519 0.6378447369080239016 
	0.9398858222344395053 0.690476304367201088 
	0.9123929582740527566 0.7380953415921700511 
	0.8849000943136655639 0.7857143788171396803 
	0.8472782804731360251 0.8258146206907981401 
	0.8054762650947706604 0.87037044499486238 
	0.7537802815795129341 0.9029304704478331445 
	0.697948619383035318 0.9380952979370411615 
	0.6346589243885117915 0.9567541859925394743 
	0.6020353702676222163 0.966372169526301894 
	0.5683760335883825121 0.9712559124605435468 
	0.5343660788187366562 0.9761905277170165318 
	0.4999999988682495289 0.9761905277170165318 
	0.4656339189177608473 0.9761905277170165318 
	0.431623964148115602 0.9712559124605437688 
	0.3979646274688771745 0.9663721695263023381 
	0.3653410733479870443 0.9567541859925399184 
	0.3020513783534628516 0.9380952979370414946 
	0.2462197161569853743 0.9029304704478336996 
	0.1945237326417272039 0.8703704449948627131 
	0.1527217172633616726 0.8258146206907984732 
	0.1150999034228305518 0.7857143788171383481 
	0.08760703946244474682 0.7380953415921712724 
	0.06011417550206030885 0.6904763043672064171 
	0.04419725426183460093 0.6378447369080245677 
	0.02651178621714007921 0.5793652175089362144 
	0.02416196878462842368 0.5183151697846201111 
	0.02162416595751558146 0.4523811182423523314 
	0.03710994239234526038 0.388241190551578963 
	0.04509230137937082772 0.355179372154273254 
	0.05769252427238567155 0.3235876600483948429 
	0.07042399948720168279 0.2916668676080829137 
	0.08760703946244434437 0.2619049693424753689 
	0.1047900794376852157 0.2321430710768709882 
	0.1260685589925195915 0.2051568938930298514 
	0.1471276727787467209 0.1784489247213941476 
	0.1717688679126085083 0.1550050898578499148 
	0.2195727864723021616 0.1095240502225722917 
	0.2779422514958924118 0.07875482616951520742 
	0.331988052443662085 0.05026480389816563588 
	0.3914755358667210139 0.03634110880314536662 
	0.4450142709474738667 0.02380978321762716732 
	0.4999999988682490848 0.02380978321762709099 
	0.001000000000000000021 
	spline forward { ref 0 } I I I I 
	} 0 0 #
tcoedge-coedge $-1 $26 $27 $13 $20 reversed $11 $28 -1 -0 #
tcoedge-coedge $-1 $22 $13 $26 $29 forward $8 $30 0 1 #
coedge $-1 $13 $14 $22 $31 forward $8 $32 #
tedge-edge $-1 $33 0 $34 1 $13 $35 forward 7 unknown 3.920103724179025155e-05 #
pcurve $-1 0 forward { exppc nubs 2 open 7 
	0 2 0.1666666666666666574 2 0.3333333333333333148 2 0.5 2 0.6666666666666666297 2 
	0.8333333333333333703 2 1 2 
	1 0.9567013212499084762 
	0.9749660556301746883 0.956703109649513328 
	0.9529660291001569306 0.9567046813091035773 
	0.9309518013566799866 0.956706315958756992 
	0.9108108926874793898 0.9567078115065343891 
	0.8882113758889079724 0.9567094563902809323 
	0.8713835271294876339 0.9567105099642734256 
	0.851189140343495465 0.9567117743133539687 
	0.8333454589724442751 0.9567125778362732813 
	0.8139807916699401957 0.9567134498511984386 
	0.795306010252352813 0.9567138774195823592 
	0.7759880570968740177 0.9567143197137246702 
	0.7559830641437083054 0.956714319713738548 
	0.001000000000000000021 
	spline forward { ref 1 } I I I I 
	} 0 0 #
coedge $-1 $14 $18 $19 $31 reversed $8 $36 #
pcurve $-1 0 forward { exppc nubs 2 periodic 31 
	0 2 0.04166666666666666435 2 0.08333333333333332871 2 0.125 2 0.1458333333333333148 2 
	0.1666666666666666574 2 0.1875 2 0.2083333333333333148 2 0.25 2 0.2916666666666666297 2 
	0.3333333333333333148 2 0.375 2 0.4166666666666666297 2 0.4583333333333333148 2 0.4791666666666666297 2 
	0.5 2 0.5208333333333332593 2 0.5416666666666666297 2 0.5833333333333332593 2 0.625 2 
	0.6666666666666666297 2 0.7083333333333332593 2 0.75 2 0.7916666666666667407 2 0.8125 2 
	0.8333333333333333703 2 0.8541666666666667407 2 0.875 2 0.9166666666666667407 2 0.9583333333333333703 2 
	1 2 
	0 0 
	0.02203856749311302807 0 
	0.04166666666666681007 0 
	0.06345565749235479447 0 
	0.08333333333333331483 0 
	0.1047854785478821715 0 
	0.125000000000052125 0 
	0.1354970008569235662 0 
	0.1458333333333332038 0 
	0.1562770562770561256 0 
	0.1666666666666664909 0 
	0.1770562770562769672 0 
	0.1875 0 
	0.1978363324764096931 0 
	0.2083333333332811621 0 
	0.2285478547854511988 0 
	0.250000000000000111 0 
	0.2698776758409786591 0 
	0.2916666666666666852 0 
	0.3112947658402205886 0 
	0.3333333333333337034 0 
	0.3553719008264464296 0 
	0.375 0 
	0.3967889908256880815 0 
	0.4166666666666667407 0 
	0.4381188118812157084 0 
	0.4583333333333856063 0 
	0.4688303341902570476 0 
	0.4791666666666665741 0 
	0.4896103896103896069 0 
	0.5 0 
	0.510389610389610171 0 
	0.5208333333333330373 0 
	0.5311696658097426749 0 
	0.5416666666666142271 0 
	0.5618811881187842916 0 
	0.5833333333333331483 0 
	0.6032110091743119185 0 
	0.625 0 
	0.6446280991735535704 0 
	0.6666666666666666297 0 
	0.6887052341597794669 0 
	0.7083333333333331483 0 
	0.7301223241590214519 0 
	0.750000000000000111 0 
	0.7714521452145490787 0 
	0.7916666666667190322 0 
	0.8021636675235903624 0 
	0.812499999999999889 0 
	0.8229437229437228662 0 
	0.8333333333333333703 0 
	0.8437229437229438744 0 
	0.8541666666666667407 0 
	0.8645029991430763783 0 
	0.8749999999999477085 0 
	0.8952145214521176619 0 
	0.9166666666666667407 0 
	0.9365443425076453998 0 
	0.9583333333333335924 0 
	0.9779614325068871628 0 
	1 0 
	0.001000000000000000021 
	spline forward { ref 1 } I I I I 
	} 0 0 #
tvertex-vertex $-1 $15 $37 3.552713678800500929e-15 #
intcurve-curve $-1 forward { exactcur full nurbs 2 periodic 4 
	0 2 0.3333333333333329818 2 0.6666666666666669627 2 1 2 
	-99.99999999999687361 -99.99999999999997158 -22.24999999999798561 1 
	-99.99999999999687361 -113.4233937586587899 -22.24999999999799627 0.5 
	-100.0000000000015916 -106.7116968793293665 -33.87499999999799627 1 
	-100.0000000000062954 -99.99999999999998579 -45.49999999999799627 0.5 
	-100.0000000000015774 -93.28830312067057662 -33.87499999999800337 1 
	-99.99999999999687361 -86.57660624134116745 -22.24999999999801048 0.5 
	-99.99999999999687361 -99.99999999999997158 -22.24999999999798561 1 
	0 
	null_surface 
	null_surface 
	nullbs 
	nullbs 
	I I 
	0 
	0 
	0 
	F 1 F 0 } I I #
tcoedge-coedge $-1 $38 $17 $18 $29 reversed $11 $39 -1 -0 #
tcoedge-coedge $-1 $17 $38 $38 $40 forward $11 $41 0 0.5611707963958060263 #
pcurve $-1 0 forward { exppc nubs 2 open 7 
	-1 2 -0.8333333333333333703 2 -0.6666666666666667407 2 -0.5 2 -0.3333333333333333703 2 
	-0.1666666666666666297 2 -0 2 
	1 0.4388292036041945843 
	0.9749461143177544642 0.4388278319038448894 
	0.9529305533301166697 0.4388266265517855036 
	0.9308581314610466784 0.438825745280527868 
	0.9106672967962360365 0.4388249391341808581 
	0.9038495306918928884 0.4388241678058835693 
	0.8712883028416219533 0.4388193292689087643 
	0.8389917445948349428 0.4388145300615469147 
	0.8332092323879777274 0.4388131741890659021 
	0.8021945729364468036 0.4388059019302980035 
	0.7952707625530971436 0.4388045307216641988 
	0.7761353226775145053 0.4388010867005713855 
	0.7559764446643686409 0.4387974584797655897 
	0.001000000000000000021 
	spline reversed { ref 2 } I I I I 
	} 0 0 #
tedge-edge $-1 $34 0 $33 1 $18 $42 forward 7 unknown 0.0003356949299055256709 #
pcurve $-1 0 forward { exppc nubs 2 open 19 
	0 2 0.08333333333333332871 2 0.125 2 0.1666666666666666574 2 0.2083333333333333148 2 
	0.25 2 0.3333333333333333148 2 0.4166666666666666297 2 0.4583333333333333148 2 0.5 2 
	0.5833333333333332593 2 0.625 2 0.6666666666666666297 2 0.7083333333333332593 2 0.75 2 
	0.8333333333333333703 2 0.875 2 0.9166666666666667407 2 1 2 
	0.7559830641437083054 0.956714319713738548 
	0.7267176896391197571 0.9567143197137810695 
	0.6911187220009665788 0.9567133343784453015 
	0.6708643358101682441 0.956712773762025348 
	0.6543029082233831062 0.9567121293688217731 
	0.6367707725810936026 0.9567114472061597485 
	0.6196178290142536627 0.9567105152741023355 
	0.603823818119200606 0.9567096571738655797 
	0.5876523299325762117 0.9567085488655101555 
	0.5731288989928736699 0.9567075535060971525 
	0.5573266984451122896 0.9567062882833620163 
	0.5280254539847026862 0.9567037492128085407 
	0.4998358895047079753 0.9567013064737912575 
	0.4620061373295433205 0.9566978993806901643 
	0.4422669522055445723 0.9566963213313512959 
	0.4265887237326521086 0.9566950679351555742 
	0.4121588727936960628 0.9566940800103156395 
	0.3959112584312314831 0.9566929676340782951 
	0.380034891972013511 0.9566921071870670978 
	0.3487758210498350664 0.9566904130478798285 
	0.3091415195107016789 0.9566893130315122784 
	0.2912555637354244387 0.9566888166218314726 
	0.2754667490198383639 0.9566885726479167351 
	0.2591563085713958214 0.9566883206137748452 
	0.2440315247720497294 0.9566883204802405505 
	0.2289478614011560831 0.9566883203471140407 
	0.2143472739183169551 0.9566885699600677917 
	0.1999612294976065296 0.9566888159052546747 
	0.1854728322167356613 0.9566893141491037422 
	0.1591198733834250922 0.9566902204051374037 
	0.1285603183358849932 0.9566921349231741756 
	0.1141302863881114849 0.9566931056441621006 
	0.09917206753679184972 0.9566941118967494662 
	0.08428335581733391313 0.9566952028076582959 
	0.06853503884857924111 0.9566963567027099158 
	0.03731486900370685478 0.9566986182321309817 
	0 0.9567013212499084762 
	0.001000000000000000021 
	spline forward { ref 1 } I I I I 
	} 0 0 #
edge $-1 $24 0 $33 0.9567013212499080321 $19 $43 forward 7 unknown #
pcurve $-1 0 forward { exppc nubs 2 open 7 
	0 2 0.1594502202083180054 2 0.3189004404166360107 2 0.4783506606249540161 2 0.6378008808332720214 2 
	0.7972511010415900268 2 0.9567013212499080321 2 
	1 0 
	1 0.07972511010415901656 
	1 0.1594502202083180331 
	1 0.2391753303124770635 
	1 0.3189004404166360662 
	1 0.3986255505207950689 
	1 0.4783506606249541271 
	1 0.5580757707291131853 
	1 0.6378008808332722435 
	1 0.7175259909374311906 
	1 0.7972511010415902488 
	1 0.876976211145749307 
	1 0.9567013212499082542 
	0.001000000000000000021 
	spline forward { ref 1 } I I I I 
	} 0 0 #
tvertex-vertex $-1 $29 $44 2.512147933894040188e-14 #
tvertex-vertex $-1 $40 $45 5.859285502108463938e-14 #
intcurve-curve $-1 forward { exactcur full nubs 3 open 4 
	0 3 0.3568536498948149949 2 0.674700535947026947 2 1 3 
	-18.68038769375463914 -100.0000000000000568 -22.25000000003094058 
	-18.68018026574988255 -98.54514344874347387 -22.25000000003094414 
	-18.67997690216292028 -97.1187182686245194 -22.65939076945847219 
	-18.67964406886504491 -94.78407849955955555 -24.1227926341760579 
	-18.67951446889148315 -93.87496536847379502 -25.0773426196005218 
	-18.67933129857119923 -92.5900512043475743 -27.36917139135822197 
	-18.67928282433166487 -92.25000000000005684 -28.67400120094525917 
	-18.67928282433220488 -92.25000000000005684 -30.00000000003092993 
	0 
	null_surface 
	null_surface 
	nullbs 
	nullbs 
	I I 
	0 
	2 0.3568536498948149949 0.674700535947026947 
	0 
	F 1 F 0 } I I #
pcurve $-1 0 forward { exppc nubs 2 open 7 
	-0.9567013212499080321 2 -0.7972511010415900268 2 -0.6378008808332721324 2 -0.4783506606249540161 2 -0.3189004404166360662 2 
	-0.1594502202083179776 2 -0 2 
	0 0.9567013212499082542 
	0 0.876976211145749307 
	0 0.7972511010415902488 
	0 0.7175259909374311906 
	0 0.6378008808332722435 
	0 0.5580757707291131853 
	0 0.4783506606249541271 
	0 0.3986255505207951244 
	0 0.3189004404166361217 
	0 0.2391753303124770635 
	0 0.1594502202083180331 
	0 0.07972511010415901656 
	0 0 
	0.001000000000000000021 
	spline forward { ref 1 } I I I I 
	} 0 0 #
point $-1 -99.99999999999687361 -99.99999999999997158 -22.24999999999798561 #
tcoedge-coedge $-1 $27 $26 $27 $40 reversed $11 $46 -0.5611707963958060263 -0 #
pcurve $-1 0 forward { exppc nubs 2 open 19 
	-1 2 -0.9166666666666667407 2 -0.875 2 -0.8333333333333333703 2 -0.75 2 
	-0.7083333333333333703 2 -0.6666666666666667407 2 -0.625 2 -0.5833333333333333703 2 -0.5 2 
	-0.4583333333333333703 2 -0.4166666666666666852 2 -0.3333333333333333703 2 -0.25 2 -0.2083333333333333148 2 
	-0.1666666666666666297 2 -0.1249999999999999722 2 -0.08333333333333331483 2 -0 2 
	0.7559764446643686409 0.4387974584797655897 
	0.7259433510265893563 0.4387889591621777496 
	0.6911230061421372861 0.438779105060124186 
	0.6731382064741193716 0.4387792421528062814 
	0.654519091041851464 0.4387793840806854528 
	0.6481617039147768988 0.4387792074608340975 
	0.6196849868952345464 0.4387731144809788875 
	0.6009431310801218729 0.4387691044067019708 
	0.5575372315692986858 0.4387680246348914515 
	0.5427606243720817236 0.4387667206702439149 
	0.5284109983161985324 0.4387654543846322697 
	0.5145576629496904086 0.4387645818356107896 
	0.4999863891107745872 0.4387649197168970727 
	0.4857808240150626733 0.4387654619296745273 
	0.4714361551074479628 0.4387660094519107989 
	0.4571714261586532491 0.4387621293428463631 
	0.4424843906099637514 0.4387581343633437103 
	0.4197983154097223446 0.4387536331318164784 
	0.3808235204657449691 0.4387712175431066064 
	0.3662130290777356745 0.4387778094158858999 
	0.3460270934139141885 0.438778700138244937 
	0.3216478111296513509 0.4387797758957750482 
	0.3094058036193117478 0.4387815219251807175 
	0.274377299092529281 0.4387898221449531011 
	0.2441994772381216594 0.4387969729656069351 
	0.2178359947352038195 0.4388011383408522148 
	0.1856843286728070974 0.4388091880263945144 
	0.1734316821178416568 0.4388122556731031132 
	0.157144849623816002 0.4388141120670911444 
	0.1456401141618708373 0.4388154233915598224 
	0.1286275150760898267 0.438818262154854033 
	0.1142543611159876349 0.4388207474202454605 
	0.09935835878775796381 0.438823323091469597 
	0.08611190792024324414 0.4388256181760713526 
	0.06854788338773655509 0.4388258642646354901 
	0.03732239995105657293 0.4388273854274626906 
	0 0.4388292036041945843 
	0.001000000000000000021 
	spline reversed { ref 2 } I I I I 
	} 0 0 #
tedge-edge $-1 $47 0 $34 0.5611707963958060263 $27 $48 forward 7 unknown 1.255324758156618049e-10 #
pcurve $-1 0 forward { exppc nubs 2 open 7 
	0 2 0.09352846606596766643 2 0.1870569321319353329 2 0.2805853981979030132 2 0.3741138642638706657 2 
	0.4676423303298383738 2 0.5611707963958060263 2 
	1 1 
	1 0.9520449594668756177 
	1 0.9064715339340310152 
	1 0.858716994406111489 
	1 0.8129430678680638067 
	1 0.7654179856088036971 
	1 0.7194146018020965982 
	0.999999999999999889 0.6721432604418082768 
	1 0.6258861357361301669 
	1 0.578885771956802353 
	1 0.5323576696701624034 
	1 0.4856366097693905481 
	1 0.4388292036041945288 
	0.001000000000000000021 
	spline reversed { ref 2 } I I I I 
	} 0 0 #
intcurve-curve $-1 forward { exactcur full nubs 3 open 9 
	0 3 0.1067170591122049983 2 0.2328984153212619868 2 0.3511125938760629728 2 0.4773973697657040161 2 
	0.6302187385461309743 2 0.7452208610126620503 2 0.8666244756667890181 2 1 3 
	-18.67928282433220488 -92.25000000000005684 -30.00000000003092993 
	-18.67928282433273068 -92.25000000000005684 -31.30164075547306979 
	-18.67932954078246155 -92.57772084869982621 -32.58553404718468727 
	-18.67952562836303798 -93.95324875710676338 -35.08859108808337623 
	-18.67968736714796307 -95.08781473105560167 -36.19170303309151393 
	-18.68006847233029077 -97.76101959277650622 -37.5604027915161538 
	-18.68027561926609792 -99.21395205959345276 -37.84579983632101374 
	-18.68070260451736431 -102.2086923996601513 -37.58909330781303737 
	-18.6809118678048236 -103.6763107409997247 -36.99593407336053019 
	-18.68129087400818378 -106.3342882020212699 -34.84229636037678546 
	-18.68143043984156293 -107.313000321585406 -33.17831547584136587 
	-18.6815109082480717 -107.8772916432491797 -29.9394649322567119 
	-18.68149065802069231 -107.7352882143919004 -28.5086878179153338 
	-18.6813405883004009 -106.6829022009355583 -25.80167508045005675 
	-18.68120817914325471 -105.7543892036566291 -24.59977537744894249 
	-18.68084783006834471 -103.2272354541077561 -22.76685856771212002 
	-18.68062098201141907 -101.636234939028185 -22.25000000003094414 
	-18.68038769375463914 -100.0000000000000568 -22.25000000003094058 
	0 
	null_surface 
	null_surface 
	nullbs 
	nullbs 
	I I 
	0 
	7 0.1067170591122049983 0.2328984153212619868 0.3511125938760629728 0.4773973697657040161 0.6302187385461309743 0.7452208610126620503 0.8666244756667890181 
	0 
	F 1 F 0 } I I #
intcurve-curve $-1 forward { exactcur full nubs 1 open 2 
	0 1 0.9567013212499080321 1 
	-99.99999999999687361 -99.99999999999997158 -22.24999999999798561 
	-18.68038769375465336 -100.0000000000000568 -22.25000000003094058 
	0 
	null_surface 
	null_surface 
	nullbs 
	nullbs 
	I I 
	0 
	0 
	0 
	F 1 F 0 } I I #
point $-1 -18.68038769375463914 -100.0000000000000568 -22.25000000003094058 #
point $-1 -18.67928282433220488 -92.25000000000005684 -30.00000000003092637 #
pcurve $-1 0 forward { exppc nubs 2 open 7 
	-0.5611707963958060263 2 -0.4676423303298383738 2 -0.3741138642638707212 2 -0.2805853981979030132 2 -0.1870569321319353606 2 
	-0.09352846606596765255 2 -0 2 
	0 0.4388292036041945288 
	0 0.4856366097693905481 
	0 0.5323576696701624034 
	0 0.578885771956802353 
	0 0.6258861357361300559 
	0 0.6721432604418082768 
	0 0.7194146018020965982 
	0 0.7654179856088045852 
	0 0.812943067868065361 
	0 0.8587169944061123772 
	0 0.9064715339340314593 
	0 0.9520449594668758397 
	0 1 
	0.001000000000000000021 
	spline reversed { ref 2 } I I I I 
	} 0 0 #
tvertex-vertex $-1 $40 $49 2.842170943040400743e-14 #
intcurve-curve $-1 forward { exactcur full nurbs 2 open 2 
	0 2 0.5611707963958060263 2 
	-15 -100.000000000000199 -30.00000000003243628 1 
	-14.99957214154848728 -95.25143415961758819 -30.00000000003244693 0.8356368791395250017 
	-18.67928282433217646 -92.25000000000001421 -30.00000000003095479 0.8557453251417960205 
	0 
	null_surface 
	null_surface 
	nullbs 
	nullbs 
	I I 
	0 
	0 
	0 
	F 1 F 0 } I I #
point $-1 -15 -100.000000000000199 -30.00000000003243628 #
End-of-ACIS-data 