600 0 1 0           
82 GICL ACIS Healer - Source: /gicl/data5/repository/SDRC_I-DEAS/bmw/Part67.sat - 6 0 18 ACIS 6.0.3 Solaris 24 Sat Apr 13 23:18:44 2002 
1 9.999999999999999547e-07 1.000000000000000036e-10 
body $1 $2 $-1 $-1 #
attrib_gssl_step_cc1_details-attrib_gssl_step-attrib $-1 $-1 $-1 $0 $3 $4 $5 $6 $7 $8 $9 $10 $11 $12 $13 $14 $15 $16 $17 $18 $19 $20 $21 $22 $23 $24 $25 $26 $27 $28 $29 $30 $31 $32 $33 $34 #
lump $-1 $-1 $35 $0 #
attrib_gssl_step_product_details-attrib_gssl_step-attrib $-1 $-1 $-1 $-1 10 BMW Engine 4 None 7 222-333 6 detail 0  #
attrib_gssl_step_application_details-attrib_gssl_step-attrib $-1 $-1 $-1 $-1 70 configuration controlled 3D designs of mechanical parts and assemblies 22 International Standard 21 config_control_design 1995 #
attrib_gssl_step_mech_con_details-attrib_gssl_step-attrib $-1 $-1 $-1 $-1 4 None 10 mechanical #
attrib_gssl_step_des_con_details-attrib_gssl_step-attrib $-1 $-1 $-1 $-1 15 part_definition 6 design #
attrib_gssl_step_person_details-attrib_gssl_step-attrib $-1 $-1 $-1 $-1 11 person id 0 4 None 4 None 0 0 0 #
attrib_gssl_step_person_details-attrib_gssl_step-attrib $-1 $-1 $-1 $-1 11 person id 6 4 None 4 None 0 0 0 #
attrib_gssl_step_person_details-attrib_gssl_step-attrib $-1 $-1 $-1 $-1 11 person id 7 4 None 4 None 0 0 0 #
attrib_gssl_step_person_details-attrib_gssl_step-attrib $-1 $-1 $-1 $-1 11 person id 1 4 None 4 None 0 0 0 #
attrib_gssl_step_person_details-attrib_gssl_step-attrib $-1 $-1 $-1 $-1 11 person id 2 4 None 4 None 0 0 0 #
attrib_gssl_step_person_details-attrib_gssl_step-attrib $-1 $-1 $-1 $-1 11 person id 3 4 None 4 None 0 0 0 #
attrib_gssl_step_person_details-attrib_gssl_step-attrib $-1 $-1 $-1 $-1 11 person id 4 4 None 4 None 0 0 0 #
attrib_gssl_step_person_details-attrib_gssl_step-attrib $-1 $-1 $-1 $-1 11 person id 5 4 None 4 None 0 0 0 #
attrib_gssl_step_org_details-attrib_gssl_step-attrib $-1 $-1 $-1 $-1 0  4 None 4 None 12 design_owner #
attrib_gssl_step_org_details-attrib_gssl_step-attrib $-1 $-1 $-1 $-1 0  4 None 4 None 7 creator #
attrib_gssl_step_org_details-attrib_gssl_step-attrib $-1 $-1 $-1 $-1 0  4 None 4 None 0  #
attrib_gssl_step_org_details-attrib_gssl_step-attrib $-1 $-1 $-1 $-1 0  4 None 4 None 7 creator #
attrib_gssl_step_org_details-attrib_gssl_step-attrib $-1 $-1 $-1 $-1 0  4 None 4 None 13 part_supplier #
attrib_gssl_step_org_details-attrib_gssl_step-attrib $-1 $-1 $-1 $-1 0  4 None 4 None 0  #
attrib_gssl_step_org_details-attrib_gssl_step-attrib $-1 $-1 $-1 $-1 0  4 None 4 None 0  #
attrib_gssl_step_org_details-attrib_gssl_step-attrib $-1 $-1 $-1 $-1 0  4 None 4 None 22 classification_officer #
attrib_gssl_step_datetime_details-attrib_gssl_step-attrib $-1 $-1 $-1 $-1 2000 23 8 15 58 28 0 0 1 13 creation_date #
attrib_gssl_step_datetime_details-attrib_gssl_step-attrib $-1 $-1 $-1 $-1 2000 23 8 15 58 28 0 0 1 0  #
attrib_gssl_step_datetime_details-attrib_gssl_step-attrib $-1 $-1 $-1 $-1 2000 23 8 15 58 28 0 0 1 0  #
attrib_gssl_step_datetime_details-attrib_gssl_step-attrib $-1 $-1 $-1 $-1 2000 23 8 15 58 28 0 0 1 19 classification_date #
attrib_gssl_step_datetime_details-attrib_gssl_step-attrib $-1 $-1 $-1 $-1 2000 23 8 15 58 28 0 0 1 0  #
attrib_gssl_step_security_details-attrib_gssl_step-attrib $-1 $-1 $-1 $-1 4 None 4 None 12 unclassified #
attrib_gssl_step_approval_details-attrib_gssl_step-attrib $-1 $-1 $-1 $-1 4 None 8 approved 4 none 0  #
attrib_gssl_step_approval_details-attrib_gssl_step-attrib $-1 $-1 $-1 $-1 4 None 8 approved 4 none 0  #
attrib_gssl_step_approval_details-attrib_gssl_step-attrib $-1 $-1 $-1 $-1 4 None 8 approved 4 none 0  #
attrib_gssl_step_product_def_form_details-attrib_gssl_step-attrib $-1 $-1 $-1 $-1 4 None 0  0 #
attrib_gssl_step_product_def_details-attrib_gssl_step-attrib $-1 $-1 $-1 $-1 4 None 4 None #
attrib_gssl_step_product_def_spec_details-attrib_gssl_step-attrib $-1 $-1 $-1 $-1 4 None 4 None #
shell $-1 $-1 $-1 $36 $-1 $2 #
face $-1 $37 $38 $35 $-1 $39 forward single #
face $-1 $40 $41 $35 $-1 $42 forward single #
loop $-1 $-1 $43 $36 #
plane-surface $-1 100.0000000000000142 -99.99999999999769784 30.00002235174040877 1 4.581456817710242785e-13 -2.759656302702727592e-13 -2.759656302702727592e-13 0 -1 forward_v I I I I #
face $-1 $-1 $44 $35 $-1 $45 reversed single #
loop $-1 $-1 $46 $37 #
cone-surface $-1 83.73585656469575156 -100.0000000000051585 30.00002235174488519 -1 -4.575857379867884549e-13 2.75744589750550962e-13 -2.771116669464390725e-12 7.418191287680897972 2.243421052628168155 1 I I 0 1 7.750000000000003553 forward I I I I #
coedge $-1 $43 $43 $47 $48 reversed $38 $-1 #
loop $-1 $-1 $49 $40 #
sphere-surface $-1 24.99999995940761011 -100.0009010267083909 30.00002235176105003 -10.0000000000000675 -0.4935119672136266122 -0.8631010309647599854 -0.1072499350326375916 -0.2123629481901049276 0 0.9771908607002046665 forward_v I I I I #
coedge $-1 $50 $51 $49 $52 forward $41 $-1 #
coedge $-1 $51 $53 $43 $48 forward $41 $-1 #
edge $-1 $54 -7.56030469937759797 $54 -1.277119392198012182 $43 $55 reversed 7 unknown #
coedge $-1 $56 $57 $46 $52 reversed $44 $-1 #
coedge $-1 $53 $46 $56 $58 forward $41 $-1 #
coedge $-1 $46 $47 $53 $59 forward $41 $-1 #
edge $-1 $60 -37.22798499748834189 $61 -25.55069731360871899 $46 $62 reversed 7 unknown #
coedge $-1 $47 $50 $51 $59 reversed $41 $-1 #
vertex $-1 $48 $63 #
ellipse-curve $-1 100.0000000000000142 -99.99999999999771205 30.00002235174040166 1 4.581456817710242785e-13 -2.759656302702727592e-13 -2.771116669464390725e-12 7.418191287680897972 2.243421052628168155 1 I I #
coedge $-1 $64 $49 $50 $58 reversed $44 $-1 #
coedge $-1 $49 $64 $64 $65 forward $44 $-1 #
edge $-1 $61 -25.55069731360871899 $60 9.481165734616325835 $50 $66 reversed 7 unknown #
edge $-1 $54 0 $60 0.9567013212499080321 $51 $67 forward 7 unknown #
vertex $-1 $58 $68 #
vertex $-1 $65 $69 #
intcurve-curve $-1 forward { surfintcur full nubs 3 open 10 
	25.55069731360871899 3 26.2738972683848111 2 27.73355821955054523 2 29.19321917071628292 2 30.6528801355238194 2 
	32.11254110033135589 2 33.57220206513889593 2 35.03186302994643597 2 36.49152399953803894 2 37.22798499748834189 3 
	18.67928284250324467 -107.749872470364636 30.00002235261667138 
	18.67928284225362745 -107.749874172568326 30.25533116134771205 
	18.67928462854223426 -107.7373432590864013 30.5114462490803362 
	18.6792955177577582 -107.6609549215374386 31.28035002004274645 
	18.67931023083068354 -107.5577431516613274 31.78974396678548331 
	18.6793529537340568 -107.2580435800242924 32.76469021539461579 
	18.67938096947914772 -107.0615149396382151 33.23022996295343745 
	18.67944646557147337 -106.6020682764947622 34.08804497046517668 
	18.67948618309308628 -106.3234567172862768 34.50962102054450042 
	18.67957819981407042 -105.6779833394940198 35.29937044423874681 
	18.67963049454705882 -105.3111546025982364 35.66757085540795913 
	18.67974445251607207 -104.5117847940414606 36.32246390696748506 
	18.67980620764024735 -104.0786071360634537 36.60967807930497031 
	18.67993470262914002 -103.1772964298860842 37.08714958383035309 
	18.68000144568679133 -102.7091433817503798 37.27736916169501313 
	18.68013424086058905 -101.7776987220493936 37.55905811765404678 
	18.6802048289216529 -101.2825913167463483 37.66014927771356469 
	18.68031367640742602 -100.5191444943371977 37.736894914320672 
	18.68035062539975399 -100.2599903062414626 37.74989308874781102 
	18.68038769387826648 -99.99999999918111371 37.74989482219547199 
	0.0002350367873756988653 
	cone 83.73585656469575156 -100.0000000000051585 30.00002235174488519 -1 -4.575857379867884549e-13 2.75744589750550962e-13 -2.771116669464390725e-12 7.418191287680897972 2.243421052628168155 1 I I 0 1 7.750000000000003553 forward I I I I 
	sphere 24.99999995940761011 -100.0009010267083909 30.00002235176105003 -10.0000000000000675 -0.4935119672136266122 -0.8631010309647599854 -0.1072499350326375916 -0.2123629481901049276 0 0.9771908607002046665 forward_v I I I I 
	nullbs 
	nullbs 
	I I 
	0 
	0 
	0 
	} I I #
point $-1 100.00000000000216 -99.99999999999415934 37.75002235174040521 #
coedge $-1 $57 $56 $57 $65 reversed $44 $-1 #
edge $-1 $70 0 $61 0.5611707963958060263 $57 $71 forward 7 unknown #
intcurve-curve $-1 forward { surfintcur full nubs 3 open 26 
	-9.481165734616325835 3 -8.757965762975025825 2 -7.298304793383415756 2 -5.838643823791812792 2 -4.378982867843859594 2 
	-2.919321911895906396 2 -1.459660955947953198 2 0 3 1.459660951164742926 2 2.919321902329485852 2 
	4.378982853494228777 2 5.838643804658971703 2 7.298304769471684494 2 8.75796573428439018 2 10.21762669909709587 2 
	11.67728766390980155 2 13.13694863350080766 2 14.59660960309181377 2 16.05627057268281632 2 17.51593154227381888 2 
	18.97559249821869898 2 20.43525345416357908 2 21.89491441010845918 2 23.35457536605333928 2 24.81423631721907697 2 
	25.55069731360871899 3 
	18.68038769387826648 -99.99999999918111371 37.74989482219547199 
	18.6804240948861775 -99.74469118687963487 37.7498965244299427 
	18.68046061111598277 -99.48857609553681414 37.7373656105925761 
	18.6805702398948128 -98.7196723192058414 37.6609772710262547 
	18.68064287034507487 -98.21027837055044074 37.55776550012714665 
	18.68078188167307729 -97.23533211802522658 37.25806592491930047 
	18.68084826116570696 -96.76979236838400311 37.06153728224107624 
	18.68097057531734251 -95.91197736442089194 36.60209061733118574 
	18.68103068792922627 -95.49040131890465943 36.32347905990015136 
	18.68114329990490674 -94.70065190207972705 35.67800568576499387 
	18.68119580330073859 -94.3324514932484135 35.31117695071127116 
	18.6812891876726539 -93.67755844454188718 34.51180714519774284 
	18.68133014392729763 -93.39034427285005791 34.0786294883136307 
	18.68139823054688264 -92.91287276861586975 33.17731878299024828 
	18.68142535579873709 -92.72265319043930276 32.70916573459123811 
	18.68144544023899201 -92.5818087123540181 32.24344340439098744 
	18.68146552467918298 -92.44096423473025936 31.77772107571687599 
	18.68147994038137583 -92.33987307483532447 31.28261367225700695 
	18.68149448833786508 -92.23785450535764596 30.26775790232025543 
	18.68149462656772641 -92.23688458532124912 29.74801380966457032 
	18.68148005844335202 -92.33904507847361742 28.71969468348082444 
	18.681465340346044 -92.44225684840544943 28.21030073675586181 
	18.68142260315982384 -92.74195642004058016 27.23535448814158855 
	18.68139457826490712 -92.93848506042893121 26.76981474057825494 
	18.68132906197945076 -93.39793172357158824 25.91199973306603965 
	18.68128933270872238 -93.67654328275624209 25.49042368302476902 
	18.68119729106960136 -94.32201666051066979 24.70067425935643968 
	18.68114498309876126 -94.68884539775872611 24.33247384847444295 
	18.68103099987254012 -95.48821520573586952 23.67758079620587353 
	18.68096923273106569 -95.92139286392730924 23.39036662427036006 
	18.68084071670583768 -96.82270357013922535 22.91289511971108439 
	18.68077396473949392 -97.29085661831869913 22.72267554183086347 
	18.68064115612251896 -98.22230127801937272 22.44098658587191863 
	18.68057056305713104 -98.71740868326442353 22.33989542582656895 
	18.68042586619039724 -99.73226445669857299 22.23787685672196446 
	18.68035176258915442 -100.2520085510938515 22.23690693747987623 
	18.68020515195108189 -101.2803276809192425 22.33906743191300492 
	18.68013252670931479 -101.7897216294030898 22.44227920337148419 
	18.67999352966415216 -102.7646678819901922 22.74197877858087224 
	18.6799271593213625 -103.2302076316855732 22.93850742128437048 
	18.67980486536286122 -104.0880226356497928 23.39795408619495731 
	18.67974476450006804 -104.5095986811338804 23.67656564360708416 
	18.67963217744253157 -105.2993480979374539 24.32203901771040222 
	18.67957968710043204 -105.6675485065326257 24.68886775305330161 
	18.67948632798573172 -106.3224415558191254 25.48823755809179303 
	18.67944538393249232 -106.6096557271816749 25.92141521515025104 
	18.67937731834923554 -107.0871272314414142 26.82272592050144766 
	18.6793502020060842 -107.2773468096307568 27.29087896893512877 
	18.67931004656881555 -107.5590357653397575 28.22232362780935944 
	18.67929563587095032 -107.6601269252356587 28.71743103127550256 
	18.67928469566868799 -107.736872562401885 29.48087785370245939 
	18.67928284275743778 -107.7498707369482815 29.74003204368015219 
	18.67928284250324467 -107.749872470364636 30.00002235261667138 
	0.0002350367873756988653 
	cone 83.73585656469575156 -100.0000000000051585 30.00002235174488519 -1 -4.575857379867884549e-13 2.75744589750550962e-13 -2.771116669464390725e-12 7.418191287680897972 2.243421052628168155 1 I I 0 1 7.750000000000003553 forward I I I I 
	sphere 24.99999995940761011 -100.0009010267083909 30.00002235176105003 -10.0000000000000675 -0.4935119672136266122 -0.8631010309647599854 -0.1072499350326375916 -0.2123629481901049276 0 0.9771908607002046665 forward_v I I I I 
	nullbs 
	nullbs 
	I I 
	0 
	0 
	0 
	} I I #
intcurve-curve $-1 forward { exactcur full nubs 1 open 2 
	0 1 0.9567013212499080321 1 
	100.00000000000216 -99.99999999999415934 37.75002235174040521 
	18.68038769375993979 -100.0000000000313776 37.75002235176282994 
	0 
	null_surface 
	null_surface 
	nullbs 
	nullbs 
	I I 
	0 
	0 
	0 
	F 1 F 0 } I I #
point $-1 18.68038769375992558 -100.0000000000313776 37.75002235176282994 #
point $-1 18.67928282433577181 -107.7500000000349161 30.00002235176640752 #
vertex $-1 $65 $72 #
intcurve-curve $-1 forward { exactcur full nurbs 2 open 2 
	0 2 0.5611707963958060263 2 
	15 -100.0000000000364651 30.00002235176383891 1 
	14.99957214155067931 -104.7485658404190616 30.00002235176600607 0.8356368791395250017 
	18.67928282433574338 -107.7500000000349445 30.00002235176637555 0.8557453251417960205 
	0 
	null_surface 
	null_surface 
	nullbs 
	nullbs 
	I I 
	0 
	0 
	0 
	F 1 F 0 } I I #
point $-1 15 -100.0000000000364651 30.00002235176383891 #
End-of-ACIS-data 