600 0 1 0           
82 GICL ACIS Healer - Source: /gicl/data5/repository/SDRC_I-DEAS/bmw/Part61.sat - 6 0 18 ACIS 6.0.3 Solaris 24 Sat Apr 13 23:18:20 2002 
1 9.999999999999999547e-07 1.000000000000000036e-10 
body $-1 $1 $-1 $-1 #
lump $-1 $-1 $2 $0 #
shell $-1 $-1 $-1 $3 $-1 $1 #
face $-1 $4 $5 $2 $-1 $6 forward single #
face $-1 $7 $8 $2 $-1 $9 forward single #
loop $-1 $10 $11 $3 #
plane-surface $-1 164.6863614598214838 4.069322656619078771e-10 -22.49999999999997868 -8.783916425868775088e-17 2.392911821287955583e-16 -1 -1 0 8.783916425868775088e-17 forward_v I I I I #
face $-1 $12 $13 $2 $-1 $14 forward single #
loop $-1 $15 $16 $4 #
plane-surface $-1 164.6863614598215122 4.069029557740577729e-10 62.50000000000004974 6.551746708069785768e-16 -3.031790226365605559e-16 1 1 0 -6.551746708069785768e-16 forward_v I I I I #
loop $-1 $-1 $17 $3 #
coedge $-1 $11 $11 $18 $19 reversed $5 $-1 #
face $-1 $-1 $20 $2 $-1 $21 forward single #
loop $-1 $-1 $18 $7 #
cone-surface $-1 164.6863614598214838 4.06981115474991384e-10 -5.499999999999966249 -8.472380411450180778e-18 -3.320812580692157352e-16 1 -2.872290208296846004 -10.61837788738576016 -3.552713678800500929e-15 1 I I 0 1 11.0000000000000373 forward I I I I #
loop $-1 $-1 $22 $4 #
coedge $-1 $16 $16 $23 $24 reversed $8 $-1 #
coedge $-1 $17 $17 $25 $26 forward $10 $-1 #
coedge $-1 $27 $28 $11 $19 forward $13 $-1 #
edge $-1 $29 0 $29 1 $11 $30 forward 7 unknown #
loop $-1 $-1 $25 $12 #
cone-surface $-1 164.6863614598215406 4.069624637281776813e-10 -5.499999999999971578 -2.229763953379580485e-17 3.787915112897055013e-16 -1 -2.381836678707713872 7.111740577099397775 2.664535259100375697e-15 1 I I 0 -1 7.499999999999965361 forward I I I I #
coedge $-1 $22 $22 $31 $32 forward $15 $-1 #
coedge $-1 $28 $27 $16 $24 forward $13 $-1 #
edge $-1 $33 0 $33 1 $16 $34 forward 7 unknown #
coedge $-1 $35 $36 $17 $26 reversed $20 $-1 #
edge $-1 $37 0 $37 1 $17 $38 forward 7 unknown #
coedge $-1 $23 $18 $28 $39 reversed $13 $-1 #
coedge $-1 $18 $23 $27 $39 forward $13 $-1 #
vertex $-1 $19 $40 #
intcurve-curve $-1 forward { exactcur full nurbs 2 periodic 4 
	0 2 0.3333333333333329818 2 0.6666666666666669627 2 1 2 
	153.6911466654914022 -0.324425070365023771 -22.49999999999997158 1 
	154.2530673713175986 -19.36869573427767932 -22.49999999999998224 0.5 
	170.4649292098996227 -9.359922796163388625 -22.49999999999997868 1 
	186.6767910484817037 0.6488501419508523327 -22.49999999999997868 0.5 
	169.9030085040734832 9.684347867749231398 -22.49999999999997158 1 
	153.1292259596652627 18.71984559354762823 -22.49999999999997158 0.5 
	153.6911466654914022 -0.324425070365023771 -22.49999999999997158 1 
	0 
	null_surface 
	null_surface 
	nullbs 
	nullbs 
	I I 
	0 
	0 
	0 
	F 1 F 0 } I I #
coedge $-1 $36 $35 $22 $32 reversed $20 $-1 #
edge $-1 $41 0 $41 1 $22 $42 forward 7 unknown #
vertex $-1 $24 $43 #
intcurve-curve $-1 forward { exactcur full nurbs 2 periodic 4 
	0 2 0.3333333333333329818 2 0.6666666666666669627 2 1 2 
	153.6911466654914022 -0.3244250703650521928 62.50000000000005684 1 
	153.1292259596653196 18.71984559354760336 62.50000000000006395 0.5 
	169.9030085040734832 9.684347867749210081 62.50000000000004974 1 
	186.6767910484817037 0.6488501419508310164 62.50000000000004974 0.5 
	170.4649292098996227 -9.359922796163417047 62.50000000000004263 1 
	154.2530673713175986 -19.36869573427770774 62.50000000000004974 0.5 
	153.6911466654914022 -0.3244250703650521928 62.50000000000005684 1 
	0 
	null_surface 
	null_surface 
	nullbs 
	nullbs 
	I I 
	0 
	0 
	0 
	F 1 F 0 } I I #
coedge $-1 $31 $25 $36 $44 forward $20 $-1 #
coedge $-1 $25 $31 $35 $44 reversed $20 $-1 #
vertex $-1 $26 $45 #
intcurve-curve $-1 forward { exactcur full nurbs 2 periodic 4 
	0 2 0.3333333333333329818 2 0.6666666666666669627 2 1 2 
	157.1896241000509633 -0.2211989114830288372 -22.49999999999997158 1 
	157.5727518540234371 -13.20592890960529076 -22.49999999999998224 0.5 
	168.6262940166929809 -6.381765542709217698 -22.49999999999997868 1 
	179.6798361793625247 0.4423978241868553596 -22.49999999999997868 0.5 
	168.2431662627206777 6.602964455413037115 -22.49999999999997868 1 
	156.8064963460786601 12.76353108663926861 -22.49999999999997158 0.5 
	157.1896241000509633 -0.2211989114830288372 -22.49999999999997158 1 
	0 
	null_surface 
	null_surface 
	nullbs 
	nullbs 
	I I 
	0 
	0 
	0 
	F 1 F 0 } I I #
edge $-1 $33 0 $29 1 $28 $46 forward 7 unknown #
point $-1 153.6911466654914022 -0.324425070365023771 -22.49999999999997158 #
vertex $-1 $32 $47 #
intcurve-curve $-1 forward { exactcur full nurbs 2 periodic 4 
	0 2 0.3333333333333329818 2 0.6666666666666669627 2 1 2 
	157.1896241000510202 -0.2211989114830572589 62.50000000000005684 1 
	156.8064963460787169 12.76353108663924729 62.50000000000006395 0.5 
	168.2431662627206777 6.602964455413015799 62.50000000000004974 1 
	179.6798361793625247 0.4423978241868269379 62.50000000000004974 0.5 
	168.6262940166929809 -6.38176554270924612 62.50000000000004263 1 
	157.5727518540234371 -13.2059289096053174 62.50000000000005684 0.5 
	157.1896241000510202 -0.2211989114830572589 62.50000000000005684 1 
	0 
	null_surface 
	null_surface 
	nullbs 
	nullbs 
	I I 
	0 
	0 
	0 
	F 1 F 0 } I I #
point $-1 153.6911466654914022 -0.3244250703650521928 62.50000000000005684 #
edge $-1 $37 0 $41 1 $36 $48 forward 7 unknown #
point $-1 157.1896241000509633 -0.2211989114830288372 -22.49999999999997158 #
intcurve-curve $-1 forward { exactcur full nubs 1 open 2 
	0 1 1 1 
	153.6911466654914022 -0.3244250703650521928 62.50000000000005684 
	153.6911466654914022 -0.324425070365023771 -22.49999999999997158 
	0 
	null_surface 
	null_surface 
	nullbs 
	nullbs 
	I I 
	0 
	0 
	0 
	F 1 F 0 } I I #
point $-1 157.1896241000510202 -0.2211989114830572589 62.50000000000005684 #
intcurve-curve $-1 forward { exactcur full nubs 1 open 2 
	0 1 1 1 
	157.1896241000509633 -0.2211989114830288372 -22.49999999999997158 
	157.1896241000510202 -0.2211989114830572589 62.50000000000005684 
	0 
	null_surface 
	null_surface 
	nullbs 
	nullbs 
	I I 
	0 
	0 
	0 
	F 1 F 0 } I I #
End-of-ACIS-data 