600 0 2 0           
24 FBMach with ACIS - 6.0.3 13 ACIS 6.0.3 NT 24 Wed May 23 19:56:29 2001 
1 9.9999999999999995e-007 1e-010 
body $2 $3 $-1 $-1 #
bdycol-kcp $-1 1 1 $4 #
model_id-kcp-attrib $-1 $5 $-1 $0 1 990662189 120 964165633 1 #
lump $-1 $-1 $6 $0 #
body $7 $8 $-1 $9 #
attrib_gssl_step_cc1_details-attrib_gssl_step-attrib $-1 $-1 $2 $0 $10 $11 $12 $13 $14 $15 $16 $17 $18 $19 $20 $21 $22 $23 $24 $25 $26 $27 $28 $29 $30 $31 $32 $33 $34 $35 $36 $37 $38 $39 $40 $41 #
shell $-1 $-1 $-1 $42 $-1 $3 #
model_id-kcp-attrib $-1 $-1 $-1 $4 1 990662189 140 965476354 1 #
lump $-1 $-1 $43 $4 #
transform $-1 1 0 0 0 1 0 0 0 1 57.499962061272583 -98.371496393078175 29.472999319383199 1 no_rotate no_reflect no_shear #
attrib_gssl_step_product_details-attrib_gssl_step-attrib $-1 $-1 $-1 $-1 10 BMW Engine 4 None 7 222-333 6 detail 0  #
attrib_gssl_step_application_details-attrib_gssl_step-attrib $-1 $-1 $-1 $-1 70 configuration controlled 3D designs of mechanical parts and assemblies 22 International Standard 21 config_control_design 1995 #
attrib_gssl_step_mech_con_details-attrib_gssl_step-attrib $-1 $-1 $-1 $-1 4 None 10 mechanical #
attrib_gssl_step_des_con_details-attrib_gssl_step-attrib $-1 $-1 $-1 $-1 15 part_definition 6 design #
attrib_gssl_step_person_details-attrib_gssl_step-attrib $-1 $-1 $-1 $-1 11 person id 0 4 None 4 None 0 0 0 #
attrib_gssl_step_person_details-attrib_gssl_step-attrib $-1 $-1 $-1 $-1 11 person id 6 4 None 4 None 0 0 0 #
attrib_gssl_step_person_details-attrib_gssl_step-attrib $-1 $-1 $-1 $-1 11 person id 7 4 None 4 None 0 0 0 #
attrib_gssl_step_person_details-attrib_gssl_step-attrib $-1 $-1 $-1 $-1 11 person id 1 4 None 4 None 0 0 0 #
attrib_gssl_step_person_details-attrib_gssl_step-attrib $-1 $-1 $-1 $-1 11 person id 2 4 None 4 None 0 0 0 #
attrib_gssl_step_person_details-attrib_gssl_step-attrib $-1 $-1 $-1 $-1 11 person id 3 4 None 4 None 0 0 0 #
attrib_gssl_step_person_details-attrib_gssl_step-attrib $-1 $-1 $-1 $-1 11 person id 4 4 None 4 None 0 0 0 #
attrib_gssl_step_person_details-attrib_gssl_step-attrib $-1 $-1 $-1 $-1 11 person id 5 4 None 4 None 0 0 0 #
attrib_gssl_step_org_details-attrib_gssl_step-attrib $-1 $-1 $-1 $-1 0  4 None 4 None 12 design_owner #
attrib_gssl_step_org_details-attrib_gssl_step-attrib $-1 $-1 $-1 $-1 0  4 None 4 None 7 creator #
attrib_gssl_step_org_details-attrib_gssl_step-attrib $-1 $-1 $-1 $-1 0  4 None 4 None 0  #
attrib_gssl_step_org_details-attrib_gssl_step-attrib $-1 $-1 $-1 $-1 0  4 None 4 None 7 creator #
attrib_gssl_step_org_details-attrib_gssl_step-attrib $-1 $-1 $-1 $-1 0  4 None 4 None 13 part_supplier #
attrib_gssl_step_org_details-attrib_gssl_step-attrib $-1 $-1 $-1 $-1 0  4 None 4 None 0  #
attrib_gssl_step_org_details-attrib_gssl_step-attrib $-1 $-1 $-1 $-1 0  4 None 4 None 0  #
attrib_gssl_step_org_details-attrib_gssl_step-attrib $-1 $-1 $-1 $-1 0  4 None 4 None 22 classification_officer #
attrib_gssl_step_datetime_details-attrib_gssl_step-attrib $-1 $-1 $-1 $-1 2000 23 8 15 58 28 0 0 1 13 creation_date #
attrib_gssl_step_datetime_details-attrib_gssl_step-attrib $-1 $-1 $-1 $-1 2000 23 8 15 58 28 0 0 1 0  #
attrib_gssl_step_datetime_details-attrib_gssl_step-attrib $-1 $-1 $-1 $-1 2000 23 8 15 58 28 0 0 1 0  #
attrib_gssl_step_datetime_details-attrib_gssl_step-attrib $-1 $-1 $-1 $-1 2000 23 8 15 58 28 0 0 1 19 classification_date #
attrib_gssl_step_datetime_details-attrib_gssl_step-attrib $-1 $-1 $-1 $-1 2000 23 8 15 58 28 0 0 1 0  #
attrib_gssl_step_security_details-attrib_gssl_step-attrib $-1 $-1 $-1 $-1 4 None 4 None 12 unclassified #
attrib_gssl_step_approval_details-attrib_gssl_step-attrib $-1 $-1 $-1 $-1 4 None 8 approved 4 none 0  #
attrib_gssl_step_approval_details-attrib_gssl_step-attrib $-1 $-1 $-1 $-1 4 None 8 approved 4 none 0  #
attrib_gssl_step_approval_details-attrib_gssl_step-attrib $-1 $-1 $-1 $-1 4 None 8 approved 4 none 0  #
attrib_gssl_step_product_def_form_details-attrib_gssl_step-attrib $-1 $-1 $-1 $-1 4 None 0  0 #
attrib_gssl_step_product_def_details-attrib_gssl_step-attrib $-1 $-1 $-1 $-1 4 None 4 None #
attrib_gssl_step_product_def_spec_details-attrib_gssl_step-attrib $-1 $-1 $-1 $-1 4 None 4 None #
face $44 $45 $46 $6 $-1 $47 forward single #
shell $-1 $-1 $-1 $48 $-1 $8 #
model_id-kcp-attrib $-1 $-1 $-1 $42 1 990662189 120 964165633 2 #
face $49 $50 $51 $6 $-1 $52 forward single #
loop $-1 $-1 $53 $42 #
spline-surface $-1 forward { exactsur full nubs 1 1 open open none none 2 2 
	0 1 1 1 
	0 1 1 1 
	99.999999999998536 -91.862498242194818 38.137526658186317 
	100.00000000000598 -108.13750179463165 38.137526658193764 
	99.999999999994046 -91.862498242202264 21.862523105749482 
	100.00000000000149 -108.13750179463909 21.862523105756928 
	0 
	0 
	0 
	0 
	0 
	0 
	0 
	F 1 F 0 F 1 F 0 } I I I I #
face $-1 $54 $55 $43 $-1 $56 forward single #
model_id-kcp-attrib $-1 $-1 $-1 $45 1 990662189 120 964165633 3 #
face $57 $-1 $58 $6 $-1 $59 reversed single #
loop $-1 $-1 $60 $45 #
spline-surface $-1 forward { exactsur full nurbs 2 1 both periodic open none none 4 2 
	0 2 0.33333333333333298 2 0.66666666666666696 2 1 2 
	0 1 1 1 
	100.00000000000216 -99.999999999994159 37.750022351740405 1 
	99.999999999996007 -86.576606241335341 37.750022351734245 0.5 
	99.999999999995879 -93.288303120670079 26.125022351737321 1 
	99.999999999995737 -100.0000000000048 14.500022351740398 0.5 
	100.00000000000202 -106.71169687932888 26.125022351743475 1 
	100.0000000000083 -113.42339375865296 37.750022351746537 0.5 
	100.00000000000216 -99.999999999994159 37.750022351740405 1 
	15.000000000002146 -100.00000000003305 37.750022351763846 1 
	14.999999999995993 -86.576606241374236 37.750022351757679 0.5 
	14.999999999995865 -93.288303120708974 26.125022351760762 1 
	14.999999999995723 -100.0000000000437 14.500022351763839 0.5 
	15.000000000002004 -106.71169687936778 26.125022351766916 1 
	15.000000000008285 -113.42339375869186 37.750022351769985 0.5 
	15.000000000002146 -100.00000000003305 37.750022351763846 1 
	0 
	0 
	0 
	0 
	0 
	0 
	0 
	F 1 F 0 F 1 F 0 } I I I I #
tcoedge-coedge $-1 $53 $53 $61 $62 reversed $46 $63 -1 0 #
face $-1 $64 $65 $43 $-1 $66 reversed single #
loop $-1 $-1 $67 $48 #
plane-surface $-1 0 0 14.973327352186894 0 0 1 1 0 0 forward_v I I I I #
model_id-kcp-attrib $-1 $-1 $-1 $50 1 990662189 120 964165633 4 #
loop $-1 $-1 $68 $50 #
spline-surface $-1 forward { exactsur full nurbs 2 2 both periodic open none high 4 2 
	0 2 0.33333333333333298 2 0.66666666666666696 2 1 2 
	0.37826075741188597 2 1 2 
	19.482477331505507 -108.34098160489165 30.000022351766429 0.86223500521121199 
	19.482477331501485 -108.34098160489827 15.553718031962745 0.431117502605606 
	19.483604593946978 -95.830115123928792 22.776870191858862 0.86223500521121199 
	19.484731856392401 -83.319248642959295 30.000022351754961 0.431117502605606 
	19.483604593950957 -95.830115123922184 37.223174511662535 0.86223500521121199 
	19.482477331509457 -108.34098160488503 44.446326671570091 0.431117502605606 
	19.482477331505507 -108.34098160489165 30.000022351766429 0.86223500521121199 
	14.999515679977009 -105.37520182369511 30.000022351766312 0.81789679197573095 
	14.999515679974436 -105.37520182369937 20.689899654460518 0.40894839598786598 
	15.000242160010217 -97.312399088209247 25.344961003109724 0.81789679197573095 
	15.000968640045969 -89.249596352719095 30.000022351758915 0.40894839598786598 
	15.000242160012789 -97.312399088204984 34.655083700415496 0.81789679197573095 
	14.999515679979567 -105.37520182369084 39.310145049072077 0.40894839598786598 
	14.999515679977009 -105.37520182369511 30.000022351766312 0.81789679197573095 
	15 -100.00000000003645 30.000022351763839 1 
	15 -100.00000000003644 30.000022351763828 0.5 
	15 -100.00000000003644 30.000022351763828 1 
	15 -100.00000000003642 30.000022351763835 0.5 
	15 -100.00000000003644 30.000022351763842 1 
	15 -100.00000000003644 30.000022351763846 0.5 
	15 -100.00000000003645 30.000022351763839 1 
	0 
	0 
	0 
	0 
	0 
	0 
	0 
	F 1 F 0 F 1 F 0 } I I I I #
tcoedge-coedge $-1 $69 $70 $68 $71 forward $51 $72 0 1 #
tcoedge-coedge $-1 $70 $73 $53 $62 forward $51 $74 0 1 #
tedge-edge $-1 $75 0 $75 1 $53 $76 forward 7 unknown 0.00035038454409533245 #
pcurve $-1 0 forward { exppc nubs 2 periodic 31 
	-1 2 -0.95833333333333337 2 -0.91666666666666674 2 -0.875 2 -0.85416666666666674 2 
	-0.83333333333333337 2 -0.8125 2 -0.79166666666666674 2 -0.75 2 -0.70833333333333337 2 
	-0.66666666666666674 2 -0.625 2 -0.58333333333333337 2 -0.54166666666666674 2 -0.52083333333333337 2 
	-0.5 2 -0.47916666666666669 2 -0.45833333333333337 2 -0.41666666666666669 2 -0.375 2 
	-0.33333333333333337 2 -0.29166666666666669 2 -0.25 2 -0.20833333333333331 2 -0.18749999999999997 2 
	-0.16666666666666663 2 -0.14583333333333331 2 -0.12499999999999997 2 -0.083333333333333315 2 -0.041666666666666657 2 
	0 2 
	0.49999999886824908 0.023809783217627091 
	0.55498572678902258 0.023809783217627001 
	0.60852446186977638 0.036341108803145374 
	0.66801194529283592 0.050264803898165733 
	0.72205774624060504 0.078754826169515041 
	0.78042721126419612 0.10952405022257244 
	0.82823112982388913 0.15500508985784933 
	0.85287232495774945 0.17844892472139215 
	0.87393143874397794 0.20515689389302955 
	0.89520991829881313 0.23214307107687171 
	0.91239295827405342 0.26190496934247492 
	0.92957599824929382 0.29166686760807842 
	0.94230747346411148 0.32358766004839451 
	0.95490769635712547 0.35517937215427087 
	0.96289005534415129 0.38824119055157785 
	0.9783758317789818 0.45238111824235461 
	0.97583802895186922 0.51831516978461878 
	0.97348821151935749 0.5793652175089371 
	0.95580274347466365 0.6378447369080239 
	0.93988582223443951 0.69047630436720109 
	0.91239295827405276 0.73809534159217005 
	0.88490009431366556 0.78571437881713968 
	0.84727828047313603 0.82581462069079814 
	0.80547626509477066 0.87037044499486238 
	0.75378028157951293 0.90293047044783314 
	0.69794861938303532 0.93809529793704116 
	0.63465892438851179 0.95675418599253947 
	0.60203537026762222 0.96637216952630189 
	0.56837603358838251 0.97125591246054355 
	0.53436607881873666 0.97619052771701653 
	0.49999999886824953 0.97619052771701653 
	0.46563391891776085 0.97619052771701653 
	0.4316239641481156 0.97125591246054377 
	0.39796462746887717 0.96637216952630234 
	0.36534107334798704 0.95675418599253992 
	0.30205137835346285 0.93809529793704149 
	0.24621971615698537 0.9029304704478337 
	0.1945237326417272 0.87037044499486271 
	0.15272171726336167 0.82581462069079847 
	0.11509990342283055 0.78571437881713835 
	0.087607039462444747 0.73809534159217127 
	0.060114175502060309 0.69047630436720642 
	0.044197254261834601 0.63784473690802457 
	0.026511786217140079 0.57936521750893621 
	0.024161968784628424 0.51831516978462011 
	0.021624165957515581 0.45238111824235233 
	0.03710994239234526 0.38824119055157896 
	0.045092301379370828 0.35517937215427325 
	0.057692524272385672 0.32358766004839484 
	0.070423999487201683 0.29166686760808291 
	0.087607039462444344 0.26190496934247537 
	0.10479007943768522 0.23214307107687099 
	0.12606855899251959 0.20515689389302985 
	0.14712767277874672 0.17844892472139415 
	0.17176886791260851 0.15500508985784991 
	0.21957278647230216 0.10952405022257229 
	0.27794225149589241 0.078754826169515207 
	0.33198805244366209 0.050264803898165636 
	0.39147553586672101 0.036341108803145367 
	0.44501427094747387 0.023809783217627167 
	0.49999999886824908 0.023809783217627091 
	0.001 
	spline forward { ref 0 } I I I I 
	} 0 0 #
face $-1 $77 $78 $43 $-1 $79 reversed single #
loop $-1 $-1 $80 $54 #
plane-surface $-1 0 0 -14.973327352186894 0 0 1 1 0 0 forward_v I I I I #
coedge $-1 $81 $82 $83 $84 forward $55 $-1 #
tcoedge-coedge $-1 $85 $86 $60 $71 reversed $58 $87 -1 0 #
tcoedge-coedge $-1 $73 $60 $85 $88 forward $51 $89 0 1 #
coedge $-1 $60 $61 $73 $90 forward $51 $91 #
tedge-edge $-1 $92 0 $93 1 $60 $94 forward 7 unknown 3.9201037238618472e-005 #
pcurve $-1 0 forward { exppc nubs 2 open 7 
	0 2 0.16666666666666666 2 0.33333333333333331 2 0.5 2 0.66666666666666663 2 
	0.83333333333333337 2 1 2 
	1 0.95670132124990848 
	0.97496605563017469 0.95670310964951333 
	0.95296602910015693 0.95670468130910358 
	0.93095180135667999 0.95670631595875699 
	0.91081089268747939 0.95670781150653439 
	0.88821137588890797 0.95670945639028093 
	0.87138352712948763 0.95671050996427343 
	0.85118914034349547 0.95671177431335397 
	0.83334545897244428 0.95671257783627328 
	0.8139807916699402 0.95671344985119844 
	0.79530601025235281 0.95671387741958236 
	0.77598805709687402 0.95671431971372467 
	0.75598306414370831 0.95671431971373855 
	0.001 
	spline forward { ref 1 } I I I I 
	} 0 0 #
coedge $-1 $61 $69 $70 $90 reversed $51 $95 #
pcurve $-1 0 forward { exppc nubs 2 periodic 31 
	0 2 0.041666666666666664 2 0.083333333333333329 2 0.125 2 0.14583333333333331 2 
	0.16666666666666666 2 0.1875 2 0.20833333333333331 2 0.25 2 0.29166666666666663 2 
	0.33333333333333331 2 0.375 2 0.41666666666666663 2 0.45833333333333331 2 0.47916666666666663 2 
	0.5 2 0.52083333333333326 2 0.54166666666666663 2 0.58333333333333326 2 0.625 2 
	0.66666666666666663 2 0.70833333333333326 2 0.75 2 0.79166666666666674 2 0.8125 2 
	0.83333333333333337 2 0.85416666666666674 2 0.875 2 0.91666666666666674 2 0.95833333333333337 2 
	1 2 
	0 0 
	0.022038567493113028 0 
	0.04166666666666681 0 
	0.063455657492354794 0 
	0.083333333333333315 0 
	0.10478547854788217 0 
	0.12500000000005212 0 
	0.13549700085692357 0 
	0.1458333333333332 0 
	0.15627705627705613 0 
	0.16666666666666649 0 
	0.17705627705627697 0 
	0.1875 0 
	0.19783633247640969 0 
	0.20833333333328116 0 
	0.2285478547854512 0 
	0.25000000000000011 0 
	0.26987767584097866 0 
	0.29166666666666669 0 
	0.31129476584022059 0 
	0.3333333333333337 0 
	0.35537190082644643 0 
	0.375 0 
	0.39678899082568808 0 
	0.41666666666666674 0 
	0.43811881188121571 0 
	0.45833333333338561 0 
	0.46883033419025705 0 
	0.47916666666666657 0 
	0.48961038961038961 0 
	0.5 0 
	0.51038961038961017 0 
	0.52083333333333304 0 
	0.53116966580974267 0 
	0.54166666666661423 0 
	0.56188118811878429 0 
	0.58333333333333315 0 
	0.60321100917431192 0 
	0.625 0 
	0.64462809917355357 0 
	0.66666666666666663 0 
	0.68870523415977947 0 
	0.70833333333333315 0 
	0.73012232415902145 0 
	0.75000000000000011 0 
	0.77145214521454908 0 
	0.79166666666671903 0 
	0.80216366752359036 0 
	0.81249999999999989 0 
	0.82294372294372287 0 
	0.83333333333333337 0 
	0.84372294372294387 0 
	0.85416666666666674 0 
	0.86450299914307638 0 
	0.87499999999994771 0 
	0.89521452145211766 0 
	0.91666666666666674 0 
	0.9365443425076454 0 
	0.95833333333333359 0 
	0.97796143250688716 0 
	1 0 
	0.001 
	spline forward { ref 1 } I I I I 
	} 0 0 #
tvertex-vertex $-1 $62 $96 2.0097183471152322e-014 #
intcurve-curve $-1 forward { exactcur full nurbs 2 periodic 4 
	0 2 0.33333333333333298 2 0.66666666666666696 2 1 2 
	100.00000000000216 -99.999999999994159 37.750022351740405 1 
	99.999999999996007 -86.576606241335341 37.750022351734245 0.5 
	99.999999999995879 -93.288303120670079 26.125022351737321 1 
	99.999999999995737 -100.0000000000048 14.500022351740398 0.5 
	100.00000000000202 -106.71169687932888 26.125022351743475 1 
	100.0000000000083 -113.42339375865296 37.750022351746537 0.5 
	100.00000000000216 -99.999999999994159 37.750022351740405 1 
	0 
	null_surface 
	null_surface 
	nullbs 
	nullbs 
	I I 
	0 
	0 
	0 
	F 1 F 0 } I I #
face $-1 $97 $98 $43 $-1 $99 reversed single #
loop $-1 $-1 $100 $64 #
plane-surface $-1 0 -15.05224775011888 0 0 1 0 0 0 1 forward_v I I I I #
coedge $-1 $101 $102 $103 $104 forward $65 $-1 #
coedge $-1 $105 $67 $106 $107 forward $55 $-1 #
coedge $-1 $67 $105 $108 $109 forward $55 $-1 #
coedge $-1 $110 $111 $67 $84 reversed $112 $-1 #
edge $-1 $113 -15.05224775011888 $114 15.05224775011888 $83 $115 forward 7 unknown #
tcoedge-coedge $-1 $116 $68 $69 $88 reversed $58 $117 -1 0 #
tcoedge-coedge $-1 $68 $116 $116 $118 forward $58 $119 0 0.56117079639580603 #
pcurve $-1 0 forward { exppc nubs 2 open 7 
	-1 2 -0.83333333333333337 2 -0.66666666666666674 2 -0.5 2 -0.33333333333333337 2 
	-0.16666666666666663 2 0 2 
	1 0.43882920360419458 
	0.97494611431775446 0.43882783190384489 
	0.95293055333011667 0.4388266265517855 
	0.93085813146104668 0.43882574528052787 
	0.91066729679623604 0.43882493913418086 
	0.90384953069189289 0.43882416780588357 
	0.87128830284162195 0.43881932926890876 
	0.83899174459483494 0.43881453006154691 
	0.83320923238797773 0.4388131741890659 
	0.8021945729364468 0.438805901930298 
	0.79527076255309714 0.4388045307216642 
	0.77613532267751451 0.43880108670057139 
	0.75597644466436864 0.43879745847976559 
	0.001 
	spline reversed { ref 2 } I I I I 
	} 0 0 #
tedge-edge $-1 $93 0 $92 1 $69 $120 forward 7 unknown 0.00033569492990555283 #
pcurve $-1 0 forward { exppc nubs 2 open 19 
	0 2 0.083333333333333329 2 0.125 2 0.16666666666666666 2 0.20833333333333331 2 
	0.25 2 0.33333333333333331 2 0.41666666666666663 2 0.45833333333333331 2 0.5 2 
	0.58333333333333326 2 0.625 2 0.66666666666666663 2 0.70833333333333326 2 0.75 2 
	0.83333333333333337 2 0.875 2 0.91666666666666674 2 1 2 
	0.75598306414370831 0.95671431971373855 
	0.72671768963911976 0.95671431971378107 
	0.69111872200096658 0.9567133343784453 
	0.67086433581016824 0.95671277376202535 
	0.65430290822338311 0.95671212936882177 
	0.6367707725810936 0.95671144720615975 
	0.61961782901425366 0.95671051527410234 
	0.60382381811920061 0.95670965717386558 
	0.58765232993257621 0.95670854886551016 
	0.57312889899287367 0.95670755350609715 
	0.55732669844511229 0.95670628828336202 
	0.52802545398470269 0.95670374921280854 
	0.49983588950470798 0.95670130647379126 
	0.46200613732954332 0.95669789938069016 
	0.44226695220554457 0.9566963213313513 
	0.42658872373265211 0.95669506793515557 
	0.41215887279369606 0.95669408001031564 
	0.39591125843123148 0.9566929676340783 
	0.38003489197201351 0.9566921071870671 
	0.34877582104983507 0.95669041304787983 
	0.30914151951070168 0.95668931303151228 
	0.29125556373542444 0.95668881662183147 
	0.27546674901983836 0.95668857264791674 
	0.25915630857139582 0.95668832061377485 
	0.24403152477204973 0.95668832048024055 
	0.22894786140115608 0.95668832034711404 
	0.21434727391831696 0.95668856996006779 
	0.19996122949760653 0.95668881590525467 
	0.18547283221673566 0.95668931414910374 
	0.15911987338342509 0.9566902204051374 
	0.12856031833588499 0.95669213492317418 
	0.11413028638811148 0.9566931056441621 
	0.09917206753679185 0.95669411189674947 
	0.084283355817333913 0.9566952028076583 
	0.068535038848579241 0.95669635670270992 
	0.037314869003706855 0.95669861823213098 
	0 0.95670132124990848 
	0.001 
	spline forward { ref 1 } I I I I 
	} 0 0 #
edge $-1 $75 0 $92 0.95670132124990803 $70 $121 forward 7 unknown #
pcurve $-1 0 forward { exppc nubs 2 open 7 
	0 2 0.15945022020831801 2 0.31890044041663601 2 0.47835066062495402 2 0.63780088083327202 2 
	0.79725110104159003 2 0.95670132124990803 2 
	1 0 
	1 0.079725110104159017 
	1 0.15945022020831803 
	1 0.23917533031247706 
	1 0.31890044041663607 
	1 0.39862555052079507 
	1 0.47835066062495413 
	1 0.55807577072911319 
	1 0.63780088083327224 
	1 0.71752599093743119 
	1 0.79725110104159025 
	1 0.87697621114574931 
	1 0.95670132124990825 
	0.001 
	spline forward { ref 1 } I I I I 
	} 0 0 #
tvertex-vertex $-1 $88 $122 4.0194366942304644e-014 #
tvertex-vertex $-1 $118 $123 5.136098584586421e-014 #
intcurve-curve $-1 forward { exactcur full nubs 3 open 4 
	0 3 0.35685364989481499 2 0.67470053594702695 2 1 3 
	18.680387693759926 -100.00000000003138 37.75002235176283 
	18.680180265755823 -101.45485655128795 37.750022351763498 
	18.679976902169244 -102.8812817314071 37.34063158233662 
	18.67964406887144 -105.21592150047273 35.877229717620111 
	18.679514468897651 -106.12503463155893 34.922679732196059 
	18.6793312985764 -107.4099487956862 32.630850960438956 
	18.679282824336127 -107.75000000003431 31.326021150852075 
	18.679282824335772 -107.75000000003492 30.000022351766404 
	0 
	null_surface 
	null_surface 
	nullbs 
	nullbs 
	I I 
	0 
	2 0.35685364989481499 0.67470053594702695 
	0 
	F 1 F 0 } I I #
pcurve $-1 0 forward { exppc nubs 2 open 7 
	-0.95670132124990803 2 -0.79725110104159003 2 -0.63780088083327213 2 -0.47835066062495402 2 -0.31890044041663607 2 
	-0.15945022020831798 2 0 2 
	0 0.95670132124990825 
	0 0.87697621114574931 
	0 0.79725110104159025 
	0 0.71752599093743119 
	0 0.63780088083327224 
	0 0.55807577072911319 
	0 0.47835066062495413 
	0 0.39862555052079512 
	0 0.31890044041663612 
	0 0.23917533031247706 
	0 0.15945022020831803 
	0 0.079725110104159017 
	0 0 
	0.001 
	spline forward { ref 1 } I I I I 
	} 0 0 #
point $-1 100.00000000000216 -99.999999999994159 37.750022351740405 #
face $-1 $124 $125 $43 $-1 $126 reversed single #
loop $-1 $-1 $127 $77 #
plane-surface $-1 -42.500446381298147 0 0 1 0 0 0 0 -1 forward_v I I I I #
coedge $-1 $128 $108 $129 $130 forward $78 $-1 #
coedge $-1 $131 $80 $128 $132 forward $65 $-1 #
coedge $-1 $80 $131 $133 $134 forward $65 $-1 #
coedge $-1 $111 $110 $80 $104 reversed $112 $-1 #
edge $-1 $135 -15.05224775011888 $136 15.05224775011888 $103 $137 forward 7 unknown #
coedge $-1 $82 $81 $138 $139 forward $55 $-1 #
coedge $-1 $140 $141 $81 $107 reversed $125 $-1 #
edge $-1 $114 -42.500446381298147 $142 42.500446381298147 $106 $143 forward 7 unknown #
coedge $-1 $100 $144 $82 $109 reversed $78 $-1 #
edge $-1 $145 -42.500446381298147 $113 42.500446381298147 $108 $146 forward 7 unknown #
coedge $-1 $103 $83 $144 $147 forward $112 $-1 #
coedge $-1 $83 $103 $140 $148 reversed $112 $-1 #
loop $-1 $-1 $110 $124 #
vertex $-1 $84 $149 #
vertex $-1 $84 $150 #
straight-curve $-1 42.500446381298147 0 14.973327352186894 0 1 0 I I #
tcoedge-coedge $-1 $86 $85 $86 $118 reversed $58 $151 -0.56117079639580603 0 #
pcurve $-1 0 forward { exppc nubs 2 open 19 
	-1 2 -0.91666666666666674 2 -0.875 2 -0.83333333333333337 2 -0.75 2 
	-0.70833333333333337 2 -0.66666666666666674 2 -0.625 2 -0.58333333333333337 2 -0.5 2 
	-0.45833333333333337 2 -0.41666666666666669 2 -0.33333333333333337 2 -0.25 2 -0.20833333333333331 2 
	-0.16666666666666663 2 -0.12499999999999997 2 -0.083333333333333315 2 0 2 
	0.75597644466436864 0.43879745847976559 
	0.72594335102658936 0.43878895916217775 
	0.69112300614213729 0.43877910506012419 
	0.67313820647411937 0.43877924215280628 
	0.65451909104185146 0.43877938408068545 
	0.6481617039147769 0.4387792074608341 
	0.61968498689523455 0.43877311448097889 
	0.60094313108012187 0.43876910440670197 
	0.55753723156929869 0.43876802463489145 
	0.54276062437208172 0.43876672067024391 
	0.52841099831619853 0.43876545438463227 
	0.51455766294969041 0.43876458183561079 
	0.49998638911077459 0.43876491971689707 
	0.48578082401506267 0.43876546192967453 
	0.47143615510744796 0.4387660094519108 
	0.45717142615865325 0.43876212934284636 
	0.44248439060996375 0.43875813436334371 
	0.41979831540972234 0.43875363313181648 
	0.38082352046574497 0.43877121754310661 
	0.36621302907773567 0.4387778094158859 
	0.34602709341391419 0.43877870013824494 
	0.32164781112965135 0.43877977589577505 
	0.30940580361931175 0.43878152192518072 
	0.27437729909252928 0.4387898221449531 
	0.24419947723812166 0.43879697296560694 
	0.21783599473520382 0.43880113834085221 
	0.1856843286728071 0.43880918802639451 
	0.17343168211784166 0.43881225567310311 
	0.157144849623816 0.43881411206709114 
	0.14564011416187084 0.43881542339155982 
	0.12862751507608983 0.43881826215485403 
	0.11425436111598763 0.43882074742024546 
	0.099358358787757964 0.4388233230914696 
	0.086111907920243244 0.43882561817607135 
	0.068547883387736555 0.43882586426463549 
	0.037322399951056573 0.43882738542746269 
	0 0.43882920360419458 
	0.001 
	spline reversed { ref 2 } I I I I 
	} 0 0 #
tedge-edge $-1 $152 0 $93 0.56117079639580603 $86 $153 forward 7 unknown 1.2554991373608561e-010 #
pcurve $-1 0 forward { exppc nubs 2 open 7 
	0 2 0.093528466065967666 2 0.18705693213193533 2 0.28058539819790301 2 0.37411386426387067 2 
	0.46764233032983837 2 0.56117079639580603 2 
	1 1 
	1 0.95204495946687562 
	1 0.90647153393403102 
	1 0.85871699440611149 
	1 0.81294306786806381 
	1 0.7654179856088037 
	1 0.7194146018020966 
	0.99999999999999989 0.67214326044180828 
	1 0.62588613573613017 
	1 0.57888577195680235 
	1 0.5323576696701624 
	1 0.48563660976939055 
	1 0.43882920360419453 
	0.001 
	spline reversed { ref 2 } I I I I 
	} 0 0 #
intcurve-curve $-1 forward { exactcur full nubs 3 open 9 
	0 3 0.106717059112205 2 0.23289841532126199 2 0.35111259387606297 2 0.47739736976570402 2 
	0.63021873854613097 2 0.74522086101266205 2 0.86662447566678902 2 1 3 
	18.679282824335772 -107.75000000003492 30.000022351766404 
	18.679282824335402 -107.75000000003551 28.698381596324264 
	18.67932954078411 -107.42227915133634 27.414488304612494 
	18.679525628362356 -106.04675124293054 24.911431263713176 
	18.679687367146002 -104.91218526898221 23.808319318704516 
	18.68006847232617 -102.23898040726195 22.439619560278647 
	18.680275619261124 -100.78604794044512 22.154222515473123 
	18.680702604511197 -97.791307600378317 22.410929043979721 
	18.680911867798386 -96.323689259038474 23.004088278431556 
	18.681290874001988 -93.665711798015934 25.157725991414079 
	18.681430439836049 -92.686999678451031 26.821706875949047 
	18.681510908244505 -92.122708356785779 30.060557419533446 
	18.681490658018163 -92.26471178564239 31.491334533874888 
	18.681340588300202 -93.317097799097496 34.198347271340651 
	18.681208179144306 -94.245610796375871 35.400246974342188 
	18.680847830071798 -96.772764545923906 37.233163784080169 
	18.680620982015952 -98.363765061003249 37.750022351762077 
	18.680387693759926 -100.00000000003138 37.75002235176283 
	0 
	null_surface 
	null_surface 
	nullbs 
	nullbs 
	I I 
	0 
	7 0.106717059112205 0.23289841532126199 0.35111259387606297 0.47739736976570402 0.63021873854613097 0.74522086101266205 0.86662447566678902 
	0 
	F 1 F 0 } I I #
intcurve-curve $-1 forward { exactcur full nubs 1 open 2 
	0 1 0.95670132124990803 1 
	100.00000000000216 -99.999999999994159 37.750022351740405 
	18.68038769375994 -100.00000000003138 37.75002235176283 
	0 
	null_surface 
	null_surface 
	nullbs 
	nullbs 
	I I 
	0 
	0 
	0 
	F 1 F 0 } I I #
point $-1 18.680387693759926 -100.00000000003138 37.75002235176283 #
point $-1 18.679282824335772 -107.75000000003492 30.000022351766408 #
face $-1 $-1 $112 $43 $-1 $154 reversed single #
loop $-1 $-1 $140 $97 #
plane-surface $-1 0 15.05224775011888 0 0 -1 0 0 0 -1 forward_v I I I I #
coedge $-1 $155 $138 $141 $156 forward $98 $-1 #
coedge $-1 $144 $100 $101 $132 reversed $78 $-1 #
coedge $-1 $138 $155 $100 $130 reversed $98 $-1 #
edge $-1 $145 -14.973327352186894 $157 14.973327352186894 $129 $158 forward 7 unknown #
coedge $-1 $102 $101 $155 $159 forward $65 $-1 #
edge $-1 $136 -42.500446381298147 $157 42.500446381298147 $128 $160 forward 7 unknown #
coedge $-1 $141 $140 $102 $134 reversed $125 $-1 #
edge $-1 $161 -42.500446381298147 $135 42.500446381298147 $133 $162 forward 7 unknown #
vertex $-1 $104 $163 #
vertex $-1 $147 $164 #
straight-curve $-1 42.500446381298147 0 -14.973327352186894 0 -1 0 I I #
coedge $-1 $127 $129 $105 $139 reversed $98 $-1 #
edge $-1 $142 -15.05224775011888 $145 15.05224775011888 $138 $165 forward 7 unknown #
coedge $-1 $133 $106 $111 $148 forward $125 $-1 #
coedge $-1 $106 $133 $127 $156 reversed $125 $-1 #
vertex $-1 $107 $166 #
straight-curve $-1 0 15.05224775011888 14.973327352186894 -1 0 0 I I #
coedge $-1 $108 $128 $110 $147 reversed $78 $-1 #
vertex $-1 $139 $167 #
straight-curve $-1 0 -15.05224775011888 14.973327352186894 1 0 0 I I #
edge $-1 $113 -14.973327352186894 $136 14.973327352186894 $110 $168 forward 7 unknown #
edge $-1 $114 -14.973327352186894 $135 14.973327352186894 $111 $169 forward 7 unknown #
point $-1 42.500446381298147 -15.05224775011888 14.973327352186894 #
point $-1 42.500446381298147 15.05224775011888 14.973327352186894 #
pcurve $-1 0 forward { exppc nubs 2 open 7 
	-0.56117079639580603 2 -0.46764233032983837 2 -0.37411386426387072 2 -0.28058539819790301 2 -0.18705693213193536 2 
	-0.093528466065967653 2 0 2 
	0 0.43882920360419453 
	0 0.48563660976939055 
	0 0.5323576696701624 
	0 0.57888577195680235 
	0 0.62588613573613006 
	0 0.67214326044180828 
	0 0.7194146018020966 
	0 0.76541798560880459 
	0 0.81294306786806536 
	0 0.85871699440611238 
	0 0.90647153393403146 
	0 0.95204495946687584 
	0 1 
	0.001 
	spline reversed { ref 2 } I I I I 
	} 0 0 #
tvertex-vertex $-1 $118 $170 1.4210854715202004e-014 #
intcurve-curve $-1 forward { exactcur full nurbs 2 open 2 
	0 2 0.56117079639580603 2 
	15 -100.00000000003647 30.000022351763839 1 
	14.999572141550679 -104.74856584041906 30.000022351766006 0.835636879139525 
	18.679282824335743 -107.75000000003494 30.000022351766376 0.85574532514179602 
	0 
	null_surface 
	null_surface 
	nullbs 
	nullbs 
	I I 
	0 
	0 
	0 
	F 1 F 0 } I I #
plane-surface $-1 42.500446381298147 0 0 -1 0 0 0 0 1 forward_v I I I I #
coedge $-1 $129 $127 $131 $159 reversed $98 $-1 #
edge $-1 $142 -14.973327352186894 $161 14.973327352186894 $141 $171 forward 7 unknown #
vertex $-1 $159 $172 #
straight-curve $-1 -42.500446381298147 -15.05224775011888 0 0 0 -1 I I #
edge $-1 $157 -15.05224775011888 $161 15.05224775011888 $155 $173 forward 7 unknown #
straight-curve $-1 0 -15.05224775011888 -14.973327352186894 -1 0 0 I I #
vertex $-1 $134 $174 #
straight-curve $-1 0 15.05224775011888 -14.973327352186894 1 0 0 I I #
point $-1 42.500446381298147 15.05224775011888 -14.973327352186894 #
point $-1 42.500446381298147 -15.05224775011888 -14.973327352186894 #
straight-curve $-1 -42.500446381298147 0 14.973327352186894 0 -1 0 I I #
point $-1 -42.500446381298147 15.05224775011888 14.973327352186894 #
point $-1 -42.500446381298147 -15.05224775011888 14.973327352186894 #
straight-curve $-1 42.500446381298147 -15.05224775011888 0 0 0 -1 I I #
straight-curve $-1 42.500446381298147 15.05224775011888 0 0 0 -1 I I #
point $-1 15 -100.00000000003647 30.000022351763839 #
straight-curve $-1 -42.500446381298147 15.05224775011888 0 0 0 -1 I I #
point $-1 -42.500446381298147 -15.05224775011888 -14.973327352186894 #
straight-curve $-1 -42.500446381298147 0 -14.973327352186894 0 1 0 I I #
point $-1 -42.500446381298147 15.05224775011888 -14.973327352186894 #
End-of-ACIS-data 