600 0 1 0           
7 Unknown 16 ACIS 6.0 Solaris 24 Thu Aug 24 19:05:23 2000 
-1 9.999999999999999547e-07 1.000000000000000036e-10 
body $1 $2 $-1 $-1 #
attrib_gssl_step_cc1_details-attrib_gssl_step-attrib $-1 $-1 $-1 $0 $3 $4 $5 $6 $7 $8 $9 $10 $11 $12 $13 $14 $15 $16 $17 $18 $19 $20 $21 $22 $23 $24 $25 $26 $27 $28 $29 $30 $31 $32 $33 $34 #
lump $-1 $-1 $35 $0 #
attrib_gssl_step_product_details-attrib_gssl_step-attrib $-1 $-1 $-1 $-1 10 BMW Engine 4 None 7 222-333 6 detail 0  #
attrib_gssl_step_application_details-attrib_gssl_step-attrib $-1 $-1 $-1 $-1 70 configuration controlled 3D designs of mechanical parts and assemblies 22 International Standard 21 config_control_design 1995 #
attrib_gssl_step_mech_con_details-attrib_gssl_step-attrib $-1 $-1 $-1 $-1 4 None 10 mechanical #
attrib_gssl_step_des_con_details-attrib_gssl_step-attrib $-1 $-1 $-1 $-1 15 part_definition 6 design #
attrib_gssl_step_person_details-attrib_gssl_step-attrib $-1 $-1 $-1 $-1 11 person id 0 4 None 4 None 0 0 0 #
attrib_gssl_step_person_details-attrib_gssl_step-attrib $-1 $-1 $-1 $-1 11 person id 6 4 None 4 None 0 0 0 #
attrib_gssl_step_person_details-attrib_gssl_step-attrib $-1 $-1 $-1 $-1 11 person id 7 4 None 4 None 0 0 0 #
attrib_gssl_step_person_details-attrib_gssl_step-attrib $-1 $-1 $-1 $-1 11 person id 1 4 None 4 None 0 0 0 #
attrib_gssl_step_person_details-attrib_gssl_step-attrib $-1 $-1 $-1 $-1 11 person id 2 4 None 4 None 0 0 0 #
attrib_gssl_step_person_details-attrib_gssl_step-attrib $-1 $-1 $-1 $-1 11 person id 3 4 None 4 None 0 0 0 #
attrib_gssl_step_person_details-attrib_gssl_step-attrib $-1 $-1 $-1 $-1 11 person id 4 4 None 4 None 0 0 0 #
attrib_gssl_step_person_details-attrib_gssl_step-attrib $-1 $-1 $-1 $-1 11 person id 5 4 None 4 None 0 0 0 #
attrib_gssl_step_org_details-attrib_gssl_step-attrib $-1 $-1 $-1 $-1 0  4 None 4 None 12 design_owner #
attrib_gssl_step_org_details-attrib_gssl_step-attrib $-1 $-1 $-1 $-1 0  4 None 4 None 7 creator #
attrib_gssl_step_org_details-attrib_gssl_step-attrib $-1 $-1 $-1 $-1 0  4 None 4 None 0  #
attrib_gssl_step_org_details-attrib_gssl_step-attrib $-1 $-1 $-1 $-1 0  4 None 4 None 7 creator #
attrib_gssl_step_org_details-attrib_gssl_step-attrib $-1 $-1 $-1 $-1 0  4 None 4 None 13 part_supplier #
attrib_gssl_step_org_details-attrib_gssl_step-attrib $-1 $-1 $-1 $-1 0  4 None 4 None 0  #
attrib_gssl_step_org_details-attrib_gssl_step-attrib $-1 $-1 $-1 $-1 0  4 None 4 None 0  #
attrib_gssl_step_org_details-attrib_gssl_step-attrib $-1 $-1 $-1 $-1 0  4 None 4 None 22 classification_officer #
attrib_gssl_step_datetime_details-attrib_gssl_step-attrib $-1 $-1 $-1 $-1 2000 23 8 15 58 28 0 0 1 13 creation_date #
attrib_gssl_step_datetime_details-attrib_gssl_step-attrib $-1 $-1 $-1 $-1 2000 23 8 15 58 28 0 0 1 0  #
attrib_gssl_step_datetime_details-attrib_gssl_step-attrib $-1 $-1 $-1 $-1 2000 23 8 15 58 28 0 0 1 0  #
attrib_gssl_step_datetime_details-attrib_gssl_step-attrib $-1 $-1 $-1 $-1 2000 23 8 15 58 28 0 0 1 19 classification_date #
attrib_gssl_step_datetime_details-attrib_gssl_step-attrib $-1 $-1 $-1 $-1 2000 23 8 15 58 28 0 0 1 0  #
attrib_gssl_step_security_details-attrib_gssl_step-attrib $-1 $-1 $-1 $-1 4 None 4 None 12 unclassified #
attrib_gssl_step_approval_details-attrib_gssl_step-attrib $-1 $-1 $-1 $-1 4 None 8 approved 4 none 0  #
attrib_gssl_step_approval_details-attrib_gssl_step-attrib $-1 $-1 $-1 $-1 4 None 8 approved 4 none 0  #
attrib_gssl_step_approval_details-attrib_gssl_step-attrib $-1 $-1 $-1 $-1 4 None 8 approved 4 none 0  #
attrib_gssl_step_product_def_form_details-attrib_gssl_step-attrib $-1 $-1 $-1 $-1 4 None 0  0 #
attrib_gssl_step_product_def_details-attrib_gssl_step-attrib $-1 $-1 $-1 $-1 4 None 4 None #
attrib_gssl_step_product_def_spec_details-attrib_gssl_step-attrib $-1 $-1 $-1 $-1 4 None 4 None #
shell $-1 $-1 $-1 $36 $-1 $2 #
face $-1 $37 $38 $35 $-1 $39 forward single #
face $-1 $40 $41 $35 $-1 $42 forward single #
loop $-1 $-1 $43 $36 #
spline-surface $-1 forward { exactsur full nubs 1 1 open open none none 2 2 
	0 1 1 1 
	0 1 1 1 
	99.99999999999853628 -91.86249824219481752 38.13752665818631726 
	100.0000000000059828 -108.1375017946316461 38.13752665819376375 
	99.99999999999404565 -91.86249824220226401 21.86252310574948154 
	100.0000000000014921 -108.1375017946390926 21.86252310575692803 
	0 
	0 
	0 
	0 
	0 
	0 
	0 
	F 1 F 0 F 1 F 0 } I I I I #
face $-1 $-1 $44 $35 $-1 $45 reversed single #
loop $-1 $-1 $46 $37 #
spline-surface $-1 forward { exactsur full nurbs 2 1 both periodic open none none 4 2 
	0 2 0.3333333333333329818 2 0.6666666666666669627 2 1 2 
	0 1 1 1 
	100.00000000000216 -99.99999999999415934 37.75002235174040521 1 
	99.99999999999600675 -86.576606241335341 37.75002235173424481 0.5 
	99.99999999999587885 -93.28830312067007924 26.12502235173732146 1 
	99.99999999999573674 -100.0000000000048033 14.50002235174039811 0.5 
	100.0000000000020179 -106.7116968793288834 26.12502235174347476 1 
	100.0000000000082991 -113.4233937586529635 37.7500223517465372 0.5 
	100.00000000000216 -99.99999999999415934 37.75002235174040521 1 
	15.00000000000214584 -100.0000000000330544 37.75002235176384602 1 
	14.99999999999599254 -86.57660624137423611 37.75002235175767851 0.5 
	14.99999999999586464 -93.28830312070897435 26.12502235176076226 1 
	14.99999999999572253 -100.0000000000436984 14.50002235176383891 0.5 
	15.00000000000200373 -106.7116968793677785 26.12502235176691556 1 
	15.00000000000828493 -113.4233937586918586 37.75002235176998511 0.5 
	15.00000000000214584 -100.0000000000330544 37.75002235176384602 1 
	0 
	0 
	0 
	0 
	0 
	0 
	0 
	F 1 F 0 F 1 F 0 } I I I I #
tcoedge-coedge $-1 $43 $43 $47 $48 reversed $38 $49 -1 -0 #
loop $-1 $-1 $50 $40 #
spline-surface $-1 forward { exactsur full nurbs 2 2 both periodic open none high 4 2 
	0 2 0.3333333333333329818 2 0.6666666666666669627 2 1 2 
	0.3782607574118859728 2 1 2 
	19.48247733150550687 -108.3409816048916525 30.00002235176642884 0.8622350052112119911 
	19.4824773315014852 -108.3409816048982748 15.55371803196274527 0.4311175026056059956 
	19.48360459394697841 -95.83011512392879183 22.77687019185886186 0.8622350052112119911 
	19.48473185639240057 -83.31924864295929467 30.00002235175496068 0.4311175026056059956 
	19.48360459395095745 -95.83011512392218378 37.22317451166253477 0.8622350052112119911 
	19.48247733150945749 -108.3409816048850303 44.44632667157009109 0.4311175026056059956 
	19.48247733150550687 -108.3409816048916525 30.00002235176642884 0.8622350052112119911 
	14.99951567997700863 -105.3752018236951074 30.0000223517663116 0.8178967919757309524 
	14.99951567997443647 -105.3752018236993706 20.68989965446051826 0.4089483959878659758 
	15.00024216001021671 -97.31239908820924711 25.34496100310972366 0.8178967919757309524 
	15.00096864004596853 -89.24959635271909519 30.00002235175891485 0.4089483959878659758 
	15.00024216001278887 -97.31239908820498385 34.65508370041549568 0.8178967919757309524 
	14.99951567997956658 -105.3752018236908441 39.31014504907207652 0.4089483959878659758 
	14.99951567997700863 -105.3752018236951074 30.0000223517663116 0.8178967919757309524 
	15 -100.0000000000364508 30.00002235176383891 1 
	15 -100.0000000000364366 30.00002235176382825 0.5 
	15 -100.0000000000364366 30.00002235176382825 1 
	15 -100.0000000000364224 30.00002235176383536 0.5 
	15 -100.0000000000364366 30.00002235176384247 1 
	15 -100.0000000000364366 30.00002235176384602 0.5 
	15 -100.0000000000364508 30.00002235176383891 1 
	0 
	0 
	0 
	0 
	0 
	0 
	0 
	F 1 F 0 F 1 F 0 } I I I I #
tcoedge-coedge $-1 $51 $52 $50 $53 forward $41 $54 0 1 #
tcoedge-coedge $-1 $52 $55 $43 $48 forward $41 $56 0 1 #
tedge-edge $-1 $57 0 $57 1 $43 $58 forward 7 unknown 0.0003503845440953324533 #
pcurve $-1 0 forward { exppc nubs 2 periodic 31 
	-1 2 -0.9583333333333333703 2 -0.9166666666666667407 2 -0.875 2 -0.8541666666666667407 2 
	-0.8333333333333333703 2 -0.8125 2 -0.7916666666666667407 2 -0.75 2 -0.7083333333333333703 2 
	-0.6666666666666667407 2 -0.625 2 -0.5833333333333333703 2 -0.5416666666666667407 2 -0.5208333333333333703 2 
	-0.5 2 -0.4791666666666666852 2 -0.4583333333333333703 2 -0.4166666666666666852 2 -0.375 2 
	-0.3333333333333333703 2 -0.2916666666666666852 2 -0.25 2 -0.2083333333333333148 2 -0.1874999999999999722 2 
	-0.1666666666666666297 2 -0.1458333333333333148 2 -0.1249999999999999722 2 -0.08333333333333331483 2 -0.04166666666666665741 2 
	-0 2 
	0.4999999988682490848 0.02380978321762709099 
	0.554985726789022582 0.02380978321762700078 
	0.6085244618697763785 0.03634110880314537356 
	0.6680119452928359181 0.05026480389816573302 
	0.7220577462406050362 0.07875482616951504089 
	0.780427211264196119 0.1095240502225724444 
	0.8282311298238891339 0.1550050898578493319 
	0.8528723249577494503 0.1784489247213921492 
	0.8739314387439779397 0.205156893893029546 
	0.8952099182988131343 0.2321430710768717098 
	0.9123929582740534228 0.2619049693424749248 
	0.9295759982492938223 0.2916668676080784173 
	0.942307473464111478 0.3235876600483945098 
	0.9549076963571254684 0.3551793721542708671 
	0.9628900553441512855 0.3882411905515778527 
	0.9783758317789817971 0.4523811182423546073 
	0.9758380289518692186 0.5183151697846187789 
	0.9734882115193574936 0.5793652175089371026 
	0.9558027434746636519 0.6378447369080239016 
	0.9398858222344395053 0.690476304367201088 
	0.9123929582740527566 0.7380953415921700511 
	0.8849000943136655639 0.7857143788171396803 
	0.8472782804731360251 0.8258146206907981401 
	0.8054762650947706604 0.87037044499486238 
	0.7537802815795129341 0.9029304704478331445 
	0.697948619383035318 0.9380952979370411615 
	0.6346589243885117915 0.9567541859925394743 
	0.6020353702676222163 0.966372169526301894 
	0.5683760335883825121 0.9712559124605435468 
	0.5343660788187366562 0.9761905277170165318 
	0.4999999988682495289 0.9761905277170165318 
	0.4656339189177608473 0.9761905277170165318 
	0.431623964148115602 0.9712559124605437688 
	0.3979646274688771745 0.9663721695263023381 
	0.3653410733479870443 0.9567541859925399184 
	0.3020513783534628516 0.9380952979370414946 
	0.2462197161569853743 0.9029304704478336996 
	0.1945237326417272039 0.8703704449948627131 
	0.1527217172633616726 0.8258146206907984732 
	0.1150999034228305518 0.7857143788171383481 
	0.08760703946244474682 0.7380953415921712724 
	0.06011417550206030885 0.6904763043672064171 
	0.04419725426183460093 0.6378447369080245677 
	0.02651178621714007921 0.5793652175089362144 
	0.02416196878462842368 0.5183151697846201111 
	0.02162416595751558146 0.4523811182423523314 
	0.03710994239234526038 0.388241190551578963 
	0.04509230137937082772 0.355179372154273254 
	0.05769252427238567155 0.3235876600483948429 
	0.07042399948720168279 0.2916668676080829137 
	0.08760703946244434437 0.2619049693424753689 
	0.1047900794376852157 0.2321430710768709882 
	0.1260685589925195915 0.2051568938930298514 
	0.1471276727787467209 0.1784489247213941476 
	0.1717688679126085083 0.1550050898578499148 
	0.2195727864723021616 0.1095240502225722917 
	0.2779422514958924118 0.07875482616951520742 
	0.331988052443662085 0.05026480389816563588 
	0.3914755358667210139 0.03634110880314536662 
	0.4450142709474738667 0.02380978321762716732 
	0.4999999988682490848 0.02380978321762709099 
	0.001000000000000000021 
	spline forward { ref 0 } I I I I 
	} 0 0 #
tcoedge-coedge $-1 $59 $60 $46 $53 reversed $44 $61 -1 -0 #
tcoedge-coedge $-1 $55 $46 $59 $62 forward $41 $63 0 1 #
coedge $-1 $46 $47 $55 $64 forward $41 $65 #
tedge-edge $-1 $66 0 $67 1 $46 $68 forward 7 unknown 3.92010372386184723e-05 #
pcurve $-1 0 forward { exppc nubs 2 open 7 
	0 2 0.1666666666666666574 2 0.3333333333333333148 2 0.5 2 0.6666666666666666297 2 
	0.8333333333333333703 2 1 2 
	1 0.9567013212499084762 
	0.9749660556301746883 0.956703109649513328 
	0.9529660291001569306 0.9567046813091035773 
	0.9309518013566799866 0.956706315958756992 
	0.9108108926874793898 0.9567078115065343891 
	0.8882113758889079724 0.9567094563902809323 
	0.8713835271294876339 0.9567105099642734256 
	0.851189140343495465 0.9567117743133539687 
	0.8333454589724442751 0.9567125778362732813 
	0.8139807916699401957 0.9567134498511984386 
	0.795306010252352813 0.9567138774195823592 
	0.7759880570968740177 0.9567143197137246702 
	0.7559830641437083054 0.956714319713738548 
	0.001000000000000000021 
	spline forward { ref 1 } I I I I 
	} 0 0 #
coedge $-1 $47 $51 $52 $64 reversed $41 $69 #
pcurve $-1 0 forward { exppc nubs 2 periodic 31 
	0 2 0.04166666666666666435 2 0.08333333333333332871 2 0.125 2 0.1458333333333333148 2 
	0.1666666666666666574 2 0.1875 2 0.2083333333333333148 2 0.25 2 0.2916666666666666297 2 
	0.3333333333333333148 2 0.375 2 0.4166666666666666297 2 0.4583333333333333148 2 0.4791666666666666297 2 
	0.5 2 0.5208333333333332593 2 0.5416666666666666297 2 0.5833333333333332593 2 0.625 2 
	0.6666666666666666297 2 0.7083333333333332593 2 0.75 2 0.7916666666666667407 2 0.8125 2 
	0.8333333333333333703 2 0.8541666666666667407 2 0.875 2 0.9166666666666667407 2 0.9583333333333333703 2 
	1 2 
	0 0 
	0.02203856749311302807 0 
	0.04166666666666681007 0 
	0.06345565749235479447 0 
	0.08333333333333331483 0 
	0.1047854785478821715 0 
	0.125000000000052125 0 
	0.1354970008569235662 0 
	0.1458333333333332038 0 
	0.1562770562770561256 0 
	0.1666666666666664909 0 
	0.1770562770562769672 0 
	0.1875 0 
	0.1978363324764096931 0 
	0.2083333333332811621 0 
	0.2285478547854511988 0 
	0.250000000000000111 0 
	0.2698776758409786591 0 
	0.2916666666666666852 0 
	0.3112947658402205886 0 
	0.3333333333333337034 0 
	0.3553719008264464296 0 
	0.375 0 
	0.3967889908256880815 0 
	0.4166666666666667407 0 
	0.4381188118812157084 0 
	0.4583333333333856063 0 
	0.4688303341902570476 0 
	0.4791666666666665741 0 
	0.4896103896103896069 0 
	0.5 0 
	0.510389610389610171 0 
	0.5208333333333330373 0 
	0.5311696658097426749 0 
	0.5416666666666142271 0 
	0.5618811881187842916 0 
	0.5833333333333331483 0 
	0.6032110091743119185 0 
	0.625 0 
	0.6446280991735535704 0 
	0.6666666666666666297 0 
	0.6887052341597794669 0 
	0.7083333333333331483 0 
	0.7301223241590214519 0 
	0.750000000000000111 0 
	0.7714521452145490787 0 
	0.7916666666667190322 0 
	0.8021636675235903624 0 
	0.812499999999999889 0 
	0.8229437229437228662 0 
	0.8333333333333333703 0 
	0.8437229437229438744 0 
	0.8541666666666667407 0 
	0.8645029991430763783 0 
	0.8749999999999477085 0 
	0.8952145214521176619 0 
	0.9166666666666667407 0 
	0.9365443425076453998 0 
	0.9583333333333335924 0 
	0.9779614325068871628 0 
	1 0 
	0.001000000000000000021 
	spline forward { ref 1 } I I I I 
	} 0 0 #
tvertex-vertex $-1 $48 $70 2.009718347115232213e-14 #
intcurve-curve $-1 forward { exactcur full nurbs 2 periodic 4 
	0 2 0.3333333333333329818 2 0.6666666666666669627 2 1 2 
	100.00000000000216 -99.99999999999415934 37.75002235174040521 1 
	99.99999999999600675 -86.576606241335341 37.75002235173424481 0.5 
	99.99999999999587885 -93.28830312067007924 26.12502235173732146 1 
	99.99999999999573674 -100.0000000000048033 14.50002235174039811 0.5 
	100.0000000000020179 -106.7116968793288834 26.12502235174347476 1 
	100.0000000000082991 -113.4233937586529635 37.7500223517465372 0.5 
	100.00000000000216 -99.99999999999415934 37.75002235174040521 1 
	0 
	null_surface 
	null_surface 
	nullbs 
	nullbs 
	I I 
	0 
	0 
	0 
	F 1 F 0 } I I #
tcoedge-coedge $-1 $71 $50 $51 $62 reversed $44 $72 -1 -0 #
tcoedge-coedge $-1 $50 $71 $71 $73 forward $44 $74 0 0.5611707963958060263 #
pcurve $-1 0 forward { exppc nubs 2 open 7 
	-1 2 -0.8333333333333333703 2 -0.6666666666666667407 2 -0.5 2 -0.3333333333333333703 2 
	-0.1666666666666666297 2 -0 2 
	1 0.4388292036041945843 
	0.9749461143177544642 0.4388278319038448894 
	0.9529305533301166697 0.4388266265517855036 
	0.9308581314610466784 0.438825745280527868 
	0.9106672967962360365 0.4388249391341808581 
	0.9038495306918928884 0.4388241678058835693 
	0.8712883028416219533 0.4388193292689087643 
	0.8389917445948349428 0.4388145300615469147 
	0.8332092323879777274 0.4388131741890659021 
	0.8021945729364468036 0.4388059019302980035 
	0.7952707625530971436 0.4388045307216641988 
	0.7761353226775145053 0.4388010867005713855 
	0.7559764446643686409 0.4387974584797655897 
	0.001000000000000000021 
	spline reversed { ref 2 } I I I I 
	} 0 0 #
tedge-edge $-1 $67 0 $66 1 $51 $75 forward 7 unknown 0.0003356949299055528302 #
pcurve $-1 0 forward { exppc nubs 2 open 19 
	0 2 0.08333333333333332871 2 0.125 2 0.1666666666666666574 2 0.2083333333333333148 2 
	0.25 2 0.3333333333333333148 2 0.4166666666666666297 2 0.4583333333333333148 2 0.5 2 
	0.5833333333333332593 2 0.625 2 0.6666666666666666297 2 0.7083333333333332593 2 0.75 2 
	0.8333333333333333703 2 0.875 2 0.9166666666666667407 2 1 2 
	0.7559830641437083054 0.956714319713738548 
	0.7267176896391197571 0.9567143197137810695 
	0.6911187220009665788 0.9567133343784453015 
	0.6708643358101682441 0.956712773762025348 
	0.6543029082233831062 0.9567121293688217731 
	0.6367707725810936026 0.9567114472061597485 
	0.6196178290142536627 0.9567105152741023355 
	0.603823818119200606 0.9567096571738655797 
	0.5876523299325762117 0.9567085488655101555 
	0.5731288989928736699 0.9567075535060971525 
	0.5573266984451122896 0.9567062882833620163 
	0.5280254539847026862 0.9567037492128085407 
	0.4998358895047079753 0.9567013064737912575 
	0.4620061373295433205 0.9566978993806901643 
	0.4422669522055445723 0.9566963213313512959 
	0.4265887237326521086 0.9566950679351555742 
	0.4121588727936960628 0.9566940800103156395 
	0.3959112584312314831 0.9566929676340782951 
	0.380034891972013511 0.9566921071870670978 
	0.3487758210498350664 0.9566904130478798285 
	0.3091415195107016789 0.9566893130315122784 
	0.2912555637354244387 0.9566888166218314726 
	0.2754667490198383639 0.9566885726479167351 
	0.2591563085713958214 0.9566883206137748452 
	0.2440315247720497294 0.9566883204802405505 
	0.2289478614011560831 0.9566883203471140407 
	0.2143472739183169551 0.9566885699600677917 
	0.1999612294976065296 0.9566888159052546747 
	0.1854728322167356613 0.9566893141491037422 
	0.1591198733834250922 0.9566902204051374037 
	0.1285603183358849932 0.9566921349231741756 
	0.1141302863881114849 0.9566931056441621006 
	0.09917206753679184972 0.9566941118967494662 
	0.08428335581733391313 0.9566952028076582959 
	0.06853503884857924111 0.9566963567027099158 
	0.03731486900370685478 0.9566986182321309817 
	0 0.9567013212499084762 
	0.001000000000000000021 
	spline forward { ref 1 } I I I I 
	} 0 0 #
edge $-1 $57 0 $66 0.9567013212499080321 $52 $76 forward 7 unknown #
pcurve $-1 0 forward { exppc nubs 2 open 7 
	0 2 0.1594502202083180054 2 0.3189004404166360107 2 0.4783506606249540161 2 0.6378008808332720214 2 
	0.7972511010415900268 2 0.9567013212499080321 2 
	1 0 
	1 0.07972511010415901656 
	1 0.1594502202083180331 
	1 0.2391753303124770635 
	1 0.3189004404166360662 
	1 0.3986255505207950689 
	1 0.4783506606249541271 
	1 0.5580757707291131853 
	1 0.6378008808332722435 
	1 0.7175259909374311906 
	1 0.7972511010415902488 
	1 0.876976211145749307 
	1 0.9567013212499082542 
	0.001000000000000000021 
	spline forward { ref 1 } I I I I 
	} 0 0 #
tvertex-vertex $-1 $62 $77 4.019436694230464427e-14 #
tvertex-vertex $-1 $73 $78 5.13609858458642097e-14 #
intcurve-curve $-1 forward { exactcur full nubs 3 open 4 
	0 3 0.3568536498948149949 2 0.674700535947026947 2 1 3 
	18.68038769375992558 -100.0000000000313776 37.75002235176282994 
	18.68018026575582269 -101.4548565512879463 37.75002235176349785 
	18.67997690216924411 -102.8812817314070998 37.34063158233661994 
	18.6796440688714398 -105.2159215004727315 35.8772297176201107 
	18.67951446889765066 -106.1250346315589326 34.92267973219605892 
	18.6793312985764004 -107.4099487956862049 32.63085096043895561 
	18.67928282433612708 -107.750000000034305 31.32602115085207473 
	18.67928282433577181 -107.7500000000349161 30.00002235176640397 
	0 
	null_surface 
	null_surface 
	nullbs 
	nullbs 
	I I 
	0 
	2 0.3568536498948149949 0.674700535947026947 
	0 
	F 1 F 0 } I I #
pcurve $-1 0 forward { exppc nubs 2 open 7 
	-0.9567013212499080321 2 -0.7972511010415900268 2 -0.6378008808332721324 2 -0.4783506606249540161 2 -0.3189004404166360662 2 
	-0.1594502202083179776 2 -0 2 
	0 0.9567013212499082542 
	0 0.876976211145749307 
	0 0.7972511010415902488 
	0 0.7175259909374311906 
	0 0.6378008808332722435 
	0 0.5580757707291131853 
	0 0.4783506606249541271 
	0 0.3986255505207951244 
	0 0.3189004404166361217 
	0 0.2391753303124770635 
	0 0.1594502202083180331 
	0 0.07972511010415901656 
	0 0 
	0.001000000000000000021 
	spline forward { ref 1 } I I I I 
	} 0 0 #
point $-1 100.00000000000216 -99.99999999999415934 37.75002235174040521 #
tcoedge-coedge $-1 $60 $59 $60 $73 reversed $44 $79 -0.5611707963958060263 -0 #
pcurve $-1 0 forward { exppc nubs 2 open 19 
	-1 2 -0.9166666666666667407 2 -0.875 2 -0.8333333333333333703 2 -0.75 2 
	-0.7083333333333333703 2 -0.6666666666666667407 2 -0.625 2 -0.5833333333333333703 2 -0.5 2 
	-0.4583333333333333703 2 -0.4166666666666666852 2 -0.3333333333333333703 2 -0.25 2 -0.2083333333333333148 2 
	-0.1666666666666666297 2 -0.1249999999999999722 2 -0.08333333333333331483 2 -0 2 
	0.7559764446643686409 0.4387974584797655897 
	0.7259433510265893563 0.4387889591621777496 
	0.6911230061421372861 0.438779105060124186 
	0.6731382064741193716 0.4387792421528062814 
	0.654519091041851464 0.4387793840806854528 
	0.6481617039147768988 0.4387792074608340975 
	0.6196849868952345464 0.4387731144809788875 
	0.6009431310801218729 0.4387691044067019708 
	0.5575372315692986858 0.4387680246348914515 
	0.5427606243720817236 0.4387667206702439149 
	0.5284109983161985324 0.4387654543846322697 
	0.5145576629496904086 0.4387645818356107896 
	0.4999863891107745872 0.4387649197168970727 
	0.4857808240150626733 0.4387654619296745273 
	0.4714361551074479628 0.4387660094519107989 
	0.4571714261586532491 0.4387621293428463631 
	0.4424843906099637514 0.4387581343633437103 
	0.4197983154097223446 0.4387536331318164784 
	0.3808235204657449691 0.4387712175431066064 
	0.3662130290777356745 0.4387778094158858999 
	0.3460270934139141885 0.438778700138244937 
	0.3216478111296513509 0.4387797758957750482 
	0.3094058036193117478 0.4387815219251807175 
	0.274377299092529281 0.4387898221449531011 
	0.2441994772381216594 0.4387969729656069351 
	0.2178359947352038195 0.4388011383408522148 
	0.1856843286728070974 0.4388091880263945144 
	0.1734316821178416568 0.4388122556731031132 
	0.157144849623816002 0.4388141120670911444 
	0.1456401141618708373 0.4388154233915598224 
	0.1286275150760898267 0.438818262154854033 
	0.1142543611159876349 0.4388207474202454605 
	0.09935835878775796381 0.438823323091469597 
	0.08611190792024324414 0.4388256181760713526 
	0.06854788338773655509 0.4388258642646354901 
	0.03732239995105657293 0.4388273854274626906 
	0 0.4388292036041945843 
	0.001000000000000000021 
	spline reversed { ref 2 } I I I I 
	} 0 0 #
tedge-edge $-1 $80 0 $67 0.5611707963958060263 $60 $81 forward 7 unknown 1.255499137360856062e-10 #
pcurve $-1 0 forward { exppc nubs 2 open 7 
	0 2 0.09352846606596766643 2 0.1870569321319353329 2 0.2805853981979030132 2 0.3741138642638706657 2 
	0.4676423303298383738 2 0.5611707963958060263 2 
	1 1 
	1 0.9520449594668756177 
	1 0.9064715339340310152 
	1 0.858716994406111489 
	1 0.8129430678680638067 
	1 0.7654179856088036971 
	1 0.7194146018020965982 
	0.999999999999999889 0.6721432604418082768 
	1 0.6258861357361301669 
	1 0.578885771956802353 
	1 0.5323576696701624034 
	1 0.4856366097693905481 
	1 0.4388292036041945288 
	0.001000000000000000021 
	spline reversed { ref 2 } I I I I 
	} 0 0 #
intcurve-curve $-1 forward { exactcur full nubs 3 open 9 
	0 3 0.1067170591122049983 2 0.2328984153212619868 2 0.3511125938760629728 2 0.4773973697657040161 2 
	0.6302187385461309743 2 0.7452208610126620503 2 0.8666244756667890181 2 1 3 
	18.67928282433577181 -107.7500000000349161 30.00002235176640397 
	18.67928282433540232 -107.7500000000355129 28.69838159632426411 
	18.67932954078411001 -107.4222791513363404 27.41448830461249386 
	18.67952562836235586 -106.0467512429305401 24.91143126371317607 
	18.67968736714600198 -104.9121852689822134 23.80831931870451612 
	18.68006847232616963 -102.2389804072619484 22.43961956027864701 
	18.68027561926112412 -100.7860479404451155 22.15422251547312271 
	18.6807026045111968 -97.79130760037831749 22.41092904397972063 
	18.68091186779838608 -96.32368925903847412 23.00408827843155635 
	18.68129087400198785 -93.66571179801593416 25.15772599141407895 
	18.68143043983604912 -92.6869996784510306 26.82170687594904734 
	18.68151090824450478 -92.12270835678577896 30.06055741953344551 
	18.68149065801816278 -92.2647117856423904 31.49133453387488757 
	18.68134058830020194 -93.31709779909749614 34.19834727134065133 
	18.68120817914430631 -94.24561079637587113 35.40024697434218837 
	18.68084783007179794 -96.77276454592390564 37.23316378408016902 
	18.68062098201595234 -98.36376506100324946 37.75002235176207677 
	18.68038769375992558 -100.0000000000313776 37.75002235176282994 
	0 
	null_surface 
	null_surface 
	nullbs 
	nullbs 
	I I 
	0 
	7 0.1067170591122049983 0.2328984153212619868 0.3511125938760629728 0.4773973697657040161 0.6302187385461309743 0.7452208610126620503 0.8666244756667890181 
	0 
	F 1 F 0 } I I #
intcurve-curve $-1 forward { exactcur full nubs 1 open 2 
	0 1 0.9567013212499080321 1 
	100.00000000000216 -99.99999999999415934 37.75002235174040521 
	18.68038769375993979 -100.0000000000313776 37.75002235176282994 
	0 
	null_surface 
	null_surface 
	nullbs 
	nullbs 
	I I 
	0 
	0 
	0 
	F 1 F 0 } I I #
point $-1 18.68038769375992558 -100.0000000000313776 37.75002235176282994 #
point $-1 18.67928282433577181 -107.7500000000349161 30.00002235176640752 #
pcurve $-1 0 forward { exppc nubs 2 open 7 
	-0.5611707963958060263 2 -0.4676423303298383738 2 -0.3741138642638707212 2 -0.2805853981979030132 2 -0.1870569321319353606 2 
	-0.09352846606596765255 2 -0 2 
	0 0.4388292036041945288 
	0 0.4856366097693905481 
	0 0.5323576696701624034 
	0 0.578885771956802353 
	0 0.6258861357361300559 
	0 0.6721432604418082768 
	0 0.7194146018020965982 
	0 0.7654179856088045852 
	0 0.812943067868065361 
	0 0.8587169944061123772 
	0 0.9064715339340314593 
	0 0.9520449594668758397 
	0 1 
	0.001000000000000000021 
	spline reversed { ref 2 } I I I I 
	} 0 0 #
tvertex-vertex $-1 $73 $82 1.421085471520200372e-14 #
intcurve-curve $-1 forward { exactcur full nurbs 2 open 2 
	0 2 0.5611707963958060263 2 
	15 -100.0000000000364651 30.00002235176383891 1 
	14.99957214155067931 -104.7485658404190616 30.00002235176600607 0.8356368791395250017 
	18.67928282433574338 -107.7500000000349445 30.00002235176637555 0.8557453251417960205 
	0 
	null_surface 
	null_surface 
	nullbs 
	nullbs 
	I I 
	0 
	0 
	0 
	F 1 F 0 } I I #
point $-1 15 -100.0000000000364651 30.00002235176383891 #
End-of-ACIS-data 