600 0 1 0           
82 GICL ACIS Healer - Source: /gicl/data5/repository/SDRC_I-DEAS/bmw/Part69.sat - 6 0 18 ACIS 6.0.3 Solaris 24 Sat Apr 13 23:20:20 2002 
1 9.999999999999999547e-07 1.000000000000000036e-10 
body $-1 $1 $-1 $2 #
lump $-1 $-1 $3 $0 #
transform $-1 1 0 0 0 1 0 0 0 1 0 0 0 1 no_rotate no_reflect no_shear #
shell $-1 $-1 $-1 $4 $-1 $1 #
face $-1 $5 $6 $3 $-1 $7 forward single #
face $-1 $8 $9 $3 $-1 $10 forward single #
loop $-1 $-1 $11 $4 #
plane-surface $-1 30.06996214389803868 223.963171243667631 70.00000000000001421 0 0 1 1 0 0 forward_v I I I I #
face $-1 $12 $13 $3 $-1 $14 forward single #
loop $-1 $-1 $15 $5 #
cone-surface $-1 30.06996214389803512 223.963171243667631 62.00000000000002132 0 0 1 -2.401482563563220651 0.7262601261810459619 0 1 I I 0 1 2.508898617716285528 forward I I I I #
coedge $-1 $11 $11 $16 $17 forward $6 $-1 #
face $-1 $18 $19 $3 $-1 $20 forward single #
loop $-1 $21 $22 $8 #
plane-surface $-1 30.06996214389804223 223.9631712436675457 60.00000000000001421 -7.858660081003268143e-16 -1.551049428198535024e-31 1 1 -0 7.858660081003268143e-16 forward_v I I I I #
coedge $-1 $23 $16 $24 $25 forward $9 $-1 #
coedge $-1 $15 $24 $11 $17 reversed $9 $-1 #
edge $-1 $26 0 $26 1 $11 $27 forward 7 unknown #
face $-1 $28 $29 $3 $-1 $30 forward single #
loop $-1 $-1 $31 $12 #
cone-surface $-1 30.06996214389802802 223.9631712436676025 51.70820393249937297 2.050021812968203294e-16 -4.334399914707707487e-17 1 -4.207802527799963777 3.460020252719286926 1.012579811548001094e-15 1 I I -0.1135404537347792508 0.9935333740573089045 5.447691461728298101 forward I I I I #
loop $-1 $-1 $32 $8 #
coedge $-1 $22 $22 $33 $34 forward $13 $-1 #
coedge $-1 $24 $15 $32 $35 forward $9 $-1 #
coedge $-1 $16 $23 $15 $25 reversed $9 $-1 #
edge $-1 $26 0 $36 1 $15 $37 forward 7 unknown #
vertex $-1 $17 $38 #
intcurve-curve $-1 forward { exactcur full nurbs 2 periodic 4 
	0 2 0.3333333333333329818 2 0.6666666666666669627 2 1 2 
	30.06996214389803512 226.4720698613839147 70.00000000000001421 1 
	25.72442226697411272 226.4720698613838863 70.00000000000001421 0.5 
	27.89719220543607747 222.7087219348095175 70.00000000000001421 1 
	30.06996214389803157 218.9453740082350635 70.00000000000001421 0.5 
	32.24273208235999988 222.7087219348095175 70.00000000000001421 1 
	34.41550202082195398 226.4720698613838863 70.00000000000001421 0.5 
	30.06996214389803512 226.4720698613839147 70.00000000000001421 1 
	0 
	null_surface 
	null_surface 
	nullbs 
	nullbs 
	I I 
	0 
	0 
	0 
	F 1 F 0 } I I #
face $-1 $39 $40 $3 $-1 $41 forward single #
loop $-1 $-1 $42 $18 #
cone-surface $-1 30.06996214389801025 223.9631712436676878 37.69999999999998863 6.2581580489267905e-15 3.989617147093842788e-15 1 -6.221708821925030719 1.881578947368439003 2.842170943040400743e-14 1 I I 0 1 6.49999999999999023 forward I I I I #
coedge $-1 $43 $33 $44 $45 forward $19 $-1 #
coedge $-1 $32 $32 $23 $35 reversed $21 $-1 #
coedge $-1 $31 $44 $22 $34 reversed $19 $-1 #
edge $-1 $46 0 $46 1 $22 $47 forward 7 unknown #
edge $-1 $36 0 $36 2.607323926154350158 $23 $48 forward 7 unknown #
vertex $-1 $25 $49 #
intcurve-curve $-1 forward { exactcur full nubs 1 open 2 
	0 1 1 1 
	30.06996214389803512 226.4720698613839147 70.00000000000001421 
	30.06996214389803512 226.4720698613839147 60.00000000000001421 
	0 
	null_surface 
	null_surface 
	nullbs 
	nullbs 
	I I 
	0 
	0 
	0 
	F 1 F 0 } I I #
point $-1 30.06996214389803512 226.4720698613839147 70.00000000000001421 #
face $-1 $50 $51 $3 $-1 $52 forward single #
loop $-1 $-1 $53 $28 #
torus-surface $-1 30.06996214389803512 223.9631712436676025 35.00000000000004974 1.301504164566085665e-15 -1.43165975094749977e-15 -1 6.500000000000052403 1.499999999999989342 -1 0 -1.301504164566085665e-15 forward_v I I I I #
coedge $-1 $54 $55 $56 $57 forward $29 $-1 #
coedge $-1 $44 $31 $55 $58 forward $19 $-1 #
coedge $-1 $33 $43 $31 $45 reversed $19 $-1 #
edge $-1 $46 0 $59 1 $31 $60 forward 7 unknown #
vertex $-1 $34 $61 #
intcurve-curve $-1 forward { exactcur full nurbs 2 periodic 4 
	0 2 0.3333333333333329818 2 0.6666666666666669627 2 1 2 
	30.06996214389803512 228.4632807596223074 60.00000000000001421 1 
	22.27554382264031574 228.4632807596223074 60.00000000000000711 0.5 
	26.17275298326917721 221.7131164856902501 60.00000000000001421 1 
	30.06996214389803157 214.9629522117582496 60.00000000000000711 0.5 
	33.96717130452690014 221.7131164856902501 60.00000000000001421 1 
	37.86438046515576161 228.4632807596223074 60.00000000000000711 0.5 
	30.06996214389803512 228.4632807596223074 60.00000000000001421 1 
	0 
	null_surface 
	null_surface 
	nullbs 
	nullbs 
	I I 
	0 
	0 
	0 
	F 1 F 0 } I I #
intcurve-curve $-1 forward { exactcur full nurbs 2 periodic 4 
	0 2 0.8691079753847830158 2 1.73821595076956692 2 2.607323926154350158 2 
	30.06996214389803512 226.4720698613839147 60.00000000000001421 1 
	25.72442226697411272 226.4720698613838863 60.00000000000000711 0.5 
	27.89719220543607747 222.7087219348095175 60.00000000000001421 1 
	30.06996214389803157 218.9453740082350635 60.00000000000000711 0.5 
	32.24273208235999988 222.7087219348095175 60.00000000000001421 1 
	34.41550202082195398 226.4720698613838863 60.00000000000000711 0.5 
	30.06996214389803512 226.4720698613839147 60.00000000000001421 1 
	0 
	null_surface 
	null_surface 
	nullbs 
	nullbs 
	I I 
	0 
	0 
	0 
	F 1 F 0 } I I #
point $-1 30.06996214389803512 226.4720698613839147 60.00000000000001421 #
face $-1 $62 $63 $3 $-1 $64 forward single #
loop $-1 $-1 $65 $39 #
cone-surface $-1 30.0699621438980067 223.963171243667631 30.90000000000000924 0 0 1 -6.221708821925016508 1.881578947368410581 0 1 I I 0 1 6.499999999999968914 forward I I I I #
coedge $-1 $66 $67 $68 $69 forward $40 $-1 #
coedge $-1 $56 $42 $67 $70 forward $29 $-1 #
coedge $-1 $42 $56 $43 $58 reversed $29 $-1 #
coedge $-1 $55 $54 $42 $57 reversed $29 $-1 #
edge $-1 $59 0 $71 1 $42 $72 forward 7 unknown #
edge $-1 $59 0 $59 3.24506426953202709 $43 $73 forward 7 unknown #
vertex $-1 $45 $74 #
intcurve-curve $-1 forward { exactcur full nubs 1 open 2 
	0 1 1 1 
	30.06996214389803512 228.4632807596223074 60.00000000000001421 
	30.06996214389803512 230.4631712436676025 42.50000000000000711 
	0 
	null_surface 
	null_surface 
	nullbs 
	nullbs 
	I I 
	0 
	0 
	0 
	F 1 F 0 } I I #
point $-1 30.06996214389803512 228.4632807596223074 60.00000000000001421 #
face $-1 $75 $76 $3 $-1 $77 forward single #
loop $-1 $-1 $78 $50 #
torus-surface $-1 30.06996214389803157 223.9631712436676025 28.75000000000003908 2.107010746109871047e-15 -1.744541035155696446e-15 -1 6.500000000000042633 1.499999999999978684 -1 0 -2.107010746109871047e-15 forward_v I I I I #
coedge $-1 $79 $80 $81 $82 forward $51 $-1 #
coedge $-1 $68 $53 $80 $83 reversed $40 $-1 #
coedge $-1 $53 $68 $54 $70 reversed $40 $-1 #
coedge $-1 $67 $66 $53 $69 reversed $40 $-1 #
edge $-1 $71 0 $84 1 $53 $85 forward 7 unknown #
edge $-1 $71 0 $71 11.25833024919773706 $54 $86 forward 7 unknown #
vertex $-1 $57 $87 #
intcurve-curve $-1 forward { exactcur full nubs 1 open 2 
	0 1 1 1 
	30.06996214389803512 230.4631712436676025 42.50000000000000711 
	30.06996214389803868 230.4631712436676594 36.50000000000002132 
	0 
	null_surface 
	null_surface 
	nullbs 
	nullbs 
	I I 
	0 
	0 
	0 
	F 1 F 0 } I I #
intcurve-curve $-1 forward { exactcur full nurbs 2 periodic 4 
	0 2 1.081688089844009104 2 2.163376179688018208 2 3.24506426953202709 2 
	30.06996214389803512 230.4631712436676025 42.50000000000000711 1 
	18.81163189470033004 230.463171243667631 42.50000000000000711 0.5 
	24.44079701929917903 220.7131712436676025 42.50000000000000711 1 
	30.06996214389802802 210.963171243667631 42.50000000000000711 0.5 
	35.69912726849688767 220.7131712436676025 42.50000000000000711 1 
	41.32829239309575797 230.463171243667631 42.50000000000000711 0.5 
	30.06996214389803512 230.4631712436676025 42.50000000000000711 1 
	0 
	null_surface 
	null_surface 
	nullbs 
	nullbs 
	I I 
	0 
	0 
	0 
	F 1 F 0 } I I #
point $-1 30.06996214389803512 230.4631712436676025 42.50000000000000711 #
face $-1 $88 $89 $3 $-1 $90 forward single #
loop $-1 $-1 $91 $62 #
cone-surface $-1 30.06996214389801736 223.963171243667631 23.91710945367814389 0 0 1 -6.221708821925027166 1.881578947368410581 0 1 I I 0 1 6.499999999999978684 forward I I I I #
coedge $-1 $92 $93 $94 $95 forward $63 $-1 #
coedge $-1 $81 $65 $93 $96 reversed $51 $-1 #
coedge $-1 $65 $81 $66 $83 forward $51 $-1 #
coedge $-1 $80 $79 $65 $82 reversed $51 $-1 #
edge $-1 $84 0 $97 1 $65 $98 forward 7 unknown #
edge $-1 $84 0 $84 20.78460969082654941 $66 $99 forward 7 unknown #
vertex $-1 $69 $100 #
intcurve-curve $-1 forward { exactcur full nurbs 2 open 3 
	0 2 0.5 2 1 2 
	30.06996214389803512 230.4631712436742816 36.50000000000001421 1 
	30.06996214389803157 231.9631712436743101 36.49999999999334932 0.7071067811865470176 
	30.06996214389803512 231.9631712436676025 34.99999999999334221 1 
	30.06996214389804223 231.9631712436609519 33.49999999999334221 0.7071067811865470176 
	30.06996214389804933 230.4631712436609519 33.5 1 
	0 
	null_surface 
	null_surface 
	nullbs 
	nullbs 
	I I 
	0 
	0 
	0 
	F 1 F 0 } I I #
intcurve-curve $-1 forward { exactcur full nurbs 2 periodic 4 
	0 2 3.75277674973257902 2 7.50555349946515804 2 11.25833024919773706 2 
	30.0699621438980671 230.4631712436676594 36.50000000000002132 1 
	18.81163189470030161 230.4631712436677162 36.50000000000001421 0.5 
	24.44079701929914705 220.7131712436676025 36.50000000000002132 1 
	30.06996214389798183 210.9631712436675741 36.50000000000002132 0.5 
	35.69912726849690188 220.7131712436676025 36.50000000000002132 1 
	41.32829239309582903 230.4631712436676025 36.50000000000002842 0.5 
	30.0699621438980671 230.4631712436676594 36.50000000000002132 1 
	0 
	null_surface 
	null_surface 
	nullbs 
	nullbs 
	I I 
	0 
	0 
	0 
	F 1 F 0 } I I #
point $-1 30.06996214389803868 230.4631712436698194 36.50000000000002132 #
face $-1 $101 $102 $3 $-1 $103 forward single #
loop $-1 $-1 $104 $75 #
torus-surface $-1 30.06996214389803512 223.9631712436675741 21.58388681709764612 2.572579552872008035e-15 -4.54938519267420103e-15 -1 6.499999999999981348 1.500000000000034639 -1 0 -2.572579552872008035e-15 forward_v I I I I #
coedge $-1 $105 $106 $107 $108 forward $76 $-1 #
coedge $-1 $94 $78 $106 $109 reversed $63 $-1 #
coedge $-1 $78 $94 $79 $96 forward $63 $-1 #
coedge $-1 $93 $92 $78 $95 reversed $63 $-1 #
edge $-1 $97 0 $110 1 $78 $111 forward 7 unknown #
edge $-1 $97 0 $97 20.78460969082654941 $79 $112 forward 7 unknown #
vertex $-1 $82 $113 #
intcurve-curve $-1 forward { exactcur full nubs 1 open 2 
	0 1 1 1 
	30.06996214389803512 230.4631712436676025 33.50000000000000711 
	30.06996214389803512 230.4631712436676025 30.25000000000000711 
	0 
	null_surface 
	null_surface 
	nullbs 
	nullbs 
	I I 
	0 
	0 
	0 
	F 1 F 0 } I I #
intcurve-curve $-1 forward { exactcur full nurbs 2 periodic 4 
	0 2 6.928203230275515878 2 13.85640646055103176 2 20.78460969082654941 2 
	30.06996214389803512 230.4631712436676025 33.50000000000000711 1 
	41.32829239309575797 230.463171243667631 33.50000000000001421 0.5 
	35.69912726849688767 220.7131712436676025 33.50000000000000711 1 
	30.06996214389802802 210.963171243667631 33.50000000000001421 0.5 
	24.44079701929917903 220.7131712436676025 33.50000000000000711 1 
	18.81163189470033004 230.463171243667631 33.50000000000001421 0.5 
	30.06996214389803512 230.4631712436676025 33.50000000000000711 1 
	0 
	null_surface 
	null_surface 
	nullbs 
	nullbs 
	I I 
	0 
	0 
	0 
	F 1 F 0 } I I #
point $-1 30.06996214389803512 230.4631712436698194 33.50000000000000711 #
face $-1 $114 $115 $3 $-1 $116 forward single #
loop $-1 $-1 $117 $88 #
cone-surface $-1 30.06996214389803868 223.9631712436676025 16.01677736341953917 0 0 1 -6.221708821925048483 1.881578947368439003 0 1 I I 0 1 6.500000000000007994 forward I I I I #
coedge $-1 $118 $119 $120 $121 forward $89 $-1 #
coedge $-1 $107 $91 $119 $122 reversed $76 $-1 #
coedge $-1 $91 $107 $92 $109 forward $76 $-1 #
coedge $-1 $106 $105 $91 $108 reversed $76 $-1 #
edge $-1 $110 0 $123 1 $91 $124 forward 7 unknown #
edge $-1 $110 0 $110 13.8564064605509536 $92 $125 forward 7 unknown #
vertex $-1 $95 $126 #
intcurve-curve $-1 forward { exactcur full nurbs 2 open 3 
	0 2 0.5 2 1 2 
	30.06996214389803512 230.4631712436742816 30.25 1 
	30.06996214389803157 231.9631712436743101 30.24999999999333866 0.7071067811865470176 
	30.06996214389803512 231.9631712436676025 28.74999999999333866 1 
	30.06996214389804223 231.9631712436609519 27.24999999999333511 0.7071067811865470176 
	30.06996214389804933 230.4631712436609519 27.24999999999999645 1 
	0 
	null_surface 
	null_surface 
	nullbs 
	nullbs 
	I I 
	0 
	0 
	0 
	F 1 F 0 } I I #
intcurve-curve $-1 forward { exactcur full nurbs 2 periodic 4 
	0 2 6.928203230275515878 2 13.85640646055103176 2 20.78460969082654941 2 
	30.06996214389803512 230.4631712436676025 30.25000000000000711 1 
	41.32829239309575797 230.463171243667631 30.25000000000000355 0.5 
	35.69912726849688767 220.7131712436676025 30.25000000000000711 1 
	30.06996214389802802 210.963171243667631 30.25000000000000355 0.5 
	24.44079701929917903 220.7131712436676025 30.25000000000000711 1 
	18.81163189470033004 230.463171243667631 30.25000000000000355 0.5 
	30.06996214389803512 230.4631712436676025 30.25000000000000711 1 
	0 
	null_surface 
	null_surface 
	nullbs 
	nullbs 
	I I 
	0 
	0 
	0 
	F 1 F 0 } I I #
point $-1 30.06996214389803512 230.4631712436698194 30.25000000000000711 #
face $-1 $127 $128 $3 $-1 $129 forward single #
loop $-1 $-1 $130 $101 #
plane-surface $-1 30.06996214389802091 223.9631712436676025 -25 0 0 -1 -1 0 0 forward_v I I I I #
coedge $-1 $131 $132 $133 $134 forward $102 $-1 #
coedge $-1 $120 $104 $132 $135 reversed $89 $-1 #
coedge $-1 $104 $120 $105 $122 forward $89 $-1 #
coedge $-1 $119 $118 $104 $121 reversed $89 $-1 #
edge $-1 $123 0 $136 1 $104 $137 forward 7 unknown #
edge $-1 $123 0 $123 16.21414938326940458 $105 $138 forward 7 unknown #
vertex $-1 $108 $139 #
intcurve-curve $-1 forward { exactcur full nubs 1 open 2 
	0 1 1 1 
	30.06996214389803512 230.4631712436676025 27.25000000000000355 
	30.06996214389803512 230.4631712436676025 23.08388681709767809 
	0 
	null_surface 
	null_surface 
	nullbs 
	nullbs 
	I I 
	0 
	0 
	0 
	F 1 F 0 } I I #
intcurve-curve $-1 forward { exactcur full nurbs 2 periodic 4 
	0 2 4.61880215351698542 2 9.237604307033969064 2 13.8564064605509536 2 
	30.06996214389802091 230.4631712436609519 27.24999999999999645 1 
	41.32829239308420455 230.4631712436609803 27.25000000000005329 0.5 
	35.69912726849113227 220.7131712436709279 27.25000000000002487 1 
	30.06996214389806354 210.9631712436809323 27.25 0.5 
	24.44079701930495219 220.7131712436709279 27.24999999999997513 1 
	18.81163189471184793 230.4631712436609519 27.24999999999995026 0.5 
	30.06996214389802091 230.4631712436609519 27.24999999999999645 1 
	0 
	null_surface 
	null_surface 
	nullbs 
	nullbs 
	I I 
	0 
	0 
	0 
	F 1 F 0 } I I #
point $-1 30.06996214389803512 230.4631712436698763 27.25000000000000355 #
face $-1 $140 $141 $3 $-1 $142 forward single #
loop $-1 $-1 $143 $114 #
cone-surface $-1 30.06996214389804223 223.963171243667631 -20.26435226328604244 2.184527360633882576e-15 3.826774567889267382e-15 1 -1.700940379523485202 1.398660731566411686 -1.636608518787708393e-15 1 I I 0.2079116908177628953 0.9781476007338049117 2.202146683742794764 forward I I I I #
coedge $-1 $130 $130 $144 $145 forward $115 $-1 #
coedge $-1 $133 $117 $146 $147 reversed $102 $-1 #
coedge $-1 $117 $133 $118 $135 forward $102 $-1 #
coedge $-1 $132 $131 $117 $134 reversed $102 $-1 #
edge $-1 $136 0 $148 1 $117 $149 forward 7 unknown #
edge $-1 $136 0 $136 13.85640646055045977 $118 $150 forward 7 unknown #
vertex $-1 $121 $151 #
intcurve-curve $-1 forward { exactcur full nurbs 2 open 3 
	0 2 0.5 2 1 2 
	30.06996214389803512 230.4631712436743385 23.08388681709767098 1 
	30.06996214389803157 231.9631712436743953 23.08388681709093149 0.7071067811865470176 
	30.06996214389803512 231.9631712436676025 21.58388681709087109 1 
	30.06996214389804223 231.963171243660895 20.0838868170908178 0.7071067811865470176 
	30.06996214389804933 230.4631712436608098 20.08388681709756085 1 
	0 
	null_surface 
	null_surface 
	nullbs 
	nullbs 
	I I 
	0 
	0 
	0 
	F 1 F 0 } I I #
intcurve-curve $-1 forward { exactcur full nurbs 2 periodic 4 
	0 2 5.404716461089802415 2 10.80943292217960305 2 16.21414938326940458 2 
	30.06996214389803512 230.4631712436676025 23.08388681709767809 1 
	41.32829239309575797 230.463171243667631 23.08388681709767454 0.5 
	35.69912726849688767 220.7131712436676025 23.08388681709767809 1 
	30.06996214389802802 210.963171243667631 23.08388681709767454 0.5 
	24.44079701929917903 220.7131712436676025 23.08388681709767809 1 
	18.81163189470033004 230.463171243667631 23.08388681709767454 0.5 
	30.06996214389803512 230.4631712436676025 23.08388681709767809 1 
	0 
	null_surface 
	null_surface 
	nullbs 
	nullbs 
	I I 
	0 
	0 
	0 
	F 1 F 0 } I I #
point $-1 30.06996214389803512 230.4631712436698194 23.08388681709767809 #
face $-1 $152 $153 $3 $-1 $154 forward single #
loop $-1 $-1 $155 $127 #
cone-surface $-1 30.06996214389803512 223.963171243667631 -3.20000000005000107 -1.523664503405563775e-16 1.190680482666432064e-15 -1 2.975472648324593905 0.8998471085353401122 4.440892098500626162e-16 1 I I 0 1 3.108562738576653217 forward I I I I #
coedge $-1 $144 $156 $157 $158 forward $128 $-1 #
coedge $-1 $157 $143 $130 $145 reversed $128 $-1 #
edge $-1 $159 2 $159 3 $130 $160 forward 7 unknown #
coedge $-1 $146 $146 $131 $147 forward $161 $-1 #
edge $-1 $148 0 $148 13.28707422596593979 $131 $162 forward 7 unknown #
vertex $-1 $134 $163 #
intcurve-curve $-1 forward { exactcur full nubs 1 open 2 
	0 1 1 1 
	30.06996214389803512 230.4631712436676025 20.08388681709766033 
	30.06996214389803512 230.4631712436676025 15.00000000000000355 
	0 
	null_surface 
	null_surface 
	nullbs 
	nullbs 
	I I 
	0 
	0 
	0 
	F 1 F 0 } I I #
intcurve-curve $-1 forward { exactcur full nurbs 2 periodic 4 
	0 2 4.618802153516819331 2 9.237604307033638662 2 13.85640646055045977 2 
	30.0699621438980067 230.4631712436608098 20.08388681709756085 1 
	41.32829239308394165 230.463171243660895 20.08388681709761769 0.5 
	35.69912726849101858 220.71317124367107 20.08388681709758927 1 
	30.06996214389808841 210.9631712436811881 20.08388681709756085 0.5 
	24.44079701930509074 220.7131712436710131 20.08388681709753243 1 
	18.81163189471208241 230.4631712436607529 20.08388681709751111 0.5 
	30.0699621438980067 230.4631712436608098 20.08388681709756085 1 
	0 
	null_surface 
	null_surface 
	nullbs 
	nullbs 
	I I 
	0 
	0 
	0 
	F 1 F 0 } I I #
point $-1 30.06996214389803512 230.4631712436698194 20.08388681709766033 #
face $-1 $164 $165 $3 $-1 $166 forward single #
loop $-1 $167 $168 $140 #
plane-surface $-1 30.06996214389802446 223.9631712436676594 0 0 0 -1 -1 0 0 forward_v I I I I #
coedge $-1 $169 $170 $156 $171 forward $141 $-1 #
coedge $-1 $143 $157 $155 $171 reversed $128 $-1 #
coedge $-1 $156 $144 $143 $158 reversed $128 $-1 #
edge $-1 $172 0 $159 1 $143 $173 forward 7 unknown #
vertex $-1 $145 $174 #
intcurve-curve $-1 forward { exactcur full nurbs 2 periodic 4 
	2 2 2.333333333333333925 2 2.666666666666666963 2 3 2 
	30.06996214389805644 225.1587249272140525 -25.00000000000000355 1 
	32.14072186697659816 225.1587249272139957 -25.00000000000000711 0.5 
	31.10534200543726868 223.365394401894406 -25.00000000000000355 1 
	30.06996214389794631 221.572063876574731 -25.00000000000000711 0.5 
	29.03458228235873051 223.3653944018944912 -25.00000000000000355 1 
	27.99920242081951827 225.1587249272140809 -25.00000000000000711 0.5 
	30.06996214389805644 225.1587249272140525 -25.00000000000000355 1 
	0 
	null_surface 
	null_surface 
	nullbs 
	nullbs 
	I I 
	0 
	0 
	0 
	F 1 F 0 } I I #
loop $-1 $-1 $146 $175 #
intcurve-curve $-1 forward { exactcur full nurbs 2 periodic 4 
	0 2 4.429024741988646596 2 8.858049483977293193 2 13.28707422596593979 2 
	30.06996214389803512 230.4631712436676025 15.00000000000000355 1 
	41.32829239309575797 230.463171243667631 15.00000000000000178 0.5 
	35.69912726849688767 220.7131712436676025 15.00000000000000355 1 
	30.06996214389802802 210.963171243667631 15.00000000000000178 0.5 
	24.44079701929917903 220.7131712436676025 15.00000000000000355 1 
	18.81163189470033004 230.463171243667631 15.00000000000000178 0.5 
	30.06996214389803512 230.4631712436676025 15.00000000000000355 1 
	0 
	null_surface 
	null_surface 
	nullbs 
	nullbs 
	I I 
	0 
	0 
	0 
	F 1 F 0 } I I #
point $-1 30.06996214389803512 230.4631712436676025 15.00000000000000355 #
face $-1 $176 $177 $3 $-1 $178 forward single #
loop $-1 $-1 $179 $152 #
cone-surface $-1 30.06996214389801381 223.9631712436676594 -4.000000000000001776 -0 0 1 1.323330363160692968 4.375780355277299805 0 1 I I 0 -1 4.57150489091871659 forward I I I I #
loop $-1 $-1 $180 $140 #
coedge $-1 $168 $168 $179 $181 reversed $153 $-1 #
coedge $-1 $182 $155 $170 $183 reversed $141 $-1 #
coedge $-1 $155 $182 $169 $183 forward $141 $-1 #
edge $-1 $172 2 $172 3 $156 $184 forward 7 unknown #
vertex $-1 $158 $185 #
intcurve-curve $-1 forward { exactcur full nubs 1 open 2 
	0 1 1 1 
	30.06996214389802091 227.071733982244325 -16.00000000000000711 
	30.06996214389802091 225.1587249272140525 -25.00000000000000355 
	0 
	null_surface 
	null_surface 
	nullbs 
	nullbs 
	I I 
	0 
	0 
	0 
	F 1 F 0 } I I #
point $-1 30.06996214389802091 225.1587249272140525 -25.00000000000000355 #
face $-1 $-1 $186 $3 $-1 $187 forward single #
face $-1 $188 $189 $3 $-1 $190 forward single #
loop $-1 $-1 $191 $164 #
cone-surface $-1 29.16996214389803654 224.9881565774941521 -23.78590000333125687 1 0 0 0 -3.535533905932774612 -3.535533905932798149 1 I I 0 1 5.000000000000069278 forward I I I I #
coedge $-1 $192 $193 $168 $181 forward $165 $-1 #
coedge $-1 $180 $180 $182 $194 reversed $167 $-1 #
edge $-1 $195 0 $195 1 $168 $196 forward 7 unknown #
coedge $-1 $170 $169 $180 $194 forward $141 $-1 #
edge $-1 $197 0 $172 0.6400000000000000133 $170 $198 forward 7 unknown #
intcurve-curve $-1 forward { exactcur full nurbs 2 periodic 4 
	2 2 2.333333333333333925 2 2.666666666666666963 2 3 2 
	30.06996214389811684 227.071733982244325 -16.00000000000000355 1 
	24.68577354216790454 227.0717339822444671 -16.00000000000000355 0.5 
	27.3778678430328668 222.4088898743794402 -16.00000000000000355 1 
	30.06996214389782196 217.7460457665143565 -16.00000000000000355 0.5 
	32.76205644476307555 222.4088898743792129 -16.00000000000000355 1 
	35.45415074562833269 227.0717339822441261 -16.00000000000000355 0.5 
	30.06996214389811684 227.071733982244325 -16.00000000000000355 1 
	0 
	null_surface 
	null_surface 
	nullbs 
	nullbs 
	I I 
	0 
	0 
	0 
	F 1 F 0 } I I #
point $-1 30.06996214389802091 227.071733982244325 -16.00000000000000355 #
loop $-1 $161 $199 $175 #
plane-surface $-1 30.06996214389801736 223.963171243667631 15.00000000000000355 -0 0 1 1 -0 0 forward_v I I I I #
face $-1 $200 $201 $3 $-1 $202 forward single #
loop $-1 $-1 $203 $176 #
plane-surface $-1 30.06996214389804578 223.8581640872160108 -28.78590000333132437 0 0 -1 -1 0 0 forward_v I I I I #
coedge $-1 $204 $205 $206 $207 reversed $177 $-1 #
coedge $-1 $208 $179 $193 $209 reversed $165 $-1 #
coedge $-1 $179 $210 $192 $209 forward $165 $-1 #
edge $-1 $197 0 $197 1 $182 $211 forward 7 unknown #
vertex $-1 $181 $212 #
intcurve-curve $-1 forward { exactcur full nurbs 2 periodic 4 
	0 2 0.3333333333333329818 2 0.6666666666666669627 2 1 2 
	34.64146703481674905 223.9631712436676025 0 1 
	34.64146703481674905 231.8812499817884714 0 0.5 
	27.78420969843865507 227.9222106127280654 0 1 
	20.92695236206057174 223.9631712436676025 0 0.5 
	27.78420969843865862 220.004131874607225 0 1 
	34.64146703481674905 216.0450925055467621 0 0.5 
	34.64146703481674905 223.9631712436676025 0 1 
	0 
	null_surface 
	null_surface 
	nullbs 
	nullbs 
	I I 
	0 
	0 
	0 
	F 1 F 0 } I I #
vertex $-1 $183 $213 #
intcurve-curve $-1 forward { exactcur full nubs 1 open 2 
	0 1 0.6400000000000000133 1 
	30.06996214389802091 227.071733982244325 0 
	30.06996214389802091 227.071733982244325 -16 
	0 
	null_surface 
	null_surface 
	nullbs 
	nullbs 
	I I 
	0 
	0 
	0 
	F 1 F 0 } I I #
coedge $-1 $214 $215 $216 $217 forward $186 $-1 #
face $-1 $218 $219 $3 $-1 $220 forward single #
loop $-1 $-1 $221 $188 #
plane-surface $-1 30.06996214389804223 222.7281715969377842 -27.89295000166566751 0 -1 1.591450214311425459e-14 0 -1.591450214311425459e-14 -1 forward_v I I I I #
coedge $-1 $222 $223 $224 $225 reversed $189 $-1 #
coedge $-1 $226 $191 $227 $228 reversed $177 $-1 #
coedge $-1 $191 $226 $222 $229 forward $177 $-1 #
coedge $-1 $224 $230 $191 $207 forward $231 $-1 #
edge $-1 $232 0 $233 1 $191 $234 forward 7 unknown #
coedge $-1 $210 $192 $235 $236 forward $165 $-1 #
edge $-1 $237 0 $195 1 $193 $238 forward 7 unknown #
coedge $-1 $193 $208 $239 $240 forward $165 $-1 #
intcurve-curve $-1 forward { exactcur full nurbs 2 periodic 4 
	0 2 0.3333333333333329818 2 0.6666666666666669627 2 1 2 
	30.06996214389802091 227.071733982244325 0 1 
	35.45415074562827584 227.0717339822442682 0 0.5 
	32.7620564447631466 222.4088898743792981 0 1 
	30.06996214389801736 217.7460457665142712 0 0.5 
	27.37786784303289167 222.4088898743792981 0 1 
	24.68577354216775532 227.0717339822442682 0 0.5 
	30.06996214389802091 227.071733982244325 0 1 
	0 
	null_surface 
	null_surface 
	nullbs 
	nullbs 
	I I 
	0 
	0 
	0 
	F 1 F 0 } I I #
point $-1 34.64146703481674905 223.9631712436676025 0 #
point $-1 30.06996214389802091 227.071733982244325 0 #
coedge $-1 $241 $199 $242 $243 forward $186 $-1 #
coedge $-1 $199 $244 $245 $246 reversed $186 $-1 #
coedge $-1 $247 $248 $199 $217 reversed $249 $-1 #
edge $-1 $250 0 $251 1 $216 $252 forward 7 unknown #
face $-1 $253 $254 $3 $-1 $255 forward single #
loop $-1 $-1 $256 $200 #
plane-surface $-1 30.06996214389803512 224.1314238657620876 -27.00000000000000711 -0 0 1 1 -0 0 forward_v I I I I #
coedge $-1 $257 $258 $259 $260 reversed $201 $-1 #
coedge $-1 $261 $203 $205 $229 reversed $189 $-1 #
coedge $-1 $203 $261 $257 $262 forward $189 $-1 #
coedge $-1 $259 $206 $203 $225 forward $231 $-1 #
edge $-1 $233 0 $263 1 $203 $264 forward 7 unknown #
coedge $-1 $205 $204 $265 $266 reversed $177 $-1 #
coedge $-1 $267 $268 $204 $228 forward $269 $-1 #
edge $-1 $270 0 $232 1 $204 $271 forward 7 unknown #
edge $-1 $272 0 $233 1 $205 $273 forward 7 unknown #
coedge $-1 $206 $274 $267 $275 forward $231 $-1 #
loop $-1 $-1 $230 $276 #
vertex $-1 $207 $277 #
vertex $-1 $207 $278 #
intcurve-curve $-1 forward { exactcur full nurbs 2 open 2 
	0 2 1 2 
	28.56996214389804578 229.9881565774942658 -23.78590000333131371 1 
	28.56996214389803868 229.9881565774941521 -28.78590000333128884 0.7071067811865520136 
	28.56996214389804578 224.9881565774942374 -28.78590000333132437 1 
	0 
	null_surface 
	null_surface 
	nullbs 
	nullbs 
	I I 
	0 
	0 
	0 
	F 1 F 0 } I I #
coedge $-1 $239 $279 $208 $236 reversed $280 $-1 #
edge $-1 $237 0 $281 0.7559830622990140192 $208 $282 forward 7 unknown #
vertex $-1 $209 $283 #
intcurve-curve $-1 forward { exactcur full nubs 1 open 2 
	0 1 1 1 
	34.64146703481674905 223.9631712436676025 -20.00000000000000355 
	34.64146703481674905 223.9631712436676025 0 
	0 
	null_surface 
	null_surface 
	nullbs 
	nullbs 
	I I 
	0 
	0 
	0 
	F 1 F 0 } I I #
coedge $-1 $284 $235 $210 $240 reversed $280 $-1 #
edge $-1 $281 0.7559830622990140192 $237 1 $210 $285 forward 7 unknown #
coedge $-1 $286 $214 $287 $288 forward $186 $-1 #
coedge $-1 $289 $290 $214 $243 reversed $291 $-1 #
edge $-1 $251 0 $292 1 $242 $293 forward 7 unknown #
coedge $-1 $215 $286 $294 $295 forward $186 $-1 #
coedge $-1 $296 $297 $215 $246 forward $298 $-1 #
edge $-1 $250 0 $299 1 $245 $300 forward 7 unknown #
coedge $-1 $301 $216 $297 $302 reversed $249 $-1 #
coedge $-1 $216 $301 $289 $303 reversed $249 $-1 #
loop $-1 $-1 $301 $304 #
vertex $-1 $246 $305 #
vertex $-1 $303 $306 #
intcurve-curve $-1 forward { exactcur full nubs 1 open 2 
	0 1 1 1 
	35.74750400161095598 214.7976654388461384 15.00000000000000355 
	40.85147308644679498 223.9631712436676025 15.00000000000000355 
	0 
	null_surface 
	null_surface 
	nullbs 
	nullbs 
	I I 
	0 
	0 
	0 
	F 1 F 0 } I I #
face $-1 $307 $308 $3 $-1 $309 forward single #
loop $-1 $-1 $310 $218 #
cone-surface $-1 29.16996214389803299 225.5346761345860784 -23.99999999999983658 -1 0 0 0 2.121320343559790711 2.121320343559877752 1 I I 0 -1 3.000000000000270894 forward I I I I #
coedge $-1 $311 $312 $313 $314 reversed $219 $-1 #
coedge $-1 $315 $221 $223 $262 reversed $201 $-1 #
coedge $-1 $221 $315 $311 $316 reversed $201 $-1 #
coedge $-1 $313 $224 $221 $260 forward $231 $-1 #
edge $-1 $263 0 $317 1 $221 $318 forward 7 unknown #
coedge $-1 $223 $222 $319 $320 reversed $189 $-1 #
edge $-1 $321 0 $263 1 $223 $322 forward 7 unknown #
vertex $-1 $225 $323 #
intcurve-curve $-1 forward { exactcur full nubs 1 open 2 
	0 1 1 1 
	28.56996214389804578 224.9881565774942374 -28.78590000333132437 
	28.56996214389804933 222.7281715969377842 -28.78590000333132437 
	0 
	null_surface 
	null_surface 
	nullbs 
	nullbs 
	I I 
	0 
	0 
	0 
	F 1 F 0 } I I #
coedge $-1 $324 $319 $226 $266 forward $308 $-1 #
edge $-1 $272 0 $270 1 $226 $325 forward 7 unknown #
coedge $-1 $326 $227 $230 $275 reversed $269 $-1 #
coedge $-1 $227 $326 $324 $327 reversed $269 $-1 #
loop $-1 $-1 $267 $307 #
vertex $-1 $266 $328 #
intcurve-curve $-1 forward { exactcur full nubs 1 open 2 
	0 1 1 1 
	31.56996214389804578 229.9881565774942658 -23.78590000333131371 
	28.56996214389804578 229.9881565774942658 -23.78590000333131371 
	0 
	null_surface 
	null_surface 
	nullbs 
	nullbs 
	I I 
	0 
	0 
	0 
	F 1 F 0 } I I #
vertex $-1 $229 $329 #
intcurve-curve $-1 forward { exactcur full nubs 1 open 2 
	0 1 1 1 
	31.56996214389804578 224.9881565774942374 -28.78590000333132437 
	28.56996214389804578 224.9881565774942374 -28.78590000333132437 
	0 
	null_surface 
	null_surface 
	nullbs 
	nullbs 
	I I 
	0 
	0 
	0 
	F 1 F 0 } I I #
coedge $-1 $230 $330 $331 $332 reversed $231 $-1 #
edge $-1 $333 0 $232 1 $267 $334 forward 7 unknown #
face $-1 $335 $231 $3 $-1 $336 forward single #
point $-1 28.56996214389804578 229.9881565774942658 -23.78590000333131371 #
point $-1 28.56996214389804578 224.9881565774942374 -28.78590000333132437 #
coedge $-1 $235 $331 $337 $338 forward $280 $-1 #
loop $-1 $-1 $279 $339 #
vertex $-1 $240 $340 #
intcurve-curve $-1 forward { exactcur full nurbs 2 open 4 
	0 2 0.3333333333333329818 2 0.6666666666666669627 2 0.7559830622990140192 2 
	34.64146703481674905 223.9631712436676025 -20.00000000000000355 1 
	34.64146703481674905 216.0450925055467621 -20.00000000000000355 0.5 
	27.78420969843865862 220.004131874607225 -20.00000000000000355 1 
	20.92695236206057174 223.9631712436676025 -20.00000000000000355 0.5 
	27.78420969843865507 227.9222106127280654 -20.00000000000000355 1 
	28.84503107488234264 228.5346761199798493 -20 0.8660254065514789712 
	30.06996208938609882 228.5346761345863058 -20.00000000000000711 0.8038475798617440438 
	0 
	null_surface 
	null_surface 
	nullbs 
	nullbs 
	I I 
	0 
	0 
	0 
	F 1 F 0 } I I #
point $-1 34.64146703481674905 223.9631712436676025 -20.00000000000000355 #
coedge $-1 $341 $239 $342 $343 forward $280 $-1 #
intcurve-curve $-1 forward { exactcur full nurbs 2 open 2 
	0.7559830622990140192 2 1 2 
	30.06996208938609882 228.5346761345863058 -20.00000000000000711 0.8038475798617440438 
	34.64146703481675615 228.5346761890982634 -20.00000000000000711 0.6339745934485210288 
	34.64146703481674905 223.9631712436676025 -20.00000000000000355 1 
	0 
	null_surface 
	null_surface 
	nullbs 
	nullbs 
	I I 
	0 
	0 
	0 
	F 1 F 0 } I I #
coedge $-1 $244 $241 $344 $345 forward $186 $-1 #
coedge $-1 $346 $347 $241 $288 reversed $348 $-1 #
edge $-1 $292 0 $349 1 $287 $350 forward 7 unknown #
coedge $-1 $351 $242 $248 $303 forward $291 $-1 #
coedge $-1 $242 $351 $346 $352 reversed $291 $-1 #
loop $-1 $-1 $351 $353 #
vertex $-1 $243 $354 #
intcurve-curve $-1 forward { exactcur full nubs 1 open 2 
	0 1 1 1 
	40.85147308644679498 223.9631712436676025 15.00000000000000355 
	35.74750400161095598 233.128677048489152 15.00000000000000355 
	0 
	null_surface 
	null_surface 
	nullbs 
	nullbs 
	I I 
	0 
	0 
	0 
	F 1 F 0 } I I #
coedge $-1 $355 $356 $244 $295 reversed $357 $-1 #
edge $-1 $358 0 $299 1 $294 $359 forward 7 unknown #
coedge $-1 $360 $245 $356 $361 forward $298 $-1 #
coedge $-1 $245 $360 $247 $302 forward $298 $-1 #
loop $-1 $-1 $360 $362 #
vertex $-1 $295 $363 #
intcurve-curve $-1 forward { exactcur full nubs 1 open 2 
	0 1 1 1 
	35.74750400161095598 214.7976654388461384 15.00000000000000355 
	24.39242028618508584 214.7976654388461384 15.00000000000000355 
	0 
	null_surface 
	null_surface 
	nullbs 
	nullbs 
	I I 
	0 
	0 
	0 
	F 1 F 0 } I I #
coedge $-1 $248 $247 $364 $365 reversed $249 $-1 #
edge $-1 $366 0 $250 1 $297 $367 forward 7 unknown #
edge $-1 $251 0 $368 1 $289 $369 forward 7 unknown #
face $-1 $175 $249 $3 $-1 $370 forward single #
point $-1 35.74750400161095598 214.7976654388461384 15.00000000000000355 #
point $-1 40.85147308644679498 223.9631712436676025 15.00000000000000355 #
face $-1 $276 $269 $3 $-1 $371 forward single #
loop $-1 $-1 $372 $253 #
plane-surface $-1 31.56996214389803868 226.3581639854237437 -24.39294943360437884 1 0 -0 -0 0 -1 forward_v I I I I #
coedge $-1 $373 $374 $375 $376 reversed $254 $-1 #
coedge $-1 $377 $256 $258 $316 forward $219 $-1 #
coedge $-1 $256 $377 $373 $378 forward $219 $-1 #
coedge $-1 $375 $259 $256 $314 forward $231 $-1 #
edge $-1 $317 0 $379 1 $256 $380 forward 7 unknown #
coedge $-1 $258 $257 $381 $382 reversed $201 $-1 #
edge $-1 $317 0 $383 1 $258 $384 forward 7 unknown #
vertex $-1 $260 $385 #
intcurve-curve $-1 forward { exactcur full nubs 1 open 2 
	0 1 1 1 
	28.56996214389804933 222.7281715969377842 -28.78590000333132437 
	28.56996214389803868 222.7281715969378126 -27.00000000000000711 
	0 
	null_surface 
	null_surface 
	nullbs 
	nullbs 
	I I 
	0 
	0 
	0 
	F 1 F 0 } I I #
coedge $-1 $265 $381 $261 $320 forward $308 $-1 #
edge $-1 $321 0 $272 1 $261 $386 forward 7 unknown #
vertex $-1 $262 $387 #
intcurve-curve $-1 forward { exactcur full nubs 1 open 2 
	0 1 1 1 
	31.56996214389805289 222.7281715969377842 -28.78590000333132437 
	28.56996214389804933 222.7281715969377842 -28.78590000333132437 
	0 
	null_surface 
	null_surface 
	nullbs 
	nullbs 
	I I 
	0 
	0 
	0 
	F 1 F 0 } I I #
point $-1 28.56996214389804933 222.7281715969377842 -28.78590000333132437 #
coedge $-1 $372 $265 $268 $327 forward $308 $-1 #
intcurve-curve $-1 forward { exactcur full nurbs 2 open 2 
	0 2 1 2 
	31.56996214389804578 224.9881565774942374 -28.78590000333132437 1 
	31.56996214389803868 229.9881565774941521 -28.78590000333128884 0.7071067811865520136 
	31.56996214389804578 229.9881565774942658 -23.78590000333131371 1 
	0 
	null_surface 
	null_surface 
	nullbs 
	nullbs 
	I I 
	0 
	0 
	0 
	F 1 F 0 } I I #
coedge $-1 $268 $267 $388 $389 reversed $269 $-1 #
edge $-1 $270 0 $390 1 $324 $391 forward 7 unknown #
point $-1 31.56996214389804578 229.9881565774942658 -23.78590000333131371 #
point $-1 31.56996214389804578 224.9881565774942374 -28.78590000333132437 #
coedge $-1 $274 $375 $392 $393 forward $231 $-1 #
coedge $-1 $279 $388 $274 $332 forward $280 $-1 #
edge $-1 $333 0 $394 1 $274 $395 forward 7 unknown #
vertex $-1 $275 $396 #
intcurve-curve $-1 forward { exactcur full nubs 1 open 2 
	0 1 1 1 
	28.56996214389804578 229.9881565774942658 -19.99999999999999289 
	28.56996214389804578 229.9881565774942658 -23.78590000333131371 
	0 
	null_surface 
	null_surface 
	nullbs 
	nullbs 
	I I 
	0 
	0 
	0 
	F 1 F 0 } I I #
face $-1 $339 $397 $3 $-1 $398 forward single #
plane-surface $-1 28.56996214389803157 226.3581639854237437 -24.39294943360437884 -1 0 0 0 -0 1 forward_v I I I I #
coedge $-1 $392 $342 $279 $338 reversed $397 $-1 #
edge $-1 $394 0.5000000181706479863 $281 1 $337 $399 forward 7 unknown #
face $-1 $400 $401 $3 $-1 $402 forward single #
point $-1 30.06996208938609882 228.5346761345863342 -20.00000000000000355 #
coedge $-1 $388 $284 $372 $403 forward $280 $-1 #
coedge $-1 $337 $404 $284 $343 reversed $397 $-1 #
edge $-1 $281 0 $405 0.5000000181706479863 $342 $406 forward 7 unknown #
coedge $-1 $407 $408 $286 $345 reversed $409 $-1 #
edge $-1 $349 0 $358 1 $344 $410 forward 7 unknown #
coedge $-1 $411 $287 $290 $352 forward $348 $-1 #
coedge $-1 $287 $411 $407 $412 reversed $348 $-1 #
loop $-1 $-1 $411 $413 #
vertex $-1 $288 $414 #
intcurve-curve $-1 forward { exactcur full nubs 1 open 2 
	0 1 1 1 
	35.74750400161095598 233.128677048489152 15.00000000000000355 
	24.39242028618509295 233.128677048489152 15.00000000000000355 
	0 
	null_surface 
	null_surface 
	nullbs 
	nullbs 
	I I 
	0 
	0 
	0 
	F 1 F 0 } I I #
coedge $-1 $290 $289 $415 $416 reversed $291 $-1 #
edge $-1 $292 0 $417 1 $290 $418 forward 7 unknown #
face $-1 $413 $291 $3 $-1 $419 forward single #
point $-1 35.74750400161095598 233.128677048489152 15.00000000000000355 #
coedge $-1 $420 $294 $408 $421 forward $357 $-1 #
coedge $-1 $294 $420 $296 $361 reversed $357 $-1 #
loop $-1 $-1 $420 $422 #
vertex $-1 $345 $423 #
intcurve-curve $-1 forward { exactcur full nubs 1 open 2 
	0 1 1 1 
	19.28845120134924329 223.9631712436676025 15.00000000000000355 
	24.39242028618508584 214.7976654388461384 15.00000000000000355 
	0 
	null_surface 
	null_surface 
	nullbs 
	nullbs 
	I I 
	0 
	0 
	0 
	F 1 F 0 } I I #
coedge $-1 $297 $296 $424 $425 forward $298 $-1 #
edge $-1 $299 0 $426 1 $356 $427 forward 7 unknown #
face $-1 $428 $298 $3 $-1 $429 forward single #
point $-1 24.39242028618508584 214.7976654388461384 15.00000000000000355 #
coedge $-1 $424 $415 $301 $365 forward $430 $-1 #
edge $-1 $368 0 $366 1 $364 $431 forward 7 unknown #
vertex $-1 $425 $432 #
intcurve-curve $-1 forward { exactcur full nubs 1 open 2 
	0 1 1 1 
	35.74750400161095598 214.7976654388461384 0 
	35.74750400161095598 214.7976654388461384 15.00000000000000355 
	0 
	null_surface 
	null_surface 
	nullbs 
	nullbs 
	I I 
	0 
	0 
	0 
	F 1 F 0 } I I #
vertex $-1 $416 $433 #
intcurve-curve $-1 forward { exactcur full nubs 1 open 2 
	0 1 1 1 
	40.85147308644679498 223.9631712436676025 15.00000000000000355 
	40.85147308644679498 223.9631712436676025 0 
	0 
	null_surface 
	null_surface 
	nullbs 
	nullbs 
	I I 
	0 
	0 
	0 
	F 1 F 0 } I I #
plane-surface $-1 38.29948854402887548 219.3804183412568705 7.500000000000001776 0.8736703705110344664 -0.4865183282170485457 0 0 0 -1 forward_v I I I I #
plane-surface $-1 30.06996214389804223 229.9881565774942658 -21.8929500016656533 0 1 0 0 0 1 forward_v I I I I #
coedge $-1 $434 $324 $341 $403 reversed $308 $-1 #
coedge $-1 $435 $310 $312 $378 reversed $254 $-1 #
coedge $-1 $310 $435 $436 $437 forward $254 $-1 #
coedge $-1 $330 $313 $310 $376 forward $231 $-1 #
edge $-1 $379 0 $438 1 $310 $439 forward 7 unknown #
coedge $-1 $312 $311 $440 $441 reversed $219 $-1 #
edge $-1 $442 0 $379 1 $312 $443 forward 7 unknown #
vertex $-1 $314 $444 #
intcurve-curve $-1 forward { exactcur full nubs 1 open 2 
	0 1 1 1 
	28.56996214389803868 222.7281715969378126 -27.00000000000000711 
	28.56996214389803868 225.5346761345863627 -27.00000000000000711 
	0 
	null_surface 
	null_surface 
	nullbs 
	nullbs 
	I I 
	0 
	0 
	0 
	F 1 F 0 } I I #
coedge $-1 $319 $440 $315 $382 forward $308 $-1 #
edge $-1 $383 0 $321 1 $315 $445 forward 7 unknown #
vertex $-1 $316 $446 #
intcurve-curve $-1 forward { exactcur full nubs 1 open 2 
	0 1 1 1 
	28.56996214389803868 222.7281715969378126 -27.00000000000000711 
	31.56996214389803868 222.7281715969378126 -27.00000000000000711 
	0 
	null_surface 
	null_surface 
	nullbs 
	nullbs 
	I I 
	0 
	0 
	0 
	F 1 F 0 } I I #
point $-1 28.56996214389803868 222.7281715969378126 -27.00000000000000711 #
intcurve-curve $-1 forward { exactcur full nubs 1 open 2 
	0 1 1 1 
	31.56996214389805289 222.7281715969377842 -28.78590000333132437 
	31.56996214389804578 224.9881565774942374 -28.78590000333132437 
	0 
	null_surface 
	null_surface 
	nullbs 
	nullbs 
	I I 
	0 
	0 
	0 
	F 1 F 0 } I I #
point $-1 31.56996214389805289 222.7281715969377842 -28.78590000333132437 #
coedge $-1 $331 $341 $326 $389 forward $280 $-1 #
edge $-1 $390 0 $333 1 $326 $447 forward 7 unknown #
vertex $-1 $403 $448 #
intcurve-curve $-1 forward { exactcur full nubs 1 open 2 
	0 1 1 1 
	31.56996214389804578 229.9881565774942658 -23.78590000333131371 
	31.56996214389804578 229.9881565774942658 -19.99999999999999289 
	0 
	null_surface 
	null_surface 
	nullbs 
	nullbs 
	I I 
	0 
	0 
	0 
	F 1 F 0 } I I #
coedge $-1 $436 $337 $330 $393 reversed $397 $-1 #
edge $-1 $438 0 $394 1 $330 $449 forward 7 unknown #
vertex $-1 $332 $450 #
intcurve-curve $-1 forward { exactcur full nubs 1 open 2 
	0 1 1 1 
	28.56996214389803868 229.9881565774942658 -20.00000000000000355 
	28.56996214389803868 228.5346761345863342 -20.00000000000000355 
	0 
	null_surface 
	null_surface 
	nullbs 
	nullbs 
	I I 
	0 
	0 
	0 
	F 1 F 0 } I I #
point $-1 28.56996214389804578 229.9881565774942658 -19.99999999999999289 #
loop $-1 $-1 $392 $335 #
plane-surface $-1 30.06996214389803512 228.5346761345863342 -22 0 -1 0 0 0 -1 forward_v I I I I #
intcurve-curve $-1 forward { exactcur full nubs 1 open 2 
	0.5000000181706479863 1 1 1 
	28.56996214389803868 228.5346761345863342 -20.00000000000000355 
	30.06996208938609882 228.5346761345863342 -20.00000000000000355 
	0 
	null_surface 
	null_surface 
	nullbs 
	nullbs 
	I I 
	0 
	0 
	0 
	F 1 F 0 } I I #
face $-1 $353 $451 $3 $-1 $452 forward single #
loop $-1 $280 $453 $339 #
plane-surface $-1 30.06996214389801736 223.963171243667631 -20.00000000000000355 0 2.720371616400859956e-16 -1 -1 0 0 forward_v I I I I #
edge $-1 $405 0 $390 1 $372 $454 forward 7 unknown #
coedge $-1 $342 $436 $434 $455 reversed $397 $-1 #
vertex $-1 $403 $456 #
intcurve-curve $-1 forward { exactcur full nubs 1 open 2 
	0 1 0.5000000181706479863 1 
	30.06996208938609882 228.5346761345863342 -20.00000000000000355 
	31.56996214389803868 228.5346761345863342 -20.00000000000000355 
	0 
	null_surface 
	null_surface 
	nullbs 
	nullbs 
	I I 
	0 
	0 
	0 
	F 1 F 0 } I I #
coedge $-1 $457 $344 $347 $412 forward $409 $-1 #
coedge $-1 $344 $457 $355 $421 reversed $409 $-1 #
loop $-1 $-1 $457 $458 #
intcurve-curve $-1 forward { exactcur full nubs 1 open 2 
	0 1 1 1 
	24.39242028618509295 233.128677048489152 15.00000000000000355 
	19.28845120134924329 223.9631712436676025 15.00000000000000355 
	0 
	null_surface 
	null_surface 
	nullbs 
	nullbs 
	I I 
	0 
	0 
	0 
	F 1 F 0 } I I #
coedge $-1 $347 $346 $459 $460 reversed $348 $-1 #
edge $-1 $349 0 $461 1 $347 $462 forward 7 unknown #
face $-1 $458 $348 $3 $-1 $463 forward single #
point $-1 24.39242028618509295 233.128677048489152 15.00000000000000355 #
coedge $-1 $364 $459 $351 $416 forward $430 $-1 #
edge $-1 $417 0 $368 1 $351 $464 forward 7 unknown #
vertex $-1 $416 $465 #
intcurve-curve $-1 forward { exactcur full nubs 1 open 2 
	0 1 1 1 
	35.74750400161095598 233.128677048489152 15.00000000000000355 
	35.74750400161095598 233.128677048489152 0 
	0 
	null_surface 
	null_surface 
	nullbs 
	nullbs 
	I I 
	0 
	0 
	0 
	F 1 F 0 } I I #
plane-surface $-1 38.29948854402887548 228.5459241460783915 7.500000000000001776 0.8736703705110363538 0.486518328217045104 -0 -0 0 -1 forward_v I I I I #
coedge $-1 $356 $355 $466 $467 reversed $357 $-1 #
edge $-1 $358 0 $468 1 $408 $469 forward 7 unknown #
face $-1 $362 $357 $3 $-1 $470 forward single #
point $-1 19.28845120134924329 223.9631712436676025 15.00000000000000355 #
coedge $-1 $466 $364 $360 $425 reversed $430 $-1 #
edge $-1 $426 0 $366 1 $360 $471 forward 7 unknown #
vertex $-1 $467 $472 #
intcurve-curve $-1 forward { exactcur full nubs 1 open 2 
	0 1 1 1 
	24.39242028618508584 214.7976654388461384 15.00000000000000355 
	24.39242028618508584 214.7976654388461384 0 
	0 
	null_surface 
	null_surface 
	nullbs 
	nullbs 
	I I 
	0 
	0 
	0 
	F 1 F 0 } I I #
face $-1 $304 $430 $3 $-1 $473 forward single #
plane-surface $-1 30.06996214389802091 214.7976654388461384 7.500000000000001776 0 -1 0 0 0 -1 forward_v I I I I #
loop $-1 $474 $424 $428 #
intcurve-curve $-1 forward { exactcur full nubs 1 open 2 
	0 1 1 1 
	40.85147308644679498 223.9631712436676025 0 
	35.74750400161095598 214.7976654388461384 0 
	0 
	null_surface 
	null_surface 
	nullbs 
	nullbs 
	I I 
	0 
	0 
	0 
	F 1 F 0 } I I #
point $-1 35.74750400161095598 214.7976654388461384 0 #
point $-1 40.85147308644679498 223.9631712436676025 0 #
coedge $-1 $475 $372 $404 $455 forward $308 $-1 #
coedge $-1 $374 $373 $475 $476 reversed $254 $-1 #
coedge $-1 $404 $392 $374 $437 reversed $397 $-1 #
edge $-1 $477 0 $438 1 $374 $478 forward 7 unknown #
vertex $-1 $376 $479 #
intcurve-curve $-1 forward { exactcur full nurbs 2 open 2 
	0 2 1 2 
	28.56996214389803868 225.5346761345863627 -27.00000000000000711 1 
	28.56996214389803157 228.5346761345861921 -26.99999999999991829 0.7071067811865660024 
	28.56996214389803868 228.5346761345863342 -24 1 
	0 
	null_surface 
	null_surface 
	nullbs 
	nullbs 
	I I 
	0 
	0 
	0 
	F 1 F 0 } I I #
coedge $-1 $381 $475 $377 $441 forward $308 $-1 #
edge $-1 $442 0 $383 1 $377 $480 forward 7 unknown #
vertex $-1 $378 $481 #
intcurve-curve $-1 forward { exactcur full nubs 1 open 2 
	0 1 1 1 
	31.56996214389803868 225.5346761345863627 -27.00000000000000711 
	28.56996214389803868 225.5346761345863627 -27.00000000000000711 
	0 
	null_surface 
	null_surface 
	nullbs 
	nullbs 
	I I 
	0 
	0 
	0 
	F 1 F 0 } I I #
point $-1 28.56996214389803868 225.5346761345863627 -27.00000000000000711 #
intcurve-curve $-1 forward { exactcur full nubs 1 open 2 
	0 1 1 1 
	31.56996214389803868 222.7281715969378126 -27.00000000000000711 
	31.56996214389805289 222.7281715969377842 -28.78590000333132437 
	0 
	null_surface 
	null_surface 
	nullbs 
	nullbs 
	I I 
	0 
	0 
	0 
	F 1 F 0 } I I #
point $-1 31.56996214389803868 222.7281715969378126 -27.00000000000000711 #
intcurve-curve $-1 forward { exactcur full nubs 1 open 2 
	0 1 1 1 
	31.56996214389804578 229.9881565774942658 -19.99999999999999289 
	28.56996214389804578 229.9881565774942658 -19.99999999999999289 
	0 
	null_surface 
	null_surface 
	nullbs 
	nullbs 
	I I 
	0 
	0 
	0 
	F 1 F 0 } I I #
point $-1 31.56996214389804578 229.9881565774942658 -19.99999999999999289 #
intcurve-curve $-1 forward { exactcur full nubs 1 open 2 
	0 1 1 1 
	28.56996214389803868 228.5346761345863342 -24 
	28.56996214389803868 228.5346761345863342 -20.00000000000000355 
	0 
	null_surface 
	null_surface 
	nullbs 
	nullbs 
	I I 
	0 
	0 
	0 
	F 1 F 0 } I I #
point $-1 28.56996214389803868 228.5346761345863342 -20.00000000000000355 #
loop $-1 $-1 $482 $400 #
cone-surface $-1 30.06996214389802446 223.963171243667631 -4.000000000000000888 0 0 -1 1.881578947368417687 -6.221708821925034272 0 1 I I 0 1 6.499999999999987566 forward I I I I #
coedge $-1 $453 $453 $483 $484 reversed $401 $-1 #
intcurve-curve $-1 forward { exactcur full nubs 1 open 2 
	0 1 1 1 
	31.56996214389803868 228.5346761345863342 -20.00000000000000355 
	31.56996214389803868 229.9881565774942658 -20.00000000000000355 
	0 
	null_surface 
	null_surface 
	nullbs 
	nullbs 
	I I 
	0 
	0 
	0 
	F 1 F 0 } I I #
edge $-1 $405 0 $477 1 $434 $485 forward 7 unknown #
point $-1 31.56996214389803868 228.5346761345863342 -20.00000000000000355 #
coedge $-1 $408 $407 $486 $487 reversed $409 $-1 #
face $-1 $422 $409 $3 $-1 $488 forward single #
coedge $-1 $415 $486 $411 $460 forward $430 $-1 #
edge $-1 $461 0 $417 1 $411 $489 forward 7 unknown #
vertex $-1 $460 $490 #
intcurve-curve $-1 forward { exactcur full nubs 1 open 2 
	0 1 1 1 
	24.39242028618509295 233.128677048489152 15.00000000000000355 
	24.39242028618509295 233.128677048489152 0 
	0 
	null_surface 
	null_surface 
	nullbs 
	nullbs 
	I I 
	0 
	0 
	0 
	F 1 F 0 } I I #
plane-surface $-1 30.06996214389802446 233.128677048489152 7.500000000000001776 0 1 -0 -0 0 1 forward_v I I I I #
intcurve-curve $-1 forward { exactcur full nubs 1 open 2 
	0 1 1 1 
	35.74750400161095598 233.128677048489152 0 
	40.85147308644679498 223.9631712436676025 0 
	0 
	null_surface 
	null_surface 
	nullbs 
	nullbs 
	I I 
	0 
	0 
	0 
	F 1 F 0 } I I #
point $-1 35.74750400161095598 233.128677048489152 0 #
coedge $-1 $486 $424 $420 $467 forward $430 $-1 #
edge $-1 $426 0 $468 1 $420 $491 forward 7 unknown #
vertex $-1 $487 $492 #
intcurve-curve $-1 forward { exactcur full nubs 1 open 2 
	0 1 1 1 
	19.28845120134924329 223.9631712436676025 15.00000000000000355 
	19.28845120134924329 223.9631712436676025 0 
	0 
	null_surface 
	null_surface 
	nullbs 
	nullbs 
	I I 
	0 
	0 
	0 
	F 1 F 0 } I I #
plane-surface $-1 21.84043574376716634 219.3804183412568705 7.500000000000001776 -0.8736703705110342444 -0.4865183282170487677 0 0 -0 1 forward_v I I I I #
intcurve-curve $-1 forward { exactcur full nubs 1 open 2 
	0 1 1 1 
	24.39242028618508584 214.7976654388461384 0 
	35.74750400161095598 214.7976654388461384 0 
	0 
	null_surface 
	null_surface 
	nullbs 
	nullbs 
	I I 
	0 
	0 
	0 
	F 1 F 0 } I I #
point $-1 24.39242028618508584 214.7976654388461384 0 #
plane-surface $-1 30.06996214389801736 223.963171243667631 0 0 0 -1 -1 0 0 forward_v I I I I #
loop $-1 $-1 $493 $428 #
coedge $-1 $440 $434 $435 $476 forward $308 $-1 #
edge $-1 $477 0 $442 1 $435 $494 forward 7 unknown #
vertex $-1 $437 $495 #
intcurve-curve $-1 forward { exactcur full nubs 1 open 2 
	0 1 1 1 
	31.56996214389803868 228.5346761345863342 -24 
	28.56996214389803868 228.5346761345863342 -24 
	0 
	null_surface 
	null_surface 
	nullbs 
	nullbs 
	I I 
	0 
	0 
	0 
	F 1 F 0 } I I #
point $-1 28.56996214389803868 228.5346761345863342 -24 #
intcurve-curve $-1 forward { exactcur full nubs 1 open 2 
	0 1 1 1 
	31.56996214389803868 225.5346761345863627 -27.00000000000000711 
	31.56996214389803868 222.7281715969378126 -27.00000000000000711 
	0 
	null_surface 
	null_surface 
	nullbs 
	nullbs 
	I I 
	0 
	0 
	0 
	F 1 F 0 } I I #
point $-1 31.56996214389803868 225.5346761345863627 -27.00000000000000711 #
coedge $-1 $496 $497 $493 $498 forward $451 $-1 #
coedge $-1 $497 $496 $453 $484 forward $451 $-1 #
edge $-1 $499 0 $499 1 $453 $500 forward 7 unknown #
intcurve-curve $-1 forward { exactcur full nubs 1 open 2 
	0 1 1 1 
	31.56996214389803868 228.5346761345863342 -20.00000000000000355 
	31.56996214389803868 228.5346761345863342 -24 
	0 
	null_surface 
	null_surface 
	nullbs 
	nullbs 
	I I 
	0 
	0 
	0 
	F 1 F 0 } I I #
coedge $-1 $459 $466 $457 $487 forward $430 $-1 #
edge $-1 $468 0 $461 1 $457 $501 forward 7 unknown #
plane-surface $-1 21.84043574376716634 228.5459241460783915 7.500000000000001776 -0.8736703705110360207 0.4865183282170458812 0 0 -0 1 forward_v I I I I #
intcurve-curve $-1 forward { exactcur full nubs 1 open 2 
	0 1 1 1 
	24.39242028618509295 233.128677048489152 0 
	35.74750400161095598 233.128677048489152 0 
	0 
	null_surface 
	null_surface 
	nullbs 
	nullbs 
	I I 
	0 
	0 
	0 
	F 1 F 0 } I I #
point $-1 24.39242028618509295 233.128677048489152 0 #
intcurve-curve $-1 forward { exactcur full nubs 1 open 2 
	0 1 1 1 
	24.39242028618508584 214.7976654388461384 0 
	19.28845120134924329 223.9631712436676025 0 
	0 
	null_surface 
	null_surface 
	nullbs 
	nullbs 
	I I 
	0 
	0 
	0 
	F 1 F 0 } I I #
point $-1 19.28845120134924329 223.9631712436676025 0 #
coedge $-1 $493 $493 $482 $498 reversed $474 $-1 #
intcurve-curve $-1 forward { exactcur full nurbs 2 open 2 
	0 2 1 2 
	31.56996214389803868 228.5346761345863342 -24 1 
	31.56996214389803157 228.5346761345861921 -26.99999999999991829 0.7071067811865660024 
	31.56996214389803868 225.5346761345863627 -27.00000000000000711 1 
	0 
	null_surface 
	null_surface 
	nullbs 
	nullbs 
	I I 
	0 
	0 
	0 
	F 1 F 0 } I I #
point $-1 31.56996214389803868 228.5346761345863342 -24 #
coedge $-1 $483 $482 $497 $502 forward $451 $-1 #
coedge $-1 $482 $483 $496 $502 reversed $451 $-1 #
edge $-1 $503 0 $503 1 $482 $504 forward 7 unknown #
vertex $-1 $484 $505 #
intcurve-curve $-1 forward { exactcur full nurbs 2 periodic 4 
	0 2 0.3333333333333329818 2 0.6666666666666669627 2 1 2 
	36.56996214389802446 223.9631712436676025 -20.00000000000000355 1 
	36.56996214389801736 235.2215014928653147 -20.00000000000000355 0.5 
	26.81996214389802091 229.5923363682664728 -20.00000000000000355 1 
	17.06996214389802446 223.9631712436676025 -20.00000000000000355 0.5 
	26.81996214389801381 218.3340061190687607 -20.00000000000000355 1 
	36.56996214389801736 212.7048409944699188 -20.00000000000000355 0.5 
	36.56996214389802446 223.9631712436676025 -20.00000000000000355 1 
	0 
	null_surface 
	null_surface 
	nullbs 
	nullbs 
	I I 
	0 
	0 
	0 
	F 1 F 0 } I I #
intcurve-curve $-1 forward { exactcur full nubs 1 open 2 
	0 1 1 1 
	19.28845120134924329 223.9631712436676025 0 
	24.39242028618509295 233.128677048489152 0 
	0 
	null_surface 
	null_surface 
	nullbs 
	nullbs 
	I I 
	0 
	0 
	0 
	F 1 F 0 } I I #
edge $-1 $503 0 $499 1 $497 $506 forward 7 unknown #
vertex $-1 $498 $507 #
intcurve-curve $-1 forward { exactcur full nurbs 2 periodic 4 
	0 2 0.3333333333333329818 2 0.6666666666666669627 2 1 2 
	36.56996214389802446 223.9631712436676025 0 1 
	36.56996214389801736 212.7048409944699188 0 0.5 
	26.81996214389801381 218.3340061190687607 0 1 
	17.06996214389802446 223.9631712436676025 0 0.5 
	26.81996214389802091 229.5923363682664728 0 1 
	36.56996214389801736 235.2215014928653147 0 0.5 
	36.56996214389802446 223.9631712436676025 0 1 
	0 
	null_surface 
	null_surface 
	nullbs 
	nullbs 
	I I 
	0 
	0 
	0 
	F 1 F 0 } I I #
point $-1 36.56996214389802446 223.9631712436676025 -20.00000000000000355 #
intcurve-curve $-1 forward { exactcur full nubs 1 open 2 
	0 1 1 1 
	36.56996214389802446 223.9631712436676025 0 
	36.56996214389802446 223.9631712436676025 -20.00000000000000355 
	0 
	null_surface 
	null_surface 
	nullbs 
	nullbs 
	I I 
	0 
	0 
	0 
	F 1 F 0 } I I #
point $-1 36.56996214389802446 223.9631712436676025 0 #
End-of-ACIS-data 