600 0 1 0           
82 GICL ACIS Healer - Source: /gicl/data5/repository/SDRC_I-DEAS/bmw/Part13.sat - 6 0 18 ACIS 6.0.3 Solaris 24 Sat Apr 13 23:15:21 2002 
1 9.999999999999999547e-07 1.000000000000000036e-10 
body $-1 $1 $-1 $-1 #
lump $-1 $-1 $2 $0 #
shell $-1 $-1 $-1 $3 $-1 $1 #
face $-1 $4 $5 $2 $-1 $6 forward single #
face $-1 $7 $8 $2 $-1 $9 forward single #
loop $-1 $-1 $10 $3 #
plane-surface $-1 -328.4550030786908223 1.4452863910108249e-06 50.70816786819879241 0.9063077870366460509 -8.000736671066446818e-09 -0.4226182617407078235 -0.4226182617407078235 0 -0.9063077870366460509 forward_v I I I I #
face $-1 $11 $12 $2 $-1 $13 forward single #
loop $-1 $-1 $14 $4 #
cone-surface $-1 -331.7931898501490195 1.4747553684912873e-06 52.26478992408151214 0.9063077870366481603 -8.000738245548767501e-09 -0.4226182617407030495 -0.6844547934164506575 9.493764423384462248 -1.467818220987370914 1 I I -0.5812381937190969072 0.8137334712067346709 9.630915409285547568 forward I I I I #
coedge $-1 $10 $10 $15 $16 forward $5 $-1 #
face $-1 $17 $18 $2 $-1 $19 forward single #
loop $-1 $20 $21 $7 #
plane-surface $-1 -334.7991575879473203 1.501291482242095299e-06 53.66649570038367756 0.906307787036646828 -8.000738524402962299e-09 -0.4226182617407060471 -0.4226182617407061026 0 -0.9063077870366469391 forward_v I I I I #
coedge $-1 $15 $22 $23 $24 forward $8 $-1 #
coedge $-1 $23 $14 $10 $16 reversed $8 $-1 #
edge $-1 $25 0 $25 1 $10 $26 forward 7 unknown #
face $-1 $27 $28 $2 $-1 $29 forward single #
loop $-1 $-1 $30 $11 #
cone-surface $-1 -335.1616807027622258 1.504491789816597702e-06 53.83554300508007628 -0.9063077870366470501 8.000748567222224667e-09 0.422618261740705603 -3.611692050512147034 13.52649349268675927 -7.745298853147765783 1 I I 0 1 16.0000000000000604 forward I I I I #
loop $-1 $-1 $31 $7 #
coedge $-1 $21 $21 $32 $33 forward $12 $-1 #
coedge $-1 $14 $23 $31 $34 forward $8 $-1 #
coedge $-1 $22 $15 $14 $24 reversed $8 $-1 #
edge $-1 $35 0 $25 1 $14 $36 forward 7 unknown #
vertex $-1 $16 $37 #
intcurve-curve $-1 forward { exactcur full nurbs 2 periodic 4 
	0 2 0.3333333333333329818 2 0.6666666666666669627 2 1 2 
	-326.5184945594795636 5.2918558731695029 54.86102368909081406 1 
	-322.6448767475229715 -2.644694393935455246 63.16802404449042996 0.5 
	-327.4864484323180704 -6.614200902207620913 52.78524013545256821 1 
	-332.3280201171131694 -10.58370741047979635 42.4024562264147562 0.5 
	-331.3600662442747193 1.322349364897263513 44.4782397800529381 1 
	-330.392112371436383 13.22840614027436956 46.55402333369114132 0.5 
	-326.5184945594795636 5.2918558731695029 54.86102368909081406 1 
	0 
	null_surface 
	null_surface 
	nullbs 
	nullbs 
	I I 
	0 
	0 
	0 
	F 1 F 0 } I I #
face $-1 $38 $39 $2 $-1 $40 forward single #
loop $-1 $41 $42 $17 #
plane-surface $-1 -336.6117731620205404 1.51729300768010944e-06 54.51173222386508144 -0.906307787036646717 8.000739029049796788e-09 0.4226182617407061581 0.4226182617407062136 -0 0.906307787036646828 forward_v I I I I #
coedge $-1 $32 $43 $44 $45 forward $18 $-1 #
coedge $-1 $31 $31 $22 $34 reversed $20 $-1 #
coedge $-1 $44 $30 $21 $33 reversed $18 $-1 #
edge $-1 $46 0 $46 1 $21 $47 forward 7 unknown #
edge $-1 $35 0 $35 11.47676854415981751 $22 $48 forward 7 unknown #
vertex $-1 $34 $49 #
intcurve-curve $-1 forward { exactcur full nubs 1 open 2 
	0 1 1 1 
	-331.4794286978710147 9.071751949091158451 60.78567710762716558 
	-326.5184945594795636 5.2918558731695029 54.86102368909081406 
	0 
	null_surface 
	null_surface 
	nullbs 
	nullbs 
	I I 
	0 
	0 
	0 
	F 1 F 0 } I I #
point $-1 -326.5184945594795636 5.2918558731695029 54.86102368909081406 #
face $-1 $-1 $50 $2 $-1 $51 forward single #
loop $-1 $-1 $52 $27 #
cone-surface $-1 -333.2735863905622296 1.487824087931244321e-06 52.95511016798237591 0.9063077870366492705 -8.000737147887956167e-09 -0.4226182617407009401 -0.5927006151579752302 8.221083507674491031 -1.271050726632811045 1 I I 0.5812381937191001269 -0.8137334712067324505 8.339848800130608808 forward I I I I #
loop $-1 $-1 $53 $17 #
coedge $-1 $42 $42 $43 $54 reversed $28 $-1 #
coedge $-1 $30 $44 $42 $54 forward $18 $-1 #
coedge $-1 $43 $32 $30 $45 reversed $18 $-1 #
edge $-1 $55 0 $46 1 $30 $56 forward 7 unknown #
vertex $-1 $33 $57 #
intcurve-curve $-1 forward { exactcur full nurbs 2 periodic 4 
	0 2 0.3333333333333329818 2 0.6666666666666669627 2 1 2 
	-330.3728524011789318 12.09566876502427846 63.15873757670832589 1 
	-321.5188688309922895 -6.045017559786863615 82.14616696047896482 0.5 
	-332.5853183962382218 -15.11817529298048157 58.41408945410665865 1 
	-343.6517679614842109 -24.19133302617400005 34.68201194773444485 0.5 
	-341.4393019664248072 3.022511031830717343 39.42666007033607656 1 
	-339.2268359713655173 30.23635508983554132 44.17130819293775801 0.5 
	-330.3728524011789318 12.09566876502427846 63.15873757670832589 1 
	0 
	null_surface 
	null_surface 
	nullbs 
	nullbs 
	I I 
	0 
	0 
	0 
	F 1 F 0 } I I #
intcurve-curve $-1 forward { exactcur full nurbs 2 periodic 4 
	0 2 3.825589514719939022 2 7.651179029439877155 2 11.47676854415981751 2 
	-331.4794286978710147 9.071751949091158451 60.78567710762716558 1 
	-324.8389410202310614 -4.533762794517283368 75.02624914545515367 0.5 
	-333.1387781941655248 -11.3386310944124773 57.22719101567592759 1 
	-341.4386153681000451 -18.14349939430759662 39.42813288589678677 0.5 
	-339.7792658718054781 2.266883649195911232 42.98661897784796793 1 
	-338.1199163755111385 22.67726669269956119 46.54510506979926276 0.5 
	-331.4794286978710147 9.071751949091158451 60.78567710762716558 1 
	0 
	null_surface 
	null_surface 
	nullbs 
	nullbs 
	I I 
	0 
	0 
	0 
	F 1 F 0 } I I #
point $-1 -331.4794286978710147 9.071751949091158451 60.78567710762716558 #
loop $-1 $-1 $58 $38 #
plane-surface $-1 -330.2676186527640994 1.461287827630997072e-06 51.55340439168017497 -0.9063077870366477162 8.000745771942141166e-09 0.4226182617407044373 0.4226182617407044373 -0 0.9063077870366477162 forward_v I I I I #
coedge $-1 $59 $60 $61 $62 forward $39 $-1 #
coedge $-1 $53 $53 $59 $63 forward $41 $-1 #
edge $-1 $55 0 $55 83.13843876330609817 $43 $64 forward 7 unknown #
vertex $-1 $54 $65 #
intcurve-curve $-1 forward { exactcur full nubs 1 open 2 
	0 1 1 1 
	-332.1854679752522088 12.09566878102580034 64.00397410018975108 
	-330.3728524011789318 12.09566876502427846 63.15873757670832589 
	0 
	null_surface 
	null_surface 
	nullbs 
	nullbs 
	I I 
	0 
	0 
	0 
	F 1 F 0 } I I #
point $-1 -330.3728524011789318 12.09566876502427846 63.15873757670832589 #
coedge $-1 $58 $58 $60 $66 reversed $50 $-1 #
coedge $-1 $61 $52 $53 $63 reversed $39 $-1 #
coedge $-1 $52 $61 $58 $66 forward $39 $-1 #
coedge $-1 $60 $59 $52 $62 reversed $39 $-1 #
edge $-1 $67 0 $68 1 $52 $69 forward 7 unknown #
edge $-1 $68 0 $68 1 $53 $70 forward 7 unknown #
intcurve-curve $-1 forward { exactcur full nurbs 2 periodic 4 
	0 2 27.71281292110203509 2 55.42562584220406308 2 83.13843876330609817 2 
	-332.1854679752522088 12.09566878102580034 64.00397410018975108 1 
	-323.3314844050655665 -6.045017543785380809 82.99140348396039712 0.5 
	-334.3979339703115556 -15.11817527697896679 59.25932597758809095 1 
	-345.4643835355574879 -24.19133301017252791 35.52724847121584872 0.5 
	-343.2519175404981411 3.022511047832217912 40.27189659381750886 1 
	-341.0394515454388511 30.23635510583701347 45.01654471641916899 0.5 
	-332.1854679752522088 12.09566878102580034 64.00397410018975108 1 
	0 
	null_surface 
	null_surface 
	nullbs 
	nullbs 
	I I 
	0 
	0 
	0 
	F 1 F 0 } I I #
point $-1 -332.1854679752522088 12.09566878102580034 64.00397410018975108 #
edge $-1 $67 0 $67 10.23336844459189443 $60 $71 forward 7 unknown #
vertex $-1 $66 $72 #
vertex $-1 $63 $73 #
intcurve-curve $-1 forward { exactcur full nubs 1 open 2 
	0 1 1 1 
	-328.6158421159446448 4.513775035494262511 55.09565052057267565 
	-333.5767762543360391 8.293671111415896746 61.02030393910901296 
	0 
	null_surface 
	null_surface 
	nullbs 
	nullbs 
	I I 
	0 
	0 
	0 
	F 1 F 0 } I I #
intcurve-curve $-1 forward { exactcur full nurbs 2 periodic 4 
	0 2 0.3333333333333329818 2 0.6666666666666669627 2 1 2 
	-333.5767762543360391 8.293671111415896746 61.02030393910901296 1 
	-327.5058408754258039 -4.144903405239373839 74.03946710862697955 0.5 
	-335.093803926407702 -10.36612053809601974 57.76702795100206345 1 
	-342.6817669773894863 -16.58733767095278466 41.49458879337710471 0.5 
	-341.1647393053177666 2.072453978559202881 44.74786478148411817 1 
	-339.6477116332461037 20.73224562807112648 48.00114076959106058 0.5 
	-333.5767762543360391 8.293671111415896746 61.02030393910901296 1 
	0 
	null_surface 
	null_surface 
	nullbs 
	nullbs 
	I I 
	0 
	0 
	0 
	F 1 F 0 } I I #
intcurve-curve $-1 forward { exactcur full nurbs 2 periodic 4 
	0 2 3.411122814863964958 2 6.822245629727929916 2 10.23336844459189443 2 
	-328.6158421159446448 4.513775035494262511 55.09565052057267565 1 
	-325.3117766027178277 -2.255835004657519072 62.18124200766234111 0.5 
	-329.4414741645603613 -5.641690345891220204 53.32507707077866144 1 
	-333.5711717264027811 -9.02754568712494887 44.46891213389511677 0.5 
	-332.7455396777871215 1.127919694260569372 46.23948558368908834 1 
	-331.9199076291714618 11.2833850756459988 48.0100590334830386 0.5 
	-328.6158421159446448 4.513775035494262511 55.09565052057267565 1 
	0 
	null_surface 
	null_surface 
	nullbs 
	nullbs 
	I I 
	0 
	0 
	0 
	F 1 F 0 } I I #
point $-1 -328.6158421159446448 4.513775035494262511 55.09565052057267565 #
point $-1 -333.5767762543360391 8.293671111415896746 61.02030393910901296 #
End-of-ACIS-data 