600 0 1 0           
82 GICL ACIS Healer - Source: /gicl/data5/repository/SDRC_I-DEAS/bmw/Part36.sat - 6 0 18 ACIS 6.0.3 Solaris 24 Sat Apr 13 23:15:54 2002 
1 9.999999999999999547e-07 1.000000000000000036e-10 
body $-1 $1 $-1 $-1 #
lump $-1 $-1 $2 $0 #
shell $-1 $-1 $-1 $3 $-1 $1 #
face $-1 $4 $5 $2 $-1 $6 reversed single #
face $-1 $7 $8 $2 $-1 $9 reversed single #
loop $-1 $-1 $10 $3 #
plane-surface $-1 -329.3782356409544718 7.323691832018518255 -104.1085996722524811 0.3347038706432534094 -0.6105511586102427835 -0.7177747569371009106 -0.9063077847862606173 0 -0.4226182665666750604 forward_v I I I I #
face $-1 $11 $12 $2 $-1 $13 reversed single #
loop $-1 $-1 $14 $4 #
cone-surface $-1 -330.7170511276159459 9.765896438765020449 -101.2375006228531618 0.3347038706432341471 -0.6105511586102693178 -0.7177747569370874769 0.8304272871786224641 0.3068691354161536822 0.1262066132319148437 1 I I 0 1 0.8942629673565679616 forward I I I I #
coedge $-1 $10 $10 $15 $16 forward $5 $-1 #
face $-1 $17 $18 $2 $-1 $19 reversed single #
loop $-1 $-1 $20 $7 #
plane-surface $-1 -332.3819168255045042 -13.02256107695762388 -88.202377757977942 0.3347038706432351463 -0.6105511586102699839 -0.7177747569370863667 -0.9063077847862661685 0 -0.4226182665666631255 forward_v I I I I #
coedge $-1 $21 $22 $23 $24 reversed $8 $-1 #
coedge $-1 $22 $21 $10 $16 reversed $8 $-1 #
edge $-1 $25 0 $25 1 $10 $26 forward 7 unknown #
face $-1 $27 $28 $2 $-1 $29 forward single #
loop $-1 $-1 $30 $11 #
cone-surface $-1 -333.7207323584255505 -10.58035642191415171 -85.33127877123206417 0.3347038706432352018 -0.6105511586102695398 -0.7177747569370868108 0.1363237915760464602 -0.6076204014134276576 0.5804208587067734015 1 I I 0 1 0.8512785099985741288 forward I I I I #
coedge $-1 $20 $20 $31 $32 forward $12 $-1 #
coedge $-1 $15 $14 $22 $33 forward $8 $-1 #
coedge $-1 $14 $15 $21 $33 reversed $8 $-1 #
coedge $-1 $23 $23 $14 $24 forward $34 $-1 #
edge $-1 $35 0 $35 1 $14 $36 forward 7 unknown #
vertex $-1 $16 $37 #
intcurve-curve $-1 forward { exactcur full nurbs 2 periodic 4 
	0 2 0.3333333333333329818 2 0.6666666666666669627 2 1 2 
	-329.274924841563859 8.023495668084613897 -104.655689848773136 1 
	-330.7234876070170344 7.83477258977766855 -105.1706347765207568 0.5 
	-330.154172429509174 6.879428333290100284 -104.0925270153895212 1 
	-329.5848572520011999 5.924084076802550669 -103.0144192542582005 0.5 
	-328.7056096640559986 7.068151411597106915 -103.5775820876418436 1 
	-327.8263620761106836 8.212218746391606317 -104.1407449210255294 0.5 
	-329.274924841563859 8.023495668084613897 -104.655689848773136 1 
	0 
	null_surface 
	null_surface 
	nullbs 
	nullbs 
	I I 
	0 
	0 
	0 
	F 1 F 0 } I I #
face $-1 $38 $39 $2 $-1 $40 forward single #
loop $-1 $41 $42 $17 #
plane-surface $-1 -334.0554366904240169 -9.969808388418826439 -84.61350157115364823 -0.3347038706432304278 0.6105511586102709831 0.717774756937087699 0.906307784786268833 -0 0.4226182665666576854 forward_v I I I I #
coedge $-1 $43 $44 $45 $46 reversed $18 $-1 #
coedge $-1 $44 $43 $20 $32 reversed $18 $-1 #
edge $-1 $47 0 $47 1 $20 $48 forward 7 unknown #
edge $-1 $35 0 $25 1 $22 $49 forward 7 unknown #
loop $-1 $-1 $23 $38 #
vertex $-1 $24 $50 #
intcurve-curve $-1 forward { exactcur full nurbs 2 periodic 4 
	0 2 0.3333333333333329818 2 0.6666666666666669627 2 1 2 
	-330.9484441947800519 11.07625146113597481 -101.0668160640877034 1 
	-329.4998814293268765 11.26497453944293881 -100.5518711363400541 0.5 
	-330.3791290172721347 10.12090720464842519 -99.98870830295641099 1 
	-331.2583766052173928 8.976839869853897369 -99.42554546957282469 0.5 
	-331.8276917827254238 9.932184126341432773 -100.5036532307040602 1 
	-332.3970069602332273 10.8875283828289966 -101.5817609918353099 0.5 
	-330.9484441947800519 11.07625146113597481 -101.0668160640877034 1 
	0 
	null_surface 
	null_surface 
	nullbs 
	nullbs 
	I I 
	0 
	0 
	0 
	F 1 F 0 } I I #
point $-1 -329.274924841563859 8.023495668084613897 -104.655689848773136 #
face $-1 $-1 $51 $2 $-1 $52 forward single #
loop $-1 $-1 $53 $27 #
torus-surface $-1 -332.5535956136638447 0.2033211670356473988 -92.56661494010549518 -0.9352149570105294796 -0.1218425944494833796 -0.3324565631200748772 12.99999999999992717 2.00000000000011724 -0.3347038706432290955 0.6105511586102685406 0.7177747569370904746 forward_v I I I I #
loop $-1 $-1 $45 $17 #
coedge $-1 $42 $42 $53 $54 reversed $28 $-1 #
coedge $-1 $31 $30 $44 $55 forward $18 $-1 #
coedge $-1 $30 $31 $43 $55 reversed $18 $-1 #
coedge $-1 $45 $45 $30 $46 forward $41 $-1 #
edge $-1 $56 0 $56 1 $30 $57 forward 7 unknown #
vertex $-1 $32 $58 #
intcurve-curve $-1 forward { exactcur full nurbs 2 periodic 4 
	0 2 0.3333333333333329818 2 0.6666666666666669627 2 1 2 
	-331.5857884807202822 -12.91883907409788179 -87.91936467128832078 1 
	-331.4154499918362262 -11.76500492845303825 -88.82140506301425376 0.5 
	-332.6948118289768104 -12.49750497466146726 -88.79490455868946697 1 
	-333.9741736661172808 -13.23000502086990338 -88.76840405436468018 0.5 
	-332.8651503178609232 -13.6513391203063037 -87.89286416696353399 1 
	-331.7561269696043382 -14.07267321974271113 -87.01732427956233096 0.5 
	-331.5857884807202822 -12.91883907409788179 -87.91936467128832078 1 
	0 
	null_surface 
	null_surface 
	nullbs 
	nullbs 
	I I 
	0 
	0 
	0 
	F 1 F 0 } I I #
intcurve-curve $-1 forward { exactcur full nubs 1 open 2 
	0 1 1 1 
	-330.9484441947800519 11.07625146113597481 -101.0668160640877034 
	-329.274924841563859 8.023495668084613897 -104.655689848773136 
	0 
	null_surface 
	null_surface 
	nullbs 
	nullbs 
	I I 
	0 
	0 
	0 
	F 1 F 0 } I I #
point $-1 -330.9484441947800519 11.07625146113597481 -101.0668160640877034 #
loop $-1 $34 $59 $38 #
plane-surface $-1 -331.0517545369039567 10.37645072249022959 -100.5197283090574274 -0.3347038706432436395 0.6105511586102733146 0.7177747569370794833 0.9063077847862605063 -0 0.4226182665666752825 forward_v I I I I #
coedge $-1 $60 $61 $42 $54 forward $39 $-1 #
edge $-1 $62 0 $62 1 $42 $63 forward 7 unknown #
edge $-1 $56 0 $47 1 $44 $64 forward 7 unknown #
vertex $-1 $46 $65 #
intcurve-curve $-1 forward { exactcur full nurbs 2 periodic 4 
	0 2 0.3333333333333329818 2 0.6666666666666669627 2 1 2 
	-333.2593078339364752 -9.866083281046549303 -84.33049088660285975 1 
	-333.4296463228205312 -11.01991742669136976 -83.42845049487692677 0.5 
	-334.5386696710770593 -10.59858332725494279 -84.30399038227810138 1 
	-335.6476930193334738 -10.17724922781853536 -85.17953026967927599 0.5 
	-334.3683311821930602 -9.444749181610120559 -85.20603077400403436 1 
	-333.088969345052476 -8.712249135401712863 -85.23253127832882114 0.5 
	-333.2593078339364752 -9.866083281046549303 -84.33049088660285975 1 
	0 
	null_surface 
	null_surface 
	nullbs 
	nullbs 
	I I 
	0 
	0 
	0 
	F 1 F 0 } I I #
point $-1 -331.5857884807202822 -12.91883907409788179 -87.91936467128832078 #
coedge $-1 $59 $59 $66 $67 reversed $51 $-1 #
coedge $-1 $66 $53 $61 $68 reversed $39 $-1 #
coedge $-1 $53 $66 $60 $68 forward $39 $-1 #
vertex $-1 $68 $69 #
intcurve-curve $-1 forward { exactcur full nurbs 2 periodic 4 
	0 2 0.3333333333333329818 2 0.6666666666666669627 2 1 2 
	-332.185006315047815 -9.726120074404889237 -83.94859088805483793 1 
	-332.5852008151633754 -12.43694651273871443 -81.82933054932638584 0.5 
	-335.1907484361372553 -11.44706107692028496 -83.88633040805086694 1 
	-337.7962960571109079 -10.45717564110183417 -85.94333026677534804 0.5 
	-334.7905539360215812 -8.736234638586431345 -86.00559074677934746 1 
	-331.784811814932084 -7.015293636071033845 -86.06785122678329003 0.5 
	-332.185006315047815 -9.726120074404889237 -83.94859088805483793 1 
	0 
	null_surface 
	null_surface 
	nullbs 
	nullbs 
	I I 
	0 
	0 
	0 
	F 1 F 0 } I I #
intcurve-curve $-1 forward { exactcur full nubs 1 open 2 
	0 1 1 1 
	-333.2593078339364752 -9.866083281046549303 -84.33049088660285975 
	-331.5857884807202822 -12.91883907409788179 -87.91936467128832078 
	0 
	null_surface 
	null_surface 
	nullbs 
	nullbs 
	I I 
	0 
	0 
	0 
	F 1 F 0 } I I #
point $-1 -333.2593078339364752 -9.866083281046549303 -84.33049088660285975 #
coedge $-1 $61 $60 $59 $67 forward $39 $-1 #
edge $-1 $70 0 $70 1 $66 $71 forward 7 unknown #
edge $-1 $70 0 $62 2.501851166488375799 $61 $72 forward 7 unknown #
point $-1 -332.185006315047815 -9.726120074404889237 -83.94859088805483793 #
vertex $-1 $67 $73 #
intcurve-curve $-1 forward { exactcur full nurbs 2 periodic 4 
	0 2 0.3333333333333329818 2 0.6666666666666669627 2 1 2 
	-329.1813250842381535 10.62013278627427582 -99.8548127396759071 1 
	-329.581519584353714 7.90930634794045595 -97.73555240094742658 0.5 
	-332.1870672053275939 8.899191783758858776 -99.79255225967196452 1 
	-334.7926148263012465 9.889077219577323774 -101.8495521183964172 0.5 
	-331.7868727052119198 11.61001822209271239 -101.9118125984003882 1 
	-328.7811305841224225 13.33095922460812055 -101.9740730784043876 0.5 
	-329.1813250842381535 10.62013278627427582 -99.8548127396759071 1 
	0 
	null_surface 
	null_surface 
	nullbs 
	nullbs 
	I I 
	0 
	0 
	0 
	F 1 F 0 } I I #
intcurve-curve $-1 forward { exactcur full nurbs 2 open 3 
	0 2 1.2509255832441879 2 2.501851166488375799 2 
	-329.1813250842381535 10.62013278627427582 -99.85481273967593552 1 
	-324.830174765875995 2.68296772434078612 -109.1858845798580688 0.7071067811865470176 
	-326.3320153812808257 -7.49015870599879463 -101.23277365404752 1 
	-327.8338559966856565 -17.66328513633837005 -93.27966272823695704 0.7071067811865470176 
	-332.185006315047815 -9.726120074404889237 -83.94859088805483793 1 
	0 
	null_surface 
	null_surface 
	nullbs 
	nullbs 
	I I 
	0 
	0 
	0 
	F 1 F 0 } I I #
point $-1 -329.1813250842381535 10.62013278627427582 -99.8548127396759071 #
End-of-ACIS-data 