600 0 1 0           
82 GICL ACIS Healer - Source: /gicl/data5/repository/SDRC_I-DEAS/bmw/Part19.sat - 6 0 18 ACIS 6.0.3 Solaris 24 Sat Apr 13 23:15:29 2002 
1 9.999999999999999547e-07 1.000000000000000036e-10 
body $-1 $1 $-1 $-1 #
lump $-1 $-1 $2 $0 #
shell $-1 $-1 $-1 $3 $-1 $1 #
face $-1 $4 $5 $2 $-1 $6 reversed single #
face $-1 $7 $8 $2 $-1 $9 reversed single #
loop $-1 $-1 $10 $3 #
plane-surface $-1 -316.4991269950328387 -13.48654128910247252 49.13630890976034493 -0.3386289274238113989 -0.5983105642654010792 -0.7261920670182349102 -0.9063077845118313602 0 0.422618267155190297 forward_v I I I I #
face $-1 $11 $12 $2 $-1 $13 reversed single #
loop $-1 $-1 $14 $4 #
cone-surface $-1 -315.1446112979273835 -11.09329900387332657 52.04107716049675503 -0.3386289274238136748 -0.5983105642653976375 -0.7261920670182365756 -0.6535330085196164873 -0.2851724090229375008 0.5397013606548313192 1 I I 0 1 0.8942629673565393178 forward I I I I #
coedge $-1 $10 $10 $15 $16 forward $5 $-1 #
face $-1 $17 $18 $2 $-1 $19 reversed single #
loop $-1 $-1 $20 $7 #
plane-surface $-1 -325.7484211714183857 7.207185386327633836 36.39973805250603078 -0.3386289274238105107 -0.5983105642654041878 -0.7261920670182326898 -0.9063077845118312492 0 0.422618267155190408 forward_v I I I I #
coedge $-1 $21 $22 $23 $24 reversed $8 $-1 #
coedge $-1 $22 $21 $10 $16 reversed $8 $-1 #
edge $-1 $25 0 $25 1 $10 $26 forward 7 unknown #
face $-1 $27 $28 $2 $-1 $29 forward single #
loop $-1 $-1 $30 $11 #
cone-surface $-1 -324.3939053984299221 9.600427620603198875 39.3045063098382812 -0.3386289274238120095 -0.5983105642653945289 -0.7261920670182400173 -0.5045235542808654827 0.6257522451415606923 -0.2802948669910207968 1 I I 0 1 0.8512785099985875625 forward I I I I #
coedge $-1 $20 $20 $31 $32 forward $12 $-1 #
coedge $-1 $15 $14 $22 $33 forward $8 $-1 #
coedge $-1 $14 $15 $21 $33 reversed $8 $-1 #
coedge $-1 $23 $23 $14 $24 forward $34 $-1 #
edge $-1 $35 0 $35 1 $14 $36 forward 7 unknown #
vertex $-1 $16 $37 #
intcurve-curve $-1 forward { exactcur full nurbs 2 periodic 4 
	0 2 0.3333333333333329818 2 0.6666666666666669627 2 1 2 
	-316.1810000388430808 -14.19829639081450523 49.57437980176443659 1 
	-314.8317785635896939 -14.05509424251942896 48.82724305404362042 0.5 
	-315.9835797543857439 -13.05906262184755917 48.54370506389304296 1 
	-317.1353809451818506 -12.06303100117571603 48.26016707374250103 0.5 
	-317.3328012296391307 -13.20226477014265498 49.29084181161385914 1 
	-317.5302215140964677 -14.3414985391095815 50.32151654948525277 0.5 
	-316.1810000388430808 -14.19829639081450523 49.57437980176443659 1 
	0 
	null_surface 
	null_surface 
	nullbs 
	nullbs 
	I I 
	0 
	0 
	0 
	F 1 F 0 } I I #
face $-1 $38 $39 $2 $-1 $40 forward single #
loop $-1 $41 $42 $17 #
plane-surface $-1 -324.0552778916660941 10.19874136335431203 40.03069642056276933 0.3386289274238028502 0.5983105642653993028 0.7261920670182402393 0.9063077845118366893 0 -0.4226182671551789727 forward_v I I I I #
coedge $-1 $43 $44 $45 $46 reversed $18 $-1 #
coedge $-1 $44 $43 $20 $32 reversed $18 $-1 #
edge $-1 $47 0 $47 1 $20 $48 forward 7 unknown #
edge $-1 $35 0 $25 1 $22 $49 forward 7 unknown #
loop $-1 $-1 $23 $38 #
vertex $-1 $24 $50 #
intcurve-curve $-1 forward { exactcur full nurbs 2 periodic 4 
	0 2 0.3333333333333329818 2 0.6666666666666669627 2 1 2 
	-314.4878554017240049 -11.20674356948752859 53.20534013685562513 1 
	-315.8370768769773917 -11.3499457177825871 53.9524768845764342 0.5 
	-315.6396565925200548 -10.21071194881564281 52.92180214670506189 1 
	-315.4422363080627747 -9.07147817984870386 51.89112740883370378 0.5 
	-314.2904351172666679 -10.06750980052058964 52.17466539898424571 1 
	-313.1386339264706749 -11.06354142119243278 52.45820338913481606 0.5 
	-314.4878554017240049 -11.20674356948752859 53.20534013685562513 1 
	0 
	null_surface 
	null_surface 
	nullbs 
	nullbs 
	I I 
	0 
	0 
	0 
	F 1 F 0 } I I #
point $-1 -316.1810000388430808 -14.19829639081450523 49.57437980176443659 #
face $-1 $-1 $51 $2 $-1 $52 forward single #
loop $-1 $-1 $53 $27 #
torus-surface $-1 -319.4306294207549399 -0.148125127369683085 46.39898380218573948 0.8710786540077916085 0.09245356442644957207 -0.4823632624452429685 12.99999999999995914 2.000000000000024869 0.3386289274238105107 0.5983105642653990808 0.7261920670182370197 forward_v I I I I #
loop $-1 $-1 $45 $17 #
coedge $-1 $42 $42 $53 $54 reversed $28 $-1 #
coedge $-1 $31 $30 $44 $55 forward $18 $-1 #
coedge $-1 $30 $31 $43 $55 reversed $18 $-1 #
coedge $-1 $45 $45 $30 $46 forward $41 $-1 #
edge $-1 $56 0 $56 1 $30 $57 forward 7 unknown #
vertex $-1 $32 $58 #
intcurve-curve $-1 forward { exactcur full nurbs 2 periodic 4 
	0 2 0.3333333333333329818 2 0.6666666666666669627 2 1 2 
	-326.4899516468005345 7.12848163097260823 36.81036352109781262 1 
	-325.9654250212174702 5.954942279846887843 37.53265329339861722 0.5 
	-325.1153925259959578 6.659767554263218869 36.55557018824951854 1 
	-324.2653600307745023 7.364592828679597858 35.57848708310046959 0.5 
	-325.6399191515790221 7.833306905388944585 35.83328041594872104 1 
	-327.0144782723835988 8.302020982098239799 36.08807374879702934 0.5 
	-326.4899516468005345 7.12848163097260823 36.81036352109781262 1 
	0 
	null_surface 
	null_surface 
	nullbs 
	nullbs 
	I I 
	0 
	0 
	0 
	F 1 F 0 } I I #
intcurve-curve $-1 forward { exactcur full nubs 1 open 2 
	0 1 1 1 
	-314.4878554017240049 -11.20674356948752859 53.20534013685562513 
	-316.1810000388430808 -14.19829639081450523 49.57437980176443659 
	0 
	null_surface 
	null_surface 
	nullbs 
	nullbs 
	I I 
	0 
	0 
	0 
	F 1 F 0 } I I #
point $-1 -314.4878554017240049 -11.20674356948752859 53.20534013685562513 #
loop $-1 $34 $59 $38 #
plane-surface $-1 -314.8059809498436152 -10.49499161809365155 52.76727118380875936 0.3386289274238117875 0.5983105642653965273 0.7261920670182383519 0.9063077845118320264 0 -0.4226182671551890757 forward_v I I I I #
coedge $-1 $60 $61 $42 $54 forward $39 $-1 #
edge $-1 $62 0 $62 1 $42 $63 forward 7 unknown #
edge $-1 $56 0 $47 1 $44 $64 forward 7 unknown #
vertex $-1 $46 $65 #
intcurve-curve $-1 forward { exactcur full nurbs 2 periodic 4 
	0 2 0.3333333333333329818 2 0.6666666666666669627 2 1 2 
	-324.7968070096814586 10.12003445229954224 40.44132385618900116 1 
	-325.3213336352645229 11.29357380342525907 39.71903408388823209 0.5 
	-323.9467745144599462 10.82485972671592123 39.46424075103990958 1 
	-322.5722153936554832 10.35614565000658871 39.20944741819165813 0.5 
	-323.4222478888769388 9.651320375590238143 40.18653052334071418 1 
	-324.2722803840984511 8.946495101173875142 41.16361362848981997 0.5 
	-324.7968070096814586 10.12003445229954224 40.44132385618900116 1 
	0 
	null_surface 
	null_surface 
	nullbs 
	nullbs 
	I I 
	0 
	0 
	0 
	F 1 F 0 } I I #
point $-1 -326.4899516468005345 7.12848163097260823 36.81036352109781262 #
coedge $-1 $59 $59 $66 $67 reversed $51 $-1 #
coedge $-1 $66 $53 $61 $68 reversed $39 $-1 #
coedge $-1 $53 $66 $60 $68 forward $39 $-1 #
vertex $-1 $68 $69 #
intcurve-curve $-1 forward { exactcur full nurbs 2 periodic 4 
	0 2 0.3333333333333329818 2 0.6666666666666669627 2 1 2 
	-325.7974337790217305 10.01383105601568246 40.99542490174702891 1 
	-327.0297604956538748 12.77095304921059338 39.29847199193620355 0.5 
	-323.8003611753143787 11.66975274589250233 38.69985865950587112 1 
	-320.5709618549749393 10.56855244257435089 38.10124532707558132 0.5 
	-322.5680344586822912 8.912630752697545233 40.39681156931673911 1 
	-324.565107062389643 7.256709062820725364 42.69237781155791112 0.5 
	-325.7974337790217305 10.01383105601568246 40.99542490174702891 1 
	0 
	null_surface 
	null_surface 
	nullbs 
	nullbs 
	I I 
	0 
	0 
	0 
	F 1 F 0 } I I #
intcurve-curve $-1 forward { exactcur full nubs 1 open 2 
	0 1 1 1 
	-324.7968070096814586 10.12003445229954224 40.44132385618900116 
	-326.4899516468005345 7.12848163097260823 36.81036352109781262 
	0 
	null_surface 
	null_surface 
	nullbs 
	nullbs 
	I I 
	0 
	0 
	0 
	F 1 F 0 } I I #
point $-1 -324.7968070096814586 10.12003445229954224 40.44132385618900116 #
coedge $-1 $61 $60 $59 $67 forward $39 $-1 #
edge $-1 $70 0 $70 1 $66 $71 forward 7 unknown #
edge $-1 $70 0 $62 2.501851166488375799 $61 $72 forward 7 unknown #
point $-1 -325.7974337790217305 10.01383105601568246 40.99542490174702891 #
vertex $-1 $67 $73 #
intcurve-curve $-1 forward { exactcur full nurbs 2 periodic 4 
	0 2 0.3333333333333329818 2 0.6666666666666669627 2 1 2 
	-316.548139678519135 -10.67989556846080745 53.73199575240546721 1 
	-317.780466395151393 -7.922773575265888546 52.03504284259462764 0.5 
	-314.55106707481184 -9.023973878583987585 51.43642951016431653 1 
	-311.3216677544724575 -10.12517418190213192 50.83781617773402672 0.5 
	-313.3187403581797525 -11.78109587177893047 53.13338241997517741 1 
	-315.3158129618871044 -13.43701756165576811 55.42894866221636363 0.5 
	-316.548139678519135 -10.67989556846080745 53.73199575240546721 1 
	0 
	null_surface 
	null_surface 
	nullbs 
	nullbs 
	I I 
	0 
	0 
	0 
	F 1 F 0 } I I #
intcurve-curve $-1 forward { exactcur full nurbs 2 open 3 
	0 2 1.2509255832441879 2 2.501851166488375799 2 
	-316.5481396785191919 -10.67989556846080745 53.73199575240546721 1 
	-320.9503157350287097 -18.45793290391101138 44.29149888116837275 0.7071067811865470176 
	-325.574962785279979 -8.111069591672759316 37.92321345583913939 1 
	-330.1996098355312483 2.235793720565469656 31.55492803050994155 0.7071067811865470176 
	-325.7974337790217305 10.01383105601568246 40.99542490174702891 1 
	0 
	null_surface 
	null_surface 
	nullbs 
	nullbs 
	I I 
	0 
	0 
	0 
	F 1 F 0 } I I #
point $-1 -316.548139678519135 -10.67989556846080745 53.73199575240546721 #
End-of-ACIS-data 