600 0 1 0           
7 Unknown 16 ACIS 6.0 Solaris 24 Thu Aug 24 19:05:56 2000 
-1 9.999999999999999547e-07 1.000000000000000036e-10 
body $-1 $1 $-1 $-1 #
lump $-1 $-1 $2 $0 #
shell $-1 $-1 $-1 $3 $-1 $1 #
face $-1 $4 $5 $2 $-1 $6 forward single #
face $-1 $7 $8 $2 $-1 $9 forward single #
loop $-1 $-1 $10 $3 #
spline-surface $-1 forward { exactsur full nubs 1 1 open open none none 2 2 
	0 1 1 1 
	0 1 1 1 
	-334.2090314079934501 -79.50000061602621315 -66.35885157858817252 
	-334.1411490314624189 -79.50000037531739849 -52.70902027609631801 
	-347.8588627104853117 -79.50000060659388623 -66.29096920205722654 
	-347.7909803339542805 -79.50000036588508578 -52.64113789956531519 
	0 
	0 
	0 
	0 
	0 
	0 
	0 
	F 1 F 0 F 1 F 0 } I I I I #
face $-1 $-1 $11 $2 $-1 $12 forward single #
loop $-1 $-1 $13 $4 #
spline-surface $-1 forward { exactsur full nubs 1 1 open open none none 2 2 
	0 1 1 1 
	0 1 1 1 
	-347.7909802645739887 35.49999963411492132 -52.64113992788512775 
	-334.1411489620821271 35.49999962468262282 -52.70902230441608793 
	-347.8588626411049631 35.49999939340613508 -66.29097123037701067 
	-334.2090313386131015 35.49999938397379395 -66.35885360690798507 
	0 
	0 
	0 
	0 
	0 
	0 
	0 
	F 1 F 0 F 1 F 0 } I I I I #
tcoedge-coedge $-1 $10 $10 $14 $15 reversed $5 $16 -1 -0 #
loop $-1 $-1 $14 $7 #
spline-surface $-1 forward { exactsur full nurbs 2 1 both periodic open none none 4 2 
	0 2 0.3333333333333329818 2 0.6666666666666669627 2 1 2 
	0 1 1.702443101456589947 1 
	-340.9676751069834495 -79.50000037633247985 -53.00007897537305013 1 
	-329.7094840758020382 -79.50000038411212699 -53.05606741550101191 0.5 
	-335.3870670028617837 -79.50000055215716088 -62.77795262909820195 1 
	-341.0646499299215293 -79.50000072020219477 -72.4998378426953991 0.5 
	-346.6452580340431382 -79.50000054437751373 -62.72196418897028281 1 
	-352.2258661381647471 -79.5000003685528327 -52.94409053524517361 0.5 
	-340.9676751069834495 -79.50000037633247985 -53.00007897537305013 1 
	-340.9676750376031009 35.49999962366752726 -53.00008100369284847 1 
	-329.7094840064216896 35.49999961588792274 -53.05606944382081025 0.5 
	-335.387066933481492 35.49999944784284622 -62.77795465741800029 1 
	-341.0646498605411807 35.49999927979785497 -72.49983987101521166 0.5 
	-346.6452579646627896 35.49999945562249337 -62.72196621729006694 1 
	-352.2258660687844554 35.49999963144723125 -52.94409256356495774 0.5 
	-340.9676750376031009 35.49999962366752726 -53.00008100369284847 1 
	0 
	0 
	0 
	0 
	0 
	0 
	0 
	F 1 F 0 F 1 F 0 } I I I I #
tcoedge-coedge $-1 $13 $13 $17 $18 reversed $8 $19 -1 -0 #
tcoedge-coedge $-1 $20 $21 $10 $15 forward $11 $22 0 1 #
tedge-edge $-1 $23 0 $23 1 $10 $24 forward 7 unknown 0.0003454415011015909281 #
pcurve $-1 0 forward { exppc nubs 2 periodic 25 
	-1 2 -0.9583333333333333703 2 -0.9166666666666667407 2 -0.875 2 -0.8333333333333333703 2 
	-0.7916666666666667407 2 -0.75 2 -0.7083333333333333703 2 -0.6666666666666667407 2 -0.625 2 
	-0.5833333333333333703 2 -0.5416666666666667407 2 -0.5 2 -0.4583333333333333703 2 -0.4166666666666666852 2 
	-0.375 2 -0.3333333333333333703 2 -0.2916666666666666852 2 -0.25 2 -0.2083333333333333148 2 
	-0.1666666666666666297 2 -0.1249999999999999722 2 -0.08333333333333331483 2 -0.04166666666666665741 2 -0 2 
	0.9761901922971298884 0.4999995720052222148 
	0.9761901922971298884 0.5549853115438849738 
	0.9636588640638793501 0.6085240579367866554 
	0.9497351660269390816 0.6680115539288800086 
	0.9212451377359540672 0.7220573662959453021 
	0.8904759071816912286 0.7804268436523740249 
	0.8449948579367733137 0.8282307723125060805 
	0.7976187649733117446 0.8780265313334828514 
	0.7380949558653718823 0.9123926185451430859 
	0.6785711467574331301 0.9467587057568026543 
	0.6117587079628065139 0.9628897262847251337 
	0.547618766719964345 0.9783755059915308916 
	0.4816847012465569344 0.9758377026282084588 
	0.420634640623062328 0.9734878846992074397 
	0.3621551088678622299 0.9558024129177573602 
	0.3095235302882027306 0.939885488314458506 
	0.2619044830018593673 0.9123926185451347592 
	0.2142854357154903577 0.8848997487757963576 
	0.1741851853691085139 0.847277926986206964 
	0.129629351650883462 0.8054759027755303835 
	0.09706931931833760741 0.7537799083374797648 
	0.06190448439918605494 0.6979482343443819126 
	0.04324559240126944759 0.6346585259774399912 
	0.02380924657010552448 0.5687317464285396307 
	0.02380924657010549325 0.4999995720052222148 
	0.02380924657010548978 0.4312673975818986372 
	0.04324559240126938514 0.3653406180329995534 
	0.06190448439919064849 0.3020509096660431991 
	0.09706931931833770455 0.2462192356729533127 
	0.1296293516508780774 0.1945232412349121864 
	0.174185185369109985 0.1527212170242296108 
	0.2142854357155498657 0.1150993952345859828 
	0.2619044830018598669 0.08760652546528092943 
	0.3095235302881711448 0.0601136556959751614 
	0.3621551088678637287 0.04419673109266705063 
	0.4206346406230578872 0.02651125931121957324 
	0.4816847012465588773 0.0241614413822187242 
	0.5476187667199632347 0.02162363801889691933 
	0.6117587079628089564 0.03710941772570482133 
	0.6785711467574252476 0.05324043825362610727 
	0.7380949558653734366 0.08760652546529304474 
	0.797618764973318628 0.1219726126769583446 
	0.8449948579367743129 0.1717683716979301889 
	0.8904759071816918947 0.2195723003580633548 
	0.9212451377359552884 0.2779417777144962409 
	0.9497351660269330864 0.3319875900815506542 
	0.9636588640638796832 0.391475086073673928 
	0.9761901922971298884 0.4450138324665771639 
	0.9761901922971298884 0.4999995720052222148 
	0.001000000000000000021 
	spline forward { ref 0 } I I I I 
	} 0 0 #
tcoedge-coedge $-1 $21 $20 $13 $18 forward $11 $25 0 1 #
tedge-edge $-1 $26 0 $26 1 $13 $27 forward 7 unknown 0.0003454415011002059141 #
pcurve $-1 0 forward { exppc nubs 2 periodic 25 
	-1 2 -0.9583333333333333703 2 -0.9166666666666667407 2 -0.875 2 -0.8333333333333333703 2 
	-0.7916666666666667407 2 -0.75 2 -0.7083333333333333703 2 -0.6666666666666667407 2 -0.625 2 
	-0.5833333333333333703 2 -0.5416666666666667407 2 -0.5 2 -0.4583333333333333703 2 -0.4166666666666666852 2 
	-0.375 2 -0.3333333333333333703 2 -0.2916666666666666852 2 -0.25 2 -0.2083333333333333148 2 
	-0.1666666666666666297 2 -0.1249999999999999722 2 -0.08333333333333331483 2 -0.04166666666666665741 2 -0 2 
	0.5000004279947778407 0.02380980770287015671 
	0.5549861675334348821 0.02380980770286988263 
	0.6085249139263358975 0.03634113593611994208 
	0.6680124099184563402 0.05026483397306635847 
	0.7220582222855100873 0.07875486226404436463 
	0.7804276996419352574 0.1095240928183043583 
	0.8282316283020727532 0.1550051420632260479 
	0.8780273873230420856 0.2023812350266792903 
	0.912393474534706983 0.2619050441346261193 
	0.9467595617463732127 0.3214288532425754186 
	0.9628905822742932497 0.3882412920371910436 
	0.9783763619811004508 0.4523812332800383196 
	0.975838558617778018 0.5183152987534406231 
	0.9734887406887753336 0.5793653593769718668 
	0.9558032689073373556 0.6378448911321360493 
	0.9398863443040395005 0.6904764697117959926 
	0.9123934745347153097 0.7380955169981391339 
	0.884900604765401555 0.7857145642844642897 
	0.8472787829757699729 0.8258148146308910142 
	0.805476758765086398 0.8703706483491235879 
	0.7537807643270478808 0.9029306806816620457 
	0.6979490903339531371 0.9380955156008120577 
	0.6346593819670052206 0.9567544075987305385 
	0.5687326024181038608 0.9761907534298948086 
	0.5000004279947778407 0.9761907534298949196 
	0.4312682535714598697 0.9761907534298950306 
	0.3653414740225564561 0.9567544075987307606 
	0.3020517656556214181 0.9380955156008166096 
	0.2462200916625205405 0.9029306806816632669 
	0.1945240972244886013 0.870370648349129139 
	0.1527220730138014737 0.8258148146308922355 
	0.1151002512241902087 0.7857145642844866051 
	0.08760738145486526851 0.7380955169981410213 
	0.06011451168550951268 0.6904764697117420358 
	0.04419758708222799176 0.6378448911321376036 
	0.02651211530080885281 0.57936535937703737 
	0.02416229737180196693 0.5183152987534439537 
	0.02162449400847669262 0.4523812332800187797 
	0.03711027371527712837 0.3882412920371935972 
	0.05324129424319612447 0.3214288532425763623 
	0.08760738145486113293 0.2619050441346281732 
	0.1219734686665270018 0.2023812350266785409 
	0.1717692276874931145 0.1550051420632271026 
	0.2195731563476426562 0.1095240928182927287 
	0.2779426337040407091 0.07875486226404528056 
	0.3319884460710893492 0.05026483397306827361 
	0.3914759420632126785 0.03634113593612078169 
	0.4450146884561134719 0.02380980770287043774 
	0.5000004279947778407 0.02380980770287015671 
	0.001000000000000000021 
	spline forward { ref 1 } I I I I 
	} 0 0 #
coedge $-1 $17 $14 $21 $28 reversed $11 $29 #
coedge $-1 $14 $17 $20 $28 forward $11 $30 #
pcurve $-1 0 forward { exppc nubs 2 periodic 25 
	0 2 0.04166666666666666435 2 0.08333333333333332871 2 0.125 2 0.1666666666666666574 2 
	0.2083333333333333148 2 0.25 2 0.2916666666666666297 2 0.3333333333333333148 2 0.375 2 
	0.4166666666666666297 2 0.4583333333333333148 2 0.5 2 0.5416666666666666297 2 0.5833333333333332593 2 
	0.625 2 0.6666666666666666297 2 0.7083333333333332593 2 0.75 2 0.7916666666666667407 2 
	0.8333333333333333703 2 0.875 2 0.9166666666666667407 2 0.9583333333333333703 2 1 2 
	0 0 
	0.02203856749311084925 0 
	0.04166666666666286184 0 
	0.06345565749235276831 0 
	0.08333333333333274584 0 
	0.104785478547882116 0 
	0.1250000000000527356 0 
	0.1460481099656611992 0 
	0.1666666666666664909 0 
	0.1872852233676722822 0 
	0.2083333333332813564 0 
	0.2285478547854512543 0 
	0.2500000000000000555 0 
	0.2698776758409786591 0 
	0.2916666666666667962 0 
	0.311294765840220311 0 
	0.3333333333333329818 0 
	0.3553719008264464296 0 
	0.3750000000000004996 0 
	0.3967889908256878595 0 
	0.416666666666666019 0 
	0.4381188118812153753 0 
	0.4583333333333859394 0 
	0.4793814432989945695 0 
	0.5 0 
	0.5206185567010048754 0 
	0.5416666666666130059 0 
	0.5618811881187839585 0 
	0.5833333333333342585 0 
	0.6032110091743130287 0 
	0.6250000000000013323 0 
	0.6446280991735543475 0 
	0.6666666666666662966 0 
	0.688705234159779689 0 
	0.7083333333333335924 0 
	0.7301223241590216739 0 
	0.750000000000000222 0 
	0.7714521452145490787 0 
	0.7916666666667190322 0 
	0.8127147766323279399 0 
	0.8333333333333333703 0 
	0.8539518900343383567 0 
	0.8749999999999465983 0 
	0.8952145214521171068 0 
	0.9166666666666664076 0 
	0.9365443425076437345 0 
	0.9583333333333302617 0 
	0.9779614325068854974 0 
	1 0 
	0.001000000000000000021 
	spline forward { ref 2 } I I I I 
	} 0 0 #
tvertex-vertex $-1 $15 $31 1.421085471520200372e-14 #
intcurve-curve $-1 forward { exactcur full nurbs 2 periodic 4 
	0 2 0.3333333333333329818 2 0.6666666666666669627 2 1 2 
	-340.9676751069834495 -79.50000037633247985 -53.00007897537305013 1 
	-329.7094840758020382 -79.50000038411212699 -53.05606741550101901 0.5 
	-335.3870670028617837 -79.50000055215716088 -62.77795262909820195 1 
	-341.0646499299215293 -79.50000072020219477 -72.4998378426953991 0.5 
	-346.6452580340431382 -79.50000054437751373 -62.72196418897028281 1 
	-352.2258661381647471 -79.5000003685528327 -52.94409053524518072 0.5 
	-340.9676751069834495 -79.50000037633247985 -53.00007897537305013 1 
	0 
	null_surface 
	null_surface 
	nullbs 
	nullbs 
	I I 
	0 
	0 
	0 
	F 1 F 0 } I I #
pcurve $-1 0 forward { exppc nubs 2 periodic 25 
	0 2 0.04166666666666666435 2 0.08333333333333332871 2 0.125 2 0.1666666666666666574 2 
	0.2083333333333333148 2 0.25 2 0.2916666666666666297 2 0.3333333333333333148 2 0.375 2 
	0.4166666666666666297 2 0.4583333333333333148 2 0.5 2 0.5416666666666666297 2 0.5833333333333332593 2 
	0.625 2 0.6666666666666666297 2 0.7083333333333332593 2 0.75 2 0.7916666666666667407 2 
	0.8333333333333333703 2 0.875 2 0.9166666666666667407 2 0.9583333333333333703 2 1 2 
	1 1.702443101456589947 
	0.9779614325068857195 1.702443101456589725 
	0.9583333333333307058 1.702443101456589725 
	0.9365443425076442896 1.702443101456589725 
	0.9166666666666671848 1.702443101456589947 
	0.8952145214521169958 1.702443101456589947 
	0.8749999999999459321 1.702443101456589947 
	0.8539518900343381347 1.702443101456589947 
	0.8333333333333334814 1.702443101456589947 
	0.8127147766323279399 1.702443101456590169 
	0.7916666666667191432 1.702443101456589947 
	0.7714521452145488567 1.702443101456589947 
	0.749999999999999778 1.702443101456589947 
	0.7301223241590213409 1.702443101456590169 
	0.7083333333333332593 1.702443101456589947 
	0.6887052341597798 1.702443101456589947 
	0.6666666666666669627 1.702443101456589947 
	0.6446280991735529042 1.702443101456589947 
	0.6249999999999982236 1.702443101456589947 
	0.6032110091743108082 1.702443101456589947 
	0.5833333333333329263 1.702443101456589947 
	0.5618811881187850688 1.702443101456589947 
	0.5416666666666160035 1.702443101456589947 
	0.5206185567010063187 1.702443101456589947 
	0.5 1.702443101456589947 
	0.4793814432989940144 1.702443101456589947 
	0.4583333333333848847 1.702443101456589947 
	0.4381188118812152643 1.702443101456590169 
	0.4166666666666667407 1.702443101456589947 
	0.3967889908256890807 1.702443101456589947 
	0.3750000000000022204 1.702443101456589947 
	0.3553719008264473733 1.702443101456589947 
	0.3333333333333329818 1.702443101456589947 
	0.311294765840220089 1.702443101456589947 
	0.2916666666666664631 1.702443101456589947 
	0.2698776758409784371 1.702443101456589947 
	0.249999999999999889 1.702443101456589947 
	0.2285478547854510323 1.702443101456589947 
	0.2083333333332810511 1.702443101456589947 
	0.1872852233676721434 1.702443101456589947 
	0.1666666666666664909 1.702443101456589947 
	0.1460481099656611714 1.702443101456589947 
	0.1250000000000527356 1.702443101456589947 
	0.1047854785478821577 1.702443101456589947 
	0.08333333333333263482 1.702443101456589947 
	0.06345565749235365649 1.702443101456589947 
	0.04166666666666537372 1.702443101456589947 
	0.02203856749311232377 1.702443101456589947 
	0 1.702443101456589947 
	0.001000000000000000021 
	spline forward { ref 2 } I I I I 
	} 0 0 #
tvertex-vertex $-1 $18 $32 5.902211244487940336e-14 #
intcurve-curve $-1 forward { exactcur full nurbs 2 periodic 4 
	0 2 0.3333333333333329818 2 0.6666666666666669627 2 1 2 
	-340.9676750376031009 35.49999962366752726 -53.00008100369284847 1 
	-352.2258660687844554 35.49999963144723125 -52.94409256356495774 0.5 
	-346.6452579646627896 35.49999945562249337 -62.72196621729006694 1 
	-341.0646498605411807 35.49999927979785497 -72.49983987101521166 0.5 
	-335.387066933481492 35.49999944784284622 -62.77795465741800029 1 
	-329.7094840064216896 35.49999961588792274 -53.05606944382080314 0.5 
	-340.9676750376031009 35.49999962366752726 -53.00008100369284847 1 
	0 
	null_surface 
	null_surface 
	nullbs 
	nullbs 
	I I 
	0 
	0 
	0 
	F 1 F 0 } I I #
edge $-1 $26 0 $23 1 $21 $33 forward 7 unknown #
pcurve $-1 0 forward { exppc nubs 2 open 7 
	-1 2 -0.8333333333333333703 2 -0.6666666666666667407 2 -0.5 2 -0.3333333333333333703 2 
	-0.1666666666666666297 2 -0 2 
	1 0 
	1 0.1418702584547157919 
	1 0.2837405169094315838 
	1 0.4256107753641473757 
	1 0.5674810338188631675 
	1 0.7093512922735790704 
	1 0.8512215507282949734 
	1 0.9930918091830107652 
	1 1.134962067637726557 
	1 1.276832326092442571 
	1 1.418702584547158363 
	1 1.560572843001874155 
	1 1.702443101456589947 
	0.001000000000000000021 
	spline forward { ref 2 } I I I I 
	} 0 0 #
pcurve $-1 0 forward { exppc nubs 2 open 7 
	0 2 0.1666666666666666574 2 0.3333333333333333148 2 0.5 2 0.6666666666666666297 2 
	0.8333333333333333703 2 1 2 
	0 1.702443101456589947 
	0 1.560572843001874155 
	0 1.418702584547158363 
	0 1.276832326092442571 
	0 1.134962067637726779 
	0 0.9930918091830108763 
	0 0.8512215507282949734 
	0 0.7093512922735791815 
	0 0.5674810338188635006 
	0 0.4256107753641475422 
	0 0.2837405169094315838 
	0 0.1418702584547157919 
	0 0 
	0.001000000000000000021 
	spline forward { ref 2 } I I I I 
	} 0 0 #
point $-1 -340.9676751069834495 -79.50000037633247985 -53.00007897537305013 #
point $-1 -340.9676750376031009 35.49999962366752726 -53.00008100369284847 #
intcurve-curve $-1 forward { exactcur full nubs 1 open 2 
	0 1 1 1 
	-340.9676750376031009 35.49999962366752726 -53.00008100369284847 
	-340.9676751069834495 -79.50000037633247985 -53.00007897537305013 
	0 
	null_surface 
	null_surface 
	nullbs 
	nullbs 
	I I 
	0 
	0 
	0 
	F 1 F 0 } I I #
End-of-ACIS-data 