600 0 1 0           
82 GICL ACIS Healer - Source: /gicl/data5/repository/SDRC_I-DEAS/bmw/Part49.sat - 6 0 18 ACIS 6.0.3 Solaris 24 Sat Apr 13 23:16:18 2002 
1 9.999999999999999547e-07 1.000000000000000036e-10 
body $-1 $1 $-1 $-1 #
lump $-1 $-1 $2 $0 #
shell $-1 $-1 $-1 $3 $-1 $1 #
face $-1 $4 $5 $2 $-1 $6 forward single #
face $-1 $7 $8 $2 $-1 $9 forward single #
loop $-1 $-1 $10 $3 #
plane-surface $-1 -288.5000000380142637 -63.03293886021637604 -73.06955599586811445 -6.032415428720393417e-10 -0.9999933208932749729 -0.003654882876319683841 0 0.003654882876319683841 -0.9999933208932749729 forward_v I I I I #
face $-1 $11 $12 $2 $-1 $13 forward single #
loop $-1 $-1 $14 $4 #
plane-surface $-1 -288.5000000350171376 -58.06462446993748472 -64.39108538640311963 -3.035301772413271808e-10 -0.5031618818653941227 0.8641921780701762312 1 -0 3.512299520219438704e-10 forward_v I I I I #
coedge $-1 $15 $16 $17 $18 reversed $5 $-1 #
face $-1 $19 $20 $2 $-1 $21 forward single #
loop $-1 $-1 $22 $7 #
plane-surface $-1 -288.5000000289848003 -48.06469126100478206 -64.35453655763986092 2.997121878206181693e-10 0.4968314390278911197 0.8678470609464983276 1 0 -3.453513888653879315e-10 forward_v I I I I #
coedge $-1 $23 $24 $25 $26 reversed $8 $-1 #
coedge $-1 $27 $10 $28 $29 reversed $5 $-1 #
coedge $-1 $10 $27 $23 $30 forward $5 $-1 #
coedge $-1 $25 $31 $10 $18 forward $32 $-1 #
edge $-1 $33 0 $34 1 $10 $35 forward 7 unknown #
face $-1 $36 $37 $2 $-1 $38 forward single #
loop $-1 $-1 $39 $11 #
plane-surface $-1 -288.5000000259494755 -43.03307244235094231 -72.99645833834165387 6.032415463346399265e-10 0.9999933208932749729 0.003654882876320276683 0 -0.003654882876320276683 0.9999933208932749729 forward_v I I I I #
coedge $-1 $40 $41 $42 $43 reversed $12 $-1 #
coedge $-1 $44 $14 $16 $30 reversed $8 $-1 #
coedge $-1 $14 $44 $40 $45 forward $8 $-1 #
coedge $-1 $42 $17 $14 $26 forward $32 $-1 #
edge $-1 $34 0 $46 1 $14 $47 forward 7 unknown #
coedge $-1 $16 $15 $48 $49 forward $5 $-1 #
coedge $-1 $50 $51 $15 $29 forward $52 $-1 #
edge $-1 $53 0 $33 1 $15 $54 forward 7 unknown #
edge $-1 $55 0 $34 1 $16 $56 forward 7 unknown #
coedge $-1 $17 $57 $50 $58 reversed $32 $-1 #
loop $-1 $59 $31 $60 #
vertex $-1 $18 $61 #
vertex $-1 $18 $62 #
intcurve-curve $-1 forward { exactcur full nubs 1 open 2 
	0 1 1 1 
	-296.0000000380015308 -63.01183737956703368 -78.84302012592365827 
	-296.0000000380269967 -63.05404033181702772 -67.29609186581257063 
	0 
	null_surface 
	null_surface 
	nullbs 
	nullbs 
	I I 
	0 
	0 
	0 
	F 1 F 0 } I I #
face $-1 $60 $52 $2 $-1 $63 forward single #
loop $-1 $-1 $64 $19 #
plane-surface $-1 -288.5000000289466016 -48.00138683262976969 -81.67492894780664869 3.035292393413539848e-10 0.5031618818653932346 -0.8641921780701767863 -1 0 -3.512288667309667278e-10 forward_v I I I I #
coedge $-1 $65 $66 $67 $68 reversed $20 $-1 #
coedge $-1 $69 $22 $24 $45 reversed $12 $-1 #
coedge $-1 $22 $69 $65 $70 forward $12 $-1 #
coedge $-1 $67 $25 $22 $43 forward $32 $-1 #
edge $-1 $46 0 $71 1 $22 $72 forward 7 unknown #
coedge $-1 $24 $23 $73 $74 forward $8 $-1 #
edge $-1 $75 0 $46 1 $24 $76 forward 7 unknown #
vertex $-1 $26 $77 #
intcurve-curve $-1 forward { exactcur full nubs 1 open 2 
	0 1 1 1 
	-296.0000000380269967 -63.05404033181702772 -67.29609186581257063 
	-296.0000000320073354 -53.07520859900927235 -61.48607890699366152 
	0 
	null_surface 
	null_surface 
	nullbs 
	nullbs 
	I I 
	0 
	0 
	0 
	F 1 F 0 } I I #
coedge $-1 $78 $73 $27 $49 reversed $79 $-1 #
edge $-1 $53 0 $55 1 $27 $80 forward 7 unknown #
coedge $-1 $81 $28 $31 $58 forward $52 $-1 #
coedge $-1 $28 $81 $78 $82 forward $52 $-1 #
loop $-1 $-1 $50 $36 #
vertex $-1 $49 $83 #
intcurve-curve $-1 forward { exactcur full nubs 1 open 2 
	0 1 1 1 
	-281.0000000380015308 -63.01183738861571726 -78.84302012592365827 
	-296.0000000380015308 -63.01183737956703368 -78.84302012592365827 
	0 
	null_surface 
	null_surface 
	nullbs 
	nullbs 
	I I 
	0 
	0 
	0 
	F 1 F 0 } I I #
vertex $-1 $30 $84 #
intcurve-curve $-1 forward { exactcur full nubs 1 open 2 
	0 1 1 1 
	-281.0000000380269967 -63.0540403408657113 -67.29609186581257063 
	-296.0000000380269967 -63.05404033181702772 -67.29609186581257063 
	0 
	null_surface 
	null_surface 
	nullbs 
	nullbs 
	I I 
	0 
	0 
	0 
	F 1 F 0 } I I #
coedge $-1 $31 $67 $64 $85 forward $32 $-1 #
edge $-1 $33 0 $86 1 $50 $87 forward 7 unknown #
loop $-1 $-1 $88 $60 #
face $-1 $89 $32 $2 $-1 $90 forward single #
point $-1 -296.0000000380015308 -63.01183737956703368 -78.84302012592365827 #
point $-1 -296.0000000380269967 -63.05404033181702772 -67.29609186581257063 #
plane-surface $-1 -288.5000000349789389 -58.00132004156248655 -81.71147777656986477 -2.997120701472919263e-10 -0.4968314390278862902 -0.8678470609465009922 -1 0 3.453512532731477251e-10 forward_v I I I I #
coedge $-1 $91 $92 $57 $85 reversed $37 $-1 #
coedge $-1 $93 $39 $41 $70 reversed $20 $-1 #
coedge $-1 $39 $93 $91 $94 forward $20 $-1 #
coedge $-1 $57 $42 $39 $68 forward $32 $-1 #
edge $-1 $71 0 $95 1 $39 $96 forward 7 unknown #
coedge $-1 $41 $40 $97 $98 forward $12 $-1 #
edge $-1 $99 0 $71 1 $41 $100 forward 7 unknown #
vertex $-1 $43 $101 #
intcurve-curve $-1 forward { exactcur full nubs 1 open 2 
	0 1 1 1 
	-296.0000000320073354 -53.07520859900927235 -61.48607890699366152 
	-296.0000000259622084 -43.0541739139516082 -67.22299420828605321 
	0 
	null_surface 
	null_surface 
	nullbs 
	nullbs 
	I I 
	0 
	0 
	0 
	F 1 F 0 } I I #
coedge $-1 $48 $97 $44 $74 reversed $79 $-1 #
edge $-1 $55 0 $75 1 $44 $102 forward 7 unknown #
vertex $-1 $45 $103 #
intcurve-curve $-1 forward { exactcur full nubs 1 open 2 
	0 1 1 1 
	-281.0000000320073354 -53.07520860805795593 -61.48607890699366152 
	-296.0000000320073354 -53.07520859900927235 -61.48607890699366152 
	0 
	null_surface 
	null_surface 
	nullbs 
	nullbs 
	I I 
	0 
	0 
	0 
	F 1 F 0 } I I #
point $-1 -296.0000000320073354 -53.07520859900927235 -61.48607890699366152 #
coedge $-1 $104 $48 $51 $82 reversed $79 $-1 #
loop $-1 $-1 $104 $105 #
intcurve-curve $-1 forward { exactcur full nubs 1 open 2 
	0 1 1 1 
	-281.0000000380015308 -63.01183738861571726 -78.84302012592365827 
	-281.0000000380269967 -63.0540403408657113 -67.29609186581257063 
	0 
	null_surface 
	null_surface 
	nullbs 
	nullbs 
	I I 
	0 
	0 
	0 
	F 1 F 0 } I I #
coedge $-1 $51 $50 $92 $106 forward $52 $-1 #
edge $-1 $107 0 $53 1 $51 $108 forward 7 unknown #
point $-1 -281.0000000380015308 -63.01183738861571726 -78.84302012592365827 #
point $-1 -281.0000000380269967 -63.0540403408657113 -67.29609186581257063 #
edge $-1 $95 0 $86 1 $64 $109 forward 7 unknown #
vertex $-1 $85 $110 #
intcurve-curve $-1 forward { exactcur full nubs 1 open 2 
	0 1 1 1 
	-296.0000000380015308 -63.01183737956703368 -78.84302012592365827 
	-296.0000000319564037 -52.99080269450925584 -84.57993542721604285 
	0 
	null_surface 
	null_surface 
	nullbs 
	nullbs 
	I I 
	0 
	0 
	0 
	F 1 F 0 } I I #
coedge $-1 $88 $88 $111 $112 forward $59 $-1 #
face $-1 $113 $114 $2 $-1 $115 reversed single #
plane-surface $-1 -296.0000000319819264 -53.03300564675929962 -73.03300716710486995 -1 6.032462785252257175e-10 1.848452450642664709e-15 1.848452450642664709e-15 -0 1 forward_v I I I I #
coedge $-1 $116 $64 $66 $94 reversed $37 $-1 #
coedge $-1 $64 $116 $81 $106 reversed $37 $-1 #
coedge $-1 $66 $65 $117 $118 forward $20 $-1 #
edge $-1 $119 0 $95 1 $66 $120 forward 7 unknown #
vertex $-1 $68 $121 #
intcurve-curve $-1 forward { exactcur full nubs 1 open 2 
	0 1 1 1 
	-296.0000000259622084 -43.0541739139516082 -67.22299420828605321 
	-296.0000000259367425 -43.01197096170160705 -78.76992246839722611 
	0 
	null_surface 
	null_surface 
	nullbs 
	nullbs 
	I I 
	0 
	0 
	0 
	F 1 F 0 } I I #
coedge $-1 $73 $117 $69 $98 reversed $79 $-1 #
edge $-1 $75 0 $99 1 $69 $122 forward 7 unknown #
vertex $-1 $70 $123 #
intcurve-curve $-1 forward { exactcur full nubs 1 open 2 
	0 1 1 1 
	-281.0000000259622084 -43.05417392300029178 -67.22299420828608163 
	-296.0000000259622084 -43.0541739139516082 -67.22299420828605321 
	0 
	null_surface 
	null_surface 
	nullbs 
	nullbs 
	I I 
	0 
	0 
	0 
	F 1 F 0 } I I #
point $-1 -296.0000000259622084 -43.0541739139516082 -67.22299420828605321 #
intcurve-curve $-1 forward { exactcur full nubs 1 open 2 
	0 1 1 1 
	-281.0000000380269967 -63.0540403408657113 -67.29609186581257063 
	-281.0000000320073354 -53.07520860805795593 -61.48607890699366152 
	0 
	null_surface 
	null_surface 
	nullbs 
	nullbs 
	I I 
	0 
	0 
	0 
	F 1 F 0 } I I #
point $-1 -281.0000000320073354 -53.07520860805795593 -61.48607890699366152 #
coedge $-1 $117 $78 $116 $124 reversed $79 $-1 #
face $-1 $-1 $125 $2 $-1 $126 forward single #
edge $-1 $86 0 $107 1 $92 $127 forward 7 unknown #
vertex $-1 $106 $128 #
intcurve-curve $-1 forward { exactcur full nubs 1 open 2 
	0 1 1 1 
	-281.0000000319564037 -52.99080270355793232 -84.57993542721607128 
	-281.0000000380015308 -63.01183738861571726 -78.84302012592365827 
	0 
	null_surface 
	null_surface 
	nullbs 
	nullbs 
	I I 
	0 
	0 
	0 
	F 1 F 0 } I I #
intcurve-curve $-1 forward { exactcur full nubs 1 open 2 
	0 1 1 1 
	-296.0000000259367425 -43.01197096170160705 -78.76992246839722611 
	-296.0000000319564037 -52.99080269450925584 -84.57993542721604285 
	0 
	null_surface 
	null_surface 
	nullbs 
	nullbs 
	I I 
	0 
	0 
	0 
	F 1 F 0 } I I #
point $-1 -296.0000000319564037 -52.99080269450925584 -84.57993542721604285 #
coedge $-1 $129 $130 $88 $112 reversed $114 $-1 #
edge $-1 $131 0 $131 1 $88 $132 forward 7 unknown #
face $-1 $133 $134 $2 $-1 $135 forward single #
loop $-1 $-1 $136 $89 #
cone-surface $-1 -282.4000000318740717 -53.03300869544951013 -73.03300699503469673 -1 6.032459554969329233e-10 3.182992860731556723e-16 -3.460684183664852753e-09 -5.736729120635303047 -1.75782223118729064 1 I I 0 1 6.000000000000112799 forward I I I I #
coedge $-1 $92 $91 $104 $124 forward $37 $-1 #
coedge $-1 $97 $104 $93 $118 reversed $79 $-1 #
edge $-1 $99 0 $119 1 $93 $137 forward 7 unknown #
vertex $-1 $94 $138 #
intcurve-curve $-1 forward { exactcur full nubs 1 open 2 
	0 1 1 1 
	-281.0000000259367425 -43.01197097075029063 -78.76992246839722611 
	-296.0000000259367425 -43.01197096170160705 -78.76992246839722611 
	0 
	null_surface 
	null_surface 
	nullbs 
	nullbs 
	I I 
	0 
	0 
	0 
	F 1 F 0 } I I #
point $-1 -296.0000000259367425 -43.01197096170160705 -78.76992246839722611 #
intcurve-curve $-1 forward { exactcur full nubs 1 open 2 
	0 1 1 1 
	-281.0000000320073354 -53.07520860805795593 -61.48607890699366152 
	-281.0000000259622084 -43.05417392300029178 -67.22299420828608163 
	0 
	null_surface 
	null_surface 
	nullbs 
	nullbs 
	I I 
	0 
	0 
	0 
	F 1 F 0 } I I #
point $-1 -281.0000000259622084 -43.05417392300029178 -67.22299420828608163 #
edge $-1 $119 0 $107 1 $116 $139 forward 7 unknown #
loop $-1 $79 $140 $105 #
plane-surface $-1 -281.0000000319819264 -53.03300869629406833 -73.0330069950346541 -1 6.032443301028750386e-10 9.20659776900254392e-16 9.20659776900254392e-16 -0 1 forward_v I I I I #
intcurve-curve $-1 forward { exactcur full nubs 1 open 2 
	0 1 1 1 
	-296.0000000319564037 -52.99080269450925584 -84.57993542721604285 
	-281.0000000319564037 -52.99080270355793232 -84.57993542721607128 
	0 
	null_surface 
	null_surface 
	nullbs 
	nullbs 
	I I 
	0 
	0 
	0 
	F 1 F 0 } I I #
point $-1 -281.0000000319564037 -52.99080270355793232 -84.57993542721607128 #
coedge $-1 $136 $111 $130 $141 reversed $114 $-1 #
coedge $-1 $111 $136 $129 $141 forward $114 $-1 #
vertex $-1 $112 $142 #
intcurve-curve $-1 forward { exactcur full nurbs 2 periodic 4 
	0 2 0.3333333333333329818 2 0.6666666666666669627 2 1 2 
	-296.0000000319686251 -53.01107801908981543 -79.03296691538380969 1 
	-296.0000000256995918 -42.618842593668262 -78.99498188389443953 0.5 
	-296.0000000288539468 -47.84785630861238559 -70.01403451911548359 1 
	-296.0000000320083018 -53.07687002355645944 -61.03308715433649212 0.5 
	-296.0000000351230369 -58.24009173403393902 -70.05201955060482533 1 
	-296.0000000382377152 -63.40331344451139728 -79.07095194687315143 0.5 
	-296.0000000319686251 -53.01107801908981543 -79.03296691538380969 1 
	0 
	null_surface 
	null_surface 
	nullbs 
	nullbs 
	I I 
	0 
	0 
	0 
	F 1 F 0 } I I #
face $-1 $105 $143 $2 $-1 $144 forward single #
loop $-1 $145 $146 $113 #
plane-surface $-1 -279.0000000319818696 -53.03300869750055568 -73.03300699503466831 1 -6.032478718245029544e-10 -2.117850243791481506e-15 -2.117850243791481506e-15 0 -1 forward_v I I I I #
coedge $-1 $130 $129 $147 $148 reversed $114 $-1 #
intcurve-curve $-1 forward { exactcur full nubs 1 open 2 
	0 1 1 1 
	-281.0000000259622084 -43.05417392300029178 -67.22299420828608163 
	-281.0000000259367425 -43.01197097075029063 -78.76992246839722611 
	0 
	null_surface 
	null_surface 
	nullbs 
	nullbs 
	I I 
	0 
	0 
	0 
	F 1 F 0 } I I #
point $-1 -281.0000000259367425 -43.01197097075029063 -78.76992246839722611 #
intcurve-curve $-1 forward { exactcur full nubs 1 open 2 
	0 1 1 1 
	-281.0000000259367425 -43.01197097075029063 -78.76992246839722611 
	-281.0000000319564037 -52.99080270355793232 -84.57993542721607128 
	0 
	null_surface 
	null_surface 
	nullbs 
	nullbs 
	I I 
	0 
	0 
	0 
	F 1 F 0 } I I #
coedge $-1 $140 $140 $149 $150 reversed $125 $-1 #
edge $-1 $151 0.005564506040728000279 $131 0.9515305329645440402 $129 $152 forward 7 unknown #
point $-1 -296.0000000319686251 -53.01107801908981543 -79.03296691538380969 #
loop $-1 $-1 $149 $133 #
cone-surface $-1 -280.6000000319818355 -53.03300869653537575 -73.03300699503466831 1 -6.032369380184995897e-10 -5.61378888758843097e-16 6.936545560165541247e-09 11.49885086241782517 -3.431680177970051204 1 I I 0 1 11.99999999999998757 forward I I I I #
loop $-1 $-1 $147 $113 #
coedge $-1 $146 $146 $153 $154 reversed $134 $-1 #
coedge $-1 $147 $147 $136 $148 forward $145 $-1 #
edge $-1 $151 0 $151 1 $136 $155 forward 7 unknown #
coedge $-1 $156 $157 $140 $150 forward $143 $-1 #
edge $-1 $158 0 $158 1 $149 $159 forward 7 unknown #
vertex $-1 $148 $160 #
intcurve-curve $-1 forward { exactcur full nubs 1 open 2 
	0.005564506040728000279 1 0.9515305329645440402 1 
	-279.0000000319686251 -53.01107802934497926 -79.03296691538380969 
	-296.0000000319686251 -53.01107801908981543 -79.03296691538380969 
	0 
	null_surface 
	null_surface 
	nullbs 
	nullbs 
	I I 
	0 
	0 
	0 
	F 1 F 0 } I I #
coedge $-1 $157 $156 $146 $154 forward $143 $-1 #
edge $-1 $161 0 $161 1 $146 $162 forward 7 unknown #
intcurve-curve $-1 forward { exactcur full nurbs 2 periodic 4 
	0 2 0.3333333333333329818 2 0.6666666666666669627 2 1 2 
	-279.0000000319686251 -53.01107802934497926 -79.03296691538380969 1 
	-279.0000000382377152 -63.40331345476661795 -79.07095194687315143 0.5 
	-279.0000000351230369 -58.24009174428913127 -70.05201955060476848 1 
	-279.0000000320083018 -53.07687003381161617 -61.03308715433637843 0.5 
	-279.0000000288539468 -47.84785631886749258 -70.01403451911542675 1 
	-279.0000000256995918 -42.61884260392339741 -78.99498188389446796 0.5 
	-279.0000000319686251 -53.01107802934497926 -79.03296691538380969 1 
	0 
	null_surface 
	null_surface 
	nullbs 
	nullbs 
	I I 
	0 
	0 
	0 
	F 1 F 0 } I I #
coedge $-1 $153 $149 $157 $163 reversed $143 $-1 #
coedge $-1 $149 $153 $156 $163 forward $143 $-1 #
vertex $-1 $150 $164 #
intcurve-curve $-1 forward { exactcur full nurbs 2 periodic 4 
	0 2 0.3333333333333329818 2 0.6666666666666669627 2 1 2 
	-281.0000000319554374 -52.98915010177822893 -85.03292684575393423 1 
	-281.000000019417314 -32.20467923357810491 -84.95696153170393927 0.5 
	-281.000000025726024 -42.66270255945192957 -66.99506441265000944 1 
	-281.0000000320347908 -53.12072588532572581 -49.0331672935960583 0.5 
	-281.0000000382642042 -63.4471734276520607 -67.0710297267000044 1 
	-281.0000000444935608 -73.77362096997843821 -85.10889215980395761 0.5 
	-281.0000000319554374 -52.98915010177822893 -85.03292684575393423 1 
	0 
	null_surface 
	null_surface 
	nullbs 
	nullbs 
	I I 
	0 
	0 
	0 
	F 1 F 0 } I I #
point $-1 -279.0000000319686251 -53.01107802934497926 -79.03296691538380969 #
vertex $-1 $154 $165 #
intcurve-curve $-1 forward { exactcur full nurbs 2 periodic 4 
	0 2 0.3333333333333329818 2 0.6666666666666669627 2 1 2 
	-279.0000000319554374 -52.98915010298470918 -85.03292684575396265 1 
	-279.0000000444935608 -73.77362097118492557 -85.10889215980398603 0.5 
	-279.0000000382642042 -63.44717342885853384 -67.0710297267000044 1 
	-279.0000000320347908 -53.12072588653220606 -49.0331672935960583 0.5 
	-279.000000025726024 -42.66270256065840982 -66.99506441265000944 1 
	-279.000000019417314 -32.20467923478457806 -84.95696153170396769 0.5 
	-279.0000000319554374 -52.98915010298470918 -85.03292684575396265 1 
	0 
	null_surface 
	null_surface 
	nullbs 
	nullbs 
	I I 
	0 
	0 
	0 
	F 1 F 0 } I I #
edge $-1 $161 0 $158 1 $157 $166 forward 7 unknown #
point $-1 -281.0000000319554374 -52.98915010177822893 -85.03292684575393423 #
point $-1 -279.0000000319554374 -52.98915010298470918 -85.03292684575396265 #
intcurve-curve $-1 forward { exactcur full nubs 1 open 2 
	0 1 1 1 
	-279.0000000319554374 -52.98915010298470918 -85.03292684575396265 
	-281.0000000319554374 -52.98915010177822893 -85.03292684575393423 
	0 
	null_surface 
	null_surface 
	nullbs 
	nullbs 
	I I 
	0 
	0 
	0 
	F 1 F 0 } I I #
End-of-ACIS-data 