600 0 1 0           
82 GICL ACIS Healer - Source: /gicl/data5/repository/SDRC_I-DEAS/bmw/Part22.sat - 6 0 18 ACIS 6.0.3 Solaris 24 Sat Apr 13 23:15:34 2002 
1 9.999999999999999547e-07 1.000000000000000036e-10 
body $-1 $1 $-1 $-1 #
lump $-1 $-1 $2 $0 #
shell $-1 $-1 $-1 $3 $-1 $1 #
face $-1 $4 $5 $2 $-1 $6 reversed single #
face $-1 $7 $8 $2 $-1 $9 reversed single #
loop $-1 $-1 $10 $3 #
plane-surface $-1 -323.9885311726362147 -7.503435550439800039 61.46964872428259241 0.3386289274238060143 0.5983105642653969714 0.7261920670182406834 0.906307784511835357 0 -0.4226182671551820258 forward_v I I I I #
face $-1 $11 $12 $2 $-1 $13 reversed single #
loop $-1 $-1 $14 $4 #
cone-surface $-1 -325.3430468875194492 -9.896677779333812097 58.56488043542157129 0.3386289274238085678 0.5983105642653979706 0.726192067018238796 0.8335181445353896379 -0.285172422150413496 -0.153721980082934806 1 I I 0 1 0.8942629673566218074 forward I I I I #
coedge $-1 $10 $10 $15 $16 forward $5 $-1 #
face $-1 $17 $18 $2 $-1 $19 reversed single #
loop $-1 $-1 $20 $7 #
plane-surface $-1 -327.7999785071948509 13.1902910769858579 46.19736824081036275 0.3386289274238099001 0.5983105642654079626 0.7261920670182298032 0.9063077845118309162 0 -0.4226182671551911851 forward_v I I I I #
coedge $-1 $21 $22 $23 $24 reversed $8 $-1 #
coedge $-1 $22 $21 $10 $16 reversed $8 $-1 #
edge $-1 $25 0 $25 1 $10 $26 forward 7 unknown #
face $-1 $27 $28 $2 $-1 $29 forward single #
loop $-1 $-1 $30 $11 #
cone-surface $-1 -329.1544942658019863 10.7970487971382223 43.29260001431887162 0.3386289274238096225 0.5983105642654018563 0.7261920670182350213 0.1095831732682768234 0.6257522397203505449 -0.566657536971725051 1 I I 0 1 0.8512785099986033277 forward I I I I #
coedge $-1 $20 $20 $31 $32 forward $12 $-1 #
coedge $-1 $15 $14 $22 $33 forward $8 $-1 #
coedge $-1 $14 $15 $21 $33 reversed $8 $-1 #
coedge $-1 $23 $23 $14 $24 forward $34 $-1 #
edge $-1 $35 0 $35 1 $14 $36 forward 7 unknown #
vertex $-1 $16 $37 #
intcurve-curve $-1 forward { exactcur full nurbs 2 periodic 4 
	0 2 0.3333333333333329818 2 0.6666666666666669627 2 1 2 
	-323.8574374761924446 -8.215190650500723279 61.99493465763592326 1 
	-325.2970402749730283 -8.071988477586387489 62.54824802614574963 0.5 
	-324.7738794280303978 -7.075956871700824991 61.48366241067873261 1 
	-324.2507185810877672 -6.07992526581523407 60.41907679521168006 0.5 
	-323.3342766292497572 -7.219159044615160781 60.93034904216888492 1 
	-322.417834677411804 -8.358392823415096373 61.44162128912610399 0.5 
	-323.8574374761924446 -8.215190650500723279 61.99493465763592326 1 
	0 
	null_surface 
	null_surface 
	nullbs 
	nullbs 
	I I 
	0 
	0 
	0 
	F 1 F 0 } I I #
face $-1 $38 $39 $2 $-1 $40 forward single #
loop $-1 $41 $42 $17 #
plane-surface $-1 -329.4931237786512384 10.19874141135857215 42.56640560153053343 -0.3386289274238081792 -0.5983105642653916423 -0.7261920670182442361 -0.906307784511835024 0 0.4226182671551825254 forward_v I I I I #
coedge $-1 $43 $44 $45 $46 reversed $18 $-1 #
coedge $-1 $44 $43 $20 $32 reversed $18 $-1 #
edge $-1 $47 0 $47 1 $20 $48 forward 7 unknown #
edge $-1 $35 0 $25 1 $22 $49 forward 7 unknown #
loop $-1 $-1 $23 $38 #
vertex $-1 $24 $50 #
intcurve-curve $-1 forward { exactcur full nurbs 2 periodic 4 
	0 2 0.3333333333333329818 2 0.6666666666666669627 2 1 2 
	-325.5505821133114637 -11.20674347182773545 58.36397432254473472 1 
	-324.1109793145308231 -11.34994564474209078 57.81066095403490834 0.5 
	-325.0274212663688331 -10.21071186594215163 57.29938870707768928 1 
	-325.9438632182067863 -9.071478087142217817 56.78811646012049152 0.5 
	-326.4670240651494737 -10.06750969302782295 57.85270207558752986 1 
	-326.9901849120920474 -11.06354129891338545 58.91728769105456109 0.5 
	-325.5505821133114637 -11.20674347182773545 58.36397432254473472 1 
	0 
	null_surface 
	null_surface 
	nullbs 
	nullbs 
	I I 
	0 
	0 
	0 
	F 1 F 0 } I I #
point $-1 -323.8574374761924446 -8.215190650500723279 61.99493465763592326 #
face $-1 $-1 $51 $2 $-1 $52 forward single #
loop $-1 $-1 $53 $27 #
torus-surface $-1 -327.5873995040847149 -0.1481250553632698086 50.20254815785197877 -0.929430261278763381 0.09245358032105085999 0.3572278333292475128 13.00000000000012967 1.999999999999872102 -0.3386289274238079017 -0.5983105642653994138 -0.7261920670182380189 forward_v I I I I #
loop $-1 $-1 $45 $17 #
coedge $-1 $42 $42 $53 $54 reversed $28 $-1 #
coedge $-1 $31 $30 $44 $55 forward $18 $-1 #
coedge $-1 $30 $31 $43 $55 reversed $18 $-1 #
coedge $-1 $45 $45 $30 $46 forward $41 $-1 #
edge $-1 $56 0 $56 1 $30 $57 forward 7 unknown #
vertex $-1 $32 $58 #
intcurve-curve $-1 forward { exactcur full nurbs 2 periodic 4 
	0 2 0.3333333333333329818 2 0.6666666666666669627 2 1 2 
	-327.0087745481378647 13.11158730810009132 45.89326790470526873 1 
	-326.7926277146394796 11.93804795969672838 46.75935753567543429 0.5 
	-328.0875071433421795 12.64287325304800191 46.78246328672020127 1 
	-329.3823865720448225 13.34769854639930742 46.80556903776493272 0.5 
	-328.3036539768404509 13.81641260145139682 45.9163736557500286 1 
	-327.2249213816360793 14.28512665650347557 45.02717827373511028 0.5 
	-327.0087745481378647 13.11158730810009132 45.89326790470526873 1 
	0 
	null_surface 
	null_surface 
	nullbs 
	nullbs 
	I I 
	0 
	0 
	0 
	F 1 F 0 } I I #
intcurve-curve $-1 forward { exactcur full nubs 1 open 2 
	0 1 1 1 
	-325.5505821133114637 -11.20674347182773545 58.36397432254473472 
	-323.8574374761924446 -8.215190650500723279 61.99493465763592326 
	0 
	null_surface 
	null_surface 
	nullbs 
	nullbs 
	I I 
	0 
	0 
	0 
	F 1 F 0 } I I #
point $-1 -325.5505821133114637 -11.20674347182773545 58.36397432254473472 #
loop $-1 $34 $59 $38 #
plane-surface $-1 -325.6816752295179072 -10.49499152208496433 57.83869071417343832 -0.3386289274238077907 -0.59831056426540008 -0.7261920670182371307 -0.9063077845118336917 0 0.422618267155185523 forward_v I I I I #
coedge $-1 $60 $61 $42 $54 forward $39 $-1 #
edge $-1 $62 0 $62 1 $42 $63 forward 7 unknown #
edge $-1 $56 0 $47 1 $44 $64 forward 7 unknown #
vertex $-1 $46 $65 #
intcurve-curve $-1 forward { exactcur full nurbs 2 periodic 4 
	0 2 0.3333333333333329818 2 0.6666666666666669627 2 1 2 
	-328.7019191852568838 10.12003448677308626 42.26230756961408019 1 
	-328.9180660187550984 11.29357383517642255 41.39621793864390042 0.5 
	-329.9967986139595268 10.82485978012436334 42.28541332065882585 1 
	-331.0755312091638416 10.35614572507227393 43.17460870267372997 0.5 
	-329.7806517804612554 9.651320431721011062 43.15150295162901273 1 
	-328.4857723517585555 8.946495138369721545 43.12839720058423865 0.5 
	-328.7019191852568838 10.12003448677308626 42.26230756961408019 1 
	0 
	null_surface 
	null_surface 
	nullbs 
	nullbs 
	I I 
	0 
	0 
	0 
	F 1 F 0 } I I #
point $-1 -327.0087745481378647 13.11158730810009132 45.89326790470526873 #
coedge $-1 $59 $59 $66 $67 reversed $51 $-1 #
coedge $-1 $66 $53 $61 $68 reversed $39 $-1 #
coedge $-1 $53 $66 $60 $68 forward $39 $-1 #
vertex $-1 $68 $69 #
intcurve-curve $-1 forward { exactcur full nurbs 2 periodic 4 
	0 2 0.3333333333333329818 2 0.6666666666666669627 2 1 2 
	-327.6342626706683632 10.01383107223073665 41.851952280642152 1 
	-328.1420796329421705 12.77095305902978239 39.8171549239660294 0.5 
	-330.6764619356416688 11.66975280659342928 41.90623710229183985 1 
	-333.2108442383408828 10.56855255415701578 43.99531928061762898 0.5 
	-330.1686449733676909 8.912630819794308934 43.94103445896793403 1 
	-327.1264457083943853 7.256709085431658934 43.88674963731822487 0.5 
	-327.6342626706683632 10.01383107223073665 41.851952280642152 1 
	0 
	null_surface 
	null_surface 
	nullbs 
	nullbs 
	I I 
	0 
	0 
	0 
	F 1 F 0 } I I #
intcurve-curve $-1 forward { exactcur full nubs 1 open 2 
	0 1 1 1 
	-328.7019191852568838 10.12003448677308626 42.26230756961408019 
	-327.0087745481378647 13.11158730810009132 45.89326790470526873 
	0 
	null_surface 
	null_surface 
	nullbs 
	nullbs 
	I I 
	0 
	0 
	0 
	F 1 F 0 } I I #
point $-1 -328.7019191852568838 10.12003448677308626 42.26230756961408019 #
coedge $-1 $61 $60 $59 $67 forward $39 $-1 #
edge $-1 $70 0 $70 1 $66 $71 forward 7 unknown #
edge $-1 $70 0 $62 2.501851166488375799 $61 $72 forward 7 unknown #
point $-1 -327.6342626706683632 10.01383107223073665 41.851952280642152 #
vertex $-1 $67 $73 #
intcurve-curve $-1 forward { exactcur full nurbs 2 periodic 4 
	0 2 0.3333333333333329818 2 0.6666666666666669627 2 1 2 
	-323.8228152923857124 -10.67989550424133682 57.12423270174483036 1 
	-324.3306322546595766 -7.922773517442274205 55.08943534506870776 0.5 
	-326.8650145573589612 -9.023973769878615769 57.17851752339453242 1 
	-329.3993968600582889 -10.12517402231501507 59.26759970172031444 0.5 
	-326.3571975950850401 -11.7810957566777148 59.2133148800706266 1 
	-323.3149983301117345 -13.43701749104041809 59.15903005842091744 0.5 
	-323.8228152923857124 -10.67989550424133682 57.12423270174483036 1 
	0 
	null_surface 
	null_surface 
	nullbs 
	nullbs 
	I I 
	0 
	0 
	0 
	F 1 F 0 } I I #
intcurve-curve $-1 forward { exactcur full nurbs 2 open 3 
	0 2 1.2509255832441879 2 2.501851166488375799 2 
	-323.8228152923857124 -10.67989550424133682 57.12423270174484458 1 
	-319.4206392358761377 -2.901858168791147996 66.56472957298194615 0.7071067811865470176 
	-321.3263629250174631 7.445005119444864761 58.92858936243057855 1 
	-323.2320866141588454 17.79186840768088373 51.29244915187923226 0.7071067811865470176 
	-327.6342626706683632 10.01383107223073665 41.851952280642152 1 
	0 
	null_surface 
	null_surface 
	nullbs 
	nullbs 
	I I 
	0 
	0 
	0 
	F 1 F 0 } I I #
point $-1 -323.8228152923857124 -10.67989550424133682 57.12423270174483036 #
End-of-ACIS-data 