600 0 1 0           
82 GICL ACIS Healer - Source: /gicl/data5/repository/SDRC_I-DEAS/bmw/Part18.sat - 6 0 18 ACIS 6.0.3 Solaris 24 Sat Apr 13 23:15:28 2002 
1 9.999999999999999547e-07 1.000000000000000036e-10 
body $-1 $1 $-1 $-1 #
lump $-1 $-1 $2 $0 #
shell $-1 $-1 $-1 $3 $-1 $1 #
face $-1 $4 $5 $2 $-1 $6 reversed single #
face $-1 $7 $8 $2 $-1 $9 reversed single #
loop $-1 $-1 $10 $3 #
plane-surface $-1 -313.1128377281962685 -7.503435646448640028 56.39822958339419756 0.3386289274238087343 0.5983105642654006351 0.7261920670182364645 0.9063077845118329146 0 -0.4226182671551867998 forward_v I I I I #
face $-1 $11 $12 $2 $-1 $13 reversed single #
loop $-1 $-1 $14 $4 #
cone-surface $-1 -314.467353443079503 -9.896677875342696495 53.49346129453318355 0.3386289274238099001 0.5983105642653961942 0.7261920670182394622 0.8335181445353327945 -0.2851724221503619816 -0.1537219800829561223 1 I I 0 1 0.8942629673565561932 forward I I I I #
coedge $-1 $10 $10 $15 $16 forward $5 $-1 #
face $-1 $17 $18 $2 $-1 $19 reversed single #
loop $-1 $-1 $20 $7 #
plane-surface $-1 -316.924285062755132 13.19029098097702857 41.12594909992200343 0.3386289274238175606 0.5983105642654030776 0.7261920670182303583 0.9063077845118274745 0 -0.4226182671551987902 forward_v I I I I #
coedge $-1 $21 $22 $23 $24 reversed $8 $-1 #
coedge $-1 $22 $21 $10 $16 reversed $8 $-1 #
edge $-1 $25 0 $25 1 $10 $26 forward 7 unknown #
face $-1 $27 $28 $2 $-1 $29 forward single #
loop $-1 $-1 $30 $11 #
cone-surface $-1 -318.2788008213622675 10.79704870112937698 38.22118087343051229 0.3386289274238049041 0.5983105642653971934 0.7261920670182411275 0.1095831732682768234 0.6257522397203594267 -0.5666575369717179456 1 I I 0 1 0.8512785099986052151 forward I I I I #
coedge $-1 $20 $20 $31 $32 forward $12 $-1 #
coedge $-1 $15 $14 $22 $33 forward $8 $-1 #
coedge $-1 $14 $15 $21 $33 reversed $8 $-1 #
coedge $-1 $23 $23 $14 $24 forward $34 $-1 #
edge $-1 $35 0 $35 1 $14 $36 forward 7 unknown #
vertex $-1 $16 $37 #
intcurve-curve $-1 forward { exactcur full nurbs 2 periodic 4 
	0 2 0.3333333333333329818 2 0.6666666666666669627 2 1 2 
	-312.9817440317524984 -8.21519074650957748 56.9235155167475213 1 
	-314.4213468305330821 -8.071988573595263006 57.47682888525732636 0.5 
	-313.8981859835905084 -7.075956967709657874 56.41224326979032355 1 
	-313.375025136647821 -6.079925361824081165 55.347657654323271 0.5 
	-312.4585831848098678 -7.21915914062400077 55.85892990128047586 1 
	-311.5421412329718578 -8.358392919423957679 56.3702021482376594 0.5 
	-312.9817440317524984 -8.21519074650957748 56.9235155167475213 1 
	0 
	null_surface 
	null_surface 
	nullbs 
	nullbs 
	I I 
	0 
	0 
	0 
	F 1 F 0 } I I #
face $-1 $38 $39 $2 $-1 $40 forward single #
loop $-1 $41 $42 $17 #
plane-surface $-1 -318.6174303342114058 10.1987413153497144 37.494986460642167 -0.3386289274238092895 -0.5983105642654009682 -0.7261920670182357984 -0.9063077845118325815 0 0.4226182671551876879 forward_v I I I I #
coedge $-1 $43 $44 $45 $46 reversed $18 $-1 #
coedge $-1 $44 $43 $20 $32 reversed $18 $-1 #
edge $-1 $47 0 $47 1 $20 $48 forward 7 unknown #
edge $-1 $35 0 $25 1 $22 $49 forward 7 unknown #
loop $-1 $-1 $23 $38 #
vertex $-1 $24 $50 #
intcurve-curve $-1 forward { exactcur full nurbs 2 periodic 4 
	0 2 0.3333333333333329818 2 0.6666666666666669627 2 1 2 
	-314.6748886688715174 -11.20674356783657544 53.29255518165633276 1 
	-313.2352858700908769 -11.34994574075095564 52.73924181314649218 0.5 
	-314.1517278219289437 -10.21071196195095609 52.22796956618928021 1 
	-315.0681697737668401 -9.071478183151072017 51.71669731923207536 0.5 
	-315.5913306207095275 -10.06750978903667004 52.78128293469913501 1 
	-316.1144914676521012 -11.06354139492226096 53.84586855016614493 0.5 
	-314.6748886688715174 -11.20674356783657544 53.29255518165633276 1 
	0 
	null_surface 
	null_surface 
	nullbs 
	nullbs 
	I I 
	0 
	0 
	0 
	F 1 F 0 } I I #
point $-1 -312.9817440317524984 -8.21519074650957748 56.9235155167475213 #
face $-1 $-1 $51 $2 $-1 $52 forward single #
loop $-1 $-1 $53 $27 #
torus-surface $-1 -316.7117060596447118 -0.1481251513720915902 45.13112901696358392 -0.9294302612787651574 0.09245358032104253332 0.3572278333292449592 13.00000000000007638 1.999999999999895195 -0.3386289274238012403 -0.5983105642653983036 -0.7261920670182419046 forward_v I I I I #
loop $-1 $-1 $45 $17 #
coedge $-1 $42 $42 $53 $54 reversed $28 $-1 #
coedge $-1 $31 $30 $44 $55 forward $18 $-1 #
coedge $-1 $30 $31 $43 $55 reversed $18 $-1 #
coedge $-1 $45 $45 $30 $46 forward $41 $-1 #
edge $-1 $56 0 $56 1 $30 $57 forward 7 unknown #
vertex $-1 $32 $58 #
intcurve-curve $-1 forward { exactcur full nurbs 2 periodic 4 
	0 2 0.3333333333333329818 2 0.6666666666666669627 2 1 2 
	-316.133081103698089 13.11158721209123001 40.82184876381691652 1 
	-315.9169342701997607 11.93804786368786353 41.68793839478706786 0.5 
	-317.2118136989024606 12.64287315703916903 41.71104414583183484 1 
	-318.5066931276050468 13.34769845039046032 41.73414989687657339 0.5 
	-317.4279605324007321 13.81641250544249289 40.84495451486166218 1 
	-316.3492279371963036 14.28512656049456986 39.95575913284673675 0.5 
	-316.133081103698089 13.11158721209123001 40.82184876381691652 1 
	0 
	null_surface 
	null_surface 
	nullbs 
	nullbs 
	I I 
	0 
	0 
	0 
	F 1 F 0 } I I #
intcurve-curve $-1 forward { exactcur full nubs 1 open 2 
	0 1 1 1 
	-314.6748886688715174 -11.20674356783657544 53.29255518165633276 
	-312.9817440317524984 -8.21519074650957748 56.9235155167475213 
	0 
	null_surface 
	null_surface 
	nullbs 
	nullbs 
	I I 
	0 
	0 
	0 
	F 1 F 0 } I I #
point $-1 -314.6748886688715174 -11.20674356783657544 53.29255518165633276 #
loop $-1 $34 $59 $38 #
plane-surface $-1 -314.8059817850780746 -10.49499161809380432 52.76727157328503637 -0.3386289274238085678 -0.5983105642653966383 -0.7261920670182400173 -0.9063077845118338027 0 0.4226182671551849124 forward_v I I I I #
coedge $-1 $60 $61 $42 $54 forward $39 $-1 #
edge $-1 $62 0 $62 1 $42 $63 forward 7 unknown #
edge $-1 $56 0 $47 1 $44 $64 forward 7 unknown #
vertex $-1 $46 $65 #
intcurve-curve $-1 forward { exactcur full nurbs 2 periodic 4 
	0 2 0.3333333333333329818 2 0.6666666666666669627 2 1 2 
	-317.8262257408170512 10.1200343907642818 37.19088842872572798 1 
	-318.0423725743153796 11.29357373916760565 36.32479879775556242 0.5 
	-319.1211051695197511 10.82485968411553046 37.21399417977048785 1 
	-320.1998377647240659 10.35614562906345526 38.10318956178538485 0.5 
	-318.9049583360214797 9.651320335712163967 38.0800838107406534 1 
	-317.6100789073187798 8.946495042360870897 38.05697805969588643 0.5 
	-317.8262257408170512 10.1200343907642818 37.19088842872572798 1 
	0 
	null_surface 
	null_surface 
	nullbs 
	nullbs 
	I I 
	0 
	0 
	0 
	F 1 F 0 } I I #
point $-1 -316.133081103698089 13.11158721209123001 40.82184876381691652 #
coedge $-1 $59 $59 $66 $67 reversed $51 $-1 #
coedge $-1 $66 $53 $61 $68 reversed $39 $-1 #
coedge $-1 $53 $66 $60 $68 forward $39 $-1 #
vertex $-1 $68 $69 #
intcurve-curve $-1 forward { exactcur full nurbs 2 periodic 4 
	0 2 0.3333333333333329818 2 0.6666666666666669627 2 1 2 
	-316.7585692262285875 10.01383097622190377 36.78053313975377847 1 
	-317.2663861885024517 12.77095296302096905 34.74573578307767008 0.5 
	-319.8007684912018362 11.66975271058456798 36.83481796140349473 1 
	-322.335150793901164 10.56855245814816868 38.92390013972926965 0.5 
	-319.2929515289279152 8.912630723785490261 38.86961531807958181 1 
	-316.2507522639546096 7.256708989422824274 38.81533049642985134 0.5 
	-316.7585692262285875 10.01383097622190377 36.78053313975377847 1 
	0 
	null_surface 
	null_surface 
	nullbs 
	nullbs 
	I I 
	0 
	0 
	0 
	F 1 F 0 } I I #
intcurve-curve $-1 forward { exactcur full nubs 1 open 2 
	0 1 1 1 
	-317.8262257408170512 10.1200343907642818 37.19088842872572798 
	-316.133081103698089 13.11158721209123001 40.82184876381691652 
	0 
	null_surface 
	null_surface 
	nullbs 
	nullbs 
	I I 
	0 
	0 
	0 
	F 1 F 0 } I I #
point $-1 -317.8262257408170512 10.1200343907642818 37.19088842872572798 #
coedge $-1 $61 $60 $59 $67 forward $39 $-1 #
edge $-1 $70 0 $70 1 $66 $71 forward 7 unknown #
edge $-1 $70 0 $62 2.501851166488375799 $61 $72 forward 7 unknown #
point $-1 -316.7585692262285875 10.01383097622190377 36.78053313975377847 #
vertex $-1 $67 $73 #
intcurve-curve $-1 forward { exactcur full nurbs 2 periodic 4 
	0 2 0.3333333333333329818 2 0.6666666666666669627 2 1 2 
	-312.9471218479457661 -10.67989560025016971 52.0528135608564213 1 
	-313.4549388102196303 -7.922773613451120411 50.01801620418031291 0.5 
	-315.9893211129190718 -9.023973865887498391 52.10709838250612336 1 
	-318.5237034156183427 -10.12517411832389058 54.19618056083191249 0.5 
	-315.4815041506451507 -11.78109585268659032 54.14189573918221043 1 
	-312.4393048856717883 -13.43701758704924742 54.08761091753250128 0.5 
	-312.9471218479457661 -10.67989560025016971 52.0528135608564213 1 
	0 
	null_surface 
	null_surface 
	nullbs 
	nullbs 
	I I 
	0 
	0 
	0 
	F 1 F 0 } I I #
intcurve-curve $-1 forward { exactcur full nurbs 2 open 3 
	0 2 1.2509255832441879 2 2.501851166488375799 2 
	-312.9471218479457661 -10.67989560025016971 52.05281356085642841 1 
	-308.5449457914362483 -2.901858264799953346 61.49331043209352288 0.7071067811865470176 
	-310.4506694805776874 7.445005023436031877 53.85717022154220501 1 
	-312.3563931697190128 17.79186831167207572 46.22103001099085873 0.7071067811865470176 
	-316.7585692262285875 10.01383097622190377 36.78053313975377847 1 
	0 
	null_surface 
	null_surface 
	nullbs 
	nullbs 
	I I 
	0 
	0 
	0 
	F 1 F 0 } I I #
point $-1 -312.9471218479457661 -10.67989560025016971 52.0528135608564213 #
End-of-ACIS-data 