600 0 2 0           
24 FBMach with ACIS - 6.0.3 13 ACIS 6.0.3 NT 24 Wed May 23 19:56:25 2001 
1 9.9999999999999995e-007 1e-010 
body $2 $3 $-1 $-1 #
bdycol-kcp $-1 1 1 $4 #
model_id-kcp-attrib $-1 $-1 $-1 $0 1 990662185 110 124649473 1 #
lump $-1 $-1 $5 $0 #
body $6 $7 $-1 $8 #
shell $-1 $-1 $-1 $9 $-1 $3 #
model_id-kcp-attrib $-1 $-1 $-1 $4 1 990662185 130 125960194 1 #
lump $-1 $-1 $10 $4 #
transform $-1 1 0 0 0 1 0 0 0 1 -57.499962061270239 -101.62850360693619 -30.527023032384523 1 no_rotate no_reflect no_shear #
face $11 $12 $13 $5 $-1 $14 forward single #
shell $-1 $-1 $-1 $15 $-1 $7 #
model_id-kcp-attrib $-1 $-1 $-1 $9 1 990662185 110 124649473 2 #
face $16 $17 $18 $5 $-1 $19 forward single #
loop $-1 $-1 $20 $9 #
spline-surface $-1 forward { exactsur full nubs 1 1 open open none none 2 2 
	0 1 1 1 
	0 1 1 1 
	-99.999999999996717 -108.13750175779913 -21.862495693548347 
	-99.999999999996703 -91.8624982053623 -21.862495693548365 
	-100.00000000000331 -108.13750175779914 -38.137499245985175 
	-100.0000000000033 -91.862498205362314 -38.137499245985197 
	0 
	0 
	0 
	0 
	0 
	0 
	0 
	F 1 F 0 F 1 F 0 } I I I I #
face $-1 $21 $22 $10 $-1 $23 forward single #
model_id-kcp-attrib $-1 $-1 $-1 $12 1 990662185 110 124649473 3 #
face $24 $-1 $25 $5 $-1 $26 reversed single #
loop $-1 $-1 $27 $12 #
spline-surface $-1 forward { exactsur full nurbs 2 1 both periodic open none none 4 2 
	0 2 0.33333333333333298 2 0.66666666666666696 2 1 2 
	0 1 1 1 
	-99.999999999996874 -99.999999999999972 -22.249999999997986 1 
	-99.999999999996888 -113.42339375865879 -22.249999999997993 0.5 
	-100.00000000000159 -106.71169687932937 -33.874999999997996 1 
	-100.0000000000063 -99.999999999999986 -45.499999999997996 0.5 
	-100.00000000000158 -93.288303120670577 -33.874999999998003 1 
	-99.999999999996859 -86.576606241341167 -22.24999999999801 0.5 
	-99.999999999996874 -99.999999999999972 -22.249999999997986 1 
	-14.999999999996859 -100.00000000000006 -22.250000000032429 1 
	-14.999999999996874 -113.42339375865888 -22.250000000032436 0.5 
	-15.000000000001577 -106.71169687932947 -33.875000000032436 1 
	-15.000000000006281 -100.00000000000009 -45.500000000032443 0.5 
	-15.000000000001563 -93.288303120670676 -33.875000000032443 1 
	-14.999999999996845 -86.576606241341267 -22.250000000032454 0.5 
	-14.999999999996859 -100.00000000000006 -22.250000000032429 1 
	0 
	0 
	0 
	0 
	0 
	0 
	0 
	F 1 F 0 F 1 F 0 } I I I I #
tcoedge-coedge $-1 $20 $20 $28 $29 reversed $13 $30 -1 0 #
face $-1 $31 $32 $10 $-1 $33 reversed single #
loop $-1 $-1 $34 $15 #
plane-surface $-1 0 0 14.973327352157565 0 0 1 1 0 0 forward_v I I I I #
model_id-kcp-attrib $-1 $-1 $-1 $17 1 990662185 110 124649473 4 #
loop $-1 $-1 $35 $17 #
spline-surface $-1 forward { exactsur full nurbs 2 2 both periodic open none high 4 2 
	0 2 0.33333333333333298 2 0.66666666666666696 2 1 2 
	0.37826075741188597 2 1 2 
	-19.48247733150167 -91.659018395142951 -30.000000000030624 0.86223500521121199 
	-19.482477331507496 -91.659018395142965 -44.446304319834304 0.431117502605606 
	-19.4836045939538 -104.16988487610914 -37.223152159932454 0.86223500521121199 
	-19.484731856400046 -116.68075135707532 -30.000000000030614 0.431117502605606 
	-19.483604593947945 -104.16988487610912 -22.776847840128781 0.86223500521121199 
	-19.482477331495787 -91.659018395142951 -15.553695680226959 0.431117502605606 
	-19.48247733150167 -91.659018395142951 -30.000000000030624 0.86223500521121199 
	-14.999515679974536 -94.624798176341557 -30.000000000032433 0.81789679197573095 
	-14.999515679978302 -94.624798176341571 -39.31012269733823 0.40894839598786598 
	-15.000242160014622 -102.68760091182955 -34.655061348685322 0.81789679197573095 
	-15.000968640050885 -110.75040364731757 -30.000000000032433 0.40894839598786598 
	-15.000242160010842 -102.68760091182955 -25.34493865137955 0.81789679197573095 
	-14.999515679970756 -94.624798176341557 -20.689877302726671 0.40894839598786598 
	-14.999515679974536 -94.624798176341557 -30.000000000032433 0.81789679197573095 
	-15 -100.00000000000023 -30.000000000032436 1 
	-15 -100.00000000000023 -30.000000000032447 0.5 
	-15 -100.00000000000023 -30.000000000032447 1 
	-15 -100.00000000000026 -30.00000000003244 0.5 
	-15 -100.00000000000023 -30.000000000032433 1 
	-15 -100.00000000000023 -30.000000000032429 0.5 
	-15 -100.00000000000023 -30.000000000032436 1 
	0 
	0 
	0 
	0 
	0 
	0 
	0 
	F 1 F 0 F 1 F 0 } I I I I #
tcoedge-coedge $-1 $36 $37 $35 $38 forward $18 $39 0 1 #
tcoedge-coedge $-1 $37 $40 $20 $29 forward $18 $41 0 1 #
tedge-edge $-1 $42 0 $42 1 $20 $43 forward 7 unknown 0.00035038454409303422 #
pcurve $-1 0 forward { exppc nubs 2 periodic 31 
	-1 2 -0.95833333333333337 2 -0.91666666666666674 2 -0.875 2 -0.85416666666666674 2 
	-0.83333333333333337 2 -0.8125 2 -0.79166666666666674 2 -0.75 2 -0.70833333333333337 2 
	-0.66666666666666674 2 -0.625 2 -0.58333333333333337 2 -0.54166666666666674 2 -0.52083333333333337 2 
	-0.5 2 -0.47916666666666669 2 -0.45833333333333337 2 -0.41666666666666669 2 -0.375 2 
	-0.33333333333333337 2 -0.29166666666666669 2 -0.25 2 -0.20833333333333331 2 -0.18749999999999997 2 
	-0.16666666666666663 2 -0.14583333333333331 2 -0.12499999999999997 2 -0.083333333333333315 2 -0.041666666666666657 2 
	0 2 
	0.49999999886824908 0.023809783217627091 
	0.55498572678902258 0.023809783217627001 
	0.60852446186977638 0.036341108803145374 
	0.66801194529283592 0.050264803898165733 
	0.72205774624060504 0.078754826169515041 
	0.78042721126419612 0.10952405022257244 
	0.82823112982388913 0.15500508985784933 
	0.85287232495774945 0.17844892472139215 
	0.87393143874397794 0.20515689389302955 
	0.89520991829881313 0.23214307107687171 
	0.91239295827405342 0.26190496934247492 
	0.92957599824929382 0.29166686760807842 
	0.94230747346411148 0.32358766004839451 
	0.95490769635712547 0.35517937215427087 
	0.96289005534415129 0.38824119055157785 
	0.9783758317789818 0.45238111824235461 
	0.97583802895186922 0.51831516978461878 
	0.97348821151935749 0.5793652175089371 
	0.95580274347466365 0.6378447369080239 
	0.93988582223443951 0.69047630436720109 
	0.91239295827405276 0.73809534159217005 
	0.88490009431366556 0.78571437881713968 
	0.84727828047313603 0.82581462069079814 
	0.80547626509477066 0.87037044499486238 
	0.75378028157951293 0.90293047044783314 
	0.69794861938303532 0.93809529793704116 
	0.63465892438851179 0.95675418599253947 
	0.60203537026762222 0.96637216952630189 
	0.56837603358838251 0.97125591246054355 
	0.53436607881873666 0.97619052771701653 
	0.49999999886824953 0.97619052771701653 
	0.46563391891776085 0.97619052771701653 
	0.4316239641481156 0.97125591246054377 
	0.39796462746887717 0.96637216952630234 
	0.36534107334798704 0.95675418599253992 
	0.30205137835346285 0.93809529793704149 
	0.24621971615698537 0.9029304704478337 
	0.1945237326417272 0.87037044499486271 
	0.15272171726336167 0.82581462069079847 
	0.11509990342283055 0.78571437881713835 
	0.087607039462444747 0.73809534159217127 
	0.060114175502060309 0.69047630436720642 
	0.044197254261834601 0.63784473690802457 
	0.026511786217140079 0.57936521750893621 
	0.024161968784628424 0.51831516978462011 
	0.021624165957515581 0.45238111824235233 
	0.03710994239234526 0.38824119055157896 
	0.045092301379370828 0.35517937215427325 
	0.057692524272385672 0.32358766004839484 
	0.070423999487201683 0.29166686760808291 
	0.087607039462444344 0.26190496934247537 
	0.10479007943768522 0.23214307107687099 
	0.12606855899251959 0.20515689389302985 
	0.14712767277874672 0.17844892472139415 
	0.17176886791260851 0.15500508985784991 
	0.21957278647230216 0.10952405022257229 
	0.27794225149589241 0.078754826169515207 
	0.33198805244366209 0.050264803898165636 
	0.39147553586672101 0.036341108803145367 
	0.44501427094747387 0.023809783217627167 
	0.49999999886824908 0.023809783217627091 
	0.001 
	spline forward { ref 0 } I I I I 
	} 0 0 #
face $-1 $44 $45 $10 $-1 $46 reversed single #
loop $-1 $-1 $47 $21 #
plane-surface $-1 0 0 -14.973327352157565 0 0 1 1 0 0 forward_v I I I I #
coedge $-1 $48 $49 $50 $51 forward $22 $-1 #
tcoedge-coedge $-1 $52 $53 $27 $38 reversed $25 $54 -1 0 #
tcoedge-coedge $-1 $40 $27 $52 $55 forward $18 $56 0 1 #
coedge $-1 $27 $28 $40 $57 forward $18 $58 #
tedge-edge $-1 $59 0 $60 1 $27 $61 forward 7 unknown 3.9201037241790252e-005 #
pcurve $-1 0 forward { exppc nubs 2 open 7 
	0 2 0.16666666666666666 2 0.33333333333333331 2 0.5 2 0.66666666666666663 2 
	0.83333333333333337 2 1 2 
	1 0.95670132124990848 
	0.97496605563017469 0.95670310964951333 
	0.95296602910015693 0.95670468130910358 
	0.93095180135667999 0.95670631595875699 
	0.91081089268747939 0.95670781150653439 
	0.88821137588890797 0.95670945639028093 
	0.87138352712948763 0.95671050996427343 
	0.85118914034349547 0.95671177431335397 
	0.83334545897244428 0.95671257783627328 
	0.8139807916699402 0.95671344985119844 
	0.79530601025235281 0.95671387741958236 
	0.77598805709687402 0.95671431971372467 
	0.75598306414370831 0.95671431971373855 
	0.001 
	spline forward { ref 1 } I I I I 
	} 0 0 #
coedge $-1 $28 $36 $37 $57 reversed $18 $62 #
pcurve $-1 0 forward { exppc nubs 2 periodic 31 
	0 2 0.041666666666666664 2 0.083333333333333329 2 0.125 2 0.14583333333333331 2 
	0.16666666666666666 2 0.1875 2 0.20833333333333331 2 0.25 2 0.29166666666666663 2 
	0.33333333333333331 2 0.375 2 0.41666666666666663 2 0.45833333333333331 2 0.47916666666666663 2 
	0.5 2 0.52083333333333326 2 0.54166666666666663 2 0.58333333333333326 2 0.625 2 
	0.66666666666666663 2 0.70833333333333326 2 0.75 2 0.79166666666666674 2 0.8125 2 
	0.83333333333333337 2 0.85416666666666674 2 0.875 2 0.91666666666666674 2 0.95833333333333337 2 
	1 2 
	0 0 
	0.022038567493113028 0 
	0.04166666666666681 0 
	0.063455657492354794 0 
	0.083333333333333315 0 
	0.10478547854788217 0 
	0.12500000000005212 0 
	0.13549700085692357 0 
	0.1458333333333332 0 
	0.15627705627705613 0 
	0.16666666666666649 0 
	0.17705627705627697 0 
	0.1875 0 
	0.19783633247640969 0 
	0.20833333333328116 0 
	0.2285478547854512 0 
	0.25000000000000011 0 
	0.26987767584097866 0 
	0.29166666666666669 0 
	0.31129476584022059 0 
	0.3333333333333337 0 
	0.35537190082644643 0 
	0.375 0 
	0.39678899082568808 0 
	0.41666666666666674 0 
	0.43811881188121571 0 
	0.45833333333338561 0 
	0.46883033419025705 0 
	0.47916666666666657 0 
	0.48961038961038961 0 
	0.5 0 
	0.51038961038961017 0 
	0.52083333333333304 0 
	0.53116966580974267 0 
	0.54166666666661423 0 
	0.56188118811878429 0 
	0.58333333333333315 0 
	0.60321100917431192 0 
	0.625 0 
	0.64462809917355357 0 
	0.66666666666666663 0 
	0.68870523415977947 0 
	0.70833333333333315 0 
	0.73012232415902145 0 
	0.75000000000000011 0 
	0.77145214521454908 0 
	0.79166666666671903 0 
	0.80216366752359036 0 
	0.81249999999999989 0 
	0.82294372294372287 0 
	0.83333333333333337 0 
	0.84372294372294387 0 
	0.85416666666666674 0 
	0.86450299914307638 0 
	0.87499999999994771 0 
	0.89521452145211766 0 
	0.91666666666666674 0 
	0.9365443425076454 0 
	0.95833333333333359 0 
	0.97796143250688716 0 
	1 0 
	0.001 
	spline forward { ref 1 } I I I I 
	} 0 0 #
tvertex-vertex $-1 $29 $63 3.5527136788005009e-015 #
intcurve-curve $-1 forward { exactcur full nurbs 2 periodic 4 
	0 2 0.33333333333333298 2 0.66666666666666696 2 1 2 
	-99.999999999996874 -99.999999999999972 -22.249999999997986 1 
	-99.999999999996874 -113.42339375865879 -22.249999999997996 0.5 
	-100.00000000000159 -106.71169687932937 -33.874999999997996 1 
	-100.0000000000063 -99.999999999999986 -45.499999999997996 0.5 
	-100.00000000000158 -93.288303120670577 -33.874999999998003 1 
	-99.999999999996874 -86.576606241341167 -22.24999999999801 0.5 
	-99.999999999996874 -99.999999999999972 -22.249999999997986 1 
	0 
	null_surface 
	null_surface 
	nullbs 
	nullbs 
	I I 
	0 
	0 
	0 
	F 1 F 0 } I I #
face $-1 $64 $65 $10 $-1 $66 reversed single #
loop $-1 $-1 $67 $31 #
plane-surface $-1 0 -15.052247750139124 0 0 1 0 0 0 1 forward_v I I I I #
coedge $-1 $68 $69 $70 $71 forward $32 $-1 #
coedge $-1 $72 $34 $73 $74 forward $22 $-1 #
coedge $-1 $34 $72 $75 $76 forward $22 $-1 #
coedge $-1 $77 $78 $34 $51 reversed $79 $-1 #
edge $-1 $80 -15.052247750139124 $81 15.052247750139124 $50 $82 forward 7 unknown #
tcoedge-coedge $-1 $83 $35 $36 $55 reversed $25 $84 -1 0 #
tcoedge-coedge $-1 $35 $83 $83 $85 forward $25 $86 0 0.56117079639580603 #
pcurve $-1 0 forward { exppc nubs 2 open 7 
	-1 2 -0.83333333333333337 2 -0.66666666666666674 2 -0.5 2 -0.33333333333333337 2 
	-0.16666666666666663 2 0 2 
	1 0.43882920360419458 
	0.97494611431775446 0.43882783190384489 
	0.95293055333011667 0.4388266265517855 
	0.93085813146104668 0.43882574528052787 
	0.91066729679623604 0.43882493913418086 
	0.90384953069189289 0.43882416780588357 
	0.87128830284162195 0.43881932926890876 
	0.83899174459483494 0.43881453006154691 
	0.83320923238797773 0.4388131741890659 
	0.8021945729364468 0.438805901930298 
	0.79527076255309714 0.4388045307216642 
	0.77613532267751451 0.43880108670057139 
	0.75597644466436864 0.43879745847976559 
	0.001 
	spline reversed { ref 2 } I I I I 
	} 0 0 #
tedge-edge $-1 $60 0 $59 1 $36 $87 forward 7 unknown 0.00033569492990552567 #
pcurve $-1 0 forward { exppc nubs 2 open 19 
	0 2 0.083333333333333329 2 0.125 2 0.16666666666666666 2 0.20833333333333331 2 
	0.25 2 0.33333333333333331 2 0.41666666666666663 2 0.45833333333333331 2 0.5 2 
	0.58333333333333326 2 0.625 2 0.66666666666666663 2 0.70833333333333326 2 0.75 2 
	0.83333333333333337 2 0.875 2 0.91666666666666674 2 1 2 
	0.75598306414370831 0.95671431971373855 
	0.72671768963911976 0.95671431971378107 
	0.69111872200096658 0.9567133343784453 
	0.67086433581016824 0.95671277376202535 
	0.65430290822338311 0.95671212936882177 
	0.6367707725810936 0.95671144720615975 
	0.61961782901425366 0.95671051527410234 
	0.60382381811920061 0.95670965717386558 
	0.58765232993257621 0.95670854886551016 
	0.57312889899287367 0.95670755350609715 
	0.55732669844511229 0.95670628828336202 
	0.52802545398470269 0.95670374921280854 
	0.49983588950470798 0.95670130647379126 
	0.46200613732954332 0.95669789938069016 
	0.44226695220554457 0.9566963213313513 
	0.42658872373265211 0.95669506793515557 
	0.41215887279369606 0.95669408001031564 
	0.39591125843123148 0.9566929676340783 
	0.38003489197201351 0.9566921071870671 
	0.34877582104983507 0.95669041304787983 
	0.30914151951070168 0.95668931303151228 
	0.29125556373542444 0.95668881662183147 
	0.27546674901983836 0.95668857264791674 
	0.25915630857139582 0.95668832061377485 
	0.24403152477204973 0.95668832048024055 
	0.22894786140115608 0.95668832034711404 
	0.21434727391831696 0.95668856996006779 
	0.19996122949760653 0.95668881590525467 
	0.18547283221673566 0.95668931414910374 
	0.15911987338342509 0.9566902204051374 
	0.12856031833588499 0.95669213492317418 
	0.11413028638811148 0.9566931056441621 
	0.09917206753679185 0.95669411189674947 
	0.084283355817333913 0.9566952028076583 
	0.068535038848579241 0.95669635670270992 
	0.037314869003706855 0.95669861823213098 
	0 0.95670132124990848 
	0.001 
	spline forward { ref 1 } I I I I 
	} 0 0 #
edge $-1 $42 0 $59 0.95670132124990803 $37 $88 forward 7 unknown #
pcurve $-1 0 forward { exppc nubs 2 open 7 
	0 2 0.15945022020831801 2 0.31890044041663601 2 0.47835066062495402 2 0.63780088083327202 2 
	0.79725110104159003 2 0.95670132124990803 2 
	1 0 
	1 0.079725110104159017 
	1 0.15945022020831803 
	1 0.23917533031247706 
	1 0.31890044041663607 
	1 0.39862555052079507 
	1 0.47835066062495413 
	1 0.55807577072911319 
	1 0.63780088083327224 
	1 0.71752599093743119 
	1 0.79725110104159025 
	1 0.87697621114574931 
	1 0.95670132124990825 
	0.001 
	spline forward { ref 1 } I I I I 
	} 0 0 #
tvertex-vertex $-1 $55 $89 2.5121479338940402e-014 #
tvertex-vertex $-1 $85 $90 5.8592855021084639e-014 #
intcurve-curve $-1 forward { exactcur full nubs 3 open 4 
	0 3 0.35685364989481499 2 0.67470053594702695 2 1 3 
	-18.680387693754639 -100.00000000000006 -22.250000000030941 
	-18.680180265749883 -98.545143448743474 -22.250000000030944 
	-18.67997690216292 -97.118718268624519 -22.659390769458472 
	-18.679644068865045 -94.784078499559556 -24.122792634176058 
	-18.679514468891483 -93.874965368473795 -25.077342619600522 
	-18.679331298571199 -92.590051204347574 -27.369171391358222 
	-18.679282824331665 -92.250000000000057 -28.674001200945259 
	-18.679282824332205 -92.250000000000057 -30.00000000003093 
	0 
	null_surface 
	null_surface 
	nullbs 
	nullbs 
	I I 
	0 
	2 0.35685364989481499 0.67470053594702695 
	0 
	F 1 F 0 } I I #
pcurve $-1 0 forward { exppc nubs 2 open 7 
	-0.95670132124990803 2 -0.79725110104159003 2 -0.63780088083327213 2 -0.47835066062495402 2 -0.31890044041663607 2 
	-0.15945022020831798 2 0 2 
	0 0.95670132124990825 
	0 0.87697621114574931 
	0 0.79725110104159025 
	0 0.71752599093743119 
	0 0.63780088083327224 
	0 0.55807577072911319 
	0 0.47835066062495413 
	0 0.39862555052079512 
	0 0.31890044041663612 
	0 0.23917533031247706 
	0 0.15945022020831803 
	0 0.079725110104159017 
	0 0 
	0.001 
	spline forward { ref 1 } I I I I 
	} 0 0 #
point $-1 -99.999999999996874 -99.999999999999972 -22.249999999997986 #
face $-1 $91 $92 $10 $-1 $93 reversed single #
loop $-1 $-1 $94 $44 #
plane-surface $-1 -42.500446381299483 0 0 1 0 0 0 0 -1 forward_v I I I I #
coedge $-1 $95 $75 $96 $97 forward $45 $-1 #
coedge $-1 $98 $47 $95 $99 forward $32 $-1 #
coedge $-1 $47 $98 $100 $101 forward $32 $-1 #
coedge $-1 $78 $77 $47 $71 reversed $79 $-1 #
edge $-1 $102 -15.052247750139124 $103 15.052247750139124 $70 $104 forward 7 unknown #
coedge $-1 $49 $48 $105 $106 forward $22 $-1 #
coedge $-1 $107 $108 $48 $74 reversed $92 $-1 #
edge $-1 $81 -42.500446381299483 $109 42.500446381299483 $73 $110 forward 7 unknown #
coedge $-1 $67 $111 $49 $76 reversed $45 $-1 #
edge $-1 $112 -42.500446381299483 $80 42.500446381299483 $75 $113 forward 7 unknown #
coedge $-1 $70 $50 $111 $114 forward $79 $-1 #
coedge $-1 $50 $70 $107 $115 reversed $79 $-1 #
loop $-1 $-1 $77 $91 #
vertex $-1 $51 $116 #
vertex $-1 $51 $117 #
straight-curve $-1 42.500446381299483 0 14.973327352157565 0 1 0 I I #
tcoedge-coedge $-1 $53 $52 $53 $85 reversed $25 $118 -0.56117079639580603 0 #
pcurve $-1 0 forward { exppc nubs 2 open 19 
	-1 2 -0.91666666666666674 2 -0.875 2 -0.83333333333333337 2 -0.75 2 
	-0.70833333333333337 2 -0.66666666666666674 2 -0.625 2 -0.58333333333333337 2 -0.5 2 
	-0.45833333333333337 2 -0.41666666666666669 2 -0.33333333333333337 2 -0.25 2 -0.20833333333333331 2 
	-0.16666666666666663 2 -0.12499999999999997 2 -0.083333333333333315 2 0 2 
	0.75597644466436864 0.43879745847976559 
	0.72594335102658936 0.43878895916217775 
	0.69112300614213729 0.43877910506012419 
	0.67313820647411937 0.43877924215280628 
	0.65451909104185146 0.43877938408068545 
	0.6481617039147769 0.4387792074608341 
	0.61968498689523455 0.43877311448097889 
	0.60094313108012187 0.43876910440670197 
	0.55753723156929869 0.43876802463489145 
	0.54276062437208172 0.43876672067024391 
	0.52841099831619853 0.43876545438463227 
	0.51455766294969041 0.43876458183561079 
	0.49998638911077459 0.43876491971689707 
	0.48578082401506267 0.43876546192967453 
	0.47143615510744796 0.4387660094519108 
	0.45717142615865325 0.43876212934284636 
	0.44248439060996375 0.43875813436334371 
	0.41979831540972234 0.43875363313181648 
	0.38082352046574497 0.43877121754310661 
	0.36621302907773567 0.4387778094158859 
	0.34602709341391419 0.43877870013824494 
	0.32164781112965135 0.43877977589577505 
	0.30940580361931175 0.43878152192518072 
	0.27437729909252928 0.4387898221449531 
	0.24419947723812166 0.43879697296560694 
	0.21783599473520382 0.43880113834085221 
	0.1856843286728071 0.43880918802639451 
	0.17343168211784166 0.43881225567310311 
	0.157144849623816 0.43881411206709114 
	0.14564011416187084 0.43881542339155982 
	0.12862751507608983 0.43881826215485403 
	0.11425436111598763 0.43882074742024546 
	0.099358358787757964 0.4388233230914696 
	0.086111907920243244 0.43882561817607135 
	0.068547883387736555 0.43882586426463549 
	0.037322399951056573 0.43882738542746269 
	0 0.43882920360419458 
	0.001 
	spline reversed { ref 2 } I I I I 
	} 0 0 #
tedge-edge $-1 $119 0 $60 0.56117079639580603 $53 $120 forward 7 unknown 1.255324758156618e-010 #
pcurve $-1 0 forward { exppc nubs 2 open 7 
	0 2 0.093528466065967666 2 0.18705693213193533 2 0.28058539819790301 2 0.37411386426387067 2 
	0.46764233032983837 2 0.56117079639580603 2 
	1 1 
	1 0.95204495946687562 
	1 0.90647153393403102 
	1 0.85871699440611149 
	1 0.81294306786806381 
	1 0.7654179856088037 
	1 0.7194146018020966 
	0.99999999999999989 0.67214326044180828 
	1 0.62588613573613017 
	1 0.57888577195680235 
	1 0.5323576696701624 
	1 0.48563660976939055 
	1 0.43882920360419453 
	0.001 
	spline reversed { ref 2 } I I I I 
	} 0 0 #
intcurve-curve $-1 forward { exactcur full nubs 3 open 9 
	0 3 0.106717059112205 2 0.23289841532126199 2 0.35111259387606297 2 0.47739736976570402 2 
	0.63021873854613097 2 0.74522086101266205 2 0.86662447566678902 2 1 3 
	-18.679282824332205 -92.250000000000057 -30.00000000003093 
	-18.679282824332731 -92.250000000000057 -31.30164075547307 
	-18.679329540782462 -92.577720848699826 -32.585534047184687 
	-18.679525628363038 -93.953248757106763 -35.088591088083376 
	-18.679687367147963 -95.087814731055602 -36.191703033091514 
	-18.680068472330291 -97.761019592776506 -37.560402791516154 
	-18.680275619266098 -99.213952059593453 -37.845799836321014 
	-18.680702604517364 -102.20869239966015 -37.589093307813037 
	-18.680911867804824 -103.67631074099972 -36.99593407336053 
	-18.681290874008184 -106.33428820202127 -34.842296360376785 
	-18.681430439841563 -107.31300032158541 -33.178315475841366 
	-18.681510908248072 -107.87729164324918 -29.939464932256712 
	-18.681490658020692 -107.7352882143919 -28.508687817915334 
	-18.681340588300401 -106.68290220093556 -25.801675080450057 
	-18.681208179143255 -105.75438920365663 -24.599775377448942 
	-18.680847830068345 -103.22723545410776 -22.76685856771212 
	-18.680620982011419 -101.63623493902818 -22.250000000030944 
	-18.680387693754639 -100.00000000000006 -22.250000000030941 
	0 
	null_surface 
	null_surface 
	nullbs 
	nullbs 
	I I 
	0 
	7 0.106717059112205 0.23289841532126199 0.35111259387606297 0.47739736976570402 0.63021873854613097 0.74522086101266205 0.86662447566678902 
	0 
	F 1 F 0 } I I #
intcurve-curve $-1 forward { exactcur full nubs 1 open 2 
	0 1 0.95670132124990803 1 
	-99.999999999996874 -99.999999999999972 -22.249999999997986 
	-18.680387693754653 -100.00000000000006 -22.250000000030941 
	0 
	null_surface 
	null_surface 
	nullbs 
	nullbs 
	I I 
	0 
	0 
	0 
	F 1 F 0 } I I #
point $-1 -18.680387693754639 -100.00000000000006 -22.250000000030941 #
point $-1 -18.679282824332205 -92.250000000000057 -30.000000000030926 #
face $-1 $-1 $79 $10 $-1 $121 reversed single #
loop $-1 $-1 $107 $64 #
plane-surface $-1 0 15.052247750139124 0 0 -1 0 0 0 -1 forward_v I I I I #
coedge $-1 $122 $105 $108 $123 forward $65 $-1 #
coedge $-1 $111 $67 $68 $99 reversed $45 $-1 #
coedge $-1 $105 $122 $67 $97 reversed $65 $-1 #
edge $-1 $112 -14.973327352157565 $124 14.973327352157565 $96 $125 forward 7 unknown #
coedge $-1 $69 $68 $122 $126 forward $32 $-1 #
edge $-1 $103 -42.500446381299483 $124 42.500446381299483 $95 $127 forward 7 unknown #
coedge $-1 $108 $107 $69 $101 reversed $92 $-1 #
edge $-1 $128 -42.500446381299483 $102 42.500446381299483 $100 $129 forward 7 unknown #
vertex $-1 $71 $130 #
vertex $-1 $114 $131 #
straight-curve $-1 42.500446381299483 0 -14.973327352157565 0 -1 0 I I #
coedge $-1 $94 $96 $72 $106 reversed $65 $-1 #
edge $-1 $109 -15.052247750139124 $112 15.052247750139124 $105 $132 forward 7 unknown #
coedge $-1 $100 $73 $78 $115 forward $92 $-1 #
coedge $-1 $73 $100 $94 $123 reversed $92 $-1 #
vertex $-1 $74 $133 #
straight-curve $-1 0 15.052247750139124 14.973327352157565 -1 0 0 I I #
coedge $-1 $75 $95 $77 $114 reversed $45 $-1 #
vertex $-1 $106 $134 #
straight-curve $-1 0 -15.052247750139124 14.973327352157565 1 0 0 I I #
edge $-1 $80 -14.973327352157565 $103 14.973327352157565 $77 $135 forward 7 unknown #
edge $-1 $81 -14.973327352157565 $102 14.973327352157565 $78 $136 forward 7 unknown #
point $-1 42.500446381299483 -15.052247750139124 14.973327352157565 #
point $-1 42.500446381299483 15.052247750139124 14.973327352157565 #
pcurve $-1 0 forward { exppc nubs 2 open 7 
	-0.56117079639580603 2 -0.46764233032983837 2 -0.37411386426387072 2 -0.28058539819790301 2 -0.18705693213193536 2 
	-0.093528466065967653 2 0 2 
	0 0.43882920360419453 
	0 0.48563660976939055 
	0 0.5323576696701624 
	0 0.57888577195680235 
	0 0.62588613573613006 
	0 0.67214326044180828 
	0 0.7194146018020966 
	0 0.76541798560880459 
	0 0.81294306786806536 
	0 0.85871699440611238 
	0 0.90647153393403146 
	0 0.95204495946687584 
	0 1 
	0.001 
	spline reversed { ref 2 } I I I I 
	} 0 0 #
tvertex-vertex $-1 $85 $137 2.8421709430404007e-014 #
intcurve-curve $-1 forward { exactcur full nurbs 2 open 2 
	0 2 0.56117079639580603 2 
	-15 -100.0000000000002 -30.000000000032436 1 
	-14.999572141548487 -95.251434159617588 -30.000000000032447 0.835636879139525 
	-18.679282824332176 -92.250000000000014 -30.000000000030955 0.85574532514179602 
	0 
	null_surface 
	null_surface 
	nullbs 
	nullbs 
	I I 
	0 
	0 
	0 
	F 1 F 0 } I I #
plane-surface $-1 42.500446381299483 0 0 -1 0 0 0 0 1 forward_v I I I I #
coedge $-1 $96 $94 $98 $126 reversed $65 $-1 #
edge $-1 $109 -14.973327352157565 $128 14.973327352157565 $108 $138 forward 7 unknown #
vertex $-1 $126 $139 #
straight-curve $-1 -42.500446381299483 -15.052247750139124 0 0 0 -1 I I #
edge $-1 $124 -15.052247750139124 $128 15.052247750139124 $122 $140 forward 7 unknown #
straight-curve $-1 0 -15.052247750139124 -14.973327352157565 -1 0 0 I I #
vertex $-1 $101 $141 #
straight-curve $-1 0 15.052247750139124 -14.973327352157565 1 0 0 I I #
point $-1 42.500446381299483 15.052247750139124 -14.973327352157565 #
point $-1 42.500446381299483 -15.052247750139124 -14.973327352157565 #
straight-curve $-1 -42.500446381299483 0 14.973327352157565 0 -1 0 I I #
point $-1 -42.500446381299483 15.052247750139124 14.973327352157565 #
point $-1 -42.500446381299483 -15.052247750139124 14.973327352157565 #
straight-curve $-1 42.500446381299483 -15.052247750139124 0 0 0 -1 I I #
straight-curve $-1 42.500446381299483 15.052247750139124 0 0 0 -1 I I #
point $-1 -15 -100.0000000000002 -30.000000000032436 #
straight-curve $-1 -42.500446381299483 15.052247750139124 0 0 0 -1 I I #
point $-1 -42.500446381299483 -15.052247750139124 -14.973327352157565 #
straight-curve $-1 -42.500446381299483 0 -14.973327352157565 0 1 0 I I #
point $-1 -42.500446381299483 15.052247750139124 -14.973327352157565 #
End-of-ACIS-data 