600 0 1 0           
82 GICL ACIS Healer - Source: /gicl/data5/repository/SDRC_I-DEAS/bmw/Part64.sat - 6 0 18 ACIS 6.0.3 Solaris 24 Sat Apr 13 23:18:40 2002 
1 9.999999999999999547e-07 1.000000000000000036e-10 
body $-1 $1 $-1 $-1 #
lump $-1 $-1 $2 $0 #
shell $-1 $-1 $-1 $3 $-1 $1 #
face $-1 $4 $5 $2 $-1 $6 forward single #
face $-1 $7 $8 $2 $-1 $9 forward single #
loop $-1 $-1 $10 $3 #
plane-surface $-1 -100 -99.99999999999997158 -29.99999999999798916 -1 9.126408003413983209e-16 4.05238566708863307e-13 4.05238566708863307e-13 -0 1 forward_v I I I I #
face $-1 $-1 $11 $2 $-1 $12 reversed single #
loop $-1 $-1 $13 $4 #
cone-surface $-1 -83.73585656469573735 -100 -30.00000000000457945 1 -1.132165817274339217e-15 -4.052084808676965269e-13 8.952838470577262342e-13 -7.418191287679860579 2.24342105263156455 1 I I 0 1 7.749999999999993783 forward I I I I #
coedge $-1 $10 $10 $14 $15 reversed $5 $-1 #
loop $-1 $-1 $16 $7 #
sphere-surface $-1 -24.99999995940761011 -99.99909897332368303 -30.00000000002840395 -10.00000000000006573 -0.4935119672219051568 -0.863101030961133886 0.107249935023723833 -0.2123629481698492971 -1.401743433577406772e-17 -0.9771908607046065898 forward_v I I I I #
coedge $-1 $17 $18 $16 $19 forward $8 $-1 #
coedge $-1 $18 $20 $10 $15 forward $8 $-1 #
edge $-1 $21 -7.560304699377600635 $21 -1.277119392198014181 $10 $22 reversed 7 unknown #
coedge $-1 $23 $24 $13 $19 reversed $11 $-1 #
coedge $-1 $20 $13 $23 $25 forward $8 $-1 #
coedge $-1 $13 $14 $20 $26 forward $8 $-1 #
edge $-1 $27 -37.22798499748824241 $28 -25.55069731360865859 $13 $29 reversed 7 unknown #
coedge $-1 $14 $17 $18 $26 reversed $8 $-1 #
vertex $-1 $15 $30 #
ellipse-curve $-1 -100 -99.99999999999998579 -29.99999999999798916 -1 9.126408003413983209e-16 4.05238566708863307e-13 8.952838470577262342e-13 -7.418191287679860579 2.24342105263156455 1 I I #
coedge $-1 $31 $16 $17 $25 reversed $11 $-1 #
coedge $-1 $16 $31 $31 $32 forward $11 $-1 #
edge $-1 $28 -25.55069731360865859 $27 9.48116573461631873 $17 $33 reversed 7 unknown #
edge $-1 $21 0 $27 0.9567013212499080321 $18 $34 forward 7 unknown #
vertex $-1 $25 $35 #
vertex $-1 $32 $36 #
intcurve-curve $-1 forward { surfintcur full nubs 3 open 10 
	25.55069731360865859 3 26.27389726838475781 2 27.73355821955049549 2 29.19321917071622963 2 30.65288013552376611 2 
	32.11254110033129905 2 33.57220206513883198 2 35.03186302994636492 2 36.49152399953796788 2 37.22798499748824241 3 
	-18.67928284249965287 -92.25012752967037954 -29.99999999918065896 
	-18.67928284224986157 -92.25012582746657586 -29.74469119044961474 
	-18.6792846285383014 -92.26265674094838687 -29.48857610271697638 
	-18.67929551775333152 -92.33904507849698007 -28.7196723317545306 
	-18.67931023082595487 -92.44225684837286394 -28.2102783850117298 
	-18.67935295372880233 -92.74195642000944417 -27.23533213640245876 
	-18.67938096947365523 -92.93848506039532253 -26.76979238884356249 
	-18.67944646556561139 -93.39793172353839168 -25.91197738133161721 
	-18.67948618308706088 -93.6765432827466924 -25.49040133125213359 
	-18.67957819980781053 -94.32201666053857991 -24.70065190755759232 
	-18.67963049454072433 -94.68884539743419282 -24.33245149638823435 
	-18.67974445250965942 -95.48821520599068435 -23.67755844482834959 
	-18.67980620763384891 -95.92139286396854914 -23.39034427249064052 
	-18.67993470262283395 -96.82270357014569129 -22.91287276796485983 
	-18.68000144568056342 -97.29085661828131038 -22.72265319010000084 
	-18.68013424085459917 -98.22230127798215449 -22.44096423414053731 
	-18.68020482891581935 -98.71740868328514296 -22.33987307408080625 
	-18.68031367640189089 -99.48085550569425095 -22.26312743747334366 
	-18.68035062539433255 -99.74000969378997183 -22.25012926304608385 
	-18.68038769387297293 -100.0000000008503207 -22.25012752959830209 
	0.0002350367877523076843 
	cone -83.73585656469573735 -100 -30.00000000000457945 1 -1.132165817274339217e-15 -4.052084808676965269e-13 8.952838470577262342e-13 -7.418191287679860579 2.24342105263156455 1 I I 0 1 7.749999999999993783 forward I I I I 
	sphere -24.99999995940761011 -99.99909897332368303 -30.00000000002840395 -10.00000000000006573 -0.4935119672219051568 -0.863101030961133886 0.107249935023723833 -0.2123629481698492971 -1.401743433577406772e-17 -0.9771908607046065898 forward_v I I I I 
	nullbs 
	nullbs 
	I I 
	0 
	0 
	0 
	} I I #
point $-1 -99.99999999999687361 -99.99999999999997158 -22.24999999999798561 #
coedge $-1 $24 $23 $24 $32 reversed $11 $-1 #
edge $-1 $37 0 $28 0.5611707963958060263 $24 $38 forward 7 unknown #
intcurve-curve $-1 forward { surfintcur full nubs 3 open 26 
	-9.48116573461631873 3 -8.757965762974990298 2 -7.29830479338339444 2 -5.838643823791791476 2 -4.378982867843845384 2 
	-2.919321911895892185 2 -1.459660955947946093 2 0 3 1.459660954397207888 2 2.919321908794422882 2 
	4.37898286319163077 2 5.838643817588845764 2 7.298304779169079382 2 8.757965740749312999 2 10.21762670232955372 2 
	11.67728766390978734 2 13.13694863026917403 2 14.59660959662856783 2 16.05627056298796163 2 17.51593152934735542 2 
	18.97559248852383718 2 20.43525344770031893 2 21.89491440687680068 2 23.35457536605328599 2 24.81423631721902012 2 
	25.55069731360865859 3 
	-18.68038769387297293 -100.0000000008503207 -22.25012752959830209 
	-18.68042409488100475 -100.2553088131518138 -22.25012582736371058 
	-18.68046061111093792 -100.5114239044946629 -22.26265674120096349 
	-18.68057023989018006 -101.2803276808256641 -22.33904508076692963 
	-18.68064287034074411 -101.7897216294811074 -22.44225685166581385 
	-18.68078188166940024 -102.7646678820064636 -22.74195642687321595 
	-18.68084826116238162 -103.2302076316477724 -22.93848506955121991 
	-18.68097057531472771 -104.0880226356110825 -23.39793173446071251 
	-18.68103068792699517 -104.5095986811274429 -23.67654329189155149 
	-18.68114329990348566 -105.2993480979526879 -24.32201666602636791 
	-18.68119580329973672 -105.667548506784172 -24.68884540107991654 
	-18.68128918767249758 -106.3224415554910678 -25.48821520659314643 
	-18.68133014392756408 -106.6096557271830818 -25.92139286347713067 
	-18.68139823054798754 -107.0871272314176679 -26.82270356880027862 
	-18.68142535580024699 -107.2773468095944338 -27.29085661719919287 
	-18.6814454402408856 -107.4181912876799458 -27.75657894739937603 
	-18.6814655246815029 -107.5590357656158176 -28.22230127710477987 
	-18.68147994038412207 -107.6601269256261446 -28.71740868165698402 
	-18.68149448834132187 -107.7621454948961457 -29.73226445377224891 
	-18.68149462657147097 -107.7631154146099419 -30.2520085475140732 
	-18.68148005844759751 -107.6609549203926832 -31.28032767573628092 
	-18.68146534035048134 -107.5577431497174672 -31.78972162341821317 
	-18.68142260316452408 -107.2580435762381228 -32.76466787371153089 
	-18.68139457826967487 -107.0615149347485158 -33.2302076219967546 
	-18.68132906198438192 -106.6020682701808369 -34.08802262874570488 
	-18.68128933271382408 -106.3234567109868181 -34.50959867747026522 
	-18.68119729107499438 -105.6779833336080543 -35.29934809867300061 
	-18.68114498310428928 -105.3111545967446148 -35.66754850840585078 
	-18.68103099987830262 -104.5117847898742127 -36.32244155865838309 
	-18.68096923273694188 -104.078607132408095 -36.60965572972347815 
	-18.68084071671186308 -103.1772964278945182 -37.08712723290263824 
	-18.68077396474554774 -102.709143380688289 -37.27734681027355634 
	-18.68064115612862963 -101.7776987230501504 -37.55903576560919532 
	-18.68057056306324171 -101.2825913188972464 -37.66012692553965735 
	-18.68042586619641554 -100.2677355476411236 -37.76214549485280259 
	-18.68035176259509456 -99.74799145433171077 -37.76311541441787512 
	-18.68020515195676978 -98.71967232654417046 -37.66095492105028342 
	-18.68013252671482149 -98.21027837901694113 -37.55774315033549016 
	-18.67999352966923965 -97.23533212810814064 -37.25804357697072078 
	-18.67992715932620484 -96.76979237913428733 -37.06151493536856378 
	-18.67980486536687934 -95.91197737440657534 -36.60206827188343937 
	-18.67974476450352483 -95.49040132760589472 -36.32345671448103985 
	-18.67963217744483018 -94.70065190833676638 -35.67798334000288207 
	-18.67957968710213379 -94.33245149859240541 -35.31115460427581354 
	-18.6794863279862966 -93.67755844728968384 -34.5117847981314867 
	-18.67944538393252785 -93.3903442750565489 -34.07860714034814009 
	-18.67937731834823367 -92.9128727694162535 -33.17729643329952438 
	-18.67935020200459917 -92.72265319071735235 -32.70914338389304987 
	-18.6793100465665205 -92.44096423469608226 -31.77769872398787498 
	-18.67929563586826802 -92.33987307479993945 -31.28259132052179226 
	-18.67928469566544791 -92.26312743763335789 -30.51914449809487095 
	-18.67928284275402007 -92.25012926308684769 -30.25999030811718171 
	-18.67928284249965287 -92.25012752967037954 -29.99999999918065896 
	0.0002350367877523076843 
	cone -83.73585656469573735 -100 -30.00000000000457945 1 -1.132165817274339217e-15 -4.052084808676965269e-13 8.952838470577262342e-13 -7.418191287679860579 2.24342105263156455 1 I I 0 1 7.749999999999993783 forward I I I I 
	sphere -24.99999995940761011 -99.99909897332368303 -30.00000000002840395 -10.00000000000006573 -0.4935119672219051568 -0.863101030961133886 0.107249935023723833 -0.2123629481698492971 -1.401743433577406772e-17 -0.9771908607046065898 forward_v I I I I 
	nullbs 
	nullbs 
	I I 
	0 
	0 
	0 
	} I I #
intcurve-curve $-1 forward { exactcur full nubs 1 open 2 
	0 1 0.9567013212499080321 1 
	-99.99999999999687361 -99.99999999999997158 -22.24999999999798561 
	-18.68038769375465336 -100.0000000000000568 -22.25000000003094058 
	0 
	null_surface 
	null_surface 
	nullbs 
	nullbs 
	I I 
	0 
	0 
	0 
	F 1 F 0 } I I #
point $-1 -18.68038769375463914 -100.0000000000000568 -22.25000000003094058 #
point $-1 -18.67928282433220488 -92.25000000000005684 -30.00000000003092637 #
vertex $-1 $32 $39 #
intcurve-curve $-1 forward { exactcur full nurbs 2 open 2 
	0 2 0.5611707963958060263 2 
	-15 -100.000000000000199 -30.00000000003243628 1 
	-14.99957214154848728 -95.25143415961758819 -30.00000000003244693 0.8356368791395250017 
	-18.67928282433217646 -92.25000000000001421 -30.00000000003095479 0.8557453251417960205 
	0 
	null_surface 
	null_surface 
	nullbs 
	nullbs 
	I I 
	0 
	0 
	0 
	F 1 F 0 } I I #
point $-1 -15 -100.000000000000199 -30.00000000003243628 #
End-of-ACIS-data 