600 0 1 0           
82 GICL ACIS Healer - Source: /gicl/data5/repository/SDRC_I-DEAS/bmw/Part66.sat - 6 0 18 ACIS 6.0.3 Solaris 24 Sat Apr 13 23:18:43 2002 
1 9.999999999999999547e-07 1.000000000000000036e-10 
body $-1 $1 $-1 $-1 #
lump $-1 $-1 $2 $0 #
shell $-1 $-1 $-1 $3 $-1 $1 #
face $-1 $4 $5 $2 $-1 $6 forward single #
face $-1 $7 $8 $2 $-1 $9 forward single #
loop $-1 $-1 $10 $3 #
plane-surface $-1 100.0000000000000284 -99.99999999999772626 10.00002235174039811 1 4.581456817710239756e-13 -2.759656302702730116e-13 -2.759656302702730116e-13 0 -1 forward_v I I I I #
face $-1 $-1 $11 $2 $-1 $12 reversed single #
loop $-1 $-1 $13 $4 #
cone-surface $-1 83.73585656469572314 -100.0000000000051585 10.00002235174488519 -1 -4.576646182164054276e-13 2.757598727012495346e-13 -2.771116669464390725e-12 7.41819128768086955 2.24342105262816105 1 I I 0 1 7.749999999999974243 forward I I I I #
coedge $-1 $10 $10 $14 $15 reversed $5 $-1 #
loop $-1 $-1 $16 $7 #
sphere-surface $-1 24.99999995940761011 -100.0009010267084335 10.00002235176105003 -10.00000000000005329 -0.4935119672035870875 -0.8631010309703308625 -0.1072499350340020141 -0.2123629481968100363 0 0.9771908606987474988 forward_v I I I I #
coedge $-1 $17 $18 $16 $19 forward $8 $-1 #
coedge $-1 $18 $20 $10 $15 forward $8 $-1 #
edge $-1 $21 -7.560304699377601523 $21 -1.277119392198015735 $10 $22 reversed 7 unknown #
coedge $-1 $23 $24 $13 $19 reversed $11 $-1 #
coedge $-1 $20 $13 $23 $25 forward $8 $-1 #
coedge $-1 $13 $14 $20 $26 forward $8 $-1 #
edge $-1 $27 -37.22798499748817136 $28 -25.55069731360861951 $13 $29 reversed 7 unknown #
coedge $-1 $14 $17 $18 $26 reversed $8 $-1 #
vertex $-1 $15 $30 #
ellipse-curve $-1 100.0000000000000284 -99.99999999999771205 10.00002235174039988 1 4.581456817710239756e-13 -2.759656302702730116e-13 -2.771116669464390725e-12 7.41819128768086955 2.24342105262816105 1 I I #
coedge $-1 $31 $16 $17 $25 reversed $11 $-1 #
coedge $-1 $16 $31 $31 $32 forward $11 $-1 #
edge $-1 $28 -25.55069731360861951 $27 9.481165734616304519 $17 $33 reversed 7 unknown #
edge $-1 $21 0 $27 0.9567013212499080321 $18 $34 forward 7 unknown #
vertex $-1 $25 $35 #
vertex $-1 $32 $36 #
intcurve-curve $-1 forward { surfintcur full nubs 3 open 10 
	25.55069731360861951 3 26.27389726838470096 2 27.73355821955043155 2 29.19321917071616213 2 30.65288013552369506 2 
	32.11254110033122799 2 33.57220206513875382 2 35.03186302994628676 2 36.49152399953787551 2 37.22798499748817136 3 
	18.67928284250318427 -107.7498724703646076 10.00002235261666783 
	18.67928284225355995 -107.7498741725682976 10.2553311613477085 
	18.6792846285421632 -107.7373432590863729 10.5114462490803291 
	18.67929551775768715 -107.6609549215374102 11.28035002004272869 
	18.67931023083063025 -107.5577431516613132 11.78974396678547087 
	18.67935295373400351 -107.2580435800242782 12.7646902153945998 
	18.67938096947908377 -107.0615149396382151 13.23022996295341791 
	18.67944646557140942 -106.602068276494748 14.08804497046515181 
	18.67948618309301878 -106.3234567172862626 14.50962102054448621 
	18.67957819981401002 -105.677983339494034 15.29937044423872017 
	18.67963049454701974 -105.3111546025982221 15.66757085540792538 
	18.6797444525160401 -104.5117847940414464 16.32246390696744953 
	18.67980620764021182 -104.0786071360634395 16.60967807930495965 
	18.6799347026291116 -103.1772964298860842 17.08714958383033178 
	18.68000144568675935 -102.709143381750394 17.27736916169498471 
	18.68013424086056062 -101.777698722049422 17.55905811765402547 
	18.68020482892163159 -101.2825913167463767 17.66014927771352205 
	18.6803136764074047 -100.5191444943372119 17.73689491432063647 
	18.68035062539973268 -100.2599903062414768 17.7498930887477826 
	18.68038769387825226 -99.99999999918114213 17.74989482219544357 
	0.0002350367873614388149 
	cone 83.73585656469572314 -100.0000000000051585 10.00002235174488519 -1 -4.576646182164054276e-13 2.757598727012495346e-13 -2.771116669464390725e-12 7.41819128768086955 2.24342105262816105 1 I I 0 1 7.749999999999974243 forward I I I I 
	sphere 24.99999995940761011 -100.0009010267084335 10.00002235176105003 -10.00000000000005329 -0.4935119672035870875 -0.8631010309703308625 -0.1072499350340020141 -0.2123629481968100363 0 0.9771908606987474988 forward_v I I I I 
	nullbs 
	nullbs 
	I I 
	0 
	0 
	0 
	} I I #
point $-1 100.0000000000021743 -99.99999999999418776 17.75002235174039811 #
coedge $-1 $24 $23 $24 $32 reversed $11 $-1 #
edge $-1 $37 0 $28 0.5611707963958060263 $24 $38 forward 7 unknown #
intcurve-curve $-1 forward { surfintcur full nubs 3 open 26 
	-9.481165734616304519 3 -8.757965762975004509 2 -7.298304793383408651 2 -5.838643823791812792 2 -4.378982867843859594 2 
	-2.919321911895906396 2 -1.459660955947953198 2 0 3 1.45966095116473582 2 2.919321902329471641 2 
	4.378982853494214567 2 5.838643804658950387 2 7.298304769471656073 2 8.757965734284354653 2 10.21762669909706034 2 
	11.67728766390976602 2 13.13694863350075792 2 14.59660960309174982 2 16.05627057268274172 2 17.51593154227373361 2 
	18.97559249821861016 2 20.43525345416348671 2 21.89491441010836326 2 23.35457536605323625 2 24.81423631721897038 2 
	25.55069731360861951 3 
	18.68038769387825226 -99.99999999918114213 17.74989482219544357 
	18.68042409488616329 -99.74469118687966329 17.74989652442992139 
	18.68046061111596856 -99.48857609553682835 17.73736561059255479 
	18.6805702398948128 -98.71967231920586983 17.66097727102623338 
	18.68064287034508197 -98.21027837055046916 17.55776550012712534 
	18.6807818816730915 -97.23533211802526921 17.25806592491928626 
	18.68084826116571406 -96.76979236838405996 17.06153728224105492 
	18.68097057531735317 -95.91197736442094879 16.60209061733117508 
	18.68103068792924404 -95.49040131890471628 16.32347905990016201 
	18.68114329990493161 -94.70065190207979811 15.67800568576501163 
	18.68119580330076346 -94.33245149324847034 15.31117695071128892 
	18.68128918767267876 -93.67755844454191561 14.5118071451977606 
	18.68133014392731539 -93.39034427285010054 14.07862948831364136 
	18.68139823054690751 -92.91287276861591238 13.1773187829902696 
	18.68142535579876906 -92.72265319043935961 12.70916573459123455 
	18.68144544023902398 -92.58180871235406073 12.24344340439098566 
	18.68146552467921495 -92.440964234730302 11.77772107571687599 
	18.68147994038142556 -92.3398730748353529 11.28261367225701406 
	18.68149448833791482 -92.23785450535767438 10.26775790232026253 
	18.68149462656776194 -92.23688458532127754 9.748013809664577423 
	18.681480058443384 -92.33904507847364584 8.719694683480836872 
	18.68146534034608308 -92.44225684840547785 8.210300736755879569 
	18.68142260315985581 -92.74195642004060858 7.235354488141605422 
	18.68139457826492844 -92.93848506042897384 6.769814740578276258 
	18.68132906197946852 -93.39793172357161666 5.911999733066062745 
	18.68128933270875081 -93.67654328275629894 5.490423683024758361 
	18.68119729106962268 -94.32201666051072664 4.700674259356429907 
	18.68114498309878257 -94.68884539775875453 4.332473848474461597 
	18.68103099987255433 -95.48821520573589794 3.677580796205888625 
	18.680969232731087 -95.92139286392733766 3.39036662427037605 
	18.68084071670585189 -96.82270357013925377 2.912895119711104819 
	18.68077396473949392 -97.29085661831872756 2.722675541830896329 
	18.68064115612251896 -98.22230127801940114 2.440986585871951053 
	18.68057056305712749 -98.71740868326445195 2.339895425826593378 
	18.68042586619038659 -99.73226445669860141 2.23787685672199288 
	18.6803517625891331 -100.2520085510938941 2.236906937479914426 
	18.68020515195105702 -101.280327680919271 2.339067431913044448 
	18.68013252670928637 -101.7897216294031182 2.44227920337152149 
	18.67999352966411664 -102.7646678819902064 2.74197877858090644 
	18.67992715932132342 -103.2302076316855732 2.938507421284398902 
	18.67980486536281504 -104.0880226356497786 3.397954086194979517 
	18.67974476450002541 -104.509598681133852 3.67656564360710636 
	18.67963217744248183 -105.2993480979374255 4.322039017710411102 
	18.67957968710037875 -105.6675485065325972 4.688867753053312271 
	18.67948632798567132 -106.3224415558190969 5.488237558091796586 
	18.67944538393242127 -106.6096557271816465 5.921415215150274136 
	18.67937731834915738 -107.0871272314413858 6.822725920501475194 
	18.67935020200603446 -107.2773468096307283 7.290878968935129656 
	18.67931004656876226 -107.5590357653397433 8.222323627809354107 
	18.67929563587089348 -107.6601269252356161 8.717431031275486575 
	18.67928469566863114 -107.7368725624018566 9.480877853702443403 
	18.67928284275738093 -107.7498707369482531 9.740032043680141527 
	18.67928284250318427 -107.7498724703646076 10.00002235261666783 
	0.0002350367873614388149 
	cone 83.73585656469572314 -100.0000000000051585 10.00002235174488519 -1 -4.576646182164054276e-13 2.757598727012495346e-13 -2.771116669464390725e-12 7.41819128768086955 2.24342105262816105 1 I I 0 1 7.749999999999974243 forward I I I I 
	sphere 24.99999995940761011 -100.0009010267084335 10.00002235176105003 -10.00000000000005329 -0.4935119672035870875 -0.8631010309703308625 -0.1072499350340020141 -0.2123629481968100363 0 0.9771908606987474988 forward_v I I I I 
	nullbs 
	nullbs 
	I I 
	0 
	0 
	0 
	} I I #
intcurve-curve $-1 forward { exactcur full nubs 1 open 2 
	0 1 0.9567013212499080321 1 
	100.0000000000021743 -99.99999999999418776 17.75002235174039811 
	18.680387693759954 -100.000000000031406 17.75002235176282284 
	0 
	null_surface 
	null_surface 
	nullbs 
	nullbs 
	I I 
	0 
	0 
	0 
	F 1 F 0 } I I #
point $-1 18.68038769375993979 -100.000000000031406 17.75002235176282284 #
point $-1 18.67928282433578602 -107.7500000000349445 10.00002235176640042 #
vertex $-1 $32 $39 #
intcurve-curve $-1 forward { exactcur full nurbs 2 open 2 
	0 2 0.5611707963958060263 2 
	15.00000000000001421 -100.0000000000364935 10.00002235176383181 1 
	14.99957214155068463 -104.74856584041909 10.00002235176600074 0.8356368791395250017 
	18.6792828243357576 -107.7500000000349587 10.00002235176636667 0.8557453251417960205 
	0 
	null_surface 
	null_surface 
	nullbs 
	nullbs 
	I I 
	0 
	0 
	0 
	F 1 F 0 } I I #
point $-1 15.00000000000001421 -100.0000000000364935 10.00002235176383181 #
End-of-ACIS-data 