600 0 1 0           
82 GICL ACIS Healer - Source: /gicl/data5/repository/SDRC_I-DEAS/bmw/Part21.sat - 6 0 18 ACIS 6.0.3 Solaris 24 Sat Apr 13 23:15:33 2002 
1 9.999999999999999547e-07 1.000000000000000036e-10 
body $-1 $1 $-1 $-1 #
lump $-1 $-1 $2 $0 #
shell $-1 $-1 $-1 $3 $-1 $1 #
face $-1 $4 $5 $2 $-1 $6 reversed single #
face $-1 $7 $8 $2 $-1 $9 reversed single #
loop $-1 $-1 $10 $3 #
plane-surface $-1 -321.9369737172528403 -13.48654124109806318 51.67201848020454946 -0.338628927423802073 -0.5983105642653918643 -0.7261920670182469006 -0.9063077845118385767 0 0.4226182671551750314 forward_v I I I I #
face $-1 $11 $12 $2 $-1 $13 reversed single #
loop $-1 $-1 $14 $4 #
cone-surface $-1 -320.582458020147385 -11.09329895586889059 54.57678673094094535 -0.3386289274238050151 -0.5983105642653987477 -0.7261920670182397952 -0.6535330085196733307 -0.2851724090229517117 0.5397013606548597409 1 I I 0 1 0.8942629673566026005 forward I I I I #
coedge $-1 $10 $10 $15 $16 forward $5 $-1 #
face $-1 $17 $18 $2 $-1 $19 reversed single #
loop $-1 $-1 $20 $7 #
plane-surface $-1 -331.1862678936385009 7.207185434332021856 38.93544762295020689 -0.3386289274237990199 -0.5983105642654042988 -0.7261920670182377968 -0.9063077845118380216 0 0.4226182671551762526 forward_v I I I I #
coedge $-1 $21 $22 $23 $24 reversed $8 $-1 #
coedge $-1 $22 $21 $10 $16 reversed $8 $-1 #
edge $-1 $25 0 $25 1 $10 $26 forward 7 unknown #
face $-1 $27 $28 $2 $-1 $29 forward single #
loop $-1 $-1 $30 $11 #
cone-surface $-1 -329.8317521206499805 9.600427668607586895 41.84021588028247862 -0.3386289274238108438 -0.5983105642653930856 -0.7261920670182415716 -0.5045235542808654827 0.6257522451415784559 -0.2802948669910350077 1 I I 0 1 0.8512785099986053261 forward I I I I #
coedge $-1 $20 $20 $31 $32 forward $12 $-1 #
coedge $-1 $15 $14 $22 $33 forward $8 $-1 #
coedge $-1 $14 $15 $21 $33 reversed $8 $-1 #
coedge $-1 $23 $23 $14 $24 forward $34 $-1 #
edge $-1 $35 0 $35 1 $14 $36 forward 7 unknown #
vertex $-1 $16 $37 #
intcurve-curve $-1 forward { exactcur full nurbs 2 periodic 4 
	0 2 0.3333333333333329818 2 0.6666666666666669627 2 1 2 
	-321.6188467610630823 -14.19829634281007458 52.11008937220863402 1 
	-320.2696252858097523 -14.05509419451504272 51.36295262448784626 0.5 
	-321.4214264766057454 -13.05906257384312852 51.07941463433724749 1 
	-322.5732276674018522 -12.06303095317126406 50.79587664418670556 0.5 
	-322.7706479518591323 -13.20226472213822433 51.82655138205807077 1 
	-322.9680682363164692 -14.34149849110518993 52.8572261199294644 0.5 
	-321.6188467610630823 -14.19829634281007458 52.11008937220863402 1 
	0 
	null_surface 
	null_surface 
	nullbs 
	nullbs 
	I I 
	0 
	0 
	0 
	F 1 F 0 } I I #
face $-1 $38 $39 $2 $-1 $40 forward single #
loop $-1 $41 $42 $17 #
plane-surface $-1 -329.4931246138860956 10.19874141135871781 42.56640599100693123 0.3386289274238059588 0.5983105642653971934 0.7261920670182403503 0.906307784511835135 0 -0.4226182671551820813 forward_v I I I I #
coedge $-1 $43 $44 $45 $46 reversed $18 $-1 #
coedge $-1 $44 $43 $20 $32 reversed $18 $-1 #
edge $-1 $47 0 $47 1 $20 $48 forward 7 unknown #
edge $-1 $35 0 $25 1 $22 $49 forward 7 unknown #
loop $-1 $-1 $23 $38 #
vertex $-1 $24 $50 #
intcurve-curve $-1 forward { exactcur full nurbs 2 periodic 4 
	0 2 0.3333333333333329818 2 0.6666666666666669627 2 1 2 
	-319.9257021239440633 -11.20674352148309794 55.74104970729983677 1 
	-321.2749235991974501 -11.34994566977818842 56.48818645502066005 0.5 
	-321.0775033147401132 -10.21071190081121216 55.45751171714927352 1 
	-320.8800830302827762 -9.071478131844273207 54.4268369792778941 0.5 
	-319.7282818394867263 -10.06750975251613767 54.71037496942844314 1 
	-318.5764806486907332 -11.06354137318803055 54.99391295957904191 0.5 
	-319.9257021239440633 -11.20674352148309794 55.74104970729983677 1 
	0 
	null_surface 
	null_surface 
	nullbs 
	nullbs 
	I I 
	0 
	0 
	0 
	F 1 F 0 } I I #
point $-1 -321.6188467610630823 -14.19829634281007458 52.11008937220863402 #
face $-1 $-1 $51 $2 $-1 $52 forward single #
loop $-1 $-1 $53 $27 #
torus-surface $-1 -324.8684761429747709 -0.1481250793652204578 48.93469337262995111 0.8710786540077911644 0.09245356442644822592 -0.4823632624452443562 13.00000000000005329 1.999999999999955591 0.3386289274238120095 0.5983105642653991918 0.7261920670182362425 forward_v I I I I #
loop $-1 $-1 $45 $17 #
coedge $-1 $42 $42 $53 $54 reversed $28 $-1 #
coedge $-1 $31 $30 $44 $55 forward $18 $-1 #
coedge $-1 $30 $31 $43 $55 reversed $18 $-1 #
coedge $-1 $45 $45 $30 $46 forward $41 $-1 #
edge $-1 $56 0 $56 1 $30 $57 forward 7 unknown #
vertex $-1 $32 $58 #
intcurve-curve $-1 forward { exactcur full nurbs 2 periodic 4 
	0 2 0.3333333333333329818 2 0.6666666666666669627 2 1 2 
	-331.927798369020536 7.128481678977017566 39.34607309154198163 1 
	-331.4032717434374717 5.954942327851288297 40.06836286384280044 0.5 
	-330.5532392482159594 6.659767602267642417 39.09127975869369465 1 
	-329.7032067529945039 7.364592876683992984 38.1141966535446457 0.5 
	-331.0777658737990237 7.833306953393353922 38.36898998639289715 1 
	-332.4523249946036572 8.302021030102670451 38.62378331924121255 0.5 
	-331.927798369020536 7.128481678977017566 39.34607309154198163 1 
	0 
	null_surface 
	null_surface 
	nullbs 
	nullbs 
	I I 
	0 
	0 
	0 
	F 1 F 0 } I I #
intcurve-curve $-1 forward { exactcur full nubs 1 open 2 
	0 1 1 1 
	-319.9257021239440633 -11.20674352148309794 55.74104970729983677 
	-321.6188467610630823 -14.19829634281007458 52.11008937220863402 
	0 
	null_surface 
	null_surface 
	nullbs 
	nullbs 
	I I 
	0 
	0 
	0 
	F 1 F 0 } I I #
point $-1 -319.9257021239440633 -11.20674352148309794 55.74104970729983677 #
loop $-1 $34 $59 $38 #
plane-surface $-1 -320.2438276720636736 -10.4949915700892209 55.30298075425296389 0.3386289274238075131 0.59831056426540008 0.7261920670182376858 0.9063077845118338027 0 -0.4226182671551849679 forward_v I I I I #
coedge $-1 $60 $61 $42 $54 forward $39 $-1 #
edge $-1 $62 0 $62 1 $42 $63 forward 7 unknown #
edge $-1 $56 0 $47 1 $44 $64 forward 7 unknown #
vertex $-1 $46 $65 #
intcurve-curve $-1 forward { exactcur full nurbs 2 periodic 4 
	0 2 0.3333333333333329818 2 0.6666666666666669627 2 1 2 
	-330.2346537319015169 10.12003450030396579 42.97703342663318438 1 
	-330.7591803574845812 11.29357385142963821 42.25474365433239399 0.5 
	-329.3846212366799477 10.82485977472033056 41.99995032148408569 1 
	-328.0100621158754848 10.35614569801099805 41.74515698863584134 0.5 
	-328.8600946110969971 9.651320423594633269 42.72224009378489029 1 
	-329.7101271063185095 8.946495149178284478 43.69932319893400319 0.5 
	-330.2346537319015169 10.12003450030396579 42.97703342663318438 1 
	0 
	null_surface 
	null_surface 
	nullbs 
	nullbs 
	I I 
	0 
	0 
	0 
	F 1 F 0 } I I #
point $-1 -331.927798369020536 7.128481678977017566 39.34607309154198163 #
coedge $-1 $59 $59 $66 $67 reversed $51 $-1 #
coedge $-1 $66 $53 $61 $68 reversed $39 $-1 #
coedge $-1 $53 $66 $60 $68 forward $39 $-1 #
vertex $-1 $68 $69 #
intcurve-curve $-1 forward { exactcur full nurbs 2 periodic 4 
	0 2 0.3333333333333329818 2 0.6666666666666669627 2 1 2 
	-331.2352805012417321 10.01383110402010601 43.53113447219119791 1 
	-332.4676072178739332 12.77095309721500627 41.83418156238037255 0.5 
	-329.2382078975343802 11.66975279389691167 41.23556822995005433 1 
	-326.0088085771949977 10.56855249057877444 40.63695489751976453 0.5 
	-328.0058811809022927 8.912630800701982992 42.93252113976090811 1 
	-330.0029537846097014 7.256709110825143583 45.22808738200210854 0.5 
	-331.2352805012417321 10.01383110402010601 43.53113447219119791 1 
	0 
	null_surface 
	null_surface 
	nullbs 
	nullbs 
	I I 
	0 
	0 
	0 
	F 1 F 0 } I I #
intcurve-curve $-1 forward { exactcur full nubs 1 open 2 
	0 1 1 1 
	-330.2346537319015169 10.12003450030396579 42.97703342663318438 
	-331.927798369020536 7.128481678977017566 39.34607309154198163 
	0 
	null_surface 
	null_surface 
	nullbs 
	nullbs 
	I I 
	0 
	0 
	0 
	F 1 F 0 } I I #
point $-1 -330.2346537319015169 10.12003450030396579 42.97703342663318438 #
coedge $-1 $61 $60 $59 $67 forward $39 $-1 #
edge $-1 $70 0 $70 1 $66 $71 forward 7 unknown #
edge $-1 $70 0 $62 2.501851166488375799 $61 $72 forward 7 unknown #
point $-1 -331.2352805012417321 10.01383110402010601 43.53113447219119791 #
vertex $-1 $67 $73 #
intcurve-curve $-1 forward { exactcur full nurbs 2 periodic 4 
	0 2 0.3333333333333329818 2 0.6666666666666669627 2 1 2 
	-321.9859864007391366 -10.67989552045640522 56.26770532284966464 1 
	-323.2183131173713377 -7.922773527261474769 54.57075241303882507 0.5 
	-319.9889137970318416 -9.023973830579571143 53.97213908060851395 1 
	-316.7595144766925159 -10.12517413389767285 53.37352574817824546 0.5 
	-318.7565870803997541 -11.78109582377449982 55.66909199041937484 1 
	-320.7536596841071628 -13.4370175136513339 57.96465823266056816 0.5 
	-321.9859864007391366 -10.67989552045640522 56.26770532284966464 1 
	0 
	null_surface 
	null_surface 
	nullbs 
	nullbs 
	I I 
	0 
	0 
	0 
	F 1 F 0 } I I #
intcurve-curve $-1 forward { exactcur full nurbs 2 open 3 
	0 2 1.2509255832441879 2 2.501851166488375799 2 
	-321.9859864007391366 -10.67989552045640522 56.26770532284965753 1 
	-326.3881624572486544 -18.45793285590659849 46.82720845161257017 0.7071067811865470176 
	-331.0128095074999806 -8.111069543668335768 40.4589230262833297 1 
	-335.6374565577512499 2.235793768569907414 34.09063760095412476 0.7071067811865470176 
	-331.2352805012417321 10.01383110402010601 43.53113447219119791 1 
	0 
	null_surface 
	null_surface 
	nullbs 
	nullbs 
	I I 
	0 
	0 
	0 
	F 1 F 0 } I I #
point $-1 -321.9859864007391366 -10.67989552045640522 56.26770532284966464 #
End-of-ACIS-data 