600 0 1 0           
82 GICL ACIS Healer - Source: /gicl/data5/repository/SDRC_I-DEAS/bmw/Part37.sat - 6 0 18 ACIS 6.0.3 Solaris 24 Sat Apr 13 23:15:56 2002 
1 9.999999999999999547e-07 1.000000000000000036e-10 
body $-1 $1 $-1 $-1 #
lump $-1 $-1 $2 $0 #
shell $-1 $-1 $-1 $3 $-1 $1 #
face $-1 $4 $5 $2 $-1 $6 forward single #
face $-1 $7 $8 $2 $-1 $9 forward single #
loop $-1 $-1 $10 $3 #
cone-surface $-1 -260.2186046052298138 -5.289162041677286652e-07 -58.88901269510284919 0.906307787036656598 6.907174063044438383e-09 0.422618261740685397 -0.8408683689760841906 7.732447787310983145 1.80324791012955199 1 I I -0.2588190451025150218 0.9659258262890698665 7.984329115387317266 forward I I I I #
face $-1 $11 $12 $2 $-1 $13 forward single #
loop $-1 $14 $15 $4 #
plane-surface $-1 -315.3135401666601751 -9.488068566376739454e-07 -84.58020307295298323 -0.906307787036656709 -6.907173148242864907e-09 -0.4226182617406851194 -0.4226182617406851194 0 0.906307787036656709 forward_v I I I I #
coedge $-1 $16 $17 $18 $19 forward $5 $-1 #
face $-1 $20 $21 $2 $-1 $22 forward single #
loop $-1 $23 $24 $7 #
plane-surface $-1 -256.4035340092775073 -4.998406808454092243e-07 -57.11001605980837326 0.9063077870366551547 6.907174122924294389e-09 0.422618261740688006 0.4226182617406880615 0 -0.9063077870366552657 forward_v I I I I #
loop $-1 $-1 $25 $4 #
coedge $-1 $15 $15 $26 $27 reversed $8 $-1 #
coedge $-1 $18 $10 $24 $28 reversed $5 $-1 #
coedge $-1 $10 $18 $29 $30 reversed $5 $-1 #
coedge $-1 $17 $16 $10 $19 reversed $5 $-1 #
edge $-1 $31 0 $32 1 $10 $33 forward 7 unknown #
face $-1 $-1 $34 $2 $-1 $35 forward single #
loop $-1 $-1 $29 $11 #
cone-surface $-1 -304.9816313943244381 -8.700650901971584972e-07 -79.76235488905425086 0.9063077870366561539 6.907171720630618566e-09 0.4226182617406863407 -2.5365106724573252 -6.706507913075116178 5.439564800640880549 1 I I 0 1 9.000000000000017764 forward I I I I #
loop $-1 $-1 $36 $7 #
coedge $-1 $24 $24 $16 $28 forward $12 $-1 #
coedge $-1 $25 $25 $37 $38 reversed $14 $-1 #
coedge $-1 $39 $40 $15 $27 forward $21 $-1 #
edge $-1 $41 0 $41 1 $15 $42 forward 7 unknown #
edge $-1 $32 2 $32 7.20151930810401808 $16 $43 forward 7 unknown #
coedge $-1 $40 $39 $17 $30 forward $21 $-1 #
edge $-1 $31 2 $31 7.20151930810401808 $17 $44 forward 7 unknown #
vertex $-1 $30 $45 #
vertex $-1 $28 $46 #
intcurve-curve $-1 forward { exactcur full nubs 1 open 2 
	0 1 1 1 
	-267.1011946614875683 3.803572233742208653 -53.09842148526552563 
	-259.0296887957562717 2.897648504890447896 -51.47820899323371435 
	0 
	null_surface 
	null_surface 
	nullbs 
	nullbs 
	I I 
	0 
	0 
	0 
	F 1 F 0 } I I #
loop $-1 $-1 $37 $20 #
cone-surface $-1 -303.5315389351836188 -8.590136371111611879e-07 -79.0861656703240925 -0.9063077870366560429 -6.90717188750310216e-09 -0.4226182617406865072 0.3004245865966481688 4.949209094317829738 -0.6442626859364111169 1 I I 0 -1 5.000000000000007994 forward I I I I #
coedge $-1 $36 $36 $47 $48 reversed $23 $-1 #
coedge $-1 $49 $50 $25 $38 forward $34 $-1 #
edge $-1 $51 0 $51 1 $25 $52 forward 7 unknown #
coedge $-1 $29 $26 $40 $53 reversed $21 $-1 #
coedge $-1 $26 $29 $39 $53 forward $21 $-1 #
vertex $-1 $27 $54 #
intcurve-curve $-1 forward { exactcur full nurbs 2 periodic 4 
	0 2 0.3333333333333329818 2 0.6666666666666669627 2 1 2 
	-318.7607385225770145 3.803571840033413309 -77.1876624044846551 1 
	-321.5449396482100042 -10.32436155873310213 -71.21692359157029273 0.5 
	-314.9820415515183072 -8.965754042610257102 -85.29110400073003007 1 
	-308.4191434548266102 -7.607146526487426286 -99.36528440988968214 0.5 
	-312.1978404258852038 5.16217935615623702 -91.26184281364442086 1 
	-315.9765373969439111 17.93150523879992164 -83.15840121739898905 0.5 
	-318.7607385225770145 3.803571840033413309 -77.1876624044846551 1 
	0 
	null_surface 
	null_surface 
	nullbs 
	nullbs 
	I I 
	0 
	0 
	0 
	F 1 F 0 } I I #
intcurve-curve $-1 forward { exactcur full nurbs 2 periodic 4 
	2 2 3.733839769368005879 2 5.467679538736012645 2 7.20151930810401808 2 
	-259.0296887957562717 2.897648504890504739 -51.47820899323362909 1 
	-261.1507570830078748 -7.865335253947046468 -46.92956319644148522 0.5 
	-256.1509907596638982 -6.830316881625066117 -57.65159669469974091 1 
	-251.1512244363199216 -5.79529850930305912 -68.37363019295793265 0.5 
	-254.0299224724123235 3.932666877212476209 -62.20024249149185636 1 
	-256.9086205085047254 13.66063226372805772 -56.02685479002571611 0.5 
	-259.0296887957562717 2.897648504890504739 -51.47820899323362909 1 
	0 
	null_surface 
	null_surface 
	nullbs 
	nullbs 
	I I 
	0 
	0 
	0 
	F 1 F 0 } I I #
intcurve-curve $-1 forward { exactcur full nurbs 2 periodic 4 
	2 2 3.733839769368005879 2 5.467679538736011757 2 7.20151930810401808 2 
	-267.1011946614875683 3.803572233742208653 -53.09842148526552563 1 
	-264.3169935358545217 17.93150563250870988 -59.06916029817987379 0.5 
	-260.5382965647958144 5.162179749865025258 -67.17260189442527007 1 
	-256.759599593737164 -7.607146132778602521 -75.27604349067055978 0.5 
	-263.322497690428861 -8.965753648901468864 -61.20186308151091481 1 
	-269.8853957871206148 -10.32436116502430856 -47.12768267235116326 0.5 
	-267.1011946614875683 3.803572233742208653 -53.09842148526552563 1 
	0 
	null_surface 
	null_surface 
	nullbs 
	nullbs 
	I I 
	0 
	0 
	0 
	F 1 F 0 } I I #
point $-1 -267.1011946614875683 3.803572233742208653 -53.09842148526552563 #
point $-1 -259.0296887957562717 2.897648504890447896 -51.47820899323371435 #
coedge $-1 $50 $49 $36 $48 forward $34 $-1 #
edge $-1 $55 0 $55 1 $36 $56 forward 7 unknown #
coedge $-1 $47 $37 $50 $57 forward $34 $-1 #
coedge $-1 $37 $47 $49 $57 reversed $34 $-1 #
vertex $-1 $38 $58 #
intcurve-curve $-1 forward { exactcur full nurbs 2 periodic 4 
	0 2 0.3333333333333329818 2 0.6666666666666669627 2 1 2 
	-317.2286503643916831 2.113095044993272609 -80.47323603491506105 1 
	-315.6818719612622886 9.961946933196893283 -83.79031315320079898 0.5 
	-313.5825958662296102 2.867876998394862653 -88.29222515111487724 1 
	-311.4833197711970456 -4.226192936407166201 -92.79413714902895549 0.5 
	-315.1293742693591184 -4.980974889808770456 -84.97514803282911089 1 
	-318.7754287675211913 -5.735756843210337408 -77.15615891662935155 0.5 
	-317.2286503643916831 2.113095044993272609 -80.47323603491506105 1 
	0 
	null_surface 
	null_surface 
	nullbs 
	nullbs 
	I I 
	0 
	0 
	0 
	F 1 F 0 } I I #
edge $-1 $31 0.1230769230769230005 $41 1 $39 $59 forward 7 unknown #
point $-1 -318.7607385225770145 3.803571840033413309 -77.1876624044846551 #
vertex $-1 $48 $60 #
intcurve-curve $-1 forward { exactcur full nurbs 2 periodic 4 
	0 2 0.3333333333333329818 2 0.6666666666666669627 2 1 2 
	-258.3186442070090152 2.113095493959448845 -53.00304902177044397 1 
	-259.8654226101385234 -5.735756394244161172 -49.68597190348470605 0.5 
	-256.2193681119764506 -4.98097444084259422 -57.50496101968449381 1 
	-252.5733136138143493 -4.226192487440989964 -65.3239501358843313 0.5 
	-254.6725897088469708 2.867877447361031784 -60.82203813797024594 1 
	-256.7718658038795638 9.961947382163064191 -56.320126140056189 0.5 
	-258.3186442070090152 2.113095493959448845 -53.00304902177044397 1 
	0 
	null_surface 
	null_surface 
	nullbs 
	nullbs 
	I I 
	0 
	0 
	0 
	F 1 F 0 } I I #
edge $-1 $51 0 $55 1 $50 $61 forward 7 unknown #
point $-1 -317.2286503643916831 2.113095044993272609 -80.47323603491506105 #
intcurve-curve $-1 forward { exactcur full nubs 1 open 2 
	0.1230769230769230005 1 1 1 
	-267.1011946614875683 3.803572233742208653 -53.09842148526552563 
	-318.7607385225770145 3.803571840033413309 -77.1876624044846551 
	0 
	null_surface 
	null_surface 
	nullbs 
	nullbs 
	I I 
	0 
	0 
	0 
	F 1 F 0 } I I #
point $-1 -258.3186442070090152 2.113095493959448845 -53.00304902177044397 #
intcurve-curve $-1 forward { exactcur full nubs 1 open 2 
	0 1 1 1 
	-317.2286503643916831 2.113095044993272609 -80.47323603491506105 
	-258.3186442070090152 2.113095493959448845 -53.00304902177044397 
	0 
	null_surface 
	null_surface 
	nullbs 
	nullbs 
	I I 
	0 
	0 
	0 
	F 1 F 0 } I I #
End-of-ACIS-data 