600 0 1 0           
81 GICL ACIS Healer - Source: /gicl/data5/repository/SDRC_I-DEAS/bmw/Part6.sat - 6 0 18 ACIS 6.0.3 Solaris 24 Sat Apr 13 23:18:10 2002 
1 9.999999999999999547e-07 1.000000000000000036e-10 
body $-1 $1 $-1 $-1 #
lump $-1 $-1 $2 $0 #
shell $-1 $-1 $-1 $3 $-1 $1 #
face $-1 $4 $5 $2 $-1 $6 forward single #
face $-1 $7 $8 $2 $-1 $9 forward single #
loop $-1 $-1 $10 $3 #
plane-surface $-1 64.99999973866613345 -53.03306042314514457 -33.03300889628326331 -1 5.031412649878543123e-09 1.553533161748645055e-09 1.553533161748645055e-09 -0 1 forward_v I I I I #
face $-1 $-1 $11 $2 $-1 $12 forward single #
loop $-1 $-1 $13 $4 #
plane-surface $-1 294.9999997386661335 -53.03306158037003115 -33.03300925359594942 1 -5.031409561535495582e-09 -1.553531612280089079e-09 -1.553531612280089079e-09 0 -1 forward_v I I I I #
coedge $-1 $10 $10 $14 $15 reversed $5 $-1 #
loop $-1 $-1 $14 $7 #
cone-surface $-1 110.9999997386661192 -53.03306065459010199 -33.03300896774574369 1 -5.031412550361775387e-09 -1.553533448743664204e-09 6.539508490277512465e-09 3.06893538028051438 -5.729889670112562783 1 I I 0 1 6.500000000000012434 forward I I I I #
coedge $-1 $13 $13 $16 $17 reversed $8 $-1 #
coedge $-1 $18 $19 $10 $15 forward $11 $-1 #
edge $-1 $20 0 $20 1 $10 $21 forward 7 unknown #
coedge $-1 $19 $18 $13 $17 forward $11 $-1 #
edge $-1 $22 0 $22 1 $13 $23 forward 7 unknown #
coedge $-1 $16 $14 $19 $24 reversed $11 $-1 #
coedge $-1 $14 $16 $18 $24 forward $11 $-1 #
vertex $-1 $15 $25 #
intcurve-curve $-1 forward { exactcur full nurbs 2 periodic 4 
	0 2 0.3333333333333329818 2 0.6666666666666669627 2 1 2 
	64.99999970840042351 -57.62925440881079453 -37.62920306604274856 1 
	64.99999973608727544 -49.66841258533554537 -45.59004457065816496 0.5 
	64.99999976764239307 -46.75454251857470922 -34.71533256371122889 1 
	64.99999979919749649 -43.84067245181384465 -23.84062055676432124 0.5 
	64.99999973995554114 -54.71538434204992996 -26.75449105909585512 1 
	64.9999996807135858 -65.59009623228607211 -29.66836156142737124 0.5 
	64.99999970840042351 -57.62925440881079453 -37.62920306604274856 1 
	0 
	null_surface 
	null_surface 
	nullbs 
	nullbs 
	I I 
	0 
	0 
	0 
	F 1 F 0 } I I #
vertex $-1 $17 $26 #
intcurve-curve $-1 forward { exactcur full nurbs 2 periodic 4 
	0 2 0.3333333333333329818 2 0.6666666666666669627 2 1 2 
	294.9999997084004235 -57.62925556603568111 -37.62920342335544177 1 
	294.9999996807135858 -65.59009738951095869 -29.66836191874006801 0.5 
	294.9999997399555127 -54.71538549927481654 -26.75449141640854833 1 
	294.9999997991975533 -43.84067360903873123 -23.84062091407701445 0.5 
	294.9999997676423504 -46.7545436757995958 -34.7153329210239221 1 
	294.9999997360872612 -49.66841374256043196 -45.59004492797085817 0.5 
	294.9999997084004235 -57.62925556603568111 -37.62920342335544177 1 
	0 
	null_surface 
	null_surface 
	nullbs 
	nullbs 
	I I 
	0 
	0 
	0 
	F 1 F 0 } I I #
edge $-1 $22 0 $20 1 $19 $27 forward 7 unknown #
point $-1 64.99999970840042351 -57.62925440881079453 -37.62920306604274856 #
point $-1 294.9999997084004235 -57.62925556603568111 -37.62920342335544177 #
intcurve-curve $-1 forward { exactcur full nubs 1 open 2 
	0 1 1 1 
	294.9999997084004235 -57.62925556603568111 -37.62920342335544177 
	64.99999970840042351 -57.62925440881079453 -37.62920306604274856 
	0 
	null_surface 
	null_surface 
	nullbs 
	nullbs 
	I I 
	0 
	0 
	0 
	F 1 F 0 } I I #
End-of-ACIS-data 