600 0 1 0           
82 GICL ACIS Healer - Source: /gicl/data5/repository/SDRC_I-DEAS/bmw/Part35.sat - 6 0 18 ACIS 6.0.3 Solaris 24 Sat Apr 13 23:15:53 2002 
1 9.999999999999999547e-07 1.000000000000000036e-10 
body $-1 $1 $-1 $-1 #
lump $-1 $-1 $2 $0 #
shell $-1 $-1 $-1 $3 $-1 $1 #
face $-1 $4 $5 $2 $-1 $6 reversed single #
face $-1 $7 $8 $2 $-1 $9 reversed single #
loop $-1 $-1 $10 $3 #
plane-surface $-1 -325.4748120412241406 13.42920347337904374 -93.54990600435422721 -0.3347038706432449162 0.6105511586102583266 0.7177747569370916958 0.9063077847862626157 -0 0.422618266566670675 forward_v I I I I #
face $-1 $11 $12 $2 $-1 $13 reversed single #
loop $-1 $-1 $14 $4 #
cone-surface $-1 -324.1359965726088035 10.9869988112433834 -96.42100501505363752 -0.3347038706432418076 0.6105511586102668753 0.7177747569370860337 -0.6304682495371594086 0.3068691242823220477 -0.5550201633030837911 1 I I 0 1 0.8942629673564879145 forward I I I I #
coedge $-1 $10 $10 $15 $16 forward $5 $-1 #
face $-1 $17 $18 $2 $-1 $19 reversed single #
loop $-1 $-1 $20 $7 #
plane-surface $-1 -335.7289556460576705 -6.91704949085450238 -81.02463024182279128 -0.3347038706432459154 0.610551158610280198 0.717774756937072711 0.9063077847862577308 -0 0.4226182665666808891 forward_v I I I I #
coedge $-1 $21 $22 $23 $24 reversed $8 $-1 #
coedge $-1 $22 $21 $10 $16 reversed $8 $-1 #
edge $-1 $25 0 $25 1 $10 $26 forward 7 unknown #
face $-1 $27 $28 $2 $-1 $29 forward single #
loop $-1 $-1 $30 $11 #
cone-surface $-1 -334.3901400997118571 -9.359254104693198073 -83.89572925735807019 -0.3347038706432421962 0.6105511586102658761 0.7177747569370866998 -0.5322554100058027871 -0.6076204065088006701 0.2686572569259908505 1 I I 0 1 0.8512785099985570314 forward I I I I #
coedge $-1 $20 $20 $31 $32 forward $12 $-1 #
coedge $-1 $15 $14 $22 $33 forward $8 $-1 #
coedge $-1 $14 $15 $21 $33 reversed $8 $-1 #
coedge $-1 $23 $23 $14 $24 forward $34 $-1 #
edge $-1 $35 0 $35 1 $14 $36 forward 7 unknown #
vertex $-1 $16 $37 #
intcurve-curve $-1 forward { exactcur full nurbs 2 periodic 4 
	0 2 0.3333333333333329818 2 0.6666666666666669627 2 1 2 
	-325.1221235621721917 14.12900731134569554 -93.98070945907588225 1 
	-323.7965346619093907 13.94028425418115802 -93.20204622021675789 0.5 
	-324.9883618515549983 12.9849399842715556 -92.94517263199034574 1 
	-326.1801890412007765 12.02959571436195318 -92.68829904376403306 0.5 
	-326.313950751817913 13.17366304143607891 -93.72383587084954115 1 
	-326.4477124624349926 14.31773036851024727 -94.7593726979349924 0.5 
	-325.1221235621721917 14.12900731134569554 -93.98070945907588225 1 
	0 
	null_surface 
	null_surface 
	nullbs 
	nullbs 
	I I 
	0 
	0 
	0 
	F 1 F 0 } I I #
face $-1 $38 $39 $2 $-1 $40 forward single #
loop $-1 $41 $42 $17 #
plane-surface $-1 -334.0554378040700385 -9.969808388418371692 -84.61350209045559723 0.3347038706432372557 -0.6105511586102699839 -0.7177747569370854785 -0.9063077847862648362 0 -0.4226182665666657345 forward_v I I I I #
coedge $-1 $43 $44 $45 $46 reversed $18 $-1 #
coedge $-1 $44 $43 $20 $32 reversed $18 $-1 #
edge $-1 $47 0 $47 1 $20 $48 forward 7 unknown #
edge $-1 $35 0 $25 1 $22 $49 forward 7 unknown #
loop $-1 $-1 $23 $38 #
vertex $-1 $24 $50 #
intcurve-curve $-1 forward { exactcur full nurbs 2 periodic 4 
	0 2 0.3333333333333329818 2 0.6666666666666669627 2 1 2 
	-323.4486042089559987 11.07625151829433463 -97.56958324376131486 1 
	-324.7741931092188565 11.26497457545888459 -98.3482464826204108 0.5 
	-324.6404313986016632 10.12090724838473221 -97.31270965553497376 1 
	-324.5066696879845267 8.976839921310606485 -96.27717282844949409 0.5 
	-323.3148424983388622 9.93218419122018048 -96.53404641667577835 1 
	-322.1230153086931978 10.88752846112979711 -96.7909200049021905 0.5 
	-323.4486042089559987 11.07625151829433463 -97.56958324376131486 1 
	0 
	null_surface 
	null_surface 
	nullbs 
	nullbs 
	I I 
	0 
	0 
	0 
	F 1 F 0 } I I #
point $-1 -325.1221235621721917 14.12900731134569554 -93.98070945907588225 #
face $-1 $-1 $51 $2 $-1 $52 forward single #
loop $-1 $-1 $53 $27 #
torus-surface $-1 -328.9283644655169496 0.2033211946647774937 -90.87614189314302848 0.8558210910419594697 -0.1218425807996062066 0.5027172621184213819 13.0000000000000977 1.999999999999966249 0.3347038706432379218 -0.6105511586102683186 -0.7177747569370864777 forward_v I I I I #
loop $-1 $-1 $45 $17 #
coedge $-1 $42 $42 $53 $54 reversed $28 $-1 #
coedge $-1 $31 $30 $44 $55 forward $18 $-1 #
coedge $-1 $30 $31 $43 $55 reversed $18 $-1 #
coedge $-1 $45 $45 $30 $46 forward $41 $-1 #
edge $-1 $56 0 $56 1 $30 $57 forward 7 unknown #
vertex $-1 $32 $58 #
intcurve-curve $-1 forward { exactcur full nurbs 2 periodic 4 
	0 2 0.3333333333333329818 2 0.6666666666666669627 2 1 2 
	-336.4574976854923989 -6.813327499614608485 -81.4525826314564938 1 
	-335.8759861404953426 -5.659493350836129366 -82.16288987829000234 0.5 
	-335.0739287581824328 -6.391993381181563905 -81.16580765210309778 1 
	-334.2718713758696367 -7.124493411527019759 -80.16872542591625006 0.5 
	-335.6554403031795459 -7.545827529960050128 -80.45550040526961766 1 
	-337.0390092304894551 -7.967161648393045859 -80.7422753846230421 0.5 
	-336.4574976854923989 -6.813327499614608485 -81.4525826314564938 1 
	0 
	null_surface 
	null_surface 
	nullbs 
	nullbs 
	I I 
	0 
	0 
	0 
	F 1 F 0 } I I #
intcurve-curve $-1 forward { exactcur full nubs 1 open 2 
	0 1 1 1 
	-323.4486042089559987 11.07625151829433463 -97.56958324376131486 
	-325.1221235621721917 14.12900731134569554 -93.98070945907588225 
	0 
	null_surface 
	null_surface 
	nullbs 
	nullbs 
	I I 
	0 
	0 
	0 
	F 1 F 0 } I I #
point $-1 -323.4486042089559987 11.07625151829433463 -97.56958324376131486 #
loop $-1 $34 $59 $38 #
plane-surface $-1 -323.801291126964145 10.37645077774805458 -97.13878169583028921 0.3347038706432253208 -0.6105511586102712052 -0.7177747569370900305 -0.9063077847862716085 0 -0.4226182665666511351 forward_v I I I I #
coedge $-1 $60 $61 $42 $54 forward $39 $-1 #
edge $-1 $62 0 $62 1 $42 $63 forward 7 unknown #
edge $-1 $56 0 $47 1 $44 $64 forward 7 unknown #
vertex $-1 $46 $65 #
intcurve-curve $-1 forward { exactcur full nurbs 2 periodic 4 
	0 2 0.3333333333333329818 2 0.6666666666666669627 2 1 2 
	-334.7839783322761491 -9.866083292665948079 -85.04145641614192641 1 
	-335.3654898772732054 -11.01991744144441299 -84.33114916930847471 0.5 
	-333.9819209499632962 -10.59858332301143236 -84.04437418995507869 1 
	-332.5983520226534438 -10.17724920457835935 -83.75759921060168267 0.5 
	-333.4004094049662967 -9.44474917423291771 -84.75468143678853039 1 
	-334.2024667872790928 -8.712249143887447644 -85.75176366297540653 0.5 
	-334.7839783322761491 -9.866083292665948079 -85.04145641614192641 1 
	0 
	null_surface 
	null_surface 
	nullbs 
	nullbs 
	I I 
	0 
	0 
	0 
	F 1 F 0 } I I #
point $-1 -336.4574976854923989 -6.813327499614608485 -81.4525826314564938 #
coedge $-1 $59 $59 $66 $67 reversed $51 $-1 #
coedge $-1 $66 $53 $61 $68 reversed $39 $-1 #
coedge $-1 $53 $66 $60 $68 forward $39 $-1 #
vertex $-1 $68 $69 #
intcurve-curve $-1 forward { exactcur full nurbs 2 periodic 4 
	0 2 0.3333333333333329818 2 0.6666666666666669627 2 1 2 
	-335.7670784111525109 -9.726120101704204046 -85.61893853853203495 1 
	-337.1332859170791494 -12.4369465474002503 -83.95013746229055585 0.5 
	-333.8827188909899633 -11.44706106695103642 -83.27638621405600361 1 
	-330.6321518649007203 -10.45717558650183321 -82.60263496582149401 0.5 
	-332.5165113850633247 -8.73623462125497241 -84.94518729029749693 1 
	-334.4008709052259292 -7.015293656008141809 -87.2877396147735567 0.5 
	-335.7670784111525109 -9.726120101704204046 -85.61893853853203495 1 
	0 
	null_surface 
	null_surface 
	nullbs 
	nullbs 
	I I 
	0 
	0 
	0 
	F 1 F 0 } I I #
intcurve-curve $-1 forward { exactcur full nubs 1 open 2 
	0 1 1 1 
	-334.7839783322761491 -9.866083292665948079 -85.04145641614192641 
	-336.4574976854923989 -6.813327499614608485 -81.4525826314564938 
	0 
	null_surface 
	null_surface 
	nullbs 
	nullbs 
	I I 
	0 
	0 
	0 
	F 1 F 0 } I I #
point $-1 -334.7839783322761491 -9.866083292665948079 -85.04145641614192641 #
coedge $-1 $61 $60 $59 $67 forward $39 $-1 #
edge $-1 $70 0 $70 1 $66 $71 forward 7 unknown #
edge $-1 $70 0 $62 2.501851166488375799 $61 $72 forward 7 unknown #
point $-1 -335.7670784111525109 -9.726120101704204046 -85.61893853853203495 #
vertex $-1 $67 $73 #
intcurve-curve $-1 forward { exactcur full nurbs 2 periodic 4 
	0 2 0.3333333333333329818 2 0.6666666666666669627 2 1 2 
	-325.5129348840494004 10.62013281423231348 -98.14421429622757387 1 
	-326.8791423899760957 7.909306368536298315 -96.47541321998608055 0.5 
	-323.6285753638869096 8.899191848985473996 -95.8016619717515141 1 
	-320.3780083377976666 9.889077329434705632 -95.1279107235170045 0.5 
	-322.2623678579602711 11.61001829468151669 -97.47046304799303584 1 
	-324.1467273781228755 13.3309592599283917 -99.81301537246906719 0.5 
	-325.5129348840494004 10.62013281423231348 -98.14421429622757387 1 
	0 
	null_surface 
	null_surface 
	nullbs 
	nullbs 
	I I 
	0 
	0 
	0 
	F 1 F 0 } I I #
intcurve-curve $-1 forward { exactcur full nurbs 2 open 3 
	0 2 1.2509255832441879 2 2.501851166488375799 2 
	-325.5129348840494004 10.6201328142323419 -98.14421429622757387 1 
	-329.8640852024115588 18.55729787616581206 -88.81314245604539792 0.7071067811865470176 
	-334.9911569659631141 8.384171418197546188 -82.55050457719764267 1 
	-340.1182287295146125 -1.788955039770754318 -76.28786669834988743 0.7071067811865470176 
	-335.7670784111525109 -9.726120101704204046 -85.61893853853203495 1 
	0 
	null_surface 
	null_surface 
	nullbs 
	nullbs 
	I I 
	0 
	0 
	0 
	F 1 F 0 } I I #
point $-1 -325.5129348840494004 10.62013281423231348 -98.14421429622757387 #
End-of-ACIS-data 