600 0 1 0           
7 Unknown 16 ACIS 6.0 Solaris 24 Thu Aug 24 19:06:42 2000 
-1 9.999999999999999547e-07 1.000000000000000036e-10 
body $-1 $1 $-1 $-1 #
lump $-1 $-1 $2 $0 #
shell $-1 $-1 $-1 $3 $-1 $1 #
face $-1 $4 $5 $2 $-1 $6 forward single #
face $-1 $7 $8 $2 $-1 $9 forward single #
loop $-1 $-1 $10 $3 #
spline-surface $-1 forward { exactsur full nubs 1 1 open open none none 2 2 
	0 1 1 1 
	0 1 1 1 
	65.00000038854186357 43.38094568295703368 73.03300889547094243 
	65.00000045209981181 53.03295312028984654 82.68501671940080655 
	65.0000004221103751 53.0329535068868978 63.38100145813814379 
	65.00000048566833755 62.68496094421971065 73.03300928206800791 
	0 
	0 
	0 
	0 
	0 
	0 
	0 
	F 1 F 0 F 1 F 0 } I I I I #
face $-1 $-1 $11 $2 $-1 $12 forward single #
loop $-1 $-1 $13 $4 #
spline-surface $-1 forward { exactsur full nubs 1 1 open open none none 2 2 
	0 1 1 1 
	0 1 1 1 
	295.0000004856682949 62.68495978699482407 73.0330089247553218 
	295.0000004520998118 53.03295196306495995 82.68501636208812045 
	295.0000004221103609 53.03295234966201122 63.38100110082545768 
	295.0000003885418209 43.3809445257321471 73.03300853815825633 
	0 
	0 
	0 
	0 
	0 
	0 
	0 
	F 1 F 0 F 1 F 0 } I I I I #
tcoedge-coedge $-1 $10 $10 $14 $15 reversed $5 $16 -1 -0 #
loop $-1 $-1 $14 $7 #
spline-surface $-1 forward { exactsur full nurbs 2 1 both periodic open none none 4 2 
	0 2 0.3333333333333329818 2 0.6666666666666669627 2 1 2 
	0 1 3.404886202913178117 1 
	65.00000046737078208 57.62914729925401502 77.62920325852896042 1 
	65.00000043968394436 49.66830547577875166 85.59004476314433418 0.5 
	65.00000040812882673 46.75443540901794393 74.71533275619742653 1 
	65.00000037657372332 43.84056534225710777 63.84062074925053309 0.5 
	65.00000043581567866 54.71527723249320729 66.75449125158203856 1 
	65.000000495057634 65.58998912272927839 69.66836175391357244 0.5 
	65.00000046737078208 57.62914729925401502 77.62920325852896042 1 
	295.0000004673707963 57.62914614202912844 77.62920290121627431 1 
	295.0000004396839586 49.66830431855386507 85.59004440583164808 0.5 
	295.0000004081288125 46.75443425179305734 74.71533239888474043 1 
	295.0000003765737802 43.84056418503222119 63.84062039193784699 0.5 
	295.0000004358156502 54.71527607526832071 66.75449089426935245 1 
	295.000000495057634 65.58998796550439181 69.66836139660088634 0.5 
	295.0000004673707963 57.62914614202912844 77.62920290121627431 1 
	0 
	0 
	0 
	0 
	0 
	0 
	0 
	F 1 F 0 F 1 F 0 } I I I I #
tcoedge-coedge $-1 $13 $13 $17 $18 reversed $8 $19 -1 -0 #
tcoedge-coedge $-1 $20 $21 $10 $15 forward $11 $22 0 1 #
tedge-edge $-1 $23 0 $23 1 $10 $24 forward 7 unknown 0.0003454415010821712409 #
pcurve $-1 0 forward { exppc nubs 2 periodic 25 
	-1 2 -0.9583333333333333703 2 -0.9166666666666667407 2 -0.875 2 -0.8333333333333333703 2 
	-0.7916666666666667407 2 -0.75 2 -0.7083333333333333703 2 -0.6666666666666667407 2 -0.625 2 
	-0.5833333333333333703 2 -0.5416666666666667407 2 -0.5 2 -0.4583333333333333703 2 -0.4166666666666666852 2 
	-0.375 2 -0.3333333333333333703 2 -0.2916666666666666852 2 -0.25 2 -0.2083333333333333148 2 
	-0.1666666666666666297 2 -0.1249999999999999722 2 -0.08333333333333331483 2 -0.04166666666666665741 2 -0 2 
	0.9761904728635126816 0.4999999999999958367 
	0.9761904728635126816 0.5549857395386531556 
	0.9636591446302622543 0.6085244859315561694 
	0.9497354465933181 0.6680119819236673973 
	0.9212454183023380816 0.7220577942907245861 
	0.8904761877480813492 0.7804272716471433169 
	0.844995138503156884 0.8282312003072831441 
	0.7976190455396938717 0.8780269593282621354 
	0.7380952364317562298 0.9123930465399219258 
	0.6785714273238169225 0.9467591337515826044 
	0.6117589885291917495 0.9628901542795050839 
	0.5476190472863550207 0.9783759339863098425 
	0.4816849818129417815 0.9758381306229870766 
	0.420634921189416866 0.9734883126939847253 
	0.3621553894342465774 0.9558028409125446379 
	0.3095238108545945721 0.9398859163092488922 
	0.2619047635682442143 0.9123930465399208156 
	0.2142857162818942451 0.8849001767705929611 
	0.174185465935492223 0.8472783549809848047 
	0.1296296322172643678 0.8054763307703058928 
	0.0970695998847213859 0.753780336332259937 
	0.06190476496556992364 0.6979486623391624178 
	0.04324587296765293465 0.6346589539722193862 
	0.02380952713648924399 0.5687321744233198029 
	0.02380952713648925093 0.4999999999999989453 
	0.02380952713648929603 0.4312678255766783098 
	0.0432458729676529971 0.3653410460277787264 
	0.06190476496556985425 0.3020513376608360834 
	0.09706959988472155243 0.2462196636677388417 
	0.1296296322172739712 0.1945236692296786751 
	0.1741854659354925006 0.1527216450190085617 
	0.2142857162818918304 0.1150998232294029033 
	0.2619047635682443809 0.08760695346007385531 
	0.3095238108545952382 0.06011408369074584812 
	0.3621553894342467994 0.0441971590874501441 
	0.4206349211894261364 0.0265116873060071076 
	0.4816849818129420591 0.02416186937700500262 
	0.5476190472863572412 0.02162406601368207365 
	0.6117589885291919716 0.03710984572048629804 
	0.6785714273238081518 0.05324086624840650844 
	0.7380952364317563408 0.08760695346007188467 
	0.7976190455396983126 0.1219730406717337567 
	0.8449951385031572171 0.1717687996927078353 
	0.8904761877480782406 0.2195727283528434715 
	0.9212454183023380816 0.2779422057092676424 
	0.9497354465933171008 0.3319880180763227218 
	0.9636591446302623654 0.3914755140684388901 
	0.9761904728635126816 0.4450142604613415709 
	0.9761904728635126816 0.4999999999999958367 
	0.001000000000000000021 
	spline forward { ref 0 } I I I I 
	} 0 0 #
tcoedge-coedge $-1 $21 $20 $13 $18 forward $11 $25 0 1 #
tedge-edge $-1 $26 0 $26 1 $13 $27 forward 7 unknown 0.000345441501073437884 #
pcurve $-1 0 forward { exppc nubs 2 periodic 25 
	-1 2 -0.9583333333333333703 2 -0.9166666666666667407 2 -0.875 2 -0.8333333333333333703 2 
	-0.7916666666666667407 2 -0.75 2 -0.7083333333333333703 2 -0.6666666666666667407 2 -0.625 2 
	-0.5833333333333333703 2 -0.5416666666666667407 2 -0.5 2 -0.4583333333333333703 2 -0.4166666666666666852 2 
	-0.375 2 -0.3333333333333333703 2 -0.2916666666666666852 2 -0.25 2 -0.2083333333333333148 2 
	-0.1666666666666666297 2 -0.1249999999999999722 2 -0.08333333333333331483 2 -0.04166666666666665741 2 -0 2 
	0.5000000000000042188 0.02380952713648723518 
	0.5549857395386610381 0.02380952713648719354 
	0.6085244859315637189 0.03634085536973753749 
	0.6680119819236771672 0.05026455340668221916 
	0.7220577942907330238 0.0787545816976616686 
	0.7804272716471547522 0.1095238122519201496 
	0.8282312003072920259 0.1550048614968427829 
	0.8780269593282680196 0.2023809544603035748 
	0.9123930465399282541 0.2619047635682434372 
	0.9467591337515921524 0.3214285726761895168 
	0.9628901542795123003 0.3882410114708078064 
	0.978375933986317281 0.452380952713648421 
	0.9758381306229944041 0.5183150181870578299 
	0.9734883126939914977 0.5793650788105910721 
	0.9558028409125539637 0.637844610565752923 
	0.9398859163092594393 0.690476189145400987 
	0.9123930465399291423 0.7380952364317552306 
	0.8849001767706037302 0.7857142837181010364 
	0.847278354980991466 0.8258145340645074439 
	0.805476330770316884 0.8703703677827306917 
	0.7537803363322639338 0.9029304001152783643 
	0.6979486623391688571 0.9380952350344284874 
	0.6346589539722214957 0.9567541270323469682 
	0.5687321744233224674 0.9761904728635106832 
	0.5000000000000021094 0.9761904728635106832 
	0.4312678255766798641 0.9761904728635106832 
	0.3653410460277803917 0.9567541270323471903 
	0.302051337660841579 0.938095235034431596 
	0.2462196636677417005 0.9029304001152788084 
	0.1945236692296873904 0.8703703677827305807 
	0.1527216450190129748 0.825814534064507888 
	0.1150998232294082879 0.7857142837181099182 
	0.08760695346007814355 0.7380952364317560077 
	0.06011408369074968533 0.6904761891454049838 
	0.04419715908745415478 0.6378446105657537002 
	0.02651168730601552795 0.5793650788105886296 
	0.024161869377012795 0.518315018187058385 
	0.02162406601369010195 0.4523809527136510855 
	0.0371098457204956933 0.3882410114708084725 
	0.05324086624841731924 0.3214285726761840767 
	0.08760695346007812967 0.2619047635682439368 
	0.1219730406717380727 0.2023809544603054067 
	0.1717687996927163563 0.1550048614968430882 
	0.219572728352855906 0.1095238122519189283 
	0.2779422057092746368 0.07875458169766202943 
	0.3319880180763307154 0.05026455340668244814 
	0.3914755140684442747 0.03634085536973770403 
	0.4450142604613473996 0.02380952713648726987 
	0.5000000000000042188 0.02380952713648723518 
	0.001000000000000000021 
	spline forward { ref 1 } I I I I 
	} 0 0 #
coedge $-1 $17 $14 $21 $28 reversed $11 $29 #
coedge $-1 $14 $17 $20 $28 forward $11 $30 #
pcurve $-1 0 forward { exppc nubs 2 periodic 25 
	0 2 0.04166666666666666435 2 0.08333333333333332871 2 0.125 2 0.1666666666666666574 2 
	0.2083333333333333148 2 0.25 2 0.2916666666666666297 2 0.3333333333333333148 2 0.375 2 
	0.4166666666666666297 2 0.4583333333333333148 2 0.5 2 0.5416666666666666297 2 0.5833333333333332593 2 
	0.625 2 0.6666666666666666297 2 0.7083333333333332593 2 0.75 2 0.7916666666666667407 2 
	0.8333333333333333703 2 0.875 2 0.9166666666666667407 2 0.9583333333333333703 2 1 2 
	0 0 
	0.02203856749311304888 0 
	0.04166666666666686558 0 
	0.06345565749235526631 0 
	0.08333333333333409199 0 
	0.1047854785478829903 0 
	0.1250000000000530687 0 
	0.1460481099656616433 0 
	0.1666666666666670182 0 
	0.1872852233676725597 0 
	0.2083333333332813286 0 
	0.2285478547854511988 0 
	0.2499999999999999167 0 
	0.2698776758409783261 0 
	0.2916666666666661856 0 
	0.3112947658402197559 0 
	0.3333333333333325377 0 
	0.3553719008264455415 0 
	0.3749999999999993894 0 
	0.3967889908256875264 0 
	0.4166666666666660745 0 
	0.4381188118812148757 0 
	0.4583333333333848292 0 
	0.4793814432989934038 0 
	0.4999999999999987232 0 
	0.5206185567010042092 0 
	0.5416666666666131169 0 
	0.5618811881187834034 0 
	0.5833333333333324822 0 
	0.6032110091743108082 0 
	0.6249999999999984457 0 
	0.6446280991735524601 0 
	0.6666666666666655194 0 
	0.6887052341597788008 0 
	0.7083333333333328152 0 
	0.7301223241590212298 0 
	0.75 0 
	0.7714521452145491898 0 
	0.7916666666667194763 0 
	0.812714776632328384 0 
	0.8333333333333341475 0 
	0.8539518900343398 0 
	0.8749999999999487077 0 
	0.8952145214521187722 0 
	0.9166666666666677399 0 
	0.936544342507646177 0 
	0.9583333333333341475 0 
	0.9779614325068876068 0 
	1 0 
	0.001000000000000000021 
	spline forward { ref 2 } I I I I 
	} 0 0 #
tvertex-vertex $-1 $15 $31 4.019436694230464427e-14 #
intcurve-curve $-1 forward { exactcur full nurbs 2 periodic 4 
	0 2 0.3333333333333329818 2 0.6666666666666669627 2 1 2 
	65.00000046737078208 57.6291472992539866 77.62920325852898884 1 
	65.00000043968394436 49.66830547577870902 85.59004476314437682 0.5 
	65.00000040812882673 46.7544354090179155 74.71533275619745496 1 
	65.00000037657372332 43.84056534225707935 63.84062074925056152 0.5 
	65.00000043581567866 54.71527723249315045 66.75449125158208119 1 
	65.000000495057634 65.58998912272924997 69.66836175391360086 0.5 
	65.00000046737078208 57.6291472992539866 77.62920325852898884 1 
	0 
	null_surface 
	null_surface 
	nullbs 
	nullbs 
	I I 
	0 
	0 
	0 
	F 1 F 0 } I I #
pcurve $-1 0 forward { exppc nubs 2 periodic 25 
	0 2 0.04166666666666666435 2 0.08333333333333332871 2 0.125 2 0.1666666666666666574 2 
	0.2083333333333333148 2 0.25 2 0.2916666666666666297 2 0.3333333333333333148 2 0.375 2 
	0.4166666666666666297 2 0.4583333333333333148 2 0.5 2 0.5416666666666666297 2 0.5833333333333332593 2 
	0.625 2 0.6666666666666666297 2 0.7083333333333332593 2 0.75 2 0.7916666666666667407 2 
	0.8333333333333333703 2 0.875 2 0.9166666666666667407 2 0.9583333333333333703 2 1 2 
	1 3.404886202913177229 
	0.9779614325068876068 3.404886202913177673 
	0.9583333333333341475 3.404886202913177229 
	0.936544342507646288 3.404886202913177229 
	0.9166666666666680729 3.404886202913177673 
	0.8952145214521187722 3.404886202913177229 
	0.8749999999999484857 3.404886202913177673 
	0.853951890034339689 3.404886202913177229 
	0.8333333333333340365 3.404886202913177229 
	0.812714776632328384 3.404886202913177673 
	0.7916666666667193653 3.404886202913178117 
	0.7714521452145490787 3.404886202913178117 
	0.75 3.404886202913178117 
	0.7301223241590212298 3.404886202913178117 
	0.7083333333333329263 3.404886202913178117 
	0.6887052341597788008 3.404886202913177673 
	0.6666666666666654084 3.404886202913177673 
	0.6446280991735526822 3.404886202913178117 
	0.6249999999999990008 3.404886202913178117 
	0.6032110091743106972 3.404886202913178117 
	0.583333333333331816 3.404886202913178117 
	0.5618811881187830704 3.404886202913178117 
	0.5416666666666132279 3.404886202913178117 
	0.5206185567010044313 3.404886202913178117 
	0.4999999999999987232 3.404886202913178117 
	0.4793814432989934038 3.404886202913178117 
	0.4583333333333848292 3.404886202913177229 
	0.4381188118812149312 3.404886202913177673 
	0.4166666666666661856 3.404886202913178117 
	0.3967889908256874709 3.404886202913178117 
	0.3749999999999991118 3.404886202913178117 
	0.3553719008264453749 3.404886202913178117 
	0.3333333333333325932 3.404886202913178117 
	0.311294765840219978 3.404886202913178561 
	0.2916666666666664631 3.404886202913178117 
	0.2698776758409784371 3.404886202913178117 
	0.2499999999999999445 3.404886202913177673 
	0.2285478547854512266 3.404886202913178117 
	0.2083333333332813009 3.404886202913178117 
	0.1872852233676726152 3.404886202913178117 
	0.166666666666667157 3.404886202913178117 
	0.1460481099656617265 3.404886202913178117 
	0.1250000000000530964 3.404886202913177673 
	0.1047854785478830597 3.404886202913178117 
	0.0833333333333341475 3.404886202913177673 
	0.06345565749235604347 3.404886202913177673 
	0.04166666666666855173 3.404886202913177673 
	0.02203856749311399604 3.404886202913177229 
	0 3.404886202913177229 
	0.001000000000000000021 
	spline forward { ref 2 } I I I I 
	} 0 0 #
tvertex-vertex $-1 $18 $32 6.96186857221385333e-14 #
intcurve-curve $-1 forward { exactcur full nurbs 2 periodic 4 
	0 2 0.3333333333333329818 2 0.6666666666666669627 2 1 2 
	295.0000004673707963 57.62914614202910002 77.62920290121630273 1 
	295.000000495057634 65.58998796550434918 69.66836139660091476 0.5 
	295.0000004358156502 54.71527607526826387 66.75449089426939508 1 
	295.0000003765737802 43.84056418503219277 63.84062039193787541 0.5 
	295.0000004081288125 46.75443425179302892 74.71533239888476885 1 
	295.0000004396839586 49.66830431855381534 85.59004440583169071 0.5 
	295.0000004673707963 57.62914614202910002 77.62920290121630273 1 
	0 
	null_surface 
	null_surface 
	nullbs 
	nullbs 
	I I 
	0 
	0 
	0 
	F 1 F 0 } I I #
edge $-1 $26 0 $23 1 $21 $33 forward 7 unknown #
pcurve $-1 0 forward { exppc nubs 2 open 7 
	-1 2 -0.8333333333333333703 2 -0.6666666666666667407 2 -0.5 2 -0.3333333333333333703 2 
	-0.1666666666666666297 2 -0 2 
	1 0 
	1 0.2837405169094313617 
	1 0.5674810338188627235 
	1 0.8512215507282944182 
	1 1.134962067637726113 
	1 1.418702584547157475 
	1 1.702443101456588614 
	1 1.98618361836602042 
	1 2.269924135275452226 
	1 2.55366465218488381 
	1 2.837405169094315394 
	1 3.121145686003746533 
	1 3.404886202913177229 
	0.001000000000000000021 
	spline forward { ref 2 } I I I I 
	} 0 0 #
pcurve $-1 0 forward { exppc nubs 2 open 7 
	0 2 0.1666666666666666574 2 0.3333333333333333148 2 0.5 2 0.6666666666666666297 2 
	0.8333333333333333703 2 1 2 
	0 3.404886202913177229 
	0 3.121145686003746533 
	0 2.837405169094315394 
	0 2.553664652184883366 
	0 2.269924135275451782 
	0 1.986183618366020198 
	0 1.702443101456588614 
	0 1.418702584547157031 
	0 1.134962067637725669 
	0 0.8512215507282941962 
	0 0.5674810338188627235 
	0 0.2837405169094313617 
	0 0 
	0.001000000000000000021 
	spline forward { ref 2 } I I I I 
	} 0 0 #
point $-1 65.00000046737078208 57.6291472992539866 77.62920325852898884 #
point $-1 295.0000004673707963 57.62914614202910002 77.62920290121630273 #
intcurve-curve $-1 forward { exactcur full nubs 1 open 2 
	0 1 1 1 
	295.0000004673707963 57.62914614202910002 77.62920290121630273 
	65.00000046737078208 57.6291472992539866 77.62920325852898884 
	0 
	null_surface 
	null_surface 
	nullbs 
	nullbs 
	I I 
	0 
	0 
	0 
	F 1 F 0 } I I #
End-of-ACIS-data 