600 0 1 0           
82 GICL ACIS Healer - Source: /gicl/data5/repository/SDRC_I-DEAS/bmw/Part58.sat - 6 0 18 ACIS 6.0.3 Solaris 24 Sat Apr 13 23:17:59 2002 
1 9.999999999999999547e-07 1.000000000000000036e-10 
body $-1 $1 $-1 $-1 #
lump $-1 $-1 $2 $0 #
shell $-1 $-1 $-1 $3 $-1 $1 #
face $-1 $4 $5 $2 $-1 $6 forward single #
face $-1 $7 $8 $2 $-1 $9 forward single #
loop $-1 $10 $11 $3 #
plane-surface $-1 -164.6863627367135905 -4.070601633543446951e-10 -62.5 -2.852318624338362511e-17 9.666902606278481708e-16 -1 -1 0 2.852318624338362511e-17 forward_v I I I I #
face $-1 $12 $13 $2 $-1 $14 forward single #
loop $-1 $15 $16 $4 #
plane-surface $-1 -164.6863627367136189 -4.070823678148371982e-10 22.50000000000000355 -1.471551424155181453e-16 -4.881078964222091655e-16 1 1 -0 1.471551424155181453e-16 forward_v I I I I #
loop $-1 $-1 $17 $3 #
coedge $-1 $11 $11 $18 $19 reversed $5 $-1 #
face $-1 $-1 $20 $2 $-1 $21 forward single #
loop $-1 $-1 $18 $7 #
cone-surface $-1 -164.6863627367136189 -4.070717096738007967e-10 -45.49999999999999289 0 -3.343730521224000828e-16 1 2.872290205156758702 10.61837788823510387 0 1 I I 0 1 10.99999999999998401 forward I I I I #
loop $-1 $-1 $22 $4 #
coedge $-1 $16 $16 $23 $24 reversed $8 $-1 #
coedge $-1 $17 $17 $25 $26 forward $10 $-1 #
coedge $-1 $27 $28 $11 $19 forward $13 $-1 #
edge $-1 $29 0 $29 1 $11 $30 forward 7 unknown #
loop $-1 $-1 $25 $12 #
cone-surface $-1 -164.6863627367136473 -4.070779269227386976e-10 -45.5 3.70531345875204556e-32 3.343730521223999842e-16 -1 2.381836680810835105 -7.111740576395070512 0 1 I I 0 -1 7.500000000000004441 forward I I I I #
coedge $-1 $22 $22 $31 $32 forward $15 $-1 #
coedge $-1 $28 $27 $16 $24 forward $13 $-1 #
edge $-1 $33 0 $33 1 $16 $34 forward 7 unknown #
coedge $-1 $35 $36 $17 $26 reversed $20 $-1 #
edge $-1 $37 0 $37 1 $17 $38 forward 7 unknown #
coedge $-1 $23 $18 $28 $39 reversed $13 $-1 #
coedge $-1 $18 $23 $27 $39 forward $13 $-1 #
vertex $-1 $19 $40 #
intcurve-curve $-1 forward { exactcur full nurbs 2 periodic 4 
	0 2 0.3333333333333329818 2 0.6666666666666669627 2 1 2 
	-153.6911479424794607 0.3244250736164104865 -62.50000000000000711 1 
	-154.2530686539374756 19.36869573736287009 -62.50000000000000711 0.5 
	-170.4649304895597197 9.359922794454419659 -62.5 1 
	-186.676792325181907 -0.6488501484539810349 -62.5 0.5 
	-169.9030097781017616 -9.684347869292025734 -62.50000000000001421 1 
	-153.1292272310216163 -18.71984559013007399 -62.50000000000001421 0.5 
	-153.6911479424794607 0.3244250736164104865 -62.50000000000000711 1 
	0 
	null_surface 
	null_surface 
	nullbs 
	nullbs 
	I I 
	0 
	0 
	0 
	F 1 F 0 } I I #
coedge $-1 $36 $35 $22 $32 reversed $20 $-1 #
edge $-1 $41 0 $41 1 $22 $42 forward 7 unknown #
vertex $-1 $24 $43 #
intcurve-curve $-1 forward { exactcur full nurbs 2 periodic 4 
	0 2 0.3333333333333329818 2 0.6666666666666669627 2 1 2 
	-153.6911479424794607 0.3244250736163820648 22.50000000000000711 1 
	-153.1292272310216163 -18.71984559013010596 22.49999999999999289 0.5 
	-169.9030097781017616 -9.684347869292054156 22.5 1 
	-186.676792325181907 -0.6488501484540094566 22.5 0.5 
	-170.4649304895597197 9.359922794454391237 22.50000000000000711 1 
	-154.2530686539374756 19.36869573736284167 22.50000000000001776 0.5 
	-153.6911479424794607 0.3244250736163820648 22.50000000000000711 1 
	0 
	null_surface 
	null_surface 
	nullbs 
	nullbs 
	I I 
	0 
	0 
	0 
	F 1 F 0 } I I #
coedge $-1 $31 $25 $36 $44 forward $20 $-1 #
coedge $-1 $25 $31 $35 $44 reversed $20 $-1 #
vertex $-1 $26 $45 #
intcurve-curve $-1 forward { exactcur full nurbs 2 periodic 4 
	0 2 0.3333333333333329818 2 0.6666666666666669627 2 1 2 
	-157.1896253770084968 0.2211989136998511185 -62.50000000000000711 1 
	-157.5727531348208004 13.20592891170880989 -62.50000000000000711 0.5 
	-168.6262952954722891 6.381765541543984455 -62.5 1 
	-179.6798374561238347 -0.4423978286208267718 -62.50000000000000711 0.5 
	-168.2431675376600992 -6.602964456464995635 -62.50000000000000711 1 
	-156.8064976191963638 -12.76353108430917871 -62.50000000000001421 0.5 
	-157.1896253770084968 0.2211989136998511185 -62.50000000000000711 1 
	0 
	null_surface 
	null_surface 
	nullbs 
	nullbs 
	I I 
	0 
	0 
	0 
	F 1 F 0 } I I #
edge $-1 $33 0 $29 1 $28 $46 forward 7 unknown #
point $-1 -153.6911479424794607 0.3244250736164104865 -62.50000000000000711 #
vertex $-1 $32 $47 #
intcurve-curve $-1 forward { exactcur full nurbs 2 periodic 4 
	0 2 0.3333333333333329818 2 0.6666666666666669627 2 1 2 
	-157.1896253770084968 0.2211989136998226968 22.50000000000000711 1 
	-156.8064976191963638 -12.76353108430920713 22.49999999999999645 0.5 
	-168.2431675376600992 -6.602964456465024057 22.5 1 
	-179.6798374561238347 -0.4423978286208551935 22.5 0.5 
	-168.6262952954722891 6.381765541543956033 22.50000000000000711 1 
	-157.5727531348208004 13.20592891170878147 22.50000000000000711 0.5 
	-157.1896253770084968 0.2211989136998226968 22.50000000000000711 1 
	0 
	null_surface 
	null_surface 
	nullbs 
	nullbs 
	I I 
	0 
	0 
	0 
	F 1 F 0 } I I #
point $-1 -153.6911479424794607 0.3244250736163820648 22.50000000000000711 #
edge $-1 $37 0 $41 1 $36 $48 forward 7 unknown #
point $-1 -157.1896253770084968 0.2211989136998511185 -62.50000000000000711 #
intcurve-curve $-1 forward { exactcur full nubs 1 open 2 
	0 1 1 1 
	-153.6911479424794607 0.3244250736163820648 22.50000000000000711 
	-153.6911479424794607 0.3244250736164104865 -62.50000000000000711 
	0 
	null_surface 
	null_surface 
	nullbs 
	nullbs 
	I I 
	0 
	0 
	0 
	F 1 F 0 } I I #
point $-1 -157.1896253770084968 0.2211989136998226968 22.50000000000000711 #
intcurve-curve $-1 forward { exactcur full nubs 1 open 2 
	0 1 1 1 
	-157.1896253770084968 0.2211989136998511185 -62.50000000000000711 
	-157.1896253770084968 0.2211989136998226968 22.50000000000000711 
	0 
	null_surface 
	null_surface 
	nullbs 
	nullbs 
	I I 
	0 
	0 
	0 
	F 1 F 0 } I I #
End-of-ACIS-data 