600 0 2 0           
24 FBMach with ACIS - 6.0.3 13 ACIS 6.0.3 NT 24 Wed May 23 19:55:28 2001 
1 9.9999999999999995e-007 1e-010 
body $2 $3 $-1 $-1 #
bdycol-kcp $-1 1 1 $4 #
model_id-kcp-attrib $-1 $-1 $-1 $0 1 990662128 80 1028653057 1 #
lump $-1 $-1 $5 $0 #
body $6 $7 $-1 $8 #
shell $-1 $-1 $-1 $9 $-1 $3 #
model_id-kcp-attrib $-1 $-1 $-1 $4 1 990662128 100 1029963778 1 #
lump $-1 $-1 $10 $4 #
transform $-1 1 0 0 0 1 0 0 0 1 179.99999990346174 -54.485749868539472 74.48569359595885 1 no_rotate no_reflect no_shear #
face $11 $12 $13 $5 $-1 $14 forward single #
shell $-1 $-1 $-1 $15 $-1 $7 #
model_id-kcp-attrib $-1 $-1 $-1 $9 1 990662128 80 1028653057 2 #
face $16 $17 $18 $5 $-1 $19 forward single #
loop $-1 $-1 $20 $9 #
spline-surface $-1 forward { exactsur full nubs 1 1 open open none none 2 2 
	0 1 1 1 
	0 1 1 1 
	64.9999998884485 -53.033062354006177 63.380999333978522 
	64.999999854879974 -62.685070177936041 73.033006771311321 
	64.999999952006448 -43.381054916673378 73.033007157908386 
	64.999999918437922 -53.033062740603242 82.685014595241185 
	0 
	0 
	0 
	0 
	0 
	0 
	0 
	F 1 F 0 F 1 F 0 } I I I I #
face $-1 $21 $22 $10 $-1 $23 forward single #
model_id-kcp-attrib $-1 $-1 $-1 $12 1 990662128 80 1028653057 3 #
face $24 $-1 $25 $5 $-1 $26 forward single #
loop $-1 $-1 $27 $12 #
spline-surface $-1 forward { exactsur full nubs 1 1 open open none none 2 2 
	0 1 1 1 
	0 1 1 1 
	294.99999991843788 -53.033063897828129 82.685014237928499 
	294.99999985487995 -62.685071335160927 73.033006413998635 
	294.99999995200642 -43.381056073898264 73.0330068005957 
	294.99999988844843 -53.033063511231063 63.380998976665836 
	0 
	0 
	0 
	0 
	0 
	0 
	0 
	F 1 F 0 F 1 F 0 } I I I I #
tcoedge-coedge $-1 $20 $20 $28 $29 reversed $13 $30 -1 0 #
face $-1 $31 $32 $10 $-1 $33 reversed single #
loop $-1 $-1 $34 $15 #
plane-surface $-1 0 0 11.104694619293014 0 0 1 1 0 0 forward_v I I I I #
model_id-kcp-attrib $-1 $-1 $-1 $17 1 990662128 80 1028653057 4 #
loop $-1 $-1 $28 $17 #
spline-surface $-1 forward { exactsur full nurbs 2 1 both periodic open none none 4 2 
	0 2 0.33333333333333298 2 0.66666666666666696 2 1 2 
	0 1 3.4048862029131781 1 
	64.999999887458202 -57.62925671706418 77.629200950275489 1 
	64.99999983503649 -65.590098221679597 69.66835912680024 0.5 
	64.999999885224852 -54.715386214732689 66.754489060039404 1 
	64.999999935413229 -43.840674207785753 63.840618993278568 0.5 
	64.999999937646564 -46.754544710117273 74.715330883514667 1 
	64.999999939879913 -49.668415212448821 85.590042773750767 0.5 
	64.999999887458202 -57.62925671706418 77.629200950275489 1 
	294.99999988745822 -57.629257874289067 77.629200592962803 1 
	294.99999983503653 -65.590099378904483 69.668358769487554 0.5 
	294.99999988522484 -54.715387371957576 66.754488702726718 1 
	294.99999993541326 -43.84067536501064 63.840618635965882 0.5 
	294.99999993764652 -46.754545867342159 74.715330526201981 1 
	294.99999993987996 -49.668416369673707 85.590042416438081 0.5 
	294.99999988745822 -57.629257874289067 77.629200592962803 1 
	0 
	0 
	0 
	0 
	0 
	0 
	0 
	F 1 F 0 F 1 F 0 } I I I I #
tcoedge-coedge $-1 $27 $27 $35 $36 reversed $18 $37 -1 0 #
tcoedge-coedge $-1 $38 $39 $20 $29 forward $25 $40 0 1 #
tedge-edge $-1 $41 0 $41 1 $20 $42 forward 7 unknown 0.00034544150106856217 #
pcurve $-1 0 forward { exppc nubs 2 periodic 25 
	-1 2 -0.95833333333333337 2 -0.91666666666666674 2 -0.875 2 -0.83333333333333337 2 
	-0.79166666666666674 2 -0.75 2 -0.70833333333333337 2 -0.66666666666666674 2 -0.625 2 
	-0.58333333333333337 2 -0.54166666666666674 2 -0.5 2 -0.45833333333333337 2 -0.41666666666666669 2 
	-0.375 2 -0.33333333333333337 2 -0.29166666666666669 2 -0.25 2 -0.20833333333333331 2 
	-0.16666666666666663 2 -0.12499999999999997 2 -0.083333333333333315 2 -0.041666666666666657 2 0 2 
	0.97619047286351823 0.49999999999999789 
	0.97619047286351823 0.55498573953865404 
	0.96365914463026747 0.60852448593155761 
	0.94973544659332121 0.66801198192367717 
	0.92124541830234541 0.72205779429072647 
	0.89047618774809312 0.78042727164713654 
	0.84499513850316044 0.82823120030728514 
	0.7976190455396972 0.87802695932826458 
	0.73809523643176012 0.91239304653992392 
	0.67857142732381859 0.94675913375158582 
	0.61175898852919808 0.96289015427950719 
	0.5476190472863609 0.97837593398631206 
	0.48168498181294739 0.9758381306229893 
	0.42063492118941787 0.97348831269398683 
	0.36215538943425141 0.95580284091254797 
	0.30952381085460745 0.93988591630925478 
	0.26190476356825032 0.91239304653992293 
	0.21428571628189297 0.88490017677059107 
	0.17418546593549641 0.84727835498098814 
	0.12962963221727702 0.80547633077031722 
	0.09706959988472591 0.75378033633225872 
	0.06190476496556814 0.69794866233915176 
	0.043245872967654503 0.63465895397221916 
	0.02380952713649015 0.56873217442331625 
	0.02380952713649017 0.49999999999999895 
	0.023809527136490156 0.43126782557668408 
	0.043245872967655856 0.36534104602777839 
	0.061904764965574927 0.30205133766082903 
	0.097069599884723287 0.24621966366773643 
	0.12962963221726986 0.19452366922968473 
	0.17418546593549578 0.15272164501900762 
	0.21428571628189913 0.11509982322939825 
	0.26190476356824821 0.08760695346007083 
	0.30952381085459951 0.060114083690742129 
	0.36215538943424963 0.044197159087447278 
	0.42063492118942025 0.026511687306007389 
	0.48168498181295077 0.02416186937700501 
	0.54761904728635757 0.021624066013682615 
	0.61175898852920008 0.037109845720488657 
	0.6785714273238217 0.053240866248410207 
	0.73809523643176211 0.087606953460071871 
	0.79761904553969665 0.1219730406717302 
	0.84499513850315977 0.17176879969270922 
	0.89047618774808857 0.2195727283528536 
	0.92124541830234363 0.27794220570926959 
	0.94973544659332232 0.33198801807632478 
	0.96365914463026703 0.39147551406843845 
	0.97619047286351823 0.44501426046134479 
	0.97619047286351823 0.49999999999999789 
	0.001 
	spline forward { ref 0 } I I I I 
	} 0 0 #
face $-1 $43 $44 $10 $-1 $45 reversed single #
loop $-1 $-1 $46 $21 #
plane-surface $-1 0 0 -11.104694619293014 0 0 1 1 0 0 forward_v I I I I #
coedge $-1 $47 $48 $49 $50 forward $22 $-1 #
tcoedge-coedge $-1 $39 $38 $27 $36 forward $25 $51 0 1 #
tedge-edge $-1 $52 0 $52 1 $27 $53 forward 7 unknown 0.0003454415010587843 #
pcurve $-1 0 forward { exppc nubs 2 periodic 25 
	-1 2 -0.95833333333333337 2 -0.91666666666666674 2 -0.875 2 -0.83333333333333337 2 
	-0.79166666666666674 2 -0.75 2 -0.70833333333333337 2 -0.66666666666666674 2 -0.625 2 
	-0.58333333333333337 2 -0.54166666666666674 2 -0.5 2 -0.45833333333333337 2 -0.41666666666666669 2 
	-0.375 2 -0.33333333333333337 2 -0.29166666666666669 2 -0.25 2 -0.20833333333333331 2 
	-0.16666666666666663 2 -0.12499999999999997 2 -0.083333333333333315 2 -0.041666666666666657 2 0 2 
	0.50000000000000211 0.02380952713648184 
	0.55498573953865782 0.02380952713648183 
	0.60852448593156161 0.036340855369732625 
	0.66801198192368438 0.050264553406679749 
	0.72205779429073191 0.07875458169765466 
	0.78042727164713854 0.10952381225190502 
	0.82823120030729058 0.15500486149684117 
	0.87802695932827002 0.20238095446030469 
	0.91239304653992814 0.26190476356823988 
	0.94675913375159004 0.32142857267618158 
	0.96289015427951108 0.38824101147080275 
	0.97837593398631695 0.45238095271364609 
	0.9758381306229944 0.51831501818705139 
	0.9734883126939915 0.57936507881058774 
	0.95580284091255419 0.63784461056574948 
	0.93988591630926233 0.69047618914538988 
	0.91239304653992914 0.73809523643174968 
	0.88490017677059862 0.78571428371810459 
	0.84727835498099324 0.82581453406450367 
	0.8054763307703211 0.87037036778272436 
	0.75378033633226493 0.90293040011527392 
	0.69794866233915465 0.93809523503443359 
	0.63465895397222216 0.9567541270323473 
	0.5687321744233258 0.97619047286350968 
	0.500000000000001 0.97619047286350968 
	0.43126782557668769 0.97619047286350968 
	0.36534104602778195 0.95675412703234397 
	0.30205133766083364 0.93809523503442527 
	0.24621966366774006 0.9029304001152767 
	0.19452366922969364 0.87037036778273369 
	0.1527216450190127 0.82581453406450356 
	0.1150998232294049 0.78571428371810192 
	0.087606953460077089 0.7380952364317519 
	0.060114083690743329 0.69047618914539166 
	0.044197159087451046 0.63784461056575137 
	0.02651168730601481 0.57936507881059396 
	0.024161869377011414 0.51831501818704939 
	0.021624066013688333 0.45238095271363699 
	0.037109845720492876 0.38824101147079998 
	0.053240866248414884 0.32142857267617564 
	0.087606953460076034 0.26190476356823578 
	0.12197304067173109 0.20238095446030649 
	0.17176879969271436 0.15500486149683967 
	0.21957272835286165 0.10952381225190837 
	0.27794220570927269 0.078754581697655784 
	0.33198801807632505 0.050264553406678431 
	0.39147551406844205 0.036340855369732909 
	0.4450142604613479 0.02380952713648183 
	0.50000000000000211 0.02380952713648184 
	0.001 
	spline forward { ref 1 } I I I I 
	} 0 0 #
coedge $-1 $35 $28 $39 $54 reversed $25 $55 #
coedge $-1 $28 $35 $38 $54 forward $25 $56 #
pcurve $-1 0 forward { exppc nubs 2 periodic 25 
	0 2 0.041666666666666664 2 0.083333333333333329 2 0.125 2 0.16666666666666666 2 
	0.20833333333333331 2 0.25 2 0.29166666666666663 2 0.33333333333333331 2 0.375 2 
	0.41666666666666663 2 0.45833333333333331 2 0.5 2 0.54166666666666663 2 0.58333333333333326 2 
	0.625 2 0.66666666666666663 2 0.70833333333333326 2 0.75 2 0.79166666666666674 2 
	0.83333333333333337 2 0.875 2 0.91666666666666674 2 0.95833333333333337 2 1 2 
	0 0 
	0.022038567493112997 0 
	0.041666666666666761 0 
	0.063455657492354739 0 
	0.083333333333333273 0 
	0.10478547854788217 0 
	0.12500000000005229 0 
	0.146048109965661 0 
	0.16666666666666649 0 
	0.18728522336767139 0 
	0.20833333333327947 0 
	0.22854785478544914 0 
	0.24999999999999756 0 
	0.26987767584097605 0 
	0.29166666666666402 0 
	0.31129476584021759 0 
	0.33333333333333015 0 
	0.35537190082644349 0 
	0.37499999999999784 0 
	0.39678899082568642 0 
	0.41666666666666552 0 
	0.43811881188121471 0 
	0.458333333333385 0 
	0.47938144329899363 0 
	0.49999999999999906 0 
	0.5206185567010051 0 
	0.54166666666661423 0 
	0.5618811881187844 0 
	0.58333333333333337 0 
	0.60321100917431192 0 
	0.62500000000000011 0 
	0.64462809917355535 0 
	0.66666666666666974 0 
	0.68870523415978191 0 
	0.70833333333333492 0 
	0.73012232415902334 0 
	0.75000000000000222 0 
	0.77145214521455097 0 
	0.79166666666672081 0 
	0.81271477663232927 0 
	0.83333333333333481 0 
	0.85395189003434013 0 
	0.87499999999994849 0 
	0.89521452145211888 0 
	0.91666666666666841 0 
	0.93654434250764673 0 
	0.95833333333333437 0 
	0.9779614325068875 0 
	1 0 
	0.001 
	spline forward { ref 2 } I I I I 
	} 0 0 #
tvertex-vertex $-1 $29 $57 6.3552874323130192e-014 #
intcurve-curve $-1 forward { exactcur full nurbs 2 periodic 4 
	0 2 0.33333333333333298 2 0.66666666666666696 2 1 2 
	64.999999887458202 -57.629256717064237 77.629200950275518 1 
	64.99999983503649 -65.590098221679625 69.668359126800254 0.5 
	64.999999885224852 -54.715386214732774 66.754489060039404 1 
	64.999999935413229 -43.840674207785781 63.840618993278554 0.5 
	64.999999937646564 -46.754544710117358 74.715330883514696 1 
	64.999999939879913 -49.668415212448849 85.590042773750795 0.5 
	64.999999887458202 -57.629256717064237 77.629200950275518 1 
	0 
	null_surface 
	null_surface 
	nullbs 
	nullbs 
	I I 
	0 
	0 
	0 
	F 1 F 0 } I I #
face $-1 $58 $59 $10 $-1 $60 reversed single #
loop $-1 $-1 $61 $31 #
plane-surface $-1 0 -11.104694951866094 0 0 1 0 0 0 1 forward_v I I I I #
coedge $-1 $62 $63 $64 $65 forward $32 $-1 #
coedge $-1 $66 $34 $67 $68 forward $22 $-1 #
coedge $-1 $34 $66 $69 $70 forward $22 $-1 #
coedge $-1 $71 $72 $34 $50 reversed $73 $-1 #
edge $-1 $74 -11.104694951866094 $75 11.104694951866094 $49 $76 forward 7 unknown #
pcurve $-1 0 forward { exppc nubs 2 periodic 25 
	0 2 0.041666666666666664 2 0.083333333333333329 2 0.125 2 0.16666666666666666 2 
	0.20833333333333331 2 0.25 2 0.29166666666666663 2 0.33333333333333331 2 0.375 2 
	0.41666666666666663 2 0.45833333333333331 2 0.5 2 0.54166666666666663 2 0.58333333333333326 2 
	0.625 2 0.66666666666666663 2 0.70833333333333326 2 0.75 2 0.79166666666666674 2 
	0.83333333333333337 2 0.875 2 0.91666666666666674 2 0.95833333333333337 2 1 2 
	1 3.4048862029131781 
	0.97796143250688772 3.4048862029131777 
	0.95833333333333448 3.4048862029131772 
	0.9365443425076464 3.4048862029131772 
	0.91666666666666785 3.4048862029131777 
	0.89521452145211899 3.4048862029131781 
	0.87499999999994882 3.4048862029131781 
	0.85395189003434013 3.4048862029131777 
	0.83333333333333481 3.4048862029131772 
	0.81271477663232972 3.4048862029131781 
	0.79166666666672159 3.4048862029131781 
	0.77145214521455163 3.4048862029131781 
	0.75000000000000289 3.4048862029131781 
	0.73012232415902401 3.4048862029131781 
	0.70833333333333559 3.4048862029131781 
	0.68870523415978224 3.4048862029131781 
	0.66666666666666974 3.4048862029131781 
	0.64462809917355546 3.4048862029131781 
	0.62500000000000033 3.4048862029131781 
	0.60321100917431214 3.4048862029131781 
	0.58333333333333348 3.4048862029131777 
	0.56188118811878418 3.4048862029131777 
	0.54166666666661378 3.4048862029131777 
	0.52061855670100476 3.4048862029131777 
	0.49999999999999906 3.4048862029131781 
	0.47938144329899324 3.4048862029131781 
	0.45833333333338427 3.4048862029131781 
	0.43811881188121471 3.4048862029131772 
	0.4166666666666663 3.4048862029131772 
	0.39678899082568708 3.4048862029131772 
	0.37499999999999839 3.4048862029131781 
	0.35537190082644377 3.4048862029131781 
	0.33333333333333015 3.4048862029131781 
	0.31129476584021765 3.4048862029131781 
	0.29166666666666424 3.4048862029131781 
	0.26987767584097655 3.4048862029131781 
	0.24999999999999825 3.4048862029131781 
	0.2285478547854492 3.4048862029131781 
	0.20833333333327897 3.4048862029131781 
	0.18728522336767117 3.4048862029131781 
	0.16666666666666649 3.4048862029131781 
	0.14604810996566109 3.4048862029131781 
	0.12500000000005254 3.4048862029131781 
	0.10478547854788206 3.4048862029131781 
	0.083333333333332607 3.4048862029131777 
	0.063455657492354461 3.4048862029131772 
	0.041666666666666921 3.4048862029131777 
	0.02203856749311307 3.4048862029131781 
	0 3.4048862029131781 
	0.001 
	spline forward { ref 2 } I I I I 
	} 0 0 #
tvertex-vertex $-1 $36 $77 6.8522259944309062e-014 #
intcurve-curve $-1 forward { exactcur full nurbs 2 periodic 4 
	0 2 0.33333333333333298 2 0.66666666666666696 2 1 2 
	294.99999988745822 -57.629257874289124 77.629200592962832 1 
	294.99999993987996 -49.668416369673729 85.590042416438109 0.5 
	294.99999993764652 -46.754545867342244 74.71533052620201 1 
	294.99999993541326 -43.840675365010668 63.840618635965868 0.5 
	294.99999988522484 -54.715387371957661 66.754488702726718 1 
	294.99999983503653 -65.590099378904512 69.668358769487568 0.5 
	294.99999988745822 -57.629257874289124 77.629200592962832 1 
	0 
	null_surface 
	null_surface 
	nullbs 
	nullbs 
	I I 
	0 
	0 
	0 
	F 1 F 0 } I I #
edge $-1 $52 0 $41 1 $39 $78 forward 7 unknown #
pcurve $-1 0 forward { exppc nubs 2 open 7 
	-1 2 -0.83333333333333337 2 -0.66666666666666674 2 -0.5 2 -0.33333333333333337 2 
	-0.16666666666666663 2 0 2 
	1 0 
	1 0.28374051690943147 
	1 0.56748103381886295 
	1 0.85122155072829453 
	1 1.1349620676377261 
	1 1.4187025845471575 
	1 1.7024431014565891 
	1 1.9861836183660206 
	1 2.2699241352754522 
	1 2.5536646521848838 
	1 2.8374051690943154 
	1 3.1211456860037465 
	1 3.4048862029131781 
	0.001 
	spline forward { ref 2 } I I I I 
	} 0 0 #
pcurve $-1 0 forward { exppc nubs 2 open 7 
	0 2 0.16666666666666666 2 0.33333333333333331 2 0.5 2 0.66666666666666663 2 
	0.83333333333333337 2 1 2 
	0 3.4048862029131781 
	0 3.1211456860037465 
	0 2.8374051690943154 
	0 2.5536646521848843 
	0 2.2699241352754527 
	0 1.9861836183660209 
	0 1.7024431014565891 
	0 1.4187025845471577 
	0 1.1349620676377263 
	0 0.85122155072829464 
	0 0.56748103381886295 
	0 0.28374051690943147 
	0 0 
	0.001 
	spline forward { ref 2 } I I I I 
	} 0 0 #
point $-1 64.999999887458202 -57.629256717064237 77.629200950275518 #
face $-1 $79 $80 $10 $-1 $81 reversed single #
loop $-1 $-1 $82 $43 #
plane-surface $-1 -115.00036612189746 0 0 1 0 0 0 0 -1 forward_v I I I I #
coedge $-1 $83 $69 $84 $85 forward $44 $-1 #
coedge $-1 $86 $46 $83 $87 forward $32 $-1 #
coedge $-1 $46 $86 $88 $89 forward $32 $-1 #
coedge $-1 $72 $71 $46 $65 reversed $73 $-1 #
edge $-1 $90 -11.104694951866094 $91 11.104694951866094 $64 $92 forward 7 unknown #
coedge $-1 $48 $47 $93 $94 forward $22 $-1 #
coedge $-1 $95 $96 $47 $68 reversed $80 $-1 #
edge $-1 $75 -115.00036612189746 $97 115.00036612189746 $67 $98 forward 7 unknown #
coedge $-1 $61 $99 $48 $70 reversed $44 $-1 #
edge $-1 $100 -115.00036612189746 $74 115.00036612189746 $69 $101 forward 7 unknown #
coedge $-1 $64 $49 $99 $102 forward $73 $-1 #
coedge $-1 $49 $64 $95 $103 reversed $73 $-1 #
loop $-1 $-1 $71 $79 #
vertex $-1 $50 $104 #
vertex $-1 $50 $105 #
straight-curve $-1 115.00036612189746 0 11.104694619293014 0 1 0 I I #
point $-1 294.99999988745822 -57.629257874289124 77.629200592962832 #
intcurve-curve $-1 forward { exactcur full nubs 1 open 2 
	0 1 1 1 
	294.99999988745822 -57.629257874289124 77.629200592962832 
	64.999999887458202 -57.629256717064237 77.629200950275518 
	0 
	null_surface 
	null_surface 
	nullbs 
	nullbs 
	I I 
	0 
	0 
	0 
	F 1 F 0 } I I #
face $-1 $-1 $73 $10 $-1 $106 reversed single #
loop $-1 $-1 $95 $58 #
plane-surface $-1 0 11.104694951866094 0 0 -1 0 0 0 -1 forward_v I I I I #
coedge $-1 $107 $93 $96 $108 forward $59 $-1 #
coedge $-1 $99 $61 $62 $87 reversed $44 $-1 #
coedge $-1 $93 $107 $61 $85 reversed $59 $-1 #
edge $-1 $100 -11.104694619293014 $109 11.104694619293014 $84 $110 forward 7 unknown #
coedge $-1 $63 $62 $107 $111 forward $32 $-1 #
edge $-1 $91 -115.00036612189746 $109 115.00036612189746 $83 $112 forward 7 unknown #
coedge $-1 $96 $95 $63 $89 reversed $80 $-1 #
edge $-1 $113 -115.00036612189746 $90 115.00036612189746 $88 $114 forward 7 unknown #
vertex $-1 $65 $115 #
vertex $-1 $102 $116 #
straight-curve $-1 115.00036612189746 0 -11.104694619293014 0 -1 0 I I #
coedge $-1 $82 $84 $66 $94 reversed $59 $-1 #
edge $-1 $97 -11.104694951866094 $100 11.104694951866094 $93 $117 forward 7 unknown #
coedge $-1 $88 $67 $72 $103 forward $80 $-1 #
coedge $-1 $67 $88 $82 $108 reversed $80 $-1 #
vertex $-1 $68 $118 #
straight-curve $-1 0 11.104694951866094 11.104694619293014 -1 0 0 I I #
coedge $-1 $69 $83 $71 $102 reversed $44 $-1 #
vertex $-1 $94 $119 #
straight-curve $-1 0 -11.104694951866094 11.104694619293014 1 0 0 I I #
edge $-1 $74 -11.104694619293014 $91 11.104694619293014 $71 $120 forward 7 unknown #
edge $-1 $75 -11.104694619293014 $90 11.104694619293014 $72 $121 forward 7 unknown #
point $-1 115.00036612189746 -11.104694951866094 11.104694619293014 #
point $-1 115.00036612189746 11.104694951866094 11.104694619293014 #
plane-surface $-1 115.00036612189746 0 0 -1 0 0 0 0 1 forward_v I I I I #
coedge $-1 $84 $82 $86 $111 reversed $59 $-1 #
edge $-1 $97 -11.104694619293014 $113 11.104694619293014 $96 $122 forward 7 unknown #
vertex $-1 $111 $123 #
straight-curve $-1 -115.00036612189746 -11.104694951866094 0 0 0 -1 I I #
edge $-1 $109 -11.104694951866094 $113 11.104694951866094 $107 $124 forward 7 unknown #
straight-curve $-1 0 -11.104694951866094 -11.104694619293014 -1 0 0 I I #
vertex $-1 $89 $125 #
straight-curve $-1 0 11.104694951866094 -11.104694619293014 1 0 0 I I #
point $-1 115.00036612189746 11.104694951866094 -11.104694619293014 #
point $-1 115.00036612189746 -11.104694951866094 -11.104694619293014 #
straight-curve $-1 -115.00036612189746 0 11.104694619293014 0 -1 0 I I #
point $-1 -115.00036612189746 11.104694951866094 11.104694619293014 #
point $-1 -115.00036612189746 -11.104694951866094 11.104694619293014 #
straight-curve $-1 115.00036612189746 -11.104694951866094 0 0 0 -1 I I #
straight-curve $-1 115.00036612189746 11.104694951866094 0 0 0 -1 I I #
straight-curve $-1 -115.00036612189746 11.104694951866094 0 0 0 -1 I I #
point $-1 -115.00036612189746 -11.104694951866094 -11.104694619293014 #
straight-curve $-1 -115.00036612189746 0 -11.104694619293014 0 1 0 I I #
point $-1 -115.00036612189746 11.104694951866094 -11.104694619293014 #
End-of-ACIS-data 