600 0 2 0           
24 FBMach with ACIS - 6.0.3 13 ACIS 6.0.3 NT 24 Wed May 23 19:54:47 2001 
1 9.9999999999999995e-007 1e-010 
body $2 $3 $-1 $-1 #
bdycol-kcp $-1 1 1 $4 #
model_id-kcp-attrib $-1 $-1 $-1 $0 1 990662087 110 124649473 1 #
lump $-1 $-1 $5 $0 #
body $6 $7 $-1 $8 #
shell $-1 $-1 $-1 $9 $-1 $3 #
model_id-kcp-attrib $-1 $-1 $-1 $4 1 990662087 150 127270914 1 #
lump $-1 $-1 $10 $4 #
transform $-1 1 0 0 0 1 0 0 0 1 -282.13233459293514 -7.2829742236990569e-008 -67.672188882626642 1 no_rotate no_reflect no_shear #
face $11 $12 $13 $5 $-1 $14 forward single #
shell $-1 $-1 $-1 $15 $-1 $7 #
model_id-kcp-attrib $-1 $-1 $-1 $9 1 990662087 110 124649473 2 #
face $16 $17 $18 $5 $-1 $19 forward single #
loop $-1 $-1 $20 $9 #
spline-surface $-1 forward { exactsur full nubs 1 1 open open none none 2 2 
	0 1 1 1 
	0 1 1 1 
	-336.09998829983914 -5.5000012142597114 -100.34166147903497 
	-340.74878917898661 -5.5000010356193627 -90.372275821631746 
	-336.09998829320267 5.4999987857402957 -100.34166167304821 
	-340.74878917235026 5.4999989643806302 -90.372276015644957 
	0 
	0 
	0 
	0 
	0 
	0 
	0 
	F 1 F 0 F 1 F 0 } I I I I #
face $-1 $21 $22 $10 $-1 $23 forward single #
model_id-kcp-attrib $-1 $-1 $-1 $12 1 990662087 110 124649473 3 #
face $24 $25 $26 $5 $-1 $27 forward single #
loop $-1 $-1 $28 $12 #
spline-surface $-1 forward { exactsur full nurbs 2 1 both periodic open none none 4 2 
	0 2 0.33333333333333298 2 0.66666666666666696 2 1 2 
	0 1 1.99217906014532 1 
	-246.71952454707235 -3.2873169431013594e-007 -47.077398691124309 1 
	-246.71952454184756 8.6602537091126877 -47.077398843870121 0.5 
	-243.54988758140485 4.3301265683902415 -53.874707170272181 1 
	-240.3802506209621 -5.7233219763475063e-007 -60.672015496674241 0.5 
	-243.54988758662958 -4.3301274694541618 -53.87470701752644 1 
	-246.7195245522972 -8.6602543665761047 -47.077398538378496 0.5 
	-246.71952454707235 -3.2873169431013594e-007 -47.077398691124309 1 
	-340.53748004479809 -1.0437393811457696e-006 -90.825429812156642 1 
	-340.53748003957327 8.660252994105015 -90.82542996490244 0.5 
	-337.36784307913058 4.3301258533825759 -97.622738291304501 1 
	-334.19820611868778 -1.2873398489432475e-006 -104.42004661770656 0.5 
	-337.36784308435534 -4.330128184461806 -97.622738138558759 1 
	-340.53748005002291 -8.6602550815837489 -90.825429659410815 0.5 
	-340.53748004479809 -1.0437393811457696e-006 -90.825429812156642 1 
	0 
	0 
	0 
	0 
	0 
	0 
	0 
	F 1 F 0 F 1 F 0 } I I I I #
tcoedge-coedge $-1 $20 $20 $29 $30 forward $13 $31 0 1 #
face $-1 $32 $33 $10 $-1 $34 reversed single #
loop $-1 $-1 $35 $15 #
plane-surface $-1 0 0 36.748123459311529 0 0 1 1 0 0 forward_v I I I I #
model_id-kcp-attrib $-1 $-1 $-1 $17 1 990662087 110 124649473 4 #
face $36 $37 $38 $5 $-1 $39 forward single #
loop $-1 $-1 $40 $17 #
spline-surface $-1 forward { exactsur full nurbs 2 1 both periodic open none none 4 2 
	0 2 2.9599807670722411 2 5.9199615341444813 2 8.8799423012167225 2 
	0 1 1 1 
	-249.0565842345045 -9.3551257407398225e-008 -33.823274574427025 1 
	-249.0565842156953 31.176914442688549 -33.823275124311856 0.5 
	-237.64589115810151 15.588456736087757 -58.29358509935917 1 
	-226.23519810050769 -9.7051299263739566e-007 -82.763895074406548 0.5 
	-237.64589117691077 -15.58845780015205 -58.293584549474296 1 
	-249.05658425331384 -31.176914629791089 -33.823274024542108 0.5 
	-249.0565842345045 -9.3551257407398225e-008 -33.823274574427025 1 
	-246.71952454707235 -3.2873169431013594e-007 -47.077398691124309 1 
	-246.71952454184756 8.6602537091126877 -47.077398843870121 0.5 
	-243.54988758140485 4.3301265683902415 -53.874707170272181 1 
	-240.3802506209621 -5.7233219763475063e-007 -60.672015496674241 0.5 
	-243.54988758662958 -4.3301274694541618 -53.87470701752644 1 
	-246.7195245522972 -8.6602543665761047 -47.077398538378496 0.5 
	-246.71952454707235 -3.2873169431013594e-007 -47.077398691124309 1 
	0 
	0 
	0 
	0 
	0 
	0 
	0 
	F 1 F 0 F 1 F 0 } I I I I #
coedge $-1 $41 $29 $42 $43 forward $18 $44 #
tcoedge-coedge $-1 $28 $42 $20 $30 reversed $18 $45 -1 0 #
tedge-edge $-1 $46 0 $46 1 $20 $47 forward 7 unknown 0.00026572423160884078 #
pcurve $-1 0 forward { exppc nubs 2 periodic 25 
	0 2 0.041666666666666664 2 0.083333333333333329 2 0.125 2 0.16666666666666666 2 
	0.20833333333333331 2 0.25 2 0.29166666666666663 2 0.33333333333333331 2 0.375 2 
	0.41666666666666663 2 0.45833333333333331 2 0.5 2 0.54166666666666663 2 0.58333333333333326 2 
	0.625 2 0.66666666666666663 2 0.70833333333333326 2 0.75 2 0.79166666666666674 2 
	0.83333333333333337 2 0.875 2 0.91666666666666674 2 0.95833333333333337 2 1 2 
	0.95454545454545958 0.5 
	0.95454545454545958 0.55248638810811512 
	0.94258373205741408 0.60359155547660748 
	0.9292929292929244 0.66037507477490887 
	0.90209790209790386 0.71196425966751997 
	0.87272727272726991 0.76768057935156198 
	0.82931354359926157 0.81331160248231094 
	0.78409090909091428 0.86084391824351325 
	0.72727272727272585 0.89364791081110861 
	0.67045454545454153 0.92645190337870154 
	0.6066790352504623 0.94184969580838718 
	0.54545454545454475 0.95663157654088571 
	0.48251748251748472 0.95420912785897127 
	0.42424242424242997 0.95196611982016166 
	0.36842105263158353 0.93508453300175132 
	0.31818181818180624 0.91989110486517733 
	0.27272727272726899 0.89364791081110806 
	0.22727272727272282 0.86740471675703357 
	0.18899521531100097 0.83149297752514362 
	0.1464646464646322 0.79159104504525546 
	0.1153846153846074 0.74224486819145119 
	0.081818181818175434 0.68895099718933439 
	0.064007421150270874 0.62853809332607613 
	0.045454545454535353 0.56560798513517674 
	0.04545454545453536 0.50000000000000011 
	0.045454545454535353 0.43439201486481038 
	0.064007421150266974 0.3714619066739242 
	0.081818181818163027 0.31104900281069481 
	0.11538461538461245 0.25775513180854931 
	0.14646464646464394 0.20840895495473344 
	0.18899521531100028 0.16850702247485658 
	0.22727272727272013 0.13259528324296815 
	0.27272727272726899 0.10635208918889207 
	0.31818181818182401 0.080108895134812438 
	0.36842105263156677 0.06491546699824885 
	0.42424242424241199 0.048033880179838881 
	0.4825174825174795 0.045790872141028782 
	0.54545454545454597 0.043368423459114083 
	0.60667903525046607 0.058150304191612864 
	0.67045454545453809 0.073548096621296341 
	0.72727272727272585 0.10635208918889136 
	0.78409090909091372 0.13915608175648636 
	0.82931354359926124 0.18668839751768895 
	0.8727272727272819 0.23231942064845074 
	0.90209790209790919 0.28803574033248003 
	0.92929292929293084 0.33962492522509274 
	0.94258373205742063 0.39640844452339252 
	0.95454545454545947 0.44751361189185351 
	0.95454545454545958 0.5 
	0.001 
	spline forward { ref 0 } I I I I 
	} 0 0 #
face $-1 $48 $49 $10 $-1 $50 reversed single #
loop $-1 $-1 $51 $21 #
plane-surface $-1 0 0 -36.748123459311529 0 0 1 1 0 0 forward_v I I I I #
coedge $-1 $52 $53 $54 $55 forward $22 $-1 #
model_id-kcp-attrib $-1 $-1 $-1 $25 1 990662087 110 124649473 5 #
face $56 $-1 $57 $5 $-1 $58 forward single #
loop $-1 $-1 $59 $25 #
spline-surface $-1 forward { exactsur full nurbs 2 1 both periodic open none none 4 2 
	0 2 20.784609690826528 2 41.569219381653056 2 62.353829072479584 2 
	0 1 1 1 
	-246.33766087339455 -7.2829728026135854e-008 -32.555419789204983 1 
	-246.33766085458532 31.176914463410078 -32.555420339089814 0.5 
	-234.92696779699153 15.5884567568093 -57.025730314137142 1 
	-223.51627473939769 -9.49791477466988e-007 -81.496040289184492 0.5 
	-234.92696781580082 -15.58845777943052 -57.02572976425224 1 
	-246.33766089220387 -31.176914609069559 -32.555419239320052 0.5 
	-246.33766087339455 -7.2829728026135854e-008 -32.555419789204983 1 
	-249.0565842345045 -9.3551257407398225e-008 -33.823274574427025 1 
	-249.0565842156953 31.176914442688549 -33.823275124311856 0.5 
	-237.64589115810151 15.588456736087757 -58.29358509935917 1 
	-226.23519810050769 -9.7051299263739566e-007 -82.763895074406548 0.5 
	-237.64589117691077 -15.58845780015205 -58.293584549474296 1 
	-249.05658425331384 -31.176914629791089 -33.823274024542108 0.5 
	-249.0565842345045 -9.3551257407398225e-008 -33.823274574427025 1 
	0 
	0 
	0 
	0 
	0 
	0 
	0 
	F 1 F 0 F 1 F 0 } I I I I #
coedge $-1 $60 $61 $62 $63 forward $26 $64 #
tcoedge-coedge $-1 $42 $28 $61 $65 forward $18 $66 0 1 #
coedge $-1 $29 $41 $28 $43 reversed $18 $67 #
edge $-1 $46 0 $68 1 $28 $69 forward 7 unknown #
pcurve $-1 0 forward { exppc nubs 2 open 7 
	0 2 0.16666666666666666 2 0.33333333333333331 2 0.5 2 0.66666666666666663 2 
	0.83333333333333337 2 1 2 
	0 1.99217906014532 
	0 1.8261641384665437 
	0 1.6601492167877674 
	0 1.4941342951089907 
	0 1.3281193734302139 
	0 1.162104451751437 
	0 0.99608953007265999 
	0 0.83007460839388336 
	0 0.66405968671510673 
	0 0.49804476503633005 
	0 0.33202984335755337 
	0 0.16601492167877668 
	0 0 
	0.001 
	spline forward { ref 1 } I I I I 
	} 0 0 #
pcurve $-1 0 forward { exppc nubs 2 periodic 25 
	-1 2 -0.95833333333333337 2 -0.91666666666666674 2 -0.875 2 -0.83333333333333337 2 
	-0.79166666666666674 2 -0.75 2 -0.70833333333333337 2 -0.66666666666666674 2 -0.625 2 
	-0.58333333333333337 2 -0.54166666666666674 2 -0.5 2 -0.45833333333333337 2 -0.41666666666666669 2 
	-0.375 2 -0.33333333333333337 2 -0.29166666666666669 2 -0.25 2 -0.20833333333333331 2 
	-0.16666666666666663 2 -0.12499999999999997 2 -0.083333333333333315 2 -0.041666666666666657 2 0 2 
	1 1.99217906014532 
	0.97796143250688705 1.99217906014532 
	0.95833333333333326 1.99217906014532 
	0.9365443425076454 1.9921790601453204 
	0.91666666666666685 1.99217906014532 
	0.89521452145211766 1.99217906014532 
	0.87499999999994726 1.99217906014532 
	0.8539518900343388 1.99217906014532 
	0.83333333333333348 1.99217906014532 
	0.81271477663232894 1.99217906014532 
	0.79166666666672147 1.99217906014532 
	0.77145214521454974 1.9921790601453198 
	0.74999999999999889 1.99217906014532 
	0.73012232415902245 1.99217906014532 
	0.70833333333333692 1.99217906014532 
	0.68870523415978169 1.99217906014532 
	0.66666666666666696 1.99217906014532 
	0.6446280991735529 1.99217906014532 
	0.62499999999999822 1.99217906014532 
	0.60321100917431081 1.9921790601453195 
	0.58333333333333304 1.99217906014532 
	0.56188118811878407 1.9921790601453193 
	0.54166666666661389 1.9921790601453184 
	0.52061855670100532 1.9921790601453191 
	0.5 1.99217906014532 
	0.47938144329899468 1.9921790601453195 
	0.45833333333338616 1.9921790601453189 
	0.4381188118812161 1.9921790601453191 
	0.41666666666666718 1.9921790601453195 
	0.39678899082568914 1.9921790601453191 
	0.37500000000000178 1.9921790601453186 
	0.3553719008264471 1.9921790601453195 
	0.33333333333333298 1.99217906014532 
	0.31129476584022187 1.99217906014532 
	0.2916666666666699 1.9921790601453195 
	0.26987767584097955 1.99217906014532 
	0.24999999999999906 1.99217906014532 
	0.22854785478545062 1.9921790601453198 
	0.20833333333328105 1.99217906014532 
	0.1872852233676722 1.9921790601453198 
	0.16666666666666649 1.9921790601453195 
	0.1460481099656612 1.9921790601453195 
	0.12500000000005274 1.99217906014532 
	0.1047854785478825 1.9921790601453195 
	0.083333333333333454 1.9921790601453195 
	0.0634556574923551 1.9921790601453193 
	0.041666666666667219 1.9921790601453186 
	0.022038567493113254 1.9921790601453195 
	0 1.99217906014532 
	0.001 
	spline forward { ref 1 } I I I I 
	} 0 0 #
tvertex-vertex $-1 $30 $70 5.8596415480775727e-014 #
intcurve-curve $-1 forward { exactcur full nurbs 2 periodic 4 
	0 2 0.33333333333333298 2 0.66666666666666696 2 1 2 
	-340.53748004479809 -1.0437393811457696e-006 -90.825429812156642 1 
	-340.53748003957327 8.6602529941050435 -90.825429964902412 0.5 
	-337.36784307913058 4.3301258533825759 -97.622738291304501 1 
	-334.19820611868778 -1.2873398489432475e-006 -104.42004661770656 0.5 
	-337.36784308435534 -4.330128184461806 -97.622738138558759 1 
	-340.53748005002291 -8.6602550815837489 -90.825429659410815 0.5 
	-340.53748004479809 -1.0437393811457696e-006 -90.825429812156642 1 
	0 
	null_surface 
	null_surface 
	nullbs 
	nullbs 
	I I 
	0 
	0 
	0 
	F 1 F 0 } I I #
face $-1 $71 $72 $10 $-1 $73 reversed single #
loop $-1 $-1 $74 $32 #
plane-surface $-1 0 -31.177309268753799 0 0 1 0 0 0 1 forward_v I I I I #
coedge $-1 $75 $76 $77 $78 forward $33 $-1 #
coedge $-1 $79 $35 $80 $81 forward $22 $-1 #
coedge $-1 $35 $79 $82 $83 forward $22 $-1 #
coedge $-1 $84 $85 $35 $55 reversed $86 $-1 #
edge $-1 $87 -31.177309268753799 $88 31.177309268753799 $54 $89 forward 7 unknown #
model_id-kcp-attrib $-1 $-1 $-1 $37 1 990662087 110 124649473 6 #
loop $-1 $-1 $90 $37 #
spline-surface $-1 forward { exactsur full nubs 1 1 open open none none 2 2 
	0 1 1 1 
	0 1 1 1 
	-230.36269056765119 19.799999313297072 -66.813854488414506 
	-247.0983737325823 19.799999956402324 -30.924066121762742 
	-230.36269059154225 -19.800000686702987 -66.813853789966885 
	-247.09837375647336 -19.80000004359772 -30.924065423315106 
	0 
	0 
	0 
	0 
	0 
	0 
	0 
	F 1 F 0 F 1 F 0 } I I I I #
coedge $-1 $91 $92 $93 $94 forward $38 $95 #
tcoedge-coedge $-1 $62 $40 $92 $96 forward $26 $97 0 8.8799423012167225 #
tcoedge-coedge $-1 $40 $62 $41 $65 reversed $26 $98 -1 0 #
coedge $-1 $61 $60 $40 $63 reversed $26 $99 #
edge $-1 $68 0 $100 1 $40 $101 forward 7 unknown #
pcurve $-1 0 forward { exppc nubs 2 open 7 
	0 2 0.16666666666666666 2 0.33333333333333331 2 0.5 2 0.66666666666666663 2 
	0.83333333333333337 2 1 2 
	0 1 
	0 0.91666666666666563 
	0 0.83333333333333137 
	0 0.74999999999999911 
	0 0.66666666666666707 
	0 0.58333333333333459 
	0 0.50000000000000222 
	0 0.4166666666666678 
	0 0.33333333333333337 
	0 0.25000000000000111 
	0 0.16666666666666885 
	0 0.083333333333334439 
	0 0 
	0.001 
	spline forward { ref 2 } I I I I 
	} 0 0 #
tedge-edge $-1 $68 0 $68 1 $41 $102 forward 7 unknown 9.9883633677579857e-012 #
pcurve $-1 0 forward { exppc nubs 2 periodic 25 
	0 2 0.041666666666666664 2 0.083333333333333329 2 0.125 2 0.16666666666666666 2 
	0.20833333333333331 2 0.25 2 0.29166666666666663 2 0.33333333333333331 2 0.375 2 
	0.41666666666666663 2 0.45833333333333331 2 0.5 2 0.54166666666666663 2 0.58333333333333326 2 
	0.625 2 0.66666666666666663 2 0.70833333333333326 2 0.75 2 0.79166666666666674 2 
	0.83333333333333337 2 0.875 2 0.91666666666666674 2 0.95833333333333337 2 1 2 
	0 0 
	0.022038567493113254 0 
	0.041666666666667233 0 
	0.0634556574923551 1.4142946829703746e-016 
	0.083333333333333495 2.7045284288380851e-016 
	0.10478547854788267 1.3120979506243783e-016 
	0.12500000000005285 0 
	0.14604810996566125 0 
	0.16666666666666649 0 
	0.18728522336767189 2.6807231114374794e-016 
	0.20833333333328041 5.417294621029761e-016 
	0.22854785478544959 5.442748377105156e-016 
	0.24999999999999742 5.4697605264096598e-016 
	0.26987767584097544 2.8603334862876108e-016 
	0.29166666666666274 0 
	0.31129476584021798 2.5766640513965753e-016 
	0.33333333333333298 5.4697605301576868e-016 
	0.35537190082644554 2.5766640513966059e-016 
	0.374999999999999 0 
	0.39678899082568841 0 
	0.41666666666666813 0 
	0.43811881188121654 0 
	0.45833333333338611 0 
	0.47938144329899457 0 
	0.5 0 
	0.52061855670100554 0 
	0.54166666666661434 0 
	0.56188118811878418 0 
	0.5833333333333327 0 
	0.60321100917431081 0 
	0.62499999999999822 0 
	0.6446280991735529 2.5766640513965866e-016 
	0.66666666666666696 5.4697605301576868e-016 
	0.6887052341597788 2.5766640514964273e-016 
	0.70833333333333137 1.8876658506265595e-026 
	0.7301223241590209 9.0053783699615594e-027 
	0.750000000000001 0 
	0.77145214521455019 1.4092061592141827e-016 
	0.79166666666672059 2.7371119630890177e-016 
	0.81271477663232861 1.3544471569925405e-016 
	0.83333333333333348 0 
	0.8539518900343388 0 
	0.87499999999994726 0 
	0.89521452145211766 4.7839337074045198e-032 
	0.91666666666666685 9.8607613152626476e-032 
	0.9365443425076454 5.1565449079813842e-032 
	0.95833333333333326 0 
	0.97796143250688705 0 
	1 0 
	0.001 
	spline forward { ref 1 } I I I I 
	} 0 0 #
pcurve $-1 0 forward { exppc nubs 2 open 7 
	-1 2 -0.83333333333333337 2 -0.66666666666666674 2 -0.5 2 -0.33333333333333337 2 
	-0.16666666666666663 2 0 2 
	1 0 
	1 0.16601492167877668 
	1 0.33202984335755337 
	1 0.49804476503633005 
	1 0.66405968671510673 
	1 0.83007460839388336 
	1 0.99608953007265999 
	1 1.1621044517514367 
	1 1.3281193734302135 
	1 1.49413429510899 
	1 1.6601492167877667 
	1 1.8261641384665435 
	1 1.99217906014532 
	0.001 
	spline forward { ref 1 } I I I I 
	} 0 0 #
tvertex-vertex $-1 $65 $103 0 #
intcurve-curve $-1 forward { exactcur full nubs 1 open 2 
	0 1 1 1 
	-340.53748004479809 -1.0437393811457696e-006 -90.825429812156642 
	-246.71952454707235 -3.2873169431013594e-007 -47.077398691124309 
	0 
	null_surface 
	null_surface 
	nullbs 
	nullbs 
	I I 
	0 
	0 
	0 
	F 1 F 0 } I I #
point $-1 -340.53748004479809 -1.0437393811457696e-006 -90.825429812156642 #
face $-1 $104 $105 $10 $-1 $106 reversed single #
loop $-1 $-1 $107 $48 #
plane-surface $-1 -58.616454586051461 0 0 1 0 0 0 0 -1 forward_v I I I I #
coedge $-1 $108 $82 $109 $110 forward $49 $-1 #
coedge $-1 $111 $51 $108 $112 forward $33 $-1 #
coedge $-1 $51 $111 $113 $114 forward $33 $-1 #
coedge $-1 $85 $84 $51 $78 reversed $86 $-1 #
edge $-1 $115 -31.177309268753799 $116 31.177309268753799 $77 $117 forward 7 unknown #
coedge $-1 $53 $52 $118 $119 forward $22 $-1 #
coedge $-1 $120 $121 $52 $81 reversed $105 $-1 #
edge $-1 $88 -58.616454586051461 $122 58.616454586051461 $80 $123 forward 7 unknown #
coedge $-1 $74 $124 $53 $83 reversed $49 $-1 #
edge $-1 $125 -58.616454586051461 $87 58.616454586051461 $82 $126 forward 7 unknown #
coedge $-1 $77 $54 $124 $127 forward $86 $-1 #
coedge $-1 $54 $77 $120 $128 reversed $86 $-1 #
loop $-1 $-1 $84 $104 #
vertex $-1 $55 $129 #
vertex $-1 $55 $130 #
straight-curve $-1 58.616454586051461 0 36.748123459311529 0 1 0 I I #
tcoedge-coedge $-1 $90 $90 $91 $131 reversed $57 $132 -62.353829072479584 0 #
tcoedge-coedge $-1 $93 $59 $90 $131 forward $38 $133 0 62.353829072479584 #
tcoedge-coedge $-1 $59 $93 $60 $96 reversed $38 $134 -8.8799423012167225 0 #
coedge $-1 $92 $91 $59 $94 reversed $38 $135 #
edge $-1 $100 0 $136 1 $59 $137 forward 7 unknown #
pcurve $-1 0 forward { exppc nubs 2 open 7 
	0 2 0.16666666666666666 2 0.33333333333333331 2 0.5 2 0.66666666666666663 2 
	0.83333333333333337 2 1 2 
	0 1 
	0 0.91666666666666674 
	0 0.83333333333333348 
	0 0.75000000000000244 
	0 0.66666666666667151 
	0 0.5833333333333357 
	0 0.5 
	0 0.41666666666666663 
	0 0.33333333333333331 
	0 0.25 
	0 0.16666666666666666 
	0 0.083333333333333329 
	0 0 
	0.001 
	spline forward { ref 4 } I I I I 
	} 0 0 #
tedge-edge $-1 $100 0 $100 8.8799423012167225 $60 $138 forward 7 unknown 3.5883225314695736e-011 #
pcurve $-1 0 forward { exppc nubs 2 periodic 43 
	0 2 0.36999759588403008 2 0.55499639382604515 2 0.73999519176806017 2 0.92499398971007518 2 
	1.1099927876520903 2 1.2949915855941052 2 1.4799903835361203 2 1.6649891814781355 2 1.8499879794201504 2 
	2.0349867773621657 2 2.2199855753041806 2 2.4049843732461955 2 2.5899831711882104 2 2.9599807670722407 2 
	3.3299783629562709 2 3.5149771608982858 2 3.6999759588403007 2 3.8849747567823161 2 4.0699735547243314 2 
	4.2549723526663463 2 4.4399711506083612 2 4.6249699485503761 2 4.809968746492391 2 4.9949675444344059 2 
	5.1799663423764208 2 5.3649651403184357 2 5.5499639382604506 2 5.9199615341444813 2 6.289959130028512 2 
	6.4749579279705269 2 6.6599567259125418 2 6.8449555238545567 2 7.0299543217965716 2 7.2149531197385866 2 
	7.3999519176806023 2 7.5849507156226181 2 7.769949513564633 2 7.9549483115066479 2 8.1399471094486628 2 
	8.3249459073906777 2 8.5099447053326926 2 8.8799423012167225 2 
	0 0 
	0.1957012077403138 2.291180733213287e-015 
	0.36999759588403131 4.3317635737313769e-015 
	0.46478349684764708 7.9580631450864314e-013 
	0.5549963938176925 1.5490956897429623e-012 
	0.64945460359485474 7.637963726842207e-013 
	0.73999519176806716 1.1067073386078335e-014 
	0.8340777100362593 7.189917437606163e-014 
	0.92499398970891245 1.3068404119812894e-013 
	1.0186583684935639 1.7993049836687485e-012 
	1.1099927876076043 3.4264179425073753e-012 
	1.2032055495754328 1.6999965627287002e-012 
	1.294991585594097 0 
	1.3877312427442541 0 
	1.4799903835361206 0 
	1.5722495243279833 0 
	1.6649891814781368 0 
	1.7567752174968063 1.6991722922350179e-012 
	1.8499879794646408 3.4247565890252896e-012 
	1.9413223985786767 1.7992788574218204e-012 
	2.0349867773633243 1.3233485716683427e-013 
	2.1259030570359769 7.3287306301668275e-014 
	2.2199855753041686 1.2183373068080485e-014 
	2.3105261634773839 7.6291240457436251e-013 
	2.4049843732545497 1.5461249037925515e-012 
	2.4951972702245899 7.9354782629546505e-013 
	2.5899831711881998 2.8216803563575086e-015 
	2.7642795593319267 1.4924590314618202e-015 
	2.9599807670722509 0 
	3.1556819748125573 1.2050610562593154e-015 
	3.3299783629562678 2.2783185594902734e-015 
	3.4247642639198839 7.9412668369423124e-013 
	3.5149771608899303 1.547771838232776e-012 
	3.6094353706670947 7.6358156846894253e-013 
	3.6999759588403087 1.1915319112459536e-014 
	3.7940584771085026 7.0961813435968274e-014 
	3.8849747567811574 1.2802116612360519e-013 
	3.9786391355658051 1.8008626813125394e-012 
	4.0699735546798408 3.4320912234984177e-012 
	4.163186316647673 1.7036615327079411e-012 
	4.2549723526663392 1.6873984217247292e-015 
	4.3477120098164956 8.4150778434064357e-016 
	4.4399711506083612 0 
	4.5322302914002268 2.030956207416113e-015 
	4.6249699485503832 4.0724903117458596e-015 
	4.7167559845690494 1.7031880118032423e-012 
	4.8099687465368808 3.4287146554031964e-012 
	4.9013031656509183 1.8000660536403283e-012 
	4.9949675444355659 1.2987029368108642e-013 
	5.0858838241082207 7.2100403167333415e-014 
	5.1799663423764137 1.2318625919286958e-014 
	5.2705069305496259 7.6208008425272527e-013 
	5.3649651403267882 1.544283144151162e-012 
	5.4551780372968341 7.9140962594652075e-013 
	5.5499639382604506 3.7201235154640233e-016 
	5.7242603264041669 1.9676686362784929e-016 
	5.9199615341444813 2.7117093616972281e-031 
	6.1156627418848011 1.5662901376639914e-015 
	6.2899591300285227 2.9612672915209852e-015 
	6.3847450309921321 7.9338509327308354e-013 
	6.4749579279621718 1.5456744364246086e-012 
	6.5694161377393367 7.6267050176050187e-013 
	6.6599567259125525 1.2141384665503244e-014 
	6.754039244180742 7.3718100129469254e-014 
	6.8449555238533932 1.3322252228456836e-013 
	6.9386199026380417 1.799725550218934e-012 
	7.0299543217520792 3.4247732789624823e-012 
	7.1231670837199115 1.6994416979544771e-012 
	7.2149531197385794 5.1825340300839942e-016 
	7.307692776888735 8.3823508472342131e-016 
	7.3999519176805997 1.1565588302637543e-015 
	7.4922110584724662 1.0386620975835189e-015 
	7.5849507156226235 9.201513194205741e-016 
	7.6767367516412897 1.6992078474201222e-012 
	7.769949513609121 3.4238937978770846e-012 
	7.8612839327231594 1.7972382138256723e-012 
	7.9549483115078115 1.2908631386642573e-013 
	8.0458645911804627 7.46357613389343e-014 
	8.1399471094486522 1.828892091249074e-014 
	8.2304876976218679 7.6645680067986019e-013 
	8.324945907399032 1.5469973290934986e-012 
	8.4151588043690779 7.9261885625341016e-013 
	8.5099447053326944 0 
	8.6842410934764089 0 
	8.8799423012167225 0 
	0.001 
	spline forward { ref 2 } I I I I 
	} 0 0 #
pcurve $-1 0 forward { exppc nubs 2 periodic 25 
	-1 2 -0.95833333333333337 2 -0.91666666666666674 2 -0.875 2 -0.83333333333333337 2 
	-0.79166666666666674 2 -0.75 2 -0.70833333333333337 2 -0.66666666666666674 2 -0.625 2 
	-0.58333333333333337 2 -0.54166666666666674 2 -0.5 2 -0.45833333333333337 2 -0.41666666666666669 2 
	-0.375 2 -0.33333333333333337 2 -0.29166666666666669 2 -0.25 2 -0.20833333333333331 2 
	-0.16666666666666663 2 -0.12499999999999997 2 -0.083333333333333315 2 -0.041666666666666657 2 0 2 
	8.8799423012167225 1 
	8.6842410934764089 1 
	8.5099447053326926 1 
	8.3164597239988414 0.99999999999999978 
	8.1399471094486628 0.99999999999999989 
	7.9494532977061212 1 
	7.7699495135641214 1 
	7.5830435115198744 1 
	7.3999519176806015 1 
	7.2168603238413107 1 
	7.029954321797045 1 
	6.8504505376550631 1 
	6.6599567259125401 0.99999999999999989 
	6.4834441113623704 1 
	6.2899591300285325 1 
	6.1156627418848188 1 
	5.9199615341445107 1 
	5.7242603264041865 1 
	5.5499639382604569 1 
	5.3564789569266047 1 
	5.1799663423764235 1 
	4.9894725306338845 1.0000000000000002 
	4.8099687464918857 1 
	4.6230627444476351 0.99999999999999734 
	4.4399711506083612 0.99999999999999456 
	4.2568795567690891 0.99999999999999734 
	4.0699735547248403 1 
	3.8904697705828442 0.99999999999999867 
	3.6999759588403087 0.99999999999999734 
	3.5234633442901298 0.99999999999999778 
	3.3299783629562785 0.99999999999999833 
	3.1556819748125586 0.99999999999999911 
	2.9599807670722411 1 
	2.7642795593319578 0.99999999999999767 
	2.5899831711882668 0.99999999999999567 
	2.3964981898543742 0.999999999999998 
	2.2199855753041593 1 
	2.0294917635616594 0.99999999999999978 
	1.8499879794196969 1 
	1.6630819773754211 1 
	1.4799903835361206 1 
	1.2968987896968276 0.99999999999999978 
	1.1099927876525595 1 
	0.93048900351058006 1 
	0.7399951917680615 1 
	0.56348257721788408 1 
	0.36999759588403525 1 
	0.19570120774031624 1 
	0 1 
	0.001 
	spline forward { ref 2 } I I I I 
	} 0 0 #
pcurve $-1 0 forward { exppc nubs 2 open 7 
	-1 2 -0.83333333333333337 2 -0.66666666666666674 2 -0.5 2 -0.33333333333333337 2 
	-0.16666666666666663 2 0 2 
	8.8799423012167225 0 
	8.8799423012167225 0.083333333333334439 
	8.8799423012167225 0.16666666666666885 
	8.8799423012167225 0.25000000000000111 
	8.8799423012167225 0.33333333333333337 
	8.8799423012167225 0.4166666666666678 
	8.8799423012167225 0.50000000000000222 
	8.8799423012167225 0.58333333333333459 
	8.8799423012167225 0.66666666666666674 
	8.8799423012167225 0.74999999999999889 
	8.8799423012167225 0.83333333333333137 
	8.8799423012167225 0.91666666666666563 
	8.8799423012167225 1 
	0.001 
	spline forward { ref 2 } I I I I 
	} 0 0 #
tvertex-vertex $-1 $96 $139 0 #
intcurve-curve $-1 forward { exactcur full nubs 1 open 2 
	0 1 1 1 
	-246.71952454707235 -3.2873169431013594e-007 -47.077398691124309 
	-249.0565842345045 -9.3551257407398225e-008 -33.823274574427025 
	0 
	null_surface 
	null_surface 
	nullbs 
	nullbs 
	I I 
	0 
	0 
	0 
	F 1 F 0 } I I #
intcurve-curve $-1 forward { exactcur full nurbs 2 periodic 4 
	0 2 0.33333333333333298 2 0.66666666666666696 2 1 2 
	-246.71952454707235 -3.2873169431013594e-007 -47.077398691124309 1 
	-246.71952454184756 8.6602537091126877 -47.077398843870128 0.5 
	-243.54988758140485 4.3301265683902415 -53.874707170272181 1 
	-240.3802506209621 -5.7233219763475063e-007 -60.672015496674241 0.5 
	-243.54988758662958 -4.3301274694541618 -53.87470701752644 1 
	-246.71952455229717 -8.6602543665761047 -47.077398538378489 0.5 
	-246.71952454707235 -3.2873169431013594e-007 -47.077398691124309 1 
	0 
	null_surface 
	null_surface 
	nullbs 
	nullbs 
	I I 
	0 
	0 
	0 
	F 1 F 0 } I I #
point $-1 -246.71952454707235 -3.2873169431013594e-007 -47.077398691124309 #
face $-1 $-1 $86 $10 $-1 $140 reversed single #
loop $-1 $-1 $120 $71 #
plane-surface $-1 0 31.177309268753799 0 0 -1 0 0 0 -1 forward_v I I I I #
coedge $-1 $141 $118 $121 $142 forward $72 $-1 #
coedge $-1 $124 $74 $75 $112 reversed $49 $-1 #
coedge $-1 $118 $141 $74 $110 reversed $72 $-1 #
edge $-1 $125 -36.748123459311529 $143 36.748123459311529 $109 $144 forward 7 unknown #
coedge $-1 $76 $75 $141 $145 forward $33 $-1 #
edge $-1 $116 -58.616454586051461 $143 58.616454586051461 $108 $146 forward 7 unknown #
coedge $-1 $121 $120 $76 $114 reversed $105 $-1 #
edge $-1 $147 -58.616454586051461 $115 58.616454586051461 $113 $148 forward 7 unknown #
vertex $-1 $78 $149 #
vertex $-1 $127 $150 #
straight-curve $-1 58.616454586051461 0 -36.748123459311529 0 -1 0 I I #
coedge $-1 $107 $109 $79 $119 reversed $72 $-1 #
edge $-1 $122 -31.177309268753799 $125 31.177309268753799 $118 $151 forward 7 unknown #
coedge $-1 $113 $80 $85 $128 forward $105 $-1 #
coedge $-1 $80 $113 $107 $142 reversed $105 $-1 #
vertex $-1 $81 $152 #
straight-curve $-1 0 31.177309268753799 36.748123459311529 -1 0 0 I I #
coedge $-1 $82 $108 $84 $127 reversed $49 $-1 #
vertex $-1 $119 $153 #
straight-curve $-1 0 -31.177309268753799 36.748123459311529 1 0 0 I I #
edge $-1 $87 -36.748123459311529 $116 36.748123459311529 $84 $154 forward 7 unknown #
edge $-1 $88 -36.748123459311529 $115 36.748123459311529 $85 $155 forward 7 unknown #
point $-1 58.616454586051461 -31.177309268753799 36.748123459311529 #
point $-1 58.616454586051461 31.177309268753799 36.748123459311529 #
tedge-edge $-1 $136 0 $136 62.353829072479584 $91 $156 forward 7 unknown 0.00039473251398565819 #
pcurve $-1 0 forward { exppc nubs 2 periodic 43 
	-62.353829072479584 2 -59.755752861126268 2 -58.45671475544961 2 -57.157676649772952 2 -55.858638544096294 2 
	-54.559600438419636 2 -53.260562332742978 2 -51.96152422706632 2 -50.662486121389662 2 -49.363448015713004 2 
	-48.064409910036346 2 -46.765371804359688 2 -45.46633369868303 2 -44.167295593006372 2 -41.569219381653063 2 
	-38.97114317029974 2 -37.672105064623082 2 -36.373066958946424 2 -35.074028853269766 2 -33.774990747593108 2 
	-32.47595264191645 2 -31.176914536239792 2 -29.877876430563134 2 -28.578838324886476 2 -27.279800219209818 2 
	-25.98076211353316 2 -24.681724007856502 2 -23.382685902179844 2 -20.784609690826532 2 -18.186533479473212 2 
	-16.887495373796554 2 -15.588457268119896 2 -14.289419162443238 2 -12.99038105676658 2 -11.691342951089922 2 
	-10.392304845413262 2 -9.0932667397366043 2 -7.7942286340599463 2 -6.4951905283832883 2 -5.1961524227066311 2 
	-3.8971143170299731 2 -2.5980762113533156 2 0 2 
	0.95454545454545292 0.5 
	0.95454545454545281 0.5524863881081441 
	0.94258373205741375 0.60359155547660748 
	0.93611793611793193 0.63121597027037635 
	0.92626728110598933 0.65782197345883153 
	0.91595197255574412 0.68568297679769485 
	0.90209790209790131 0.71196425966752008 
	0.88770053475935784 0.73927618108126203 
	0.86974219810040676 0.76439038785820723 
	0.8512396694214921 0.79026563120414428 
	0.82931354359925646 0.81331160248231082 
	0.80693533270852125 0.83683274842600641 
	0.78144135657089109 0.85693463415515025 
	0.75568181818182523 0.8772459145273076 
	0.7272727272727264 0.8936479108111085 
	0.69886363636363213 0.91004990709490685 
	0.66839378238342084 0.92220268154352059 
	0.63823805060918826 0.93423016965761374 
	0.60667903525046385 0.94184969580838718 
	0.57575757575757625 0.94931529213793198 
	0.5440976933514251 0.95240133033515451 
	0.51336898395722041 0.95539660270304694 
	0.48251748251748455 0.95420912785897127 
	0.45283018867924529 0.95306646338636991 
	0.4235441977377476 0.9480692809693263 
	0.3955773955773968 0.94329719685935642 
	0.36842105263158009 0.93508453300175143 
	0.31818181818181784 0.91989110486518177 
	0.27272727272727348 0.8936479108111085 
	0.22727272727273135 0.86740471675703645 
	0.18899521531100674 0.83149297752514384 
	0.16830466830467641 0.81208122658899251 
	0.1501885211562663 0.79024730751049455 
	0.13121783876500989 0.76738348658867495 
	0.11538461538461817 0.7422448681914513 
	0.098930481283423674 0.71612042162178269 
	0.08616010854817055 0.68801094247694727 
	0.073002754820943289 0.6590496609337908 
	0.064007421150282004 0.62853809332607602 
	0.054826616682288692 0.59739742123160822 
	0.050164861045692885 0.56526804738837011 
	0.045454545454547052 0.53280399256758371 
	0.045454545454547024 0.49999999999999983 
	0.045454545454547052 0.46719600743241346 
	0.050164861045692531 0.4347319526116295 
	0.054826616682289331 0.40260257876838457 
	0.064007421150280616 0.37146190667392365 
	0.073002754820939764 0.34095033906621619 
	0.086160108548170272 0.31198905752305256 
	0.098930481283422397 0.28387957837821942 
	0.11538461538461829 0.25775513180854848 
	0.13121783876501467 0.23261651341131739 
	0.15018852115626496 0.20975269248950518 
	0.16830466830466939 0.18791877341101398 
	0.18899521531100696 0.16850702247485594 
	0.22727272727273132 0.13259528324296363 
	0.27272727272727348 0.10635208918889155 
	0.31818181818181829 0.080108895134818003 
	0.36842105263158043 0.064915466998248489 
	0.39557739557739613 0.056702803140643826 
	0.42354419773774771 0.051930719030673769 
	0.45283018867924635 0.046933536613629923 
	0.48251748251748433 0.045790872141028678 
	0.51336898395722019 0.044603397296952993 
	0.54409769335142444 0.04759866966484546 
	0.57575757575757436 0.050684707862067996 
	0.60667903525046341 0.058150304191613107 
	0.63823805060918981 0.065769830342387037 
	0.66839378238342084 0.077797318456479497 
	0.69886363636363091 0.089950092905092788 
	0.7272727272727264 0.10635208918889168 
	0.75568181818182367 0.12275408547269159 
	0.78144135657089087 0.14306536584484997 
	0.80693533270852169 0.16316725157399414 
	0.8293135435992568 0.18668839751768937 
	0.85123966942148699 0.20973436879585008 
	0.86974219810040587 0.23560961214179296 
	0.88770053475936228 0.26072381891874563 
	0.90209790209790197 0.28803574033248014 
	0.91595197255574379 0.31431702320230342 
	0.92626728110598977 0.34217802654116858 
	0.93611793611793259 0.36878402972962393 
	0.94258373205741419 0.39640844452339258 
	0.95454545454545303 0.44751361189185523 
	0.95454545454545292 0.5 
	0.001 
	spline forward { ref 8 } I I I I 
	} 0 0 #
pcurve $-1 0 forward { exppc nubs 2 periodic 43 
	0 2 2.598076211353316 2 3.897114317029974 2 5.196152422706632 2 6.49519052838329 2 
	7.794228634059948 2 9.093266739736606 2 10.392304845413264 2 11.691342951089922 2 12.99038105676658 2 
	14.289419162443238 2 15.588457268119896 2 16.887495373796554 2 18.186533479473212 2 20.784609690826528 2 
	23.382685902179844 2 24.681724007856502 2 25.98076211353316 2 27.279800219209818 2 28.578838324886476 2 
	29.877876430563134 2 31.176914536239792 2 32.47595264191645 2 33.774990747593108 2 35.074028853269766 2 
	36.373066958946424 2 37.672105064623082 2 38.97114317029974 2 41.569219381653056 2 44.167295593006372 2 
	45.46633369868303 2 46.765371804359688 2 48.064409910036346 2 49.363448015713004 2 50.662486121389662 2 
	51.96152422706632 2 53.260562332742978 2 54.559600438419636 2 55.858638544096294 2 57.157676649772952 2 
	58.45671475544961 2 59.755752861126268 2 62.353829072479584 2 
	0 0 
	1.3741890704678712 0 
	2.5980762113533196 0 
	3.2636507913427293 0 
	3.897114317034307 0 
	4.5603878909892979 2.418505069588546e-015 
	5.1961524227066223 4.7367034773051131e-015 
	5.8567879385520838 2.3278176013161987e-015 
	6.495190528383513 0 
	7.1528899219392432 2.398303920159202e-015 
	7.7942286340632103 4.7369485388218e-015 
	8.4487568312662376 3.5370446210148912e-015 
	9.0932667397365989 2.3555065795008862e-015 
	9.7444728550498354 1.1746941902965462e-015 
	10.392304845413264 0 
	11.040136835776682 2.3623239107157045e-015 
	11.691342951089915 4.7369515917997218e-015 
	12.335852859560282 5.8886155008445772e-015 
	12.990381056763317 7.0581809214289313e-015 
	13.631719768887299 4.1544149934337777e-015 
	14.289419162443044 1.176573404010039e-015 
	14.927821752274461 2.9264166250072805e-015 
	15.588457268119907 4.7371996596711024e-015 
	16.224221799837238 4.7370772149743957e-015 
	16.887495373792234 4.7369494721898502e-015 
	17.520958899483809 2.4270213026053176e-015 
	18.186533479473216 0 
	19.410420620358657 0 
	20.784609690826528 0 
	22.158798761294399 0 
	23.382685902179851 0 
	24.048260482169262 0 
	24.68172400786084 0 
	25.344997581815825 2.4450938424450686e-015 
	25.980762113533153 4.7887782628536081e-015 
	26.641397629378609 2.3534093663412535e-015 
	27.279800219210031 0 
	27.937499612765759 1.1880278990330933e-015 
	28.578838324889723 2.3465028652543643e-015 
	29.233366522092766 4.1389200482603982e-015 
	29.877876430563131 5.9039022743837757e-015 
	30.529082545876363 2.9442837316407403e-015 
	31.176914536239792 0 
	31.824746526603214 2.9367411806065941e-015 
	32.47595264191645 5.8887778881955144e-015 
	33.120462550386819 4.1167187989228276e-015 
	33.774990747589847 2.3171147497133526e-015 
	34.416329459713815 1.1731487775627063e-015 
	35.074028853269553 0 
	35.712431443100982 2.3278176108872106e-015 
	36.373066958946431 4.7367034967804567e-015 
	37.008831490663752 2.4185050795324268e-015 
	37.672105064618755 0 
	38.305568590310344 0 
	38.971143170299754 0 
	40.195030311185199 0 
	41.569219381653056 0 
	42.94340845212092 0 
	44.167295593006358 0 
	44.832870172995783 1.2213416188434247e-015 
	45.466333698687386 2.3837588613389617e-015 
	46.129607272642389 3.5583026126463149e-015 
	46.76537180435971 4.6841325678166691e-015 
	47.42600732020513 2.3019820198805594e-015 
	48.064409910036517 0 
	48.722109303592262 1.1620668045641058e-015 
	49.363448015716251 2.295226474686264e-015 
	50.017976212919294 4.1005007078591279e-015 
	50.662486121389662 5.8781431925651515e-015 
	51.313692236702906 2.9314376440844395e-015 
	51.96152422706632 0 
	52.609356217429749 5.7473110217625471e-016 
	53.260562332742978 1.1524555955096773e-015 
	53.905072241213347 1.7304170770007709e-015 
	54.559600438416354 2.3173624157170838e-015 
	55.200939150540329 1.1732741701741669e-015 
	55.858638544096081 0 
	56.497041133927503 2.3280614432494864e-015 
	57.157676649772945 4.7371996531793144e-015 
	57.79344118149028 2.4187584111525504e-015 
	58.45671475544529 0 
	59.090178281136843 0 
	59.755752861126254 0 
	60.979640002011706 0 
	62.353829072479584 0 
	0.001 
	spline forward { ref 4 } I I I I 
	} 0 0 #
pcurve $-1 0 forward { exppc nubs 2 periodic 43 
	-8.8799423012167225 2 -8.5099447053326926 2 -8.3249459073906777 2 -8.1399471094486628 2 -7.9549483115066479 2 
	-7.769949513564633 2 -7.5849507156226181 2 -7.3999519176806023 2 -7.2149531197385866 2 -7.0299543217965716 2 
	-6.8449555238545567 2 -6.6599567259125418 2 -6.4749579279705269 2 -6.289959130028512 2 -5.9199615341444822 2 
	-5.5499639382604524 2 -5.3649651403184375 2 -5.1799663423764217 2 -4.9949675444344059 2 -4.809968746492391 2 
	-4.6249699485503761 2 -4.4399711506083612 2 -4.2549723526663463 2 -4.0699735547243314 2 -3.8849747567823165 2 
	-3.6999759588403012 2 -3.5149771608982858 2 -3.3299783629562709 2 -2.9599807670722411 2 -2.5899831711882109 2 
	-2.4049843732461955 2 -2.2199855753041806 2 -2.0349867773621657 2 -1.8499879794201504 2 -1.6649891814781352 2 
	-1.4799903835361201 2 -1.2949915855941052 2 -1.1099927876520901 2 -0.92499398971007507 2 -0.73999519176806006 2 
	-0.55499639382604504 2 -0.36999759588403003 2 0 2 
	62.353829072479584 1 
	60.97964000201172 1 
	59.755752861126275 1 
	59.090178281136872 0.99999999999999989 
	58.456714755445304 1 
	57.793441181490287 0.99999999999999767 
	57.157676649772931 0.99999999999999523 
	56.497041133927496 0.99999999999999767 
	55.858638544096088 1 
	55.200939150540371 1 
	54.559600438416403 1 
	53.905072241213375 1 
	53.260562332743 1 
	52.609356217429756 0.99999999999999611 
	51.96152422706632 0.99999999999999223 
	51.313692236702892 0.999999999999996 
	50.662486121389669 1 
	50.017976212919287 0.99999999999999534 
	49.36344801571623 0.99999999999999056 
	48.722109303592255 0.99999999999999289 
	48.064409910036517 0.99999999999999523 
	47.42600732020513 0.99999999999999745 
	46.765371804359731 1 
	46.129607272642382 1 
	45.466333698687365 1 
	44.832870172995825 1 
	44.167295593006457 1 
	42.943408452120977 1 
	41.569219381653056 1 
	40.195030311185199 0.99999999999999989 
	38.971143170299769 1 
	38.305568590310372 1 
	37.672105064618798 1 
	37.008831490663781 1 
	36.373066958946431 1 
	35.712431443100975 1 
	35.074028853269546 1 
	34.416329459713808 0.99999999999999711 
	33.774990747589847 0.99999999999999456 
	33.120462550386819 0.99999999999999722 
	32.475952641916457 1 
	31.824746526603217 0.99999999999999911 
	31.176914536239792 0.99999999999999856 
	30.529082545876363 0.99999999999999911 
	29.877876430563127 1 
	29.233366522092769 0.99999999999999978 
	28.578838324889734 0.99999999999999911 
	27.93749961276577 0.99999999999999944 
	27.279800219210038 0.99999999999999956 
	26.641397629378609 0.99999999999999978 
	25.980762113533153 1 
	25.344997581815825 0.99999999999999878 
	24.68172400786084 0.99999999999999778 
	24.048260482169262 0.99999999999999667 
	23.382685902179851 0.99999999999999523 
	22.158798761294403 0.99999999999999756 
	20.784609690826528 1 
	19.41042062035865 1 
	18.186533479473201 1 
	17.520958899483794 1 
	16.887495373792216 1 
	16.224221799837213 1 
	15.588457268119878 1 
	14.927821752274443 1 
	14.289419162443041 1 
	13.631719768887303 1 
	12.990381056763329 1 
	12.33585285956028 1 
	11.691342951089897 1 
	11.040136835776675 0.99999999999999611 
	10.392304845413264 0.99999999999999223 
	9.7444728550498372 0.99999999999999623 
	9.0932667397365972 1 
	8.4487568312662447 0.99999999999999933 
	7.7942286340632219 0.99999999999999845 
	7.1528899219392414 0.99999999999999922 
	6.4951905283834952 1 
	5.85678793855209 0.99999999999999778 
	5.1961524227066533 0.99999999999999523 
	4.5603878909893183 0.99999999999999534 
	3.8971143170343145 0.99999999999999523 
	3.2636507913427293 0.99999999999999756 
	2.5980762113533116 1 
	1.3741890704678668 1 
	0 1 
	0.001 
	spline forward { ref 4 } I I I I 
	} 0 0 #
pcurve $-1 0 forward { exppc nubs 2 open 7 
	-1 2 -0.83333333333333337 2 -0.66666666666666674 2 -0.5 2 -0.33333333333333337 2 
	-0.16666666666666663 2 0 2 
	62.353829072479584 0 
	62.353829072479584 0.083333333333333329 
	62.353829072479584 0.16666666666666666 
	62.353829072479584 0.25 
	62.353829072479584 0.33333333333333331 
	62.353829072479584 0.41666666666666663 
	62.353829072479584 0.5 
	62.353829072479584 0.58333333333333337 
	62.353829072479584 0.66666666666666674 
	62.353829072479584 0.75000000000000011 
	62.353829072479584 0.83333333333333348 
	62.353829072479584 0.91666666666666674 
	62.353829072479584 1 
	0.001 
	spline forward { ref 4 } I I I I 
	} 0 0 #
tvertex-vertex $-1 $131 $157 4.1782398173746302e-014 #
intcurve-curve $-1 forward { exactcur full nubs 1 open 2 
	0 1 1 1 
	-249.0565842345045 -9.3551257407398225e-008 -33.823274574427025 
	-246.33766087339455 -7.2829728026135854e-008 -32.555419789204983 
	0 
	null_surface 
	null_surface 
	nullbs 
	nullbs 
	I I 
	0 
	0 
	0 
	F 1 F 0 } I I #
intcurve-curve $-1 forward { exactcur full nurbs 2 periodic 4 
	0 2 2.9599807670722411 2 5.9199615341444813 2 8.8799423012167225 2 
	-249.0565842345045 -9.3551257407398225e-008 -33.823274574427025 1 
	-249.05658421569527 31.176914442688545 -33.823275124311856 0.5 
	-237.64589115810151 15.588456736087757 -58.29358509935917 1 
	-226.23519810050769 -9.7051299263739566e-007 -82.763895074406548 0.5 
	-237.64589117691077 -15.58845780015205 -58.293584549474296 1 
	-249.05658425331382 -31.176914629791089 -33.823274024542108 0.5 
	-249.0565842345045 -9.3551257407398225e-008 -33.823274574427025 1 
	0 
	null_surface 
	null_surface 
	nullbs 
	nullbs 
	I I 
	0 
	0 
	0 
	F 1 F 0 } I I #
point $-1 -249.0565842345045 -9.3551257407398225e-008 -33.823274574427025 #
plane-surface $-1 58.616454586051461 0 0 -1 0 0 0 0 1 forward_v I I I I #
coedge $-1 $109 $107 $111 $145 reversed $72 $-1 #
edge $-1 $122 -36.748123459311529 $147 36.748123459311529 $121 $158 forward 7 unknown #
vertex $-1 $145 $159 #
straight-curve $-1 -58.616454586051461 -31.177309268753799 0 0 0 -1 I I #
edge $-1 $143 -31.177309268753799 $147 31.177309268753799 $141 $160 forward 7 unknown #
straight-curve $-1 0 -31.177309268753799 -36.748123459311529 -1 0 0 I I #
vertex $-1 $114 $161 #
straight-curve $-1 0 31.177309268753799 -36.748123459311529 1 0 0 I I #
point $-1 58.616454586051461 31.177309268753799 -36.748123459311529 #
point $-1 58.616454586051461 -31.177309268753799 -36.748123459311529 #
straight-curve $-1 -58.616454586051461 0 36.748123459311529 0 -1 0 I I #
point $-1 -58.616454586051461 31.177309268753799 36.748123459311529 #
point $-1 -58.616454586051461 -31.177309268753799 36.748123459311529 #
straight-curve $-1 58.616454586051461 -31.177309268753799 0 0 0 -1 I I #
straight-curve $-1 58.616454586051461 31.177309268753799 0 0 0 -1 I I #
intcurve-curve $-1 forward { exactcur full nurbs 2 periodic 4 
	0 2 20.784609690826528 2 41.569219381653056 2 62.353829072479584 2 
	-246.33766087339455 -7.2829728026135854e-008 -32.555419789204983 1 
	-246.33766085458532 31.176914463410071 -32.555420339089814 0.5 
	-234.92696779699153 15.5884567568093 -57.025730314137142 1 
	-223.51627473939769 -9.49791477466988e-007 -81.496040289184492 0.5 
	-234.92696781580082 -15.58845777943052 -57.02572976425224 1 
	-246.33766089220387 -31.176914609069556 -32.555419239320052 0.5 
	-246.33766087339455 -7.2829728026135854e-008 -32.555419789204983 1 
	0 
	null_surface 
	null_surface 
	nullbs 
	nullbs 
	I I 
	0 
	0 
	0 
	F 1 F 0 } I I #
point $-1 -246.33766087339455 -7.2829728026135854e-008 -32.555419789204983 #
straight-curve $-1 -58.616454586051461 31.177309268753799 0 0 0 -1 I I #
point $-1 -58.616454586051461 -31.177309268753799 -36.748123459311529 #
straight-curve $-1 -58.616454586051461 0 -36.748123459311529 0 1 0 I I #
point $-1 -58.616454586051461 31.177309268753799 -36.748123459311529 #
End-of-ACIS-data 