600 0 1 0           
82 GICL ACIS Healer - Source: /gicl/data5/repository/SDRC_I-DEAS/bmw/Part44.sat - 6 0 18 ACIS 6.0.3 Solaris 24 Sat Apr 13 23:16:09 2002 
1 9.999999999999999547e-07 1.000000000000000036e-10 
body $-1 $1 $-1 $-1 #
lump $-1 $-1 $2 $0 #
shell $-1 $-1 $-1 $3 $-1 $1 #
face $-1 $4 $5 $2 $-1 $6 forward single #
face $-1 $7 $8 $2 $-1 $9 forward single #
loop $-1 $-1 $10 $3 #
plane-surface $-1 -358.9999999797967121 33.49074072763596632 4.680956307695637975 6.022978852706646286e-10 0.9983161285946630104 -0.0580078217808951066 -0 0.05800782178089511354 0.9983161285946631214 forward_v I I I I #
face $-1 $11 $12 $2 $-1 $13 forward single #
loop $-1 $-1 $14 $4 #
plane-surface $-1 -358.9999999812863507 31.02167073404311992 9.595597023632048916 3.314539709346855875e-10 0.5493943115777887298 0.8355632174802619661 1 0 -3.966832957705146202e-10 forward_v I I I I #
coedge $-1 $15 $16 $17 $18 reversed $5 $-1 #
face $-1 $19 $20 $2 $-1 $21 forward single #
loop $-1 $-1 $22 $7 #
plane-surface $-1 -358.9999999845989578 25.5309320267724722 9.914640043427011662 -2.708443175731366923e-10 -0.4489218170168771116 0.8935710392611577735 1 -0 3.031032852151096836e-10 forward_v I I I I #
coedge $-1 $23 $24 $25 $26 reversed $8 $-1 #
coedge $-1 $27 $10 $24 $28 reversed $5 $-1 #
coedge $-1 $10 $27 $29 $30 forward $5 $-1 #
coedge $-1 $31 $25 $10 $18 forward $32 $-1 #
edge $-1 $33 0 $34 1 $10 $35 forward 7 unknown #
face $-1 $36 $37 $2 $-1 $38 forward single #
loop $-1 $-1 $39 $11 #
plane-surface $-1 -358.9999999864219262 22.50926331309467443 5.319042347285519945 -6.022978680968994661e-10 -0.9983161285946630104 0.05800782178089428087 0 -0.05800782178089429475 -0.9983161285946632324 forward_v I I I I #
coedge $-1 $40 $41 $42 $43 reversed $12 $-1 #
coedge $-1 $44 $14 $41 $45 reversed $8 $-1 #
coedge $-1 $14 $44 $15 $28 forward $8 $-1 #
coedge $-1 $17 $42 $14 $26 forward $32 $-1 #
edge $-1 $46 0 $33 1 $14 $47 forward 7 unknown #
coedge $-1 $16 $15 $48 $49 forward $5 $-1 #
edge $-1 $50 0 $33 1 $15 $51 forward 7 unknown #
coedge $-1 $52 $53 $16 $30 reversed $54 $-1 #
edge $-1 $55 0 $34 1 $16 $56 forward 7 unknown #
coedge $-1 $57 $17 $53 $58 forward $32 $-1 #
loop $-1 $-1 $57 $36 #
vertex $-1 $18 $59 #
vertex $-1 $18 $60 #
intcurve-curve $-1 forward { exactcur full nubs 1 open 2 
	0 1 1 1 
	-361.9999999796855832 33.67494030280759176 7.851035778388240516 
	-361.9999999799077841 33.30654115608422927 1.510876837003010564 
	0 
	null_surface 
	null_surface 
	nullbs 
	nullbs 
	I I 
	0 
	0 
	0 
	F 1 F 0 } I I #
face $-1 $61 $32 $2 $-1 $62 forward single #
loop $-1 $-1 $63 $19 #
plane-surface $-1 -358.9999999849322876 24.97833330668751728 0.4044016313490690351 -3.314539065895917961e-10 -0.5493943115777887298 -0.8355632174802619661 -1 0 3.966832187624649e-10 forward_v I I I I #
coedge $-1 $64 $65 $66 $67 reversed $20 $-1 #
coedge $-1 $68 $22 $65 $69 reversed $12 $-1 #
coedge $-1 $22 $68 $23 $45 forward $12 $-1 #
coedge $-1 $25 $66 $22 $43 forward $32 $-1 #
edge $-1 $70 0 $46 1 $22 $71 forward 7 unknown #
coedge $-1 $24 $23 $72 $73 forward $8 $-1 #
edge $-1 $74 0 $46 1 $23 $75 forward 7 unknown #
vertex $-1 $26 $76 #
intcurve-curve $-1 forward { exactcur full nubs 1 open 2 
	0 1 1 1 
	-361.9999999828870614 28.36840116889853647 11.3401582688758289 
	-361.9999999796855832 33.67494030280759176 7.851035778388240516 
	0 
	null_surface 
	null_surface 
	nullbs 
	nullbs 
	I I 
	0 
	0 
	0 
	F 1 F 0 } I I #
coedge $-1 $72 $77 $27 $49 reversed $78 $-1 #
edge $-1 $50 0 $55 1 $27 $79 forward 7 unknown #
vertex $-1 $49 $80 #
intcurve-curve $-1 forward { exactcur full nubs 1 open 2 
	0 1 1 1 
	-355.9999999796855832 33.67494029918768916 7.851035778388268938 
	-361.9999999796855832 33.67494030280759176 7.851035778388240516 
	0 
	null_surface 
	null_surface 
	nullbs 
	nullbs 
	I I 
	0 
	0 
	0 
	F 1 F 0 } I I #
coedge $-1 $81 $29 $77 $82 forward $54 $-1 #
coedge $-1 $29 $81 $31 $58 reversed $54 $-1 #
loop $-1 $-1 $53 $61 #
vertex $-1 $30 $83 #
intcurve-curve $-1 forward { exactcur full nubs 1 open 2 
	0 1 1 1 
	-355.9999999799077841 33.3065411524643693 1.510876837003031881 
	-361.9999999799077841 33.30654115608422927 1.510876837003010564 
	0 
	null_surface 
	null_surface 
	nullbs 
	nullbs 
	I I 
	0 
	0 
	0 
	F 1 F 0 } I I #
coedge $-1 $66 $31 $63 $84 reversed $32 $-1 #
edge $-1 $34 0 $85 1 $31 $86 forward 7 unknown #
point $-1 -361.9999999796855832 33.67494030280759176 7.851035778388240516 #
point $-1 -361.9999999799077841 33.30654115608422927 1.510876837003010564 #
face $-1 $87 $54 $2 $-1 $88 forward single #
plane-surface $-1 -361.9999999831092623 27.99999912783567879 4.999999495668069116 -1 6.033098255896371958e-10 -9.132363197413374169e-15 -9.132363197413374169e-15 0 1 forward_v I I I I #
coedge $-1 $89 $90 $57 $84 forward $37 $-1 #
coedge $-1 $91 $39 $90 $92 reversed $20 $-1 #
coedge $-1 $39 $91 $40 $69 forward $20 $-1 #
coedge $-1 $42 $57 $39 $67 forward $32 $-1 #
edge $-1 $93 0 $70 1 $39 $94 forward 7 unknown #
coedge $-1 $41 $40 $95 $96 forward $12 $-1 #
edge $-1 $97 0 $70 1 $40 $98 forward 7 unknown #
vertex $-1 $43 $99 #
intcurve-curve $-1 forward { exactcur full nubs 1 open 2 
	0 1 1 1 
	-361.9999999863107973 22.69346288826628921 8.48912181797816956 
	-361.9999999828870614 28.36840116889853647 11.3401582688758289 
	0 
	null_surface 
	null_surface 
	nullbs 
	nullbs 
	I I 
	0 
	0 
	0 
	F 1 F 0 } I I #
coedge $-1 $95 $48 $44 $73 reversed $78 $-1 #
edge $-1 $74 0 $50 1 $44 $100 forward 7 unknown #
vertex $-1 $73 $101 #
intcurve-curve $-1 forward { exactcur full nubs 1 open 2 
	0 1 1 1 
	-355.9999999828870614 28.36840116527866229 11.34015826887585376 
	-361.9999999828870614 28.36840116889853647 11.3401582688758289 
	0 
	null_surface 
	null_surface 
	nullbs 
	nullbs 
	I I 
	0 
	0 
	0 
	F 1 F 0 } I I #
point $-1 -361.9999999828870614 28.36840116889853647 11.3401582688758289 #
coedge $-1 $48 $102 $52 $82 reversed $78 $-1 #
loop $-1 $-1 $77 $103 #
intcurve-curve $-1 forward { exactcur full nubs 1 open 2 
	0 1 1 1 
	-355.9999999796855832 33.67494029918768916 7.851035778388268938 
	-355.9999999799077841 33.3065411524643693 1.510876837003031881 
	0 
	null_surface 
	null_surface 
	nullbs 
	nullbs 
	I I 
	0 
	0 
	0 
	F 1 F 0 } I I #
point $-1 -355.9999999796855832 33.67494029918768916 7.851035778388268938 #
coedge $-1 $53 $52 $89 $104 reversed $54 $-1 #
edge $-1 $55 0 $105 1 $52 $106 forward 7 unknown #
point $-1 -355.9999999799077841 33.3065411524643693 1.510876837003031881 #
edge $-1 $93 0 $85 1 $63 $107 forward 7 unknown #
vertex $-1 $84 $108 #
intcurve-curve $-1 forward { exactcur full nubs 1 open 2 
	0 1 1 1 
	-361.9999999799077841 33.30654115608422927 1.510876837003010564 
	-361.9999999833315769 27.6316028754519678 -1.340159613894726931 
	0 
	null_surface 
	null_surface 
	nullbs 
	nullbs 
	I I 
	0 
	0 
	0 
	F 1 F 0 } I I #
face $-1 $109 $110 $2 $-1 $111 forward single #
plane-surface $-1 -358.9999999816196805 30.469072013958165 0.08535861155415069845 2.708421961120042549e-10 0.448921817016886493 -0.8935710392611529995 -1 0 -3.031009110769183698e-10 forward_v I I I I #
coedge $-1 $112 $63 $81 $104 forward $37 $-1 #
coedge $-1 $63 $112 $64 $92 forward $37 $-1 #
coedge $-1 $65 $64 $113 $114 forward $20 $-1 #
edge $-1 $115 0 $93 1 $64 $116 forward 7 unknown #
vertex $-1 $67 $117 #
intcurve-curve $-1 forward { exactcur full nubs 1 open 2 
	0 1 1 1 
	-361.9999999865330551 22.32506374154294093 2.148962876592847238 
	-361.9999999863107973 22.69346288826628921 8.48912181797816956 
	0 
	null_surface 
	null_surface 
	nullbs 
	nullbs 
	I I 
	0 
	0 
	0 
	F 1 F 0 } I I #
coedge $-1 $113 $72 $68 $96 reversed $78 $-1 #
edge $-1 $97 0 $74 1 $68 $118 forward 7 unknown #
vertex $-1 $96 $119 #
intcurve-curve $-1 forward { exactcur full nubs 1 open 2 
	0 1 1 1 
	-355.9999999863107973 22.69346288464640082 8.489121817978194429 
	-361.9999999863107973 22.69346288826628921 8.48912181797816956 
	0 
	null_surface 
	null_surface 
	nullbs 
	nullbs 
	I I 
	0 
	0 
	0 
	F 1 F 0 } I I #
point $-1 -361.9999999863107973 22.69346288826628921 8.48912181797816956 #
intcurve-curve $-1 forward { exactcur full nubs 1 open 2 
	0 1 1 1 
	-355.9999999828870614 28.36840116527866229 11.34015826887585376 
	-355.9999999796855832 33.67494029918768916 7.851035778388268938 
	0 
	null_surface 
	null_surface 
	nullbs 
	nullbs 
	I I 
	0 
	0 
	0 
	F 1 F 0 } I I #
point $-1 -355.9999999828870614 28.36840116527866229 11.34015826887585376 #
coedge $-1 $77 $113 $112 $120 reversed $78 $-1 #
face $-1 $-1 $121 $2 $-1 $122 forward single #
edge $-1 $85 0 $105 1 $89 $123 forward 7 unknown #
vertex $-1 $120 $124 #
intcurve-curve $-1 forward { exactcur full nubs 1 open 2 
	0 1 1 1 
	-355.9999999799077841 33.3065411524643693 1.510876837003031881 
	-355.9999999833315769 27.63160287183209363 -1.34015961389471272 
	0 
	null_surface 
	null_surface 
	nullbs 
	nullbs 
	I I 
	0 
	0 
	0 
	F 1 F 0 } I I #
intcurve-curve $-1 forward { exactcur full nubs 1 open 2 
	0 1 1 1 
	-361.9999999865330551 22.32506374154294093 2.148962876592847238 
	-361.9999999833315769 27.6316028754519678 -1.340159613894726931 
	0 
	null_surface 
	null_surface 
	nullbs 
	nullbs 
	I I 
	0 
	0 
	0 
	F 1 F 0 } I I #
point $-1 -361.9999999833315769 27.6316028754519678 -1.340159613894726931 #
face $-1 $125 $126 $2 $-1 $127 forward single #
loop $-1 $-1 $128 $87 #
plane-surface $-1 -280.9999999831092055 28.00000092184283318 4.999999101361082054 1 -6.033056088359965547e-10 3.907721717340273425e-15 3.907721717340273425e-15 0 -1 forward_v I I I I #
coedge $-1 $90 $89 $102 $120 forward $37 $-1 #
coedge $-1 $102 $95 $91 $114 reversed $78 $-1 #
edge $-1 $115 0 $97 1 $91 $129 forward 7 unknown #
vertex $-1 $114 $130 #
intcurve-curve $-1 forward { exactcur full nubs 1 open 2 
	0 1 1 1 
	-355.9999999865330551 22.32506373792306675 2.148962876592868554 
	-361.9999999865330551 22.32506374154294093 2.148962876592847238 
	0 
	null_surface 
	null_surface 
	nullbs 
	nullbs 
	I I 
	0 
	0 
	0 
	F 1 F 0 } I I #
point $-1 -361.9999999865330551 22.32506374154294093 2.148962876592847238 #
intcurve-curve $-1 forward { exactcur full nubs 1 open 2 
	0 1 1 1 
	-355.9999999863107973 22.69346288464640082 8.489121817978194429 
	-355.9999999828870614 28.36840116527866229 11.34015826887585376 
	0 
	null_surface 
	null_surface 
	nullbs 
	nullbs 
	I I 
	0 
	0 
	0 
	F 1 F 0 } I I #
point $-1 -355.9999999863107973 22.69346288464640082 8.489121817978194429 #
edge $-1 $105 0 $115 1 $112 $131 forward 7 unknown #
loop $-1 $78 $132 $103 #
plane-surface $-1 -355.9999999831092623 28.0000006557170309 4.999999506144620298 -1 6.033079808961910041e-10 -3.779549114852534892e-15 -3.779549114852534892e-15 0 1 forward_v I I I I #
intcurve-curve $-1 forward { exactcur full nubs 1 open 2 
	0 1 1 1 
	-361.9999999833315769 27.6316028754519678 -1.340159613894726931 
	-355.9999999833315769 27.63160287183209363 -1.34015961389471272 
	0 
	null_surface 
	null_surface 
	nullbs 
	nullbs 
	I I 
	0 
	0 
	0 
	F 1 F 0 } I I #
point $-1 -355.9999999833315769 27.63160287183209363 -1.34015961389471272 #
face $-1 $133 $134 $2 $-1 $135 forward single #
loop $-1 $-1 $136 $109 #
cone-surface $-1 -339.3999999834418873 28.00000064570204827 4.999999506144676253 1 -6.033117132023559418e-10 4.374228786928426794e-15 2.265494458697503433e-09 3.755129826524225223 -1.378042084244242016 1 I I 0 1 4.000000000000008882 forward I I I I #
coedge $-1 $128 $128 $137 $138 reversed $110 $-1 #
intcurve-curve $-1 forward { exactcur full nubs 1 open 2 
	0 1 1 1 
	-355.9999999865330551 22.32506373792306675 2.148962876592868554 
	-355.9999999863107973 22.69346288464640082 8.489121817978194429 
	0 
	null_surface 
	null_surface 
	nullbs 
	nullbs 
	I I 
	0 
	0 
	0 
	F 1 F 0 } I I #
point $-1 -355.9999999865330551 22.32506373792306675 2.148962876592868554 #
intcurve-curve $-1 forward { exactcur full nubs 1 open 2 
	0 1 1 1 
	-355.9999999833315769 27.63160287183209363 -1.34015961389471272 
	-355.9999999865330551 22.32506373792306675 2.148962876592868554 
	0 
	null_surface 
	null_surface 
	nullbs 
	nullbs 
	I I 
	0 
	0 
	0 
	F 1 F 0 } I I #
coedge $-1 $132 $132 $139 $140 reversed $121 $-1 #
face $-1 $103 $141 $2 $-1 $142 forward single #
loop $-1 $143 $144 $125 #
plane-surface $-1 -353.9999999831092623 28.00000065451040143 4.999999506144630956 1 -6.033155126895070345e-10 4.217188968378716884e-15 4.217188968378716884e-15 0 -1 forward_v I I I I #
coedge $-1 $145 $146 $147 $148 forward $126 $-1 #
coedge $-1 $146 $145 $128 $138 forward $126 $-1 #
edge $-1 $149 0 $149 1 $128 $150 forward 7 unknown #
coedge $-1 $151 $152 $132 $140 forward $141 $-1 #
edge $-1 $153 0 $153 1 $139 $154 forward 7 unknown #
loop $-1 $-1 $139 $133 #
cone-surface $-1 -355.5999999831092282 28.00000065547567019 4.999999506144606087 1 -6.032990221519423682e-10 4.410645209635283637e-15 4.247738161211600527e-09 7.040868424732916964 -2.583828907957969712 1 I I 0 1 7.500000000000017764 forward I I I I #
loop $-1 $-1 $147 $125 #
coedge $-1 $144 $144 $155 $156 reversed $134 $-1 #
coedge $-1 $137 $136 $146 $157 reversed $126 $-1 #
coedge $-1 $136 $137 $145 $157 forward $126 $-1 #
coedge $-1 $147 $147 $136 $148 reversed $143 $-1 #
edge $-1 $158 0 $158 1 $136 $159 forward 7 unknown #
vertex $-1 $138 $160 #
intcurve-curve $-1 forward { exactcur full nurbs 2 periodic 4 
	0 2 0.3333333333333329818 2 0.6666666666666669627 2 1 2 
	-280.999999983249154 27.76796932334507773 1.006734991766286669 1 
	-280.9999999874220293 20.85143229637939299 1.408624970009896282 0.5 
	-280.9999999851256121 24.65774774054761309 7.197576752456082971 1 
	-280.9999999828292516 28.46406318471579056 12.98652853490224146 0.5 
	-280.9999999809527935 31.5742847675132694 6.795686774212445158 1 
	-280.9999999790763354 34.68450635031079088 0.6048450135226417501 0.5 
	-280.999999983249154 27.76796932334507773 1.006734991766286669 1 
	0 
	null_surface 
	null_surface 
	nullbs 
	nullbs 
	I I 
	0 
	0 
	0 
	F 1 F 0 } I I #
coedge $-1 $155 $139 $152 $161 reversed $141 $-1 #
coedge $-1 $139 $155 $151 $161 forward $141 $-1 #
vertex $-1 $140 $162 #
intcurve-curve $-1 forward { exactcur full nurbs 2 periodic 4 
	0 2 0.3333333333333329818 2 0.6666666666666669627 2 1 2 
	-355.9999999833717084 27.56494199236032472 -2.487371458315365658 1 
	-355.9999999755477234 40.53344891792094273 -3.240915167522196327 0.5 
	-355.9999999790659899 34.70178345017568944 8.366913133771184619 1 
	-355.9999999825843702 28.87011798243042193 19.97474143506457267 0.5 
	-355.9999999868900886 21.73327652461500037 9.120456842978022394 1 
	-355.9999999911956934 14.59643506679966407 -1.733827749108513228 0.5 
	-355.9999999833717084 27.56494199236032472 -2.487371458315365658 1 
	0 
	null_surface 
	null_surface 
	nullbs 
	nullbs 
	I I 
	0 
	0 
	0 
	F 1 F 0 } I I #
coedge $-1 $152 $151 $144 $156 forward $141 $-1 #
edge $-1 $163 0 $163 1 $144 $164 forward 7 unknown #
edge $-1 $149 0 $158 0.9733333333333330506 $146 $165 forward 7 unknown #
vertex $-1 $148 $166 #
intcurve-curve $-1 forward { exactcur full nurbs 2 periodic 4 
	0 2 0.3333333333333329818 2 0.6666666666666669627 2 1 2 
	-353.9999999832492108 27.76796936738683286 1.006734991765959819 1 
	-353.9999999790764491 34.68450639435260285 0.6048450135223222279 0.5 
	-353.9999999809528504 31.5742848115551098 6.795686774212192915 1 
	-353.9999999828293085 28.46406322875757411 12.98652853490204606 0.5 
	-353.9999999851256689 24.65774778458939664 7.197576752455841387 1 
	-353.999999987422143 20.85143234042104865 1.40862497000964737 0.5 
	-353.9999999832492108 27.76796936738683286 1.006734991765959819 1 
	0 
	null_surface 
	null_surface 
	nullbs 
	nullbs 
	I I 
	0 
	0 
	0 
	F 1 F 0 } I I #
point $-1 -280.999999983249154 27.76796932334507773 1.006734991766286669 #
edge $-1 $163 0 $153 1 $152 $167 forward 7 unknown #
point $-1 -355.9999999833717084 27.56494199236032472 -2.487371458315365658 #
vertex $-1 $156 $168 #
intcurve-curve $-1 forward { exactcur full nurbs 2 periodic 4 
	0 2 0.3333333333333329818 2 0.6666666666666669627 2 1 2 
	-353.9999999833717084 27.56494199115370947 -2.487371458315351447 1 
	-353.9999999911958071 14.59643506559306303 -1.733827749108513228 0.5 
	-353.9999999868900886 21.73327652340838512 9.120456842978036605 1 
	-353.9999999825843702 28.87011798122382089 19.97474143506457978 0.5 
	-353.9999999790659899 34.70178344896910261 8.366913133771191724 1 
	-353.9999999755476097 40.53344891671434169 -3.240915167522182116 0.5 
	-353.9999999833717084 27.56494199115370947 -2.487371458315351447 1 
	0 
	null_surface 
	null_surface 
	nullbs 
	nullbs 
	I I 
	0 
	0 
	0 
	F 1 F 0 } I I #
intcurve-curve $-1 forward { exactcur full nubs 1 open 2 
	0 1 0.9733333333333330506 1 
	-280.999999983249154 27.76796932334507773 1.006734991766286669 
	-353.9999999832492108 27.76796936738683286 1.006734991765959819 
	0 
	null_surface 
	null_surface 
	nullbs 
	nullbs 
	I I 
	0 
	0 
	0 
	F 1 F 0 } I I #
point $-1 -353.9999999832492108 27.76796936738683286 1.006734991765959819 #
intcurve-curve $-1 forward { exactcur full nubs 1 open 2 
	0 1 1 1 
	-353.9999999833717084 27.56494199115370947 -2.487371458315351447 
	-355.9999999833717084 27.56494199236032472 -2.487371458315365658 
	0 
	null_surface 
	null_surface 
	nullbs 
	nullbs 
	I I 
	0 
	0 
	0 
	F 1 F 0 } I I #
point $-1 -353.9999999833717084 27.56494199115370947 -2.487371458315351447 #
End-of-ACIS-data 