600 0 1 0           
7 Unknown 16 ACIS 6.0 Solaris 24 Thu Aug 24 19:06:42 2000 
-1 9.999999999999999547e-07 1.000000000000000036e-10 
body $-1 $1 $-1 $-1 #
lump $-1 $-1 $2 $0 #
shell $-1 $-1 $-1 $3 $-1 $1 #
face $-1 $4 $5 $2 $-1 $6 forward single #
face $-1 $7 $8 $2 $-1 $9 forward single #
loop $-1 $-1 $10 $3 #
spline-surface $-1 forward { exactsur full nubs 1 1 open open none none 2 2 
	0 1 1 1 
	0 1 1 1 
	64.99999988844849952 -53.03306235400617652 63.38099933397852226 
	64.99999985487997378 -62.68507017793604064 73.0330067713113209 
	64.99999995200644776 -43.38105491667337787 73.03300715790838638 
	64.99999991843792202 -53.03306274060324199 82.68501459524118502 
	0 
	0 
	0 
	0 
	0 
	0 
	0 
	F 1 F 0 F 1 F 0 } I I I I #
face $-1 $-1 $11 $2 $-1 $12 forward single #
loop $-1 $-1 $13 $4 #
spline-surface $-1 forward { exactsur full nubs 1 1 open open none none 2 2 
	0 1 1 1 
	0 1 1 1 
	294.9999999184378794 -53.03306389782812857 82.68501423792849891 
	294.9999998548799454 -62.68507133516092722 73.0330064139986348 
	294.9999999520064193 -43.38105607389826446 73.03300680059570027 
	294.9999998884484285 -53.0330635112310631 63.38099897666583615 
	0 
	0 
	0 
	0 
	0 
	0 
	0 
	F 1 F 0 F 1 F 0 } I I I I #
tcoedge-coedge $-1 $10 $10 $14 $15 reversed $5 $16 -1 -0 #
loop $-1 $-1 $14 $7 #
spline-surface $-1 forward { exactsur full nurbs 2 1 both periodic open none none 4 2 
	0 2 0.3333333333333329818 2 0.6666666666666669627 2 1 2 
	0 1 3.404886202913178117 1 
	64.9999998874582019 -57.62925671706418029 77.62920095027548939 1 
	64.99999983503649048 -65.59009822167959669 69.66835912680024023 0.5 
	64.99999988522485239 -54.71538621473268904 66.75448906003940408 1 
	64.99999993541322851 -43.84067420778575297 63.84061899327856793 0.5 
	64.99999993764656381 -46.75454471011727264 74.71533088351466745 1 
	64.99999993987991331 -49.66841521244882074 85.59004277375076697 0.5 
	64.9999998874582019 -57.62925671706418029 77.62920095027548939 1 
	294.9999998874582161 -57.62925787428906688 77.62920059296280328 1 
	294.9999998350365331 -65.59009937890448327 69.66835876948755413 0.5 
	294.9999998852248382 -54.71538737195757562 66.75448870272671797 1 
	294.9999999354132569 -43.84067536501063955 63.84061863596588182 0.5 
	294.9999999376465212 -46.75454586734215923 74.71533052620198134 1 
	294.9999999398799559 -49.66841636967370732 85.59004241643808086 0.5 
	294.9999998874582161 -57.62925787428906688 77.62920059296280328 1 
	0 
	0 
	0 
	0 
	0 
	0 
	0 
	F 1 F 0 F 1 F 0 } I I I I #
tcoedge-coedge $-1 $13 $13 $17 $18 reversed $8 $19 -1 -0 #
tcoedge-coedge $-1 $20 $21 $10 $15 forward $11 $22 0 1 #
tedge-edge $-1 $23 0 $23 1 $10 $24 forward 7 unknown 0.0003454415010685621726 #
pcurve $-1 0 forward { exppc nubs 2 periodic 25 
	-1 2 -0.9583333333333333703 2 -0.9166666666666667407 2 -0.875 2 -0.8333333333333333703 2 
	-0.7916666666666667407 2 -0.75 2 -0.7083333333333333703 2 -0.6666666666666667407 2 -0.625 2 
	-0.5833333333333333703 2 -0.5416666666666667407 2 -0.5 2 -0.4583333333333333703 2 -0.4166666666666666852 2 
	-0.375 2 -0.3333333333333333703 2 -0.2916666666666666852 2 -0.25 2 -0.2083333333333333148 2 
	-0.1666666666666666297 2 -0.1249999999999999722 2 -0.08333333333333331483 2 -0.04166666666666665741 2 -0 2 
	0.9761904728635182327 0.4999999999999978906 
	0.9761904728635182327 0.5549857395386540437 
	0.9636591446302674724 0.6085244859315576127 
	0.9497354465933212087 0.6680119819236771672 
	0.9212454183023454091 0.7220577942907264735 
	0.8904761877480931176 0.7804272716471365445 
	0.8449951385031604367 0.8282312003072851425 
	0.7976190455396972023 0.8780269593282645779 
	0.7380952364317601155 0.9123930465399239242 
	0.6785714273238185879 0.9467591337515858241 
	0.6117589885291980778 0.9628901542795071933 
	0.5476190472863609049 0.978375933986312063 
	0.4816849818129473881 0.9758381306229892971 
	0.4206349211894178652 0.9734883126939868347 
	0.3621553894342514068 0.9558028409125479685 
	0.3095238108546074507 0.9398859163092547764 
	0.2619047635682503206 0.912393046539922925 
	0.2142857162818929684 0.8849001767705910737 
	0.1741854659354964141 0.8472783549809881354 
	0.1296296322172770243 0.805476330770317217 
	0.09706959988472591006 0.7537803363322587158 
	0.06190476496556814034 0.6979486623391517597 
	0.04324587296765450284 0.6346589539722191642 
	0.02380952713649014951 0.5687321744233162502 
	0.02380952713649017033 0.4999999999999989453 
	0.02380952713649015645 0.4312678255766840829 
	0.04324587296765585592 0.3653410460277783933 
	0.06190476496557492658 0.3020513376608290335 
	0.09706959988472328715 0.246219663667736427 
	0.1296296322172698634 0.1945236692296847258 
	0.1741854659354957757 0.152721645019007618 
	0.2142857162818991301 0.1150998232293982543 
	0.2619047635682482111 0.08760695346007082995 
	0.3095238108545995126 0.06011408369074212887 
	0.3621553894342496305 0.04419715908744727834 
	0.4206349211894202522 0.02651168730600738863 
	0.4816849818129507743 0.02416186937700500956 
	0.5476190472863575742 0.02162406601368261488 
	0.6117589885292000762 0.03710984572048865726 
	0.6785714273238216965 0.05324086624841020687 
	0.7380952364317621139 0.08760695346007187079 
	0.7976190455396966472 0.121973040671730204 
	0.8449951385031597706 0.1717687996927092231 
	0.8904761877480885657 0.2195727283528536022 
	0.9212454183023436327 0.2779422057092695852 
	0.9497354465933223189 0.3319880180763247757 
	0.9636591446302670283 0.391475514068438446 
	0.9761904728635182327 0.4450142604613447905 
	0.9761904728635182327 0.4999999999999978906 
	0.001000000000000000021 
	spline forward { ref 0 } I I I I 
	} 0 0 #
tcoedge-coedge $-1 $21 $20 $13 $18 forward $11 $25 0 1 #
tedge-edge $-1 $26 0 $26 1 $13 $27 forward 7 unknown 0.0003454415010587842953 #
pcurve $-1 0 forward { exppc nubs 2 periodic 25 
	-1 2 -0.9583333333333333703 2 -0.9166666666666667407 2 -0.875 2 -0.8333333333333333703 2 
	-0.7916666666666667407 2 -0.75 2 -0.7083333333333333703 2 -0.6666666666666667407 2 -0.625 2 
	-0.5833333333333333703 2 -0.5416666666666667407 2 -0.5 2 -0.4583333333333333703 2 -0.4166666666666666852 2 
	-0.375 2 -0.3333333333333333703 2 -0.2916666666666666852 2 -0.25 2 -0.2083333333333333148 2 
	-0.1666666666666666297 2 -0.1249999999999999722 2 -0.08333333333333331483 2 -0.04166666666666665741 2 -0 2 
	0.5000000000000021094 0.02380952713648184019 
	0.5549857395386578185 0.02380952713648182978 
	0.6085244859315616095 0.03634085536973262476 
	0.6680119819236843837 0.05026455340667974891 
	0.7220577942907319136 0.07875458169765466032 
	0.7804272716471385429 0.1095238122519050228 
	0.8282312003072905826 0.1550048614968411731 
	0.878026959328270018 0.202380954460304685 
	0.9123930465399281431 0.2619047635682398845 
	0.9467591337515900429 0.3214285726761815787 
	0.9628901542795110791 0.3882410114708027549 
	0.978375933986316948 0.4523809527136460895 
	0.9758381306229944041 0.5183150181870513906 
	0.9734883126939914977 0.5793650788105877414 
	0.9558028409125541858 0.6378446105657494813 
	0.9398859163092623259 0.6904761891453898848 
	0.9123930465399291423 0.7380952364317496794 
	0.8849001767705986232 0.7857142837181045891 
	0.8472783549809932424 0.8258145340645036692 
	0.8054763307703211028 0.8703703677827243634 
	0.753780336332264933 0.9029304001152739234 
	0.6979486623391546463 0.9380952350344335944 
	0.6346589539722221618 0.9567541270323473013 
	0.5687321744233257981 0.976190472863509684 
	0.5000000000000009992 0.976190472863509684 
	0.4312678255766876911 0.976190472863509684 
	0.365341046027781946 0.9567541270323439706 
	0.3020513376608336409 0.9380952350344252677 
	0.246219663667740063 0.902930400115276699 
	0.1945236692296936354 0.8703703677827336893 
	0.1527216450190126973 0.8258145340645035581 
	0.1150998232294049017 0.7857142837181019246 
	0.08760695346007708884 0.7380952364317518999 
	0.0601140836907433293 0.6904761891453916611 
	0.04419715908745104616 0.6378446105657513687 
	0.02651168730601480977 0.5793650788105939586 
	0.02416186937701141416 0.5183150181870493922 
	0.02162406601368833253 0.4523809527136369857 
	0.03710984572049287611 0.3882410114707999793 
	0.05324086624841488369 0.321428572676175639 
	0.08760695346007603412 0.2619047635682357766 
	0.1219730406717310922 0.2023809544603064892 
	0.1717687996927143579 0.1550048614968396743 
	0.2195727283528616514 0.1095238122519083673 
	0.2779422057092726939 0.07875458169765578442 
	0.3319880180763250532 0.05026455340667843052 
	0.3914755140684420542 0.03634085536973290925 
	0.4450142604613478992 0.02380952713648182978 
	0.5000000000000021094 0.02380952713648184019 
	0.001000000000000000021 
	spline forward { ref 1 } I I I I 
	} 0 0 #
coedge $-1 $17 $14 $21 $28 reversed $11 $29 #
coedge $-1 $14 $17 $20 $28 forward $11 $30 #
pcurve $-1 0 forward { exppc nubs 2 periodic 25 
	0 2 0.04166666666666666435 2 0.08333333333333332871 2 0.125 2 0.1666666666666666574 2 
	0.2083333333333333148 2 0.25 2 0.2916666666666666297 2 0.3333333333333333148 2 0.375 2 
	0.4166666666666666297 2 0.4583333333333333148 2 0.5 2 0.5416666666666666297 2 0.5833333333333332593 2 
	0.625 2 0.6666666666666666297 2 0.7083333333333332593 2 0.75 2 0.7916666666666667407 2 
	0.8333333333333333703 2 0.875 2 0.9166666666666667407 2 0.9583333333333333703 2 1 2 
	0 0 
	0.02203856749311299684 0 
	0.0416666666666667615 0 
	0.06345565749235473896 0 
	0.0833333333333332732 0 
	0.1047854785478821715 0 
	0.1250000000000522915 0 
	0.1460481099656610049 0 
	0.1666666666666664909 0 
	0.187285223367671394 0 
	0.208333333333279469 0 
	0.2285478547854491449 0 
	0.2499999999999975575 0 
	0.2698776758409760501 0 
	0.2916666666666640206 0 
	0.311294765840217591 0 
	0.3333333333333301507 0 
	0.3553719008264434875 0 
	0.3749999999999978351 0 
	0.3967889908256864162 0 
	0.4166666666666655194 0 
	0.4381188118812147092 0 
	0.4583333333333849957 0 
	0.4793814432989936258 0 
	0.4999999999999990563 0 
	0.5206185567010050974 0 
	0.5416666666666142271 0 
	0.5618811881187844026 0 
	0.5833333333333333703 0 
	0.6032110091743119185 0 
	0.625000000000000111 0 
	0.6446280991735553467 0 
	0.6666666666666697383 0 
	0.6887052341597819094 0 
	0.7083333333333349247 0 
	0.7301223241590233393 0 
	0.7500000000000022204 0 
	0.7714521452145509661 0 
	0.7916666666667208085 0 
	0.8127147766323292721 0 
	0.8333333333333348136 0 
	0.8539518900343401331 0 
	0.8749999999999484857 0 
	0.8952145214521188832 0 
	0.916666666666668406 0 
	0.9365443425076467321 0 
	0.9583333333333343695 0 
	0.9779614325068874958 0 
	1 0 
	0.001000000000000000021 
	spline forward { ref 2 } I I I I 
	} 0 0 #
tvertex-vertex $-1 $15 $31 6.355287432313019181e-14 #
intcurve-curve $-1 forward { exactcur full nurbs 2 periodic 4 
	0 2 0.3333333333333329818 2 0.6666666666666669627 2 1 2 
	64.9999998874582019 -57.62925671706423714 77.62920095027551781 1 
	64.99999983503649048 -65.59009822167962511 69.66835912680025444 0.5 
	64.99999988522485239 -54.71538621473277431 66.75448906003940408 1 
	64.99999993541322851 -43.84067420778578139 63.84061899327855372 0.5 
	64.99999993764656381 -46.75454471011735791 74.71533088351469587 1 
	64.99999993987991331 -49.66841521244884916 85.59004277375079539 0.5 
	64.9999998874582019 -57.62925671706423714 77.62920095027551781 1 
	0 
	null_surface 
	null_surface 
	nullbs 
	nullbs 
	I I 
	0 
	0 
	0 
	F 1 F 0 } I I #
pcurve $-1 0 forward { exppc nubs 2 periodic 25 
	0 2 0.04166666666666666435 2 0.08333333333333332871 2 0.125 2 0.1666666666666666574 2 
	0.2083333333333333148 2 0.25 2 0.2916666666666666297 2 0.3333333333333333148 2 0.375 2 
	0.4166666666666666297 2 0.4583333333333333148 2 0.5 2 0.5416666666666666297 2 0.5833333333333332593 2 
	0.625 2 0.6666666666666666297 2 0.7083333333333332593 2 0.75 2 0.7916666666666667407 2 
	0.8333333333333333703 2 0.875 2 0.9166666666666667407 2 0.9583333333333333703 2 1 2 
	1 3.404886202913178117 
	0.9779614325068877179 3.404886202913177673 
	0.9583333333333344806 3.404886202913177229 
	0.936544342507646399 3.404886202913177229 
	0.9166666666666678509 3.404886202913177673 
	0.8952145214521189942 3.404886202913178117 
	0.8749999999999488187 3.404886202913178117 
	0.8539518900343401331 3.404886202913177673 
	0.8333333333333348136 3.404886202913177229 
	0.8127147766323297162 3.404886202913178117 
	0.7916666666667215857 3.404886202913178117 
	0.7714521452145516323 3.404886202913178117 
	0.7500000000000028866 3.404886202913178117 
	0.7301223241590240054 3.404886202913178117 
	0.7083333333333355908 3.404886202913178117 
	0.6887052341597822425 3.404886202913178117 
	0.6666666666666697383 3.404886202913178117 
	0.6446280991735554577 3.404886202913178117 
	0.6250000000000003331 3.404886202913178117 
	0.6032110091743121405 3.404886202913178117 
	0.5833333333333334814 3.404886202913177673 
	0.5618811881187841806 3.404886202913177673 
	0.541666666666613783 3.404886202913177673 
	0.5206185567010047643 3.404886202913177673 
	0.4999999999999990563 3.404886202913178117 
	0.4793814432989932373 3.404886202913178117 
	0.4583333333333842741 3.404886202913178117 
	0.4381188118812147092 3.404886202913177229 
	0.4166666666666662966 3.404886202913177229 
	0.3967889908256870823 3.404886202913177229 
	0.3749999999999983902 3.404886202913178117 
	0.3553719008264437651 3.404886202913178117 
	0.3333333333333301507 3.404886202913178117 
	0.3112947658402176465 3.404886202913178117 
	0.2916666666666642427 3.404886202913178117 
	0.2698776758409765497 3.404886202913178117 
	0.2499999999999982514 3.404886202913178117 
	0.2285478547854492004 3.404886202913178117 
	0.2083333333332789694 3.404886202913178117 
	0.187285223367671172 3.404886202913178117 
	0.1666666666666664909 3.404886202913178117 
	0.1460481099656610882 3.404886202913178117 
	0.1250000000000525413 3.404886202913178117 
	0.1047854785478820605 3.404886202913178117 
	0.08333333333333260706 3.404886202913177673 
	0.0634556574923544614 3.404886202913177229 
	0.04166666666666692109 3.404886202913177673 
	0.0220385674931130697 3.404886202913178117 
	0 3.404886202913178117 
	0.001000000000000000021 
	spline forward { ref 2 } I I I I 
	} 0 0 #
tvertex-vertex $-1 $18 $32 6.852225994430906247e-14 #
intcurve-curve $-1 forward { exactcur full nurbs 2 periodic 4 
	0 2 0.3333333333333329818 2 0.6666666666666669627 2 1 2 
	294.9999998874582161 -57.62925787428912372 77.62920059296283171 1 
	294.9999999398799559 -49.66841636967372864 85.59004241643810929 0.5 
	294.9999999376465212 -46.75454586734224449 74.71533052620200976 1 
	294.9999999354132569 -43.84067536501066797 63.84061863596586761 0.5 
	294.9999998852248382 -54.71538737195766089 66.75448870272671797 1 
	294.9999998350365331 -65.5900993789045117 69.66835876948756834 0.5 
	294.9999998874582161 -57.62925787428912372 77.62920059296283171 1 
	0 
	null_surface 
	null_surface 
	nullbs 
	nullbs 
	I I 
	0 
	0 
	0 
	F 1 F 0 } I I #
edge $-1 $26 0 $23 1 $21 $33 forward 7 unknown #
pcurve $-1 0 forward { exppc nubs 2 open 7 
	-1 2 -0.8333333333333333703 2 -0.6666666666666667407 2 -0.5 2 -0.3333333333333333703 2 
	-0.1666666666666666297 2 -0 2 
	1 0 
	1 0.2837405169094314727 
	1 0.5674810338188629455 
	1 0.8512215507282945293 
	1 1.134962067637726113 
	1 1.418702584547157475 
	1 1.702443101456589059 
	1 1.986183618366020642 
	1 2.269924135275452226 
	1 2.55366465218488381 
	1 2.837405169094315394 
	1 3.121145686003746533 
	1 3.404886202913178117 
	0.001000000000000000021 
	spline forward { ref 2 } I I I I 
	} 0 0 #
pcurve $-1 0 forward { exppc nubs 2 open 7 
	0 2 0.1666666666666666574 2 0.3333333333333333148 2 0.5 2 0.6666666666666666297 2 
	0.8333333333333333703 2 1 2 
	0 3.404886202913178117 
	0 3.121145686003746533 
	0 2.837405169094315394 
	0 2.553664652184884254 
	0 2.26992413527545267 
	0 1.986183618366020864 
	0 1.702443101456589059 
	0 1.418702584547157697 
	0 1.134962067637726335 
	0 0.8512215507282946403 
	0 0.5674810338188629455 
	0 0.2837405169094314727 
	0 0 
	0.001000000000000000021 
	spline forward { ref 2 } I I I I 
	} 0 0 #
point $-1 64.9999998874582019 -57.62925671706423714 77.62920095027551781 #
point $-1 294.9999998874582161 -57.62925787428912372 77.62920059296283171 #
intcurve-curve $-1 forward { exactcur full nubs 1 open 2 
	0 1 1 1 
	294.9999998874582161 -57.62925787428912372 77.62920059296283171 
	64.9999998874582019 -57.62925671706423714 77.62920095027551781 
	0 
	null_surface 
	null_surface 
	nullbs 
	nullbs 
	I I 
	0 
	0 
	0 
	F 1 F 0 } I I #
End-of-ACIS-data 