600 0 1 0           
82 GICL ACIS Healer - Source: /gicl/data5/repository/SDRC_I-DEAS/bmw/Part40.sat - 6 0 18 ACIS 6.0.3 Solaris 24 Sat Apr 13 23:16:01 2002 
1 9.999999999999999547e-07 1.000000000000000036e-10 
body $-1 $1 $-1 $-1 #
lump $-1 $-1 $2 $0 #
shell $-1 $-1 $-1 $3 $-1 $1 #
face $-1 $4 $5 $2 $-1 $6 forward single #
face $-1 $7 $8 $2 $-1 $9 forward single #
loop $-1 $-1 $10 $3 #
plane-surface $-1 -359.0000000401286684 -66.50801094197115049 4.703221067181980075 6.024443579382206051e-10 0.9985430976274008996 -0.05396000538060440749 -0 0.05396000538060441443 0.9985430976274010106 forward_v I I I I #
face $-1 $11 $12 $2 $-1 $13 forward single #
loop $-1 $-1 $14 $4 #
plane-surface $-1 -359.0000000416303578 -68.99698541548278286 9.60781137323283474 3.294103884687056033e-10 0.5460022842616547578 0.8377836866286281214 1 0 -3.931926507119089936e-10 forward_v I I I I #
coedge $-1 $15 $16 $17 $18 reversed $5 $-1 #
face $-1 $19 $20 $2 $-1 $21 forward single #
loop $-1 $-1 $22 $7 #
plane-surface $-1 -359.0000000449438176 -74.48897245243347243 9.904591402826213198 -2.730333068975529208e-10 -0.4525408133657518039 0.8917436920092361996 1 -0 3.061791289853329286e-10 forward_v I I I I #
coedge $-1 $23 $24 $25 $26 reversed $8 $-1 #
coedge $-1 $27 $10 $24 $28 reversed $5 $-1 #
coedge $-1 $10 $27 $29 $30 forward $5 $-1 #
coedge $-1 $31 $25 $10 $18 forward $32 $-1 #
edge $-1 $33 0 $34 1 $10 $35 forward 7 unknown #
face $-1 $36 $37 $2 $-1 $38 forward single #
loop $-1 $-1 $39 $11 #
plane-surface $-1 -359.000000046755531 -77.49198501587250121 5.296781126368697912 -6.024443579382205017e-10 -0.9985430976274010106 0.05396000538060374135 0 -0.05396000538060374135 -0.9985430976274010106 forward_v I I I I #
coedge $-1 $40 $41 $42 $43 reversed $12 $-1 #
coedge $-1 $44 $14 $41 $45 reversed $8 $-1 #
coedge $-1 $14 $44 $15 $28 forward $8 $-1 #
coedge $-1 $17 $42 $14 $26 forward $32 $-1 #
edge $-1 $46 0 $33 1 $14 $47 forward 7 unknown #
coedge $-1 $16 $15 $48 $49 forward $5 $-1 #
edge $-1 $50 0 $33 1 $15 $51 forward 7 unknown #
coedge $-1 $52 $53 $16 $30 reversed $54 $-1 #
edge $-1 $55 0 $34 1 $16 $56 forward 7 unknown #
coedge $-1 $57 $17 $53 $58 forward $32 $-1 #
loop $-1 $-1 $57 $36 #
vertex $-1 $18 $59 #
vertex $-1 $18 $60 #
intcurve-curve $-1 forward { exactcur full nubs 1 open 2 
	0 1 1 1 
	-362.0000000400253271 -66.33666491018536249 7.874021261351405343 
	-362.0000000402320097 -66.67935697013697904 1.53242087301251928 
	0 
	null_surface 
	null_surface 
	nullbs 
	nullbs 
	I I 
	0 
	0 
	0 
	F 1 F 0 } I I #
face $-1 $61 $32 $2 $-1 $62 forward single #
loop $-1 $-1 $63 $19 #
plane-surface $-1 -359.0000000452538416 -75.00301054236086884 0.3921908203178148256 -3.294111325700964039e-10 -0.5460022842616546468 -0.8377836866286281214 -1 0 3.93193538890328642e-10 forward_v I I I I #
coedge $-1 $64 $65 $66 $67 reversed $20 $-1 #
coedge $-1 $68 $22 $65 $69 reversed $12 $-1 #
coedge $-1 $22 $68 $23 $45 forward $12 $-1 #
coedge $-1 $25 $66 $22 $43 forward $32 $-1 #
edge $-1 $70 0 $46 1 $22 $71 forward 7 unknown #
coedge $-1 $24 $23 $72 $73 forward $8 $-1 #
edge $-1 $74 0 $46 1 $23 $75 forward 7 unknown #
vertex $-1 $26 $76 #
intcurve-curve $-1 forward { exactcur full nubs 1 open 2 
	0 1 1 1 
	-362.0000000432353886 -71.65730591716028641 11.34160148511422861 
	-362.0000000400253271 -66.33666491018536249 7.874021261351405343 
	0 
	null_surface 
	null_surface 
	nullbs 
	nullbs 
	I I 
	0 
	0 
	0 
	F 1 F 0 } I I #
coedge $-1 $72 $77 $27 $49 reversed $78 $-1 #
edge $-1 $50 0 $55 1 $27 $79 forward 7 unknown #
vertex $-1 $49 $80 #
intcurve-curve $-1 forward { exactcur full nubs 1 open 2 
	0 1 1 1 
	-356.0000000400253271 -66.33666491380529351 7.87402126135144087 
	-362.0000000400253271 -66.33666491018536249 7.874021261351405343 
	0 
	null_surface 
	null_surface 
	nullbs 
	nullbs 
	I I 
	0 
	0 
	0 
	F 1 F 0 } I I #
coedge $-1 $81 $29 $77 $82 forward $54 $-1 #
coedge $-1 $29 $81 $31 $58 reversed $54 $-1 #
loop $-1 $-1 $53 $61 #
vertex $-1 $30 $83 #
intcurve-curve $-1 forward { exactcur full nubs 1 open 2 
	0 1 1 1 
	-356.0000000402320097 -66.67935697375692428 1.532420873012554807 
	-362.0000000402320097 -66.67935697013697904 1.53242087301251928 
	0 
	null_surface 
	null_surface 
	nullbs 
	nullbs 
	I I 
	0 
	0 
	0 
	F 1 F 0 } I I #
coedge $-1 $66 $31 $63 $84 reversed $32 $-1 #
edge $-1 $34 0 $85 1 $31 $86 forward 7 unknown #
point $-1 -362.0000000400253271 -66.33666491018536249 7.874021261351405343 #
point $-1 -362.0000000402320097 -66.67935697013697904 1.53242087301251928 #
face $-1 $87 $54 $2 $-1 $88 forward single #
plane-surface $-1 -362.0000000434421281 -72.0000008721094531 5.0000012532173157 -1 6.033183889832719889e-10 -4.27620591719297264e-15 -4.27620591719297264e-15 0 1 forward_v I I I I #
coedge $-1 $89 $90 $57 $84 forward $37 $-1 #
coedge $-1 $91 $39 $90 $92 reversed $20 $-1 #
coedge $-1 $39 $91 $40 $69 forward $20 $-1 #
coedge $-1 $42 $57 $39 $67 forward $32 $-1 #
edge $-1 $93 0 $70 1 $39 $94 forward 7 unknown #
coedge $-1 $41 $40 $95 $96 forward $12 $-1 #
edge $-1 $97 0 $70 1 $40 $98 forward 7 unknown #
vertex $-1 $43 $99 #
intcurve-curve $-1 forward { exactcur full nubs 1 open 2 
	0 1 1 1 
	-362.0000000466521897 -77.32063898408672742 8.467581320538162259 
	-362.0000000432353886 -71.65730591716028641 11.34160148511422861 
	0 
	null_surface 
	null_surface 
	nullbs 
	nullbs 
	I I 
	0 
	0 
	0 
	F 1 F 0 } I I #
coedge $-1 $95 $48 $44 $73 reversed $78 $-1 #
edge $-1 $74 0 $50 1 $44 $100 forward 7 unknown #
vertex $-1 $73 $101 #
intcurve-curve $-1 forward { exactcur full nubs 1 open 2 
	0 1 1 1 
	-356.0000000432353886 -71.65730592078021743 11.34160148511426058 
	-362.0000000432353886 -71.65730591716028641 11.34160148511422861 
	0 
	null_surface 
	null_surface 
	nullbs 
	nullbs 
	I I 
	0 
	0 
	0 
	F 1 F 0 } I I #
point $-1 -362.0000000432353886 -71.65730591716028641 11.34160148511422861 #
coedge $-1 $48 $102 $52 $82 reversed $78 $-1 #
loop $-1 $-1 $77 $103 #
intcurve-curve $-1 forward { exactcur full nubs 1 open 2 
	0 1 1 1 
	-356.0000000400253271 -66.33666491380529351 7.87402126135144087 
	-356.0000000402320097 -66.67935697375692428 1.532420873012554807 
	0 
	null_surface 
	null_surface 
	nullbs 
	nullbs 
	I I 
	0 
	0 
	0 
	F 1 F 0 } I I #
point $-1 -356.0000000400253271 -66.33666491380529351 7.87402126135144087 #
coedge $-1 $53 $52 $89 $104 reversed $54 $-1 #
edge $-1 $55 0 $105 1 $52 $106 forward 7 unknown #
point $-1 -356.0000000402320097 -66.67935697375692428 1.532420873012554807 #
edge $-1 $93 0 $85 1 $63 $107 forward 7 unknown #
vertex $-1 $84 $108 #
intcurve-curve $-1 forward { exactcur full nubs 1 open 2 
	0 1 1 1 
	-362.0000000402320097 -66.67935697013697904 1.53242087301251928 
	-362.0000000436488108 -72.34269003706346268 -1.341599291563596807 
	0 
	null_surface 
	null_surface 
	nullbs 
	nullbs 
	I I 
	0 
	0 
	0 
	F 1 F 0 } I I #
face $-1 $109 $110 $2 $-1 $111 forward single #
plane-surface $-1 -359.0000000419404387 -69.51102350541019348 0.09541079072447544718 2.730325148700532061e-10 0.4525408133657574106 -0.8917436920092335351 -1 0 -3.061782408069179847e-10 forward_v I I I I #
coedge $-1 $112 $63 $81 $104 forward $37 $-1 #
coedge $-1 $63 $112 $64 $92 forward $37 $-1 #
coedge $-1 $65 $64 $113 $114 forward $20 $-1 #
edge $-1 $115 0 $93 1 $64 $116 forward 7 unknown #
vertex $-1 $67 $117 #
intcurve-curve $-1 forward { exactcur full nubs 1 open 2 
	0 1 1 1 
	-362.0000000468589292 -77.66333104403835819 2.125980932199198037 
	-362.0000000466521897 -77.32063898408672742 8.467581320538162259 
	0 
	null_surface 
	null_surface 
	nullbs 
	nullbs 
	I I 
	0 
	0 
	0 
	F 1 F 0 } I I #
coedge $-1 $113 $72 $68 $96 reversed $78 $-1 #
edge $-1 $97 0 $74 1 $68 $118 forward 7 unknown #
vertex $-1 $96 $119 #
intcurve-curve $-1 forward { exactcur full nubs 1 open 2 
	0 1 1 1 
	-356.0000000466521897 -77.32063898770667265 8.467581320538197787 
	-362.0000000466521897 -77.32063898408672742 8.467581320538162259 
	0 
	null_surface 
	null_surface 
	nullbs 
	nullbs 
	I I 
	0 
	0 
	0 
	F 1 F 0 } I I #
point $-1 -362.0000000466521897 -77.32063898408672742 8.467581320538162259 #
intcurve-curve $-1 forward { exactcur full nubs 1 open 2 
	0 1 1 1 
	-356.0000000432353886 -71.65730592078021743 11.34160148511426058 
	-356.0000000400253271 -66.33666491380529351 7.87402126135144087 
	0 
	null_surface 
	null_surface 
	nullbs 
	nullbs 
	I I 
	0 
	0 
	0 
	F 1 F 0 } I I #
point $-1 -356.0000000432353886 -71.65730592078021743 11.34160148511426058 #
coedge $-1 $77 $113 $112 $120 reversed $78 $-1 #
face $-1 $-1 $121 $2 $-1 $122 forward single #
edge $-1 $85 0 $105 1 $89 $123 forward 7 unknown #
vertex $-1 $120 $124 #
intcurve-curve $-1 forward { exactcur full nubs 1 open 2 
	0 1 1 1 
	-356.0000000402320097 -66.67935697375692428 1.532420873012554807 
	-356.0000000436488108 -72.3426900406833937 -1.341599291563575491 
	0 
	null_surface 
	null_surface 
	nullbs 
	nullbs 
	I I 
	0 
	0 
	0 
	F 1 F 0 } I I #
intcurve-curve $-1 forward { exactcur full nubs 1 open 2 
	0 1 1 1 
	-362.0000000468589292 -77.66333104403835819 2.125980932199198037 
	-362.0000000436488108 -72.34269003706346268 -1.341599291563596807 
	0 
	null_surface 
	null_surface 
	nullbs 
	nullbs 
	I I 
	0 
	0 
	0 
	F 1 F 0 } I I #
point $-1 -362.0000000436488108 -72.34269003706346268 -1.341599291563596807 #
face $-1 $125 $126 $2 $-1 $127 forward single #
loop $-1 $-1 $128 $87 #
plane-surface $-1 -281.0000000434420144 -71.9999990765197424 5.00000086638501795 1 -6.033242629236878605e-10 5.759724047342283929e-15 5.759724047342283929e-15 0 -1 forward_v I I I I #
coedge $-1 $90 $89 $102 $120 forward $37 $-1 #
coedge $-1 $102 $95 $91 $114 reversed $78 $-1 #
edge $-1 $115 0 $97 1 $91 $129 forward 7 unknown #
vertex $-1 $114 $130 #
intcurve-curve $-1 forward { exactcur full nubs 1 open 2 
	0 1 1 1 
	-356.0000000468589292 -77.66333104765828921 2.125980932199233564 
	-362.0000000468589292 -77.66333104403835819 2.125980932199198037 
	0 
	null_surface 
	null_surface 
	nullbs 
	nullbs 
	I I 
	0 
	0 
	0 
	F 1 F 0 } I I #
point $-1 -362.0000000468589292 -77.66333104403835819 2.125980932199198037 #
intcurve-curve $-1 forward { exactcur full nubs 1 open 2 
	0 1 1 1 
	-356.0000000466521897 -77.32063898770667265 8.467581320538197787 
	-356.0000000432353886 -71.65730592078021743 11.34160148511426058 
	0 
	null_surface 
	null_surface 
	nullbs 
	nullbs 
	I I 
	0 
	0 
	0 
	F 1 F 0 } I I #
point $-1 -356.0000000466521897 -77.32063898770667265 8.467581320538197787 #
edge $-1 $105 0 $115 1 $112 $131 forward 7 unknown #
loop $-1 $78 $132 $103 #
plane-surface $-1 -356.0000000434421281 -71.99999934428323911 5.000001269902742074 -1 6.033200344524336196e-10 -4.722766247332291631e-15 -4.722766247332291631e-15 0 1 forward_v I I I I #
intcurve-curve $-1 forward { exactcur full nubs 1 open 2 
	0 1 1 1 
	-362.0000000436488108 -72.34269003706346268 -1.341599291563596807 
	-356.0000000436488108 -72.3426900406833937 -1.341599291563575491 
	0 
	null_surface 
	null_surface 
	nullbs 
	nullbs 
	I I 
	0 
	0 
	0 
	F 1 F 0 } I I #
point $-1 -356.0000000436488108 -72.3426900406833937 -1.341599291563575491 #
face $-1 $133 $134 $2 $-1 $135 forward single #
loop $-1 $-1 $136 $109 #
cone-surface $-1 -339.4000000437746962 -71.99999935429839582 5.000001269902826451 1 -6.033226149253768391e-10 5.987801272261038412e-15 2.268905063829151914e-09 3.760685778127239587 -1.36280683818055115 1 I I 0 1 4.000000000000018652 forward I I I I #
coedge $-1 $128 $128 $137 $138 reversed $110 $-1 #
intcurve-curve $-1 forward { exactcur full nubs 1 open 2 
	0 1 1 1 
	-356.0000000468589292 -77.66333104765828921 2.125980932199233564 
	-356.0000000466521897 -77.32063898770667265 8.467581320538197787 
	0 
	null_surface 
	null_surface 
	nullbs 
	nullbs 
	I I 
	0 
	0 
	0 
	F 1 F 0 } I I #
point $-1 -356.0000000468589292 -77.66333104765828921 2.125980932199233564 #
intcurve-curve $-1 forward { exactcur full nubs 1 open 2 
	0 1 1 1 
	-356.0000000436488108 -72.3426900406833937 -1.341599291563575491 
	-356.0000000468589292 -77.66333104765828921 2.125980932199233564 
	0 
	null_surface 
	null_surface 
	nullbs 
	nullbs 
	I I 
	0 
	0 
	0 
	F 1 F 0 } I I #
coedge $-1 $132 $132 $139 $140 reversed $121 $-1 #
face $-1 $103 $141 $2 $-1 $142 forward single #
loop $-1 $143 $144 $125 #
plane-surface $-1 -354.0000000434421281 -71.99999934548991121 5.000001269902755396 1 -6.033198299676844405e-10 8.506806483663199187e-15 8.506806483663199187e-15 0 -1 forward_v I I I I #
coedge $-1 $145 $146 $147 $148 forward $126 $-1 #
coedge $-1 $146 $145 $128 $138 forward $126 $-1 #
edge $-1 $149 0 $149 1 $128 $150 forward 7 unknown #
coedge $-1 $151 $152 $132 $140 forward $141 $-1 #
edge $-1 $153 0 $153 1 $139 $154 forward 7 unknown #
loop $-1 $-1 $139 $133 #
cone-surface $-1 -355.6000000434422077 -71.99999934452458206 5.000001269902749179 1 -6.033219594945213896e-10 4.803877729736011533e-15 4.254218310961732641e-09 7.051285833988544027 -2.555262821588560218 1 I I 0 1 7.500000000000016875 forward I I I I #
loop $-1 $-1 $147 $125 #
coedge $-1 $144 $144 $155 $156 reversed $134 $-1 #
coedge $-1 $137 $136 $146 $157 reversed $126 $-1 #
coedge $-1 $136 $137 $145 $157 forward $126 $-1 #
coedge $-1 $147 $147 $136 $148 reversed $143 $-1 #
edge $-1 $158 0 $158 1 $136 $159 forward 7 unknown #
vertex $-1 $138 $160 #
intcurve-curve $-1 forward { exactcur full nurbs 2 periodic 4 
	0 2 0.3333333333333329818 2 0.6666666666666669627 2 1 2 
	-281.0000000435722427 -72.21583941105485849 1.005828879393568798 1 
	-281.0000000477460844 -79.1339489256063473 1.37967476297715308 0.5 
	-281.000000045463878 -75.35113413604695154 7.184010406949791872 1 
	-281.0000000431816716 -71.5683193464875842 12.98834605092239158 0.5 
	-281.0000000412899794 -68.43302462149549115 6.810164523366186273 1 
	-281.0000000393983441 -65.29772989650334125 0.6319829958099701939 0.5 
	-281.0000000435722427 -72.21583941105485849 1.005828879393568798 1 
	0 
	null_surface 
	null_surface 
	nullbs 
	nullbs 
	I I 
	0 
	0 
	0 
	F 1 F 0 } I I #
coedge $-1 $155 $139 $152 $161 reversed $141 $-1 #
coedge $-1 $139 $155 $151 $161 forward $141 $-1 #
vertex $-1 $140 $162 #
intcurve-curve $-1 forward { exactcur full nurbs 2 periodic 4 
	0 2 0.3333333333333329818 2 0.6666666666666669627 2 1 2 
	-356.0000000436862706 -72.40469938463778021 -2.489071962302766394 1 
	-356.0000000358602961 -59.43324404485380796 -3.190032994022033108 0.5 
	-356.000000039407098 -65.31192165421394691 8.394057370145866059 1 
	-356.0000000429538431 -71.1905992635741427 19.97814773431376523 0.5 
	-356.0000000472330157 -78.28337699399799021 9.095018401865136326 1 
	-356.000000051512302 -85.37615472442176667 -1.788110930583492575 0.5 
	-356.0000000436862706 -72.40469938463778021 -2.489071962302766394 1 
	0 
	null_surface 
	null_surface 
	nullbs 
	nullbs 
	I I 
	0 
	0 
	0 
	F 1 F 0 } I I #
coedge $-1 $152 $151 $144 $156 forward $141 $-1 #
edge $-1 $163 0 $163 1 $144 $164 forward 7 unknown #
edge $-1 $149 0 $158 0.9733333333333330506 $146 $165 forward 7 unknown #
vertex $-1 $148 $166 #
intcurve-curve $-1 forward { exactcur full nurbs 2 periodic 4 
	0 2 0.3333333333333329818 2 0.6666666666666669627 2 1 2 
	-354.0000000435723564 -72.21583936701230755 1.005828879393142472 1 
	-354.0000000393984578 -65.29772985246073347 0.6319829958095224409 0.5 
	-354.00000004129015 -68.43302457745285494 6.810164523365813238 1 
	-354.0000000431817284 -71.56831930244501905 12.98834605092207539 0.5 
	-354.0000000454639917 -75.3511340920044006 7.184010406949422389 1 
	-354.0000000477461981 -79.13394888156388163 1.379674762976783597 0.5 
	-354.0000000435723564 -72.21583936701230755 1.005828879393142472 1 
	0 
	null_surface 
	null_surface 
	nullbs 
	nullbs 
	I I 
	0 
	0 
	0 
	F 1 F 0 } I I #
point $-1 -281.0000000435722427 -72.21583941105485849 1.005828879393568798 #
edge $-1 $163 0 $153 1 $152 $167 forward 7 unknown #
point $-1 -356.0000000436862706 -72.40469938463778021 -2.489071962302766394 #
vertex $-1 $156 $168 #
intcurve-curve $-1 forward { exactcur full nurbs 2 periodic 4 
	0 2 0.3333333333333329818 2 0.6666666666666669627 2 1 2 
	-354.0000000436862706 -72.40469938584442389 -2.489071962302752183 1 
	-354.0000000515122451 -85.37615472562841035 -1.788110930583485469 0.5 
	-354.0000000472330157 -78.28337699520463389 9.095018401865146984 1 
	-354.0000000429538431 -71.19059926478078637 19.97814773431377233 0.5 
	-354.000000039407098 -65.31192165542059058 8.394057370145876718 1 
	-354.0000000358602961 -59.43324404606045874 -3.190032994022025559 0.5 
	-354.0000000436862706 -72.40469938584442389 -2.489071962302752183 1 
	0 
	null_surface 
	null_surface 
	nullbs 
	nullbs 
	I I 
	0 
	0 
	0 
	F 1 F 0 } I I #
intcurve-curve $-1 forward { exactcur full nubs 1 open 2 
	0 1 0.9733333333333330506 1 
	-281.0000000435722427 -72.21583941105485849 1.005828879393568798 
	-354.0000000435723564 -72.21583936701230755 1.005828879393142472 
	0 
	null_surface 
	null_surface 
	nullbs 
	nullbs 
	I I 
	0 
	0 
	0 
	F 1 F 0 } I I #
point $-1 -354.0000000435723564 -72.21583936701230755 1.005828879393142472 #
intcurve-curve $-1 forward { exactcur full nubs 1 open 2 
	0 1 1 1 
	-354.0000000436862706 -72.40469938584442389 -2.489071962302752183 
	-356.0000000436862706 -72.40469938463778021 -2.489071962302766394 
	0 
	null_surface 
	null_surface 
	nullbs 
	nullbs 
	I I 
	0 
	0 
	0 
	F 1 F 0 } I I #
point $-1 -354.0000000436862706 -72.40469938584442389 -2.489071962302752183 #
End-of-ACIS-data 