600 0 1 0           
82 GICL ACIS Healer - Source: /gicl/data5/repository/SDRC_I-DEAS/bmw/Part20.sat - 6 0 18 ACIS 6.0.3 Solaris 24 Sat Apr 13 23:15:31 2002 
1 9.999999999999999547e-07 1.000000000000000036e-10 
body $-1 $1 $-1 $-1 #
lump $-1 $-1 $2 $0 #
shell $-1 $-1 $-1 $3 $-1 $1 #
face $-1 $4 $5 $2 $-1 $6 reversed single #
face $-1 $7 $8 $2 $-1 $9 reversed single #
loop $-1 $-1 $10 $3 #
plane-surface $-1 -318.5506844504162132 -7.503435598444164967 58.93393915383847315 0.3386289274237970215 0.5983105642654066303 0.7261920670182370197 0.9063077845118387987 0 -0.4226182671551745873 forward_v I I I I #
face $-1 $11 $12 $2 $-1 $13 reversed single #
loop $-1 $-1 $14 $4 #
cone-surface $-1 -319.9052001652994477 -9.896677827338210776 56.02917086497748755 0.3386289274238105662 0.5983105642653983036 0.7261920670182373527 0.8335181445353896379 -0.2851724221503850742 -0.1537219800829632277 1 I I 0 1 0.8942629673566175885 forward I I I I #
coedge $-1 $10 $10 $15 $16 forward $5 $-1 #
face $-1 $17 $18 $2 $-1 $19 reversed single #
loop $-1 $-1 $20 $7 #
plane-surface $-1 -322.3621317849748493 13.19029102898147698 43.66165867036620085 0.3386289274238164504 0.5983105642654030776 0.7261920670182308024 0.9063077845118280296 0 -0.4226182671551974024 forward_v I I I I #
coedge $-1 $21 $22 $23 $24 reversed $8 $-1 #
coedge $-1 $22 $21 $10 $16 reversed $8 $-1 #
edge $-1 $25 0 $25 1 $10 $26 forward 7 unknown #
face $-1 $27 $28 $2 $-1 $29 forward single #
loop $-1 $-1 $30 $11 #
cone-surface $-1 -323.7166475435820416 10.79704874913383428 40.75689044387472393 0.3386289274238164504 0.5983105642653971934 0.7261920670182356874 0.1095831732682768234 0.6257522397203540976 -0.566657536971725051 1 I I 0 1 0.8512785099986059922 forward I I I I #
coedge $-1 $20 $20 $31 $32 forward $12 $-1 #
coedge $-1 $15 $14 $22 $33 forward $8 $-1 #
coedge $-1 $14 $15 $21 $33 reversed $8 $-1 #
coedge $-1 $23 $23 $14 $24 forward $34 $-1 #
edge $-1 $35 0 $35 1 $14 $36 forward 7 unknown #
vertex $-1 $16 $37 #
intcurve-curve $-1 forward { exactcur full nurbs 2 periodic 4 
	0 2 0.3333333333333329818 2 0.6666666666666669627 2 1 2 
	-318.4195907539724431 -8.215190698505118405 59.4592250871918182 1 
	-319.8591935527530268 -8.071988525590761299 60.01253845570163037 0.5 
	-319.3360327058104531 -7.075956919705184589 58.94795284023460624 1 
	-318.8128718588677657 -6.079925313819593669 57.88336722476755369 0.5 
	-317.8964299070297557 -7.219159092619520379 58.39463947172477276 1 
	-316.9799879551918025 -8.358392871419480841 58.90591171868198472 0.5 
	-318.4195907539724431 -8.215190698505118405 59.4592250871918182 1 
	0 
	null_surface 
	null_surface 
	nullbs 
	nullbs 
	I I 
	0 
	0 
	0 
	F 1 F 0 } I I #
face $-1 $38 $39 $2 $-1 $40 forward single #
loop $-1 $41 $42 $17 #
plane-surface $-1 -324.05527705643118 10.19874136335415216 40.03069603108637864 -0.3386289274238033498 -0.598310564265395306 -0.7261920670182432369 -0.9063077845118370224 0 0.422618267155178029 forward_v I I I I #
coedge $-1 $43 $44 $45 $46 reversed $18 $-1 #
coedge $-1 $44 $43 $20 $32 reversed $18 $-1 #
edge $-1 $47 0 $47 1 $20 $48 forward 7 unknown #
edge $-1 $35 0 $25 1 $22 $49 forward 7 unknown #
loop $-1 $-1 $23 $38 #
vertex $-1 $24 $50 #
intcurve-curve $-1 forward { exactcur full nurbs 2 periodic 4 
	0 2 0.3333333333333329818 2 0.6666666666666669627 2 1 2 
	-320.1127353910914621 -11.20674351983210926 55.82826475210062256 1 
	-318.6731325923107647 -11.34994569274648057 55.27495138359078908 0.5 
	-319.5895745441488884 -10.21071191394651123 54.76367913663357712 1 
	-320.5060164959867848 -9.07147813514658452 54.25240688967637226 0.5 
	-321.0291773429294722 -10.06750974103218255 55.3169925051434177 1 
	-321.5523381898720459 -11.06354134691777347 56.38157812061042762 0.5 
	-320.1127353910914621 -11.20674351983210926 55.82826475210062256 1 
	0 
	null_surface 
	null_surface 
	nullbs 
	nullbs 
	I I 
	0 
	0 
	0 
	F 1 F 0 } I I #
point $-1 -318.4195907539724431 -8.215190698505118405 59.4592250871918182 #
face $-1 $-1 $51 $2 $-1 $52 forward single #
loop $-1 $-1 $53 $27 #
torus-surface $-1 -322.1495527818644291 -0.1481251033675063944 47.6668385874078524 -0.9294302612787651574 0.0924535803210511653 0.3572278333292429053 12.99999999999992006 2.000000000000085265 -0.3386289274238042379 -0.5983105642654007461 -0.726192067018238574 forward_v I I I I #
loop $-1 $-1 $45 $17 #
coedge $-1 $42 $42 $53 $54 reversed $28 $-1 #
coedge $-1 $31 $30 $44 $55 forward $18 $-1 #
coedge $-1 $30 $31 $43 $55 reversed $18 $-1 #
coedge $-1 $45 $45 $30 $46 forward $41 $-1 #
edge $-1 $56 0 $56 1 $30 $57 forward 7 unknown #
vertex $-1 $32 $58 #
intcurve-curve $-1 forward { exactcur full nurbs 2 periodic 4 
	0 2 0.3333333333333329818 2 0.6666666666666669627 2 1 2 
	-321.5709278259178063 13.11158726009569619 43.35755833426113526 1 
	-321.354780992419478 11.93804791169231727 44.22364796523129371 0.5 
	-322.6496604211221779 12.642873205043621 44.24675371627604648 1 
	-323.944539849824821 13.34769849839491229 44.26985946732078503 0.5 
	-322.8658072546203925 13.81641255344697328 43.38066408530586671 1 
	-321.7870746594160778 14.28512660849906091 42.49146870329095549 0.5 
	-321.5709278259178063 13.11158726009569619 43.35755833426113526 1 
	0 
	null_surface 
	null_surface 
	nullbs 
	nullbs 
	I I 
	0 
	0 
	0 
	F 1 F 0 } I I #
intcurve-curve $-1 forward { exactcur full nubs 1 open 2 
	0 1 1 1 
	-320.1127353910914621 -11.20674351983210926 55.82826475210062256 
	-318.4195907539724431 -8.215190698505118405 59.4592250871918182 
	0 
	null_surface 
	null_surface 
	nullbs 
	nullbs 
	I I 
	0 
	0 
	0 
	F 1 F 0 } I I #
point $-1 -320.1127353910914621 -11.20674351983210926 55.82826475210062256 #
loop $-1 $34 $59 $38 #
plane-surface $-1 -320.2438285072979056 -10.49499157008933281 55.30298114372932616 -0.3386289274238075131 -0.5983105642653997469 -0.7261920670182376858 -0.9063077845118338027 0 0.4226182671551849679 forward_v I I I I #
coedge $-1 $60 $61 $42 $54 forward $39 $-1 #
edge $-1 $62 0 $62 1 $42 $63 forward 7 unknown #
edge $-1 $56 0 $47 1 $44 $64 forward 7 unknown #
vertex $-1 $46 $65 #
intcurve-curve $-1 forward { exactcur full nurbs 2 periodic 4 
	0 2 0.3333333333333329818 2 0.6666666666666669627 2 1 2 
	-323.2640724630368254 10.12003443876870534 39.72659799916993961 1 
	-323.4802192965350969 11.29357378717203275 38.86050836819975984 0.5 
	-324.5589518917395253 10.82485973211999664 39.74970375021468527 1 
	-325.6376844869438401 10.35614567706792144 40.63889913222958938 0.5 
	-324.3428050582412538 9.651320383716615936 40.61579338118485794 1 
	-323.0479256295384971 8.946495090365296221 40.59268763014009096 0.5 
	-323.2640724630368254 10.12003443876870534 39.72659799916993961 1 
	0 
	null_surface 
	null_surface 
	nullbs 
	nullbs 
	I I 
	0 
	0 
	0 
	F 1 F 0 } I I #
point $-1 -321.5709278259178063 13.11158726009569619 43.35755833426113526 #
coedge $-1 $59 $59 $66 $67 reversed $51 $-1 #
coedge $-1 $66 $53 $61 $68 reversed $39 $-1 #
coedge $-1 $53 $66 $60 $68 forward $39 $-1 #
vertex $-1 $68 $69 #
intcurve-curve $-1 forward { exactcur full nurbs 2 periodic 4 
	0 2 0.3333333333333329818 2 0.6666666666666669627 2 1 2 
	-322.1964159484483048 10.01383102422632732 39.31624271019799721 1 
	-322.704232910722169 12.77095301102537661 37.28144535352188171 0.5 
	-325.2386152134216104 11.66975275858901995 39.37052753184768505 1 
	-327.7729975161208813 10.56855250615262065 41.45960971017346708 0.5 
	-324.7307982511476894 8.912630771789956441 41.40532488852378634 1 
	-321.6885989861743838 7.256709037427251374 41.35104006687409139 0.5 
	-322.1964159484483048 10.01383102422632732 39.31624271019799721 1 
	0 
	null_surface 
	null_surface 
	nullbs 
	nullbs 
	I I 
	0 
	0 
	0 
	F 1 F 0 } I I #
intcurve-curve $-1 forward { exactcur full nubs 1 open 2 
	0 1 1 1 
	-323.2640724630368254 10.12003443876870534 39.72659799916993961 
	-321.5709278259178063 13.11158726009569619 43.35755833426113526 
	0 
	null_surface 
	null_surface 
	nullbs 
	nullbs 
	I I 
	0 
	0 
	0 
	F 1 F 0 } I I #
point $-1 -323.2640724630368254 10.12003443876870534 39.72659799916993961 #
coedge $-1 $61 $60 $59 $67 forward $39 $-1 #
edge $-1 $70 0 $70 1 $66 $71 forward 7 unknown #
edge $-1 $70 0 $62 2.501851166488375799 $61 $72 forward 7 unknown #
point $-1 -322.1964159484483048 10.01383102422632732 39.31624271019799721 #
vertex $-1 $67 $73 #
intcurve-curve $-1 forward { exactcur full nurbs 2 periodic 4 
	0 2 0.3333333333333329818 2 0.6666666666666669627 2 1 2 
	-318.3849685701657108 -10.67989555224571063 54.58852313130072531 1 
	-318.892785532439575 -7.922773565446629362 52.55372577462460981 0.5 
	-321.4271678351389596 -9.023973817883010895 54.64280795295041315 1 
	-323.9615501378382874 -10.12517407031940309 56.73189013127617386 0.5 
	-320.9193508728650954 -11.78109580468208861 56.67760530962650023 1 
	-317.8771516078917898 -13.4370175390447848 56.62332048797681949 0.5 
	-318.3849685701657108 -10.67989555224571063 54.58852313130072531 1 
	0 
	null_surface 
	null_surface 
	nullbs 
	nullbs 
	I I 
	0 
	0 
	0 
	F 1 F 0 } I I #
intcurve-curve $-1 forward { exactcur full nurbs 2 open 3 
	0 2 1.2509255832441879 2 2.501851166488375799 2 
	-318.3849685701657108 -10.67989555224571063 54.58852313130072531 1 
	-313.9827925136561362 -2.901858216795528023 64.02902000253780557 0.7071067811865470176 
	-315.8885162027975184 7.445005071440498057 56.39287979198645928 1 
	-317.794239891938787 17.79186835967651348 48.75673958143509878 0.7071067811865470176 
	-322.1964159484483048 10.01383102422632732 39.31624271019799721 1 
	0 
	null_surface 
	null_surface 
	nullbs 
	nullbs 
	I I 
	0 
	0 
	0 
	F 1 F 0 } I I #
point $-1 -318.3849685701657108 -10.67989555224571063 54.58852313130072531 #
End-of-ACIS-data 