600 0 2 0           
24 FBMach with ACIS - 6.0.3 13 ACIS 6.0.3 NT 24 Wed May 23 19:55:05 2001 
1 9.9999999999999995e-007 1e-010 
body $2 $3 $-1 $-1 #
bdycol-kcp $-1 1 1 $4 #
model_id-kcp-attrib $-1 $-1 $-1 $0 1 990662105 110 544079873 1 #
lump $-1 $-1 $5 $0 #
body $6 $7 $-1 $8 #
shell $-1 $-1 $-1 $9 $-1 $3 #
model_id-kcp-attrib $-1 $-1 $-1 $4 1 990662105 160 547356674 1 #
lump $-1 $-1 $10 $4 #
transform $-1 1 0 0 0 1 0 0 0 1 -286.18970911519784 2.6865413628048191 30.135380535002543 1 no_rotate no_reflect no_shear #
face $11 $12 $13 $5 $-1 $14 forward single #
shell $-1 $-1 $-1 $15 $-1 $7 #
model_id-kcp-attrib $-1 $-1 $-1 $9 1 990662105 110 544079873 2 #
face $16 $17 $18 $5 $-1 $19 forward single #
loop $-1 $-1 $20 $9 #
spline-surface $-1 forward { exactsur full nurbs 2 1 both periodic open none none 4 2 
	2 2 3.7338397693680059 2 5.4676795387360118 2 7.2015193081040181 2 
	0 1 1 1 
	-253.77753325377952 2.8984313030391036 22.741492798369816 1 
	-255.89917357749007 13.660783772381883 18.1916202375944 0.5 
	-258.77735454888182 3.9319617969826695 12.019341410145973 1 
	-261.65553552027347 -5.7968601784165088 5.8470625826975464 0.5 
	-256.65571422517121 -6.8303906723601031 16.569213970921389 1 
	-251.65589293006894 -7.8639211663036619 27.291365359145228 0.5 
	-253.77753325377952 2.8984313030391036 22.741492798369816 1 
	-260.2070001370293 3.8045994766573514 27.883069220118578 1 
	-262.99195214115252 17.931704218971568 21.910720106544112 0.5 
	-266.76997039190303 5.1612539426681465 13.808734063760468 1 
	-270.54798864265342 -7.6091963336352038 5.7067480209769421 0.5 
	-263.98501838777975 -8.9658507996460415 19.781083177334992 1 
	-257.42204813290607 -10.322505265656865 33.855418333693095 0.5 
	-260.2070001370293 3.8045994766573514 27.883069220118578 1 
	0 
	0 
	0 
	0 
	0 
	0 
	0 
	F 1 F 0 F 1 F 0 } I I I I #
face $-1 $21 $22 $10 $-1 $23 forward single #
model_id-kcp-attrib $-1 $-1 $-1 $12 1 990662105 110 544079873 3 #
face $24 $25 $26 $5 $-1 $27 forward single #
loop $-1 $28 $29 $12 #
spline-surface $-1 forward { exactsur full nubs 1 1 open open none none 2 2 
	0 1 1 1 
	0 1 1 1 
	-317.24459290623383 -12.558921319396489 40.439047346830002 
	-310.00590112122825 -4.5692644386484602 55.962471823954829 
	-320.6211676848813 4.5692825051528132 33.197959042142287 
	-313.38247589987577 12.558939385900821 48.721383519267093 
	0 
	0 
	0 
	0 
	0 
	0 
	0 
	F 1 F 0 F 1 F 0 } I I I I #
coedge $-1 $30 $31 $32 $33 forward $13 $34 #
face $-1 $35 $36 $10 $-1 $37 reversed single #
loop $-1 $-1 $38 $15 #
plane-surface $-1 0 0 27.80957860795122 0 0 1 1 0 0 forward_v I I I I #
model_id-kcp-attrib $-1 $-1 $-1 $17 1 990662105 110 544079873 4 #
face $39 $40 $41 $5 $-1 $42 forward single #
loop $-1 $43 $44 $17 #
spline-surface $-1 forward { exactsur full nubs 1 1 open open none none 2 2 
	0 1 1 1 
	0 1 1 1 
	-254.47246974249362 12.558938865852689 21.251196506121261 
	-251.09589496384609 -4.5692649586965999 28.492284810808972 
	-261.7111615274992 4.5692819851046877 5.7277720289964549 
	-258.33458674885173 -12.558921839444622 12.968860333684169 
	0 
	0 
	0 
	0 
	0 
	0 
	0 
	F 1 F 0 F 1 F 0 } I I I I #
loop $-1 $-1 $45 $12 #
tcoedge-coedge $-1 $29 $29 $46 $47 reversed $18 $48 -1 0 #
tcoedge-coedge $-1 $32 $20 $44 $49 reversed $13 $50 -7.2015193081040181 -2 #
tcoedge-coedge $-1 $20 $32 $51 $52 reversed $13 $53 -7.2015193081040181 -2 #
coedge $-1 $31 $30 $20 $33 reversed $13 $54 #
edge $-1 $55 0 $56 1 $20 $57 forward 7 unknown #
pcurve $-1 0 forward { exppc nubs 2 open 7 
	0 2 0.16666666666666666 2 0.33333333333333331 2 0.5 2 0.66666666666666663 2 
	0.83333333333333337 2 1 2 
	2 1 
	2 0.91666666666666552 
	2 0.83333333333333104 
	2 0.74999999999999734 
	2 0.66666666666666374 
	2 0.58333333333333104 
	2 0.49999999999999833 
	2 0.41666666666666596 
	2 0.33333333333333354 
	2 0.24999999999999856 
	2 0.16666666666666363 
	2 0.083333333333331802 
	2 0 
	0.001 
	spline forward { ref 0 } I I I I 
	} 0 0 #
face $-1 $58 $59 $10 $-1 $60 reversed single #
loop $-1 $-1 $61 $21 #
plane-surface $-1 0 0 -27.80957860795122 0 0 1 1 0 0 forward_v I I I I #
coedge $-1 $62 $63 $64 $65 forward $22 $-1 #
model_id-kcp-attrib $-1 $-1 $-1 $25 1 990662105 110 544079873 5 #
face $66 $-1 $67 $5 $-1 $68 forward single #
loop $-1 $-1 $51 $25 #
spline-surface $-1 forward { exactsur full nurbs 2 1 both periodic open none none 4 2 
	0 2 0.47964483901907401 2 0.95928967803814802 2 1.438934517057223 2 
	0 1 1 1 
	-311.86654399811823 3.8045999326995528 51.972310139338788 1 
	-309.08159199399506 -10.322504809614649 57.944659252913283 0.5 
	-315.64456224886868 -8.9658503436038544 43.870324096555201 1 
	-322.20753250374236 -7.6091958775930308 29.795988940197155 0.5 
	-318.42951425299191 5.1612543987103479 37.897974982980685 1 
	-314.65149600224146 17.931704675013769 45.999961025764321 0.5 
	-311.86654399811823 3.8045999326995528 51.972310139338788 1 
	-252.9565378407361 3.8045994126514202 24.502123126192956 1 
	-250.17158583661291 -10.322505329662782 30.474472239767419 0.5 
	-256.73455609148658 -8.9658508636519869 16.400137083409369 1 
	-263.29752634636026 -7.6091963976411634 2.325801927051323 0.5 
	-259.51950809560986 5.1612538786622153 10.427787969834849 1 
	-255.74148984485933 17.931704154965637 18.529774012618493 0.5 
	-252.9565378407361 3.8045994126514202 24.502123126192956 1 
	0 
	0 
	0 
	0 
	0 
	0 
	0 
	F 1 F 0 F 1 F 0 } I I I I #
loop $-1 $-1 $69 $17 #
tcoedge-coedge $-1 $44 $44 $30 $49 forward $26 $70 2 7.2015193081040181 #
tcoedge-coedge $-1 $45 $45 $71 $72 reversed $28 $73 -1 0 #
tcoedge-coedge $-1 $74 $75 $29 $47 forward $41 $76 0 1 #
tedge-edge $-1 $77 0 $77 1 $29 $78 forward 7 unknown 0.00029989004048318248 #
pcurve $-1 0 forward { exppc nubs 2 periodic 37 
	-1 2 -0.95833333333333337 2 -0.91666666666666674 2 -0.89583333333333337 2 -0.875 2 
	-0.85416666666666674 2 -0.83333333333333337 2 -0.8125 2 -0.79166666666666674 2 -0.77083333333333337 2 
	-0.75 2 -0.70833333333333337 2 -0.66666666666666674 2 -0.625 2 -0.58333333333333337 2 
	-0.5625 2 -0.54166666666666674 2 -0.52083333333333337 2 -0.5 2 -0.47916666666666669 2 
	-0.45833333333333337 2 -0.4375 2 -0.41666666666666669 2 -0.375 2 -0.33333333333333337 2 
	-0.29166666666666669 2 -0.25 2 -0.22916666666666666 2 -0.20833333333333331 2 -0.18749999999999997 2 
	-0.16666666666666663 2 -0.14583333333333331 2 -0.12499999999999997 2 -0.10416666666666664 2 -0.083333333333333315 2 
	-0.041666666666666657 2 0 2 
	0.97618966105535576 0.4999999356298756 
	0.97618966105535576 0.55498567683590272 
	0.96365833244210419 0.60852442485231995 
	0.94973463398293645 0.66801192264833609 
	0.92124460482803294 0.72205773665426209 
	0.90616164821660661 0.75067022642211811 
	0.88734815223008434 0.776980348421487 
	0.86796455030456987 0.80408774684508844 
	0.84499432271664732 0.82823114589041191 
	0.82155048218877424 0.85287234697790015 
	0.79484250656413957 0.87393146585228776 
	0.76785632286008521 0.8952099505482809 
	0.73809441740362502 0.91239299467516433 
	0.70833251194715752 0.92957603880205197 
	0.67641171179436865 0.94230751709295724 
	0.64481999205552321 0.9549077430303492 
	0.61175816567005048 0.96289010394601682 
	0.57936425496914001 0.97071120504520447 
	0.54619675834103631 0.97394419751774419 
	0.51400477631963704 0.97708210197638612 
	0.481684155009451 0.97583808068213185 
	0.42063409253464379 0.97348826268187338 
	0.36215455900615051 0.95580279036414217 
	0.30952297883049879 0.93988586527818174 
	0.26190393010015778 0.9123929946751651 
	0.21428488136981491 0.88490012407214746 
	0.17418462980741525 0.84727830114169722 
	0.12962879473808381 0.80547627566342062 
	0.097068761418190444 0.75378027965774552 
	0.079831096719440026 0.7264118111841793 
	0.066452610684562818 0.69696378472613241 
	0.052668715981984665 0.66662339383001279 
	0.043245032868984526 0.63465889368547868 
	0.033627047011379876 0.60203533168227208 
	0.028743302897168824 0.56837598687054358 
	0.023808686448433043 0.53436602388368093 
	0.023808686448433061 0.4999999356298741 
	0.023808686448433064 0.46563384737605218 
	0.028743302897166034 0.43162388438920568 
	0.033627047011372785 0.39796453957750333 
	0.043245032868985386 0.36534097757427025 
	0.052668715981990633 0.33337647742971932 
	0.06645261068456032 0.30303608653361841 
	0.079831096719423011 0.27358806007560355 
	0.097068761418194205 0.24621959160200457 
	0.12962879473808767 0.19452359559632981 
	0.17418462980741942 0.15272157011805329 
	0.21428488136981982 0.11509974718760269 
	0.26190393010016072 0.087606876584586504 
	0.30952297883050528 0.060114005981568262 
	0.36215455900615684 0.044197080895607921 
	0.42063409253464867 0.026511608577877183 
	0.481684155009448 0.024161790577619215 
	0.51400477631964714 0.022917769283364552 
	0.5461967583410352 0.026055673742005403 
	0.5793642549691298 0.029288666214544228 
	0.6117581656700507 0.037109767313734512 
	0.64481999205552865 0.045092128229403436 
	0.67641171179436754 0.057692354166792838 
	0.70833251194715952 0.070423832457699342 
	0.73809441740362502 0.087606876584585755 
	0.76785632286009098 0.10478992071147245 
	0.79484250656414124 0.12606840540746214 
	0.82155048218876336 0.14712752428183978 
	0.84499432271664709 0.17176872536933913 
	0.86796455030457609 0.19591212441466954 
	0.88734815223008456 0.22301952283826293 
	0.90616164821660505 0.24932964483762959 
	0.92124460482803283 0.27794213460548856 
	0.94973463398294666 0.33198794861143421 
	0.96365833244211019 0.39147544640743054 
	0.97618966105535576 0.44501419442382029 
	0.97618966105535576 0.4999999356298756 
	0.001 
	spline forward { ref 1 } I I I I 
	} 0 0 #
tedge-edge $-1 $56 2 $56 7.2015193081040181 $30 $79 forward 7 unknown 0.00036438266763858668 #
pcurve $-1 0 forward { exppc nubs 2 periodic 25 
	-7.2015193081040181 2 -6.9847893369330176 2 -6.7680593657620172 2 -6.5513293945910167 2 -6.3345994234200154 2 
	-6.117869452249014 2 -5.9011394810780136 2 -5.6844095099070131 2 -5.4676795387360126 2 -5.2509495675650122 2 
	-5.0342195963940108 2 -4.8174896252230095 2 -4.600759654052009 2 -4.3840296828810086 2 -4.1672997117100081 2 
	-3.9505697405390072 2 -3.7338397693680063 2 -3.5171097981970054 2 -3.3003798270260045 2 -3.0836498558550036 2 
	-2.8669198846840027 2 -2.6501899135130023 2 -2.4334599423420014 2 -2.2167299711710005 2 -2 2 
	2 0 
	2.1146340343383812 0 
	2.2167299711710018 0 
	2.3300658276549173 4.9845600842056996e-016 
	2.4334599423419987 9.5318780557617771e-016 
	2.5450436898757296 4.6243764824981575e-016 
	2.6501899135132776 0 
	2.7596720638984866 0 
	2.8669198846840027 0 
	2.9741677054695255 0 
	3.0836498558547403 0 
	3.1887960794922776 0 
	3.3003798270259961 0 
	3.4037739417130837 0 
	3.5171097981970072 0 
	3.6192057350296265 0 
	3.7338397693680059 0 
	3.8484738037063848 0 
	3.9505697405390037 0 
	4.0639055970229236 0 
	4.1672997117100081 0 
	4.278883459243735 0 
	4.3840296828812804 0 
	4.4935118332664912 0 
	4.600759654052009 0 
	4.7080074748375296 0 
	4.8174896252227404 0 
	4.9226358488602857 0 
	5.0342195963940135 0 
	5.1376137110810944 1.3080208771697347e-016 
	5.2509495675650086 2.7418129925288627e-016 
	5.3530455043976302 1.4502151365441916e-016 
	5.4676795387360118 0 
	5.5823135730743942 0 
	5.6844095099070167 0 
	5.7977453663909371 9.2473545087437515e-016 
	5.9011394810780224 1.7683537569352087e-015 
	6.0127232286117449 8.5791419890913948e-016 
	6.1178694522492858 0 
	6.2273516026344966 0 
	6.3345994234200145 0 
	6.4418472442055341 0 
	6.5513293945907467 0 
	6.6564756182282903 0 
	6.7680593657620163 0 
	6.871453480449099 0 
	6.9847893369330158 0 
	7.0868852737656365 0 
	7.2015193081040181 0 
	0.001 
	spline forward { ref 0 } I I I I 
	} 0 0 #
tcoedge-coedge $-1 $75 $74 $31 $52 forward $41 $80 2 7.2015193081040181 #
tedge-edge $-1 $55 2 $55 7.2015193081040181 $31 $81 forward 7 unknown 9.9999965034356301e-010 #
pcurve $-1 0 forward { exppc nubs 2 periodic 37 
	-7.2015193081040181 2 -6.9847893369330176 2 -6.7680593657620172 2 -6.6596943801765169 2 -6.5513293945910167 2 
	-6.4429644090055156 2 -6.3345994234200154 2 -6.2262344378345151 2 -6.117869452249014 2 -6.0095044666635138 2 
	-5.9011394810780136 2 -5.6844095099070131 2 -5.4676795387360126 2 -5.2509495675650122 2 -5.0342195963940108 2 
	-4.9258546108085106 2 -4.8174896252230095 2 -4.7091246396375093 2 -4.600759654052009 2 -4.4923946684665088 2 
	-4.3840296828810086 2 -4.2756646972955084 2 -4.1672997117100081 2 -3.9505697405390072 2 -3.7338397693680063 2 
	-3.5171097981970054 2 -3.3003798270260045 2 -3.1920148414405043 2 -3.0836498558550036 2 -2.9752848702695029 2 
	-2.8669198846840027 2 -2.7585548990985025 2 -2.6501899135130023 2 -2.541824927927502 2 -2.4334599423420014 2 
	-2.2167299711710005 2 -2 2 
	7.2015193081040181 1 
	7.0868852737656383 1 
	6.9847893369330194 1 
	6.871453480449099 0.99999999999999933 
	6.7680593657620154 0.99999999999999889 
	6.712949544241777 0.99999999999998557 
	6.6596943801765471 0.9999999999999728 
	6.6048294882310206 0.99999999999963363 
	6.5513293945925728 0.99999999999930322 
	6.4967290419574359 0.9999999999996535 
	6.4429644090055165 0.99999999999999867 
	6.3886411824652516 0.99999999999999845 
	6.3345994234200145 0.99999999999999822 
	6.2805576643747791 0.99999999999999911 
	6.2262344378345169 1 
	6.1724698048825983 0.99999999999965672 
	6.1178694522474641 0.99999999999930822 
	6.0643693586090119 0.99999999999963562 
	6.00950446666348 0.99999999999997125 
	5.9562493025982519 0.99999999999998535 
	5.9011394810780171 1 
	5.7977453663909326 1 
	5.6844095099070122 1 
	5.5823135730743925 0.99999999999999878 
	5.4676795387360118 0.99999999999999734 
	5.353045504397631 0.99999999999999822 
	5.2509495675650122 0.99999999999999911 
	5.1376137110810944 0.99999999999999956 
	5.03421959639401 1 
	4.9791097748737734 0.99999999999998612 
	4.9258546108085417 0.99999999999997247 
	4.8709897188630116 0.99999999999963429 
	4.817489625224562 0.99999999999930478 
	4.7628892725894278 0.99999999999965516 
	4.7091246396375093 1 
	4.6548014130972462 1 
	4.600759654052009 1 
	4.5467178950067719 1 
	4.4923946684665079 1 
	4.4386300355145885 0.99999999999965417 
	4.3840296828794525 0.99999999999930289 
	4.3305295892410047 0.9999999999996334 
	4.2756646972954782 0.99999999999997213 
	4.2224095332302465 0.99999999999998479 
	4.1672997117100072 0.99999999999999811 
	4.0639055970229254 0.99999999999999911 
	3.9505697405390094 1 
	3.8484738037063879 0.99999999999999956 
	3.7338397693680059 0.999999999999999 
	3.6192057350296265 0.99999999999999956 
	3.5171097981970076 1 
	3.4037739417130912 0.99999999999999956 
	3.300379827026009 0.99999999999999911 
	3.2452700055057697 0.99999999999998423 
	3.1920148414405376 0.99999999999996991 
	3.1371499494950097 0.9999999999996334 
	3.0836498558565615 0.99999999999930522 
	3.0290495032214224 0.99999999999965516 
	2.9752848702694994 1 
	2.9209616437292372 0.99999999999999989 
	2.8669198846840027 1 
	2.8128781256387669 1 
	2.7585548990985038 1 
	2.7047902661465812 0.99999999999965583 
	2.6501899135114431 0.99999999999930633 
	2.5966898198729966 0.99999999999963496 
	2.5418249279274705 0.99999999999997169 
	2.4885697638622375 0.99999999999998557 
	2.4334599423419978 1 
	2.3300658276549155 1 
	2.2167299711709996 1 
	2.1146340343383798 1 
	2 1 
	0.001 
	spline forward { ref 0 } I I I I 
	} 0 0 #
pcurve $-1 0 forward { exppc nubs 2 open 7 
	-1 2 -0.83333333333333337 2 -0.66666666666666674 2 -0.5 2 -0.33333333333333337 2 
	-0.16666666666666663 2 0 2 
	7.2015193081040181 0 
	7.2015193081040181 0.083333333333331802 
	7.2015193081040181 0.16666666666666363 
	7.2015193081040181 0.24999999999999856 
	7.2015193081040181 0.33333333333333354 
	7.2015193081040181 0.41666666666666596 
	7.2015193081040181 0.49999999999999833 
	7.2015193081040181 0.58333333333333193 
	7.2015193081040181 0.66666666666666563 
	7.201519308104019 0.74999999999999845 
	7.2015193081040181 0.83333333333333104 
	7.2015193081040181 0.91666666666666552 
	7.2015193081040181 1 
	0.001 
	spline forward { ref 0 } I I I I 
	} 0 0 #
tvertex-vertex $-1 $52 $82 1.9131948672901813e-014 #
tvertex-vertex $-1 $49 $83 1.3024463484486659e-013 #
intcurve-curve $-1 forward { exactcur full nubs 1 open 2 
	0 1 1 1 
	-260.2070001370293 3.8045994766573514 27.883069220118578 
	-253.77753325377955 2.8984313030390467 22.741492798369702 
	0 
	null_surface 
	null_surface 
	nullbs 
	nullbs 
	I I 
	0 
	0 
	0 
	F 1 F 0 } I I #
face $-1 $84 $85 $10 $-1 $86 reversed single #
loop $-1 $-1 $87 $35 #
plane-surface $-1 0 -15.245463202249441 0 0 1 0 0 0 1 forward_v I I I I #
coedge $-1 $88 $89 $90 $91 forward $36 $-1 #
coedge $-1 $92 $38 $93 $94 forward $22 $-1 #
coedge $-1 $38 $92 $95 $96 forward $22 $-1 #
coedge $-1 $97 $98 $38 $65 reversed $99 $-1 #
edge $-1 $100 -15.245463202249441 $101 15.245463202249441 $64 $102 forward 7 unknown #
model_id-kcp-attrib $-1 $-1 $-1 $40 1 990662105 110 544079873 6 #
loop $-1 $-1 $71 $40 #
spline-surface $-1 forward { exactsur full nurbs 2 1 both periodic open none none 4 2 
	0 2 0.33333333333333298 2 0.66666666666666696 2 1 2 
	0 1 1.2509255832441879 1 
	-313.39854229524781 2.1136672200635971 48.686929220947427 1 
	-314.94573785309404 9.9620587435714825 45.368957491183799 0.5 
	-317.04463688128874 2.8673641456251744 40.867854134081782 1 
	-319.14353590948338 -4.2273304523211479 36.366750776979828 0.5 
	-315.4974413234425 -4.9810273778827323 44.185825863845409 1 
	-311.85134673740157 -5.7347243034443025 52.004900950711018 0.5 
	-313.39854229524781 2.1136672200635971 48.686929220947427 1 
	-254.48853613786565 2.1136667000154645 21.216742207801591 1 
	-256.03573169571189 9.9620582235233499 17.898770478037967 0.5 
	-258.13463072390658 2.8673636255770489 13.397667120935953 1 
	-260.23352975210128 -4.2273309723692805 8.8965637638339921 0.5 
	-256.58743516606035 -4.9810278979308649 16.715638850699577 1 
	-252.94134058001939 -5.7347248234924351 24.534713937565158 0.5 
	-254.48853613786565 2.1136667000154645 21.216742207801591 1 
	0 
	0 
	0 
	0 
	0 
	0 
	0 
	F 1 F 0 F 1 F 0 } I I I I #
tcoedge-coedge $-1 $69 $69 $103 $104 reversed $43 $105 -1 0 #
pcurve $-1 0 forward { exppc nubs 2 periodic 25 
	2 2 2.2167299711710005 2 2.4334599423420014 2 2.6501899135130023 2 2.8669198846840027 2 
	3.0836498558550036 2 3.3003798270260045 2 3.517109798197005 2 3.7338397693680059 2 3.9505697405390068 2 
	4.1672997117100072 2 4.3840296828810086 2 4.600759654052009 2 4.8174896252230095 2 5.03421959639401 2 
	5.2509495675650104 2 5.4676795387360118 2 5.6844095099070131 2 5.9011394810780136 2 6.117869452249014 2 
	6.3345994234200154 2 6.5513293945910167 2 6.7680593657620172 2 6.9847893369330176 2 7.2015193081040181 2 
	0.50000006437012434 0.13722798918139353 
	0.54188946339714628 0.13722798918139353 
	0.5826765098182104 0.14677464278841404 
	0.62799545028605863 0.15738203568510331 
	0.6691687912100539 0.17908639345832106 
	0.71363599940797717 0.20252709985340064 
	0.7500541299906619 0.23717560755691647 
	0.78798968268095826 0.27326780308141185 
	0.81417055707285158 0.31861440771474958 
	0.84035143146474311 0.36396101234808415 
	0.85264041332216423 0.4148602624467369 
	0.86443783590528755 0.46372354254143988 
	0.86250447902711713 0.51395362767374919 
	0.86071433376955164 0.56046296575922749 
	0.84724113525208489 0.60501401592531823 
	0.83511525658636732 0.64510996107479124 
	0.81417055707285113 0.68138724478146462 
	0.79322585755933939 0.71766452848813 
	0.76456468980399983 0.74821382003059334 
	0.73271894785362401 0.78215747729999552 
	0.69333575218718768 0.80696245761224794 
	0.65080190086743994 0.83375183634947847 
	0.60258634770162689 0.84796660874066643 
	0.55236181315391464 0.86277366331481764 
	0.50000006437012434 0.86277366331481764 
	0.44763831558632622 0.86277366331481764 
	0.39741378103862229 0.84796660874066987 
	0.34919822787281818 0.83375183634948546 
	0.3066643765530635 0.80696245761225027 
	0.26728118088663078 0.78215747729999974 
	0.23543543893624977 0.748213820030592 
	0.20677427118091335 0.71766452848813189 
	0.18582957166739875 0.68138724478146162 
	0.16488487215387884 0.64510996107478213 
	0.15275899348816327 0.60501401592531545 
	0.13928579497069773 0.56046296575922883 
	0.13749564971313213 0.51395362767374841 
	0.1355622928349616 0.46372354254143866 
	0.1473597154180844 0.41486026244673779 
	0.1596486972755049 0.36396101234808742 
	0.18582957166739797 0.31861440771474958 
	0.21201044605929098 0.2732678030814118 
	0.24994599874958742 0.23717560755691575 
	0.28636412933227096 0.20252709985340045 
	0.33083133753019467 0.17908639345832095 
	0.37200467845417939 0.15738203568510903 
	0.41732361892203845 0.14677464278841706 
	0.45811066534311484 0.13722798918139351 
	0.50000006437012434 0.13722798918139353 
	0.001 
	spline forward { ref 2 } I I I I 
	} 0 0 #
tcoedge-coedge $-1 $106 $107 $45 $72 forward $67 $108 0 1 #
tedge-edge $-1 $109 0 $109 1 $45 $110 forward 7 unknown 0.00026572423160739424 #
pcurve $-1 0 forward { exppc nubs 2 periodic 25 
	-1 2 -0.95833333333333337 2 -0.91666666666666674 2 -0.875 2 -0.83333333333333337 2 
	-0.79166666666666674 2 -0.75 2 -0.70833333333333337 2 -0.66666666666666674 2 -0.625 2 
	-0.58333333333333337 2 -0.54166666666666674 2 -0.5 2 -0.45833333333333337 2 -0.41666666666666669 2 
	-0.375 2 -0.33333333333333337 2 -0.29166666666666669 2 -0.25 2 -0.20833333333333331 2 
	-0.16666666666666663 2 -0.12499999999999997 2 -0.083333333333333315 2 -0.041666666666666657 2 0 2 
	0.76454944447603657 0.4999999356298756 
	0.76454944447603657 0.46945230162651214 
	0.7575875952464558 0.43970855272851722 
	0.74985220721358858 0.40665994284185764 
	0.73402441323863432 0.37663449061632781 
	0.71693039574568773 0.34420700221276324 
	0.69166314539897689 0.31764926326291099 
	0.66534309295448513 0.2899849518568135 
	0.63227430911396398 0.27089268060471494 
	0.59920552527344528 0.25180040935261777 
	0.56208750259531381 0.24283873100979678 
	0.52645420082430827 0.23423551980068874 
	0.48982416333942586 0.23564541060084343 
	0.45590746196453569 0.23695086504543109 
	0.4234188322264798 0.24677612744417168 
	0.39417906546222559 0.25561886360303943 
	0.36772403838981582 0.27089268060471422 
	0.34126901131740384 0.28616649760639035 
	0.3189910937827376 0.30706751034552915 
	0.29423785207755582 0.33029085783345841 
	0.27614894467761347 0.35901085561439167 
	0.25661292468568475 0.39002845321778534 
	0.24624687326138803 0.42518940337676114 
	0.23544890302774926 0.46181539312568182 
	0.23544890302774926 0.4999999356298741 
	0.23544890302774923 0.538184478134069 
	0.24624687326138819 0.57481046788298773 
	0.25661292468568664 0.60997141804196686 
	0.27614894467761419 0.64098901564535826 
	0.29423785207755554 0.66970901342628963 
	0.31899109378273954 0.69293236091422095 
	0.34126901131740817 0.71383337365336197 
	0.36772403838981882 0.72910719065503704 
	0.39417906546222192 0.74438100765670778 
	0.42341883222648435 0.75322374381557822 
	0.45590746196454368 0.76304900621432015 
	0.4898241633394223 0.76435446065890744 
	0.52645420082430572 0.7657643514590623 
	0.56208750259531026 0.75716114024995496 
	0.59920552527344739 0.74819946190713305 
	0.63227430911396398 0.72910719065503704 
	0.66534309295448613 0.71001491940293793 
	0.69166314539897866 0.68235060799683966 
	0.71693039574569184 0.65579286904698508 
	0.73402441323863732 0.62336538064342406 
	0.74985220721358636 0.5933399284179055 
	0.75758759524645658 0.56029131853123315 
	0.76454944447603657 0.53054756963324157 
	0.76454944447603657 0.4999999356298756 
	0.001 
	spline forward { ref 1 } I I I I 
	} 0 0 #
coedge $-1 $51 $46 $75 $111 reversed $41 $112 #
coedge $-1 $46 $51 $74 $111 forward $41 $113 #
pcurve $-1 0 forward { exppc nubs 2 periodic 37 
	0 2 0.041666666666666664 2 0.083333333333333329 2 0.10416666666666666 2 0.125 2 
	0.14583333333333331 2 0.16666666666666666 2 0.1875 2 0.20833333333333331 2 0.22916666666666666 2 
	0.25 2 0.29166666666666663 2 0.33333333333333331 2 0.375 2 0.41666666666666663 2 
	0.4375 2 0.45833333333333331 2 0.47916666666666663 2 0.5 2 0.52083333333333326 2 
	0.54166666666666663 2 0.5625 2 0.58333333333333326 2 0.625 2 0.66666666666666663 2 
	0.70833333333333326 2 0.75 2 0.77083333333333337 2 0.79166666666666674 2 0.8125 2 
	0.83333333333333337 2 0.85416666666666674 2 0.875 2 0.89583333333333337 2 0.91666666666666674 2 
	0.95833333333333337 2 1 2 
	0 0 
	0.031712055472335743 0 
	0.059955604877384695 0 
	0.091308535868310226 0 
	0.11991120975476856 0 
	0.13515664473581734 0 
	0.14988901219346543 0 
	0.16506669050628978 0 
	0.17986681463222728 0 
	0.19497131149075897 0 
	0.20984461707084448 0 
	0.22487245050115007 0 
	0.239822419509537 0 
	0.25477238851792472 0 
	0.26980022194823111 0 
	0.28467352752831643 0 
	0.29977802438684797 0 
	0.31457814851278521 0 
	0.32975582682560922 0 
	0.34448819428325705 0 
	0.35973362926430563 0 
	0.38833630315076439 0 
	0.41968923414169035 0 
	0.44793278354673882 0 
	0.47964483901907401 0 
	0.51135689449140875 0 
	0.53960044389645689 0 
	0.57095337488738385 0 
	0.59955604877384328 0 
	0.61480148375489174 0 
	0.62953385121253935 0 
	0.64471152952536404 0 
	0.65951165365130182 0 
	0.67461615050983359 0 
	0.68948945608991896 0 
	0.7045172895202243 0 
	0.71946725852861104 0 
	0.73441722753699779 0 
	0.74944506096730312 0 
	0.76431836654738872 0 
	0.77942286340592015 0 
	0.79422298753185783 0 
	0.8094006658446824 0 
	0.82413303330233045 0 
	0.83937846828337948 0 
	0.86798114216983735 0 
	0.89933407316076242 0 
	0.92757762256580989 0 
	0.95928967803814358 0 
	0.99100173351048171 0 
	1.0192452829155332 0 
	1.0505982139064578 0 
	1.0792008877929153 0 
	1.0944463227739658 0 
	1.1091786902316152 0 
	1.1243563685444382 0 
	1.1391564926703741 0 
	1.1542609895289062 0 
	1.1691342951089925 0 
	1.1841621285392985 0 
	1.1991120975476854 0 
	1.2140620665560717 0 
	1.2290898999863769 0 
	1.2439632055664624 0 
	1.2590677024249948 0 
	1.2738678265509324 0 
	1.2890455048637572 0 
	1.3037778723214053 0 
	1.3190233073024542 0 
	1.3476259811889126 0 
	1.3789789121798384 0 
	1.4072224615848872 0 
	1.438934517057223 0 
	0.001 
	spline forward { ref 4 } I I I I 
	} 0 0 #
tvertex-vertex $-1 $47 $114 1.7763568394002505e-015 #
intcurve-curve $-1 forward { exactcur full nurbs 2 periodic 4 
	0 2 0.33333333333333298 2 0.66666666666666696 2 1 2 
	-311.86654399811823 3.8045999326995528 51.972310139338788 1 
	-309.08159199399506 -10.322504809614648 57.944659252913283 0.5 
	-315.64456224886868 -8.9658503436038544 43.870324096555201 1 
	-322.20753250374236 -7.6091958775930308 29.795988940197155 0.5 
	-318.42951425299191 5.1612543987103479 37.897974982980685 1 
	-314.65149600224146 17.931704675013776 45.999961025764321 0.5 
	-311.86654399811823 3.8045999326995528 51.972310139338788 1 
	0 
	null_surface 
	null_surface 
	nullbs 
	nullbs 
	I I 
	0 
	0 
	0 
	F 1 F 0 } I I #
intcurve-curve $-1 forward { exactcur full nurbs 2 periodic 4 
	2 2 3.7338397693680059 2 5.4676795387360126 2 7.2015193081040181 2 
	-253.77753325377952 2.8984313030391036 22.741492798369816 1 
	-251.65589293006894 -7.8639211663036619 27.291365359145228 0.5 
	-256.65571422517121 -6.8303906723601031 16.569213970921389 1 
	-261.65553552027347 -5.7968601784165088 5.8470625826975464 0.5 
	-258.77735454888182 3.9319617969826695 12.019341410145973 1 
	-255.89917357749007 13.660783772381885 18.1916202375944 0.5 
	-253.77753325377952 2.8984313030391036 22.741492798369816 1 
	0 
	null_surface 
	null_surface 
	nullbs 
	nullbs 
	I I 
	0 
	0 
	0 
	F 1 F 0 } I I #
pcurve $-1 0 forward { exppc nubs 2 periodic 37 
	2 2 2.2167299711710005 2 2.4334599423420014 2 2.541824927927502 2 2.6501899135130023 2 
	2.7585548990985025 2 2.8669198846840027 2 2.9752848702695029 2 3.0836498558550036 2 3.1920148414405043 2 
	3.3003798270260045 2 3.517109798197005 2 3.7338397693680059 2 3.9505697405390068 2 4.1672997117100072 2 
	4.2756646972955075 2 4.3840296828810086 2 4.4923946684665088 2 4.600759654052009 2 4.7091246396375093 2 
	4.8174896252230095 2 4.9258546108085097 2 5.03421959639401 2 5.2509495675650104 2 5.4676795387360118 2 
	5.6844095099070131 2 5.9011394810780136 2 6.0095044666635138 2 6.117869452249014 2 6.2262344378345151 2 
	6.3345994234200154 2 6.4429644090055156 2 6.5513293945910167 2 6.6596943801765169 2 6.7680593657620172 2 
	6.9847893369330176 2 7.2015193081040181 2 
	1.438934517057223 0.87692307692307692 
	1.4072224615848876 0.87692307692307692 
	1.3789789121798386 0.87692307692307681 
	1.3476259811889126 0.87692307692307692 
	1.3190233073024542 0.87692307692307692 
	1.3037778723214055 0.87692307692307692 
	1.2890455048637575 0.87692307692307681 
	1.2738678265509322 0.87692307692307692 
	1.2590677024249943 0.87692307692307703 
	1.2439632055664631 0.87692307692307669 
	1.2290898999863784 0.87692307692307669 
	1.2140620665560724 0.87692307692307669 
	1.1991120975476854 0.87692307692307703 
	1.1841621285392983 0.87692307692307692 
	1.1691342951089925 0.87692307692307681 
	1.1542609895289062 0.87692307692307681 
	1.1391564926703741 0.87692307692307692 
	1.1243563685444378 0.87692307692307692 
	1.109178690231615 0.87692307692307703 
	1.0944463227739654 0.87692307692307703 
	1.0792008877929151 0.87692307692307703 
	1.0505982139064567 0.87692307692307692 
	1.0192452829155312 0.87692307692307703 
	0.99100173351048282 0.87692307692307692 
	0.95928967803814802 0.87692307692307692 
	0.92757762256581133 0.87692307692307714 
	0.89933407316076142 0.87692307692307703 
	0.86798114216983779 0.87692307692307703 
	0.83937846828338081 0.87692307692307692 
	0.82413303330233134 0.87692307692307692 
	0.80940066584468262 0.87692307692307714 
	0.79422298753185783 0.87692307692307692 
	0.77942286340592004 0.87692307692307692 
	0.76431836654738849 0.87692307692307669 
	0.74944506096730334 0.87692307692307658 
	0.73441722753699801 0.87692307692307669 
	0.71946725852861138 0.87692307692307692 
	0.70451728952022452 0.87692307692307669 
	0.68948945608991896 0.87692307692307681 
	0.67461615050983359 0.87692307692307692 
	0.65951165365130227 0.87692307692307692 
	0.64471152952536448 0.87692307692307692 
	0.62953385121253991 0.87692307692307681 
	0.61480148375489185 0.87692307692307692 
	0.59955604877384283 0.87692307692307681 
	0.57095337488738451 0.87692307692307692 
	0.53960044389645889 0.87692307692307714 
	0.51135689449140975 0.87692307692307692 
	0.47964483901907401 0.87692307692307692 
	0.44793278354673915 0.87692307692307681 
	0.41968923414169101 0.87692307692307692 
	0.38833630315076417 0.87692307692307692 
	0.35973362926430474 0.87692307692307703 
	0.34448819428325683 0.87692307692307692 
	0.32975582682560967 0.87692307692307692 
	0.31457814851278354 0.87692307692307669 
	0.29977802438684442 0.87692307692307658 
	0.28467352752831293 0.87692307692307669 
	0.26980022194822761 0.87692307692307681 
	0.25477238851792366 0.87692307692307703 
	0.23982241950953828 0.87692307692307714 
	0.22487245050115068 0.87692307692307692 
	0.20984461707084442 0.87692307692307692 
	0.19497131149075891 0.87692307692307692 
	0.17986681463222731 0.87692307692307703 
	0.1650666905062895 0.87692307692307681 
	0.14988901219346479 0.87692307692307669 
	0.13515664473581662 0.87692307692307681 
	0.1199112097547677 0.87692307692307681 
	0.091308535868309379 0.87692307692307681 
	0.059955604877383911 0.87692307692307669 
	0.031712055472335292 0.87692307692307692 
	0 0.87692307692307692 
	0.001 
	spline forward { ref 4 } I I I I 
	} 0 0 #
intcurve-curve $-1 forward { exactcur full nurbs 2 periodic 4 
	2 2 3.7338397693680059 2 5.4676795387360118 2 7.2015193081040181 2 
	-260.2070001370293 3.8045994766573514 27.883069220118578 1 
	-262.99195214115252 17.931704218971568 21.910720106544112 0.5 
	-266.76997039190303 5.1612539426681465 13.808734063760468 1 
	-270.54798864265342 -7.6091963336352038 5.7067480209769421 0.5 
	-263.98501838777975 -8.9658507996460415 19.781083177334992 1 
	-257.42204813290607 -10.322505265656863 33.855418333693095 0.5 
	-260.2070001370293 3.8045994766573514 27.883069220118578 1 
	0 
	null_surface 
	null_surface 
	nullbs 
	nullbs 
	I I 
	0 
	0 
	0 
	F 1 F 0 } I I #
point $-1 -260.2070001370293 3.8045994766573514 27.883069220118578 #
point $-1 -253.77753325377955 2.8984313030390467 22.741492798369702 #
face $-1 $115 $116 $10 $-1 $117 reversed single #
loop $-1 $-1 $118 $58 #
plane-surface $-1 -36.018123278584966 0 0 1 0 0 0 0 -1 forward_v I I I I #
coedge $-1 $119 $95 $120 $121 forward $59 $-1 #
coedge $-1 $122 $61 $119 $123 forward $36 $-1 #
coedge $-1 $61 $122 $124 $125 forward $36 $-1 #
coedge $-1 $98 $97 $61 $91 reversed $99 $-1 #
edge $-1 $126 -15.245463202249441 $127 15.245463202249441 $90 $128 forward 7 unknown #
coedge $-1 $63 $62 $129 $130 forward $22 $-1 #
coedge $-1 $131 $132 $62 $94 reversed $116 $-1 #
edge $-1 $101 -36.018123278584966 $133 36.018123278584966 $93 $134 forward 7 unknown #
coedge $-1 $87 $135 $63 $96 reversed $59 $-1 #
edge $-1 $136 -36.018123278584966 $100 36.018123278584966 $95 $137 forward 7 unknown #
coedge $-1 $90 $64 $135 $138 forward $99 $-1 #
coedge $-1 $64 $90 $131 $139 reversed $99 $-1 #
loop $-1 $-1 $97 $115 #
vertex $-1 $65 $140 #
vertex $-1 $65 $141 #
straight-curve $-1 36.018123278584966 0 27.80957860795122 0 1 0 I I #
tcoedge-coedge $-1 $107 $106 $69 $104 forward $67 $142 0 1 #
tedge-edge $-1 $143 0 $143 1 $69 $144 forward 7 unknown 0.00026572423162143374 #
pcurve $-1 0 forward { exppc nubs 2 periodic 25 
	-1 2 -0.95833333333333337 2 -0.91666666666666674 2 -0.875 2 -0.83333333333333337 2 
	-0.79166666666666674 2 -0.75 2 -0.70833333333333337 2 -0.66666666666666674 2 -0.625 2 
	-0.58333333333333337 2 -0.54166666666666674 2 -0.5 2 -0.45833333333333337 2 -0.41666666666666669 2 
	-0.375 2 -0.33333333333333337 2 -0.29166666666666669 2 -0.25 2 -0.20833333333333331 2 
	-0.16666666666666663 2 -0.12499999999999997 2 -0.083333333333333315 2 -0.041666666666666657 2 0 2 
	0.50000006437012434 0.23545055552396341 
	0.46945243036676154 0.23545055552396341 
	0.43970868146876713 0.24241240475354409 
	0.40666007158210404 0.25014779278641214 
	0.37663461935657566 0.26597558676136562 
	0.34420713095301381 0.28306960425431082 
	0.31764939200316039 0.30833685460102278 
	0.28998508059706152 0.33465690704551598 
	0.27089280934496374 0.36772569088603602 
	0.25180053809286729 0.40079447472655372 
	0.24283885975004629 0.43791249740468646 
	0.23423564854093817 0.47354579917569373 
	0.23564553934109309 0.51017583666057442 
	0.23695099378568124 0.54409253803547108 
	0.24677625618442028 0.57658116777352164 
	0.25561899234328711 0.60582093453777275 
	0.27089280934496296 0.63227596161018418 
	0.28616662634663537 0.65873098868258984 
	0.30706763908577944 0.68100890621726184 
	0.33029098657371025 0.7057621479224454 
	0.35901098435464157 0.72385105532238658 
	0.3900285819580353 0.74338707531431547 
	0.4251895321170111 0.75375312673861217 
	0.46181552186593156 0.76455109697225088 
	0.5000000643701259 0.76455109697225088 
	0.53818460687431979 0.76455109697225088 
	0.57481059662323886 0.75375312673861194 
	0.60997154678221488 0.74338707531431447 
	0.64098914438560828 0.72385105532238581 
	0.66970914216654043 0.70576214792244407 
	0.69293248965447074 0.68100890621726129 
	0.71383350239360754 0.65873098868259727 
	0.72910731939528572 0.63227596161018118 
	0.74438113639696069 0.60582093453777064 
	0.75322387255582945 0.57658116777351331 
	0.76304913495456794 0.54409253803546487 
	0.76435458939915568 0.51017583666057809 
	0.76576448019931065 0.4735457991756955 
	0.75716126899020253 0.43791249740468735 
	0.74819959064738151 0.40079447472655372 
	0.72910731939528517 0.36772569088603602 
	0.7100150481431845 0.33465690704551099 
	0.68235073673708913 0.30833685460102123 
	0.65579299778723554 0.28306960425430916 
	0.62336550938367286 0.26597558676136274 
	0.59334005715815352 0.25014779278641325 
	0.56029144727148295 0.24241240475354339 
	0.53054769837349158 0.23545055552396338 
	0.50000006437012434 0.23545055552396341 
	0.001 
	spline forward { ref 2 } I I I I 
	} 0 0 #
coedge $-1 $103 $71 $107 $145 forward $67 $146 #
coedge $-1 $71 $103 $106 $145 reversed $67 $147 #
pcurve $-1 0 forward { exppc nubs 2 periodic 25 
	0 2 0.041666666666666664 2 0.083333333333333329 2 0.125 2 0.16666666666666666 2 
	0.20833333333333331 2 0.25 2 0.29166666666666663 2 0.33333333333333331 2 0.375 2 
	0.41666666666666663 2 0.45833333333333331 2 0.5 2 0.54166666666666663 2 0.58333333333333326 2 
	0.625 2 0.66666666666666663 2 0.70833333333333326 2 0.75 2 0.79166666666666674 2 
	0.83333333333333337 2 0.875 2 0.91666666666666674 2 0.95833333333333337 2 1 2 
	0 0 
	0.022038567493112435 0 
	0.041666666666665707 0 
	0.063455657492354767 0 
	0.083333333333334203 0 
	0.10478547854788262 0 
	0.12500000000005226 0 
	0.14604810996566125 0 
	0.16666666666666713 0 
	0.18728522336767323 0 
	0.20833333333328252 0 
	0.22854785478545242 0 
	0.25000000000000122 0 
	0.26987767584097955 0 
	0.29166666666666713 0 
	0.31129476584022198 0 
	0.33333333333333598 0 
	0.35537190082644765 0 
	0.37500000000000044 0 
	0.39678899082568841 0 
	0.41666666666666674 0 
	0.43811881188121543 0 
	0.45833333333338533 0 
	0.47938144329899429 0 
	0.5 0 
	0.52061855670100599 0 
	0.54166666666661512 0 
	0.56188118811878485 0 
	0.58333333333333315 0 
	0.60321100917431147 0 
	0.624999999999999 0 
	0.64462809917355113 0 
	0.66666666666666208 0 
	0.68870523415977858 0 
	0.70833333333333548 0 
	0.73012232415902201 0 
	0.74999999999999978 0 
	0.7714521452145493 0 
	0.79166666666672003 0 
	0.81271477663232838 0 
	0.83333333333333348 0 
	0.85395189003433924 0 
	0.87499999999994826 0 
	0.89521452145211811 0 
	0.91666666666666674 0 
	0.9365443425076454 0 
	0.9583333333333337 0 
	0.97796143250688727 0 
	1 0 
	0.001 
	spline forward { ref 10 } I I I I 
	} 0 0 #
tvertex-vertex $-1 $72 $148 6.7179410824816027e-014 #
intcurve-curve $-1 forward { exactcur full nurbs 2 periodic 4 
	0 2 0.33333333333333298 2 0.66666666666666696 2 1 2 
	-313.39854229524781 2.1136672200635971 48.686929220947427 1 
	-314.94573785309404 9.9620587435714807 45.368957491183806 0.5 
	-317.04463688128874 2.8673641456251744 40.867854134081782 1 
	-319.14353590948338 -4.2273304523211479 36.366750776979828 0.5 
	-315.4974413234425 -4.9810273778827323 44.185825863845409 1 
	-311.85134673740157 -5.7347243034442981 52.004900950711018 0.5 
	-313.39854229524781 2.1136672200635971 48.686929220947427 1 
	0 
	null_surface 
	null_surface 
	nullbs 
	nullbs 
	I I 
	0 
	0 
	0 
	F 1 F 0 } I I #
edge $-1 $55 0.123076923076923 $77 1 $74 $149 forward 7 unknown #
pcurve $-1 0 forward { exppc nubs 2 open 7 
	-1 2 -0.85384615384615392 2 -0.70769230769230773 2 -0.56153846153846154 2 -0.41538461538461535 2 
	-0.26923076923076916 2 -0.123076923076923 2 
	1.438934517057223 0 
	1.438934517057223 0.073076923076923039 
	1.438934517057223 0.14615384615384608 
	1.438934517057223 0.21923076923076917 
	1.438934517057223 0.29230769230769227 
	1.438934517057223 0.36538461538461531 
	1.438934517057223 0.4384615384615384 
	1.438934517057223 0.5115384615384615 
	1.438934517057223 0.58461538461538465 
	1.438934517057223 0.6576923076923078 
	1.438934517057223 0.73076923076923084 
	1.438934517057223 0.80384615384615388 
	1.438934517057223 0.87692307692307692 
	0.001 
	spline forward { ref 4 } I I I I 
	} 0 0 #
pcurve $-1 0 forward { exppc nubs 2 open 7 
	0.123076923076923 2 0.26923076923076916 2 0.41538461538461535 2 0.56153846153846154 2 0.70769230769230762 2 
	0.85384615384615392 2 1 2 
	0 0.87692307692307692 
	0 0.80384615384615388 
	0 0.73076923076923084 
	0 0.6576923076923078 
	0 0.58461538461538465 
	0 0.5115384615384615 
	0 0.4384615384615384 
	0 0.36538461538461542 
	0 0.29230769230769238 
	0 0.21923076923076923 
	0 0.14615384615384608 
	0 0.073076923076923039 
	0 0 
	0.001 
	spline forward { ref 4 } I I I I 
	} 0 0 #
point $-1 -311.86654399811823 3.8045999326995528 51.972310139338788 #
face $-1 $-1 $99 $10 $-1 $150 reversed single #
loop $-1 $-1 $131 $84 #
plane-surface $-1 0 15.245463202249441 0 0 -1 0 0 0 -1 forward_v I I I I #
coedge $-1 $151 $129 $132 $152 forward $85 $-1 #
coedge $-1 $135 $87 $88 $123 reversed $59 $-1 #
coedge $-1 $129 $151 $87 $121 reversed $85 $-1 #
edge $-1 $136 -27.80957860795122 $153 27.80957860795122 $120 $154 forward 7 unknown #
coedge $-1 $89 $88 $151 $155 forward $36 $-1 #
edge $-1 $127 -36.018123278584966 $153 36.018123278584966 $119 $156 forward 7 unknown #
coedge $-1 $132 $131 $89 $125 reversed $116 $-1 #
edge $-1 $157 -36.018123278584966 $126 36.018123278584966 $124 $158 forward 7 unknown #
vertex $-1 $91 $159 #
vertex $-1 $138 $160 #
straight-curve $-1 36.018123278584966 0 -27.80957860795122 0 -1 0 I I #
coedge $-1 $118 $120 $92 $130 reversed $85 $-1 #
edge $-1 $133 -15.245463202249441 $136 15.245463202249441 $129 $161 forward 7 unknown #
coedge $-1 $124 $93 $98 $139 forward $116 $-1 #
coedge $-1 $93 $124 $118 $152 reversed $116 $-1 #
vertex $-1 $94 $162 #
straight-curve $-1 0 15.245463202249441 27.80957860795122 -1 0 0 I I #
coedge $-1 $95 $119 $97 $138 reversed $59 $-1 #
vertex $-1 $130 $163 #
straight-curve $-1 0 -15.245463202249441 27.80957860795122 1 0 0 I I #
edge $-1 $100 -27.80957860795122 $127 27.80957860795122 $97 $164 forward 7 unknown #
edge $-1 $101 -27.80957860795122 $126 27.80957860795122 $98 $165 forward 7 unknown #
point $-1 36.018123278584966 -15.245463202249441 27.80957860795122 #
point $-1 36.018123278584966 15.245463202249441 27.80957860795122 #
pcurve $-1 0 forward { exppc nubs 2 periodic 25 
	0 2 0.041666666666666664 2 0.083333333333333329 2 0.125 2 0.16666666666666666 2 
	0.20833333333333331 2 0.25 2 0.29166666666666663 2 0.33333333333333331 2 0.375 2 
	0.41666666666666663 2 0.45833333333333331 2 0.5 2 0.54166666666666663 2 0.58333333333333326 2 
	0.625 2 0.66666666666666663 2 0.70833333333333326 2 0.75 2 0.79166666666666674 2 
	0.83333333333333337 2 0.875 2 0.91666666666666674 2 0.95833333333333337 2 1 2 
	1 1.2509255832441879 
	0.97796143250688727 1.2509255832441881 
	0.95833333333333326 1.2509255832441879 
	0.93654434250764496 1.2509255832441879 
	0.91666666666666619 1.2509255832441879 
	0.89521452145211766 1.2509255832441877 
	0.87499999999994771 1.2509255832441877 
	0.8539518900343398 1.2509255832441877 
	0.83333333333333504 1.2509255832441877 
	0.81271477663232816 1.2509255832441877 
	0.79166666666671826 1.2509255832441879 
	0.77145214521454886 1.2509255832441881 
	0.75000000000000056 1.2509255832441879 
	0.73012232415902212 1.2509255832441881 
	0.70833333333333404 1.2509255832441879 
	0.68870523415977769 1.2509255832441877 
	0.66666666666666208 1.2509255832441877 
	0.64462809917355113 1.2509255832441877 
	0.624999999999999 1.2509255832441879 
	0.60321100917431159 1.2509255832441877 
	0.58333333333333348 1.2509255832441877 
	0.5618811881187844 1.2509255832441877 
	0.54166666666661434 1.2509255832441879 
	0.52061855670100576 1.2509255832441879 
	0.50000000000000044 1.2509255832441879 
	0.47938144329899424 1.2509255832441877 
	0.45833333333338483 1.2509255832441879 
	0.43811881188121538 1.2509255832441879 
	0.41666666666666707 1.2509255832441879 
	0.39678899082568853 1.2509255832441877 
	0.37500000000000044 1.2509255832441879 
	0.35537190082644765 1.2509255832441877 
	0.33333333333333598 1.2509255832441879 
	0.31129476584022009 1.2509255832441879 
	0.29166666666666363 1.2509255832441879 
	0.26987767584097677 1.2509255832441879 
	0.24999999999999911 1.2509255832441877 
	0.22854785478544976 1.2509255832441877 
	0.20833333333327925 1.2509255832441877 
	0.18728522336767126 1.2509255832441877 
	0.16666666666666649 1.2509255832441879 
	0.14604810996566106 1.2509255832441879 
	0.1250000000000524 1.2509255832441879 
	0.10478547854788249 1.2509255832441879 
	0.083333333333333787 1.2509255832441879 
	0.063455657492354628 1.2509255832441879 
	0.041666666666665873 1.2509255832441879 
	0.022038567493112501 1.2509255832441881 
	0 1.2509255832441879 
	0.001 
	spline forward { ref 10 } I I I I 
	} 0 0 #
tvertex-vertex $-1 $104 $166 4.6491707650994841e-014 #
intcurve-curve $-1 forward { exactcur full nurbs 2 periodic 4 
	0 2 0.33333333333333298 2 0.66666666666666696 2 1 2 
	-254.48853613786565 2.1136667000154645 21.216742207801591 1 
	-252.94134058001939 -5.7347248234924377 24.534713937565158 0.5 
	-256.58743516606035 -4.9810278979308649 16.715638850699577 1 
	-260.23352975210128 -4.2273309723692805 8.8965637638339921 0.5 
	-258.13463072390658 2.8673636255770489 13.397667120935953 1 
	-256.03573169571189 9.9620582235233517 17.898770478037964 0.5 
	-254.48853613786565 2.1136667000154645 21.216742207801591 1 
	0 
	null_surface 
	null_surface 
	nullbs 
	nullbs 
	I I 
	0 
	0 
	0 
	F 1 F 0 } I I #
edge $-1 $109 0 $143 1 $107 $167 forward 7 unknown #
pcurve $-1 0 forward { exppc nubs 2 open 7 
	0 2 0.16666666666666666 2 0.33333333333333331 2 0.5 2 0.66666666666666663 2 
	0.83333333333333337 2 1 2 
	1 0 
	1 0.10424379860368232 
	1 0.20848759720736465 
	1 0.31273139581104697 
	1 0.4169751944147293 
	1 0.52121899301841168 
	1 0.62546279162209395 
	1 0.72970659022577622 
	1 0.8339503888294586 
	1 0.93819418743314087 
	1 1.0424379860368231 
	1 1.1466817846405055 
	1 1.2509255832441879 
	0.001 
	spline forward { ref 10 } I I I I 
	} 0 0 #
pcurve $-1 0 forward { exppc nubs 2 open 7 
	-1 2 -0.83333333333333337 2 -0.66666666666666674 2 -0.5 2 -0.33333333333333337 2 
	-0.16666666666666663 2 0 2 
	0 1.2509255832441879 
	0 1.1466817846405055 
	0 1.0424379860368231 
	0 0.93819418743314098 
	0 0.83395038882945871 
	0 0.72970659022577633 
	0 0.62546279162209395 
	0 0.52121899301841168 
	0 0.41697519441472936 
	0 0.31273139581104697 
	0 0.20848759720736459 
	0 0.1042437986036823 
	0 0 
	0.001 
	spline forward { ref 10 } I I I I 
	} 0 0 #
point $-1 -313.39854229524781 2.1136672200635971 48.686929220947427 #
intcurve-curve $-1 forward { exactcur full nubs 1 open 2 
	0.123076923076923 1 1 1 
	-260.2070001370293 3.8045994766573514 27.883069220118578 
	-311.86654399811823 3.8045999326995528 51.972310139338788 
	0 
	null_surface 
	null_surface 
	nullbs 
	nullbs 
	I I 
	0 
	0 
	0 
	F 1 F 0 } I I #
plane-surface $-1 36.018123278584966 0 0 -1 0 0 0 0 1 forward_v I I I I #
coedge $-1 $120 $118 $122 $155 reversed $85 $-1 #
edge $-1 $133 -27.80957860795122 $157 27.80957860795122 $132 $168 forward 7 unknown #
vertex $-1 $155 $169 #
straight-curve $-1 -36.018123278584966 -15.245463202249441 0 0 0 -1 I I #
edge $-1 $153 -15.245463202249441 $157 15.245463202249441 $151 $170 forward 7 unknown #
straight-curve $-1 0 -15.245463202249441 -27.80957860795122 -1 0 0 I I #
vertex $-1 $125 $171 #
straight-curve $-1 0 15.245463202249441 -27.80957860795122 1 0 0 I I #
point $-1 36.018123278584966 15.245463202249441 -27.80957860795122 #
point $-1 36.018123278584966 -15.245463202249441 -27.80957860795122 #
straight-curve $-1 -36.018123278584966 0 27.80957860795122 0 -1 0 I I #
point $-1 -36.018123278584966 15.245463202249441 27.80957860795122 #
point $-1 -36.018123278584966 -15.245463202249441 27.80957860795122 #
straight-curve $-1 36.018123278584966 -15.245463202249441 0 0 0 -1 I I #
straight-curve $-1 36.018123278584966 15.245463202249441 0 0 0 -1 I I #
point $-1 -254.48853613786565 2.1136667000154645 21.216742207801591 #
intcurve-curve $-1 forward { exactcur full nubs 1 open 2 
	0 1 1 1 
	-313.39854229524781 2.1136672200635971 48.686929220947427 
	-254.48853613786565 2.1136667000154645 21.216742207801591 
	0 
	null_surface 
	null_surface 
	nullbs 
	nullbs 
	I I 
	0 
	0 
	0 
	F 1 F 0 } I I #
straight-curve $-1 -36.018123278584966 15.245463202249441 0 0 0 -1 I I #
point $-1 -36.018123278584966 -15.245463202249441 -27.80957860795122 #
straight-curve $-1 -36.018123278584966 0 -27.80957860795122 0 1 0 I I #
point $-1 -36.018123278584966 15.245463202249441 -27.80957860795122 #
End-of-ACIS-data 