600 0 1 0           
82 GICL ACIS Healer - Source: /gicl/data5/repository/SDRC_I-DEAS/bmw/Part14.sat - 6 0 18 ACIS 6.0.3 Solaris 24 Sat Apr 13 23:15:22 2002 
1 9.999999999999999547e-07 1.000000000000000036e-10 
body $-1 $1 $-1 $-1 #
lump $-1 $-1 $2 $0 #
shell $-1 $-1 $-1 $3 $-1 $1 #
face $-1 $4 $5 $2 $-1 $6 forward single #
face $-1 $7 $8 $2 $-1 $9 forward single #
loop $-1 $-1 $10 $3 #
plane-surface $-1 -338.4243887360939311 1.533294591737899282e-06 55.35696874734597372 -0.9063077870366457178 8.000744708774890416e-09 0.4226182617407083786 0.4226182617407084341 -0 0.9063077870366458288 forward_v I I I I #
face $-1 $11 $12 $2 $-1 $13 forward single #
loop $-1 $-1 $14 $4 #
cone-surface $-1 -263.3700243379142307 8.707268062124740027e-07 20.35854385051830562 -0.9063077870366473832 8.000738902524238711e-09 0.4226182617407045483 -0.6116843290910196629 -4.785929885786557314 -1.311761186298792126 1 I I 0 1 5.000000000000047962 forward I I I I #
coedge $-1 $10 $10 $15 $16 forward $5 $-1 #
face $-1 $17 $18 $2 $-1 $19 forward single #
loop $-1 $-1 $20 $7 #
cone-surface $-1 -243.1106037867089071 6.918797996746661738e-07 10.91142089770849744 0.9063077870366472721 -8.000737792855413516e-09 -0.4226182617407054365 -2.995461916173547845 -8.619702109169905313 -6.423788646174217298 1 I I 0.9659258262890677571 0.2588190451025227379 11.15961993585762713 forward I I I I #
coedge $-1 $21 $15 $22 $23 forward $8 $-1 #
coedge $-1 $14 $22 $10 $16 reversed $8 $-1 #
edge $-1 $24 0 $24 1 $10 $25 forward 7 unknown #
face $-1 $-1 $26 $2 $-1 $27 forward single #
loop $-1 $-1 $28 $11 #
cone-surface $-1 -239.2743168342846616 6.580137252854001417e-07 9.122530912912816703 -0.9063077870366443856 8.000737470202097927e-09 0.4226182617407114317 -2.202063584727738998 -17.22934758883142692 -4.722340270675641882 1 I I 0 1 18.00000000000000355 forward I I I I #
coedge $-1 $29 $30 $31 $32 forward $12 $-1 #
coedge $-1 $22 $14 $30 $33 forward $8 $-1 #
coedge $-1 $15 $21 $14 $23 reversed $8 $-1 #
edge $-1 $24 0 $34 1 $14 $35 forward 7 unknown #
vertex $-1 $16 $36 #
intcurve-curve $-1 forward { exactcur full nurbs 2 periodic 4 
	0 2 0.3333333333333329818 2 0.6666666666666669627 2 1 2 
	-340.5374800447974621 1.454644127818482957e-06 50.82542981216265332 1 
	-340.5374800500222818 -8.660252583200247045 50.82542996490845155 0.5 
	-337.367843084354547 -4.330125446302396597 57.62273829131044067 1 
	-334.1982061186868691 1.690595510694947734e-06 64.42004661771241558 0.5 
	-337.3678430791297842 4.330128591542020899 57.62273813856468507 1 
	-340.5374800395726993 8.660255492488495577 50.82542965941680535 0.5 
	-340.5374800447974621 1.454644127818482957e-06 50.82542981216265332 1 
	0 
	null_surface 
	null_surface 
	nullbs 
	nullbs 
	I I 
	0 
	0 
	0 
	F 1 F 0 } I I #
loop $-1 $-1 $37 $17 #
plane-surface $-1 -238.7305321620626444 6.532133074443891019e-07 8.868959955868398026 0.9063077870366478273 -8.000738434567643839e-09 -0.4226182617407039377 -0.4226182617407039932 0 -0.9063077870366479383 forward_v I I I I #
coedge $-1 $38 $39 $40 $41 forward $18 $-1 #
coedge $-1 $31 $20 $39 $42 forward $12 $-1 #
coedge $-1 $20 $31 $21 $33 reversed $12 $-1 #
coedge $-1 $30 $29 $20 $32 reversed $12 $-1 #
edge $-1 $34 0 $43 1 $20 $44 forward 7 unknown #
edge $-1 $34 0 $34 1 $21 $45 forward 7 unknown #
vertex $-1 $33 $46 #
intcurve-curve $-1 forward { exactcur full nubs 1 open 2 
	0 1 1 1 
	-340.5374800447974621 1.454644127818482957e-06 50.82542981216265332 
	-246.7195245470727514 6.264343355155688187e-07 7.077398691128124142 
	0 
	null_surface 
	null_surface 
	nullbs 
	nullbs 
	I I 
	0 
	0 
	0 
	F 1 F 0 } I I #
point $-1 -340.5374800447974621 1.454644127818482957e-06 50.82542981216265332 #
coedge $-1 $37 $37 $38 $47 reversed $26 $-1 #
coedge $-1 $40 $28 $37 $47 forward $18 $-1 #
coedge $-1 $28 $40 $29 $42 reversed $18 $-1 #
coedge $-1 $39 $38 $28 $41 reversed $18 $-1 #
edge $-1 $43 0 $48 1 $28 $49 forward 7 unknown #
edge $-1 $43 0 $43 8.879942301216722456 $29 $50 forward 7 unknown #
vertex $-1 $42 $51 #
intcurve-curve $-1 forward { exactcur full nubs 1 open 2 
	0 1 1 1 
	-246.7195245470727514 6.264343355155688187e-07 7.077398691128124142 
	-249.0565842345052658 3.940738082519601448e-07 -6.176725425569109973 
	0 
	null_surface 
	null_surface 
	nullbs 
	nullbs 
	I I 
	0 
	0 
	0 
	F 1 F 0 } I I #
intcurve-curve $-1 forward { exactcur full nurbs 2 periodic 4 
	0 2 0.3333333333333329818 2 0.6666666666666669627 2 1 2 
	-246.7195245470727514 6.264343355155688187e-07 7.077398691128124142 1 
	-246.7195245522975711 -8.660253411410060664 7.077398843873940137 0.5 
	-243.5498875866298931 -4.330126274512146267 13.87470717027592215 1 
	-240.3802506209621583 8.623857681300250988e-07 20.67201549667791127 0.5 
	-243.5498875814050734 4.330127763332271229 13.87470701753015589 1 
	-246.7195245418479601 8.660254664278745906 7.077398538382304594 0.5 
	-246.7195245470727514 6.264343355155688187e-07 7.077398691128124142 1 
	0 
	null_surface 
	null_surface 
	nullbs 
	nullbs 
	I I 
	0 
	0 
	0 
	F 1 F 0 } I I #
point $-1 -246.7195245470727514 6.264343355155688187e-07 7.077398691128124142 #
edge $-1 $48 0 $48 62.35382907247958428 $38 $52 forward 7 unknown #
vertex $-1 $47 $53 #
intcurve-curve $-1 forward { exactcur full nubs 1 open 2 
	0 1 1 1 
	-249.0565842345052658 3.940738082519601448e-07 -6.176725425569109973 
	-246.3376608733953503 3.700716248999924574e-07 -7.444580210791237107 
	0 
	null_surface 
	null_surface 
	nullbs 
	nullbs 
	I I 
	0 
	0 
	0 
	F 1 F 0 } I I #
intcurve-curve $-1 forward { exactcur full nurbs 2 periodic 4 
	0 2 2.959980767072241115 2 5.919961534144481341 2 8.879942301216722456 2 
	-249.0565842345052658 3.940738082519601448e-07 -6.176725425569109973 1 
	-249.0565842533145258 -31.176914142165991 -6.176724875684286964 0.5 
	-237.6458911769108795 -15.5884564493335489 18.29358509936277244 1 
	-226.2351981005072048 1.243498942926635209e-06 42.76389507440985938 0.5 
	-237.6458911581016764 15.58845808690626455 18.29358454947785972 1 
	-249.0565842156960628 31.17691493031366434 -6.176725975454019135 0.5 
	-249.0565842345052658 3.940738082519601448e-07 -6.176725425569109973 1 
	0 
	null_surface 
	null_surface 
	nullbs 
	nullbs 
	I I 
	0 
	0 
	0 
	F 1 F 0 } I I #
point $-1 -249.0565842345052658 3.940738082519601448e-07 -6.176725425569109973 #
intcurve-curve $-1 forward { exactcur full nurbs 2 periodic 4 
	0 2 20.78460969082652809 2 41.56921938165305619 2 62.35382907247958428 2 
	-246.3376608733953503 3.700716248999924574e-07 -7.444580210791237107 1 
	-246.3376608922045818 -31.17691416616822053 -7.444579660906434526 0.5 
	-234.926967815800964 -15.58845647333576068 17.02573031414064531 1 
	-223.5162747393972609 1.219496716942103376e-06 41.49604028918771803 0.5 
	-234.9269677969917325 15.5884580629040741 17.02572976425572548 1 
	-246.3376608545860904 31.17691490631143125 -7.44458076067616048 0.5 
	-246.3376608733953503 3.700716248999924574e-07 -7.444580210791237107 1 
	0 
	null_surface 
	null_surface 
	nullbs 
	nullbs 
	I I 
	0 
	0 
	0 
	F 1 F 0 } I I #
point $-1 -246.3376608733953503 3.700716248999924574e-07 -7.444580210791237107 #
End-of-ACIS-data 