600 0 1 0           
82 GICL ACIS Healer - Source: /gicl/data5/repository/SDRC_I-DEAS/bmw/Part16.sat - 6 0 18 ACIS 6.0.3 Solaris 24 Sat Apr 13 23:15:25 2002 
1 9.999999999999999547e-07 1.000000000000000036e-10 
body $-1 $1 $-1 $-1 #
lump $-1 $-1 $2 $0 #
shell $-1 $-1 $-1 $3 $-1 $1 #
face $-1 $4 $5 $2 $-1 $6 reversed single #
face $-1 $7 $8 $2 $-1 $9 reversed single #
loop $-1 $-1 $10 $3 #
plane-surface $-1 -307.6749910059764943 -7.503435694453020943 53.86252001294994329 0.3386289274238069025 0.5983105642653956391 0.7261920670182413495 0.906307784511835024 0 -0.4226182671551826364 forward_v I I I I #
face $-1 $11 $12 $2 $-1 $13 reversed single #
loop $-1 $-1 $14 $4 #
cone-surface $-1 -309.0295067208597857 -9.896677923347064976 50.95775172408892217 0.3386289274238030167 0.5983105642653971934 0.7261920670182419046 0.8335181445353896379 -0.2851724221503726397 -0.1537219800829419114 1 I I 0 1 0.894262967356610039 forward I I I I #
coedge $-1 $10 $10 $15 $16 forward $5 $-1 #
face $-1 $17 $18 $2 $-1 $19 reversed single #
loop $-1 $-1 $20 $7 #
plane-surface $-1 -311.4864383405350736 13.19029093297262634 38.59023952947766389 0.3386289274238168945 0.5983105642654035217 0.7261920670182303583 0.9063077845118276965 0 -0.4226182671551980685 forward_v I I I I #
coedge $-1 $21 $22 $23 $24 reversed $8 $-1 #
coedge $-1 $22 $21 $10 $16 reversed $8 $-1 #
edge $-1 $25 0 $25 1 $10 $26 forward 7 unknown #
face $-1 $27 $28 $2 $-1 $29 forward single #
loop $-1 $-1 $30 $11 #
cone-surface $-1 -312.8409540991423228 10.79704865312498896 35.68547130298619408 0.3386289274238046265 0.59831056426540008 0.726192067018238796 0.1095831732683336668 0.6257522397203558739 -0.5666575369717392618 1 I I 0 1 0.8512785099986239779 forward I I I I #
coedge $-1 $20 $20 $31 $32 forward $12 $-1 #
coedge $-1 $15 $14 $22 $33 forward $8 $-1 #
coedge $-1 $14 $15 $21 $33 reversed $8 $-1 #
coedge $-1 $23 $23 $14 $24 forward $34 $-1 #
edge $-1 $35 0 $35 1 $14 $36 forward 7 unknown #
vertex $-1 $16 $37 #
intcurve-curve $-1 forward { exactcur full nurbs 2 periodic 4 
	0 2 0.3333333333333329818 2 0.6666666666666669627 2 1 2 
	-307.5438973095327242 -8.215190794513979711 54.38780594630327414 1 
	-308.9835001083132511 -8.071988621599603064 54.94111931481307209 0.5 
	-308.4603392613706774 -7.075957015714031684 53.87653369934606928 1 
	-307.93717841442799 -6.079925409828469185 52.81194808387901674 0.5 
	-307.0207364625900937 -7.219159188628374579 53.3232203308362358 1 
	-306.1042945107520268 -8.358392967428329712 53.83449257779341934 0.5 
	-307.5438973095327242 -8.215190794513979711 54.38780594630327414 1 
	0 
	null_surface 
	null_surface 
	nullbs 
	nullbs 
	I I 
	0 
	0 
	0 
	F 1 F 0 } I I #
face $-1 $38 $39 $2 $-1 $40 forward single #
loop $-1 $41 $42 $17 #
plane-surface $-1 -313.1795836119914043 10.19874126734530506 34.95927689019782747 -0.33862892742380446 -0.5983105642653980816 -0.7261920670182405724 -0.9063077845118359122 0 0.4226182671551804715 forward_v I I I I #
coedge $-1 $43 $44 $45 $46 reversed $18 $-1 #
coedge $-1 $44 $43 $20 $32 reversed $18 $-1 #
edge $-1 $47 0 $47 1 $20 $48 forward 7 unknown #
edge $-1 $35 0 $25 1 $22 $49 forward 7 unknown #
loop $-1 $-1 $23 $38 #
vertex $-1 $24 $50 #
intcurve-curve $-1 forward { exactcur full nurbs 2 periodic 4 
	0 2 0.3333333333333329818 2 0.6666666666666669627 2 1 2 
	-309.2370419466516864 -11.20674361584094925 50.75684561121209981 1 
	-307.7974391478710459 -11.34994578875531523 50.2035322427022308 0.5 
	-308.7138810997091127 -10.21071200995534412 49.69225999574504016 1 
	-309.6303230515470659 -9.071478231155445826 49.1809877487878282 0.5 
	-310.1534838984897533 -10.06750983704098701 50.24557336425488074 1 
	-310.6766447454323838 -11.06354144292659214 51.31015897972189777 0.5 
	-309.2370419466516864 -11.20674361584094925 50.75684561121209981 1 
	0 
	null_surface 
	null_surface 
	nullbs 
	nullbs 
	I I 
	0 
	0 
	0 
	F 1 F 0 } I I #
point $-1 -307.5438973095327242 -8.215190794513979711 54.38780594630327414 #
face $-1 $-1 $51 $2 $-1 $52 forward single #
loop $-1 $-1 $53 $27 #
torus-surface $-1 -311.2738593374246534 -0.148125199376333061 42.59541944651932965 -0.9294302612787651574 0.09245358032105112367 0.3572278333292428498 12.99999999999990585 2.000000000000081712 -0.338628927423804682 -0.5983105642653978595 -0.7261920670182406834 forward_v I I I I #
loop $-1 $-1 $45 $17 #
coedge $-1 $42 $42 $53 $54 reversed $28 $-1 #
coedge $-1 $31 $30 $44 $55 forward $18 $-1 #
coedge $-1 $30 $31 $43 $55 reversed $18 $-1 #
coedge $-1 $45 $45 $30 $46 forward $41 $-1 #
edge $-1 $56 0 $56 1 $30 $57 forward 7 unknown #
vertex $-1 $32 $58 #
intcurve-curve $-1 forward { exactcur full nurbs 2 periodic 4 
	0 2 0.3333333333333329818 2 0.6666666666666669627 2 1 2 
	-310.6952343814780875 13.11158716408686331 38.28613919337256988 1 
	-310.4790875479797023 11.93804781568348616 39.15222882434274254 0.5 
	-311.7739669766824591 12.64287310903481654 39.17533457538750952 1 
	-313.0688464053851021 13.34769840238605099 39.19844032643222675 0.5 
	-311.9901138101806737 13.81641245743814039 38.30924494441732975 1 
	-310.9113812149763021 14.28512651249020315 37.42004956240241142 0.5 
	-310.6952343814780875 13.11158716408686331 38.28613919337256988 1 
	0 
	null_surface 
	null_surface 
	nullbs 
	nullbs 
	I I 
	0 
	0 
	0 
	F 1 F 0 } I I #
intcurve-curve $-1 forward { exactcur full nubs 1 open 2 
	0 1 1 1 
	-309.2370419466516864 -11.20674361584094925 50.75684561121209981 
	-307.5438973095327242 -8.215190794513979711 54.38780594630327414 
	0 
	null_surface 
	null_surface 
	nullbs 
	nullbs 
	I I 
	0 
	0 
	0 
	F 1 F 0 } I I #
point $-1 -309.2370419466516864 -11.20674361584094925 50.75684561121209981 #
loop $-1 $34 $59 $38 #
plane-surface $-1 -309.3681350628581868 -10.49499166609817102 50.23156200284078921 -0.3386289274238066804 -0.5983105642653988587 -0.7261920670182390181 -0.9063077845118345799 0 0.4226182671551835246 forward_v I I I I #
coedge $-1 $60 $61 $42 $54 forward $39 $-1 #
edge $-1 $62 0 $62 1 $42 $63 forward 7 unknown #
edge $-1 $56 0 $47 1 $44 $64 forward 7 unknown #
vertex $-1 $46 $65 #
intcurve-curve $-1 forward { exactcur full nurbs 2 periodic 4 
	0 2 0.3333333333333329818 2 0.6666666666666669627 2 1 2 
	-312.3883790185970497 10.12003434275984404 34.65517885828138134 1 
	-312.6045258520953212 11.29357369116316967 33.78908922731120867 0.5 
	-313.6832584472997496 10.82485963611117796 34.67828460932614121 1 
	-314.7619910425040644 10.35614558105908856 35.56747999134103821 0.5 
	-313.4671116138014213 9.651320287707783052 35.54437424029630677 1 
	-312.1722321850987214 8.946494994356465114 35.521268489251554 0.5 
	-312.3883790185970497 10.12003434275984404 34.65517885828138134 1 
	0 
	null_surface 
	null_surface 
	nullbs 
	nullbs 
	I I 
	0 
	0 
	0 
	F 1 F 0 } I I #
point $-1 -310.6952343814780875 13.11158716408686331 38.28613919337256988 #
coedge $-1 $59 $59 $66 $67 reversed $51 $-1 #
coedge $-1 $66 $53 $61 $68 reversed $39 $-1 #
coedge $-1 $53 $66 $60 $68 forward $39 $-1 #
vertex $-1 $68 $69 #
intcurve-curve $-1 forward { exactcur full nurbs 2 periodic 4 
	0 2 0.3333333333333329818 2 0.6666666666666669627 2 1 2 
	-311.3207225040085859 10.01383092821749443 34.24482356930946025 1 
	-311.8285394662823933 12.77095291501654195 32.21002621263333054 0.5 
	-314.3629217689818347 11.66975266258020127 34.2991083909591481 1 
	-316.8973040716811056 10.56855241014378777 36.38819056928491591 0.5 
	-313.8551048067079137 8.912630675781123557 36.33390574763524228 1 
	-310.8129055417346081 7.256708941418415826 36.27962092598554023 0.5 
	-311.3207225040085859 10.01383092821749443 34.24482356930946025 1 
	0 
	null_surface 
	null_surface 
	nullbs 
	nullbs 
	I I 
	0 
	0 
	0 
	F 1 F 0 } I I #
intcurve-curve $-1 forward { exactcur full nubs 1 open 2 
	0 1 1 1 
	-312.3883790185970497 10.12003434275984404 34.65517885828138134 
	-310.6952343814780875 13.11158716408686331 38.28613919337256988 
	0 
	null_surface 
	null_surface 
	nullbs 
	nullbs 
	I I 
	0 
	0 
	0 
	F 1 F 0 } I I #
point $-1 -312.3883790185970497 10.12003434275984404 34.65517885828138134 #
coedge $-1 $61 $60 $59 $67 forward $39 $-1 #
edge $-1 $70 0 $70 1 $66 $71 forward 7 unknown #
edge $-1 $70 0 $62 2.501851166488375799 $61 $72 forward 7 unknown #
point $-1 -311.3207225040085859 10.01383092821749443 34.24482356930946025 #
vertex $-1 $67 $73 #
intcurve-curve $-1 forward { exactcur full nurbs 2 periodic 4 
	0 2 0.3333333333333329818 2 0.6666666666666669627 2 1 2 
	-307.5092751257259351 -10.67989564825457194 49.51710399041218125 1 
	-308.0170920879997993 -7.92277366145550932 47.48230663373605864 0.5 
	-310.5514743906992408 -9.023973913891843779 49.57138881206185488 1 
	-313.0858566933985117 -10.1251741663282786 51.6604709903876369 0.5 
	-310.0436574284253197 -11.7810959006909215 51.60618616873796327 1 
	-307.0014581634520709 -13.43701763505365498 51.55190134708827543 0.5 
	-307.5092751257259351 -10.67989564825457194 49.51710399041218125 1 
	0 
	null_surface 
	null_surface 
	nullbs 
	nullbs 
	I I 
	0 
	0 
	0 
	F 1 F 0 } I I #
intcurve-curve $-1 forward { exactcur full nurbs 2 open 3 
	0 2 1.2509255832441879 2 2.501851166488375799 2 
	-307.5092751257259351 -10.67989564825457194 49.51710399041218835 1 
	-303.1070990692164742 -2.901858312804387552 58.95760086164927571 0.7071067811865470176 
	-305.0128227583577427 7.445004975431650962 51.32146065109790811 1 
	-306.9185464474990113 17.79186826366769481 43.68532044054655472 0.7071067811865470176 
	-311.3207225040085859 10.01383092821749443 34.24482356930946025 1 
	0 
	null_surface 
	null_surface 
	nullbs 
	nullbs 
	I I 
	0 
	0 
	0 
	F 1 F 0 } I I #
point $-1 -307.5092751257259351 -10.67989564825457194 49.51710399041218125 #
End-of-ACIS-data 