600 0 2 0           
24 FBMach with ACIS - 6.0.3 13 ACIS 6.0.3 NT 24 Wed May 23 19:55:25 2001 
1 9.9999999999999995e-007 1e-010 
body $2 $3 $-1 $-1 #
bdycol-kcp $-1 1 1 $4 #
model_id-kcp-attrib $-1 $-1 $-1 $0 1 990662125 90 -1235615743 1 #
lump $-1 $-1 $5 $0 #
body $6 $7 $-1 $8 #
shell $-1 $-1 $-1 $9 $-1 $3 #
model_id-kcp-attrib $-1 $-1 $-1 $4 1 990662125 110 -1234305022 1 #
lump $-1 $-1 $10 $4 #
transform $-1 1 0 0 0 1 0 0 0 1 -340.97083205572608 -21.999999097715325 16.427673882864653 1 no_rotate no_reflect no_shear #
face $11 $12 $13 $5 $-1 $14 forward single #
shell $-1 $-1 $-1 $15 $-1 $7 #
model_id-kcp-attrib $-1 $-1 $-1 $9 1 990662125 90 -1235615743 2 #
face $16 $17 $18 $5 $-1 $19 forward single #
loop $-1 $-1 $20 $9 #
spline-surface $-1 forward { exactsur full nubs 1 1 open open none none 2 2 
	0 1 1 1 
	0 1 1 1 
	-334.20570089716608 -79.499999222603066 12.644447571137501 
	-334.14444818589038 -79.499998981889718 26.294310233775988 
	-347.85556355980452 -79.499999213287651 12.705700282413179 
	-347.79431084852888 -79.499998972574303 26.355562945051673 
	0 
	0 
	0 
	0 
	0 
	0 
	0 
	F 1 F 0 F 1 F 0 } I I I I #
face $-1 $21 $22 $10 $-1 $23 forward single #
model_id-kcp-attrib $-1 $-1 $-1 $12 1 990662125 90 -1235615743 3 #
face $24 $-1 $25 $5 $-1 $26 forward single #
loop $-1 $-1 $27 $12 #
spline-surface $-1 forward { exactsur full nubs 1 1 open open none none 2 2 
	0 1 1 1 
	0 1 1 1 
	-347.79431077914842 35.500001027425704 26.355560916731978 
	-334.14444811650998 35.500001018110289 26.294308205456293 
	-347.85556349042412 35.500000786712356 12.70569825409348 
	-334.20570082778562 35.500000777396927 12.644445542817802 
	0 
	0 
	0 
	0 
	0 
	0 
	0 
	F 1 F 0 F 1 F 0 } I I I I #
tcoedge-coedge $-1 $20 $20 $28 $29 reversed $13 $30 -1 0 #
face $-1 $31 $32 $10 $-1 $33 reversed single #
loop $-1 $-1 $34 $15 #
plane-surface $-1 0 0 9.9278890621870204 0 0 1 1 0 0 forward_v I I I I #
model_id-kcp-attrib $-1 $-1 $-1 $17 1 990662125 90 -1235615743 4 #
loop $-1 $-1 $28 $17 #
spline-surface $-1 forward { exactsur full nurbs 2 1 both periodic open none none 4 2 
	0 2 0.33333333333333298 2 0.66666666666666696 2 1 2 
	0 1 1.7024431014565899 1 
	-340.97083209041642 -79.499998982963348 25.99993595802998 1 
	-329.71261519382216 -79.499998990646588 25.949415573606366 0.5 
	-335.38547557843901 -79.49999915874308 16.224773932052447 1 
	-341.05833596305592 -79.499999326839571 6.5001322904985095 0.5 
	-346.64369247503322 -79.499999151059839 16.275294316476046 1 
	-352.22904898701046 -79.499998975280121 26.050456342453543 0.5 
	-340.97083209041642 -79.499998982963348 25.99993595802998 1 
	-340.97083202103596 35.500001017036674 25.999933929710281 1 
	-329.71261512444175 35.500001009353447 25.949413545286667 0.5 
	-335.38547550905861 35.500000841256927 16.224771903732751 1 
	-341.05833589367552 35.500000673160478 6.5001302621788106 0.5 
	-346.64369240565276 35.500000848940168 16.275292288156344 1 
	-352.22904891763 35.500001024719928 26.050454314133844 0.5 
	-340.97083202103596 35.500001017036674 25.999933929710281 1 
	0 
	0 
	0 
	0 
	0 
	0 
	0 
	F 1 F 0 F 1 F 0 } I I I I #
tcoedge-coedge $-1 $27 $27 $35 $36 reversed $18 $37 -1 0 #
tcoedge-coedge $-1 $38 $39 $20 $29 forward $25 $40 0 1 #
tedge-edge $-1 $41 0 $41 1 $20 $42 forward 7 unknown 0.00034544150113741991 #
pcurve $-1 0 forward { exppc nubs 2 periodic 25 
	-1 2 -0.95833333333333337 2 -0.91666666666666674 2 -0.875 2 -0.83333333333333337 2 
	-0.79166666666666674 2 -0.75 2 -0.70833333333333337 2 -0.66666666666666674 2 -0.625 2 
	-0.58333333333333337 2 -0.54166666666666674 2 -0.5 2 -0.45833333333333337 2 -0.41666666666666669 2 
	-0.375 2 -0.33333333333333337 2 -0.29166666666666669 2 -0.25 2 -0.20833333333333331 2 
	-0.16666666666666663 2 -0.12499999999999997 2 -0.083333333333333315 2 -0.041666666666666657 2 0 2 
	0.97619019229712989 0.49999957200522221 
	0.97619019229712989 0.55498531154388497 
	0.96365886406387935 0.60852405793678666 
	0.94973516602693908 0.66801155392888001 
	0.92124513773595407 0.7220573662959453 
	0.89047590718169123 0.78042684365237402 
	0.84499485793677331 0.82823077231250608 
	0.79761876497331174 0.87802653133348285 
	0.73809495586537188 0.91239261854514309 
	0.67857114675743313 0.94675870575680265 
	0.61175870796280651 0.96288972628472513 
	0.54761876671996434 0.97837550599153089 
	0.48168470124655693 0.97583770262820846 
	0.42063464062306233 0.97348788469920744 
	0.36215510886786223 0.95580241291775736 
	0.30952353028820273 0.93988548831445851 
	0.26190448300185937 0.91239261854513476 
	0.21428543571549036 0.88489974877579636 
	0.17418518536910851 0.84727792698620696 
	0.12962935165088346 0.80547590277553038 
	0.097069319318337607 0.75377990833747976 
	0.061904484399186055 0.69794823434438191 
	0.043245592401269448 0.63465852597743999 
	0.023809246570105524 0.56873174642853963 
	0.023809246570105493 0.49999957200522221 
	0.02380924657010549 0.43126739758189864 
	0.043245592401269385 0.36534061803299955 
	0.061904484399190648 0.3020509096660432 
	0.097069319318337705 0.24621923567295331 
	0.12962935165087808 0.19452324123491219 
	0.17418518536910998 0.15272121702422961 
	0.21428543571554987 0.11509939523458598 
	0.26190448300185987 0.087606525465280929 
	0.30952353028817114 0.060113655695975161 
	0.36215510886786373 0.044196731092667051 
	0.42063464062305789 0.026511259311219573 
	0.48168470124655888 0.024161441382218724 
	0.54761876671996323 0.021623638018896919 
	0.61175870796280896 0.037109417725704821 
	0.67857114675742525 0.053240438253626107 
	0.73809495586537344 0.087606525465293045 
	0.79761876497331863 0.12197261267695834 
	0.84499485793677431 0.17176837169793019 
	0.89047590718169189 0.21957230035806335 
	0.92124513773595529 0.27794177771449624 
	0.94973516602693309 0.33198759008155065 
	0.96365886406387968 0.39147508607367393 
	0.97619019229712989 0.44501383246657716 
	0.97619019229712989 0.49999957200522221 
	0.001 
	spline forward { ref 0 } I I I I 
	} 0 0 #
face $-1 $43 $44 $10 $-1 $45 reversed single #
loop $-1 $-1 $46 $21 #
plane-surface $-1 0 0 -9.9278890621870204 0 0 1 1 0 0 forward_v I I I I #
coedge $-1 $47 $48 $49 $50 forward $22 $-1 #
tcoedge-coedge $-1 $39 $38 $27 $36 forward $25 $51 0 1 #
tedge-edge $-1 $52 0 $52 1 $27 $53 forward 7 unknown 0.00034544150117768631 #
pcurve $-1 0 forward { exppc nubs 2 periodic 25 
	-1 2 -0.95833333333333337 2 -0.91666666666666674 2 -0.875 2 -0.83333333333333337 2 
	-0.79166666666666674 2 -0.75 2 -0.70833333333333337 2 -0.66666666666666674 2 -0.625 2 
	-0.58333333333333337 2 -0.54166666666666674 2 -0.5 2 -0.45833333333333337 2 -0.41666666666666669 2 
	-0.375 2 -0.33333333333333337 2 -0.29166666666666669 2 -0.25 2 -0.20833333333333331 2 
	-0.16666666666666663 2 -0.12499999999999997 2 -0.083333333333333315 2 -0.041666666666666657 2 0 2 
	0.50000042799477784 0.023809807702870157 
	0.55498616753343488 0.023809807702869883 
	0.6085249139263359 0.036341135936119942 
	0.66801240991845634 0.050264833973066358 
	0.72205822228551009 0.078754862264044365 
	0.78042769964193526 0.10952409281830436 
	0.82823162830207275 0.15500514206322605 
	0.87802738732304209 0.20238123502667929 
	0.91239347453470698 0.26190504413462612 
	0.94675956174637321 0.32142885324257542 
	0.96289058227429325 0.38824129203719104 
	0.97837636198110045 0.45238123328003832 
	0.97583855861777802 0.51831529875344062 
	0.97348874068877533 0.57936535937697187 
	0.95580326890733736 0.63784489113213605 
	0.9398863443040395 0.69047646971179599 
	0.91239347453471531 0.73809551699813913 
	0.88490060476540155 0.78571456428446429 
	0.84727878297576997 0.82581481463089101 
	0.8054767587650864 0.87037064834912359 
	0.75378076432704788 0.90293068068166205 
	0.69794909033395314 0.93809551560081206 
	0.63465938196700522 0.95675440759873054 
	0.56873260241810386 0.97619075342989481 
	0.50000042799477784 0.97619075342989492 
	0.43126825357145987 0.97619075342989503 
	0.36534147402255646 0.95675440759873076 
	0.30205176565562142 0.93809551560081661 
	0.24622009166252054 0.90293068068166327 
	0.1945240972244886 0.87037064834912914 
	0.15272207301380147 0.82581481463089224 
	0.11510025122419021 0.78571456428448661 
	0.087607381454865269 0.73809551699814102 
	0.060114511685509513 0.69047646971174204 
	0.044197587082227992 0.6378448911321376 
	0.026512115300808853 0.57936535937703737 
	0.024162297371801967 0.51831529875344395 
	0.021624494008476693 0.45238123328001878 
	0.037110273715277128 0.3882412920371936 
	0.053241294243196124 0.32142885324257636 
	0.087607381454861133 0.26190504413462817 
	0.121973468666527 0.20238123502667854 
	0.17176922768749311 0.1550051420632271 
	0.21957315634764266 0.10952409281829273 
	0.27794263370404071 0.078754862264045281 
	0.33198844607108935 0.050264833973068274 
	0.39147594206321268 0.036341135936120782 
	0.44501468845611347 0.023809807702870438 
	0.50000042799477784 0.023809807702870157 
	0.001 
	spline forward { ref 1 } I I I I 
	} 0 0 #
coedge $-1 $35 $28 $39 $54 reversed $25 $55 #
coedge $-1 $28 $35 $38 $54 forward $25 $56 #
pcurve $-1 0 forward { exppc nubs 2 periodic 25 
	0 2 0.041666666666666664 2 0.083333333333333329 2 0.125 2 0.16666666666666666 2 
	0.20833333333333331 2 0.25 2 0.29166666666666663 2 0.33333333333333331 2 0.375 2 
	0.41666666666666663 2 0.45833333333333331 2 0.5 2 0.54166666666666663 2 0.58333333333333326 2 
	0.625 2 0.66666666666666663 2 0.70833333333333326 2 0.75 2 0.79166666666666674 2 
	0.83333333333333337 2 0.875 2 0.91666666666666674 2 0.95833333333333337 2 1 2 
	0 0 
	0.022038567493110849 0 
	0.041666666666662862 0 
	0.063455657492352768 0 
	0.083333333333332746 0 
	0.10478547854788212 0 
	0.12500000000005274 0 
	0.1460481099656612 0 
	0.16666666666666649 0 
	0.18728522336767228 0 
	0.20833333333328136 0 
	0.22854785478545125 0 
	0.25000000000000006 0 
	0.26987767584097866 0 
	0.2916666666666668 0 
	0.31129476584022031 0 
	0.33333333333333298 0 
	0.35537190082644643 0 
	0.3750000000000005 0 
	0.39678899082568786 0 
	0.41666666666666602 0 
	0.43811881188121538 0 
	0.45833333333338594 0 
	0.47938144329899457 0 
	0.5 0 
	0.52061855670100488 0 
	0.54166666666661301 0 
	0.56188118811878396 0 
	0.58333333333333426 0 
	0.60321100917431303 0 
	0.62500000000000133 0 
	0.64462809917355435 0 
	0.6666666666666663 0 
	0.68870523415977969 0 
	0.70833333333333359 0 
	0.73012232415902167 0 
	0.75000000000000022 0 
	0.77145214521454908 0 
	0.79166666666671903 0 
	0.81271477663232794 0 
	0.83333333333333337 0 
	0.85395189003433836 0 
	0.8749999999999466 0 
	0.89521452145211711 0 
	0.91666666666666641 0 
	0.93654434250764373 0 
	0.95833333333333026 0 
	0.9779614325068855 0 
	1 0 
	0.001 
	spline forward { ref 2 } I I I I 
	} 0 0 #
tvertex-vertex $-1 $29 $57 0 #
intcurve-curve $-1 forward { exactcur full nurbs 2 periodic 4 
	0 2 0.33333333333333298 2 0.66666666666666696 2 1 2 
	-340.97083209041642 -79.499998982963348 25.99993595802998 1 
	-329.71261519382216 -79.499998990646588 25.94941557360637 0.5 
	-335.38547557843901 -79.49999915874308 16.224773932052447 1 
	-341.05833596305592 -79.499999326839571 6.5001322904985095 0.5 
	-346.64369247503322 -79.499999151059839 16.275294316476046 1 
	-352.22904898701046 -79.499998975280121 26.050456342453543 0.5 
	-340.97083209041642 -79.499998982963348 25.99993595802998 1 
	0 
	null_surface 
	null_surface 
	nullbs 
	nullbs 
	I I 
	0 
	0 
	0 
	F 1 F 0 } I I #
face $-1 $58 $59 $10 $-1 $60 reversed single #
loop $-1 $-1 $61 $31 #
plane-surface $-1 0 -57.500366202535538 0 0 1 0 0 0 1 forward_v I I I I #
coedge $-1 $62 $63 $64 $65 forward $32 $-1 #
coedge $-1 $66 $34 $67 $68 forward $22 $-1 #
coedge $-1 $34 $66 $69 $70 forward $22 $-1 #
coedge $-1 $71 $72 $34 $50 reversed $73 $-1 #
edge $-1 $74 -57.500366202535538 $75 57.500366202535538 $49 $76 forward 7 unknown #
pcurve $-1 0 forward { exppc nubs 2 periodic 25 
	0 2 0.041666666666666664 2 0.083333333333333329 2 0.125 2 0.16666666666666666 2 
	0.20833333333333331 2 0.25 2 0.29166666666666663 2 0.33333333333333331 2 0.375 2 
	0.41666666666666663 2 0.45833333333333331 2 0.5 2 0.54166666666666663 2 0.58333333333333326 2 
	0.625 2 0.66666666666666663 2 0.70833333333333326 2 0.75 2 0.79166666666666674 2 
	0.83333333333333337 2 0.875 2 0.91666666666666674 2 0.95833333333333337 2 1 2 
	1 1.7024431014565899 
	0.97796143250688572 1.7024431014565897 
	0.95833333333333071 1.7024431014565897 
	0.93654434250764429 1.7024431014565897 
	0.91666666666666718 1.7024431014565899 
	0.895214521452117 1.7024431014565899 
	0.87499999999994593 1.7024431014565899 
	0.85395189003433813 1.7024431014565899 
	0.83333333333333348 1.7024431014565899 
	0.81271477663232794 1.7024431014565902 
	0.79166666666671914 1.7024431014565899 
	0.77145214521454886 1.7024431014565899 
	0.74999999999999978 1.7024431014565899 
	0.73012232415902134 1.7024431014565902 
	0.70833333333333326 1.7024431014565899 
	0.6887052341597798 1.7024431014565899 
	0.66666666666666696 1.7024431014565899 
	0.6446280991735529 1.7024431014565899 
	0.62499999999999822 1.7024431014565899 
	0.60321100917431081 1.7024431014565899 
	0.58333333333333293 1.7024431014565899 
	0.56188118811878507 1.7024431014565899 
	0.541666666666616 1.7024431014565899 
	0.52061855670100632 1.7024431014565899 
	0.5 1.7024431014565899 
	0.47938144329899401 1.7024431014565899 
	0.45833333333338488 1.7024431014565899 
	0.43811881188121526 1.7024431014565902 
	0.41666666666666674 1.7024431014565899 
	0.39678899082568908 1.7024431014565899 
	0.37500000000000222 1.7024431014565899 
	0.35537190082644737 1.7024431014565899 
	0.33333333333333298 1.7024431014565899 
	0.31129476584022009 1.7024431014565899 
	0.29166666666666646 1.7024431014565899 
	0.26987767584097844 1.7024431014565899 
	0.24999999999999989 1.7024431014565899 
	0.22854785478545103 1.7024431014565899 
	0.20833333333328105 1.7024431014565899 
	0.18728522336767214 1.7024431014565899 
	0.16666666666666649 1.7024431014565899 
	0.14604810996566117 1.7024431014565899 
	0.12500000000005274 1.7024431014565899 
	0.10478547854788216 1.7024431014565899 
	0.083333333333332635 1.7024431014565899 
	0.063455657492353656 1.7024431014565899 
	0.041666666666665374 1.7024431014565899 
	0.022038567493112324 1.7024431014565899 
	0 1.7024431014565899 
	0.001 
	spline forward { ref 2 } I I I I 
	} 0 0 #
tvertex-vertex $-1 $36 $77 6.0812662527438342e-014 #
intcurve-curve $-1 forward { exactcur full nurbs 2 periodic 4 
	0 2 0.33333333333333298 2 0.66666666666666696 2 1 2 
	-340.97083202103596 35.500001017036674 25.999933929710281 1 
	-352.22904891763 35.500001024719928 26.050454314133844 0.5 
	-346.64369240565276 35.500000848940168 16.275292288156344 1 
	-341.05833589367552 35.500000673160478 6.5001302621788106 0.5 
	-335.38547550905861 35.500000841256927 16.224771903732751 1 
	-329.71261512444175 35.500001009353447 25.949413545286671 0.5 
	-340.97083202103596 35.500001017036674 25.999933929710281 1 
	0 
	null_surface 
	null_surface 
	nullbs 
	nullbs 
	I I 
	0 
	0 
	0 
	F 1 F 0 } I I #
edge $-1 $52 0 $41 1 $39 $78 forward 7 unknown #
pcurve $-1 0 forward { exppc nubs 2 open 7 
	-1 2 -0.83333333333333337 2 -0.66666666666666674 2 -0.5 2 -0.33333333333333337 2 
	-0.16666666666666663 2 0 2 
	1 0 
	1 0.14187025845471579 
	1 0.28374051690943158 
	1 0.42561077536414738 
	1 0.56748103381886317 
	1 0.70935129227357907 
	1 0.85122155072829497 
	1 0.99309180918301077 
	1 1.1349620676377266 
	1 1.2768323260924426 
	1 1.4187025845471584 
	1 1.5605728430018742 
	1 1.7024431014565899 
	0.001 
	spline forward { ref 2 } I I I I 
	} 0 0 #
pcurve $-1 0 forward { exppc nubs 2 open 7 
	0 2 0.16666666666666666 2 0.33333333333333331 2 0.5 2 0.66666666666666663 2 
	0.83333333333333337 2 1 2 
	0 1.7024431014565899 
	0 1.5605728430018742 
	0 1.4187025845471584 
	0 1.2768323260924426 
	0 1.1349620676377268 
	0 0.99309180918301088 
	0 0.85122155072829497 
	0 0.70935129227357918 
	0 0.5674810338188635 
	0 0.42561077536414754 
	0 0.28374051690943158 
	0 0.14187025845471579 
	0 0 
	0.001 
	spline forward { ref 2 } I I I I 
	} 0 0 #
point $-1 -340.97083209041642 -79.499998982963348 25.99993595802998 #
face $-1 $79 $80 $10 $-1 $81 reversed single #
loop $-1 $-1 $82 $43 #
plane-surface $-1 -11.258562372785491 0 0 1 0 0 0 0 -1 forward_v I I I I #
coedge $-1 $83 $69 $84 $85 forward $44 $-1 #
coedge $-1 $86 $46 $83 $87 forward $32 $-1 #
coedge $-1 $46 $86 $88 $89 forward $32 $-1 #
coedge $-1 $72 $71 $46 $65 reversed $73 $-1 #
edge $-1 $90 -57.500366202535538 $91 57.500366202535538 $64 $92 forward 7 unknown #
coedge $-1 $48 $47 $93 $94 forward $22 $-1 #
coedge $-1 $95 $96 $47 $68 reversed $80 $-1 #
edge $-1 $75 -11.258562372785491 $97 11.258562372785491 $67 $98 forward 7 unknown #
coedge $-1 $61 $99 $48 $70 reversed $44 $-1 #
edge $-1 $100 -11.258562372785491 $74 11.258562372785491 $69 $101 forward 7 unknown #
coedge $-1 $64 $49 $99 $102 forward $73 $-1 #
coedge $-1 $49 $64 $95 $103 reversed $73 $-1 #
loop $-1 $-1 $71 $79 #
vertex $-1 $50 $104 #
vertex $-1 $50 $105 #
straight-curve $-1 11.258562372785491 0 9.9278890621870204 0 1 0 I I #
point $-1 -340.97083202103596 35.500001017036674 25.999933929710281 #
intcurve-curve $-1 forward { exactcur full nubs 1 open 2 
	0 1 1 1 
	-340.97083202103596 35.500001017036674 25.999933929710281 
	-340.97083209041642 -79.499998982963348 25.99993595802998 
	0 
	null_surface 
	null_surface 
	nullbs 
	nullbs 
	I I 
	0 
	0 
	0 
	F 1 F 0 } I I #
face $-1 $-1 $73 $10 $-1 $106 reversed single #
loop $-1 $-1 $95 $58 #
plane-surface $-1 0 57.500366202535538 0 0 -1 0 0 0 -1 forward_v I I I I #
coedge $-1 $107 $93 $96 $108 forward $59 $-1 #
coedge $-1 $99 $61 $62 $87 reversed $44 $-1 #
coedge $-1 $93 $107 $61 $85 reversed $59 $-1 #
edge $-1 $100 -9.9278890621870204 $109 9.9278890621870204 $84 $110 forward 7 unknown #
coedge $-1 $63 $62 $107 $111 forward $32 $-1 #
edge $-1 $91 -11.258562372785491 $109 11.258562372785491 $83 $112 forward 7 unknown #
coedge $-1 $96 $95 $63 $89 reversed $80 $-1 #
edge $-1 $113 -11.258562372785491 $90 11.258562372785491 $88 $114 forward 7 unknown #
vertex $-1 $65 $115 #
vertex $-1 $102 $116 #
straight-curve $-1 11.258562372785491 0 -9.9278890621870204 0 -1 0 I I #
coedge $-1 $82 $84 $66 $94 reversed $59 $-1 #
edge $-1 $97 -57.500366202535538 $100 57.500366202535538 $93 $117 forward 7 unknown #
coedge $-1 $88 $67 $72 $103 forward $80 $-1 #
coedge $-1 $67 $88 $82 $108 reversed $80 $-1 #
vertex $-1 $68 $118 #
straight-curve $-1 0 57.500366202535538 9.9278890621870204 -1 0 0 I I #
coedge $-1 $69 $83 $71 $102 reversed $44 $-1 #
vertex $-1 $94 $119 #
straight-curve $-1 0 -57.500366202535538 9.9278890621870204 1 0 0 I I #
edge $-1 $74 -9.9278890621870204 $91 9.9278890621870204 $71 $120 forward 7 unknown #
edge $-1 $75 -9.9278890621870204 $90 9.9278890621870204 $72 $121 forward 7 unknown #
point $-1 11.258562372785491 -57.500366202535538 9.9278890621870204 #
point $-1 11.258562372785491 57.500366202535538 9.9278890621870204 #
plane-surface $-1 11.258562372785491 0 0 -1 0 0 0 0 1 forward_v I I I I #
coedge $-1 $84 $82 $86 $111 reversed $59 $-1 #
edge $-1 $97 -9.9278890621870204 $113 9.9278890621870204 $96 $122 forward 7 unknown #
vertex $-1 $111 $123 #
straight-curve $-1 -11.258562372785491 -57.500366202535538 0 0 0 -1 I I #
edge $-1 $109 -57.500366202535538 $113 57.500366202535538 $107 $124 forward 7 unknown #
straight-curve $-1 0 -57.500366202535538 -9.9278890621870204 -1 0 0 I I #
vertex $-1 $89 $125 #
straight-curve $-1 0 57.500366202535538 -9.9278890621870204 1 0 0 I I #
point $-1 11.258562372785491 57.500366202535538 -9.9278890621870204 #
point $-1 11.258562372785491 -57.500366202535538 -9.9278890621870204 #
straight-curve $-1 -11.258562372785491 0 9.9278890621870204 0 -1 0 I I #
point $-1 -11.258562372785491 57.500366202535538 9.9278890621870204 #
point $-1 -11.258562372785491 -57.500366202535538 9.9278890621870204 #
straight-curve $-1 11.258562372785491 -57.500366202535538 0 0 0 -1 I I #
straight-curve $-1 11.258562372785491 57.500366202535538 0 0 0 -1 I I #
straight-curve $-1 -11.258562372785491 57.500366202535538 0 0 0 -1 I I #
point $-1 -11.258562372785491 -57.500366202535538 -9.9278890621870204 #
straight-curve $-1 -11.258562372785491 0 -9.9278890621870204 0 1 0 I I #
point $-1 -11.258562372785491 57.500366202535538 -9.9278890621870204 #
End-of-ACIS-data 