600 0 2 0           
24 FBMach with ACIS - 6.0.3 13 ACIS 6.0.3 NT 24 Wed May 23 19:54:37 2001 
1 9.9999999999999995e-007 1e-010 
body $2 $3 $-1 $-1 #
bdycol-kcp $-1 1 1 $4 #
model_id-kcp-attrib $-1 $-1 $-1 $0 1 990662077 70 54919169 1 #
lump $-1 $-1 $5 $0 #
body $6 $7 $-1 $8 #
shell $-1 $-1 $-1 $9 $-1 $3 #
model_id-kcp-attrib $-1 $-1 $-1 $4 1 990662077 90 56229890 1 #
lump $-1 $-1 $10 $4 #
transform $-1 1 0 0 0 1 0 0 0 1 -180.00000003201944 -53.017693853261342 -69.953390666863882 1 no_rotate no_reflect no_shear #
face $11 $12 $13 $5 $-1 $14 forward single #
shell $-1 $-1 $-1 $15 $-1 $7 #
model_id-kcp-attrib $-1 $-1 $-1 $9 1 990662077 70 54919169 2 #
face $16 $17 $18 $5 $-1 $19 forward single #
loop $-1 $-1 $20 $9 #
spline-surface $-1 forward { exactsur full nubs 1 1 open open none none 2 2 
	0 1 1 1 
	0 1 1 1 
	-295.00000002791126 -46.224115768787996 -66.191946939060358 
	-295.00000002789187 -46.191946760547978 -79.841909127961827 
	-295.0000000361473 -59.874077957689465 -66.224115947300362 
	-295.00000003612786 -59.841908949449447 -79.874078136201845 
	0 
	0 
	0 
	0 
	0 
	0 
	0 
	F 1 F 0 F 1 F 0 } I I I I #
face $-1 $21 $22 $10 $-1 $23 forward single #
model_id-kcp-attrib $-1 $-1 $-1 $12 1 990662077 70 54919169 3 #
face $24 $-1 $25 $5 $-1 $26 forward single #
loop $-1 $-1 $27 $12 #
spline-surface $-1 forward { exactsur full nubs 1 1 open open none none 2 2 
	0 1 1 1 
	0 1 1 1 
	-65.000000036127858 -59.841909088225421 -79.874078136201845 
	-65.000000027891815 -46.191946899323952 -79.841909127961827 
	-65.00000003614727 -59.874078096465439 -66.224115947300362 
	-65.000000027911227 -46.22411590756397 -66.191946939060358 
	0 
	0 
	0 
	0 
	0 
	0 
	0 
	F 1 F 0 F 1 F 0 } I I I I #
tcoedge-coedge $-1 $20 $20 $28 $29 reversed $13 $30 -1 0 #
face $-1 $31 $32 $10 $-1 $33 reversed single #
loop $-1 $-1 $34 $15 #
plane-surface $-1 0 0 9.9206874693379596 0 0 1 1 0 0 forward_v I I I I #
model_id-kcp-attrib $-1 $-1 $-1 $17 1 990662077 70 54919169 4 #
loop $-1 $-1 $28 $17 #
spline-surface $-1 forward { exactsur full nurbs 2 1 both periodic open none none 4 2 
	0 2 0.33333333333333298 2 0.66666666666666696 2 1 2 
	0 1 3.4048862029131781 1 
	-295.00000003201035 -53.017693783873355 -79.532994486933148 1 
	-295.00000002521739 -41.759394799401619 -79.506461936308625 0.5 
	-295.00000002862771 -47.411522154505533 -69.769755287667834 1 
	-295.00000003203809 -53.063649509609448 -60.033048639027008 0.5 
	-295.00000003542067 -58.669821138977298 -69.796287838292344 1 
	-295.00000003880331 -64.275992768345091 -79.559527037557686 0.5 
	-295.00000003201035 -53.017693783873355 -79.532994486933148 1 
	-65.000000032010291 -53.017693922649329 -79.532994486933148 1 
	-65.000000025217275 -41.759394938177593 -79.506461936308625 0.5 
	-65.000000028627682 -47.411522293281507 -69.769755287667834 1 
	-65.000000032037974 -53.063649648385422 -60.033048639027008 0.5 
	-65.000000035420641 -58.669821277753272 -69.796287838292344 1 
	-65.000000038803222 -64.275992907121065 -79.559527037557686 0.5 
	-65.000000032010291 -53.017693922649329 -79.532994486933148 1 
	0 
	0 
	0 
	0 
	0 
	0 
	0 
	F 1 F 0 F 1 F 0 } I I I I #
tcoedge-coedge $-1 $27 $27 $35 $36 reversed $18 $37 -1 0 #
tcoedge-coedge $-1 $38 $39 $20 $29 forward $25 $40 0 1 #
tedge-edge $-1 $41 0 $41 1 $20 $42 forward 7 unknown 0.00034544150108141794 #
pcurve $-1 0 forward { exppc nubs 2 periodic 25 
	-1 2 -0.95833333333333337 2 -0.91666666666666674 2 -0.875 2 -0.83333333333333337 2 
	-0.79166666666666674 2 -0.75 2 -0.70833333333333337 2 -0.66666666666666674 2 -0.625 2 
	-0.58333333333333337 2 -0.54166666666666674 2 -0.5 2 -0.45833333333333337 2 -0.41666666666666669 2 
	-0.375 2 -0.33333333333333337 2 -0.29166666666666669 2 -0.25 2 -0.20833333333333331 2 
	-0.16666666666666663 2 -0.12499999999999997 2 -0.083333333333333315 2 -0.041666666666666657 2 0 2 
	0.97619047286351279 0.5 
	0.97619047286351279 0.55498573953865826 
	0.96365914463026259 0.60852448593156039 
	0.94973544659331788 0.66801198192367373 
	0.9212454183023383 0.72205779429072992 
	0.89047618774808068 0.78042727164715009 
	0.84499513850315711 0.82823120030728858 
	0.79761904553969654 0.8780269593282648 
	0.73809523643175634 0.91239304653992603 
	0.67857142732381748 0.94675913375158638 
	0.61175898852919131 0.96289015427950875 
	0.5476190472863478 0.97837593398631473 
	0.48168498181294173 0.97583813062299207 
	0.42063492118940815 0.97348831269398928 
	0.36215538943424602 0.95580284091255185 
	0.30952381085460001 0.93988591630925833 
	0.26190476356824399 0.91239304653992703 
	0.21428571628189674 0.88490017677060084 
	0.17418546593549245 0.84727835498099024 
	0.12962963221726687 0.80547633077031322 
	0.097069599884721164 0.75378033633226293 
	0.061904764965571582 0.69794866233916819 
	0.043245872967653358 0.63465895397222072 
	0.023809527136489546 0.56873217442332025 
	0.023809527136489643 0.49999999999999895 
	0.02380952713648974 0.43126782557667753 
	0.04324587296765306 0.36534104602777934 
	0.061904764965570472 0.30205133766083492 
	0.097069599884721622 0.24621966366773793 
	0.12962963221726709 0.19452366922968806 
	0.17418546593549317 0.15272164501901059 
	0.21428571628189452 0.11509982322940282 
	0.26190476356824449 0.08760695346007509 
	0.3095238108546009 0.060114083690743725 
	0.36215538943424747 0.044197159087449651 
	0.42063492118940959 0.026511687306012003 
	0.48168498181294245 0.024161869377009173 
	0.54761904728635435 0.02162406601368623 
	0.61175898852919186 0.037109845720490794 
	0.67857142732381659 0.053240866248412747 
	0.7380952364317569 0.087606953460073952 
	0.79761904553969531 0.12197304067173409 
	0.84499513850315733 0.17176879969271225 
	0.89047618774808091 0.21957272835285119 
	0.9212454183023383 0.27794220570927075 
	0.94973544659331832 0.33198801807632772 
	0.96365914463026281 0.39147551406844011 
	0.97619047286351279 0.44501426046134129 
	0.97619047286351279 0.5 
	0.001 
	spline forward { ref 0 } I I I I 
	} 0 0 #
face $-1 $43 $44 $10 $-1 $45 reversed single #
loop $-1 $-1 $46 $21 #
plane-surface $-1 0 0 -9.9206874693379596 0 0 1 1 0 0 forward_v I I I I #
coedge $-1 $47 $48 $49 $50 forward $22 $-1 #
tcoedge-coedge $-1 $39 $38 $27 $36 forward $25 $51 0 1 #
tedge-edge $-1 $52 0 $52 1 $27 $53 forward 7 unknown 0.00034544150108406063 #
pcurve $-1 0 forward { exppc nubs 2 periodic 25 
	-1 2 -0.95833333333333337 2 -0.91666666666666674 2 -0.875 2 -0.83333333333333337 2 
	-0.79166666666666674 2 -0.75 2 -0.70833333333333337 2 -0.66666666666666674 2 -0.625 2 
	-0.58333333333333337 2 -0.54166666666666674 2 -0.5 2 -0.45833333333333337 2 -0.41666666666666669 2 
	-0.375 2 -0.33333333333333337 2 -0.29166666666666669 2 -0.25 2 -0.20833333333333331 2 
	-0.16666666666666663 2 -0.12499999999999997 2 -0.083333333333333315 2 -0.041666666666666657 2 0 2 
	0.5 0.023809527136487301 
	0.55498573953865737 0.023809527136487249 
	0.60852448593155939 0.036340855369737378 
	0.66801198192367217 0.050264553406681872 
	0.72205779429072869 0.078754581697661613 
	0.78042727164714831 0.10952381225191901 
	0.82823120030728736 0.15500486149684262 
	0.87802695932826569 0.20238095446030496 
	0.91239304653992603 0.26190476356824322 
	0.94675913375158638 0.32142857267618152 
	0.96289015427950919 0.38824101147080808 
	0.97837593398631395 0.4523809527136447 
	0.97583813062299118 0.51831501818705739 
	0.97348831269398883 0.57936507881058263 
	0.95580284091254875 0.63784461056575281 
	0.939885916309253 0.69047618914540454 
	0.91239304653992503 0.73809523643175501 
	0.88490017677059651 0.78571428371810625 
	0.84727835498098947 0.825814534064507 
	0.80547633077031655 0.87037036778272836 
	0.75378033633226071 0.90293040011527781 
	0.69794866233916109 0.93809523503443071 
	0.63465895397222161 0.95675412703234675 
	0.56873217442332269 0.97619047286351024 
	0.500000000000001 0.97619047286351035 
	0.4312678255766782 0.97619047286351046 
	0.36534104602778017 0.95675412703234719 
	0.30205133766083481 0.9380952350344296 
	0.24621966366773826 0.90293040011527859 
	0.19452366922968251 0.87037036778272925 
	0.15272164501900906 0.82581453406450744 
	0.11509982322939888 0.78571428371810348 
	0.087606953460072939 0.73809523643175701 
	0.060114083690747146 0.69047618914541076 
	0.04419715908744986 0.63784461056575281 
	0.026511687306008384 0.57936507881057686 
	0.024161869377006529 0.51831501818705872 
	0.021624066013684308 0.45238095271365586 
	0.037109845720491356 0.38824101147080864 
	0.053240866248413996 0.32142857267618175 
	0.08760695346007405 0.26190476356824371 
	0.12197304067173642 0.2023809544603018 
	0.17176879969271086 0.15500486149684287 
	0.21957272835284702 0.10952381225192151 
	0.27794220570927131 0.078754581697661669 
	0.33198801807632716 0.050264553406682316 
	0.3914755140684415 0.036340855369737447 
	0.44501426046134324 0.023809527136487325 
	0.5 0.023809527136487301 
	0.001 
	spline forward { ref 1 } I I I I 
	} 0 0 #
coedge $-1 $35 $28 $39 $54 reversed $25 $55 #
coedge $-1 $28 $35 $38 $54 forward $25 $56 #
pcurve $-1 0 forward { exppc nubs 2 periodic 25 
	0 2 0.041666666666666664 2 0.083333333333333329 2 0.125 2 0.16666666666666666 2 
	0.20833333333333331 2 0.25 2 0.29166666666666663 2 0.33333333333333331 2 0.375 2 
	0.41666666666666663 2 0.45833333333333331 2 0.5 2 0.54166666666666663 2 0.58333333333333326 2 
	0.625 2 0.66666666666666663 2 0.70833333333333326 2 0.75 2 0.79166666666666674 2 
	0.83333333333333337 2 0.875 2 0.91666666666666674 2 0.95833333333333337 2 1 2 
	0 0 
	0.022038567493112862 0 
	0.041666666666666491 0 
	0.063455657492354656 0 
	0.083333333333333356 0 
	0.10478547854788223 0 
	0.12500000000005224 0 
	0.14604810996566098 0 
	0.16666666666666649 0 
	0.18728522336767223 0 
	0.20833333333328125 0 
	0.2285478547854512 0 
	0.25 0 
	0.26987767584097866 0 
	0.2916666666666668 0 
	0.31129476584022048 0 
	0.33333333333333337 0 
	0.3553719008264461 0 
	0.37499999999999967 0 
	0.39678899082568797 0 
	0.4166666666666668 0 
	0.43811881188121571 0 
	0.45833333333338572 0 
	0.47938144329899446 0 
	0.5 0 
	0.52061855670100532 0 
	0.54166666666661401 0 
	0.56188118811878418 0 
	0.58333333333333315 0 
	0.60321100917431192 0 
	0.62500000000000022 0 
	0.64462809917355379 0 
	0.66666666666666652 0 
	0.68870523415977969 0 
	0.7083333333333337 0 
	0.73012232415902178 0 
	0.75000000000000011 0 
	0.77145214521454886 0 
	0.79166666666671892 0 
	0.81271477663232794 0 
	0.83333333333333348 0 
	0.85395189003433902 0 
	0.87499999999994771 0 
	0.895214521452118 0 
	0.91666666666666696 0 
	0.9365443425076454 0 
	0.95833333333333315 0 
	0.97796143250688683 0 
	1 0 
	0.001 
	spline forward { ref 2 } I I I I 
	} 0 0 #
tvertex-vertex $-1 $29 $57 1.4210854715202004e-014 #
intcurve-curve $-1 forward { exactcur full nurbs 2 periodic 4 
	0 2 0.33333333333333298 2 0.66666666666666696 2 1 2 
	-295.00000003201035 -53.017693783873355 -79.532994486933148 1 
	-295.00000002521739 -41.759394799401619 -79.506461936308625 0.5 
	-295.00000002862771 -47.411522154505533 -69.769755287667834 1 
	-295.00000003203809 -53.063649509609448 -60.033048639027008 0.5 
	-295.00000003542067 -58.669821138977298 -69.796287838292344 1 
	-295.00000003880331 -64.275992768345091 -79.559527037557686 0.5 
	-295.00000003201035 -53.017693783873355 -79.532994486933148 1 
	0 
	null_surface 
	null_surface 
	nullbs 
	nullbs 
	I I 
	0 
	0 
	0 
	F 1 F 0 } I I #
face $-1 $58 $59 $10 $-1 $60 reversed single #
loop $-1 $-1 $61 $31 #
plane-surface $-1 0 -11.258644495360805 0 0 1 0 0 0 1 forward_v I I I I #
coedge $-1 $62 $63 $64 $65 forward $32 $-1 #
coedge $-1 $66 $34 $67 $68 forward $22 $-1 #
coedge $-1 $34 $66 $69 $70 forward $22 $-1 #
coedge $-1 $71 $72 $34 $50 reversed $73 $-1 #
edge $-1 $74 -11.258644495360805 $75 11.258644495360805 $49 $76 forward 7 unknown #
pcurve $-1 0 forward { exppc nubs 2 periodic 25 
	0 2 0.041666666666666664 2 0.083333333333333329 2 0.125 2 0.16666666666666666 2 
	0.20833333333333331 2 0.25 2 0.29166666666666663 2 0.33333333333333331 2 0.375 2 
	0.41666666666666663 2 0.45833333333333331 2 0.5 2 0.54166666666666663 2 0.58333333333333326 2 
	0.625 2 0.66666666666666663 2 0.70833333333333326 2 0.75 2 0.79166666666666674 2 
	0.83333333333333337 2 0.875 2 0.91666666666666674 2 0.95833333333333337 2 1 2 
	1 3.4048862029131781 
	0.97796143250688705 3.4048862029131777 
	0.95833333333333348 3.4048862029131777 
	0.93654434250764518 3.4048862029131781 
	0.91666666666666641 3.4048862029131781 
	0.89521452145211788 3.4048862029131781 
	0.87499999999994815 3.4048862029131777 
	0.85395189003433902 3.4048862029131772 
	0.83333333333333337 3.4048862029131772 
	0.81271477663232772 3.4048862029131777 
	0.79166666666671881 3.4048862029131781 
	0.77145214521454886 3.4048862029131781 
	0.74999999999999989 3.4048862029131781 
	0.73012232415902134 3.4048862029131781 
	0.70833333333333348 3.4048862029131781 
	0.68870523415977991 3.4048862029131781 
	0.66666666666666696 3.4048862029131781 
	0.64462809917355379 3.4048862029131781 
	0.62499999999999989 3.4048862029131781 
	0.60321100917431192 3.4048862029131781 
	0.58333333333333337 3.4048862029131777 
	0.5618811881187844 3.4048862029131781 
	0.54166666666661412 3.4048862029131781 
	0.52061855670100543 3.4048862029131781 
	0.5 3.4048862029131781 
	0.47938144329899446 3.4048862029131781 
	0.45833333333338572 3.4048862029131777 
	0.43811881188121571 3.4048862029131781 
	0.4166666666666668 3.4048862029131777 
	0.39678899082568819 3.4048862029131777 
	0.37500000000000011 3.4048862029131781 
	0.35537190082644632 3.4048862029131781 
	0.33333333333333337 3.4048862029131777 
	0.31129476584022048 3.4048862029131777 
	0.2916666666666668 3.4048862029131781 
	0.26987767584097855 3.4048862029131781 
	0.24999999999999978 3.4048862029131781 
	0.228547854785451 3.4048862029131781 
	0.20833333333328108 3.4048862029131777 
	0.18728522336767217 3.4048862029131772 
	0.16666666666666649 3.4048862029131781 
	0.14604810996566087 3.4048862029131781 
	0.12500000000005201 3.4048862029131777 
	0.10478547854788189 3.4048862029131777 
	0.083333333333332912 3.4048862029131781 
	0.063455657492354517 3.4048862029131781 
	0.041666666666666671 3.4048862029131777 
	0.022038567493112952 3.4048862029131777 
	0 3.4048862029131781 
	0.001 
	spline forward { ref 2 } I I I I 
	} 0 0 #
tvertex-vertex $-1 $36 $77 2.0097183471152322e-014 #
intcurve-curve $-1 forward { exactcur full nurbs 2 periodic 4 
	0 2 0.33333333333333298 2 0.66666666666666696 2 1 2 
	-65.000000032010291 -53.017693922649329 -79.532994486933148 1 
	-65.000000038803222 -64.275992907121065 -79.559527037557686 0.5 
	-65.000000035420641 -58.669821277753272 -69.796287838292344 1 
	-65.000000032037974 -53.063649648385422 -60.033048639027008 0.5 
	-65.000000028627682 -47.411522293281507 -69.769755287667834 1 
	-65.000000025217275 -41.759394938177593 -79.506461936308625 0.5 
	-65.000000032010291 -53.017693922649329 -79.532994486933148 1 
	0 
	null_surface 
	null_surface 
	nullbs 
	nullbs 
	I I 
	0 
	0 
	0 
	F 1 F 0 } I I #
edge $-1 $52 0 $41 1 $39 $78 forward 7 unknown #
pcurve $-1 0 forward { exppc nubs 2 open 7 
	-1 2 -0.83333333333333337 2 -0.66666666666666674 2 -0.5 2 -0.33333333333333337 2 
	-0.16666666666666663 2 0 2 
	1 0 
	1 0.28374051690943142 
	1 0.56748103381886283 
	1 0.85122155072829431 
	1 1.1349620676377259 
	1 1.4187025845471575 
	1 1.7024431014565891 
	1 1.9861836183660204 
	1 2.2699241352754518 
	1 2.5536646521848834 
	1 2.8374051690943154 
	1 3.1211456860037465 
	1 3.4048862029131781 
	0.001 
	spline forward { ref 2 } I I I I 
	} 0 0 #
pcurve $-1 0 forward { exppc nubs 2 open 7 
	0 2 0.16666666666666666 2 0.33333333333333331 2 0.5 2 0.66666666666666663 2 
	0.83333333333333337 2 1 2 
	0 3.4048862029131781 
	0 3.1211456860037465 
	0 2.8374051690943154 
	0 2.5536646521848843 
	0 2.2699241352754527 
	0 1.9861836183660209 
	0 1.7024431014565891 
	0 1.4187025845471577 
	0 1.1349620676377263 
	0 0.85122155072829453 
	0 0.56748103381886283 
	0 0.28374051690943142 
	0 0 
	0.001 
	spline forward { ref 2 } I I I I 
	} 0 0 #
point $-1 -295.00000003201035 -53.017693783873355 -79.532994486933148 #
face $-1 $79 $80 $10 $-1 $81 reversed single #
loop $-1 $-1 $82 $43 #
plane-surface $-1 -115.0003660915401 0 0 1 0 0 0 0 -1 forward_v I I I I #
coedge $-1 $83 $69 $84 $85 forward $44 $-1 #
coedge $-1 $86 $46 $83 $87 forward $32 $-1 #
coedge $-1 $46 $86 $88 $89 forward $32 $-1 #
coedge $-1 $72 $71 $46 $65 reversed $73 $-1 #
edge $-1 $90 -11.258644495360805 $91 11.258644495360805 $64 $92 forward 7 unknown #
coedge $-1 $48 $47 $93 $94 forward $22 $-1 #
coedge $-1 $95 $96 $47 $68 reversed $80 $-1 #
edge $-1 $75 -115.0003660915401 $97 115.0003660915401 $67 $98 forward 7 unknown #
coedge $-1 $61 $99 $48 $70 reversed $44 $-1 #
edge $-1 $100 -115.0003660915401 $74 115.0003660915401 $69 $101 forward 7 unknown #
coedge $-1 $64 $49 $99 $102 forward $73 $-1 #
coedge $-1 $49 $64 $95 $103 reversed $73 $-1 #
loop $-1 $-1 $71 $79 #
vertex $-1 $50 $104 #
vertex $-1 $50 $105 #
straight-curve $-1 115.0003660915401 0 9.9206874693379596 0 1 0 I I #
point $-1 -65.000000032010291 -53.017693922649329 -79.532994486933148 #
intcurve-curve $-1 forward { exactcur full nubs 1 open 2 
	0 1 1 1 
	-65.000000032010291 -53.017693922649329 -79.532994486933148 
	-295.00000003201035 -53.017693783873355 -79.532994486933148 
	0 
	null_surface 
	null_surface 
	nullbs 
	nullbs 
	I I 
	0 
	0 
	0 
	F 1 F 0 } I I #
face $-1 $-1 $73 $10 $-1 $106 reversed single #
loop $-1 $-1 $95 $58 #
plane-surface $-1 0 11.258644495360805 0 0 -1 0 0 0 -1 forward_v I I I I #
coedge $-1 $107 $93 $96 $108 forward $59 $-1 #
coedge $-1 $99 $61 $62 $87 reversed $44 $-1 #
coedge $-1 $93 $107 $61 $85 reversed $59 $-1 #
edge $-1 $100 -9.9206874693379596 $109 9.9206874693379596 $84 $110 forward 7 unknown #
coedge $-1 $63 $62 $107 $111 forward $32 $-1 #
edge $-1 $91 -115.0003660915401 $109 115.0003660915401 $83 $112 forward 7 unknown #
coedge $-1 $96 $95 $63 $89 reversed $80 $-1 #
edge $-1 $113 -115.0003660915401 $90 115.0003660915401 $88 $114 forward 7 unknown #
vertex $-1 $65 $115 #
vertex $-1 $102 $116 #
straight-curve $-1 115.0003660915401 0 -9.9206874693379596 0 -1 0 I I #
coedge $-1 $82 $84 $66 $94 reversed $59 $-1 #
edge $-1 $97 -11.258644495360805 $100 11.258644495360805 $93 $117 forward 7 unknown #
coedge $-1 $88 $67 $72 $103 forward $80 $-1 #
coedge $-1 $67 $88 $82 $108 reversed $80 $-1 #
vertex $-1 $68 $118 #
straight-curve $-1 0 11.258644495360805 9.9206874693379596 -1 0 0 I I #
coedge $-1 $69 $83 $71 $102 reversed $44 $-1 #
vertex $-1 $94 $119 #
straight-curve $-1 0 -11.258644495360805 9.9206874693379596 1 0 0 I I #
edge $-1 $74 -9.9206874693379596 $91 9.9206874693379596 $71 $120 forward 7 unknown #
edge $-1 $75 -9.9206874693379596 $90 9.9206874693379596 $72 $121 forward 7 unknown #
point $-1 115.0003660915401 -11.258644495360805 9.9206874693379596 #
point $-1 115.0003660915401 11.258644495360805 9.9206874693379596 #
plane-surface $-1 115.0003660915401 0 0 -1 0 0 0 0 1 forward_v I I I I #
coedge $-1 $84 $82 $86 $111 reversed $59 $-1 #
edge $-1 $97 -9.9206874693379596 $113 9.9206874693379596 $96 $122 forward 7 unknown #
vertex $-1 $111 $123 #
straight-curve $-1 -115.0003660915401 -11.258644495360805 0 0 0 -1 I I #
edge $-1 $109 -11.258644495360805 $113 11.258644495360805 $107 $124 forward 7 unknown #
straight-curve $-1 0 -11.258644495360805 -9.9206874693379596 -1 0 0 I I #
vertex $-1 $89 $125 #
straight-curve $-1 0 11.258644495360805 -9.9206874693379596 1 0 0 I I #
point $-1 115.0003660915401 11.258644495360805 -9.9206874693379596 #
point $-1 115.0003660915401 -11.258644495360805 -9.9206874693379596 #
straight-curve $-1 -115.0003660915401 0 9.9206874693379596 0 -1 0 I I #
point $-1 -115.0003660915401 11.258644495360805 9.9206874693379596 #
point $-1 -115.0003660915401 -11.258644495360805 9.9206874693379596 #
straight-curve $-1 115.0003660915401 -11.258644495360805 0 0 0 -1 I I #
straight-curve $-1 115.0003660915401 11.258644495360805 0 0 0 -1 I I #
straight-curve $-1 -115.0003660915401 11.258644495360805 0 0 0 -1 I I #
point $-1 -115.0003660915401 -11.258644495360805 -9.9206874693379596 #
straight-curve $-1 -115.0003660915401 0 -9.9206874693379596 0 1 0 I I #
point $-1 -115.0003660915401 11.258644495360805 -9.9206874693379596 #
End-of-ACIS-data 