600 0 1 0           
7 Unknown 16 ACIS 6.0 Solaris 24 Thu Aug 24 19:06:02 2000 
-1 9.999999999999999547e-07 1.000000000000000036e-10 
body $-1 $1 $-1 $-1 #
lump $-1 $-1 $2 $0 #
shell $-1 $-1 $-1 $3 $-1 $1 #
face $-1 $4 $5 $2 $-1 $6 forward single #
face $-1 $7 $8 $2 $-1 $9 forward single #
loop $-1 $-1 $10 $3 #
spline-surface $-1 forward { exactsur full nurbs 2 1 both periodic open none none 4 2 
	2 2 3.733839769368005879 2 5.467679538736011757 2 7.20151930810401808 2 
	0 1 1 1 
	-259.0296887957562717 2.897648504890504739 -51.47820899323362909 1 
	-256.9086205085047254 13.66063226372805417 -56.02685479002571611 0.5 
	-254.0299224724123235 3.932666877212476209 -62.20024249149185636 1 
	-251.1512244363199216 -5.79529850930305912 -68.37363019295793265 0.5 
	-256.1509907596638982 -6.830316881625066117 -57.65159669469974091 1 
	-261.150757083007818 -7.865335253947051797 -46.92956319644148522 0.5 
	-259.0296887957562717 2.897648504890504739 -51.47820899323362909 1 
	-267.1011946614875683 3.803572233742208653 -53.09842148526552563 1 
	-264.3169935358545217 17.93150563250870988 -59.06916029817987379 0.5 
	-260.5382965647958144 5.162179749865025258 -67.17260189442527007 1 
	-256.759599593737164 -7.607146132778602521 -75.27604349067055978 0.5 
	-263.322497690428861 -8.965753648901468864 -61.20186308151091481 1 
	-269.8853957871206148 -10.32436116502431389 -47.12768267235116326 0.5 
	-267.1011946614875683 3.803572233742208653 -53.09842148526552563 1 
	0 
	0 
	0 
	0 
	0 
	0 
	0 
	F 1 F 0 F 1 F 0 } I I I I #
face $-1 $11 $12 $2 $-1 $13 forward single #
loop $-1 $14 $15 $4 #
spline-surface $-1 forward { exactsur full nubs 1 1 open open none none 2 2 
	0 1 1 1 
	0 1 1 1 
	-313.3818199348734197 -12.55834884015766306 -88.72279027325754441 
	-320.620936313357447 -4.570846169999597919 -73.1984552317696 
	-310.0061555479913977 4.570859676922360393 -95.96192619219974063 
	-317.2452719264754819 12.55836234708042554 -80.4375911507117678 
	0 
	0 
	0 
	0 
	0 
	0 
	0 
	F 1 F 0 F 1 F 0 } I I I I #
coedge $-1 $16 $17 $18 $19 forward $5 $20 #
face $-1 $21 $22 $2 $-1 $23 forward single #
loop $-1 $24 $25 $7 #
spline-surface $-1 forward { exactsur full nubs 1 1 open open none none 2 2 
	0 1 1 1 
	0 1 1 1 
	-258.335265769092814 12.55836279604660177 -52.9674041375671365 
	-261.710930155974836 -4.570845721033421682 -45.72826821862498292 
	-251.0961493906087014 4.570860125888536629 -68.49173917905508802 
	-254.4718137774907234 -12.55834839119149393 -61.25260326011292733 
	0 
	0 
	0 
	0 
	0 
	0 
	0 
	F 1 F 0 F 1 F 0 } I I I I #
loop $-1 $-1 $26 $4 #
tcoedge-coedge $-1 $15 $15 $27 $28 reversed $8 $29 -1 -0 #
tcoedge-coedge $-1 $18 $10 $25 $30 reversed $5 $31 -7.20151930810401808 -2 #
tcoedge-coedge $-1 $10 $18 $32 $33 reversed $5 $34 -7.20151930810401808 -2 #
coedge $-1 $17 $16 $10 $19 reversed $5 $35 #
edge $-1 $36 0 $37 1 $10 $38 forward 7 unknown #
pcurve $-1 0 forward { exppc nubs 2 open 7 
	0 2 0.1666666666666666574 2 0.3333333333333333148 2 0.5 2 0.6666666666666666297 2 
	0.8333333333333333703 2 1 2 
	2 1 
	2 0.9166666666666655194 
	2 0.8333333333333310389 
	2 0.7499999999999973355 
	2 0.6666666666666637431 
	2 0.5833333333333310389 
	2 0.4999999999999983347 
	2 0.4166666666666659635 
	2 0.3333333333333335369 
	2 0.2499999999999985567 
	2 0.1666666666666636321 
	2 0.08333333333333180215 
	2 0 
	0.001000000000000000021 
	spline forward { ref 0 } I I I I 
	} 0 0 #
face $-1 $-1 $39 $2 $-1 $40 forward single #
loop $-1 $-1 $32 $11 #
spline-surface $-1 forward { exactsur full nurbs 2 1 both periodic open none none 4 2 
	0 2 0.4796448390190740096 2 0.9592896780381480193 2 1.438934517057222973 2 
	0 1 1 1 
	-318.7607385225770145 3.803571840033413309 -77.1876624044846551 1 
	-321.5449396482100042 -10.32436155873310213 -71.21692359157029273 0.5 
	-314.9820415515183072 -8.965754042610257102 -85.29110400073003007 1 
	-308.4191434548266102 -7.607146526487426286 -99.36528440988968214 0.5 
	-312.1978404258852038 5.16217935615623702 -91.26184281364442086 1 
	-315.9765373969439111 17.93150523879992164 -83.15840121739898905 0.5 
	-318.7607385225770145 3.803571840033413309 -77.1876624044846551 1 
	-259.8507323651942897 3.80357228899958244 -49.7174753913400238 1 
	-262.6349334908273363 -10.32436110976692589 -43.74673657842566143 0.5 
	-256.0720353941356393 -8.965753593644087971 -57.82091698758541298 1 
	-249.5091372974438571 -7.607146077521250049 -71.89509739674508637 0.5 
	-253.2878342685025359 5.162179805122413256 -63.79165580049978956 1 
	-257.0665312395612432 17.93150568776609788 -55.68821420425435775 0.5 
	-259.8507323651942897 3.80357228899958244 -49.7174753913400238 1 
	0 
	0 
	0 
	0 
	0 
	0 
	0 
	F 1 F 0 F 1 F 0 } I I I I #
loop $-1 $-1 $41 $7 #
tcoedge-coedge $-1 $25 $25 $16 $30 forward $12 $42 2 7.20151930810401808 #
tcoedge-coedge $-1 $26 $26 $43 $44 reversed $14 $45 -1 -0 #
tcoedge-coedge $-1 $46 $47 $15 $28 forward $22 $48 0 1 #
tedge-edge $-1 $49 0 $49 1 $15 $50 forward 7 unknown 0.000299890040493791944 #
pcurve $-1 0 forward { exppc nubs 2 periodic 37 
	-1 2 -0.9583333333333333703 2 -0.9166666666666667407 2 -0.8958333333333333703 2 -0.875 2 
	-0.8541666666666667407 2 -0.8333333333333333703 2 -0.8125 2 -0.7916666666666667407 2 -0.7708333333333333703 2 
	-0.75 2 -0.7083333333333333703 2 -0.6666666666666667407 2 -0.625 2 -0.5833333333333333703 2 
	-0.5625 2 -0.5416666666666667407 2 -0.5208333333333333703 2 -0.5 2 -0.4791666666666666852 2 
	-0.4583333333333333703 2 -0.4375 2 -0.4166666666666666852 2 -0.375 2 -0.3333333333333333703 2 
	-0.2916666666666666852 2 -0.25 2 -0.2291666666666666574 2 -0.2083333333333333148 2 -0.1874999999999999722 2 
	-0.1666666666666666297 2 -0.1458333333333333148 2 -0.1249999999999999722 2 -0.1041666666666666435 2 -0.08333333333333331483 2 
	-0.04166666666666665741 2 -0 2 
	0.9761896610553557618 0.4999999356298756026 
	0.9761896610553557618 0.5549856768359027193 
	0.9636583324421041929 0.6085244248523199451 
	0.9497346339829364492 0.6680119226483360872 
	0.9212446048280329425 0.7220577366542620945 
	0.9061616482166066078 0.7506702264221181142 
	0.8873481522300843416 0.7769803484214869993 
	0.8679645503045698707 0.8040877468450884358 
	0.844994322716647317 0.8282311458904119128 
	0.8215504821887742448 0.8528723469779001531 
	0.7948425065641395726 0.8739314658522877588 
	0.7678563228600852053 0.8952099505482808972 
	0.7380944174036250249 0.9123929946751643261 
	0.7083325119471575171 0.9295760388020519738 
	0.676411711794368653 0.9423075170929572364 
	0.6448199920555232056 0.9549077430303491987 
	0.61175816567005048 0.9628901039460168176 
	0.5793642549691400134 0.9707112050452044727 
	0.5461967583410363147 0.9739441975177441924 
	0.5140047763196370356 0.9770821019763861193 
	0.4816841550094509983 0.9758380806821318476 
	0.4206340925346437887 0.9734882626818733842 
	0.3621545590061505115 0.9558027903641421741 
	0.309522978830498785 0.9398858652781817424 
	0.261903930100157778 0.9123929946751651032 
	0.2142848813698149113 0.8849001240721474648 
	0.1741846298074152533 0.847278301141697221 
	0.1296287947380838079 0.8054762756634206156 
	0.09706876141819044401 0.7537802796577455222 
	0.07983109671944002561 0.7264118111841793013 
	0.06645261068456281839 0.6969637847261324071 
	0.05266871598198466509 0.6666233938300127893 
	0.04324503286898452592 0.6346588936854786756 
	0.0336270470113798764 0.6020353316822720791 
	0.0287433028971688237 0.5683759868705435814 
	0.02380868644843304321 0.5343660238836809295 
	0.02380868644843306056 0.4999999356298741038 
	0.02380868644843306403 0.465633847376052179 
	0.02874330289716603426 0.4316238843892056809 
	0.03362704701137278485 0.397964539577503329 
	0.04324503286898538634 0.3653409775742702537 
	0.05266871598199063254 0.3333764774297193201 
	0.06645261068456032039 0.3030360865336184095 
	0.07983109671942301144 0.2735880600756035452 
	0.09706876141819420489 0.2462195916020045727 
	0.1296287947380876659 0.1945235955963298125 
	0.1741846298074194166 0.1527215701180532903 
	0.214284881369819824 0.1150997471876026856 
	0.2619039301001607201 0.0876068765845865044 
	0.3095229788305052798 0.0601140059815682623 
	0.3621545590061568398 0.04419708089560792086 
	0.4206340925346486737 0.02651160857787718261 
	0.4816841550094480007 0.02416179057761921531 
	0.5140047763196471386 0.0229177692833645516 
	0.5461967583410352045 0.02605567374200540298 
	0.5793642549691297994 0.02928866621454422753 
	0.611758165670050702 0.03710976731373451243 
	0.6448199920555286457 0.0450921282294034359 
	0.6764117117943675428 0.05769235416679283773 
	0.7083325119471595155 0.07042383245769934241 
	0.7380944174036250249 0.087606876584585755 
	0.7678563228600909785 0.1047899207114724451 
	0.7948425065641412379 0.1260684054074621419 
	0.8215504821887633646 0.1471275242818397833 
	0.8449943227166470949 0.1717687253693391258 
	0.8679645503045760879 0.1959121244146695417 
	0.8873481522300845636 0.2230195228382629291 
	0.9061616482166050535 0.2493296448376295937 
	0.9212446048280328315 0.2779421346054885555 
	0.9497346339829466633 0.3319879486114342138 
	0.9636583324421101882 0.3914754464074305385 
	0.9761896610553557618 0.4450141944238202862 
	0.9761896610553557618 0.4999999356298756026 
	0.001000000000000000021 
	spline forward { ref 1 } I I I I 
	} 0 0 #
tedge-edge $-1 $37 2 $37 7.20151930810401808 $16 $51 forward 7 unknown 0.0003643826676780964136 #
pcurve $-1 0 forward { exppc nubs 2 periodic 25 
	-7.20151930810401808 2 -6.984789336933017623 2 -6.768059365762017165 2 -6.551329394591016708 2 -6.334599423420015363 2 
	-6.117869452249014017 2 -5.90113948107801356 2 -5.684409509907013103 2 -5.467679538736012645 2 -5.250949567565012188 2 
	-5.034219596394010843 2 -4.817489625223009497 2 -4.60075965405200904 2 -4.384029682881008583 2 -4.167299711710008125 2 
	-3.950569740539007224 2 -3.733839769368006323 2 -3.517109798197005421 2 -3.30037982702600452 2 -3.083649855855003619 2 
	-2.866919884684002717 2 -2.65018991351300226 2 -2.433459942342001359 2 -2.216729971171000457 2 -2 2 
	2 0 
	2.114634034338381152 0 
	2.21672997117100179 0 
	2.330065827654917321 4.984560084205699572e-16 
	2.433459942341998694 9.531878055761777083e-16 
	2.545043689875729598 4.624376482498157476e-16 
	2.650189913513277595 0 
	2.759672063898486627 0 
	2.866919884684002717 0 
	2.974167705469525469 0 
	3.083649855854740274 0 
	3.188796079492277613 0 
	3.300379827025996082 0 
	3.403773941713083673 0 
	3.517109798197007198 0 
	3.619205735029626503 0 
	3.733839769368005879 0 
	3.84847380370638481 0 
	3.950569740539003671 0 
	4.063905597022923644 0 
	4.167299711710008125 0 
	4.278883459243735032 0 
	4.384029682881280365 0 
	4.493511833266491173 0 
	4.60075965405200904 0 
	4.708007474837529571 0 
	4.817489625222740379 0 
	4.922635848860285712 0 
	5.034219596394013507 0 
	5.137613711081094436 1.308020877169734746e-16 
	5.250949567565008635 2.741812992528862675e-16 
	5.353045504397630161 1.450215136544191587e-16 
	5.467679538736011757 0 
	5.582313573074394242 0 
	5.684409509907016655 0 
	5.797745366390937072 9.247354508743751484e-16 
	5.901139481078022442 1.768353756935208669e-15 
	6.012723228611744908 8.579141989091394788e-16 
	6.1178694522492858 0 
	6.227351602634496608 0 
	6.334599423420014475 0 
	6.441847244205534118 0 
	6.551329394590746702 0 
	6.656475618228290259 0 
	6.768059365762016277 0 
	6.871453480449098983 0 
	6.984789336933015846 0 
	7.086885273765636484 0 
	7.20151930810401808 0 
	0.001000000000000000021 
	spline forward { ref 0 } I I I I 
	} 0 0 #
tcoedge-coedge $-1 $47 $46 $17 $33 forward $22 $52 2 7.20151930810401808 #
tedge-edge $-1 $36 2 $36 7.20151930810401808 $17 $53 forward 7 unknown 9.999997150999920041e-10 #
pcurve $-1 0 forward { exppc nubs 2 periodic 37 
	-7.20151930810401808 2 -6.984789336933017623 2 -6.768059365762017165 2 -6.659694380176516937 2 -6.551329394591016708 2 
	-6.442964409005515591 2 -6.334599423420015363 2 -6.226234437834515134 2 -6.117869452249014017 2 -6.009504466663513789 2 
	-5.90113948107801356 2 -5.684409509907013103 2 -5.467679538736012645 2 -5.250949567565012188 2 -5.034219596394010843 2 
	-4.925854610808510614 2 -4.817489625223009497 2 -4.709124639637509269 2 -4.60075965405200904 2 -4.492394668466508811 2 
	-4.384029682881008583 2 -4.275664697295508354 2 -4.167299711710008125 2 -3.950569740539007224 2 -3.733839769368006323 2 
	-3.517109798197005421 2 -3.30037982702600452 2 -3.192014841440504291 2 -3.083649855855003619 2 -2.975284870269502946 2 
	-2.866919884684002717 2 -2.758554899098502489 2 -2.65018991351300226 2 -2.541824927927502031 2 -2.433459942342001359 2 
	-2.216729971171000457 2 -2 2 
	7.20151930810401808 1 
	7.08688527376563826 1 
	6.984789336933019399 1 
	6.871453480449098983 0.9999999999999993339 
	6.768059365762015389 0.9999999999999988898 
	6.712949544241777033 0.9999999999999855671 
	6.659694380176547135 0.9999999999999727995 
	6.604829488231020562 0.9999999999996336264 
	6.551329394592572797 0.999999999999303224 
	6.496729041957435946 0.9999999999996534994 
	6.44296440900551648 0.9999999999999986677 
	6.388641182465251589 0.9999999999999984457 
	6.334599423420014475 0.9999999999999982236 
	6.280557664374779137 0.9999999999999991118 
	6.22623443783451691 1 
	6.172469804882598332 0.999999999999656719 
	6.117869452247464146 0.99999999999930822 
	6.06436935860901194 0.9999999999996356248 
	6.009504466663480038 0.9999999999999712452 
	5.956249302598251916 0.9999999999999853451 
	5.901139481078017113 1 
	5.797745366390932631 1 
	5.684409509907012215 1 
	5.582313573074392465 0.9999999999999987788 
	5.467679538736011757 0.9999999999999973355 
	5.353045504397631049 0.9999999999999982236 
	5.250949567565012188 0.9999999999999991118 
	5.137613711081094436 0.9999999999999995559 
	5.034219596394009955 1 
	4.979109774873773375 0.9999999999999861222 
	4.9258546108085417 0.9999999999999724665 
	4.870989718863011575 0.9999999999996342925 
	4.817489625224562033 0.9999999999993047783 
	4.762889272589427847 0.9999999999996551647 
	4.709124639637509269 1 
	4.654801413097246154 1 
	4.60075965405200904 1 
	4.546717895006771926 1 
	4.492394668466507923 1 
	4.438630035514588457 0.9999999999996541655 
	4.384029682879452494 0.999999999999302891 
	4.330529589241004729 0.9999999999996334044 
	4.275664697295478156 0.9999999999999721334 
	4.222409533230246481 0.9999999999999847899 
	4.167299711710007237 0.9999999999999981126 
	4.06390559702292542 0.9999999999999991118 
	3.950569740539009445 1 
	3.848473803706387919 0.9999999999999995559 
	3.733839769368005879 0.9999999999999990008 
	3.619205735029626503 0.9999999999999995559 
	3.517109798197007642 1 
	3.403773941713091222 0.9999999999999995559 
	3.300379827026008961 0.9999999999999991118 
	3.245270005505769717 0.9999999999999842348 
	3.192014841440537598 0.999999999999969913 
	3.137149949495009693 0.9999999999996334044 
	3.083649855856561484 0.9999999999993052224 
	3.029049503221422412 0.9999999999996551647 
	2.975284870269499393 1 
	2.920961643729237167 0.999999999999999889 
	2.866919884684002717 1 
	2.812878125638766935 1 
	2.758554899098503821 1 
	2.704790266146581246 0.9999999999996558309 
	2.650189913511443063 0.9999999999993063327 
	2.59668981987299663 0.9999999999996349587 
	2.541824927927470501 0.9999999999999716893 
	2.488569763862237494 0.9999999999999855671 
	2.433459942341997806 1 
	2.330065827654915545 1 
	2.216729971170999569 1 
	2.11463403433837982 1 
	2 1 
	0.001000000000000000021 
	spline forward { ref 0 } I I I I 
	} 0 0 #
pcurve $-1 0 forward { exppc nubs 2 open 7 
	-1 2 -0.8333333333333333703 2 -0.6666666666666667407 2 -0.5 2 -0.3333333333333333703 2 
	-0.1666666666666666297 2 -0 2 
	7.20151930810401808 0 
	7.20151930810401808 0.08333333333333180215 
	7.20151930810401808 0.1666666666666636321 
	7.20151930810401808 0.2499999999999985567 
	7.20151930810401808 0.3333333333333335369 
	7.20151930810401808 0.4166666666666659635 
	7.20151930810401808 0.4999999999999983347 
	7.20151930810401808 0.5833333333333319271 
	7.20151930810401808 0.6666666666666656305 
	7.201519308104018968 0.7499999999999984457 
	7.20151930810401808 0.8333333333333310389 
	7.20151930810401808 0.9166666666666655194 
	7.20151930810401808 1 
	0.001000000000000000021 
	spline forward { ref 0 } I I I I 
	} 0 0 #
tvertex-vertex $-1 $33 $54 7.160723346098895387e-15 #
tvertex-vertex $-1 $30 $55 1.145715735375823262e-13 #
intcurve-curve $-1 forward { exactcur full nubs 1 open 2 
	0 1 1 1 
	-267.1011946614875683 3.803572233742208653 -53.09842148526552563 
	-259.0296887957562717 2.897648504890447896 -51.47820899323371435 
	0 
	null_surface 
	null_surface 
	nullbs 
	nullbs 
	I I 
	0 
	0 
	0 
	F 1 F 0 } I I #
loop $-1 $-1 $43 $21 #
spline-surface $-1 forward { exactsur full nurbs 2 1 both periodic open none none 4 2 
	0 2 0.3333333333333329818 2 0.6666666666666669627 2 1 2 
	0 1 1.2509255832441879 1 
	-317.2286503643916831 2.113095044993272609 -80.47323603491506105 1 
	-315.6818719612622886 9.961946933196891507 -83.79031315320079898 0.5 
	-313.5825958662296102 2.867876998394862653 -88.29222515111487724 1 
	-311.4833197711970456 -4.226192936407166201 -92.79413714902895549 0.5 
	-315.1293742693591184 -4.980974889808770456 -84.97514803282911089 1 
	-318.7754287675211913 -5.735756843210332079 -77.15615891662935155 0.5 
	-317.2286503643916831 2.113095044993272609 -80.47323603491506105 1 
	-258.3186442070090152 2.113095493959448845 -53.00304902177044397 1 
	-256.7718658038795638 9.961947382163067743 -56.3201261400561819 0.5 
	-254.6725897088469708 2.867877447361031784 -60.82203813797024594 1 
	-252.5733136138143493 -4.226192487440989964 -65.3239501358843313 0.5 
	-256.2193681119764506 -4.98097444084259422 -57.50496101968449381 1 
	-259.8654226101385234 -5.735756394244155842 -49.68597190348470605 0.5 
	-258.3186442070090152 2.113095493959448845 -53.00304902177044397 1 
	0 
	0 
	0 
	0 
	0 
	0 
	0 
	F 1 F 0 F 1 F 0 } I I I I #
tcoedge-coedge $-1 $41 $41 $56 $57 reversed $24 $58 -1 -0 #
pcurve $-1 0 forward { exppc nubs 2 periodic 25 
	2 2 2.216729971171000457 2 2.433459942342001359 2 2.65018991351300226 2 2.866919884684002717 2 
	3.083649855855003619 2 3.30037982702600452 2 3.517109798197004977 2 3.733839769368005879 2 3.95056974053900678 2 
	4.167299711710007237 2 4.384029682881008583 2 4.60075965405200904 2 4.817489625223009497 2 5.034219596394009955 2 
	5.250949567565010412 2 5.467679538736011757 2 5.684409509907013103 2 5.90113948107801356 2 6.117869452249014017 2 
	6.334599423420015363 2 6.551329394591016708 2 6.768059365762017165 2 6.984789336933017623 2 7.20151930810401808 2 
	0.5000000643701243419 0.1372279891813935337 
	0.541889463397146276 0.1372279891813935337 
	0.5826765098182103975 0.1467746427884140392 
	0.6279954502860586318 0.1573820356851033109 
	0.6691687912100539037 0.1790863934583210582 
	0.7136359994079771729 0.2025270998534006439 
	0.7500541299906618997 0.2371756075569164679 
	0.7879896826809582588 0.2732678030814118531 
	0.8141705570728515751 0.3186144077147495812 
	0.8403514314647431149 0.3639610123480841453 
	0.8526404133221642256 0.4148602624467369049 
	0.8644378359052875549 0.4637235425414398815 
	0.8625044790271171324 0.5139536276737491916 
	0.8607143337695516427 0.5604629657592274938 
	0.8472411352520848871 0.605014015925318227 
	0.8351152565863673161 0.6451099610747912383 
	0.814170557072851131 0.6813872447814646183 
	0.7932258575593393868 0.7176645284881300046 
	0.7645646898039998307 0.7482138200305933351 
	0.7327189478536240141 0.7821574772999955183 
	0.6933357521871876816 0.8069624576122479409 
	0.6508019008674399419 0.8337518363494784701 
	0.6025863477016268899 0.8479666087406664277 
	0.5523618131539146381 0.8627736633148176404 
	0.5000000643701243419 0.8627736633148176404 
	0.4476383155863262187 0.8627736633148176404 
	0.3974137810386222935 0.8479666087406698693 
	0.3491982278728181788 0.8337518363494854645 
	0.3066643765530635002 0.8069624576122502724 
	0.2672811808866307759 0.7821574772999997371 
	0.235435438936249769 0.7482138200305920028 
	0.2067742711809133493 0.717664528488131892 
	0.1858295716673987463 0.6813872447814616207 
	0.164884872153878842 0.6451099610747821345 
	0.1527589934881632694 0.6050140159253154515 
	0.139285794970697735 0.5604629657592288261 
	0.1374956497131321342 0.5139536276737484144 
	0.1355622928349616008 0.4637235425414386603 
	0.1473597154180844027 0.4148602624467377931 
	0.1596486972755049027 0.3639610123480874204 
	0.1858295716673979692 0.3186144077147495812 
	0.2120104460592909801 0.2732678030814117975 
	0.2499459987495874225 0.2371756075569157463 
	0.2863641293322709558 0.2025270998534004496 
	0.330831337530194669 0.1790863934583209471 
	0.3720046784541793938 0.1573820356851090285 
	0.4173236189220384529 0.1467746427884170646 
	0.4581106653431148423 0.137227989181393506 
	0.5000000643701243419 0.1372279891813935337 
	0.001000000000000000021 
	spline forward { ref 2 } I I I I 
	} 0 0 #
tcoedge-coedge $-1 $59 $60 $26 $44 forward $39 $61 0 1 #
tedge-edge $-1 $62 0 $62 1 $26 $63 forward 7 unknown 0.000265724231618109626 #
pcurve $-1 0 forward { exppc nubs 2 periodic 25 
	-1 2 -0.9583333333333333703 2 -0.9166666666666667407 2 -0.875 2 -0.8333333333333333703 2 
	-0.7916666666666667407 2 -0.75 2 -0.7083333333333333703 2 -0.6666666666666667407 2 -0.625 2 
	-0.5833333333333333703 2 -0.5416666666666667407 2 -0.5 2 -0.4583333333333333703 2 -0.4166666666666666852 2 
	-0.375 2 -0.3333333333333333703 2 -0.2916666666666666852 2 -0.25 2 -0.2083333333333333148 2 
	-0.1666666666666666297 2 -0.1249999999999999722 2 -0.08333333333333331483 2 -0.04166666666666665741 2 -0 2 
	0.764549444476036566 0.4999999356298756026 
	0.764549444476036566 0.4694523016265121362 
	0.7575875952464558027 0.4397085527285172213 
	0.7498522072135885841 0.4066599428418576356 
	0.7340244132386343212 0.3766344906163278106 
	0.7169303957456877319 0.3442070022127632356 
	0.6916631453989768863 0.3176492632629109858 
	0.6653430929544851269 0.2899849518568134998 
	0.6322743091139639837 0.2708926806047149416 
	0.599205525273445283 0.2518004093526177711 
	0.5620875025953138149 0.2428387310097967766 
	0.5264542008243082716 0.2342355198006887407 
	0.4898241633394258554 0.2356454106008434302 
	0.4559074619645356874 0.2369508650454310861 
	0.4234188322264798021 0.2467761274441716834 
	0.3941790654622255863 0.2556188636030394257 
	0.3677240383898158216 0.2708926806047142199 
	0.3412690113174038364 0.2861664976063903465 
	0.3189910937827376003 0.3070675103455291488 
	0.2942378520775558171 0.3302908578334584067 
	0.2761489446776134726 0.3590108556143916663 
	0.2566129246856847512 0.3900284532177853425 
	0.2462468732613880273 0.4251894033767611436 
	0.2354489030277492623 0.4618153931256818168 
	0.2354489030277492623 0.4999999356298741038 
	0.2354489030277492345 0.5381844781340689998 
	0.2462468732613881939 0.5748104678829877301 
	0.2566129246856866386 0.6099714180419668619 
	0.2761489446776141943 0.6409890156453582621 
	0.2942378520775555395 0.6697090134262896344 
	0.3189910937827395432 0.6929323609142209461 
	0.3412690113174081663 0.7138333736533619689 
	0.3677240383898188192 0.7291071906550370407 
	0.3941790654622219225 0.7443810076567077827 
	0.423418832226484354 0.7532237438155782172 
	0.455907461964543681 0.7630490062143201468 
	0.4898241633394223027 0.7643544606589074419 
	0.5264542008243057181 0.765764351459062298 
	0.5620875025953102622 0.7571611402499549559 
	0.5992055252734473925 0.7481994619071330455 
	0.6322743091139639837 0.7291071906550370407 
	0.6653430929544861261 0.7100149194029379274 
	0.6916631453989786626 0.6823506079968396643 
	0.7169303957456918397 0.655792869046985083 
	0.7340244132386373188 0.6233653806434240607 
	0.7498522072135863636 0.5933399284179055044 
	0.7575875952464565799 0.5602913185312331512 
	0.764549444476036566 0.5305475696332415669 
	0.764549444476036566 0.4999999356298756026 
	0.001000000000000000021 
	spline forward { ref 1 } I I I I 
	} 0 0 #
coedge $-1 $32 $27 $47 $64 reversed $22 $65 #
coedge $-1 $27 $32 $46 $64 forward $22 $66 #
pcurve $-1 0 forward { exppc nubs 2 periodic 37 
	0 2 0.04166666666666666435 2 0.08333333333333332871 2 0.1041666666666666574 2 0.125 2 
	0.1458333333333333148 2 0.1666666666666666574 2 0.1875 2 0.2083333333333333148 2 0.2291666666666666574 2 
	0.25 2 0.2916666666666666297 2 0.3333333333333333148 2 0.375 2 0.4166666666666666297 2 
	0.4375 2 0.4583333333333333148 2 0.4791666666666666297 2 0.5 2 0.5208333333333332593 2 
	0.5416666666666666297 2 0.5625 2 0.5833333333333332593 2 0.625 2 0.6666666666666666297 2 
	0.7083333333333332593 2 0.75 2 0.7708333333333333703 2 0.7916666666666667407 2 0.8125 2 
	0.8333333333333333703 2 0.8541666666666667407 2 0.875 2 0.8958333333333333703 2 0.9166666666666667407 2 
	0.9583333333333333703 2 1 2 
	0 0 
	0.03171205547233574285 0 
	0.05995560487738469529 0 
	0.0913085358683102255 0 
	0.1199112097547685579 0 
	0.1351566447358173439 0 
	0.1498890121934654263 0 
	0.165066690506289776 0 
	0.1798668146322272843 0 
	0.1949713114907589695 0 
	0.2098446170708444802 0 
	0.2248724505011500674 0 
	0.2398224195095370048 0 
	0.2547723885179247194 0 
	0.2698002219482311115 0 
	0.2846735275283164279 0 
	0.2997780243868479744 0 
	0.3145781485127852051 0 
	0.3297558268256092218 0 
	0.3444881942832570543 0 
	0.3597336292643056321 0 
	0.3883363031507643948 0 
	0.4196892341416903482 0 
	0.4479327835467388219 0 
	0.4796448390190740096 0 
	0.5113568944914087533 0 
	0.5396004438964568939 0 
	0.5709533748873838466 0 
	0.5995560487738432753 0 
	0.6148014837548917422 0 
	0.6295338512125393526 0 
	0.6447115295253640355 0 
	0.6595116536513018213 0 
	0.6746161505098335898 0 
	0.6894894560899189617 0 
	0.7045172895202242991 0 
	0.7194672585286110422 0 
	0.7344172275369977854 0 
	0.7494450609673031227 0 
	0.7643183665473887167 0 
	0.7794228634059201521 0 
	0.7942229875318578269 0 
	0.8094006658446823987 0 
	0.8241330333023304533 0 
	0.8393784682833794752 0 
	0.8679811421698373497 0 
	0.899334073160762415 0 
	0.9275776225658098895 0 
	0.9592896780381435784 0 
	0.9910017335104817082 0 
	1.019245282915533179 0 
	1.050598213906457801 0 
	1.079200887792915342 0 
	1.094446322773965807 0 
	1.109178690231615194 0 
	1.124356368544438212 0 
	1.13915649267037411 0 
	1.154260989528906212 0 
	1.169134295108992472 0 
	1.184162128539298475 0 
	1.19911209754768544 0 
	1.214062066556071739 0 
	1.229089899986376855 0 
	1.243963205566462449 0 
	1.259067702424994772 0 
	1.273867826550932447 0 
	1.289045504863757241 0 
	1.303777872321405296 0 
	1.319023307302454207 0 
	1.347625981188912636 0 
	1.378978912179838368 0 
	1.407222461584887174 0 
	1.438934517057222973 0 
	0.001000000000000000021 
	spline forward { ref 4 } I I I I 
	} 0 0 #
tvertex-vertex $-1 $28 $67 5.861977570020826533e-14 #
intcurve-curve $-1 forward { exactcur full nurbs 2 periodic 4 
	0 2 0.3333333333333329818 2 0.6666666666666669627 2 1 2 
	-318.7607385225770145 3.803571840033413309 -77.1876624044846551 1 
	-321.5449396482100042 -10.32436155873310213 -71.21692359157029273 0.5 
	-314.9820415515183072 -8.965754042610257102 -85.29110400073003007 1 
	-308.4191434548266102 -7.607146526487426286 -99.36528440988968214 0.5 
	-312.1978404258852038 5.16217935615623702 -91.26184281364442086 1 
	-315.9765373969439111 17.93150523879992164 -83.15840121739898905 0.5 
	-318.7607385225770145 3.803571840033413309 -77.1876624044846551 1 
	0 
	null_surface 
	null_surface 
	nullbs 
	nullbs 
	I I 
	0 
	0 
	0 
	F 1 F 0 } I I #
intcurve-curve $-1 forward { exactcur full nurbs 2 periodic 4 
	2 2 3.733839769368005879 2 5.467679538736012645 2 7.20151930810401808 2 
	-259.0296887957562717 2.897648504890504739 -51.47820899323362909 1 
	-261.1507570830078748 -7.865335253947046468 -46.92956319644148522 0.5 
	-256.1509907596638982 -6.830316881625066117 -57.65159669469974091 1 
	-251.1512244363199216 -5.79529850930305912 -68.37363019295793265 0.5 
	-254.0299224724123235 3.932666877212476209 -62.20024249149185636 1 
	-256.9086205085047254 13.66063226372805772 -56.02685479002571611 0.5 
	-259.0296887957562717 2.897648504890504739 -51.47820899323362909 1 
	0 
	null_surface 
	null_surface 
	nullbs 
	nullbs 
	I I 
	0 
	0 
	0 
	F 1 F 0 } I I #
pcurve $-1 0 forward { exppc nubs 2 periodic 37 
	2 2 2.216729971171000457 2 2.433459942342001359 2 2.541824927927502031 2 2.65018991351300226 2 
	2.758554899098502489 2 2.866919884684002717 2 2.975284870269502946 2 3.083649855855003619 2 3.192014841440504291 2 
	3.30037982702600452 2 3.517109798197004977 2 3.733839769368005879 2 3.95056974053900678 2 4.167299711710007237 2 
	4.275664697295507466 2 4.384029682881008583 2 4.492394668466508811 2 4.60075965405200904 2 4.709124639637509269 2 
	4.817489625223009497 2 4.925854610808509726 2 5.034219596394009955 2 5.250949567565010412 2 5.467679538736011757 2 
	5.684409509907013103 2 5.90113948107801356 2 6.009504466663513789 2 6.117869452249014017 2 6.226234437834515134 2 
	6.334599423420015363 2 6.442964409005515591 2 6.551329394591016708 2 6.659694380176516937 2 6.768059365762017165 2 
	6.984789336933017623 2 7.20151930810401808 2 
	1.438934517057222973 0.8769230769230769162 
	1.407222461584887618 0.8769230769230769162 
	1.37897891217983859 0.8769230769230768052 
	1.347625981188912636 0.8769230769230769162 
	1.319023307302454207 0.8769230769230769162 
	1.303777872321405518 0.8769230769230769162 
	1.289045504863757463 0.8769230769230768052 
	1.273867826550932225 0.8769230769230769162 
	1.259067702424994328 0.8769230769230770273 
	1.243963205566463115 0.8769230769230766942 
	1.229089899986378409 0.8769230769230766942 
	1.214062066556072406 0.8769230769230766942 
	1.19911209754768544 0.8769230769230770273 
	1.184162128539298253 0.8769230769230769162 
	1.169134295108992472 0.8769230769230768052 
	1.154260989528906212 0.8769230769230768052 
	1.13915649267037411 0.8769230769230769162 
	1.124356368544437768 0.8769230769230769162 
	1.109178690231614972 0.8769230769230770273 
	1.094446322773965363 0.8769230769230770273 
	1.07920088779291512 0.8769230769230770273 
	1.05059821390645669 0.8769230769230769162 
	1.019245282915531181 0.8769230769230770273 
	0.9910017335104828184 0.8769230769230769162 
	0.9592896780381480193 0.8769230769230769162 
	0.9275776225658113328 0.8769230769230771383 
	0.8993340731607614158 0.8769230769230770273 
	0.8679811421698377938 0.8769230769230770273 
	0.8393784682833808075 0.8769230769230769162 
	0.8241330333023313415 0.8769230769230769162 
	0.8094006658446826208 0.8769230769230771383 
	0.7942229875318578269 0.8769230769230769162 
	0.7794228634059200411 0.8769230769230769162 
	0.7643183665473884947 0.8769230769230766942 
	0.7494450609673033448 0.8769230769230765832 
	0.7344172275369980074 0.8769230769230766942 
	0.7194672585286113753 0.8769230769230769162 
	0.7045172895202245211 0.8769230769230766942 
	0.6894894560899189617 0.8769230769230768052 
	0.6746161505098335898 0.8769230769230769162 
	0.6595116536513022654 0.8769230769230769162 
	0.6447115295253644796 0.8769230769230769162 
	0.6295338512125399077 0.8769230769230768052 
	0.6148014837548918532 0.8769230769230769162 
	0.5995560487738428312 0.8769230769230768052 
	0.5709533748873845127 0.8769230769230769162 
	0.5396004438964588923 0.8769230769230771383 
	0.5113568944914097525 0.8769230769230769162 
	0.4796448390190740096 0.8769230769230769162 
	0.447932783546739155 0.8769230769230768052 
	0.4196892341416910144 0.8769230769230769162 
	0.3883363031507641727 0.8769230769230769162 
	0.359733629264304744 0.8769230769230770273 
	0.3444881942832568322 0.8769230769230769162 
	0.3297558268256096659 0.8769230769230769162 
	0.3145781485127835397 0.8769230769230766942 
	0.2997780243868444217 0.8769230769230765832 
	0.2846735275283129307 0.8769230769230766942 
	0.2698002219482276143 0.8769230769230768052 
	0.2547723885179236647 0.8769230769230770273 
	0.2398224195095382816 0.8769230769230771383 
	0.224872450501150678 0.8769230769230769162 
	0.2098446170708444247 0.8769230769230769162 
	0.194971311490758914 0.8769230769230769162 
	0.179866814632227312 0.8769230769230770273 
	0.1650666905062894985 0.8769230769230768052 
	0.1498890121934647879 0.8769230769230766942 
	0.1351566447358166223 0.8769230769230768052 
	0.1199112097547676975 0.8769230769230768052 
	0.09130853586830937896 0.8769230769230768052 
	0.0599556048773839112 0.8769230769230766942 
	0.03171205547233529182 0.8769230769230769162 
	0 0.8769230769230769162 
	0.001000000000000000021 
	spline forward { ref 4 } I I I I 
	} 0 0 #
intcurve-curve $-1 forward { exactcur full nurbs 2 periodic 4 
	2 2 3.733839769368005879 2 5.467679538736011757 2 7.20151930810401808 2 
	-267.1011946614875683 3.803572233742208653 -53.09842148526552563 1 
	-264.3169935358545217 17.93150563250870988 -59.06916029817987379 0.5 
	-260.5382965647958144 5.162179749865025258 -67.17260189442527007 1 
	-256.759599593737164 -7.607146132778602521 -75.27604349067055978 0.5 
	-263.322497690428861 -8.965753648901468864 -61.20186308151091481 1 
	-269.8853957871206148 -10.32436116502430856 -47.12768267235116326 0.5 
	-267.1011946614875683 3.803572233742208653 -53.09842148526552563 1 
	0 
	null_surface 
	null_surface 
	nullbs 
	nullbs 
	I I 
	0 
	0 
	0 
	F 1 F 0 } I I #
point $-1 -267.1011946614875683 3.803572233742208653 -53.09842148526552563 #
point $-1 -259.0296887957562717 2.897648504890447896 -51.47820899323371435 #
tcoedge-coedge $-1 $60 $59 $41 $57 forward $39 $68 0 1 #
tedge-edge $-1 $69 0 $69 1 $41 $70 forward 7 unknown 0.0002657242316226737376 #
pcurve $-1 0 forward { exppc nubs 2 periodic 25 
	-1 2 -0.9583333333333333703 2 -0.9166666666666667407 2 -0.875 2 -0.8333333333333333703 2 
	-0.7916666666666667407 2 -0.75 2 -0.7083333333333333703 2 -0.6666666666666667407 2 -0.625 2 
	-0.5833333333333333703 2 -0.5416666666666667407 2 -0.5 2 -0.4583333333333333703 2 -0.4166666666666666852 2 
	-0.375 2 -0.3333333333333333703 2 -0.2916666666666666852 2 -0.25 2 -0.2083333333333333148 2 
	-0.1666666666666666297 2 -0.1249999999999999722 2 -0.08333333333333331483 2 -0.04166666666666665741 2 -0 2 
	0.5000000643701243419 0.2354505555239634063 
	0.4694524303667615417 0.2354505555239634063 
	0.4397086814687671263 0.2424124047535440862 
	0.4066600715821040435 0.2501477927864121376 
	0.3766346193565756617 0.2659755867613656233 
	0.3442071309530138068 0.2830696042543108248 
	0.3176493920031603913 0.3083368546010227806 
	0.2899850805970615175 0.3346569070455159833 
	0.2708928093449637364 0.3677256908860360163 
	0.2518005380928672876 0.4007944747265537178 
	0.2428388597500462931 0.4379124974046864627 
	0.2342356485409381739 0.4735457991756937268 
	0.2356455393410930854 0.5101758366605744222 
	0.2369509937856812409 0.544092538035471085 
	0.246776256184420284 0.5765811677735216412 
	0.2556189923432871103 0.6058209345377727484 
	0.2708928093449629593 0.6322759616101841784 
	0.2861666263466353666 0.6587309886825898353 
	0.3070676390857794424 0.6810089062172618446 
	0.3302909865737102546 0.7057621479224454042 
	0.3590109843546415713 0.7238510553223865829 
	0.3900285819580353031 0.7433870753143154708 
	0.4251895321170111042 0.7537531267386121669 
	0.4618155218659315553 0.7645510969722508765 
	0.5000000643701258962 0.7645510969722508765 
	0.5381846068743197931 0.7645510969722508765 
	0.5748105966232388564 0.7537531267386119449 
	0.6099715467822148796 0.7433870753143144716 
	0.6409891443856082782 0.7238510553223858057 
	0.6697091421665404276 0.7057621479224440719 
	0.6929324896544707402 0.6810089062172612895 
	0.7138335023936075441 0.6587309886825972738 
	0.7291073193952857245 0.6322759616101811808 
	0.7443811363969606854 0.605820934537770639 
	0.7532238725558294545 0.5765811677735133145 
	0.7630491349545679425 0.5440925380354648677 
	0.7643545893991556817 0.5101758366605780859 
	0.7657644801993106487 0.4735457991756955032 
	0.7571612689902025295 0.4379124974046873509 
	0.7481995906473815072 0.4007944747265537178 
	0.7291073193952851694 0.3677256908860360163 
	0.7100150481431845018 0.3346569070455109873 
	0.6823507367370891252 0.3083368546010212263 
	0.6557929977872355432 0.2830696042543091595 
	0.6233655093836728556 0.2659755867613627367 
	0.5933400571581535221 0.2501477927864132478 
	0.5602914472714829452 0.2424124047535433923 
	0.530547698373491583 0.2354505555239633785 
	0.5000000643701243419 0.2354505555239634063 
	0.001000000000000000021 
	spline forward { ref 2 } I I I I 
	} 0 0 #
coedge $-1 $56 $43 $60 $71 forward $39 $72 #
coedge $-1 $43 $56 $59 $71 reversed $39 $73 #
pcurve $-1 0 forward { exppc nubs 2 periodic 25 
	0 2 0.04166666666666666435 2 0.08333333333333332871 2 0.125 2 0.1666666666666666574 2 
	0.2083333333333333148 2 0.25 2 0.2916666666666666297 2 0.3333333333333333148 2 0.375 2 
	0.4166666666666666297 2 0.4583333333333333148 2 0.5 2 0.5416666666666666297 2 0.5833333333333332593 2 
	0.625 2 0.6666666666666666297 2 0.7083333333333332593 2 0.75 2 0.7916666666666667407 2 
	0.8333333333333333703 2 0.875 2 0.9166666666666667407 2 0.9583333333333333703 2 1 2 
	0 0 
	0.02203856749311243479 0 
	0.04166666666666570679 0 
	0.06345565749235476671 0 
	0.08333333333333420301 0 
	0.1047854785478826156 0 
	0.1250000000000522637 0 
	0.1460481099656612547 0 
	0.1666666666666671293 0 
	0.1872852233676732259 0 
	0.2083333333332825221 0 
	0.2285478547854524201 0 
	0.2500000000000012212 0 
	0.2698776758409795473 0 
	0.2916666666666671293 0 
	0.3112947658402219764 0 
	0.3333333333333359794 0 
	0.3553719008264476509 0 
	0.3750000000000004441 0 
	0.3967889908256884146 0 
	0.4166666666666667407 0 
	0.4381188118812154308 0 
	0.4583333333333853288 0 
	0.479381443298994292 0 
	0.5 0 
	0.5206185567010059856 0 
	0.5416666666666151153 0 
	0.5618811881187848467 0 
	0.5833333333333331483 0 
	0.6032110091743114744 0 
	0.6249999999999990008 0 
	0.6446280991735511279 0 
	0.6666666666666620777 0 
	0.6887052341597785787 0 
	0.7083333333333354798 0 
	0.730122324159022007 0 
	0.749999999999999778 0 
	0.7714521452145493008 0 
	0.7916666666667200314 0 
	0.812714776632328384 0 
	0.8333333333333334814 0 
	0.8539518900343392449 0 
	0.8749999999999482636 0 
	0.895214521452118106 0 
	0.9166666666666667407 0 
	0.9365443425076453998 0 
	0.9583333333333337034 0 
	0.9779614325068872738 0 
	1 0 
	0.001000000000000000021 
	spline forward { ref 10 } I I I I 
	} 0 0 #
tvertex-vertex $-1 $44 $74 0 #
intcurve-curve $-1 forward { exactcur full nurbs 2 periodic 4 
	0 2 0.3333333333333329818 2 0.6666666666666669627 2 1 2 
	-317.2286503643916831 2.113095044993272609 -80.47323603491506105 1 
	-315.6818719612622886 9.961946933196893283 -83.79031315320079898 0.5 
	-313.5825958662296102 2.867876998394862653 -88.29222515111487724 1 
	-311.4833197711970456 -4.226192936407166201 -92.79413714902895549 0.5 
	-315.1293742693591184 -4.980974889808770456 -84.97514803282911089 1 
	-318.7754287675211913 -5.735756843210337408 -77.15615891662935155 0.5 
	-317.2286503643916831 2.113095044993272609 -80.47323603491506105 1 
	0 
	null_surface 
	null_surface 
	nullbs 
	nullbs 
	I I 
	0 
	0 
	0 
	F 1 F 0 } I I #
edge $-1 $36 0.1230769230769230005 $49 1 $46 $75 forward 7 unknown #
pcurve $-1 0 forward { exppc nubs 2 open 7 
	-1 2 -0.8538461538461539213 2 -0.7076923076923077316 2 -0.5615384615384615419 2 -0.4153846153846153522 2 
	-0.2692307692307691624 2 -0.1230769230769230005 2 
	1.438934517057222973 0 
	1.438934517057222973 0.07307692307692303935 
	1.438934517057222973 0.1461538461538460787 
	1.438934517057222973 0.2192307692307691736 
	1.438934517057222973 0.2923076923076922684 
	1.438934517057222973 0.3653846153846153078 
	1.438934517057222973 0.4384615384615384026 
	1.438934517057222973 0.5115384615384614975 
	1.438934517057222973 0.5846153846153846478 
	1.438934517057222973 0.6576923076923077982 
	1.438934517057222973 0.7307692307692308376 
	1.438934517057222973 0.8038461538461538769 
	1.438934517057222973 0.8769230769230769162 
	0.001000000000000000021 
	spline forward { ref 4 } I I I I 
	} 0 0 #
pcurve $-1 0 forward { exppc nubs 2 open 7 
	0.1230769230769230005 2 0.2692307692307691624 2 0.4153846153846153522 2 0.5615384615384615419 2 0.7076923076923076206 2 
	0.8538461538461539213 2 1 2 
	0 0.8769230769230769162 
	0 0.8038461538461538769 
	0 0.7307692307692308376 
	0 0.6576923076923077982 
	0 0.5846153846153846478 
	0 0.5115384615384614975 
	0 0.4384615384615384026 
	0 0.3653846153846154188 
	0 0.2923076923076923794 
	0 0.2192307692307692291 
	0 0.1461538461538460787 
	0 0.07307692307692303935 
	0 0 
	0.001000000000000000021 
	spline forward { ref 4 } I I I I 
	} 0 0 #
point $-1 -318.7607385225770145 3.803571840033413309 -77.1876624044846551 #
pcurve $-1 0 forward { exppc nubs 2 periodic 25 
	0 2 0.04166666666666666435 2 0.08333333333333332871 2 0.125 2 0.1666666666666666574 2 
	0.2083333333333333148 2 0.25 2 0.2916666666666666297 2 0.3333333333333333148 2 0.375 2 
	0.4166666666666666297 2 0.4583333333333333148 2 0.5 2 0.5416666666666666297 2 0.5833333333333332593 2 
	0.625 2 0.6666666666666666297 2 0.7083333333333332593 2 0.75 2 0.7916666666666667407 2 
	0.8333333333333333703 2 0.875 2 0.9166666666666667407 2 0.9583333333333333703 2 1 2 
	1 1.2509255832441879 
	0.9779614325068872738 1.250925583244188122 
	0.9583333333333332593 1.2509255832441879 
	0.9365443425076449557 1.2509255832441879 
	0.9166666666666661856 1.2509255832441879 
	0.8952145214521176619 1.250925583244187678 
	0.8749999999999477085 1.250925583244187678 
	0.8539518900343398 1.250925583244187678 
	0.8333333333333350357 1.250925583244187678 
	0.8127147766323281619 1.250925583244187678 
	0.791666666666718255 1.2509255832441879 
	0.7714521452145488567 1.250925583244188122 
	0.7500000000000005551 1.2509255832441879 
	0.730122324159022118 1.250925583244188122 
	0.7083333333333340365 1.2509255832441879 
	0.6887052341597776906 1.250925583244187678 
	0.6666666666666620777 1.250925583244187678 
	0.6446280991735511279 1.250925583244187678 
	0.6249999999999990008 1.2509255832441879 
	0.6032110091743115854 1.250925583244187678 
	0.5833333333333334814 1.250925583244187678 
	0.5618811881187844026 1.250925583244187678 
	0.5416666666666143382 1.2509255832441879 
	0.5206185567010057635 1.2509255832441879 
	0.5000000000000004441 1.2509255832441879 
	0.4793814432989942365 1.250925583244187678 
	0.4583333333333848292 1.2509255832441879 
	0.4381188118812153753 1.2509255832441879 
	0.4166666666666670737 1.2509255832441879 
	0.3967889908256885256 1.250925583244187678 
	0.3750000000000004441 1.2509255832441879 
	0.3553719008264476509 1.250925583244187678 
	0.3333333333333359794 1.2509255832441879 
	0.311294765840220089 1.2509255832441879 
	0.2916666666666636321 1.2509255832441879 
	0.2698776758409767718 1.2509255832441879 
	0.2499999999999991118 1.250925583244187678 
	0.2285478547854497555 1.250925583244187678 
	0.208333333333279247 1.250925583244187678 
	0.1872852233676712552 1.250925583244187678 
	0.1666666666666664909 1.2509255832441879 
	0.1460481099656610604 1.2509255832441879 
	0.1250000000000524025 1.2509255832441879 
	0.1047854785478824907 1.2509255832441879 
	0.08333333333333378667 1.2509255832441879 
	0.06345565749235462794 1.2509255832441879 
	0.04166666666666587332 1.2509255832441879 
	0.02203856749311250071 1.250925583244188122 
	0 1.2509255832441879 
	0.001000000000000000021 
	spline forward { ref 10 } I I I I 
	} 0 0 #
tvertex-vertex $-1 $57 $76 5.731332139511976483e-14 #
intcurve-curve $-1 forward { exactcur full nurbs 2 periodic 4 
	0 2 0.3333333333333329818 2 0.6666666666666669627 2 1 2 
	-258.3186442070090152 2.113095493959448845 -53.00304902177044397 1 
	-259.8654226101385234 -5.735756394244161172 -49.68597190348470605 0.5 
	-256.2193681119764506 -4.98097444084259422 -57.50496101968449381 1 
	-252.5733136138143493 -4.226192487440989964 -65.3239501358843313 0.5 
	-254.6725897088469708 2.867877447361031784 -60.82203813797024594 1 
	-256.7718658038795638 9.961947382163064191 -56.320126140056189 0.5 
	-258.3186442070090152 2.113095493959448845 -53.00304902177044397 1 
	0 
	null_surface 
	null_surface 
	nullbs 
	nullbs 
	I I 
	0 
	0 
	0 
	F 1 F 0 } I I #
edge $-1 $62 0 $69 1 $60 $77 forward 7 unknown #
pcurve $-1 0 forward { exppc nubs 2 open 7 
	0 2 0.1666666666666666574 2 0.3333333333333333148 2 0.5 2 0.6666666666666666297 2 
	0.8333333333333333703 2 1 2 
	1 0 
	1 0.104243798603682325 
	1 0.20848759720736465 
	1 0.3127313958110469749 
	1 0.4169751944147292999 
	1 0.5212189930184116804 
	1 0.6254627916220939499 
	1 0.7297065902257762193 
	1 0.8339503888294585998 
	1 0.9381941874331408693 
	1 1.042437986036823139 
	1 1.146681784640505519 
	1 1.2509255832441879 
	0.001000000000000000021 
	spline forward { ref 10 } I I I I 
	} 0 0 #
pcurve $-1 0 forward { exppc nubs 2 open 7 
	-1 2 -0.8333333333333333703 2 -0.6666666666666667407 2 -0.5 2 -0.3333333333333333703 2 
	-0.1666666666666666297 2 -0 2 
	0 1.2509255832441879 
	0 1.146681784640505519 
	0 1.042437986036823139 
	0 0.9381941874331409803 
	0 0.8339503888294587108 
	0 0.7297065902257763303 
	0 0.6254627916220939499 
	0 0.5212189930184116804 
	0 0.4169751944147293554 
	0 0.3127313958110469749 
	0 0.2084875972073645944 
	0 0.1042437986036822972 
	0 0 
	0.001000000000000000021 
	spline forward { ref 10 } I I I I 
	} 0 0 #
point $-1 -317.2286503643916831 2.113095044993272609 -80.47323603491506105 #
intcurve-curve $-1 forward { exactcur full nubs 1 open 2 
	0.1230769230769230005 1 1 1 
	-267.1011946614875683 3.803572233742208653 -53.09842148526552563 
	-318.7607385225770145 3.803571840033413309 -77.1876624044846551 
	0 
	null_surface 
	null_surface 
	nullbs 
	nullbs 
	I I 
	0 
	0 
	0 
	F 1 F 0 } I I #
point $-1 -258.3186442070090152 2.113095493959448845 -53.00304902177044397 #
intcurve-curve $-1 forward { exactcur full nubs 1 open 2 
	0 1 1 1 
	-317.2286503643916831 2.113095044993272609 -80.47323603491506105 
	-258.3186442070090152 2.113095493959448845 -53.00304902177044397 
	0 
	null_surface 
	null_surface 
	nullbs 
	nullbs 
	I I 
	0 
	0 
	0 
	F 1 F 0 } I I #
End-of-ACIS-data 