600 0 1 0           
7 Unknown 16 ACIS 6.0 Solaris 24 Thu Aug 24 19:06:05 2000 
-1 9.999999999999999547e-07 1.000000000000000036e-10 
body $-1 $1 $-1 $-1 #
lump $-1 $-1 $2 $0 #
shell $-1 $-1 $-1 $3 $-1 $1 #
face $-1 $4 $5 $2 $-1 $6 forward single #
face $-1 $7 $8 $2 $-1 $9 forward single #
loop $-1 $-1 $10 $3 #
spline-surface $-1 forward { exactsur full nubs 1 1 open open none none 2 2 
	0 1 1 1 
	0 1 1 1 
	-336.0999882998391399 -5.500001214259711446 -100.3416614790349684 
	-340.7487891789866126 -5.50000103561936271 -90.37227582163174588 
	-336.0999882932026708 5.499998785740295659 -100.3416616730482076 
	-340.7487891723502571 5.499998964380630184 -90.37227601564495671 
	0 
	0 
	0 
	0 
	0 
	0 
	0 
	F 1 F 0 F 1 F 0 } I I I I #
face $-1 $11 $12 $2 $-1 $13 forward single #
loop $-1 $-1 $14 $4 #
spline-surface $-1 forward { exactsur full nurbs 2 1 both periodic open none none 4 2 
	0 2 0.3333333333333329818 2 0.6666666666666669627 2 1 2 
	0 1 1.99217906014531998 1 
	-246.7195245470723535 -3.287316943101359357e-07 -47.07739869112430853 1 
	-246.7195245418475622 8.660253709112687659 -47.07739884387012097 0.5 
	-243.5498875814048461 4.330126568390241459 -53.87470717027218114 1 
	-240.3802506209621015 -5.723321976347506279e-07 -60.67201549667424132 0.5 
	-243.5498875866295805 -4.330127469454161826 -53.87470701752643976 1 
	-246.7195245522972016 -8.660254366576104701 -47.07739853837849608 0.5 
	-246.7195245470723535 -3.287316943101359357e-07 -47.07739869112430853 1 
	-340.5374800447980874 -1.043739381145769585e-06 -90.82542981215664213 1 
	-340.5374800395732677 8.660252994105015034 -90.82542996490244036 0.5 
	-337.36784307913058 4.33012585338257594 -97.62273829130450054 1 
	-334.1982061186877786 -1.287339848943247489e-06 -104.4200466177065607 0.5 
	-337.3678430843553429 -4.330128184461806029 -97.62273813855875915 1 
	-340.5374800500229071 -8.660255081583748904 -90.82542965941081547 0.5 
	-340.5374800447980874 -1.043739381145769585e-06 -90.82542981215664213 1 
	0 
	0 
	0 
	0 
	0 
	0 
	0 
	F 1 F 0 F 1 F 0 } I I I I #
tcoedge-coedge $-1 $10 $10 $15 $16 forward $5 $17 0 1 #
face $-1 $18 $19 $2 $-1 $20 forward single #
loop $-1 $-1 $21 $7 #
spline-surface $-1 forward { exactsur full nurbs 2 1 both periodic open none none 4 2 
	0 2 2.959980767072241115 2 5.919961534144481341 2 8.879942301216722456 2 
	0 1 1 1 
	-249.0565842345044985 -9.355125740739822504e-08 -33.82327457442702467 1 
	-249.0565842156952954 31.17691444268854895 -33.82327512431185568 0.5 
	-237.6458911581015059 15.58845673608775684 -58.29358509935916999 1 
	-226.235198100507688 -9.70512992637395655e-07 -82.76389507440654825 0.5 
	-237.6458911769107658 -15.58845780015204951 -58.29358454947429635 1 
	-249.0565842533138436 -31.17691462979108863 -33.82327402454210841 0.5 
	-249.0565842345044985 -9.355125740739822504e-08 -33.82327457442702467 1 
	-246.7195245470723535 -3.287316943101359357e-07 -47.07739869112430853 1 
	-246.7195245418475622 8.660253709112687659 -47.07739884387012097 0.5 
	-243.5498875814048461 4.330126568390241459 -53.87470717027218114 1 
	-240.3802506209621015 -5.723321976347506279e-07 -60.67201549667424132 0.5 
	-243.5498875866295805 -4.330127469454161826 -53.87470701752643976 1 
	-246.7195245522972016 -8.660254366576104701 -47.07739853837849608 0.5 
	-246.7195245470723535 -3.287316943101359357e-07 -47.07739869112430853 1 
	0 
	0 
	0 
	0 
	0 
	0 
	0 
	F 1 F 0 F 1 F 0 } I I I I #
coedge $-1 $22 $15 $23 $24 forward $8 $25 #
tcoedge-coedge $-1 $14 $23 $10 $16 reversed $8 $26 -1 -0 #
tedge-edge $-1 $27 0 $27 1 $10 $28 forward 7 unknown 0.0002657242316088407816 #
pcurve $-1 0 forward { exppc nubs 2 periodic 25 
	0 2 0.04166666666666666435 2 0.08333333333333332871 2 0.125 2 0.1666666666666666574 2 
	0.2083333333333333148 2 0.25 2 0.2916666666666666297 2 0.3333333333333333148 2 0.375 2 
	0.4166666666666666297 2 0.4583333333333333148 2 0.5 2 0.5416666666666666297 2 0.5833333333333332593 2 
	0.625 2 0.6666666666666666297 2 0.7083333333333332593 2 0.75 2 0.7916666666666667407 2 
	0.8333333333333333703 2 0.875 2 0.9166666666666667407 2 0.9583333333333333703 2 1 2 
	0.9545454545454595818 0.5 
	0.9545454545454595818 0.5524863881081151229 
	0.942583732057414081 0.6035915554766074775 
	0.9292929292929243967 0.6603750747749088656 
	0.9020979020979038587 0.7119642596675199719 
	0.8727272727272699093 0.7676805793515619758 
	0.8293135435992615712 0.8133116024823109358 
	0.7840909090909142787 0.8608439182435132508 
	0.7272727272727258496 0.8936479108111086145 
	0.6704545454545415284 0.9264519033787015356 
	0.6066790352504622952 0.9418496958083871773 
	0.545454545454544748 0.9566315765408857086 
	0.4825174825174847193 0.9542091278589712733 
	0.4242424242424299718 0.9519661198201616603 
	0.3684210526315835343 0.9350845330017513168 
	0.3181818181818062419 0.9198911048651773337 
	0.2727272727272689878 0.8936479108111080594 
	0.2272727272727228243 0.867404716757033567 
	0.1889952153110009692 0.8314929775251436173 
	0.1464646464646321977 0.7915910450452554592 
	0.1153846153846073974 0.7422448681914511903 
	0.08181818181817543389 0.6889509971893343909 
	0.06400742115027087398 0.6285380933260761305 
	0.04545454545453535278 0.5656079851351767385 
	0.04545454545453535972 0.500000000000000111 
	0.04545454545453535278 0.4343920148648103829 
	0.06400742115026697432 0.3714619066739242026 
	0.08181818181816302715 0.3110490028106948079 
	0.1153846153846124489 0.2577551318085493093 
	0.1464646464646439383 0.2084089549547334386 
	0.1889952153110002753 0.168507022474856577 
	0.227272727272720132 0.1325952832429681538 
	0.2727272727272689878 0.1063520891888920655 
	0.3181818181818240054 0.0801088951348124384 
	0.36842105263156677 0.06491546699824884969 
	0.4242424242424119862 0.04803388017983888092 
	0.4825174825174795012 0.04579087214102878223 
	0.5454545454545459693 0.04336842345911408325 
	0.6066790352504660699 0.05815030419161286435 
	0.6704545454545380867 0.07354809662129634107 
	0.7272727272727258496 0.1063520891888913578 
	0.7840909090909137236 0.1391560817564863606 
	0.8293135435992612381 0.1866883975176889532 
	0.8727272727272818997 0.2323194206484507363 
	0.9020979020979091878 0.2880357403324800281 
	0.929292929292930836 0.3396249252250927442 
	0.9425837320574206313 0.3964084445233925225 
	0.9545454545454594708 0.4475136118918535133 
	0.9545454545454595818 0.5 
	0.001000000000000000021 
	spline forward { ref 0 } I I I I 
	} 0 0 #
face $-1 $-1 $29 $2 $-1 $30 forward single #
loop $-1 $-1 $31 $11 #
spline-surface $-1 forward { exactsur full nurbs 2 1 both periodic open none none 4 2 
	0 2 20.78460969082652809 2 41.56921938165305619 2 62.35382907247958428 2 
	0 1 1 1 
	-246.3376608733945545 -7.282972802613585372e-08 -32.55541978920498281 1 
	-246.337660854585323 31.17691446341007833 -32.55542033908981381 0.5 
	-234.9269677969915335 15.58845675680930043 -57.02573031413714233 1 
	-223.5162747393976872 -9.497914774669879989e-07 -81.49604028918449217 0.5 
	-234.9269678158008219 -15.58845777943052013 -57.02572976425224027 1 
	-246.3376608922038713 -31.17691460906955925 -32.55541923932005233 0.5 
	-246.3376608733945545 -7.282972802613585372e-08 -32.55541978920498281 1 
	-249.0565842345044985 -9.355125740739822504e-08 -33.82327457442702467 1 
	-249.0565842156952954 31.17691444268854895 -33.82327512431185568 0.5 
	-237.6458911581015059 15.58845673608775684 -58.29358509935916999 1 
	-226.235198100507688 -9.70512992637395655e-07 -82.76389507440654825 0.5 
	-237.6458911769107658 -15.58845780015204951 -58.29358454947429635 1 
	-249.0565842533138436 -31.17691462979108863 -33.82327402454210841 0.5 
	-249.0565842345044985 -9.355125740739822504e-08 -33.82327457442702467 1 
	0 
	0 
	0 
	0 
	0 
	0 
	0 
	F 1 F 0 F 1 F 0 } I I I I #
coedge $-1 $32 $33 $34 $35 forward $12 $36 #
tcoedge-coedge $-1 $23 $14 $33 $37 forward $8 $38 0 1 #
coedge $-1 $15 $22 $14 $24 reversed $8 $39 #
edge $-1 $27 0 $40 1 $14 $41 forward 7 unknown #
pcurve $-1 0 forward { exppc nubs 2 open 7 
	0 2 0.1666666666666666574 2 0.3333333333333333148 2 0.5 2 0.6666666666666666297 2 
	0.8333333333333333703 2 1 2 
	0 1.99217906014531998 
	0 1.826164138466543685 
	0 1.66014921678776739 
	0 1.494134295108990651 
	0 1.328119373430213912 
	0 1.162104451751436951 
	0 0.9960895300726599899 
	0 0.8300746083938833619 
	0 0.664059686715106734 
	0 0.4980447650363300505 
	0 0.332029843357553367 
	0 0.1660149216787766835 
	0 0 
	0.001000000000000000021 
	spline forward { ref 1 } I I I I 
	} 0 0 #
pcurve $-1 0 forward { exppc nubs 2 periodic 25 
	-1 2 -0.9583333333333333703 2 -0.9166666666666667407 2 -0.875 2 -0.8333333333333333703 2 
	-0.7916666666666667407 2 -0.75 2 -0.7083333333333333703 2 -0.6666666666666667407 2 -0.625 2 
	-0.5833333333333333703 2 -0.5416666666666667407 2 -0.5 2 -0.4583333333333333703 2 -0.4166666666666666852 2 
	-0.375 2 -0.3333333333333333703 2 -0.2916666666666666852 2 -0.25 2 -0.2083333333333333148 2 
	-0.1666666666666666297 2 -0.1249999999999999722 2 -0.08333333333333331483 2 -0.04166666666666665741 2 -0 2 
	1 1.99217906014531998 
	0.9779614325068870517 1.99217906014531998 
	0.9583333333333332593 1.99217906014531998 
	0.9365443425076453998 1.992179060145320424 
	0.9166666666666668517 1.99217906014531998 
	0.8952145214521176619 1.99217906014531998 
	0.8749999999999472644 1.99217906014531998 
	0.8539518900343388008 1.99217906014531998 
	0.8333333333333334814 1.99217906014531998 
	0.8127147766323289391 1.99217906014531998 
	0.7916666666667214747 1.99217906014531998 
	0.7714521452145497449 1.992179060145319758 
	0.7499999999999988898 1.99217906014531998 
	0.7301223241590224511 1.99217906014531998 
	0.7083333333333369231 1.99217906014531998 
	0.6887052341597816874 1.99217906014531998 
	0.6666666666666669627 1.99217906014531998 
	0.6446280991735529042 1.99217906014531998 
	0.6249999999999982236 1.99217906014531998 
	0.6032110091743108082 1.992179060145319536 
	0.5833333333333330373 1.99217906014531998 
	0.5618811881187840696 1.992179060145319314 
	0.5416666666666138941 1.992179060145318426 
	0.5206185567010053195 1.992179060145319092 
	0.5 1.99217906014531998 
	0.4793814432989946805 1.992179060145319536 
	0.4583333333333861614 1.99217906014531887 
	0.438118811881216097 1.992179060145319092 
	0.4166666666666671848 1.992179060145319536 
	0.3967889908256891363 1.992179060145319092 
	0.3750000000000017764 1.992179060145318648 
	0.3553719008264470958 1.992179060145319536 
	0.3333333333333329818 1.99217906014531998 
	0.3112947658402218654 1.99217906014531998 
	0.2916666666666699048 1.992179060145319536 
	0.2698776758409795473 1.99217906014531998 
	0.2499999999999990563 1.99217906014531998 
	0.2285478547854506159 1.992179060145319758 
	0.2083333333332810511 1.99217906014531998 
	0.1872852233676721989 1.992179060145319758 
	0.1666666666666664909 1.992179060145319536 
	0.1460481099656611992 1.992179060145319536 
	0.1250000000000527356 1.99217906014531998 
	0.1047854785478825046 1.992179060145319536 
	0.08333333333333345361 1.992179060145319536 
	0.06345565749235509978 1.992179060145319314 
	0.04166666666666721947 1.992179060145318648 
	0.02203856749311325358 1.992179060145319536 
	0 1.99217906014531998 
	0.001000000000000000021 
	spline forward { ref 1 } I I I I 
	} 0 0 #
tvertex-vertex $-1 $16 $42 5.859641548077572729e-14 #
intcurve-curve $-1 forward { exactcur full nurbs 2 periodic 4 
	0 2 0.3333333333333329818 2 0.6666666666666669627 2 1 2 
	-340.5374800447980874 -1.043739381145769585e-06 -90.82542981215664213 1 
	-340.5374800395732677 8.660252994105043456 -90.82542996490241194 0.5 
	-337.36784307913058 4.33012585338257594 -97.62273829130450054 1 
	-334.1982061186877786 -1.287339848943247489e-06 -104.4200466177065607 0.5 
	-337.3678430843553429 -4.330128184461806029 -97.62273813855875915 1 
	-340.5374800500229071 -8.660255081583748904 -90.82542965941081547 0.5 
	-340.5374800447980874 -1.043739381145769585e-06 -90.82542981215664213 1 
	0 
	null_surface 
	null_surface 
	nullbs 
	nullbs 
	I I 
	0 
	0 
	0 
	F 1 F 0 } I I #
loop $-1 $-1 $43 $18 #
spline-surface $-1 forward { exactsur full nubs 1 1 open open none none 2 2 
	0 1 1 1 
	0 1 1 1 
	-230.3626905676511853 19.79999931329707152 -66.81385448841450625 
	-247.0983737325823029 19.79999995640232413 -30.92406612176274194 
	-230.3626905915422469 -19.80000068670298674 -66.81385378996688473 
	-247.0983737564733644 -19.80000004359771992 -30.92406542331510622 
	0 
	0 
	0 
	0 
	0 
	0 
	0 
	F 1 F 0 F 1 F 0 } I I I I #
coedge $-1 $44 $45 $46 $47 forward $19 $48 #
tcoedge-coedge $-1 $34 $21 $45 $49 forward $12 $50 0 8.879942301216722456 #
tcoedge-coedge $-1 $21 $34 $22 $37 reversed $12 $51 -1 -0 #
coedge $-1 $33 $32 $21 $35 reversed $12 $52 #
edge $-1 $40 0 $53 1 $21 $54 forward 7 unknown #
pcurve $-1 0 forward { exppc nubs 2 open 7 
	0 2 0.1666666666666666574 2 0.3333333333333333148 2 0.5 2 0.6666666666666666297 2 
	0.8333333333333333703 2 1 2 
	0 1 
	0 0.9166666666666656305 
	0 0.8333333333333313719 
	0 0.7499999999999991118 
	0 0.6666666666666670737 
	0 0.5833333333333345916 
	0 0.5000000000000022204 
	0 0.4166666666666677954 
	0 0.3333333333333333703 
	0 0.2500000000000011102 
	0 0.1666666666666688501 
	0 0.08333333333333443893 
	0 0 
	0.001000000000000000021 
	spline forward { ref 2 } I I I I 
	} 0 0 #
tedge-edge $-1 $40 0 $40 1 $22 $55 forward 7 unknown 9.988363367757985665e-12 #
pcurve $-1 0 forward { exppc nubs 2 periodic 25 
	0 2 0.04166666666666666435 2 0.08333333333333332871 2 0.125 2 0.1666666666666666574 2 
	0.2083333333333333148 2 0.25 2 0.2916666666666666297 2 0.3333333333333333148 2 0.375 2 
	0.4166666666666666297 2 0.4583333333333333148 2 0.5 2 0.5416666666666666297 2 0.5833333333333332593 2 
	0.625 2 0.6666666666666666297 2 0.7083333333333332593 2 0.75 2 0.7916666666666667407 2 
	0.8333333333333333703 2 0.875 2 0.9166666666666667407 2 0.9583333333333333703 2 1 2 
	0 0 
	0.02203856749311325358 0 
	0.04166666666666723334 0 
	0.06345565749235509978 1.414294682970374582e-16 
	0.08333333333333349524 2.704528428838085073e-16 
	0.1047854785478826711 1.312097950624378265e-16 
	0.1250000000000528466 0 
	0.1460481099656612547 0 
	0.1666666666666664909 0 
	0.1872852233676718936 2.680723111437479435e-16 
	0.2083333333332804127 5.417294621029760954e-16 
	0.228547854785449589 5.442748377105156023e-16 
	0.2499999999999974187 5.46976052640965979e-16 
	0.2698776758409754395 2.860333486287610758e-16 
	0.2916666666666627439 0 
	0.3112947658402179796 2.576664051396575291e-16 
	0.3333333333333329818 5.469760530157686848e-16 
	0.3553719008264455415 2.576664051396605859e-16 
	0.3749999999999990008 0 
	0.3967889908256884146 0 
	0.4166666666666681285 0 
	0.4381188118812165411 0 
	0.4583333333333861059 0 
	0.4793814432989945695 0 
	0.5 0 
	0.5206185567010055415 0 
	0.5416666666666143382 0 
	0.5618811881187841806 0 
	0.5833333333333327042 0 
	0.6032110091743108082 0 
	0.6249999999999982236 0 
	0.6446280991735529042 2.576664051396586631e-16 
	0.6666666666666669627 5.469760530157686848e-16 
	0.6887052341597788008 2.576664051496427332e-16 
	0.7083333333333313719 1.887665850626559462e-26 
	0.7301223241590208968 9.005378369961559427e-27 
	0.7500000000000009992 0 
	0.771452145214550189 1.409206159214182744e-16 
	0.7916666666667205865 2.737111963089017747e-16 
	0.812714776632328606 1.354447156992540491e-16 
	0.8333333333333334814 0 
	0.8539518900343388008 0 
	0.8749999999999472644 0 
	0.8952145214521176619 4.783933707404519846e-32 
	0.9166666666666668517 9.860761315262647568e-32 
	0.9365443425076453998 5.156544907981384247e-32 
	0.9583333333333332593 0 
	0.9779614325068870517 0 
	1 0 
	0.001000000000000000021 
	spline forward { ref 1 } I I I I 
	} 0 0 #
pcurve $-1 0 forward { exppc nubs 2 open 7 
	-1 2 -0.8333333333333333703 2 -0.6666666666666667407 2 -0.5 2 -0.3333333333333333703 2 
	-0.1666666666666666297 2 -0 2 
	1 0 
	1 0.1660149216787766835 
	1 0.332029843357553367 
	1 0.4980447650363300505 
	1 0.664059686715106734 
	1 0.8300746083938833619 
	1 0.9960895300726599899 
	1 1.162104451751436729 
	1 1.328119373430213468 
	1 1.494134295108989985 
	1 1.660149216787766724 
	1 1.826164138466543463 
	1 1.99217906014531998 
	0.001000000000000000021 
	spline forward { ref 1 } I I I I 
	} 0 0 #
tvertex-vertex $-1 $37 $56 0 #
intcurve-curve $-1 forward { exactcur full nubs 1 open 2 
	0 1 1 1 
	-340.5374800447980874 -1.043739381145769585e-06 -90.82542981215664213 
	-246.7195245470723535 -3.287316943101359357e-07 -47.07739869112430853 
	0 
	null_surface 
	null_surface 
	nullbs 
	nullbs 
	I I 
	0 
	0 
	0 
	F 1 F 0 } I I #
point $-1 -340.5374800447980874 -1.043739381145769585e-06 -90.82542981215664213 #
tcoedge-coedge $-1 $43 $43 $44 $57 reversed $29 $58 -62.35382907247958428 -0 #
tcoedge-coedge $-1 $46 $31 $43 $57 forward $19 $59 0 62.35382907247958428 #
tcoedge-coedge $-1 $31 $46 $32 $49 reversed $19 $60 -8.879942301216722456 -0 #
coedge $-1 $45 $44 $31 $47 reversed $19 $61 #
edge $-1 $53 0 $62 1 $31 $63 forward 7 unknown #
pcurve $-1 0 forward { exppc nubs 2 open 7 
	0 2 0.1666666666666666574 2 0.3333333333333333148 2 0.5 2 0.6666666666666666297 2 
	0.8333333333333333703 2 1 2 
	0 1 
	0 0.9166666666666667407 
	0 0.8333333333333334814 
	0 0.7500000000000024425 
	0 0.6666666666666715146 
	0 0.5833333333333357018 
	0 0.5 
	0 0.4166666666666666297 
	0 0.3333333333333333148 
	0 0.25 
	0 0.1666666666666666574 
	0 0.08333333333333332871 
	0 0 
	0.001000000000000000021 
	spline forward { ref 4 } I I I I 
	} 0 0 #
tedge-edge $-1 $53 0 $53 8.879942301216722456 $32 $64 forward 7 unknown 3.588322531469573648e-11 #
pcurve $-1 0 forward { exppc nubs 2 periodic 43 
	0 2 0.3699975958840300838 2 0.5549963938260451535 2 0.7399951917680601676 2 0.9249939897100751818 2 
	1.109992787652090307 2 1.29499158559410521 2 1.479990383536120335 2 1.66498918147813546 2 1.849987979420150364 2 
	2.034986777362165711 2 2.219985575304180614 2 2.404984373246195517 2 2.58998317118821042 2 2.959980767072240671 2 
	3.329978362956270921 2 3.514977160898285824 2 3.699975958840300727 2 3.884974756782316074 2 4.069973554724331422 2 
	4.254972352666346325 2 4.439971150608361228 2 4.624969948550376131 2 4.809968746492391034 2 4.994967544434405937 2 
	5.17996634237642084 2 5.364965140318435743 2 5.549963938260450647 2 5.919961534144481341 2 6.289959130028512035 2 
	6.474957927970526939 2 6.659956725912541842 2 6.844955523854556745 2 7.029954321796571648 2 7.214953119738586551 2 
	7.399951917680602342 2 7.584950715622618134 2 7.769949513564633037 2 7.95494831150664794 2 8.139947109448662843 2 
	8.324945907390677746 2 8.509944705332692649 2 8.879942301216722456 2 
	0 0 
	0.1957012077403137984 2.291180733213286999e-15 
	0.3699975958840313051 4.331763573731376921e-15 
	0.4647834968476470818 7.958063145086431365e-13 
	0.5549963938176925016 1.549095689742962297e-12 
	0.6494546035948547402 7.637963726842206985e-13 
	0.739995191768067162 1.106707338607833457e-14 
	0.8340777100362593011 7.189917437606162965e-14 
	0.9249939897089124452 1.306840411981289446e-13 
	1.018658368493563948 1.799304983668748474e-12 
	1.109992787607604336 3.426417942507375275e-12 
	1.203205549575432798 1.699996562728700153e-12 
	1.294991585594096994 0 
	1.387731242744254079 0 
	1.479990383536120557 0 
	1.572249524327983261 0 
	1.664989181478136793 0 
	1.756775217496806318 1.699172292235017931e-12 
	1.849987979464640775 3.424756589025289635e-12 
	1.941322398578676722 1.799278857421820416e-12 
	2.03498677736332434 1.323348571668342671e-13 
	2.125903057035976929 7.328730630166827511e-14 
	2.219985575304168623 1.218337306808048531e-14 
	2.310526163477383932 7.629124045743625053e-13 
	2.404984373254549723 1.546124903792551498e-12 
	2.495197270224589925 7.935478262954650489e-13 
	2.589983171188199762 2.821680356357508592e-15 
	2.764279559331926706 1.492459031461820172e-15 
	2.959980767072250885 0 
	3.1556819748125573 1.205061056259315372e-15 
	3.329978362956267812 2.27831855949027336e-15 
	3.424764263919883867 7.941266836942312387e-13 
	3.514977160889930285 1.547771838232776028e-12 
	3.609435370667094745 7.635815684689425269e-13 
	3.699975958840308721 1.191531911245953566e-14 
	3.794058477108502636 7.096181343596827374e-14 
	3.884974756781157446 1.280211661236051873e-13 
	3.978639135565805063 1.800862681312539373e-12 
	4.069973554679840788 3.432091223498417651e-12 
	4.163186316647673024 1.703661532707941078e-12 
	4.254972352666339219 1.68739842172472925e-15 
	4.347712009816495637 8.415077843406435748e-16 
	4.439971150608361228 0 
	4.532230291400226818 2.030956207416112989e-15 
	4.624969948550383236 4.072490311745859603e-15 
	4.716755984569049431 1.703188011803242303e-12 
	4.809968746536880779 3.428714655403196365e-12 
	4.901303165650918281 1.800066053640328338e-12 
	4.994967544435565898 1.298702936810864229e-13 
	5.085883824108220708 7.210040316733341517e-14 
	5.179966342376413735 1.23186259192869576e-14 
	5.270506930549625935 7.620800842527252655e-13 
	5.364965140326788173 1.544283144151161954e-12 
	5.455178037296834148 7.914096259465207453e-13 
	5.549963938260450647 3.720123515464023317e-16 
	5.724260326404166932 1.967668636278492898e-16 
	5.919961534144481341 2.711709361697228081e-31 
	6.115662741884801079 1.566290137663991394e-15 
	6.289959130028522694 2.96126729152098515e-15 
	6.384745030992132087 7.93385093273083535e-13 
	6.474957927962171844 1.545674436424608611e-12 
	6.569416137739336747 7.626705017605018732e-13 
	6.6599567259125525 1.214138466550324438e-14 
	6.754039244180741974 7.371810012946925448e-14 
	6.844955523853393231 1.332225222845683562e-13 
	6.938619902638041737 1.79972555021893397e-12 
	7.029954321752079238 3.424773278962482334e-12 
	7.123167083719911474 1.699441697954477108e-12 
	7.214953119738579446 5.182534030083994249e-16 
	7.307692776888734976 8.382350847234213105e-16 
	7.399951917680599678 1.156558830263754279e-15 
	7.492211058472466156 1.03866209758351889e-15 
	7.584950715622623463 9.201513194205741038e-16 
	7.676736751641289658 1.699207847420122177e-12 
	7.769949513609121006 3.423893797877084616e-12 
	7.861283932723159396 1.797238213825672347e-12 
	7.954948311507811454 1.290863138664257326e-13 
	8.04586459118046271 7.463576133893430008e-14 
	8.139947109448652185 1.828892091249074037e-14 
	8.230487697621867937 7.664568006798601879e-13 
	8.324945907399031952 1.546997329093498588e-12 
	8.415158804369077927 7.926188562534101564e-13 
	8.509944705332694426 0 
	8.684241093476408935 0 
	8.879942301216722456 0 
	0.001000000000000000021 
	spline forward { ref 2 } I I I I 
	} 0 0 #
pcurve $-1 0 forward { exppc nubs 2 periodic 25 
	-1 2 -0.9583333333333333703 2 -0.9166666666666667407 2 -0.875 2 -0.8333333333333333703 2 
	-0.7916666666666667407 2 -0.75 2 -0.7083333333333333703 2 -0.6666666666666667407 2 -0.625 2 
	-0.5833333333333333703 2 -0.5416666666666667407 2 -0.5 2 -0.4583333333333333703 2 -0.4166666666666666852 2 
	-0.375 2 -0.3333333333333333703 2 -0.2916666666666666852 2 -0.25 2 -0.2083333333333333148 2 
	-0.1666666666666666297 2 -0.1249999999999999722 2 -0.08333333333333331483 2 -0.04166666666666665741 2 -0 2 
	8.879942301216722456 1 
	8.684241093476408935 1 
	8.509944705332692649 1 
	8.316459723998841369 0.999999999999999778 
	8.139947109448662843 0.999999999999999889 
	7.949453297706121191 1 
	7.769949513564121446 1 
	7.583043511519874436 1 
	7.399951917680601454 1 
	7.216860323841310709 1 
	7.029954321797045047 1 
	6.850450537655063066 1 
	6.659956725912540065 0.999999999999999889 
	6.483444111362370421 1 
	6.289959130028532464 1 
	6.115662741884818843 1 
	5.919961534144510651 1 
	5.724260326404186472 1 
	5.549963938260456864 1 
	5.356478956926604695 1 
	5.179966342376423505 1 
	4.989472530633884517 1.000000000000000222 
	4.809968746491885661 1 
	4.623062744447635097 0.9999999999999973355 
	4.439971150608361228 0.9999999999999945599 
	4.256879556769089135 0.9999999999999973355 
	4.069973554724840348 1 
	3.890469770582844156 0.9999999999999986677 
	3.699975958840308721 0.9999999999999973355 
	3.523463344290129751 0.9999999999999977796 
	3.32997836295627847 0.9999999999999983347 
	3.155681974812558632 0.9999999999999991118 
	2.959980767072241115 1 
	2.764279559331957792 0.9999999999999976685 
	2.589983171188266819 0.9999999999999956701 
	2.396498189854374239 0.9999999999999980016 
	2.219985575304159298 1 
	2.02949176356165939 0.999999999999999778 
	1.849987979419696948 1 
	1.663081977375421072 1 
	1.479990383536120557 1 
	1.296898789696827592 0.999999999999999778 
	1.109992787652559487 1 
	0.9304890035105800594 1 
	0.7399951917680614999 1 
	0.5634825772178840841 1 
	0.3699975958840352463 1 
	0.1957012077403162409 1 
	0 1 
	0.001000000000000000021 
	spline forward { ref 2 } I I I I 
	} 0 0 #
pcurve $-1 0 forward { exppc nubs 2 open 7 
	-1 2 -0.8333333333333333703 2 -0.6666666666666667407 2 -0.5 2 -0.3333333333333333703 2 
	-0.1666666666666666297 2 -0 2 
	8.879942301216722456 0 
	8.879942301216722456 0.08333333333333443893 
	8.879942301216722456 0.1666666666666688501 
	8.879942301216722456 0.2500000000000011102 
	8.879942301216722456 0.3333333333333333703 
	8.879942301216722456 0.4166666666666677954 
	8.879942301216722456 0.5000000000000022204 
	8.879942301216722456 0.5833333333333345916 
	8.879942301216722456 0.6666666666666667407 
	8.879942301216722456 0.7499999999999988898 
	8.879942301216722456 0.8333333333333313719 
	8.879942301216722456 0.9166666666666656305 
	8.879942301216722456 1 
	0.001000000000000000021 
	spline forward { ref 2 } I I I I 
	} 0 0 #
tvertex-vertex $-1 $49 $65 0 #
intcurve-curve $-1 forward { exactcur full nubs 1 open 2 
	0 1 1 1 
	-246.7195245470723535 -3.287316943101359357e-07 -47.07739869112430853 
	-249.0565842345044985 -9.355125740739822504e-08 -33.82327457442702467 
	0 
	null_surface 
	null_surface 
	nullbs 
	nullbs 
	I I 
	0 
	0 
	0 
	F 1 F 0 } I I #
intcurve-curve $-1 forward { exactcur full nurbs 2 periodic 4 
	0 2 0.3333333333333329818 2 0.6666666666666669627 2 1 2 
	-246.7195245470723535 -3.287316943101359357e-07 -47.07739869112430853 1 
	-246.7195245418475622 8.660253709112687659 -47.07739884387012808 0.5 
	-243.5498875814048461 4.330126568390241459 -53.87470717027218114 1 
	-240.3802506209621015 -5.723321976347506279e-07 -60.67201549667424132 0.5 
	-243.5498875866295805 -4.330127469454161826 -53.87470701752643976 1 
	-246.7195245522971732 -8.660254366576104701 -47.07739853837848898 0.5 
	-246.7195245470723535 -3.287316943101359357e-07 -47.07739869112430853 1 
	0 
	null_surface 
	null_surface 
	nullbs 
	nullbs 
	I I 
	0 
	0 
	0 
	F 1 F 0 } I I #
point $-1 -246.7195245470723535 -3.287316943101359357e-07 -47.07739869112430853 #
tedge-edge $-1 $62 0 $62 62.35382907247958428 $44 $66 forward 7 unknown 0.0003947325139856581945 #
pcurve $-1 0 forward { exppc nubs 2 periodic 43 
	-62.35382907247958428 2 -59.75575286112626827 2 -58.45671475544961027 2 -57.15767664977295226 2 -55.85863854409629425 2 
	-54.55960043841963625 2 -53.26056233274297824 2 -51.96152422706632024 2 -50.66248612138966223 2 -49.36344801571300422 2 
	-48.06440991003634622 2 -46.76537180435968821 2 -45.46633369868303021 2 -44.1672955930063722 2 -41.56921938165306329 2 
	-38.97114317029974018 2 -37.67210506462308217 2 -36.37306695894642417 2 -35.07402885326976616 2 -33.77499074759310815 2 
	-32.47595264191645015 2 -31.17691453623979214 2 -29.87787643056313414 2 -28.57883832488647613 2 -27.27980021920981812 2 
	-25.98076211353316012 2 -24.68172400785650211 2 -23.38268590217984411 2 -20.78460969082653165 2 -18.18653347947321208 2 
	-16.88749537379655408 2 -15.58845726811989607 2 -14.28941916244323806 2 -12.99038105676658006 2 -11.69134295108992205 2 
	-10.39230484541326227 2 -9.093266739736604265 2 -7.794228634059946259 2 -6.495190528383288253 2 -5.196152422706631135 2 
	-3.89711431702997313 2 -2.598076211353315568 2 -0 2 
	0.9545454545454529205 0.5 
	0.9545454545454528095 0.5524863881081440997 
	0.9425837320574137479 0.6035915554766074775 
	0.9361179361179319258 0.6312159702703763475 
	0.9262672811059893263 0.6578219734588315326 
	0.9159519725557441205 0.6856829767976948542 
	0.9020979020979013052 0.711964259667520083 
	0.8877005347593578399 0.7392761810812620293 
	0.8697421981004067604 0.764390387858207232 
	0.8512396694214920956 0.790265631204144281 
	0.8293135435992564641 0.8133116024823108248 
	0.8069353327085212468 0.836832748426006412 
	0.781441356570891088 0.8569346341551502544 
	0.7556818181818252267 0.877245914527307602 
	0.7272727272727264047 0.8936479108111085035 
	0.6988636363636321347 0.9100499070949068514 
	0.6683937823834208425 0.922202681543520586 
	0.6382380506091882566 0.9342301696576137404 
	0.6066790352504638495 0.9418496958083871773 
	0.5757575757575762454 0.9493152921379319764 
	0.5440976933514251046 0.9524013303351545057 
	0.513368983957220415 0.9553966027030469377 
	0.4825174825174845528 0.9542091278589712733 
	0.4528301886792452935 0.9530664633863699109 
	0.4235441977377475964 0.9480692809693263001 
	0.3955773955773967954 0.9432971968593564238 
	0.3684210526315800927 0.9350845330017514279 
	0.3181818181818178437 0.9198911048651817746 
	0.2727272727272734842 0.8936479108111085035 
	0.2272727272727313452 0.8674047167570364536 
	0.1889952153110067423 0.8314929775251438393 
	0.1683046683046764136 0.8120812265889925108 
	0.150188521156266297 0.7902473075104945455 
	0.1312178387650098921 0.7673834865886749457 
	0.1153846153846181666 0.7422448681914513013 
	0.09893048128342367409 0.7161204216217826879 
	0.08616010854817054976 0.6880109424769472737 
	0.07300275482094328861 0.6590496609337908041 
	0.06400742115028200396 0.6285380933260760195 
	0.05482661668228869245 0.5973974212316082166 
	0.05016486104569288507 0.5652680473883701096 
	0.04545454545454705175 0.5328039925675837063 
	0.045454545454547024 0.4999999999999998335 
	0.04545454545454705175 0.4671960074324134626 
	0.05016486104569253118 0.4347319526116295019 
	0.05482661668228933083 0.4026025787683845669 
	0.06400742115028061618 0.3714619066739236475 
	0.07300275482093976365 0.3409503390662161904 
	0.0861601085481702722 0.3119890575230525598 
	0.09893048128342239733 0.2838795783782194215 
	0.1153846153846182915 0.2577551318085484766 
	0.131217838765014666 0.2326165134113173938 
	0.1501885211562649647 0.209752692489505177 
	0.1683046683046693914 0.187918773411013984 
	0.1889952153110069644 0.1685070224748559387 
	0.2272727272727313175 0.1325952832429636297 
	0.2727272727272734842 0.1063520891888915521 
	0.3181818181818182878 0.08010889513481800339 
	0.3684210526315804257 0.06491546699824848887 
	0.3955773955773961292 0.05670280314064382599 
	0.4235441977377477074 0.05193071903067376927 
	0.4528301886792463482 0.04693353661362992257 
	0.4825174825174843307 0.04579087214102867814 
	0.5133689839572201929 0.04460339729695299293 
	0.5440976933514244385 0.04759866966484545964 
	0.575757575757574358 0.05068470786206799583 
	0.6066790352504634054 0.05815030419161310721 
	0.6382380506091898109 0.06576983034238703674 
	0.6683937823834208425 0.07779731845647949728 
	0.6988636363636309135 0.08995009290509278777 
	0.7272727272727264047 0.106352089188891677 
	0.7556818181818236724 0.1227540854726915931 
	0.781441356570890866 0.1430653658448499677 
	0.8069353327085216909 0.1631672515739941431 
	0.8293135435992567972 0.1866883975176893695 
	0.8512396694214869886 0.2097343687958500846 
	0.8697421981004058722 0.2356096121417929623 
	0.8877005347593622808 0.2607238189187456312 
	0.9020979020979019714 0.2880357403324801391 
	0.9159519725557437875 0.314317023202303425 
	0.9262672811059897704 0.3421780265411685784 
	0.936117936117932592 0.36878402972962393 
	0.942583732057414192 0.396408444523392578 
	0.9545454545454530315 0.4475136118918552341 
	0.9545454545454529205 0.5 
	0.001000000000000000021 
	spline forward { ref 8 } I I I I 
	} 0 0 #
pcurve $-1 0 forward { exppc nubs 2 periodic 43 
	0 2 2.598076211353316012 2 3.897114317029974018 2 5.196152422706632024 2 6.49519052838329003 2 
	7.794228634059948035 2 9.093266739736606041 2 10.39230484541326405 2 11.69134295108992205 2 12.99038105676658006 2 
	14.28941916244323806 2 15.58845726811989607 2 16.88749537379655408 2 18.18653347947321208 2 20.78460969082652809 2 
	23.38268590217984411 2 24.68172400785650211 2 25.98076211353316012 2 27.27980021920981812 2 28.57883832488647613 2 
	29.87787643056313414 2 31.17691453623979214 2 32.47595264191645015 2 33.77499074759310815 2 35.07402885326976616 2 
	36.37306695894642417 2 37.67210506462308217 2 38.97114317029974018 2 41.56921938165305619 2 44.1672955930063722 2 
	45.46633369868303021 2 46.76537180435968821 2 48.06440991003634622 2 49.36344801571300422 2 50.66248612138966223 2 
	51.96152422706632024 2 53.26056233274297824 2 54.55960043841963625 2 55.85863854409629425 2 57.15767664977295226 2 
	58.45671475544961027 2 59.75575286112626827 2 62.35382907247958428 2 
	0 0 
	1.374189070467871199 0 
	2.598076211353319565 0 
	3.263650791342729285 0 
	3.897114317034306996 0 
	4.560387890989297865 2.418505069588545957e-15 
	5.196152422706622254 4.736703477305113097e-15 
	5.856787938552083794 2.327817601316198708e-15 
	6.495190528383512962 0 
	7.152889921939243223 2.398303920159202016e-15 
	7.794228634063210315 4.736948538821800006e-15 
	8.448756831266237555 3.537044621014891188e-15 
	9.093266739736598936 2.35550657950088624e-15 
	9.744472855049835402 1.174694190296546223e-15 
	10.39230484541326405 0 
	11.04013683577668203 2.362323910715704491e-15 
	11.69134295108991495 4.736951591799721763e-15 
	12.33585285956028166 5.888615500844577211e-15 
	12.99038105676331689 7.058180921428931279e-15 
	13.63171976888729908 4.154414993433777693e-15 
	14.28941916244304444 1.176573404010039009e-15 
	14.92782175227446118 2.926416625007280543e-15 
	15.58845726811990673 4.737199659671102398e-15 
	16.22422179983723822 4.737077214974395707e-15 
	16.88749537379223398 4.73694947218985015e-15 
	17.52095889948380858 2.42702130260531757e-15 
	18.18653347947321564 0 
	19.41042062035865712 0 
	20.78460969082652809 0 
	22.15879876129439907 0 
	23.38268590217985121 0 
	24.04826048216926182 0 
	24.68172400786083998 0 
	25.34499758181582507 2.445093842445068614e-15 
	25.98076211353315301 4.788778262853608087e-15 
	26.64139762937860922 2.353409366341253488e-15 
	27.27980021921003129 0 
	27.93749961276575888 1.18802789903309327e-15 
	28.57883832488972331 2.346502865254364298e-15 
	29.23336652209276565 4.138920048260398216e-15 
	29.87787643056313058 5.903902274383775717e-15 
	30.5290825458763635 2.944283731640740269e-15 
	31.17691453623979214 0 
	31.82474652660321368 2.936741180606594055e-15 
	32.47595264191645015 5.8887778881955144e-15 
	33.12046255038681863 4.116718798922827578e-15 
	33.77499074758984676 2.317114749713352628e-15 
	34.41632945971381474 1.173148777562706322e-15 
	35.074028853269553 0 
	35.71243144310098216 2.327817610887210624e-15 
	36.37306695894643127 4.736703496780456694e-15 
	37.00883149066375211 2.418505079532426785e-15 
	37.67210506461875497 0 
	38.30556859031034378 0 
	38.97114317029975439 0 
	40.19503031118519942 0 
	41.56921938165305619 0 
	42.94340845212092006 0 
	44.16729559300635799 0 
	44.83287017299578281 1.221341618843424744e-15 
	45.46633369868738583 2.383758861338961731e-15 
	46.12960727264238869 3.558302612646314942e-15 
	46.76537180435970953 4.684132567816669063e-15 
	47.42600732020513021 2.301982019880559376e-15 
	48.06440991003651675 0 
	48.72210930359226211 1.162066804564105786e-15 
	49.3634480157162514 2.295226474686263972e-15 
	50.01797621291929374 4.100500707859127884e-15 
	50.66248612138966223 5.878143192565151547e-15 
	51.3136922367029058 2.931437644084439546e-15 
	51.96152422706632024 0 
	52.60935621742974888 5.747311021762547105e-16 
	53.26056233274297824 1.152455595509677311e-15 
	53.90507224121334673 1.730417077000770911e-15 
	54.55960043841635354 2.317362415717083842e-15 
	55.20093915054032863 1.17327417017416695e-15 
	55.85863854409608109 0 
	56.49704113392750315 2.328061443249486436e-15 
	57.15767664977294515 4.737199653179314362e-15 
	57.7934411814902802 2.418758411152550407e-15 
	58.45671475544529017 0 
	59.09017828113684345 0 
	59.75575286112625406 0 
	60.9796400020117062 0 
	62.35382907247958428 0 
	0.001000000000000000021 
	spline forward { ref 4 } I I I I 
	} 0 0 #
pcurve $-1 0 forward { exppc nubs 2 periodic 43 
	-8.879942301216722456 2 -8.509944705332692649 2 -8.324945907390677746 2 -8.139947109448662843 2 -7.95494831150664794 2 
	-7.769949513564633037 2 -7.584950715622618134 2 -7.399951917680602342 2 -7.214953119738586551 2 -7.029954321796571648 2 
	-6.844955523854556745 2 -6.659956725912541842 2 -6.474957927970526939 2 -6.289959130028512035 2 -5.919961534144482229 2 
	-5.549963938260452423 2 -5.36496514031843752 2 -5.179966342376421728 2 -4.994967544434405937 2 -4.809968746492391034 2 
	-4.624969948550376131 2 -4.439971150608361228 2 -4.254972352666346325 2 -4.069973554724331422 2 -3.884974756782316518 2 
	-3.699975958840301171 2 -3.514977160898285824 2 -3.329978362956270921 2 -2.959980767072241115 2 -2.589983171188210864 2 
	-2.404984373246195517 2 -2.219985575304180614 2 -2.034986777362165711 2 -1.849987979420150364 2 -1.664989181478135238 2 
	-1.479990383536120113 2 -1.29499158559410521 2 -1.109992787652090085 2 -0.9249939897100750708 2 -0.7399951917680600566 2 
	-0.5549963938260450425 2 -0.3699975958840300283 2 -0 2 
	62.35382907247958428 1 
	60.97964000201172041 1 
	59.75575286112627538 1 
	59.09017828113687187 0.999999999999999889 
	58.45671475544530438 1 
	57.79344118149028731 0.9999999999999976685 
	57.15767664977293094 0.999999999999995226 
	56.49704113392749605 0.9999999999999976685 
	55.8586385440960882 1 
	55.20093915054037126 1 
	54.55960043841640328 1 
	53.90507224121337515 1 
	53.26056233274299956 1 
	52.60935621742975599 0.9999999999999961142 
	51.96152422706632024 0.9999999999999922284 
	51.31369223670289159 0.9999999999999960032 
	50.66248612138966934 1 
	50.01797621291928664 0.9999999999999953371 
	49.36344801571623009 0.9999999999999905631 
	48.722109303592255 0.9999999999999928946 
	48.06440991003651675 0.999999999999995226 
	47.42600732020513021 0.9999999999999974465 
	46.76537180435973085 1 
	46.12960727264238159 1 
	45.46633369868736452 1 
	44.83287017299582544 1 
	44.16729559300645747 1 
	42.9434084521209769 1 
	41.56921938165305619 1 
	40.19503031118519942 0.999999999999999889 
	38.9711431702997686 1 
	38.3055685903103722 1 
	37.6721050646187976 1 
	37.00883149066378053 1 
	36.37306695894643127 1 
	35.71243144310097506 1 
	35.07402885326954589 1 
	34.41632945971380764 0.9999999999999971134 
	33.77499074758984676 0.9999999999999945599 
	33.12046255038681863 0.9999999999999972244 
	32.47595264191645725 1 
	31.82474652660321723 0.9999999999999991118 
	31.17691453623979214 0.9999999999999985567 
	30.5290825458763635 0.9999999999999991118 
	29.87787643056312703 1 
	29.2333665220927692 0.999999999999999778 
	28.57883832488973397 0.9999999999999991118 
	27.93749961276576954 0.9999999999999994449 
	27.27980021921003839 0.9999999999999995559 
	26.64139762937860922 0.999999999999999778 
	25.98076211353315301 1 
	25.34499758181582507 0.9999999999999987788 
	24.68172400786083998 0.9999999999999977796 
	24.04826048216926182 0.9999999999999966693 
	23.38268590217985121 0.999999999999995226 
	22.15879876129440262 0.9999999999999975575 
	20.78460969082652809 1 
	19.41042062035865001 1 
	18.18653347947320142 1 
	17.52095889948379437 1 
	16.88749537379221621 1 
	16.22422179983721335 1 
	15.58845726811987831 1 
	14.92782175227444341 1 
	14.28941916244304089 1 
	13.63171976888730264 1 
	12.99038105676332933 1 
	12.33585285956027988 1 
	11.69134295108989718 1 
	11.04013683577667493 0.9999999999999961142 
	10.39230484541326405 0.9999999999999922284 
	9.744472855049837179 0.9999999999999962252 
	9.09326673973659716 1 
	8.44875683126624466 0.9999999999999993339 
	7.794228634063221861 0.9999999999999984457 
	7.152889921939241447 0.9999999999999992228 
	6.495190528383495199 1 
	5.856787938552090012 0.9999999999999977796 
	5.19615242270665334 0.999999999999995226 
	4.560387890989318294 0.9999999999999953371 
	3.897114317034314546 0.999999999999995226 
	3.263650791342729285 0.9999999999999975575 
	2.598076211353311571 1 
	1.374189070467866758 1 
	0 1 
	0.001000000000000000021 
	spline forward { ref 4 } I I I I 
	} 0 0 #
pcurve $-1 0 forward { exppc nubs 2 open 7 
	-1 2 -0.8333333333333333703 2 -0.6666666666666667407 2 -0.5 2 -0.3333333333333333703 2 
	-0.1666666666666666297 2 -0 2 
	62.35382907247958428 0 
	62.35382907247958428 0.08333333333333332871 
	62.35382907247958428 0.1666666666666666574 
	62.35382907247958428 0.25 
	62.35382907247958428 0.3333333333333333148 
	62.35382907247958428 0.4166666666666666297 
	62.35382907247958428 0.5 
	62.35382907247958428 0.5833333333333333703 
	62.35382907247958428 0.6666666666666667407 
	62.35382907247958428 0.750000000000000111 
	62.35382907247958428 0.8333333333333334814 
	62.35382907247958428 0.9166666666666667407 
	62.35382907247958428 1 
	0.001000000000000000021 
	spline forward { ref 4 } I I I I 
	} 0 0 #
tvertex-vertex $-1 $57 $67 4.178239817374630223e-14 #
intcurve-curve $-1 forward { exactcur full nubs 1 open 2 
	0 1 1 1 
	-249.0565842345044985 -9.355125740739822504e-08 -33.82327457442702467 
	-246.3376608733945545 -7.282972802613585372e-08 -32.55541978920498281 
	0 
	null_surface 
	null_surface 
	nullbs 
	nullbs 
	I I 
	0 
	0 
	0 
	F 1 F 0 } I I #
intcurve-curve $-1 forward { exactcur full nurbs 2 periodic 4 
	0 2 2.959980767072241115 2 5.919961534144481341 2 8.879942301216722456 2 
	-249.0565842345044985 -9.355125740739822504e-08 -33.82327457442702467 1 
	-249.0565842156952669 31.17691444268854539 -33.82327512431185568 0.5 
	-237.6458911581015059 15.58845673608775684 -58.29358509935916999 1 
	-226.235198100507688 -9.70512992637395655e-07 -82.76389507440654825 0.5 
	-237.6458911769107658 -15.58845780015204951 -58.29358454947429635 1 
	-249.0565842533138152 -31.17691462979108863 -33.82327402454210841 0.5 
	-249.0565842345044985 -9.355125740739822504e-08 -33.82327457442702467 1 
	0 
	null_surface 
	null_surface 
	nullbs 
	nullbs 
	I I 
	0 
	0 
	0 
	F 1 F 0 } I I #
point $-1 -249.0565842345044985 -9.355125740739822504e-08 -33.82327457442702467 #
intcurve-curve $-1 forward { exactcur full nurbs 2 periodic 4 
	0 2 20.78460969082652809 2 41.56921938165305619 2 62.35382907247958428 2 
	-246.3376608733945545 -7.282972802613585372e-08 -32.55541978920498281 1 
	-246.337660854585323 31.17691446341007122 -32.55542033908981381 0.5 
	-234.9269677969915335 15.58845675680930043 -57.02573031413714233 1 
	-223.5162747393976872 -9.497914774669879989e-07 -81.49604028918449217 0.5 
	-234.9269678158008219 -15.58845777943052013 -57.02572976425224027 1 
	-246.3376608922038713 -31.17691460906955569 -32.55541923932005233 0.5 
	-246.3376608733945545 -7.282972802613585372e-08 -32.55541978920498281 1 
	0 
	null_surface 
	null_surface 
	nullbs 
	nullbs 
	I I 
	0 
	0 
	0 
	F 1 F 0 } I I #
point $-1 -246.3376608733945545 -7.282972802613585372e-08 -32.55541978920498281 #
End-of-ACIS-data 