600 0 1 0           
81 GICL ACIS Healer - Source: /gicl/data5/repository/SDRC_I-DEAS/bmw/Part1.sat - 6 0 18 ACIS 6.0.3 Solaris 24 Sat Apr 13 23:14:11 2002 
1 9.999999999999999547e-07 1.000000000000000036e-10 
body $-1 $1 $-1 $-1 #
lump $-1 $-1 $2 $0 #
shell $-1 $-1 $-1 $3 $-1 $1 #
face $-1 $4 $5 $2 $-1 $6 forward single #
face $-1 $7 $8 $2 $-1 $9 forward single #
loop $-1 $-1 $10 $3 #
plane-surface $-1 -295.0000000319785158 -53.03301235964536176 33.03301253711100571 -1 6.028237305490623929e-10 3.988227983340943565e-15 3.988227983340943565e-15 -0 1 forward_v I I I I #
face $-1 $-1 $11 $2 $-1 $12 forward single #
loop $-1 $-1 $13 $4 #
plane-surface $-1 -65.00000003197854426 -53.03301249829491582 33.03301253711093466 1 -6.02823726502438071e-10 3.843408255151628027e-16 3.843408255151628027e-16 0 -1 forward_v I I I I #
coedge $-1 $10 $10 $14 $15 reversed $5 $-1 #
loop $-1 $-1 $14 $7 #
cone-surface $-1 -249.0000000319785158 -53.03301238737527967 33.03301253711099861 1 -6.02824082156208984e-10 -3.407989483479272877e-16 3.749534016606048681e-09 6.219964838209584457 -1.88733606213530436 1 I I 0 1 6.499999999999998224 forward I I I I #
coedge $-1 $13 $13 $16 $17 reversed $8 $-1 #
coedge $-1 $18 $19 $10 $15 forward $11 $-1 #
edge $-1 $20 0 $20 1 $10 $21 forward 7 unknown #
coedge $-1 $19 $18 $13 $17 forward $11 $-1 #
edge $-1 $22 0 $22 1 $13 $23 forward 7 unknown #
coedge $-1 $16 $14 $19 $24 reversed $11 $-1 #
coedge $-1 $14 $16 $18 $24 forward $11 $-1 #
vertex $-1 $15 $25 #
intcurve-curve $-1 forward { exactcur full nurbs 2 periodic 4 
	0 2 0.3333333333333329818 2 0.6666666666666669627 2 1 2 
	-295.0000000319821538 -53.03902782653422321 26.53301532063791157 1 
	-295.0000000251953338 -41.78070239854652357 26.52259622635514802 0.5 
	-295.0000000285833153 -47.40084191220708476 36.27780159820618167 1 
	-295.0000000319712399 -53.02098142586763174 46.03300697005722952 0.5 
	-295.0000000353700784 -58.65916734019479861 36.28822069248896298 1 
	-295.000000038768917 -64.29735325452190864 26.54343441492068223 0.5 
	-295.0000000319821538 -53.03902782653422321 26.53301532063791157 1 
	0 
	null_surface 
	null_surface 
	nullbs 
	nullbs 
	I I 
	0 
	0 
	0 
	F 1 F 0 } I I #
vertex $-1 $17 $26 #
intcurve-curve $-1 forward { exactcur full nurbs 2 periodic 4 
	0 2 0.3333333333333329818 2 0.6666666666666669627 2 1 2 
	-65.00000003198218224 -53.03902796518376306 26.53301532063783341 1 
	-65.00000003876891697 -64.29735339317144849 26.54343441492060407 0.5 
	-65.00000003537013527 -58.65916747884433846 36.28822069248888482 1 
	-65.00000003197123988 -53.02098156451717159 46.03300697005715136 0.5 
	-65.00000002858334369 -47.40084205085662461 36.27780159820610351 1 
	-65.00000002519533382 -41.78070253719606342 26.52259622635506986 0.5 
	-65.00000003198218224 -53.03902796518376306 26.53301532063783341 1 
	0 
	null_surface 
	null_surface 
	nullbs 
	nullbs 
	I I 
	0 
	0 
	0 
	F 1 F 0 } I I #
edge $-1 $22 0 $20 1 $19 $27 forward 7 unknown #
point $-1 -295.0000000319821538 -53.03902782653422321 26.53301532063791157 #
point $-1 -65.00000003198218224 -53.03902796518376306 26.53301532063783341 #
intcurve-curve $-1 forward { exactcur full nubs 1 open 2 
	0 1 1 1 
	-65.00000003198218224 -53.03902796518376306 26.53301532063783341 
	-295.0000000319821538 -53.03902782653422321 26.53301532063791157 
	0 
	null_surface 
	null_surface 
	nullbs 
	nullbs 
	I I 
	0 
	0 
	0 
	F 1 F 0 } I I #
End-of-ACIS-data 