600 0 2 0           
24 FBMach with ACIS - 6.0.3 13 ACIS 6.0.3 NT 24 Wed May 23 19:56:11 2001 
1 9.9999999999999995e-007 1e-010 
body $2 $3 $-1 $-1 #
bdycol-kcp $-1 1 1 $4 #
model_id-kcp-attrib $-1 $-1 $-1 $0 1 990662171 80 -1219493887 1 #
lump $-1 $-1 $5 $0 #
body $6 $7 $-1 $8 #
shell $-1 $-1 $-1 $9 $-1 $3 #
model_id-kcp-attrib $-1 $-1 $-1 $4 1 990662171 90 -1218838526 1 #
lump $-1 $-1 $10 $4 #
transform $-1 1 0 0 0 1 0 0 0 1 179.99999973866827 -54.485747811762899 -34.485695817561904 1 no_rotate no_reflect no_shear #
face $11 $12 $13 $5 $-1 $14 forward single #
shell $-1 $-1 $-1 $15 $-1 $7 #
model_id-kcp-attrib $-1 $-1 $-1 $9 1 990662171 80 -1219493887 2 #
face $16 $17 $18 $5 $-1 $19 forward single #
loop $-1 $-1 $20 $9 #
spline-surface $-1 forward { exactsur full nubs 1 1 open open none none 2 2 
	0 1 1 1 
	0 1 1 1 
	64.999999787229356 -43.381052792513771 -33.033008702984674 
	64.999999723671408 -53.033060229846569 -42.685016526914524 
	64.99999975366083 -53.033060616443635 -23.381001265651875 
	64.999999690102882 -62.685068053776433 -33.033009089581725 
	0 
	0 
	0 
	0 
	0 
	0 
	0 
	F 1 F 0 F 1 F 0 } I I I I #
face $-1 $21 $22 $10 $-1 $23 forward single #
model_id-kcp-attrib $-1 $-1 $-1 $12 1 990662171 80 -1219493887 3 #
face $24 $-1 $25 $5 $-1 $26 forward single #
loop $-1 $-1 $27 $12 #
spline-surface $-1 forward { exactsur full nubs 1 1 open open none none 2 2 
	0 1 1 1 
	0 1 1 1 
	294.99999969010287 -62.68506921100132 -33.033009446894418 
	294.99999972367141 -53.033061387071456 -42.685016884227217 
	294.9999997536608 -53.033061773668521 -23.381001622964568 
	294.99999978722929 -43.381053949738657 -33.033009060297367 
	0 
	0 
	0 
	0 
	0 
	0 
	0 
	F 1 F 0 F 1 F 0 } I I I I #
tcoedge-coedge $-1 $20 $20 $28 $29 reversed $13 $30 -1 0 #
face $-1 $31 $32 $10 $-1 $33 reversed single #
loop $-1 $-1 $34 $15 #
plane-surface $-1 0 0 11.104694551910026 0 0 1 1 0 0 forward_v I I I I #
model_id-kcp-attrib $-1 $-1 $-1 $17 1 990662171 80 -1219493887 4 #
loop $-1 $-1 $28 $17 #
spline-surface $-1 forward { exactsur full nurbs 2 1 both periodic open none none 4 2 
	0 2 0.33333333333333298 2 0.66666666666666696 2 1 2 
	0 1 3.4048862029131781 1 
	64.999999708400424 -57.629254408810738 -37.629203066042692 1 
	64.999999736087275 -49.66841258533546 -45.59004457065808 0.5 
	64.999999767642393 -46.754542518574652 -34.715332563711158 1 
	64.999999799197496 -43.840672451813845 -23.840620556764264 0.5 
	64.999999739955541 -54.715384342049902 -26.75449105909577 1 
	64.999999680713586 -65.590096232286015 -29.668361561427304 0.5 
	64.999999708400424 -57.629254408810738 -37.629203066042692 1 
	294.99999970840042 -57.629255566035624 -37.629203423355385 1 
	294.99999973608726 -49.668413742560347 -45.590044927970773 0.5 
	294.99999976764235 -46.754543675799539 -34.715332921023851 1 
	294.99999979919755 -43.840673609038731 -23.840620914076958 0.5 
	294.99999973995551 -54.715385499274788 -26.754491416408463 1 
	294.99999968071359 -65.590097389510902 -29.668361918739997 0.5 
	294.99999970840042 -57.629255566035624 -37.629203423355385 1 
	0 
	0 
	0 
	0 
	0 
	0 
	0 
	F 1 F 0 F 1 F 0 } I I I I #
tcoedge-coedge $-1 $27 $27 $35 $36 reversed $18 $37 -1 0 #
tcoedge-coedge $-1 $38 $39 $20 $29 forward $25 $40 0 1 #
tedge-edge $-1 $41 0 $41 1 $20 $42 forward 7 unknown 0.00034544150106366152 #
pcurve $-1 0 forward { exppc nubs 2 periodic 25 
	-1 2 -0.95833333333333337 2 -0.91666666666666674 2 -0.875 2 -0.83333333333333337 2 
	-0.79166666666666674 2 -0.75 2 -0.70833333333333337 2 -0.66666666666666674 2 -0.625 2 
	-0.58333333333333337 2 -0.54166666666666674 2 -0.5 2 -0.45833333333333337 2 -0.41666666666666669 2 
	-0.375 2 -0.33333333333333337 2 -0.29166666666666669 2 -0.25 2 -0.20833333333333331 2 
	-0.16666666666666663 2 -0.12499999999999997 2 -0.083333333333333315 2 -0.041666666666666657 2 0 2 
	0.97619047286351823 0.49999999999999895 
	0.97619047286351801 0.55498573953865393 
	0.96365914463026736 0.60852448593155861 
	0.94973544659332054 0.66801198192368183 
	0.92124541830234552 0.72205779429072958 
	0.89047618774809201 0.7804272716471421 
	0.84499513850316155 0.82823120030728736 
	0.79761904553970031 0.8780269593282638 
	0.73809523643176211 0.91239304653992293 
	0.67857142732381281 0.94675913375158838 
	0.6117589885291983 0.96289015427950742 
	0.54761904728635757 0.97837593398631229 
	0.48168498181294706 0.97583813062298919 
	0.42063492118941537 0.97348831269398617 
	0.36215538943425329 0.95580284091254863 
	0.30952381085460867 0.93988591630925522 
	0.26190476356825232 0.91239304653992392 
	0.21428571628189708 0.88490017677059329 
	0.17418546593549725 0.84727835498098725 
	0.12962963221727564 0.80547633077031411 
	0.097069599884725882 0.75378033633225794 
	0.061904764965572484 0.69794866233915775 
	0.04324587296765605 0.63465895397221672 
	0.023809527136492259 0.56873217442331703 
	0.023809527136492252 0.49999999999999689 
	0.023809527136492245 0.43126782557667576 
	0.043245872967655863 0.36534104602777551 
	0.061904764965570167 0.3020513376608408 
	0.097069599884725383 0.24621966366773684 
	0.12962963221726836 0.19452366922969061 
	0.17418546593549869 0.15272164501900917 
	0.21428571628190066 0.11509982322940088 
	0.26190476356825032 0.087606953460072925 
	0.30952381085460207 0.060114083690743787 
	0.3621553894342493 0.044197159087449568 
	0.42063492118941392 0.026511687306011215 
	0.48168498181295111 0.024161869377008243 
	0.54761904728635857 0.021624066013685508 
	0.61175898852920052 0.037109845720490975 
	0.67857142732382214 0.053240866248412011 
	0.73809523643176211 0.087606953460072925 
	0.79761904553969853 0.12197304067173192 
	0.84499513850316199 0.1717687996927113 
	0.89047618774809367 0.21957272835285863 
	0.92124541830234619 0.27794220570926892 
	0.94973544659332154 0.33198801807631712 
	0.96365914463026792 0.39147551406843867 
	0.97619047286351845 0.44501426046134274 
	0.97619047286351823 0.49999999999999895 
	0.001 
	spline forward { ref 0 } I I I I 
	} 0 0 #
face $-1 $43 $44 $10 $-1 $45 reversed single #
loop $-1 $-1 $46 $21 #
plane-surface $-1 0 0 -11.104694551910026 0 0 1 1 0 0 forward_v I I I I #
coedge $-1 $47 $48 $49 $50 forward $22 $-1 #
tcoedge-coedge $-1 $39 $38 $27 $36 forward $25 $51 0 1 #
tedge-edge $-1 $52 0 $52 1 $27 $53 forward 7 unknown 0.00034544150106914173 #
pcurve $-1 0 forward { exppc nubs 2 periodic 25 
	-1 2 -0.95833333333333337 2 -0.91666666666666674 2 -0.875 2 -0.83333333333333337 2 
	-0.79166666666666674 2 -0.75 2 -0.70833333333333337 2 -0.66666666666666674 2 -0.625 2 
	-0.58333333333333337 2 -0.54166666666666674 2 -0.5 2 -0.45833333333333337 2 -0.41666666666666669 2 
	-0.375 2 -0.33333333333333337 2 -0.29166666666666669 2 -0.25 2 -0.20833333333333331 2 
	-0.16666666666666663 2 -0.12499999999999997 2 -0.083333333333333315 2 -0.041666666666666657 2 0 2 
	0.500000000000001 0.02380952713648184 
	0.55498573953865571 0.023809527136482031 
	0.60852448593156094 0.036340855369732791 
	0.66801198192367939 0.050264553406678389 
	0.72205779429072958 0.078754581697654605 
	0.7804272716471421 0.1095238122519081 
	0.82823120030728914 0.1550048614968394 
	0.87802695932826957 0.2023809544603038 
	0.91239304653992703 0.26190476356823783 
	0.94675913375158827 0.32142857267617847 
	0.96289015427951041 0.38824101147080287 
	0.97837593398631517 0.45238095271364009 
	0.97583813062299241 0.51831501818705294 
	0.97348831269399017 0.57936507881057686 
	0.95580284091254997 0.63784461056574715 
	0.939885916309256 0.69047618914539366 
	0.91239304653992603 0.73809523643174757 
	0.88490017677059563 0.78571428371810237 
	0.8472783549809898 0.82581453406450167 
	0.80547633077030678 0.87037036778273391 
	0.75378033633226504 0.90293040011527415 
	0.69794866233916386 0.93809523503442793 
	0.63465895397222416 0.95675412703234397 
	0.56873217442332402 0.9761904728635078 
	0.50000000000000311 0.9761904728635078 
	0.43126782557668397 0.9761904728635078 
	0.36534104602778428 0.95675412703234419 
	0.30205133766084358 0.93809523503442804 
	0.24621966366774325 0.9029304001152747 
	0.19452366922968889 0.87037036778272625 
	0.15272164501901328 0.82581453406450189 
	0.11509982322940732 0.78571428371810215 
	0.087606953460078144 0.73809523643174968 
	0.060114083690751483 0.69047618914540143 
	0.044197159087456084 0.63784461056575059 
	0.026511687306012159 0.57936507881056776 
	0.024161869377009971 0.51831501818704928 
	0.021624066013687191 0.45238095271363826 
	0.037109845720492113 0.38824101147080087 
	0.053240866248413149 0.32142857267618147 
	0.087606953460076034 0.26190476356823783 
	0.12197304067173614 0.20238095446029919 
	0.17176879969271214 0.15500486149683834 
	0.21957272835285563 0.1095238122519097 
	0.27794220570927253 0.078754581697653731 
	0.33198801807631889 0.050264553406679333 
	0.39147551406844383 0.036340855369732188 
	0.44501426046134807 0.02380952713648166 
	0.500000000000001 0.02380952713648184 
	0.001 
	spline forward { ref 1 } I I I I 
	} 0 0 #
coedge $-1 $35 $28 $39 $54 reversed $25 $55 #
coedge $-1 $28 $35 $38 $54 forward $25 $56 #
pcurve $-1 0 forward { exppc nubs 2 periodic 25 
	0 2 0.041666666666666664 2 0.083333333333333329 2 0.125 2 0.16666666666666666 2 
	0.20833333333333331 2 0.25 2 0.29166666666666663 2 0.33333333333333331 2 0.375 2 
	0.41666666666666663 2 0.45833333333333331 2 0.5 2 0.54166666666666663 2 0.58333333333333326 2 
	0.625 2 0.66666666666666663 2 0.70833333333333326 2 0.75 2 0.79166666666666674 2 
	0.83333333333333337 2 0.875 2 0.91666666666666674 2 0.95833333333333337 2 1 2 
	0 0 
	0.022038567493113025 0 
	0.041666666666666796 0 
	0.063455657492354059 0 
	0.083333333333331996 0 
	0.10478547854788159 0 
	0.12500000000005221 0 
	0.14604810996566026 0 
	0.1666666666666651 0 
	0.18728522336767034 0 
	0.20833333333327869 0 
	0.2285478547854484 0 
	0.24999999999999692 0 
	0.26987767584097544 0 
	0.29166666666666347 0 
	0.31129476584021804 0 
	0.33333333333333204 0 
	0.35537190082644415 0 
	0.37499999999999756 0 
	0.39678899082568619 0 
	0.41666666666666513 0 
	0.43811881188121449 0 
	0.45833333333338483 0 
	0.47938144329899357 0 
	0.49999999999999906 0 
	0.52061855670100488 0 
	0.54166666666661401 0 
	0.56188118811878418 0 
	0.58333333333333315 0 
	0.60321100917431236 0 
	0.62500000000000133 0 
	0.64462809917355512 0 
	0.66666666666666796 0 
	0.68870523415978102 0 
	0.70833333333333481 0 
	0.73012232415902356 0 
	0.75000000000000255 0 
	0.77145214521455074 0 
	0.79166666666672025 0 
	0.81271477663232949 0 
	0.83333333333333537 0 
	0.85395189003434024 0 
	0.87499999999994826 0 
	0.89521452145211855 0 
	0.91666666666666763 0 
	0.93654434250764584 0 
	0.95833333333333348 0 
	0.97796143250688705 0 
	1 0 
	0.001 
	spline forward { ref 2 } I I I I 
	} 0 0 #
tvertex-vertex $-1 $29 $57 8.0388733884609289e-014 #
intcurve-curve $-1 forward { exactcur full nurbs 2 periodic 4 
	0 2 0.33333333333333298 2 0.66666666666666696 2 1 2 
	64.999999708400424 -57.629254408810795 -37.629203066042749 1 
	64.999999736087275 -49.668412585335545 -45.590044570658165 0.5 
	64.999999767642393 -46.754542518574709 -34.715332563711229 1 
	64.999999799197496 -43.840672451813845 -23.840620556764321 0.5 
	64.999999739955541 -54.71538434204993 -26.754491059095855 1 
	64.999999680713586 -65.590096232286072 -29.668361561427371 0.5 
	64.999999708400424 -57.629254408810795 -37.629203066042749 1 
	0 
	null_surface 
	null_surface 
	nullbs 
	nullbs 
	I I 
	0 
	0 
	0 
	F 1 F 0 } I I #
face $-1 $58 $59 $10 $-1 $60 reversed single #
loop $-1 $-1 $61 $31 #
plane-surface $-1 0 -11.104695019249128 0 0 1 0 0 0 1 forward_v I I I I #
coedge $-1 $62 $63 $64 $65 forward $32 $-1 #
coedge $-1 $66 $34 $67 $68 forward $22 $-1 #
coedge $-1 $34 $66 $69 $70 forward $22 $-1 #
coedge $-1 $71 $72 $34 $50 reversed $73 $-1 #
edge $-1 $74 -11.104695019249128 $75 11.104695019249128 $49 $76 forward 7 unknown #
pcurve $-1 0 forward { exppc nubs 2 periodic 25 
	0 2 0.041666666666666664 2 0.083333333333333329 2 0.125 2 0.16666666666666666 2 
	0.20833333333333331 2 0.25 2 0.29166666666666663 2 0.33333333333333331 2 0.375 2 
	0.41666666666666663 2 0.45833333333333331 2 0.5 2 0.54166666666666663 2 0.58333333333333326 2 
	0.625 2 0.66666666666666663 2 0.70833333333333326 2 0.75 2 0.79166666666666674 2 
	0.83333333333333337 2 0.875 2 0.91666666666666674 2 0.95833333333333337 2 1 2 
	1 3.4048862029131781 
	0.97796143250688794 3.4048862029131781 
	0.95833333333333492 3.4048862029131777 
	0.9365443425076464 3.4048862029131781 
	0.9166666666666673 3.4048862029131777 
	0.89521452145211855 3.4048862029131772 
	0.8749999999999486 3.4048862029131772 
	0.85395189003434058 3.4048862029131777 
	0.83333333333333537 3.4048862029131772 
	0.81271477663233016 3.4048862029131777 
	0.79166666666672192 3.4048862029131781 
	0.77145214521455163 3.4048862029131781 
	0.75000000000000255 3.4048862029131781 
	0.73012232415902467 3.4048862029131781 
	0.70833333333333748 3.4048862029131781 
	0.68870523415978258 3.4048862029131781 
	0.66666666666666796 3.4048862029131781 
	0.64462809917355512 3.4048862029131781 
	0.62500000000000122 3.4048862029131781 
	0.60321100917431236 3.4048862029131781 
	0.58333333333333315 3.4048862029131772 
	0.56188118811878418 3.4048862029131772 
	0.54166666666661401 3.4048862029131777 
	0.52061855670100488 3.4048862029131781 
	0.49999999999999906 3.4048862029131777 
	0.47938144329899351 3.4048862029131777 
	0.45833333333338472 3.4048862029131772 
	0.43811881188121449 3.4048862029131781 
	0.41666666666666535 3.4048862029131781 
	0.39678899082568664 3.4048862029131781 
	0.37499999999999839 3.4048862029131781 
	0.35537190082644465 3.4048862029131781 
	0.33333333333333204 3.4048862029131781 
	0.31129476584021887 3.4048862029131781 
	0.29166666666666496 3.4048862029131777 
	0.26987767584097666 3.4048862029131777 
	0.24999999999999786 3.4048862029131781 
	0.2285478547854492 3.4048862029131777 
	0.20833333333327939 3.4048862029131777 
	0.18728522336767095 3.4048862029131781 
	0.16666666666666563 3.4048862029131781 
	0.14604810996566026 3.4048862029131786 
	0.12500000000005163 3.4048862029131781 
	0.10478547854788109 3.4048862029131781 
	0.083333333333331622 3.4048862029131781 
	0.063455657492353712 3.4048862029131781 
	0.041666666666666408 3.4048862029131781 
	0.022038567493112792 3.4048862029131781 
	0 3.4048862029131781 
	0.001 
	spline forward { ref 2 } I I I I 
	} 0 0 #
tvertex-vertex $-1 $36 $77 8.0388733884609289e-014 #
intcurve-curve $-1 forward { exactcur full nurbs 2 periodic 4 
	0 2 0.33333333333333298 2 0.66666666666666696 2 1 2 
	294.99999970840042 -57.629255566035681 -37.629203423355442 1 
	294.99999968071359 -65.590097389510959 -29.668361918740068 0.5 
	294.99999973995551 -54.715385499274817 -26.754491416408548 1 
	294.99999979919755 -43.840673609038731 -23.840620914077014 0.5 
	294.99999976764235 -46.754543675799596 -34.715332921023922 1 
	294.99999973608726 -49.668413742560432 -45.590044927970858 0.5 
	294.99999970840042 -57.629255566035681 -37.629203423355442 1 
	0 
	null_surface 
	null_surface 
	nullbs 
	nullbs 
	I I 
	0 
	0 
	0 
	F 1 F 0 } I I #
edge $-1 $52 0 $41 1 $39 $78 forward 7 unknown #
pcurve $-1 0 forward { exppc nubs 2 open 7 
	-1 2 -0.83333333333333337 2 -0.66666666666666674 2 -0.5 2 -0.33333333333333337 2 
	-0.16666666666666663 2 0 2 
	1 0 
	1 0.28374051690943142 
	1 0.56748103381886283 
	1 0.85122155072829453 
	1 1.1349620676377261 
	1 1.4187025845471575 
	1 1.7024431014565891 
	1 1.9861836183660204 
	1 2.2699241352754518 
	1 2.5536646521848834 
	1 2.8374051690943154 
	1 3.1211456860037465 
	1 3.4048862029131781 
	0.001 
	spline forward { ref 2 } I I I I 
	} 0 0 #
pcurve $-1 0 forward { exppc nubs 2 open 7 
	0 2 0.16666666666666666 2 0.33333333333333331 2 0.5 2 0.66666666666666663 2 
	0.83333333333333337 2 1 2 
	0 3.4048862029131781 
	0 3.1211456860037465 
	0 2.8374051690943154 
	0 2.5536646521848843 
	0 2.2699241352754527 
	0 1.9861836183660209 
	0 1.7024431014565891 
	0 1.4187025845471577 
	0 1.1349620676377263 
	0 0.85122155072829453 
	0 0.56748103381886283 
	0 0.28374051690943142 
	0 0 
	0.001 
	spline forward { ref 2 } I I I I 
	} 0 0 #
point $-1 64.999999708400424 -57.629254408810795 -37.629203066042749 #
face $-1 $79 $80 $10 $-1 $81 reversed single #
loop $-1 $-1 $82 $43 #
plane-surface $-1 -115.00036612184456 0 0 1 0 0 0 0 -1 forward_v I I I I #
coedge $-1 $83 $69 $84 $85 forward $44 $-1 #
coedge $-1 $86 $46 $83 $87 forward $32 $-1 #
coedge $-1 $46 $86 $88 $89 forward $32 $-1 #
coedge $-1 $72 $71 $46 $65 reversed $73 $-1 #
edge $-1 $90 -11.104695019249128 $91 11.104695019249128 $64 $92 forward 7 unknown #
coedge $-1 $48 $47 $93 $94 forward $22 $-1 #
coedge $-1 $95 $96 $47 $68 reversed $80 $-1 #
edge $-1 $75 -115.00036612184456 $97 115.00036612184456 $67 $98 forward 7 unknown #
coedge $-1 $61 $99 $48 $70 reversed $44 $-1 #
edge $-1 $100 -115.00036612184456 $74 115.00036612184456 $69 $101 forward 7 unknown #
coedge $-1 $64 $49 $99 $102 forward $73 $-1 #
coedge $-1 $49 $64 $95 $103 reversed $73 $-1 #
loop $-1 $-1 $71 $79 #
vertex $-1 $50 $104 #
vertex $-1 $50 $105 #
straight-curve $-1 115.00036612184456 0 11.104694551910026 0 1 0 I I #
point $-1 294.99999970840042 -57.629255566035681 -37.629203423355442 #
intcurve-curve $-1 forward { exactcur full nubs 1 open 2 
	0 1 1 1 
	294.99999970840042 -57.629255566035681 -37.629203423355442 
	64.999999708400424 -57.629254408810795 -37.629203066042749 
	0 
	null_surface 
	null_surface 
	nullbs 
	nullbs 
	I I 
	0 
	0 
	0 
	F 1 F 0 } I I #
face $-1 $-1 $73 $10 $-1 $106 reversed single #
loop $-1 $-1 $95 $58 #
plane-surface $-1 0 11.104695019249128 0 0 -1 0 0 0 -1 forward_v I I I I #
coedge $-1 $107 $93 $96 $108 forward $59 $-1 #
coedge $-1 $99 $61 $62 $87 reversed $44 $-1 #
coedge $-1 $93 $107 $61 $85 reversed $59 $-1 #
edge $-1 $100 -11.104694551910026 $109 11.104694551910026 $84 $110 forward 7 unknown #
coedge $-1 $63 $62 $107 $111 forward $32 $-1 #
edge $-1 $91 -115.00036612184456 $109 115.00036612184456 $83 $112 forward 7 unknown #
coedge $-1 $96 $95 $63 $89 reversed $80 $-1 #
edge $-1 $113 -115.00036612184456 $90 115.00036612184456 $88 $114 forward 7 unknown #
vertex $-1 $65 $115 #
vertex $-1 $102 $116 #
straight-curve $-1 115.00036612184456 0 -11.104694551910026 0 -1 0 I I #
coedge $-1 $82 $84 $66 $94 reversed $59 $-1 #
edge $-1 $97 -11.104695019249128 $100 11.104695019249128 $93 $117 forward 7 unknown #
coedge $-1 $88 $67 $72 $103 forward $80 $-1 #
coedge $-1 $67 $88 $82 $108 reversed $80 $-1 #
vertex $-1 $68 $118 #
straight-curve $-1 0 11.104695019249128 11.104694551910026 -1 0 0 I I #
coedge $-1 $69 $83 $71 $102 reversed $44 $-1 #
vertex $-1 $94 $119 #
straight-curve $-1 0 -11.104695019249128 11.104694551910026 1 0 0 I I #
edge $-1 $74 -11.104694551910026 $91 11.104694551910026 $71 $120 forward 7 unknown #
edge $-1 $75 -11.104694551910026 $90 11.104694551910026 $72 $121 forward 7 unknown #
point $-1 115.00036612184456 -11.104695019249128 11.104694551910026 #
point $-1 115.00036612184456 11.104695019249128 11.104694551910026 #
plane-surface $-1 115.00036612184456 0 0 -1 0 0 0 0 1 forward_v I I I I #
coedge $-1 $84 $82 $86 $111 reversed $59 $-1 #
edge $-1 $97 -11.104694551910026 $113 11.104694551910026 $96 $122 forward 7 unknown #
vertex $-1 $111 $123 #
straight-curve $-1 -115.00036612184456 -11.104695019249128 0 0 0 -1 I I #
edge $-1 $109 -11.104695019249128 $113 11.104695019249128 $107 $124 forward 7 unknown #
straight-curve $-1 0 -11.104695019249128 -11.104694551910026 -1 0 0 I I #
vertex $-1 $89 $125 #
straight-curve $-1 0 11.104695019249128 -11.104694551910026 1 0 0 I I #
point $-1 115.00036612184456 11.104695019249128 -11.104694551910026 #
point $-1 115.00036612184456 -11.104695019249128 -11.104694551910026 #
straight-curve $-1 -115.00036612184456 0 11.104694551910026 0 -1 0 I I #
point $-1 -115.00036612184456 11.104695019249128 11.104694551910026 #
point $-1 -115.00036612184456 -11.104695019249128 11.104694551910026 #
straight-curve $-1 115.00036612184456 -11.104695019249128 0 0 0 -1 I I #
straight-curve $-1 115.00036612184456 11.104695019249128 0 0 0 -1 I I #
straight-curve $-1 -115.00036612184456 11.104695019249128 0 0 0 -1 I I #
point $-1 -115.00036612184456 -11.104695019249128 -11.104694551910026 #
straight-curve $-1 -115.00036612184456 0 -11.104694551910026 0 1 0 I I #
point $-1 -115.00036612184456 11.104695019249128 -11.104694551910026 #
End-of-ACIS-data 