600 0 1 0           
82 GICL ACIS Healer - Source: /gicl/data5/repository/SDRC_I-DEAS/bmw/Part39.sat - 6 0 18 ACIS 6.0.3 Solaris 24 Sat Apr 13 23:15:58 2002 
1 9.999999999999999547e-07 1.000000000000000036e-10 
body $-1 $1 $-1 $-1 #
lump $-1 $-1 $2 $0 #
shell $-1 $-1 $-1 $3 $-1 $1 #
face $-1 $4 $5 $2 $-1 $6 forward single #
face $-1 $7 $8 $2 $-1 $9 forward single #
loop $-1 $-1 $10 $3 #
plane-surface $-1 -359.0000000401265652 -66.50796230198643855 -45.29586109553947892 6.024402016587300846e-10 0.9985521015971721148 -0.05379312591652167519 -0 0.05379312591652168213 0.9985521015971722258 forward_v I I I I #
face $-1 $11 $12 $2 $-1 $13 forward single #
loop $-1 $-1 $14 $4 #
plane-surface $-1 -359.0000000416287094 -68.99775640661893306 -40.39168682084880402 3.293221300770576983e-10 0.5458622643912715011 0.8378749240272282961 1 0 -3.930444994035359904e-10 forward_v I I I I #
coedge $-1 $15 $16 $17 $18 reversed $5 $-1 #
face $-1 $19 $20 $2 $-1 $21 forward single #
loop $-1 $-1 $22 $7 #
plane-surface $-1 -359.0000000449421123 -74.48979296540338169 -40.09582462830789495 -2.731175991930755868e-10 -0.4526898372059073306 0.8916680499437497076 1 -0 3.062996360700655467e-10 forward_v I I I I #
coedge $-1 $23 $24 $25 $26 reversed $8 $-1 #
coedge $-1 $27 $10 $24 $28 reversed $5 $-1 #
coedge $-1 $10 $27 $29 $30 forward $5 $-1 #
coedge $-1 $31 $25 $10 $18 forward $32 $-1 #
edge $-1 $33 0 $34 1 $10 $35 forward 7 unknown #
face $-1 $36 $37 $2 $-1 $38 forward single #
loop $-1 $-1 $39 $11 #
plane-surface $-1 -359.000000046753371 -77.49203541955530739 -44.70413671045771764 -6.024400742510140768e-10 -0.9985521015971723369 0.05379312591652084252 0 -0.05379312591652084252 -0.9985521015971723369 forward_v I I I I #
coedge $-1 $40 $41 $42 $43 reversed $12 $-1 #
coedge $-1 $44 $14 $41 $45 reversed $8 $-1 #
coedge $-1 $14 $44 $15 $28 forward $8 $-1 #
coedge $-1 $17 $42 $14 $26 forward $32 $-1 #
edge $-1 $46 0 $33 1 $14 $47 forward 7 unknown #
coedge $-1 $16 $15 $48 $49 forward $5 $-1 #
edge $-1 $50 0 $33 1 $15 $51 forward 7 unknown #
coedge $-1 $52 $53 $16 $30 reversed $54 $-1 #
edge $-1 $55 0 $34 1 $16 $56 forward 7 unknown #
coedge $-1 $57 $17 $53 $58 forward $32 $-1 #
loop $-1 $-1 $57 $36 #
vertex $-1 $18 $59 #
vertex $-1 $18 $60 #
intcurve-curve $-1 forward { exactcur full nubs 1 open 2 
	0 1 1 1 
	-362.0000000400235081 -66.3371461836699865 -42.12503230992601999 
	-362.0000000402295655 -66.67877841668300221 -48.46668988115296628 
	0 
	null_surface 
	null_surface 
	nullbs 
	nullbs 
	I I 
	0 
	0 
	0 
	F 1 F 0 } I I #
face $-1 $61 $32 $2 $-1 $62 forward single #
loop $-1 $-1 $63 $19 #
plane-surface $-1 -359.0000000452512268 -75.00224131492282709 -49.60831098514842097 -3.293260990499943748e-10 -0.5458622643912688366 -0.8378749240272300725 -1 0 3.930492363551049671e-10 forward_v I I I I #
coedge $-1 $64 $65 $66 $67 reversed $20 $-1 #
coedge $-1 $68 $22 $65 $69 reversed $12 $-1 #
coedge $-1 $22 $68 $23 $45 forward $12 $-1 #
coedge $-1 $25 $66 $22 $43 forward $32 $-1 #
edge $-1 $70 0 $46 1 $22 $71 forward 7 unknown #
coedge $-1 $24 $23 $72 $73 forward $8 $-1 #
edge $-1 $74 0 $46 1 $23 $75 forward 7 unknown #
vertex $-1 $26 $76 #
intcurve-curve $-1 forward { exactcur full nubs 1 open 2 
	0 1 1 1 
	-362.0000000432339107 -71.65836662594800544 -38.65834133177161647 
	-362.0000000400235081 -66.3371461836699865 -42.12503230992601999 
	0 
	null_surface 
	null_surface 
	nullbs 
	nullbs 
	I I 
	0 
	0 
	0 
	F 1 F 0 } I I #
coedge $-1 $72 $77 $27 $49 reversed $78 $-1 #
edge $-1 $50 0 $55 1 $27 $79 forward 7 unknown #
vertex $-1 $49 $80 #
intcurve-curve $-1 forward { exactcur full nubs 1 open 2 
	0 1 1 1 
	-356.0000000400235081 -66.33714618728987489 -42.12503230992599157 
	-362.0000000400235081 -66.3371461836699865 -42.12503230992601999 
	0 
	null_surface 
	null_surface 
	nullbs 
	nullbs 
	I I 
	0 
	0 
	0 
	F 1 F 0 } I I #
coedge $-1 $81 $29 $77 $82 forward $54 $-1 #
coedge $-1 $29 $81 $31 $58 reversed $54 $-1 #
loop $-1 $-1 $53 $61 #
vertex $-1 $30 $83 #
intcurve-curve $-1 forward { exactcur full nubs 1 open 2 
	0 1 1 1 
	-356.0000000402295655 -66.67877842030287638 -48.46668988115295207 
	-362.0000000402295655 -66.67877841668300221 -48.46668988115296628 
	0 
	null_surface 
	null_surface 
	nullbs 
	nullbs 
	I I 
	0 
	0 
	0 
	F 1 F 0 } I I #
coedge $-1 $66 $31 $63 $84 reversed $32 $-1 #
edge $-1 $34 0 $85 1 $31 $86 forward 7 unknown #
point $-1 -362.0000000400235081 -66.3371461836699865 -42.12503230992601999 #
point $-1 -362.0000000402295655 -66.67877841668300221 -48.46668988115296628 #
face $-1 $87 $54 $2 $-1 $88 forward single #
plane-surface $-1 -362.0000000434400249 -72.00000175398461977 -44.99999874704042924 -1 6.03312603557025278e-10 -1.069900816086802134e-14 -1.069900816086802134e-14 0 1 forward_v I I I I #
coedge $-1 $89 $90 $57 $84 forward $37 $-1 #
coedge $-1 $91 $39 $90 $92 reversed $20 $-1 #
coedge $-1 $39 $91 $40 $69 forward $20 $-1 #
coedge $-1 $42 $57 $39 $67 forward $32 $-1 #
edge $-1 $93 0 $70 1 $39 $94 forward 7 unknown #
coedge $-1 $41 $40 $95 $96 forward $12 $-1 #
edge $-1 $97 0 $70 1 $40 $98 forward 7 unknown #
vertex $-1 $43 $99 #
intcurve-curve $-1 forward { exactcur full nubs 1 open 2 
	0 1 1 1 
	-362.0000000466503707 -77.32121930123886955 -41.53330792484420186 
	-362.0000000432339107 -71.65836662594800544 -38.65834133177161647 
	0 
	null_surface 
	null_surface 
	nullbs 
	nullbs 
	I I 
	0 
	0 
	0 
	F 1 F 0 } I I #
coedge $-1 $95 $48 $44 $73 reversed $78 $-1 #
edge $-1 $74 0 $50 1 $44 $100 forward 7 unknown #
vertex $-1 $73 $101 #
intcurve-curve $-1 forward { exactcur full nubs 1 open 2 
	0 1 1 1 
	-356.0000000432339107 -71.65836662956787961 -38.65834133177158805 
	-362.0000000432339107 -71.65836662594800544 -38.65834133177161647 
	0 
	null_surface 
	null_surface 
	nullbs 
	nullbs 
	I I 
	0 
	0 
	0 
	F 1 F 0 } I I #
point $-1 -362.0000000432339107 -71.65836662594800544 -38.65834133177161647 #
coedge $-1 $48 $102 $52 $82 reversed $78 $-1 #
loop $-1 $-1 $77 $103 #
intcurve-curve $-1 forward { exactcur full nubs 1 open 2 
	0 1 1 1 
	-356.0000000400235081 -66.33714618728987489 -42.12503230992599157 
	-356.0000000402295655 -66.67877842030287638 -48.46668988115295207 
	0 
	null_surface 
	null_surface 
	nullbs 
	nullbs 
	I I 
	0 
	0 
	0 
	F 1 F 0 } I I #
point $-1 -356.0000000400235081 -66.33714618728987489 -42.12503230992599157 #
coedge $-1 $53 $52 $89 $104 reversed $54 $-1 #
edge $-1 $55 0 $105 1 $52 $106 forward 7 unknown #
point $-1 -356.0000000402295655 -66.67877842030287638 -48.46668988115295207 #
edge $-1 $93 0 $85 1 $63 $107 forward 7 unknown #
vertex $-1 $84 $108 #
intcurve-curve $-1 forward { exactcur full nubs 1 open 2 
	0 1 1 1 
	-362.0000000402295655 -66.67877841668300221 -48.46668988115296628 
	-362.0000000436460823 -72.34163109197389474 -51.34165647422560852 
	0 
	null_surface 
	null_surface 
	nullbs 
	nullbs 
	I I 
	0 
	0 
	0 
	F 1 F 0 } I I #
face $-1 $109 $110 $2 $-1 $111 forward single #
plane-surface $-1 -359.0000000419378239 -69.51020475613839267 -49.90417317768928029 2.73115487298893412e-10 0.4526898372059125486 -0.891668049943746821 -1 0 -3.06297267594284212e-10 forward_v I I I I #
coedge $-1 $112 $63 $81 $104 forward $37 $-1 #
coedge $-1 $63 $112 $64 $92 forward $37 $-1 #
coedge $-1 $65 $64 $113 $114 forward $20 $-1 #
edge $-1 $115 0 $93 1 $64 $116 forward 7 unknown #
vertex $-1 $67 $117 #
intcurve-curve $-1 forward { exactcur full nubs 1 open 2 
	0 1 1 1 
	-362.0000000468563712 -77.66285153425187104 -47.87496549607123342 
	-362.0000000466503707 -77.32121930123886955 -41.53330792484420186 
	0 
	null_surface 
	null_surface 
	nullbs 
	nullbs 
	I I 
	0 
	0 
	0 
	F 1 F 0 } I I #
coedge $-1 $113 $72 $68 $96 reversed $78 $-1 #
edge $-1 $97 0 $74 1 $68 $118 forward 7 unknown #
vertex $-1 $96 $119 #
intcurve-curve $-1 forward { exactcur full nubs 1 open 2 
	0 1 1 1 
	-356.0000000466503707 -77.32121930485874373 -41.53330792484417344 
	-362.0000000466503707 -77.32121930123886955 -41.53330792484420186 
	0 
	null_surface 
	null_surface 
	nullbs 
	nullbs 
	I I 
	0 
	0 
	0 
	F 1 F 0 } I I #
point $-1 -362.0000000466503707 -77.32121930123886955 -41.53330792484420186 #
intcurve-curve $-1 forward { exactcur full nubs 1 open 2 
	0 1 1 1 
	-356.0000000432339107 -71.65836662956787961 -38.65834133177158805 
	-356.0000000400235081 -66.33714618728987489 -42.12503230992599157 
	0 
	null_surface 
	null_surface 
	nullbs 
	nullbs 
	I I 
	0 
	0 
	0 
	F 1 F 0 } I I #
point $-1 -356.0000000432339107 -71.65836662956787961 -38.65834133177158805 #
coedge $-1 $77 $113 $112 $120 reversed $78 $-1 #
face $-1 $-1 $121 $2 $-1 $122 forward single #
edge $-1 $85 0 $105 1 $89 $123 forward 7 unknown #
vertex $-1 $120 $124 #
intcurve-curve $-1 forward { exactcur full nubs 1 open 2 
	0 1 1 1 
	-356.0000000402295655 -66.67877842030287638 -48.46668988115295207 
	-356.0000000436460823 -72.34163109559376892 -51.34165647422559431 
	0 
	null_surface 
	null_surface 
	nullbs 
	nullbs 
	I I 
	0 
	0 
	0 
	F 1 F 0 } I I #
intcurve-curve $-1 forward { exactcur full nubs 1 open 2 
	0 1 1 1 
	-362.0000000468563712 -77.66285153425187104 -47.87496549607123342 
	-362.0000000436460823 -72.34163109197389474 -51.34165647422560852 
	0 
	null_surface 
	null_surface 
	nullbs 
	nullbs 
	I I 
	0 
	0 
	0 
	F 1 F 0 } I I #
point $-1 -362.0000000436460823 -72.34163109197389474 -51.34165647422560852 #
face $-1 $125 $126 $2 $-1 $127 forward single #
loop $-1 $-1 $128 $87 #
plane-surface $-1 -281.0000000434399112 -71.99999995832958177 -44.99999913356457171 1 -6.033187951294018081e-10 6.290000541277835502e-15 6.290000541277835502e-15 0 -1 forward_v I I I I #
coedge $-1 $90 $89 $102 $120 forward $37 $-1 #
coedge $-1 $102 $95 $91 $114 reversed $78 $-1 #
edge $-1 $115 0 $97 1 $91 $129 forward 7 unknown #
vertex $-1 $114 $130 #
intcurve-curve $-1 forward { exactcur full nubs 1 open 2 
	0 1 1 1 
	-356.0000000468563712 -77.66285153787175943 -47.87496549607124763 
	-362.0000000468563712 -77.66285153425187104 -47.87496549607123342 
	0 
	null_surface 
	null_surface 
	nullbs 
	nullbs 
	I I 
	0 
	0 
	0 
	F 1 F 0 } I I #
point $-1 -362.0000000468563712 -77.66285153425187104 -47.87496549607123342 #
intcurve-curve $-1 forward { exactcur full nubs 1 open 2 
	0 1 1 1 
	-356.0000000466503707 -77.32121930485874373 -41.53330792484417344 
	-356.0000000432339107 -71.65836662956787961 -38.65834133177158805 
	0 
	null_surface 
	null_surface 
	nullbs 
	nullbs 
	I I 
	0 
	0 
	0 
	F 1 F 0 } I I #
point $-1 -356.0000000466503707 -77.32121930485874373 -41.53330792484417344 #
edge $-1 $105 0 $115 1 $112 $131 forward 7 unknown #
loop $-1 $78 $132 $103 #
plane-surface $-1 -356.0000000434399681 -72.00000022616114848 -44.99999873009908669 -1 6.033089745490222075e-10 -3.868188902155683563e-15 -3.868188902155683563e-15 0 1 forward_v I I I I #
intcurve-curve $-1 forward { exactcur full nubs 1 open 2 
	0 1 1 1 
	-362.0000000436460823 -72.34163109197389474 -51.34165647422560852 
	-356.0000000436460823 -72.34163109559376892 -51.34165647422559431 
	0 
	null_surface 
	null_surface 
	nullbs 
	nullbs 
	I I 
	0 
	0 
	0 
	F 1 F 0 } I I #
point $-1 -356.0000000436460823 -72.34163109559376892 -51.34165647422559431 #
face $-1 $133 $134 $2 $-1 $135 forward single #
loop $-1 $-1 $136 $109 #
cone-surface $-1 -339.4000000437725362 -72.0000002361762057 -44.99999873009904405 1 -6.033137599233281713e-10 4.691574555129238883e-15 2.26901875066687353e-09 3.76091348087464894 -1.362178325101183418 1 I I 0 1 4.000000000000016875 forward I I I I #
coedge $-1 $128 $128 $137 $138 reversed $110 $-1 #
intcurve-curve $-1 forward { exactcur full nubs 1 open 2 
	0 1 1 1 
	-356.0000000468563712 -77.66285153787175943 -47.87496549607124763 
	-356.0000000466503707 -77.32121930485874373 -41.53330792484417344 
	0 
	null_surface 
	null_surface 
	nullbs 
	nullbs 
	I I 
	0 
	0 
	0 
	F 1 F 0 } I I #
point $-1 -356.0000000468563712 -77.66285153787175943 -47.87496549607124763 #
intcurve-curve $-1 forward { exactcur full nubs 1 open 2 
	0 1 1 1 
	-356.0000000436460823 -72.34163109559376892 -51.34165647422559431 
	-356.0000000468563712 -77.66285153787175943 -47.87496549607124763 
	0 
	null_surface 
	null_surface 
	nullbs 
	nullbs 
	I I 
	0 
	0 
	0 
	F 1 F 0 } I I #
coedge $-1 $132 $132 $139 $140 reversed $121 $-1 #
face $-1 $103 $141 $2 $-1 $142 forward single #
loop $-1 $143 $144 $125 #
plane-surface $-1 -354.0000000434400249 -72.00000022736780636 -44.99999873009907958 1 -6.033127413358270643e-10 4.071109948396738828e-15 4.071109948396738828e-15 0 -1 forward_v I I I I #
coedge $-1 $145 $146 $147 $148 forward $126 $-1 #
coedge $-1 $146 $145 $128 $138 forward $126 $-1 #
edge $-1 $149 0 $149 1 $128 $150 forward 7 unknown #
coedge $-1 $151 $152 $132 $140 forward $141 $-1 #
edge $-1 $153 0 $153 1 $139 $154 forward 7 unknown #
loop $-1 $-1 $139 $133 #
cone-surface $-1 -355.600000043439934 -72.00000022640250563 -44.99999873009908669 1 -6.0330640097849919e-10 1.886568803917805136e-15 4.254331997799454257e-09 7.051712776639917024 -2.554084359564775752 1 I I 0 1 7.500000000000003553 forward I I I I #
loop $-1 $-1 $147 $125 #
coedge $-1 $144 $144 $155 $156 reversed $134 $-1 #
coedge $-1 $137 $136 $146 $157 reversed $126 $-1 #
coedge $-1 $136 $137 $145 $157 forward $126 $-1 #
coedge $-1 $147 $147 $136 $148 reversed $143 $-1 #
edge $-1 $158 0 $158 1 $136 $159 forward 7 unknown #
vertex $-1 $138 $160 #
intcurve-curve $-1 forward { exactcur full nurbs 2 periodic 4 
	0 2 0.3333333333333329818 2 0.6666666666666669627 2 1 2 
	-281.0000000435696847 -72.21517277507577148 -48.99420713648741099 1 
	-281.0000000477435265 -79.13334467095970126 -48.62151742774597807 0.5 
	-281.0000000454618885 -75.35149996751860613 -42.81654967253366095 1 
	-281.0000000431803073 -71.5696552640775252 -37.01158191732135805 0.5 
	-281.0000000412880468 -68.43332807163471898 -43.1892393812751223 1 
	-281.000000039395843 -65.29700087919181328 -49.36689684522887944 0.5 
	-281.0000000435696847 -72.21517277507577148 -48.99420713648741099 1 
	0 
	null_surface 
	null_surface 
	nullbs 
	nullbs 
	I I 
	0 
	0 
	0 
	F 1 F 0 } I I #
coedge $-1 $155 $139 $152 $161 reversed $141 $-1 #
coedge $-1 $139 $155 $151 $161 forward $141 $-1 #
vertex $-1 $140 $162 #
intcurve-curve $-1 forward { exactcur full nurbs 2 periodic 4 
	0 2 0.3333333333333329818 2 0.6666666666666669627 2 1 2 
	-356.0000000436833716 -72.40344867053504174 -52.4891394920778751 1 
	-356.0000000358573971 -59.43187636575272847 -53.18793269596810802 0.5 
	-356.0000000394053359 -65.31248985158302389 -41.60482495105480183 1 
	-356.0000000429532179 -71.19310333741334773 -30.02171720614149564 0.5 
	-356.0000000472312536 -78.28406215636542242 -40.9060317471645547 1 
	-356.0000000515093461 -85.37502097531739764 -51.79034628818764219 0.5 
	-356.0000000436833716 -72.40344867053504174 -52.4891394920778751 1 
	0 
	null_surface 
	null_surface 
	nullbs 
	nullbs 
	I I 
	0 
	0 
	0 
	F 1 F 0 } I I #
coedge $-1 $152 $151 $144 $156 forward $141 $-1 #
edge $-1 $163 0 $163 1 $144 $164 forward 7 unknown #
edge $-1 $149 0 $158 0.9733333333333330506 $146 $165 forward 7 unknown #
vertex $-1 $148 $166 #
intcurve-curve $-1 forward { exactcur full nurbs 2 periodic 4 
	0 2 0.3333333333333329818 2 0.6666666666666669627 2 1 2 
	-354.0000000435697984 -72.21517273103384582 -48.99420713648778047 1 
	-354.0000000393959567 -65.29700083514983078 -49.36689684522924182 0.5 
	-354.0000000412881604 -68.43332802759272226 -43.18923938127540652 1 
	-354.0000000431803073 -71.56965522003557112 -37.01158191732157121 0.5 
	-354.0000000454620022 -75.35149992347668046 -42.81654967253393096 1 
	-354.0000000477435265 -79.13334462691787508 -48.62151742774626939 0.5 
	-354.0000000435697984 -72.21517273103384582 -48.99420713648778047 1 
	0 
	null_surface 
	null_surface 
	nullbs 
	nullbs 
	I I 
	0 
	0 
	0 
	F 1 F 0 } I I #
point $-1 -281.0000000435696847 -72.21517277507577148 -48.99420713648741099 #
edge $-1 $163 0 $153 1 $152 $167 forward 7 unknown #
point $-1 -356.0000000436833716 -72.40344867053504174 -52.4891394920778751 #
vertex $-1 $156 $168 #
intcurve-curve $-1 forward { exactcur full nurbs 2 periodic 4 
	0 2 0.3333333333333329818 2 0.6666666666666669627 2 1 2 
	-354.0000000436833716 -72.40344867174165699 -52.48913949207788932 1 
	-354.0000000515092893 -85.37502097652402711 -51.79034628818760666 0.5 
	-354.0000000472312536 -78.28406215757203768 -40.9060317471645547 1 
	-354.0000000429532179 -71.19310333861996298 -30.02171720614148143 0.5 
	-354.0000000394053359 -65.31248985278963914 -41.60482495105480183 1 
	-354.0000000358573971 -59.43187636695934373 -53.18793269596810092 0.5 
	-354.0000000436833716 -72.40344867174165699 -52.48913949207788932 1 
	0 
	null_surface 
	null_surface 
	nullbs 
	nullbs 
	I I 
	0 
	0 
	0 
	F 1 F 0 } I I #
intcurve-curve $-1 forward { exactcur full nubs 1 open 2 
	0 1 0.9733333333333330506 1 
	-281.0000000435696847 -72.21517277507577148 -48.99420713648741099 
	-354.0000000435697984 -72.21517273103384582 -48.99420713648778047 
	0 
	null_surface 
	null_surface 
	nullbs 
	nullbs 
	I I 
	0 
	0 
	0 
	F 1 F 0 } I I #
point $-1 -354.0000000435697984 -72.21517273103384582 -48.99420713648778047 #
intcurve-curve $-1 forward { exactcur full nubs 1 open 2 
	0 1 1 1 
	-354.0000000436833716 -72.40344867174165699 -52.48913949207788932 
	-356.0000000436833716 -72.40344867053504174 -52.4891394920778751 
	0 
	null_surface 
	null_surface 
	nullbs 
	nullbs 
	I I 
	0 
	0 
	0 
	F 1 F 0 } I I #
point $-1 -354.0000000436833716 -72.40344867174165699 -52.48913949207788932 #
End-of-ACIS-data 