600 0 1 0           
82 GICL ACIS Healer - Source: /gicl/data5/repository/SDRC_I-DEAS/bmw/Part34.sat - 6 0 18 ACIS 6.0.3 Solaris 24 Sat Apr 13 23:15:52 2002 
1 9.999999999999999547e-07 1.000000000000000036e-10 
body $-1 $1 $-1 $-1 #
lump $-1 $-1 $2 $0 #
shell $-1 $-1 $-1 $3 $-1 $1 #
face $-1 $4 $5 $2 $-1 $6 reversed single #
face $-1 $7 $8 $2 $-1 $9 reversed single #
loop $-1 $-1 $10 $3 #
plane-surface $-1 -322.1277733446610227 7.323691887276090995 -100.7276535783270646 0.3347038706432508559 -0.6105511586102625454 -0.7177747569370854785 -0.9063077847862582859 0 -0.4226182665666798344 forward_v I I I I #
face $-1 $11 $12 $2 $-1 $13 reversed single #
loop $-1 $-1 $14 $4 #
cone-surface $-1 -323.4665888313224968 9.765896494022539898 -97.85655452892768835 0.3347038706432385879 -0.6105511586102672084 -0.7177747569370871439 0.8304272871786224641 0.3068691354161945384 0.1262066132318722111 1 I I 0 1 0.8942629673565759552 forward I I I I #
coedge $-1 $10 $10 $15 $16 forward $5 $-1 #
face $-1 $17 $18 $2 $-1 $19 reversed single #
loop $-1 $-1 $20 $7 #
plane-surface $-1 -325.131454529211112 -13.02256102170005114 -84.82143166405253965 0.3347038706432443611 -0.6105511586102766453 -0.7177747569370765968 -0.9063077847862595071 0 -0.4226182665666774474 forward_v I I I I #
coedge $-1 $21 $22 $23 $24 reversed $8 $-1 #
coedge $-1 $22 $21 $10 $16 reversed $8 $-1 #
edge $-1 $25 0 $25 1 $10 $26 forward 7 unknown #
face $-1 $27 $28 $2 $-1 $29 forward single #
loop $-1 $-1 $30 $11 #
cone-surface $-1 -326.4702700621322151 -10.58035636665658252 -81.95033267730666182 0.3347038706432372557 -0.6105511586102700949 -0.7177747569370853675 0.1363237915760464602 -0.6076204014134276576 0.5804208587067876124 1 I I 0 1 0.8512785099985838988 forward I I I I #
coedge $-1 $20 $20 $31 $32 forward $12 $-1 #
coedge $-1 $15 $14 $22 $33 forward $8 $-1 #
coedge $-1 $14 $15 $21 $33 reversed $8 $-1 #
coedge $-1 $23 $23 $14 $24 forward $34 $-1 #
edge $-1 $35 0 $35 1 $14 $36 forward 7 unknown #
vertex $-1 $16 $37 #
intcurve-curve $-1 forward { exactcur full nurbs 2 periodic 4 
	0 2 0.3333333333333329818 2 0.6666666666666669627 2 1 2 
	-322.0244625452704668 8.023495723342172425 -101.2747437548477194 1 
	-323.4730253107235853 7.834772645035224414 -101.789688682595326 0.5 
	-322.9037101332157818 6.879428388547658813 -100.7115809214640763 1 
	-322.3343949557078076 5.924084132060151831 -99.63347316033281231 0.5 
	-321.4551473677624926 7.068151466854665443 -100.196635993716427 1 
	-320.5758997798172345 8.212218801649152411 -100.7597988271000276 0.5 
	-322.0244625452704668 8.023495723342172425 -101.2747437548477194 1 
	0 
	null_surface 
	null_surface 
	nullbs 
	nullbs 
	I I 
	0 
	0 
	0 
	F 1 F 0 } I I #
face $-1 $38 $39 $2 $-1 $40 forward single #
loop $-1 $41 $42 $17 #
plane-surface $-1 -326.8049743941306815 -9.969808333161253699 -81.23255547722826009 -0.3347038706432343691 0.6105511586102714272 0.7177747569370854785 0.9063077847862662795 -0 0.4226182665666627369 forward_v I I I I #
coedge $-1 $43 $44 $45 $46 reversed $18 $-1 #
coedge $-1 $44 $43 $20 $32 reversed $18 $-1 #
edge $-1 $47 0 $47 1 $20 $48 forward 7 unknown #
edge $-1 $35 0 $25 1 $22 $49 forward 7 unknown #
loop $-1 $-1 $23 $38 #
vertex $-1 $24 $50 #
intcurve-curve $-1 forward { exactcur full nurbs 2 periodic 4 
	0 2 0.3333333333333329818 2 0.6666666666666669627 2 1 2 
	-323.6979818984866597 11.07625151639351913 -97.68586997016228679 1 
	-322.2494191330334274 11.26497459470051332 -97.17092504241459494 0.5 
	-323.1286667209786856 10.12090725990598372 -96.60776220903099443 1 
	-324.0079143089240006 8.97683992511148432 -96.0445993756473797 0.5 
	-324.5772294864319178 9.932184181599033934 -97.12270713677864364 1 
	-325.1465446639398351 10.88752843808656934 -98.2008148979099218 0.5 
	-323.6979818984866597 11.07625151639351913 -97.68586997016228679 1 
	0 
	null_surface 
	null_surface 
	nullbs 
	nullbs 
	I I 
	0 
	0 
	0 
	F 1 F 0 } I I #
point $-1 -322.0244625452704668 8.023495723342172425 -101.2747437548477194 #
face $-1 $-1 $51 $2 $-1 $52 forward single #
loop $-1 $-1 $53 $27 #
torus-surface $-1 -325.303133317370623 0.203321222293222803 -89.18566884618012125 -0.9352149570105262599 -0.1218425944494860858 -0.3324565631200827598 12.9999999999999627 2.000000000000030198 -0.3347038706432368671 0.6105511586102684296 0.7177747569370870329 forward_v I I I I #
loop $-1 $-1 $45 $17 #
coedge $-1 $42 $42 $53 $54 reversed $28 $-1 #
coedge $-1 $31 $30 $44 $55 forward $18 $-1 #
coedge $-1 $30 $31 $43 $55 reversed $18 $-1 #
coedge $-1 $45 $45 $30 $46 forward $41 $-1 #
edge $-1 $56 0 $56 1 $30 $57 forward 7 unknown #
vertex $-1 $32 $58 #
intcurve-curve $-1 forward { exactcur full nurbs 2 periodic 4 
	0 2 0.3333333333333329818 2 0.6666666666666669627 2 1 2 
	-324.33532618442689 -12.91883901884031616 -84.53841857736290422 1 
	-324.164987695542834 -11.76500487319547794 -85.44045896908886562 0.5 
	-325.444349532683475 -12.49750491940391584 -85.41395846476407883 1 
	-326.7237113698239455 -13.230004965612288 -85.38745796043923519 0.5 
	-325.6146880215674742 -13.65133906504872385 -84.51191807303808901 1 
	-324.5056646733110028 -14.07267316448512595 -83.63637818563694282 0.5 
	-324.33532618442689 -12.91883901884031616 -84.53841857736290422 1 
	0 
	null_surface 
	null_surface 
	nullbs 
	nullbs 
	I I 
	0 
	0 
	0 
	F 1 F 0 } I I #
intcurve-curve $-1 forward { exactcur full nubs 1 open 2 
	0 1 1 1 
	-323.6979818984866597 11.07625151639351913 -97.68586997016228679 
	-322.0244625452704668 8.023495723342172425 -101.2747437548477194 
	0 
	null_surface 
	null_surface 
	nullbs 
	nullbs 
	I I 
	0 
	0 
	0 
	F 1 F 0 } I I #
point $-1 -323.6979818984866597 11.07625151639351913 -97.68586997016228679 #
loop $-1 $34 $59 $38 #
plane-surface $-1 -323.8012922406105645 10.37645077774780944 -97.13878221513201083 -0.334703870643246304 0.6105511586102683186 0.717774756937082592 0.9063077847862599512 -0 0.4226182665666765592 forward_v I I I I #
coedge $-1 $60 $61 $42 $54 forward $39 $-1 #
edge $-1 $62 0 $62 1 $42 $63 forward 7 unknown #
edge $-1 $56 0 $47 1 $44 $64 forward 7 unknown #
vertex $-1 $46 $65 #
intcurve-curve $-1 forward { exactcur full nurbs 2 periodic 4 
	0 2 0.3333333333333329818 2 0.6666666666666669627 2 1 2 
	-326.0088455376431398 -9.866083225788983668 -80.94954479267747161 1 
	-326.1791840265271958 -11.01991737143378636 -80.04750440095151021 0.5 
	-327.2882073747836671 -10.59858327199738426 -80.92304428835268482 1 
	-328.3972307230401384 -10.17724917256095551 -81.798584175753831 0.5 
	-327.1178688858996111 -9.444749126352547819 -81.82508468007864622 1 
	-325.8385070487590838 -8.712249080144149005 -81.85158518440340458 0.5 
	-326.0088455376431398 -9.866083225788983668 -80.94954479267747161 1 
	0 
	null_surface 
	null_surface 
	nullbs 
	nullbs 
	I I 
	0 
	0 
	0 
	F 1 F 0 } I I #
point $-1 -324.33532618442689 -12.91883901884031616 -84.53841857736290422 #
coedge $-1 $59 $59 $66 $67 reversed $51 $-1 #
coedge $-1 $66 $53 $61 $68 reversed $39 $-1 #
coedge $-1 $53 $66 $60 $68 forward $39 $-1 #
vertex $-1 $68 $69 #
intcurve-curve $-1 forward { exactcur full nurbs 2 periodic 4 
	0 2 0.3333333333333329818 2 0.6666666666666669627 2 1 2 
	-324.9345440187544796 -9.726120019147344919 -80.56764479412942137 1 
	-325.3347385188700969 -12.43694645748115057 -78.44838445540096927 0.5 
	-327.9402861398438631 -11.44706102166270512 -80.50538431412545037 1 
	-330.5458337608175725 -10.45717558584424722 -82.56238417284990305 0.5 
	-327.540091639728189 -8.736234583328894132 -82.62464465285390247 1 
	-324.5343495186387486 -7.015293580813459329 -82.68690513285784505 0.5 
	-324.9345440187544796 -9.726120019147344919 -80.56764479412942137 1 
	0 
	null_surface 
	null_surface 
	nullbs 
	nullbs 
	I I 
	0 
	0 
	0 
	F 1 F 0 } I I #
intcurve-curve $-1 forward { exactcur full nubs 1 open 2 
	0 1 1 1 
	-326.0088455376431398 -9.866083225788983668 -80.94954479267747161 
	-324.33532618442689 -12.91883901884031616 -84.53841857736290422 
	0 
	null_surface 
	null_surface 
	nullbs 
	nullbs 
	I I 
	0 
	0 
	0 
	F 1 F 0 } I I #
point $-1 -326.0088455376431398 -9.866083225788983668 -80.94954479267747161 #
coedge $-1 $61 $60 $59 $67 forward $39 $-1 #
edge $-1 $70 0 $70 1 $66 $71 forward 7 unknown #
edge $-1 $70 0 $62 2.501851166488375799 $61 $72 forward 7 unknown #
point $-1 -324.9345440187544796 -9.726120019147344919 -80.56764479412942137 #
vertex $-1 $67 $73 #
intcurve-curve $-1 forward { exactcur full nurbs 2 periodic 4 
	0 2 0.3333333333333329818 2 0.6666666666666669627 2 1 2 
	-321.9308627879447613 10.62013284153182013 -96.47386664575049053 1 
	-322.3310572880603218 7.909306403198000268 -94.35460630702201001 0.5 
	-324.936604909034088 8.899191839016445726 -96.41160616574654796 1 
	-327.5421525300078542 9.889077274834910725 -98.46860602447097222 0.5 
	-324.5364104089184707 11.61001827735029934 -98.53086650447500006 1 
	-321.5306682878290303 13.3309592798656702 -98.59312698447891421 0.5 
	-321.9308627879447613 10.62013284153182013 -96.47386664575049053 1 
	0 
	null_surface 
	null_surface 
	nullbs 
	nullbs 
	I I 
	0 
	0 
	0 
	F 1 F 0 } I I #
intcurve-curve $-1 forward { exactcur full nurbs 2 open 3 
	0 2 1.2509255832441879 2 2.501851166488375799 2 
	-321.9308627879447613 10.62013284153182013 -96.47386664575049053 1 
	-317.5797124695826028 2.682967779598368629 -105.8049384859326381 0.7071067811865470176 
	-319.0815530849874904 -7.490158650741243207 -97.85182756012207506 1 
	-320.5833937003922642 -17.66328508108081508 -89.89871663431154047 0.7071067811865470176 
	-324.9345440187544796 -9.726120019147344919 -80.56764479412942137 1 
	0 
	null_surface 
	null_surface 
	nullbs 
	nullbs 
	I I 
	0 
	0 
	0 
	F 1 F 0 } I I #
point $-1 -321.9308627879447613 10.62013284153182013 -96.47386664575049053 #
End-of-ACIS-data 