600 0 1 0           
82 GICL ACIS Healer - Source: /gicl/data5/repository/SDRC_I-DEAS/bmw/Part50.sat - 6 0 18 ACIS 6.0.3 Solaris 24 Sat Apr 13 23:16:21 2002 
1 9.999999999999999547e-07 1.000000000000000036e-10 
body $-1 $1 $-1 $-1 #
lump $-1 $-1 $2 $0 #
shell $-1 $-1 $-1 $3 $-1 $1 #
face $-1 $4 $5 $2 $-1 $6 forward single #
face $-1 $7 $8 $2 $-1 $9 forward single #
loop $-1 $-1 $10 $3 #
plane-surface $-1 -288.5000000380258598 -63.03290263149458639 33.07798644746206662 -6.032906260483629024e-10 -0.9999898849460405748 0.004497777851817202389 0 -0.004497777851817203257 -0.9999898849460407968 forward_v I I I I #
face $-1 $11 $12 $2 $-1 $13 forward single #
loop $-1 $-1 $14 $4 #
plane-surface $-1 -288.5000000349858738 -57.99400130796185238 41.71566399711046813 -2.992949477408842203e-10 -0.4960997525927752227 0.8682655328166534181 1 -0 3.447043979391551033e-10 forward_v I I I I #
coedge $-1 $15 $16 $17 $18 reversed $5 $-1 #
face $-1 $19 $20 $2 $-1 $21 forward single #
loop $-1 $-1 $22 $7 #
plane-surface $-1 -288.500000028952968 -47.99410245850148016 41.67068621859233701 3.039957640762718373e-10 0.5038901323532759546 0.8637677549648391517 1 0 -3.519415517990092178e-10 forward_v I I I I #
coedge $-1 $23 $24 $25 $26 reversed $8 $-1 #
coedge $-1 $27 $10 $28 $29 reversed $5 $-1 #
coedge $-1 $10 $27 $23 $30 forward $5 $-1 #
coedge $-1 $25 $31 $10 $18 forward $32 $-1 #
edge $-1 $33 0 $34 1 $10 $35 forward 7 unknown #
face $-1 $36 $37 $2 $-1 $38 forward single #
loop $-1 $-1 $39 $11 #
plane-surface $-1 -288.5000000259600483 -43.03310493257382774 32.98803089042576886 6.032903881378899574e-10 0.9999898849460407968 -0.004497777851816862384 -0 0.004497777851816862384 0.9999898849460407968 forward_v I I I I #
coedge $-1 $40 $41 $42 $43 reversed $12 $-1 #
coedge $-1 $44 $14 $16 $30 reversed $8 $-1 #
coedge $-1 $14 $44 $40 $45 forward $8 $-1 #
coedge $-1 $42 $17 $14 $26 forward $32 $-1 #
edge $-1 $34 0 $46 1 $14 $47 forward 7 unknown #
coedge $-1 $16 $15 $48 $49 forward $5 $-1 #
coedge $-1 $50 $51 $15 $29 forward $52 $-1 #
edge $-1 $53 0 $33 1 $15 $54 forward 7 unknown #
edge $-1 $55 0 $34 1 $16 $56 forward 7 unknown #
coedge $-1 $17 $57 $50 $58 reversed $32 $-1 #
loop $-1 $59 $31 $60 #
vertex $-1 $18 $61 #
vertex $-1 $18 $62 #
intcurve-curve $-1 forward { exactcur full nubs 1 open 2 
	0 1 1 1 
	-296.0000000380415486 -63.05887055950487508 27.30454215485713121 
	-296.000000038010171 -63.00693469443483963 38.85143074006700203 
	0 
	null_surface 
	null_surface 
	nullbs 
	nullbs 
	I I 
	0 
	0 
	0 
	F 1 F 0 } I I #
face $-1 $60 $52 $2 $-1 $63 forward single #
loop $-1 $-1 $64 $19 #
plane-surface $-1 -288.5000000289999775 -48.07200625610651912 24.35035334077736735 2.992948449175868904e-10 0.496099752592771448 -0.8682655328166555275 -1 0 -3.447042795153617016e-10 forward_v I I I I #
coedge $-1 $65 $66 $67 $68 reversed $20 $-1 #
coedge $-1 $69 $22 $24 $45 reversed $12 $-1 #
coedge $-1 $22 $69 $65 $70 forward $12 $-1 #
coedge $-1 $67 $25 $22 $43 forward $32 $-1 #
edge $-1 $46 0 $71 1 $22 $72 forward 7 unknown #
coedge $-1 $24 $23 $73 $74 forward $8 $-1 #
edge $-1 $75 0 $46 1 $24 $76 forward 7 unknown #
vertex $-1 $26 $77 #
intcurve-curve $-1 forward { exactcur full nubs 1 open 2 
	0 1 1 1 
	-296.000000038010171 -63.00693469443483963 38.85143074006700203 
	-296.0000000319616333 -52.98106791243942837 44.57989725415393423 
	0 
	null_surface 
	null_surface 
	nullbs 
	nullbs 
	I I 
	0 
	0 
	0 
	F 1 F 0 } I I #
coedge $-1 $78 $73 $27 $49 reversed $79 $-1 #
edge $-1 $53 0 $55 1 $27 $80 forward 7 unknown #
coedge $-1 $81 $28 $31 $58 forward $52 $-1 #
coedge $-1 $28 $81 $78 $82 forward $52 $-1 #
loop $-1 $-1 $50 $36 #
vertex $-1 $49 $83 #
intcurve-curve $-1 forward { exactcur full nubs 1 open 2 
	0 1 1 1 
	-281.0000000380415486 -63.05887056855432604 27.30454215485712055 
	-296.0000000380415486 -63.05887055950487508 27.30454215485713121 
	0 
	null_surface 
	null_surface 
	nullbs 
	nullbs 
	I I 
	0 
	0 
	0 
	F 1 F 0 } I I #
vertex $-1 $30 $84 #
intcurve-curve $-1 forward { exactcur full nubs 1 open 2 
	0 1 1 1 
	-281.000000038010171 -63.00693470348429059 38.85143074006699493 
	-296.000000038010171 -63.00693469443483963 38.85143074006700203 
	0 
	null_surface 
	null_surface 
	nullbs 
	nullbs 
	I I 
	0 
	0 
	0 
	F 1 F 0 } I I #
coedge $-1 $31 $67 $64 $85 forward $32 $-1 #
edge $-1 $33 0 $86 1 $50 $87 forward 7 unknown #
loop $-1 $-1 $88 $60 #
face $-1 $89 $32 $2 $-1 $90 forward single #
point $-1 -296.0000000380415486 -63.05887055950487508 27.30454215485713121 #
point $-1 -296.000000038010171 -63.00693469443483963 38.85143074006700203 #
plane-surface $-1 -288.5000000350329401 -58.07190510556689844 24.39533111929553399 -3.039957811307779249e-10 -0.5038901323532732901 -0.863767754964840484 -1 0 3.519415715433276761e-10 forward_v I I I I #
coedge $-1 $91 $92 $57 $85 reversed $37 $-1 #
coedge $-1 $93 $39 $41 $70 reversed $20 $-1 #
coedge $-1 $39 $93 $91 $94 forward $20 $-1 #
coedge $-1 $57 $42 $39 $68 forward $32 $-1 #
edge $-1 $71 0 $95 1 $39 $96 forward 7 unknown #
coedge $-1 $41 $40 $97 $98 forward $12 $-1 #
edge $-1 $99 0 $71 1 $41 $100 forward 7 unknown #
vertex $-1 $43 $101 #
intcurve-curve $-1 forward { exactcur full nubs 1 open 2 
	0 1 1 1 
	-296.0000000319616333 -52.98106791243942837 44.57989725415393423 
	-296.0000000259444164 -43.00713699551408808 38.76147518303075401 
	0 
	null_surface 
	null_surface 
	nullbs 
	nullbs 
	I I 
	0 
	0 
	0 
	F 1 F 0 } I I #
coedge $-1 $48 $97 $44 $74 reversed $79 $-1 #
edge $-1 $55 0 $75 1 $44 $102 forward 7 unknown #
vertex $-1 $45 $103 #
intcurve-curve $-1 forward { exactcur full nubs 1 open 2 
	0 1 1 1 
	-281.0000000319616333 -52.98106792148887934 44.57989725415392712 
	-296.0000000319616333 -52.98106791243942837 44.57989725415393423 
	0 
	null_surface 
	null_surface 
	nullbs 
	nullbs 
	I I 
	0 
	0 
	0 
	F 1 F 0 } I I #
point $-1 -296.0000000319616333 -52.98106791243942837 44.57989725415393423 #
coedge $-1 $104 $48 $51 $82 reversed $79 $-1 #
loop $-1 $-1 $104 $105 #
intcurve-curve $-1 forward { exactcur full nubs 1 open 2 
	0 1 1 1 
	-281.0000000380415486 -63.05887056855432604 27.30454215485712055 
	-281.000000038010171 -63.00693470348429059 38.85143074006699493 
	0 
	null_surface 
	null_surface 
	nullbs 
	nullbs 
	I I 
	0 
	0 
	0 
	F 1 F 0 } I I #
coedge $-1 $51 $50 $92 $106 forward $52 $-1 #
edge $-1 $107 0 $53 1 $51 $108 forward 7 unknown #
point $-1 -281.0000000380415486 -63.05887056855432604 27.30454215485712055 #
point $-1 -281.000000038010171 -63.00693470348429059 38.85143074006699493 #
edge $-1 $95 0 $86 1 $64 $109 forward 7 unknown #
vertex $-1 $85 $110 #
intcurve-curve $-1 forward { exactcur full nubs 1 open 2 
	0 1 1 1 
	-296.0000000380415486 -63.05887055950487508 27.30454215485713121 
	-296.0000000320242748 -53.08493964257947084 21.48612008373395099 
	0 
	null_surface 
	null_surface 
	nullbs 
	nullbs 
	I I 
	0 
	0 
	0 
	F 1 F 0 } I I #
coedge $-1 $88 $88 $111 $112 forward $59 $-1 #
face $-1 $113 $114 $2 $-1 $115 reversed single #
plane-surface $-1 -296.0000000319930109 -53.03300377750946382 33.03300866894394971 -1 6.032952441342990227e-10 -2.264459342515177131e-15 -2.264459342515177131e-15 0 1 forward_v I I I I #
coedge $-1 $116 $64 $66 $94 reversed $37 $-1 #
coedge $-1 $64 $116 $81 $106 reversed $37 $-1 #
coedge $-1 $66 $65 $117 $118 forward $20 $-1 #
edge $-1 $119 0 $95 1 $66 $120 forward 7 unknown #
vertex $-1 $68 $121 #
intcurve-curve $-1 forward { exactcur full nubs 1 open 2 
	0 1 1 1 
	-296.0000000259444164 -43.00713699551408808 38.76147518303075401 
	-296.0000000259757371 -43.05907286058411643 27.21458659782079437 
	0 
	null_surface 
	null_surface 
	nullbs 
	nullbs 
	I I 
	0 
	0 
	0 
	F 1 F 0 } I I #
coedge $-1 $73 $117 $69 $98 reversed $79 $-1 #
edge $-1 $75 0 $99 1 $69 $122 forward 7 unknown #
vertex $-1 $70 $123 #
intcurve-curve $-1 forward { exactcur full nubs 1 open 2 
	0 1 1 1 
	-281.0000000259443595 -43.00713700456353195 38.7614751830307398 
	-296.0000000259444164 -43.00713699551408808 38.76147518303075401 
	0 
	null_surface 
	null_surface 
	nullbs 
	nullbs 
	I I 
	0 
	0 
	0 
	F 1 F 0 } I I #
point $-1 -296.0000000259444164 -43.00713699551408808 38.76147518303075401 #
intcurve-curve $-1 forward { exactcur full nubs 1 open 2 
	0 1 1 1 
	-281.000000038010171 -63.00693470348429059 38.85143074006699493 
	-281.0000000319616333 -52.98106792148887934 44.57989725415392712 
	0 
	null_surface 
	null_surface 
	nullbs 
	nullbs 
	I I 
	0 
	0 
	0 
	F 1 F 0 } I I #
point $-1 -281.0000000319616333 -52.98106792148887934 44.57989725415392712 #
coedge $-1 $117 $78 $116 $124 reversed $79 $-1 #
face $-1 $-1 $125 $2 $-1 $126 forward single #
edge $-1 $86 0 $107 1 $92 $127 forward 7 unknown #
vertex $-1 $106 $128 #
intcurve-curve $-1 forward { exactcur full nubs 1 open 2 
	0 1 1 1 
	-281.0000000320242748 -53.08493965162892181 21.48612008373394389 
	-281.0000000380415486 -63.05887056855432604 27.30454215485712055 
	0 
	null_surface 
	null_surface 
	nullbs 
	nullbs 
	I I 
	0 
	0 
	0 
	F 1 F 0 } I I #
intcurve-curve $-1 forward { exactcur full nubs 1 open 2 
	0 1 1 1 
	-296.0000000259757371 -43.05907286058411643 27.21458659782079437 
	-296.0000000320242748 -53.08493964257947084 21.48612008373395099 
	0 
	null_surface 
	null_surface 
	nullbs 
	nullbs 
	I I 
	0 
	0 
	0 
	F 1 F 0 } I I #
point $-1 -296.0000000320242748 -53.08493964257947084 21.48612008373395099 #
coedge $-1 $129 $130 $88 $112 reversed $114 $-1 #
edge $-1 $131 0 $131 1 $88 $132 forward 7 unknown #
face $-1 $133 $134 $2 $-1 $135 forward single #
loop $-1 $-1 $136 $89 #
cone-surface $-1 -282.4000000318850994 -53.03300682469653538 33.03300886579623352 -1 6.032965992233486736e-10 7.690375358613469859e-16 -3.469494913588277996e-09 -5.750869282714269559 -1.710994591790033326 1 I I 0 1 6.00000000000010747 forward I I I I #
coedge $-1 $92 $91 $104 $124 forward $37 $-1 #
coedge $-1 $97 $104 $93 $118 reversed $79 $-1 #
edge $-1 $99 0 $119 1 $93 $137 forward 7 unknown #
vertex $-1 $94 $138 #
intcurve-curve $-1 forward { exactcur full nubs 1 open 2 
	0 1 1 1 
	-281.0000000259756803 -43.05907286963356739 27.21458659782078371 
	-296.0000000259757371 -43.05907286058411643 27.21458659782079437 
	0 
	null_surface 
	null_surface 
	nullbs 
	nullbs 
	I I 
	0 
	0 
	0 
	F 1 F 0 } I I #
point $-1 -296.0000000259757371 -43.05907286058411643 27.21458659782079437 #
intcurve-curve $-1 forward { exactcur full nubs 1 open 2 
	0 1 1 1 
	-281.0000000319616333 -52.98106792148887934 44.57989725415392712 
	-281.0000000259443595 -43.00713700456353195 38.7614751830307398 
	0 
	null_surface 
	null_surface 
	nullbs 
	nullbs 
	I I 
	0 
	0 
	0 
	F 1 F 0 } I I #
point $-1 -281.0000000259443595 -43.00713700456353195 38.7614751830307398 #
edge $-1 $119 0 $107 1 $116 $139 forward 7 unknown #
loop $-1 $79 $140 $105 #
plane-surface $-1 -281.0000000319930109 -53.03300682554113621 33.03300886579627615 -1 6.032984139508216333e-10 -4.132358300633238341e-16 -4.132358300633238341e-16 0 1 forward_v I I I I #
intcurve-curve $-1 forward { exactcur full nubs 1 open 2 
	0 1 1 1 
	-296.0000000320242748 -53.08493964257947084 21.48612008373395099 
	-281.0000000320242748 -53.08493965162892181 21.48612008373394389 
	0 
	null_surface 
	null_surface 
	nullbs 
	nullbs 
	I I 
	0 
	0 
	0 
	F 1 F 0 } I I #
point $-1 -281.0000000320242748 -53.08493965162892181 21.48612008373394389 #
coedge $-1 $136 $111 $130 $141 reversed $114 $-1 #
coedge $-1 $111 $136 $129 $141 forward $114 $-1 #
vertex $-1 $112 $142 #
intcurve-curve $-1 forward { exactcur full nurbs 2 periodic 4 
	0 2 0.3333333333333329818 2 0.6666666666666669627 2 1 2 
	-296.0000000320092681 -53.05999211270967209 27.03306954995399636 1 
	-296.0000000257396664 -42.66779237534085212 26.9863296458471531 0.5 
	-296.0000000288500246 -47.82341429969828539 36.00960857166393225 1 
	-296.0000000319603828 -52.97903622405566892 45.03288749748071496 0.5 
	-296.0000000351196263 -58.21561403706710536 36.05634847577078972 1 
	-296.0000000382788699 -63.45219185007849205 27.07980945406085738 0.5 
	-296.0000000320092681 -53.05999211270967209 27.03306954995399636 1 
	0 
	null_surface 
	null_surface 
	nullbs 
	nullbs 
	I I 
	0 
	0 
	0 
	F 1 F 0 } I I #
face $-1 $105 $143 $2 $-1 $144 forward single #
loop $-1 $145 $146 $113 #
plane-surface $-1 -279.0000000319930109 -53.03300682674774436 33.03300886579626905 1 -6.032996012898250575e-10 -7.656735999695857814e-16 -7.656735999695857814e-16 0 -1 forward_v I I I I #
coedge $-1 $130 $129 $147 $148 reversed $114 $-1 #
intcurve-curve $-1 forward { exactcur full nubs 1 open 2 
	0 1 1 1 
	-281.0000000259443595 -43.00713700456353195 38.7614751830307398 
	-281.0000000259756803 -43.05907286963356739 27.21458659782078371 
	0 
	null_surface 
	null_surface 
	nullbs 
	nullbs 
	I I 
	0 
	0 
	0 
	F 1 F 0 } I I #
point $-1 -281.0000000259756803 -43.05907286963356739 27.21458659782078371 #
intcurve-curve $-1 forward { exactcur full nubs 1 open 2 
	0 1 1 1 
	-281.0000000259756803 -43.05907286963356739 27.21458659782078371 
	-281.0000000320242748 -53.08493965162892181 21.48612008373394389 
	0 
	null_surface 
	null_surface 
	nullbs 
	nullbs 
	I I 
	0 
	0 
	0 
	F 1 F 0 } I I #
coedge $-1 $140 $140 $149 $150 reversed $125 $-1 #
edge $-1 $151 0.005564506040728000279 $131 0.9515305329645440402 $129 $152 forward 7 unknown #
point $-1 -296.0000000320092681 -53.05999211270967209 27.03306954995399636 #
loop $-1 $-1 $149 $133 #
cone-surface $-1 -280.6000000319929768 -53.03300682578244363 33.03300886579627615 1 -6.032949031222038749e-10 4.501949681615363073e-16 6.92011781211476773e-09 11.47049162748675855 -3.525311592434864139 1 I I 0 1 11.99999999999997691 forward I I I I #
loop $-1 $-1 $147 $113 #
coedge $-1 $146 $146 $153 $154 reversed $134 $-1 #
coedge $-1 $147 $147 $136 $148 forward $145 $-1 #
edge $-1 $151 0 $151 1 $136 $155 forward 7 unknown #
coedge $-1 $156 $157 $140 $150 forward $143 $-1 #
edge $-1 $158 0 $158 1 $149 $159 forward 7 unknown #
vertex $-1 $148 $160 #
intcurve-curve $-1 forward { exactcur full nubs 1 open 2 
	0.005564506040728000279 1 0.9515305329645440402 1 
	-279.0000000320092113 -53.05999212296570988 27.0330695499539857 
	-296.0000000320092681 -53.05999211270967209 27.03306954995399636 
	0 
	null_surface 
	null_surface 
	nullbs 
	nullbs 
	I I 
	0 
	0 
	0 
	F 1 F 0 } I I #
coedge $-1 $157 $156 $146 $154 forward $143 $-1 #
edge $-1 $161 0 $161 1 $146 $162 forward 7 unknown #
intcurve-curve $-1 forward { exactcur full nurbs 2 periodic 4 
	0 2 0.3333333333333329818 2 0.6666666666666669627 2 1 2 
	-279.0000000320092113 -53.05999212296570988 27.0330695499539857 1 
	-279.0000000382788699 -63.45219186033458669 27.07980945406085382 0.5 
	-279.0000000351195695 -58.21561404732317868 36.05634847577083235 1 
	-279.0000000319603828 -52.97903623431170672 45.03288749748081443 0.5 
	-279.0000000288500246 -47.82341430995427345 36.00960857166397489 1 
	-279.0000000257396096 -42.66779238559686149 26.98632964584713889 0.5 
	-279.0000000320092113 -53.05999212296570988 27.0330695499539857 1 
	0 
	null_surface 
	null_surface 
	nullbs 
	nullbs 
	I I 
	0 
	0 
	0 
	F 1 F 0 } I I #
coedge $-1 $153 $149 $157 $163 reversed $143 $-1 #
coedge $-1 $149 $153 $156 $163 forward $143 $-1 #
vertex $-1 $150 $164 #
intcurve-curve $-1 forward { exactcur full nurbs 2 periodic 4 
	0 2 0.3333333333333329818 2 0.6666666666666669627 2 1 2 
	-281.0000000320255253 -53.08698015976295181 21.0331302464437826 1 
	-281.0000000194863219 -32.30258070638497259 20.93964568931771808 0.5 
	-281.0000000257070951 -42.61382043174123169 38.98620589690948179 1 
	-281.0000000319278115 -52.92506015709749789 57.03276610450124195 0.5 
	-281.0000000382462417 -63.39821988511921802 39.07969045403554276 1 
	-281.000000044564672 -73.87137961314095946 21.12661480356984356 0.5 
	-281.0000000320255253 -53.08698015976295181 21.0331302464437826 1 
	0 
	null_surface 
	null_surface 
	nullbs 
	nullbs 
	I I 
	0 
	0 
	0 
	F 1 F 0 } I I #
point $-1 -279.0000000320092113 -53.05999212296570988 27.0330695499539857 #
vertex $-1 $154 $165 #
intcurve-curve $-1 forward { exactcur full nurbs 2 periodic 4 
	0 2 0.3333333333333329818 2 0.6666666666666669627 2 1 2 
	-279.0000000320255253 -53.08698016096954575 21.03313024644377904 1 
	-279.000000044564672 -73.8713796143475605 21.12661480356984356 0.5 
	-279.0000000382462417 -63.39821988632581196 39.07969045403554276 1 
	-279.0000000319278115 -52.92506015830409183 57.03276610450124906 0.5 
	-279.0000000257070951 -42.61382043294782562 38.98620589690948179 1 
	-279.0000000194863219 -32.30258070759155942 20.93964568931771453 0.5 
	-279.0000000320255253 -53.08698016096954575 21.03313024644377904 1 
	0 
	null_surface 
	null_surface 
	nullbs 
	nullbs 
	I I 
	0 
	0 
	0 
	F 1 F 0 } I I #
edge $-1 $161 0 $158 1 $157 $166 forward 7 unknown #
point $-1 -281.0000000320255253 -53.08698015976295181 21.0331302464437826 #
point $-1 -279.0000000320255253 -53.08698016096954575 21.03313024644377904 #
intcurve-curve $-1 forward { exactcur full nubs 1 open 2 
	0 1 1 1 
	-279.0000000320255253 -53.08698016096954575 21.03313024644377904 
	-281.0000000320255253 -53.08698015976295181 21.0331302464437826 
	0 
	null_surface 
	null_surface 
	nullbs 
	nullbs 
	I I 
	0 
	0 
	0 
	F 1 F 0 } I I #
End-of-ACIS-data 