600 0 1 0           
82 GICL ACIS Healer - Source: /gicl/data5/repository/SDRC_I-DEAS/bmw/Part25.sat - 6 0 18 ACIS 6.0.3 Solaris 24 Sat Apr 13 23:15:38 2002 
1 9.999999999999999547e-07 1.000000000000000036e-10 
body $-1 $1 $-1 $-1 #
lump $-1 $-1 $2 $0 #
shell $-1 $-1 $-1 $3 $-1 $1 #
face $-1 $4 $5 $2 $-1 $6 forward single #
face $-1 $7 $8 $2 $-1 $9 forward single #
loop $-1 $-1 $10 $3 #
plane-surface $-1 -328.4550030786908792 -1.048961093985667503e-06 -90.70816786819300148 0.9063077870366554878 6.90717436957876579e-09 0.4226182617406876174 0.4226182617406876174 0 -0.9063077870366554878 forward_v I I I I #
face $-1 $11 $12 $2 $-1 $13 forward single #
loop $-1 $-1 $14 $4 #
cone-surface $-1 -331.7931898501492469 -1.07440219565546613e-06 -92.26478992407565727 0.9063077870366560429 6.907177806081928014e-09 0.4226182617406863962 -0.8831379176672512488 -9.401476413903161244 1.893895529857507976 1 I I -0.5812381937190966852 0.813733471206734893 9.630915409285524476 forward I I I I #
coedge $-1 $10 $10 $15 $16 forward $5 $-1 #
face $-1 $17 $18 $2 $-1 $19 forward single #
loop $-1 $20 $21 $7 #
plane-surface $-1 -334.7991575879475477 -1.097311303155379392e-06 -93.66649570037779426 0.9063077870366560429 6.907176346034148108e-09 0.4226182617406862296 0.4226182617406862851 0 -0.9063077870366561539 forward_v I I I I #
coedge $-1 $15 $22 $23 $24 forward $8 $-1 #
coedge $-1 $23 $14 $10 $16 reversed $8 $-1 #
edge $-1 $25 0 $25 1 $10 $26 forward 7 unknown #
face $-1 $27 $28 $2 $-1 $29 forward single #
loop $-1 $-1 $30 $11 #
cone-surface $-1 -335.1616807027619416 -1.100074197069034199e-06 -93.83554300507393009 -0.90630778703665138 -6.907161819529955652e-09 -0.4226182617406965547 -3.891508932406679833 -13.08476176048344897 8.345368050624841771 1 I I 0 1 16.00000000000002487 forward I I I I #
loop $-1 $-1 $31 $7 #
coedge $-1 $21 $21 $32 $33 forward $12 $-1 #
coedge $-1 $14 $23 $31 $34 forward $8 $-1 #
coedge $-1 $22 $15 $14 $24 reversed $8 $-1 #
edge $-1 $35 0 $25 1 $14 $36 forward 7 unknown #
vertex $-1 $16 $37 #
intcurve-curve $-1 forward { exactcur full nurbs 2 periodic 4 
	0 2 0.3333333333333329818 2 0.6666666666666669627 2 1 2 
	-326.6321092998766744 -5.51318064471639957 -94.61737610210792582 1 
	-322.5964822728189461 1.95773310360407482 -103.271806312331961 0.5 
	-327.3486364545691458 6.492045623076727168 -93.08077885634753557 1 
	-332.1007906363194024 11.02635814254949054 -82.88975140036319544 0.5 
	-331.384263481626931 -0.978868125243650411 -84.42634864612352885 1 
	-330.6677363269344596 -12.98409439303677004 -85.96294589188389068 0.5 
	-326.6321092998766744 -5.51318064471639957 -94.61737610210792582 1 
	0 
	null_surface 
	null_surface 
	nullbs 
	nullbs 
	I I 
	0 
	0 
	0 
	F 1 F 0 } I I #
face $-1 $38 $39 $2 $-1 $40 forward single #
loop $-1 $41 $42 $17 #
plane-surface $-1 -336.611773162020711 -1.111125659036815705e-06 -94.51173222385912709 -0.9063077870366549327 -6.907178616944877663e-09 -0.4226182617406886721 -0.4226182617406887276 0 0.9063077870366550437 forward_v I I I I #
coedge $-1 $32 $43 $44 $45 forward $18 $-1 #
coedge $-1 $31 $31 $22 $34 reversed $20 $-1 #
coedge $-1 $44 $30 $21 $33 reversed $18 $-1 #
edge $-1 $46 0 $46 1 $21 $47 forward 7 unknown #
edge $-1 $35 0 $35 11.47676854415981751 $22 $48 forward 7 unknown #
vertex $-1 $34 $49 #
intcurve-curve $-1 forward { exactcur full nubs 1 open 2 
	0 1 1 1 
	-331.674196824266005 -9.451166118606074917 -100.3679955299461994 
	-326.6321092998766744 -5.51318064471639957 -94.61737610210792582 
	0 
	null_surface 
	null_surface 
	nullbs 
	nullbs 
	I I 
	0 
	0 
	0 
	F 1 F 0 } I I #
point $-1 -326.6321092998766744 -5.51318064471639957 -94.61737610210792582 #
face $-1 $-1 $50 $2 $-1 $51 forward single #
loop $-1 $-1 $52 $27 #
cone-surface $-1 -333.2735863905624569 -1.085684599999581224e-06 -92.95511016797644288 0.9063077870366552657 6.90717843562256041e-09 0.4226182617406880615 -0.7647493919327668088 -8.14116711214718336 1.640010496512765092 1 I I 0.5812381937190980175 -0.8137334712067337827 8.339848800130640782 forward I I I I #
loop $-1 $-1 $53 $17 #
coedge $-1 $42 $42 $43 $54 reversed $28 $-1 #
coedge $-1 $30 $44 $42 $54 forward $18 $-1 #
coedge $-1 $43 $32 $30 $45 reversed $18 $-1 #
edge $-1 $55 0 $46 1 $30 $56 forward 7 unknown #
vertex $-1 $33 $57 #
intcurve-curve $-1 forward { exactcur full nurbs 2 periodic 4 
	0 2 0.3333333333333329818 2 0.6666666666666669627 2 1 2 
	-330.6325432363721575 -12.60155445903765781 -102.6018288064690296 1 
	-321.4082528888115462 4.474819822837467598 -122.3833835726954078 0.5 
	-332.2703195899549087 14.8389627244894271 -99.08960653044539413 1 
	-343.1323862910982712 25.20310562614145766 -75.79582948819535204 0.5 
	-341.49460993751552 -2.237411557385804883 -79.30805176421901592 1 
	-339.8568335839327119 -29.67792874091301769 -82.82027404024270822 0.5 
	-330.6325432363721575 -12.60155445903765781 -102.6018288064690296 1 
	0 
	null_surface 
	null_surface 
	nullbs 
	nullbs 
	I I 
	0 
	0 
	0 
	F 1 F 0 } I I #
intcurve-curve $-1 forward { exactcur full nurbs 2 periodic 4 
	0 2 3.825589514719939022 2 7.651179029439877155 2 11.47676854415981751 2 
	-331.674196824266005 -9.451166118606074917 -100.3679955299461994 1 
	-324.7559790635955892 3.356114592800295782 -115.2041616046159618 0.5 
	-332.9025290894530258 11.12922176903924054 -97.73382882292847285 1 
	-341.0490791153105761 18.90232894527819241 -80.26349604124101234 0.5 
	-339.8207468501234985 -1.678058942367151474 -82.89766274825871051 1 
	-338.5924145849364777 -22.25844683001260904 -85.53182945527647973 0.5 
	-331.674196824266005 -9.451166118606074917 -100.3679955299461994 1 
	0 
	null_surface 
	null_surface 
	nullbs 
	nullbs 
	I I 
	0 
	0 
	0 
	F 1 F 0 } I I #
point $-1 -331.674196824266005 -9.451166118606074917 -100.3679955299461994 #
loop $-1 $-1 $58 $38 #
plane-surface $-1 -330.267618652764213 -1.062775425886286484e-06 -91.55340439167436273 -0.9063077870366577082 -6.907181430308016093e-09 -0.4226182617406828435 -0.4226182617406828435 0 0.9063077870366577082 forward_v I I I I #
coedge $-1 $59 $60 $61 $62 forward $39 $-1 #
coedge $-1 $53 $53 $59 $63 forward $41 $-1 #
edge $-1 $55 0 $55 83.13843876330609817 $43 $64 forward 7 unknown #
vertex $-1 $54 $65 #
intcurve-curve $-1 forward { exactcur full nubs 1 open 2 
	0 1 1 1 
	-332.4451588104454913 -12.60155447285200125 -103.4470653299503908 
	-330.6325432363721575 -12.60155445903765781 -102.6018288064690296 
	0 
	null_surface 
	null_surface 
	nullbs 
	nullbs 
	I I 
	0 
	0 
	0 
	F 1 F 0 } I I #
point $-1 -330.6325432363721575 -12.60155445903765781 -102.6018288064690296 #
coedge $-1 $58 $58 $60 $66 reversed $50 $-1 #
coedge $-1 $61 $52 $53 $63 reversed $39 $-1 #
coedge $-1 $52 $61 $58 $66 forward $39 $-1 #
coedge $-1 $60 $59 $52 $62 reversed $39 $-1 #
edge $-1 $67 0 $68 1 $52 $69 forward 7 unknown #
edge $-1 $68 0 $68 1 $53 $70 forward 7 unknown #
intcurve-curve $-1 forward { exactcur full nurbs 2 periodic 4 
	0 2 27.71281292110203509 2 55.42562584220406308 2 83.13843876330609817 2 
	-332.4451588104454913 -12.60155447285200125 -103.4470653299503908 1 
	-323.22086846288488 4.474819809023141914 -123.2286200961768117 0.5 
	-334.0829351640282425 14.8389627106751405 -99.93484305392675537 1 
	-344.9450018651715482 25.20310561232708579 -76.64106601167677013 0.5 
	-343.307225511588797 -2.237411571200098592 -80.15328828770040559 1 
	-341.6694491580061026 -29.67792875472730785 -83.66551056372408368 0.5 
	-332.4451588104454913 -12.60155447285200125 -103.4470653299503908 1 
	0 
	null_surface 
	null_surface 
	nullbs 
	nullbs 
	I I 
	0 
	0 
	0 
	F 1 F 0 } I I #
point $-1 -332.4451588104454913 -12.60155447285200125 -103.4470653299503908 #
edge $-1 $67 0 $67 10.23336844459189443 $60 $71 forward 7 unknown #
vertex $-1 $66 $72 #
vertex $-1 $63 $73 #
intcurve-curve $-1 forward { exactcur full nubs 1 open 2 
	0 1 1 1 
	-328.7127516624624946 -4.702557549978173768 -94.88782733599060748 
	-333.7548391868517683 -8.640543023867884642 -100.6384467638289095 
	0 
	null_surface 
	null_surface 
	nullbs 
	nullbs 
	I I 
	0 
	0 
	0 
	F 1 F 0 } I I #
intcurve-curve $-1 forward { exactcur full nurbs 2 periodic 4 
	0 2 0.3333333333333329818 2 0.6666666666666669627 2 1 2 
	-333.7548391868517683 -8.640543023867884642 -100.6384467638289095 1 
	-327.4299945367091595 3.068261713519090605 -114.2021200785739836 0.5 
	-334.8778178245339632 10.17467221393888366 -98.23021161124671607 1 
	-342.3256411123584826 17.28108271435878152 -82.25830314391947695 0.5 
	-341.2026624746764014 -1.534132523448093366 -84.66653829650169882 1 
	-340.0796838369943771 -20.34934776125487232 -87.07477344908377859 0.5 
	-333.7548391868517683 -8.640543023867884642 -100.6384467638289095 1 
	0 
	null_surface 
	null_surface 
	nullbs 
	nullbs 
	I I 
	0 
	0 
	0 
	F 1 F 0 } I I #
intcurve-curve $-1 forward { exactcur full nurbs 2 periodic 4 
	0 2 3.411122814863964958 2 6.822245629727929916 2 10.23336844459189443 2 
	-328.7127516624624946 -4.702557549978173768 -94.88782733599060748 1 
	-325.2704977459327438 1.669880224322765727 -102.2697647862900396 0.5 
	-329.3239251896500832 5.537496067976441338 -93.57716164466583564 1 
	-333.3773526333674226 9.405111911630065435 -84.8845585030417169 0.5 
	-332.766179106179834 -0.8349417063245283543 -86.19522419436648875 1 
	-332.1550055789925295 -11.07499532427916655 -87.50588988569130322 0.5 
	-328.7127516624624946 -4.702557549978173768 -94.88782733599060748 1 
	0 
	null_surface 
	null_surface 
	nullbs 
	nullbs 
	I I 
	0 
	0 
	0 
	F 1 F 0 } I I #
point $-1 -328.7127516624624946 -4.702557549978173768 -94.88782733599060748 #
point $-1 -333.7548391868517683 -8.640543023867884642 -100.6384467638289095 #
End-of-ACIS-data 