600 0 2 0           
24 FBMach with ACIS - 6.0.3 13 ACIS 6.0.3 NT 24 Wed May 23 19:55:08 2001 
1 9.9999999999999995e-007 1e-010 
body $2 $3 $-1 $-1 #
bdycol-kcp $-1 1 1 $4 #
model_id-kcp-attrib $-1 $-1 $-1 $0 1 990662108 90 609878017 1 #
lump $-1 $-1 $5 $0 #
body $6 $7 $-1 $8 #
shell $-1 $-1 $-1 $9 $-1 $3 #
model_id-kcp-attrib $-1 $-1 $-1 $4 1 990662108 110 611188738 1 #
lump $-1 $-1 $10 $4 #
transform $-1 1 0 0 0 1 0 0 0 1 180.00000043708968 54.48563954498124 74.485695652735458 1 no_rotate no_reflect no_shear #
face $11 $12 $13 $5 $-1 $14 forward single #
shell $-1 $-1 $-1 $15 $-1 $7 #
model_id-kcp-attrib $-1 $-1 $-1 $9 1 990662108 90 609878017 2 #
face $16 $17 $18 $5 $-1 $19 forward single #
loop $-1 $-1 $20 $9 #
spline-surface $-1 forward { exactsur full nubs 1 1 open open none none 2 2 
	0 1 1 1 
	0 1 1 1 
	65.000000388541864 43.380945682957034 73.033008895470942 
	65.000000452099812 53.032953120289847 82.685016719400807 
	65.000000422110375 53.032953506886898 63.381001458138144 
	65.000000485668338 62.684960944219711 73.033009282068008 
	0 
	0 
	0 
	0 
	0 
	0 
	0 
	F 1 F 0 F 1 F 0 } I I I I #
face $-1 $21 $22 $10 $-1 $23 forward single #
model_id-kcp-attrib $-1 $-1 $-1 $12 1 990662108 90 609878017 3 #
face $24 $-1 $25 $5 $-1 $26 forward single #
loop $-1 $-1 $27 $12 #
spline-surface $-1 forward { exactsur full nubs 1 1 open open none none 2 2 
	0 1 1 1 
	0 1 1 1 
	295.00000048566829 62.684959786994824 73.033008924755322 
	295.00000045209981 53.03295196306496 82.68501636208812 
	295.00000042211036 53.032952349662011 63.381001100825458 
	295.00000038854182 43.380944525732147 73.033008538158256 
	0 
	0 
	0 
	0 
	0 
	0 
	0 
	F 1 F 0 F 1 F 0 } I I I I #
tcoedge-coedge $-1 $20 $20 $28 $29 reversed $13 $30 -1 0 #
face $-1 $31 $32 $10 $-1 $33 reversed single #
loop $-1 $-1 $34 $15 #
plane-surface $-1 0 0 11.104694551910001 0 0 1 1 0 0 forward_v I I I I #
model_id-kcp-attrib $-1 $-1 $-1 $17 1 990662108 90 609878017 4 #
loop $-1 $-1 $28 $17 #
spline-surface $-1 forward { exactsur full nurbs 2 1 both periodic open none none 4 2 
	0 2 0.33333333333333298 2 0.66666666666666696 2 1 2 
	0 1 3.4048862029131781 1 
	65.000000467370782 57.629147299254015 77.62920325852896 1 
	65.000000439683944 49.668305475778752 85.590044763144334 0.5 
	65.000000408128827 46.754435409017944 74.715332756197427 1 
	65.000000376573723 43.840565342257108 63.840620749250533 0.5 
	65.000000435815679 54.715277232493207 66.754491251582039 1 
	65.000000495057634 65.589989122729278 69.668361753913572 0.5 
	65.000000467370782 57.629147299254015 77.62920325852896 1 
	295.0000004673708 57.629146142029128 77.629202901216274 1 
	295.00000043968396 49.668304318553865 85.590044405831648 0.5 
	295.00000040812881 46.754434251793057 74.71533239888474 1 
	295.00000037657378 43.840564185032221 63.840620391937847 0.5 
	295.00000043581565 54.715276075268321 66.754490894269352 1 
	295.00000049505763 65.589987965504392 69.668361396600886 0.5 
	295.0000004673708 57.629146142029128 77.629202901216274 1 
	0 
	0 
	0 
	0 
	0 
	0 
	0 
	F 1 F 0 F 1 F 0 } I I I I #
tcoedge-coedge $-1 $27 $27 $35 $36 reversed $18 $37 -1 0 #
tcoedge-coedge $-1 $38 $39 $20 $29 forward $25 $40 0 1 #
tedge-edge $-1 $41 0 $41 1 $20 $42 forward 7 unknown 0.00034544150108217124 #
pcurve $-1 0 forward { exppc nubs 2 periodic 25 
	-1 2 -0.95833333333333337 2 -0.91666666666666674 2 -0.875 2 -0.83333333333333337 2 
	-0.79166666666666674 2 -0.75 2 -0.70833333333333337 2 -0.66666666666666674 2 -0.625 2 
	-0.58333333333333337 2 -0.54166666666666674 2 -0.5 2 -0.45833333333333337 2 -0.41666666666666669 2 
	-0.375 2 -0.33333333333333337 2 -0.29166666666666669 2 -0.25 2 -0.20833333333333331 2 
	-0.16666666666666663 2 -0.12499999999999997 2 -0.083333333333333315 2 -0.041666666666666657 2 0 2 
	0.97619047286351268 0.49999999999999584 
	0.97619047286351268 0.55498573953865316 
	0.96365914463026225 0.60852448593155617 
	0.9497354465933181 0.6680119819236674 
	0.92124541830233808 0.72205779429072459 
	0.89047618774808135 0.78042727164714332 
	0.84499513850315688 0.82823120030728314 
	0.79761904553969387 0.87802695932826214 
	0.73809523643175623 0.91239304653992193 
	0.67857142732381692 0.9467591337515826 
	0.61175898852919175 0.96289015427950508 
	0.54761904728635502 0.97837593398630984 
	0.48168498181294178 0.97583813062298708 
	0.42063492118941687 0.97348831269398473 
	0.36215538943424658 0.95580284091254464 
	0.30952381085459457 0.93988591630924889 
	0.26190476356824421 0.91239304653992082 
	0.21428571628189425 0.88490017677059296 
	0.17418546593549222 0.8472783549809848 
	0.12962963221726437 0.80547633077030589 
	0.097069599884721386 0.75378033633225994 
	0.061904764965569924 0.69794866233916242 
	0.043245872967652935 0.63465895397221939 
	0.023809527136489244 0.5687321744233198 
	0.023809527136489251 0.49999999999999895 
	0.023809527136489296 0.43126782557667831 
	0.043245872967652997 0.36534104602777873 
	0.061904764965569854 0.30205133766083608 
	0.097069599884721552 0.24621966366773884 
	0.12962963221727397 0.19452366922967868 
	0.1741854659354925 0.15272164501900856 
	0.21428571628189183 0.1150998232294029 
	0.26190476356824438 0.087606953460073855 
	0.30952381085459524 0.060114083690745848 
	0.3621553894342468 0.044197159087450144 
	0.42063492118942614 0.026511687306007108 
	0.48168498181294206 0.024161869377005003 
	0.54761904728635724 0.021624066013682074 
	0.61175898852919197 0.037109845720486298 
	0.67857142732380815 0.053240866248406508 
	0.73809523643175634 0.087606953460071885 
	0.79761904553969831 0.12197304067173376 
	0.84499513850315722 0.17176879969270784 
	0.89047618774807824 0.21957272835284347 
	0.92124541830233808 0.27794220570926764 
	0.9497354465933171 0.33198801807632272 
	0.96365914463026237 0.39147551406843889 
	0.97619047286351268 0.44501426046134157 
	0.97619047286351268 0.49999999999999584 
	0.001 
	spline forward { ref 0 } I I I I 
	} 0 0 #
face $-1 $43 $44 $10 $-1 $45 reversed single #
loop $-1 $-1 $46 $21 #
plane-surface $-1 0 0 -11.104694551910001 0 0 1 1 0 0 forward_v I I I I #
coedge $-1 $47 $48 $49 $50 forward $22 $-1 #
tcoedge-coedge $-1 $39 $38 $27 $36 forward $25 $51 0 1 #
tedge-edge $-1 $52 0 $52 1 $27 $53 forward 7 unknown 0.00034544150107343788 #
pcurve $-1 0 forward { exppc nubs 2 periodic 25 
	-1 2 -0.95833333333333337 2 -0.91666666666666674 2 -0.875 2 -0.83333333333333337 2 
	-0.79166666666666674 2 -0.75 2 -0.70833333333333337 2 -0.66666666666666674 2 -0.625 2 
	-0.58333333333333337 2 -0.54166666666666674 2 -0.5 2 -0.45833333333333337 2 -0.41666666666666669 2 
	-0.375 2 -0.33333333333333337 2 -0.29166666666666669 2 -0.25 2 -0.20833333333333331 2 
	-0.16666666666666663 2 -0.12499999999999997 2 -0.083333333333333315 2 -0.041666666666666657 2 0 2 
	0.50000000000000422 0.023809527136487235 
	0.55498573953866104 0.023809527136487194 
	0.60852448593156372 0.036340855369737537 
	0.66801198192367717 0.050264553406682219 
	0.72205779429073302 0.078754581697661669 
	0.78042727164715475 0.10952381225192015 
	0.82823120030729203 0.15500486149684278 
	0.87802695932826802 0.20238095446030357 
	0.91239304653992825 0.26190476356824344 
	0.94675913375159215 0.32142857267618952 
	0.9628901542795123 0.38824101147080781 
	0.97837593398631728 0.45238095271364842 
	0.9758381306229944 0.51831501818705783 
	0.9734883126939915 0.57936507881059107 
	0.95580284091255396 0.63784461056575292 
	0.93988591630925944 0.69047618914540099 
	0.91239304653992914 0.73809523643175523 
	0.88490017677060373 0.78571428371810104 
	0.84727835498099147 0.82581453406450744 
	0.80547633077031688 0.87037036778273069 
	0.75378033633226393 0.90293040011527836 
	0.69794866233916886 0.93809523503442849 
	0.6346589539722215 0.95675412703234697 
	0.56873217442332247 0.97619047286351068 
	0.50000000000000211 0.97619047286351068 
	0.43126782557667986 0.97619047286351068 
	0.36534104602778039 0.95675412703234719 
	0.30205133766084158 0.9380952350344316 
	0.2462196636677417 0.90293040011527881 
	0.19452366922968739 0.87037036778273058 
	0.15272164501901297 0.82581453406450789 
	0.11509982322940829 0.78571428371810992 
	0.087606953460078144 0.73809523643175601 
	0.060114083690749685 0.69047618914540498 
	0.044197159087454155 0.6378446105657537 
	0.026511687306015528 0.57936507881058863 
	0.024161869377012795 0.51831501818705839 
	0.021624066013690102 0.45238095271365109 
	0.037109845720495693 0.38824101147080847 
	0.053240866248417319 0.32142857267618408 
	0.08760695346007813 0.26190476356824394 
	0.12197304067173807 0.20238095446030541 
	0.17176879969271636 0.15500486149684309 
	0.21957272835285591 0.10952381225191893 
	0.27794220570927464 0.078754581697662029 
	0.33198801807633072 0.050264553406682448 
	0.39147551406844427 0.036340855369737704 
	0.4450142604613474 0.02380952713648727 
	0.50000000000000422 0.023809527136487235 
	0.001 
	spline forward { ref 1 } I I I I 
	} 0 0 #
coedge $-1 $35 $28 $39 $54 reversed $25 $55 #
coedge $-1 $28 $35 $38 $54 forward $25 $56 #
pcurve $-1 0 forward { exppc nubs 2 periodic 25 
	0 2 0.041666666666666664 2 0.083333333333333329 2 0.125 2 0.16666666666666666 2 
	0.20833333333333331 2 0.25 2 0.29166666666666663 2 0.33333333333333331 2 0.375 2 
	0.41666666666666663 2 0.45833333333333331 2 0.5 2 0.54166666666666663 2 0.58333333333333326 2 
	0.625 2 0.66666666666666663 2 0.70833333333333326 2 0.75 2 0.79166666666666674 2 
	0.83333333333333337 2 0.875 2 0.91666666666666674 2 0.95833333333333337 2 1 2 
	0 0 
	0.022038567493113049 0 
	0.041666666666666866 0 
	0.063455657492355266 0 
	0.083333333333334092 0 
	0.10478547854788299 0 
	0.12500000000005307 0 
	0.14604810996566164 0 
	0.16666666666666702 0 
	0.18728522336767256 0 
	0.20833333333328133 0 
	0.2285478547854512 0 
	0.24999999999999992 0 
	0.26987767584097833 0 
	0.29166666666666619 0 
	0.31129476584021976 0 
	0.33333333333333254 0 
	0.35537190082644554 0 
	0.37499999999999939 0 
	0.39678899082568753 0 
	0.41666666666666607 0 
	0.43811881188121488 0 
	0.45833333333338483 0 
	0.4793814432989934 0 
	0.49999999999999872 0 
	0.52061855670100421 0 
	0.54166666666661312 0 
	0.5618811881187834 0 
	0.58333333333333248 0 
	0.60321100917431081 0 
	0.62499999999999845 0 
	0.64462809917355246 0 
	0.66666666666666552 0 
	0.6887052341597788 0 
	0.70833333333333282 0 
	0.73012232415902123 0 
	0.75 0 
	0.77145214521454919 0 
	0.79166666666671948 0 
	0.81271477663232838 0 
	0.83333333333333415 0 
	0.8539518900343398 0 
	0.87499999999994871 0 
	0.89521452145211877 0 
	0.91666666666666774 0 
	0.93654434250764618 0 
	0.95833333333333415 0 
	0.97796143250688761 0 
	1 0 
	0.001 
	spline forward { ref 2 } I I I I 
	} 0 0 #
tvertex-vertex $-1 $29 $57 4.0194366942304644e-014 #
intcurve-curve $-1 forward { exactcur full nurbs 2 periodic 4 
	0 2 0.33333333333333298 2 0.66666666666666696 2 1 2 
	65.000000467370782 57.629147299253987 77.629203258528989 1 
	65.000000439683944 49.668305475778709 85.590044763144377 0.5 
	65.000000408128827 46.754435409017916 74.715332756197455 1 
	65.000000376573723 43.840565342257079 63.840620749250562 0.5 
	65.000000435815679 54.71527723249315 66.754491251582081 1 
	65.000000495057634 65.58998912272925 69.668361753913601 0.5 
	65.000000467370782 57.629147299253987 77.629203258528989 1 
	0 
	null_surface 
	null_surface 
	nullbs 
	nullbs 
	I I 
	0 
	0 
	0 
	F 1 F 0 } I I #
face $-1 $58 $59 $10 $-1 $60 reversed single #
loop $-1 $-1 $61 $31 #
plane-surface $-1 0 -11.104695019249093 0 0 1 0 0 0 1 forward_v I I I I #
coedge $-1 $62 $63 $64 $65 forward $32 $-1 #
coedge $-1 $66 $34 $67 $68 forward $22 $-1 #
coedge $-1 $34 $66 $69 $70 forward $22 $-1 #
coedge $-1 $71 $72 $34 $50 reversed $73 $-1 #
edge $-1 $74 -11.104695019249093 $75 11.104695019249093 $49 $76 forward 7 unknown #
pcurve $-1 0 forward { exppc nubs 2 periodic 25 
	0 2 0.041666666666666664 2 0.083333333333333329 2 0.125 2 0.16666666666666666 2 
	0.20833333333333331 2 0.25 2 0.29166666666666663 2 0.33333333333333331 2 0.375 2 
	0.41666666666666663 2 0.45833333333333331 2 0.5 2 0.54166666666666663 2 0.58333333333333326 2 
	0.625 2 0.66666666666666663 2 0.70833333333333326 2 0.75 2 0.79166666666666674 2 
	0.83333333333333337 2 0.875 2 0.91666666666666674 2 0.95833333333333337 2 1 2 
	1 3.4048862029131772 
	0.97796143250688761 3.4048862029131777 
	0.95833333333333415 3.4048862029131772 
	0.93654434250764629 3.4048862029131772 
	0.91666666666666807 3.4048862029131777 
	0.89521452145211877 3.4048862029131772 
	0.87499999999994849 3.4048862029131777 
	0.85395189003433969 3.4048862029131772 
	0.83333333333333404 3.4048862029131772 
	0.81271477663232838 3.4048862029131777 
	0.79166666666671937 3.4048862029131781 
	0.77145214521454908 3.4048862029131781 
	0.75 3.4048862029131781 
	0.73012232415902123 3.4048862029131781 
	0.70833333333333293 3.4048862029131781 
	0.6887052341597788 3.4048862029131777 
	0.66666666666666541 3.4048862029131777 
	0.64462809917355268 3.4048862029131781 
	0.624999999999999 3.4048862029131781 
	0.6032110091743107 3.4048862029131781 
	0.58333333333333182 3.4048862029131781 
	0.56188118811878307 3.4048862029131781 
	0.54166666666661323 3.4048862029131781 
	0.52061855670100443 3.4048862029131781 
	0.49999999999999872 3.4048862029131781 
	0.4793814432989934 3.4048862029131781 
	0.45833333333338483 3.4048862029131772 
	0.43811881188121493 3.4048862029131777 
	0.41666666666666619 3.4048862029131781 
	0.39678899082568747 3.4048862029131781 
	0.37499999999999911 3.4048862029131781 
	0.35537190082644537 3.4048862029131781 
	0.33333333333333259 3.4048862029131781 
	0.31129476584021998 3.4048862029131786 
	0.29166666666666646 3.4048862029131781 
	0.26987767584097844 3.4048862029131781 
	0.24999999999999994 3.4048862029131777 
	0.22854785478545123 3.4048862029131781 
	0.2083333333332813 3.4048862029131781 
	0.18728522336767262 3.4048862029131781 
	0.16666666666666716 3.4048862029131781 
	0.14604810996566173 3.4048862029131781 
	0.1250000000000531 3.4048862029131777 
	0.10478547854788306 3.4048862029131781 
	0.083333333333334147 3.4048862029131777 
	0.063455657492356043 3.4048862029131777 
	0.041666666666668552 3.4048862029131777 
	0.022038567493113996 3.4048862029131772 
	0 3.4048862029131772 
	0.001 
	spline forward { ref 2 } I I I I 
	} 0 0 #
tvertex-vertex $-1 $36 $77 6.9618685722138533e-014 #
intcurve-curve $-1 forward { exactcur full nurbs 2 periodic 4 
	0 2 0.33333333333333298 2 0.66666666666666696 2 1 2 
	295.0000004673708 57.6291461420291 77.629202901216303 1 
	295.00000049505763 65.589987965504349 69.668361396600915 0.5 
	295.00000043581565 54.715276075268264 66.754490894269395 1 
	295.00000037657378 43.840564185032193 63.840620391937875 0.5 
	295.00000040812881 46.754434251793029 74.715332398884769 1 
	295.00000043968396 49.668304318553815 85.590044405831691 0.5 
	295.0000004673708 57.6291461420291 77.629202901216303 1 
	0 
	null_surface 
	null_surface 
	nullbs 
	nullbs 
	I I 
	0 
	0 
	0 
	F 1 F 0 } I I #
edge $-1 $52 0 $41 1 $39 $78 forward 7 unknown #
pcurve $-1 0 forward { exppc nubs 2 open 7 
	-1 2 -0.83333333333333337 2 -0.66666666666666674 2 -0.5 2 -0.33333333333333337 2 
	-0.16666666666666663 2 0 2 
	1 0 
	1 0.28374051690943136 
	1 0.56748103381886272 
	1 0.85122155072829442 
	1 1.1349620676377261 
	1 1.4187025845471575 
	1 1.7024431014565886 
	1 1.9861836183660204 
	1 2.2699241352754522 
	1 2.5536646521848838 
	1 2.8374051690943154 
	1 3.1211456860037465 
	1 3.4048862029131772 
	0.001 
	spline forward { ref 2 } I I I I 
	} 0 0 #
pcurve $-1 0 forward { exppc nubs 2 open 7 
	0 2 0.16666666666666666 2 0.33333333333333331 2 0.5 2 0.66666666666666663 2 
	0.83333333333333337 2 1 2 
	0 3.4048862029131772 
	0 3.1211456860037465 
	0 2.8374051690943154 
	0 2.5536646521848834 
	0 2.2699241352754518 
	0 1.9861836183660202 
	0 1.7024431014565886 
	0 1.418702584547157 
	0 1.1349620676377257 
	0 0.8512215507282942 
	0 0.56748103381886272 
	0 0.28374051690943136 
	0 0 
	0.001 
	spline forward { ref 2 } I I I I 
	} 0 0 #
point $-1 65.000000467370782 57.629147299253987 77.629203258528989 #
face $-1 $79 $80 $10 $-1 $81 reversed single #
loop $-1 $-1 $82 $43 #
plane-surface $-1 -115.00036612185842 0 0 1 0 0 0 0 -1 forward_v I I I I #
coedge $-1 $83 $69 $84 $85 forward $44 $-1 #
coedge $-1 $86 $46 $83 $87 forward $32 $-1 #
coedge $-1 $46 $86 $88 $89 forward $32 $-1 #
coedge $-1 $72 $71 $46 $65 reversed $73 $-1 #
edge $-1 $90 -11.104695019249093 $91 11.104695019249093 $64 $92 forward 7 unknown #
coedge $-1 $48 $47 $93 $94 forward $22 $-1 #
coedge $-1 $95 $96 $47 $68 reversed $80 $-1 #
edge $-1 $75 -115.00036612185842 $97 115.00036612185842 $67 $98 forward 7 unknown #
coedge $-1 $61 $99 $48 $70 reversed $44 $-1 #
edge $-1 $100 -115.00036612185842 $74 115.00036612185842 $69 $101 forward 7 unknown #
coedge $-1 $64 $49 $99 $102 forward $73 $-1 #
coedge $-1 $49 $64 $95 $103 reversed $73 $-1 #
loop $-1 $-1 $71 $79 #
vertex $-1 $50 $104 #
vertex $-1 $50 $105 #
straight-curve $-1 115.00036612185842 0 11.104694551910001 0 1 0 I I #
point $-1 295.0000004673708 57.6291461420291 77.629202901216303 #
intcurve-curve $-1 forward { exactcur full nubs 1 open 2 
	0 1 1 1 
	295.0000004673708 57.6291461420291 77.629202901216303 
	65.000000467370782 57.629147299253987 77.629203258528989 
	0 
	null_surface 
	null_surface 
	nullbs 
	nullbs 
	I I 
	0 
	0 
	0 
	F 1 F 0 } I I #
face $-1 $-1 $73 $10 $-1 $106 reversed single #
loop $-1 $-1 $95 $58 #
plane-surface $-1 0 11.104695019249093 0 0 -1 0 0 0 -1 forward_v I I I I #
coedge $-1 $107 $93 $96 $108 forward $59 $-1 #
coedge $-1 $99 $61 $62 $87 reversed $44 $-1 #
coedge $-1 $93 $107 $61 $85 reversed $59 $-1 #
edge $-1 $100 -11.104694551910001 $109 11.104694551910001 $84 $110 forward 7 unknown #
coedge $-1 $63 $62 $107 $111 forward $32 $-1 #
edge $-1 $91 -115.00036612185842 $109 115.00036612185842 $83 $112 forward 7 unknown #
coedge $-1 $96 $95 $63 $89 reversed $80 $-1 #
edge $-1 $113 -115.00036612185842 $90 115.00036612185842 $88 $114 forward 7 unknown #
vertex $-1 $65 $115 #
vertex $-1 $102 $116 #
straight-curve $-1 115.00036612185842 0 -11.104694551910001 0 -1 0 I I #
coedge $-1 $82 $84 $66 $94 reversed $59 $-1 #
edge $-1 $97 -11.104695019249093 $100 11.104695019249093 $93 $117 forward 7 unknown #
coedge $-1 $88 $67 $72 $103 forward $80 $-1 #
coedge $-1 $67 $88 $82 $108 reversed $80 $-1 #
vertex $-1 $68 $118 #
straight-curve $-1 0 11.104695019249093 11.104694551910001 -1 0 0 I I #
coedge $-1 $69 $83 $71 $102 reversed $44 $-1 #
vertex $-1 $94 $119 #
straight-curve $-1 0 -11.104695019249093 11.104694551910001 1 0 0 I I #
edge $-1 $74 -11.104694551910001 $91 11.104694551910001 $71 $120 forward 7 unknown #
edge $-1 $75 -11.104694551910001 $90 11.104694551910001 $72 $121 forward 7 unknown #
point $-1 115.00036612185842 -11.104695019249093 11.104694551910001 #
point $-1 115.00036612185842 11.104695019249093 11.104694551910001 #
plane-surface $-1 115.00036612185842 0 0 -1 0 0 0 0 1 forward_v I I I I #
coedge $-1 $84 $82 $86 $111 reversed $59 $-1 #
edge $-1 $97 -11.104694551910001 $113 11.104694551910001 $96 $122 forward 7 unknown #
vertex $-1 $111 $123 #
straight-curve $-1 -115.00036612185842 -11.104695019249093 0 0 0 -1 I I #
edge $-1 $109 -11.104695019249093 $113 11.104695019249093 $107 $124 forward 7 unknown #
straight-curve $-1 0 -11.104695019249093 -11.104694551910001 -1 0 0 I I #
vertex $-1 $89 $125 #
straight-curve $-1 0 11.104695019249093 -11.104694551910001 1 0 0 I I #
point $-1 115.00036612185842 11.104695019249093 -11.104694551910001 #
point $-1 115.00036612185842 -11.104695019249093 -11.104694551910001 #
straight-curve $-1 -115.00036612185842 0 11.104694551910001 0 -1 0 I I #
point $-1 -115.00036612185842 11.104695019249093 11.104694551910001 #
point $-1 -115.00036612185842 -11.104695019249093 11.104694551910001 #
straight-curve $-1 115.00036612185842 -11.104695019249093 0 0 0 -1 I I #
straight-curve $-1 115.00036612185842 11.104695019249093 0 0 0 -1 I I #
straight-curve $-1 -115.00036612185842 11.104695019249093 0 0 0 -1 I I #
point $-1 -115.00036612185842 -11.104695019249093 -11.104694551910001 #
straight-curve $-1 -115.00036612185842 0 -11.104694551910001 0 1 0 I I #
point $-1 -115.00036612185842 11.104695019249093 -11.104694551910001 #
End-of-ACIS-data 