600 0 2 0           
24 FBMach with ACIS - 6.0.3 13 ACIS 6.0.3 NT 24 Wed May 23 19:54:42 2001 
1 9.9999999999999995e-007 1e-010 
body $2 $3 $-1 $-1 #
bdycol-kcp $-1 1 1 $4 #
model_id-kcp-attrib $-1 $-1 $-1 $0 1 990662082 140 -1114898431 1 #
lump $-1 $-1 $5 $0 #
body $6 $7 $-1 $8 #
shell $-1 $-1 $-1 $9 $-1 $3 #
model_id-kcp-attrib $-1 $-1 $-1 $4 1 990662082 170 -1112932350 1 #
lump $-1 $-1 $10 $4 #
transform $-1 1 0 0 0 1 0 0 0 1 -332.83896496012233 -5.2583019791054717 46.457132621063167 1 no_rotate no_reflect no_shear #
face $11 $12 $13 $5 $-1 $14 reversed single #
shell $-1 $-1 $-1 $15 $-1 $7 #
model_id-kcp-attrib $-1 $-1 $-1 $9 1 990662082 140 -1114898431 2 #
face $16 $17 $18 $5 $-1 $19 reversed single #
loop $-1 $-1 $20 $9 #
spline-surface $-1 forward { exactsur full nubs 1 1 open open none none 2 2 
	0 1 1 1 
	0 1 1 1 
	-326.89093173070927 -12.652386661090048 53.294826060558179 
	-326.22286513085464 -14.147072356464882 54.214774922552436 
	-328.52677574809127 -12.826010029722482 54.200681178744588 
	-327.85870914823658 -14.320695725097337 55.120630040738838 
	0 
	0 
	0 
	0 
	0 
	0 
	0 
	F 1 F 0 F 1 F 0 } I I I I #
face $-1 $21 $22 $10 $-1 $23 forward single #
model_id-kcp-attrib $-1 $-1 $-1 $12 1 990662082 140 -1114898431 3 #
face $24 $25 $26 $5 $-1 $27 reversed single #
loop $-1 $-1 $28 $12 #
spline-surface $-1 forward { exactsur full nurbs 2 1 both periodic open none none 4 2 
	0 2 0.61956355791554696 2 1.239127115831093 2 1.85869067374664 2 
	0 1 1 1 
	-325.36354884616418 -11.206743473478738 58.276759277743778 1 
	-326.71277032141757 -11.349945621773813 59.023896025464616 0.5 
	-326.51535003696023 -10.210711852806881 57.993221287593215 1 
	-326.31792975250289 -9.0714780838399065 56.962546549721864 0.5 
	-325.16612856170678 -10.067509704511835 57.246084539872413 1 
	-324.01432737091085 -11.063541325183685 57.529622530022998 0.5 
	-325.36354884616418 -11.206743473478738 58.276759277743778 1 
	-327.0566934832832 -14.198296294805722 54.64579894265259 1 
	-328.40591495853658 -14.341498443100804 55.392935690373413 0.5 
	-328.20849467407925 -13.202264674133879 54.362260952502027 1 
	-328.01107438962197 -12.063030905166904 53.331586214630661 0.5 
	-326.85927319882586 -13.059062525838812 53.61512420478121 1 
	-325.70747200802987 -14.055094146510683 53.898662194931802 0.5 
	-327.0566934832832 -14.198296294805722 54.64579894265259 1 
	0 
	0 
	0 
	0 
	0 
	0 
	0 
	F 1 F 0 F 1 F 0 } I I I I #
tcoedge-coedge $-1 $20 $20 $29 $30 forward $13 $31 0 1 #
face $-1 $32 $33 $10 $-1 $34 reversed single #
loop $-1 $-1 $35 $15 #
plane-surface $-1 0 0 14.043341471734024 0 0 1 1 0 0 forward_v I I I I #
model_id-kcp-attrib $-1 $-1 $-1 $17 1 990662082 140 -1114898431 4 #
face $36 $37 $38 $5 $-1 $39 reversed single #
loop $-1 $-1 $40 $17 #
spline-surface $-1 forward { exactsur full nubs 1 1 open open none none 2 2 
	0 1 1 1 
	0 1 1 1 
	-335.52753019041552 6.5784039828688279 41.477865344240094 
	-337.08474431017748 6.4131261456898656 42.340178844494318 
	-336.16348492153963 8.0012448189829612 40.6021355422941 
	-337.72069904130166 7.8359669818039279 41.464449042548331 
	0 
	0 
	0 
	0 
	0 
	0 
	0 
	F 1 F 0 F 1 F 0 } I I I I #
tcoedge-coedge $-1 $41 $42 $43 $44 reversed $18 $45 -1 0 #
tcoedge-coedge $-1 $42 $41 $20 $30 reversed $18 $46 -1 0 #
tedge-edge $-1 $47 0 $47 1 $20 $48 forward 7 unknown 0.0003947503298675362 #
pcurve $-1 0 forward { exppc nubs 2 periodic 19 
	0 2 0.083333333333333329 2 0.125 2 0.16666666666666666 2 0.20833333333333331 2 
	0.25 2 0.33333333333333331 2 0.41666666666666663 2 0.45833333333333331 2 0.5 2 
	0.54166666666666663 2 0.58333333333333326 2 0.66666666666666663 2 0.75 2 0.79166666666666674 2 
	0.83333333333333337 2 0.875 2 0.91666666666666674 2 1 2 
	0.976190481995308 0.5 
	0.976190481995308 0.38217340835181512 
	0.92124542420602595 0.27794219266303405 
	0.89047619184400406 0.21957271187727129 
	0.84499513992701603 0.17176878040859633 
	0.7976190441801192 0.12197301846202398 
	0.73809523157508938 0.087606929231315023 
	0.67857141897010731 0.053240840000633657 
	0.61175897625006948 0.037109818524968669 
	0.54761903123893019 0.021624037908353613 
	0.48168496189177362 0.024161841420776705 
	0.36394555234324533 0.028693633407247982 
	0.26190473073463699 0.087606929231315037 
	0.15986390912596815 0.14652022505541698 
	0.09706955736678903 0.24621964875773386 
	0.061904720381662129 0.30205132603100998 
	0.04324582728749219 0.36534103811636565 
	0.023809480314410679 0.43126782153856991 
	0.023809480314410703 0.5 
	0.023809480314410693 0.56873217846144086 
	0.043245827287491198 0.63465896188364523 
	0.061904720381649889 0.6979486739689662 
	0.097069557366785103 0.7537803512422534 
	0.1598639091259571 0.85347977494455507 
	0.26190473073463699 0.91239307076865472 
	0.36394555234334425 0.97130636659277025 
	0.48168496189176407 0.97583815857923639 
	0.54761903123888711 0.97837596209165767 
	0.61175897625007147 0.96289018147503591 
	0.67857141897001116 0.94675915999939897 
	0.73809523157508183 0.91239307076866982 
	0.79761904418017227 0.87802698153792935 
	0.84499513992702568 0.82823121959140455 
	0.89047619184400562 0.7804272881227402 
	0.92124542420602806 0.72205780733697433 
	0.976190481995308 0.61782659164819342 
	0.976190481995308 0.5 
	0.001 
	spline reversed { ref 0 } I I I I 
	} 0 0 #
face $-1 $49 $50 $10 $-1 $51 reversed single #
loop $-1 $-1 $52 $21 #
plane-surface $-1 0 0 -14.043341471734024 0 0 1 1 0 0 forward_v I I I I #
coedge $-1 $53 $54 $55 $56 forward $22 $-1 #
model_id-kcp-attrib $-1 $-1 $-1 $25 1 990662082 140 -1114898431 5 #
face $57 $58 $59 $5 $-1 $60 forward single #
loop $-1 $-1 $61 $25 #
spline-surface $-1 forward { exactsur full nurbs 2 1 both periodic open none none 4 2 
	0 2 0.58978305228364902 2 1.179566104567298 2 1.7693491568509461 2 
	0 1 1 1 
	-335.67250045412163 10.120034548308332 45.51274299707719 1 
	-336.1970270797047 11.293573899434016 44.790453224776407 0.5 
	-334.82246795890006 10.824859822724683 44.535659891928105 1 
	-333.4479088380956 10.356145746015393 44.28086655907984 0.5 
	-334.29794133331711 9.6513204715990284 45.257949664228903 1 
	-335.14797382853868 8.9464951971826352 46.235032769377995 0.5 
	-335.67250045412163 10.120034548308332 45.51274299707719 1 
	-337.36564509124065 7.1284817269813416 41.88178266198598 1 
	-337.89017171682377 8.3020210781070389 41.159492889685218 0.5 
	-336.5156125960192 7.8333070013977064 40.904699556836903 1 
	-335.14105347521456 7.3645929246884023 40.64990622398863 0.5 
	-335.99108597043613 6.6597676502720233 41.626989329137707 1 
	-336.84111846565764 5.9549423758556443 42.60407243428682 0.5 
	-337.36564509124065 7.1284817269813416 41.88178266198598 1 
	0 
	0 
	0 
	0 
	0 
	0 
	0 
	F 1 F 0 F 1 F 0 } I I I I #
tcoedge-coedge $-1 $40 $40 $62 $63 forward $26 $64 0 1 #
coedge $-1 $29 $28 $42 $65 forward $18 $66 #
coedge $-1 $28 $29 $41 $65 reversed $18 $67 #
tcoedge-coedge $-1 $43 $43 $28 $44 forward $68 $69 0 1 #
tedge-edge $-1 $70 0 $70 1 $28 $71 forward 7 unknown 0.00039475032980160429 #
pcurve $-1 0 forward { exppc nubs 2 periodic 19 
	-1 2 -0.91666666666666674 2 -0.875 2 -0.83333333333333337 2 -0.79166666666666674 2 
	-0.75 2 -0.66666666666666674 2 -0.58333333333333337 2 -0.54166666666666674 2 -0.5 2 
	-0.45833333333333337 2 -0.41666666666666669 2 -0.33333333333333337 2 -0.25 2 -0.20833333333333331 2 
	-0.16666666666666663 2 -0.12499999999999997 2 -0.083333333333333315 2 0 2 
	1.85869067374664 0 
	1.7732336312755357 0 
	1.7037997842677621 0 
	1.6639268820256179 0 
	1.626354339528215 0 
	1.5872324138351415 0 
	1.5489088947888627 0 
	1.5105853757425907 0 
	1.4714634500495236 0 
	1.4338909075521236 0 
	1.3940180053099822 0 
	1.3245841583022049 0 
	1.239127115831093 0 
	1.1536700733599843 0 
	1.0842362263522107 0 
	1.0443633241100785 0 
	1.006790781612686 0 
	0.96766885591960872 0 
	0.92934533687332743 0 
	0.89102181782705547 0 
	0.85189989213398842 0 
	0.81432734963658615 0 
	0.77445444739444214 0 
	0.70502060038665637 0 
	0.61956355791553719 0 
	0.53410651544443133 0 
	0.46467266843665622 0 
	0.42479976619451809 0 
	0.38722722369712032 0 
	0.3481052980040491 0 
	0.30978177895777348 0 
	0.27145825991149686 0 
	0.23233633421842484 0 
	0.19476379172102659 0 
	0.15489088947888777 0 
	0.085457042471110148 0 
	0 0 
	0.001 
	spline reversed { ref 1 } I I I I 
	} 0 0 #
pcurve $-1 0 forward { exppc nubs 2 periodic 19 
	-1 2 -0.91666666666666674 2 -0.875 2 -0.83333333333333337 2 -0.79166666666666674 2 
	-0.75 2 -0.66666666666666674 2 -0.58333333333333337 2 -0.54166666666666674 2 -0.5 2 
	-0.45833333333333337 2 -0.41666666666666669 2 -0.33333333333333337 2 -0.25 2 -0.20833333333333331 2 
	-0.16666666666666663 2 -0.12499999999999997 2 -0.083333333333333315 2 0 2 
	0 1 
	0.085457042471108677 1 
	0.15489088947888441 1 
	0.19476379172102892 1 
	0.2323363342184325 1 
	0.27145825991150047 1 
	0.30978177895777348 1 
	0.34810529800404721 0.99999999999999989 
	0.38722722369711665 1 
	0.42479976619451876 0.99999999999999978 
	0.464672668436662 0.99999999999999978 
	0.53410651544443488 1 
	0.61956355791553719 1 
	0.70502060038665892 0.99999999999999989 
	0.77445444739444513 0.99999999999999989 
	0.81432734963658815 0.99999999999999978 
	0.85189989213399109 0.99999999999999956 
	0.89102181782705703 0.99999999999999967 
	0.92934533687332743 0.99999999999999978 
	0.96766885591960095 0.99999999999999978 
	1.0067907816126695 1 
	1.0443633241100689 0.99999999999999989 
	1.0842362263522094 1 
	1.1536700733599847 1 
	1.239127115831093 1 
	1.3245841583022058 1 
	1.3940180053099853 1 
	1.4338909075521231 1 
	1.4714634500495203 1 
	1.5105853757425911 1 
	1.5489088947888665 1 
	1.5872324138351432 1 
	1.6263543395282156 1 
	1.6639268820256081 0.99999999999999989 
	1.7037997842677415 1 
	1.7732336312755244 1 
	1.85869067374664 1 
	0.001 
	spline reversed { ref 1 } I I I I 
	} 0 0 #
tvertex-vertex $-1 $30 $72 5.3290705182007514e-015 #
intcurve-curve $-1 forward { exactcur full nurbs 2 periodic 4 
	0 2 0.33333333333333298 2 0.66666666666666696 2 1 2 
	-327.0566934832832 -14.198296294805722 54.64579894265259 1 
	-325.70747200802987 -14.055094146510683 53.898662194931802 0.5 
	-326.85927319882586 -13.059062525838812 53.61512420478121 1 
	-328.01107438962197 -12.063030905166904 53.331586214630661 0.5 
	-328.20849467407925 -13.202264674133879 54.362260952502027 1 
	-328.40591495853658 -14.341498443100802 55.392935690373406 0.5 
	-327.0566934832832 -14.198296294805722 54.64579894265259 1 
	0 
	null_surface 
	null_surface 
	nullbs 
	nullbs 
	I I 
	0 
	0 
	0 
	F 1 F 0 } I I #
face $-1 $73 $74 $10 $-1 $75 reversed single #
loop $-1 $-1 $76 $32 #
plane-surface $-1 0 -18.029361414017469 0 0 1 0 0 0 1 forward_v I I I I #
coedge $-1 $77 $78 $79 $80 forward $33 $-1 #
coedge $-1 $81 $35 $82 $83 forward $22 $-1 #
coedge $-1 $35 $81 $84 $85 forward $22 $-1 #
coedge $-1 $86 $87 $35 $56 reversed $88 $-1 #
edge $-1 $89 -18.029361414017469 $90 18.029361414017469 $55 $91 forward 7 unknown #
model_id-kcp-attrib $-1 $-1 $-1 $37 1 990662082 140 -1114898431 6 #
face $92 $93 $94 $5 $-1 $95 forward single #
loop $-1 $96 $97 $37 #
spline-surface $-1 forward { exactsur full nubs 1 1 open open none none 2 2 
	0 1 1 1 
	0 1 1 1 
	-333.84876157127979 12.064315430318409 43.060424093738121 
	-337.50730192835283 11.676009397271692 45.086355339218464 
	-332.3546407438597 8.7214735214544774 45.117875783683445 
	-336.0131811009328 8.3331674884077742 47.143807029163767 
	0 
	0 
	0 
	0 
	0 
	0 
	0 
	F 1 F 0 F 1 F 0 } I I I I #
tcoedge-coedge $-1 $98 $99 $100 $101 reversed $38 $102 -1 0 #
tcoedge-coedge $-1 $99 $98 $40 $63 reversed $38 $103 -1 0 #
tedge-edge $-1 $104 0 $104 1 $40 $105 forward 7 unknown 0.00037577590134493018 #
pcurve $-1 0 forward { exppc nubs 2 periodic 19 
	0 2 0.083333333333333329 2 0.125 2 0.16666666666666666 2 0.20833333333333331 2 
	0.25 2 0.33333333333333331 2 0.41666666666666663 2 0.45833333333333331 2 0.5 2 
	0.54166666666666663 2 0.58333333333333326 2 0.66666666666666663 2 0.75 2 0.79166666666666674 2 
	0.83333333333333337 2 0.875 2 0.91666666666666674 2 1 2 
	0.97619044713338199 0.49999998020330166 
	0.97619044713338354 0.3821733937875908 
	0.92124539178409104 0.27794218272748583 
	0.89047616078849412 0.21957270453384015 
	0.84499511089121859 0.17176877518802919 
	0.79761901724822204 0.12197301545280823 
	0.73809520728649158 0.087606927748211633 
	0.67857139732474447 0.053240840043605381 
	0.61175895757185694 0.037109819284321985 
	0.54761901540902613 0.021624039355395738 
	0.48168494898987613 0.024161842755119702 
	0.36394554466996853 0.028693634540340976 
	0.26190472759274247 0.087606927748211619 
	0.15986391051552851 0.1465202209560752 
	0.097069561544919747 0.24621964023094126 
	0.061904726121378241 0.30205131502486715 
	0.043245833855828392 0.36534102429960125 
	0.023809487745883796 0.43126780479410526 
	0.0238094877458838 0.49999998020330566 
	0.023809487745883789 0.56873215561244783 
	0.043245833855844247 0.63465893610700463 
	0.061904726121405594 0.6979486453817767 
	0.097069561544919608 0.75378032017566299 
	0.15986391051551299 0.85347973945051203 
	0.26190472759274247 0.91239303265838378 
	0.36394554466997026 0.97130632586625454 
	0.48168494898988728 0.97583811765147599 
	0.54761901540901792 0.97837592105119908 
	0.6117589575718595 0.96289014112227056 
	0.6785713973247911 0.94675912036297682 
	0.73809520728650757 0.91239303265838778 
	0.79761901724821072 0.87802694495380662 
	0.84499511089121837 0.82823118521857586 
	0.89047616078855918 0.78042725587269801 
	0.92124539178412324 0.72205777767911639 
	0.97619044713338043 0.61782656661908164 
	0.97619044713338199 0.49999998020330166 
	0.001 
	spline reversed { ref 2 } I I I I 
	} 0 0 #
edge $-1 $70 0 $47 1 $42 $106 forward 7 unknown #
pcurve $-1 0 forward { exppc nubs 2 open 7 
	0 2 0.16666666666666666 2 0.33333333333333331 2 0.5 2 0.66666666666666663 2 
	0.83333333333333337 2 1 2 
	0 0 
	0 0.083333333333333329 
	0 0.16666666666666666 
	0 0.25 
	0 0.33333333333333331 
	0 0.41666666666666663 
	0 0.5 
	0 0.58333333333333326 
	0 0.66666666666666663 
	0 0.75 
	0 0.83333333333333348 
	0 0.91666666666666674 
	0 1 
	0.001 
	spline reversed { ref 1 } I I I I 
	} 0 0 #
pcurve $-1 0 forward { exppc nubs 2 open 7 
	-1 2 -0.83333333333333337 2 -0.66666666666666674 2 -0.5 2 -0.33333333333333337 2 
	-0.16666666666666663 2 0 2 
	1.85869067374664 1 
	1.85869067374664 0.91666666666666674 
	1.85869067374664 0.83333333333333348 
	1.85869067374664 0.75000000000000011 
	1.85869067374664 0.66666666666666674 
	1.85869067374664 0.58333333333333337 
	1.85869067374664 0.5 
	1.85869067374664 0.41666666666666669 
	1.85869067374664 0.33333333333333337 
	1.85869067374664 0.25 
	1.85869067374664 0.16666666666666663 
	1.85869067374664 0.083333333333333315 
	1.85869067374664 0 
	0.001 
	spline reversed { ref 1 } I I I I 
	} 0 0 #
loop $-1 $-1 $43 $93 #
pcurve $-1 0 forward { exppc nubs 2 periodic 19 
	0 2 0.083333333333333329 2 0.125 2 0.16666666666666666 2 0.20833333333333331 2 
	0.25 2 0.33333333333333331 2 0.41666666666666663 2 0.45833333333333331 2 0.5 2 
	0.54166666666666663 2 0.58333333333333326 2 0.66666666666666663 2 0.75 2 0.79166666666666674 2 
	0.83333333333333337 2 0.875 2 0.91666666666666674 2 1 2 
	0.71291822072308364 0.5 
	0.71291822072308364 0.44731616813695513 
	0.68835062400502789 0.40071123995041469 
	0.67459276984293703 0.37461248016599069 
	0.65425681631466281 0.35323789695295982 
	0.63307353138938416 0.33097270610605989 
	0.60645863494484342 0.31560658847935058 
	0.57984373850024329 0.30024047085260697 
	0.54996987514414231 0.2930278033951752 
	0.52129096632225846 0.28610364263603416 
	0.49180985026058349 0.28723837132231467 
	0.43916500015048737 0.28926467254781407 
	0.39353946338835638 0.31560658847935058 
	0.34791392662624343 0.34194850441087671 
	0.31983667323418696 0.38652713137190142 
	0.30411341133463632 0.41149116247007367 
	0.29577045604099078 0.43978990644223526 
	0.28707987761011117 0.46926776474656634 
	0.28707987761011117 0.50000000000000677 
	0.28707987761011117 0.53073223525343116 
	0.29577045604099078 0.56021009355776064 
	0.30411341133463943 0.58850883752993122 
	0.31983667323418685 0.61347286862810069 
	0.34791392662624687 0.65805149558913512 
	0.39353946338835638 0.68439341152066302 
	0.43916500015044252 0.71073532745217749 
	0.49180985026057977 0.71276162867767778 
	0.52129096632225291 0.71389635736395785 
	0.54996987514414408 0.70697219660481414 
	0.57984373850029336 0.69975952914736983 
	0.60645863494484009 0.68439341152065614 
	0.63307353138940203 0.66902729389393367 
	0.65425681631466559 0.64676210304705117 
	0.67459276984290484 0.62538751983405849 
	0.68835062400502878 0.59928876004957399 
	0.71291822072308364 0.55268383186303938 
	0.71291822072308364 0.5 
	0.001 
	spline forward { exactsur full nubs 1 1 open open none none 2 2 
	0 1 1 1 
	0 1 1 1 
	-328.2580049865303 -9.0177235841762808 57.82293010246444 
	-326.76388415911026 -12.360565493040212 59.880381792409764 
	-324.59946462945726 -8.6294175511295705 55.796998856984104 
	-323.10534380203723 -11.972259459993495 57.854450546929414 
	0 
	0 
	0 
	0 
	0 
	0 
	0 
	F 1 F 0 F 1 F 0 } I I I I 
	} 0 0 #
tvertex-vertex $-1 $44 $107 5.9474803900567987e-014 #
intcurve-curve $-1 forward { exactcur full nurbs 2 periodic 4 
	0 2 0.33333333333333298 2 0.66666666666666696 2 1 2 
	-325.36354884616418 -11.206743473478738 58.276759277743778 1 
	-326.71277032141757 -11.349945621773815 59.023896025464623 0.5 
	-326.51535003696023 -10.210711852806881 57.993221287593215 1 
	-326.31792975250289 -9.0714780838399065 56.962546549721864 0.5 
	-325.16612856170678 -10.067509704511835 57.246084539872413 1 
	-324.01432737091085 -11.063541325183685 57.529622530022998 0.5 
	-325.36354884616418 -11.206743473478738 58.276759277743778 1 
	0 
	null_surface 
	null_surface 
	nullbs 
	nullbs 
	I I 
	0 
	0 
	0 
	F 1 F 0 } I I #
point $-1 -327.0566934832832 -14.198296294805722 54.64579894265259 #
face $-1 $108 $109 $10 $-1 $110 reversed single #
loop $-1 $-1 $111 $49 #
plane-surface $-1 -10.64171005090239 0 0 1 0 0 0 0 -1 forward_v I I I I #
coedge $-1 $112 $84 $113 $114 forward $50 $-1 #
coedge $-1 $115 $52 $112 $116 forward $33 $-1 #
coedge $-1 $52 $115 $117 $118 forward $33 $-1 #
coedge $-1 $87 $86 $52 $80 reversed $88 $-1 #
edge $-1 $119 -18.029361414017469 $120 18.029361414017469 $79 $121 forward 7 unknown #
coedge $-1 $54 $53 $122 $123 forward $22 $-1 #
coedge $-1 $124 $125 $53 $83 reversed $109 $-1 #
edge $-1 $90 -10.64171005090239 $126 10.64171005090239 $82 $127 forward 7 unknown #
coedge $-1 $76 $128 $54 $85 reversed $50 $-1 #
edge $-1 $129 -10.64171005090239 $89 10.64171005090239 $84 $130 forward 7 unknown #
coedge $-1 $79 $55 $128 $131 forward $88 $-1 #
coedge $-1 $55 $79 $124 $132 reversed $88 $-1 #
loop $-1 $-1 $86 $108 #
vertex $-1 $56 $133 #
vertex $-1 $56 $134 #
straight-curve $-1 10.64171005090239 0 14.043341471734024 0 1 0 I I #
model_id-kcp-attrib $-1 $-1 $-1 $58 1 990662082 140 -1114898431 7 #
face $135 $-1 $136 $5 $-1 $137 forward single #
loop $-1 $-1 $138 $58 #
spline-surface $-1 forward { exactsur full nurbs 2 2 both open periodic none none 3 4 
	0 2 1.2509255832441879 2 2.5018511664883758 2 
	0 2 0.33333333333333298 2 0.66666666666666696 2 1 2 
	-336.67312722346185 10.013831152024444 46.066844042635211 1 
	-341.07530327997137 2.2357938165742581 36.626347171398116 0.70710678118654702 
	-336.45065622972004 -8.1110694956639762 42.994632596727293 1 
	-331.82600917946883 -18.457932807902246 49.362918022056512 0.70710678118654702 
	-327.42383312295931 -10.67989547245206 58.80341489329362 1 
	-335.44080050682982 7.2567091588295298 47.763796952446093 0.5 
	-338.6699315489181 1.5512804154050457 40.838903193467068 0.35355339059327401 
	-335.27761121529898 -6.0384609036382315 45.510235708985434 0.5 
	-331.88529088167979 -13.628202222681566 50.181568224503771 0.35355339059327401 
	-328.65615983959151 -7.9227734792571454 57.106461983482809 0.5 
	-333.44372790312241 8.9126308487063213 45.468230710204914 1 
	-337.25938145242134 2.1708978092690288 37.285535395096865 0.70710678118654702 
	-333.25089776048617 -6.7974045063717412 42.805344365520625 1 
	-329.24241406855089 -15.765706822012511 48.325153335944421 0.70710678118654702 
	-325.42676051925196 -9.02397378257524 56.507848651052484 1 
	-331.44665529941517 10.56855253858317 43.172664467963784 0.5 
	-335.84883135592457 2.7905152031329976 33.732167596726654 0.35355339059327401 
	-331.22418430567336 -7.5563481091052509 40.100453022055859 0.5 
	-326.59953725542204 -17.903211421343514 46.468738447385064 0.35355339059327401 
	-322.19736119891257 -10.125174085893327 55.909235318622201 0.5 
	-334.6760546197545 11.669752841901264 43.77127780039406 1 
	-339.6647531834746 2.855411210438227 33.072979373027898 0.70710678118654702 
	-334.42394277490723 -8.8700130983975072 40.289741253262513 1 
	-329.18313236633998 -20.595437407233248 47.506503133497176 0.70710678118654702 
	-324.19443380261987 -11.781095775770169 58.204801560863331 1 
	-337.90545394009405 12.770953145219359 44.369891132824378 0.5 
	-343.48067501102469 2.9203072177434422 32.413791149329143 0.35355339059327401 
	-337.62370124414127 -10.183678087689756 40.479029484469216 0.5 
	-331.76672747725792 -23.287663393122941 48.544267819609267 0.35355339059327401 
	-326.19150640632716 -13.437017465647003 60.500367803104496 0.5 
	-336.67312722346185 10.013831152024444 46.066844042635211 1 
	-341.07530327997137 2.2357938165742581 36.626347171398116 0.70710678118654702 
	-336.45065622972004 -8.1110694956639762 42.994632596727293 1 
	-331.82600917946883 -18.457932807902246 49.362918022056512 0.70710678118654702 
	-327.42383312295931 -10.67989547245206 58.80341489329362 1 
	0 
	0 
	0 
	0 
	0 
	0 
	0 
	F 1 F 0 F 1 F 0 } I I I I #
loop $-1 $-1 $100 $37 #
tcoedge-coedge $-1 $97 $97 $138 $139 reversed $59 $140 -1 0 #
coedge $-1 $62 $61 $99 $141 forward $38 $142 #
coedge $-1 $61 $62 $98 $141 reversed $38 $143 #
tcoedge-coedge $-1 $100 $100 $61 $101 forward $96 $144 0 1 #
tedge-edge $-1 $145 0 $145 1 $61 $146 forward 7 unknown 0.00037577590136213273 #
pcurve $-1 0 forward { exppc nubs 2 periodic 19 
	-1 2 -0.91666666666666674 2 -0.875 2 -0.83333333333333337 2 -0.79166666666666674 2 
	-0.75 2 -0.66666666666666674 2 -0.58333333333333337 2 -0.54166666666666674 2 -0.5 2 
	-0.45833333333333337 2 -0.41666666666666669 2 -0.33333333333333337 2 -0.25 2 -0.20833333333333331 2 
	-0.16666666666666663 2 -0.12499999999999997 2 -0.083333333333333315 2 0 2 
	1.7693491568509461 0 
	1.6879997703290686 0 
	1.6219033937800429 0 
	1.5839470587320306 0 
	1.5481805122444825 0 
	1.5109390566235281 0 
	1.4744576307091219 0 
	1.4379762047947162 0 
	1.4007347491737623 0 
	1.3649682026862198 0 
	1.3270118676382143 0 
	1.2609154910891878 0 
	1.1795661045673107 0 
	1.0982167180454256 0 
	1.03212034149639 0 
	0.99416400644838032 0 
	0.95839745996083492 0 
	0.92115600433987888 0 
	0.88467457842547137 0 
	0.84819315251106597 0 
	0.81095169689011248 0 
	0.7751851504025713 0 
	0.73722881535456708 0 
	0.6711324388055222 0 
	0.5897830522836266 0 
	0.50843366576175342 0 
	0.44233728921272919 0 
	0.40438095416472458 0 
	0.36861440767718257 0 
	0.33137295205622952 0 
	0.29489152614182451 0 
	0.25841010022741973 0 
	0.22116864460646649 0 
	0.1854020981189225 0 
	0.14744576307091473 0 
	0.081349386521884462 0 
	0 0 
	0.001 
	spline reversed { ref 4 } I I I I 
	} 0 0 #
pcurve $-1 0 forward { exppc nubs 2 periodic 19 
	-1 2 -0.91666666666666674 2 -0.875 2 -0.83333333333333337 2 -0.79166666666666674 2 
	-0.75 2 -0.66666666666666674 2 -0.58333333333333337 2 -0.54166666666666674 2 -0.5 2 
	-0.45833333333333337 2 -0.41666666666666669 2 -0.33333333333333337 2 -0.25 2 -0.20833333333333331 2 
	-0.16666666666666663 2 -0.12499999999999997 2 -0.083333333333333315 2 0 2 
	0 1 
	0.081349386521878786 1 
	0.14744576307090523 1 
	0.18540209811891828 1 
	0.22116864460646657 1 
	0.25841010022741967 1 
	0.29489152614182451 1 
	0.33137295205622941 1 
	0.36861440767718207 1 
	0.40438095416472386 1 
	0.44233728921272897 1 
	0.50843366576175364 1 
	0.5897830522836266 1 
	0.6711324388055222 1 
	0.73722881535456708 0.99999999999999989 
	0.77518515040257041 0.99999999999999978 
	0.81095169689011037 0.99999999999999978 
	0.84819315251106486 0.99999999999999978 
	0.88467457842547137 0.99999999999999978 
	0.92115600433987599 0.99999999999999989 
	0.95839745996082859 0.99999999999999989 
	0.99416400644837299 0.99999999999999978 
	1.0321203414963813 0.99999999999999978 
	1.098216718045421 1 
	1.1795661045673107 1 
	1.2609154910891878 1 
	1.3270118676382145 1 
	1.3649682026862247 0.99999999999999989 
	1.4007347491737707 1 
	1.43797620479472 1 
	1.4744576307091219 1 
	1.510939056623527 1 
	1.5481805122444798 1 
	1.5839470587320248 0.99999999999999978 
	1.6219033937800338 0.99999999999999956 
	1.6879997703290628 0.99999999999999978 
	1.7693491568509461 1 
	0.001 
	spline reversed { ref 4 } I I I I 
	} 0 0 #
tvertex-vertex $-1 $63 $147 7.3241068776355799e-015 #
intcurve-curve $-1 forward { exactcur full nurbs 2 periodic 4 
	0 2 0.33333333333333298 2 0.66666666666666696 2 1 2 
	-337.36564509124065 7.1284817269813416 41.88178266198598 1 
	-336.84111846565764 5.9549423758556443 42.60407243428682 0.5 
	-335.99108597043613 6.6597676502720233 41.626989329137707 1 
	-335.14105347521456 7.3645929246884023 40.64990622398863 0.5 
	-336.5156125960192 7.8333070013977064 40.904699556836903 1 
	-337.89017171682377 8.3020210781070407 41.159492889685218 0.5 
	-337.36564509124065 7.1284817269813416 41.88178266198598 1 
	0 
	null_surface 
	null_surface 
	nullbs 
	nullbs 
	I I 
	0 
	0 
	0 
	F 1 F 0 } I I #
intcurve-curve $-1 forward { exactcur full nubs 1 open 2 
	0 1 1 1 
	-325.36354884616418 -11.206743473478738 58.276759277743778 
	-327.0566934832832 -14.198296294805722 54.64579894265259 
	0 
	null_surface 
	null_surface 
	nullbs 
	nullbs 
	I I 
	0 
	0 
	0 
	F 1 F 0 } I I #
point $-1 -325.36354884616418 -11.206743473478738 58.276759277743778 #
face $-1 $-1 $88 $10 $-1 $148 reversed single #
loop $-1 $-1 $124 $73 #
plane-surface $-1 0 18.029361414017469 0 0 -1 0 0 0 -1 forward_v I I I I #
coedge $-1 $149 $122 $125 $150 forward $74 $-1 #
coedge $-1 $128 $76 $77 $116 reversed $50 $-1 #
coedge $-1 $122 $149 $76 $114 reversed $74 $-1 #
edge $-1 $129 -14.043341471734024 $151 14.043341471734024 $113 $152 forward 7 unknown #
coedge $-1 $78 $77 $149 $153 forward $33 $-1 #
edge $-1 $120 -10.64171005090239 $151 10.64171005090239 $112 $154 forward 7 unknown #
coedge $-1 $125 $124 $78 $118 reversed $109 $-1 #
edge $-1 $155 -10.64171005090239 $119 10.64171005090239 $117 $156 forward 7 unknown #
vertex $-1 $80 $157 #
vertex $-1 $131 $158 #
straight-curve $-1 10.64171005090239 0 -14.043341471734024 0 -1 0 I I #
coedge $-1 $111 $113 $81 $123 reversed $74 $-1 #
edge $-1 $126 -18.029361414017469 $129 18.029361414017469 $122 $159 forward 7 unknown #
coedge $-1 $117 $82 $87 $132 forward $109 $-1 #
coedge $-1 $82 $117 $111 $150 reversed $109 $-1 #
vertex $-1 $83 $160 #
straight-curve $-1 0 18.029361414017469 14.043341471734024 -1 0 0 I I #
coedge $-1 $84 $112 $86 $131 reversed $50 $-1 #
vertex $-1 $123 $161 #
straight-curve $-1 0 -18.029361414017469 14.043341471734024 1 0 0 I I #
edge $-1 $89 -14.043341471734024 $120 14.043341471734024 $86 $162 forward 7 unknown #
edge $-1 $90 -14.043341471734024 $119 14.043341471734024 $87 $163 forward 7 unknown #
point $-1 10.64171005090239 -18.029361414017469 14.043341471734024 #
point $-1 10.64171005090239 18.029361414017469 14.043341471734024 #
model_id-kcp-attrib $-1 $-1 $-1 $93 1 990662082 140 -1114898431 8 #
loop $-1 $68 $164 $93 #
spline-surface $-1 forward { ref 13 } I I I I #
tcoedge-coedge $-1 $165 $166 $97 $139 forward $94 $167 0 1 #
tedge-edge $-1 $168 0 $168 1 $97 $169 forward 7 unknown 0.00010628969263927245 #
pcurve $-1 0 forward { exppc nubs 2 periodic 25 
	-1 2 -0.95833333333333337 2 -0.91666666666666674 2 -0.875 2 -0.83333333333333337 2 
	-0.79166666666666674 2 -0.75 2 -0.70833333333333337 2 -0.66666666666666674 2 -0.625 2 
	-0.58333333333333337 2 -0.54166666666666674 2 -0.5 2 -0.45833333333333337 2 -0.41666666666666669 2 
	-0.375 2 -0.33333333333333337 2 -0.29166666666666669 2 -0.25 2 -0.20833333333333331 2 
	-0.16666666666666663 2 -0.12499999999999997 2 -0.083333333333333315 2 -0.041666666666666657 2 0 2 
	0.97618917327164734 0.50000095083339835 
	0.97618917327164645 0.554986540308117 
	0.96365787923818436 0.60852514058612261 
	0.94973421920100565 0.66801247422834509 
	0.92124426866337927 0.72205813909666872 
	0.89047512208275226 0.78042745715444028 
	0.8449941969621122 0.82823125535082442 
	0.79761823329477544 0.87802687847206129 
	0.73809458663582361 0.91239287189375429 
	0.67857093997685425 0.9467588653154575 
	0.6117586835229436 0.96288984181951376 
	0.54761891732716261 0.97837557926341423 
	0.48168503179724625 0.97583778282611988 
	0.42063513778805961 0.97348797131010645 
	0.36215576563189461 0.95580254779484852 
	0.30952433069132645 0.93988566663111039 
	0.26190541336416956 0.91239287189375751 
	0.21428649603703054 0.88490007715641483 
	0.1741863551299288 0.84727835804212148 
	0.12963064301093821 0.8054764479151395 
	0.097070699539376679 0.75378059456285007 
	0.061905960590081584 0.69794907294236386 
	0.043247119514949001 0.63465953730208546 
	0.023810826728352559 0.56873293767679545 
	0.023810826728352573 0.50000095083339668 
	0.023810826728352573 0.4312689639899791 
	0.043247119514941319 0.36534236436470952 
	0.061905960590062994 0.30205282872446249 
	0.097070699539373306 0.24622130710394885 
	0.12963064301092514 0.19452545375167196 
	0.17418635512992814 0.15272354362467841 
	0.21428649603700411 0.11510182451040933 
	0.26190541336418305 0.087609029773044148 
	0.30952433069136864 0.060116235035675099 
	0.36215576563188551 0.044199353871952174 
	0.42063513778803913 0.026513930356697295 
	0.48168503179725092 0.024164118840682636 
	0.54761891732716328 0.021626322403388194 
	0.61175868352293683 0.037112059847286827 
	0.67857093997687268 0.053243036351349089 
	0.73809458663582361 0.087609029773042441 
	0.79761823329478354 0.12197502319474095 
	0.8449941969621152 0.17177064631597275 
	0.89047512208275603 0.2195744445123578 
	0.92124426866338371 0.27794376257012887 
	0.9497342192009961 0.33198942743842419 
	0.9636578792381808 0.39147676108067242 
	0.97618917327164823 0.4450153613587009 
	0.97618917327164734 0.50000095083339835 
	0.001 
	spline forward { ref 8 } I I I I 
	} 0 0 #
edge $-1 $145 0 $104 1 $99 $170 forward 7 unknown #
pcurve $-1 0 forward { exppc nubs 2 open 7 
	0 2 0.16666666666666666 2 0.33333333333333331 2 0.5 2 0.66666666666666663 2 
	0.83333333333333337 2 1 2 
	0 0 
	0 0.083333333333333329 
	0 0.16666666666666666 
	0 0.25 
	0 0.33333333333333331 
	0 0.41666666666666663 
	0 0.5 
	0 0.58333333333333326 
	0 0.66666666666666663 
	0 0.75 
	0 0.83333333333333348 
	0 0.91666666666666674 
	0 1 
	0.001 
	spline reversed { ref 4 } I I I I 
	} 0 0 #
pcurve $-1 0 forward { exppc nubs 2 open 7 
	-1 2 -0.83333333333333337 2 -0.66666666666666674 2 -0.5 2 -0.33333333333333337 2 
	-0.16666666666666663 2 0 2 
	1.7693491568509461 1 
	1.7693491568509461 0.91666666666666674 
	1.7693491568509461 0.83333333333333348 
	1.7693491568509461 0.75000000000000011 
	1.7693491568509461 0.66666666666666674 
	1.7693491568509461 0.58333333333333337 
	1.7693491568509461 0.5 
	1.7693491568509461 0.41666666666666669 
	1.7693491568509461 0.33333333333333337 
	1.7693491568509461 0.25 
	1.7693491568509461 0.16666666666666663 
	1.7693491568509461 0.083333333333333315 
	1.7693491568509461 0 
	0.001 
	spline reversed { ref 4 } I I I I 
	} 0 0 #
pcurve $-1 0 forward { exppc nubs 2 periodic 19 
	0 2 0.083333333333333329 2 0.125 2 0.16666666666666666 2 0.20833333333333331 2 
	0.25 2 0.33333333333333331 2 0.41666666666666663 2 0.45833333333333331 2 0.5 2 
	0.54166666666666663 2 0.58333333333333326 2 0.66666666666666663 2 0.75 2 0.79166666666666674 2 
	0.83333333333333337 2 0.875 2 0.91666666666666674 2 1 2 
	0.70268480495008168 0.50000095083339835 
	0.70268480495008234 0.44984946796259367 
	0.67929809668660546 0.40548469465378151 
	0.66620154005905918 0.38064042160084821 
	0.6468430729740352 0.36029324855040573 
	0.62667800309380262 0.33909827662286229 
	0.60134240247503412 0.32447076078553577 
	0.57600680185627073 0.30984324494821225 
	0.54756888279441118 0.30297726812661557 
	0.52026848049501573 0.2963859303778803 
	0.49220443057884622 0.29746611616279039 
	0.44209005572853899 0.29939501935013002 
	0.39865759752495233 0.32447076078553921 
	0.35522513932136934 0.3495465022209463 
	0.32849747273454522 0.39198237234240879 
	0.31352997944592087 0.41574645961043227 
	0.30558804423155239 0.4426849704096063 
	0.29731519504991821 0.47074591915874697 
	0.29731519504991821 0.50000095083339668 
	0.29731519504991821 0.52925598250802597 
	0.30558804423155911 0.55731693125718995 
	0.31352997944593297 0.58425544205638269 
	0.3284974727345451 0.6080195293243883 
	0.35522513932137234 0.65045539944585851 
	0.39865759752495233 0.6755311408812642 
	0.44209005572853211 0.70060688231666979 
	0.49220443057884522 0.70253578550401008 
	0.52026848049500352 0.70361597128891995 
	0.54756888279441118 0.69702463354018251 
	0.57600680185627384 0.69015865671858589 
	0.60134240247504089 0.67553114088126087 
	0.62667800309379118 0.66090362504394562 
	0.64684307297403532 0.63970865311639102 
	0.66620154005909127 0.61936148006591596 
	0.67929809668661922 0.59451720701301769 
	0.70268480495008101 0.55015243370423472 
	0.70268480495008168 0.50000095083339835 
	0.001 
	spline forward { ref 8 } I I I I 
	} 0 0 #
tvertex-vertex $-1 $101 $171 5.8268836748910952e-014 #
intcurve-curve $-1 forward { exactcur full nurbs 2 periodic 4 
	0 2 0.33333333333333298 2 0.66666666666666696 2 1 2 
	-335.67250045412163 10.120034548308332 45.51274299707719 1 
	-336.1970270797047 11.293573899434019 44.7904532247764 0.5 
	-334.82246795890006 10.824859822724683 44.535659891928105 1 
	-333.4479088380956 10.356145746015393 44.28086655907984 0.5 
	-334.29794133331711 9.6513204715990284 45.257949664228903 1 
	-335.14797382853868 8.9464951971826316 46.235032769378002 0.5 
	-335.67250045412163 10.120034548308332 45.51274299707719 1 
	0 
	null_surface 
	null_surface 
	nullbs 
	nullbs 
	I I 
	0 
	0 
	0 
	F 1 F 0 } I I #
point $-1 -337.36564509124065 7.1284817269813416 41.88178266198598 #
plane-surface $-1 10.64171005090239 0 0 -1 0 0 0 0 1 forward_v I I I I #
coedge $-1 $113 $111 $115 $153 reversed $74 $-1 #
edge $-1 $126 -14.043341471734024 $155 14.043341471734024 $125 $172 forward 7 unknown #
vertex $-1 $153 $173 #
straight-curve $-1 -10.64171005090239 -18.029361414017469 0 0 0 -1 I I #
edge $-1 $151 -18.029361414017469 $155 18.029361414017469 $149 $174 forward 7 unknown #
straight-curve $-1 0 -18.029361414017469 -14.043341471734024 -1 0 0 I I #
vertex $-1 $118 $175 #
straight-curve $-1 0 18.029361414017469 -14.043341471734024 1 0 0 I I #
point $-1 10.64171005090239 18.029361414017469 -14.043341471734024 #
point $-1 10.64171005090239 -18.029361414017469 -14.043341471734024 #
straight-curve $-1 -10.64171005090239 0 14.043341471734024 0 -1 0 I I #
point $-1 -10.64171005090239 18.029361414017469 14.043341471734024 #
point $-1 -10.64171005090239 -18.029361414017469 14.043341471734024 #
straight-curve $-1 10.64171005090239 -18.029361414017469 0 0 0 -1 I I #
straight-curve $-1 10.64171005090239 18.029361414017469 0 0 0 -1 I I #
tcoedge-coedge $-1 $164 $164 $176 $177 reversed $136 $178 -1 0 #
tcoedge-coedge $-1 $176 $138 $166 $179 reversed $94 $180 -2.5018511664883758 0 #
tcoedge-coedge $-1 $138 $176 $165 $179 forward $94 $181 0 2.5018511664883758 #
pcurve $-1 0 forward { exppc nubs 2 periodic 25 
	0 2 0.041666666666666664 2 0.083333333333333329 2 0.125 2 0.16666666666666666 2 
	0.20833333333333331 2 0.25 2 0.29166666666666663 2 0.33333333333333331 2 0.375 2 
	0.41666666666666663 2 0.45833333333333331 2 0.5 2 0.54166666666666663 2 0.58333333333333326 2 
	0.625 2 0.66666666666666663 2 0.70833333333333326 2 0.75 2 0.79166666666666674 2 
	0.83333333333333337 2 0.875 2 0.91666666666666674 2 0.95833333333333337 2 1 2 
	0 1 
	0 0.97796143248413525 
	0 0.95833333329235038 
	0 0.93654434248916973 
	0 0.9166666666666663 
	0 0.89521452145211655 
	0 0.87499999999994571 
	1.1410165992075753e-031 0.85395189003433791 
	2.2587471453701549e-031 0.83333333333333348 
	1.141016599207572e-031 0.81271477663232694 
	0 0.79166666666671737 
	0 0.77145214521454808 
	0 0.75000000000000011 
	0 0.73012232417749812 
	0 0.70833333337431925 
	9.6455934477358581e-032 0.68870523418253193 
	2.0475733460350258e-031 0.66666666666666397 
	1.2245545907358656e-026 0.64462809915080188 
	2.3151552867969786e-026 0.62499999995901911 
	1.1044777515592722e-026 0.60321100915583692 
	0 0.58333333333333226 
	0 0.56188118811878351 
	0 0.54166666666661356 
	0 0.52061855670100499 
	0 0.49999999999999994 
	5.0827584584340037e-028 0.4793814432989949 
	1.027140771808512e-027 0.45833333333338672 
	5.2882495182221665e-028 0.43811881188121682 
	0 0.41666666666666824 
	1.5325455839504615e-025 0.39678899084416358 
	3.2124513200299366e-025 0.37500000004098166 
	1.6991478057185425e-025 0.35537190084919723 
	0 0.33333333333333298 
	2.5500271385450391e-026 0.31129476581746662 
	4.8211450585765061e-026 0.29166666662568103 
	2.2999963806049584e-026 0.26987767582250227 
	1.0951997847322726e-032 0.25000000000000033 
	5.3133454902851617e-033 0.22854785478545039 
	0 0.20833333333327919 
	0 0.18728522336767134 
	0 0.16666666666666649 
	0 0.14604810996566128 
	0 0.12500000000005274 
	0 0.10478547854788284 
	0 0.083333333333334147 
	0 0.063455657510830293 
	0 0.041666666707649375 
	0 0.022038567515864613 
	0 0 
	0.001 
	spline forward { ref 15 } I I I I 
	} 0 0 #
tvertex-vertex $-1 $179 $182 5.7092672562888668e-014 #
intcurve-curve $-1 forward { exactcur full nurbs 2 periodic 4 
	0 2 0.33333333333333298 2 0.66666666666666696 2 1 2 
	-336.67312722346185 10.013831152024444 46.066844042635211 1 
	-337.90545394009405 12.770953145219359 44.369891132824378 0.5 
	-334.6760546197545 11.669752841901264 43.77127780039406 1 
	-331.44665529941517 10.56855253858317 43.172664467963784 0.5 
	-333.44372790312241 8.9126308487063213 45.468230710204914 1 
	-335.44080050682982 7.2567091588295245 47.7637969524461 0.5 
	-336.67312722346185 10.013831152024444 46.066844042635211 1 
	0 
	null_surface 
	null_surface 
	nullbs 
	nullbs 
	I I 
	0 
	0 
	0 
	F 1 F 0 } I I #
intcurve-curve $-1 forward { exactcur full nubs 1 open 2 
	0 1 1 1 
	-335.67250045412163 10.120034548308332 45.51274299707719 
	-337.36564509124065 7.1284817269813416 41.88178266198598 
	0 
	null_surface 
	null_surface 
	nullbs 
	nullbs 
	I I 
	0 
	0 
	0 
	F 1 F 0 } I I #
point $-1 -335.67250045412163 10.120034548308332 45.51274299707719 #
straight-curve $-1 -10.64171005090239 18.029361414017469 0 0 0 -1 I I #
point $-1 -10.64171005090239 -18.029361414017469 -14.043341471734024 #
straight-curve $-1 -10.64171005090239 0 -14.043341471734024 0 1 0 I I #
point $-1 -10.64171005090239 18.029361414017469 -14.043341471734024 #
tcoedge-coedge $-1 $166 $165 $164 $177 forward $94 $183 0 1 #
tedge-edge $-1 $184 0 $184 1 $176 $185 forward 7 unknown 0.00010628969268422068 #
pcurve $-1 0 forward { exppc nubs 2 periodic 25 
	-1 2 -0.95833333333333337 2 -0.91666666666666674 2 -0.875 2 -0.83333333333333337 2 
	-0.79166666666666674 2 -0.75 2 -0.70833333333333337 2 -0.66666666666666674 2 -0.625 2 
	-0.58333333333333337 2 -0.54166666666666674 2 -0.5 2 -0.45833333333333337 2 -0.41666666666666669 2 
	-0.375 2 -0.33333333333333337 2 -0.29166666666666669 2 -0.25 2 -0.20833333333333331 2 
	-0.16666666666666663 2 -0.12499999999999997 2 -0.083333333333333315 2 -0.041666666666666657 2 0 2 
	0.49999904916660165 0.023810826728352573 
	0.55498463864132197 0.023810826728353461 
	0.60852323891932714 0.03634212076181547 
	0.66801057256154561 0.050265780798993284 
	0.72205623742987113 0.078755731336620699 
	0.78042555548765424 0.10952487791725388 
	0.82822935368402595 0.15500580303788206 
	0.87802497680526259 0.20238176670521851 
	0.91239097022695925 0.26190541336417628 
	0.94675696364866213 0.32142906002314497 
	0.96288794015271717 0.38824131647705307 
	0.97837367759661498 0.4523810826728254 
	0.97583588115931963 0.51831496820275536 
	0.97348606964330509 0.5793648622119596 
	0.95580064612805193 0.63784423436810833 
	0.93988376496432513 0.6904756693086388 
	0.91239097022695248 0.7380945866358305 
	0.88489817548960537 0.7857135039629779 
	0.84727645637531868 0.82581364487007269 
	0.80547454624833881 0.87036935698906137 
	0.75377869289604915 0.90292930046062314 
	0.69794717127556094 0.93809403940991953 
	0.63465763563528699 0.95675288048505081 
	0.56873103600999642 0.97618917327164734 
	0.49999904916659826 0.97618917327164734 
	0.43126706232318057 0.97618917327164734 
	0.3653404626979106 0.95675288048505858 
	0.30205092705766745 0.93809403940993796 
	0.24621940543715234 0.90292930046062669 
	0.19452355208486927 0.87036935698907092 
	0.15272164195787841 0.82581364487007103 
	0.11509992284361262 0.78571350396299877 
	0.087607128106245713 0.73809458663581695 
	0.060114333368874673 0.69047566930862803 
	0.044197452205152761 0.63784423436811399 
	0.026512028689900092 0.57936486221196715 
	0.024162217173885035 0.51831496820274336 
	0.021624420736590329 0.45238108267282273 
	0.037110158180486234 0.38824131647706223 
	0.05324113468454602 0.32142906002313854 
	0.087607128106245713 0.26190541336417628 
	0.1219731215279474 0.20238176670521074 
	0.17176874464917402 0.15500580303788414 
	0.21957254284555733 0.10952487791724505 
	0.27794186090333023 0.078755731336616272 
	0.3319875257716266 0.050265780799003332 
	0.3914748594138725 0.036342120761819176 
	0.44501345969190131 0.023810826728351667 
	0.49999904916660165 0.023810826728352573 
	0.001 
	spline forward { ref 13 } I I I I 
	} 0 0 #
tedge-edge $-1 $184 0 $168 2.5018511664883758 $166 $186 forward 7 unknown 1.00210304870135e-009 #
pcurve $-1 0 forward { exppc nubs 2 open 21 
	-2.5018511664883758 2 -2.293363569281011 2 -2.1891197706773289 2 -2.0848759720736467 2 -1.9806321734699643 2 
	-1.876388374866282 2 -1.7721445762625998 2 -1.6679007776589174 2 -1.563656979055235 2 -1.4594131804515527 2 
	-1.2509255832441879 2 -1.0424379860368234 2 -0.93819418743314098 2 -0.83395038882945871 2 -0.72970659022577633 2 
	-0.62546279162209395 2 -0.52121899301841157 2 -0.41697519441472919 2 -0.31273139581104692 2 -0.20848759720736459 2 
	0 2 
	0 0 
	0.10866421697589243 -2.1084994455735163e-016 
	0.20848759720736465 -4.0454530051802513e-016 
	0.26143004291488686 3.2143750269389992e-012 
	0.31273139581062159 6.3295039015770266e-012 
	0.36545565603361696 3.1281776331762158e-012 
	0.41697519441472874 0 
	0.46946531906341693 5.2173784521156982e-014 
	0.5212189930184089 1.0361555668645609e-013 
	0.57346480127457777 5.1684616146023634e-014 
	0.62546279162209362 0 
	0.67746078196960968 5.1847030017948049e-014 
	0.72970659022577822 1.0394115848072125e-013 
	0.78146026418077019 5.2337735557053041e-014 
	0.83395038882945838 0 
	0.88546992721057016 3.1282374038146631e-012 
	0.93819418743356586 6.3296248405177191e-012 
	0.98949554032930065 3.214648189202305e-012 
	1.0424379860368229 2.5709798314927053e-017 
	1.1422613662682952 1.3400006235003896e-017 
	1.2509255832441879 0 
	1.3595898002200804 -7.4840449003554728e-017 
	1.4594131804515527 -1.4359193689430518e-016 
	1.5123556261590747 3.2149711604570326e-012 
	1.5636569790548089 6.3304248254434346e-012 
	1.6163812392778047 3.1286327736557133e-012 
	1.6679007776589168 0 
	1.7203909023076045 5.2889711673740361e-014 
	1.7721445762625965 1.0503736633938246e-013 
	1.8243903845187655 5.2393830944401604e-014 
	1.876388374866282 0 
	1.9283863652137978 5.1956873258523276e-014 
	1.9806321734699666 1.0416136846522209e-013 
	2.0323858474249592 5.2448618407545482e-014 
	2.0848759720736472 0 
	2.1363955104547587 3.1288886879531751e-012 
	2.1891197706777539 6.3309426382834313e-012 
	2.2404211235734888 3.2158092763781586e-012 
	2.293363569281011 1.0250733269929112e-015 
	2.3931869495124833 5.342705844979773e-016 
	2.5018511664883758 0 
	0.001 
	spline forward { ref 15 } I I I I 
	} 0 0 #
pcurve $-1 0 forward { exppc nubs 2 open 21 
	0 2 0.20848759720736465 2 0.31273139581104697 2 0.4169751944147293 2 0.52121899301841168 2 
	0.62546279162209395 2 0.72970659022577622 2 0.8339503888294586 2 0.93819418743314098 2 1.0424379860368234 2 
	1.2509255832441879 2 1.4594131804515524 2 1.5636569790552348 2 1.6679007776589172 2 1.7721445762625996 2 
	1.876388374866282 2 1.9806321734699643 2 2.0848759720736467 2 2.1891197706773289 2 2.293363569281011 2 
	2.5018511664883758 2 
	2.5018511664883758 1 
	2.3931869495124829 1.0000000000000004 
	2.293363569281011 1.0000000000000009 
	2.2404211235734888 1.000000000003215 
	2.1891197706777543 1.0000000000063294 
	2.1363955104547587 1.0000000000031282 
	2.0848759720736467 1 
	2.0323858474249583 1.000000000000052 
	1.9806321734699668 1.0000000000001033 
	1.928386365213798 1.0000000000000515 
	1.8763883748662822 1 
	1.8243903845187663 1.000000000000052 
	1.7721445762625976 1.0000000000001037 
	1.7203909023076056 1.0000000000000522 
	1.6679007776589176 1 
	1.6163812392778052 1.0000000000031282 
	1.5636569790548094 1.0000000000063298 
	1.5123556261590747 1.0000000000032148 
	1.4594131804515524 1 
	1.3595898002200801 1 
	1.2509255832441879 1 
	1.1422613662682954 1.0000000000000002 
	1.0424379860368229 1.0000000000000002 
	0.98949554032930043 1.0000000000032148 
	0.93819418743356564 1.0000000000063296 
	0.88546992721056994 1.0000000000031282 
	0.83395038882945804 1 
	0.78146026418077041 1.0000000000000524 
	0.72970659022577888 1.0000000000001041 
	0.67746078196960968 1.000000000000052 
	0.62546279162209339 1 
	0.57346480127457755 1.0000000000000517 
	0.5212189930184089 1.0000000000001035 
	0.46946531906341682 1.000000000000052 
	0.41697519441472874 1 
	0.36545565603361718 1.0000000000031286 
	0.31273139581062182 1.0000000000063305 
	0.26143004291488692 1.0000000000032145 
	0.20848759720736457 0.99999999999999889 
	0.10866421697589244 0.99999999999999956 
	0 1 
	0.001 
	spline forward { ref 15 } I I I I 
	} 0 0 #
point $-1 -336.67312722346185 10.013831152024444 46.066844042635211 #
pcurve $-1 0 forward { exppc nubs 2 periodic 25 
	0 2 0.041666666666666664 2 0.083333333333333329 2 0.125 2 0.16666666666666666 2 
	0.20833333333333331 2 0.25 2 0.29166666666666663 2 0.33333333333333331 2 0.375 2 
	0.41666666666666663 2 0.45833333333333331 2 0.5 2 0.54166666666666663 2 0.58333333333333326 2 
	0.625 2 0.66666666666666663 2 0.70833333333333326 2 0.75 2 0.79166666666666674 2 
	0.83333333333333337 2 0.875 2 0.91666666666666674 2 0.95833333333333337 2 1 2 
	2.5018511664883758 0 
	2.5018511664883758 0.022038567515865526 
	2.5018511664883758 0.041666666707650991 
	2.5018511664883754 0.063455657510830848 
	2.5018511664883758 0.083333333333333759 
	2.5018511664883758 0.10478547854788392 
	2.5018511664883758 0.12500000000005504 
	2.5018511664883758 0.14604810996566234 
	2.5018511664883758 0.16666666666666649 
	2.5018511664883754 0.18728522336767239 
	2.5018511664883758 0.20833333333328138 
	2.5018511664883758 0.2285478547854497 
	2.5018511664883758 0.24999999999999656 
	2.5018511664883762 0.26987767582250111 
	2.5018511664883758 0.29166666662568275 
	2.5018511664883754 0.31129476581746784 
	2.5018511664883758 0.33333333333333298 
	2.5018511664883762 0.35537190084919701 
	2.5018511664883758 0.37500000004098161 
	2.5018511664883754 0.39678899084416286 
	2.5018511664883758 0.41666666666666685 
	2.5018511664883758 0.43811881188121587 
	2.5018511664883758 0.45833333333338605 
	2.5018511664883762 0.47938144329899413 
	2.5018511664883758 0.49999999999999878 
	2.5018511664883758 0.52061855670100421 
	2.5018511664883758 0.54166666666661289 
	2.5018511664883758 0.56188118811878329 
	2.5018511664883758 0.58333333333333248 
	2.5018511664883758 0.6032110091558367 
	2.5018511664883758 0.62499999995901834 
	2.5018511664883762 0.64462809915080144 
	2.5018511664883758 0.66666666666666397 
	2.5018511664883758 0.68870523418253071 
	2.5018511664883758 0.70833333337431692 
	2.5018511664883758 0.73012232417749701 
	2.5018511664883758 0.75000000000000022 
	2.5018511664883762 0.77145214521454886 
	2.5018511664883758 0.7916666666667187 
	2.5018511664883758 0.81271477663232772 
	2.5018511664883758 0.83333333333333348 
	2.5018511664883754 0.85395189003433869 
	2.5018511664883758 0.87499999999994738 
	2.5018511664883758 0.89521452145211722 
	2.5018511664883758 0.91666666666666585 
	2.5018511664883754 0.93654434248916951 
	2.5018511664883758 0.9583333332923506 
	2.5018511664883758 0.97796143248413536 
	2.5018511664883758 1 
	0.001 
	spline forward { ref 15 } I I I I 
	} 0 0 #
tvertex-vertex $-1 $177 $187 1.5177199488856151e-014 #
intcurve-curve $-1 forward { exactcur full nurbs 2 periodic 4 
	0 2 0.33333333333333298 2 0.66666666666666696 2 1 2 
	-327.42383312295931 -10.67989547245206 58.80341489329362 1 
	-328.65615983959151 -7.9227734792571471 57.106461983482802 0.5 
	-325.42676051925196 -9.02397378257524 56.507848651052484 1 
	-322.19736119891257 -10.125174085893327 55.909235318622208 0.5 
	-324.19443380261987 -11.781095775770169 58.204801560863331 1 
	-326.19150640632722 -13.437017465646973 60.50036780310451 0.5 
	-327.42383312295931 -10.67989547245206 58.80341489329362 1 
	0 
	null_surface 
	null_surface 
	nullbs 
	nullbs 
	I I 
	0 
	0 
	0 
	F 1 F 0 } I I #
intcurve-curve $-1 forward { exactcur full nurbs 2 open 3 
	0 2 1.2509255832441879 2 2.5018511664883758 2 
	-327.42383312295931 -10.67989547245206 58.80341489329362 1 
	-331.82600917946883 -18.457932807902239 49.362918022056519 0.70710678118654702 
	-336.45065622972004 -8.1110694956639762 42.994632596727293 1 
	-341.07530327997137 2.2357938165742599 36.626347171398116 0.70710678118654702 
	-336.67312722346185 10.013831152024444 46.066844042635211 1 
	0 
	null_surface 
	null_surface 
	nullbs 
	nullbs 
	I I 
	0 
	0 
	0 
	F 1 F 0 } I I #
point $-1 -327.42383312295931 -10.67989547245206 58.80341489329362 #
End-of-ACIS-data 