600 0 1 0           
81 GICL ACIS Healer - Source: /gicl/data5/repository/SDRC_I-DEAS/bmw/Part2.sat - 6 0 18 ACIS 6.0.3 Solaris 24 Sat Apr 13 23:15:30 2002 
1 9.999999999999999547e-07 1.000000000000000036e-10 
body $-1 $1 $-1 $-1 #
lump $-1 $-1 $2 $0 #
shell $-1 $-1 $-1 $3 $-1 $1 #
face $-1 $4 $5 $2 $-1 $6 forward single #
face $-1 $7 $8 $2 $-1 $9 forward single #
loop $-1 $-1 $10 $3 #
plane-surface $-1 -295.0000000320195568 -53.0330123591187288 -73.03301253763110878 -1 6.033735742737808737e-10 -1.298914503230952023e-15 -1.298914503230952023e-15 0 1 forward_v I I I I #
face $-1 $-1 $11 $2 $-1 $12 forward single #
loop $-1 $-1 $13 $4 #
plane-surface $-1 -65.00000003201955678 -53.03301249789470972 -73.033012537631123 1 -6.033746572669781258e-10 -8.899292102833487705e-16 -8.899292102833487705e-16 0 -1 forward_v I I I I #
coedge $-1 $10 $10 $14 $15 reversed $5 $-1 #
loop $-1 $-1 $14 $7 #
cone-surface $-1 -249.0000000320195852 -53.03301238687393493 -73.03301253763110878 1 -6.033737992330987554e-10 0 3.756667865673080087e-09 6.226125868463320501 -1.866910996821246727 1 I I 0 1 6.500000000000017764 forward I I I I #
coedge $-1 $13 $13 $16 $17 reversed $8 $-1 #
coedge $-1 $18 $19 $10 $15 forward $11 $-1 #
edge $-1 $20 0 $20 1 $10 $21 forward 7 unknown #
coedge $-1 $19 $18 $13 $17 forward $11 $-1 #
edge $-1 $22 0 $22 1 $13 $23 forward 7 unknown #
coedge $-1 $16 $14 $19 $24 reversed $11 $-1 #
coedge $-1 $14 $16 $18 $24 forward $11 $-1 #
vertex $-1 $15 $25 #
intcurve-curve $-1 forward { exactcur full nurbs 2 periodic 4 
	0 2 0.3333333333333329818 2 0.6666666666666669627 2 1 2 
	-295.0000000320103481 -53.01769378387335507 -79.53299448693314844 1 
	-295.0000000252173891 -41.75939479940161903 -79.50646193630862513 0.5 
	-295.00000002862771 -47.41152215450553342 -69.76975528766783441 1 
	-295.0000000320380877 -53.06364950960944782 -60.03304863902700816 0.5 
	-295.0000000354206691 -58.66982113897729789 -69.79628783829234351 1 
	-295.0000000388033072 -64.27599276834509112 -79.55952703755768596 0.5 
	-295.0000000320103481 -53.01769378387335507 -79.53299448693314844 1 
	0 
	null_surface 
	null_surface 
	nullbs 
	nullbs 
	I I 
	0 
	0 
	0 
	F 1 F 0 } I I #
vertex $-1 $17 $26 #
intcurve-curve $-1 forward { exactcur full nurbs 2 periodic 4 
	0 2 0.3333333333333329818 2 0.6666666666666669627 2 1 2 
	-65.00000003201029131 -53.0176939226493289 -79.53299448693314844 1 
	-65.00000003880322197 -64.27599290712106495 -79.55952703755768596 0.5 
	-65.00000003542064064 -58.66982127775327172 -69.79628783829234351 1 
	-65.00000003203797405 -53.06364964838542164 -60.03304863902700816 0.5 
	-65.00000002862768156 -47.41152229328150725 -69.76975528766783441 1 
	-65.00000002521727538 -41.75939493817759285 -79.50646193630862513 0.5 
	-65.00000003201029131 -53.0176939226493289 -79.53299448693314844 1 
	0 
	null_surface 
	null_surface 
	nullbs 
	nullbs 
	I I 
	0 
	0 
	0 
	F 1 F 0 } I I #
edge $-1 $22 0 $20 1 $19 $27 forward 7 unknown #
point $-1 -295.0000000320103481 -53.01769378387335507 -79.53299448693314844 #
point $-1 -65.00000003201029131 -53.0176939226493289 -79.53299448693314844 #
intcurve-curve $-1 forward { exactcur full nubs 1 open 2 
	0 1 1 1 
	-65.00000003201029131 -53.0176939226493289 -79.53299448693314844 
	-295.0000000320103481 -53.01769378387335507 -79.53299448693314844 
	0 
	null_surface 
	null_surface 
	nullbs 
	nullbs 
	I I 
	0 
	0 
	0 
	F 1 F 0 } I I #
End-of-ACIS-data 