600 0 1 0           
82 GICL ACIS Healer - Source: /gicl/data5/repository/SDRC_I-DEAS/bmw/Part26.sat - 6 0 18 ACIS 6.0.3 Solaris 24 Sat Apr 13 23:15:40 2002 
1 9.999999999999999547e-07 1.000000000000000036e-10 
body $-1 $1 $-1 $-1 #
lump $-1 $-1 $2 $0 #
shell $-1 $-1 $-1 $3 $-1 $1 #
face $-1 $4 $5 $2 $-1 $6 forward single #
face $-1 $7 $8 $2 $-1 $9 forward single #
loop $-1 $-1 $10 $3 #
plane-surface $-1 -338.4243887360946701 -1.124939538410529849e-06 -95.35696874734000517 -0.9063077870366584854 -6.907172977301251578e-09 -0.4226182617406813447 -0.4226182617406813447 0 0.9063077870366584854 forward_v I I I I #
face $-1 $11 $12 $2 $-1 $13 forward single #
loop $-1 $-1 $14 $4 #
cone-surface $-1 -263.3700243379140602 -5.529334545784081456e-07 -60.35854385051408855 -0.9063077870366574862 -6.90717480777155182e-09 -0.4226182617406833431 -0.6116843233162398974 4.785929886524633581 1.311761186298795678 1 I I 0 1 5.000000000000055955 forward I I I I #
coedge $-1 $10 $10 $15 $16 forward $5 $-1 #
face $-1 $17 $18 $2 $-1 $19 forward single #
loop $-1 $-1 $20 $7 #
cone-surface $-1 -243.1106037867086229 -3.98531760481546371e-07 -50.91142089770465873 0.9063077870366578193 6.907173991808520015e-09 0.4226182617406822883 -2.995461905772678346 8.61970211278427989 6.423788646174181771 1 I I 0.965925826289067424 0.2588190451025240146 11.15961993585755607 forward I I I I #
coedge $-1 $21 $15 $22 $23 forward $8 $-1 #
coedge $-1 $14 $22 $10 $16 reversed $8 $-1 #
edge $-1 $24 0 $24 1 $10 $25 forward 7 unknown #
face $-1 $-1 $26 $2 $-1 $27 forward single #
loop $-1 $-1 $28 $11 #
cone-surface $-1 -239.2743168342842353 -3.692946286548703938e-07 -49.12253091290917695 -0.9063077870366584854 -6.907178910053434244e-09 -0.4226182617406814002 -2.202063563938480684 17.22934759148849082 4.722340270675658758 1 I I 0 1 18.00000000000002132 forward I I I I #
coedge $-1 $29 $30 $31 $32 forward $12 $-1 #
coedge $-1 $22 $14 $30 $33 forward $8 $-1 #
coedge $-1 $15 $21 $14 $23 reversed $8 $-1 #
edge $-1 $24 0 $34 1 $14 $35 forward 7 unknown #
vertex $-1 $16 $36 #
intcurve-curve $-1 forward { exactcur full nurbs 2 periodic 4 
	0 2 0.3333333333333329818 2 0.6666666666666669627 2 1 2 
	-340.5374800447980874 -1.043739381145769585e-06 -90.82542981215664213 1 
	-340.5374800395732677 8.660252994105043456 -90.82542996490241194 0.5 
	-337.36784307913058 4.33012585338257594 -97.62273829130450054 1 
	-334.1982061186877786 -1.287339848943247489e-06 -104.4200466177065607 0.5 
	-337.3678430843553429 -4.330128184461806029 -97.62273813855875915 1 
	-340.5374800500229071 -8.660255081583748904 -90.82542965941081547 0.5 
	-340.5374800447980874 -1.043739381145769585e-06 -90.82542981215664213 1 
	0 
	null_surface 
	null_surface 
	nullbs 
	nullbs 
	I I 
	0 
	0 
	0 
	F 1 F 0 } I I #
loop $-1 $-1 $37 $17 #
plane-surface $-1 -238.7305321620622749 -3.651503233115250243e-07 -48.86895995586480979 0.9063077870366574862 6.907174169255527531e-09 0.422618261740683232 0.4226182617406832875 0 -0.9063077870366575972 forward_v I I I I #
coedge $-1 $38 $39 $40 $41 forward $18 $-1 #
coedge $-1 $31 $20 $39 $42 forward $12 $-1 #
coedge $-1 $20 $31 $21 $33 reversed $12 $-1 #
coedge $-1 $30 $29 $20 $32 reversed $12 $-1 #
edge $-1 $34 0 $43 1 $20 $44 forward 7 unknown #
edge $-1 $34 0 $34 1 $21 $45 forward 7 unknown #
vertex $-1 $33 $46 #
intcurve-curve $-1 forward { exactcur full nubs 1 open 2 
	0 1 1 1 
	-340.5374800447980874 -1.043739381145769585e-06 -90.82542981215664213 
	-246.7195245470723535 -3.287316943101359357e-07 -47.07739869112430853 
	0 
	null_surface 
	null_surface 
	nullbs 
	nullbs 
	I I 
	0 
	0 
	0 
	F 1 F 0 } I I #
point $-1 -340.5374800447980874 -1.043739381145769585e-06 -90.82542981215664213 #
coedge $-1 $37 $37 $38 $47 reversed $26 $-1 #
coedge $-1 $40 $28 $37 $47 forward $18 $-1 #
coedge $-1 $28 $40 $29 $42 reversed $18 $-1 #
coedge $-1 $39 $38 $28 $41 reversed $18 $-1 #
edge $-1 $43 0 $48 1 $28 $49 forward 7 unknown #
edge $-1 $43 0 $43 8.879942301216722456 $29 $50 forward 7 unknown #
vertex $-1 $42 $51 #
intcurve-curve $-1 forward { exactcur full nubs 1 open 2 
	0 1 1 1 
	-246.7195245470723535 -3.287316943101359357e-07 -47.07739869112430853 
	-249.0565842345044985 -9.355125740739822504e-08 -33.82327457442702467 
	0 
	null_surface 
	null_surface 
	nullbs 
	nullbs 
	I I 
	0 
	0 
	0 
	F 1 F 0 } I I #
intcurve-curve $-1 forward { exactcur full nurbs 2 periodic 4 
	0 2 0.3333333333333329818 2 0.6666666666666669627 2 1 2 
	-246.7195245470723535 -3.287316943101359357e-07 -47.07739869112430853 1 
	-246.7195245418475622 8.660253709112687659 -47.07739884387012808 0.5 
	-243.5498875814048461 4.330126568390241459 -53.87470717027218114 1 
	-240.3802506209621015 -5.723321976347506279e-07 -60.67201549667424132 0.5 
	-243.5498875866295805 -4.330127469454161826 -53.87470701752643976 1 
	-246.7195245522971732 -8.660254366576104701 -47.07739853837848898 0.5 
	-246.7195245470723535 -3.287316943101359357e-07 -47.07739869112430853 1 
	0 
	null_surface 
	null_surface 
	nullbs 
	nullbs 
	I I 
	0 
	0 
	0 
	F 1 F 0 } I I #
point $-1 -246.7195245470723535 -3.287316943101359357e-07 -47.07739869112430853 #
edge $-1 $48 0 $48 62.35382907247958428 $38 $52 forward 7 unknown #
vertex $-1 $47 $53 #
intcurve-curve $-1 forward { exactcur full nubs 1 open 2 
	0 1 1 1 
	-249.0565842345044985 -9.355125740739822504e-08 -33.82327457442702467 
	-246.3376608733945545 -7.282972802613585372e-08 -32.55541978920498281 
	0 
	null_surface 
	null_surface 
	nullbs 
	nullbs 
	I I 
	0 
	0 
	0 
	F 1 F 0 } I I #
intcurve-curve $-1 forward { exactcur full nurbs 2 periodic 4 
	0 2 2.959980767072241115 2 5.919961534144481341 2 8.879942301216722456 2 
	-249.0565842345044985 -9.355125740739822504e-08 -33.82327457442702467 1 
	-249.0565842156952669 31.17691444268854539 -33.82327512431185568 0.5 
	-237.6458911581015059 15.58845673608775684 -58.29358509935916999 1 
	-226.235198100507688 -9.70512992637395655e-07 -82.76389507440654825 0.5 
	-237.6458911769107658 -15.58845780015204951 -58.29358454947429635 1 
	-249.0565842533138152 -31.17691462979108863 -33.82327402454210841 0.5 
	-249.0565842345044985 -9.355125740739822504e-08 -33.82327457442702467 1 
	0 
	null_surface 
	null_surface 
	nullbs 
	nullbs 
	I I 
	0 
	0 
	0 
	F 1 F 0 } I I #
point $-1 -249.0565842345044985 -9.355125740739822504e-08 -33.82327457442702467 #
intcurve-curve $-1 forward { exactcur full nurbs 2 periodic 4 
	0 2 20.78460969082652809 2 41.56921938165305619 2 62.35382907247958428 2 
	-246.3376608733945545 -7.282972802613585372e-08 -32.55541978920498281 1 
	-246.337660854585323 31.17691446341007122 -32.55542033908981381 0.5 
	-234.9269677969915335 15.58845675680930043 -57.02573031413714233 1 
	-223.5162747393976872 -9.497914774669879989e-07 -81.49604028918449217 0.5 
	-234.9269678158008219 -15.58845777943052013 -57.02572976425224027 1 
	-246.3376608922038713 -31.17691460906955569 -32.55541923932005233 0.5 
	-246.3376608733945545 -7.282972802613585372e-08 -32.55541978920498281 1 
	0 
	null_surface 
	null_surface 
	nullbs 
	nullbs 
	I I 
	0 
	0 
	0 
	F 1 F 0 } I I #
point $-1 -246.3376608733945545 -7.282972802613585372e-08 -32.55541978920498281 #
End-of-ACIS-data 