600 0 1 0           
82 GICL ACIS Healer - Source: /gicl/data5/repository/SDRC_I-DEAS/bmw/Part38.sat - 6 0 18 ACIS 6.0.3 Solaris 24 Sat Apr 13 23:15:57 2002 
1 9.999999999999999547e-07 1.000000000000000036e-10 
body $-1 $1 $-1 $-1 #
lump $-1 $-1 $2 $0 #
shell $-1 $-1 $-1 $3 $-1 $1 #
face $-1 $4 $5 $2 $-1 $6 forward single #
face $-1 $7 $8 $2 $-1 $9 forward single #
loop $-1 $-1 $10 $3 #
cone-surface $-1 -260.2186046052298138 8.428994222597907537e-07 18.88901269510694192 0.9063077870366489375 -8.000742161767305632e-09 -0.4226182617407018283 0.8404573822666356886 7.732697958434886942 1.802366526273578851 1 I I -0.2588190451025150218 0.9659258262890698665 7.984329115387280851 forward I I I I #
face $-1 $11 $12 $2 $-1 $13 forward single #
loop $-1 $14 $15 $4 #
plane-surface $-1 -315.3135401666596636 1.329268694227891956e-06 44.58020307295824125 -0.9063077870366480493 8.000738153076034942e-09 0.4226182617407035491 0.4226182617407035491 -0 0.9063077870366480493 forward_v I I I I #
coedge $-1 $16 $17 $18 $19 forward $5 $-1 #
face $-1 $20 $21 $2 $-1 $22 forward single #
loop $-1 $23 $24 $7 #
plane-surface $-1 -256.4035340092775073 8.092205625587212126e-07 17.11001605981240203 0.906307787036646495 -8.00073874981976586e-09 -0.4226182617407069353 -0.4226182617407069353 0 -0.906307787036646495 forward_v I I I I #
loop $-1 $-1 $25 $4 #
coedge $-1 $15 $15 $26 $27 reversed $8 $-1 #
coedge $-1 $18 $10 $24 $28 reversed $5 $-1 #
coedge $-1 $10 $18 $29 $30 reversed $5 $-1 #
coedge $-1 $17 $16 $10 $19 reversed $5 $-1 #
edge $-1 $31 0 $32 1 $10 $33 forward 7 unknown #
face $-1 $-1 $34 $2 $-1 $35 forward single #
loop $-1 $-1 $29 $11 #
cone-surface $-1 -304.9816313943239834 1.238060257868767167e-06 39.76235488905923177 0.9063077870366473832 -8.000740473906794347e-09 -0.4226182617407050479 2.536867103698511983 -6.705753025022620051 5.440329187243449383 1 I I 0 1 9.000000000000037303 forward I I I I #
loop $-1 $-1 $36 $7 #
coedge $-1 $24 $24 $16 $28 forward $12 $-1 #
coedge $-1 $25 $25 $37 $38 reversed $14 $-1 #
coedge $-1 $39 $40 $15 $27 forward $21 $-1 #
edge $-1 $41 0 $41 1 $15 $42 forward 7 unknown #
edge $-1 $32 2 $32 7.20151930810401808 $16 $43 forward 7 unknown #
coedge $-1 $40 $39 $17 $30 forward $21 $-1 #
edge $-1 $31 2 $31 7.20151930810401808 $17 $44 forward 7 unknown #
vertex $-1 $30 $45 #
vertex $-1 $28 $46 #
intcurve-curve $-1 forward { exactcur full nubs 1 open 2 
	0 1 1 1 
	-260.2070001370292971 3.804599476657351431 27.88306922011857836 
	-253.7775332537795521 2.898431303039046725 22.74149279836970194 
	0 
	null_surface 
	null_surface 
	nullbs 
	nullbs 
	I I 
	0 
	0 
	0 
	F 1 F 0 } I I #
loop $-1 $-1 $37 $20 #
cone-surface $-1 -303.5315389351832778 1.225259070203321699e-06 39.08616567032902367 -0.9063077870366474942 8.000740460000756667e-09 0.4226182617407046593 -0.300687634980022267 4.949119652431821947 -0.6448268078198537978 1 I I 0 -1 4.99999999999999023 forward I I I I #
coedge $-1 $36 $36 $47 $48 reversed $23 $-1 #
coedge $-1 $49 $50 $25 $38 forward $34 $-1 #
edge $-1 $51 0 $51 1 $25 $52 forward 7 unknown #
coedge $-1 $29 $26 $40 $53 reversed $21 $-1 #
coedge $-1 $26 $29 $39 $53 forward $21 $-1 #
vertex $-1 $27 $54 #
intcurve-curve $-1 forward { exactcur full nurbs 2 periodic 4 
	0 2 0.3333333333333329818 2 0.6666666666666669627 2 1 2 
	-311.8665439981182317 3.804599932699552767 51.97231013933878785 1 
	-309.0815919939950618 -10.32250480961464767 57.9446592529132829 0.5 
	-315.6445622488686809 -8.965850343603854355 43.87032409655520127 1 
	-322.2075325037423568 -7.609195877593030843 29.79598894019715516 0.5 
	-318.4295142529919076 5.161254398710347857 37.8979749829806849 1 
	-314.6514960022414584 17.9317046750137763 45.99996102576432122 0.5 
	-311.8665439981182317 3.804599932699552767 51.97231013933878785 1 
	0 
	null_surface 
	null_surface 
	nullbs 
	nullbs 
	I I 
	0 
	0 
	0 
	F 1 F 0 } I I #
intcurve-curve $-1 forward { exactcur full nurbs 2 periodic 4 
	2 2 3.733839769368005879 2 5.467679538736012645 2 7.20151930810401808 2 
	-253.7775332537795236 2.898431303039103568 22.74149279836981563 1 
	-251.6558929300689442 -7.863921166303661892 27.2913653591452281 0.5 
	-256.6557142251712094 -6.83039067236010311 16.56921397092138903 1 
	-261.6555355202734745 -5.796860178416508802 5.847062582697546418 0.5 
	-258.7773545488818172 3.931961796982669455 12.01934141014597301 1 
	-255.8991735774900746 13.66078377238188502 18.19162023759439961 0.5 
	-253.7775332537795236 2.898431303039103568 22.74149279836981563 1 
	0 
	null_surface 
	null_surface 
	nullbs 
	nullbs 
	I I 
	0 
	0 
	0 
	F 1 F 0 } I I #
intcurve-curve $-1 forward { exactcur full nurbs 2 periodic 4 
	2 2 3.733839769368005879 2 5.467679538736011757 2 7.20151930810401808 2 
	-260.2070001370292971 3.804599476657351431 27.88306922011857836 1 
	-262.9919521411525238 17.93170421897156785 21.91072010654411173 0.5 
	-266.7699703919030298 5.161253942668146522 13.8087340637604683 1 
	-270.5479886426534222 -7.609196333635203757 5.706748020976942115 0.5 
	-263.9850183877797463 -8.96585079964604148 19.78108317733499177 1 
	-257.4220481329060704 -10.32250526565686322 33.85541833369309472 0.5 
	-260.2070001370292971 3.804599476657351431 27.88306922011857836 1 
	0 
	null_surface 
	null_surface 
	nullbs 
	nullbs 
	I I 
	0 
	0 
	0 
	F 1 F 0 } I I #
point $-1 -260.2070001370292971 3.804599476657351431 27.88306922011857836 #
point $-1 -253.7775332537795521 2.898431303039046725 22.74149279836970194 #
coedge $-1 $50 $49 $36 $48 forward $34 $-1 #
edge $-1 $55 0 $55 1 $36 $56 forward 7 unknown #
coedge $-1 $47 $37 $50 $57 forward $34 $-1 #
coedge $-1 $37 $47 $49 $57 reversed $34 $-1 #
vertex $-1 $38 $58 #
intcurve-curve $-1 forward { exactcur full nurbs 2 periodic 4 
	0 2 0.3333333333333329818 2 0.6666666666666669627 2 1 2 
	-313.3985422952478075 2.113667220063597085 48.6869292209474267 1 
	-314.9457378530940446 9.96205874357148069 45.3689574911838065 0.5 
	-317.0446368812887386 2.867364145625174388 40.86785413408178158 1 
	-319.1435359094833757 -4.227330452321147902 36.36675077697982772 0.5 
	-315.4974413234425015 -4.98102737788273231 44.18582586384540889 1 
	-311.8513467374015704 -5.734724303444298066 52.00490095071101848 0.5 
	-313.3985422952478075 2.113667220063597085 48.6869292209474267 1 
	0 
	null_surface 
	null_surface 
	nullbs 
	nullbs 
	I I 
	0 
	0 
	0 
	F 1 F 0 } I I #
edge $-1 $31 0.1230769230769230005 $41 1 $39 $59 forward 7 unknown #
point $-1 -311.8665439981182317 3.804599932699552767 51.97231013933878785 #
vertex $-1 $48 $60 #
intcurve-curve $-1 forward { exactcur full nurbs 2 periodic 4 
	0 2 0.3333333333333329818 2 0.6666666666666669627 2 1 2 
	-254.4885361378656512 2.113666700015464528 21.21674220780159104 1 
	-252.9413405800193857 -5.734724823492437729 24.53471393756515795 0.5 
	-256.5874351660603452 -4.981027897930864867 16.71563885069957678 1 
	-260.2335297521012762 -4.22733097236928046 8.896563763833992056 0.5 
	-258.1346307239065823 2.867363625577048936 13.39766712093595302 1 
	-256.0357316957118883 9.962058223523351685 17.89877047803796373 0.5 
	-254.4885361378656512 2.113666700015464528 21.21674220780159104 1 
	0 
	null_surface 
	null_surface 
	nullbs 
	nullbs 
	I I 
	0 
	0 
	0 
	F 1 F 0 } I I #
edge $-1 $51 0 $55 1 $50 $61 forward 7 unknown #
point $-1 -313.3985422952478075 2.113667220063597085 48.6869292209474267 #
intcurve-curve $-1 forward { exactcur full nubs 1 open 2 
	0.1230769230769230005 1 1 1 
	-260.2070001370292971 3.804599476657351431 27.88306922011857836 
	-311.8665439981182317 3.804599932699552767 51.97231013933878785 
	0 
	null_surface 
	null_surface 
	nullbs 
	nullbs 
	I I 
	0 
	0 
	0 
	F 1 F 0 } I I #
point $-1 -254.4885361378656512 2.113666700015464528 21.21674220780159104 #
intcurve-curve $-1 forward { exactcur full nubs 1 open 2 
	0 1 1 1 
	-313.3985422952478075 2.113667220063597085 48.6869292209474267 
	-254.4885361378656512 2.113666700015464528 21.21674220780159104 
	0 
	null_surface 
	null_surface 
	nullbs 
	nullbs 
	I I 
	0 
	0 
	0 
	F 1 F 0 } I I #
End-of-ACIS-data 