600 0 2 0           
24 FBMach with ACIS - 6.0.3 13 ACIS 6.0.3 NT 24 Wed May 23 19:56:17 2001 
1 9.9999999999999995e-007 1e-010 
body $2 $3 $-1 $-1 #
bdycol-kcp $-1 1 1 $4 #
model_id-kcp-attrib $-1 $-1 $-1 $0 1 990662176 110 -1787953151 1 #
lump $-1 $-1 $5 $0 #
body $6 $7 $-1 $8 #
shell $-1 $-1 $-1 $9 $-1 $3 #
model_id-kcp-attrib $-1 $-1 $-1 $4 1 990662176 150 -1785331710 1 #
lump $-1 $-1 $10 $4 #
transform $-1 1 0 0 0 1 0 0 0 1 169.73894188693913 -0.32442507036505042 20.000000000000039 1 no_rotate no_reflect no_shear #
face $11 $12 $13 $5 $-1 $14 forward single #
shell $-1 $-1 $-1 $15 $-1 $7 #
model_id-kcp-attrib $-1 $-1 $-1 $9 1 990662176 110 -1787953151 2 #
face $16 $17 $18 $5 $-1 $19 forward single #
loop $-1 $20 $21 $9 #
spline-surface $-1 forward { exactsur full nubs 1 1 open open none none 2 2 
	0 1 1 1 
	0 1 1 1 
	176.57197361457261 -11.204332334423526 -22.499999999999979 
	153.48201894792501 -11.885625089223666 -22.499999999999979 
	175.89068085977246 11.88562233222401 -22.499999999999972 
	152.80072619312486 11.20432957742387 -22.499999999999972 
	0 
	0 
	0 
	0 
	0 
	0 
	0 
	F 1 F 0 F 1 F 0 } I I I I #
face $-1 $22 $23 $10 $-1 $24 forward single #
model_id-kcp-attrib $-1 $-1 $-1 $12 1 990662176 110 -1787953151 3 #
face $25 $26 $27 $5 $-1 $28 forward single #
loop $-1 $29 $30 $12 #
spline-surface $-1 forward { exactsur full nubs 1 1 open open none none 2 2 
	0 1 1 1 
	0 1 1 1 
	152.80072619312492 11.204329577423849 62.500000000000064 
	153.48201894792501 -11.885625089223694 62.500000000000057 
	175.89068085977246 11.885622332223988 62.50000000000005 
	176.57197361457261 -11.204332334423555 62.500000000000043 
	0 
	0 
	0 
	0 
	0 
	0 
	0 
	F 1 F 0 F 1 F 0 } I I I I #
loop $-1 $-1 $31 $9 #
tcoedge-coedge $-1 $21 $21 $32 $33 reversed $13 $34 -1 0 #
face $-1 $35 $36 $10 $-1 $37 reversed single #
loop $-1 $-1 $38 $15 #
plane-surface $-1 0 0 42.500422408785639 0 0 1 1 0 0 forward_v I I I I #
model_id-kcp-attrib $-1 $-1 $-1 $17 1 990662176 110 -1787953151 4 #
face $39 $-1 $40 $5 $-1 $41 forward single #
loop $-1 $-1 $32 $17 #
spline-surface $-1 forward { exactsur full nurbs 2 1 both periodic open none none 4 2 
	0 2 0.448295503135474 2 0.89659100627094901 2 1.3448865094064231 2 
	0 1 1 1 
	153.6911466654914 -0.32442507036502377 -22.499999999999972 1 
	154.2530673713176 -19.368695734277679 -22.499999999999979 0.5 
	170.46492920989962 -9.3599227961633886 -22.499999999999979 1 
	186.6767910484817 0.64885014195085233 -22.499999999999979 0.5 
	169.90300850407348 9.6843478677492314 -22.499999999999972 1 
	153.12922595966526 18.719845593547625 -22.499999999999972 0.5 
	153.6911466654914 -0.32442507036502377 -22.499999999999972 1 
	153.6911466654914 -0.32442507036505219 62.500000000000057 1 
	154.2530673713176 -19.368695734277708 62.50000000000005 0.5 
	170.46492920989962 -9.359922796163417 62.500000000000043 1 
	186.6767910484817 0.64885014195083102 62.50000000000005 0.5 
	169.90300850407348 9.6843478677492101 62.50000000000005 1 
	153.12922595966532 18.719845593547603 62.500000000000064 0.5 
	153.6911466654914 -0.32442507036505219 62.500000000000057 1 
	0 
	0 
	0 
	0 
	0 
	0 
	0 
	F 1 F 0 F 1 F 0 } I I I I #
loop $-1 $-1 $42 $12 #
tcoedge-coedge $-1 $30 $30 $43 $44 reversed $18 $45 -1 0 #
tcoedge-coedge $-1 $31 $31 $46 $47 forward $20 $48 0 1 #
tcoedge-coedge $-1 $49 $50 $21 $33 forward $27 $51 0 1 #
tedge-edge $-1 $52 0 $52 1 $21 $53 forward 7 unknown 0.00036653227165338922 #
pcurve $-1 0 forward { exppc nubs 2 periodic 37 
	-1 2 -0.95833333333333337 2 -0.91666666666666674 2 -0.89583333333333337 2 -0.875 2 
	-0.85416666666666674 2 -0.83333333333333337 2 -0.8125 2 -0.79166666666666674 2 -0.77083333333333337 2 
	-0.75 2 -0.70833333333333337 2 -0.66666666666666674 2 -0.625 2 -0.58333333333333337 2 
	-0.5625 2 -0.54166666666666674 2 -0.52083333333333337 2 -0.5 2 -0.47916666666666669 2 
	-0.45833333333333337 2 -0.4375 2 -0.41666666666666669 2 -0.375 2 -0.33333333333333337 2 
	-0.29166666666666669 2 -0.25 2 -0.22916666666666666 2 -0.20833333333333331 2 -0.18749999999999997 2 
	-0.16666666666666663 2 -0.14583333333333331 2 -0.12499999999999997 2 -0.10416666666666664 2 -0.083333333333333315 2 
	-0.041666666666666657 2 0 2 
	0.97618990017510399 0.50000004491273797 
	0.9761899001751041 0.55498577626607182 
	0.96365857380730213 0.60852451468904833 
	0.94973487784307964 0.66801200182568121 
	0.92124485379319909 0.72205780614733828 
	0.90616189988443563 0.75067029078822167 
	0.88734840726903985 0.77698040807316915 
	0.86796480881681137 0.80408780163948224 
	0.84499458534484306 0.82823119635863518 
	0.82155074901779268 0.8528723930307498 
	0.79484277817886906 0.8739315081316259 
	0.76785659931037109 0.89520998901480464 
	0.738094699186854 0.912393030062712 
	0.70833279906332525 0.92957607111062612 
	0.67641200463031215 0.94230754712022269 
	0.6448202905522844 0.95490777079982103 
	0.61175847009104445 0.96289013028515746 
	0.57936456519468149 0.9707112299829106 
	0.54619707450975774 0.9739442218761406 
	0.51400509825673779 0.97708212577251141 
	0.48168448273796771 0.97583810470116894 
	0.4206344312025177 0.97348828712196667 
	0.36215490815277013 0.95580281797323419 
	0.30952333740799587 0.93988589573937453 
	0.26190429721034902 0.91239303006271133 
	0.2142852570127074 0.88490016438605124 
	0.17418501263573455 0.84727834819692671 
	0.1296291855502133 0.80547633020901444 
	0.097069158064640601 0.75378034346656775 
	0.079831496454633749 0.7264118798970407 
	0.066453012817012852 0.69696385871570965 
	0.052669120584312293 0.66662347325615601 
	0.0432454391599187 0.63465897883926148 
	0.033627455025744567 0.60203542268181498 
	0.028743711786627081 0.56837608390133576 
	0.023809096222103983 0.534366127008573 
	0.023809096222103959 0.50000004491273986 
	0.023809096222103941 0.46563396281687819 
	0.028743711786622762 0.43162400592414207 
	0.03362745502573293 0.39796466714371126 
	0.043245439159921087 0.36534111098621841 
	0.05266912058432914 0.33337661656927586 
	0.066453012817009466 0.30303623110976652 
	0.079831496454618539 0.27358820992846156 
	0.097069158064640601 0.24621974635891036 
	0.12962918555021069 0.19452375961646776 
	0.17418501263573494 0.15272174162855259 
	0.21428525701271203 0.11509992543942393 
	0.26190429721034902 0.08760705976276649 
	0.30952333740798804 0.060114194086107915 
	0.36215490815277479 0.044197271852244376 
	0.42063443120252764 0.026511802703510202 
	0.48168448273796427 0.024161985124308435 
	0.51400509825672347 0.022917964052966373 
	0.54619707450975419 0.026055867949338094 
	0.57936456519469126 0.029288859842569185 
	0.61175847009104589 0.037109959540320182 
	0.64482029055228285 0.045092319025655844 
	0.67641200463031115 0.057692542705254417 
	0.70833279906331037 0.070424018714845354 
	0.73809469918685167 0.087607059762766476 
	0.7678565993103913 0.1047901008106866 
	0.79484277817887095 0.12606858169385077 
	0.82155074901778713 0.14712769679472093 
	0.84499458534484317 0.17176889346684146 
	0.86796480881680416 0.19591228818598672 
	0.88734840726903907 0.22301968175230866 
	0.90616189988444495 0.24932979903727015 
	0.92124485379320042 0.27794228367813845 
	0.94973487784307919 0.33198808799979218 
	0.96365857380730358 0.39147557513643005 
	0.97618990017510388 0.44501431355939713 
	0.97618990017510399 0.50000004491273797 
	0.001 
	spline forward { ref 0 } I I I I 
	} 0 0 #
face $-1 $54 $55 $10 $-1 $56 reversed single #
loop $-1 $-1 $57 $22 #
plane-surface $-1 0 0 -42.500422408785639 0 0 1 1 0 0 forward_v I I I I #
coedge $-1 $58 $59 $60 $61 forward $23 $-1 #
model_id-kcp-attrib $-1 $-1 $-1 $26 1 990662176 110 -1787953151 5 #
loop $-1 $-1 $46 $26 #
spline-surface $-1 forward { exactsur full nurbs 2 1 both periodic open none none 4 2 
	0 2 0.33333333333333298 2 0.66666666666666696 2 1 2 
	0 1 1 1 
	157.18962410005096 -0.22119891148302884 -22.499999999999972 1 
	156.80649634607866 12.763531086639269 -22.499999999999972 0.5 
	168.24316626272068 6.6029644554130371 -22.499999999999979 1 
	179.67983617936252 0.44239782418685536 -22.499999999999979 0.5 
	168.62629401669298 -6.3817655427092177 -22.499999999999979 1 
	157.57275185402344 -13.205928909605291 -22.499999999999979 0.5 
	157.18962410005096 -0.22119891148302884 -22.499999999999972 1 
	157.18962410005102 -0.22119891148305726 62.500000000000057 1 
	156.80649634607872 12.763531086639247 62.500000000000064 0.5 
	168.24316626272068 6.6029644554130158 62.50000000000005 1 
	179.67983617936252 0.44239782418682694 62.50000000000005 0.5 
	168.62629401669298 -6.3817655427092461 62.500000000000043 1 
	157.57275185402344 -13.205928909605319 62.500000000000057 0.5 
	157.18962410005102 -0.22119891148305726 62.500000000000057 1 
	0 
	0 
	0 
	0 
	0 
	0 
	0 
	F 1 F 0 F 1 F 0 } I I I I #
tcoedge-coedge $-1 $42 $42 $62 $63 forward $29 $64 0 1 #
tcoedge-coedge $-1 $50 $49 $30 $44 forward $27 $65 0 1 #
tedge-edge $-1 $66 0 $66 1 $30 $67 forward 7 unknown 0.00036653227167176975 #
pcurve $-1 0 forward { exppc nubs 2 periodic 37 
	-1 2 -0.95833333333333337 2 -0.91666666666666674 2 -0.89583333333333337 2 -0.875 2 
	-0.85416666666666674 2 -0.83333333333333337 2 -0.8125 2 -0.79166666666666674 2 -0.77083333333333337 2 
	-0.75 2 -0.70833333333333337 2 -0.66666666666666674 2 -0.625 2 -0.58333333333333337 2 
	-0.5625 2 -0.54166666666666674 2 -0.52083333333333337 2 -0.5 2 -0.47916666666666669 2 
	-0.45833333333333337 2 -0.4375 2 -0.41666666666666669 2 -0.375 2 -0.33333333333333337 2 
	-0.29166666666666669 2 -0.25 2 -0.22916666666666666 2 -0.20833333333333331 2 -0.18749999999999997 2 
	-0.16666666666666663 2 -0.14583333333333331 2 -0.12499999999999997 2 -0.10416666666666664 2 -0.083333333333333315 2 
	-0.041666666666666657 2 0 2 
	0.49999995508726203 0.023810099824895976 
	0.55498568644059287 0.023810099824895882 
	0.6085244248635695 0.036341426192697847 
	0.66801191200020826 0.050265122156921777 
	0.72205771632186255 0.078755146206800908 
	0.75067020096273307 0.093838100115557641 
	0.77698031824769109 0.1126515927309608 
	0.80408771181401018 0.13203519118319351 
	0.82823110653315868 0.15500541465515769 
	0.85287230320527607 0.17844925098221071 
	0.87393141830614895 0.20515722182113041 
	0.89520989918932159 0.23214340068962083 
	0.9123929402372335 0.261905300813146 
	0.92957598128515273 0.29166720093668397 
	0.94230745729474585 0.32358799536968863 
	0.95490768097434475 0.35517970944771776 
	0.96289004045968074 0.38824152990895583 
	0.9707111401574311 0.42063543480530785 
	0.97394413205066188 0.45380292549024137 
	0.97708203594703336 0.48599490174326931 
	0.97583801487569111 0.51831551726203295 
	0.97348819729648872 0.57936556879748424 
	0.9558027281477568 0.63784509184722971 
	0.93988580591389814 0.69047666259200069 
	0.91239294023723294 0.73809570278965109 
	0.88490007456057418 0.78571474298729038 
	0.8472782583714471 0.82581498736426606 
	0.80547624038353294 0.87037081444978948 
	0.75378025364109047 0.90293084193535955 
	0.72641179007156675 0.92016850354536439 
	0.69696376889023215 0.93354698718298679 
	0.66662338343067828 0.94733087941568739 
	0.63465888901378242 0.95675456084008137 
	0.60203533285633437 0.96637254497425595 
	0.56837599407585782 0.97125628821337306 
	0.53436603718309583 0.97619090377789608 
	0.49999995508726014 0.97619090377789608 
	0.46563387299140113 0.97619090377789608 
	0.43162391609866568 0.97125628821337728 
	0.39796457731822921 0.96637254497426639 
	0.36534102116073897 0.95675456084007904 
	0.3333765267438189 0.94733087941567762 
	0.30303614128429074 0.93354698718298867 
	0.2735881201029644 0.92016850354536994 
	0.2462196565334317 0.90293084193535955 
	0.19452366979099128 0.87037081444979092 
	0.15272165180307362 0.82581498736426395 
	0.11509983561394901 0.78571474298729105 
	0.087606969937289864 0.73809570278965109 
	0.060114104260623365 0.69047666259199836 
	0.04419718202676421 0.63784509184722549 
	0.026511712878034291 0.57936556879748602 
	0.02416189529883192 0.51831551726203595 
	0.02291787422748922 0.48599490174326038 
	0.026055778123859501 0.45380292549024598 
	0.029288770017089828 0.42063543480531784 
	0.037109869714843043 0.38824152990895383 
	0.045092229200178829 0.35517970944771637 
	0.057692452879777346 0.32358799536968824 
	0.070423928889370505 0.29166720093668347 
	0.087606969937288018 0.2619053008131485 
	0.10479001098520593 0.23214340068961292 
	0.12606849186837371 0.20515722182112872 
	0.14712760696924002 0.17844925098221748 
	0.17176880364136513 0.1550054146551571 
	0.19591219836051726 0.13203519118318963 
	0.22301959192683204 0.11265159273096002 
	0.24932970921179204 0.093838100115555351 
	0.27794219385266045 0.078755146206799687 
	0.33198799817431762 0.050265122156918987 
	0.39147548531095261 0.036341426192695314 
	0.44501422373391553 0.023810099824896069 
	0.49999995508726203 0.023810099824895976 
	0.001 
	spline forward { ref 1 } I I I I 
	} 0 0 #
tcoedge-coedge $-1 $68 $69 $31 $47 reversed $40 $70 -1 0 #
tedge-edge $-1 $71 0 $71 1 $31 $72 forward 7 unknown 0.00039858634742135648 #
pcurve $-1 0 forward { exppc nubs 2 periodic 25 
	0 2 0.041666666666666664 2 0.083333333333333329 2 0.125 2 0.16666666666666666 2 
	0.20833333333333331 2 0.25 2 0.29166666666666663 2 0.33333333333333331 2 0.375 2 
	0.41666666666666663 2 0.45833333333333331 2 0.5 2 0.54166666666666663 2 0.58333333333333326 2 
	0.625 2 0.66666666666666663 2 0.70833333333333326 2 0.75 2 0.79166666666666674 2 
	0.83333333333333337 2 0.875 2 0.91666666666666674 2 0.95833333333333337 2 1 2 
	0.82467477227349051 0.50000004491273797 
	0.8246747722734904 0.4625097735354608 
	0.81613068611362616 0.42600608824707276 
	0.80663725704711076 0.38544643792664307 
	0.78721224064946371 0.34859702588914754 
	0.76623322294000606 0.30879966088865451 
	0.73522342125285867 0.27620607801780861 
	0.70292154449540922 0.24225442919400636 
	0.6623371352360472 0.21882300958321199 
	0.62175272597668352 0.19539158997241668 
	0.57619879721617673 0.18439316852245233 
	0.53246702560609038 0.17383468393048657 
	0.48751198765725673 0.17556500414789911 
	0.44588695251945104 0.17716715249735501 
	0.40601455044007972 0.18922542691694469 
	0.37012938856865973 0.2000778738945711 
	0.33766186116116081 0.21882300958321199 
	0.30519433375366983 0.2375681452718483 
	0.27785325804210192 0.2632193835826106 
	0.24747428502924856 0.29172075948345777 
	0.22527426628908387 0.3269680231714916 
	0.20129824604970264 0.36503506795457352 
	0.18857627612677058 0.40818713541738272 
	0.17532422412371762 0.45313720569113791 
	0.17532422412371762 0.50000004491273797 
	0.17532422412371762 0.5468628841343306 
	0.18857627612677225 0.59181295440809378 
	0.20129824604970706 0.63496502187091453 
	0.22527426628908068 0.67303206665398485 
	0.24747428502924201 0.70827933034201385 
	0.2778532580421007 0.7367807062428664 
	0.30519433375366778 0.76243194455362828 
	0.33766186116115837 0.78117708024226462 
	0.37012938856865402 0.79992221593090385 
	0.40601455044007895 0.81077466290853195 
	0.44588695251945021 0.82283293732812179 
	0.48751198765725906 0.82443508567757795 
	0.53246702560608639 0.82616540589499043 
	0.57619879721617495 0.81560692130302415 
	0.62175272597668907 0.80460849985305805 
	0.66233713523604476 0.78117708024226706 
	0.70292154449540301 0.75774566063147475 
	0.73522342125285589 0.723794011807669 
	0.76623322294000951 0.69120042893681677 
	0.78721224064946371 0.65140306393632985 
	0.80663725704710953 0.61455365189883637 
	0.81613068611362516 0.57399400157840497 
	0.82467477227349062 0.53749031629001054 
	0.82467477227349051 0.50000004491273797 
	0.001 
	spline forward { ref 0 } I I I I 
	} 0 0 #
coedge $-1 $43 $32 $50 $73 reversed $27 $74 #
coedge $-1 $32 $43 $49 $73 forward $27 $75 #
pcurve $-1 0 forward { exppc nubs 2 periodic 37 
	0 2 0.041666666666666664 2 0.083333333333333329 2 0.10416666666666666 2 0.125 2 
	0.14583333333333331 2 0.16666666666666666 2 0.1875 2 0.20833333333333331 2 0.22916666666666666 2 
	0.25 2 0.29166666666666663 2 0.33333333333333331 2 0.375 2 0.41666666666666663 2 
	0.4375 2 0.45833333333333331 2 0.47916666666666663 2 0.5 2 0.52083333333333326 2 
	0.54166666666666663 2 0.5625 2 0.58333333333333326 2 0.625 2 0.66666666666666663 2 
	0.70833333333333326 2 0.75 2 0.77083333333333337 2 0.79166666666666674 2 0.8125 2 
	0.83333333333333337 2 0.85416666666666674 2 0.875 2 0.89583333333333337 2 0.91666666666666674 2 
	0.95833333333333337 2 1 2 
	0 0 
	0.029639372108130148 0 
	0.056036937891933584 0 
	0.085340657706982292 0 
	0.11207387578386882 0 
	0.12632287710602563 0 
	0.14009234472984058 0 
	0.15427801792417956 0 
	0.16811081367587266 0 
	0.18222808851750683 0 
	0.19612928262176973 0 
	0.21017490471676087 0 
	0.22414775156773645 0 
	0.23812059841871311 0 
	0.2521662205137053 0 
	0.26606741461796757 0 
	0.28018468945960107 0 
	0.29401748521129462 0 
	0.30820315840563411 0 
	0.32197262602944943 0 
	0.33622162735160671 0 
	0.3629548454284931 0 
	0.39225856524354169 0 
	0.41865613102734461 0 
	0.448295503135474 0 
	0.47793487524360434 0 
	0.50433244102740793 0 
	0.5336361608424568 0 
	0.56036937891934346 0 
	0.57461838024149992 0 
	0.58838784786531462 0 
	0.60257352105965412 0 
	0.61640631681134772 0 
	0.63052359165298166 0 
	0.64442478575724438 0 
	0.65847040785223576 0 
	0.67244325470321153 0 
	0.6864161015541872 0 
	0.70046172364917836 0 
	0.71436291775344118 0 
	0.72848019259507535 0 
	0.74231298834676906 0 
	0.75649866154110879 0 
	0.77026812916492382 0 
	0.78451713048708061 0 
	0.81125034856396661 0 
	0.84055406837901436 0 
	0.86695163416281829 0 
	0.89659100627094901 0 
	0.92623037837907973 0 
	0.95262794416288332 0 
	0.98193166397793152 0 
	1.0086648820548174 0 
	1.0229138833769749 0 
	1.0366833510007905 0 
	1.0508690241951288 0 
	1.0647018199468214 0 
	1.0788190947884557 0 
	1.092720288892719 0 
	1.1067659109877104 0 
	1.120738757838686 0 
	1.1347116046896617 0 
	1.1487572267846529 0 
	1.1626584208889157 0 
	1.17677569573055 0 
	1.1906084914822435 0 
	1.2047941646765825 0 
	1.2185636323003977 0 
	1.2328126336225547 0 
	1.2595458516994404 0 
	1.2888495715144885 0 
	1.3152471372982923 0 
	1.3448865094064231 0 
	0.001 
	spline forward { ref 2 } I I I I 
	} 0 0 #
tvertex-vertex $-1 $33 $76 2.1281848913138573e-014 #
intcurve-curve $-1 forward { exactcur full nurbs 2 periodic 4 
	0 2 0.33333333333333298 2 0.66666666666666696 2 1 2 
	153.6911466654914 -0.32442507036502377 -22.499999999999972 1 
	154.2530673713176 -19.368695734277679 -22.499999999999982 0.5 
	170.46492920989962 -9.3599227961633886 -22.499999999999979 1 
	186.6767910484817 0.64885014195085233 -22.499999999999979 0.5 
	169.90300850407348 9.6843478677492314 -22.499999999999972 1 
	153.12922595966526 18.719845593547628 -22.499999999999972 0.5 
	153.6911466654914 -0.32442507036502377 -22.499999999999972 1 
	0 
	null_surface 
	null_surface 
	nullbs 
	nullbs 
	I I 
	0 
	0 
	0 
	F 1 F 0 } I I #
face $-1 $77 $78 $10 $-1 $79 reversed single #
loop $-1 $-1 $80 $35 #
plane-surface $-1 0 -19.044637196184333 0 0 1 0 0 0 1 forward_v I I I I #
coedge $-1 $81 $82 $83 $84 forward $36 $-1 #
coedge $-1 $85 $38 $86 $87 forward $23 $-1 #
coedge $-1 $38 $85 $88 $89 forward $23 $-1 #
coedge $-1 $90 $91 $38 $61 reversed $92 $-1 #
edge $-1 $93 -19.044637196184333 $94 19.044637196184333 $60 $95 forward 7 unknown #
tcoedge-coedge $-1 $69 $68 $42 $63 reversed $40 $96 -1 0 #
tedge-edge $-1 $97 0 $97 1 $42 $98 forward 7 unknown 0.00039858634741575261 #
pcurve $-1 0 forward { exppc nubs 2 periodic 25 
	0 2 0.041666666666666664 2 0.083333333333333329 2 0.125 2 0.16666666666666666 2 
	0.20833333333333331 2 0.25 2 0.29166666666666663 2 0.33333333333333331 2 0.375 2 
	0.41666666666666663 2 0.45833333333333331 2 0.5 2 0.54166666666666663 2 0.58333333333333326 2 
	0.625 2 0.66666666666666663 2 0.70833333333333326 2 0.75 2 0.79166666666666674 2 
	0.83333333333333337 2 0.875 2 0.91666666666666674 2 0.95833333333333337 2 1 2 
	0.49999995508726203 0.1753252277265096 
	0.46250968370998424 0.17532522772650971 
	0.42600599842159637 0.18386931388637384 
	0.38544634810116363 0.19336274295288997 
	0.34859693606366965 0.21278775935053607 
	0.30879957106318145 0.2337667770599911 
	0.27620598819233022 0.26477657874714389 
	0.24225433936852836 0.29707845550459328 
	0.21882291975773352 0.33766286476395652 
	0.19539150014694032 0.37824727402331693 
	0.1843930786969761 0.42380120278382444 
	0.17383459410500965 0.46753297439391517 
	0.1755649143224223 0.51248801234274399 
	0.1771670626718784 0.55411304748054824 
	0.18922533709146888 0.59398544955992194 
	0.20007778406909724 0.62987061143134793 
	0.21882291975773538 0.66233813883884163 
	0.237568055446372 0.69480566624633266 
	0.26321929375713371 0.72214674195789952 
	0.29172066965798638 0.75252571497075826 
	0.32696793334601448 0.77472573371091868 
	0.36503497812909169 0.79870175395029641 
	0.40818704559190605 0.81142372387322936 
	0.45313711586567162 0.82467577587628471 
	0.49999995508726203 0.82467577587628471 
	0.54686279430885321 0.82467577587628471 
	0.59181286458261728 0.81142372387322914 
	0.63496493204543192 0.79870175395029541 
	0.67303197682850757 0.77472573371091802 
	0.70827924051653668 0.75252571497075615 
	0.73678061641738934 0.72214674195789685 
	0.76243185472815378 0.69480566624632656 
	0.78117699041678801 0.66233813883883919 
	0.79992212610542579 0.62987061143134571 
	0.81077457308305445 0.59398544955991817 
	0.82283284750264407 0.55411304748054691 
	0.82443499585210023 0.51248801234273966 
	0.82616531606951282 0.46753297439391073 
	0.81560683147754687 0.42380120278382294 
	0.80460841002758332 0.37824727402331892 
	0.78117699041678867 0.33766286476395652 
	0.75774557080599159 0.29707845550458978 
	0.72379392198219206 0.26477657874714311 
	0.69120033911134315 0.23376677705999294 
	0.65140297411085268 0.2127877593505367 
	0.61455356207335932 0.19336274295289091 
	0.57399391175292647 0.18386931388637501 
	0.53749022646453193 0.17532522772650949 
	0.49999995508726203 0.1753252277265096 
	0.001 
	spline forward { ref 1 } I I I I 
	} 0 0 #
pcurve $-1 0 forward { exppc nubs 2 periodic 37 
	0 2 0.041666666666666664 2 0.083333333333333329 2 0.10416666666666666 2 0.125 2 
	0.14583333333333331 2 0.16666666666666666 2 0.1875 2 0.20833333333333331 2 0.22916666666666666 2 
	0.25 2 0.29166666666666663 2 0.33333333333333331 2 0.375 2 0.41666666666666663 2 
	0.4375 2 0.45833333333333331 2 0.47916666666666663 2 0.5 2 0.52083333333333326 2 
	0.54166666666666663 2 0.5625 2 0.58333333333333326 2 0.625 2 0.66666666666666663 2 
	0.70833333333333326 2 0.75 2 0.77083333333333337 2 0.79166666666666674 2 0.8125 2 
	0.83333333333333337 2 0.85416666666666674 2 0.875 2 0.89583333333333337 2 0.91666666666666674 2 
	0.95833333333333337 2 1 2 
	1.3448865094064231 1 
	1.3152471372982926 0.99999999999999978 
	1.288849571514489 0.99999999999999967 
	1.2595458516994404 0.99999999999999978 
	1.2328126336225544 1 
	1.2185636323003977 1 
	1.204794164676583 1 
	1.1906084914822435 0.99999999999999978 
	1.17677569573055 0.99999999999999956 
	1.1626584208889161 0.99999999999999978 
	1.1487572267846533 0.99999999999999989 
	1.1347116046896619 0.99999999999999989 
	1.120738757838686 1 
	1.1067659109877104 1.0000000000000002 
	1.092720288892719 1 
	1.0788190947884564 0.99999999999999978 
	1.0647018199468226 0.99999999999999978 
	1.0508690241951288 0.99999999999999978 
	1.0366833510007891 0.99999999999999967 
	1.0229138833769738 0.99999999999999967 
	1.0086648820548167 1 
	0.9819316639779303 1 
	0.95262794416288177 1 
	0.92623037837907873 1 
	0.89659100627094901 1 
	0.86695163416281873 1 
	0.84055406837901525 1 
	0.81125034856396672 1 
	0.78451713048708016 1 
	0.77026812916492315 1 
	0.75649866154110823 1 
	0.74231298834676884 1 
	0.72848019259507535 1 
	0.71436291775344118 1 
	0.70046172364917836 1 
	0.6864161015541872 1 
	0.67244325470321153 1 
	0.65847040785223576 1 
	0.64442478575724449 1 
	0.63052359165298177 1 
	0.61640631681134772 1 
	0.60257352105965412 1 
	0.58838784786531451 1 
	0.5746183802414998 0.99999999999999989 
	0.56036937891934335 1 
	0.53363616084245691 0.99999999999999989 
	0.50433244102740848 0.99999999999999978 
	0.47793487524360473 1 
	0.448295503135474 1 
	0.41865613102734378 1 
	0.39225856524354019 1 
	0.36295484542849205 1 
	0.33622162735160604 1 
	0.32197262602944865 0.99999999999999956 
	0.30820315840563317 0.99999999999999944 
	0.29401748521129456 0.99999999999999978 
	0.2801846894596019 1 
	0.26606741461796724 0.99999999999999989 
	0.2521662205137038 0.99999999999999989 
	0.23812059841871239 1 
	0.22414775156773645 1 
	0.21017490471676142 1 
	0.19612928262177085 1 
	0.18222808851750788 1 
	0.16811081367587366 1 
	0.15427801792417986 1.0000000000000002 
	0.14009234472984006 1 
	0.12632287710602547 1 
	0.11207387578386901 1 
	0.085340657706982584 1 
	0.056036937891933938 1 
	0.029639372108130311 1 
	0 1 
	0.001 
	spline forward { ref 2 } I I I I 
	} 0 0 #
tvertex-vertex $-1 $44 $99 3.4261129972154531e-014 #
intcurve-curve $-1 forward { exactcur full nurbs 2 periodic 4 
	0 2 0.33333333333333298 2 0.66666666666666696 2 1 2 
	153.6911466654914 -0.32442507036505219 62.500000000000057 1 
	153.12922595966532 18.719845593547603 62.500000000000064 0.5 
	169.90300850407348 9.6843478677492101 62.50000000000005 1 
	186.6767910484817 0.64885014195083102 62.50000000000005 0.5 
	170.46492920989962 -9.359922796163417 62.500000000000043 1 
	154.2530673713176 -19.368695734277708 62.50000000000005 0.5 
	153.6911466654914 -0.32442507036505219 62.500000000000057 1 
	0 
	null_surface 
	null_surface 
	nullbs 
	nullbs 
	I I 
	0 
	0 
	0 
	F 1 F 0 } I I #
coedge $-1 $62 $46 $69 $100 forward $40 $101 #
coedge $-1 $46 $62 $68 $100 reversed $40 $102 #
pcurve $-1 0 forward { exppc nubs 2 periodic 25 
	-1 2 -0.95833333333333337 2 -0.91666666666666674 2 -0.875 2 -0.83333333333333337 2 
	-0.79166666666666674 2 -0.75 2 -0.70833333333333337 2 -0.66666666666666674 2 -0.625 2 
	-0.58333333333333337 2 -0.54166666666666674 2 -0.5 2 -0.45833333333333337 2 -0.41666666666666669 2 
	-0.375 2 -0.33333333333333337 2 -0.29166666666666669 2 -0.25 2 -0.20833333333333331 2 
	-0.16666666666666663 2 -0.12499999999999997 2 -0.083333333333333315 2 -0.041666666666666657 2 0 2 
	0 0 
	0.022038567493113007 0 
	0.041666666666666768 0 
	0.063455657492354517 0 
	0.083333333333332829 0 
	0.10478547854788192 0 
	0.1250000000000521 0 
	0.14604810996566092 0 
	0.16666666666666649 0 
	0.187285223367672 0 
	0.20833333333328075 0 
	0.22854785478545081 0 
	0.24999999999999983 0 
	0.2698776758409791 0 
	0.29166666666666802 0 
	0.31129476584022092 0 
	0.33333333333333298 0 
	0.3553719008264451 0 
	0.3749999999999985 0 
	0.3967889908256873 0 
	0.41666666666666663 0 
	0.43811881188121504 0 
	0.45833333333338455 0 
	0.4793814432989939 0 
	0.5 0 
	0.52061855670100532 0 
	0.54166666666661389 0 
	0.56188118811878396 0 
	0.5833333333333327 0 
	0.60321100917431192 0 
	0.62500000000000078 0 
	0.64462809917355357 0 
	0.6666666666666653 0 
	0.68870523415977947 0 
	0.70833333333333459 0 
	0.73012232415902156 0 
	0.74999999999999922 0 
	0.77145214521454841 0 
	0.79166666666671859 0 
	0.81271477663232772 0 
	0.83333333333333348 0 
	0.85395189003433869 0 
	0.87499999999994715 0 
	0.89521452145211777 0 
	0.9166666666666673 0 
	0.93654434250764584 0 
	0.95833333333333359 0 
	0.97796143250688716 0 
	1 0 
	0.001 
	spline forward { ref 4 } I I I I 
	} 0 0 #
tvertex-vertex $-1 $47 $103 4.1621371287661123e-014 #
intcurve-curve $-1 forward { exactcur full nurbs 2 periodic 4 
	0 2 0.33333333333333298 2 0.66666666666666696 2 1 2 
	157.18962410005096 -0.22119891148302884 -22.499999999999972 1 
	157.57275185402344 -13.205928909605291 -22.499999999999982 0.5 
	168.62629401669298 -6.3817655427092177 -22.499999999999979 1 
	179.67983617936252 0.44239782418685536 -22.499999999999979 0.5 
	168.24316626272068 6.6029644554130371 -22.499999999999979 1 
	156.80649634607866 12.763531086639269 -22.499999999999972 0.5 
	157.18962410005096 -0.22119891148302884 -22.499999999999972 1 
	0 
	null_surface 
	null_surface 
	nullbs 
	nullbs 
	I I 
	0 
	0 
	0 
	F 1 F 0 } I I #
edge $-1 $66 0 $52 1 $50 $104 forward 7 unknown #
pcurve $-1 0 forward { exppc nubs 2 open 7 
	-1 2 -0.83333333333333337 2 -0.66666666666666674 2 -0.5 2 -0.33333333333333337 2 
	-0.16666666666666663 2 0 2 
	1.3448865094064231 0 
	1.3448865094064231 0.083333333333333315 
	1.3448865094064231 0.16666666666666663 
	1.3448865094064231 0.24999999999999997 
	1.3448865094064231 0.33333333333333331 
	1.3448865094064231 0.41666666666666663 
	1.3448865094064231 0.5 
	1.3448865094064231 0.58333333333333326 
	1.3448865094064231 0.66666666666666663 
	1.3448865094064231 0.75 
	1.3448865094064231 0.83333333333333337 
	1.3448865094064231 0.91666666666666674 
	1.3448865094064231 1 
	0.001 
	spline forward { ref 2 } I I I I 
	} 0 0 #
pcurve $-1 0 forward { exppc nubs 2 open 7 
	0 2 0.16666666666666666 2 0.33333333333333331 2 0.5 2 0.66666666666666663 2 
	0.83333333333333337 2 1 2 
	0 1 
	0 0.91666666666666674 
	0 0.83333333333333359 
	0 0.75000000000000022 
	0 0.66666666666666674 
	0 0.58333333333333337 
	0 0.5 
	0 0.41666666666666669 
	0 0.33333333333333337 
	0 0.25 
	0 0.16666666666666663 
	0 0.083333333333333315 
	0 0 
	0.001 
	spline forward { ref 2 } I I I I 
	} 0 0 #
point $-1 153.6911466654914 -0.32442507036502377 -22.499999999999972 #
face $-1 $105 $106 $10 $-1 $107 reversed single #
loop $-1 $-1 $108 $54 #
plane-surface $-1 -16.938215693814257 0 0 1 0 0 0 0 -1 forward_v I I I I #
coedge $-1 $109 $88 $110 $111 forward $55 $-1 #
coedge $-1 $112 $57 $109 $113 forward $36 $-1 #
coedge $-1 $57 $112 $114 $115 forward $36 $-1 #
coedge $-1 $91 $90 $57 $84 reversed $92 $-1 #
edge $-1 $116 -19.044637196184333 $117 19.044637196184333 $83 $118 forward 7 unknown #
coedge $-1 $59 $58 $119 $120 forward $23 $-1 #
coedge $-1 $121 $122 $58 $87 reversed $106 $-1 #
edge $-1 $94 -16.938215693814257 $123 16.938215693814257 $86 $124 forward 7 unknown #
coedge $-1 $80 $125 $59 $89 reversed $55 $-1 #
edge $-1 $126 -16.938215693814257 $93 16.938215693814257 $88 $127 forward 7 unknown #
coedge $-1 $83 $60 $125 $128 forward $92 $-1 #
coedge $-1 $60 $83 $121 $129 reversed $92 $-1 #
loop $-1 $-1 $90 $105 #
vertex $-1 $61 $130 #
vertex $-1 $61 $131 #
straight-curve $-1 16.938215693814257 0 42.500422408785639 0 1 0 I I #
pcurve $-1 0 forward { exppc nubs 2 periodic 25 
	-1 2 -0.95833333333333337 2 -0.91666666666666674 2 -0.875 2 -0.83333333333333337 2 
	-0.79166666666666674 2 -0.75 2 -0.70833333333333337 2 -0.66666666666666674 2 -0.625 2 
	-0.58333333333333337 2 -0.54166666666666674 2 -0.5 2 -0.45833333333333337 2 -0.41666666666666669 2 
	-0.375 2 -0.33333333333333337 2 -0.29166666666666669 2 -0.25 2 -0.20833333333333331 2 
	-0.16666666666666663 2 -0.12499999999999997 2 -0.083333333333333315 2 -0.041666666666666657 2 0 2 
	1 1 
	0.97796143250688716 1 
	0.95833333333333359 1 
	0.93654434250764551 1 
	0.91666666666666685 1 
	0.89521452145211777 1 
	0.8749999999999476 1 
	0.85395189003433891 1 
	0.83333333333333348 1 
	0.81271477663232816 1 
	0.7916666666667197 1 
	0.77145214521454974 1 
	0.75000000000000089 1 
	0.73012232415902167 1 
	0.70833333333333293 1 
	0.68870523415977869 0.99999999999999989 
	0.6666666666666653 0.99999999999999978 
	0.64462809917355357 0.99999999999999978 
	0.62500000000000078 0.99999999999999978 
	0.60321100917431247 0.99999999999999967 
	0.58333333333333381 0.99999999999999989 
	0.56188118811878474 0.99999999999999956 
	0.54166666666661467 0.99999999999999967 
	0.52061855670100576 1 
	0.5 1 
	0.4793814432989939 0.99999999999999989 
	0.45833333333338455 0.99999999999999978 
	0.43811881188121493 1 
	0.41666666666666624 1 
	0.39678899082568736 1 
	0.37499999999999911 0.99999999999999989 
	0.35537190082644565 0.99999999999999978 
	0.33333333333333298 0.99999999999999978 
	0.31129476584021959 0.99999999999999956 
	0.2916666666666658 0.99999999999999956 
	0.26987767584097866 0.99999999999999978 
	0.25000000000000078 1 
	0.22854785478545125 0.99999999999999989 
	0.20833333333328066 0.99999999999999978 
	0.18728522336767195 0.99999999999999978 
	0.16666666666666649 1 
	0.14604810996566103 1 
	0.12500000000005232 0.99999999999999978 
	0.10478547854788212 0.99999999999999967 
	0.083333333333333079 0.99999999999999978 
	0.063455657492354392 0.99999999999999978 
	0.041666666666666186 0.99999999999999978 
	0.022038567493112688 0.99999999999999989 
	0 1 
	0.001 
	spline forward { ref 4 } I I I I 
	} 0 0 #
tvertex-vertex $-1 $63 $132 3.9601205531894754e-014 #
intcurve-curve $-1 forward { exactcur full nurbs 2 periodic 4 
	0 2 0.33333333333333298 2 0.66666666666666696 2 1 2 
	157.18962410005102 -0.22119891148305726 62.500000000000057 1 
	156.80649634607872 12.763531086639247 62.500000000000064 0.5 
	168.24316626272068 6.6029644554130158 62.50000000000005 1 
	179.67983617936252 0.44239782418682694 62.50000000000005 0.5 
	168.62629401669298 -6.3817655427092461 62.500000000000043 1 
	157.57275185402344 -13.205928909605317 62.500000000000057 0.5 
	157.18962410005102 -0.22119891148305726 62.500000000000057 1 
	0 
	null_surface 
	null_surface 
	nullbs 
	nullbs 
	I I 
	0 
	0 
	0 
	F 1 F 0 } I I #
point $-1 153.6911466654914 -0.32442507036505219 62.500000000000057 #
edge $-1 $71 0 $97 1 $69 $133 forward 7 unknown #
pcurve $-1 0 forward { exppc nubs 2 open 7 
	0 2 0.16666666666666666 2 0.33333333333333331 2 0.5 2 0.66666666666666663 2 
	0.83333333333333337 2 1 2 
	1 0 
	1 0.083333333333333329 
	1 0.16666666666666666 
	1 0.25 
	1 0.33333333333333331 
	1 0.41666666666666663 
	1 0.5 
	1 0.58333333333333326 
	1 0.66666666666666663 
	1 0.75 
	1 0.83333333333333337 
	1 0.91666666666666674 
	1 1 
	0.001 
	spline forward { ref 4 } I I I I 
	} 0 0 #
pcurve $-1 0 forward { exppc nubs 2 open 7 
	-1 2 -0.83333333333333337 2 -0.66666666666666674 2 -0.5 2 -0.33333333333333337 2 
	-0.16666666666666663 2 0 2 
	0 1 
	0 0.91666666666666674 
	0 0.83333333333333337 
	0 0.75 
	0 0.66666666666666674 
	0 0.58333333333333337 
	0 0.5 
	0 0.41666666666666669 
	0 0.33333333333333337 
	0 0.25 
	0 0.16666666666666663 
	0 0.083333333333333315 
	0 0 
	0.001 
	spline forward { ref 4 } I I I I 
	} 0 0 #
point $-1 157.18962410005096 -0.22119891148302884 -22.499999999999972 #
intcurve-curve $-1 forward { exactcur full nubs 1 open 2 
	0 1 1 1 
	153.6911466654914 -0.32442507036505219 62.500000000000057 
	153.6911466654914 -0.32442507036502377 -22.499999999999972 
	0 
	null_surface 
	null_surface 
	nullbs 
	nullbs 
	I I 
	0 
	0 
	0 
	F 1 F 0 } I I #
face $-1 $-1 $92 $10 $-1 $134 reversed single #
loop $-1 $-1 $121 $77 #
plane-surface $-1 0 19.044637196184333 0 0 -1 0 0 0 -1 forward_v I I I I #
coedge $-1 $135 $119 $122 $136 forward $78 $-1 #
coedge $-1 $125 $80 $81 $113 reversed $55 $-1 #
coedge $-1 $119 $135 $80 $111 reversed $78 $-1 #
edge $-1 $126 -42.500422408785639 $137 42.500422408785639 $110 $138 forward 7 unknown #
coedge $-1 $82 $81 $135 $139 forward $36 $-1 #
edge $-1 $117 -16.938215693814257 $137 16.938215693814257 $109 $140 forward 7 unknown #
coedge $-1 $122 $121 $82 $115 reversed $106 $-1 #
edge $-1 $141 -16.938215693814257 $116 16.938215693814257 $114 $142 forward 7 unknown #
vertex $-1 $84 $143 #
vertex $-1 $128 $144 #
straight-curve $-1 16.938215693814257 0 -42.500422408785639 0 -1 0 I I #
coedge $-1 $108 $110 $85 $120 reversed $78 $-1 #
edge $-1 $123 -19.044637196184333 $126 19.044637196184333 $119 $145 forward 7 unknown #
coedge $-1 $114 $86 $91 $129 forward $106 $-1 #
coedge $-1 $86 $114 $108 $136 reversed $106 $-1 #
vertex $-1 $87 $146 #
straight-curve $-1 0 19.044637196184333 42.500422408785639 -1 0 0 I I #
coedge $-1 $88 $109 $90 $128 reversed $55 $-1 #
vertex $-1 $120 $147 #
straight-curve $-1 0 -19.044637196184333 42.500422408785639 1 0 0 I I #
edge $-1 $93 -42.500422408785639 $117 42.500422408785639 $90 $148 forward 7 unknown #
edge $-1 $94 -42.500422408785639 $116 42.500422408785639 $91 $149 forward 7 unknown #
point $-1 16.938215693814257 -19.044637196184333 42.500422408785639 #
point $-1 16.938215693814257 19.044637196184333 42.500422408785639 #
point $-1 157.18962410005102 -0.22119891148305726 62.500000000000057 #
intcurve-curve $-1 forward { exactcur full nubs 1 open 2 
	0 1 1 1 
	157.18962410005096 -0.22119891148302884 -22.499999999999972 
	157.18962410005102 -0.22119891148305726 62.500000000000057 
	0 
	null_surface 
	null_surface 
	nullbs 
	nullbs 
	I I 
	0 
	0 
	0 
	F 1 F 0 } I I #
plane-surface $-1 16.938215693814257 0 0 -1 0 0 0 0 1 forward_v I I I I #
coedge $-1 $110 $108 $112 $139 reversed $78 $-1 #
edge $-1 $123 -42.500422408785639 $141 42.500422408785639 $122 $150 forward 7 unknown #
vertex $-1 $139 $151 #
straight-curve $-1 -16.938215693814257 -19.044637196184333 0 0 0 -1 I I #
edge $-1 $137 -19.044637196184333 $141 19.044637196184333 $135 $152 forward 7 unknown #
straight-curve $-1 0 -19.044637196184333 -42.500422408785639 -1 0 0 I I #
vertex $-1 $115 $153 #
straight-curve $-1 0 19.044637196184333 -42.500422408785639 1 0 0 I I #
point $-1 16.938215693814257 19.044637196184333 -42.500422408785639 #
point $-1 16.938215693814257 -19.044637196184333 -42.500422408785639 #
straight-curve $-1 -16.938215693814257 0 42.500422408785639 0 -1 0 I I #
point $-1 -16.938215693814257 19.044637196184333 42.500422408785639 #
point $-1 -16.938215693814257 -19.044637196184333 42.500422408785639 #
straight-curve $-1 16.938215693814257 -19.044637196184333 0 0 0 -1 I I #
straight-curve $-1 16.938215693814257 19.044637196184333 0 0 0 -1 I I #
straight-curve $-1 -16.938215693814257 19.044637196184333 0 0 0 -1 I I #
point $-1 -16.938215693814257 -19.044637196184333 -42.500422408785639 #
straight-curve $-1 -16.938215693814257 0 -42.500422408785639 0 1 0 I I #
point $-1 -16.938215693814257 19.044637196184333 -42.500422408785639 #
End-of-ACIS-data 