600 0 1 0           
82 GICL ACIS Healer - Source: /gicl/data5/repository/SDRC_I-DEAS/bmw/Part33.sat - 6 0 18 ACIS 6.0.3 Solaris 24 Sat Apr 13 23:15:50 2002 
1 9.999999999999999547e-07 1.000000000000000036e-10 
body $-1 $1 $-1 $-1 #
lump $-1 $-1 $2 $0 #
shell $-1 $-1 $-1 $3 $-1 $1 #
face $-1 $4 $5 $2 $-1 $6 reversed single #
face $-1 $7 $8 $2 $-1 $9 reversed single #
loop $-1 $-1 $10 $3 #
plane-surface $-1 -318.2243497449309757 13.429203528636382 -90.1689599104287538 -0.3347038706432329813 0.6105511586102650989 0.7177747569370914738 0.9063077847862682779 -0 0.4226182665666584071 forward_v I I I I #
face $-1 $11 $12 $2 $-1 $13 reversed single #
loop $-1 $-1 $14 $4 #
cone-surface $-1 -316.8855342763155818 10.98699886650070212 -93.04005892112813569 -0.3347038706432370891 0.6105511586102692068 0.7177747569370861447 -0.6304682495372730955 0.3068691242823415877 -0.5550201633031264237 1 I I 0 1 0.8942629673566012682 forward I I I I #
coedge $-1 $10 $10 $15 $16 forward $5 $-1 #
face $-1 $17 $18 $2 $-1 $19 reversed single #
loop $-1 $-1 $20 $7 #
plane-surface $-1 -328.4784933497645625 -6.917049435597149909 -77.64368414789730366 -0.3347038706432481914 0.6105511586102669863 0.7177747569370830361 0.906307784786259174 -0 0.4226182665666783356 forward_v I I I I #
coedge $-1 $21 $22 $23 $24 reversed $8 $-1 #
coedge $-1 $22 $21 $10 $16 reversed $8 $-1 #
edge $-1 $25 0 $25 1 $10 $26 forward 7 unknown #
face $-1 $27 $28 $2 $-1 $29 forward single #
loop $-1 $-1 $30 $11 #
cone-surface $-1 -327.1396778034186354 -9.359254049435762113 -80.51478316343263941 -0.3347038706432381994 0.6105511586102668753 0.7177747569370874769 -0.5322554100058596305 -0.6076204065088806061 0.2686572569260334831 1 I I 0 1 0.8512785099986630577 forward I I I I #
coedge $-1 $20 $20 $31 $32 forward $12 $-1 #
coedge $-1 $15 $14 $22 $33 forward $8 $-1 #
coedge $-1 $14 $15 $21 $33 reversed $8 $-1 #
coedge $-1 $23 $23 $14 $24 forward $34 $-1 #
edge $-1 $35 0 $35 1 $14 $36 forward 7 unknown #
vertex $-1 $16 $37 #
intcurve-curve $-1 forward { exactcur full nurbs 2 periodic 4 
	0 2 0.3333333333333329818 2 0.6666666666666669627 2 1 2 
	-317.8716612658790837 14.1290073666030267 -90.59976336515040884 1 
	-316.5460723656162827 13.94028430943850339 -89.82110012629128448 0.5 
	-317.7378995552618903 12.98494003952887255 -89.56422653806490075 1 
	-318.9297267449076116 12.02959576961927013 -89.30735294983855965 0.5 
	-319.0634884555246913 13.17366309669343849 -90.34288977692406775 1 
	-319.1972501661418846 14.31773042376756422 -91.37842660400953321 0.5 
	-317.8716612658790837 14.1290073666030267 -90.59976336515040884 1 
	0 
	null_surface 
	null_surface 
	nullbs 
	nullbs 
	I I 
	0 
	0 
	0 
	F 1 F 0 } I I #
face $-1 $38 $39 $2 $-1 $40 forward single #
loop $-1 $41 $42 $17 #
plane-surface $-1 -326.8049755077768168 -9.9698083331610583 -81.23255599653012382 0.3347038706432385879 -0.6105511586102686516 -0.7177747569370859226 -0.9063077847862642811 0 -0.4226182665666669003 forward_v I I I I #
coedge $-1 $43 $44 $45 $46 reversed $18 $-1 #
coedge $-1 $44 $43 $20 $32 reversed $18 $-1 #
edge $-1 $47 0 $47 1 $20 $48 forward 7 unknown #
edge $-1 $35 0 $25 1 $22 $49 forward 7 unknown #
loop $-1 $-1 $23 $38 #
vertex $-1 $24 $50 #
intcurve-curve $-1 forward { exactcur full nurbs 2 periodic 4 
	0 2 0.3333333333333329818 2 0.6666666666666669627 2 1 2 
	-316.1981419126628907 11.07625157355168 -94.18863714983584146 1 
	-317.5237308129257485 11.26497463071622995 -94.9673003886949374 0.5 
	-317.3899691023084983 10.12090730364206337 -93.93176356160950036 1 
	-317.2562073916914187 8.976839976567923429 -92.89622673452402069 0.5 
	-316.0643802020456974 9.932184246477540057 -93.15310032275033336 1 
	-314.8725530124000898 10.88752851638712826 -93.40997391097677394 0.5 
	-316.1981419126628907 11.07625157355168 -94.18863714983584146 1 
	0 
	null_surface 
	null_surface 
	nullbs 
	nullbs 
	I I 
	0 
	0 
	0 
	F 1 F 0 } I I #
point $-1 -317.8716612658790837 14.1290073666030267 -90.59976336515040884 #
face $-1 $-1 $51 $2 $-1 $52 forward single #
loop $-1 $-1 $53 $27 #
torus-surface $-1 -321.6779021692243532 0.2033212499222543101 -87.49519579921742718 0.8558210910419596917 -0.1218425807996129928 0.5027172621184194945 12.99999999999976019 2.000000000000291323 0.3347038706432330368 -0.6105511586102678745 -0.7177747569370892533 forward_v I I I I #
loop $-1 $-1 $45 $17 #
coedge $-1 $42 $42 $53 $54 reversed $28 $-1 #
coedge $-1 $31 $30 $44 $55 forward $18 $-1 #
coedge $-1 $30 $31 $43 $55 reversed $18 $-1 #
coedge $-1 $45 $45 $30 $46 forward $41 $-1 #
edge $-1 $56 0 $56 1 $30 $57 forward 7 unknown #
vertex $-1 $32 $58 #
intcurve-curve $-1 forward { exactcur full nurbs 2 periodic 4 
	0 2 0.3333333333333329818 2 0.6666666666666669627 2 1 2 
	-329.2070353891992909 -6.813327444357248908 -78.07163653753102039 1 
	-328.6255238442022346 -5.659493295578794658 -78.78194378436452894 0.5 
	-327.8234664618893248 -6.39199332592424696 -77.78486155817762437 1 
	-327.021409079576415 -7.124493356269674393 -76.78777933199077665 0.5 
	-328.4049780068863811 -7.545827474702697657 -77.07455431134414425 1 
	-329.7885469341962903 -7.967161593135701381 -77.36132929069756869 0.5 
	-329.2070353891992909 -6.813327444357248908 -78.07163653753102039 1 
	0 
	null_surface 
	null_surface 
	nullbs 
	nullbs 
	I I 
	0 
	0 
	0 
	F 1 F 0 } I I #
intcurve-curve $-1 forward { exactcur full nubs 1 open 2 
	0 1 1 1 
	-316.1981419126628907 11.07625157355168 -94.18863714983584146 
	-317.8716612658790837 14.1290073666030267 -90.59976336515040884 
	0 
	null_surface 
	null_surface 
	nullbs 
	nullbs 
	I I 
	0 
	0 
	0 
	F 1 F 0 } I I #
point $-1 -316.1981419126628907 11.07625157355168 -94.18863714983584146 #
loop $-1 $34 $59 $38 #
plane-surface $-1 -316.5508288306709233 10.37645083300538928 -93.7578356019048158 0.3347038706432364785 -0.6105511586102676524 -0.71777475693708781 -0.9063077847862658354 0 -0.4226182665666638472 forward_v I I I I #
coedge $-1 $60 $61 $42 $54 forward $39 $-1 #
edge $-1 $62 0 $62 1 $42 $63 forward 7 unknown #
edge $-1 $56 0 $47 1 $44 $64 forward 7 unknown #
vertex $-1 $46 $65 #
intcurve-curve $-1 forward { exactcur full nurbs 2 periodic 4 
	0 2 0.3333333333333329818 2 0.6666666666666669627 2 1 2 
	-327.5335160359829842 -9.866083237408595608 -81.66051032221645301 1 
	-328.1150275809800974 -11.01991738618706229 -80.95020307538300131 0.5 
	-326.7314586536701881 -10.59858326775406567 -80.66342809602960529 1 
	-325.3478897263602789 -10.17724914932104952 -80.37665311667620927 0.5 
	-326.149947108673075 -9.444749118975586555 -81.37373534286305699 1 
	-326.9520044909859848 -8.712249088630123595 -82.37081756904993313 0.5 
	-327.5335160359829842 -9.866083237408595608 -81.66051032221645301 1 
	0 
	null_surface 
	null_surface 
	nullbs 
	nullbs 
	I I 
	0 
	0 
	0 
	F 1 F 0 } I I #
point $-1 -329.2070353891992909 -6.813327444357248908 -78.07163653753102039 #
coedge $-1 $59 $59 $66 $67 reversed $51 $-1 #
coedge $-1 $66 $53 $61 $68 reversed $39 $-1 #
coedge $-1 $53 $66 $60 $68 forward $39 $-1 #
vertex $-1 $68 $69 #
intcurve-curve $-1 forward { exactcur full nurbs 2 periodic 4 
	0 2 0.3333333333333329818 2 0.6666666666666669627 2 1 2 
	-328.5166161148594028 -9.726120046446879996 -82.23799244460656155 1 
	-329.8828236207859845 -12.43694649214289605 -80.56919136836506823 0.5 
	-326.6322565946967984 -11.44706101169372658 -79.8954401201305302 1 
	-323.3816895686076123 -10.45717553124452337 -79.2216888718960206 0.5 
	-325.2660490887701599 -8.73623456599764836 -81.56424119637202352 1 
	-327.1504086089328212 -7.015293600750814207 -83.90679352084808329 0.5 
	-328.5166161148594028 -9.726120046446879996 -82.23799244460656155 1 
	0 
	null_surface 
	null_surface 
	nullbs 
	nullbs 
	I I 
	0 
	0 
	0 
	F 1 F 0 } I I #
intcurve-curve $-1 forward { exactcur full nubs 1 open 2 
	0 1 1 1 
	-327.5335160359829842 -9.866083237408595608 -81.66051032221645301 
	-329.2070353891992909 -6.813327444357248908 -78.07163653753102039 
	0 
	null_surface 
	null_surface 
	nullbs 
	nullbs 
	I I 
	0 
	0 
	0 
	F 1 F 0 } I I #
point $-1 -327.5335160359829842 -9.866083237408595608 -81.66051032221645301 #
coedge $-1 $61 $60 $59 $67 forward $39 $-1 #
edge $-1 $70 0 $70 1 $66 $71 forward 7 unknown #
edge $-1 $70 0 $62 2.501851166488375799 $61 $72 forward 7 unknown #
point $-1 -328.5166161148594028 -9.726120046446879996 -82.23799244460656155 #
vertex $-1 $67 $73 #
intcurve-curve $-1 forward { exactcur full nurbs 2 periodic 4 
	0 2 0.3333333333333329818 2 0.6666666666666669627 2 1 2 
	-318.2624725877562923 10.62013286948967306 -94.76326820230207204 1 
	-319.6286800936829309 7.909306423793638352 -93.09446712606060714 0.5 
	-316.3781130675938016 8.899191904242805151 -92.4207158778260407 1 
	-313.1275460415045586 9.889077384692008366 -91.74696462959155951 0.5 
	-315.0119055616671062 11.61001834993886206 -94.08951695406756244 1 
	-316.8962650818297107 13.33095931518572108 -96.43206927854357957 0.5 
	-318.2624725877562923 10.62013286948967306 -94.76326820230207204 1 
	0 
	null_surface 
	null_surface 
	nullbs 
	nullbs 
	I I 
	0 
	0 
	0 
	F 1 F 0 } I I #
intcurve-curve $-1 forward { exactcur full nurbs 2 open 3 
	0 2 1.2509255832441879 2 2.501851166488375799 2 
	-318.2624725877562923 10.62013286948967306 -94.76326820230207204 1 
	-322.613622906118394 18.55729793142316097 -85.43219636211992452 0.7071067811865470176 
	-327.7406946696699492 8.384171473454891554 -79.16955848327219769 1 
	-332.8677664332213908 -1.788954984513396518 -72.90692060442441402 0.7071067811865470176 
	-328.5166161148594028 -9.726120046446879996 -82.23799244460656155 1 
	0 
	null_surface 
	null_surface 
	nullbs 
	nullbs 
	I I 
	0 
	0 
	0 
	F 1 F 0 } I I #
point $-1 -318.2624725877562923 10.62013286948967306 -94.76326820230207204 #
End-of-ACIS-data 