600 0 1 0           
7 Unknown 16 ACIS 6.0 Solaris 24 Thu Aug 24 19:06:42 2000 
-1 9.999999999999999547e-07 1.000000000000000036e-10 
body $-1 $1 $-1 $-1 #
lump $-1 $-1 $2 $0 #
shell $-1 $-1 $-1 $3 $-1 $1 #
face $-1 $4 $5 $2 $-1 $6 forward single #
face $-1 $7 $8 $2 $-1 $9 forward single #
loop $-1 $-1 $10 $3 #
spline-surface $-1 forward { exactsur full nubs 1 1 open open none none 2 2 
	0 1 1 1 
	0 1 1 1 
	65.00000028732272028 53.03295524444945386 -23.38099914149227487 
	65.00000032089123181 62.68496306837931797 -33.03300657882507352 
	65.00000022376477204 43.38094780711665521 -33.03300696542213899 
	65.00000025733328357 53.03295563104651933 -42.68501440275493763 
	0 
	0 
	0 
	0 
	0 
	0 
	0 
	F 1 F 0 F 1 F 0 } I I I I #
face $-1 $-1 $11 $2 $-1 $12 forward single #
loop $-1 $-1 $13 $4 #
spline-surface $-1 forward { exactsur full nubs 1 1 open open none none 2 2 
	0 1 1 1 
	0 1 1 1 
	295.0000002573332267 53.03295447382163275 -42.68501476006763085 
	295.0000003208912176 62.68496191115443139 -33.03300693613776673 
	295.0000002237647436 43.38094664989176863 -33.0330073227348322 
	295.0000002873226777 53.03295408722456727 -23.38099949880496808 
	0 
	0 
	0 
	0 
	0 
	0 
	0 
	F 1 F 0 F 1 F 0 } I I I I #
tcoedge-coedge $-1 $10 $10 $14 $15 reversed $5 $16 -1 -0 #
loop $-1 $-1 $14 $7 #
spline-surface $-1 forward { exactsur full nurbs 2 1 both periodic open none none 4 2 
	0 2 0.3333333333333329818 2 0.6666666666666669627 2 1 2 
	0 1 3.404886202913178117 1 
	65.0000002883130179 57.62914960750747184 -37.62920075778924911 1 
	65.00000034073472932 65.58999111212285982 -29.66835893431398574 0.5 
	65.0000002905463532 54.71527910517596638 -26.7544888675531638 1 
	65.00000024035799129 43.84056709822904452 -23.84061880079233475 0.5 
	65.00000023812464178 46.75443760056054998 -34.71533069102844138 1 
	65.00000023589130649 49.66830810289209808 -45.59004258126451248 0.5 
	65.0000002883130179 57.62914960750747184 -37.62920075778924911 1 
	295.0000002883130037 57.62914845028258526 -37.62920111510194232 1 
	295.0000003407347435 65.58998995489797323 -29.66835929162667895 0.5 
	295.0000002905463248 54.7152779479510798 -26.75448922486585701 1 
	295.0000002403580197 43.84056594100415793 -23.84061915810502796 0.5 
	295.0000002381245849 46.7544364433356634 -34.71533104834113459 1 
	295.0000002358913207 49.66830694566721149 -45.59004293857720569 0.5 
	295.0000002883130037 57.62914845028258526 -37.62920111510194232 1 
	0 
	0 
	0 
	0 
	0 
	0 
	0 
	F 1 F 0 F 1 F 0 } I I I I #
tcoedge-coedge $-1 $13 $13 $17 $18 reversed $8 $19 -1 -0 #
tcoedge-coedge $-1 $20 $21 $10 $15 forward $11 $22 0 1 #
tedge-edge $-1 $23 0 $23 1 $10 $24 forward 7 unknown 0.0003454415010670548606 #
pcurve $-1 0 forward { exppc nubs 2 periodic 25 
	-1 2 -0.9583333333333333703 2 -0.9166666666666667407 2 -0.875 2 -0.8333333333333333703 2 
	-0.7916666666666667407 2 -0.75 2 -0.7083333333333333703 2 -0.6666666666666667407 2 -0.625 2 
	-0.5833333333333333703 2 -0.5416666666666667407 2 -0.5 2 -0.4583333333333333703 2 -0.4166666666666666852 2 
	-0.375 2 -0.3333333333333333703 2 -0.2916666666666666852 2 -0.25 2 -0.2083333333333333148 2 
	-0.1666666666666666297 2 -0.1249999999999999722 2 -0.08333333333333331483 2 -0.04166666666666665741 2 -0 2 
	0.9761904728635127926 0.5 
	0.9761904728635127926 0.5549857395386582626 
	0.9636591446302625874 0.6085244859315603883 
	0.949735446593317878 0.6680119819236737255 
	0.9212454183023383036 0.7220577942907299152 
	0.8904761877480806831 0.7804272716471500893 
	0.8449951385031571061 0.8282312003072885842 
	0.7976190455396965362 0.8780269593282648 
	0.7380952364317563408 0.9123930465399260337 
	0.6785714273238174776 0.9467591337515863792 
	0.6117589885291913054 0.9628901542795087476 
	0.5476190472863478043 0.9783759339863147275 
	0.481684981812941726 0.9758381306229920726 
	0.4206349211894081508 0.9734883126939892772 
	0.3621553894342460223 0.9558028409125518543 
	0.3095238108546000122 0.9398859163092583291 
	0.2619047635682439923 0.9123930465399270329 
	0.2142857162818967431 0.8849001767706008437 
	0.1741854659354924451 0.8472783549809902448 
	0.1296296322172668658 0.8054763307703132202 
	0.09706959988472116385 0.7537803363322629346 
	0.06190476496557158204 0.697948662339168191 
	0.04324587296765335792 0.6346589539722207185 
	0.02380952713648954583 0.568732174423320247 
	0.02380952713648964297 0.4999999999999989453 
	0.02380952713648974012 0.4312678255766775326 
	0.04324587296765305955 0.365341046027779337 
	0.06190476496557047181 0.3020513376608349176 
	0.09706959988472162182 0.2462196636677379258 
	0.1296296322172670878 0.1945236692296880565 
	0.1741854659354931667 0.1527216450190105879 
	0.2142857162818945227 0.1150998232294028201 
	0.2619047635682444919 0.08760695346007509043 
	0.3095238108546009004 0.06011408369074372482 
	0.3621553894342474655 0.04419715908744965144 
	0.4206349211894095941 0.02651168730601200299 
	0.4816849818129424476 0.02416186937700917289 
	0.5476190472863543546 0.02162406601368623005 
	0.6117589885291918606 0.03710984572049079444 
	0.6785714273238165894 0.05324086624841274651 
	0.7380952364317568959 0.08760695346007395246 
	0.797619045539695315 0.1219730406717340898 
	0.8449951385031573281 0.1717687996927122485 
	0.8904761877480809051 0.2195727283528511875 
	0.9212454183023383036 0.277942205709270751 
	0.9497354465933183221 0.3319880180763277178 
	0.9636591446302628095 0.3914755140684401113 
	0.9761904728635127926 0.4450142604613412933 
	0.9761904728635127926 0.5 
	0.001000000000000000021 
	spline forward { ref 0 } I I I I 
	} 0 0 #
tcoedge-coedge $-1 $21 $20 $13 $18 forward $11 $25 0 1 #
tedge-edge $-1 $26 0 $26 1 $13 $27 forward 7 unknown 0.0003454415010623369006 #
pcurve $-1 0 forward { exppc nubs 2 periodic 25 
	-1 2 -0.9583333333333333703 2 -0.9166666666666667407 2 -0.875 2 -0.8333333333333333703 2 
	-0.7916666666666667407 2 -0.75 2 -0.7083333333333333703 2 -0.6666666666666667407 2 -0.625 2 
	-0.5833333333333333703 2 -0.5416666666666667407 2 -0.5 2 -0.4583333333333333703 2 -0.4166666666666666852 2 
	-0.375 2 -0.3333333333333333703 2 -0.2916666666666666852 2 -0.25 2 -0.2083333333333333148 2 
	-0.1666666666666666297 2 -0.1249999999999999722 2 -0.08333333333333331483 2 -0.04166666666666665741 2 -0 2 
	0.5 0.0238095271364873011 
	0.5549857395386573744 0.02380952713648724905 
	0.6085244859315593891 0.0363408553697373779 
	0.6680119819236721712 0.05026455340668187222 
	0.7220577942907286939 0.07875458169766161309 
	0.7804272716471483129 0.1095238122519190116 
	0.828231200307287363 0.1550048614968426164 
	0.8780269593282656881 0.2023809544603049626 
	0.9123930465399260337 0.2619047635682432151 
	0.9467591337515863792 0.3214285726761815232 
	0.9628901542795091917 0.3882410114708080839 
	0.9783759339863139504 0.4523809527136447017 
	0.9758381306229911845 0.5183150181870573858 
	0.9734883126939888331 0.5793650788105826344 
	0.9558028409125487457 0.637844610565752812 
	0.939885916309253 0.6904761891454045397 
	0.9123930465399250345 0.7380952364317550085 
	0.8849001767705965138 0.7857142837181062545 
	0.8472783549809894676 0.8258145340645069998 
	0.8054763307703165509 0.8703703677827283602 
	0.7537803363322607142 0.9029304001152778092 
	0.6979486623391610856 0.9380952350344307078 
	0.6346589539722216067 0.9567541270323467462 
	0.5687321744233226894 0.9761904728635102391 
	0.5000000000000009992 0.9761904728635103501 
	0.4312678255766781987 0.9761904728635104611 
	0.3653410460277801697 0.9567541270323471903 
	0.3020513376608348066 0.9380952350344295976 
	0.2462196636677382588 0.9029304001152785863 
	0.1945236692296825054 0.8703703677827292484 
	0.1527216450190090613 0.8258145340645074439 
	0.1150998232293988788 0.7857142837181034789 
	0.08760695346007293938 0.7380952364317570069 
	0.06011408369074714569 0.690476189145410757 
	0.0441971590874498596 0.637844610565752812 
	0.02651168730600838436 0.5793650788105768612 
	0.02416186937700652917 0.5183150181870587181 
	0.02162406601368430797 0.4523809527136558595 
	0.03710984572049135649 0.3882410114708086391 
	0.05324086624841399551 0.3214285726761817452 
	0.0876069534600740496 0.2619047635682437147 
	0.1219730406717364213 0.2023809544603017985 
	0.1717687996927108607 0.1550048614968428662 
	0.2195727283528470242 0.1095238122519215096 
	0.2779422057092713061 0.0787545816976616686 
	0.3319880180763271627 0.05026455340668231631 
	0.3914755140684414991 0.03634085536973744729 
	0.4450142604613432362 0.02380952713648732538 
	0.5 0.0238095271364873011 
	0.001000000000000000021 
	spline forward { ref 1 } I I I I 
	} 0 0 #
coedge $-1 $17 $14 $21 $28 reversed $11 $29 #
coedge $-1 $14 $17 $20 $28 forward $11 $30 #
pcurve $-1 0 forward { exppc nubs 2 periodic 25 
	0 2 0.04166666666666666435 2 0.08333333333333332871 2 0.125 2 0.1666666666666666574 2 
	0.2083333333333333148 2 0.25 2 0.2916666666666666297 2 0.3333333333333333148 2 0.375 2 
	0.4166666666666666297 2 0.4583333333333333148 2 0.5 2 0.5416666666666666297 2 0.5833333333333332593 2 
	0.625 2 0.6666666666666666297 2 0.7083333333333332593 2 0.75 2 0.7916666666666667407 2 
	0.8333333333333333703 2 0.875 2 0.9166666666666667407 2 0.9583333333333333703 2 1 2 
	0 0 
	0.02203856749311286153 0 
	0.04166666666666649088 0 
	0.06345565749235465569 0 
	0.08333333333333335646 0 
	0.104785478547882227 0 
	0.125000000000052236 0 
	0.1460481099656609771 0 
	0.1666666666666664909 0 
	0.1872852233676722267 0 
	0.2083333333332812454 0 
	0.2285478547854511988 0 
	0.25 0 
	0.2698776758409786591 0 
	0.2916666666666667962 0 
	0.3112947658402204776 0 
	0.3333333333333333703 0 
	0.3553719008264460966 0 
	0.3749999999999996669 0 
	0.3967889908256879705 0 
	0.4166666666666667962 0 
	0.4381188118812157084 0 
	0.4583333333333857174 0 
	0.4793814432989944585 0 
	0.5 0 
	0.5206185567010053195 0 
	0.5416666666666140051 0 
	0.5618811881187841806 0 
	0.5833333333333331483 0 
	0.6032110091743119185 0 
	0.625000000000000222 0 
	0.6446280991735537924 0 
	0.6666666666666665186 0 
	0.688705234159779689 0 
	0.7083333333333337034 0 
	0.730122324159021785 0 
	0.750000000000000111 0 
	0.7714521452145488567 0 
	0.7916666666667189212 0 
	0.8127147766323279399 0 
	0.8333333333333334814 0 
	0.8539518900343390229 0 
	0.8749999999999477085 0 
	0.895214521452117995 0 
	0.9166666666666669627 0 
	0.9365443425076453998 0 
	0.9583333333333331483 0 
	0.9779614325068868297 0 
	1 0 
	0.001000000000000000021 
	spline forward { ref 2 } I I I I 
	} 0 0 #
tvertex-vertex $-1 $15 $31 1.588821858078254795e-14 #
intcurve-curve $-1 forward { exactcur full nurbs 2 periodic 4 
	0 2 0.3333333333333329818 2 0.6666666666666669627 2 1 2 
	65.0000002883130179 57.62914960750747184 -37.62920075778924911 1 
	65.00000034073472932 65.58999111212285982 -29.66835893431398574 0.5 
	65.0000002905463532 54.71527910517596638 -26.7544888675531638 1 
	65.00000024035799129 43.84056709822904452 -23.84061880079233475 0.5 
	65.00000023812464178 46.75443760056054998 -34.71533069102844138 1 
	65.00000023589130649 49.66830810289209808 -45.59004258126451248 0.5 
	65.0000002883130179 57.62914960750747184 -37.62920075778924911 1 
	0 
	null_surface 
	null_surface 
	nullbs 
	nullbs 
	I I 
	0 
	0 
	0 
	F 1 F 0 } I I #
pcurve $-1 0 forward { exppc nubs 2 periodic 25 
	0 2 0.04166666666666666435 2 0.08333333333333332871 2 0.125 2 0.1666666666666666574 2 
	0.2083333333333333148 2 0.25 2 0.2916666666666666297 2 0.3333333333333333148 2 0.375 2 
	0.4166666666666666297 2 0.4583333333333333148 2 0.5 2 0.5416666666666666297 2 0.5833333333333332593 2 
	0.625 2 0.6666666666666666297 2 0.7083333333333332593 2 0.75 2 0.7916666666666667407 2 
	0.8333333333333333703 2 0.875 2 0.9166666666666667407 2 0.9583333333333333703 2 1 2 
	1 3.404886202913178117 
	0.9779614325068870517 3.404886202913177673 
	0.9583333333333334814 3.404886202913177673 
	0.9365443425076451778 3.404886202913178117 
	0.9166666666666664076 3.404886202913178117 
	0.895214521452117884 3.404886202913178117 
	0.8749999999999481526 3.404886202913177673 
	0.8539518900343390229 3.404886202913177229 
	0.8333333333333333703 3.404886202913177229 
	0.8127147766323277178 3.404886202913177673 
	0.7916666666667188101 3.404886202913178117 
	0.7714521452145488567 3.404886202913178117 
	0.749999999999999889 3.404886202913178117 
	0.7301223241590213409 3.404886202913178117 
	0.7083333333333334814 3.404886202913178117 
	0.688705234159779911 3.404886202913178117 
	0.6666666666666669627 3.404886202913178117 
	0.6446280991735537924 3.404886202913178117 
	0.624999999999999889 3.404886202913178117 
	0.6032110091743119185 3.404886202913178117 
	0.5833333333333333703 3.404886202913177673 
	0.5618811881187844026 3.404886202913178117 
	0.5416666666666141161 3.404886202913178117 
	0.5206185567010054305 3.404886202913178117 
	0.5 3.404886202913178117 
	0.4793814432989944585 3.404886202913178117 
	0.4583333333333857174 3.404886202913177673 
	0.4381188118812157084 3.404886202913178117 
	0.4166666666666667962 3.404886202913177673 
	0.3967889908256881926 3.404886202913177673 
	0.375000000000000111 3.404886202913178117 
	0.3553719008264463186 3.404886202913178117 
	0.3333333333333333703 3.404886202913177673 
	0.3112947658402204776 3.404886202913177673 
	0.2916666666666667962 3.404886202913178117 
	0.2698776758409785481 3.404886202913178117 
	0.249999999999999778 3.404886202913178117 
	0.2285478547854510045 3.404886202913178117 
	0.2083333333332810788 3.404886202913177673 
	0.1872852233676721712 3.404886202913177229 
	0.1666666666666664909 3.404886202913178117 
	0.1460481099656608661 3.404886202913178117 
	0.1250000000000520139 3.404886202913177673 
	0.104785478547881894 3.404886202913177673 
	0.08333333333333291237 3.404886202913178117 
	0.06345565749235451691 3.404886202913178117 
	0.04166666666666667129 3.404886202913177673 
	0.02203856749311295174 3.404886202913177673 
	0 3.404886202913178117 
	0.001000000000000000021 
	spline forward { ref 2 } I I I I 
	} 0 0 #
tvertex-vertex $-1 $18 $32 5.728578676879116309e-14 #
intcurve-curve $-1 forward { exactcur full nurbs 2 periodic 4 
	0 2 0.3333333333333329818 2 0.6666666666666669627 2 1 2 
	295.0000002883130037 57.62914845028258526 -37.62920111510194232 1 
	295.0000002358913207 49.66830694566721149 -45.59004293857720569 0.5 
	295.0000002381245849 46.7544364433356634 -34.71533104834113459 1 
	295.0000002403580197 43.84056594100415793 -23.84061915810502796 0.5 
	295.0000002905463248 54.7152779479510798 -26.75448922486585701 1 
	295.0000003407347435 65.58998995489797323 -29.66835929162667895 0.5 
	295.0000002883130037 57.62914845028258526 -37.62920111510194232 1 
	0 
	null_surface 
	null_surface 
	nullbs 
	nullbs 
	I I 
	0 
	0 
	0 
	F 1 F 0 } I I #
edge $-1 $26 0 $23 1 $21 $33 forward 7 unknown #
pcurve $-1 0 forward { exppc nubs 2 open 7 
	-1 2 -0.8333333333333333703 2 -0.6666666666666667407 2 -0.5 2 -0.3333333333333333703 2 
	-0.1666666666666666297 2 -0 2 
	1 0 
	1 0.2837405169094314172 
	1 0.5674810338188628345 
	1 0.8512215507282943072 
	1 1.134962067637725891 
	1 1.418702584547157475 
	1 1.702443101456589059 
	1 1.98618361836602042 
	1 2.269924135275451782 
	1 2.553664652184883366 
	1 2.837405169094315394 
	1 3.121145686003746533 
	1 3.404886202913178117 
	0.001000000000000000021 
	spline forward { ref 2 } I I I I 
	} 0 0 #
pcurve $-1 0 forward { exppc nubs 2 open 7 
	0 2 0.1666666666666666574 2 0.3333333333333333148 2 0.5 2 0.6666666666666666297 2 
	0.8333333333333333703 2 1 2 
	0 3.404886202913178117 
	0 3.121145686003746533 
	0 2.837405169094315394 
	0 2.553664652184884254 
	0 2.26992413527545267 
	0 1.986183618366020864 
	0 1.702443101456589059 
	0 1.418702584547157697 
	0 1.134962067637726335 
	0 0.8512215507282945293 
	0 0.5674810338188628345 
	0 0.2837405169094314172 
	0 0 
	0.001000000000000000021 
	spline forward { ref 2 } I I I I 
	} 0 0 #
point $-1 65.0000002883130179 57.62914960750747184 -37.62920075778924911 #
point $-1 295.0000002883130037 57.62914845028258526 -37.62920111510194232 #
intcurve-curve $-1 forward { exactcur full nubs 1 open 2 
	0 1 1 1 
	295.0000002883130037 57.62914845028258526 -37.62920111510194232 
	65.0000002883130179 57.62914960750747184 -37.62920075778924911 
	0 
	null_surface 
	null_surface 
	nullbs 
	nullbs 
	I I 
	0 
	0 
	0 
	F 1 F 0 } I I #
End-of-ACIS-data 