600 0 1 0           
82 GICL ACIS Healer - Source: /gicl/data5/repository/SDRC_I-DEAS/bmw/Part48.sat - 6 0 18 ACIS 6.0.3 Solaris 24 Sat Apr 13 23:16:17 2002 
1 9.999999999999999547e-07 1.000000000000000036e-10 
body $-1 $1 $-1 $-1 #
lump $-1 $-1 $2 $0 #
shell $-1 $-1 $-1 $3 $-1 $1 #
face $-1 $4 $5 $2 $-1 $6 forward single #
face $-1 $7 $8 $2 $-1 $9 forward single #
loop $-1 $-1 $10 $3 #
plane-surface $-1 -341.0000000479628852 -79.4999990975887556 19.50000140218616096 -6.033084115551277873e-10 -0.999999999999999889 1.763756188827573373e-08 0 -1.763756188827573373e-08 -0.999999999999999889 forward_v I I I I #
face $-1 $-1 $11 $2 $-1 $12 forward single #
loop $-1 $-1 $13 $4 #
plane-surface $-1 -340.999999978582423 35.5000009024112515 19.49999937386645854 6.033081333890334175e-10 0.999999999999999889 -1.76375632534695688e-08 -0 1.76375632534695688e-08 0.999999999999999889 forward_v I I I I #
coedge $-1 $10 $10 $14 $15 reversed $5 $-1 #
loop $-1 $-1 $14 $7 #
cone-surface $-1 -341.0000000340867814 -56.4999990975887556 19.50000099652212526 6.033079790971445161e-10 0.999999999999999889 -1.763756259028733297e-08 6.230089535828710723 2.893504102985389181e-08 1.853640843194458654 1 I I 0 1 6.500000000000081712 forward I I I I #
coedge $-1 $13 $13 $16 $17 reversed $8 $-1 #
coedge $-1 $18 $19 $10 $15 forward $11 $-1 #
edge $-1 $20 0 $20 1 $10 $21 forward 7 unknown #
coedge $-1 $19 $18 $13 $17 forward $11 $-1 #
edge $-1 $22 0 $22 1 $13 $23 forward 7 unknown #
coedge $-1 $16 $14 $19 $24 reversed $11 $-1 #
coedge $-1 $14 $16 $18 $24 forward $11 $-1 #
vertex $-1 $15 $25 #
intcurve-curve $-1 forward { exactcur full nurbs 2 periodic 4 
	0 2 0.3333333333333329818 2 0.6666666666666669627 2 1 2 
	-340.9708320904164225 -79.49999898296334777 25.99993595802997959 1 
	-329.7126151938221597 -79.49999899064658848 25.94941557360636963 0.5 
	-335.3854755784390136 -79.49999915874307987 16.22477393205244667 1 
	-341.0583359630559244 -79.49999932683957127 6.500132290498509491 0.5 
	-346.6436924750332196 -79.49999915105983916 16.27529431647604596 1 
	-352.2290489870104579 -79.49999897528012127 26.05045634245354336 0.5 
	-340.9708320904164225 -79.49999898296334777 25.99993595802997959 1 
	0 
	null_surface 
	null_surface 
	nullbs 
	nullbs 
	I I 
	0 
	0 
	0 
	F 1 F 0 } I I #
vertex $-1 $17 $26 #
intcurve-curve $-1 forward { exactcur full nurbs 2 periodic 4 
	0 2 0.3333333333333329818 2 0.6666666666666669627 2 1 2 
	-340.9708320210359602 35.50000101703667355 25.99993392971028072 1 
	-352.2290489176299957 35.50000102471992847 26.05045431413384449 0.5 
	-346.6436924056527573 35.50000084894016794 16.27529228815634355 1 
	-341.0583358936755189 35.50000067316047847 6.500130262178810625 0.5 
	-335.3854755090586082 35.50000084125692723 16.22477190373275135 1 
	-329.7126151244417542 35.50000100935344705 25.94941354528667077 0.5 
	-340.9708320210359602 35.50000101703667355 25.99993392971028072 1 
	0 
	null_surface 
	null_surface 
	nullbs 
	nullbs 
	I I 
	0 
	0 
	0 
	F 1 F 0 } I I #
edge $-1 $22 0 $20 1 $19 $27 forward 7 unknown #
point $-1 -340.9708320904164225 -79.49999898296334777 25.99993595802997959 #
point $-1 -340.9708320210359602 35.50000101703667355 25.99993392971028072 #
intcurve-curve $-1 forward { exactcur full nubs 1 open 2 
	0 1 1 1 
	-340.9708320210359602 35.50000101703667355 25.99993392971028072 
	-340.9708320904164225 -79.49999898296334777 25.99993595802997959 
	0 
	null_surface 
	null_surface 
	nullbs 
	nullbs 
	I I 
	0 
	0 
	0 
	F 1 F 0 } I I #
End-of-ACIS-data 