600 0 1 0           
81 GICL ACIS Healer - Source: /gicl/data5/repository/SDRC_I-DEAS/bmw/Part5.sat - 6 0 18 ACIS 6.0.3 Solaris 24 Sat Apr 13 23:16:19 2002 
1 9.999999999999999547e-07 1.000000000000000036e-10 
body $-1 $1 $-1 $-1 #
lump $-1 $-1 $2 $0 #
shell $-1 $-1 $-1 $3 $-1 $1 #
face $-1 $4 $5 $2 $-1 $6 forward single #
face $-1 $7 $8 $2 $-1 $9 forward single #
loop $-1 $-1 $10 $3 #
plane-surface $-1 64.99999990344321077 -53.03306254730478031 73.03300696460986785 -1 5.031412624567067015e-09 1.553531773407583082e-09 1.553531773407583082e-09 -0 1 forward_v I I I I #
face $-1 $-1 $11 $2 $-1 $12 forward single #
loop $-1 $-1 $13 $4 #
plane-surface $-1 294.9999999034431539 -53.03306370452965979 73.03300660729718174 1 -5.031415705847498421e-09 -1.553533308750912164e-09 -1.553533308750912164e-09 0 -1 forward_v I I I I #
coedge $-1 $10 $10 $14 $15 reversed $5 $-1 #
loop $-1 $-1 $14 $7 #
cone-surface $-1 110.9999999034432108 -53.03306277874968089 73.03300689314733063 1 -5.03141255036177456e-09 -1.553533417850501121e-09 -3.359713218742399476e-08 -5.729889670112591205 -3.068935380280507275 1 I I 0 1 6.500000000000033751 forward I I I I #
coedge $-1 $13 $13 $16 $17 reversed $8 $-1 #
coedge $-1 $18 $19 $10 $15 forward $11 $-1 #
edge $-1 $20 0 $20 1 $10 $21 forward 7 unknown #
coedge $-1 $19 $18 $13 $17 forward $11 $-1 #
edge $-1 $22 0 $22 1 $13 $23 forward 7 unknown #
coedge $-1 $16 $14 $19 $24 reversed $11 $-1 #
coedge $-1 $14 $16 $18 $24 forward $11 $-1 #
vertex $-1 $15 $25 #
intcurve-curve $-1 forward { exactcur full nurbs 2 periodic 4 
	0 2 0.3333333333333329818 2 0.6666666666666669627 2 1 2 
	64.9999998874582019 -57.62925671706423714 77.62920095027551781 1 
	64.99999983503649048 -65.59009822167962511 69.66835912680025444 0.5 
	64.99999988522485239 -54.71538621473277431 66.75448906003940408 1 
	64.99999993541322851 -43.84067420778578139 63.84061899327855372 0.5 
	64.99999993764656381 -46.75454471011735791 74.71533088351469587 1 
	64.99999993987991331 -49.66841521244884916 85.59004277375079539 0.5 
	64.9999998874582019 -57.62925671706423714 77.62920095027551781 1 
	0 
	null_surface 
	null_surface 
	nullbs 
	nullbs 
	I I 
	0 
	0 
	0 
	F 1 F 0 } I I #
vertex $-1 $17 $26 #
intcurve-curve $-1 forward { exactcur full nurbs 2 periodic 4 
	0 2 0.3333333333333329818 2 0.6666666666666669627 2 1 2 
	294.9999998874582161 -57.62925787428912372 77.62920059296283171 1 
	294.9999999398799559 -49.66841636967372864 85.59004241643810929 0.5 
	294.9999999376465212 -46.75454586734224449 74.71533052620200976 1 
	294.9999999354132569 -43.84067536501066797 63.84061863596586761 0.5 
	294.9999998852248382 -54.71538737195766089 66.75448870272671797 1 
	294.9999998350365331 -65.5900993789045117 69.66835876948756834 0.5 
	294.9999998874582161 -57.62925787428912372 77.62920059296283171 1 
	0 
	null_surface 
	null_surface 
	nullbs 
	nullbs 
	I I 
	0 
	0 
	0 
	F 1 F 0 } I I #
edge $-1 $22 0 $20 1 $19 $27 forward 7 unknown #
point $-1 64.9999998874582019 -57.62925671706423714 77.62920095027551781 #
point $-1 294.9999998874582161 -57.62925787428912372 77.62920059296283171 #
intcurve-curve $-1 forward { exactcur full nubs 1 open 2 
	0 1 1 1 
	294.9999998874582161 -57.62925787428912372 77.62920059296283171 
	64.9999998874582019 -57.62925671706423714 77.62920095027551781 
	0 
	null_surface 
	null_surface 
	nullbs 
	nullbs 
	I I 
	0 
	0 
	0 
	F 1 F 0 } I I #
End-of-ACIS-data 