600 0 1 0           
82 GICL ACIS Healer - Source: /gicl/data5/repository/SDRC_I-DEAS/bmw/Part17.sat - 6 0 18 ACIS 6.0.3 Solaris 24 Sat Apr 13 23:15:26 2002 
1 9.999999999999999547e-07 1.000000000000000036e-10 
body $-1 $1 $-1 $-1 #
lump $-1 $-1 $2 $0 #
shell $-1 $-1 $-1 $3 $-1 $1 #
face $-1 $4 $5 $2 $-1 $6 reversed single #
face $-1 $7 $8 $2 $-1 $9 reversed single #
loop $-1 $-1 $10 $3 #
plane-surface $-1 -311.0612802728130646 -13.48654133710692804 46.60059933931606935 -0.3386289274238140079 -0.5983105642654031886 -0.7261920670182318016 -0.9063077845118294729 0 0.4226182671551944603 forward_v I I I I #
face $-1 $11 $12 $2 $-1 $13 reversed single #
loop $-1 $-1 $14 $4 #
cone-surface $-1 -309.7067645757076662 -11.09329905187776788 49.50536759005245813 -0.3386289274238179492 -0.5983105642653967493 -0.7261920670182354653 -0.6535330085196164873 -0.2851724090229463826 0.5397013606548597409 1 I I 0 1 0.8942629673565593018 forward I I I I #
coedge $-1 $10 $10 $15 $16 forward $5 $-1 #
face $-1 $17 $18 $2 $-1 $19 reversed single #
loop $-1 $-1 $20 $7 #
plane-surface $-1 -320.3105744491987252 7.207185338323160551 33.86402848206180494 -0.3386289274238126756 -0.5983105642654064082 -0.7261920670182298032 -0.9063077845118296949 0 0.4226182671551940162 forward_v I I I I #
coedge $-1 $21 $22 $23 $24 reversed $8 $-1 #
coedge $-1 $22 $21 $10 $16 reversed $8 $-1 #
edge $-1 $25 0 $25 1 $10 $26 forward 7 unknown #
face $-1 $27 $28 $2 $-1 $29 forward single #
loop $-1 $-1 $30 $11 #
cone-surface $-1 -318.9560586762102616 9.600427572598697168 36.76879673939409088 -0.3386289274238021285 -0.5983105642653963052 -0.7261920670182431259 -0.5045235542808654827 0.6257522451415944431 -0.2802948669910492185 1 I I 0 1 0.8512785099986217574 forward I I I I #
coedge $-1 $20 $20 $31 $32 forward $12 $-1 #
coedge $-1 $15 $14 $22 $33 forward $8 $-1 #
coedge $-1 $14 $15 $21 $33 reversed $8 $-1 #
coedge $-1 $23 $23 $14 $24 forward $34 $-1 #
edge $-1 $35 0 $35 1 $14 $36 forward 7 unknown #
vertex $-1 $16 $37 #
intcurve-curve $-1 forward { exactcur full nurbs 2 periodic 4 
	0 2 0.3333333333333329818 2 0.6666666666666669627 2 1 2 
	-310.7431533166233066 -14.19829643881895009 47.0386702313201539 1 
	-309.3939318413699766 -14.05509429052390757 46.29153348359938036 0.5 
	-310.5457330321660265 -13.05906266985205377 46.00799549344877448 1 
	-311.6975342229620765 -12.06303104918013247 45.72445750329822545 0.5 
	-311.8949545074194134 -13.20226481814709985 46.75513224116959776 1 
	-312.0923747918767504 -14.34149858711402459 47.78580697904099139 0.5 
	-310.7431533166233066 -14.19829643881895009 47.0386702313201539 1 
	0 
	null_surface 
	null_surface 
	nullbs 
	nullbs 
	I I 
	0 
	0 
	0 
	F 1 F 0 } I I #
face $-1 $38 $39 $2 $-1 $40 forward single #
loop $-1 $41 $42 $17 #
plane-surface $-1 -318.6174311694464336 10.19874131534984585 37.49498685011853638 0.3386289274238091229 0.5983105642653980816 0.7261920670182383519 0.9063077845118332476 0 -0.4226182671551863002 forward_v I I I I #
coedge $-1 $43 $44 $45 $46 reversed $18 $-1 #
coedge $-1 $44 $43 $20 $32 reversed $18 $-1 #
edge $-1 $47 0 $47 1 $20 $48 forward 7 unknown #
edge $-1 $35 0 $25 1 $22 $49 forward 7 unknown #
loop $-1 $-1 $23 $38 #
vertex $-1 $24 $50 #
intcurve-curve $-1 forward { exactcur full nurbs 2 periodic 4 
	0 2 0.3333333333333329818 2 0.6666666666666669627 2 1 2 
	-309.0500086795042307 -11.20674361749195924 50.66963056641134955 1 
	-310.3992301547576744 -11.34994576578704084 51.41676731413218704 0.5 
	-310.2018098703002806 -10.21071199682010189 50.38609257626079341 1 
	-310.0043895858430574 -9.071478227853134513 49.3554178383894282 0.5 
	-308.8525883950468938 -10.06750984852504871 49.63895582853997723 1 
	-307.7007872042509007 -11.06354146919691317 49.9224938186905618 0.5 
	-309.0500086795042307 -11.20674361749195924 50.66963056641134955 1 
	0 
	null_surface 
	null_surface 
	nullbs 
	nullbs 
	I I 
	0 
	0 
	0 
	F 1 F 0 } I I #
point $-1 -310.7431533166233066 -14.19829643881895009 47.0386702313201539 #
face $-1 $-1 $51 $2 $-1 $52 forward single #
loop $-1 $-1 $53 $27 #
torus-surface $-1 -313.9927826985351658 -0.1481251753741563704 43.86327423174139284 0.8710786540077862794 0.09245356442645391581 -0.4823632624452519058 12.99999999999991651 2.000000000000095923 0.3386289274238156732 0.5983105642653986367 0.7261920670182347992 forward_v I I I I #
loop $-1 $-1 $45 $17 #
coedge $-1 $42 $42 $53 $54 reversed $28 $-1 #
coedge $-1 $31 $30 $44 $55 forward $18 $-1 #
coedge $-1 $30 $31 $43 $55 reversed $18 $-1 #
coedge $-1 $45 $45 $30 $46 forward $41 $-1 #
edge $-1 $56 0 $56 1 $30 $57 forward 7 unknown #
vertex $-1 $32 $58 #
intcurve-curve $-1 forward { exactcur full nurbs 2 periodic 4 
	0 2 0.3333333333333329818 2 0.6666666666666669627 2 1 2 
	-321.052104924580874 7.128481582968085206 34.27465395065357256 1 
	-320.5275782989978097 5.954942231842405675 34.99694372295438427 0.5 
	-319.6775458037762405 6.659767506258781111 34.01986061780528559 1 
	-318.827513308554785 7.364592780675131678 33.04277751265622953 0.5 
	-320.2020724293593048 7.833306857384464195 33.2975708455044952 1 
	-321.5766315501638815 8.302020934093796711 33.5523641783528106 0.5 
	-321.052104924580874 7.128481582968085206 34.27465395065357256 1 
	0 
	null_surface 
	null_surface 
	nullbs 
	nullbs 
	I I 
	0 
	0 
	0 
	F 1 F 0 } I I #
intcurve-curve $-1 forward { exactcur full nubs 1 open 2 
	0 1 1 1 
	-309.0500086795042307 -11.20674361749195924 50.66963056641134955 
	-310.7431533166233066 -14.19829643881895009 47.0386702313201539 
	0 
	null_surface 
	null_surface 
	nullbs 
	nullbs 
	I I 
	0 
	0 
	0 
	F 1 F 0 } I I #
point $-1 -309.0500086795042307 -11.20674361749195924 50.66963056641134955 #
loop $-1 $34 $59 $38 #
plane-surface $-1 -309.3681342276238411 -10.49499166609810707 50.23156161336449088 0.3386289274238083458 0.5983105642653986367 0.7261920670182382409 0.9063077845118336917 0 -0.4226182671551855785 forward_v I I I I #
coedge $-1 $60 $61 $42 $54 forward $39 $-1 #
edge $-1 $62 0 $62 1 $42 $63 forward 7 unknown #
edge $-1 $56 0 $47 1 $44 $64 forward 7 unknown #
vertex $-1 $46 $65 #
intcurve-curve $-1 forward { exactcur full nurbs 2 periodic 4 
	0 2 0.3333333333333329818 2 0.6666666666666669627 2 1 2 
	-319.3589602874617981 10.12003440429509027 37.90561428574478242 1 
	-319.8834869130448624 11.29357375542078046 37.18332451344399203 0.5 
	-318.5089277922402857 10.82485967871145505 36.92853118059569795 1 
	-317.1343686714358228 10.35614560200213674 36.67373784774741807 0.5 
	-317.9844011666572783 9.651320327585800385 37.65082095289648123 1 
	-318.8344336618787906 8.946495053169408962 38.62790405804558702 0.5 
	-319.3589602874617981 10.12003440429509027 37.90561428574478242 1 
	0 
	null_surface 
	null_surface 
	nullbs 
	nullbs 
	I I 
	0 
	0 
	0 
	F 1 F 0 } I I #
point $-1 -321.052104924580874 7.128481582968085206 34.27465395065357256 #
coedge $-1 $59 $59 $66 $67 reversed $51 $-1 #
coedge $-1 $66 $53 $61 $68 reversed $39 $-1 #
coedge $-1 $53 $66 $60 $68 forward $39 $-1 #
vertex $-1 $68 $69 #
intcurve-curve $-1 forward { exactcur full nurbs 2 periodic 4 
	0 2 0.3333333333333329818 2 0.6666666666666669627 2 1 2 
	-320.3595870568020132 10.01383100801117365 38.45971533130280307 1 
	-321.5919137734342144 12.77095300120611654 36.7627624214919777 0.5 
	-318.3625144530947182 11.66975269788802194 36.16414908906164527 1 
	-315.1331151327553357 10.56855239456991313 35.56553575663134836 0.5 
	-317.1301877364625739 8.912630704693107475 37.86110199887249905 1 
	-319.1272603401699826 7.256709014816292935 40.15666824111368527 0.5 
	-320.3595870568020132 10.01383100801117365 38.45971533130280307 1 
	0 
	null_surface 
	null_surface 
	nullbs 
	nullbs 
	I I 
	0 
	0 
	0 
	F 1 F 0 } I I #
intcurve-curve $-1 forward { exactcur full nubs 1 open 2 
	0 1 1 1 
	-319.3589602874617981 10.12003440429509027 37.90561428574478242 
	-321.052104924580874 7.128481582968085206 34.27465395065357256 
	0 
	null_surface 
	null_surface 
	nullbs 
	nullbs 
	I I 
	0 
	0 
	0 
	F 1 F 0 } I I #
point $-1 -319.3589602874617981 10.12003440429509027 37.90561428574478242 #
coedge $-1 $61 $60 $59 $67 forward $39 $-1 #
edge $-1 $70 0 $70 1 $66 $71 forward 7 unknown #
edge $-1 $70 0 $62 2.501851166488375799 $61 $72 forward 7 unknown #
point $-1 -320.3595870568020132 10.01383100801117365 38.45971533130280307 #
vertex $-1 $67 $73 #
intcurve-curve $-1 forward { exactcur full nurbs 2 periodic 4 
	0 2 0.3333333333333329818 2 0.6666666666666669627 2 1 2 
	-311.1102929562994177 -10.67989561646528074 51.19628618196119874 1 
	-312.3426196729316757 -7.922773623270374266 49.49933327215038048 0.5 
	-309.1132203525920659 -9.023973926588446659 48.90071993972004094 1 
	-305.8838210322526834 -10.12517422990656968 48.30210660728975824 0.5 
	-307.8808936359599784 -11.78109591978338955 50.59767284953088762 1 
	-309.8779662396673302 -13.43701760966022363 52.89323909177207383 0.5 
	-311.1102929562994177 -10.67989561646528074 51.19628618196119874 1 
	0 
	null_surface 
	null_surface 
	nullbs 
	nullbs 
	I I 
	0 
	0 
	0 
	F 1 F 0 } I I #
intcurve-curve $-1 forward { exactcur full nurbs 2 open 3 
	0 2 1.2509255832441879 2 2.501851166488375799 2 
	-311.1102929562994177 -10.67989561646528074 51.19628618196118452 1 
	-315.5124690128089355 -18.45793295191544203 41.75578931072409006 0.7071067811865470176 
	-320.1371160630602049 -8.111069639677189969 35.38750388539487801 1 
	-324.7617631133115879 2.23579367256101591 29.0192184600657086 0.7071067811865470176 
	-320.3595870568020132 10.01383100801117365 38.45971533130280307 1 
	0 
	null_surface 
	null_surface 
	nullbs 
	nullbs 
	I I 
	0 
	0 
	0 
	F 1 F 0 } I I #
point $-1 -311.1102929562994177 -10.67989561646528074 51.19628618196119874 #
End-of-ACIS-data 