600 0 1 0           
7 Unknown 16 ACIS 6.0 Solaris 24 Thu Aug 24 19:06:42 2000 
-1 9.999999999999999547e-07 1.000000000000000036e-10 
body $-1 $1 $-1 $-1 #
lump $-1 $-1 $2 $0 #
shell $-1 $-1 $-1 $3 $-1 $1 #
face $-1 $4 $5 $2 $-1 $6 forward single #
face $-1 $7 $8 $2 $-1 $9 forward single #
loop $-1 $-1 $10 $3 #
spline-surface $-1 forward { exactsur full nubs 1 1 open open none none 2 2 
	0 1 1 1 
	0 1 1 1 
	64.99999978722935623 -43.38105279251377056 -33.03300870298467373 
	64.99999972367140799 -53.0330602298465692 -42.68501652691452364 
	64.99999975366083049 -53.03306061644363467 -23.38100126565187509 
	64.99999969010288225 -62.68506805377643332 -33.03300908958172499 
	0 
	0 
	0 
	0 
	0 
	0 
	0 
	F 1 F 0 F 1 F 0 } I I I I #
face $-1 $-1 $11 $2 $-1 $12 forward single #
loop $-1 $-1 $13 $4 #
spline-surface $-1 forward { exactsur full nubs 1 1 open open none none 2 2 
	0 1 1 1 
	0 1 1 1 
	294.999999690102868 -62.6850692110013199 -33.0330094468944182 
	294.999999723671408 -53.03306138707145578 -42.68501688422721685 
	294.9999997536608021 -53.03306177366852125 -23.3810016229645683 
	294.9999997872292852 -43.38105394973865714 -33.03300906029736694 
	0 
	0 
	0 
	0 
	0 
	0 
	0 
	F 1 F 0 F 1 F 0 } I I I I #
tcoedge-coedge $-1 $10 $10 $14 $15 reversed $5 $16 -1 -0 #
loop $-1 $-1 $14 $7 #
spline-surface $-1 forward { exactsur full nurbs 2 1 both periodic open none none 4 2 
	0 2 0.3333333333333329818 2 0.6666666666666669627 2 1 2 
	0 1 3.404886202913178117 1 
	64.99999970840042351 -57.62925440881073769 -37.62920306604269172 1 
	64.99999973608727544 -49.66841258533546011 -45.59004457065807969 0.5 
	64.99999976764239307 -46.75454251857465238 -34.71533256371115783 1 
	64.99999979919749649 -43.84067245181384465 -23.84062055676426439 0.5 
	64.99999973995554114 -54.71538434204990153 -26.75449105909576986 1 
	64.9999996807135858 -65.59009623228601527 -29.66836156142730374 0.5 
	64.99999970840042351 -57.62925440881073769 -37.62920306604269172 1 
	294.9999997084004235 -57.62925556603562427 -37.62920342335538493 1 
	294.9999997360872612 -49.66841374256034669 -45.5900449279707729 0.5 
	294.9999997676423504 -46.75454367579953896 -34.71533292102385104 1 
	294.9999997991975533 -43.84067360903873123 -23.8406209140769576 0.5 
	294.9999997399555127 -54.71538549927478812 -26.75449141640846307 1 
	294.9999996807135858 -65.59009738951090185 -29.66836191873999695 0.5 
	294.9999997084004235 -57.62925556603562427 -37.62920342335538493 1 
	0 
	0 
	0 
	0 
	0 
	0 
	0 
	F 1 F 0 F 1 F 0 } I I I I #
tcoedge-coedge $-1 $13 $13 $17 $18 reversed $8 $19 -1 -0 #
tcoedge-coedge $-1 $20 $21 $10 $15 forward $11 $22 0 1 #
tedge-edge $-1 $23 0 $23 1 $10 $24 forward 7 unknown 0.0003454415010636615246 #
pcurve $-1 0 forward { exppc nubs 2 periodic 25 
	-1 2 -0.9583333333333333703 2 -0.9166666666666667407 2 -0.875 2 -0.8333333333333333703 2 
	-0.7916666666666667407 2 -0.75 2 -0.7083333333333333703 2 -0.6666666666666667407 2 -0.625 2 
	-0.5833333333333333703 2 -0.5416666666666667407 2 -0.5 2 -0.4583333333333333703 2 -0.4166666666666666852 2 
	-0.375 2 -0.3333333333333333703 2 -0.2916666666666666852 2 -0.25 2 -0.2083333333333333148 2 
	-0.1666666666666666297 2 -0.1249999999999999722 2 -0.08333333333333331483 2 -0.04166666666666665741 2 -0 2 
	0.9761904728635182327 0.4999999999999989453 
	0.9761904728635180106 0.5549857395386539327 
	0.9636591446302673614 0.6085244859315586119 
	0.9497354465933205425 0.6680119819236818302 
	0.9212454183023455201 0.7220577942907295821 
	0.8904761877480920074 0.7804272716471420956 
	0.844995138503161547 0.828231200307287363 
	0.797619045539700311 0.8780269593282638008 
	0.7380952364317621139 0.912393046539922925 
	0.6785714273238128147 0.9467591337515883776 
	0.6117589885291982998 0.9628901542795074153 
	0.5476190472863575742 0.978375933986312285 
	0.4816849818129470551 0.9758381306229891861 
	0.4206349211894153672 0.9734883126939861686 
	0.3621553894342532942 0.9558028409125486347 
	0.3095238108546086719 0.9398859163092552205 
	0.261904763568252319 0.9123930465399239242 
	0.2142857162818970762 0.8849001767705932942 
	0.1741854659354972468 0.8472783549809872472 
	0.1296296322172756366 0.8054763307703141084 
	0.0970695998847258823 0.7537803363322579386 
	0.06190476496557248409 0.6979486623391577549 
	0.04324587296765605021 0.6346589539722167217 
	0.02380952713649225894 0.5687321744233170273 
	0.023809527136492252 0.4999999999999968914 
	0.02380952713649224506 0.4312678255766757562 
	0.04324587296765586286 0.3653410460277755067 
	0.0619047649655701665 0.3020513376608408018 
	0.0970695998847253827 0.2462196636677368433 
	0.1296296322172683646 0.19452366922969061 
	0.1741854659354986901 0.1527216450190091723 
	0.2142857162819006567 0.1150998232294008772 
	0.2619047635682503206 0.0876069534600729255 
	0.3095238108546020661 0.06011408369074378727 
	0.3621553894342492974 0.04419715908744956817 
	0.4206349211894139239 0.02651168730601121543 
	0.4816849818129511074 0.02416186937700824308 
	0.5476190472863585734 0.0216240660136855084 
	0.6117589885292005203 0.03710984572049097485 
	0.6785714273238221406 0.05324086624841201099 
	0.7380952364317621139 0.0876069534600729255 
	0.7976190455396985346 0.1219730406717319249 
	0.844995138503161991 0.1717687996927113048 
	0.8904761877480936727 0.219572728352858626 
	0.9212454183023461862 0.2779422057092689191 
	0.9497354465933215417 0.3319880180763171151 
	0.9636591446302679165 0.3914755140684386681 
	0.9761904728635184547 0.4450142604613427366 
	0.9761904728635182327 0.4999999999999989453 
	0.001000000000000000021 
	spline forward { ref 0 } I I I I 
	} 0 0 #
tcoedge-coedge $-1 $21 $20 $13 $18 forward $11 $25 0 1 #
tedge-edge $-1 $26 0 $26 1 $13 $27 forward 7 unknown 0.0003454415010691417329 #
pcurve $-1 0 forward { exppc nubs 2 periodic 25 
	-1 2 -0.9583333333333333703 2 -0.9166666666666667407 2 -0.875 2 -0.8333333333333333703 2 
	-0.7916666666666667407 2 -0.75 2 -0.7083333333333333703 2 -0.6666666666666667407 2 -0.625 2 
	-0.5833333333333333703 2 -0.5416666666666667407 2 -0.5 2 -0.4583333333333333703 2 -0.4166666666666666852 2 
	-0.375 2 -0.3333333333333333703 2 -0.2916666666666666852 2 -0.25 2 -0.2083333333333333148 2 
	-0.1666666666666666297 2 -0.1249999999999999722 2 -0.08333333333333331483 2 -0.04166666666666665741 2 -0 2 
	0.5000000000000009992 0.02380952713648184019 
	0.5549857395386557091 0.02380952713648203101 
	0.6085244859315609434 0.03634085536973279129 
	0.6680119819236793877 0.05026455340667838889 
	0.7220577942907295821 0.07875458169765460481 
	0.7804272716471420956 0.1095238122519081037 
	0.8282312003072891393 0.1550048614968393967 
	0.8780269593282695739 0.2023809544603037969 
	0.9123930465399270329 0.2619047635682378306 
	0.9467591337515882666 0.3214285726761784701 
	0.9628901542795104129 0.3882410114708028659 
	0.9783759339863151716 0.4523809527136400943 
	0.9758381306229924057 0.5183150181870529449 
	0.9734883126939901654 0.5793650788105768612 
	0.9558028409125499669 0.6378446105657471499 
	0.9398859163092559976 0.6904761891453936595 
	0.9123930465399260337 0.73809523643174757 
	0.8849001767705956256 0.7857142837181023687 
	0.8472783549809898007 0.8258145340645016708 
	0.8054763307703067809 0.8703703677827339114 
	0.7537803363322650441 0.9029304001152741455 
	0.6979486623391638611 0.9380952350344279322 
	0.6346589539722241602 0.9567541270323439706 
	0.5687321744233240217 0.9761904728635077966 
	0.5000000000000031086 0.9761904728635077966 
	0.4312678255766839719 0.9761904728635077966 
	0.3653410460277842775 0.9567541270323441926 
	0.3020513376608435774 0.9380952350344280433 
	0.2462196636677432549 0.9029304001152747006 
	0.1945236692296888892 0.8703703677827262508 
	0.1527216450190132802 0.8258145340645018928 
	0.1150998232294073165 0.7857142837181021466 
	0.08760695346007814355 0.7380952364317496794 
	0.0601140836907514825 0.6904761891454014311 
	0.04419715908745608379 0.6378446105657505916 
	0.02651168730601215912 0.5793650788105677574 
	0.02416186937700997087 0.5183150181870492812 
	0.02162406601368719108 0.4523809527136382624 
	0.03710984572049211283 0.3882410114708008675 
	0.05324086624841314896 0.3214285726761814677 
	0.08760695346007603412 0.2619047635682378306 
	0.1219730406717361437 0.2023809544602991894 
	0.1717687996927121374 0.155004861496838342 
	0.2195727283528556284 0.1095238122519096996 
	0.2779422057092725273 0.07875458169765373051 
	0.3319880180763188915 0.05026455340667933258 
	0.3914755140684438306 0.03634085536973218761 
	0.4450142604613480657 0.02380952713648165978 
	0.5000000000000009992 0.02380952713648184019 
	0.001000000000000000021 
	spline forward { ref 1 } I I I I 
	} 0 0 #
coedge $-1 $17 $14 $21 $28 reversed $11 $29 #
coedge $-1 $14 $17 $20 $28 forward $11 $30 #
pcurve $-1 0 forward { exppc nubs 2 periodic 25 
	0 2 0.04166666666666666435 2 0.08333333333333332871 2 0.125 2 0.1666666666666666574 2 
	0.2083333333333333148 2 0.25 2 0.2916666666666666297 2 0.3333333333333333148 2 0.375 2 
	0.4166666666666666297 2 0.4583333333333333148 2 0.5 2 0.5416666666666666297 2 0.5833333333333332593 2 
	0.625 2 0.6666666666666666297 2 0.7083333333333332593 2 0.75 2 0.7916666666666667407 2 
	0.8333333333333333703 2 0.875 2 0.9166666666666667407 2 0.9583333333333333703 2 1 2 
	0 0 
	0.0220385674931130246 0 
	0.04166666666666679619 0 
	0.06345565749235405895 0 
	0.08333333333333199644 0 
	0.1047854785478815887 0 
	0.1250000000000522082 0 
	0.1460481099656602555 0 
	0.1666666666666651031 0 
	0.1872852233676703393 0 
	0.2083333333332786919 0 
	0.2285478547854483955 0 
	0.2499999999999969191 0 
	0.2698776758409754395 0 
	0.2916666666666634655 0 
	0.3112947658402180351 0 
	0.3333333333333320381 0 
	0.3553719008264441537 0 
	0.3749999999999975575 0 
	0.3967889908256861942 0 
	0.4166666666666651309 0 
	0.4381188118812144872 0 
	0.4583333333333848292 0 
	0.4793814432989935703 0 
	0.4999999999999990563 0 
	0.5206185567010048754 0 
	0.5416666666666140051 0 
	0.5618811881187841806 0 
	0.5833333333333331483 0 
	0.6032110091743123625 0 
	0.6250000000000013323 0 
	0.6446280991735551247 0 
	0.6666666666666679619 0 
	0.6887052341597810212 0 
	0.7083333333333348136 0 
	0.7301223241590235613 0 
	0.7500000000000025535 0 
	0.7714521452145507441 0 
	0.7916666666667202534 0 
	0.8127147766323294942 0 
	0.8333333333333353687 0 
	0.8539518900343402441 0 
	0.8749999999999482636 0 
	0.8952145214521185501 0 
	0.9166666666666676289 0 
	0.9365443425076458439 0 
	0.9583333333333334814 0 
	0.9779614325068870517 0 
	1 0 
	0.001000000000000000021 
	spline forward { ref 2 } I I I I 
	} 0 0 #
tvertex-vertex $-1 $15 $31 8.038873388460928854e-14 #
intcurve-curve $-1 forward { exactcur full nurbs 2 periodic 4 
	0 2 0.3333333333333329818 2 0.6666666666666669627 2 1 2 
	64.99999970840042351 -57.62925440881079453 -37.62920306604274856 1 
	64.99999973608727544 -49.66841258533554537 -45.59004457065816496 0.5 
	64.99999976764239307 -46.75454251857470922 -34.71533256371122889 1 
	64.99999979919749649 -43.84067245181384465 -23.84062055676432124 0.5 
	64.99999973995554114 -54.71538434204992996 -26.75449105909585512 1 
	64.9999996807135858 -65.59009623228607211 -29.66836156142737124 0.5 
	64.99999970840042351 -57.62925440881079453 -37.62920306604274856 1 
	0 
	null_surface 
	null_surface 
	nullbs 
	nullbs 
	I I 
	0 
	0 
	0 
	F 1 F 0 } I I #
pcurve $-1 0 forward { exppc nubs 2 periodic 25 
	0 2 0.04166666666666666435 2 0.08333333333333332871 2 0.125 2 0.1666666666666666574 2 
	0.2083333333333333148 2 0.25 2 0.2916666666666666297 2 0.3333333333333333148 2 0.375 2 
	0.4166666666666666297 2 0.4583333333333333148 2 0.5 2 0.5416666666666666297 2 0.5833333333333332593 2 
	0.625 2 0.6666666666666666297 2 0.7083333333333332593 2 0.75 2 0.7916666666666667407 2 
	0.8333333333333333703 2 0.875 2 0.9166666666666667407 2 0.9583333333333333703 2 1 2 
	1 3.404886202913178117 
	0.9779614325068879399 3.404886202913178117 
	0.9583333333333349247 3.404886202913177673 
	0.936544342507646399 3.404886202913178117 
	0.9166666666666672958 3.404886202913177673 
	0.8952145214521185501 3.404886202913177229 
	0.8749999999999485967 3.404886202913177229 
	0.8539518900343405772 3.404886202913177673 
	0.8333333333333353687 3.404886202913177229 
	0.8127147766323301603 3.404886202913177673 
	0.7916666666667219188 3.404886202913178117 
	0.7714521452145516323 3.404886202913178117 
	0.7500000000000025535 3.404886202913178117 
	0.7301223241590246715 3.404886202913178117 
	0.7083333333333374782 3.404886202913178117 
	0.6887052341597825755 3.404886202913178117 
	0.6666666666666679619 3.404886202913178117 
	0.6446280991735551247 3.404886202913178117 
	0.6250000000000012212 3.404886202913178117 
	0.6032110091743123625 3.404886202913178117 
	0.5833333333333331483 3.404886202913177229 
	0.5618811881187841806 3.404886202913177229 
	0.5416666666666140051 3.404886202913177673 
	0.5206185567010048754 3.404886202913178117 
	0.4999999999999990563 3.404886202913177673 
	0.4793814432989935148 3.404886202913177673 
	0.4583333333333847182 3.404886202913177229 
	0.4381188118812144872 3.404886202913178117 
	0.4166666666666653529 3.404886202913178117 
	0.3967889908256866383 3.404886202913178117 
	0.3749999999999983902 3.404886202913178117 
	0.3553719008264446533 3.404886202913178117 
	0.3333333333333320381 3.404886202913178117 
	0.3112947658402188678 3.404886202913178117 
	0.2916666666666649643 3.404886202913177673 
	0.2698776758409766607 3.404886202913177673 
	0.2499999999999978628 3.404886202913178117 
	0.2285478547854492004 3.404886202913177673 
	0.2083333333332793857 3.404886202913177673 
	0.1872852233676709499 3.404886202913178117 
	0.1666666666666656305 3.404886202913178117 
	0.1460481099656602555 3.404886202913178561 
	0.1250000000000516254 3.404886202913178117 
	0.1047854785478810891 3.404886202913178117 
	0.08333333333333162174 3.404886202913178117 
	0.063455657492353712 3.404886202913178117 
	0.04166666666666640761 3.404886202913178117 
	0.02203856749311279214 3.404886202913178117 
	0 3.404886202913178117 
	0.001000000000000000021 
	spline forward { ref 2 } I I I I 
	} 0 0 #
tvertex-vertex $-1 $18 $32 8.038873388460928854e-14 #
intcurve-curve $-1 forward { exactcur full nurbs 2 periodic 4 
	0 2 0.3333333333333329818 2 0.6666666666666669627 2 1 2 
	294.9999997084004235 -57.62925556603568111 -37.62920342335544177 1 
	294.9999996807135858 -65.59009738951095869 -29.66836191874006801 0.5 
	294.9999997399555127 -54.71538549927481654 -26.75449141640854833 1 
	294.9999997991975533 -43.84067360903873123 -23.84062091407701445 0.5 
	294.9999997676423504 -46.7545436757995958 -34.7153329210239221 1 
	294.9999997360872612 -49.66841374256043196 -45.59004492797085817 0.5 
	294.9999997084004235 -57.62925556603568111 -37.62920342335544177 1 
	0 
	null_surface 
	null_surface 
	nullbs 
	nullbs 
	I I 
	0 
	0 
	0 
	F 1 F 0 } I I #
edge $-1 $26 0 $23 1 $21 $33 forward 7 unknown #
pcurve $-1 0 forward { exppc nubs 2 open 7 
	-1 2 -0.8333333333333333703 2 -0.6666666666666667407 2 -0.5 2 -0.3333333333333333703 2 
	-0.1666666666666666297 2 -0 2 
	1 0 
	1 0.2837405169094314172 
	1 0.5674810338188628345 
	1 0.8512215507282945293 
	1 1.134962067637726113 
	1 1.418702584547157475 
	1 1.702443101456589059 
	1 1.98618361836602042 
	1 2.269924135275451782 
	1 2.553664652184883366 
	1 2.837405169094315394 
	1 3.121145686003746533 
	1 3.404886202913178117 
	0.001000000000000000021 
	spline forward { ref 2 } I I I I 
	} 0 0 #
pcurve $-1 0 forward { exppc nubs 2 open 7 
	0 2 0.1666666666666666574 2 0.3333333333333333148 2 0.5 2 0.6666666666666666297 2 
	0.8333333333333333703 2 1 2 
	0 3.404886202913178117 
	0 3.121145686003746533 
	0 2.837405169094315394 
	0 2.553664652184884254 
	0 2.26992413527545267 
	0 1.986183618366020864 
	0 1.702443101456589059 
	0 1.418702584547157697 
	0 1.134962067637726335 
	0 0.8512215507282945293 
	0 0.5674810338188628345 
	0 0.2837405169094314172 
	0 0 
	0.001000000000000000021 
	spline forward { ref 2 } I I I I 
	} 0 0 #
point $-1 64.99999970840042351 -57.62925440881079453 -37.62920306604274856 #
point $-1 294.9999997084004235 -57.62925556603568111 -37.62920342335544177 #
intcurve-curve $-1 forward { exactcur full nubs 1 open 2 
	0 1 1 1 
	294.9999997084004235 -57.62925556603568111 -37.62920342335544177 
	64.99999970840042351 -57.62925440881079453 -37.62920306604274856 
	0 
	null_surface 
	null_surface 
	nullbs 
	nullbs 
	I I 
	0 
	0 
	0 
	F 1 F 0 } I I #
End-of-ACIS-data 