600 0 1 0           
82 GICL ACIS Healer - Source: /gicl/data5/repository/SDRC_I-DEAS/bmw/Part28.sat - 6 0 18 ACIS 6.0.3 Solaris 24 Sat Apr 13 23:15:42 2002 
1 9.999999999999999547e-07 1.000000000000000036e-10 
body $-1 $1 $-1 $-1 #
lump $-1 $-1 $2 $0 #
shell $-1 $-1 $-1 $3 $-1 $1 #
face $-1 $4 $5 $2 $-1 $6 reversed single #
face $-1 $7 $8 $2 $-1 $9 reversed single #
loop $-1 $-1 $10 $3 #
plane-surface $-1 -300.3763864557814713 7.323692053048375783 -90.5848152965505875 0.3347038706432356459 -0.6105511586102766453 -0.7177747569370803715 -0.9063077847862645031 0 -0.4226182665666665672 forward_v I I I I #
face $-1 $11 $12 $2 $-1 $13 reversed single #
loop $-1 $-1 $14 $4 #
cone-surface $-1 -301.7152019424429454 9.765896659794861989 -87.71371624715128235 0.3347038706432444166 -0.6105511586102648769 -0.7177747569370863667 0.8304272871786224641 0.3068691354161412477 0.1262066132319148437 1 I I 0 1 0.8942629673565636317 forward I I I I #
coedge $-1 $10 $10 $15 $16 forward $5 $-1 #
face $-1 $17 $18 $2 $-1 $19 reversed single #
loop $-1 $-1 $20 $7 #
plane-surface $-1 -303.3800676403313901 -13.02256085592778412 -74.67859338227609101 0.3347038706432284294 -0.6105511586102730925 -0.7177747569370870329 -0.9063077847862694991 0 -0.4226182665666558536 forward_v I I I I #
coedge $-1 $21 $22 $23 $24 reversed $8 $-1 #
coedge $-1 $22 $21 $10 $16 reversed $8 $-1 #
edge $-1 $25 0 $25 1 $10 $26 forward 7 unknown #
face $-1 $27 $28 $2 $-1 $29 forward single #
loop $-1 $-1 $30 $11 #
cone-surface $-1 -304.71888317325255 -10.58035620088436524 -71.80749439553019897 0.3347038706432425292 -0.6105511586102648769 -0.7177747569370873659 0.1363237915760464602 -0.6076204014133974596 0.5804208587067591907 1 I I 0 1 0.8512785099985428205 forward I I I I #
coedge $-1 $20 $20 $31 $32 forward $12 $-1 #
coedge $-1 $15 $14 $22 $33 forward $8 $-1 #
coedge $-1 $14 $15 $21 $33 reversed $8 $-1 #
coedge $-1 $23 $23 $14 $24 forward $34 $-1 #
edge $-1 $35 0 $35 1 $14 $36 forward 7 unknown #
vertex $-1 $16 $37 #
intcurve-curve $-1 forward { exactcur full nurbs 2 periodic 4 
	0 2 0.3333333333333329818 2 0.6666666666666669627 2 1 2 
	-300.2730756563908017 8.023495889114464319 -91.13190547307124234 1 
	-301.7216384218439771 7.834772810807514531 -91.64685040081883471 0.5 
	-301.1523232443361167 6.879428554319950706 -90.56874263968759919 1 
	-300.5830080668281425 5.924084297832415302 -89.49063487855636367 0.5 
	-299.7037604788828844 7.068151632626943126 -90.0537977119399784 1 
	-298.8245128909376263 8.212218967421442528 -90.61696054532359312 0.5 
	-300.2730756563908017 8.023495889114464319 -91.13190547307124234 1 
	0 
	null_surface 
	null_surface 
	nullbs 
	nullbs 
	I I 
	0 
	0 
	0 
	F 1 F 0 } I I #
face $-1 $38 $39 $2 $-1 $40 forward single #
loop $-1 $41 $42 $17 #
plane-surface $-1 -305.0535875052510164 -9.969808167388997333 -71.08971719545178303 -0.3347038706432391986 0.6105511586102658761 0.7177747569370881431 0.9063077847862646141 -0 0.4226182665666665117 forward_v I I I I #
coedge $-1 $43 $44 $45 $46 reversed $18 $-1 #
coedge $-1 $44 $43 $20 $32 reversed $18 $-1 #
edge $-1 $47 0 $47 1 $20 $48 forward 7 unknown #
edge $-1 $35 0 $25 1 $22 $49 forward 7 unknown #
loop $-1 $-1 $23 $38 #
vertex $-1 $24 $50 #
intcurve-curve $-1 forward { exactcur full nurbs 2 periodic 4 
	0 2 0.3333333333333329818 2 0.6666666666666669627 2 1 2 
	-301.9465950096069946 11.0762516821657826 -87.54303168838580973 1 
	-300.4980322441538192 11.26497476047276081 -87.02808676063816051 0.5 
	-301.3772798320991342 10.1209074256782614 -86.46492392725454579 1 
	-302.2565274200443355 8.976840090883762002 -85.90176109387090264 0.5 
	-302.8258425975523096 9.932184347371297406 -86.97986885500216658 1 
	-303.3951577750602269 10.88752860385885946 -88.05797661613344474 0.5 
	-301.9465950096069946 11.0762516821657826 -87.54303168838580973 1 
	0 
	null_surface 
	null_surface 
	nullbs 
	nullbs 
	I I 
	0 
	0 
	0 
	F 1 F 0 } I I #
point $-1 -300.2730756563908017 8.023495889114464319 -91.13190547307124234 #
face $-1 $-1 $51 $2 $-1 $52 forward single #
loop $-1 $-1 $53 $27 #
torus-surface $-1 -303.5517464284910716 0.2033213880655551087 -79.04283056440368682 -0.9352149570105241505 -0.1218425944494946761 -0.3324565631200857574 13.00000000000002665 1.999999999999962697 -0.3347038706432446942 0.6105511586102663202 0.7177747569370852565 forward_v I I I I #
loop $-1 $-1 $45 $17 #
coedge $-1 $42 $42 $53 $54 reversed $28 $-1 #
coedge $-1 $31 $30 $44 $55 forward $18 $-1 #
coedge $-1 $30 $31 $43 $55 reversed $18 $-1 #
coedge $-1 $45 $45 $30 $46 forward $41 $-1 #
edge $-1 $56 0 $56 1 $30 $57 forward 7 unknown #
vertex $-1 $32 $58 #
intcurve-curve $-1 forward { exactcur full nurbs 2 periodic 4 
	0 2 0.3333333333333329818 2 0.6666666666666669627 2 1 2 
	-302.5839392955472817 -12.91883885306805269 -74.39558029558645558 1 
	-302.4136008066632257 -11.76500470742318605 -75.29762068731238855 0.5 
	-303.6929626438037531 -12.49750475363161684 -75.27112018298760177 1 
	-304.9723244809442804 -13.23000479984003874 -75.24461967866278655 0.5 
	-303.8633011326878659 -13.65133889927646749 -74.36907979126166879 1 
	-302.7542777844312809 -14.07267299871287669 -73.49353990386049418 0.5 
	-302.5839392955472817 -12.91883885306805269 -74.39558029558645558 1 
	0 
	null_surface 
	null_surface 
	nullbs 
	nullbs 
	I I 
	0 
	0 
	0 
	F 1 F 0 } I I #
intcurve-curve $-1 forward { exactcur full nubs 1 open 2 
	0 1 1 1 
	-301.9465950096069946 11.0762516821657826 -87.54303168838580973 
	-300.2730756563908017 8.023495889114464319 -91.13190547307124234 
	0 
	null_surface 
	null_surface 
	nullbs 
	nullbs 
	I I 
	0 
	0 
	0 
	F 1 F 0 } I I #
point $-1 -301.9465950096069946 11.0762516821657826 -87.54303168838580973 #
loop $-1 $34 $59 $38 #
plane-surface $-1 -302.0499053517310131 10.37645094352008002 -86.99594393335553377 -0.3347038706432398092 0.6105511586102672084 0.7177747569370863667 0.906307784786263837 -0 0.422618266566667955 forward_v I I I I #
coedge $-1 $60 $61 $42 $54 forward $39 $-1 #
edge $-1 $62 0 $62 1 $42 $63 forward 7 unknown #
edge $-1 $56 0 $47 1 $44 $64 forward 7 unknown #
vertex $-1 $46 $65 #
intcurve-curve $-1 forward { exactcur full nurbs 2 periodic 4 
	0 2 0.3333333333333329818 2 0.6666666666666669627 2 1 2 
	-304.2574586487634747 -9.866083060016713091 -70.80670651090102297 1 
	-304.4277971376474738 -11.01991720566154953 -69.90466611917506157 0.5 
	-305.5368204859040588 -10.59858310622514921 -70.78020600657623618 1 
	-306.6458438341605302 -10.17724900678872046 -71.65574589397735394 0.5 
	-305.366481997019946 -9.444748960580284347 -71.68224639830216915 1 
	-304.0871201598794187 -8.712248914371846453 -71.70874690262695594 0.5 
	-304.2574586487634747 -9.866083060016713091 -70.80670651090102297 1 
	0 
	null_surface 
	null_surface 
	nullbs 
	nullbs 
	I I 
	0 
	0 
	0 
	F 1 F 0 } I I #
point $-1 -302.5839392955472817 -12.91883885306805269 -74.39558029558645558 #
coedge $-1 $59 $59 $66 $67 reversed $51 $-1 #
coedge $-1 $66 $53 $61 $68 reversed $39 $-1 #
coedge $-1 $53 $66 $60 $68 forward $39 $-1 #
vertex $-1 $68 $69 #
intcurve-curve $-1 forward { exactcur full nurbs 2 periodic 4 
	0 2 0.3333333333333329818 2 0.6666666666666669627 2 1 2 
	-303.1831571298747576 -9.726119853375067237 -70.42480651235297273 1 
	-303.5833516299903749 -12.43694629170891552 -68.30554617362452063 0.5 
	-306.188899250964198 -11.44706085589044875 -70.36254603234900173 1 
	-308.7944468719378506 -10.45717542007198375 -72.41954589107348284 0.5 
	-305.7887047508485807 -8.73623441755663066 -72.48180637107745383 1 
	-302.7829626297590835 -7.015293415041211844 -72.54406685108139641 0.5 
	-303.1831571298747576 -9.726119853375067237 -70.42480651235297273 1 
	0 
	null_surface 
	null_surface 
	nullbs 
	nullbs 
	I I 
	0 
	0 
	0 
	F 1 F 0 } I I #
intcurve-curve $-1 forward { exactcur full nubs 1 open 2 
	0 1 1 1 
	-304.2574586487634747 -9.866083060016713091 -70.80670651090102297 
	-302.5839392955472817 -12.91883885306805269 -74.39558029558645558 
	0 
	null_surface 
	null_surface 
	nullbs 
	nullbs 
	I I 
	0 
	0 
	0 
	F 1 F 0 } I I #
point $-1 -304.2574586487634747 -9.866083060016713091 -70.80670651090102297 #
coedge $-1 $61 $60 $59 $67 forward $39 $-1 #
edge $-1 $70 0 $70 1 $66 $71 forward 7 unknown #
edge $-1 $70 0 $62 2.501851166488375799 $61 $72 forward 7 unknown #
point $-1 -303.1831571298747576 -9.726119853375067237 -70.42480651235297273 #
vertex $-1 $67 $73 #
intcurve-curve $-1 forward { exactcur full nurbs 2 periodic 4 
	0 2 0.3333333333333329818 2 0.6666666666666669627 2 1 2 
	-300.1794758990650962 10.62013300730409782 -86.33102836397401347 1 
	-300.5796703991807135 7.909306568970276174 -84.21176802524553295 0.5 
	-303.1852180201544797 8.899192004788709198 -86.26876788397001405 1 
	-305.790765641128246 9.889077440607174196 -88.32576774269449515 0.5 
	-302.7850235200388624 11.6100184431225486 -88.38802822269849457 1 
	-299.7792813989494221 13.33095944563796031 -88.45028870270246557 0.5 
	-300.1794758990650962 10.62013300730409782 -86.33102836397401347 1 
	0 
	null_surface 
	null_surface 
	nullbs 
	nullbs 
	I I 
	0 
	0 
	0 
	F 1 F 0 } I I #
intcurve-curve $-1 forward { exactcur full nurbs 2 open 3 
	0 2 1.2509255832441879 2 2.501851166488375799 2 
	-300.1794758990650962 10.62013300730409782 -86.33102836397401347 1 
	-295.8283255807029946 2.68296794537062322 -95.662100204156161 0.7071067811865470176 
	-297.3301661961078253 -7.490158484968979735 -87.70898927834565484 1 
	-298.832006811512656 -17.6632849153085516 -79.75587835253509184 0.7071067811865470176 
	-303.1831571298747576 -9.726119853375067237 -70.42480651235297273 1 
	0 
	null_surface 
	null_surface 
	nullbs 
	nullbs 
	I I 
	0 
	0 
	0 
	F 1 F 0 } I I #
point $-1 -300.1794758990650962 10.62013300730409782 -86.33102836397401347 #
End-of-ACIS-data 