600 0 1 0           
7 Unknown 16 ACIS 6.0 Solaris 24 Thu Aug 24 19:06:03 2000 
-1 9.999999999999999547e-07 1.000000000000000036e-10 
body $-1 $1 $-1 $-1 #
lump $-1 $-1 $2 $0 #
shell $-1 $-1 $-1 $3 $-1 $1 #
face $-1 $4 $5 $2 $-1 $6 reversed single #
face $-1 $7 $8 $2 $-1 $9 reversed single #
loop $-1 $-1 $10 $3 #
spline-surface $-1 forward { exactsur full nubs 1 1 open open none none 2 2 
	0 1 1 1 
	0 1 1 1 
	-317.791077121197759 12.58000224040186055 -89.24457681082870408 
	-317.0504313242172429 14.04959028221734485 -90.14926405471589987 
	-319.3982681656447085 12.80881677505542626 -90.18865576614160773 
	-318.6576223686642493 14.27840481687089635 -91.09334301002880352 
	0 
	0 
	0 
	0 
	0 
	0 
	0 
	F 1 F 0 F 1 F 0 } I I I I #
face $-1 $11 $12 $2 $-1 $13 reversed single #
loop $-1 $-1 $14 $4 #
spline-surface $-1 forward { exactsur full nurbs 2 1 both periodic open none none 4 2 
	0 2 0.6195635579155469586 2 1.239127115831093029 2 1.858690673746639987 2 
	0 1 1 1 
	-316.1981419126628907 11.07625157355168 -94.18863714983584146 1 
	-317.5237308129257485 11.26497463071623173 -94.96730038869495161 0.5 
	-317.3899691023084983 10.12090730364206337 -93.93176356160950036 1 
	-317.2562073916914187 8.976839976567923429 -92.89622673452402069 0.5 
	-316.0643802020456974 9.932184246477540057 -93.15310032275033336 1 
	-314.8725530124000898 10.88752851638712826 -93.40997391097675973 0.5 
	-316.1981419126628907 11.07625157355168 -94.18863714983584146 1 
	-317.8716612658790837 14.1290073666030267 -90.59976336515040884 1 
	-319.1972501661418846 14.31773042376756422 -91.37842660400954742 0.5 
	-319.0634884555246913 13.17366309669343849 -90.34288977692406775 1 
	-318.9297267449076116 12.02959576961927013 -89.30735294983855965 0.5 
	-317.7378995552618903 12.98494003952887255 -89.56422653806490075 1 
	-316.5460723656162827 13.94028430943850339 -89.82110012629127027 0.5 
	-317.8716612658790837 14.1290073666030267 -90.59976336515040884 1 
	0 
	0 
	0 
	0 
	0 
	0 
	0 
	F 1 F 0 F 1 F 0 } I I I I #
tcoedge-coedge $-1 $10 $10 $15 $16 forward $5 $17 0 1 #
face $-1 $18 $19 $2 $-1 $20 reversed single #
loop $-1 $-1 $21 $7 #
spline-surface $-1 forward { exactsur full nubs 1 1 open open none none 2 2 
	0 1 1 1 
	0 1 1 1 
	-327.3610015102248667 -6.326482729893896817 -77.6249350102711162 
	-328.8909399157051894 -6.108666593157678903 -78.52363504753768098 
	-328.0660467838238787 -7.725432278036642231 -76.76373324825692634 
	-329.5959851893042583 -7.507616141300381685 -77.66243328552349112 
	0 
	0 
	0 
	0 
	0 
	0 
	0 
	F 1 F 0 F 1 F 0 } I I I I #
tcoedge-coedge $-1 $22 $23 $24 $25 reversed $8 $26 -1 -0 #
tcoedge-coedge $-1 $23 $22 $10 $16 reversed $8 $27 -1 -0 #
tedge-edge $-1 $28 0 $28 1 $10 $29 forward 7 unknown 0.0003947503298377919804 #
pcurve $-1 0 forward { exppc nubs 2 periodic 19 
	0 2 0.08333333333333332871 2 0.125 2 0.1666666666666666574 2 0.2083333333333333148 2 
	0.25 2 0.3333333333333333148 2 0.4166666666666666297 2 0.4583333333333333148 2 0.5 2 
	0.5416666666666666297 2 0.5833333333333332593 2 0.6666666666666666297 2 0.75 2 0.7916666666666667407 2 
	0.8333333333333333703 2 0.875 2 0.9166666666666667407 2 1 2 
	0.9761904819953080015 0.5 
	0.9761904819953080015 0.3821734083518151248 
	0.9212454242060259535 0.2779421926630340489 
	0.8904761918440040613 0.2195727118772712871 
	0.8449951399270160257 0.1717687804085963332 
	0.7976190441801191966 0.1219730184620239771 
	0.7380952315750893833 0.08760692923131502274 
	0.6785714189701073096 0.0532408400006336574 
	0.611758976250069475 0.03710981852496866851 
	0.5476190312389301873 0.02162403790835361328 
	0.481684961891773622 0.02416184142077670502 
	0.3639455523432453266 0.0286936334072479815 
	0.2619047307346369924 0.08760692923131503662 
	0.1598639091259681511 0.1465202250554169805 
	0.09706955736678903046 0.2462196487577338611 
	0.06190472038166212887 0.3020513260310099812 
	0.04324582728749219035 0.3653410381163656462 
	0.02380948031441067897 0.4312678215385699065 
	0.02380948031441070326 0.5 
	0.02380948031441069285 0.5687321784614408626 
	0.04324582728749119809 0.634658961883645234 
	0.06190472038164988866 0.6979486739689662045 
	0.09706955736678510305 0.7537803512422533991 
	0.1598639091259571043 0.8534797749445550696 
	0.2619047307346369924 0.9123930707686547237 
	0.3639455523433442474 0.9713063665927702539 
	0.4816849618917640741 0.9758381585792363921 
	0.5476190312388871106 0.9783759620916576694 
	0.6117589762500714734 0.9628901814750359112 
	0.6785714189700111643 0.9467591599993989693 
	0.7380952315750818338 0.9123930707686698227 
	0.7976190441801722653 0.8780269815379293519 
	0.8449951399270256847 0.8282312195914045549 
	0.8904761918440056156 0.7804272881227402037 
	0.9212454242060280629 0.7220578073369743333 
	0.9761904819953080015 0.6178265916481934239 
	0.9761904819953080015 0.5 
	0.001000000000000000021 
	spline reversed { ref 0 } I I I I 
	} 0 0 #
face $-1 $30 $31 $2 $-1 $32 forward single #
loop $-1 $-1 $33 $11 #
spline-surface $-1 forward { exactsur full nurbs 2 1 both periodic open none none 4 2 
	0 2 0.589783052283649023 2 1.179566104567298046 2 1.76934915685094607 2 
	0 1 1 1 
	-327.5335160359829842 -9.866083237408595608 -81.66051032221645301 1 
	-328.1150275809800974 -11.01991738618706762 -80.95020307538300131 0.5 
	-326.7314586536701881 -10.59858326775406567 -80.66342809602960529 1 
	-325.3478897263602789 -10.17724914932104952 -80.37665311667620927 0.5 
	-326.149947108673075 -9.444749118975586555 -81.37373534286305699 1 
	-326.9520044909859848 -8.7122490886301307 -82.37081756904993313 0.5 
	-327.5335160359829842 -9.866083237408595608 -81.66051032221645301 1 
	-329.2070353891992909 -6.813327444357248908 -78.07163653753102039 1 
	-329.7885469341962903 -7.96716159313570671 -77.36132929069756869 0.5 
	-328.4049780068863811 -7.545827474702697657 -77.07455431134414425 1 
	-327.021409079576415 -7.124493356269674393 -76.78777933199077665 0.5 
	-327.8234664618893248 -6.39199332592424696 -77.78486155817762437 1 
	-328.6255238442022346 -5.659493295578791106 -78.78194378436452894 0.5 
	-329.2070353891992909 -6.813327444357248908 -78.07163653753102039 1 
	0 
	0 
	0 
	0 
	0 
	0 
	0 
	F 1 F 0 F 1 F 0 } I I I I #
tcoedge-coedge $-1 $21 $21 $34 $35 forward $12 $36 0 1 #
coedge $-1 $15 $14 $23 $37 forward $8 $38 #
coedge $-1 $14 $15 $22 $37 reversed $8 $39 #
tcoedge-coedge $-1 $24 $24 $14 $25 forward $40 $41 0 1 #
tedge-edge $-1 $42 0 $42 1 $14 $43 forward 7 unknown 0.0003947503298608529064 #
pcurve $-1 0 forward { exppc nubs 2 periodic 19 
	-1 2 -0.9166666666666667407 2 -0.875 2 -0.8333333333333333703 2 -0.7916666666666667407 2 
	-0.75 2 -0.6666666666666667407 2 -0.5833333333333333703 2 -0.5416666666666667407 2 -0.5 2 
	-0.4583333333333333703 2 -0.4166666666666666852 2 -0.3333333333333333703 2 -0.25 2 -0.2083333333333333148 2 
	-0.1666666666666666297 2 -0.1249999999999999722 2 -0.08333333333333331483 2 -0 2 
	1.858690673746639987 0 
	1.773233631275535682 0 
	1.70379978426776213 0 
	1.663926882025617893 0 
	1.626354339528214954 0 
	1.587232413835141465 0 
	1.548908894788862733 0 
	1.510585375742590664 0 
	1.471463450049523614 0 
	1.433890907552123561 0 
	1.394018005309982211 0 
	1.324584158302204884 0 
	1.239127115831093029 0 
	1.153670073359984283 0 
	1.08423622635221073 0 
	1.044363324110078484 0 
	1.006790781612685981 0 
	0.9676688559196087169 0 
	0.9293453368733274322 0 
	0.8910218178270554734 0 
	0.8518998921339884234 0 
	0.8143273496365861508 0 
	0.7744544473944421359 0 
	0.7050206003866563709 0 
	0.6195635579155371886 0 
	0.534106515444431329 0 
	0.4646726684366562221 0 
	0.4247997661945180914 0 
	0.3872272236971203152 0 
	0.3481052980040491018 0 
	0.3097817789577734793 0 
	0.2714582599114968575 0 
	0.2323363342184248392 0 
	0.1947637917210265912 0 
	0.1548908894788877666 0 
	0.08545704247111014784 0 
	0 0 
	0.001000000000000000021 
	spline reversed { ref 1 } I I I I 
	} 0 0 #
pcurve $-1 0 forward { exppc nubs 2 periodic 19 
	-1 2 -0.9166666666666667407 2 -0.875 2 -0.8333333333333333703 2 -0.7916666666666667407 2 
	-0.75 2 -0.6666666666666667407 2 -0.5833333333333333703 2 -0.5416666666666667407 2 -0.5 2 
	-0.4583333333333333703 2 -0.4166666666666666852 2 -0.3333333333333333703 2 -0.25 2 -0.2083333333333333148 2 
	-0.1666666666666666297 2 -0.1249999999999999722 2 -0.08333333333333331483 2 -0 2 
	0 1 
	0.0854570424711086768 1 
	0.1548908894788844082 1 
	0.1947637917210289227 1 
	0.2323363342184324998 1 
	0.2714582599115004657 1 
	0.3097817789577734793 1 
	0.3481052980040472145 0.999999999999999889 
	0.3872272236971166515 1 
	0.4247997661945187575 0.999999999999999778 
	0.4646726684366619953 0.999999999999999778 
	0.5341065154444348817 1 
	0.6195635579155371886 1 
	0.7050206003866589244 0.999999999999999889 
	0.7744544473944451335 0.999999999999999889 
	0.8143273496365881492 0.999999999999999778 
	0.8518998921339910879 0.9999999999999995559 
	0.8910218178270570277 0.9999999999999996669 
	0.9293453368733274322 0.999999999999999778 
	0.9676688559196009454 0.999999999999999778 
	1.00679078161266955 1 
	1.044363324110068936 0.999999999999999889 
	1.084236226352209398 1 
	1.153670073359984727 1 
	1.239127115831093029 1 
	1.324584158302205772 1 
	1.39401800530998532 1 
	1.433890907552123117 1 
	1.471463450049520283 1 
	1.510585375742591108 1 
	1.548908894788866508 1 
	1.587232413835143241 1 
	1.62635433952821562 1 
	1.663926882025608123 0.999999999999999889 
	1.703799784267741479 1 
	1.773233631275524358 1 
	1.858690673746639987 1 
	0.001000000000000000021 
	spline reversed { ref 1 } I I I I 
	} 0 0 #
tvertex-vertex $-1 $16 $44 5.753312400962914035e-14 #
intcurve-curve $-1 forward { exactcur full nurbs 2 periodic 4 
	0 2 0.3333333333333329818 2 0.6666666666666669627 2 1 2 
	-317.8716612658790837 14.1290073666030267 -90.59976336515040884 1 
	-316.5460723656162827 13.94028430943850339 -89.82110012629128448 0.5 
	-317.7378995552618903 12.98494003952887255 -89.56422653806490075 1 
	-318.9297267449076116 12.02959576961927013 -89.30735294983855965 0.5 
	-319.0634884555246913 13.17366309669343849 -90.34288977692406775 1 
	-319.1972501661418846 14.31773042376756422 -91.37842660400953321 0.5 
	-317.8716612658790837 14.1290073666030267 -90.59976336515040884 1 
	0 
	null_surface 
	null_surface 
	nullbs 
	nullbs 
	I I 
	0 
	0 
	0 
	F 1 F 0 } I I #
face $-1 $45 $46 $2 $-1 $47 forward single #
loop $-1 $48 $49 $18 #
spline-surface $-1 forward { exactsur full nubs 1 1 open open none none 2 2 
	0 1 1 1 
	0 1 1 1 
	-325.8359678501396388 -11.8690341464244824 -79.16518720137105447 
	-329.4304262674197048 -11.35729390687856011 -81.27660547938234004 
	-324.1795247481339288 -8.582322759443563598 -81.18850651367790761 
	-327.7739831654139948 -8.070582519897627094 -83.29992479168919317 
	0 
	0 
	0 
	0 
	0 
	0 
	0 
	F 1 F 0 F 1 F 0 } I I I I #
tcoedge-coedge $-1 $50 $51 $52 $53 reversed $19 $54 -1 -0 #
tcoedge-coedge $-1 $51 $50 $21 $35 reversed $19 $55 -1 -0 #
tedge-edge $-1 $56 0 $56 1 $21 $57 forward 7 unknown 0.0003757759013869071854 #
pcurve $-1 0 forward { exppc nubs 2 periodic 19 
	0 2 0.08333333333333332871 2 0.125 2 0.1666666666666666574 2 0.2083333333333333148 2 
	0.25 2 0.3333333333333333148 2 0.4166666666666666297 2 0.4583333333333333148 2 0.5 2 
	0.5416666666666666297 2 0.5833333333333332593 2 0.6666666666666666297 2 0.75 2 0.7916666666666667407 2 
	0.8333333333333333703 2 0.875 2 0.9166666666666667407 2 1 2 
	0.9761904471333819888 0.4999999802033016638 
	0.9761904471333835431 0.3821733937875907983 
	0.9212453917840910389 0.2779421827274858314 
	0.8904761607884941199 0.2195727045338401462 
	0.8449951108912185926 0.171768775188029188 
	0.7976190172482220397 0.1219730154528082255 
	0.7380952072864915836 0.08760692774821163264 
	0.6785713973247444741 0.0532408400436053808 
	0.6117589575718569428 0.03710981928432198484 
	0.5476190154090261331 0.02162403935539573829 
	0.4816849489898761272 0.02416184275511970223 
	0.3639455446699685348 0.02869363454034097594 
	0.2619047275927424701 0.08760692774821161877 
	0.1598639105155285067 0.1465202209560751978 
	0.09706956154491974686 0.2462196402309412557 
	0.06190472612137824099 0.3020513150248671508 
	0.04324583385582839168 0.3653410242996012469 
	0.02380948774588379641 0.4312678047941052584 
	0.02380948774588379988 0.4999999802033056606 
	0.02380948774588378947 0.5687321556124478317 
	0.04324583385584424705 0.6346589361070046342 
	0.06190472612140559411 0.6979486453817767 
	0.09706956154491960809 0.7537803201756629878 
	0.1598639105155129914 0.8534797394505120316 
	0.2619047275927424701 0.9123930326583837846 
	0.3639455446699702557 0.9713063258662545385 
	0.4816849489898872849 0.9758381176514759892 
	0.5476190154090179174 0.9783759210511990823 
	0.6117589575718594963 0.9628901411222705597 
	0.6785713973247911035 0.9467591203629768248 
	0.7380952072865075708 0.9123930326583877815 
	0.7976190172482107155 0.8780269449538066207 
	0.8449951108912183706 0.8282311852185758605 
	0.890476160788559179 0.7804272558726980114 
	0.9212453917841232354 0.722057777679116386 
	0.9761904471333804345 0.6178265666190816408 
	0.9761904471333819888 0.4999999802033016638 
	0.001000000000000000021 
	spline reversed { ref 2 } I I I I 
	} 0 0 #
edge $-1 $42 0 $28 1 $23 $58 forward 7 unknown #
pcurve $-1 0 forward { exppc nubs 2 open 7 
	0 2 0.1666666666666666574 2 0.3333333333333333148 2 0.5 2 0.6666666666666666297 2 
	0.8333333333333333703 2 1 2 
	0 0 
	0 0.08333333333333332871 
	0 0.1666666666666666574 
	0 0.25 
	0 0.3333333333333333148 
	0 0.4166666666666666297 
	0 0.5 
	0 0.5833333333333332593 
	0 0.6666666666666666297 
	0 0.75 
	0 0.8333333333333334814 
	0 0.9166666666666667407 
	0 1 
	0.001000000000000000021 
	spline reversed { ref 1 } I I I I 
	} 0 0 #
pcurve $-1 0 forward { exppc nubs 2 open 7 
	-1 2 -0.8333333333333333703 2 -0.6666666666666667407 2 -0.5 2 -0.3333333333333333703 2 
	-0.1666666666666666297 2 -0 2 
	1.858690673746639987 1 
	1.858690673746639987 0.9166666666666667407 
	1.858690673746639987 0.8333333333333334814 
	1.858690673746639987 0.750000000000000111 
	1.858690673746639987 0.6666666666666667407 
	1.858690673746639987 0.5833333333333333703 
	1.858690673746639987 0.5 
	1.858690673746639987 0.4166666666666666852 
	1.858690673746639987 0.3333333333333333703 
	1.858690673746639987 0.25 
	1.858690673746639987 0.1666666666666666297 
	1.858690673746639987 0.08333333333333331483 
	1.858690673746639987 0 
	0.001000000000000000021 
	spline reversed { ref 1 } I I I I 
	} 0 0 #
loop $-1 $-1 $24 $45 #
pcurve $-1 0 forward { exppc nubs 2 periodic 19 
	0 2 0.08333333333333332871 2 0.125 2 0.1666666666666666574 2 0.2083333333333333148 2 
	0.25 2 0.3333333333333333148 2 0.4166666666666666297 2 0.4583333333333333148 2 0.5 2 
	0.5416666666666666297 2 0.5833333333333332593 2 0.6666666666666666297 2 0.75 2 0.7916666666666667407 2 
	0.8333333333333333703 2 0.875 2 0.9166666666666667407 2 1 2 
	0.7129182207230836399 0.5 
	0.7129182207230836399 0.4473161681369551279 
	0.688350624005027889 0.4007112399504146882 
	0.6745927698429370345 0.3746124801659906911 
	0.6542568163146628146 0.3532378969529598178 
	0.6330735313893841587 0.3309727061060598885 
	0.6064586349448434222 0.3156065884793505805 
	0.5798437385002432887 0.3002404708526069665 
	0.5499698751441423061 0.2930278033951752015 
	0.5212909663222584644 0.2861036426360341611 
	0.4918098502605834921 0.2872383713223146673 
	0.4391650001504873724 0.2892646725478140723 
	0.3935394633883563809 0.3156065884793505805 
	0.3479139266262434305 0.341948504410876708 
	0.3198366732341869634 0.3865271313719014223 
	0.3041134113346363188 0.4114911624700736681 
	0.2957704560409907812 0.4397899064422352566 
	0.2870798776101111671 0.4692677647465663404 
	0.2870798776101111671 0.5000000000000067724 
	0.2870798776101111671 0.5307322352534311616 
	0.2957704560409907812 0.5602100935577606355 
	0.3041134113346394274 0.5885088375299312169 
	0.3198366732341868524 0.6134728686281006871 
	0.3479139266262468722 0.6580514955891351159 
	0.3935394633883563809 0.6843934115206630198 
	0.4391650001504425194 0.71073532745217749 
	0.4918098502605797728 0.7127616286776777832 
	0.5212909663222529133 0.7138963573639578453 
	0.5499698751441440825 0.7069721966048141404 
	0.5798437385002933597 0.6997595291473698298 
	0.6064586349448400915 0.6843934115206561364 
	0.6330735313894020333 0.6690272938939336722 
	0.6542568163146655902 0.6467621030470511734 
	0.674592769842904838 0.6253875198340584918 
	0.6883506240050287772 0.5992887600495739875 
	0.7129182207230836399 0.5526838318630393765 
	0.7129182207230836399 0.5 
	0.001000000000000000021 
	spline forward { exactsur full nubs 1 1 open open none none 2 2 
	0 1 1 1 
	0 1 1 1 
	-319.1762795903138681 8.988965259287901688 -93.80188508475703202 
	-317.5198364883081581 12.2756766462688276 -95.82520439706388515 
	-315.5818211730337453 8.477225019741943868 -91.69046680674571803 
	-313.9253780710280921 11.76393640672288399 -93.71378611905259959 
	0 
	0 
	0 
	0 
	0 
	0 
	0 
	F 1 F 0 F 1 F 0 } I I I I 
	} 0 0 #
tvertex-vertex $-1 $25 $59 1.243449787580175325e-14 #
intcurve-curve $-1 forward { exactcur full nurbs 2 periodic 4 
	0 2 0.3333333333333329818 2 0.6666666666666669627 2 1 2 
	-316.1981419126628907 11.07625157355168 -94.18863714983584146 1 
	-317.5237308129257485 11.26497463071622995 -94.9673003886949374 0.5 
	-317.3899691023084983 10.12090730364206337 -93.93176356160950036 1 
	-317.2562073916914187 8.976839976567923429 -92.89622673452402069 0.5 
	-316.0643802020456974 9.932184246477540057 -93.15310032275033336 1 
	-314.8725530124000898 10.88752851638712826 -93.40997391097677394 0.5 
	-316.1981419126628907 11.07625157355168 -94.18863714983584146 1 
	0 
	null_surface 
	null_surface 
	nullbs 
	nullbs 
	I I 
	0 
	0 
	0 
	F 1 F 0 } I I #
point $-1 -317.8716612658790837 14.1290073666030267 -90.59976336515040884 #
face $-1 $-1 $60 $2 $-1 $61 forward single #
loop $-1 $-1 $62 $30 #
spline-surface $-1 forward { exactsur full nurbs 2 2 both open periodic none none 3 4 
	0 2 1.2509255832441879 2 2.501851166488375799 2 
	0 2 0.3333333333333329818 2 0.6666666666666669627 2 1 2 
	-328.5166161148594028 -9.726120046446879996 -82.23799244460656155 1 
	-332.8677664332213908 -1.788954984513402735 -72.90692060442441402 0.7071067811865470176 
	-327.7406946696699492 8.384171473454891554 -79.16955848327219769 1 
	-322.613622906118394 18.55729793142315742 -85.43219636211992452 0.7071067811865470176 
	-318.2624725877562923 10.62013286948967306 -94.76326820230207204 1 
	-327.1504086089328212 -7.015293600750815983 -83.90679352084808329 0.5 
	-330.3421107084067785 -1.193139793483396716 -77.06216637547680648 0.3535533905932740084 
	-326.5812464507818618 6.26916021878881935 -81.65600317808306841 0.5 
	-322.820382193156945 13.73146023106104252 -86.24983998068933033 0.3535533905932740084 
	-319.6286800936829309 7.909306423793630358 -93.09446712606060714 0.5 
	-325.2660490887701599 -8.73623456599764836 -81.56424119637202352 1 
	-329.0374752976882746 -1.856575131397235623 -73.47639170359533978 0.7071067811865470176 
	-324.5935072870999534 6.961138103723023107 -78.90462904432231994 1 
	-320.1495392765117458 15.77885133884327473 -84.33286638504938537 0.7071067811865470176 
	-316.3781130675938016 8.899191904242805151 -92.4207158778260407 1 
	-323.3816895686076123 -10.45717553124452337 -79.2216888718960206 0.5 
	-327.7328398869697139 -2.520010469311017687 -69.8906170317139015 0.3535533905932740084 
	-322.6057681234181587 7.653115988657241076 -76.15325491056162832 0.5 
	-317.4786963598666603 17.82624244662549273 -82.41589278940941199 0.3535533905932740084 
	-313.1275460415045586 9.889077384692036787 -91.74696462959153109 0.5 
	-326.6322565946967984 -11.44706101169372658 -79.8954401201305302 1 
	-331.5631310225030006 -2.452390322427213221 -69.32114593254297574 0.7071067811865470176 
	-325.7529555059880977 9.076149358389081101 -76.41818434951147765 1 
	-319.9427799894732516 20.60468903920538963 -83.51522276647997955 0.7071067811865470176 
	-315.0119055616671062 11.61001834993886206 -94.08951695406753402 1 
	-329.8828236207859845 -12.43694649214289427 -80.56919136836506823 0.5 
	-335.3934221580362305 -2.384770175543344806 -68.75167483337204999 0.3535533905932740084 
	-328.9001428885580367 10.49918272812096376 -76.68311378846132698 0.5 
	-322.4068636190798998 23.38313563178522969 -84.61455274355057554 0.3535533905932740084 
	-316.8962650818297107 13.33095931518571575 -96.43206927854359378 0.5 
	-328.5166161148594028 -9.726120046446879996 -82.23799244460656155 1 
	-332.8677664332213908 -1.788954984513402735 -72.90692060442441402 0.7071067811865470176 
	-327.7406946696699492 8.384171473454891554 -79.16955848327219769 1 
	-322.613622906118394 18.55729793142315742 -85.43219636211992452 0.7071067811865470176 
	-318.2624725877562923 10.62013286948967306 -94.76326820230207204 1 
	0 
	0 
	0 
	0 
	0 
	0 
	0 
	F 1 F 0 F 1 F 0 } I I I I #
loop $-1 $-1 $52 $18 #
tcoedge-coedge $-1 $49 $49 $62 $63 reversed $31 $64 -1 -0 #
coedge $-1 $34 $33 $51 $65 forward $19 $66 #
coedge $-1 $33 $34 $50 $65 reversed $19 $67 #
tcoedge-coedge $-1 $52 $52 $33 $53 forward $48 $68 0 1 #
tedge-edge $-1 $69 0 $69 1 $33 $70 forward 7 unknown 0.0003757759013576054833 #
pcurve $-1 0 forward { exppc nubs 2 periodic 19 
	-1 2 -0.9166666666666667407 2 -0.875 2 -0.8333333333333333703 2 -0.7916666666666667407 2 
	-0.75 2 -0.6666666666666667407 2 -0.5833333333333333703 2 -0.5416666666666667407 2 -0.5 2 
	-0.4583333333333333703 2 -0.4166666666666666852 2 -0.3333333333333333703 2 -0.25 2 -0.2083333333333333148 2 
	-0.1666666666666666297 2 -0.1249999999999999722 2 -0.08333333333333331483 2 -0 2 
	1.76934915685094607 0 
	1.687999770329068561 0 
	1.62190339378004289 0 
	1.583947058732030566 0 
	1.548180512244482498 0 
	1.510939056623528121 0 
	1.474457630709121947 0 
	1.437976204794716217 0 
	1.400734749173762284 0 
	1.364968202686219767 0 
	1.327011867638214326 0 
	1.260915491089187768 0 
	1.179566104567310703 0 
	1.098216718045425644 0 
	1.032120341496389981 0 
	0.9941640064483803219 0 
	0.9583974599608349187 0 
	0.9211560043398788755 0 
	0.8846745784254713696 0 
	0.8481931525110659731 0 
	0.8109516968901124834 0 
	0.7751851504025712991 0 
	0.7372288153545670797 0 
	0.6711324388055222023 0 
	0.5897830522836265965 0 
	0.5084336657617534172 0 
	0.44233728921272919 0 
	0.404380954164724582 0 
	0.3686144076771825651 0 
	0.3313729520562295194 0 
	0.2948915261418245115 0 
	0.2584101002274197256 0 
	0.2211686446064664857 0 
	0.1854020981189224981 0 
	0.147445763070914726 0 
	0.08134938652188446195 0 
	0 0 
	0.001000000000000000021 
	spline reversed { ref 4 } I I I I 
	} 0 0 #
pcurve $-1 0 forward { exppc nubs 2 periodic 19 
	-1 2 -0.9166666666666667407 2 -0.875 2 -0.8333333333333333703 2 -0.7916666666666667407 2 
	-0.75 2 -0.6666666666666667407 2 -0.5833333333333333703 2 -0.5416666666666667407 2 -0.5 2 
	-0.4583333333333333703 2 -0.4166666666666666852 2 -0.3333333333333333703 2 -0.25 2 -0.2083333333333333148 2 
	-0.1666666666666666297 2 -0.1249999999999999722 2 -0.08333333333333331483 2 -0 2 
	0 1 
	0.08134938652187878594 1 
	0.1474457630709052336 1 
	0.1854020981189182793 1 
	0.221168644606466569 1 
	0.2584101002274196701 1 
	0.2948915261418245115 1 
	0.3313729520562294084 1 
	0.3686144076771820655 1 
	0.4043809541647238603 1 
	0.4423372892127289679 1 
	0.5084336657617536392 1 
	0.5897830522836265965 1 
	0.6711324388055222023 1 
	0.7372288153545670797 0.999999999999999889 
	0.7751851504025704109 0.999999999999999778 
	0.8109516968901103739 0.999999999999999778 
	0.8481931525110648629 0.999999999999999778 
	0.8846745784254713696 0.999999999999999778 
	0.9211560043398759889 0.999999999999999889 
	0.9583974599608285905 0.999999999999999889 
	0.9941640064483729944 0.999999999999999778 
	1.032120341496381322 0.999999999999999778 
	1.098216718045420981 1 
	1.179566104567310703 1 
	1.260915491089187768 1 
	1.327011867638214548 1 
	1.364968202686224652 0.999999999999999889 
	1.400734749173770721 1 
	1.437976204794719992 1 
	1.474457630709121947 1 
	1.51093905662352701 1 
	1.548180512244479834 1 
	1.583947058732024793 0.999999999999999778 
	1.621903393780033786 0.9999999999999995559 
	1.687999770329062788 0.999999999999999778 
	1.76934915685094607 1 
	0.001000000000000000021 
	spline reversed { ref 4 } I I I I 
	} 0 0 #
tvertex-vertex $-1 $35 $71 6.29793031991562086e-14 #
intcurve-curve $-1 forward { exactcur full nurbs 2 periodic 4 
	0 2 0.3333333333333329818 2 0.6666666666666669627 2 1 2 
	-329.2070353891992909 -6.813327444357248908 -78.07163653753102039 1 
	-328.6255238442022346 -5.659493295578794658 -78.78194378436452894 0.5 
	-327.8234664618893248 -6.39199332592424696 -77.78486155817762437 1 
	-327.021409079576415 -7.124493356269674393 -76.78777933199077665 0.5 
	-328.4049780068863811 -7.545827474702697657 -77.07455431134414425 1 
	-329.7885469341962903 -7.967161593135701381 -77.36132929069756869 0.5 
	-329.2070353891992909 -6.813327444357248908 -78.07163653753102039 1 
	0 
	null_surface 
	null_surface 
	nullbs 
	nullbs 
	I I 
	0 
	0 
	0 
	F 1 F 0 } I I #
intcurve-curve $-1 forward { exactcur full nubs 1 open 2 
	0 1 1 1 
	-316.1981419126628907 11.07625157355168 -94.18863714983584146 
	-317.8716612658790837 14.1290073666030267 -90.59976336515040884 
	0 
	null_surface 
	null_surface 
	nullbs 
	nullbs 
	I I 
	0 
	0 
	0 
	F 1 F 0 } I I #
point $-1 -316.1981419126628907 11.07625157355168 -94.18863714983584146 #
loop $-1 $40 $72 $45 #
spline-surface $-1 forward { ref 13 } I I I I #
tcoedge-coedge $-1 $73 $74 $49 $63 forward $46 $75 0 1 #
tedge-edge $-1 $76 0 $76 1 $49 $77 forward 7 unknown 0.0001062896926572376086 #
pcurve $-1 0 forward { exppc nubs 2 periodic 25 
	-1 2 -0.9583333333333333703 2 -0.9166666666666667407 2 -0.875 2 -0.8333333333333333703 2 
	-0.7916666666666667407 2 -0.75 2 -0.7083333333333333703 2 -0.6666666666666667407 2 -0.625 2 
	-0.5833333333333333703 2 -0.5416666666666667407 2 -0.5 2 -0.4583333333333333703 2 -0.4166666666666666852 2 
	-0.375 2 -0.3333333333333333703 2 -0.2916666666666666852 2 -0.25 2 -0.2083333333333333148 2 
	-0.1666666666666666297 2 -0.1249999999999999722 2 -0.08333333333333331483 2 -0.04166666666666665741 2 -0 2 
	0.9761891732716473369 0.5000009508333983499 
	0.9761891732716464487 0.5549865403081170045 
	0.9636578792381843561 0.6085251405861226148 
	0.9497342192010056472 0.6680124742283450878 
	0.9212442686633792732 0.7220581390966687163 
	0.8904751220827522573 0.780427457154440285 
	0.8449941969621121984 0.8282312553508244246 
	0.7976182332947754361 0.8780268784720612896 
	0.7380945866358236129 0.912392871893754287 
	0.6785709399768542482 0.9467588653154574985 
	0.6117586835229436026 0.9628898418195137587 
	0.5476189173271626132 0.9783755792634142301 
	0.4816850317972462547 0.9758377828261198816 
	0.4206351377880596099 0.973487971310106448 
	0.3621557656318946106 0.9558025477948485227 
	0.3095243306913264547 0.9398856666311103947 
	0.2619054133641695592 0.9123928718937575066 
	0.2142864960370305383 0.8849000771564148327 
	0.1741863551299288049 0.8472783580421214822 
	0.1296306430109382124 0.805476447915139504 
	0.09707069953937667861 0.7537805945628500703 
	0.06190596059008158375 0.6979490729423638573 
	0.04324711951494900064 0.6346595373020854636 
	0.02381082672835255903 0.568732937676795447 
	0.02381082672835257291 0.5000009508333966846 
	0.02381082672835257291 0.4312689639899791039 
	0.04324711951494131928 0.3653423643647095154 
	0.06190596059006299445 0.3020528287244624854 
	0.09707069953937330631 0.2462213071039488499 
	0.1296306430109251395 0.1945254537516719617 
	0.1741863551299281387 0.1527235436246784095 
	0.214286496037004115 0.1151018245104093313 
	0.2619054133641830484 0.08760902977304414752 
	0.3095243306913686432 0.0601162350356750988 
	0.3621557656318855067 0.04419935387195217391 
	0.4206351377880391262 0.02651393035669729475 
	0.4816850317972509177 0.02416411884068263641 
	0.5476189173271632793 0.02162632240338819428 
	0.6117586835229368303 0.03711205984728682683 
	0.6785709399768726779 0.05324303635134908924 
	0.7380945866358236129 0.08760902977304244055 
	0.7976182332947835407 0.1219750231947409475 
	0.844994196962115196 0.171770646315972747 
	0.8904751220827560321 0.2195744445123578026 
	0.9212442686633837141 0.2779437625701288717 
	0.9497342192009960993 0.3319894274384241895 
	0.9636578792381808034 0.3914767610806724196 
	0.9761891732716482251 0.4450153613587009005 
	0.9761891732716473369 0.5000009508333983499 
	0.001000000000000000021 
	spline forward { ref 8 } I I I I 
	} 0 0 #
edge $-1 $69 0 $56 1 $51 $78 forward 7 unknown #
pcurve $-1 0 forward { exppc nubs 2 open 7 
	0 2 0.1666666666666666574 2 0.3333333333333333148 2 0.5 2 0.6666666666666666297 2 
	0.8333333333333333703 2 1 2 
	0 0 
	0 0.08333333333333332871 
	0 0.1666666666666666574 
	0 0.25 
	0 0.3333333333333333148 
	0 0.4166666666666666297 
	0 0.5 
	0 0.5833333333333332593 
	0 0.6666666666666666297 
	0 0.75 
	0 0.8333333333333334814 
	0 0.9166666666666667407 
	0 1 
	0.001000000000000000021 
	spline reversed { ref 4 } I I I I 
	} 0 0 #
pcurve $-1 0 forward { exppc nubs 2 open 7 
	-1 2 -0.8333333333333333703 2 -0.6666666666666667407 2 -0.5 2 -0.3333333333333333703 2 
	-0.1666666666666666297 2 -0 2 
	1.76934915685094607 1 
	1.76934915685094607 0.9166666666666667407 
	1.76934915685094607 0.8333333333333334814 
	1.76934915685094607 0.750000000000000111 
	1.76934915685094607 0.6666666666666667407 
	1.76934915685094607 0.5833333333333333703 
	1.76934915685094607 0.5 
	1.76934915685094607 0.4166666666666666852 
	1.76934915685094607 0.3333333333333333703 
	1.76934915685094607 0.25 
	1.76934915685094607 0.1666666666666666297 
	1.76934915685094607 0.08333333333333331483 
	1.76934915685094607 0 
	0.001000000000000000021 
	spline reversed { ref 4 } I I I I 
	} 0 0 #
pcurve $-1 0 forward { exppc nubs 2 periodic 19 
	0 2 0.08333333333333332871 2 0.125 2 0.1666666666666666574 2 0.2083333333333333148 2 
	0.25 2 0.3333333333333333148 2 0.4166666666666666297 2 0.4583333333333333148 2 0.5 2 
	0.5416666666666666297 2 0.5833333333333332593 2 0.6666666666666666297 2 0.75 2 0.7916666666666667407 2 
	0.8333333333333333703 2 0.875 2 0.9166666666666667407 2 1 2 
	0.7026848049500816762 0.5000009508333983499 
	0.7026848049500823423 0.4498494679625936743 
	0.6792980966866054571 0.4054846946537815078 
	0.6662015400590591829 0.3806404216008482111 
	0.6468430729740352048 0.3602932485504057314 
	0.6266780030938026158 0.3390982766228622936 
	0.6013424024750341212 0.3244707607855357723 
	0.5760068018562707337 0.3098432449482122486 
	0.5475688827944111825 0.3029772681266155732 
	0.5202684804950157282 0.2963859303778803023 
	0.4922044305788462193 0.2974661161627903949 
	0.4420900557285389887 0.2993950193501300205 
	0.398657597524952334 0.324470760785539214 
	0.3552251393213693431 0.349546502220946298 
	0.328497472734545215 0.3919823723424087913 
	0.31352997944592087 0.4157464596104322729 
	0.3055880442315523915 0.4426849704096063043 
	0.2973151950499182128 0.4707459191587469727 
	0.2973151950499182128 0.5000009508333966846 
	0.2973151950499182128 0.5292559825080259683 
	0.3055880442315591083 0.5573169312571899514 
	0.3135299794459329714 0.58425544205638269 
	0.328497472734545104 0.608019529324388297 
	0.3552251393213723407 0.6504553994458585064 
	0.398657597524952334 0.6755311408812642027 
	0.4420900557285321053 0.7006068823166697879 
	0.4922044305788452201 0.7025357855040100796 
	0.5202684804950035158 0.7036159712889199502 
	0.5475688827944111825 0.6970246335401825144 
	0.5760068018562738423 0.6901586567185858945 
	0.6013424024750408936 0.675531140881260872 
	0.6266780030937911805 0.6609036250439456195 
	0.6468430729740353158 0.6397086531163910239 
	0.6662015400590912684 0.6193614800659159592 
	0.6792980966866192238 0.59451720701301769 
	0.7026848049500810101 0.5501524337042347224 
	0.7026848049500816762 0.5000009508333983499 
	0.001000000000000000021 
	spline forward { ref 8 } I I I I 
	} 0 0 #
tvertex-vertex $-1 $53 $79 3.01980662698042579e-14 #
intcurve-curve $-1 forward { exactcur full nurbs 2 periodic 4 
	0 2 0.3333333333333329818 2 0.6666666666666669627 2 1 2 
	-327.5335160359829842 -9.866083237408595608 -81.66051032221645301 1 
	-328.1150275809800974 -11.01991738618706229 -80.95020307538300131 0.5 
	-326.7314586536701881 -10.59858326775406567 -80.66342809602960529 1 
	-325.3478897263602789 -10.17724914932104952 -80.37665311667620927 0.5 
	-326.149947108673075 -9.444749118975586555 -81.37373534286305699 1 
	-326.9520044909859848 -8.712249088630123595 -82.37081756904993313 0.5 
	-327.5335160359829842 -9.866083237408595608 -81.66051032221645301 1 
	0 
	null_surface 
	null_surface 
	nullbs 
	nullbs 
	I I 
	0 
	0 
	0 
	F 1 F 0 } I I #
point $-1 -329.2070353891992909 -6.813327444357248908 -78.07163653753102039 #
tcoedge-coedge $-1 $72 $72 $80 $81 reversed $60 $82 -1 -0 #
tcoedge-coedge $-1 $80 $62 $74 $83 reversed $46 $84 -2.501851166488375799 -0 #
tcoedge-coedge $-1 $62 $80 $73 $83 forward $46 $85 0 2.501851166488375799 #
pcurve $-1 0 forward { exppc nubs 2 periodic 25 
	0 2 0.04166666666666666435 2 0.08333333333333332871 2 0.125 2 0.1666666666666666574 2 
	0.2083333333333333148 2 0.25 2 0.2916666666666666297 2 0.3333333333333333148 2 0.375 2 
	0.4166666666666666297 2 0.4583333333333333148 2 0.5 2 0.5416666666666666297 2 0.5833333333333332593 2 
	0.625 2 0.6666666666666666297 2 0.7083333333333332593 2 0.75 2 0.7916666666666667407 2 
	0.8333333333333333703 2 0.875 2 0.9166666666666667407 2 0.9583333333333333703 2 1 2 
	0 1 
	0 0.9779614324841352513 
	0 0.9583333332923503756 
	0 0.9365443424891697344 
	0 0.9166666666666662966 
	0 0.8952145214521165517 
	0 0.8749999999999457101 
	1.141016599207575296e-31 0.8539518900343379126 
	2.25874714537015486e-31 0.8333333333333334814 
	1.141016599207572012e-31 0.8127147766323269407 
	0 0.7916666666667173669 
	0 0.7714521452145480795 
	0 0.750000000000000111 
	0 0.7301223241774981165 
	0 0.7083333333743192517 
	9.645593447735858116e-32 0.6887052341825319335 
	2.047573346035025758e-31 0.6666666666666639651 
	1.224554590735865642e-26 0.6446280991508018809 
	2.315155286796978623e-26 0.6249999999590191146 
	1.104477751559272183e-26 0.6032110091558369191 
	0 0.5833333333333322601 
	0 0.5618811881187835144 
	0 0.541666666666613561 
	0 0.5206185567010049864 
	0 0.4999999999999999445 
	5.082758458434003706e-28 0.4793814432989949026 
	1.027140771808511981e-27 0.4583333333333867166 
	5.288249518222166471e-28 0.4381188118812168186 
	0 0.4166666666666682395 
	1.532545583950461507e-25 0.3967889908441635805 
	3.212451320029936601e-25 0.3750000000409816625 
	1.69914780571854247e-25 0.3553719008491972309 
	0 0.3333333333333329818 
	2.550027138545039135e-26 0.3112947658174666232 
	4.82114505857650607e-26 0.2916666666256810259 
	2.299996380604958361e-26 0.2698776758225022721 
	1.095199784732272589e-32 0.2500000000000003331 
	5.313345490285161735e-33 0.2285478547854503939 
	0 0.2083333333332791915 
	0 0.1872852233676713385 
	0 0.1666666666666664909 
	0 0.1460481099656612825 
	0 0.1250000000000527356 
	0 0.1047854785478828377 
	0 0.0833333333333341475 
	0 0.06345565751083029338 
	0 0.04166666670764937463 
	0 0.02203856751586461341 
	0 0 
	0.001000000000000000021 
	spline forward { ref 15 } I I I I 
	} 0 0 #
tvertex-vertex $-1 $83 $86 1.175218138415565699e-13 #
intcurve-curve $-1 forward { exactcur full nurbs 2 periodic 4 
	0 2 0.3333333333333329818 2 0.6666666666666669627 2 1 2 
	-328.5166161148594028 -9.726120046446879996 -82.23799244460656155 1 
	-329.8828236207859845 -12.43694649214289605 -80.56919136836506823 0.5 
	-326.6322565946967984 -11.44706101169372658 -79.8954401201305302 1 
	-323.3816895686076123 -10.45717553124452337 -79.2216888718960206 0.5 
	-325.2660490887701599 -8.73623456599764836 -81.56424119637202352 1 
	-327.1504086089328212 -7.015293600750814207 -83.90679352084808329 0.5 
	-328.5166161148594028 -9.726120046446879996 -82.23799244460656155 1 
	0 
	null_surface 
	null_surface 
	nullbs 
	nullbs 
	I I 
	0 
	0 
	0 
	F 1 F 0 } I I #
intcurve-curve $-1 forward { exactcur full nubs 1 open 2 
	0 1 1 1 
	-327.5335160359829842 -9.866083237408595608 -81.66051032221645301 
	-329.2070353891992909 -6.813327444357248908 -78.07163653753102039 
	0 
	null_surface 
	null_surface 
	nullbs 
	nullbs 
	I I 
	0 
	0 
	0 
	F 1 F 0 } I I #
point $-1 -327.5335160359829842 -9.866083237408595608 -81.66051032221645301 #
tcoedge-coedge $-1 $74 $73 $72 $81 forward $46 $87 0 1 #
tedge-edge $-1 $88 0 $88 1 $80 $89 forward 7 unknown 0.0001062896926459764208 #
pcurve $-1 0 forward { exppc nubs 2 periodic 25 
	-1 2 -0.9583333333333333703 2 -0.9166666666666667407 2 -0.875 2 -0.8333333333333333703 2 
	-0.7916666666666667407 2 -0.75 2 -0.7083333333333333703 2 -0.6666666666666667407 2 -0.625 2 
	-0.5833333333333333703 2 -0.5416666666666667407 2 -0.5 2 -0.4583333333333333703 2 -0.4166666666666666852 2 
	-0.375 2 -0.3333333333333333703 2 -0.2916666666666666852 2 -0.25 2 -0.2083333333333333148 2 
	-0.1666666666666666297 2 -0.1249999999999999722 2 -0.08333333333333331483 2 -0.04166666666666665741 2 -0 2 
	0.4999990491666016501 0.02381082672835257291 
	0.5549846386413219701 0.02381082672835346109 
	0.6085232389193271363 0.03634212076181547041 
	0.6680105725615456125 0.05026578079899328422 
	0.7220562374298711283 0.07875573133662069902 
	0.7804255554876542433 0.1095248779172538767 
	0.8282293536840259485 0.1550058030378820562 
	0.8780249768052625914 0.2023817667052185132 
	0.9123909702269592525 0.261905413364176276 
	0.946756963648662131 0.3214290600231449746 
	0.96288794015271717 0.3882413164770530667 
	0.9783736775966149768 0.4523810826728253964 
	0.9758358811593196291 0.5183149682027553551 
	0.9734860696433050853 0.579364862211959597 
	0.9558006461280519339 0.6378442343681083315 
	0.9398837649643251302 0.6904756693086387953 
	0.9123909702269524802 0.7380945866358304963 
	0.8848981754896053653 0.7857135039629778994 
	0.8472764563753186762 0.8258136448700726939 
	0.8054745462483388074 0.8703693569890613713 
	0.7537786928960491517 0.902929300460623141 
	0.6979471712755609403 0.9380940394099195334 
	0.6346576356352869874 0.9567528804850508051 
	0.5687310360099964157 0.9761891732716473369 
	0.4999990491665982639 0.9761891732716473369 
	0.4312670623231805722 0.9761891732716473369 
	0.3653404626979105951 0.9567528804850585766 
	0.302050927057667451 0.9380940394099379631 
	0.2462194054371523444 0.9029293004606266937 
	0.1945235520848692667 0.8703693569890709192 
	0.1527216419578784068 0.8258136448700710286 
	0.1150999228436126176 0.7857135039629987716 
	0.08760712810624571301 0.7380945866358169516 
	0.06011433336887467282 0.6904756693086280261 
	0.04419745220515276102 0.6378442343681139937 
	0.0265120286899000919 0.5793648622119671465 
	0.02416221717388503457 0.5183149682027433647 
	0.02162442073659032876 0.4523810826728227319 
	0.03711015818048623433 0.388241316477062226 
	0.05324113468454601955 0.3214290600231385353 
	0.08760712810624571301 0.261905413364176276 
	0.1219731215279473979 0.2023817667052107416 
	0.1717687446491740211 0.1550058030378841378 
	0.219572542845557328 0.1095248779172450504 
	0.277941860903330229 0.07875573133661627201 
	0.3319875257716266015 0.05026578079900333174 
	0.3914748594138725002 0.03634212076181917578 
	0.4450134596919013141 0.02381082672835166739 
	0.4999990491666016501 0.02381082672835257291 
	0.001000000000000000021 
	spline forward { ref 13 } I I I I 
	} 0 0 #
tedge-edge $-1 $88 0 $76 2.501851166488375799 $74 $90 forward 7 unknown 1.00210776999381885e-09 #
pcurve $-1 0 forward { exppc nubs 2 open 21 
	-2.501851166488375799 2 -2.293363569281011038 2 -2.18911977067732888 2 -2.084875972073646722 2 -1.980632173469964341 2 
	-1.876388374866281961 2 -1.772144576262599802 2 -1.667900777658917422 2 -1.563656979055235041 2 -1.459413180451552661 2 
	-1.2509255832441879 2 -1.042437986036823361 2 -0.9381941874331409803 2 -0.8339503888294587108 2 -0.7297065902257763303 2 
	-0.6254627916220939499 2 -0.5212189930184115694 2 -0.4169751944147291889 2 -0.3127313958110469194 2 -0.2084875972073645944 2 
	-0 2 
	0 0 
	0.1086642169758924303 -2.108499445573516321e-16 
	0.20848759720736465 -4.04545300518025131e-16 
	0.2614300429148868621 3.214375026938999241e-12 
	0.312731395810621593 6.329503901577026572e-12 
	0.3654556560336169602 3.128177633176215821e-12 
	0.4169751944147287448 0 
	0.4694653190634169304 5.217378452115698157e-14 
	0.5212189930184089048 1.036155566864560909e-13 
	0.5734648012745777734 5.168461614602363379e-14 
	0.6254627916220936168 0 
	0.6774607819696096822 5.184703001794804923e-14 
	0.7297065902257782177 1.039411584807212489e-13 
	0.7814602641807701922 5.233773555705304122e-14 
	0.8339503888294583778 0 
	0.8854699272105701624 3.12823740381466307e-12 
	0.9381941874335658627 6.329624840517719068e-12 
	0.9894955403293006491 3.214648189202304988e-12 
	1.042437986036822917 2.570979831492705334e-17 
	1.14226136626829522 1.340000623500389593e-17 
	1.2509255832441879 0 
	1.359589800220080358 -7.484044900355472783e-17 
	1.459413180451552661 -1.435919368943051801e-16 
	1.512355626159074706 3.214971160457032561e-12 
	1.563656979054808938 6.330424825443434602e-12 
	1.616381239277804749 3.128632773655713319e-12 
	1.667900777658916756 0 
	1.720390902307604497 5.288971167374036092e-14 
	1.772144576262596471 1.050373663393824582e-13 
	1.824390384518765451 5.23938309444016035e-14 
	1.876388374866281961 0 
	1.928386365213797804 5.195687325852327598e-14 
	1.980632173469966562 1.041613684652220866e-13 
	2.032385847424959202 5.244861840754548234e-14 
	2.084875972073647166 0 
	2.136395510454758728 3.128888687953175078e-12 
	2.189119770677753873 6.33094263828343131e-12 
	2.240421123573488771 3.215809276378158623e-12 
	2.293363569281011038 1.025073326992911239e-15 
	2.393186949512483341 5.342705844979772969e-16 
	2.501851166488375799 0 
	0.001000000000000000021 
	spline forward { ref 15 } I I I I 
	} 0 0 #
pcurve $-1 0 forward { exppc nubs 2 open 21 
	0 2 0.20848759720736465 2 0.3127313958110469749 2 0.4169751944147292999 2 0.5212189930184116804 2 
	0.6254627916220939499 2 0.7297065902257762193 2 0.8339503888294585998 2 0.9381941874331409803 2 1.042437986036823361 2 
	1.2509255832441879 2 1.459413180451552439 2 1.563656979055234819 2 1.6679007776589172 2 1.77214457626259958 2 
	1.876388374866281961 2 1.980632173469964341 2 2.084875972073646722 2 2.18911977067732888 2 2.293363569281011038 2 
	2.501851166488375799 2 
	2.501851166488375799 1 
	2.393186949512482897 1.000000000000000444 
	2.293363569281011038 1.000000000000000888 
	2.240421123573488771 1.000000000003214984 
	2.189119770677754317 1.000000000006329381 
	2.136395510454758728 1.000000000003128164 
	2.084875972073646722 1 
	2.032385847424958314 1.000000000000051958 
	1.980632173469966784 1.000000000000103251 
	1.928386365213798026 1.000000000000051514 
	1.876388374866282183 1 
	1.824390384518766339 1.000000000000051958 
	1.772144576262597582 1.000000000000103695 
	1.720390902307605607 1.00000000000005218 
	1.667900777658917644 1 
	1.616381239277805193 1.000000000003128164 
	1.563656979054809382 1.000000000006329826 
	1.512355626159074706 1.000000000003214762 
	1.459413180451552439 1 
	1.359589800220080136 1 
	1.2509255832441879 1 
	1.142261366268295442 1.000000000000000222 
	1.042437986036822917 1.000000000000000222 
	0.989495540329300427 1.000000000003214762 
	0.9381941874335656406 1.000000000006329604 
	0.8854699272105699404 1.000000000003128164 
	0.8339503888294580447 1 
	0.7814602641807704142 1.000000000000052403 
	0.7297065902257788839 1.000000000000104139 
	0.6774607819696096822 1.000000000000051958 
	0.6254627916220933947 1 
	0.5734648012745775514 1.000000000000051736 
	0.5212189930184089048 1.000000000000103473 
	0.4694653190634168194 1.000000000000051958 
	0.4169751944147287448 1 
	0.3654556560336171822 1.000000000003128608 
	0.312731395810621815 1.000000000006330492 
	0.2614300429148869176 1.00000000000321454 
	0.2084875972073645667 0.9999999999999988898 
	0.1086642169758924442 0.9999999999999995559 
	0 1 
	0.001000000000000000021 
	spline forward { ref 15 } I I I I 
	} 0 0 #
point $-1 -328.5166161148594028 -9.726120046446879996 -82.23799244460656155 #
pcurve $-1 0 forward { exppc nubs 2 periodic 25 
	0 2 0.04166666666666666435 2 0.08333333333333332871 2 0.125 2 0.1666666666666666574 2 
	0.2083333333333333148 2 0.25 2 0.2916666666666666297 2 0.3333333333333333148 2 0.375 2 
	0.4166666666666666297 2 0.4583333333333333148 2 0.5 2 0.5416666666666666297 2 0.5833333333333332593 2 
	0.625 2 0.6666666666666666297 2 0.7083333333333332593 2 0.75 2 0.7916666666666667407 2 
	0.8333333333333333703 2 0.875 2 0.9166666666666667407 2 0.9583333333333333703 2 1 2 
	2.501851166488375799 0 
	2.501851166488375799 0.02203856751586552587 
	2.501851166488375799 0.0416666667076509914 
	2.501851166488375355 0.06345565751083084849 
	2.501851166488375799 0.08333333333333375892 
	2.501851166488375799 0.1047854785478839201 
	2.501851166488375799 0.1250000000000550393 
	2.501851166488375799 0.1460481099656623372 
	2.501851166488375799 0.1666666666666664909 
	2.501851166488375355 0.1872852233676723932 
	2.501851166488375799 0.2083333333332813841 
	2.501851166488375799 0.2285478547854497 
	2.501851166488375799 0.2499999999999965583 
	2.501851166488376244 0.2698776758225011063 
	2.501851166488375799 0.2916666666256827467 
	2.501851166488375355 0.3112947658174678445 
	2.501851166488375799 0.3333333333333329818 
	2.501851166488376244 0.3553719008491970088 
	2.501851166488375799 0.375000000040981607 
	2.501851166488375355 0.3967889908441628588 
	2.501851166488375799 0.4166666666666668517 
	2.501851166488375799 0.4381188118812158749 
	2.501851166488375799 0.4583333333333860504 
	2.501851166488376244 0.4793814432989941254 
	2.501851166488375799 0.4999999999999987788 
	2.501851166488375799 0.5206185567010042092 
	2.501851166488375799 0.5416666666666128949 
	2.501851166488375799 0.5618811881187832924 
	2.501851166488375799 0.5833333333333324822 
	2.501851166488375799 0.6032110091558366971 
	2.501851166488375799 0.6249999999590183375 
	2.501851166488376244 0.6446280991508014369 
	2.501851166488375799 0.6666666666666639651 
	2.501851166488375799 0.6887052341825307122 
	2.501851166488375799 0.7083333333743169202 
	2.501851166488375799 0.7301223241774970063 
	2.501851166488375799 0.750000000000000222 
	2.501851166488376244 0.7714521452145488567 
	2.501851166488375799 0.7916666666667186991 
	2.501851166488375799 0.8127147766323277178 
	2.501851166488375799 0.8333333333333334814 
	2.501851166488375355 0.8539518900343386898 
	2.501851166488375799 0.8749999999999473754 
	2.501851166488375799 0.8952145214521172178 
	2.501851166488375799 0.9166666666666658525 
	2.501851166488375355 0.9365443424891695123 
	2.501851166488375799 0.9583333332923505976 
	2.501851166488375799 0.9779614324841353623 
	2.501851166488375799 1 
	0.001000000000000000021 
	spline forward { ref 15 } I I I I 
	} 0 0 #
tvertex-vertex $-1 $81 $91 2.131628207280300558e-14 #
intcurve-curve $-1 forward { exactcur full nurbs 2 periodic 4 
	0 2 0.3333333333333329818 2 0.6666666666666669627 2 1 2 
	-318.2624725877562923 10.62013286948967306 -94.76326820230207204 1 
	-319.6286800936829309 7.909306423793638352 -93.09446712606060714 0.5 
	-316.3781130675938016 8.899191904242805151 -92.4207158778260407 1 
	-313.1275460415045586 9.889077384692008366 -91.74696462959155951 0.5 
	-315.0119055616671062 11.61001834993886206 -94.08951695406756244 1 
	-316.8962650818297107 13.33095931518572108 -96.43206927854357957 0.5 
	-318.2624725877562923 10.62013286948967306 -94.76326820230207204 1 
	0 
	null_surface 
	null_surface 
	nullbs 
	nullbs 
	I I 
	0 
	0 
	0 
	F 1 F 0 } I I #
intcurve-curve $-1 forward { exactcur full nurbs 2 open 3 
	0 2 1.2509255832441879 2 2.501851166488375799 2 
	-318.2624725877562923 10.62013286948967306 -94.76326820230207204 1 
	-322.613622906118394 18.55729793142316097 -85.43219636211992452 0.7071067811865470176 
	-327.7406946696699492 8.384171473454891554 -79.16955848327219769 1 
	-332.8677664332213908 -1.788954984513396518 -72.90692060442441402 0.7071067811865470176 
	-328.5166161148594028 -9.726120046446879996 -82.23799244460656155 1 
	0 
	null_surface 
	null_surface 
	nullbs 
	nullbs 
	I I 
	0 
	0 
	0 
	F 1 F 0 } I I #
point $-1 -318.2624725877562923 10.62013286948967306 -94.76326820230207204 #
End-of-ACIS-data 