600 0 1 0           
82 GICL ACIS Healer - Source: /gicl/data5/repository/SDRC_I-DEAS/bmw/Part43.sat - 6 0 18 ACIS 6.0.3 Solaris 24 Sat Apr 13 23:16:08 2002 
1 9.999999999999999547e-07 1.000000000000000036e-10 
body $-1 $1 $-1 $-1 #
lump $-1 $-1 $2 $0 #
shell $-1 $-1 $-1 $3 $-1 $1 #
face $-1 $4 $5 $2 $-1 $6 forward single #
face $-1 $7 $8 $2 $-1 $9 forward single #
loop $-1 $-1 $10 $3 #
plane-surface $-1 -358.9999999797965984 33.49079208117951367 -45.31814344521656324 6.023047624730110061e-10 0.9983256259387545128 -0.05784414053293635699 -0 0.05784414053293635699 0.9983256259387545128 forward_v I I I I #
face $-1 $11 $12 $2 $-1 $13 forward single #
loop $-1 $-1 $14 $4 #
plane-surface $-1 -358.9999999812866918 31.0209163332367126 -40.40390761553515375 3.313697660312825192e-10 0.549257308130980948 0.8356532830454918015 1 0 -3.965397764293151468e-10 forward_v I I I I #
coedge $-1 $15 $16 $17 $18 reversed $5 $-1 #
face $-1 $19 $20 $2 $-1 $21 forward single #
loop $-1 $-1 $22 $7 #
plane-surface $-1 -358.9999999845993557 25.53012539057358055 -40.08576484260395034 -2.709337585463894229e-10 -0.4490683178077787829 0.8934974235784295393 1 -0 3.032283601460294114e-10 forward_v I I I I #
coedge $-1 $23 $24 $25 $26 reversed $8 $-1 #
coedge $-1 $27 $10 $24 $28 reversed $5 $-1 #
coedge $-1 $10 $27 $29 $30 forward $5 $-1 #
coedge $-1 $31 $25 $10 $18 forward $32 $-1 #
edge $-1 $33 0 $34 1 $10 $35 forward 7 unknown #
face $-1 $36 $37 $2 $-1 $38 forward single #
loop $-1 $-1 $39 $11 #
plane-surface $-1 -358.9999999864219262 22.50921019585324601 -44.68185789935421326 -6.023060132292696548e-10 -0.9983256259387544018 0.05784414053293649577 0 -0.05784414053293650271 -0.9983256259387545128 forward_v I I I I #
coedge $-1 $40 $41 $42 $43 reversed $12 $-1 #
coedge $-1 $44 $14 $41 $45 reversed $8 $-1 #
coedge $-1 $14 $44 $15 $28 forward $8 $-1 #
coedge $-1 $17 $42 $14 $26 forward $32 $-1 #
edge $-1 $46 0 $33 1 $14 $47 forward 7 unknown #
coedge $-1 $16 $15 $48 $49 forward $5 $-1 #
edge $-1 $50 0 $33 1 $15 $51 forward 7 unknown #
coedge $-1 $52 $53 $16 $30 reversed $54 $-1 #
edge $-1 $55 0 $34 1 $16 $56 forward 7 unknown #
coedge $-1 $57 $17 $53 $58 forward $32 $-1 #
loop $-1 $-1 $57 $36 #
vertex $-1 $18 $59 #
vertex $-1 $18 $60 #
intcurve-curve $-1 forward { exactcur full nubs 1 open 2 
	0 1 1 1 
	-361.9999999796857537 33.67447189858199152 -42.14803381640603419 
	-361.9999999799073862 33.30711226739692421 -48.48825307402710649 
	0 
	null_surface 
	null_surface 
	nullbs 
	nullbs 
	I I 
	0 
	0 
	0 
	F 1 F 0 } I I #
face $-1 $61 $32 $2 $-1 $62 forward single #
loop $-1 $-1 $63 $19 #
plane-surface $-1 -358.9999999849317192 24.97908594379603286 -49.59609372903565827 -3.313727069975169143e-10 -0.5492573081309800598 -0.8356532830454921346 -1 0 3.965432957911054085e-10 forward_v I I I I #
coedge $-1 $64 $65 $66 $67 reversed $20 $-1 #
coedge $-1 $68 $22 $65 $69 reversed $12 $-1 #
coedge $-1 $22 $68 $23 $45 forward $12 $-1 #
coedge $-1 $25 $66 $22 $43 forward $32 $-1 #
edge $-1 $70 0 $46 1 $22 $71 forward 7 unknown #
coedge $-1 $24 $23 $72 $73 forward $8 $-1 #
edge $-1 $74 0 $46 1 $23 $75 forward 7 unknown #
vertex $-1 $26 $76 #
intcurve-curve $-1 forward { exactcur full nubs 1 open 2 
	0 1 1 1 
	-361.9999999828876298 28.36736077151130786 -38.65978141466430174 
	-361.9999999796857537 33.67447189858199152 -42.14803381640603419 
	0 
	null_surface 
	null_surface 
	nullbs 
	nullbs 
	I I 
	0 
	0 
	0 
	F 1 F 0 } I I #
coedge $-1 $72 $77 $27 $49 reversed $78 $-1 #
edge $-1 $50 0 $55 1 $27 $79 forward 7 unknown #
vertex $-1 $49 $80 #
intcurve-curve $-1 forward { exactcur full nubs 1 open 2 
	0 1 1 1 
	-355.9999999796857537 33.67447189496210314 -42.14803381640601998 
	-361.9999999796857537 33.67447189858199152 -42.14803381640603419 
	0 
	null_surface 
	null_surface 
	nullbs 
	nullbs 
	I I 
	0 
	0 
	0 
	F 1 F 0 } I I #
coedge $-1 $81 $29 $77 $82 forward $54 $-1 #
coedge $-1 $29 $81 $31 $58 reversed $54 $-1 #
loop $-1 $-1 $53 $61 #
vertex $-1 $30 $83 #
intcurve-curve $-1 forward { exactcur full nubs 1 open 2 
	0 1 1 1 
	-355.9999999799073862 33.30711226377703582 -48.48825307402707807 
	-361.9999999799073862 33.30711226739692421 -48.48825307402710649 
	0 
	null_surface 
	null_surface 
	nullbs 
	nullbs 
	I I 
	0 
	0 
	0 
	F 1 F 0 } I I #
coedge $-1 $66 $31 $63 $84 reversed $32 $-1 #
edge $-1 $34 0 $85 1 $31 $86 forward 7 unknown #
point $-1 -361.9999999796857537 33.67447189858199152 -42.14803381640603419 #
point $-1 -361.9999999799073862 33.30711226739692421 -48.48825307402710649 #
face $-1 $87 $54 $2 $-1 $88 forward single #
plane-surface $-1 -361.9999999831092055 27.99999824595923315 -45.00000050458244516 -1 6.033041238931936147e-10 -8.506603359423111547e-15 -8.506603359423111547e-15 0 1 forward_v I I I I #
coedge $-1 $89 $90 $57 $84 forward $37 $-1 #
coedge $-1 $91 $39 $90 $92 reversed $20 $-1 #
coedge $-1 $39 $91 $40 $69 forward $20 $-1 #
coedge $-1 $42 $57 $39 $67 forward $32 $-1 #
edge $-1 $93 0 $70 1 $39 $94 forward 7 unknown #
coedge $-1 $41 $40 $95 $96 forward $12 $-1 #
edge $-1 $97 0 $70 1 $40 $98 forward 7 unknown #
vertex $-1 $43 $99 #
intcurve-curve $-1 forward { exactcur full nubs 1 open 2 
	0 1 1 1 
	-361.9999999863110816 22.69289001325572741 -41.51174827054364158 
	-361.9999999828876298 28.36736077151130786 -38.65978141466430174 
	0 
	null_surface 
	null_surface 
	nullbs 
	nullbs 
	I I 
	0 
	0 
	0 
	F 1 F 0 } I I #
coedge $-1 $95 $48 $44 $73 reversed $78 $-1 #
edge $-1 $74 0 $50 1 $44 $100 forward 7 unknown #
vertex $-1 $73 $101 #
intcurve-curve $-1 forward { exactcur full nubs 1 open 2 
	0 1 1 1 
	-355.9999999828876298 28.36736076789144789 -38.6597814146642591 
	-361.9999999828876298 28.36736077151130786 -38.65978141466430174 
	0 
	null_surface 
	null_surface 
	nullbs 
	nullbs 
	I I 
	0 
	0 
	0 
	F 1 F 0 } I I #
point $-1 -361.9999999828876298 28.36736077151130786 -38.65978141466430174 #
coedge $-1 $48 $102 $52 $82 reversed $78 $-1 #
loop $-1 $-1 $77 $103 #
intcurve-curve $-1 forward { exactcur full nubs 1 open 2 
	0 1 1 1 
	-355.9999999796857537 33.67447189496210314 -42.14803381640601998 
	-355.9999999799073862 33.30711226377703582 -48.48825307402707807 
	0 
	null_surface 
	null_surface 
	nullbs 
	nullbs 
	I I 
	0 
	0 
	0 
	F 1 F 0 } I I #
point $-1 -355.9999999796857537 33.67447189496210314 -42.14803381640601998 #
coedge $-1 $53 $52 $89 $104 reversed $54 $-1 #
edge $-1 $55 0 $105 1 $52 $106 forward 7 unknown #
point $-1 -355.9999999799073862 33.30711226377703582 -48.48825307402707807 #
edge $-1 $93 0 $85 1 $63 $107 forward 7 unknown #
vertex $-1 $84 $108 #
intcurve-curve $-1 forward { exactcur full nubs 1 open 2 
	0 1 1 1 
	-361.9999999799073862 33.30711226739692421 -48.48825307402710649 
	-361.9999999833307811 27.63264150914130113 -51.3402199299065316 
	0 
	null_surface 
	null_surface 
	nullbs 
	nullbs 
	I I 
	0 
	0 
	0 
	F 1 F 0 } I I #
face $-1 $109 $110 $2 $-1 $111 forward single #
plane-surface $-1 -358.9999999816191121 30.46987688645916847 -49.91423650196681194 2.70932705926819344e-10 0.4490683178077877757 -0.8934974235784252095 -1 0 -3.032271820569370496e-10 forward_v I I I I #
coedge $-1 $112 $63 $81 $104 forward $37 $-1 #
coedge $-1 $63 $112 $64 $92 forward $37 $-1 #
coedge $-1 $65 $64 $113 $114 forward $20 $-1 #
edge $-1 $115 0 $93 1 $64 $116 forward 7 unknown #
vertex $-1 $67 $117 #
intcurve-curve $-1 forward { exactcur full nubs 1 open 2 
	0 1 1 1 
	-361.999999986532714 22.3255303820706601 -47.85196752816481336 
	-361.9999999863110816 22.69289001325572741 -41.51174827054364158 
	0 
	null_surface 
	null_surface 
	nullbs 
	nullbs 
	I I 
	0 
	0 
	0 
	F 1 F 0 } I I #
coedge $-1 $113 $72 $68 $96 reversed $78 $-1 #
edge $-1 $97 0 $74 1 $68 $118 forward 7 unknown #
vertex $-1 $96 $119 #
intcurve-curve $-1 forward { exactcur full nubs 1 open 2 
	0 1 1 1 
	-355.9999999863110816 22.69289000963583902 -41.51174827054361316 
	-361.9999999863110816 22.69289001325572741 -41.51174827054364158 
	0 
	null_surface 
	null_surface 
	nullbs 
	nullbs 
	I I 
	0 
	0 
	0 
	F 1 F 0 } I I #
point $-1 -361.9999999863110816 22.69289001325572741 -41.51174827054364158 #
intcurve-curve $-1 forward { exactcur full nubs 1 open 2 
	0 1 1 1 
	-355.9999999828876298 28.36736076789144789 -38.6597814146642591 
	-355.9999999796857537 33.67447189496210314 -42.14803381640601998 
	0 
	null_surface 
	null_surface 
	nullbs 
	nullbs 
	I I 
	0 
	0 
	0 
	F 1 F 0 } I I #
point $-1 -355.9999999828876298 28.36736076789144789 -38.6597814146642591 #
coedge $-1 $77 $113 $112 $120 reversed $78 $-1 #
face $-1 $-1 $121 $2 $-1 $122 forward single #
edge $-1 $85 0 $105 1 $89 $123 forward 7 unknown #
vertex $-1 $120 $124 #
intcurve-curve $-1 forward { exactcur full nubs 1 open 2 
	0 1 1 1 
	-355.9999999799073862 33.30711226377703582 -48.48825307402707807 
	-355.9999999833307811 27.63264150552141274 -51.34021992990651739 
	0 
	null_surface 
	null_surface 
	nullbs 
	nullbs 
	I I 
	0 
	0 
	0 
	F 1 F 0 } I I #
intcurve-curve $-1 forward { exactcur full nubs 1 open 2 
	0 1 1 1 
	-361.999999986532714 22.3255303820706601 -47.85196752816481336 
	-361.9999999833307811 27.63264150914130113 -51.3402199299065316 
	0 
	null_surface 
	null_surface 
	nullbs 
	nullbs 
	I I 
	0 
	0 
	0 
	F 1 F 0 } I I #
point $-1 -361.9999999833307811 27.63264150914130113 -51.3402199299065316 #
face $-1 $125 $126 $2 $-1 $127 forward single #
loop $-1 $-1 $128 $87 #
plane-surface $-1 -280.9999999831092055 28.00000004003083376 -45.00000089858729524 1 -6.03313632757187573e-10 3.551033804326060198e-16 3.551033804326060198e-16 0 -1 forward_v I I I I #
coedge $-1 $90 $89 $102 $120 forward $37 $-1 #
coedge $-1 $102 $95 $91 $114 reversed $78 $-1 #
edge $-1 $115 0 $97 1 $91 $129 forward 7 unknown #
vertex $-1 $114 $130 #
intcurve-curve $-1 forward { exactcur full nubs 1 open 2 
	0 1 1 1 
	-355.999999986532714 22.3255303784507575 -47.85196752816478494 
	-361.999999986532714 22.3255303820706601 -47.85196752816481336 
	0 
	null_surface 
	null_surface 
	nullbs 
	nullbs 
	I I 
	0 
	0 
	0 
	F 1 F 0 } I I #
point $-1 -361.999999986532714 22.3255303820706601 -47.85196752816481336 #
intcurve-curve $-1 forward { exactcur full nubs 1 open 2 
	0 1 1 1 
	-355.9999999863110816 22.69289000963583902 -41.51174827054361316 
	-355.9999999828876298 28.36736076789144789 -38.6597814146642591 
	0 
	null_surface 
	null_surface 
	nullbs 
	nullbs 
	I I 
	0 
	0 
	0 
	F 1 F 0 } I I #
point $-1 -355.9999999863110816 22.69289000963583902 -41.51174827054361316 #
edge $-1 $105 0 $115 1 $112 $131 forward 7 unknown #
loop $-1 $78 $132 $103 #
plane-surface $-1 -355.9999999831092055 27.99999977383882666 -45.00000049385479883 -1 6.033115793343825109e-10 -5.663987139139361118e-15 -5.663987139139361118e-15 0 1 forward_v I I I I #
intcurve-curve $-1 forward { exactcur full nubs 1 open 2 
	0 1 1 1 
	-361.9999999833307811 27.63264150914130113 -51.3402199299065316 
	-355.9999999833307811 27.63264150552141274 -51.34021992990651739 
	0 
	null_surface 
	null_surface 
	nullbs 
	nullbs 
	I I 
	0 
	0 
	0 
	F 1 F 0 } I I #
point $-1 -355.9999999833307811 27.63264150552141274 -51.34021992990651739 #
face $-1 $133 $134 $2 $-1 $135 forward single #
loop $-1 $-1 $136 $109 #
cone-surface $-1 -339.3999999834418304 27.99999976382381561 -45.0000004938547562 1 -6.033137453600307676e-10 4.165327750081510426e-15 2.265664988954085857e-09 3.755355715077911327 -1.377426387590880097 1 I I 0 1 3.999999999999998668 forward I I I I #
coedge $-1 $128 $128 $137 $138 reversed $110 $-1 #
intcurve-curve $-1 forward { exactcur full nubs 1 open 2 
	0 1 1 1 
	-355.999999986532714 22.3255303784507575 -47.85196752816478494 
	-355.9999999863110816 22.69289000963583902 -41.51174827054361316 
	0 
	null_surface 
	null_surface 
	nullbs 
	nullbs 
	I I 
	0 
	0 
	0 
	F 1 F 0 } I I #
point $-1 -355.999999986532714 22.3255303784507575 -47.85196752816478494 #
intcurve-curve $-1 forward { exactcur full nubs 1 open 2 
	0 1 1 1 
	-355.9999999833307811 27.63264150552141274 -51.34021992990651739 
	-355.999999986532714 22.3255303784507575 -47.85196752816478494 
	0 
	null_surface 
	null_surface 
	nullbs 
	nullbs 
	I I 
	0 
	0 
	0 
	F 1 F 0 } I I #
coedge $-1 $132 $132 $139 $140 reversed $121 $-1 #
face $-1 $103 $141 $2 $-1 $142 forward single #
loop $-1 $143 $144 $125 #
plane-surface $-1 -353.9999999831092055 27.99999977263219009 -45.00000049385479173 1 -6.033155644707795984e-10 2.09897350497712306e-15 2.09897350497712306e-15 0 -1 forward_v I I I I #
coedge $-1 $145 $146 $147 $148 forward $126 $-1 #
coedge $-1 $146 $145 $128 $138 forward $126 $-1 #
edge $-1 $149 0 $149 1 $128 $150 forward 7 unknown #
coedge $-1 $151 $152 $132 $140 forward $141 $-1 #
edge $-1 $153 0 $153 1 $139 $154 forward 7 unknown #
loop $-1 $-1 $139 $133 #
cone-surface $-1 -355.599999983109285 27.99999977359749792 -45.00000049385480594 1 -6.03310097359137478e-10 3.765164752144256234e-15 4.248079221724765375e-09 7.041291965771083738 -2.58267447673294015 1 I I 0 1 7.500000000000012434 forward I I I I #
loop $-1 $-1 $147 $125 #
coedge $-1 $144 $144 $155 $156 reversed $134 $-1 #
coedge $-1 $137 $136 $146 $157 reversed $126 $-1 #
coedge $-1 $136 $137 $145 $157 forward $126 $-1 #
coedge $-1 $147 $147 $136 $148 reversed $143 $-1 #
edge $-1 $158 0 $158 1 $136 $159 forward 7 unknown #
vertex $-1 $138 $160 #
intcurve-curve $-1 forward { exactcur full nurbs 2 periodic 4 
	0 2 0.3333333333333329818 2 0.6666666666666669627 2 1 2 
	-280.9999999832486992 27.76862316645854634 -48.99330299760952556 1 
	-280.9999999874215746 20.85202033996282722 -48.59254703631670935 0.5 
	-280.9999999851257826 24.65738659640833674 -42.80297126133060459 1 
	-280.9999999828299906 28.46275285285377521 -37.0133954863444572 0.5 
	-280.9999999809529072 31.57398942290399901 -43.20372722262337817 1 
	-280.9999999790758807 34.68522599295426545 -49.39405895890233467 0.5 
	-280.9999999832486992 27.76862316645854634 -48.99330299760952556 1 
	0 
	null_surface 
	null_surface 
	nullbs 
	nullbs 
	I I 
	0 
	0 
	0 
	F 1 F 0 } I I #
coedge $-1 $155 $139 $152 $161 reversed $141 $-1 #
coedge $-1 $139 $155 $151 $161 forward $141 $-1 #
vertex $-1 $140 $162 #
intcurve-curve $-1 forward { exactcur full nurbs 2 periodic 4 
	0 2 0.3333333333333329818 2 0.6666666666666669627 2 1 2 
	-355.9999999833709126 27.56616871984181927 -52.48744268839546834 1 
	-355.999999975546757 40.53479901952119491 -53.23886011581947031 0.5 
	-355.999999979066331 34.70123045067706613 -41.63198811029648283 1 
	-355.9999999825857913 28.8676618818328663 -30.02511610477348114 0.5 
	-355.9999999868904297 21.73260015099759102 -40.88057068287245244 1 
	-355.9999999911951249 14.59753842016238856 -51.73602526097144505 0.5 
	-355.9999999833709126 27.56616871984181927 -52.48744268839546834 1 
	0 
	null_surface 
	null_surface 
	nullbs 
	nullbs 
	I I 
	0 
	0 
	0 
	F 1 F 0 } I I #
coedge $-1 $152 $151 $144 $156 forward $141 $-1 #
edge $-1 $163 0 $163 1 $144 $164 forward 7 unknown #
edge $-1 $149 0 $158 0.9733333333333330506 $146 $165 forward 7 unknown #
vertex $-1 $148 $166 #
intcurve-curve $-1 forward { exactcur full nurbs 2 periodic 4 
	0 2 0.3333333333333329818 2 0.6666666666666669627 2 1 2 
	-353.9999999832487561 27.768623210500472 -48.99330299760982399 1 
	-353.9999999790759375 34.68522603699624796 -49.3940589589026402 0.5 
	-353.9999999809530209 31.57398946694600994 -43.20372722262363396 1 
	-353.9999999828301043 28.46275289689572929 -37.01339548634462773 0.5 
	-353.9999999851258394 24.65738664045026241 -42.80297126133083196 1 
	-353.9999999874216883 20.85202038400466762 -48.59254703631697936 0.5 
	-353.9999999832487561 27.768623210500472 -48.99330299760982399 1 
	0 
	null_surface 
	null_surface 
	nullbs 
	nullbs 
	I I 
	0 
	0 
	0 
	F 1 F 0 } I I #
point $-1 -280.9999999832486992 27.76862316645854634 -48.99330299760952556 #
edge $-1 $163 0 $153 1 $152 $167 forward 7 unknown #
point $-1 -355.9999999833709126 27.56616871984181927 -52.48744268839546834 #
vertex $-1 $156 $168 #
intcurve-curve $-1 forward { exactcur full nurbs 2 periodic 4 
	0 2 0.3333333333333329818 2 0.6666666666666669627 2 1 2 
	-353.9999999833709126 27.5661687186351898 -52.48744268839546834 1 
	-353.9999999911950681 14.59753841895577153 -51.73602526097143794 0.5 
	-353.9999999868904297 21.73260014979097576 -40.88057068287245244 1 
	-353.9999999825857913 28.86766188062626526 -30.02511610477348114 0.5 
	-353.999999979066331 34.70123044947043667 -41.63198811029646862 1 
	-353.999999975546757 40.53479901831459387 -53.23886011581947031 0.5 
	-353.9999999833709126 27.5661687186351898 -52.48744268839546834 1 
	0 
	null_surface 
	null_surface 
	nullbs 
	nullbs 
	I I 
	0 
	0 
	0 
	F 1 F 0 } I I #
intcurve-curve $-1 forward { exactcur full nubs 1 open 2 
	0 1 0.9733333333333330506 1 
	-280.9999999832486992 27.76862316645854634 -48.99330299760952556 
	-353.9999999832488129 27.768623210500472 -48.99330299760982399 
	0 
	null_surface 
	null_surface 
	nullbs 
	nullbs 
	I I 
	0 
	0 
	0 
	F 1 F 0 } I I #
point $-1 -353.9999999832487561 27.768623210500472 -48.99330299760982399 #
intcurve-curve $-1 forward { exactcur full nubs 1 open 2 
	0 1 1 1 
	-353.9999999833709126 27.5661687186351898 -52.48744268839546834 
	-355.9999999833709126 27.56616871984181927 -52.48744268839546834 
	0 
	null_surface 
	null_surface 
	nullbs 
	nullbs 
	I I 
	0 
	0 
	0 
	F 1 F 0 } I I #
point $-1 -353.9999999833709126 27.5661687186351898 -52.48744268839546834 #
End-of-ACIS-data 