600 0 1 0           
81 GICL ACIS Healer - Source: /gicl/data5/repository/SDRC_I-DEAS/bmw/Part3.sat - 6 0 18 ACIS 6.0.3 Solaris 24 Sat Apr 13 23:15:45 2002 
1 9.999999999999999547e-07 1.000000000000000036e-10 
body $-1 $1 $-1 $-1 #
lump $-1 $-1 $2 $0 #
shell $-1 $-1 $-1 $3 $-1 $1 #
face $-1 $4 $5 $2 $-1 $6 forward single #
face $-1 $7 $8 $2 $-1 $9 forward single #
loop $-1 $-1 $10 $3 #
plane-surface $-1 65.00000027232799482 53.0329554377479937 -33.03300677212362757 -1 5.031412622801415255e-09 1.553532544610519708e-09 1.553532544610519708e-09 -0 1 forward_v I I I I #
face $-1 $-1 $11 $2 $-1 $12 forward single #
loop $-1 $-1 $13 $4 #
plane-surface $-1 295.0000002723279522 53.03295428052310712 -33.03300712943632078 1 -5.031415705847503384e-09 -1.553533308750899549e-09 -1.553533308750899549e-09 0 -1 forward_v I I I I #
coedge $-1 $10 $10 $14 $15 reversed $5 $-1 #
loop $-1 $-1 $14 $7 #
cone-surface $-1 111.0000002723280232 53.03295520630300786 -33.03300684358615058 1 -5.031412550361773733e-09 -1.553533448743663583e-09 3.359713218742399476e-08 5.729889670112569888 3.068935380280496616 1 I I 0 1 6.50000000000000977 forward I I I I #
coedge $-1 $13 $13 $16 $17 reversed $8 $-1 #
coedge $-1 $18 $19 $10 $15 forward $11 $-1 #
edge $-1 $20 0 $20 1 $10 $21 forward 7 unknown #
coedge $-1 $19 $18 $13 $17 forward $11 $-1 #
edge $-1 $22 0 $22 1 $13 $23 forward 7 unknown #
coedge $-1 $16 $14 $19 $24 reversed $11 $-1 #
coedge $-1 $14 $16 $18 $24 forward $11 $-1 #
vertex $-1 $15 $25 #
intcurve-curve $-1 forward { exactcur full nurbs 2 periodic 4 
	0 2 0.3333333333333329818 2 0.6666666666666669627 2 1 2 
	65.0000002883130179 57.62914960750747184 -37.62920075778924911 1 
	65.00000034073472932 65.58999111212285982 -29.66835893431398574 0.5 
	65.0000002905463532 54.71527910517596638 -26.7544888675531638 1 
	65.00000024035799129 43.84056709822904452 -23.84061880079233475 0.5 
	65.00000023812464178 46.75443760056054998 -34.71533069102844138 1 
	65.00000023589130649 49.66830810289209808 -45.59004258126451248 0.5 
	65.0000002883130179 57.62914960750747184 -37.62920075778924911 1 
	0 
	null_surface 
	null_surface 
	nullbs 
	nullbs 
	I I 
	0 
	0 
	0 
	F 1 F 0 } I I #
vertex $-1 $17 $26 #
intcurve-curve $-1 forward { exactcur full nurbs 2 periodic 4 
	0 2 0.3333333333333329818 2 0.6666666666666669627 2 1 2 
	295.0000002883130037 57.62914845028258526 -37.62920111510194232 1 
	295.0000002358913207 49.66830694566721149 -45.59004293857720569 0.5 
	295.0000002381245849 46.7544364433356634 -34.71533104834113459 1 
	295.0000002403580197 43.84056594100415793 -23.84061915810502796 0.5 
	295.0000002905463248 54.7152779479510798 -26.75448922486585701 1 
	295.0000003407347435 65.58998995489797323 -29.66835929162667895 0.5 
	295.0000002883130037 57.62914845028258526 -37.62920111510194232 1 
	0 
	null_surface 
	null_surface 
	nullbs 
	nullbs 
	I I 
	0 
	0 
	0 
	F 1 F 0 } I I #
edge $-1 $22 0 $20 1 $19 $27 forward 7 unknown #
point $-1 65.0000002883130179 57.62914960750747184 -37.62920075778924911 #
point $-1 295.0000002883130037 57.62914845028258526 -37.62920111510194232 #
intcurve-curve $-1 forward { exactcur full nubs 1 open 2 
	0 1 1 1 
	295.0000002883130037 57.62914845028258526 -37.62920111510194232 
	65.0000002883130179 57.62914960750747184 -37.62920075778924911 
	0 
	null_surface 
	null_surface 
	nullbs 
	nullbs 
	I I 
	0 
	0 
	0 
	F 1 F 0 } I I #
End-of-ACIS-data 