600 0 1 0           
81 GICL ACIS Healer - Source: /gicl/data5/repository/SDRC_I-DEAS/bmw/Part4.sat - 6 0 18 ACIS 6.0.3 Solaris 24 Sat Apr 13 23:16:00 2002 
1 9.999999999999999547e-07 1.000000000000000036e-10 
body $-1 $1 $-1 $-1 #
lump $-1 $-1 $2 $0 #
shell $-1 $-1 $-1 $3 $-1 $1 #
face $-1 $4 $5 $2 $-1 $6 forward single #
face $-1 $7 $8 $2 $-1 $9 forward single #
loop $-1 $-1 $10 $3 #
plane-surface $-1 65.00000043710510056 53.03295331358834375 73.0330090887695178 -1 5.031412651644179993e-09 1.553533932951598224e-09 1.553533932951598224e-09 -0 1 forward_v I I I I #
face $-1 $-1 $11 $2 $-1 $12 forward single #
loop $-1 $-1 $13 $4 #
plane-surface $-1 295.0000004371050863 53.03295215636345716 73.0330087314568317 1 -5.031409568598059605e-09 -1.553534697091852955e-09 -1.553534697091852955e-09 0 -1 forward_v I I I I #
coedge $-1 $10 $10 $14 $15 reversed $5 $-1 #
loop $-1 $-1 $14 $7 #
cone-surface $-1 111.0000004371051148 53.03295308214342185 73.03300901730693795 1 -5.031412550361773733e-09 -1.553533417850500708e-09 -6.539508490277512465e-09 -3.068935380280507275 5.729889670112555677 1 I I 0 1 6.500000000000002665 forward I I I I #
coedge $-1 $13 $13 $16 $17 reversed $8 $-1 #
coedge $-1 $18 $19 $10 $15 forward $11 $-1 #
edge $-1 $20 0 $20 1 $10 $21 forward 7 unknown #
coedge $-1 $19 $18 $13 $17 forward $11 $-1 #
edge $-1 $22 0 $22 1 $13 $23 forward 7 unknown #
coedge $-1 $16 $14 $19 $24 reversed $11 $-1 #
coedge $-1 $14 $16 $18 $24 forward $11 $-1 #
vertex $-1 $15 $25 #
intcurve-curve $-1 forward { exactcur full nurbs 2 periodic 4 
	0 2 0.3333333333333329818 2 0.6666666666666669627 2 1 2 
	65.00000046737078208 57.6291472992539866 77.62920325852898884 1 
	65.00000043968394436 49.66830547577870902 85.59004476314437682 0.5 
	65.00000040812882673 46.7544354090179155 74.71533275619745496 1 
	65.00000037657372332 43.84056534225707935 63.84062074925056152 0.5 
	65.00000043581567866 54.71527723249315045 66.75449125158208119 1 
	65.000000495057634 65.58998912272924997 69.66836175391360086 0.5 
	65.00000046737078208 57.6291472992539866 77.62920325852898884 1 
	0 
	null_surface 
	null_surface 
	nullbs 
	nullbs 
	I I 
	0 
	0 
	0 
	F 1 F 0 } I I #
vertex $-1 $17 $26 #
intcurve-curve $-1 forward { exactcur full nurbs 2 periodic 4 
	0 2 0.3333333333333329818 2 0.6666666666666669627 2 1 2 
	295.0000004673707963 57.62914614202910002 77.62920290121630273 1 
	295.000000495057634 65.58998796550434918 69.66836139660091476 0.5 
	295.0000004358156502 54.71527607526826387 66.75449089426939508 1 
	295.0000003765737802 43.84056418503219277 63.84062039193787541 0.5 
	295.0000004081288125 46.75443425179302892 74.71533239888476885 1 
	295.0000004396839586 49.66830431855381534 85.59004440583169071 0.5 
	295.0000004673707963 57.62914614202910002 77.62920290121630273 1 
	0 
	null_surface 
	null_surface 
	nullbs 
	nullbs 
	I I 
	0 
	0 
	0 
	F 1 F 0 } I I #
edge $-1 $22 0 $20 1 $19 $27 forward 7 unknown #
point $-1 65.00000046737078208 57.6291472992539866 77.62920325852898884 #
point $-1 295.0000004673707963 57.62914614202910002 77.62920290121630273 #
intcurve-curve $-1 forward { exactcur full nubs 1 open 2 
	0 1 1 1 
	295.0000004673707963 57.62914614202910002 77.62920290121630273 
	65.00000046737078208 57.6291472992539866 77.62920325852898884 
	0 
	null_surface 
	null_surface 
	nullbs 
	nullbs 
	I I 
	0 
	0 
	0 
	F 1 F 0 } I I #
End-of-ACIS-data 