600 0 1 0           
82 GICL ACIS Healer - Source: /gicl/data5/repository/SDRC_I-DEAS/bmw/Part24.sat - 6 0 18 ACIS 6.0.3 Solaris 24 Sat Apr 13 23:15:37 2002 
1 9.999999999999999547e-07 1.000000000000000036e-10 
body $-1 $1 $-1 $-1 #
lump $-1 $-1 $2 $0 #
shell $-1 $-1 $-1 $3 $-1 $1 #
face $-1 $4 $5 $2 $-1 $6 reversed single #
face $-1 $7 $8 $2 $-1 $9 reversed single #
loop $-1 $-1 $10 $3 #
plane-surface $-1 -329.4263778948560457 -7.503435502435461757 64.00535829472686089 0.3386289274238035163 0.5983105642653910872 0.7261920670182467896 0.9063077845118377995 0 -0.4226182671551765302 forward_v I I I I #
face $-1 $11 $12 $2 $-1 $13 reversed single #
loop $-1 $-1 $14 $4 #
cone-surface $-1 -330.7808936097393371 -9.896677731329475591 61.10059000586584688 0.3386289274238074576 0.5983105642653984146 0.726192067018238796 0.8335181445354464813 -0.285172422150413496 -0.1537219800829419114 1 I I 0 1 0.8942629673566760973 forward I I I I #
coedge $-1 $10 $10 $15 $16 forward $5 $-1 #
face $-1 $17 $18 $2 $-1 $19 reversed single #
loop $-1 $-1 $20 $7 #
plane-surface $-1 -333.2378252294147387 13.19029112499020329 48.73307781125463833 0.3386289274238226121 0.5983105642653979706 0.7261920670182321347 0.9063077845118254761 0 -0.4226182671552031755 forward_v I I I I #
coedge $-1 $21 $22 $23 $24 reversed $8 $-1 #
coedge $-1 $22 $21 $10 $16 reversed $8 $-1 #
edge $-1 $25 0 $25 1 $10 $26 forward 7 unknown #
face $-1 $27 $28 $2 $-1 $29 forward single #
loop $-1 $-1 $30 $11 #
cone-surface $-1 -334.5923409880219879 10.79704884514256236 45.82830958476315431 0.3386289274238012958 0.5983105642654006351 0.7261920670182399062 0.1095831732682768234 0.6257522397203540976 -0.566657536971725051 1 I I 0 1 0.8512785099986059922 forward I I I I #
coedge $-1 $20 $20 $31 $32 forward $12 $-1 #
coedge $-1 $15 $14 $22 $33 forward $8 $-1 #
coedge $-1 $14 $15 $21 $33 reversed $8 $-1 #
coedge $-1 $23 $23 $14 $24 forward $34 $-1 #
edge $-1 $35 0 $35 1 $14 $36 forward 7 unknown #
vertex $-1 $16 $37 #
intcurve-curve $-1 forward { exactcur full nurbs 2 periodic 4 
	0 2 0.3333333333333329818 2 0.6666666666666669627 2 1 2 
	-329.2952841984122756 -8.215190602496406314 64.53064422808019174 1 
	-330.7348869971928593 -8.071988429582031443 65.0839575965899968 0.5 
	-330.2117261502502288 -7.075956823696479603 64.01937198112298688 1 
	-329.6885653033075982 -6.079925217810888682 62.95478636565594854 0.5 
	-328.7721233514695882 -7.219158996610829604 63.46605861261313919 1 
	-327.855681399631635 -8.358392775410761644 63.97733085957035115 0.5 
	-329.2952841984122756 -8.215190602496406314 64.53064422808019174 1 
	0 
	null_surface 
	null_surface 
	nullbs 
	nullbs 
	I I 
	0 
	0 
	0 
	F 1 F 0 } I I #
face $-1 $38 $39 $2 $-1 $40 forward single #
loop $-1 $41 $42 $17 #
plane-surface $-1 -334.9309705008711262 10.19874145936289977 45.10211517197481612 -0.3386289274238091229 -0.5983105642654048539 -0.7261920670182329118 -0.9063077845118320264 0 0.4226182671551889092 forward_v I I I I #
coedge $-1 $43 $44 $45 $46 reversed $18 $-1 #
coedge $-1 $44 $43 $20 $32 reversed $18 $-1 #
edge $-1 $47 0 $47 1 $20 $48 forward 7 unknown #
edge $-1 $35 0 $25 1 $22 $49 forward 7 unknown #
loop $-1 $-1 $23 $38 #
vertex $-1 $24 $50 #
intcurve-curve $-1 forward { exactcur full nurbs 2 periodic 4 
	0 2 0.3333333333333329818 2 0.6666666666666669627 2 1 2 
	-330.9884288355312378 -11.20674342382339006 60.8996838929890032 1 
	-329.5488260367506541 -11.34994559673775427 60.34637052447916972 0.5 
	-330.4652679885886641 -10.21071181793782046 59.83509827752195775 1 
	-331.3817099404266742 -9.071478039137858218 59.32382603056476 0.5 
	-331.9048707873693047 -10.06750964502345624 60.38841164603179834 1 
	-332.4280316343119352 -11.06354125090902585 61.45299726149881536 0.5 
	-330.9884288355312378 -11.20674342382339006 60.8996838929890032 1 
	0 
	null_surface 
	null_surface 
	nullbs 
	nullbs 
	I I 
	0 
	0 
	0 
	F 1 F 0 } I I #
point $-1 -329.2952841984122756 -8.215190602496406314 64.53064422808019174 #
face $-1 $-1 $51 $2 $-1 $52 forward single #
loop $-1 $-1 $53 $27 #
torus-surface $-1 -333.0252462263043185 -0.1481250073587148108 52.73825772829634673 -0.9294302612787636031 0.09245358032105112367 0.3572278333292471242 12.99999999999985612 2.000000000000065725 -0.3386289274238080127 -0.5983105642653978595 -0.7261920670182391291 forward_v I I I I #
loop $-1 $-1 $45 $17 #
coedge $-1 $42 $42 $53 $54 reversed $28 $-1 #
coedge $-1 $31 $30 $44 $55 forward $18 $-1 #
coedge $-1 $30 $31 $43 $55 reversed $18 $-1 #
coedge $-1 $45 $45 $30 $46 forward $41 $-1 #
edge $-1 $56 0 $56 1 $30 $57 forward 7 unknown #
vertex $-1 $32 $58 #
intcurve-curve $-1 forward { exactcur full nurbs 2 periodic 4 
	0 2 0.3333333333333329818 2 0.6666666666666669627 2 1 2 
	-332.4466212703577526 13.1115873561044296 48.42897747514956563 1 
	-332.2304744368594243 11.93804800770106489 49.29506710611972409 0.5 
	-333.5253538655621242 12.64287330105236862 49.31817285716448396 1 
	-334.8202332942647672 13.34769859440361728 49.34127860820922251 0.5 
	-333.7415006990603956 13.81641264945570668 48.45208322619431129 1 
	-332.662768103856024 14.28512670450778543 47.56288784417939297 0.5 
	-332.4466212703577526 13.1115873561044296 48.42897747514956563 1 
	0 
	null_surface 
	null_surface 
	nullbs 
	nullbs 
	I I 
	0 
	0 
	0 
	F 1 F 0 } I I #
intcurve-curve $-1 forward { exactcur full nubs 1 open 2 
	0 1 1 1 
	-330.9884288355312378 -11.20674342382339006 60.8996838929890032 
	-329.2952841984122756 -8.215190602496406314 64.53064422808019174 
	0 
	null_surface 
	null_surface 
	nullbs 
	nullbs 
	I I 
	0 
	0 
	0 
	F 1 F 0 } I I #
point $-1 -330.9884288355312378 -11.20674342382339006 60.8996838929890032 #
loop $-1 $34 $59 $38 #
plane-surface $-1 -331.119521951737795 -10.4949914740806296 60.3744002846177068 -0.3386289274238031277 -0.5983105642654040768 -0.7261920670182361315 -0.9063077845118355791 0 0.4226182671551811931 forward_v I I I I #
coedge $-1 $60 $61 $42 $54 forward $39 $-1 #
edge $-1 $62 0 $62 1 $42 $63 forward 7 unknown #
edge $-1 $56 0 $47 1 $44 $64 forward 7 unknown #
vertex $-1 $46 $65 #
intcurve-curve $-1 forward { exactcur full nurbs 2 periodic 4 
	0 2 0.3333333333333329818 2 0.6666666666666669627 2 1 2 
	-334.1397659074767148 10.12003453477741033 44.79801714005837709 1 
	-334.3559127409750431 11.29357388318079103 43.93192750908819733 0.5 
	-335.4346453361794147 10.82485982812871583 44.82112289110311565 1 
	-336.5133779313837294 10.35614577307664064 45.71031827311802687 0.5 
	-335.2184985026811432 9.651320479725377766 45.68721252207328121 1 
	-333.9236190739785002 8.946495186374058051 45.66410677102853555 0.5 
	-334.1397659074767148 10.12003453477741033 44.79801714005837709 1 
	0 
	null_surface 
	null_surface 
	nullbs 
	nullbs 
	I I 
	0 
	0 
	0 
	F 1 F 0 } I I #
point $-1 -332.4466212703577526 13.1115873561044296 48.42897747514956563 #
coedge $-1 $59 $59 $66 $67 reversed $51 $-1 #
coedge $-1 $66 $53 $61 $68 reversed $39 $-1 #
coedge $-1 $53 $66 $60 $68 forward $39 $-1 #
vertex $-1 $68 $69 #
intcurve-curve $-1 forward { exactcur full nurbs 2 periodic 4 
	0 2 0.3333333333333329818 2 0.6666666666666669627 2 1 2 
	-333.072109392888251 10.01383112023507493 44.38766185108643469 1 
	-333.5799263551621152 12.77095310703411002 42.35286449441031209 0.5 
	-336.1143086578614998 11.66975285459776757 44.44194667273612254 1 
	-338.6486909605608275 10.56855260216138248 46.53102885106191877 0.5 
	-335.6064916955875788 8.912630867798675638 46.47674402941223093 1 
	-332.56429243061433 7.256709133435983006 46.42245920776251467 0.5 
	-333.072109392888251 10.01383112023507493 44.38766185108643469 1 
	0 
	null_surface 
	null_surface 
	nullbs 
	nullbs 
	I I 
	0 
	0 
	0 
	F 1 F 0 } I I #
intcurve-curve $-1 forward { exactcur full nubs 1 open 2 
	0 1 1 1 
	-334.1397659074767148 10.12003453477741033 44.79801714005837709 
	-332.4466212703577526 13.1115873561044296 48.42897747514956563 
	0 
	null_surface 
	null_surface 
	nullbs 
	nullbs 
	I I 
	0 
	0 
	0 
	F 1 F 0 } I I #
point $-1 -334.1397659074767148 10.12003453477741033 44.79801714005837709 #
coedge $-1 $61 $60 $59 $67 forward $39 $-1 #
edge $-1 $70 0 $70 1 $66 $71 forward 7 unknown #
edge $-1 $70 0 $62 2.501851166488375799 $61 $72 forward 7 unknown #
point $-1 -333.072109392888251 10.01383112023507493 44.38766185108643469 #
vertex $-1 $67 $73 #
intcurve-curve $-1 forward { exactcur full nurbs 2 periodic 4 
	0 2 0.3333333333333329818 2 0.6666666666666669627 2 1 2 
	-329.2606620146056002 -10.67989545623699144 59.65994227218910595 1 
	-329.7684789768793507 -7.922773469437927929 57.62514491551299045 0.5 
	-332.302861279578849 -9.023973721874327225 59.71422709383878669 1 
	-334.8372435822780631 -10.12517397431071231 61.80330927216457582 0.5 
	-331.795044317304928 -11.78109570867336231 61.74902445051488087 1 
	-328.7528450523315655 -13.43701744303608336 61.69473962886518592 0.5 
	-329.2606620146056002 -10.67989545623699144 59.65994227218910595 1 
	0 
	null_surface 
	null_surface 
	nullbs 
	nullbs 
	I I 
	0 
	0 
	0 
	F 1 F 0 } I I #
intcurve-curve $-1 forward { exactcur full nurbs 2 open 3 
	0 2 1.2509255832441879 2 2.501851166488375799 2 
	-329.2606620146056002 -10.67989545623699144 59.65994227218910595 1 
	-324.8584859580959119 -2.901858120786825701 69.10043914342618621 0.7071067811865470176 
	-326.764209647237351 7.445005167449217254 61.46429893287486124 1 
	-328.6699333363786764 17.79186845568525754 53.82815872232352206 0.7071067811865470176 
	-333.072109392888251 10.01383112023507493 44.38766185108643469 1 
	0 
	null_surface 
	null_surface 
	nullbs 
	nullbs 
	I I 
	0 
	0 
	0 
	F 1 F 0 } I I #
point $-1 -329.2606620146056002 -10.67989545623699144 59.65994227218910595 #
End-of-ACIS-data 