600 0 1 0           
82 GICL ACIS Healer - Source: /gicl/data5/repository/SDRC_I-DEAS/bmw/Part32.sat - 6 0 18 ACIS 6.0.3 Solaris 24 Sat Apr 13 23:15:49 2002 
1 9.999999999999999547e-07 1.000000000000000036e-10 
body $-1 $1 $-1 $-1 #
lump $-1 $-1 $2 $0 #
shell $-1 $-1 $-1 $3 $-1 $1 #
face $-1 $4 $5 $2 $-1 $6 reversed single #
face $-1 $7 $8 $2 $-1 $9 reversed single #
loop $-1 $-1 $10 $3 #
plane-surface $-1 -314.8773110483679147 7.323691942533521626 -97.34670748440169064 0.3347038706432361455 -0.6105511586102682076 -0.7177747569370873659 -0.9063077847862658354 0 -0.4226182665666636806 forward_v I I I I #
face $-1 $11 $12 $2 $-1 $13 reversed single #
loop $-1 $-1 $14 $4 #
cone-surface $-1 -316.2161265350294457 9.765896549279972305 -94.47560843500232863 0.3347038706432357569 -0.6105511586102697619 -0.7177747569370864777 0.8304272871786793075 0.3068691354161838802 0.126206613231886422 1 I I 0 1 0.8942629673566271364 forward I I I I #
coedge $-1 $10 $10 $15 $16 forward $5 $-1 #
face $-1 $17 $18 $2 $-1 $19 reversed single #
loop $-1 $-1 $20 $7 #
plane-surface $-1 -317.8809922329178335 -13.02256096644262762 -81.44048557012709466 0.3347038706432354793 -0.610551158610270206 -0.7177747569370859226 -0.9063077847862658354 0 -0.4226182665666636806 forward_v I I I I #
coedge $-1 $21 $22 $23 $24 reversed $8 $-1 #
coedge $-1 $22 $21 $10 $16 reversed $8 $-1 #
edge $-1 $25 0 $25 1 $10 $26 forward 7 unknown #
face $-1 $27 $28 $2 $-1 $29 forward single #
loop $-1 $-1 $30 $11 #
cone-surface $-1 -319.2198077658389366 -10.58035631139914834 -78.56938658338121684 0.3347038706432360899 -0.6105511586102686516 -0.7177747569370871439 0.1363237915760464602 -0.6076204014134312104 0.5804208587067876124 1 I I 0 1 0.8512785099985864523 forward I I I I #
coedge $-1 $20 $20 $31 $32 forward $12 $-1 #
coedge $-1 $15 $14 $22 $33 forward $8 $-1 #
coedge $-1 $14 $15 $21 $33 reversed $8 $-1 #
coedge $-1 $23 $23 $14 $24 forward $34 $-1 #
edge $-1 $35 0 $35 1 $14 $36 forward 7 unknown #
vertex $-1 $16 $37 #
intcurve-curve $-1 forward { exactcur full nurbs 2 periodic 4 
	0 2 0.3333333333333329818 2 0.6666666666666669627 2 1 2 
	-314.7740002489773019 8.023495778599631478 -97.89379766092233126 1 
	-316.2225630144304773 7.834772700292639058 -98.40874258866992363 0.5 
	-315.6532478369226737 6.879428443805103655 -97.33063482753868811 1 
	-315.0839326594146428 5.924084187317497197 -96.25252706640739575 0.5 
	-314.2046850714694415 7.068151522112067653 -96.81568989979106732 1 
	-313.3254374835241265 8.212218856906567055 -97.37885273317468204 0.5 
	-314.7740002489773019 8.023495778599631478 -97.89379766092233126 1 
	0 
	null_surface 
	null_surface 
	nullbs 
	nullbs 
	I I 
	0 
	0 
	0 
	F 1 F 0 } I I #
face $-1 $38 $39 $2 $-1 $40 forward single #
loop $-1 $41 $42 $17 #
plane-surface $-1 -319.5545120978373461 -9.969808277903821292 -77.85160938330280089 -0.3347038706432330368 0.6105511586102685406 0.7177747569370886982 0.9063077847862677228 -0 0.4226182665666598504 forward_v I I I I #
coedge $-1 $43 $44 $45 $46 reversed $18 $-1 #
coedge $-1 $44 $43 $20 $32 reversed $18 $-1 #
edge $-1 $47 0 $47 1 $20 $48 forward 7 unknown #
edge $-1 $35 0 $25 1 $22 $49 forward 7 unknown #
loop $-1 $-1 $23 $38 #
vertex $-1 $24 $50 #
intcurve-curve $-1 forward { exactcur full nurbs 2 periodic 4 
	0 2 0.3333333333333329818 2 0.6666666666666669627 2 1 2 
	-316.4475196021935517 11.07625157165096397 -94.30492387623689865 1 
	-314.9989568367403194 11.26497464995794395 -93.78997894848924943 0.5 
	-315.8782044246855776 10.12090731516340014 -93.22681611510563471 1 
	-316.7574520126308357 8.976839980368872318 -92.66365328172199156 0.5 
	-317.3267671901388098 9.932184236856421933 -93.7417610428532555 1 
	-317.8960823676467271 10.88752849334397155 -94.81986880398450523 0.5 
	-316.4475196021935517 11.07625157165096397 -94.30492387623689865 1 
	0 
	null_surface 
	null_surface 
	nullbs 
	nullbs 
	I I 
	0 
	0 
	0 
	F 1 F 0 } I I #
point $-1 -314.7740002489773019 8.023495778599631478 -97.89379766092233126 #
face $-1 $-1 $51 $2 $-1 $52 forward single #
loop $-1 $-1 $53 $27 #
torus-surface $-1 -318.0526710210774013 0.2033212775506232362 -85.80472275225470469 -0.9352149570105252607 -0.1218425944494973823 -0.3324565631200814275 12.99999999999994138 2.000000000000099476 -0.3347038706432429178 0.6105511586102660981 0.7177747569370861447 forward_v I I I I #
loop $-1 $-1 $45 $17 #
coedge $-1 $42 $42 $53 $54 reversed $28 $-1 #
coedge $-1 $31 $30 $44 $55 forward $18 $-1 #
coedge $-1 $30 $31 $43 $55 reversed $18 $-1 #
coedge $-1 $45 $45 $30 $46 forward $41 $-1 #
edge $-1 $56 0 $56 1 $30 $57 forward 7 unknown #
vertex $-1 $32 $58 #
intcurve-curve $-1 forward { exactcur full nurbs 2 periodic 4 
	0 2 0.3333333333333329818 2 0.6666666666666669627 2 1 2 
	-317.0848638881336115 -12.91883896358287132 -81.15747248343745923 1 
	-316.9145253992495554 -11.76500481793804376 -82.05951287516342063 0.5 
	-318.1938872363901964 -12.49750486414647099 -82.03301237083863384 1 
	-319.4732490735306101 -13.23000491035487869 -82.00651186651381863 0.5 
	-318.3642257252741956 -13.65133900979130743 -81.13097197911267244 1 
	-317.2552023770176675 -14.07267310922767933 -80.25543209171149783 0.5 
	-317.0848638881336115 -12.91883896358287132 -81.15747248343745923 1 
	0 
	null_surface 
	null_surface 
	nullbs 
	nullbs 
	I I 
	0 
	0 
	0 
	F 1 F 0 } I I #
intcurve-curve $-1 forward { exactcur full nubs 1 open 2 
	0 1 1 1 
	-316.4475196021935517 11.07625157165096397 -94.30492387623689865 
	-314.7740002489773019 8.023495778599631478 -97.89379766092233126 
	0 
	null_surface 
	null_surface 
	nullbs 
	nullbs 
	I I 
	0 
	0 
	0 
	F 1 F 0 } I I #
point $-1 -316.4475196021935517 11.07625157165096397 -94.30492387623689865 #
loop $-1 $34 $59 $38 #
plane-surface $-1 -316.5508299443174565 10.37645083300522941 -93.75783612120662269 -0.334703870643236312 0.6105511586102719823 0.7177747569370841463 0.9063077847862649472 -0 0.4226182665666654015 forward_v I I I I #
coedge $-1 $60 $61 $42 $54 forward $39 $-1 #
edge $-1 $62 0 $62 1 $42 $63 forward 7 unknown #
edge $-1 $56 0 $47 1 $44 $64 forward 7 unknown #
vertex $-1 $46 $65 #
intcurve-curve $-1 forward { exactcur full nurbs 2 periodic 4 
	0 2 0.3333333333333329818 2 0.6666666666666669627 2 1 2 
	-318.7583832413498044 -9.866083170531538826 -77.56859869875202662 1 
	-318.9287217302338604 -11.01991731617637349 -76.66655830702606522 0.5 
	-320.0377450784903886 -10.59858321673994652 -77.54209819442723983 1 
	-321.146768426746803 -10.1772491173035462 -78.41763808182838602 0.5 
	-319.8674065896063325 -9.444749071095138504 -78.44413858615320123 1 
	-318.5880447524658052 -8.712249024886702387 -78.47063909047798802 0.5 
	-318.7583832413498044 -9.866083170531538826 -77.56859869875202662 1 
	0 
	null_surface 
	null_surface 
	nullbs 
	nullbs 
	I I 
	0 
	0 
	0 
	F 1 F 0 } I I #
point $-1 -317.0848638881336115 -12.91883896358287132 -81.15747248343745923 #
coedge $-1 $59 $59 $66 $67 reversed $51 $-1 #
coedge $-1 $66 $53 $61 $68 reversed $39 $-1 #
coedge $-1 $53 $66 $60 $68 forward $39 $-1 #
vertex $-1 $68 $69 #
intcurve-curve $-1 forward { exactcur full nurbs 2 periodic 4 
	0 2 0.3333333333333329818 2 0.6666666666666669627 2 1 2 
	-317.6840817224611442 -9.726119963889892972 -77.18669870020400481 1 
	-318.0842762225767046 -12.43694640222370928 -75.06743836147552429 0.5 
	-320.6898238435505846 -11.4470609664052887 -77.12443822020000539 1 
	-323.2953714645242371 -10.45717553058686633 -79.18143807892445807 0.5 
	-320.2896293434349104 -8.736234528071456396 -79.24369855892845749 1 
	-317.2838872223454132 -7.015293525556058896 -79.30595903893242848 0.5 
	-317.6840817224611442 -9.726119963889892972 -77.18669870020400481 1 
	0 
	null_surface 
	null_surface 
	nullbs 
	nullbs 
	I I 
	0 
	0 
	0 
	F 1 F 0 } I I #
intcurve-curve $-1 forward { exactcur full nubs 1 open 2 
	0 1 1 1 
	-318.7583832413498044 -9.866083170531538826 -77.56859869875202662 
	-317.0848638881336115 -12.91883896358287132 -81.15747248343745923 
	0 
	null_surface 
	null_surface 
	nullbs 
	nullbs 
	I I 
	0 
	0 
	0 
	F 1 F 0 } I I #
point $-1 -318.7583832413498044 -9.866083170531538826 -77.56859869875202662 #
coedge $-1 $61 $60 $59 $67 forward $39 $-1 #
edge $-1 $70 0 $70 1 $66 $71 forward 7 unknown #
edge $-1 $70 0 $62 2.501851166488375799 $61 $72 forward 7 unknown #
point $-1 -317.6840817224611442 -9.726119963889892972 -77.18669870020400481 #
vertex $-1 $67 $73 #
intcurve-curve $-1 forward { exactcur full nurbs 2 periodic 4 
	0 2 0.3333333333333329818 2 0.6666666666666669627 2 1 2 
	-314.6804004916515964 10.62013289678926498 -93.09292055182510239 1 
	-315.0805949917671569 7.909306458455413136 -90.97366021309662187 0.5 
	-317.68614261274098 8.899191894273833725 -93.03066007182110297 1 
	-320.2916902337146894 9.889077330092298723 -95.08765993054558407 0.5 
	-317.2859481126254195 11.61001833260767313 -95.14992041054955507 1 
	-314.2802059915359791 13.33095933512310971 -95.21218089055358291 0.5 
	-314.6804004916515964 10.62013289678926498 -93.09292055182510239 1 
	0 
	null_surface 
	null_surface 
	nullbs 
	nullbs 
	I I 
	0 
	0 
	0 
	F 1 F 0 } I I #
intcurve-curve $-1 forward { exactcur full nurbs 2 open 3 
	0 2 1.2509255832441879 2 2.501851166488375799 2 
	-314.6804004916515964 10.62013289678926498 -93.09292055182510239 1 
	-310.3292501732894948 2.682967834855776168 -102.4239923920072357 0.7071067811865470176 
	-311.8310907886942118 -7.490158595483798365 -94.47088146619668692 1 
	-313.3329314040989857 -17.66328502582337734 -86.51777054038612391 0.7071067811865470176 
	-317.6840817224611442 -9.726119963889892972 -77.18669870020400481 1 
	0 
	null_surface 
	null_surface 
	nullbs 
	nullbs 
	I I 
	0 
	0 
	0 
	F 1 F 0 } I I #
point $-1 -314.6804004916515964 10.62013289678926498 -93.09292055182510239 #
End-of-ACIS-data 