600 0 1 0           
82 GICL ACIS Healer - Source: /gicl/data5/repository/SDRC_I-DEAS/bmw/Part47.sat - 6 0 18 ACIS 6.0.3 Solaris 24 Sat Apr 13 23:16:15 2002 
1 9.999999999999999547e-07 1.000000000000000036e-10 
body $-1 $1 $-1 $-1 #
lump $-1 $-1 $2 $0 #
shell $-1 $-1 $-1 $3 $-1 $1 #
face $-1 $4 $5 $2 $-1 $6 forward single #
face $-1 $7 $8 $2 $-1 $9 forward single #
loop $-1 $-1 $10 $3 #
plane-surface $-1 -341.0000000479627715 -79.50000049095571342 -59.4999985978138497 -6.033076849922672927e-10 -0.999999999999999889 1.763756256480163691e-08 0 -1.763756256480163691e-08 -0.999999999999999889 forward_v I I I I #
face $-1 $-1 $11 $2 $-1 $12 forward single #
loop $-1 $-1 $13 $4 #
plane-surface $-1 -340.999999978582423 35.49999950904430079 -59.50000062613364094 6.033074088812991223e-10 0.999999999999999889 -1.763756338329563873e-08 -0 1.763756338329563873e-08 0.999999999999999889 forward_v I I I I #
coedge $-1 $10 $10 $14 $15 reversed $5 $-1 #
loop $-1 $-1 $14 $7 #
cone-surface $-1 -341.0000000340867814 -56.50000049095572052 -59.49999900347785342 6.033071646922132741e-10 0.999999999999999889 -1.763756347229611689e-08 6.230989105410060347 2.888113215249177301e-08 1.850614700109559863 1 I I 0 1 6.500000000000035527 forward I I I I #
coedge $-1 $13 $13 $16 $17 reversed $8 $-1 #
coedge $-1 $18 $19 $10 $15 forward $11 $-1 #
edge $-1 $20 0 $20 1 $10 $21 forward 7 unknown #
coedge $-1 $19 $18 $13 $17 forward $11 $-1 #
edge $-1 $22 0 $22 1 $13 $23 forward 7 unknown #
coedge $-1 $16 $14 $19 $24 reversed $11 $-1 #
coedge $-1 $14 $16 $18 $24 forward $11 $-1 #
vertex $-1 $15 $25 #
intcurve-curve $-1 forward { exactcur full nurbs 2 periodic 4 
	0 2 0.3333333333333329818 2 0.6666666666666669627 2 1 2 
	-340.9676751069834495 -79.50000037633247985 -53.00007897537305013 1 
	-329.7094840758020382 -79.50000038411212699 -53.05606741550101901 0.5 
	-335.3870670028617837 -79.50000055215716088 -62.77795262909820195 1 
	-341.0646499299215293 -79.50000072020219477 -72.4998378426953991 0.5 
	-346.6452580340431382 -79.50000054437751373 -62.72196418897028281 1 
	-352.2258661381647471 -79.5000003685528327 -52.94409053524518072 0.5 
	-340.9676751069834495 -79.50000037633247985 -53.00007897537305013 1 
	0 
	null_surface 
	null_surface 
	nullbs 
	nullbs 
	I I 
	0 
	0 
	0 
	F 1 F 0 } I I #
vertex $-1 $17 $26 #
intcurve-curve $-1 forward { exactcur full nurbs 2 periodic 4 
	0 2 0.3333333333333329818 2 0.6666666666666669627 2 1 2 
	-340.9676750376031009 35.49999962366752726 -53.00008100369284847 1 
	-352.2258660687844554 35.49999963144723125 -52.94409256356495774 0.5 
	-346.6452579646627896 35.49999945562249337 -62.72196621729006694 1 
	-341.0646498605411807 35.49999927979785497 -72.49983987101521166 0.5 
	-335.387066933481492 35.49999944784284622 -62.77795465741800029 1 
	-329.7094840064216896 35.49999961588792274 -53.05606944382080314 0.5 
	-340.9676750376031009 35.49999962366752726 -53.00008100369284847 1 
	0 
	null_surface 
	null_surface 
	nullbs 
	nullbs 
	I I 
	0 
	0 
	0 
	F 1 F 0 } I I #
edge $-1 $22 0 $20 1 $19 $27 forward 7 unknown #
point $-1 -340.9676751069834495 -79.50000037633247985 -53.00007897537305013 #
point $-1 -340.9676750376031009 35.49999962366752726 -53.00008100369284847 #
intcurve-curve $-1 forward { exactcur full nubs 1 open 2 
	0 1 1 1 
	-340.9676750376031009 35.49999962366752726 -53.00008100369284847 
	-340.9676751069834495 -79.50000037633247985 -53.00007897537305013 
	0 
	null_surface 
	null_surface 
	nullbs 
	nullbs 
	I I 
	0 
	0 
	0 
	F 1 F 0 } I I #
End-of-ACIS-data 