600 0 1 0           
82 GICL ACIS Healer - Source: /gicl/data5/repository/SDRC_I-DEAS/bmw/Part29.sat - 6 0 18 ACIS 6.0.3 Solaris 24 Sat Apr 13 23:15:44 2002 
1 9.999999999999999547e-07 1.000000000000000036e-10 
body $-1 $1 $-1 $-1 #
lump $-1 $-1 $2 $0 #
shell $-1 $-1 $-1 $3 $-1 $1 #
face $-1 $4 $5 $2 $-1 $6 reversed single #
face $-1 $7 $8 $2 $-1 $9 reversed single #
loop $-1 $-1 $10 $3 #
plane-surface $-1 -303.7234251523442481 13.42920363915124327 -83.40706772257783541 -0.3347038706432369781 0.6105511586102657651 0.7177747569370891423 0.9063077847862658354 -0 0.4226182665666636806 forward_v I I I I #
face $-1 $11 $12 $2 $-1 $13 reversed single #
loop $-1 $-1 $14 $4 #
cone-surface $-1 -302.3846096837288542 10.98699897701560424 -86.27816673327728836 -0.3347038706432429178 0.610551158610270206 0.717774756937082592 -0.6304682495371594086 0.3068691242823007315 -0.5550201633030553694 1 I I 0 1 0.8942629673564629345 forward I I I I #
coedge $-1 $10 $10 $15 $16 forward $5 $-1 #
face $-1 $17 $18 $2 $-1 $19 reversed single #
loop $-1 $-1 $20 $7 #
plane-surface $-1 -313.977568757177778 -6.917049325082277988 -70.8817919600464279 -0.3347038706432199917 0.6105511586102797539 0.7177747569370851455 0.9063077847862732739 -0 0.4226182665666480265 forward_v I I I I #
coedge $-1 $21 $22 $23 $24 reversed $8 $-1 #
coedge $-1 $22 $21 $10 $16 reversed $8 $-1 #
edge $-1 $25 0 $25 1 $10 $26 forward 7 unknown #
face $-1 $27 $28 $2 $-1 $29 forward single #
loop $-1 $-1 $30 $11 #
cone-surface $-1 -312.6387532108320215 -9.359253938920947036 -73.75289097558172102 -0.3347038706432369781 0.6105511586102683186 0.7177747569370868108 -0.5322554100058027871 -0.6076204065088184336 0.2686572569260192722 1 I I 0 1 0.8512785099985786808 forward I I I I #
coedge $-1 $20 $20 $31 $32 forward $12 $-1 #
coedge $-1 $15 $14 $22 $33 forward $8 $-1 #
coedge $-1 $14 $15 $21 $33 reversed $8 $-1 #
coedge $-1 $23 $23 $14 $24 forward $34 $-1 #
edge $-1 $35 0 $35 1 $14 $36 forward 7 unknown #
vertex $-1 $16 $37 #
intcurve-curve $-1 forward { exactcur full nurbs 2 periodic 4 
	0 2 0.3333333333333329818 2 0.6666666666666669627 2 1 2 
	-303.3707366732922992 14.12900747711787375 -83.83787117729949045 1 
	-302.0451477730294982 13.94028441995335044 -83.0592079384403803 0.5 
	-303.2369749626751627 12.98494015004376223 -82.80233435021398236 1 
	-304.428802152320884 12.02959588013418823 -82.54546076198766968 0.5 
	-304.5625638629380205 13.17366320720828554 -83.58099758907314936 1 
	-304.6963255735551002 14.31773053428241127 -84.61653441615862903 0.5 
	-303.3707366732922992 14.12900747711787375 -83.83787117729949045 1 
	0 
	null_surface 
	null_surface 
	nullbs 
	nullbs 
	I I 
	0 
	0 
	0 
	F 1 F 0 } I I #
face $-1 $38 $39 $2 $-1 $40 forward single #
loop $-1 $41 $42 $17 #
plane-surface $-1 -312.304050915190146 -9.969808222646175722 -74.47066380867920543 0.3347038706432330368 -0.6105511586102679855 -0.7177747569370890313 -0.9063077847862677228 0 -0.4226182665666596838 forward_v I I I I #
coedge $-1 $43 $44 $45 $46 reversed $18 $-1 #
coedge $-1 $44 $43 $20 $32 reversed $18 $-1 #
edge $-1 $47 0 $47 1 $20 $48 forward 7 unknown #
edge $-1 $35 0 $25 1 $22 $49 forward 7 unknown #
loop $-1 $-1 $23 $38 #
vertex $-1 $24 $50 #
intcurve-curve $-1 forward { exactcur full nurbs 2 periodic 4 
	0 2 0.3333333333333329818 2 0.6666666666666669627 2 1 2 
	-301.6972173200761063 11.07625168406656968 -87.42674496198489464 1 
	-303.0228062203389072 11.26497474123107878 -88.20540820084406164 0.5 
	-302.8890445097217707 10.12090741415692463 -87.16987137375855355 1 
	-302.7552827991046911 8.976840087082827324 -86.1343345466731023 0.5 
	-301.5634556094589698 9.93218435699241553 -86.39120813489941497 1 
	-300.3716284198133053 10.88752862690200374 -86.64808172312581291 0.5 
	-301.6972173200761063 11.07625168406656968 -87.42674496198489464 1 
	0 
	null_surface 
	null_surface 
	nullbs 
	nullbs 
	I I 
	0 
	0 
	0 
	F 1 F 0 } I I #
point $-1 -303.3707366732922992 14.12900747711787375 -83.83787117729949045 #
face $-1 $-1 $51 $2 $-1 $52 forward single #
loop $-1 $-1 $53 $27 #
torus-surface $-1 -307.1769775766372845 0.2033213604370143202 -80.7333036113666509 0.8558210910419576933 -0.121842580799606276 0.5027172621184244905 13 2.000000000000108358 0.3347038706432404753 -0.6105511586102683186 -0.7177747569370853675 forward_v I I I I #
loop $-1 $-1 $45 $17 #
coedge $-1 $42 $42 $53 $54 reversed $28 $-1 #
coedge $-1 $31 $30 $44 $55 forward $18 $-1 #
coedge $-1 $30 $31 $43 $55 reversed $18 $-1 #
coedge $-1 $45 $45 $30 $46 forward $41 $-1 #
edge $-1 $56 0 $56 1 $30 $57 forward 7 unknown #
vertex $-1 $32 $58 #
intcurve-curve $-1 forward { exactcur full nurbs 2 periodic 4 
	0 2 0.3333333333333329818 2 0.6666666666666669627 2 1 2 
	-314.7061107966125064 -6.813327333842387645 -71.30974434968013043 1 
	-314.1245992516154502 -5.659493185063880105 -72.02005159651361055 0.5 
	-313.3225418693025972 -6.391993215409378593 -71.02296937032673441 1 
	-312.5204844869897443 -7.12449324575479892 -70.02588714413988669 0.5 
	-313.9040534142996535 -7.545827364187829289 -70.31266212349325428 1 
	-315.2876223416095627 -7.967161482620866764 -70.59943710284667873 0.5 
	-314.7061107966125064 -6.813327333842387645 -71.30974434968013043 1 
	0 
	null_surface 
	null_surface 
	nullbs 
	nullbs 
	I I 
	0 
	0 
	0 
	F 1 F 0 } I I #
intcurve-curve $-1 forward { exactcur full nubs 1 open 2 
	0 1 1 1 
	-301.6972173200761063 11.07625168406656968 -87.42674496198489464 
	-303.3707366732922992 14.12900747711787375 -83.83787117729949045 
	0 
	null_surface 
	null_surface 
	nullbs 
	nullbs 
	I I 
	0 
	0 
	0 
	F 1 F 0 } I I #
point $-1 -301.6972173200761063 11.07625168406656968 -87.42674496198489464 #
loop $-1 $34 $59 $38 #
plane-surface $-1 -302.0499042380841956 10.37645094352027542 -86.99594341405389741 0.3347038706432378108 -0.610551158610270428 -0.7177747569370847014 -0.9063077847862643921 0 -0.4226182665666666782 forward_v I I I I #
coedge $-1 $60 $61 $42 $54 forward $39 $-1 #
edge $-1 $62 0 $62 1 $42 $63 forward 7 unknown #
edge $-1 $56 0 $47 1 $44 $64 forward 7 unknown #
vertex $-1 $46 $65 #
intcurve-curve $-1 forward { exactcur full nurbs 2 periodic 4 
	0 2 0.3333333333333329818 2 0.6666666666666669627 2 1 2 
	-313.0325914433963703 -9.86608312689372724 -74.89861813436556304 1 
	-313.6141029883933697 -11.01991727567220636 -74.18831088753211134 0.5 
	-312.2305340610834605 -10.59858315723916888 -73.9015359081786869 1 
	-310.8469651337735513 -10.17724903880616694 -73.6147609288253193 0.5 
	-311.6490225160864611 -9.444749008460725292 -74.61184315501216702 1 
	-312.4510798983993141 -8.712248978115248121 -75.60892538119904316 0.5 
	-313.0325914433963703 -9.86608312689372724 -74.89861813436556304 1 
	0 
	null_surface 
	null_surface 
	nullbs 
	nullbs 
	I I 
	0 
	0 
	0 
	F 1 F 0 } I I #
point $-1 -314.7061107966125064 -6.813327333842387645 -71.30974434968013043 #
coedge $-1 $59 $59 $66 $67 reversed $51 $-1 #
coedge $-1 $66 $53 $61 $68 reversed $39 $-1 #
coedge $-1 $53 $66 $60 $68 forward $39 $-1 #
vertex $-1 $68 $69 #
intcurve-curve $-1 forward { exactcur full nurbs 2 periodic 4 
	0 2 0.3333333333333329818 2 0.6666666666666669627 2 1 2 
	-314.0156915222726184 -9.726119935931997418 -75.47610025675564316 1 
	-315.3818990281993138 -12.4369463816280561 -73.80729918051417826 0.5 
	-312.1313320021101276 -11.44706090117885822 -73.13354793227964024 1 
	-308.8807649760208847 -10.45717542072964079 -72.45979668404510221 0.5 
	-310.7651244961834323 -8.736234455482808414 -74.80234900852113356 1 
	-312.6494840163460935 -7.015293490235967155 -77.1449013329971649 0.5 
	-314.0156915222726184 -9.726119935931997418 -75.47610025675564316 1 
	0 
	null_surface 
	null_surface 
	nullbs 
	nullbs 
	I I 
	0 
	0 
	0 
	F 1 F 0 } I I #
intcurve-curve $-1 forward { exactcur full nubs 1 open 2 
	0 1 1 1 
	-313.0325914433963703 -9.86608312689372724 -74.89861813436556304 
	-314.7061107966125064 -6.813327333842387645 -71.30974434968013043 
	0 
	null_surface 
	null_surface 
	nullbs 
	nullbs 
	I I 
	0 
	0 
	0 
	F 1 F 0 } I I #
point $-1 -313.0325914433963703 -9.86608312689372724 -74.89861813436556304 #
coedge $-1 $61 $60 $59 $67 forward $39 $-1 #
edge $-1 $70 0 $70 1 $66 $71 forward 7 unknown #
edge $-1 $70 0 $62 2.501851166488375799 $61 $72 forward 7 unknown #
point $-1 -314.0156915222726184 -9.726119935931997418 -75.47610025675564316 #
vertex $-1 $67 $73 #
intcurve-curve $-1 forward { exactcur full nurbs 2 periodic 4 
	0 2 0.3333333333333329818 2 0.6666666666666669627 2 1 2 
	-303.7615479951695079 10.62013298000452011 -88.00137601445115365 1 
	-305.1277555010962033 7.909306534308479186 -86.33257493820968875 0.5 
	-301.8771884750069603 8.899192014757680624 -85.65882368997515073 1 
	-298.626621448917831 9.889077495206869628 -84.98507244174064112 0.5 
	-300.5109809690803786 11.61001846045372332 -87.32762476621664405 1 
	-302.395340489242983 13.3309594257005557 -89.67017709069267539 0.5 
	-303.7615479951695079 10.62013298000452011 -88.00137601445115365 1 
	0 
	null_surface 
	null_surface 
	nullbs 
	nullbs 
	I I 
	0 
	0 
	0 
	F 1 F 0 } I I #
intcurve-curve $-1 forward { exactcur full nurbs 2 open 3 
	0 2 1.2509255832441879 2 2.501851166488375799 2 
	-303.7615479951695079 10.62013298000452011 -88.00137601445115365 1 
	-308.1126983135316664 18.55729804193800092 -78.67030417426903455 0.7071067811865470176 
	-313.2397700770832216 8.384171583969752817 -72.4076662954212793 1 
	-318.3668418406347769 -1.788954873998538808 -66.14502841657352405 0.7071067811865470176 
	-314.0156915222726184 -9.726119935931997418 -75.47610025675564316 1 
	0 
	null_surface 
	null_surface 
	nullbs 
	nullbs 
	I I 
	0 
	0 
	0 
	F 1 F 0 } I I #
point $-1 -303.7615479951695079 10.62013298000452011 -88.00137601445115365 #
End-of-ACIS-data 