600 0 1 0           
82 GICL ACIS Healer - Source: /gicl/data5/repository/SDRC_I-DEAS/bmw/Part30.sat - 6 0 18 ACIS 6.0.3 Solaris 24 Sat Apr 13 23:15:46 2002 
1 9.999999999999999547e-07 1.000000000000000036e-10 
body $-1 $1 $-1 $-1 #
lump $-1 $-1 $2 $0 #
shell $-1 $-1 $-1 $3 $-1 $1 #
face $-1 $4 $5 $2 $-1 $6 reversed single #
face $-1 $7 $8 $2 $-1 $9 reversed single #
loop $-1 $-1 $10 $3 #
plane-surface $-1 -307.6268487520745794 7.323691997791055286 -93.96576139047596143 0.3347038706432585164 -0.6105511586102516652 -0.7177747569370910297 -0.9063077847862557324 0 -0.4226182665666850524 forward_v I I I I #
face $-1 $11 $12 $2 $-1 $13 reversed single #
loop $-1 $-1 $14 $4 #
cone-surface $-1 -308.9656642387360534 9.765896604537509518 -91.09466234107659943 0.334703870643233703 -0.6105511586102674304 -0.7177747569370892533 0.8304272871786224641 0.3068691354161696694 0.126206613231886422 1 I I 0 1 0.8942629673565694048 forward I I I I #
coedge $-1 $10 $10 $15 $16 forward $5 $-1 #
face $-1 $17 $18 $2 $-1 $19 reversed single #
loop $-1 $-1 $20 $7 #
plane-surface $-1 -310.6305299366246686 -13.02256091118511705 -78.05953947620145073 0.3347038706432455824 -0.610551158610275424 -0.7177747569370769298 -0.906307784786258952 0 -0.4226182665666785021 forward_v I I I I #
coedge $-1 $21 $22 $23 $24 reversed $8 $-1 #
coedge $-1 $22 $21 $10 $16 reversed $8 $-1 #
edge $-1 $25 0 $25 1 $10 $26 forward 7 unknown #
face $-1 $27 $28 $2 $-1 $29 forward single #
loop $-1 $-1 $30 $11 #
cone-surface $-1 -311.969345469545658 -10.58035625614164488 -75.18844048945558711 0.3347038706432378108 -0.6105511586102667643 -0.7177747569370880321 0.1363237915760464602 -0.6076204014134400921 0.5804208587067876124 1 I I 0 1 0.8512785099985927806 forward I I I I #
coedge $-1 $20 $20 $31 $32 forward $12 $-1 #
coedge $-1 $15 $14 $22 $33 forward $8 $-1 #
coedge $-1 $14 $15 $21 $33 reversed $8 $-1 #
coedge $-1 $23 $23 $14 $24 forward $34 $-1 #
edge $-1 $35 0 $35 1 $14 $36 forward 7 unknown #
vertex $-1 $16 $37 #
intcurve-curve $-1 forward { exactcur full nurbs 2 periodic 4 
	0 2 0.3333333333333329818 2 0.6666666666666669627 2 1 2 
	-307.5235379526840234 8.023495833857133164 -94.51285156699663048 1 
	-308.9721007181371988 7.834772755550183376 -95.02779649474423707 0.5 
	-308.4027855406292815 6.879428499062619551 -93.94968873361301576 1 
	-307.8334703631213074 5.924084242575112569 -92.87158097248172339 0.5 
	-306.9542227751761061 7.06815157736959776 -93.43474380586533812 1 
	-306.0749751872307343 8.212218912164125584 -93.99790663924898126 0.5 
	-307.5235379526840234 8.023495833857133164 -94.51285156699663048 1 
	0 
	null_surface 
	null_surface 
	nullbs 
	nullbs 
	I I 
	0 
	0 
	0 
	F 1 F 0 } I I #
face $-1 $38 $39 $2 $-1 $40 forward single #
loop $-1 $41 $42 $17 #
plane-surface $-1 -312.3040498015442381 -9.969808222646319606 -74.47066328937715696 -0.3347038706432344246 0.6105511586102689847 0.717774756937087588 0.9063077847862668346 -0 0.4226182665666618488 forward_v I I I I #
coedge $-1 $43 $44 $45 $46 reversed $18 $-1 #
coedge $-1 $44 $43 $20 $32 reversed $18 $-1 #
edge $-1 $47 0 $47 1 $20 $48 forward 7 unknown #
edge $-1 $35 0 $25 1 $22 $49 forward 7 unknown #
loop $-1 $-1 $23 $38 #
vertex $-1 $24 $50 #
intcurve-curve $-1 forward { exactcur full nurbs 2 periodic 4 
	0 2 0.3333333333333329818 2 0.6666666666666669627 2 1 2 
	-309.1970573059002163 11.07625162690846565 -90.92397778231119787 1 
	-307.7484945404469272 11.26497470521545807 -90.40903285456350602 0.5 
	-308.6277421283922422 10.12090737042093025 -89.84587002117990551 1 
	-309.5069897163375003 8.976840035626445058 -89.28270718779626236 0.5 
	-310.0763048938454745 9.932184292113980462 -90.36081494892755472 1 
	-310.6456200713533917 10.88752854860153008 -91.43892271005883288 0.5 
	-309.1970573059002163 11.07625162690846565 -90.92397778231119787 1 
	0 
	null_surface 
	null_surface 
	nullbs 
	nullbs 
	I I 
	0 
	0 
	0 
	F 1 F 0 } I I #
point $-1 -307.5235379526840234 8.023495833857133164 -94.51285156699663048 #
face $-1 $-1 $51 $2 $-1 $52 forward single #
loop $-1 $-1 $53 $27 #
torus-surface $-1 -310.8022087247840659 0.2033213328080551996 -82.42377665832910338 -0.9352149570105237064 -0.1218425944494965218 -0.332456563120086257 12.99999999999984723 2.000000000000129674 -0.3347038706432464705 0.6105511586102633226 0.7177747569370868108 forward_v I I I I #
loop $-1 $-1 $45 $17 #
coedge $-1 $42 $42 $53 $54 reversed $28 $-1 #
coedge $-1 $31 $30 $44 $55 forward $18 $-1 #
coedge $-1 $30 $31 $43 $55 reversed $18 $-1 #
coedge $-1 $45 $45 $30 $46 forward $41 $-1 #
edge $-1 $56 0 $56 1 $30 $57 forward 7 unknown #
vertex $-1 $32 $58 #
intcurve-curve $-1 forward { exactcur full nurbs 2 periodic 4 
	0 2 0.3333333333333329818 2 0.6666666666666669627 2 1 2 
	-309.8344015918404466 -12.91883890832537674 -77.77652638951184372 1 
	-309.6640631029563906 -11.7650047626805474 -78.67856678123777669 0.5 
	-310.9434249400969748 -12.49750480888897641 -78.65206627691298991 1 
	-312.2227867772374452 -13.23000485509734148 -78.6255657725881747 0.5 
	-311.1137634289809739 -13.65133895453379864 -77.75002588518702851 1 
	-310.0047400807245026 -14.07267305397020252 -76.87448599778588232 0.5 
	-309.8344015918404466 -12.91883890832537674 -77.77652638951184372 1 
	0 
	null_surface 
	null_surface 
	nullbs 
	nullbs 
	I I 
	0 
	0 
	0 
	F 1 F 0 } I I #
intcurve-curve $-1 forward { exactcur full nubs 1 open 2 
	0 1 1 1 
	-309.1970573059002163 11.07625162690846565 -90.92397778231119787 
	-307.5235379526840234 8.023495833857133164 -94.51285156699663048 
	0 
	null_surface 
	null_surface 
	nullbs 
	nullbs 
	I I 
	0 
	0 
	0 
	F 1 F 0 } I I #
point $-1 -309.1970573059002163 11.07625162690846565 -90.92397778231119787 #
loop $-1 $34 $59 $38 #
plane-surface $-1 -309.3003676480241211 10.37645088826275597 -90.3768900272809077 -0.3347038706432356459 0.6105511586102678745 0.7177747569370880321 0.9063077847862661685 -0 0.422618266566662848 forward_v I I I I #
coedge $-1 $60 $61 $42 $54 forward $39 $-1 #
edge $-1 $62 0 $62 1 $42 $63 forward 7 unknown #
edge $-1 $56 0 $47 1 $44 $64 forward 7 unknown #
vertex $-1 $46 $65 #
intcurve-curve $-1 forward { exactcur full nurbs 2 periodic 4 
	0 2 0.3333333333333329818 2 0.6666666666666669627 2 1 2 
	-311.5079209450566395 -9.866083115274044246 -74.18765260482638269 1 
	-311.6782594339406387 -11.01991726091886648 -73.28561221310042129 0.5 
	-312.7872827821971669 -10.59858316148246615 -74.16115210050162432 1 
	-313.8963061304536382 -10.1772490620460303 -75.03669198790277051 0.5 
	-312.6169442933131108 -9.444749015837643924 -75.0631924922275573 1 
	-311.3375824561726404 -8.712248969629207807 -75.08969299655234408 0.5 
	-311.5079209450566395 -9.866083115274044246 -74.18765260482638269 1 
	0 
	null_surface 
	null_surface 
	nullbs 
	nullbs 
	I I 
	0 
	0 
	0 
	F 1 F 0 } I I #
point $-1 -309.8344015918404466 -12.91883890832537674 -77.77652638951184372 #
coedge $-1 $59 $59 $66 $67 reversed $51 $-1 #
coedge $-1 $66 $53 $61 $68 reversed $39 $-1 #
coedge $-1 $53 $66 $60 $68 forward $39 $-1 #
vertex $-1 $68 $69 #
intcurve-curve $-1 forward { exactcur full nurbs 2 periodic 4 
	0 2 0.3333333333333329818 2 0.6666666666666669627 2 1 2 
	-310.4336194261679793 -9.726119908632412603 -73.80575260627836087 1 
	-310.8338139262835966 -12.43694634696622536 -71.68649226754988035 0.5 
	-313.4393615472573629 -11.4470609111477799 -73.74349212627438988 1 
	-316.0449091682310723 -10.45717547532932201 -75.80049198499887098 0.5 
	-313.0391670471416887 -8.73623447281395471 -75.86275246500281355 1 
	-310.0334249260522483 -7.015293470298528788 -75.92501294500678455 0.5 
	-310.4336194261679793 -9.726119908632412603 -73.80575260627836087 1 
	0 
	null_surface 
	null_surface 
	nullbs 
	nullbs 
	I I 
	0 
	0 
	0 
	F 1 F 0 } I I #
intcurve-curve $-1 forward { exactcur full nubs 1 open 2 
	0 1 1 1 
	-311.5079209450566395 -9.866083115274044246 -74.18765260482638269 
	-309.8344015918404466 -12.91883890832537674 -77.77652638951184372 
	0 
	null_surface 
	null_surface 
	nullbs 
	nullbs 
	I I 
	0 
	0 
	0 
	F 1 F 0 } I I #
point $-1 -311.5079209450566395 -9.866083115274044246 -74.18765260482638269 #
coedge $-1 $61 $60 $59 $67 forward $39 $-1 #
edge $-1 $70 0 $70 1 $66 $71 forward 7 unknown #
edge $-1 $70 0 $62 2.501851166488375799 $61 $72 forward 7 unknown #
point $-1 -310.4336194261679793 -9.726119908632412603 -73.80575260627836087 #
vertex $-1 $67 $73 #
intcurve-curve $-1 forward { exactcur full nurbs 2 periodic 4 
	0 2 0.3333333333333329818 2 0.6666666666666669627 2 1 2 
	-307.4299381953582611 10.62013295204679508 -89.71197445789937319 1 
	-307.8301326954738784 7.90930651371293969 -87.59271411917092109 0.5 
	-310.4356803164476446 8.899191949531392254 -89.64971397789540219 1 
	-313.041227937421354 9.889077385349871463 -91.7067138366198833 0.5 
	-310.0354858163320841 11.61001838786523166 -91.76897431662385429 1 
	-307.0297436952425301 13.33095939038063449 -91.83123479662782529 0.5 
	-307.4299381953582611 10.62013295204679508 -89.71197445789937319 1 
	0 
	null_surface 
	null_surface 
	nullbs 
	nullbs 
	I I 
	0 
	0 
	0 
	F 1 F 0 } I I #
intcurve-curve $-1 forward { exactcur full nurbs 2 open 3 
	0 2 1.2509255832441879 2 2.501851166488375799 2 
	-307.4299381953582611 10.62013295204679508 -89.71197445789937319 1 
	-303.0787878769961026 2.682967890113327591 -99.04304629808154914 0.7071067811865470176 
	-304.5806284924009901 -7.490158540226303785 -91.08993537227101456 1 
	-306.082469107805764 -17.66328497056585434 -83.13682444646047998 0.7071067811865470176 
	-310.4336194261679793 -9.726119908632412603 -73.80575260627836087 1 
	0 
	null_surface 
	null_surface 
	nullbs 
	nullbs 
	I I 
	0 
	0 
	0 
	F 1 F 0 } I I #
point $-1 -307.4299381953582611 10.62013295204679508 -89.71197445789937319 #
End-of-ACIS-data 