600 0 1 0           
82 GICL ACIS Healer - Source: /gicl/data5/repository/SDRC_I-DEAS/bmw/Part23.sat - 6 0 18 ACIS 6.0.3 Solaris 24 Sat Apr 13 23:15:35 2002 
1 9.999999999999999547e-07 1.000000000000000036e-10 
body $-1 $1 $-1 $-1 #
lump $-1 $-1 $2 $0 #
shell $-1 $-1 $-1 $3 $-1 $1 #
face $-1 $4 $5 $2 $-1 $6 reversed single #
face $-1 $7 $8 $2 $-1 $9 reversed single #
loop $-1 $-1 $10 $3 #
plane-surface $-1 -327.3748204394729555 -13.4865411930936876 54.20772805064851241 -0.3386289274238046265 -0.5983105642653948619 -0.7261920670182431259 -0.9063077845118364673 0 0.4226182671551794168 forward_v I I I I #
face $-1 $11 $12 $2 $-1 $13 reversed single #
loop $-1 $-1 $14 $4 #
cone-surface $-1 -326.0203047423675571 -11.09329890786454342 57.1124963013849154 -0.3386289274238063474 -0.5983105642653968603 -0.7261920670182406834 -0.6535330085196164873 -0.285172409022948159 0.5397013606548313192 1 I I 0 1 0.8942629673565427595 forward I I I I #
coedge $-1 $10 $10 $15 $16 forward $5 $-1 #
face $-1 $17 $18 $2 $-1 $19 reversed single #
loop $-1 $-1 $20 $7 #
plane-surface $-1 -336.6241146158585593 7.207185482336395665 41.47115719339421247 -0.338628927423806958 -0.5983105642654072964 -0.7261920670182315796 -0.9063077845118326925 0 0.4226182671551872994 forward_v I I I I #
coedge $-1 $21 $22 $23 $24 reversed $8 $-1 #
coedge $-1 $22 $21 $10 $16 reversed $8 $-1 #
edge $-1 $25 0 $25 1 $10 $26 forward 7 unknown #
face $-1 $27 $28 $2 $-1 $29 forward single #
loop $-1 $-1 $30 $11 #
cone-surface $-1 -335.2695988428701526 9.600427716611923401 44.37592545072650552 -0.3386289274238131197 -0.5983105642653923084 -0.7261920670182412385 -0.5045235542808654827 0.6257522451416033249 -0.2802948669910492185 1 I I 0 1 0.8512785099986283077 forward I I I I #
coedge $-1 $20 $20 $31 $32 forward $12 $-1 #
coedge $-1 $15 $14 $22 $33 forward $8 $-1 #
coedge $-1 $14 $15 $21 $33 reversed $8 $-1 #
coedge $-1 $23 $23 $14 $24 forward $34 $-1 #
edge $-1 $35 0 $35 1 $14 $36 forward 7 unknown #
vertex $-1 $16 $37 #
intcurve-curve $-1 forward { exactcur full nurbs 2 periodic 4 
	0 2 0.3333333333333329818 2 0.6666666666666669627 2 1 2 
	-327.0566934832831976 -14.19829629480572208 54.64579894265258986 1 
	-325.7074720080298675 -14.05509414651068312 53.89866219493180211 0.5 
	-326.8592731988258606 -13.05906252583881155 53.61512420478121044 1 
	-328.0110743896219674 -12.06303090516690446 53.3315862146306614 0.5 
	-328.2084946740792475 -13.20226467413387894 54.36226095250202661 1 
	-328.4059149585365844 -14.34149844310080191 55.39293569037340603 0.5 
	-327.0566934832831976 -14.19829629480572208 54.64579894265258986 1 
	0 
	null_surface 
	null_surface 
	nullbs 
	nullbs 
	I I 
	0 
	0 
	0 
	F 1 F 0 } I I #
face $-1 $38 $39 $2 $-1 $40 forward single #
loop $-1 $41 $42 $17 #
plane-surface $-1 -334.9309713361063245 10.19874145936308807 45.10211556145095102 0.3386289274238079017 0.5983105642653959721 0.7261920670182407944 0.9063077845118343578 0 -0.4226182671551838577 forward_v I I I I #
coedge $-1 $43 $44 $45 $46 reversed $18 $-1 #
coedge $-1 $44 $43 $20 $32 reversed $18 $-1 #
edge $-1 $47 0 $47 1 $20 $48 forward 7 unknown #
edge $-1 $35 0 $25 1 $22 $49 forward 7 unknown #
loop $-1 $-1 $23 $38 #
vertex $-1 $24 $50 #
intcurve-curve $-1 forward { exactcur full nurbs 2 periodic 4 
	0 2 0.3333333333333329818 2 0.6666666666666669627 2 1 2 
	-325.3635488461641785 -11.20674347347873834 58.2767592777437784 1 
	-326.7127703214175654 -11.34994562177381461 59.02389602546462299 0.5 
	-326.5153500369602284 -10.21071185280688098 57.99322128759321515 1 
	-326.3179297525028915 -9.071478083839906503 56.96254654972186415 0.5 
	-325.1661285617067847 -10.06750970451183491 57.24608453987241319 1 
	-324.0143273709108485 -11.06354132518368516 57.52962253002299775 0.5 
	-325.3635488461641785 -11.20674347347873834 58.2767592777437784 1 
	0 
	null_surface 
	null_surface 
	nullbs 
	nullbs 
	I I 
	0 
	0 
	0 
	F 1 F 0 } I I #
point $-1 -327.0566934832831976 -14.19829629480572208 54.64579894265258986 #
face $-1 $-1 $51 $2 $-1 $52 forward single #
loop $-1 $-1 $53 $27 #
torus-surface $-1 -330.3063228651947156 -0.1481250313608786229 51.47040294307403485 0.871078654007794273 0.09245356442645041861 -0.482363262445238139 13.00000000000023803 1.999999999999747757 0.3386289274238059588 0.5983105642653988587 0.7261920670182392401 forward_v I I I I #
loop $-1 $-1 $45 $17 #
coedge $-1 $42 $42 $53 $54 reversed $28 $-1 #
coedge $-1 $31 $30 $44 $55 forward $18 $-1 #
coedge $-1 $30 $31 $43 $55 reversed $18 $-1 #
coedge $-1 $45 $45 $30 $46 forward $41 $-1 #
edge $-1 $56 0 $56 1 $30 $57 forward 7 unknown #
vertex $-1 $32 $58 #
intcurve-curve $-1 forward { exactcur full nurbs 2 periodic 4 
	0 2 0.3333333333333329818 2 0.6666666666666669627 2 1 2 
	-337.3656450912406513 7.128481726981341637 41.8817826619859801 1 
	-336.8411184656576438 5.954942375855644343 42.60407243428682023 0.5 
	-335.9910859704361314 6.659767650272023332 41.62698932913770733 1 
	-335.1410534752145622 7.36459292468840232 40.64990622398862996 0.5 
	-336.5156125960191957 7.833307001397706415 40.90469955683690273 1 
	-337.8901717168237724 8.302021078107040708 41.15949288968521813 0.5 
	-337.3656450912406513 7.128481726981341637 41.8817826619859801 1 
	0 
	null_surface 
	null_surface 
	nullbs 
	nullbs 
	I I 
	0 
	0 
	0 
	F 1 F 0 } I I #
intcurve-curve $-1 forward { exactcur full nubs 1 open 2 
	0 1 1 1 
	-325.3635488461641785 -11.20674347347873834 58.2767592777437784 
	-327.0566934832831976 -14.19829629480572208 54.64579894265258986 
	0 
	null_surface 
	null_surface 
	nullbs 
	nullbs 
	I I 
	0 
	0 
	0 
	F 1 F 0 } I I #
point $-1 -325.3635488461641785 -11.20674347347873834 58.2767592777437784 #
loop $-1 $34 $59 $38 #
plane-surface $-1 -325.6816743942837888 -10.49499152208488972 57.83869032469692684 0.338628927423811843 0.5983105642653944178 0.7261920670182401283 0.9063077845118323594 0 -0.422618267155188243 forward_v I I I I #
coedge $-1 $60 $61 $42 $54 forward $39 $-1 #
edge $-1 $62 0 $62 1 $42 $63 forward 7 unknown #
edge $-1 $56 0 $47 1 $44 $64 forward 7 unknown #
vertex $-1 $46 $65 #
intcurve-curve $-1 forward { exactcur full nurbs 2 periodic 4 
	0 2 0.3333333333333329818 2 0.6666666666666669627 2 1 2 
	-335.6725004541216322 10.12003454830833249 45.51274299707718995 1 
	-336.1970270797046965 11.29357389943401913 44.79045322477639957 0.5 
	-334.822467958900063 10.82485982272468306 44.53565989192810548 1 
	-333.4479088380956 10.35614574601539317 44.28086655907983982 0.5 
	-334.2979413333171124 9.651320471599028394 45.25794966422890298 1 
	-335.1479738285386816 8.946495197182631642 46.23503276937800166 0.5 
	-335.6725004541216322 10.12003454830833249 45.51274299707718995 1 
	0 
	null_surface 
	null_surface 
	nullbs 
	nullbs 
	I I 
	0 
	0 
	0 
	F 1 F 0 } I I #
point $-1 -337.3656450912406513 7.128481726981341637 41.8817826619859801 #
coedge $-1 $59 $59 $66 $67 reversed $51 $-1 #
coedge $-1 $66 $53 $61 $68 reversed $39 $-1 #
coedge $-1 $53 $66 $60 $68 forward $39 $-1 #
vertex $-1 $68 $69 #
intcurve-curve $-1 forward { exactcur full nurbs 2 periodic 4 
	0 2 0.3333333333333329818 2 0.6666666666666669627 2 1 2 
	-336.6731272234618473 10.01383115202444429 46.0668440426352106 1 
	-337.9054539400940484 12.77095314521935876 44.36989113282437813 0.5 
	-334.6760546197544954 11.66975284190126416 43.77127780039405991 1 
	-331.4466552994151698 10.56855253858316956 43.17266446796378432 0.5 
	-333.443727903122408 8.912630848706321274 45.46823071020491369 1 
	-335.4408005068298166 7.256709158829524497 47.76379695244609991 0.5 
	-336.6731272234618473 10.01383115202444429 46.0668440426352106 1 
	0 
	null_surface 
	null_surface 
	nullbs 
	nullbs 
	I I 
	0 
	0 
	0 
	F 1 F 0 } I I #
intcurve-curve $-1 forward { exactcur full nubs 1 open 2 
	0 1 1 1 
	-335.6725004541216322 10.12003454830833249 45.51274299707718995 
	-337.3656450912406513 7.128481726981341637 41.8817826619859801 
	0 
	null_surface 
	null_surface 
	nullbs 
	nullbs 
	I I 
	0 
	0 
	0 
	F 1 F 0 } I I #
point $-1 -335.6725004541216322 10.12003454830833249 45.51274299707718995 #
coedge $-1 $61 $60 $59 $67 forward $39 $-1 #
edge $-1 $70 0 $70 1 $66 $71 forward 7 unknown #
edge $-1 $70 0 $62 2.501851166488375799 $61 $72 forward 7 unknown #
point $-1 -336.6731272234618473 10.01383115202444429 46.0668440426352106 #
vertex $-1 $67 $73 #
intcurve-curve $-1 forward { exactcur full nurbs 2 periodic 4 
	0 2 0.3333333333333329818 2 0.6666666666666669627 2 1 2 
	-327.4238331229593086 -10.67989547245205983 58.80341489329362048 1 
	-328.6561598395915098 -7.922773479257147144 57.10646198348280222 0.5 
	-325.4267605192519568 -9.023973782575239966 56.507848651052484 1 
	-322.1973611989125743 -10.12517408589332746 55.90923531862220841 0.5 
	-324.1944338026198693 -11.78109577577016864 58.20480156086333068 1 
	-326.1915064063272212 -13.43701746564697252 60.50036780310450979 0.5 
	-327.4238331229593086 -10.67989547245205983 58.80341489329362048 1 
	0 
	null_surface 
	null_surface 
	nullbs 
	nullbs 
	I I 
	0 
	0 
	0 
	F 1 F 0 } I I #
intcurve-curve $-1 forward { exactcur full nurbs 2 open 3 
	0 2 1.2509255832441879 2 2.501851166488375799 2 
	-327.4238331229593086 -10.67989547245205983 58.80341489329362048 1 
	-331.8260091794688265 -18.45793280790223889 49.36291802205651891 0.7071067811865470176 
	-336.4506562297200389 -8.11106949566397617 42.99463259672729265 1 
	-341.0753032799713651 2.235793816574259907 36.62634717139811613 0.7071067811865470176 
	-336.6731272234618473 10.01383115202444429 46.0668440426352106 1 
	0 
	null_surface 
	null_surface 
	nullbs 
	nullbs 
	I I 
	0 
	0 
	0 
	F 1 F 0 } I I #
point $-1 -327.4238331229593086 -10.67989547245205983 58.80341489329362048 #
End-of-ACIS-data 