600 0 1 0           
82 GICL ACIS Healer - Source: /gicl/data5/repository/SDRC_I-DEAS/bmw/Part27.sat - 6 0 18 ACIS 6.0.3 Solaris 24 Sat Apr 13 23:15:41 2002 
1 9.999999999999999547e-07 1.000000000000000036e-10 
body $-1 $1 $-1 $-1 #
lump $-1 $-1 $2 $0 #
shell $-1 $-1 $-1 $3 $-1 $1 #
face $-1 $4 $5 $2 $-1 $6 reversed single #
face $-1 $7 $8 $2 $-1 $9 reversed single #
loop $-1 $-1 $10 $3 #
plane-surface $-1 -296.4729628560514811 13.42920369440829731 -80.02612162865217726 -0.3347038706432391986 0.6105511586102617683 0.7177747569370914738 0.9063077847862652803 -0 0.4226182665666649019 forward_v I I I I #
face $-1 $11 $12 $2 $-1 $13 reversed single #
loop $-1 $-1 $14 $4 #
cone-surface $-1 -295.1341473874361441 10.9869990322726494 -82.89722063935157337 -0.3347038706432414745 0.6105511586102638777 0.7177747569370885872 -0.6304682495372162521 0.3068691242823327059 -0.555020163303098002 1 I I 0 1 0.894262967356540428 forward I I I I #
coedge $-1 $10 $10 $15 $16 forward $5 $-1 #
face $-1 $17 $18 $2 $-1 $19 reversed single #
loop $-1 $-1 $20 $7 #
plane-surface $-1 -306.7271064608850111 -6.917049269825248814 -67.5008458661206987 -0.3347038706432298172 0.6105511586102776445 0.7177747569370824809 0.9063077847862678338 -0 0.4226182665666595173 forward_v I I I I #
coedge $-1 $21 $22 $23 $24 reversed $8 $-1 #
coedge $-1 $22 $21 $10 $16 reversed $8 $-1 #
edge $-1 $25 0 $25 1 $10 $26 forward 7 unknown #
face $-1 $27 $28 $2 $-1 $29 forward single #
loop $-1 $-1 $30 $11 #
cone-surface $-1 -305.388290914539084 -9.359253883663953388 -70.37194488165600603 -0.3347038706432372002 0.6105511586102673194 0.71777475693708781 -0.5322554100058596305 -0.6076204065088166573 0.2686572569259908505 1 I I 0 1 0.8512785099986039938 forward I I I I #
coedge $-1 $20 $20 $31 $32 forward $12 $-1 #
coedge $-1 $15 $14 $22 $33 forward $8 $-1 #
coedge $-1 $14 $15 $21 $33 reversed $8 $-1 #
coedge $-1 $23 $23 $14 $24 forward $34 $-1 #
edge $-1 $35 0 $35 1 $14 $36 forward 7 unknown #
vertex $-1 $16 $37 #
intcurve-curve $-1 forward { exactcur full nurbs 2 periodic 4 
	0 2 0.3333333333333329818 2 0.6666666666666669627 2 1 2 
	-296.1202743769995891 14.1290075323749349 -80.4569250833738181 1 
	-294.7946854767367881 13.94028447521045422 -79.67826184451467952 0.5 
	-295.9865126663824526 12.98494020530080917 -79.42138825628831 1 
	-297.1783398560281171 12.02959593539120675 -79.16451466806199733 0.5 
	-297.3121015666452536 13.17366326246534669 -80.200051495147477 1 
	-297.4458632772624469 14.31773058953950262 -81.23558832223297088 0.5 
	-296.1202743769995891 14.1290075323749349 -80.4569250833738181 1 
	0 
	null_surface 
	null_surface 
	nullbs 
	nullbs 
	I I 
	0 
	0 
	0 
	F 1 F 0 } I I #
face $-1 $38 $39 $2 $-1 $40 forward single #
loop $-1 $41 $42 $17 #
plane-surface $-1 -305.0535886188972654 -9.969808167389151876 -71.08971771475353307 0.3347038706432396982 -0.6105511586102648769 -0.7177747569370884761 -0.9063077847862643921 0 -0.4226182665666668448 forward_v I I I I #
coedge $-1 $43 $44 $45 $46 reversed $18 $-1 #
coedge $-1 $44 $43 $20 $32 reversed $18 $-1 #
edge $-1 $47 0 $47 1 $20 $48 forward 7 unknown #
edge $-1 $35 0 $25 1 $22 $49 forward 7 unknown #
loop $-1 $-1 $23 $38 #
vertex $-1 $24 $50 #
intcurve-curve $-1 forward { exactcur full nurbs 2 periodic 4 
	0 2 0.3333333333333329818 2 0.6666666666666669627 2 1 2 
	-294.4467550237833962 11.07625173932360241 -84.04579886805925071 1 
	-295.772343924046254 11.26497479648815236 -84.82446210691837507 0.5 
	-295.6385822134290606 10.12090746941402841 -83.78892527983290961 1 
	-295.5048205028118673 8.976840142339860051 -82.75338845274742994 0.5 
	-294.3129933131662028 9.932184412249476679 -83.01026204097377104 1 
	-293.1211661235205383 10.88752868215909508 -83.26713562920015477 0.5 
	-294.4467550237833962 11.07625173932360241 -84.04579886805925071 1 
	0 
	null_surface 
	null_surface 
	nullbs 
	nullbs 
	I I 
	0 
	0 
	0 
	F 1 F 0 } I I #
point $-1 -296.1202743769995891 14.1290075323749349 -80.4569250833738181 #
face $-1 $-1 $51 $2 $-1 $52 forward single #
loop $-1 $-1 $53 $27 #
torus-surface $-1 -299.926515280344745 0.2033214156942335649 -77.35235751744050958 0.8558210910419495887 -0.1218425807995958399 0.5027172621184409218 12.99999999999957012 2.000000000000373035 0.3347038706432591826 -0.6105511586102690957 -0.7177747569370759306 forward_v I I I I #
loop $-1 $-1 $45 $17 #
coedge $-1 $42 $42 $53 $54 reversed $28 $-1 #
coedge $-1 $31 $30 $44 $55 forward $18 $-1 #
coedge $-1 $30 $31 $43 $55 reversed $18 $-1 #
coedge $-1 $45 $45 $30 $46 forward $41 $-1 #
edge $-1 $56 0 $56 1 $30 $57 forward 7 unknown #
vertex $-1 $32 $58 #
intcurve-curve $-1 forward { exactcur full nurbs 2 periodic 4 
	0 2 0.3333333333333329818 2 0.6666666666666669627 2 1 2 
	-307.4556485003196258 -6.81332727858538334 -67.92879825575440123 1 
	-306.8741369553226832 -5.659493129806868694 -68.63910550258790977 0.5 
	-306.0720795730097166 -6.39199316015233876 -67.64202327640103363 1 
	-305.2700221906969205 -7.124493190497780404 -66.64494105021418591 0.5 
	-306.6535911180068297 -7.545827308930839195 -66.93171602956755351 1 
	-308.0371600453167389 -7.96716142736386157 -67.21849100892097795 0.5 
	-307.4556485003196258 -6.81332727858538334 -67.92879825575440123 1 
	0 
	null_surface 
	null_surface 
	nullbs 
	nullbs 
	I I 
	0 
	0 
	0 
	F 1 F 0 } I I #
intcurve-curve $-1 forward { exactcur full nubs 1 open 2 
	0 1 1 1 
	-294.4467550237833962 11.07625173932360241 -84.04579886805925071 
	-296.1202743769995891 14.1290075323749349 -80.4569250833738181 
	0 
	null_surface 
	null_surface 
	nullbs 
	nullbs 
	I I 
	0 
	0 
	0 
	F 1 F 0 } I I #
point $-1 -294.4467550237833962 11.07625173932360241 -84.04579886805925071 #
loop $-1 $34 $59 $38 #
plane-surface $-1 -294.7994419417914287 10.37645099877734012 -83.61499732012822506 0.3347038706432433064 -0.6105511586102612132 -0.7177747569370901415 -0.9063077847862630598 0 -0.4226182665666697869 forward_v I I I I #
coedge $-1 $60 $61 $42 $54 forward $39 $-1 #
edge $-1 $62 0 $62 1 $42 $63 forward 7 unknown #
edge $-1 $56 0 $47 1 $44 $64 forward 7 unknown #
vertex $-1 $46 $65 #
intcurve-curve $-1 forward { exactcur full nurbs 2 periodic 4 
	0 2 0.3333333333333329818 2 0.6666666666666669627 2 1 2 
	-305.7821291471034328 -9.86608307163673004 -71.51767204043986226 1 
	-306.3636406921005459 -11.01991722041519495 -70.80736479360641056 0.5 
	-304.9800717647906367 -10.59858310198218589 -70.52058981425298612 1 
	-303.5965028374807275 -10.17724898354909868 -70.23381483489961852 0.5 
	-304.3985602197935805 -9.444748953203678354 -71.23089706108646624 1 
	-305.2006176021064903 -8.712248922858208289 -72.22797928727334238 0.5 
	-305.7821291471034328 -9.86608307163673004 -71.51767204043986226 1 
	0 
	null_surface 
	null_surface 
	nullbs 
	nullbs 
	I I 
	0 
	0 
	0 
	F 1 F 0 } I I #
point $-1 -307.4556485003196258 -6.81332727858538334 -67.92879825575440123 #
coedge $-1 $59 $59 $66 $67 reversed $51 $-1 #
coedge $-1 $66 $53 $61 $68 reversed $39 $-1 #
coedge $-1 $53 $66 $60 $68 forward $39 $-1 #
vertex $-1 $68 $69 #
intcurve-curve $-1 forward { exactcur full nurbs 2 periodic 4 
	0 2 0.3333333333333329818 2 0.6666666666666669627 2 1 2 
	-306.7652292259797946 -9.726119880675007323 -72.09515416282994238 1 
	-308.1314367319064331 -12.43694632637101805 -70.42635308658847748 0.5 
	-304.8808697058171902 -11.44706084592181838 -69.75260183835391103 1 
	-301.6303026797280609 -10.45717536547258675 -69.07885059011942985 0.5 
	-303.5146621998905516 -8.736234400225754371 -71.42140291459543278 1 
	-305.3990217200532129 -7.015293434978927323 -73.76395523907146412 0.5 
	-306.7652292259797946 -9.726119880675007323 -72.09515416282994238 1 
	0 
	null_surface 
	null_surface 
	nullbs 
	nullbs 
	I I 
	0 
	0 
	0 
	F 1 F 0 } I I #
intcurve-curve $-1 forward { exactcur full nubs 1 open 2 
	0 1 1 1 
	-305.7821291471034328 -9.86608307163673004 -71.51767204043986226 
	-307.4556485003196258 -6.81332727858538334 -67.92879825575440123 
	0 
	null_surface 
	null_surface 
	nullbs 
	nullbs 
	I I 
	0 
	0 
	0 
	F 1 F 0 } I I #
point $-1 -305.7821291471034328 -9.86608307163673004 -71.51767204043986226 #
coedge $-1 $61 $60 $59 $67 forward $39 $-1 #
edge $-1 $70 0 $70 1 $66 $71 forward 7 unknown #
edge $-1 $70 0 $62 2.501851166488375799 $61 $72 forward 7 unknown #
point $-1 -306.7652292259797946 -9.726119880675007323 -72.09515416282994238 #
vertex $-1 $67 $73 #
intcurve-curve $-1 forward { exactcur full nurbs 2 periodic 4 
	0 2 0.3333333333333329818 2 0.6666666666666669627 2 1 2 
	-296.5110856988767978 10.62013303526158126 -84.62042992052548129 1 
	-297.8772932048034932 7.90930658956552346 -82.95162884428404482 0.5 
	-294.6267261787142502 8.899192070014741773 -82.27787759604947837 1 
	-291.3761591526250641 9.889077550463959199 -81.60412634781499719 0.5 
	-293.2605186727876685 11.61001851571077026 -83.94667867229097169 1 
	-295.1448781929502161 13.33095948095762395 -86.28923099676700303 0.5 
	-296.5110856988767978 10.62013303526158126 -84.62042992052548129 1 
	0 
	null_surface 
	null_surface 
	nullbs 
	nullbs 
	I I 
	0 
	0 
	0 
	F 1 F 0 } I I #
intcurve-curve $-1 forward { exactcur full nurbs 2 open 3 
	0 2 1.2509255832441879 2 2.501851166488375799 2 
	-296.5110856988767978 10.62013303526159547 -84.62042992052548129 1 
	-300.8622360172389563 18.55729809719507983 -75.28935808034336219 0.7071067811865470176 
	-305.9893077807904547 8.384171639226757122 -69.02672020149557852 1 
	-311.1163795443418962 -1.78895481874152118 -62.76408232264780906 0.7071067811865470176 
	-306.7652292259797946 -9.726119880675007323 -72.09515416282994238 1 
	0 
	null_surface 
	null_surface 
	nullbs 
	nullbs 
	I I 
	0 
	0 
	0 
	F 1 F 0 } I I #
point $-1 -296.5110856988767978 10.62013303526158126 -84.62042992052548129 #
End-of-ACIS-data 