600 0 1 0           
7 Unknown 16 ACIS 6.0 Solaris 24 Thu Aug 24 19:06:06 2000 
-1 9.999999999999999547e-07 1.000000000000000036e-10 
body $-1 $1 $-1 $-1 #
lump $-1 $-1 $2 $0 #
shell $-1 $-1 $-1 $3 $-1 $1 #
face $-1 $4 $5 $2 $-1 $6 reversed single #
face $-1 $7 $8 $2 $-1 $9 reversed single #
loop $-1 $-1 $10 $3 #
spline-surface $-1 forward { exactsur full nubs 1 1 open open none none 2 2 
	0 1 1 1 
	0 1 1 1 
	-316.0152382862692093 -12.65238675709882443 48.22340691966999771 
	-315.3471716864145833 -14.1470724524736724 49.1433557816642832 
	-317.6510823036511511 -12.82601012573125843 49.12926203785640666 
	-316.9830157037964682 -14.32069582110613482 50.04921089985069216 
	0 
	0 
	0 
	0 
	0 
	0 
	0 
	F 1 F 0 F 1 F 0 } I I I I #
face $-1 $11 $12 $2 $-1 $13 reversed single #
loop $-1 $-1 $14 $4 #
spline-surface $-1 forward { exactsur full nurbs 2 1 both periodic open none none 4 2 
	0 2 0.6195635579155469586 2 1.239127115831093029 2 1.858690673746639987 2 
	0 1 1 1 
	-314.4878554017240049 -11.20674356948752859 53.20534013685562513 1 
	-315.8370768769773917 -11.34994571778258887 53.95247688457644131 0.5 
	-315.6396565925200548 -10.21071194881564281 52.92180214670506189 1 
	-315.4422363080627747 -9.07147817984870386 51.89112740883370378 0.5 
	-314.2904351172666679 -10.06750980052058964 52.17466539898424571 1 
	-313.1386339264706749 -11.06354142119243278 52.45820338913482317 0.5 
	-314.4878554017240049 -11.20674356948752859 53.20534013685562513 1 
	-316.1810000388430808 -14.19829639081450523 49.57437980176443659 1 
	-317.5302215140964677 -14.34149853910957972 50.32151654948524566 0.5 
	-317.3328012296391307 -13.20226477014265498 49.29084181161385914 1 
	-317.1353809451818506 -12.06303100117571603 48.26016707374250103 0.5 
	-315.9835797543857439 -13.05906262184755917 48.54370506389304296 1 
	-314.8317785635896939 -14.05509424251943074 48.82724305404362752 0.5 
	-316.1810000388430808 -14.19829639081450523 49.57437980176443659 1 
	0 
	0 
	0 
	0 
	0 
	0 
	0 
	F 1 F 0 F 1 F 0 } I I I I #
tcoedge-coedge $-1 $10 $10 $15 $16 forward $5 $17 0 1 #
face $-1 $18 $19 $2 $-1 $20 reversed single #
loop $-1 $-1 $21 $7 #
spline-surface $-1 forward { exactsur full nubs 1 1 open open none none 2 2 
	0 1 1 1 
	0 1 1 1 
	-324.6518367459753449 6.578403886860080263 36.40644620335191917 
	-326.2090508657373675 6.413126049681075358 37.26875970360615042 
	-325.2877914770994607 8.001244722974170998 35.53071640140591114 
	-326.8450055968614834 7.835966885795208725 36.39302990166014951 
	0 
	0 
	0 
	0 
	0 
	0 
	0 
	F 1 F 0 F 1 F 0 } I I I I #
tcoedge-coedge $-1 $22 $23 $24 $25 reversed $8 $26 -1 -0 #
tcoedge-coedge $-1 $23 $22 $10 $16 reversed $8 $27 -1 -0 #
tedge-edge $-1 $28 0 $28 1 $10 $29 forward 7 unknown 0.0003947503297777563993 #
pcurve $-1 0 forward { exppc nubs 2 periodic 19 
	0 2 0.08333333333333332871 2 0.125 2 0.1666666666666666574 2 0.2083333333333333148 2 
	0.25 2 0.3333333333333333148 2 0.4166666666666666297 2 0.4583333333333333148 2 0.5 2 
	0.5416666666666666297 2 0.5833333333333332593 2 0.6666666666666666297 2 0.75 2 0.7916666666666667407 2 
	0.8333333333333333703 2 0.875 2 0.9166666666666667407 2 1 2 
	0.9761904819953080015 0.5 
	0.9761904819953080015 0.3821734083518151248 
	0.9212454242060259535 0.2779421926630340489 
	0.8904761918440040613 0.2195727118772712871 
	0.8449951399270160257 0.1717687804085963332 
	0.7976190441801191966 0.1219730184620239771 
	0.7380952315750893833 0.08760692923131502274 
	0.6785714189701073096 0.0532408400006336574 
	0.611758976250069475 0.03710981852496866851 
	0.5476190312389301873 0.02162403790835361328 
	0.481684961891773622 0.02416184142077670502 
	0.3639455523432453266 0.0286936334072479815 
	0.2619047307346369924 0.08760692923131503662 
	0.1598639091259681511 0.1465202250554169805 
	0.09706955736678903046 0.2462196487577338611 
	0.06190472038166212887 0.3020513260310099812 
	0.04324582728749219035 0.3653410381163656462 
	0.02380948031441067897 0.4312678215385699065 
	0.02380948031441070326 0.5 
	0.02380948031441069285 0.5687321784614408626 
	0.04324582728749119809 0.634658961883645234 
	0.06190472038164988866 0.6979486739689662045 
	0.09706955736678510305 0.7537803512422533991 
	0.1598639091259571043 0.8534797749445550696 
	0.2619047307346369924 0.9123930707686547237 
	0.3639455523433442474 0.9713063665927702539 
	0.4816849618917640741 0.9758381585792363921 
	0.5476190312388871106 0.9783759620916576694 
	0.6117589762500714734 0.9628901814750359112 
	0.6785714189700111643 0.9467591599993989693 
	0.7380952315750818338 0.9123930707686698227 
	0.7976190441801722653 0.8780269815379293519 
	0.8449951399270256847 0.8282312195914045549 
	0.8904761918440056156 0.7804272881227402037 
	0.9212454242060280629 0.7220578073369743333 
	0.9761904819953080015 0.6178265916481934239 
	0.9761904819953080015 0.5 
	0.001000000000000000021 
	spline reversed { ref 0 } I I I I 
	} 0 0 #
face $-1 $30 $31 $2 $-1 $32 forward single #
loop $-1 $-1 $33 $11 #
spline-surface $-1 forward { exactsur full nurbs 2 1 both periodic open none none 4 2 
	0 2 0.589783052283649023 2 1.179566104567298046 2 1.76934915685094607 2 
	0 1 1 1 
	-324.7968070096814586 10.12003445229954224 40.44132385618900116 1 
	-325.3213336352645229 11.29357380342525374 39.71903408388823209 0.5 
	-323.9467745144599462 10.82485972671592123 39.46424075103990958 1 
	-322.5722153936554832 10.35614565000658871 39.20944741819165813 0.5 
	-323.4222478888769388 9.651320375590238143 40.18653052334071418 1 
	-324.2722803840984511 8.946495101173873365 41.16361362848981287 0.5 
	-324.7968070096814586 10.12003445229954224 40.44132385618900116 1 
	-326.4899516468005345 7.12848163097260823 36.81036352109781262 1 
	-327.0144782723835988 8.30202098209823447 36.08807374879703644 0.5 
	-325.6399191515790221 7.833306905388944585 35.83328041594872104 1 
	-324.2653600307745023 7.364592828679597858 35.57848708310046959 0.5 
	-325.1153925259959578 6.659767554263218869 36.55557018824951854 1 
	-325.9654250212174702 5.954942279846882514 37.53265329339861722 0.5 
	-326.4899516468005345 7.12848163097260823 36.81036352109781262 1 
	0 
	0 
	0 
	0 
	0 
	0 
	0 
	F 1 F 0 F 1 F 0 } I I I I #
tcoedge-coedge $-1 $21 $21 $34 $35 forward $12 $36 0 1 #
coedge $-1 $15 $14 $23 $37 forward $8 $38 #
coedge $-1 $14 $15 $22 $37 reversed $8 $39 #
tcoedge-coedge $-1 $24 $24 $14 $25 forward $40 $41 0 1 #
tedge-edge $-1 $42 0 $42 1 $14 $43 forward 7 unknown 0.0003947503297745287294 #
pcurve $-1 0 forward { exppc nubs 2 periodic 19 
	-1 2 -0.9166666666666667407 2 -0.875 2 -0.8333333333333333703 2 -0.7916666666666667407 2 
	-0.75 2 -0.6666666666666667407 2 -0.5833333333333333703 2 -0.5416666666666667407 2 -0.5 2 
	-0.4583333333333333703 2 -0.4166666666666666852 2 -0.3333333333333333703 2 -0.25 2 -0.2083333333333333148 2 
	-0.1666666666666666297 2 -0.1249999999999999722 2 -0.08333333333333331483 2 -0 2 
	1.858690673746639987 0 
	1.773233631275535682 0 
	1.70379978426776213 0 
	1.663926882025617893 0 
	1.626354339528214954 0 
	1.587232413835141465 0 
	1.548908894788862733 0 
	1.510585375742590664 0 
	1.471463450049523614 0 
	1.433890907552123561 0 
	1.394018005309982211 0 
	1.324584158302204884 0 
	1.239127115831093029 0 
	1.153670073359984283 0 
	1.08423622635221073 0 
	1.044363324110078484 0 
	1.006790781612685981 0 
	0.9676688559196087169 0 
	0.9293453368733274322 0 
	0.8910218178270554734 0 
	0.8518998921339884234 0 
	0.8143273496365861508 0 
	0.7744544473944421359 0 
	0.7050206003866563709 0 
	0.6195635579155371886 0 
	0.534106515444431329 0 
	0.4646726684366562221 0 
	0.4247997661945180914 0 
	0.3872272236971203152 0 
	0.3481052980040491018 0 
	0.3097817789577734793 0 
	0.2714582599114968575 0 
	0.2323363342184248392 0 
	0.1947637917210265912 0 
	0.1548908894788877666 0 
	0.08545704247111014784 0 
	0 0 
	0.001000000000000000021 
	spline reversed { ref 1 } I I I I 
	} 0 0 #
pcurve $-1 0 forward { exppc nubs 2 periodic 19 
	-1 2 -0.9166666666666667407 2 -0.875 2 -0.8333333333333333703 2 -0.7916666666666667407 2 
	-0.75 2 -0.6666666666666667407 2 -0.5833333333333333703 2 -0.5416666666666667407 2 -0.5 2 
	-0.4583333333333333703 2 -0.4166666666666666852 2 -0.3333333333333333703 2 -0.25 2 -0.2083333333333333148 2 
	-0.1666666666666666297 2 -0.1249999999999999722 2 -0.08333333333333331483 2 -0 2 
	0 1 
	0.0854570424711086768 1 
	0.1548908894788844082 1 
	0.1947637917210289227 1 
	0.2323363342184324998 1 
	0.2714582599115004657 1 
	0.3097817789577734793 1 
	0.3481052980040472145 0.999999999999999889 
	0.3872272236971166515 1 
	0.4247997661945187575 0.999999999999999778 
	0.4646726684366619953 0.999999999999999778 
	0.5341065154444348817 1 
	0.6195635579155371886 1 
	0.7050206003866589244 0.999999999999999889 
	0.7744544473944451335 0.999999999999999889 
	0.8143273496365881492 0.999999999999999778 
	0.8518998921339910879 0.9999999999999995559 
	0.8910218178270570277 0.9999999999999996669 
	0.9293453368733274322 0.999999999999999778 
	0.9676688559196009454 0.999999999999999778 
	1.00679078161266955 1 
	1.044363324110068936 0.999999999999999889 
	1.084236226352209398 1 
	1.153670073359984727 1 
	1.239127115831093029 1 
	1.324584158302205772 1 
	1.39401800530998532 1 
	1.433890907552123117 1 
	1.471463450049520283 1 
	1.510585375742591108 1 
	1.548908894788866508 1 
	1.587232413835143241 1 
	1.62635433952821562 1 
	1.663926882025608123 0.999999999999999889 
	1.703799784267741479 1 
	1.773233631275524358 1 
	1.858690673746639987 1 
	0.001000000000000000021 
	spline reversed { ref 1 } I I I I 
	} 0 0 #
tvertex-vertex $-1 $16 $44 1.421085471520200372e-14 #
intcurve-curve $-1 forward { exactcur full nurbs 2 periodic 4 
	0 2 0.3333333333333329818 2 0.6666666666666669627 2 1 2 
	-316.1810000388430808 -14.19829639081450523 49.57437980176443659 1 
	-314.8317785635896939 -14.05509424251942896 48.82724305404362042 0.5 
	-315.9835797543857439 -13.05906262184755917 48.54370506389304296 1 
	-317.1353809451818506 -12.06303100117571603 48.26016707374250103 0.5 
	-317.3328012296391307 -13.20226477014265498 49.29084181161385914 1 
	-317.5302215140964677 -14.3414985391095815 50.32151654948525277 0.5 
	-316.1810000388430808 -14.19829639081450523 49.57437980176443659 1 
	0 
	null_surface 
	null_surface 
	nullbs 
	nullbs 
	I I 
	0 
	0 
	0 
	F 1 F 0 } I I #
face $-1 $45 $46 $2 $-1 $47 forward single #
loop $-1 $48 $49 $18 #
spline-surface $-1 forward { exactsur full nubs 1 1 open open none none 2 2 
	0 1 1 1 
	0 1 1 1 
	-322.9730681268396211 12.06431533430963299 37.98900495284992473 
	-326.6316084839126574 11.67600930126291559 40.01493619833027537 
	-321.4789472994194739 8.721473425445729788 40.04645664279525619 
	-325.137487656492624 8.333167392398969753 42.07238788827559972 
	0 
	0 
	0 
	0 
	0 
	0 
	0 
	F 1 F 0 F 1 F 0 } I I I I #
tcoedge-coedge $-1 $50 $51 $52 $53 reversed $19 $54 -1 -0 #
tcoedge-coedge $-1 $51 $50 $21 $35 reversed $19 $55 -1 -0 #
tedge-edge $-1 $56 0 $56 1 $21 $57 forward 7 unknown 0.00037577590132742883 #
pcurve $-1 0 forward { exppc nubs 2 periodic 19 
	0 2 0.08333333333333332871 2 0.125 2 0.1666666666666666574 2 0.2083333333333333148 2 
	0.25 2 0.3333333333333333148 2 0.4166666666666666297 2 0.4583333333333333148 2 0.5 2 
	0.5416666666666666297 2 0.5833333333333332593 2 0.6666666666666666297 2 0.75 2 0.7916666666666667407 2 
	0.8333333333333333703 2 0.875 2 0.9166666666666667407 2 1 2 
	0.9761904471333819888 0.4999999802033016638 
	0.9761904471333835431 0.3821733937875907983 
	0.9212453917840910389 0.2779421827274858314 
	0.8904761607884941199 0.2195727045338401462 
	0.8449951108912185926 0.171768775188029188 
	0.7976190172482220397 0.1219730154528082255 
	0.7380952072864915836 0.08760692774821163264 
	0.6785713973247444741 0.0532408400436053808 
	0.6117589575718569428 0.03710981928432198484 
	0.5476190154090261331 0.02162403935539573829 
	0.4816849489898761272 0.02416184275511970223 
	0.3639455446699685348 0.02869363454034097594 
	0.2619047275927424701 0.08760692774821161877 
	0.1598639105155285067 0.1465202209560751978 
	0.09706956154491974686 0.2462196402309412557 
	0.06190472612137824099 0.3020513150248671508 
	0.04324583385582839168 0.3653410242996012469 
	0.02380948774588379641 0.4312678047941052584 
	0.02380948774588379988 0.4999999802033056606 
	0.02380948774588378947 0.5687321556124478317 
	0.04324583385584424705 0.6346589361070046342 
	0.06190472612140559411 0.6979486453817767 
	0.09706956154491960809 0.7537803201756629878 
	0.1598639105155129914 0.8534797394505120316 
	0.2619047275927424701 0.9123930326583837846 
	0.3639455446699702557 0.9713063258662545385 
	0.4816849489898872849 0.9758381176514759892 
	0.5476190154090179174 0.9783759210511990823 
	0.6117589575718594963 0.9628901411222705597 
	0.6785713973247911035 0.9467591203629768248 
	0.7380952072865075708 0.9123930326583877815 
	0.7976190172482107155 0.8780269449538066207 
	0.8449951108912183706 0.8282311852185758605 
	0.890476160788559179 0.7804272558726980114 
	0.9212453917841232354 0.722057777679116386 
	0.9761904471333804345 0.6178265666190816408 
	0.9761904471333819888 0.4999999802033016638 
	0.001000000000000000021 
	spline reversed { ref 2 } I I I I 
	} 0 0 #
edge $-1 $42 0 $28 1 $23 $58 forward 7 unknown #
pcurve $-1 0 forward { exppc nubs 2 open 7 
	0 2 0.1666666666666666574 2 0.3333333333333333148 2 0.5 2 0.6666666666666666297 2 
	0.8333333333333333703 2 1 2 
	0 0 
	0 0.08333333333333332871 
	0 0.1666666666666666574 
	0 0.25 
	0 0.3333333333333333148 
	0 0.4166666666666666297 
	0 0.5 
	0 0.5833333333333332593 
	0 0.6666666666666666297 
	0 0.75 
	0 0.8333333333333334814 
	0 0.9166666666666667407 
	0 1 
	0.001000000000000000021 
	spline reversed { ref 1 } I I I I 
	} 0 0 #
pcurve $-1 0 forward { exppc nubs 2 open 7 
	-1 2 -0.8333333333333333703 2 -0.6666666666666667407 2 -0.5 2 -0.3333333333333333703 2 
	-0.1666666666666666297 2 -0 2 
	1.858690673746639987 1 
	1.858690673746639987 0.9166666666666667407 
	1.858690673746639987 0.8333333333333334814 
	1.858690673746639987 0.750000000000000111 
	1.858690673746639987 0.6666666666666667407 
	1.858690673746639987 0.5833333333333333703 
	1.858690673746639987 0.5 
	1.858690673746639987 0.4166666666666666852 
	1.858690673746639987 0.3333333333333333703 
	1.858690673746639987 0.25 
	1.858690673746639987 0.1666666666666666297 
	1.858690673746639987 0.08333333333333331483 
	1.858690673746639987 0 
	0.001000000000000000021 
	spline reversed { ref 1 } I I I I 
	} 0 0 #
loop $-1 $-1 $24 $45 #
pcurve $-1 0 forward { exppc nubs 2 periodic 19 
	0 2 0.08333333333333332871 2 0.125 2 0.1666666666666666574 2 0.2083333333333333148 2 
	0.25 2 0.3333333333333333148 2 0.4166666666666666297 2 0.4583333333333333148 2 0.5 2 
	0.5416666666666666297 2 0.5833333333333332593 2 0.6666666666666666297 2 0.75 2 0.7916666666666667407 2 
	0.8333333333333333703 2 0.875 2 0.9166666666666667407 2 1 2 
	0.7129182207230836399 0.5 
	0.7129182207230836399 0.4473161681369551279 
	0.688350624005027889 0.4007112399504146882 
	0.6745927698429370345 0.3746124801659906911 
	0.6542568163146628146 0.3532378969529598178 
	0.6330735313893841587 0.3309727061060598885 
	0.6064586349448434222 0.3156065884793505805 
	0.5798437385002432887 0.3002404708526069665 
	0.5499698751441423061 0.2930278033951752015 
	0.5212909663222584644 0.2861036426360341611 
	0.4918098502605834921 0.2872383713223146673 
	0.4391650001504873724 0.2892646725478140723 
	0.3935394633883563809 0.3156065884793505805 
	0.3479139266262434305 0.341948504410876708 
	0.3198366732341869634 0.3865271313719014223 
	0.3041134113346363188 0.4114911624700736681 
	0.2957704560409907812 0.4397899064422352566 
	0.2870798776101111671 0.4692677647465663404 
	0.2870798776101111671 0.5000000000000067724 
	0.2870798776101111671 0.5307322352534311616 
	0.2957704560409907812 0.5602100935577606355 
	0.3041134113346394274 0.5885088375299312169 
	0.3198366732341868524 0.6134728686281006871 
	0.3479139266262468722 0.6580514955891351159 
	0.3935394633883563809 0.6843934115206630198 
	0.4391650001504425194 0.71073532745217749 
	0.4918098502605797728 0.7127616286776777832 
	0.5212909663222529133 0.7138963573639578453 
	0.5499698751441440825 0.7069721966048141404 
	0.5798437385002933597 0.6997595291473698298 
	0.6064586349448400915 0.6843934115206561364 
	0.6330735313894020333 0.6690272938939336722 
	0.6542568163146655902 0.6467621030470511734 
	0.674592769842904838 0.6253875198340584918 
	0.6883506240050287772 0.5992887600495739875 
	0.7129182207230836399 0.5526838318630393765 
	0.7129182207230836399 0.5 
	0.001000000000000000021 
	spline forward { exactsur full nubs 1 1 open open none none 2 2 
	0 1 1 1 
	0 1 1 1 
	-317.3823115420901786 -9.017723680185035562 52.75151096157627251 
	-315.8881907146700883 -12.36056558904896718 54.80896265152159685 
	-313.7237711850170854 -8.62941764713833237 50.72557971609592187 
	-312.2296503575970519 -11.9722595560022711 52.78303140604124621 
	0 
	0 
	0 
	0 
	0 
	0 
	0 
	F 1 F 0 F 1 F 0 } I I I I 
	} 0 0 #
tvertex-vertex $-1 $25 $59 1.280949133595750711e-14 #
intcurve-curve $-1 forward { exactcur full nurbs 2 periodic 4 
	0 2 0.3333333333333329818 2 0.6666666666666669627 2 1 2 
	-314.4878554017240049 -11.20674356948752859 53.20534013685562513 1 
	-315.8370768769773917 -11.3499457177825871 53.9524768845764342 0.5 
	-315.6396565925200548 -10.21071194881564281 52.92180214670506189 1 
	-315.4422363080627747 -9.07147817984870386 51.89112740883370378 0.5 
	-314.2904351172666679 -10.06750980052058964 52.17466539898424571 1 
	-313.1386339264706749 -11.06354142119243278 52.45820338913481606 0.5 
	-314.4878554017240049 -11.20674356948752859 53.20534013685562513 1 
	0 
	null_surface 
	null_surface 
	nullbs 
	nullbs 
	I I 
	0 
	0 
	0 
	F 1 F 0 } I I #
point $-1 -316.1810000388430808 -14.19829639081450523 49.57437980176443659 #
face $-1 $-1 $60 $2 $-1 $61 forward single #
loop $-1 $-1 $62 $30 #
spline-surface $-1 forward { exactsur full nurbs 2 2 both open periodic none none 3 4 
	0 2 1.2509255832441879 2 2.501851166488375799 2 
	0 2 0.3333333333333329818 2 0.6666666666666669627 2 1 2 
	-325.7974337790217305 10.01383105601568246 40.99542490174702891 1 
	-330.1996098355312483 2.235793720565474985 31.55492803050994866 0.7071067811865470176 
	-325.574962785279979 -8.111069591672759316 37.92321345583913939 1 
	-320.9503157350287097 -18.45793290391100783 44.29149888116837985 0.7071067811865470176 
	-316.5481396785191919 -10.67989556846080745 53.73199575240546721 1 
	-324.565107062389643 7.256709062820725364 42.69237781155791112 0.5 
	-327.7942381044779836 1.55128031939632649 35.76748405257889374 0.3535533905932740084 
	-324.4019177708588018 -6.038460999647007554 40.43881656809726621 0.5 
	-321.0095974372396768 -13.62820231869032028 45.11014908361561027 0.3535533905932740084 
	-317.780466395151393 -7.922773575265892987 52.03504284259463475 0.5 
	-322.5680344586822912 8.912630752697545233 40.39681156931673911 1 
	-326.3836880079812772 2.170897713260238504 32.21411625420869029 0.7071067811865470176 
	-322.3752043160459948 -6.797404602380503036 37.7339252246324719 1 
	-318.3667206241107692 -15.76570691802129431 43.25373419505626771 0.7071067811865470176 
	-314.55106707481184 -9.023973878583987585 51.43642951016431653 1 
	-320.5709618549749393 10.56855244257435089 38.10124532707558132 0.5 
	-324.973137911484514 2.790515107124207361 28.66074845583847619 0.3535533905932740084 
	-320.3484908612332447 -7.556348205114062466 35.02903388116769889 0.5 
	-315.7238438109820322 -17.90321151735232519 41.39731930649691805 0.3535533905932740084 
	-311.3216677544724575 -10.12517418190213192 50.83781617773402672 0.5 
	-323.8003611753143787 11.66975274589250233 38.69985865950587112 1 
	-328.789059739034542 2.855411114429429631 28.00156023213972745 0.7071067811865470176 
	-323.5482493304671721 -8.870013194406254797 35.21832211237435217 1 
	-318.307438921899859 -20.59543750324201028 42.43508399260901598 0.7071067811865470176 
	-313.3187403581797525 -11.78109587177893047 53.13338241997517741 1 
	-327.0297604956538748 12.77095304921059693 39.29847199193620355 0.5 
	-332.6049815665845131 2.920307121734694533 27.34237200844095383 0.3535533905932740084 
	-326.7480077997012131 -10.18367818369851818 35.4076103435810623 0.5 
	-320.8910340328177995 -23.28766348913170248 43.47284867872111391 0.3535533905932740084 
	-315.3158129618871044 -13.43701756165576455 55.42894866221635652 0.5 
	-325.7974337790217305 10.01383105601568246 40.99542490174702891 1 
	-330.1996098355312483 2.235793720565474985 31.55492803050994866 0.7071067811865470176 
	-325.574962785279979 -8.111069591672759316 37.92321345583913939 1 
	-320.9503157350287097 -18.45793290391100783 44.29149888116837985 0.7071067811865470176 
	-316.5481396785191919 -10.67989556846080745 53.73199575240546721 1 
	0 
	0 
	0 
	0 
	0 
	0 
	0 
	F 1 F 0 F 1 F 0 } I I I I #
loop $-1 $-1 $52 $18 #
tcoedge-coedge $-1 $49 $49 $62 $63 reversed $31 $64 -1 -0 #
coedge $-1 $34 $33 $51 $65 forward $19 $66 #
coedge $-1 $33 $34 $50 $65 reversed $19 $67 #
tcoedge-coedge $-1 $52 $52 $33 $53 forward $48 $68 0 1 #
tedge-edge $-1 $69 0 $69 1 $33 $70 forward 7 unknown 0.0003757759013449995188 #
pcurve $-1 0 forward { exppc nubs 2 periodic 19 
	-1 2 -0.9166666666666667407 2 -0.875 2 -0.8333333333333333703 2 -0.7916666666666667407 2 
	-0.75 2 -0.6666666666666667407 2 -0.5833333333333333703 2 -0.5416666666666667407 2 -0.5 2 
	-0.4583333333333333703 2 -0.4166666666666666852 2 -0.3333333333333333703 2 -0.25 2 -0.2083333333333333148 2 
	-0.1666666666666666297 2 -0.1249999999999999722 2 -0.08333333333333331483 2 -0 2 
	1.76934915685094607 0 
	1.687999770329068561 0 
	1.62190339378004289 0 
	1.583947058732030566 0 
	1.548180512244482498 0 
	1.510939056623528121 0 
	1.474457630709121947 0 
	1.437976204794716217 0 
	1.400734749173762284 0 
	1.364968202686219767 0 
	1.327011867638214326 0 
	1.260915491089187768 0 
	1.179566104567310703 0 
	1.098216718045425644 0 
	1.032120341496389981 0 
	0.9941640064483803219 0 
	0.9583974599608349187 0 
	0.9211560043398788755 0 
	0.8846745784254713696 0 
	0.8481931525110659731 0 
	0.8109516968901124834 0 
	0.7751851504025712991 0 
	0.7372288153545670797 0 
	0.6711324388055222023 0 
	0.5897830522836265965 0 
	0.5084336657617534172 0 
	0.44233728921272919 0 
	0.404380954164724582 0 
	0.3686144076771825651 0 
	0.3313729520562295194 0 
	0.2948915261418245115 0 
	0.2584101002274197256 0 
	0.2211686446064664857 0 
	0.1854020981189224981 0 
	0.147445763070914726 0 
	0.08134938652188446195 0 
	0 0 
	0.001000000000000000021 
	spline reversed { ref 4 } I I I I 
	} 0 0 #
pcurve $-1 0 forward { exppc nubs 2 periodic 19 
	-1 2 -0.9166666666666667407 2 -0.875 2 -0.8333333333333333703 2 -0.7916666666666667407 2 
	-0.75 2 -0.6666666666666667407 2 -0.5833333333333333703 2 -0.5416666666666667407 2 -0.5 2 
	-0.4583333333333333703 2 -0.4166666666666666852 2 -0.3333333333333333703 2 -0.25 2 -0.2083333333333333148 2 
	-0.1666666666666666297 2 -0.1249999999999999722 2 -0.08333333333333331483 2 -0 2 
	0 1 
	0.08134938652187878594 1 
	0.1474457630709052336 1 
	0.1854020981189182793 1 
	0.221168644606466569 1 
	0.2584101002274196701 1 
	0.2948915261418245115 1 
	0.3313729520562294084 1 
	0.3686144076771820655 1 
	0.4043809541647238603 1 
	0.4423372892127289679 1 
	0.5084336657617536392 1 
	0.5897830522836265965 1 
	0.6711324388055222023 1 
	0.7372288153545670797 0.999999999999999889 
	0.7751851504025704109 0.999999999999999778 
	0.8109516968901103739 0.999999999999999778 
	0.8481931525110648629 0.999999999999999778 
	0.8846745784254713696 0.999999999999999778 
	0.9211560043398759889 0.999999999999999889 
	0.9583974599608285905 0.999999999999999889 
	0.9941640064483729944 0.999999999999999778 
	1.032120341496381322 0.999999999999999778 
	1.098216718045420981 1 
	1.179566104567310703 1 
	1.260915491089187768 1 
	1.327011867638214548 1 
	1.364968202686224652 0.999999999999999889 
	1.400734749173770721 1 
	1.437976204794719992 1 
	1.474457630709121947 1 
	1.51093905662352701 1 
	1.548180512244479834 1 
	1.583947058732024793 0.999999999999999778 
	1.621903393780033786 0.9999999999999995559 
	1.687999770329062788 0.999999999999999778 
	1.76934915685094607 1 
	0.001000000000000000021 
	spline reversed { ref 4 } I I I I 
	} 0 0 #
tvertex-vertex $-1 $35 $71 2.501133138879780502e-14 #
intcurve-curve $-1 forward { exactcur full nurbs 2 periodic 4 
	0 2 0.3333333333333329818 2 0.6666666666666669627 2 1 2 
	-326.4899516468005345 7.12848163097260823 36.81036352109781262 1 
	-325.9654250212174702 5.954942279846887843 37.53265329339861722 0.5 
	-325.1153925259959578 6.659767554263218869 36.55557018824951854 1 
	-324.2653600307745023 7.364592828679597858 35.57848708310046959 0.5 
	-325.6399191515790221 7.833306905388944585 35.83328041594872104 1 
	-327.0144782723835988 8.302020982098239799 36.08807374879702934 0.5 
	-326.4899516468005345 7.12848163097260823 36.81036352109781262 1 
	0 
	null_surface 
	null_surface 
	nullbs 
	nullbs 
	I I 
	0 
	0 
	0 
	F 1 F 0 } I I #
intcurve-curve $-1 forward { exactcur full nubs 1 open 2 
	0 1 1 1 
	-314.4878554017240049 -11.20674356948752859 53.20534013685562513 
	-316.1810000388430808 -14.19829639081450523 49.57437980176443659 
	0 
	null_surface 
	null_surface 
	nullbs 
	nullbs 
	I I 
	0 
	0 
	0 
	F 1 F 0 } I I #
point $-1 -314.4878554017240049 -11.20674356948752859 53.20534013685562513 #
loop $-1 $40 $72 $45 #
spline-surface $-1 forward { ref 13 } I I I I #
tcoedge-coedge $-1 $73 $74 $49 $63 forward $46 $75 0 1 #
tedge-edge $-1 $76 0 $76 1 $49 $77 forward 7 unknown 0.000106289692643473147 #
pcurve $-1 0 forward { exppc nubs 2 periodic 25 
	-1 2 -0.9583333333333333703 2 -0.9166666666666667407 2 -0.875 2 -0.8333333333333333703 2 
	-0.7916666666666667407 2 -0.75 2 -0.7083333333333333703 2 -0.6666666666666667407 2 -0.625 2 
	-0.5833333333333333703 2 -0.5416666666666667407 2 -0.5 2 -0.4583333333333333703 2 -0.4166666666666666852 2 
	-0.375 2 -0.3333333333333333703 2 -0.2916666666666666852 2 -0.25 2 -0.2083333333333333148 2 
	-0.1666666666666666297 2 -0.1249999999999999722 2 -0.08333333333333331483 2 -0.04166666666666665741 2 -0 2 
	0.9761891732716473369 0.5000009508333983499 
	0.9761891732716464487 0.5549865403081170045 
	0.9636578792381843561 0.6085251405861226148 
	0.9497342192010056472 0.6680124742283450878 
	0.9212442686633792732 0.7220581390966687163 
	0.8904751220827522573 0.780427457154440285 
	0.8449941969621121984 0.8282312553508244246 
	0.7976182332947754361 0.8780268784720612896 
	0.7380945866358236129 0.912392871893754287 
	0.6785709399768542482 0.9467588653154574985 
	0.6117586835229436026 0.9628898418195137587 
	0.5476189173271626132 0.9783755792634142301 
	0.4816850317972462547 0.9758377828261198816 
	0.4206351377880596099 0.973487971310106448 
	0.3621557656318946106 0.9558025477948485227 
	0.3095243306913264547 0.9398856666311103947 
	0.2619054133641695592 0.9123928718937575066 
	0.2142864960370305383 0.8849000771564148327 
	0.1741863551299288049 0.8472783580421214822 
	0.1296306430109382124 0.805476447915139504 
	0.09707069953937667861 0.7537805945628500703 
	0.06190596059008158375 0.6979490729423638573 
	0.04324711951494900064 0.6346595373020854636 
	0.02381082672835255903 0.568732937676795447 
	0.02381082672835257291 0.5000009508333966846 
	0.02381082672835257291 0.4312689639899791039 
	0.04324711951494131928 0.3653423643647095154 
	0.06190596059006299445 0.3020528287244624854 
	0.09707069953937330631 0.2462213071039488499 
	0.1296306430109251395 0.1945254537516719617 
	0.1741863551299281387 0.1527235436246784095 
	0.214286496037004115 0.1151018245104093313 
	0.2619054133641830484 0.08760902977304414752 
	0.3095243306913686432 0.0601162350356750988 
	0.3621557656318855067 0.04419935387195217391 
	0.4206351377880391262 0.02651393035669729475 
	0.4816850317972509177 0.02416411884068263641 
	0.5476189173271632793 0.02162632240338819428 
	0.6117586835229368303 0.03711205984728682683 
	0.6785709399768726779 0.05324303635134908924 
	0.7380945866358236129 0.08760902977304244055 
	0.7976182332947835407 0.1219750231947409475 
	0.844994196962115196 0.171770646315972747 
	0.8904751220827560321 0.2195744445123578026 
	0.9212442686633837141 0.2779437625701288717 
	0.9497342192009960993 0.3319894274384241895 
	0.9636578792381808034 0.3914767610806724196 
	0.9761891732716482251 0.4450153613587009005 
	0.9761891732716473369 0.5000009508333983499 
	0.001000000000000000021 
	spline forward { ref 8 } I I I I 
	} 0 0 #
edge $-1 $69 0 $56 1 $51 $78 forward 7 unknown #
pcurve $-1 0 forward { exppc nubs 2 open 7 
	0 2 0.1666666666666666574 2 0.3333333333333333148 2 0.5 2 0.6666666666666666297 2 
	0.8333333333333333703 2 1 2 
	0 0 
	0 0.08333333333333332871 
	0 0.1666666666666666574 
	0 0.25 
	0 0.3333333333333333148 
	0 0.4166666666666666297 
	0 0.5 
	0 0.5833333333333332593 
	0 0.6666666666666666297 
	0 0.75 
	0 0.8333333333333334814 
	0 0.9166666666666667407 
	0 1 
	0.001000000000000000021 
	spline reversed { ref 4 } I I I I 
	} 0 0 #
pcurve $-1 0 forward { exppc nubs 2 open 7 
	-1 2 -0.8333333333333333703 2 -0.6666666666666667407 2 -0.5 2 -0.3333333333333333703 2 
	-0.1666666666666666297 2 -0 2 
	1.76934915685094607 1 
	1.76934915685094607 0.9166666666666667407 
	1.76934915685094607 0.8333333333333334814 
	1.76934915685094607 0.750000000000000111 
	1.76934915685094607 0.6666666666666667407 
	1.76934915685094607 0.5833333333333333703 
	1.76934915685094607 0.5 
	1.76934915685094607 0.4166666666666666852 
	1.76934915685094607 0.3333333333333333703 
	1.76934915685094607 0.25 
	1.76934915685094607 0.1666666666666666297 
	1.76934915685094607 0.08333333333333331483 
	1.76934915685094607 0 
	0.001000000000000000021 
	spline reversed { ref 4 } I I I I 
	} 0 0 #
pcurve $-1 0 forward { exppc nubs 2 periodic 19 
	0 2 0.08333333333333332871 2 0.125 2 0.1666666666666666574 2 0.2083333333333333148 2 
	0.25 2 0.3333333333333333148 2 0.4166666666666666297 2 0.4583333333333333148 2 0.5 2 
	0.5416666666666666297 2 0.5833333333333332593 2 0.6666666666666666297 2 0.75 2 0.7916666666666667407 2 
	0.8333333333333333703 2 0.875 2 0.9166666666666667407 2 1 2 
	0.7026848049500816762 0.5000009508333983499 
	0.7026848049500823423 0.4498494679625936743 
	0.6792980966866054571 0.4054846946537815078 
	0.6662015400590591829 0.3806404216008482111 
	0.6468430729740352048 0.3602932485504057314 
	0.6266780030938026158 0.3390982766228622936 
	0.6013424024750341212 0.3244707607855357723 
	0.5760068018562707337 0.3098432449482122486 
	0.5475688827944111825 0.3029772681266155732 
	0.5202684804950157282 0.2963859303778803023 
	0.4922044305788462193 0.2974661161627903949 
	0.4420900557285389887 0.2993950193501300205 
	0.398657597524952334 0.324470760785539214 
	0.3552251393213693431 0.349546502220946298 
	0.328497472734545215 0.3919823723424087913 
	0.31352997944592087 0.4157464596104322729 
	0.3055880442315523915 0.4426849704096063043 
	0.2973151950499182128 0.4707459191587469727 
	0.2973151950499182128 0.5000009508333966846 
	0.2973151950499182128 0.5292559825080259683 
	0.3055880442315591083 0.5573169312571899514 
	0.3135299794459329714 0.58425544205638269 
	0.328497472734545104 0.608019529324388297 
	0.3552251393213723407 0.6504553994458585064 
	0.398657597524952334 0.6755311408812642027 
	0.4420900557285321053 0.7006068823166697879 
	0.4922044305788452201 0.7025357855040100796 
	0.5202684804950035158 0.7036159712889199502 
	0.5475688827944111825 0.6970246335401825144 
	0.5760068018562738423 0.6901586567185858945 
	0.6013424024750408936 0.675531140881260872 
	0.6266780030937911805 0.6609036250439456195 
	0.6468430729740353158 0.6397086531163910239 
	0.6662015400590912684 0.6193614800659159592 
	0.6792980966866192238 0.59451720701301769 
	0.7026848049500810101 0.5501524337042347224 
	0.7026848049500816762 0.5000009508333983499 
	0.001000000000000000021 
	spline forward { ref 8 } I I I I 
	} 0 0 #
tvertex-vertex $-1 $53 $79 2.079172373953430806e-14 #
intcurve-curve $-1 forward { exactcur full nurbs 2 periodic 4 
	0 2 0.3333333333333329818 2 0.6666666666666669627 2 1 2 
	-324.7968070096814586 10.12003445229954224 40.44132385618900116 1 
	-325.3213336352645229 11.29357380342525907 39.71903408388823209 0.5 
	-323.9467745144599462 10.82485972671592123 39.46424075103990958 1 
	-322.5722153936554832 10.35614565000658871 39.20944741819165813 0.5 
	-323.4222478888769388 9.651320375590238143 40.18653052334071418 1 
	-324.2722803840984511 8.946495101173875142 41.16361362848981997 0.5 
	-324.7968070096814586 10.12003445229954224 40.44132385618900116 1 
	0 
	null_surface 
	null_surface 
	nullbs 
	nullbs 
	I I 
	0 
	0 
	0 
	F 1 F 0 } I I #
point $-1 -326.4899516468005345 7.12848163097260823 36.81036352109781262 #
tcoedge-coedge $-1 $72 $72 $80 $81 reversed $60 $82 -1 -0 #
tcoedge-coedge $-1 $80 $62 $74 $83 reversed $46 $84 -2.501851166488375799 -0 #
tcoedge-coedge $-1 $62 $80 $73 $83 forward $46 $85 0 2.501851166488375799 #
pcurve $-1 0 forward { exppc nubs 2 periodic 25 
	0 2 0.04166666666666666435 2 0.08333333333333332871 2 0.125 2 0.1666666666666666574 2 
	0.2083333333333333148 2 0.25 2 0.2916666666666666297 2 0.3333333333333333148 2 0.375 2 
	0.4166666666666666297 2 0.4583333333333333148 2 0.5 2 0.5416666666666666297 2 0.5833333333333332593 2 
	0.625 2 0.6666666666666666297 2 0.7083333333333332593 2 0.75 2 0.7916666666666667407 2 
	0.8333333333333333703 2 0.875 2 0.9166666666666667407 2 0.9583333333333333703 2 1 2 
	0 1 
	0 0.9779614324841352513 
	0 0.9583333332923503756 
	0 0.9365443424891697344 
	0 0.9166666666666662966 
	0 0.8952145214521165517 
	0 0.8749999999999457101 
	1.141016599207575296e-31 0.8539518900343379126 
	2.25874714537015486e-31 0.8333333333333334814 
	1.141016599207572012e-31 0.8127147766323269407 
	0 0.7916666666667173669 
	0 0.7714521452145480795 
	0 0.750000000000000111 
	0 0.7301223241774981165 
	0 0.7083333333743192517 
	9.645593447735858116e-32 0.6887052341825319335 
	2.047573346035025758e-31 0.6666666666666639651 
	1.224554590735865642e-26 0.6446280991508018809 
	2.315155286796978623e-26 0.6249999999590191146 
	1.104477751559272183e-26 0.6032110091558369191 
	0 0.5833333333333322601 
	0 0.5618811881187835144 
	0 0.541666666666613561 
	0 0.5206185567010049864 
	0 0.4999999999999999445 
	5.082758458434003706e-28 0.4793814432989949026 
	1.027140771808511981e-27 0.4583333333333867166 
	5.288249518222166471e-28 0.4381188118812168186 
	0 0.4166666666666682395 
	1.532545583950461507e-25 0.3967889908441635805 
	3.212451320029936601e-25 0.3750000000409816625 
	1.69914780571854247e-25 0.3553719008491972309 
	0 0.3333333333333329818 
	2.550027138545039135e-26 0.3112947658174666232 
	4.82114505857650607e-26 0.2916666666256810259 
	2.299996380604958361e-26 0.2698776758225022721 
	1.095199784732272589e-32 0.2500000000000003331 
	5.313345490285161735e-33 0.2285478547854503939 
	0 0.2083333333332791915 
	0 0.1872852233676713385 
	0 0.1666666666666664909 
	0 0.1460481099656612825 
	0 0.1250000000000527356 
	0 0.1047854785478828377 
	0 0.0833333333333341475 
	0 0.06345565751083029338 
	0 0.04166666670764937463 
	0 0.02203856751586461341 
	0 0 
	0.001000000000000000021 
	spline forward { ref 15 } I I I I 
	} 0 0 #
tvertex-vertex $-1 $83 $86 6.135506694409735442e-14 #
intcurve-curve $-1 forward { exactcur full nurbs 2 periodic 4 
	0 2 0.3333333333333329818 2 0.6666666666666669627 2 1 2 
	-325.7974337790217305 10.01383105601568246 40.99542490174702891 1 
	-327.0297604956538748 12.77095304921059338 39.29847199193620355 0.5 
	-323.8003611753143787 11.66975274589250233 38.69985865950587112 1 
	-320.5709618549749393 10.56855244257435089 38.10124532707558132 0.5 
	-322.5680344586822912 8.912630752697545233 40.39681156931673911 1 
	-324.565107062389643 7.256709062820725364 42.69237781155791112 0.5 
	-325.7974337790217305 10.01383105601568246 40.99542490174702891 1 
	0 
	null_surface 
	null_surface 
	nullbs 
	nullbs 
	I I 
	0 
	0 
	0 
	F 1 F 0 } I I #
intcurve-curve $-1 forward { exactcur full nubs 1 open 2 
	0 1 1 1 
	-324.7968070096814586 10.12003445229954224 40.44132385618900116 
	-326.4899516468005345 7.12848163097260823 36.81036352109781262 
	0 
	null_surface 
	null_surface 
	nullbs 
	nullbs 
	I I 
	0 
	0 
	0 
	F 1 F 0 } I I #
point $-1 -324.7968070096814586 10.12003445229954224 40.44132385618900116 #
tcoedge-coedge $-1 $74 $73 $72 $81 forward $46 $87 0 1 #
tedge-edge $-1 $88 0 $88 1 $80 $89 forward 7 unknown 0.0001062896926616057236 #
pcurve $-1 0 forward { exppc nubs 2 periodic 25 
	-1 2 -0.9583333333333333703 2 -0.9166666666666667407 2 -0.875 2 -0.8333333333333333703 2 
	-0.7916666666666667407 2 -0.75 2 -0.7083333333333333703 2 -0.6666666666666667407 2 -0.625 2 
	-0.5833333333333333703 2 -0.5416666666666667407 2 -0.5 2 -0.4583333333333333703 2 -0.4166666666666666852 2 
	-0.375 2 -0.3333333333333333703 2 -0.2916666666666666852 2 -0.25 2 -0.2083333333333333148 2 
	-0.1666666666666666297 2 -0.1249999999999999722 2 -0.08333333333333331483 2 -0.04166666666666665741 2 -0 2 
	0.4999990491666016501 0.02381082672835257291 
	0.5549846386413219701 0.02381082672835346109 
	0.6085232389193271363 0.03634212076181547041 
	0.6680105725615456125 0.05026578079899328422 
	0.7220562374298711283 0.07875573133662069902 
	0.7804255554876542433 0.1095248779172538767 
	0.8282293536840259485 0.1550058030378820562 
	0.8780249768052625914 0.2023817667052185132 
	0.9123909702269592525 0.261905413364176276 
	0.946756963648662131 0.3214290600231449746 
	0.96288794015271717 0.3882413164770530667 
	0.9783736775966149768 0.4523810826728253964 
	0.9758358811593196291 0.5183149682027553551 
	0.9734860696433050853 0.579364862211959597 
	0.9558006461280519339 0.6378442343681083315 
	0.9398837649643251302 0.6904756693086387953 
	0.9123909702269524802 0.7380945866358304963 
	0.8848981754896053653 0.7857135039629778994 
	0.8472764563753186762 0.8258136448700726939 
	0.8054745462483388074 0.8703693569890613713 
	0.7537786928960491517 0.902929300460623141 
	0.6979471712755609403 0.9380940394099195334 
	0.6346576356352869874 0.9567528804850508051 
	0.5687310360099964157 0.9761891732716473369 
	0.4999990491665982639 0.9761891732716473369 
	0.4312670623231805722 0.9761891732716473369 
	0.3653404626979105951 0.9567528804850585766 
	0.302050927057667451 0.9380940394099379631 
	0.2462194054371523444 0.9029293004606266937 
	0.1945235520848692667 0.8703693569890709192 
	0.1527216419578784068 0.8258136448700710286 
	0.1150999228436126176 0.7857135039629987716 
	0.08760712810624571301 0.7380945866358169516 
	0.06011433336887467282 0.6904756693086280261 
	0.04419745220515276102 0.6378442343681139937 
	0.0265120286899000919 0.5793648622119671465 
	0.02416221717388503457 0.5183149682027433647 
	0.02162442073659032876 0.4523810826728227319 
	0.03711015818048623433 0.388241316477062226 
	0.05324113468454601955 0.3214290600231385353 
	0.08760712810624571301 0.261905413364176276 
	0.1219731215279473979 0.2023817667052107416 
	0.1717687446491740211 0.1550058030378841378 
	0.219572542845557328 0.1095248779172450504 
	0.277941860903330229 0.07875573133661627201 
	0.3319875257716266015 0.05026578079900333174 
	0.3914748594138725002 0.03634212076181917578 
	0.4450134596919013141 0.02381082672835166739 
	0.4999990491666016501 0.02381082672835257291 
	0.001000000000000000021 
	spline forward { ref 13 } I I I I 
	} 0 0 #
tedge-edge $-1 $88 0 $76 2.501851166488375799 $74 $90 forward 7 unknown 1.002107134648762282e-09 #
pcurve $-1 0 forward { exppc nubs 2 open 21 
	-2.501851166488375799 2 -2.293363569281011038 2 -2.18911977067732888 2 -2.084875972073646722 2 -1.980632173469964341 2 
	-1.876388374866281961 2 -1.772144576262599802 2 -1.667900777658917422 2 -1.563656979055235041 2 -1.459413180451552661 2 
	-1.2509255832441879 2 -1.042437986036823361 2 -0.9381941874331409803 2 -0.8339503888294587108 2 -0.7297065902257763303 2 
	-0.6254627916220939499 2 -0.5212189930184115694 2 -0.4169751944147291889 2 -0.3127313958110469194 2 -0.2084875972073645944 2 
	-0 2 
	0 0 
	0.1086642169758924303 -2.108499445573516321e-16 
	0.20848759720736465 -4.04545300518025131e-16 
	0.2614300429148868621 3.214375026938999241e-12 
	0.312731395810621593 6.329503901577026572e-12 
	0.3654556560336169602 3.128177633176215821e-12 
	0.4169751944147287448 0 
	0.4694653190634169304 5.217378452115698157e-14 
	0.5212189930184089048 1.036155566864560909e-13 
	0.5734648012745777734 5.168461614602363379e-14 
	0.6254627916220936168 0 
	0.6774607819696096822 5.184703001794804923e-14 
	0.7297065902257782177 1.039411584807212489e-13 
	0.7814602641807701922 5.233773555705304122e-14 
	0.8339503888294583778 0 
	0.8854699272105701624 3.12823740381466307e-12 
	0.9381941874335658627 6.329624840517719068e-12 
	0.9894955403293006491 3.214648189202304988e-12 
	1.042437986036822917 2.570979831492705334e-17 
	1.14226136626829522 1.340000623500389593e-17 
	1.2509255832441879 0 
	1.359589800220080358 -7.484044900355472783e-17 
	1.459413180451552661 -1.435919368943051801e-16 
	1.512355626159074706 3.214971160457032561e-12 
	1.563656979054808938 6.330424825443434602e-12 
	1.616381239277804749 3.128632773655713319e-12 
	1.667900777658916756 0 
	1.720390902307604497 5.288971167374036092e-14 
	1.772144576262596471 1.050373663393824582e-13 
	1.824390384518765451 5.23938309444016035e-14 
	1.876388374866281961 0 
	1.928386365213797804 5.195687325852327598e-14 
	1.980632173469966562 1.041613684652220866e-13 
	2.032385847424959202 5.244861840754548234e-14 
	2.084875972073647166 0 
	2.136395510454758728 3.128888687953175078e-12 
	2.189119770677753873 6.33094263828343131e-12 
	2.240421123573488771 3.215809276378158623e-12 
	2.293363569281011038 1.025073326992911239e-15 
	2.393186949512483341 5.342705844979772969e-16 
	2.501851166488375799 0 
	0.001000000000000000021 
	spline forward { ref 15 } I I I I 
	} 0 0 #
pcurve $-1 0 forward { exppc nubs 2 open 21 
	0 2 0.20848759720736465 2 0.3127313958110469749 2 0.4169751944147292999 2 0.5212189930184116804 2 
	0.6254627916220939499 2 0.7297065902257762193 2 0.8339503888294585998 2 0.9381941874331409803 2 1.042437986036823361 2 
	1.2509255832441879 2 1.459413180451552439 2 1.563656979055234819 2 1.6679007776589172 2 1.77214457626259958 2 
	1.876388374866281961 2 1.980632173469964341 2 2.084875972073646722 2 2.18911977067732888 2 2.293363569281011038 2 
	2.501851166488375799 2 
	2.501851166488375799 1 
	2.393186949512482897 1.000000000000000444 
	2.293363569281011038 1.000000000000000888 
	2.240421123573488771 1.000000000003214984 
	2.189119770677754317 1.000000000006329381 
	2.136395510454758728 1.000000000003128164 
	2.084875972073646722 1 
	2.032385847424958314 1.000000000000051958 
	1.980632173469966784 1.000000000000103251 
	1.928386365213798026 1.000000000000051514 
	1.876388374866282183 1 
	1.824390384518766339 1.000000000000051958 
	1.772144576262597582 1.000000000000103695 
	1.720390902307605607 1.00000000000005218 
	1.667900777658917644 1 
	1.616381239277805193 1.000000000003128164 
	1.563656979054809382 1.000000000006329826 
	1.512355626159074706 1.000000000003214762 
	1.459413180451552439 1 
	1.359589800220080136 1 
	1.2509255832441879 1 
	1.142261366268295442 1.000000000000000222 
	1.042437986036822917 1.000000000000000222 
	0.989495540329300427 1.000000000003214762 
	0.9381941874335656406 1.000000000006329604 
	0.8854699272105699404 1.000000000003128164 
	0.8339503888294580447 1 
	0.7814602641807704142 1.000000000000052403 
	0.7297065902257788839 1.000000000000104139 
	0.6774607819696096822 1.000000000000051958 
	0.6254627916220933947 1 
	0.5734648012745775514 1.000000000000051736 
	0.5212189930184089048 1.000000000000103473 
	0.4694653190634168194 1.000000000000051958 
	0.4169751944147287448 1 
	0.3654556560336171822 1.000000000003128608 
	0.312731395810621815 1.000000000006330492 
	0.2614300429148869176 1.00000000000321454 
	0.2084875972073645667 0.9999999999999988898 
	0.1086642169758924442 0.9999999999999995559 
	0 1 
	0.001000000000000000021 
	spline forward { ref 15 } I I I I 
	} 0 0 #
point $-1 -325.7974337790217305 10.01383105601568246 40.99542490174702891 #
pcurve $-1 0 forward { exppc nubs 2 periodic 25 
	0 2 0.04166666666666666435 2 0.08333333333333332871 2 0.125 2 0.1666666666666666574 2 
	0.2083333333333333148 2 0.25 2 0.2916666666666666297 2 0.3333333333333333148 2 0.375 2 
	0.4166666666666666297 2 0.4583333333333333148 2 0.5 2 0.5416666666666666297 2 0.5833333333333332593 2 
	0.625 2 0.6666666666666666297 2 0.7083333333333332593 2 0.75 2 0.7916666666666667407 2 
	0.8333333333333333703 2 0.875 2 0.9166666666666667407 2 0.9583333333333333703 2 1 2 
	2.501851166488375799 0 
	2.501851166488375799 0.02203856751586552587 
	2.501851166488375799 0.0416666667076509914 
	2.501851166488375355 0.06345565751083084849 
	2.501851166488375799 0.08333333333333375892 
	2.501851166488375799 0.1047854785478839201 
	2.501851166488375799 0.1250000000000550393 
	2.501851166488375799 0.1460481099656623372 
	2.501851166488375799 0.1666666666666664909 
	2.501851166488375355 0.1872852233676723932 
	2.501851166488375799 0.2083333333332813841 
	2.501851166488375799 0.2285478547854497 
	2.501851166488375799 0.2499999999999965583 
	2.501851166488376244 0.2698776758225011063 
	2.501851166488375799 0.2916666666256827467 
	2.501851166488375355 0.3112947658174678445 
	2.501851166488375799 0.3333333333333329818 
	2.501851166488376244 0.3553719008491970088 
	2.501851166488375799 0.375000000040981607 
	2.501851166488375355 0.3967889908441628588 
	2.501851166488375799 0.4166666666666668517 
	2.501851166488375799 0.4381188118812158749 
	2.501851166488375799 0.4583333333333860504 
	2.501851166488376244 0.4793814432989941254 
	2.501851166488375799 0.4999999999999987788 
	2.501851166488375799 0.5206185567010042092 
	2.501851166488375799 0.5416666666666128949 
	2.501851166488375799 0.5618811881187832924 
	2.501851166488375799 0.5833333333333324822 
	2.501851166488375799 0.6032110091558366971 
	2.501851166488375799 0.6249999999590183375 
	2.501851166488376244 0.6446280991508014369 
	2.501851166488375799 0.6666666666666639651 
	2.501851166488375799 0.6887052341825307122 
	2.501851166488375799 0.7083333333743169202 
	2.501851166488375799 0.7301223241774970063 
	2.501851166488375799 0.750000000000000222 
	2.501851166488376244 0.7714521452145488567 
	2.501851166488375799 0.7916666666667186991 
	2.501851166488375799 0.8127147766323277178 
	2.501851166488375799 0.8333333333333334814 
	2.501851166488375355 0.8539518900343386898 
	2.501851166488375799 0.8749999999999473754 
	2.501851166488375799 0.8952145214521172178 
	2.501851166488375799 0.9166666666666658525 
	2.501851166488375355 0.9365443424891695123 
	2.501851166488375799 0.9583333332923505976 
	2.501851166488375799 0.9779614324841353623 
	2.501851166488375799 1 
	0.001000000000000000021 
	spline forward { ref 15 } I I I I 
	} 0 0 #
tvertex-vertex $-1 $81 $91 5.684341886080801487e-14 #
intcurve-curve $-1 forward { exactcur full nurbs 2 periodic 4 
	0 2 0.3333333333333329818 2 0.6666666666666669627 2 1 2 
	-316.548139678519135 -10.67989556846080745 53.73199575240546721 1 
	-317.780466395151393 -7.922773575265888546 52.03504284259462764 0.5 
	-314.55106707481184 -9.023973878583987585 51.43642951016431653 1 
	-311.3216677544724575 -10.12517418190213192 50.83781617773402672 0.5 
	-313.3187403581797525 -11.78109587177893047 53.13338241997517741 1 
	-315.3158129618871044 -13.43701756165576811 55.42894866221636363 0.5 
	-316.548139678519135 -10.67989556846080745 53.73199575240546721 1 
	0 
	null_surface 
	null_surface 
	nullbs 
	nullbs 
	I I 
	0 
	0 
	0 
	F 1 F 0 } I I #
intcurve-curve $-1 forward { exactcur full nurbs 2 open 3 
	0 2 1.2509255832441879 2 2.501851166488375799 2 
	-316.5481396785191919 -10.67989556846080745 53.73199575240546721 1 
	-320.9503157350287097 -18.45793290391101138 44.29149888116837275 0.7071067811865470176 
	-325.574962785279979 -8.111069591672759316 37.92321345583913939 1 
	-330.1996098355312483 2.235793720565469656 31.55492803050994155 0.7071067811865470176 
	-325.7974337790217305 10.01383105601568246 40.99542490174702891 1 
	0 
	null_surface 
	null_surface 
	nullbs 
	nullbs 
	I I 
	0 
	0 
	0 
	F 1 F 0 } I I #
point $-1 -316.548139678519135 -10.67989556846080745 53.73199575240546721 #
End-of-ACIS-data 