600 0 1 0           
82 GICL ACIS Healer - Source: /gicl/data5/repository/SDRC_I-DEAS/bmw/Part65.sat - 6 0 18 ACIS 6.0.3 Solaris 24 Sat Apr 13 23:18:42 2002 
1 9.999999999999999547e-07 1.000000000000000036e-10 
body $-1 $1 $-1 $-1 #
lump $-1 $-1 $2 $0 #
shell $-1 $-1 $-1 $3 $-1 $1 #
face $-1 $4 $5 $2 $-1 $6 forward single #
face $-1 $7 $8 $2 $-1 $9 forward single #
loop $-1 $-1 $10 $3 #
plane-surface $-1 -100 -99.99999999999998579 -9.999999999998001599 -1 9.126408003413926017e-16 4.05238566708863408e-13 4.05238566708863408e-13 -0 1 forward_v I I I I #
face $-1 $-1 $11 $2 $-1 $12 reversed single #
loop $-1 $-1 $13 $4 #
cone-surface $-1 -83.73585656469573735 -100.0000000000000142 -10.00000000000460432 1 -1.142106858929244095e-15 -4.052187001141204008e-13 8.952838470577262342e-13 -7.418191287679846369 2.243421052631573431 1 I I 0 1 7.749999999999983125 forward I I I I #
coedge $-1 $10 $10 $14 $15 reversed $5 $-1 #
loop $-1 $-1 $16 $7 #
sphere-surface $-1 -24.999999959407603 -99.99909897332368303 -10.00000000002842526 -10.0000000000000604 -0.4935119672180149908 -0.8631010309628376342 0.1072499350279145364 -0.2123629481793715135 0 -0.9771908607025373561 forward_v I I I I #
coedge $-1 $17 $18 $16 $19 forward $8 $-1 #
coedge $-1 $18 $20 $10 $15 forward $8 $-1 #
edge $-1 $21 -7.560304699377600635 $21 -1.277119392198014403 $10 $22 reversed 7 unknown #
coedge $-1 $23 $24 $13 $19 reversed $11 $-1 #
coedge $-1 $20 $13 $23 $25 forward $8 $-1 #
coedge $-1 $13 $14 $20 $26 forward $8 $-1 #
edge $-1 $27 -37.22798499748820689 $28 -25.55069731360865504 $13 $29 reversed 7 unknown #
coedge $-1 $14 $17 $18 $26 reversed $8 $-1 #
vertex $-1 $15 $30 #
ellipse-curve $-1 -100 -100 -9.999999999998014033 -1 9.126408003413926017e-16 4.05238566708863408e-13 8.952838470577262342e-13 -7.418191287679846369 2.243421052631573431 1 I I #
coedge $-1 $31 $16 $17 $25 reversed $11 $-1 #
coedge $-1 $16 $31 $31 $32 forward $11 $-1 #
edge $-1 $28 -25.55069731360865504 $27 9.481165734616304519 $17 $33 reversed 7 unknown #
edge $-1 $21 0 $27 0.9567013212499080321 $18 $34 forward 7 unknown #
vertex $-1 $25 $35 #
vertex $-1 $32 $36 #
intcurve-curve $-1 forward { surfintcur full nubs 3 open 10 
	25.55069731360865504 3 26.27389726838473649 2 27.73355821955047062 2 29.19321917071620476 2 30.65288013552373414 2 
	32.11254110033126352 2 33.57220206513879646 2 35.03186302994632229 2 36.49152399953792525 2 37.22798499748820689 3 
	-18.67928284249961735 -92.25012752967040797 -9.999999999180676724 
	-18.67928284224982605 -92.25012582746660428 -9.744691190449634277 
	-18.67928462853826588 -92.26265674094841529 -9.488576102717004801 
	-18.679295517753296 -92.33904507849700849 -8.719672331754569683 
	-18.67931023082593001 -92.44225684837289236 -8.210278385011777758 
	-18.67935295372877746 -92.74195642000947259 -7.235332136402509384 
	-18.67938096947361259 -92.93848506039535096 -6.769792388843607789 
	-18.67944646556556876 -93.3979317235384201 -5.911977381331665171 
	-18.67948618308704312 -93.67654328274670661 -5.490401331252174444 
	-18.67957819980779277 -94.32201666053859412 -4.70065190755763318 
	-18.67963049454069591 -94.68884539743422124 -4.332451496388264545 
	-18.67974445250963811 -95.48821520599071278 -3.677558444828377571 
	-18.67980620763382404 -95.92139286396857756 -3.39034427249066983 
	-18.67993470262280908 -96.8227035701457055 -2.912872767964894916 
	-18.68000144568054566 -97.29085661828131038 -2.722653190100039033 
	-18.68013424085458496 -98.22230127798215449 -2.440964234140575506 
	-18.68020482891580158 -98.71740868328514296 -2.339873074080843551 
	-18.68031367640187312 -99.48085550569427937 -2.263127437473380965 
	-18.68035062539431124 -99.74000969379000026 -2.2501292630461176 
	-18.68038769387295162 -100.0000000008503491 -2.250127529598336285 
	0.0002350367877526741175 
	cone -83.73585656469573735 -100.0000000000000142 -10.00000000000460432 1 -1.142106858929244095e-15 -4.052187001141204008e-13 8.952838470577262342e-13 -7.418191287679846369 2.243421052631573431 1 I I 0 1 7.749999999999983125 forward I I I I 
	sphere -24.999999959407603 -99.99909897332368303 -10.00000000002842526 -10.0000000000000604 -0.4935119672180149908 -0.8631010309628376342 0.1072499350279145364 -0.2123629481793715135 0 -0.9771908607025373561 forward_v I I I I 
	nullbs 
	nullbs 
	I I 
	0 
	0 
	0 
	} I I #
point $-1 -99.99999999999687361 -99.99999999999997158 -2.249999999998001599 #
coedge $-1 $24 $23 $24 $32 reversed $11 $-1 #
edge $-1 $37 0 $28 0.5611707963958060263 $24 $38 forward 7 unknown #
intcurve-curve $-1 forward { surfintcur full nubs 3 open 26 
	-9.481165734616304519 3 -8.757965762974983193 2 -7.298304793383387334 2 -5.838643823791784371 2 -4.378982867843838278 2 
	-2.919321911895892185 2 -1.459660955947946093 2 0 3 1.459660954397207888 2 2.919321908794415776 2 
	4.378982863191623665 2 5.838643817588831553 2 7.298304779169065171 2 8.757965740749305894 2 10.21762670232953951 2 
	11.67728766390977313 2 13.13694863026916693 2 14.59660959662855362 2 16.05627056298794386 2 17.51593152934733411 2 
	18.97559248852381586 2 20.43525344770029761 2 21.89491440687677937 2 23.35457536605326467 2 24.81423631721899881 2 
	25.55069731360865504 3 
	-18.68038769387295162 -100.0000000008503491 -2.250127529598336285 
	-18.68042409488098343 -100.255308813151828 -2.250125827363744335 
	-18.6804606111109166 -100.5114239044946771 -2.262656741200994137 
	-18.6805702398901623 -101.2803276808256641 -2.339045080766966045 
	-18.68064287034073345 -101.7897216294811074 -2.442256851665844941 
	-18.68078188166939668 -102.7646678820064636 -2.741956426873243924 
	-18.68084826116237451 -103.2302076316477724 -2.938485069551247442 
	-18.68097057531472416 -104.0880226356110825 -3.397931734460735154 
	-18.68103068792698807 -104.5095986811274145 -3.676543291891565257 
	-18.68114329990347855 -105.2993480979526453 -4.322016666026366138 
	-18.68119580329973672 -105.6675485067841436 -4.688845401079916542 
	-18.68128918767249758 -106.3224415554910394 -5.488215206593144657 
	-18.68133014392755697 -106.6096557271830534 -5.921392863477127122 
	-18.68139823054798043 -107.0871272314176537 -6.822703568800284835 
	-18.6814253558002541 -107.2773468095944338 -7.290856617199208856 
	-18.68144544024089271 -107.4181912876799458 -7.756578947399392909 
	-18.68146552468151 -107.5590357656158176 -8.222301277104794082 
	-18.68147994038412207 -107.6601269256261446 -8.717408681656998226 
	-18.68149448834132187 -107.7621454948961457 -9.732264453772261348 
	-18.68149462657147808 -107.7631154146099703 -10.25200854751408386 
	-18.68148005844760462 -107.6609549203927116 -11.28032767573629513 
	-18.681465340350492 -107.5577431497174814 -11.78972162341822028 
	-18.68142260316453473 -107.2580435762381512 -12.76466787371153622 
	-18.68139457826970329 -107.0615149347485442 -13.23020762199676348 
	-18.68132906198441034 -106.6020682701808653 -14.08802262874571376 
	-18.68128933271383119 -106.3234567109868323 -14.50959867747027232 
	-18.68119729107500149 -105.6779833336080827 -15.29934809867300949 
	-18.68114498310428573 -105.3111545967446148 -15.66754850840586499 
	-18.68103099987829196 -104.5117847898742127 -16.3224415586583973 
	-18.68096923273694188 -104.078607132408095 -16.60965572972349946 
	-18.68084071671186308 -103.1772964278945324 -17.08712723290264535 
	-18.68077396474555485 -102.7091433806883032 -17.2773468102735599 
	-18.68064115612863318 -101.7776987230501931 -17.55903576560920953 
	-18.68057056306323815 -101.2825913188972891 -17.66012692553966446 
	-18.68042586619641199 -100.267735547641152 -17.76214549485281324 
	-18.68035176259508034 -99.7479914543317534 -17.76311541441788222 
	-18.68020515195674847 -98.71967232654421309 -17.66095492105029052 
	-18.68013252671481794 -98.21027837901698376 -17.55774315033550792 
	-18.6799935296692361 -97.23533212810818327 -17.25804357697073854 
	-18.67992715932618708 -96.76979237913431575 -17.06151493536857799 
	-18.67980486536686158 -95.91197737440663218 -16.60206827188346779 
	-18.67974476450351418 -95.49040132760592314 -16.32345671448107893 
	-18.67963217744481241 -94.7006519083367948 -15.67798334000292826 
	-18.67957968710211603 -94.33245149859246226 -15.31115460427584907 
	-18.67948632798628239 -93.67755844728974068 -14.51178479813152222 
	-18.67944538393249942 -93.39034427505656311 -14.07860714034818805 
	-18.67937731834820525 -92.91287276941626772 -13.17729643329955991 
	-18.6793502020045743 -92.72265319071738077 -12.70914338389308895 
	-18.67931004656649208 -92.44096423469611068 -11.77769872398790874 
	-18.67929563586823605 -92.33987307479998208 -11.28259132052182778 
	-18.67928469566541594 -92.26312743763338631 -10.51914449809490293 
	-18.67928284275398454 -92.25012926308687611 -10.25999030811720658 
	-18.67928284249961735 -92.25012752967040797 -9.999999999180676724 
	0.0002350367877526741175 
	cone -83.73585656469573735 -100.0000000000000142 -10.00000000000460432 1 -1.142106858929244095e-15 -4.052187001141204008e-13 8.952838470577262342e-13 -7.418191287679846369 2.243421052631573431 1 I I 0 1 7.749999999999983125 forward I I I I 
	sphere -24.999999959407603 -99.99909897332368303 -10.00000000002842526 -10.0000000000000604 -0.4935119672180149908 -0.8631010309628376342 0.1072499350279145364 -0.2123629481793715135 0 -0.9771908607025373561 forward_v I I I I 
	nullbs 
	nullbs 
	I I 
	0 
	0 
	0 
	} I I #
intcurve-curve $-1 forward { exactcur full nubs 1 open 2 
	0 1 0.9567013212499080321 1 
	-99.99999999999687361 -99.99999999999997158 -2.249999999998001599 
	-18.68038769375465336 -100.0000000000000711 -2.250000000030956571 
	0 
	null_surface 
	null_surface 
	nullbs 
	nullbs 
	I I 
	0 
	0 
	0 
	F 1 F 0 } I I #
point $-1 -18.68038769375463914 -100.0000000000000711 -2.250000000030956571 #
point $-1 -18.67928282433220488 -92.25000000000007105 -10.00000000003094236 #
vertex $-1 $32 $39 #
intcurve-curve $-1 forward { exactcur full nurbs 2 open 2 
	0 2 0.5611707963958060263 2 
	-15 -100.0000000000002274 -10.00000000003245226 1 
	-14.99957214154848728 -95.2514341596176024 -10.0000000000324647 0.8356368791395250017 
	-18.67928282433217646 -92.25000000000005684 -10.00000000003097433 0.8557453251417960205 
	0 
	null_surface 
	null_surface 
	nullbs 
	nullbs 
	I I 
	0 
	0 
	0 
	F 1 F 0 } I I #
point $-1 -15 -100.0000000000002274 -10.00000000003245226 #
End-of-ACIS-data 