600 0 1 0           
110 GICL Pro/E ACIS Translator - Source: f:/data5/repository/PTC/V18/web_pub18/web_pub_models/b101345p01.prt - 6 0 13 ACIS 6.0.3 NT 24 Thu Apr 04 13:17:49 2002 
1 9.9999999999999995e-007 1e-010 
body $-1 $1 $-1 $2 #
lump $-1 $-1 $3 $0 #
transform $-1 1 0 0 0 1 0 0 0 1 0 0 0 25.399999999999999 no_rotate no_reflect no_shear #
shell $-1 $-1 $-1 $4 $-1 $1 #
face $-1 $5 $6 $3 $-1 $7 reversed single #
face $-1 $8 $9 $3 $-1 $10 forward single #
loop $-1 $-1 $11 $4 #
plane-surface $-1 0 0 0 0 1 0 1 0 0 forward_v I I I I #
face $-1 $12 $13 $3 $-1 $14 forward single #
loop $-1 $-1 $15 $5 #
cone-surface $-1 0 -0.036771243444677082 0 0 1 0 0.125 0 0 1 I I 0 1 0.125 forward I I I I #
coedge $-1 $16 $16 $15 $17 reversed $6 $-1 #
face $-1 $18 $19 $3 $-1 $20 reversed single #
loop $-1 $-1 $21 $8 #
cone-surface $-1 0 -0.036771243444677082 0 0 1 0 0.125 0 0 1 I I 0 1 0.125 forward I I I I #
coedge $-1 $22 $23 $11 $17 forward $9 $-1 #
coedge $-1 $11 $11 $24 $25 forward $6 $-1 #
edge $-1 $26 0 $27 3.1415926535897931 $11 $28 forward 7 unknown #
face $-1 $29 $30 $3 $-1 $31 forward single #
loop $-1 $32 $33 $12 #
plane-surface $-1 0 0.59999999999999998 0 0 1 0 1 0 0 forward_v I I I I #
coedge $-1 $34 $35 $36 $37 forward $13 $-1 #
coedge $-1 $38 $15 $34 $39 forward $9 $-1 #
coedge $-1 $15 $38 $35 $40 reversed $9 $-1 #
coedge $-1 $35 $34 $16 $25 reversed $13 $-1 #
edge $-1 $26 0 $27 3.1415926535897931 $16 $41 forward 7 unknown #
vertex $-1 $25 $42 #
vertex $-1 $25 $43 #
ellipse-curve $-1 -6.9388939039072284e-018 0 0 0 1 0 0.125 0 0 1 I I #
face $-1 $-1 $44 $3 $-1 $45 forward single #
loop $-1 $-1 $46 $18 #
sphere-surface $-1 0 0.33542486889354084 0 0.39999999999999997 1 0 0 0 0 1 forward_v I I I I #
loop $-1 $-1 $47 $12 #
coedge $-1 $48 $48 $49 $50 forward $19 $-1 #
coedge $-1 $24 $21 $22 $39 reversed $13 $-1 #
coedge $-1 $21 $24 $23 $40 forward $13 $-1 #
coedge $-1 $47 $47 $21 $37 reversed $32 $-1 #
edge $-1 $51 0 $52 3.1415926535897931 $36 $53 forward 7 unknown #
coedge $-1 $23 $22 $47 $54 reversed $9 $-1 #
edge $-1 $27 0 $52 0.59999999999999998 $22 $55 forward 7 unknown #
edge $-1 $26 0 $51 0.59999999999999998 $23 $56 forward 7 unknown #
ellipse-curve $-1 -6.9388939039072284e-018 0 0 0 -1 0 0.125 0 0 1 I I #
point $-1 0.125 0 0 #
point $-1 -0.125 0 1.5307579422779716e-017 #
loop $-1 $-1 $57 $29 #
sphere-surface $-1 0 0.33542486889354084 0 0.39999999999999997 1 0 0 0 0 1 forward_v I I I I #
coedge $-1 $49 $58 $59 $60 reversed $30 $-1 #
coedge $-1 $36 $36 $38 $54 forward $32 $-1 #
coedge $-1 $33 $33 $57 $61 reversed $19 $-1 #
coedge $-1 $58 $46 $33 $50 reversed $30 $-1 #
edge $-1 $62 0 $63 3.1415926535897931 $33 $64 forward 7 unknown #
vertex $-1 $40 $65 #
vertex $-1 $54 $66 #
ellipse-curve $-1 0 0.59999999999999998 0 0 -1 0 0.125 0 0 1 I I #
edge $-1 $51 0 $52 3.1415926535897931 $38 $67 forward 7 unknown #
straight-curve $-1 -0.125 0 1.5307579422779716e-017 0 1 0 I I #
straight-curve $-1 0.125 0 0 0 1 0 I I #
coedge $-1 $59 $68 $48 $61 forward $44 $-1 #
coedge $-1 $46 $49 $68 $69 forward $30 $-1 #
coedge $-1 $68 $57 $46 $60 forward $44 $-1 #
edge $-1 $63 0 $70 0.848062078981481 $59 $71 forward 7 unknown #
edge $-1 $62 0 $63 3.1415926535897931 $48 $72 forward 7 unknown #
vertex $-1 $61 $73 #
vertex $-1 $61 $74 #
ellipse-curve $-1 1.3877787807814457e-017 0.59999999999999998 0 -3.7007434154171896e-016 -1 0 0.29999999999999993 -1.1102230246251565e-016 0 1 I I #
point $-1 0.125 0.59999999999999998 0 #
point $-1 -0.125 0.59999999999999998 0 #
ellipse-curve $-1 0 0.59999999999999998 0 0 1 0 0.125 0 0 1 I I #
coedge $-1 $57 $59 $58 $69 reversed $44 $-1 #
edge $-1 $62 0 $70 0.84806207898148089 $68 $75 forward 7 unknown #
vertex $-1 $69 $76 #
ellipse-curve $-1 0 0.33542486889354084 0 -1.2246063538223773e-016 9.6296497219361847e-033 -1 -0.29999999999999993 0.26457513110645903 3.6738190614671308e-017 1 I I #
ellipse-curve $-1 1.3877787807814457e-017 0.59999999999999998 0 3.7007434154171896e-016 1 0 0.29999999999999993 -1.1102230246251565e-016 0 1 I I #
point $-1 0.29999999999999993 0.59999999999999987 0 #
point $-1 -0.29999999999999993 0.59999999999999987 -3.6738190614671308e-017 #
ellipse-curve $-1 0 0.33542486889354084 0 0 0 1 0.29999999999999993 0.26457513110645903 0 1 I I #
point $-1 2.4492127076447543e-017 0.73542486889354075 0 #
End-of-ACIS-data 