600 0 1 0           
107 GICL ACIS Healer - Source: /gicl/data5/repository/PTC/V18/web_pub18/web_pub_models/b101345p01.prt.sat - 6 0 18 ACIS 6.0.3 Solaris 24 Sat Apr 13 20:57:50 2002 
1 9.999999999999999547e-07 1.000000000000000036e-10 
body $-1 $1 $-1 $-1 #
lump $-1 $-1 $2 $0 #
shell $-1 $-1 $-1 $3 $-1 $1 #
face $-1 $4 $5 $2 $-1 $6 reversed single #
face $-1 $7 $8 $2 $-1 $9 forward single #
loop $-1 $-1 $10 $3 #
plane-surface $-1 0 0 0 0 1 0 25.39999999999999858 0 0 forward_v I I I I #
face $-1 $11 $12 $2 $-1 $9 forward single #
loop $-1 $-1 $13 $4 #
cone-surface $-1 0 -0.9339895834947978814 0 0 1 0 3.174999999999999822 0 0 1 I I 0 1 3.174999999999999822 forward I I I I #
coedge $-1 $14 $14 $13 $15 reversed $5 $-1 #
face $-1 $16 $17 $2 $-1 $18 reversed single #
loop $-1 $-1 $19 $7 #
coedge $-1 $20 $21 $10 $15 forward $8 $-1 #
coedge $-1 $10 $10 $22 $23 forward $5 $-1 #
edge $-1 $24 0 $25 3.141592653589793116 $10 $26 forward 7 unknown #
face $-1 $27 $28 $2 $-1 $29 forward single #
loop $-1 $30 $31 $11 #
plane-surface $-1 0 15.23999999999999844 0 0 1 0 25.39999999999999858 0 0 forward_v I I I I #
coedge $-1 $32 $33 $34 $35 forward $12 $-1 #
coedge $-1 $36 $13 $32 $37 forward $8 $-1 #
coedge $-1 $13 $36 $33 $38 reversed $8 $-1 #
coedge $-1 $33 $32 $14 $23 reversed $12 $-1 #
edge $-1 $24 -0 $25 3.141592653589793116 $14 $39 reversed 7 unknown #
vertex $-1 $23 $40 #
vertex $-1 $23 $41 #
ellipse-curve $-1 0 0 0 0 1 0 3.174999999999999822 0 0 1 I I #
face $-1 $-1 $42 $2 $-1 $29 forward single #
loop $-1 $-1 $43 $16 #
sphere-surface $-1 0 8.519791669895937503 0 10.15999999999999837 1 0 0 0 0 1 forward_v I I I I #
loop $-1 $-1 $44 $11 #
coedge $-1 $45 $45 $46 $47 forward $17 $-1 #
coedge $-1 $22 $19 $20 $37 reversed $12 $-1 #
coedge $-1 $19 $22 $21 $38 forward $12 $-1 #
coedge $-1 $44 $44 $19 $35 reversed $30 $-1 #
edge $-1 $48 -0 $49 3.141592653589793116 $34 $50 reversed 7 unknown #
coedge $-1 $21 $20 $44 $51 reversed $8 $-1 #
edge $-1 $25 0 $49 0.5999999999999999778 $20 $52 forward 7 unknown #
edge $-1 $24 0 $48 0.5999999999999999778 $21 $53 forward 7 unknown #
ellipse-curve $-1 0 0 0 0 1 0 3.174999999999999822 0 0 1 I I #
point $-1 3.174999999999999822 0 0 #
point $-1 -3.174999999999999822 0 3.888125173386047696e-16 #
loop $-1 $-1 $54 $27 #
coedge $-1 $46 $55 $56 $57 reversed $28 $-1 #
coedge $-1 $34 $34 $36 $51 forward $30 $-1 #
coedge $-1 $31 $31 $54 $58 reversed $17 $-1 #
coedge $-1 $55 $43 $31 $47 reversed $28 $-1 #
edge $-1 $59 -4.712388980384689674 $60 -1.570796326794896558 $31 $61 reversed 7 unknown #
vertex $-1 $38 $62 #
vertex $-1 $51 $63 #
ellipse-curve $-1 0 15.24000000000000021 0 0 1 0 3.174999999999999822 0 0 1 I I #
edge $-1 $48 -0 $49 3.141592653589793116 $36 $64 reversed 7 unknown #
straight-curve $-1 -3.174999999999999822 0 3.888125173386047696e-16 0 25.39999999999999858 0 I I #
straight-curve $-1 3.174999999999999822 0 0 0 25.39999999999999858 0 I I #
coedge $-1 $56 $65 $45 $58 forward $42 $-1 #
coedge $-1 $43 $46 $65 $66 forward $28 $-1 #
coedge $-1 $65 $54 $43 $57 forward $42 $-1 #
edge $-1 $60 -1.376679303893802929e-16 $67 0.8480620789814808935 $56 $68 forward 7 unknown #
edge $-1 $59 -1.570796326794896558 $60 1.570796326794896558 $45 $69 forward 7 unknown #
vertex $-1 $58 $70 #
vertex $-1 $58 $71 #
ellipse-curve $-1 0 15.23999999999999844 0 0 1 0 0 0 -7.619999999999997442 1 I I #
point $-1 3.174999999999999822 15.23999999999999844 0 #
point $-1 -3.174999999999999822 15.23999999999999844 0 #
ellipse-curve $-1 0 15.24000000000000021 0 -0 -1 -0 3.174999999999999822 0 0 1 I I #
coedge $-1 $54 $56 $55 $66 reversed $42 $-1 #
edge $-1 $59 -1.376679303893802929e-16 $67 0.8480620789814808935 $65 $72 forward 7 unknown #
vertex $-1 $66 $73 #
ellipse-curve $-1 0 8.519791669895937503 0 -1.224606353822377258e-16 9.629649721936184739e-33 -1 -7.619999999999997442 6.720208330104059158 9.33150041612651171e-16 1 I I #
ellipse-curve $-1 0 15.23999999999999844 0 0 1 0 0 0 -7.619999999999997442 1 I I #
point $-1 7.619999999999997442 15.23999999999999488 0 #
point $-1 -7.619999999999997442 15.23999999999999488 -9.33150041612651171e-16 #
ellipse-curve $-1 0 8.519791669895937503 0 0 0 1 7.619999999999997442 6.720208330104059158 0 1 I I #
point $-1 6.221000277417675131e-16 18.67979166989593409 0 #
End-of-ACIS-data 