700 0 2 0           
24 FBMach with ACIS - 7.0.3 13 ACIS 7.0.3 NT 24 Wed May 15 11:12:17 2002 
1 9.9999999999999995e-007 1e-010 
body $2 -1 $-1 $3 $-1 $4 #
bdycol-kcp $-1 -1 1 3 $5 $6 $7 #
model_id-kcp-attrib $-1 -1 $-1 $-1 $0 1 1021475536 1021475536 526712833 1 #
lump $-1 -1 $-1 $-1 $8 $0 #
transform $-1 -1 1.0000000000000004 0 5.5511151231257827e-017 0 1 0 -5.5511151231257827e-017 0 1.0000000000000004 0 0 0 1 rotate no_reflect no_shear #
body $9 -1 $-1 $10 $-1 $11 #
body $12 -1 $-1 $13 $-1 $14 #
body $15 -1 $-1 $16 $-1 $17 #
shell $-1 -1 $-1 $-1 $-1 $18 $-1 $3 #
model_id-kcp-attrib $-1 -1 $-1 $-1 $5 1 1021475536 1021475536 526712834 1 #
lump $-1 -1 $-1 $-1 $19 $5 #
transform $-1 -1 1 0 0 0 1 0 0 0 1 -8.8817841970012523e-016 -8.8899999999999988 1.7763568394002505e-015 1 no_rotate no_reflect no_shear #
rgb_color-st-attrib $-1 -1 $20 $-1 $6 0.5 1 1 #
lump $-1 -1 $-1 $21 $22 $6 #
transform $-1 -1 1 0 0 0 1 0 0 0 1 -8.8817841970012523e-016 -8.8899999999999988 1.7763568394002505e-015 1 no_rotate no_reflect no_shear #
rgb_color-st-attrib $-1 -1 $23 $-1 $7 1 0.5 1 #
lump $-1 -1 $-1 $-1 $24 $7 #
transform $-1 -1 1 0 0 0 1 0 0 0 1 -8.8817841970012523e-016 -8.8899999999999988 1.7763568394002505e-015 1 no_rotate no_reflect no_shear #
face $25 -1 $-1 $26 $27 $8 $-1 $28 reversed single #
shell $-1 -1 $-1 $-1 $-1 $29 $-1 $10 #
model_id-kcp-attrib $-1 -1 $-1 $12 $6 1 1021475536 1021475536 534642691 1 #
lump $-1 -1 $-1 $-1 $30 $6 #
shell $-1 -1 $-1 $-1 $-1 $31 $-1 $13 #
model_id-kcp-attrib $-1 -1 $-1 $15 $7 1 1021475536 1021475537 533200900 1 #
shell $-1 -1 $-1 $-1 $-1 $32 $-1 $16 #
model_id-kcp-attrib $-1 -1 $-1 $-1 $18 1 1021475536 1021475536 526712833 2 #
face $33 -1 $-1 $34 $35 $8 $-1 $36 forward single #
loop $-1 -1 $-1 $-1 $37 $18 #
plane-surface $-1 -1 $-1 0 -17.779999999999998 0 0 1 0 25.399999999999999 0 0 forward_v I I I I #
face $38 -1 $-1 $39 $40 $19 $-1 $41 forward single #
shell $-1 -1 $-1 $-1 $-1 $42 $-1 $21 #
face $-1 -1 $-1 $43 $44 $22 $-1 $45 reversed single #
face $-1 -1 $-1 $46 $47 $24 $-1 $48 forward single #
model_id-kcp-attrib $-1 -1 $-1 $-1 $26 1 1021475536 1021475536 526712833 3 #
face $49 -1 $-1 $50 $51 $8 $-1 $52 forward single #
loop $-1 -1 $-1 $-1 $53 $26 #
cone-surface $-1 -1 $-1 0 -18.668999999999997 0 0 1 0 3.1749999999999998 0 0 1 I I 0 1 3.1749999999999998 forward I I I I #
coedge $-1 -1 $-1 $54 $54 $53 $55 reversed $27 $-1 #
model_id-kcp-attrib $-1 -1 $-1 $-1 $29 1 1021475536 1021475536 526712834 4 #
face $56 -1 $-1 $57 $58 $19 $-1 $59 reversed single #
loop $-1 -1 $-1 $-1 $60 $29 #
plane-surface $-1 -1 $-1 0 0 5.4992613140311883 0 0 1 1 0 0 forward_v I I I I #
face $-1 -1 $-1 $61 $62 $30 $-1 $63 reversed single #
face $-1 -1 $-1 $64 $65 $22 $-1 $66 reversed single #
loop $-1 -1 $-1 $-1 $67 $31 #
plane-surface $-1 -1 $-1 6.3499999999999996 -8.8899999999999988 -1.7763568394002505e-015 0.86602540378443882 0 -0.49999999999999983 0 1 0 forward_v I I I I #
face $-1 -1 $-1 $68 $69 $24 $-1 $70 forward single #
loop $-1 -1 $-1 $71 $72 $32 #
cone-surface $-1 -1 $-1 8.8817841970012523e-016 3.8099999999999987 -1.7763568394002505e-015 0 -1 0 3.1749999999999998 0 0 1 I I 0 -1 3.1749999999999998 forward I I I I #
model_id-kcp-attrib $-1 -1 $-1 $-1 $34 1 1021475536 1021475536 526712833 4 #
face $73 -1 $-1 $74 $75 $8 $-1 $76 reversed single #
loop $-1 -1 $-1 $-1 $77 $34 #
cone-surface $-1 -1 $-1 0 -18.668999999999997 0 0 1 0 3.1749999999999998 0 0 1 I I 0 1 3.1749999999999998 forward I I I I #
coedge $-1 -1 $-1 $78 $79 $37 $55 forward $35 $-1 #
coedge $-1 -1 $-1 $37 $37 $80 $81 forward $27 $-1 #
edge $82 -1 $-1 $83 0 $84 3.1415926535897931 $37 $85 forward @7 unknown #
model_id-kcp-attrib $-1 -1 $-1 $-1 $39 1 1021475536 1021475536 526712834 3 #
face $86 -1 $-1 $87 $88 $19 $-1 $89 reversed single #
loop $-1 -1 $-1 $-1 $90 $39 #
plane-surface $-1 -1 $-1 0 0 -5.4992613140311883 0 0 1 1 0 0 forward_v I I I I #
coedge $-1 -1 $-1 $91 $92 $93 $94 forward $40 $-1 #
face $-1 -1 $-1 $95 $96 $30 $-1 $97 forward single #
loop $-1 -1 $-1 $-1 $98 $42 #
plane-surface $-1 -1 $-1 -6.3500000000000005 0 0 1 0 0 0 0 -1 forward_v I I I I #
face $-1 -1 $-1 $99 $100 $22 $-1 $101 reversed single #
loop $-1 -1 $-1 $-1 $102 $43 #
plane-surface $-1 -1 $-1 3.1750000000000007 -8.8899999999999988 5.4992613140311883 0.86602540378443871 0 0.49999999999999989 0 1 0 forward_v I I I I #
coedge $-1 -1 $-1 $103 $104 $105 $106 reversed $44 $-1 #
face $-1 -1 $-1 $107 $108 $24 $-1 $109 forward single #
loop $-1 -1 $-1 $-1 $110 $46 #
plane-surface $-1 -1 $-1 -3.1749999999999989 3.8099999999999996 5.4992613140311875 0 0 1 1 0 0 forward_v I I I I #
loop $-1 -1 $-1 $-1 $111 $32 #
coedge $-1 -1 $-1 $72 $72 $112 $113 forward $47 $-1 #
model_id-kcp-attrib $-1 -1 $-1 $-1 $50 1 1021475536 1021475536 526712833 5 #
face $114 -1 $-1 $115 $116 $8 $-1 $117 reversed single #
loop $-1 -1 $-1 $118 $119 $50 #
plane-surface $-1 -1 $-1 0 -5.0799999999999992 0 0 1 0 25.399999999999999 0 0 forward_v I I I I #
coedge $-1 -1 $-1 $120 $121 $122 $123 forward $51 $-1 #
coedge $-1 -1 $-1 $124 $53 $120 $125 forward $35 $-1 #
coedge $-1 -1 $-1 $53 $124 $121 $126 reversed $35 $-1 #
coedge $-1 -1 $-1 $121 $120 $54 $81 reversed $51 $-1 #
edge $127 -1 $-1 $83 0 $84 3.1415926535897931 $54 $128 forward @7 unknown #
attrib_edge_convexity-kcp-attrib $-1 -1 $129 $-1 $55 1 #
vertex $-1 -1 $-1 $81 $130 #
vertex $-1 -1 $-1 $81 $131 #
ellipse-curve $-1 -1 $-1 -1.7624790515924359e-016 -17.779999999999998 0 0 1 0 3.1749999999999998 0 0 1 I I #
model_id-kcp-attrib $-1 -1 $-1 $-1 $57 1 1021475536 1021475536 526712834 2 #
face $-1 -1 $-1 $132 $133 $19 $-1 $134 reversed single #
loop $-1 -1 $-1 $-1 $135 $57 #
plane-surface $-1 -1 $-1 0 -8.8899999999999988 0 0 1 0 0 0 1 forward_v I I I I #
coedge $-1 -1 $-1 $136 $137 $138 $139 forward $58 $-1 #
coedge $-1 -1 $-1 $140 $60 $141 $142 forward $40 $-1 #
coedge $-1 -1 $-1 $60 $140 $143 $144 forward $40 $-1 #
coedge $-1 -1 $-1 $145 $146 $60 $94 reversed $147 $-1 #
edge $-1 -1 $-1 $148 -8.8899999999999988 $149 8.8899999999999988 $93 $150 forward @7 unknown #
face $-1 -1 $-1 $151 $152 $30 $-1 $153 reversed single #
loop $-1 -1 $-1 $-1 $154 $61 #
plane-surface $-1 -1 $-1 0 0 5.4992613140311883 0 0 1 1 0 0 forward_v I I I I #
coedge $-1 -1 $-1 $155 $156 $157 $158 forward $62 $-1 #
face $-1 -1 $-1 $159 $160 $22 $-1 $161 reversed single #
loop $-1 -1 $-1 $-1 $162 $64 #
plane-surface $-1 -1 $-1 6.3500000000000005 0 0 -1 0 0 0 0 1 forward_v I I I I #
coedge $-1 -1 $-1 $163 $164 $165 $166 reversed $65 $-1 #
coedge $-1 -1 $-1 $167 $67 $168 $169 reversed $44 $-1 #
coedge $-1 -1 $-1 $67 $167 $164 $170 forward $44 $-1 #
coedge $-1 -1 $-1 $171 $172 $67 $106 forward $173 $-1 #
edge $-1 -1 $-1 $174 -4.762500000000002 $175 1.5874999999999986 $105 $176 forward @7 unknown #
face $-1 -1 $-1 $177 $178 $24 $-1 $179 forward single #
loop $-1 -1 $-1 $-1 $180 $68 #
plane-surface $-1 -1 $-1 3.1750000000000016 3.8099999999999996 5.4992613140311883 0.86602540378443871 0 0.49999999999999989 0.49999999999999989 0 -0.86602540378443871 forward_v I I I I #
coedge $-1 -1 $-1 $181 $182 $183 $184 forward $69 $-1 #
coedge $-1 -1 $-1 $111 $111 $185 $186 reversed $71 $-1 #
coedge $-1 -1 $-1 $112 $112 $72 $113 reversed $187 $-1 #
edge $-1 -1 $-1 $188 -3.1415926535897931 $188 3.1415926535897931 $72 $189 forward @7 unknown #
model_id-kcp-attrib $-1 -1 $-1 $-1 $74 1 1021475536 1021475536 526712833 6 #
face $190 -1 $-1 $191 $192 $8 $-1 $193 reversed single #
loop $-1 -1 $-1 $-1 $194 $74 #
plane-surface $-1 -1 $-1 3.1749999999999998 0 -5.4992613140311866 -0.86602540378443882 0 0.49999999999999989 12.699999999999999 0 21.99704525612475 forward_v I I I I #
loop $-1 -1 $-1 $-1 $195 $50 #
coedge $-1 -1 $-1 $122 $122 $124 $196 forward $75 $-1 #
coedge $-1 -1 $-1 $80 $77 $78 $125 reversed $51 $-1 #
coedge $-1 -1 $-1 $77 $80 $79 $126 forward $51 $-1 #
coedge $-1 -1 $-1 $119 $119 $77 $123 reversed $75 $-1 #
edge $197 -1 $-1 $198 0 $199 3.1415926535897931 $122 $200 forward @7 unknown #
coedge $-1 -1 $-1 $79 $78 $119 $196 reversed $35 $-1 #
edge $-1 -1 $-1 $84 0 $199 0.5 $78 $201 forward @7 unknown #
edge $-1 -1 $-1 $83 0 $198 0.5 $79 $202 forward @7 unknown #
attrib_edge_convexity-kcp-attrib $-1 -1 $203 $-1 $81 1 #
ellipse-curve $-1 -1 $-1 -1.7624790515924359e-016 -17.779999999999998 0 0 -1 0 3.1749999999999998 0 0 1 I I #
convexity-sys-attrib $-1 -1 $-1 $82 $55 #
point $-1 -1 $-1 3.1749999999999998 -17.779999999999998 0 #
point $-1 -1 $-1 -3.1749999999999998 -17.779999999999998 3.8881251733860477e-016 #
face $204 -1 $-1 $205 $206 $19 $-1 $207 reversed single #
loop $-1 -1 $-1 $-1 $208 $87 #
plane-surface $-1 -1 $-1 -6.3500000000000005 0 0 1 0 0 0 0 -1 forward_v I I I I #
coedge $-1 -1 $-1 $209 $143 $210 $211 forward $88 $-1 #
coedge $-1 -1 $-1 $212 $90 $209 $213 forward $58 $-1 #
coedge $-1 -1 $-1 $90 $212 $214 $215 forward $58 $-1 #
coedge $-1 -1 $-1 $146 $145 $90 $139 reversed $147 $-1 #
edge $-1 -1 $-1 $216 -8.8899999999999988 $217 8.8899999999999988 $138 $218 forward @7 unknown #
coedge $-1 -1 $-1 $92 $91 $219 $220 forward $40 $-1 #
coedge $-1 -1 $-1 $221 $222 $91 $142 reversed $206 $-1 #
edge $-1 -1 $-1 $149 -6.3500000000000005 $223 6.3500000000000005 $141 $224 forward @7 unknown #
coedge $-1 -1 $-1 $135 $225 $92 $144 reversed $88 $-1 #
edge $-1 -1 $-1 $226 -6.3500000000000005 $148 6.3500000000000005 $143 $227 forward @7 unknown #
coedge $-1 -1 $-1 $138 $93 $225 $228 forward $147 $-1 #
coedge $-1 -1 $-1 $93 $138 $221 $229 reversed $147 $-1 #
loop $-1 -1 $-1 $-1 $145 $205 #
vertex $-1 -1 $-1 $94 $230 #
vertex $-1 -1 $-1 $94 $231 #
straight-curve $-1 -1 $-1 6.3500000000000005 0 5.4992613140311883 0 1 0 I I #
face $-1 -1 $-1 $232 $233 $30 $-1 $153 reversed single #
loop $-1 -1 $-1 $-1 $234 $95 #
plane-surface $-1 -1 $-1 0 -8.8899999999999988 0 0 1 0 0 0 1 forward_v I I I I #
coedge $-1 -1 $-1 $235 $236 $237 $238 forward $96 $-1 #
coedge $-1 -1 $-1 $239 $98 $240 $241 forward $62 $-1 #
coedge $-1 -1 $-1 $98 $239 $242 $243 reversed $62 $-1 #
coedge $-1 -1 $-1 $244 $245 $246 $158 reversed $247 $-1 #
edge $-1 -1 $-1 $248 -4.4449999999999994 $249 13.334999999999997 $98 $250 forward @7 unknown #
face $-1 -1 $-1 $251 $173 $22 $-1 $161 reversed single #
loop $-1 -1 $-1 $-1 $252 $99 #
plane-surface $-1 -1 $-1 0 8.8899999999999988 0 0 -1 0 0 0 -1 forward_v I I I I #
coedge $-1 -1 $-1 $253 $254 $255 $170 forward $100 $-1 #
coedge $-1 -1 $-1 $256 $102 $257 $258 reversed $65 $-1 #
coedge $-1 -1 $-1 $102 $256 $162 $170 reversed $65 $-1 #
coedge $-1 -1 $-1 $259 $260 $102 $166 forward $261 $-1 #
edge $-1 -1 $-1 $262 -1.5875000000000017 $263 4.762500000000002 $165 $264 forward @7 unknown #
coedge $-1 -1 $-1 $104 $103 $265 $266 reversed $44 $-1 #
coedge $-1 -1 $-1 $267 $268 $103 $169 forward $269 $-1 #
edge $-1 -1 $-1 $270 -4.4449999999999994 $174 13.334999999999997 $168 $271 forward @7 unknown #
edge $-1 -1 $-1 $263 -4.4449999999999994 $175 13.334999999999997 $162 $272 forward @7 unknown #
coedge $-1 -1 $-1 $172 $105 $273 $274 forward $173 $-1 #
coedge $-1 -1 $-1 $105 $171 $267 $275 reversed $173 $-1 #
loop $-1 -1 $-1 $-1 $105 $159 #
vertex $-1 -1 $-1 $275 $276 #
vertex $-1 -1 $-1 $274 $277 #
straight-curve $-1 -1 $-1 5.5562500000000012 8.889999999999997 -1.3748153285077973 0.49999999999999983 0 0.86602540378443882 I I #
face $-1 -1 $-1 $278 $279 $24 $-1 $280 forward single #
loop $-1 -1 $-1 $-1 $281 $107 #
plane-surface $-1 -1 $-1 6.3500000000000005 3.8099999999999996 6.2044339312005183e-016 0.86602540378443882 0 -0.49999999999999983 -0.49999999999999983 0 -0.86602540378443882 forward_v I I I I #
coedge $-1 -1 $-1 $282 $283 $284 $285 forward $108 $-1 #
coedge $-1 -1 $-1 $286 $110 $283 $287 reversed $69 $-1 #
coedge $-1 -1 $-1 $110 $286 $288 $289 forward $69 $-1 #
coedge $-1 -1 $-1 $290 $284 $110 $184 reversed $291 $-1 #
edge $-1 -1 $-1 $292 -3.1749999999999989 $293 3.1750000000000016 $110 $294 forward @7 unknown #
coedge $-1 -1 $-1 $185 $185 $111 $186 forward $295 $-1 #
edge $296 -1 $-1 $297 0 $297 6.2831853071795862 $111 $298 forward @7 unknown #
loop $-1 -1 $-1 $-1 $112 $299 #
vertex $-1 -1 $-1 $113 $300 #
ellipse-curve $-1 -1 $-1 8.8817841970012523e-016 -8.8900000000000006 -1.7763568394002505e-015 0 -1 0 3.1749999999999998 0 0 1 I I #
model_id-kcp-attrib $-1 -1 $-1 $-1 $115 1 1021475536 1021475536 526712833 7 #
face $301 -1 $-1 $302 $303 $8 $-1 $304 reversed single #
loop $-1 -1 $-1 $-1 $305 $115 #
plane-surface $-1 -1 $-1 -3.1749999999999998 0 -5.4992613140311866 0 0 1 25.399999999999999 0 0 forward_v I I I I #
coedge $-1 -1 $-1 $306 $307 $308 $309 reversed $116 $-1 #
coedge $-1 -1 $-1 $310 $311 $307 $312 forward $118 $-1 #
edge $313 -1 $-1 $198 0 $199 3.1415926535897931 $124 $314 forward @7 unknown #
attrib_edge_convexity-kcp-attrib $-1 -1 $315 $-1 $123 2 #
vertex $-1 -1 $-1 $126 $316 #
vertex $-1 -1 $-1 $196 $317 #
ellipse-curve $-1 -1 $-1 0 -5.0799999999999992 0 0 -1 0 3.1749999999999998 0 0 1 I I #
straight-curve $-1 -1 $-1 -3.1749999999999998 -17.779999999999998 3.8881251733860477e-016 0 25.399999999999999 0 I I #
straight-curve $-1 -1 $-1 3.1749999999999998 -17.779999999999998 0 0 25.399999999999999 0 I I #
convexity-sys-attrib $-1 -1 $-1 $127 $81 #
model_id-kcp-attrib $-1 -1 $-1 $-1 $132 1 1021475536 1021475536 526712834 5 #
face $-1 -1 $-1 $-1 $147 $19 $-1 $318 reversed single #
loop $-1 -1 $-1 $-1 $221 $132 #
plane-surface $-1 -1 $-1 0 8.8899999999999988 0 0 -1 0 0 0 -1 forward_v I I I I #
coedge $-1 -1 $-1 $319 $219 $222 $320 forward $133 $-1 #
coedge $-1 -1 $-1 $225 $135 $136 $213 reversed $88 $-1 #
coedge $-1 -1 $-1 $219 $319 $135 $211 reversed $133 $-1 #
edge $-1 -1 $-1 $226 -5.4992613140311883 $321 5.4992613140311883 $210 $322 forward @7 unknown #
coedge $-1 -1 $-1 $137 $136 $319 $323 forward $58 $-1 #
edge $-1 -1 $-1 $217 -6.3500000000000005 $321 6.3500000000000005 $209 $324 forward @7 unknown #
coedge $-1 -1 $-1 $222 $221 $137 $215 reversed $206 $-1 #
edge $-1 -1 $-1 $325 -6.3500000000000005 $216 6.3500000000000005 $214 $326 forward @7 unknown #
vertex $-1 -1 $-1 $139 $327 #
vertex $-1 -1 $-1 $228 $328 #
straight-curve $-1 -1 $-1 6.3500000000000005 0 -5.4992613140311883 0 -1 0 I I #
coedge $-1 -1 $-1 $208 $210 $140 $220 reversed $133 $-1 #
edge $-1 -1 $-1 $223 -8.8899999999999988 $226 8.8899999999999988 $219 $329 forward @7 unknown #
coedge $-1 -1 $-1 $214 $141 $146 $229 forward $206 $-1 #
coedge $-1 -1 $-1 $141 $214 $208 $320 reversed $206 $-1 #
vertex $-1 -1 $-1 $142 $330 #
straight-curve $-1 -1 $-1 0 8.8899999999999988 5.4992613140311883 -1 0 0 I I #
coedge $-1 -1 $-1 $143 $209 $145 $228 reversed $88 $-1 #
vertex $-1 -1 $-1 $220 $331 #
straight-curve $-1 -1 $-1 0 -8.8899999999999988 5.4992613140311883 1 0 0 I I #
edge $-1 -1 $-1 $148 -5.4992613140311883 $217 5.4992613140311883 $145 $332 forward @7 unknown #
edge $-1 -1 $-1 $149 -5.4992613140311883 $216 5.4992613140311883 $146 $333 forward @7 unknown #
point $-1 -1 $-1 6.3500000000000005 -8.8899999999999988 5.4992613140311883 #
point $-1 -1 $-1 6.3500000000000005 8.8899999999999988 5.4992613140311883 #
face $-1 -1 $-1 $334 $247 $30 $-1 $63 reversed single #
loop $-1 -1 $-1 $-1 $335 $151 #
coedge $-1 -1 $-1 $242 $336 $337 $338 forward $152 $-1 #
coedge $-1 -1 $-1 $339 $154 $340 $341 forward $96 $-1 #
coedge $-1 -1 $-1 $154 $339 $342 $343 forward $96 $-1 #
coedge $-1 -1 $-1 $344 $345 $154 $238 reversed $346 $-1 #
edge $-1 -1 $-1 $347 -4.4449999999999994 $348 13.334999999999997 $154 $349 forward @7 unknown #
coedge $-1 -1 $-1 $156 $155 $350 $351 reversed $62 $-1 #
coedge $-1 -1 $-1 $352 $353 $155 $241 reversed $354 $-1 #
edge $-1 -1 $-1 $249 8.8817841970012504e-016 $355 5.4992613140311883 $240 $356 forward @7 unknown #
coedge $-1 -1 $-1 $336 $234 $156 $243 forward $152 $-1 #
edge $-1 -1 $-1 $248 1.7763568394002505e-015 $357 5.4992613140311883 $156 $358 forward @7 unknown #
coedge $-1 -1 $-1 $359 $157 $360 $361 reversed $247 $-1 #
coedge $-1 -1 $-1 $157 $359 $362 $363 forward $247 $-1 #
coedge $-1 -1 $-1 $345 $344 $364 $158 forward $346 $-1 #
loop $-1 -1 $-1 $-1 $157 $232 #
vertex $-1 -1 $-1 $243 $365 #
vertex $-1 -1 $-1 $241 $366 #
straight-curve $-1 -1 $-1 -6.3500000000000005 -4.4449999999999994 4.4408920985006262e-016 0 1 0 I I #
face $-1 -1 $-1 $367 $261 $22 $-1 $153 reversed single #
coedge $-1 -1 $-1 $368 $369 $256 $370 forward $160 $-1 #
coedge $-1 -1 $-1 $371 $162 $369 $372 reversed $100 $-1 #
coedge $-1 -1 $-1 $162 $371 $259 $373 forward $100 $-1 #
coedge $-1 -1 $-1 $374 $273 $104 $170 reversed $375 $-1 #
coedge $-1 -1 $-1 $164 $163 $252 $370 reversed $65 $-1 #
coedge $-1 -1 $-1 $376 $377 $163 $258 forward $378 $-1 #
edge $-1 -1 $-1 $379 -13.334999999999997 $262 4.4449999999999994 $257 $380 forward @7 unknown #
coedge $-1 -1 $-1 $260 $165 $254 $373 reversed $261 $-1 #
coedge $-1 -1 $-1 $165 $259 $376 $381 reversed $261 $-1 #
loop $-1 -1 $-1 $-1 $165 $251 #
vertex $-1 -1 $-1 $381 $382 #
vertex $-1 -1 $-1 $383 $384 #
straight-curve $-1 -1 $-1 3.9687500000000013 -8.8899999999999988 4.1244459855233906 0.49999999999999989 0 -0.86602540378443871 I I #
coedge $-1 -1 $-1 $385 $386 $167 $266 forward $387 $-1 #
edge $-1 -1 $-1 $263 -1.5874999999999986 $270 4.762500000000002 $265 $388 forward @7 unknown #
coedge $-1 -1 $-1 $389 $168 $172 $275 forward $269 $-1 #
coedge $-1 -1 $-1 $168 $389 $385 $390 forward $269 $-1 #
loop $-1 -1 $-1 $-1 $168 $391 #
vertex $-1 -1 $-1 $266 $392 #
straight-curve $-1 -1 $-1 3.1750000000000007 -4.4449999999999994 -5.4992613140311883 0 1 0 I I #
straight-curve $-1 -1 $-1 6.3500000000000005 -4.4449999999999994 1.7763568394002505e-015 0 1 0 I I #
coedge $-1 -1 $-1 $255 $393 $171 $274 reversed $375 $-1 #
edge $-1 -1 $-1 $175 1.7763568394002505e-015 $394 5.4992613140311883 $273 $395 forward @7 unknown #
edge $-1 -1 $-1 $174 3.1750000000000007 $394 6.3500000000000005 $172 $396 forward @7 unknown #
point $-1 -1 $-1 3.1750000000000007 8.8899999999999988 -5.4992613140311883 #
point $-1 -1 $-1 6.3499999999999996 8.8899999999999988 -1.7763568394002505e-015 #
face $-1 -1 $-1 $397 $398 $24 $-1 $399 forward single #
loop $-1 -1 $-1 $-1 $400 $177 #
plane-surface $-1 -1 $-1 3.1750000000000016 3.8099999999999996 -5.4992613140311883 0 0 -1 -1 0 0 forward_v I I I I #
coedge $-1 -1 $-1 $401 $402 $403 $404 forward $178 $-1 #
coedge $-1 -1 $-1 $405 $180 $402 $406 reversed $108 $-1 #
coedge $-1 -1 $-1 $180 $405 $181 $287 forward $108 $-1 #
coedge $-1 -1 $-1 $183 $403 $180 $285 reversed $291 $-1 #
edge $-1 -1 $-1 $293 -1.5875000000000012 $407 4.7625000000000002 $180 $408 forward @7 unknown #
coedge $-1 -1 $-1 $182 $181 $409 $410 reversed $69 $-1 #
edge $-1 -1 $-1 $411 0 $293 12.699999999999999 $283 $412 forward @7 unknown #
coedge $-1 -1 $-1 $413 $414 $182 $289 reversed $415 $-1 #
edge $-1 -1 $-1 $416 0 $292 12.699999999999999 $182 $417 forward @7 unknown #
coedge $-1 -1 $-1 $418 $183 $414 $419 reversed $291 $-1 #
loop $-1 -1 $-1 $187 $183 $299 #
vertex $-1 -1 $-1 $289 $420 #
vertex $-1 -1 $-1 $287 $421 #
straight-curve $-1 -1 $-1 0 -8.8900000000000006 5.4992613140311883 1 0 0 I I #
loop $-1 -1 $-1 $-1 $185 $422 #
convexity-sys-attrib $-1 -1 $-1 $-1 $186 #
vertex $-1 -1 $-1 $186 $423 #
ellipse-curve $-1 -1 $-1 8.8817841970012523e-016 3.8099999999999987 -1.7763568394002505e-015 0 -1 0 3.1749999999999998 0 0 1 I I #
face $-1 -1 $-1 $422 $291 $24 $-1 $424 reversed single #
point $-1 -1 $-1 -3.1749999999999989 -8.8899999999999988 -1.7763568394002505e-015 #
model_id-kcp-attrib $-1 -1 $-1 $-1 $191 1 1021475536 1021475536 526712833 8 #
face $425 -1 $-1 $426 $427 $8 $-1 $428 reversed single #
loop $-1 -1 $-1 $-1 $429 $191 #
plane-surface $-1 -1 $-1 -6.3499999999999996 0 0 0.86602540378443871 0 0.50000000000000011 12.699999999999999 0 -21.997045256124739 forward_v I I I I #
coedge $-1 -1 $-1 $430 $431 $432 $433 reversed $192 $-1 #
coedge $-1 -1 $-1 $434 $194 $435 $436 forward $116 $-1 #
coedge $-1 -1 $-1 $194 $434 $195 $312 reversed $116 $-1 #
coedge $-1 -1 $-1 $431 $430 $194 $309 forward $192 $-1 #
edge $437 -1 $-1 $438 0 $439 0.19999999999999998 $308 $440 forward @7 unknown #
coedge $-1 -1 $-1 $441 $195 $442 $443 forward $118 $-1 #
coedge $-1 -1 $-1 $195 $444 $431 $445 forward $118 $-1 #
edge $446 -1 $-1 $439 0 $447 0.25 $195 $448 forward @7 unknown #
attrib_edge_convexity-kcp-attrib $-1 -1 $449 $-1 $196 2 #
ellipse-curve $-1 -1 $-1 0 -5.0799999999999992 0 0 1 0 3.1749999999999998 0 0 1 I I #
convexity-sys-attrib $-1 -1 $-1 $197 $123 #
point $-1 -1 $-1 3.1749999999999998 -5.0799999999999983 0 #
point $-1 -1 $-1 -3.1749999999999998 -5.0799999999999992 0 #
plane-surface $-1 -1 $-1 6.3500000000000005 0 0 -1 0 0 0 0 1 forward_v I I I I #
coedge $-1 -1 $-1 $210 $208 $212 $323 reversed $133 $-1 #
edge $-1 -1 $-1 $223 -5.4992613140311883 $325 5.4992613140311883 $222 $450 forward @7 unknown #
vertex $-1 -1 $-1 $323 $451 #
straight-curve $-1 -1 $-1 -6.3500000000000005 -8.8899999999999988 0 0 0 -1 I I #
edge $-1 -1 $-1 $321 -8.8899999999999988 $325 8.8899999999999988 $319 $452 forward @7 unknown #
straight-curve $-1 -1 $-1 0 -8.8899999999999988 -5.4992613140311883 -1 0 0 I I #
vertex $-1 -1 $-1 $215 $453 #
straight-curve $-1 -1 $-1 0 8.8899999999999988 -5.4992613140311883 1 0 0 I I #
point $-1 -1 $-1 6.3500000000000005 8.8899999999999988 -5.4992613140311883 #
point $-1 -1 $-1 6.3500000000000005 -8.8899999999999988 -5.4992613140311883 #
straight-curve $-1 -1 $-1 -6.3500000000000005 0 5.4992613140311883 0 -1 0 I I #
point $-1 -1 $-1 -6.3500000000000005 8.8899999999999988 5.4992613140311883 #
point $-1 -1 $-1 -6.3500000000000005 -8.8899999999999988 5.4992613140311883 #
straight-curve $-1 -1 $-1 6.3500000000000005 -8.8899999999999988 0 0 0 -1 I I #
straight-curve $-1 -1 $-1 6.3500000000000005 8.8899999999999988 0 0 0 -1 I I #
face $-1 -1 $-1 $454 $354 $30 $-1 $161 reversed single #
coedge $-1 -1 $-1 $342 $360 $344 $455 forward $233 $-1 #
coedge $-1 -1 $-1 $234 $242 $456 $457 reversed $152 $-1 #
coedge $-1 -1 $-1 $458 $364 $234 $338 reversed $459 $-1 #
edge $-1 -1 $-1 $460 -1.5875000000000021 $248 4.7625000000000002 $234 $461 forward @7 unknown #
coedge $-1 -1 $-1 $236 $235 $359 $462 forward $96 $-1 #
coedge $-1 -1 $-1 $463 $362 $235 $341 reversed $464 $-1 #
edge $-1 -1 $-1 $348 3.1749999999999985 $465 6.3500000000000005 $340 $466 forward @7 unknown #
coedge $-1 -1 $-1 $360 $335 $236 $343 reversed $233 $-1 #
edge $-1 -1 $-1 $467 -6.3500000000000005 $347 -3.1749999999999985 $342 $468 forward @7 unknown #
coedge $-1 -1 $-1 $246 $237 $335 $455 reversed $346 $-1 #
coedge $-1 -1 $-1 $237 $246 $463 $469 reversed $346 $-1 #
loop $-1 -1 $-1 $-1 $345 $470 #
vertex $-1 -1 $-1 $238 $471 #
vertex $-1 -1 $-1 $341 $472 #
straight-curve $-1 -1 $-1 -3.1749999999999989 -4.4449999999999994 5.4992613140311875 0 1 0 I I #
coedge $-1 -1 $-1 $473 $456 $239 $351 forward $474 $-1 #
edge $-1 -1 $-1 $357 -8.8899999999999988 $355 8.8899999999999988 $239 $475 forward @7 unknown #
coedge $-1 -1 $-1 $353 $240 $476 $477 forward $354 $-1 #
coedge $-1 -1 $-1 $240 $352 $473 $478 reversed $354 $-1 #
loop $-1 -1 $-1 $-1 $352 $334 #
vertex $-1 -1 $-1 $478 $479 #
straight-curve $-1 -1 $-1 -6.3500000000000005 8.8899999999999988 0 0 0 -1 I I #
vertex $-1 -1 $-1 $351 $480 #
straight-curve $-1 -1 $-1 -6.3500000000000005 -8.8899999999999988 0 0 0 -1 I I #
coedge $-1 -1 $-1 $245 $244 $339 $462 reversed $247 $-1 #
coedge $-1 -1 $-1 $335 $342 $244 $361 forward $233 $-1 #
edge $-1 -1 $-1 $467 -5.4992613140311883 $248 1.7763568394002505e-015 $244 $358 forward @7 unknown #
coedge $-1 -1 $-1 $340 $463 $245 $363 reversed $464 $-1 #
edge $-1 -1 $-1 $465 -5.4992613140311883 $249 8.8817841970012504e-016 $362 $356 forward @7 unknown #
coedge $-1 -1 $-1 $337 $476 $98 $158 reversed $459 $-1 #
point $-1 -1 $-1 -6.3499999999999996 -8.8899999999999988 -1.7763568394002505e-015 #
point $-1 -1 $-1 -6.3500000000000005 8.8899999999999988 -8.8817841970012504e-016 #
face $-1 -1 $-1 $391 $378 $22 $-1 $97 forward single #
coedge $-1 -1 $-1 $369 $252 $377 $481 reversed $160 $-1 #
coedge $-1 -1 $-1 $252 $368 $253 $372 forward $160 $-1 #
edge $-1 -1 $-1 $175 -4.762500000000002 $379 1.5875000000000017 $252 $482 forward @7 unknown #
coedge $-1 -1 $-1 $254 $253 $483 $484 reversed $100 $-1 #
edge $-1 -1 $-1 $485 -5.4992613140311883 $175 1.7763568394002505e-015 $253 $395 forward @7 unknown #
edge $-1 -1 $-1 $486 -5.4992613140311883 $263 1.7763568394002505e-015 $254 $487 forward @7 unknown #
coedge $-1 -1 $-1 $393 $255 $386 $383 forward $375 $-1 #
loop $-1 -1 $-1 $-1 $255 $488 #
coedge $-1 -1 $-1 $483 $257 $260 $381 forward $378 $-1 #
coedge $-1 -1 $-1 $257 $483 $368 $481 forward $378 $-1 #
loop $-1 -1 $-1 $-1 $257 $367 #
vertex $-1 -1 $-1 $370 $489 #
straight-curve $-1 -1 $-1 3.1750000000000012 -4.4449999999999994 5.4992613140311883 0 -1 0 I I #
edge $-1 -1 $-1 $262 3.1750000000000007 $486 6.3500000000000005 $260 $468 forward @7 unknown #
point $-1 -1 $-1 3.1750000000000007 -8.8899999999999988 5.4992613140311883 #
edge $-1 -1 $-1 $263 1.7763568394002505e-015 $490 5.4992613140311883 $374 $487 forward @7 unknown #
point $-1 -1 $-1 6.3499999999999996 -8.8899999999999988 -1.7763568394002505e-015 #
coedge $-1 -1 $-1 $386 $265 $268 $390 reversed $387 $-1 #
coedge $-1 -1 $-1 $265 $385 $374 $383 reversed $387 $-1 #
loop $-1 -1 $-1 $-1 $265 $491 #
straight-curve $-1 -1 $-1 5.5562500000000012 -8.8899999999999988 -1.3748153285077973 -0.49999999999999983 0 -0.86602540378443882 I I #
coedge $-1 -1 $-1 $268 $267 $393 $492 forward $269 $-1 #
edge $-1 -1 $-1 $490 -6.3500000000000005 $270 -3.1750000000000007 $385 $493 forward @7 unknown #
face $-1 -1 $-1 $491 $269 $22 $-1 $494 reversed single #
point $-1 -1 $-1 3.1750000000000007 -8.8899999999999988 -5.4992613140311883 #
coedge $-1 -1 $-1 $273 $374 $389 $492 reversed $375 $-1 #
vertex $-1 -1 $-1 $492 $495 #
straight-curve $-1 -1 $-1 6.3500000000000005 8.8899999999999988 0 0 0 -1 I I #
straight-curve $-1 -1 $-1 0 8.8899999999999988 -5.4992613140311883 1 0 0 I I #
face $-1 -1 $-1 $299 $415 $24 $-1 $496 forward single #
loop $-1 -1 $-1 $-1 $497 $278 #
plane-surface $-1 -1 $-1 -3.1749999999999994 3.8099999999999996 -5.4992613140311883 -0.86602540378443871 0 -0.50000000000000011 -0.50000000000000011 0 0.86602540378443871 forward_v I I I I #
coedge $-1 -1 $-1 $498 $499 $500 $501 forward $279 $-1 #
coedge $-1 -1 $-1 $502 $281 $499 $503 reversed $178 $-1 #
coedge $-1 -1 $-1 $281 $502 $282 $406 forward $178 $-1 #
coedge $-1 -1 $-1 $284 $500 $281 $404 reversed $291 $-1 #
edge $-1 -1 $-1 $407 -1.5875000000000012 $504 4.762500000000002 $281 $505 forward @7 unknown #
coedge $-1 -1 $-1 $283 $282 $506 $507 reversed $108 $-1 #
edge $-1 -1 $-1 $508 0 $407 12.699999999999999 $402 $509 forward @7 unknown #
vertex $-1 -1 $-1 $406 $510 #
straight-curve $-1 -1 $-1 3.9687500000000013 -8.8900000000000006 4.1244459855233906 0.49999999999999989 0 -0.86602540378443871 I I #
coedge $-1 -1 $-1 $506 $511 $286 $410 forward $512 $-1 #
edge $513 -1 $-1 $416 -3.1749999999999989 $411 3.1750000000000012 $286 $514 forward @7 unknown #
vertex $-1 -1 $-1 $410 $515 #
straight-curve $-1 -1 $-1 3.1750000000000016 3.8099999999999996 5.4992613140311883 0 -1 0 I I #
coedge $-1 -1 $-1 $516 $288 $511 $517 reversed $415 $-1 #
coedge $-1 -1 $-1 $288 $516 $290 $419 forward $415 $-1 #
loop $-1 -1 $-1 $-1 $414 $397 #
vertex $-1 -1 $-1 $517 $518 #
straight-curve $-1 -1 $-1 -3.1749999999999989 3.8099999999999996 5.4992613140311875 0 -1 0 I I #
coedge $-1 -1 $-1 $500 $290 $497 $519 reversed $291 $-1 #
edge $-1 -1 $-1 $520 -1.5875000000000026 $292 4.7625000000000028 $414 $521 forward @7 unknown #
point $-1 -1 $-1 -3.1749999999999989 -8.8899999999999988 5.4992613140311875 #
point $-1 -1 $-1 3.1750000000000016 -8.8899999999999988 5.4992613140311883 #
face $-1 -1 $-1 $-1 $512 $24 $-1 $522 forward single #
point $-1 -1 $-1 3.1750000000000007 3.8100000000000005 -1.7763568394002505e-015 #
plane-surface $-1 -1 $-1 7.9032674829206187e-016 -8.8900000000000006 -1.0547118733938987e-015 -5.8229791118654781e-032 1 3.9766686617617876e-032 0 -3.9766686617617876e-032 1 forward_v I I I I #
model_id-kcp-attrib $-1 -1 $-1 $-1 $302 1 1021475536 1021475536 526712833 9 #
face $523 -1 $-1 $524 $525 $8 $-1 $526 reversed single #
loop $-1 -1 $-1 $-1 $527 $302 #
plane-surface $-1 -1 $-1 -3.1749999999999998 0 5.4992613140311901 0.86602540378443871 0 -0.49999999999999994 -12.699999999999999 0 -21.997045256124746 forward_v I I I I #
coedge $-1 -1 $-1 $528 $529 $530 $531 reversed $303 $-1 #
coedge $-1 -1 $-1 $308 $305 $532 $533 forward $192 $-1 #
coedge $-1 -1 $-1 $305 $308 $311 $445 reversed $192 $-1 #
coedge $-1 -1 $-1 $529 $528 $305 $433 forward $303 $-1 #
edge $534 -1 $-1 $535 0 $536 0.19999999999999998 $305 $537 forward @7 unknown #
coedge $-1 -1 $-1 $307 $306 $538 $539 forward $116 $-1 #
coedge $-1 -1 $-1 $532 $540 $306 $436 reversed $541 $-1 #
edge $542 -1 $-1 $438 0 $543 0.25 $435 $544 forward @7 unknown #
attrib_edge_convexity-kcp-attrib $-1 -1 $545 $-1 $309 1 #
vertex $-1 -1 $-1 $533 $546 #
vertex $-1 -1 $-1 $445 $547 #
straight-curve $-1 -1 $-1 3.1749999999999998 0 -5.4992613140311866 0 -25.399999999999999 0 I I #
coedge $-1 -1 $-1 $548 $310 $549 $550 forward $118 $-1 #
coedge $-1 -1 $-1 $538 $551 $310 $443 reversed $552 $-1 #
edge $553 -1 $-1 $447 0 $554 0.25000000000000017 $310 $555 forward @7 unknown #
coedge $-1 -1 $-1 $311 $548 $529 $556 forward $118 $-1 #
edge $557 -1 $-1 $536 0 $439 0.25 $311 $558 forward @7 unknown #
attrib_edge_convexity-kcp-attrib $-1 -1 $559 $-1 $312 1 #
vertex $-1 -1 $-1 $443 $560 #
straight-curve $-1 -1 $-1 3.1749999999999998 -5.0799999999999992 -5.4992613140311866 12.699999999999996 0 21.997045256124746 I I #
convexity-sys-attrib $-1 -1 $-1 $313 $196 #
straight-curve $-1 -1 $-1 -6.3500000000000005 8.8899999999999988 0 0 0 -1 I I #
point $-1 -1 $-1 -6.3500000000000005 -8.8899999999999988 -5.4992613140311883 #
straight-curve $-1 -1 $-1 -6.3500000000000005 0 -5.4992613140311883 0 1 0 I I #
point $-1 -1 $-1 -6.3500000000000005 8.8899999999999988 -5.4992613140311883 #
face $-1 -1 $-1 $561 $464 $30 $-1 $161 reversed single #
edge $-1 -1 $-1 $248 -1.5874999999999999 $347 4.7625000000000046 $335 $562 forward @7 unknown #
coedge $-1 -1 $-1 $350 $563 $336 $457 forward $474 $-1 #
edge $-1 -1 $-1 $460 3.1749999999999989 $357 6.3500000000000005 $336 $493 forward @7 unknown #
coedge $-1 -1 $-1 $476 $337 $563 $564 reversed $459 $-1 #
loop $-1 -1 $-1 $-1 $476 $565 #
vertex $-1 -1 $-1 $457 $566 #
straight-curve $-1 -1 $-1 -3.96875 -8.8899999999999988 -4.1244459855233906 -0.50000000000000011 0 0.86602540378443871 I I #
edge $-1 -1 $-1 $465 -8.8899999999999988 $467 8.8899999999999988 $359 $567 forward @7 unknown #
coedge $-1 -1 $-1 $362 $340 $345 $469 forward $464 $-1 #
loop $-1 -1 $-1 $-1 $463 $454 #
vertex $-1 -1 $-1 $341 $568 #
straight-curve $-1 -1 $-1 0 8.8899999999999988 5.4992613140311883 -1 0 0 I I #
vertex $-1 -1 $-1 $462 $569 #
straight-curve $-1 -1 $-1 0 -8.8899999999999988 5.4992613140311883 1 0 0 I I #
edge $-1 -1 $-1 $348 -4.7625000000000046 $249 1.5874999999999995 $463 $570 forward @7 unknown #
face $-1 -1 $-1 $565 $346 $30 $-1 $571 reversed single #
point $-1 -1 $-1 -3.1749999999999985 -8.8899999999999988 5.4992613140311883 #
point $-1 -1 $-1 -3.1749999999999985 8.8899999999999988 5.4992613140311883 #
coedge $-1 -1 $-1 $563 $350 $353 $478 forward $474 $-1 #
loop $-1 -1 $-1 $-1 $563 $561 #
straight-curve $-1 -1 $-1 -6.3500000000000005 0 -5.4992613140311883 0 1 0 I I #
coedge $-1 -1 $-1 $364 $458 $352 $477 reversed $459 $-1 #
edge $-1 -1 $-1 $249 -4.7625000000000011 $572 1.5875000000000021 $352 $573 forward @7 unknown #
edge $-1 -1 $-1 $355 -6.3500000000000005 $572 -3.1749999999999989 $353 $396 forward @7 unknown #
point $-1 -1 $-1 -6.3500000000000005 8.8899999999999988 -5.4992613140311883 #
point $-1 -1 $-1 -6.3500000000000005 -8.8899999999999988 -5.4992613140311883 #
edge $-1 -1 $-1 $485 -6.3500000000000005 $379 -3.1750000000000007 $368 $466 forward @7 unknown #
straight-curve $-1 -1 $-1 3.9687500000000013 8.8899999999999988 4.1244459855233906 -0.49999999999999989 0 0.86602540378443871 I I #
coedge $-1 -1 $-1 $377 $376 $371 $484 forward $378 $-1 #
edge $-1 -1 $-1 $486 -8.8899999999999988 $485 8.8899999999999988 $371 $574 forward @7 unknown #
vertex $-1 -1 $-1 $484 $575 #
vertex $-1 -1 $-1 $484 $576 #
straight-curve $-1 -1 $-1 6.3500000000000005 -8.8899999999999988 0 0 0 -1 I I #
face $-1 -1 $-1 $-1 $375 $22 $-1 $101 reversed single #
point $-1 -1 $-1 3.1750000000000007 8.8899999999999988 5.4992613140311883 #
vertex $-1 -1 $-1 $383 $577 #
face $-1 -1 $-1 $488 $387 $22 $-1 $153 reversed single #
edge $-1 -1 $-1 $394 -8.8899999999999988 $490 8.8899999999999988 $393 $578 forward @7 unknown #
straight-curve $-1 -1 $-1 0 -8.8899999999999988 -5.4992613140311883 -1 0 0 I I #
plane-surface $-1 -1 $-1 0 0 -5.4992613140311883 0 0 1 1 0 0 forward_v I I I I #
point $-1 -1 $-1 6.3500000000000005 8.8899999999999988 -5.4992613140311883 #
plane-surface $-1 -1 $-1 -6.3500000000000005 3.8099999999999996 -4.3792595914772164e-015 -0.86602540378443871 0 0.49999999999999983 0.49999999999999983 0 0.86602540378443871 forward_v I I I I #
coedge $-1 -1 $-1 $579 $580 $418 $519 forward $398 $-1 #
coedge $-1 -1 $-1 $581 $400 $580 $582 reversed $279 $-1 #
coedge $-1 -1 $-1 $400 $581 $401 $503 forward $279 $-1 #
coedge $-1 -1 $-1 $403 $418 $400 $501 reversed $291 $-1 #
edge $-1 -1 $-1 $504 -3.1750000000000016 $583 3.1749999999999994 $400 $584 forward @7 unknown #
coedge $-1 -1 $-1 $402 $401 $585 $586 reversed $178 $-1 #
edge $-1 -1 $-1 $587 0 $504 12.699999999999999 $499 $588 forward @7 unknown #
vertex $-1 -1 $-1 $503 $589 #
straight-curve $-1 -1 $-1 5.5562500000000004 -8.8900000000000006 -1.3748153285077971 -0.49999999999999983 0 -0.86602540378443882 I I #
coedge $-1 -1 $-1 $585 $409 $405 $507 forward $512 $-1 #
edge $590 -1 $-1 $411 -1.5875000000000012 $508 4.7625000000000002 $405 $591 forward @7 unknown #
vertex $-1 -1 $-1 $507 $592 #
straight-curve $-1 -1 $-1 6.3500000000000005 3.8099999999999996 6.2044339312005183e-016 0 -1 0 I I #
point $-1 -1 $-1 6.3500000000000005 -8.8899999999999988 6.2044339312005183e-016 #
coedge $-1 -1 $-1 $409 $593 $413 $517 forward $512 $-1 #
loop $-1 -1 $-1 $295 $511 $422 #
convexity-sys-attrib $-1 -1 $-1 $-1 $410 #
straight-curve $-1 -1 $-1 0 3.8099999999999987 5.4992613140311883 1 0 0 I I #
point $-1 -1 $-1 3.1750000000000012 3.8099999999999996 5.4992613140311883 #
coedge $-1 -1 $-1 $414 $413 $579 $594 forward $415 $-1 #
edge $595 -1 $-1 $596 -1.5875000000000026 $416 4.7625000000000028 $413 $597 forward @7 unknown #
point $-1 -1 $-1 -3.1749999999999989 3.8099999999999996 5.4992613140311875 #
edge $-1 -1 $-1 $583 -1.5875000000000017 $520 4.7624999999999984 $497 $598 forward @7 unknown #
vertex $-1 -1 $-1 $594 $599 #
straight-curve $-1 -1 $-1 -5.5562500000000004 -8.8900000000000006 1.3748153285077949 0.49999999999999983 0 0.86602540378443871 I I #
plane-surface $-1 -1 $-1 7.9032674829206187e-016 3.8099999999999996 -1.0547118733938987e-015 -5.8229791118654781e-032 1 3.9766686617617876e-032 0 -3.9766686617617876e-032 1 forward_v I I I I #
model_id-kcp-attrib $-1 -1 $-1 $-1 $426 1 1021475536 1021475536 526712833 10 #
face $600 -1 $-1 $601 $552 $8 $-1 $602 reversed single #
loop $-1 -1 $-1 $-1 $603 $426 #
plane-surface $-1 -1 $-1 3.1749999999999998 0 5.4992613140311901 0 0 -1 -25.399999999999999 0 0 forward_v I I I I #
coedge $-1 -1 $-1 $604 $605 $606 $607 reversed $427 $-1 #
coedge $-1 -1 $-1 $432 $429 $608 $609 forward $303 $-1 #
coedge $-1 -1 $-1 $429 $432 $444 $556 reversed $303 $-1 #
coedge $-1 -1 $-1 $605 $604 $429 $531 forward $427 $-1 #
edge $610 -1 $-1 $611 0 $612 0.19999999999999998 $530 $613 forward @7 unknown #
coedge $-1 -1 $-1 $608 $435 $430 $533 reversed $541 $-1 #
edge $614 -1 $-1 $535 0 $438 0.25 $532 $615 forward @7 unknown #
attrib_edge_convexity-kcp-attrib $-1 -1 $616 $-1 $433 1 #
vertex $-1 -1 $-1 $533 $617 #
vertex $-1 -1 $-1 $445 $618 #
straight-curve $-1 -1 $-1 -3.1749999999999989 0 -5.4992613140311866 0 -25.399999999999999 0 I I #
coedge $-1 -1 $-1 $619 $442 $434 $539 reversed $552 $-1 #
edge $620 -1 $-1 $543 0 $447 0.19999999999999998 $434 $621 forward @7 unknown #
coedge $-1 -1 $-1 $435 $622 $619 $623 reversed $541 $-1 #
loop $-1 -1 $-1 $-1 $608 $601 #
attrib_edge_convexity-kcp-attrib $-1 -1 $624 $-1 $436 1 #
vertex $-1 -1 $-1 $436 $625 #
straight-curve $-1 -1 $-1 3.1749999999999998 0 -5.4992613140311866 12.699999999999996 0 21.997045256124746 I I #
convexity-sys-attrib $-1 -1 $-1 $437 $309 #
point $-1 -1 $-1 3.1749999999999998 0 -5.4992613140311866 #
point $-1 -1 $-1 3.1749999999999998 -5.0799999999999992 -5.4992613140311866 #
coedge $-1 -1 $-1 $444 $441 $605 $626 forward $118 $-1 #
coedge $-1 -1 $-1 $603 $606 $441 $550 reversed $525 $-1 #
edge $627 -1 $-1 $554 0 $628 0.25 $441 $629 forward @7 unknown #
coedge $-1 -1 $-1 $442 $619 $603 $630 forward $552 $-1 #
loop $-1 -1 $-1 $-1 $538 $524 #
attrib_edge_convexity-kcp-attrib $-1 -1 $631 $-1 $443 1 #
vertex $-1 -1 $-1 $550 $632 #
straight-curve $-1 -1 $-1 6.3499999999999996 -5.0799999999999992 0 -12.699999999999999 0 21.997045256124746 I I #
edge $633 -1 $-1 $612 0 $536 0.25000000000000006 $444 $634 forward @7 unknown #
attrib_edge_convexity-kcp-attrib $-1 -1 $635 $-1 $445 1 #
straight-curve $-1 -1 $-1 -3.1749999999999998 -5.0799999999999992 -5.4992613140311866 25.399999999999999 0 0 I I #
convexity-sys-attrib $-1 -1 $-1 $446 $312 #
point $-1 -1 $-1 6.3499999999999996 -5.0799999999999992 0 #
face $-1 -1 $-1 $470 $474 $30 $-1 $494 reversed single #
straight-curve $-1 -1 $-1 -5.5562500000000004 -8.8899999999999988 1.3748153285077949 0.49999999999999983 0 0.86602540378443871 I I #
coedge $-1 -1 $-1 $456 $473 $458 $564 forward $474 $-1 #
edge $-1 -1 $-1 $572 -13.334999999999997 $460 4.4449999999999994 $563 $636 forward @7 unknown #
face $-1 -1 $-1 $-1 $459 $30 $-1 $637 reversed single #
point $-1 -1 $-1 -3.1749999999999989 -8.8899999999999988 -5.4992613140311883 #
straight-curve $-1 -1 $-1 -6.3500000000000005 0 5.4992613140311883 0 -1 0 I I #
point $-1 -1 $-1 -6.3500000000000005 8.8899999999999988 5.4992613140311883 #
point $-1 -1 $-1 -6.3500000000000005 -8.8899999999999988 5.4992613140311883 #
straight-curve $-1 -1 $-1 -5.5562500000000004 8.889999999999997 1.3748153285077949 -0.49999999999999983 0 -0.86602540378443871 I I #
plane-surface $-1 -1 $-1 -6.3499999999999996 -8.8899999999999988 -1.7763568394002505e-015 -0.86602540378443871 0 0.49999999999999983 0 -1 0 forward_v I I I I #
vertex $-1 -1 $-1 $477 $638 #
straight-curve $-1 -1 $-1 -3.96875 8.8899999999999988 -4.1244459855233906 0.50000000000000011 0 -0.86602540378443871 I I #
straight-curve $-1 -1 $-1 6.3500000000000005 0 5.4992613140311883 0 1 0 I I #
point $-1 -1 $-1 6.3500000000000005 8.8899999999999988 5.4992613140311883 #
point $-1 -1 $-1 6.3500000000000005 -8.8899999999999988 5.4992613140311883 #
point $-1 -1 $-1 6.3500000000000005 -8.8899999999999988 -5.4992613140311883 #
straight-curve $-1 -1 $-1 6.3500000000000005 0 -5.4992613140311883 0 -1 0 I I #
coedge $-1 -1 $-1 $639 $497 $516 $594 reversed $398 $-1 #
coedge $-1 -1 $-1 $497 $639 $498 $582 forward $398 $-1 #
coedge $-1 -1 $-1 $499 $498 $640 $641 reversed $279 $-1 #
edge $-1 -1 $-1 $642 0 $583 12.699999999999999 $580 $643 forward @7 unknown #
vertex $-1 -1 $-1 $582 $644 #
straight-curve $-1 -1 $-1 0 -8.8900000000000006 -5.4992613140311883 -1 0 0 I I #
coedge $-1 -1 $-1 $640 $506 $502 $586 forward $512 $-1 #
edge $645 -1 $-1 $508 -1.5875000000000012 $587 4.7625000000000028 $502 $646 forward @7 unknown #
vertex $-1 -1 $-1 $586 $647 #
straight-curve $-1 -1 $-1 3.1750000000000016 3.8099999999999996 -5.4992613140311883 0 -1 0 I I #
point $-1 -1 $-1 3.1750000000000016 -8.8899999999999988 -5.4992613140311883 #
convexity-sys-attrib $-1 -1 $-1 $-1 $507 #
straight-curve $-1 -1 $-1 3.9687500000000013 3.8099999999999987 4.1244459855233906 0.49999999999999989 0 -0.86602540378443871 I I #
point $-1 -1 $-1 6.3500000000000005 3.8099999999999996 6.2044339312005183e-016 #
coedge $-1 -1 $-1 $511 $640 $639 $648 forward $512 $-1 #
edge $-1 -1 $-1 $596 0 $520 12.699999999999999 $516 $649 forward @7 unknown #
convexity-sys-attrib $-1 -1 $-1 $-1 $517 #
vertex $-1 -1 $-1 $517 $650 #
straight-curve $-1 -1 $-1 -5.5562500000000004 3.8099999999999987 1.3748153285077949 0.49999999999999983 0 0.86602540378443871 I I #
straight-curve $-1 -1 $-1 -3.9687499999999996 -8.8900000000000006 -4.1244459855233906 -0.50000000000000011 0 0.86602540378443871 I I #
point $-1 -1 $-1 -6.3500000000000005 -8.8899999999999988 -4.3792595914772164e-015 #
model_id-kcp-attrib $-1 -1 $-1 $-1 $524 1 1021475536 1021475536 526712833 11 #
face $651 -1 $-1 $-1 $541 $8 $-1 $652 forward single #
plane-surface $-1 -1 $-1 6.3499999999999996 0 0 -0.86602540378443871 0 -0.49999999999999994 -12.699999999999999 0 21.997045256124746 forward_v I I I I #
coedge $-1 -1 $-1 $653 $549 $551 $630 reversed $525 $-1 #
coedge $-1 -1 $-1 $530 $527 $654 $655 forward $427 $-1 #
coedge $-1 -1 $-1 $527 $530 $548 $626 reversed $427 $-1 #
coedge $-1 -1 $-1 $549 $653 $527 $607 forward $525 $-1 #
edge $-1 -1 $-1 $656 0 $628 0.19999999999999998 $606 $657 forward @7 unknown #
coedge $-1 -1 $-1 $654 $532 $528 $609 reversed $541 $-1 #
edge $658 -1 $-1 $611 0 $535 0.25000000000000006 $608 $659 forward @7 unknown #
attrib_edge_convexity-kcp-attrib $-1 -1 $660 $-1 $531 1 #
vertex $-1 -1 $-1 $655 $661 #
vertex $-1 -1 $-1 $556 $662 #
straight-curve $-1 -1 $-1 -6.3500000000000014 0 1.4099832412739487e-015 0 -25.399999999999999 0 I I #
model_id-kcp-attrib $-1 -1 $663 $-1 $533 1 1021475536 1021475536 526712833 15 #
straight-curve $-1 -1 $-1 -3.1749999999999998 0 -5.4992613140311866 25.399999999999999 0 0 I I #
convexity-sys-attrib $-1 -1 $-1 $534 $433 #
point $-1 -1 $-1 -3.1749999999999998 0 -5.4992613140311866 #
point $-1 -1 $-1 -3.1749999999999998 -5.0799999999999992 -5.4992613140311866 #
coedge $-1 -1 $-1 $551 $538 $540 $623 forward $552 $-1 #
attrib_edge_convexity-kcp-attrib $-1 -1 $664 $-1 $539 1 #
straight-curve $-1 -1 $-1 6.3499999999999988 0 0 0 -25.399999999999999 0 I I #
coedge $-1 -1 $-1 $540 $654 $653 $665 reversed $541 $-1 #
edge $-1 -1 $-1 $543 0 $666 0.25000000000000017 $540 $667 forward @7 unknown #
convexity-sys-attrib $-1 -1 $-1 $542 $436 #
point $-1 -1 $-1 6.3499999999999996 0 0 #
edge $668 -1 $-1 $628 0 $612 0.25000000000000017 $548 $669 forward @7 unknown #
attrib_edge_convexity-kcp-attrib $-1 -1 $670 $-1 $550 1 #
vertex $-1 -1 $-1 $626 $671 #
straight-curve $-1 -1 $-1 3.1749999999999998 -5.0799999999999992 5.4992613140311901 -25.399999999999999 0 0 I I #
edge $-1 -1 $-1 $666 0 $554 0.19999999999999998 $551 $672 forward @7 unknown #
convexity-sys-attrib $-1 -1 $-1 $553 $443 #
point $-1 -1 $-1 3.1749999999999998 -5.0799999999999992 5.4992613140311901 #
attrib_edge_convexity-kcp-attrib $-1 -1 $673 $-1 $556 1 #
straight-curve $-1 -1 $-1 -6.3499999999999996 -5.0799999999999992 0 12.699999999999999 0 -21.997045256124739 I I #
convexity-sys-attrib $-1 -1 $-1 $557 $445 #
straight-curve $-1 -1 $-1 -3.1749999999999994 -4.4449999999999994 -5.4992613140311883 0 -1 0 I I #
plane-surface $-1 -1 $-1 -3.1749999999999989 -8.8899999999999988 -5.4992613140311883 -0.86602540378443871 0 -0.50000000000000011 0 -1 0 forward_v I I I I #
point $-1 -1 $-1 -3.1749999999999989 8.8899999999999988 -5.4992613140311883 #
coedge $-1 -1 $-1 $580 $579 $593 $648 reversed $398 $-1 #
coedge $-1 -1 $-1 $593 $585 $581 $641 forward $512 $-1 #
edge $674 -1 $-1 $587 -3.1750000000000007 $642 3.1749999999999994 $581 $675 forward @7 unknown #
vertex $-1 -1 $-1 $641 $676 #
straight-curve $-1 -1 $-1 -3.1749999999999994 3.8099999999999996 -5.4992613140311883 0 -1 0 I I #
point $-1 -1 $-1 -3.1749999999999994 -8.8899999999999988 -5.4992613140311883 #
convexity-sys-attrib $-1 -1 $-1 $-1 $586 #
straight-curve $-1 -1 $-1 5.5562500000000004 3.8099999999999987 -1.3748153285077971 -0.49999999999999983 0 -0.86602540378443882 I I #
point $-1 -1 $-1 3.1750000000000007 3.8099999999999996 -5.4992613140311883 #
edge $677 -1 $-1 $642 -1.5875000000000017 $596 4.7624999999999984 $639 $678 forward @7 unknown #
straight-curve $-1 -1 $-1 -6.3500000000000005 3.8099999999999996 -4.3792595914772164e-015 0 -1 0 I I #
point $-1 -1 $-1 -6.3500000000000005 3.8099999999999996 -4.3792595914772164e-015 #
model_id-kcp-attrib $-1 -1 $-1 $-1 $601 1 1021475536 1021475536 526712833 12 #
plane-surface $-1 -1 $-1 0 0 0 0 1 0 25.399999999999999 0 0 forward_v I I I I #
coedge $-1 -1 $-1 $606 $603 $622 $665 forward $525 $-1 #
coedge $-1 -1 $-1 $622 $608 $604 $655 reversed $541 $-1 #
edge $-1 -1 $-1 $656 0 $611 0.25000000000000017 $654 $679 forward @7 unknown #
vertex $-1 -1 $-1 $665 $680 #
straight-curve $-1 -1 $-1 -3.1749999999999998 0 5.4992613140311901 0 -25.399999999999999 0 I I #
attrib_edge_convexity-kcp-attrib $-1 -1 $681 $-1 $609 1 #
straight-curve $-1 -1 $-1 -6.3499999999999996 0 0 12.699999999999999 0 -21.997045256124739 I I #
convexity-sys-attrib $-1 -1 $-1 $610 $531 #
point $-1 -1 $-1 -6.3499999999999996 0 0 #
point $-1 -1 $-1 -6.3499999999999996 -5.0799999999999992 0 #
attrib_edge_convexity-kcp-attrib $-1 -1 $682 $614 $533 1 #
convexity-sys-attrib $-1 -1 $-1 $620 $539 #
edge $683 -1 $-1 $666 0 $656 0.25 $622 $684 forward @7 unknown #
vertex $-1 -1 $-1 $623 $685 #
straight-curve $-1 -1 $-1 6.3499999999999996 0 0 -12.699999999999999 0 21.997045256124746 I I #
attrib_edge_convexity-kcp-attrib $-1 -1 $686 $-1 $626 1 #
straight-curve $-1 -1 $-1 -3.1749999999999998 -5.0799999999999992 5.4992613140311901 -12.699999999999999 0 -21.997045256124746 I I #
convexity-sys-attrib $-1 -1 $-1 $627 $550 #
point $-1 -1 $-1 -3.1749999999999998 -5.0799999999999992 5.4992613140311901 #
straight-curve $-1 -1 $-1 3.1749999999999985 0 5.4992613140311883 0 -25.399999999999999 0 I I #
convexity-sys-attrib $-1 -1 $-1 $633 $556 #
convexity-sys-attrib $-1 -1 $-1 $-1 $641 #
straight-curve $-1 -1 $-1 0 3.8099999999999987 -5.4992613140311883 -1 0 0 I I #
point $-1 -1 $-1 -3.1749999999999994 3.8099999999999996 -5.4992613140311883 #
convexity-sys-attrib $-1 -1 $-1 $-1 $648 #
straight-curve $-1 -1 $-1 -3.9687499999999996 3.8099999999999987 -4.1244459855233906 -0.50000000000000011 0 0.86602540378443871 I I #
straight-curve $-1 -1 $-1 -3.1749999999999998 0 5.4992613140311901 -12.699999999999999 0 -21.997045256124746 I I #
point $-1 -1 $-1 -3.1749999999999998 0 5.4992613140311901 #
convexity-sys-attrib $-1 -1 $-1 $658 $609 #
convexity-sys-attrib $-1 -1 $-1 $663 $533 #
model_id-kcp-attrib $-1 -1 $-1 $-1 $665 1 1021475536 1021475536 526712833 14 #
straight-curve $-1 -1 $-1 3.1749999999999998 0 5.4992613140311901 -25.399999999999999 0 0 I I #
point $-1 -1 $-1 3.1749999999999998 0 5.4992613140311901 #
convexity-sys-attrib $-1 -1 $-1 $668 $626 #
End-of-ACIS-data 