600 0 1 0           
113 GICL ACIS Healer - Source: /gicl/data5/repository/PTC/V18/web_pub18/web_pub_models/condenser_shroud.prt.sat - 6 0 18 ACIS 6.0.3 Solaris 24 Sat Apr 13 20:57:58 2002 
1 9.999999999999999547e-07 1.000000000000000036e-10 
body $-1 $1 $-1 $-1 #
lump $-1 $-1 $2 $0 #
shell $-1 $-1 $-1 $3 $-1 $1 #
face $-1 $4 $5 $2 $-1 $6 forward single #
face $-1 $7 $8 $2 $-1 $9 forward single #
loop $-1 $-1 $10 $3 #
plane-surface $-1 50.79999999999999716 355.5999999999999659 520.6999999999999318 0 0 1 25.39999999999999858 0 0 forward_v I I I I #
face $-1 $11 $12 $2 $-1 $13 forward single #
loop $-1 $-1 $14 $4 #
plane-surface $-1 76.19999999999998863 355.5999999999999659 520.6999999999999318 0.9484119749038829594 0 0.3170405744678694293 8.052830591483882472 0 -24.08966416255862342 forward_v I I I I #
coedge $-1 $15 $16 $17 $18 reversed $5 $-1 #
face $-1 $19 $20 $2 $-1 $21 forward single #
loop $-1 $-1 $22 $7 #
plane-surface $-1 135.6359999999999957 355.5999999999999659 342.8999999999999773 1 0 0 0 0 -25.39999999999999858 forward_v I I I I #
coedge $-1 $23 $24 $25 $26 reversed $8 $-1 #
coedge $-1 $27 $10 $28 $29 reversed $5 $-1 #
coedge $-1 $10 $27 $30 $31 forward $5 $-1 #
coedge $-1 $24 $32 $10 $18 forward $8 $-1 #
edge $-1 $33 -0 $34 353.0599999999999454 $10 $35 reversed 7 unknown #
face $-1 $36 $37 $2 $-1 $38 reversed single #
loop $-1 $-1 $39 $11 #
plane-surface $-1 135.6359999999999957 355.5999999999999659 25.39999999999999858 0 0 -1 -25.39999999999999858 0 0 forward_v I I I I #
coedge $-1 $40 $41 $42 $43 reversed $12 $-1 #
coedge $-1 $32 $14 $44 $45 reversed $8 $-1 #
coedge $-1 $14 $17 $46 $47 forward $8 $-1 #
coedge $-1 $41 $48 $14 $26 forward $12 $-1 #
edge $-1 $49 177.7999999999999829 $50 353.0599999999999454 $14 $51 reversed 7 unknown #
coedge $-1 $16 $15 $52 $53 forward $5 $-1 #
coedge $-1 $54 $55 $15 $29 forward $56 $-1 #
edge $-1 $57 -6.121365584425035422 $33 19.27863441557495605 $15 $58 forward 7 unknown #
coedge $-1 $59 $46 $16 $31 reversed $60 $-1 #
edge $-1 $61 -0 $34 25.39999999999999147 $16 $62 reversed 7 unknown #
coedge $-1 $17 $23 $63 $64 reversed $8 $-1 #
vertex $-1 $29 $65 #
vertex $-1 $31 $66 #
straight-curve $-1 76.19999999999998863 355.5999999999999659 520.6999999999999318 0 1 0 I I #
face $-1 $67 $68 $2 $-1 $69 reversed single #
loop $-1 $-1 $70 $19 #
plane-surface $-1 50.79999999999999716 177.7999999999999829 26.6699999999999946 1 0 0 0 -25.39999999999999858 0 forward_v I I I I #
coedge $-1 $71 $72 $73 $74 reversed $20 $-1 #
coedge $-1 $44 $22 $75 $76 reversed $12 $-1 #
coedge $-1 $22 $25 $77 $78 forward $12 $-1 #
coedge $-1 $72 $71 $22 $43 forward $20 $-1 #
edge $-1 $79 -0 $80 353.0599999999999454 $22 $81 reversed 7 unknown #
coedge $-1 $82 $40 $23 $45 forward $12 $-1 #
edge $-1 $83 -0 $49 177.7999999999999829 $23 $84 reversed 7 unknown #
coedge $-1 $30 $77 $24 $47 reversed $60 $-1 #
edge $-1 $34 -242.8926423704839408 $50 -55.42136964850119796 $24 $85 reversed 7 unknown #
coedge $-1 $25 $82 $86 $87 reversed $12 $-1 #
vertex $-1 $45 $88 #
vertex $-1 $47 $89 #
straight-curve $-1 135.6359999999999957 355.5999999999999659 342.8999999999998636 0 1 0 I I #
coedge $-1 $90 $91 $27 $53 reversed $92 $-1 #
edge $-1 $57 -88.89999999999997726 $61 264.1599999999999682 $27 $93 forward 7 unknown #
coedge $-1 $94 $28 $95 $96 forward $56 $-1 #
coedge $-1 $28 $94 $90 $97 reversed $56 $-1 #
loop $-1 $-1 $54 $98 #
vertex $-1 $53 $99 #
straight-curve $-1 56.92136558442503258 355.5999999999999659 520.6999999999999318 1 0 -0 I I #
coedge $-1 $100 $30 $91 $101 reversed $60 $-1 #
loop $-1 $-1 $59 $102 #
vertex $-1 $31 $103 #
straight-curve $-1 50.79999999999999716 2.539999999999992042 520.6999999999999318 -1 0 0 I I #
coedge $-1 $104 $95 $32 $64 forward $105 $-1 #
edge $-1 $33 -47.04478981443610053 $83 140.4264829075466423 $32 $106 forward 7 unknown #
point $-1 76.19999999999998863 355.5999999999999659 520.6999999999999318 #
point $-1 76.19999999999998863 2.540000000000020464 520.6999999999999318 #
face $-1 $107 $108 $2 $-1 $109 reversed single #
loop $-1 $-1 $110 $36 #
plane-surface $-1 135.6359999999999957 355.5999999999999659 27.93999999999999417 0 0 -1 -25.39999999999999858 0 0 forward_v I I I I #
coedge $-1 $111 $112 $113 $114 reversed $37 $-1 #
coedge $-1 $42 $39 $115 $116 reversed $20 $-1 #
coedge $-1 $39 $42 $117 $118 forward $20 $-1 #
coedge $-1 $112 $111 $39 $74 forward $37 $-1 #
edge $-1 $119 -88.89999999999997726 $120 264.1599999999999682 $39 $121 forward 7 unknown #
coedge $-1 $122 $123 $40 $76 forward $124 $-1 #
edge $-1 $83 -79.10916278163438164 $79 238.3908372183654762 $40 $125 forward 7 unknown #
coedge $-1 $46 $117 $41 $78 reversed $60 $-1 #
edge $-1 $50 -171.4499999999998749 $80 146.0499999999999829 $41 $126 reversed 7 unknown #
vertex $-1 $76 $127 #
vertex $-1 $78 $128 #
straight-curve $-1 135.6359999999999957 355.5999999999999659 25.40000000000000568 -0 1 0 I I #
coedge $-1 $48 $44 $129 $130 reversed $12 $-1 #
vertex $-1 $64 $131 #
straight-curve $-1 135.6359999999999957 355.5999999999999659 342.8999999999998636 0 1 0 I I #
straight-curve $-1 153.2068228711569873 2.539999999999992042 290.3377093597867429 -0.3170405744678694293 0 0.9484119749038829594 I I #
coedge $-1 $132 $133 $48 $87 forward $134 $-1 #
edge $-1 $49 0 $135 3.141592653589793116 $48 $136 forward 7 unknown #
point $-1 135.6359999999999957 177.7999999999999829 342.8999999999999773 #
point $-1 135.6359999999999957 2.540000000000020464 342.8999999999998636 #
coedge $-1 $137 $52 $55 $97 forward $92 $-1 #
coedge $-1 $52 $137 $59 $101 forward $92 $-1 #
loop $-1 $-1 $52 $138 #
straight-curve $-1 50.79999999999999716 266.6999999999999886 520.6999999999999318 0 -1 0 I I #
coedge $-1 $55 $54 $139 $140 reversed $56 $-1 #
coedge $-1 $63 $141 $54 $96 reversed $105 $-1 #
edge $-1 $33 0 $142 0.1232297083209436817 $54 $143 forward 7 unknown #
edge $-1 $57 -1.26999999999998181 $144 1.26999999999998181 $55 $145 forward 7 unknown #
face $-1 $146 $56 $2 $-1 $147 reversed single #
point $-1 50.79999999999999716 355.5999999999999659 520.6999999999999318 #
coedge $-1 $148 $59 $149 $150 forward $60 $-1 #
edge $-1 $151 258.4449999999999932 $61 260.9849999999999568 $91 $152 reversed 7 unknown #
face $-1 $153 $60 $2 $-1 $154 reversed single #
point $-1 50.79999999999999716 2.540000000000020464 520.6999999999999318 #
coedge $-1 $141 $63 $123 $155 forward $105 $-1 #
loop $-1 $-1 $104 $146 #
straight-curve $-1 91.11510718848897739 355.5999999999999659 476.0821579831525128 0.3170405744678694293 0 -0.9484119749038829594 I I #
face $-1 $156 $157 $2 $-1 $158 reversed single #
loop $-1 $-1 $159 $67 #
plane-surface $-1 133.0960000000000036 355.5999999999999659 342.8999999999999773 1 0 0 0 0 -25.39999999999999858 forward_v I I I I #
coedge $-1 $160 $161 $162 $163 reversed $68 $-1 #
coedge $-1 $73 $70 $164 $165 reversed $37 $-1 #
coedge $-1 $70 $73 $166 $167 reversed $37 $-1 #
coedge $-1 $161 $160 $70 $114 forward $68 $-1 #
edge $-1 $168 -88.89999999999997726 $169 264.1599999999999682 $70 $170 reversed 7 unknown #
coedge $-1 $164 $171 $71 $116 forward $172 $-1 #
edge $-1 $79 -21.52649999999999864 $119 63.30949999999999989 $71 $173 forward 7 unknown #
coedge $-1 $77 $166 $72 $118 reversed $60 $-1 #
edge $-1 $80 -42.41800000000000637 $120 42.41799999999999216 $72 $174 reversed 7 unknown #
vertex $-1 $116 $175 #
vertex $-1 $118 $176 #
straight-curve $-1 50.79999999999999716 266.6999999999999886 25.39999999999999858 0 -1 0 I I #
coedge $-1 $177 $75 $171 $178 forward $124 $-1 #
coedge $-1 $75 $177 $104 $155 reversed $124 $-1 #
loop $-1 $-1 $122 $179 #
straight-curve $-1 135.6359999999999673 355.5999999999999659 263.7908372183654819 0 0 -1 I I #
straight-curve $-1 135.6359999999999957 2.539999999999992042 171.4499999999999886 0 0 1 I I #
point $-1 135.6359999999999957 355.5999999999999659 25.40000000000000568 #
point $-1 135.6359999999999957 2.540000000000020464 25.40000000000000568 #
coedge $-1 $180 $181 $82 $130 forward $182 $-1 #
edge $-1 $135 -3.141592653589793116 $49 0 $82 $183 forward 7 unknown #
point $-1 135.6359999999999957 355.5999999999999659 342.8999999999998636 #
coedge $-1 $184 $86 $181 $185 forward $134 $-1 #
coedge $-1 $86 $184 $180 $186 reversed $134 $-1 #
loop $-1 $-1 $184 $187 #
vertex $-1 $87 $188 #
ellipse-curve $-1 135.6359999999999957 177.7999999999999829 196.8499999999999943 1 0 0 0 0 146.0499999999999829 1 I I #
coedge $-1 $91 $90 $189 $190 forward $92 $-1 #
face $-1 $98 $92 $2 $-1 $191 forward single #
coedge $-1 $192 $189 $94 $140 forward $193 $-1 #
edge $-1 $144 -6.121365584425035422 $142 17.44955909097525648 $94 $194 reversed 7 unknown #
coedge $-1 $95 $104 $195 $196 reversed $105 $-1 #
vertex $-1 $140 $197 #
straight-curve $-1 76.19999999999998863 355.5999999999999659 520.6999999999999318 -14.84281144150759957 0 -20.61191278149243189 I I #
vertex $-1 $97 $198 #
straight-curve $-1 50.79999999999999716 355.5999999999999659 519.42999999999995 -0 -0 -1 I I #
face $-1 $179 $105 $2 $-1 $199 reversed single #
plane-surface $-1 63.0427311688500609 355.5999999999999659 519.42999999999995 0 -1 0 25.39999999999999858 0 0 forward_v I I I I #
coedge $-1 $200 $100 $201 $202 forward $60 $-1 #
coedge $-1 $189 $192 $100 $150 reversed $193 $-1 #
edge $-1 $151 -0 $203 23.5709246754002919 $149 $204 reversed 7 unknown #
vertex $-1 $101 $205 #
straight-curve $-1 50.79999999999999716 2.540000000000006253 259.714999999999975 0 0 -1 I I #
face $-1 $206 $207 $2 $-1 $208 reversed single #
plane-surface $-1 50.79999999999999716 2.539999999999999591 0 0 1 0 25.39999999999999858 0 0 forward_v I I I I #
edge $-1 $83 7.188461038710628812e-16 $209 0.1013151992336580876 $104 $210 forward 7 unknown #
face $-1 $138 $193 $2 $-1 $211 reversed single #
loop $-1 $-1 $212 $107 #
plane-surface $-1 73.79103358374413801 355.5999999999999659 519.8947169408515947 0.9484119749038829594 0 0.3170405744678694293 8.052830591483882472 0 -24.08966416255862342 forward_v I I I I #
coedge $-1 $213 $214 $215 $216 reversed $108 $-1 #
coedge $-1 $113 $110 $217 $218 forward $68 $-1 #
coedge $-1 $110 $113 $219 $220 reversed $68 $-1 #
coedge $-1 $214 $221 $110 $163 forward $108 $-1 #
edge $-1 $222 -0 $223 353.0599999999999454 $162 $224 reversed 7 unknown #
coedge $-1 $217 $115 $111 $165 forward $172 $-1 #
edge $-1 $119 -1.269999999999996021 $168 1.269999999999999574 $164 $225 forward 7 unknown #
coedge $-1 $117 $219 $112 $167 forward $60 $-1 #
edge $-1 $169 -14.60499999999999687 $120 -12.06500000000000128 $112 $226 reversed 7 unknown #
vertex $-1 $218 $227 #
vertex $-1 $167 $228 #
straight-curve $-1 50.79999999999999005 266.6999999999999886 27.93999999999999417 -0 1 0 I I #
coedge $-1 $115 $217 $122 $178 reversed $172 $-1 #
loop $-1 $-1 $164 $229 #
straight-curve $-1 114.109499999999997 355.5999999999999659 25.39999999999999858 -1 -0 -0 I I #
straight-curve $-1 93.21799999999998931 2.539999999999992042 25.39999999999999858 1 -0 0 I I #
point $-1 50.79999999999999716 355.5999999999999659 25.39999999999999858 #
point $-1 50.79999999999999716 2.540000000000020464 25.39999999999999858 #
coedge $-1 $123 $122 $221 $230 reversed $124 $-1 #
edge $-1 $79 1.978069239286646103e-16 $222 0.1414213562373092814 $122 $231 forward 7 unknown #
face $-1 $229 $124 $2 $-1 $232 reversed single #
coedge $-1 $233 $129 $133 $186 forward $182 $-1 #
coedge $-1 $129 $233 $132 $185 reversed $182 $-1 #
loop $-1 $-1 $129 $234 #
ellipse-curve $-1 135.6359999999999957 177.7999999999999829 196.8499999999999943 1 0 0 0 0 146.0499999999999829 1 I I #
coedge $-1 $133 $132 $235 $236 reversed $134 $-1 #
edge $-1 $135 0 $237 1.000000000000000222 $132 $238 forward 7 unknown #
edge $-1 $49 0 $239 1.000000000000000222 $133 $240 forward 7 unknown #
face $-1 $-1 $134 $2 $-1 $241 forward single #
point $-1 135.6359999999999957 177.7999999999999545 50.79999999999999716 #
coedge $-1 $139 $149 $137 $190 reversed $193 $-1 #
edge $-1 $144 -88.89999999999997726 $151 264.1599999999999682 $137 $242 reversed 7 unknown #
plane-surface $-1 50.79999999999999716 177.7999999999999829 519.42999999999995 -1 0 0 0 -25.39999999999999858 0 forward_v I I I I #
coedge $-1 $149 $139 $212 $243 forward $193 $-1 #
loop $-1 $-1 $189 $156 #
straight-curve $-1 56.92136558442503258 355.5999999999999659 518.1599999999999682 -1 0 0 I I #
coedge $-1 $244 $212 $141 $196 forward $157 $-1 #
edge $-1 $142 -45.21571448983621622 $209 140.0131806544704318 $141 $245 reversed 7 unknown #
point $-1 74.37092467540028906 355.5999999999999659 518.1599999999998545 #
point $-1 50.79999999999999716 355.5999999999999659 518.1599999999999682 #
plane-surface $-1 104.825731168850055 355.5999999999999659 431.0616744367309252 0 -1 0 8.052830591483882472 0 -24.08966416255862697 forward_v I I I I #
coedge $-1 $219 $148 $214 $246 forward $60 $-1 #
coedge $-1 $212 $215 $148 $202 reversed $157 $-1 #
edge $-1 $203 -241.0635670458840991 $247 -55.8346719015774724 $201 $248 reversed 7 unknown #
vertex $-1 $150 $249 #
straight-curve $-1 50.79999999999999716 2.539999999999992042 518.1599999999999682 -1 0 0 I I #
point $-1 50.79999999999999716 2.540000000000020464 518.1599999999999682 #
face $-1 $250 $251 $2 $-1 $252 reversed single #
loop $-1 $-1 $253 $153 #
cone-surface $-1 135.6359999999999957 177.7999999999999829 196.8499999999999943 1 0 0 0 0 146.0499999999999829 1 I I 0 1 146.0499999999999829 forward I I I I #
vertex $-1 $196 $254 #
straight-curve $-1 135.6359999999999957 355.5999999999999659 342.8999999999999773 -25.07027592318216591 0 -4.079370678856300891 I I #
plane-surface $-1 50.79999999999999716 355.5999999999999659 518.1599999999999682 0 0 1 25.39999999999999858 0 0 forward_v I I I I #
coedge $-1 $195 $201 $192 $243 reversed $157 $-1 #
coedge $-1 $255 $159 $256 $257 forward $108 $-1 #
coedge $-1 $159 $162 $200 $246 reversed $108 $-1 #
coedge $-1 $201 $258 $159 $216 forward $157 $-1 #
edge $-1 $259 188.7797435931430527 $247 353.0599999999999454 $215 $260 reversed 7 unknown #
coedge $-1 $171 $164 $160 $218 reversed $172 $-1 #
edge $-1 $222 -18.98650000000000659 $168 63.30949999999999989 $217 $261 reversed 7 unknown #
coedge $-1 $166 $200 $161 $220 forward $60 $-1 #
edge $-1 $223 -39.87800000000001432 $169 42.41799999999999926 $161 $262 reversed 7 unknown #
coedge $-1 $162 $263 $177 $230 forward $108 $-1 #
vertex $-1 $230 $264 #
vertex $-1 $246 $265 #
straight-curve $-1 133.0960000000000036 355.5999999999999659 27.93999999999999773 -0 1 0 I I #
straight-curve $-1 50.79999999999999716 355.5999999999999659 26.6699999999999946 -0 0 1 I I #
straight-curve $-1 50.79999999999999716 2.540000000000006253 13.3349999999999973 0 0 1 I I #
point $-1 50.79999999999999716 355.5999999999999659 27.93999999999999417 #
point $-1 50.79999999999999005 2.540000000000020464 27.93999999999999417 #
face $-1 $102 $172 $2 $-1 $266 reversed single #
edge $-1 $209 -78.69586052855828484 $222 235.8508372183654842 $177 $267 reversed 7 unknown #
straight-curve $-1 135.6359999999999957 355.5999999999999659 25.39999999999999858 -17.96051224213830722 0 17.96051224213830722 I I #
plane-surface $-1 134.3659999999999854 355.5999999999999659 184.6816744367309298 0 -1 0 0 0 -25.39999999999999858 forward_v I I I I #
coedge $-1 $181 $180 $268 $269 reversed $182 $-1 #
face $-1 $187 $182 $2 $-1 $270 forward single #
coedge $-1 $268 $268 $184 $236 forward $271 $-1 #
edge $-1 $239 0 $237 3.141592653589793116 $235 $272 forward 7 unknown #
vertex $-1 $236 $273 #
straight-curve $-1 135.6359999999999957 177.7999999999999545 50.79999999999999716 25.39999999999999858 0 0 I I #
vertex $-1 $236 $274 #
straight-curve $-1 135.6359999999999957 177.7999999999999829 342.8999999999999773 25.39999999999999858 0 0 I I #
cone-surface $-1 135.6359999999999957 177.7999999999999829 196.8499999999999943 1 0 0 0 0 146.0499999999999829 1 I I 0 1 146.0499999999999829 forward I I I I #
straight-curve $-1 50.79999999999999716 266.6999999999999886 518.1599999999999682 0 1 -0 I I #
edge $-1 $142 -0 $203 353.0599999999999454 $192 $275 reversed 7 unknown #
coedge $-1 $276 $195 $263 $277 forward $157 $-1 #
straight-curve $-1 88.70614077223312677 355.5999999999999659 475.2768749240041757 -0.3170405744678694293 0 0.9484119749038829594 I I #
edge $-1 $247 -171.0366977469237781 $223 143.5099999999999909 $214 $278 reversed 7 unknown #
vertex $-1 $202 $279 #
straight-curve $-1 150.7978564549011367 2.539999999999992042 289.5324263006383489 -0.3170405744678694293 0 0.9484119749038829594 I I #
point $-1 74.37092467540028906 2.540000000000020464 518.1599999999998545 #
face $-1 $280 $281 $2 $-1 $282 reversed single #
loop $-1 $-1 $283 $206 #
cone-surface $-1 135.6359999999999957 177.7999999999999829 196.8499999999999943 1 0 0 0 0 146.0499999999999829 1 I I 0 1 146.0499999999999829 forward I I I I #
coedge $-1 $284 $285 $276 $286 reversed $207 $-1 #
point $-1 133.0960000000000036 355.5999999999999659 342.4866977469237668 #
coedge $-1 $263 $213 $284 $287 forward $108 $-1 #
coedge $-1 $288 $289 $213 $257 reversed $251 $-1 #
edge $-1 $259 0.07524897231668083164 $290 3.141592653589793116 $213 $291 forward 7 unknown #
coedge $-1 $215 $276 $288 $292 forward $157 $-1 #
vertex $-1 $216 $293 #
straight-curve $-1 133.0960000000000036 355.5999999999999659 342.4866977469237668 0 1 0 I I #
straight-curve $-1 114.109499999999997 355.5999999999999659 27.93999999999999417 1 0 0 I I #
straight-curve $-1 93.21799999999998931 2.539999999999992042 27.93999999999999417 1 -0 0 I I #
coedge $-1 $221 $255 $244 $277 reversed $108 $-1 #
point $-1 133.0960000000000036 355.5999999999999659 27.93999999999999773 #
point $-1 133.0960000000000036 2.540000000000020464 27.93999999999999773 #
plane-surface $-1 92.58299999999999841 355.5999999999999659 26.6699999999999946 0 -1 0 -25.39999999999999858 0 0 forward_v I I I I #
straight-curve $-1 133.0960000000000036 355.5999999999999659 263.7908372183654819 -0 0 1 I I #
coedge $-1 $235 $235 $233 $269 forward $271 $-1 #
edge $-1 $237 -3.141592653589793116 $239 0 $268 $294 forward 7 unknown #
cone-surface $-1 135.6359999999999957 177.7999999999999829 196.8499999999999943 1 0 0 0 0 146.0499999999999829 1 I I 0 1 146.0499999999999829 forward I I I I #
loop $-1 $295 $268 $296 #
ellipse-curve $-1 161.0360000000000014 177.7999999999999829 196.8499999999999943 1 0 0 0 0 146.0499999999999829 1 I I #
point $-1 161.0360000000000014 177.7999999999999829 50.79999999999999716 #
point $-1 161.0360000000000014 177.7999999999999829 342.8999999999999773 #
straight-curve $-1 74.37092467540028906 355.5999999999999659 518.1599999999998545 0 1 0 I I #
coedge $-1 $258 $244 $253 $286 forward $157 $-1 #
edge $-1 $209 -0 $297 166.8202564068568279 $244 $298 reversed 7 unknown #
straight-curve $-1 133.0960000000000036 2.539999999999992042 171.4499999999999886 0 0 1 I I #
point $-1 133.0960000000000036 2.540000000000020464 342.4866977469237668 #
face $-1 $299 $300 $2 $-1 $301 reversed single #
loop $-1 $302 $303 $250 #
plane-surface $-1 135.6359999999999957 355.5999999999999659 342.8999999999999773 1 0 0 0 0 25.39999999999999858 forward_v I I I I #
coedge $-1 $289 $304 $305 $306 forward $251 $-1 #
coedge $-1 $307 $253 $255 $287 reversed $207 $-1 #
coedge $-1 $253 $308 $304 $309 forward $207 $-1 #
edge $-1 $297 -0.07524897231668141451 $310 0 $276 $311 forward 7 unknown #
edge $-1 $290 -3.141592653589793116 $297 -0.07524897231668141451 $255 $312 forward 7 unknown #
coedge $-1 $304 $256 $258 $292 reversed $251 $-1 #
coedge $-1 $256 $283 $307 $313 forward $251 $-1 #
vertex $-1 $287 $314 #
ellipse-curve $-1 133.0960000000000036 177.7999999999999829 196.8499999999999943 1 0 0 0 0 146.0499999999999829 1 I I #
edge $-1 $310 0 $259 0.07524897231668083164 $258 $315 forward 7 unknown #
point $-1 133.0960000000000036 166.8202564068569131 342.4866977469237668 #
ellipse-curve $-1 161.0360000000000014 177.7999999999999829 196.8499999999999943 1 0 0 0 0 146.0499999999999829 1 I I #
loop $-1 $-1 $316 $296 #
face $-1 $234 $271 $2 $-1 $317 forward single #
vertex $-1 $286 $318 #
straight-curve $-1 133.0960000000000036 355.5999999999999659 342.4866977469237668 0 1 0 I I #
face $-1 $296 $319 $2 $-1 $320 reversed single #
loop $-1 $-1 $321 $280 #
cone-surface $-1 135.6359999999999957 177.7999999999999829 196.8499999999999943 1 0 0 0 0 143.5099999999999909 1 I I 0 1 143.5099999999999909 forward I I I I #
loop $-1 $-1 $322 $250 #
coedge $-1 $323 $323 $324 $325 reversed $281 $-1 #
coedge $-1 $283 $288 $285 $309 reversed $251 $-1 #
coedge $-1 $322 $322 $283 $306 reversed $302 $-1 #
edge $-1 $326 -0 $327 3.141592653589793116 $283 $328 reversed 7 unknown #
coedge $-1 $308 $284 $289 $313 reversed $207 $-1 #
coedge $-1 $285 $307 $322 $329 forward $207 $-1 #
edge $-1 $326 0 $310 0.1054394109797448797 $304 $330 forward 7 unknown #
vertex $-1 $292 $331 #
ellipse-curve $-1 181.7802675325430926 177.7999999999999829 196.8499999999999943 0.9484119749038829594 0 0.3170405744678694293 -48.82242857142855996 0 146.0499999999999829 0.9484119749038828484 I I #
ellipse-curve $-1 133.0960000000000036 177.7999999999999829 196.8499999999999943 1 0 0 0 0 146.0499999999999829 1 I I #
edge $-1 $327 0 $290 0.09999999999999968636 $289 $332 forward 7 unknown #
point $-1 133.0960000000000036 177.7999999999999829 50.79999999999999716 #
ellipse-curve $-1 181.7802675325430926 177.7999999999999829 196.8499999999999943 0.9484119749038829594 0 0.3170405744678694293 -48.82242857142855996 0 146.0499999999999829 0.9484119749038828484 I I #
coedge $-1 $333 $333 $334 $335 forward $295 $-1 #
plane-surface $-1 161.0360000000000014 355.5999999999999659 342.8999999999999773 1 0 0 0 0 25.39999999999999858 forward_v I I I I #
point $-1 133.0960000000000036 188.779743593143138 342.4866977469237668 #
loop $-1 $-1 $336 $299 #
cone-surface $-1 135.6359999999999957 177.7999999999999829 196.8499999999999943 1 0 0 0 0 143.5099999999999909 1 I I 0 1 143.5099999999999909 forward I I I I #
coedge $-1 $334 $324 $337 $338 forward $300 $-1 #
coedge $-1 $305 $305 $308 $329 reversed $302 $-1 #
coedge $-1 $303 $303 $339 $340 reversed $281 $-1 #
coedge $-1 $321 $341 $303 $325 forward $300 $-1 #
edge $-1 $342 -3.141592653589793116 $343 -0 $303 $344 reversed 7 unknown #
vertex $-1 $309 $345 #
vertex $-1 $313 $346 #
ellipse-curve $-1 135.6359999999999957 177.7999999999999829 196.8499999999999943 -1 -0 -0 0 0 146.0499999999999829 1 I I #
edge $-1 $327 -3.141592653589793116 $326 -0 $308 $347 reversed 7 unknown #
straight-curve $-1 135.6359999999999957 177.7999999999999829 342.8999999999999773 -25.39999999999999858 0 0 I I #
point $-1 132.9578389611144758 177.7999999999999829 342.8999999999999773 #
straight-curve $-1 135.6359999999999957 177.7999999999999545 50.79999999999999716 -25.39999999999999858 0 0 I I #
coedge $-1 $316 $316 $348 $349 forward $295 $-1 #
coedge $-1 $341 $321 $316 $335 reversed $300 $-1 #
edge $-1 $350 -3.141592653589793116 $351 -0 $316 $352 reversed 7 unknown #
coedge $-1 $348 $339 $341 $353 forward $319 $-1 #
coedge $-1 $339 $348 $321 $338 reversed $319 $-1 #
edge $-1 $343 0 $351 1.000000000000000222 $337 $354 forward 7 unknown #
coedge $-1 $336 $337 $323 $340 forward $319 $-1 #
edge $-1 $343 -0 $342 3.141592653589793116 $323 $355 reversed 7 unknown #
coedge $-1 $324 $334 $336 $353 reversed $300 $-1 #
vertex $-1 $340 $356 #
vertex $-1 $340 $357 #
ellipse-curve $-1 135.6359999999999957 177.7999999999999829 196.8499999999999943 1 0 0 0 0 143.5099999999999909 1 I I #
point $-1 135.6359999999999957 177.7999999999999829 342.8999999999999773 #
point $-1 135.6359999999999957 177.7999999999999829 50.79999999999999716 #
ellipse-curve $-1 135.6359999999999957 177.7999999999999829 196.8499999999999943 -1 -0 -0 0 0 146.0499999999999829 1 I I #
coedge $-1 $337 $336 $333 $349 reversed $319 $-1 #
edge $-1 $351 -0 $350 3.141592653589793116 $333 $358 reversed 7 unknown #
vertex $-1 $349 $359 #
vertex $-1 $349 $360 #
ellipse-curve $-1 161.0360000000000014 177.7999999999999829 196.8499999999999943 1 0 0 0 0 143.5099999999999909 1 I I #
edge $-1 $342 0 $350 1.000000000000000222 $336 $361 forward 7 unknown #
straight-curve $-1 135.6359999999999957 177.7999999999999829 340.3599999999999568 25.39999999999999858 4.511946372076635928e-14 0 I I #
ellipse-curve $-1 135.6359999999999957 177.7999999999999829 196.8499999999999943 1 0 0 0 0 143.5099999999999909 1 I I #
point $-1 135.6359999999999957 177.7999999999999829 53.34000000000003183 #
point $-1 135.6359999999999957 177.7999999999999829 340.3600000000000136 #
ellipse-curve $-1 161.0360000000000014 177.7999999999999829 196.8499999999999943 1 0 0 0 0 143.5099999999999909 1 I I #
point $-1 161.0360000000000014 177.7999999999999829 53.34000000000003183 #
point $-1 161.0360000000000014 177.7999999999999829 340.3600000000000136 #
straight-curve $-1 135.6359999999999957 177.7999999999999545 53.34000000000001052 25.39999999999999858 0 0 I I #
End-of-ACIS-data 