700 0 2 0           
24 FBMach with ACIS - 7.0.3 13 ACIS 7.0.3 NT 24 Wed May 15 11:12:52 2002 
1 9.9999999999999995e-007 1e-010 
body $2 -1 $-1 $3 $-1 $4 #
bdycol-kcp $-1 -1 1 4 $5 $6 $7 $8 #
model_id-kcp-attrib $-1 -1 $-1 $-1 $0 1 1021475569 1021475569 747044865 1 #
lump $-1 -1 $-1 $-1 $9 $0 #
transform $-1 -1 1 0 0 0 1 0 0 0 1 0 0 0 1 rotate no_reflect no_shear #
body $10 -1 $-1 $11 $-1 $-1 #
body $12 -1 $-1 $13 $-1 $14 #
body $15 -1 $-1 $16 $-1 $17 #
body $18 -1 $-1 $19 $-1 $20 #
shell $-1 -1 $-1 $-1 $-1 $21 $-1 $3 #
rgb_color-st-attrib $-1 -1 $22 $-1 $5 0.5 1 1 #
lump $-1 -1 $-1 $-1 $23 $5 #
model_id-kcp-attrib $-1 -1 $-1 $-1 $6 1 1021475569 1021475569 747044866 1 #
lump $-1 -1 $-1 $-1 $24 $6 #
transform $-1 -1 1 0 0 0 1 0 0 0 1 105.91799999999999 179.06999999999999 273.05000000000001 1 no_rotate no_reflect no_shear #
rgb_color-st-attrib $-1 -1 $25 $-1 $7 0.5 1 1 #
lump $-1 -1 $-1 $-1 $26 $7 #
transform $-1 -1 1 0 0 0 1 0 0 0 1 0 0 0 1 no_rotate no_reflect no_shear #
rgb_color-st-attrib $-1 -1 $27 $-1 $8 0.59999999999999998 0.90000000000000002 1 #
lump $-1 -1 $-1 $-1 $28 $8 #
transform $-1 -1 1 0 0 0 1 0 0 0 1 105.91799999999999 179.06999999999999 273.05000000000001 1 no_rotate no_reflect no_shear #
face $29 -1 $-1 $30 $31 $9 $-1 $32 forward single #
model_id-kcp-attrib $-1 -1 $-1 $10 $5 1 1021475569 1021475569 745340931 1 #
shell $-1 -1 $-1 $-1 $-1 $33 $-1 $11 #
shell $-1 -1 $-1 $-1 $-1 $34 $-1 $13 #
model_id-kcp-attrib $-1 -1 $-1 $15 $7 1 1021475569 1021475569 749273092 1 #
shell $-1 -1 $-1 $-1 $-1 $35 $-1 $16 #
model_id-kcp-attrib $-1 -1 $-1 $18 $8 1 1021475569 1021475570 742916101 1 #
shell $-1 -1 $-1 $-1 $-1 $36 $-1 $19 #
model_id-kcp-attrib $-1 -1 $-1 $-1 $21 1 1021475569 1021475569 747044865 2 #
face $37 -1 $-1 $38 $39 $9 $-1 $40 forward single #
loop $-1 -1 $-1 $-1 $41 $21 #
plane-surface $-1 -1 $-1 50.799999999999997 355.59999999999997 520.69999999999993 0 0 1 25.399999999999999 0 0 forward_v I I I I #
face $-1 -1 $-1 $42 $43 $23 $-1 $44 forward single #
face $45 -1 $-1 $46 $47 $24 $-1 $48 forward single #
face $-1 -1 $-1 $49 $50 $26 $-1 $51 forward single #
face $-1 -1 $-1 $52 $53 $28 $-1 $54 forward single #
model_id-kcp-attrib $-1 -1 $-1 $-1 $30 1 1021475569 1021475569 747044865 3 #
face $55 -1 $-1 $56 $57 $9 $-1 $58 forward single #
loop $-1 -1 $-1 $-1 $59 $30 #
plane-surface $-1 -1 $-1 76.199999999999989 355.59999999999997 520.69999999999993 0.94841197490388296 0 0.31704057446786943 8.0528305914838825 0 -24.089664162558623 forward_v I I I I #
coedge $-1 -1 $-1 $60 $61 $62 $63 reversed $31 $-1 #
face $-1 -1 $-1 $64 $65 $23 $-1 $66 forward single #
loop $-1 -1 $-1 $-1 $67 $33 #
plane-surface $-1 -1 $-1 135.636 2.5400000000000205 342.89999999999986 1 5.232569854914918e-016 0 0 0 -1 forward_v I I I I #
model_id-kcp-attrib $-1 -1 $-1 $-1 $34 1 1021475569 1021475569 747044866 2 #
face $68 -1 $-1 $69 $70 $24 $-1 $71 reversed single #
loop $-1 -1 $-1 $-1 $72 $34 #
plane-surface $-1 -1 $-1 0 0 247.65000000000003 0 0 1 1 0 0 forward_v I I I I #
face $-1 -1 $-1 $73 $74 $26 $-1 $75 forward single #
loop $-1 -1 $-1 $76 $77 $35 #
cone-surface $-1 -1 $-1 135.636 177.79999999999998 196.84999999999999 1 0 0 0 0 143.50999999999999 1 I I 0 1 143.50999999999999 forward I I I I #
face $-1 -1 $-1 $78 $79 $28 $-1 $80 forward single #
loop $-1 -1 $-1 $-1 $81 $36 #
plane-surface $-1 -1 $-1 27.178000000000011 176.52999999999997 -245.11000000000001 0 1 0 0 0 1 forward_v I I I I #
model_id-kcp-attrib $-1 -1 $-1 $-1 $38 1 1021475569 1021475569 747044865 4 #
face $82 -1 $-1 $83 $84 $9 $-1 $85 forward single #
loop $-1 -1 $-1 $-1 $86 $38 #
plane-surface $-1 -1 $-1 135.636 355.59999999999997 342.89999999999998 1 0 0 0 0 -25.399999999999999 forward_v I I I I #
coedge $-1 -1 $-1 $87 $88 $89 $90 reversed $39 $-1 #
coedge $-1 -1 $-1 $91 $41 $92 $93 reversed $31 $-1 #
coedge $-1 -1 $-1 $41 $91 $94 $95 forward $31 $-1 #
coedge $-1 -1 $-1 $88 $96 $41 $63 forward $39 $-1 #
edge $97 -1 $-1 $98 0 $99 353.05999999999995 $41 $100 reversed @7 unknown #
face $-1 -1 $-1 $101 $102 $23 $-1 $103 forward single #
loop $-1 -1 $-1 $-1 $104 $42 #
plane-surface $-1 -1 $-1 135.636 2.5400000000000205 520.69999999999993 0 3.2200429876399491e-016 1 1 0 0 forward_v I I I I #
coedge $-1 -1 $-1 $105 $106 $107 $108 forward $43 $-1 #
model_id-kcp-attrib $-1 -1 $-1 $-1 $46 1 1021475569 1021475569 747044866 3 #
face $109 -1 $-1 $110 $111 $24 $-1 $112 reversed single #
loop $-1 -1 $-1 $-1 $113 $46 #
plane-surface $-1 -1 $-1 0 0 -247.65000000000003 0 0 1 1 0 0 forward_v I I I I #
coedge $-1 -1 $-1 $114 $115 $116 $117 forward $47 $-1 #
face $-1 -1 $-1 $-1 $118 $26 $-1 $119 reversed single #
loop $-1 -1 $-1 $-1 $120 $49 #
plane-surface $-1 -1 $-1 161.036 177.80000000000001 196.84999999999999 1 0 0 0 0 -1 forward_v I I I I #
loop $-1 -1 $-1 $-1 $121 $35 #
coedge $-1 -1 $-1 $77 $77 $120 $122 forward $50 $-1 #
face $-1 -1 $-1 $123 $124 $28 $-1 $125 forward single #
loop $-1 -1 $-1 $-1 $126 $52 #
plane-surface $-1 -1 $-1 27.178000000000011 176.52999999999997 69.436697746923755 0 0 1 1 0 0 forward_v I I I I #
coedge $-1 -1 $-1 $127 $128 $129 $130 forward $53 $-1 #
model_id-kcp-attrib $-1 -1 $-1 $-1 $56 1 1021475569 1021475569 747044865 5 #
face $131 -1 $-1 $132 $133 $9 $-1 $134 reversed single #
loop $-1 -1 $-1 $-1 $135 $56 #
plane-surface $-1 -1 $-1 135.636 355.59999999999997 25.399999999999999 0 0 -1 -25.399999999999999 0 0 forward_v I I I I #
coedge $-1 -1 $-1 $136 $137 $138 $139 reversed $57 $-1 #
coedge $-1 -1 $-1 $96 $59 $140 $141 reversed $39 $-1 #
coedge $-1 -1 $-1 $59 $62 $142 $143 forward $39 $-1 #
coedge $-1 -1 $-1 $137 $144 $59 $90 forward $57 $-1 #
edge $-1 -1 $-1 $145 177.79999999999998 $146 353.05999999999995 $59 $147 reversed @7 unknown #
coedge $-1 -1 $-1 $61 $60 $148 $149 forward $31 $-1 #
coedge $-1 -1 $-1 $150 $151 $60 $93 forward $152 $-1 #
edge $153 -1 $-1 $154 -6.1213655844250354 $98 19.278634415574956 $60 $155 forward @7 unknown #
coedge $-1 -1 $-1 $156 $142 $61 $95 reversed $157 $-1 #
edge $158 -1 $-1 $159 0 $99 25.399999999999991 $61 $160 reversed @7 unknown #
coedge $-1 -1 $-1 $62 $87 $161 $162 reversed $39 $-1 #
attrib_edge_convexity-kcp-attrib $-1 -1 $163 $-1 $63 1 #
vertex $-1 -1 $-1 $93 $164 #
vertex $-1 -1 $-1 $95 $165 #
straight-curve $-1 -1 $-1 76.199999999999989 355.59999999999997 520.69999999999993 0 1 0 I I #
face $-1 -1 $-1 $166 $167 $23 $-1 $168 forward single #
loop $-1 -1 $-1 $-1 $169 $64 #
plane-surface $-1 -1 $-1 76.199999999999989 2.5400000000000205 520.69999999999993 -0.94841197490388296 -5.9835161885349851e-016 -0.31704057446786943 -0.31704057446786943 0 0.94841197490388296 forward_v I I I I #
coedge $-1 -1 $-1 $170 $171 $172 $173 forward $65 $-1 #
coedge $-1 -1 $-1 $174 $67 $171 $175 reversed $43 $-1 #
coedge $-1 -1 $-1 $67 $174 $176 $177 forward $43 $-1 #
coedge $-1 -1 $-1 $178 $172 $67 $108 reversed $167 $-1 #
edge $-1 -1 $-1 $179 0 $180 177.80000000000007 $67 $181 forward @7 unknown #
model_id-kcp-attrib $-1 -1 $-1 $-1 $69 1 1021475569 1021475569 747044866 10 #
face $182 -1 $-1 $183 $184 $24 $-1 $185 reversed single #
loop $-1 -1 $-1 $-1 $186 $69 #
plane-surface $-1 -1 $-1 0 -176.52999999999997 0 0 1 0 0 0 1 forward_v I I I I #
coedge $-1 -1 $-1 $187 $188 $189 $190 forward $70 $-1 #
coedge $-1 -1 $-1 $191 $72 $192 $193 forward $47 $-1 #
coedge $-1 -1 $-1 $72 $191 $194 $195 forward $47 $-1 #
coedge $-1 -1 $-1 $196 $197 $72 $117 reversed $198 $-1 #
edge $-1 -1 $-1 $199 -176.52999999999997 $200 176.52999999999997 $116 $201 forward @7 unknown #
loop $-1 -1 $-1 $-1 $202 $73 #
plane-surface $-1 -1 $-1 135.636 177.80000000000001 196.84999999999999 1 0 0 0 0 -1 forward_v I I I I #
coedge $-1 -1 $-1 $120 $120 $77 $122 reversed $74 $-1 #
coedge $-1 -1 $-1 $121 $121 $202 $203 reversed $76 $-1 #
edge $-1 -1 $-1 $204 -3.1415926535897931 $204 3.1415926535897931 $77 $205 forward @7 unknown #
face $-1 -1 $-1 $206 $207 $28 $-1 $208 forward single #
loop $-1 -1 $-1 $-1 $209 $78 #
cone-surface $-1 -1 $-1 27.177999999999997 -1.2700000000000102 -76.200000000000017 -1 0 0 0 0 146.04999999999998 1 I I 0 1 146.04999999999998 forward I I I I #
coedge $-1 -1 $-1 $210 $211 $212 $213 forward $79 $-1 #
coedge $-1 -1 $-1 $214 $81 $211 $215 reversed $53 $-1 #
coedge $-1 -1 $-1 $81 $214 $216 $217 forward $53 $-1 #
coedge $-1 -1 $-1 $218 $212 $81 $130 reversed $219 $-1 #
edge $-1 -1 $-1 $220 -201.19167443673095 $221 113.35502331019282 $81 $222 forward @7 unknown #
model_id-kcp-attrib $-1 -1 $-1 $-1 $83 1 1021475569 1021475569 747044865 6 #
face $223 -1 $-1 $224 $225 $9 $-1 $226 reversed single #
loop $-1 -1 $-1 $-1 $227 $83 #
plane-surface $-1 -1 $-1 50.799999999999997 177.79999999999998 26.669999999999995 1 0 0 0 -25.399999999999999 0 forward_v I I I I #
coedge $-1 -1 $-1 $228 $229 $230 $231 reversed $84 $-1 #
coedge $-1 -1 $-1 $140 $86 $232 $233 reversed $57 $-1 #
coedge $-1 -1 $-1 $86 $89 $234 $235 forward $57 $-1 #
coedge $-1 -1 $-1 $229 $228 $86 $139 forward $84 $-1 #
edge $-1 -1 $-1 $236 0 $237 353.05999999999995 $86 $238 reversed @7 unknown #
coedge $-1 -1 $-1 $239 $136 $87 $141 forward $57 $-1 #
edge $-1 -1 $-1 $240 0 $145 177.79999999999998 $87 $241 reversed @7 unknown #
coedge $-1 -1 $-1 $94 $234 $88 $143 reversed $157 $-1 #
edge $242 -1 $-1 $99 -242.89264237048394 $146 -55.421369648501198 $88 $243 reversed @7 unknown #
coedge $-1 -1 $-1 $89 $239 $244 $245 reversed $57 $-1 #
vertex $-1 -1 $-1 $141 $246 #
vertex $-1 -1 $-1 $143 $247 #
straight-curve $-1 -1 $-1 135.636 355.59999999999997 342.89999999999986 0 1 0 I I #
coedge $-1 -1 $-1 $248 $249 $91 $149 reversed $250 $-1 #
edge $251 -1 $-1 $154 -88.899999999999977 $159 264.15999999999997 $91 $252 forward @7 unknown #
coedge $-1 -1 $-1 $253 $92 $254 $255 forward $152 $-1 #
coedge $-1 -1 $-1 $92 $253 $248 $256 reversed $152 $-1 #
loop $-1 -1 $-1 $-1 $150 $257 #
attrib_edge_convexity-kcp-attrib $-1 -1 $258 $-1 $93 1 #
vertex $-1 -1 $-1 $149 $259 #
straight-curve $-1 -1 $-1 56.921365584425033 355.59999999999997 520.69999999999993 1 0 0 I I #
coedge $-1 -1 $-1 $260 $94 $249 $261 reversed $157 $-1 #
loop $-1 -1 $-1 $-1 $156 $262 #
attrib_edge_convexity-kcp-attrib $-1 -1 $263 $-1 $95 1 #
vertex $-1 -1 $-1 $95 $264 #
straight-curve $-1 -1 $-1 50.799999999999997 2.539999999999992 520.69999999999993 -1 0 0 I I #
coedge $-1 -1 $-1 $265 $254 $96 $162 forward $266 $-1 #
edge $-1 -1 $-1 $98 -47.044789814436101 $240 140.42648290754664 $96 $267 forward @7 unknown #
convexity-sys-attrib $-1 -1 $-1 $97 $63 #
point $-1 -1 $-1 76.199999999999989 355.59999999999997 520.69999999999993 #
point $-1 -1 $-1 76.199999999999989 2.5400000000000205 520.69999999999993 #
face $-1 -1 $-1 $-1 $268 $23 $-1 $269 reversed single #
loop $-1 -1 $-1 $-1 $107 $101 #
plane-surface $-1 -1 $-1 118.35918181950416 355.59999999999997 444.24118181950416 -5.2080114751009948e-016 1 -1.7409638359623325e-016 0 1.7409638359623325e-016 1 forward_v I I I I #
coedge $-1 -1 $-1 $176 $270 $178 $271 forward $102 $-1 #
coedge $-1 -1 $-1 $272 $104 $270 $273 reversed $65 $-1 #
coedge $-1 -1 $-1 $104 $272 $105 $175 forward $65 $-1 #
coedge $-1 -1 $-1 $107 $178 $104 $173 reversed $167 $-1 #
edge $-1 -1 $-1 $180 0 $274 59.435999999999993 $104 $275 forward @7 unknown #
coedge $-1 -1 $-1 $106 $105 $276 $277 reversed $43 $-1 #
edge $-1 -1 $-1 $278 0 $180 353.05999999999995 $171 $279 forward @7 unknown #
coedge $-1 -1 $-1 $280 $169 $106 $177 reversed $102 $-1 #
edge $-1 -1 $-1 $281 0 $179 353.05999999999995 $106 $282 forward @7 unknown #
coedge $-1 -1 $-1 $172 $107 $169 $271 reversed $167 $-1 #
vertex $-1 -1 $-1 $177 $283 #
vertex $-1 -1 $-1 $175 $284 #
straight-curve $-1 -1 $-1 135.6359999999998 355.59999999999997 342.89999999999975 0 0 1 I I #
model_id-kcp-attrib $-1 -1 $-1 $-1 $110 1 1021475569 1021475569 747044866 4 #
face $285 -1 $-1 $286 $287 $24 $-1 $288 reversed single #
loop $-1 -1 $-1 $-1 $289 $110 #
plane-surface $-1 -1 $-1 -55.118000000000009 0 0 1 0 0 0 0 -1 forward_v I I I I #
coedge $-1 -1 $-1 $290 $194 $291 $292 forward $111 $-1 #
coedge $-1 -1 $-1 $293 $113 $290 $294 forward $70 $-1 #
coedge $-1 -1 $-1 $113 $293 $295 $296 forward $70 $-1 #
coedge $-1 -1 $-1 $197 $196 $113 $190 reversed $198 $-1 #
edge $-1 -1 $-1 $297 -176.52999999999997 $298 176.52999999999997 $189 $299 forward @7 unknown #
coedge $-1 -1 $-1 $115 $114 $300 $301 forward $47 $-1 #
coedge $-1 -1 $-1 $302 $303 $114 $193 reversed $287 $-1 #
edge $-1 -1 $-1 $200 -55.118000000000009 $304 55.118000000000009 $192 $305 forward @7 unknown #
coedge $-1 -1 $-1 $186 $306 $115 $195 reversed $111 $-1 #
edge $-1 -1 $-1 $307 -55.118000000000009 $199 55.118000000000009 $194 $308 forward @7 unknown #
coedge $-1 -1 $-1 $189 $116 $306 $309 forward $198 $-1 #
coedge $-1 -1 $-1 $116 $189 $302 $310 reversed $198 $-1 #
loop $-1 -1 $-1 $-1 $196 $286 #
vertex $-1 -1 $-1 $117 $311 #
vertex $-1 -1 $-1 $117 $312 #
straight-curve $-1 -1 $-1 55.118000000000009 0 247.65000000000003 0 1 0 I I #
coedge $-1 -1 $-1 $202 $202 $121 $203 forward $118 $-1 #
edge $-1 -1 $-1 $313 -6.2831853071795862 $313 0 $121 $314 reversed @7 unknown #
vertex $-1 -1 $-1 $122 $315 #
ellipse-curve $-1 -1 $-1 161.036 177.79999999999998 196.84999999999999 -1 0 0 0 0 143.50999999999999 1 I I #
face $-1 -1 $-1 $316 $317 $28 $-1 $318 forward single #
loop $-1 -1 $-1 $-1 $319 $123 #
plane-surface $-1 -1 $-1 27.178000000000011 -12.24974359314308 69.436697746923755 0 0 1 1 0 0 forward_v I I I I #
coedge $-1 -1 $-1 $320 $321 $322 $323 forward $124 $-1 #
coedge $-1 -1 $-1 $324 $126 $321 $325 reversed $79 $-1 #
coedge $-1 -1 $-1 $126 $324 $127 $215 forward $79 $-1 #
coedge $-1 -1 $-1 $129 $322 $126 $213 reversed $219 $-1 #
edge $-1 -1 $-1 $221 -88.264999999999986 $326 78.555256406856842 $126 $327 forward @7 unknown #
coedge $-1 -1 $-1 $128 $127 $328 $329 reversed $53 $-1 #
edge $-1 -1 $-1 $330 0 $221 82.296000000000006 $211 $331 forward @7 unknown #
coedge $-1 -1 $-1 $332 $333 $128 $217 reversed $334 $-1 #
edge $-1 -1 $-1 $335 0 $220 82.296000000000006 $128 $336 forward @7 unknown #
coedge $-1 -1 $-1 $337 $129 $333 $338 reversed $219 $-1 #
loop $-1 -1 $-1 $-1 $129 $339 #
vertex $-1 -1 $-1 $217 $340 #
vertex $-1 -1 $-1 $215 $341 #
straight-curve $-1 -1 $-1 -55.118000000000009 176.52999999999997 -43.918325563269065 0 0 1 I I #
model_id-kcp-attrib $-1 -1 $-1 $-1 $132 1 1021475569 1021475569 747044865 7 #
face $342 -1 $-1 $343 $344 $9 $-1 $345 reversed single #
loop $-1 -1 $-1 $-1 $346 $132 #
plane-surface $-1 -1 $-1 135.636 355.59999999999997 27.939999999999994 0 0 -1 -25.399999999999999 0 0 forward_v I I I I #
coedge $-1 -1 $-1 $347 $348 $349 $350 reversed $133 $-1 #
coedge $-1 -1 $-1 $138 $135 $351 $352 reversed $84 $-1 #
coedge $-1 -1 $-1 $135 $138 $353 $354 forward $84 $-1 #
coedge $-1 -1 $-1 $348 $347 $135 $231 forward $133 $-1 #
edge $355 -1 $-1 $356 -88.899999999999977 $357 264.15999999999997 $135 $358 forward @7 unknown #
coedge $-1 -1 $-1 $359 $360 $136 $233 forward $361 $-1 #
edge $-1 -1 $-1 $240 -79.109162781634382 $236 238.39083721836548 $136 $362 forward @7 unknown #
coedge $-1 -1 $-1 $142 $353 $137 $235 reversed $157 $-1 #
edge $363 -1 $-1 $146 -171.44999999999987 $237 146.04999999999998 $137 $364 reversed @7 unknown #
vertex $-1 -1 $-1 $233 $365 #
vertex $-1 -1 $-1 $235 $366 #
straight-curve $-1 -1 $-1 135.636 355.59999999999997 25.400000000000006 0 1 0 I I #
coedge $-1 -1 $-1 $144 $140 $367 $368 reversed $57 $-1 #
vertex $-1 -1 $-1 $162 $369 #
straight-curve $-1 -1 $-1 135.636 355.59999999999997 342.89999999999986 0 1 0 I I #
attrib_edge_convexity-kcp-attrib $-1 -1 $370 $-1 $143 1 #
straight-curve $-1 -1 $-1 153.20682287115699 2.539999999999992 290.33770935978674 -0.31704057446786943 0 0.94841197490388296 I I #
coedge $-1 -1 $-1 $371 $372 $144 $245 forward $373 $-1 #
edge $-1 -1 $-1 $145 0 $374 3.1415926535897931 $144 $375 forward @7 unknown #
point $-1 -1 $-1 135.636 177.79999999999998 342.89999999999998 #
point $-1 -1 $-1 135.636 2.5400000000000205 342.89999999999986 #
coedge $-1 -1 $-1 $376 $148 $151 $256 forward $250 $-1 #
coedge $-1 -1 $-1 $148 $376 $156 $261 forward $250 $-1 #
loop $-1 -1 $-1 $-1 $148 $377 #
attrib_edge_convexity-kcp-attrib $-1 -1 $378 $-1 $149 1 #
straight-curve $-1 -1 $-1 50.799999999999997 266.69999999999999 520.69999999999993 0 -1 0 I I #
coedge $-1 -1 $-1 $151 $150 $379 $380 reversed $152 $-1 #
coedge $-1 -1 $-1 $161 $381 $150 $255 reversed $266 $-1 #
edge $-1 -1 $-1 $98 0 $382 0.12322970832094368 $150 $383 forward @7 unknown #
edge $-1 -1 $-1 $154 -1.2699999999999818 $384 1.2699999999999818 $151 $385 forward @7 unknown #
face $386 -1 $-1 $387 $152 $9 $-1 $388 reversed single #
convexity-sys-attrib $-1 -1 $-1 $153 $93 #
point $-1 -1 $-1 50.799999999999997 355.59999999999997 520.69999999999993 #
coedge $-1 -1 $-1 $389 $156 $390 $391 forward $157 $-1 #
edge $392 -1 $-1 $393 258.44499999999999 $159 260.98499999999996 $249 $394 reversed @7 unknown #
face $395 -1 $-1 $396 $157 $9 $-1 $397 reversed single #
convexity-sys-attrib $-1 -1 $-1 $158 $95 #
point $-1 -1 $-1 50.799999999999997 2.5400000000000205 520.69999999999993 #
coedge $-1 -1 $-1 $381 $161 $360 $398 forward $266 $-1 #
loop $-1 -1 $-1 $-1 $265 $387 #
straight-curve $-1 -1 $-1 91.115107188488977 355.59999999999997 476.08215798315251 0.31704057446786943 0 -0.94841197490388296 I I #
loop $-1 -1 $-1 $-1 $399 $166 #
plane-surface $-1 -1 $-1 118.35918181950434 2.540000000000008 444.24118181950428 -5.2080114751009948e-016 1 -1.7409638359623325e-016 0 1.7409638359623325e-016 1 forward_v I I I I #
coedge $-1 -1 $-1 $169 $280 $170 $273 forward $102 $-1 #
edge $-1 -1 $-1 $274 -242.89264237048394 $179 -55.421369648501205 $169 $400 forward @7 unknown #
coedge $-1 -1 $-1 $171 $170 $401 $402 reversed $65 $-1 #
edge $-1 -1 $-1 $403 0 $274 353.05999999999995 $270 $404 forward @7 unknown #
vertex $-1 -1 $-1 $273 $405 #
straight-curve $-1 -1 $-1 135.6359999999998 355.59999999999997 520.69999999999982 -1 0 0 I I #
coedge $-1 -1 $-1 $401 $399 $174 $277 forward $268 $-1 #
edge $-1 -1 $-1 $281 0 $278 177.80000000000007 $174 $406 forward @7 unknown #
vertex $-1 -1 $-1 $277 $407 #
straight-curve $-1 -1 $-1 135.636 2.5400000000000205 520.69999999999993 -5.232569854914918e-016 1 -3.2200429876399491e-016 I I #
coedge $-1 -1 $-1 $270 $176 $399 $408 reversed $102 $-1 #
vertex $-1 -1 $-1 $408 $409 #
straight-curve $-1 -1 $-1 135.636 2.5400000000000205 342.89999999999986 -5.232569854914918e-016 1 -3.2200429876399491e-016 I I #
point $-1 -1 $-1 135.6359999999998 355.59999999999997 342.89999999999975 #
point $-1 -1 $-1 135.6359999999998 355.59999999999997 520.69999999999982 #
model_id-kcp-attrib $-1 -1 $-1 $-1 $183 1 1021475569 1021475569 747044866 6 #
face $410 -1 $-1 $-1 $198 $24 $-1 $411 reversed single #
loop $-1 -1 $-1 $-1 $302 $183 #
plane-surface $-1 -1 $-1 0 176.52999999999997 0 0 -1 0 0 0 -1 forward_v I I I I #
coedge $-1 -1 $-1 $412 $300 $303 $413 forward $184 $-1 #
coedge $-1 -1 $-1 $306 $186 $187 $294 reversed $111 $-1 #
coedge $-1 -1 $-1 $300 $412 $186 $292 reversed $184 $-1 #
edge $-1 -1 $-1 $307 -247.65000000000003 $414 247.65000000000003 $291 $415 forward @7 unknown #
coedge $-1 -1 $-1 $188 $187 $412 $416 forward $70 $-1 #
edge $-1 -1 $-1 $298 -55.118000000000009 $414 55.118000000000009 $290 $417 forward @7 unknown #
coedge $-1 -1 $-1 $303 $302 $188 $296 reversed $287 $-1 #
edge $-1 -1 $-1 $418 -55.118000000000009 $297 55.118000000000009 $295 $419 forward @7 unknown #
vertex $-1 -1 $-1 $190 $420 #
vertex $-1 -1 $-1 $309 $421 #
straight-curve $-1 -1 $-1 55.118000000000009 0 -247.65000000000003 0 -1 0 I I #
coedge $-1 -1 $-1 $289 $291 $191 $301 reversed $184 $-1 #
edge $-1 -1 $-1 $304 -176.52999999999997 $307 176.52999999999997 $300 $422 forward @7 unknown #
coedge $-1 -1 $-1 $295 $192 $197 $310 forward $287 $-1 #
coedge $-1 -1 $-1 $192 $295 $289 $413 reversed $287 $-1 #
vertex $-1 -1 $-1 $193 $423 #
straight-curve $-1 -1 $-1 0 176.52999999999997 247.65000000000003 -1 0 0 I I #
coedge $-1 -1 $-1 $194 $290 $196 $309 reversed $111 $-1 #
vertex $-1 -1 $-1 $301 $424 #
straight-curve $-1 -1 $-1 0 -176.52999999999997 247.65000000000003 1 0 0 I I #
edge $-1 -1 $-1 $199 -247.65000000000003 $298 247.65000000000003 $196 $425 forward @7 unknown #
edge $-1 -1 $-1 $200 -247.65000000000003 $297 247.65000000000003 $197 $426 forward @7 unknown #
point $-1 -1 $-1 55.118000000000009 -176.52999999999997 247.65000000000003 #
point $-1 -1 $-1 55.118000000000009 176.52999999999997 247.65000000000003 #
vertex $-1 -1 $-1 $203 $427 #
ellipse-curve $-1 -1 $-1 135.636 177.79999999999998 196.84999999999999 1 0 0 0 0 143.50999999999999 1 I I #
point $-1 -1 $-1 161.036 177.79999999999998 53.340000000000032 #
face $-1 -1 $-1 $339 $334 $28 $-1 $428 forward single #
loop $-1 -1 $-1 $-1 $429 $206 #
plane-surface $-1 -1 $-1 27.178000000000011 -176.52999999999997 69.436697746923755 0 -1 0 0 0 -1 forward_v I I I I #
coedge $-1 -1 $-1 $430 $431 $432 $433 forward $207 $-1 #
coedge $-1 -1 $-1 $434 $209 $431 $435 reversed $124 $-1 #
coedge $-1 -1 $-1 $209 $434 $210 $325 forward $124 $-1 #
coedge $-1 -1 $-1 $212 $432 $209 $323 reversed $219 $-1 #
edge $-1 -1 $-1 $326 -0.075248972316681415 $436 0.075248972316680832 $209 $437 forward @7 unknown #
coedge $-1 -1 $-1 $211 $210 $438 $439 reversed $79 $-1 #
edge $-1 -1 $-1 $440 0 $326 82.296000000000006 $321 $441 forward @7 unknown #
vertex $-1 -1 $-1 $325 $442 #
straight-curve $-1 -1 $-1 -55.118000000000009 88.264999999999986 69.436697746923841 0 -1 0 I I #
coedge $-1 -1 $-1 $438 $443 $214 $329 forward $444 $-1 #
edge $445 -1 $-1 $335 -201.19167443673095 $330 113.35502331019282 $214 $446 forward @7 unknown #
vertex $-1 -1 $-1 $329 $447 #
straight-curve $-1 -1 $-1 27.178000000000011 176.52999999999997 69.436697746923755 -1 0 0 I I #
coedge $-1 -1 $-1 $448 $216 $443 $449 reversed $334 $-1 #
coedge $-1 -1 $-1 $216 $448 $218 $338 forward $334 $-1 #
loop $-1 -1 $-1 $-1 $333 $316 #
vertex $-1 -1 $-1 $449 $450 #
straight-curve $-1 -1 $-1 27.178000000000011 176.52999999999997 -245.11000000000001 -1 0 0 I I #
coedge $-1 -1 $-1 $432 $218 $429 $451 reversed $219 $-1 #
edge $-1 -1 $-1 $452 -264.79499999999996 $220 88.264999999999986 $333 $453 forward @7 unknown #
face $-1 -1 $-1 $454 $219 $28 $-1 $455 reversed single #
point $-1 -1 $-1 -55.117999999999995 176.52999999999997 -245.11000000000001 #
point $-1 -1 $-1 -55.117999999999995 176.52999999999997 69.436697746923755 #
model_id-kcp-attrib $-1 -1 $-1 $-1 $224 1 1021475569 1021475569 747044865 8 #
face $456 -1 $-1 $457 $458 $9 $-1 $459 reversed single #
loop $-1 -1 $-1 $-1 $460 $224 #
plane-surface $-1 -1 $-1 133.096 355.59999999999997 342.89999999999998 1 0 0 0 0 -25.399999999999999 forward_v I I I I #
coedge $-1 -1 $-1 $461 $462 $463 $464 reversed $225 $-1 #
coedge $-1 -1 $-1 $230 $227 $465 $466 reversed $133 $-1 #
coedge $-1 -1 $-1 $227 $230 $467 $468 reversed $133 $-1 #
coedge $-1 -1 $-1 $462 $461 $227 $350 forward $225 $-1 #
edge $469 -1 $-1 $470 -88.899999999999977 $471 264.15999999999997 $227 $472 reversed @7 unknown #
coedge $-1 -1 $-1 $465 $473 $228 $352 forward $474 $-1 #
edge $-1 -1 $-1 $236 -21.526499999999999 $356 63.3095 $228 $475 forward @7 unknown #
coedge $-1 -1 $-1 $234 $467 $229 $354 reversed $157 $-1 #
edge $476 -1 $-1 $237 -42.418000000000006 $357 42.417999999999992 $229 $477 reversed @7 unknown #
attrib_edge_convexity-kcp-attrib $-1 -1 $478 $-1 $231 1 #
vertex $-1 -1 $-1 $352 $479 #
vertex $-1 -1 $-1 $354 $480 #
straight-curve $-1 -1 $-1 50.799999999999997 266.69999999999999 25.399999999999999 0 -1 0 I I #
coedge $-1 -1 $-1 $481 $232 $473 $482 forward $361 $-1 #
coedge $-1 -1 $-1 $232 $481 $265 $398 reversed $361 $-1 #
loop $-1 -1 $-1 $-1 $359 $483 #
straight-curve $-1 -1 $-1 135.63599999999997 355.59999999999997 263.79083721836548 0 0 -1 I I #
attrib_edge_convexity-kcp-attrib $-1 -1 $484 $-1 $235 1 #
straight-curve $-1 -1 $-1 135.636 2.539999999999992 171.44999999999999 0 0 1 I I #
point $-1 -1 $-1 135.636 355.59999999999997 25.400000000000006 #
point $-1 -1 $-1 135.636 2.5400000000000205 25.400000000000006 #
coedge $-1 -1 $-1 $485 $486 $239 $368 forward $487 $-1 #
edge $-1 -1 $-1 $374 -3.1415926535897931 $145 0 $239 $488 forward @7 unknown #
point $-1 -1 $-1 135.636 355.59999999999997 342.89999999999986 #
convexity-sys-attrib $-1 -1 $-1 $242 $143 #
coedge $-1 -1 $-1 $489 $244 $486 $490 forward $373 $-1 #
coedge $-1 -1 $-1 $244 $489 $485 $491 reversed $373 $-1 #
loop $-1 -1 $-1 $-1 $489 $492 #
vertex $-1 -1 $-1 $245 $493 #
ellipse-curve $-1 -1 $-1 135.636 177.79999999999998 196.84999999999999 1 0 0 0 0 146.04999999999998 1 I I #
coedge $-1 -1 $-1 $249 $248 $494 $495 forward $250 $-1 #
face $496 -1 $-1 $257 $250 $9 $-1 $497 forward single #
convexity-sys-attrib $-1 -1 $-1 $251 $149 #
coedge $-1 -1 $-1 $498 $494 $253 $380 forward $499 $-1 #
edge $-1 -1 $-1 $384 -6.1213655844250354 $382 17.449559090975256 $253 $500 reversed @7 unknown #
coedge $-1 -1 $-1 $254 $265 $501 $502 reversed $266 $-1 #
vertex $-1 -1 $-1 $380 $503 #
straight-curve $-1 -1 $-1 76.199999999999989 355.59999999999997 520.69999999999993 -14.8428114415076 0 -20.611912781492432 I I #
vertex $-1 -1 $-1 $256 $504 #
straight-curve $-1 -1 $-1 50.799999999999997 355.59999999999997 519.42999999999995 0 0 -1 I I #
model_id-kcp-attrib $-1 -1 $-1 $-1 $257 1 1021475569 1021475569 747044865 12 #
face $505 -1 $-1 $483 $266 $9 $-1 $506 reversed single #
plane-surface $-1 -1 $-1 63.042731168850061 355.59999999999997 519.42999999999995 0 -1 0 25.399999999999999 0 0 forward_v I I I I #
coedge $-1 -1 $-1 $507 $260 $508 $509 forward $157 $-1 #
coedge $-1 -1 $-1 $494 $498 $260 $391 reversed $499 $-1 #
edge $510 -1 $-1 $393 0 $511 23.570924675400292 $390 $512 reversed @7 unknown #
attrib_edge_convexity-kcp-attrib $-1 -1 $513 $-1 $261 1 #
vertex $-1 -1 $-1 $261 $514 #
straight-curve $-1 -1 $-1 50.799999999999997 2.5400000000000063 259.71499999999997 0 0 -1 I I #
model_id-kcp-attrib $-1 -1 $-1 $-1 $262 1 1021475569 1021475569 747044865 16 #
face $515 -1 $-1 $516 $517 $9 $-1 $518 reversed single #
plane-surface $-1 -1 $-1 50.799999999999997 2.5399999999999996 0 0 1 0 25.399999999999999 0 0 forward_v I I I I #
edge $-1 -1 $-1 $240 7.1884610387106288e-016 $519 0.10131519923365809 $265 $520 forward @7 unknown #
coedge $-1 -1 $-1 $276 $401 $280 $408 forward $268 $-1 #
straight-curve $-1 -1 $-1 153.20682287115682 355.59999999999991 290.33770935978663 0.31704057446786943 0 -0.94841197490388296 I I #
coedge $-1 -1 $-1 $399 $276 $272 $402 forward $268 $-1 #
edge $-1 -1 $-1 $278 0 $403 59.436000000000007 $272 $521 forward @7 unknown #
vertex $-1 -1 $-1 $408 $522 #
straight-curve $-1 -1 $-1 76.199999999999989 2.5400000000000205 520.69999999999993 -5.232569854914918e-016 1 -3.2200429876399491e-016 I I #
point $-1 -1 $-1 76.199999999999804 355.59999999999997 520.69999999999982 #
straight-curve $-1 -1 $-1 135.636 2.5400000000000205 342.89999999999986 0 0 1 I I #
point $-1 -1 $-1 135.636 2.5400000000000205 520.69999999999993 #
edge $-1 -1 $-1 $403 -242.89264237048394 $281 -55.421369648501198 $280 $523 reversed @7 unknown #
point $-1 -1 $-1 135.636 2.5400000000000205 342.89999999999986 #
model_id-kcp-attrib $-1 -1 $-1 $-1 $286 1 1021475569 1021475569 747044866 11 #
plane-surface $-1 -1 $-1 55.118000000000009 0 0 -1 0 0 0 0 1 forward_v I I I I #
coedge $-1 -1 $-1 $291 $289 $293 $416 reversed $184 $-1 #
edge $-1 -1 $-1 $304 -247.65000000000003 $418 247.65000000000003 $303 $524 forward @7 unknown #
vertex $-1 -1 $-1 $416 $525 #
straight-curve $-1 -1 $-1 -55.118000000000009 -176.52999999999997 0 0 0 -1 I I #
edge $-1 -1 $-1 $414 -176.52999999999997 $418 176.52999999999997 $412 $526 forward @7 unknown #
straight-curve $-1 -1 $-1 0 -176.52999999999997 -247.65000000000003 -1 0 0 I I #
vertex $-1 -1 $-1 $296 $527 #
straight-curve $-1 -1 $-1 0 176.52999999999997 -247.65000000000003 1 0 0 I I #
point $-1 -1 $-1 55.118000000000009 176.52999999999997 -247.65000000000003 #
point $-1 -1 $-1 55.118000000000009 -176.52999999999997 -247.65000000000003 #
straight-curve $-1 -1 $-1 -55.118000000000009 0 247.65000000000003 0 -1 0 I I #
point $-1 -1 $-1 -55.118000000000009 176.52999999999997 247.65000000000003 #
point $-1 -1 $-1 -55.118000000000009 -176.52999999999997 247.65000000000003 #
straight-curve $-1 -1 $-1 55.118000000000009 -176.52999999999997 0 0 0 -1 I I #
straight-curve $-1 -1 $-1 55.118000000000009 176.52999999999997 0 0 0 -1 I I #
point $-1 -1 $-1 135.636 177.79999999999998 340.36000000000001 #
plane-surface $-1 -1 $-1 27.178000000000011 -176.52999999999997 -245.11000000000001 0 0 -1 -1 0 0 forward_v I I I I #
coedge $-1 -1 $-1 $528 $529 $337 $451 forward $317 $-1 #
coedge $-1 -1 $-1 $530 $319 $529 $531 reversed $207 $-1 #
coedge $-1 -1 $-1 $319 $530 $320 $435 forward $207 $-1 #
coedge $-1 -1 $-1 $322 $337 $319 $433 reversed $219 $-1 #
edge $-1 -1 $-1 $436 100.51474359314307 $532 264.79499999999996 $319 $533 forward @7 unknown #
coedge $-1 -1 $-1 $321 $320 $534 $535 reversed $124 $-1 #
edge $-1 -1 $-1 $536 0 $436 82.296000000000006 $431 $537 forward @7 unknown #
vertex $-1 -1 $-1 $435 $538 #
ellipse-curve $-1 -1 $-1 -55.118000000000009 -1.2700000000000102 -76.200000000000017 1 0 0 0 0 146.04999999999998 1 I I #
coedge $-1 -1 $-1 $534 $328 $324 $439 forward $444 $-1 #
edge $539 -1 $-1 $330 -88.264999999999986 $440 78.555256406856842 $324 $540 forward @7 unknown #
vertex $-1 -1 $-1 $439 $541 #
straight-curve $-1 -1 $-1 27.178000000000011 9.7097435931431448 69.436697746923755 -1 0 0 I I #
point $-1 -1 $-1 -55.117999999999995 9.7097435931431448 69.436697746923755 #
coedge $-1 -1 $-1 $328 $542 $332 $449 forward $444 $-1 #
loop $-1 -1 $-1 $-1 $443 $454 #
convexity-sys-attrib $-1 -1 $-1 $-1 $329 #
straight-curve $-1 -1 $-1 27.177999999999997 176.52999999999997 -43.918325563269065 0 0 1 I I #
point $-1 -1 $-1 27.178000000000011 176.52999999999997 69.436697746923755 #
coedge $-1 -1 $-1 $333 $332 $528 $543 forward $334 $-1 #
edge $544 -1 $-1 $545 -264.79499999999996 $335 88.264999999999986 $332 $546 forward @7 unknown #
point $-1 -1 $-1 27.178000000000011 176.52999999999997 -245.11000000000001 #
edge $-1 -1 $-1 $532 -113.35502331019282 $452 201.19167443673095 $429 $547 forward @7 unknown #
vertex $-1 -1 $-1 $543 $548 #
straight-curve $-1 -1 $-1 -55.118000000000009 88.264999999999986 -245.11000000000001 0 1 0 I I #
face $-1 -1 $-1 $-1 $444 $28 $-1 $549 forward single #
plane-surface $-1 -1 $-1 -55.118000000000009 -1.972447090992091e-005 -87.8297865083033 1 -6.4496594742160011e-032 -1.0598476881918118e-032 -1.0598476881918118e-032 0 -1 forward_v I I I I #
model_id-kcp-attrib $-1 -1 $-1 $-1 $343 1 1021475569 1021475569 747044865 9 #
face $550 -1 $-1 $377 $499 $9 $-1 $551 reversed single #
loop $-1 -1 $-1 $-1 $552 $343 #
plane-surface $-1 -1 $-1 73.791033583744138 355.59999999999997 519.89471694085159 0.94841197490388296 0 0.31704057446786943 8.0528305914838825 0 -24.089664162558623 forward_v I I I I #
coedge $-1 -1 $-1 $553 $554 $555 $556 reversed $344 $-1 #
coedge $-1 -1 $-1 $349 $346 $557 $558 forward $225 $-1 #
coedge $-1 -1 $-1 $346 $349 $559 $560 reversed $225 $-1 #
coedge $-1 -1 $-1 $554 $561 $346 $464 forward $344 $-1 #
edge $562 -1 $-1 $563 0 $564 353.05999999999995 $463 $565 reversed @7 unknown #
coedge $-1 -1 $-1 $557 $351 $347 $466 forward $474 $-1 #
edge $566 -1 $-1 $356 -1.269999999999996 $470 1.2699999999999996 $465 $567 forward @7 unknown #
coedge $-1 -1 $-1 $353 $559 $348 $468 forward $157 $-1 #
edge $568 -1 $-1 $471 -14.604999999999997 $357 -12.065000000000001 $348 $569 reversed @7 unknown #
attrib_edge_convexity-kcp-attrib $-1 -1 $570 $-1 $350 1 #
vertex $-1 -1 $-1 $558 $571 #
vertex $-1 -1 $-1 $468 $572 #
straight-curve $-1 -1 $-1 50.79999999999999 266.69999999999999 27.939999999999994 0 1 0 I I #
coedge $-1 -1 $-1 $351 $557 $359 $482 reversed $474 $-1 #
loop $-1 -1 $-1 $-1 $465 $573 #
straight-curve $-1 -1 $-1 114.1095 355.59999999999997 25.399999999999999 -1 0 0 I I #
attrib_edge_convexity-kcp-attrib $-1 -1 $574 $-1 $354 1 #
straight-curve $-1 -1 $-1 93.217999999999989 2.539999999999992 25.399999999999999 1 0 0 I I #
convexity-sys-attrib $-1 -1 $-1 $355 $231 #
point $-1 -1 $-1 50.799999999999997 355.59999999999997 25.399999999999999 #
point $-1 -1 $-1 50.799999999999997 2.5400000000000205 25.399999999999999 #
coedge $-1 -1 $-1 $360 $359 $561 $575 reversed $361 $-1 #
edge $-1 -1 $-1 $236 1.9780692392866461e-016 $563 0.14142135623730928 $359 $576 forward @7 unknown #
face $577 -1 $-1 $573 $361 $9 $-1 $578 reversed single #
convexity-sys-attrib $-1 -1 $-1 $363 $235 #
coedge $-1 -1 $-1 $579 $367 $372 $491 forward $487 $-1 #
coedge $-1 -1 $-1 $367 $579 $371 $490 reversed $487 $-1 #
loop $-1 -1 $-1 $-1 $367 $580 #
ellipse-curve $-1 -1 $-1 135.636 177.79999999999998 196.84999999999999 1 0 0 0 0 146.04999999999998 1 I I #
coedge $-1 -1 $-1 $372 $371 $581 $582 reversed $373 $-1 #
edge $-1 -1 $-1 $374 0 $583 1.0000000000000002 $371 $584 forward @7 unknown #
edge $-1 -1 $-1 $145 0 $585 1.0000000000000002 $372 $586 forward @7 unknown #
face $587 -1 $-1 $-1 $373 $9 $-1 $588 forward single #
point $-1 -1 $-1 135.636 177.79999999999995 50.799999999999997 #
coedge $-1 -1 $-1 $379 $390 $376 $495 reversed $499 $-1 #
edge $-1 -1 $-1 $384 -88.899999999999977 $393 264.15999999999997 $376 $589 reversed @7 unknown #
model_id-kcp-attrib $-1 -1 $-1 $-1 $377 1 1021475569 1021475569 747044865 11 #
plane-surface $-1 -1 $-1 50.799999999999997 177.79999999999998 519.42999999999995 -1 0 0 0 -25.399999999999999 0 forward_v I I I I #
coedge $-1 -1 $-1 $390 $379 $552 $590 forward $499 $-1 #
loop $-1 -1 $-1 $-1 $494 $457 #
straight-curve $-1 -1 $-1 56.921365584425033 355.59999999999997 518.15999999999997 -1 0 0 I I #
coedge $-1 -1 $-1 $591 $552 $381 $502 forward $458 $-1 #
edge $592 -1 $-1 $382 -45.215714489836216 $519 140.01318065447043 $381 $593 reversed @7 unknown #
point $-1 -1 $-1 74.370924675400289 355.59999999999997 518.15999999999985 #
point $-1 -1 $-1 50.799999999999997 355.59999999999997 518.15999999999997 #
model_id-kcp-attrib $-1 -1 $-1 $-1 $387 1 1021475569 1021475569 747044865 13 #
plane-surface $-1 -1 $-1 104.82573116885006 355.59999999999997 431.06167443673093 0 -1 0 8.0528305914838825 0 -24.089664162558627 forward_v I I I I #
coedge $-1 -1 $-1 $559 $389 $554 $594 forward $157 $-1 #
coedge $-1 -1 $-1 $552 $555 $389 $509 reversed $458 $-1 #
edge $595 -1 $-1 $511 -241.0635670458841 $596 -55.834671901577472 $508 $597 reversed @7 unknown #
attrib_edge_convexity-kcp-attrib $-1 -1 $598 $-1 $391 1 #
vertex $-1 -1 $-1 $391 $599 #
straight-curve $-1 -1 $-1 50.799999999999997 2.539999999999992 518.15999999999997 -1 0 0 I I #
convexity-sys-attrib $-1 -1 $-1 $392 $261 #
point $-1 -1 $-1 50.799999999999997 2.5400000000000205 518.15999999999997 #
model_id-kcp-attrib $-1 -1 $-1 $-1 $396 1 1021475569 1021475569 747044865 17 #
face $600 -1 $-1 $601 $602 $9 $-1 $603 reversed single #
loop $-1 -1 $-1 $-1 $604 $396 #
cone-surface $-1 -1 $-1 135.636 177.79999999999998 196.84999999999999 1 0 0 0 0 146.04999999999998 1 I I 0 1 146.04999999999998 forward I I I I #
vertex $-1 -1 $-1 $502 $605 #
straight-curve $-1 -1 $-1 135.636 355.59999999999997 342.89999999999998 -25.070275923182166 0 -4.0793706788563009 I I #
straight-curve $-1 -1 $-1 135.636 2.5400000000000205 520.69999999999993 -1 0 0 I I #
point $-1 -1 $-1 76.199999999999989 2.5400000000000205 520.69999999999993 #
straight-curve $-1 -1 $-1 153.20682287115699 2.539999999999992 290.33770935978674 -0.31704057446786943 0 0.94841197490388296 I I #
straight-curve $-1 -1 $-1 -55.118000000000009 176.52999999999997 0 0 0 -1 I I #
point $-1 -1 $-1 -55.118000000000009 -176.52999999999997 -247.65000000000003 #
straight-curve $-1 -1 $-1 -55.118000000000009 0 -247.65000000000003 0 1 0 I I #
point $-1 -1 $-1 -55.118000000000009 176.52999999999997 -247.65000000000003 #
coedge $-1 -1 $-1 $606 $429 $448 $543 reversed $317 $-1 #
coedge $-1 -1 $-1 $429 $606 $430 $531 forward $317 $-1 #
coedge $-1 -1 $-1 $431 $430 $607 $608 reversed $207 $-1 #
edge $-1 -1 $-1 $609 0 $532 82.296000000000006 $529 $610 forward @7 unknown #
vertex $-1 -1 $-1 $531 $611 #
straight-curve $-1 -1 $-1 -55.118000000000009 88.264999999999986 69.436697746923841 0 -1 0 I I #
coedge $-1 -1 $-1 $607 $438 $434 $535 forward $444 $-1 #
edge $612 -1 $-1 $440 -0.075248972316681415 $536 0.075248972316680832 $434 $613 forward @7 unknown #
vertex $-1 -1 $-1 $535 $614 #
straight-curve $-1 -1 $-1 27.178000000000011 -12.24974359314308 69.436697746923755 -1 0 0 I I #
point $-1 -1 $-1 -55.117999999999995 -12.24974359314308 69.436697746923755 #
convexity-sys-attrib $-1 -1 $-1 $-1 $439 #
straight-curve $-1 -1 $-1 27.177999999999997 88.264999999999986 69.436697746923841 0 -1 0 I I #
point $-1 -1 $-1 27.178000000000011 9.7097435931431448 69.436697746923755 #
coedge $-1 -1 $-1 $443 $607 $606 $615 forward $444 $-1 #
edge $-1 -1 $-1 $545 0 $452 82.296000000000006 $448 $616 forward @7 unknown #
convexity-sys-attrib $-1 -1 $-1 $-1 $449 #
vertex $-1 -1 $-1 $449 $617 #
straight-curve $-1 -1 $-1 27.177999999999997 88.264999999999986 -245.11000000000001 0 1 0 I I #
straight-curve $-1 -1 $-1 -55.118000000000009 -176.52999999999997 -43.918325563269065 0 0 -1 I I #
point $-1 -1 $-1 -55.117999999999995 -176.52999999999997 -245.11000000000001 #
plane-surface $-1 -1 $-1 27.177999999999997 -1.972447090992091e-005 -87.8297865083033 1 -6.4496594742160011e-032 -1.0598476881918118e-032 -1.0598476881918118e-032 0 -1 forward_v I I I I #
model_id-kcp-attrib $-1 -1 $-1 $-1 $457 1 1021475569 1021475569 747044865 10 #
plane-surface $-1 -1 $-1 50.799999999999997 355.59999999999997 518.15999999999997 0 0 1 25.399999999999999 0 0 forward_v I I I I #
coedge $-1 -1 $-1 $501 $508 $498 $590 reversed $458 $-1 #
coedge $-1 -1 $-1 $618 $460 $619 $620 forward $344 $-1 #
coedge $-1 -1 $-1 $460 $463 $507 $594 reversed $344 $-1 #
coedge $-1 -1 $-1 $508 $621 $460 $556 forward $458 $-1 #
edge $622 -1 $-1 $623 188.77974359314305 $596 353.05999999999995 $555 $624 reversed @7 unknown #
coedge $-1 -1 $-1 $473 $465 $461 $558 reversed $474 $-1 #
edge $-1 -1 $-1 $563 -18.986500000000007 $470 63.3095 $557 $625 reversed @7 unknown #
coedge $-1 -1 $-1 $467 $507 $462 $560 forward $157 $-1 #
edge $626 -1 $-1 $564 -39.878000000000014 $471 42.417999999999999 $462 $627 reversed @7 unknown #
coedge $-1 -1 $-1 $463 $628 $481 $575 forward $344 $-1 #
attrib_edge_convexity-kcp-attrib $-1 -1 $629 $-1 $464 2 #
vertex $-1 -1 $-1 $575 $630 #
vertex $-1 -1 $-1 $594 $631 #
straight-curve $-1 -1 $-1 133.096 355.59999999999997 27.939999999999998 0 1 0 I I #
attrib_edge_convexity-kcp-attrib $-1 -1 $632 $-1 $466 1 #
straight-curve $-1 -1 $-1 50.799999999999997 355.59999999999997 26.669999999999995 0 0 1 I I #
attrib_edge_convexity-kcp-attrib $-1 -1 $633 $-1 $468 1 #
straight-curve $-1 -1 $-1 50.799999999999997 2.5400000000000063 13.334999999999997 0 0 1 I I #
convexity-sys-attrib $-1 -1 $-1 $469 $350 #
point $-1 -1 $-1 50.799999999999997 355.59999999999997 27.939999999999994 #
point $-1 -1 $-1 50.79999999999999 2.5400000000000205 27.939999999999994 #
face $634 -1 $-1 $262 $474 $9 $-1 $635 reversed single #
convexity-sys-attrib $-1 -1 $-1 $476 $354 #
edge $636 -1 $-1 $519 -78.695860528558285 $563 235.85083721836548 $481 $637 reversed @7 unknown #
straight-curve $-1 -1 $-1 135.636 355.59999999999997 25.399999999999999 -17.960512242138307 0 17.960512242138307 I I #
model_id-kcp-attrib $-1 -1 $-1 $-1 $483 1 1021475569 1021475569 747044865 14 #
plane-surface $-1 -1 $-1 134.36599999999999 355.59999999999997 184.68167443673093 0 -1 0 0 0 -25.399999999999999 forward_v I I I I #
coedge $-1 -1 $-1 $486 $485 $638 $639 reversed $487 $-1 #
face $640 -1 $-1 $492 $487 $9 $-1 $641 forward single #
coedge $-1 -1 $-1 $638 $638 $489 $582 forward $642 $-1 #
edge $-1 -1 $-1 $585 0 $583 3.1415926535897931 $581 $643 forward @7 unknown #
vertex $-1 -1 $-1 $582 $644 #
straight-curve $-1 -1 $-1 135.636 177.79999999999995 50.799999999999997 25.399999999999999 0 0 I I #
vertex $-1 -1 $-1 $582 $645 #
straight-curve $-1 -1 $-1 135.636 177.79999999999998 342.89999999999998 25.399999999999999 0 0 I I #
model_id-kcp-attrib $-1 -1 $-1 $-1 $492 1 1021475569 1021475569 747044865 24 #
cone-surface $-1 -1 $-1 135.636 177.79999999999998 196.84999999999999 1 0 0 0 0 146.04999999999998 1 I I 0 1 146.04999999999998 forward I I I I #
straight-curve $-1 -1 $-1 50.799999999999997 266.69999999999999 518.15999999999997 0 1 0 I I #
edge $646 -1 $-1 $382 0 $511 353.05999999999995 $498 $647 reversed @7 unknown #
coedge $-1 -1 $-1 $648 $501 $628 $649 forward $458 $-1 #
attrib_edge_convexity-kcp-attrib $-1 -1 $650 $-1 $502 1 #
straight-curve $-1 -1 $-1 88.706140772233127 355.59999999999997 475.27687492400418 -0.31704057446786943 0 0.94841197490388296 I I #
edge $651 -1 $-1 $596 -171.03669774692378 $564 143.50999999999999 $554 $652 reversed @7 unknown #
attrib_edge_convexity-kcp-attrib $-1 -1 $653 $-1 $509 1 #
vertex $-1 -1 $-1 $509 $654 #
straight-curve $-1 -1 $-1 150.79785645490114 2.539999999999992 289.53242630063835 -0.31704057446786943 0 0.94841197490388296 I I #
convexity-sys-attrib $-1 -1 $-1 $510 $391 #
point $-1 -1 $-1 74.370924675400289 2.5400000000000205 518.15999999999985 #
model_id-kcp-attrib $-1 -1 $-1 $-1 $516 1 1021475569 1021475569 747044865 18 #
face $655 -1 $-1 $656 $657 $9 $-1 $658 reversed single #
loop $-1 -1 $-1 $-1 $659 $516 #
cone-surface $-1 -1 $-1 135.636 177.79999999999998 196.84999999999999 1 0 0 0 0 146.04999999999998 1 I I 0 1 146.04999999999998 forward I I I I #
coedge $-1 -1 $-1 $660 $661 $648 $662 reversed $517 $-1 #
point $-1 -1 $-1 133.096 355.59999999999997 342.48669774692377 #
coedge $-1 -1 $-1 $529 $528 $542 $615 reversed $317 $-1 #
coedge $-1 -1 $-1 $542 $534 $530 $608 forward $444 $-1 #
edge $663 -1 $-1 $536 100.51474359314307 $609 264.79499999999996 $530 $664 forward @7 unknown #
vertex $-1 -1 $-1 $608 $665 #
straight-curve $-1 -1 $-1 27.178000000000011 -176.52999999999997 69.436697746923755 -1 0 0 I I #
point $-1 -1 $-1 -55.117999999999995 -176.52999999999997 69.436697746923755 #
convexity-sys-attrib $-1 -1 $-1 $-1 $535 #
ellipse-curve $-1 -1 $-1 27.177999999999997 -1.2700000000000102 -76.200000000000017 1 0 0 0 0 146.04999999999998 1 I I #
point $-1 -1 $-1 27.178000000000011 -12.24974359314308 69.436697746923755 #
edge $666 -1 $-1 $609 -113.35502331019282 $545 201.19167443673095 $606 $667 forward @7 unknown #
straight-curve $-1 -1 $-1 27.178000000000011 -176.52999999999997 -245.11000000000001 -1 0 0 I I #
point $-1 -1 $-1 27.178000000000011 -176.52999999999997 -245.11000000000001 #
coedge $-1 -1 $-1 $628 $553 $660 $668 forward $344 $-1 #
coedge $-1 -1 $-1 $669 $670 $553 $620 reversed $602 $-1 #
edge $671 -1 $-1 $623 0.075248972316680832 $672 3.1415926535897931 $553 $673 forward @7 unknown #
coedge $-1 -1 $-1 $555 $648 $669 $674 forward $458 $-1 #
attrib_edge_convexity-kcp-attrib $-1 -1 $675 $-1 $556 2 #
vertex $-1 -1 $-1 $556 $676 #
straight-curve $-1 -1 $-1 133.096 355.59999999999997 342.48669774692377 0 1 0 I I #
straight-curve $-1 -1 $-1 114.1095 355.59999999999997 27.939999999999994 1 0 0 I I #
attrib_edge_convexity-kcp-attrib $-1 -1 $677 $-1 $560 1 #
straight-curve $-1 -1 $-1 93.217999999999989 2.539999999999992 27.939999999999994 1 0 0 I I #
coedge $-1 -1 $-1 $561 $618 $591 $649 reversed $344 $-1 #
convexity-sys-attrib $-1 -1 $-1 $562 $464 #
point $-1 -1 $-1 133.096 355.59999999999997 27.939999999999998 #
point $-1 -1 $-1 133.096 2.5400000000000205 27.939999999999998 #
convexity-sys-attrib $-1 -1 $-1 $566 $466 #
convexity-sys-attrib $-1 -1 $-1 $568 $468 #
model_id-kcp-attrib $-1 -1 $-1 $-1 $573 1 1021475569 1021475569 747044865 15 #
plane-surface $-1 -1 $-1 92.582999999999998 355.59999999999997 26.669999999999995 0 -1 0 -25.399999999999999 0 0 forward_v I I I I #
attrib_edge_convexity-kcp-attrib $-1 -1 $678 $-1 $575 1 #
straight-curve $-1 -1 $-1 133.096 355.59999999999997 263.79083721836548 0 0 1 I I #
coedge $-1 -1 $-1 $581 $581 $579 $639 forward $642 $-1 #
edge $-1 -1 $-1 $583 -3.1415926535897931 $585 0 $638 $679 forward @7 unknown #
model_id-kcp-attrib $-1 -1 $-1 $-1 $580 1 1021475569 1021475569 747044865 23 #
cone-surface $-1 -1 $-1 135.636 177.79999999999998 196.84999999999999 1 0 0 0 0 146.04999999999998 1 I I 0 1 146.04999999999998 forward I I I I #
loop $-1 -1 $-1 $680 $638 $681 #
ellipse-curve $-1 -1 $-1 161.036 177.79999999999998 196.84999999999999 1 0 0 0 0 146.04999999999998 1 I I #
point $-1 -1 $-1 161.036 177.79999999999998 50.799999999999997 #
point $-1 -1 $-1 161.036 177.79999999999998 342.89999999999998 #
attrib_edge_convexity-kcp-attrib $-1 -1 $682 $-1 $590 2 #
straight-curve $-1 -1 $-1 74.370924675400289 355.59999999999997 518.15999999999985 0 1 0 I I #
coedge $-1 -1 $-1 $621 $591 $604 $662 forward $458 $-1 #
edge $683 -1 $-1 $519 0 $684 166.82025640685683 $591 $685 reversed @7 unknown #
convexity-sys-attrib $-1 -1 $-1 $592 $502 #
attrib_edge_convexity-kcp-attrib $-1 -1 $686 $-1 $594 1 #
straight-curve $-1 -1 $-1 133.096 2.539999999999992 171.44999999999999 0 0 1 I I #
convexity-sys-attrib $-1 -1 $-1 $595 $509 #
point $-1 -1 $-1 133.096 2.5400000000000205 342.48669774692377 #
model_id-kcp-attrib $-1 -1 $-1 $-1 $601 1 1021475569 1021475569 747044865 19 #
face $687 -1 $-1 $688 $689 $9 $-1 $690 reversed single #
loop $-1 -1 $-1 $691 $692 $601 #
plane-surface $-1 -1 $-1 135.636 355.59999999999997 342.89999999999998 1 0 0 0 0 25.399999999999999 forward_v I I I I #
coedge $-1 -1 $-1 $670 $693 $694 $695 forward $602 $-1 #
coedge $-1 -1 $-1 $696 $604 $618 $668 reversed $517 $-1 #
coedge $-1 -1 $-1 $604 $697 $693 $698 forward $517 $-1 #
edge $699 -1 $-1 $684 -0.075248972316681415 $700 0 $648 $701 forward @7 unknown #
convexity-sys-attrib $-1 -1 $-1 $-1 $608 #
straight-curve $-1 -1 $-1 27.177999999999997 88.264999999999986 69.436697746923841 0 -1 0 I I #
point $-1 -1 $-1 27.178000000000011 -176.52999999999997 69.436697746923755 #
convexity-sys-attrib $-1 -1 $-1 $-1 $615 #
straight-curve $-1 -1 $-1 27.177999999999997 -176.52999999999997 -43.918325563269065 0 0 -1 I I #
edge $702 -1 $-1 $672 -3.1415926535897931 $684 -0.075248972316681415 $618 $703 forward @7 unknown #
coedge $-1 -1 $-1 $693 $619 $621 $674 reversed $602 $-1 #
coedge $-1 -1 $-1 $619 $659 $696 $704 forward $602 $-1 #
attrib_edge_convexity-kcp-attrib $-1 -1 $705 $-1 $620 1 #
vertex $-1 -1 $-1 $668 $706 #
ellipse-curve $-1 -1 $-1 133.096 177.79999999999998 196.84999999999999 1 0 0 0 0 146.04999999999998 1 I I #
edge $707 -1 $-1 $700 0 $623 0.075248972316680832 $621 $708 forward @7 unknown #
convexity-sys-attrib $-1 -1 $-1 $622 $556 #
point $-1 -1 $-1 133.096 166.82025640685691 342.48669774692377 #
convexity-sys-attrib $-1 -1 $-1 $626 $560 #
convexity-sys-attrib $-1 -1 $-1 $636 $575 #
ellipse-curve $-1 -1 $-1 161.036 177.79999999999998 196.84999999999999 1 0 0 0 0 146.04999999999998 1 I I #
loop $-1 -1 $-1 $-1 $709 $681 #
face $710 -1 $-1 $580 $642 $9 $-1 $711 forward single #
convexity-sys-attrib $-1 -1 $-1 $646 $590 #
attrib_edge_convexity-kcp-attrib $-1 -1 $712 $-1 $649 2 #
vertex $-1 -1 $-1 $662 $713 #
straight-curve $-1 -1 $-1 133.096 355.59999999999997 342.48669774692377 0 1 0 I I #
convexity-sys-attrib $-1 -1 $-1 $651 $594 #
model_id-kcp-attrib $-1 -1 $-1 $-1 $656 1 1021475569 1021475569 747044865 20 #
face $714 -1 $-1 $681 $715 $9 $-1 $716 reversed single #
loop $-1 -1 $-1 $-1 $717 $656 #
cone-surface $-1 -1 $-1 135.636 177.79999999999998 196.84999999999999 1 0 0 0 0 143.50999999999999 1 I I 0 1 143.50999999999999 forward I I I I #
loop $-1 -1 $-1 $-1 $718 $601 #
coedge $-1 -1 $-1 $719 $719 $720 $721 reversed $657 $-1 #
coedge $-1 -1 $-1 $659 $669 $661 $698 reversed $602 $-1 #
coedge $-1 -1 $-1 $718 $718 $659 $695 reversed $691 $-1 #
edge $722 -1 $-1 $723 0 $724 3.1415926535897931 $659 $725 reversed @7 unknown #
coedge $-1 -1 $-1 $697 $660 $670 $704 reversed $517 $-1 #
coedge $-1 -1 $-1 $661 $696 $718 $726 forward $517 $-1 #
edge $-1 -1 $-1 $723 0 $700 0.10543941097974488 $693 $727 forward @7 unknown #
attrib_edge_convexity-kcp-attrib $-1 -1 $728 $-1 $662 1 #
vertex $-1 -1 $-1 $674 $729 #
ellipse-curve $-1 -1 $-1 181.78026753254309 177.79999999999998 196.84999999999999 0.94841197490388296 0 0.31704057446786943 -48.82242857142856 0 146.04999999999998 0.94841197490388285 I I #
attrib_edge_convexity-kcp-attrib $-1 -1 $730 $-1 $668 1 #
ellipse-curve $-1 -1 $-1 133.096 177.79999999999998 196.84999999999999 1 0 0 0 0 146.04999999999998 1 I I #
edge $-1 -1 $-1 $724 0 $672 0.099999999999999686 $670 $731 forward @7 unknown #
convexity-sys-attrib $-1 -1 $-1 $671 $620 #
point $-1 -1 $-1 133.096 177.79999999999998 50.799999999999997 #
attrib_edge_convexity-kcp-attrib $-1 -1 $732 $-1 $674 1 #
ellipse-curve $-1 -1 $-1 181.78026753254309 177.79999999999998 196.84999999999999 0.94841197490388296 0 0.31704057446786943 -48.82242857142856 0 146.04999999999998 0.94841197490388285 I I #
coedge $-1 -1 $-1 $733 $733 $734 $735 forward $680 $-1 #
model_id-kcp-attrib $-1 -1 $-1 $-1 $681 1 1021475569 1021475569 747044865 22 #
plane-surface $-1 -1 $-1 161.036 355.59999999999997 342.89999999999998 1 0 0 0 0 25.399999999999999 forward_v I I I I #
convexity-sys-attrib $-1 -1 $-1 $683 $649 #
point $-1 -1 $-1 133.096 188.77974359314314 342.48669774692377 #
model_id-kcp-attrib $-1 -1 $-1 $-1 $688 1 1021475569 1021475569 747044865 21 #
loop $-1 -1 $-1 $-1 $736 $688 #
cone-surface $-1 -1 $-1 135.636 177.79999999999998 196.84999999999999 1 0 0 0 0 143.50999999999999 1 I I 0 1 143.50999999999999 forward I I I I #
coedge $-1 -1 $-1 $734 $720 $737 $738 forward $689 $-1 #
coedge $-1 -1 $-1 $694 $694 $697 $726 reversed $691 $-1 #
coedge $-1 -1 $-1 $692 $692 $739 $740 reversed $657 $-1 #
coedge $-1 -1 $-1 $717 $741 $692 $721 forward $689 $-1 #
edge $742 -1 $-1 $743 -3.1415926535897931 $744 0 $692 $745 reversed @7 unknown #
attrib_edge_convexity-kcp-attrib $-1 -1 $746 $-1 $695 2 #
vertex $-1 -1 $-1 $698 $747 #
vertex $-1 -1 $-1 $704 $748 #
ellipse-curve $-1 -1 $-1 135.636 177.79999999999998 196.84999999999999 -1 0 0 0 0 146.04999999999998 1 I I #
edge $749 -1 $-1 $724 -3.1415926535897931 $723 0 $697 $750 reversed @7 unknown #
straight-curve $-1 -1 $-1 135.636 177.79999999999998 342.89999999999998 -25.399999999999999 0 0 I I #
convexity-sys-attrib $-1 -1 $-1 $699 $662 #
point $-1 -1 $-1 132.95783896111448 177.79999999999998 342.89999999999998 #
convexity-sys-attrib $-1 -1 $-1 $702 $668 #
straight-curve $-1 -1 $-1 135.636 177.79999999999995 50.799999999999997 -25.399999999999999 0 0 I I #
convexity-sys-attrib $-1 -1 $-1 $707 $674 #
coedge $-1 -1 $-1 $709 $709 $751 $752 forward $680 $-1 #
coedge $-1 -1 $-1 $741 $717 $709 $735 reversed $689 $-1 #
edge $-1 -1 $-1 $753 -3.1415926535897931 $754 0 $709 $755 reversed @7 unknown #
coedge $-1 -1 $-1 $751 $739 $741 $756 forward $715 $-1 #
coedge $-1 -1 $-1 $739 $751 $717 $738 reversed $715 $-1 #
edge $-1 -1 $-1 $744 0 $754 1.0000000000000002 $737 $757 forward @7 unknown #
coedge $-1 -1 $-1 $736 $737 $719 $740 forward $715 $-1 #
edge $758 -1 $-1 $744 0 $743 3.1415926535897931 $719 $759 reversed @7 unknown #
coedge $-1 -1 $-1 $720 $734 $736 $756 reversed $689 $-1 #
attrib_edge_convexity-kcp-attrib $-1 -1 $760 $-1 $721 1 #
vertex $-1 -1 $-1 $740 $761 #
vertex $-1 -1 $-1 $740 $762 #
ellipse-curve $-1 -1 $-1 135.636 177.79999999999998 196.84999999999999 1 0 0 0 0 143.50999999999999 1 I I #
convexity-sys-attrib $-1 -1 $-1 $722 $695 #
point $-1 -1 $-1 135.636 177.79999999999998 342.89999999999998 #
point $-1 -1 $-1 135.636 177.79999999999998 50.799999999999997 #
attrib_edge_convexity-kcp-attrib $-1 -1 $763 $-1 $726 2 #
ellipse-curve $-1 -1 $-1 135.636 177.79999999999998 196.84999999999999 -1 0 0 0 0 146.04999999999998 1 I I #
coedge $-1 -1 $-1 $737 $736 $733 $752 reversed $715 $-1 #
edge $-1 -1 $-1 $754 0 $753 3.1415926535897931 $733 $764 reversed @7 unknown #
vertex $-1 -1 $-1 $752 $765 #
vertex $-1 -1 $-1 $752 $766 #
ellipse-curve $-1 -1 $-1 161.036 177.79999999999998 196.84999999999999 1 0 0 0 0 143.50999999999999 1 I I #
edge $-1 -1 $-1 $743 0 $753 1.0000000000000002 $736 $767 forward @7 unknown #
straight-curve $-1 -1 $-1 135.636 177.79999999999998 340.35999999999996 25.399999999999999 4.5119463720766359e-014 0 I I #
attrib_edge_convexity-kcp-attrib $-1 -1 $768 $-1 $740 1 #
ellipse-curve $-1 -1 $-1 135.636 177.79999999999998 196.84999999999999 1 0 0 0 0 143.50999999999999 1 I I #
convexity-sys-attrib $-1 -1 $-1 $742 $721 #
point $-1 -1 $-1 135.636 177.79999999999998 53.340000000000032 #
point $-1 -1 $-1 135.636 177.79999999999998 340.36000000000001 #
convexity-sys-attrib $-1 -1 $-1 $749 $726 #
ellipse-curve $-1 -1 $-1 161.036 177.79999999999998 196.84999999999999 1 0 0 0 0 143.50999999999999 1 I I #
point $-1 -1 $-1 161.036 177.79999999999998 53.340000000000032 #
point $-1 -1 $-1 161.036 177.79999999999998 340.36000000000001 #
straight-curve $-1 -1 $-1 135.636 177.79999999999995 53.340000000000011 25.399999999999999 0 0 I I #
convexity-sys-attrib $-1 -1 $-1 $758 $740 #
End-of-ACIS-data 