600 0 1 0           
110 GICL ACIS Healer - Source: /gicl/data5/repository/PTC/V18/web_pub18/web_pub_models/evaporator_shroud.sat - 6 0 18 ACIS 6.0.3 Solaris 24 Sat Apr 13 20:57:46 2002 
1 9.999999999999999547e-07 1.000000000000000036e-10 
body $-1 $1 $-1 $-1 #
lump $-1 $-1 $2 $0 #
shell $-1 $-1 $-1 $3 $-1 $1 #
face $-1 $4 $5 $2 $-1 $6 forward single #
face $-1 $7 $8 $2 $-1 $9 reversed single #
loop $-1 $10 $11 $3 #
plane-surface $-1 444.5 355.5999999999999659 0 -1 0 0 0 0 25.39999999999999858 forward_v I I I I #
face $-1 $12 $13 $2 $-1 $14 reversed single #
loop $-1 $-1 $15 $4 #
cone-surface $-1 444.5 177.7999999999999829 196.8499999999999943 1 0 0 0 0 133.3499999999999943 1 I I 0 1 133.3499999999999943 forward I I I I #
loop $-1 $-1 $16 $3 #
coedge $-1 $17 $17 $15 $18 reversed $5 $-1 #
face $-1 $19 $20 $2 $-1 $21 forward single #
loop $-1 $-1 $22 $7 #
cone-surface $-1 444.5 177.7999999999999829 196.8499999999999943 1 0 0 0 0 133.3499999999999943 1 I I 0 1 133.3499999999999943 forward I I I I #
coedge $-1 $23 $24 $11 $18 forward $8 $-1 #
coedge $-1 $25 $26 $27 $28 forward $10 $-1 #
coedge $-1 $11 $11 $22 $29 reversed $5 $-1 #
edge $-1 $30 0 $31 3.141592653589793116 $11 $32 forward 7 unknown #
face $-1 $33 $34 $2 $-1 $35 forward single #
loop $-1 $36 $37 $12 #
plane-surface $-1 472.4399999999999409 355.5999999999999659 0 1 0 0 0 0 -25.39999999999999858 forward_v I I I I #
coedge $-1 $38 $39 $17 $29 forward $13 $-1 #
coedge $-1 $40 $15 $39 $41 reversed $8 $-1 #
coedge $-1 $15 $40 $38 $42 reversed $8 $-1 #
coedge $-1 $43 $16 $44 $45 reversed $10 $-1 #
coedge $-1 $16 $46 $47 $48 reversed $10 $-1 #
coedge $-1 $49 $50 $16 $28 reversed $51 $-1 #
edge $-1 $52 0 $53 0.2999999999999999889 $16 $54 forward 7 unknown #
edge $-1 $31 0 $30 3.141592653589793116 $17 $55 forward 7 unknown #
vertex $-1 $29 $56 #
vertex $-1 $29 $57 #
ellipse-curve $-1 444.5 177.7999999999999829 196.8499999999999943 -1 0 0 0 0 133.3499999999999943 1 I I #
face $-1 $58 $59 $2 $-1 $60 forward single #
loop $-1 $-1 $61 $19 #
cone-surface $-1 447.0399999999999068 177.7999999999999829 196.8499999999999943 1 0 0 0 0 -135.8899999999999864 1 I I 0 1 135.8899999999999864 forward I I I I #
loop $-1 $-1 $62 $12 #
coedge $-1 $63 $63 $64 $65 forward $20 $-1 #
coedge $-1 $66 $22 $24 $42 forward $13 $-1 #
coedge $-1 $22 $66 $23 $41 forward $13 $-1 #
coedge $-1 $24 $23 $62 $67 reversed $8 $-1 #
edge $-1 $68 0 $31 1.099999999999999867 $39 $69 forward 7 unknown #
edge $-1 $30 0 $70 1.099999999999999867 $38 $71 forward 7 unknown #
coedge $-1 $72 $25 $73 $74 forward $10 $-1 #
coedge $-1 $75 $76 $25 $45 forward $77 $-1 #
edge $-1 $78 0 $53 1.299999999999999156 $25 $79 forward 7 unknown #
coedge $-1 $26 $72 $80 $81 reversed $10 $-1 #
coedge $-1 $82 $83 $26 $48 forward $84 $-1 #
edge $-1 $52 0 $85 12.59999999999999964 $26 $86 forward 7 unknown #
coedge $-1 $87 $27 $83 $88 forward $51 $-1 #
coedge $-1 $27 $89 $75 $90 forward $51 $-1 #
loop $-1 $-1 $49 $91 #
vertex $-1 $48 $92 #
vertex $-1 $45 $93 #
straight-curve $-1 444.5 35.56000000000005201 2.539999999999999591 0 0 25.39999999999999858 I I #
ellipse-curve $-1 444.5 177.7999999999999829 196.8499999999999943 -1 0 0 0 0 -133.3499999999999943 1 I I #
point $-1 444.5 177.7999999999999829 330.1999999999999886 #
point $-1 444.5 177.7999999999999829 63.5 #
face $-1 $94 $95 $2 $-1 $96 reversed single #
loop $-1 $-1 $97 $33 #
cone-surface $-1 447.0399999999999068 177.7999999999999829 196.8499999999999943 1 0 0 0 0 -135.8899999999999864 1 I I 0 1 135.8899999999999864 forward I I I I #
coedge $-1 $64 $98 $99 $100 forward $34 $-1 #
coedge $-1 $101 $101 $40 $67 forward $36 $-1 #
coedge $-1 $37 $37 $102 $103 forward $20 $-1 #
coedge $-1 $104 $61 $37 $65 reversed $34 $-1 #
edge $-1 $105 4.313766701023500222e-17 $106 3.141592653589792672 $37 $107 forward 7 unknown #
coedge $-1 $39 $38 $101 $108 reversed $13 $-1 #
edge $-1 $70 2.131361787056918484e-16 $68 3.141592653589793116 $40 $109 forward 7 unknown #
vertex $-1 $41 $110 #
straight-curve $-1 472.4399999999999977 177.7999999999999545 63.5 -25.39999999999999858 0 0 I I #
vertex $-1 $108 $111 #
straight-curve $-1 444.5 177.7999999999999829 330.1999999999999886 25.39999999999999858 2.050884714580286562e-14 0 I I #
coedge $-1 $46 $43 $112 $113 reversed $10 $-1 #
coedge $-1 $114 $115 $43 $74 reversed $116 $-1 #
edge $-1 $78 0 $117 13.09999999999999964 $43 $118 forward 7 unknown #
coedge $-1 $119 $44 $50 $90 reversed $77 $-1 #
coedge $-1 $44 $119 $114 $120 forward $77 $-1 #
loop $-1 $-1 $75 $121 #
vertex $-1 $74 $122 #
straight-curve $-1 444.5 2.540000000000036007 10.15999999999999837 0 25.39999999999999858 0 I I #
coedge $-1 $123 $124 $46 $81 forward $125 $-1 #
edge $-1 $85 -5.419986419429898304e-16 $126 13.39999999999999858 $46 $127 forward 7 unknown #
coedge $-1 $128 $47 $129 $130 reversed $84 $-1 #
coedge $-1 $47 $128 $49 $88 reversed $84 $-1 #
loop $-1 $-1 $47 $131 #
vertex $-1 $48 $132 #
straight-curve $-1 444.5 35.56000000000000938 2.539999999999999591 0 25.39999999999999858 0 I I #
coedge $-1 $133 $49 $134 $135 forward $51 $-1 #
edge $-1 $52 0 $136 4.099999999999999645 $83 $137 forward 7 unknown #
coedge $-1 $50 $138 $139 $140 forward $51 $-1 #
edge $-1 $141 0 $53 0.09999999999999634182 $50 $142 forward 7 unknown #
face $-1 $121 $51 $2 $-1 $143 reversed single #
point $-1 444.5 35.56000000000000938 2.539999999999999591 #
point $-1 444.5 35.56000000000000938 10.15999999999999837 #
face $-1 $144 $145 $2 $-1 $146 forward single #
loop $-1 $147 $148 $58 #
plane-surface $-1 447.0399999999999068 355.5999999999999659 0 -1 0 0 0 0 25.39999999999999858 forward_v I I I I #
coedge $-1 $102 $149 $104 $150 forward $59 $-1 #
coedge $-1 $61 $104 $148 $151 forward $34 $-1 #
coedge $-1 $149 $102 $61 $100 reversed $59 $-1 #
edge $-1 $152 0 $106 1.000000000000001332 $99 $153 forward 7 unknown #
coedge $-1 $62 $62 $66 $108 forward $36 $-1 #
coedge $-1 $99 $97 $63 $103 reversed $59 $-1 #
edge $-1 $106 -1.228769908776389037e-16 $105 3.141592653589792672 $63 $154 forward 7 unknown #
coedge $-1 $98 $64 $97 $150 reversed $34 $-1 #
vertex $-1 $103 $155 #
vertex $-1 $103 $156 #
ellipse-curve $-1 472.4399999999999409 177.8000000000000114 196.8499999999999943 1 0 0 0 -2.255973186038317964e-14 135.8899999999999864 1 I I #
edge $-1 $68 2.131361787056918484e-16 $70 3.141592653589793116 $66 $157 forward 7 unknown #
ellipse-curve $-1 472.4399999999999409 177.7999999999999829 196.8499999999999943 -1 0 0 0 0 133.3499999999999943 1 I I #
point $-1 472.4399999999999977 177.7999999999999545 63.5 #
point $-1 472.4399999999999977 177.8000000000000114 330.1999999999999886 #
coedge $-1 $158 $159 $72 $113 forward $160 $-1 #
edge $-1 $126 0 $117 13.89999999999999858 $72 $161 forward 7 unknown #
coedge $-1 $162 $73 $76 $120 reversed $116 $-1 #
coedge $-1 $73 $162 $158 $163 forward $116 $-1 #
loop $-1 $-1 $162 $164 #
vertex $-1 $113 $165 #
straight-curve $-1 444.5 2.540000000000036007 10.16000000000000902 0 0 25.39999999999999858 I I #
coedge $-1 $76 $75 $166 $167 reversed $77 $-1 #
edge $-1 $168 0 $78 0.1000000000000008105 $114 $169 forward 7 unknown #
face $-1 $164 $77 $2 $-1 $170 reversed single #
point $-1 444.4999999999998863 2.540000000000036007 10.16000000000000902 #
coedge $-1 $171 $80 $159 $172 reversed $125 $-1 #
coedge $-1 $80 $173 $174 $175 forward $125 $-1 #
loop $-1 $-1 $80 $176 #
vertex $-1 $81 $177 #
straight-curve $-1 444.5 355.5999999999999659 2.540000000000013358 0 0 25.39999999999999858 I I #
coedge $-1 $83 $82 $178 $179 reversed $84 $-1 #
coedge $-1 $174 $180 $82 $130 forward $181 $-1 #
edge $-1 $182 2.237929876409764334e-15 $85 4.100000000000002309 $129 $183 forward 7 unknown #
face $-1 $184 $84 $2 $-1 $185 reversed single #
point $-1 444.5 355.5999999999999659 2.539999999999999591 #
coedge $-1 $186 $87 $187 $188 forward $51 $-1 #
coedge $-1 $178 $189 $87 $135 reversed $190 $-1 #
edge $-1 $136 0 $191 0.2999999999999999889 $134 $192 forward 7 unknown #
vertex $-1 $88 $193 #
straight-curve $-1 444.5 35.56000000000005201 2.539999999999999591 -25.39999999999999858 0 0 I I #
coedge $-1 $89 $194 $195 $196 reversed $51 $-1 #
coedge $-1 $197 $166 $89 $140 reversed $147 $-1 #
edge $-1 $198 0 $141 0.3999999999999999667 $139 $199 forward 7 unknown #
vertex $-1 $140 $200 #
straight-curve $-1 447.0399999999999068 35.56000000000005201 10.15999999999999837 -25.39999999999999858 0 0 I I #
plane-surface $-1 447.0399999999999068 35.56000000000005201 0 0 1 0 0 0 25.39999999999999858 forward_v I I I I #
face $-1 $201 $202 $2 $-1 $203 forward single #
loop $-1 $-1 $204 $94 #
plane-surface $-1 445.769999999999925 179.0699999999999932 0 0 0 -1 0 -25.39999999999999858 0 forward_v I I I I #
loop $-1 $-1 $197 $58 #
coedge $-1 $205 $205 $98 $151 reversed $95 $-1 #
coedge $-1 $97 $99 $205 $206 forward $59 $-1 #
edge $-1 $207 0 $105 1.000000000000001332 $97 $208 forward 7 unknown #
edge $-1 $207 0 $152 3.141592653589793116 $148 $209 forward 7 unknown #
vertex $-1 $206 $210 #
straight-curve $-1 447.0399999999999068 177.7999999999999829 60.96000000000000796 25.39999999999999858 -2.255973186038317964e-14 0 I I #
ellipse-curve $-1 472.4399999999999409 177.7999999999999545 196.8499999999999943 1 0 0 0 4.511946372076635928e-14 -135.8899999999999864 1 I I #
point $-1 472.4399999999999409 177.7999999999999829 332.7399999999999523 #
point $-1 472.4399999999999409 177.7999999999999829 60.95999999999999375 #
ellipse-curve $-1 472.4399999999999409 177.7999999999999829 196.8499999999999943 -1 0 0 0 0 -133.3499999999999943 1 I I #
coedge $-1 $211 $112 $115 $163 reversed $160 $-1 #
coedge $-1 $112 $211 $123 $172 forward $160 $-1 #
loop $-1 $-1 $158 $212 #
straight-curve $-1 444.5 355.5999999999999659 342.8999999999999773 0 -25.39999999999999858 0 I I #
coedge $-1 $115 $114 $213 $214 reversed $116 $-1 #
edge $-1 $215 0 $117 0.1000000000000008105 $158 $216 forward 7 unknown #
face $-1 $212 $116 $2 $-1 $217 forward single #
point $-1 444.4999999999998863 2.540000000000013358 342.8999999999999773 #
coedge $-1 $139 $213 $119 $167 forward $147 $-1 #
edge $-1 $168 0 $141 1.299999999999999156 $166 $218 forward 7 unknown #
vertex $-1 $120 $219 #
straight-curve $-1 447.0399999999999068 2.540000000000036007 10.15999999999999837 -25.39999999999999858 0 0 I I #
plane-surface $-1 447.0399999999999068 35.56000000000005201 10.15999999999999837 0 0 1 0 -25.39999999999999858 0 forward_v I I I I #
coedge $-1 $173 $123 $220 $221 forward $125 $-1 #
edge $-1 $222 0 $126 0.1000000000000008105 $123 $223 forward 7 unknown #
coedge $-1 $124 $171 $224 $225 forward $125 $-1 #
coedge $-1 $226 $129 $124 $175 reversed $181 $-1 #
edge $-1 $227 0 $85 0.09999999999999999167 $124 $228 forward 7 unknown #
face $-1 $229 $125 $2 $-1 $230 reversed single #
point $-1 444.4999999999998863 355.5999999999999659 342.8999999999999773 #
coedge $-1 $231 $134 $128 $179 forward $190 $-1 #
edge $-1 $136 0 $182 12.59999999999999964 $128 $232 forward 7 unknown #
coedge $-1 $129 $226 $233 $234 reversed $181 $-1 #
loop $-1 $-1 $180 $184 #
vertex $-1 $130 $235 #
straight-curve $-1 340.3599999999999568 355.5999999999999659 2.539999999999999591 25.39999999999999858 0 0 I I #
face $-1 $236 $181 $2 $-1 $237 reversed single #
plane-surface $-1 444.5 355.5999999999999659 2.539999999999999591 0 0 -1 -25.39999999999999858 0 0 forward_v I I I I #
coedge $-1 $194 $133 $238 $239 reversed $51 $-1 #
coedge $-1 $240 $241 $133 $188 reversed $242 $-1 #
edge $-1 $191 -4.475859752819528668e-15 $243 0.09999999999999634182 $133 $244 forward 7 unknown #
coedge $-1 $134 $245 $240 $246 forward $190 $-1 #
loop $-1 $-1 $178 $247 #
vertex $-1 $135 $248 #
straight-curve $-1 340.3599999999999568 35.56000000000005201 2.539999999999999591 0 0 25.39999999999999858 I I #
point $-1 340.3600000000000136 35.56000000000000938 2.539999999999999591 #
coedge $-1 $138 $186 $249 $250 reversed $51 $-1 #
coedge $-1 $204 $251 $138 $196 forward $145 $-1 #
edge $-1 $198 0 $252 0.09999999999999634182 $195 $253 forward 7 unknown #
coedge $-1 $220 $139 $251 $254 forward $147 $-1 #
vertex $-1 $196 $255 #
straight-curve $-1 447.0399999999999068 35.56000000000005201 0 0 0 25.39999999999999858 I I #
point $-1 447.0399999999999068 35.56000000000000938 10.15999999999999837 #
face $-1 $256 $257 $2 $-1 $258 forward single #
loop $-1 $-1 $259 $144 #
plane-surface $-1 444.5 355.5999999999999659 0 0 0 -1 -25.39999999999999858 0 0 forward_v I I I I #
coedge $-1 $224 $195 $260 $261 reversed $145 $-1 #
coedge $-1 $148 $148 $149 $206 reversed $95 $-1 #
edge $-1 $152 0 $207 3.141592653589793116 $205 $262 forward 7 unknown #
vertex $-1 $206 $263 #
straight-curve $-1 447.0399999999999068 177.8000000000000114 332.7399999999999523 25.39999999999999858 0 0 I I #
ellipse-curve $-1 447.0399999999999068 177.7999999999999829 196.8499999999999943 1 0 0 0 0 135.8899999999999864 1 I I #
point $-1 447.0399999999999068 177.7999999999999829 60.95999999999999375 #
coedge $-1 $159 $158 $264 $265 forward $160 $-1 #
face $-1 $176 $160 $2 $-1 $266 reversed single #
coedge $-1 $166 $264 $162 $214 forward $147 $-1 #
edge $-1 $215 0 $168 13.09999999999999964 $162 $267 forward 7 unknown #
vertex $-1 $265 $268 #
straight-curve $-1 447.0399999999999068 2.540000000000036007 342.8999999999999773 -25.39999999999999858 0 0 I I #
plane-surface $-1 445.769999999999925 2.540000000000036007 171.4499999999999886 0 -1 0 0 0 25.39999999999999858 forward_v I I I I #
straight-curve $-1 447.0399999999999068 2.540000000000036007 10.15999999999999837 0 25.39999999999999858 0 I I #
point $-1 447.0399999999999068 2.540000000000036007 10.16000000000000902 #
coedge $-1 $264 $197 $171 $221 reversed $147 $-1 #
edge $-1 $222 0 $269 13.5 $171 $270 forward 7 unknown #
vertex $-1 $221 $271 #
straight-curve $-1 447.0399999999999068 355.5999999999999659 342.8999999999999773 -25.39999999999999858 0 0 I I #
coedge $-1 $251 $204 $173 $225 reversed $145 $-1 #
edge $-1 $269 0 $227 0.1000000000000008105 $173 $272 forward 7 unknown #
coedge $-1 $180 $174 $273 $274 forward $181 $-1 #
vertex $-1 $175 $275 #
straight-curve $-1 444.4999999999998863 355.5999999999999659 0 0 0 25.39999999999999858 I I #
face $-1 $276 $277 $2 $-1 $278 reversed single #
plane-surface $-1 445.769999999999925 355.5999999999999659 171.4499999999999886 0 -1 0 0 0 25.39999999999999858 forward_v I I I I #
coedge $-1 $279 $178 $280 $281 reversed $190 $-1 #
straight-curve $-1 340.3599999999999568 35.56000000000000938 2.539999999999999591 0 25.39999999999999858 0 I I #
coedge $-1 $282 $280 $180 $234 forward $283 $-1 #
edge $-1 $182 0 $284 0.141421356237312057 $180 $285 forward 7 unknown #
point $-1 340.3600000000000136 355.5999999999999659 2.540000000000013358 #
face $-1 $286 $283 $2 $-1 $287 reversed single #
plane-surface $-1 391.7949999999999591 355.5999999999999659 1.269999999999999796 0 -1 0 -25.39999999999999858 0 0 forward_v I I I I #
coedge $-1 $288 $289 $186 $239 forward $290 $-1 #
edge $-1 $291 0 $243 0.3999999999999999667 $238 $292 forward 7 unknown #
coedge $-1 $293 $187 $189 $246 reversed $242 $-1 #
coedge $-1 $187 $293 $288 $294 forward $242 $-1 #
loop $-1 $-1 $187 $295 #
vertex $-1 $239 $296 #
straight-curve $-1 340.3599999999998431 35.56000000000005201 10.15999999999999837 -25.39999999999999858 0 0 I I #
coedge $-1 $189 $279 $297 $298 forward $190 $-1 #
edge $-1 $299 0 $191 1.299999999999999156 $189 $300 forward 7 unknown #
face $-1 $301 $302 $2 $-1 $303 reversed single #
point $-1 340.3599999999999568 35.56000000000000938 10.15999999999999837 #
coedge $-1 $259 $260 $194 $250 forward $202 $-1 #
edge $-1 $252 0 $291 4.200000000000000178 $249 $304 forward 7 unknown #
coedge $-1 $195 $224 $197 $254 reversed $145 $-1 #
vertex $-1 $196 $305 #
straight-curve $-1 447.0399999999999068 35.56000000000005201 0 -25.39999999999999858 0 0 I I #
edge $-1 $198 0 $269 12.59999999999999964 $251 $306 forward 7 unknown #
point $-1 447.0399999999999068 35.56000000000000938 0 #
face $-1 $307 $308 $2 $-1 $309 reversed single #
loop $-1 $310 $311 $201 #
plane-surface $-1 337.8199999999999363 355.5999999999999659 0 -1 0 0 0 0 25.39999999999999858 forward_v I I I I #
coedge $-1 $273 $249 $289 $312 reversed $202 $-1 #
coedge $-1 $249 $273 $204 $261 forward $202 $-1 #
edge $-1 $227 0 $252 12.59999999999999964 $204 $313 forward 7 unknown #
ellipse-curve $-1 447.0399999999999068 177.7999999999999829 196.8499999999999943 1 0 0 0 0 -135.8899999999999864 1 I I #
point $-1 447.0399999999999068 177.7999999999999829 332.7399999999999523 #
coedge $-1 $213 $220 $211 $265 reversed $147 $-1 #
edge $-1 $215 -8.916751851320154829e-16 $222 13.89999999999999858 $211 $314 forward 7 unknown #
plane-surface $-1 445.769999999999925 179.0699999999999932 342.8999999999999773 0 0 -1 0 -25.39999999999999858 0 forward_v I I I I #
straight-curve $-1 447.0399999999999068 2.540000000000036007 342.8999999999999773 0 0 -25.39999999999999858 I I #
point $-1 447.0399999999999068 2.540000000000013358 342.8999999999999773 #
vertex $-1 $225 $315 #
straight-curve $-1 447.0399999999999068 355.5999999999999659 342.8999999999999773 0 0 -25.39999999999999858 I I #
point $-1 447.0399999999999068 355.5999999999999659 342.8999999999999773 #
straight-curve $-1 447.0399999999999068 355.5999999999999659 0 -25.39999999999999858 0 0 I I #
coedge $-1 $260 $259 $226 $274 reversed $202 $-1 #
edge $-1 $227 4.475859752819528668e-15 $284 4.200000000000002842 $273 $316 forward 7 unknown #
point $-1 444.4999999999998863 355.5999999999999659 0 #
face $-1 $317 $318 $2 $-1 $319 reversed single #
loop $-1 $-1 $320 $229 #
plane-surface $-1 337.8199999999999363 355.5999999999999659 340.3599999999999568 0 0 1 25.39999999999999858 0 0 forward_v I I I I #
coedge $-1 $245 $231 $321 $322 reversed $190 $-1 #
coedge $-1 $233 $323 $231 $281 forward $283 $-1 #
edge $-1 $324 -2.237929876409764334e-15 $182 13.29999999999999893 $280 $325 forward 7 unknown #
coedge $-1 $323 $233 $326 $327 forward $283 $-1 #
loop $-1 $-1 $323 $236 #
vertex $-1 $274 $328 #
straight-curve $-1 340.3600000000000136 355.5999999999999659 2.540000000000013358 -17.9605122421382255 0 -17.96051224213838182 I I #
face $-1 $329 $330 $2 $-1 $331 reversed single #
plane-surface $-1 339.089999999999975 355.5999999999999659 171.4499999999999886 0 -1 0 0 0 25.39999999999999858 forward_v I I I I #
coedge $-1 $332 $238 $241 $294 reversed $290 $-1 #
coedge $-1 $238 $326 $259 $312 forward $290 $-1 #
loop $-1 $-1 $288 $201 #
vertex $-1 $250 $333 #
straight-curve $-1 337.8199999999999363 35.56000000000005201 0 0 0 25.39999999999999858 I I #
coedge $-1 $241 $240 $334 $335 forward $242 $-1 #
edge $-1 $336 0 $243 1.299999999999999156 $288 $337 forward 7 unknown #
face $-1 $91 $242 $2 $-1 $338 reversed single #
point $-1 337.8199999999999363 35.56000000000000938 10.15999999999999837 #
coedge $-1 $339 $334 $245 $298 reversed $340 $-1 #
edge $-1 $341 0 $299 12.99999999999999822 $297 $342 forward 7 unknown #
vertex $-1 $335 $343 #
straight-curve $-1 340.3599999999999568 2.540000000000036007 10.15999999999999837 0 25.39999999999999858 0 I I #
face $-1 $344 $345 $2 $-1 $346 reversed single #
loop $-1 $347 $348 $247 #
plane-surface $-1 340.3599999999999568 355.5999999999999659 0 -1 0 0 0 0 25.39999999999999858 forward_v I I I I #
straight-curve $-1 444.5 35.56000000000005201 0 -25.39999999999999858 0 0 I I #
point $-1 444.5 35.56000000000000938 0 #
straight-curve $-1 447.0399999999999068 35.56000000000000938 0 0 25.39999999999999858 0 I I #
face $-1 $247 $349 $2 $-1 $350 reversed single #
loop $-1 $-1 $351 $256 #
cone-surface $-1 337.8199999999999363 141.8789755157233685 232.7710244842766087 1 0 0 0 0 6.349999999999999645 1 I I 0 1 6.349999999999999645 forward I I I I #
loop $-1 $352 $353 $201 #
coedge $-1 $354 $354 $355 $356 reversed $257 $-1 #
edge $-1 $284 0 $291 12.59999999999999964 $259 $357 forward 7 unknown #
straight-curve $-1 444.5 355.5999999999999659 0 0 -25.39999999999999858 0 I I #
straight-curve $-1 447.0399999999999068 2.540000000000036007 342.8999999999999773 0 25.39999999999999858 0 I I #
point $-1 447.0399999999999068 355.5999999999999659 0 #
straight-curve $-1 444.5 355.5999999999999659 0 -25.39999999999999858 0 0 I I #
face $-1 $-1 $358 $2 $-1 $359 reversed single #
loop $-1 $-1 $360 $276 #
cone-surface $-1 447.0399999999999068 257.6321999999998411 447.9594907022448638 1 0 0 0 0 -5.079999999999999183 1 I I 0 1 5.079999999999999183 forward I I I I #
coedge $-1 $361 $362 $363 $364 reversed $277 $-1 #
coedge $-1 $362 $361 $279 $322 forward $277 $-1 #
edge $-1 $341 0 $324 13.89999999999999858 $279 $365 forward 7 unknown #
coedge $-1 $280 $282 $366 $367 reversed $283 $-1 #
vertex $-1 $281 $368 #
straight-curve $-1 340.3599999999999568 355.5999999999999659 340.3599999999999568 0 0 -25.39999999999999858 I I #
coedge $-1 $289 $369 $282 $327 reversed $290 $-1 #
edge $-1 $284 0 $370 13.5 $326 $371 forward 7 unknown #
point $-1 337.8199999999999363 355.5999999999999659 0 #
face $-1 $372 $373 $2 $-1 $374 reversed single #
loop $-1 $-1 $375 $286 #
plane-surface $-1 392.42999999999995 355.5999999999999659 341.6299999999999386 0 -1 0 25.39999999999999858 0 0 forward_v I I I I #
coedge $-1 $369 $288 $376 $377 forward $290 $-1 #
point $-1 337.8199999999999932 35.56000000000000938 0 #
coedge $-1 $297 $376 $293 $335 reversed $340 $-1 #
edge $-1 $299 0 $336 0.1000000000000008105 $334 $378 forward 7 unknown #
vertex $-1 $377 $379 #
straight-curve $-1 337.8199999999999363 2.540000000000036007 10.15999999999999837 0 25.39999999999999858 0 I I #
plane-surface $-1 447.0399999999999068 35.56000000000005201 10.15999999999999837 0 0 1 0 -25.39999999999999858 0 forward_v I I I I #
coedge $-1 $376 $297 $380 $381 forward $340 $-1 #
loop $-1 $-1 $297 $382 #
vertex $-1 $381 $383 #
straight-curve $-1 340.3599999999999568 2.540000000000036007 340.3599999999999568 0 0 -25.39999999999999858 I I #
point $-1 340.3600000000000136 2.540000000000036007 10.16000000000000902 #
face $-1 $384 $385 $2 $-1 $386 reversed single #
loop $-1 $-1 $387 $301 #
cone-surface $-1 337.8199999999999363 141.8789755157233685 160.9289755157233799 1 0 0 0 0 6.349999999999999645 1 I I 0 1 6.349999999999999645 forward I I I I #
loop $-1 $388 $389 $247 #
coedge $-1 $390 $390 $391 $392 forward $302 $-1 #
loop $-1 $-1 $393 $307 #
cone-surface $-1 337.8199999999999363 141.8789755157233685 232.7710244842766087 1 0 0 0 0 6.349999999999999645 1 I I 0 1 6.349999999999999645 forward I I I I #
coedge $-1 $391 $355 $394 $395 reversed $308 $-1 #
loop $-1 $396 $397 $201 #
coedge $-1 $398 $398 $399 $400 reversed $310 $-1 #
coedge $-1 $311 $311 $401 $402 reversed $257 $-1 #
coedge $-1 $351 $403 $311 $356 forward $308 $-1 #
edge $-1 $404 0 $405 3.141592653589793116 $311 $406 forward 7 unknown #
straight-curve $-1 337.8199999999999363 355.5999999999999659 0 0 -25.39999999999999858 0 I I #
loop $-1 $-1 $407 $317 #
cone-surface $-1 447.0399999999999068 257.6321999999998411 447.9594907022448638 1 0 0 0 0 -5.079999999999999183 1 I I 0 1 5.079999999999999183 forward I I I I #
coedge $-1 $408 $409 $410 $411 reversed $318 $-1 #
coedge $-1 $321 $320 $412 $413 forward $277 $-1 #
coedge $-1 $320 $321 $414 $415 reversed $277 $-1 #
coedge $-1 $416 $417 $320 $364 forward $418 $-1 #
edge $-1 $419 0 $420 13.89999999999999858 $320 $421 forward 7 unknown #
straight-curve $-1 340.3599999999999568 2.540000000000036007 340.3599999999999568 0 25.39999999999999858 0 I I #
coedge $-1 $422 $414 $323 $367 forward $330 $-1 #
edge $-1 $324 0 $370 0.1414213562373090594 $323 $423 forward 7 unknown #
point $-1 340.3599999999999568 355.5999999999999659 340.3600000000000136 #
coedge $-1 $326 $332 $424 $425 reversed $290 $-1 #
vertex $-1 $327 $426 #
straight-curve $-1 337.8199999999999363 355.5999999999999659 0 0 0 25.39999999999999858 I I #
face $-1 $427 $428 $2 $-1 $429 reversed single #
loop $-1 $-1 $430 $329 #
plane-surface $-1 445.769999999999925 355.5999999999999659 450.2149999999999181 0 -1 0 0 0 25.39999999999999858 forward_v I I I I #
coedge $-1 $414 $422 $431 $432 reversed $330 $-1 #
coedge $-1 $334 $339 $332 $377 reversed $340 $-1 #
edge $-1 $336 0 $433 13.09999999999999964 $332 $434 forward 7 unknown #
straight-curve $-1 340.3600000000000136 2.540000000000036007 10.15999999999999837 -25.39999999999999858 0 0 I I #
point $-1 337.8199999999999932 2.540000000000036007 10.16000000000000902 #
coedge $-1 $412 $435 $339 $381 reversed $436 $-1 #
edge $-1 $341 1.582455391429302683e-15 $433 0.1414213562373122235 $339 $437 forward 7 unknown #
face $-1 $295 $340 $2 $-1 $438 forward single #
point $-1 340.3599999999999568 2.540000000000036007 340.3599999999999568 #
face $-1 $439 $440 $2 $-1 $441 reversed single #
loop $-1 $-1 $442 $344 #
cone-surface $-1 337.8199999999999363 141.8789755157233685 160.9289755157233799 1 0 0 0 0 6.349999999999999645 1 I I 0 1 6.349999999999999645 forward I I I I #
coedge $-1 $443 $399 $444 $445 reversed $345 $-1 #
loop $-1 $446 $447 $247 #
coedge $-1 $448 $448 $443 $449 forward $347 $-1 #
coedge $-1 $348 $348 $450 $451 forward $302 $-1 #
coedge $-1 $403 $351 $348 $392 reversed $308 $-1 #
edge $-1 $452 0 $453 3.141592653589793116 $348 $454 forward 7 unknown #
coedge $-1 $450 $401 $403 $455 reversed $349 $-1 #
coedge $-1 $401 $450 $351 $395 forward $349 $-1 #
edge $-1 $453 0 $405 0.1000000000000008105 $394 $456 forward 7 unknown #
loop $-1 $457 $458 $201 #
coedge $-1 $459 $459 $460 $461 reversed $352 $-1 #
coedge $-1 $353 $353 $462 $463 reversed $310 $-1 #
coedge $-1 $387 $464 $353 $400 forward $345 $-1 #
edge $-1 $465 0 $466 3.141592653589793116 $353 $467 forward 7 unknown #
coedge $-1 $393 $394 $354 $402 forward $349 $-1 #
edge $-1 $405 0 $404 3.141592653589793116 $354 $468 forward 7 unknown #
coedge $-1 $355 $391 $393 $455 forward $308 $-1 #
vertex $-1 $402 $469 #
vertex $-1 $402 $470 #
ellipse-curve $-1 337.8199999999999363 141.8789755157233685 232.7710244842766087 -1 0 0 0 0 6.349999999999999645 1 I I #
coedge $-1 $471 $472 $473 $474 reversed $358 $-1 #
coedge $-1 $473 $360 $475 $476 forward $318 $-1 #
coedge $-1 $360 $473 $477 $478 reversed $318 $-1 #
coedge $-1 $472 $471 $360 $411 forward $358 $-1 #
edge $-1 $479 0 $480 0.09999999999999634182 $410 $481 forward 7 unknown #
coedge $-1 $482 $380 $361 $413 reversed $436 $-1 #
edge $-1 $419 0 $341 4.199999999999998401 $412 $483 forward 7 unknown #
coedge $-1 $366 $375 $362 $415 forward $330 $-1 #
edge $-1 $420 0 $324 4.199999999999998401 $414 $484 forward 7 unknown #
coedge $-1 $485 $363 $486 $487 reversed $418 $-1 #
coedge $-1 $363 $488 $489 $490 forward $418 $-1 #
loop $-1 $491 $417 $492 #
vertex $-1 $493 $494 #
vertex $-1 $415 $495 #
straight-curve $-1 447.0399999999999068 2.540000000000036007 340.3599999999999568 0 25.39999999999999858 0 I I #
coedge $-1 $375 $366 $496 $497 forward $330 $-1 #
straight-curve $-1 340.3599999999999568 355.5999999999999659 340.3600000000000136 -17.96051224213830722 0 17.96051224213830722 I I #
coedge $-1 $498 $496 $369 $425 forward $499 $-1 #
edge $-1 $370 0 $433 13.89999999999999858 $369 $500 forward 7 unknown #
point $-1 337.8199999999999363 355.5999999999999659 342.8999999999999773 #
face $-1 $501 $502 $2 $-1 $503 reversed single #
loop $-1 $-1 $504 $372 #
plane-surface $-1 445.769999999999925 179.0699999999999932 558.7999999999999545 0 0 -1 0 -25.39999999999999858 0 forward_v I I I I #
coedge $-1 $486 $505 $506 $507 reversed $373 $-1 #
coedge $-1 $505 $486 $375 $432 forward $373 $-1 #
edge $-1 $420 1.582455391429302683e-15 $508 0.1414213562373074773 $375 $509 forward 7 unknown #
vertex $-1 $425 $510 #
straight-curve $-1 337.8199999999999363 2.540000000000036007 10.16000000000000902 0 0 25.39999999999999858 I I #
coedge $-1 $380 $482 $498 $511 reversed $436 $-1 #
loop $-1 $-1 $380 $512 #
straight-curve $-1 340.3600000000000136 2.540000000000036007 340.3599999999999568 -17.96051224213814734 0 17.96051224213846353 I I #
plane-surface $-1 339.089999999999975 2.540000000000036007 171.4499999999999886 0 -1 0 0 0 25.39999999999999858 forward_v I I I I #
face $-1 $513 $514 $2 $-1 $515 reversed single #
loop $-1 $-1 $516 $384 #
cone-surface $-1 337.8199999999999363 213.7210244842766258 160.9289755157233799 1 0 0 0 0 6.349999999999999645 1 I I 0 1 6.349999999999999645 forward I I I I #
coedge $-1 $517 $462 $464 $518 reversed $385 $-1 #
coedge $-1 $464 $387 $389 $449 reversed $345 $-1 #
coedge $-1 $462 $517 $387 $445 forward $385 $-1 #
edge $-1 $519 0 $466 0.1000000000000008105 $444 $520 forward 7 unknown #
loop $-1 $521 $522 $247 #
coedge $-1 $523 $523 $524 $525 forward $388 $-1 #
coedge $-1 $389 $389 $517 $526 forward $347 $-1 #
edge $-1 $527 0 $519 3.141592653589793116 $389 $528 forward 7 unknown #
coedge $-1 $394 $393 $390 $451 reversed $349 $-1 #
edge $-1 $453 0 $452 3.141592653589793116 $390 $529 forward 7 unknown #
vertex $-1 $451 $530 #
vertex $-1 $451 $531 #
ellipse-curve $-1 340.3599999999999568 141.8789755157233685 232.7710244842766087 -1 0 0 0 0 6.349999999999999645 1 I I #
edge $-1 $452 0 $404 0.1000000000000008105 $393 $532 forward 7 unknown #
straight-curve $-1 340.3599999999999568 141.8789755157233685 226.4210244842766144 -25.39999999999999858 0 0 I I #
loop $-1 $290 $533 $201 #
coedge $-1 $534 $534 $535 $536 reversed $396 $-1 #
coedge $-1 $397 $397 $537 $538 reversed $352 $-1 #
coedge $-1 $516 $539 $397 $461 forward $440 $-1 #
edge $-1 $540 0 $541 3.141592653589793116 $397 $542 forward 7 unknown #
coedge $-1 $442 $444 $398 $463 forward $385 $-1 #
edge $-1 $466 0 $465 3.141592653589793116 $398 $543 forward 7 unknown #
coedge $-1 $399 $443 $442 $518 forward $345 $-1 #
vertex $-1 $463 $544 #
vertex $-1 $463 $545 #
ellipse-curve $-1 337.8199999999999363 141.8789755157233685 160.9289755157233799 -1 0 0 0 0 6.349999999999999645 1 I I #
ellipse-curve $-1 337.8199999999999363 141.8789755157233685 232.7710244842766087 -1 0 0 0 0 -6.349999999999999645 1 I I #
point $-1 337.8199999999999363 141.8789755157233685 239.1210244842766315 #
point $-1 337.8199999999999363 141.8789755157233685 226.4210244842766144 #
coedge $-1 $410 $407 $546 $547 forward $358 $-1 #
coedge $-1 $407 $410 $548 $549 reversed $358 $-1 #
coedge $-1 $409 $408 $407 $474 forward $318 $-1 #
edge $-1 $550 0 $551 0.09999999999999634182 $407 $552 forward 7 unknown #
coedge $-1 $546 $546 $408 $476 reversed $491 $-1 #
edge $-1 $479 0 $550 3.141592653589793116 $475 $553 forward 7 unknown #
coedge $-1 $548 $548 $409 $478 forward $554 $-1 #
edge $-1 $480 6.573919011953776063e-15 $551 3.141592653589821982 $477 $555 forward 7 unknown #
vertex $-1 $547 $556 #
vertex $-1 $549 $557 #
straight-curve $-1 447.0399999999999068 252.5521999999998286 447.9594907022448638 -25.39999999999999858 0 0 I I #
coedge $-1 $435 $412 $558 $493 forward $436 $-1 #
straight-curve $-1 447.0399999999999068 2.540000000000036007 340.3599999999999568 -25.39999999999999858 0 0 I I #
straight-curve $-1 447.0399999999999068 355.5999999999999659 340.3599999999999568 -25.39999999999999858 0 0 I I #
coedge $-1 $559 $416 $560 $561 reversed $418 $-1 #
coedge $-1 $431 $430 $416 $487 forward $373 $-1 #
edge $-1 $562 0 $420 8.599999999999994316 $486 $563 forward 7 unknown #
coedge $-1 $417 $564 $565 $566 reversed $418 $-1 #
coedge $-1 $567 $558 $417 $490 reversed $568 $-1 #
edge $-1 $569 -4.475859752819528668e-15 $419 8.199999999999995737 $489 $570 forward 7 unknown #
loop $-1 $-1 $475 $492 #
face $-1 $571 $418 $2 $-1 $572 reversed single #
edge $-1 $419 0 $573 0.1414213562373058952 $482 $574 forward 7 unknown #
point $-1 447.0399999999999068 2.540000000000036007 340.3600000000000136 #
point $-1 447.0399999999999068 355.5999999999999659 340.3600000000000136 #
coedge $-1 $424 $575 $422 $497 reversed $499 $-1 #
edge $-1 $370 0 $508 4.200000000000002842 $496 $576 forward 7 unknown #
coedge $-1 $575 $424 $435 $511 forward $499 $-1 #
loop $-1 $-1 $424 $577 #
straight-curve $-1 337.8199999999999363 355.5999999999999659 342.8999999999999773 0 -25.39999999999999858 0 I I #
face $-1 $578 $579 $2 $-1 $580 reversed single #
loop $-1 $-1 $581 $427 #
plane-surface $-1 444.5 273.0500000000000114 469.8999999999999773 0 1 0 0 0 25.39999999999999858 forward_v I I I I #
coedge $-1 $560 $582 $583 $584 forward $428 $-1 #
coedge $-1 $430 $431 $585 $586 forward $373 $-1 #
coedge $-1 $582 $560 $430 $507 forward $428 $-1 #
edge $-1 $562 0 $587 0.1000000000000008105 $430 $588 forward 7 unknown #
vertex $-1 $497 $589 #
straight-curve $-1 447.0399999999999068 355.5999999999999659 340.3599999999999568 -17.96051224213846353 0 17.96051224213814734 I I #
point $-1 337.8199999999999363 2.540000000000036007 342.8999999999999773 #
edge $-1 $433 0 $573 4.200000000000002842 $498 $590 forward 7 unknown #
face $-1 $382 $436 $2 $-1 $591 forward single #
face $-1 $592 $593 $2 $-1 $594 reversed single #
loop $-1 $-1 $595 $439 #
cone-surface $-1 337.8199999999999363 213.7210244842766258 160.9289755157233799 1 0 0 0 0 6.349999999999999645 1 I I 0 1 6.349999999999999645 forward I I I I #
coedge $-1 $524 $460 $596 $597 reversed $440 $-1 #
coedge $-1 $444 $442 $448 $526 reversed $385 $-1 #
edge $-1 $527 0 $465 0.1000000000000008105 $442 $598 forward 7 unknown #
vertex $-1 $526 $599 #
straight-curve $-1 340.3599999999999568 141.8789755157233685 154.5789755157233856 -25.39999999999999858 0 0 I I #
loop $-1 $190 $600 $247 #
coedge $-1 $601 $601 $602 $603 forward $446 $-1 #
coedge $-1 $447 $447 $604 $605 forward $388 $-1 #
coedge $-1 $539 $516 $447 $525 reversed $440 $-1 #
edge $-1 $606 0 $607 3.141592653589793116 $447 $608 forward 7 unknown #
edge $-1 $519 0 $527 3.141592653589793116 $448 $609 forward 7 unknown #
vertex $-1 $526 $610 #
ellipse-curve $-1 340.3599999999999568 141.8789755157233685 160.9289755157233799 -1 0 0 0 0 6.349999999999999645 1 I I #
ellipse-curve $-1 340.3599999999999568 141.8789755157233685 232.7710244842766087 -1 0 0 0 0 -6.349999999999999645 1 I I #
point $-1 340.3599999999999568 141.8789755157233685 239.1210244842766315 #
point $-1 340.3599999999999568 141.8789755157233685 226.4210244842766144 #
straight-curve $-1 340.3599999999999568 141.8789755157233685 239.1210244842766315 -25.39999999999999858 0 0 I I #
coedge $-1 $611 $611 $612 $613 forward $457 $-1 #
coedge $-1 $458 $458 $614 $615 reversed $396 $-1 #
coedge $-1 $616 $617 $458 $536 forward $593 $-1 #
edge $-1 $618 0 $619 3.141592653589793116 $458 $620 forward 7 unknown #
coedge $-1 $595 $596 $459 $538 forward $514 $-1 #
edge $-1 $541 0 $540 3.141592653589793116 $459 $621 forward 7 unknown #
coedge $-1 $460 $524 $595 $622 forward $440 $-1 #
vertex $-1 $538 $623 #
vertex $-1 $538 $624 #
ellipse-curve $-1 337.8199999999999363 213.7210244842766258 160.9289755157233799 -1 0 0 0 0 6.349999999999999645 1 I I #
ellipse-curve $-1 337.8199999999999363 141.8789755157233685 160.9289755157233799 -1 0 0 0 0 -6.349999999999999645 1 I I #
point $-1 337.8199999999999363 141.8789755157233685 167.2789755157233742 #
point $-1 337.8199999999999363 141.8789755157233685 154.5789755157233856 #
coedge $-1 $475 $475 $471 $547 reversed $491 $-1 #
edge $-1 $550 0 $479 3.141592653589793116 $546 $625 forward 7 unknown #
coedge $-1 $477 $477 $472 $549 forward $554 $-1 #
edge $-1 $551 -4.615730370095145792e-15 $480 3.141592653589833084 $548 $626 forward 7 unknown #
vertex $-1 $547 $627 #
vertex $-1 $549 $628 #
straight-curve $-1 447.0399999999999068 262.7121999999998252 447.9594907022448638 -25.39999999999999858 0 0 I I #
ellipse-curve $-1 447.0399999999999068 257.6321999999998411 447.9594907022448638 1 0 0 0 -5.079999999999981419 0 1 I I #
loop $-1 $-1 $477 $629 #
ellipse-curve $-1 444.5 257.6321999999998411 447.9594907022448069 1 0 0 0 -5.079999999999981419 9.023892744153271856e-14 1 I I #
point $-1 447.0399999999999068 252.5521999999998286 447.9594907022448638 #
point $-1 444.5 252.5521999999998286 447.9594907022448638 #
coedge $-1 $489 $630 $482 $493 reversed $568 $-1 #
coedge $-1 $631 $485 $632 $633 reversed $418 $-1 #
coedge $-1 $506 $504 $485 $561 forward $428 $-1 #
edge $-1 $634 0 $562 3.249999999999998224 $560 $635 forward 7 unknown #
vertex $-1 $487 $636 #
straight-curve $-1 447.0399999999999068 355.5999999999999659 558.7999999999998408 0 0 -25.39999999999999858 I I #
coedge $-1 $488 $637 $638 $639 forward $418 $-1 #
coedge $-1 $640 $641 $488 $566 forward $642 $-1 #
edge $-1 $569 0 $643 1.199999999999999289 $488 $644 forward 7 unknown #
coedge $-1 $630 $489 $641 $645 forward $568 $-1 #
loop $-1 $-1 $630 $571 #
vertex $-1 $645 $646 #
straight-curve $-1 447.0399999999999068 2.540000000000036007 548.6399999999998727 0 0 -25.39999999999999858 I I #
face $-1 $629 $568 $2 $-1 $647 forward single #
plane-surface $-1 447.0399999999999068 355.5999999999999659 342.8999999999999773 -1 0 0 0 0 25.39999999999999858 forward_v I I I I #
vertex $-1 $648 $649 #
straight-curve $-1 447.0399999999999068 2.540000000000036007 340.3600000000000136 -17.96051224213814734 0 17.96051224213846353 I I #
coedge $-1 $496 $498 $650 $648 reversed $499 $-1 #
straight-curve $-1 337.8199999999999363 355.5999999999999659 342.8999999999999773 25.39999999999999858 0 0 I I #
face $-1 $512 $499 $2 $-1 $651 forward single #
face $-1 $652 $653 $2 $-1 $654 reversed single #
loop $-1 $-1 $655 $501 #
plane-surface $-1 444.5 270.5099999999999341 469.8999999999999773 0 0 -1 0 25.39999999999999858 0 forward_v I I I I #
coedge $-1 $632 $656 $657 $658 reversed $502 $-1 #
coedge $-1 $504 $506 $659 $660 reversed $428 $-1 #
coedge $-1 $656 $632 $504 $584 reversed $502 $-1 #
edge $-1 $661 0 $634 0.1000000000000008105 $504 $662 forward 7 unknown #
coedge $-1 $650 $659 $505 $586 reversed $663 $-1 #
edge $-1 $508 2.237929876409764334e-15 $587 8.499999999999998224 $585 $664 forward 7 unknown #
vertex $-1 $586 $665 #
straight-curve $-1 447.0399999999999068 355.5999999999999659 558.7999999999999545 -25.39999999999999858 0 0 I I #
point $-1 444.5 355.5999999999999659 342.8999999999999773 #
straight-curve $-1 337.8199999999999363 2.540000000000036007 342.8999999999999773 25.39999999999999858 0 0 I I #
plane-surface $-1 392.42999999999995 2.540000000000036007 341.6299999999999386 0 -1 0 25.39999999999999858 0 0 forward_v I I I I #
face $-1 $666 $667 $2 $-1 $668 reversed single #
loop $-1 $-1 $616 $513 #
cone-surface $-1 337.8199999999999363 213.7210244842766258 232.7710244842765803 1 0 0 0 0 6.349999999999999645 1 I I 0 1 6.349999999999999645 forward I I I I #
coedge $-1 $604 $537 $539 $622 reversed $514 $-1 #
coedge $-1 $537 $604 $516 $597 forward $514 $-1 #
edge $-1 $607 0 $541 0.1000000000000008105 $596 $669 forward 7 unknown #
straight-curve $-1 340.3599999999999568 141.8789755157233685 167.2789755157233742 -25.39999999999999858 0 0 I I #
point $-1 340.3599999999999568 141.8789755157233685 154.5789755157233856 #
coedge $-1 $670 $670 $671 $672 reversed $521 $-1 #
coedge $-1 $522 $522 $673 $674 forward $446 $-1 #
coedge $-1 $617 $616 $522 $603 reversed $593 $-1 #
edge $-1 $675 0 $676 3.141592653589793116 $522 $677 forward 7 unknown #
coedge $-1 $596 $595 $523 $605 reversed $514 $-1 #
edge $-1 $607 0 $606 3.141592653589793116 $523 $678 forward 7 unknown #
vertex $-1 $605 $679 #
vertex $-1 $605 $680 #
ellipse-curve $-1 340.3599999999999568 213.7210244842766258 160.9289755157233799 -1 0 0 0 0 6.349999999999999645 1 I I #
ellipse-curve $-1 340.3599999999999568 141.8789755157233685 160.9289755157233799 -1 0 0 0 0 -6.349999999999999645 1 I I #
point $-1 340.3599999999999568 141.8789755157233685 167.2789755157233742 #
coedge $-1 $533 $533 $681 $682 forward $457 $-1 #
coedge $-1 $683 $684 $533 $613 reversed $685 $-1 #
edge $-1 $686 0 $687 3.141592653589793116 $533 $688 forward 7 unknown #
coedge $-1 $689 $690 $534 $615 forward $667 $-1 #
edge $-1 $619 0 $618 3.141592653589793116 $534 $691 forward 7 unknown #
coedge $-1 $602 $535 $690 $692 reversed $593 $-1 #
coedge $-1 $535 $602 $689 $693 forward $593 $-1 #
vertex $-1 $615 $694 #
vertex $-1 $615 $695 #
ellipse-curve $-1 337.8199999999999363 213.7210244842766258 232.7710244842765803 -1 0 0 0 0 6.349999999999999645 1 I I #
ellipse-curve $-1 337.8199999999999363 213.7210244842766258 160.9289755157233799 -1 0 0 0 0 -6.349999999999999645 1 I I #
edge $-1 $606 0 $540 0.1000000000000008105 $595 $696 forward 7 unknown #
point $-1 337.8199999999999363 213.7210244842766258 167.2789755157233742 #
point $-1 337.8199999999999363 213.7210244842766258 154.5789755157233856 #
ellipse-curve $-1 447.0399999999999068 257.6321999999998411 447.9594907022448638 1 0 0 0 5.079999999999981419 0 1 I I #
ellipse-curve $-1 444.5 257.6321999999998411 447.9594907022449775 1 0 0 0 5.079999999999981419 -9.023892744153271856e-14 1 I I #
point $-1 447.0399999999999068 262.7121999999998252 447.9594907022448638 #
point $-1 444.5 262.7121999999998252 447.9594907022448638 #
face $-1 $697 $663 $2 $-1 $698 forward single #
coedge $-1 $558 $567 $699 $700 reversed $568 $-1 #
coedge $-1 $701 $559 $702 $703 forward $418 $-1 #
coedge $-1 $583 $581 $559 $633 forward $502 $-1 #
edge $-1 $704 0 $634 3.499999999999999112 $559 $705 forward 7 unknown #
vertex $-1 $561 $706 #
straight-curve $-1 447.0399999999999068 273.0500000000000114 558.7999999999999545 0 25.39999999999999858 0 I I #
point $-1 447.0399999999999068 355.5999999999999659 558.7999999999998408 #
coedge $-1 $564 $707 $708 $709 reversed $418 $-1 #
coedge $-1 $710 $711 $564 $639 reversed $712 $-1 #
edge $-1 $713 0 $643 0.3999999999999987454 $564 $714 forward 7 unknown #
coedge $-1 $715 $565 $711 $716 forward $642 $-1 #
coedge $-1 $565 $715 $567 $645 reversed $642 $-1 #
loop $-1 $-1 $641 $717 #
vertex $-1 $566 $718 #
straight-curve $-1 447.0399999999999068 2.540000000000036007 548.6399999999998727 0 25.39999999999999858 0 I I #
edge $-1 $569 0 $719 0.09999999999999634182 $567 $720 forward 7 unknown #
point $-1 447.0399999999999068 2.540000000000036007 548.6399999999999864 #
plane-surface $-1 445.769999999999925 2.540000000000036007 450.2149999999999181 0 -1 0 0 0 25.39999999999999858 forward_v I I I I #
edge $-1 $508 0 $573 13.89999999999999858 $575 $721 forward 7 unknown #
point $-1 444.5 2.540000000000036007 342.8999999999999773 #
coedge $-1 $699 $585 $575 $648 forward $663 $-1 #
plane-surface $-1 337.8199999999999363 355.5999999999999659 342.8999999999999773 0 0 1 25.39999999999999858 0 0 forward_v I I I I #
face $-1 $492 $722 $2 $-1 $723 reversed single #
loop $-1 $-1 $724 $578 #
plane-surface $-1 444.5 270.5099999999999341 558.7999999999999545 0 -1 0 0 0 -25.39999999999999858 forward_v I I I I #
coedge $-1 $702 $725 $726 $727 reversed $579 $-1 #
coedge $-1 $581 $583 $728 $729 reversed $502 $-1 #
coedge $-1 $725 $702 $581 $658 forward $579 $-1 #
edge $-1 $704 0 $730 0.1000000000000008105 $657 $731 forward 7 unknown #
coedge $-1 $585 $728 $582 $660 forward $663 $-1 #
edge $-1 $661 0 $587 3.249999999999998224 $659 $732 forward 7 unknown #
vertex $-1 $660 $733 #
straight-curve $-1 444.4999999999998863 273.0500000000000114 558.7999999999999545 25.39999999999999858 0 0 I I #
loop $-1 $554 $734 $629 #
straight-curve $-1 444.5 355.5999999999999659 342.8999999999999204 0 0 25.39999999999999858 I I #
point $-1 444.4999999999998863 355.5999999999999659 558.7999999999998408 #
face $-1 $735 $685 $2 $-1 $736 reversed single #
loop $-1 $-1 $689 $592 #
cone-surface $-1 337.8199999999999363 213.7210244842766258 232.7710244842765803 1 0 0 0 0 6.349999999999999645 1 I I 0 1 6.349999999999999645 forward I I I I #
straight-curve $-1 340.3599999999999568 213.7210244842766258 154.5789755157233856 -25.39999999999999858 0 0 I I #
coedge $-1 $600 $600 $737 $738 reversed $521 $-1 #
coedge $-1 $684 $683 $600 $672 forward $685 $-1 #
edge $-1 $739 0 $740 3.141592653589793116 $600 $741 forward 7 unknown #
coedge $-1 $690 $689 $601 $674 reversed $667 $-1 #
edge $-1 $676 0 $675 3.141592653589793116 $601 $742 forward 7 unknown #
vertex $-1 $674 $743 #
vertex $-1 $674 $744 #
ellipse-curve $-1 340.3599999999999568 213.7210244842766258 232.7710244842765803 -1 0 0 0 0 6.349999999999999645 1 I I #
ellipse-curve $-1 340.3599999999999568 213.7210244842766258 160.9289755157233799 -1 0 0 0 0 -6.349999999999999645 1 I I #
point $-1 340.3599999999999568 213.7210244842766258 167.2789755157233742 #
point $-1 340.3599999999999568 213.7210244842766258 154.5789755157233856 #
coedge $-1 $745 $746 $611 $682 reversed $747 $-1 #
edge $-1 $687 0 $686 3.141592653589793116 $611 $748 forward 7 unknown #
coedge $-1 $671 $612 $746 $749 forward $685 $-1 #
coedge $-1 $612 $671 $745 $750 reversed $685 $-1 #
loop $-1 $-1 $683 $666 #
vertex $-1 $682 $751 #
vertex $-1 $682 $752 #
ellipse-curve $-1 337.8199999999999363 177.7999999999999829 196.8499999999999943 1 0 0 0 0 -25.39999999999999858 1 I I #
coedge $-1 $673 $614 $617 $693 reversed $667 $-1 #
coedge $-1 $614 $673 $616 $692 forward $667 $-1 #
ellipse-curve $-1 337.8199999999999363 213.7210244842766258 232.7710244842765803 -1 0 0 0 0 -6.349999999999999645 1 I I #
edge $-1 $676 0 $619 0.1000000000000008105 $690 $753 forward 7 unknown #
edge $-1 $675 0 $618 0.1000000000000008105 $689 $754 forward 7 unknown #
point $-1 337.8199999999999363 213.7210244842766258 239.1210244842765746 #
point $-1 337.8199999999999363 213.7210244842766258 226.421024484276586 #
straight-curve $-1 340.3599999999999568 213.7210244842766258 167.2789755157233742 -25.39999999999999858 0 0 I I #
face $-1 $717 $712 $2 $-1 $755 reversed single #
plane-surface $-1 444.5 355.5999999999999659 342.8999999999999773 -1 0 0 0 0 25.39999999999999858 forward_v I I I I #
coedge $-1 $756 $650 $630 $700 forward $663 $-1 #
edge $-1 $573 2.237929876409764334e-15 $719 8.100000000000003197 $699 $757 forward 7 unknown #
coedge $-1 $758 $631 $759 $760 forward $418 $-1 #
coedge $-1 $657 $655 $631 $703 reversed $579 $-1 #
edge $-1 $704 0 $761 0.1000000000000008105 $631 $762 forward 7 unknown #
vertex $-1 $703 $763 #
straight-curve $-1 447.0399999999999068 273.0500000000000114 469.8999999999999773 0 0 25.39999999999999858 I I #
point $-1 447.0399999999999068 273.0500000000000114 558.7999999999999545 #
coedge $-1 $637 $764 $765 $766 forward $418 $-1 #
coedge $-1 $767 $768 $637 $709 forward $769 $-1 #
edge $-1 $713 -8.392237036536617238e-16 $770 3.400000000000000799 $708 $771 forward 7 unknown #
coedge $-1 $772 $638 $768 $773 forward $712 $-1 #
coedge $-1 $638 $772 $640 $716 reversed $712 $-1 #
loop $-1 $-1 $711 $697 #
vertex $-1 $773 $774 #
straight-curve $-1 447.0399999999999068 33.02000000000001734 558.7999999999999545 0 0 -25.39999999999999858 I I #
coedge $-1 $641 $640 $756 $775 reversed $642 $-1 #
edge $-1 $643 0 $776 0.09999999999999634182 $640 $777 forward 7 unknown #
face $-1 $778 $642 $2 $-1 $779 reversed single #
point $-1 447.0399999999999068 33.02000000000001734 548.6399999999999864 #
vertex $-1 $775 $780 #
straight-curve $-1 447.0399999999999068 2.540000000000036007 548.6399999999998727 -25.39999999999999858 0 0 I I #
straight-curve $-1 444.5 355.5999999999999659 342.8999999999999773 0 -25.39999999999999858 0 I I #
loop $-1 $-1 $781 $652 #
plane-surface $-1 445.769999999999925 179.0699999999999932 558.7999999999999545 0 0 -1 0 -25.39999999999999858 0 forward_v I I I I #
coedge $-1 $759 $782 $783 $784 forward $653 $-1 #
coedge $-1 $655 $657 $785 $786 forward $579 $-1 #
coedge $-1 $782 $759 $655 $727 forward $653 $-1 #
edge $-1 $761 4.475859752819528668e-15 $787 0.1000000000000008105 $726 $788 forward 7 unknown #
coedge $-1 $659 $785 $656 $729 forward $663 $-1 #
edge $-1 $730 0 $661 3.499999999999999112 $728 $789 forward 7 unknown #
vertex $-1 $729 $790 #
straight-curve $-1 447.0400000000000205 273.0500000000000114 469.8999999999999773 -25.39999999999999858 0 0 I I #
straight-curve $-1 444.5 273.0500000000000114 558.7999999999999545 0 25.39999999999999858 0 I I #
point $-1 444.4999999999998863 273.0500000000000114 558.7999999999999545 #
coedge $-1 $791 $756 $772 $792 reversed $663 $-1 #
face $-1 $131 $747 $2 $-1 $793 reversed single #
cone-surface $-1 337.8199999999999363 177.7999999999999829 196.8499999999999943 1 0 0 0 0 25.39999999999999858 1 I I 0 1 25.39999999999999858 forward I I I I #
coedge $-1 $746 $745 $670 $738 forward $747 $-1 #
edge $-1 $740 0 $739 3.141592653589793116 $670 $794 forward 7 unknown #
vertex $-1 $738 $795 #
vertex $-1 $738 $796 #
ellipse-curve $-1 340.3599999999999568 177.7999999999999829 196.8499999999999943 1 0 0 0 0 -25.39999999999999858 1 I I #
ellipse-curve $-1 340.3599999999999568 213.7210244842766258 232.7710244842765803 -1 0 0 0 0 -6.349999999999999645 1 I I #
point $-1 340.3599999999999568 213.7210244842766258 239.1210244842765746 #
point $-1 340.3599999999999568 213.7210244842766258 226.421024484276586 #
coedge $-1 $737 $681 $684 $750 forward $747 $-1 #
coedge $-1 $681 $737 $683 $749 reversed $747 $-1 #
loop $-1 $-1 $745 $735 #
ellipse-curve $-1 337.8199999999999363 177.7999999999999829 196.8499999999999943 1 0 0 0 0 25.39999999999999858 1 I I #
edge $-1 $686 0 $739 0.1000000000000008105 $746 $797 forward 7 unknown #
edge $-1 $687 0 $740 0.1000000000000008105 $745 $798 forward 7 unknown #
point $-1 337.8199999999999363 177.7999999999999829 171.4499999999999886 #
point $-1 337.8199999999999363 177.7999999999999829 222.25 #
straight-curve $-1 340.3599999999999568 213.7210244842766258 226.421024484276586 -25.39999999999999858 0 0 I I #
straight-curve $-1 340.3599999999999568 213.7210244842766258 239.1210244842765746 -25.39999999999999858 0 0 I I #
plane-surface $-1 447.0399999999999068 33.02000000000001734 548.6399999999998727 0 1 0 0 0 25.39999999999999858 forward_v I I I I #
coedge $-1 $734 $699 $715 $775 forward $663 $-1 #
straight-curve $-1 444.5 2.540000000000036007 342.8999999999999204 0 0 25.39999999999999858 I I #
coedge $-1 $799 $701 $781 $800 reversed $418 $-1 #
coedge $-1 $726 $724 $701 $760 reversed $653 $-1 #
edge $-1 $761 0 $801 3.499999999999999112 $701 $802 forward 7 unknown #
vertex $-1 $760 $803 #
straight-curve $-1 447.0399999999999068 273.0500000000000114 469.8999999999999773 0 -25.39999999999999858 0 I I #
point $-1 447.0400000000000205 273.0500000000000114 469.8999999999999773 #
coedge $-1 $707 $799 $804 $805 forward $418 $-1 #
coedge $-1 $806 $807 $707 $766 reversed $808 $-1 #
edge $-1 $809 0 $770 3.999999999999998668 $707 $810 forward 7 unknown #
coedge $-1 $811 $708 $807 $812 reversed $769 $-1 #
coedge $-1 $708 $811 $710 $773 reversed $769 $-1 #
loop $-1 $-1 $708 $778 #
vertex $-1 $812 $813 #
straight-curve $-1 447.0399999999999068 33.02000000000001734 558.7999999999999545 0 25.39999999999999858 0 I I #
coedge $-1 $711 $710 $734 $792 forward $712 $-1 #
edge $-1 $713 0 $814 0.1000000000000008105 $768 $815 forward 7 unknown #
point $-1 447.0399999999999068 33.01999999999999602 558.7999999999999545 #
edge $-1 $719 0 $776 1.199999999999999289 $756 $816 forward 7 unknown #
vertex $-1 $775 $817 #
straight-curve $-1 447.0399999999999068 33.02000000000001734 548.6399999999998727 -25.39999999999999858 0 0 I I #
face $-1 $818 $769 $2 $-1 $819 reversed single #
plane-surface $-1 447.0399999999999068 0 548.6399999999998727 0 0 -1 0 25.39999999999999858 0 forward_v I I I I #
point $-1 444.5 2.540000000000036007 548.6399999999999864 #
coedge $-1 $783 $820 $758 $800 forward $722 $-1 #
coedge $-1 $724 $726 $821 $822 forward $653 $-1 #
coedge $-1 $823 $781 $724 $784 reversed $722 $-1 #
edge $-1 $824 4.475859752819528668e-15 $801 0.1000000000000008105 $783 $825 forward 7 unknown #
coedge $-1 $728 $821 $725 $786 reversed $663 $-1 #
edge $-1 $730 0 $787 0.1000000000000008105 $785 $826 forward 7 unknown #
vertex $-1 $786 $827 #
straight-curve $-1 447.0400000000000205 270.5099999999999341 469.8999999999999773 -25.39999999999999858 0 0 I I #
straight-curve $-1 444.5 273.0500000000000114 469.8999999999999773 0 0 25.39999999999999858 I I #
point $-1 444.5 273.0500000000000114 469.8999999999999773 #
coedge $-1 $828 $734 $811 $829 forward $663 $-1 #
edge $-1 $814 -0 $776 0.3999999999999987454 $734 $830 forward 7 unknown #
cone-surface $-1 337.8199999999999363 177.7999999999999829 196.8499999999999943 1 0 0 0 0 25.39999999999999858 1 I I 0 1 25.39999999999999858 forward I I I I #
ellipse-curve $-1 340.3599999999999568 177.7999999999999829 196.8499999999999943 1 0 0 0 0 25.39999999999999858 1 I I #
point $-1 340.3599999999999568 177.7999999999999829 171.4499999999999886 #
point $-1 340.3599999999999568 177.7999999999999829 222.25 #
straight-curve $-1 337.8199999999999363 177.7999999999999829 171.4499999999999886 25.39999999999999858 0 0 I I #
straight-curve $-1 337.8199999999999363 177.7999999999999829 222.25 25.39999999999999858 0 0 I I #
coedge $-1 $764 $758 $831 $832 reversed $418 $-1 #
edge $-1 $833 -1.118964938204882167e-15 $801 5.84999999999999698 $781 $834 forward 7 unknown #
vertex $-1 $784 $835 #
straight-curve $-1 447.0399999999999068 270.5099999999999341 469.8999999999999773 0 0 25.39999999999999858 I I #
point $-1 447.0399999999999068 270.5099999999999909 469.8999999999999773 #
coedge $-1 $836 $837 $764 $805 reversed $838 $-1 #
edge $-1 $839 1.118964938204882167e-15 $809 0.1000000000000013656 $764 $840 forward 7 unknown #
coedge $-1 $841 $765 $837 $842 forward $808 $-1 #
coedge $-1 $765 $841 $767 $812 forward $808 $-1 #
loop $-1 $-1 $807 $818 #
vertex $-1 $766 $843 #
straight-curve $-1 447.0399999999999068 119.3799999999999812 457.1999999999999886 0 0 25.39999999999999858 I I #
coedge $-1 $768 $767 $791 $829 reversed $769 $-1 #
edge $-1 $844 4.475859752819528668e-15 $770 0.1000000000000008105 $767 $845 forward 7 unknown #
point $-1 447.0399999999999068 119.3800000000000239 558.7999999999999545 #
vertex $-1 $829 $846 #
straight-curve $-1 447.0399999999999068 33.02000000000001734 558.7999999999999545 -25.39999999999999858 0 0 I I #
straight-curve $-1 444.5 2.540000000000036007 548.6399999999998727 0 25.39999999999999858 0 I I #
point $-1 444.5 33.02000000000001734 548.6399999999999864 #
face $-1 $847 $808 $2 $-1 $848 reversed single #
plane-surface $-1 445.769999999999925 179.0699999999999932 558.7999999999999545 0 0 -1 0 -25.39999999999999858 0 forward_v I I I I #
coedge $-1 $781 $823 $849 $850 forward $722 $-1 #
coedge $-1 $785 $851 $782 $822 reversed $663 $-1 #
edge $-1 $787 0 $824 3.499999999999999112 $821 $852 forward 7 unknown #
coedge $-1 $820 $783 $851 $853 reversed $722 $-1 #
vertex $-1 $822 $854 #
straight-curve $-1 444.4999999999998863 270.5099999999999341 558.7999999999999545 25.39999999999999858 0 0 I I #
straight-curve $-1 444.5 273.0500000000000114 469.8999999999999773 0 -25.39999999999999858 0 I I #
point $-1 444.5 270.5099999999999909 469.8999999999999773 #
coedge $-1 $855 $791 $841 $856 reversed $663 $-1 #
edge $-1 $814 -8.392237036536617238e-16 $844 3.400000000000000799 $791 $857 forward 7 unknown #
straight-curve $-1 444.5 33.02000000000001734 558.7999999999999545 0 0 -25.39999999999999858 I I #
coedge $-1 $849 $858 $799 $832 forward $859 $-1 #
edge $-1 $839 0 $833 3.999999999999998668 $799 $860 forward 7 unknown #
vertex $-1 $850 $861 #
straight-curve $-1 447.0399999999999068 121.9200000000000159 558.7999999999999545 0 25.39999999999999858 0 I I #
point $-1 447.0399999999999068 270.5099999999999341 558.7999999999999545 #
coedge $-1 $862 $804 $858 $863 forward $838 $-1 #
coedge $-1 $804 $862 $806 $842 reversed $838 $-1 #
loop $-1 $-1 $837 $847 #
vertex $-1 $805 $864 #
straight-curve $-1 447.0399999999999068 121.9200000000000159 457.1999999999999886 0 -25.39999999999999858 0 I I #
coedge $-1 $807 $806 $828 $856 forward $808 $-1 #
edge $-1 $809 0 $865 0.1000000000000008105 $806 $866 forward 7 unknown #
point $-1 447.0400000000000205 119.3799999999999812 457.1999999999999886 #
vertex $-1 $856 $867 #
straight-curve $-1 444.4999999999998863 119.3799999999999812 558.7999999999999545 25.39999999999999858 0 0 I I #
point $-1 444.4999999999998863 33.01999999999999602 558.7999999999999545 #
face $-1 $868 $838 $2 $-1 $869 reversed single #
plane-surface $-1 444.5 119.3799999999999812 558.7999999999999545 0 -1 0 0 0 -25.39999999999999858 forward_v I I I I #
coedge $-1 $870 $831 $820 $850 reversed $859 $-1 #
edge $-1 $871 0 $833 0.1000000000000008105 $820 $872 forward 7 unknown #
coedge $-1 $821 $873 $823 $853 forward $663 $-1 #
straight-curve $-1 444.5 270.5099999999999341 469.8999999999999773 0 0 25.39999999999999858 I I #
edge $-1 $871 -1.118964938204882167e-15 $824 5.849999999999999645 $851 $874 forward 7 unknown #
point $-1 444.5 270.5099999999999909 558.7999999999999545 #
coedge $-1 $873 $828 $862 $875 reversed $663 $-1 #
edge $-1 $865 0 $844 3.999999999999998668 $828 $876 forward 7 unknown #
straight-curve $-1 444.5 33.02000000000001734 558.7999999999999545 0 25.39999999999999858 0 I I #
coedge $-1 $831 $870 $836 $863 reversed $859 $-1 #
loop $-1 $-1 $858 $868 #
straight-curve $-1 447.0399999999999068 121.9199999999999875 457.1999999999999886 0 0 25.39999999999999858 I I #
point $-1 447.0399999999999068 121.9199999999999875 558.7999999999999545 #
coedge $-1 $837 $836 $855 $875 forward $838 $-1 #
edge $-1 $839 0 $877 0.1000000000000008105 $836 $878 forward 7 unknown #
point $-1 447.0400000000000205 121.9199999999999875 457.1999999999999886 #
vertex $-1 $875 $879 #
straight-curve $-1 447.0400000000000205 119.3799999999999812 457.1999999999999886 -25.39999999999999858 0 0 I I #
point $-1 444.5 119.3800000000000239 558.7999999999999545 #
face $-1 $577 $859 $2 $-1 $880 reversed single #
plane-surface $-1 444.5 119.3799999999999812 457.1999999999999886 0 0 -1 0 25.39999999999999858 0 forward_v I I I I #
coedge $-1 $858 $849 $873 $881 reversed $859 $-1 #
vertex $-1 $853 $882 #
straight-curve $-1 444.4999999999998863 121.9199999999999875 558.7999999999999545 25.39999999999999858 0 0 I I #
coedge $-1 $851 $855 $870 $881 forward $663 $-1 #
straight-curve $-1 444.5 121.9200000000000159 558.7999999999999545 0 25.39999999999999858 0 I I #
edge $-1 $877 0 $865 0.09999999999999968636 $855 $883 forward 7 unknown #
straight-curve $-1 444.5 119.3799999999999812 457.1999999999999886 0 0 25.39999999999999858 I I #
vertex $-1 $881 $884 #
straight-curve $-1 447.0400000000000205 121.9199999999999875 457.1999999999999886 -25.39999999999999858 0 0 I I #
point $-1 444.5 119.3800000000000239 457.1999999999999886 #
plane-surface $-1 444.5 121.9199999999999875 457.1999999999999886 0 1 0 0 0 25.39999999999999858 forward_v I I I I #
edge $-1 $877 0 $871 3.999999999999998668 $873 $885 forward 7 unknown #
point $-1 444.4999999999998863 121.9199999999999875 558.7999999999999545 #
straight-curve $-1 444.5 121.9200000000000159 457.1999999999999886 0 -25.39999999999999858 0 I I #
point $-1 444.5 121.9200000000000159 457.1999999999999886 #
straight-curve $-1 444.5 121.9199999999999875 457.1999999999999886 0 0 25.39999999999999858 I I #
End-of-ACIS-data 