600 0 1 0           
108 GICL Pro/E ACIS Translator - Source: f:/data5/repository/PTC/V18/web_pub18/web_pub_models/fan_ring.prt - 6 0 13 ACIS 6.0.3 NT 24 Thu Apr 04 13:17:48 2002 
1 9.9999999999999995e-007 1e-010 
body $-1 $1 $-1 $2 #
lump $-1 $-1 $3 $0 #
transform $-1 1 0 0 0 1 0 0 0 1 0 0 0 25.399999999999999 no_rotate no_reflect no_shear #
shell $-1 $-1 $-1 $4 $-1 $1 #
face $-1 $5 $6 $3 $-1 $7 reversed single #
face $-1 $8 $9 $3 $-1 $10 forward single #
loop $-1 $11 $12 $4 #
plane-surface $-1 4.3399999999999999 0 0 1 0 0 0 0 -1 forward_v I I I I #
face $-1 $13 $14 $3 $-1 $15 forward single #
loop $-1 $-1 $16 $5 #
cone-surface $-1 4.3399999999999999 7 7.75 1 0 0 0 0 -5.75 1 I I 0 1 5.75 forward I I I I #
loop $-1 $17 $18 $4 #
coedge $-1 $19 $19 $20 $21 reversed $6 $-1 #
face $-1 $22 $23 $3 $-1 $24 forward single #
loop $-1 $-1 $25 $8 #
cone-surface $-1 4.3399999999999999 7 7.75 1 0 0 0 0 -5.75 1 I I 0 1 5.75 forward I I I I #
coedge $-1 $26 $20 $27 $28 forward $9 $-1 #
loop $-1 $29 $30 $4 #
coedge $-1 $31 $32 $33 $34 reversed $11 $-1 #
coedge $-1 $12 $12 $35 $36 reversed $6 $-1 #
coedge $-1 $16 $37 $12 $21 forward $9 $-1 #
edge $-1 $38 0 $39 3.1415926535897931 $12 $40 forward 7 unknown #
face $-1 $41 $42 $3 $-1 $43 reversed single #
loop $-1 $44 $45 $13 #
plane-surface $-1 5.3399999999999999 0 0 1 0 0 0 0 -1 forward_v I I I I #
coedge $-1 $46 $35 $37 $47 forward $14 $-1 #
coedge $-1 $37 $16 $45 $48 reversed $9 $-1 #
coedge $-1 $35 $46 $16 $28 reversed $14 $-1 #
edge $-1 $39 0 $49 1 $27 $50 forward 7 unknown #
loop $-1 $51 $52 $4 #
coedge $-1 $53 $54 $55 $56 forward $17 $-1 #
coedge $-1 $57 $18 $58 $59 forward $11 $-1 #
coedge $-1 $18 $60 $61 $62 forward $11 $-1 #
coedge $-1 $63 $64 $18 $34 forward $65 $-1 #
edge $-1 $66 0 $67 1.6709637479564576 $18 $68 forward 7 unknown #
coedge $-1 $25 $27 $19 $36 forward $14 $-1 #
edge $-1 $39 0 $38 3.1415926535897931 $19 $69 forward 7 unknown #
coedge $-1 $20 $26 $25 $47 reversed $9 $-1 #
vertex $-1 $36 $70 #
vertex $-1 $36 $71 #
ellipse-curve $-1 4.3399999999999999 7 7.75 1 0 0 0 0 5.75 1 I I #
face $-1 $72 $73 $3 $-1 $74 reversed single #
loop $-1 $-1 $75 $22 #
cone-surface $-1 5.3399999999999999 7 7.75 1 0 0 0 0 -5.25 1 I I 0 1 5.25 forward I I I I #
loop $-1 $-1 $76 $13 #
coedge $-1 $77 $77 $26 $48 forward $23 $-1 #
coedge $-1 $27 $25 $77 $78 reversed $14 $-1 #
edge $-1 $38 0 $79 1 $25 $80 forward 7 unknown #
edge $-1 $79 0 $49 3.1415926535897931 $26 $81 forward 7 unknown #
vertex $-1 $28 $82 #
straight-curve $-1 4.3399999999999999 7 2 1 0 0 I I #
loop $-1 $83 $84 $4 #
coedge $-1 $85 $86 $87 $88 forward $29 $-1 #
coedge $-1 $89 $30 $90 $91 reversed $17 $-1 #
coedge $-1 $30 $92 $93 $94 reversed $17 $-1 #
coedge $-1 $95 $96 $30 $56 reversed $97 $-1 #
edge $-1 $98 3.5388358909926754e-015 $99 1.6709637479564594 $30 $100 forward 7 unknown #
coedge $-1 $101 $31 $102 $103 reversed $11 $-1 #
coedge $-1 $104 $105 $31 $59 reversed $106 $-1 #
edge $-1 $66 0 $107 3.0384455124293908 $31 $108 forward 7 unknown #
coedge $-1 $32 $109 $110 $111 reversed $11 $-1 #
coedge $-1 $112 $113 $32 $62 reversed $73 $-1 #
edge $-1 $114 0 $67 1.3704614844717782 $32 $115 forward 7 unknown #
coedge $-1 $116 $33 $113 $117 reversed $65 $-1 #
coedge $-1 $33 $116 $104 $118 forward $65 $-1 #
loop $-1 $-1 $33 $72 #
vertex $-1 $59 $119 #
vertex $-1 $62 $120 #
ellipse-curve $-1 4.3399999999999999 11.974937185533099 7.25 -1 0 0 0 0 0.25 1 I I #
ellipse-curve $-1 4.3399999999999999 7 7.75 1 0 0 0 0 -5.75 1 I I #
point $-1 4.3399999999999999 7 13.5 #
point $-1 4.3399999999999999 7 2 #
face $-1 $121 $65 $3 $-1 $122 reversed single #
loop $-1 $-1 $113 $41 #
cone-surface $-1 5.3399999999999999 7 7.75 1 0 0 0 0 -5.25 1 I I 0 1 5.25 forward I I I I #
coedge $-1 $123 $124 $125 $126 reversed $42 $-1 #
coedge $-1 $127 $127 $123 $128 reversed $44 $-1 #
coedge $-1 $45 $45 $46 $78 forward $23 $-1 #
edge $-1 $49 0 $79 3.1415926535897931 $46 $129 forward 7 unknown #
vertex $-1 $78 $130 #
straight-curve $-1 4.3399999999999999 7.0000000000000009 13.5 1 0 0 I I #
ellipse-curve $-1 5.3399999999999999 7 7.75 1 0 0 0 0 5.75 1 I I #
point $-1 5.3399999999999999 7 2 #
loop $-1 $-1 $131 $4 #
coedge $-1 $132 $133 $134 $135 reversed $51 $-1 #
coedge $-1 $136 $52 $137 $138 reversed $29 $-1 #
coedge $-1 $52 $139 $140 $141 reversed $29 $-1 #
coedge $-1 $142 $143 $52 $88 reversed $144 $-1 #
edge $-1 $145 3.538835890992578e-015 $146 1.6709637479564243 $52 $147 forward 7 unknown #
coedge $-1 $148 $53 $149 $150 forward $17 $-1 #
coedge $-1 $151 $152 $53 $91 forward $153 $-1 #
edge $-1 $154 0 $99 3.0384455124293908 $53 $155 forward 7 unknown #
coedge $-1 $54 $156 $157 $158 forward $17 $-1 #
coedge $-1 $159 $160 $54 $94 forward $42 $-1 #
edge $-1 $98 0 $161 1.3704614844717768 $54 $162 forward 7 unknown #
coedge $-1 $163 $55 $160 $164 reversed $97 $-1 #
coedge $-1 $55 $163 $151 $165 forward $97 $-1 #
loop $-1 $-1 $163 $166 #
vertex $-1 $94 $167 #
vertex $-1 $91 $168 #
ellipse-curve $-1 4.3399999999999999 6.5 2.7750628144669007 1 0 0 0 -0.025000000000001243 -0.2487468592766553 1 I I #
coedge $-1 $169 $57 $170 $171 reversed $11 $-1 #
coedge $-1 $172 $173 $57 $103 forward $174 $-1 #
edge $-1 $175 0 $107 1.3181160716528206 $57 $176 forward 7 unknown #
coedge $-1 $177 $58 $64 $118 reversed $106 $-1 #
coedge $-1 $58 $177 $172 $178 forward $106 $-1 #
loop $-1 $-1 $104 $179 #
vertex $-1 $103 $180 #
straight-curve $-1 4.3399999999999999 11.974937185533099 7.5 0 -1 0 I I #
coedge $-1 $60 $169 $181 $182 forward $11 $-1 #
coedge $-1 $183 $184 $60 $111 forward $185 $-1 #
edge $-1 $114 0 $186 1.6709637479564543 $60 $187 forward 7 unknown #
coedge $-1 $188 $61 $184 $189 reversed $73 $-1 #
coedge $-1 $61 $190 $63 $117 forward $73 $-1 #
vertex $-1 $62 $191 #
ellipse-curve $-1 4.3399999999999999 7.0000000000000036 7.7499999999999973 1 0 0 0 0.52499999999999591 -5.2236840448097519 1 I I #
coedge $-1 $64 $63 $192 $193 reversed $65 $-1 #
edge $-1 $194 0 $67 0.25 $113 $195 forward 7 unknown #
edge $-1 $196 0 $66 0.25 $104 $197 forward 7 unknown #
point $-1 4.3399999999999999 11.974937185533099 7.5 #
point $-1 4.3399999999999999 12.223684044809755 7.2249999999999996 #
face $-1 $198 $199 $3 $-1 $200 forward single #
cone-surface $-1 4.5899999999999999 11.974937185533099 7.25 -1 0 0 0 1.7763568394002505e-015 0.25 1 I I 0 1 0.25 forward I I I I #
coedge $-1 $201 $75 $76 $128 forward $42 $-1 #
coedge $-1 $75 $202 $203 $204 reversed $42 $-1 #
coedge $-1 $205 $206 $75 $126 forward $73 $-1 #
edge $-1 $207 0 $208 0.75 $125 $209 forward 7 unknown #
coedge $-1 $76 $76 $206 $210 reversed $44 $-1 #
edge $-1 $207 0 $211 3.1415926535897931 $123 $212 forward 7 unknown #
ellipse-curve $-1 5.3399999999999999 7 7.75 1 0 0 0 0 -5.75 1 I I #
point $-1 5.3399999999999999 7 13.5 #
coedge $-1 $213 $213 $214 $215 reversed $83 $-1 #
coedge $-1 $216 $84 $217 $218 forward $51 $-1 #
coedge $-1 $84 $219 $220 $221 forward $51 $-1 #
coedge $-1 $222 $223 $84 $135 forward $224 $-1 #
edge $-1 $225 0 $226 1.6709637479564527 $84 $227 forward 7 unknown #
coedge $-1 $228 $85 $229 $230 forward $29 $-1 #
coedge $-1 $231 $232 $85 $138 forward $233 $-1 #
edge $-1 $234 0 $146 3.038445512429389 $85 $235 forward 7 unknown #
coedge $-1 $86 $236 $237 $238 forward $29 $-1 #
coedge $-1 $239 $240 $86 $141 forward $73 $-1 #
edge $-1 $145 0 $241 1.3704614844717786 $86 $242 forward 7 unknown #
coedge $-1 $243 $87 $240 $244 reversed $144 $-1 #
coedge $-1 $87 $243 $231 $245 forward $144 $-1 #
loop $-1 $-1 $243 $246 #
vertex $-1 $141 $247 #
vertex $-1 $138 $248 #
ellipse-curve $-1 4.3399999999999999 7.5000000000000044 12.724937185533095 1 0 0 0 0.024999999999995914 0.24874685927665929 1 I I #
coedge $-1 $249 $89 $250 $251 forward $17 $-1 #
coedge $-1 $252 $253 $89 $150 reversed $254 $-1 #
edge $-1 $154 0 $255 1.3181160716528277 $89 $256 forward 7 unknown #
coedge $-1 $257 $90 $96 $165 reversed $153 $-1 #
coedge $-1 $90 $257 $252 $258 forward $153 $-1 #
loop $-1 $-1 $151 $259 #
vertex $-1 $150 $260 #
straight-curve $-1 4.3399999999999999 6.75 5.813508326896291 0 0 -1 I I #
coedge $-1 $92 $249 $261 $262 reversed $17 $-1 #
coedge $-1 $263 $264 $92 $158 reversed $265 $-1 #
edge $-1 $266 0 $161 1.6709637479564632 $92 $267 forward 7 unknown #
coedge $-1 $268 $93 $264 $269 reversed $42 $-1 #
coedge $-1 $93 $270 $95 $164 forward $42 $-1 #
vertex $-1 $94 $271 #
ellipse-curve $-1 4.3399999999999999 7 7.75 -1 0 0 0 -0.52500000000000036 -5.2236840448097546 1 I I #
coedge $-1 $96 $95 $272 $273 forward $97 $-1 #
edge $-1 $274 0 $98 0.25 $160 $275 forward 7 unknown #
edge $-1 $276 0 $99 0.25 $151 $277 forward 7 unknown #
face $-1 $259 $97 $3 $-1 $278 reversed single #
point $-1 4.3399999999999999 6.4749999999999996 2.5263159551902454 #
point $-1 4.3399999999999999 6.75 2.7750628144669003 #
coedge $-1 $109 $101 $279 $280 reversed $11 $-1 #
coedge $-1 $281 $282 $101 $171 forward $283 $-1 #
edge $-1 $284 0 $175 1.0654358165107354 $101 $285 forward 7 unknown #
coedge $-1 $286 $102 $105 $178 reversed $174 $-1 #
coedge $-1 $102 $286 $281 $287 forward $174 $-1 #
loop $-1 $-1 $102 $288 #
vertex $-1 $171 $289 #
ellipse-curve $-1 4.3399999999999999 8.9364916731037081 7.2500000000000009 -1 0 0 0 -0.24206145913796284 0.062499999999999112 1 I I #
coedge $-1 $105 $104 $290 $291 forward $106 $-1 #
edge $-1 $292 0 $107 0.25 $105 $293 forward 7 unknown #
face $-1 $-1 $106 $3 $-1 $294 reversed single #
point $-1 4.3399999999999999 8.9364916731037081 7.5 #
coedge $-1 $295 $296 $109 $182 reversed $297 $-1 #
edge $-1 $298 0 $186 3.0384455124293908 $109 $299 forward 7 unknown #
coedge $-1 $300 $110 $296 $301 reversed $185 $-1 #
coedge $-1 $110 $300 $112 $189 forward $185 $-1 #
loop $-1 $-1 $110 $302 #
vertex $-1 $111 $303 #
ellipse-curve $-1 4.3399999999999999 7.5 2.7750628144669003 -1 0 0 0 0.024999999999999467 -0.24874685927665485 1 I I #
coedge $-1 $304 $112 $305 $306 reversed $73 $-1 #
edge $-1 $307 0 $114 0.25 $112 $308 forward 7 unknown #
coedge $-1 $113 $239 $309 $310 reversed $73 $-1 #
point $-1 4.3399999999999999 7.5249999999999995 2.5263159551902454 #
coedge $-1 $309 $290 $116 $193 forward $199 $-1 #
edge $-1 $196 0 $194 1.670963747956447 $192 $311 forward 7 unknown #
vertex $-1 $310 $312 #
straight-curve $-1 4.5899999999999999 12.223684044809755 7.2249999999999996 -1 0 0 I I #
vertex $-1 $193 $313 #
straight-curve $-1 4.5899999999999999 11.974937185533101 7.5 -1 -7.1054273576010019e-015 0 I I #
face $-1 $314 $315 $3 $-1 $316 reversed single #
loop $-1 $-1 $317 $121 #
plane-surface $-1 4.5899999999999999 0 0 1 0 0 0 0 -1 forward_v I I I I #
coedge $-1 $270 $123 $304 $318 forward $42 $-1 #
coedge $-1 $124 $220 $319 $320 reversed $42 $-1 #
coedge $-1 $321 $322 $124 $204 forward $323 $-1 #
edge $-1 $208 0 $324 0.10016742116154725 $203 $325 forward 7 unknown #
coedge $-1 $240 $125 $322 $326 reversed $73 $-1 #
coedge $-1 $125 $304 $127 $210 forward $73 $-1 #
vertex $-1 $126 $327 #
vertex $-1 $204 $328 #
straight-curve $-1 5.3399999999999999 7.0000000000000009 13 -1 0 0 I I #
edge $-1 $211 0 $207 3.1415926535897931 $206 $329 forward 7 unknown #
vertex $-1 $210 $330 #
ellipse-curve $-1 5.3399999999999999 7 7.75 1 0 0 0 0 5.25 1 I I #
coedge $-1 $131 $131 $331 $332 reversed $83 $-1 #
coedge $-1 $333 $334 $131 $215 forward $335 $-1 #
edge $-1 $336 0 $337 3.1415926535897931 $131 $338 forward 7 unknown #
coedge $-1 $339 $132 $340 $341 reversed $51 $-1 #
coedge $-1 $342 $343 $132 $218 reversed $344 $-1 #
edge $-1 $225 0 $345 3.0384455124293916 $132 $346 forward 7 unknown #
coedge $-1 $133 $347 $348 $349 reversed $51 $-1 #
coedge $-1 $202 $350 $133 $221 reversed $42 $-1 #
edge $-1 $351 0 $226 1.3704614844717784 $133 $352 forward 7 unknown #
coedge $-1 $353 $134 $350 $354 reversed $224 $-1 #
coedge $-1 $134 $353 $342 $355 forward $224 $-1 #
loop $-1 $-1 $134 $356 #
vertex $-1 $218 $357 #
vertex $-1 $221 $358 #
ellipse-curve $-1 4.3399999999999999 2.0250628144668998 8.25 -1 0 0 0 4.4408920985006262e-016 -0.25 1 I I #
coedge $-1 $359 $136 $360 $361 forward $29 $-1 #
coedge $-1 $362 $363 $136 $230 reversed $364 $-1 #
edge $-1 $234 -7.1054273576011281e-015 $365 1.318116071652838 $136 $366 forward 7 unknown #
coedge $-1 $367 $137 $143 $245 reversed $233 $-1 #
coedge $-1 $137 $367 $362 $368 forward $233 $-1 #
loop $-1 $-1 $231 $369 #
vertex $-1 $230 $370 #
straight-curve $-1 4.3399999999999999 7.25 9.6864916731037098 0 0 1 I I #
coedge $-1 $139 $359 $371 $372 reversed $29 $-1 #
coedge $-1 $373 $374 $139 $238 reversed $375 $-1 #
edge $-1 $376 0 $241 1.6709637479564357 $139 $377 forward 7 unknown #
coedge $-1 $190 $140 $374 $378 reversed $73 $-1 #
coedge $-1 $140 $205 $142 $244 forward $73 $-1 #
vertex $-1 $141 $379 #
ellipse-curve $-1 4.3399999999999999 7.0000000000000036 7.7500000000000036 -1 0 0 0 0.52499999999999591 5.223684044809751 1 I I #
coedge $-1 $143 $142 $380 $381 forward $144 $-1 #
edge $-1 $382 0 $145 0.25 $240 $383 forward 7 unknown #
edge $-1 $384 0 $146 0.25 $231 $385 forward 7 unknown #
face $-1 $386 $144 $3 $-1 $387 reversed single #
point $-1 4.3399999999999999 7.5249999999999995 12.973684044809755 #
point $-1 4.3399999999999999 7.25 12.724937185533099 #
coedge $-1 $156 $148 $388 $389 forward $17 $-1 #
coedge $-1 $390 $391 $148 $251 reversed $392 $-1 #
edge $-1 $255 4.7127834514700437e-016 $393 1.0654358165107383 $148 $394 forward 7 unknown #
coedge $-1 $395 $149 $152 $258 reversed $254 $-1 #
coedge $-1 $149 $395 $390 $396 forward $254 $-1 #
loop $-1 $-1 $395 $397 #
vertex $-1 $251 $398 #
ellipse-curve $-1 4.3399999999999999 6.5000000000000009 5.8135083268962919 1 0 0 0 0.24999999999999911 -8.8817841970012523e-016 1 I I #
coedge $-1 $152 $151 $399 $400 reversed $153 $-1 #
edge $-1 $401 0 $154 0.25 $152 $402 forward 7 unknown #
face $-1 $302 $153 $3 $-1 $403 forward single #
point $-1 4.3399999999999999 6.75 5.813508326896291 #
coedge $-1 $404 $405 $156 $262 forward $406 $-1 #
edge $-1 $266 0 $407 3.0384455124293903 $156 $408 forward 7 unknown #
coedge $-1 $409 $157 $405 $410 reversed $265 $-1 #
coedge $-1 $157 $409 $159 $269 forward $265 $-1 #
loop $-1 $-1 $409 $411 #
vertex $-1 $158 $412 #
ellipse-curve $-1 4.3399999999999999 2.0250628144669003 7.2500000000000009 1 0 0 0 4.4408920985006262e-016 0.24999999999999911 1 I I #
coedge $-1 $350 $159 $413 $414 reversed $42 $-1 #
edge $-1 $415 0 $161 0.25 $159 $416 forward 7 unknown #
coedge $-1 $160 $201 $417 $418 reversed $42 $-1 #
point $-1 4.3399999999999999 1.7763159551902457 7.2249999999999996 #
coedge $-1 $417 $399 $163 $273 reversed $419 $-1 #
edge $-1 $274 0 $276 1.6709637479564594 $272 $420 forward 7 unknown #
vertex $-1 $418 $421 #
straight-curve $-1 4.5899999999999999 6.4749999999999988 2.5263159551902454 -1 0 0 I I #
vertex $-1 $400 $422 #
straight-curve $-1 4.5899999999999999 6.75 2.7750628144669003 -1 0 0 I I #
cone-surface $-1 4.5899999999999999 6.5 2.7750628144669003 1 0 0 0 -0.025000000000001247 -0.24874685927665488 1 I I 0 1 0.25 forward I I I I #
coedge $-1 $423 $424 $169 $280 forward $425 $-1 #
edge $-1 $298 0 $284 1.3181160716528024 $169 $426 forward 7 unknown #
coedge $-1 $427 $170 $173 $287 reversed $283 $-1 #
coedge $-1 $170 $428 $423 $429 forward $283 $-1 #
loop $-1 $-1 $430 $431 #
vertex $-1 $280 $432 #
ellipse-curve $-1 4.3399999999999999 6.9999999999999947 7.7500000000000044 1 0 0 0 0.43750000000000533 -1.6944302139657497 1 I I #
coedge $-1 $173 $172 $433 $434 reversed $174 $-1 #
edge $-1 $435 0 $175 0.25 $281 $436 forward 7 unknown #
face $-1 $179 $174 $3 $-1 $437 reversed single #
point $-1 4.3399999999999999 8.6944302139657452 7.3125 #
coedge $-1 $192 $433 $177 $291 reversed $199 $-1 #
edge $-1 $196 -1.7763568394002505e-015 $292 3.0384455124293908 $290 $438 forward 7 unknown #
vertex $-1 $291 $439 #
straight-curve $-1 4.5899999999999999 8.9364916731037098 7.5 -1 0 0 I I #
plane-surface $-1 4.5899999999999999 12.244044240850759 7.5 0 0 1 0 -1 0 forward_v I I I I #
coedge $-1 $440 $181 $424 $441 reversed $297 $-1 #
coedge $-1 $181 $440 $183 $301 forward $297 $-1 #
loop $-1 $-1 $295 $442 #
vertex $-1 $182 $443 #
straight-curve $-1 4.3399999999999999 7.25 5.813508326896291 0 0 -1 I I #
coedge $-1 $184 $183 $444 $445 reversed $185 $-1 #
edge $-1 $446 0 $186 0.25 $296 $447 forward 7 unknown #
face $-1 $442 $185 $3 $-1 $448 reversed single #
point $-1 4.3399999999999999 7.25 2.7750628144669003 #
coedge $-1 $206 $188 $201 $318 reversed $73 $-1 #
coedge $-1 $444 $417 $188 $306 forward $419 $-1 #
edge $-1 $449 0 $307 0.10016742116156499 $305 $450 forward 7 unknown #
vertex $-1 $445 $451 #
straight-curve $-1 4.5899999999999999 7.5249999999999995 2.5263159551902454 -1 0 0 I I #
coedge $-1 $452 $192 $190 $310 forward $199 $-1 #
edge $-1 $194 0 $453 0.20033484232312926 $309 $454 forward 7 unknown #
ellipse-curve $-1 4.5899999999999999 11.974937185533099 7.2499999999999991 -1 0 0 0 1.7763568394002505e-015 0.25000000000000089 1 I I #
point $-1 4.5899999999999999 12.223684044809755 7.2249999999999996 #
point $-1 4.5899999999999999 11.974937185533101 7.5 #
face $-1 $455 $456 $3 $-1 $457 forward single #
loop $-1 $-1 $458 $198 #
cone-surface $-1 4.5899999999999999 8.9364916731037081 8.25 1 0 0 0 -0.24206145913796354 -0.0625 1 I I 0 1 0.24999999999999997 forward I I I I #
coedge $-1 $459 $460 $458 $461 reversed $199 $-1 #
edge $-1 $211 0 $449 0.75 $304 $462 forward 7 unknown #
coedge $-1 $348 $463 $202 $320 forward $464 $-1 #
edge $-1 $324 0 $351 0.25 $202 $465 forward 7 unknown #
coedge $-1 $466 $203 $463 $467 forward $323 $-1 #
coedge $-1 $203 $380 $205 $326 forward $323 $-1 #
loop $-1 $-1 $468 $469 #
vertex $-1 $467 $470 #
ellipse-curve $-1 4.5899999999999999 7.0000000000000346 7.7499999999993392 1 0 0 0 -3.4638958368304884e-014 5.2500000000006608 1 I I #
edge $-1 $382 -1.6112080175966622e-016 $208 0.10016742116156165 $322 $471 forward 7 unknown #
point $-1 5.3399999999999999 7 13 #
point $-1 4.5899999999999999 7 13 #
ellipse-curve $-1 5.3399999999999999 7 7.75 1 0 0 0 0 -5.25 1 I I #
point $-1 5.3399999999999999 7 2.5 #
coedge $-1 $472 $473 $213 $332 forward $474 $-1 #
edge $-1 $337 0 $336 3.1415926535897931 $213 $475 forward 7 unknown #
coedge $-1 $476 $214 $473 $477 reversed $335 $-1 #
coedge $-1 $214 $476 $472 $478 forward $335 $-1 #
loop $-1 $-1 $333 $479 #
vertex $-1 $332 $480 #
vertex $-1 $332 $481 #
ellipse-curve $-1 4.3399999999999999 7 7.75 -1 0 0 0 0.375 0 1 I I #
coedge $-1 $482 $216 $483 $484 reversed $51 $-1 #
coedge $-1 $485 $486 $216 $341 forward $487 $-1 #
edge $-1 $488 0 $345 1.3181160716528051 $216 $489 forward 7 unknown #
coedge $-1 $490 $217 $223 $355 reversed $344 $-1 #
coedge $-1 $217 $490 $485 $491 forward $344 $-1 #
loop $-1 $-1 $342 $492 #
vertex $-1 $341 $493 #
straight-curve $-1 4.3399999999999999 2.0250628144669003 8 0 1 0 I I #
coedge $-1 $219 $482 $494 $495 forward $51 $-1 #
coedge $-1 $496 $319 $219 $349 forward $464 $-1 #
edge $-1 $351 -3.538835890992623e-015 $497 1.6709637479564357 $219 $498 forward 7 unknown #
coedge $-1 $220 $268 $222 $354 forward $42 $-1 #
vertex $-1 $221 $499 #
ellipse-curve $-1 4.3399999999999999 6.9999999999999973 7.7500000000000036 1 0 0 0 -0.52499999999999769 5.223684044809751 1 I I #
coedge $-1 $223 $222 $500 $501 reversed $224 $-1 #
edge $-1 $502 0 $226 0.25 $350 $503 forward 7 unknown #
edge $-1 $504 7.8886090522101181e-031 $225 0.25 $342 $505 forward 7 unknown #
face $-1 $506 $224 $3 $-1 $507 reversed single #
point $-1 4.3399999999999999 2.0250628144669003 8 #
point $-1 4.3399999999999999 1.7763159551902454 8.2749999999999986 #
coedge $-1 $236 $228 $508 $509 forward $29 $-1 #
coedge $-1 $510 $511 $228 $361 reversed $283 $-1 #
edge $-1 $365 -2.5376526277146434e-016 $512 1.0654358165107405 $228 $513 forward 7 unknown #
coedge $-1 $514 $229 $232 $368 reversed $364 $-1 #
coedge $-1 $229 $514 $510 $515 forward $364 $-1 #
loop $-1 $-1 $514 $516 #
vertex $-1 $361 $517 #
ellipse-curve $-1 4.3399999999999999 7.4999999999999956 9.6864916731037063 1 0 0 0 -0.24999999999999556 1.7763568394002505e-015 1 I I #
coedge $-1 $232 $231 $518 $519 reversed $233 $-1 #
edge $-1 $520 0 $234 0.25 $232 $521 forward 7 unknown #
face $-1 $246 $233 $3 $-1 $522 forward single #
point $-1 4.3399999999999999 7.25 9.6864916731037098 #
coedge $-1 $523 $524 $236 $372 forward $456 $-1 #
edge $-1 $376 0 $525 3.0384455124293908 $236 $526 forward 7 unknown #
coedge $-1 $527 $237 $524 $528 reversed $375 $-1 #
coedge $-1 $237 $527 $239 $378 forward $375 $-1 #
loop $-1 $-1 $527 $455 #
vertex $-1 $238 $529 #
ellipse-curve $-1 4.3399999999999999 11.974937185533097 8.2500000000000018 1 0 0 0 1.7763568394002505e-015 -0.25000000000000178 1 I I #
edge $-1 $453 0 $241 0.25 $239 $530 forward 7 unknown #
point $-1 4.3399999999999999 12.223684044809755 8.2749999999999986 #
coedge $-1 $322 $518 $243 $381 reversed $323 $-1 #
edge $-1 $382 0 $384 1.6709637479564243 $380 $531 forward 7 unknown #
vertex $-1 $326 $532 #
straight-curve $-1 4.5899999999999999 7.5250000000000004 12.973684044809755 -1 0 0 I I #
vertex $-1 $381 $533 #
straight-curve $-1 4.5899999999999999 7.25 12.724937185533101 -1 0 0 I I #
face $-1 $492 $487 $3 $-1 $534 reversed single #
cone-surface $-1 4.5899999999999999 7.5 12.724937185533099 1 0 0 0 0.025000000000000275 0.24874685927665494 1 I I 0 1 0.24999999999999997 forward I I I I #
coedge $-1 $535 $536 $249 $389 reversed $537 $-1 #
edge $-1 $393 0 $407 1.318116071652812 $249 $538 forward 7 unknown #
coedge $-1 $539 $250 $253 $396 reversed $392 $-1 #
coedge $-1 $250 $540 $535 $541 forward $392 $-1 #
loop $-1 $-1 $542 $543 #
vertex $-1 $389 $544 #
ellipse-curve $-1 4.3399999999999999 7.0000000000000018 7.7500000000000009 -1 0 0 0 -0.43750000000000178 -1.6944302139657461 1 I I #
coedge $-1 $253 $252 $545 $546 forward $254 $-1 #
edge $-1 $547 0 $255 0.25 $390 $548 forward 7 unknown #
face $-1 $549 $254 $3 $-1 $550 reversed single #
point $-1 4.3399999999999999 6.5624999999999991 6.0555697860342548 #
coedge $-1 $272 $545 $257 $400 forward $419 $-1 #
edge $-1 $401 0 $276 3.0384455124293908 $399 $551 forward 7 unknown #
vertex $-1 $400 $552 #
straight-curve $-1 4.5899999999999999 6.75 5.813508326896291 -1 0 0 I I #
plane-surface $-1 4.5899999999999999 6.75 6.0179491924311233 0 -1 0 0 0 -1 forward_v I I I I #
coedge $-1 $553 $261 $536 $554 reversed $406 $-1 #
coedge $-1 $261 $553 $263 $410 forward $406 $-1 #
loop $-1 $-1 $404 $555 #
vertex $-1 $262 $556 #
straight-curve $-1 4.3399999999999999 2.0250628144669007 7.5 0 1 0 I I #
coedge $-1 $264 $263 $557 $558 forward $265 $-1 #
edge $-1 $559 0 $266 0.25 $405 $560 forward 7 unknown #
face $-1 $555 $265 $3 $-1 $561 reversed single #
point $-1 4.3399999999999999 2.0250628144669007 7.5 #
coedge $-1 $557 $500 $268 $414 forward $562 $-1 #
edge $-1 $502 0 $415 0.20033484232312043 $413 $563 forward 7 unknown #
vertex $-1 $558 $564 #
straight-curve $-1 4.5899999999999999 1.7763159551902457 7.2250000000000014 -1 0 0 I I #
coedge $-1 $305 $272 $270 $418 forward $419 $-1 #
edge $-1 $274 -1.611208017596461e-016 $449 0.10016742116155557 $417 $565 forward 7 unknown #
loop $-1 $-1 $272 $549 #
ellipse-curve $-1 4.5899999999999999 6.5 2.7750628144669007 1 0 0 0 -0.025000000000001243 -0.2487468592766553 1 I I #
point $-1 4.5899999999999999 6.4749999999999988 2.5263159551902454 #
point $-1 4.5899999999999999 6.75 2.7750628144669003 #
coedge $-1 $566 $279 $282 $429 reversed $425 $-1 #
coedge $-1 $279 $566 $295 $441 forward $425 $-1 #
loop $-1 $-1 $279 $567 #
ellipse-curve $-1 4.3399999999999999 7.5000000000000027 5.8135083268962893 -1 0 0 0 -0.25000000000000266 1.7763568394002505e-015 1 I I #
coedge $-1 $511 $281 $459 $568 reversed $283 $-1 #
coedge $-1 $282 $430 $569 $570 reversed $283 $-1 #
edge $-1 $571 0 $284 0.25 $282 $572 forward 7 unknown #
coedge $-1 $428 $573 $574 $575 forward $283 $-1 #
face $-1 $543 $283 $3 $-1 $576 forward single #
point $-1 4.3399999999999999 7.4375 6.0555697860342548 #
coedge $-1 $290 $459 $286 $434 forward $199 $-1 #
edge $-1 $435 0 $292 1.3181160716528206 $433 $577 forward 7 unknown #
vertex $-1 $434 $578 #
straight-curve $-1 4.5899999999999999 8.6944302139657452 7.3125 -1 0 0 I I #
cone-surface $-1 4.5899999999999999 8.9364916731037081 7.25 -1 0 0 0 -0.24206145913796354 0.0625 1 I I 0 1 0.24999999999999997 forward I I I I #
straight-curve $-1 4.5899999999999999 11.974937185533099 7.5 0 -1 0 I I #
point $-1 4.5899999999999999 8.9364916731037081 7.5 #
coedge $-1 $296 $295 $579 $580 forward $297 $-1 #
edge $-1 $581 0 $298 0.25 $295 $582 forward 7 unknown #
face $-1 $567 $297 $3 $-1 $583 reversed single #
point $-1 4.3399999999999999 7.25 5.813508326896291 #
coedge $-1 $579 $305 $300 $445 forward $419 $-1 #
edge $-1 $307 0 $446 1.6709637479564543 $444 $584 forward 7 unknown #
vertex $-1 $580 $585 #
straight-curve $-1 4.5899999999999999 7.25 2.7750628144669003 -1 0 0 I I #
cone-surface $-1 4.5899999999999999 7.5 2.7750628144669003 -1 0 0 0 0.024999999999999488 -0.24874685927665505 1 I I 0 1 0.25 forward I I I I #
vertex $-1 $306 $586 #
ellipse-curve $-1 4.5899999999999999 7.0000000000000115 7.7499999999997229 1 0 0 0 -1.1546319456101628e-014 -5.2499999999997229 1 I I #
point $-1 4.5899999999999999 7.5249999999999995 2.5263159551902454 #
coedge $-1 $460 $309 $527 $587 reversed $199 $-1 #
vertex $-1 $587 $588 #
ellipse-curve $-1 4.5899999999999999 7.0000000000002593 7.7499999999999991 1 0 0 0 5.2236840448094952 -0.52499999999999947 1 I I #
face $-1 $431 $375 $3 $-1 $589 reversed single #
loop $-1 $-1 $523 $314 #
plane-surface $-1 4.5899999999999999 12.244044240850759 8 0 0 1 0 -1 0 forward_v I I I I #
coedge $-1 $590 $591 $317 $461 forward $315 $-1 #
coedge $-1 $433 $317 $427 $568 forward $199 $-1 #
coedge $-1 $317 $452 $592 $593 forward $199 $-1 #
edge $-1 $594 0 $595 1.3181160716528104 $317 $596 forward 7 unknown #
straight-curve $-1 5.3399999999999999 7 2.5 -1 0 0 I I #
coedge $-1 $319 $496 $321 $467 reversed $464 $-1 #
loop $-1 $-1 $348 $597 #
straight-curve $-1 4.5899999999999999 6.4750000000000005 12.973684044809755 -1 0 0 I I #
coedge $-1 $468 $321 $598 $599 reversed $323 $-1 #
edge $-1 $324 -3.538835890992623e-015 $600 1.6709637479564357 $321 $601 forward 7 unknown #
coedge $-1 $602 $466 $603 $604 forward $323 $-1 #
face $-1 $605 $323 $3 $-1 $606 forward single #
point $-1 4.5899999999999999 6.4749999999999996 12.973684044809755 #
ellipse-curve $-1 4.5899999999999999 7.0000000000000027 7.750000000000103 1 0 0 0 0.5249999999999968 5.2236840448096515 1 I I #
coedge $-1 $607 $331 $334 $478 reversed $474 $-1 #
coedge $-1 $331 $607 $333 $477 forward $474 $-1 #
loop $-1 $-1 $472 $608 #
ellipse-curve $-1 4.3399999999999999 7 7.75 -1 0 0 0 -0.375 0 1 I I #
coedge $-1 $334 $333 $609 $610 reversed $335 $-1 #
edge $-1 $611 0 $337 0.5 $473 $612 forward 7 unknown #
edge $-1 $613 0 $336 0.5 $472 $614 forward 7 unknown #
face $-1 $608 $335 $3 $-1 $615 reversed single #
point $-1 4.3399999999999999 7.375 7.75 #
point $-1 4.3399999999999999 6.625 7.75 #
coedge $-1 $347 $339 $616 $617 reversed $51 $-1 #
coedge $-1 $618 $619 $339 $484 forward $392 $-1 #
edge $-1 $620 0 $488 1.0654358165107427 $339 $621 forward 7 unknown #
coedge $-1 $622 $340 $343 $491 reversed $487 $-1 #
coedge $-1 $340 $622 $618 $623 forward $487 $-1 #
loop $-1 $-1 $340 $386 #
vertex $-1 $484 $624 #
ellipse-curve $-1 4.3399999999999999 5.0635083268962902 8.2500000000000018 -1 0 0 0 0.24206145913796462 -0.062500000000001776 1 I I #
coedge $-1 $343 $342 $625 $626 forward $344 $-1 #
edge $-1 $627 0 $345 0.25 $343 $628 forward 7 unknown #
face $-1 $356 $344 $3 $-1 $629 reversed single #
point $-1 4.3399999999999999 5.0635083268962919 8 #
coedge $-1 $630 $631 $347 $495 reversed $632 $-1 #
edge $-1 $633 0 $497 3.0384455124293908 $347 $634 forward 7 unknown #
coedge $-1 $463 $348 $631 $635 reversed $464 $-1 #
vertex $-1 $349 $636 #
ellipse-curve $-1 4.3399999999999999 6.4999999999999973 12.724937185533097 -1 0 0 0 -0.024999999999996803 0.24874685927665752 1 I I #
point $-1 4.3399999999999999 6.4749999999999996 12.973684044809755 #
coedge $-1 $413 $625 $353 $501 forward $562 $-1 #
edge $-1 $504 1.7763568394002505e-015 $502 1.6709637479564505 $500 $637 forward 7 unknown #
vertex $-1 $414 $638 #
straight-curve $-1 4.5899999999999999 1.7763159551902454 8.2750000000000004 -1 0 0 I I #
vertex $-1 $626 $639 #
straight-curve $-1 4.5899999999999999 2.0250628144669007 8 -1 -1.7763568394002505e-015 0 I I #
face $-1 $411 $562 $3 $-1 $640 forward single #
cone-surface $-1 4.5899999999999999 2.0250628144669003 8.25 -1 0 0 0 4.4408920985006262e-016 -0.25 1 I I 0 1 0.25 forward I I I I #
coedge $-1 $591 $590 $359 $509 reversed $315 $-1 #
edge $-1 $512 0 $525 1.3181160716528104 $359 $641 forward 7 unknown #
coedge $-1 $642 $360 $363 $515 reversed $283 $-1 #
coedge $-1 $360 $427 $591 $643 forward $283 $-1 #
vertex $-1 $509 $644 #
ellipse-curve $-1 4.3399999999999999 7.0000000000000018 7.7500000000000009 -1 0 0 0 0.43749999999999822 1.6944302139657443 1 I I #
coedge $-1 $363 $362 $645 $646 forward $364 $-1 #
edge $-1 $647 0 $365 0.25 $510 $648 forward 7 unknown #
face $-1 $369 $364 $3 $-1 $649 reversed single #
point $-1 4.3399999999999999 7.4375 9.444430213965747 #
coedge $-1 $380 $645 $367 $519 forward $323 $-1 #
edge $-1 $520 -1.7763568394002505e-015 $384 3.038445512429389 $518 $650 forward 7 unknown #
vertex $-1 $519 $651 #
straight-curve $-1 4.5899999999999999 7.25 9.6864916731037081 -1 0 0 I I #
plane-surface $-1 4.5899999999999999 7.25 9.4820508075688767 0 1 0 0 0 1 forward_v I I I I #
coedge $-1 $592 $371 $590 $652 reversed $456 $-1 #
coedge $-1 $371 $592 $373 $528 forward $456 $-1 #
vertex $-1 $372 $653 #
straight-curve $-1 4.3399999999999999 11.974937185533099 8 0 -1 0 I I #
coedge $-1 $374 $373 $452 $587 forward $375 $-1 #
edge $-1 $654 0 $376 0.25 $524 $655 forward 7 unknown #
point $-1 4.3399999999999999 11.974937185533099 8 #
straight-curve $-1 4.5899999999999999 12.223684044809755 8.2750000000000004 -1 0 0 I I #
ellipse-curve $-1 4.5899999999999999 7.5000000000000044 12.724937185533095 1 0 0 0 0.024999999999995914 0.24874685927665929 1 I I #
point $-1 4.5899999999999999 7.5250000000000004 12.973684044809755 #
point $-1 4.5899999999999999 7.25 12.724937185533099 #
cone-surface $-1 4.5899999999999999 5.063508326896291 8.25 -1 0 0 0 0.24206145913796359 -0.0625 1 I I 0 1 0.25000000000000006 forward I I I I #
coedge $-1 $656 $388 $391 $541 reversed $537 $-1 #
coedge $-1 $388 $656 $404 $554 forward $537 $-1 #
loop $-1 $-1 $656 $657 #
ellipse-curve $-1 4.3399999999999999 5.0635083268962902 7.2499999999999991 1 0 0 0 0.24206145913796462 0.062500000000000888 1 I I #
coedge $-1 $574 $390 $658 $659 reversed $392 $-1 #
coedge $-1 $391 $618 $660 $661 reversed $392 $-1 #
edge $-1 $662 0 $393 0.25 $391 $663 forward 7 unknown #
coedge $-1 $664 $665 $666 $667 forward $392 $-1 #
face $-1 $469 $392 $3 $-1 $668 forward single #
point $-1 4.3399999999999999 5.3055697860342548 7.3125 #
coedge $-1 $399 $658 $395 $546 reversed $419 $-1 #
edge $-1 $401 0 $547 1.3181160716528173 $545 $669 forward 7 unknown #
vertex $-1 $546 $670 #
straight-curve $-1 4.5899999999999999 6.5625000000000009 6.0555697860342548 -1 -7.1054273576010019e-015 0 I I #
face $-1 $166 $419 $3 $-1 $671 forward single #
cone-surface $-1 4.5899999999999999 6.5 5.813508326896291 1 0 0 0 0.25 0 1 I I 0 1 0.25 forward I I I I #
straight-curve $-1 4.5899999999999999 6.75 5.813508326896291 0 0 -1 I I #
point $-1 4.5899999999999999 6.75 5.813508326896291 #
coedge $-1 $405 $404 $672 $673 reversed $406 $-1 #
edge $-1 $674 0 $407 0.25 $404 $675 forward 7 unknown #
face $-1 $657 $406 $3 $-1 $676 forward single #
point $-1 4.3399999999999999 5.063508326896291 7.5 #
coedge $-1 $672 $413 $409 $558 reversed $562 $-1 #
edge $-1 $559 0 $415 1.6709637479564563 $557 $677 forward 7 unknown #
vertex $-1 $673 $678 #
straight-curve $-1 4.5899999999999999 2.0250628144669007 7.5 -1 0 0 I I #
cone-surface $-1 4.5899999999999999 2.0250628144669007 7.25 1 0 0 0 0 0.25 1 I I 0 1 0.25 forward I I I I #
loop $-1 $-1 $500 $506 #
ellipse-curve $-1 4.5899999999999999 6.9999999999999636 7.75 1 0 0 0 -5.2236840448097182 0.52499999999999858 1 I I #
point $-1 4.5899999999999999 1.7763159551902457 7.2250000000000014 #
ellipse-curve $-1 4.5899999999999999 7.0000000000000133 7.7500000000002247 1 0 0 0 -0.52500000000001368 -5.2236840448099793 1 I I #
coedge $-1 $424 $423 $679 $680 reversed $425 $-1 #
face $-1 $681 $425 $3 $-1 $682 reversed single #
edge $-1 $594 0 $435 0.50536051028414863 $459 $683 forward 7 unknown #
coedge $-1 $658 $679 $428 $570 forward $419 $-1 #
edge $-1 $571 0 $684 0.25268025514207865 $569 $685 forward 7 unknown #
vertex $-1 $570 $686 #
straight-curve $-1 4.5899999999999999 7.4375 6.0555697860342548 -1 0 0 I I #
coedge $-1 $430 $666 $687 $688 reversed $283 $-1 #
coedge $-1 $665 $539 $430 $575 reversed $392 $-1 #
edge $-1 $689 0 $684 0.25 $574 $690 forward 7 unknown #
cone-surface $-1 5.3399999999999999 7 7.75 1 0 0 0 0 -1.75 1 I I 0 1 1.75 forward I I I I #
ellipse-curve $-1 4.5899999999999999 8.9364916731037081 7.2500000000000009 -1 0 0 0 -0.24206145913796284 0.062499999999999112 1 I I #
point $-1 4.5899999999999999 8.6944302139657452 7.3125 #
coedge $-1 $679 $444 $440 $580 reversed $419 $-1 #
edge $-1 $581 0 $446 3.0384455124293908 $579 $691 forward 7 unknown #
vertex $-1 $680 $692 #
straight-curve $-1 4.5899999999999999 7.25 5.813508326896291 -1 0 0 I I #
plane-surface $-1 4.5899999999999999 7.25 6.0179491924311233 0 -1 0 0 0 -1 forward_v I I I I #
ellipse-curve $-1 4.5899999999999999 7.5 2.7750628144669003 -1 0 0 0 0.024999999999999467 -0.24874685927665485 1 I I #
point $-1 4.5899999999999999 7.25 2.7750628144669003 #
point $-1 4.5899999999999999 7 2.5 #
edge $-1 $654 0 $453 1.6709637479564357 $452 $693 forward 7 unknown #
point $-1 4.5899999999999999 12.223684044809755 8.2749999999999986 #
cone-surface $-1 4.5899999999999999 11.974937185533099 8.25 1 0 0 0 0 -0.25 1 I I 0 1 0.25 forward I I I I #
coedge $-1 $508 $458 $523 $652 forward $315 $-1 #
coedge $-1 $458 $508 $511 $643 reversed $315 $-1 #
coedge $-1 $524 $523 $460 $593 reversed $456 $-1 #
edge $-1 $654 0 $595 3.0384455124293908 $460 $694 forward 7 unknown #
vertex $-1 $568 $695 #
vertex $-1 $593 $696 #
ellipse-curve $-1 4.5899999999999999 8.9364916731037081 8.2500000000000018 1 0 0 0 -0.24206145913796284 -0.062500000000001776 1 I I #
face $-1 $516 $464 $3 $-1 $697 reversed single #
coedge $-1 $631 $630 $466 $599 forward $632 $-1 #
edge $-1 $698 0 $600 3.0384455124293908 $466 $699 forward 7 unknown #
vertex $-1 $599 $700 #
ellipse-curve $-1 4.5899999999999999 6.4999999999999973 12.724937185533097 -1 0 0 0 -0.024999999999996803 0.24874685927665752 1 I I #
coedge $-1 $701 $468 $664 $702 forward $323 $-1 #
coedge $-1 $703 $704 $468 $604 reversed $705 $-1 #
edge $-1 $698 0 $706 1.3181160716528364 $468 $707 forward 7 unknown #
face $-1 $708 $705 $3 $-1 $709 reversed single #
plane-surface $-1 4.5899999999999999 0 0 1 0 0 0 0 -1 forward_v I I I I #
coedge $-1 $473 $472 $710 $711 reversed $474 $-1 #
face $-1 $288 $474 $3 $-1 $712 reversed single #
coedge $-1 $710 $710 $476 $610 forward $713 $-1 #
edge $-1 $613 0 $611 3.1415926535897931 $609 $714 forward 7 unknown #
vertex $-1 $711 $715 #
straight-curve $-1 4.8399999999999999 6.625 7.75 -1 0 0 I I #
vertex $-1 $711 $716 #
straight-curve $-1 4.8399999999999999 7.375 7.75 -1 0 0 I I #
cone-surface $-1 4.8399999999999999 7 7.75 -1 0 0 0 -0.375 0 1 I I 0 1 0.375 forward I I I I #
coedge $-1 $704 $703 $482 $617 forward $705 $-1 #
edge $-1 $633 0 $620 1.3181160716528364 $482 $717 forward 7 unknown #
coedge $-1 $540 $483 $486 $623 reversed $392 $-1 #
coedge $-1 $483 $664 $704 $718 forward $392 $-1 #
vertex $-1 $617 $719 #
ellipse-curve $-1 4.3399999999999999 6.9999999999999956 7.7500000000000036 1 0 0 0 -0.43749999999999556 1.6944302139657417 1 I I #
coedge $-1 $486 $485 $720 $721 reversed $487 $-1 #
edge $-1 $722 0 $488 0.25 $618 $723 forward 7 unknown #
point $-1 4.3399999999999999 5.3055697860342548 8.1875 #
coedge $-1 $500 $720 $490 $626 reversed $562 $-1 #
edge $-1 $504 0 $627 3.0384455124293916 $625 $724 forward 7 unknown #
vertex $-1 $626 $725 #
straight-curve $-1 4.5899999999999999 5.063508326896291 8 -1 0 0 I I #
plane-surface $-1 4.5899999999999999 1.7559557591492414 8 0 0 -1 0 1 0 forward_v I I I I #
coedge $-1 $598 $494 $703 $726 reversed $632 $-1 #
coedge $-1 $494 $598 $496 $635 forward $632 $-1 #
loop $-1 $-1 $630 $708 #
vertex $-1 $495 $727 #
straight-curve $-1 4.3399999999999999 6.75 9.6864916731037081 0 0 1 I I #
edge $-1 $600 0 $497 0.25 $631 $728 forward 7 unknown #
point $-1 4.3399999999999999 6.75 12.724937185533099 #
ellipse-curve $-1 4.5899999999999999 2.0250628144669007 8.25 -1 0 0 0 0 -0.25 1 I I #
point $-1 4.5899999999999999 1.7763159551902454 8.2749999999999986 #
point $-1 4.5899999999999999 2.0250628144669003 8 #
plane-surface $-1 4.5899999999999999 0 0 1 0 0 0 0 -1 forward_v I I I I #
ellipse-curve $-1 4.3399999999999999 8.9364916731037081 8.2500000000000018 1 0 0 0 -0.24206145913796284 -0.062500000000001776 1 I I #
coedge $-1 $666 $510 $701 $729 reversed $283 $-1 #
edge $-1 $594 0 $512 0.25 $511 $730 forward 7 unknown #
point $-1 4.3399999999999999 8.6944302139657452 8.1875 #
coedge $-1 $518 $701 $514 $646 reversed $323 $-1 #
edge $-1 $520 0 $647 1.318116071652838 $645 $731 forward 7 unknown #
vertex $-1 $646 $732 #
straight-curve $-1 4.5899999999999999 7.4375 9.444430213965747 -1 0 0 I I #
cone-surface $-1 4.5899999999999999 7.5 9.6864916731037098 1 0 0 0 -0.25 -1.7763568394002505e-015 1 I I 0 1 0.25 forward I I I I #
straight-curve $-1 4.5899999999999999 7.25 9.6864916731037098 0 0 1 I I #
point $-1 4.5899999999999999 7.25 9.6864916731037081 #
edge $-1 $595 0 $525 0.25 $523 $733 forward 7 unknown #
point $-1 4.3399999999999999 8.9364916731037081 8 #
vertex $-1 $593 $734 #
straight-curve $-1 4.5899999999999999 11.974937185533099 8 -1 0 0 I I #
coedge $-1 $536 $535 $735 $736 forward $537 $-1 #
face $-1 $397 $537 $3 $-1 $737 reversed single #
coedge $-1 $545 $569 $539 $659 forward $419 $-1 #
edge $-1 $684 0 $547 0.25268025514207171 $658 $738 forward 7 unknown #
coedge $-1 $720 $735 $540 $661 forward $562 $-1 #
edge $-1 $662 0 $722 0.50536051028414863 $660 $739 forward 7 unknown #
vertex $-1 $661 $740 #
straight-curve $-1 4.5899999999999999 5.3055697860342548 7.3125 -1 0 0 I I #
coedge $-1 $619 $542 $602 $702 reversed $392 $-1 #
coedge $-1 $542 $574 $741 $742 reversed $392 $-1 #
coedge $-1 $573 $642 $542 $667 reversed $283 $-1 #
edge $-1 $743 0 $744 0.25 $542 $745 forward 7 unknown #
cone-surface $-1 5.3399999999999999 7 7.75 1 0 0 0 0 -1.75 1 I I 0 1 1.75 forward I I I I #
ellipse-curve $-1 4.5899999999999999 6.5 5.8135083268962919 1 0 0 0 0.25 -8.8817841970012523e-016 1 I I #
point $-1 4.5899999999999999 6.5625000000000009 6.0555697860342548 #
plane-surface $-1 4.5899999999999999 0 0 1 0 0 0 0 -1 forward_v I I I I #
coedge $-1 $735 $557 $553 $673 forward $562 $-1 #
edge $-1 $559 0 $674 3.0384455124293903 $672 $746 forward 7 unknown #
vertex $-1 $736 $747 #
straight-curve $-1 4.5899999999999999 5.063508326896291 7.5 -1 0 0 I I #
plane-surface $-1 4.5899999999999999 1.7559557591492414 7.5 0 0 -1 0 1 0 forward_v I I I I #
ellipse-curve $-1 4.5899999999999999 2.0250628144669003 7.2500000000000009 1 0 0 0 4.4408920985006262e-016 0.24999999999999911 1 I I #
point $-1 4.5899999999999999 2.0250628144669007 7.5 #
coedge $-1 $569 $579 $566 $680 forward $419 $-1 #
edge $-1 $581 0 $571 1.3181160716528024 $679 $748 forward 7 unknown #
face $-1 $479 $749 $3 $-1 $750 forward single #
cone-surface $-1 4.5899999999999999 7.5 5.813508326896291 -1 0 0 0 -0.25 0 1 I I 0 1 0.25 forward I I I I #
ellipse-curve $-1 4.5899999999999999 6.9999999999999698 7.75 -1 0 0 0 1.6944302139657754 0.4375 1 I I #
vertex $-1 $659 $751 #
ellipse-curve $-1 4.5899999999999999 7.0000000000000018 7.75 -1 0 0 0 0.43749999999999822 -1.6944302139657452 1 I I #
point $-1 4.5899999999999999 7.4375 6.0555697860342548 #
coedge $-1 $741 $741 $573 $688 forward $749 $-1 #
edge $-1 $689 0 $743 3.141592653589794 $573 $752 forward 7 unknown #
vertex $-1 $742 $753 #
straight-curve $-1 4.8399999999999999 7 6 -1 0 0 I I #
straight-curve $-1 4.5899999999999999 7.25 5.813508326896291 0 0 -1 I I #
point $-1 4.5899999999999999 7.25 5.813508326896291 #
ellipse-curve $-1 4.5899999999999999 11.974937185533097 8.2500000000000018 1 0 0 0 1.7763568394002505e-015 -0.25000000000000178 1 I I #
straight-curve $-1 4.5899999999999999 11.974937185533099 8 0 -1 0 I I #
point $-1 4.5899999999999999 8.6944302139657452 8.1875 #
point $-1 4.5899999999999999 8.9364916731037081 8 #
cone-surface $-1 4.5899999999999999 6.5 12.724937185533099 -1 0 0 0 -0.024999999999999398 0.24874685927665505 1 I I 0 1 0.25 forward I I I I #
vertex $-1 $599 $754 #
straight-curve $-1 4.5899999999999999 6.75 9.6864916731037081 0 0 1 I I #
point $-1 4.5899999999999999 6.75 12.724937185533099 #
coedge $-1 $645 $602 $642 $729 forward $323 $-1 #
edge $-1 $706 0 $744 0.25268025514207576 $602 $755 forward 7 unknown #
coedge $-1 $616 $603 $630 $726 forward $705 $-1 #
coedge $-1 $603 $616 $619 $718 reversed $705 $-1 #
loop $-1 $-1 $616 $605 #
vertex $-1 $702 $756 #
ellipse-curve $-1 4.5899999999999999 6.5000000000000036 9.6864916731037063 -1 0 0 0 0.24999999999999645 1.7763568394002505e-015 1 I I #
face $-1 $597 $632 $3 $-1 $757 reversed single #
cone-surface $-1 4.5899999999999999 6.5 9.6864916731037081 -1 0 0 0 0.25 0 1 I I 0 1 0.25 forward I I I I #
coedge $-1 $609 $609 $607 $711 forward $713 $-1 #
edge $-1 $611 0 $613 3.1415926535897931 $710 $758 forward 7 unknown #
cone-surface $-1 4.8399999999999999 7 7.75 -1 0 0 0 -0.375 0 1 I I 0 1 0.375 forward I I I I #
loop $-1 $-1 $609 $681 #
ellipse-curve $-1 4.8399999999999999 7 7.75 -1 0 0 0 0.375 0 1 I I #
point $-1 4.8399999999999999 6.625 7.75 #
point $-1 4.8399999999999999 7.375 7.75 #
ellipse-curve $-1 4.3399999999999999 6.5000000000000036 9.6864916731037063 -1 0 0 0 0.24999999999999645 1.7763568394002505e-015 1 I I #
edge $-1 $706 0 $620 0.25 $619 $759 forward 7 unknown #
point $-1 4.3399999999999999 6.5625 9.4444302139657452 #
coedge $-1 $625 $660 $622 $721 forward $562 $-1 #
edge $-1 $722 0 $627 1.3181160716527929 $720 $760 forward 7 unknown #
vertex $-1 $721 $761 #
straight-curve $-1 4.5899999999999999 5.3055697860342548 8.1875 -1 0 0 I I #
straight-curve $-1 4.5899999999999999 2.0250628144669003 8 0 1 0 I I #
point $-1 4.5899999999999999 5.0635083268962919 8 #
edge $-1 $698 0 $633 0.25 $630 $762 forward 7 unknown #
point $-1 4.3399999999999999 6.75 9.6864916731037081 #
straight-curve $-1 4.5899999999999999 6.75 12.724937185533099 -1 0 0 I I #
edge $-1 $744 0 $647 0.25268025514206216 $701 $763 forward 7 unknown #
straight-curve $-1 4.5899999999999999 8.6944302139657452 8.1875 -1 0 0 I I #
ellipse-curve $-1 4.5899999999999999 7.4999999999999956 9.6864916731037063 1 0 0 0 -0.24999999999999556 1.7763568394002505e-015 1 I I #
point $-1 4.5899999999999999 7.4375 9.444430213965747 #
straight-curve $-1 4.5899999999999999 8.9364916731037081 8 -1 0 0 I I #
point $-1 4.5899999999999999 11.974937185533099 8 #
coedge $-1 $660 $672 $656 $736 reversed $562 $-1 #
edge $-1 $662 0 $674 1.318116071652812 $735 $764 forward 7 unknown #
cone-surface $-1 4.5899999999999999 5.063508326896291 7.25 1 0 0 0 0.24206145913796359 0.0625 1 I I 0 1 0.25000000000000006 forward I I I I #
ellipse-curve $-1 4.5899999999999999 7.0000000000000044 7.7500000000000444 -1 0 0 0 -4.4408920985006262e-015 -1.7500000000000444 1 I I #
ellipse-curve $-1 4.5899999999999999 7.0000000000000302 7.75 -1 0 0 0 -1.6944302139657754 -0.4375 1 I I #
point $-1 4.5899999999999999 5.3055697860342548 7.3125 #
coedge $-1 $687 $687 $665 $742 forward $749 $-1 #
edge $-1 $743 0 $689 3.1415926535897931 $665 $765 forward 7 unknown #
vertex $-1 $742 $766 #
vertex $-1 $729 $767 #
straight-curve $-1 4.8399999999999999 7 9.5 -1 0 0 I I #
straight-curve $-1 4.5899999999999999 2.0250628144669007 7.5 0 1 0 I I #
point $-1 4.5899999999999999 5.063508326896291 7.5 #
ellipse-curve $-1 4.5899999999999999 7.5000000000000027 5.8135083268962893 -1 0 0 0 -0.25000000000000266 1.7763568394002505e-015 1 I I #
loop $-1 $713 $687 $681 #
plane-surface $-1 4.8399999999999999 0 0 1 0 0 0 0 -1 forward_v I I I I #
point $-1 4.5899999999999999 7 6 #
ellipse-curve $-1 4.8399999999999999 7.0000000000000009 7.75 1 0 0 0 -8.8817841970012523e-016 -1.75 1 I I #
point $-1 4.8399999999999999 7 6 #
point $-1 4.5899999999999999 6.75 9.6864916731037081 #
ellipse-curve $-1 4.5899999999999999 7.0000000000000009 7.7499999999999805 -1 0 0 0 -0.43750000000000089 1.6944302139657648 1 I I #
point $-1 4.5899999999999999 6.5625 9.4444302139657452 #
plane-surface $-1 4.5899999999999999 6.75 9.4820508075688767 0 1 0 0 0 1 forward_v I I I I #
ellipse-curve $-1 4.8399999999999999 7 7.75 -1 0 0 0 -0.375 0 1 I I #
straight-curve $-1 4.5899999999999999 6.5625 9.4444302139657452 -1 0 0 I I #
ellipse-curve $-1 4.5899999999999999 5.0635083268962884 8.2500000000000036 -1 0 0 0 0.24206145913796639 -0.062500000000003553 1 I I #
point $-1 4.5899999999999999 5.3055697860342548 8.1875 #
straight-curve $-1 4.5899999999999999 6.75 9.6864916731037081 -1 0 0 I I #
ellipse-curve $-1 4.5899999999999999 6.9999999999999876 7.7499999999998881 -1 0 0 0 1.2434497875801753e-014 1.7500000000001119 1 I I #
ellipse-curve $-1 4.5899999999999999 5.0635083268962902 7.2499999999999991 1 0 0 0 0.24206145913796462 0.062500000000000888 1 I I #
ellipse-curve $-1 4.8399999999999999 7 7.75 1 0 0 0 0 1.75 1 I I #
point $-1 4.8399999999999999 7 9.5 #
point $-1 4.5899999999999999 7 9.5 #
End-of-ACIS-data 