600 0 1 0           
105 GICL Pro/E ACIS Translator - Source: f:/data5/repository/PTC/V18/web_pub18/web_pub_models/motor.prt - 6 0 13 ACIS 6.0.3 NT 24 Thu Apr 04 09:56:03 2002 
1 9.9999999999999995e-007 1e-010 
body $-1 $1 $-1 $2 #
lump $-1 $-1 $3 $0 #
transform $-1 1 0 0 0 1 0 0 0 1 0 0 0 25.399999999999999 no_rotate no_reflect no_shear #
shell $-1 $-1 $-1 $4 $-1 $1 #
face $-1 $5 $6 $3 $-1 $7 forward single #
face $-1 $8 $9 $3 $-1 $10 reversed single #
loop $-1 $11 $12 $4 #
plane-surface $-1 13.299999999999999 0 0 1 0 0 0 0 -1 forward_v I I I I #
face $-1 $13 $14 $3 $-1 $15 reversed single #
loop $-1 $-1 $16 $5 #
plane-surface $-1 13.299999999999999 5.5511112605663975 7.3617714323462184 0 -0.25881904510252174 0.96592582628906809 0 -0.96592582628906787 -0.25881904510252168 forward_v I I I I #
loop $-1 $17 $18 $4 #
coedge $-1 $19 $20 $21 $22 reversed $6 $-1 #
face $-1 $23 $24 $3 $-1 $25 reversed single #
loop $-1 $-1 $26 $8 #
cone-surface $-1 13.299999999999999 7 7.75 1 0 0 0 -2.5 0 1 I I 0 1 2.5 forward I I I I #
coedge $-1 $27 $21 $28 $29 forward $9 $-1 #
loop $-1 $30 $31 $4 #
coedge $-1 $32 $33 $34 $35 reversed $11 $-1 #
coedge $-1 $36 $12 $37 $38 forward $6 $-1 #
coedge $-1 $12 $36 $39 $40 reversed $6 $-1 #
coedge $-1 $16 $41 $12 $22 forward $9 $-1 #
edge $-1 $42 0 $43 0.99999999999999889 $12 $44 forward 7 unknown #
face $-1 $45 $46 $3 $-1 $47 forward single #
loop $-1 $-1 $48 $13 #
plane-surface $-1 13.299999999999999 6.3529523872436986 5.3351854342773297 0 0.96592582628906831 -0.25881904510252091 0 0.25881904510252085 0.96592582628906809 forward_v I I I I #
coedge $-1 $49 $39 $50 $51 forward $14 $-1 #
coedge $-1 $41 $16 $52 $53 reversed $9 $-1 #
coedge $-1 $39 $49 $16 $29 reversed $14 $-1 #
edge $-1 $43 0 $54 0.5 $28 $55 forward 7 unknown #
loop $-1 $56 $57 $4 #
coedge $-1 $58 $59 $60 $61 reversed $17 $-1 #
coedge $-1 $62 $18 $63 $64 forward $11 $-1 #
coedge $-1 $18 $62 $65 $66 reversed $11 $-1 #
coedge $-1 $67 $68 $18 $35 forward $69 $-1 #
edge $-1 $70 0 $71 0.99999999999999811 $18 $72 forward 7 unknown #
coedge $-1 $20 $19 $73 $74 reversed $6 $-1 #
coedge $-1 $75 $76 $19 $38 reversed $46 $-1 #
edge $-1 $42 0 $77 1.0471975511965979 $19 $78 forward 7 unknown #
coedge $-1 $26 $28 $20 $40 forward $14 $-1 #
edge $-1 $43 0 $79 1.0471975511965972 $20 $80 forward 7 unknown #
coedge $-1 $21 $27 $75 $81 reversed $9 $-1 #
vertex $-1 $38 $82 #
vertex $-1 $40 $83 #
straight-curve $-1 13.299999999999999 5.5511112605663975 7.3617714323462184 0 -0.96592582628906798 -0.25881904510252191 I I #
face $-1 $84 $85 $3 $-1 $86 forward single #
loop $-1 $-1 $75 $23 #
cone-surface $-1 13.299999999999999 7 7.75 1 0 0 0 -1.5 0 1 I I 0 1 1.5 forward I I I I #
coedge $-1 $87 $73 $76 $88 forward $24 $-1 #
coedge $-1 $28 $26 $89 $90 reversed $14 $-1 #
coedge $-1 $73 $87 $26 $51 reversed $24 $-1 #
edge $-1 $79 0 $91 0.5 $26 $92 forward 7 unknown #
coedge $-1 $89 $93 $27 $53 forward $85 $-1 #
edge $-1 $94 0 $54 0.99999999999999978 $52 $95 forward 7 unknown #
vertex $-1 $90 $96 #
straight-curve $-1 13.299999999999999 4.5851854342773297 7.1029523872436968 -1 0 0 I I #
loop $-1 $97 $98 $4 #
coedge $-1 $99 $99 $100 $101 reversed $30 $-1 #
coedge $-1 $102 $31 $103 $104 forward $17 $-1 #
coedge $-1 $31 $102 $105 $106 reversed $17 $-1 #
coedge $-1 $107 $108 $31 $61 forward $109 $-1 #
edge $-1 $110 0 $111 0.99999999999999978 $31 $112 forward 7 unknown #
coedge $-1 $33 $32 $113 $114 reversed $11 $-1 #
coedge $-1 $115 $116 $32 $64 reversed $117 $-1 #
edge $-1 $70 0 $118 1.0471975511965985 $32 $119 forward 7 unknown #
coedge $-1 $120 $121 $33 $66 forward $122 $-1 #
edge $-1 $71 0 $123 1.0471975511965972 $33 $124 forward 7 unknown #
coedge $-1 $125 $34 $121 $126 forward $69 $-1 #
coedge $-1 $34 $125 $115 $127 reversed $69 $-1 #
loop $-1 $-1 $67 $128 #
vertex $-1 $64 $129 #
vertex $-1 $66 $130 #
straight-curve $-1 13.299999999999999 6.6117714323462184 9.1988887394336025 0 -0.25881904510252213 0.96592582628906787 I I #
coedge $-1 $48 $50 $36 $74 forward $24 $-1 #
edge $-1 $79 0 $77 0.99999999999999956 $36 $131 forward 7 unknown #
coedge $-1 $132 $37 $41 $81 forward $46 $-1 #
coedge $-1 $37 $132 $48 $88 reversed $46 $-1 #
vertex $-1 $74 $133 #
ellipse-curve $-1 13.299999999999999 7 7.75 1 0 0 0 -1.4488887394336025 -0.38822856765378155 1 I I #
vertex $-1 $40 $134 #
ellipse-curve $-1 13.299999999999999 7 7.75 1 0 0 0 -2.4148145657226694 -0.64704761275630318 1 I I #
edge $-1 $42 0 $94 0.5 $75 $135 forward 7 unknown #
point $-1 13.299999999999999 5.5511112605663975 7.3617714323462184 #
point $-1 13.299999999999999 4.5851854342773306 7.1029523872436968 #
face $-1 $136 $137 $3 $-1 $138 forward single #
loop $-1 $139 $140 $45 #
plane-surface $-1 12.799999999999999 -0.75 14.75 1 0 0 0 -1 0 forward_v I I I I #
coedge $-1 $50 $48 $140 $141 reversed $24 $-1 #
edge $-1 $77 0 $142 0.5 $48 $143 forward 7 unknown #
coedge $-1 $140 $52 $49 $90 forward $85 $-1 #
edge $-1 $54 0 $91 1.0471975511965965 $89 $144 forward 7 unknown #
vertex $-1 $90 $145 #
straight-curve $-1 13.299999999999999 6.3529523872436986 5.3351854342773297 -1 0 0 I I #
coedge $-1 $52 $140 $132 $146 forward $85 $-1 #
vertex $-1 $53 $147 #
straight-curve $-1 12.799999999999999 5.5511112605663975 7.3617714323462184 0 -0.96592582628906809 -0.25881904510252174 I I #
point $-1 12.799999999999999 4.5851854342773297 7.1029523872436968 #
loop $-1 $-1 $148 $4 #
coedge $-1 $149 $149 $150 $151 reversed $56 $-1 #
coedge $-1 $57 $57 $152 $153 reversed $30 $-1 #
coedge $-1 $154 $155 $57 $101 forward $156 $-1 #
edge $-1 $157 0 $158 3.1415926535897931 $57 $159 forward 7 unknown #
coedge $-1 $59 $58 $160 $161 reversed $17 $-1 #
coedge $-1 $162 $163 $58 $104 reversed $164 $-1 #
edge $-1 $110 0 $165 1.0471975511965981 $58 $166 forward 7 unknown #
coedge $-1 $167 $168 $59 $106 forward $169 $-1 #
edge $-1 $111 0 $170 1.047197551196597 $59 $171 forward 7 unknown #
coedge $-1 $172 $60 $168 $173 forward $109 $-1 #
coedge $-1 $60 $172 $162 $174 reversed $109 $-1 #
loop $-1 $-1 $107 $175 #
vertex $-1 $104 $176 #
vertex $-1 $106 $177 #
straight-curve $-1 13.299999999999999 8.4488887394336043 8.1382285676537798 0 0.96592582628906809 0.25881904510252174 I I #
coedge $-1 $178 $179 $62 $114 forward $180 $-1 #
edge $-1 $123 0 $118 0.99999999999999978 $62 $181 forward 7 unknown #
coedge $-1 $182 $63 $68 $127 forward $117 $-1 #
coedge $-1 $63 $182 $178 $183 reversed $117 $-1 #
loop $-1 $-1 $115 $184 #
vertex $-1 $114 $185 #
ellipse-curve $-1 13.299999999999999 7 7.75 1 0 0 0 -0.38822856765378155 1.4488887394336025 1 I I #
coedge $-1 $186 $65 $179 $187 forward $122 $-1 #
coedge $-1 $65 $186 $67 $126 reversed $122 $-1 #
loop $-1 $-1 $120 $188 #
vertex $-1 $66 $189 #
ellipse-curve $-1 13.299999999999999 7 7.75 1 0 0 0 -0.64704761275630318 2.4148145657226685 1 I I #
coedge $-1 $68 $67 $190 $191 reversed $69 $-1 #
edge $-1 $71 0 $192 0.5 $121 $193 forward 7 unknown #
edge $-1 $70 0 $194 0.5 $115 $195 forward 7 unknown #
face $-1 $188 $69 $3 $-1 $196 reversed single #
point $-1 13.299999999999999 6.6117714323462184 9.1988887394336025 #
point $-1 13.299999999999999 6.3529523872436968 10.164814565722669 #
straight-curve $-1 13.299999999999999 6.3529523872436986 5.3351854342773297 0 0.25881904510252091 0.96592582628906831 I I #
coedge $-1 $76 $75 $93 $146 reversed $46 $-1 #
point $-1 13.299999999999999 6.6117714323462193 6.3011112605663975 #
point $-1 13.299999999999999 6.3529523872436986 5.3351854342773297 #
straight-curve $-1 13.299999999999999 5.5511112605663975 7.3617714323462184 -1 0 0 I I #
face $-1 $197 $198 $3 $-1 $199 forward single #
loop $-1 $-1 $200 $84 #
cone-surface $-1 12.799999999999999 5.5857864376269042 6.3357864376269051 1 0 0 0 0 -0.25 1 I I 0 1 0.25 forward I I I I #
loop $-1 $-1 $201 $45 #
coedge $-1 $93 $89 $87 $141 forward $85 $-1 #
edge $-1 $91 0 $142 0.99999999999999956 $140 $202 forward 7 unknown #
vertex $-1 $146 $203 #
straight-curve $-1 13.299999999999999 6.6117714323462193 6.3011112605663975 -1 0 0 I I #
ellipse-curve $-1 12.799999999999999 7.0000000000000009 7.7500000000000018 1 0 0 0 -2.4148145657226712 -0.64704761275630496 1 I I #
point $-1 12.799999999999999 6.3529523872436986 5.3351854342773297 #
edge $-1 $142 0 $94 1.0471975511965965 $93 $204 forward 7 unknown #
point $-1 12.799999999999999 5.5511112605663975 7.3617714323462184 #
coedge $-1 $205 $206 $207 $208 reversed $97 $-1 #
coedge $-1 $98 $98 $209 $210 reversed $56 $-1 #
coedge $-1 $211 $212 $98 $151 forward $213 $-1 #
edge $-1 $214 0 $215 3.1415926535897931 $98 $216 forward 7 unknown #
coedge $-1 $217 $218 $99 $153 forward $219 $-1 #
edge $-1 $158 0 $157 3.1415926535897931 $99 $220 forward 7 unknown #
coedge $-1 $221 $100 $218 $222 reversed $156 $-1 #
coedge $-1 $100 $223 $217 $224 forward $156 $-1 #
loop $-1 $-1 $225 $226 #
vertex $-1 $153 $227 #
vertex $-1 $153 $228 #
ellipse-curve $-1 13.299999999999999 7 7.75 -1 0 0 0 0 -3 1 I I #
coedge $-1 $229 $230 $102 $161 forward $231 $-1 #
edge $-1 $170 0 $165 0.99999999999999811 $102 $232 forward 7 unknown #
coedge $-1 $233 $103 $108 $174 forward $164 $-1 #
coedge $-1 $103 $233 $229 $234 reversed $164 $-1 #
loop $-1 $-1 $162 $235 #
vertex $-1 $161 $236 #
ellipse-curve $-1 13.299999999999999 7 7.75 1 0 0 0 1.4488887394336043 0.38822856765377978 1 I I #
coedge $-1 $237 $105 $230 $238 forward $169 $-1 #
coedge $-1 $105 $237 $107 $173 reversed $169 $-1 #
loop $-1 $-1 $167 $239 #
vertex $-1 $106 $240 #
ellipse-curve $-1 13.299999999999999 7 7.75 1 0 0 0 2.4148145657226721 0.6470476127563014 1 I I #
coedge $-1 $108 $107 $241 $242 reversed $109 $-1 #
edge $-1 $111 0 $243 0.5 $168 $244 forward 7 unknown #
edge $-1 $110 6.3108872417680944e-030 $245 0.5 $162 $246 forward 7 unknown #
face $-1 $239 $109 $3 $-1 $247 reversed single #
point $-1 13.299999999999999 8.4488887394336043 8.1382285676537798 #
point $-1 13.299999999999999 9.4148145657226721 8.3970476127563014 #
coedge $-1 $248 $113 $116 $183 forward $180 $-1 #
coedge $-1 $113 $248 $120 $187 reversed $180 $-1 #
loop $-1 $-1 $178 $249 #
straight-curve $-1 13.299999999999999 4.5851854342773297 8.3970476127563014 0 0.96592582628906809 -0.25881904510252174 I I #
coedge $-1 $116 $115 $250 $251 reversed $117 $-1 #
edge $-1 $118 0 $252 0.5 $178 $253 forward 7 unknown #
face $-1 $254 $117 $3 $-1 $255 forward single #
point $-1 13.299999999999999 5.5511112605663975 8.1382285676537798 #
coedge $-1 $121 $120 $256 $257 reversed $122 $-1 #
edge $-1 $123 0 $258 0.5 $120 $259 forward 7 unknown #
face $-1 $249 $122 $3 $-1 $260 reversed single #
point $-1 13.299999999999999 4.5851854342773297 8.3970476127563014 #
coedge $-1 $256 $250 $125 $191 forward $261 $-1 #
edge $-1 $194 0 $192 0.99999999999999978 $190 $262 forward 7 unknown #
vertex $-1 $257 $263 #
straight-curve $-1 13.299999999999999 6.3529523872436968 10.16481456572267 -1 0 0 I I #
vertex $-1 $191 $264 #
straight-curve $-1 13.299999999999999 6.6117714323462184 9.1988887394336025 -1 0 0 I I #
plane-surface $-1 13.299999999999999 6.6117714323462184 9.1988887394336025 0 0.96592582628906809 0.25881904510252174 0 -0.25881904510252168 0.96592582628906787 forward_v I I I I #
face $-1 $128 $265 $3 $-1 $266 forward single #
loop $-1 $-1 $267 $136 #
cone-surface $-1 12.799999999999999 5.5857864376269042 6.3357864376269051 1 0 0 0 0 -0.25 1 I I 0 1 0.25 forward I I I I #
coedge $-1 $268 $269 $270 $271 forward $137 $-1 #
coedge $-1 $272 $272 $269 $273 reversed $139 $-1 #
straight-curve $-1 12.799999999999999 6.3529523872436986 5.3351854342773297 0 0.25881904510252091 0.96592582628906831 I I #
point $-1 12.799999999999999 6.6117714323462193 6.3011112605663975 #
ellipse-curve $-1 12.799999999999999 7.0000000000000009 7.7500000000000018 -1 0 0 0 -0.38822856765378155 -1.4488887394336043 1 I I #
coedge $-1 $274 $148 $275 $276 forward $97 $-1 #
coedge $-1 $148 $274 $277 $278 reversed $97 $-1 #
coedge $-1 $279 $280 $148 $208 forward $281 $-1 #
edge $-1 $282 0 $283 0.99999999999999978 $148 $284 forward 7 unknown #
coedge $-1 $285 $286 $149 $210 forward $287 $-1 #
edge $-1 $215 0 $214 3.1415926535897931 $149 $288 forward 7 unknown #
coedge $-1 $289 $150 $286 $290 forward $213 $-1 #
coedge $-1 $150 $289 $285 $291 reversed $213 $-1 #
loop $-1 $-1 $211 $292 #
vertex $-1 $210 $293 #
vertex $-1 $210 $294 #
ellipse-curve $-1 13.299999999999999 7 7.75 1 0 0 0 0 1 1 I I #
coedge $-1 $295 $152 $155 $224 reversed $219 $-1 #
coedge $-1 $152 $296 $154 $222 forward $219 $-1 #
loop $-1 $-1 $297 $298 #
ellipse-curve $-1 13.299999999999999 7 7.75 -1 0 0 0 0 3 1 I I #
coedge $-1 $299 $154 $300 $301 reversed $156 $-1 #
edge $-1 $302 0 $158 2 $218 $303 forward 7 unknown #
coedge $-1 $155 $225 $304 $305 reversed $156 $-1 #
edge $-1 $306 8.8817841970012523e-016 $157 6 $217 $307 forward 7 unknown #
coedge $-1 $223 $308 $309 $310 reversed $156 $-1 #
face $-1 $298 $156 $3 $-1 $311 forward single #
point $-1 13.299999999999999 7 4.75 #
point $-1 13.299999999999999 7 10.75 #
coedge $-1 $312 $160 $163 $234 forward $231 $-1 #
coedge $-1 $160 $312 $167 $238 reversed $231 $-1 #
loop $-1 $-1 $229 $313 #
straight-curve $-1 13.299999999999999 7.6470476127563041 10.164814565722669 0 -0.25881904510252129 -0.96592582628906809 I I #
coedge $-1 $163 $162 $314 $315 reversed $164 $-1 #
edge $-1 $165 0 $316 0.5 $229 $317 forward 7 unknown #
face $-1 $318 $164 $3 $-1 $319 forward single #
point $-1 13.299999999999999 7.3882285676537824 9.1988887394336025 #
coedge $-1 $168 $167 $320 $321 reversed $169 $-1 #
edge $-1 $170 7.8886090522101181e-030 $322 0.5 $167 $323 forward 7 unknown #
face $-1 $313 $169 $3 $-1 $324 reversed single #
point $-1 13.299999999999999 7.6470476127563041 10.164814565722669 #
coedge $-1 $320 $314 $172 $242 forward $325 $-1 #
edge $-1 $245 0 $243 0.99999999999999933 $241 $326 forward 7 unknown #
vertex $-1 $321 $327 #
straight-curve $-1 13.299999999999999 9.4148145657226703 8.3970476127563014 -1 0 0 I I #
vertex $-1 $242 $328 #
straight-curve $-1 13.299999999999999 8.4488887394336025 8.1382285676537798 -1 3.5527136788005009e-015 0 I I #
plane-surface $-1 13.299999999999999 8.4488887394336043 8.1382285676537798 0 0.25881904510252129 -0.9659258262890682 0 0.96592582628906798 0.25881904510252124 forward_v I I I I #
coedge $-1 $179 $178 $329 $330 reversed $180 $-1 #
face $-1 $184 $180 $3 $-1 $331 reversed single #
coedge $-1 $190 $329 $182 $251 forward $261 $-1 #
edge $-1 $252 0 $194 1.0471975511966016 $250 $332 forward 7 unknown #
vertex $-1 $251 $333 #
straight-curve $-1 13.299999999999999 5.5511112605663975 8.1382285676537816 -1 0 0 I I #
face $-1 $334 $261 $3 $-1 $335 forward single #
cone-surface $-1 13.299999999999999 7 7.75 1 0 0 0 0 1.5 1 I I 0 1 1.5 forward I I I I #
coedge $-1 $329 $190 $186 $257 forward $261 $-1 #
edge $-1 $192 0 $258 1.047197551196599 $256 $336 forward 7 unknown #
vertex $-1 $257 $337 #
straight-curve $-1 13.299999999999999 4.5851854342773297 8.3970476127563014 -1 0 0 I I #
cone-surface $-1 13.299999999999999 7 7.75 1 0 0 0 0 2.5 1 I I 0 1 2.5 forward I I I I #
loop $-1 $338 $329 $254 #
straight-curve $-1 12.799999999999999 6.6117714323462184 9.1988887394336025 0 -0.25881904510252174 0.96592582628906809 I I #
point $-1 12.799999999999999 6.3529523872436968 10.16481456572267 #
point $-1 12.799999999999999 6.6117714323462184 9.1988887394336025 #
loop $-1 $-1 $339 $197 #
plane-surface $-1 13.799999999999999 0 0 1 0 0 0 0 -1 forward_v I I I I #
coedge $-1 $340 $341 $342 $343 forward $198 $-1 #
coedge $-1 $342 $200 $339 $344 reversed $137 $-1 #
coedge $-1 $200 $342 $201 $273 forward $137 $-1 #
coedge $-1 $341 $340 $200 $271 reversed $198 $-1 #
edge $-1 $345 0 $346 1 $270 $347 forward 7 unknown #
coedge $-1 $201 $201 $341 $348 reversed $139 $-1 #
edge $-1 $349 0 $345 3.1415926535898393 $201 $350 forward 7 unknown #
coedge $-1 $206 $205 $351 $352 reversed $97 $-1 #
coedge $-1 $353 $354 $205 $276 reversed $355 $-1 #
edge $-1 $282 0 $356 1.0471975511965979 $205 $357 forward 7 unknown #
coedge $-1 $358 $359 $206 $278 forward $360 $-1 #
edge $-1 $283 0 $361 1.0471975511965974 $206 $362 forward 7 unknown #
coedge $-1 $363 $207 $359 $364 forward $281 $-1 #
coedge $-1 $207 $363 $353 $365 reversed $281 $-1 #
loop $-1 $-1 $279 $366 #
vertex $-1 $276 $367 #
vertex $-1 $278 $368 #
straight-curve $-1 13.299999999999999 7.3882285676537816 6.3011112605663975 0 0.25881904510252174 -0.96592582628906809 I I #
coedge $-1 $369 $209 $212 $291 forward $287 $-1 #
coedge $-1 $209 $369 $211 $290 reversed $287 $-1 #
loop $-1 $-1 $285 $370 #
ellipse-curve $-1 13.299999999999999 7 7.75 1 0 0 0 0 -1 1 I I #
coedge $-1 $212 $211 $371 $372 reversed $213 $-1 #
edge $-1 $215 0 $373 0.5 $286 $374 forward 7 unknown #
edge $-1 $214 0 $375 0.5 $285 $376 forward 7 unknown #
face $-1 $370 $213 $3 $-1 $377 forward single #
point $-1 13.299999999999999 7 8.75 #
point $-1 13.299999999999999 7 6.75 #
coedge $-1 $309 $217 $378 $379 reversed $219 $-1 #
coedge $-1 $218 $297 $380 $381 reversed $219 $-1 #
coedge $-1 $296 $382 $383 $384 forward $219 $-1 #
face $-1 $385 $386 $3 $-1 $387 forward single #
coedge $-1 $308 $221 $388 $389 reversed $156 $-1 #
coedge $-1 $380 $390 $221 $301 forward $391 $-1 #
edge $-1 $392 -4.9343245538831724e-017 $302 0.083430086610560714 $221 $393 forward 7 unknown #
vertex $-1 $222 $394 #
straight-curve $-1 11.299999999999999 7 10.75 1 0 0 I I #
coedge $-1 $378 $378 $223 $305 forward $395 $-1 #
edge $-1 $306 0 $396 3.1415926535897931 $304 $397 forward 7 unknown #
vertex $-1 $379 $398 #
straight-curve $-1 7.2999999999999989 7 4.75 1 0 0 I I #
coedge $-1 $225 $299 $399 $400 forward $156 $-1 #
coedge $-1 $382 $295 $225 $310 forward $219 $-1 #
edge $-1 $396 8.8817841970012523e-016 $401 3 $309 $402 forward 7 unknown #
cone-surface $-1 13.299999999999999 7 7.75 1 0 0 0 0 -3 1 I I 0 1 3 forward I I I I #
coedge $-1 $230 $229 $403 $404 reversed $231 $-1 #
face $-1 $235 $231 $3 $-1 $405 reversed single #
coedge $-1 $241 $403 $233 $315 forward $325 $-1 #
edge $-1 $316 0 $245 1.0471975511965979 $314 $406 forward 7 unknown #
vertex $-1 $315 $407 #
straight-curve $-1 13.299999999999999 7.3882285676537833 9.1988887394336025 -1 0 0 I I #
face $-1 $408 $325 $3 $-1 $409 forward single #
cone-surface $-1 13.299999999999999 7 7.75 1 0 0 0 1.5 0 1 I I 0 1 1.5 forward I I I I #
coedge $-1 $403 $241 $237 $321 forward $325 $-1 #
edge $-1 $243 0 $322 1.0471975511965963 $320 $410 forward 7 unknown #
vertex $-1 $321 $411 #
straight-curve $-1 13.299999999999999 7.647047612756305 10.16481456572267 -1 -1.7763568394002505e-015 -3.5527136788005009e-015 I I #
cone-surface $-1 13.299999999999999 7 7.75 1 0 0 0 2.5 0 1 I I 0 1 2.5 forward I I I I #
loop $-1 $412 $403 $318 #
straight-curve $-1 12.799999999999999 8.4488887394336025 8.1382285676537798 0 0.96592582628906853 0.25881904510252007 I I #
point $-1 12.799999999999999 9.4148145657226703 8.3970476127562996 #
point $-1 12.799999999999999 8.4488887394336025 8.1382285676537798 #
coedge $-1 $250 $256 $248 $330 forward $261 $-1 #
edge $-1 $258 0 $252 0.99999999999999978 $329 $413 forward 7 unknown #
plane-surface $-1 13.299999999999999 4.5851854342773297 8.3970476127563014 0 -0.25881904510252091 -0.96592582628906831 0 0.96592582628906809 -0.25881904510252085 forward_v I I I I #
ellipse-curve $-1 12.799999999999999 6.9999999999999964 7.7500000000000036 -1 0 0 0 -1.448888739433599 0.38822856765377622 1 I I #
point $-1 12.799999999999999 5.5511112605663975 8.1382285676537798 #
face $-1 $414 $415 $3 $-1 $416 forward single #
plane-surface $-1 12.799999999999999 14 15.5 1 0 0 0 0 1 forward_v I I I I #
ellipse-curve $-1 12.799999999999999 6.9999999999999982 7.7500000000000036 1 0 0 0 -0.6470476127563014 2.4148145657226667 1 I I #
point $-1 12.799999999999999 4.5851854342773297 8.3970476127563014 #
loop $-1 $-1 $417 $254 #
coedge $-1 $418 $418 $268 $344 forward $265 $-1 #
coedge $-1 $270 $267 $418 $419 reversed $198 $-1 #
coedge $-1 $267 $270 $272 $348 forward $198 $-1 #
coedge $-1 $269 $268 $267 $343 reversed $137 $-1 #
edge $-1 $349 0 $420 1 $267 $421 forward 7 unknown #
edge $-1 $420 0 $346 3.1415926535897931 $339 $422 forward 7 unknown #
vertex $-1 $348 $423 #
vertex $-1 $419 $424 #
straight-curve $-1 12.799999999999999 5.5857864376269042 6.0857864376269051 1 0 0 I I #
edge $-1 $345 0 $349 3.1415926535897469 $272 $425 forward 7 unknown #
vertex $-1 $348 $426 #
ellipse-curve $-1 12.799999999999999 5.5857864376269042 6.3357864376269051 1 0 0 0 1.5099033134902129e-014 0.25000000000000089 1 I I #
coedge $-1 $427 $428 $274 $352 forward $429 $-1 #
edge $-1 $361 0 $356 0.99999999999999956 $274 $430 forward 7 unknown #
coedge $-1 $431 $275 $280 $365 forward $355 $-1 #
coedge $-1 $275 $431 $427 $432 reversed $355 $-1 #
loop $-1 $-1 $353 $433 #
vertex $-1 $352 $434 #
ellipse-curve $-1 13.299999999999999 7 7.75 1 0 0 0 0.38822856765378155 -1.4488887394336025 1 I I #
coedge $-1 $435 $277 $428 $436 forward $360 $-1 #
coedge $-1 $277 $435 $279 $364 reversed $360 $-1 #
loop $-1 $-1 $358 $437 #
vertex $-1 $278 $438 #
ellipse-curve $-1 13.299999999999999 7 7.75 1 0 0 0 0.64704761275630318 -2.4148145657226703 1 I I #
coedge $-1 $280 $279 $439 $440 reversed $281 $-1 #
edge $-1 $283 0 $441 0.5 $359 $442 forward 7 unknown #
edge $-1 $282 0 $443 0.5 $353 $444 forward 7 unknown #
face $-1 $437 $281 $3 $-1 $445 reversed single #
point $-1 13.299999999999999 7.3882285676537816 6.3011112605663975 #
point $-1 13.299999999999999 7.6470476127563032 5.3351854342773297 #
coedge $-1 $286 $285 $446 $447 reversed $287 $-1 #
face $-1 $448 $287 $3 $-1 $449 forward single #
coedge $-1 $446 $446 $289 $372 forward $450 $-1 #
edge $-1 $375 0 $373 3.1415926535897931 $371 $451 forward 7 unknown #
vertex $-1 $447 $452 #
straight-curve $-1 13.299999999999999 7 6.75 1 0 0 I I #
vertex $-1 $447 $453 #
straight-curve $-1 13.299999999999999 7 8.75 1 0 0 I I #
cone-surface $-1 13.299999999999999 7 7.75 1 0 0 0 0 -1 1 I I 0 1 1 forward I I I I #
coedge $-1 $304 $304 $295 $379 forward $395 $-1 #
edge $-1 $396 0 $306 3.1415926535897931 $378 $454 forward 7 unknown #
coedge $-1 $455 $300 $296 $381 forward $391 $-1 #
edge $-1 $302 0 $456 0.083430086610558382 $296 $457 forward 7 unknown #
coedge $-1 $297 $309 $458 $459 forward $219 $-1 #
coedge $-1 $460 $461 $297 $384 reversed $462 $-1 #
edge $-1 $463 0 $456 1 $297 $464 forward 7 unknown #
face $-1 $465 $466 $3 $-1 $467 reversed single #
loop $-1 $219 $468 $298 #
cone-surface $-1 13.299999999999999 7 7.75 1 0 0 0 0 -3 1 I I 0 1 3 forward I I I I #
coedge $-1 $469 $470 $299 $389 forward $471 $-1 #
edge $-1 $472 0 $392 1 $299 $473 forward 7 unknown #
coedge $-1 $300 $474 $469 $475 forward $391 $-1 #
loop $-1 $-1 $455 $476 #
vertex $-1 $389 $477 #
ellipse-curve $-1 11.299999999999999 7.0000000000000586 7.7499999999980496 -1 0 0 0 -0.25000000000005862 2.9895651857773018 1 I I #
point $-1 11.299999999999999 7 10.75 #
loop $-1 $478 $304 $479 #
vertex $-1 $379 $480 #
ellipse-curve $-1 7.2999999999999998 7 7.75 -1 0 0 0 0 -3 1 I I #
point $-1 7.2999999999999998 7 4.75 #
coedge $-1 $481 $458 $308 $400 reversed $482 $-1 #
edge $-1 $472 0 $401 0.083430086610560714 $308 $483 forward 7 unknown #
vertex $-1 $459 $484 #
straight-curve $-1 7.2999999999999989 7 10.75 1 0 0 I I #
coedge $-1 $314 $320 $312 $404 forward $325 $-1 #
edge $-1 $322 6.896324714023584e-016 $316 1.000000000000002 $403 $485 forward 7 unknown #
plane-surface $-1 13.299999999999999 7.6470476127563041 10.164814565722669 0 -0.9659258262890682 0.25881904510252135 0 -0.25881904510252129 -0.96592582628906798 forward_v I I I I #
ellipse-curve $-1 12.799999999999999 7.0000000000000018 7.7499999999999973 -1 0 0 0 0.38822856765377889 1.4488887394336016 1 I I #
point $-1 12.799999999999999 7.3882285676537807 9.198888739433599 #
face $-1 $486 $487 $3 $-1 $488 forward single #
plane-surface $-1 12.799999999999999 14.75 0.74999999999999734 1 0 0 0 1 0 forward_v I I I I #
ellipse-curve $-1 12.799999999999999 6.9999999999999973 7.7499999999999947 1 0 0 0 2.4148145657226729 0.64704761275630496 1 I I #
point $-1 12.799999999999999 7.6470476127563014 10.164814565722669 #
loop $-1 $-1 $489 $318 #
straight-curve $-1 12.799999999999999 4.5851854342773297 8.3970476127563014 0 0.96592582628906809 -0.25881904510252174 I I #
face $-1 $490 $491 $3 $-1 $492 forward single #
loop $-1 $-1 $493 $334 #
cone-surface $-1 12.799999999999999 5.5857864376269051 9.1642135623730958 1 0 0 0 0 -0.25 1 I I 0 1 0.25 forward I I I I #
coedge $-1 $494 $494 $495 $496 reversed $338 $-1 #
coedge $-1 $339 $339 $340 $419 forward $265 $-1 #
edge $-1 $346 0 $420 3.1415926535897931 $418 $497 forward 7 unknown #
vertex $-1 $419 $498 #
straight-curve $-1 12.799999999999999 5.5857864376269042 6.5857864376269051 1 0 0 I I #
ellipse-curve $-1 13.799999999999999 5.5857864376269042 6.3357864376269051 1 0 0 0 0 0.25 1 I I #
point $-1 12.799999999999999 5.5857864376269006 6.0857864376269095 #
point $-1 13.799999999999999 5.5857864376269042 6.0857864376269051 #
ellipse-curve $-1 12.799999999999999 5.5857864376269042 6.3357864376269051 1 0 0 0 -3.5527136788005009e-015 -0.24999999999999556 1 I I #
point $-1 12.799999999999999 5.5857864376269193 6.585786437626906 #
coedge $-1 $499 $351 $354 $432 forward $429 $-1 #
coedge $-1 $351 $499 $358 $436 reversed $429 $-1 #
loop $-1 $-1 $427 $500 #
straight-curve $-1 13.299999999999999 9.4148145657226703 7.1029523872436986 0 -0.96592582628906831 0.25881904510252091 I I #
coedge $-1 $354 $353 $501 $502 reversed $355 $-1 #
edge $-1 $356 0 $503 0.5 $427 $504 forward 7 unknown #
face $-1 $505 $355 $3 $-1 $506 forward single #
point $-1 13.299999999999999 8.4488887394336025 7.3617714323462193 #
coedge $-1 $359 $358 $507 $508 reversed $360 $-1 #
edge $-1 $361 0 $509 0.5 $358 $510 forward 7 unknown #
face $-1 $500 $360 $3 $-1 $511 reversed single #
point $-1 13.299999999999999 9.4148145657226703 7.1029523872436986 #
coedge $-1 $507 $501 $363 $440 forward $512 $-1 #
edge $-1 $443 0 $441 0.99999999999999978 $439 $513 forward 7 unknown #
vertex $-1 $508 $514 #
straight-curve $-1 13.299999999999999 7.6470476127563032 5.3351854342773297 -1 0 0 I I #
vertex $-1 $440 $515 #
straight-curve $-1 13.299999999999999 7.3882285676537816 6.3011112605663975 -1 0 0 I I #
plane-surface $-1 13.299999999999999 7.3882285676537816 6.3011112605663975 0 -0.96592582628906809 -0.25881904510252174 0 0.25881904510252174 -0.96592582628906809 forward_v I I I I #
coedge $-1 $371 $371 $369 $447 forward $450 $-1 #
edge $-1 $373 0 $375 3.1415926535897931 $446 $516 forward 7 unknown #
face $-1 $517 $450 $3 $-1 $518 forward single #
cone-surface $-1 13.299999999999999 7 7.75 1 0 0 0 0 -1 1 I I 0 1 1 forward I I I I #
loop $-1 $519 $371 $448 #
ellipse-curve $-1 13.799999999999999 7 7.75 1 0 0 0 0 1 1 I I #
point $-1 13.799999999999999 7 6.75 #
point $-1 13.799999999999999 7 8.75 #
ellipse-curve $-1 7.2999999999999998 7 7.75 -1 0 0 0 0 3 1 I I #
coedge $-1 $474 $380 $461 $520 forward $391 $-1 #
vertex $-1 $381 $521 #
ellipse-curve $-1 11.299999999999999 6.9999999999999369 7.7499999999979661 -1 0 0 0 6.3060667798708891e-014 3.0000000000020339 1 I I #
coedge $-1 $399 $522 $382 $459 reversed $482 $-1 #
edge $-1 $401 0 $463 0.083430086610558382 $382 $523 forward 7 unknown #
coedge $-1 $524 $383 $522 $525 forward $462 $-1 #
coedge $-1 $383 $524 $455 $520 reversed $462 $-1 #
loop $-1 $-1 $460 $526 #
vertex $-1 $459 $527 #
straight-curve $-1 10.299999999999999 7.25 10.73956518577535 1 0 0 I I #
face $-1 $528 $529 $3 $-1 $530 forward single #
loop $-1 $-1 $531 $385 #
plane-surface $-1 10.674999999999999 9.75 8.9489578808281802 0 -1 0 0 0 -1 forward_v I I I I #
coedge $-1 $532 $533 $534 $535 reversed $386 $-1 #
coedge $-1 $536 $388 $390 $475 reversed $471 $-1 #
coedge $-1 $388 $536 $481 $537 forward $471 $-1 #
loop $-1 $-1 $469 $538 #
vertex $-1 $400 $539 #
straight-curve $-1 10.299999999999999 6.75 10.73956518577535 1 0 0 I I #
coedge $-1 $390 $455 $540 $541 forward $391 $-1 #
edge $-1 $542 0 $392 0.48956518577534958 $390 $543 forward 7 unknown #
face $-1 $544 $391 $3 $-1 $545 reversed single #
point $-1 11.299999999999999 6.75 10.73956518577535 #
loop $-1 $-1 $546 $479 #
face $-1 $547 $395 $3 $-1 $548 reversed single #
point $-1 7.2999999999999998 7 10.75 #
coedge $-1 $549 $399 $470 $537 reversed $482 $-1 #
loop $-1 $-1 $399 $550 #
ellipse-curve $-1 10.299999999999999 7.0000000000000586 7.7499999999980496 -1 0 0 0 -0.25000000000005862 2.9895651857773018 1 I I #
point $-1 10.299999999999999 7 10.75 #
straight-curve $-1 12.799999999999999 7.6470476127563041 10.164814565722669 0 -0.25881904510252129 -0.9659258262890682 I I #
face $-1 $551 $552 $3 $-1 $553 forward single #
loop $-1 $-1 $554 $408 #
cone-surface $-1 12.799999999999999 8.4142135623730958 9.164213562373094 1 0 0 0 0 -0.25 1 I I 0 1 0.25 forward I I I I #
coedge $-1 $555 $555 $556 $557 reversed $412 $-1 #
face $-1 $175 $558 $3 $-1 $559 forward single #
loop $-1 $-1 $560 $414 #
cone-surface $-1 12.799999999999999 5.5857864376269051 9.1642135623730958 1 0 0 0 0 -0.25 1 I I 0 1 0.25 forward I I I I #
coedge $-1 $561 $495 $562 $563 forward $415 $-1 #
coedge $-1 $417 $417 $564 $565 reversed $338 $-1 #
coedge $-1 $493 $566 $417 $496 forward $415 $-1 #
edge $-1 $567 0 $568 3.1415926535898784 $417 $569 forward 7 unknown #
ellipse-curve $-1 13.799999999999999 5.5857864376269042 6.3357864376269051 1 0 0 0 0 -0.25 1 I I #
point $-1 13.799999999999999 5.5857864376269042 6.5857864376269051 #
coedge $-1 $428 $427 $570 $571 reversed $429 $-1 #
face $-1 $433 $429 $3 $-1 $572 reversed single #
coedge $-1 $439 $570 $431 $502 forward $512 $-1 #
edge $-1 $503 0 $443 1.0471975511965965 $501 $573 forward 7 unknown #
vertex $-1 $502 $574 #
straight-curve $-1 13.299999999999999 8.4488887394336025 7.3617714323462193 -1 0 0 I I #
face $-1 $575 $512 $3 $-1 $576 forward single #
cone-surface $-1 13.299999999999999 7 7.75 1 0 0 0 0 -1.5 1 I I 0 1 1.5 forward I I I I #
coedge $-1 $570 $439 $435 $508 forward $512 $-1 #
edge $-1 $441 0 $509 1.0471975511965963 $507 $577 forward 7 unknown #
vertex $-1 $508 $578 #
straight-curve $-1 13.299999999999999 9.4148145657226703 7.1029523872436986 -1 0 0 I I #
cone-surface $-1 13.299999999999999 7 7.75 1 0 0 0 0 -2.5 1 I I 0 1 2.5 forward I I I I #
loop $-1 $579 $570 $505 #
straight-curve $-1 12.799999999999999 7.3882285676537816 6.3011112605663975 0 0.25881904510252174 -0.96592582628906809 I I #
point $-1 12.799999999999999 7.6470476127563032 5.3351854342773297 #
point $-1 12.799999999999999 7.3882285676537816 6.3011112605663975 #
ellipse-curve $-1 13.799999999999999 7 7.75 1 0 0 0 0 -1 1 I I #
face $-1 $580 $581 $3 $-1 $582 forward single #
plane-surface $-1 13.799999999999999 0 0 1 0 0 0 0 -1 forward_v I I I I #
loop $-1 $-1 $583 $448 #
edge $-1 $456 0 $584 0.48956518577535135 $455 $585 forward 7 unknown #
point $-1 11.299999999999999 7.25 10.739565185775351 #
coedge $-1 $458 $549 $460 $525 reversed $482 $-1 #
ellipse-curve $-1 10.299999999999999 6.9999999999999369 7.7499999999979661 -1 0 0 0 6.3060667798708891e-014 3.0000000000020339 1 I I #
coedge $-1 $461 $460 $586 $587 reversed $462 $-1 #
edge $-1 $463 0 $588 0.48956518577535135 $522 $589 forward 7 unknown #
face $-1 $550 $462 $3 $-1 $590 reversed single #
point $-1 10.299999999999999 7.25 10.739565185775351 #
face $-1 $526 $591 $3 $-1 $592 reversed single #
loop $-1 $-1 $593 $465 #
plane-surface $-1 9.9249999999999989 0 0 1 0 0 0 0 -1 forward_v I I I I #
coedge $-1 $534 $594 $593 $595 reversed $466 $-1 #
coedge $-1 $596 $468 $597 $598 reversed $386 $-1 #
coedge $-1 $468 $596 $599 $600 forward $386 $-1 #
coedge $-1 $601 $531 $468 $535 forward $466 $-1 #
edge $-1 $602 0 $603 0.75 $468 $604 forward 7 unknown #
coedge $-1 $470 $469 $605 $606 forward $471 $-1 #
edge $-1 $607 0 $472 0.48956518577535135 $481 $608 forward 7 unknown #
face $-1 $476 $471 $3 $-1 $609 reversed single #
point $-1 10.299999999999999 6.75 10.739565185775351 #
coedge $-1 $586 $605 $474 $541 reversed $610 $-1 #
edge $-1 $584 0 $542 0.5 $474 $611 forward 7 unknown #
vertex $-1 $475 $612 #
straight-curve $-1 11.299999999999999 6.75 10.25 0 0 1 I I #
face $-1 $479 $610 $3 $-1 $613 reversed single #
plane-surface $-1 11.299999999999999 0 0 1 0 0 0 0 -1 forward_v I I I I #
coedge $-1 $614 $614 $615 $616 forward $478 $-1 #
face $-1 $617 $618 $3 $-1 $619 forward single #
plane-surface $-1 7.2999999999999998 0 0 1 0 0 0 0 -1 forward_v I I I I #
coedge $-1 $522 $481 $620 $621 reversed $482 $-1 #
face $-1 $538 $482 $3 $-1 $622 forward single #
face $-1 $226 $623 $3 $-1 $624 forward single #
loop $-1 $-1 $625 $486 #
cone-surface $-1 12.799999999999999 8.4142135623730958 9.164213562373094 1 0 0 0 0 -0.25 1 I I 0 1 0.25 forward I I I I #
coedge $-1 $626 $556 $627 $628 forward $487 $-1 #
coedge $-1 $489 $489 $629 $630 reversed $412 $-1 #
coedge $-1 $554 $631 $489 $557 forward $487 $-1 #
edge $-1 $632 0 $633 3.1415926535897292 $489 $634 forward 7 unknown #
loop $-1 $-1 $635 $490 #
plane-surface $-1 13.799999999999999 0 0 1 0 0 0 0 -1 forward_v I I I I #
coedge $-1 $636 $564 $566 $637 forward $491 $-1 #
coedge $-1 $566 $493 $635 $638 reversed $415 $-1 #
coedge $-1 $564 $636 $493 $563 reversed $491 $-1 #
edge $-1 $568 0 $639 1 $562 $640 forward 7 unknown #
coedge $-1 $560 $562 $494 $565 forward $491 $-1 #
edge $-1 $568 0 $567 3.1415926535897079 $494 $641 forward 7 unknown #
coedge $-1 $495 $561 $560 $637 reversed $415 $-1 #
vertex $-1 $565 $642 #
vertex $-1 $565 $643 #
ellipse-curve $-1 12.799999999999999 5.5857864376269051 9.1642135623730958 1 0 0 0 1.6875389974302379e-014 0.25000000000000178 1 I I #
coedge $-1 $501 $507 $499 $571 forward $512 $-1 #
edge $-1 $509 0 $503 0.99999999999999956 $570 $644 forward 7 unknown #
plane-surface $-1 13.299999999999999 9.4148145657226703 7.1029523872436986 0 0.25881904510252091 0.96592582628906831 0 -0.96592582628906831 0.25881904510252091 forward_v I I I I #
ellipse-curve $-1 12.799999999999999 6.9999999999999982 7.7500000000000009 -1 0 0 0 1.4488887394336043 -0.38822856765378155 1 I I #
point $-1 12.799999999999999 8.4488887394336025 7.3617714323462193 #
face $-1 $645 $646 $3 $-1 $647 forward single #
plane-surface $-1 12.799999999999999 0 0 1 0 0 0 0 -1 forward_v I I I I #
ellipse-curve $-1 12.799999999999999 6.9999999999999982 7.7500000000000018 1 0 0 0 0.64704761275630496 -2.4148145657226721 1 I I #
point $-1 12.799999999999999 9.4148145657226703 7.1029523872436986 #
loop $-1 $-1 $648 $505 #
face $-1 $649 $650 $3 $-1 $651 forward single #
loop $-1 $-1 $652 $517 #
cone-surface $-1 17.5 7 7.75 1 0 0 0 0 -0.375 1 I I 0 1 0.375 forward I I I I #
coedge $-1 $653 $653 $654 $655 reversed $519 $-1 #
vertex $-1 $541 $656 #
straight-curve $-1 11.299999999999999 7.25 10.739565185775351 0 0 -1 I I #
coedge $-1 $620 $540 $524 $587 forward $610 $-1 #
edge $-1 $584 0 $588 1 $586 $657 forward 7 unknown #
vertex $-1 $525 $658 #
straight-curve $-1 10.299999999999999 7.25 10.739565185775351 0 0 -1 I I #
plane-surface $-1 10.299999999999999 7.25 10.25 0 1 0 0 0 1 forward_v I I I I #
loop $-1 $-1 $659 $528 #
plane-surface $-1 10.674999999999999 0 0 1 0 0 0 0 -1 forward_v I I I I #
coedge $-1 $597 $597 $531 $595 forward $529 $-1 #
coedge $-1 $531 $601 $596 $660 reversed $466 $-1 #
edge $-1 $602 0 $661 2.3979157661615522 $593 $662 forward 7 unknown #
coedge $-1 $533 $532 $594 $660 forward $386 $-1 #
coedge $-1 $593 $593 $532 $598 forward $529 $-1 #
edge $-1 $661 0 $602 0.82227572314296427 $532 $663 forward 7 unknown #
coedge $-1 $659 $659 $533 $600 reversed $591 $-1 #
edge $-1 $664 0 $603 0.82227572314296427 $533 $665 forward 7 unknown #
coedge $-1 $594 $534 $659 $666 forward $466 $-1 #
vertex $-1 $598 $667 #
vertex $-1 $600 $668 #
straight-curve $-1 9.9249999999999989 9.75 8.9489578808281802 1 0 0 I I #
coedge $-1 $540 $620 $536 $606 reversed $610 $-1 #
edge $-1 $542 0 $607 1 $536 $669 forward 7 unknown #
vertex $-1 $621 $670 #
straight-curve $-1 10.299999999999999 6.75 10.25 0 0 1 I I #
plane-surface $-1 10.299999999999999 6.75 10.73956518577535 0 -1 0 0 0 -1 forward_v I I I I #
loop $-1 $-1 $605 $544 #
straight-curve $-1 11.299999999999999 7.25 10.25 0 -1 0 I I #
point $-1 11.299999999999999 6.75 10.25 #
plane-surface $-1 10.299999999999999 6.75 10.25 0 0 -1 0 1 0 forward_v I I I I #
coedge $-1 $546 $546 $671 $672 forward $478 $-1 #
coedge $-1 $673 $674 $546 $616 reversed $618 $-1 #
edge $-1 $675 0 $676 3.1415926535897931 $546 $677 forward 7 unknown #
face $-1 $678 $679 $3 $-1 $680 forward single #
loop $-1 $-1 $673 $547 #
cone-surface $-1 17.5 7 7.75 1 0 0 0 0 -0.375 1 I I 0 1 0.375 forward I I I I #
coedge $-1 $605 $586 $549 $621 forward $610 $-1 #
edge $-1 $588 0 $607 0.5 $549 $681 forward 7 unknown #
plane-surface $-1 10.299999999999999 0 0 1 0 0 0 0 -1 forward_v I I I I #
loop $-1 $-1 $682 $551 #
plane-surface $-1 13.799999999999999 0 0 1 0 0 0 0 -1 forward_v I I I I #
coedge $-1 $683 $629 $631 $684 forward $552 $-1 #
coedge $-1 $631 $554 $682 $685 reversed $487 $-1 #
coedge $-1 $629 $683 $554 $628 reversed $552 $-1 #
edge $-1 $633 0 $686 1 $627 $687 forward 7 unknown #
coedge $-1 $625 $627 $555 $630 forward $552 $-1 #
edge $-1 $633 0 $632 3.1415926535898571 $555 $688 forward 7 unknown #
coedge $-1 $556 $626 $625 $684 reversed $487 $-1 #
vertex $-1 $630 $689 #
vertex $-1 $630 $690 #
ellipse-curve $-1 12.799999999999999 8.4142135623730958 9.164213562373094 1 0 0 0 -1.7763568394002505e-014 0.24999999999999467 1 I I #
coedge $-1 $691 $691 $561 $638 forward $558 $-1 #
coedge $-1 $562 $560 $691 $692 reversed $491 $-1 #
edge $-1 $567 0 $693 1 $560 $694 forward 7 unknown #
edge $-1 $693 0 $639 3.1415926535897931 $635 $695 forward 7 unknown #
vertex $-1 $692 $696 #
straight-curve $-1 12.799999999999999 5.5857864376269051 8.9142135623730958 1 0 0 I I #
ellipse-curve $-1 12.799999999999999 5.5857864376269051 9.1642135623730958 1 0 0 0 4.4408920985006262e-015 -0.24999999999999645 1 I I #
point $-1 12.799999999999999 5.585786437626922 9.4142135623730976 #
point $-1 12.799999999999999 5.5857864376269095 8.9142135623730994 #
straight-curve $-1 12.799999999999999 9.4148145657226703 7.1029523872436986 0 -0.96592582628906831 0.25881904510252091 I I #
face $-1 $697 $698 $3 $-1 $699 forward single #
loop $-1 $-1 $700 $575 #
cone-surface $-1 12.799999999999999 8.4142135623730958 6.3357864376269051 1 0 0 0 0 -0.25 1 I I 0 1 0.25 forward I I I I #
coedge $-1 $701 $701 $702 $703 reversed $579 $-1 #
face $-1 $366 $704 $3 $-1 $705 forward single #
loop $-1 $-1 $706 $580 #
cone-surface $-1 17.5 7 7.75 1 0 0 0 0 -0.375 1 I I 0 1 0.375 forward I I I I #
coedge $-1 $707 $654 $708 $709 reversed $581 $-1 #
coedge $-1 $583 $583 $710 $711 reversed $519 $-1 #
coedge $-1 $652 $712 $583 $655 forward $581 $-1 #
edge $-1 $713 0 $714 3.1415926535897931 $583 $715 forward 7 unknown #
point $-1 11.299999999999999 7.25 10.25 #
straight-curve $-1 11.299999999999999 7.25 10.25 -1 0 0 I I #
point $-1 10.299999999999999 7.25 10.25 #
coedge $-1 $599 $599 $601 $666 reversed $591 $-1 #
edge $-1 $661 0 $664 0.75 $596 $716 forward 7 unknown #
vertex $-1 $660 $717 #
straight-curve $-1 9.9249999999999989 9.75 8.9489578830807783 0 0 -1 I I #
ellipse-curve $-1 9.9249999999999989 6.9999999891969269 7.7500000000000027 1 0 0 0 2.7500000108030731 -1.1989578830807766 1 I I #
vertex $-1 $600 $718 #
ellipse-curve $-1 10.674999999999999 6.9999999891969269 7.7500000000000027 1 0 0 0 2.7500000108030731 -1.1989578830807766 1 I I #
edge $-1 $603 0 $664 2.3979157661615522 $659 $719 forward 7 unknown #
point $-1 9.9249999999999989 9.75 8.9489578830807783 #
point $-1 10.674999999999999 9.75 8.9489578830807783 #
straight-curve $-1 11.299999999999999 6.75 10.25 -1 0 0 I I #
point $-1 10.299999999999999 6.75 10.25 #
coedge $-1 $720 $721 $614 $672 reversed $679 $-1 #
edge $-1 $676 0 $675 3.1415926535897931 $614 $722 forward 7 unknown #
coedge $-1 $723 $615 $721 $724 forward $618 $-1 #
coedge $-1 $615 $723 $720 $725 reversed $618 $-1 #
vertex $-1 $672 $726 #
vertex $-1 $672 $727 #
ellipse-curve $-1 7.2999999999999998 7 7.75 1 0 0 0 0 0.375 1 I I #
face $-1 $292 $728 $3 $-1 $729 reversed single #
loop $-1 $-1 $720 $617 #
cone-surface $-1 17.5 7 7.75 1 0 0 0 0 -0.375 1 I I 0 1 0.375 forward I I I I #
straight-curve $-1 10.299999999999999 7.25 10.25 0 -1 0 I I #
coedge $-1 $730 $730 $626 $685 forward $623 $-1 #
coedge $-1 $627 $625 $730 $731 reversed $552 $-1 #
edge $-1 $632 0 $732 1 $625 $733 forward 7 unknown #
edge $-1 $732 0 $686 3.1415926535897931 $682 $734 forward 7 unknown #
vertex $-1 $731 $735 #
straight-curve $-1 12.799999999999999 8.4142135623730958 8.914213562373094 1 0 0 I I #
ellipse-curve $-1 12.799999999999999 8.4142135623730958 9.164213562373094 1 0 0 0 1.7763568394002505e-015 -0.25000000000000533 1 I I #
point $-1 12.799999999999999 8.414213562373078 9.4142135623730887 #
point $-1 12.799999999999999 8.4142135623730976 8.9142135623730887 #
coedge $-1 $635 $635 $636 $692 forward $558 $-1 #
edge $-1 $639 0 $693 3.1415926535897931 $691 $736 forward 7 unknown #
vertex $-1 $692 $737 #
straight-curve $-1 12.799999999999999 5.5857864376269051 9.4142135623730958 1 0 0 I I #
ellipse-curve $-1 13.799999999999999 5.5857864376269051 9.1642135623730958 1 0 0 0 0 0.25 1 I I #
point $-1 13.799999999999999 5.5857864376269051 8.9142135623730958 #
face $-1 $-1 $738 $3 $-1 $739 forward single #
loop $-1 $-1 $740 $645 #
cone-surface $-1 12.799999999999999 8.4142135623730958 6.3357864376269051 1 0 0 0 0 -0.25 1 I I 0 1 0.25 forward I I I I #
coedge $-1 $741 $702 $742 $743 forward $646 $-1 #
coedge $-1 $648 $648 $744 $745 reversed $579 $-1 #
coedge $-1 $700 $746 $648 $703 forward $646 $-1 #
edge $-1 $747 0 $748 3.1415926535897931 $648 $749 forward 7 unknown #
loop $-1 $-1 $750 $649 #
plane-surface $-1 17.5 0 0 1 0 0 0 0 -1 forward_v I I I I #
coedge $-1 $751 $710 $712 $752 reversed $650 $-1 #
coedge $-1 $712 $652 $750 $753 reversed $581 $-1 #
coedge $-1 $710 $751 $652 $709 forward $650 $-1 #
edge $-1 $754 0 $714 3.7000000000000011 $708 $755 forward 7 unknown #
coedge $-1 $706 $708 $653 $711 forward $650 $-1 #
edge $-1 $714 0 $713 3.1415926535897931 $653 $756 forward 7 unknown #
coedge $-1 $654 $707 $706 $752 forward $581 $-1 #
vertex $-1 $711 $757 #
vertex $-1 $711 $758 #
ellipse-curve $-1 13.799999999999999 7 7.75 1 0 0 0 0 0.375 1 I I #
straight-curve $-1 9.9249999999999989 9.75 6.5510421191718198 1 0 0 I I #
point $-1 9.9249999999999989 9.75 6.5510421169192261 #
point $-1 10.674999999999999 9.75 6.5510421169192261 #
straight-curve $-1 10.674999999999999 9.75 8.9489578830807783 0 0 -1 I I #
coedge $-1 $759 $671 $674 $725 forward $679 $-1 #
coedge $-1 $671 $759 $673 $724 reversed $679 $-1 #
ellipse-curve $-1 7.2999999999999998 7 7.75 1 0 0 0 0 -0.375 1 I I #
coedge $-1 $674 $673 $760 $761 forward $618 $-1 #
edge $-1 $675 8.8817841970012523e-016 $762 2.9600000000000009 $721 $763 forward 7 unknown #
edge $-1 $676 8.8817841970012523e-016 $764 2.9600000000000009 $720 $765 forward 7 unknown #
point $-1 7.2999999999999998 7 8.125 #
point $-1 7.2999999999999998 7 7.375 #
loop $-1 $-1 $760 $678 #
plane-surface $-1 4.3399999999999999 0 0 1 0 0 0 1 0 forward_v I I I I #
coedge $-1 $682 $682 $683 $731 forward $623 $-1 #
edge $-1 $686 0 $732 3.1415926535897931 $730 $766 forward 7 unknown #
vertex $-1 $731 $767 #
straight-curve $-1 12.799999999999999 8.4142135623730958 9.414213562373094 1 0 0 I I #
ellipse-curve $-1 13.799999999999999 8.4142135623730958 9.164213562373094 1 0 0 0 0 0.25 1 I I #
point $-1 13.799999999999999 8.4142135623730958 8.914213562373094 #
ellipse-curve $-1 13.799999999999999 5.5857864376269051 9.1642135623730958 1 0 0 0 0 -0.25 1 I I #
point $-1 13.799999999999999 5.5857864376269051 9.4142135623730958 #
loop $-1 $-1 $768 $697 #
plane-surface $-1 13.799999999999999 0 0 1 0 0 0 0 -1 forward_v I I I I #
coedge $-1 $769 $744 $746 $770 forward $698 $-1 #
coedge $-1 $746 $700 $768 $771 reversed $646 $-1 #
coedge $-1 $744 $769 $700 $743 reversed $698 $-1 #
edge $-1 $748 0 $772 1 $742 $773 forward 7 unknown #
coedge $-1 $740 $742 $701 $745 forward $698 $-1 #
edge $-1 $748 0 $747 3.1415926535897931 $701 $774 forward 7 unknown #
coedge $-1 $702 $741 $740 $770 reversed $646 $-1 #
vertex $-1 $745 $775 #
vertex $-1 $745 $776 #
ellipse-curve $-1 12.799999999999999 8.4142135623730958 6.3357864376269051 1 0 0 0 0 0.25 1 I I #
coedge $-1 $777 $777 $707 $753 forward $704 $-1 #
coedge $-1 $708 $706 $777 $778 reversed $650 $-1 #
edge $-1 $779 0 $713 3.7000000000000011 $706 $780 forward 7 unknown #
edge $-1 $779 0 $754 3.1415926535897931 $750 $781 forward 7 unknown #
vertex $-1 $778 $782 #
straight-curve $-1 17.5 7 7.375 -1 0 0 I I #
ellipse-curve $-1 13.799999999999999 7 7.75 1 0 0 0 0 -0.375 1 I I #
point $-1 13.799999999999999 7 8.125 #
point $-1 13.799999999999999 7 7.375 #
coedge $-1 $721 $720 $783 $784 forward $679 $-1 #
coedge $-1 $783 $783 $723 $761 reversed $728 $-1 #
edge $-1 $762 0 $764 3.1415926535897931 $760 $785 forward 7 unknown #
vertex $-1 $784 $786 #
straight-curve $-1 7.3000000000000007 7 8.125 -1 0 0 I I #
vertex $-1 $784 $787 #
straight-curve $-1 7.3000000000000007 7 7.375 -1 0 0 I I #
ellipse-curve $-1 13.799999999999999 8.4142135623730958 9.164213562373094 1 0 0 0 0 -0.25 1 I I #
point $-1 13.799999999999999 8.4142135623730958 9.414213562373094 #
coedge $-1 $788 $788 $741 $771 forward $738 $-1 #
coedge $-1 $742 $740 $788 $789 reversed $698 $-1 #
edge $-1 $747 0 $790 1 $740 $791 forward 7 unknown #
edge $-1 $790 0 $772 3.1415926535897931 $768 $792 forward 7 unknown #
vertex $-1 $789 $793 #
straight-curve $-1 12.799999999999999 8.4142135623730958 6.0857864376269051 1 0 0 I I #
ellipse-curve $-1 12.799999999999999 8.4142135623730958 6.3357864376269051 1 0 0 0 0 -0.25 1 I I #
point $-1 12.799999999999999 8.4142135623730958 6.5857864376269051 #
point $-1 12.799999999999999 8.4142135623730958 6.0857864376269051 #
coedge $-1 $750 $750 $751 $778 forward $704 $-1 #
edge $-1 $754 0 $779 3.1415926535897931 $777 $794 forward 7 unknown #
vertex $-1 $778 $795 #
straight-curve $-1 17.5 7 8.125 -1 0 0 I I #
ellipse-curve $-1 17.5 7 7.75 1 0 0 0 0 0.375 1 I I #
point $-1 17.5 7 7.375 #
coedge $-1 $760 $760 $759 $784 reversed $728 $-1 #
edge $-1 $764 0 $762 3.1415926535897931 $783 $796 forward 7 unknown #
ellipse-curve $-1 4.3399999999999999 7 7.75 1 0 0 0 0 0.375 1 I I #
point $-1 4.3399999999999999 7 8.125 #
point $-1 4.3399999999999999 7 7.375 #
coedge $-1 $768 $768 $769 $789 forward $738 $-1 #
edge $-1 $772 0 $790 3.1415926535897931 $788 $797 forward 7 unknown #
vertex $-1 $789 $798 #
straight-curve $-1 12.799999999999999 8.4142135623730958 6.5857864376269051 1 0 0 I I #
ellipse-curve $-1 13.799999999999999 8.4142135623730958 6.3357864376269051 1 0 0 0 0 0.25 1 I I #
point $-1 13.799999999999999 8.4142135623730958 6.0857864376269051 #
ellipse-curve $-1 17.5 7 7.75 1 0 0 0 0 -0.375 1 I I #
point $-1 17.5 7 8.125 #
ellipse-curve $-1 4.3399999999999999 7 7.75 1 0 0 0 0 -0.375 1 I I #
ellipse-curve $-1 13.799999999999999 8.4142135623730958 6.3357864376269051 1 0 0 0 0 -0.25 1 I I #
point $-1 13.799999999999999 8.4142135623730958 6.5857864376269051 #
End-of-ACIS-data 