600 0 1 0           
110 GICL Pro/E ACIS Translator - Source: f:/data5/repository/PTC/V18/web_pub18/web_pub_models/n101436p01.prt - 6 0 13 ACIS 6.0.3 NT 24 Thu Apr 04 09:56:01 2002 
1 9.9999999999999995e-007 1e-010 
body $-1 $1 $-1 $2 #
lump $-1 $-1 $3 $0 #
transform $-1 1 0 0 0 1 0 0 0 1 0 0 0 25.399999999999999 no_rotate no_reflect no_shear #
shell $-1 $-1 $-1 $4 $-1 $1 #
face $-1 $5 $6 $3 $-1 $7 reversed single #
face $-1 $8 $9 $3 $-1 $10 reversed single #
loop $-1 $11 $12 $4 #
plane-surface $-1 0 0 0 0 0 1 1 0 0 forward_v I I I I #
face $-1 $13 $14 $3 $-1 $15 reversed single #
loop $-1 $-1 $16 $5 #
cone-surface $-1 0 0 0 0 0 1 0.125 0 0 1 I I 0 1 0.125 forward I I I I #
loop $-1 $-1 $17 $4 #
coedge $-1 $18 $18 $19 $20 reversed $6 $-1 #
face $-1 $21 $22 $3 $-1 $23 forward single #
loop $-1 $-1 $24 $8 #
cone-surface $-1 0 0 0 0 0 1 0.125 0 0 1 I I 0 1 0.125 forward I I I I #
coedge $-1 $25 $19 $26 $27 forward $9 $-1 #
coedge $-1 $28 $29 $30 $31 reversed $11 $-1 #
coedge $-1 $12 $12 $32 $33 reversed $6 $-1 #
coedge $-1 $16 $34 $12 $20 forward $9 $-1 #
edge $-1 $35 0 $36 3.1415926535897931 $12 $37 forward 7 unknown #
face $-1 $38 $39 $3 $-1 $40 forward single #
loop $-1 $41 $42 $13 #
plane-surface $-1 0 0 0.19999999999999998 0 0 1 1 0 0 forward_v I I I I #
coedge $-1 $43 $32 $34 $44 forward $14 $-1 #
coedge $-1 $34 $16 $42 $45 reversed $9 $-1 #
coedge $-1 $32 $43 $16 $27 reversed $14 $-1 #
edge $-1 $36 0 $46 0.19999999999999998 $26 $47 forward 7 unknown #
coedge $-1 $48 $17 $49 $50 reversed $11 $-1 #
coedge $-1 $17 $51 $52 $53 reversed $11 $-1 #
coedge $-1 $54 $55 $17 $31 forward $56 $-1 #
edge $-1 $57 0 $58 0.25000000000000011 $17 $59 forward 7 unknown #
coedge $-1 $24 $26 $18 $33 forward $14 $-1 #
edge $-1 $36 0 $35 3.1415926535897931 $18 $60 forward 7 unknown #
coedge $-1 $19 $25 $24 $44 reversed $9 $-1 #
vertex $-1 $33 $61 #
vertex $-1 $33 $62 #
ellipse-curve $-1 0 0 0 0 0 -1 -0.125 0 0 1 I I #
face $-1 $63 $64 $3 $-1 $65 forward single #
loop $-1 $-1 $66 $21 #
plane-surface $-1 -0.125 -0.21650635094610976 0 0 -1 0 1 0 0 forward_v I I I I #
loop $-1 $-1 $67 $13 #
coedge $-1 $68 $68 $25 $45 forward $22 $-1 #
coedge $-1 $26 $24 $68 $69 reversed $14 $-1 #
edge $-1 $35 0 $70 0.19999999999999998 $24 $71 forward 7 unknown #
edge $-1 $70 0 $46 3.1415926535897931 $42 $72 forward 7 unknown #
vertex $-1 $69 $73 #
straight-curve $-1 0.125 0 0 0 -1.5307579422779718e-016 1 I I #
coedge $-1 $74 $28 $75 $76 reversed $11 $-1 #
coedge $-1 $77 $78 $28 $50 forward $79 $-1 #
edge $-1 $80 0 $57 0.25 $28 $81 forward 7 unknown #
coedge $-1 $29 $74 $82 $83 reversed $11 $-1 #
coedge $-1 $84 $85 $29 $53 forward $86 $-1 #
edge $-1 $58 0 $87 0.25000000000000011 $29 $88 forward 7 unknown #
coedge $-1 $89 $30 $85 $90 forward $56 $-1 #
coedge $-1 $30 $89 $77 $91 reversed $56 $-1 #
loop $-1 $-1 $54 $92 #
vertex $-1 $50 $93 #
vertex $-1 $53 $94 #
straight-curve $-1 -0.125 0.21650635094610976 0 -0.49999999999999989 -0.86602540378443882 0 I I #
ellipse-curve $-1 0 0 0 0 0 -1 0.125 0 0 1 I I #
point $-1 -0.125 0 0 #
point $-1 0.125 0 0 #
face $-1 $95 $96 $3 $-1 $97 forward single #
loop $-1 $-1 $98 $38 #
plane-surface $-1 0.125 -0.21650635094610976 0 0.86602540378443882 -0.49999999999999989 0 0.5 0.86602540378443904 0 forward_v I I I I #
coedge $-1 $99 $82 $100 $101 forward $39 $-1 #
coedge $-1 $102 $103 $99 $104 forward $41 $-1 #
coedge $-1 $42 $42 $43 $69 forward $22 $-1 #
edge $-1 $46 0 $70 3.1415926535897931 $68 $105 forward 7 unknown #
vertex $-1 $69 $106 #
straight-curve $-1 -0.125 1.5307579422779716e-017 0 0 0 1 I I #
ellipse-curve $-1 3.4694469519536142e-018 -6.9388939039072284e-018 0.19999999999999998 0 0 -1 -0.125 6.9388939039072284e-018 0 1 I I #
point $-1 0.125 0 0.19999999999999998 #
coedge $-1 $51 $48 $107 $108 reversed $11 $-1 #
coedge $-1 $109 $110 $48 $76 forward $96 $-1 #
edge $-1 $111 0 $80 0.25000000000000011 $48 $112 forward 7 unknown #
coedge $-1 $113 $49 $55 $91 forward $79 $-1 #
coedge $-1 $49 $113 $109 $114 reversed $79 $-1 #
loop $-1 $-1 $77 $95 #
vertex $-1 $76 $115 #
straight-curve $-1 0.125 0.21650635094610976 0 -1 0 0 I I #
coedge $-1 $66 $116 $51 $83 forward $39 $-1 #
edge $-1 $87 0 $117 0.25 $51 $118 forward 7 unknown #
coedge $-1 $119 $52 $116 $120 forward $86 $-1 #
coedge $-1 $52 $119 $54 $90 reversed $86 $-1 #
loop $-1 $-1 $84 $121 #
vertex $-1 $53 $122 #
straight-curve $-1 -0.25 0 0 0.49999999999999989 -0.86602540378443882 0 I I #
coedge $-1 $55 $54 $123 $124 reversed $56 $-1 #
edge $-1 $58 0 $125 0.19999999999999998 $85 $126 forward 7 unknown #
edge $-1 $57 0 $127 0.19999999999999998 $77 $128 forward 7 unknown #
face $-1 $121 $56 $3 $-1 $129 forward single #
point $-1 -0.125 0.21650635094610976 0 #
point $-1 -0.25 0 0 #
face $-1 $92 $79 $3 $-1 $130 forward single #
loop $-1 $-1 $109 $63 #
plane-surface $-1 0.25 0 0 0.86602540378443882 0.49999999999999989 0 -0.5 0.86602540378443904 0 forward_v I I I I #
coedge $-1 $131 $107 $110 $132 forward $64 $-1 #
coedge $-1 $116 $66 $67 $104 reversed $39 $-1 #
coedge $-1 $107 $131 $66 $101 reversed $64 $-1 #
edge $-1 $117 0 $133 0.19999999999999998 $66 $134 forward 7 unknown #
coedge $-1 $135 $67 $131 $136 forward $41 $-1 #
coedge $-1 $67 $123 $119 $137 forward $41 $-1 #
edge $-1 $138 0 $133 0.25 $67 $139 forward 7 unknown #
ellipse-curve $-1 0 -3.4694469519536142e-018 0.19999999999999998 0 0 -1 0.125 3.4694469519536142e-018 0 1 I I #
point $-1 -0.125 0 0.19999999999999998 #
coedge $-1 $98 $100 $74 $108 forward $64 $-1 #
edge $-1 $117 0 $111 0.25000000000000011 $74 $140 forward 7 unknown #
coedge $-1 $141 $75 $78 $114 forward $96 $-1 #
coedge $-1 $75 $141 $98 $132 reversed $96 $-1 #
vertex $-1 $108 $142 #
straight-curve $-1 0.25 0 0 -0.49999999999999989 0.86602540378443882 0 I I #
coedge $-1 $78 $77 $143 $144 reversed $79 $-1 #
edge $-1 $80 0 $145 0.19999999999999998 $109 $146 forward 7 unknown #
point $-1 0.125 0.21650635094610976 0 #
coedge $-1 $82 $99 $84 $120 reversed $39 $-1 #
vertex $-1 $83 $147 #
straight-curve $-1 -0.125 -0.21650635094610976 0 1 0 0 I I #
coedge $-1 $85 $84 $103 $137 reversed $86 $-1 #
edge $-1 $87 0 $138 0.19999999999999998 $84 $148 forward 7 unknown #
face $-1 $-1 $86 $3 $-1 $149 forward single #
point $-1 -0.125 -0.21650635094610976 0 #
coedge $-1 $103 $143 $89 $124 forward $41 $-1 #
edge $-1 $127 0 $125 0.25000000000000011 $123 $150 forward 7 unknown #
vertex $-1 $137 $151 #
straight-curve $-1 -0.25 0 0 0 0 1 I I #
vertex $-1 $124 $152 #
straight-curve $-1 -0.125 0.21650635094610976 0 0 0 1 I I #
plane-surface $-1 -0.125 0.21650635094610976 0 -0.86602540378443882 0.49999999999999989 0 -0.5 -0.86602540378443904 0 forward_v I I I I #
plane-surface $-1 0.125 0.21650635094610976 0 0 1 0 -1 0 0 forward_v I I I I #
coedge $-1 $100 $98 $102 $136 reversed $64 $-1 #
edge $-1 $111 0 $153 0.19999999999999998 $98 $154 forward 7 unknown #
vertex $-1 $136 $155 #
straight-curve $-1 0.125 -0.21650635094610976 0 0 0 1 I I #
coedge $-1 $143 $102 $141 $156 forward $41 $-1 #
edge $-1 $133 0 $153 0.25000000000000011 $102 $157 forward 7 unknown #
edge $-1 $125 0 $138 0.25000000000000011 $103 $158 forward 7 unknown #
vertex $-1 $137 $159 #
straight-curve $-1 -0.125 -0.21650635094610976 0.19999999999999998 1 0 0 I I #
straight-curve $-1 0.125 -0.21650635094610976 0 0.49999999999999989 0.86602540378443882 0 I I #
coedge $-1 $110 $109 $135 $156 reversed $96 $-1 #
point $-1 0.25 0 0 #
coedge $-1 $123 $135 $113 $144 forward $41 $-1 #
edge $-1 $145 0 $127 0.25 $143 $160 forward 7 unknown #
vertex $-1 $144 $161 #
straight-curve $-1 0.125 0.21650635094610976 0 0 0 1 I I #
point $-1 0.125 -0.21650635094610976 0 #
straight-curve $-1 -0.125 -0.21650635094610976 0 0 0 1 I I #
plane-surface $-1 -0.25 0 0 -0.86602540378443882 -0.49999999999999989 0 0.5 -0.86602540378443904 0 forward_v I I I I #
straight-curve $-1 -0.125 0.21650635094610976 0.19999999999999998 -0.49999999999999989 -0.86602540378443882 0 I I #
point $-1 -0.25 0 0.19999999999999998 #
point $-1 -0.125 0.21650635094610976 0.19999999999999998 #
vertex $-1 $156 $162 #
straight-curve $-1 0.25 0 0 0 0 1 I I #
point $-1 0.125 -0.21650635094610976 0.19999999999999998 #
edge $-1 $153 0 $145 0.25000000000000011 $135 $163 forward 7 unknown #
straight-curve $-1 0.125 -0.21650635094610976 0.19999999999999998 0.49999999999999989 0.86602540378443882 0 I I #
straight-curve $-1 -0.25 0 0.19999999999999998 0.49999999999999989 -0.86602540378443882 0 I I #
point $-1 -0.125 -0.21650635094610976 0.19999999999999998 #
straight-curve $-1 0.125 0.21650635094610976 0.19999999999999998 -1 0 0 I I #
point $-1 0.125 0.21650635094610976 0.19999999999999998 #
point $-1 0.25 0 0.19999999999999998 #
straight-curve $-1 0.25 0 0.19999999999999998 -0.49999999999999989 0.86602540378443882 0 I I #
End-of-ACIS-data 