700 0 2 0           
24 FBMach with ACIS - 7.0.3 13 ACIS 7.0.3 NT 24 Wed May 15 11:12:47 2002 
1 9.9999999999999995e-007 1e-010 
body $2 -1 $-1 $3 $-1 $4 #
bdycol-kcp $-1 -1 1 3 $5 $6 $7 #
model_id-kcp-attrib $-1 -1 $-1 $-1 $0 1 1021475566 1021475566 -602406911 1 #
lump $-1 -1 $-1 $-1 $8 $0 #
transform $-1 -1 1 0 0 0 1 0 0 0 1 0 0 0 1 rotate no_reflect no_shear #
body $9 -1 $-1 $10 $-1 $11 #
body $12 -1 $-1 $13 $-1 $14 #
body $15 -1 $-1 $16 $-1 $17 #
shell $-1 -1 $-1 $-1 $-1 $18 $-1 $3 #
model_id-kcp-attrib $-1 -1 $-1 $-1 $5 1 1021475566 1021475566 -602406910 1 #
lump $-1 -1 $-1 $-1 $19 $5 #
transform $-1 -1 1 0 0 0 1 0 0 0 1 0 0 0.6349999999999999 1 no_rotate no_reflect no_shear #
rgb_color-st-attrib $-1 -1 $20 $-1 $6 0.5 1 1 #
lump $-1 -1 $-1 $-1 $21 $6 #
transform $-1 -1 1 0 0 0 1 0 0 0 1 0 0 0.6349999999999999 1 no_rotate no_reflect no_shear #
rgb_color-st-attrib $-1 -1 $22 $-1 $7 0.5 1 1 #
lump $-1 -1 $-1 $-1 $23 $7 #
transform $-1 -1 1 0 0 0 1 0 0 0 1 0 0 0 1 no_rotate no_reflect no_shear #
face $24 -1 $-1 $25 $26 $8 $-1 $27 reversed single #
shell $-1 -1 $-1 $-1 $-1 $28 $-1 $10 #
model_id-kcp-attrib $-1 -1 $-1 $12 $6 1 1021475566 1021475566 -595787773 1 #
shell $-1 -1 $-1 $-1 $-1 $29 $-1 $13 #
model_id-kcp-attrib $-1 -1 $-1 $15 $7 1 1021475566 1021475566 -591855612 1 #
shell $-1 -1 $-1 $-1 $-1 $30 $-1 $16 #
model_id-kcp-attrib $-1 -1 $-1 $-1 $18 1 1021475566 1021475566 -602406911 2 #
face $31 -1 $-1 $32 $33 $8 $-1 $34 forward single #
loop $-1 -1 $-1 $35 $36 $18 #
plane-surface $-1 -1 $-1 0 0 0 0 0 1 25.399999999999999 0 0 forward_v I I I I #
face $37 -1 $-1 $38 $39 $19 $-1 $40 forward single #
face $-1 -1 $-1 $41 $42 $21 $-1 $43 reversed single #
face $-1 -1 $-1 $44 $45 $23 $-1 $46 forward single #
model_id-kcp-attrib $-1 -1 $-1 $-1 $25 1 1021475566 1021475566 -602406911 3 #
face $47 -1 $-1 $48 $49 $8 $-1 $50 forward single #
loop $-1 -1 $-1 $-1 $51 $25 #
cone-surface $-1 -1 $-1 0 0 0 0 0 1 6.3499999999999996 0 0 1 I I 0 1 6.3499999999999996 forward I I I I #
loop $-1 -1 $-1 $-1 $52 $18 #
coedge $-1 -1 $-1 $53 $53 $54 $55 reversed $26 $-1 #
model_id-kcp-attrib $-1 -1 $-1 $-1 $28 1 1021475566 1021475566 -602406910 3 #
face $56 -1 $-1 $57 $58 $19 $-1 $59 reversed single #
loop $-1 -1 $-1 $-1 $60 $28 #
plane-surface $-1 -1 $-1 0 0 0.6349999999999999 0 0 1 1 0 0 forward_v I I I I #
face $-1 -1 $-1 $61 $62 $21 $-1 $43 reversed single #
loop $-1 -1 $-1 $-1 $63 $29 #
cone-surface $-1 -1 $-1 -2.380711395892643e-032 0 -0.6349999999999999 0 0 -1 6.3499999999999996 0 0 1 I I 0 1 6.3499999999999996 forward I I I I #
face $-1 -1 $-1 $64 $65 $23 $-1 $66 forward single #
loop $-1 -1 $-1 $67 $68 $30 #
cone-surface $-1 -1 $-1 0 0 0 0 0 1 -3.1749999999999998 0 0 1 I I 0 1 3.1749999999999998 forward I I I I #
model_id-kcp-attrib $-1 -1 $-1 $-1 $32 1 1021475566 1021475566 -602406911 4 #
face $69 -1 $-1 $70 $71 $8 $-1 $72 forward single #
loop $-1 -1 $-1 $-1 $73 $32 #
cone-surface $-1 -1 $-1 0 0 0 0 0 1 6.3499999999999996 0 0 1 I I 0 1 6.3499999999999996 forward I I I I #
coedge $-1 -1 $-1 $74 $54 $75 $76 forward $33 $-1 #
coedge $-1 -1 $-1 $77 $77 $78 $79 reversed $35 $-1 #
coedge $-1 -1 $-1 $36 $36 $80 $81 reversed $26 $-1 #
coedge $-1 -1 $-1 $51 $82 $36 $55 forward $33 $-1 #
edge $83 -1 $-1 $84 0 $85 3.1415926535897931 $36 $86 forward @7 unknown #
model_id-kcp-attrib $-1 -1 $-1 $-1 $38 1 1021475566 1021475566 -602406910 2 #
face $-1 -1 $-1 $87 $88 $19 $-1 $89 reversed single #
loop $-1 -1 $-1 $-1 $90 $38 #
plane-surface $-1 -1 $-1 0 0 -0.6349999999999999 0 0 1 1 0 0 forward_v I I I I #
coedge $-1 -1 $-1 $91 $92 $93 $94 forward $39 $-1 #
face $-1 -1 $-1 $95 $96 $21 $-1 $43 reversed single #
loop $-1 -1 $-1 $-1 $97 $41 #
coedge $-1 -1 $-1 $98 $99 $100 $101 forward $42 $-1 #
face $-1 -1 $-1 $-1 $102 $23 $-1 $103 reversed single #
loop $-1 -1 $-1 $-1 $104 $44 #
plane-surface $-1 -1 $-1 0 0 1.2699999999999998 0 0 1 1 0 0 forward_v I I I I #
loop $-1 -1 $-1 $-1 $105 $30 #
coedge $-1 -1 $-1 $68 $68 $104 $106 forward $45 $-1 #
model_id-kcp-attrib $-1 -1 $-1 $-1 $48 1 1021475566 1021475566 -602406911 5 #
face $107 -1 $-1 $108 $109 $8 $-1 $110 reversed single #
loop $-1 -1 $-1 $111 $112 $48 #
plane-surface $-1 -1 $-1 0 0 1.2699999999999998 0 0 1 25.399999999999999 0 0 forward_v I I I I #
coedge $-1 -1 $-1 $113 $80 $82 $114 forward $49 $-1 #
coedge $-1 -1 $-1 $82 $51 $112 $115 reversed $33 $-1 #
coedge $-1 -1 $-1 $80 $113 $51 $76 reversed $49 $-1 #
edge $-1 -1 $-1 $85 0 $116 0.049999999999999996 $75 $117 forward @7 unknown #
coedge $-1 -1 $-1 $52 $52 $118 $119 reversed $35 $-1 #
coedge $-1 -1 $-1 $120 $121 $52 $79 forward $109 $-1 #
edge $122 -1 $-1 $123 0 $124 3.1415926535897931 $52 $125 forward @7 unknown #
coedge $-1 -1 $-1 $73 $75 $53 $81 forward $49 $-1 #
edge $126 -1 $-1 $85 0 $84 3.1415926535897931 $53 $127 forward @7 unknown #
coedge $-1 -1 $-1 $54 $74 $73 $114 reversed $33 $-1 #
attrib_edge_convexity-kcp-attrib $-1 -1 $128 $-1 $55 1 #
vertex $-1 -1 $-1 $81 $129 #
vertex $-1 -1 $-1 $81 $130 #
ellipse-curve $-1 -1 $-1 0 0 0 0 0 1 -6.3499999999999996 0 0 1 I I #
face $-1 -1 $-1 $131 $132 $19 $-1 $133 reversed single #
loop $-1 -1 $-1 $-1 $134 $57 #
plane-surface $-1 -1 $-1 0 -6.3499999999999996 0 0 1 0 0 0 1 forward_v I I I I #
coedge $-1 -1 $-1 $135 $136 $137 $138 forward $58 $-1 #
coedge $-1 -1 $-1 $139 $60 $140 $141 forward $39 $-1 #
coedge $-1 -1 $-1 $60 $139 $142 $143 forward $39 $-1 #
coedge $-1 -1 $-1 $144 $145 $60 $94 reversed $146 $-1 #
edge $-1 -1 $-1 $147 -6.3499999999999996 $148 6.3499999999999996 $93 $149 forward @7 unknown #
face $-1 -1 $-1 $150 $151 $21 $-1 $43 reversed single #
loop $-1 -1 $-1 $-1 $152 $61 #
coedge $-1 -1 $-1 $153 $100 $154 $155 reversed $62 $-1 #
coedge $-1 -1 $-1 $156 $63 $157 $158 reversed $42 $-1 #
coedge $-1 -1 $-1 $63 $156 $159 $160 reversed $42 $-1 #
coedge $-1 -1 $-1 $97 $161 $162 $101 reversed $62 $-1 #
edge $-1 -1 $-1 $163 -1.2699999999999998 $164 0 $162 $165 forward @7 unknown #
loop $-1 -1 $-1 $-1 $166 $64 #
plane-surface $-1 -1 $-1 0 0 0 0 0 1 1 0 0 forward_v I I I I #
coedge $-1 -1 $-1 $104 $104 $68 $106 reversed $65 $-1 #
coedge $-1 -1 $-1 $105 $105 $166 $167 reversed $67 $-1 #
edge $-1 -1 $-1 $168 -3.1415926535897931 $168 3.1415926535897931 $68 $169 forward @7 unknown #
model_id-kcp-attrib $-1 -1 $-1 $-1 $70 1 1021475566 1021475566 -602406911 6 #
face $170 -1 $-1 $-1 $171 $8 $-1 $172 reversed single #
loop $-1 -1 $-1 $-1 $120 $70 #
cone-surface $-1 -1 $-1 0 0 0 0 0 1 3.1749999999999998 0 0 1 I I 0 1 3.1749999999999998 forward I I I I #
loop $-1 -1 $-1 $-1 $173 $48 #
coedge $-1 -1 $-1 $174 $174 $74 $115 forward $71 $-1 #
coedge $-1 -1 $-1 $75 $73 $174 $175 reversed $49 $-1 #
edge $-1 -1 $-1 $84 0 $176 0.049999999999999996 $73 $177 forward @7 unknown #
edge $-1 -1 $-1 $176 0 $116 3.1415926535897931 $112 $178 forward @7 unknown #
vertex $-1 -1 $-1 $175 $179 #
straight-curve $-1 -1 $-1 6.3499999999999996 0 0 0 0 25.399999999999999 I I #
coedge $-1 -1 $-1 $180 $181 $77 $119 forward $171 $-1 #
edge $182 -1 $-1 $124 0 $123 3.1415926535897931 $77 $183 forward @7 unknown #
coedge $-1 -1 $-1 $184 $78 $181 $185 forward $109 $-1 #
coedge $-1 -1 $-1 $78 $184 $180 $186 reversed $109 $-1 #
attrib_edge_convexity-kcp-attrib $-1 -1 $187 $-1 $79 1 #
vertex $-1 -1 $-1 $119 $188 #
vertex $-1 -1 $-1 $119 $189 #
ellipse-curve $-1 -1 $-1 0 0 0 0 0 -1 -3.1749999999999998 0 0 1 I I #
attrib_edge_convexity-kcp-attrib $-1 -1 $190 $-1 $81 1 #
ellipse-curve $-1 -1 $-1 0 0 0 0 0 1 6.3499999999999996 0 0 1 I I #
convexity-sys-attrib $-1 -1 $-1 $83 $55 #
point $-1 -1 $-1 -6.3499999999999996 0 0 #
point $-1 -1 $-1 6.3499999999999996 0 0 #
face $-1 -1 $-1 $191 $192 $19 $-1 $193 reversed single #
loop $-1 -1 $-1 $-1 $194 $87 #
plane-surface $-1 -1 $-1 -6.3499999999999996 0 0 1 0 0 0 0 -1 forward_v I I I I #
coedge $-1 -1 $-1 $195 $142 $196 $197 forward $88 $-1 #
coedge $-1 -1 $-1 $198 $90 $195 $199 forward $58 $-1 #
coedge $-1 -1 $-1 $90 $198 $200 $201 forward $58 $-1 #
coedge $-1 -1 $-1 $145 $144 $90 $138 reversed $146 $-1 #
edge $-1 -1 $-1 $202 -6.3499999999999996 $203 6.3499999999999996 $137 $204 forward @7 unknown #
coedge $-1 -1 $-1 $92 $91 $205 $206 forward $39 $-1 #
coedge $-1 -1 $-1 $207 $208 $91 $141 reversed $192 $-1 #
edge $-1 -1 $-1 $148 -6.3499999999999996 $209 6.3499999999999996 $140 $210 forward @7 unknown #
coedge $-1 -1 $-1 $134 $211 $92 $143 reversed $88 $-1 #
edge $-1 -1 $-1 $212 -6.3499999999999996 $147 6.3499999999999996 $142 $213 forward @7 unknown #
coedge $-1 -1 $-1 $137 $93 $211 $214 forward $146 $-1 #
coedge $-1 -1 $-1 $93 $137 $207 $215 reversed $146 $-1 #
loop $-1 -1 $-1 $-1 $144 $191 #
vertex $-1 -1 $-1 $94 $216 #
vertex $-1 -1 $-1 $94 $217 #
straight-curve $-1 -1 $-1 6.3499999999999996 0 0.6349999999999999 0 1 0 I I #
face $-1 -1 $-1 $218 $219 $21 $-1 $220 reversed single #
loop $-1 -1 $-1 $-1 $221 $95 #
coedge $-1 -1 $-1 $222 $223 $224 $225 reversed $96 $-1 #
coedge $-1 -1 $-1 $161 $97 $226 $227 forward $62 $-1 #
coedge $-1 -1 $-1 $228 $229 $97 $155 forward $230 $-1 #
edge $-1 -1 $-1 $231 -3.1415926535897931 $163 -1.5707963267948966 $154 $232 forward @7 unknown #
coedge $-1 -1 $-1 $99 $98 $233 $234 reversed $42 $-1 #
coedge $-1 -1 $-1 $235 $236 $98 $158 forward $237 $-1 #
edge $-1 -1 $-1 $238 0 $164 1.5707963267948966 $157 $239 forward @7 unknown #
coedge $-1 -1 $-1 $240 $241 $99 $160 forward $242 $-1 #
edge $-1 -1 $-1 $163 -1.5707963267948966 $243 0 $159 $232 forward @7 unknown #
coedge $-1 -1 $-1 $100 $153 $244 $245 reversed $62 $-1 #
coedge $-1 -1 $-1 $246 $247 $248 $101 forward $249 $-1 #
vertex $-1 -1 $-1 $250 $251 #
vertex $-1 -1 $-1 $252 $253 #
straight-curve $-1 -1 $-1 -2.380711395892643e-032 6.3499999999999996 -0.6349999999999999 0 0 -1 I I #
coedge $-1 -1 $-1 $166 $166 $105 $167 forward $102 $-1 #
edge $-1 -1 $-1 $254 -3.1415926535897931 $254 3.1415926535897931 $105 $255 forward @7 unknown #
vertex $-1 -1 $-1 $106 $256 #
ellipse-curve $-1 -1 $-1 0 0 1.2699999999999998 0 0 -1 3.1749999999999998 0 0 1 I I #
model_id-kcp-attrib $-1 -1 $-1 $-1 $108 1 1021475566 1021475566 -602406911 7 #
loop $-1 -1 $-1 $-1 $180 $108 #
cone-surface $-1 -1 $-1 0 0 0 0 0 1 3.1749999999999998 0 0 1 I I 0 1 3.1749999999999998 forward I I I I #
coedge $-1 -1 $-1 $257 $257 $184 $258 forward $111 $-1 #
coedge $-1 -1 $-1 $112 $112 $113 $175 forward $71 $-1 #
edge $-1 -1 $-1 $116 0 $176 3.1415926535897931 $174 $259 forward @7 unknown #
vertex $-1 -1 $-1 $175 $260 #
straight-curve $-1 -1 $-1 -6.3499999999999996 7.7762503467720954e-016 0 0 0 25.399999999999999 I I #
ellipse-curve $-1 -1 $-1 0 0 1.2699999999999998 0 0 1 -6.3499999999999996 0 0 1 I I #
point $-1 -1 $-1 6.3499999999999996 0 1.2699999999999998 #
coedge $-1 -1 $-1 $261 $118 $121 $186 forward $171 $-1 #
coedge $-1 -1 $-1 $118 $261 $120 $185 reversed $171 $-1 #
attrib_edge_convexity-kcp-attrib $-1 -1 $262 $-1 $119 1 #
ellipse-curve $-1 -1 $-1 0 0 0 0 0 -1 3.1749999999999998 0 0 1 I I #
coedge $-1 -1 $-1 $121 $120 $173 $258 reversed $109 $-1 #
edge $-1 -1 $-1 $124 0 $263 0.049999999999999996 $181 $264 forward @7 unknown #
edge $-1 -1 $-1 $123 0 $265 0.049999999999999996 $180 $266 forward @7 unknown #
convexity-sys-attrib $-1 -1 $-1 $122 $79 #
point $-1 -1 $-1 -3.1749999999999998 0 0 #
point $-1 -1 $-1 3.1749999999999998 0 0 #
convexity-sys-attrib $-1 -1 $-1 $126 $81 #
face $-1 -1 $-1 $-1 $146 $19 $-1 $267 reversed single #
loop $-1 -1 $-1 $-1 $207 $131 #
plane-surface $-1 -1 $-1 0 6.3499999999999996 0 0 -1 0 0 0 -1 forward_v I I I I #
coedge $-1 -1 $-1 $268 $205 $208 $269 forward $132 $-1 #
coedge $-1 -1 $-1 $211 $134 $135 $199 reversed $88 $-1 #
coedge $-1 -1 $-1 $205 $268 $134 $197 reversed $132 $-1 #
edge $-1 -1 $-1 $212 -0.6349999999999999 $270 0.6349999999999999 $196 $271 forward @7 unknown #
coedge $-1 -1 $-1 $136 $135 $268 $272 forward $58 $-1 #
edge $-1 -1 $-1 $203 -6.3499999999999996 $270 6.3499999999999996 $195 $273 forward @7 unknown #
coedge $-1 -1 $-1 $208 $207 $136 $201 reversed $192 $-1 #
edge $-1 -1 $-1 $274 -6.3499999999999996 $202 6.3499999999999996 $200 $275 forward @7 unknown #
vertex $-1 -1 $-1 $138 $276 #
vertex $-1 -1 $-1 $214 $277 #
straight-curve $-1 -1 $-1 6.3499999999999996 0 -0.6349999999999999 0 -1 0 I I #
coedge $-1 -1 $-1 $194 $196 $139 $206 reversed $132 $-1 #
edge $-1 -1 $-1 $209 -6.3499999999999996 $212 6.3499999999999996 $205 $278 forward @7 unknown #
coedge $-1 -1 $-1 $200 $140 $145 $215 forward $192 $-1 #
coedge $-1 -1 $-1 $140 $200 $194 $269 reversed $192 $-1 #
vertex $-1 -1 $-1 $141 $279 #
straight-curve $-1 -1 $-1 0 6.3499999999999996 0.6349999999999999 -1 0 0 I I #
coedge $-1 -1 $-1 $142 $195 $144 $214 reversed $88 $-1 #
vertex $-1 -1 $-1 $206 $280 #
straight-curve $-1 -1 $-1 0 -6.3499999999999996 0.6349999999999999 1 0 0 I I #
edge $-1 -1 $-1 $147 -0.6349999999999999 $203 0.6349999999999999 $144 $281 forward @7 unknown #
edge $-1 -1 $-1 $148 -0.6349999999999999 $202 0.6349999999999999 $145 $282 forward @7 unknown #
point $-1 -1 $-1 6.3499999999999996 -6.3499999999999996 0.6349999999999999 #
point $-1 -1 $-1 6.3499999999999996 6.3499999999999996 0.6349999999999999 #
face $-1 -1 $-1 $283 $249 $21 $-1 $284 reversed single #
loop $-1 -1 $-1 $-1 $233 $150 #
plane-surface $-1 -1 $-1 6.3499999999999996 0 0 -1 0 0 0 0 1 forward_v I I I I #
coedge $-1 -1 $-1 $226 $285 $286 $287 reversed $151 $-1 #
coedge $-1 -1 $-1 $288 $152 $289 $290 reversed $96 $-1 #
coedge $-1 -1 $-1 $152 $288 $156 $234 forward $96 $-1 #
coedge $-1 -1 $-1 $291 $292 $152 $225 forward $293 $-1 #
edge $-1 -1 $-1 $294 -1.5707963267948966 $238 0 $224 $239 forward @7 unknown #
coedge $-1 -1 $-1 $295 $221 $296 $227 reversed $151 $-1 #
edge $-1 -1 $-1 $231 -1.2699999999999998 $297 0 $296 $298 forward @7 unknown #
coedge $-1 -1 $-1 $229 $154 $247 $250 forward $230 $-1 #
coedge $-1 -1 $-1 $154 $228 $299 $300 forward $230 $-1 #
loop $-1 -1 $-1 $-1 $154 $301 #
vertex $-1 -1 $-1 $302 $303 #
ellipse-curve $-1 -1 $-1 -2.380711395892643e-032 0 0.6349999999999999 0 0 -1 6.3499999999999996 0 0 1 I I #
coedge $-1 -1 $-1 $304 $305 $306 $234 forward $219 $-1 #
edge $-1 -1 $-1 $243 -1.2699999999999998 $238 0 $233 $307 forward @7 unknown #
coedge $-1 -1 $-1 $236 $157 $308 $252 forward $237 $-1 #
coedge $-1 -1 $-1 $157 $235 $304 $309 forward $237 $-1 #
loop $-1 -1 $-1 $-1 $157 $310 #
vertex $-1 -1 $-1 $311 $312 #
ellipse-curve $-1 -1 $-1 -2.380711395892643e-032 0 -0.6349999999999999 0 0 1 6.3499999999999996 0 0 1 I I #
coedge $-1 -1 $-1 $241 $159 $305 $313 forward $242 $-1 #
coedge $-1 -1 $-1 $159 $240 $314 $315 forward $242 $-1 #
loop $-1 -1 $-1 $-1 $159 $316 #
vertex $-1 -1 $-1 $313 $317 #
coedge $-1 -1 $-1 $318 $319 $161 $245 forward $320 $-1 #
edge $-1 -1 $-1 $164 1.5707963267948966 $297 3.1415926535897931 $244 $239 forward @7 unknown #
coedge $-1 -1 $-1 $321 $162 $319 $322 reversed $249 $-1 #
coedge $-1 -1 $-1 $162 $321 $228 $250 reversed $249 $-1 #
coedge $-1 -1 $-1 $314 $308 $63 $101 reversed $323 $-1 #
loop $-1 -1 $-1 $-1 $162 $218 #
edge $-1 -1 $-1 $163 2.380711395892643e-032 $324 6.3499999999999996 $247 $325 forward @7 unknown #
point $-1 -1 $-1 -2.380711395892643e-032 6.3499999999999996 0.6349999999999999 #
edge $-1 -1 $-1 $164 -2.380711395892643e-032 $326 6.3499999999999996 $308 $327 forward @7 unknown #
point $-1 -1 $-1 -2.380711395892643e-032 6.3499999999999996 -0.6349999999999999 #
vertex $-1 -1 $-1 $167 $328 #
ellipse-curve $-1 -1 $-1 0 0 0 0 0 -1 -3.1749999999999998 0 0 1 I I #
point $-1 -1 $-1 -3.1749999999999998 0 1.2699999999999998 #
coedge $-1 -1 $-1 $173 $173 $261 $329 forward $111 $-1 #
edge $-1 -1 $-1 $265 0 $263 3.1415926535897931 $173 $330 forward @7 unknown #
ellipse-curve $-1 -1 $-1 0 0 1.2699999999999998 0 0 1 6.3499999999999996 0 0 1 I I #
point $-1 -1 $-1 -6.3499999999999996 0 1.2699999999999998 #
coedge $-1 -1 $-1 $181 $180 $257 $329 reversed $171 $-1 #
convexity-sys-attrib $-1 -1 $-1 $182 $119 #
vertex $-1 -1 $-1 $329 $331 #
straight-curve $-1 -1 $-1 3.1749999999999998 0 0 0 -1.5552500693544194e-014 25.399999999999999 I I #
vertex $-1 -1 $-1 $329 $332 #
straight-curve $-1 -1 $-1 -3.1749999999999998 3.8881251733860477e-016 0 0 0 25.399999999999999 I I #
plane-surface $-1 -1 $-1 6.3499999999999996 0 0 -1 0 0 0 0 1 forward_v I I I I #
coedge $-1 -1 $-1 $196 $194 $198 $272 reversed $132 $-1 #
edge $-1 -1 $-1 $209 -0.6349999999999999 $274 0.6349999999999999 $208 $333 forward @7 unknown #
vertex $-1 -1 $-1 $272 $334 #
straight-curve $-1 -1 $-1 -6.3499999999999996 -6.3499999999999996 0 0 0 -1 I I #
edge $-1 -1 $-1 $270 -6.3499999999999996 $274 6.3499999999999996 $268 $335 forward @7 unknown #
straight-curve $-1 -1 $-1 0 -6.3499999999999996 -0.6349999999999999 -1 0 0 I I #
vertex $-1 -1 $-1 $201 $336 #
straight-curve $-1 -1 $-1 0 6.3499999999999996 -0.6349999999999999 1 0 0 I I #
point $-1 -1 $-1 6.3499999999999996 6.3499999999999996 -0.6349999999999999 #
point $-1 -1 $-1 6.3499999999999996 -6.3499999999999996 -0.6349999999999999 #
straight-curve $-1 -1 $-1 -6.3499999999999996 0 0.6349999999999999 0 -1 0 I I #
point $-1 -1 $-1 -6.3499999999999996 6.3499999999999996 0.6349999999999999 #
point $-1 -1 $-1 -6.3499999999999996 -6.3499999999999996 0.6349999999999999 #
straight-curve $-1 -1 $-1 6.3499999999999996 -6.3499999999999996 0 0 0 -1 I I #
straight-curve $-1 -1 $-1 6.3499999999999996 6.3499999999999996 0 0 0 -1 I I #
face $-1 -1 $-1 $337 $338 $21 $-1 $339 reversed single #
plane-surface $-1 -1 $-1 0 6.3499999999999996 0 0 -1 0 0 0 -1 forward_v I I I I #
coedge $-1 -1 $-1 $221 $295 $222 $290 forward $151 $-1 #
coedge $-1 -1 $-1 $340 $341 $221 $287 forward $342 $-1 #
edge $-1 -1 $-1 $297 -3.1415926535897931 $294 -1.5707963267948966 $286 $239 forward @7 unknown #
coedge $-1 -1 $-1 $223 $222 $343 $344 reversed $96 $-1 #
coedge $-1 -1 $-1 $345 $346 $347 $290 forward $348 $-1 #
edge $-1 -1 $-1 $349 -1.2699999999999998 $294 0 $289 $350 forward @7 unknown #
coedge $-1 -1 $-1 $292 $224 $351 $311 forward $293 $-1 #
coedge $-1 -1 $-1 $224 $291 $345 $352 forward $293 $-1 #
loop $-1 -1 $-1 $-1 $224 $353 #
vertex $-1 -1 $-1 $354 $355 #
coedge $-1 -1 $-1 $285 $226 $356 $357 reversed $151 $-1 #
coedge $-1 -1 $-1 $358 $359 $360 $227 forward $338 $-1 #
vertex $-1 -1 $-1 $361 $362 #
straight-curve $-1 -1 $-1 -6.3499999999999996 0 -0.6349999999999999 0 0 -1 I I #
coedge $-1 -1 $-1 $363 $360 $229 $300 reversed $364 $-1 #
edge $-1 -1 $-1 $324 -6.3499999999999996 $231 0 $299 $365 forward @7 unknown #
face $-1 -1 $-1 $316 $230 $21 $-1 $366 forward single #
edge $-1 -1 $-1 $231 0 $367 6.3499999999999996 $359 $365 forward @7 unknown #
point $-1 -1 $-1 -6.3499999999999996 0 0.6349999999999999 #
coedge $-1 -1 $-1 $368 $233 $236 $309 reversed $219 $-1 #
coedge $-1 -1 $-1 $233 $368 $240 $313 reversed $219 $-1 #
coedge $-1 -1 $-1 $369 $351 $223 $234 reversed $370 $-1 #
straight-curve $-1 -1 $-1 6.3499999999999996 0 -0.6349999999999999 0 0 -1 I I #
coedge $-1 -1 $-1 $248 $371 $235 $252 reversed $323 $-1 #
edge $-1 -1 $-1 $326 -6.3499999999999996 $238 0 $304 $372 forward @7 unknown #
face $-1 -1 $-1 $373 $237 $21 $-1 $374 reversed single #
edge $-1 -1 $-1 $238 0 $375 6.3499999999999996 $351 $372 forward @7 unknown #
point $-1 -1 $-1 6.3499999999999996 0 -0.6349999999999999 #
edge $-1 -1 $-1 $243 0 $376 6.3499999999999996 $305 $377 forward @7 unknown #
coedge $-1 -1 $-1 $371 $248 $241 $315 reversed $323 $-1 #
edge $-1 -1 $-1 $376 -6.3499999999999996 $163 2.380711395892643e-032 $314 $325 forward @7 unknown #
face $-1 -1 $-1 $378 $242 $21 $-1 $366 forward single #
point $-1 -1 $-1 6.3499999999999996 0 0.6349999999999999 #
coedge $-1 -1 $-1 $319 $244 $379 $361 forward $320 $-1 #
coedge $-1 -1 $-1 $244 $318 $246 $322 forward $320 $-1 #
loop $-1 -1 $-1 $-1 $244 $373 #
coedge $-1 -1 $-1 $247 $246 $363 $380 reversed $249 $-1 #
edge $-1 -1 $-1 $381 -6.3499999999999996 $164 -2.380711395892643e-032 $246 $327 forward @7 unknown #
loop $-1 -1 $-1 $-1 $248 $382 #
vertex $-1 -1 $-1 $250 $383 #
straight-curve $-1 -1 $-1 0 6.3499999999999996 0.6349999999999999 -1 0 0 I I #
vertex $-1 -1 $-1 $309 $384 #
straight-curve $-1 -1 $-1 0 6.3499999999999996 -0.6349999999999999 1 0 0 I I #
point $-1 -1 $-1 3.1749999999999998 0 0 #
edge $-1 -1 $-1 $263 0 $265 3.1415926535897931 $257 $385 forward @7 unknown #
ellipse-curve $-1 -1 $-1 8.8123952579621795e-017 -1.7624790515924359e-016 1.2699999999999998 0 0 -1 -3.1749999999999998 1.7624790515924359e-016 0 1 I I #
point $-1 -1 $-1 3.1749999999999998 0 1.2699999999999998 #
point $-1 -1 $-1 -3.1749999999999998 0 1.2699999999999998 #
straight-curve $-1 -1 $-1 -6.3499999999999996 6.3499999999999996 0 0 0 -1 I I #
point $-1 -1 $-1 -6.3499999999999996 -6.3499999999999996 -0.6349999999999999 #
straight-curve $-1 -1 $-1 -6.3499999999999996 0 -0.6349999999999999 0 1 0 I I #
point $-1 -1 $-1 -6.3499999999999996 6.3499999999999996 -0.6349999999999999 #
face $-1 -1 $-1 $301 $386 $21 $-1 $366 forward single #
loop $-1 -1 $-1 $-1 $296 $283 #
plane-surface $-1 -1 $-1 -6.3499999999999996 0 0 1 0 0 0 0 -1 forward_v I I I I #
coedge $-1 -1 $-1 $341 $286 $387 $354 forward $342 $-1 #
coedge $-1 -1 $-1 $286 $340 $358 $388 forward $342 $-1 #
loop $-1 -1 $-1 $-1 $286 $389 #
coedge $-1 -1 $-1 $390 $391 $288 $344 forward $392 $-1 #
edge $-1 -1 $-1 $243 0 $349 1.5707963267948966 $343 $232 forward @7 unknown #
coedge $-1 -1 $-1 $393 $289 $292 $352 reversed $348 $-1 #
coedge $-1 -1 $-1 $289 $393 $390 $394 reversed $348 $-1 #
coedge $-1 -1 $-1 $395 $387 $285 $290 reversed $396 $-1 #
loop $-1 -1 $-1 $-1 $289 $397 #
vertex $-1 -1 $-1 $394 $398 #
straight-curve $-1 -1 $-1 -2.380711395892643e-032 -6.3499999999999996 -0.6349999999999999 0 0 -1 I I #
coedge $-1 -1 $-1 $306 $399 $291 $311 reversed $370 $-1 #
edge $-1 -1 $-1 $375 -6.3499999999999996 $294 2.380711395892643e-032 $345 $400 forward @7 unknown #
face $-1 -1 $-1 $310 $293 $21 $-1 $374 reversed single #
edge $-1 -1 $-1 $294 2.380711395892643e-032 $401 6.3499999999999996 $387 $400 forward @7 unknown #
point $-1 -1 $-1 -2.380711395892643e-032 -6.3499999999999996 -0.6349999999999999 #
coedge $-1 -1 $-1 $402 $403 $295 $357 forward $386 $-1 #
edge $-1 -1 $-1 $349 1.5707963267948966 $231 3.1415926535897931 $356 $232 forward @7 unknown #
coedge $-1 -1 $-1 $404 $296 $341 $388 reversed $338 $-1 #
coedge $-1 -1 $-1 $296 $404 $402 $302 reversed $338 $-1 #
coedge $-1 -1 $-1 $299 $379 $153 $227 reversed $364 $-1 #
edge $-1 -1 $-1 $297 0 $381 6.3499999999999996 $379 $405 forward @7 unknown #
point $-1 -1 $-1 -6.3499999999999996 0 -0.6349999999999999 #
coedge $-1 -1 $-1 $379 $299 $321 $380 forward $364 $-1 #
loop $-1 -1 $-1 $-1 $360 $406 #
straight-curve $-1 -1 $-1 -6.3499999999999996 0 0.6349999999999999 0 -1 0 I I #
plane-surface $-1 -1 $-1 0 0 0.6349999999999999 0 0 1 1 0 0 forward_v I I I I #
vertex $-1 -1 $-1 $302 $407 #
coedge $-1 -1 $-1 $305 $304 $371 $408 reversed $219 $-1 #
coedge $-1 -1 $-1 $399 $306 $391 $409 reversed $370 $-1 #
loop $-1 -1 $-1 $-1 $306 $410 #
coedge $-1 -1 $-1 $308 $314 $368 $408 forward $323 $-1 #
straight-curve $-1 -1 $-1 6.3499999999999996 0 -0.6349999999999999 0 -1 0 I I #
face $-1 -1 $-1 $411 $320 $21 $-1 $374 reversed single #
plane-surface $-1 -1 $-1 0 0 -0.6349999999999999 0 0 1 1 0 0 forward_v I I I I #
vertex $-1 -1 $-1 $412 $413 #
vertex $-1 -1 $-1 $313 $414 #
straight-curve $-1 -1 $-1 6.3499999999999996 0 0.6349999999999999 0 1 0 I I #
face $-1 -1 $-1 $397 $392 $21 $-1 $366 forward single #
coedge $-1 -1 $-1 $360 $363 $318 $361 reversed $364 $-1 #
edge $-1 -1 $-1 $324 -0.6349999999999999 $381 0.6349999999999999 $321 $415 forward @7 unknown #
vertex $-1 -1 $-1 $322 $416 #
face $-1 -1 $-1 $410 $323 $21 $-1 $284 reversed single #
point $-1 -1 $-1 -6.3499999999999996 6.3499999999999996 0.6349999999999999 #
point $-1 -1 $-1 6.3499999999999996 6.3499999999999996 -0.6349999999999999 #
ellipse-curve $-1 -1 $-1 0 -8.8123952579621795e-017 1.2699999999999998 0 0 -1 3.1749999999999998 8.8123952579621795e-017 0 1 I I #
loop $-1 -1 $-1 $-1 $356 $337 #
coedge $-1 -1 $-1 $347 $417 $340 $354 reversed $396 $-1 #
edge $-1 -1 $-1 $401 -6.3499999999999996 $297 0 $358 $405 forward @7 unknown #
face $-1 -1 $-1 $353 $342 $21 $-1 $374 reversed single #
coedge $-1 -1 $-1 $391 $343 $346 $394 forward $392 $-1 #
coedge $-1 -1 $-1 $343 $390 $369 $409 forward $392 $-1 #
loop $-1 -1 $-1 $-1 $343 $378 #
coedge $-1 -1 $-1 $346 $345 $399 $412 reversed $348 $-1 #
edge $-1 -1 $-1 $349 -2.380711395892643e-032 $418 6.3499999999999996 $346 $419 forward @7 unknown #
coedge $-1 -1 $-1 $417 $347 $403 $420 reversed $396 $-1 #
loop $-1 -1 $-1 $-1 $347 $411 #
face $-1 -1 $-1 $389 $348 $21 $-1 $421 reversed single #
point $-1 -1 $-1 -2.380711395892643e-032 -6.3499999999999996 0.6349999999999999 #
coedge $-1 -1 $-1 $351 $369 $393 $412 forward $370 $-1 #
straight-curve $-1 -1 $-1 0 -6.3499999999999996 -0.6349999999999999 -1 0 0 I I #
vertex $-1 -1 $-1 $388 $422 #
coedge $-1 -1 $-1 $403 $356 $359 $302 forward $386 $-1 #
coedge $-1 -1 $-1 $356 $402 $395 $420 forward $386 $-1 #
coedge $-1 -1 $-1 $359 $358 $417 $423 reversed $338 $-1 #
straight-curve $-1 -1 $-1 -6.3499999999999996 0 -0.6349999999999999 0 1 0 I I #
face $-1 -1 $-1 $382 $364 $21 $-1 $339 reversed single #
point $-1 -1 $-1 -6.3499999999999996 -6.3499999999999996 0.6349999999999999 #
edge $-1 -1 $-1 $376 -0.6349999999999999 $326 0.6349999999999999 $368 $424 forward @7 unknown #
edge $-1 -1 $-1 $418 -6.3499999999999996 $243 0 $369 $377 forward @7 unknown #
face $-1 -1 $-1 $-1 $370 $21 $-1 $220 reversed single #
face $-1 -1 $-1 $406 $396 $21 $-1 $421 reversed single #
edge $-1 -1 $-1 $418 -0.6349999999999999 $375 0.6349999999999999 $399 $425 forward @7 unknown #
point $-1 -1 $-1 6.3499999999999996 -6.3499999999999996 -0.6349999999999999 #
point $-1 -1 $-1 6.3499999999999996 6.3499999999999996 0.6349999999999999 #
straight-curve $-1 -1 $-1 -6.3499999999999996 6.3499999999999996 0 0 0 -1 I I #
point $-1 -1 $-1 -6.3499999999999996 6.3499999999999996 -0.6349999999999999 #
coedge $-1 -1 $-1 $387 $395 $404 $423 forward $396 $-1 #
vertex $-1 -1 $-1 $409 $426 #
straight-curve $-1 -1 $-1 0 -6.3499999999999996 0.6349999999999999 1 0 0 I I #
edge $-1 -1 $-1 $367 -6.3499999999999996 $349 -2.380711395892643e-032 $395 $419 forward @7 unknown #
plane-surface $-1 -1 $-1 0 -6.3499999999999996 0 0 1 0 0 0 1 forward_v I I I I #
point $-1 -1 $-1 -6.3499999999999996 -6.3499999999999996 -0.6349999999999999 #
edge $-1 -1 $-1 $367 -0.6349999999999999 $401 0.6349999999999999 $404 $427 forward @7 unknown #
straight-curve $-1 -1 $-1 6.3499999999999996 6.3499999999999996 0 0 0 -1 I I #
straight-curve $-1 -1 $-1 6.3499999999999996 -6.3499999999999996 0 0 0 -1 I I #
point $-1 -1 $-1 6.3499999999999996 -6.3499999999999996 0.6349999999999999 #
straight-curve $-1 -1 $-1 -6.3499999999999996 -6.3499999999999996 0 0 0 -1 I I #
End-of-ACIS-data 