600 0 1 0           
110 GICL Pro/E ACIS Translator - Source: f:/data5/repository/PTC/V18/web_pub18/web_pub_models/w101324p02.prt - 6 0 13 ACIS 6.0.3 NT 24 Thu Apr 04 09:56:03 2002 
1 9.9999999999999995e-007 1e-010 
body $-1 $1 $-1 $2 #
lump $-1 $-1 $3 $0 #
transform $-1 1 0 0 0 1 0 0 0 1 0 0 0 25.399999999999999 no_rotate no_reflect no_shear #
shell $-1 $-1 $-1 $4 $-1 $1 #
face $-1 $5 $6 $3 $-1 $7 reversed single #
face $-1 $8 $9 $3 $-1 $10 forward single #
loop $-1 $11 $12 $4 #
plane-surface $-1 0 0 0 0 0 1 1 0 0 forward_v I I I I #
face $-1 $13 $14 $3 $-1 $15 forward single #
loop $-1 $-1 $16 $5 #
cone-surface $-1 0 0 0 0 0 1 0.25 0 0 1 I I 0 1 0.25 forward I I I I #
loop $-1 $-1 $17 $4 #
coedge $-1 $18 $18 $19 $20 reversed $6 $-1 #
face $-1 $21 $22 $3 $-1 $23 forward single #
loop $-1 $-1 $24 $8 #
cone-surface $-1 0 0 0 0 0 1 0.25 0 0 1 I I 0 1 0.25 forward I I I I #
coedge $-1 $25 $19 $26 $27 forward $9 $-1 #
coedge $-1 $28 $28 $29 $30 reversed $11 $-1 #
coedge $-1 $12 $12 $31 $32 reversed $6 $-1 #
coedge $-1 $16 $33 $12 $20 forward $9 $-1 #
edge $-1 $34 0 $35 3.1415926535897931 $12 $36 forward 7 unknown #
face $-1 $37 $38 $3 $-1 $39 reversed single #
loop $-1 $40 $41 $13 #
plane-surface $-1 0 0 0.049999999999999996 0 0 1 1 0 0 forward_v I I I I #
coedge $-1 $42 $31 $33 $43 forward $14 $-1 #
coedge $-1 $33 $16 $41 $44 reversed $9 $-1 #
coedge $-1 $31 $42 $16 $27 reversed $14 $-1 #
edge $-1 $35 0 $45 0.049999999999999996 $26 $46 forward 7 unknown #
coedge $-1 $17 $17 $47 $48 reversed $11 $-1 #
coedge $-1 $49 $50 $17 $30 forward $38 $-1 #
edge $-1 $51 0 $52 3.1415926535897931 $17 $53 forward 7 unknown #
coedge $-1 $24 $26 $18 $32 forward $14 $-1 #
edge $-1 $35 0 $34 3.1415926535897931 $18 $54 forward 7 unknown #
coedge $-1 $19 $25 $24 $43 reversed $9 $-1 #
vertex $-1 $32 $55 #
vertex $-1 $32 $56 #
ellipse-curve $-1 0 0 0 0 0 1 -0.25 0 0 1 I I #
face $-1 $-1 $57 $3 $-1 $58 reversed single #
loop $-1 $-1 $49 $21 #
cone-surface $-1 0 0 0 0 0 1 0.125 0 0 1 I I 0 1 0.125 forward I I I I #
loop $-1 $-1 $59 $13 #
coedge $-1 $60 $60 $25 $44 forward $22 $-1 #
coedge $-1 $26 $24 $60 $61 reversed $14 $-1 #
edge $-1 $34 0 $62 0.049999999999999996 $24 $63 forward 7 unknown #
edge $-1 $62 0 $45 3.1415926535897931 $41 $64 forward 7 unknown #
vertex $-1 $61 $65 #
straight-curve $-1 0.25 0 0 0 0 1 I I #
coedge $-1 $66 $67 $28 $48 forward $57 $-1 #
edge $-1 $52 0 $51 3.1415926535897931 $28 $68 forward 7 unknown #
coedge $-1 $69 $29 $67 $70 forward $38 $-1 #
coedge $-1 $29 $69 $66 $71 reversed $38 $-1 #
vertex $-1 $48 $72 #
vertex $-1 $48 $73 #
ellipse-curve $-1 0 0 0 0 0 -1 -0.125 0 0 1 I I #
ellipse-curve $-1 0 0 0 0 0 1 0.25 0 0 1 I I #
point $-1 -0.25 0 0 #
point $-1 0.25 0 0 #
loop $-1 $-1 $66 $37 #
cone-surface $-1 0 0 0 0 0 1 0.125 0 0 1 I I 0 1 0.125 forward I I I I #
coedge $-1 $74 $74 $69 $75 forward $40 $-1 #
coedge $-1 $41 $41 $42 $61 forward $22 $-1 #
edge $-1 $45 0 $62 3.1415926535897931 $60 $76 forward 7 unknown #
vertex $-1 $61 $77 #
straight-curve $-1 -0.25 3.0615158845559431e-017 0 0 0 1 I I #
ellipse-curve $-1 0 0 0.049999999999999996 0 0 1 -0.25 0 0 1 I I #
point $-1 0.25 0 0.049999999999999996 #
coedge $-1 $78 $47 $50 $71 forward $57 $-1 #
coedge $-1 $47 $78 $49 $70 reversed $57 $-1 #
ellipse-curve $-1 0 0 0 0 0 -1 0.125 0 0 1 I I #
coedge $-1 $50 $49 $59 $75 reversed $38 $-1 #
edge $-1 $52 0 $79 0.049999999999999996 $67 $80 forward 7 unknown #
edge $-1 $51 0 $81 0.049999999999999996 $66 $82 forward 7 unknown #
point $-1 -0.125 0 0 #
point $-1 0.125 0 0 #
coedge $-1 $59 $59 $78 $83 forward $40 $-1 #
edge $-1 $81 0 $79 3.1415926535897931 $59 $84 forward 7 unknown #
ellipse-curve $-1 0 0 0.049999999999999996 0 0 1 0.25 0 0 1 I I #
point $-1 -0.25 0 0.049999999999999996 #
coedge $-1 $67 $66 $74 $83 reversed $57 $-1 #
vertex $-1 $83 $85 #
straight-curve $-1 0.125 0 0 0 -6.1230317691118873e-016 1 I I #
vertex $-1 $83 $86 #
straight-curve $-1 -0.125 1.5307579422779716e-017 0 0 0 1 I I #
edge $-1 $79 0 $81 3.1415926535897931 $74 $87 forward 7 unknown #
ellipse-curve $-1 3.4694469519536142e-018 -6.9388939039072284e-018 0.049999999999999996 0 0 -1 -0.125 6.9388939039072284e-018 0 1 I I #
point $-1 0.125 0 0.049999999999999996 #
point $-1 -0.125 0 0.049999999999999996 #
ellipse-curve $-1 0 -3.4694469519536142e-018 0.049999999999999996 0 0 -1 0.125 3.4694469519536142e-018 0 1 I I #
End-of-ACIS-data 