600 0 1 0           
86 GICL ACIS Healer - Source: /gicl/data5/repository/STEP/STI/clevis23/clevis23.sat - 6 0 18 ACIS 6.0.3 Solaris 24 Sun Apr 14 00:10:32 2002 
1 9.999999999999999547e-07 1.000000000000000036e-10 
body $1 $2 $-1 $3 #
attrib_gssl_step_cc1_details-attrib_gssl_step-attrib $-1 $-1 $-1 $0 $4 $5 $6 $7 $8 $9 $10 $11 $12 $13 $14 $15 $16 $17 $18 $19 $20 $21 $22 $23 $24 $25 $26 $27 $28 $29 $30 $31 $32 $33 $34 $35 #
lump $-1 $-1 $36 $0 #
transform $-1 1 0 0 0 1 0 0 0 1 0 0 0 1 no_rotate no_reflect no_shear #
attrib_gssl_step_product_details-attrib_gssl_step-attrib $-1 $-1 $-1 $-1 7 Product 9 Test Part 1 1 6 detail 6 detail #
attrib_gssl_step_application_details-attrib_gssl_step-attrib $-1 $-1 $-1 $-1 70 configuration controlled 3d designs of mechanical parts and assemblies 22 International Standard 21 config_control_design 1994 #
attrib_gssl_step_mech_con_details-attrib_gssl_step-attrib $-1 $-1 $-1 $-1 19 3D Mechanical Parts 10 mechanical #
attrib_gssl_step_des_con_details-attrib_gssl_step-attrib $-1 $-1 $-1 $-1 19 3D Mechanical Parts 6 design #
attrib_gssl_step_person_details-attrib_gssl_step-attrib $-1 $-1 $-1 $-1 1 1 9 Last Name 10 First Name 0 0 0 #
attrib_gssl_step_person_details-attrib_gssl_step-attrib $-1 $-1 $-1 $-1 1 2 9 Last Name 10 First Name 0 0 0 #
attrib_gssl_step_person_details-attrib_gssl_step-attrib $-1 $-1 $-1 $-1 1 3 9 Last Name 10 First Name 0 0 0 #
attrib_gssl_step_person_details-attrib_gssl_step-attrib $-1 $-1 $-1 $-1 1 2 9 Last Name 10 First Name 0 0 0 #
attrib_gssl_step_person_details-attrib_gssl_step-attrib $-1 $-1 $-1 $-1 1 2 9 Last Name 10 First Name 0 0 0 #
attrib_gssl_step_person_details-attrib_gssl_step-attrib $-1 $-1 $-1 $-1 1 3 9 Last Name 10 First Name 0 0 0 #
attrib_gssl_step_person_details-attrib_gssl_step-attrib $-1 $-1 $-1 $-1 1 3 9 Last Name 10 First Name 0 0 0 #
attrib_gssl_step_person_details-attrib_gssl_step-attrib $-1 $-1 $-1 $-1 1 3 9 Last Name 10 First Name 0 0 0 #
attrib_gssl_step_org_details-attrib_gssl_step-attrib $-1 $-1 $-1 $-1 3 STI 3 R&D 3 R&D 12 design_owner #
attrib_gssl_step_org_details-attrib_gssl_step-attrib $-1 $-1 $-1 $-1 3 STI 3 R&D 3 R&D 7 creator #
attrib_gssl_step_org_details-attrib_gssl_step-attrib $-1 $-1 $-1 $-1 3 STI 3 R&D 3 R&D 0  #
attrib_gssl_step_org_details-attrib_gssl_step-attrib $-1 $-1 $-1 $-1 3 STI 3 R&D 3 R&D 7 creator #
attrib_gssl_step_org_details-attrib_gssl_step-attrib $-1 $-1 $-1 $-1 3 STI 3 R&D 3 R&D 15 design_supplier #
attrib_gssl_step_org_details-attrib_gssl_step-attrib $-1 $-1 $-1 $-1 3 STI 3 R&D 3 R&D 0  #
attrib_gssl_step_org_details-attrib_gssl_step-attrib $-1 $-1 $-1 $-1 3 STI 3 R&D 3 R&D 0  #
attrib_gssl_step_org_details-attrib_gssl_step-attrib $-1 $-1 $-1 $-1 3 STI 3 R&D 3 R&D 22 classification_officer #
attrib_gssl_step_datetime_details-attrib_gssl_step-attrib $-1 $-1 $-1 $-1 1997 1 1 0 0 0 5 0 1 13 creation_date #
attrib_gssl_step_datetime_details-attrib_gssl_step-attrib $-1 $-1 $-1 $-1 1997 1 1 0 0 0 5 0 1 0  #
attrib_gssl_step_datetime_details-attrib_gssl_step-attrib $-1 $-1 $-1 $-1 1997 1 1 0 0 0 5 0 1 0  #
attrib_gssl_step_datetime_details-attrib_gssl_step-attrib $-1 $-1 $-1 $-1 1997 1 1 0 0 0 5 0 1 19 classification_date #
attrib_gssl_step_datetime_details-attrib_gssl_step-attrib $-1 $-1 $-1 $-1 1997 1 1 0 0 0 5 0 1 0  #
attrib_gssl_step_security_details-attrib_gssl_step-attrib $-1 $-1 $-1 $-1 7 Version 20 Security for version 12 unclassified #
attrib_gssl_step_approval_details-attrib_gssl_step-attrib $-1 $-1 $-1 $-1 19 Definition approval 16 not_yet_approved 19 definition approval 0  #
attrib_gssl_step_approval_details-attrib_gssl_step-attrib $-1 $-1 $-1 $-1 16 Version approval 16 not_yet_approved 16 version approval 0  #
attrib_gssl_step_approval_details-attrib_gssl_step-attrib $-1 $-1 $-1 $-1 25 Version Security approval 16 not_yet_approved 25 version security approval 0  #
attrib_gssl_step_product_def_form_details-attrib_gssl_step-attrib $-1 $-1 $-1 $-1 9 Test Part 7 Version 0 #
attrib_gssl_step_product_def_details-attrib_gssl_step-attrib $-1 $-1 $-1 $-1 9 Test Part 7 Version #
attrib_gssl_step_product_def_spec_details-attrib_gssl_step-attrib $-1 $-1 $-1 $-1 9 Test Part 7 Version #
shell $-1 $-1 $-1 $37 $-1 $2 #
face $-1 $38 $39 $36 $-1 $40 reversed single #
face $-1 $41 $42 $36 $-1 $43 reversed single #
loop $-1 $44 $45 $37 #
plane-surface $-1 198.8188976377950041 23.62204724409449952 19.68503937007870164 0 -6.123031769111889989e-17 1 1 0 -0 forward_v I I I I #
face $-1 $46 $47 $36 $-1 $48 reversed single #
loop $-1 $49 $50 $38 #
plane-surface $-1 72.83464566929130513 23.62204724409449952 15.74803149606299968 0 -6.123031769111889989e-17 1 1 0 -0 forward_v I I I I #
loop $-1 $51 $52 $37 #
coedge $-1 $45 $45 $53 $54 reversed $39 $-1 #
face $-1 $55 $56 $36 $-1 $57 reversed single #
loop $-1 $58 $59 $41 #
plane-surface $-1 72.83464566929130513 23.62204724409449952 43.30708661417320116 0 -1 0 0 0 -1 forward_v I I I I #
loop $-1 $-1 $60 $38 #
coedge $-1 $61 $62 $63 $64 reversed $42 $-1 #
loop $-1 $-1 $65 $37 #
coedge $-1 $66 $67 $68 $69 forward $44 $-1 #
coedge $-1 $53 $53 $45 $54 forward $70 $-1 #
edge $-1 $71 0 $71 6.283185307179586232 $45 $72 forward 7 unknown #
face $-1 $73 $74 $36 $-1 $75 reversed single #
loop $-1 $76 $77 $46 #
cone-surface $-1 72.83464566929130513 59.05511811023620083 11.81102362204720002 0 0 1 19.68503937007870164 0 0 1 I I 0 1 19.68503937007870164 forward I I I I #
loop $-1 $78 $79 $41 #
coedge $-1 $80 $81 $82 $83 reversed $47 $-1 #
coedge $-1 $60 $60 $77 $84 reversed $49 $-1 #
coedge $-1 $85 $50 $86 $87 forward $42 $-1 #
coedge $-1 $50 $88 $89 $90 reversed $42 $-1 #
coedge $-1 $91 $92 $50 $64 forward $93 $-1 #
edge $-1 $94 1.968503937007902493 $95 21.65354330708660058 $50 $96 forward 7 unknown #
coedge $-1 $65 $65 $97 $98 reversed $51 $-1 #
coedge $-1 $99 $52 $100 $101 reversed $44 $-1 #
coedge $-1 $52 $102 $103 $104 reversed $44 $-1 #
coedge $-1 $105 $106 $52 $69 reversed $107 $-1 #
edge $-1 $108 -0.785398163397448279 $109 0.785398163397448279 $52 $110 forward 7 unknown #
loop $-1 $111 $53 $73 #
vertex $-1 $54 $112 #
ellipse-curve $-1 173.2283464566930036 62.99212598425199872 19.68503937007870164 0 6.123031769111889989e-17 -1 0 -9.842519685039370358 -6.026606071960521932e-16 1 I I #
face $-1 $113 $70 $36 $-1 $114 reversed single #
loop $-1 $115 $97 $55 #
cone-surface $-1 206.692913385827012 62.99212598425199872 15.74803149606299968 0 0 1 9.842519685039370358 0 0 1 I I 0 1 9.842519685039370358 forward I I I I #
loop $-1 $-1 $116 $46 #
coedge $-1 $77 $77 $60 $84 forward $56 $-1 #
loop $-1 $117 $118 $41 #
coedge $-1 $119 $120 $88 $121 forward $58 $-1 #
coedge $-1 $122 $59 $123 $124 reversed $47 $-1 #
coedge $-1 $59 $122 $125 $126 reversed $47 $-1 #
coedge $-1 $127 $128 $59 $83 forward $129 $-1 #
edge $-1 $130 -29.13385826771652631 $131 29.13385826771650144 $59 $132 forward 7 unknown #
edge $-1 $133 0 $133 6.283185307179586232 $60 $134 forward 7 unknown #
coedge $-1 $135 $61 $136 $137 reversed $42 $-1 #
coedge $-1 $138 $139 $61 $87 reversed $140 $-1 #
edge $-1 $94 -1.570796326794896558 $141 1.57079632679489678 $61 $142 forward 7 unknown #
coedge $-1 $62 $135 $79 $121 reversed $42 $-1 #
coedge $-1 $143 $144 $62 $90 forward $145 $-1 #
edge $-1 $95 -0.785398163397448279 $146 0.785398163397448279 $62 $147 forward 7 unknown #
coedge $-1 $148 $63 $144 $149 reversed $93 $-1 #
coedge $-1 $63 $148 $138 $150 reversed $93 $-1 #
loop $-1 $-1 $92 $151 #
vertex $-1 $64 $152 #
vertex $-1 $64 $153 #
straight-curve $-1 33.46456692913390185 61.02362204724410333 15.74803149606299968 0 -1 -6.123031769111889989e-17 I I #
coedge $-1 $97 $97 $65 $98 forward $74 $-1 #
edge $-1 $154 0 $154 6.283185307179586232 $65 $155 forward 7 unknown #
coedge $-1 $156 $66 $157 $158 reversed $44 $-1 #
coedge $-1 $159 $160 $66 $101 forward $161 $-1 #
edge $-1 $162 -17.71653543307090217 $109 25.59055118110240556 $66 $163 forward 7 unknown #
coedge $-1 $67 $164 $165 $166 forward $44 $-1 #
coedge $-1 $167 $168 $67 $104 forward $169 $-1 #
edge $-1 $108 -23.62204724409500045 $170 41.33858267716499313 $67 $171 forward 7 unknown #
coedge $-1 $172 $68 $168 $173 forward $107 $-1 #
coedge $-1 $68 $172 $159 $174 forward $107 $-1 #
loop $-1 $-1 $68 $175 #
vertex $-1 $69 $176 #
vertex $-1 $69 $177 #
ellipse-curve $-1 222.4409448818900046 78.7401574803150055 19.68503937007870164 6.162975822039153361e-33 6.123031769111889989e-17 -1 2.78388496530136953 2.78388496530136953 1.704581608409324046e-16 1 I I #
loop $-1 $-1 $178 $73 #
point $-1 173.2283464566930036 53.14960629921259994 19.68503937007870164 #
face $-1 $175 $179 $36 $-1 $180 forward single #
cone-surface $-1 173.2283464566930036 62.99212598425199872 15.74803149606299968 0 0 1 9.842519685039370358 0 0 1 I I 0 1 9.842519685039370358 forward I I I I #
loop $-1 $-1 $181 $55 #
coedge $-1 $116 $116 $182 $183 reversed $76 $-1 #
loop $-1 $184 $185 $41 #
coedge $-1 $118 $118 $186 $187 reversed $78 $-1 #
coedge $-1 $188 $79 $189 $190 reversed $58 $-1 #
coedge $-1 $79 $188 $143 $191 reversed $58 $-1 #
edge $-1 $146 -55.11811023622040295 $192 55.11811023622070138 $88 $193 forward 7 unknown #
coedge $-1 $81 $80 $194 $195 reversed $47 $-1 #
coedge $-1 $196 $197 $80 $124 forward $198 $-1 #
edge $-1 $199 -125.9842519685041395 $130 125.9842519685039832 $80 $200 forward 7 unknown #
coedge $-1 $201 $202 $81 $126 forward $203 $-1 #
edge $-1 $131 -125.9842519685039832 $204 125.9842519685041395 $81 $205 forward 7 unknown #
coedge $-1 $206 $82 $202 $207 forward $129 $-1 #
coedge $-1 $82 $208 $196 $209 forward $129 $-1 #
loop $-1 $-1 $128 $210 #
vertex $-1 $83 $211 #
vertex $-1 $83 $212 #
straight-curve $-1 253.9370078740159897 23.62204724409449952 29.52755905511810042 0 0 1 I I #
vertex $-1 $84 $213 #
ellipse-curve $-1 72.83464566929130513 59.05511811023620083 15.74803149606299968 0 6.123031769111889989e-17 -1 0 -19.68503937007870164 -1.20532121439210202e-15 1 I I #
coedge $-1 $88 $85 $214 $215 reversed $42 $-1 #
coedge $-1 $216 $217 $85 $137 forward $218 $-1 #
edge $-1 $219 -21.65354330708660058 $141 -1.968503937007902493 $85 $220 forward 7 unknown #
coedge $-1 $221 $86 $92 $150 forward $140 $-1 #
coedge $-1 $86 $221 $216 $222 forward $140 $-1 #
loop $-1 $-1 $86 $223 #
vertex $-1 $87 $224 #
ellipse-curve $-1 72.83464566929130513 59.05511811023620083 15.74803149606299968 0 6.123031769111889989e-17 -1 -4.821444091131309921e-15 39.37007874015750275 2.410642428784209956e-15 1 I I #
coedge $-1 $225 $89 $120 $191 forward $145 $-1 #
coedge $-1 $89 $225 $91 $149 forward $145 $-1 #
loop $-1 $-1 $144 $226 #
vertex $-1 $121 $227 #
ellipse-curve $-1 17.71653543307089862 39.37007874015750275 15.74803149606299968 0 6.123031769111888756e-17 -1 11.13553986120547812 -11.13553986120547812 -6.818326433637295197e-16 1 I I #
coedge $-1 $92 $91 $228 $229 forward $93 $-1 #
edge $-1 $230 -27.95275590551180045 $95 -0.3937007874015989728 $144 $231 forward 7 unknown #
edge $-1 $94 0.3937007874015989728 $232 27.95275590551180045 $138 $233 forward 7 unknown #
face $-1 $234 $93 $36 $-1 $235 reversed single #
point $-1 33.46456692913390185 59.05511811023620083 15.74803149606299968 #
point $-1 33.46456692913390185 39.37007874015750275 15.74803149606299968 #
vertex $-1 $98 $236 #
ellipse-curve $-1 206.692913385827012 62.99212598425199872 19.68503937007870164 0 6.123031769111889989e-17 -1 0 -9.842519685039370358 -6.026606071960521932e-16 1 I I #
coedge $-1 $237 $99 $238 $239 reversed $44 $-1 #
coedge $-1 $240 $241 $99 $158 forward $242 $-1 #
edge $-1 $243 -0.785398163397448279 $162 0.785398163397448279 $99 $244 forward 7 unknown #
coedge $-1 $245 $100 $106 $174 reversed $161 $-1 #
coedge $-1 $100 $245 $240 $246 reversed $161 $-1 #
loop $-1 $-1 $160 $247 #
vertex $-1 $101 $248 #
straight-curve $-1 226.3779527559059943 53.14960629921259994 19.68503937007870164 0 1 6.123031769111889989e-17 I I #
coedge $-1 $102 $237 $249 $250 reversed $44 $-1 #
coedge $-1 $251 $252 $102 $166 reversed $179 $-1 #
edge $-1 $253 -0.785398163397448279 $170 0.785398163397448279 $102 $254 forward 7 unknown #
coedge $-1 $255 $103 $252 $256 reversed $169 $-1 #
coedge $-1 $103 $255 $105 $173 reversed $169 $-1 #
loop $-1 $-1 $168 $257 #
vertex $-1 $166 $258 #
straight-curve $-1 198.8188976377950041 82.6771653543306968 19.68503937007870164 -1 0 0 I I #
coedge $-1 $106 $105 $259 $260 forward $107 $-1 #
edge $-1 $108 4.330708661417300931 $261 24.01574803149610204 $105 $262 forward 7 unknown #
edge $-1 $263 -24.01574803149610204 $109 -4.330708661417300931 $106 $264 forward 7 unknown #
face $-1 $265 $107 $36 $-1 $266 forward single #
point $-1 222.4409448818900046 82.6771653543306968 19.68503937007870164 #
point $-1 226.3779527559059943 78.7401574803150055 19.68503937007870164 #
coedge $-1 $178 $178 $267 $268 reversed $111 $-1 #
loop $-1 $-1 $165 $113 #
cone-surface $-1 157.480314960630011 78.7401574803150055 15.35433070866140071 0 0 -1 -3.93700787401574992 0 0 1 I I 0 1 3.93700787401574992 forward I I I I #
coedge $-1 $181 $181 $269 $270 reversed $115 $-1 #
coedge $-1 $182 $182 $116 $183 forward $271 $-1 #
edge $-1 $272 0 $272 6.283185307179586232 $116 $273 forward 7 unknown #
loop $-1 $274 $275 $41 #
coedge $-1 $185 $185 $276 $277 reversed $117 $-1 #
coedge $-1 $186 $186 $118 $187 forward $278 $-1 #
edge $-1 $279 0 $279 6.283185307179586232 $118 $280 forward 7 unknown #
coedge $-1 $120 $119 $281 $282 reversed $58 $-1 #
coedge $-1 $214 $283 $119 $190 forward $284 $-1 #
edge $-1 $285 -27.95275590551180045 $192 -0.3937007874015989728 $119 $286 forward 7 unknown #
edge $-1 $146 0.3937007874015989728 $287 27.95275590551180045 $120 $288 forward 7 unknown #
vertex $-1 $215 $289 #
straight-curve $-1 72.83464566929130513 23.62204724409449952 15.74803149606299968 1 0 0 I I #
coedge $-1 $290 $291 $122 $195 forward $292 $-1 #
edge $-1 $204 -15.35433070866140071 $199 42.9133858267716235 $122 $293 forward 7 unknown #
coedge $-1 $294 $123 $128 $209 reversed $198 $-1 #
coedge $-1 $123 $294 $290 $295 reversed $198 $-1 #
loop $-1 $-1 $123 $296 #
vertex $-1 $124 $297 #
straight-curve $-1 127.9527559055120065 23.62204724409449952 0.393700787401574992 1 0 0 I I #
coedge $-1 $298 $125 $291 $299 reversed $203 $-1 #
coedge $-1 $125 $298 $127 $207 reversed $203 $-1 #
loop $-1 $-1 $202 $300 #
vertex $-1 $195 $301 #
straight-curve $-1 127.9527559055120065 23.62204724409449952 58.66141732283460186 -1 0 0 I I #
coedge $-1 $302 $127 $303 $304 reversed $129 $-1 #
edge $-1 $131 55.11811023622050243 $305 78.7401574803150055 $202 $306 forward 7 unknown #
coedge $-1 $128 $307 $308 $309 reversed $129 $-1 #
edge $-1 $310 -78.7401574803150055 $130 -55.11811023622050243 $196 $311 forward 7 unknown #
face $-1 $312 $129 $36 $-1 $313 reversed single #
point $-1 253.9370078740159897 23.62204724409449952 0.393700787401574992 #
point $-1 253.9370078740159897 23.62204724409449952 58.66141732283460186 #
point $-1 72.83464566929130513 39.37007874015750275 15.74803149606299968 #
coedge $-1 $314 $189 $135 $215 forward $284 $-1 #
edge $-1 $192 -0.785398163397448279 $219 0.785398163397448279 $135 $315 forward 7 unknown #
coedge $-1 $316 $136 $139 $222 reversed $218 $-1 #
coedge $-1 $136 $316 $314 $317 reversed $218 $-1 #
loop $-1 $-1 $217 $234 #
vertex $-1 $137 $318 #
straight-curve $-1 112.2047244094489997 61.02362204724410333 15.74803149606299968 0 1 6.123031769111889989e-17 I I #
coedge $-1 $139 $138 $319 $320 forward $140 $-1 #
edge $-1 $321 -27.95275590551180045 $141 -0.3937007874015989728 $139 $322 forward 7 unknown #
face $-1 $323 $140 $36 $-1 $324 forward single #
point $-1 112.2047244094489997 59.05511811023620083 15.74803149606299968 #
coedge $-1 $144 $143 $325 $326 forward $145 $-1 #
face $-1 $223 $145 $36 $-1 $327 reversed single #
point $-1 17.71653543307089862 23.62204724409449952 15.74803149606299968 #
coedge $-1 $325 $319 $148 $229 reversed $328 $-1 #
edge $-1 $230 15.74803149606300323 $232 35.43307086614170487 $148 $329 forward 7 unknown #
vertex $-1 $149 $330 #
straight-curve $-1 33.46456692913390185 39.37007874015750275 15.35433070866140071 0 0 -1 I I #
vertex $-1 $150 $331 #
straight-curve $-1 33.46456692913390185 59.05511811023620083 15.35433070866140071 0 0 1 I I #
face $-1 $332 $218 $36 $-1 $333 reversed single #
plane-surface $-1 33.46456692913390185 61.02362204724410333 15.35433070866140071 1 0 0 0 0 -1 forward_v I I I I #
point $-1 206.692913385827012 53.14960629921259994 19.68503937007870164 #
coedge $-1 $164 $156 $334 $335 reversed $44 $-1 #
coedge $-1 $336 $337 $156 $239 forward $274 $-1 #
edge $-1 $338 -57.08661417322801412 $243 39.37007874015799302 $156 $339 forward 7 unknown #
coedge $-1 $340 $157 $160 $246 forward $242 $-1 #
coedge $-1 $157 $340 $336 $341 forward $242 $-1 #
loop $-1 $-1 $241 $342 #
vertex $-1 $158 $343 #
ellipse-curve $-1 238.1889763779529972 35.43307086614169776 19.68503937007870164 0 6.123031769111889989e-17 -1 -8.351654895904074394 -8.351654895904074394 -5.11374482522795069e-16 1 I I #
coedge $-1 $160 $159 $344 $345 reversed $161 $-1 #
edge $-1 $162 4.330708661417300931 $346 24.01574803149610204 $160 $347 forward 7 unknown #
face $-1 $342 $161 $36 $-1 $348 reversed single #
point $-1 226.3779527559059943 35.43307086614169776 19.68503937007870164 #
coedge $-1 $349 $350 $164 $250 forward $351 $-1 #
edge $-1 $253 -25.59055118110240556 $352 17.71653543307090217 $164 $353 forward 7 unknown #
coedge $-1 $354 $165 $350 $355 forward $179 $-1 #
coedge $-1 $165 $354 $167 $256 forward $179 $-1 #
vertex $-1 $250 $356 #
ellipse-curve $-1 157.480314960630011 78.7401574803150055 19.68503937007870164 -6.162975822039153361e-33 6.123031769111889989e-17 -1 -2.78388496530136953 2.78388496530136953 1.704581608409324046e-16 1 I I #
coedge $-1 $168 $167 $357 $358 reversed $169 $-1 #
edge $-1 $359 -24.01574803149610204 $170 -4.330708661417300931 $252 $360 forward 7 unknown #
face $-1 $247 $169 $36 $-1 $361 reversed single #
point $-1 157.480314960630011 82.6771653543306968 19.68503937007870164 #
coedge $-1 $357 $344 $172 $260 reversed $362 $-1 #
edge $-1 $261 -0.785398163397448279 $263 0.785398163397448279 $172 $363 forward 7 unknown #
vertex $-1 $173 $364 #
straight-curve $-1 222.4409448818900046 82.6771653543306968 15.35433070866140071 0 0 1 I I #
vertex $-1 $260 $365 #
straight-curve $-1 226.3779527559059943 78.7401574803150055 15.35433070866140071 0 0 -1 I I #
face $-1 $257 $351 $36 $-1 $366 reversed single #
cone-surface $-1 222.4409448818900046 78.7401574803150055 15.35433070866140071 0 0 -1 -3.93700787401574992 0 0 1 I I 0 1 3.93700787401574992 forward I I I I #
coedge $-1 $267 $267 $178 $268 forward $367 $-1 #
edge $-1 $368 0 $368 6.283185307179586232 $178 $369 forward 7 unknown #
coedge $-1 $269 $269 $181 $270 forward $370 $-1 #
edge $-1 $371 0 $371 6.283185307179586232 $181 $372 forward 7 unknown #
loop $-1 $328 $182 $373 #
vertex $-1 $183 $374 #
ellipse-curve $-1 72.83464566929130513 59.05511811023620083 43.30708661417320116 0 0 -1 -19.68503937007870164 0 0 1 I I #
loop $-1 $375 $337 $41 #
coedge $-1 $275 $275 $376 $377 reversed $184 $-1 #
coedge $-1 $276 $276 $185 $277 forward $378 $-1 #
edge $-1 $379 0 $379 6.283185307179586232 $185 $380 forward 7 unknown #
loop $-1 $381 $186 $382 #
vertex $-1 $187 $383 #
ellipse-curve $-1 246.0629921259840103 23.62204724409449952 7.874015748031499839 0 1 6.123031769111889989e-17 0 2.369661507494877096e-16 -3.870078740157480102 1 I I #
coedge $-1 $384 $325 $188 $282 forward $328 $-1 #
edge $-1 $287 -55.11811023622040295 $285 55.11811023622070138 $188 $385 forward 7 unknown #
coedge $-1 $189 $314 $384 $386 forward $284 $-1 #
loop $-1 $-1 $189 $323 #
vertex $-1 $190 $387 #
straight-curve $-1 127.9527559055120065 23.62204724409449952 15.35433070866140071 0 0 -1 I I #
vertex $-1 $282 $388 #
straight-curve $-1 17.71653543307089862 23.62204724409449952 15.35433070866140071 0 0 1 I I #
point $-1 127.9527559055120065 23.62204724409449952 15.74803149606299968 #
coedge $-1 $389 $194 $197 $295 forward $292 $-1 #
coedge $-1 $194 $390 $201 $299 forward $292 $-1 #
loop $-1 $-1 $194 $312 #
straight-curve $-1 1.968503937007870075 23.62204724409449952 43.30708661417320116 0 0 -1 I I #
coedge $-1 $197 $196 $391 $392 reversed $198 $-1 #
edge $-1 $199 55.11811023622050243 $393 78.7401574803150055 $197 $394 forward 7 unknown #
face $-1 $300 $198 $36 $-1 $395 reversed single #
point $-1 1.968503937007870075 23.62204724409449952 0.393700787401574992 #
coedge $-1 $202 $201 $396 $397 reversed $203 $-1 #
edge $-1 $398 -78.7401574803150055 $204 -55.11811023622050243 $201 $399 forward 7 unknown #
face $-1 $210 $203 $36 $-1 $400 reversed single #
point $-1 1.968503937007870075 23.62204724409449952 58.66141732283460186 #
coedge $-1 $401 $206 $402 $403 forward $129 $-1 #
coedge $-1 $396 $404 $206 $304 forward $405 $-1 #
edge $-1 $406 9.842519685039402333 $305 29.13385826771650144 $303 $407 forward 7 unknown #
vertex $-1 $304 $408 #
straight-curve $-1 253.9370078740159897 78.7401574803150055 58.66141732283460186 0 -1 6.123031769111889989e-17 I I #
coedge $-1 $208 $401 $409 $410 forward $129 $-1 #
coedge $-1 $411 $391 $208 $309 forward $412 $-1 #
edge $-1 $310 -29.13385826771652631 $413 -9.84251968503939878 $208 $414 forward 7 unknown #
vertex $-1 $209 $415 #
straight-curve $-1 253.9370078740159897 78.7401574803150055 0.393700787401574992 0 1 -6.123031769111889989e-17 I I #
face $-1 $416 $292 $36 $-1 $417 reversed single #
plane-surface $-1 253.9370078740159897 78.7401574803150055 29.52755905511810042 -1 0 0 0 -0 1 forward_v I I I I #
coedge $-1 $283 $214 $217 $317 forward $284 $-1 #
ellipse-curve $-1 127.9527559055120065 39.37007874015750275 15.74803149606299968 0 6.123031769111888756e-17 -1 -11.13553986120547812 -11.13553986120547812 -6.818326433637295197e-16 1 I I #
coedge $-1 $217 $216 $418 $419 forward $218 $-1 #
edge $-1 $219 0.3937007874015989728 $420 27.95275590551180045 $314 $421 forward 7 unknown #
point $-1 112.2047244094489997 39.37007874015750275 15.74803149606299968 #
coedge $-1 $228 $418 $221 $320 reversed $328 $-1 #
edge $-1 $232 -1.570796326794896558 $321 1.57079632679489678 $221 $422 forward 7 unknown #
vertex $-1 $320 $423 #
straight-curve $-1 112.2047244094489997 59.05511811023620083 15.35433070866140071 0 0 -1 I I #
face $-1 $151 $284 $36 $-1 $424 reversed single #
cone-surface $-1 72.83464566929130513 59.05511811023620083 15.35433070866140071 0 0 -1 -39.37007874015750275 0 0 1 I I 0 1 39.37007874015750275 forward I I I I #
coedge $-1 $281 $228 $225 $326 reversed $328 $-1 #
edge $-1 $287 -0.785398163397448279 $230 0.785398163397448279 $225 $425 forward 7 unknown #
cone-surface $-1 17.71653543307089862 39.37007874015750275 15.35433070866140071 0 0 1 15.74803149606299968 0 0 1 I I 0 1 15.74803149606299968 forward I I I I #
loop $-1 $-1 $228 $373 #
straight-curve $-1 33.46456692913390185 23.62204724409449952 43.30708661417320116 0 1 0 I I #
point $-1 33.46456692913390185 39.37007874015750275 43.30708661417320116 #
point $-1 33.46456692913390185 59.05511811023620083 43.30708661417320116 #
face $-1 $373 $370 $36 $-1 $426 reversed single #
plane-surface $-1 112.2047244094489997 61.02362204724410333 15.35433070866140071 -1 0 0 0 -0 1 forward_v I I I I #
coedge $-1 $427 $428 $237 $335 forward $429 $-1 #
edge $-1 $352 -0.785398163397448279 $338 0.785398163397448279 $237 $430 forward 7 unknown #
coedge $-1 $431 $238 $241 $341 reversed $274 $-1 #
coedge $-1 $238 $431 $427 $432 reversed $274 $-1 #
vertex $-1 $239 $433 #
straight-curve $-1 198.8188976377950041 23.62204724409449952 19.68503937007870164 1 0 0 I I #
coedge $-1 $241 $240 $434 $435 reversed $242 $-1 #
edge $-1 $436 -24.01574803149610204 $243 -4.330708661417300931 $336 $437 forward 7 unknown #
face $-1 $438 $242 $36 $-1 $439 reversed single #
point $-1 238.1889763779529972 23.62204724409449952 19.68503937007870164 #
coedge $-1 $259 $434 $245 $345 forward $362 $-1 #
edge $-1 $346 -19.68503937007880467 $263 23.62204724409450307 $245 $440 forward 7 unknown #
vertex $-1 $246 $441 #
straight-curve $-1 226.3779527559059943 35.43307086614169776 15.35433070866140071 0 0 1 I I #
plane-surface $-1 226.3779527559059943 53.14960629921259994 15.35433070866140071 -1 0 0 0 -0 1 forward_v I I I I #
coedge $-1 $442 $249 $428 $443 reversed $351 $-1 #
coedge $-1 $249 $442 $251 $355 reversed $351 $-1 #
loop $-1 $-1 $350 $265 #
vertex $-1 $335 $444 #
straight-curve $-1 153.5433070866139929 53.14960629921259994 19.68503937007870164 0 -1 -6.123031769111889989e-17 I I #
coedge $-1 $252 $251 $445 $446 forward $179 $-1 #
edge $-1 $253 4.330708661417300931 $447 24.01574803149610204 $251 $448 forward 7 unknown #
point $-1 153.5433070866139929 78.7401574803150055 19.68503937007870164 #
coedge $-1 $445 $259 $255 $358 forward $362 $-1 #
edge $-1 $261 -23.62204724409500045 $359 41.33858267716499313 $255 $449 forward 7 unknown #
vertex $-1 $446 $450 #
straight-curve $-1 157.480314960630011 82.6771653543306968 15.35433070866140071 0 0 -1 I I #
plane-surface $-1 189.9606299212599936 82.6771653543306968 15.35433070866140071 0 -1 0 0 0 -1 forward_v I I I I #
loop $-1 $-1 $451 $332 #
ellipse-curve $-1 222.4409448818900046 78.7401574803150055 39.37007874015750275 0 0 -1 2.78388496530136953 2.78388496530136953 0 1 I I #
point $-1 222.4409448818900046 82.6771653543306968 39.37007874015750275 #
point $-1 226.3779527559059943 78.7401574803150055 39.37007874015750275 #
plane-surface $-1 153.5433070866139929 53.14960629921259994 15.35433070866140071 1 0 0 0 0 -1 forward_v I I I I #
loop $-1 $362 $267 $332 #
vertex $-1 $268 $452 #
ellipse-curve $-1 173.2283464566930036 62.99212598425199872 39.37007874015750275 0 0 -1 -9.842519685039370358 0 0 1 I I #
loop $-1 $367 $269 $332 #
vertex $-1 $270 $453 #
ellipse-curve $-1 206.692913385827012 62.99212598425199872 39.37007874015750275 0 0 -1 -9.842519685039370358 0 0 1 I I #
face $-1 $454 $271 $36 $-1 $455 reversed single #
point $-1 53.14960629921259994 59.05511811023620083 43.30708661417320116 #
loop $-1 $456 $457 $41 #
coedge $-1 $376 $376 $275 $377 forward $458 $-1 #
edge $-1 $459 0 $459 6.283185307179586232 $275 $460 forward 7 unknown #
loop $-1 $461 $276 $462 #
vertex $-1 $277 $463 #
ellipse-curve $-1 127.9527559055120065 23.62204724409449952 7.874015748031499839 0 1 6.123031769111889989e-17 0 2.369661507494877096e-16 -3.870078740157480102 1 I I #
loop $-1 $-1 $464 $382 #
face $-1 $465 $278 $36 $-1 $466 reversed single #
point $-1 246.0629921259840103 23.62204724409449952 4.003937007874020182 #
coedge $-1 $418 $281 $283 $386 reversed $328 $-1 #
straight-curve $-1 72.83464566929130513 23.62204724409449952 43.30708661417320116 1 0 0 I I #
edge $-1 $420 -0.785398163397448279 $285 0.785398163397448279 $283 $467 forward 7 unknown #
point $-1 127.9527559055120065 23.62204724409449952 43.30708661417320116 #
point $-1 17.71653543307089862 23.62204724409449952 43.30708661417320116 #
coedge $-1 $468 $290 $469 $470 reversed $292 $-1 #
coedge $-1 $291 $471 $472 $473 reversed $292 $-1 #
coedge $-1 $308 $469 $294 $392 forward $412 $-1 #
edge $-1 $393 -125.9842519685041395 $310 125.9842519685039832 $294 $474 forward 7 unknown #
vertex $-1 $392 $475 #
straight-curve $-1 1.968503937007870075 78.7401574803150055 0.393700787401574992 0 -1 6.123031769111889989e-17 I I #
plane-surface $-1 127.9527559055120065 27.55905511811020148 0.393700787401574992 0 6.123031769111889989e-17 1 1 0 0 forward_v I I I I #
coedge $-1 $472 $303 $298 $397 forward $405 $-1 #
edge $-1 $305 -125.9842519685039832 $398 125.9842519685041395 $396 $476 forward 7 unknown #
vertex $-1 $397 $477 #
straight-curve $-1 1.968503937007870075 78.7401574803150055 58.66141732283460186 0 1 -6.123031769111889989e-17 I I #
plane-surface $-1 127.9527559055120065 27.55905511811020148 58.66141732283460186 0 -6.123031769111889989e-17 -1 -1 0 -0 forward_v I I I I #
coedge $-1 $307 $302 $478 $479 forward $129 $-1 #
coedge $-1 $480 $481 $302 $403 reversed $482 $-1 #
edge $-1 $406 -78.7401574803150055 $483 -70.86614173228350921 $402 $484 forward 7 unknown #
coedge $-1 $303 $472 $480 $485 forward $405 $-1 #
loop $-1 $-1 $404 $486 #
vertex $-1 $485 $487 #
straight-curve $-1 253.9370078740159897 1.807981821588159932e-15 29.52755905511810042 0 6.123031769111889989e-17 1 I I #
point $-1 253.9370078740159897 3.591857218888470196e-15 58.66141732283460186 #
coedge $-1 $488 $489 $307 $410 reversed $490 $-1 #
edge $-1 $491 70.86614173228350921 $413 78.7401574803150055 $409 $492 forward 7 unknown #
coedge $-1 $469 $308 $489 $493 forward $412 $-1 #
loop $-1 $-1 $411 $416 #
vertex $-1 $493 $494 #
straight-curve $-1 253.9370078740159897 1.807981821588159932e-15 29.52755905511810042 0 6.123031769111889989e-17 1 I I #
point $-1 253.9370078740159897 2.410642428784199886e-17 0.393700787401574992 #
face $-1 $-1 $495 $36 $-1 $496 forward single #
plane-surface $-1 1.968503937007870075 78.7401574803150055 29.52755905511810042 1 0 0 0 0 -1 forward_v I I I I #
coedge $-1 $319 $384 $316 $419 reversed $328 $-1 #
edge $-1 $321 39.37007874015750275 $420 59.05511811023620083 $316 $497 forward 7 unknown #
vertex $-1 $317 $498 #
straight-curve $-1 112.2047244094489997 39.37007874015750275 15.35433070866140071 0 0 1 I I #
ellipse-curve $-1 72.83464566929130513 59.05511811023620083 43.30708661417320116 0 0 -1 -2.410722045565660088e-15 39.37007874015750275 0 1 I I #
point $-1 112.2047244094489997 59.05511811023620083 43.30708661417320116 #
cone-surface $-1 127.9527559055120065 39.37007874015750275 15.35433070866140071 0 0 1 15.74803149606299968 0 0 1 I I 0 1 15.74803149606299968 forward I I I I #
ellipse-curve $-1 17.71653543307089862 39.37007874015750275 43.30708661417320116 0 0 1 11.13553986120547812 -11.13553986120547812 0 1 I I #
plane-surface $-1 198.8188976377950041 55.11811023622050243 39.37007874015750275 0 0 -1 -1 0 0 forward_v I I I I #
coedge $-1 $499 $334 $337 $432 forward $429 $-1 #
coedge $-1 $334 $499 $349 $443 forward $429 $-1 #
loop $-1 $-1 $428 $438 #
ellipse-curve $-1 141.73228346456699 35.43307086614169776 19.68503937007870164 0 6.123031769111889989e-17 -1 8.351654895904074394 -8.351654895904074394 -5.11374482522795069e-16 1 I I #
coedge $-1 $337 $336 $500 $501 reversed $274 $-1 #
edge $-1 $338 4.330708661417300931 $502 24.01574803149610204 $337 $503 forward 7 unknown #
point $-1 141.73228346456699 23.62204724409449952 19.68503937007870164 #
coedge $-1 $344 $500 $340 $435 forward $362 $-1 #
edge $-1 $436 -0.785398163397448279 $346 0.785398163397448279 $340 $504 forward 7 unknown #
vertex $-1 $341 $505 #
straight-curve $-1 238.1889763779529972 23.62204724409449952 15.35433070866140071 0 0 -1 I I #
face $-1 $226 $429 $36 $-1 $506 reversed single #
cone-surface $-1 238.1889763779529972 35.43307086614169776 15.35433070866140071 0 0 1 11.81102362204720002 0 0 1 I I 0 1 11.81102362204720002 forward I I I I #
straight-curve $-1 226.3779527559059943 55.11811023622050243 39.37007874015750275 0 1 0 I I #
point $-1 226.3779527559059943 35.43307086614169776 39.37007874015750275 #
coedge $-1 $350 $349 $451 $507 reversed $351 $-1 #
edge $-1 $508 -24.01574803149610204 $352 -4.330708661417300931 $349 $509 forward 7 unknown #
point $-1 153.5433070866139929 35.43307086614169776 19.68503937007870164 #
coedge $-1 $451 $357 $354 $446 reversed $362 $-1 #
edge $-1 $447 -0.785398163397448279 $359 0.785398163397448279 $354 $510 forward 7 unknown #
vertex $-1 $355 $511 #
straight-curve $-1 153.5433070866139929 78.7401574803150055 15.35433070866140071 0 0 1 I I #
straight-curve $-1 198.8188976377950041 82.6771653543306968 39.37007874015750275 -1 0 0 I I #
point $-1 157.480314960630011 82.6771653543306968 39.37007874015750275 #
coedge $-1 $512 $445 $442 $507 forward $362 $-1 #
point $-1 163.3858267716539956 62.99212598425199872 39.37007874015750275 #
point $-1 196.8503937007870093 62.99212598425199872 39.37007874015750275 #
face $-1 $513 $514 $36 $-1 $515 reversed single #
plane-surface $-1 72.83464566929130513 62.99212598425199872 43.30708661417320116 0 0 -1 -1 0 0 forward_v I I I I #
loop $-1 $516 $517 $41 #
coedge $-1 $457 $457 $518 $519 reversed $375 $-1 #
loop $-1 $520 $376 $521 #
vertex $-1 $377 $522 #
ellipse-curve $-1 9.842519685039370358 23.62204724409449952 7.874015748031499839 0 1 6.123031769111889989e-17 0 2.369661507494877096e-16 -3.870078740157480102 1 I I #
loop $-1 $-1 $523 $462 #
face $-1 $524 $378 $36 $-1 $525 reversed single #
point $-1 127.9527559055120065 23.62204724409449952 4.003937007874020182 #
coedge $-1 $464 $464 $526 $527 forward $381 $-1 #
face $-1 $528 $529 $36 $-1 $530 reversed single #
cone-surface $-1 246.0629921259840103 27.55905511811020148 7.874015748031499839 0 -1 6.123031769111889989e-17 0 -2.369661507494877096e-16 -3.870078740157480102 1 I I 0 1 3.870078740157480102 forward I I I I #
ellipse-curve $-1 127.9527559055120065 39.37007874015750275 43.30708661417320116 0 0 1 -11.13553986120547812 -11.13553986120547812 0 1 I I #
coedge $-1 $531 $389 $532 $533 forward $292 $-1 #
coedge $-1 $391 $411 $389 $470 forward $412 $-1 #
edge $-1 $534 9.84251968503939878 $393 29.13385826771652631 $389 $535 forward 7 unknown #
coedge $-1 $390 $531 $536 $537 forward $292 $-1 #
coedge $-1 $404 $396 $390 $473 forward $405 $-1 #
edge $-1 $398 -29.13385826771650144 $538 -9.842519685039402333 $472 $539 forward 7 unknown #
straight-curve $-1 127.9527559055120065 2.410642428784199886e-17 0.393700787401574992 1 0 0 I I #
point $-1 1.968503937007870075 2.410642428784199886e-17 0.393700787401574992 #
straight-curve $-1 127.9527559055120065 3.591857218888470196e-15 58.66141732283460186 -1 0 0 I I #
point $-1 1.968503937007870075 3.591857218888470196e-15 58.66141732283460186 #
coedge $-1 $540 $541 $401 $479 reversed $542 $-1 #
edge $-1 $483 -9.842519685039402333 $491 9.84251968503939878 $478 $543 forward 7 unknown #
coedge $-1 $536 $402 $404 $485 reversed $482 $-1 #
coedge $-1 $402 $536 $540 $544 reversed $482 $-1 #
loop $-1 $-1 $480 $545 #
vertex $-1 $544 $546 #
straight-curve $-1 253.9370078740159897 78.7401574803150055 39.37007874015750275 0 1 -6.123031769111889989e-17 I I #
edge $-1 $538 -125.9842519685041395 $406 125.9842519685039832 $480 $547 forward 7 unknown #
face $-1 $296 $548 $36 $-1 $549 forward single #
point $-1 253.9370078740159897 2.410642428784209956e-15 39.37007874015750275 #
coedge $-1 $532 $409 $541 $550 reversed $490 $-1 #
coedge $-1 $409 $532 $411 $493 reversed $490 $-1 #
loop $-1 $-1 $488 $551 #
vertex $-1 $550 $552 #
straight-curve $-1 253.9370078740159897 78.7401574803150055 19.68503937007870164 0 -1 6.123031769111889989e-17 I I #
edge $-1 $413 -125.9842519685039832 $534 125.9842519685041395 $489 $553 forward 7 unknown #
point $-1 253.9370078740159897 1.205321214392100048e-15 19.68503937007870164 #
loop $-1 $554 $555 $416 #
plane-surface $-1 127.9527559055120065 0 0 0 -1 0 0 0 -1 forward_v I I I I #
straight-curve $-1 112.2047244094489997 98.42519685039370358 43.30708661417320116 0 -1 0 I I #
point $-1 112.2047244094489997 39.37007874015750275 43.30708661417320116 #
coedge $-1 $428 $427 $512 $556 reversed $429 $-1 #
coedge $-1 $434 $512 $431 $501 forward $362 $-1 #
edge $-1 $502 -57.08661417322801412 $436 39.37007874015799302 $431 $557 forward 7 unknown #
vertex $-1 $432 $558 #
straight-curve $-1 141.73228346456699 23.62204724409449952 15.35433070866140071 0 0 1 I I #
ellipse-curve $-1 238.1889763779529972 35.43307086614169776 39.37007874015750275 -0 0 -1 -8.351654895904074394 -8.351654895904074394 0 1 I I #
point $-1 238.1889763779529972 23.62204724409449952 39.37007874015750275 #
cone-surface $-1 141.73228346456699 35.43307086614169776 15.35433070866140071 0 0 1 11.81102362204720002 0 0 1 I I 0 1 11.81102362204720002 forward I I I I #
edge $-1 $447 -23.62204724409450307 $508 19.68503937007880467 $442 $559 forward 7 unknown #
vertex $-1 $443 $560 #
straight-curve $-1 153.5433070866139929 35.43307086614169776 15.35433070866140071 0 0 -1 I I #
ellipse-curve $-1 157.480314960630011 78.7401574803150055 39.37007874015750275 0 0 -1 -2.78388496530136953 2.78388496530136953 0 1 I I #
point $-1 153.5433070866139929 78.7401574803150055 39.37007874015750275 #
coedge $-1 $500 $451 $499 $556 forward $362 $-1 #
face $-1 $561 $562 $36 $-1 $563 reversed single #
loop $-1 $564 $565 $454 #
cone-surface $-1 246.0629921259840103 27.55905511811020148 51.18110236220469744 0 -1 6.123031769111889989e-17 0 -2.369661507494877096e-16 -3.870078740157480102 1 I I 0 1 3.870078740157480102 forward I I I I #
loop $-1 $-1 $566 $41 #
coedge $-1 $517 $517 $567 $568 reversed $456 $-1 #
coedge $-1 $518 $518 $457 $519 forward $569 $-1 #
edge $-1 $570 0 $570 6.283185307179586232 $457 $571 forward 7 unknown #
loop $-1 $-1 $572 $521 #
face $-1 $573 $458 $36 $-1 $574 reversed single #
point $-1 9.842519685039370358 23.62204724409449952 4.003937007874020182 #
coedge $-1 $523 $523 $575 $576 forward $461 $-1 #
face $-1 $577 $578 $36 $-1 $579 reversed single #
cone-surface $-1 127.9527559055120065 27.55905511811020148 7.874015748031499839 0 -1 6.123031769111889989e-17 0 -2.369661507494877096e-16 -3.870078740157480102 1 I I 0 1 3.870078740157480102 forward I I I I #
coedge $-1 $526 $526 $464 $527 reversed $580 $-1 #
edge $-1 $581 0 $581 6.283185307179586232 $464 $582 forward 7 unknown #
face $-1 $462 $583 $36 $-1 $584 reversed single #
loop $-1 $580 $585 $465 #
plane-surface $-1 246.0629921259840103 7.874015748031499839 7.874015748031499839 0 1 -6.123031769111889989e-17 -0 6.123031769111889989e-17 1 forward_v I I I I #
coedge $-1 $471 $468 $586 $587 forward $292 $-1 #
coedge $-1 $489 $488 $468 $533 reversed $490 $-1 #
edge $-1 $534 -78.7401574803150055 $588 -70.86614173228350921 $532 $589 forward 7 unknown #
vertex $-1 $533 $590 #
straight-curve $-1 1.968503937007870075 1.807981821588159932e-15 29.52755905511810042 0 -6.123031769111889989e-17 -1 I I #
coedge $-1 $481 $480 $471 $537 reversed $482 $-1 #
edge $-1 $591 70.86614173228350921 $538 78.7401574803150055 $536 $592 forward 7 unknown #
vertex $-1 $485 $593 #
straight-curve $-1 1.968503937007870075 1.807981821588159932e-15 29.52755905511810042 0 -6.123031769111889989e-17 -1 I I #
coedge $-1 $586 $478 $481 $544 forward $542 $-1 #
coedge $-1 $478 $586 $488 $550 forward $542 $-1 #
loop $-1 $-1 $540 $594 #
straight-curve $-1 253.9370078740159897 7.874015748031499839 29.52755905511810042 0 -6.123031769111889989e-17 -1 I I #
edge $-1 $483 -125.9842519685039832 $591 125.9842519685041395 $540 $595 forward 7 unknown #
face $-1 $551 $482 $36 $-1 $596 reversed single #
point $-1 253.9370078740159897 7.874015748031499839 39.37007874015750275 #
straight-curve $-1 127.9527559055120065 2.410642428784209956e-15 39.37007874015750275 1 0 0 I I #
loop $-1 $597 $598 $486 #
plane-surface $-1 127.9527559055120065 0 0 0 -1 0 0 0 -1 forward_v I I I I #
edge $-1 $588 -125.9842519685041395 $491 125.9842519685039832 $541 $599 forward 7 unknown #
face $-1 $486 $490 $36 $-1 $600 reversed single #
point $-1 253.9370078740159897 7.874015748031499839 19.68503937007870164 #
straight-curve $-1 127.9527559055120065 1.205321214392100048e-15 19.68503937007870164 -1 0 0 I I #
loop $-1 $601 $602 $416 #
coedge $-1 $555 $555 $603 $604 reversed $495 $-1 #
edge $-1 $508 -0.7853981633974478349 $502 0.7853981633974486121 $499 $605 forward 7 unknown #
straight-curve $-1 198.8188976377950041 23.62204724409449952 39.37007874015750275 1 0 0 I I #
point $-1 141.73228346456699 23.62204724409449952 39.37007874015750275 #
straight-curve $-1 153.5433070866139929 55.11811023622050243 39.37007874015750275 0 -1 0 I I #
point $-1 153.5433070866139929 35.43307086614169776 39.37007874015750275 #
face $-1 $606 $607 $36 $-1 $608 reversed single #
loop $-1 $609 $610 $513 #
plane-surface $-1 246.0629921259840103 7.874015748031499839 51.18110236220469744 0 1 -6.123031769111889989e-17 -0 6.123031769111889989e-17 1 forward_v I I I I #
loop $-1 $-1 $611 $454 #
coedge $-1 $565 $565 $566 $612 forward $514 $-1 #
coedge $-1 $566 $566 $565 $612 reversed $516 $-1 #
coedge $-1 $567 $567 $517 $568 forward $613 $-1 #
edge $-1 $614 0 $614 6.283185307179586232 $517 $615 forward 7 unknown #
loop $-1 $616 $518 $606 #
vertex $-1 $519 $617 #
ellipse-curve $-1 127.9527559055120065 23.62204724409449952 51.18110236220469744 0 1 0 0 0 -3.870078740157480102 1 I I #
coedge $-1 $572 $572 $618 $619 forward $520 $-1 #
face $-1 $620 $621 $36 $-1 $622 reversed single #
cone-surface $-1 9.842519685039370358 27.55905511811020148 7.874015748031499839 0 -1 6.123031769111889989e-17 0 -2.369661507494877096e-16 -3.870078740157480102 1 I I 0 1 3.870078740157480102 forward I I I I #
coedge $-1 $575 $575 $523 $576 reversed $623 $-1 #
edge $-1 $624 0 $624 6.283185307179586232 $523 $625 forward 7 unknown #
face $-1 $521 $626 $36 $-1 $627 reversed single #
loop $-1 $623 $628 $524 #
plane-surface $-1 127.9527559055120065 7.874015748031499839 7.874015748031499839 0 1 -6.123031769111889989e-17 -0 6.123031769111889989e-17 1 forward_v I I I I #
loop $-1 $-1 $526 $465 #
vertex $-1 $527 $629 #
ellipse-curve $-1 246.0629921259840103 7.874015748031499839 7.874015748031499839 0 -1 6.123031769111889989e-17 0 2.369661507494877096e-16 3.870078740157480102 1 I I #
loop $-1 $630 $603 $528 #
cone-surface $-1 246.0629921259840103 7.874015748031499839 7.874015748031499839 0 -1 6.123031769111889989e-17 0 -3.013303035980263431e-16 -4.92125984251968962 1 I I 0 1 4.92125984251968962 forward I I I I #
coedge $-1 $585 $585 $631 $632 forward $529 $-1 #
coedge $-1 $541 $540 $531 $587 reversed $542 $-1 #
edge $-1 $588 -9.84251968503939878 $591 9.842519685039402333 $586 $633 forward 7 unknown #
vertex $-1 $587 $634 #
straight-curve $-1 1.968503937007870075 78.7401574803150055 19.68503937007870164 0 1 -6.123031769111889989e-17 I I #
point $-1 1.968503937007870075 1.205321214392100048e-15 19.68503937007870164 #
vertex $-1 $544 $635 #
straight-curve $-1 1.968503937007870075 78.7401574803150055 39.37007874015750275 0 -1 6.123031769111889989e-17 I I #
point $-1 1.968503937007870075 2.410642428784209956e-15 39.37007874015750275 #
face $-1 $545 $542 $36 $-1 $636 reversed single #
straight-curve $-1 127.9527559055120065 7.874015748031499839 39.37007874015750275 -1 0 0 I I #
plane-surface $-1 127.9527559055120065 7.874015748031499839 39.37007874015750275 0 6.123031769111889989e-17 1 1 0 0 forward_v I I I I #
loop $-1 $637 $638 $486 #
coedge $-1 $598 $598 $639 $640 reversed $548 $-1 #
straight-curve $-1 127.9527559055120065 7.874015748031499839 19.68503937007870164 1 0 0 I I #
plane-surface $-1 127.9527559055120065 7.874015748031499839 19.68503937007870164 0 -6.123031769111889989e-17 -1 -1 0 -0 forward_v I I I I #
loop $-1 $412 $641 $416 #
coedge $-1 $602 $602 $642 $643 reversed $554 $-1 #
coedge $-1 $603 $603 $555 $604 forward $583 $-1 #
edge $-1 $644 0 $644 6.283185307179586232 $603 $645 forward 7 unknown #
ellipse-curve $-1 141.73228346456699 35.43307086614169776 39.37007874015750275 0 0 -1 8.351654895904077947 -8.351654895904070841 0 1 I I #
face $-1 $646 $569 $36 $-1 $647 reversed single #
loop $-1 $648 $639 $561 #
cone-surface $-1 246.0629921259840103 7.874015748031499839 51.18110236220469744 0 -1 6.123031769111889989e-17 0 -3.013303035980263431e-16 -4.92125984251968962 1 I I 0 1 4.92125984251968962 forward I I I I #
loop $-1 $-1 $649 $513 #
coedge $-1 $610 $610 $650 $651 forward $562 $-1 #
coedge $-1 $611 $611 $649 $652 forward $564 $-1 #
edge $-1 $653 0 $653 6.283185307179586232 $566 $654 forward 7 unknown #
loop $-1 $655 $567 $656 #
vertex $-1 $568 $657 #
ellipse-curve $-1 9.842519685039370358 23.62204724409449952 51.18110236220469744 0 1 0 0 0 -3.870078740157480102 1 I I #
loop $-1 $-1 $658 $606 #
point $-1 127.9527559055120065 23.62204724409449952 47.3110236220472018 #
coedge $-1 $618 $618 $572 $619 reversed $659 $-1 #
edge $-1 $660 0 $660 6.283185307179586232 $572 $661 forward 7 unknown #
face $-1 $594 $662 $36 $-1 $663 reversed single #
loop $-1 $659 $664 $573 #
plane-surface $-1 9.842519685039370358 7.874015748031499839 7.874015748031499839 0 1 -6.123031769111889989e-17 -0 6.123031769111889989e-17 1 forward_v I I I I #
loop $-1 $-1 $575 $524 #
vertex $-1 $576 $665 #
ellipse-curve $-1 127.9527559055120065 7.874015748031499839 7.874015748031499839 0 -1 6.123031769111889989e-17 0 2.369661507494877096e-16 3.870078740157480102 1 I I #
loop $-1 $666 $642 $577 #
cone-surface $-1 127.9527559055120065 7.874015748031499839 7.874015748031499839 0 -1 6.123031769111889989e-17 0 -3.013303035980263431e-16 -4.92125984251968962 1 I I 0 1 4.92125984251968962 forward I I I I #
coedge $-1 $628 $628 $667 $668 forward $578 $-1 #
point $-1 246.0629921259840103 7.874015748031499839 11.74409448818900081 #
loop $-1 $-1 $631 $528 #
coedge $-1 $631 $631 $585 $632 reversed $630 $-1 #
edge $-1 $669 0 $669 6.283185307179586232 $585 $670 forward 7 unknown #
straight-curve $-1 1.968503937007870075 7.874015748031499839 29.52755905511810042 0 6.123031769111889989e-17 1 I I #
point $-1 1.968503937007870075 7.874015748031499839 19.68503937007870164 #
point $-1 1.968503937007870075 7.874015748031499839 39.37007874015750275 #
plane-surface $-1 127.9527559055120065 7.874015748031499839 29.52755905511810042 0 1 -6.123031769111889989e-17 -0 6.123031769111889989e-17 1 forward_v I I I I #
loop $-1 $405 $671 $486 #
coedge $-1 $638 $638 $672 $673 reversed $597 $-1 #
coedge $-1 $639 $639 $598 $640 forward $607 $-1 #
edge $-1 $674 0 $674 6.283185307179586232 $639 $675 forward 7 unknown #
coedge $-1 $641 $641 $676 $677 reversed $601 $-1 #
coedge $-1 $642 $642 $602 $643 forward $626 $-1 #
edge $-1 $678 0 $678 6.283185307179586232 $642 $679 forward 7 unknown #
vertex $-1 $604 $680 #
ellipse-curve $-1 246.0629921259840103 4.821284857568410248e-16 7.874015748031499839 0 -1 0 0 0 -4.92125984251968962 1 I I #
face $-1 $681 $682 $36 $-1 $683 reversed single #
cone-surface $-1 127.9527559055120065 27.55905511811020148 51.18110236220469744 0 -1 6.123031769111889989e-17 0 -2.369661507494877096e-16 -3.870078740157480102 1 I I 0 1 3.870078740157480102 forward I I I I #
loop $-1 $-1 $650 $561 #
coedge $-1 $649 $649 $611 $652 reversed $609 $-1 #
coedge $-1 $650 $650 $610 $651 reversed $648 $-1 #
edge $-1 $684 0 $684 6.283185307179586232 $610 $685 forward 7 unknown #
edge $-1 $686 0 $686 6.283185307179586232 $611 $687 forward 7 unknown #
vertex $-1 $612 $688 #
ellipse-curve $-1 246.0629921259840103 23.62204724409449952 51.18110236220469744 0 1 0 0 0 -3.870078740157480102 1 I I #
loop $-1 $-1 $689 $656 #
face $-1 $690 $613 $36 $-1 $691 reversed single #
point $-1 9.842519685039370358 23.62204724409449952 47.3110236220472018 #
coedge $-1 $658 $658 $692 $693 forward $616 $-1 #
loop $-1 $-1 $618 $573 #
vertex $-1 $619 $694 #
ellipse-curve $-1 9.842519685039370358 7.874015748031499839 7.874015748031499839 0 -1 6.123031769111889989e-17 0 2.369661507494877096e-16 3.870078740157480102 1 I I #
loop $-1 $695 $676 $620 #
cone-surface $-1 9.842519685039370358 7.874015748031499839 7.874015748031499839 0 -1 6.123031769111889989e-17 0 -3.013303035980263431e-16 -4.92125984251968962 1 I I 0 1 4.92125984251968962 forward I I I I #
coedge $-1 $664 $664 $696 $697 forward $621 $-1 #
point $-1 127.9527559055120065 7.874015748031499839 11.74409448818900081 #
loop $-1 $-1 $667 $577 #
coedge $-1 $667 $667 $628 $668 reversed $666 $-1 #
edge $-1 $698 0 $698 6.283185307179586232 $628 $699 forward 7 unknown #
vertex $-1 $632 $700 #
ellipse-curve $-1 246.0629921259840103 7.874015748031499839 7.874015748031499839 0 -1 6.123031769111889989e-17 0 -3.013303035980263431e-16 -4.92125984251968962 1 I I #
coedge $-1 $671 $671 $701 $702 reversed $637 $-1 #
coedge $-1 $672 $672 $638 $673 forward $703 $-1 #
edge $-1 $704 0 $704 6.283185307179586232 $672 $705 forward 7 unknown #
vertex $-1 $640 $706 #
ellipse-curve $-1 246.0629921259840103 3.133835157419470063e-15 51.18110236220469744 0 -1 0 0 0 -4.92125984251968962 1 I I #
coedge $-1 $676 $676 $641 $677 forward $662 $-1 #
edge $-1 $707 0 $707 6.283185307179586232 $676 $708 forward 7 unknown #
vertex $-1 $643 $709 #
ellipse-curve $-1 127.9527559055120065 4.821284857568410248e-16 7.874015748031499839 0 -1 0 0 0 -4.92125984251968962 1 I I #
point $-1 246.0629921259840103 4.821284857568410248e-16 2.952755905511810219 #
face $-1 $656 $703 $36 $-1 $710 reversed single #
loop $-1 $711 $712 $646 #
plane-surface $-1 127.9527559055120065 7.874015748031499839 51.18110236220469744 0 1 -6.123031769111889989e-17 -0 6.123031769111889989e-17 1 forward_v I I I I #
vertex $-1 $651 $713 #
ellipse-curve $-1 246.0629921259840103 7.874015748031499839 51.18110236220469744 0 -1 6.123031769111889989e-17 0 -3.013303035980263431e-16 -4.92125984251968962 1 I I #
vertex $-1 $652 $714 #
ellipse-curve $-1 246.0629921259840103 7.874015748031499839 51.18110236220469744 0 -1 6.123031769111889989e-17 0 2.369661507494877096e-16 3.870078740157480102 1 I I #
point $-1 246.0629921259840103 23.62204724409449952 47.3110236220472018 #
coedge $-1 $689 $689 $715 $716 forward $655 $-1 #
face $-1 $717 $718 $36 $-1 $719 reversed single #
cone-surface $-1 9.842519685039370358 27.55905511811020148 51.18110236220469744 0 -1 6.123031769111889989e-17 0 -2.369661507494877096e-16 -3.870078740157480102 1 I I 0 1 3.870078740157480102 forward I I I I #
coedge $-1 $692 $692 $658 $693 reversed $711 $-1 #
edge $-1 $720 0 $720 6.283185307179586232 $658 $721 forward 7 unknown #
point $-1 9.842519685039370358 7.874015748031499839 11.74409448818900081 #
loop $-1 $-1 $696 $620 #
coedge $-1 $696 $696 $664 $697 reversed $695 $-1 #
edge $-1 $722 0 $722 6.283185307179586232 $664 $723 forward 7 unknown #
vertex $-1 $668 $724 #
ellipse-curve $-1 127.9527559055120065 7.874015748031499839 7.874015748031499839 0 -1 6.123031769111889989e-17 0 -3.013303035980263431e-16 -4.92125984251968962 1 I I #
point $-1 246.0629921259840103 7.874015748031499839 2.952755905511810219 #
coedge $-1 $701 $701 $671 $702 forward $725 $-1 #
edge $-1 $726 0 $726 6.283185307179586232 $701 $727 forward 7 unknown #
loop $-1 $728 $672 $681 #
vertex $-1 $673 $729 #
ellipse-curve $-1 127.9527559055120065 3.133835157419470063e-15 51.18110236220469744 0 -1 0 0 0 -4.92125984251968962 1 I I #
point $-1 246.0629921259840103 3.133835157419470063e-15 46.25984251968500161 #
vertex $-1 $677 $730 #
ellipse-curve $-1 9.842519685039370358 4.821284857568410248e-16 7.874015748031499839 0 -1 0 0 0 -4.92125984251968962 1 I I #
point $-1 127.9527559055120065 4.821284857568410248e-16 2.952755905511810219 #
cone-surface $-1 127.9527559055120065 7.874015748031499839 51.18110236220469744 0 -1 6.123031769111889989e-17 0 -3.013303035980263431e-16 -4.92125984251968962 1 I I 0 1 4.92125984251968962 forward I I I I #
loop $-1 $-1 $692 $646 #
coedge $-1 $712 $712 $731 $732 forward $682 $-1 #
point $-1 246.0629921259840103 7.874015748031499839 46.25984251968500161 #
point $-1 246.0629921259840103 7.874015748031499839 55.05118110236220019 #
coedge $-1 $715 $715 $689 $716 reversed $733 $-1 #
edge $-1 $734 0 $734 6.283185307179586232 $689 $735 forward 7 unknown #
face $-1 $382 $725 $36 $-1 $736 reversed single #
loop $-1 $733 $737 $690 #
plane-surface $-1 9.842519685039370358 7.874015748031499839 51.18110236220469744 0 1 -6.123031769111889989e-17 -0 6.123031769111889989e-17 1 forward_v I I I I #
vertex $-1 $693 $738 #
ellipse-curve $-1 127.9527559055120065 7.874015748031499839 51.18110236220469744 0 -1 6.123031769111889989e-17 0 2.369661507494877096e-16 3.870078740157480102 1 I I #
vertex $-1 $697 $739 #
ellipse-curve $-1 9.842519685039370358 7.874015748031499839 7.874015748031499839 0 -1 6.123031769111889989e-17 0 -3.013303035980263431e-16 -4.92125984251968962 1 I I #
point $-1 127.9527559055120065 7.874015748031499839 2.952755905511810219 #
loop $-1 $740 $701 $717 #
vertex $-1 $702 $741 #
ellipse-curve $-1 9.842519685039370358 3.133835157419470063e-15 51.18110236220469744 0 -1 0 0 0 -4.92125984251968962 1 I I #
loop $-1 $-1 $731 $681 #
point $-1 127.9527559055120065 3.133835157419470063e-15 46.25984251968500161 #
point $-1 9.842519685039370358 4.821284857568410248e-16 2.952755905511810219 #
coedge $-1 $731 $731 $712 $732 reversed $728 $-1 #
edge $-1 $742 0 $742 6.283185307179586232 $712 $743 forward 7 unknown #
loop $-1 $-1 $715 $690 #
vertex $-1 $716 $744 #
ellipse-curve $-1 9.842519685039370358 7.874015748031499839 51.18110236220469744 0 -1 6.123031769111889989e-17 0 2.369661507494877096e-16 3.870078740157480102 1 I I #
cone-surface $-1 9.842519685039370358 7.874015748031499839 51.18110236220469744 0 -1 6.123031769111889989e-17 0 -3.013303035980263431e-16 -4.92125984251968962 1 I I 0 1 4.92125984251968962 forward I I I I #
coedge $-1 $737 $737 $745 $746 forward $718 $-1 #
point $-1 127.9527559055120065 7.874015748031499839 55.05118110236220019 #
point $-1 9.842519685039370358 7.874015748031499839 2.952755905511810219 #
loop $-1 $-1 $745 $717 #
point $-1 9.842519685039370358 3.133835157419470063e-15 46.25984251968500161 #
vertex $-1 $732 $747 #
ellipse-curve $-1 127.9527559055120065 7.874015748031499839 51.18110236220469744 0 -1 6.123031769111889989e-17 0 -3.013303035980263431e-16 -4.92125984251968962 1 I I #
point $-1 9.842519685039370358 7.874015748031499839 55.05118110236220019 #
coedge $-1 $745 $745 $737 $746 reversed $740 $-1 #
edge $-1 $748 0 $748 6.283185307179586232 $737 $749 forward 7 unknown #
point $-1 127.9527559055120065 7.874015748031499839 46.25984251968500161 #
vertex $-1 $746 $750 #
ellipse-curve $-1 9.842519685039370358 7.874015748031499839 51.18110236220469744 0 -1 6.123031769111889989e-17 0 -3.013303035980263431e-16 -4.92125984251968962 1 I I #
point $-1 9.842519685039370358 7.874015748031499839 46.25984251968500161 #
End-of-ACIS-data 