600 0 2 0           
24 FBMach with ACIS - 6.0.3 13 ACIS 6.0.3 NT 24 Sun Mar 31 23:24:59 2002 
1 9.9999999999999995e-007 1e-010 
body $2 $3 $-1 $4 #
bdycol-kcp $-1 1 2 $5 $6 #
model_id-kcp-attrib $-1 $7 $-1 $0 1 1017635098 50 -1372454911 1 #
lump $-1 $-1 $8 $0 #
transform $-1 1 0 0 0 1 0 0 0 1 0 0 0 1 rotate no_reflect no_shear #
body $9 $10 $-1 $11 #
body $12 $13 $-1 $14 #
aggregate_advspl_attribute-aggregate_geombuild_base_attribute-aggregate_body_attribute-attrib_HH-attrib $-1 $15 $2 $0 F #
shell $-1 $-1 $-1 $16 $-1 $3 #
model_id-kcp-attrib $-1 $-1 $-1 $5 1 1017635098 50 -1372454910 1 #
lump $-1 $-1 $17 $5 #
transform $-1 1 0 0 0 1 0 0 0 1 0 0 0 1 no_rotate no_reflect no_shear #
rgb_color-st-attrib $-1 $18 $-1 $6 0.5 1 1 #
lump $-1 $-1 $19 $6 #
transform $-1 1 0 0 0 1 0 0 0 1 0 0 0 1 no_rotate no_reflect no_shear #
aggregate_secndry_attribute-aggregate_geombuild_base_attribute-aggregate_body_attribute-attrib_HH-attrib $-1 $20 $7 $0 F #
face $21 $22 $23 $8 $-1 $24 forward single #
shell $-1 $-1 $-1 $25 $-1 $10 #
model_id-kcp-attrib $-1 $-1 $12 $6 1 1017635098 80 -1370488829 1 #
shell $-1 $-1 $-1 $26 $-1 $13 #
aggregate_sharped_attribute-aggregate_geombuild_base_attribute-aggregate_body_attribute-attrib_HH-attrib $-1 $27 $15 $0 F #
model_id-kcp-attrib $-1 $28 $-1 $16 1 1017635098 50 -1372454911 2 #
face $29 $30 $31 $8 $-1 $32 forward single #
loop $-1 $-1 $33 $16 #
sphere-surface $-1 0 0 -18 7 1 0 0 0 0 1 forward_v I I I I #
face $34 $35 $36 $17 $-1 $37 forward single #
face $-1 $38 $39 $19 $-1 $40 reversed single #
aggregate_reblend_attribute-aggregate_geombuild_base_attribute-aggregate_body_attribute-attrib_HH-attrib $-1 $41 $20 $0 F #
attrib_hh_face_geombuild-attrib_entity_geombuild-individual_entity_attribute-attrib_HH-attrib $-1 $-1 $21 $16 F #
model_id-kcp-attrib $-1 $42 $-1 $22 1 1017635098 50 -1372454911 3 #
face $43 $-1 $44 $8 $-1 $45 forward single #
loop $-1 $46 $47 $22 #
cone-surface $-1 0 0 0 0 0 1 7 0 0 1 I I 0 1 7 forward I I I I #
coedge $48 $33 $33 $49 $50 forward $23 $-1 #
model_id-kcp-attrib $-1 $-1 $-1 $25 1 1017635098 50 -1372454910 2 #
face $-1 $51 $52 $17 $-1 $53 reversed single #
loop $-1 $-1 $54 $25 #
plane-surface $-1 0 0 25 0 0 1 1 0 0 forward_v I I I I #
face $-1 $55 $56 $19 $-1 $40 reversed single #
loop $-1 $-1 $57 $26 #
cone-surface $-1 -2.6244062631887405e-032 0 25 0 0 1 7 0 0 1 I I 0 1 7 forward I I I I #
aggregate_isospline_attribute-aggregate_geombuild_base_attribute-aggregate_body_attribute-attrib_HH-attrib $-1 $58 $27 $0 F #
attrib_hh_face_geombuild-attrib_entity_geombuild-individual_entity_attribute-attrib_HH-attrib $-1 $-1 $29 $22 F #
model_id-kcp-attrib $-1 $59 $-1 $30 1 1017635098 50 -1372454911 5 #
loop $-1 $-1 $60 $30 #
plane-surface $-1 0 0 25 0 0 1 1 0 0 forward_v I I I I #
loop $-1 $-1 $49 $22 #
coedge $61 $47 $47 $60 $62 reversed $31 $-1 #
attrib_hh_coedge_geombuild-attrib_entity_geombuild-individual_entity_attribute-attrib_HH-attrib $-1 $-1 $-1 $33 F #
coedge $63 $49 $49 $33 $50 reversed $46 $-1 #
edge $64 $65 0 $65 6.2831853071795862 $49 $66 forward 7 unknown #
face $-1 $67 $68 $17 $-1 $69 reversed single #
loop $-1 $-1 $70 $35 #
plane-surface $-1 0 0 -25 0 0 1 1 0 0 forward_v I I I I #
coedge $-1 $71 $72 $73 $74 forward $36 $-1 #
face $-1 $75 $76 $19 $-1 $40 reversed single #
loop $-1 $-1 $77 $38 #
coedge $-1 $78 $79 $80 $81 reversed $39 $-1 #
aggregate_analytic_solver_attribute-aggregate_geombuild_base_attribute-aggregate_body_attribute-attrib_HH-attrib $-1 $82 $41 $0 F #
model_id-kcp-attrib $-1 $83 $43 $30 1 1017635098 50 -1372454911 4 #
coedge $84 $60 $60 $47 $62 forward $44 $-1 #
attrib_hh_coedge_geombuild-attrib_entity_geombuild-individual_entity_attribute-attrib_HH-attrib $-1 $-1 $-1 $47 F #
edge $85 $86 0 $86 6.2831853071795862 $60 $87 forward 7 unknown #
attrib_hh_coedge_geombuild-attrib_entity_geombuild-individual_entity_attribute-attrib_HH-attrib $-1 $-1 $-1 $49 F #
attrib_hh_edge_geombuild-attrib_entity_geombuild-individual_entity_attribute-attrib_HH-attrib $-1 $-1 $-1 $50 F #
vertex $88 $50 $89 #
ellipse-curve $-1 0 0 -18 0 0 -1 7 0 0 1 I I #
face $-1 $90 $91 $17 $-1 $92 reversed single #
loop $-1 $-1 $93 $51 #
plane-surface $-1 0 -7 0 0 1 0 0 0 1 forward_v I I I I #
coedge $-1 $94 $95 $96 $97 forward $52 $-1 #
coedge $-1 $98 $54 $99 $100 forward $36 $-1 #
coedge $-1 $54 $98 $101 $102 forward $36 $-1 #
coedge $-1 $103 $104 $54 $74 reversed $105 $-1 #
edge $-1 $106 -7 $107 7 $73 $108 forward 7 unknown #
face $-1 $109 $110 $19 $-1 $40 reversed single #
loop $-1 $-1 $111 $55 #
coedge $-1 $112 $113 $114 $115 reversed $56 $-1 #
coedge $-1 $116 $57 $117 $118 reversed $39 $-1 #
coedge $-1 $57 $116 $119 $120 reversed $39 $-1 #
coedge $-1 $121 $122 $123 $81 forward $124 $-1 #
edge $-1 $125 -50 $126 0 $80 $127 forward 7 unknown #
aggregate_geombuild_attribute-aggregate_geombuild_base_attribute-aggregate_body_attribute-attrib_HH-attrib $-1 $128 $58 $0 #
attrib_hh_face_geombuild-attrib_entity_geombuild-individual_entity_attribute-attrib_HH-attrib $-1 $-1 $59 $30 F #
attrib_hh_coedge_geombuild-attrib_entity_geombuild-individual_entity_attribute-attrib_HH-attrib $-1 $-1 $-1 $60 F #
attrib_edge_convexity-kcp-attrib $-1 $129 $-1 $62 1 #
vertex $130 $62 $131 #
ellipse-curve $-1 0 0 25 0 0 1 7 0 0 1 I I #
attrib_hh_vertex_geombuild-attrib_entity_geombuild-individual_entity_attribute-attrib_HH-attrib $-1 $-1 $-1 $65 F #
point $-1 7 0 -18 #
face $-1 $132 $133 $17 $-1 $134 reversed single #
loop $-1 $-1 $135 $67 #
plane-surface $-1 -7 0 0 1 0 0 0 0 -1 forward_v I I I I #
coedge $-1 $136 $101 $137 $138 forward $68 $-1 #
coedge $-1 $139 $70 $136 $140 forward $52 $-1 #
coedge $-1 $70 $139 $141 $142 forward $52 $-1 #
coedge $-1 $104 $103 $70 $97 reversed $105 $-1 #
edge $-1 $143 -7 $144 7 $96 $145 forward 7 unknown #
coedge $-1 $72 $71 $146 $147 forward $36 $-1 #
coedge $-1 $148 $149 $71 $100 reversed $133 $-1 #
edge $-1 $107 -7 $150 7 $99 $151 forward 7 unknown #
coedge $-1 $93 $152 $72 $102 reversed $68 $-1 #
edge $-1 $153 -7 $106 7 $101 $154 forward 7 unknown #
coedge $-1 $96 $73 $152 $155 forward $105 $-1 #
coedge $-1 $73 $96 $148 $156 reversed $105 $-1 #
loop $-1 $-1 $103 $132 #
vertex $-1 $74 $157 #
vertex $-1 $74 $158 #
straight-curve $-1 7 0 25 0 1 0 I I #
face $-1 $159 $160 $19 $-1 $161 reversed single #
loop $-1 $-1 $162 $75 #
coedge $-1 $163 $164 $165 $166 reversed $76 $-1 #
coedge $-1 $167 $77 $168 $169 reversed $56 $-1 #
coedge $-1 $77 $167 $57 $81 forward $56 $-1 #
coedge $-1 $170 $171 $77 $115 forward $172 $-1 #
edge $-1 $173 -3.1415926535897931 $126 -1.5707963267948966 $114 $174 forward 7 unknown #
coedge $-1 $79 $78 $164 $175 forward $39 $-1 #
coedge $-1 $176 $177 $78 $118 forward $178 $-1 #
edge $-1 $179 0 $125 1.5707963267948966 $117 $180 forward 7 unknown #
coedge $-1 $181 $182 $79 $120 forward $183 $-1 #
edge $-1 $126 -1.5707963267948966 $184 0 $119 $174 forward 7 unknown #
coedge $-1 $185 $80 $182 $186 reversed $124 $-1 #
coedge $-1 $80 $185 $176 $187 reversed $124 $-1 #
coedge $-1 $188 $189 $113 $81 reversed $190 $-1 #
loop $-1 $-1 $80 $191 #
vertex $-1 $187 $192 #
vertex $-1 $193 $194 #
straight-curve $-1 -2.6244062631887405e-032 7 25 0 0 1 I I #
aggregate_stitch_attribute-aggregate_stitch_base_attribute-aggregate_body_attribute-attrib_HH-attrib $-1 $195 $82 $0 F #
convexity-sys-attrib $-1 $196 $85 $62 #
attrib_hh_vertex_geombuild-attrib_entity_geombuild-individual_entity_attribute-attrib_HH-attrib $-1 $-1 $-1 $86 F #
point $-1 7 0 25 #
face $-1 $-1 $105 $17 $-1 $197 reversed single #
loop $-1 $-1 $148 $90 #
plane-surface $-1 0 7 0 0 -1 0 0 0 -1 forward_v I I I I #
coedge $-1 $198 $146 $149 $199 forward $91 $-1 #
coedge $-1 $152 $93 $94 $140 reversed $68 $-1 #
coedge $-1 $146 $198 $93 $138 reversed $91 $-1 #
edge $-1 $153 -25 $200 25 $137 $201 forward 7 unknown #
coedge $-1 $95 $94 $198 $202 forward $52 $-1 #
edge $-1 $144 -7 $200 7 $136 $203 forward 7 unknown #
coedge $-1 $149 $148 $95 $142 reversed $133 $-1 #
edge $-1 $204 -7 $143 7 $141 $205 forward 7 unknown #
vertex $-1 $97 $206 #
vertex $-1 $155 $207 #
straight-curve $-1 7 0 -25 0 -1 0 I I #
coedge $-1 $135 $137 $98 $147 reversed $91 $-1 #
edge $-1 $150 -7 $153 7 $146 $208 forward 7 unknown #
coedge $-1 $141 $99 $104 $156 forward $133 $-1 #
coedge $-1 $99 $141 $135 $199 reversed $133 $-1 #
vertex $-1 $100 $209 #
straight-curve $-1 0 7 25 -1 0 0 I I #
coedge $-1 $101 $136 $103 $155 reversed $68 $-1 #
vertex $-1 $147 $210 #
straight-curve $-1 0 -7 25 1 0 0 I I #
edge $-1 $106 -25 $144 25 $103 $211 forward 7 unknown #
edge $-1 $107 -25 $143 25 $104 $212 forward 7 unknown #
point $-1 7 -7 25 #
point $-1 7 7 25 #
face $-1 $213 $190 $19 $-1 $214 reversed single #
loop $-1 $-1 $215 $109 #
plane-surface $-1 7 0 0 -1 0 0 0 0 1 forward_v I I I I #
coedge $-1 $216 $217 $218 $219 reversed $110 $-1 #
coedge $-1 $220 $111 $217 $221 forward $76 $-1 #
coedge $-1 $111 $220 $222 $175 reversed $76 $-1 #
coedge $-1 $223 $224 $111 $166 forward $225 $-1 #
edge $-1 $226 -1.5707963267948966 $179 0 $165 $180 forward 7 unknown #
coedge $-1 $113 $112 $227 $228 reversed $56 $-1 #
coedge $-1 $229 $230 $231 $169 forward $232 $-1 #
edge $-1 $233 -50 $173 0 $168 $234 forward 7 unknown #
coedge $-1 $171 $114 $189 $193 forward $172 $-1 #
coedge $-1 $114 $170 $229 $235 forward $172 $-1 #
loop $-1 $-1 $114 $236 #
vertex $-1 $237 $238 #
ellipse-curve $-1 -2.6244062631887405e-032 0 25 0 0 -1 7 0 0 1 I I #
edge $-1 $179 -50 $184 0 $222 $239 forward 7 unknown #
coedge $-1 $177 $117 $122 $187 forward $178 $-1 #
coedge $-1 $117 $176 $240 $241 forward $178 $-1 #
loop $-1 $-1 $117 $242 #
vertex $-1 $243 $244 #
ellipse-curve $-1 -2.6244062631887405e-032 0 -25 0 0 1 7 0 0 1 I I #
coedge $-1 $182 $119 $245 $246 forward $183 $-1 #
coedge $-1 $119 $181 $121 $186 forward $183 $-1 #
loop $-1 $-1 $119 $247 #
vertex $-1 $246 $248 #
coedge $-1 $122 $121 $249 $250 forward $124 $-1 #
edge $-1 $251 -7 $126 2.6244062631887405e-032 $121 $252 forward 7 unknown #
edge $-1 $125 -2.6244062631887405e-032 $253 7 $122 $254 forward 7 unknown #
coedge $-1 $255 $123 $256 $257 reversed $190 $-1 #
coedge $-1 $123 $255 $170 $193 reversed $190 $-1 #
loop $-1 $-1 $123 $159 #
face $-1 $258 $124 $19 $-1 $214 reversed single #
point $-1 -2.6244062631887405e-032 7 -25 #
edge $-1 $126 2.6244062631887405e-032 $259 7 $189 $252 forward 7 unknown #
point $-1 -2.6244062631887405e-032 7 25 #
aggregate_simgeom_attribute-aggregate_simgeom_base_attribute-aggregate_body_attribute-attrib_HH-attrib $-1 $-1 $128 $0 F #
attrib_hh_edge_geombuild-attrib_entity_geombuild-individual_entity_attribute-attrib_HH-attrib $-1 $-1 $129 $62 F #
plane-surface $-1 7 0 0 -1 0 0 0 0 1 forward_v I I I I #
coedge $-1 $137 $135 $139 $202 reversed $91 $-1 #
edge $-1 $150 -25 $204 25 $149 $260 forward 7 unknown #
vertex $-1 $202 $261 #
straight-curve $-1 -7 -7 0 0 0 -1 I I #
edge $-1 $200 -7 $204 7 $198 $262 forward 7 unknown #
straight-curve $-1 0 -7 -25 -1 0 0 I I #
vertex $-1 $142 $263 #
straight-curve $-1 0 7 -25 1 0 0 I I #
point $-1 7 7 -25 #
point $-1 7 -7 -25 #
straight-curve $-1 -7 0 25 0 -1 0 I I #
point $-1 -7 7 25 #
point $-1 -7 -7 25 #
straight-curve $-1 7 -7 0 0 0 -1 I I #
straight-curve $-1 7 7 0 0 0 -1 I I #
face $-1 $264 $265 $19 $-1 $266 reversed single #
plane-surface $-1 0 7 0 0 -1 0 0 0 -1 forward_v I I I I #
coedge $-1 $240 $245 $116 $175 reversed $160 $-1 #
coedge $-1 $267 $162 $112 $169 forward $110 $-1 #
coedge $-1 $162 $267 $268 $221 reversed $110 $-1 #
coedge $-1 $269 $270 $162 $219 forward $271 $-1 #
edge $-1 $233 -3.1415926535897931 $226 -1.5707963267948966 $218 $180 forward 7 unknown #
coedge $-1 $164 $163 $272 $273 reversed $76 $-1 #
edge $-1 $226 -50 $274 0 $268 $275 forward 7 unknown #
coedge $-1 $276 $277 $215 $175 forward $278 $-1 #
coedge $-1 $224 $165 $277 $243 forward $225 $-1 #
coedge $-1 $165 $223 $279 $280 forward $225 $-1 #
loop $-1 $-1 $165 $281 #
vertex $-1 $282 $283 #
coedge $-1 $284 $256 $167 $228 forward $285 $-1 #
edge $-1 $125 1.5707963267948966 $233 3.1415926535897931 $227 $180 forward 7 unknown #
coedge $-1 $286 $168 $171 $235 reversed $232 $-1 #
coedge $-1 $168 $286 $284 $287 reversed $232 $-1 #
coedge $-1 $288 $289 $216 $169 reversed $265 $-1 #
loop $-1 $-1 $168 $290 #
vertex $-1 $287 $291 #
straight-curve $-1 -7 0 25 0 0 1 I I #
edge $-1 $259 -7 $173 0 $229 $292 forward 7 unknown #
face $-1 $247 $172 $19 $-1 $293 forward single #
edge $-1 $173 0 $294 7 $289 $292 forward 7 unknown #
point $-1 -7 0 25 #
straight-curve $-1 7 0 25 0 0 1 I I #
coedge $-1 $249 $215 $177 $241 reversed $160 $-1 #
edge $-1 $253 -7 $179 0 $240 $295 forward 7 unknown #
face $-1 $296 $178 $19 $-1 $297 reversed single #
edge $-1 $179 0 $298 7 $277 $295 forward 7 unknown #
point $-1 7 0 -25 #
coedge $-1 $215 $249 $181 $246 reversed $160 $-1 #
edge $-1 $184 0 $251 7 $245 $299 forward 7 unknown #
face $-1 $300 $183 $19 $-1 $293 forward single #
point $-1 7 0 25 #
coedge $-1 $245 $240 $185 $250 reversed $160 $-1 #
edge $-1 $251 -25 $253 25 $249 $301 forward 7 unknown #
vertex $-1 $246 $302 #
straight-curve $-1 0 7 25 -1 0 0 I I #
vertex $-1 $241 $303 #
straight-curve $-1 0 7 -25 1 0 0 I I #
coedge $-1 $189 $188 $286 $304 reversed $190 $-1 #
coedge $-1 $227 $284 $188 $257 forward $285 $-1 #
edge $-1 $305 -7 $125 -2.6244062631887405e-032 $188 $254 forward 7 unknown #
face $-1 $-1 $278 $19 $-1 $161 reversed single #
vertex $-1 $193 $306 #
straight-curve $-1 -7 7 0 0 0 -1 I I #
point $-1 -7 -7 -25 #
straight-curve $-1 -7 0 -25 0 1 0 I I #
point $-1 -7 7 -25 #
face $-1 $236 $307 $19 $-1 $293 forward single #
loop $-1 $-1 $231 $213 #
plane-surface $-1 -7 0 0 1 0 0 0 0 -1 forward_v I I I I #
coedge $-1 $217 $216 $308 $309 reversed $110 $-1 #
coedge $-1 $310 $311 $312 $221 forward $313 $-1 #
coedge $-1 $270 $218 $311 $282 forward $271 $-1 #
coedge $-1 $218 $269 $288 $314 forward $271 $-1 #
loop $-1 $-1 $218 $315 #
coedge $-1 $316 $317 $220 $273 forward $318 $-1 #
edge $-1 $184 0 $274 1.5707963267948966 $272 $174 forward 7 unknown #
vertex $-1 $319 $320 #
straight-curve $-1 -2.6244062631887405e-032 -7 25 0 0 1 I I #
coedge $-1 $321 $222 $317 $322 reversed $278 $-1 #
coedge $-1 $222 $321 $223 $243 reversed $278 $-1 #
loop $-1 $-1 $222 $258 #
coedge $-1 $323 $312 $224 $280 reversed $324 $-1 #
edge $-1 $298 -7 $226 2.6244062631887405e-032 $279 $325 forward 7 unknown #
face $-1 $242 $225 $19 $-1 $297 reversed single #
edge $-1 $226 2.6244062631887405e-032 $326 7 $311 $325 forward 7 unknown #
point $-1 -2.6244062631887405e-032 -7 -25 #
coedge $-1 $256 $227 $230 $287 forward $285 $-1 #
loop $-1 $-1 $227 $296 #
coedge $-1 $230 $229 $255 $304 forward $232 $-1 #
edge $-1 $233 0 $305 7 $230 $327 forward 7 unknown #
coedge $-1 $328 $231 $270 $314 reversed $265 $-1 #
coedge $-1 $231 $328 $329 $237 reversed $265 $-1 #
face $-1 $191 $232 $19 $-1 $266 reversed single #
point $-1 -7 0 -25 #
straight-curve $-1 -7 0 25 0 -1 0 I I #
plane-surface $-1 0 0 25 0 0 1 1 0 0 forward_v I I I I #
vertex $-1 $237 $330 #
straight-curve $-1 7 0 -25 0 -1 0 I I #
face $-1 $331 $285 $19 $-1 $297 reversed single #
plane-surface $-1 0 0 -25 0 0 1 1 0 0 forward_v I I I I #
vertex $-1 $332 $333 #
straight-curve $-1 7 0 25 0 1 0 I I #
face $-1 $334 $318 $19 $-1 $293 forward single #
straight-curve $-1 7 7 0 0 0 -1 I I #
point $-1 7 7 25 #
point $-1 7 7 -25 #
edge $-1 $259 -25 $305 25 $255 $335 forward 7 unknown #
vertex $-1 $257 $336 #
point $-1 -7 7 25 #
loop $-1 $-1 $308 $264 #
coedge $-1 $329 $337 $267 $309 forward $307 $-1 #
edge $-1 $274 1.5707963267948966 $173 3.1415926535897931 $308 $174 forward 7 unknown #
coedge $-1 $338 $268 $337 $339 reversed $313 $-1 #
coedge $-1 $268 $338 $269 $282 reversed $313 $-1 #
coedge $-1 $279 $340 $163 $221 reversed $324 $-1 #
loop $-1 $-1 $268 $331 #
edge $-1 $326 -7 $233 0 $288 $327 forward 7 unknown #
face $-1 $281 $271 $19 $-1 $297 reversed single #
coedge $-1 $317 $272 $340 $319 forward $318 $-1 #
coedge $-1 $272 $316 $276 $322 forward $318 $-1 #
loop $-1 $-1 $272 $300 #
edge $-1 $274 -2.6244062631887405e-032 $341 7 $340 $342 forward 7 unknown #
point $-1 -2.6244062631887405e-032 -7 25 #
coedge $-1 $277 $276 $323 $332 forward $278 $-1 #
edge $-1 $341 -7 $184 0 $276 $299 forward 7 unknown #
coedge $-1 $340 $279 $321 $332 reversed $324 $-1 #
loop $-1 $-1 $312 $334 #
straight-curve $-1 0 -7 -25 -1 0 0 I I #
vertex $-1 $314 $343 #
straight-curve $-1 -7 0 -25 0 1 0 I I #
coedge $-1 $289 $288 $338 $344 reversed $265 $-1 #
coedge $-1 $337 $308 $289 $237 forward $307 $-1 #
point $-1 -7 -7 25 #
face $-1 $290 $313 $19 $-1 $345 reversed single #
edge $-1 $341 -25 $298 25 $321 $346 forward 7 unknown #
point $-1 7 -7 -25 #
face $-1 $315 $324 $19 $-1 $345 reversed single #
straight-curve $-1 -7 7 0 0 0 -1 I I #
point $-1 -7 7 -25 #
coedge $-1 $308 $329 $310 $339 forward $307 $-1 #
coedge $-1 $311 $310 $328 $344 forward $313 $-1 #
edge $-1 $294 -7 $274 -2.6244062631887405e-032 $310 $342 forward 7 unknown #
coedge $-1 $312 $323 $316 $319 reversed $324 $-1 #
vertex $-1 $322 $347 #
straight-curve $-1 0 -7 25 1 0 0 I I #
point $-1 -7 -7 -25 #
edge $-1 $294 -25 $326 25 $328 $348 forward 7 unknown #
plane-surface $-1 0 -7 0 0 1 0 0 0 1 forward_v I I I I #
straight-curve $-1 7 -7 0 0 0 -1 I I #
point $-1 7 -7 25 #
straight-curve $-1 -7 -7 0 0 0 -1 I I #
End-of-ACIS-data 