600 0 1 0           
79 GICL ACIS Healer - Source: /gicl/data5/repository/UMD/tmp/shole/shole.sat - 6 0 18 ACIS 6.0.3 Solaris 24 Sun Apr 14 00:33:47 2002 
1 9.999999999999999547e-07 1.000000000000000036e-10 
body $-1 $1 $-1 $-1 #
lump $-1 $-1 $2 $0 #
shell $-1 $-1 $-1 $3 $-1 $1 #
face $-1 $4 $5 $2 $-1 $6 forward single #
face $-1 $7 $8 $2 $-1 $9 forward single #
loop $-1 $-1 $10 $3 #
sphere-surface $-1 0 0 -18 7 1 0 0 0 0 1 forward_v I I I I #
face $-1 $-1 $11 $2 $-1 $12 forward single #
loop $-1 $13 $14 $4 #
cone-surface $-1 0 0 0 0 0 1 7 0 0 1 I I 0 1 7 forward I I I I #
coedge $-1 $10 $10 $15 $16 forward $5 $-1 #
loop $-1 $-1 $17 $7 #
plane-surface $-1 0 0 25 0 0 1 1 0 0 forward_v I I I I #
loop $-1 $-1 $15 $4 #
coedge $-1 $14 $14 $17 $18 reversed $8 $-1 #
coedge $-1 $15 $15 $10 $16 reversed $13 $-1 #
edge $-1 $19 0 $19 6.283185307179586232 $15 $20 forward 7 unknown #
coedge $-1 $17 $17 $14 $18 forward $11 $-1 #
edge $-1 $21 0 $21 6.283185307179586232 $17 $22 forward 7 unknown #
vertex $-1 $16 $23 #
ellipse-curve $-1 0 0 -18 0 0 -1 7 0 0 1 I I #
vertex $-1 $18 $24 #
ellipse-curve $-1 0 0 25 0 0 1 7 0 0 1 I I #
point $-1 7 0 -18 #
point $-1 7 0 25 #
End-of-ACIS-data 