600 0 2 0           
24 FBMach with ACIS - 6.0.3 13 ACIS 6.0.3 NT 24 Tue May 22 12:24:13 2001 
1 9.9999999999999995e-007 1e-010 
body $2 $3 $-1 $4 #
bdycol-kcp $-1 1 2 $5 $6 #
model_id-kcp-attrib $-1 $-1 $-1 $0 1 990548653 50 2117206017 1 #
lump $-1 $-1 $7 $0 #
transform $-1 1 0 0 0 1 0 0 0 1 0 0 0 1 no_rotate no_reflect no_shear #
body $8 $9 $-1 $10 #
body $11 $12 $-1 $13 #
shell $-1 $-1 $-1 $14 $-1 $3 #
model_id-kcp-attrib $-1 $-1 $-1 $5 1 990548653 50 2117206018 1 #
lump $-1 $-1 $15 $5 #
transform $-1 1 0 0 0 1 0 0 0 1 0 0 0 1 no_rotate no_reflect no_shear #
rgb_color-st-attrib $-1 $16 $-1 $6 0.5 1 1 #
lump $-1 $-1 $17 $6 #
transform $-1 1 0 0 0 1 0 0 0 1 0 0 0 1 no_rotate no_reflect no_shear #
face $18 $19 $20 $7 $-1 $21 forward single #
shell $-1 $-1 $-1 $22 $-1 $9 #
model_id-kcp-attrib $-1 $-1 $11 $6 1 990548653 80 2119172099 1 #
shell $-1 $-1 $-1 $23 $-1 $12 #
model_id-kcp-attrib $-1 $-1 $-1 $14 1 990548653 50 2117206017 2 #
face $24 $25 $26 $7 $-1 $27 forward single #
loop $-1 $-1 $28 $14 #
sphere-surface $-1 0 0 -18 7 1 0 0 0 0 1 forward_v I I I I #
face $29 $30 $31 $15 $-1 $32 forward single #
face $-1 $33 $34 $17 $-1 $35 reversed single #
model_id-kcp-attrib $-1 $-1 $-1 $19 1 990548653 50 2117206017 3 #
face $36 $-1 $37 $7 $-1 $38 forward single #
loop $-1 $39 $40 $19 #
cone-surface $-1 0 0 0 0 0 1 7 0 0 1 I I 0 1 7 forward I I I I #
coedge $-1 $28 $28 $41 $42 forward $20 $-1 #
model_id-kcp-attrib $-1 $-1 $-1 $22 1 990548653 50 2117206018 2 #
face $-1 $43 $44 $15 $-1 $45 reversed single #
loop $-1 $-1 $46 $22 #
plane-surface $-1 0 0 25 0 0 1 1 0 0 forward_v I I I I #
face $-1 $47 $48 $17 $-1 $35 reversed single #
loop $-1 $-1 $49 $23 #
cone-surface $-1 -2.6244062631887405e-032 0 25 0 0 1 7 0 0 1 I I 0 1 7 forward I I I I #
model_id-kcp-attrib $-1 $50 $-1 $25 1 990548653 50 2117206017 5 #
loop $-1 $-1 $51 $25 #
plane-surface $-1 0 0 25 0 0 1 1 0 0 forward_v I I I I #
loop $-1 $-1 $41 $19 #
coedge $-1 $40 $40 $51 $52 reversed $26 $-1 #
coedge $-1 $41 $41 $28 $42 reversed $39 $-1 #
edge $-1 $53 0 $53 6.2831853071795862 $41 $54 forward 7 unknown #
face $-1 $55 $56 $15 $-1 $57 reversed single #
loop $-1 $-1 $58 $30 #
plane-surface $-1 0 0 -25 0 0 1 1 0 0 forward_v I I I I #
coedge $-1 $59 $60 $61 $62 forward $31 $-1 #
face $-1 $63 $64 $17 $-1 $35 reversed single #
loop $-1 $-1 $65 $33 #
coedge $-1 $66 $67 $68 $69 reversed $34 $-1 #
model_id-kcp-attrib $-1 $-1 $36 $25 1 990548653 50 2117206017 4 #
coedge $-1 $51 $51 $40 $52 forward $37 $-1 #
edge $70 $71 0 $71 6.2831853071795862 $51 $72 forward 7 unknown #
vertex $-1 $42 $73 #
ellipse-curve $-1 0 0 -18 0 0 -1 7 0 0 1 I I #
face $-1 $74 $75 $15 $-1 $76 reversed single #
loop $-1 $-1 $77 $43 #
plane-surface $-1 0 -7 0 0 1 0 0 0 1 forward_v I I I I #
coedge $-1 $78 $79 $80 $81 forward $44 $-1 #
coedge $-1 $82 $46 $83 $84 forward $31 $-1 #
coedge $-1 $46 $82 $85 $86 forward $31 $-1 #
coedge $-1 $87 $88 $46 $62 reversed $89 $-1 #
edge $-1 $90 -7 $91 7 $61 $92 forward 7 unknown #
face $-1 $93 $94 $17 $-1 $35 reversed single #
loop $-1 $-1 $95 $47 #
coedge $-1 $96 $97 $98 $99 reversed $48 $-1 #
coedge $-1 $100 $49 $101 $102 reversed $34 $-1 #
coedge $-1 $49 $100 $103 $104 reversed $34 $-1 #
coedge $-1 $105 $106 $107 $69 forward $108 $-1 #
edge $-1 $109 -50 $110 0 $68 $111 forward 7 unknown #
attrib_edge_convexity-kcp-attrib $-1 $112 $-1 $52 1 #
vertex $-1 $52 $113 #
ellipse-curve $-1 0 0 25 0 0 1 7 0 0 1 I I #
point $-1 7 0 -18 #
face $-1 $114 $115 $15 $-1 $116 reversed single #
loop $-1 $-1 $117 $55 #
plane-surface $-1 -7 0 0 1 0 0 0 0 -1 forward_v I I I I #
coedge $-1 $118 $85 $119 $120 forward $56 $-1 #
coedge $-1 $121 $58 $118 $122 forward $44 $-1 #
coedge $-1 $58 $121 $123 $124 forward $44 $-1 #
coedge $-1 $88 $87 $58 $81 reversed $89 $-1 #
edge $-1 $125 -7 $126 7 $80 $127 forward 7 unknown #
coedge $-1 $60 $59 $128 $129 forward $31 $-1 #
coedge $-1 $130 $131 $59 $84 reversed $115 $-1 #
edge $-1 $91 -7 $132 7 $83 $133 forward 7 unknown #
coedge $-1 $77 $134 $60 $86 reversed $56 $-1 #
edge $-1 $135 -7 $90 7 $85 $136 forward 7 unknown #
coedge $-1 $80 $61 $134 $137 forward $89 $-1 #
coedge $-1 $61 $80 $130 $138 reversed $89 $-1 #
loop $-1 $-1 $87 $114 #
vertex $-1 $62 $139 #
vertex $-1 $62 $140 #
straight-curve $-1 7 0 25 0 1 0 I I #
face $-1 $141 $142 $17 $-1 $143 reversed single #
loop $-1 $-1 $144 $63 #
coedge $-1 $145 $146 $147 $148 reversed $64 $-1 #
coedge $-1 $149 $65 $150 $151 reversed $48 $-1 #
coedge $-1 $65 $149 $49 $69 forward $48 $-1 #
coedge $-1 $152 $153 $65 $99 forward $154 $-1 #
edge $-1 $155 -3.1415926535897931 $110 -1.5707963267948966 $98 $156 forward 7 unknown #
coedge $-1 $67 $66 $146 $157 forward $34 $-1 #
coedge $-1 $158 $159 $66 $102 forward $160 $-1 #
edge $-1 $161 0 $109 1.5707963267948966 $101 $162 forward 7 unknown #
coedge $-1 $163 $164 $67 $104 forward $165 $-1 #
edge $-1 $110 -1.5707963267948966 $166 0 $103 $156 forward 7 unknown #
coedge $-1 $167 $68 $164 $168 reversed $108 $-1 #
coedge $-1 $68 $167 $158 $169 reversed $108 $-1 #
coedge $-1 $170 $171 $97 $69 reversed $172 $-1 #
loop $-1 $-1 $68 $173 #
vertex $-1 $169 $174 #
vertex $-1 $175 $176 #
straight-curve $-1 -2.6244062631887405e-032 7 25 0 0 1 I I #
convexity-sys-attrib $-1 $-1 $70 $52 #
point $-1 7 0 25 #
face $-1 $-1 $89 $15 $-1 $177 reversed single #
loop $-1 $-1 $130 $74 #
plane-surface $-1 0 7 0 0 -1 0 0 0 -1 forward_v I I I I #
coedge $-1 $178 $128 $131 $179 forward $75 $-1 #
coedge $-1 $134 $77 $78 $122 reversed $56 $-1 #
coedge $-1 $128 $178 $77 $120 reversed $75 $-1 #
edge $-1 $135 -25 $180 25 $119 $181 forward 7 unknown #
coedge $-1 $79 $78 $178 $182 forward $44 $-1 #
edge $-1 $126 -7 $180 7 $118 $183 forward 7 unknown #
coedge $-1 $131 $130 $79 $124 reversed $115 $-1 #
edge $-1 $184 -7 $125 7 $123 $185 forward 7 unknown #
vertex $-1 $81 $186 #
vertex $-1 $137 $187 #
straight-curve $-1 7 0 -25 0 -1 0 I I #
coedge $-1 $117 $119 $82 $129 reversed $75 $-1 #
edge $-1 $132 -7 $135 7 $128 $188 forward 7 unknown #
coedge $-1 $123 $83 $88 $138 forward $115 $-1 #
coedge $-1 $83 $123 $117 $179 reversed $115 $-1 #
vertex $-1 $84 $189 #
straight-curve $-1 0 7 25 -1 0 0 I I #
coedge $-1 $85 $118 $87 $137 reversed $56 $-1 #
vertex $-1 $129 $190 #
straight-curve $-1 0 -7 25 1 0 0 I I #
edge $-1 $90 -25 $126 25 $87 $191 forward 7 unknown #
edge $-1 $91 -25 $125 25 $88 $192 forward 7 unknown #
point $-1 7 -7 25 #
point $-1 7 7 25 #
face $-1 $193 $172 $17 $-1 $194 reversed single #
loop $-1 $-1 $195 $93 #
plane-surface $-1 7 0 0 -1 0 0 0 0 1 forward_v I I I I #
coedge $-1 $196 $197 $198 $199 reversed $94 $-1 #
coedge $-1 $200 $95 $197 $201 forward $64 $-1 #
coedge $-1 $95 $200 $202 $157 reversed $64 $-1 #
coedge $-1 $203 $204 $95 $148 forward $205 $-1 #
edge $-1 $206 -1.5707963267948966 $161 0 $147 $162 forward 7 unknown #
coedge $-1 $97 $96 $207 $208 reversed $48 $-1 #
coedge $-1 $209 $210 $211 $151 forward $212 $-1 #
edge $-1 $213 -50 $155 0 $150 $214 forward 7 unknown #
coedge $-1 $153 $98 $171 $175 forward $154 $-1 #
coedge $-1 $98 $152 $209 $215 forward $154 $-1 #
loop $-1 $-1 $98 $216 #
vertex $-1 $217 $218 #
ellipse-curve $-1 -2.6244062631887405e-032 0 25 0 0 -1 7 0 0 1 I I #
edge $-1 $161 -50 $166 0 $202 $219 forward 7 unknown #
coedge $-1 $159 $101 $106 $169 forward $160 $-1 #
coedge $-1 $101 $158 $220 $221 forward $160 $-1 #
loop $-1 $-1 $101 $222 #
vertex $-1 $223 $224 #
ellipse-curve $-1 -2.6244062631887405e-032 0 -25 0 0 1 7 0 0 1 I I #
coedge $-1 $164 $103 $225 $226 forward $165 $-1 #
coedge $-1 $103 $163 $105 $168 forward $165 $-1 #
loop $-1 $-1 $103 $227 #
vertex $-1 $226 $228 #
coedge $-1 $106 $105 $229 $230 forward $108 $-1 #
edge $-1 $231 -7 $110 2.6244062631887405e-032 $105 $232 forward 7 unknown #
edge $-1 $109 -2.6244062631887405e-032 $233 7 $106 $234 forward 7 unknown #
coedge $-1 $235 $107 $236 $237 reversed $172 $-1 #
coedge $-1 $107 $235 $152 $175 reversed $172 $-1 #
loop $-1 $-1 $107 $141 #
face $-1 $238 $108 $17 $-1 $194 reversed single #
point $-1 -2.6244062631887405e-032 7 -25 #
edge $-1 $110 2.6244062631887405e-032 $239 7 $171 $232 forward 7 unknown #
point $-1 -2.6244062631887405e-032 7 25 #
plane-surface $-1 7 0 0 -1 0 0 0 0 1 forward_v I I I I #
coedge $-1 $119 $117 $121 $182 reversed $75 $-1 #
edge $-1 $132 -25 $184 25 $131 $240 forward 7 unknown #
vertex $-1 $182 $241 #
straight-curve $-1 -7 -7 0 0 0 -1 I I #
edge $-1 $180 -7 $184 7 $178 $242 forward 7 unknown #
straight-curve $-1 0 -7 -25 -1 0 0 I I #
vertex $-1 $124 $243 #
straight-curve $-1 0 7 -25 1 0 0 I I #
point $-1 7 7 -25 #
point $-1 7 -7 -25 #
straight-curve $-1 -7 0 25 0 -1 0 I I #
point $-1 -7 7 25 #
point $-1 -7 -7 25 #
straight-curve $-1 7 -7 0 0 0 -1 I I #
straight-curve $-1 7 7 0 0 0 -1 I I #
face $-1 $244 $245 $17 $-1 $246 reversed single #
plane-surface $-1 0 7 0 0 -1 0 0 0 -1 forward_v I I I I #
coedge $-1 $220 $225 $100 $157 reversed $142 $-1 #
coedge $-1 $247 $144 $96 $151 forward $94 $-1 #
coedge $-1 $144 $247 $248 $201 reversed $94 $-1 #
coedge $-1 $249 $250 $144 $199 forward $251 $-1 #
edge $-1 $213 -3.1415926535897931 $206 -1.5707963267948966 $198 $162 forward 7 unknown #
coedge $-1 $146 $145 $252 $253 reversed $64 $-1 #
edge $-1 $206 -50 $254 0 $248 $255 forward 7 unknown #
coedge $-1 $256 $257 $195 $157 forward $258 $-1 #
coedge $-1 $204 $147 $257 $223 forward $205 $-1 #
coedge $-1 $147 $203 $259 $260 forward $205 $-1 #
loop $-1 $-1 $147 $261 #
vertex $-1 $262 $263 #
coedge $-1 $264 $236 $149 $208 forward $265 $-1 #
edge $-1 $109 1.5707963267948966 $213 3.1415926535897931 $207 $162 forward 7 unknown #
coedge $-1 $266 $150 $153 $215 reversed $212 $-1 #
coedge $-1 $150 $266 $264 $267 reversed $212 $-1 #
coedge $-1 $268 $269 $196 $151 reversed $245 $-1 #
loop $-1 $-1 $150 $270 #
vertex $-1 $267 $271 #
straight-curve $-1 -7 0 25 0 0 1 I I #
edge $-1 $239 -7 $155 0 $209 $272 forward 7 unknown #
face $-1 $227 $154 $17 $-1 $273 forward single #
edge $-1 $155 0 $274 7 $269 $272 forward 7 unknown #
point $-1 -7 0 25 #
straight-curve $-1 7 0 25 0 0 1 I I #
coedge $-1 $229 $195 $159 $221 reversed $142 $-1 #
edge $-1 $233 -7 $161 0 $220 $275 forward 7 unknown #
face $-1 $276 $160 $17 $-1 $277 reversed single #
edge $-1 $161 0 $278 7 $257 $275 forward 7 unknown #
point $-1 7 0 -25 #
coedge $-1 $195 $229 $163 $226 reversed $142 $-1 #
edge $-1 $166 0 $231 7 $225 $279 forward 7 unknown #
face $-1 $280 $165 $17 $-1 $273 forward single #
point $-1 7 0 25 #
coedge $-1 $225 $220 $167 $230 reversed $142 $-1 #
edge $-1 $231 -25 $233 25 $229 $281 forward 7 unknown #
vertex $-1 $226 $282 #
straight-curve $-1 0 7 25 -1 0 0 I I #
vertex $-1 $221 $283 #
straight-curve $-1 0 7 -25 1 0 0 I I #
coedge $-1 $171 $170 $266 $284 reversed $172 $-1 #
coedge $-1 $207 $264 $170 $237 forward $265 $-1 #
edge $-1 $285 -7 $109 -2.6244062631887405e-032 $170 $234 forward 7 unknown #
face $-1 $-1 $258 $17 $-1 $143 reversed single #
vertex $-1 $175 $286 #
straight-curve $-1 -7 7 0 0 0 -1 I I #
point $-1 -7 -7 -25 #
straight-curve $-1 -7 0 -25 0 1 0 I I #
point $-1 -7 7 -25 #
face $-1 $216 $287 $17 $-1 $273 forward single #
loop $-1 $-1 $211 $193 #
plane-surface $-1 -7 0 0 1 0 0 0 0 -1 forward_v I I I I #
coedge $-1 $197 $196 $288 $289 reversed $94 $-1 #
coedge $-1 $290 $291 $292 $201 forward $293 $-1 #
coedge $-1 $250 $198 $291 $262 forward $251 $-1 #
coedge $-1 $198 $249 $268 $294 forward $251 $-1 #
loop $-1 $-1 $198 $295 #
coedge $-1 $296 $297 $200 $253 forward $298 $-1 #
edge $-1 $166 0 $254 1.5707963267948966 $252 $156 forward 7 unknown #
vertex $-1 $299 $300 #
straight-curve $-1 -2.6244062631887405e-032 -7 25 0 0 1 I I #
coedge $-1 $301 $202 $297 $302 reversed $258 $-1 #
coedge $-1 $202 $301 $203 $223 reversed $258 $-1 #
loop $-1 $-1 $202 $238 #
coedge $-1 $303 $292 $204 $260 reversed $304 $-1 #
edge $-1 $278 -7 $206 2.6244062631887405e-032 $259 $305 forward 7 unknown #
face $-1 $222 $205 $17 $-1 $277 reversed single #
edge $-1 $206 2.6244062631887405e-032 $306 7 $291 $305 forward 7 unknown #
point $-1 -2.6244062631887405e-032 -7 -25 #
coedge $-1 $236 $207 $210 $267 forward $265 $-1 #
loop $-1 $-1 $207 $276 #
coedge $-1 $210 $209 $235 $284 forward $212 $-1 #
edge $-1 $213 0 $285 7 $210 $307 forward 7 unknown #
coedge $-1 $308 $211 $250 $294 reversed $245 $-1 #
coedge $-1 $211 $308 $309 $217 reversed $245 $-1 #
face $-1 $173 $212 $17 $-1 $246 reversed single #
point $-1 -7 0 -25 #
straight-curve $-1 -7 0 25 0 -1 0 I I #
plane-surface $-1 0 0 25 0 0 1 1 0 0 forward_v I I I I #
vertex $-1 $217 $310 #
straight-curve $-1 7 0 -25 0 -1 0 I I #
face $-1 $311 $265 $17 $-1 $277 reversed single #
plane-surface $-1 0 0 -25 0 0 1 1 0 0 forward_v I I I I #
vertex $-1 $312 $313 #
straight-curve $-1 7 0 25 0 1 0 I I #
face $-1 $314 $298 $17 $-1 $273 forward single #
straight-curve $-1 7 7 0 0 0 -1 I I #
point $-1 7 7 25 #
point $-1 7 7 -25 #
edge $-1 $239 -25 $285 25 $235 $315 forward 7 unknown #
vertex $-1 $237 $316 #
point $-1 -7 7 25 #
loop $-1 $-1 $288 $244 #
coedge $-1 $309 $317 $247 $289 forward $287 $-1 #
edge $-1 $254 1.5707963267948966 $155 3.1415926535897931 $288 $156 forward 7 unknown #
coedge $-1 $318 $248 $317 $319 reversed $293 $-1 #
coedge $-1 $248 $318 $249 $262 reversed $293 $-1 #
coedge $-1 $259 $320 $145 $201 reversed $304 $-1 #
loop $-1 $-1 $248 $311 #
edge $-1 $306 -7 $213 0 $268 $307 forward 7 unknown #
face $-1 $261 $251 $17 $-1 $277 reversed single #
coedge $-1 $297 $252 $320 $299 forward $298 $-1 #
coedge $-1 $252 $296 $256 $302 forward $298 $-1 #
loop $-1 $-1 $252 $280 #
edge $-1 $254 -2.6244062631887405e-032 $321 7 $320 $322 forward 7 unknown #
point $-1 -2.6244062631887405e-032 -7 25 #
coedge $-1 $257 $256 $303 $312 forward $258 $-1 #
edge $-1 $321 -7 $166 0 $256 $279 forward 7 unknown #
coedge $-1 $320 $259 $301 $312 reversed $304 $-1 #
loop $-1 $-1 $292 $314 #
straight-curve $-1 0 -7 -25 -1 0 0 I I #
vertex $-1 $294 $323 #
straight-curve $-1 -7 0 -25 0 1 0 I I #
coedge $-1 $269 $268 $318 $324 reversed $245 $-1 #
coedge $-1 $317 $288 $269 $217 forward $287 $-1 #
point $-1 -7 -7 25 #
face $-1 $270 $293 $17 $-1 $325 reversed single #
edge $-1 $321 -25 $278 25 $301 $326 forward 7 unknown #
point $-1 7 -7 -25 #
face $-1 $295 $304 $17 $-1 $325 reversed single #
straight-curve $-1 -7 7 0 0 0 -1 I I #
point $-1 -7 7 -25 #
coedge $-1 $288 $309 $290 $319 forward $287 $-1 #
coedge $-1 $291 $290 $308 $324 forward $293 $-1 #
edge $-1 $274 -7 $254 -2.6244062631887405e-032 $290 $322 forward 7 unknown #
coedge $-1 $292 $303 $296 $299 reversed $304 $-1 #
vertex $-1 $302 $327 #
straight-curve $-1 0 -7 25 1 0 0 I I #
point $-1 -7 -7 -25 #
edge $-1 $274 -25 $306 25 $308 $328 forward 7 unknown #
plane-surface $-1 0 -7 0 0 1 0 0 0 1 forward_v I I I I #
straight-curve $-1 7 -7 0 0 0 -1 I I #
point $-1 7 -7 25 #
straight-curve $-1 -7 -7 0 0 0 -1 I I #
End-of-ACIS-data 