600 0 1 0           
117 GICL Pro/E ACIS Translator - Source: f:/data5/repository/NIST/Manfred_Osti/suitcase/adaptnipple/adaptnipple.prt - 6 0 13 ACIS 6.0.3 NT 24 Thu Apr 04 13:52:28 2002 
1 9.9999999999999995e-007 1e-010 
body $-1 $1 $-1 $2 #
lump $-1 $-1 $3 $0 #
transform $-1 1 0 0 0 1 0 0 0 1 0 0 0 25.399999999999999 no_rotate no_reflect no_shear #
shell $-1 $-1 $-1 $4 $-1 $1 #
face $-1 $5 $6 $3 $-1 $7 forward single #
face $-1 $8 $9 $3 $-1 $10 forward single #
loop $-1 $-1 $11 $4 #
cone-surface $-1 0 0 -1.1950000000000001 0 0 1 2 0 0 1 I I 0 1 2 forward I I I I #
face $-1 $12 $13 $3 $-1 $14 reversed single #
loop $-1 $-1 $15 $5 #
cone-surface $-1 0 0 -1.1950000000000001 0 0 1 2 0 0 1 I I 0 1 2 forward I I I I #
coedge $-1 $16 $17 $18 $19 forward $6 $-1 #
face $-1 $20 $21 $3 $-1 $22 forward single #
loop $-1 $23 $24 $8 #
plane-surface $-1 0 0 1.1950000000000001 0 0 1 1 0 0 forward_v I I I I #
coedge $-1 $25 $26 $27 $28 forward $9 $-1 #
coedge $-1 $27 $11 $29 $30 reversed $6 $-1 #
coedge $-1 $11 $27 $31 $32 forward $6 $-1 #
coedge $-1 $26 $25 $11 $19 reversed $9 $-1 #
edge $-1 $33 0 $34 2.3900000000000001 $11 $35 forward 7 unknown #
face $-1 $36 $37 $3 $-1 $38 forward single #
loop $-1 $-1 $39 $12 #
cone-surface $-1 0 0 1.1950000000000001 0 0 1 3 0 0 1 I I 0 1 3 forward I I I I #
loop $-1 $-1 $40 $8 #
coedge $-1 $41 $41 $42 $43 reversed $13 $-1 #
coedge $-1 $18 $15 $40 $44 reversed $9 $-1 #
coedge $-1 $15 $18 $45 $46 forward $9 $-1 #
coedge $-1 $17 $16 $15 $28 reversed $6 $-1 #
edge $-1 $47 0 $48 2.3900000000000001 $27 $49 forward 7 unknown #
coedge $-1 $40 $40 $16 $30 forward $23 $-1 #
edge $-1 $48 0 $34 3.1415926535897931 $16 $50 forward 7 unknown #
coedge $-1 $45 $45 $17 $32 reversed $51 $-1 #
edge $-1 $47 0 $33 3.1415926535897931 $17 $52 forward 7 unknown #
vertex $-1 $32 $53 #
vertex $-1 $30 $54 #
straight-curve $-1 -2 2.4492127076447545e-016 -1.1950000000000001 0 0 1 I I #
face $-1 $55 $56 $3 $-1 $57 forward single #
loop $-1 $-1 $58 $20 #
cone-surface $-1 0 0 1.1950000000000001 0 0 1 3 0 0 1 I I 0 1 3 forward I I I I #
coedge $-1 $59 $42 $60 $61 forward $21 $-1 #
coedge $-1 $29 $29 $25 $44 forward $23 $-1 #
coedge $-1 $24 $24 $62 $63 reversed $13 $-1 #
coedge $-1 $39 $64 $24 $43 forward $21 $-1 #
edge $-1 $65 0 $66 3.1415926535897931 $24 $67 forward 7 unknown #
edge $-1 $34 0 $48 3.1415926535897931 $25 $68 forward 7 unknown #
coedge $-1 $31 $31 $26 $46 reversed $51 $-1 #
edge $-1 $33 0 $47 3.1415926535897931 $26 $69 forward 7 unknown #
vertex $-1 $32 $70 #
vertex $-1 $28 $71 #
straight-curve $-1 2 0 -1.1950000000000001 0 0 1 I I #
ellipse-curve $-1 -5.5511151231257827e-017 0 1.1950000000000001 0 0 1 2 0 0 1 I I #
loop $-1 $72 $45 $73 #
ellipse-curve $-1 0 0 -1.1950000000000001 0 0 1 2 0 0 1 I I #
point $-1 -2 0 -1.1950000000000001 #
point $-1 -2 0 1.1950000000000001 #
face $-1 $74 $75 $3 $-1 $76 reversed single #
loop $-1 $77 $78 $36 #
plane-surface $-1 0 0 2.0350000000000001 0 0 1 1 0 0 forward_v I I I I #
coedge $-1 $79 $62 $64 $80 forward $37 $-1 #
coedge $-1 $64 $39 $78 $81 reversed $21 $-1 #
coedge $-1 $62 $79 $39 $61 reversed $37 $-1 #
edge $-1 $66 0 $82 0.84000000000000008 $60 $83 forward 7 unknown #
coedge $-1 $58 $60 $41 $63 forward $37 $-1 #
edge $-1 $66 0 $65 3.1415926535897931 $41 $84 forward 7 unknown #
coedge $-1 $42 $59 $58 $80 reversed $21 $-1 #
vertex $-1 $63 $85 #
vertex $-1 $63 $86 #
ellipse-curve $-1 0 0 1.1950000000000001 0 0 1 -3 0 0 1 I I #
ellipse-curve $-1 5.5511151231257827e-017 1.1102230246251565e-016 1.1950000000000001 0 0 1 -2 -1.1102230246251565e-016 0 1 I I #
ellipse-curve $-1 0 0 -1.1950000000000001 0 0 1 -2 0 0 1 I I #
point $-1 2 0 -1.1950000000000001 #
point $-1 2 0 1.1950000000000001 #
loop $-1 $87 $88 $73 #
face $-1 $89 $90 $3 $-1 $91 reversed single #
face $-1 $92 $93 $3 $-1 $94 reversed single #
loop $-1 $-1 $95 $55 #
cone-surface $-1 0 0 2.0350000000000001 0 0 -1 -1.875 0 0 1 I I 0 1 1.875 forward I I I I #
loop $-1 $-1 $96 $36 #
coedge $-1 $97 $97 $59 $81 forward $56 $-1 #
coedge $-1 $60 $58 $97 $98 reversed $37 $-1 #
edge $-1 $65 0 $99 0.84000000000000008 $58 $100 forward 7 unknown #
edge $-1 $99 0 $82 3.1415926535897931 $78 $101 forward 7 unknown #
vertex $-1 $98 $102 #
straight-curve $-1 3 0 1.1950000000000001 0 0 1 I I #
ellipse-curve $-1 0 0 1.1950000000000001 0 0 1 3 0 0 1 I I #
point $-1 -3 0 1.1950000000000001 #
point $-1 3 0 1.1950000000000001 #
loop $-1 $-1 $103 $73 #
coedge $-1 $104 $104 $105 $106 reversed $72 $-1 #
face $-1 $107 $108 $3 $-1 $109 reversed single #
loop $-1 $51 $110 $73 #
plane-surface $-1 0 0 -1.1950000000000001 0 0 -1 1 0 0 forward_v I I I I #
face $-1 $111 $112 $3 $-1 $113 forward single #
loop $-1 $-1 $114 $74 #
cone-surface $-1 0 0 2.0350000000000001 0 0 -1 -1.875 0 0 1 I I 0 1 1.875 forward I I I I #
coedge $-1 $115 $116 $117 $118 forward $75 $-1 #
coedge $-1 $119 $119 $116 $120 forward $77 $-1 #
coedge $-1 $78 $78 $79 $98 forward $56 $-1 #
edge $-1 $82 0 $99 3.1415926535897931 $97 $121 forward 7 unknown #
vertex $-1 $98 $122 #
straight-curve $-1 -3 3.6738190614671318e-016 1.1950000000000001 0 0 1 I I #
ellipse-curve $-1 -1.1102230246251565e-016 4.4408920985006262e-016 2.0350000000000001 0 0 1 -3 -4.4408920985006262e-016 0 1 I I #
point $-1 3 0 2.0350000000000001 #
coedge $-1 $123 $123 $124 $125 reversed $87 $-1 #
coedge $-1 $88 $88 $126 $127 reversed $72 $-1 #
coedge $-1 $128 $129 $88 $106 forward $108 $-1 #
edge $-1 $130 0 $131 3.1415926535897931 $88 $132 forward 7 unknown #
face $-1 $133 $134 $3 $-1 $135 reversed single #
loop $-1 $-1 $128 $89 #
cone-surface $-1 0 -3.5 -2.125 0 0 1 0.19 0 0 1 I I 0 1 0.19 forward I I I I #
coedge $-1 $136 $136 $137 $138 reversed $90 $-1 #
face $-1 $139 $140 $3 $-1 $141 forward single #
loop $-1 $142 $143 $92 #
plane-surface $-1 0 0 -2.125 0 0 -1 1 0 0 forward_v I I I I #
coedge $-1 $144 $145 $146 $147 forward $93 $-1 #
coedge $-1 $146 $95 $148 $149 forward $75 $-1 #
coedge $-1 $95 $146 $96 $120 reversed $75 $-1 #
coedge $-1 $145 $144 $95 $118 reversed $93 $-1 #
edge $-1 $150 0 $151 4.1600000000000001 $117 $152 forward 7 unknown #
coedge $-1 $96 $96 $145 $153 forward $77 $-1 #
edge $-1 $150 0 $154 3.1415926535897931 $96 $155 forward 7 unknown #
ellipse-curve $-1 2.2204460492503131e-016 -3.3306690738754696e-016 2.0350000000000001 0 0 1 3 3.3306690738754696e-016 0 1 I I #
point $-1 -3 0 2.0350000000000001 #
coedge $-1 $103 $103 $156 $157 reversed $87 $-1 #
coedge $-1 $158 $159 $103 $125 forward $160 $-1 #
edge $-1 $161 0 $162 3.1415926535897918 $103 $163 forward 7 unknown #
coedge $-1 $164 $165 $104 $127 forward $134 $-1 #
edge $-1 $131 0 $130 3.1415926535897931 $104 $166 forward 7 unknown #
coedge $-1 $167 $105 $165 $168 reversed $108 $-1 #
coedge $-1 $105 $167 $164 $169 forward $108 $-1 #
vertex $-1 $127 $170 #
vertex $-1 $127 $171 #
ellipse-curve $-1 1.3877787807814457e-017 -3.5 -1.1950000000000001 0 0 1 -0.19 0 0 1 I I #
face $-1 $172 $160 $3 $-1 $173 reversed single #
loop $-1 $-1 $164 $107 #
cone-surface $-1 0 -3.5 -2.125 0 0 1 0.19 0 0 1 I I 0 1 0.19 forward I I I I #
coedge $-1 $110 $110 $174 $175 reversed $90 $-1 #
coedge $-1 $176 $177 $110 $138 forward $140 $-1 #
edge $-1 $178 0 $179 3.1415926535897931 $110 $180 forward 7 unknown #
face $-1 $73 $181 $3 $-1 $182 forward single #
loop $-1 $-1 $176 $111 #
cone-surface $-1 0 0 -1.1950000000000001 0 0 -1 4 0 0 1 I I 0 1 4 forward I I I I #
loop $-1 $183 $148 $92 #
coedge $-1 $184 $184 $185 $186 forward $112 $-1 #
coedge $-1 $117 $114 $187 $188 forward $93 $-1 #
coedge $-1 $114 $117 $119 $153 reversed $93 $-1 #
coedge $-1 $116 $115 $114 $147 reversed $75 $-1 #
edge $-1 $154 0 $189 4.1600000000000001 $114 $190 forward 7 unknown #
coedge $-1 $187 $187 $115 $149 reversed $142 $-1 #
edge $-1 $151 0 $189 3.1415926535897927 $148 $191 forward 7 unknown #
vertex $-1 $153 $192 #
vertex $-1 $188 $193 #
straight-curve $-1 1.875 2.2961369134169574e-016 2.0350000000000001 0 0 -1 I I #
edge $-1 $154 0 $150 3.1415926535897931 $119 $194 forward 7 unknown #
vertex $-1 $153 $195 #
ellipse-curve $-1 0 0 2.0350000000000001 0 0 -1 1.875 0 0 1 I I #
coedge $-1 $196 $197 $123 $157 forward $198 $-1 #
edge $-1 $162 0 $161 3.1415926535897931 $123 $199 forward 7 unknown #
coedge $-1 $200 $124 $197 $201 reversed $160 $-1 #
coedge $-1 $124 $200 $196 $202 forward $160 $-1 #
loop $-1 $-1 $158 $133 #
vertex $-1 $157 $203 #
vertex $-1 $157 $204 #
ellipse-curve $-1 3.5 1.3877787807814457e-016 -1.1950000000000001 0 0 1 -0.18999999999999995 -1.3877787807814457e-016 0 1 I I #
coedge $-1 $205 $126 $129 $169 reversed $134 $-1 #
coedge $-1 $126 $205 $128 $168 forward $134 $-1 #
ellipse-curve $-1 -6.9388939039072284e-018 -3.5 -1.1950000000000001 0 0 1 0.19 0 0 1 I I #
coedge $-1 $129 $128 $206 $207 reversed $108 $-1 #
edge $-1 $208 0 $131 0.92999999999999994 $165 $209 forward 7 unknown #
edge $-1 $210 0 $130 0.92999999999999994 $164 $211 forward 7 unknown #
point $-1 -0.19 -3.5 -1.1950000000000001 #
point $-1 0.19 -3.5 -1.1950000000000001 #
face $-1 $-1 $198 $3 $-1 $212 reversed single #
cone-surface $-1 3.5 0 -2.125 0 0 1 0.19 0 0 1 I I 0 1 0.19 forward I I I I #
coedge $-1 $213 $214 $136 $175 forward $181 $-1 #
edge $-1 $179 0 $178 3.1415926535897931 $136 $215 forward 7 unknown #
coedge $-1 $185 $137 $214 $216 forward $140 $-1 #
coedge $-1 $137 $185 $213 $217 reversed $140 $-1 #
vertex $-1 $175 $218 #
vertex $-1 $175 $219 #
ellipse-curve $-1 0 0 -1.1950000000000001 0 0 -1 -4 0 0 1 I I #
loop $-1 $-1 $213 $139 #
cone-surface $-1 0 0 -1.1950000000000001 0 0 -1 4 0 0 1 I I 0 1 4 forward I I I I #
loop $-1 $220 $206 $92 #
coedge $-1 $143 $143 $221 $222 forward $112 $-1 #
coedge $-1 $177 $176 $143 $186 reversed $140 $-1 #
edge $-1 $223 0 $224 3.1415926535897931 $143 $225 forward 7 unknown #
coedge $-1 $148 $148 $144 $188 reversed $142 $-1 #
edge $-1 $189 0 $151 3.1415926535897931 $187 $226 forward 7 unknown #
vertex $-1 $188 $227 #
straight-curve $-1 -1.875 0 2.0350000000000001 0 0 -1 I I #
ellipse-curve $-1 -5.5511151231257827e-017 4.4408920985006262e-016 -2.125 0 0 -1 1.875 -4.4408920985006262e-016 0 1 I I #
point $-1 1.875 0 2.0350000000000001 #
point $-1 1.875 0 -2.125 #
ellipse-curve $-1 0 0 2.0350000000000001 0 0 -1 -1.875 0 0 1 I I #
point $-1 -1.875 0 2.0350000000000001 #
coedge $-1 $228 $156 $159 $202 reversed $198 $-1 #
coedge $-1 $156 $228 $158 $201 forward $198 $-1 #
loop $-1 $-1 $196 $172 #
ellipse-curve $-1 3.5 2.7755575615628914e-017 -1.1950000000000001 0 0 1 0.18999999999999995 -2.7755575615628914e-017 0 1 I I #
coedge $-1 $159 $158 $229 $230 reversed $160 $-1 #
edge $-1 $231 0 $162 0.92999999999999994 $197 $232 forward 7 unknown #
edge $-1 $233 0 $161 0.92999999999999994 $196 $234 forward 7 unknown #
point $-1 3.3100000000000001 0 -1.1950000000000001 #
point $-1 3.6899999999999999 0 -1.1950000000000001 #
coedge $-1 $165 $164 $235 $236 reversed $134 $-1 #
coedge $-1 $235 $235 $167 $207 forward $183 $-1 #
edge $-1 $210 0 $208 3.1415926535897931 $206 $237 forward 7 unknown #
vertex $-1 $236 $238 #
straight-curve $-1 0.19 -3.5 -2.125 0 0 1 I I #
vertex $-1 $236 $239 #
straight-curve $-1 -0.19 -3.5 -2.125 0 0 1 I I #
cone-surface $-1 3.5 0 -2.125 0 0 1 0.19 0 0 1 I I 0 1 0.19 forward I I I I #
coedge $-1 $221 $174 $177 $217 forward $181 $-1 #
coedge $-1 $174 $221 $176 $216 reversed $181 $-1 #
ellipse-curve $-1 0 0 -1.1950000000000001 0 0 -1 4 0 0 1 I I #
edge $-1 $179 0 $224 0.92999999999999994 $214 $240 forward 7 unknown #
edge $-1 $178 0 $223 0.92999999999999994 $213 $241 forward 7 unknown #
point $-1 -4 0 -1.1950000000000001 #
point $-1 4 0 -1.1950000000000001 #
loop $-1 $-1 $229 $92 #
coedge $-1 $214 $213 $184 $222 reversed $181 $-1 #
edge $-1 $224 0 $223 3.1415926535897931 $184 $242 forward 7 unknown #
vertex $-1 $222 $243 #
vertex $-1 $222 $244 #
ellipse-curve $-1 0 0 -2.125 0 0 -1 -4 0 0 1 I I #
ellipse-curve $-1 0 1.1102230246251565e-016 -2.125 0 0 -1 -1.875 -1.1102230246251565e-016 0 1 I I #
point $-1 -1.875 0 -2.125 #
coedge $-1 $197 $196 $245 $246 reversed $198 $-1 #
coedge $-1 $245 $245 $200 $230 forward $220 $-1 #
edge $-1 $233 0 $231 3.1415926535897931 $229 $247 forward 7 unknown #
vertex $-1 $246 $248 #
straight-curve $-1 3.6899999999999999 0 -2.125 0 0 1 I I #
vertex $-1 $246 $249 #
straight-curve $-1 3.3100000000000001 2.3267520722625167e-017 -2.125 0 0 1 I I #
coedge $-1 $206 $206 $205 $236 forward $183 $-1 #
edge $-1 $208 0 $210 3.1415926535897931 $235 $250 forward 7 unknown #
ellipse-curve $-1 0 -3.5 -2.125 0 0 1 -0.19 0 0 1 I I #
point $-1 0.19 -3.5 -2.125 #
point $-1 -0.19 -3.5 -2.125 #
straight-curve $-1 4 0 -1.1950000000000001 0 0 -1 I I #
straight-curve $-1 -4 -4.898425415289509e-016 -1.1950000000000001 0 0 -1 I I #
ellipse-curve $-1 0 0 -2.125 0 0 -1 4 0 0 1 I I #
point $-1 -4 0 -2.125 #
point $-1 4 0 -2.125 #
coedge $-1 $229 $229 $228 $246 forward $220 $-1 #
edge $-1 $231 0 $233 3.1415926535897931 $245 $251 forward 7 unknown #
ellipse-curve $-1 3.5 0 -2.125 0 0 1 -0.18999999999999995 0 0 1 I I #
point $-1 3.6899999999999999 0 -2.125 #
point $-1 3.3100000000000001 0 -2.125 #
ellipse-curve $-1 0 -3.5 -2.125 0 0 1 0.19 0 0 1 I I #
ellipse-curve $-1 3.5 0 -2.125 0 0 1 0.18999999999999995 0 0 1 I I #
End-of-ACIS-data 