700 0 2 0           
24 FBMach with ACIS - 7.0.3 13 ACIS 7.0.3 NT 24 Tue May 14 14:19:41 2002 
1 9.9999999999999995e-007 1e-010 
body $2 -1 $-1 $3 $-1 $4 #
bdycol-kcp $-1 -1 1 5 $5 $6 $7 $8 $9 #
model_id-kcp-attrib $-1 -1 $-1 $-1 $0 1 1021400381 1021400381 526712833 1 #
lump $-1 -1 $-1 $-1 $10 $0 #
transform $-1 -1 1 0 0 0 1 0 0 0 1 0 0 0 1 rotate no_reflect no_shear #
body $11 -1 $-1 $12 $-1 $13 #
body $14 -1 $-1 $15 $-1 $16 #
body $17 -1 $-1 $18 $-1 $19 #
body $20 -1 $-1 $21 $-1 $22 #
body $23 -1 $-1 $24 $-1 $25 #
shell $-1 -1 $-1 $-1 $-1 $26 $-1 $3 #
model_id-kcp-attrib $-1 -1 $-1 $-1 $5 1 1021400381 1021400381 526712834 1 #
lump $-1 -1 $-1 $-1 $27 $5 #
transform $-1 -1 1 0 0 0 1 0 0 0 1 0 0 -0.044999999999999929 1 no_rotate no_reflect no_shear #
rgb_color-st-attrib $-1 -1 $28 $-1 $6 0.5 1 1 #
lump $-1 -1 $-1 $-1 $29 $6 #
transform $-1 -1 -1 0 -1.2246063538223773e-016 0 1 0 1.2246063538223773e-016 0 -1 2.5471812159505448e-016 0 -0.044999999999999929 1 rotate no_reflect no_shear #
rgb_color-st-attrib $-1 -1 $30 $-1 $7 0.5 1 1 #
lump $-1 -1 $-1 $-1 $31 $7 #
transform $-1 -1 1 0 0 0 1 0 0 0 1 0 -3.5 -1.6600000000000001 1 no_rotate no_reflect no_shear #
rgb_color-st-attrib $-1 -1 $32 $-1 $8 0.5 1 1 #
lump $-1 -1 $-1 $-1 $33 $8 #
transform $-1 -1 1 0 0 0 1 0 0 0 1 3.5 0 -1.6600000000000001 1 no_rotate no_reflect no_shear #
rgb_color-st-attrib $-1 -1 $34 $-1 $9 0.5 1 1 #
lump $-1 -1 $-1 $-1 $35 $9 #
transform $-1 -1 1 0 0 0 1 0 0 0 1 0 0 -0.044999999999999929 1 no_rotate no_reflect no_shear #
face $36 -1 $-1 $37 $38 $10 $-1 $39 forward single #
shell $-1 -1 $-1 $-1 $-1 $40 $-1 $12 #
model_id-kcp-attrib $-1 -1 $-1 $14 $6 1 1021400381 1021400381 529989635 1 #
shell $-1 -1 $-1 $-1 $-1 $41 $-1 $15 #
model_id-kcp-attrib $-1 -1 $-1 $17 $7 1 1021400381 1021400381 529989636 1 #
shell $-1 -1 $-1 $-1 $-1 $42 $-1 $18 #
model_id-kcp-attrib $-1 -1 $-1 $20 $8 1 1021400381 1021400381 529989637 1 #
shell $-1 -1 $-1 $-1 $-1 $43 $-1 $21 #
model_id-kcp-attrib $-1 -1 $-1 $23 $9 1 1021400381 1021400381 533921798 1 #
shell $-1 -1 $-1 $-1 $-1 $44 $-1 $24 #
model_id-kcp-attrib $-1 -1 $-1 $-1 $26 1 1021400381 1021400381 526712833 2 #
face $45 -1 $-1 $46 $47 $10 $-1 $48 reversed single #
loop $-1 -1 $-1 $49 $50 $26 #
cone-surface $-1 -1 $-1 0 0 -1.1950000000000001 0 0 1 2 0 0 1 I I 0 1 2 forward I I I I #
face $51 -1 $-1 $52 $53 $27 $-1 $54 forward single #
face $-1 -1 $-1 $55 $56 $29 $-1 $57 forward single #
face $-1 -1 $-1 $58 $59 $31 $-1 $60 forward single #
face $-1 -1 $-1 $61 $62 $33 $-1 $63 forward single #
face $-1 -1 $-1 $64 $65 $35 $-1 $66 reversed single #
model_id-kcp-attrib $-1 -1 $-1 $-1 $37 1 1021400381 1021400381 526712833 3 #
face $67 -1 $-1 $68 $69 $10 $-1 $70 forward single #
loop $-1 -1 $-1 $71 $72 $37 #
plane-surface $-1 -1 $-1 0 0 1.1950000000000001 0 0 1 1 0 0 forward_v I I I I #
loop $-1 -1 $-1 $-1 $73 $26 #
coedge $-1 -1 $-1 $50 $50 $74 $75 forward $38 $-1 #
model_id-kcp-attrib $-1 -1 $-1 $-1 $40 1 1021400381 1021400381 526712834 2 #
face $76 -1 $-1 $77 $78 $27 $-1 $79 reversed single #
loop $-1 -1 $-1 $-1 $80 $40 #
plane-surface $-1 -1 $-1 0 0 2.0800000000000001 0 0 1 1 0 0 forward_v I I I I #
face $-1 -1 $-1 $81 $82 $29 $-1 $83 forward single #
loop $-1 -1 $-1 $84 $85 $41 #
cone-surface $-1 -1 $-1 0 0 0 0 0 1 1.875 0 0 1 I I 0 1 1.875 forward I I I I #
face $-1 -1 $-1 $86 $87 $31 $-1 $88 forward single #
loop $-1 -1 $-1 $89 $90 $42 #
cone-surface $-1 -1 $-1 0 0 0 0 0 1 0.19 0 0 1 I I 0 1 0.19 forward I I I I #
face $-1 -1 $-1 $91 $92 $33 $-1 $93 forward single #
loop $-1 -1 $-1 $94 $95 $43 #
cone-surface $-1 -1 $-1 0 0 0 0 0 1 0.19 0 0 1 I I 0 1 0.19 forward I I I I #
face $-1 -1 $-1 $96 $97 $35 $-1 $66 reversed single #
loop $-1 -1 $-1 $-1 $98 $44 #
cone-surface $-1 -1 $-1 -1.4996607218221374e-032 0 2.0800000000000001 0 0 1 4 0 0 1 I I 0 1 4 forward I I I I #
model_id-kcp-attrib $-1 -1 $-1 $-1 $46 1 1021400381 1021400381 526712833 4 #
face $99 -1 $-1 $100 $101 $10 $-1 $102 forward single #
loop $-1 -1 $-1 $103 $104 $46 #
plane-surface $-1 -1 $-1 0 0 2.0350000000000001 0 0 1 1 0 0 forward_v I I I I #
loop $-1 -1 $-1 $-1 $74 $37 #
coedge $-1 -1 $-1 $72 $72 $105 $106 forward $47 $-1 #
coedge $-1 -1 $-1 $73 $73 $107 $108 reversed $49 $-1 #
coedge $-1 -1 $-1 $74 $74 $50 $75 reversed $71 $-1 #
edge $-1 -1 $-1 $109 -3.1415926535897931 $109 3.1415926535897931 $74 $110 forward @7 unknown #
model_id-kcp-attrib $-1 -1 $-1 $-1 $52 1 1021400381 1021400381 526712834 3 #
face $-1 -1 $-1 $111 $112 $27 $-1 $113 reversed single #
loop $-1 -1 $-1 $-1 $114 $52 #
plane-surface $-1 -1 $-1 0 0 -2.0800000000000001 0 0 1 1 0 0 forward_v I I I I #
coedge $-1 -1 $-1 $115 $116 $117 $118 forward $53 $-1 #
face $-1 -1 $-1 $-1 $119 $29 $-1 $120 forward single #
loop $-1 -1 $-1 $-1 $121 $55 #
plane-surface $-1 -1 $-1 0 0 -2.0800000000000005 0 0 -1 -1 0 0 forward_v I I I I #
loop $-1 -1 $-1 $-1 $122 $41 #
coedge $-1 -1 $-1 $85 $85 $121 $123 reversed $56 $-1 #
face $-1 -1 $-1 $-1 $124 $31 $-1 $125 forward single #
loop $-1 -1 $-1 $-1 $126 $58 #
plane-surface $-1 -1 $-1 0 0 -0.46499999999999997 0 0 -1 -1 0 0 forward_v I I I I #
loop $-1 -1 $-1 $-1 $127 $42 #
coedge $-1 -1 $-1 $90 $90 $126 $128 reversed $59 $-1 #
face $-1 -1 $-1 $-1 $129 $33 $-1 $130 forward single #
loop $-1 -1 $-1 $-1 $131 $61 #
plane-surface $-1 -1 $-1 0 0 -0.46499999999999997 0 0 -1 -1 0 0 forward_v I I I I #
loop $-1 -1 $-1 $-1 $132 $43 #
coedge $-1 -1 $-1 $95 $95 $131 $133 reversed $62 $-1 #
face $-1 -1 $-1 $134 $135 $35 $-1 $66 reversed single #
loop $-1 -1 $-1 $-1 $136 $64 #
coedge $-1 -1 $-1 $137 $138 $139 $140 reversed $65 $-1 #
model_id-kcp-attrib $-1 -1 $-1 $-1 $68 1 1021400381 1021400381 526712833 5 #
face $141 -1 $-1 $142 $143 $10 $-1 $144 reversed single #
loop $-1 -1 $-1 $145 $146 $68 #
cone-surface $-1 -1 $-1 0 0 1.1950000000000001 0 0 1 3 0 0 1 I I 0 1 3 forward I I I I #
loop $147 -1 $-1 $-1 $148 $46 #
coedge $-1 -1 $-1 $104 $104 $146 $149 reversed $69 $-1 #
coedge $-1 -1 $-1 $105 $105 $72 $106 reversed $145 $-1 #
edge $-1 -1 $-1 $150 -3.1415926535897931 $150 3.1415926535897931 $105 $151 forward @7 unknown #
coedge $-1 -1 $-1 $107 $107 $73 $108 forward $152 $-1 #
edge $-1 -1 $-1 $153 -3.1415926535897931 $153 3.1415926535897931 $107 $154 forward @7 unknown #
vertex $-1 -1 $-1 $75 $155 #
ellipse-curve $-1 -1 $-1 0 0 1.1950000000000001 0 0 -1 -2 0 0 1 I I #
face $-1 -1 $-1 $156 $157 $27 $-1 $158 reversed single #
loop $-1 -1 $-1 $-1 $159 $77 #
plane-surface $-1 -1 $-1 0 -4 0 0 1 0 0 0 1 forward_v I I I I #
coedge $-1 -1 $-1 $160 $161 $162 $163 forward $78 $-1 #
coedge $-1 -1 $-1 $164 $80 $165 $166 forward $53 $-1 #
coedge $-1 -1 $-1 $80 $164 $167 $168 forward $53 $-1 #
coedge $-1 -1 $-1 $169 $170 $80 $118 reversed $171 $-1 #
edge $-1 -1 $-1 $172 -4 $173 4 $117 $174 forward @7 unknown #
loop $-1 -1 $-1 $-1 $175 $81 #
plane-surface $-1 -1 $-1 0 0 2.0800000000000005 0 0 1 1 0 0 forward_v I I I I #
coedge $-1 -1 $-1 $121 $121 $85 $123 forward $82 $-1 #
coedge $-1 -1 $-1 $122 $122 $175 $176 reversed $84 $-1 #
edge $-1 -1 $-1 $177 0 $177 6.2831853071795862 $121 $178 forward @7 unknown #
loop $-1 -1 $-1 $-1 $179 $86 #
plane-surface $-1 -1 $-1 0 0 0.46499999999999997 0 0 1 1 0 0 forward_v I I I I #
coedge $-1 -1 $-1 $126 $126 $90 $128 forward $87 $-1 #
coedge $-1 -1 $-1 $127 $127 $179 $180 reversed $89 $-1 #
edge $-1 -1 $-1 $181 0 $181 6.2831853071795862 $126 $182 forward @7 unknown #
loop $-1 -1 $-1 $-1 $183 $91 #
plane-surface $-1 -1 $-1 0 0 0.46499999999999997 0 0 1 1 0 0 forward_v I I I I #
coedge $-1 -1 $-1 $131 $131 $95 $133 forward $92 $-1 #
coedge $-1 -1 $-1 $132 $132 $183 $184 reversed $94 $-1 #
edge $-1 -1 $-1 $185 0 $185 6.2831853071795862 $131 $186 forward @7 unknown #
face $-1 -1 $-1 $187 $188 $35 $-1 $66 reversed single #
loop $-1 -1 $-1 $-1 $189 $96 #
coedge $-1 -1 $-1 $190 $191 $192 $193 reversed $97 $-1 #
coedge $-1 -1 $-1 $194 $98 $195 $196 reversed $65 $-1 #
coedge $-1 -1 $-1 $98 $194 $197 $198 reversed $65 $-1 #
coedge $-1 -1 $-1 $199 $200 $201 $140 forward $202 $-1 #
edge $-1 -1 $-1 $203 -4.1600000000000001 $204 0 $139 $205 forward @7 unknown #
model_id-kcp-attrib $-1 -1 $-1 $-1 $100 1 1021400381 1021400381 526712833 6 #
face $206 -1 $-1 $207 $208 $10 $-1 $209 forward single #
loop $-1 -1 $-1 $152 $210 $100 #
plane-surface $-1 -1 $-1 0 0 -1.1950000000000001 0 0 -1 -1 0 0 forward_v I I I I #
loop $-1 -1 $-1 $-1 $105 $68 #
coedge $-1 -1 $-1 $146 $146 $104 $149 forward $101 $-1 #
model_id-kcp-attrib $-1 -1 $-1 $-1 $103 1 1021400381 1021400381 526712833 17 #
coedge $-1 -1 $-1 $148 $148 $211 $212 reversed $103 $-1 #
edge $213 -1 $-1 $214 0 $214 6.2831853071795862 $146 $215 forward @7 unknown #
vertex $-1 -1 $-1 $106 $216 #
ellipse-curve $-1 -1 $-1 0 0 1.1950000000000001 0 0 -1 -3 0 0 1 I I #
loop $-1 -1 $-1 $217 $107 $100 #
vertex $-1 -1 $-1 $108 $218 #
ellipse-curve $-1 -1 $-1 0 0 -1.1950000000000001 0 0 -1 -2 0 0 1 I I #
point $-1 -1 $-1 2 0 1.1950000000000001 #
face $-1 -1 $-1 $219 $220 $27 $-1 $221 reversed single #
loop $-1 -1 $-1 $-1 $222 $111 #
plane-surface $-1 -1 $-1 -4 0 0 1 0 0 0 0 -1 forward_v I I I I #
coedge $-1 -1 $-1 $223 $167 $224 $225 forward $112 $-1 #
coedge $-1 -1 $-1 $226 $114 $223 $227 forward $78 $-1 #
coedge $-1 -1 $-1 $114 $226 $228 $229 forward $78 $-1 #
coedge $-1 -1 $-1 $170 $169 $114 $163 reversed $171 $-1 #
edge $-1 -1 $-1 $230 -4 $231 4 $162 $232 forward @7 unknown #
coedge $-1 -1 $-1 $116 $115 $233 $234 forward $53 $-1 #
coedge $-1 -1 $-1 $235 $236 $115 $166 reversed $220 $-1 #
edge $-1 -1 $-1 $173 -4 $237 4 $165 $238 forward @7 unknown #
coedge $-1 -1 $-1 $159 $239 $116 $168 reversed $112 $-1 #
edge $-1 -1 $-1 $240 -4 $172 4 $167 $241 forward @7 unknown #
coedge $-1 -1 $-1 $162 $117 $239 $242 forward $171 $-1 #
coedge $-1 -1 $-1 $117 $162 $235 $243 reversed $171 $-1 #
loop $-1 -1 $-1 $-1 $169 $219 #
vertex $-1 -1 $-1 $118 $244 #
vertex $-1 -1 $-1 $118 $245 #
straight-curve $-1 -1 $-1 4 0 2.0800000000000001 0 1 0 I I #
coedge $-1 -1 $-1 $175 $175 $122 $176 forward $119 $-1 #
edge $-1 -1 $-1 $246 0 $246 6.2831853071795862 $175 $247 forward @7 unknown #
vertex $-1 -1 $-1 $123 $248 #
ellipse-curve $-1 -1 $-1 0 0 -2.0800000000000005 0 0 -1 1.875 0 0 1 I I #
coedge $-1 -1 $-1 $179 $179 $127 $180 forward $124 $-1 #
edge $-1 -1 $-1 $249 0 $249 6.2831853071795862 $179 $250 forward @7 unknown #
vertex $-1 -1 $-1 $128 $251 #
ellipse-curve $-1 -1 $-1 0 0 -0.46499999999999997 0 0 -1 0.19 0 0 1 I I #
coedge $-1 -1 $-1 $183 $183 $132 $184 forward $129 $-1 #
edge $-1 -1 $-1 $252 0 $252 6.2831853071795862 $183 $253 forward @7 unknown #
vertex $-1 -1 $-1 $133 $254 #
ellipse-curve $-1 -1 $-1 0 0 -0.46499999999999997 0 0 -1 0.19 0 0 1 I I #
face $-1 -1 $-1 $255 $256 $35 $-1 $257 reversed single #
loop $-1 -1 $-1 $-1 $258 $134 #
coedge $-1 -1 $-1 $259 $260 $261 $262 reversed $135 $-1 #
coedge $-1 -1 $-1 $263 $136 $264 $265 reversed $97 $-1 #
coedge $-1 -1 $-1 $136 $263 $98 $140 forward $97 $-1 #
coedge $-1 -1 $-1 $266 $267 $136 $193 forward $268 $-1 #
edge $-1 -1 $-1 $269 -3.1415926535897931 $204 -1.5707963267948966 $192 $270 forward @7 unknown #
coedge $-1 -1 $-1 $138 $137 $260 $271 forward $65 $-1 #
coedge $-1 -1 $-1 $272 $273 $137 $196 forward $274 $-1 #
edge $-1 -1 $-1 $275 0 $203 1.5707963267948966 $195 $276 forward @7 unknown #
coedge $-1 -1 $-1 $277 $278 $138 $198 forward $279 $-1 #
edge $-1 -1 $-1 $204 -1.5707963267948966 $280 0 $197 $270 forward @7 unknown #
coedge $-1 -1 $-1 $281 $139 $278 $282 reversed $202 $-1 #
coedge $-1 -1 $-1 $139 $281 $272 $283 reversed $202 $-1 #
coedge $-1 -1 $-1 $284 $285 $191 $140 reversed $286 $-1 #
loop $-1 -1 $-1 $-1 $139 $287 #
vertex $-1 -1 $-1 $283 $288 #
vertex $-1 -1 $-1 $289 $290 #
straight-curve $-1 -1 $-1 -1.4996607218221374e-032 4 2.0800000000000001 0 0 1 I I #
model_id-kcp-attrib $-1 -1 $-1 $-1 $142 1 1021400381 1021400381 526712833 7 #
face $291 -1 $-1 $292 $293 $10 $-1 $294 forward single #
loop $-1 -1 $-1 $295 $296 $142 #
plane-surface $-1 -1 $-1 0 0 -2.125 0 0 -1 -1 0 0 forward_v I I I I #
coedge $-1 -1 $-1 $210 $210 $297 $298 forward $143 $-1 #
coedge $-1 -1 $-1 $211 $211 $148 $212 forward $299 $-1 #
edge $300 -1 $-1 $301 0 $301 6.2831853071795862 $211 $302 forward @7 unknown #
attrib_edge_convexity-kcp-attrib $-1 -1 $303 $-1 $149 1 #
vertex $-1 -1 $-1 $149 $304 #
ellipse-curve $-1 -1 $-1 0 0 2.0350000000000001 0 0 -1 3 0 0 1 I I #
point $-1 -1 $-1 3 0 1.1950000000000001 #
loop $305 -1 $-1 $306 $307 $100 #
point $-1 -1 $-1 2 0 -1.1950000000000001 #
face $-1 -1 $-1 $-1 $171 $27 $-1 $308 reversed single #
loop $-1 -1 $-1 $-1 $235 $156 #
plane-surface $-1 -1 $-1 0 4 0 0 -1 0 0 0 -1 forward_v I I I I #
coedge $-1 -1 $-1 $309 $233 $236 $310 forward $157 $-1 #
coedge $-1 -1 $-1 $239 $159 $160 $227 reversed $112 $-1 #
coedge $-1 -1 $-1 $233 $309 $159 $225 reversed $157 $-1 #
edge $-1 -1 $-1 $240 -2.0800000000000001 $311 2.0800000000000001 $224 $312 forward @7 unknown #
coedge $-1 -1 $-1 $161 $160 $309 $313 forward $78 $-1 #
edge $-1 -1 $-1 $231 -4 $311 4 $223 $314 forward @7 unknown #
coedge $-1 -1 $-1 $236 $235 $161 $229 reversed $220 $-1 #
edge $-1 -1 $-1 $315 -4 $230 4 $228 $316 forward @7 unknown #
vertex $-1 -1 $-1 $163 $317 #
vertex $-1 -1 $-1 $242 $318 #
straight-curve $-1 -1 $-1 4 0 -2.0800000000000001 0 -1 0 I I #
coedge $-1 -1 $-1 $222 $224 $164 $234 reversed $157 $-1 #
edge $-1 -1 $-1 $237 -4 $240 4 $233 $319 forward @7 unknown #
coedge $-1 -1 $-1 $228 $165 $170 $243 forward $220 $-1 #
coedge $-1 -1 $-1 $165 $228 $222 $310 reversed $220 $-1 #
vertex $-1 -1 $-1 $166 $320 #
straight-curve $-1 -1 $-1 0 4 2.0800000000000001 -1 0 0 I I #
coedge $-1 -1 $-1 $167 $223 $169 $242 reversed $112 $-1 #
vertex $-1 -1 $-1 $234 $321 #
straight-curve $-1 -1 $-1 0 -4 2.0800000000000001 1 0 0 I I #
edge $-1 -1 $-1 $172 -2.0800000000000001 $231 2.0800000000000001 $169 $322 forward @7 unknown #
edge $-1 -1 $-1 $173 -2.0800000000000001 $230 2.0800000000000001 $170 $323 forward @7 unknown #
point $-1 -1 $-1 4 -4 2.0800000000000001 #
point $-1 -1 $-1 4 4 2.0800000000000001 #
vertex $-1 -1 $-1 $176 $324 #
ellipse-curve $-1 -1 $-1 0 0 2.0800000000000005 0 0 1 1.875 0 0 1 I I #
point $-1 -1 $-1 1.875 0 -2.0800000000000005 #
vertex $-1 -1 $-1 $180 $325 #
ellipse-curve $-1 -1 $-1 0 0 0.46499999999999997 0 0 1 0.19 0 0 1 I I #
point $-1 -1 $-1 0.19 0 -0.46499999999999997 #
vertex $-1 -1 $-1 $184 $326 #
ellipse-curve $-1 -1 $-1 0 0 0.46499999999999997 0 0 1 0.19 0 0 1 I I #
point $-1 -1 $-1 0.19 0 -0.46499999999999997 #
face $-1 -1 $-1 $327 $286 $35 $-1 $328 reversed single #
loop $-1 -1 $-1 $-1 $329 $187 #
plane-surface $-1 -1 $-1 4 0 0 -1 0 0 0 0 1 forward_v I I I I #
coedge $-1 -1 $-1 $330 $331 $332 $333 reversed $188 $-1 #
coedge $-1 -1 $-1 $334 $189 $331 $335 forward $135 $-1 #
coedge $-1 -1 $-1 $189 $334 $336 $271 reversed $135 $-1 #
coedge $-1 -1 $-1 $337 $338 $189 $262 forward $339 $-1 #
edge $-1 -1 $-1 $340 -1.5707963267948966 $275 0 $261 $276 forward @7 unknown #
coedge $-1 -1 $-1 $191 $190 $341 $342 reversed $97 $-1 #
coedge $-1 -1 $-1 $343 $344 $345 $265 forward $346 $-1 #
edge $-1 -1 $-1 $347 -4.1600000000000001 $269 0 $264 $348 forward @7 unknown #
coedge $-1 -1 $-1 $267 $192 $285 $289 forward $268 $-1 #
coedge $-1 -1 $-1 $192 $266 $343 $349 forward $268 $-1 #
loop $-1 -1 $-1 $-1 $192 $350 #
vertex $-1 -1 $-1 $351 $352 #
ellipse-curve $-1 -1 $-1 -1.4996607218221374e-032 0 2.0800000000000001 0 0 -1 4 0 0 1 I I #
edge $-1 -1 $-1 $275 -4.1600000000000001 $280 0 $336 $353 forward @7 unknown #
coedge $-1 -1 $-1 $273 $195 $200 $283 forward $274 $-1 #
coedge $-1 -1 $-1 $195 $272 $354 $355 forward $274 $-1 #
loop $-1 -1 $-1 $-1 $195 $356 #
vertex $-1 -1 $-1 $357 $358 #
ellipse-curve $-1 -1 $-1 -1.4996607218221374e-032 0 -2.0800000000000001 0 0 1 4 0 0 1 I I #
coedge $-1 -1 $-1 $278 $197 $359 $360 forward $279 $-1 #
coedge $-1 -1 $-1 $197 $277 $199 $282 forward $279 $-1 #
loop $-1 -1 $-1 $-1 $197 $361 #
vertex $-1 -1 $-1 $360 $362 #
coedge $-1 -1 $-1 $200 $199 $363 $364 forward $202 $-1 #
edge $-1 -1 $-1 $365 -4 $204 1.4996607218221374e-032 $199 $366 forward @7 unknown #
edge $-1 -1 $-1 $203 -1.4996607218221374e-032 $367 4 $200 $368 forward @7 unknown #
coedge $-1 -1 $-1 $369 $201 $370 $371 reversed $286 $-1 #
coedge $-1 -1 $-1 $201 $369 $266 $289 reversed $286 $-1 #
loop $-1 -1 $-1 $-1 $201 $255 #
face $-1 -1 $-1 $372 $202 $35 $-1 $328 reversed single #
point $-1 -1 $-1 -1.4996607218221374e-032 4 -2.0800000000000001 #
edge $-1 -1 $-1 $204 1.4996607218221374e-032 $373 4 $285 $366 forward @7 unknown #
point $-1 -1 $-1 -1.4996607218221374e-032 4 2.0800000000000001 #
model_id-kcp-attrib $-1 -1 $-1 $-1 $207 1 1021400381 1021400381 526712833 8 #
face $374 -1 $-1 $375 $376 $10 $-1 $377 reversed single #
loop $-1 -1 $-1 $378 $379 $207 #
cone-surface $-1 -1 $-1 0 0 -1.1950000000000001 0 0 -1 4 0 0 1 I I 0 1 4 forward I I I I #
loop $380 -1 $-1 $381 $382 $142 #
coedge $-1 -1 $-1 $296 $296 $379 $383 reversed $208 $-1 #
coedge $-1 -1 $-1 $297 $297 $210 $298 reversed $378 $-1 #
edge $-1 -1 $-1 $384 -3.1415926535897931 $384 3.1415926535897931 $297 $385 forward @7 unknown #
loop $386 -1 $-1 $-1 $211 $292 #
attrib_edge_convexity-kcp-attrib $-1 -1 $387 $-1 $212 1 #
vertex $388 -1 $-1 $212 $389 #
ellipse-curve $-1 -1 $-1 0 0 2.0350000000000001 0 0 1 -1.875 0 0 1 I I #
convexity-sys-attrib $-1 -1 $-1 $213 $149 #
point $-1 -1 $-1 3 0 2.0350000000000001 #
model_id-kcp-attrib $-1 -1 $-1 $-1 $217 1 1021400381 1021400381 526712833 23 #
loop $390 -1 $-1 $-1 $391 $100 #
coedge $-1 -1 $-1 $307 $307 $392 $393 forward $217 $-1 #
plane-surface $-1 -1 $-1 4 0 0 -1 0 0 0 0 1 forward_v I I I I #
coedge $-1 -1 $-1 $224 $222 $226 $313 reversed $157 $-1 #
edge $-1 -1 $-1 $237 -2.0800000000000001 $315 2.0800000000000001 $236 $394 forward @7 unknown #
vertex $-1 -1 $-1 $313 $395 #
straight-curve $-1 -1 $-1 -4 -4 0 0 0 -1 I I #
edge $-1 -1 $-1 $311 -4 $315 4 $309 $396 forward @7 unknown #
straight-curve $-1 -1 $-1 0 -4 -2.0800000000000001 -1 0 0 I I #
vertex $-1 -1 $-1 $229 $397 #
straight-curve $-1 -1 $-1 0 4 -2.0800000000000001 1 0 0 I I #
point $-1 -1 $-1 4 4 -2.0800000000000001 #
point $-1 -1 $-1 4 -4 -2.0800000000000001 #
straight-curve $-1 -1 $-1 -4 0 2.0800000000000001 0 -1 0 I I #
point $-1 -1 $-1 -4 4 2.0800000000000001 #
point $-1 -1 $-1 -4 -4 2.0800000000000001 #
straight-curve $-1 -1 $-1 4 -4 0 0 0 -1 I I #
straight-curve $-1 -1 $-1 4 4 0 0 0 -1 I I #
point $-1 -1 $-1 1.875 0 2.0800000000000005 #
point $-1 -1 $-1 0.19 0 0.46499999999999997 #
point $-1 -1 $-1 0.19 0 0.46499999999999997 #
face $-1 -1 $-1 $398 $399 $35 $-1 $400 reversed single #
plane-surface $-1 -1 $-1 0 4 0 0 -1 0 0 0 -1 forward_v I I I I #
coedge $-1 -1 $-1 $354 $359 $194 $271 reversed $256 $-1 #
coedge $-1 -1 $-1 $401 $258 $190 $265 forward $188 $-1 #
coedge $-1 -1 $-1 $258 $401 $402 $335 reversed $188 $-1 #
coedge $-1 -1 $-1 $403 $404 $258 $333 forward $405 $-1 #
edge $-1 -1 $-1 $347 -3.1415926535897931 $340 -1.5707963267948966 $332 $276 forward @7 unknown #
coedge $-1 -1 $-1 $260 $259 $406 $407 reversed $135 $-1 #
edge $-1 -1 $-1 $340 -4.1600000000000001 $408 0 $402 $409 forward @7 unknown #
coedge $-1 -1 $-1 $410 $411 $329 $271 forward $412 $-1 #
coedge $-1 -1 $-1 $338 $261 $411 $357 forward $339 $-1 #
coedge $-1 -1 $-1 $261 $337 $413 $414 forward $339 $-1 #
loop $-1 -1 $-1 $-1 $261 $415 #
vertex $-1 -1 $-1 $416 $417 #
coedge $-1 -1 $-1 $418 $370 $263 $342 forward $419 $-1 #
edge $-1 -1 $-1 $203 1.5707963267948966 $347 3.1415926535897931 $341 $276 forward @7 unknown #
coedge $-1 -1 $-1 $420 $264 $267 $349 reversed $346 $-1 #
coedge $-1 -1 $-1 $264 $420 $418 $421 reversed $346 $-1 #
coedge $-1 -1 $-1 $422 $423 $330 $265 reversed $399 $-1 #
loop $-1 -1 $-1 $-1 $264 $424 #
vertex $-1 -1 $-1 $421 $425 #
straight-curve $-1 -1 $-1 -4 0 2.0800000000000001 0 0 1 I I #
edge $-1 -1 $-1 $373 -4 $269 0 $343 $426 forward @7 unknown #
face $-1 -1 $-1 $361 $268 $35 $-1 $427 forward single #
edge $-1 -1 $-1 $269 0 $428 4 $423 $426 forward @7 unknown #
point $-1 -1 $-1 -4 0 2.0800000000000001 #
straight-curve $-1 -1 $-1 4 0 2.0800000000000001 0 0 1 I I #
coedge $-1 -1 $-1 $363 $329 $273 $355 reversed $256 $-1 #
edge $-1 -1 $-1 $367 -4 $275 0 $354 $429 forward @7 unknown #
face $-1 -1 $-1 $430 $274 $35 $-1 $431 reversed single #
edge $-1 -1 $-1 $275 0 $432 4 $411 $429 forward @7 unknown #
point $-1 -1 $-1 4 0 -2.0800000000000001 #
coedge $-1 -1 $-1 $329 $363 $277 $360 reversed $256 $-1 #
edge $-1 -1 $-1 $280 0 $365 4 $359 $433 forward @7 unknown #
face $-1 -1 $-1 $434 $279 $35 $-1 $427 forward single #
point $-1 -1 $-1 4 0 2.0800000000000001 #
coedge $-1 -1 $-1 $359 $354 $281 $364 reversed $256 $-1 #
edge $-1 -1 $-1 $365 -2.0800000000000001 $367 2.0800000000000001 $363 $435 forward @7 unknown #
vertex $-1 -1 $-1 $360 $436 #
straight-curve $-1 -1 $-1 0 4 2.0800000000000001 -1 0 0 I I #
vertex $-1 -1 $-1 $355 $437 #
straight-curve $-1 -1 $-1 0 4 -2.0800000000000001 1 0 0 I I #
coedge $-1 -1 $-1 $285 $284 $420 $438 reversed $286 $-1 #
coedge $-1 -1 $-1 $341 $418 $284 $371 forward $419 $-1 #
edge $-1 -1 $-1 $439 -4 $203 -1.4996607218221374e-032 $284 $368 forward @7 unknown #
face $-1 -1 $-1 $-1 $412 $35 $-1 $257 reversed single #
vertex $-1 -1 $-1 $289 $440 #
model_id-kcp-attrib $-1 -1 $-1 $-1 $292 1 1021400381 1021400381 526712833 9 #
face $441 -1 $-1 $442 $443 $10 $-1 $444 reversed single #
loop $445 -1 $-1 $299 $446 $292 #
cone-surface $-1 -1 $-1 0 0 2.0350000000000001 0 0 -1 -1.875 0 0 1 I I 0 1 1.875 forward I I I I #
loop $-1 -1 $-1 $-1 $297 $207 #
coedge $-1 -1 $-1 $379 $379 $296 $383 forward $293 $-1 #
model_id-kcp-attrib $-1 -1 $-1 $-1 $295 1 1021400381 1021400381 526712833 16 #
loop $447 -1 $-1 $448 $449 $142 #
coedge $-1 -1 $-1 $382 $382 $446 $450 forward $295 $-1 #
edge $-1 -1 $-1 $451 0 $451 6.2831853071795862 $379 $452 forward @7 unknown #
vertex $-1 -1 $-1 $298 $453 #
ellipse-curve $-1 -1 $-1 0 0 -1.1950000000000001 0 0 1 -4 0 0 1 I I #
model_id-kcp-attrib $-1 -1 $-1 $-1 $299 1 1021400381 1021400381 526712833 15 #
convexity-sys-attrib $-1 -1 $-1 $300 $212 #
model_id-kcp-attrib $-1 -1 $-1 $-1 $301 1 1021400381 1021400381 526712833 19 #
point $-1 -1 $-1 -1.875 0 2.0350000000000001 #
model_id-kcp-attrib $-1 -1 $-1 $-1 $306 1 1021400381 1021400381 526712833 29 #
coedge $-1 -1 $-1 $391 $391 $454 $455 forward $306 $-1 #
coedge $-1 -1 $-1 $392 $392 $307 $393 reversed $456 $-1 #
edge $457 -1 $-1 $458 -3.1415926535897931 $458 3.1415926535897931 $392 $459 forward @7 unknown #
straight-curve $-1 -1 $-1 -4 4 0 0 0 -1 I I #
point $-1 -1 $-1 -4 -4 -2.0800000000000001 #
straight-curve $-1 -1 $-1 -4 0 -2.0800000000000001 0 1 0 I I #
point $-1 -1 $-1 -4 4 -2.0800000000000001 #
face $-1 -1 $-1 $350 $460 $35 $-1 $427 forward single #
loop $-1 -1 $-1 $-1 $345 $327 #
plane-surface $-1 -1 $-1 -4 0 0 1 0 0 0 0 -1 forward_v I I I I #
coedge $-1 -1 $-1 $331 $330 $461 $462 reversed $188 $-1 #
coedge $-1 -1 $-1 $463 $464 $465 $335 forward $466 $-1 #
coedge $-1 -1 $-1 $404 $332 $464 $416 forward $405 $-1 #
coedge $-1 -1 $-1 $332 $403 $422 $467 forward $405 $-1 #
loop $-1 -1 $-1 $-1 $332 $468 #
coedge $-1 -1 $-1 $469 $470 $334 $407 forward $471 $-1 #
edge $-1 -1 $-1 $280 0 $408 1.5707963267948966 $406 $270 forward @7 unknown #
vertex $-1 -1 $-1 $472 $473 #
straight-curve $-1 -1 $-1 -1.4996607218221374e-032 -4 2.0800000000000001 0 0 1 I I #
coedge $-1 -1 $-1 $474 $336 $470 $475 reversed $412 $-1 #
coedge $-1 -1 $-1 $336 $474 $337 $357 reversed $412 $-1 #
loop $-1 -1 $-1 $-1 $336 $372 #
coedge $-1 -1 $-1 $476 $465 $338 $414 reversed $477 $-1 #
edge $-1 -1 $-1 $432 -4 $340 1.4996607218221374e-032 $413 $478 forward @7 unknown #
face $-1 -1 $-1 $356 $339 $35 $-1 $431 reversed single #
edge $-1 -1 $-1 $340 1.4996607218221374e-032 $479 4 $464 $478 forward @7 unknown #
point $-1 -1 $-1 -1.4996607218221374e-032 -4 -2.0800000000000001 #
coedge $-1 -1 $-1 $370 $341 $344 $421 forward $419 $-1 #
loop $-1 -1 $-1 $-1 $341 $430 #
coedge $-1 -1 $-1 $344 $343 $369 $438 forward $346 $-1 #
edge $-1 -1 $-1 $347 0 $439 4 $344 $480 forward @7 unknown #
coedge $-1 -1 $-1 $481 $345 $404 $467 reversed $399 $-1 #
coedge $-1 -1 $-1 $345 $481 $482 $351 reversed $399 $-1 #
face $-1 -1 $-1 $287 $346 $35 $-1 $400 reversed single #
point $-1 -1 $-1 -4 0 -2.0800000000000001 #
straight-curve $-1 -1 $-1 -4 0 2.0800000000000001 0 -1 0 I I #
plane-surface $-1 -1 $-1 0 0 2.0800000000000001 0 0 1 1 0 0 forward_v I I I I #
vertex $-1 -1 $-1 $351 $483 #
straight-curve $-1 -1 $-1 4 0 -2.0800000000000001 0 -1 0 I I #
face $-1 -1 $-1 $484 $419 $35 $-1 $431 reversed single #
plane-surface $-1 -1 $-1 0 0 -2.0800000000000001 0 0 1 1 0 0 forward_v I I I I #
vertex $-1 -1 $-1 $485 $486 #
straight-curve $-1 -1 $-1 4 0 2.0800000000000001 0 1 0 I I #
face $-1 -1 $-1 $487 $471 $35 $-1 $427 forward single #
straight-curve $-1 -1 $-1 4 4 0 0 0 -1 I I #
point $-1 -1 $-1 4 4 2.0800000000000001 #
point $-1 -1 $-1 4 4 -2.0800000000000001 #
edge $-1 -1 $-1 $373 -2.0800000000000001 $439 2.0800000000000001 $369 $488 forward @7 unknown #
vertex $-1 -1 $-1 $371 $489 #
point $-1 -1 $-1 -4 4 2.0800000000000001 #
model_id-kcp-attrib $-1 -1 $-1 $-1 $375 1 1021400381 1021400381 526712833 10 #
face $490 -1 $-1 $-1 $491 $10 $-1 $492 reversed single #
loop $493 -1 $-1 $456 $494 $375 #
cone-surface $-1 -1 $-1 0 -3.5 -2.125 0 0 1 0.19 0 0 1 I I 0 1 0.19 forward I I I I #
model_id-kcp-attrib $-1 -1 $-1 $-1 $376 1 1021400381 1021400381 526712833 14 #
coedge $-1 -1 $-1 $446 $446 $382 $450 reversed $376 $-1 #
model_id-kcp-attrib $-1 -1 $-1 $-1 $381 1 1021400381 1021400381 526712833 22 #
loop $495 -1 $-1 $-1 $496 $142 #
coedge $-1 -1 $-1 $449 $449 $494 $497 reversed $381 $-1 #
edge $498 -1 $-1 $499 -3.1415926535897931 $499 3.1415926535897931 $446 $500 forward @7 unknown #
vertex $-1 -1 $-1 $383 $501 #
ellipse-curve $-1 -1 $-1 0 0 -2.125 0 0 1 4 0 0 1 I I #
point $-1 -1 $-1 4 0 -1.1950000000000001 #
coedge $-1 -1 $-1 $454 $454 $391 $455 reversed $502 $-1 #
edge $503 -1 $-1 $504 -3.1415926535897931 $504 3.1415926535897931 $454 $505 forward @7 unknown #
loop $506 -1 $-1 $-1 $392 $375 #
attrib_edge_convexity-kcp-attrib $-1 -1 $507 $-1 $393 1 #
vertex $508 -1 $-1 $393 $509 #
ellipse-curve $-1 -1 $-1 0 -3.5 -1.1950000000000001 0 0 -1 -0.19 0 0 1 I I #
loop $-1 -1 $-1 $-1 $461 $398 #
coedge $-1 -1 $-1 $482 $510 $401 $462 forward $460 $-1 #
edge $-1 -1 $-1 $408 1.5707963267948966 $269 3.1415926535897931 $461 $270 forward @7 unknown #
coedge $-1 -1 $-1 $511 $402 $510 $512 reversed $466 $-1 #
coedge $-1 -1 $-1 $402 $511 $403 $416 reversed $466 $-1 #
coedge $-1 -1 $-1 $413 $513 $259 $335 reversed $477 $-1 #
loop $-1 -1 $-1 $-1 $402 $484 #
edge $-1 -1 $-1 $479 -4 $347 0 $422 $480 forward @7 unknown #
face $-1 -1 $-1 $415 $405 $35 $-1 $431 reversed single #
coedge $-1 -1 $-1 $470 $406 $513 $472 forward $471 $-1 #
coedge $-1 -1 $-1 $406 $469 $410 $475 forward $471 $-1 #
loop $-1 -1 $-1 $-1 $406 $434 #
edge $-1 -1 $-1 $408 -1.4996607218221374e-032 $514 4 $513 $515 forward @7 unknown #
point $-1 -1 $-1 -1.4996607218221374e-032 -4 2.0800000000000001 #
coedge $-1 -1 $-1 $411 $410 $476 $485 forward $412 $-1 #
edge $-1 -1 $-1 $514 -4 $280 0 $410 $433 forward @7 unknown #
coedge $-1 -1 $-1 $513 $413 $474 $485 reversed $477 $-1 #
loop $-1 -1 $-1 $-1 $465 $487 #
straight-curve $-1 -1 $-1 0 -4 -2.0800000000000001 -1 0 0 I I #
vertex $-1 -1 $-1 $467 $516 #
straight-curve $-1 -1 $-1 -4 0 -2.0800000000000001 0 1 0 I I #
coedge $-1 -1 $-1 $423 $422 $511 $517 reversed $399 $-1 #
coedge $-1 -1 $-1 $510 $461 $423 $351 forward $460 $-1 #
point $-1 -1 $-1 -4 -4 2.0800000000000001 #
face $-1 -1 $-1 $424 $466 $35 $-1 $518 reversed single #
edge $-1 -1 $-1 $514 -2.0800000000000001 $432 2.0800000000000001 $474 $519 forward @7 unknown #
point $-1 -1 $-1 4 -4 -2.0800000000000001 #
face $-1 -1 $-1 $468 $477 $35 $-1 $518 reversed single #
straight-curve $-1 -1 $-1 -4 4 0 0 0 -1 I I #
point $-1 -1 $-1 -4 4 -2.0800000000000001 #
model_id-kcp-attrib $-1 -1 $-1 $-1 $442 1 1021400381 1021400381 526712833 11 #
loop $520 -1 $-1 $502 $521 $442 #
cone-surface $-1 -1 $-1 3.5 0 -2.125 0 0 1 0.19 0 0 1 I I 0 1 0.19 forward I I I I #
model_id-kcp-attrib $-1 -1 $-1 $-1 $443 1 1021400381 1021400381 526712833 20 #
coedge $-1 -1 $-1 $494 $494 $449 $497 forward $443 $-1 #
model_id-kcp-attrib $-1 -1 $-1 $-1 $448 1 1021400381 1021400381 526712833 28 #
coedge $-1 -1 $-1 $496 $496 $521 $522 reversed $448 $-1 #
edge $523 -1 $-1 $524 0 $524 6.2831853071795862 $494 $525 forward @7 unknown #
attrib_edge_convexity-kcp-attrib $-1 -1 $526 $-1 $450 1 #
vertex $527 -1 $-1 $450 $528 #
ellipse-curve $-1 -1 $-1 0 0 -2.125 0 0 1 1.875 0 0 1 I I #
point $-1 -1 $-1 4 0 -2.125 #
loop $529 -1 $-1 $-1 $454 $442 #
attrib_edge_convexity-kcp-attrib $-1 -1 $530 $-1 $455 1 #
vertex $531 -1 $-1 $455 $532 #
ellipse-curve $-1 -1 $-1 3.5 0 -1.1950000000000001 0 0 -1 -0.19 0 0 1 I I #
model_id-kcp-attrib $-1 -1 $-1 $-1 $456 1 1021400381 1021400381 526712833 21 #
convexity-sys-attrib $-1 -1 $-1 $457 $393 #
model_id-kcp-attrib $-1 -1 $-1 $-1 $458 1 1021400381 1021400381 526712833 25 #
point $-1 -1 $-1 0.19 -3.5 -1.1950000000000001 #
coedge $-1 -1 $-1 $461 $482 $463 $512 forward $460 $-1 #
coedge $-1 -1 $-1 $464 $463 $481 $517 forward $466 $-1 #
edge $-1 -1 $-1 $428 -4 $408 -1.4996607218221374e-032 $463 $515 forward @7 unknown #
coedge $-1 -1 $-1 $465 $476 $469 $472 reversed $477 $-1 #
vertex $-1 -1 $-1 $475 $533 #
straight-curve $-1 -1 $-1 0 -4 2.0800000000000001 1 0 0 I I #
point $-1 -1 $-1 -4 -4 -2.0800000000000001 #
edge $-1 -1 $-1 $428 -2.0800000000000001 $479 2.0800000000000001 $481 $534 forward @7 unknown #
plane-surface $-1 -1 $-1 0 -4 0 0 1 0 0 0 1 forward_v I I I I #
straight-curve $-1 -1 $-1 4 -4 0 0 0 -1 I I #
model_id-kcp-attrib $-1 -1 $-1 $-1 $491 1 1021400381 1021400381 526712833 26 #
coedge $-1 -1 $-1 $521 $521 $496 $522 forward $491 $-1 #
edge $535 -1 $-1 $536 0 $536 6.2831853071795862 $521 $537 forward @7 unknown #
attrib_edge_convexity-kcp-attrib $-1 -1 $538 $-1 $497 1 #
vertex $539 -1 $-1 $497 $540 #
ellipse-curve $-1 -1 $-1 0 -3.5 -2.125 0 0 -1 0.19 0 0 1 I I #
convexity-sys-attrib $-1 -1 $-1 $498 $450 #
model_id-kcp-attrib $-1 -1 $-1 $-1 $499 1 1021400381 1021400381 526712833 18 #
point $-1 -1 $-1 -1.875 0 -2.125 #
model_id-kcp-attrib $-1 -1 $-1 $-1 $502 1 1021400381 1021400381 526712833 27 #
convexity-sys-attrib $-1 -1 $-1 $503 $455 #
model_id-kcp-attrib $-1 -1 $-1 $-1 $504 1 1021400381 1021400381 526712833 31 #
point $-1 -1 $-1 3.6899999999999999 0 -1.1950000000000001 #
point $-1 -1 $-1 4 -4 2.0800000000000001 #
straight-curve $-1 -1 $-1 -4 -4 0 0 0 -1 I I #
attrib_edge_convexity-kcp-attrib $-1 -1 $541 $-1 $522 1 #
vertex $542 -1 $-1 $522 $543 #
ellipse-curve $-1 -1 $-1 3.5 0 -2.125 0 0 -1 0.19 0 0 1 I I #
convexity-sys-attrib $-1 -1 $-1 $523 $497 #
model_id-kcp-attrib $-1 -1 $-1 $-1 $524 1 1021400381 1021400381 526712833 24 #
point $-1 -1 $-1 0.19 -3.5 -2.125 #
convexity-sys-attrib $-1 -1 $-1 $535 $522 #
model_id-kcp-attrib $-1 -1 $-1 $-1 $536 1 1021400381 1021400381 526712833 30 #
point $-1 -1 $-1 3.6899999999999999 0 -2.125 #
End-of-ACIS-data 