600 0 2 0           
24 FBMach with ACIS - 6.0.3 13 ACIS 6.0.3 NT 24 Tue May 22 15:33:57 2001 
1 9.9999999999999995e-007 1e-010 
body $2 $3 $-1 $4 #
bdycol-kcp $-1 1 5 $5 $6 $7 $8 $9 #
model_id-kcp-attrib $-1 $-1 $-1 $0 1 990560036 60 -2143551487 1 #
lump $-1 $-1 $10 $0 #
transform $-1 1 0 0 0 1 0 0 0 1 0 0 0 1 no_rotate no_reflect no_shear #
body $11 $12 $-1 $13 #
body $14 $15 $-1 $16 #
body $17 $18 $-1 $19 #
body $20 $21 $-1 $22 #
body $23 $24 $-1 $25 #
shell $-1 $-1 $-1 $26 $-1 $3 #
model_id-kcp-attrib $-1 $-1 $-1 $5 1 990560036 60 -2143551486 1 #
lump $-1 $-1 $27 $5 #
transform $-1 1 0 0 0 1 0 0 0 1 0 0 -0.044999999999999929 1 no_rotate no_reflect no_shear #
rgb_color-st-attrib $-1 $28 $-1 $6 0.5 1 1 #
lump $-1 $-1 $29 $6 #
transform $-1 -1 0 -1.2246063538223773e-016 0 1 0 1.2246063538223773e-016 0 -1 2.5471812159505448e-016 0 -0.044999999999999929 1 rotate no_reflect no_shear #
rgb_color-st-attrib $-1 $30 $-1 $7 0.5 1 1 #
lump $-1 $-1 $31 $7 #
transform $-1 1 0 0 0 1 0 0 0 1 0 -3.5 -1.6600000000000001 1 no_rotate no_reflect no_shear #
rgb_color-st-attrib $-1 $32 $-1 $8 0.5 1 1 #
lump $-1 $-1 $33 $8 #
transform $-1 1 0 0 0 1 0 0 0 1 3.5 0 -1.6600000000000001 1 no_rotate no_reflect no_shear #
rgb_color-st-attrib $-1 $34 $-1 $9 0.5 1 1 #
lump $-1 $-1 $35 $9 #
transform $-1 1 0 0 0 1 0 0 0 1 0 0 -0.044999999999999929 1 no_rotate no_reflect no_shear #
face $36 $37 $38 $10 $-1 $39 forward single #
shell $-1 $-1 $-1 $40 $-1 $12 #
model_id-kcp-attrib $-1 $-1 $14 $6 1 990560036 100 -2140930045 1 #
shell $-1 $-1 $-1 $41 $-1 $15 #
model_id-kcp-attrib $-1 $-1 $17 $7 1 990560036 100 -2140930044 1 #
shell $-1 $-1 $-1 $42 $-1 $18 #
model_id-kcp-attrib $-1 $-1 $20 $8 1 990560036 100 -2140930043 1 #
shell $-1 $-1 $-1 $43 $-1 $21 #
model_id-kcp-attrib $-1 $-1 $23 $9 1 990560036 160 -2136997882 1 #
shell $-1 $-1 $-1 $44 $-1 $24 #
model_id-kcp-attrib $-1 $-1 $-1 $26 1 990560036 60 -2143551487 2 #
face $45 $46 $47 $10 $-1 $48 reversed single #
loop $-1 $49 $50 $26 #
cone-surface $-1 0 0 -1.1950000000000001 0 0 1 2 0 0 1 I I 0 1 2 forward I I I I #
face $51 $52 $53 $27 $-1 $54 forward single #
face $-1 $55 $56 $29 $-1 $57 forward single #
face $-1 $58 $59 $31 $-1 $60 forward single #
face $-1 $61 $62 $33 $-1 $63 forward single #
face $-1 $64 $65 $35 $-1 $66 reversed single #
model_id-kcp-attrib $-1 $-1 $-1 $37 1 990560036 60 -2143551487 3 #
face $67 $68 $69 $10 $-1 $70 forward single #
loop $-1 $71 $72 $37 #
plane-surface $-1 0 0 1.1950000000000001 0 0 1 1 0 0 forward_v I I I I #
loop $-1 $-1 $73 $26 #
coedge $-1 $50 $50 $74 $75 forward $38 $-1 #
model_id-kcp-attrib $-1 $-1 $-1 $40 1 990560036 60 -2143551486 2 #
face $76 $77 $78 $27 $-1 $79 reversed single #
loop $-1 $-1 $80 $40 #
plane-surface $-1 0 0 2.0800000000000001 0 0 1 1 0 0 forward_v I I I I #
face $-1 $81 $82 $29 $-1 $83 forward single #
loop $-1 $84 $85 $41 #
cone-surface $-1 0 0 0 0 0 1 1.875 0 0 1 I I 0 1 1.875 forward I I I I #
face $-1 $86 $87 $31 $-1 $88 forward single #
loop $-1 $89 $90 $42 #
cone-surface $-1 0 0 0 0 0 1 0.19 0 0 1 I I 0 1 0.19 forward I I I I #
face $-1 $91 $92 $33 $-1 $93 forward single #
loop $-1 $94 $95 $43 #
cone-surface $-1 0 0 0 0 0 1 0.19 0 0 1 I I 0 1 0.19 forward I I I I #
face $-1 $96 $97 $35 $-1 $66 reversed single #
loop $-1 $-1 $98 $44 #
cone-surface $-1 -1.4996607218221374e-032 0 2.0800000000000001 0 0 1 4 0 0 1 I I 0 1 4 forward I I I I #
model_id-kcp-attrib $-1 $99 $-1 $46 1 990560036 60 -2143551487 12 #
face $100 $101 $102 $10 $-1 $103 forward single #
loop $-1 $104 $105 $46 #
plane-surface $-1 0 0 2.0350000000000001 0 0 1 1 0 0 forward_v I I I I #
loop $-1 $-1 $74 $37 #
coedge $-1 $72 $72 $106 $107 forward $47 $-1 #
coedge $-1 $73 $73 $108 $109 reversed $49 $-1 #
coedge $-1 $74 $74 $50 $75 reversed $71 $-1 #
edge $-1 $110 -3.1415926535897931 $110 3.1415926535897931 $74 $111 forward 7 unknown #
model_id-kcp-attrib $-1 $-1 $-1 $52 1 990560036 60 -2143551486 3 #
face $-1 $112 $113 $27 $-1 $114 reversed single #
loop $-1 $-1 $115 $52 #
plane-surface $-1 0 0 -2.0800000000000001 0 0 1 1 0 0 forward_v I I I I #
coedge $-1 $116 $117 $118 $119 forward $53 $-1 #
face $-1 $-1 $120 $29 $-1 $121 forward single #
loop $-1 $-1 $122 $55 #
plane-surface $-1 0 0 -2.0800000000000005 0 0 -1 -1 0 0 forward_v I I I I #
loop $-1 $-1 $123 $41 #
coedge $-1 $85 $85 $122 $124 reversed $56 $-1 #
face $-1 $-1 $125 $31 $-1 $126 forward single #
loop $-1 $-1 $127 $58 #
plane-surface $-1 0 0 -0.46499999999999997 0 0 -1 -1 0 0 forward_v I I I I #
loop $-1 $-1 $128 $42 #
coedge $-1 $90 $90 $127 $129 reversed $59 $-1 #
face $-1 $-1 $130 $33 $-1 $131 forward single #
loop $-1 $-1 $132 $61 #
plane-surface $-1 0 0 -0.46499999999999997 0 0 -1 -1 0 0 forward_v I I I I #
loop $-1 $-1 $133 $43 #
coedge $-1 $95 $95 $132 $134 reversed $62 $-1 #
face $-1 $135 $136 $35 $-1 $66 reversed single #
loop $-1 $-1 $137 $64 #
coedge $-1 $138 $139 $140 $141 reversed $65 $-1 #
model_id-kcp-attrib $-1 $-1 $67 $46 1 990560036 60 -2143551487 4 #
model_id-kcp-attrib $-1 $-1 $-1 $68 1 990560036 60 -2143551487 5 #
face $142 $143 $144 $10 $-1 $145 reversed single #
loop $-1 $146 $147 $68 #
cone-surface $-1 0 0 1.1950000000000001 0 0 1 3 0 0 1 I I 0 1 3 forward I I I I #
loop $148 $-1 $149 $46 #
coedge $-1 $105 $105 $147 $150 reversed $69 $-1 #
coedge $-1 $106 $106 $72 $107 reversed $146 $-1 #
edge $-1 $151 -3.1415926535897931 $151 3.1415926535897931 $106 $152 forward 7 unknown #
coedge $-1 $108 $108 $73 $109 forward $153 $-1 #
edge $-1 $154 -3.1415926535897931 $154 3.1415926535897931 $108 $155 forward 7 unknown #
vertex $-1 $75 $156 #
ellipse-curve $-1 0 0 1.1950000000000001 0 0 -1 -2 0 0 1 I I #
face $-1 $157 $158 $27 $-1 $159 reversed single #
loop $-1 $-1 $160 $77 #
plane-surface $-1 0 -4 0 0 1 0 0 0 1 forward_v I I I I #
coedge $-1 $161 $162 $163 $164 forward $78 $-1 #
coedge $-1 $165 $80 $166 $167 forward $53 $-1 #
coedge $-1 $80 $165 $168 $169 forward $53 $-1 #
coedge $-1 $170 $171 $80 $119 reversed $172 $-1 #
edge $-1 $173 -4 $174 4 $118 $175 forward 7 unknown #
loop $-1 $-1 $176 $81 #
plane-surface $-1 0 0 2.0800000000000005 0 0 1 1 0 0 forward_v I I I I #
coedge $-1 $122 $122 $85 $124 forward $82 $-1 #
coedge $-1 $123 $123 $176 $177 reversed $84 $-1 #
edge $-1 $178 0 $178 6.2831853071795862 $122 $179 forward 7 unknown #
loop $-1 $-1 $180 $86 #
plane-surface $-1 0 0 0.46499999999999997 0 0 1 1 0 0 forward_v I I I I #
coedge $-1 $127 $127 $90 $129 forward $87 $-1 #
coedge $-1 $128 $128 $180 $181 reversed $89 $-1 #
edge $-1 $182 0 $182 6.2831853071795862 $127 $183 forward 7 unknown #
loop $-1 $-1 $184 $91 #
plane-surface $-1 0 0 0.46499999999999997 0 0 1 1 0 0 forward_v I I I I #
coedge $-1 $132 $132 $95 $134 forward $92 $-1 #
coedge $-1 $133 $133 $184 $185 reversed $94 $-1 #
edge $-1 $186 0 $186 6.2831853071795862 $132 $187 forward 7 unknown #
face $-1 $188 $189 $35 $-1 $66 reversed single #
loop $-1 $-1 $190 $96 #
coedge $-1 $191 $192 $193 $194 reversed $97 $-1 #
coedge $-1 $195 $98 $196 $197 reversed $65 $-1 #
coedge $-1 $98 $195 $198 $199 reversed $65 $-1 #
coedge $-1 $200 $201 $202 $141 forward $203 $-1 #
edge $-1 $204 -4.1600000000000001 $205 0 $140 $206 forward 7 unknown #
model_id-kcp-attrib $-1 $-1 $-1 $101 1 990560036 60 -2143551487 6 #
face $207 $208 $209 $10 $-1 $210 forward single #
loop $-1 $153 $211 $101 #
plane-surface $-1 0 0 -1.1950000000000001 0 0 -1 -1 0 0 forward_v I I I I #
loop $-1 $-1 $106 $68 #
coedge $-1 $147 $147 $105 $150 forward $102 $-1 #
model_id-kcp-attrib $-1 $-1 $-1 $104 1 990560036 60 -2143551487 17 #
coedge $-1 $149 $149 $212 $213 reversed $104 $-1 #
edge $214 $215 0 $215 6.2831853071795862 $147 $216 forward 7 unknown #
vertex $-1 $107 $217 #
ellipse-curve $-1 0 0 1.1950000000000001 0 0 -1 -3 0 0 1 I I #
loop $-1 $218 $108 $101 #
vertex $-1 $109 $219 #
ellipse-curve $-1 0 0 -1.1950000000000001 0 0 -1 -2 0 0 1 I I #
point $-1 2 0 1.1950000000000001 #
face $-1 $220 $221 $27 $-1 $222 reversed single #
loop $-1 $-1 $223 $112 #
plane-surface $-1 -4 0 0 1 0 0 0 0 -1 forward_v I I I I #
coedge $-1 $224 $168 $225 $226 forward $113 $-1 #
coedge $-1 $227 $115 $224 $228 forward $78 $-1 #
coedge $-1 $115 $227 $229 $230 forward $78 $-1 #
coedge $-1 $171 $170 $115 $164 reversed $172 $-1 #
edge $-1 $231 -4 $232 4 $163 $233 forward 7 unknown #
coedge $-1 $117 $116 $234 $235 forward $53 $-1 #
coedge $-1 $236 $237 $116 $167 reversed $221 $-1 #
edge $-1 $174 -4 $238 4 $166 $239 forward 7 unknown #
coedge $-1 $160 $240 $117 $169 reversed $113 $-1 #
edge $-1 $241 -4 $173 4 $168 $242 forward 7 unknown #
coedge $-1 $163 $118 $240 $243 forward $172 $-1 #
coedge $-1 $118 $163 $236 $244 reversed $172 $-1 #
loop $-1 $-1 $170 $220 #
vertex $-1 $119 $245 #
vertex $-1 $119 $246 #
straight-curve $-1 4 0 2.0800000000000001 0 1 0 I I #
coedge $-1 $176 $176 $123 $177 forward $120 $-1 #
edge $-1 $247 0 $247 6.2831853071795862 $176 $248 forward 7 unknown #
vertex $-1 $124 $249 #
ellipse-curve $-1 0 0 -2.0800000000000005 0 0 -1 1.875 0 0 1 I I #
coedge $-1 $180 $180 $128 $181 forward $125 $-1 #
edge $-1 $250 0 $250 6.2831853071795862 $180 $251 forward 7 unknown #
vertex $-1 $129 $252 #
ellipse-curve $-1 0 0 -0.46499999999999997 0 0 -1 0.19 0 0 1 I I #
coedge $-1 $184 $184 $133 $185 forward $130 $-1 #
edge $-1 $253 0 $253 6.2831853071795862 $184 $254 forward 7 unknown #
vertex $-1 $134 $255 #
ellipse-curve $-1 0 0 -0.46499999999999997 0 0 -1 0.19 0 0 1 I I #
face $-1 $256 $257 $35 $-1 $258 reversed single #
loop $-1 $-1 $259 $135 #
coedge $-1 $260 $261 $262 $263 reversed $136 $-1 #
coedge $-1 $264 $137 $265 $266 reversed $97 $-1 #
coedge $-1 $137 $264 $98 $141 forward $97 $-1 #
coedge $-1 $267 $268 $137 $194 forward $269 $-1 #
edge $-1 $270 -3.1415926535897931 $205 -1.5707963267948966 $193 $271 forward 7 unknown #
coedge $-1 $139 $138 $261 $272 forward $65 $-1 #
coedge $-1 $273 $274 $138 $197 forward $275 $-1 #
edge $-1 $276 0 $204 1.5707963267948966 $196 $277 forward 7 unknown #
coedge $-1 $278 $279 $139 $199 forward $280 $-1 #
edge $-1 $205 -1.5707963267948966 $281 0 $198 $271 forward 7 unknown #
coedge $-1 $282 $140 $279 $283 reversed $203 $-1 #
coedge $-1 $140 $282 $273 $284 reversed $203 $-1 #
coedge $-1 $285 $286 $192 $141 reversed $287 $-1 #
loop $-1 $-1 $140 $288 #
vertex $-1 $284 $289 #
vertex $-1 $290 $291 #
straight-curve $-1 -1.4996607218221374e-032 4 2.0800000000000001 0 0 1 I I #
model_id-kcp-attrib $-1 $292 $-1 $143 1 990560036 60 -2143551487 13 #
face $293 $294 $295 $10 $-1 $296 forward single #
loop $-1 $297 $298 $143 #
plane-surface $-1 0 0 -2.125 0 0 -1 -1 0 0 forward_v I I I I #
coedge $-1 $211 $211 $299 $300 forward $144 $-1 #
coedge $-1 $212 $212 $149 $213 forward $301 $-1 #
edge $302 $303 0 $303 6.2831853071795862 $212 $304 forward 7 unknown #
attrib_edge_convexity-kcp-attrib $-1 $305 $-1 $150 1 #
vertex $-1 $150 $306 #
ellipse-curve $-1 0 0 2.0350000000000001 0 0 -1 3 0 0 1 I I #
point $-1 3 0 1.1950000000000001 #
loop $307 $308 $309 $101 #
point $-1 2 0 -1.1950000000000001 #
face $-1 $-1 $172 $27 $-1 $310 reversed single #
loop $-1 $-1 $236 $157 #
plane-surface $-1 0 4 0 0 -1 0 0 0 -1 forward_v I I I I #
coedge $-1 $311 $234 $237 $312 forward $158 $-1 #
coedge $-1 $240 $160 $161 $228 reversed $113 $-1 #
coedge $-1 $234 $311 $160 $226 reversed $158 $-1 #
edge $-1 $241 -2.0800000000000001 $313 2.0800000000000001 $225 $314 forward 7 unknown #
coedge $-1 $162 $161 $311 $315 forward $78 $-1 #
edge $-1 $232 -4 $313 4 $224 $316 forward 7 unknown #
coedge $-1 $237 $236 $162 $230 reversed $221 $-1 #
edge $-1 $317 -4 $231 4 $229 $318 forward 7 unknown #
vertex $-1 $164 $319 #
vertex $-1 $243 $320 #
straight-curve $-1 4 0 -2.0800000000000001 0 -1 0 I I #
coedge $-1 $223 $225 $165 $235 reversed $158 $-1 #
edge $-1 $238 -4 $241 4 $234 $321 forward 7 unknown #
coedge $-1 $229 $166 $171 $244 forward $221 $-1 #
coedge $-1 $166 $229 $223 $312 reversed $221 $-1 #
vertex $-1 $167 $322 #
straight-curve $-1 0 4 2.0800000000000001 -1 0 0 I I #
coedge $-1 $168 $224 $170 $243 reversed $113 $-1 #
vertex $-1 $235 $323 #
straight-curve $-1 0 -4 2.0800000000000001 1 0 0 I I #
edge $-1 $173 -2.0800000000000001 $232 2.0800000000000001 $170 $324 forward 7 unknown #
edge $-1 $174 -2.0800000000000001 $231 2.0800000000000001 $171 $325 forward 7 unknown #
point $-1 4 -4 2.0800000000000001 #
point $-1 4 4 2.0800000000000001 #
vertex $-1 $177 $326 #
ellipse-curve $-1 0 0 2.0800000000000005 0 0 1 1.875 0 0 1 I I #
point $-1 1.875 0 -2.0800000000000005 #
vertex $-1 $181 $327 #
ellipse-curve $-1 0 0 0.46499999999999997 0 0 1 0.19 0 0 1 I I #
point $-1 0.19 0 -0.46499999999999997 #
vertex $-1 $185 $328 #
ellipse-curve $-1 0 0 0.46499999999999997 0 0 1 0.19 0 0 1 I I #
point $-1 0.19 0 -0.46499999999999997 #
face $-1 $329 $287 $35 $-1 $330 reversed single #
loop $-1 $-1 $331 $188 #
plane-surface $-1 4 0 0 -1 0 0 0 0 1 forward_v I I I I #
coedge $-1 $332 $333 $334 $335 reversed $189 $-1 #
coedge $-1 $336 $190 $333 $337 forward $136 $-1 #
coedge $-1 $190 $336 $338 $272 reversed $136 $-1 #
coedge $-1 $339 $340 $190 $263 forward $341 $-1 #
edge $-1 $342 -1.5707963267948966 $276 0 $262 $277 forward 7 unknown #
coedge $-1 $192 $191 $343 $344 reversed $97 $-1 #
coedge $-1 $345 $346 $347 $266 forward $348 $-1 #
edge $-1 $349 -4.1600000000000001 $270 0 $265 $350 forward 7 unknown #
coedge $-1 $268 $193 $286 $290 forward $269 $-1 #
coedge $-1 $193 $267 $345 $351 forward $269 $-1 #
loop $-1 $-1 $193 $352 #
vertex $-1 $353 $354 #
ellipse-curve $-1 -1.4996607218221374e-032 0 2.0800000000000001 0 0 -1 4 0 0 1 I I #
edge $-1 $276 -4.1600000000000001 $281 0 $338 $355 forward 7 unknown #
coedge $-1 $274 $196 $201 $284 forward $275 $-1 #
coedge $-1 $196 $273 $356 $357 forward $275 $-1 #
loop $-1 $-1 $196 $358 #
vertex $-1 $359 $360 #
ellipse-curve $-1 -1.4996607218221374e-032 0 -2.0800000000000001 0 0 1 4 0 0 1 I I #
coedge $-1 $279 $198 $361 $362 forward $280 $-1 #
coedge $-1 $198 $278 $200 $283 forward $280 $-1 #
loop $-1 $-1 $198 $363 #
vertex $-1 $362 $364 #
coedge $-1 $201 $200 $365 $366 forward $203 $-1 #
edge $-1 $367 -4 $205 1.4996607218221374e-032 $200 $368 forward 7 unknown #
edge $-1 $204 -1.4996607218221374e-032 $369 4 $201 $370 forward 7 unknown #
coedge $-1 $371 $202 $372 $373 reversed $287 $-1 #
coedge $-1 $202 $371 $267 $290 reversed $287 $-1 #
loop $-1 $-1 $202 $256 #
face $-1 $374 $203 $35 $-1 $330 reversed single #
point $-1 -1.4996607218221374e-032 4 -2.0800000000000001 #
edge $-1 $205 1.4996607218221374e-032 $375 4 $286 $368 forward 7 unknown #
point $-1 -1.4996607218221374e-032 4 2.0800000000000001 #
model_id-kcp-attrib $-1 $-1 $207 $143 1 990560036 60 -2143551487 7 #
model_id-kcp-attrib $-1 $-1 $-1 $208 1 990560036 60 -2143551487 8 #
face $376 $377 $378 $10 $-1 $379 reversed single #
loop $-1 $380 $381 $208 #
cone-surface $-1 0 0 -1.1950000000000001 0 0 -1 4 0 0 1 I I 0 1 4 forward I I I I #
loop $382 $383 $384 $143 #
coedge $-1 $298 $298 $381 $385 reversed $209 $-1 #
coedge $-1 $299 $299 $211 $300 reversed $380 $-1 #
edge $-1 $386 -3.1415926535897931 $386 3.1415926535897931 $299 $387 forward 7 unknown #
loop $388 $-1 $212 $294 #
attrib_edge_convexity-kcp-attrib $-1 $389 $-1 $213 1 #
vertex $390 $213 $391 #
ellipse-curve $-1 0 0 2.0350000000000001 0 0 1 -1.875 0 0 1 I I #
convexity-sys-attrib $-1 $-1 $214 $150 #
point $-1 3 0 2.0350000000000001 #
model_id-kcp-attrib $-1 $-1 $-1 $218 1 990560036 60 -2143551487 23 #
loop $392 $-1 $393 $101 #
coedge $-1 $309 $309 $394 $395 forward $218 $-1 #
plane-surface $-1 4 0 0 -1 0 0 0 0 1 forward_v I I I I #
coedge $-1 $225 $223 $227 $315 reversed $158 $-1 #
edge $-1 $238 -2.0800000000000001 $317 2.0800000000000001 $237 $396 forward 7 unknown #
vertex $-1 $315 $397 #
straight-curve $-1 -4 -4 0 0 0 -1 I I #
edge $-1 $313 -4 $317 4 $311 $398 forward 7 unknown #
straight-curve $-1 0 -4 -2.0800000000000001 -1 0 0 I I #
vertex $-1 $230 $399 #
straight-curve $-1 0 4 -2.0800000000000001 1 0 0 I I #
point $-1 4 4 -2.0800000000000001 #
point $-1 4 -4 -2.0800000000000001 #
straight-curve $-1 -4 0 2.0800000000000001 0 -1 0 I I #
point $-1 -4 4 2.0800000000000001 #
point $-1 -4 -4 2.0800000000000001 #
straight-curve $-1 4 -4 0 0 0 -1 I I #
straight-curve $-1 4 4 0 0 0 -1 I I #
point $-1 1.875 0 2.0800000000000005 #
point $-1 0.19 0 0.46499999999999997 #
point $-1 0.19 0 0.46499999999999997 #
face $-1 $400 $401 $35 $-1 $402 reversed single #
plane-surface $-1 0 4 0 0 -1 0 0 0 -1 forward_v I I I I #
coedge $-1 $356 $361 $195 $272 reversed $257 $-1 #
coedge $-1 $403 $259 $191 $266 forward $189 $-1 #
coedge $-1 $259 $403 $404 $337 reversed $189 $-1 #
coedge $-1 $405 $406 $259 $335 forward $407 $-1 #
edge $-1 $349 -3.1415926535897931 $342 -1.5707963267948966 $334 $277 forward 7 unknown #
coedge $-1 $261 $260 $408 $409 reversed $136 $-1 #
edge $-1 $342 -4.1600000000000001 $410 0 $404 $411 forward 7 unknown #
coedge $-1 $412 $413 $331 $272 forward $414 $-1 #
coedge $-1 $340 $262 $413 $359 forward $341 $-1 #
coedge $-1 $262 $339 $415 $416 forward $341 $-1 #
loop $-1 $-1 $262 $417 #
vertex $-1 $418 $419 #
coedge $-1 $420 $372 $264 $344 forward $421 $-1 #
edge $-1 $204 1.5707963267948966 $349 3.1415926535897931 $343 $277 forward 7 unknown #
coedge $-1 $422 $265 $268 $351 reversed $348 $-1 #
coedge $-1 $265 $422 $420 $423 reversed $348 $-1 #
coedge $-1 $424 $425 $332 $266 reversed $401 $-1 #
loop $-1 $-1 $265 $426 #
vertex $-1 $423 $427 #
straight-curve $-1 -4 0 2.0800000000000001 0 0 1 I I #
edge $-1 $375 -4 $270 0 $345 $428 forward 7 unknown #
face $-1 $363 $269 $35 $-1 $429 forward single #
edge $-1 $270 0 $430 4 $425 $428 forward 7 unknown #
point $-1 -4 0 2.0800000000000001 #
straight-curve $-1 4 0 2.0800000000000001 0 0 1 I I #
coedge $-1 $365 $331 $274 $357 reversed $257 $-1 #
edge $-1 $369 -4 $276 0 $356 $431 forward 7 unknown #
face $-1 $432 $275 $35 $-1 $433 reversed single #
edge $-1 $276 0 $434 4 $413 $431 forward 7 unknown #
point $-1 4 0 -2.0800000000000001 #
coedge $-1 $331 $365 $278 $362 reversed $257 $-1 #
edge $-1 $281 0 $367 4 $361 $435 forward 7 unknown #
face $-1 $436 $280 $35 $-1 $429 forward single #
point $-1 4 0 2.0800000000000001 #
coedge $-1 $361 $356 $282 $366 reversed $257 $-1 #
edge $-1 $367 -2.0800000000000001 $369 2.0800000000000001 $365 $437 forward 7 unknown #
vertex $-1 $362 $438 #
straight-curve $-1 0 4 2.0800000000000001 -1 0 0 I I #
vertex $-1 $357 $439 #
straight-curve $-1 0 4 -2.0800000000000001 1 0 0 I I #
coedge $-1 $286 $285 $422 $440 reversed $287 $-1 #
coedge $-1 $343 $420 $285 $373 forward $421 $-1 #
edge $-1 $441 -4 $204 -1.4996607218221374e-032 $285 $370 forward 7 unknown #
face $-1 $-1 $414 $35 $-1 $258 reversed single #
vertex $-1 $290 $442 #
model_id-kcp-attrib $-1 $-1 $-1 $294 1 990560036 60 -2143551487 9 #
face $443 $444 $445 $10 $-1 $446 reversed single #
loop $447 $301 $448 $294 #
cone-surface $-1 0 0 2.0350000000000001 0 0 -1 -1.875 0 0 1 I I 0 1 1.875 forward I I I I #
loop $-1 $-1 $299 $208 #
coedge $-1 $381 $381 $298 $385 forward $295 $-1 #
model_id-kcp-attrib $-1 $-1 $-1 $297 1 990560036 60 -2143551487 16 #
loop $449 $450 $451 $143 #
coedge $-1 $384 $384 $448 $452 forward $297 $-1 #
edge $-1 $453 0 $453 6.2831853071795862 $381 $454 forward 7 unknown #
vertex $-1 $300 $455 #
ellipse-curve $-1 0 0 -1.1950000000000001 0 0 1 -4 0 0 1 I I #
model_id-kcp-attrib $-1 $-1 $-1 $301 1 990560036 60 -2143551487 15 #
convexity-sys-attrib $-1 $-1 $302 $213 #
model_id-kcp-attrib $-1 $-1 $-1 $303 1 990560036 60 -2143551487 19 #
point $-1 -1.875 0 2.0350000000000001 #
model_id-kcp-attrib $-1 $-1 $-1 $308 1 990560036 60 -2143551487 29 #
coedge $-1 $393 $393 $456 $457 forward $308 $-1 #
coedge $-1 $394 $394 $309 $395 reversed $458 $-1 #
edge $459 $460 -3.1415926535897931 $460 3.1415926535897931 $394 $461 forward 7 unknown #
straight-curve $-1 -4 4 0 0 0 -1 I I #
point $-1 -4 -4 -2.0800000000000001 #
straight-curve $-1 -4 0 -2.0800000000000001 0 1 0 I I #
point $-1 -4 4 -2.0800000000000001 #
face $-1 $352 $462 $35 $-1 $429 forward single #
loop $-1 $-1 $347 $329 #
plane-surface $-1 -4 0 0 1 0 0 0 0 -1 forward_v I I I I #
coedge $-1 $333 $332 $463 $464 reversed $189 $-1 #
coedge $-1 $465 $466 $467 $337 forward $468 $-1 #
coedge $-1 $406 $334 $466 $418 forward $407 $-1 #
coedge $-1 $334 $405 $424 $469 forward $407 $-1 #
loop $-1 $-1 $334 $470 #
coedge $-1 $471 $472 $336 $409 forward $473 $-1 #
edge $-1 $281 0 $410 1.5707963267948966 $408 $271 forward 7 unknown #
vertex $-1 $474 $475 #
straight-curve $-1 -1.4996607218221374e-032 -4 2.0800000000000001 0 0 1 I I #
coedge $-1 $476 $338 $472 $477 reversed $414 $-1 #
coedge $-1 $338 $476 $339 $359 reversed $414 $-1 #
loop $-1 $-1 $338 $374 #
coedge $-1 $478 $467 $340 $416 reversed $479 $-1 #
edge $-1 $434 -4 $342 1.4996607218221374e-032 $415 $480 forward 7 unknown #
face $-1 $358 $341 $35 $-1 $433 reversed single #
edge $-1 $342 1.4996607218221374e-032 $481 4 $466 $480 forward 7 unknown #
point $-1 -1.4996607218221374e-032 -4 -2.0800000000000001 #
coedge $-1 $372 $343 $346 $423 forward $421 $-1 #
loop $-1 $-1 $343 $432 #
coedge $-1 $346 $345 $371 $440 forward $348 $-1 #
edge $-1 $349 0 $441 4 $346 $482 forward 7 unknown #
coedge $-1 $483 $347 $406 $469 reversed $401 $-1 #
coedge $-1 $347 $483 $484 $353 reversed $401 $-1 #
face $-1 $288 $348 $35 $-1 $402 reversed single #
point $-1 -4 0 -2.0800000000000001 #
straight-curve $-1 -4 0 2.0800000000000001 0 -1 0 I I #
plane-surface $-1 0 0 2.0800000000000001 0 0 1 1 0 0 forward_v I I I I #
vertex $-1 $353 $485 #
straight-curve $-1 4 0 -2.0800000000000001 0 -1 0 I I #
face $-1 $486 $421 $35 $-1 $433 reversed single #
plane-surface $-1 0 0 -2.0800000000000001 0 0 1 1 0 0 forward_v I I I I #
vertex $-1 $487 $488 #
straight-curve $-1 4 0 2.0800000000000001 0 1 0 I I #
face $-1 $489 $473 $35 $-1 $429 forward single #
straight-curve $-1 4 4 0 0 0 -1 I I #
point $-1 4 4 2.0800000000000001 #
point $-1 4 4 -2.0800000000000001 #
edge $-1 $375 -2.0800000000000001 $441 2.0800000000000001 $371 $490 forward 7 unknown #
vertex $-1 $373 $491 #
point $-1 -4 4 2.0800000000000001 #
model_id-kcp-attrib $-1 $-1 $-1 $377 1 990560036 60 -2143551487 10 #
face $492 $-1 $493 $10 $-1 $494 reversed single #
loop $495 $458 $496 $377 #
cone-surface $-1 0 -3.5 -2.125 0 0 1 0.19 0 0 1 I I 0 1 0.19 forward I I I I #
model_id-kcp-attrib $-1 $-1 $-1 $378 1 990560036 60 -2143551487 14 #
coedge $-1 $448 $448 $384 $452 reversed $378 $-1 #
model_id-kcp-attrib $-1 $-1 $-1 $383 1 990560036 60 -2143551487 22 #
loop $497 $-1 $498 $143 #
coedge $-1 $451 $451 $496 $499 reversed $383 $-1 #
edge $500 $501 -3.1415926535897931 $501 3.1415926535897931 $448 $502 forward 7 unknown #
vertex $-1 $385 $503 #
ellipse-curve $-1 0 0 -2.125 0 0 1 4 0 0 1 I I #
point $-1 4 0 -1.1950000000000001 #
coedge $-1 $456 $456 $393 $457 reversed $504 $-1 #
edge $505 $506 -3.1415926535897931 $506 3.1415926535897931 $456 $507 forward 7 unknown #
loop $508 $-1 $394 $377 #
attrib_edge_convexity-kcp-attrib $-1 $509 $-1 $395 1 #
vertex $510 $395 $511 #
ellipse-curve $-1 0 -3.5 -1.1950000000000001 0 0 -1 -0.19 0 0 1 I I #
loop $-1 $-1 $463 $400 #
coedge $-1 $484 $512 $403 $464 forward $462 $-1 #
edge $-1 $410 1.5707963267948966 $270 3.1415926535897931 $463 $271 forward 7 unknown #
coedge $-1 $513 $404 $512 $514 reversed $468 $-1 #
coedge $-1 $404 $513 $405 $418 reversed $468 $-1 #
coedge $-1 $415 $515 $260 $337 reversed $479 $-1 #
loop $-1 $-1 $404 $486 #
edge $-1 $481 -4 $349 0 $424 $482 forward 7 unknown #
face $-1 $417 $407 $35 $-1 $433 reversed single #
coedge $-1 $472 $408 $515 $474 forward $473 $-1 #
coedge $-1 $408 $471 $412 $477 forward $473 $-1 #
loop $-1 $-1 $408 $436 #
edge $-1 $410 -1.4996607218221374e-032 $516 4 $515 $517 forward 7 unknown #
point $-1 -1.4996607218221374e-032 -4 2.0800000000000001 #
coedge $-1 $413 $412 $478 $487 forward $414 $-1 #
edge $-1 $516 -4 $281 0 $412 $435 forward 7 unknown #
coedge $-1 $515 $415 $476 $487 reversed $479 $-1 #
loop $-1 $-1 $467 $489 #
straight-curve $-1 0 -4 -2.0800000000000001 -1 0 0 I I #
vertex $-1 $469 $518 #
straight-curve $-1 -4 0 -2.0800000000000001 0 1 0 I I #
coedge $-1 $425 $424 $513 $519 reversed $401 $-1 #
coedge $-1 $512 $463 $425 $353 forward $462 $-1 #
point $-1 -4 -4 2.0800000000000001 #
face $-1 $426 $468 $35 $-1 $520 reversed single #
edge $-1 $516 -2.0800000000000001 $434 2.0800000000000001 $476 $521 forward 7 unknown #
point $-1 4 -4 -2.0800000000000001 #
face $-1 $470 $479 $35 $-1 $520 reversed single #
straight-curve $-1 -4 4 0 0 0 -1 I I #
point $-1 -4 4 -2.0800000000000001 #
model_id-kcp-attrib $-1 $-1 $-1 $444 1 990560036 60 -2143551487 11 #
loop $522 $504 $523 $444 #
cone-surface $-1 3.5 0 -2.125 0 0 1 0.19 0 0 1 I I 0 1 0.19 forward I I I I #
model_id-kcp-attrib $-1 $-1 $-1 $445 1 990560036 60 -2143551487 20 #
coedge $-1 $496 $496 $451 $499 forward $445 $-1 #
model_id-kcp-attrib $-1 $-1 $-1 $450 1 990560036 60 -2143551487 28 #
coedge $-1 $498 $498 $523 $524 reversed $450 $-1 #
edge $525 $526 0 $526 6.2831853071795862 $496 $527 forward 7 unknown #
attrib_edge_convexity-kcp-attrib $-1 $528 $-1 $452 1 #
vertex $529 $452 $530 #
ellipse-curve $-1 0 0 -2.125 0 0 1 1.875 0 0 1 I I #
point $-1 4 0 -2.125 #
loop $531 $-1 $456 $444 #
attrib_edge_convexity-kcp-attrib $-1 $532 $-1 $457 1 #
vertex $533 $457 $534 #
ellipse-curve $-1 3.5 0 -1.1950000000000001 0 0 -1 -0.19 0 0 1 I I #
model_id-kcp-attrib $-1 $-1 $-1 $458 1 990560036 60 -2143551487 21 #
convexity-sys-attrib $-1 $-1 $459 $395 #
model_id-kcp-attrib $-1 $-1 $-1 $460 1 990560036 60 -2143551487 25 #
point $-1 0.19 -3.5 -1.1950000000000001 #
coedge $-1 $463 $484 $465 $514 forward $462 $-1 #
coedge $-1 $466 $465 $483 $519 forward $468 $-1 #
edge $-1 $430 -4 $410 -1.4996607218221374e-032 $465 $517 forward 7 unknown #
coedge $-1 $467 $478 $471 $474 reversed $479 $-1 #
vertex $-1 $477 $535 #
straight-curve $-1 0 -4 2.0800000000000001 1 0 0 I I #
point $-1 -4 -4 -2.0800000000000001 #
edge $-1 $430 -2.0800000000000001 $481 2.0800000000000001 $483 $536 forward 7 unknown #
plane-surface $-1 0 -4 0 0 1 0 0 0 1 forward_v I I I I #
straight-curve $-1 4 -4 0 0 0 -1 I I #
model_id-kcp-attrib $-1 $-1 $-1 $493 1 990560036 60 -2143551487 26 #
coedge $-1 $523 $523 $498 $524 forward $493 $-1 #
edge $537 $538 0 $538 6.2831853071795862 $523 $539 forward 7 unknown #
attrib_edge_convexity-kcp-attrib $-1 $540 $-1 $499 1 #
vertex $541 $499 $542 #
ellipse-curve $-1 0 -3.5 -2.125 0 0 -1 0.19 0 0 1 I I #
convexity-sys-attrib $-1 $-1 $500 $452 #
model_id-kcp-attrib $-1 $-1 $-1 $501 1 990560036 60 -2143551487 18 #
point $-1 -1.875 0 -2.125 #
model_id-kcp-attrib $-1 $-1 $-1 $504 1 990560036 60 -2143551487 27 #
convexity-sys-attrib $-1 $-1 $505 $457 #
model_id-kcp-attrib $-1 $-1 $-1 $506 1 990560036 60 -2143551487 31 #
point $-1 3.6899999999999999 0 -1.1950000000000001 #
point $-1 4 -4 2.0800000000000001 #
straight-curve $-1 -4 -4 0 0 0 -1 I I #
attrib_edge_convexity-kcp-attrib $-1 $543 $-1 $524 1 #
vertex $544 $524 $545 #
ellipse-curve $-1 3.5 0 -2.125 0 0 -1 0.19 0 0 1 I I #
convexity-sys-attrib $-1 $-1 $525 $499 #
model_id-kcp-attrib $-1 $-1 $-1 $526 1 990560036 60 -2143551487 24 #
point $-1 0.19 -3.5 -2.125 #
convexity-sys-attrib $-1 $-1 $537 $524 #
model_id-kcp-attrib $-1 $-1 $-1 $538 1 990560036 60 -2143551487 30 #
point $-1 3.6899999999999999 0 -2.125 #
End-of-ACIS-data 