600 0 1 0           
114 GICL ACIS Healer - Source: /gicl/data5/repository/NIST/Manfred_Osti/suitcase/adaptnipple/adaptnipple.prt.sat - 6 0 18 ACIS 6.0.3 Solaris 24 Sun Apr 14 00:36:51 2002 
1 9.999999999999999547e-07 1.000000000000000036e-10 
body $-1 $1 $-1 $-1 #
lump $-1 $-1 $2 $0 #
shell $-1 $-1 $-1 $3 $-1 $1 #
face $-1 $4 $5 $2 $-1 $6 forward single #
face $-1 $7 $8 $2 $-1 $9 forward single #
loop $-1 $-1 $10 $3 #
cone-surface $-1 0 0 -30.35300000000000153 0 0 1 50.79999999999999716 0 0 1 I I 0 1 50.79999999999999716 forward I I I I #
face $-1 $11 $12 $2 $-1 $13 reversed single #
loop $-1 $-1 $14 $4 #
cone-surface $-1 0 0 -30.35300000000000153 0 0 1 50.79999999999999716 0 0 1 I I 0 1 50.79999999999999716 forward I I I I #
coedge $-1 $15 $16 $17 $18 forward $5 $-1 #
face $-1 $19 $20 $2 $-1 $21 forward single #
loop $-1 $22 $23 $7 #
plane-surface $-1 0 0 30.35300000000000153 0 0 1 25.39999999999999858 0 0 forward_v I I I I #
coedge $-1 $24 $25 $26 $27 forward $8 $-1 #
coedge $-1 $26 $10 $28 $29 reversed $5 $-1 #
coedge $-1 $10 $26 $30 $31 forward $5 $-1 #
coedge $-1 $25 $24 $10 $18 reversed $8 $-1 #
edge $-1 $32 0 $33 2.390000000000000124 $10 $34 forward 7 unknown #
face $-1 $35 $36 $2 $-1 $37 forward single #
loop $-1 $-1 $38 $11 #
cone-surface $-1 0 0 30.35300000000000153 0 0 1 76.19999999999998863 0 0 1 I I 0 1 76.19999999999998863 forward I I I I #
loop $-1 $-1 $39 $7 #
coedge $-1 $40 $40 $41 $42 reversed $12 $-1 #
coedge $-1 $17 $14 $39 $43 reversed $8 $-1 #
coedge $-1 $14 $17 $44 $45 forward $8 $-1 #
coedge $-1 $16 $15 $14 $27 reversed $5 $-1 #
edge $-1 $46 0 $47 2.390000000000000124 $26 $48 forward 7 unknown #
coedge $-1 $39 $39 $15 $29 forward $22 $-1 #
edge $-1 $47 0 $33 3.141592653589793116 $15 $49 forward 7 unknown #
coedge $-1 $44 $44 $16 $31 reversed $50 $-1 #
edge $-1 $46 0 $32 3.141592653589793116 $16 $51 forward 7 unknown #
vertex $-1 $31 $52 #
vertex $-1 $29 $53 #
straight-curve $-1 -50.79999999999999716 6.221000277417676314e-15 -30.35300000000000153 0 0 25.39999999999999858 I I #
face $-1 $54 $55 $2 $-1 $56 forward single #
loop $-1 $-1 $57 $19 #
cone-surface $-1 0 0 30.35300000000000153 0 0 1 76.19999999999998863 0 0 1 I I 0 1 76.19999999999998863 forward I I I I #
coedge $-1 $58 $41 $59 $60 forward $20 $-1 #
coedge $-1 $28 $28 $24 $43 forward $22 $-1 #
coedge $-1 $23 $23 $61 $62 reversed $12 $-1 #
coedge $-1 $38 $63 $23 $42 forward $20 $-1 #
edge $-1 $64 0 $65 3.141592653589793116 $23 $66 forward 7 unknown #
edge $-1 $33 0 $47 3.141592653589793116 $24 $67 forward 7 unknown #
coedge $-1 $30 $30 $25 $45 reversed $50 $-1 #
edge $-1 $32 0 $46 3.141592653589793116 $25 $68 forward 7 unknown #
vertex $-1 $31 $69 #
vertex $-1 $27 $70 #
straight-curve $-1 50.79999999999999716 0 -30.35300000000000153 0 0 25.39999999999999858 I I #
ellipse-curve $-1 -1.409983241273948727e-15 0 30.35300000000000153 0 0 1 50.79999999999999716 0 0 1 I I #
loop $-1 $71 $44 $72 #
ellipse-curve $-1 0 0 -30.35300000000000153 0 0 1 50.79999999999999716 0 0 1 I I #
point $-1 -50.79999999999999716 0 -30.35300000000000153 #
point $-1 -50.79999999999999716 0 30.35300000000000153 #
face $-1 $73 $74 $2 $-1 $75 reversed single #
loop $-1 $76 $77 $35 #
plane-surface $-1 0 0 51.68900000000000006 0 0 1 25.39999999999999858 0 0 forward_v I I I I #
coedge $-1 $78 $61 $63 $79 forward $36 $-1 #
coedge $-1 $63 $38 $77 $80 reversed $20 $-1 #
coedge $-1 $61 $78 $38 $60 reversed $36 $-1 #
edge $-1 $65 0 $81 0.8399999999999999689 $59 $82 forward 7 unknown #
coedge $-1 $57 $59 $40 $62 forward $36 $-1 #
edge $-1 $65 0 $64 3.141592653589793116 $40 $83 forward 7 unknown #
coedge $-1 $41 $58 $57 $79 reversed $20 $-1 #
vertex $-1 $62 $84 #
vertex $-1 $62 $85 #
ellipse-curve $-1 0 0 30.35300000000000153 0 0 1 -76.19999999999998863 0 0 1 I I #
ellipse-curve $-1 1.409983241273948727e-15 2.819966482547897455e-15 30.35300000000000153 0 0 1 -50.79999999999999716 -2.819966482547897455e-15 0 1 I I #
ellipse-curve $-1 0 0 -30.35300000000000153 0 0 1 -50.79999999999999716 0 0 1 I I #
point $-1 50.79999999999999716 0 -30.35300000000000153 #
point $-1 50.79999999999999716 0 30.35300000000000153 #
loop $-1 $86 $87 $72 #
face $-1 $88 $89 $2 $-1 $90 reversed single #
face $-1 $91 $92 $2 $-1 $93 reversed single #
loop $-1 $-1 $94 $54 #
cone-surface $-1 0 0 51.68900000000000006 0 0 -1 -47.625 0 0 1 I I 0 1 47.625 forward I I I I #
loop $-1 $-1 $95 $35 #
coedge $-1 $96 $96 $58 $80 forward $55 $-1 #
coedge $-1 $59 $57 $96 $97 reversed $36 $-1 #
edge $-1 $64 0 $98 0.8399999999999999689 $57 $99 forward 7 unknown #
edge $-1 $98 0 $81 3.141592653589793116 $77 $100 forward 7 unknown #
vertex $-1 $97 $101 #
straight-curve $-1 76.19999999999998863 0 30.35300000000000153 0 0 25.39999999999999858 I I #
ellipse-curve $-1 0 0 30.35300000000000153 0 0 1 76.19999999999998863 0 0 1 I I #
point $-1 -76.19999999999998863 0 30.35300000000000153 #
point $-1 76.19999999999998863 0 30.35300000000000153 #
loop $-1 $-1 $102 $72 #
coedge $-1 $103 $103 $104 $105 reversed $71 $-1 #
face $-1 $106 $107 $2 $-1 $108 reversed single #
loop $-1 $50 $109 $72 #
plane-surface $-1 0 0 -30.35300000000000153 0 0 -1 25.39999999999999858 0 0 forward_v I I I I #
face $-1 $110 $111 $2 $-1 $112 forward single #
loop $-1 $-1 $113 $73 #
cone-surface $-1 0 0 51.68900000000000006 0 0 -1 -47.625 0 0 1 I I 0 1 47.625 forward I I I I #
coedge $-1 $114 $115 $116 $117 forward $74 $-1 #
coedge $-1 $118 $118 $115 $119 forward $76 $-1 #
coedge $-1 $77 $77 $78 $97 forward $55 $-1 #
edge $-1 $81 0 $98 3.141592653589793116 $96 $120 forward 7 unknown #
vertex $-1 $97 $121 #
straight-curve $-1 -76.19999999999998863 9.331500416126514076e-15 30.35300000000000153 0 0 25.39999999999999858 I I #
ellipse-curve $-1 -2.819966482547897455e-15 1.127986593019158982e-14 51.68900000000000006 0 0 1 -76.19999999999998863 -1.127986593019158982e-14 0 1 I I #
point $-1 76.19999999999998863 0 51.68900000000000006 #
coedge $-1 $122 $122 $123 $124 reversed $86 $-1 #
coedge $-1 $87 $87 $125 $126 reversed $71 $-1 #
coedge $-1 $127 $128 $87 $105 forward $107 $-1 #
edge $-1 $129 0 $130 3.141592653589793116 $87 $131 forward 7 unknown #
face $-1 $132 $133 $2 $-1 $134 reversed single #
loop $-1 $-1 $127 $88 #
cone-surface $-1 0 -88.89999999999999147 -53.97499999999999432 0 0 1 4.825999999999999623 0 0 1 I I 0 1 4.825999999999999623 forward I I I I #
coedge $-1 $135 $135 $136 $137 reversed $89 $-1 #
face $-1 $138 $139 $2 $-1 $140 forward single #
loop $-1 $141 $142 $91 #
plane-surface $-1 0 0 -53.97499999999999432 0 0 -1 25.39999999999999858 0 0 forward_v I I I I #
coedge $-1 $143 $144 $145 $146 forward $92 $-1 #
coedge $-1 $145 $94 $147 $148 forward $74 $-1 #
coedge $-1 $94 $145 $95 $119 reversed $74 $-1 #
coedge $-1 $144 $143 $94 $117 reversed $92 $-1 #
edge $-1 $149 0 $150 4.160000000000000142 $116 $151 forward 7 unknown #
coedge $-1 $95 $95 $144 $152 forward $76 $-1 #
edge $-1 $149 0 $153 3.141592653589793116 $95 $154 forward 7 unknown #
ellipse-curve $-1 5.63993296509579491e-15 -8.459899447643691576e-15 51.68900000000000006 0 0 1 76.19999999999998863 8.459899447643691576e-15 0 1 I I #
point $-1 -76.19999999999998863 0 51.68900000000000006 #
coedge $-1 $102 $102 $155 $156 reversed $86 $-1 #
coedge $-1 $157 $158 $102 $124 forward $159 $-1 #
edge $-1 $160 8.12899843922172251e-31 $161 3.141592653589791784 $102 $162 forward 7 unknown #
coedge $-1 $163 $164 $103 $126 forward $133 $-1 #
edge $-1 $130 0 $129 3.141592653589793116 $103 $165 forward 7 unknown #
coedge $-1 $166 $104 $164 $167 reversed $107 $-1 #
coedge $-1 $104 $166 $163 $168 forward $107 $-1 #
vertex $-1 $126 $169 #
vertex $-1 $126 $170 #
ellipse-curve $-1 3.524958103184871819e-16 -88.89999999999999147 -30.35300000000000153 0 0 1 -4.825999999999999623 0 0 1 I I #
face $-1 $171 $159 $2 $-1 $172 reversed single #
loop $-1 $-1 $163 $106 #
cone-surface $-1 0 -88.89999999999999147 -53.97499999999999432 0 0 1 4.825999999999999623 0 0 1 I I 0 1 4.825999999999999623 forward I I I I #
coedge $-1 $109 $109 $173 $174 reversed $89 $-1 #
coedge $-1 $175 $176 $109 $137 forward $139 $-1 #
edge $-1 $177 0 $178 3.141592653589793116 $109 $179 forward 7 unknown #
face $-1 $72 $180 $2 $-1 $181 forward single #
loop $-1 $-1 $175 $110 #
cone-surface $-1 0 0 -30.35300000000000153 0 0 -1 101.5999999999999943 0 0 1 I I 0 1 101.5999999999999943 forward I I I I #
loop $-1 $182 $147 $91 #
coedge $-1 $183 $183 $184 $185 forward $111 $-1 #
coedge $-1 $116 $113 $186 $187 forward $92 $-1 #
coedge $-1 $113 $116 $118 $152 reversed $92 $-1 #
coedge $-1 $115 $114 $113 $146 reversed $74 $-1 #
edge $-1 $153 0 $188 4.160000000000000142 $113 $189 forward 7 unknown #
coedge $-1 $186 $186 $114 $148 reversed $141 $-1 #
edge $-1 $150 0 $188 3.141592653589792672 $147 $190 forward 7 unknown #
vertex $-1 $152 $191 #
vertex $-1 $187 $192 #
straight-curve $-1 47.625 5.832187760079071692e-15 51.68900000000000006 0 0 -25.39999999999999858 I I #
edge $-1 $153 0 $149 3.141592653589793116 $118 $193 forward 7 unknown #
vertex $-1 $152 $194 #
ellipse-curve $-1 0 0 51.68900000000000006 0 0 -1 47.625 0 0 1 I I #
coedge $-1 $195 $196 $122 $156 forward $197 $-1 #
edge $-1 $161 2.709666146407232662e-31 $160 3.141592653589793116 $122 $198 forward 7 unknown #
coedge $-1 $199 $123 $196 $200 reversed $159 $-1 #
coedge $-1 $123 $199 $195 $201 forward $159 $-1 #
loop $-1 $-1 $157 $132 #
vertex $-1 $156 $202 #
vertex $-1 $156 $203 #
ellipse-curve $-1 88.89999999999999147 3.524958103184872016e-15 -30.35300000000000153 0 0 1 -4.825999999999998735 -3.524958103184872016e-15 0 1 I I #
coedge $-1 $204 $125 $128 $168 reversed $133 $-1 #
coedge $-1 $125 $204 $127 $167 forward $133 $-1 #
ellipse-curve $-1 -1.762479051592435909e-16 -88.89999999999999147 -30.35300000000000153 0 0 1 4.825999999999999623 0 0 1 I I #
coedge $-1 $128 $127 $205 $206 reversed $107 $-1 #
edge $-1 $207 0 $130 0.9299999999999997158 $164 $208 forward 7 unknown #
edge $-1 $209 0 $129 0.9299999999999997158 $163 $210 forward 7 unknown #
point $-1 -4.825999999999999623 -88.89999999999999147 -30.35300000000000153 #
point $-1 4.825999999999999623 -88.89999999999999147 -30.35300000000000153 #
face $-1 $-1 $197 $2 $-1 $211 reversed single #
cone-surface $-1 88.89999999999999147 0 -53.97499999999999432 0 0 1 4.825999999999999623 0 0 1 I I 0 1 4.825999999999999623 forward I I I I #
coedge $-1 $212 $213 $135 $174 forward $180 $-1 #
edge $-1 $178 0 $177 3.141592653589793116 $135 $214 forward 7 unknown #
coedge $-1 $184 $136 $213 $215 forward $139 $-1 #
coedge $-1 $136 $184 $212 $216 reversed $139 $-1 #
vertex $-1 $174 $217 #
vertex $-1 $174 $218 #
ellipse-curve $-1 0 0 -30.35300000000000153 0 0 -1 -101.5999999999999943 0 0 1 I I #
loop $-1 $-1 $212 $138 #
cone-surface $-1 0 0 -30.35300000000000153 0 0 -1 101.5999999999999943 0 0 1 I I 0 1 101.5999999999999943 forward I I I I #
loop $-1 $219 $205 $91 #
coedge $-1 $142 $142 $220 $221 forward $111 $-1 #
coedge $-1 $176 $175 $142 $185 reversed $139 $-1 #
edge $-1 $222 0 $223 3.141592653589793116 $142 $224 forward 7 unknown #
coedge $-1 $147 $147 $143 $187 reversed $141 $-1 #
edge $-1 $188 0 $150 3.141592653589793116 $186 $225 forward 7 unknown #
vertex $-1 $187 $226 #
straight-curve $-1 -47.625 0 51.68900000000000006 0 0 -25.39999999999999858 I I #
ellipse-curve $-1 -1.409983241273948727e-15 1.127986593019158982e-14 -53.97499999999999432 0 0 -1 47.625 -1.127986593019158982e-14 0 1 I I #
point $-1 47.625 0 51.68900000000000006 #
point $-1 47.625 0 -53.97499999999999432 #
ellipse-curve $-1 0 0 51.68900000000000006 0 0 -1 -47.625 0 0 1 I I #
point $-1 -47.625 0 51.68900000000000006 #
coedge $-1 $227 $155 $158 $201 reversed $197 $-1 #
coedge $-1 $155 $227 $157 $200 forward $197 $-1 #
loop $-1 $-1 $195 $171 #
ellipse-curve $-1 88.89999999999999147 7.049916206369743637e-16 -30.35300000000000153 0 0 1 4.825999999999998735 -7.049916206369743637e-16 0 1 I I #
coedge $-1 $158 $157 $228 $229 reversed $159 $-1 #
edge $-1 $230 0 $161 0.9299999999999997158 $196 $231 forward 7 unknown #
edge $-1 $232 0 $160 0.9299999999999997158 $195 $233 forward 7 unknown #
point $-1 84.07399999999999807 0 -30.35300000000000153 #
point $-1 93.72599999999999909 0 -30.35300000000000153 #
coedge $-1 $164 $163 $234 $235 reversed $133 $-1 #
coedge $-1 $234 $234 $166 $206 forward $182 $-1 #
edge $-1 $209 0 $207 3.141592653589793116 $205 $236 forward 7 unknown #
vertex $-1 $235 $237 #
straight-curve $-1 4.825999999999999623 -88.89999999999999147 -53.97499999999999432 0 0 25.39999999999999858 I I #
vertex $-1 $235 $238 #
straight-curve $-1 -4.825999999999999623 -88.89999999999999147 -53.97499999999999432 0 0 25.39999999999999858 I I #
cone-surface $-1 88.89999999999999147 0 -53.97499999999999432 0 0 1 4.825999999999999623 0 0 1 I I 0 1 4.825999999999999623 forward I I I I #
coedge $-1 $220 $173 $176 $216 forward $180 $-1 #
coedge $-1 $173 $220 $175 $215 reversed $180 $-1 #
ellipse-curve $-1 0 0 -30.35300000000000153 0 0 -1 101.5999999999999943 0 0 1 I I #
edge $-1 $178 0 $223 0.9299999999999997158 $213 $239 forward 7 unknown #
edge $-1 $177 0 $222 0.9299999999999997158 $212 $240 forward 7 unknown #
point $-1 -101.5999999999999943 0 -30.35300000000000153 #
point $-1 101.5999999999999943 0 -30.35300000000000153 #
loop $-1 $-1 $228 $91 #
coedge $-1 $213 $212 $183 $221 reversed $180 $-1 #
edge $-1 $223 0 $222 3.141592653589793116 $183 $241 forward 7 unknown #
vertex $-1 $221 $242 #
vertex $-1 $221 $243 #
ellipse-curve $-1 0 0 -53.97499999999999432 0 0 -1 -101.5999999999999943 0 0 1 I I #
ellipse-curve $-1 0 2.819966482547897455e-15 -53.97499999999999432 0 0 -1 -47.625 -2.819966482547897455e-15 0 1 I I #
point $-1 -47.625 0 -53.97499999999999432 #
coedge $-1 $196 $195 $244 $245 reversed $197 $-1 #
coedge $-1 $244 $244 $199 $229 forward $219 $-1 #
edge $-1 $232 0 $230 3.141592653589793116 $228 $246 forward 7 unknown #
vertex $-1 $245 $247 #
straight-curve $-1 93.72599999999999909 0 -53.97499999999999432 0 0 25.39999999999999858 I I #
vertex $-1 $245 $248 #
straight-curve $-1 84.07399999999999807 5.909950263546792262e-16 -53.97499999999999432 0 0 25.39999999999999858 I I #
coedge $-1 $205 $205 $204 $235 forward $182 $-1 #
edge $-1 $207 0 $209 3.141592653589793116 $234 $249 forward 7 unknown #
ellipse-curve $-1 0 -88.89999999999999147 -53.97499999999999432 0 0 1 -4.825999999999999623 0 0 1 I I #
point $-1 4.825999999999999623 -88.89999999999999147 -53.97499999999999432 #
point $-1 -4.825999999999999623 -88.89999999999999147 -53.97499999999999432 #
straight-curve $-1 101.5999999999999943 0 -30.35300000000000153 0 0 -25.39999999999999858 I I #
straight-curve $-1 -101.5999999999999943 -1.244200055483535263e-14 -30.35300000000000153 0 0 -25.39999999999999858 I I #
ellipse-curve $-1 0 0 -53.97499999999999432 0 0 -1 101.5999999999999943 0 0 1 I I #
point $-1 -101.5999999999999943 0 -53.97499999999999432 #
point $-1 101.5999999999999943 0 -53.97499999999999432 #
coedge $-1 $228 $228 $227 $245 forward $219 $-1 #
edge $-1 $230 0 $232 3.141592653589793116 $244 $250 forward 7 unknown #
ellipse-curve $-1 88.89999999999999147 0 -53.97499999999999432 0 0 1 -4.825999999999998735 0 0 1 I I #
point $-1 93.72599999999999909 0 -53.97499999999999432 #
point $-1 84.07399999999999807 0 -53.97499999999999432 #
ellipse-curve $-1 0 -88.89999999999999147 -53.97499999999999432 0 0 1 4.825999999999999623 0 0 1 I I #
ellipse-curve $-1 88.89999999999999147 0 -53.97499999999999432 0 0 1 4.825999999999998735 0 0 1 I I #
End-of-ACIS-data 