600 0 1 0           
110 GICL ACIS Healer - Source: /gicl/data5/repository/NIST/Manfred_Osti/suitcase/adaptnipple/adaptnipple.sat - 6 0 18 ACIS 6.0.3 Solaris 24 Sun Apr 14 00:36:50 2002 
1 9.999999999999999547e-07 1.000000000000000036e-10 
body $-1 $1 $-1 $-1 #
lump $-1 $-1 $2 $0 #
shell $-1 $-1 $-1 $3 $-1 $1 #
face $-1 $4 $5 $2 $-1 $6 forward single #
face $-1 $7 $8 $2 $-1 $9 reversed single #
loop $-1 $10 $11 $3 #
cone-surface $-1 0 0 -1.195000000000000062 0 0 1 2 0 0 1 I I 0 1 2 forward I I I I #
face $-1 $12 $13 $2 $-1 $14 forward single #
loop $-1 $15 $16 $4 #
plane-surface $-1 0 0 1.195000000000000062 0 0 1 1 0 0 forward_v I I I I #
loop $-1 $-1 $17 $3 #
coedge $-1 $11 $11 $18 $19 forward $5 $-1 #
face $-1 $20 $21 $2 $-1 $22 forward single #
loop $-1 $23 $24 $7 #
plane-surface $-1 0 0 2.035000000000000142 0 0 1 1 0 0 forward_v I I I I #
loop $-1 $-1 $18 $4 #
coedge $-1 $16 $16 $25 $26 forward $8 $-1 #
coedge $-1 $17 $17 $27 $28 reversed $10 $-1 #
coedge $-1 $18 $18 $11 $19 reversed $15 $-1 #
edge $-1 $29 -3.141592653589793116 $29 3.141592653589793116 $18 $30 forward 7 unknown #
face $-1 $31 $32 $2 $-1 $33 reversed single #
loop $-1 $34 $35 $12 #
cone-surface $-1 0 0 1.195000000000000062 0 0 1 3 0 0 1 I I 0 1 3 forward I I I I #
loop $-1 $-1 $36 $7 #
coedge $-1 $24 $24 $35 $37 reversed $13 $-1 #
coedge $-1 $25 $25 $16 $26 reversed $34 $-1 #
edge $-1 $38 -3.141592653589793116 $38 3.141592653589793116 $25 $39 forward 7 unknown #
coedge $-1 $27 $27 $17 $28 forward $40 $-1 #
edge $-1 $41 -3.141592653589793116 $41 3.141592653589793116 $27 $42 forward 7 unknown #
vertex $-1 $19 $43 #
ellipse-curve $-1 0 0 1.195000000000000062 0 0 -1 -2 0 0 1 I I #
face $-1 $44 $45 $2 $-1 $46 forward single #
loop $-1 $40 $47 $20 #
plane-surface $-1 0 0 -1.195000000000000062 0 0 -1 -1 0 0 forward_v I I I I #
loop $-1 $-1 $25 $12 #
coedge $-1 $35 $35 $24 $37 forward $21 $-1 #
coedge $-1 $36 $36 $48 $49 reversed $23 $-1 #
edge $-1 $50 0 $50 6.283185307179586232 $35 $51 forward 7 unknown #
vertex $-1 $26 $52 #
ellipse-curve $-1 0 0 1.195000000000000062 0 0 -1 -3 0 0 1 I I #
loop $-1 $53 $27 $20 #
vertex $-1 $28 $54 #
ellipse-curve $-1 0 0 -1.195000000000000062 0 0 -1 -2 0 0 1 I I #
point $-1 2 0 1.195000000000000062 #
face $-1 $55 $56 $2 $-1 $57 forward single #
loop $-1 $58 $59 $31 #
plane-surface $-1 0 0 -2.125 0 0 -1 -1 0 0 forward_v I I I I #
coedge $-1 $47 $47 $60 $61 forward $32 $-1 #
coedge $-1 $48 $48 $36 $49 forward $62 $-1 #
edge $-1 $63 0 $63 6.283185307179586232 $48 $64 forward 7 unknown #
vertex $-1 $37 $65 #
ellipse-curve $-1 0 0 2.035000000000000142 0 0 -1 3 0 0 1 I I #
point $-1 3 0 1.195000000000000062 #
loop $-1 $66 $67 $20 #
point $-1 2 0 -1.195000000000000062 #
face $-1 $68 $69 $2 $-1 $70 reversed single #
loop $-1 $71 $72 $44 #
cone-surface $-1 0 0 -1.195000000000000062 0 0 -1 4 0 0 1 I I 0 1 4 forward I I I I #
loop $-1 $73 $74 $31 #
coedge $-1 $59 $59 $72 $75 reversed $45 $-1 #
coedge $-1 $60 $60 $47 $61 reversed $71 $-1 #
edge $-1 $76 -3.141592653589793116 $76 3.141592653589793116 $60 $77 forward 7 unknown #
loop $-1 $-1 $48 $55 #
vertex $-1 $49 $78 #
ellipse-curve $-1 0 0 2.035000000000000142 0 0 1 -1.875 0 0 1 I I #
point $-1 3 0 2.035000000000000142 #
loop $-1 $-1 $79 $20 #
coedge $-1 $67 $67 $80 $81 forward $53 $-1 #
face $-1 $82 $83 $2 $-1 $84 reversed single #
loop $-1 $62 $85 $55 #
cone-surface $-1 0 0 2.035000000000000142 0 0 -1 -1.875 0 0 1 I I 0 1 1.875 forward I I I I #
loop $-1 $-1 $60 $44 #
coedge $-1 $72 $72 $59 $75 forward $56 $-1 #
loop $-1 $86 $87 $31 #
coedge $-1 $74 $74 $85 $88 forward $58 $-1 #
edge $-1 $89 0 $89 6.283185307179586232 $72 $90 forward 7 unknown #
vertex $-1 $61 $91 #
ellipse-curve $-1 0 0 -1.195000000000000062 0 0 1 -4 0 0 1 I I #
point $-1 -1.875 0 2.035000000000000142 #
coedge $-1 $79 $79 $92 $93 forward $66 $-1 #
coedge $-1 $80 $80 $67 $81 reversed $94 $-1 #
edge $-1 $95 -3.141592653589793116 $95 3.141592653589793116 $80 $96 forward 7 unknown #
face $-1 $-1 $97 $2 $-1 $98 reversed single #
loop $-1 $94 $99 $68 #
cone-surface $-1 0 -3.5 -2.125 0 0 1 0.1900000000000000022 0 0 1 I I 0 1 0.1900000000000000022 forward I I I I #
coedge $-1 $85 $85 $74 $88 reversed $69 $-1 #
loop $-1 $-1 $100 $31 #
coedge $-1 $87 $87 $99 $101 reversed $73 $-1 #
edge $-1 $102 -3.141592653589793116 $102 3.141592653589793116 $85 $103 forward 7 unknown #
vertex $-1 $75 $104 #
ellipse-curve $-1 0 0 -2.125 0 0 1 4 0 0 1 I I #
point $-1 4 0 -1.195000000000000062 #
coedge $-1 $92 $92 $79 $93 reversed $105 $-1 #
edge $-1 $106 -3.141592653589793116 $106 3.141592653589793116 $92 $107 forward 7 unknown #
loop $-1 $-1 $80 $68 #
vertex $-1 $81 $108 #
ellipse-curve $-1 0 -3.5 -1.195000000000000062 0 0 -1 -0.1900000000000000022 0 0 1 I I #
loop $-1 $105 $109 $82 #
cone-surface $-1 3.5 0 -2.125 0 0 1 0.1900000000000000022 0 0 1 I I 0 1 0.1900000000000000022 forward I I I I #
coedge $-1 $99 $99 $87 $101 forward $83 $-1 #
coedge $-1 $100 $100 $109 $110 reversed $86 $-1 #
edge $-1 $111 0 $111 6.283185307179586232 $99 $112 forward 7 unknown #
vertex $-1 $88 $113 #
ellipse-curve $-1 0 0 -2.125 0 0 1 1.875 0 0 1 I I #
point $-1 4 0 -2.125 #
loop $-1 $-1 $92 $82 #
vertex $-1 $93 $114 #
ellipse-curve $-1 3.5 0 -1.195000000000000062 0 0 -1 -0.1900000000000000022 0 0 1 I I #
point $-1 0.1900000000000000022 -3.5 -1.195000000000000062 #
coedge $-1 $109 $109 $100 $110 forward $97 $-1 #
edge $-1 $115 0 $115 6.283185307179586232 $109 $116 forward 7 unknown #
vertex $-1 $101 $117 #
ellipse-curve $-1 0 -3.5 -2.125 0 0 -1 0.1900000000000000022 0 0 1 I I #
point $-1 -1.875 0 -2.125 #
point $-1 3.689999999999999947 0 -1.195000000000000062 #
vertex $-1 $110 $118 #
ellipse-curve $-1 3.5 0 -2.125 0 0 -1 0.1900000000000000022 0 0 1 I I #
point $-1 0.1900000000000000022 -3.5 -2.125 #
point $-1 3.689999999999999947 0 -2.125 #
End-of-ACIS-data 