700 0 2 0           
24 FBMach with ACIS - 7.0.3 13 ACIS 7.0.3 NT 24 Tue May 14 14:19:42 2002 
1 9.9999999999999995e-007 1e-010 
body $2 -1 $-1 $3 $-1 $4 #
bdycol-kcp $-1 -1 1 5 $5 $6 $7 $8 $9 #
model_id-kcp-attrib $-1 -1 $-1 $-1 $0 1 1021400382 1021400382 1975844865 1 #
lump $-1 -1 $-1 $-1 $10 $0 #
transform $-1 -1 1 0 0 0 1 0 0 0 1 0 0 0 1 rotate no_reflect no_shear #
body $11 -1 $-1 $12 $-1 $13 #
body $14 -1 $-1 $15 $-1 $16 #
body $17 -1 $-1 $18 $-1 $19 #
body $20 -1 $-1 $21 $-1 $22 #
body $23 -1 $-1 $24 $-1 $25 #
shell $-1 -1 $-1 $-1 $-1 $26 $-1 $3 #
rgb_color-st-attrib $-1 -1 $27 $-1 $5 0.5 1 1 #
lump $-1 -1 $-1 $-1 $28 $5 #
transform $-1 -1 1 0 0 0 1 0 0 0 1 0 0 -1.1430000000000007 1 no_rotate no_reflect no_shear #
rgb_color-st-attrib $-1 -1 $29 $-1 $6 0.5 1 1 #
lump $-1 -1 $-1 $-1 $30 $6 #
transform $-1 -1 1 0 0 0 1 0 0 0 1 0 0 0 1 no_rotate no_reflect no_shear #
rgb_color-st-attrib $-1 -1 $31 $-1 $7 0.5 1 1 #
lump $-1 -1 $-1 $-1 $32 $7 #
transform $-1 -1 1 0 0 0 1 0 0 0 1 0 0 0 1 no_rotate no_reflect no_shear #
model_id-kcp-attrib $-1 -1 $-1 $-1 $8 1 1021400382 1021400382 1976500226 1 #
lump $-1 -1 $-1 $-1 $33 $8 #
transform $-1 -1 1 0 0 0 1 0 0 0 1 0 0 -1.1430000000000007 1 no_rotate no_reflect no_shear #
rgb_color-st-attrib $-1 -1 $34 $-1 $9 0.5 1 1 #
lump $-1 -1 $-1 $-1 $35 $9 #
transform $-1 -1 1 0 0 0 1 0 0 0 1 0 0 0 1 no_rotate no_reflect no_shear #
face $36 -1 $-1 $37 $38 $10 $-1 $39 forward single #
model_id-kcp-attrib $-1 -1 $-1 $11 $5 1 1021400382 1021400382 1966931971 1 #
shell $-1 -1 $-1 $-1 $-1 $40 $-1 $12 #
model_id-kcp-attrib $-1 -1 $-1 $14 $6 1 1021400382 1021400382 1971519492 1 #
shell $-1 -1 $-1 $-1 $-1 $41 $-1 $15 #
model_id-kcp-attrib $-1 -1 $-1 $17 $7 1 1021400382 1021400382 1974140933 1 #
shell $-1 -1 $-1 $-1 $-1 $42 $-1 $18 #
shell $-1 -1 $-1 $-1 $-1 $43 $-1 $21 #
model_id-kcp-attrib $-1 -1 $-1 $23 $9 1 1021400382 1021400382 1976762374 1 #
shell $-1 -1 $-1 $-1 $-1 $44 $-1 $24 #
model_id-kcp-attrib $-1 -1 $-1 $-1 $26 1 1021400382 1021400382 1975844865 2 #
face $45 -1 $-1 $46 $47 $10 $-1 $48 forward single #
loop $-1 -1 $-1 $-1 $49 $26 #
cone-surface $-1 -1 $-1 0 0 -30.353000000000002 0 0 1 50.799999999999997 0 0 1 I I 0 1 50.799999999999997 forward I I I I #
face $-1 -1 $-1 $50 $51 $28 $-1 $52 reversed single #
face $-1 -1 $-1 $53 $54 $30 $-1 $55 forward single #
face $-1 -1 $-1 $56 $57 $32 $-1 $58 forward single #
face $59 -1 $-1 $60 $61 $33 $-1 $62 forward single #
face $-1 -1 $-1 $63 $64 $35 $-1 $65 forward single #
model_id-kcp-attrib $-1 -1 $-1 $-1 $37 1 1021400382 1021400382 1975844865 3 #
face $66 -1 $-1 $67 $68 $10 $-1 $69 reversed single #
loop $-1 -1 $-1 $-1 $70 $37 #
cone-surface $-1 -1 $-1 0 0 -30.353000000000002 0 0 1 50.799999999999997 0 0 1 I I 0 1 50.799999999999997 forward I I I I #
coedge $-1 -1 $-1 $71 $72 $73 $74 forward $38 $-1 #
face $-1 -1 $-1 $75 $76 $28 $-1 $52 reversed single #
loop $-1 -1 $-1 $-1 $77 $40 #
cone-surface $-1 -1 $-1 -3.8091382334282288e-031 0 52.832000000000001 0 0 1 101.59999999999999 0 0 1 I I 0 1 101.59999999999999 forward I I I I #
face $-1 -1 $-1 $78 $79 $30 $-1 $80 reversed single #
loop $-1 -1 $-1 $81 $82 $41 #
cone-surface $-1 -1 $-1 0 0 51.689 0 0 -1 47.625 0 0 1 I I 0 1 47.625 forward I I I I #
face $-1 -1 $-1 $83 $84 $32 $-1 $85 forward single #
loop $-1 -1 $-1 $86 $87 $42 #
cone-surface $-1 -1 $-1 0 -88.899999999999991 -53.974999999999994 0 0 1 -4.8259999999999996 0 0 1 I I 0 1 4.8259999999999996 forward I I I I #
model_id-kcp-attrib $-1 -1 $-1 $-1 $43 1 1021400382 1021400382 1976500226 2 #
face $88 -1 $-1 $89 $90 $33 $-1 $91 reversed single #
loop $-1 -1 $-1 $-1 $92 $43 #
plane-surface $-1 -1 $-1 0 0 52.832000000000001 0 0 1 1 0 0 forward_v I I I I #
face $-1 -1 $-1 $93 $94 $35 $-1 $95 forward single #
loop $-1 -1 $-1 $96 $97 $44 #
cone-surface $-1 -1 $-1 88.899999999999991 0 -53.974999999999994 0 0 1 -4.8259999999999987 0 0 1 I I 0 1 4.8259999999999987 forward I I I I #
model_id-kcp-attrib $-1 -1 $-1 $-1 $46 1 1021400382 1021400382 1975844865 4 #
face $98 -1 $-1 $99 $100 $10 $-1 $101 forward single #
loop $-1 -1 $-1 $102 $103 $46 #
plane-surface $-1 -1 $-1 0 0 30.353000000000002 0 0 1 25.399999999999999 0 0 forward_v I I I I #
coedge $-1 -1 $-1 $104 $105 $106 $107 forward $47 $-1 #
coedge $-1 -1 $-1 $106 $49 $108 $109 reversed $38 $-1 #
coedge $-1 -1 $-1 $49 $106 $110 $111 forward $38 $-1 #
coedge $-1 -1 $-1 $105 $104 $49 $74 reversed $47 $-1 #
edge $-1 -1 $-1 $112 0 $113 2.3900000000000001 $49 $114 forward @7 unknown #
face $-1 -1 $-1 $115 $116 $28 $-1 $52 reversed single #
loop $-1 -1 $-1 $-1 $117 $50 #
coedge $-1 -1 $-1 $118 $119 $120 $121 reversed $51 $-1 #
face $-1 -1 $-1 $-1 $122 $30 $-1 $123 forward single #
loop $-1 -1 $-1 $-1 $124 $53 #
plane-surface $-1 -1 $-1 0 0 -53.97499999999998 8.9036980119598637e-033 1.2242584766444812e-032 1 1 0 -8.9036980119598637e-033 forward_v I I I I #
loop $-1 -1 $-1 $-1 $125 $41 #
coedge $-1 -1 $-1 $82 $82 $124 $126 forward $54 $-1 #
face $-1 -1 $-1 $-1 $127 $32 $-1 $128 reversed single #
loop $-1 -1 $-1 $-1 $129 $56 #
plane-surface $-1 -1 $-1 0 -88.899999999999977 -30.353000000000023 -5.4193322928144163e-032 -1.7341863337006331e-029 1 1 0 5.4193322928144163e-032 forward_v I I I I #
loop $-1 -1 $-1 $-1 $130 $42 #
coedge $-1 -1 $-1 $87 $87 $129 $131 forward $57 $-1 #
model_id-kcp-attrib $-1 -1 $-1 $-1 $60 1 1021400382 1021400382 1976500226 3 #
face $-1 -1 $-1 $132 $133 $33 $-1 $134 reversed single #
loop $-1 -1 $-1 $-1 $135 $60 #
plane-surface $-1 -1 $-1 0 0 -52.832000000000001 0 0 1 1 0 0 forward_v I I I I #
coedge $-1 -1 $-1 $136 $137 $138 $139 forward $61 $-1 #
face $-1 -1 $-1 $-1 $140 $35 $-1 $141 reversed single #
loop $-1 -1 $-1 $-1 $142 $63 #
plane-surface $-1 -1 $-1 88.899999999999977 0 -30.353000000000023 1.7341863337006331e-029 -1.6257996878443354e-031 1 1 0 -1.7341863337006331e-029 forward_v I I I I #
loop $-1 -1 $-1 $-1 $143 $44 #
coedge $-1 -1 $-1 $97 $97 $142 $144 forward $64 $-1 #
model_id-kcp-attrib $-1 -1 $-1 $-1 $67 1 1021400382 1021400382 1975844865 5 #
face $145 -1 $-1 $146 $147 $10 $-1 $148 forward single #
loop $-1 -1 $-1 $-1 $149 $67 #
cone-surface $-1 -1 $-1 0 0 30.353000000000002 0 0 1 76.199999999999989 0 0 1 I I 0 1 76.199999999999989 forward I I I I #
loop $-1 -1 $-1 $-1 $150 $46 #
coedge $-1 -1 $-1 $151 $151 $152 $153 reversed $68 $-1 #
coedge $-1 -1 $-1 $73 $70 $150 $154 reversed $47 $-1 #
coedge $-1 -1 $-1 $70 $73 $155 $156 forward $47 $-1 #
coedge $-1 -1 $-1 $72 $71 $70 $107 reversed $38 $-1 #
edge $-1 -1 $-1 $157 0 $158 2.3900000000000001 $106 $159 forward @7 unknown #
coedge $-1 -1 $-1 $150 $150 $71 $109 forward $102 $-1 #
edge $-1 -1 $-1 $158 0 $113 3.1415926535897931 $71 $160 forward @7 unknown #
coedge $-1 -1 $-1 $155 $155 $72 $111 reversed $161 $-1 #
edge $-1 -1 $-1 $157 0 $112 3.1415926535897931 $72 $162 forward @7 unknown #
vertex $-1 -1 $-1 $111 $163 #
vertex $-1 -1 $-1 $109 $164 #
straight-curve $-1 -1 $-1 -50.799999999999997 6.2210002774176763e-015 -30.353000000000002 0 0 25.399999999999999 I I #
face $-1 -1 $-1 $165 $166 $28 $-1 $52 reversed single #
loop $-1 -1 $-1 $-1 $167 $75 #
coedge $-1 -1 $-1 $168 $169 $170 $171 reversed $76 $-1 #
coedge $-1 -1 $-1 $172 $77 $173 $174 reversed $51 $-1 #
coedge $-1 -1 $-1 $77 $172 $175 $176 reversed $51 $-1 #
coedge $-1 -1 $-1 $177 $178 $179 $121 forward $180 $-1 #
edge $-1 -1 $-1 $181 -105.664 $182 0 $120 $183 forward @7 unknown #
loop $-1 -1 $-1 $-1 $184 $78 #
plane-surface $-1 -1 $-1 0 0 51.689000000000007 8.9036980119598637e-033 1.2242584766444812e-032 1 1 0 -8.9036980119598637e-033 forward_v I I I I #
coedge $-1 -1 $-1 $124 $124 $82 $126 reversed $79 $-1 #
coedge $-1 -1 $-1 $125 $125 $184 $185 forward $81 $-1 #
edge $-1 -1 $-1 $186 0 $186 6.2831853071795862 $82 $187 forward @7 unknown #
loop $-1 -1 $-1 $-1 $188 $83 #
plane-surface $-1 -1 $-1 0 -88.899999999999977 -53.975000000000016 -5.4193322928144163e-032 -1.7341863337006331e-029 1 1 0 5.4193322928144163e-032 forward_v I I I I #
coedge $-1 -1 $-1 $129 $129 $87 $131 reversed $84 $-1 #
coedge $-1 -1 $-1 $130 $130 $188 $189 forward $86 $-1 #
edge $-1 -1 $-1 $190 0 $190 6.2831853071795862 $87 $191 forward @7 unknown #
face $-1 -1 $-1 $192 $193 $33 $-1 $194 reversed single #
loop $-1 -1 $-1 $-1 $195 $89 #
plane-surface $-1 -1 $-1 0 -101.59999999999999 0 0 1 0 0 0 1 forward_v I I I I #
coedge $-1 -1 $-1 $196 $197 $198 $199 forward $90 $-1 #
coedge $-1 -1 $-1 $200 $92 $201 $202 forward $61 $-1 #
coedge $-1 -1 $-1 $92 $200 $203 $204 forward $61 $-1 #
coedge $-1 -1 $-1 $205 $206 $92 $139 reversed $207 $-1 #
edge $-1 -1 $-1 $208 -101.59999999999999 $209 101.59999999999999 $138 $210 forward @7 unknown #
loop $-1 -1 $-1 $-1 $211 $93 #
plane-surface $-1 -1 $-1 88.899999999999977 0 -53.975000000000016 1.7341863337006331e-029 -1.6257996878443354e-031 1 1 0 -1.7341863337006331e-029 forward_v I I I I #
coedge $-1 -1 $-1 $142 $142 $97 $144 reversed $94 $-1 #
coedge $-1 -1 $-1 $143 $143 $211 $212 forward $96 $-1 #
edge $-1 -1 $-1 $213 0 $213 6.2831853071795862 $97 $214 forward @7 unknown #
model_id-kcp-attrib $-1 -1 $-1 $-1 $99 1 1021400382 1021400382 1975844865 6 #
face $215 -1 $-1 $216 $217 $10 $-1 $218 forward single #
loop $-1 -1 $-1 $-1 $219 $99 #
cone-surface $-1 -1 $-1 0 0 30.353000000000002 0 0 1 76.199999999999989 0 0 1 I I 0 1 76.199999999999989 forward I I I I #
coedge $-1 -1 $-1 $220 $152 $221 $222 forward $100 $-1 #
coedge $-1 -1 $-1 $108 $108 $104 $154 forward $102 $-1 #
coedge $-1 -1 $-1 $103 $103 $223 $224 reversed $68 $-1 #
coedge $-1 -1 $-1 $149 $225 $103 $153 forward $100 $-1 #
edge $-1 -1 $-1 $226 0 $227 3.1415926535897931 $103 $228 forward @7 unknown #
edge $-1 -1 $-1 $113 0 $158 3.1415926535897931 $104 $229 forward @7 unknown #
coedge $-1 -1 $-1 $110 $110 $105 $156 reversed $161 $-1 #
edge $-1 -1 $-1 $112 0 $157 3.1415926535897931 $105 $230 forward @7 unknown #
vertex $-1 -1 $-1 $111 $231 #
vertex $-1 -1 $-1 $107 $232 #
straight-curve $-1 -1 $-1 50.799999999999997 0 -30.353000000000002 0 0 25.399999999999999 I I #
ellipse-curve $-1 -1 $-1 -1.4099832412739487e-015 0 30.353000000000002 0 0 1 50.799999999999997 0 0 1 I I #
loop $-1 -1 $-1 $233 $155 $234 #
ellipse-curve $-1 -1 $-1 0 0 -30.353000000000002 0 0 1 50.799999999999997 0 0 1 I I #
point $-1 -1 $-1 -50.799999999999997 0 -30.353000000000002 #
point $-1 -1 $-1 -50.799999999999997 0 30.353000000000002 #
face $-1 -1 $-1 $235 $236 $28 $-1 $237 reversed single #
loop $-1 -1 $-1 $-1 $238 $115 #
coedge $-1 -1 $-1 $239 $240 $241 $242 reversed $116 $-1 #
coedge $-1 -1 $-1 $243 $117 $244 $245 reversed $76 $-1 #
coedge $-1 -1 $-1 $117 $243 $77 $121 forward $76 $-1 #
coedge $-1 -1 $-1 $246 $247 $117 $171 forward $248 $-1 #
edge $-1 -1 $-1 $249 -3.1415926535897931 $182 -1.5707963267948966 $170 $250 forward @7 unknown #
coedge $-1 -1 $-1 $119 $118 $240 $251 forward $51 $-1 #
coedge $-1 -1 $-1 $252 $253 $118 $174 forward $254 $-1 #
edge $-1 -1 $-1 $255 0 $181 1.5707963267948966 $173 $256 forward @7 unknown #
coedge $-1 -1 $-1 $257 $258 $119 $176 forward $259 $-1 #
edge $-1 -1 $-1 $182 -1.5707963267948966 $260 0 $175 $250 forward @7 unknown #
coedge $-1 -1 $-1 $261 $120 $258 $262 reversed $180 $-1 #
coedge $-1 -1 $-1 $120 $261 $252 $263 reversed $180 $-1 #
coedge $-1 -1 $-1 $264 $265 $169 $121 reversed $266 $-1 #
loop $-1 -1 $-1 $-1 $120 $267 #
vertex $-1 -1 $-1 $263 $268 #
vertex $-1 -1 $-1 $269 $270 #
straight-curve $-1 -1 $-1 -3.8091382334282288e-031 101.59999999999999 52.832000000000001 0 0 1 I I #
coedge $-1 -1 $-1 $184 $184 $125 $185 reversed $122 $-1 #
edge $-1 -1 $-1 $271 0 $271 6.2831853071795862 $125 $272 forward @7 unknown #
vertex $-1 -1 $-1 $126 $273 #
ellipse-curve $-1 -1 $-1 0 0 -53.974999999999987 0 0 1 -47.625 0 0 1 I I #
coedge $-1 -1 $-1 $188 $188 $130 $189 reversed $127 $-1 #
edge $-1 -1 $-1 $274 0 $274 6.2831853071795862 $130 $275 forward @7 unknown #
vertex $-1 -1 $-1 $131 $276 #
ellipse-curve $-1 -1 $-1 0 -88.899999999999991 -30.353000000000002 0 0 -1 4.8259999999999996 0 0 1 I I #
face $-1 -1 $-1 $277 $278 $33 $-1 $279 reversed single #
loop $-1 -1 $-1 $-1 $280 $132 #
plane-surface $-1 -1 $-1 -101.59999999999999 0 0 1 0 0 0 0 -1 forward_v I I I I #
coedge $-1 -1 $-1 $281 $203 $282 $283 forward $133 $-1 #
coedge $-1 -1 $-1 $284 $135 $281 $285 forward $90 $-1 #
coedge $-1 -1 $-1 $135 $284 $286 $287 forward $90 $-1 #
coedge $-1 -1 $-1 $206 $205 $135 $199 reversed $207 $-1 #
edge $-1 -1 $-1 $288 -101.59999999999999 $289 101.59999999999999 $198 $290 forward @7 unknown #
coedge $-1 -1 $-1 $137 $136 $291 $292 forward $61 $-1 #
coedge $-1 -1 $-1 $293 $294 $136 $202 reversed $278 $-1 #
edge $-1 -1 $-1 $209 -101.59999999999999 $295 101.59999999999999 $201 $296 forward @7 unknown #
coedge $-1 -1 $-1 $195 $297 $137 $204 reversed $133 $-1 #
edge $-1 -1 $-1 $298 -101.59999999999999 $208 101.59999999999999 $203 $299 forward @7 unknown #
coedge $-1 -1 $-1 $198 $138 $297 $300 forward $207 $-1 #
coedge $-1 -1 $-1 $138 $198 $293 $301 reversed $207 $-1 #
loop $-1 -1 $-1 $-1 $205 $277 #
vertex $-1 -1 $-1 $139 $302 #
vertex $-1 -1 $-1 $139 $303 #
straight-curve $-1 -1 $-1 101.59999999999999 0 52.832000000000001 0 1 0 I I #
coedge $-1 -1 $-1 $211 $211 $143 $212 reversed $140 $-1 #
edge $-1 -1 $-1 $304 0 $304 6.2831853071795862 $143 $305 forward @7 unknown #
vertex $-1 -1 $-1 $144 $306 #
ellipse-curve $-1 -1 $-1 88.899999999999991 0 -30.353000000000002 0 0 -1 4.8259999999999987 0 0 1 I I #
model_id-kcp-attrib $-1 -1 $-1 $-1 $146 1 1021400382 1021400382 1975844865 7 #
face $307 -1 $-1 $308 $309 $10 $-1 $310 reversed single #
loop $-1 -1 $-1 $311 $312 $146 #
plane-surface $-1 -1 $-1 0 0 51.689 0 0 1 25.399999999999999 0 0 forward_v I I I I #
coedge $-1 -1 $-1 $313 $223 $225 $314 forward $147 $-1 #
coedge $-1 -1 $-1 $225 $149 $312 $315 reversed $100 $-1 #
coedge $-1 -1 $-1 $223 $313 $149 $222 reversed $147 $-1 #
edge $-1 -1 $-1 $227 0 $316 0.83999999999999997 $221 $317 forward @7 unknown #
coedge $-1 -1 $-1 $219 $221 $151 $224 forward $147 $-1 #
edge $-1 -1 $-1 $227 0 $226 3.1415926535897931 $151 $318 forward @7 unknown #
coedge $-1 -1 $-1 $152 $220 $219 $314 reversed $100 $-1 #
vertex $-1 -1 $-1 $224 $319 #
vertex $-1 -1 $-1 $224 $320 #
ellipse-curve $-1 -1 $-1 0 0 30.353000000000002 0 0 1 -76.199999999999989 0 0 1 I I #
ellipse-curve $-1 -1 $-1 1.4099832412739487e-015 2.8199664825478975e-015 30.353000000000002 0 0 1 -50.799999999999997 -2.8199664825478975e-015 0 1 I I #
ellipse-curve $-1 -1 $-1 0 0 -30.353000000000002 0 0 1 -50.799999999999997 0 0 1 I I #
point $-1 -1 $-1 50.799999999999997 0 -30.353000000000002 #
point $-1 -1 $-1 50.799999999999997 0 30.353000000000002 #
loop $-1 -1 $-1 $321 $322 $234 #
face $323 -1 $-1 $324 $325 $10 $-1 $326 reversed single #
face $-1 -1 $-1 $327 $266 $28 $-1 $328 reversed single #
loop $-1 -1 $-1 $-1 $329 $165 #
plane-surface $-1 -1 $-1 101.59999999999999 0 0 -1 0 0 0 0 1 forward_v I I I I #
coedge $-1 -1 $-1 $330 $331 $332 $333 reversed $166 $-1 #
coedge $-1 -1 $-1 $334 $167 $331 $335 forward $116 $-1 #
coedge $-1 -1 $-1 $167 $334 $336 $251 reversed $116 $-1 #
coedge $-1 -1 $-1 $337 $338 $167 $242 forward $339 $-1 #
edge $-1 -1 $-1 $340 -1.5707963267948966 $255 0 $241 $256 forward @7 unknown #
coedge $-1 -1 $-1 $169 $168 $341 $342 reversed $76 $-1 #
coedge $-1 -1 $-1 $343 $344 $345 $245 forward $346 $-1 #
edge $-1 -1 $-1 $347 -105.664 $249 0 $244 $348 forward @7 unknown #
coedge $-1 -1 $-1 $247 $170 $265 $269 forward $248 $-1 #
coedge $-1 -1 $-1 $170 $246 $343 $349 forward $248 $-1 #
loop $-1 -1 $-1 $-1 $170 $350 #
vertex $-1 -1 $-1 $351 $352 #
ellipse-curve $-1 -1 $-1 -3.8091382334282288e-031 0 52.832000000000001 0 0 -1 101.59999999999999 0 0 1 I I #
edge $-1 -1 $-1 $255 -105.664 $260 0 $336 $353 forward @7 unknown #
coedge $-1 -1 $-1 $253 $173 $178 $263 forward $254 $-1 #
coedge $-1 -1 $-1 $173 $252 $354 $355 forward $254 $-1 #
loop $-1 -1 $-1 $-1 $173 $356 #
vertex $-1 -1 $-1 $357 $358 #
ellipse-curve $-1 -1 $-1 -3.8091382334282288e-031 0 -52.832000000000001 0 0 1 101.59999999999999 0 0 1 I I #
coedge $-1 -1 $-1 $258 $175 $359 $360 forward $259 $-1 #
coedge $-1 -1 $-1 $175 $257 $177 $262 forward $259 $-1 #
loop $-1 -1 $-1 $-1 $175 $361 #
vertex $-1 -1 $-1 $360 $362 #
coedge $-1 -1 $-1 $178 $177 $363 $364 forward $180 $-1 #
edge $-1 -1 $-1 $365 -101.59999999999999 $182 3.8091382334282288e-031 $177 $366 forward @7 unknown #
edge $-1 -1 $-1 $181 -3.8091382334282288e-031 $367 101.59999999999999 $178 $368 forward @7 unknown #
coedge $-1 -1 $-1 $369 $179 $370 $371 reversed $266 $-1 #
coedge $-1 -1 $-1 $179 $369 $246 $269 reversed $266 $-1 #
loop $-1 -1 $-1 $-1 $179 $235 #
face $-1 -1 $-1 $372 $180 $28 $-1 $328 reversed single #
point $-1 -1 $-1 -3.8091382334282288e-031 101.59999999999999 -52.832000000000001 #
edge $-1 -1 $-1 $182 3.8091382334282288e-031 $373 101.59999999999999 $265 $366 forward @7 unknown #
point $-1 -1 $-1 -3.8091382334282288e-031 101.59999999999999 52.832000000000001 #
vertex $-1 -1 $-1 $185 $374 #
ellipse-curve $-1 -1 $-1 0 0 51.689 0 0 -1 47.625 0 0 1 I I #
point $-1 -1 $-1 -47.625 0 -53.974999999999987 #
vertex $-1 -1 $-1 $189 $375 #
ellipse-curve $-1 -1 $-1 0 -88.899999999999991 -53.974999999999994 0 0 1 -4.8259999999999996 0 0 1 I I #
point $-1 -1 $-1 4.8259999999999996 -88.899999999999991 -30.353000000000002 #
face $-1 -1 $-1 $-1 $207 $33 $-1 $376 reversed single #
loop $-1 -1 $-1 $-1 $293 $192 #
plane-surface $-1 -1 $-1 0 101.59999999999999 0 0 -1 0 0 0 -1 forward_v I I I I #
coedge $-1 -1 $-1 $377 $291 $294 $378 forward $193 $-1 #
coedge $-1 -1 $-1 $297 $195 $196 $285 reversed $133 $-1 #
coedge $-1 -1 $-1 $291 $377 $195 $283 reversed $193 $-1 #
edge $-1 -1 $-1 $298 -52.832000000000001 $379 52.832000000000001 $282 $380 forward @7 unknown #
coedge $-1 -1 $-1 $197 $196 $377 $381 forward $90 $-1 #
edge $-1 -1 $-1 $289 -101.59999999999999 $379 101.59999999999999 $281 $382 forward @7 unknown #
coedge $-1 -1 $-1 $294 $293 $197 $287 reversed $278 $-1 #
edge $-1 -1 $-1 $383 -101.59999999999999 $288 101.59999999999999 $286 $384 forward @7 unknown #
vertex $-1 -1 $-1 $199 $385 #
vertex $-1 -1 $-1 $300 $386 #
straight-curve $-1 -1 $-1 101.59999999999999 0 -52.832000000000001 0 -1 0 I I #
coedge $-1 -1 $-1 $280 $282 $200 $292 reversed $193 $-1 #
edge $-1 -1 $-1 $295 -101.59999999999999 $298 101.59999999999999 $291 $387 forward @7 unknown #
coedge $-1 -1 $-1 $286 $201 $206 $301 forward $278 $-1 #
coedge $-1 -1 $-1 $201 $286 $280 $378 reversed $278 $-1 #
vertex $-1 -1 $-1 $202 $388 #
straight-curve $-1 -1 $-1 0 101.59999999999999 52.832000000000001 -1 0 0 I I #
coedge $-1 -1 $-1 $203 $281 $205 $300 reversed $133 $-1 #
vertex $-1 -1 $-1 $292 $389 #
straight-curve $-1 -1 $-1 0 -101.59999999999999 52.832000000000001 1 0 0 I I #
edge $-1 -1 $-1 $208 -52.832000000000001 $289 52.832000000000001 $205 $390 forward @7 unknown #
edge $-1 -1 $-1 $209 -52.832000000000001 $288 52.832000000000001 $206 $391 forward @7 unknown #
point $-1 -1 $-1 101.59999999999999 -101.59999999999999 52.832000000000001 #
point $-1 -1 $-1 101.59999999999999 101.59999999999999 52.832000000000001 #
vertex $-1 -1 $-1 $212 $392 #
ellipse-curve $-1 -1 $-1 88.899999999999991 0 -53.974999999999994 0 0 1 -4.8259999999999987 0 0 1 I I #
point $-1 -1 $-1 93.725999999999999 0 -30.353000000000002 #
model_id-kcp-attrib $-1 -1 $-1 $-1 $216 1 1021400382 1021400382 1975844865 8 #
face $393 -1 $-1 $394 $395 $10 $-1 $396 reversed single #
loop $-1 -1 $-1 $-1 $397 $216 #
cone-surface $-1 -1 $-1 0 0 51.689 0 0 -1 -47.625 0 0 1 I I 0 1 47.625 forward I I I I #
loop $-1 -1 $-1 $-1 $398 $146 #
coedge $-1 -1 $-1 $399 $399 $220 $315 forward $217 $-1 #
coedge $-1 -1 $-1 $221 $219 $399 $400 reversed $147 $-1 #
edge $-1 -1 $-1 $226 0 $401 0.83999999999999997 $219 $402 forward @7 unknown #
edge $403 -1 $-1 $401 0 $316 3.1415926535897931 $312 $404 forward @7 unknown #
vertex $-1 -1 $-1 $400 $405 #
straight-curve $-1 -1 $-1 76.199999999999989 0 30.353000000000002 0 0 25.399999999999999 I I #
ellipse-curve $-1 -1 $-1 0 0 30.353000000000002 0 0 1 76.199999999999989 0 0 1 I I #
point $-1 -1 $-1 -76.199999999999989 0 30.353000000000002 #
point $-1 -1 $-1 76.199999999999989 0 30.353000000000002 #
loop $-1 -1 $-1 $-1 $406 $234 #
coedge $-1 -1 $-1 $407 $407 $408 $409 reversed $233 $-1 #
model_id-kcp-attrib $-1 -1 $-1 $-1 $234 1 1021400382 1021400382 1975844865 13 #
face $410 -1 $-1 $411 $412 $10 $-1 $413 reversed single #
loop $-1 -1 $-1 $161 $414 $234 #
plane-surface $-1 -1 $-1 0 0 -30.353000000000002 0 0 -1 25.399999999999999 0 0 forward_v I I I I #
face $-1 -1 $-1 $415 $416 $28 $-1 $417 reversed single #
plane-surface $-1 -1 $-1 0 101.59999999999999 0 0 -1 0 0 0 -1 forward_v I I I I #
coedge $-1 -1 $-1 $354 $359 $172 $251 reversed $236 $-1 #
coedge $-1 -1 $-1 $418 $238 $168 $245 forward $166 $-1 #
coedge $-1 -1 $-1 $238 $418 $419 $335 reversed $166 $-1 #
coedge $-1 -1 $-1 $420 $421 $238 $333 forward $422 $-1 #
edge $-1 -1 $-1 $347 -3.1415926535897931 $340 -1.5707963267948966 $332 $256 forward @7 unknown #
coedge $-1 -1 $-1 $240 $239 $423 $424 reversed $116 $-1 #
edge $-1 -1 $-1 $340 -105.664 $425 0 $419 $426 forward @7 unknown #
coedge $-1 -1 $-1 $427 $428 $329 $251 forward $429 $-1 #
coedge $-1 -1 $-1 $338 $241 $428 $357 forward $339 $-1 #
coedge $-1 -1 $-1 $241 $337 $430 $431 forward $339 $-1 #
loop $-1 -1 $-1 $-1 $241 $432 #
vertex $-1 -1 $-1 $433 $434 #
coedge $-1 -1 $-1 $435 $370 $243 $342 forward $436 $-1 #
edge $-1 -1 $-1 $181 1.5707963267948966 $347 3.1415926535897931 $341 $256 forward @7 unknown #
coedge $-1 -1 $-1 $437 $244 $247 $349 reversed $346 $-1 #
coedge $-1 -1 $-1 $244 $437 $435 $438 reversed $346 $-1 #
coedge $-1 -1 $-1 $439 $440 $330 $245 reversed $416 $-1 #
loop $-1 -1 $-1 $-1 $244 $441 #
vertex $-1 -1 $-1 $438 $442 #
straight-curve $-1 -1 $-1 -101.59999999999999 0 52.832000000000001 0 0 1 I I #
edge $-1 -1 $-1 $373 -101.59999999999999 $249 0 $343 $443 forward @7 unknown #
face $-1 -1 $-1 $361 $248 $28 $-1 $444 forward single #
edge $-1 -1 $-1 $249 0 $445 101.59999999999999 $440 $443 forward @7 unknown #
point $-1 -1 $-1 -101.59999999999999 0 52.832000000000001 #
straight-curve $-1 -1 $-1 101.59999999999999 0 52.832000000000001 0 0 1 I I #
coedge $-1 -1 $-1 $363 $329 $253 $355 reversed $236 $-1 #
edge $-1 -1 $-1 $367 -101.59999999999999 $255 0 $354 $446 forward @7 unknown #
face $-1 -1 $-1 $447 $254 $28 $-1 $448 reversed single #
edge $-1 -1 $-1 $255 0 $449 101.59999999999999 $428 $446 forward @7 unknown #
point $-1 -1 $-1 101.59999999999999 0 -52.832000000000001 #
coedge $-1 -1 $-1 $329 $363 $257 $360 reversed $236 $-1 #
edge $-1 -1 $-1 $260 0 $365 101.59999999999999 $359 $450 forward @7 unknown #
face $-1 -1 $-1 $451 $259 $28 $-1 $444 forward single #
point $-1 -1 $-1 101.59999999999999 0 52.832000000000001 #
coedge $-1 -1 $-1 $359 $354 $261 $364 reversed $236 $-1 #
edge $-1 -1 $-1 $365 -52.832000000000001 $367 52.832000000000001 $363 $452 forward @7 unknown #
vertex $-1 -1 $-1 $360 $453 #
straight-curve $-1 -1 $-1 0 101.59999999999999 52.832000000000001 -1 0 0 I I #
vertex $-1 -1 $-1 $355 $454 #
straight-curve $-1 -1 $-1 0 101.59999999999999 -52.832000000000001 1 0 0 I I #
coedge $-1 -1 $-1 $265 $264 $437 $455 reversed $266 $-1 #
coedge $-1 -1 $-1 $341 $435 $264 $371 forward $436 $-1 #
edge $-1 -1 $-1 $456 -101.59999999999999 $181 -3.8091382334282288e-031 $264 $368 forward @7 unknown #
face $-1 -1 $-1 $-1 $429 $28 $-1 $237 reversed single #
vertex $-1 -1 $-1 $269 $457 #
point $-1 -1 $-1 47.625 0 51.689 #
point $-1 -1 $-1 -4.8259999999999996 -88.899999999999991 -53.974999999999994 #
plane-surface $-1 -1 $-1 101.59999999999999 0 0 -1 0 0 0 0 1 forward_v I I I I #
coedge $-1 -1 $-1 $282 $280 $284 $381 reversed $193 $-1 #
edge $-1 -1 $-1 $295 -52.832000000000001 $383 52.832000000000001 $294 $458 forward @7 unknown #
vertex $-1 -1 $-1 $381 $459 #
straight-curve $-1 -1 $-1 -101.59999999999999 -101.59999999999999 0 0 0 -1 I I #
edge $-1 -1 $-1 $379 -101.59999999999999 $383 101.59999999999999 $377 $460 forward @7 unknown #
straight-curve $-1 -1 $-1 0 -101.59999999999999 -52.832000000000001 -1 0 0 I I #
vertex $-1 -1 $-1 $287 $461 #
straight-curve $-1 -1 $-1 0 101.59999999999999 -52.832000000000001 1 0 0 I I #
point $-1 -1 $-1 101.59999999999999 101.59999999999999 -52.832000000000001 #
point $-1 -1 $-1 101.59999999999999 -101.59999999999999 -52.832000000000001 #
straight-curve $-1 -1 $-1 -101.59999999999999 0 52.832000000000001 0 -1 0 I I #
point $-1 -1 $-1 -101.59999999999999 101.59999999999999 52.832000000000001 #
point $-1 -1 $-1 -101.59999999999999 -101.59999999999999 52.832000000000001 #
straight-curve $-1 -1 $-1 101.59999999999999 -101.59999999999999 0 0 0 -1 I I #
straight-curve $-1 -1 $-1 101.59999999999999 101.59999999999999 0 0 0 -1 I I #
point $-1 -1 $-1 84.073999999999998 0 -53.974999999999994 #
model_id-kcp-attrib $-1 -1 $-1 $-1 $308 1 1021400382 1021400382 1975844865 9 #
face $462 -1 $-1 $463 $464 $10 $-1 $465 forward single #
loop $-1 -1 $-1 $-1 $466 $308 #
cone-surface $-1 -1 $-1 0 0 51.689 0 0 -1 -47.625 0 0 1 I I 0 1 47.625 forward I I I I #
coedge $-1 -1 $-1 $467 $468 $469 $470 forward $309 $-1 #
coedge $-1 -1 $-1 $471 $471 $468 $472 forward $311 $-1 #
coedge $-1 -1 $-1 $312 $312 $313 $400 forward $217 $-1 #
edge $473 -1 $-1 $316 0 $401 3.1415926535897931 $399 $474 forward @7 unknown #
vertex $-1 -1 $-1 $400 $475 #
straight-curve $-1 -1 $-1 -76.199999999999989 9.3315004161265141e-015 30.353000000000002 0 0 25.399999999999999 I I #
attrib_edge_convexity-kcp-attrib $-1 -1 $476 $-1 $315 1 #
ellipse-curve $-1 -1 $-1 -2.8199664825478975e-015 1.127986593019159e-014 51.689 0 0 1 -76.199999999999989 -1.127986593019159e-014 0 1 I I #
point $-1 -1 $-1 76.199999999999989 0 51.689 #
coedge $-1 -1 $-1 $477 $477 $478 $479 reversed $321 $-1 #
coedge $-1 -1 $-1 $322 $322 $480 $481 reversed $233 $-1 #
coedge $-1 -1 $-1 $482 $483 $322 $409 forward $412 $-1 #
edge $-1 -1 $-1 $484 0 $485 3.1415926535897931 $322 $486 forward @7 unknown #
model_id-kcp-attrib $-1 -1 $-1 $-1 $324 1 1021400382 1021400382 1975844865 14 #
face $487 -1 $-1 $488 $489 $10 $-1 $490 reversed single #
loop $-1 -1 $-1 $-1 $482 $324 #
cone-surface $-1 -1 $-1 0 -88.899999999999991 -53.974999999999994 0 0 1 4.8259999999999996 0 0 1 I I 0 1 4.8259999999999996 forward I I I I #
coedge $-1 -1 $-1 $491 $491 $492 $493 reversed $325 $-1 #
face $-1 -1 $-1 $350 $494 $28 $-1 $444 forward single #
loop $-1 -1 $-1 $-1 $345 $327 #
plane-surface $-1 -1 $-1 -101.59999999999999 0 0 1 0 0 0 0 -1 forward_v I I I I #
coedge $-1 -1 $-1 $331 $330 $495 $496 reversed $166 $-1 #
coedge $-1 -1 $-1 $497 $498 $499 $335 forward $500 $-1 #
coedge $-1 -1 $-1 $421 $332 $498 $433 forward $422 $-1 #
coedge $-1 -1 $-1 $332 $420 $439 $501 forward $422 $-1 #
loop $-1 -1 $-1 $-1 $332 $502 #
coedge $-1 -1 $-1 $503 $504 $334 $424 forward $505 $-1 #
edge $-1 -1 $-1 $260 0 $425 1.5707963267948966 $423 $250 forward @7 unknown #
vertex $-1 -1 $-1 $506 $507 #
straight-curve $-1 -1 $-1 -3.8091382334282288e-031 -101.59999999999999 52.832000000000001 0 0 1 I I #
coedge $-1 -1 $-1 $508 $336 $504 $509 reversed $429 $-1 #
coedge $-1 -1 $-1 $336 $508 $337 $357 reversed $429 $-1 #
loop $-1 -1 $-1 $-1 $336 $372 #
coedge $-1 -1 $-1 $510 $499 $338 $431 reversed $511 $-1 #
edge $-1 -1 $-1 $449 -101.59999999999999 $340 3.8091382334282288e-031 $430 $512 forward @7 unknown #
face $-1 -1 $-1 $356 $339 $28 $-1 $448 reversed single #
edge $-1 -1 $-1 $340 3.8091382334282288e-031 $513 101.59999999999999 $498 $512 forward @7 unknown #
point $-1 -1 $-1 -3.8091382334282288e-031 -101.59999999999999 -52.832000000000001 #
coedge $-1 -1 $-1 $370 $341 $344 $438 forward $436 $-1 #
loop $-1 -1 $-1 $-1 $341 $447 #
coedge $-1 -1 $-1 $344 $343 $369 $455 forward $346 $-1 #
edge $-1 -1 $-1 $347 0 $456 101.59999999999999 $344 $514 forward @7 unknown #
coedge $-1 -1 $-1 $515 $345 $421 $501 reversed $416 $-1 #
coedge $-1 -1 $-1 $345 $515 $516 $351 reversed $416 $-1 #
face $-1 -1 $-1 $267 $346 $28 $-1 $417 reversed single #
point $-1 -1 $-1 -101.59999999999999 0 -52.832000000000001 #
straight-curve $-1 -1 $-1 -101.59999999999999 0 52.832000000000001 0 -1 0 I I #
plane-surface $-1 -1 $-1 0 0 52.832000000000001 0 0 1 1 0 0 forward_v I I I I #
vertex $-1 -1 $-1 $351 $517 #
straight-curve $-1 -1 $-1 101.59999999999999 0 -52.832000000000001 0 -1 0 I I #
face $-1 -1 $-1 $518 $436 $28 $-1 $448 reversed single #
plane-surface $-1 -1 $-1 0 0 -52.832000000000001 0 0 1 1 0 0 forward_v I I I I #
vertex $-1 -1 $-1 $519 $520 #
straight-curve $-1 -1 $-1 101.59999999999999 0 52.832000000000001 0 1 0 I I #
face $-1 -1 $-1 $521 $505 $28 $-1 $444 forward single #
straight-curve $-1 -1 $-1 101.59999999999999 101.59999999999999 0 0 0 -1 I I #
point $-1 -1 $-1 101.59999999999999 101.59999999999999 52.832000000000001 #
point $-1 -1 $-1 101.59999999999999 101.59999999999999 -52.832000000000001 #
edge $-1 -1 $-1 $373 -52.832000000000001 $456 52.832000000000001 $369 $522 forward @7 unknown #
vertex $-1 -1 $-1 $371 $523 #
point $-1 -1 $-1 -101.59999999999999 101.59999999999999 52.832000000000001 #
straight-curve $-1 -1 $-1 -101.59999999999999 101.59999999999999 0 0 0 -1 I I #
point $-1 -1 $-1 -101.59999999999999 -101.59999999999999 -52.832000000000001 #
straight-curve $-1 -1 $-1 -101.59999999999999 0 -52.832000000000001 0 1 0 I I #
point $-1 -1 $-1 -101.59999999999999 101.59999999999999 -52.832000000000001 #
model_id-kcp-attrib $-1 -1 $-1 $-1 $394 1 1021400382 1021400382 1975844865 10 #
face $524 -1 $-1 $525 $526 $10 $-1 $527 forward single #
loop $-1 -1 $-1 $528 $529 $394 #
plane-surface $-1 -1 $-1 0 0 -53.974999999999994 0 0 -1 25.399999999999999 0 0 forward_v I I I I #
coedge $-1 -1 $-1 $530 $531 $532 $533 forward $395 $-1 #
coedge $-1 -1 $-1 $532 $397 $534 $535 forward $309 $-1 #
coedge $-1 -1 $-1 $397 $532 $398 $472 reversed $309 $-1 #
coedge $-1 -1 $-1 $531 $530 $397 $470 reversed $395 $-1 #
edge $-1 -1 $-1 $536 0 $537 4.1600000000000001 $469 $538 forward @7 unknown #
coedge $-1 -1 $-1 $398 $398 $531 $539 forward $311 $-1 #
edge $540 -1 $-1 $536 0 $541 3.1415926535897931 $398 $542 forward @7 unknown #
attrib_edge_convexity-kcp-attrib $-1 -1 $543 $-1 $400 1 #
ellipse-curve $-1 -1 $-1 5.6399329650957949e-015 -8.4598994476436916e-015 51.689 0 0 1 76.199999999999989 8.4598994476436916e-015 0 1 I I #
point $-1 -1 $-1 -76.199999999999989 0 51.689 #
convexity-sys-attrib $-1 -1 $-1 $403 $315 #
coedge $-1 -1 $-1 $406 $406 $544 $545 reversed $321 $-1 #
coedge $-1 -1 $-1 $546 $547 $406 $479 forward $548 $-1 #
edge $-1 -1 $-1 $549 8.1289984392217225e-031 $550 3.1415926535897918 $406 $551 forward @7 unknown #
coedge $-1 -1 $-1 $552 $553 $407 $481 forward $489 $-1 #
edge $-1 -1 $-1 $485 0 $484 3.1415926535897931 $407 $554 forward @7 unknown #
coedge $-1 -1 $-1 $555 $408 $553 $556 reversed $412 $-1 #
coedge $-1 -1 $-1 $408 $555 $552 $557 forward $412 $-1 #
vertex $-1 -1 $-1 $481 $558 #
vertex $-1 -1 $-1 $481 $559 #
ellipse-curve $-1 -1 $-1 3.5249581031848718e-016 -88.899999999999991 -30.353000000000002 0 0 1 -4.8259999999999996 0 0 1 I I #
model_id-kcp-attrib $-1 -1 $-1 $-1 $411 1 1021400382 1021400382 1975844865 15 #
face $560 -1 $-1 $561 $548 $10 $-1 $562 reversed single #
loop $-1 -1 $-1 $-1 $552 $411 #
cone-surface $-1 -1 $-1 0 -88.899999999999991 -53.974999999999994 0 0 1 4.8259999999999996 0 0 1 I I 0 1 4.8259999999999996 forward I I I I #
coedge $-1 -1 $-1 $414 $414 $563 $564 reversed $325 $-1 #
coedge $-1 -1 $-1 $565 $566 $414 $493 forward $526 $-1 #
edge $-1 -1 $-1 $567 0 $568 3.1415926535897931 $414 $569 forward @7 unknown #
loop $-1 -1 $-1 $-1 $495 $415 #
coedge $-1 -1 $-1 $516 $570 $418 $496 forward $494 $-1 #
edge $-1 -1 $-1 $425 1.5707963267948966 $249 3.1415926535897931 $495 $250 forward @7 unknown #
coedge $-1 -1 $-1 $571 $419 $570 $572 reversed $500 $-1 #
coedge $-1 -1 $-1 $419 $571 $420 $433 reversed $500 $-1 #
coedge $-1 -1 $-1 $430 $573 $239 $335 reversed $511 $-1 #
loop $-1 -1 $-1 $-1 $419 $518 #
edge $-1 -1 $-1 $513 -101.59999999999999 $347 0 $439 $514 forward @7 unknown #
face $-1 -1 $-1 $432 $422 $28 $-1 $448 reversed single #
coedge $-1 -1 $-1 $504 $423 $573 $506 forward $505 $-1 #
coedge $-1 -1 $-1 $423 $503 $427 $509 forward $505 $-1 #
loop $-1 -1 $-1 $-1 $423 $451 #
edge $-1 -1 $-1 $425 -3.8091382334282288e-031 $574 101.59999999999999 $573 $575 forward @7 unknown #
point $-1 -1 $-1 -3.8091382334282288e-031 -101.59999999999999 52.832000000000001 #
coedge $-1 -1 $-1 $428 $427 $510 $519 forward $429 $-1 #
edge $-1 -1 $-1 $574 -101.59999999999999 $260 0 $427 $450 forward @7 unknown #
coedge $-1 -1 $-1 $573 $430 $508 $519 reversed $511 $-1 #
loop $-1 -1 $-1 $-1 $499 $521 #
straight-curve $-1 -1 $-1 0 -101.59999999999999 -52.832000000000001 -1 0 0 I I #
vertex $-1 -1 $-1 $501 $576 #
straight-curve $-1 -1 $-1 -101.59999999999999 0 -52.832000000000001 0 1 0 I I #
coedge $-1 -1 $-1 $440 $439 $571 $577 reversed $416 $-1 #
coedge $-1 -1 $-1 $570 $495 $440 $351 forward $494 $-1 #
point $-1 -1 $-1 -101.59999999999999 -101.59999999999999 52.832000000000001 #
face $-1 -1 $-1 $441 $500 $28 $-1 $578 reversed single #
edge $-1 -1 $-1 $574 -52.832000000000001 $449 52.832000000000001 $508 $579 forward @7 unknown #
point $-1 -1 $-1 101.59999999999999 -101.59999999999999 -52.832000000000001 #
face $-1 -1 $-1 $502 $511 $28 $-1 $578 reversed single #
straight-curve $-1 -1 $-1 -101.59999999999999 101.59999999999999 0 0 0 -1 I I #
point $-1 -1 $-1 -101.59999999999999 101.59999999999999 -52.832000000000001 #
model_id-kcp-attrib $-1 -1 $-1 $-1 $463 1 1021400382 1021400382 1975844865 11 #
face $580 -1 $-1 $234 $581 $10 $-1 $582 forward single #
loop $-1 -1 $-1 $-1 $565 $463 #
cone-surface $-1 -1 $-1 0 0 -30.353000000000002 0 0 -1 101.59999999999999 0 0 1 I I 0 1 101.59999999999999 forward I I I I #
loop $-1 -1 $-1 $583 $534 $394 #
coedge $-1 -1 $-1 $584 $584 $585 $586 forward $464 $-1 #
coedge $-1 -1 $-1 $469 $466 $587 $588 forward $395 $-1 #
coedge $-1 -1 $-1 $466 $469 $471 $539 reversed $395 $-1 #
coedge $-1 -1 $-1 $468 $467 $466 $533 reversed $309 $-1 #
edge $-1 -1 $-1 $541 0 $589 4.1600000000000001 $466 $590 forward @7 unknown #
coedge $-1 -1 $-1 $587 $587 $467 $535 reversed $528 $-1 #
edge $-1 -1 $-1 $537 0 $589 3.1415926535897927 $534 $591 forward @7 unknown #
vertex $-1 -1 $-1 $539 $592 #
vertex $-1 -1 $-1 $588 $593 #
straight-curve $-1 -1 $-1 47.625 5.8321877600790717e-015 51.689 0 0 -25.399999999999999 I I #
edge $594 -1 $-1 $541 0 $536 3.1415926535897931 $471 $595 forward @7 unknown #
attrib_edge_convexity-kcp-attrib $-1 -1 $596 $-1 $472 1 #
vertex $-1 -1 $-1 $539 $597 #
ellipse-curve $-1 -1 $-1 0 0 51.689 0 0 -1 47.625 0 0 1 I I #
convexity-sys-attrib $-1 -1 $-1 $473 $400 #
coedge $-1 -1 $-1 $598 $599 $477 $545 forward $600 $-1 #
edge $-1 -1 $-1 $550 2.7096661464072327e-031 $549 3.1415926535897931 $477 $601 forward @7 unknown #
coedge $-1 -1 $-1 $602 $478 $599 $603 reversed $548 $-1 #
coedge $-1 -1 $-1 $478 $602 $598 $604 forward $548 $-1 #
loop $-1 -1 $-1 $-1 $546 $488 #
vertex $-1 -1 $-1 $545 $605 #
vertex $-1 -1 $-1 $545 $606 #
ellipse-curve $-1 -1 $-1 88.899999999999991 3.524958103184872e-015 -30.353000000000002 0 0 1 -4.8259999999999987 -3.524958103184872e-015 0 1 I I #
coedge $-1 -1 $-1 $607 $480 $483 $557 reversed $489 $-1 #
coedge $-1 -1 $-1 $480 $607 $482 $556 forward $489 $-1 #
ellipse-curve $-1 -1 $-1 -1.7624790515924359e-016 -88.899999999999991 -30.353000000000002 0 0 1 4.8259999999999996 0 0 1 I I #
coedge $-1 -1 $-1 $483 $482 $608 $609 reversed $412 $-1 #
edge $-1 -1 $-1 $610 0 $485 0.92999999999999972 $553 $611 forward @7 unknown #
edge $-1 -1 $-1 $612 0 $484 0.92999999999999972 $552 $613 forward @7 unknown #
point $-1 -1 $-1 -4.8259999999999996 -88.899999999999991 -30.353000000000002 #
point $-1 -1 $-1 4.8259999999999996 -88.899999999999991 -30.353000000000002 #
model_id-kcp-attrib $-1 -1 $-1 $-1 $488 1 1021400382 1021400382 1975844865 16 #
face $614 -1 $-1 $-1 $600 $10 $-1 $615 reversed single #
cone-surface $-1 -1 $-1 88.899999999999991 0 -53.974999999999994 0 0 1 4.8259999999999996 0 0 1 I I 0 1 4.8259999999999996 forward I I I I #
coedge $-1 -1 $-1 $616 $617 $491 $564 forward $581 $-1 #
edge $-1 -1 $-1 $568 0 $567 3.1415926535897931 $491 $618 forward @7 unknown #
coedge $-1 -1 $-1 $585 $492 $617 $619 forward $526 $-1 #
coedge $-1 -1 $-1 $492 $585 $616 $620 reversed $526 $-1 #
vertex $-1 -1 $-1 $564 $621 #
vertex $-1 -1 $-1 $564 $622 #
ellipse-curve $-1 -1 $-1 0 0 -30.353000000000002 0 0 -1 -101.59999999999999 0 0 1 I I #
coedge $-1 -1 $-1 $495 $516 $497 $572 forward $494 $-1 #
coedge $-1 -1 $-1 $498 $497 $515 $577 forward $500 $-1 #
edge $-1 -1 $-1 $445 -101.59999999999999 $425 -3.8091382334282288e-031 $497 $575 forward @7 unknown #
coedge $-1 -1 $-1 $499 $510 $503 $506 reversed $511 $-1 #
vertex $-1 -1 $-1 $509 $623 #
straight-curve $-1 -1 $-1 0 -101.59999999999999 52.832000000000001 1 0 0 I I #
point $-1 -1 $-1 -101.59999999999999 -101.59999999999999 -52.832000000000001 #
edge $-1 -1 $-1 $445 -52.832000000000001 $513 52.832000000000001 $515 $624 forward @7 unknown #
plane-surface $-1 -1 $-1 0 -101.59999999999999 0 0 1 0 0 0 1 forward_v I I I I #
straight-curve $-1 -1 $-1 101.59999999999999 -101.59999999999999 0 0 0 -1 I I #
model_id-kcp-attrib $-1 -1 $-1 $-1 $525 1 1021400382 1021400382 1975844865 12 #
loop $-1 -1 $-1 $-1 $616 $525 #
cone-surface $-1 -1 $-1 0 0 -30.353000000000002 0 0 -1 101.59999999999999 0 0 1 I I 0 1 101.59999999999999 forward I I I I #
loop $-1 -1 $-1 $625 $608 $394 #
coedge $-1 -1 $-1 $529 $529 $626 $627 forward $464 $-1 #
coedge $-1 -1 $-1 $566 $565 $529 $586 reversed $526 $-1 #
edge $-1 -1 $-1 $628 0 $629 3.1415926535897931 $529 $630 forward @7 unknown #
coedge $-1 -1 $-1 $534 $534 $530 $588 reversed $528 $-1 #
edge $-1 -1 $-1 $589 0 $537 3.1415926535897931 $587 $631 forward @7 unknown #
vertex $-1 -1 $-1 $588 $632 #
straight-curve $-1 -1 $-1 -47.625 0 51.689 0 0 -25.399999999999999 I I #
ellipse-curve $-1 -1 $-1 -1.4099832412739487e-015 1.127986593019159e-014 -53.974999999999994 0 0 -1 47.625 -1.127986593019159e-014 0 1 I I #
point $-1 -1 $-1 47.625 0 51.689 #
point $-1 -1 $-1 47.625 0 -53.974999999999994 #
attrib_edge_convexity-kcp-attrib $-1 -1 $633 $-1 $539 1 #
ellipse-curve $-1 -1 $-1 0 0 51.689 0 0 -1 -47.625 0 0 1 I I #
convexity-sys-attrib $-1 -1 $-1 $540 $472 #
point $-1 -1 $-1 -47.625 0 51.689 #
coedge $-1 -1 $-1 $634 $544 $547 $604 reversed $600 $-1 #
coedge $-1 -1 $-1 $544 $634 $546 $603 forward $600 $-1 #
loop $-1 -1 $-1 $-1 $598 $561 #
ellipse-curve $-1 -1 $-1 88.899999999999991 7.0499162063697436e-016 -30.353000000000002 0 0 1 4.8259999999999987 -7.0499162063697436e-016 0 1 I I #
coedge $-1 -1 $-1 $547 $546 $635 $636 reversed $548 $-1 #
edge $-1 -1 $-1 $637 0 $550 0.92999999999999972 $599 $638 forward @7 unknown #
edge $-1 -1 $-1 $639 0 $549 0.92999999999999972 $598 $640 forward @7 unknown #
point $-1 -1 $-1 84.073999999999998 0 -30.353000000000002 #
point $-1 -1 $-1 93.725999999999999 0 -30.353000000000002 #
coedge $-1 -1 $-1 $553 $552 $641 $642 reversed $489 $-1 #
coedge $-1 -1 $-1 $641 $641 $555 $609 forward $583 $-1 #
edge $-1 -1 $-1 $612 0 $610 3.1415926535897931 $608 $643 forward @7 unknown #
vertex $-1 -1 $-1 $642 $644 #
straight-curve $-1 -1 $-1 4.8259999999999996 -88.899999999999991 -53.974999999999994 0 0 25.399999999999999 I I #
vertex $-1 -1 $-1 $642 $645 #
straight-curve $-1 -1 $-1 -4.8259999999999996 -88.899999999999991 -53.974999999999994 0 0 25.399999999999999 I I #
model_id-kcp-attrib $-1 -1 $-1 $-1 $561 1 1021400382 1021400382 1975844865 17 #
cone-surface $-1 -1 $-1 88.899999999999991 0 -53.974999999999994 0 0 1 4.8259999999999996 0 0 1 I I 0 1 4.8259999999999996 forward I I I I #
coedge $-1 -1 $-1 $626 $563 $566 $620 forward $581 $-1 #
coedge $-1 -1 $-1 $563 $626 $565 $619 reversed $581 $-1 #
ellipse-curve $-1 -1 $-1 0 0 -30.353000000000002 0 0 -1 101.59999999999999 0 0 1 I I #
edge $-1 -1 $-1 $568 0 $629 0.92999999999999972 $617 $646 forward @7 unknown #
edge $-1 -1 $-1 $567 0 $628 0.92999999999999972 $616 $647 forward @7 unknown #
point $-1 -1 $-1 -101.59999999999999 0 -30.353000000000002 #
point $-1 -1 $-1 101.59999999999999 0 -30.353000000000002 #
point $-1 -1 $-1 101.59999999999999 -101.59999999999999 52.832000000000001 #
straight-curve $-1 -1 $-1 -101.59999999999999 -101.59999999999999 0 0 0 -1 I I #
loop $-1 -1 $-1 $-1 $635 $394 #
coedge $-1 -1 $-1 $617 $616 $584 $627 reversed $581 $-1 #
edge $-1 -1 $-1 $629 0 $628 3.1415926535897931 $584 $648 forward @7 unknown #
vertex $-1 -1 $-1 $627 $649 #
vertex $-1 -1 $-1 $627 $650 #
ellipse-curve $-1 -1 $-1 0 0 -53.974999999999994 0 0 -1 -101.59999999999999 0 0 1 I I #
ellipse-curve $-1 -1 $-1 0 2.8199664825478975e-015 -53.974999999999994 0 0 -1 -47.625 -2.8199664825478975e-015 0 1 I I #
point $-1 -1 $-1 -47.625 0 -53.974999999999994 #
convexity-sys-attrib $-1 -1 $-1 $594 $539 #
coedge $-1 -1 $-1 $599 $598 $651 $652 reversed $600 $-1 #
coedge $-1 -1 $-1 $651 $651 $602 $636 forward $625 $-1 #
edge $-1 -1 $-1 $639 0 $637 3.1415926535897931 $635 $653 forward @7 unknown #
vertex $-1 -1 $-1 $652 $654 #
straight-curve $-1 -1 $-1 93.725999999999999 0 -53.974999999999994 0 0 25.399999999999999 I I #
vertex $-1 -1 $-1 $652 $655 #
straight-curve $-1 -1 $-1 84.073999999999998 5.9099502635467923e-016 -53.974999999999994 0 0 25.399999999999999 I I #
coedge $-1 -1 $-1 $608 $608 $607 $642 forward $583 $-1 #
edge $-1 -1 $-1 $610 0 $612 3.1415926535897931 $641 $656 forward @7 unknown #
ellipse-curve $-1 -1 $-1 0 -88.899999999999991 -53.974999999999994 0 0 1 -4.8259999999999996 0 0 1 I I #
point $-1 -1 $-1 4.8259999999999996 -88.899999999999991 -53.974999999999994 #
point $-1 -1 $-1 -4.8259999999999996 -88.899999999999991 -53.974999999999994 #
straight-curve $-1 -1 $-1 101.59999999999999 0 -30.353000000000002 0 0 -25.399999999999999 I I #
straight-curve $-1 -1 $-1 -101.59999999999999 -1.2442000554835353e-014 -30.353000000000002 0 0 -25.399999999999999 I I #
ellipse-curve $-1 -1 $-1 0 0 -53.974999999999994 0 0 -1 101.59999999999999 0 0 1 I I #
point $-1 -1 $-1 -101.59999999999999 0 -53.974999999999994 #
point $-1 -1 $-1 101.59999999999999 0 -53.974999999999994 #
coedge $-1 -1 $-1 $635 $635 $634 $652 forward $625 $-1 #
edge $-1 -1 $-1 $637 0 $639 3.1415926535897931 $651 $657 forward @7 unknown #
ellipse-curve $-1 -1 $-1 88.899999999999991 0 -53.974999999999994 0 0 1 -4.8259999999999987 0 0 1 I I #
point $-1 -1 $-1 93.725999999999999 0 -53.974999999999994 #
point $-1 -1 $-1 84.073999999999998 0 -53.974999999999994 #
ellipse-curve $-1 -1 $-1 0 -88.899999999999991 -53.974999999999994 0 0 1 4.8259999999999996 0 0 1 I I #
ellipse-curve $-1 -1 $-1 88.899999999999991 0 -53.974999999999994 0 0 1 4.8259999999999987 0 0 1 I I #
End-of-ACIS-data 