105 119 1 0                             
body $-1 $1 $-1 $-1 #
lump $-1 $-1 $2 $0 #
shell $-1 $-1 $-1 $3 $1 #
face $-1 $4 $5 $2 $-1 $6 forward single #
face $-1 $7 $8 $2 $-1 $9 reversed single #
loop $-1 $10 $11 $3 #
cone-surface $-1 0 0 -1.195 0 0 1 2 0 0 1 0 1 0 #
face $-1 $12 $13 $2 $-1 $14 forward single #
loop $-1 $15 $16 $4 #
plane-surface $-1 0 0 1.195 0 0 1 1 0 0 0 #
loop $-1 $-1 $17 $3 #
coedge $-1 $11 $11 $18 $19 0 $5 $-1 #
face $-1 $20 $21 $2 $-1 $22 forward single #
loop $-1 $23 $24 $7 #
plane-surface $-1 0 0 2.035 0 0 1 1 0 0 0 #
loop $-1 $-1 $18 $4 #
coedge $-1 $16 $16 $25 $26 0 $8 $-1 #
coedge $-1 $17 $17 $27 $28 1 $10 $-1 #
coedge $-1 $18 $18 $11 $19 1 $15 $-1 #
edge $-1 $29 $29 $18 $30 0 #
face $-1 $31 $32 $2 $-1 $33 reversed single #
loop $-1 $34 $35 $12 #
cone-surface $-1 0 0 1.195 0 0 1 3 0 0 1 0 1 0 #
loop $-1 $-1 $36 $7 #
coedge $-1 $24 $24 $35 $37 1 $13 $-1 #
coedge $-1 $25 $25 $16 $26 1 $34 $-1 #
edge $-1 $38 $38 $25 $39 0 #
coedge $-1 $27 $27 $17 $28 0 $40 $-1 #
edge $-1 $41 $41 $27 $42 0 #
vertex $-1 $19 $43 #
ellipse-curve $-1 0 0 1.195 0 0 -1 -2 0 0 1 #
face $-1 $44 $45 $2 $-1 $46 forward single #
loop $-1 $40 $47 $20 #
plane-surface $-1 0 0 -1.195 0 0 -1 -1 0 0 0 #
loop $-1 $-1 $25 $12 #
coedge $-1 $35 $35 $24 $37 0 $21 $-1 #
coedge $-1 $36 $36 $48 $49 1 $23 $-1 #
edge $-1 $50 $50 $35 $51 0 #
vertex $-1 $26 $52 #
ellipse-curve $-1 0 0 1.195 0 0 -1 -3 0 0 1 #
loop $-1 $53 $27 $20 #
vertex $-1 $28 $54 #
ellipse-curve $-1 0 0 -1.195 0 0 -1 -2 0 0 1 #
point $-1 2 0 1.195 #
face $-1 $55 $56 $2 $-1 $57 forward single #
loop $-1 $58 $59 $31 #
plane-surface $-1 0 0 -2.125 0 0 -1 -1 0 0 0 #
coedge $-1 $47 $47 $60 $61 0 $32 $-1 #
coedge $-1 $48 $48 $36 $49 0 $62 $-1 #
edge $-1 $63 $63 $48 $64 0 #
vertex $-1 $37 $65 #
ellipse-curve $-1 0 0 2.035 0 0 -1 3 0 0 1 #
point $-1 3 0 1.195 #
loop $-1 $66 $67 $20 #
point $-1 2 0 -1.195 #
face $-1 $68 $69 $2 $-1 $70 reversed single #
loop $-1 $71 $72 $44 #
cone-surface $-1 0 0 -1.195 0 0 -1 4 0 0 1 0 1 0 #
loop $-1 $73 $74 $31 #
coedge $-1 $59 $59 $72 $75 1 $45 $-1 #
coedge $-1 $60 $60 $47 $61 1 $71 $-1 #
edge $-1 $76 $76 $60 $77 0 #
loop $-1 $-1 $48 $55 #
vertex $-1 $49 $78 #
ellipse-curve $-1 0 0 2.035 0 0 1 -1.875 0 0 1 #
point $-1 3 0 2.035 #
loop $-1 $-1 $79 $20 #
coedge $-1 $67 $67 $80 $81 0 $53 $-1 #
face $-1 $82 $83 $2 $-1 $84 reversed single #
loop $-1 $62 $85 $55 #
cone-surface $-1 0 0 2.035 0 0 -1 -1.875 0 0 1 0 1 0 #
loop $-1 $-1 $60 $44 #
coedge $-1 $72 $72 $59 $75 0 $56 $-1 #
loop $-1 $86 $87 $31 #
coedge $-1 $74 $74 $85 $88 0 $58 $-1 #
edge $-1 $89 $89 $72 $90 0 #
vertex $-1 $61 $91 #
ellipse-curve $-1 0 0 -1.195 0 0 1 -4 0 0 1 #
point $-1 -1.875 0 2.035 #
coedge $-1 $79 $79 $92 $93 0 $66 $-1 #
coedge $-1 $80 $80 $67 $81 1 $94 $-1 #
edge $-1 $95 $95 $80 $96 0 #
face $-1 $-1 $97 $2 $-1 $98 reversed single #
loop $-1 $94 $99 $68 #
cone-surface $-1 0 -3.5 -2.125 0 0 1 0.19 0 0 1 0 1 0 #
coedge $-1 $85 $85 $74 $88 1 $69 $-1 #
loop $-1 $-1 $100 $31 #
coedge $-1 $87 $87 $99 $101 1 $73 $-1 #
edge $-1 $102 $102 $85 $103 0 #
vertex $-1 $75 $104 #
ellipse-curve $-1 0 0 -2.125 0 0 1 4 0 0 1 #
point $-1 4 0 -1.195 #
coedge $-1 $92 $92 $79 $93 1 $105 $-1 #
edge $-1 $106 $106 $92 $107 0 #
loop $-1 $-1 $80 $68 #
vertex $-1 $81 $108 #
ellipse-curve $-1 0 -3.5 -1.195 0 0 -1 -0.19 0 0 1 #
loop $-1 $105 $109 $82 #
cone-surface $-1 3.5 0 -2.125 0 0 1 0.19 0 0 1 0 1 0 #
coedge $-1 $99 $99 $87 $101 0 $83 $-1 #
coedge $-1 $100 $100 $109 $110 1 $86 $-1 #
edge $-1 $111 $111 $99 $112 0 #
vertex $-1 $88 $113 #
ellipse-curve $-1 0 0 -2.125 0 0 1 1.875 0 0 1 #
point $-1 4 0 -2.125 #
loop $-1 $-1 $92 $82 #
vertex $-1 $93 $114 #
ellipse-curve $-1 3.5 0 -1.195 0 0 -1 -0.19 0 0 1 #
point $-1 0.19 -3.5 -1.195 #
coedge $-1 $109 $109 $100 $110 0 $97 $-1 #
edge $-1 $115 $115 $109 $116 0 #
vertex $-1 $101 $117 #
ellipse-curve $-1 0 -3.5 -2.125 0 0 -1 0.19 0 0 1 #
point $-1 -1.875 0 -2.125 #
point $-1 3.69 0 -1.195 #
vertex $-1 $110 $118 #
ellipse-curve $-1 3.5 0 -2.125 0 0 -1 0.19 0 0 1 #
point $-1 0.19 -3.5 -2.125 #
point $-1 3.69 0 -2.125 #
