600 0 1 0           
95 GICL ACIS Healer - Source: /gicl/data5/repository/UMD/tmp/funky_pocket3/funky_pocket3.sat - 6 0 18 ACIS 6.0.3 Solaris 24 Sun Apr 14 00:34:02 2002 
1 9.999999999999999547e-07 1.000000000000000036e-10 
body $-1 $1 $-1 $-1 #
lump $-1 $-1 $2 $0 #
shell $-1 $-1 $-1 $3 $-1 $1 #
face $-1 $4 $5 $2 $-1 $6 forward single #
face $-1 $7 $8 $2 $-1 $9 reversed single #
loop $-1 $-1 $10 $3 #
cone-surface $-1 12.13927053190311511 21.5582203248698363 -0.7917152290959954541 0.7430643952571670541 -0.07965044708822877073 -0.6644630243886759935 0.7004739415374134914 -6.779534325770157466 1.5960108342148418 1 I I 0 1 6.999999999999996447 forward I I I I #
face $-1 $11 $12 $2 $-1 $13 reversed single #
loop $-1 $-1 $14 $4 #
plane-surface $-1 6.396785669434139621 18.44578631444187877 -6.840402866513379365 0.397131261967103022 0.8516507396391459483 0.3420201433256689905 0.5386483688544100312 -0.5180220303720109998 0.6644630243886729959 forward_v I I I I #
coedge $-1 $15 $16 $17 $18 forward $5 $-1 #
face $-1 $19 $20 $2 $-1 $21 forward single #
loop $-1 $-1 $22 $7 #
plane-surface $-1 -52.53638466436883903 42.64734134516538688 59.80167219498083853 0.7430643952571670541 -0.07965044708822879849 -0.6644630243886759935 -0.5386483688544100312 0.5180220303720109998 -0.6644630243886729959 forward_v I I I I #
coedge $-1 $23 $24 $25 $26 reversed $8 $-1 #
coedge $-1 $25 $10 $22 $27 forward $5 $-1 #
coedge $-1 $10 $25 $28 $29 forward $5 $-1 #
coedge $-1 $30 $31 $10 $18 reversed $32 $-1 #
edge $-1 $33 -90.00000000000002842 $34 90 $17 $35 forward 7 unknown #
face $-1 $36 $37 $2 $-1 $38 reversed single #
loop $-1 $-1 $39 $11 #
cone-surface $-1 22.46468334304779546 43.70113955548763585 8.100808497371398076 -0.7430643952571670541 0.07965044708822877073 0.6644630243886759935 4.63187285855094899 1.651377859049143026 4.981837511286496323 1 I I 0 1 6.999999999999996447 forward I I I I #
coedge $-1 $40 $41 $15 $27 reversed $12 $-1 #
coedge $-1 $42 $14 $41 $43 forward $8 $-1 #
coedge $-1 $14 $42 $44 $45 reversed $8 $-1 #
coedge $-1 $16 $15 $14 $26 forward $5 $-1 #
edge $-1 $46 -90.00000000000001421 $47 90.00000000000001421 $14 $48 forward 7 unknown #
edge $-1 $34 -0.785398163397448057 $46 0.7853981633974488341 $22 $49 forward 7 unknown #
coedge $-1 $44 $50 $16 $29 reversed $51 $-1 #
edge $-1 $47 -0.7853981633974475018 $33 0.785398163397448057 $28 $52 forward 7 unknown #
coedge $-1 $53 $17 $50 $54 forward $32 $-1 #
coedge $-1 $17 $53 $40 $55 forward $32 $-1 #
loop $-1 $-1 $17 $56 #
vertex $-1 $18 $57 #
vertex $-1 $55 $58 #
straight-curve $-1 15.90980911388398589 17.93206611226576186 3.859525941624716516 -0.7430643952571670541 0.07965044708822879849 0.6644630243886759935 I I #
face $-1 $59 $60 $2 $-1 $61 forward single #
loop $-1 $-1 $62 $19 #
plane-surface $-1 22.28203614811825872 52.51181590000771848 6.840402866513379365 -0.397131261967103022 -0.8516507396391459483 -0.3420201433256689905 -0.5386483688544100312 0.5180220303720109998 -0.6644630243886729959 forward_v I I I I #
coedge $-1 $63 $64 $53 $65 forward $20 $-1 #
coedge $-1 $66 $22 $31 $55 reversed $12 $-1 #
coedge $-1 $22 $67 $23 $43 reversed $12 $-1 #
coedge $-1 $24 $23 $68 $69 reversed $8 $-1 #
edge $-1 $46 -5.500000000000002665 $70 5.499999999999999112 $41 $71 forward 7 unknown #
coedge $-1 $72 $28 $24 $45 forward $51 $-1 #
edge $-1 $47 -5.500000000000000888 $73 5.500000000000000888 $44 $74 forward 7 unknown #
vertex $-1 $27 $75 #
vertex $-1 $26 $76 #
straight-curve $-1 9.359351698133394848 15.596665147395818 -3.185856232375678054 0.7430643952571670541 -0.07965044708822879849 -0.6644630243886759935 I I #
ellipse-curve $-1 -54.73652504124191864 28.72676056281042989 59.00995696588484662 0.7430643952571670541 -0.07965044708822879849 -0.6644630243886759935 0.7004739415374134914 -6.779534325770157466 1.5960108342148418 1 I I #
coedge $-1 $28 $77 $30 $54 reversed $51 $-1 #
loop $-1 $-1 $28 $78 #
ellipse-curve $-1 79.01506610504816308 14.38968008692924627 -60.59338742407683753 -0.7430643952571670541 0.07965044708822879849 0.6644630243886759935 0.7004739415374134914 -6.779534325770157466 1.5960108342148418 1 I I #
coedge $-1 $31 $30 $39 $65 reversed $32 $-1 #
edge $-1 $33 -13.00000000000000355 $79 13.00000000000000178 $50 $80 forward 7 unknown #
edge $-1 $81 -13 $34 13 $40 $82 forward 7 unknown #
face $-1 $83 $32 $2 $-1 $84 forward single #
point $-1 82.78560468702903563 10.76352587432516827 -55.94214625335612823 #
point $-1 -50.96598645926104609 25.10060635020635189 63.66119813660555593 #
face $-1 $56 $85 $2 $-1 $86 forward single #
loop $-1 $-1 $87 $36 #
cone-surface $-1 16.53955128564928501 49.3993818895797574 0.7917152290959954541 0.7430643952571670541 -0.07965044708822877073 -0.6644630243886759935 -0.7004739415374134914 6.779534325770157466 -1.5960108342148418 1 I I 0 1 6.999999999999996447 forward I I I I #
coedge $-1 $88 $89 $90 $91 reversed $37 $-1 #
coedge $-1 $90 $39 $77 $92 forward $20 $-1 #
coedge $-1 $39 $90 $66 $93 forward $20 $-1 #
edge $-1 $81 -90.00000000000001421 $79 90.00000000000001421 $53 $94 forward 7 unknown #
coedge $-1 $95 $40 $64 $93 reversed $12 $-1 #
coedge $-1 $41 $96 $97 $98 reversed $12 $-1 #
coedge $-1 $97 $99 $42 $69 forward $85 $-1 #
edge $-1 $73 -90.00000000000001421 $70 90.00000000000001421 $42 $100 forward 7 unknown #
vertex $-1 $43 $101 #
straight-curve $-1 -60.47900990371090302 25.61432655238247236 52.96126932846745916 -0.5386483688544100312 0.5180220303720109998 -0.6644630243886729959 I I #
coedge $-1 $102 $44 $99 $103 reversed $51 $-1 #
vertex $-1 $45 $104 #
straight-curve $-1 73.27258124257917871 11.27724607650128519 -66.64207506149421079 -0.5386483688544100312 0.5180220303720109998 -0.6644630243886729959 I I #
point $-1 -57.51644387501164601 22.76520538533640803 56.61581596260516136 #
point $-1 76.23514727127843571 8.428124909455224412 -62.98752842735650859 #
coedge $-1 $50 $105 $63 $92 reversed $51 $-1 #
face $-1 $-1 $51 $2 $-1 $106 reversed single #
vertex $-1 $54 $107 #
straight-curve $-1 87.94831109260137225 21.83498548963406805 -51.49588439012242702 0.397131261967103022 0.8516507396391459483 0.3420201433256689905 I I #
vertex $-1 $93 $108 #
straight-curve $-1 -45.80328005368871658 36.17206596551525166 68.10745999983925003 -0.397131261967103022 -0.8516507396391459483 -0.3420201433256689905 I I #
face $-1 $78 $109 $2 $-1 $110 reversed single #
plane-surface $-1 21.07251551945632428 29.00352572757465808 8.305787804858413281 0.5386483688544100312 -0.5180220303720109998 0.6644630243886729959 0.7430643952571670541 -0.07965044708822879849 -0.6644630243886759935 forward_v I I I I #
loop $-1 $-1 $111 $59 #
cone-surface $-1 6.214138474504606435 27.25646265896195786 -8.100808497371398076 -0.7430643952571670541 0.07965044708822877073 0.6644630243886759935 -4.63187285855094899 -1.651377859049143026 -4.981837511286496323 1 I I 0 1 6.999999999999996447 forward I I I I #
coedge $-1 $112 $113 $114 $115 forward $60 $-1 #
coedge $-1 $116 $62 $105 $117 forward $37 $-1 #
coedge $-1 $62 $116 $95 $118 reversed $37 $-1 #
coedge $-1 $64 $63 $62 $91 forward $20 $-1 #
edge $-1 $119 -90.00000000000001421 $120 90.00000000000001421 $62 $121 forward 7 unknown #
edge $-1 $79 -0.7853981633974486121 $119 0.7853981633974478349 $77 $122 forward 7 unknown #
edge $-1 $120 -0.7853981633974489451 $81 0.7853981633974489451 $66 $123 forward 7 unknown #
straight-curve $-1 26.23522192502866446 40.07498534288355785 12.75204966809210916 0.7430643952571670541 -0.07965044708822879849 -0.6644630243886759935 I I #
coedge $-1 $124 $66 $89 $118 forward $12 $-1 #
coedge $-1 $67 $124 $125 $126 reversed $12 $-1 #
coedge $-1 $111 $68 $67 $98 forward $85 $-1 #
edge $-1 $70 -0.7853981633974478349 $127 0.7853981633974486121 $67 $128 forward 7 unknown #
coedge $-1 $68 $111 $72 $103 forward $85 $-1 #
straight-curve $-1 3.434219640734884393 21.29490748148793955 -10.49494950065108156 -0.7430643952571670541 0.07965044708822879849 0.6644630243886759935 I I #
point $-1 -63.44157593241016002 28.46344771942852958 49.30672269432975696 #
coedge $-1 $129 $72 $130 $131 reversed $51 $-1 #
edge $-1 $132 -0.7853981633974486121 $73 0.7853981633974492782 $72 $133 forward 7 unknown #
point $-1 70.3100152138799217 14.12636724354734596 -70.29662169563191298 #
coedge $-1 $77 $129 $88 $117 reversed $51 $-1 #
plane-surface $-1 81.2152064819212427 28.31026086928420682 -59.80167219498083853 -0.7430643952571670541 0.07965044708822879849 0.6644630243886759935 0.5386483688544100312 -0.5180220303720109998 0.6644630243886729959 forward_v I I I I #
point $-1 93.11101749817370887 32.90644510494296782 -47.04962252688873292 #
point $-1 -40.64057364811637996 47.24352558082414788 72.55372186307295124 #
loop $-1 $-1 $114 $83 #
plane-surface $-1 7.606306298096074947 41.95407648687493207 -8.305787804858413281 0.5386483688544100312 -0.5180220303720109998 0.6644630243886729959 0.7430643952571670541 -0.07965044708822879849 -0.6644630243886759935 forward_v I I I I #
coedge $-1 $99 $97 $134 $135 forward $85 $-1 #
coedge $-1 $136 $87 $124 $137 forward $60 $-1 #
coedge $-1 $87 $136 $129 $138 forward $60 $-1 #
coedge $-1 $130 $125 $87 $115 reversed $109 $-1 #
edge $-1 $139 -90.00000000000001421 $140 90.00000000000001421 $114 $141 forward 7 unknown #
coedge $-1 $89 $88 $136 $142 reversed $37 $-1 #
edge $-1 $119 -5.499999999999999112 $143 5.500000000000002665 $105 $144 forward 7 unknown #
edge $-1 $120 -5.500000000000002665 $145 5.500000000000002665 $89 $146 forward 7 unknown #
vertex $-1 $91 $147 #
vertex $-1 $91 $148 #
straight-curve $-1 25.24460217681751573 49.66269473296165415 10.49494950065108156 -0.7430643952571670541 0.07965044708822879849 0.6644630243886759935 I I #
ellipse-curve $-1 89.34047891619283632 36.53259931754704581 -51.70086369760944223 -0.7430643952571670541 0.07965044708822879849 0.6644630243886759935 4.63187285855094899 1.651377859049143026 4.981837511286496323 1 I I #
ellipse-curve $-1 -44.4111122300972454 50.86967979342822588 67.90248069235224193 0.7430643952571670541 -0.07965044708822879849 -0.6644630243886759935 4.63187285855094899 1.651377859049143026 4.981837511286496323 1 I I #
coedge $-1 $96 $95 $112 $137 reversed $12 $-1 #
coedge $-1 $114 $134 $96 $126 forward $109 $-1 #
edge $-1 $127 -13.00000000000000533 $140 13 $96 $149 forward 7 unknown #
vertex $-1 $98 $150 #
ellipse-curve $-1 -60.66165709864043265 34.42500289690254789 51.70086369760944223 0.7430643952571670541 -0.07965044708822879849 -0.6644630243886759935 -4.63187285855094899 -1.651377859049143026 -4.981837511286496323 1 I I #
coedge $-1 $105 $102 $113 $138 reversed $51 $-1 #
coedge $-1 $134 $114 $102 $131 forward $109 $-1 #
edge $-1 $139 -13.00000000000000533 $132 13 $102 $151 forward 7 unknown #
vertex $-1 $131 $152 #
ellipse-curve $-1 73.08993404764964907 20.08792242102136782 -67.90248069235224193 -0.7430643952571670541 0.07965044708822879849 0.6644630243886759935 -4.63187285855094899 -1.651377859049143026 -4.981837511286496323 1 I I #
coedge $-1 $125 $130 $111 $135 reversed $109 $-1 #
edge $-1 $127 -90.00000000000001421 $132 90.00000000000001421 $134 $153 forward 7 unknown #
coedge $-1 $113 $112 $116 $142 forward $60 $-1 #
edge $-1 $140 -0.785398163397448057 $145 0.7853981633974471688 $124 $154 forward 7 unknown #
edge $-1 $143 -0.7853981633974490562 $139 0.785398163397448057 $129 $155 forward 7 unknown #
vertex $-1 $115 $156 #
vertex $-1 $126 $157 #
straight-curve $-1 12.76901270366841423 53.0255361021838354 -3.859525941624716516 -0.7430643952571670541 0.07965044708822879849 0.6644630243886759935 I I #
edge $-1 $145 -90.00000000000001421 $143 90.00000000000001421 $116 $158 forward 7 unknown #
vertex $-1 $117 $159 #
straight-curve $-1 89.15783172126330669 45.34327566206712135 -52.96126932846745916 -0.5386483688544100312 0.5180220303720109998 -0.6644630243886729959 I I #
vertex $-1 $118 $160 #
straight-curve $-1 -44.59375942502677503 59.68035613794830851 66.64207506149421079 -0.5386483688544100312 0.5180220303720109998 -0.6644630243886729959 I I #
point $-1 92.12039774996256369 42.49415449502106412 -49.30672269432975696 #
point $-1 -41.63119339632751803 56.83123497090224419 70.29662169563191298 #
straight-curve $-1 -59.26948927504896858 49.12261672481552921 51.49588439012242702 0.397131261967103022 0.8516507396391459483 0.3420201433256689905 I I #
point $-1 -64.4321956806213052 38.05115710950662589 47.04962252688873292 #
straight-curve $-1 74.48210187124111314 34.78553624893434204 -68.10745999983925003 -0.397131261967103022 -0.8516507396391459483 -0.3420201433256689905 I I #
point $-1 69.31939546566877652 23.71407663362544582 -72.55372186307295124 #
straight-curve $-1 2.443599892523735662 30.88261687156603585 -12.75204966809210916 0.7430643952571670541 -0.07965044708822879849 -0.6644630243886759935 I I #
ellipse-curve $-1 -50.33624428749575941 56.56792212752034743 60.59338742407683753 0.7430643952571670541 -0.07965044708822879849 -0.6644630243886759935 -0.7004739415374134914 6.779534325770157466 -1.5960108342148418 1 I I #
ellipse-curve $-1 83.41534685879432232 42.23084165163916737 -59.00995696588484662 -0.7430643952571670541 0.07965044708822879849 0.6644630243886759935 -0.7004739415374134914 6.779534325770157466 -1.5960108342148418 1 I I #
point $-1 79.64480827681344977 45.85699586424324536 -63.66119813660555593 #
point $-1 -54.10678286947663196 60.19407634012442543 55.94214625335612823 #
straight-curve $-1 19.31947011941900527 55.36093706705377571 3.185856232375678054 0.7430643952571670541 -0.07965044708822879849 -0.6644630243886759935 I I #
point $-1 86.19526569256404969 48.19239682911318567 -56.61581596260516136 #
point $-1 -47.55632545372603204 62.52947730499437284 62.98752842735650859 #
End-of-ACIS-data 