105 162 1 0                             
body $-1 $1 $-1 $2 #
lump $-1 $-1 $3 $0 #
transform $-1 0.743064395257167 -0.0796504470882288 -0.664463024388676 0.397131261967103 0.851650739639146 0.342020143325669 0.53864836885441 -0.518022030372011 0.664463024388673 14.3394109087762 35.4788011072248 0 1 1 0 0 #
shell $-1 $-1 $-1 $4 $1 #
face $-1 $5 $6 $3 $-1 $7 forward single #
face $-1 $8 $9 $3 $-1 $10 reversed single #
loop $-1 $-1 $11 $4 #
cone-surface $-1 -3.60822483003176e-16 -13 5.5 1 2.77555756156289e-17 0 -1.3738309013483e-16 -4.94974746830583 4.94974746830583 1 0 1 0 #
face $-1 $12 $13 $3 $-1 $14 reversed single #
loop $-1 $-1 $15 $5 #
plane-surface $-1 0 -20 0 0 1 -0 -0 0 1 0 #
coedge $-1 $16 $17 $18 $19 0 $6 $-1 #
face $-1 $20 $21 $3 $-1 $22 forward single #
loop $-1 $-1 $23 $8 #
plane-surface $-1 -90 0 0 1 0 0 0 0 -1 0 #
coedge $-1 $24 $25 $26 $27 1 $9 $-1 #
coedge $-1 $26 $11 $23 $28 0 $6 $-1 #
coedge $-1 $11 $26 $29 $30 0 $6 $-1 #
coedge $-1 $31 $32 $11 $19 1 $33 $-1 #
edge $-1 $34 $35 $18 $36 0 #
face $-1 $37 $38 $3 $-1 $39 reversed single #
loop $-1 $-1 $40 $12 #
cone-surface $-1 3.60822483003176e-16 13 5.5 -1 -2.77555756156289e-17 0 1.3738309013483e-16 4.94974746830583 4.94974746830583 1 0 1 0 #
coedge $-1 $41 $42 $16 $28 1 $13 $-1 #
coedge $-1 $43 $15 $42 $44 0 $9 $-1 #
coedge $-1 $15 $43 $45 $46 1 $9 $-1 #
coedge $-1 $17 $16 $15 $27 0 $6 $-1 #
edge $-1 $47 $48 $15 $49 0 #
edge $-1 $35 $47 $23 $50 0 #
coedge $-1 $45 $51 $17 $30 1 $52 $-1 #
edge $-1 $48 $34 $29 $53 0 #
coedge $-1 $54 $18 $51 $55 0 $33 $-1 #
coedge $-1 $18 $54 $41 $56 0 $33 $-1 #
loop $-1 $-1 $18 $57 #
vertex $-1 $19 $58 #
vertex $-1 $56 $59 #
straight-curve $-1 0 -13 12.5 -1 -0 -0 #
face $-1 $60 $61 $3 $-1 $62 forward single #
loop $-1 $-1 $63 $20 #
plane-surface $-1 0 20 0 0 -1 0 0 0 -1 0 #
coedge $-1 $64 $65 $54 $66 0 $21 $-1 #
coedge $-1 $67 $23 $32 $56 1 $13 $-1 #
coedge $-1 $23 $68 $24 $44 1 $13 $-1 #
coedge $-1 $25 $24 $69 $70 1 $9 $-1 #
edge $-1 $47 $71 $42 $72 0 #
coedge $-1 $73 $29 $25 $46 0 $52 $-1 #
edge $-1 $48 $74 $45 $75 0 #
vertex $-1 $28 $76 #
vertex $-1 $27 $77 #
straight-curve $-1 0 -20 5.5 1 0 0 #
ellipse-curve $-1 -90 -13 5.5 1 0 0 0 -4.94974746830583 4.94974746830583 1 #
coedge $-1 $29 $78 $31 $55 1 $52 $-1 #
loop $-1 $-1 $29 $79 #
ellipse-curve $-1 90 -13 5.5 -1 0 0 0 -4.94974746830583 4.94974746830583 1 #
coedge $-1 $32 $31 $40 $66 1 $33 $-1 #
edge $-1 $34 $80 $51 $81 0 #
edge $-1 $82 $35 $41 $83 0 #
face $-1 $84 $33 $3 $-1 $85 forward single #
point $-1 90 -13 12.5 #
point $-1 -90 -13 12.5 #
face $-1 $57 $86 $3 $-1 $87 forward single #
loop $-1 $-1 $88 $37 #
cone-surface $-1 3.60822483003176e-16 13 -5.5 1 2.77555756156289e-17 0 1.3738309013483e-16 4.94974746830583 -4.94974746830583 1 0 1 0 #
coedge $-1 $89 $90 $91 $92 1 $38 $-1 #
coedge $-1 $91 $40 $78 $93 0 $21 $-1 #
coedge $-1 $40 $91 $67 $94 0 $21 $-1 #
edge $-1 $82 $80 $54 $95 0 #
coedge $-1 $96 $41 $65 $94 1 $13 $-1 #
coedge $-1 $42 $97 $98 $99 1 $13 $-1 #
coedge $-1 $98 $100 $43 $70 0 $86 $-1 #
edge $-1 $74 $71 $43 $101 0 #
vertex $-1 $44 $102 #
straight-curve $-1 -90 -20 0 0 0 -1 #
coedge $-1 $103 $45 $100 $104 1 $52 $-1 #
vertex $-1 $46 $105 #
straight-curve $-1 90 -20 0 0 0 -1 #
point $-1 -90 -20 5.5 #
point $-1 90 -20 5.5 #
coedge $-1 $51 $106 $64 $93 1 $52 $-1 #
face $-1 $-1 $52 $3 $-1 $107 reversed single #
vertex $-1 $55 $108 #
straight-curve $-1 90 0 12.5 0 1 0 #
vertex $-1 $94 $109 #
straight-curve $-1 -90 0 12.5 0 -1 0 #
face $-1 $79 $110 $3 $-1 $111 reversed single #
plane-surface $-1 0 0 12.5 0 0 1 1 0 0 0 #
loop $-1 $-1 $112 $60 #
cone-surface $-1 -3.60822483003176e-16 -13 -5.5 -1 -2.77555756156289e-17 -0 -1.3738309013483e-16 -4.94974746830583 -4.94974746830583 1 0 1 0 #
coedge $-1 $113 $114 $115 $116 0 $61 $-1 #
coedge $-1 $117 $63 $106 $118 0 $38 $-1 #
coedge $-1 $63 $117 $96 $119 1 $38 $-1 #
coedge $-1 $65 $64 $63 $92 0 $21 $-1 #
edge $-1 $120 $121 $63 $122 0 #
edge $-1 $80 $120 $78 $123 0 #
edge $-1 $121 $82 $67 $124 0 #
straight-curve $-1 0 13 12.5 1 0 0 #
coedge $-1 $125 $67 $90 $119 0 $13 $-1 #
coedge $-1 $68 $125 $126 $127 1 $13 $-1 #
coedge $-1 $112 $69 $68 $99 0 $86 $-1 #
edge $-1 $71 $128 $68 $129 0 #
coedge $-1 $69 $112 $73 $104 0 $86 $-1 #
straight-curve $-1 0 -20 -5.5 -1 0 0 #
point $-1 -90 -20 -5.5 #
coedge $-1 $130 $73 $131 $132 1 $52 $-1 #
edge $-1 $133 $74 $73 $134 0 #
point $-1 90 -20 -5.5 #
coedge $-1 $78 $130 $89 $118 1 $52 $-1 #
plane-surface $-1 90 0 0 -1 0 0 0 -0 1 0 #
point $-1 90 13 12.5 #
point $-1 -90 13 12.5 #
loop $-1 $-1 $115 $84 #
plane-surface $-1 0 0 -12.5 0 0 1 1 0 0 0 #
coedge $-1 $100 $98 $135 $136 0 $86 $-1 #
coedge $-1 $137 $88 $125 $138 0 $61 $-1 #
coedge $-1 $88 $137 $130 $139 0 $61 $-1 #
coedge $-1 $131 $126 $88 $116 1 $110 $-1 #
edge $-1 $140 $141 $115 $142 0 #
coedge $-1 $90 $89 $137 $143 1 $38 $-1 #
edge $-1 $120 $144 $106 $145 0 #
edge $-1 $121 $146 $90 $147 0 #
vertex $-1 $92 $148 #
vertex $-1 $92 $149 #
straight-curve $-1 0 20 5.5 -1 0 0 #
ellipse-curve $-1 90 13 5.5 -1 0 0 0 4.94974746830583 4.94974746830583 1 #
ellipse-curve $-1 -90 13 5.5 1 0 0 0 4.94974746830583 4.94974746830583 1 #
coedge $-1 $97 $96 $113 $138 1 $13 $-1 #
coedge $-1 $115 $135 $97 $127 0 $110 $-1 #
edge $-1 $128 $141 $97 $150 0 #
vertex $-1 $99 $151 #
ellipse-curve $-1 -90 -13 -5.5 1 0 0 0 -4.94974746830583 -4.94974746830583 1 #
coedge $-1 $106 $103 $114 $139 1 $52 $-1 #
coedge $-1 $135 $115 $103 $132 0 $110 $-1 #
edge $-1 $140 $133 $103 $152 0 #
vertex $-1 $132 $153 #
ellipse-curve $-1 90 -13 -5.5 -1 0 0 0 -4.94974746830583 -4.94974746830583 1 #
coedge $-1 $126 $131 $112 $136 1 $110 $-1 #
edge $-1 $128 $133 $135 $154 0 #
coedge $-1 $114 $113 $117 $143 0 $61 $-1 #
edge $-1 $141 $146 $125 $155 0 #
edge $-1 $144 $140 $130 $156 0 #
vertex $-1 $116 $157 #
vertex $-1 $127 $158 #
straight-curve $-1 0 13 -12.5 -1 -0 -0 #
edge $-1 $146 $144 $117 $159 0 #
vertex $-1 $118 $160 #
straight-curve $-1 90 20 0 0 0 -1 #
vertex $-1 $119 $161 #
straight-curve $-1 -90 20 0 0 0 -1 #
point $-1 90 20 5.5 #
point $-1 -90 20 5.5 #
straight-curve $-1 -90 0 -12.5 0 1 0 #
point $-1 -90 -13 -12.5 #
straight-curve $-1 90 0 -12.5 0 -1 0 #
point $-1 90 -13 -12.5 #
straight-curve $-1 0 -13 -12.5 1 0 0 #
ellipse-curve $-1 -90 13 -5.5 1 0 0 0 4.94974746830583 -4.94974746830583 1 #
ellipse-curve $-1 90 13 -5.5 -1 0 0 0 4.94974746830583 -4.94974746830583 1 #
point $-1 90 13 -12.5 #
point $-1 -90 13 -12.5 #
straight-curve $-1 0 20 -5.5 1 0 0 #
point $-1 90 20 -5.5 #
point $-1 -90 20 -5.5 #
