600 0 2 0           
24 FBMach with ACIS - 6.0.3 13 ACIS 6.0.3 NT 24 Tue May 22 12:24:43 2001 
1 9.9999999999999995e-007 1e-010 
body $2 $3 $-1 $4 #
bdycol-kcp $-1 1 4 $5 $6 $7 $8 #
model_id-kcp-attrib $-1 $-1 $-1 $0 1 990548682 50 -1909325823 1 #
lump $-1 $-1 $9 $0 #
transform $-1 0.74306439525716717 -0.079650447088228771 -0.66446302438867599 0.39713126196710313 0.85165073963914595 0.34202014332566893 0.53864836885441036 -0.518022030372011 0.66446302438867333 14.339410908776212 35.478801107224797 -8.8817841970012523e-015 1 rotate no_reflect no_shear #
body $10 $11 $-1 $12 #
body $13 $14 $-1 $15 #
body $16 $17 $-1 $18 #
body $19 $20 $-1 $21 #
shell $-1 $-1 $-1 $22 $-1 $3 #
model_id-kcp-attrib $-1 $-1 $-1 $5 1 990548682 70 -1908015102 1 #
lump $-1 $-1 $23 $5 #
transform $-1 1 0 0 0 1 0 0 0 1 14.339410908776202 35.478801107224797 0 1 no_rotate no_reflect no_shear #
rgb_color-st-attrib $-1 $24 $-1 $6 0.5 1 1 #
lump $-1 $-1 $25 $6 #
transform $-1 1 0 0 0 1 0 0 0 1 14.339410908776202 35.478801107224797 0 1 no_rotate no_reflect no_shear #
rgb_color-st-attrib $-1 $26 $-1 $7 0.5 0.5 1 #
lump $-1 $-1 $27 $7 #
transform $-1 1 0 0 0 1 0 0 0 1 14.339410908776202 35.478801107224797 0 1 no_rotate no_reflect no_shear #
rgb_color-st-attrib $-1 $28 $-1 $8 0.5 0.5 1 #
lump $-1 $-1 $29 $8 #
transform $-1 1 0 0 0 1 0 0 0 1 14.339410908776202 35.478801107224797 0 1 no_rotate no_reflect no_shear #
face $30 $31 $32 $9 $-1 $33 forward single #
shell $-1 $-1 $-1 $34 $-1 $11 #
model_id-kcp-attrib $-1 $-1 $13 $6 1 990548682 210 -1898840061 1 #
shell $-1 $-1 $-1 $35 $-1 $14 #
model_id-kcp-attrib $-1 $-1 $16 $7 1 990548682 270 -1911685116 1 #
shell $-1 $-1 $-1 $36 $-1 $17 #
model_id-kcp-attrib $-1 $-1 $19 $8 1 990548682 300 -1909719035 1 #
shell $-1 $-1 $-1 $37 $-1 $20 #
model_id-kcp-attrib $-1 $-1 $-1 $22 1 990548682 50 -1909325823 2 #
face $38 $39 $40 $9 $-1 $41 reversed single #
loop $-1 $-1 $42 $22 #
cone-surface $-1 -3.6082248300317602e-016 -13 5.5 1 2.7755575615628901e-017 0 -1.3738309013483e-016 -4.94974746830583 4.94974746830583 1 I I 0 1 6.9999999999999964 forward I I I I #
face $-1 $43 $44 $23 $-1 $45 forward single #
face $-1 $46 $47 $25 $-1 $48 reversed single #
face $-1 $49 $50 $27 $-1 $51 reversed single #
face $-1 $52 $53 $29 $-1 $54 reversed single #
model_id-kcp-attrib $-1 $-1 $-1 $31 1 990548682 50 -1909325823 3 #
face $55 $56 $57 $9 $-1 $58 reversed single #
loop $-1 $-1 $59 $31 #
plane-surface $-1 0 -20 0 0 1 0 0 0 1 forward_v I I I I #
coedge $-1 $60 $61 $62 $63 forward $32 $-1 #
face $-1 $64 $65 $23 $-1 $66 reversed single #
loop $-1 $-1 $67 $34 #
plane-surface $-1 0 0 74.947862866352622 0 0 1 1 0 0 forward_v I I I I #
face $-1 $68 $69 $25 $-1 $70 reversed single #
loop $-1 $-1 $71 $35 #
plane-surface $-1 68.446193778252834 -24.715275232899618 -55.94214625335615 0.7430643952571665 -0.079650447088229603 -0.66446302438867644 0.53864836885441036 -0.518022030372011 0.66446302438867333 forward_v I I I I #
face $-1 $72 $73 $27 $-1 $74 forward single #
loop $-1 $-1 $75 $36 #
plane-surface $-1 6.7331046106801296 -6.4752753796501423 8.3057878048584257 0.53864836885441014 -0.51802203037201111 0.66446302438867311 0.69317191938857703 0.72077228732183918 0 forward_v I I I I #
face $-1 $76 $77 $29 $-1 $78 forward single #
loop $-1 $-1 $79 $37 #
plane-surface $-1 -6.7331046106801296 6.4752753796501423 -8.3057878048584257 -0.53864836885441014 0.51802203037201111 -0.66446302438867311 -0.69317191938857703 -0.72077228732183918 0 forward_v I I I I #
model_id-kcp-attrib $-1 $-1 $-1 $39 1 990548682 50 -1909325823 4 #
face $80 $81 $82 $9 $-1 $83 forward single #
loop $-1 $-1 $84 $39 #
plane-surface $-1 -90 0 0 1 0 0 0 0 -1 forward_v I I I I #
coedge $-1 $85 $86 $87 $88 reversed $40 $-1 #
coedge $-1 $87 $42 $84 $89 forward $32 $-1 #
coedge $-1 $42 $87 $90 $91 forward $32 $-1 #
coedge $-1 $92 $93 $42 $63 reversed $94 $-1 #
edge $95 $96 -90 $97 90 $62 $98 forward 7 unknown #
face $-1 $99 $100 $23 $-1 $101 reversed single #
loop $-1 $-1 $102 $43 #
plane-surface $-1 0 0 -74.947862866352622 0 0 1 1 0 0 forward_v I I I I #
coedge $-1 $103 $104 $105 $106 forward $44 $-1 #
face $-1 $107 $108 $25 $-1 $109 reversed single #
loop $-1 $-1 $110 $46 #
plane-surface $-1 65.666274944483106 -30.676830410373629 -58.336287256635821 -0.39713126196710347 -0.85165073963914628 -0.34202014332566921 0.53864836885441036 -0.518022030372011 0.66446302438867333 forward_v I I I I #
coedge $-1 $111 $112 $113 $114 reversed $47 $-1 #
face $-1 $115 $116 $27 $-1 $117 forward single #
loop $-1 $-1 $118 $49 #
plane-surface $-1 65.666274944483106 -30.676830410373629 -58.336287256635821 -0.39713126196710347 -0.85165073963914628 -0.34202014332566921 0.53864836885441036 -0.518022030372011 0.66446302438867333 forward_v I I I I #
coedge $-1 $119 $120 $121 $122 forward $50 $-1 #
face $-1 $123 $124 $29 $-1 $125 forward single #
loop $-1 $-1 $126 $52 #
plane-surface $-1 -52.200065723122833 17.726279651073348 74.947862866352622 0.39713126196710347 0.85165073963914628 0.34202014332566921 -0.53864836885441036 0.518022030372011 -0.66446302438867333 forward_v I I I I #
coedge $-1 $127 $128 $129 $130 forward $53 $-1 #
model_id-kcp-attrib $-1 $-1 $-1 $56 1 990548682 50 -1909325823 5 #
face $131 $132 $133 $9 $-1 $134 reversed single #
loop $-1 $-1 $135 $56 #
cone-surface $-1 3.6082248300317602e-016 13 5.5 -1 -2.7755575615628901e-017 0 1.3738309013483e-016 4.94974746830583 4.94974746830583 1 I I 0 1 6.9999999999999964 forward I I I I #
coedge $-1 $136 $137 $60 $89 reversed $57 $-1 #
coedge $-1 $138 $59 $137 $139 forward $40 $-1 #
coedge $-1 $59 $138 $140 $141 reversed $40 $-1 #
coedge $-1 $61 $60 $59 $88 forward $32 $-1 #
edge $142 $143 -90 $144 90 $59 $145 forward 7 unknown #
edge $146 $97 -0.78539816339744828 $143 0.78539816339744828 $84 $147 forward 7 unknown #
coedge $-1 $140 $148 $61 $91 reversed $149 $-1 #
edge $-1 $144 -0.78539816339744828 $96 0.78539816339744828 $90 $150 forward 7 unknown #
coedge $-1 $151 $62 $148 $152 forward $94 $-1 #
coedge $-1 $62 $151 $136 $153 forward $94 $-1 #
loop $-1 $-1 $62 $154 #
attrib_edge_convexity-kcp-attrib $-1 $155 $-1 $63 3 #
vertex $-1 $63 $156 #
vertex $-1 $153 $157 #
straight-curve $-1 0 -13 12.5 -1 0 0 I I #
face $-1 $158 $159 $23 $-1 $160 reversed single #
loop $-1 $-1 $161 $64 #
plane-surface $-1 0 -30.676830410373654 0 0 1 0 0 0 1 forward_v I I I I #
coedge $-1 $162 $163 $164 $165 forward $65 $-1 #
coedge $-1 $166 $67 $167 $168 forward $44 $-1 #
coedge $-1 $67 $166 $169 $170 forward $44 $-1 #
coedge $-1 $171 $172 $67 $106 reversed $173 $-1 #
edge $-1 $174 -30.676830410373654 $175 30.676830410373654 $105 $176 forward 7 unknown #
face $-1 $177 $178 $25 $-1 $179 reversed single #
loop $-1 $-1 $180 $68 #
plane-surface $-1 -54.979984556892546 11.764724473599344 72.553721863072951 -0.7430643952571665 0.079650447088229603 0.66446302438867644 -0.53864836885441036 0.518022030372011 -0.66446302438867333 forward_v I I I I #
coedge $-1 $181 $182 $183 $184 reversed $69 $-1 #
coedge $-1 $185 $71 $186 $187 reversed $47 $-1 #
coedge $-1 $71 $188 $189 $190 reversed $47 $-1 #
coedge $-1 $191 $192 $71 $114 forward $193 $-1 #
edge $-1 $194 -17.62068192102123 $195 16.689226739114773 $113 $196 forward 7 unknown #
face $-1 $197 $198 $27 $-1 $199 forward single #
loop $-1 $-1 $121 $72 #
plane-surface $-1 68.446193778252834 -24.715275232899618 -55.94214625335615 0.7430643952571665 -0.079650447088229603 -0.66446302438867644 0.53864836885441036 -0.518022030372011 0.66446302438867333 forward_v I I I I #
coedge $-1 $200 $201 $119 $202 reversed $73 $-1 #
coedge $-1 $203 $75 $118 $202 forward $50 $-1 #
coedge $-1 $75 $203 $204 $205 forward $50 $-1 #
coedge $-1 $206 $207 $75 $122 reversed $116 $-1 #
edge $208 $209 -26.500000000000036 $210 13.49999999999994 $121 $211 forward 7 unknown #
face $-1 $212 $213 $29 $-1 $214 forward single #
loop $-1 $-1 $129 $76 #
plane-surface $-1 68.446193778252834 -24.715275232899618 -55.94214625335615 0.7430643952571665 -0.079650447088229603 -0.66446302438867644 0.53864836885441036 -0.518022030372011 0.66446302438867333 forward_v I I I I #
coedge $-1 $215 $216 $127 $217 reversed $77 $-1 #
coedge $-1 $218 $79 $126 $217 forward $53 $-1 #
coedge $-1 $79 $218 $219 $220 forward $53 $-1 #
coedge $-1 $221 $222 $79 $130 reversed $124 $-1 #
edge $223 $224 -13.499999999999932 $225 26.500000000000039 $129 $226 forward 7 unknown #
model_id-kcp-attrib $-1 $-1 $-1 $81 1 990548682 50 -1909325823 6 #
face $227 $228 $229 $9 $-1 $230 forward single #
loop $-1 $-1 $231 $81 #
plane-surface $-1 0 20 0 0 -1 0 0 0 -1 forward_v I I I I #
coedge $-1 $232 $233 $151 $234 forward $82 $-1 #
coedge $-1 $235 $84 $93 $153 reversed $57 $-1 #
coedge $-1 $84 $236 $85 $139 reversed $57 $-1 #
coedge $-1 $86 $85 $237 $238 reversed $40 $-1 #
edge $239 $143 -5.5 $240 5.5 $137 $241 forward 7 unknown #
coedge $-1 $242 $90 $86 $141 forward $149 $-1 #
edge $243 $144 -5.5 $244 5.5 $140 $245 forward 7 unknown #
attrib_edge_convexity-kcp-attrib $-1 $246 $-1 $88 3 #
vertex $-1 $89 $247 #
vertex $-1 $88 $248 #
straight-curve $-1 0 -20 5.5 1 0 0 I I #
attrib_edge_convexity-kcp-attrib $-1 $249 $-1 $89 1 #
ellipse-curve $-1 -90 -13 5.5 1 0 0 0 -4.94974746830583 4.94974746830583 1 I I #
coedge $-1 $90 $250 $92 $152 reversed $149 $-1 #
loop $-1 $-1 $90 $251 #
ellipse-curve $-1 90 -13 5.5 -1 0 0 0 -4.94974746830583 4.94974746830583 1 I I #
coedge $-1 $93 $92 $135 $234 reversed $94 $-1 #
edge $252 $96 -13 $253 13 $148 $254 forward 7 unknown #
edge $255 $256 -13 $97 13 $136 $257 forward 7 unknown #
face $258 $259 $94 $9 $-1 $260 forward single #
convexity-sys-attrib $-1 $-1 $95 $63 #
point $-1 90 -13 12.5 #
point $-1 -90 -13 12.5 #
face $-1 $261 $262 $23 $-1 $263 reversed single #
loop $-1 $-1 $264 $99 #
plane-surface $-1 -81.551525423167234 0 0 1 0 0 0 0 -1 forward_v I I I I #
coedge $-1 $265 $169 $266 $267 forward $100 $-1 #
coedge $-1 $268 $102 $265 $269 forward $65 $-1 #
coedge $-1 $102 $268 $270 $271 forward $65 $-1 #
coedge $-1 $172 $171 $102 $165 reversed $173 $-1 #
edge $-1 $272 -30.676830410373654 $273 30.676830410373654 $164 $274 forward 7 unknown #
coedge $-1 $104 $103 $275 $276 forward $44 $-1 #
coedge $-1 $277 $278 $103 $168 reversed $262 $-1 #
edge $-1 $175 -81.551525423167234 $279 81.551525423167234 $167 $280 forward 7 unknown #
coedge $-1 $161 $281 $104 $170 reversed $100 $-1 #
edge $-1 $282 -81.551525423167234 $174 81.551525423167234 $169 $283 forward 7 unknown #
coedge $-1 $164 $105 $281 $284 forward $173 $-1 #
coedge $-1 $105 $164 $277 $285 reversed $173 $-1 #
loop $-1 $-1 $171 $261 #
vertex $-1 $106 $286 #
vertex $-1 $106 $287 #
straight-curve $-1 81.551525423167234 0 74.947862866352622 0 1 0 I I #
face $-1 $288 $193 $25 $-1 $289 reversed single #
loop $-1 $-1 $290 $107 #
plane-surface $-1 -52.200065723122833 17.726279651073348 74.947862866352622 0.39713126196710347 0.85165073963914628 0.34202014332566921 -0.53864836885441036 0.518022030372011 -0.66446302438867333 forward_v I I I I #
coedge $-1 $291 $292 $293 $294 reversed $108 $-1 #
coedge $-1 $295 $110 $188 $296 forward $69 $-1 #
coedge $-1 $110 $297 $298 $299 reversed $69 $-1 #
coedge $-1 $300 $189 $110 $184 forward $301 $-1 #
edge $-1 $302 -43.527479857469714 $303 132.37285264380233 $183 $304 forward 7 unknown #
coedge $-1 $188 $111 $305 $306 reversed $47 $-1 #
coedge $-1 $290 $307 $111 $187 forward $178 $-1 #
edge $-1 $308 -45.589265663975056 $194 0 $111 $309 forward 7 unknown #
coedge $-1 $112 $185 $181 $296 reversed $47 $-1 #
coedge $-1 $183 $310 $112 $190 forward $301 $-1 #
edge $-1 $195 -22.155138878145731 $302 1.675804559650153 $189 $311 forward 7 unknown #
coedge $-1 $312 $113 $310 $313 forward $193 $-1 #
coedge $-1 $113 $314 $290 $315 forward $193 $-1 #
loop $-1 $-1 $192 $177 #
vertex $-1 $114 $316 #
vertex $-1 $313 $317 #
straight-curve $-1 81.551525423167234 -14.106232759221335 -42.558270806940889 0 -0.9928918763093787 0.11901983850955862 I I #
face $-1 $318 $319 $27 $-1 $320 forward single #
loop $-1 $-1 $321 $115 #
plane-surface $-1 -54.979984556892546 11.764724473599344 72.553721863072951 -0.7430643952571665 0.079650447088229603 0.66446302438867644 -0.53864836885441036 0.518022030372011 -0.66446302438867333 forward_v I I I I #
coedge $-1 $322 $118 $323 $324 reversed $73 $-1 #
coedge $-1 $118 $322 $325 $326 forward $73 $-1 #
edge $327 $210 -45.000000000000028 $328 135 $118 $329 forward 7 unknown #
coedge $-1 $120 $119 $321 $330 forward $50 $-1 #
coedge $-1 $331 $332 $120 $205 reversed $319 $-1 #
edge $333 $334 -45 $209 135.00000000000006 $204 $335 forward 7 unknown #
coedge $-1 $207 $121 $336 $337 reversed $116 $-1 #
coedge $-1 $121 $206 $338 $339 reversed $116 $-1 #
convexity-sys-attrib $-1 $-1 $-1 $122 #
vertex $-1 $337 $340 #
vertex $-1 $339 $341 #
straight-curve $-1 71.027546981039009 -19.17954542524522 -53.71901532173932 -0.39713126196710435 -0.85165073963914595 -0.3420201433256686 I I #
face $-1 $342 $343 $29 $-1 $344 forward single #
loop $-1 $-1 $219 $123 #
plane-surface $-1 65.666274944483106 -30.676830410373629 -58.336287256635821 -0.39713126196710347 -0.85165073963914628 -0.34202014332566921 0.53864836885441036 -0.518022030372011 0.66446302438867333 forward_v I I I I #
coedge $-1 $345 $126 $222 $346 reversed $77 $-1 #
coedge $-1 $126 $345 $347 $348 reversed $77 $-1 #
edge $349 $225 -135.00000000000006 $350 45 $126 $351 forward 7 unknown #
coedge $-1 $128 $127 $352 $353 forward $53 $-1 #
coedge $-1 $354 $355 $128 $220 reversed $213 $-1 #
edge $356 $357 -135 $224 45.000000000000021 $219 $358 forward 7 unknown #
coedge $-1 $222 $129 $359 $360 reversed $124 $-1 #
coedge $-1 $129 $221 $215 $346 forward $124 $-1 #
convexity-sys-attrib $-1 $-1 $-1 $130 #
vertex $-1 $360 $361 #
vertex $-1 $130 $362 #
straight-curve $-1 57.561337759678729 -6.2289946659449349 -70.330590931456157 0.39713126196710435 0.85165073963914595 0.3420201433256686 I I #
model_id-kcp-attrib $-1 $-1 $-1 $132 1 990548682 50 -1909325823 7 #
face $363 $154 $364 $9 $-1 $365 forward single #
loop $-1 $-1 $366 $132 #
cone-surface $-1 3.6082248300317602e-016 13 -5.5 1 2.7755575615628901e-017 0 1.3738309013483e-016 4.94974746830583 -4.94974746830583 1 I I 0 1 6.9999999999999964 forward I I I I #
coedge $-1 $367 $368 $369 $370 reversed $133 $-1 #
coedge $-1 $369 $135 $250 $371 forward $82 $-1 #
coedge $-1 $135 $369 $235 $372 forward $82 $-1 #
edge $373 $256 -90 $253 90 $151 $374 forward 7 unknown #
coedge $-1 $375 $136 $233 $372 reversed $57 $-1 #
coedge $-1 $137 $376 $377 $378 reversed $57 $-1 #
coedge $-1 $377 $379 $138 $238 forward $364 $-1 #
edge $380 $244 -90 $240 90 $138 $381 forward 7 unknown #
attrib_edge_convexity-kcp-attrib $-1 $382 $-1 $139 1 #
vertex $-1 $139 $383 #
straight-curve $-1 -90 -20 0 0 0 -1 I I #
coedge $-1 $384 $140 $379 $385 reversed $149 $-1 #
attrib_edge_convexity-kcp-attrib $-1 $386 $-1 $141 1 #
vertex $-1 $141 $387 #
straight-curve $-1 90 -20 0 0 0 -1 I I #
convexity-sys-attrib $-1 $-1 $142 $88 #
point $-1 -90 -20 5.5 #
point $-1 90 -20 5.5 #
convexity-sys-attrib $-1 $-1 $146 $89 #
coedge $-1 $148 $388 $232 $371 reversed $149 $-1 #
face $389 $-1 $149 $9 $-1 $390 reversed single #
attrib_edge_convexity-kcp-attrib $-1 $391 $-1 $152 1 #
vertex $-1 $152 $392 #
straight-curve $-1 90 0 12.5 0 1 0 I I #
attrib_edge_convexity-kcp-attrib $-1 $393 $-1 $153 1 #
vertex $-1 $372 $394 #
straight-curve $-1 -90 0 12.5 0 -1 0 I I #
model_id-kcp-attrib $-1 $-1 $-1 $154 1 990548682 50 -1909325823 9 #
face $395 $251 $396 $9 $-1 $397 reversed single #
plane-surface $-1 0 0 12.5 0 0 1 1 0 0 forward_v I I I I #
face $-1 $-1 $173 $23 $-1 $398 reversed single #
loop $-1 $-1 $277 $158 #
plane-surface $-1 0 30.676830410373654 0 0 -1 0 0 0 -1 forward_v I I I I #
coedge $-1 $399 $275 $278 $400 forward $159 $-1 #
coedge $-1 $281 $161 $162 $269 reversed $100 $-1 #
coedge $-1 $275 $399 $161 $267 reversed $159 $-1 #
edge $-1 $282 -74.947862866352622 $401 74.947862866352622 $266 $402 forward 7 unknown #
coedge $-1 $163 $162 $399 $403 forward $65 $-1 #
edge $-1 $273 -81.551525423167234 $401 81.551525423167234 $265 $404 forward 7 unknown #
coedge $-1 $278 $277 $163 $271 reversed $262 $-1 #
edge $-1 $405 -81.551525423167234 $272 81.551525423167234 $270 $406 forward 7 unknown #
vertex $-1 $165 $407 #
vertex $-1 $284 $408 #
straight-curve $-1 81.551525423167234 0 -74.947862866352622 0 -1 0 I I #
coedge $-1 $264 $266 $166 $276 reversed $159 $-1 #
edge $-1 $279 -30.676830410373654 $282 30.676830410373654 $275 $409 forward 7 unknown #
coedge $-1 $270 $167 $172 $285 forward $262 $-1 #
coedge $-1 $167 $270 $264 $400 reversed $262 $-1 #
vertex $-1 $168 $410 #
straight-curve $-1 0 30.676830410373654 74.947862866352622 -1 0 0 I I #
coedge $-1 $169 $265 $171 $284 reversed $100 $-1 #
vertex $-1 $276 $411 #
straight-curve $-1 0 -30.676830410373654 74.947862866352622 1 0 0 I I #
edge $-1 $174 -74.947862866352622 $273 74.947862866352622 $171 $412 forward 7 unknown #
edge $-1 $175 -74.947862866352622 $272 74.947862866352622 $172 $413 forward 7 unknown #
point $-1 81.551525423167234 -30.676830410373654 74.947862866352622 #
point $-1 81.551525423167234 30.676830410373654 74.947862866352622 #
face $-1 $414 $301 $25 $-1 $415 reversed single #
plane-surface $-1 81.551525423167234 0 0 -1 0 0 0 0 1 forward_v I I I I #
coedge $-1 $416 $186 $192 $315 reversed $178 $-1 #
coedge $-1 $417 $180 $297 $418 forward $108 $-1 #
coedge $-1 $180 $419 $420 $421 reversed $108 $-1 #
coedge $-1 $422 $298 $180 $294 forward $423 $-1 #
edge $-1 $424 -35.845151610718922 $425 9.1428230111924442 $293 $426 forward 7 unknown #
coedge $-1 $427 $181 $428 $429 reversed $69 $-1 #
edge $-1 $302 -4.7077170103722024e-014 $430 24.999999999999957 $188 $431 forward 7 unknown #
coedge $-1 $182 $432 $291 $418 reversed $69 $-1 #
coedge $-1 $293 $433 $182 $299 forward $423 $-1 #
edge $-1 $303 67.793946329948795 $424 76.481188707119614 $298 $434 forward 7 unknown #
coedge $-1 $435 $183 $433 $436 reversed $301 $-1 #
loop $-1 $-1 $189 $288 #
vertex $-1 $190 $437 #
vertex $-1 $299 $438 #
straight-curve $-1 37.261393648643214 -30.676830410373654 -25.354410091870371 -0.65257353260173623 0 0.75772540180971282 I I #
coedge $-1 $439 $428 $185 $306 forward $440 $-1 #
edge $-1 $430 -3.4220537842457981 $308 41.565920837665573 $305 $441 forward 7 unknown #
coedge $-1 $186 $442 $439 $443 reversed $178 $-1 #
vertex $-1 $306 $444 #
straight-curve $-1 81.551525423167234 3.3891991751921893 -44.655481523609062 0.53864836885441036 -0.518022030372011 0.66446302438867333 I I #
coedge $-1 $189 $445 $191 $313 reversed $301 $-1 #
straight-curve $-1 66.783334168464322 -30.676830410373654 -57.087087667994012 -0.66658084771793358 0 -0.74543274240916002 I I #
coedge $-1 $446 $191 $447 $448 reversed $193 $-1 #
edge $-1 $195 40.571921735602025 $449 74.947862866352622 $191 $450 forward 7 unknown #
coedge $-1 $192 $451 $452 $453 forward $193 $-1 #
edge $-1 $454 -17.238036307943055 $194 74.173250335482081 $192 $455 forward 7 unknown #
point $-1 81.551525423167234 3.3891991751921893 -44.655481523609062 #
point $-1 81.551525423167234 -30.676830410373654 -40.571921735602025 #
face $-1 $456 $457 $27 $-1 $458 forward single #
loop $-1 $-1 $204 $197 #
plane-surface $-1 -52.200065723122833 17.726279651073348 74.947862866352622 0.39713126196710347 0.85165073963914628 0.34202014332566921 -0.53864836885441036 0.518022030372011 -0.66446302438867333 forward_v I I I I #
coedge $-1 $325 $459 $203 $330 reversed $198 $-1 #
coedge $-1 $201 $200 $460 $461 reversed $73 $-1 #
coedge $-1 $338 $462 $200 $324 forward $463 $-1 #
edge $-1 $464 -132.37285264380233 $210 43.527479857469714 $323 $465 forward 7 unknown #
coedge $-1 $459 $321 $201 $326 reversed $198 $-1 #
edge $-1 $466 -20.589265663975091 $328 0 $201 $467 forward 7 unknown #
convexity-sys-attrib $-1 $-1 $-1 $202 #
vertex $-1 $202 $468 #
straight-curve $-1 32.228377157910586 -27.092560291403338 -28.435451159145387 -0.74306439525716694 0.079650447088228687 0.66446302438867599 I I #
edge $469 $328 -26.500000000000046 $334 13.499999999999927 $321 $470 forward 7 unknown #
coedge $-1 $471 $204 $472 $473 reversed $319 $-1 #
coedge $-1 $204 $471 $474 $475 reversed $319 $-1 #
convexity-sys-attrib $-1 $-1 $-1 $205 #
vertex $-1 $476 $477 #
straight-curve $-1 -18.76216793655032 14.142009532103046 45.047026768862217 0.74306439525716694 -0.079650447088228687 -0.66446302438867599 I I #
coedge $-1 $474 $478 $206 $337 forward $479 $-1 #
edge $-1 $480 -16.689226739114773 $209 17.62068192102123 $336 $481 forward 7 unknown #
coedge $-1 $482 $323 $207 $339 forward $463 $-1 #
edge $-1 $210 -1.675804559650153 $480 22.155138878145731 $338 $483 forward 7 unknown #
point $-1 81.551525423167234 3.3891991751921893 -44.655481523609062 #
point $-1 65.666274944483135 -30.676830410373654 -58.336287256635792 #
face $-1 $484 $485 $29 $-1 $486 reversed single #
loop $-1 $-1 $352 $212 #
plane-surface $-1 -54.979984556892546 11.764724473599344 72.553721863072951 -0.7430643952571665 0.079650447088229603 0.66446302438867644 -0.53864836885441036 0.518022030372011 -0.66446302438867333 forward_v I I I I #
coedge $-1 $216 $215 $487 $488 reversed $77 $-1 #
edge $-1 $489 -45.589265663975056 $225 -25.000000000000018 $222 $490 forward 7 unknown #
coedge $-1 $491 $492 $216 $348 forward $493 $-1 #
edge $-1 $350 -41.6278193168557 $494 134.27251318441625 $347 $495 forward 7 unknown #
convexity-sys-attrib $-1 $-1 $-1 $217 #
vertex $-1 $496 $497 #
straight-curve $-1 -32.228377157910579 27.092560291403334 28.435451159145376 -0.74306439525716694 0.079650447088228687 0.66446302438867599 I I #
coedge $-1 $498 $499 $218 $353 reversed $343 $-1 #
edge $500 $350 -13.499999999999925 $357 26.50000000000005 $352 $501 forward 7 unknown #
coedge $-1 $502 $219 $503 $504 reversed $213 $-1 #
coedge $-1 $219 $502 $505 $506 reversed $213 $-1 #
convexity-sys-attrib $-1 $-1 $-1 $220 #
vertex $-1 $504 $507 #
straight-curve $-1 18.762167936550327 -14.142009532103055 -45.047026768862224 0.74306439525716694 -0.079650447088228687 -0.66446302438867599 I I #
coedge $-1 $505 $487 $221 $360 forward $508 $-1 #
edge $-1 $489 -41.565920837665573 $224 3.4220537842457981 $359 $509 forward 7 unknown #
point $-1 52.200065723122876 -17.726279651073376 -74.947862866352622 #
point $-1 68.085316201806975 16.33974993449247 -61.267057133325906 #
model_id-kcp-attrib $-1 $-1 $-1 $228 1 990548682 50 -1909325823 8 #
loop $-1 $-1 $510 $228 #
cone-surface $-1 -3.6082248300317602e-016 -13 -5.5 -1 -2.7755575615628901e-017 0 -1.3738309013483e-016 -4.94974746830583 -4.94974746830583 1 I I 0 1 6.9999999999999964 forward I I I I #
coedge $-1 $511 $512 $513 $514 forward $229 $-1 #
coedge $-1 $515 $231 $388 $516 forward $133 $-1 #
coedge $-1 $231 $515 $375 $517 reversed $133 $-1 #
coedge $-1 $233 $232 $231 $370 forward $82 $-1 #
edge $-1 $518 -90 $519 90 $231 $520 forward 7 unknown #
edge $-1 $253 -0.78539816339744828 $518 0.78539816339744828 $250 $521 forward 7 unknown #
edge $522 $519 -0.78539816339744828 $256 0.78539816339744828 $235 $523 forward 7 unknown #
attrib_edge_convexity-kcp-attrib $-1 $524 $-1 $234 3 #
straight-curve $-1 0 13 12.5 1 0 0 I I #
coedge $-1 $525 $235 $368 $517 forward $57 $-1 #
coedge $-1 $236 $525 $526 $527 reversed $57 $-1 #
coedge $-1 $510 $237 $236 $378 forward $364 $-1 #
edge $528 $240 -0.78539816339744828 $529 0.78539816339744828 $236 $530 forward 7 unknown #
coedge $-1 $237 $510 $242 $385 forward $364 $-1 #
attrib_edge_convexity-kcp-attrib $-1 $531 $-1 $238 3 #
straight-curve $-1 0 -20 -5.5 -1 0 0 I I #
convexity-sys-attrib $-1 $-1 $239 $139 #
point $-1 -90 -20 -5.5 #
coedge $-1 $532 $242 $533 $534 reversed $149 $-1 #
edge $-1 $535 -0.78539816339744828 $244 0.78539816339744828 $242 $536 forward 7 unknown #
convexity-sys-attrib $-1 $-1 $243 $141 #
point $-1 90 -20 -5.5 #
coedge $-1 $250 $532 $367 $516 reversed $149 $-1 #
model_id-kcp-attrib $-1 $-1 $-1 $251 1 990548682 50 -1909325823 11 #
plane-surface $-1 90 0 0 -1 0 0 0 0 1 forward_v I I I I #
convexity-sys-attrib $-1 $-1 $252 $152 #
point $-1 90 13 12.5 #
convexity-sys-attrib $-1 $-1 $255 $153 #
point $-1 -90 13 12.5 #
model_id-kcp-attrib $-1 $-1 $-1 $259 1 990548682 50 -1909325823 10 #
loop $-1 $-1 $513 $259 #
plane-surface $-1 0 0 -12.5 0 0 1 1 0 0 forward_v I I I I #
plane-surface $-1 81.551525423167234 0 0 -1 0 0 0 0 1 forward_v I I I I #
coedge $-1 $266 $264 $268 $403 reversed $159 $-1 #
edge $-1 $279 -74.947862866352622 $405 74.947862866352622 $278 $537 forward 7 unknown #
vertex $-1 $403 $538 #
straight-curve $-1 -81.551525423167234 -30.676830410373654 0 0 0 -1 I I #
edge $-1 $401 -30.676830410373654 $405 30.676830410373654 $399 $539 forward 7 unknown #
straight-curve $-1 0 -30.676830410373654 -74.947862866352622 -1 0 0 I I #
vertex $-1 $271 $540 #
straight-curve $-1 0 30.676830410373654 -74.947862866352622 1 0 0 I I #
point $-1 81.551525423167234 30.676830410373654 -74.947862866352622 #
point $-1 81.551525423167234 -30.676830410373654 -74.947862866352622 #
straight-curve $-1 -81.551525423167234 0 74.947862866352622 0 -1 0 I I #
point $-1 -81.551525423167234 30.676830410373654 74.947862866352622 #
point $-1 -81.551525423167234 -30.676830410373654 74.947862866352622 #
straight-curve $-1 81.551525423167234 -30.676830410373654 0 0 0 -1 I I #
straight-curve $-1 81.551525423167234 30.676830410373654 0 0 0 -1 I I #
face $-1 $541 $542 $25 $-1 $543 reversed single #
plane-surface $-1 0 -30.676830410373654 0 0 1 0 0 0 1 forward_v I I I I #
coedge $-1 $544 $290 $545 $546 reversed $178 $-1 #
coedge $-1 $419 $291 $547 $548 reversed $108 $-1 #
edge $-1 $424 -20.589265663975091 $549 25.00000000000006 $297 $550 forward 7 unknown #
coedge $-1 $292 $417 $551 $552 reversed $108 $-1 #
coedge $-1 $442 $544 $292 $421 forward $178 $-1 #
edge $-1 $425 0 $553 25.000000000000064 $292 $554 forward 7 unknown #
coedge $-1 $555 $293 $544 $556 forward $423 $-1 #
loop $-1 $-1 $422 $557 #
vertex $-1 $299 $558 #
vertex $-1 $294 $559 #
straight-curve $-1 -53.174519541705038 8.6355342267728403 74.947862866352622 0.10658128429143679 0.9943039926696402 0 I I #
coedge $-1 $432 $295 $560 $561 reversed $69 $-1 #
coedge $-1 $305 $562 $295 $429 forward $440 $-1 #
edge $-1 $563 -95.969962650753587 $430 18.561553006146827 $428 $564 forward 7 unknown #
vertex $-1 $306 $565 #
straight-curve $-1 65.666274944483106 -30.676830410373629 -58.336287256635821 -0.53864836885441036 0.518022030372011 -0.66446302438867333 I I #
coedge $-1 $297 $427 $566 $567 reversed $69 $-1 #
coedge $-1 $298 $568 $300 $436 forward $423 $-1 #
straight-curve $-1 12.320555051085348 -59.327790164878934 74.947862866352637 -0.9063077870366496 0.42261826174070005 0 I I #
coedge $-1 $445 $300 $569 $570 forward $301 $-1 #
edge $-1 $571 -81.551525423167234 $303 -49.121626421691943 $300 $572 forward 7 unknown #
point $-1 65.666274944483135 -30.676830410373654 -58.336287256635792 #
point $-1 -49.121626421691943 -30.676830410373654 74.947862866352622 #
coedge $-1 $573 $305 $307 $443 forward $440 $-1 #
loop $-1 $-1 $439 $574 #
straight-curve $-1 52.564792610362176 -14.323717910267529 -74.947862866352622 0.10658128429143679 0.9943039926696402 0 I I #
coedge $-1 $307 $420 $575 $576 reversed $178 $-1 #
edge $-1 $308 -67.642353942287812 $577 -58.955111565116908 $439 $578 forward 7 unknown #
point $-1 56.994941835996698 27.00544313761355 -74.947862866352622 #
coedge $-1 $310 $435 $579 $580 reversed $301 $-1 #
coedge $-1 $451 $312 $581 $582 reversed $193 $-1 #
coedge $-1 $579 $573 $312 $448 forward $440 $-1 #
edge $-1 $583 -30.676830410373654 $449 30.676830410373654 $312 $584 forward 7 unknown #
vertex $-1 $313 $585 #
straight-curve $-1 81.551525423167234 -30.676830410373654 0 0 0 -1 I I #
coedge $-1 $314 $446 $586 $587 reversed $193 $-1 #
coedge $-1 $588 $545 $314 $453 reversed $589 $-1 #
edge $-1 $590 -74.947862866352622 $454 -40.170982236716284 $314 $450 forward 7 unknown #
vertex $-1 $546 $591 #
straight-curve $-1 81.551525423167249 -24.252771889524865 24.174689920223905 0 0.37266765228291476 -0.92796488130852262 I I #
face $-1 $592 $463 $27 $-1 $593 reversed single #
loop $-1 $-1 $472 $318 #
plane-surface $-1 0 0 74.947862866352622 0 0 1 1 0 0 forward_v I I I I #
coedge $-1 $321 $325 $594 $476 reversed $198 $-1 #
coedge $-1 $595 $594 $322 $461 forward $457 $-1 #
edge $-1 $466 -76.481188707119614 $464 -67.793946329948795 $460 $596 forward 7 unknown #
coedge $-1 $323 $597 $595 $598 reversed $463 $-1 #
loop $-1 $-1 $597 $456 #
vertex $-1 $598 $599 #
straight-curve $-1 37.261393648643214 -30.676830410373654 -25.354410091870371 0.65257353260173623 0 -0.75772540180971282 I I #
vertex $-1 $461 $600 #
straight-curve $-1 -68.085316201806947 -16.339749934492474 61.267057133325871 -0.53864836885441036 0.518022030372011 -0.66446302438867333 I I #
point $-1 -68.085316201806947 -16.339749934492474 61.267057133325871 #
convexity-sys-attrib $-1 $-1 $-1 $330 #
straight-curve $-1 -57.561337759678693 6.2289946659449296 70.330590931456129 0.39713126196710435 0.85165073963914595 0.3420201433256686 I I #
coedge $-1 $332 $331 $597 $601 reversed $319 $-1 #
coedge $-1 $594 $595 $331 $473 forward $457 $-1 #
edge $-1 $602 -87.1311278859217 $334 27.400387770978639 $472 $603 forward 7 unknown #
coedge $-1 $478 $336 $332 $475 forward $479 $-1 #
edge $-1 $209 -74.173250335482081 $604 17.238036307943055 $474 $605 forward 7 unknown #
edge $-1 $334 -9.1428230111924442 $466 35.845151610718922 $594 $606 forward 7 unknown #
point $-1 -52.200065723122833 17.726279651073348 74.947862866352622 #
coedge $-1 $336 $474 $482 $607 forward $479 $-1 #
loop $-1 $-1 $474 $592 #
vertex $-1 $339 $608 #
straight-curve $-1 81.551525423167234 -14.106232759221335 -42.558270806940889 0 0.9928918763093787 -0.11901983850955862 I I #
coedge $-1 $597 $338 $478 $607 reversed $463 $-1 #
straight-curve $-1 66.783334168464322 -30.676830410373654 -57.087087667994012 0.66658084771793358 0 0.74543274240916002 I I #
face $-1 $609 $508 $29 $-1 $610 reversed single #
loop $-1 $-1 $503 $342 #
plane-surface $-1 -81.551525423167234 0 0 1 0 0 0 0 -1 forward_v I I I I #
coedge $-1 $359 $611 $345 $488 forward $508 $-1 #
edge $-1 $494 58.955111565116908 $489 67.642353942287812 $487 $612 forward 7 unknown #
vertex $-1 $360 $613 #
straight-curve $-1 81.551525423167234 3.3891991751921893 -44.655481523609062 0.53864836885441036 -0.518022030372011 0.66446302438867333 I I #
coedge $-1 $614 $347 $611 $615 reversed $493 $-1 #
coedge $-1 $347 $616 $498 $496 forward $493 $-1 #
loop $-1 $-1 $614 $609 #
vertex $-1 $348 $617 #
straight-curve $-1 -38.501061838375804 30.676830410373654 26.793831138309141 0.65257353260173623 0 -0.75772540180971282 I I #
edge $-1 $618 -32.834703638550621 $350 -9.0037602007547228 $492 $619 forward 7 unknown #
point $-1 -65.666274944483121 30.676830410373654 58.33628725663575 #
coedge $-1 $499 $352 $492 $496 reversed $343 $-1 #
coedge $-1 $352 $498 $620 $621 reversed $343 $-1 #
convexity-sys-attrib $-1 $-1 $-1 $353 #
straight-curve $-1 -71.027546981038967 19.179545425245216 53.719015321739292 -0.39713126196710435 -0.85165073963914595 -0.3420201433256686 I I #
coedge $-1 $355 $354 $614 $622 reversed $213 $-1 #
coedge $-1 $620 $623 $354 $504 forward $485 $-1 #
edge $-1 $624 -27.358641376071894 $357 64.052645267353242 $503 $625 forward 7 unknown #
coedge $-1 $611 $359 $355 $506 forward $508 $-1 #
edge $-1 $224 -18.561553006146827 $626 95.969962650753587 $505 $627 forward 7 unknown #
point $-1 -81.551525423167234 -3.3891991751921715 44.655481523608998 #
loop $-1 $-1 $505 $484 #
straight-curve $-1 52.564792610362176 -14.323717910267529 -74.947862866352622 -0.10658128429143679 -0.9943039926696402 0 I I #
coedge $-1 $379 $377 $628 $629 forward $364 $-1 #
coedge $-1 $630 $366 $525 $631 forward $229 $-1 #
coedge $-1 $366 $630 $532 $632 forward $229 $-1 #
coedge $-1 $533 $526 $366 $514 reversed $396 $-1 #
edge $633 $634 -90 $635 90 $513 $636 forward 7 unknown #
coedge $-1 $368 $367 $630 $637 reversed $133 $-1 #
edge $-1 $518 -5.5 $638 5.5 $388 $639 forward 7 unknown #
edge $640 $519 -5.5 $641 5.5 $368 $642 forward 7 unknown #
vertex $-1 $370 $643 #
vertex $-1 $370 $644 #
straight-curve $-1 0 20 5.5 -1 0 0 I I #
ellipse-curve $-1 90 13 5.5 -1 0 0 0 4.94974746830583 4.94974746830583 1 I I #
attrib_edge_convexity-kcp-attrib $-1 $645 $-1 $372 1 #
ellipse-curve $-1 -90 13 5.5 1 0 0 0 4.94974746830583 4.94974746830583 1 I I #
convexity-sys-attrib $-1 $-1 $373 $234 #
coedge $-1 $376 $375 $511 $631 reversed $57 $-1 #
coedge $-1 $513 $628 $376 $527 forward $396 $-1 #
edge $646 $529 -13 $635 13 $376 $647 forward 7 unknown #
attrib_edge_convexity-kcp-attrib $-1 $648 $-1 $378 1 #
vertex $-1 $378 $649 #
ellipse-curve $-1 -90 -13 -5.5 1 0 0 0 -4.94974746830583 -4.94974746830583 1 I I #
convexity-sys-attrib $-1 $-1 $380 $238 #
coedge $-1 $388 $384 $512 $632 reversed $149 $-1 #
coedge $-1 $628 $513 $384 $534 forward $396 $-1 #
edge $650 $634 -13 $535 13 $384 $651 forward 7 unknown #
vertex $-1 $534 $652 #
ellipse-curve $-1 90 -13 -5.5 -1 0 0 0 -4.94974746830583 -4.94974746830583 1 I I #
straight-curve $-1 -81.551525423167234 30.676830410373654 0 0 0 -1 I I #
point $-1 -81.551525423167234 -30.676830410373654 -74.947862866352622 #
straight-curve $-1 -81.551525423167234 0 -74.947862866352622 0 1 0 I I #
point $-1 -81.551525423167234 30.676830410373654 -74.947862866352622 #
face $-1 $653 $654 $25 $-1 $543 reversed single #
loop $-1 $-1 $560 $414 #
plane-surface $-1 0 30.676830410373654 0 0 -1 0 0 0 -1 forward_v I I I I #
coedge $-1 $420 $416 $422 $556 reversed $178 $-1 #
coedge $-1 $452 $588 $416 $546 forward $589 $-1 #
edge $-1 $655 22.310517282009172 $454 68.206933776133553 $545 $656 forward 7 unknown #
coedge $-1 $566 $657 $417 $548 forward $658 $-1 #
edge $-1 $659 -24.107028583664434 $549 10.202880076471549 $547 $660 forward 7 unknown #
vertex $-1 $567 $661 #
straight-curve $-1 -68.085316201806947 -16.339749934492474 61.267057133325871 -0.53864836885441036 0.518022030372011 -0.66446302438867333 I I #
coedge $-1 $662 $575 $419 $552 forward $654 $-1 #
edge $-1 $553 9.0037602007547228 $659 32.834703638550621 $551 $663 forward 7 unknown #
vertex $-1 $552 $664 #
straight-curve $-1 -52.200065723122833 17.726279651073348 74.947862866352622 -0.53864836885441036 0.518022030372011 -0.66446302438867333 I I #
coedge $-1 $586 $422 $588 $665 forward $423 $-1 #
edge $-1 $425 -27.400387770978639 $655 87.1311278859217 $422 $666 forward 7 unknown #
face $-1 $574 $423 $25 $-1 $667 forward single #
point $-1 -56.994941835996649 -27.005443137613579 74.947862866352622 #
point $-1 -52.200065723122833 17.726279651073348 74.947862866352622 #
coedge $-1 $668 $669 $427 $561 forward $542 $-1 #
edge $-1 $670 -66.307273235519531 $563 -20.410856741395211 $560 $671 forward 7 unknown #
coedge $-1 $428 $672 $668 $673 forward $440 $-1 #
vertex $-1 $561 $674 #
straight-curve $-1 35.377585694158469 -9.8818283844077452 -74.947862866352622 0.9063077870366496 -0.42261826174070005 0 I I #
point $-1 52.200065723122876 -17.726279651073376 -74.947862866352622 #
coedge $-1 $675 $547 $432 $567 forward $658 $-1 #
edge $-1 $549 -64.052645267353242 $670 27.358641376071894 $566 $676 forward 7 unknown #
coedge $-1 $433 $677 $678 $679 forward $423 $-1 #
coedge $-1 $678 $680 $435 $570 reversed $658 $-1 #
edge $-1 $571 -74.947862866352622 $681 74.947862866352622 $569 $682 forward 7 unknown #
vertex $-1 $679 $683 #
straight-curve $-1 0 -30.676830410373654 74.947862866352622 1 0 0 I I #
coedge $-1 $447 $439 $684 $685 forward $440 $-1 #
face $-1 $686 $440 $25 $-1 $687 reversed single #
coedge $-1 $551 $684 $442 $576 forward $654 $-1 #
edge $-1 $577 -134.27251318441625 $553 41.6278193168557 $575 $688 forward 7 unknown #
vertex $-1 $685 $689 #
straight-curve $-1 -4.3098502753879728 55.592337180752409 -74.947862866352622 -0.9063077870366496 0.42261826174070005 0 I I #
coedge $-1 $672 $447 $445 $580 forward $440 $-1 #
edge $-1 $449 -81.551525423167234 $681 81.551525423167234 $445 $690 forward 7 unknown #
coedge $-1 $684 $691 $446 $582 forward $654 $-1 #
edge $-1 $692 -74.947862866352622 $583 74.947862866352622 $446 $693 forward 7 unknown #
vertex $-1 $448 $694 #
straight-curve $-1 81.551525423167234 0 -74.947862866352622 0 -1 0 I I #
point $-1 81.551525423167234 -30.676830410373654 -74.947862866352622 #
coedge $-1 $677 $555 $451 $587 forward $423 $-1 #
edge $-1 $590 -30.676830410373654 $692 30.676830410373654 $451 $695 forward 7 unknown #
coedge $-1 $545 $452 $555 $665 reversed $589 $-1 #
loop $-1 $-1 $545 $686 #
vertex $-1 $587 $696 #
point $-1 81.551525423167234 -30.676830410373654 40.170982236716284 #
face $-1 $-1 $479 $27 $-1 $697 reversed single #
plane-surface $-1 0 -30.676830410373654 0 0 1 0 0 0 1 forward_v I I I I #
coedge $-1 $460 $472 $459 $476 forward $457 $-1 #
coedge $-1 $472 $460 $462 $598 forward $457 $-1 #
straight-curve $-1 12.320555051085348 -59.327790164878934 74.947862866352637 0.9063077870366496 -0.42261826174070005 0 I I #
coedge $-1 $462 $482 $471 $601 forward $463 $-1 #
edge $-1 $464 -49.121626421691943 $602 51.600738777835922 $462 $698 forward 7 unknown #
point $-1 -49.121626421691943 -30.676830410373654 74.947862866352622 #
point $-1 -56.994941835996649 -27.005443137613579 74.947862866352622 #
edge $-1 $604 -68.206933776133553 $602 -22.310517282009172 $597 $699 forward 7 unknown #
vertex $-1 $601 $700 #
straight-curve $-1 -27.366880918461099 6.1463754002812188 74.947862866352622 -0.9063077870366496 0.42261826174070005 0 I I #
vertex $-1 $607 $701 #
straight-curve $-1 81.551525423167249 -24.252771889524865 24.174689920223905 0 -0.37266765228291476 0.92796488130852262 I I #
straight-curve $-1 -53.174519541705038 8.6355342267728403 74.947862866352622 -0.10658128429143679 -0.9943039926696402 0 I I #
edge $-1 $604 -40.170982236716284 $480 40.571921735602025 $478 $702 forward 7 unknown #
point $-1 81.551525423167234 -30.676830410373654 -40.571921735602025 #
face $-1 $-1 $493 $29 $-1 $703 reversed single #
plane-surface $-1 0 0 -74.947862866352622 0 0 1 1 0 0 forward_v I I I I #
coedge $-1 $487 $505 $491 $615 forward $508 $-1 #
straight-curve $-1 -4.3098502753879728 55.592337180752409 -74.947862866352622 0.9063077870366496 -0.42261826174070005 0 I I #
point $-1 56.994941835996698 27.00544313761355 -74.947862866352622 #
coedge $-1 $616 $491 $502 $622 forward $493 $-1 #
edge $-1 $626 -51.600738777835922 $494 49.121626421691921 $491 $704 forward 7 unknown #
coedge $-1 $492 $614 $623 $705 reversed $493 $-1 #
point $-1 49.121626421691921 30.676830410373654 -74.947862866352622 #
vertex $-1 $705 $706 #
straight-curve $-1 -59.664540837215057 30.676830410373654 65.0479849150788 0.66658084771793358 0 0.74543274240916002 I I #
coedge $-1 $623 $503 $499 $621 forward $485 $-1 #
edge $-1 $357 -10.202880076471549 $618 24.107028583664434 $620 $707 forward 7 unknown #
edge $-1 $626 20.410856741395211 $624 66.307273235519531 $614 $708 forward 7 unknown #
coedge $-1 $503 $620 $616 $705 forward $485 $-1 #
vertex $-1 $622 $709 #
straight-curve $-1 -81.551525423167234 20.481149759102731 -14.783123839407356 0 -0.37266765228291476 0.92796488130852262 I I #
vertex $-1 $615 $710 #
straight-curve $-1 35.377585694158469 -9.8818283844077452 -74.947862866352622 -0.9063077870366496 0.42261826174070005 0 I I #
coedge $-1 $526 $533 $510 $629 reversed $396 $-1 #
edge $711 $529 -90 $535 90 $628 $712 forward 7 unknown #
coedge $-1 $512 $511 $515 $637 forward $229 $-1 #
edge $713 $635 -0.78539816339744828 $641 0.78539816339744828 $525 $714 forward 7 unknown #
edge $-1 $638 -0.78539816339744828 $634 0.78539816339744828 $532 $715 forward 7 unknown #
attrib_edge_convexity-kcp-attrib $-1 $716 $-1 $514 3 #
vertex $-1 $514 $717 #
vertex $-1 $527 $718 #
straight-curve $-1 0 13 -12.5 -1 0 0 I I #
edge $-1 $641 -90 $638 90 $515 $719 forward 7 unknown #
vertex $-1 $516 $720 #
straight-curve $-1 90 20 0 0 0 -1 I I #
attrib_edge_convexity-kcp-attrib $-1 $721 $-1 $517 1 #
vertex $-1 $517 $722 #
straight-curve $-1 -90 20 0 0 0 -1 I I #
point $-1 90 20 5.5 #
point $-1 -90 20 5.5 #
convexity-sys-attrib $-1 $-1 $522 $372 #
attrib_edge_convexity-kcp-attrib $-1 $723 $-1 $527 1 #
straight-curve $-1 -90 0 -12.5 0 1 0 I I #
convexity-sys-attrib $-1 $-1 $528 $378 #
point $-1 -90 -13 -12.5 #
attrib_edge_convexity-kcp-attrib $-1 $724 $-1 $534 1 #
straight-curve $-1 90 0 -12.5 0 -1 0 I I #
point $-1 90 -13 -12.5 #
face $-1 $557 $658 $25 $-1 $725 reversed single #
loop $-1 $-1 $575 $541 #
vertex $-1 $665 $726 #
straight-curve $-1 37.041485700943113 -30.67683041037365 91.853108538445568 0.65257353260173623 0 -0.75772540180971282 I I #
coedge $-1 $547 $678 $662 $727 forward $658 $-1 #
loop $-1 $-1 $547 $653 #
vertex $-1 $548 $728 #
straight-curve $-1 -81.551525423167234 6.7411575676952493 43.441136384575032 0 -0.9928918763093787 0.11901983850955862 I I #
point $-1 -81.551525423167234 -3.3891991751921715 44.655481523608998 #
coedge $-1 $691 $551 $657 $727 reversed $654 $-1 #
straight-curve $-1 -59.664540837215057 30.676830410373654 65.0479849150788 -0.66658084771793358 0 -0.74543274240916002 I I #
point $-1 -65.666274944483121 30.676830410373654 58.33628725663575 #
edge $-1 $655 51.600738777835922 $590 81.551525423167234 $588 $572 forward 7 unknown #
straight-curve $-1 -27.366880918461099 6.1463754002812188 74.947862866352622 0.9063077870366496 -0.42261826174070005 0 I I #
plane-surface $-1 0 0 74.947862866352622 0 0 1 1 0 0 forward_v I I I I #
coedge $-1 $669 $560 $562 $673 reversed $542 $-1 #
coedge $-1 $560 $668 $675 $729 reversed $542 $-1 #
vertex $-1 $729 $730 #
straight-curve $-1 -38.281153890675711 30.676830410373654 -90.413687492006815 0.65257353260173623 0 -0.75772540180971282 I I #
coedge $-1 $562 $579 $680 $731 forward $440 $-1 #
edge $-1 $732 -81.551525423167234 $563 -51.600738777835922 $668 $733 forward 7 unknown #
point $-1 -51.600738777835922 30.676830410373654 -74.947862866352622 #
coedge $-1 $680 $566 $669 $729 forward $658 $-1 #
straight-curve $-1 -81.551525423167234 20.481149759102731 -14.783123839407356 0 0.37266765228291476 -0.92796488130852262 I I #
coedge $-1 $568 $586 $691 $734 forward $423 $-1 #
coedge $-1 $657 $569 $568 $679 reversed $658 $-1 #
edge $-1 $735 -30.676830410373654 $571 30.676830410373654 $678 $736 forward 7 unknown #
coedge $-1 $569 $675 $672 $731 reversed $658 $-1 #
vertex $-1 $731 $737 #
straight-curve $-1 -81.551525423167234 -30.676830410373654 0 0 0 -1 I I #
point $-1 -81.551525423167234 -30.676830410373654 74.947862866352622 #
coedge $-1 $575 $581 $573 $685 reversed $654 $-1 #
edge $-1 $577 49.121626421691921 $583 81.551525423167234 $684 $733 forward 7 unknown #
face $-1 $-1 $589 $25 $-1 $415 reversed single #
plane-surface $-1 0 0 -74.947862866352622 0 0 1 1 0 0 forward_v I I I I #
straight-curve $-1 -38.501061838375804 30.676830410373654 26.793831138309141 -0.65257353260173623 0 0.75772540180971282 I I #
point $-1 49.121626421691921 30.676830410373654 -74.947862866352622 #
straight-curve $-1 0 -30.676830410373654 -74.947862866352622 -1 0 0 I I #
coedge $-1 $581 $662 $677 $734 reversed $654 $-1 #
vertex $-1 $587 $738 #
straight-curve $-1 81.551525423167234 30.676830410373654 0 0 0 -1 I I #
point $-1 81.551525423167234 30.676830410373654 -74.947862866352622 #
straight-curve $-1 81.551525423167234 0 74.947862866352622 0 1 0 I I #
point $-1 81.551525423167234 -30.676830410373654 74.947862866352622 #
plane-surface $-1 81.551525423167234 0 0 -1 0 0 0 0 1 forward_v I I I I #
straight-curve $-1 0 -30.676830410373654 74.947862866352622 1 0 0 I I #
straight-curve $-1 37.041485700943113 -30.67683041037365 91.853108538445568 -0.65257353260173623 0 0.75772540180971282 I I #
point $-1 51.600738777835922 -30.676830410373654 74.947862866352622 #
point $-1 81.551525423167234 -30.676830410373654 40.170982236716284 #
straight-curve $-1 81.551525423167234 -30.676830410373654 0 0 0 -1 I I #
plane-surface $-1 0 30.676830410373654 0 0 -1 0 0 0 -1 forward_v I I I I #
straight-curve $-1 0 30.676830410373654 -74.947862866352622 1 0 0 I I #
edge $-1 $618 -40.571921735601983 $624 40.170982236716348 $616 $739 forward 7 unknown #
point $-1 -81.551525423167234 30.676830410373654 40.571921735601983 #
straight-curve $-1 -81.551525423167234 6.7411575676952493 43.441136384575032 0 0.9928918763093787 -0.11901983850955862 I I #
straight-curve $-1 -38.281153890675711 30.676830410373654 -90.413687492006815 -0.65257353260173623 0 0.75772540180971282 I I #
point $-1 -81.551525423167234 30.676830410373654 -40.170982236716348 #
point $-1 -51.600738777835922 30.676830410373654 -74.947862866352622 #
attrib_edge_convexity-kcp-attrib $-1 $740 $-1 $629 3 #
straight-curve $-1 0 -13 -12.5 1 0 0 I I #
attrib_edge_convexity-kcp-attrib $-1 $741 $-1 $631 1 #
ellipse-curve $-1 -90 13 -5.5 1 0 0 0 4.94974746830583 -4.94974746830583 1 I I #
ellipse-curve $-1 90 13 -5.5 -1 0 0 0 4.94974746830583 -4.94974746830583 1 I I #
convexity-sys-attrib $-1 $-1 $633 $514 #
point $-1 90 13 -12.5 #
point $-1 -90 13 -12.5 #
straight-curve $-1 0 20 -5.5 1 0 0 I I #
point $-1 90 20 -5.5 #
convexity-sys-attrib $-1 $-1 $640 $517 #
point $-1 -90 20 -5.5 #
convexity-sys-attrib $-1 $-1 $646 $527 #
convexity-sys-attrib $-1 $-1 $650 $534 #
plane-surface $-1 -81.551525423167234 0 0 1 0 0 0 0 -1 forward_v I I I I #
point $-1 51.600738777835922 -30.676830410373654 74.947862866352622 #
edge $-1 $735 -74.947862866352622 $659 -40.571921735601983 $662 $742 forward 7 unknown #
point $-1 -81.551525423167234 30.676830410373654 40.571921735601983 #
edge $-1 $670 40.170982236716348 $732 74.947862866352622 $669 $742 forward 7 unknown #
point $-1 -81.551525423167234 30.676830410373654 -40.170982236716348 #
edge $-1 $681 -30.676830410373654 $732 30.676830410373654 $680 $743 forward 7 unknown #
vertex $-1 $673 $744 #
straight-curve $-1 0 30.676830410373654 -74.947862866352622 1 0 0 I I #
edge $-1 $692 -81.551525423167234 $735 81.551525423167234 $691 $745 forward 7 unknown #
vertex $-1 $734 $746 #
straight-curve $-1 -81.551525423167234 0 74.947862866352622 0 -1 0 I I #
point $-1 -81.551525423167234 -30.676830410373654 -74.947862866352622 #
point $-1 81.551525423167234 30.676830410373654 74.947862866352622 #
straight-curve $-1 -81.551525423167234 30.676830410373654 0 0 0 -1 I I #
convexity-sys-attrib $-1 $-1 $711 $629 #
convexity-sys-attrib $-1 $-1 $713 $631 #
straight-curve $-1 -81.551525423167234 30.676830410373654 0 0 0 -1 I I #
straight-curve $-1 -81.551525423167234 0 -74.947862866352622 0 1 0 I I #
point $-1 -81.551525423167234 30.676830410373654 -74.947862866352622 #
straight-curve $-1 0 30.676830410373654 74.947862866352622 -1 0 0 I I #
point $-1 -81.551525423167234 30.676830410373654 74.947862866352622 #
End-of-ACIS-data 