106 0 1 0           
body $-1 $1 $-1 $-1 #
lump $-1 $-1 $2 $0 #
shell $-1 $-1 $-1 $3 $1 #
face $-1 $4 $5 $2 $-1 $6 forward single #
face $-1 $7 $8 $2 $-1 $9 forward single #
loop $-1 $-1 $10 $3 #
plane-surface $-1 0 20 0 0 0 1 1 0 0 0 I I I I #
face $-1 $11 $12 $2 $-1 $13 forward single #
loop $-1 $-1 $14 $4 #
cone-surface $-1 0 20 -10 0 0 1 20 0 0 1 I I 0 1 0 I I I I #
coedge $-1 $15 $15 $16 $17 1 $5 $-1 #
face $-1 $18 $19 $2 $-1 $20 forward single #
loop $-1 $-1 $21 $7 #
plane-surface $-1 0 -20 0 0 1 0 0 0 1 0 I I I I #
coedge $-1 $22 $23 $24 $25 1 $8 $-1 #
coedge $-1 $10 $10 $22 $26 0 $5 $-1 #
coedge $-1 $24 $27 $10 $17 0 $28 $-1 #
edge $-1 $29 $30 $16 $31 0 #
face $-1 $32 $28 $2 $-1 $33 forward single #
loop $-1 $-1 $34 $11 #
plane-surface $-1 -40 0 0 1 0 0 0 0 -1 0 I I I I #
coedge $-1 $35 $36 $37 $38 1 $12 $-1 #
coedge $-1 $39 $14 $15 $26 1 $8 $-1 #
coedge $-1 $14 $39 $40 $41 1 $8 $-1 #
coedge $-1 $42 $16 $14 $25 0 $28 $-1 #
edge $-1 $30 $43 $24 $44 0 #
edge $-1 $29 $30 $15 $45 0 #
coedge $-1 $16 $46 $39 $47 0 $28 $-1 #
loop $-1 $-1 $24 $18 #
vertex $-1 $17 $48 #
vertex $-1 $17 $49 #
straight-curve $-1 0 20 0 1 0 0 I I #
face $-1 $50 $51 $2 $-1 $52 forward single #
plane-surface $-1 0 20 0 0 -1 0 0 0 -1 0 I I I I #
coedge $-1 $53 $54 $55 $56 1 $19 $-1 #
coedge $-1 $57 $21 $58 $59 1 $12 $-1 #
coedge $-1 $21 $57 $60 $61 1 $12 $-1 #
coedge $-1 $54 $53 $21 $38 0 $19 $-1 #
edge $-1 $62 $63 $37 $64 0 #
coedge $-1 $23 $22 $27 $47 1 $8 $-1 #
coedge $-1 $65 $66 $23 $41 0 $67 $-1 #
edge $-1 $43 $68 $40 $69 0 #
coedge $-1 $70 $24 $66 $71 1 $28 $-1 #
vertex $-1 $71 $72 #
straight-curve $-1 20 20 -10 0 0 -1 I I #
ellipse-curve $-1 0 20 0 0 0 1 20 0 0 1 I I #
coedge $-1 $27 $55 $65 $73 1 $28 $-1 #
edge $-1 $68 $29 $27 $74 0 #
point $-1 -20 20 0 #
point $-1 20 20 0 #
face $-1 $75 $76 $2 $-1 $77 forward single #
loop $-1 $-1 $78 $32 #
plane-surface $-1 40 0 0 -1 0 0 0 0 1 0 I I I I #
coedge $-1 $37 $34 $79 $80 1 $19 $-1 #
coedge $-1 $34 $37 $81 $82 1 $19 $-1 #
coedge $-1 $46 $83 $34 $56 0 $28 $-1 #
edge $-1 $84 $85 $55 $86 0 #
coedge $-1 $36 $35 $78 $87 0 $12 $-1 #
coedge $-1 $79 $88 $35 $59 0 $76 $-1 #
edge $-1 $89 $62 $58 $90 0 #
coedge $-1 $91 $81 $36 $61 0 $67 $-1 #
edge $-1 $63 $92 $60 $93 0 #
vertex $-1 $59 $94 #
vertex $-1 $61 $95 #
straight-curve $-1 -40 -20 0 0 0 -1 I I #
coedge $-1 $81 $40 $46 $73 0 $67 $-1 #
coedge $-1 $40 $91 $42 $71 0 $67 $-1 #
loop $-1 $96 $60 $75 #
vertex $-1 $73 $97 #
ellipse-curve $-1 0 20 -20 0 0 -1 20 0 0 1 I I #
coedge $-1 $83 $42 $98 $99 1 $28 $-1 #
edge $-1 $100 $43 $66 $101 0 #
point $-1 20 20 -20 #
edge $-1 $68 $85 $65 $101 0 #
straight-curve $-1 -20 20 -10 0 0 1 I I #
face $-1 $102 $67 $2 $-1 $103 reversed single #
loop $-1 $104 $58 $50 #
plane-surface $-1 0 0 20 0 0 1 1 0 0 0 I I I I #
coedge $-1 $105 $106 $57 $87 1 $51 $-1 #
coedge $-1 $107 $58 $53 $80 0 $76 $-1 #
edge $-1 $62 $84 $79 $108 0 #
coedge $-1 $60 $65 $54 $82 0 $67 $-1 #
edge $-1 $85 $63 $81 $109 0 #
coedge $-1 $55 $70 $107 $110 1 $28 $-1 #
vertex $-1 $80 $111 #
vertex $-1 $82 $112 #
straight-curve $-1 -40 20 0 0 0 -1 I I #
edge $-1 $89 $92 $78 $113 0 #
coedge $-1 $58 $107 $105 $114 0 $76 $-1 #
vertex $-1 $59 $115 #
straight-curve $-1 0 -20 20 -1 0 0 I I #
coedge $-1 $66 $60 $106 $116 0 $67 $-1 #
vertex $-1 $61 $117 #
straight-curve $-1 0 -20 -20 1 0 0 I I #
point $-1 -40 -20 20 #
point $-1 -40 -20 -20 #
loop $-1 $-1 $118 $75 #
point $-1 -20 20 -20 #
coedge $-1 $106 $105 $70 $99 0 $51 $-1 #
edge $-1 $119 $100 $98 $120 0 #
vertex $-1 $71 $121 #
straight-curve $-1 0 20 -20 -1 0 0 I I #
face $-1 $122 $123 $2 $-1 $124 reversed single #
plane-surface $-1 0 0 -20 0 0 1 1 0 0 0 I I I I #
loop $-1 $-1 $125 $50 #
coedge $-1 $98 $78 $88 $114 1 $51 $-1 #
coedge $-1 $78 $98 $91 $116 1 $51 $-1 #
coedge $-1 $88 $79 $83 $110 0 $76 $-1 #
straight-curve $-1 -40 0 20 0 1 0 I I #
straight-curve $-1 -40 0 -20 0 -1 0 I I #
edge $-1 $84 $119 $107 $126 0 #
point $-1 -40 20 20 #
point $-1 -40 20 -20 #
straight-curve $-1 40 -20 0 0 0 -1 I I #
edge $-1 $119 $89 $88 $127 0 #
point $-1 40 -20 20 #
edge $-1 $92 $100 $91 $128 0 #
point $-1 40 -20 -20 #
coedge $-1 $129 $130 $131 $132 0 $96 $-1 #
vertex $-1 $110 $133 #
straight-curve $-1 40 20 0 0 0 -1 I I #
point $-1 40 20 -20 #
face $-1 $134 $135 $2 $-1 $136 reversed single #
loop $-1 $-1 $137 $102 #
plane-surface $-1 0 -30 0 0 1 0 0 0 1 0 I I I I #
coedge $-1 $138 $139 $140 $141 0 $104 $-1 #
straight-curve $-1 0 20 20 1 0 0 I I #
straight-curve $-1 40 0 20 0 -1 0 I I #
straight-curve $-1 40 0 -20 0 1 0 I I #
coedge $-1 $142 $118 $143 $144 0 $96 $-1 #
coedge $-1 $118 $142 $145 $146 0 $96 $-1 #
coedge $-1 $147 $148 $118 $132 1 $149 $-1 #
edge $-1 $150 $151 $131 $152 0 #
point $-1 40 20 20 #
face $-1 $153 $154 $2 $-1 $155 reversed single #
loop $-1 $-1 $156 $122 #
plane-surface $-1 -60 0 0 1 0 0 0 0 -1 0 I I I I #
coedge $-1 $143 $157 $158 $159 0 $123 $-1 #
coedge $-1 $160 $125 $161 $162 0 $104 $-1 #
coedge $-1 $125 $160 $157 $163 0 $104 $-1 #
coedge $-1 $148 $147 $125 $141 1 $149 $-1 #
edge $-1 $164 $165 $140 $166 0 #
coedge $-1 $130 $129 $167 $168 0 $96 $-1 #
coedge $-1 $169 $137 $129 $144 1 $123 $-1 #
edge $-1 $151 $170 $143 $171 0 #
coedge $-1 $172 $173 $130 $146 1 $154 $-1 #
edge $-1 $174 $150 $145 $175 0 #
coedge $-1 $140 $131 $173 $176 1 $149 $-1 #
coedge $-1 $131 $140 $169 $177 0 $149 $-1 #
loop $-1 $-1 $148 $153 #
vertex $-1 $132 $178 #
vertex $-1 $177 $179 #
straight-curve $-1 60 0 -20 0 -1 0 I I #
face $-1 $-1 $149 $2 $-1 $180 reversed single #
loop $-1 $-1 $173 $134 #
plane-surface $-1 0 30 0 0 -1 0 0 0 -1 0 I I I I #
coedge $-1 $167 $181 $172 $182 0 $135 $-1 #
coedge $-1 $137 $169 $139 $163 1 $123 $-1 #
coedge $-1 $181 $167 $137 $159 1 $135 $-1 #
edge $-1 $183 $170 $158 $184 0 #
coedge $-1 $139 $138 $181 $185 0 $104 $-1 #
coedge $-1 $173 $172 $138 $162 1 $154 $-1 #
edge $-1 $165 $186 $161 $187 0 #
edge $-1 $183 $164 $157 $188 0 #
vertex $-1 $141 $189 #
vertex $-1 $141 $190 #
straight-curve $-1 60 0 20 0 1 0 I I #
coedge $-1 $158 $156 $142 $168 1 $135 $-1 #
edge $-1 $170 $174 $167 $191 0 #
coedge $-1 $157 $143 $148 $177 1 $123 $-1 #
vertex $-1 $168 $192 #
straight-curve $-1 0 -30 -20 -1 0 0 I I #
coedge $-1 $161 $145 $156 $182 1 $154 $-1 #
coedge $-1 $145 $161 $147 $176 0 $154 $-1 #
vertex $-1 $146 $193 #
straight-curve $-1 0 30 -20 1 0 0 I I #
edge $-1 $165 $150 $147 $194 0 #
edge $-1 $164 $151 $148 $195 0 #
point $-1 60 30 -20 #
point $-1 60 -30 -20 #
plane-surface $-1 60 0 0 -1 0 0 0 0 1 0 I I I I #
coedge $-1 $156 $158 $160 $185 1 $135 $-1 #
edge $-1 $186 $174 $172 $196 0 #
vertex $-1 $185 $197 #
straight-curve $-1 -60 -30 0 0 0 -1 I I #
edge $-1 $186 $183 $181 $198 0 #
vertex $-1 $162 $199 #
straight-curve $-1 0 30 20 -1 0 0 I I #
straight-curve $-1 0 -30 20 1 0 0 I I #
point $-1 60 -30 20 #
point $-1 60 30 20 #
straight-curve $-1 -60 0 -20 0 1 0 I I #
point $-1 -60 -30 -20 #
point $-1 -60 30 -20 #
straight-curve $-1 60 30 0 0 0 -1 I I #
straight-curve $-1 60 -30 0 0 0 -1 I I #
straight-curve $-1 -60 30 0 0 0 -1 I I #
point $-1 -60 -30 20 #
straight-curve $-1 -60 0 20 0 -1 0 I I #
point $-1 -60 30 20 #
End-of-ACIS-data 
