600 0 1 0           
81 GICL ACIS Healer - Source: /gicl/data5/repository/Heriot_Watt/ex04/ex04.sat - 6 0 18 ACIS 6.0.3 Solaris 24 Sat Apr 13 23:39:15 2002 
1 9.999999999999999547e-07 1.000000000000000036e-10 
body $-1 $1 $-1 $-1 #
lump $-1 $-1 $2 $0 #
shell $-1 $-1 $-1 $3 $-1 $1 #
face $-1 $4 $5 $2 $-1 $6 forward single #
face $-1 $7 $8 $2 $-1 $9 forward single #
loop $-1 $-1 $10 $3 #
plane-surface $-1 0 20 0 0 0 1 1 0 0 forward_v I I I I #
face $-1 $11 $12 $2 $-1 $13 forward single #
loop $-1 $-1 $14 $4 #
cone-surface $-1 0 20 -10 0 0 1 20 0 0 1 I I 0 1 20 forward I I I I #
coedge $-1 $15 $15 $16 $17 reversed $5 $-1 #
face $-1 $18 $19 $2 $-1 $20 forward single #
loop $-1 $-1 $21 $7 #
plane-surface $-1 0 -20 0 0 1 0 0 0 1 forward_v I I I I #
coedge $-1 $22 $23 $24 $25 reversed $8 $-1 #
coedge $-1 $10 $10 $22 $26 forward $5 $-1 #
coedge $-1 $24 $27 $10 $17 forward $28 $-1 #
edge $-1 $29 -20 $30 20 $16 $31 forward 7 unknown #
face $-1 $32 $28 $2 $-1 $33 forward single #
loop $-1 $-1 $34 $11 #
plane-surface $-1 -40 0 0 1 0 0 0 0 -1 forward_v I I I I #
coedge $-1 $35 $36 $37 $38 reversed $12 $-1 #
coedge $-1 $39 $14 $15 $26 reversed $8 $-1 #
coedge $-1 $14 $39 $40 $41 reversed $8 $-1 #
coedge $-1 $42 $16 $14 $25 forward $28 $-1 #
edge $-1 $30 -10 $43 10 $24 $44 forward 7 unknown #
edge $-1 $29 -3.141592653589793116 $30 0 $15 $45 forward 7 unknown #
coedge $-1 $16 $46 $39 $47 forward $28 $-1 #
loop $-1 $-1 $24 $18 #
vertex $-1 $17 $48 #
vertex $-1 $17 $49 #
straight-curve $-1 0 20 0 1 0 0 I I #
face $-1 $50 $51 $2 $-1 $52 forward single #
plane-surface $-1 0 20 0 0 -1 0 0 0 -1 forward_v I I I I #
coedge $-1 $53 $54 $55 $56 reversed $19 $-1 #
coedge $-1 $57 $21 $58 $59 reversed $12 $-1 #
coedge $-1 $21 $57 $60 $61 reversed $12 $-1 #
coedge $-1 $54 $53 $21 $38 forward $19 $-1 #
edge $-1 $62 -20 $63 20 $37 $64 forward 7 unknown #
coedge $-1 $23 $22 $27 $47 reversed $8 $-1 #
coedge $-1 $65 $66 $23 $41 forward $67 $-1 #
edge $-1 $43 0 $68 3.141592653589793116 $40 $69 forward 7 unknown #
coedge $-1 $70 $24 $66 $71 reversed $28 $-1 #
vertex $-1 $71 $72 #
straight-curve $-1 20 20 -10 0 0 -1 I I #
ellipse-curve $-1 0 20 0 0 0 1 20 0 0 1 I I #
coedge $-1 $27 $55 $65 $73 reversed $28 $-1 #
edge $-1 $68 -10 $29 10 $27 $74 forward 7 unknown #
point $-1 -20 20 0 #
point $-1 20 20 0 #
face $-1 $75 $76 $2 $-1 $77 forward single #
loop $-1 $-1 $78 $32 #
plane-surface $-1 40 0 0 -1 0 0 0 0 1 forward_v I I I I #
coedge $-1 $37 $34 $79 $80 reversed $19 $-1 #
coedge $-1 $34 $37 $81 $82 reversed $19 $-1 #
coedge $-1 $46 $83 $34 $56 forward $28 $-1 #
edge $-1 $84 -20 $85 20 $55 $86 forward 7 unknown #
coedge $-1 $36 $35 $78 $87 forward $12 $-1 #
coedge $-1 $79 $88 $35 $59 forward $76 $-1 #
edge $-1 $89 -40 $62 40 $58 $90 forward 7 unknown #
coedge $-1 $91 $81 $36 $61 forward $67 $-1 #
edge $-1 $63 -40 $92 40 $60 $93 forward 7 unknown #
vertex $-1 $59 $94 #
vertex $-1 $61 $95 #
straight-curve $-1 -40 -20 0 0 0 -1 I I #
coedge $-1 $81 $40 $46 $73 forward $67 $-1 #
coedge $-1 $40 $91 $42 $71 forward $67 $-1 #
loop $-1 $96 $60 $75 #
vertex $-1 $73 $97 #
ellipse-curve $-1 0 20 -20 0 0 -1 20 0 0 1 I I #
coedge $-1 $83 $42 $98 $99 reversed $28 $-1 #
edge $-1 $100 -40 $43 -20 $66 $101 forward 7 unknown #
point $-1 20 20 -20 #
edge $-1 $68 20 $85 40 $65 $101 forward 7 unknown #
straight-curve $-1 -20 20 -10 0 0 1 I I #
face $-1 $102 $67 $2 $-1 $103 reversed single #
loop $-1 $104 $58 $50 #
plane-surface $-1 0 0 20 0 0 1 1 0 0 forward_v I I I I #
coedge $-1 $105 $106 $57 $87 reversed $51 $-1 #
coedge $-1 $107 $58 $53 $80 forward $76 $-1 #
edge $-1 $62 -20 $84 20 $79 $108 forward 7 unknown #
coedge $-1 $60 $65 $54 $82 forward $67 $-1 #
edge $-1 $85 -20 $63 20 $81 $109 forward 7 unknown #
coedge $-1 $55 $70 $107 $110 reversed $28 $-1 #
vertex $-1 $80 $111 #
vertex $-1 $82 $112 #
straight-curve $-1 -40 20 0 0 0 -1 I I #
edge $-1 $89 -20 $92 20 $78 $113 forward 7 unknown #
coedge $-1 $58 $107 $105 $114 forward $76 $-1 #
vertex $-1 $59 $115 #
straight-curve $-1 0 -20 20 -1 0 0 I I #
coedge $-1 $66 $60 $106 $116 forward $67 $-1 #
vertex $-1 $61 $117 #
straight-curve $-1 0 -20 -20 1 0 0 I I #
point $-1 -40 -20 20 #
point $-1 -40 -20 -20 #
loop $-1 $-1 $118 $75 #
point $-1 -20 20 -20 #
coedge $-1 $106 $105 $70 $99 forward $51 $-1 #
edge $-1 $119 -20 $100 20 $98 $120 forward 7 unknown #
vertex $-1 $71 $121 #
straight-curve $-1 0 20 -20 -1 0 0 I I #
face $-1 $122 $123 $2 $-1 $124 reversed single #
plane-surface $-1 0 0 -20 0 0 1 1 0 0 forward_v I I I I #
loop $-1 $-1 $125 $50 #
coedge $-1 $98 $78 $88 $114 reversed $51 $-1 #
coedge $-1 $78 $98 $91 $116 reversed $51 $-1 #
coedge $-1 $88 $79 $83 $110 forward $76 $-1 #
straight-curve $-1 -40 0 20 0 1 0 I I #
straight-curve $-1 -40 0 -20 0 -1 0 I I #
edge $-1 $84 -40 $119 40 $107 $126 forward 7 unknown #
point $-1 -40 20 20 #
point $-1 -40 20 -20 #
straight-curve $-1 40 -20 0 0 0 -1 I I #
edge $-1 $119 -20 $89 20 $88 $127 forward 7 unknown #
point $-1 40 -20 20 #
edge $-1 $92 -20 $100 20 $91 $128 forward 7 unknown #
point $-1 40 -20 -20 #
coedge $-1 $129 $130 $131 $132 forward $96 $-1 #
vertex $-1 $110 $133 #
straight-curve $-1 40 20 0 0 0 -1 I I #
point $-1 40 20 -20 #
face $-1 $134 $135 $2 $-1 $136 reversed single #
loop $-1 $-1 $137 $102 #
plane-surface $-1 0 -30 0 0 1 0 0 0 1 forward_v I I I I #
coedge $-1 $138 $139 $140 $141 forward $104 $-1 #
straight-curve $-1 0 20 20 1 0 0 I I #
straight-curve $-1 40 0 20 0 -1 0 I I #
straight-curve $-1 40 0 -20 0 1 0 I I #
coedge $-1 $142 $118 $143 $144 forward $96 $-1 #
coedge $-1 $118 $142 $145 $146 forward $96 $-1 #
coedge $-1 $147 $148 $118 $132 reversed $149 $-1 #
edge $-1 $150 -30 $151 30 $131 $152 forward 7 unknown #
point $-1 40 20 20 #
face $-1 $153 $154 $2 $-1 $155 reversed single #
loop $-1 $-1 $156 $122 #
plane-surface $-1 -60 0 0 1 0 0 0 0 -1 forward_v I I I I #
coedge $-1 $143 $157 $158 $159 forward $123 $-1 #
coedge $-1 $160 $125 $161 $162 forward $104 $-1 #
coedge $-1 $125 $160 $157 $163 forward $104 $-1 #
coedge $-1 $148 $147 $125 $141 reversed $149 $-1 #
edge $-1 $164 -30 $165 30 $140 $166 forward 7 unknown #
coedge $-1 $130 $129 $167 $168 forward $96 $-1 #
coedge $-1 $169 $137 $129 $144 reversed $123 $-1 #
edge $-1 $151 -60 $170 60 $143 $171 forward 7 unknown #
coedge $-1 $172 $173 $130 $146 reversed $154 $-1 #
edge $-1 $174 -60 $150 60 $145 $175 forward 7 unknown #
coedge $-1 $140 $131 $173 $176 reversed $149 $-1 #
coedge $-1 $131 $140 $169 $177 forward $149 $-1 #
loop $-1 $-1 $148 $153 #
vertex $-1 $132 $178 #
vertex $-1 $177 $179 #
straight-curve $-1 60 0 -20 0 -1 0 I I #
face $-1 $-1 $149 $2 $-1 $180 reversed single #
loop $-1 $-1 $173 $134 #
plane-surface $-1 0 30 0 0 -1 0 0 0 -1 forward_v I I I I #
coedge $-1 $167 $181 $172 $182 forward $135 $-1 #
coedge $-1 $137 $169 $139 $163 reversed $123 $-1 #
coedge $-1 $181 $167 $137 $159 reversed $135 $-1 #
edge $-1 $183 -20 $170 20 $158 $184 forward 7 unknown #
coedge $-1 $139 $138 $181 $185 forward $104 $-1 #
coedge $-1 $173 $172 $138 $162 reversed $154 $-1 #
edge $-1 $165 -60 $186 60 $161 $187 forward 7 unknown #
edge $-1 $183 -60 $164 60 $157 $188 forward 7 unknown #
vertex $-1 $141 $189 #
vertex $-1 $141 $190 #
straight-curve $-1 60 0 20 0 1 0 I I #
coedge $-1 $158 $156 $142 $168 reversed $135 $-1 #
edge $-1 $170 -30 $174 30 $167 $191 forward 7 unknown #
coedge $-1 $157 $143 $148 $177 reversed $123 $-1 #
vertex $-1 $168 $192 #
straight-curve $-1 0 -30 -20 -1 0 0 I I #
coedge $-1 $161 $145 $156 $182 reversed $154 $-1 #
coedge $-1 $145 $161 $147 $176 forward $154 $-1 #
vertex $-1 $146 $193 #
straight-curve $-1 0 30 -20 1 0 0 I I #
edge $-1 $165 -20 $150 20 $147 $194 forward 7 unknown #
edge $-1 $164 -20 $151 20 $148 $195 forward 7 unknown #
point $-1 60 30 -20 #
point $-1 60 -30 -20 #
plane-surface $-1 60 0 0 -1 0 0 0 0 1 forward_v I I I I #
coedge $-1 $156 $158 $160 $185 reversed $135 $-1 #
edge $-1 $186 -20 $174 20 $172 $196 forward 7 unknown #
vertex $-1 $185 $197 #
straight-curve $-1 -60 -30 0 0 0 -1 I I #
edge $-1 $186 -30 $183 30 $181 $198 forward 7 unknown #
vertex $-1 $162 $199 #
straight-curve $-1 0 30 20 -1 0 0 I I #
straight-curve $-1 0 -30 20 1 0 0 I I #
point $-1 60 -30 20 #
point $-1 60 30 20 #
straight-curve $-1 -60 0 -20 0 1 0 I I #
point $-1 -60 -30 -20 #
point $-1 -60 30 -20 #
straight-curve $-1 60 30 0 0 0 -1 I I #
straight-curve $-1 60 -30 0 0 0 -1 I I #
straight-curve $-1 -60 30 0 0 0 -1 I I #
point $-1 -60 -30 20 #
straight-curve $-1 -60 0 20 0 -1 0 I I #
point $-1 -60 30 20 #
End-of-ACIS-data 