**ABCDEFGHIJKLMNOPQRSTUVWXYZabcdefghijklmnopqrstuvwxyz**************************
**PARASOLID !"#$%&'()*+,-./:;<=>?@[\]^_`{|}~0123456789**************************
**PART1;MC=sun;MC_MODEL=Sun-3;MC_ID=unknown;OS=SunOS;OS_RELEASE=unknown;FRU=sdl_
parasolid_test_sun;APPL=unknown;SITE=sdl-cambridge-u.k.;USER=kramer;FORMAT=text;
GUISE=transmit;KEY=testrot;FILE=testrot.xmt_txt;DATE=5-nov-1990;
**PART2;SCH=SCH_210_1012;USFLD_SIZE=0;
**PART3;
**END_OF_HEADER*****************************************************************
T47 : TRANSMIT FILE created by modeller version 22012 SCH_210_10120 12 1 355 0 0
 0 0 0 1e3 1e-8 2 2 0 0 0 1 3 102 7 2 testrot13 3 96 0 1 0 4 5 6 7 8 9 14 4 245
 0 10 0 11 3 7 +16 5 265 0 12 0 13 8 18 6 289 0 14 0 15 9 51 7 305 0 4 16 0 0 +2
.355721603236735 2.199582733969435 1 0 0 1 .1 30 8 315 0 5 17 0 0 +2.21483839795
6185 2.21190841731268 1 0 0 -1 29 9 339 0 6 18 0 2.22716408129943 2.352791622593
23 1 29 18 340 0 15 19 9 2.83999963579461 2.867021710342465 1 18 15 290 0 20 6 2
1 18 29 19 341 0 21 22 18 2.27911715892484 2.13530397300078 1 18 21 291 0 23 15
 24 19 29 22 342 0 24 25 19 2.214838397956185 2.21190841731268 1 18 24 292 0 26
 21 27 22 29 25 343 0 27 28 22 2.98088284107516 2.85469602699922 1 18 27 293 0 2
9 24 30 25 29 28 344 0 30 31 25 3.045161602043815 2.77809158268732 1 18 30 294 0
 32 27 33 28 29 31 345 0 33 34 28 2.214838397956185 2.21190841731268 1.5 18 33 2
95 0 35 30 36 31 29 34 346 0 36 37 31 2.27911715892484 2.13530397300078 1.5 18 3
6 296 0 38 33 39 34 29 37 347 0 39 40 34 2.83999963579461 2.867021710342465 1.5
 18 39 297 0 41 36 42 37 29 40 348 0 42 43 37 2.22716408129943 2.35279162259323
 1.5 18 42 298 0 44 39 45 40 29 43 349 0 45 46 40 3.045161602043815 2.7780915826
8732 1.5 18 45 299 0 47 42 48 43 29 46 350 0 48 49 43 2.98088284107516 2.8546960
2699922 1.5 18 48 300 0 50 45 51 46 29 49 351 0 51 52 46 3.03283591870057 2.6372
0837740677 1 18 51 301 0 53 48 54 49 29 52 353 0 54 55 49 2.42000036420539 2.122
97828965754 1.5 18 54 303 0 56 51 57 52 29 55 354 0 57 58 52 3.03283591870057 2.
63720837740677 1.5 18 57 304 0 59 54 60 55 29 58 213 0 60 61 55 2.42000036420539
 2.12297828965754 1 18 60 211 0 62 57 63 58 29 61 62 0 63 64 58 2.65995205519135
5 1.21472546913179 1.5 18 63 60 0 65 60 66 61 29 64 55 0 66 67 61 0 0 1.5 18 66
 20 0 68 63 69 64 29 67 54 0 69 70 64 0 4.99 1.5 18 69 18 0 71 66 72 67 29 70 53
 0 72 73 67 5.26 4.99 1.5 18 72 16 0 74 69 75 70 29 73 52 0 75 76 70 5.26 0 1.5
 18 75 14 0 77 72 78 73 29 76 38 0 79 80 73 0 0 0 18 79 8 0 81 82 83 76 29 80 37
 0 82 84 76 0 4.99 0 18 82 10 0 85 78 79 80 29 84 36 0 78 86 80 5.26 4.99 0 18 7
8 12 0 87 75 82 84 29 86 35 0 83 88 84 5.26 0 0 18 83 7 0 89 79 90 86 29 88 191
 0 90 91 86 1.374376835818278 2.746814355369745 1 18 90 141 0 92 83 93 88 29 91
 192 0 93 94 88 2.600047944808645 3.77527453086821 1 18 93 142 0 95 90 96 91 29
 94 193 0 96 97 91 1.673769618227495 1.301005252534498 1 18 96 143 0 98 93 99 94
 29 97 194 0 99 100 94 1.28809705241557 1.760631918405885 1 18 99 144 0 101 96 1
02 97 29 100 195 0 102 103 97 3.586230381772505 3.688994747465505 1 18 102 145 0
 104 99 105 100 29 103 196 0 105 106 100 3.97190294758443 3.229368081594115 1 18
 105 146 0 107 102 108 103 29 106 197 0 108 109 103 1.28809705241557 1.760631918
405885 1.5 18 108 147 0 110 105 111 106 29 109 198 0 111 112 106 1.6737696182274
95 1.301005252534498 1.5 18 111 148 0 113 108 114 109 29 112 199 0 114 115 109 2
.600047944808645 3.77527453086821 1.5 18 114 149 0 116 111 117 112 29 115 200 0
 117 118 112 1.374376835818278 2.746814355369745 1.5 18 117 150 0 119 114 120 11
5 29 118 201 0 120 121 115 3.97190294758443 3.229368081594115 1.5 18 120 151 0 1
22 117 123 118 29 121 202 0 123 124 118 3.586230381772505 3.688994747465505 1.5
 18 123 152 0 125 120 126 121 29 124 203 0 126 127 121 3.88562316418172 2.243185
644630255 1 18 126 153 0 128 123 129 124 29 127 204 0 129 130 124 2.659952055191
355 1.21472546913179 1 18 129 154 0 131 126 132 127 29 130 206 0 132 0 127 3.885
62316418172 2.243185644630255 1.5 18 132 156 0 133 129 0 130 17 133 134 65 122 1
32 135 136 15 134 92 0 116 137 138 17 65 134 113 133 63 139 140 17 122 134 133 1
25 120 141 142 17 135 143 144 145 120 133 136 16 136 130 0 135 146 147 148 16 14
6 129 0 149 150 136 151 16 147 131 0 152 136 153 154 31 148 180 0 136 154 151 0
 +3.435671837401145 2.77941675481354 1.5 0 0 1 .7 31 154 181 0 147 155 148 0 +3.
04999927158922 3.239043420684925 1.5 0 0 1 .7 30 151 179 0 146 148 156 0 +3.7790
66664678465 3.45918141452981 1 -.642787609686539 .766044443118978 0 30 156 178 0
 150 151 157 0 +3.586230381772505 3.688994747465505 1 0 0 1 16 150 128 0 158 159
 146 156 30 157 177 0 159 156 160 0 +3.97190294758443 3.229368081594115 1 0 0 -1
 16 159 127 0 144 161 150 157 30 160 176 0 161 157 162 0 +1.480933335321532 1.53
081858547019 1 .642787609686539 -.766044443118978 0 16 161 126 0 163 164 159 160
 30 162 175 0 164 160 165 0 +1.98721239031346 3.26104444311898 1 -.7660444431189
78 -.642787609686539 0 16 164 125 0 166 167 161 162 31 165 174 0 167 162 168 0 +
2.21000072841078 1.750956579315075 1 0 0 -1 .7 16 167 124 0 169 170 164 165 31 1
68 173 0 170 165 171 0 +1.824328162598855 2.21058324518646 1 0 0 -1 .7 16 170 12
3 0 172 173 167 168 31 171 172 0 173 168 174 0 +3.04999927158922 3.2390434206849
25 1 0 0 -1 .7 16 173 122 0 175 176 170 171 31 174 171 0 176 171 177 0 +3.435671
837401145 2.77941675481354 1 0 0 -1 .7 16 176 121 0 178 179 173 174 30 177 170 0
 179 174 180 0 +1.374376835818278 2.746814355369745 1 0 0 1 16 179 120 0 181 182
 176 177 30 180 169 0 182 177 183 0 +2.600047944808645 3.77527453086821 1 0 0 -1
 16 182 119 0 184 185 179 180 30 183 168 0 185 180 186 0 +1.673769618227495 1.30
1005252534498 1 0 0 1 16 185 118 0 187 188 182 183 30 186 167 0 188 183 189 0 +1
.28809705241557 1.760631918405885 1 0 0 -1 16 188 117 0 190 191 185 186 30 189 3
9 0 192 186 193 0 +2.63 0 0 1 0 0 16 192 9 0 89 194 191 189 30 193 40 0 191 189
 195 0 +5.26 2.495 0 0 1 0 16 191 3 0 87 192 188 193 30 195 41 0 196 193 197 0 +
2.63 4.99 0 -1 0 0 16 196 13 0 85 198 194 195 30 197 42 0 194 195 199 0 +0 2.495
 0 0 -1 0 16 194 11 0 81 196 192 197 30 199 47 0 198 197 200 0 +5.26 0 0 0 0 1 1
6 198 15 0 77 201 196 199 30 200 48 0 201 199 202 0 +5.26 4.99 0 0 0 1 16 201 17
 0 74 203 198 200 30 202 49 0 203 200 204 0 +0 4.99 0 0 0 1 16 203 19 0 71 205 2
01 202 30 204 50 0 205 202 206 0 +0 0 0 0 0 1 16 205 21 0 68 207 203 204 30 206
 56 0 207 204 208 0 +5.26 2.495 1.5 0 -1 0 16 207 22 0 209 210 205 206 30 208 57
 0 210 206 211 0 +2.63 4.99 1.5 1 0 0 16 210 25 0 212 213 207 208 30 211 58 0 21
3 208 214 0 +0 2.495 1.5 0 1 0 16 213 28 0 215 216 210 211 30 214 59 0 216 211 2
17 0 +2.63 0 1.5 -1 0 0 16 216 31 0 218 219 213 214 31 217 74 0 219 214 220 0 +2
.21000072841078 1.750956579315075 1.5 0 0 1 .7 16 219 72 0 221 222 216 217 31 22
0 222 0 222 217 223 0 +2.355721603236735 2.199582733969435 1 0 0 -1 .1 16 222 22
0 0 224 225 219 220 30 223 338 0 225 220 226 0 +2.72641814145298 2.3800933335321
55 1.5 -.766044443118978 -.642787609686539 0 16 225 288 0 227 228 222 223 30 226
 337 0 228 223 229 0 +2.72641814145298 2.380093333532155 1 .766044443118978 .642
787609686539 0 16 228 287 0 230 231 225 226 30 229 336 0 231 226 232 0 +2.420000
36420539 2.12297828965754 1 0 0 -1 16 231 286 0 233 234 228 229 30 232 335 0 234
 229 235 0 +3.03283591870057 2.63720837740677 1 0 0 1 16 234 285 0 236 237 231 2
32 30 235 334 0 237 232 238 0 +3.01302222155949 2.81639380484327 1.5 .6427876096
86539 -.766044443118978 0 16 237 284 0 239 240 234 235 30 238 333 0 240 235 241
 0 +2.53358185854702 2.609906666467845 1.5 .766044443118978 .642787609686539 0 1
6 240 283 0 242 243 237 238 30 241 332 0 243 238 244 0 +2.24697777844051 2.17360
619515673 1.5 -.642787609686539 .766044443118978 0 16 243 282 0 245 246 240 241
 31 244 331 0 246 241 247 0 +2.355721603236735 2.199582733969435 1.5 0 0 1 .1 16
 246 281 0 248 249 243 244 31 247 330 0 249 244 250 0 +2.29144284226808 2.276187
178281335 1.5 0 0 1 .1 16 249 280 0 251 252 246 247 31 250 329 0 252 247 253 0 +
2.904278396763265 2.790417266030565 1.5 0 0 1 .1 16 252 279 0 254 255 249 250 31
 253 328 0 255 250 256 0 +2.96855715773192 2.713812821718665 1.5 0 0 1 .1 16 255
 278 0 257 258 252 253 30 256 327 0 258 253 259 0 +3.01302222155949 2.8163938048
4327 1 -.642787609686539 .766044443118978 0 16 258 277 0 260 261 255 256 30 259
 326 0 261 256 262 0 +2.98088284107516 2.85469602699922 1 0 0 1 16 261 276 0 263
 264 258 259 30 262 325 0 264 259 265 0 +3.045161602043815 2.77809158268732 1 0
 0 -1 16 264 275 0 266 267 261 262 30 265 324 0 267 262 268 0 +2.24697777844051
 2.17360619515673 1 .642787609686539 -.766044443118978 0 16 267 274 0 269 270 26
4 265 30 268 323 0 270 265 271 0 +2.53358185854702 2.609906666467845 1 -.7660444
43118978 -.642787609686539 0 16 270 273 0 272 273 267 268 31 271 321 0 273 268 2
74 0 +2.29144284226808 2.276187178281335 1 0 0 -1 .1 16 273 271 0 14 275 270 271
 31 274 320 0 275 271 276 0 +2.904278396763265 2.790417266030565 1 0 0 -1 .1 16
 275 270 0 29 277 273 274 31 276 319 0 277 274 278 0 +2.96855715773192 2.7138128
21718665 1 0 0 -1 .1 16 277 269 0 53 279 275 276 30 278 318 0 279 276 280 0 +2.2
2716408129943 2.35279162259323 1 0 0 1 16 279 268 0 281 282 277 278 30 280 317 0
 282 278 17 0 +2.83999963579461 2.867021710342465 1 0 0 -1 16 282 267 0 283 13 2
79 280 30 17 316 0 13 280 8 0 +2.27911715892484 2.13530397300078 1 0 0 1 16 13 2
66 0 284 5 282 17 17 284 285 245 269 36 23 13 15 285 254 0 245 286 0 17 245 285
 12 284 33 287 243 17 269 285 284 12 21 26 267 17 23 11 288 38 21 284 13 15 11 2
46 0 288 4 0 17 288 11 56 23 60 224 222 17 38 11 23 56 36 248 246 17 56 11 38 28
8 54 233 231 17 248 289 290 287 54 38 246 15 289 262 0 290 291 0 17 290 289 257
 248 57 227 225 17 287 289 248 251 36 245 243 17 251 289 287 292 33 44 249 17 29
2 289 251 254 42 242 240 17 44 293 294 35 42 251 249 15 293 248 0 295 10 0 17 29
4 293 295 44 6 281 279 17 35 293 44 295 33 12 5 17 295 293 35 294 24 14 273 17 1
2 285 269 245 24 35 5 17 14 296 20 26 6 295 273 15 296 209 0 14 297 298 17 20 29
6 29 14 15 272 270 17 26 296 14 224 24 269 267 17 224 296 26 62 21 288 222 17 62
 296 224 53 60 230 228 17 53 296 62 32 51 299 277 17 230 300 236 233 51 62 228 1
5 300 264 0 230 301 0 17 236 300 227 230 57 302 234 17 233 300 230 227 60 56 231
 17 227 300 233 236 54 290 225 17 302 303 299 59 51 236 234 15 303 252 0 299 304
 0 17 299 303 47 302 30 53 277 17 59 303 302 47 57 257 255 17 47 303 59 299 45 2
66 264 17 257 289 305 290 45 59 255 17 305 289 254 257 48 239 237 17 254 289 292
 305 39 50 252 17 239 306 266 263 45 305 237 15 306 260 0 239 307 0 17 266 306 2
60 239 30 47 264 17 263 306 239 260 48 308 261 17 260 306 263 266 27 32 258 17 3
08 309 310 50 27 263 261 15 309 250 0 310 311 0 17 310 309 41 308 15 29 275 17 5
0 309 308 41 48 254 252 17 41 309 50 310 39 283 282 17 283 312 272 242 15 41 282
 15 312 256 0 242 313 0 17 272 312 281 283 6 20 270 17 242 312 283 281 39 292 24
0 17 281 312 242 272 42 294 279 14 313 255 0 307 286 312 3 314 +14 307 259 0 291
 313 306 3 315 +14 286 253 0 313 304 285 3 316 +50 314 310 0 313 315 316 0 +2.53
358185854702 2.609906666467845 1 -.642787609686539 .766044443118978 0 50 315 312
 0 307 317 314 0 +3.01302222155949 2.81639380484327 1 .766044443118978 .64278760
9686539 0 50 316 309 0 286 314 318 0 +2.24697777844051 2.17360619515673 1 -.7660
44443118978 -.642787609686539 0 51 318 308 0 304 316 319 0 +2.96855715773192 2.7
13812821718665 1 0 0 1 .1 14 304 251 0 286 311 303 3 318 +51 319 307 0 311 318 1
6 0 +2.904278396763265 2.790417266030565 1 0 0 1 .1 14 311 249 0 304 10 309 3 31
9 +51 16 306 0 10 319 7 0 +2.29144284226808 2.276187178281335 1 0 0 1 .1 14 10 2
47 0 311 4 293 3 16 +50 317 313 0 291 320 315 0 +2.63 2.495 1.5 0 0 1 14 291 261
 0 301 307 289 3 317 +50 320 314 0 301 321 317 0 +2.72641814145298 2.38009333353
2155 1 .642787609686539 -.766044443118978 0 14 301 263 0 137 291 300 3 320 +50 3
21 51 0 137 322 320 0 +2.63 2.495 1.5 0 0 1 14 137 33 0 323 301 134 3 321 +50 32
2 46 0 323 324 321 0 +2.63 0 0 0 -1 0 14 323 30 0 325 137 326 3 322 +50 324 45 0
 325 327 322 0 +0 2.495 0 -1 0 0 14 325 27 0 328 323 329 3 324 +50 327 44 0 328
 330 324 0 +2.63 4.99 0 0 1 0 14 328 24 0 331 325 332 3 327 +50 330 43 0 333 334
 327 0 +5.26 2.495 0 1 0 0 14 333 1 0 335 331 336 3 330 +50 334 34 0 331 337 330
 0 +2.63 2.495 0 0 0 -1 14 331 6 0 333 328 338 3 334 +51 337 157 0 335 339 334 0
 +2.21000072841078 1.750956579315075 1 0 0 1 .7 14 335 97 0 340 333 341 3 337 -5
1 339 158 0 340 342 337 0 +1.824328162598855 2.21058324518646 1 0 0 1 .7 14 340
 99 0 343 335 344 3 339 -51 342 159 0 343 345 339 0 +3.04999927158922 3.23904342
0684925 1 0 0 1 .7 14 343 101 0 346 340 347 3 342 -51 345 160 0 346 348 342 0 +3
.435671837401145 2.77941675481354 1 0 0 1 .7 14 346 103 0 349 343 143 3 345 -50
 348 161 0 349 350 345 0 +1.480933335321532 1.53081858547019 1 -.766044443118978
 -.642787609686539 0 14 349 105 0 351 346 352 3 348 -50 350 162 0 351 353 348 0
 +1.98721239031346 3.26104444311898 1 -.642787609686539 .766044443118978 0 14 35
1 107 0 297 349 354 3 350 -50 353 163 0 297 355 350 0 +2.63 2.495 1 0 0 -1 14 29
7 109 0 356 351 296 3 353 -50 355 164 0 356 357 353 0 +3.779066664678465 3.45918
141452981 1 .766044443118978 .642787609686539 0 14 356 111 0 358 297 359 3 355 -
50 357 166 0 358 0 355 0 +3.27278760968654 1.72895555688102 1 .642787609686539 -
.766044443118978 0 14 358 115 0 0 356 360 3 357 -15 360 116 0 361 358 0 17 361 3
60 362 128 129 363 364 17 362 360 139 361 63 365 366 17 128 360 361 139 126 145
 367 17 363 298 107 131 126 361 364 16 364 139 0 363 366 140 368 16 366 138 0 36
5 367 364 369 16 140 140 0 65 364 0 370 30 368 189 0 364 370 369 0 +3.2727876096
8654 1.72895555688102 1 .766044443118978 .642787609686539 0 30 370 190 0 140 0 3
68 0 +3.27278760968654 1.72895555688102 1.5 -.766044443118978 -.642787609686539
 0 30 369 188 0 366 368 371 0 +2.659952055191355 1.21472546913179 1 0 0 -1 30 37
1 187 0 367 369 372 0 +3.88562316418172 2.243185644630255 1 0 0 1 16 367 137 0 1
45 142 366 371 30 372 186 0 142 371 373 0 +3.779066664678465 3.45918141452981 1.
5 .642787609686539 -.766044443118978 0 16 142 136 0 122 374 367 372 30 373 185 0
 374 372 375 0 +1.98721239031346 3.26104444311898 1.5 .766044443118978 .64278760
9686539 0 16 374 135 0 116 376 142 373 30 375 184 0 376 373 155 0 +1.48093333532
1532 1.53081858547019 1.5 -.642787609686539 .766044443118978 0 16 376 134 0 110
 153 374 375 31 155 182 0 153 375 154 0 +1.824328162598855 2.21058324518646 1.5
 0 0 1 .7 16 153 132 0 377 147 376 155 17 377 344 190 181 108 119 153 15 344 100
 0 172 340 0 17 190 344 172 377 99 378 188 17 181 344 377 172 117 92 179 17 119
 134 116 110 117 377 153 17 116 134 125 119 114 379 374 17 110 134 119 113 108 3
80 376 17 113 134 110 65 111 221 219 17 380 352 98 378 111 110 376 15 352 106 0
 380 349 0 17 98 352 381 380 96 187 185 17 378 352 380 381 108 190 188 17 381 35
2 378 98 99 163 161 17 163 298 131 101 96 381 161 15 298 110 0 149 297 0 17 131
 298 363 163 129 169 167 17 101 298 163 166 99 172 170 17 166 298 101 95 90 382
 164 17 172 344 181 190 90 101 170 17 95 298 166 149 93 175 173 17 382 354 383 9
2 93 166 164 15 354 108 0 379 351 0 17 383 354 379 382 114 184 182 17 92 354 382
 379 90 181 179 17 379 354 92 383 117 116 374 17 184 347 175 152 93 383 182 15 3
47 102 0 175 343 0 17 175 347 158 184 102 95 173 17 152 347 184 158 114 125 147
 17 158 347 152 175 123 104 150 17 125 134 122 116 123 152 147 17 104 359 384 14
1 102 158 150 15 359 112 0 141 356 0 17 384 359 385 104 105 149 146 17 141 359 1
04 385 123 122 142 17 385 359 141 384 120 144 159 17 144 143 178 135 105 385 159
 15 143 104 0 178 346 0 17 178 143 145 144 126 107 176 17 145 143 135 178 132 12
8 367 17 107 298 149 363 105 178 176 17 149 298 95 107 102 384 146 17 169 341 18
7 365 96 131 167 15 341 98 0 169 335 0 17 187 341 221 169 111 98 185 17 365 341
 169 221 129 362 366 17 221 341 365 187 63 113 219 17 139 360 128 362 132 65 140
 15 338 5 0 386 331 0 17 386 338 387 388 83 87 191 17 387 338 389 386 79 89 192
 17 388 338 386 389 78 85 196 17 87 336 74 390 78 386 191 15 336 4 0 87 333 0 17
 74 336 209 87 72 391 201 17 390 336 87 209 83 77 198 17 209 336 390 74 75 392 2
07 17 77 326 218 89 75 390 198 15 326 29 0 77 323 0 17 218 326 393 77 66 394 216
 17 89 326 77 393 83 387 192 17 393 326 89 218 79 68 205 17 68 329 215 81 66 393
 205 15 329 26 0 68 325 0 17 215 329 395 68 69 396 213 17 81 329 68 395 79 389 1
94 17 395 329 81 215 82 71 203 17 389 338 388 387 82 81 194 17 71 332 212 85 69
 395 203 15 332 23 0 71 328 0 17 212 332 391 71 72 397 210 17 85 332 71 391 82 3
88 196 17 391 332 85 212 78 74 201 17 397 138 396 392 69 212 210 15 138 32 0 394
 137 0 17 396 138 394 397 66 215 213 17 392 138 397 394 72 209 207 17 394 138 39
2 396 75 218 216 17 29 296 32 20 27 310 275 17 32 296 53 29 30 260 258 1 0 
