600 0 2 0           
24 FBMach with ACIS - 6.0.3 13 ACIS 6.0.3 NT 24 Wed May 23 20:18:45 2001 
1 9.9999999999999995e-007 1e-010 
body $2 $3 $-1 $4 #
bdycol-kcp $-1 1 2 $5 $6 #
model_id-kcp-attrib $-1 $-1 $-1 $0 1 990663525 50 -1858994175 1 #
lump $-1 $-1 $7 $0 #
transform $-1 1 0 0 0 1 0 0 0 1 0 0 0 1 no_rotate no_reflect no_shear #
body $8 $9 $-1 $10 #
body $11 $12 $-1 $13 #
shell $-1 $-1 $-1 $14 $-1 $3 #
model_id-kcp-attrib $-1 $-1 $-1 $5 1 990663525 60 -1858338814 1 #
lump $-1 $-1 $15 $5 #
transform $-1 1 0 0 0 1 0 0 0 1 0 0 0 1 no_rotate no_reflect no_shear #
rgb_color-st-attrib $-1 $16 $-1 $6 0.5 1 1 #
lump $-1 $-1 $17 $6 #
transform $-1 1 0 0 0 1 0 0 0 1 0 0 0 1 no_rotate no_reflect no_shear #
face $18 $19 $20 $7 $-1 $21 forward single #
shell $-1 $-1 $-1 $22 $-1 $9 #
model_id-kcp-attrib $-1 $-1 $11 $6 1 990663525 200 -1849163773 1 #
shell $-1 $-1 $-1 $23 $-1 $12 #
model_id-kcp-attrib $-1 $-1 $-1 $14 1 990663525 50 -1858994175 2 #
face $24 $25 $26 $7 $-1 $27 reversed single #
loop $-1 $-1 $28 $14 #
plane-surface $-1 -30 0 0 0 0 1 1 0 0 forward_v I I I I #
face $29 $30 $31 $15 $-1 $32 forward single #
face $-1 $33 $34 $17 $-1 $35 forward single #
model_id-kcp-attrib $-1 $-1 $-1 $19 1 990663525 50 -1858994175 3 #
face $36 $37 $38 $7 $-1 $39 reversed single #
loop $-1 $-1 $40 $19 #
plane-surface $-1 -30 -20 -10 0 1 0 0 0 1 forward_v I I I I #
coedge $-1 $41 $42 $43 $44 reversed $20 $-1 #
model_id-kcp-attrib $-1 $-1 $-1 $22 1 990663525 60 -1858338814 5 #
face $45 $46 $47 $15 $-1 $48 reversed single #
loop $-1 $-1 $49 $22 #
plane-surface $-1 0 0 20 0 0 1 1 0 0 forward_v I I I I #
face $-1 $50 $51 $17 $-1 $52 forward single #
loop $-1 $-1 $53 $23 #
plane-surface $-1 0 -30 20 1 0 0 0 0 -1 forward_v I I I I #
model_id-kcp-attrib $-1 $-1 $-1 $25 1 990663525 50 -1858994175 4 #
face $54 $55 $56 $7 $-1 $57 reversed single #
loop $-1 $-1 $58 $25 #
plane-surface $-1 -30 20 -10 0 -1 0 0 0 -1 forward_v I I I I #
coedge $-1 $59 $60 $61 $62 reversed $26 $-1 #
coedge $-1 $63 $28 $60 $64 forward $20 $-1 #
coedge $-1 $28 $63 $65 $66 forward $20 $-1 #
coedge $-1 $67 $61 $28 $44 forward $68 $-1 #
edge $-1 $69 2.411864997362827 $70 3.8713203098167592 $43 $71 forward 7 unknown #
model_id-kcp-attrib $-1 $-1 $-1 $30 1 990663525 60 -1858338814 2 #
face $72 $73 $74 $15 $-1 $75 reversed single #
loop $-1 $-1 $76 $30 #
plane-surface $-1 0 0 -20 0 0 1 1 0 0 forward_v I I I I #
coedge $-1 $77 $78 $79 $80 forward $31 $-1 #
face $-1 $81 $82 $17 $-1 $83 reversed single #
loop $-1 $-1 $84 $33 #
cone-surface $-1 0 0 20 0 0 -1 30 0 0 1 I I 0 1 30 forward I I I I #
coedge $-1 $85 $86 $87 $88 forward $34 $-1 #
model_id-kcp-attrib $-1 $-1 $-1 $37 1 990663525 50 -1858994175 5 #
face $89 $90 $91 $7 $-1 $92 reversed single #
loop $-1 $-1 $93 $37 #
plane-surface $-1 -20 0 -10 -1 0 0 0 0 1 forward_v I I I I #
coedge $-1 $65 $94 $67 $95 reversed $38 $-1 #
coedge $-1 $96 $40 $97 $98 reversed $26 $-1 #
coedge $-1 $40 $96 $41 $64 reversed $26 $-1 #
coedge $-1 $43 $99 $40 $62 forward $68 $-1 #
edge $-1 $100 -20 $69 0 $61 $101 forward 7 unknown #
coedge $-1 $42 $41 $102 $103 forward $20 $-1 #
edge $-1 $69 7.6393202250021019 $104 10 $60 $105 forward 7 unknown #
coedge $-1 $106 $58 $42 $66 reversed $38 $-1 #
edge $-1 $107 -10 $70 -7.6393202250021019 $65 $108 forward 7 unknown #
coedge $-1 $109 $43 $58 $95 forward $68 $-1 #
loop $-1 $-1 $67 $110 #
vertex $-1 $44 $111 #
vertex $-1 $44 $112 #
ellipse-curve $-1 0 0 0 0 0 -1 30 0 0 1 I I #
model_id-kcp-attrib $-1 $-1 $-1 $46 1 990663525 60 -1858338814 6 #
face $113 $114 $115 $15 $-1 $116 reversed single #
loop $-1 $-1 $117 $46 #
plane-surface $-1 0 -40 0 0 1 0 0 0 1 forward_v I I I I #
coedge $-1 $118 $119 $120 $121 forward $47 $-1 #
coedge $-1 $122 $49 $123 $124 forward $31 $-1 #
coedge $-1 $49 $122 $125 $126 forward $31 $-1 #
coedge $-1 $127 $128 $49 $80 reversed $129 $-1 #
edge $-1 $130 -40 $131 40 $79 $132 forward 7 unknown #
face $-1 $-1 $133 $17 $-1 $134 forward single #
loop $-1 $-1 $87 $50 #
plane-surface $-1 -10.521272322061801 -1.7760788341175903e-015 -20 0 0 1 1 0 0 forward_v I I I I #
coedge $-1 $135 $136 $137 $138 forward $51 $-1 #
coedge $-1 $139 $53 $136 $140 reversed $34 $-1 #
coedge $-1 $53 $139 $135 $141 forward $34 $-1 #
coedge $-1 $137 $137 $53 $88 reversed $82 $-1 #
edge $-1 $142 -30 $143 30 $53 $144 forward 7 unknown #
model_id-kcp-attrib $-1 $-1 $-1 $55 1 990663525 50 -1858994175 6 #
face $145 $146 $147 $7 $-1 $148 reversed single #
loop $-1 $149 $150 $55 #
plane-surface $-1 0 0 -20 0 0 1 1 0 0 forward_v I I I I #
coedge $-1 $151 $102 $96 $152 forward $56 $-1 #
coedge $-1 $58 $106 $153 $154 reversed $38 $-1 #
edge $-1 $70 0 $155 20 $67 $156 forward 7 unknown #
coedge $-1 $60 $59 $93 $152 reversed $26 $-1 #
coedge $-1 $157 $158 $59 $98 forward $149 $-1 #
edge $159 $160 -10 $100 -7.6393202250021019 $59 $161 forward 7 unknown #
coedge $-1 $61 $162 $157 $163 reversed $68 $-1 #
vertex $-1 $163 $164 #
straight-curve $-1 -22.360679774997898 -20 0 0 0 1 I I #
coedge $-1 $93 $165 $63 $103 reversed $56 $-1 #
edge $-1 $104 -20 $107 20 $102 $166 forward 7 unknown #
vertex $-1 $103 $167 #
straight-curve $-1 -30 -20 0 1 0 0 I I #
coedge $-1 $94 $65 $165 $168 forward $38 $-1 #
vertex $-1 $103 $169 #
straight-curve $-1 -30 20 0 -1 0 0 I I #
coedge $-1 $170 $67 $171 $172 reversed $68 $-1 #
face $173 $174 $68 $7 $-1 $175 reversed single #
point $-1 -22.360679774997898 -20 0 #
point $-1 -22.360679774997898 20 0 #
model_id-kcp-attrib $-1 $-1 $-1 $73 1 990663525 60 -1858338814 3 #
face $176 $177 $178 $15 $-1 $179 reversed single #
loop $-1 $-1 $180 $73 #
plane-surface $-1 -40 0 0 1 0 0 0 0 -1 forward_v I I I I #
coedge $-1 $181 $125 $182 $183 forward $74 $-1 #
coedge $-1 $184 $76 $181 $185 forward $47 $-1 #
coedge $-1 $76 $184 $186 $187 forward $47 $-1 #
coedge $-1 $128 $127 $76 $121 reversed $129 $-1 #
edge $-1 $188 -40 $189 40 $120 $190 forward 7 unknown #
coedge $-1 $78 $77 $191 $192 forward $31 $-1 #
coedge $-1 $193 $194 $77 $124 reversed $178 $-1 #
edge $-1 $131 -40 $195 40 $123 $196 forward 7 unknown #
coedge $-1 $117 $197 $78 $126 reversed $74 $-1 #
edge $-1 $198 -40 $130 40 $125 $199 forward 7 unknown #
coedge $-1 $120 $79 $197 $200 forward $129 $-1 #
coedge $-1 $79 $120 $193 $201 reversed $129 $-1 #
loop $-1 $-1 $127 $177 #
vertex $-1 $80 $202 #
vertex $-1 $80 $203 #
straight-curve $-1 40 0 20 0 1 0 I I #
loop $-1 $-1 $204 $81 #
plane-surface $-1 -10.521272322061801 -1.7760788341175903e-015 20 0 0 1 1 0 0 forward_v I I I I #
coedge $-1 $205 $84 $86 $141 reversed $51 $-1 #
coedge $-1 $84 $205 $85 $140 forward $51 $-1 #
coedge $-1 $87 $87 $84 $138 reversed $82 $-1 #
edge $-1 $143 1.5707963267948966 $142 4.7123889803846897 $84 $206 forward 7 unknown #
coedge $-1 $86 $85 $207 $208 forward $34 $-1 #
edge $-1 $209 0 $143 40 $136 $210 forward 7 unknown #
edge $-1 $211 0 $142 40 $86 $212 forward 7 unknown #
vertex $-1 $141 $213 #
vertex $-1 $140 $214 #
straight-curve $-1 0 0 -20 0 1 0 I I #
model_id-kcp-attrib $-1 $-1 $-1 $90 1 990663525 50 -1858994175 7 #
face $215 $110 $216 $7 $-1 $217 reversed single #
loop $-1 $-1 $218 $90 #
plane-surface $-1 -40 0 0 1 0 0 0 0 -1 forward_v I I I I #
loop $-1 $-1 $157 $55 #
coedge $-1 $219 $220 $218 $221 forward $91 $-1 #
coedge $-1 $165 $93 $158 $222 reversed $56 $-1 #
edge $-1 $104 -10 $160 10 $93 $223 forward 7 unknown #
coedge $-1 $158 $171 $94 $154 forward $149 $-1 #
edge $224 $155 7.6393202250021019 $225 10 $94 $226 forward 7 unknown #
vertex $-1 $172 $227 #
straight-curve $-1 -22.360679774997898 20 0 0 0 -1 I I #
coedge $-1 $228 $97 $99 $163 forward $149 $-1 #
coedge $-1 $97 $153 $151 $222 forward $149 $-1 #
attrib_edge_convexity-kcp-attrib $-1 $229 $-1 $98 1 #
vertex $-1 $152 $230 #
straight-curve $-1 -30 -20 -20 -1 0 0 I I #
coedge $-1 $99 $231 $232 $233 forward $68 $-1 #
edge $234 $100 -2.411864997362827 $235 -1.5707963267948966 $157 $236 forward 7 unknown #
point $-1 -22.360679774997898 -20 -20 #
coedge $-1 $102 $151 $106 $168 reversed $56 $-1 #
straight-curve $-1 -20 0 0 0 1 0 I I #
point $-1 -20 -20 0 #
edge $-1 $107 -10 $225 10 $165 $237 forward 7 unknown #
point $-1 -20 20 0 #
coedge $-1 $231 $109 $238 $239 forward $68 $-1 #
coedge $-1 $153 $228 $109 $172 forward $149 $-1 #
edge $240 $241 1.5707963267948966 $155 2.411864997362827 $171 $236 forward 7 unknown #
model_id-kcp-attrib $-1 $-1 $-1 $110 1 990663525 50 -1858994175 9 #
face $242 $243 $244 $7 $-1 $245 reversed single #
cone-surface $-1 0 0 0 0 0 1 30 0 0 1 I I 0 1 30 forward I I I I #
model_id-kcp-attrib $-1 $-1 $-1 $114 1 990663525 60 -1858338814 4 #
face $246 $-1 $129 $15 $-1 $247 reversed single #
loop $-1 $-1 $193 $114 #
plane-surface $-1 0 40 0 0 -1 0 0 0 -1 forward_v I I I I #
coedge $-1 $248 $191 $194 $249 forward $115 $-1 #
coedge $-1 $197 $117 $118 $185 reversed $74 $-1 #
coedge $-1 $191 $248 $117 $183 reversed $115 $-1 #
edge $-1 $198 -20 $250 20 $182 $251 forward 7 unknown #
coedge $-1 $119 $118 $248 $252 forward $47 $-1 #
edge $-1 $189 -40 $250 40 $181 $253 forward 7 unknown #
coedge $-1 $194 $193 $119 $187 reversed $178 $-1 #
edge $-1 $254 -40 $188 40 $186 $255 forward 7 unknown #
vertex $-1 $121 $256 #
vertex $-1 $200 $257 #
straight-curve $-1 40 0 -20 0 -1 0 I I #
coedge $-1 $180 $182 $122 $192 reversed $115 $-1 #
edge $-1 $195 -40 $198 40 $191 $258 forward 7 unknown #
coedge $-1 $186 $123 $128 $201 forward $178 $-1 #
coedge $-1 $123 $186 $180 $249 reversed $178 $-1 #
vertex $-1 $124 $259 #
straight-curve $-1 0 40 20 -1 0 0 I I #
coedge $-1 $125 $181 $127 $200 reversed $74 $-1 #
vertex $-1 $192 $260 #
straight-curve $-1 0 -40 20 1 0 0 I I #
edge $-1 $130 -20 $189 20 $127 $261 forward 7 unknown #
edge $-1 $131 -20 $188 20 $128 $262 forward 7 unknown #
point $-1 40 -40 20 #
point $-1 40 40 20 #
coedge $-1 $207 $207 $205 $263 reversed $133 $-1 #
coedge $-1 $136 $135 $204 $263 forward $51 $-1 #
ellipse-curve $-1 0 0 -20 0 0 1 30 0 0 1 I I #
coedge $-1 $204 $204 $139 $208 reversed $133 $-1 #
edge $-1 $209 -30 $211 30 $139 $264 forward 7 unknown #
vertex $-1 $263 $265 #
straight-curve $-1 0 30 20 0 0 -1 I I #
vertex $-1 $263 $266 #
straight-curve $-1 0 -30 20 0 0 -1 I I #
point $-1 0 -30 -20 #
point $-1 0 30 -20 #
model_id-kcp-attrib $-1 $-1 $-1 $146 1 990663525 50 -1858994175 8 #
loop $-1 $-1 $232 $146 #
plane-surface $-1 0 0 0 1 0 0 0 0 -1 forward_v I I I I #
coedge $-1 $267 $268 $150 $221 reversed $147 $-1 #
coedge $-1 $269 $150 $270 $271 forward $91 $-1 #
coedge $-1 $150 $269 $272 $273 forward $91 $-1 #
edge $274 $275 -40 $276 40 $218 $277 forward 7 unknown #
edge $278 $225 -20 $160 20 $151 $279 forward 7 unknown #
straight-curve $-1 -20 -20 -10 0 0 -1 I I #
attrib_edge_convexity-kcp-attrib $-1 $280 $-1 $154 1 #
vertex $-1 $222 $281 #
straight-curve $-1 -30 20 -20 1 0 0 I I #
point $-1 -22.360679774997898 20 -20 #
coedge $-1 $171 $157 $282 $283 forward $149 $-1 #
convexity-sys-attrib $-1 $-1 $159 $98 #
point $-1 -20 -20 -20 #
coedge $-1 $162 $170 $284 $285 reversed $68 $-1 #
coedge $-1 $286 $282 $162 $233 reversed $216 $-1 #
edge $-1 $287 -20 $235 20 $162 $288 forward 7 unknown #
attrib_edge_convexity-kcp-attrib $-1 $289 $-1 $163 1 #
vertex $-1 $163 $290 #
ellipse-curve $-1 0 0 -20 0 0 1 30 0 0 1 I I #
straight-curve $-1 -20 20 -10 0 0 -1 I I #
coedge $-1 $282 $286 $170 $239 reversed $216 $-1 #
edge $-1 $241 -20 $291 20 $170 $292 forward 7 unknown #
attrib_edge_convexity-kcp-attrib $-1 $293 $-1 $172 1 #
vertex $-1 $172 $294 #
model_id-kcp-attrib $-1 $-1 $-1 $174 1 990663525 50 -1858994175 10 #
face $295 $296 $297 $7 $-1 $298 forward single #
loop $-1 $-1 $270 $174 #
plane-surface $-1 0 40 0 0 -1 0 0 0 -1 forward_v I I I I #
model_id-kcp-attrib $-1 $-1 $-1 $177 1 990663525 60 -1858338814 7 #
plane-surface $-1 40 0 0 -1 0 0 0 0 1 forward_v I I I I #
coedge $-1 $182 $180 $184 $252 reversed $115 $-1 #
edge $-1 $195 -20 $254 20 $194 $299 forward 7 unknown #
vertex $-1 $252 $300 #
straight-curve $-1 -40 -40 0 0 0 -1 I I #
edge $-1 $250 -40 $254 40 $248 $301 forward 7 unknown #
straight-curve $-1 0 -40 -20 -1 0 0 I I #
vertex $-1 $187 $302 #
straight-curve $-1 0 40 -20 1 0 0 I I #
point $-1 40 40 -20 #
point $-1 40 -40 -20 #
straight-curve $-1 -40 0 20 0 -1 0 I I #
point $-1 -40 40 20 #
point $-1 -40 -40 20 #
straight-curve $-1 40 -40 0 0 0 -1 I I #
straight-curve $-1 40 40 0 0 0 -1 I I #
edge $-1 $211 1.5707963267948966 $209 4.7123889803846897 $205 $303 forward 7 unknown #
straight-curve $-1 0 0 20 0 -1 0 I I #
point $-1 0 30 20 #
point $-1 0 -30 20 #
coedge $-1 $304 $218 $305 $306 reversed $147 $-1 #
coedge $-1 $218 $304 $307 $308 forward $147 $-1 #
coedge $-1 $220 $219 $309 $310 forward $91 $-1 #
coedge $-1 $307 $311 $219 $271 reversed $244 $-1 #
edge $312 $276 -40 $313 40 $270 $314 forward 7 unknown #
coedge $-1 $315 $305 $220 $273 reversed $316 $-1 #
edge $317 $318 -40 $275 40 $272 $319 forward 7 unknown #
attrib_edge_convexity-kcp-attrib $-1 $320 $-1 $221 1 #
vertex $-1 $221 $321 #
vertex $-1 $271 $322 #
straight-curve $-1 -40 0 -20 0 1 0 I I #
attrib_edge_convexity-kcp-attrib $-1 $323 $-1 $222 1 #
straight-curve $-1 -20 0 -20 0 -1 0 I I #
convexity-sys-attrib $-1 $-1 $224 $154 #
point $-1 -20 20 -20 #
coedge $-1 $232 $238 $228 $283 reversed $216 $-1 #
edge $324 $235 -30 $241 30 $282 $325 forward 7 unknown #
coedge $-1 $326 $326 $231 $285 forward $297 $-1 #
edge $-1 $287 1.5707963267948966 $291 4.7123889803846897 $284 $327 forward 7 unknown #
coedge $-1 $238 $232 $326 $328 reversed $216 $-1 #
vertex $-1 $285 $329 #
straight-curve $-1 0 -30 0 0 0 -1 I I #
convexity-sys-attrib $-1 $-1 $234 $163 #
point $-1 0 -30 -20 #
vertex $-1 $285 $330 #
straight-curve $-1 0 30 0 0 0 1 I I #
convexity-sys-attrib $-1 $-1 $240 $172 #
point $-1 0 30 -20 #
model_id-kcp-attrib $-1 $-1 $-1 $243 1 990663525 50 -1858994175 11 #
face $331 $332 $316 $7 $-1 $333 reversed single #
loop $-1 $334 $284 $243 #
plane-surface $-1 0 0 20 0 0 1 1 0 0 forward_v I I I I #
straight-curve $-1 -40 40 0 0 0 -1 I I #
point $-1 -40 -40 -20 #
straight-curve $-1 -40 0 -20 0 1 0 I I #
point $-1 -40 40 -20 #
ellipse-curve $-1 0 0 20 0 0 -1 30 0 0 1 I I #
coedge $-1 $268 $267 $335 $336 reversed $147 $-1 #
coedge $-1 $272 $337 $267 $306 forward $316 $-1 #
edge $338 $339 -20 $275 20 $267 $340 forward 7 unknown #
coedge $-1 $341 $270 $268 $308 reversed $244 $-1 #
edge $342 $343 -20 $276 20 $307 $344 forward 7 unknown #
coedge $-1 $345 $346 $269 $310 reversed $347 $-1 #
edge $348 $313 -40 $318 40 $309 $349 forward 7 unknown #
coedge $-1 $270 $341 $345 $350 forward $244 $-1 #
attrib_edge_convexity-kcp-attrib $-1 $351 $-1 $271 1 #
vertex $-1 $310 $352 #
straight-curve $-1 0 40 -20 1 0 0 I I #
coedge $-1 $337 $272 $346 $353 forward $316 $-1 #
loop $-1 $-1 $337 $296 #
attrib_edge_convexity-kcp-attrib $-1 $354 $-1 $273 1 #
vertex $-1 $353 $355 #
straight-curve $-1 0 -40 -20 -1 0 0 I I #
convexity-sys-attrib $-1 $-1 $274 $221 #
point $-1 -40 -40 -20 #
point $-1 -40 40 -20 #
convexity-sys-attrib $-1 $-1 $278 $222 #
attrib_edge_convexity-kcp-attrib $-1 $356 $-1 $283 1 #
straight-curve $-1 0 0 -20 0 1 0 I I #
coedge $-1 $284 $284 $286 $328 forward $297 $-1 #
ellipse-curve $-1 0 0 20 0 0 -1 30 0 0 1 I I #
edge $-1 $291 -30 $287 30 $286 $357 forward 7 unknown #
point $-1 0 -30 20 #
point $-1 0 30 20 #
model_id-kcp-attrib $-1 $-1 $-1 $296 1 990663525 50 -1858994175 12 #
face $358 $-1 $347 $7 $-1 $359 reversed single #
plane-surface $-1 0 -40 0 0 1 0 0 0 1 forward_v I I I I #
loop $-1 $-1 $360 $243 #
coedge $-1 $360 $361 $304 $336 forward $334 $-1 #
edge $362 $343 -40 $339 40 $304 $363 forward 7 unknown #
coedge $-1 $305 $315 $360 $364 reversed $316 $-1 #
attrib_edge_convexity-kcp-attrib $-1 $365 $-1 $306 1 #
vertex $-1 $336 $366 #
straight-curve $-1 -40 -40 0 0 0 -1 I I #
coedge $-1 $311 $307 $361 $367 reversed $244 $-1 #
attrib_edge_convexity-kcp-attrib $-1 $368 $-1 $308 1 #
vertex $-1 $367 $369 #
straight-curve $-1 -40 40 0 0 0 -1 I I #
coedge $-1 $370 $309 $311 $350 reversed $347 $-1 #
coedge $-1 $309 $370 $315 $353 reversed $347 $-1 #
loop $-1 $-1 $346 $332 #
attrib_edge_convexity-kcp-attrib $-1 $371 $-1 $310 1 #
straight-curve $-1 40 0 -20 0 -1 0 I I #
edge $372 $373 -20 $313 20 $345 $374 forward 7 unknown #
convexity-sys-attrib $-1 $-1 $312 $271 #
point $-1 40 40 -20 #
edge $-1 $318 -20 $375 20 $346 $376 reversed 7 unknown #
convexity-sys-attrib $-1 $-1 $317 $273 #
point $-1 40 -40 -20 #
convexity-sys-attrib $-1 $-1 $324 $283 #
straight-curve $-1 0 0 20 0 -1 0 I I #
model_id-kcp-attrib $-1 $-1 $-1 $332 1 990663525 50 -1858994175 13 #
plane-surface $-1 40 0 0 -1 0 0 0 0 1 forward_v I I I I #
coedge $-1 $377 $335 $337 $364 forward $334 $-1 #
coedge $-1 $335 $377 $341 $367 forward $334 $-1 #
attrib_edge_convexity-kcp-attrib $-1 $378 $-1 $336 1 #
straight-curve $-1 -40 0 20 0 -1 0 I I #
edge $-1 $339 -40 $375 40 $337 $379 forward 7 unknown #
convexity-sys-attrib $-1 $-1 $338 $306 #
point $-1 -40 -40 20 #
edge $380 $373 -40 $343 40 $341 $381 forward 7 unknown #
convexity-sys-attrib $-1 $-1 $342 $308 #
point $-1 -40 40 20 #
coedge $-1 $346 $345 $377 $382 reversed $347 $-1 #
convexity-sys-attrib $-1 $-1 $348 $310 #
attrib_edge_convexity-kcp-attrib $-1 $383 $-1 $350 1 #
vertex $-1 $382 $384 #
straight-curve $-1 40 40 0 0 0 -1 I I #
vertex $-1 $382 $385 #
straight-curve $-1 40 -40 0 0 0 -1 I I #
coedge $-1 $361 $360 $370 $382 forward $334 $-1 #
convexity-sys-attrib $-1 $-1 $362 $336 #
straight-curve $-1 0 -40 20 1 0 0 I I #
attrib_edge_convexity-kcp-attrib $-1 $386 $-1 $367 1 #
straight-curve $-1 0 40 20 -1 0 0 I I #
edge $-1 $375 -40 $373 40 $370 $387 forward 7 unknown #
convexity-sys-attrib $-1 $-1 $372 $350 #
point $-1 40 40 20 #
point $-1 40 -40 20 #
convexity-sys-attrib $-1 $-1 $380 $367 #
straight-curve $-1 40 0 20 0 1 0 I I #
End-of-ACIS-data 