600 0 1 0           
81 GICL ACIS Healer - Source: /gicl/data5/repository/Heriot_Watt/ex30/ex30.sat - 6 0 18 ACIS 6.0.3 Solaris 24 Sat Apr 13 23:38:40 2002 
1 9.999999999999999547e-07 1.000000000000000036e-10 
body $-1 $1 $-1 $-1 #
lump $-1 $-1 $2 $0 #
shell $-1 $-1 $-1 $3 $-1 $1 #
face $-1 $4 $5 $2 $-1 $6 forward single #
face $-1 $7 $8 $2 $-1 $9 reversed single #
loop $-1 $-1 $10 $3 #
plane-surface $-1 -30 0 0 0 0 1 1 0 0 forward_v I I I I #
face $-1 $11 $12 $2 $-1 $13 reversed single #
loop $-1 $-1 $14 $4 #
plane-surface $-1 -30 -20 -10 0 1 0 0 0 1 forward_v I I I I #
coedge $-1 $15 $16 $17 $18 reversed $5 $-1 #
face $-1 $19 $20 $2 $-1 $21 reversed single #
loop $-1 $-1 $22 $7 #
plane-surface $-1 -30 20 -10 0 -1 0 0 0 -1 forward_v I I I I #
coedge $-1 $23 $24 $25 $26 reversed $8 $-1 #
coedge $-1 $27 $10 $24 $28 forward $5 $-1 #
coedge $-1 $10 $27 $29 $30 forward $5 $-1 #
coedge $-1 $31 $25 $10 $18 forward $32 $-1 #
edge $-1 $33 2.411864997362827001 $34 3.871320309816759231 $17 $35 forward 7 unknown #
face $-1 $36 $37 $2 $-1 $38 reversed single #
loop $-1 $-1 $39 $11 #
plane-surface $-1 -20 0 -10 -1 0 0 0 0 1 forward_v I I I I #
coedge $-1 $29 $40 $31 $41 reversed $12 $-1 #
coedge $-1 $42 $14 $43 $44 reversed $8 $-1 #
coedge $-1 $14 $42 $15 $28 reversed $8 $-1 #
coedge $-1 $17 $45 $14 $26 forward $32 $-1 #
edge $-1 $46 -20 $33 0 $25 $47 forward 7 unknown #
coedge $-1 $16 $15 $48 $49 forward $5 $-1 #
edge $-1 $33 7.639320225002101949 $50 10 $24 $51 forward 7 unknown #
coedge $-1 $52 $22 $16 $30 reversed $12 $-1 #
edge $-1 $53 -10 $34 -7.639320225002101949 $29 $54 forward 7 unknown #
coedge $-1 $55 $17 $22 $41 forward $32 $-1 #
loop $-1 $-1 $31 $56 #
vertex $-1 $18 $57 #
vertex $-1 $18 $58 #
ellipse-curve $-1 0 0 0 0 0 -1 30 0 0 1 I I #
face $-1 $59 $60 $2 $-1 $61 reversed single #
loop $-1 $62 $63 $19 #
plane-surface $-1 0 0 -20 0 0 1 1 0 0 forward_v I I I I #
coedge $-1 $64 $48 $42 $65 forward $20 $-1 #
coedge $-1 $22 $52 $66 $67 reversed $12 $-1 #
edge $-1 $34 0 $68 20 $31 $69 forward 7 unknown #
coedge $-1 $24 $23 $39 $65 reversed $8 $-1 #
coedge $-1 $70 $71 $23 $44 forward $62 $-1 #
edge $-1 $72 -10 $46 -7.639320225002101949 $23 $73 forward 7 unknown #
coedge $-1 $25 $74 $70 $75 reversed $32 $-1 #
vertex $-1 $75 $76 #
straight-curve $-1 -22.36067977499789805 -20 0 0 0 1 I I #
coedge $-1 $39 $77 $27 $49 reversed $20 $-1 #
edge $-1 $50 -20 $53 20 $48 $78 forward 7 unknown #
vertex $-1 $49 $79 #
straight-curve $-1 -30 -20 0 1 0 0 I I #
coedge $-1 $40 $29 $77 $80 forward $12 $-1 #
vertex $-1 $49 $81 #
straight-curve $-1 -30 20 0 -1 0 0 I I #
coedge $-1 $82 $31 $83 $84 reversed $32 $-1 #
face $-1 $85 $32 $2 $-1 $86 reversed single #
point $-1 -22.36067977499789805 -20 0 #
point $-1 -22.36067977499789805 20 0 #
face $-1 $56 $87 $2 $-1 $88 reversed single #
loop $-1 $-1 $89 $36 #
plane-surface $-1 -40 0 0 1 0 0 0 0 -1 forward_v I I I I #
loop $-1 $-1 $70 $19 #
coedge $-1 $90 $91 $89 $92 forward $37 $-1 #
coedge $-1 $77 $39 $71 $93 reversed $20 $-1 #
edge $-1 $50 -10 $72 10 $39 $94 forward 7 unknown #
coedge $-1 $71 $83 $40 $67 forward $62 $-1 #
edge $-1 $68 7.639320225002101949 $95 10 $40 $96 forward 7 unknown #
vertex $-1 $84 $97 #
straight-curve $-1 -22.36067977499789805 20 0 0 0 -1 I I #
coedge $-1 $98 $43 $45 $75 forward $62 $-1 #
coedge $-1 $43 $66 $64 $93 forward $62 $-1 #
vertex $-1 $65 $99 #
straight-curve $-1 -30 -20 -20 -1 0 0 I I #
coedge $-1 $45 $100 $101 $102 forward $32 $-1 #
edge $-1 $46 -2.411864997362827001 $103 -1.570796326794896558 $70 $104 forward 7 unknown #
point $-1 -22.36067977499789805 -20 -20 #
coedge $-1 $48 $64 $52 $80 reversed $20 $-1 #
straight-curve $-1 -20 0 0 0 1 0 I I #
point $-1 -20 -20 0 #
edge $-1 $53 -10 $95 10 $77 $105 forward 7 unknown #
point $-1 -20 20 0 #
coedge $-1 $100 $55 $106 $107 forward $32 $-1 #
coedge $-1 $66 $98 $55 $84 forward $62 $-1 #
edge $-1 $108 1.570796326794896558 $68 2.411864997362827001 $83 $104 forward 7 unknown #
face $-1 $109 $110 $2 $-1 $111 reversed single #
cone-surface $-1 0 0 0 0 0 1 30 0 0 1 I I 0 1 30 forward I I I I #
loop $-1 $-1 $101 $59 #
plane-surface $-1 0 0 0 1 0 0 0 0 -1 forward_v I I I I #
coedge $-1 $112 $113 $63 $92 reversed $60 $-1 #
coedge $-1 $114 $63 $115 $116 forward $37 $-1 #
coedge $-1 $63 $114 $117 $118 forward $37 $-1 #
edge $-1 $119 -40 $120 40 $89 $121 forward 7 unknown #
edge $-1 $95 -20 $72 20 $64 $122 forward 7 unknown #
straight-curve $-1 -20 -20 -10 0 0 -1 I I #
vertex $-1 $93 $123 #
straight-curve $-1 -30 20 -20 1 0 0 I I #
point $-1 -22.36067977499789805 20 -20 #
coedge $-1 $83 $70 $124 $125 forward $62 $-1 #
point $-1 -20 -20 -20 #
coedge $-1 $74 $82 $126 $127 reversed $32 $-1 #
coedge $-1 $128 $124 $74 $102 reversed $87 $-1 #
edge $-1 $129 -20 $103 20 $74 $130 forward 7 unknown #
vertex $-1 $75 $131 #
ellipse-curve $-1 0 0 -20 0 0 1 30 0 0 1 I I #
straight-curve $-1 -20 20 -10 0 0 -1 I I #
coedge $-1 $124 $128 $82 $107 reversed $87 $-1 #
edge $-1 $108 -20 $132 20 $82 $133 forward 7 unknown #
vertex $-1 $84 $134 #
face $-1 $135 $136 $2 $-1 $137 forward single #
loop $-1 $-1 $115 $85 #
plane-surface $-1 0 40 0 0 -1 0 0 0 -1 forward_v I I I I #
coedge $-1 $138 $89 $139 $140 reversed $60 $-1 #
coedge $-1 $89 $138 $141 $142 forward $60 $-1 #
coedge $-1 $91 $90 $143 $144 forward $37 $-1 #
coedge $-1 $141 $145 $90 $116 reversed $110 $-1 #
edge $-1 $120 -40 $146 40 $115 $147 forward 7 unknown #
coedge $-1 $148 $139 $91 $118 reversed $149 $-1 #
edge $-1 $150 -40 $119 40 $117 $151 forward 7 unknown #
vertex $-1 $92 $152 #
vertex $-1 $116 $153 #
straight-curve $-1 -40 0 -20 0 1 0 I I #
straight-curve $-1 -20 0 -20 0 -1 0 I I #
point $-1 -20 20 -20 #
coedge $-1 $101 $106 $98 $125 reversed $87 $-1 #
edge $-1 $103 -30 $108 30 $124 $154 forward 7 unknown #
coedge $-1 $155 $155 $100 $127 forward $136 $-1 #
edge $-1 $129 1.570796326794896558 $132 4.712388980384689674 $126 $156 forward 7 unknown #
coedge $-1 $106 $101 $155 $157 reversed $87 $-1 #
vertex $-1 $127 $158 #
straight-curve $-1 0 -30 0 0 0 -1 I I #
point $-1 0 -30 -20 #
vertex $-1 $127 $159 #
straight-curve $-1 0 30 0 0 0 1 I I #
point $-1 0 30 -20 #
face $-1 $160 $149 $2 $-1 $161 reversed single #
loop $-1 $162 $126 $109 #
plane-surface $-1 0 0 20 0 0 1 1 0 0 forward_v I I I I #
coedge $-1 $113 $112 $163 $164 reversed $60 $-1 #
coedge $-1 $117 $165 $112 $140 forward $149 $-1 #
edge $-1 $166 -20 $119 20 $112 $167 forward 7 unknown #
coedge $-1 $168 $115 $113 $142 reversed $110 $-1 #
edge $-1 $169 -20 $120 20 $141 $170 forward 7 unknown #
coedge $-1 $171 $172 $114 $144 reversed $173 $-1 #
edge $-1 $146 -40 $150 40 $143 $174 forward 7 unknown #
coedge $-1 $115 $168 $171 $175 forward $110 $-1 #
vertex $-1 $144 $176 #
straight-curve $-1 0 40 -20 1 0 0 I I #
coedge $-1 $165 $117 $172 $177 forward $149 $-1 #
loop $-1 $-1 $165 $135 #
vertex $-1 $177 $178 #
straight-curve $-1 0 -40 -20 -1 0 0 I I #
point $-1 -40 -40 -20 #
point $-1 -40 40 -20 #
straight-curve $-1 0 0 -20 0 1 0 I I #
coedge $-1 $126 $126 $128 $157 forward $136 $-1 #
ellipse-curve $-1 0 0 20 0 0 -1 30 0 0 1 I I #
edge $-1 $132 -30 $129 30 $128 $179 forward 7 unknown #
point $-1 0 -30 20 #
point $-1 0 30 20 #
face $-1 $-1 $173 $2 $-1 $180 reversed single #
plane-surface $-1 0 -40 0 0 1 0 0 0 1 forward_v I I I I #
loop $-1 $-1 $181 $109 #
coedge $-1 $181 $182 $138 $164 forward $162 $-1 #
edge $-1 $169 -40 $166 40 $138 $183 forward 7 unknown #
coedge $-1 $139 $148 $181 $184 reversed $149 $-1 #
vertex $-1 $164 $185 #
straight-curve $-1 -40 -40 0 0 0 -1 I I #
coedge $-1 $145 $141 $182 $186 reversed $110 $-1 #
vertex $-1 $186 $187 #
straight-curve $-1 -40 40 0 0 0 -1 I I #
coedge $-1 $188 $143 $145 $175 reversed $173 $-1 #
coedge $-1 $143 $188 $148 $177 reversed $173 $-1 #
loop $-1 $-1 $172 $160 #
straight-curve $-1 40 0 -20 0 -1 0 I I #
edge $-1 $189 -20 $146 20 $171 $190 forward 7 unknown #
point $-1 40 40 -20 #
edge $-1 $150 -20 $191 20 $172 $192 reversed 7 unknown #
point $-1 40 -40 -20 #
straight-curve $-1 0 0 20 0 -1 0 I I #
plane-surface $-1 40 0 0 -1 0 0 0 0 1 forward_v I I I I #
coedge $-1 $193 $163 $165 $184 forward $162 $-1 #
coedge $-1 $163 $193 $168 $186 forward $162 $-1 #
straight-curve $-1 -40 0 20 0 -1 0 I I #
edge $-1 $166 -40 $191 40 $165 $194 forward 7 unknown #
point $-1 -40 -40 20 #
edge $-1 $189 -40 $169 40 $168 $195 forward 7 unknown #
point $-1 -40 40 20 #
coedge $-1 $172 $171 $193 $196 reversed $173 $-1 #
vertex $-1 $196 $197 #
straight-curve $-1 40 40 0 0 0 -1 I I #
vertex $-1 $196 $198 #
straight-curve $-1 40 -40 0 0 0 -1 I I #
coedge $-1 $182 $181 $188 $196 forward $162 $-1 #
straight-curve $-1 0 -40 20 1 0 0 I I #
straight-curve $-1 0 40 20 -1 0 0 I I #
edge $-1 $191 -40 $189 40 $188 $199 forward 7 unknown #
point $-1 40 40 20 #
point $-1 40 -40 20 #
straight-curve $-1 40 0 20 0 1 0 I I #
End-of-ACIS-data 