106 0 1 0           
body $-1 $1 $-1 $-1 #
lump $-1 $-1 $2 $0 #
shell $-1 $-1 $-1 $3 $1 #
face $-1 $4 $5 $2 $-1 $6 forward single #
face $-1 $7 $8 $2 $-1 $9 reversed single #
loop $-1 $-1 $10 $3 #
plane-surface $-1 -30 0 0 0 0 1 1 0 0 0 I I I I #
face $-1 $11 $12 $2 $-1 $13 reversed single #
loop $-1 $-1 $14 $4 #
plane-surface $-1 -30 -20 -10 0 1 0 0 0 1 0 I I I I #
coedge $-1 $15 $16 $17 $18 1 $5 $-1 #
face $-1 $19 $20 $2 $-1 $21 reversed single #
loop $-1 $-1 $22 $7 #
plane-surface $-1 -30 20 -10 0 -1 0 0 0 -1 0 I I I I #
coedge $-1 $23 $24 $25 $26 1 $8 $-1 #
coedge $-1 $27 $10 $24 $28 0 $5 $-1 #
coedge $-1 $10 $27 $29 $30 0 $5 $-1 #
coedge $-1 $31 $25 $10 $18 0 $32 $-1 #
edge $-1 $33 $34 $17 $35 0 #
face $-1 $36 $37 $2 $-1 $38 reversed single #
loop $-1 $-1 $39 $11 #
plane-surface $-1 -20 0 -10 -1 0 0 0 0 1 0 I I I I #
coedge $-1 $29 $40 $31 $41 1 $12 $-1 #
coedge $-1 $42 $14 $43 $44 1 $8 $-1 #
coedge $-1 $14 $42 $15 $28 1 $8 $-1 #
coedge $-1 $17 $45 $14 $26 0 $32 $-1 #
edge $-1 $46 $33 $25 $47 0 #
coedge $-1 $16 $15 $48 $49 0 $5 $-1 #
edge $-1 $33 $50 $24 $51 0 #
coedge $-1 $52 $22 $16 $30 1 $12 $-1 #
edge $-1 $53 $34 $29 $54 0 #
coedge $-1 $55 $17 $22 $41 0 $32 $-1 #
loop $-1 $-1 $31 $56 #
vertex $-1 $18 $57 #
vertex $-1 $18 $58 #
ellipse-curve $-1 0 0 0 0 0 -1 30 0 0 1 I I #
face $-1 $59 $60 $2 $-1 $61 reversed single #
loop $-1 $62 $63 $19 #
plane-surface $-1 0 0 -20 0 0 1 1 0 0 0 I I I I #
coedge $-1 $64 $48 $42 $65 0 $20 $-1 #
coedge $-1 $22 $52 $66 $67 1 $12 $-1 #
edge $-1 $34 $68 $31 $69 0 #
coedge $-1 $24 $23 $39 $65 1 $8 $-1 #
coedge $-1 $70 $71 $23 $44 0 $62 $-1 #
edge $-1 $72 $46 $23 $73 0 #
coedge $-1 $25 $74 $70 $75 1 $32 $-1 #
vertex $-1 $75 $76 #
straight-curve $-1 -22.360679774997898 -20 0 0 0 1 I I #
coedge $-1 $39 $77 $27 $49 1 $20 $-1 #
edge $-1 $50 $53 $48 $78 0 #
vertex $-1 $49 $79 #
straight-curve $-1 -30 -20 0 1 0 0 I I #
coedge $-1 $40 $29 $77 $80 0 $12 $-1 #
vertex $-1 $49 $81 #
straight-curve $-1 -30 20 0 -1 0 0 I I #
coedge $-1 $82 $31 $83 $84 1 $32 $-1 #
face $-1 $85 $32 $2 $-1 $86 reversed single #
point $-1 -22.360679774997898 -20 0 #
point $-1 -22.360679774997898 20 0 #
face $-1 $56 $87 $2 $-1 $88 reversed single #
loop $-1 $-1 $89 $36 #
plane-surface $-1 -40 0 0 1 0 0 0 0 -1 0 I I I I #
loop $-1 $-1 $70 $19 #
coedge $-1 $90 $91 $89 $92 0 $37 $-1 #
coedge $-1 $77 $39 $71 $93 1 $20 $-1 #
edge $-1 $50 $72 $39 $94 0 #
coedge $-1 $71 $83 $40 $67 0 $62 $-1 #
edge $-1 $68 $95 $40 $96 0 #
vertex $-1 $84 $97 #
straight-curve $-1 -22.360679774997898 20 0 0 0 -1 I I #
coedge $-1 $98 $43 $45 $75 0 $62 $-1 #
coedge $-1 $43 $66 $64 $93 0 $62 $-1 #
vertex $-1 $65 $99 #
straight-curve $-1 -30 -20 -20 -1 0 0 I I #
coedge $-1 $45 $100 $101 $102 0 $32 $-1 #
edge $-1 $46 $103 $70 $104 0 #
point $-1 -22.360679774997898 -20 -20 #
coedge $-1 $48 $64 $52 $80 1 $20 $-1 #
straight-curve $-1 -20 0 0 0 1 0 I I #
point $-1 -20 -20 0 #
edge $-1 $53 $95 $77 $105 0 #
point $-1 -20 20 0 #
coedge $-1 $100 $55 $106 $107 0 $32 $-1 #
coedge $-1 $66 $98 $55 $84 0 $62 $-1 #
edge $-1 $108 $68 $83 $104 0 #
face $-1 $109 $110 $2 $-1 $111 reversed single #
cone-surface $-1 0 0 0 0 0 1 30 0 0 1 I I 0 1 0 I I I I #
loop $-1 $-1 $101 $59 #
plane-surface $-1 0 0 0 1 0 0 0 0 -1 0 I I I I #
coedge $-1 $112 $113 $63 $92 1 $60 $-1 #
coedge $-1 $114 $63 $115 $116 0 $37 $-1 #
coedge $-1 $63 $114 $117 $118 0 $37 $-1 #
edge $-1 $119 $120 $89 $121 0 #
edge $-1 $95 $72 $64 $122 0 #
straight-curve $-1 -20 -20 -10 0 0 -1 I I #
vertex $-1 $93 $123 #
straight-curve $-1 -30 20 -20 1 0 0 I I #
point $-1 -22.360679774997898 20 -20 #
coedge $-1 $83 $70 $124 $125 0 $62 $-1 #
point $-1 -20 -20 -20 #
coedge $-1 $74 $82 $126 $127 1 $32 $-1 #
coedge $-1 $128 $124 $74 $102 1 $87 $-1 #
edge $-1 $129 $103 $74 $130 0 #
vertex $-1 $75 $131 #
ellipse-curve $-1 0 0 -20 0 0 1 30 0 0 1 I I #
straight-curve $-1 -20 20 -10 0 0 -1 I I #
coedge $-1 $124 $128 $82 $107 1 $87 $-1 #
edge $-1 $108 $132 $82 $133 0 #
vertex $-1 $84 $134 #
face $-1 $135 $136 $2 $-1 $137 forward single #
loop $-1 $-1 $115 $85 #
plane-surface $-1 0 40 0 0 -1 0 0 0 -1 0 I I I I #
coedge $-1 $138 $89 $139 $140 1 $60 $-1 #
coedge $-1 $89 $138 $141 $142 0 $60 $-1 #
coedge $-1 $91 $90 $143 $144 0 $37 $-1 #
coedge $-1 $141 $145 $90 $116 1 $110 $-1 #
edge $-1 $120 $146 $115 $147 0 #
coedge $-1 $148 $139 $91 $118 1 $149 $-1 #
edge $-1 $150 $119 $117 $151 0 #
vertex $-1 $92 $152 #
vertex $-1 $116 $153 #
straight-curve $-1 -40 0 -20 0 1 0 I I #
straight-curve $-1 -20 0 -20 0 -1 0 I I #
point $-1 -20 20 -20 #
coedge $-1 $101 $106 $98 $125 1 $87 $-1 #
edge $-1 $103 $108 $124 $154 0 #
coedge $-1 $155 $155 $100 $127 0 $136 $-1 #
edge $-1 $129 $132 $126 $156 0 #
coedge $-1 $106 $101 $155 $157 1 $87 $-1 #
vertex $-1 $127 $158 #
straight-curve $-1 0 -30 0 0 0 -1 I I #
point $-1 0 -30 -20 #
vertex $-1 $127 $159 #
straight-curve $-1 0 30 0 0 0 1 I I #
point $-1 0 30 -20 #
face $-1 $160 $149 $2 $-1 $161 reversed single #
loop $-1 $162 $126 $109 #
plane-surface $-1 0 0 20 0 0 1 1 0 0 0 I I I I #
coedge $-1 $113 $112 $163 $164 1 $60 $-1 #
coedge $-1 $117 $165 $112 $140 0 $149 $-1 #
edge $-1 $166 $119 $112 $167 0 #
coedge $-1 $168 $115 $113 $142 1 $110 $-1 #
edge $-1 $169 $120 $141 $170 0 #
coedge $-1 $171 $172 $114 $144 1 $173 $-1 #
edge $-1 $146 $150 $143 $174 0 #
coedge $-1 $115 $168 $171 $175 0 $110 $-1 #
vertex $-1 $144 $176 #
straight-curve $-1 0 40 -20 1 0 0 I I #
coedge $-1 $165 $117 $172 $177 0 $149 $-1 #
loop $-1 $-1 $165 $135 #
vertex $-1 $177 $178 #
straight-curve $-1 0 -40 -20 -1 0 0 I I #
point $-1 -40 -40 -20 #
point $-1 -40 40 -20 #
straight-curve $-1 0 0 -20 0 1 0 I I #
coedge $-1 $126 $126 $128 $157 0 $136 $-1 #
ellipse-curve $-1 0 0 20 0 0 -1 30 0 0 1 I I #
edge $-1 $132 $129 $128 $179 0 #
point $-1 0 -30 20 #
point $-1 0 30 20 #
face $-1 $-1 $173 $2 $-1 $180 reversed single #
plane-surface $-1 0 -40 0 0 1 0 0 0 1 0 I I I I #
loop $-1 $-1 $181 $109 #
coedge $-1 $181 $182 $138 $164 0 $162 $-1 #
edge $-1 $169 $166 $138 $183 0 #
coedge $-1 $139 $148 $181 $184 1 $149 $-1 #
vertex $-1 $164 $185 #
straight-curve $-1 -40 -40 0 0 0 -1 I I #
coedge $-1 $145 $141 $182 $186 1 $110 $-1 #
vertex $-1 $186 $187 #
straight-curve $-1 -40 40 0 0 0 -1 I I #
coedge $-1 $188 $143 $145 $175 1 $173 $-1 #
coedge $-1 $143 $188 $148 $177 1 $173 $-1 #
loop $-1 $-1 $172 $160 #
straight-curve $-1 40 0 -20 0 -1 0 I I #
edge $-1 $189 $146 $171 $190 0 #
point $-1 40 40 -20 #
edge $-1 $150 $191 $172 $192 1 #
point $-1 40 -40 -20 #
straight-curve $-1 0 0 20 0 -1 0 I I #
plane-surface $-1 40 0 0 -1 0 0 0 0 1 0 I I I I #
coedge $-1 $193 $163 $165 $184 0 $162 $-1 #
coedge $-1 $163 $193 $168 $186 0 $162 $-1 #
straight-curve $-1 -40 0 20 0 -1 0 I I #
edge $-1 $166 $191 $165 $194 0 #
point $-1 -40 -40 20 #
edge $-1 $189 $169 $168 $195 0 #
point $-1 -40 40 20 #
coedge $-1 $172 $171 $193 $196 1 $173 $-1 #
vertex $-1 $196 $197 #
straight-curve $-1 40 40 0 0 0 -1 I I #
vertex $-1 $196 $198 #
straight-curve $-1 40 -40 0 0 0 -1 I I #
coedge $-1 $182 $181 $188 $196 0 $162 $-1 #
straight-curve $-1 0 -40 20 1 0 0 I I #
straight-curve $-1 0 40 20 -1 0 0 I I #
edge $-1 $191 $189 $188 $199 0 #
point $-1 40 40 20 #
point $-1 40 -40 20 #
straight-curve $-1 40 0 20 0 1 0 I I #
End-of-ACIS-data 