  0
SECTION
  2
HEADER
  9
$ACADVER
  1
AC1009
  9
$INSBASE
 10
0.0
 20
0.0
 30
0.0
  9
$EXTMIN
 10
0.0
 20
-1.0
 30
0.0
  9
$EXTMAX
 10
8.0
 20
5.0
 30
4.0
  9
$LIMMIN
 10
0.0
 20
0.0
  9
$LIMMAX
 10
12.0
 20
9.0
  9
$ORTHOMODE
 70
     0
  9
$REGENMODE
 70
     1
  9
$FILLMODE
 70
     1
  9
$QTEXTMODE
 70
     0
  9
$MIRRTEXT
 70
     1
  9
$DRAGMODE
 70
     2
  9
$LTSCALE
 40
1.0
  9
$OSMODE
 70
     0
  9
$ATTMODE
 70
     1
  9
$TEXTSIZE
 40
0.2
  9
$TRACEWID
 40
0.05
  9
$TEXTSTYLE
  7
STANDARD
  9
$CLAYER
  8
0
  9
$CELTYPE
  6
BYLAYER
  9
$CECOLOR
 62
   256
  9
$DIMSCALE
 40
1.0
  9
$DIMASZ
 40
0.18
  9
$DIMEXO
 40
0.0625
  9
$DIMDLI
 40
0.38
  9
$DIMRND
 40
0.0
  9
$DIMDLE
 40
0.0
  9
$DIMEXE
 40
0.18
  9
$DIMTP
 40
0.0
  9
$DIMTM
 40
0.0
  9
$DIMTXT
 40
0.18
  9
$DIMCEN
 40
0.09
  9
$DIMTSZ
 40
0.0
  9
$DIMTOL
 70
     0
  9
$DIMLIM
 70
     0
  9
$DIMTIH
 70
     1
  9
$DIMTOH
 70
     1
  9
$DIMSE1
 70
     0
  9
$DIMSE2
 70
     0
  9
$DIMTAD
 70
     0
  9
$DIMZIN
 70
     0
  9
$DIMBLK
  1

  9
$DIMASO
 70
     1
  9
$DIMSHO
 70
     1
  9
$DIMPOST
  1

  9
$DIMAPOST
  1

  9
$DIMALT
 70
     0
  9
$DIMALTD
 70
     2
  9
$DIMALTF
 40
25.4
  9
$DIMLFAC
 40
1.0
  9
$DIMTOFL
 70
     0
  9
$DIMTVP
 40
0.0
  9
$DIMTIX
 70
     0
  9
$DIMSOXD
 70
     0
  9
$DIMSAH
 70
     0
  9
$DIMBLK1
  1

  9
$DIMBLK2
  1

  9
$DIMSTYLE
  2
*UNNAMED
  9
$DIMCLRD
 70
     0
  9
$DIMCLRE
 70
     0
  9
$DIMCLRT
 70
     0
  9
$DIMTFAC
 40
1.0
  9
$DIMGAP
 40
0.09
  9
$LUNITS
 70
     2
  9
$LUPREC
 70
     4
  9
$SKETCHINC
 40
0.1
  9
$FILLETRAD
 40
0.0
  9
$AUNITS
 70
     0
  9
$AUPREC
 70
     0
  9
$MENU
  1
acad
  9
$ELEVATION
 40
0.0
  9
$PELEVATION
 40
0.0
  9
$THICKNESS
 40
0.0
  9
$LIMCHECK
 70
     0
  9
$BLIPMODE
 70
     1
  9
$CHAMFERA
 40
0.0
  9
$CHAMFERB
 40
0.0
  9
$SKPOLY
 70
     0
  9
$TDCREATE
 40
2449406.970696064
  9
$TDUPDATE
 40
2449406.972195625
  9
$TDINDWG
 40
0.0014995602
  9
$TDUSRTIMER
 40
0.0014995602
  9
$USRTIMER
 70
     1
  9
$ANGBASE
 50
0.0
  9
$ANGDIR
 70
     0
  9
$PDMODE
 70
     0
  9
$PDSIZE
 40
0.0
  9
$PLINEWID
 40
0.0
  9
$COORDS
 70
     1
  9
$SPLFRAME
 70
     0
  9
$SPLINETYPE
 70
     6
  9
$SPLINESEGS
 70
     8
  9
$ATTDIA
 70
     0
  9
$ATTREQ
 70
     1
  9
$HANDLING
 70
     1
  9
$HANDSEED
  5
4C
  9
$SURFTAB1
 70
     6
  9
$SURFTAB2
 70
     6
  9
$SURFTYPE
 70
     6
  9
$SURFU
 70
     6
  9
$SURFV
 70
     6
  9
$UCSNAME
  2

  9
$UCSORG
 10
0.0
 20
0.0
 30
0.0
  9
$UCSXDIR
 10
1.0
 20
0.0
 30
0.0
  9
$UCSYDIR
 10
0.0
 20
1.0
 30
0.0
  9
$PUCSNAME
  2

  9
$PUCSORG
 10
0.0
 20
0.0
 30
0.0
  9
$PUCSXDIR
 10
1.0
 20
0.0
 30
0.0
  9
$PUCSYDIR
 10
0.0
 20
1.0
 30
0.0
  9
$USERI1
 70
     0
  9
$USERI2
 70
     0
  9
$USERI3
 70
     0
  9
$USERI4
 70
     0
  9
$USERI5
 70
     0
  9
$USERR1
 40
0.0
  9
$USERR2
 40
0.0
  9
$USERR3
 40
0.0
  9
$USERR4
 40
0.0
  9
$USERR5
 40
0.0
  9
$WORLDVIEW
 70
     1
  9
$SHADEDGE
 70
     3
  9
$SHADEDIF
 70
    70
  9
$TILEMODE
 70
     1
  9
$MAXACTVP
 70
    16
  9
$PINSBASE
 10
0.0
 20
0.0
 30
0.0
  9
$PLIMCHECK
 70
     0
  9
$PEXTMIN
 10
1.000000E+20
 20
1.000000E+20
 30
1.000000E+20
  9
$PEXTMAX
 10
-1.000000E+20
 20
-1.000000E+20
 30
-1.000000E+20
  9
$PLIMMIN
 10
0.0
 20
0.0
  9
$PLIMMAX
 10
12.0
 20
9.0
  9
$UNITMODE
 70
     0
  9
$VISRETAIN
 70
     0
  9
$PLINEGEN
 70
     0
  9
$PSLTSCALE
 70
     1
  9
$TREEDEPTH
 70
  3020
  9
$DWGCODEPAGE
  3
ascii
  0
ENDSEC
  0
SECTION
  2
TABLES
  0
TABLE
  2
VPORT
 70
     2
  0
VPORT
  2
*ACTIVE
 70
     0
 10
0.0
 20
0.0
 11
1.0
 21
1.0
 12
7.176972
 22
4.5
 13
0.0
 23
0.0
 14
1.0
 24
1.0
 15
0.0
 25
0.0
 16
0.0
 26
0.0
 36
1.0
 17
0.0
 27
0.0
 37
0.0
 40
9.0
 41
1.594883
 42
50.0
 43
0.0
 44
0.0
 50
0.0
 51
0.0
 71
     0
 72
   100
 73
     1
 74
     1
 75
     0
 76
     0
 77
     0
 78
     0
  0
ENDTAB
  0
TABLE
  2
LTYPE
 70
     1
  0
LTYPE
  2
CONTINUOUS
 70
    64
  3
Solid line
 72
    65
 73
     0
 40
0.0
  0
ENDTAB
  0
TABLE
  2
LAYER
 70
     3
  0
LAYER
  2
0
 70
    64
 62
     7
  6
CONTINUOUS
  0
LAYER
  2
ASHADE
 70
    64
 62
     7
  6
CONTINUOUS
  0
LAYER
  2
AME_FRZ
 70
    65
 62
     7
  6
CONTINUOUS
  0
ENDTAB
  0
TABLE
  2
STYLE
 70
     2
  0
STYLE
  2
STANDARD
 70
     0
 40
0.0
 41
1.0
 50
0.0
 71
     0
 42
0.2
  3
txt
  4

  0
STYLE
  2
ASHADE
 70
     0
 40
0.2
 41
1.0
 50
0.0
 71
     0
 42
0.2
  3
simplex
  4

  0
ENDTAB
  0
TABLE
  2
VIEW
 70
     0
  0
ENDTAB
  0
TABLE
  2
UCS
 70
     0
  0
ENDTAB
  0
TABLE
  2
APPID
 70
     5
  0
APPID
  2
ACAD
 70
    64
  0
APPID
  2
AVE_RENDER
 70
    64
  0
APPID
  2
AME_SOL
 70
    64
  0
APPID
  2
AVE_INVOKE
 70
    64
  0
ENDTAB
  0
TABLE
  2
DIMSTYLE
 70
     0
  0
ENDTAB
  0
ENDSEC
  0
SECTION
  2
BLOCKS
  0
BLOCK
  8
0
  5
1
  2
AVE_RENDER
 70
    64
 10
0.0
 20
0.0
 30
0.0
  1
AVE_RENDER
  3
AVE_RENDER
  0
ENDBLK
  8
0
  5
2
  0
BLOCK
  8
0
  5
6
  2
AME_NIL
 70
    64
 10
0.0
 20
0.0
 30
0.0
  1
AME_NIL
  3
AME_NIL
  0
ENDBLK
  8
0
  5
7
  0
BLOCK
  8
0
  5
9
  2
AME_SOL
 70
    64
 10
0.0
 20
0.0
 30
0.0
  1
AME_SOL
  3
AME_SOL
  0
ENDBLK
  8
0
  5
A
  0
BLOCK
  8
0
  5
2A
  2
*U5
 70
    65
 10
0.0
 20
0.0
 30
0.0
  1
*U
  3
*U
  0
LINE
  8
0
 62
     7
  5
2B
 10
8.0
 20
4.0
 30
0.0
 11
8.0
 21
4.0
 31
4.0
1001
AME_SOL
1070
     1
1071
       33
  0
LINE
  8
0
 62
     7
  5
2C
 10
8.0
 20
4.0
 30
4.0
 11
8.0
 21
0.0
 31
4.0
1001
AME_SOL
1070
     1
1071
       32
  0
LINE
  8
0
 62
     7
  5
2D
 10
0.0
 20
4.0
 30
4.0
 11
8.0
 21
4.0
 31
4.0
1001
AME_SOL
1070
     1
1071
       31
  0
LINE
  8
0
 62
     7
  5
2E
 10
0.0
 20
4.0
 30
0.0
 11
0.0
 21
4.0
 31
4.0
1001
AME_SOL
1070
     1
1071
       30
  0
LINE
  8
0
 62
     7
  5
2F
 10
0.0
 20
4.0
 30
4.0
 11
0.0
 21
0.0
 31
4.0
1001
AME_SOL
1070
     1
1071
       29
  0
LINE
  8
0
 62
     7
  5
30
 10
0.0
 20
0.0
 30
0.0
 11
0.0
 21
0.0
 31
4.0
1001
AME_SOL
1070
     1
1071
       28
  0
LINE
  8
0
 62
     7
  5
31
 10
8.0
 20
0.0
 30
4.0
 11
8.0
 21
0.0
 31
0.0
1001
AME_SOL
1070
     1
1071
       27
  0
LINE
  8
0
 62
     7
  5
32
 10
0.0
 20
0.0
 30
4.0
 11
8.0
 21
0.0
 31
4.0
1001
AME_SOL
1070
     1
1071
       26
  0
LINE
  8
0
 62
     7
  5
33
 10
0.0
 20
0.0
 30
0.0
 11
8.0
 21
0.0
 31
0.0
1001
AME_SOL
1070
     1
1071
       25
  0
LINE
  8
0
 62
     7
  5
34
 10
0.0
 20
4.0
 30
0.0
 11
0.0
 21
0.0
 31
0.0
1001
AME_SOL
1070
     1
1071
       24
  0
LINE
  8
0
 62
     7
  5
35
 10
8.0
 20
0.0
 30
0.0
 11
8.0
 21
4.0
 31
0.0
1001
AME_SOL
1070
     1
1071
       23
  0
LINE
  8
0
 62
     7
  5
36
 10
8.0
 20
4.0
 30
0.0
 11
0.0
 21
4.0
 31
0.0
1001
AME_SOL
1070
     1
1071
       22
  0
LINE
  8
0
 62
     7
  5
37
 10
6.236068
 20
0.0
 30
3.0
 11
1.763932
 21
0.0
 31
3.0
1001
AME_SOL
1070
     1
1071
       21
  0
LINE
  8
0
 62
     7
  5
38
 10
1.763932
 20
4.0
 30
3.0
 11
6.236068
 21
4.0
 31
3.0
1001
AME_SOL
1070
     1
1071
       20
  0
LINE
  8
0
 62
     7
  5
39
 10
1.763932
 20
0.0
 30
1.0
 11
6.236068
 21
0.0
 31
1.0
1001
AME_SOL
1070
     1
1071
       19
  0
LINE
  8
0
 62
     7
  5
3A
 10
6.236068
 20
4.0
 30
1.0
 11
1.763932
 21
4.0
 31
1.0
1001
AME_SOL
1070
     1
1071
       18
  0
ARC
  8
0
 62
     7
  5
3B
 10
4.0
 20
2.0
 30
1.0
 40
3.0
 50
138.189685
 51
221.810315
1001
AME_SOL
1070
     1
1071
       17
  0
ARC
  8
0
 62
     7
  5
3C
 10
4.0
 20
2.0
 30
1.0
 40
3.0
 50
318.189685
 51
41.810315
1001
AME_SOL
1070
     1
1071
       16
  0
LINE
  8
0
 62
     7
  5
3D
 10
1.763932
 20
0.0
 30
1.0
 11
1.763932
 21
0.0
 31
3.0
1001
AME_SOL
1070
     1
1071
       15
  0
LINE
  8
0
 62
     7
  5
3E
 10
6.236068
 20
0.0
 30
1.0
 11
6.236068
 21
0.0
 31
3.0
1001
AME_SOL
1070
     1
1071
       14
  0
LINE
  8
0
 62
     7
  5
3F
 10
6.236068
 20
4.0
 30
1.0
 11
6.236068
 21
4.0
 31
3.0
1001
AME_SOL
1070
     1
1071
       13
  0
LINE
  8
0
 62
     7
  5
40
 10
1.763932
 20
4.0
 30
1.0
 11
1.763932
 21
4.0
 31
3.0
1001
AME_SOL
1070
     1
1071
       12
  0
ARC
  8
0
 62
     7
  5
41
 10
4.0
 20
2.0
 30
3.0
 40
3.0
 50
138.189685
 51
221.810315
1001
AME_SOL
1070
     1
1071
       11
  0
ARC
  8
0
 62
     7
  5
42
 10
4.0
 20
2.0
 30
3.0
 40
3.0
 50
318.189685
 51
41.810315
1001
AME_SOL
1070
     1
1071
       10
  0
LINE
  8
0
 62
     7
  5
43
 10
7.0
 20
2.0
 30
1.0
 11
7.0
 21
2.0
 31
3.0
1001
AME_SOL
1070
     0
1071
        1
  0
LINE
  8
0
 62
     7
  5
44
 10
1.0
 20
2.0
 30
1.0
 11
1.0
 21
2.0
 31
3.0
1001
AME_SOL
1070
     0
1071
        1
  0
ENDBLK
  8
0
  5
45
  0
BLOCK
  8
0
  5
49
  2
AME_JNK
 70
     0
 10
0.0
 20
0.0
 30
0.0
  1
AME_JNK
  3
AME_JNK
  0
ENDBLK
  8
0
  5
4A
  0
ENDSEC
  0
SECTION
  2
ENTITIES
  0
INSERT
  8
ASHADE
 62
     1
  5
3
  2
AVE_RENDER
 10
0.0
 20
0.0
 30
0.0
1001
AVE_RENDER
1002
{
1070
     2
1000
Pref
1070
    30
1070
    20
1070
     0
1070
     0
1000

1070
    10
1070
     0
1070
    30
1040
1.0
1070
     1
1040
0.3
1040
0.7
1040
0.0
1040
10.0
1010
-1.0
1020
-1.0
1030
-1.0
1040
0.3
1070
    49
1002
}
  0
INSERT
  8
ASHADE
 62
     3
  5
4
  2
AVE_RENDER
 10
0.0
 20
0.0
 30
0.0
1001
AVE_RENDER
1002
{
1070
     0
1000
Full Opt
1070
     0
1070
     1
1070
     1
1070
     1
1070
     0
1070
     0
1070
     0
1070
     1
1070
     1
1040
0.0001
1040
0.0001
1002
}
  0
INSERT
  8
ASHADE
 62
     4
  5
5
  2
AVE_RENDER
 10
0.0
 20
0.0
 30
0.0
1001
AVE_RENDER
1002
{
1070
     0
1000
Quick Opt
1070
     0
1070
     1
1070
     1
1070
     1
1070
     0
1070
     0
1070
     1
1002
}
  0
INSERT
  8
AME_FRZ
  5
8
  2
AME_NIL
 10
0.0
 20
0.0
 30
0.0
  0
INSERT
  8
AME_FRZ
  5
B
  2
AME_SOL
 10
0.0
 20
0.0
 30
0.0
1001
AME_SOL
1000
R2.1
1000
AME2
1000
sq cm
1070
     3
1070
     0
1070
     3
1000
wire
1040
45.0
1000
U
1040
1.0
1000
cm
1000
gm
1000
MILD_STEEL
1070
    25
1000
CSG
1070
     1
1070
     3
1070
     3
1070
     3
1070
     0
1000
cu cm
1070
     1
1070
     0
1005
8
  0
INSERT
  8
AME_FRZ
  5
1A
  2
AME_NIL
 10
0.0
 20
0.0
 30
0.0
1001
AME_SOL
1002
{
1070
     1
1071
  2463640
1070
  1536
1070
     1
1010
8.0
1020
4.0
1030
4.0
1005
0
1005
0
1005
46
1040
0.0
1040
1.0
1070
     0
1000
MILD_STEEL
1000
0
1010
0.0
1020
0.0
1030
0.0
1010
0.0
1020
0.0
1030
1.0
1040
0.0
1002
}
1001
AVE_INVOKE
1000
SOLAVEMESH
  0
INSERT
  8
AME_FRZ
  5
26
  2
AME_NIL
 10
4.0
 20
2.0
 30
1.0
1001
AME_SOL
1002
{
1070
     1
1071
  2506280
1070
  1538
1070
     1
1010
3.0
1020
3.0
1030
2.0
1005
0
1005
0
1005
46
1040
0.0
1040
1.0
1070
     0
1000
MILD_STEEL
1000
0
1010
4.0
1020
2.0
1030
1.0
1010
0.0
1020
0.0
1030
1.0
1040
0.0
1002
}
1001
AVE_INVOKE
1000
SOLAVEMESH
  0
INSERT
  8
0
  5
46
  2
*U5
 10
0.0
 20
0.0
 30
0.0
1001
AME_SOL
1002
{
1070
     1
1071
  2474216
1070
  1543
1070
     1
1070
     0
1005
1A
1005
26
1005
0
1005
47
1005
0
1040
0.0
1040
1.0
1070
     0
1000
MILD_STEEL
1000
0
1002
}
1001
AVE_INVOKE
1000
SOLAVEMESH
  0
INSERT
  8
AME_FRZ
  5
47
  2
AME_NIL
 10
1.0
 20
1.0
 30
1.0
1001
AME_SOL
1004
C7CF01001B018D018C018A0186017E01710161014C01EB005400080062014D01CB0032010400A1004E0133016000F8003401CD0030003F007F01720163014F013501680021010700090036012201F500F30023011F002300800064015001370124012D00DA002501D80015010C01AD00A900030055005101
1004
38019800D0003901BB00AE0073017F008400870180017401650196005201A8003A016100C800280075011000660153013B018D00FC003C0162006B0054013D01DB002601DF001601E8000D01AC0016003700810176012500A0007701670155015F00A40056019C00C000BF008B0188018201780168015701
1004
EF003E01FD00ED0058014E003F01EA0006006901750059014001FB00FA004101F100310079016A0105000C006B015A012000AF00500083017A016C015B01E700420144000F005C0143011C005E00440127017900B9002801DE004A006D015D0145012901CE004F002A011701F400210018018A0076004601
1004
2B011901340035001A013800E5002C011B014600CF001C014D0056005E0147012D011D0183000E012F0039001E010F01E90001010001190010010201F7002E000301320097002E011F0111010401CA00C90005019B005B00120106015C005D000701BC00B800200113010801B700B6000901A3006D001401
1004
0A016E00A7000B0170007100EE004000890184017B01F0006E010A005F014801A500260049018800D9007C0102006F01140060014A012F019500F2003001240052004B01310159004800780085017D0101007001FE001800FF000000430A7430A714D46392CBDEFDBB56608773B449AE9EEC73DBB5A09E8F
1004
2583DA24D74F7639EC889E143A44C5B64EF192B26CB6C9DE3256452DCE8C6E40D4A3249D26A005BB5A09E8F2583C183249D26A005B2778C9592916D93BC64AC9B2C935D3DDB602B7286426F97B36F7EE413A190BFD80FFFFFFFEC07FFF297FD7FB014973E056E7C0AFFFFFFD0C85FEC07FFFFFFF603FFF94
1004
BFEBFD80A4B9F02B73E057FFFFFB07AAE430A7E4117FB01FFFFFFFD80FFBA7BDEF7A00558BF5FEC05AA88B05B2E11804B45D288B05B2E11804B471ED7FD83FFFFADCF815B5D44582D9708C025A2EBF60F73E056A22C16CB846012D1C39FFFFADAAA97BDEAA5EF7B9FFFFAD57219AE4117FB01FFFFFFFD80F
1004
FAB23DEF7BD46B6BEC1FFB016AA22C16CB846012D174A22C16CB846012D1C39FD57219CE4117FB01FFFFFFFD80FFB9F522FFAFF602D544582D9708C025A2E944582D9708C025A38F6BFEC1FFFFD6E7C0ADAEA22C16CB846012D175FB07B9F02B51160B65C2300968E1CFFFFD6D554BDEF552F7BDCFFFFD6A
1004
B90DE4117FB01FFFFFFFD80FFAB23DEF7BD46BFDB2FF602D544582D9708C025A2E944582D9708C025A3873FA31B90554A3249D26A005BB5A09E8F2583C183249D26A005B2778C9592916D93BC64AC9B2D3AD04F4792C05C8E84475732F7EE55A1C742FF603FFFFFC4FEC1FFC4FE52FFAFF60293FFFFFFFFF
1004
E3A17FB01FFFFFE27F60FFE27F297FD7FB0149FFFFFFFFFD83D18DC82AA51924E935002DDAD04F4792C1E289C3950001096D93BC64AC948B6C9DE32564D9649AE9EEDB015B91D081A0865EFDCAB478E85FEC07FFFFFFF603FFF94BFEBFC0AD27FFFFFFFFFC742FF603FFFFFFFB01FFFCA5FF5B9F02B49FFF
1004
FFFFFFD83D18DC82AD126BA7BB1CF68935D3DD8E7B449AE9EEC73D9113C2874898B6C9DE3256452DA24D74F76385C8E84DEB7065CEE559CE63A17FFFB01FFFD80FFFFFFFFFFA4FFFFFFFFFF8E85FFFEC07FFF603FFFFFFFFFE93FFFFFFFFFB014637206D126BA7BB1CF68935D3DD8E7B449AE9EEC73D9113
1004
C2874898B68935D3DD8E16C9DE3256452DC8E84B661973B947B98E85FEC07FFFFFFFFF603FFFFFE93FFFFFFFFFE3A17FB01FFFFFFFFFD80FFFFFFA4FFFFFFFFFEC0518DC82AD126BA7BB1CF68935D3DD8E7B449AE9EEC73DA24D74F76385B2778C95914B6C9DE3256452DC8E842C179973B907B98E85FFFF
1004
FEC07FFF603FFFFFFFE93FFFFFFFFFE3A17FFFFFB01FFFD80FFFFFFFFA4FFFFFFFFFEC0518DC82AD126BA7BB1CF68935D3DD8E7B3CE1CA80028D6C889E143A44C5B64EF192B2296D93BC64AC8A5B91D081E4465CEE5589CC742FF60FFE27F89FE27F60FFE27F4C5FE52FF29693FFFFFFFFFE3A17FB07FF13
1004
FC4FF13FB07FF13FA62FF297F94B49FFFFFFFFFD80A31B90368935D3DD8E7B3CE1CA80028D6D126BA7BB1CF6444F0A1D2262DB2778C95914B6C9DE3256452DC8E84CE34CB9DCAB35CC742FF89FE27F60FFD83FF89FE27F4C5FE52FF29693FFFFFFFFFE3A17FC4FF13FB07FEC1FFC4FF13FA62FF297F94B49
1004
FFFFFFFFFD80A31B9055069B1222888232DA24D74F7639ED126BA7BB1CF6444F0A1D2262DB2778C95914B6C9DE3256452DC8E84682CCB9DC8A0E63A17FC4FEC1FFC4FF13FC4FEC1FFA62FF297F94B49FFFFFFFFFF1D0BFE27F60FFE27F89FE27F60FFD317F94BFCA5A4FFFFFFFFFEC04E55D4A3249D26A00
1004
5BB5A09E8F2583C513872A000212DB2778C9592916D93BC64AC9B2C935D3DDB602B53840A88B506DE281EA70815116A0DBC500B52CA25AB6CCEE5EF6F97B360D0433B50682196F97B36F7BDEF7BDE5945FEC07FFFFFFF603FFF94BFEB73E0560AB9F02B73E056A70815116A0DBC503D4E102A22D41B78A01
1004
3957528C92749A8016ED6827A3C960F144E1CA800084B6C9DE32564A45B64EF192B26CB24D74F76D80AC914144028C54A219DAA8472AA1480A191A7B52CA24EADC33B97BDBE5ECD83410CED41A0865BE5ECDBDEF7BDEF79651695562255AA919EA015602A2A2A2A2AAACFFF5602A2A2A2A2AAAC295562255
1004
AA919EA01FE27F297FD6E7C0AC1573E056E7C0AC914144028C54A219DAA8472AA1480A191A79CABA946493A4D400B3CE1CA80028D60C1924E935002D93BC64AC948B6C9DE3256452C935D3DDB602BFF73F5B52088BB2B68CEE5EF6F97B36CE34CED59C6996F97B36E77BDEF208BFD80FFFFFFFEC07FC5E5D
1004
E2D2394AC6590FE52FF602D7FDCFD672AEA51924E935002CF3872A000A358306493A4D400B64EF192B2522DB2778C95914B24D74F76D80AFFDCFD6D48226FAB64CEF7B96F97B36CE34CED5BE5ECDB38D32F7BDEE7208BFD80FFFFFFFEC07FC551A080E17239DAFF297FB016BFEE7EB3957528C92749A8016
1004
8935D3DD8E78306493A4D400B64EF192B2522DA24D74F76384935D3DDB602BFF73F5B520899CAD833B97BDBE5ECDAD98676AB66196F97B36E77BDEF208BFD80FFFFFFFEC07FC551A080E17239DAFFFF602D7FDCFD672AEA51924E935002D126BA7BB1CF060C92749A8016C9DE32564A45B449AE9EEC70926
1004
BA7BB6C057FEE7EB6A4110B15AE677BDCB7CBD9B5B30CED5BE5ECDAD9865EF7BDCE4117FB01FFFFFFFD80FF8BCBBC5A472958CB21FFFD80B5FF73F59CABA946493A4D400B76B413D1E4B078306493A4D400B64EF192B2522DB2778C959365A75A09E8F2580A9C205445A836F140F53840A88B506DE2805A9
1004
6512756F99DEF72DF2F66C8EAE676ADF2F66C8EAE65EF7BDEF7BCB28BFD80FFFFFFFEC07FFF297FD7FB01055CF815B9F02B53840A88B506DE281EA70815116A0DBC5009CABA946493A4D400B76B413D1E4B078306493A4D400B64EF192B2522DB2778C959365A75A09E8F258092282880518A94433B5508E
1004
554290143234F6A5944B56F19DEF72DF2F66C8EAE676ADF2F66C8EAE65EF7BDEF7BCB28B4AAB112AD548CF500AB015151515155567FFAB0151515151555614AAB112AD548CF500FF13F94BFEBFD8082AE7C0ADCF81592282880518A94433B5508E554290143234F3957528C92749A801679C39500051AC18
1004
3249D26A005B2778C9592916D93BC64AC8A5A75A09E8F2580AA753C65354C2F540F55E8D04070B91C52DA9044201719DCBDE475732CE34CED59C69923AB9973BDEF79045FFFEC07FFFFFFF60F73EED7F94BFD80B554EA78CA6A985EA81EABD1A080E17238A59CABA946493A4D400B449AE9EEC73C183249D
1004
26A005B2778C9592916D126BA7BB1C29D6827A3C9602A994F194D530BD503C051A080E17238A5B52089BEAD633B97BC8EAE656CC33B55B30C91D5CCB9DEF7BC822FFFF60FFFFFFFFD83FFAFFFF602D55329E329AA617AA0780A34101C2E4714B3957528C92749A801679C39500051AC513872A000212DB27
1004
78C9592916D93BC64AC8A5926BA7BB6C056ABD1A080E17238A3B54EA78CA6A985EA805A9044B6F047EE5EF068219671A676ACE34C83410CB9DEF7BC822FFFF603FFFFFFFB0173EED7F94B73E056D557A34101C2E471476A9D4F194D530BD5009CABA946493A4D400B449AE9EEC73C513872A000212DB2778
1004
C9592916D126BA7BB1C249AE9EEDB01580A34101C2E471476A994F194D530BD500B52088D5288FDCBDE0D0432B6619DAAD98641A0865CEF7BDE4117FFFB07FFFFFFFEC07FAFFDCF815B50146820385C8E28ED5329E329AA617AA01395768935D3DD8E7B3CE1CA80028D6D126BA7BB1CF6444F0A1D2262DB2
1004
778C95914B68935D3DD8E1FCA3BFCA5B520880AB4C47EF7B96F5B832CE34CED5BD6E0CB38D32E7739045FFFEC07FFFFFFF60FFCA5FE52FFDAFE51DFE52CE55D069B1222888232DA24D74F7639ED126BA7BB1CF6444F0A1D2262DB2778C95914B68935D3DD8E1FE77FD6D482276AD411FBDEE5BD6E0C9A0B3
1004
3B56F5B832682CCB9DCE4117FB01FFFFFFFFFD83FF4C5FF5FFB5FE77FD672AED126BA7BB1CF68935D3DD8E7B449AE9EEC73DA24D74F76385B2778C95914B68935D3DD8E1FCA3BFE25A90444AB5447EF7B96F5B8322C1799DAB7ADC19160BCCB9DCE4117FB07FFFFFFFFFEC1FFFFFFED7F28EFF8939576893
1004
5D3DD8E7B449AE9EEC73DA24D74F7639EC889E143A44C5B449AE9EEC70B449AE9EEC70FFFE98B6A4110A45DCDD77BDCB7ADC195B30CED5BD6E0CAD9865CEE7208BFFFD83FFFFFFFF60FFFFFFF6BFFFA62CE55DA24D74F7639ED126BA7BB1CF679C39500051AD9113C2874898B68935D3DD8E16C9DE325645
1004
2FF28EFF296D48222EC298DD77BDCAD98641E44676AB661907911973B9C822FFFFFF603FFFB07FFFE52FFFF296D7F28EFF29672AE834D89114441196D126BA7BB1CF68935D3DD8E7B2227850E91316D126BA7BB1C2D93BC64AC8A5FF3BFEB6A41112ADD6EBBDEE56CC32682CCED56CC32682CCB9DCE4117F
1004
B01FFFFFFFD83FFFF4C5FFFF5B5FE77FD672AED126BA7BB1CF68935D3DD8E7B449AE9EEC73DA24D74F76385A24D74F76385B2778C95914BFFFCA5B52088BB1CB75DEF72B6619160BCCED56CC322C179973B9C822FF60FFFFFFFFD83FFFFFFFFDAFFFE52CE55DA24D74F7639ED126BA7BB1CF679C39500051
1004
ADA24D74F76385B2778C95914B6C9DE3256452FF9DFF5B520885A0B6EBBDEE4582F320F2233B5160BCC83C88CB9DCE4117FFFFFB01FD83FFFFFFFFAFF296D7F9DFF59CABB449AE9EEC73D9E70E5400146B68935D3DD8E7B449AE9EEC70B64EF192B2296D93BC64AC8A5FF3BFEB6A4110815A4DD77BDC8B05
1004
E659C699DA8B05E659C69973B9C822FFFF603FFFB07FFFFFFFE52FFADAFF3BFEB395768935D3DD8E7B3CE1CA80028D6CF3872A000A35B2227850E91316D93BC64AC8A5B64EF192B2297FA61DFF12D4822161D375DEF720F2232CE34CED41E44659C69973B9C822FFFF603FFFFFFFB01FD317F94BFCA5B5FD
1004
30EFF89395741A6C488A2208CB68935D3DD8E7B3CE1CA80028D6C889E143A44C5B64EF192B2296D93BC64AC8A5FFFE52DA90444720DD77BDC83C88C9A0B33B5079119341665CEE7208BFD80FFFFFF13FFFB01FD317F94BFCA5B5FFFCA59CABA0D362445110465B3CE1CA80028D6D126BA7BB1CF6444F0A1D
1004
2262DB2778C95914B6C9DE3256452FF28EFF896A41103559EDD77BDCB38D32682CCED59C699341665CEE7208BFD80FFFFFFFEC07FFF4C5FE52FF296D7F28EFF89565965595
1005
48
  0
INSERT
  8
AME_FRZ
  5
48
  2
AME_NIL
 10
1.0
 20
1.0
 30
1.0
1001
AME_SOL
1004

1005
0
  0
ENDSEC
  0
EOF
