600 0 1 0           
96 GICL ACIS Healer - Source: /gicl/data5/repository/STEP/STI/bracket1-Part/bracket1-Part.sat - 6 0 18 ACIS 6.0.3 Solaris 24 Sun Apr 14 00:10:39 2002 
1 9.999999999999999547e-07 1.000000000000000036e-10 
body $1 $2 $-1 $3 #
attrib_gssl_step_cc1_details-attrib_gssl_step-attrib $-1 $-1 $-1 $0 $4 $5 $6 $7 $8 $9 $10 $11 $12 $13 $14 $15 $16 $17 $18 $19 $20 $21 $22 $23 $24 $25 $26 $27 $28 $29 $30 $31 $32 $33 $34 $35 #
lump $-1 $-1 $36 $0 #
transform $-1 1 0 0 0 1 0 0 0 1 0 0 0 1 no_rotate no_reflect no_shear #
attrib_gssl_step_product_details-attrib_gssl_step-attrib $-1 $-1 $-1 $-1 7 Product 9 Test Part 1 1 6 detail 6 detail #
attrib_gssl_step_application_details-attrib_gssl_step-attrib $-1 $-1 $-1 $-1 70 configuration controlled 3d designs of mechanical parts and assemblies 22 International Standard 21 config_control_design 1994 #
attrib_gssl_step_mech_con_details-attrib_gssl_step-attrib $-1 $-1 $-1 $-1 19 3D Mechanical Parts 10 mechanical #
attrib_gssl_step_des_con_details-attrib_gssl_step-attrib $-1 $-1 $-1 $-1 19 3D Mechanical Parts 6 design #
attrib_gssl_step_person_details-attrib_gssl_step-attrib $-1 $-1 $-1 $-1 1 1 9 Last Name 10 First Name 0 0 0 #
attrib_gssl_step_person_details-attrib_gssl_step-attrib $-1 $-1 $-1 $-1 1 2 9 Last Name 10 First Name 0 0 0 #
attrib_gssl_step_person_details-attrib_gssl_step-attrib $-1 $-1 $-1 $-1 1 3 9 Last Name 10 First Name 0 0 0 #
attrib_gssl_step_person_details-attrib_gssl_step-attrib $-1 $-1 $-1 $-1 1 2 9 Last Name 10 First Name 0 0 0 #
attrib_gssl_step_person_details-attrib_gssl_step-attrib $-1 $-1 $-1 $-1 1 2 9 Last Name 10 First Name 0 0 0 #
attrib_gssl_step_person_details-attrib_gssl_step-attrib $-1 $-1 $-1 $-1 1 3 9 Last Name 10 First Name 0 0 0 #
attrib_gssl_step_person_details-attrib_gssl_step-attrib $-1 $-1 $-1 $-1 1 3 9 Last Name 10 First Name 0 0 0 #
attrib_gssl_step_person_details-attrib_gssl_step-attrib $-1 $-1 $-1 $-1 1 3 9 Last Name 10 First Name 0 0 0 #
attrib_gssl_step_org_details-attrib_gssl_step-attrib $-1 $-1 $-1 $-1 3 STI 3 R&D 3 R&D 12 design_owner #
attrib_gssl_step_org_details-attrib_gssl_step-attrib $-1 $-1 $-1 $-1 3 STI 3 R&D 3 R&D 7 creator #
attrib_gssl_step_org_details-attrib_gssl_step-attrib $-1 $-1 $-1 $-1 3 STI 3 R&D 3 R&D 0  #
attrib_gssl_step_org_details-attrib_gssl_step-attrib $-1 $-1 $-1 $-1 3 STI 3 R&D 3 R&D 7 creator #
attrib_gssl_step_org_details-attrib_gssl_step-attrib $-1 $-1 $-1 $-1 3 STI 3 R&D 3 R&D 15 design_supplier #
attrib_gssl_step_org_details-attrib_gssl_step-attrib $-1 $-1 $-1 $-1 3 STI 3 R&D 3 R&D 0  #
attrib_gssl_step_org_details-attrib_gssl_step-attrib $-1 $-1 $-1 $-1 3 STI 3 R&D 3 R&D 0  #
attrib_gssl_step_org_details-attrib_gssl_step-attrib $-1 $-1 $-1 $-1 3 STI 3 R&D 3 R&D 22 classification_officer #
attrib_gssl_step_datetime_details-attrib_gssl_step-attrib $-1 $-1 $-1 $-1 1997 1 1 0 0 0 5 0 1 13 creation_date #
attrib_gssl_step_datetime_details-attrib_gssl_step-attrib $-1 $-1 $-1 $-1 1997 1 1 0 0 0 5 0 1 0  #
attrib_gssl_step_datetime_details-attrib_gssl_step-attrib $-1 $-1 $-1 $-1 1997 1 1 0 0 0 5 0 1 0  #
attrib_gssl_step_datetime_details-attrib_gssl_step-attrib $-1 $-1 $-1 $-1 1997 1 1 0 0 0 5 0 1 19 classification_date #
attrib_gssl_step_datetime_details-attrib_gssl_step-attrib $-1 $-1 $-1 $-1 1997 1 1 0 0 0 5 0 1 0  #
attrib_gssl_step_security_details-attrib_gssl_step-attrib $-1 $-1 $-1 $-1 7 Version 20 Security for version 12 unclassified #
attrib_gssl_step_approval_details-attrib_gssl_step-attrib $-1 $-1 $-1 $-1 19 Definition approval 16 not_yet_approved 19 definition approval 0  #
attrib_gssl_step_approval_details-attrib_gssl_step-attrib $-1 $-1 $-1 $-1 16 Version approval 16 not_yet_approved 16 version approval 0  #
attrib_gssl_step_approval_details-attrib_gssl_step-attrib $-1 $-1 $-1 $-1 25 Version Security approval 16 not_yet_approved 25 version security approval 0  #
attrib_gssl_step_product_def_form_details-attrib_gssl_step-attrib $-1 $-1 $-1 $-1 9 Test Part 7 Version 0 #
attrib_gssl_step_product_def_details-attrib_gssl_step-attrib $-1 $-1 $-1 $-1 9 Test Part 7 Version #
attrib_gssl_step_product_def_spec_details-attrib_gssl_step-attrib $-1 $-1 $-1 $-1 9 Test Part 7 Version #
shell $-1 $-1 $-1 $37 $-1 $2 #
face $-1 $38 $39 $36 $-1 $40 reversed single #
face $-1 $41 $42 $36 $-1 $43 reversed single #
loop $-1 $-1 $44 $37 #
cone-surface $-1 -17.5 0 10 0 0 1 2.5 0 0 1 I I 0 1 2.5 forward I I I I #
face $-1 $45 $46 $36 $-1 $47 forward single #
loop $-1 $-1 $48 $38 #
cone-surface $-1 17.5 0 10 0 0 1 2.5 0 0 1 I I 0 1 2.5 forward I I I I #
coedge $-1 $49 $50 $51 $52 reversed $39 $-1 #
face $-1 $53 $54 $36 $-1 $55 forward single #
loop $-1 $56 $57 $41 #
plane-surface $-1 0 0 12.5 0 0 1 1 0 0 forward_v I I I I #
coedge $-1 $58 $59 $60 $61 reversed $42 $-1 #
coedge $-1 $62 $44 $63 $64 forward $39 $-1 #
coedge $-1 $44 $62 $57 $65 reversed $39 $-1 #
coedge $-1 $66 $67 $44 $52 forward $68 $-1 #
edge $-1 $69 -2.5 $70 2.5 $44 $71 forward 7 unknown #
face $-1 $72 $68 $36 $-1 $73 forward single #
loop $-1 $-1 $74 $45 #
plane-surface $-1 0 0 7.5 0 0 1 1 0 0 forward_v I I I I #
loop $-1 $-1 $75 $41 #
coedge $-1 $76 $77 $50 $65 forward $46 $-1 #
coedge $-1 $78 $48 $79 $80 forward $42 $-1 #
coedge $-1 $48 $81 $82 $83 reversed $42 $-1 #
coedge $-1 $84 $85 $48 $61 forward $86 $-1 #
edge $-1 $87 -2.5 $88 2.5 $48 $89 forward 7 unknown #
coedge $-1 $50 $49 $90 $91 forward $39 $-1 #
coedge $-1 $92 $93 $49 $64 reversed $94 $-1 #
edge $-1 $69 1.570796326794896558 $95 4.712388980384689674 $49 $96 forward 7 unknown #
edge $-1 $70 1.570796326794896558 $97 4.712388980384689674 $50 $98 forward 7 unknown #
coedge $-1 $99 $51 $77 $100 reversed $68 $-1 #
coedge $-1 $51 $99 $92 $101 forward $68 $-1 #
loop $-1 $-1 $99 $53 #
vertex $-1 $52 $102 #
vertex $-1 $52 $103 #
straight-curve $-1 -17.5 -2.5 10 0 0 1 I I #
face $-1 $104 $105 $36 $-1 $73 forward single #
plane-surface $-1 0 -2.5 10 0 1 0 0 0 1 forward_v I I I I #
coedge $-1 $106 $79 $85 $107 reversed $54 $-1 #
coedge $-1 $108 $109 $110 $111 forward $56 $-1 #
coedge $-1 $112 $57 $113 $114 forward $46 $-1 #
coedge $-1 $57 $115 $66 $100 forward $46 $-1 #
coedge $-1 $116 $58 $117 $118 forward $42 $-1 #
coedge $-1 $74 $117 $58 $80 reversed $54 $-1 #
edge $-1 $87 -1.570796326794896558 $119 0 $58 $120 forward 7 unknown #
coedge $-1 $59 $116 $121 $122 reversed $42 $-1 #
coedge $-1 $121 $123 $59 $83 forward $46 $-1 #
edge $-1 $88 -1.570796326794896558 $124 0 $59 $125 forward 7 unknown #
coedge $-1 $126 $60 $123 $127 reversed $86 $-1 #
coedge $-1 $60 $126 $74 $107 forward $86 $-1 #
loop $-1 $-1 $126 $128 #
vertex $-1 $61 $129 #
vertex $-1 $61 $130 #
straight-curve $-1 17.5 2.5 10 0 0 1 I I #
coedge $-1 $131 $113 $62 $91 reversed $132 $-1 #
edge $-1 $95 -2.5 $97 2.5 $62 $133 forward 7 unknown #
coedge $-1 $134 $63 $67 $101 reversed $94 $-1 #
coedge $-1 $63 $134 $131 $135 reversed $94 $-1 #
loop $-1 $-1 $92 $136 #
vertex $-1 $64 $137 #
ellipse-curve $-1 -17.5 0 7.5 -0 -0 -1 2.5 0 0 1 I I #
vertex $-1 $91 $138 #
ellipse-curve $-1 -17.5 0 12.5 -0 -0 -1 2.5 0 0 1 I I #
coedge $-1 $67 $66 $139 $140 reversed $68 $-1 #
edge $-1 $141 4.330127018922193649 $70 17.5 $77 $142 forward 7 unknown #
edge $-1 $143 4.330127018922193649 $69 17.5 $67 $144 reversed 7 unknown #
point $-1 -17.5 -2.5 7.5 #
point $-1 -17.5 -2.5 12.5 #
face $-1 $136 $132 $36 $-1 $145 forward single #
loop $-1 $-1 $146 $72 #
coedge $-1 $147 $74 $148 $149 reversed $54 $-1 #
edge $-1 $150 4.330127018922192761 $87 17.5 $74 $151 forward 7 unknown #
coedge $-1 $152 $75 $153 $154 forward $56 $-1 #
coedge $-1 $75 $155 $156 $157 forward $56 $-1 #
coedge $-1 $158 $159 $75 $111 reversed $160 $-1 #
edge $-1 $161 -6.283185307179586232 $162 -1.570796326794896558 $75 $163 reversed 7 unknown #
coedge $-1 $123 $76 $164 $165 forward $46 $-1 #
coedge $-1 $90 $166 $76 $114 reversed $132 $-1 #
edge $-1 $97 -17.5 $167 -4.330127018922193649 $76 $168 forward 7 unknown #
coedge $-1 $77 $169 $170 $171 forward $46 $-1 #
coedge $-1 $81 $78 $172 $173 forward $42 $-1 #
coedge $-1 $79 $147 $78 $118 reversed $54 $-1 #
edge $-1 $119 0 $174 1.570796326794896558 $78 $175 forward 7 unknown #
vertex $-1 $80 $176 #
ellipse-curve $-1 17.5 0 7.5 -0 -0 -1 2.5 0 0 1 I I #
coedge $-1 $169 $82 $81 $122 forward $46 $-1 #
edge $-1 $124 0 $177 1.570796326794896558 $81 $178 forward 7 unknown #
coedge $-1 $82 $112 $84 $127 forward $46 $-1 #
vertex $-1 $122 $179 #
ellipse-curve $-1 17.5 0 12.5 -0 -0 -1 2.5 0 0 1 I I #
coedge $-1 $85 $84 $180 $181 reversed $86 $-1 #
edge $-1 $182 4.330127018922192761 $88 17.5 $123 $183 forward 7 unknown #
face $-1 $184 $86 $36 $-1 $145 forward single #
point $-1 17.5 2.5 7.5 #
point $-1 17.5 2.5 12.5 #
coedge $-1 $166 $90 $93 $135 forward $132 $-1 #
loop $-1 $-1 $166 $104 #
straight-curve $-1 -17.5 2.5 10 0 0 1 I I #
coedge $-1 $93 $92 $185 $186 reversed $94 $-1 #
edge $-1 $95 -17.5 $187 -4.330127018922193649 $131 $188 reversed 7 unknown #
face $-1 $128 $94 $36 $-1 $55 forward single #
point $-1 -17.5 2.5 7.5 #
point $-1 -17.5 2.5 12.5 #
coedge $-1 $170 $185 $99 $140 forward $189 $-1 #
edge $-1 $143 7.5 $141 12.5 $99 $190 forward 7 unknown #
vertex $-1 $171 $191 #
straight-curve $-1 0 -2.5 12.5 -1 0 0 I I #
vertex $-1 $140 $192 #
straight-curve $-1 0 -2.5 7.5 1 0 0 I I #
plane-surface $-1 0 2.5 10 0 -1 0 0 0 -1 forward_v I I I I #
coedge $-1 $193 $194 $195 $196 reversed $105 $-1 #
coedge $-1 $117 $106 $194 $197 reversed $54 $-1 #
coedge $-1 $180 $195 $106 $149 forward $189 $-1 #
edge $-1 $198 -0.5235987755982989267 $150 0.5235987755982989267 $106 $199 forward 7 unknown #
vertex $-1 $107 $200 #
straight-curve $-1 0 2.5 7.5 1 0 -0 I I #
coedge $-1 $201 $108 $202 $203 forward $56 $-1 #
coedge $-1 $204 $205 $108 $154 reversed $206 $-1 #
edge $-1 $162 5.625 $207 15.625 $108 $208 forward 7 unknown #
coedge $-1 $109 $209 $210 $211 forward $56 $-1 #
coedge $-1 $212 $213 $109 $157 reversed $214 $-1 #
edge $-1 $215 -10 $161 10 $109 $216 forward 7 unknown #
coedge $-1 $217 $110 $213 $218 reversed $160 $-1 #
coedge $-1 $110 $217 $204 $219 reversed $160 $-1 #
loop $-1 $-1 $158 $220 #
vertex $-1 $111 $221 #
vertex $-1 $111 $222 #
ellipse-curve $-1 -12.5 12.5 12.5 0 0 1 2.5 0 0 1 I I #
coedge $-1 $223 $180 $112 $165 reversed $189 $-1 #
edge $-1 $167 -2.617993877991494411 $182 -0.5235987755982989267 $112 $224 reversed 7 unknown #
coedge $-1 $113 $131 $223 $225 reversed $132 $-1 #
vertex $-1 $114 $226 #
straight-curve $-1 0 2.5 12.5 1 0 -0 I I #
coedge $-1 $115 $121 $193 $227 forward $46 $-1 #
coedge $-1 $195 $139 $115 $171 reversed $189 $-1 #
edge $-1 $228 0.5235987755982989267 $141 2.617993877991494411 $115 $229 reversed 7 unknown #
coedge $-1 $194 $193 $116 $173 reversed $105 $-1 #
edge $-1 $174 -2.5 $177 2.5 $116 $230 forward 7 unknown #
vertex $-1 $118 $231 #
ellipse-curve $-1 17.5 0 7.5 -0 -0 -1 2.5 0 0 1 I I #
point $-1 20 0 7.5 #
vertex $-1 $173 $232 #
ellipse-curve $-1 17.5 0 12.5 -0 -0 -1 2.5 0 0 1 I I #
point $-1 20 0 12.5 #
coedge $-1 $164 $148 $126 $181 forward $189 $-1 #
edge $-1 $150 7.5 $182 12.5 $126 $233 forward 7 unknown #
vertex $-1 $165 $234 #
straight-curve $-1 0 2.5 12.5 1 0 -0 I I #
face $-1 $235 $189 $36 $-1 $236 reversed single #
coedge $-1 $139 $223 $134 $186 forward $189 $-1 #
edge $-1 $187 2.617993877991494411 $143 3.665191429188091821 $134 $237 forward 7 unknown #
vertex $-1 $225 $238 #
straight-curve $-1 0 2.5 7.5 -1 0 0 I I #
loop $-1 $239 $180 $184 #
straight-curve $-1 -4.330127018922193649 -2.5 0 0 0 1 I I #
point $-1 -4.330127018922193649 -2.499999999999999556 12.5 #
point $-1 -4.330127018922193649 -2.5 7.5 #
coedge $-1 $172 $146 $169 $227 reversed $105 $-1 #
coedge $-1 $146 $172 $147 $197 forward $105 $-1 #
coedge $-1 $148 $170 $146 $196 forward $189 $-1 #
edge $-1 $228 -12.5 $198 -7.5 $146 $240 forward 7 unknown #
edge $-1 $174 -17.5 $198 -4.330127018922192761 $147 $241 forward 7 unknown #
vertex $-1 $149 $242 #
ellipse-curve $-1 0 0 7.5 0 0 1 5 0 0 1 I I #
point $-1 4.330127018922192761 2.5 7.5 #
coedge $-1 $243 $152 $244 $245 forward $56 $-1 #
coedge $-1 $246 $247 $152 $203 reversed $248 $-1 #
edge $-1 $207 12.5 $249 40 $152 $250 reversed 7 unknown #
coedge $-1 $251 $153 $159 $219 forward $206 $-1 #
coedge $-1 $153 $251 $246 $252 reversed $206 $-1 #
loop $-1 $-1 $204 $253 #
vertex $-1 $154 $254 #
straight-curve $-1 -12.5 9.375 12.5 0 1 0 I I #
coedge $-1 $155 $255 $256 $257 forward $56 $-1 #
coedge $-1 $256 $258 $155 $211 reversed $259 $-1 #
edge $-1 $260 -0 $215 3.141592653589793116 $155 $261 reversed 7 unknown #
coedge $-1 $262 $156 $258 $263 forward $214 $-1 #
coedge $-1 $156 $262 $158 $218 forward $214 $-1 #
loop $-1 $-1 $213 $264 #
vertex $-1 $211 $265 #
straight-curve $-1 0 12.5 12.5 -1 0 0 I I #
coedge $-1 $159 $158 $266 $267 reversed $160 $-1 #
edge $-1 $268 -12.5 $161 12.5 $158 $269 forward 7 unknown #
edge $-1 $162 -12.5 $270 12.5 $159 $271 forward 7 unknown #
face $-1 $264 $160 $36 $-1 $272 reversed single #
point $-1 -10 12.5 12.5 #
point $-1 -12.5 15 12.5 #
coedge $-1 $185 $164 $166 $225 forward $189 $-1 #
ellipse-curve $-1 0 0 12.5 0 0 1 5 0 0 1 I I #
edge $-1 $167 -12.5 $187 -7.5 $166 $273 forward 7 unknown #
point $-1 -4.330127018922193649 2.499999999999999556 12.5 #
edge $-1 $177 -17.5 $228 -4.330127018922192761 $169 $274 forward 7 unknown #
vertex $-1 $227 $275 #
ellipse-curve $-1 0 0 12.5 0 0 1 5 0 0 1 I I #
straight-curve $-1 17.5 -2.5 10 0 0 1 I I #
point $-1 17.5 -2.5 7.5 #
point $-1 17.5 -2.5 12.5 #
straight-curve $-1 4.330127018922193649 2.5 0 0 0 1 I I #
point $-1 4.330127018922192761 2.5 12.5 #
face $-1 $220 $276 $36 $-1 $277 reversed single #
cone-surface $-1 0 0 0 0 0 1 5 0 0 1 I I 0 1 5 forward I I I I #
ellipse-curve $-1 0 0 7.5 0 0 1 5 0 0 1 I I #
point $-1 -4.330127018922193649 2.5 7.5 #
loop $-1 $278 $279 $184 #
straight-curve $-1 4.330127018922193649 -2.5 0 -0 -0 -1 I I #
straight-curve $-1 0 -2.5 7.5 -1 0 0 I I #
point $-1 4.330127018922192761 -2.5 7.5 #
coedge $-1 $280 $201 $281 $282 forward $56 $-1 #
coedge $-1 $283 $284 $201 $245 reversed $285 $-1 #
edge $-1 $249 -18.75 $286 6.25 $201 $287 forward 7 unknown #
coedge $-1 $288 $202 $205 $252 forward $248 $-1 #
coedge $-1 $202 $289 $283 $290 forward $248 $-1 #
loop $-1 $-1 $289 $291 #
vertex $-1 $203 $292 #
straight-curve $-1 0 25 12.5 1 0 -0 I I #
coedge $-1 $205 $204 $293 $294 reversed $206 $-1 #
edge $-1 $207 -12.5 $295 12.5 $205 $296 forward 7 unknown #
face $-1 $291 $206 $36 $-1 $297 forward single #
point $-1 -12.5 25 12.5 #
coedge $-1 $209 $298 $299 $300 forward $56 $-1 #
coedge $-1 $301 $210 $209 $257 reversed $259 $-1 #
edge $-1 $302 -1.570796326794896558 $260 -0 $209 $303 reversed 7 unknown #
coedge $-1 $210 $304 $212 $263 reversed $259 $-1 #
loop $-1 $-1 $258 $305 #
vertex $-1 $257 $306 #
ellipse-curve $-1 12.5 12.5 12.5 0 0 1 2.5 0 0 1 I I #
coedge $-1 $213 $212 $307 $308 reversed $214 $-1 #
edge $-1 $215 -12.5 $309 12.5 $212 $310 reversed 7 unknown #
face $-1 $305 $311 $36 $-1 $312 forward single #
point $-1 10 12.5 12.5 #
coedge $-1 $307 $293 $217 $267 forward $313 $-1 #
edge $-1 $270 -4.712388980384689674 $268 -0 $217 $314 reversed 7 unknown #
vertex $-1 $218 $315 #
straight-curve $-1 -10 12.5 0 0 0 1 I I #
vertex $-1 $267 $316 #
straight-curve $-1 -12.5 15 0 -0 -0 -1 I I #
cone-surface $-1 -12.5 12.5 0 0 0 1 2.5 0 0 1 I I 0 1 2.5 forward I I I I #
straight-curve $-1 -4.330127018922193649 2.5 0 -0 -0 -1 I I #
straight-curve $-1 0 -2.5 12.5 -1 0 0 I I #
point $-1 4.330127018922192761 -2.5 12.5 #
loop $-1 $317 $318 $235 #
cone-surface $-1 0 0 0 0 -1 -3.491481338843129805e-15 2.5 0 0 1 I I 0 1 2.5 forward I I I I #
loop $-1 $319 $320 $184 #
coedge $-1 $279 $279 $321 $322 reversed $239 $-1 #
coedge $-1 $323 $243 $324 $325 forward $56 $-1 #
coedge $-1 $326 $327 $243 $282 reversed $328 $-1 #
edge $-1 $286 -17.5 $329 -5 $243 $330 forward 7 unknown #
coedge $-1 $331 $244 $247 $290 reversed $285 $-1 #
coedge $-1 $244 $331 $326 $332 reversed $285 $-1 #
loop $-1 $-1 $331 $333 #
vertex $-1 $245 $334 #
straight-curve $-1 -40 6.25 12.5 0 -1 0 I I #
coedge $-1 $335 $246 $336 $337 reversed $248 $-1 #
coedge $-1 $247 $338 $339 $340 forward $248 $-1 #
edge $-1 $341 -0.6249999999999125144 $249 9.375 $247 $342 reversed 7 unknown #
face $-1 $333 $248 $36 $-1 $343 reversed single #
point $-1 -40 25 12.5 #
coedge $-1 $266 $336 $251 $294 forward $313 $-1 #
edge $-1 $295 -15.625 $270 -5.625 $293 $344 reversed 7 unknown #
vertex $-1 $337 $345 #
straight-curve $-1 -12.5 25 0 0 0 -1 I I #
plane-surface $-1 -12.5 18.75 0 1 0 0 0 0 -1 forward_v I I I I #
coedge $-1 $255 $346 $347 $348 forward $56 $-1 #
coedge $-1 $349 $350 $255 $300 reversed $351 $-1 #
edge $-1 $352 -15.625 $302 -5.625 $255 $353 forward 7 unknown #
coedge $-1 $354 $256 $350 $355 reversed $259 $-1 #
vertex $-1 $300 $356 #
ellipse-curve $-1 12.5 12.5 12.5 0 0 1 2.5 0 0 1 I I #
coedge $-1 $258 $354 $357 $358 reversed $259 $-1 #
face $-1 $359 $259 $36 $-1 $360 reversed single #
point $-1 15 12.5 12.5 #
coedge $-1 $357 $266 $262 $308 forward $313 $-1 #
edge $-1 $268 -10 $309 10 $262 $361 forward 7 unknown #
vertex $-1 $263 $362 #
straight-curve $-1 10 12.5 0 0 0 1 I I #
loop $-1 $214 $363 $264 #
plane-surface $-1 0 12.5 0 0 1 0 0 0 1 forward_v I I I I #
loop $-1 $-1 $266 $359 #
ellipse-curve $-1 -12.5 12.5 -12.5 -0 -0 -1 2.5 0 0 1 I I #
point $-1 -10 12.5 -12.5 #
point $-1 -12.5 15 -12.5 #
loop $-1 $-1 $364 $235 #
coedge $-1 $318 $318 $363 $365 reversed $276 $-1 #
loop $-1 $-1 $366 $184 #
coedge $-1 $320 $320 $364 $367 reversed $278 $-1 #
coedge $-1 $321 $321 $279 $322 forward $368 $-1 #
edge $-1 $369 -15.37562208415079823 $369 -0 $279 $370 reversed 7 unknown #
coedge $-1 $371 $280 $372 $373 forward $56 $-1 #
coedge $-1 $374 $375 $280 $325 reversed $376 $-1 #
edge $-1 $329 -6.25 $377 18.75 $280 $378 forward 7 unknown #
coedge $-1 $379 $281 $284 $332 forward $328 $-1 #
coedge $-1 $281 $380 $374 $381 reversed $328 $-1 #
loop $-1 $-1 $379 $382 #
vertex $-1 $282 $383 #
straight-curve $-1 -22.5 0 12.5 1 0 -0 I I #
coedge $-1 $284 $283 $384 $385 forward $285 $-1 #
edge $-1 $286 -9.375 $386 0.625 $326 $387 forward 7 unknown #
face $-1 $388 $285 $36 $-1 $389 forward single #
point $-1 -40 0 12.5 #
coedge $-1 $390 $288 $391 $392 reversed $248 $-1 #
coedge $-1 $293 $393 $288 $337 forward $313 $-1 #
edge $-1 $394 -62.5 $295 -12.5 $336 $395 forward 7 unknown #
coedge $-1 $289 $396 $397 $398 forward $248 $-1 #
coedge $-1 $397 $384 $289 $340 reversed $399 $-1 #
edge $-1 $400 2.019483917365790334e-29 $341 1.570796326794896558 $339 $401 reversed 7 unknown #
vertex $-1 $385 $402 #
straight-curve $-1 -40 25 3.125 -0 -0 -1 I I #
plane-surface $-1 0 25 0 0 -1 0 0 0 -1 forward_v I I I I #
straight-curve $-1 -12.5 9.375 -12.5 0 1 0 I I #
point $-1 -12.5 25 -12.5 #
coedge $-1 $298 $403 $404 $405 forward $56 $-1 #
coedge $-1 $406 $407 $298 $348 reversed $408 $-1 #
edge $-1 $409 -40 $352 -12.5 $298 $410 reversed 7 unknown #
coedge $-1 $411 $299 $407 $412 reversed $351 $-1 #
coedge $-1 $299 $411 $301 $355 forward $351 $-1 #
loop $-1 $-1 $350 $413 #
vertex $-1 $348 $414 #
straight-curve $-1 12.5 9.375 12.5 0 -1 0 I I #
coedge $-1 $304 $301 $415 $416 reversed $259 $-1 #
edge $-1 $417 -12.5 $302 12.5 $301 $418 forward 7 unknown #
point $-1 12.5 15 12.5 #
coedge $-1 $415 $307 $304 $358 forward $313 $-1 #
edge $-1 $309 -3.141592653589793116 $419 -0 $304 $420 reversed 7 unknown #
face $-1 $413 $421 $36 $-1 $422 reversed single #
cone-surface $-1 12.5 12.5 0 0 0 1 2.5 0 0 1 I I 0 1 2.5 forward I I I I #
straight-curve $-1 0 12.5 -12.5 1 0 0 I I #
point $-1 10 12.5 -12.5 #
coedge $-1 $363 $363 $318 $365 forward $311 $-1 #
coedge $-1 $364 $364 $320 $367 forward $317 $-1 #
edge $-1 $423 -3.141592653589799777 $423 3.141592653589786455 $318 $424 forward 7 unknown #
coedge $-1 $366 $366 $425 $426 reversed $319 $-1 #
edge $-1 $427 -15.37562208415079823 $427 -0 $320 $428 reversed 7 unknown #
loop $-1 $429 $321 $430 #
vertex $-1 $322 $431 #
intcurve-curve $-1 forward { surfintcur full nubs 3 periodic 33 
	0 3 0.4811440011018409124 2 0.9622880022036818248 2 1.443432003305522793 2 1.92457600440736365 2 
	2.404408383564947016 2 2.88424076272253016 2 3.364073141880113305 2 3.843905521037696893 2 4.323737900195279593 2 
	4.803570279352863182 2 5.28340265851044677 2 5.763235037668030358 2 6.244379038769871215 2 6.72552303987171296 2 
	7.206667040973554705 2 7.687811042075395562 2 8.168955043177238196 2 8.650099044279079052 2 9.131243045380919909 2 
	9.612387046482762543 2 10.09221942564034613 2 10.57205180479792972 2 11.05188418395551331 2 11.5317165631130969 2 
	12.01154894227067871 2 12.4913813214282623 2 12.97121370058584588 2 13.4510460797434277 2 13.93219008084527033 2 
	14.41333408194711296 2 14.8944780830489556 2 15.37562208415079823 3 
	2.5 -4.330127018922193649 -1.511855768138727235e-14 
	2.5 -4.330127018922193649 0.1603813337005985384 
	2.484324272132625744 -4.339298601576790482 0.3250483228181324513 
	2.419587660941990848 -4.375725652700899637 0.6504760247244131266 
	2.370553414479064536 -4.402920200199678114 0.8112488520610330323 
	2.242232321053398536 -4.469633420834358439 1.118053549866702578 
	2.162843296140692484 -4.509119019866595579 1.264383132767680884 
	1.980404217889977225 -4.592172099391080842 1.534455918960464071 
	1.877328261646977747 -4.635661451169760028 1.658205644285743796 
	1.65850431374101337 -4.718369129321835942 1.87702959219170773 
	1.534902613275820782 -4.760658410769706528 1.980062860243749334 
	1.26476925246217986 -4.839437288971786266 2.162621950865445619 
	1.11822959364498753 -4.875866557168181181 2.242161966026775755 
	0.8109849903630883539 -4.936275466307150417 2.370660498457459742 
	0.6499871261909447862 -4.960268245560041755 2.419721681027885651 
	0.3244698334328496303 -4.992140188273487489 2.484402464407301281 
	0.1599441263858613071 -5 2.499999999999982236 
	-0.1599441263858607243 -5 2.499999999999982681 
	-0.3244698334328485201 -4.992140188273486601 2.484402464407301725 
	-0.6499871261909433429 -4.960268245560042644 2.419721681027886095 
	-0.8109849903630867995 -4.936275466307150417 2.370660498457460186 
	-1.118229593644986197 -4.875866557168181181 2.242161966026776643 
	-1.264769252462178528 -4.839437288971786266 2.162621950865446507 
	-1.534902613275819672 -4.760658410769706528 1.980062860243750222 
	-1.658504313741012481 -4.718369129321835942 1.877029592191708174 
	-1.877328261646977081 -4.635661451169760028 1.65820564428574424 
	-1.980404217889976115 -4.59217209939108173 1.534455918960465404 
	-2.162843296140691152 -4.509119019866597355 1.26438313276768266 
	-2.242232321053398092 -4.469633420834359328 1.118053549866703023 
	-2.370553414479064536 -4.402920200199679002 0.8112488520610330323 
	-2.419587660941991292 -4.375725652700899637 0.6504760247244134597 
	-2.484324272132626188 -4.339298601576790482 0.3250483228181325623 
	-2.5 -4.330127018922193649 0.1603813337005984829 
	-2.5 -4.330127018922193649 -0.1603813337006292639 
	-2.484324272132626188 -4.339298601576790482 -0.3250483228181638706 
	-2.419587660941991292 -4.375725652700899637 -0.650476024724445101 
	-2.370553414479064536 -4.402920200199679002 -0.8112488520610645626 
	-2.242232321053398536 -4.469633420834359328 -1.118053549866734109 
	-2.16284329614069204 -4.509119019866596467 -1.26438313276771197 
	-1.980404217889977225 -4.59217209939108173 -1.534455918960495602 
	-1.877328261646977747 -4.63566145116975914 -1.658205644285776215 
	-1.65850431374101337 -4.718369129321835942 -1.877029592191741258 
	-1.534902613275820338 -4.760658410769706528 -1.980062860243782641 
	-1.264769252462178972 -4.839437288971786266 -2.162621950865479814 
	-1.118229593644987307 -4.875866557168181181 -2.242161966026810838 
	-0.8109849903630882428 -4.936275466307150417 -2.370660498457494825 
	-0.6499871261909447862 -4.960268245560042644 -2.41972168102792029 
	-0.3244698334328499634 -4.992140188273486601 -2.48440246440733592 
	-0.159944126385861668 -5 -2.500000000000017319 
	0.1599441263858602247 -5 -2.500000000000016875 
	0.3244698334328480205 -4.992140188273485713 -2.484402464407336364 
	0.6499871261909426767 -4.960268245560041755 -2.419721681027920734 
	0.8109849903630866885 -4.936275466307151305 -2.370660498457495269 
	1.118229593644985975 -4.875866557168182069 -2.242161966026811282 
	1.264769252462178306 -4.839437288971786266 -2.162621950865480258 
	1.534902613275819228 -4.760658410769707416 -1.980062860243783973 
	1.658504313741011593 -4.718369129321835942 -1.877029592191743035 
	1.877328261646975971 -4.635661451169760028 -1.658205644285778657 
	1.980404217889975449 -4.59217209939108173 -1.534455918960498488 
	2.162843296140691152 -4.509119019866597355 -1.264383132767714635 
	2.242232321053397648 -4.469633420834359328 -1.118053549866735441 
	2.370553414479064536 -4.402920200199679002 -0.8112488520610650067 
	2.419587660941991292 -4.375725652700899637 -0.650476024724445212 
	2.484324272132626188 -4.339298601576790482 -0.3250483228181637041 
	2.5 -4.330127018922193649 -0.1603813337006292639 
	2.5 -4.330127018922193649 -1.511855768138727235e-14 
	0.0001605477994325730162 
	cone 0 0 0 0 -1 -3.491481338843129805e-15 2.5 0 0 1 I I 0 1 2.5 forward I I I I 
	cone 0 0 0 0 0 1 5 0 0 1 I I -0 -1 5 forward I I I I 
	nullbs 
	nullbs 
	I I 
	0 
	0 
	0 
	} I I #
coedge $-1 $432 $323 $433 $434 forward $56 $-1 #
coedge $-1 $435 $436 $323 $373 reversed $437 $-1 #
edge $-1 $377 -27.5 $438 -20 $323 $439 reversed 7 unknown #
coedge $-1 $440 $324 $327 $381 forward $376 $-1 #
coedge $-1 $324 $440 $435 $441 reversed $376 $-1 #
loop $-1 $-1 $375 $442 #
vertex $-1 $325 $443 #
straight-curve $-1 -27.5 -6.25 12.5 0 -1 0 I I #
coedge $-1 $444 $326 $445 $446 forward $328 $-1 #
coedge $-1 $327 $447 $448 $449 reversed $328 $-1 #
edge $-1 $329 -12.5 $450 12.5 $327 $451 forward 7 unknown #
face $-1 $452 $328 $36 $-1 $453 forward single #
point $-1 -27.5 0 12.5 #
coedge $-1 $339 $445 $331 $385 reversed $399 $-1 #
edge $-1 $341 -25.00000000000000711 $386 -8.475965199624621749e-15 $384 $454 forward 7 unknown #
vertex $-1 $385 $455 #
straight-curve $-1 -40 0 3.125 -0 -0 -1 I I #
face $-1 $456 $457 $36 $-1 $47 forward single #
plane-surface $-1 -40 12.5 6.25 -1 0 0 0 -0 1 forward_v I I I I #
coedge $-1 $458 $335 $459 $460 reversed $248 $-1 #
coedge $-1 $461 $462 $335 $392 forward $463 $-1 #
edge $-1 $464 -12.5 $394 12.5 $335 $465 reversed 7 unknown #
coedge $-1 $336 $448 $461 $466 forward $313 $-1 #
vertex $-1 $466 $467 #
straight-curve $-1 0 25 -12.5 1 0 -0 I I #
coedge $-1 $338 $468 $469 $470 forward $248 $-1 #
coedge $-1 $471 $339 $338 $398 reversed $399 $-1 #
edge $-1 $472 -3.141592653589793116 $400 2.019483917365790334e-29 $397 $473 reversed 7 unknown #
loop $-1 $-1 $384 $474 #
vertex $-1 $340 $475 #
ellipse-curve $-1 -40 25 8.728703347107824553e-14 -0 1 -0 2.5 0 0 1 I I #
point $-1 -40 25 2.500000000000087486 #
coedge $-1 $346 $476 $477 $478 forward $56 $-1 #
coedge $-1 $479 $480 $346 $405 reversed $481 $-1 #
edge $-1 $482 -6.25 $409 18.75 $346 $483 forward 7 unknown #
coedge $-1 $484 $347 $480 $485 forward $408 $-1 #
coedge $-1 $347 $486 $349 $412 forward $408 $-1 #
loop $-1 $-1 $484 $487 #
vertex $-1 $405 $488 #
straight-curve $-1 0 25 12.5 1 0 -0 I I #
coedge $-1 $350 $349 $489 $490 reversed $351 $-1 #
edge $-1 $491 -12.5 $352 12.5 $349 $492 forward 7 unknown #
face $-1 $430 $351 $36 $-1 $493 forward single #
point $-1 12.5 25 12.5 #
coedge $-1 $489 $357 $354 $416 forward $313 $-1 #
edge $-1 $419 -0 $417 1.570796326794896558 $354 $494 reversed 7 unknown #
vertex $-1 $355 $495 #
straight-curve $-1 12.5 15 0 0 0 1 I I #
vertex $-1 $416 $496 #
ellipse-curve $-1 12.5 12.5 -12.5 -0 -0 -1 2.5 0 0 1 I I #
loop $-1 $313 $425 $359 #
plane-surface $-1 0 0 -12.5 0 0 1 1 0 0 forward_v I I I I #
vertex $-1 $365 $497 #
ellipse-curve $-1 0 12.5 4.364351673553912276e-14 -0 -1 -0 2.5 0 0 1 I I #
coedge $-1 $425 $425 $366 $426 forward $421 $-1 #
edge $-1 $498 -6.283185307179586232 $498 -0 $366 $499 reversed 7 unknown #
vertex $-1 $367 $500 #
intcurve-curve $-1 forward { surfintcur full nubs 3 periodic 33 
	0 3 0.4811440011018409124 2 0.9622880022036818248 2 1.443432003305522793 2 1.92457600440736365 2 
	2.404408383564947016 2 2.88424076272253016 2 3.364073141880113305 2 3.843905521037696893 2 4.323737900195279593 2 
	4.803570279352863182 2 5.28340265851044677 2 5.763235037668030358 2 6.244379038769871215 2 6.72552303987171296 2 
	7.206667040973554705 2 7.687811042075395562 2 8.168955043177238196 2 8.650099044279079052 2 9.131243045380919909 2 
	9.612387046482762543 2 10.09221942564034613 2 10.57205180479792972 2 11.05188418395551331 2 11.5317165631130969 2 
	12.01154894227067871 2 12.4913813214282623 2 12.97121370058584588 2 13.4510460797434277 2 13.93219008084527033 2 
	14.41333408194711296 2 14.8944780830489556 2 15.37562208415079823 3 
	2.5 4.330127018922193649 1.511855768138727235e-14 
	2.5 4.330127018922193649 -0.1603813337005985384 
	2.484324272132625744 4.339298601576790482 -0.3250483228181324513 
	2.419587660941990848 4.375725652700899637 -0.6504760247244131266 
	2.370553414479064536 4.402920200199678114 -0.8112488520610330323 
	2.242232321053398536 4.469633420834358439 -1.118053549866702578 
	2.162843296140692484 4.509119019866595579 -1.264383132767680884 
	1.980404217889977225 4.592172099391080842 -1.534455918960464071 
	1.877328261646977747 4.635661451169760028 -1.658205644285743796 
	1.65850431374101337 4.718369129321835942 -1.87702959219170773 
	1.534902613275820782 4.760658410769706528 -1.980062860243749334 
	1.26476925246217986 4.839437288971786266 -2.162621950865445619 
	1.11822959364498753 4.875866557168181181 -2.242161966026775755 
	0.8109849903630883539 4.936275466307150417 -2.370660498457459742 
	0.6499871261909447862 4.960268245560041755 -2.419721681027885651 
	0.3244698334328496303 4.992140188273487489 -2.484402464407301281 
	0.1599441263858613071 5 -2.499999999999982236 
	-0.1599441263858607243 5 -2.499999999999982681 
	-0.3244698334328485201 4.992140188273486601 -2.484402464407301725 
	-0.6499871261909433429 4.960268245560042644 -2.419721681027886095 
	-0.8109849903630867995 4.936275466307150417 -2.370660498457460186 
	-1.118229593644986197 4.875866557168181181 -2.242161966026776643 
	-1.264769252462178528 4.839437288971786266 -2.162621950865446507 
	-1.534902613275819672 4.760658410769706528 -1.980062860243750222 
	-1.658504313741012481 4.718369129321835942 -1.877029592191708174 
	-1.877328261646977081 4.635661451169760028 -1.65820564428574424 
	-1.980404217889976115 4.59217209939108173 -1.534455918960465404 
	-2.162843296140691152 4.509119019866597355 -1.26438313276768266 
	-2.242232321053398092 4.469633420834359328 -1.118053549866703023 
	-2.370553414479064536 4.402920200199679002 -0.8112488520610330323 
	-2.419587660941991292 4.375725652700899637 -0.6504760247244134597 
	-2.484324272132626188 4.339298601576790482 -0.3250483228181325623 
	-2.5 4.330127018922193649 -0.1603813337005984829 
	-2.5 4.330127018922193649 0.1603813337006292639 
	-2.484324272132626188 4.339298601576790482 0.3250483228181638706 
	-2.419587660941991292 4.375725652700899637 0.650476024724445101 
	-2.370553414479064536 4.402920200199679002 0.8112488520610645626 
	-2.242232321053398536 4.469633420834359328 1.118053549866734109 
	-2.16284329614069204 4.509119019866596467 1.26438313276771197 
	-1.980404217889977225 4.59217209939108173 1.534455918960495602 
	-1.877328261646977747 4.63566145116975914 1.658205644285776215 
	-1.65850431374101337 4.718369129321835942 1.877029592191741258 
	-1.534902613275820338 4.760658410769706528 1.980062860243782641 
	-1.264769252462178972 4.839437288971786266 2.162621950865479814 
	-1.118229593644987307 4.875866557168181181 2.242161966026810838 
	-0.8109849903630882428 4.936275466307150417 2.370660498457494825 
	-0.6499871261909447862 4.960268245560042644 2.41972168102792029 
	-0.3244698334328499634 4.992140188273486601 2.48440246440733592 
	-0.159944126385861668 5 2.500000000000017319 
	0.1599441263858602247 5 2.500000000000016875 
	0.3244698334328480205 4.992140188273485713 2.484402464407336364 
	0.6499871261909426767 4.960268245560041755 2.419721681027920734 
	0.8109849903630866885 4.936275466307151305 2.370660498457495269 
	1.118229593644985975 4.875866557168182069 2.242161966026811282 
	1.264769252462178306 4.839437288971786266 2.162621950865480258 
	1.534902613275819228 4.760658410769707416 1.980062860243783973 
	1.658504313741011593 4.718369129321835942 1.877029592191743035 
	1.877328261646975971 4.635661451169760028 1.658205644285778657 
	1.980404217889975449 4.59217209939108173 1.534455918960498488 
	2.162843296140691152 4.509119019866597355 1.264383132767714635 
	2.242232321053397648 4.469633420834359328 1.118053549866735441 
	2.370553414479064536 4.402920200199679002 0.8112488520610650067 
	2.419587660941991292 4.375725652700899637 0.650476024724445212 
	2.484324272132626188 4.339298601576790482 0.3250483228181637041 
	2.5 4.330127018922193649 0.1603813337006292639 
	2.5 4.330127018922193649 1.511855768138727235e-14 
	0.0001605477994325730162 
	cone 0 0 0 0 -1 -3.491481338843129805e-15 2.5 0 0 1 I I 0 1 2.5 forward I I I I 
	cone 0 0 0 0 0 1 5 0 0 1 I I -0 -1 5 forward I I I I 
	nullbs 
	nullbs 
	I I 
	0 
	0 
	0 
	} I I #
loop $-1 $-1 $501 $430 #
face $-1 $474 $368 $36 $-1 $277 reversed single #
point $-1 2.5 -4.330127018922190096 -1.511855768138730075e-14 #
coedge $-1 $502 $371 $503 $504 forward $56 $-1 #
coedge $-1 $505 $506 $371 $434 reversed $507 $-1 #
edge $-1 $438 -15.625 $508 -3.125 $371 $509 forward 7 unknown #
coedge $-1 $510 $372 $375 $441 forward $437 $-1 #
coedge $-1 $372 $511 $505 $512 forward $437 $-1 #
loop $-1 $-1 $436 $513 #
vertex $-1 $373 $514 #
straight-curve $-1 0 -25 12.5 -1 0 0 I I #
coedge $-1 $375 $374 $515 $516 reversed $376 $-1 #
edge $-1 $377 -12.5 $517 12.5 $375 $518 forward 7 unknown #
face $-1 $519 $376 $36 $-1 $520 forward single #
point $-1 -27.5 -25 12.5 #
coedge $-1 $521 $379 $522 $523 forward $328 $-1 #
coedge $-1 $384 $471 $379 $446 reversed $399 $-1 #
edge $-1 $386 -1.570796326794896558 $524 3.141592653589793116 $445 $525 forward 7 unknown #
coedge $-1 $380 $526 $527 $528 reversed $328 $-1 #
coedge $-1 $393 $515 $380 $449 forward $313 $-1 #
edge $-1 $450 5 $529 40 $448 $530 reversed 7 unknown #
vertex $-1 $516 $531 #
straight-curve $-1 -27.5 0 0 -0 -0 -1 I I #
face $-1 $532 $533 $36 $-1 $534 forward single #
plane-surface $-1 -45 0 0 0 -1 0 0 0 -1 forward_v I I I I #
straight-curve $-1 -40 -8.475965199624621749e-15 2.5 0 -1 -3.491481338843129411e-15 I I #
point $-1 -40 0 2.5 #
face $-1 $535 $536 $36 $-1 $537 forward single #
loop $-1 $-1 $538 $388 #
coedge $-1 $468 $390 $539 $540 forward $248 $-1 #
coedge $-1 $541 $538 $390 $460 forward $457 $-1 #
edge $-1 $542 55 $464 62.5 $390 $543 forward 7 unknown #
coedge $-1 $527 $391 $393 $466 reversed $463 $-1 #
coedge $-1 $391 $527 $541 $544 reversed $463 $-1 #
loop $-1 $-1 $527 $545 #
vertex $-1 $392 $546 #
straight-curve $-1 -62.5 25 0 -0 0 1 I I #
edge $-1 $529 0 $394 25 $393 $547 forward 7 unknown #
point $-1 -62.5 25 -12.5 #
coedge $-1 $396 $458 $548 $549 forward $248 $-1 #
coedge $-1 $550 $551 $396 $470 reversed $533 $-1 #
edge $-1 $552 -28.75 $472 -18.75 $469 $553 forward 7 unknown #
coedge $-1 $445 $397 $551 $554 reversed $399 $-1 #
vertex $-1 $398 $555 #
ellipse-curve $-1 -40 25 8.728703347107824553e-14 -0 1 -0 2.5 0 0 1 I I #
face $-1 $382 $399 $36 $-1 $556 reversed single #
point $-1 -37.5 25 8.728703347107829602e-14 #
coedge $-1 $403 $557 $558 $559 forward $56 $-1 #
coedge $-1 $560 $561 $403 $478 reversed $562 $-1 #
edge $-1 $563 5 $482 17.5 $403 $564 forward 7 unknown #
coedge $-1 $565 $404 $561 $566 reversed $481 $-1 #
coedge $-1 $404 $565 $406 $485 reversed $481 $-1 #
loop $-1 $-1 $565 $567 #
vertex $-1 $478 $568 #
straight-curve $-1 40 6.25 12.5 0 1 0 I I #
coedge $-1 $569 $406 $570 $571 forward $408 $-1 #
edge $-1 $409 -9.375 $572 0.6249999999999125144 $480 $573 forward 7 unknown #
coedge $-1 $407 $574 $575 $576 reversed $408 $-1 #
face $-1 $577 $408 $36 $-1 $343 reversed single #
point $-1 40 25 12.5 #
coedge $-1 $575 $415 $411 $490 forward $313 $-1 #
edge $-1 $417 5.625 $491 15.625 $489 $578 reversed 7 unknown #
vertex $-1 $490 $579 #
straight-curve $-1 12.5 25 0 0 0 1 I I #
plane-surface $-1 12.5 18.75 0 -1 0 0 0 -0 1 forward_v I I I I #
ellipse-curve $-1 12.5 12.5 -12.5 -0 -0 -1 2.5 0 0 1 I I #
point $-1 12.5 15 -12.5 #
point $-1 15 12.5 -12.5 #
point $-1 -2.5 12.5 6.110092342975480216e-14 #
vertex $-1 $426 $580 #
ellipse-curve $-1 0 0 -12.5 -0 -0 -1 5 0 0 1 I I #
point $-1 2.5 4.330127018922190096 1.511855768138730075e-14 #
coedge $-1 $501 $501 $581 $582 reversed $429 $-1 #
coedge $-1 $557 $432 $583 $584 forward $56 $-1 #
coedge $-1 $585 $586 $432 $504 reversed $587 $-1 #
edge $-1 $508 -20 $588 20 $432 $589 forward 7 unknown #
coedge $-1 $590 $433 $436 $512 reversed $507 $-1 #
coedge $-1 $433 $590 $585 $591 reversed $507 $-1 #
loop $-1 $-1 $590 $592 #
vertex $-1 $434 $593 #
straight-curve $-1 -20 -9.375 12.5 0 1 0 I I #
coedge $-1 $594 $435 $595 $596 reversed $437 $-1 #
coedge $-1 $436 $597 $598 $599 forward $437 $-1 #
edge $-1 $600 -1.874999999999999556 $438 10.625 $505 $601 forward 7 unknown #
face $-1 $602 $437 $36 $-1 $603 reversed single #
point $-1 -20 -25 12.5 #
coedge $-1 $448 $595 $440 $516 forward $313 $-1 #
edge $-1 $517 -18.75 $450 6.25 $515 $604 reversed 7 unknown #
vertex $-1 $596 $605 #
straight-curve $-1 -27.5 -25 0 0 0 -1 I I #
face $-1 $513 $606 $36 $-1 $47 forward single #
plane-surface $-1 -27.5 -12.5 0 -1 0 0 0 -0 1 forward_v I I I I #
coedge $-1 $607 $444 $608 $609 forward $328 $-1 #
coedge $-1 $551 $550 $444 $523 reversed $533 $-1 #
edge $-1 $524 -3.75 $610 6.25 $444 $611 forward 7 unknown #
vertex $-1 $554 $612 #
ellipse-curve $-1 -40 0 0 -0 1 -0 2.5 0 0 1 I I #
coedge $-1 $447 $607 $613 $614 reversed $328 $-1 #
coedge $-1 $462 $461 $447 $528 forward $463 $-1 #
edge $-1 $529 -12.5 $615 12.5 $447 $616 forward 7 unknown #
vertex $-1 $449 $617 #
straight-curve $-1 -22.5 0 -12.5 1 0 -0 I I #
point $-1 -27.5 0 -12.5 #
face $-1 $567 $618 $36 $-1 $619 reversed single #
loop $-1 $-1 $551 $452 #
plane-surface $-1 -47.5 12.5 0 0 0 1 1 0 0 forward_v I I I I #
face $-1 $620 $621 $36 $-1 $622 forward single #
loop $-1 $-1 $623 $456 #
plane-surface $-1 47.5 12.5 0 0 0 1 1 0 0 forward_v I I I I #
coedge $-1 $459 $613 $624 $625 forward $457 $-1 #
coedge $-1 $624 $626 $458 $540 reversed $627 $-1 #
edge $-1 $542 -9.375 $628 0.6249999999999125144 $539 $629 forward 7 unknown #
coedge $-1 $613 $459 $462 $544 forward $457 $-1 #
vertex $-1 $540 $630 #
straight-curve $-1 0 25 12.5 -1 0 0 I I #
edge $-1 $464 -25 $615 -0 $541 $631 reversed 7 unknown #
face $-1 $-1 $463 $36 $-1 $632 reversed single #
point $-1 -62.5 25 12.5 #
straight-curve $-1 -62.5 0 -12.5 0 1 0 I I #
coedge $-1 $633 $634 $468 $549 reversed $635 $-1 #
edge $-1 $628 -4.712388980384689674 $552 -5.048709793414475835e-30 $548 $636 reversed 7 unknown #
coedge $-1 $522 $469 $634 $637 forward $533 $-1 #
coedge $-1 $469 $522 $471 $554 forward $533 $-1 #
vertex $-1 $470 $638 #
straight-curve $-1 -23.75 25 0 1 0 -0 I I #
edge $-1 $524 7.51213042603370943e-29 $472 25 $471 $639 forward 7 unknown #
point $-1 -42.5 25 8.698087177129140766e-14 #
cone-surface $-1 -40 0 0 0 -1 -3.491481338843129805e-15 2.5 0 0 1 I I 0 1 2.5 forward I I I I #
coedge $-1 $476 $502 $640 $641 forward $56 $-1 #
coedge $-1 $642 $643 $476 $559 reversed $644 $-1 #
edge $-1 $645 -18.75 $563 6.25 $476 $646 forward 7 unknown #
coedge $-1 $647 $477 $643 $648 forward $562 $-1 #
coedge $-1 $477 $649 $479 $566 forward $562 $-1 #
loop $-1 $-1 $649 $620 #
vertex $-1 $559 $650 #
straight-curve $-1 22.5 0 12.5 1 0 -0 I I #
coedge $-1 $480 $479 $651 $652 forward $481 $-1 #
edge $-1 $653 -0.625 $482 9.375 $479 $654 reversed 7 unknown #
face $-1 $655 $481 $36 $-1 $656 forward single #
point $-1 40 0 12.5 #
coedge $-1 $657 $484 $658 $659 forward $408 $-1 #
coedge $-1 $651 $660 $484 $571 reversed $618 $-1 #
edge $-1 $572 -4.712388980384689674 $661 -5.048709793414475835e-30 $570 $662 reversed 7 unknown #
vertex $-1 $571 $663 #
straight-curve $-1 40 25 3.125 0 0 -1 I I #
coedge $-1 $486 $664 $665 $666 forward $408 $-1 #
coedge $-1 $667 $489 $486 $576 forward $313 $-1 #
edge $-1 $491 12.5 $668 62.5 $575 $669 forward 7 unknown #
face $-1 $670 $671 $36 $-1 $672 reversed single #
straight-curve $-1 12.5 9.375 -12.5 0 -1 0 I I #
point $-1 12.5 25 -12.5 #
point $-1 5 0 -12.5 #
coedge $-1 $581 $581 $501 $582 forward $673 $-1 #
edge $-1 $674 -3.141592653589799777 $674 3.141592653589786455 $501 $675 forward 7 unknown #
coedge $-1 $676 $677 $502 $584 reversed $678 $-1 #
edge $-1 $588 3.125 $679 15.625 $502 $680 forward 7 unknown #
coedge $-1 $681 $503 $506 $591 forward $587 $-1 #
coedge $-1 $503 $682 $676 $683 reversed $587 $-1 #
loop $-1 $-1 $681 $670 #
vertex $-1 $504 $684 #
straight-curve $-1 0 -12.5 12.5 1 0 -0 I I #
coedge $-1 $506 $505 $685 $686 reversed $507 $-1 #
edge $-1 $508 -8.75 $687 3.750000000000000444 $585 $688 reversed 7 unknown #
face $-1 $253 $507 $36 $-1 $689 forward single #
point $-1 -20 -12.5 12.5 #
coedge $-1 $640 $510 $642 $690 forward $437 $-1 #
coedge $-1 $515 $691 $510 $596 forward $313 $-1 #
edge $-1 $692 -27.5 $517 27.5 $595 $693 forward 7 unknown #
coedge $-1 $511 $694 $695 $696 forward $437 $-1 #
coedge $-1 $697 $685 $511 $599 reversed $671 $-1 #
edge $-1 $698 -0.785398163397448279 $600 0.785398163397448279 $598 $699 reversed 7 unknown #
vertex $-1 $686 $700 #
straight-curve $-1 -20 -25 1.875 0 0 1 I I #
face $-1 $701 $644 $36 $-1 $702 forward single #
plane-surface $-1 0 -25 0 0 1 0 0 0 1 forward_v I I I I #
straight-curve $-1 -27.5 -6.25 -12.5 0 -1 0 I I #
point $-1 -27.5 -25 -12.5 #
loop $-1 $-1 $703 $519 #
coedge $-1 $526 $521 $704 $705 forward $328 $-1 #
coedge $-1 $634 $633 $521 $609 reversed $635 $-1 #
edge $-1 $610 -6.283185307179586232 $706 -1.570796326794896558 $521 $707 reversed 7 unknown #
vertex $-1 $523 $708 #
straight-curve $-1 -46.25 0 0 -1 0 0 I I #
point $-1 -42.5 0 -3.061616997868383141e-16 #
coedge $-1 $538 $541 $526 $614 forward $457 $-1 #
edge $-1 $615 -40 $709 -32.5 $526 $710 reversed 7 unknown #
vertex $-1 $614 $711 #
straight-curve $-1 -62.5 0 0 -0 0 1 I I #
point $-1 -62.5 0 -12.5 #
loop $-1 $-1 $660 $532 #
cone-surface $-1 40 0 0 0 -1 -3.491481338843129805e-15 2.5 0 0 1 I I 0 1 2.5 forward I I I I #
face $-1 $442 $562 $36 $-1 $712 forward single #
loop $-1 $-1 $713 $535 #
plane-surface $-1 55 12.5 6.25 -1 0 0 0 -0 1 forward_v I I I I #
coedge $-1 $714 $658 $660 $715 forward $536 $-1 #
coedge $-1 $704 $539 $538 $625 reversed $627 $-1 #
edge $-1 $709 -6.25 $542 18.75 $624 $716 reversed 7 unknown #
coedge $-1 $539 $704 $633 $717 forward $627 $-1 #
loop $-1 $-1 $626 $718 #
vertex $-1 $549 $719 #
straight-curve $-1 -55 25 3.125 0 0 -1 I I #
point $-1 -55 25 12.5 #
straight-curve $-1 -62.5 0 12.5 0 1 0 I I #
plane-surface $-1 -62.5 0 0 1 0 0 0 0 -1 forward_v I I I I #
coedge $-1 $608 $548 $626 $717 reversed $635 $-1 #
coedge $-1 $548 $608 $550 $637 reversed $635 $-1 #
loop $-1 $-1 $634 $655 #
ellipse-curve $-1 -55 25 8.728703347107824553e-14 -0 1 -0 2.5 0 0 1 I I #
edge $-1 $552 -25 $610 -7.619026212181133561e-29 $550 $720 reversed 7 unknown #
point $-1 -52.5 25 8.728703347107823291e-14 #
straight-curve $-1 -42.5 -7.619026212181133561e-29 0 -0 1 3.491481338843129411e-15 I I #
coedge $-1 $721 $594 $557 $641 reversed $437 $-1 #
edge $-1 $679 20 $645 27.5 $557 $722 reversed 7 unknown #
coedge $-1 $723 $558 $594 $690 reversed $644 $-1 #
coedge $-1 $558 $723 $560 $648 reversed $644 $-1 #
loop $-1 $-1 $643 $602 #
vertex $-1 $641 $724 #
straight-curve $-1 27.5 -6.25 12.5 0 1 0 I I #
coedge $-1 $725 $560 $726 $727 reversed $562 $-1 #
edge $-1 $563 -12.5 $728 12.5 $560 $729 reversed 7 unknown #
coedge $-1 $561 $730 $731 $732 forward $562 $-1 #
point $-1 27.5 0 12.5 #
coedge $-1 $731 $570 $565 $652 reversed $618 $-1 #
edge $-1 $653 8.475965199624621749e-15 $572 25.00000000000000711 $651 $733 forward 7 unknown #
vertex $-1 $652 $734 #
straight-curve $-1 40 0 3.125 0 0 -1 I I #
face $-1 $718 $635 $36 $-1 $735 reversed single #
plane-surface $-1 40 12.5 6.25 1 0 0 0 0 -1 forward_v I I I I #
coedge $-1 $736 $569 $737 $738 forward $408 $-1 #
coedge $-1 $623 $739 $569 $659 reversed $536 $-1 #
edge $-1 $661 18.75 $740 28.75 $569 $741 reversed 7 unknown #
coedge $-1 $570 $731 $623 $715 reversed $618 $-1 #
vertex $-1 $715 $742 #
ellipse-curve $-1 40 25 8.728703347107824553e-14 -0 1 -0 2.5 0 0 1 I I #
point $-1 40 25 2.500000000000087486 #
coedge $-1 $574 $743 $744 $745 reversed $408 $-1 #
coedge $-1 $746 $747 $574 $666 reversed $748 $-1 #
edge $-1 $749 -12.5 $668 12.5 $574 $750 forward 7 unknown #
coedge $-1 $726 $575 $747 $751 forward $313 $-1 #
vertex $-1 $576 $752 #
straight-curve $-1 0 25 -12.5 1 0 -0 I I #
face $-1 $753 $673 $36 $-1 $754 forward single #
loop $-1 $-1 $685 $577 #
cone-surface $-1 -15 -18.75 0 0 1 0 -3.535533905932737309 0 -3.535533905932737309 1 I I 0 1 5 forward I I I I #
loop $-1 $587 $581 $670 #
vertex $-1 $582 $755 #
ellipse-curve $-1 0 -12.49999999999998757 -4.364351673553907859e-14 -0 1 -0 2.5 0 0 1 I I #
coedge $-1 $756 $583 $586 $683 forward $678 $-1 #
coedge $-1 $583 $756 $721 $757 reversed $678 $-1 #
loop $-1 $-1 $756 $758 #
vertex $-1 $584 $759 #
straight-curve $-1 20 -9.375 12.5 0 -1 0 I I #
coedge $-1 $760 $585 $761 $762 forward $587 $-1 #
coedge $-1 $586 $760 $763 $764 forward $587 $-1 #
edge $-1 $588 -8.75 $765 3.750000000000000444 $586 $766 forward 7 unknown #
point $-1 20 -12.5 12.5 #
coedge $-1 $598 $761 $590 $686 forward $671 $-1 #
edge $-1 $687 -6.25 $600 6.25 $685 $767 reversed 7 unknown #
vertex $-1 $686 $768 #
straight-curve $-1 -20 -12.5 3.75 -0 0 1 I I #
plane-surface $-1 -20 -18.75 3.75 1 0 0 0 0 -1 forward_v I I I I #
edge $-1 $692 -12.5 $645 12.5 $594 $769 reversed 7 unknown #
coedge $-1 $595 $726 $723 $770 forward $313 $-1 #
vertex $-1 $770 $771 #
straight-curve $-1 0 -25 -12.5 -1 0 0 I I #
coedge $-1 $597 $721 $772 $773 forward $437 $-1 #
coedge $-1 $774 $775 $597 $696 reversed $776 $-1 #
edge $-1 $777 -15 $698 15 $695 $778 forward 7 unknown #
coedge $-1 $761 $598 $775 $779 forward $671 $-1 #
vertex $-1 $599 $780 #
ellipse-curve $-1 -15 -25 0 -0 -1 -0 -3.535533905932737309 0 -3.535533905932737309 1 I I #
point $-1 -20 -25 4.440892098500626162e-16 #
face $-1 $545 $748 $36 $-1 $781 reversed single #
plane-surface $-1 27.5 -12.5 0 1 0 0 0 0 -1 forward_v I I I I #
coedge $-1 $782 $744 $783 $784 forward $606 $-1 #
coedge $-1 $626 $624 $607 $705 reversed $627 $-1 #
edge $-1 $706 -0.625 $709 9.375 $607 $785 forward 7 unknown #
vertex $-1 $609 $786 #
ellipse-curve $-1 -55 0 0 0 -1 0 2.5 0 0 1 I I #
point $-1 -52.5 0 0 #
vertex $-1 $705 $787 #
straight-curve $-1 -22.5 0 12.5 -1 0 0 I I #
point $-1 -62.5 0 12.5 #
plane-surface $-1 45 0 0 0 -1 0 0 0 -1 forward_v I I I I #
coedge $-1 $788 $789 $790 $791 forward $621 $-1 #
coedge $-1 $739 $623 $730 $792 reversed $536 $-1 #
edge $-1 $661 -25 $793 -7.619026212181133561e-29 $660 $794 forward 7 unknown #
straight-curve $-1 -55 6.25 12.5 0 -1 0 I I #
edge $-1 $706 8.475965199624621749e-15 $628 25.00000000000000711 $633 $795 forward 7 unknown #
face $-1 $796 $627 $36 $-1 $797 forward single #
point $-1 -55 25 2.500000000000087486 #
straight-curve $-1 -52.5 -7.619026212181133561e-29 0 -0 1 3.491481338843129411e-15 I I #
coedge $-1 $694 $640 $677 $757 forward $437 $-1 #
straight-curve $-1 0 -25 12.5 -1 0 0 I I #
coedge $-1 $643 $642 $691 $770 reversed $644 $-1 #
point $-1 27.5 -25 12.5 #
coedge $-1 $798 $647 $799 $800 reversed $562 $-1 #
coedge $-1 $691 $667 $647 $727 forward $313 $-1 #
edge $-1 $801 -40 $728 -5 $726 $802 reversed 7 unknown #
vertex $-1 $727 $803 #
straight-curve $-1 27.5 0 0 -0 0 1 I I #
coedge $-1 $649 $804 $714 $792 forward $562 $-1 #
coedge $-1 $660 $651 $649 $732 reversed $618 $-1 #
edge $-1 $793 -1.064067513599483355e-43 $653 4.712388980384689674 $731 $805 forward 7 unknown #
straight-curve $-1 40 -8.475965199624621749e-15 2.5 -0 1 3.491481338843129411e-15 I I #
point $-1 40 0 2.5 #
cone-surface $-1 -55 0 0 0 -1 -3.491481338843129805e-15 2.5 0 0 1 I I 0 1 2.5 forward I I I I #
coedge $-1 $743 $657 $806 $807 forward $408 $-1 #
coedge $-1 $808 $806 $657 $738 reversed $809 $-1 #
edge $-1 $740 -3.141592653589793116 $810 2.019483917365790334e-29 $737 $811 reversed 7 unknown #
coedge $-1 $658 $714 $808 $812 forward $536 $-1 #
vertex $-1 $812 $813 #
straight-curve $-1 23.75 25 0 -1 0 0 I I #
point $-1 42.5 25 8.728703347107823291e-14 #
coedge $-1 $664 $736 $789 $814 forward $408 $-1 #
coedge $-1 $703 $815 $664 $745 forward $606 $-1 #
edge $-1 $749 -62.5 $816 -55 $664 $817 forward 7 unknown #
coedge $-1 $799 $665 $815 $818 reversed $748 $-1 #
coedge $-1 $665 $799 $667 $751 reversed $748 $-1 #
loop $-1 $-1 $799 $701 #
vertex $-1 $745 $819 #
straight-curve $-1 62.5 25 0 -0 -0 -1 I I #
edge $-1 $668 -25 $801 0 $667 $820 forward 7 unknown #
point $-1 62.5 25 -12.5 #
face $-1 $821 $776 $36 $-1 $822 forward single #
plane-surface $-1 0 -12.5 3.75 0 -1 0 0 0 -1 forward_v I I I I #
point $-1 -2.5 -12.5 -6.110092342975480216e-14 #
coedge $-1 $677 $676 $823 $824 reversed $678 $-1 #
edge $-1 $679 -10.625 $825 1.875000000000000444 $677 $826 forward 7 unknown #
face $-1 $592 $678 $36 $-1 $827 forward single #
point $-1 20 -25 12.5 #
coedge $-1 $682 $681 $828 $829 forward $587 $-1 #
coedge $-1 $685 $697 $681 $762 reversed $671 $-1 #
edge $-1 $687 -0.785398163397448279 $830 0.785398163397448279 $761 $831 reversed 7 unknown #
coedge $-1 $832 $823 $682 $764 reversed $833 $-1 #
edge $-1 $834 -0.785398163397448279 $765 0.785398163397448279 $682 $835 forward 7 unknown #
vertex $-1 $764 $836 #
straight-curve $-1 20 -12.5 3.75 -0 -0 -1 I I #
straight-curve $-1 -20 -18.75 0 0 1 0 I I #
point $-1 -20 -12.5 -4.440892098500626162e-16 #
straight-curve $-1 27.5 -25 0 0 0 -1 I I #
edge $-1 $728 -6.25 $692 18.75 $691 $837 reversed 7 unknown #
point $-1 27.5 -25 -12.5 #
coedge $-1 $823 $832 $694 $773 reversed $833 $-1 #
edge $-1 $825 -0.785398163397448279 $777 0.785398163397448279 $772 $838 reversed 7 unknown #
coedge $-1 $828 $695 $832 $839 reversed $776 $-1 #
coedge $-1 $695 $828 $697 $779 reversed $776 $-1 #
loop $-1 $-1 $775 $753 #
vertex $-1 $696 $840 #
straight-curve $-1 0 -25 -5 -1 0 0 I I #
edge $-1 $698 -6.25 $830 6.25 $697 $841 forward 7 unknown #
point $-1 -15 -25 -5 #
plane-surface $-1 62.5 0 0 -1 0 0 0 -0 1 forward_v I I I I #
coedge $-1 $815 $703 $798 $842 forward $606 $-1 #
coedge $-1 $789 $788 $703 $784 reversed $621 $-1 #
edge $-1 $816 -18.75 $843 6.25 $783 $844 reversed 7 unknown #
straight-curve $-1 -55 0 3.125 -0 0 1 I I #
point $-1 -55 0 2.5 #
point $-1 -55 0 12.5 #
coedge $-1 $783 $713 $845 $846 reversed $621 $-1 #
coedge $-1 $713 $783 $743 $814 reversed $621 $-1 #
coedge $-1 $806 $847 $713 $791 reversed $809 $-1 #
edge $-1 $848 -25.00000000000000711 $849 -8.475965199624621749e-15 $790 $850 forward 7 unknown #
edge $-1 $851 -6.25 $793 3.75 $714 $852 reversed 7 unknown #
vertex $-1 $715 $853 #
straight-curve $-1 42.5 -7.619026212181133561e-29 0 0 -1 -3.491481338843129411e-15 I I #
straight-curve $-1 -55 -8.475965199624621749e-15 2.5 -0 1 3.491481338843129411e-15 I I #
face $-1 $487 $809 $36 $-1 $854 reversed single #
plane-surface $-1 -55 12.5 6.25 1 0 0 0 0 -1 forward_v I I I I #
coedge $-1 $845 $725 $782 $842 reversed $562 $-1 #
coedge $-1 $747 $746 $725 $800 forward $748 $-1 #
edge $-1 $855 -12.5 $801 12.5 $725 $856 forward 7 unknown #
vertex $-1 $751 $857 #
straight-curve $-1 22.5 0 -12.5 1 0 -0 I I #
point $-1 27.5 0 -12.5 #
coedge $-1 $730 $845 $847 $858 forward $562 $-1 #
ellipse-curve $-1 40 0 0 -0 1 -0 2.5 0 0 1 I I #
coedge $-1 $737 $790 $736 $807 reversed $809 $-1 #
edge $-1 $810 2.019483917365790334e-29 $848 1.570796326794896558 $806 $859 reversed 7 unknown #
coedge $-1 $847 $737 $739 $812 reversed $809 $-1 #
loop $-1 $-1 $808 $796 #
vertex $-1 $807 $860 #
ellipse-curve $-1 55 25 8.728703347107824553e-14 -0 1 -0 2.5 0 0 1 I I #
edge $-1 $851 7.51213042603370943e-29 $740 25 $808 $861 forward 7 unknown #
point $-1 52.5 25 8.698087177129140766e-14 #
edge $-1 $848 -0.6249999999999125144 $816 9.375 $743 $862 reversed 7 unknown #
coedge $-1 $744 $782 $746 $818 forward $606 $-1 #
vertex $-1 $814 $863 #
straight-curve $-1 0 25 12.5 -1 0 0 I I #
edge $-1 $855 -0 $749 25 $815 $864 reversed 7 unknown #
point $-1 62.5 25 12.5 #
straight-curve $-1 62.5 0 -12.5 0 -1 0 I I #
face $-1 $758 $833 $36 $-1 $865 reversed single #
plane-surface $-1 0 -18.75 -5 0 0 1 1 0 0 forward_v I I I I #
coedge $-1 $763 $772 $756 $824 forward $833 $-1 #
edge $-1 $825 -6.25 $765 6.25 $823 $866 reversed 7 unknown #
vertex $-1 $824 $867 #
straight-curve $-1 20 -25 1.875 0 0 -1 I I #
plane-surface $-1 20 -18.75 3.75 -1 0 0 0 -0 1 forward_v I I I I #
coedge $-1 $775 $774 $760 $829 reversed $776 $-1 #
edge $-1 $830 -15 $834 15 $760 $868 reversed 7 unknown #
vertex $-1 $779 $869 #
ellipse-curve $-1 -15 -12.5 0 -0 1 -0 -3.535533905932737309 0 -3.535533905932737309 1 I I #
coedge $-1 $772 $763 $774 $839 forward $833 $-1 #
loop $-1 $-1 $823 $821 #
vertex $-1 $829 $870 #
ellipse-curve $-1 15 -12.5 0 0 -1 0 3.535533905932737309 0 -3.535533905932737309 1 I I #
point $-1 20 -12.5 -4.440892098500626162e-16 #
straight-curve $-1 27.5 -6.25 -12.5 0 1 0 I I #
ellipse-curve $-1 15 -25 0 -0 -1 -0 3.535533905932737309 0 -3.535533905932737309 1 I I #
edge $-1 $834 -6.25 $777 6.25 $774 $871 forward 7 unknown #
point $-1 15 -25 -5 #
straight-curve $-1 -15 -18.75 -5 0 1 0 I I #
edge $-1 $843 32.5 $855 40 $798 $872 reversed 7 unknown #
vertex $-1 $846 $873 #
straight-curve $-1 55 6.25 12.5 0 1 -0 I I #
coedge $-1 $804 $798 $788 $846 forward $562 $-1 #
edge $-1 $843 -9.375 $849 0.625 $788 $874 reversed 7 unknown #
coedge $-1 $790 $808 $804 $858 reversed $809 $-1 #
vertex $-1 $791 $875 #
vertex $-1 $858 $876 #
straight-curve $-1 55 -8.475965199624621749e-15 2.5 0 -1 -3.491481338843129411e-15 I I #
vertex $-1 $812 $877 #
straight-curve $-1 46.25 0 0 1 0 -0 I I #
point $-1 42.5 0 2.660168783998708586e-43 #
cone-surface $-1 55 0 0 0 -1 -3.491481338843129805e-15 2.5 0 0 1 I I 0 1 2.5 forward I I I I #
vertex $-1 $800 $878 #
straight-curve $-1 62.5 0 0 -0 -0 -1 I I #
point $-1 62.5 0 -12.5 #
edge $-1 $849 -1.570796326794896558 $851 3.141592653589793116 $847 $879 forward 7 unknown #
ellipse-curve $-1 55 25 8.728703347107824553e-14 -0 1 -0 2.5 0 0 1 I I #
point $-1 57.5 25 8.728703347107829602e-14 #
straight-curve $-1 52.5 -7.619026212181133561e-29 0 -0 1 3.491481338843129411e-15 I I #
straight-curve $-1 55 25 3.125 -0 -0 -1 I I #
point $-1 55 25 12.5 #
straight-curve $-1 62.5 0 12.5 0 -1 0 I I #
cone-surface $-1 15 -18.75 0 0 -1 0 3.535533905932737309 0 -3.535533905932737309 1 I I 0 1 5 forward I I I I #
straight-curve $-1 20 -18.75 0 0 -1 0 I I #
point $-1 20 -25 -4.440892098500626162e-16 #
straight-curve $-1 0 -12.5 -5 -1 0 0 I I #
point $-1 -15 -12.5 -5 #
point $-1 15 -12.5 -5 #
straight-curve $-1 15 -18.75 -5 0 -1 0 I I #
straight-curve $-1 22.5 0 12.5 -1 0 0 I I #
point $-1 55 0 12.5 #
straight-curve $-1 55 0 3.125 0 0 1 I I #
point $-1 55 25 2.500000000000087486 #
point $-1 55 0 2.5 #
point $-1 52.5 0 -3.061616997868383141e-16 #
point $-1 62.5 0 12.5 #
ellipse-curve $-1 55 0 0 -0 1 -0 2.5 0 0 1 I I #
End-of-ACIS-data 