600 0 1 0           
94 GICL ACIS Healer - Source: /gicl/data5/repository/ICEM-CDC/demos/tifixture/tifixture.sat - 6 0 18 ACIS 6.0.3 Solaris 24 Sat Apr 13 23:07:54 2002 
1 9.999999999999999547e-07 1.000000000000000036e-10 
body $-1 $1 $-1 $2 #
lump $-1 $-1 $3 $0 #
transform $-1 1 0 0 0 1 0 0 0 1 0 0 0 1 no_rotate no_reflect no_shear #
shell $-1 $-1 $-1 $4 $-1 $1 #
face $5 $6 $7 $3 $-1 $8 reversed single #
face_name-twe-attrib $-1 $-1 $-1 $4 1 #
face $9 $10 $11 $3 $-1 $8 reversed single #
loop $12 $-1 $13 $4 #
plane-surface $14 0 0 0 0 0 -1 -1 0 0 forward_v I I I I #
face_name-twe-attrib $-1 $-1 $-1 $6 2 #
face $15 $16 $17 $3 $-1 $8 reversed single #
loop $18 $-1 $19 $6 #
loop_type-twe-attrib $-1 $-1 $-1 $7 0 #
coedge $-1 $13 $13 $20 $21 forward $7 $-1 #
surf-twe-attrib $-1 $22 $-1 $8 16 #
face_name-twe-attrib $-1 $-1 $-1 $10 3 #
face $23 $24 $25 $3 $-1 $8 reversed single #
loop $26 $27 $28 $10 #
loop_type-twe-attrib $-1 $-1 $-1 $11 0 #
coedge $-1 $19 $19 $29 $30 forward $11 $-1 #
coedge $-1 $20 $20 $13 $21 reversed $31 $-1 #
edge $32 $33 -3.141592653589793116 $33 3.141592653589793116 $20 $34 forward 7 unknown #
surf-twe-attrib $-1 $35 $14 $8 10 #
face_name-twe-attrib $-1 $-1 $-1 $16 4 #
face $36 $37 $38 $3 $-1 $39 forward single #
loop $40 $-1 $41 $16 #
loop_type-twe-attrib $-1 $-1 $-1 $17 1 #
loop $42 $43 $44 $10 #
coedge $-1 $45 $46 $47 $48 forward $17 $-1 #
coedge $-1 $29 $29 $19 $30 reversed $49 $-1 #
edge $50 $51 -3.141592653589793116 $51 3.141592653589793116 $29 $52 forward 7 unknown #
loop $53 $-1 $20 $54 #
edge_name-twe-attrib $-1 $-1 $-1 $21 22 4608 #
vertex $-1 $21 $55 #
ellipse-curve $56 -0.625 -2.903999999999999915 0 0 0 1 -0.09349999999999999978 0 0 1 I I #
surf-twe-attrib $-1 $57 $22 $8 6 #
face_name-twe-attrib $-1 $-1 $-1 $24 5 #
face $58 $59 $60 $3 $-1 $61 forward single #
loop $62 $63 $64 $24 #
plane-surface $65 0 0 -0.375 0 0 -1 -1 0 0 forward_v I I I I #
loop_type-twe-attrib $-1 $-1 $-1 $25 0 #
coedge $-1 $41 $41 $66 $67 forward $25 $-1 #
loop_type-twe-attrib $-1 $-1 $-1 $27 1 #
loop $68 $69 $70 $10 #
coedge $-1 $44 $44 $71 $72 reversed $27 $-1 #
coedge $-1 $73 $28 $74 $75 forward $17 $-1 #
coedge $-1 $28 $76 $77 $78 reversed $17 $-1 #
coedge $-1 $79 $80 $28 $48 reversed $81 $-1 #
edge $82 $83 -2.254999999999999893 $84 0 $47 $85 forward 7 unknown #
loop $86 $-1 $29 $87 #
edge_name-twe-attrib $-1 $-1 $-1 $30 18 4608 #
vertex $-1 $30 $88 #
ellipse-curve $89 -3.224000000000000199 -1.280000000000000027 0 0 0 1 -0.09349999999999999978 0 0 1 I I #
loop_type-twe-attrib $-1 $-1 $-1 $31 1 #
face $90 $91 $92 $3 $-1 $93 reversed single #
point $-1 -0.5314999999999999725 -2.903999999999999915 0 #
cur-twe-attrib $-1 $-1 $-1 $34 21 #
surf-twe-attrib $-1 $-1 $35 $8 4 #
face_name-twe-attrib $-1 $-1 $-1 $37 6 #
face $94 $95 $96 $3 $-1 $97 forward single #
loop $98 $-1 $99 $37 #
plane-surface $100 1.5 -4.5 0 0 -1 0 0 0 -1 forward_v I I I I #
loop_type-twe-attrib $-1 $-1 $-1 $38 0 #
loop $101 $-1 $102 $24 #
coedge $-1 $103 $104 $105 $106 reversed $38 $-1 #
surf-twe-attrib $-1 $-1 $-1 $39 24 #
coedge $-1 $66 $66 $41 $67 reversed $107 $-1 #
edge $108 $109 -3.141592653589793116 $109 3.141592653589793116 $66 $110 forward 7 unknown #
loop_type-twe-attrib $-1 $-1 $-1 $43 1 #
loop $111 $112 $113 $10 #
coedge $-1 $70 $70 $114 $115 reversed $43 $-1 #
coedge $-1 $71 $71 $44 $72 forward $116 $-1 #
edge $117 $118 0 $118 6.283185307179586232 $71 $119 forward 7 unknown #
coedge $-1 $120 $45 $121 $122 forward $17 $-1 #
coedge $-1 $123 $124 $45 $75 reversed $125 $-1 #
edge $126 $84 -1.570796326794896558 $127 0 $74 $128 forward 7 unknown #
coedge $-1 $46 $129 $130 $131 forward $17 $-1 #
coedge $-1 $132 $133 $46 $78 forward $134 $-1 #
edge $135 $83 -1.570796326794896558 $136 0 $77 $137 forward 7 unknown #
coedge $-1 $138 $47 $133 $139 reversed $81 $-1 #
coedge $-1 $47 $138 $123 $140 forward $81 $-1 #
loop $141 $-1 $47 $142 #
edge_name-twe-attrib $-1 $-1 $-1 $48 25 8704 #
vertex $-1 $139 $143 #
vertex $-1 $75 $144 #
straight-curve $145 -0.125 0.125 0 1 0 0 I I #
loop_type-twe-attrib $-1 $-1 $-1 $49 1 #
face $146 $147 $148 $3 $-1 $149 reversed single #
point $-1 -3.13050000000000006 -1.280000000000000027 0 #
cur-twe-attrib $-1 $-1 $-1 $52 30 #
face_name-twe-attrib $-1 $-1 $-1 $54 17 #
face $150 $142 $151 $3 $-1 $152 forward single #
loop $153 $31 $154 $54 #
cone-surface $155 -0.625 -2.903999999999999915 0.2604000000000000203 0 0 -1 0.09349999999999999978 0 0 1 I I 0 1 0.09349999999999999978 forward I I I I #
face_name-twe-attrib $-1 $-1 $-1 $59 7 #
face $156 $157 $158 $3 $-1 $159 forward single #
loop $160 $-1 $161 $59 #
plane-surface $162 -4 -4.5 0 -1 0 0 0 0 1 forward_v I I I I #
loop_type-twe-attrib $-1 $-1 $-1 $60 0 #
coedge $-1 $163 $164 $165 $166 reversed $60 $-1 #
surf-twe-attrib $-1 $-1 $-1 $61 37 #
loop_type-twe-attrib $-1 $-1 $-1 $63 1 #
coedge $-1 $167 $168 $138 $169 reversed $63 $-1 #
coedge $-1 $170 $64 $171 $172 reversed $38 $-1 #
coedge $-1 $64 $170 $173 $174 reversed $38 $-1 #
coedge $-1 $164 $163 $64 $106 forward $60 $-1 #
edge $175 $176 -5.5 $177 0 $105 $178 forward 7 unknown #
loop $179 $-1 $66 $180 #
edge_name-twe-attrib $-1 $-1 $-1 $67 14 4608 #
vertex $-1 $67 $181 #
ellipse-curve $182 -0.625 0.3439999999999999725 0 0 0 1 -0.09349999999999999978 0 0 1 I I #
loop_type-twe-attrib $-1 $-1 $-1 $69 1 #
loop $183 $-1 $165 $10 #
coedge $-1 $113 $113 $184 $185 reversed $69 $-1 #
coedge $-1 $114 $114 $70 $115 forward $186 $-1 #
edge $187 $188 0 $188 6.283185307179586232 $114 $189 forward 7 unknown #
loop $190 $-1 $71 $91 #
edge_name-twe-attrib $-1 $-1 $-1 $72 24 4608 #
vertex $-1 $72 $191 #
ellipse-curve $192 -0.625 -2.903999999999999915 0 0 0 1 0.2179999999999999993 0 0 1 I I #
coedge $-1 $193 $73 $194 $195 forward $17 $-1 #
coedge $-1 $196 $197 $73 $122 reversed $198 $-1 #
edge $199 $127 -0.4679999999999999716 $200 0 $121 $201 forward 7 unknown #
coedge $-1 $202 $74 $80 $140 reversed $125 $-1 #
coedge $-1 $74 $202 $196 $203 forward $125 $-1 #
loop $204 $-1 $124 $205 #
edge_name-twe-attrib $-1 $-1 $-1 $75 48 8704 #
vertex $-1 $75 $206 #
ellipse-curve $207 -0.125 -0.125 0 0 0 -1 0.25 0 0 1 I I #
coedge $-1 $76 $208 $209 $210 reversed $17 $-1 #
coedge $-1 $211 $212 $76 $131 reversed $213 $-1 #
edge $214 $215 -2.310000000000000053 $136 0 $130 $216 forward 7 unknown #
coedge $-1 $217 $77 $212 $218 reversed $134 $-1 #
coedge $-1 $77 $217 $79 $139 forward $134 $-1 #
loop $219 $-1 $132 $220 #
edge_name-twe-attrib $-1 $-1 $-1 $78 54 8704 #
vertex $-1 $78 $221 #
ellipse-curve $222 -2.379999999999999893 -0.125 0 0 0 1 -0.25 0 0 1 I I #
coedge $-1 $80 $79 $102 $169 forward $81 $-1 #
edge $223 $224 -0.375 $83 0 $133 $225 forward 7 unknown #
edge $226 $227 -0.375 $84 0 $123 $228 forward 7 unknown #
loop_type-twe-attrib $-1 $-1 $-1 $81 0 #
face $229 $230 $81 $3 $-1 $231 reversed single #
point $-1 -2.379999999999999893 0.125 0 #
point $-1 -0.125 0.125 0 #
cur-twe-attrib $-1 $-1 $-1 $85 48 #
face_name-twe-attrib $-1 $-1 $-1 $87 14 #
face $232 $233 $234 $3 $-1 $235 forward single #
loop $236 $49 $237 $87 #
cone-surface $238 -3.224000000000000199 -1.280000000000000027 0.2604000000000000203 0 0 -1 0.09349999999999999978 0 0 1 I I 0 1 0.09349999999999999978 forward I I I I #
face_name-twe-attrib $-1 $-1 $-1 $91 18 #
loop $239 $116 $240 $91 #
cone-surface $241 -0.625 -2.903999999999999915 0.2604000000000000203 0 0 -1 0.2179999999999999993 0 0 1 I I 0 1 0.2179999999999999993 forward I I I I #
loop_type-twe-attrib $-1 $-1 $-1 $92 0 #
coedge $-1 $154 $154 $242 $243 forward $92 $-1 #
surf-twe-attrib $-1 $-1 $-1 $93 54 #
face_name-twe-attrib $-1 $-1 $-1 $95 8 #
face $244 $245 $246 $3 $-1 $247 forward single #
loop $248 $-1 $249 $95 #
plane-surface $250 -4 1.5 0 0 1 0 0 0 1 forward_v I I I I #
loop_type-twe-attrib $-1 $-1 $-1 $96 0 #
coedge $-1 $251 $252 $253 $254 reversed $96 $-1 #
surf-twe-attrib $-1 $-1 $-1 $97 59 #
coedge $-1 $105 $99 $252 $255 reversed $60 $-1 #
coedge $-1 $99 $105 $256 $257 forward $60 $-1 #
coedge $-1 $258 $253 $99 $166 forward $112 $-1 #
edge $259 $260 -5.5 $261 0 $99 $262 forward 7 unknown #
coedge $-1 $263 $102 $217 $264 forward $63 $-1 #
coedge $-1 $102 $265 $202 $266 reversed $63 $-1 #
edge $267 $224 -2.254999999999999893 $227 0 $138 $268 forward 7 unknown #
coedge $-1 $104 $103 $269 $270 reversed $38 $-1 #
coedge $-1 $252 $251 $103 $172 forward $96 $-1 #
edge $271 $272 -6 $176 0 $171 $273 forward 7 unknown #
coedge $-1 $274 $256 $104 $174 forward $246 $-1 #
edge $275 $177 -6 $276 0 $173 $277 forward 7 unknown #
edge_name-twe-attrib $-1 $-1 $-1 $106 2 8704 #
vertex $-1 $255 $278 #
vertex $-1 $257 $279 #
straight-curve $280 1.5 -4.5 -0.375 1 0 0 I I #
loop_type-twe-attrib $-1 $-1 $-1 $107 1 #
face $281 $282 $283 $3 $-1 $284 reversed single #
point $-1 -0.5314999999999999725 0.3439999999999999725 0 #
cur-twe-attrib $-1 $-1 $-1 $110 67 #
loop_type-twe-attrib $-1 $-1 $-1 $112 0 #
coedge $-1 $184 $184 $113 $185 forward $285 $-1 #
edge $286 $287 0 $287 6.283185307179586232 $184 $288 forward 7 unknown #
loop $289 $-1 $114 $147 #
edge_name-twe-attrib $-1 $-1 $-1 $115 20 4608 #
vertex $-1 $115 $290 #
ellipse-curve $291 -3.224000000000000199 -1.280000000000000027 0 0 0 1 0.2179999999999999993 0 0 1 I I #
loop_type-twe-attrib $-1 $-1 $-1 $116 1 #
point $-1 -0.4069999999999999729 -2.903999999999999915 0 #
cur-twe-attrib $-1 $-1 $-1 $119 72 #
coedge $-1 $292 $120 $293 $294 reversed $17 $-1 #
coedge $-1 $295 $296 $120 $195 reversed $297 $-1 #
edge $298 $200 -0.1000000000000000056 $299 0 $194 $300 forward 7 unknown #
coedge $-1 $301 $121 $124 $203 reversed $198 $-1 #
coedge $-1 $121 $301 $295 $302 forward $198 $-1 #
loop $303 $-1 $121 $304 #
edge_name-twe-attrib $-1 $-1 $-1 $122 40 8704 #
vertex $-1 $302 $305 #
straight-curve $306 0.125 -0.5929999999999999716 0 0 -1 0 I I #
coedge $-1 $124 $123 $168 $266 forward $125 $-1 #
edge $307 $308 -0.375 $127 0 $124 $309 forward 7 unknown #
loop_type-twe-attrib $-1 $-1 $-1 $125 0 #
face $310 $220 $125 $3 $-1 $311 reversed single #
point $-1 0.125 -0.125 0 #
cur-twe-attrib $-1 $-1 $-1 $128 75 #
coedge $-1 $129 $312 $313 $314 forward $17 $-1 #
coedge $-1 $315 $316 $129 $210 forward $317 $-1 #
edge $318 $215 -1.570796326794896558 $319 0 $209 $320 forward 7 unknown #
coedge $-1 $321 $130 $316 $322 reversed $213 $-1 #
coedge $-1 $130 $321 $132 $218 forward $213 $-1 #
loop $323 $-1 $130 $230 #
edge_name-twe-attrib $-1 $-1 $-1 $131 27 8704 #
vertex $-1 $322 $324 #
straight-curve $325 -2.629999999999999893 -0.125 0 0 1 0 I I #
coedge $-1 $133 $132 $167 $264 reversed $134 $-1 #
edge $326 $327 -0.375 $136 0 $132 $328 forward 7 unknown #
loop_type-twe-attrib $-1 $-1 $-1 $134 0 #
face $329 $330 $134 $3 $-1 $331 reversed single #
point $-1 -2.629999999999999893 -0.125 0 #
cur-twe-attrib $-1 $-1 $-1 $137 78 #
edge_name-twe-attrib $-1 $-1 $-1 $139 53 20480 #
vertex $-1 $264 $332 #
straight-curve $333 -2.379999999999999893 0.125 0 0 0 1 I I #
edge_name-twe-attrib $-1 $-1 $-1 $140 49 20480 #
vertex $-1 $140 $334 #
straight-curve $335 -0.125 0.125 0 0 0 1 I I #
face_name-twe-attrib $-1 $-1 $-1 $142 19 #
face $336 $337 $213 $3 $-1 $338 reversed single #
plane-surface $339 0 0.125 0 0 1 0 0 0 1 forward_v I I I I #
face_name-twe-attrib $-1 $-1 $-1 $147 15 #
face $340 $54 $341 $3 $-1 $342 reversed single #
loop $343 $186 $344 $147 #
cone-surface $345 -3.224000000000000199 -1.280000000000000027 0.2604000000000000203 0 0 -1 0.2179999999999999993 0 0 1 I I 0 1 0.2179999999999999993 forward I I I I #
loop_type-twe-attrib $-1 $-1 $-1 $148 0 #
coedge $-1 $237 $237 $346 $347 forward $148 $-1 #
surf-twe-attrib $-1 $-1 $-1 $149 87 #
loop_type-twe-attrib $-1 $-1 $-1 $151 0 #
coedge $-1 $240 $240 $348 $349 forward $151 $-1 #
surf-twe-attrib $-1 $-1 $-1 $152 91 #
coedge $-1 $242 $242 $154 $243 reversed $341 $-1 #
edge $350 $351 0 $351 6.283185307179586232 $242 $352 forward 7 unknown #
face_name-twe-attrib $-1 $-1 $-1 $157 9 #
face $353 $180 $354 $3 $-1 $355 reversed single #
loop $356 $-1 $357 $157 #
plane-surface $358 1.5 1.5 0 1 0 0 0 0 -1 forward_v I I I I #
loop_type-twe-attrib $-1 $-1 $-1 $158 0 #
coedge $-1 $359 $360 $361 $362 reversed $158 $-1 #
surf-twe-attrib $-1 $-1 $-1 $159 95 #
coedge $-1 $171 $161 $360 $363 reversed $96 $-1 #
coedge $-1 $161 $171 $163 $255 forward $96 $-1 #
coedge $-1 $165 $361 $161 $254 forward $112 $-1 #
edge $364 $365 -6 $260 0 $161 $366 forward 7 unknown #
edge $367 $176 -0.375 $260 0 $252 $368 forward 7 unknown #
coedge $-1 $173 $357 $164 $257 reversed $246 $-1 #
edge $369 $177 -0.375 $261 0 $256 $370 forward 7 unknown #
coedge $-1 $361 $165 $357 $371 forward $112 $-1 #
edge_name-twe-attrib $-1 $-1 $-1 $166 1 8704 #
vertex $-1 $255 $372 #
vertex $-1 $257 $373 #
straight-curve $374 1.5 -4.5 0 1 0 0 I I #
coedge $-1 $375 $167 $321 $376 reversed $63 $-1 #
edge $377 $224 -1.570796326794896558 $327 0 $217 $378 forward 7 unknown #
coedge $-1 $168 $379 $301 $380 reversed $63 $-1 #
edge $381 $227 -1.570796326794896558 $308 0 $202 $382 forward 7 unknown #
edge_name-twe-attrib $-1 $-1 $-1 $169 26 8704 #
straight-curve $383 -0.125 0.125 -0.375 1 0 0 I I #
coedge $-1 $360 $359 $170 $270 forward $158 $-1 #
edge $384 $276 -5.5 $272 0 $269 $385 forward 7 unknown #
edge_name-twe-attrib $-1 $-1 $-1 $172 4 8704 #
vertex $-1 $363 $386 #
straight-curve $387 -4 -4.5 -0.375 0 -1 0 I I #
coedge $-1 $357 $173 $359 $388 forward $246 $-1 #
edge_name-twe-attrib $-1 $-1 $-1 $174 11 8704 #
vertex $-1 $388 $389 #
straight-curve $390 1.5 1.5 -0.375 0 1 0 I I #
point $-1 -4 -4.5 -0.375 #
point $-1 1.5 -4.5 -0.375 #
cur-twe-attrib $-1 $-1 $-1 $178 106 #
face_name-twe-attrib $-1 $-1 $-1 $180 11 #
face $391 $392 $393 $3 $-1 $394 forward single #
loop $395 $107 $396 $180 #
cone-surface $397 -0.625 0.3439999999999999725 0.2604000000000000203 0 0 -1 0.09349999999999999978 0 0 1 I I 0 1 0.09349999999999999978 forward I I I I #
loop $398 $-1 $184 $282 #
edge_name-twe-attrib $-1 $-1 $-1 $185 16 4608 #
vertex $-1 $185 $399 #
ellipse-curve $400 -0.625 0.3439999999999999725 0 0 0 1 0.2179999999999999993 0 0 1 I I #
loop_type-twe-attrib $-1 $-1 $-1 $186 1 #
point $-1 -3.005999999999999783 -1.280000000000000027 0 #
cur-twe-attrib $-1 $-1 $-1 $189 115 #
coedge $-1 $401 $193 $402 $403 forward $17 $-1 #
coedge $-1 $404 $405 $193 $294 forward $406 $-1 #
edge $407 $408 -1.570796326794896558 $299 0 $293 $409 forward 7 unknown #
coedge $-1 $410 $194 $197 $302 reversed $297 $-1 #
coedge $-1 $194 $410 $404 $411 forward $297 $-1 #
loop $412 $-1 $194 $413 #
edge_name-twe-attrib $-1 $-1 $-1 $195 38 8704 #
vertex $-1 $294 $414 #
straight-curve $415 0.2250000000000000056 -0.5929999999999999716 0 1 0 0 I I #
coedge $-1 $197 $196 $265 $380 forward $198 $-1 #
edge $416 $417 -0.375 $200 0 $197 $418 forward 7 unknown #
loop_type-twe-attrib $-1 $-1 $-1 $198 0 #
face $419 $420 $198 $3 $-1 $421 reversed single #
point $-1 0.125 -0.5929999999999999716 0 #
cur-twe-attrib $-1 $422 $-1 $201 122 #
edge_name-twe-attrib $-1 $-1 $-1 $203 47 20480 #
vertex $-1 $266 $423 #
straight-curve $424 0.125 -0.125 0 0 0 1 I I #
face_name-twe-attrib $-1 $-1 $-1 $205 28 #
cone-surface $425 -0.125 -0.125 0 0 0 1 0.25 0 0 1 I I 0 1 0.25 forward I I I I #
coedge $-1 $208 $426 $427 $428 reversed $17 $-1 #
coedge $-1 $429 $430 $208 $314 reversed $431 $-1 #
edge $432 $433 -2.254999999999999893 $319 0 $313 $434 forward 7 unknown #
coedge $-1 $435 $209 $430 $436 reversed $317 $-1 #
coedge $-1 $209 $435 $211 $322 forward $317 $-1 #
loop $437 $-1 $315 $420 #
edge_name-twe-attrib $-1 $-1 $-1 $210 46 8704 #
vertex $-1 $210 $438 #
ellipse-curve $439 -2.379999999999999893 -2.435000000000000053 0 0 0 1 0 -0.25 0 1 I I #
coedge $-1 $212 $211 $263 $376 forward $213 $-1 #
edge $440 $441 -0.375 $215 0 $316 $442 forward 7 unknown #
loop_type-twe-attrib $-1 $-1 $-1 $213 0 #
point $-1 -2.629999999999999893 -2.435000000000000053 0 #
cur-twe-attrib $-1 $-1 $-1 $216 131 #
edge_name-twe-attrib $-1 $-1 $-1 $218 51 20480 #
vertex $-1 $264 $443 #
straight-curve $444 -2.629999999999999893 -0.125 0 0 0 1 I I #
face_name-twe-attrib $-1 $-1 $-1 $220 29 #
face $445 $446 $406 $3 $-1 $447 reversed single #
cone-surface $448 -2.379999999999999893 -0.125 0 0 0 -1 -0.25 0 0 1 I I 0 1 0.25 forward I I I I #
point $-1 -2.379999999999999893 0.125 -0.375 #
cur-twe-attrib $-1 $-1 $-1 $225 139 #
point $-1 -0.125 0.125 -0.375 #
cur-twe-attrib $-1 $-1 $-1 $228 140 #
face_name-twe-attrib $-1 $-1 $-1 $230 20 #
face $449 $450 $431 $3 $-1 $451 reversed single #
plane-surface $452 -2.629999999999999893 0 0 -1 0 0 0 0 1 forward_v I I I I #
surf-twe-attrib $-1 $-1 $-1 $231 142 #
face_name-twe-attrib $-1 $-1 $-1 $233 16 #
loop $453 $454 $242 $233 #
plane-surface $455 -0.625 -2.903999999999999915 0.2479999999999999982 0 0 -1 -1 0 0 forward_v I I I I #
loop_type-twe-attrib $-1 $-1 $-1 $234 0 #
coedge $-1 $344 $344 $456 $457 forward $234 $-1 #
surf-twe-attrib $-1 $-1 $-1 $235 147 #
coedge $-1 $346 $346 $237 $347 reversed $458 $-1 #
edge $459 $460 0 $460 6.283185307179586232 $346 $461 forward 7 unknown #
coedge $-1 $348 $348 $240 $349 reversed $454 $-1 #
edge $462 $463 0 $463 6.283185307179586232 $240 $464 forward 7 unknown #
edge_name-twe-attrib $-1 $-1 $-1 $243 21 8704 #
vertex $-1 $243 $465 #
ellipse-curve $466 -0.625 -2.903999999999999915 0.2479999999999999982 0 0 1 0.09349999999999999978 0 0 1 I I #
face_name-twe-attrib $-1 $-1 $-1 $245 10 #
loop $467 $468 $469 $245 #
plane-surface $470 -0.625 0.3439999999999999725 0.2479999999999999982 0 0 -1 -1 0 0 forward_v I I I I #
loop_type-twe-attrib $-1 $-1 $-1 $246 0 #
coedge $-1 $256 $274 $258 $371 reversed $246 $-1 #
surf-twe-attrib $-1 $-1 $-1 $247 157 #
coedge $-1 $269 $249 $274 $388 reversed $158 $-1 #
coedge $-1 $249 $269 $251 $363 forward $158 $-1 #
coedge $-1 $253 $258 $249 $362 forward $112 $-1 #
edge $471 $472 -5.5 $365 0 $249 $473 forward 7 unknown #
edge $474 $272 -0.375 $365 0 $360 $475 forward 7 unknown #
edge_name-twe-attrib $-1 $-1 $-1 $254 3 8704 #
vertex $-1 $363 $476 #
straight-curve $477 -4 -4.5 0 0 -1 0 I I #
edge_name-twe-attrib $-1 $-1 $-1 $255 5 8704 #
straight-curve $478 -4 -4.5 0 0 0 1 I I #
edge_name-twe-attrib $-1 $-1 $-1 $257 10 8704 #
straight-curve $479 1.5 -4.5 0 0 0 1 I I #
edge $480 $261 -6 $472 0 $357 $481 forward 7 unknown #
point $-1 -4 -4.5 0 #
point $-1 1.5 -4.5 0 #
cur-twe-attrib $-1 $-1 $-1 $262 166 #
coedge $-1 $482 $263 $435 $483 forward $63 $-1 #
edge $484 $441 -2.310000000000000053 $327 0 $321 $485 forward 7 unknown #
edge_name-twe-attrib $-1 $-1 $-1 $264 52 8704 #
ellipse-curve $486 -2.379999999999999893 -0.125 -0.375 0 0 1 -0.25 0 0 1 I I #
coedge $-1 $265 $487 $410 $488 reversed $63 $-1 #
edge $489 $308 -0.4679999999999999716 $417 0 $301 $490 forward 7 unknown #
edge_name-twe-attrib $-1 $-1 $-1 $266 50 8704 #
ellipse-curve $491 -0.125 -0.125 -0.375 0 0 -1 0.25 0 0 1 I I #
cur-twe-attrib $-1 $-1 $-1 $268 169 #
edge_name-twe-attrib $-1 $-1 $-1 $270 7 8704 #
straight-curve $492 -4 1.5 -0.375 -1 0 0 I I #
point $-1 -4 1.5 -0.375 #
cur-twe-attrib $-1 $-1 $-1 $273 172 #
edge $493 $276 -0.375 $472 0 $274 $494 forward 7 unknown #
point $-1 1.5 1.5 -0.375 #
cur-twe-attrib $-1 $-1 $-1 $277 174 #
face_name-twe-attrib $-1 $-1 $-1 $282 12 #
face $495 $87 $458 $3 $-1 $496 reversed single #
loop $497 $285 $498 $282 #
cone-surface $499 -0.625 0.3439999999999999725 0.2604000000000000203 0 0 -1 0.2179999999999999993 0 0 1 I I 0 1 0.2179999999999999993 forward I I I I #
loop_type-twe-attrib $-1 $-1 $-1 $283 0 #
coedge $-1 $396 $396 $469 $500 forward $283 $-1 #
surf-twe-attrib $-1 $-1 $-1 $284 180 #
loop_type-twe-attrib $-1 $-1 $-1 $285 1 #
point $-1 -0.4069999999999999729 0.3439999999999999725 0 #
cur-twe-attrib $-1 $-1 $-1 $288 185 #
coedge $-1 $501 $292 $502 $503 reversed $17 $-1 #
coedge $-1 $504 $505 $292 $403 reversed $506 $-1 #
edge $507 $408 -0.1500000000000000222 $508 0 $402 $509 forward 7 unknown #
coedge $-1 $510 $293 $296 $411 reversed $406 $-1 #
coedge $-1 $293 $510 $504 $511 forward $406 $-1 #
loop $512 $-1 $404 $330 #
edge_name-twe-attrib $-1 $-1 $-1 $294 58 8704 #
vertex $-1 $511 $513 #
ellipse-curve $514 0.2250000000000000056 -0.8429999999999999716 0 0 0 1 0 0.25 0 1 I I #
coedge $-1 $296 $295 $379 $488 forward $297 $-1 #
edge $515 $516 -0.375 $299 0 $404 $517 forward 7 unknown #
loop_type-twe-attrib $-1 $-1 $-1 $297 0 #
face $518 $304 $297 $3 $-1 $519 reversed single #
point $-1 0.2250000000000000056 -0.5929999999999999716 0 #
cur-twe-attrib $-1 $-1 $-1 $300 195 #
edge_name-twe-attrib $-1 $-1 $-1 $302 42 8704 #
vertex $-1 $302 $520 #
straight-curve $521 0.125 -0.5929999999999999716 0 0 0 1 I I #
face_name-twe-attrib $-1 $-1 $-1 $304 26 #
face $522 $205 $317 $3 $-1 $523 reversed single #
plane-surface $524 0.125 -0.7179999999999999716 0 1 0 0 0 0 -1 forward_v I I I I #
cur-twe-attrib $-1 $-1 $306 $201 525 #
point $-1 0.125 -0.125 -0.375 #
cur-twe-attrib $-1 $-1 $-1 $309 203 #
surf-twe-attrib $-1 $-1 $-1 $311 205 #
coedge $-1 $312 $501 $525 $526 forward $17 $-1 #
coedge $-1 $527 $528 $312 $428 forward $529 $-1 #
edge $530 $433 -1.570796326794896558 $531 0 $427 $532 forward 7 unknown #
coedge $-1 $533 $313 $528 $534 reversed $431 $-1 #
coedge $-1 $313 $533 $315 $436 forward $431 $-1 #
loop $535 $-1 $313 $337 #
edge_name-twe-attrib $-1 $-1 $-1 $314 29 8704 #
vertex $-1 $534 $536 #
straight-curve $537 -2.379999999999999893 -2.685000000000000053 0 -1 0 0 I I #
coedge $-1 $316 $315 $375 $483 reversed $317 $-1 #
edge $538 $539 -0.375 $319 0 $315 $540 forward 7 unknown #
loop_type-twe-attrib $-1 $-1 $-1 $317 0 #
point $-1 -2.379999999999999893 -2.685000000000000053 0 #
cur-twe-attrib $-1 $-1 $-1 $320 210 #
edge_name-twe-attrib $-1 $-1 $-1 $322 45 20480 #
vertex $-1 $483 $541 #
straight-curve $542 -2.629999999999999893 -2.435000000000000053 0 0 0 1 I I #
point $-1 -2.629999999999999893 -0.125 -0.375 #
cur-twe-attrib $-1 $-1 $-1 $328 218 #
face_name-twe-attrib $-1 $-1 $-1 $330 30 #
face $543 $544 $545 $3 $-1 $546 reversed single #
cone-surface $547 0.2250000000000000056 -0.8429999999999999716 0 0 0 -1 0 0.25 0 1 I I 0 1 0.25 forward I I I I #
surf-twe-attrib $-1 $-1 $-1 $331 220 #
face_name-twe-attrib $-1 $-1 $-1 $337 21 #
face $548 $549 $550 $3 $-1 $551 reversed single #
plane-surface $552 -2.504999999999999893 -2.685000000000000053 0 0 -1 0 0 0 -1 forward_v I I I I #
surf-twe-attrib $-1 $-1 $-1 $338 230 #
loop_type-twe-attrib $-1 $-1 $-1 $341 1 #
loop $553 $-1 $348 $233 #
surf-twe-attrib $-1 $554 $-1 $342 233 #
coedge $-1 $456 $456 $344 $457 reversed $555 $-1 #
edge $556 $557 0 $557 6.283185307179586232 $344 $558 forward 7 unknown #
loop $559 $555 $346 $392 #
edge_name-twe-attrib $-1 $-1 $-1 $347 17 8704 #
vertex $-1 $347 $560 #
ellipse-curve $561 -3.224000000000000199 -1.280000000000000027 0.2479999999999999982 0 0 1 0.09349999999999999978 0 0 1 I I #
edge_name-twe-attrib $-1 $-1 $-1 $349 23 8704 #
vertex $-1 $349 $562 #
ellipse-curve $563 -0.625 -2.903999999999999915 0.2479999999999999982 0 0 -1 0.2179999999999999993 0 0 1 I I #
point $-1 -0.5314999999999999725 -2.903999999999999915 0.2479999999999999982 #
cur-twe-attrib $-1 $-1 $-1 $352 243 #
loop_type-twe-attrib $-1 $-1 $-1 $354 1 #
loop $564 $-1 $565 $245 #
coedge $-1 $469 $469 $396 $500 reversed $354 $-1 #
surf-twe-attrib $-1 $566 $-1 $355 233 #
edge_name-twe-attrib $-1 $-1 $-1 $362 6 8704 #
vertex $-1 $388 $567 #
straight-curve $568 -4 1.5 0 -1 0 0 I I #
edge_name-twe-attrib $-1 $-1 $-1 $363 8 8704 #
straight-curve $569 -4 1.5 0 0 0 1 I I #
point $-1 -4 1.5 0 #
cur-twe-attrib $-1 $-1 $-1 $366 254 #
cur-twe-attrib $-1 $-1 $-1 $368 255 #
cur-twe-attrib $-1 $-1 $-1 $370 257 #
edge_name-twe-attrib $-1 $-1 $-1 $371 9 8704 #
straight-curve $570 1.5 1.5 0 0 1 0 I I #
coedge $-1 $571 $375 $533 $572 reversed $63 $-1 #
edge $573 $441 -1.570796326794896558 $539 0 $435 $574 forward 7 unknown #
edge_name-twe-attrib $-1 $-1 $-1 $376 28 8704 #
straight-curve $575 -2.629999999999999893 -0.125 -0.375 0 1 0 I I #
cur-twe-attrib $-1 $-1 $-1 $378 264 #
coedge $-1 $379 $576 $510 $577 forward $63 $-1 #
edge $578 $417 -0.1000000000000000056 $516 0 $410 $579 forward 7 unknown #
edge_name-twe-attrib $-1 $-1 $-1 $380 41 8704 #
straight-curve $580 0.125 -0.5929999999999999716 -0.375 0 -1 0 I I #
cur-twe-attrib $-1 $-1 $-1 $382 266 #
cur-twe-attrib $-1 $-1 $-1 $385 270 #
edge_name-twe-attrib $-1 $-1 $-1 $388 12 8704 #
straight-curve $581 1.5 1.5 0 0 0 1 I I #
face_name-twe-attrib $-1 $-1 $-1 $392 13 #
plane-surface $582 -3.224000000000000199 -1.280000000000000027 0.2479999999999999982 0 0 -1 -1 0 0 forward_v I I I I #
loop_type-twe-attrib $-1 $-1 $-1 $393 0 #
coedge $-1 $498 $498 $565 $583 forward $393 $-1 #
surf-twe-attrib $-1 $-1 $-1 $394 282 #
edge $584 $585 0 $585 6.283185307179586232 $469 $586 forward 7 unknown #
coedge $-1 $426 $401 $587 $588 forward $17 $-1 #
coedge $-1 $589 $590 $401 $503 forward $545 $-1 #
edge $591 $592 -1.570796326794896558 $508 0 $502 $593 forward 7 unknown #
coedge $-1 $594 $402 $405 $511 reversed $506 $-1 #
coedge $-1 $402 $594 $589 $595 forward $506 $-1 #
loop $596 $-1 $402 $597 #
edge_name-twe-attrib $-1 $-1 $-1 $403 36 8704 #
vertex $-1 $503 $598 #
straight-curve $599 0.4749999999999999778 -0.9929999999999999938 0 0 -1 0 I I #
coedge $-1 $405 $404 $487 $577 reversed $406 $-1 #
edge $600 $601 -0.375 $408 0 $405 $602 forward 7 unknown #
loop_type-twe-attrib $-1 $-1 $-1 $406 0 #
point $-1 0.4749999999999999778 -0.8429999999999999716 0 #
cur-twe-attrib $-1 $-1 $-1 $409 294 #
edge_name-twe-attrib $-1 $-1 $-1 $411 55 20480 #
vertex $-1 $577 $603 #
straight-curve $604 0.2250000000000000056 -0.5929999999999999716 0 0 0 1 I I #
face_name-twe-attrib $-1 $-1 $-1 $413 25 #
plane-surface $605 0.3499999999999999778 -0.5929999999999999716 0 0 1 0 0 0 1 forward_v I I I I #
point $-1 0.125 -0.5929999999999999716 -0.375 #
cur-twe-attrib $-1 $-1 $-1 $418 302 #
face_name-twe-attrib $-1 $-1 $-1 $420 27 #
cone-surface $606 -2.379999999999999893 -2.435000000000000053 0 0 0 -1 0 -0.25 0 1 I I 0 1 0.25 forward I I I I #
surf-twe-attrib $-1 $607 $-1 $421 304 #
coedge $-1 $608 $609 $426 $526 reversed $550 $-1 #
edge $610 $611 -1.191999999999999948 $531 0 $525 $612 forward 7 unknown #
coedge $-1 $613 $427 $609 $614 reversed $529 $-1 #
coedge $-1 $427 $613 $429 $534 forward $529 $-1 #
loop $615 $-1 $527 $544 #
edge_name-twe-attrib $-1 $-1 $-1 $428 66 8704 #
vertex $-1 $428 $616 #
ellipse-curve $617 -0.125 -2.435000000000000053 0 0 0 1 0.25 0 0 1 I I #
coedge $-1 $430 $429 $482 $572 forward $431 $-1 #
edge $618 $619 -0.375 $433 0 $528 $620 forward 7 unknown #
loop_type-twe-attrib $-1 $-1 $-1 $431 0 #
point $-1 -0.125 -2.685000000000000053 0 #
cur-twe-attrib $-1 $-1 $-1 $434 314 #
edge_name-twe-attrib $-1 $-1 $-1 $436 43 20480 #
vertex $-1 $483 $621 #
straight-curve $622 -2.379999999999999893 -2.685000000000000053 0 0 0 1 I I #
point $-1 -2.629999999999999893 -2.435000000000000053 -0.375 #
cur-twe-attrib $-1 $-1 $-1 $442 322 #
face_name-twe-attrib $-1 $-1 $-1 $446 31 #
face $623 $-1 $529 $3 $-1 $624 reversed single #
loop $625 $-1 $589 $446 #
cone-surface $626 0.2250000000000000056 -0.9929999999999999938 0 0 0 -1 0.25 0 0 1 I I 0 1 0.25 forward I I I I #
surf-twe-attrib $-1 $-1 $-1 $447 330 #
face_name-twe-attrib $-1 $-1 $-1 $450 22 #
face $627 $597 $628 $3 $-1 $629 reversed single #
loop $630 $-1 $525 $450 #
plane-surface $631 0.125 -2.560000000000000053 0 1 0 0 0 0 -1 forward_v I I I I #
surf-twe-attrib $-1 $-1 $-1 $451 337 #
loop_type-twe-attrib $-1 $-1 $-1 $454 0 #
surf-twe-attrib $-1 $632 $455 $342 392 #
loop $633 $-1 $456 $392 #
edge_name-twe-attrib $-1 $-1 $-1 $457 19 8704 #
vertex $-1 $457 $634 #
ellipse-curve $635 -3.224000000000000199 -1.280000000000000027 0.2479999999999999982 0 0 -1 0.2179999999999999993 0 0 1 I I #
loop_type-twe-attrib $-1 $-1 $-1 $458 1 #
point $-1 -3.13050000000000006 -1.280000000000000027 0.2479999999999999982 #
cur-twe-attrib $-1 $-1 $-1 $461 347 #
point $-1 -0.4069999999999999729 -2.903999999999999915 0.2479999999999999982 #
cur-twe-attrib $-1 $-1 $-1 $464 349 #
loop_type-twe-attrib $-1 $-1 $-1 $468 0 #
coedge $-1 $565 $565 $498 $583 reversed $468 $-1 #
surf-twe-attrib $-1 $636 $470 $355 392 #
point $-1 1.5 1.5 0 #
cur-twe-attrib $-1 $-1 $-1 $473 362 #
cur-twe-attrib $-1 $-1 $-1 $475 363 #
cur-twe-attrib $-1 $-1 $-1 $481 371 #
coedge $-1 $637 $482 $613 $638 forward $63 $-1 #
edge $639 $619 -2.254999999999999893 $539 0 $533 $640 forward 7 unknown #
edge_name-twe-attrib $-1 $-1 $-1 $483 44 8704 #
ellipse-curve $641 -2.379999999999999893 -2.435000000000000053 -0.375 0 0 1 0 -0.25 0 1 I I #
cur-twe-attrib $-1 $-1 $-1 $485 376 #
coedge $-1 $487 $642 $594 $643 reversed $63 $-1 #
edge $644 $601 -1.570796326794896558 $516 0 $510 $645 forward 7 unknown #
edge_name-twe-attrib $-1 $-1 $-1 $488 39 8704 #
straight-curve $646 0.2250000000000000056 -0.5929999999999999716 -0.375 1 0 0 I I #
cur-twe-attrib $-1 $647 $-1 $490 380 #
cur-twe-attrib $-1 $-1 $-1 $494 388 #
surf-twe-attrib $-1 $648 $-1 $496 233 #
edge $649 $650 0 $650 6.283185307179586232 $498 $651 forward 7 unknown #
edge_name-twe-attrib $-1 $-1 $-1 $500 13 8704 #
vertex $-1 $500 $652 #
ellipse-curve $653 -0.625 0.3439999999999999725 0.2479999999999999982 0 0 1 0.09349999999999999978 0 0 1 I I #
coedge $-1 $654 $655 $501 $588 reversed $628 $-1 #
edge $656 $592 -0.1000000000000000056 $611 0 $587 $657 forward 7 unknown #
coedge $-1 $658 $502 $505 $595 reversed $545 $-1 #
coedge $-1 $502 $658 $654 $659 forward $545 $-1 #
edge_name-twe-attrib $-1 $-1 $-1 $503 62 8704 #
vertex $-1 $659 $660 #
ellipse-curve $661 0.2250000000000000056 -0.9929999999999999938 0 0 0 1 0.25 0 0 1 I I #
coedge $-1 $505 $504 $576 $643 forward $506 $-1 #
edge $662 $663 -0.375 $508 0 $589 $664 forward 7 unknown #
loop_type-twe-attrib $-1 $-1 $-1 $506 0 #
face $665 $413 $506 $3 $-1 $666 reversed single #
point $-1 0.4749999999999999778 -0.9929999999999999938 0 #
cur-twe-attrib $-1 $-1 $-1 $509 403 #
edge_name-twe-attrib $-1 $-1 $-1 $511 57 20480 #
vertex $-1 $577 $667 #
straight-curve $668 0.4749999999999999778 -0.8429999999999999716 0 0 0 1 I I #
point $-1 0.2250000000000000056 -0.5929999999999999716 -0.375 #
cur-twe-attrib $-1 $-1 $-1 $517 411 #
surf-twe-attrib $-1 $-1 $-1 $519 413 #
surf-twe-attrib $-1 $-1 $-1 $523 420 #
surf-twe-attrib $-1 $-1 $524 $421 450 #
coedge $-1 $669 $525 $655 $670 reversed $550 $-1 #
coedge $-1 $525 $669 $527 $614 forward $550 $-1 #
edge_name-twe-attrib $-1 $-1 $-1 $526 31 8704 #
vertex $-1 $670 $671 #
straight-curve $672 0.125 -2.435000000000000053 0 0 -1 0 I I #
coedge $-1 $528 $527 $571 $638 reversed $529 $-1 #
edge $673 $674 -0.375 $531 0 $527 $675 forward 7 unknown #
loop_type-twe-attrib $-1 $-1 $-1 $529 0 #
point $-1 0.125 -2.435000000000000053 0 #
cur-twe-attrib $-1 $-1 $-1 $532 428 #
edge_name-twe-attrib $-1 $-1 $-1 $534 65 20480 #
vertex $-1 $638 $676 #
straight-curve $677 -0.125 -2.685000000000000053 0 0 0 1 I I #
point $-1 -2.379999999999999893 -2.685000000000000053 -0.375 #
cur-twe-attrib $-1 $-1 $-1 $540 436 #
face_name-twe-attrib $-1 $-1 $-1 $544 32 #
cone-surface $678 -0.125 -2.435000000000000053 0 0 0 -1 0.25 0 0 1 I I 0 1 0.25 forward I I I I #
loop_type-twe-attrib $-1 $-1 $-1 $545 0 #
surf-twe-attrib $-1 $-1 $-1 $546 446 #
face_name-twe-attrib $-1 $-1 $-1 $549 23 #
loop $679 $-1 $587 $549 #
plane-surface $680 0 -1.243000000000000105 0 0 -1 0 0 0 -1 forward_v I I I I #
loop_type-twe-attrib $-1 $-1 $-1 $550 0 #
surf-twe-attrib $-1 $681 $-1 $551 304 #
surf-twe-attrib $-1 $-1 $554 $342 245 #
loop_type-twe-attrib $-1 $-1 $-1 $555 0 #
point $-1 -3.005999999999999783 -1.280000000000000027 0.2479999999999999982 #
cur-twe-attrib $-1 $-1 $-1 $558 457 #
surf-twe-attrib $-1 $-1 $566 $355 245 #
coedge $-1 $682 $571 $669 $683 reversed $63 $-1 #
edge $684 $619 -1.570796326794896558 $674 0 $613 $685 forward 7 unknown #
edge_name-twe-attrib $-1 $-1 $-1 $572 30 8704 #
straight-curve $686 -2.379999999999999893 -2.685000000000000053 -0.375 -1 0 0 I I #
cur-twe-attrib $-1 $-1 $-1 $574 483 #
coedge $-1 $576 $682 $658 $687 forward $63 $-1 #
edge $688 $601 -0.1500000000000000222 $663 0 $594 $689 forward 7 unknown #
edge_name-twe-attrib $-1 $-1 $-1 $577 56 8704 #
ellipse-curve $690 0.2250000000000000056 -0.8429999999999999716 -0.375 0 0 1 0 0.25 0 1 I I #
cur-twe-attrib $-1 $-1 $-1 $579 488 #
cur-twe-attrib $-1 $-1 $580 $490 683 #
surf-twe-attrib $-1 $691 $582 $496 392 #
edge_name-twe-attrib $-1 $-1 $-1 $583 15 8704 #
vertex $-1 $583 $692 #
ellipse-curve $693 -0.625 0.3439999999999999725 0.2479999999999999982 0 0 -1 0.2179999999999999993 0 0 1 I I #
point $-1 -0.5314999999999999725 0.3439999999999999725 0.2479999999999999982 #
cur-twe-attrib $-1 $-1 $-1 $586 500 #
coedge $-1 $694 $587 $590 $659 reversed $628 $-1 #
coedge $-1 $587 $694 $608 $670 forward $628 $-1 #
edge_name-twe-attrib $-1 $-1 $-1 $588 33 8704 #
straight-curve $695 0.125 -1.243000000000000105 0 -1 0 0 I I #
coedge $-1 $590 $589 $642 $687 reversed $545 $-1 #
edge $696 $697 -0.375 $592 0 $590 $698 forward 7 unknown #
point $-1 0.2250000000000000056 -1.243000000000000105 0 #
cur-twe-attrib $-1 $-1 $-1 $593 503 #
edge_name-twe-attrib $-1 $-1 $-1 $595 59 20480 #
vertex $-1 $687 $699 #
straight-curve $700 0.4749999999999999778 -0.9929999999999999938 0 0 0 1 I I #
face_name-twe-attrib $-1 $-1 $-1 $597 24 #
plane-surface $701 0.4749999999999999778 -1.118000000000000105 0 1 0 0 0 0 -1 forward_v I I I I #
point $-1 0.4749999999999999778 -0.8429999999999999716 -0.375 #
cur-twe-attrib $-1 $-1 $-1 $602 511 #
coedge $-1 $609 $608 $637 $683 forward $550 $-1 #
edge $702 $703 -0.375 $611 0 $655 $704 forward 7 unknown #
point $-1 0.125 -1.243000000000000105 0 #
cur-twe-attrib $-1 $705 $-1 $612 122 #
edge_name-twe-attrib $-1 $-1 $-1 $614 63 20480 #
vertex $-1 $638 $706 #
straight-curve $707 0.125 -2.435000000000000053 0 0 0 1 I I #
point $-1 -0.125 -2.685000000000000053 -0.375 #
cur-twe-attrib $-1 $-1 $-1 $620 534 #
surf-twe-attrib $-1 $-1 $-1 $624 544 #
loop_type-twe-attrib $-1 $-1 $-1 $628 0 #
surf-twe-attrib $-1 $-1 $-1 $629 549 #
surf-twe-attrib $-1 $-1 $631 $551 450 #
coedge $-1 $642 $637 $694 $708 reversed $63 $-1 #
edge $709 $703 -1.191999999999999948 $674 0 $669 $710 forward 7 unknown #
edge_name-twe-attrib $-1 $-1 $-1 $638 64 8704 #
ellipse-curve $711 -0.125 -2.435000000000000053 -0.375 0 0 1 0.25 0 0 1 I I #
cur-twe-attrib $-1 $-1 $-1 $640 572 #
edge $712 $697 -1.570796326794896558 $663 0 $658 $713 forward 7 unknown #
edge_name-twe-attrib $-1 $-1 $-1 $643 37 8704 #
straight-curve $714 0.4749999999999999778 -0.9929999999999999938 -0.375 0 -1 0 I I #
cur-twe-attrib $-1 $-1 $-1 $645 577 #
surf-twe-attrib $-1 $-1 $648 $496 245 #
point $-1 -0.4069999999999999729 0.3439999999999999725 0.2479999999999999982 #
cur-twe-attrib $-1 $-1 $-1 $651 583 #
coedge $-1 $655 $654 $682 $708 forward $628 $-1 #
cur-twe-attrib $-1 $-1 $-1 $657 588 #
edge_name-twe-attrib $-1 $-1 $-1 $659 61 20480 #
vertex $-1 $687 $715 #
straight-curve $716 0.2250000000000000056 -1.243000000000000105 0 0 0 1 I I #
point $-1 0.4749999999999999778 -0.9929999999999999938 -0.375 #
cur-twe-attrib $-1 $-1 $-1 $664 595 #
surf-twe-attrib $-1 $-1 $-1 $666 597 #
edge_name-twe-attrib $-1 $-1 $-1 $670 35 8704 #
vertex $-1 $670 $717 #
straight-curve $718 0.125 -1.243000000000000105 0 0 0 1 I I #
cur-twe-attrib $-1 $-1 $672 $612 525 #
point $-1 0.125 -2.435000000000000053 -0.375 #
cur-twe-attrib $-1 $-1 $-1 $675 614 #
edge $719 $697 -0.1000000000000000056 $703 0 $694 $720 forward 7 unknown #
edge_name-twe-attrib $-1 $-1 $-1 $683 32 8704 #
straight-curve $721 0.125 -2.435000000000000053 -0.375 0 -1 0 I I #
cur-twe-attrib $-1 $-1 $-1 $685 638 #
edge_name-twe-attrib $-1 $-1 $-1 $687 60 8704 #
ellipse-curve $722 0.2250000000000000056 -0.9929999999999999938 -0.375 0 0 1 0.25 0 0 1 I I #
cur-twe-attrib $-1 $-1 $-1 $689 643 #
point $-1 0.2250000000000000056 -1.243000000000000105 -0.375 #
cur-twe-attrib $-1 $-1 $-1 $698 659 #
point $-1 0.125 -1.243000000000000105 -0.375 #
cur-twe-attrib $-1 $-1 $-1 $704 669 #
edge_name-twe-attrib $-1 $-1 $-1 $708 34 8704 #
straight-curve $723 0.125 -1.243000000000000105 -0.375 -1 0 0 I I #
cur-twe-attrib $-1 $724 $-1 $710 380 #
cur-twe-attrib $-1 $-1 $-1 $713 687 #
cur-twe-attrib $-1 $-1 $-1 $720 708 #
cur-twe-attrib $-1 $-1 $721 $710 683 #
End-of-ACIS-data 