**ABCDEFGHIJKLMNOPQRSTUVWXYZabcdefghijklmnopqrstuvwxyz**************************
**PARASOLID !"#$%&'()*+,-./:;<=>?@[\]^_`{|}~0123456789**************************
**PART1;MC=sun;MC_MODEL=Sun-3;MC_ID=unknown;OS=SunOS;OS_RELEASE=unknown;FRU=sdl_
parasolid_test_sun;APPL=unknown;SITE=sdl-cambridge-u.k.;USER=kramer;FORMAT=text;
GUISE=transmit;KEY=white_para;FILE=white_para.xmt_txt;DATE=20-nov-1990;
**PART2;SCH=SCH_210_1012;USFLD_SIZE=0;
**PART3;
**END_OF_HEADER*****************************************************************
T47 : TRANSMIT FILE created by modeller version 22012 SCH_210_10120 12 1 235 0 0
 0 0 0 1e3 1e-8 2 2 0 0 0 1 3 102 10 2 white_para13 3 96 0 1 0 4 5 6 7 8 9 14 4
 225 0 10 0 11 3 7 -16 5 214 0 12 0 13 8 18 6 60 0 14 0 15 9 51 7 230 0 4 16 0 0
 +.8 .9 0 0 0 1 .25 31 8 217 0 5 17 0 0 +.8 .9 1.5 0 0 1 .25 29 9 62 0 6 18 0 3.
2 .5 1.5 29 18 55 0 15 19 9 0 0 1.5 18 15 20 0 20 6 21 18 29 19 54 0 21 22 18 0
 3 1.5 18 21 18 0 23 15 24 19 29 22 53 0 24 25 19 6.5 3 1.5 18 24 16 0 26 21 27
 22 29 25 52 0 27 28 22 6.5 0 1.5 18 27 14 0 29 24 30 25 29 28 38 0 31 32 25 0 0
 0 18 31 8 0 33 34 35 28 29 32 37 0 34 36 28 0 3 0 18 34 10 0 37 30 31 32 29 36
 36 0 30 38 32 6.5 3 0 18 30 12 0 39 27 34 36 29 38 35 0 35 40 36 6.5 0 0 18 35
 7 0 41 31 42 38 29 40 191 0 42 43 38 3.2 2.5 .9 18 42 141 0 44 35 45 40 29 43 1
92 0 45 46 40 4.8 2.5 .9 18 45 142 0 47 42 48 43 29 46 193 0 48 49 43 2.5 1.2 .9
 18 48 143 0 50 45 51 46 29 49 194 0 51 52 46 2.5 1.8 .9 18 51 144 0 53 48 54 49
 29 52 195 0 54 55 49 5.5 1.8 .9 18 54 145 0 56 51 57 52 29 55 196 0 57 58 52 5.
5 1.2 .9 18 57 146 0 59 54 60 55 29 58 197 0 60 61 55 2.5 1.8 1.5 18 60 147 0 62
 57 63 58 29 61 198 0 63 64 58 2.5 1.2 1.5 18 63 148 0 65 60 66 61 29 64 199 0 6
6 67 61 4.8 2.5 1.5 18 66 149 0 68 63 69 64 29 67 200 0 69 70 64 3.2 2.5 1.5 18
 69 150 0 71 66 72 67 29 70 201 0 72 73 67 5.5 1.2 1.5 18 72 151 0 74 69 75 70 2
9 73 202 0 75 76 70 5.5 1.8 1.5 18 75 152 0 77 72 78 73 29 76 203 0 78 79 73 4.8
 .5 .9 18 78 153 0 80 75 81 76 29 79 204 0 81 82 76 3.2 .5 .9 18 81 154 0 83 78
 84 79 29 82 206 0 84 0 79 4.8 .5 1.5 18 84 156 0 85 81 0 82 17 85 86 14 74 84 8
7 88 15 86 92 0 68 10 89 17 14 86 65 85 6 90 91 17 74 86 85 77 72 92 93 17 87 94
 95 96 72 85 88 16 88 130 0 87 97 98 99 16 97 129 0 100 101 88 102 16 98 131 0 1
03 88 104 105 31 99 180 0 88 105 102 0 +4.8 1.2 1.5 0 0 1 .7 31 105 181 0 98 106
 99 0 +4.8 1.8 1.5 0 0 1 .7 30 102 179 0 97 99 107 0 +5.5 1.5 .9 0 1 0 30 107 17
8 0 101 102 108 0 +5.5 1.8 .9 0 0 1 16 101 128 0 109 110 97 107 30 108 177 0 110
 107 111 0 +5.5 1.2 .9 0 0 -1 16 110 127 0 95 112 101 108 30 111 176 0 112 108 1
13 0 +2.5 1.5 .9 0 -1 0 16 112 126 0 114 115 110 111 30 113 175 0 115 111 116 0
 +4 2.5 .9 -1 0 0 16 115 125 0 117 118 112 113 31 116 174 0 118 113 119 0 +3.2 1
.2 .9 0 0 -1 .7 16 118 124 0 120 121 115 116 31 119 173 0 121 116 122 0 +3.2 1.8
 .9 0 0 -1 .7 16 121 123 0 123 124 118 119 31 122 172 0 124 119 125 0 +4.8 1.8 .
9 0 0 -1 .7 16 124 122 0 126 127 121 122 31 125 171 0 127 122 128 0 +4.8 1.2 .9
 0 0 -1 .7 16 127 121 0 129 130 124 125 30 128 170 0 130 125 131 0 +3.2 2.5 .9 0
 0 1 16 130 120 0 132 133 127 128 30 131 169 0 133 128 134 0 +4.8 2.5 .9 0 0 -1
 16 133 119 0 135 136 130 131 30 134 168 0 136 131 137 0 +2.5 1.2 .9 0 0 1 16 13
6 118 0 138 139 133 134 30 137 167 0 139 134 140 0 +2.5 1.8 .9 0 0 -1 16 139 117
 0 141 142 136 137 30 140 39 0 143 137 144 0 +3.25 0 0 1 0 0 16 143 9 0 41 145 1
42 140 30 144 40 0 142 140 146 0 +6.5 1.5 0 0 1 0 16 142 3 0 39 143 139 144 30 1
46 41 0 147 144 148 0 +3.25 3 0 -1 0 0 16 147 13 0 37 149 145 146 30 148 42 0 14
5 146 150 0 +0 1.5 0 0 -1 0 16 145 11 0 33 147 143 148 30 150 47 0 149 148 151 0
 +6.5 0 0 0 0 1 16 149 15 0 29 152 147 150 30 151 48 0 152 150 153 0 +6.5 3 0 0
 0 1 16 152 17 0 26 154 149 151 30 153 49 0 154 151 155 0 +0 3 0 0 0 1 16 154 19
 0 23 156 152 153 30 155 50 0 156 153 157 0 +0 0 0 0 0 1 16 156 21 0 20 158 154
 155 30 157 56 0 158 155 159 0 +6.5 1.5 1.5 0 -1 0 16 158 22 0 160 161 156 157 3
0 159 57 0 161 157 162 0 +3.25 3 1.5 1 0 0 16 161 25 0 163 164 158 159 30 162 58
 0 164 159 165 0 +0 1.5 1.5 0 1 0 16 164 28 0 166 167 161 162 30 165 59 0 167 16
2 168 0 +3.25 0 1.5 -1 0 0 16 167 31 0 169 170 164 165 31 168 74 0 170 165 17 0
 +3.2 1.2 1.5 0 0 1 .7 16 170 72 0 171 13 167 168 31 17 211 0 13 168 8 0 +.8 .9
 0 0 0 -1 .25 16 13 208 0 172 5 170 17 17 172 173 172 172 0 174 13 15 173 227 0
 172 4 0 17 174 175 174 174 0 172 13 15 175 210 0 174 176 177 14 176 6 0 178 179
 175 3 180 +15 177 5 0 181 176 0 17 181 177 182 183 35 39 142 17 182 177 184 181
 31 41 143 17 183 177 181 184 30 37 147 17 39 185 26 186 30 181 142 15 185 4 0 3
9 178 0 17 26 185 160 39 24 187 152 17 186 185 39 160 35 29 149 17 160 185 186 2
6 27 188 158 17 29 189 169 41 27 186 149 15 189 29 0 29 190 0 17 169 189 191 29
 15 192 167 17 41 189 29 191 35 182 143 17 191 189 41 169 31 20 156 17 20 193 16
6 33 15 191 156 15 193 26 0 20 194 0 17 166 193 195 20 21 196 164 17 33 193 20 1
95 31 184 145 17 195 193 33 166 34 23 154 17 184 177 183 182 34 33 145 17 23 197
 163 37 21 195 154 15 197 23 0 23 179 0 17 163 197 187 23 24 198 161 17 37 197 2
3 187 34 183 147 17 187 197 37 163 30 26 152 17 198 89 196 188 21 163 161 15 89
 32 0 192 10 0 17 196 89 192 198 15 166 164 17 188 89 198 192 24 160 158 17 192
 89 188 196 27 169 167 14 10 33 0 190 4 199 3 16 +14 190 30 0 194 10 189 3 200 +
15 199 216 0 201 10 86 50 16 51 0 10 200 7 0 +3.25 1.5 1.5 0 0 1 50 200 46 0 190
 202 16 0 +3.25 0 0 0 -1 0 50 202 45 0 194 203 200 0 +0 1.5 0 -1 0 0 14 194 27 0
 179 190 193 3 202 +50 203 44 0 179 204 202 0 +3.25 3 0 0 1 0 14 179 24 0 176 19
4 197 3 203 +50 204 43 0 178 180 203 0 +6.5 1.5 0 1 0 0 14 178 1 0 205 176 185 3
 204 +50 180 34 0 176 206 204 0 +3.25 1.5 0 0 0 -1 51 206 157 0 205 207 180 0 +3
.2 1.2 .9 0 0 1 .7 14 205 97 0 208 178 209 3 206 -51 207 158 0 208 210 206 0 +3.
2 1.8 .9 0 0 1 .7 14 208 99 0 211 205 212 3 207 -51 210 159 0 211 213 207 0 +4.8
 1.8 .9 0 0 1 .7 14 211 101 0 214 208 215 3 210 -51 213 160 0 214 216 210 0 +4.8
 1.2 .9 0 0 1 .7 14 214 103 0 217 211 94 3 213 -50 216 161 0 217 218 213 0 +2.5
 1.5 .9 -1 0 0 14 217 105 0 219 214 220 3 216 -50 218 162 0 219 221 216 0 +4 2.5
 .9 0 1 0 14 219 107 0 222 217 223 3 218 -50 221 163 0 222 224 218 0 +4 1.5 .9 0
 0 -1 14 222 109 0 225 219 226 3 221 -50 224 164 0 225 227 221 0 +5.5 1.5 .9 1 0
 0 14 225 111 0 228 222 229 3 224 -50 227 166 0 228 0 224 0 +4 .5 .9 0 -1 0 14 2
28 115 0 0 225 230 3 227 -15 230 116 0 231 228 0 17 231 230 232 80 81 233 234 17
 232 230 90 231 6 235 236 17 80 230 231 90 78 96 237 17 233 226 59 83 78 231 234
 16 234 139 0 233 236 91 238 16 236 138 0 235 237 234 239 16 91 140 0 14 234 0 2
40 30 238 189 0 234 240 239 0 +4 .5 .9 1 0 0 30 240 190 0 91 0 238 0 +4 .5 1.5 -
1 0 0 30 239 188 0 236 238 241 0 +3.2 .5 .9 0 0 -1 30 241 187 0 237 239 242 0 +4
.8 .5 .9 0 0 1 16 237 137 0 96 93 236 241 30 242 186 0 93 241 243 0 +5.5 1.5 1.5
 0 -1 0 16 93 136 0 74 244 237 242 30 243 185 0 244 242 245 0 +4 2.5 1.5 1 0 0 1
6 244 135 0 68 246 93 243 30 245 184 0 246 243 106 0 +2.5 1.5 1.5 0 1 0 16 246 1
34 0 62 104 244 245 31 106 182 0 104 245 105 0 +3.2 1.8 1.5 0 0 1 .7 16 104 132
 0 247 98 246 106 17 247 212 141 132 60 71 104 15 212 100 0 123 208 0 17 141 212
 123 247 51 248 139 17 132 212 247 123 69 44 130 17 71 86 68 62 69 247 104 17 68
 86 77 71 66 249 244 17 62 86 71 65 60 250 246 17 65 86 62 14 63 171 170 17 250
 220 50 248 63 62 246 15 220 106 0 250 217 0 17 50 220 251 250 48 138 136 17 248
 220 250 251 60 141 139 17 251 220 248 50 51 114 112 17 114 226 83 53 48 251 112
 15 226 110 0 100 222 0 17 83 226 233 114 81 120 118 17 53 226 114 117 51 123 12
1 17 117 226 53 47 42 252 115 17 123 212 132 141 42 53 121 17 47 226 117 100 45
 126 124 17 252 223 253 44 45 117 115 15 223 108 0 249 219 0 17 253 223 249 252
 66 135 133 17 44 223 252 249 42 132 130 17 249 223 44 253 69 68 244 17 135 215
 126 103 45 253 133 15 215 102 0 126 211 0 17 126 215 109 135 54 47 124 17 103 2
15 135 109 66 77 98 17 109 215 103 126 75 56 101 17 77 86 74 68 75 103 98 17 56
 229 254 92 54 109 101 15 229 112 0 92 225 0 17 254 229 255 56 57 100 97 17 92 2
29 56 255 75 74 93 17 255 229 92 254 72 95 110 17 95 94 129 87 57 255 110 15 94
 104 0 129 214 0 17 129 94 96 95 78 59 127 17 96 94 87 129 84 80 237 17 59 226 1
00 233 57 129 127 17 100 226 47 59 54 254 97 17 120 209 138 235 48 83 118 15 209
 98 0 120 205 0 17 138 209 171 120 63 50 136 17 235 209 120 171 81 232 236 17 17
1 209 235 138 6 65 170 17 90 230 80 232 84 14 91 17 201 199 201 201 0 12 5 17 12
 11 12 12 0 201 5 15 11 226 0 12 4 173 1 0 
