600 0 1 0           
97 GICL ACIS Healer - Source: /gicl/data5/repository/UMD/inf_feats1-stock/inf_feats1-stock.sat - 6 0 18 ACIS 6.0.3 Solaris 24 Sun Apr 14 00:34:21 2002 
1 9.999999999999999547e-07 1.000000000000000036e-10 
body $-1 $1 $-1 $-1 #
lump $-1 $-1 $2 $0 #
shell $-1 $-1 $-1 $3 $-1 $1 #
face $-1 $4 $5 $2 $-1 $6 reversed single #
face $-1 $7 $8 $2 $-1 $9 forward single #
loop $-1 $10 $11 $3 #
cone-surface $-1 0 0 0 1 0 -3.491481338843129805e-15 -1.047444401652938997e-13 0 -30 1 I I 0 1 30 forward I I I I #
face $-1 $12 $13 $2 $-1 $14 forward single #
loop $-1 $15 $16 $4 #
cone-surface $-1 0 0 0 1 0 -3.491481338843129805e-15 -1.745740669421564911e-13 0 -50 1 I I 0 1 50 forward I I I I #
loop $-1 $-1 $17 $3 #
coedge $-1 $11 $11 $18 $19 reversed $5 $-1 #
face $-1 $-1 $20 $2 $-1 $21 forward single #
loop $-1 $22 $18 $7 #
plane-surface $-1 -50 0 1.745740669421564911e-13 -1 0 3.491481338843129805e-15 3.491481338843129805e-15 0 1 forward_v I I I I #
loop $-1 $-1 $23 $4 #
coedge $-1 $16 $16 $24 $25 reversed $8 $-1 #
coedge $-1 $17 $17 $26 $27 reversed $10 $-1 #
coedge $-1 $18 $18 $11 $19 forward $13 $-1 #
edge $-1 $28 0 $28 6.283185307179586232 $18 $29 forward 7 unknown #
loop $-1 $30 $26 $12 #
plane-surface $-1 50 0 -1.745740669421564911e-13 1 0 -3.491481338843129805e-15 -3.491481338843129805e-15 0 -1 forward_v I I I I #
loop $-1 $-1 $24 $7 #
coedge $-1 $23 $23 $31 $32 reversed $15 $-1 #
coedge $-1 $24 $24 $16 $25 forward $22 $-1 #
edge $-1 $33 0 $33 6.283185307179586232 $24 $34 forward 7 unknown #
coedge $-1 $26 $26 $17 $27 forward $20 $-1 #
edge $-1 $35 0 $35 6.283185307179586232 $26 $36 forward 7 unknown #
vertex $-1 $19 $37 #
ellipse-curve $-1 -50 0 1.745740669421564911e-13 1 0 -3.491481338843129805e-15 -1.047444401652938997e-13 0 -30 1 I I #
loop $-1 $-1 $31 $12 #
coedge $-1 $31 $31 $23 $32 forward $30 $-1 #
edge $-1 $38 0 $38 6.283185307179586232 $31 $39 forward 7 unknown #
vertex $-1 $25 $40 #
ellipse-curve $-1 -50 0 1.745740669421564911e-13 -1 0 3.491481338843129805e-15 -1.745740669421564911e-13 0 -50 1 I I #
vertex $-1 $27 $41 #
ellipse-curve $-1 50 0 -1.745740669421564911e-13 -1 -0 3.491481338843129805e-15 -1.047444401652938997e-13 0 -30 1 I I #
point $-1 -50.00000000000010658 0 -29.99999999999982592 #
vertex $-1 $32 $42 #
ellipse-curve $-1 50 0 -1.745740669421564911e-13 1 0 -3.491481338843129805e-15 -1.745740669421564911e-13 0 -50 1 I I #
point $-1 -50.00000000000017764 0 -49.99999999999982236 #
point $-1 49.99999999999989342 0 -30.00000000000017408 #
point $-1 49.99999999999982236 0 -50.00000000000017764 #
End-of-ACIS-data 