600 0 2 0           
24 FBMach with ACIS - 6.0.3 13 ACIS 6.0.3 NT 24 Sun Mar 31 23:26:03 2002 
1 9.9999999999999995e-007 1e-010 
body $2 $3 $-1 $4 #
bdycol-kcp $-1 1 3 $5 $6 $7 #
model_id-kcp-attrib $-1 $8 $-1 $0 1 1017635163 50 -550371327 1 #
lump $-1 $-1 $9 $0 #
transform $-1 1 0 0 0 1 0 0 0 1 0 0 0 1 rotate no_reflect no_shear #
body $10 $11 $-1 $12 #
body $13 $14 $-1 $15 #
body $16 $17 $-1 $18 #
aggregate_advspl_attribute-aggregate_geombuild_base_attribute-aggregate_body_attribute-attrib_HH-attrib $-1 $19 $2 $0 F #
shell $-1 $-1 $-1 $20 $-1 $3 #
model_id-kcp-attrib $-1 $-1 $-1 $5 1 1017635163 50 -550371326 1 #
lump $-1 $-1 $21 $5 #
transform $-1 1 0 0 0 1 0 0 0 1 0 0 0 1 no_rotate no_reflect no_shear #
rgb_color-st-attrib $-1 $22 $-1 $6 0.5 1 1 #
lump $-1 $-1 $23 $6 #
transform $-1 -3.8285889215894375e-016 0 -1 0 1 0 1 0 -3.8285889215894375e-016 0 0 0 1 rotate no_reflect no_shear #
rgb_color-st-attrib $-1 $24 $-1 $7 0.5 1 1 #
lump $-1 $-1 $25 $7 #
transform $-1 1 0 0 0 1 0 0 0 1 0 0 0 1 no_rotate no_reflect no_shear #
aggregate_secndry_attribute-aggregate_geombuild_base_attribute-aggregate_body_attribute-attrib_HH-attrib $-1 $26 $8 $0 F #
face $27 $28 $29 $9 $-1 $30 reversed single #
shell $-1 $-1 $-1 $31 $-1 $11 #
model_id-kcp-attrib $-1 $-1 $13 $6 1 1017635163 70 -549060605 1 #
shell $-1 $-1 $-1 $32 $-1 $14 #
model_id-kcp-attrib $-1 $-1 $16 $7 1 1017635163 100 -547094524 1 #
shell $-1 $-1 $-1 $33 $-1 $17 #
aggregate_sharped_attribute-aggregate_geombuild_base_attribute-aggregate_body_attribute-attrib_HH-attrib $-1 $34 $19 $0 F #
model_id-kcp-attrib $-1 $35 $-1 $20 1 1017635163 50 -550371327 2 #
face $36 $37 $38 $9 $-1 $39 forward single #
loop $40 $41 $42 $20 #
cone-surface $-1 0 0 0 1 0 -3.4914813388431298e-015 -1.047444401652939e-013 0 -30 1 I I 0 1 30 forward I I I I #
face $-1 $43 $44 $21 $-1 $45 forward single #
face $-1 $46 $47 $23 $-1 $48 forward single #
face $-1 $49 $50 $25 $-1 $51 reversed single #
aggregate_reblend_attribute-aggregate_geombuild_base_attribute-aggregate_body_attribute-attrib_HH-attrib $-1 $52 $26 $0 F #
attrib_hh_face_geombuild-attrib_entity_geombuild-individual_entity_attribute-attrib_HH-attrib $-1 $-1 $27 $20 F #
model_id-kcp-attrib $-1 $53 $-1 $28 1 1017635163 50 -550371327 3 #
face $54 $55 $56 $9 $-1 $57 forward single #
loop $-1 $58 $59 $28 #
cone-surface $-1 0 0 0 1 0 -3.4914813388431298e-015 -1.7457406694215649e-013 0 -50 1 I I 0 1 50 forward I I I I #
model_id-kcp-attrib $-1 $-1 $-1 $29 1 1017635163 50 -550371327 8 #
loop $60 $-1 $61 $20 #
coedge $62 $42 $42 $63 $64 reversed $29 $-1 #
face $-1 $65 $66 $21 $-1 $67 reversed single #
loop $-1 $-1 $68 $31 #
plane-surface $-1 0 0 50.000000000000178 0 0 1 1 0 0 forward_v I I I I #
face $-1 $69 $70 $23 $-1 $71 forward single #
loop $-1 $72 $73 $32 #
cone-surface $-1 0 0 0 0 0 1 30 0 0 1 I I 0 1 30 forward I I I I #
face $-1 $74 $75 $25 $-1 $51 reversed single #
loop $-1 $-1 $76 $33 #
cone-surface $-1 -50 0 1.7763568394002505e-013 -1 0 3.4914813388431298e-015 -1.7457406694215649e-013 0 -50 1 I I 0 1 50 forward I I I I #
aggregate_isospline_attribute-aggregate_geombuild_base_attribute-aggregate_body_attribute-attrib_HH-attrib $-1 $77 $34 $0 F #
attrib_hh_face_geombuild-attrib_entity_geombuild-individual_entity_attribute-attrib_HH-attrib $-1 $-1 $36 $28 F #
model_id-kcp-attrib $-1 $78 $-1 $37 1 1017635163 50 -550371327 6 #
face $79 $-1 $80 $9 $-1 $81 forward single #
loop $82 $83 $63 $37 #
plane-surface $-1 -50 0 1.7457406694215649e-013 -1 0 3.4914813388431298e-015 3.4914813388431298e-015 0 1 forward_v I I I I #
loop $-1 $-1 $84 $28 #
coedge $85 $59 $59 $86 $87 reversed $38 $-1 #
model_id-kcp-attrib $-1 $-1 $-1 $41 1 1017635163 50 -550371327 9 #
coedge $88 $61 $61 $89 $90 reversed $41 $-1 #
attrib_hh_coedge_geombuild-attrib_entity_geombuild-individual_entity_attribute-attrib_HH-attrib $-1 $-1 $-1 $42 F #
coedge $91 $63 $63 $42 $64 forward $56 $-1 #
edge $92 $93 0 $93 6.2831853071795862 $63 $94 forward 7 unknown #
face $-1 $95 $96 $21 $-1 $97 reversed single #
loop $-1 $-1 $98 $43 #
plane-surface $-1 0 0 -50.000000000000178 0 0 1 1 0 0 forward_v I I I I #
coedge $-1 $99 $100 $101 $102 forward $44 $-1 #
face $-1 $-1 $103 $23 $-1 $104 forward single #
loop $-1 $-1 $105 $46 #
plane-surface $-1 0 0 -50.000000000000092 0 0 -1 -1 0 0 forward_v I I I I #
loop $-1 $-1 $106 $32 #
coedge $-1 $73 $73 $105 $107 reversed $47 $-1 #
face $-1 $108 $109 $25 $-1 $51 reversed single #
loop $-1 $-1 $110 $49 #
coedge $-1 $111 $112 $113 $114 reversed $50 $-1 #
aggregate_analytic_solver_attribute-aggregate_geombuild_base_attribute-aggregate_body_attribute-attrib_HH-attrib $-1 $115 $52 $0 F #
model_id-kcp-attrib $-1 $116 $54 $37 1 1017635163 50 -550371327 4 #
model_id-kcp-attrib $-1 $117 $-1 $55 1 1017635163 50 -550371327 7 #
loop $118 $119 $89 $55 #
plane-surface $-1 50 0 -1.7457406694215649e-013 1 0 -3.4914813388431298e-015 -3.4914813388431298e-015 0 -1 forward_v I I I I #
model_id-kcp-attrib $-1 $-1 $-1 $56 1 1017635163 50 -550371327 10 #
loop $-1 $-1 $86 $37 #
coedge $120 $84 $84 $121 $122 reversed $58 $-1 #
attrib_hh_coedge_geombuild-attrib_entity_geombuild-individual_entity_attribute-attrib_HH-attrib $-1 $-1 $-1 $59 F #
coedge $123 $86 $86 $59 $87 forward $83 $-1 #
edge $124 $125 0 $125 6.2831853071795862 $86 $126 forward 7 unknown #
attrib_hh_coedge_geombuild-attrib_entity_geombuild-individual_entity_attribute-attrib_HH-attrib $-1 $-1 $-1 $61 F #
coedge $127 $89 $89 $61 $90 forward $80 $-1 #
edge $128 $129 0 $129 6.2831853071795862 $89 $130 forward 7 unknown #
attrib_hh_coedge_geombuild-attrib_entity_geombuild-individual_entity_attribute-attrib_HH-attrib $-1 $-1 $-1 $63 F #
attrib_edge_convexity-kcp-attrib $-1 $131 $-1 $64 1 #
vertex $132 $64 $133 #
ellipse-curve $-1 -50 0 1.7457406694215649e-013 1 0 -3.4914813388431298e-015 -1.047444401652939e-013 0 -30 1 I I #
face $134 $135 $136 $21 $-1 $137 reversed single #
loop $-1 $-1 $138 $65 #
plane-surface $-1 0 -50 0 0 1 0 0 0 1 forward_v I I I I #
coedge $-1 $139 $140 $141 $142 forward $66 $-1 #
coedge $-1 $143 $68 $144 $145 forward $44 $-1 #
coedge $-1 $68 $143 $146 $147 forward $44 $-1 #
coedge $-1 $148 $149 $68 $102 reversed $150 $-1 #
edge $-1 $151 -50 $152 50 $101 $153 forward 7 unknown #
loop $-1 $-1 $154 $69 #
plane-surface $-1 0 0 50.000000000000092 0 0 1 1 0 0 forward_v I I I I #
coedge $-1 $105 $105 $73 $107 forward $70 $-1 #
coedge $-1 $106 $106 $154 $155 reversed $72 $-1 #
edge $-1 $156 0 $156 6.2831853071795862 $105 $157 forward 7 unknown #
face $-1 $158 $159 $25 $-1 $51 reversed single #
loop $-1 $-1 $160 $74 #
coedge $-1 $161 $162 $163 $164 reversed $75 $-1 #
coedge $-1 $165 $76 $166 $167 forward $50 $-1 #
coedge $-1 $76 $165 $168 $169 reversed $50 $-1 #
coedge $-1 $170 $171 $76 $114 forward $172 $-1 #
edge $-1 $173 -3.1415926535897931 $174 -1.5707963267948966 $113 $175 forward 7 unknown #
aggregate_geombuild_attribute-aggregate_geombuild_base_attribute-aggregate_body_attribute-attrib_HH-attrib $-1 $176 $77 $0 #
attrib_hh_face_geombuild-attrib_entity_geombuild-individual_entity_attribute-attrib_HH-attrib $-1 $-1 $78 $37 F #
model_id-kcp-attrib $-1 $177 $79 $55 1 1017635163 50 -550371327 5 #
model_id-kcp-attrib $-1 $-1 $-1 $80 1 1017635163 50 -550371327 11 #
loop $-1 $-1 $121 $55 #
attrib_hh_coedge_geombuild-attrib_entity_geombuild-individual_entity_attribute-attrib_HH-attrib $-1 $-1 $-1 $84 F #
coedge $178 $121 $121 $84 $122 forward $119 $-1 #
edge $179 $180 0 $180 6.2831853071795862 $121 $181 forward 7 unknown #
attrib_hh_coedge_geombuild-attrib_entity_geombuild-individual_entity_attribute-attrib_HH-attrib $-1 $-1 $-1 $86 F #
attrib_edge_convexity-kcp-attrib $-1 $182 $-1 $87 1 #
vertex $183 $87 $184 #
ellipse-curve $-1 -50 0 1.7457406694215649e-013 -1 0 3.4914813388431298e-015 -1.7457406694215649e-013 0 -50 1 I I #
attrib_hh_coedge_geombuild-attrib_entity_geombuild-individual_entity_attribute-attrib_HH-attrib $-1 $-1 $-1 $89 F #
attrib_edge_convexity-kcp-attrib $-1 $185 $-1 $90 1 #
vertex $186 $90 $187 #
ellipse-curve $-1 50 0 -1.7457406694215649e-013 -1 0 3.4914813388431298e-015 -1.047444401652939e-013 0 -30 1 I I #
convexity-sys-attrib $-1 $188 $92 $64 #
model_id-kcp-attrib $-1 $189 $-1 $93 1 1017635163 50 -550371327 12 #
point $-1 -50.000000000000107 0 -29.999999999999826 #
model_id-kcp-attrib $-1 $-1 $-1 $95 1 1017635163 50 -550371326 2 #
face $-1 $190 $191 $21 $-1 $192 reversed single #
loop $-1 $-1 $193 $95 #
plane-surface $-1 -50.000000000000178 0 0 1 0 0 0 0 -1 forward_v I I I I #
coedge $-1 $194 $146 $195 $196 forward $96 $-1 #
coedge $-1 $197 $98 $194 $198 forward $66 $-1 #
coedge $-1 $98 $197 $199 $200 forward $66 $-1 #
coedge $-1 $149 $148 $98 $142 reversed $150 $-1 #
edge $-1 $201 -50 $202 50 $141 $203 forward 7 unknown #
coedge $-1 $100 $99 $204 $205 forward $44 $-1 #
coedge $-1 $206 $207 $99 $145 reversed $191 $-1 #
edge $-1 $152 -50.000000000000178 $208 50.000000000000178 $144 $209 forward 7 unknown #
coedge $-1 $138 $210 $100 $147 reversed $96 $-1 #
edge $-1 $211 -50.000000000000178 $151 50.000000000000178 $146 $212 forward 7 unknown #
coedge $-1 $141 $101 $210 $213 forward $150 $-1 #
coedge $-1 $101 $141 $206 $214 reversed $150 $-1 #
loop $-1 $-1 $148 $190 #
vertex $-1 $102 $215 #
vertex $-1 $102 $216 #
straight-curve $-1 50.000000000000178 0 50.000000000000178 0 1 0 I I #
coedge $-1 $154 $154 $106 $155 forward $103 $-1 #
edge $-1 $217 0 $217 6.2831853071795862 $154 $218 forward 7 unknown #
vertex $-1 $107 $219 #
ellipse-curve $-1 0 0 -50.000000000000092 0 0 -1 30 0 0 1 I I #
face $-1 $220 $221 $25 $-1 $222 reversed single #
loop $-1 $-1 $223 $108 #
coedge $-1 $224 $225 $223 $226 forward $109 $-1 #
coedge $-1 $227 $110 $228 $229 reversed $75 $-1 #
coedge $-1 $110 $227 $112 $169 forward $75 $-1 #
coedge $-1 $230 $231 $110 $164 forward $232 $-1 #
edge $-1 $233 0 $234 1.5707963267948966 $163 $235 forward 7 unknown #
coedge $-1 $112 $111 $236 $237 reversed $50 $-1 #
coedge $-1 $225 $224 $238 $167 reversed $109 $-1 #
edge $-1 $173 -100 $239 3.4816594052244909e-013 $238 $240 forward 7 unknown #
coedge $-1 $241 $242 $243 $169 forward $244 $-1 #
edge $-1 $174 -100.00000000000017 $234 1.7763568394002505e-013 $168 $245 forward 7 unknown #
coedge $-1 $171 $113 $242 $246 reversed $172 $-1 #
coedge $-1 $113 $170 $247 $248 reversed $172 $-1 #
loop $-1 $-1 $113 $249 #
vertex $-1 $248 $250 #
vertex $-1 $251 $252 #
ellipse-curve $-1 50.000000000000171 0 -1.7151244994428854e-013 -1 0 0 -1.7457406694215649e-013 0 -50 1 I I #
aggregate_stitch_attribute-aggregate_stitch_base_attribute-aggregate_body_attribute-attrib_HH-attrib $-1 $253 $115 $0 F #
attrib_hh_face_geombuild-attrib_entity_geombuild-individual_entity_attribute-attrib_HH-attrib $-1 $-1 $117 $55 F #
attrib_hh_coedge_geombuild-attrib_entity_geombuild-individual_entity_attribute-attrib_HH-attrib $-1 $-1 $-1 $121 F #
attrib_hh_edge_geombuild-attrib_entity_geombuild-individual_entity_attribute-attrib_HH-attrib $-1 $-1 $-1 $122 F #
vertex $254 $122 $255 #
ellipse-curve $-1 50 0 -1.7457406694215649e-013 1 0 -3.4914813388431298e-015 -1.7457406694215649e-013 0 -50 1 I I #
convexity-sys-attrib $-1 $256 $124 $87 #
attrib_hh_vertex_geombuild-attrib_entity_geombuild-individual_entity_attribute-attrib_HH-attrib $-1 $-1 $-1 $125 F #
point $-1 -50.000000000000178 0 -49.999999999999822 #
convexity-sys-attrib $-1 $257 $128 $90 #
model_id-kcp-attrib $-1 $258 $-1 $129 1 1017635163 50 -550371327 13 #
point $-1 49.999999999999893 0 -30.000000000000174 #
attrib_hh_edge_geombuild-attrib_entity_geombuild-individual_entity_attribute-attrib_HH-attrib $-1 $-1 $131 $64 F #
attrib_hh_vertex_geombuild-attrib_entity_geombuild-individual_entity_attribute-attrib_HH-attrib $-1 $-1 $132 $93 F #
face $259 $-1 $150 $21 $-1 $260 reversed single #
loop $-1 $-1 $206 $135 #
plane-surface $-1 0 50 0 0 -1 0 0 0 -1 forward_v I I I I #
coedge $-1 $261 $204 $207 $262 forward $136 $-1 #
coedge $-1 $210 $138 $139 $198 reversed $96 $-1 #
coedge $-1 $204 $261 $138 $196 reversed $136 $-1 #
edge $-1 $211 -50.000000000000178 $263 50.000000000000178 $195 $264 forward 7 unknown #
coedge $-1 $140 $139 $261 $265 forward $66 $-1 #
edge $-1 $202 -50.000000000000178 $263 50.000000000000178 $194 $266 forward 7 unknown #
coedge $-1 $207 $206 $140 $200 reversed $191 $-1 #
edge $-1 $267 -50.000000000000178 $201 50.000000000000178 $199 $268 forward 7 unknown #
vertex $-1 $142 $269 #
vertex $-1 $213 $270 #
straight-curve $-1 50.000000000000178 0 -50.000000000000178 0 -1 0 I I #
coedge $-1 $193 $195 $143 $205 reversed $136 $-1 #
edge $-1 $208 -50 $211 50 $204 $271 forward 7 unknown #
coedge $-1 $199 $144 $149 $214 forward $191 $-1 #
coedge $-1 $144 $199 $193 $262 reversed $191 $-1 #
vertex $-1 $145 $272 #
straight-curve $-1 0 50 50.000000000000178 -1 0 0 I I #
coedge $-1 $146 $194 $148 $213 reversed $96 $-1 #
vertex $-1 $205 $273 #
straight-curve $-1 0 -50 50.000000000000178 1 0 0 I I #
edge $-1 $151 -50.000000000000178 $202 50.000000000000178 $148 $274 forward 7 unknown #
edge $-1 $152 -50.000000000000178 $201 50.000000000000178 $149 $275 forward 7 unknown #
point $-1 50.000000000000178 -50 50.000000000000178 #
point $-1 50.000000000000178 50 50.000000000000178 #
vertex $-1 $155 $276 #
ellipse-curve $-1 0 0 50.000000000000092 0 0 1 30 0 0 1 I I #
point $-1 30 0 -50.000000000000092 #
face $-1 $277 $278 $25 $-1 $279 forward single #
loop $-1 $-1 $243 $158 #
plane-surface $-1 0 50 0 0 -1 0 0 0 -1 forward_v I I I I #
coedge $-1 $280 $281 $282 $226 reversed $159 $-1 #
coedge $-1 $166 $160 $283 $284 reversed $109 $-1 #
coedge $-1 $160 $166 $285 $286 reversed $109 $-1 #
edge $-1 $287 -100.00000000000017 $288 1.7763568394002505e-013 $282 $289 forward 7 unknown #
coedge $-1 $162 $161 $290 $291 reversed $75 $-1 #
coedge $-1 $292 $293 $294 $229 forward $295 $-1 #
edge $-1 $296 -100.00000000000033 $233 7.1054273576010019e-015 $228 $297 forward 7 unknown #
coedge $-1 $231 $163 $298 $299 forward $232 $-1 #
coedge $-1 $163 $230 $292 $300 reversed $232 $-1 #
loop $-1 $-1 $163 $301 #
vertex $-1 $300 $302 #
vertex $-1 $299 $303 #
ellipse-curve $-1 -50.000000000000178 0 1.7763568394002568e-013 1 0 0 -1.7457406694215649e-013 0 -50 1 I I #
coedge $-1 $304 $305 $165 $237 forward $306 $-1 #
edge $-1 $234 1.5707963267948966 $239 3.1415926535897931 $236 $235 forward 7 unknown #
coedge $-1 $307 $308 $309 $167 forward $278 $-1 #
vertex $-1 $310 $311 #
straight-curve $-1 -49.999999999999829 0 50.000000000000178 -1 0 3.4914813388431298e-015 I I #
coedge $-1 $312 $168 $305 $313 reversed $244 $-1 #
coedge $-1 $168 $312 $170 $246 forward $244 $-1 #
coedge $-1 $314 $298 $162 $169 reversed $221 $-1 #
loop $-1 $-1 $168 $315 #
straight-curve $-1 -50 50 1.7763568394002505e-013 -1 0 3.4914813388431298e-015 I I #
edge $-1 $316 -50.000000000000178 $174 1.7151244994428854e-013 $170 $317 forward 7 unknown #
coedge $-1 $318 $309 $171 $248 forward $319 $-1 #
edge $-1 $173 0 $316 50 $171 $320 forward 7 unknown #
face $-1 $321 $172 $25 $-1 $322 reversed single #
point $-1 50.000000000000171 0 50.000000000000178 #
edge $-1 $174 1.7151244994428854e-013 $323 50.000000000000178 $324 $317 forward 7 unknown #
point $-1 50.000000000000171 50 -1.7151244994428854e-013 #
aggregate_simgeom_attribute-aggregate_simgeom_base_attribute-aggregate_body_attribute-attrib_HH-attrib $-1 $-1 $176 $0 F #
attrib_hh_vertex_geombuild-attrib_entity_geombuild-individual_entity_attribute-attrib_HH-attrib $-1 $-1 $-1 $180 F #
point $-1 49.999999999999822 0 -50.000000000000178 #
attrib_hh_edge_geombuild-attrib_entity_geombuild-individual_entity_attribute-attrib_HH-attrib $-1 $-1 $182 $87 F #
attrib_hh_edge_geombuild-attrib_entity_geombuild-individual_entity_attribute-attrib_HH-attrib $-1 $-1 $185 $90 F #
attrib_hh_vertex_geombuild-attrib_entity_geombuild-individual_entity_attribute-attrib_HH-attrib $-1 $-1 $186 $129 F #
model_id-kcp-attrib $-1 $-1 $-1 $190 1 1017635163 50 -550371326 3 #
plane-surface $-1 50.000000000000178 0 0 -1 0 0 0 0 1 forward_v I I I I #
coedge $-1 $195 $193 $197 $265 reversed $136 $-1 #
edge $-1 $208 -50.000000000000178 $267 50.000000000000178 $207 $325 forward 7 unknown #
vertex $-1 $265 $326 #
straight-curve $-1 -50.000000000000178 -50 0 0 0 -1 I I #
edge $-1 $263 -50 $267 50 $261 $327 forward 7 unknown #
straight-curve $-1 0 -50 -50.000000000000178 -1 0 0 I I #
vertex $-1 $200 $328 #
straight-curve $-1 0 50 -50.000000000000178 1 0 0 I I #
point $-1 50.000000000000178 50 -50.000000000000178 #
point $-1 50.000000000000178 -50 -50.000000000000178 #
straight-curve $-1 -50.000000000000178 0 50.000000000000178 0 -1 0 I I #
point $-1 -50.000000000000178 50 50.000000000000178 #
point $-1 -50.000000000000178 -50 50.000000000000178 #
straight-curve $-1 50.000000000000178 -50 0 0 0 -1 I I #
straight-curve $-1 50.000000000000178 50 0 0 0 -1 I I #
point $-1 30 0 50.000000000000092 #
face $-1 $301 $329 $25 $-1 $330 reversed single #
loop $-1 $-1 $238 $220 #
plane-surface $-1 0 0 50.000000000000178 0 0 1 1 0 0 forward_v I I I I #
coedge $-1 $331 $223 $332 $333 reversed $159 $-1 #
coedge $-1 $223 $331 $334 $335 reversed $159 $-1 #
coedge $-1 $336 $337 $338 $226 forward $339 $-1 #
coedge $-1 $340 $341 $224 $284 forward $342 $-1 #
edge $-1 $239 -3.1415926535897931 $288 -1.5707963267948966 $283 $235 forward 7 unknown #
coedge $-1 $343 $344 $225 $286 forward $345 $-1 #
edge $-1 $287 1.5707963267948966 $173 3.1415926535897931 $285 $175 forward 7 unknown #
vertex $-1 $346 $347 #
vertex $-1 $348 $349 #
straight-curve $-1 -50 -50 1.7763568394002505e-013 -1 0 3.4914813388431298e-015 I I #
coedge $-1 $350 $324 $227 $291 forward $351 $-1 #
edge $-1 $174 -1.5707963267948966 $296 0 $290 $175 forward 7 unknown #
coedge $-1 $352 $228 $231 $300 forward $295 $-1 #
coedge $-1 $228 $352 $350 $353 forward $295 $-1 #
coedge $-1 $354 $355 $331 $229 reversed $356 $-1 #
loop $-1 $-1 $228 $357 #
vertex $-1 $358 $359 #
straight-curve $-1 -50.000000000000171 0 -50.000000000000178 -1 0 3.4914813388431298e-015 I I #
coedge $-1 $243 $360 $230 $299 reversed $221 $-1 #
edge $-1 $234 -1.7763568394002568e-013 $361 50.000000000000178 $298 $362 forward 7 unknown #
edge $-1 $233 0 $361 50 $231 $363 forward 7 unknown #
face $-1 $364 $232 $25 $-1 $330 reversed single #
point $-1 -50.000000000000178 0 -50.000000000000178 #
point $-1 -50.000000000000178 50 1.7763568394002568e-013 #
coedge $-1 $305 $236 $365 $366 reversed $306 $-1 #
coedge $-1 $236 $304 $241 $313 forward $306 $-1 #
loop $-1 $-1 $236 $364 #
coedge $-1 $367 $238 $341 $310 forward $278 $-1 #
coedge $-1 $238 $367 $343 $368 forward $278 $-1 #
coedge $-1 $247 $365 $111 $167 reversed $319 $-1 #
edge $-1 $239 0 $369 50 $341 $370 forward 7 unknown #
point $-1 -50.000000000000178 0 50.000000000000178 #
coedge $-1 $242 $241 $318 $371 reversed $244 $-1 #
edge $-1 $372 -50.000000000000178 $234 -1.7763568394002568e-013 $241 $362 forward 7 unknown #
coedge $-1 $360 $243 $324 $251 forward $221 $-1 #
face $-1 $-1 $244 $25 $-1 $222 reversed single #
vertex $-1 $248 $373 #
straight-curve $-1 50.000000000000178 50 0 0 0 -1 I I #
coedge $-1 $365 $247 $312 $371 forward $319 $-1 #
loop $-1 $-1 $309 $374 #
straight-curve $-1 50.000000000000178 0 50.000000000000178 0 1 0 I I #
face $-1 $375 $351 $25 $-1 $322 reversed single #
plane-surface $-1 50.000000000000178 0 0 -1 0 0 0 0 1 forward_v I I I I #
vertex $-1 $353 $376 #
coedge $-1 $290 $350 $314 $251 reversed $351 $-1 #
straight-curve $-1 -50.000000000000178 50 0 0 0 -1 I I #
point $-1 -50.000000000000178 -50 -50.000000000000178 #
straight-curve $-1 -50.000000000000178 0 -50.000000000000178 0 1 0 I I #
point $-1 -50.000000000000178 50 -50.000000000000178 #
loop $-1 $-1 $334 $277 #
plane-surface $-1 -50.000000000000178 0 0 1 0 0 0 0 -1 forward_v I I I I #
coedge $-1 $281 $280 $161 $229 forward $159 $-1 #
coedge $-1 $377 $378 $280 $333 forward $379 $-1 #
edge $-1 $296 0 $287 1.5707963267948966 $332 $175 forward 7 unknown #
coedge $-1 $380 $381 $281 $335 forward $329 $-1 #
edge $-1 $288 -1.5707963267948966 $233 0 $334 $235 forward 7 unknown #
coedge $-1 $382 $282 $381 $348 forward $339 $-1 #
coedge $-1 $282 $382 $377 $346 reversed $339 $-1 #
coedge $-1 $383 $384 $160 $226 reversed $385 $-1 #
loop $-1 $-1 $282 $386 #
coedge $-1 $341 $283 $384 $387 reversed $342 $-1 #
coedge $-1 $283 $340 $307 $310 reversed $342 $-1 #
loop $-1 $-1 $283 $388 #
coedge $-1 $344 $285 $308 $368 reversed $345 $-1 #
coedge $-1 $285 $343 $383 $389 forward $345 $-1 #
loop $-1 $-1 $285 $390 #
edge $-1 $287 1.7151244994428854e-013 $391 50.000000000000178 $377 $392 forward 7 unknown #
point $-1 50.000000000000171 -50 -1.7151244994428854e-013 #
edge $-1 $288 -1.7763568394002568e-013 $393 50.000000000000178 $381 $394 forward 7 unknown #
point $-1 -50.000000000000178 -50 1.7763568394002568e-013 #
coedge $-1 $324 $290 $293 $353 reversed $351 $-1 #
loop $-1 $-1 $290 $321 #
coedge $-1 $293 $292 $360 $395 forward $295 $-1 #
edge $-1 $323 -50 $296 0 $350 $396 forward 7 unknown #
coedge $-1 $397 $294 $378 $358 forward $356 $-1 #
coedge $-1 $294 $397 $380 $398 forward $356 $-1 #
loop $-1 $-1 $294 $399 #
face $-1 $386 $295 $25 $-1 $400 reversed single #
edge $-1 $296 0 $391 50 $378 $396 forward 7 unknown #
point $-1 50.000000000000156 0 -50.000000000000178 #
coedge $-1 $298 $314 $352 $395 reversed $221 $-1 #
vertex $-1 $395 $401 #
straight-curve $-1 -50.000000000000178 50 0 0 0 -1 I I #
straight-curve $-1 -50.000000000000178 0 -50.000000000000178 0 1 0 I I #
face $-1 $388 $306 $25 $-1 $330 reversed single #
coedge $-1 $309 $318 $304 $366 forward $319 $-1 #
edge $-1 $372 -50 $239 0 $304 $370 forward 7 unknown #
coedge $-1 $308 $307 $402 $403 forward $278 $-1 #
edge $-1 $404 -50 $173 0 $343 $320 forward 7 unknown #
vertex $-1 $310 $405 #
straight-curve $-1 -50.000000000000178 0 50.000000000000178 0 -1 0 I I #
edge $-1 $316 -50.000000000000178 $372 50.000000000000178 $312 $406 forward 7 unknown #
vertex $-1 $371 $407 #
point $-1 50.000000000000178 50 50.000000000000178 #
face $-1 $357 $319 $25 $-1 $279 forward single #
face $-1 $408 $379 $25 $-1 $322 reversed single #
point $-1 50.000000000000178 50 -50.000000000000178 #
coedge $-1 $378 $332 $337 $346 forward $379 $-1 #
coedge $-1 $332 $377 $354 $358 reversed $379 $-1 #
loop $-1 $-1 $332 $375 #
coedge $-1 $381 $334 $355 $398 reversed $329 $-1 #
coedge $-1 $334 $380 $336 $348 reversed $329 $-1 #
coedge $-1 $337 $336 $397 $409 reversed $339 $-1 #
coedge $-1 $402 $338 $344 $389 reversed $385 $-1 #
coedge $-1 $338 $402 $340 $387 forward $385 $-1 #
loop $-1 $-1 $338 $408 #
face $-1 $315 $339 $25 $-1 $410 reversed single #
edge $-1 $369 -50.000000000000178 $288 -1.7763568394002568e-013 $340 $394 forward 7 unknown #
face $-1 $399 $342 $25 $-1 $330 reversed single #
edge $-1 $404 -50.000000000000178 $287 1.7151244994428854e-013 $344 $392 forward 7 unknown #
face $-1 $249 $345 $25 $-1 $322 reversed single #
vertex $-1 $346 $411 #
straight-curve $-1 50.000000000000178 -50 0 0 0 -1 I I #
vertex $-1 $398 $412 #
straight-curve $-1 -50.000000000000178 -50 0 0 0 -1 I I #
edge $-1 $361 -50.000000000000178 $323 50.000000000000178 $360 $413 forward 7 unknown #
straight-curve $-1 50.000000000000178 0 -50.000000000000178 0 -1 0 I I #
coedge $-1 $355 $354 $382 $409 forward $356 $-1 #
edge $-1 $393 -50 $233 0 $380 $363 forward 7 unknown #
face $-1 $390 $356 $25 $-1 $400 reversed single #
plane-surface $-1 0 0 -50.000000000000178 0 0 1 1 0 0 forward_v I I I I #
point $-1 -50.000000000000178 50 -50.000000000000178 #
coedge $-1 $384 $383 $367 $403 reversed $385 $-1 #
edge $-1 $369 -50.000000000000178 $404 50.000000000000178 $402 $414 forward 7 unknown #
vertex $-1 $368 $415 #
point $-1 -50.000000000000178 -50 50.000000000000178 #
straight-curve $-1 0 50 50.000000000000178 -1 0 0 I I #
point $-1 -50.000000000000178 50 50.000000000000178 #
face $-1 $374 $385 $25 $-1 $410 reversed single #
edge $-1 $391 -50.000000000000178 $393 50.000000000000178 $382 $416 forward 7 unknown #
plane-surface $-1 0 -50 0 0 1 0 0 0 1 forward_v I I I I #
point $-1 50.000000000000178 -50 -50.000000000000178 #
point $-1 -50.000000000000178 -50 -50.000000000000178 #
straight-curve $-1 0 50 -50.000000000000178 1 0 0 I I #
straight-curve $-1 0 -50 50.000000000000178 1 0 0 I I #
point $-1 50.000000000000178 -50 50.000000000000178 #
straight-curve $-1 0 -50 -50.000000000000178 -1 0 0 I I #
End-of-ACIS-data 