105 44 1 0                              
body $-1 $1 $-1 $2 #
lump $-1 $-1 $3 $0 #
transform $-1 -3.49148133884313e-15 0 -1 0 1 0 1 0 -3.49148133884313e-15 0 0 0 1 1 0 0 #
shell $-1 $-1 $-1 $4 $1 #
face $-1 $5 $6 $3 $-1 $7 reversed single #
face $-1 $8 $9 $3 $-1 $10 forward single #
loop $-1 $11 $12 $4 #
cone-surface $-1 0 0 0 0 0 1 30 0 0 1 0 1 0 #
face $-1 $13 $14 $3 $-1 $15 forward single #
loop $-1 $16 $17 $5 #
cone-surface $-1 0 0 0 0 0 1 50 0 0 1 0 1 0 #
loop $-1 $-1 $18 $4 #
coedge $-1 $12 $12 $19 $20 1 $6 $-1 #
face $-1 $-1 $21 $3 $-1 $22 forward single #
loop $-1 $23 $19 $8 #
plane-surface $-1 0 0 -50 0 0 -1 -1 0 0 0 #
loop $-1 $-1 $24 $5 #
coedge $-1 $17 $17 $25 $26 1 $9 $-1 #
coedge $-1 $18 $18 $27 $28 1 $11 $-1 #
coedge $-1 $19 $19 $12 $20 0 $14 $-1 #
edge $-1 $29 $29 $19 $30 0 #
loop $-1 $31 $27 $13 #
plane-surface $-1 0 0 50 0 0 1 1 0 0 0 #
loop $-1 $-1 $25 $8 #
coedge $-1 $24 $24 $32 $33 1 $16 $-1 #
coedge $-1 $25 $25 $17 $26 0 $23 $-1 #
edge $-1 $34 $34 $25 $35 0 #
coedge $-1 $27 $27 $18 $28 0 $21 $-1 #
edge $-1 $36 $36 $27 $37 0 #
vertex $-1 $20 $38 #
ellipse-curve $-1 0 0 -50 -0 -0 1 30 0 0 1 #
loop $-1 $-1 $32 $13 #
coedge $-1 $32 $32 $24 $33 0 $31 $-1 #
edge $-1 $39 $39 $32 $40 0 #
vertex $-1 $26 $41 #
ellipse-curve $-1 0 0 -50 0 0 -1 50 0 0 1 #
vertex $-1 $28 $42 #
ellipse-curve $-1 0 0 50 -0 -0 -1 30 0 0 1 #
point $-1 30 0 -50 #
vertex $-1 $33 $43 #
ellipse-curve $-1 0 0 50 0 0 1 50 0 0 1 #
point $-1 50 0 -50 #
point $-1 30 0 50 #
point $-1 50 0 50 #
