600 0 2 0           
24 FBMach with ACIS - 6.0.3 13 ACIS 6.0.3 NT 24 Tue May 22 12:25:20 2001 
1 9.9999999999999995e-007 1e-010 
body $2 $3 $-1 $4 #
bdycol-kcp $-1 1 3 $5 $6 $7 #
model_id-kcp-attrib $-1 $-1 $-1 $0 1 990548719 50 -1171128319 1 #
lump $-1 $-1 $8 $0 #
transform $-1 -3.4914813388431298e-015 0 -1 0 1 0 1 0 -3.4914813388431298e-015 0 0 0 1 rotate no_reflect no_shear #
body $9 $10 $-1 $11 #
body $12 $13 $-1 $14 #
body $15 $16 $-1 $17 #
shell $-1 $-1 $-1 $18 $-1 $3 #
model_id-kcp-attrib $-1 $-1 $-1 $5 1 990548719 50 -1171128318 1 #
lump $-1 $-1 $19 $5 #
transform $-1 1 0 0 0 1 0 0 0 1 0 0 0 1 no_rotate no_reflect no_shear #
rgb_color-st-attrib $-1 $20 $-1 $6 0.5 1 1 #
lump $-1 $-1 $21 $6 #
transform $-1 -3.8285889215894375e-016 0 -1 0 1 0 1 0 -3.8285889215894375e-016 0 0 0 1 rotate no_reflect no_shear #
rgb_color-st-attrib $-1 $22 $-1 $7 0.5 1 1 #
lump $-1 $-1 $23 $7 #
transform $-1 1 0 0 0 1 0 0 0 1 0 0 0 1 no_rotate no_reflect no_shear #
face $24 $25 $26 $8 $-1 $27 reversed single #
shell $-1 $-1 $-1 $28 $-1 $10 #
model_id-kcp-attrib $-1 $-1 $12 $6 1 990548719 70 -1169817597 1 #
shell $-1 $-1 $-1 $29 $-1 $13 #
model_id-kcp-attrib $-1 $-1 $15 $7 1 990548719 100 -1167851516 1 #
shell $-1 $-1 $-1 $30 $-1 $16 #
model_id-kcp-attrib $-1 $-1 $-1 $18 1 990548719 50 -1171128319 2 #
face $31 $32 $33 $8 $-1 $34 forward single #
loop $35 $36 $37 $18 #
cone-surface $-1 0 0 0 0 0 1 30 0 0 1 I I 0 1 30 forward I I I I #
face $-1 $38 $39 $19 $-1 $40 forward single #
face $-1 $41 $42 $21 $-1 $43 forward single #
face $-1 $44 $45 $23 $-1 $46 reversed single #
model_id-kcp-attrib $-1 $-1 $-1 $25 1 990548719 50 -1171128319 3 #
face $47 $48 $49 $8 $-1 $50 forward single #
loop $-1 $51 $52 $25 #
cone-surface $-1 0 0 0 0 0 1 50 0 0 1 I I 0 1 50 forward I I I I #
model_id-kcp-attrib $-1 $-1 $-1 $26 1 990548719 50 -1171128319 8 #
loop $53 $-1 $54 $18 #
coedge $-1 $37 $37 $55 $56 reversed $26 $-1 #
face $-1 $57 $58 $19 $-1 $59 reversed single #
loop $-1 $-1 $60 $28 #
plane-surface $-1 0 0 50.000000000000178 0 0 1 1 0 0 forward_v I I I I #
face $-1 $61 $62 $21 $-1 $63 forward single #
loop $-1 $64 $65 $29 #
cone-surface $-1 0 0 0 0 0 1 30 0 0 1 I I 0 1 30 forward I I I I #
face $-1 $66 $67 $23 $-1 $46 reversed single #
loop $-1 $-1 $68 $30 #
cone-surface $-1 -50 0 1.7763568394002505e-013 -1 0 3.4914813388431298e-015 -1.7457406694215649e-013 0 -50 1 I I 0 1 50 forward I I I I #
model_id-kcp-attrib $-1 $69 $-1 $32 1 990548719 50 -1171128319 6 #
face $70 $-1 $71 $8 $-1 $72 forward single #
loop $73 $74 $55 $32 #
plane-surface $-1 0 0 -50 0 0 -1 -1 0 0 forward_v I I I I #
loop $-1 $-1 $75 $25 #
coedge $-1 $52 $52 $76 $77 reversed $33 $-1 #
model_id-kcp-attrib $-1 $-1 $-1 $36 1 990548719 50 -1171128319 9 #
coedge $-1 $54 $54 $78 $79 reversed $36 $-1 #
coedge $-1 $55 $55 $37 $56 forward $49 $-1 #
edge $80 $81 0 $81 6.2831853071795862 $55 $82 forward 7 unknown #
face $-1 $83 $84 $19 $-1 $85 reversed single #
loop $-1 $-1 $86 $38 #
plane-surface $-1 0 0 -50.000000000000178 0 0 1 1 0 0 forward_v I I I I #
coedge $-1 $87 $88 $89 $90 forward $39 $-1 #
face $-1 $-1 $91 $21 $-1 $92 forward single #
loop $-1 $-1 $93 $41 #
plane-surface $-1 0 0 -50.000000000000092 0 0 -1 -1 0 0 forward_v I I I I #
loop $-1 $-1 $94 $29 #
coedge $-1 $65 $65 $93 $95 reversed $42 $-1 #
face $-1 $96 $97 $23 $-1 $46 reversed single #
loop $-1 $-1 $98 $44 #
coedge $-1 $99 $100 $101 $102 reversed $45 $-1 #
model_id-kcp-attrib $-1 $-1 $47 $32 1 990548719 50 -1171128319 4 #
model_id-kcp-attrib $-1 $103 $-1 $48 1 990548719 50 -1171128319 7 #
loop $104 $105 $78 $48 #
plane-surface $-1 0 0 50 0 0 1 1 0 0 forward_v I I I I #
model_id-kcp-attrib $-1 $-1 $-1 $49 1 990548719 50 -1171128319 10 #
loop $-1 $-1 $76 $32 #
coedge $-1 $75 $75 $106 $107 reversed $51 $-1 #
coedge $-1 $76 $76 $52 $77 forward $74 $-1 #
edge $108 $109 0 $109 6.2831853071795862 $76 $110 forward 7 unknown #
coedge $-1 $78 $78 $54 $79 forward $71 $-1 #
edge $111 $112 0 $112 6.2831853071795862 $78 $113 forward 7 unknown #
attrib_edge_convexity-kcp-attrib $-1 $114 $-1 $56 1 #
vertex $115 $56 $116 #
ellipse-curve $-1 0 0 -50 0 0 1 30 0 0 1 I I #
face $117 $118 $119 $19 $-1 $120 reversed single #
loop $-1 $-1 $121 $57 #
plane-surface $-1 0 -50 0 0 1 0 0 0 1 forward_v I I I I #
coedge $-1 $122 $123 $124 $125 forward $58 $-1 #
coedge $-1 $126 $60 $127 $128 forward $39 $-1 #
coedge $-1 $60 $126 $129 $130 forward $39 $-1 #
coedge $-1 $131 $132 $60 $90 reversed $133 $-1 #
edge $-1 $134 -50 $135 50 $89 $136 forward 7 unknown #
loop $-1 $-1 $137 $61 #
plane-surface $-1 0 0 50.000000000000092 0 0 1 1 0 0 forward_v I I I I #
coedge $-1 $93 $93 $65 $95 forward $62 $-1 #
coedge $-1 $94 $94 $137 $138 reversed $64 $-1 #
edge $-1 $139 0 $139 6.2831853071795862 $93 $140 forward 7 unknown #
face $-1 $141 $142 $23 $-1 $46 reversed single #
loop $-1 $-1 $143 $66 #
coedge $-1 $144 $145 $146 $147 reversed $67 $-1 #
coedge $-1 $148 $68 $149 $150 forward $45 $-1 #
coedge $-1 $68 $148 $151 $152 reversed $45 $-1 #
coedge $-1 $153 $154 $68 $102 forward $155 $-1 #
edge $-1 $156 -3.1415926535897931 $157 -1.5707963267948966 $101 $158 forward 7 unknown #
model_id-kcp-attrib $-1 $-1 $70 $48 1 990548719 50 -1171128319 5 #
model_id-kcp-attrib $-1 $-1 $-1 $71 1 990548719 50 -1171128319 11 #
loop $-1 $-1 $106 $48 #
coedge $-1 $106 $106 $75 $107 forward $105 $-1 #
edge $-1 $159 0 $159 6.2831853071795862 $106 $160 forward 7 unknown #
attrib_edge_convexity-kcp-attrib $-1 $161 $-1 $77 1 #
vertex $-1 $77 $162 #
ellipse-curve $-1 0 0 -50 0 0 -1 50 0 0 1 I I #
attrib_edge_convexity-kcp-attrib $-1 $163 $-1 $79 1 #
vertex $164 $79 $165 #
ellipse-curve $-1 0 0 50 0 0 -1 30 0 0 1 I I #
convexity-sys-attrib $-1 $-1 $80 $56 #
model_id-kcp-attrib $-1 $-1 $-1 $81 1 990548719 50 -1171128319 12 #
point $-1 30 0 -50 #
model_id-kcp-attrib $-1 $-1 $-1 $83 1 990548719 50 -1171128318 2 #
face $-1 $166 $167 $19 $-1 $168 reversed single #
loop $-1 $-1 $169 $83 #
plane-surface $-1 -50.000000000000178 0 0 1 0 0 0 0 -1 forward_v I I I I #
coedge $-1 $170 $129 $171 $172 forward $84 $-1 #
coedge $-1 $173 $86 $170 $174 forward $58 $-1 #
coedge $-1 $86 $173 $175 $176 forward $58 $-1 #
coedge $-1 $132 $131 $86 $125 reversed $133 $-1 #
edge $-1 $177 -50 $178 50 $124 $179 forward 7 unknown #
coedge $-1 $88 $87 $180 $181 forward $39 $-1 #
coedge $-1 $182 $183 $87 $128 reversed $167 $-1 #
edge $-1 $135 -50.000000000000178 $184 50.000000000000178 $127 $185 forward 7 unknown #
coedge $-1 $121 $186 $88 $130 reversed $84 $-1 #
edge $-1 $187 -50.000000000000178 $134 50.000000000000178 $129 $188 forward 7 unknown #
coedge $-1 $124 $89 $186 $189 forward $133 $-1 #
coedge $-1 $89 $124 $182 $190 reversed $133 $-1 #
loop $-1 $-1 $131 $166 #
vertex $-1 $90 $191 #
vertex $-1 $90 $192 #
straight-curve $-1 50.000000000000178 0 50.000000000000178 0 1 0 I I #
coedge $-1 $137 $137 $94 $138 forward $91 $-1 #
edge $-1 $193 0 $193 6.2831853071795862 $137 $194 forward 7 unknown #
vertex $-1 $95 $195 #
ellipse-curve $-1 0 0 -50.000000000000092 0 0 -1 30 0 0 1 I I #
face $-1 $196 $197 $23 $-1 $198 reversed single #
loop $-1 $-1 $199 $96 #
coedge $-1 $200 $201 $199 $202 forward $97 $-1 #
coedge $-1 $203 $98 $204 $205 reversed $67 $-1 #
coedge $-1 $98 $203 $100 $152 forward $67 $-1 #
coedge $-1 $206 $207 $98 $147 forward $208 $-1 #
edge $-1 $209 0 $210 1.5707963267948966 $146 $211 forward 7 unknown #
coedge $-1 $100 $99 $212 $213 reversed $45 $-1 #
coedge $-1 $201 $200 $214 $150 reversed $97 $-1 #
edge $-1 $156 -100 $215 3.4816594052244909e-013 $214 $216 forward 7 unknown #
coedge $-1 $217 $218 $219 $152 forward $220 $-1 #
edge $-1 $157 -100.00000000000017 $210 1.7763568394002505e-013 $151 $221 forward 7 unknown #
coedge $-1 $154 $101 $218 $222 reversed $155 $-1 #
coedge $-1 $101 $153 $223 $224 reversed $155 $-1 #
loop $-1 $-1 $101 $225 #
vertex $-1 $224 $226 #
vertex $-1 $227 $228 #
ellipse-curve $-1 50.000000000000171 0 -1.7151244994428854e-013 -1 0 0 -1.7457406694215649e-013 0 -50 1 I I #
vertex $-1 $107 $229 #
ellipse-curve $-1 0 0 50 0 0 1 50 0 0 1 I I #
convexity-sys-attrib $-1 $-1 $108 $77 #
point $-1 50 0 -50 #
convexity-sys-attrib $-1 $-1 $111 $79 #
model_id-kcp-attrib $-1 $-1 $-1 $112 1 990548719 50 -1171128319 13 #
point $-1 30 0 50 #
face $230 $-1 $133 $19 $-1 $231 reversed single #
loop $-1 $-1 $182 $118 #
plane-surface $-1 0 50 0 0 -1 0 0 0 -1 forward_v I I I I #
coedge $-1 $232 $180 $183 $233 forward $119 $-1 #
coedge $-1 $186 $121 $122 $174 reversed $84 $-1 #
coedge $-1 $180 $232 $121 $172 reversed $119 $-1 #
edge $-1 $187 -50.000000000000178 $234 50.000000000000178 $171 $235 forward 7 unknown #
coedge $-1 $123 $122 $232 $236 forward $58 $-1 #
edge $-1 $178 -50.000000000000178 $234 50.000000000000178 $170 $237 forward 7 unknown #
coedge $-1 $183 $182 $123 $176 reversed $167 $-1 #
edge $-1 $238 -50.000000000000178 $177 50.000000000000178 $175 $239 forward 7 unknown #
vertex $-1 $125 $240 #
vertex $-1 $189 $241 #
straight-curve $-1 50.000000000000178 0 -50.000000000000178 0 -1 0 I I #
coedge $-1 $169 $171 $126 $181 reversed $119 $-1 #
edge $-1 $184 -50 $187 50 $180 $242 forward 7 unknown #
coedge $-1 $175 $127 $132 $190 forward $167 $-1 #
coedge $-1 $127 $175 $169 $233 reversed $167 $-1 #
vertex $-1 $128 $243 #
straight-curve $-1 0 50 50.000000000000178 -1 0 0 I I #
coedge $-1 $129 $170 $131 $189 reversed $84 $-1 #
vertex $-1 $181 $244 #
straight-curve $-1 0 -50 50.000000000000178 1 0 0 I I #
edge $-1 $134 -50.000000000000178 $178 50.000000000000178 $131 $245 forward 7 unknown #
edge $-1 $135 -50.000000000000178 $177 50.000000000000178 $132 $246 forward 7 unknown #
point $-1 50.000000000000178 -50 50.000000000000178 #
point $-1 50.000000000000178 50 50.000000000000178 #
vertex $-1 $138 $247 #
ellipse-curve $-1 0 0 50.000000000000092 0 0 1 30 0 0 1 I I #
point $-1 30 0 -50.000000000000092 #
face $-1 $248 $249 $23 $-1 $250 forward single #
loop $-1 $-1 $219 $141 #
plane-surface $-1 0 50 0 0 -1 0 0 0 -1 forward_v I I I I #
coedge $-1 $251 $252 $253 $202 reversed $142 $-1 #
coedge $-1 $149 $143 $254 $255 reversed $97 $-1 #
coedge $-1 $143 $149 $256 $257 reversed $97 $-1 #
edge $-1 $258 -100.00000000000017 $259 1.7763568394002505e-013 $253 $260 forward 7 unknown #
coedge $-1 $145 $144 $261 $262 reversed $67 $-1 #
coedge $-1 $263 $264 $265 $205 forward $266 $-1 #
edge $-1 $267 -100.00000000000033 $209 7.1054273576010019e-015 $204 $268 forward 7 unknown #
coedge $-1 $207 $146 $269 $270 forward $208 $-1 #
coedge $-1 $146 $206 $263 $271 reversed $208 $-1 #
loop $-1 $-1 $146 $272 #
vertex $-1 $271 $273 #
vertex $-1 $270 $274 #
ellipse-curve $-1 -50.000000000000178 0 1.7763568394002568e-013 1 0 0 -1.7457406694215649e-013 0 -50 1 I I #
coedge $-1 $275 $276 $148 $213 forward $277 $-1 #
edge $-1 $210 1.5707963267948966 $215 3.1415926535897931 $212 $211 forward 7 unknown #
coedge $-1 $278 $279 $280 $150 forward $249 $-1 #
vertex $-1 $281 $282 #
straight-curve $-1 -49.999999999999829 0 50.000000000000178 -1 0 3.4914813388431298e-015 I I #
coedge $-1 $283 $151 $276 $284 reversed $220 $-1 #
coedge $-1 $151 $283 $153 $222 forward $220 $-1 #
coedge $-1 $285 $269 $145 $152 reversed $197 $-1 #
loop $-1 $-1 $151 $286 #
straight-curve $-1 -50 50 1.7763568394002505e-013 -1 0 3.4914813388431298e-015 I I #
edge $-1 $287 -50.000000000000178 $157 1.7151244994428854e-013 $153 $288 forward 7 unknown #
coedge $-1 $289 $280 $154 $224 forward $290 $-1 #
edge $-1 $156 0 $287 50 $154 $291 forward 7 unknown #
face $-1 $292 $155 $23 $-1 $293 reversed single #
point $-1 50.000000000000171 0 50.000000000000178 #
edge $-1 $157 1.7151244994428854e-013 $294 50.000000000000178 $295 $288 forward 7 unknown #
point $-1 50.000000000000171 50 -1.7151244994428854e-013 #
point $-1 50 0 50 #
model_id-kcp-attrib $-1 $-1 $-1 $166 1 990548719 50 -1171128318 3 #
plane-surface $-1 50.000000000000178 0 0 -1 0 0 0 0 1 forward_v I I I I #
coedge $-1 $171 $169 $173 $236 reversed $119 $-1 #
edge $-1 $184 -50.000000000000178 $238 50.000000000000178 $183 $296 forward 7 unknown #
vertex $-1 $236 $297 #
straight-curve $-1 -50.000000000000178 -50 0 0 0 -1 I I #
edge $-1 $234 -50 $238 50 $232 $298 forward 7 unknown #
straight-curve $-1 0 -50 -50.000000000000178 -1 0 0 I I #
vertex $-1 $176 $299 #
straight-curve $-1 0 50 -50.000000000000178 1 0 0 I I #
point $-1 50.000000000000178 50 -50.000000000000178 #
point $-1 50.000000000000178 -50 -50.000000000000178 #
straight-curve $-1 -50.000000000000178 0 50.000000000000178 0 -1 0 I I #
point $-1 -50.000000000000178 50 50.000000000000178 #
point $-1 -50.000000000000178 -50 50.000000000000178 #
straight-curve $-1 50.000000000000178 -50 0 0 0 -1 I I #
straight-curve $-1 50.000000000000178 50 0 0 0 -1 I I #
point $-1 30 0 50.000000000000092 #
face $-1 $272 $300 $23 $-1 $301 reversed single #
loop $-1 $-1 $214 $196 #
plane-surface $-1 0 0 50.000000000000178 0 0 1 1 0 0 forward_v I I I I #
coedge $-1 $302 $199 $303 $304 reversed $142 $-1 #
coedge $-1 $199 $302 $305 $306 reversed $142 $-1 #
coedge $-1 $307 $308 $309 $202 forward $310 $-1 #
coedge $-1 $311 $312 $200 $255 forward $313 $-1 #
edge $-1 $215 -3.1415926535897931 $259 -1.5707963267948966 $254 $211 forward 7 unknown #
coedge $-1 $314 $315 $201 $257 forward $316 $-1 #
edge $-1 $258 1.5707963267948966 $156 3.1415926535897931 $256 $158 forward 7 unknown #
vertex $-1 $317 $318 #
vertex $-1 $319 $320 #
straight-curve $-1 -50 -50 1.7763568394002505e-013 -1 0 3.4914813388431298e-015 I I #
coedge $-1 $321 $295 $203 $262 forward $322 $-1 #
edge $-1 $157 -1.5707963267948966 $267 0 $261 $158 forward 7 unknown #
coedge $-1 $323 $204 $207 $271 forward $266 $-1 #
coedge $-1 $204 $323 $321 $324 forward $266 $-1 #
coedge $-1 $325 $326 $302 $205 reversed $327 $-1 #
loop $-1 $-1 $204 $328 #
vertex $-1 $329 $330 #
straight-curve $-1 -50.000000000000171 0 -50.000000000000178 -1 0 3.4914813388431298e-015 I I #
coedge $-1 $219 $331 $206 $270 reversed $197 $-1 #
edge $-1 $210 -1.7763568394002568e-013 $332 50.000000000000178 $269 $333 forward 7 unknown #
edge $-1 $209 0 $332 50 $207 $334 forward 7 unknown #
face $-1 $335 $208 $23 $-1 $301 reversed single #
point $-1 -50.000000000000178 0 -50.000000000000178 #
point $-1 -50.000000000000178 50 1.7763568394002568e-013 #
coedge $-1 $276 $212 $336 $337 reversed $277 $-1 #
coedge $-1 $212 $275 $217 $284 forward $277 $-1 #
loop $-1 $-1 $212 $335 #
coedge $-1 $338 $214 $312 $281 forward $249 $-1 #
coedge $-1 $214 $338 $314 $339 forward $249 $-1 #
coedge $-1 $223 $336 $99 $150 reversed $290 $-1 #
edge $-1 $215 0 $340 50 $312 $341 forward 7 unknown #
point $-1 -50.000000000000178 0 50.000000000000178 #
coedge $-1 $218 $217 $289 $342 reversed $220 $-1 #
edge $-1 $343 -50.000000000000178 $210 -1.7763568394002568e-013 $217 $333 forward 7 unknown #
coedge $-1 $331 $219 $295 $227 forward $197 $-1 #
face $-1 $-1 $220 $23 $-1 $198 reversed single #
vertex $-1 $224 $344 #
straight-curve $-1 50.000000000000178 50 0 0 0 -1 I I #
coedge $-1 $336 $223 $283 $342 forward $290 $-1 #
loop $-1 $-1 $280 $345 #
straight-curve $-1 50.000000000000178 0 50.000000000000178 0 1 0 I I #
face $-1 $346 $322 $23 $-1 $293 reversed single #
plane-surface $-1 50.000000000000178 0 0 -1 0 0 0 0 1 forward_v I I I I #
vertex $-1 $324 $347 #
coedge $-1 $261 $321 $285 $227 reversed $322 $-1 #
straight-curve $-1 -50.000000000000178 50 0 0 0 -1 I I #
point $-1 -50.000000000000178 -50 -50.000000000000178 #
straight-curve $-1 -50.000000000000178 0 -50.000000000000178 0 1 0 I I #
point $-1 -50.000000000000178 50 -50.000000000000178 #
loop $-1 $-1 $305 $248 #
plane-surface $-1 -50.000000000000178 0 0 1 0 0 0 0 -1 forward_v I I I I #
coedge $-1 $252 $251 $144 $205 forward $142 $-1 #
coedge $-1 $348 $349 $251 $304 forward $350 $-1 #
edge $-1 $267 0 $258 1.5707963267948966 $303 $158 forward 7 unknown #
coedge $-1 $351 $352 $252 $306 forward $300 $-1 #
edge $-1 $259 -1.5707963267948966 $209 0 $305 $211 forward 7 unknown #
coedge $-1 $353 $253 $352 $319 forward $310 $-1 #
coedge $-1 $253 $353 $348 $317 reversed $310 $-1 #
coedge $-1 $354 $355 $143 $202 reversed $356 $-1 #
loop $-1 $-1 $253 $357 #
coedge $-1 $312 $254 $355 $358 reversed $313 $-1 #
coedge $-1 $254 $311 $278 $281 reversed $313 $-1 #
loop $-1 $-1 $254 $359 #
coedge $-1 $315 $256 $279 $339 reversed $316 $-1 #
coedge $-1 $256 $314 $354 $360 forward $316 $-1 #
loop $-1 $-1 $256 $361 #
edge $-1 $258 1.7151244994428854e-013 $362 50.000000000000178 $348 $363 forward 7 unknown #
point $-1 50.000000000000171 -50 -1.7151244994428854e-013 #
edge $-1 $259 -1.7763568394002568e-013 $364 50.000000000000178 $352 $365 forward 7 unknown #
point $-1 -50.000000000000178 -50 1.7763568394002568e-013 #
coedge $-1 $295 $261 $264 $324 reversed $322 $-1 #
loop $-1 $-1 $261 $292 #
coedge $-1 $264 $263 $331 $366 forward $266 $-1 #
edge $-1 $294 -50 $267 0 $321 $367 forward 7 unknown #
coedge $-1 $368 $265 $349 $329 forward $327 $-1 #
coedge $-1 $265 $368 $351 $369 forward $327 $-1 #
loop $-1 $-1 $265 $370 #
face $-1 $357 $266 $23 $-1 $371 reversed single #
edge $-1 $267 0 $362 50 $349 $367 forward 7 unknown #
point $-1 50.000000000000156 0 -50.000000000000178 #
coedge $-1 $269 $285 $323 $366 reversed $197 $-1 #
vertex $-1 $366 $372 #
straight-curve $-1 -50.000000000000178 50 0 0 0 -1 I I #
straight-curve $-1 -50.000000000000178 0 -50.000000000000178 0 1 0 I I #
face $-1 $359 $277 $23 $-1 $301 reversed single #
coedge $-1 $280 $289 $275 $337 forward $290 $-1 #
edge $-1 $343 -50 $215 0 $275 $341 forward 7 unknown #
coedge $-1 $279 $278 $373 $374 forward $249 $-1 #
edge $-1 $375 -50 $156 0 $314 $291 forward 7 unknown #
vertex $-1 $281 $376 #
straight-curve $-1 -50.000000000000178 0 50.000000000000178 0 -1 0 I I #
edge $-1 $287 -50.000000000000178 $343 50.000000000000178 $283 $377 forward 7 unknown #
vertex $-1 $342 $378 #
point $-1 50.000000000000178 50 50.000000000000178 #
face $-1 $328 $290 $23 $-1 $250 forward single #
face $-1 $379 $350 $23 $-1 $293 reversed single #
point $-1 50.000000000000178 50 -50.000000000000178 #
coedge $-1 $349 $303 $308 $317 forward $350 $-1 #
coedge $-1 $303 $348 $325 $329 reversed $350 $-1 #
loop $-1 $-1 $303 $346 #
coedge $-1 $352 $305 $326 $369 reversed $300 $-1 #
coedge $-1 $305 $351 $307 $319 reversed $300 $-1 #
coedge $-1 $308 $307 $368 $380 reversed $310 $-1 #
coedge $-1 $373 $309 $315 $360 reversed $356 $-1 #
coedge $-1 $309 $373 $311 $358 forward $356 $-1 #
loop $-1 $-1 $309 $379 #
face $-1 $286 $310 $23 $-1 $381 reversed single #
edge $-1 $340 -50.000000000000178 $259 -1.7763568394002568e-013 $311 $365 forward 7 unknown #
face $-1 $370 $313 $23 $-1 $301 reversed single #
edge $-1 $375 -50.000000000000178 $258 1.7151244994428854e-013 $315 $363 forward 7 unknown #
face $-1 $225 $316 $23 $-1 $293 reversed single #
vertex $-1 $317 $382 #
straight-curve $-1 50.000000000000178 -50 0 0 0 -1 I I #
vertex $-1 $369 $383 #
straight-curve $-1 -50.000000000000178 -50 0 0 0 -1 I I #
edge $-1 $332 -50.000000000000178 $294 50.000000000000178 $331 $384 forward 7 unknown #
straight-curve $-1 50.000000000000178 0 -50.000000000000178 0 -1 0 I I #
coedge $-1 $326 $325 $353 $380 forward $327 $-1 #
edge $-1 $364 -50 $209 0 $351 $334 forward 7 unknown #
face $-1 $361 $327 $23 $-1 $371 reversed single #
plane-surface $-1 0 0 -50.000000000000178 0 0 1 1 0 0 forward_v I I I I #
point $-1 -50.000000000000178 50 -50.000000000000178 #
coedge $-1 $355 $354 $338 $374 reversed $356 $-1 #
edge $-1 $340 -50.000000000000178 $375 50.000000000000178 $373 $385 forward 7 unknown #
vertex $-1 $339 $386 #
point $-1 -50.000000000000178 -50 50.000000000000178 #
straight-curve $-1 0 50 50.000000000000178 -1 0 0 I I #
point $-1 -50.000000000000178 50 50.000000000000178 #
face $-1 $345 $356 $23 $-1 $381 reversed single #
edge $-1 $362 -50.000000000000178 $364 50.000000000000178 $353 $387 forward 7 unknown #
plane-surface $-1 0 -50 0 0 1 0 0 0 1 forward_v I I I I #
point $-1 50.000000000000178 -50 -50.000000000000178 #
point $-1 -50.000000000000178 -50 -50.000000000000178 #
straight-curve $-1 0 50 -50.000000000000178 1 0 0 I I #
straight-curve $-1 0 -50 50.000000000000178 1 0 0 I I #
point $-1 50.000000000000178 -50 50.000000000000178 #
straight-curve $-1 0 -50 -50.000000000000178 -1 0 0 I I #
End-of-ACIS-data 