  0
SECTION
  2
HEADER
  9
$ACADVER
  1
AC1009
  9
$INSBASE
 10
0.0
 20
0.0
 30
0.0
  9
$EXTMIN
 10
0.0
 20
0.0
 30
0.0
  9
$EXTMAX
 10
14.0
 20
8.0
 30
6.0
  9
$LIMMIN
 10
0.0
 20
0.0
  9
$LIMMAX
 10
12.0
 20
9.0
  9
$ORTHOMODE
 70
     0
  9
$REGENMODE
 70
     1
  9
$FILLMODE
 70
     1
  9
$QTEXTMODE
 70
     0
  9
$MIRRTEXT
 70
     1
  9
$DRAGMODE
 70
     2
  9
$LTSCALE
 40
1.0
  9
$OSMODE
 70
     0
  9
$ATTMODE
 70
     1
  9
$TEXTSIZE
 40
0.2
  9
$TRACEWID
 40
0.05
  9
$TEXTSTYLE
  7
STANDARD
  9
$CLAYER
  8
0
  9
$CELTYPE
  6
BYLAYER
  9
$CECOLOR
 62
   256
  9
$DIMSCALE
 40
1.0
  9
$DIMASZ
 40
0.18
  9
$DIMEXO
 40
0.0625
  9
$DIMDLI
 40
0.38
  9
$DIMRND
 40
0.0
  9
$DIMDLE
 40
0.0
  9
$DIMEXE
 40
0.18
  9
$DIMTP
 40
0.0
  9
$DIMTM
 40
0.0
  9
$DIMTXT
 40
0.18
  9
$DIMCEN
 40
0.09
  9
$DIMTSZ
 40
0.0
  9
$DIMTOL
 70
     0
  9
$DIMLIM
 70
     0
  9
$DIMTIH
 70
     1
  9
$DIMTOH
 70
     1
  9
$DIMSE1
 70
     0
  9
$DIMSE2
 70
     0
  9
$DIMTAD
 70
     0
  9
$DIMZIN
 70
     0
  9
$DIMBLK
  1

  9
$DIMASO
 70
     1
  9
$DIMSHO
 70
     1
  9
$DIMPOST
  1

  9
$DIMAPOST
  1

  9
$DIMALT
 70
     0
  9
$DIMALTD
 70
     2
  9
$DIMALTF
 40
25.4
  9
$DIMLFAC
 40
1.0
  9
$DIMTOFL
 70
     0
  9
$DIMTVP
 40
0.0
  9
$DIMTIX
 70
     0
  9
$DIMSOXD
 70
     0
  9
$DIMSAH
 70
     0
  9
$DIMBLK1
  1

  9
$DIMBLK2
  1

  9
$DIMSTYLE
  2
*UNNAMED
  9
$DIMCLRD
 70
     0
  9
$DIMCLRE
 70
     0
  9
$DIMCLRT
 70
     0
  9
$DIMTFAC
 40
1.0
  9
$DIMGAP
 40
0.09
  9
$LUNITS
 70
     2
  9
$LUPREC
 70
     4
  9
$SKETCHINC
 40
0.1
  9
$FILLETRAD
 40
0.0
  9
$AUNITS
 70
     0
  9
$AUPREC
 70
     0
  9
$MENU
  1
acad
  9
$ELEVATION
 40
0.0
  9
$PELEVATION
 40
0.0
  9
$THICKNESS
 40
0.0
  9
$LIMCHECK
 70
     0
  9
$BLIPMODE
 70
     1
  9
$CHAMFERA
 40
0.0
  9
$CHAMFERB
 40
0.0
  9
$SKPOLY
 70
     0
  9
$TDCREATE
 40
2449366.405754560
  9
$TDUPDATE
 40
2449604.693910208
  9
$TDINDWG
 40
0.0003308218
  9
$TDUSRTIMER
 40
0.0003308218
  9
$USRTIMER
 70
     1
  9
$ANGBASE
 50
0.0
  9
$ANGDIR
 70
     0
  9
$PDMODE
 70
     0
  9
$PDSIZE
 40
0.0
  9
$PLINEWID
 40
0.0
  9
$COORDS
 70
     1
  9
$SPLFRAME
 70
     0
  9
$SPLINETYPE
 70
     6
  9
$SPLINESEGS
 70
     8
  9
$ATTDIA
 70
     0
  9
$ATTREQ
 70
     1
  9
$HANDLING
 70
     1
  9
$HANDSEED
  5
CF
  9
$SURFTAB1
 70
     6
  9
$SURFTAB2
 70
     6
  9
$SURFTYPE
 70
     6
  9
$SURFU
 70
     6
  9
$SURFV
 70
     6
  9
$UCSNAME
  2

  9
$UCSORG
 10
0.0
 20
0.0
 30
0.0
  9
$UCSXDIR
 10
1.0
 20
0.0
 30
0.0
  9
$UCSYDIR
 10
0.0
 20
1.0
 30
0.0
  9
$PUCSNAME
  2

  9
$PUCSORG
 10
0.0
 20
0.0
 30
0.0
  9
$PUCSXDIR
 10
1.0
 20
0.0
 30
0.0
  9
$PUCSYDIR
 10
0.0
 20
1.0
 30
0.0
  9
$USERI1
 70
     0
  9
$USERI2
 70
     0
  9
$USERI3
 70
     0
  9
$USERI4
 70
     0
  9
$USERI5
 70
     0
  9
$USERR1
 40
0.0
  9
$USERR2
 40
0.0
  9
$USERR3
 40
0.0
  9
$USERR4
 40
0.0
  9
$USERR5
 40
0.0
  9
$WORLDVIEW
 70
     1
  9
$SHADEDGE
 70
     3
  9
$SHADEDIF
 70
    70
  9
$TILEMODE
 70
     1
  9
$MAXACTVP
 70
    16
  9
$PINSBASE
 10
0.0
 20
0.0
 30
0.0
  9
$PLIMCHECK
 70
     0
  9
$PEXTMIN
 10
1.000000E+20
 20
1.000000E+20
 30
1.000000E+20
  9
$PEXTMAX
 10
-1.000000E+20
 20
-1.000000E+20
 30
-1.000000E+20
  9
$PLIMMIN
 10
0.0
 20
0.0
  9
$PLIMMAX
 10
12.0
 20
9.0
  9
$UNITMODE
 70
     0
  9
$VISRETAIN
 70
     0
  9
$PLINEGEN
 70
     0
  9
$PSLTSCALE
 70
     1
  9
$TREEDEPTH
 70
  3020
  9
$DWGCODEPAGE
  3
ascii
  0
ENDSEC
  0
SECTION
  2
TABLES
  0
TABLE
  2
VPORT
 70
     2
  0
VPORT
  2
*ACTIVE
 70
     0
 10
0.0
 20
0.0
 11
1.0
 21
1.0
 12
7.176972
 22
4.5
 13
0.0
 23
0.0
 14
1.0
 24
1.0
 15
0.0
 25
0.0
 16
0.0
 26
0.0
 36
1.0
 17
0.0
 27
0.0
 37
0.0
 40
9.0
 41
1.594883
 42
50.0
 43
0.0
 44
0.0
 50
0.0
 51
0.0
 71
     0
 72
   100
 73
     1
 74
     1
 75
     0
 76
     0
 77
     0
 78
     0
  0
ENDTAB
  0
TABLE
  2
LTYPE
 70
     1
  0
LTYPE
  2
CONTINUOUS
 70
    64
  3
Solid line
 72
    65
 73
     0
 40
0.0
  0
ENDTAB
  0
TABLE
  2
LAYER
 70
     2
  0
LAYER
  2
0
 70
    64
 62
     7
  6
CONTINUOUS
  0
LAYER
  2
AME_FRZ
 70
    65
 62
     7
  6
CONTINUOUS
  0
ENDTAB
  0
TABLE
  2
STYLE
 70
     1
  0
STYLE
  2
STANDARD
 70
     0
 40
0.0
 41
1.0
 50
0.0
 71
     0
 42
0.2
  3
txt
  4

  0
ENDTAB
  0
TABLE
  2
VIEW
 70
     0
  0
ENDTAB
  0
TABLE
  2
UCS
 70
     0
  0
ENDTAB
  0
TABLE
  2
APPID
 70
     3
  0
APPID
  2
ACAD
 70
    64
  0
APPID
  2
AME_SOL
 70
    64
  0
APPID
  2
AVE_INVOKE
 70
    64
  0
ENDTAB
  0
TABLE
  2
DIMSTYLE
 70
     0
  0
ENDTAB
  0
ENDSEC
  0
SECTION
  2
BLOCKS
  0
BLOCK
  8
0
  5
1
  2
AME_NIL
 70
    64
 10
0.0
 20
0.0
 30
0.0
  1
AME_NIL
  3
AME_NIL
  0
ENDBLK
  8
0
  5
2
  0
BLOCK
  8
0
  5
4
  2
AME_SOL
 70
    64
 10
0.0
 20
0.0
 30
0.0
  1
AME_SOL
  3
AME_SOL
  0
ENDBLK
  8
0
  5
5
  0
BLOCK
  8
0
  5
78
  2
SOLAXES
 70
     0
 10
0.0
 20
0.0
 30
0.0
  1
SOLAXES
  3
SOLAXES
  0
LINE
  8
0
 62
     0
  5
79
 10
0.0
 20
0.0
 30
0.0
 11
2.970759
 21
0.0
 31
0.0
  0
LINE
  8
0
 62
     0
  5
7A
 10
0.0
 20
0.0
 30
0.0
 11
0.0
 21
2.970759
 31
0.0
  0
LINE
  8
0
 62
     0
  5
7B
 10
0.0
 20
0.0
 30
0.0
 11
0.0
 21
0.0
 31
2.970759
  0
CIRCLE
  8
0
 62
     0
  5
7C
 10
0.0
 20
0.0
 30
2.673683
 40
0.148538
210
1.0
220
0.0
230
0.0
  0
LINE
  8
0
 62
     0
  5
7D
 10
2.673683
 20
0.148538
 30
0.0
 11
2.970759
 21
0.0
 31
0.0
  0
LINE
  8
0
 62
     0
  5
7E
 10
2.673683
 20
0.0
 30
0.148538
 11
2.970759
 21
0.0
 31
0.0
  0
LINE
  8
0
 62
     0
  5
7F
 10
2.673683
 20
-0.148538
 30
0.0
 11
2.970759
 21
0.0
 31
0.0
  0
LINE
  8
0
 62
     0
  5
80
 10
2.673683
 20
0.0
 30
-0.148538
 11
2.970759
 21
0.0
 31
0.0
  0
CIRCLE
  8
0
 62
     0
  5
81
 10
0.0
 20
0.0
 30
2.673683
 40
0.148538
210
0.0
220
1.0
230
0.0
  0
LINE
  8
0
 62
     0
  5
82
 10
0.148538
 20
2.673683
 30
0.0
 11
0.0
 21
2.970759
 31
0.0
  0
LINE
  8
0
 62
     0
  5
83
 10
0.0
 20
2.673683
 30
0.148538
 11
0.0
 21
2.970759
 31
0.0
  0
LINE
  8
0
 62
     0
  5
84
 10
-0.148538
 20
2.673683
 30
0.0
 11
0.0
 21
2.970759
 31
0.0
  0
LINE
  8
0
 62
     0
  5
85
 10
0.0
 20
2.673683
 30
-0.148538
 11
0.0
 21
2.970759
 31
0.0
  0
CIRCLE
  8
0
 62
     0
  5
86
 10
0.0
 20
0.0
 30
2.376607
 40
0.148538
210
0.0
220
1.0
230
0.0
  0
LINE
  8
0
 62
     0
  5
87
 10
0.148538
 20
2.376607
 30
0.0
 11
0.0
 21
2.673683
 31
0.0
  0
LINE
  8
0
 62
     0
  5
88
 10
0.0
 20
2.376607
 30
0.148538
 11
0.0
 21
2.673683
 31
0.0
  0
LINE
  8
0
 62
     0
  5
89
 10
-0.148538
 20
2.376607
 30
0.0
 11
0.0
 21
2.673683
 31
0.0
  0
LINE
  8
0
 62
     0
  5
8A
 10
0.0
 20
2.376607
 30
-0.148538
 11
0.0
 21
2.673683
 31
0.0
  0
CIRCLE
  8
0
 62
     0
  5
8B
 10
0.0
 20
0.0
 30
2.673683
 40
0.148538
  0
LINE
  8
0
 62
     0
  5
8C
 10
0.148538
 20
0.0
 30
2.673683
 11
0.0
 21
0.0
 31
2.970759
  0
LINE
  8
0
 62
     0
  5
8D
 10
0.0
 20
0.148538
 30
2.673683
 11
0.0
 21
0.0
 31
2.970759
  0
LINE
  8
0
 62
     0
  5
8E
 10
-0.148538
 20
0.0
 30
2.673683
 11
0.0
 21
0.0
 31
2.970759
  0
LINE
  8
0
 62
     0
  5
8F
 10
0.0
 20
-0.148538
 30
2.673683
 11
0.0
 21
0.0
 31
2.970759
  0
CIRCLE
  8
0
 62
     0
  5
90
 10
0.0
 20
0.0
 30
2.376607
 40
0.148538
  0
LINE
  8
0
 62
     0
  5
91
 10
0.148538
 20
0.0
 30
2.376607
 11
0.0
 21
0.0
 31
2.673683
  0
LINE
  8
0
 62
     0
  5
92
 10
0.0
 20
0.148538
 30
2.376607
 11
0.0
 21
0.0
 31
2.673683
  0
LINE
  8
0
 62
     0
  5
93
 10
-0.148538
 20
0.0
 30
2.376607
 11
0.0
 21
0.0
 31
2.673683
  0
LINE
  8
0
 62
     0
  5
94
 10
0.0
 20
-0.148538
 30
2.376607
 11
0.0
 21
0.0
 31
2.673683
  0
CIRCLE
  8
0
 62
     0
  5
95
 10
0.0
 20
0.0
 30
2.079531
 40
0.148538
  0
LINE
  8
0
 62
     0
  5
96
 10
0.148538
 20
0.0
 30
2.079531
 11
0.0
 21
0.0
 31
2.376607
  0
LINE
  8
0
 62
     0
  5
97
 10
0.0
 20
0.148538
 30
2.079531
 11
0.0
 21
0.0
 31
2.376607
  0
LINE
  8
0
 62
     0
  5
98
 10
-0.148538
 20
0.0
 30
2.079531
 11
0.0
 21
0.0
 31
2.376607
  0
LINE
  8
0
 62
     0
  5
99
 10
0.0
 20
-0.148538
 30
2.079531
 11
0.0
 21
0.0
 31
2.376607
  0
ENDBLK
  8
0
  5
9A
  0
BLOCK
  8
0
  5
AF
  2
*U3
 70
    65
 10
0.0
 20
0.0
 30
0.0
  1
*U
  3
*U
  0
LINE
  8
0
 62
     7
  5
B0
 10
14.0
 20
8.0
 30
0.0
 11
14.0
 21
8.0
 31
6.0
1001
AME_SOL
1070
     1
1071
       24
  0
LINE
  8
0
 62
     7
  5
B1
 10
14.0
 20
8.0
 30
6.0
 11
14.0
 21
0.0
 31
6.0
1001
AME_SOL
1070
     1
1071
       23
  0
LINE
  8
0
 62
     7
  5
B2
 10
0.0
 20
8.0
 30
6.0
 11
14.0
 21
8.0
 31
6.0
1001
AME_SOL
1070
     1
1071
       22
  0
LINE
  8
0
 62
     7
  5
B3
 10
0.0
 20
8.0
 30
0.0
 11
0.0
 21
8.0
 31
6.0
1001
AME_SOL
1070
     1
1071
       21
  0
LINE
  8
0
 62
     7
  5
B4
 10
0.0
 20
8.0
 30
6.0
 11
0.0
 21
0.0
 31
6.0
1001
AME_SOL
1070
     1
1071
       20
  0
LINE
  8
0
 62
     7
  5
B5
 10
0.0
 20
0.0
 30
0.0
 11
0.0
 21
0.0
 31
6.0
1001
AME_SOL
1070
     1
1071
       19
  0
LINE
  8
0
 62
     7
  5
B6
 10
14.0
 20
0.0
 30
6.0
 11
14.0
 21
0.0
 31
0.0
1001
AME_SOL
1070
     1
1071
       18
  0
LINE
  8
0
 62
     7
  5
B7
 10
0.0
 20
0.0
 30
6.0
 11
14.0
 21
0.0
 31
6.0
1001
AME_SOL
1070
     1
1071
       17
  0
LINE
  8
0
 62
     7
  5
B8
 10
0.0
 20
0.0
 30
0.0
 11
14.0
 21
0.0
 31
0.0
1001
AME_SOL
1070
     1
1071
       16
  0
LINE
  8
0
 62
     7
  5
B9
 10
0.0
 20
8.0
 30
0.0
 11
0.0
 21
0.0
 31
0.0
1001
AME_SOL
1070
     1
1071
       15
  0
LINE
  8
0
 62
     7
  5
BA
 10
14.0
 20
0.0
 30
0.0
 11
14.0
 21
8.0
 31
0.0
1001
AME_SOL
1070
     1
1071
       14
  0
LINE
  8
0
 62
     7
  5
BB
 10
14.0
 20
8.0
 30
0.0
 11
0.0
 21
8.0
 31
0.0
1001
AME_SOL
1070
     1
1071
       13
  0
CIRCLE
  8
0
 62
     7
  5
BC
 10
4.0
 20
4.0
 30
0.0
 40
1.0
1001
AME_SOL
1070
     1
1071
       12
  0
CIRCLE
  8
0
 62
     7
  5
BD
 10
4.0
 20
4.0
 30
6.0
 40
1.0
1001
AME_SOL
1070
     1
1071
       11
  0
CIRCLE
  8
0
 62
     7
  5
BE
 10
9.0
 20
4.0
 30
0.0
 40
1.0
1001
AME_SOL
1070
     1
1071
       10
  0
CIRCLE
  8
0
 62
     7
  5
BF
 10
9.0
 20
4.0
 30
6.0
 40
1.0
1001
AME_SOL
1070
     1
1071
        9
  0
LINE
  8
0
 62
     7
  5
C0
 10
3.0
 20
4.0
 30
0.0
 11
3.0
 21
4.0
 31
6.0
1001
AME_SOL
1070
     0
1071
        2
  0
LINE
  8
0
 62
     7
  5
C1
 10
4.0
 20
3.0
 30
0.0
 11
4.0
 21
3.0
 31
6.0
1001
AME_SOL
1070
     0
1071
        2
  0
LINE
  8
0
 62
     7
  5
C2
 10
5.0
 20
4.0
 30
0.0
 11
5.0
 21
4.0
 31
6.0
1001
AME_SOL
1070
     0
1071
        2
  0
LINE
  8
0
 62
     7
  5
C3
 10
4.0
 20
5.0
 30
0.0
 11
4.0
 21
5.0
 31
6.0
1001
AME_SOL
1070
     0
1071
        2
  0
LINE
  8
0
 62
     7
  5
C4
 10
8.0
 20
4.0
 30
0.0
 11
8.0
 21
4.0
 31
6.0
1001
AME_SOL
1070
     0
1071
        1
  0
LINE
  8
0
 62
     7
  5
C5
 10
9.0
 20
3.0
 30
0.0
 11
9.0
 21
3.0
 31
6.0
1001
AME_SOL
1070
     0
1071
        1
  0
LINE
  8
0
 62
     7
  5
C6
 10
10.0
 20
4.0
 30
0.0
 11
10.0
 21
4.0
 31
6.0
1001
AME_SOL
1070
     0
1071
        1
  0
LINE
  8
0
 62
     7
  5
C7
 10
9.0
 20
5.0
 30
0.0
 11
9.0
 21
5.0
 31
6.0
1001
AME_SOL
1070
     0
1071
        1
  0
ENDBLK
  8
0
  5
C8
  0
BLOCK
  8
0
  5
CC
  2
AME_JNK
 70
     0
 10
0.0
 20
0.0
 30
0.0
  1
AME_JNK
  3
AME_JNK
  0
ENDBLK
  8
0
  5
CD
  0
ENDSEC
  0
SECTION
  2
ENTITIES
  0
INSERT
  8
AME_FRZ
  5
3
  2
AME_NIL
 10
0.0
 20
0.0
 30
0.0
  0
INSERT
  8
AME_FRZ
  5
6
  2
AME_SOL
 10
0.0
 20
0.0
 30
0.0
1001
AME_SOL
1000
R2.1
1000
AME2
1000
sq cm
1070
     3
1070
     0
1070
     3
1000
wire
1040
45.0
1000
U
1040
1.0
1000
cm
1000
gm
1000
MILD_STEEL
1070
    25
1000
CSG
1070
     1
1070
     3
1070
     3
1070
     3
1070
     0
1000
cu cm
1070
     1
1070
     0
1005
3
  0
INSERT
  8
AME_FRZ
  5
10
  2
AME_NIL
 10
4.0
 20
4.0
 30
0.0
1001
AME_SOL
1002
{
1070
     1
1071
  2388720
1070
  1538
1070
     1
1010
1.0
1020
1.0
1030
6.0
1005
0
1005
0
1005
AD
1040
0.0
1040
1.0
1070
     0
1000
MILD_STEEL
1000
0
1010
4.0
1020
4.0
1030
0.0
1010
0.0
1020
0.0
1030
1.0
1040
0.0
1002
}
  0
INSERT
  8
AME_FRZ
  5
40
  2
AME_NIL
 10
9.0
 20
4.0
 30
0.0
1001
AME_SOL
1002
{
1070
     1
1071
  2400704
1070
  1538
1070
     1
1010
1.0
1020
1.0
1030
6.0
1005
0
1005
0
1005
AD
1040
0.0
1040
1.0
1070
     0
1000
MILD_STEEL
1000
0
1010
9.0
1020
4.0
1030
0.0
1010
0.0
1020
0.0
1030
1.0
1040
0.0
1002
}
  0
INSERT
  8
AME_FRZ
  5
AA
  2
AME_NIL
 10
0.0
 20
0.0
 30
0.0
1001
AME_SOL
1002
{
1070
     1
1071
  2400016
1070
  1536
1070
     1
1010
14.0
1020
8.0
1030
6.0
1005
0
1005
0
1005
C9
1040
0.0
1040
1.0
1070
     0
1000
MILD_STEEL
1000
0
1010
0.0
1020
0.0
1030
0.0
1010
0.0
1020
0.0
1030
1.0
1040
0.0
1002
}
1001
AVE_INVOKE
1000
SOLAVEMESH
  0
INSERT
  8
AME_FRZ
  5
AD
  2
AME_NIL
 10
0.0
 20
0.0
 30
0.0
1001
AME_SOL
1002
{
1070
     1
1071
  2441784
1070
   775
1070
     0
1070
     2
1005
10
1005
40
1005
0
1005
0
1005
C9
1040
0.0
1040
1.0
1070
     0
1000
MILD_STEEL
1000
0
1010
0.0
1020
0.0
1030
0.0
1010
0.0
1020
0.0
1030
1.0
1040
0.0
1002
}
  0
INSERT
  8
0
  5
C9
  2
*U3
 10
0.0
 20
0.0
 30
0.0
1001
AME_SOL
1002
{
1070
     1
1071
  2444280
1070
  1543
1070
     1
1070
     0
1005
AA
1005
AD
1005
0
1005
CA
1005
0
1040
0.0
1040
1.0
1070
     0
1000
MILD_STEEL
1000
0
1002
}
1001
AVE_INVOKE
1000
SOLAVEMESH
  0
INSERT
  8
AME_FRZ
  5
CA
  2
AME_NIL
 10
1.0
 20
1.0
 30
1.0
1001
AME_SOL
1004
C7CF0100E7007301720170016C0165015901BF004A012400C0005A014B01EE003801210025016D0088004C013901260168001F002701BA0069003A0128013000B0002901D4006500FF006D0166015B014D016600750002005C014E013B012B002A01FC001B003C012B011C015A0099001D01DE0035006700
1004
2500670101005D014F0111002000950071016E0168015E01CC005001100008005F013F0051013D016A004E003E012C011400DC00FB0069016001F000FE006101DF0052013F012D011E013800170064002E012C00500018006F016A0140006201530140012F011F01F700DD003300CA004101EF0022005401
1004
230091006B01630155014201960062004301A80072005601440185002A004501CE008000640157014601300154005F0031010500090047013201A400F80033014400EA005801480134012D0028003501200104004D002101F200D100490136012201170103000E010600FD0018010F010F00E00010016000
1004
01010001FA002301190111010201F9001900030170006F00120104016E00F6000501F5002F001A0113010601BB00B9000701B800B70014010801B600B5000901B300B200370124011B0115010A01B10090000B01AD00520016010C01AB0093000D01A90098000700840000007BBF07BBF07F3279A52111DF
1004
C6D0239B99B20AAC7B700CD905563DB8066C82AB1EDC044405A9A51AE987080B534A33AC6B41558F38BD86E9EFB134EB44C7530206581A2B2581E4EBFAC33641558F6E01C202D4D28C131AD05563CE2718D682AB1E717B0D7BA6874A82E239AFD736F74DFF512FFFFFFFD44BFFF6B67E899FEF2FEA25FA89
1004
7FFFFFBDD37FD44BFFFFFFF512FFFDAD9FA267FBCBFA897EA25FFFFFA803EAF7F7023FEA25FFFFFFFA897FBF1888888533F4E33FC9BB02727573717459D81393AB9B8BA3C7FC9EEC09C9D5CDC5D16FFFD7B1D81393AB9B8BA3C4DFFFF5EC26FBAA22FBAA226FFFFAF63EAF7377023FEA25FFFFFFFA897FFE
1004
099FA267F937604E4EAE6E2E8B3B02727573717478FF93DD81393AB9B8BA2DFFFAF63B027275737174789BFFFEBD84DF75445F75444DFFFF5EC7D5EE4F7023FEA25FFFFFFFA897FBF1888888533F46CFF26EC09C9D5CDC5D167604E4EAE6E2E8F1FF27BB0272757371745BFFF5EC7604E4EAE6E2E8F137FF
1004
FD7B09BEEA88BEEA889BFFFEBD8FABDDF877023FEA25FFFFFFFA897F88888886588FE899FE4DD81393AB9B8BA2CEC09C9D5CDC5D1E3FE4F7604E4EAE6E2E8B7FFEBD8EC09C9D5CDC5D1E26FFFFAF6137DD5117DD51137FFFD7B13DF6261A2B2581E4EBFAC0D1592C0F275FD619B20AAC7B701AD05563CE27
1004
18D682AB1E7138C6B41558F38BD86BDD357031711CD7F29B7BA6FFA897FFFFFFEA25FFFA267E899FEF2FEA25FA897FFFFFBDD37FD44BFFFFFFF512FFFD133F44CFF797F512FD44BFFFFF5007D5EFEE047FD44BFFFFFFF512FF7A88888BF233F4E33FC9BB02727573717459D81393AB9B8BA3C7FC9EEC09C9
1004
D5CDC5D16FFFD7B1D81393AB9B8BA3C4DFFFF5EC261654442CA889BFFFEBD8FABDCDDC08FFA897FFFFFFEA25FFFA719FA267F937604E4EAE6E2E8B3B02727573717478FF93DD81393AB9B8BA2DFFFAF63B027275737174789BFFFEBD84C2CA8885951137FFFD7B1F57B93DC08FFA897FFFFFFEA25FEF5111
1004
117E467E8D9FE4DD81393AB9B8BA2CEC09C9D5CDC5D1E3FE4F7604E4EAE6E2E8B7FFEBD8EC09C9D5CDC5D1E26FFFFAF6130B2A22165444DFFFF5EC7D5EEFC3B811FF512FFFFFFFD44BFFF46C47F44CFF26EC09C9D5CDC5D167604E4EAE6E2E8F1FF27BB0272757371745BFFF5EC7604E4EAE6E2E8F137FFF
1004
D7B098595110B2A226FFFFAF627BECFC533641558F6E019B20AAC7B700CD905563DB808880B534A35D30E1016A694675866C82AB1EDD235FE9ABB5C973735F9E6DFE9BFFFEA25FFFA897FFFFFFFFFBCBFFFFFFFFFEFF4DFFFF512FFFD44BFFFFFFFFFDE5FFFFFFFFFD4493DF67D266C82AB1EDC033641558
1004
F6E019B20AAC7B70111016A6946BA619B20AAC7B749AD05563CE2F61AFF4D0B87CB9B9AFD036FF4DFF512FFFFFFFFFD44BFFFFFDE5FFFFFFFFFF7FA6FFA897FFFFFFFFEA25FFFFFEF2FFFFFFFFFEA249EFB3E933641558F6E019B20AAC7B700CD905563DB8066C82AB1EDD238405A9A519D635A0AAC79C5E
1004
C35FE9A0C8173735EA6DFE9BFFFFFEA25FFFA897FFFFFFFBCBFFFFFFFFFEFF4DFFFFFF512FFFD44BFFFFFFFDE5FFFFFFFFFD4493DF67E299B20AAC7B700CD905563DB80D0B44C753022E2C44405A9A51AE987080B534A33AC6B41558F38BD86BFD35EA565CDCD680DBFD37FD403FBBFF77FEEFFA807F7711
1004
11112867E759FAF63CBFFFFFFFFFEFF4DFF500FEEFFDDFFBBFEA01FDDC444444A19F9D67EBD8F2FFFFFFFFFEA249EFB3E933641558F6E0154D131D4C0819619B20AAC7B70111016A6946BA61C202D4D28CEB1AD05563CE2F61AFF4D0E06CB9B9AFD536FF4DFFBBFF77FD403F500FEEFFDDC444444A19F9D6
1004
7EBD8F2FFFFFFFFFFBFD37FEEFFDDFF500FD403FBBFF771111112867E759FAF63CBFFFFFFFFFA8927BECFA421534455B4050C33641558F6E019B20AAC7B70111016A6946BA61C202D4D28CEB1AD05563CE2F61AFF4D0C26173735FAC6DFE9BFF77FD403FBBFF77FEEFFA800888889433F3ACFD7B1E5FFFFF
1004
FFFFF7FA6FFDDFF500FEEFFDDFFBBFEA0022222250CFCEB3F5EC797FFFFFFFFF5127A044EB44C7530206581A2B2581E4EBFAC685A263A98117161C202D4D28C131AD05563CE2718D682AB1E717B1F2F87B3C13C29E60DF2F87B3C13C29E6C265222FE77F217CD110E9505DEA565F26F52B2E1D2A0B9B8888
1004
9488FFA897FFFFFFEA25FFFB5B3F44CFD7B1F4FEA25FA893E5F0F67827853CC1BE5F0F67827853CD8F4089D6898EA6040CB034564B03C9D7F5866C82AB1EDC038405A9A5182635A0AAC79C4E30CD905563DBA4F97C3D9E09E14F306F97C3D9E09E14F36132911BF88BE226874A82EBB5C97C9874A82EBB5C
1004
971111372911FF512FFFFFFFD44BFFF6B67E899FEFA7F512FD449F2F87B3C13C29E60DF2F87B3C13C29E6C7A040D1592C0F275FD6068AC960793AFEB1A16898EA6045C58D682AB1E7138C6B41558F389C635A0AAC79C5EC7CBE1ECF04F0A79837CBE1ECF04F0A79B099488BF3058BE688AE062EF52B2F937
1004
A95975C0C5CDC4444A447FD44BFFFFFFF512FFFD133F44CFD7B1F4FEA25FA893E5F0F67827853CC1BE5F0F67827853CD8F4081A2B2581E4EBFAC0D1592C0F275FD619B20AAC7B701AD05563CE2718D682AB1E7138C33641558F6E93E5F0F67827853CC1BE5F0F67827853CD84CA4443AFD42F889AB818BAE
1004
D725F26B818BAED725C4444DCA447FD44BFFFFFFF512FFFD133F44CFF7D3FA897EA24F97C3D9E09E14F306F97C3D9E09E14F363D0219B20AAC7B700AA6898EA6040CB0CD905563DB808880B534A35D30E1016A694675866C82AB1EDD2111111298311111129B09B8110EBF4CBE226AED725C381B2F935DAE
1004
4B870365CDCDDC08FFFFA897FFFFFFEA002222225367E759FE4C444444A60C444444A6C7A040854D1156D01430CD905563DB8066C82AB1EDC044405A9A51AE987080B534A33AC33641558F6E97E881FE8984DC08BF2BF48BE226AED725C30985F26BB5C970C261737377023FEA25FFFFFFFFFA8008888894
1004
33F44CFF27FA207FA263D0219B20AAC7B700CD905563DB8066C82AB1EDC033641558F6E91C202D4D28CEB0CD905563DBA5F9D07FDDC9B8117E60E97C44D5DAE4B83205F26BB5C970640B9B9BB811FF500FFFFFFFFFD403FFFFFC9FE741FF777A0433641558F6E019B20AAC7B700CD905563DB808880B534A
1004
35D30CD905563DBA466C82AB1EDD2FF111111286137022FE17F017C44D5DAE4B85C3E5F26BB5C970B87CB9B9BB811FFFF500FFFFFFFD403FFFFFC9FF8888889431E810CD905563DB8066C82AB1EDC0685A263A981171622202D4D28D74C33641558F6E935A0AAC79C5EC111111298311111129B09B81106F
1004
DF2F889A170F977A9597C985C3E5DEA565CDCDDC08FFFFFFA897FFEA01FE2222225367FFEBD84C444444A60C444444A6C7A040854D1156D01430CD905563DB8066C82AB1EDC044405A9A51AE9866C82AB1EDD26B41558F38BD9FA307FA36137022A3F78BE22685C3E5C30985F26170F970C261737377023F
1004
EA25FFFFFFFA807F8888889433FFF46C27FA307FA363D0219B20AAC7B700CD905563DB8066C82AB1EDC033641558F6E919B20AAC7B749AD05563CE2F67FFEBD84DC089D7EE97C44D0B87CB83205F26170F970640B9B9BB811FF500FFFFFFFD403FFFFFFFC9FFFEBD8F40866C82AB1EDC033641558F6E0342
1004
D131D4C08B8B0CD905563DBA47080B534A33AC6B41558F38BD9FA207FA26137022BB7EE17C44D0640BBD4ACBE4C1902EF52B2E6E6EE047FFFFFD44BF500FFFFFFFD133F5EC27FA207FA263D0219B20AAC7B700AA6898EA6040CB0CD905563DB8066C82AB1EDD238405A9A519D635A0AAC79C5ECFD183FD1B
1004
09B811777ED97C44D0640B870365F260C8170E06CB9B9BB811FFFF512FFFD403FFFFFFF3ACFD1B09FE8C1FE8D8F40866C82AB1EDC02A9A263A981032C685A263A981171622202D4D28D74C38405A9A519D635A0AAC79C5EC1111112807FDDC9B8110EBF68BE226BD4ACB870365F26F52B2E1C0D973737702
1004
3FFFEA25FFFFFFFA890888889433F3ACFD7B098888889403FEEEF40810A9A22ADA028619B20AAC7B701A16898EA6045C588880B534A35D30E1016A6946758D682AB1E717B3FFF3AC26E045F95FB25F1135EA565C30985F26F52B2E184C2E6E6EE047FD44BFFFFFBBFFFEA2422222250CFCEB3F5EC27FFF9D
1004
63D02042A688AB680A1855344C75302065866C82AB1EDC044405A9A51AE987080B534A33AC6B41558F38BD9FAF07FDDC9B81144FD82F889A1C0D970C2617C9870365C30985CDCDDC08FFA897FFFFFFEA25FE22222250CFCEB3F5EC27FAF07FDDDFA2527E76
1005
CB
  0
INSERT
  8
AME_FRZ
  5
CB
  2
AME_NIL
 10
1.0
 20
1.0
 30
1.0
1001
AME_SOL
1004

1005
0
  0
ENDSEC
  0
EOF
