106 0 1 0           
body $-1 $1 $-1 $-1 #
lump $-1 $-1 $2 $0 #
shell $-1 $-1 $-1 $3 $1 #
face $-1 $4 $5 $2 $-1 $6 forward single #
face $-1 $7 $8 $2 $-1 $9 forward single #
loop $-1 $-1 $10 $3 #
plane-surface $-1 0 2.5 10 0 0 1 1 0 0 0 I I I I #
face $-1 $11 $12 $2 $-1 $13 forward single #
loop $-1 $-1 $14 $4 #
plane-surface $-1 -2.5 2.5 15 1 0 0 0 0 -1 0 I I I I #
coedge $-1 $15 $16 $17 $18 1 $5 $-1 #
face $-1 $19 $20 $2 $-1 $21 forward single #
loop $-1 $-1 $22 $7 #
plane-surface $-1 2.5 2.5 15 -1 0 0 0 0 1 0 I I I I #
coedge $-1 $23 $24 $25 $26 1 $8 $-1 #
coedge $-1 $27 $10 $28 $29 1 $5 $-1 #
coedge $-1 $10 $27 $30 $31 1 $5 $-1 #
coedge $-1 $22 $32 $10 $18 0 $12 $-1 #
edge $-1 $33 $34 $17 $35 0 #
face $-1 $36 $37 $2 $-1 $38 forward single #
loop $-1 $-1 $39 $11 #
plane-surface $-1 2.5 0 0 0 -1 0 0 0 -1 0 I I I I #
coedge $-1 $40 $17 $39 $41 1 $12 $-1 #
coedge $-1 $42 $14 $43 $44 1 $8 $-1 #
coedge $-1 $14 $42 $27 $45 0 $8 $-1 #
coedge $-1 $28 $46 $14 $26 0 $47 $-1 #
edge $-1 $48 $49 $25 $50 0 #
coedge $-1 $16 $15 $24 $45 1 $5 $-1 #
coedge $-1 $51 $25 $15 $29 0 $47 $-1 #
edge $-1 $49 $33 $28 $52 0 #
coedge $-1 $53 $39 $16 $31 0 $20 $-1 #
edge $-1 $34 $54 $30 $55 0 #
coedge $-1 $17 $40 $51 $56 1 $12 $-1 #
vertex $-1 $29 $57 #
vertex $-1 $31 $58 #
straight-curve $-1 2.5 2.5 10 0 -1 0 I I #
face $-1 $59 $60 $2 $-1 $61 forward single #
loop $-1 $-1 $62 $19 #
plane-surface $-1 -2.5 -25 0 0 1 0 0 0 1 0 I I I I #
coedge $-1 $30 $63 $22 $41 0 $20 $-1 #
coedge $-1 $32 $22 $64 $65 1 $12 $-1 #
edge $-1 $66 $34 $39 $67 0 #
coedge $-1 $24 $23 $53 $68 1 $8 $-1 #
coedge $-1 $69 $70 $23 $44 0 $71 $-1 #
edge $-1 $72 $48 $43 $73 0 #
edge $-1 $54 $49 $24 $74 0 #
coedge $-1 $25 $75 $69 $76 1 $47 $-1 #
loop $-1 $-1 $51 $77 #
vertex $-1 $26 $78 #
vertex $-1 $29 $79 #
straight-curve $-1 -2.5 5 7.5 0 0 -1 I I #
coedge $-1 $80 $28 $32 $56 0 $47 $-1 #
straight-curve $-1 -1.25 5 10 1 0 0 I I #
coedge $-1 $81 $30 $42 $68 0 $20 $-1 #
vertex $-1 $31 $82 #
straight-curve $-1 1.25 0 10 -1 0 0 I I #
edge $-1 $33 $83 $51 $84 0 #
point $-1 2.5 5 10 #
point $-1 2.5 0 10 #
face $-1 $85 $86 $2 $-1 $87 forward single #
loop $-1 $-1 $88 $36 #
plane-surface $-1 -2.5 -15 0 0 -1 0 0 0 -1 0 I I I I #
coedge $-1 $89 $90 $91 $92 1 $37 $-1 #
coedge $-1 $39 $93 $94 $95 1 $20 $-1 #
coedge $-1 $94 $96 $40 $65 0 $71 $-1 #
edge $-1 $83 $66 $64 $97 0 #
vertex $-1 $65 $98 #
straight-curve $-1 2.5 0 7.5 0 0 -1 I I #
edge $-1 $54 $72 $53 $99 0 #
coedge $-1 $100 $43 $46 $76 0 $71 $-1 #
coedge $-1 $43 $101 $81 $102 0 $71 $-1 #
loop $-1 $103 $64 $104 #
vertex $-1 $102 $105 #
straight-curve $-1 -2.5 1.25 20 0 1 0 I I #
straight-curve $-1 -2.5 2.5 10 0 1 0 I I #
coedge $-1 $46 $106 $107 $108 1 $47 $-1 #
edge $-1 $48 $109 $69 $110 0 #
face $-1 $111 $47 $2 $-1 $112 forward single #
point $-1 -2.5 5 20 #
point $-1 -2.5 5 10 #
coedge $-1 $113 $51 $96 $114 1 $47 $-1 #
coedge $-1 $115 $53 $70 $102 1 $20 $-1 #
point $-1 -2.5 0 10 #
vertex $-1 $114 $116 #
straight-curve $-1 2.5 5 7.5 0 0 1 I I #
face $-1 $117 $118 $2 $-1 $119 forward single #
loop $-1 $-1 $120 $59 #
plane-surface $-1 5 -20 0 -1 0 0 0 0 1 0 I I I I #
coedge $-1 $121 $122 $123 $124 1 $60 $-1 #
coedge $-1 $125 $62 $126 $127 1 $37 $-1 #
coedge $-1 $62 $125 $128 $129 1 $37 $-1 #
coedge $-1 $130 $131 $62 $92 0 $132 $-1 #
edge $-1 $133 $134 $91 $135 0 #
coedge $-1 $63 $136 $137 $138 1 $20 $-1 #
coedge $-1 $139 $64 $63 $95 0 $71 $-1 #
edge $-1 $66 $140 $94 $141 0 #
coedge $-1 $64 $142 $80 $114 0 $71 $-1 #
straight-curve $-1 2.5 1.25 20 0 -1 0 I I #
point $-1 2.5 0 20 #
straight-curve $-1 -2.5 0 7.5 0 0 1 I I #
coedge $-1 $143 $69 $144 $145 0 $71 $-1 #
coedge $-1 $70 $146 $147 $148 0 $71 $-1 #
edge $-1 $149 $72 $70 $141 0 #
loop $-1 $-1 $150 $104 #
face $-1 $151 $71 $2 $-1 $152 forward single #
point $-1 -2.5 0 20 #
coedge $-1 $75 $113 $153 $154 1 $47 $-1 #
coedge $-1 $155 $144 $75 $108 0 $118 $-1 #
edge $-1 $109 $156 $107 $157 0 #
vertex $-1 $108 $158 #
straight-curve $-1 -1.25 5 20 -1 0 0 I I #
face $-1 $159 $160 $2 $-1 $161 forward single #
plane-surface $-1 -2.5 5 0 0 1 0 0 0 1 0 I I I I #
coedge $-1 $106 $80 $162 $163 0 $47 $-1 #
edge $-1 $164 $83 $96 $110 0 #
coedge $-1 $136 $81 $165 $166 0 $20 $-1 #
point $-1 2.5 5 20 #
face $-1 $167 $132 $2 $-1 $119 forward single #
loop $-1 $-1 $168 $85 #
plane-surface $-1 -10 0 0 -1 0 0 0 0 1 0 I I I I #
coedge $-1 $169 $170 $125 $171 1 $86 $-1 #
coedge $-1 $172 $88 $143 $173 1 $60 $-1 #
coedge $-1 $88 $172 $174 $175 1 $60 $-1 #
coedge $-1 $170 $169 $88 $124 0 $86 $-1 #
edge $-1 $176 $177 $123 $178 0 #
coedge $-1 $90 $89 $120 $171 0 $37 $-1 #
coedge $-1 $179 $180 $89 $127 0 $71 $-1 #
edge $-1 $181 $133 $126 $182 0 #
coedge $-1 $183 $184 $90 $129 0 $185 $-1 #
edge $-1 $134 $186 $128 $187 0 #
coedge $-1 $188 $91 $184 $189 1 $132 $-1 #
coedge $-1 $91 $188 $179 $190 1 $132 $-1 #
loop $-1 $-1 $91 $117 #
vertex $-1 $92 $191 #
vertex $-1 $189 $192 #
straight-curve $-1 -10 -25 0 0 0 -1 I I #
coedge $-1 $93 $115 $193 $194 1 $20 $-1 #
coedge $-1 $195 $196 $93 $138 0 $197 $-1 #
edge $-1 $140 $198 $137 $199 0 #
coedge $-1 $200 $94 $196 $201 0 $71 $-1 #
vertex $-1 $138 $202 #
straight-curve $-1 1.25 0 20 1 0 0 I I #
coedge $-1 $96 $203 $204 $205 0 $71 $-1 #
coedge $-1 $180 $100 $121 $173 0 $71 $-1 #
coedge $-1 $107 $168 $100 $145 1 $118 $-1 #
edge $-1 $109 $206 $100 $207 0 #
coedge $-1 $101 $208 $209 $210 0 $71 $-1 #
coedge $-1 $211 $165 $101 $148 1 $212 $-1 #
edge $-1 $213 $149 $101 $214 0 #
vertex $-1 $148 $215 #
coedge $-1 $216 $217 $218 $219 0 $103 $-1 #
face $-1 $220 $185 $2 $-1 $221 reversed single #
plane-surface $-1 0 0 20 0 0 1 1 0 0 0 I I I I #
coedge $-1 $222 $223 $106 $154 0 $185 $-1 #
edge $-1 $156 $224 $153 $225 0 #
coedge $-1 $168 $107 $223 $226 1 $118 $-1 #
vertex $-1 $226 $227 #
straight-curve $-1 -10 5 0 0 0 -1 I I #
point $-1 -10 5 20 #
face $-1 $228 $229 $2 $-1 $230 forward single #
loop $-1 $-1 $231 $111 #
plane-surface $-1 -2.5 15 0 0 -1 0 0 0 -1 0 I I I I #
coedge $-1 $204 $232 $113 $163 1 $229 $-1 #
edge $-1 $164 $224 $162 $233 0 #
vertex $-1 $114 $234 #
coedge $-1 $147 $235 $115 $166 1 $212 $-1 #
edge $-1 $149 $236 $115 $237 0 #
face $-1 $238 $239 $2 $-1 $240 forward single #
coedge $-1 $144 $155 $172 $241 0 $118 $-1 #
coedge $-1 $123 $120 $180 $242 1 $86 $-1 #
coedge $-1 $120 $123 $183 $243 1 $86 $-1 #
edge $-1 $181 $186 $120 $244 0 #
coedge $-1 $122 $121 $168 $241 1 $60 $-1 #
edge $-1 $206 $176 $143 $245 0 #
coedge $-1 $223 $183 $122 $175 0 $185 $-1 #
edge $-1 $177 $246 $174 $247 0 #
vertex $-1 $173 $248 #
vertex $-1 $175 $249 #
straight-curve $-1 5 -15 0 0 0 -1 I I #
coedge $-1 $250 $126 $131 $190 0 $71 $-1 #
coedge $-1 $126 $143 $169 $242 0 $71 $-1 #
vertex $-1 $127 $251 #
straight-curve $-1 -1.25 -25 20 -1 0 0 I I #
coedge $-1 $174 $128 $170 $243 0 $185 $-1 #
coedge $-1 $128 $252 $130 $189 0 $185 $-1 #
loop $-1 $253 $174 $151 #
vertex $-1 $129 $254 #
straight-curve $-1 -1.25 -25 -20 1 0 0 I I #
coedge $-1 $131 $130 $255 $256 1 $132 $-1 #
edge $-1 $257 $134 $184 $258 0 #
edge $-1 $133 $259 $179 $207 0 #
point $-1 -10 -25 20 #
point $-1 -10 -25 -20 #
coedge $-1 $260 $261 $136 $194 0 $253 $-1 #
edge $-1 $198 $236 $193 $262 0 #
coedge $-1 $263 $137 $261 $264 1 $197 $-1 #
coedge $-1 $137 $263 $139 $201 1 $197 $-1 #
loop $-1 $-1 $137 $265 #
vertex $-1 $264 $266 #
straight-curve $-1 10 0 0 0 0 -1 I I #
coedge $-1 $267 $139 $268 $269 0 $71 $-1 #
edge $-1 $140 $270 $139 $271 0 #
point $-1 10 0 20 #
coedge $-1 $142 $272 $273 $274 0 $71 $-1 #
coedge $-1 $275 $162 $142 $205 1 $229 $-1 #
edge $-1 $276 $164 $142 $277 0 #
vertex $-1 $145 $278 #
straight-curve $-1 -10 0 20 0 -1 0 I I #
coedge $-1 $146 $279 $280 $281 0 $71 $-1 #
coedge $-1 $282 $283 $146 $210 1 $239 $-1 #
edge $-1 $284 $213 $146 $285 0 #
coedge $-1 $235 $147 $283 $286 0 $212 $-1 #
loop $-1 $-1 $165 $238 #
vertex $-1 $210 $287 #
straight-curve $-1 -5 -2.5 20 0 1 0 I I #
point $-1 -5 0 20 #
coedge $-1 $288 $150 $289 $290 0 $103 $-1 #
coedge $-1 $150 $288 $291 $292 0 $103 $-1 #
coedge $-1 $293 $294 $150 $219 1 $295 $-1 #
edge $-1 $296 $297 $218 $298 0 #
face $-1 $299 $300 $2 $-1 $301 reversed single #
plane-surface $-1 0 0 -20 0 0 1 1 0 0 0 I I I I #
coedge $-1 $302 $153 $232 $303 0 $185 $-1 #
coedge $-1 $153 $174 $155 $226 0 $185 $-1 #
vertex $-1 $154 $304 #
straight-curve $-1 -1.25 5 -20 1 0 0 I I #
edge $-1 $246 $156 $223 $258 0 #
point $-1 -10 5 -20 #
face $-1 $305 $306 $2 $-1 $119 forward single #
loop $-1 $-1 $162 $159 #
plane-surface $-1 5 10 0 -1 0 0 0 0 1 0 I I I I #
coedge $-1 $273 $307 $275 $308 1 $160 $-1 #
coedge $-1 $162 $275 $222 $303 1 $229 $-1 #
straight-curve $-1 5 5 0 0 0 -1 I I #
point $-1 5 5 20 #
coedge $-1 $165 $211 $260 $309 1 $212 $-1 #
vertex $-1 $309 $310 #
straight-curve $-1 -5 0 0 0 0 -1 I I #
face $-1 $311 $212 $2 $-1 $312 forward single #
loop $-1 $-1 $283 $167 #
plane-surface $-1 2.5 -10 0 0 1 0 0 0 1 0 I I I I #
edge $-1 $246 $206 $168 $313 0 #
edge $-1 $176 $181 $180 $314 0 #
edge $-1 $186 $177 $183 $315 0 #
straight-curve $-1 5 -25 0 0 0 -1 I I #
straight-curve $-1 -1.25 -15 20 1 0 0 I I #
vertex $-1 $175 $316 #
straight-curve $-1 -1.25 -15 -20 -1 0 0 I I #
point $-1 5 -15 20 #
point $-1 5 -15 -20 #
coedge $-1 $317 $179 $318 $319 0 $71 $-1 #
point $-1 5 -25 20 #
coedge $-1 $184 $320 $321 $322 0 $185 $-1 #
loop $-1 $323 $324 $151 #
point $-1 5 -25 -20 #
coedge $-1 $321 $318 $188 $256 0 $325 $-1 #
edge $-1 $259 $257 $188 $326 0 #
vertex $-1 $322 $327 #
straight-curve $-1 -10 0 -20 0 1 0 I I #
vertex $-1 $319 $328 #
coedge $-1 $324 $193 $235 $309 0 $253 $-1 #
coedge $-1 $193 $329 $195 $264 0 $253 $-1 #
straight-curve $-1 1.25 0 -20 -1 0 0 I I #
coedge $-1 $196 $195 $330 $331 0 $197 $-1 #
edge $-1 $332 $198 $261 $333 0 #
face $-1 $77 $197 $2 $-1 $334 forward single #
point $-1 10 0 -20 #
coedge $-1 $335 $200 $336 $337 0 $71 $-1 #
coedge $-1 $330 $338 $200 $269 1 $339 $-1 #
edge $-1 $270 $340 $200 $341 0 #
vertex $-1 $201 $342 #
straight-curve $-1 10 0 20 0 1 0 I I #
coedge $-1 $203 $343 $344 $345 0 $71 $-1 #
coedge $-1 $346 $231 $203 $274 1 $160 $-1 #
edge $-1 $347 $276 $203 $348 0 #
coedge $-1 $232 $204 $231 $308 0 $229 $-1 #
vertex $-1 $274 $349 #
straight-curve $-1 5 5 20 0 -1 0 I I #
point $-1 -10 -15 20 #
coedge $-1 $208 $350 $351 $352 0 $71 $-1 #
coedge $-1 $353 $354 $208 $281 1 $355 $-1 #
edge $-1 $356 $284 $208 $271 0 #
coedge $-1 $357 $209 $354 $358 1 $239 $-1 #
coedge $-1 $209 $357 $211 $286 1 $239 $-1 #
vertex $-1 $281 $359 #
straight-curve $-1 1.25 -10 20 -1 0 0 I I #
edge $-1 $213 $360 $211 $361 0 #
point $-1 -5 -10 20 #
coedge $-1 $217 $216 $362 $363 0 $103 $-1 #
coedge $-1 $364 $365 $216 $290 1 $366 $-1 #
edge $-1 $297 $367 $289 $368 0 #
coedge $-1 $369 $370 $217 $292 1 $300 $-1 #
edge $-1 $371 $296 $291 $372 0 #
coedge $-1 $373 $218 $370 $374 0 $295 $-1 #
coedge $-1 $218 $373 $364 $375 1 $295 $-1 #
loop $-1 $-1 $293 $376 #
vertex $-1 $219 $377 #
vertex $-1 $219 $378 #
straight-curve $-1 40 0 20 0 1 0 I I #
face $-1 $379 $380 $2 $-1 $381 reversed single #
loop $-1 $-1 $369 $220 #
plane-surface $-1 0 -40 0 0 1 0 0 0 1 0 I I I I #
coedge $-1 $382 $222 $307 $383 0 $185 $-1 #
edge $-1 $224 $384 $222 $385 0 #
point $-1 5 5 -20 #
face $-1 $386 $339 $2 $-1 $387 forward single #
loop $-1 $-1 $388 $228 #
coedge $-1 $231 $346 $302 $383 1 $160 $-1 #
edge $-1 $276 $384 $275 $389 0 #
edge $-1 $236 $360 $260 $390 0 #
point $-1 -5 0 -20 #
face $-1 $265 $355 $2 $-1 $334 forward single #
plane-surface $-1 -5 -5 0 1 0 0 0 0 -1 0 I I I I #
straight-curve $-1 -10 -15 0 0 0 1 I I #
straight-curve $-1 5 -10 20 0 -1 0 I I #
straight-curve $-1 5 -10 -20 0 1 0 I I #
point $-1 -10 -15 -20 #
coedge $-1 $343 $250 $391 $392 0 $71 $-1 #
coedge $-1 $255 $393 $250 $319 1 $325 $-1 #
edge $-1 $259 $394 $250 $395 0 #
coedge $-1 $252 $396 $397 $398 0 $185 $-1 #
coedge $-1 $393 $255 $252 $322 1 $325 $-1 #
edge $-1 $399 $257 $252 $400 0 #
loop $-1 $-1 $401 $151 #
coedge $-1 $402 $260 $357 $403 0 $253 $-1 #
loop $-1 $-1 $393 $404 #
straight-curve $-1 -10 -30 0 0 0 -1 I I #
point $-1 -10 -30 -20 #
point $-1 -10 -30 20 #
coedge $-1 $261 $405 $406 $407 0 $253 $-1 #
coedge $-1 $406 $268 $263 $331 1 $339 $-1 #
edge $-1 $332 $270 $263 $408 0 #
vertex $-1 $407 $409 #
straight-curve $-1 10 0 -20 0 -1 0 I I #
plane-surface $-1 10 0 0 1 0 0 0 0 -1 0 I I I I #
coedge $-1 $350 $267 $410 $411 0 $71 $-1 #
coedge $-1 $412 $413 $267 $337 1 $414 $-1 #
edge $-1 $340 $415 $267 $416 0 #
coedge $-1 $268 $406 $412 $417 1 $339 $-1 #
loop $-1 $-1 $338 $305 #
vertex $-1 $269 $418 #
straight-curve $-1 1.25 20 20 -1 0 0 I I #
point $-1 10 20 20 #
coedge $-1 $272 $317 $419 $420 0 $71 $-1 #
coedge $-1 $421 $388 $272 $345 1 $306 $-1 #
edge $-1 $422 $347 $272 $207 0 #
coedge $-1 $307 $273 $388 $423 1 $160 $-1 #
vertex $-1 $345 $424 #
straight-curve $-1 -1.25 15 20 1 0 0 I I #
point $-1 5 15 20 #
coedge $-1 $279 $335 $425 $426 0 $71 $-1 #
coedge $-1 $427 $428 $279 $352 1 $429 $-1 #
edge $-1 $430 $356 $279 $431 0 #
coedge $-1 $432 $280 $428 $433 0 $355 $-1 #
coedge $-1 $280 $432 $282 $358 0 $355 $-1 #
loop $-1 $-1 $354 $311 #
vertex $-1 $352 $434 #
coedge $-1 $283 $282 $324 $403 1 $239 $-1 #
edge $-1 $435 $284 $354 $436 0 #
point $-1 10 -10 20 #
vertex $-1 $403 $437 #
straight-curve $-1 -5 -10 0 0 0 -1 I I #
coedge $-1 $438 $439 $288 $363 1 $380 $-1 #
edge $-1 $367 $371 $362 $440 0 #
coedge $-1 $441 $289 $294 $375 0 $366 $-1 #
coedge $-1 $289 $441 $438 $442 1 $366 $-1 #
loop $-1 $-1 $364 $379 #
vertex $-1 $290 $443 #
straight-curve $-1 0 40 20 -1 0 0 I I #
coedge $-1 $444 $291 $439 $445 0 $300 $-1 #
coedge $-1 $291 $444 $293 $374 1 $300 $-1 #
vertex $-1 $363 $446 #
straight-curve $-1 0 -40 20 1 0 0 I I #
coedge $-1 $294 $293 $401 $447 1 $295 $-1 #
edge $-1 $296 $448 $293 $449 0 #
edge $-1 $297 $450 $294 $451 0 #
face $-1 $-1 $295 $2 $-1 $452 reversed single #
point $-1 40 -40 20 #
point $-1 40 40 20 #
face $-1 $376 $366 $2 $-1 $453 reversed single #
loop $-1 $-1 $438 $299 #
plane-surface $-1 -40 0 0 1 0 0 0 0 -1 0 I I I I #
coedge $-1 $396 $302 $454 $455 0 $185 $-1 #
edge $-1 $384 $456 $302 $457 0 #
vertex $-1 $383 $458 #
straight-curve $-1 5 5 -20 0 1 0 I I #
face $-1 $404 $414 $2 $-1 $459 forward single #
plane-surface $-1 2.5 20 0 0 1 0 0 0 1 0 I I I I #
coedge $-1 $344 $454 $346 $423 0 $306 $-1 #
straight-curve $-1 5 15 0 0 0 -1 I I #
straight-curve $-1 -5 -2.5 -20 0 -1 0 I I #
coedge $-1 $460 $461 $317 $392 1 $462 $-1 #
edge $-1 $394 $463 $317 $464 0 #
coedge $-1 $318 $321 $460 $465 1 $325 $-1 #
vertex $-1 $319 $466 #
straight-curve $-1 -10 -30 20 -1 0 0 I I #
coedge $-1 $320 $382 $467 $468 0 $185 $-1 #
coedge $-1 $461 $460 $320 $398 1 $462 $-1 #
edge $-1 $469 $399 $320 $470 0 #
vertex $-1 $322 $471 #
straight-curve $-1 -10 -30 -20 1 0 0 I I #
coedge $-1 $472 $473 $373 $447 0 $323 $-1 #
coedge $-1 $474 $324 $432 $475 0 $253 $-1 #
edge $-1 $360 $435 $324 $476 0 #
face $-1 $477 $325 $2 $-1 $478 forward single #
coedge $-1 $329 $479 $480 $481 0 $253 $-1 #
coedge $-1 $338 $330 $329 $407 1 $339 $-1 #
edge $-1 $482 $332 $329 $483 0 #
straight-curve $-1 10 20 0 0 0 1 I I #
point $-1 10 20 -20 #
coedge $-1 $484 $485 $335 $411 1 $486 $-1 #
edge $-1 $415 $487 $335 $488 0 #
coedge $-1 $480 $336 $338 $417 0 $414 $-1 #
coedge $-1 $336 $480 $484 $489 1 $414 $-1 #
loop $-1 $-1 $413 $386 #
vertex $-1 $337 $490 #
straight-curve $-1 -5 12.5 20 0 1 0 I I #
edge $-1 $340 $482 $412 $491 0 #
point $-1 -5 20 20 #
coedge $-1 $492 $493 $343 $420 1 $494 $-1 #
edge $-1 $463 $422 $343 $495 0 #
coedge $-1 $454 $344 $493 $496 0 $306 $-1 #
vertex $-1 $420 $497 #
edge $-1 $456 $347 $388 $498 0 #
point $-1 -10 15 20 #
coedge $-1 $499 $500 $350 $426 1 $501 $-1 #
edge $-1 $487 $430 $350 $502 0 #
coedge $-1 $503 $351 $500 $504 0 $429 $-1 #
coedge $-1 $351 $503 $353 $433 1 $429 $-1 #
loop $-1 $-1 $428 $505 #
vertex $-1 $352 $506 #
straight-curve $-1 10 -30 20 -1 0 0 I I #
coedge $-1 $354 $353 $402 $475 1 $355 $-1 #
edge $-1 $356 $507 $353 $508 0 #
point $-1 10 -30 20 #
vertex $-1 $403 $509 #
straight-curve $-1 10 -10 0 0 0 1 I I #
point $-1 -5 -10 -20 #
coedge $-1 $510 $362 $365 $442 0 $380 $-1 #
coedge $-1 $362 $510 $369 $445 1 $380 $-1 #
straight-curve $-1 -40 0 20 0 -1 0 I I #
coedge $-1 $365 $364 $473 $511 1 $366 $-1 #
edge $-1 $367 $512 $365 $513 0 #
point $-1 -40 40 20 #
coedge $-1 $370 $369 $472 $514 1 $300 $-1 #
edge $-1 $371 $515 $439 $516 0 #
point $-1 -40 -40 20 #
edge $-1 $450 $448 $373 $517 0 #
vertex $-1 $374 $518 #
straight-curve $-1 40 -40 0 0 0 -1 I I #
vertex $-1 $447 $519 #
straight-curve $-1 40 40 0 0 0 -1 I I #
plane-surface $-1 40 0 0 -1 0 0 0 0 1 0 I I I I #
plane-surface $-1 0 40 0 0 -1 0 0 0 -1 0 I I I I #
coedge $-1 $388 $421 $382 $455 1 $306 $-1 #
edge $-1 $456 $520 $382 $258 0 #
vertex $-1 $383 $521 #
straight-curve $-1 -1.25 15 -20 -1 0 0 I I #
point $-1 5 15 -20 #
plane-surface $-1 -5 25 0 1 0 0 0 0 -1 0 I I I I #
coedge $-1 $397 $391 $393 $465 0 $462 $-1 #
coedge $-1 $391 $397 $492 $522 1 $462 $-1 #
loop $-1 $-1 $461 $477 #
vertex $-1 $392 $523 #
straight-curve $-1 -30 0 20 0 1 0 I I #
edge $-1 $394 $399 $460 $524 0 #
point $-1 -30 -30 20 #
coedge $-1 $493 $492 $396 $468 1 $494 $-1 #
edge $-1 $520 $469 $396 $525 0 #
vertex $-1 $398 $526 #
straight-curve $-1 -30 0 -20 0 -1 0 I I #
point $-1 -30 -30 -20 #
coedge $-1 $527 $401 $444 $514 0 $323 $-1 #
coedge $-1 $401 $527 $441 $511 0 $323 $-1 #
coedge $-1 $528 $402 $503 $529 0 $253 $-1 #
edge $-1 $435 $507 $402 $333 0 #
straight-curve $-1 1.25 -10 -20 1 0 0 I I #
face $-1 $530 $462 $2 $-1 $531 forward single #
plane-surface $-1 -20 -30 0 0 1 0 0 0 1 0 I I I I #
coedge $-1 $405 $528 $532 $533 0 $253 $-1 #
coedge $-1 $413 $412 $405 $481 1 $414 $-1 #
edge $-1 $534 $482 $405 $535 0 #
vertex $-1 $407 $536 #
straight-curve $-1 1.25 20 -20 1 0 0 I I #
coedge $-1 $532 $410 $413 $489 0 $486 $-1 #
coedge $-1 $410 $532 $499 $537 1 $486 $-1 #
loop $-1 $-1 $485 $538 #
vertex $-1 $411 $539 #
straight-curve $-1 1.25 30 20 1 0 0 I I #
edge $-1 $415 $534 $484 $540 0 #
point $-1 -5 30 20 #
straight-curve $-1 -5 20 0 0 0 -1 I I #
coedge $-1 $467 $419 $461 $522 0 $494 $-1 #
coedge $-1 $419 $467 $421 $496 1 $494 $-1 #
loop $-1 $-1 $493 $530 #
straight-curve $-1 -10 30 20 1 0 0 I I #
edge $-1 $422 $520 $421 $541 0 #
point $-1 -10 30 20 #
straight-curve $-1 -10 15 0 0 0 1 I I #
coedge $-1 $542 $425 $485 $537 0 $501 $-1 #
coedge $-1 $425 $542 $427 $504 1 $501 $-1 #
loop $-1 $-1 $500 $543 #
straight-curve $-1 30 0 20 0 -1 0 I I #
coedge $-1 $428 $427 $474 $529 1 $429 $-1 #
edge $-1 $430 $544 $500 $545 0 #
face $-1 $538 $429 $2 $-1 $546 forward single #
point $-1 30 -30 20 #
vertex $-1 $529 $547 #
straight-curve $-1 10 -30 0 0 0 -1 I I #
point $-1 10 -10 -20 #
coedge $-1 $439 $438 $527 $548 1 $380 $-1 #
edge $-1 $512 $450 $441 $549 0 #
vertex $-1 $511 $550 #
straight-curve $-1 -40 40 0 0 0 -1 I I #
edge $-1 $448 $515 $444 $551 0 #
vertex $-1 $548 $552 #
straight-curve $-1 -40 -40 0 0 0 -1 I I #
straight-curve $-1 40 0 -20 0 -1 0 I I #
point $-1 40 -40 -20 #
point $-1 40 40 -20 #
vertex $-1 $468 $553 #
point $-1 -10 15 -20 #
edge $-1 $463 $469 $492 $554 0 #
point $-1 -30 30 20 #
straight-curve $-1 -30 -30 0 0 0 -1 I I #
straight-curve $-1 -10 30 -20 -1 0 0 I I #
point $-1 -30 30 -20 #
coedge $-1 $473 $472 $510 $548 0 $323 $-1 #
coedge $-1 $479 $474 $542 $555 0 $253 $-1 #
edge $-1 $507 $544 $474 $556 0 #
face $-1 $505 $494 $2 $-1 $557 forward single #
plane-surface $-1 -30 0 0 1 0 0 0 0 -1 0 I I I I #
coedge $-1 $485 $484 $479 $533 1 $486 $-1 #
edge $-1 $558 $534 $479 $559 0 #
vertex $-1 $481 $560 #
straight-curve $-1 -5 12.5 -20 0 -1 0 I I #
point $-1 -5 20 -20 #
edge $-1 $487 $558 $499 $561 0 #
face $-1 $543 $486 $2 $-1 $562 forward single #
point $-1 30 30 20 #
straight-curve $-1 -5 30 0 0 0 -1 I I #
straight-curve $-1 -10 30 0 0 0 -1 I I #
coedge $-1 $500 $499 $528 $555 1 $501 $-1 #
face $-1 $104 $501 $2 $-1 $563 forward single #
vertex $-1 $529 $564 #
straight-curve $-1 30 -30 0 0 0 -1 I I #
plane-surface $-1 20 -30 0 0 1 0 0 0 1 0 I I I I #
point $-1 10 -30 -20 #
edge $-1 $515 $512 $510 $565 0 #
straight-curve $-1 0 40 -20 1 0 0 I I #
point $-1 -40 40 -20 #
straight-curve $-1 0 -40 -20 -1 0 0 I I #
point $-1 -40 -40 -20 #
point $-1 -10 30 -20 #
straight-curve $-1 -30 30 0 0 0 -1 I I #
edge $-1 $544 $558 $528 $566 0 #
straight-curve $-1 10 -30 -20 1 0 0 I I #
plane-surface $-1 -20 30 0 0 -1 0 0 0 -1 0 I I I I #
vertex $-1 $533 $567 #
straight-curve $-1 1.25 30 -20 -1 0 0 I I #
point $-1 -5 30 -20 #
straight-curve $-1 30 30 0 0 0 -1 I I #
plane-surface $-1 20 30 0 0 -1 0 0 0 -1 0 I I I I #
plane-surface $-1 30 0 0 -1 0 0 0 0 1 0 I I I I #
point $-1 30 -30 -20 #
straight-curve $-1 -40 0 -20 0 1 0 I I #
straight-curve $-1 30 0 -20 0 1 0 I I #
point $-1 30 30 -20 #
End-of-ACIS-data 