600 0 1 0           
81 GICL ACIS Healer - Source: /gicl/data5/repository/Heriot_Watt/ex20/ex20.sat - 6 0 18 ACIS 6.0.3 Solaris 24 Sat Apr 13 23:38:54 2002 
1 9.999999999999999547e-07 1.000000000000000036e-10 
body $-1 $1 $-1 $-1 #
lump $-1 $-1 $2 $0 #
shell $-1 $-1 $-1 $3 $-1 $1 #
face $-1 $4 $5 $2 $-1 $6 forward single #
face $-1 $7 $8 $2 $-1 $9 forward single #
loop $-1 $-1 $10 $3 #
plane-surface $-1 0 2.5 10 0 0 1 1 0 0 forward_v I I I I #
face $-1 $11 $12 $2 $-1 $13 forward single #
loop $-1 $-1 $14 $4 #
plane-surface $-1 -2.5 2.5 15 1 0 0 0 0 -1 forward_v I I I I #
coedge $-1 $15 $16 $17 $18 reversed $5 $-1 #
face $-1 $19 $20 $2 $-1 $21 forward single #
loop $-1 $-1 $22 $7 #
plane-surface $-1 2.5 2.5 15 -1 0 0 0 0 1 forward_v I I I I #
coedge $-1 $23 $24 $25 $26 reversed $8 $-1 #
coedge $-1 $27 $10 $28 $29 reversed $5 $-1 #
coedge $-1 $10 $27 $30 $31 reversed $5 $-1 #
coedge $-1 $22 $32 $10 $18 forward $12 $-1 #
edge $-1 $33 -2.5 $34 2.5 $17 $35 forward 7 unknown #
face $-1 $36 $37 $2 $-1 $38 forward single #
loop $-1 $-1 $39 $11 #
plane-surface $-1 2.5 0 0 0 -1 0 0 0 -1 forward_v I I I I #
coedge $-1 $40 $17 $39 $41 reversed $12 $-1 #
coedge $-1 $42 $14 $43 $44 reversed $8 $-1 #
coedge $-1 $14 $42 $27 $45 forward $8 $-1 #
coedge $-1 $28 $46 $14 $26 forward $47 $-1 #
edge $-1 $48 -12.5 $49 -2.5 $25 $50 forward 7 unknown #
coedge $-1 $16 $15 $24 $45 reversed $5 $-1 #
coedge $-1 $51 $25 $15 $29 forward $47 $-1 #
edge $-1 $49 -1.25 $33 3.75 $28 $52 forward 7 unknown #
coedge $-1 $53 $39 $16 $31 forward $20 $-1 #
edge $-1 $34 -1.25 $54 3.75 $30 $55 forward 7 unknown #
coedge $-1 $17 $40 $51 $56 reversed $12 $-1 #
vertex $-1 $29 $57 #
vertex $-1 $31 $58 #
straight-curve $-1 2.5 2.5 10 0 -1 0 I I #
face $-1 $59 $60 $2 $-1 $61 forward single #
loop $-1 $-1 $62 $19 #
plane-surface $-1 -2.5 -25 0 0 1 0 0 0 1 forward_v I I I I #
coedge $-1 $30 $63 $22 $41 forward $20 $-1 #
coedge $-1 $32 $22 $64 $65 reversed $12 $-1 #
edge $-1 $66 -12.5 $34 -2.5 $39 $67 forward 7 unknown #
coedge $-1 $24 $23 $53 $68 reversed $8 $-1 #
coedge $-1 $69 $70 $23 $44 forward $71 $-1 #
edge $-1 $72 -1.25 $48 3.75 $43 $73 forward 7 unknown #
edge $-1 $54 -2.5 $49 2.5 $24 $74 forward 7 unknown #
coedge $-1 $25 $75 $69 $76 reversed $47 $-1 #
loop $-1 $-1 $51 $77 #
vertex $-1 $26 $78 #
vertex $-1 $29 $79 #
straight-curve $-1 -2.5 5 7.5 0 0 -1 I I #
coedge $-1 $80 $28 $32 $56 forward $47 $-1 #
straight-curve $-1 -1.25 5 10 1 0 0 I I #
coedge $-1 $81 $30 $42 $68 forward $20 $-1 #
vertex $-1 $31 $82 #
straight-curve $-1 1.25 0 10 -1 0 0 I I #
edge $-1 $33 2.5 $83 12.5 $51 $84 forward 7 unknown #
point $-1 2.5 5 10 #
point $-1 2.5 0 10 #
face $-1 $85 $86 $2 $-1 $87 forward single #
loop $-1 $-1 $88 $36 #
plane-surface $-1 -2.5 -15 0 0 -1 0 0 0 -1 forward_v I I I I #
coedge $-1 $89 $90 $91 $92 reversed $37 $-1 #
coedge $-1 $39 $93 $94 $95 reversed $20 $-1 #
coedge $-1 $94 $96 $40 $65 forward $71 $-1 #
edge $-1 $83 -3.75 $66 1.25 $64 $97 forward 7 unknown #
vertex $-1 $65 $98 #
straight-curve $-1 2.5 0 7.5 0 0 -1 I I #
edge $-1 $54 2.5 $72 12.5 $53 $99 forward 7 unknown #
coedge $-1 $100 $43 $46 $76 forward $71 $-1 #
coedge $-1 $43 $101 $81 $102 forward $71 $-1 #
loop $-1 $103 $64 $104 #
vertex $-1 $102 $105 #
straight-curve $-1 -2.5 1.25 20 0 1 0 I I #
straight-curve $-1 -2.5 2.5 10 0 1 0 I I #
coedge $-1 $46 $106 $107 $108 reversed $47 $-1 #
edge $-1 $48 1.25 $109 8.75 $69 $110 forward 7 unknown #
face $-1 $111 $47 $2 $-1 $112 forward single #
point $-1 -2.5 5 20 #
point $-1 -2.5 5 10 #
coedge $-1 $113 $51 $96 $114 reversed $47 $-1 #
coedge $-1 $115 $53 $70 $102 reversed $20 $-1 #
point $-1 -2.5 0 10 #
vertex $-1 $114 $116 #
straight-curve $-1 2.5 5 7.5 0 0 1 I I #
face $-1 $117 $118 $2 $-1 $119 forward single #
loop $-1 $-1 $120 $59 #
plane-surface $-1 5 -20 0 -1 0 0 0 0 1 forward_v I I I I #
coedge $-1 $121 $122 $123 $124 reversed $60 $-1 #
coedge $-1 $125 $62 $126 $127 reversed $37 $-1 #
coedge $-1 $62 $125 $128 $129 reversed $37 $-1 #
coedge $-1 $130 $131 $62 $92 forward $132 $-1 #
edge $-1 $133 -20 $134 20 $91 $135 forward 7 unknown #
coedge $-1 $63 $136 $137 $138 reversed $20 $-1 #
coedge $-1 $139 $64 $63 $95 forward $71 $-1 #
edge $-1 $66 1.25 $140 8.75 $94 $141 forward 7 unknown #
coedge $-1 $64 $142 $80 $114 forward $71 $-1 #
straight-curve $-1 2.5 1.25 20 0 -1 0 I I #
point $-1 2.5 0 20 #
straight-curve $-1 -2.5 0 7.5 0 0 1 I I #
coedge $-1 $143 $69 $144 $145 forward $71 $-1 #
coedge $-1 $70 $146 $147 $148 forward $71 $-1 #
edge $-1 $149 -6.25 $72 -3.75 $70 $141 forward 7 unknown #
loop $-1 $-1 $150 $104 #
face $-1 $151 $71 $2 $-1 $152 forward single #
point $-1 -2.5 0 20 #
coedge $-1 $75 $113 $153 $154 reversed $47 $-1 #
coedge $-1 $155 $144 $75 $108 forward $118 $-1 #
edge $-1 $109 -20 $156 20 $107 $157 forward 7 unknown #
vertex $-1 $108 $158 #
straight-curve $-1 -1.25 5 20 -1 0 0 I I #
face $-1 $159 $160 $2 $-1 $161 forward single #
plane-surface $-1 -2.5 5 0 0 1 0 0 0 1 forward_v I I I I #
coedge $-1 $106 $80 $162 $163 forward $47 $-1 #
edge $-1 $164 -6.25 $83 -3.75 $96 $110 forward 7 unknown #
coedge $-1 $136 $81 $165 $166 forward $20 $-1 #
point $-1 2.5 5 20 #
face $-1 $167 $132 $2 $-1 $119 forward single #
loop $-1 $-1 $168 $85 #
plane-surface $-1 -10 0 0 -1 0 0 0 0 1 forward_v I I I I #
coedge $-1 $169 $170 $125 $171 reversed $86 $-1 #
coedge $-1 $172 $88 $143 $173 reversed $60 $-1 #
coedge $-1 $88 $172 $174 $175 reversed $60 $-1 #
coedge $-1 $170 $169 $88 $124 forward $86 $-1 #
edge $-1 $176 -20 $177 20 $123 $178 forward 7 unknown #
coedge $-1 $90 $89 $120 $171 forward $37 $-1 #
coedge $-1 $179 $180 $89 $127 forward $71 $-1 #
edge $-1 $181 -6.25 $133 8.75 $126 $182 forward 7 unknown #
coedge $-1 $183 $184 $90 $129 forward $185 $-1 #
edge $-1 $134 -8.75 $186 6.25 $128 $187 forward 7 unknown #
coedge $-1 $188 $91 $184 $189 reversed $132 $-1 #
coedge $-1 $91 $188 $179 $190 reversed $132 $-1 #
loop $-1 $-1 $91 $117 #
vertex $-1 $92 $191 #
vertex $-1 $189 $192 #
straight-curve $-1 -10 -25 0 0 0 -1 I I #
coedge $-1 $93 $115 $193 $194 reversed $20 $-1 #
coedge $-1 $195 $196 $93 $138 forward $197 $-1 #
edge $-1 $140 -20 $198 20 $137 $199 forward 7 unknown #
coedge $-1 $200 $94 $196 $201 forward $71 $-1 #
vertex $-1 $138 $202 #
straight-curve $-1 1.25 0 20 1 0 0 I I #
coedge $-1 $96 $203 $204 $205 forward $71 $-1 #
coedge $-1 $180 $100 $121 $173 forward $71 $-1 #
coedge $-1 $107 $168 $100 $145 reversed $118 $-1 #
edge $-1 $109 -5 $206 15 $100 $207 forward 7 unknown #
coedge $-1 $101 $208 $209 $210 forward $71 $-1 #
coedge $-1 $211 $165 $101 $148 reversed $212 $-1 #
edge $-1 $213 -7.5 $149 2.5 $101 $214 forward 7 unknown #
vertex $-1 $148 $215 #
coedge $-1 $216 $217 $218 $219 forward $103 $-1 #
face $-1 $220 $185 $2 $-1 $221 reversed single #
plane-surface $-1 0 0 20 0 0 1 1 0 0 forward_v I I I I #
coedge $-1 $222 $223 $106 $154 forward $185 $-1 #
edge $-1 $156 -8.75 $224 6.25 $153 $225 forward 7 unknown #
coedge $-1 $168 $107 $223 $226 reversed $118 $-1 #
vertex $-1 $226 $227 #
straight-curve $-1 -10 5 0 0 0 -1 I I #
point $-1 -10 5 20 #
face $-1 $228 $229 $2 $-1 $230 forward single #
loop $-1 $-1 $231 $111 #
plane-surface $-1 -2.5 15 0 0 -1 0 0 0 -1 forward_v I I I I #
coedge $-1 $204 $232 $113 $163 reversed $229 $-1 #
edge $-1 $164 -20 $224 20 $162 $233 forward 7 unknown #
vertex $-1 $114 $234 #
coedge $-1 $147 $235 $115 $166 reversed $212 $-1 #
edge $-1 $149 -20 $236 20 $115 $237 forward 7 unknown #
face $-1 $238 $239 $2 $-1 $240 forward single #
coedge $-1 $144 $155 $172 $241 forward $118 $-1 #
coedge $-1 $123 $120 $180 $242 reversed $86 $-1 #
coedge $-1 $120 $123 $183 $243 reversed $86 $-1 #
edge $-1 $181 -20 $186 20 $120 $244 forward 7 unknown #
coedge $-1 $122 $121 $168 $241 reversed $60 $-1 #
edge $-1 $206 -8.75 $176 6.25 $143 $245 forward 7 unknown #
coedge $-1 $223 $183 $122 $175 forward $185 $-1 #
edge $-1 $177 -6.25 $246 8.75 $174 $247 forward 7 unknown #
vertex $-1 $173 $248 #
vertex $-1 $175 $249 #
straight-curve $-1 5 -15 0 0 0 -1 I I #
coedge $-1 $250 $126 $131 $190 forward $71 $-1 #
coedge $-1 $126 $143 $169 $242 forward $71 $-1 #
vertex $-1 $127 $251 #
straight-curve $-1 -1.25 -25 20 -1 0 0 I I #
coedge $-1 $174 $128 $170 $243 forward $185 $-1 #
coedge $-1 $128 $252 $130 $189 forward $185 $-1 #
loop $-1 $253 $174 $151 #
vertex $-1 $129 $254 #
straight-curve $-1 -1.25 -25 -20 1 0 0 I I #
coedge $-1 $131 $130 $255 $256 reversed $132 $-1 #
edge $-1 $257 -30 $134 -25 $184 $258 forward 7 unknown #
edge $-1 $133 25 $259 30 $179 $207 forward 7 unknown #
point $-1 -10 -25 20 #
point $-1 -10 -25 -20 #
coedge $-1 $260 $261 $136 $194 forward $253 $-1 #
edge $-1 $198 -8.75 $236 6.25 $193 $262 forward 7 unknown #
coedge $-1 $263 $137 $261 $264 reversed $197 $-1 #
coedge $-1 $137 $263 $139 $201 reversed $197 $-1 #
loop $-1 $-1 $137 $265 #
vertex $-1 $264 $266 #
straight-curve $-1 10 0 0 0 0 -1 I I #
coedge $-1 $267 $139 $268 $269 forward $71 $-1 #
edge $-1 $140 0 $270 20 $139 $271 forward 7 unknown #
point $-1 10 0 20 #
coedge $-1 $142 $272 $273 $274 forward $71 $-1 #
coedge $-1 $275 $162 $142 $205 reversed $229 $-1 #
edge $-1 $276 -10 $164 0 $142 $277 forward 7 unknown #
vertex $-1 $145 $278 #
straight-curve $-1 -10 0 20 0 -1 0 I I #
coedge $-1 $146 $279 $280 $281 forward $71 $-1 #
coedge $-1 $282 $283 $146 $210 reversed $239 $-1 #
edge $-1 $284 -8.75 $213 6.25 $146 $285 forward 7 unknown #
coedge $-1 $235 $147 $283 $286 forward $212 $-1 #
loop $-1 $-1 $165 $238 #
vertex $-1 $210 $287 #
straight-curve $-1 -5 -2.5 20 0 1 0 I I #
point $-1 -5 0 20 #
coedge $-1 $288 $150 $289 $290 forward $103 $-1 #
coedge $-1 $150 $288 $291 $292 forward $103 $-1 #
coedge $-1 $293 $294 $150 $219 reversed $295 $-1 #
edge $-1 $296 -40 $297 40 $218 $298 forward 7 unknown #
face $-1 $299 $300 $2 $-1 $301 reversed single #
plane-surface $-1 0 0 -20 0 0 1 1 0 0 forward_v I I I I #
coedge $-1 $302 $153 $232 $303 forward $185 $-1 #
coedge $-1 $153 $174 $155 $226 forward $185 $-1 #
vertex $-1 $154 $304 #
straight-curve $-1 -1.25 5 -20 1 0 0 I I #
edge $-1 $246 -15 $156 5 $223 $258 forward 7 unknown #
point $-1 -10 5 -20 #
face $-1 $305 $306 $2 $-1 $119 forward single #
loop $-1 $-1 $162 $159 #
plane-surface $-1 5 10 0 -1 0 0 0 0 1 forward_v I I I I #
coedge $-1 $273 $307 $275 $308 reversed $160 $-1 #
coedge $-1 $162 $275 $222 $303 reversed $229 $-1 #
straight-curve $-1 5 5 0 0 0 -1 I I #
point $-1 5 5 20 #
coedge $-1 $165 $211 $260 $309 reversed $212 $-1 #
vertex $-1 $309 $310 #
straight-curve $-1 -5 0 0 0 0 -1 I I #
face $-1 $311 $212 $2 $-1 $312 forward single #
loop $-1 $-1 $283 $167 #
plane-surface $-1 2.5 -10 0 0 1 0 0 0 1 forward_v I I I I #
edge $-1 $246 -20 $206 20 $168 $313 forward 7 unknown #
edge $-1 $176 5 $181 15 $180 $314 forward 7 unknown #
edge $-1 $186 -15 $177 -5 $183 $315 forward 7 unknown #
straight-curve $-1 5 -25 0 0 0 -1 I I #
straight-curve $-1 -1.25 -15 20 1 0 0 I I #
vertex $-1 $175 $316 #
straight-curve $-1 -1.25 -15 -20 -1 0 0 I I #
point $-1 5 -15 20 #
point $-1 5 -15 -20 #
coedge $-1 $317 $179 $318 $319 forward $71 $-1 #
point $-1 5 -25 20 #
coedge $-1 $184 $320 $321 $322 forward $185 $-1 #
loop $-1 $323 $324 $151 #
point $-1 5 -25 -20 #
coedge $-1 $321 $318 $188 $256 forward $325 $-1 #
edge $-1 $259 -20 $257 20 $188 $326 forward 7 unknown #
vertex $-1 $322 $327 #
straight-curve $-1 -10 0 -20 0 1 0 I I #
vertex $-1 $319 $328 #
coedge $-1 $324 $193 $235 $309 forward $253 $-1 #
coedge $-1 $193 $329 $195 $264 forward $253 $-1 #
straight-curve $-1 1.25 0 -20 -1 0 0 I I #
coedge $-1 $196 $195 $330 $331 forward $197 $-1 #
edge $-1 $332 -20 $198 0 $261 $333 forward 7 unknown #
face $-1 $77 $197 $2 $-1 $334 forward single #
point $-1 10 0 -20 #
coedge $-1 $335 $200 $336 $337 forward $71 $-1 #
coedge $-1 $330 $338 $200 $269 reversed $339 $-1 #
edge $-1 $270 -8.75 $340 6.25 $200 $341 forward 7 unknown #
vertex $-1 $201 $342 #
straight-curve $-1 10 0 20 0 1 0 I I #
coedge $-1 $203 $343 $344 $345 forward $71 $-1 #
coedge $-1 $346 $231 $203 $274 reversed $160 $-1 #
edge $-1 $347 -8.75 $276 6.25 $203 $348 forward 7 unknown #
coedge $-1 $232 $204 $231 $308 forward $229 $-1 #
vertex $-1 $274 $349 #
straight-curve $-1 5 5 20 0 -1 0 I I #
point $-1 -10 -15 20 #
coedge $-1 $208 $350 $351 $352 forward $71 $-1 #
coedge $-1 $353 $354 $208 $281 reversed $355 $-1 #
edge $-1 $356 -30 $284 -10 $208 $271 forward 7 unknown #
coedge $-1 $357 $209 $354 $358 reversed $239 $-1 #
coedge $-1 $209 $357 $211 $286 reversed $239 $-1 #
vertex $-1 $281 $359 #
straight-curve $-1 1.25 -10 20 -1 0 0 I I #
edge $-1 $213 -20 $360 20 $211 $361 forward 7 unknown #
point $-1 -5 -10 20 #
coedge $-1 $217 $216 $362 $363 forward $103 $-1 #
coedge $-1 $364 $365 $216 $290 reversed $366 $-1 #
edge $-1 $297 -40 $367 40 $289 $368 forward 7 unknown #
coedge $-1 $369 $370 $217 $292 reversed $300 $-1 #
edge $-1 $371 -40 $296 40 $291 $372 forward 7 unknown #
coedge $-1 $373 $218 $370 $374 forward $295 $-1 #
coedge $-1 $218 $373 $364 $375 reversed $295 $-1 #
loop $-1 $-1 $293 $376 #
vertex $-1 $219 $377 #
vertex $-1 $219 $378 #
straight-curve $-1 40 0 20 0 1 0 I I #
face $-1 $379 $380 $2 $-1 $381 reversed single #
loop $-1 $-1 $369 $220 #
plane-surface $-1 0 -40 0 0 1 0 0 0 1 forward_v I I I I #
coedge $-1 $382 $222 $307 $383 forward $185 $-1 #
edge $-1 $224 0 $384 10 $222 $385 forward 7 unknown #
point $-1 5 5 -20 #
face $-1 $386 $339 $2 $-1 $387 forward single #
loop $-1 $-1 $388 $228 #
coedge $-1 $231 $346 $302 $383 reversed $160 $-1 #
edge $-1 $276 -20 $384 20 $275 $389 forward 7 unknown #
edge $-1 $236 -2.5 $360 7.5 $260 $390 forward 7 unknown #
point $-1 -5 0 -20 #
face $-1 $265 $355 $2 $-1 $334 forward single #
plane-surface $-1 -5 -5 0 1 0 0 0 0 -1 forward_v I I I I #
straight-curve $-1 -10 -15 0 0 0 1 I I #
straight-curve $-1 5 -10 20 0 -1 0 I I #
straight-curve $-1 5 -10 -20 0 1 0 I I #
point $-1 -10 -15 -20 #
coedge $-1 $343 $250 $391 $392 forward $71 $-1 #
coedge $-1 $255 $393 $250 $319 reversed $325 $-1 #
edge $-1 $259 0 $394 20 $250 $395 forward 7 unknown #
coedge $-1 $252 $396 $397 $398 forward $185 $-1 #
coedge $-1 $393 $255 $252 $322 reversed $325 $-1 #
edge $-1 $399 -20 $257 0 $252 $400 forward 7 unknown #
loop $-1 $-1 $401 $151 #
coedge $-1 $402 $260 $357 $403 forward $253 $-1 #
loop $-1 $-1 $393 $404 #
straight-curve $-1 -10 -30 0 0 0 -1 I I #
point $-1 -10 -30 -20 #
point $-1 -10 -30 20 #
coedge $-1 $261 $405 $406 $407 forward $253 $-1 #
coedge $-1 $406 $268 $263 $331 reversed $339 $-1 #
edge $-1 $332 -20 $270 20 $263 $408 forward 7 unknown #
vertex $-1 $407 $409 #
straight-curve $-1 10 0 -20 0 -1 0 I I #
plane-surface $-1 10 0 0 1 0 0 0 0 -1 forward_v I I I I #
coedge $-1 $350 $267 $410 $411 forward $71 $-1 #
coedge $-1 $412 $413 $267 $337 reversed $414 $-1 #
edge $-1 $340 7.5 $415 17.5 $267 $416 forward 7 unknown #
coedge $-1 $268 $406 $412 $417 reversed $339 $-1 #
loop $-1 $-1 $338 $305 #
vertex $-1 $269 $418 #
straight-curve $-1 1.25 20 20 -1 0 0 I I #
point $-1 10 20 20 #
coedge $-1 $272 $317 $419 $420 forward $71 $-1 #
coedge $-1 $421 $388 $272 $345 reversed $306 $-1 #
edge $-1 $422 -30 $347 -15 $272 $207 forward 7 unknown #
coedge $-1 $307 $273 $388 $423 reversed $160 $-1 #
vertex $-1 $345 $424 #
straight-curve $-1 -1.25 15 20 1 0 0 I I #
point $-1 5 15 20 #
coedge $-1 $279 $335 $425 $426 forward $71 $-1 #
coedge $-1 $427 $428 $279 $352 reversed $429 $-1 #
edge $-1 $430 -20 $356 0 $279 $431 forward 7 unknown #
coedge $-1 $432 $280 $428 $433 forward $355 $-1 #
coedge $-1 $280 $432 $282 $358 forward $355 $-1 #
loop $-1 $-1 $354 $311 #
vertex $-1 $352 $434 #
coedge $-1 $283 $282 $324 $403 reversed $239 $-1 #
edge $-1 $435 -20 $284 20 $354 $436 forward 7 unknown #
point $-1 10 -10 20 #
vertex $-1 $403 $437 #
straight-curve $-1 -5 -10 0 0 0 -1 I I #
coedge $-1 $438 $439 $288 $363 reversed $380 $-1 #
edge $-1 $367 -40 $371 40 $362 $440 forward 7 unknown #
coedge $-1 $441 $289 $294 $375 forward $366 $-1 #
coedge $-1 $289 $441 $438 $442 reversed $366 $-1 #
loop $-1 $-1 $364 $379 #
vertex $-1 $290 $443 #
straight-curve $-1 0 40 20 -1 0 0 I I #
coedge $-1 $444 $291 $439 $445 forward $300 $-1 #
coedge $-1 $291 $444 $293 $374 reversed $300 $-1 #
vertex $-1 $363 $446 #
straight-curve $-1 0 -40 20 1 0 0 I I #
coedge $-1 $294 $293 $401 $447 reversed $295 $-1 #
edge $-1 $296 -20 $448 20 $293 $449 forward 7 unknown #
edge $-1 $297 -20 $450 20 $294 $451 forward 7 unknown #
face $-1 $-1 $295 $2 $-1 $452 reversed single #
point $-1 40 -40 20 #
point $-1 40 40 20 #
face $-1 $376 $366 $2 $-1 $453 reversed single #
loop $-1 $-1 $438 $299 #
plane-surface $-1 -40 0 0 1 0 0 0 0 -1 forward_v I I I I #
coedge $-1 $396 $302 $454 $455 forward $185 $-1 #
edge $-1 $384 -6.25 $456 8.75 $302 $457 forward 7 unknown #
vertex $-1 $383 $458 #
straight-curve $-1 5 5 -20 0 1 0 I I #
face $-1 $404 $414 $2 $-1 $459 forward single #
plane-surface $-1 2.5 20 0 0 1 0 0 0 1 forward_v I I I I #
coedge $-1 $344 $454 $346 $423 forward $306 $-1 #
straight-curve $-1 5 15 0 0 0 -1 I I #
straight-curve $-1 -5 -2.5 -20 0 -1 0 I I #
coedge $-1 $460 $461 $317 $392 reversed $462 $-1 #
edge $-1 $394 -30 $463 30 $317 $464 forward 7 unknown #
coedge $-1 $318 $321 $460 $465 reversed $325 $-1 #
vertex $-1 $319 $466 #
straight-curve $-1 -10 -30 20 -1 0 0 I I #
coedge $-1 $320 $382 $467 $468 forward $185 $-1 #
coedge $-1 $461 $460 $320 $398 reversed $462 $-1 #
edge $-1 $469 -30 $399 30 $320 $470 forward 7 unknown #
vertex $-1 $322 $471 #
straight-curve $-1 -10 -30 -20 1 0 0 I I #
coedge $-1 $472 $473 $373 $447 forward $323 $-1 #
coedge $-1 $474 $324 $432 $475 forward $253 $-1 #
edge $-1 $360 -6.25 $435 8.75 $324 $476 forward 7 unknown #
face $-1 $477 $325 $2 $-1 $478 forward single #
coedge $-1 $329 $479 $480 $481 forward $253 $-1 #
coedge $-1 $338 $330 $329 $407 reversed $339 $-1 #
edge $-1 $482 -6.25 $332 8.75 $329 $483 forward 7 unknown #
straight-curve $-1 10 20 0 0 0 1 I I #
point $-1 10 20 -20 #
coedge $-1 $484 $485 $335 $411 reversed $486 $-1 #
edge $-1 $415 -6.25 $487 28.75 $335 $488 forward 7 unknown #
coedge $-1 $480 $336 $338 $417 forward $414 $-1 #
coedge $-1 $336 $480 $484 $489 reversed $414 $-1 #
loop $-1 $-1 $413 $386 #
vertex $-1 $337 $490 #
straight-curve $-1 -5 12.5 20 0 1 0 I I #
edge $-1 $340 -20 $482 20 $412 $491 forward 7 unknown #
point $-1 -5 20 20 #
coedge $-1 $492 $493 $343 $420 reversed $494 $-1 #
edge $-1 $463 -20 $422 0 $343 $495 forward 7 unknown #
coedge $-1 $454 $344 $493 $496 forward $306 $-1 #
vertex $-1 $420 $497 #
edge $-1 $456 -20 $347 20 $388 $498 forward 7 unknown #
point $-1 -10 15 20 #
coedge $-1 $499 $500 $350 $426 reversed $501 $-1 #
edge $-1 $487 -30 $430 30 $350 $502 forward 7 unknown #
coedge $-1 $503 $351 $500 $504 forward $429 $-1 #
coedge $-1 $351 $503 $353 $433 reversed $429 $-1 #
loop $-1 $-1 $428 $505 #
vertex $-1 $352 $506 #
straight-curve $-1 10 -30 20 -1 0 0 I I #
coedge $-1 $354 $353 $402 $475 reversed $355 $-1 #
edge $-1 $356 -20 $507 20 $353 $508 forward 7 unknown #
point $-1 10 -30 20 #
vertex $-1 $403 $509 #
straight-curve $-1 10 -10 0 0 0 1 I I #
point $-1 -5 -10 -20 #
coedge $-1 $510 $362 $365 $442 forward $380 $-1 #
coedge $-1 $362 $510 $369 $445 reversed $380 $-1 #
straight-curve $-1 -40 0 20 0 -1 0 I I #
coedge $-1 $365 $364 $473 $511 reversed $366 $-1 #
edge $-1 $367 -20 $512 20 $365 $513 forward 7 unknown #
point $-1 -40 40 20 #
coedge $-1 $370 $369 $472 $514 reversed $300 $-1 #
edge $-1 $371 -20 $515 20 $439 $516 forward 7 unknown #
point $-1 -40 -40 20 #
edge $-1 $450 -40 $448 40 $373 $517 forward 7 unknown #
vertex $-1 $374 $518 #
straight-curve $-1 40 -40 0 0 0 -1 I I #
vertex $-1 $447 $519 #
straight-curve $-1 40 40 0 0 0 -1 I I #
plane-surface $-1 40 0 0 -1 0 0 0 0 1 forward_v I I I I #
plane-surface $-1 0 40 0 0 -1 0 0 0 -1 forward_v I I I I #
coedge $-1 $388 $421 $382 $455 reversed $306 $-1 #
edge $-1 $456 15 $520 30 $382 $258 forward 7 unknown #
vertex $-1 $383 $521 #
straight-curve $-1 -1.25 15 -20 -1 0 0 I I #
point $-1 5 15 -20 #
plane-surface $-1 -5 25 0 1 0 0 0 0 -1 forward_v I I I I #
coedge $-1 $397 $391 $393 $465 forward $462 $-1 #
coedge $-1 $391 $397 $492 $522 reversed $462 $-1 #
loop $-1 $-1 $461 $477 #
vertex $-1 $392 $523 #
straight-curve $-1 -30 0 20 0 1 0 I I #
edge $-1 $394 -20 $399 20 $460 $524 forward 7 unknown #
point $-1 -30 -30 20 #
coedge $-1 $493 $492 $396 $468 reversed $494 $-1 #
edge $-1 $520 0 $469 20 $396 $525 forward 7 unknown #
vertex $-1 $398 $526 #
straight-curve $-1 -30 0 -20 0 -1 0 I I #
point $-1 -30 -30 -20 #
coedge $-1 $527 $401 $444 $514 forward $323 $-1 #
coedge $-1 $401 $527 $441 $511 forward $323 $-1 #
coedge $-1 $528 $402 $503 $529 forward $253 $-1 #
edge $-1 $435 10 $507 30 $402 $333 forward 7 unknown #
straight-curve $-1 1.25 -10 -20 1 0 0 I I #
face $-1 $530 $462 $2 $-1 $531 forward single #
plane-surface $-1 -20 -30 0 0 1 0 0 0 1 forward_v I I I I #
coedge $-1 $405 $528 $532 $533 forward $253 $-1 #
coedge $-1 $413 $412 $405 $481 reversed $414 $-1 #
edge $-1 $534 -17.5 $482 -7.5 $405 $535 forward 7 unknown #
vertex $-1 $407 $536 #
straight-curve $-1 1.25 20 -20 1 0 0 I I #
coedge $-1 $532 $410 $413 $489 forward $486 $-1 #
coedge $-1 $410 $532 $499 $537 reversed $486 $-1 #
loop $-1 $-1 $485 $538 #
vertex $-1 $411 $539 #
straight-curve $-1 1.25 30 20 1 0 0 I I #
edge $-1 $415 -20 $534 20 $484 $540 forward 7 unknown #
point $-1 -5 30 20 #
straight-curve $-1 -5 20 0 0 0 -1 I I #
coedge $-1 $467 $419 $461 $522 forward $494 $-1 #
coedge $-1 $419 $467 $421 $496 reversed $494 $-1 #
loop $-1 $-1 $493 $530 #
straight-curve $-1 -10 30 20 1 0 0 I I #
edge $-1 $422 -20 $520 20 $421 $541 forward 7 unknown #
point $-1 -10 30 20 #
straight-curve $-1 -10 15 0 0 0 1 I I #
coedge $-1 $542 $425 $485 $537 forward $501 $-1 #
coedge $-1 $425 $542 $427 $504 reversed $501 $-1 #
loop $-1 $-1 $500 $543 #
straight-curve $-1 30 0 20 0 -1 0 I I #
coedge $-1 $428 $427 $474 $529 reversed $429 $-1 #
edge $-1 $430 -20 $544 20 $500 $545 forward 7 unknown #
face $-1 $538 $429 $2 $-1 $546 forward single #
point $-1 30 -30 20 #
vertex $-1 $529 $547 #
straight-curve $-1 10 -30 0 0 0 -1 I I #
point $-1 10 -10 -20 #
coedge $-1 $439 $438 $527 $548 reversed $380 $-1 #
edge $-1 $512 -40 $450 40 $441 $549 forward 7 unknown #
vertex $-1 $511 $550 #
straight-curve $-1 -40 40 0 0 0 -1 I I #
edge $-1 $448 -40 $515 40 $444 $551 forward 7 unknown #
vertex $-1 $548 $552 #
straight-curve $-1 -40 -40 0 0 0 -1 I I #
straight-curve $-1 40 0 -20 0 -1 0 I I #
point $-1 40 -40 -20 #
point $-1 40 40 -20 #
vertex $-1 $468 $553 #
point $-1 -10 15 -20 #
edge $-1 $463 -20 $469 20 $492 $554 forward 7 unknown #
point $-1 -30 30 20 #
straight-curve $-1 -30 -30 0 0 0 -1 I I #
straight-curve $-1 -10 30 -20 -1 0 0 I I #
point $-1 -30 30 -20 #
coedge $-1 $473 $472 $510 $548 forward $323 $-1 #
coedge $-1 $479 $474 $542 $555 forward $253 $-1 #
edge $-1 $507 0 $544 20 $474 $556 forward 7 unknown #
face $-1 $505 $494 $2 $-1 $557 forward single #
plane-surface $-1 -30 0 0 1 0 0 0 0 -1 forward_v I I I I #
coedge $-1 $485 $484 $479 $533 reversed $486 $-1 #
edge $-1 $558 -28.75 $534 6.25 $479 $559 forward 7 unknown #
vertex $-1 $481 $560 #
straight-curve $-1 -5 12.5 -20 0 -1 0 I I #
point $-1 -5 20 -20 #
edge $-1 $487 -20 $558 20 $499 $561 forward 7 unknown #
face $-1 $543 $486 $2 $-1 $562 forward single #
point $-1 30 30 20 #
straight-curve $-1 -5 30 0 0 0 -1 I I #
straight-curve $-1 -10 30 0 0 0 -1 I I #
coedge $-1 $500 $499 $528 $555 reversed $501 $-1 #
face $-1 $104 $501 $2 $-1 $563 forward single #
vertex $-1 $529 $564 #
straight-curve $-1 30 -30 0 0 0 -1 I I #
plane-surface $-1 20 -30 0 0 1 0 0 0 1 forward_v I I I I #
point $-1 10 -30 -20 #
edge $-1 $515 -40 $512 40 $510 $565 forward 7 unknown #
straight-curve $-1 0 40 -20 1 0 0 I I #
point $-1 -40 40 -20 #
straight-curve $-1 0 -40 -20 -1 0 0 I I #
point $-1 -40 -40 -20 #
point $-1 -10 30 -20 #
straight-curve $-1 -30 30 0 0 0 -1 I I #
edge $-1 $544 -30 $558 30 $528 $566 forward 7 unknown #
straight-curve $-1 10 -30 -20 1 0 0 I I #
plane-surface $-1 -20 30 0 0 -1 0 0 0 -1 forward_v I I I I #
vertex $-1 $533 $567 #
straight-curve $-1 1.25 30 -20 -1 0 0 I I #
point $-1 -5 30 -20 #
straight-curve $-1 30 30 0 0 0 -1 I I #
plane-surface $-1 20 30 0 0 -1 0 0 0 -1 forward_v I I I I #
plane-surface $-1 30 0 0 -1 0 0 0 0 1 forward_v I I I I #
point $-1 30 -30 -20 #
straight-curve $-1 -40 0 -20 0 1 0 I I #
straight-curve $-1 30 0 -20 0 1 0 I I #
point $-1 30 30 -20 #
End-of-ACIS-data 