600 0 2 0           
24 FBMach with ACIS - 6.0.3 13 ACIS 6.0.3 NT 24 Wed May 23 20:18:57 2001 
1 9.9999999999999995e-007 1e-010 
body $2 $3 $-1 $4 #
bdycol-kcp $-1 1 4 $5 $6 $7 $8 #
model_id-kcp-attrib $-1 $-1 $-1 $0 1 990663536 80 -699400191 1 #
lump $-1 $-1 $9 $0 #
transform $-1 1 0 0 0 1 0 0 0 1 0 0 0 1 no_rotate no_reflect no_shear #
body $10 $11 $-1 $12 #
body $13 $14 $-1 $15 #
body $16 $17 $-1 $18 #
body $19 $20 $-1 $21 #
shell $-1 $-1 $-1 $22 $-1 $3 #
model_id-kcp-attrib $-1 $-1 $-1 $5 1 990663536 80 -699400190 1 #
lump $-1 $-1 $23 $5 #
transform $-1 1 0 0 0 1 0 0 0 1 0 0 0 1 no_rotate no_reflect no_shear #
rgb_color-st-attrib $-1 $24 $-1 $6 0.5 1 1 #
lump $-1 $-1 $25 $6 #
transform $-1 1 0 0 0 1 0 0 0 1 0 0 0 1 no_rotate no_reflect no_shear #
rgb_color-st-attrib $-1 $26 $-1 $7 0.5 1 1 #
lump $-1 $-1 $27 $7 #
transform $-1 1 0 0 0 1 0 0 0 1 0 0 0 1 no_rotate no_reflect no_shear #
rgb_color-st-attrib $-1 $28 $-1 $8 1 0 0 #
lump $-1 $-1 $29 $8 #
transform $-1 1 0 0 0 1 0 0 0 1 0 2.5 130 1 no_rotate no_reflect no_shear #
face $30 $31 $32 $9 $-1 $33 forward single #
shell $-1 $-1 $-1 $34 $-1 $11 #
model_id-kcp-attrib $-1 $-1 $13 $6 1 990663536 360 -697827325 1 #
shell $-1 $-1 $-1 $35 $-1 $14 #
model_id-kcp-attrib $-1 $-1 $16 $7 1 990663536 430 -693239804 1 #
shell $-1 $-1 $-1 $36 $-1 $17 #
model_id-kcp-attrib $-1 $-1 $19 $8 1 990663536 520 -704118779 1 #
shell $-1 $-1 $-1 $37 $-1 $20 #
model_id-kcp-attrib $-1 $-1 $-1 $22 1 990663536 80 -699400191 2 #
face $38 $39 $40 $9 $-1 $41 forward single #
loop $-1 $-1 $42 $22 #
plane-surface $-1 0 2.5 10 0 0 1 1 0 0 forward_v I I I I #
face $43 $44 $45 $23 $-1 $46 forward single #
face $-1 $47 $48 $25 $-1 $49 forward single #
face $-1 $50 $51 $27 $-1 $52 forward single #
face $-1 $53 $54 $29 $-1 $55 reversed single #
model_id-kcp-attrib $-1 $-1 $-1 $31 1 990663536 80 -699400191 3 #
face $56 $57 $58 $9 $-1 $59 forward single #
loop $-1 $-1 $60 $31 #
plane-surface $-1 -2.5 2.5 15 1 0 0 0 0 -1 forward_v I I I I #
coedge $-1 $61 $62 $63 $64 reversed $32 $-1 #
model_id-kcp-attrib $-1 $-1 $-1 $34 1 990663536 80 -699400190 2 #
face $65 $66 $67 $23 $-1 $68 reversed single #
loop $-1 $-1 $69 $34 #
plane-surface $-1 0 0 20 0 0 1 1 0 0 forward_v I I I I #
face $-1 $70 $71 $25 $-1 $72 forward single #
loop $-1 $-1 $73 $35 #
plane-surface $-1 5 -15 -20 1 0 0 0 0 -1 forward_v I I I I #
face $-1 $74 $75 $27 $-1 $76 forward single #
loop $-1 $-1 $77 $36 #
plane-surface $-1 -5 -10 -20 -1 0 0 0 0 1 forward_v I I I I #
face $-1 $78 $79 $29 $-1 $80 reversed single #
loop $-1 $-1 $81 $37 #
plane-surface $-1 -2.5 0 -115 1 0 0 0 0 -1 forward_v I I I I #
model_id-kcp-attrib $-1 $-1 $-1 $39 1 990663536 80 -699400191 4 #
face $82 $83 $84 $9 $-1 $85 forward single #
loop $-1 $-1 $86 $39 #
plane-surface $-1 2.5 2.5 15 -1 0 0 0 0 1 forward_v I I I I #
coedge $-1 $87 $88 $89 $90 reversed $40 $-1 #
coedge $-1 $91 $42 $92 $93 reversed $32 $-1 #
coedge $-1 $42 $91 $94 $95 reversed $32 $-1 #
coedge $-1 $86 $96 $42 $64 forward $58 $-1 #
edge $-1 $97 -2.5 $98 2.5 $63 $99 forward 7 unknown #
model_id-kcp-attrib $-1 $-1 $-1 $44 1 990663536 80 -699400190 3 #
face $100 $101 $102 $23 $-1 $103 reversed single #
loop $-1 $-1 $104 $44 #
plane-surface $-1 0 0 -20 0 0 1 1 0 0 forward_v I I I I #
coedge $-1 $105 $106 $107 $108 forward $45 $-1 #
face $-1 $109 $110 $25 $-1 $111 forward single #
loop $-1 $-1 $112 $47 #
plane-surface $-1 5 -25 -20 0 -1 0 0 0 -1 forward_v I I I I #
coedge $-1 $113 $114 $115 $116 forward $48 $-1 #
face $-1 $117 $118 $27 $-1 $119 forward single #
loop $-1 $-1 $120 $50 #
plane-surface $-1 -5 0 -20 0 1 0 0 0 1 forward_v I I I I #
coedge $-1 $121 $122 $123 $124 forward $51 $-1 #
face $-1 $125 $126 $29 $-1 $127 forward single #
loop $-1 $-1 $128 $53 #
plane-surface $-1 2.5 0 -115 -1 0 0 0 0 1 forward_v I I I I #
coedge $-1 $129 $130 $131 $132 forward $54 $-1 #
model_id-kcp-attrib $-1 $-1 $-1 $57 1 990663536 80 -699400191 5 #
face $133 $134 $135 $9 $-1 $136 forward single #
loop $-1 $-1 $137 $57 #
plane-surface $-1 2.5 0 0 0 -1 0 0 0 -1 forward_v I I I I #
coedge $-1 $138 $63 $137 $139 reversed $58 $-1 #
coedge $-1 $140 $60 $141 $142 reversed $40 $-1 #
coedge $-1 $60 $140 $91 $143 forward $40 $-1 #
coedge $-1 $92 $144 $60 $90 forward $145 $-1 #
edge $-1 $146 -12.5 $147 -2.5 $89 $148 forward 7 unknown #
coedge $-1 $62 $61 $88 $143 reversed $32 $-1 #
coedge $-1 $149 $89 $61 $93 forward $145 $-1 #
edge $-1 $147 -1.25 $97 3.75 $92 $150 forward 7 unknown #
coedge $-1 $151 $137 $62 $95 forward $84 $-1 #
edge $-1 $98 -1.25 $152 3.75 $94 $153 forward 7 unknown #
coedge $-1 $63 $138 $149 $154 reversed $58 $-1 #
vertex $-1 $93 $155 #
vertex $-1 $95 $156 #
straight-curve $-1 2.5 2.5 10 0 -1 0 I I #
model_id-kcp-attrib $-1 $-1 $-1 $66 1 990663536 80 -699400190 4 #
face $157 $158 $159 $23 $-1 $160 reversed single #
loop $-1 $-1 $161 $66 #
plane-surface $-1 0 -40 0 0 1 0 0 0 1 forward_v I I I I #
coedge $-1 $162 $163 $164 $165 forward $67 $-1 #
coedge $-1 $166 $69 $167 $168 forward $45 $-1 #
coedge $-1 $69 $166 $169 $170 forward $45 $-1 #
coedge $-1 $171 $172 $69 $108 reversed $173 $-1 #
edge $-1 $174 -40 $175 40 $107 $176 forward 7 unknown #
face $-1 $177 $178 $25 $-1 $179 forward single #
loop $-1 $-1 $180 $70 #
plane-surface $-1 -10 -25 -20 1 0 0 0 0 -1 forward_v I I I I #
coedge $-1 $181 $182 $183 $184 forward $71 $-1 #
coedge $-1 $185 $73 $182 $186 reversed $48 $-1 #
coedge $-1 $73 $185 $187 $188 forward $48 $-1 #
coedge $-1 $189 $183 $73 $116 reversed $190 $-1 #
edge $-1 $191 5 $192 15 $73 $193 forward 7 unknown #
face $-1 $194 $195 $27 $-1 $196 forward single #
loop $-1 $-1 $197 $74 #
plane-surface $-1 10 0 -20 -1 0 0 0 0 1 forward_v I I I I #
coedge $-1 $198 $199 $200 $201 forward $75 $-1 #
coedge $-1 $202 $77 $199 $203 reversed $51 $-1 #
coedge $-1 $77 $202 $204 $205 forward $51 $-1 #
coedge $-1 $206 $200 $77 $124 reversed $207 $-1 #
edge $-1 $208 -7.5 $209 2.5 $77 $210 forward 7 unknown #
face $-1 $211 $212 $29 $-1 $213 reversed single #
loop $-1 $-1 $214 $78 #
plane-surface $-1 0 -2.5 -110 0 0 1 1 0 0 forward_v I I I I #
coedge $-1 $215 $216 $217 $218 forward $79 $-1 #
coedge $-1 $219 $81 $220 $221 forward $54 $-1 #
coedge $-1 $81 $219 $222 $223 reversed $54 $-1 #
coedge $-1 $224 $225 $81 $132 reversed $226 $-1 #
edge $-1 $227 52.5 $228 62.5 $131 $229 forward 7 unknown #
model_id-kcp-attrib $-1 $-1 $-1 $83 1 990663536 80 -699400191 6 #
face $230 $231 $232 $9 $-1 $233 forward single #
loop $-1 $-1 $234 $83 #
plane-surface $-1 -2.5 -25 0 0 1 0 0 0 1 forward_v I I I I #
coedge $-1 $94 $235 $86 $139 forward $84 $-1 #
coedge $-1 $96 $86 $236 $237 reversed $58 $-1 #
edge $-1 $238 -12.5 $98 -2.5 $137 $239 forward 7 unknown #
coedge $-1 $88 $87 $151 $240 reversed $40 $-1 #
coedge $-1 $241 $242 $87 $142 forward $243 $-1 #
edge $244 $245 -1.25 $146 3.75 $141 $246 forward 7 unknown #
edge $-1 $152 -2.5 $147 2.5 $88 $247 forward 7 unknown #
coedge $-1 $89 $248 $241 $249 reversed $145 $-1 #
loop $-1 $-1 $149 $250 #
vertex $-1 $90 $251 #
vertex $-1 $93 $252 #
straight-curve $-1 -2.5 5 7.5 0 0 -1 I I #
coedge $-1 $253 $92 $96 $154 forward $145 $-1 #
straight-curve $-1 -1.25 5 10 1 0 0 I I #
coedge $-1 $254 $94 $140 $240 forward $84 $-1 #
vertex $-1 $95 $255 #
straight-curve $-1 1.25 0 10 -1 0 0 I I #
edge $-1 $97 2.5 $256 12.5 $149 $257 forward 7 unknown #
point $-1 2.5 5 10 #
point $-1 2.5 0 10 #
model_id-kcp-attrib $-1 $-1 $-1 $101 1 990663536 80 -699400190 5 #
face $258 $259 $260 $23 $-1 $261 reversed single #
loop $-1 $-1 $262 $101 #
plane-surface $-1 -40 0 0 1 0 0 0 0 -1 forward_v I I I I #
coedge $-1 $263 $169 $264 $265 forward $102 $-1 #
coedge $-1 $266 $104 $263 $267 forward $67 $-1 #
coedge $-1 $104 $266 $268 $269 forward $67 $-1 #
coedge $-1 $172 $171 $104 $165 reversed $173 $-1 #
edge $-1 $270 -40 $271 40 $164 $272 forward 7 unknown #
coedge $-1 $106 $105 $273 $274 forward $45 $-1 #
coedge $-1 $275 $276 $105 $168 reversed $260 $-1 #
edge $-1 $175 -40 $277 40 $167 $278 forward 7 unknown #
coedge $-1 $161 $279 $106 $170 reversed $102 $-1 #
edge $-1 $280 -40 $174 40 $169 $281 forward 7 unknown #
coedge $-1 $164 $107 $279 $282 forward $173 $-1 #
coedge $-1 $107 $164 $275 $283 reversed $173 $-1 #
loop $-1 $-1 $171 $259 #
vertex $-1 $108 $284 #
vertex $-1 $108 $285 #
straight-curve $-1 40 0 20 0 1 0 I I #
face $-1 $286 $287 $25 $-1 $288 forward single #
loop $-1 $-1 $289 $109 #
plane-surface $-1 -10 -30 -20 0 -1 0 0 0 -1 forward_v I I I I #
coedge $-1 $290 $291 $292 $293 forward $110 $-1 #
coedge $-1 $294 $112 $291 $295 reversed $71 $-1 #
coedge $-1 $112 $294 $113 $186 forward $71 $-1 #
coedge $-1 $115 $292 $112 $184 reversed $190 $-1 #
edge $-1 $192 -6.25 $296 8.75 $112 $297 forward 7 unknown #
coedge $-1 $114 $113 $298 $299 forward $48 $-1 #
edge $-1 $300 0 $192 40 $182 $301 forward 7 unknown #
coedge $-1 $302 $303 $114 $188 reversed $304 $-1 #
edge $-1 $305 0 $191 40 $114 $306 forward 7 unknown #
coedge $-1 $307 $115 $303 $308 reversed $190 $-1 #
loop $-1 $-1 $115 $309 #
vertex $-1 $188 $310 #
vertex $-1 $186 $311 #
straight-curve $-1 5 -10 20 0 -1 0 I I #
face $-1 $312 $313 $27 $-1 $314 forward single #
loop $-1 $-1 $315 $117 #
plane-surface $-1 10 20 -20 0 -1 0 0 0 -1 forward_v I I I I #
coedge $-1 $316 $317 $318 $319 forward $118 $-1 #
coedge $-1 $320 $120 $317 $321 reversed $75 $-1 #
coedge $-1 $120 $320 $121 $203 forward $75 $-1 #
coedge $-1 $123 $318 $120 $201 reversed $207 $-1 #
edge $-1 $209 -6.25 $322 8.75 $120 $323 forward 7 unknown #
coedge $-1 $122 $121 $324 $325 forward $51 $-1 #
edge $-1 $326 0 $209 40 $199 $327 forward 7 unknown #
coedge $-1 $328 $329 $122 $205 reversed $330 $-1 #
edge $-1 $331 0 $208 40 $122 $332 forward 7 unknown #
coedge $-1 $333 $123 $329 $334 reversed $207 $-1 #
loop $-1 $-1 $123 $335 #
vertex $-1 $205 $336 #
vertex $-1 $203 $337 #
straight-curve $-1 -5 -2.5 20 0 1 0 I I #
face $-1 $338 $226 $29 $-1 $339 reversed single #
loop $-1 $-1 $220 $125 #
plane-surface $-1 0 0 -120 0 0 1 1 0 0 forward_v I I I I #
coedge $-1 $222 $340 $224 $341 forward $126 $-1 #
coedge $-1 $342 $128 $343 $344 forward $79 $-1 #
coedge $-1 $128 $342 $340 $345 reversed $79 $-1 #
coedge $-1 $346 $347 $128 $218 reversed $348 $-1 #
edge $-1 $349 52.5 $350 62.5 $217 $351 forward 7 unknown #
coedge $-1 $130 $129 $352 $353 forward $54 $-1 #
coedge $-1 $354 $355 $129 $221 reversed $212 $-1 #
edge $356 $228 -2.5 $357 2.5 $220 $358 forward 7 unknown #
coedge $-1 $359 $214 $130 $223 forward $126 $-1 #
edge $-1 $227 -3.75 $360 1.25 $222 $361 forward 7 unknown #
coedge $-1 $362 $131 $214 $341 reversed $226 $-1 #
coedge $-1 $131 $362 $354 $363 reversed $226 $-1 #
loop $-1 $-1 $131 $211 #
vertex $-1 $132 $364 #
vertex $-1 $363 $365 #
straight-curve $-1 -2.5 2.5 -57.5 0 0 -1 I I #
model_id-kcp-attrib $-1 $-1 $-1 $134 1 990663536 80 -699400191 7 #
face $366 $367 $368 $9 $-1 $369 forward single #
loop $-1 $-1 $370 $134 #
plane-surface $-1 -2.5 -15 0 0 -1 0 0 0 -1 forward_v I I I I #
coedge $-1 $371 $372 $373 $374 reversed $135 $-1 #
coedge $-1 $137 $375 $376 $377 reversed $84 $-1 #
coedge $-1 $376 $378 $138 $237 forward $243 $-1 #
edge $379 $256 -3.75 $238 1.25 $236 $380 forward 7 unknown #
vertex $-1 $237 $381 #
straight-curve $-1 2.5 0 7.5 0 0 -1 I I #
edge $-1 $152 2.5 $245 12.5 $151 $382 forward 7 unknown #
coedge $-1 $383 $141 $144 $249 forward $243 $-1 #
coedge $-1 $141 $384 $254 $385 forward $243 $-1 #
loop $-1 $386 $236 $387 #
attrib_edge_convexity-kcp-attrib $-1 $388 $-1 $142 1 #
vertex $-1 $385 $389 #
straight-curve $-1 -2.5 1.25 20 0 1 0 I I #
straight-curve $-1 -2.5 2.5 10 0 1 0 I I #
coedge $-1 $144 $390 $391 $392 reversed $145 $-1 #
edge $393 $146 1.25 $394 8.75 $241 $395 forward 7 unknown #
face $396 $397 $145 $9 $-1 $398 forward single #
point $-1 -2.5 5 20 #
point $-1 -2.5 5 10 #
coedge $-1 $399 $149 $378 $400 reversed $145 $-1 #
coedge $-1 $401 $151 $242 $385 reversed $84 $-1 #
point $-1 -2.5 0 10 #
vertex $-1 $400 $402 #
straight-curve $-1 2.5 5 7.5 0 0 1 I I #
model_id-kcp-attrib $-1 $-1 $-1 $158 1 990663536 80 -699400190 6 #
face $403 $-1 $173 $23 $-1 $404 reversed single #
loop $-1 $-1 $275 $158 #
plane-surface $-1 0 40 0 0 -1 0 0 0 -1 forward_v I I I I #
coedge $-1 $405 $273 $276 $406 forward $159 $-1 #
coedge $-1 $279 $161 $162 $267 reversed $102 $-1 #
coedge $-1 $273 $405 $161 $265 reversed $159 $-1 #
edge $-1 $280 -20 $407 20 $264 $408 forward 7 unknown #
coedge $-1 $163 $162 $405 $409 forward $67 $-1 #
edge $-1 $271 -40 $407 40 $263 $410 forward 7 unknown #
coedge $-1 $276 $275 $163 $269 reversed $260 $-1 #
edge $-1 $411 -40 $270 40 $268 $412 forward 7 unknown #
vertex $-1 $165 $413 #
vertex $-1 $282 $414 #
straight-curve $-1 40 0 -20 0 -1 0 I I #
coedge $-1 $262 $264 $166 $274 reversed $159 $-1 #
edge $-1 $277 -40 $280 40 $273 $415 forward 7 unknown #
coedge $-1 $268 $167 $172 $283 forward $260 $-1 #
coedge $-1 $167 $268 $262 $406 reversed $260 $-1 #
vertex $-1 $168 $416 #
straight-curve $-1 0 40 20 -1 0 0 I I #
coedge $-1 $169 $263 $171 $282 reversed $102 $-1 #
vertex $-1 $274 $417 #
straight-curve $-1 0 -40 20 1 0 0 I I #
edge $-1 $174 -20 $271 20 $171 $418 forward 7 unknown #
edge $-1 $175 -20 $270 20 $172 $419 forward 7 unknown #
point $-1 40 -40 20 #
point $-1 40 40 20 #
face $-1 $420 $421 $25 $-1 $422 forward single #
loop $-1 $-1 $423 $177 #
plane-surface $-1 -30 -30 -20 -1 0 0 0 0 1 forward_v I I I I #
coedge $-1 $424 $425 $426 $427 forward $178 $-1 #
coedge $-1 $428 $180 $425 $429 reversed $110 $-1 #
coedge $-1 $180 $428 $181 $295 forward $110 $-1 #
coedge $-1 $183 $426 $180 $293 reversed $190 $-1 #
edge $-1 $296 25 $430 30 $180 $431 forward 7 unknown #
coedge $-1 $182 $181 $432 $433 forward $71 $-1 #
edge $-1 $434 0 $296 40 $291 $435 forward 7 unknown #
vertex $-1 $295 $436 #
straight-curve $-1 -1.25 -25 20 -1 0 0 I I #
coedge $-1 $432 $437 $185 $299 reversed $438 $-1 #
edge $-1 $300 -15 $305 -5 $185 $439 forward 7 unknown #
vertex $-1 $433 $440 #
straight-curve $-1 5 -25 -20 0 0 1 I I #
coedge $-1 $441 $187 $437 $442 forward $304 $-1 #
coedge $-1 $187 $441 $189 $308 forward $304 $-1 #
loop $-1 $-1 $303 $443 #
vertex $-1 $442 $444 #
straight-curve $-1 5 -15 -20 0 0 1 I I #
coedge $-1 $445 $189 $446 $447 reversed $190 $-1 #
edge $-1 $448 -8.75 $191 6.25 $303 $449 forward 7 unknown #
face $-1 $450 $190 $25 $-1 $451 forward single #
point $-1 5 -15 20 #
point $-1 5 -25 20 #
face $-1 $452 $453 $27 $-1 $454 forward single #
loop $-1 $-1 $455 $194 #
plane-surface $-1 -5 20 -20 -1 0 0 0 0 1 forward_v I I I I #
coedge $-1 $456 $457 $458 $459 forward $195 $-1 #
coedge $-1 $460 $197 $457 $461 reversed $118 $-1 #
coedge $-1 $197 $460 $198 $321 forward $118 $-1 #
coedge $-1 $200 $458 $197 $319 reversed $207 $-1 #
edge $-1 $322 0 $462 20 $197 $463 forward 7 unknown #
coedge $-1 $199 $198 $464 $465 forward $75 $-1 #
edge $-1 $466 0 $322 40 $317 $467 forward 7 unknown #
vertex $-1 $321 $468 #
straight-curve $-1 1.25 0 20 1 0 0 I I #
coedge $-1 $464 $469 $202 $325 reversed $470 $-1 #
edge $-1 $326 -2.5 $331 7.5 $202 $471 forward 7 unknown #
vertex $-1 $465 $472 #
straight-curve $-1 -5 0 -20 0 0 1 I I #
coedge $-1 $473 $204 $469 $474 forward $330 $-1 #
coedge $-1 $204 $473 $206 $334 forward $330 $-1 #
loop $-1 $-1 $329 $475 #
vertex $-1 $474 $476 #
straight-curve $-1 -5 -10 -20 0 0 1 I I #
coedge $-1 $477 $206 $478 $479 reversed $207 $-1 #
edge $-1 $480 -8.75 $208 6.25 $329 $481 forward 7 unknown #
face $-1 $482 $207 $27 $-1 $483 forward single #
point $-1 -5 -10 20 #
point $-1 -5 0 20 #
face $-1 $-1 $348 $29 $-1 $484 reversed single #
plane-surface $-1 0 2.5 0 0 -1 0 0 0 -1 forward_v I I I I #
coedge $-1 $214 $359 $216 $345 forward $126 $-1 #
edge $-1 $485 -2.5 $227 2.5 $224 $486 forward 7 unknown #
coedge $-1 $216 $215 $362 $487 forward $79 $-1 #
coedge $-1 $355 $354 $215 $344 reversed $212 $-1 #
edge $488 $350 -2.5 $489 2.5 $343 $490 forward 7 unknown #
edge $-1 $349 -1.25 $485 3.75 $340 $491 forward 7 unknown #
coedge $-1 $352 $217 $359 $492 reversed $348 $-1 #
coedge $-1 $217 $352 $355 $493 reversed $348 $-1 #
loop $-1 $-1 $352 $338 #
vertex $-1 $218 $494 #
vertex $-1 $493 $495 #
straight-curve $-1 2.5 -2.5 -57.5 0 0 -1 I I #
coedge $-1 $347 $346 $219 $353 reversed $348 $-1 #
edge $-1 $357 -62.5 $360 -52.5 $352 $496 forward 7 unknown #
coedge $-1 $343 $220 $225 $363 forward $212 $-1 #
coedge $-1 $220 $343 $347 $493 forward $212 $-1 #
convexity-sys-attrib $-1 $-1 $-1 $221 #
vertex $-1 $221 $497 #
straight-curve $-1 -2.5 0 -120 0 -1 0 I I #
coedge $-1 $340 $222 $346 $492 forward $126 $-1 #
vertex $-1 $353 $498 #
straight-curve $-1 -2.5 -1.25 -110 0 -1 0 I I #
coedge $-1 $225 $224 $342 $487 reversed $226 $-1 #
edge $499 $228 -2.5 $489 2.5 $225 $500 forward 7 unknown #
point $-1 -2.5 2.5 -110 #
point $-1 -2.5 2.5 -120 #
model_id-kcp-attrib $-1 $-1 $-1 $231 1 990663536 80 -699400191 8 #
face $501 $502 $503 $9 $-1 $504 forward single #
loop $-1 $-1 $505 $231 #
plane-surface $-1 5 -20 0 -1 0 0 0 0 1 forward_v I I I I #
coedge $-1 $506 $507 $508 $509 reversed $232 $-1 #
coedge $-1 $510 $234 $511 $512 reversed $135 $-1 #
coedge $-1 $234 $510 $513 $514 reversed $135 $-1 #
coedge $-1 $515 $516 $234 $374 forward $517 $-1 #
edge $-1 $518 -20 $519 20 $373 $520 forward 7 unknown #
coedge $-1 $235 $521 $522 $523 reversed $84 $-1 #
coedge $-1 $524 $236 $235 $377 forward $243 $-1 #
edge $525 $238 1.25 $526 8.75 $376 $527 forward 7 unknown #
coedge $-1 $236 $528 $253 $400 forward $243 $-1 #
attrib_edge_convexity-kcp-attrib $-1 $529 $-1 $237 1 #
straight-curve $-1 2.5 1.25 20 0 -1 0 I I #
point $-1 2.5 0 20 #
straight-curve $-1 -2.5 0 7.5 0 0 1 I I #
coedge $-1 $530 $241 $531 $532 forward $243 $-1 #
coedge $-1 $242 $533 $534 $535 forward $243 $-1 #
edge $536 $537 -6.25 $245 -3.75 $242 $527 forward 7 unknown #
loop $-1 $-1 $538 $387 #
face $539 $540 $243 $9 $-1 $541 forward single #
convexity-sys-attrib $-1 $-1 $244 $142 #
point $-1 -2.5 0 20 #
coedge $-1 $248 $399 $542 $543 reversed $145 $-1 #
coedge $-1 $544 $531 $248 $392 forward $503 $-1 #
edge $-1 $394 -20 $545 20 $391 $546 forward 7 unknown #
attrib_edge_convexity-kcp-attrib $-1 $547 $-1 $249 1 #
vertex $-1 $392 $548 #
straight-curve $-1 -1.25 5 20 -1 0 0 I I #
model_id-kcp-attrib $-1 $-1 $-1 $250 1 990663536 80 -699400191 15 #
face $549 $550 $551 $9 $-1 $552 forward single #
plane-surface $-1 -2.5 5 0 0 1 0 0 0 1 forward_v I I I I #
coedge $-1 $390 $253 $553 $554 forward $145 $-1 #
edge $555 $556 -6.25 $256 -3.75 $378 $395 forward 7 unknown #
coedge $-1 $521 $254 $557 $558 forward $84 $-1 #
point $-1 2.5 5 20 #
model_id-kcp-attrib $-1 $-1 $-1 $259 1 990663536 80 -699400190 7 #
plane-surface $-1 40 0 0 -1 0 0 0 0 1 forward_v I I I I #
coedge $-1 $264 $262 $266 $409 reversed $159 $-1 #
edge $-1 $277 -20 $411 20 $276 $559 forward 7 unknown #
vertex $-1 $409 $560 #
straight-curve $-1 -40 -40 0 0 0 -1 I I #
edge $-1 $407 -40 $411 40 $405 $561 forward 7 unknown #
straight-curve $-1 0 -40 -20 -1 0 0 I I #
vertex $-1 $269 $562 #
straight-curve $-1 0 40 -20 1 0 0 I I #
point $-1 40 40 -20 #
point $-1 40 -40 -20 #
straight-curve $-1 -40 0 20 0 -1 0 I I #
point $-1 -40 40 20 #
point $-1 -40 -40 20 #
straight-curve $-1 40 -40 0 0 0 -1 I I #
straight-curve $-1 40 40 0 0 0 -1 I I #
face $-1 $563 $564 $25 $-1 $565 forward single #
loop $-1 $-1 $566 $286 #
plane-surface $-1 -30 30 -20 0 1 0 0 0 1 forward_v I I I I #
coedge $-1 $567 $568 $569 $570 forward $287 $-1 #
coedge $-1 $571 $289 $568 $572 reversed $178 $-1 #
coedge $-1 $289 $571 $290 $429 forward $178 $-1 #
coedge $-1 $292 $569 $289 $427 reversed $190 $-1 #
edge $-1 $430 0 $573 20 $289 $574 forward 7 unknown #
coedge $-1 $291 $290 $575 $576 forward $110 $-1 #
edge $-1 $577 0 $430 40 $425 $578 forward 7 unknown #
vertex $-1 $429 $579 #
straight-curve $-1 -10 0 20 0 -1 0 I I #
coedge $-1 $575 $298 $294 $433 reversed $438 $-1 #
edge $-1 $434 -8.75 $300 6.25 $294 $580 forward 7 unknown #
vertex $-1 $576 $581 #
straight-curve $-1 -10 -25 -20 0 0 1 I I #
point $-1 -10 -25 20 #
coedge $-1 $298 $582 $302 $442 reversed $438 $-1 #
loop $-1 $-1 $437 $450 #
straight-curve $-1 5 -10 -20 0 1 0 I I #
point $-1 5 -25 -20 #
coedge $-1 $303 $302 $583 $584 forward $304 $-1 #
edge $-1 $305 -6.25 $585 8.75 $302 $586 forward 7 unknown #
face $-1 $309 $304 $25 $-1 $587 forward single #
point $-1 5 -15 -20 #
coedge $-1 $588 $307 $589 $590 reversed $190 $-1 #
coedge $-1 $583 $591 $307 $447 forward $592 $-1 #
edge $-1 $593 -5 $448 15 $446 $594 forward 7 unknown #
vertex $-1 $584 $595 #
straight-curve $-1 -1.25 -15 20 1 0 0 I I #
face $-1 $-1 $438 $25 $-1 $596 reversed single #
plane-surface $-1 -13.863636363636363 -1.3636363636363635 20 0 0 1 1 0 0 forward_v I I I I #
face $-1 $597 $598 $27 $-1 $599 forward single #
loop $-1 $-1 $600 $312 #
plane-surface $-1 -5 30 -20 0 1 0 0 0 1 forward_v I I I I #
coedge $-1 $601 $602 $603 $604 forward $313 $-1 #
coedge $-1 $605 $315 $602 $606 reversed $195 $-1 #
coedge $-1 $315 $605 $316 $461 forward $195 $-1 #
coedge $-1 $318 $603 $315 $459 reversed $207 $-1 #
edge $-1 $462 -8.75 $607 6.25 $315 $608 forward 7 unknown #
coedge $-1 $317 $316 $609 $610 forward $118 $-1 #
edge $-1 $611 0 $462 40 $457 $612 forward 7 unknown #
vertex $-1 $461 $613 #
straight-curve $-1 10 0 20 0 1 0 I I #
coedge $-1 $609 $324 $320 $465 reversed $470 $-1 #
edge $-1 $466 -8.75 $326 6.25 $320 $614 forward 7 unknown #
vertex $-1 $610 $615 #
straight-curve $-1 10 0 -20 0 0 1 I I #
point $-1 10 0 20 #
coedge $-1 $324 $616 $328 $474 reversed $470 $-1 #
loop $-1 $-1 $469 $482 #
straight-curve $-1 -5 -2.5 -20 0 -1 0 I I #
point $-1 -5 0 -20 #
coedge $-1 $329 $328 $617 $618 forward $330 $-1 #
edge $-1 $331 -6.25 $619 8.75 $328 $620 forward 7 unknown #
face $-1 $335 $330 $27 $-1 $621 forward single #
point $-1 -5 -10 -20 #
coedge $-1 $622 $333 $623 $624 reversed $207 $-1 #
coedge $-1 $617 $625 $333 $479 forward $626 $-1 #
edge $-1 $627 -30 $480 -10 $478 $628 forward 7 unknown #
vertex $-1 $618 $629 #
straight-curve $-1 1.25 -10 20 -1 0 0 I I #
face $-1 $-1 $470 $27 $-1 $630 reversed single #
plane-surface $-1 13.863636363636365 2.7272727272727266 20 0 0 1 1 0 0 forward_v I I I I #
plane-surface $-1 0 -2.5 0 0 1 0 0 0 1 forward_v I I I I #
vertex $-1 $487 $631 #
straight-curve $-1 0 2.5 -110 -1 0 0 I I #
edge $-1 $489 -62.5 $485 -52.5 $362 $632 forward 7 unknown #
convexity-sys-attrib $-1 $-1 $-1 $344 #
vertex $-1 $344 $633 #
straight-curve $-1 2.5 0 -120 0 1 0 I I #
straight-curve $-1 2.5 -1.25 -110 0 1 0 I I #
edge $-1 $360 -2.5 $349 2.5 $346 $634 forward 7 unknown #
edge $635 $350 -2.5 $357 2.5 $347 $636 forward 7 unknown #
point $-1 2.5 -2.5 -110 #
point $-1 2.5 -2.5 -120 #
straight-curve $-1 -2.5 -2.5 -57.5 0 0 1 I I #
point $-1 -2.5 -2.5 -120 #
point $-1 -2.5 -2.5 -110 #
convexity-sys-attrib $-1 $-1 $-1 $363 #
straight-curve $-1 0 2.5 -120 1 0 0 I I #
model_id-kcp-attrib $-1 $-1 $-1 $367 1 990663536 80 -699400191 9 #
face $637 $638 $517 $9 $-1 $504 forward single #
loop $-1 $-1 $639 $367 #
plane-surface $-1 -10 0 0 -1 0 0 0 0 1 forward_v I I I I #
coedge $-1 $640 $641 $510 $642 reversed $368 $-1 #
coedge $-1 $643 $370 $530 $644 reversed $232 $-1 #
coedge $-1 $370 $643 $645 $646 reversed $232 $-1 #
coedge $-1 $641 $640 $370 $509 forward $368 $-1 #
edge $-1 $647 -20 $648 20 $508 $649 forward 7 unknown #
coedge $-1 $372 $371 $505 $642 forward $135 $-1 #
coedge $-1 $650 $651 $371 $512 forward $243 $-1 #
edge $652 $653 -6.25 $518 8.75 $511 $654 forward 7 unknown #
coedge $-1 $655 $656 $372 $514 forward $657 $-1 #
edge $-1 $519 -8.75 $658 6.25 $513 $659 forward 7 unknown #
coedge $-1 $660 $373 $656 $661 reversed $517 $-1 #
coedge $-1 $373 $660 $650 $662 reversed $517 $-1 #
loop $-1 $-1 $373 $502 #
vertex $-1 $374 $663 #
vertex $-1 $661 $664 #
straight-curve $-1 -10 -25 0 0 0 -1 I I #
coedge $-1 $375 $401 $665 $666 reversed $84 $-1 #
coedge $-1 $667 $668 $375 $523 forward $669 $-1 #
edge $-1 $526 -20 $670 20 $522 $671 forward 7 unknown #
coedge $-1 $672 $376 $668 $673 forward $243 $-1 #
attrib_edge_convexity-kcp-attrib $-1 $674 $-1 $377 1 #
vertex $-1 $523 $675 #
straight-curve $-1 1.25 0 20 1 0 0 I I #
coedge $-1 $378 $676 $677 $678 forward $243 $-1 #
convexity-sys-attrib $-1 $-1 $379 $237 #
coedge $-1 $651 $383 $506 $644 forward $243 $-1 #
coedge $-1 $391 $639 $383 $532 reversed $503 $-1 #
edge $679 $394 -5 $680 15 $383 $681 forward 7 unknown #
coedge $-1 $384 $682 $683 $684 forward $243 $-1 #
coedge $-1 $685 $557 $384 $535 reversed $686 $-1 #
edge $687 $688 -7.5 $537 2.5 $384 $689 forward 7 unknown #
attrib_edge_convexity-kcp-attrib $-1 $690 $-1 $385 1 #
vertex $-1 $535 $691 #
coedge $-1 $692 $693 $694 $695 forward $386 $-1 #
model_id-kcp-attrib $-1 $-1 $-1 $387 1 990663536 80 -699400191 27 #
face $696 $697 $657 $9 $-1 $698 reversed single #
plane-surface $-1 0 0 20 0 0 1 1 0 0 forward_v I I I I #
coedge $-1 $699 $700 $390 $543 forward $657 $-1 #
edge $-1 $545 -8.75 $701 6.25 $542 $702 forward 7 unknown #
coedge $-1 $639 $391 $700 $703 reversed $503 $-1 #
vertex $-1 $703 $704 #
straight-curve $-1 -10 5 0 0 0 -1 I I #
convexity-sys-attrib $-1 $-1 $393 $249 #
point $-1 -10 5 20 #
model_id-kcp-attrib $-1 $-1 $-1 $397 1 990663536 80 -699400191 16 #
face $705 $706 $707 $9 $-1 $708 forward single #
loop $-1 $-1 $709 $397 #
plane-surface $-1 -2.5 15 0 0 -1 0 0 0 -1 forward_v I I I I #
coedge $-1 $677 $710 $399 $554 reversed $707 $-1 #
edge $-1 $556 -20 $701 20 $553 $711 forward 7 unknown #
attrib_edge_convexity-kcp-attrib $-1 $712 $-1 $400 1 #
vertex $-1 $400 $713 #
coedge $-1 $534 $714 $401 $558 reversed $686 $-1 #
edge $-1 $537 -20 $715 20 $401 $716 forward 7 unknown #
straight-curve $-1 -40 40 0 0 0 -1 I I #
point $-1 -40 -40 -20 #
straight-curve $-1 -40 0 -20 0 1 0 I I #
point $-1 -40 40 -20 #
face $-1 $717 $718 $25 $-1 $719 forward single #
loop $-1 $-1 $720 $420 #
plane-surface $-1 -10 30 -20 1 0 0 0 0 -1 forward_v I I I I #
coedge $-1 $721 $722 $723 $724 forward $421 $-1 #
coedge $-1 $725 $423 $722 $726 reversed $287 $-1 #
coedge $-1 $423 $725 $424 $572 forward $287 $-1 #
coedge $-1 $426 $723 $423 $570 reversed $190 $-1 #
edge $-1 $573 -30 $727 30 $423 $728 forward 7 unknown #
coedge $-1 $425 $424 $729 $730 forward $178 $-1 #
edge $-1 $731 0 $573 40 $568 $732 forward 7 unknown #
vertex $-1 $572 $733 #
straight-curve $-1 -10 -30 20 -1 0 0 I I #
coedge $-1 $729 $432 $428 $576 reversed $438 $-1 #
edge $-1 $577 -30 $434 -25 $428 $734 forward 7 unknown #
vertex $-1 $730 $735 #
straight-curve $-1 -10 -30 -20 0 0 1 I I #
point $-1 -10 -30 20 #
straight-curve $-1 -1.25 -25 -20 1 0 0 I I #
point $-1 -10 -25 -20 #
coedge $-1 $437 $736 $737 $738 reversed $438 $-1 #
coedge $-1 $737 $446 $441 $584 reversed $592 $-1 #
edge $-1 $585 0 $448 40 $441 $739 forward 7 unknown #
vertex $-1 $442 $740 #
straight-curve $-1 -1.25 -15 -20 -1 0 0 I I #
plane-surface $-1 -10 -15 -20 0 1 0 0 0 1 forward_v I I I I #
coedge $-1 $741 $445 $742 $743 reversed $190 $-1 #
coedge $-1 $744 $745 $445 $590 forward $746 $-1 #
edge $-1 $747 -6.25 $593 8.75 $589 $748 forward 7 unknown #
coedge $-1 $446 $737 $744 $749 forward $592 $-1 #
loop $-1 $-1 $446 $750 #
vertex $-1 $749 $751 #
straight-curve $-1 -10 0 20 0 -1 0 I I #
point $-1 -10 -15 20 #
plane-surface $-1 -13.863636363636363 -1.3636363636363635 -20 0 0 1 1 0 0 forward_v I I I I #
face $-1 $752 $753 $27 $-1 $754 forward single #
loop $-1 $-1 $755 $452 #
plane-surface $-1 30 30 -20 1 0 0 0 0 -1 forward_v I I I I #
coedge $-1 $756 $757 $758 $759 forward $453 $-1 #
coedge $-1 $760 $455 $757 $761 reversed $313 $-1 #
coedge $-1 $455 $760 $456 $606 forward $313 $-1 #
coedge $-1 $458 $758 $455 $604 reversed $207 $-1 #
edge $-1 $607 7.5 $762 17.5 $455 $763 forward 7 unknown #
coedge $-1 $457 $456 $764 $765 forward $195 $-1 #
edge $-1 $766 0 $607 40 $602 $767 forward 7 unknown #
vertex $-1 $606 $768 #
straight-curve $-1 1.25 20 20 -1 0 0 I I #
coedge $-1 $764 $464 $460 $610 reversed $470 $-1 #
edge $-1 $611 -20 $466 0 $460 $769 forward 7 unknown #
vertex $-1 $765 $770 #
straight-curve $-1 10 20 -20 0 0 1 I I #
point $-1 10 20 20 #
straight-curve $-1 1.25 0 -20 -1 0 0 I I #
point $-1 10 0 -20 #
coedge $-1 $469 $771 $772 $773 reversed $470 $-1 #
coedge $-1 $772 $478 $473 $618 reversed $626 $-1 #
edge $-1 $619 0 $480 40 $473 $774 forward 7 unknown #
vertex $-1 $474 $775 #
straight-curve $-1 1.25 -10 -20 1 0 0 I I #
plane-surface $-1 10 -10 -20 0 -1 0 0 0 -1 forward_v I I I I #
coedge $-1 $758 $477 $755 $776 reversed $207 $-1 #
coedge $-1 $777 $778 $477 $624 forward $753 $-1 #
edge $-1 $779 -20 $627 0 $623 $780 forward 7 unknown #
coedge $-1 $478 $772 $777 $781 forward $626 $-1 #
loop $-1 $-1 $478 $752 #
vertex $-1 $781 $782 #
straight-curve $-1 10 0 20 0 1 0 I I #
point $-1 10 -10 20 #
plane-surface $-1 13.863636363636365 2.7272727272727266 -20 0 0 1 1 0 0 forward_v I I I I #
point $-1 2.5 2.5 -110 #
straight-curve $-1 2.5 2.5 -57.5 0 0 1 I I #
point $-1 2.5 2.5 -120 #
straight-curve $-1 0 -2.5 -110 1 0 0 I I #
convexity-sys-attrib $-1 $-1 $-1 $493 #
straight-curve $-1 0 -2.5 -120 -1 0 0 I I #
model_id-kcp-attrib $-1 $-1 $-1 $502 1 990663536 80 -699400191 10 #
face $783 $784 $785 $9 $-1 $786 forward single #
coedge $-1 $531 $544 $643 $787 forward $503 $-1 #
coedge $-1 $508 $505 $651 $788 reversed $368 $-1 #
coedge $-1 $505 $508 $655 $789 reversed $368 $-1 #
edge $-1 $653 -20 $658 20 $505 $790 forward 7 unknown #
coedge $-1 $507 $506 $639 $787 reversed $232 $-1 #
edge $791 $680 -8.75 $647 6.25 $530 $792 forward 7 unknown #
coedge $-1 $700 $655 $507 $646 forward $657 $-1 #
edge $-1 $648 -6.25 $793 8.75 $645 $794 forward 7 unknown #
vertex $-1 $644 $795 #
vertex $-1 $646 $796 #
straight-curve $-1 5 -15 0 0 0 -1 I I #
coedge $-1 $797 $511 $516 $662 forward $243 $-1 #
coedge $-1 $511 $530 $640 $788 forward $243 $-1 #
attrib_edge_convexity-kcp-attrib $-1 $798 $-1 $512 1 #
vertex $-1 $512 $799 #
straight-curve $-1 -1.25 -25 20 -1 0 0 I I #
coedge $-1 $645 $513 $641 $789 forward $657 $-1 #
coedge $-1 $513 $800 $515 $661 forward $657 $-1 #
loop $-1 $801 $645 $540 #
vertex $-1 $514 $802 #
straight-curve $-1 -1.25 -25 -20 1 0 0 I I #
coedge $-1 $516 $515 $803 $804 reversed $517 $-1 #
edge $-1 $805 -30 $519 -25 $656 $806 forward 7 unknown #
edge $807 $518 25 $808 30 $650 $681 forward 7 unknown #
point $-1 -10 -25 20 #
point $-1 -10 -25 -20 #
coedge $-1 $809 $810 $521 $666 forward $801 $-1 #
edge $-1 $670 -8.75 $715 6.25 $665 $811 forward 7 unknown #
coedge $-1 $812 $522 $810 $813 reversed $669 $-1 #
coedge $-1 $522 $812 $524 $673 reversed $669 $-1 #
loop $-1 $-1 $522 $814 #
vertex $-1 $813 $815 #
straight-curve $-1 10 0 0 0 0 -1 I I #
coedge $-1 $816 $524 $817 $818 forward $243 $-1 #
edge $819 $526 0 $820 20 $524 $821 forward 7 unknown #
convexity-sys-attrib $-1 $-1 $525 $377 #
point $-1 10 0 20 #
coedge $-1 $528 $822 $823 $824 forward $243 $-1 #
coedge $-1 $825 $553 $528 $678 reversed $707 $-1 #
edge $826 $827 -10 $556 0 $528 $828 forward 7 unknown #
attrib_edge_convexity-kcp-attrib $-1 $829 $-1 $532 1 #
vertex $-1 $532 $830 #
straight-curve $-1 -10 0 20 0 -1 0 I I #
coedge $-1 $533 $831 $832 $833 forward $243 $-1 #
coedge $-1 $834 $835 $533 $684 reversed $785 $-1 #
edge $836 $837 -8.75 $688 6.25 $533 $838 forward 7 unknown #
coedge $-1 $714 $534 $835 $839 forward $686 $-1 #
loop $-1 $-1 $557 $784 #
attrib_edge_convexity-kcp-attrib $-1 $840 $-1 $535 1 #
vertex $-1 $684 $841 #
straight-curve $-1 -5 -2.5 20 0 1 0 I I #
convexity-sys-attrib $-1 $-1 $536 $385 #
point $-1 -5 0 20 #
coedge $-1 $842 $538 $843 $844 forward $386 $-1 #
coedge $-1 $538 $842 $845 $846 forward $386 $-1 #
coedge $-1 $847 $848 $538 $695 reversed $849 $-1 #
edge $850 $851 -40 $852 40 $694 $853 forward 7 unknown #
model_id-kcp-attrib $-1 $-1 $-1 $540 1 990663536 80 -699400191 28 #
face $854 $855 $856 $9 $-1 $857 reversed single #
plane-surface $-1 0 0 -20 0 0 1 1 0 0 forward_v I I I I #
coedge $-1 $858 $542 $710 $859 forward $657 $-1 #
coedge $-1 $542 $645 $544 $703 forward $657 $-1 #
vertex $-1 $543 $860 #
straight-curve $-1 -1.25 5 -20 1 0 0 I I #
edge $-1 $793 -15 $545 5 $700 $806 forward 7 unknown #
point $-1 -10 5 -20 #
model_id-kcp-attrib $-1 $-1 $-1 $550 1 990663536 80 -699400191 17 #
face $861 $862 $863 $9 $-1 $504 forward single #
loop $-1 $-1 $553 $550 #
plane-surface $-1 5 10 0 -1 0 0 0 0 1 forward_v I I I I #
coedge $-1 $823 $864 $825 $865 reversed $551 $-1 #
coedge $-1 $553 $825 $699 $859 reversed $707 $-1 #
straight-curve $-1 5 5 0 0 0 -1 I I #
convexity-sys-attrib $-1 $-1 $555 $400 #
point $-1 5 5 20 #
coedge $-1 $557 $685 $809 $866 reversed $686 $-1 #
vertex $-1 $866 $867 #
straight-curve $-1 -5 0 0 0 0 -1 I I #
face $-1 $868 $869 $25 $-1 $870 forward single #
loop $-1 $-1 $871 $563 #
plane-surface $-1 -10 15 -20 0 1 0 0 0 1 forward_v I I I I #
coedge $-1 $872 $873 $874 $875 forward $564 $-1 #
coedge $-1 $876 $566 $873 $877 reversed $421 $-1 #
coedge $-1 $566 $876 $567 $726 forward $421 $-1 #
coedge $-1 $569 $874 $566 $724 reversed $190 $-1 #
edge $-1 $727 -20 $878 0 $566 $879 forward 7 unknown #
coedge $-1 $568 $567 $880 $881 forward $287 $-1 #
edge $-1 $882 0 $727 40 $722 $883 forward 7 unknown #
vertex $-1 $726 $884 #
straight-curve $-1 -30 0 20 0 1 0 I I #
coedge $-1 $880 $575 $571 $730 reversed $438 $-1 #
edge $-1 $731 -20 $577 0 $571 $885 forward 7 unknown #
vertex $-1 $881 $886 #
straight-curve $-1 -30 -30 -20 0 0 1 I I #
point $-1 -30 -30 20 #
straight-curve $-1 -10 0 -20 0 1 0 I I #
point $-1 -10 -30 -20 #
coedge $-1 $582 $887 $888 $889 reversed $438 $-1 #
coedge $-1 $591 $583 $582 $738 forward $592 $-1 #
edge $-1 $585 -15 $890 5 $737 $891 forward 7 unknown #
straight-curve $-1 -10 -15 -20 0 0 1 I I #
point $-1 -10 -15 -20 #
coedge $-1 $874 $588 $871 $892 reversed $190 $-1 #
coedge $-1 $893 $894 $588 $743 forward $869 $-1 #
edge $-1 $895 -10 $747 0 $742 $896 forward 7 unknown #
coedge $-1 $888 $589 $591 $749 reversed $746 $-1 #
coedge $-1 $589 $888 $893 $897 forward $746 $-1 #
loop $-1 $-1 $589 $868 #
vertex $-1 $897 $898 #
straight-curve $-1 -1.25 5 20 -1 0 0 I I #
edge $-1 $890 0 $593 40 $591 $899 forward 7 unknown #
face $-1 $443 $592 $25 $-1 $900 forward single #
point $-1 -10 5 20 #
face $-1 $475 $626 $27 $-1 $901 forward single #
loop $-1 $-1 $623 $597 #
plane-surface $-1 30 -30 -20 0 -1 0 0 0 -1 forward_v I I I I #
coedge $-1 $902 $903 $622 $776 forward $598 $-1 #
coedge $-1 $904 $600 $903 $905 reversed $453 $-1 #
coedge $-1 $600 $904 $601 $761 forward $453 $-1 #
coedge $-1 $603 $622 $600 $759 reversed $207 $-1 #
edge $-1 $762 -6.25 $906 28.75 $600 $907 forward 7 unknown #
coedge $-1 $602 $601 $908 $909 forward $313 $-1 #
edge $-1 $910 0 $762 40 $757 $911 forward 7 unknown #
vertex $-1 $761 $912 #
straight-curve $-1 -5 12.5 20 0 1 0 I I #
coedge $-1 $908 $609 $605 $765 reversed $470 $-1 #
edge $-1 $766 -6.25 $611 8.75 $605 $913 forward 7 unknown #
vertex $-1 $909 $914 #
straight-curve $-1 -5 20 -20 0 0 1 I I #
point $-1 -5 20 20 #
straight-curve $-1 10 0 -20 0 -1 0 I I #
point $-1 10 20 -20 #
coedge $-1 $616 $915 $916 $917 reversed $470 $-1 #
coedge $-1 $625 $617 $616 $773 forward $626 $-1 #
edge $-1 $619 10 $918 30 $772 $919 forward 7 unknown #
straight-curve $-1 10 -10 -20 0 0 1 I I #
point $-1 10 -10 -20 #
edge $-1 $906 -30 $779 30 $755 $920 forward 7 unknown #
coedge $-1 $916 $623 $625 $781 reversed $753 $-1 #
coedge $-1 $623 $916 $902 $921 forward $753 $-1 #
vertex $-1 $921 $922 #
straight-curve $-1 10 -30 20 -1 0 0 I I #
edge $-1 $918 0 $627 40 $625 $923 forward 7 unknown #
point $-1 10 -30 20 #
model_id-kcp-attrib $-1 $-1 $-1 $638 1 990663536 80 -699400191 11 #
face $924 $925 $686 $9 $-1 $926 forward single #
loop $-1 $-1 $835 $638 #
plane-surface $-1 2.5 -10 0 0 1 0 0 0 1 forward_v I I I I #
edge $-1 $793 -20 $680 20 $639 $927 forward 7 unknown #
edge $928 $647 5 $653 15 $651 $929 forward 7 unknown #
edge $-1 $658 -15 $648 -5 $655 $930 forward 7 unknown #
straight-curve $-1 5 -25 0 0 0 -1 I I #
attrib_edge_convexity-kcp-attrib $-1 $931 $-1 $644 1 #
straight-curve $-1 -1.25 -15 20 1 0 0 I I #
vertex $-1 $646 $932 #
straight-curve $-1 -1.25 -15 -20 -1 0 0 I I #
point $-1 5 -15 20 #
point $-1 5 -15 -20 #
coedge $-1 $933 $650 $934 $935 forward $243 $-1 #
convexity-sys-attrib $-1 $-1 $652 $512 #
point $-1 5 -25 20 #
coedge $-1 $656 $936 $937 $938 forward $657 $-1 #
loop $-1 $939 $940 $540 #
point $-1 5 -25 -20 #
coedge $-1 $937 $934 $660 $804 forward $941 $-1 #
edge $-1 $808 -20 $805 20 $660 $942 forward 7 unknown #
vertex $-1 $938 $943 #
straight-curve $-1 -10 0 -20 0 1 0 I I #
attrib_edge_convexity-kcp-attrib $-1 $944 $-1 $662 1 #
vertex $-1 $935 $945 #
coedge $-1 $940 $665 $714 $866 forward $801 $-1 #
coedge $-1 $665 $946 $667 $813 forward $801 $-1 #
straight-curve $-1 1.25 0 -20 -1 0 0 I I #
coedge $-1 $668 $667 $947 $948 forward $669 $-1 #
edge $-1 $949 -20 $670 0 $810 $950 forward 7 unknown #
face $951 $250 $669 $9 $-1 $952 forward single #
point $-1 10 0 -20 #
coedge $-1 $953 $672 $954 $955 forward $243 $-1 #
coedge $-1 $947 $956 $672 $818 reversed $957 $-1 #
edge $958 $820 -8.75 $959 6.25 $672 $960 forward 7 unknown #
attrib_edge_convexity-kcp-attrib $-1 $961 $-1 $673 1 #
vertex $-1 $673 $962 #
straight-curve $-1 10 0 20 0 1 0 I I #
coedge $-1 $676 $963 $964 $965 forward $243 $-1 #
coedge $-1 $966 $709 $676 $824 reversed $551 $-1 #
edge $967 $968 -8.75 $827 6.25 $676 $969 forward 7 unknown #
coedge $-1 $710 $677 $709 $865 forward $707 $-1 #
attrib_edge_convexity-kcp-attrib $-1 $970 $-1 $678 1 #
vertex $-1 $824 $971 #
straight-curve $-1 5 5 20 0 -1 0 I I #
convexity-sys-attrib $-1 $-1 $679 $532 #
point $-1 -10 -15 20 #
coedge $-1 $682 $972 $973 $974 forward $243 $-1 #
coedge $-1 $975 $976 $682 $833 reversed $977 $-1 #
edge $978 $979 -30 $837 -10 $682 $821 forward 7 unknown #
coedge $-1 $980 $683 $976 $981 reversed $785 $-1 #
coedge $-1 $683 $980 $685 $839 reversed $785 $-1 #
attrib_edge_convexity-kcp-attrib $-1 $982 $-1 $684 1 #
vertex $-1 $833 $983 #
straight-curve $-1 1.25 -10 20 -1 0 0 I I #
edge $-1 $688 -20 $984 20 $685 $985 forward 7 unknown #
convexity-sys-attrib $-1 $-1 $687 $535 #
point $-1 -5 -10 20 #
coedge $-1 $693 $692 $986 $987 forward $386 $-1 #
coedge $-1 $988 $989 $692 $844 reversed $990 $-1 #
edge $991 $852 -40 $992 40 $843 $993 forward 7 unknown #
coedge $-1 $994 $995 $693 $846 reversed $856 $-1 #
edge $996 $997 -40 $851 40 $845 $998 forward 7 unknown #
coedge $-1 $999 $694 $995 $1000 forward $849 $-1 #
coedge $-1 $694 $999 $988 $1001 reversed $849 $-1 #
loop $-1 $-1 $847 $1002 #
attrib_edge_convexity-kcp-attrib $-1 $1003 $-1 $695 1 #
vertex $-1 $695 $1004 #
vertex $-1 $695 $1005 #
straight-curve $-1 40 0 20 0 1 0 I I #
model_id-kcp-attrib $-1 $-1 $-1 $697 1 990663536 80 -699400191 29 #
face $1006 $1007 $1008 $9 $-1 $1009 reversed single #
loop $-1 $-1 $994 $697 #
plane-surface $-1 0 -40 0 0 1 0 0 0 1 forward_v I I I I #
coedge $-1 $1010 $699 $864 $1011 forward $657 $-1 #
edge $-1 $701 0 $1012 10 $699 $1013 forward 7 unknown #
point $-1 5 5 -20 #
model_id-kcp-attrib $-1 $-1 $-1 $706 1 990663536 80 -699400191 18 #
face $1014 $1015 $957 $9 $-1 $1016 forward single #
loop $-1 $-1 $1017 $706 #
coedge $-1 $709 $966 $858 $1011 reversed $551 $-1 #
edge $-1 $827 -20 $1012 20 $825 $1018 forward 7 unknown #
edge $-1 $715 -2.5 $984 7.5 $809 $1019 forward 7 unknown #
point $-1 -5 0 -20 #
face $-1 $750 $746 $25 $-1 $1020 forward single #
loop $-1 $-1 $742 $717 #
plane-surface $-1 5 15 -20 1 0 0 0 0 -1 forward_v I I I I #
coedge $-1 $1021 $1022 $741 $892 forward $718 $-1 #
coedge $-1 $1023 $720 $1022 $1024 reversed $564 $-1 #
coedge $-1 $720 $1023 $721 $877 forward $564 $-1 #
coedge $-1 $723 $741 $720 $875 reversed $190 $-1 #
edge $-1 $878 -30 $1025 -15 $720 $1026 forward 7 unknown #
coedge $-1 $722 $721 $1027 $1028 forward $421 $-1 #
edge $-1 $1029 0 $878 40 $873 $1030 forward 7 unknown #
vertex $-1 $877 $1031 #
straight-curve $-1 -10 30 20 1 0 0 I I #
coedge $-1 $1027 $729 $725 $881 reversed $438 $-1 #
edge $-1 $882 -30 $731 30 $725 $1032 forward 7 unknown #
vertex $-1 $1028 $1033 #
straight-curve $-1 -30 30 -20 0 0 1 I I #
point $-1 -30 30 20 #
straight-curve $-1 -10 -30 -20 1 0 0 I I #
point $-1 -30 -30 -20 #
coedge $-1 $736 $1034 $1035 $1036 reversed $438 $-1 #
coedge $-1 $745 $744 $736 $889 forward $746 $-1 #
edge $-1 $890 -8.75 $1037 6.25 $888 $1038 forward 7 unknown #
vertex $-1 $738 $1039 #
straight-curve $-1 -10 0 -20 0 1 0 I I #
edge $-1 $1025 -8.75 $895 6.25 $871 $1040 forward 7 unknown #
coedge $-1 $1035 $742 $745 $897 reversed $869 $-1 #
coedge $-1 $742 $1035 $1021 $1041 forward $869 $-1 #
vertex $-1 $1041 $1042 #
straight-curve $-1 5 5 20 0 -1 0 I I #
edge $-1 $1037 0 $747 40 $745 $1043 forward 7 unknown #
point $-1 5 5 20 #
straight-curve $-1 -10 5 -20 0 0 1 I I #
plane-surface $-1 -10 5 -20 1 0 0 0 0 -1 forward_v I I I I #
plane-surface $-1 10 -30 -20 -1 0 0 0 0 1 forward_v I I I I #
coedge $-1 $1044 $755 $778 $921 reversed $598 $-1 #
coedge $-1 $755 $1044 $756 $905 forward $598 $-1 #
coedge $-1 $757 $756 $1045 $1046 forward $453 $-1 #
edge $-1 $1047 0 $906 40 $903 $1048 forward 7 unknown #
vertex $-1 $905 $1049 #
straight-curve $-1 1.25 30 20 1 0 0 I I #
coedge $-1 $1045 $764 $760 $909 reversed $470 $-1 #
edge $-1 $910 -17.5 $766 -7.5 $760 $1050 forward 7 unknown #
vertex $-1 $1046 $1051 #
straight-curve $-1 -5 30 -20 0 0 1 I I #
point $-1 -5 30 20 #
straight-curve $-1 1.25 20 -20 1 0 0 I I #
point $-1 -5 20 -20 #
coedge $-1 $771 $1045 $1044 $1052 reversed $470 $-1 #
coedge $-1 $778 $777 $771 $917 forward $753 $-1 #
edge $-1 $918 0 $1053 20 $916 $1054 forward 7 unknown #
vertex $-1 $773 $1055 #
straight-curve $-1 10 0 -20 0 -1 0 I I #
straight-curve $-1 30 0 20 0 -1 0 I I #
edge $-1 $1053 0 $779 40 $778 $1056 forward 7 unknown #
point $-1 30 -30 20 #
straight-curve $-1 10 -30 -20 0 0 1 I I #
model_id-kcp-attrib $-1 $-1 $-1 $784 1 990663536 80 -699400191 12 #
face $1057 $814 $977 $9 $-1 $952 forward single #
plane-surface $-1 -5 -5 0 1 0 0 0 0 -1 forward_v I I I I #
straight-curve $-1 -10 -15 0 0 0 1 I I #
attrib_edge_convexity-kcp-attrib $-1 $1058 $-1 $788 1 #
straight-curve $-1 5 -10 20 0 -1 0 I I #
straight-curve $-1 5 -10 -20 0 1 0 I I #
convexity-sys-attrib $-1 $-1 $791 $644 #
point $-1 -10 -15 -20 #
coedge $-1 $963 $797 $1059 $1060 forward $243 $-1 #
coedge $-1 $803 $1061 $797 $935 reversed $941 $-1 #
edge $1062 $808 0 $1063 20 $797 $1064 forward 7 unknown #
coedge $-1 $800 $1065 $1066 $1067 forward $657 $-1 #
coedge $-1 $1061 $803 $800 $938 reversed $941 $-1 #
edge $-1 $1068 -20 $805 0 $800 $1069 forward 7 unknown #
loop $-1 $-1 $1070 $540 #
coedge $-1 $1071 $809 $980 $1072 forward $801 $-1 #
loop $-1 $-1 $1061 $1073 #
straight-curve $-1 -10 -30 0 0 0 -1 I I #
point $-1 -10 -30 -20 #
convexity-sys-attrib $-1 $-1 $807 $662 #
point $-1 -10 -30 20 #
coedge $-1 $810 $1074 $1075 $1076 forward $801 $-1 #
coedge $-1 $1075 $817 $812 $948 reversed $957 $-1 #
edge $-1 $949 -20 $820 20 $812 $1077 forward 7 unknown #
vertex $-1 $1076 $1078 #
straight-curve $-1 10 0 -20 0 -1 0 I I #
model_id-kcp-attrib $-1 $-1 $-1 $814 1 990663536 80 -699400191 14 #
plane-surface $-1 10 0 0 1 0 0 0 0 -1 forward_v I I I I #
coedge $-1 $972 $816 $1079 $1080 forward $243 $-1 #
coedge $-1 $1081 $1082 $816 $955 reversed $1083 $-1 #
edge $1084 $959 7.5 $1085 17.5 $816 $1086 forward 7 unknown #
coedge $-1 $817 $1075 $1081 $1087 reversed $957 $-1 #
loop $-1 $-1 $956 $862 #
attrib_edge_convexity-kcp-attrib $-1 $1088 $-1 $818 1 #
vertex $-1 $818 $1089 #
straight-curve $-1 1.25 20 20 -1 0 0 I I #
convexity-sys-attrib $-1 $-1 $819 $673 #
point $-1 10 20 20 #
coedge $-1 $822 $933 $1090 $1091 forward $243 $-1 #
coedge $-1 $1092 $1017 $822 $965 reversed $863 $-1 #
edge $1093 $1094 -30 $968 -15 $822 $681 forward 7 unknown #
coedge $-1 $864 $823 $1017 $1095 reversed $551 $-1 #
attrib_edge_convexity-kcp-attrib $-1 $1096 $-1 $824 1 #
vertex $-1 $965 $1097 #
straight-curve $-1 -1.25 15 20 1 0 0 I I #
convexity-sys-attrib $-1 $-1 $826 $678 #
point $-1 5 15 20 #
coedge $-1 $831 $953 $1098 $1099 forward $243 $-1 #
coedge $-1 $1100 $1101 $831 $974 reversed $1102 $-1 #
edge $1103 $1104 -20 $979 0 $831 $1105 forward 7 unknown #
coedge $-1 $1106 $832 $1101 $1107 forward $977 $-1 #
coedge $-1 $832 $1106 $834 $981 forward $977 $-1 #
loop $-1 $-1 $976 $925 #
attrib_edge_convexity-kcp-attrib $-1 $1108 $-1 $833 1 #
vertex $-1 $974 $1109 #
coedge $-1 $835 $834 $940 $1072 reversed $785 $-1 #
edge $-1 $1110 -20 $837 20 $976 $1111 forward 7 unknown #
convexity-sys-attrib $-1 $-1 $836 $684 #
point $-1 10 -10 20 #
vertex $-1 $1072 $1112 #
straight-curve $-1 -5 -10 0 0 0 -1 I I #
coedge $-1 $1113 $1114 $842 $987 reversed $1008 $-1 #
edge $1115 $992 -40 $997 40 $986 $1116 forward 7 unknown #
coedge $-1 $1117 $843 $848 $1001 forward $990 $-1 #
coedge $-1 $843 $1117 $1113 $1118 reversed $990 $-1 #
loop $-1 $-1 $988 $1007 #
attrib_edge_convexity-kcp-attrib $-1 $1119 $-1 $844 1 #
vertex $-1 $844 $1120 #
straight-curve $-1 0 40 20 -1 0 0 I I #
coedge $-1 $1121 $845 $1114 $1122 forward $856 $-1 #
coedge $-1 $845 $1121 $847 $1000 reversed $856 $-1 #
attrib_edge_convexity-kcp-attrib $-1 $1123 $-1 $846 1 #
vertex $-1 $987 $1124 #
straight-curve $-1 0 -40 20 1 0 0 I I #
coedge $-1 $848 $847 $1070 $1125 reversed $849 $-1 #
edge $1126 $851 -20 $1127 20 $847 $1128 forward 7 unknown #
edge $-1 $852 -20 $1129 20 $848 $1130 forward 7 unknown #
face $1131 $-1 $849 $9 $-1 $1132 reversed single #
convexity-sys-attrib $-1 $-1 $850 $695 #
point $-1 40 -40 20 #
point $-1 40 40 20 #
model_id-kcp-attrib $-1 $-1 $-1 $855 1 990663536 80 -699400191 30 #
face $1133 $1002 $990 $9 $-1 $1134 reversed single #
loop $-1 $-1 $1113 $855 #
plane-surface $-1 -40 0 0 1 0 0 0 0 -1 forward_v I I I I #
coedge $-1 $1065 $858 $1135 $1136 forward $657 $-1 #
edge $-1 $1012 -6.25 $1137 8.75 $858 $1138 forward 7 unknown #
vertex $-1 $1011 $1139 #
straight-curve $-1 5 5 -20 0 1 0 I I #
model_id-kcp-attrib $-1 $-1 $-1 $862 1 990663536 80 -699400191 19 #
face $1140 $1073 $1083 $9 $-1 $1141 forward single #
plane-surface $-1 2.5 20 0 0 1 0 0 0 1 forward_v I I I I #
coedge $-1 $964 $1135 $966 $1095 forward $863 $-1 #
straight-curve $-1 5 15 0 0 0 -1 I I #
straight-curve $-1 -5 -2.5 -20 0 -1 0 I I #
plane-surface $-1 5 5 -20 0 -1 0 0 0 -1 forward_v I I I I #
coedge $-1 $1142 $871 $894 $1041 reversed $718 $-1 #
coedge $-1 $871 $1142 $872 $1024 forward $718 $-1 #
coedge $-1 $873 $872 $1143 $1144 forward $564 $-1 #
edge $-1 $1145 0 $1025 40 $1022 $1146 forward 7 unknown #
vertex $-1 $1024 $1147 #
straight-curve $-1 -10 0 20 0 -1 0 I I #
coedge $-1 $1143 $880 $876 $1028 reversed $438 $-1 #
edge $-1 $1029 0 $882 20 $876 $1148 forward 7 unknown #
vertex $-1 $1144 $1149 #
straight-curve $-1 -10 30 -20 0 0 1 I I #
point $-1 -10 30 20 #
straight-curve $-1 -30 0 -20 0 -1 0 I I #
point $-1 -30 30 -20 #
coedge $-1 $887 $1143 $1142 $1150 reversed $438 $-1 #
coedge $-1 $894 $893 $887 $1036 forward $869 $-1 #
edge $-1 $1037 0 $1151 10 $1035 $1152 forward 7 unknown #
vertex $-1 $889 $1153 #
straight-curve $-1 -1.25 5 -20 1 0 0 I I #
point $-1 -10 5 -20 #
straight-curve $-1 -1.25 15 20 1 0 0 I I #
edge $-1 $1151 0 $895 40 $894 $1154 forward 7 unknown #
point $-1 5 15 20 #
straight-curve $-1 5 5 -20 0 0 1 I I #
coedge $-1 $903 $902 $915 $1052 forward $598 $-1 #
coedge $-1 $915 $908 $904 $1046 reversed $470 $-1 #
edge $-1 $1047 -28.75 $910 6.25 $904 $1155 forward 7 unknown #
vertex $-1 $1052 $1156 #
straight-curve $-1 30 30 -20 0 0 1 I I #
point $-1 30 30 20 #
straight-curve $-1 -5 12.5 -20 0 -1 0 I I #
point $-1 -5 30 -20 #
edge $-1 $1053 -30 $1047 30 $1044 $1157 forward 7 unknown #
vertex $-1 $917 $1158 #
straight-curve $-1 10 -30 -20 1 0 0 I I #
point $-1 10 -30 -20 #
straight-curve $-1 30 -30 -20 0 0 1 I I #
model_id-kcp-attrib $-1 $-1 $-1 $925 1 990663536 80 -699400191 13 #
convexity-sys-attrib $-1 $-1 $928 $788 #
coedge $-1 $1159 $1160 $933 $1060 reversed $1161 $-1 #
edge $1162 $1063 -30 $1163 30 $933 $1164 forward 7 unknown #
coedge $-1 $934 $937 $1159 $1165 reversed $941 $-1 #
attrib_edge_convexity-kcp-attrib $-1 $1166 $-1 $935 1 #
vertex $-1 $935 $1167 #
straight-curve $-1 -10 -30 20 -1 0 0 I I #
coedge $-1 $936 $1010 $1168 $1169 forward $657 $-1 #
coedge $-1 $1160 $1159 $936 $1067 reversed $1161 $-1 #
edge $-1 $1170 -30 $1068 30 $936 $1171 forward 7 unknown #
vertex $-1 $938 $1172 #
straight-curve $-1 -10 -30 -20 1 0 0 I I #
coedge $-1 $1173 $1174 $999 $1125 forward $939 $-1 #
coedge $-1 $1175 $940 $1106 $1176 forward $801 $-1 #
edge $-1 $984 -6.25 $1110 8.75 $940 $1177 forward 7 unknown #
face $1178 $1179 $941 $9 $-1 $1180 forward single #
coedge $-1 $946 $1181 $1182 $1183 forward $801 $-1 #
coedge $-1 $956 $947 $946 $1076 reversed $957 $-1 #
edge $-1 $1184 -6.25 $949 8.75 $946 $1185 forward 7 unknown #
straight-curve $-1 10 20 0 0 0 1 I I #
point $-1 10 20 -20 #
coedge $-1 $1186 $1187 $953 $1080 reversed $1188 $-1 #
edge $1189 $1085 -6.25 $1190 28.75 $953 $1191 forward 7 unknown #
coedge $-1 $1182 $954 $956 $1087 forward $1083 $-1 #
coedge $-1 $954 $1182 $1186 $1192 reversed $1083 $-1 #
loop $-1 $-1 $1082 $1015 #
attrib_edge_convexity-kcp-attrib $-1 $1193 $-1 $955 1 #
vertex $-1 $955 $1194 #
straight-curve $-1 -5 12.5 20 0 1 0 I I #
edge $-1 $959 -20 $1184 20 $1081 $1195 forward 7 unknown #
convexity-sys-attrib $-1 $-1 $958 $818 #
point $-1 -5 20 20 #
coedge $-1 $1196 $1197 $963 $1091 reversed $1198 $-1 #
edge $1199 $1163 -20 $1094 0 $963 $1200 forward 7 unknown #
coedge $-1 $1135 $964 $1197 $1201 forward $863 $-1 #
attrib_edge_convexity-kcp-attrib $-1 $1202 $-1 $965 1 #
vertex $-1 $1091 $1203 #
edge $-1 $1137 -20 $968 20 $1017 $1204 forward 7 unknown #
convexity-sys-attrib $-1 $-1 $967 $824 #
point $-1 -10 15 20 #
coedge $-1 $1205 $1206 $972 $1099 reversed $1207 $-1 #
edge $1208 $1190 -30 $1104 30 $972 $1209 forward 7 unknown #
coedge $-1 $1210 $973 $1206 $1211 forward $1102 $-1 #
coedge $-1 $973 $1210 $975 $1107 reversed $1102 $-1 #
loop $-1 $-1 $1101 $1212 #
attrib_edge_convexity-kcp-attrib $-1 $1213 $-1 $974 1 #
vertex $-1 $974 $1214 #
straight-curve $-1 10 -30 20 -1 0 0 I I #
coedge $-1 $976 $975 $1071 $1176 reversed $977 $-1 #
edge $-1 $979 -20 $1215 20 $975 $1216 forward 7 unknown #
convexity-sys-attrib $-1 $-1 $978 $833 #
point $-1 10 -30 20 #
vertex $-1 $1072 $1217 #
straight-curve $-1 10 -10 0 0 0 1 I I #
point $-1 -5 -10 -20 #
coedge $-1 $1218 $986 $989 $1118 forward $1008 $-1 #
coedge $-1 $986 $1218 $994 $1122 reversed $1008 $-1 #
attrib_edge_convexity-kcp-attrib $-1 $1219 $-1 $987 1 #
straight-curve $-1 -40 0 20 0 -1 0 I I #
coedge $-1 $989 $988 $1174 $1220 reversed $990 $-1 #
edge $1221 $992 -20 $1222 20 $989 $1223 forward 7 unknown #
convexity-sys-attrib $-1 $-1 $991 $844 #
point $-1 -40 40 20 #
coedge $-1 $995 $994 $1173 $1224 reversed $856 $-1 #
edge $1225 $997 -20 $1226 20 $1114 $1227 forward 7 unknown #
convexity-sys-attrib $-1 $-1 $996 $846 #
point $-1 -40 -40 20 #
edge $-1 $1129 -40 $1127 40 $999 $1228 forward 7 unknown #
attrib_edge_convexity-kcp-attrib $-1 $1229 $-1 $1000 1 #
vertex $-1 $1000 $1230 #
straight-curve $-1 40 -40 0 0 0 -1 I I #
vertex $-1 $1125 $1231 #
straight-curve $-1 40 40 0 0 0 -1 I I #
model_id-kcp-attrib $-1 $-1 $-1 $1002 1 990663536 80 -699400191 32 #
plane-surface $-1 40 0 0 -1 0 0 0 0 1 forward_v I I I I #
model_id-kcp-attrib $-1 $-1 $-1 $1007 1 990663536 80 -699400191 31 #
plane-surface $-1 0 40 0 0 -1 0 0 0 -1 forward_v I I I I #
coedge $-1 $1017 $1092 $1010 $1136 reversed $863 $-1 #
edge $-1 $1137 15 $1232 30 $1010 $806 forward 7 unknown #
vertex $-1 $1011 $1233 #
straight-curve $-1 -1.25 15 -20 -1 0 0 I I #
point $-1 5 15 -20 #
model_id-kcp-attrib $-1 $-1 $-1 $1015 1 990663536 80 -699400191 20 #
plane-surface $-1 -5 25 0 1 0 0 0 0 -1 forward_v I I I I #
coedge $-1 $1022 $1021 $1034 $1150 forward $718 $-1 #
coedge $-1 $1034 $1027 $1023 $1144 reversed $438 $-1 #
edge $-1 $1145 15 $1029 30 $1023 $1234 forward 7 unknown #
vertex $-1 $1150 $1235 #
straight-curve $-1 -10 15 -20 0 0 1 I I #
point $-1 -10 15 20 #
straight-curve $-1 -10 30 -20 -1 0 0 I I #
point $-1 -10 30 -20 #
edge $-1 $1151 -6.25 $1145 8.75 $1142 $1236 forward 7 unknown #
vertex $-1 $1036 $1237 #
straight-curve $-1 5 5 -20 0 1 0 I I #
point $-1 5 5 -20 #
straight-curve $-1 5 15 -20 0 0 1 I I #
straight-curve $-1 1.25 30 -20 -1 0 0 I I #
point $-1 30 30 -20 #
straight-curve $-1 30 0 -20 0 1 0 I I #
point $-1 30 -30 -20 #
coedge $-1 $1066 $1059 $1061 $1165 forward $1161 $-1 #
coedge $-1 $1059 $1066 $1196 $1238 reversed $1161 $-1 #
loop $-1 $-1 $1160 $1179 #
attrib_edge_convexity-kcp-attrib $-1 $1239 $-1 $1060 1 #
vertex $-1 $1060 $1240 #
straight-curve $-1 -30 0 20 0 1 0 I I #
edge $-1 $1063 -20 $1068 20 $1159 $1241 forward 7 unknown #
convexity-sys-attrib $-1 $-1 $1062 $935 #
point $-1 -30 -30 20 #
coedge $-1 $1197 $1196 $1065 $1169 reversed $1198 $-1 #
edge $-1 $1232 0 $1170 20 $1065 $1242 forward 7 unknown #
vertex $-1 $1067 $1243 #
straight-curve $-1 -30 0 -20 0 -1 0 I I #
point $-1 -30 -30 -20 #
coedge $-1 $1244 $1070 $1121 $1224 forward $939 $-1 #
coedge $-1 $1070 $1244 $1117 $1220 forward $939 $-1 #
coedge $-1 $1245 $1071 $1210 $1246 forward $801 $-1 #
edge $-1 $1110 10 $1215 30 $1071 $950 forward 7 unknown #
straight-curve $-1 1.25 -10 -20 1 0 0 I I #
model_id-kcp-attrib $-1 $-1 $-1 $1073 1 990663536 80 -699400191 21 #
face $1247 $1248 $1161 $9 $-1 $1249 forward single #
plane-surface $-1 -20 -30 0 0 1 0 0 0 1 forward_v I I I I #
coedge $-1 $1074 $1245 $1250 $1251 forward $801 $-1 #
coedge $-1 $1082 $1081 $1074 $1183 reversed $1083 $-1 #
edge $-1 $1252 -17.5 $1184 -7.5 $1074 $1253 forward 7 unknown #
vertex $-1 $1076 $1254 #
straight-curve $-1 1.25 20 -20 1 0 0 I I #
coedge $-1 $1250 $1079 $1082 $1192 forward $1188 $-1 #
coedge $-1 $1079 $1250 $1205 $1255 reversed $1188 $-1 #
loop $-1 $-1 $1187 $1256 #
attrib_edge_convexity-kcp-attrib $-1 $1257 $-1 $1080 1 #
vertex $-1 $1080 $1258 #
straight-curve $-1 1.25 30 20 1 0 0 I I #
edge $-1 $1085 -20 $1252 20 $1186 $1259 forward 7 unknown #
convexity-sys-attrib $-1 $-1 $1084 $955 #
point $-1 -5 30 20 #
straight-curve $-1 -5 20 0 0 0 -1 I I #
coedge $-1 $1168 $1090 $1160 $1238 forward $1198 $-1 #
coedge $-1 $1090 $1168 $1092 $1201 reversed $1198 $-1 #
loop $-1 $-1 $1197 $1248 #
attrib_edge_convexity-kcp-attrib $-1 $1260 $-1 $1091 1 #
straight-curve $-1 -10 30 20 1 0 0 I I #
edge $-1 $1094 -20 $1232 20 $1092 $1261 forward 7 unknown #
convexity-sys-attrib $-1 $-1 $1093 $965 #
point $-1 -10 30 20 #
straight-curve $-1 -10 15 0 0 0 1 I I #
coedge $-1 $1262 $1098 $1187 $1255 forward $1207 $-1 #
coedge $-1 $1098 $1262 $1100 $1211 reversed $1207 $-1 #
loop $-1 $-1 $1206 $1263 #
attrib_edge_convexity-kcp-attrib $-1 $1264 $-1 $1099 1 #
straight-curve $-1 30 0 20 0 -1 0 I I #
coedge $-1 $1101 $1100 $1175 $1246 reversed $1102 $-1 #
edge $-1 $1104 -20 $1265 20 $1206 $1266 forward 7 unknown #
face $1267 $1256 $1102 $9 $-1 $1268 forward single #
convexity-sys-attrib $-1 $-1 $1103 $974 #
point $-1 30 -30 20 #
vertex $-1 $1246 $1269 #
straight-curve $-1 10 -30 0 0 0 -1 I I #
point $-1 10 -10 -20 #
coedge $-1 $1114 $1113 $1244 $1270 reversed $1008 $-1 #
convexity-sys-attrib $-1 $-1 $1115 $987 #
edge $-1 $1222 -40 $1129 40 $1117 $1271 forward 7 unknown #
attrib_edge_convexity-kcp-attrib $-1 $1272 $-1 $1118 1 #
vertex $-1 $1220 $1273 #
straight-curve $-1 -40 40 0 0 0 -1 I I #
edge $1274 $1127 -40 $1226 40 $1121 $1275 forward 7 unknown #
attrib_edge_convexity-kcp-attrib $-1 $1276 $-1 $1122 1 #
vertex $-1 $1270 $1277 #
straight-curve $-1 -40 -40 0 0 0 -1 I I #
straight-curve $-1 40 0 -20 0 -1 0 I I #
convexity-sys-attrib $-1 $-1 $1126 $1000 #
point $-1 40 -40 -20 #
point $-1 40 40 -20 #
vertex $-1 $1169 $1278 #
point $-1 -10 15 -20 #
straight-curve $-1 -10 0 -20 0 1 0 I I #
point $-1 -10 15 -20 #
straight-curve $-1 -1.25 15 -20 -1 0 0 I I #
point $-1 5 15 -20 #
edge $-1 $1163 -20 $1170 20 $1196 $1279 forward 7 unknown #
convexity-sys-attrib $-1 $-1 $1162 $1060 #
point $-1 -30 30 20 #
straight-curve $-1 -30 -30 0 0 0 -1 I I #
straight-curve $-1 -10 30 -20 -1 0 0 I I #
point $-1 -30 30 -20 #
coedge $-1 $1174 $1173 $1218 $1270 forward $939 $-1 #
coedge $-1 $1181 $1175 $1262 $1280 forward $801 $-1 #
edge $-1 $1215 0 $1265 20 $1175 $1281 forward 7 unknown #
model_id-kcp-attrib $-1 $-1 $-1 $1179 1 990663536 80 -699400191 22 #
face $1282 $1212 $1198 $9 $-1 $1283 forward single #
plane-surface $-1 -30 0 0 1 0 0 0 0 -1 forward_v I I I I #
coedge $-1 $1187 $1186 $1181 $1251 reversed $1188 $-1 #
edge $-1 $1284 -28.75 $1252 6.25 $1181 $1285 forward 7 unknown #
vertex $-1 $1183 $1286 #
straight-curve $-1 -5 12.5 -20 0 -1 0 I I #
point $-1 -5 20 -20 #
edge $-1 $1190 -20 $1284 20 $1205 $1287 forward 7 unknown #
face $1288 $1263 $1188 $9 $-1 $1289 forward single #
convexity-sys-attrib $-1 $-1 $1189 $1080 #
point $-1 30 30 20 #
straight-curve $-1 -5 30 0 0 0 -1 I I #
convexity-sys-attrib $-1 $-1 $1199 $1091 #
straight-curve $-1 -10 30 0 0 0 -1 I I #
coedge $-1 $1206 $1205 $1245 $1280 reversed $1207 $-1 #
face $1290 $387 $1207 $9 $-1 $1291 forward single #
convexity-sys-attrib $-1 $-1 $1208 $1099 #
vertex $-1 $1246 $1292 #
straight-curve $-1 30 -30 0 0 0 -1 I I #
model_id-kcp-attrib $-1 $-1 $-1 $1212 1 990663536 80 -699400191 24 #
plane-surface $-1 20 -30 0 0 1 0 0 0 1 forward_v I I I I #
point $-1 10 -30 -20 #
edge $1293 $1226 -40 $1222 40 $1218 $1294 forward 7 unknown #
straight-curve $-1 0 40 -20 1 0 0 I I #
convexity-sys-attrib $-1 $-1 $1221 $1118 #
point $-1 -40 40 -20 #
attrib_edge_convexity-kcp-attrib $-1 $1295 $-1 $1224 1 #
straight-curve $-1 0 -40 -20 -1 0 0 I I #
convexity-sys-attrib $-1 $-1 $1225 $1122 #
point $-1 -40 -40 -20 #
point $-1 -10 30 -20 #
straight-curve $-1 -30 30 0 0 0 -1 I I #
edge $-1 $1265 -30 $1284 30 $1245 $1296 forward 7 unknown #
straight-curve $-1 10 -30 -20 1 0 0 I I #
model_id-kcp-attrib $-1 $-1 $-1 $1248 1 990663536 80 -699400191 23 #
plane-surface $-1 -20 30 0 0 -1 0 0 0 -1 forward_v I I I I #
vertex $-1 $1251 $1297 #
straight-curve $-1 1.25 30 -20 -1 0 0 I I #
point $-1 -5 30 -20 #
straight-curve $-1 30 30 0 0 0 -1 I I #
model_id-kcp-attrib $-1 $-1 $-1 $1256 1 990663536 80 -699400191 25 #
plane-surface $-1 20 30 0 0 -1 0 0 0 -1 forward_v I I I I #
model_id-kcp-attrib $-1 $-1 $-1 $1263 1 990663536 80 -699400191 26 #
plane-surface $-1 30 0 0 -1 0 0 0 0 1 forward_v I I I I #
point $-1 30 -30 -20 #
attrib_edge_convexity-kcp-attrib $-1 $1298 $-1 $1270 1 #
straight-curve $-1 -40 0 -20 0 1 0 I I #
convexity-sys-attrib $-1 $-1 $1274 $1224 #
straight-curve $-1 30 0 -20 0 1 0 I I #
point $-1 30 30 -20 #
convexity-sys-attrib $-1 $-1 $1293 $1270 #
End-of-ACIS-data 