700 0 2 0           
24 FBMach with ACIS - 7.0.3 13 ACIS 7.0.3 NT 24 Tue May 14 12:10:50 2002 
1 9.9999999999999995e-007 1e-010 
body $2 -1 $-1 $3 $-1 $4 #
bdycol-kcp $-1 -1 1 4 $5 $6 $7 $8 #
model_id-kcp-attrib $-1 -1 $-1 $-1 $0 1 1021392650 1021392650 -1359740927 1 #
lump $-1 -1 $-1 $-1 $9 $0 #
transform $-1 -1 1 0 0 0 1 0 0 0 1 0 0 0 1 rotate no_reflect no_shear #
body $10 -1 $-1 $11 $-1 $12 #
body $13 -1 $-1 $14 $-1 $15 #
body $16 -1 $-1 $17 $-1 $18 #
body $19 -1 $-1 $20 $-1 $21 #
shell $-1 -1 $-1 $-1 $-1 $22 $-1 $3 #
rgb_color-st-attrib $-1 -1 $23 $-1 $5 0.5 1 1 #
lump $-1 -1 $-1 $-1 $24 $5 #
transform $-1 -1 1 0 0 0 1 0 0 0 1 -0.625 0.34399999999999997 0.28449999999999998 1 no_rotate no_reflect no_shear #
rgb_color-st-attrib $-1 -1 $25 $-1 $6 1 0.5 1 #
lump $-1 -1 $-1 $-1 $26 $6 #
transform $-1 -1 1 0 0 0 1 0 0 0 1 -0.625 0.34399999999999997 0.28449999999999998 1 no_rotate no_reflect no_shear #
model_id-kcp-attrib $-1 -1 $-1 $-1 $7 1 1021392650 1021392650 -1359740926 1 #
lump $-1 -1 $-1 $-1 $27 $7 #
transform $-1 -1 1 0 0 0 1 0 0 0 1 -0.625 0.34399999999999997 0.28449999999999998 1 no_rotate no_reflect no_shear #
rgb_color-st-attrib $-1 -1 $28 $-1 $8 0 0 1 #
lump $-1 -1 $-1 $-1 $29 $8 #
transform $-1 -1 1 0 0 0 1 0 0 0 1 -0.625 0.34399999999999997 0.28449999999999998 1 no_rotate no_reflect no_shear #
face $30 -1 $-1 $31 $32 $9 $-1 $33 forward single #
model_id-kcp-attrib $-1 -1 $-1 $10 $5 1 1021392650 1021392650 -1371275261 1 #
shell $-1 -1 $-1 $-1 $-1 $34 $-1 $11 #
model_id-kcp-attrib $-1 -1 $-1 $13 $6 1 1021392650 1021392650 -1370292219 1 #
shell $-1 -1 $-1 $-1 $-1 $35 $-1 $14 #
shell $-1 -1 $-1 $-1 $-1 $36 $-1 $17 #
model_id-kcp-attrib $-1 -1 $-1 $19 $8 1 1021392650 1021392650 -1359413244 1 #
shell $-1 -1 $-1 $-1 $-1 $37 $-1 $20 #
model_id-kcp-attrib $-1 -1 $38 $-1 $22 1 1021392650 1021392650 -1359740927 2 #
face $39 -1 $-1 $40 $41 $9 $-1 $42 reversed single #
loop $43 -1 $-1 $44 $45 $22 #
plane-surface $46 -1 $-1 -0.625 0.34399999999999997 0.56899999999999995 0 0 1 1 0 0 forward_v I I I I #
face $-1 -1 $-1 $47 $48 $24 $-1 $49 reversed single #
face $-1 -1 $-1 $50 $51 $26 $-1 $52 forward single #
face $53 -1 $-1 $54 $55 $27 $-1 $56 forward single #
face $-1 -1 $-1 $57 $58 $29 $-1 $59 forward single #
face_name-twe-attrib $-1 -1 $-1 $30 $22 1 #
model_id-kcp-attrib $-1 -1 $60 $-1 $31 1 1021392650 1021392650 -1359740927 3 #
face $61 -1 $-1 $62 $63 $9 $-1 $64 reversed single #
loop $65 -1 $-1 $66 $67 $31 #
plane-surface $68 -1 $-1 -0.625 0.34399999999999997 0.38200000000000001 0 0 1 1 0 0 forward_v I I I I #
loop_type-twe-attrib $-1 -1 $-1 $-1 $32 0 #
loop $69 -1 $-1 $-1 $70 $22 #
coedge $-1 -1 $-1 $45 $45 $71 $72 forward $32 $-1 #
surf-twe-attrib $-1 -1 $-1 $-1 $33 4 #
face $-1 -1 $-1 $73 $74 $24 $-1 $49 reversed single #
loop $-1 -1 $-1 $-1 $75 $34 #
cone-surface $-1 -1 $-1 0 0 0.28449999999999998 0 0 1 0.2185 0 0 1 I I 0 1 0.2185 forward I I I I #
face $-1 -1 $-1 $76 $77 $26 $-1 $78 forward single #
loop $-1 -1 $-1 $79 $80 $35 #
cone-surface $-1 -1 $-1 0 0 0.097500000000000031 0 0 -1 -0.0935 0 0 1 I I 0 -1 0.0935 forward I I I I #
model_id-kcp-attrib $-1 -1 $-1 $-1 $36 1 1021392650 1021392650 -1359740926 2 #
face $81 -1 $-1 $82 $83 $27 $-1 $84 reversed single #
loop $-1 -1 $-1 $-1 $85 $36 #
plane-surface $-1 -1 $-1 0 0 0.28449999999999998 0 0 1 1 0 0 forward_v I I I I #
face $-1 -1 $-1 $86 $87 $29 $-1 $88 forward single #
loop $-1 -1 $-1 $-1 $89 $37 #
plane-surface $-1 -1 $-1 0.14429999999999998 0 0.15950000000000003 0.86602540378443882 -0.49999999999999989 0 0 0 -1 forward_v I I I I #
face_name-twe-attrib $-1 -1 $-1 $39 $31 2 #
model_id-kcp-attrib $-1 -1 $90 $-1 $40 1 1021392650 1021392650 -1359740927 4 #
face $91 -1 $-1 $92 $93 $9 $-1 $94 forward single #
loop $95 -1 $-1 $-1 $96 $40 #
plane-surface $97 -1 $-1 -0.625 0.34399999999999997 0 0 0 1 1 0 0 forward_v I I I I #
loop_type-twe-attrib $-1 -1 $-1 $-1 $41 0 #
loop $98 -1 $-1 $-1 $99 $31 #
coedge $-1 -1 $-1 $67 $67 $100 $101 forward $41 $-1 #
surf-twe-attrib $-1 -1 $-1 $-1 $42 6 #
loop_type-twe-attrib $-1 -1 $-1 $-1 $44 1 #
coedge $-1 -1 $-1 $102 $103 $104 $105 forward $44 $-1 #
coedge $-1 -1 $-1 $71 $71 $45 $72 reversed $93 $-1 #
edge $106 -1 $-1 $107 0 $107 6.2831853071795862 $71 $108 forward @7 unknown #
face $-1 -1 $-1 $109 $110 $24 $-1 $49 reversed single #
loop $-1 -1 $-1 $-1 $111 $47 #
coedge $-1 -1 $-1 $112 $113 $114 $115 reversed $48 $-1 #
face $-1 -1 $-1 $116 $117 $26 $-1 $118 reversed single #
loop $-1 -1 $-1 $119 $120 $50 #
cone-surface $-1 -1 $-1 0 0 0.097500000000000031 0 0 -1 0.2185 0 0 1 I I 0 1 0.2185 forward I I I I #
loop $-1 -1 $-1 $-1 $121 $35 #
coedge $-1 -1 $-1 $80 $80 $122 $123 forward $51 $-1 #
model_id-kcp-attrib $-1 -1 $-1 $-1 $54 1 1021392650 1021392650 -1359740926 3 #
face $-1 -1 $-1 $124 $125 $27 $-1 $126 reversed single #
loop $-1 -1 $-1 $-1 $127 $54 #
plane-surface $-1 -1 $-1 0 0 -0.28449999999999998 0 0 1 1 0 0 forward_v I I I I #
coedge $-1 -1 $-1 $128 $129 $130 $131 forward $55 $-1 #
face $-1 -1 $-1 $132 $133 $29 $-1 $134 forward single #
loop $-1 -1 $-1 $-1 $135 $57 #
plane-surface $-1 -1 $-1 0.069244465005348976 -0.12999999999999995 0.15950000000000003 0 -1 0 0 0 -1 forward_v I I I I #
coedge $-1 -1 $-1 $136 $137 $138 $139 forward $58 $-1 #
face_name-twe-attrib $-1 -1 $-1 $61 $40 3 #
model_id-kcp-attrib $-1 -1 $140 $-1 $62 1 1021392650 1021392650 -1359740927 5 #
face $141 -1 $-1 $142 $143 $9 $-1 $144 forward single #
loop $145 -1 $-1 $146 $71 $62 #
cone-surface $147 -1 $-1 -0.625 0.34399999999999997 -0.02845 0 0 1 -0.2185 0 0 1 I I 0 1 0.2185 forward I I I I #
loop_type-twe-attrib $-1 -1 $-1 $-1 $63 0 #
coedge $-1 -1 $-1 $96 $96 $148 $149 forward $63 $-1 #
surf-twe-attrib $-1 -1 $-1 $-1 $64 10 #
loop_type-twe-attrib $-1 -1 $-1 $-1 $66 1 #
coedge $-1 -1 $-1 $99 $99 $150 $151 forward $66 $-1 #
coedge $-1 -1 $-1 $100 $100 $67 $101 reversed $146 $-1 #
edge $152 -1 $-1 $153 -3.1415926535897931 $153 3.1415926535897931 $67 $154 forward @7 unknown #
coedge $-1 -1 $-1 $155 $70 $156 $157 forward $44 $-1 #
coedge $-1 -1 $-1 $70 $158 $159 $160 forward $44 $-1 #
coedge $-1 -1 $-1 $161 $162 $70 $105 reversed $163 $-1 #
edge $164 -1 $-1 $165 -0.13856406460551021 $166 0 $104 $167 forward @7 unknown #
attrib_edge_convexity-kcp-attrib $-1 -1 $168 $-1 $72 1 #
vertex $-1 -1 $-1 $72 $169 #
ellipse-curve $170 -1 $-1 -0.625 0.34399999999999997 0.56899999999999995 0 0 1 0.2185 0 0 1 I I #
face $-1 -1 $-1 $171 $172 $24 $-1 $49 reversed single #
loop $-1 -1 $-1 $-1 $173 $73 #
coedge $-1 -1 $-1 $174 $175 $176 $177 reversed $74 $-1 #
coedge $-1 -1 $-1 $178 $75 $179 $180 reversed $48 $-1 #
coedge $-1 -1 $-1 $75 $178 $181 $182 reversed $48 $-1 #
coedge $-1 -1 $-1 $183 $184 $185 $115 forward $186 $-1 #
edge $-1 -1 $-1 $187 -0.56899999999999995 $188 0 $114 $189 forward @7 unknown #
face $-1 -1 $-1 $-1 $190 $26 $-1 $191 forward single #
loop $-1 -1 $-1 $192 $193 $76 #
plane-surface $-1 -1 $-1 -0.011363636363636359 4.1606335056216715e-018 -0.28449999999999998 8.1831863016037455e-033 6.8193219180031165e-033 1 1 0 -8.1831863016037455e-033 forward_v I I I I #
loop $-1 -1 $-1 $-1 $194 $50 #
coedge $-1 -1 $-1 $120 $120 $193 $195 forward $77 $-1 #
coedge $-1 -1 $-1 $121 $121 $196 $197 reversed $79 $-1 #
coedge $-1 -1 $-1 $122 $122 $80 $123 reversed $192 $-1 #
edge $-1 -1 $-1 $198 -3.1415926535897931 $198 3.1415926535897931 $80 $199 forward @7 unknown #
face $-1 -1 $-1 $200 $201 $27 $-1 $202 reversed single #
loop $-1 -1 $-1 $-1 $203 $82 #
plane-surface $-1 -1 $-1 0 -0.21850000000000003 0 0 1 0 0 0 1 forward_v I I I I #
coedge $-1 -1 $-1 $204 $205 $206 $207 forward $83 $-1 #
coedge $-1 -1 $-1 $208 $85 $209 $210 forward $55 $-1 #
coedge $-1 -1 $-1 $85 $208 $211 $212 forward $55 $-1 #
coedge $-1 -1 $-1 $213 $214 $85 $131 reversed $215 $-1 #
edge $-1 -1 $-1 $216 -0.21850000000000003 $217 0.21850000000000003 $130 $218 forward @7 unknown #
face $-1 -1 $-1 $219 $220 $29 $-1 $221 forward single #
loop $-1 -1 $-1 $-1 $222 $86 #
plane-surface $-1 -1 $-1 -0.069244465005348976 -0.12999999999999995 0.15950000000000003 -0.86602540378443849 -0.50000000000000033 0 0 0 1 forward_v I I I I #
coedge $-1 -1 $-1 $223 $224 $225 $226 forward $87 $-1 #
coedge $-1 -1 $-1 $227 $89 $224 $228 reversed $58 $-1 #
coedge $-1 -1 $-1 $89 $227 $229 $230 forward $58 $-1 #
coedge $-1 -1 $-1 $231 $225 $89 $139 reversed $232 $-1 #
edge $-1 -1 $-1 $233 -0.1132955985041123 $234 0.036815471485190182 $89 $235 forward @7 unknown #
face_name-twe-attrib $-1 -1 $-1 $91 $62 4 #
model_id-kcp-attrib $-1 -1 $236 $-1 $92 1 1021392650 1021392650 -1359740927 6 #
face $237 -1 $-1 $238 $239 $9 $-1 $240 forward single #
loop $241 -1 $-1 $242 $150 $92 #
cone-surface $243 -1 $-1 -0.625 0.34399999999999997 -0.02845 0 0 1 -0.0935 0 0 1 I I 0 1 0.0935 forward I I I I #
loop_type-twe-attrib $-1 -1 $-1 $-1 $93 0 #
loop $244 -1 $-1 $-1 $100 $62 #
surf-twe-attrib $-1 -1 $-1 $-1 $94 18 #
coedge $-1 -1 $-1 $148 $148 $96 $149 reversed $242 $-1 #
edge $245 -1 $-1 $246 -3.1415926535897931 $246 3.1415926535897931 $96 $247 forward @7 unknown #
coedge $-1 -1 $-1 $150 $150 $99 $151 reversed $143 $-1 #
edge $248 -1 $-1 $249 0 $249 6.2831853071795862 $150 $250 forward @7 unknown #
attrib_edge_convexity-kcp-attrib $-1 -1 $251 $-1 $101 1 #
vertex $-1 -1 $-1 $101 $252 #
ellipse-curve $253 -1 $-1 -0.625 0.34399999999999997 0.38200000000000001 0 0 -1 0.2185 0 0 1 I I #
coedge $-1 -1 $-1 $254 $102 $255 $256 forward $44 $-1 #
coedge $-1 -1 $-1 $257 $258 $102 $157 reversed $259 $-1 #
edge $260 -1 $-1 $166 -0.15011106998930246 $261 0 $156 $262 forward @7 unknown #
coedge $-1 -1 $-1 $103 $254 $263 $264 forward $44 $-1 #
coedge $-1 -1 $-1 $265 $266 $103 $160 reversed $267 $-1 #
edge $268 -1 $-1 $269 -0.15003593539449001 $165 0 $159 $270 forward @7 unknown #
coedge $-1 -1 $-1 $271 $104 $266 $272 reversed $163 $-1 #
coedge $-1 -1 $-1 $104 $271 $257 $273 forward $163 $-1 #
loop $274 -1 $-1 $-1 $104 $238 #
attrib_edge_convexity-kcp-attrib $-1 -1 $275 $-1 $105 1 #
vertex $-1 -1 $-1 $272 $276 #
vertex $-1 -1 $-1 $273 $277 #
straight-curve $278 -1 $-1 -0.48070000000000002 0.34399999999999997 0.56899999999999995 0.499999999999999 -0.86602540378443904 0 I I #
convexity-sys-attrib $-1 -1 $279 $106 $72 #
point $-1 -1 $-1 -0.40649999999999997 0.34399999999999997 0.56899999999999995 #
cur-twe-attrib $-1 -1 $-1 $-1 $108 28 #
face $-1 -1 $-1 $280 $281 $24 $-1 $282 reversed single #
loop $-1 -1 $-1 $-1 $283 $109 #
coedge $-1 -1 $-1 $284 $285 $286 $287 reversed $110 $-1 #
coedge $-1 -1 $-1 $288 $111 $289 $290 reversed $74 $-1 #
coedge $-1 -1 $-1 $111 $288 $75 $115 forward $74 $-1 #
coedge $-1 -1 $-1 $291 $292 $111 $177 forward $293 $-1 #
edge $-1 -1 $-1 $294 -3.1415926535897931 $188 -1.5707963267948966 $176 $295 forward @7 unknown #
coedge $-1 -1 $-1 $113 $112 $285 $296 forward $48 $-1 #
coedge $-1 -1 $-1 $297 $298 $112 $180 forward $299 $-1 #
edge $-1 -1 $-1 $300 0 $187 1.5707963267948966 $179 $301 forward @7 unknown #
coedge $-1 -1 $-1 $302 $303 $113 $182 forward $304 $-1 #
edge $-1 -1 $-1 $188 -1.5707963267948966 $305 0 $181 $295 forward @7 unknown #
coedge $-1 -1 $-1 $306 $114 $303 $307 reversed $186 $-1 #
coedge $-1 -1 $-1 $114 $306 $297 $308 reversed $186 $-1 #
coedge $-1 -1 $-1 $309 $310 $175 $115 reversed $311 $-1 #
loop $-1 -1 $-1 $-1 $114 $312 #
vertex $-1 -1 $-1 $308 $313 #
vertex $-1 -1 $-1 $314 $315 #
straight-curve $-1 -1 $-1 0 0.21850000000000003 0.28449999999999998 0 0 1 I I #
loop $-1 -1 $-1 $316 $317 $116 #
plane-surface $-1 -1 $-1 -0.011363636363636359 4.1606335056216715e-018 0.097500000000000003 8.1831863016037455e-033 6.8193219180031165e-033 1 1 0 -8.1831863016037455e-033 forward_v I I I I #
loop $-1 -1 $-1 $-1 $122 $76 #
coedge $-1 -1 $-1 $193 $193 $120 $195 reversed $117 $-1 #
coedge $-1 -1 $-1 $194 $194 $317 $318 reversed $119 $-1 #
edge $-1 -1 $-1 $319 -3.1415926535897931 $319 3.1415926535897931 $120 $320 forward @7 unknown #
coedge $-1 -1 $-1 $196 $196 $121 $197 forward $316 $-1 #
edge $321 -1 $-1 $322 -3.1415926535897931 $322 3.1415926535897931 $121 $323 forward @7 unknown #
vertex $-1 -1 $-1 $123 $324 #
ellipse-curve $-1 -1 $-1 0 0 -0.28449999999999998 0 0 -1 -0.0935 0 0 1 I I #
face $-1 -1 $-1 $325 $326 $27 $-1 $327 reversed single #
loop $-1 -1 $-1 $-1 $328 $124 #
plane-surface $-1 -1 $-1 -0.21850000000000003 0 0 1 0 0 0 0 -1 forward_v I I I I #
coedge $-1 -1 $-1 $329 $211 $330 $331 forward $125 $-1 #
coedge $-1 -1 $-1 $332 $127 $329 $333 forward $83 $-1 #
coedge $-1 -1 $-1 $127 $332 $334 $335 forward $83 $-1 #
coedge $-1 -1 $-1 $214 $213 $127 $207 reversed $215 $-1 #
edge $-1 -1 $-1 $336 -0.21850000000000003 $337 0.21850000000000003 $206 $338 forward @7 unknown #
coedge $-1 -1 $-1 $129 $128 $339 $340 forward $55 $-1 #
coedge $-1 -1 $-1 $341 $342 $128 $210 reversed $326 $-1 #
edge $-1 -1 $-1 $217 -0.21850000000000003 $343 0.21850000000000003 $209 $344 forward @7 unknown #
coedge $-1 -1 $-1 $203 $345 $129 $212 reversed $125 $-1 #
edge $-1 -1 $-1 $346 -0.21850000000000003 $216 0.21850000000000003 $211 $347 forward @7 unknown #
coedge $-1 -1 $-1 $206 $130 $345 $348 forward $215 $-1 #
coedge $-1 -1 $-1 $130 $206 $341 $349 reversed $215 $-1 #
loop $-1 -1 $-1 $-1 $213 $325 #
vertex $-1 -1 $-1 $131 $350 #
vertex $-1 -1 $-1 $131 $351 #
straight-curve $-1 -1 $-1 0.21850000000000003 0 0.28449999999999998 0 1 0 I I #
face $-1 -1 $-1 $352 $353 $29 $-1 $354 forward single #
loop $-1 -1 $-1 $-1 $355 $132 #
plane-surface $-1 -1 $-1 -0.14429999999999998 0 0.15950000000000003 -0.86602540378443882 0.49999999999999989 0 0 0 1 forward_v I I I I #
coedge $-1 -1 $-1 $356 $357 $358 $359 forward $133 $-1 #
coedge $-1 -1 $-1 $360 $135 $357 $361 reversed $87 $-1 #
coedge $-1 -1 $-1 $135 $360 $136 $228 forward $87 $-1 #
coedge $-1 -1 $-1 $138 $358 $135 $226 reversed $232 $-1 #
edge $-1 -1 $-1 $234 -0.10386669750802346 $362 0.034622232502674488 $135 $363 forward @7 unknown #
coedge $-1 -1 $-1 $137 $136 $364 $365 reversed $58 $-1 #
edge $366 -1 $-1 $367 0 $234 0.12499999999999994 $224 $368 forward @7 unknown #
coedge $-1 -1 $-1 $369 $370 $137 $230 reversed $371 $-1 #
edge $-1 -1 $-1 $372 0 $233 0.12499999999999994 $137 $373 forward @7 unknown #
coedge $-1 -1 $-1 $374 $138 $370 $375 reversed $232 $-1 #
loop $-1 -1 $-1 $-1 $138 $376 #
vertex $-1 -1 $-1 $230 $377 #
vertex $-1 -1 $-1 $228 $378 #
straight-curve $-1 -1 $-1 0.087652200747944081 -0.098116866441523648 0.28450000000000003 -0.49999999999999989 -0.86602540378443882 0 I I #
face_name-twe-attrib $-1 -1 $-1 $141 $92 5 #
model_id-kcp-attrib $-1 -1 $379 $-1 $142 1 1021392650 1021392650 -1359740927 7 #
face $380 -1 $-1 $381 $163 $9 $-1 $382 reversed single #
loop $383 -1 $-1 $-1 $384 $142 #
plane-surface $385 -1 $-1 -0.625 0.34399999999999997 0.44400000000000001 0 0 1 1 0 0 forward_v I I I I #
loop_type-twe-attrib $-1 -1 $-1 $-1 $143 0 #
loop $386 -1 $-1 $-1 $148 $92 #
surf-twe-attrib $-1 -1 $-1 $-1 $144 30 #
loop_type-twe-attrib $-1 -1 $-1 $-1 $146 1 #
edge_name-twe-attrib $-1 -1 $-1 $-1 $149 2 8704 #
vertex $-1 -1 $-1 $149 $387 #
ellipse-curve $388 -1 $-1 -0.625 0.34399999999999997 0 0 0 -1 0.0935 0 0 1 I I #
attrib_edge_convexity-kcp-attrib $-1 -1 $389 $-1 $151 2 #
vertex $-1 -1 $-1 $151 $390 #
ellipse-curve $391 -1 $-1 -0.625 0.34399999999999997 0.38200000000000001 0 0 1 0.0935 0 0 1 I I #
convexity-sys-attrib $-1 -1 $392 $152 $101 #
point $-1 -1 $-1 -0.84350000000000003 0.34399999999999997 0.38200000000000001 #
cur-twe-attrib $-1 -1 $-1 $-1 $154 39 #
coedge $-1 -1 $-1 $158 $155 $393 $394 forward $44 $-1 #
coedge $-1 -1 $-1 $395 $396 $155 $256 reversed $397 $-1 #
edge $398 -1 $-1 $261 -0.13848893001069795 $399 0 $255 $400 forward @7 unknown #
coedge $-1 -1 $-1 $401 $156 $162 $273 reversed $259 $-1 #
coedge $-1 -1 $-1 $156 $401 $395 $402 forward $259 $-1 #
loop $403 -1 $-1 $-1 $156 $404 #
attrib_edge_convexity-kcp-attrib $-1 -1 $405 $-1 $157 1 #
vertex $-1 -1 $-1 $402 $406 #
straight-curve $407 -1 $-1 -0.55575553499465102 0.214 0.56899999999999995 -0.499999999999998 -0.86602540378444004 0 I I #
coedge $-1 -1 $-1 $408 $409 $158 $264 reversed $410 $-1 #
edge $411 -1 $-1 $412 -0.13856406460551021 $269 0 $263 $413 forward @7 unknown #
coedge $-1 -1 $-1 $414 $159 $409 $415 reversed $267 $-1 #
coedge $-1 -1 $-1 $159 $414 $161 $272 forward $267 $-1 #
loop $416 -1 $-1 $-1 $159 $381 #
attrib_edge_convexity-kcp-attrib $-1 -1 $417 $-1 $160 1 #
vertex $-1 -1 $-1 $415 $418 #
straight-curve $419 -1 $-1 -0.549982032302755 0.46400000000000002 0.56899999999999995 1 0 0 I I #
coedge $-1 -1 $-1 $162 $161 $384 $420 forward $163 $-1 #
edge $421 -1 $-1 $422 -0.12499999999999994 $165 0 $266 $423 forward @7 unknown #
edge $424 -1 $-1 $425 -0.12499999999999994 $166 0 $257 $426 forward @7 unknown #
loop_type-twe-attrib $-1 -1 $-1 $-1 $163 0 #
convexity-sys-attrib $-1 -1 $427 $164 $105 #
point $-1 -1 $-1 -0.549982032302755 0.46400000000000002 0.56899999999999995 #
point $-1 -1 $-1 -0.48070000000000002 0.34399999999999997 0.56899999999999995 #
cur-twe-attrib $-1 -1 $-1 $-1 $167 43 #
edge_name-twe-attrib $-1 -1 $-1 $168 $72 3 8704 #
face $-1 -1 $-1 $428 $311 $24 $-1 $429 reversed single #
loop $-1 -1 $-1 $-1 $430 $171 #
plane-surface $-1 -1 $-1 0.21850000000000003 0 0 -1 0 0 0 0 1 forward_v I I I I #
coedge $-1 -1 $-1 $431 $432 $433 $434 reversed $172 $-1 #
coedge $-1 -1 $-1 $435 $173 $432 $436 forward $110 $-1 #
coedge $-1 -1 $-1 $173 $435 $437 $296 reversed $110 $-1 #
coedge $-1 -1 $-1 $438 $439 $173 $287 forward $440 $-1 #
edge $-1 -1 $-1 $441 -1.5707963267948966 $300 0 $286 $301 forward @7 unknown #
coedge $-1 -1 $-1 $175 $174 $442 $443 reversed $74 $-1 #
coedge $-1 -1 $-1 $444 $445 $446 $290 forward $447 $-1 #
edge $-1 -1 $-1 $448 -0.56899999999999995 $294 0 $289 $449 forward @7 unknown #
coedge $-1 -1 $-1 $292 $176 $310 $314 forward $293 $-1 #
coedge $-1 -1 $-1 $176 $291 $444 $450 forward $293 $-1 #
loop $-1 -1 $-1 $-1 $176 $451 #
vertex $-1 -1 $-1 $452 $453 #
ellipse-curve $-1 -1 $-1 0 0 0.28449999999999998 0 0 -1 0.2185 0 0 1 I I #
edge $-1 -1 $-1 $300 -0.56899999999999995 $305 0 $437 $454 forward @7 unknown #
coedge $-1 -1 $-1 $298 $179 $184 $308 forward $299 $-1 #
coedge $-1 -1 $-1 $179 $297 $455 $456 forward $299 $-1 #
loop $-1 -1 $-1 $-1 $179 $457 #
vertex $-1 -1 $-1 $458 $459 #
ellipse-curve $-1 -1 $-1 0 0 -0.28449999999999998 0 0 1 0.2185 0 0 1 I I #
coedge $-1 -1 $-1 $303 $181 $460 $461 forward $304 $-1 #
coedge $-1 -1 $-1 $181 $302 $183 $307 forward $304 $-1 #
loop $-1 -1 $-1 $-1 $181 $462 #
vertex $-1 -1 $-1 $461 $463 #
coedge $-1 -1 $-1 $184 $183 $464 $465 forward $186 $-1 #
edge $-1 -1 $-1 $466 -0.21850000000000003 $188 0 $183 $467 forward @7 unknown #
edge $-1 -1 $-1 $187 0 $468 0.21850000000000003 $184 $469 forward @7 unknown #
coedge $-1 -1 $-1 $470 $185 $471 $472 reversed $311 $-1 #
coedge $-1 -1 $-1 $185 $470 $291 $314 reversed $311 $-1 #
loop $-1 -1 $-1 $-1 $185 $280 #
face $-1 -1 $-1 $473 $186 $24 $-1 $429 reversed single #
point $-1 -1 $-1 0 0.21850000000000003 -0.28449999999999998 #
edge $-1 -1 $-1 $188 0 $474 0.21850000000000003 $310 $467 forward @7 unknown #
point $-1 -1 $-1 0 0.21850000000000003 0.28449999999999998 #
loop $-1 -1 $-1 $-1 $196 $116 #
coedge $-1 -1 $-1 $317 $317 $194 $318 forward $190 $-1 #
edge $475 -1 $-1 $476 -3.1415926535897931 $476 3.1415926535897931 $194 $477 forward @7 unknown #
vertex $-1 -1 $-1 $195 $478 #
ellipse-curve $-1 -1 $-1 0 0 -0.28449999999999998 0 0 1 0.2185 0 0 1 I I #
convexity-sys-attrib $-1 -1 $-1 $-1 $197 #
vertex $-1 -1 $-1 $197 $479 #
ellipse-curve $-1 -1 $-1 0 0 0.097500000000000031 0 0 -1 -0.0935 0 0 1 I I #
point $-1 -1 $-1 0.093500000000000028 0 -0.28449999999999998 #
face $-1 -1 $-1 $-1 $215 $27 $-1 $480 reversed single #
loop $-1 -1 $-1 $-1 $341 $200 #
plane-surface $-1 -1 $-1 0 0.21850000000000003 0 0 -1 0 0 0 -1 forward_v I I I I #
coedge $-1 -1 $-1 $481 $339 $342 $482 forward $201 $-1 #
coedge $-1 -1 $-1 $345 $203 $204 $333 reversed $125 $-1 #
coedge $-1 -1 $-1 $339 $481 $203 $331 reversed $201 $-1 #
edge $-1 -1 $-1 $346 -0.28449999999999998 $483 0.28449999999999998 $330 $484 forward @7 unknown #
coedge $-1 -1 $-1 $205 $204 $481 $485 forward $83 $-1 #
edge $-1 -1 $-1 $337 -0.21850000000000003 $483 0.21850000000000003 $329 $486 forward @7 unknown #
coedge $-1 -1 $-1 $342 $341 $205 $335 reversed $326 $-1 #
edge $-1 -1 $-1 $487 -0.21850000000000003 $336 0.21850000000000003 $334 $488 forward @7 unknown #
vertex $-1 -1 $-1 $207 $489 #
vertex $-1 -1 $-1 $348 $490 #
straight-curve $-1 -1 $-1 0.21850000000000003 0 -0.28449999999999998 0 -1 0 I I #
coedge $-1 -1 $-1 $328 $330 $208 $340 reversed $201 $-1 #
edge $-1 -1 $-1 $343 -0.21850000000000003 $346 0.21850000000000003 $339 $491 forward @7 unknown #
coedge $-1 -1 $-1 $334 $209 $214 $349 forward $326 $-1 #
coedge $-1 -1 $-1 $209 $334 $328 $482 reversed $326 $-1 #
vertex $-1 -1 $-1 $210 $492 #
straight-curve $-1 -1 $-1 0 0.21850000000000003 0.28449999999999998 -1 0 0 I I #
coedge $-1 -1 $-1 $211 $329 $213 $348 reversed $125 $-1 #
vertex $-1 -1 $-1 $340 $493 #
straight-curve $-1 -1 $-1 0 -0.21850000000000003 0.28449999999999998 1 0 0 I I #
edge $-1 -1 $-1 $216 -0.28449999999999998 $337 0.28449999999999998 $213 $494 forward @7 unknown #
edge $-1 -1 $-1 $217 -0.28449999999999998 $336 0.28449999999999998 $214 $495 forward @7 unknown #
point $-1 -1 $-1 0.21850000000000003 -0.21850000000000003 0.28449999999999998 #
point $-1 -1 $-1 0.21850000000000003 0.21850000000000003 0.28449999999999998 #
face $-1 -1 $-1 $376 $371 $29 $-1 $496 forward single #
loop $-1 -1 $-1 $-1 $497 $219 #
plane-surface $-1 -1 $-1 -0.075017967697245003 0.12000000000000005 0.15950000000000003 0 1 0 0 0 1 forward_v I I I I #
coedge $-1 -1 $-1 $498 $499 $500 $501 forward $220 $-1 #
coedge $-1 -1 $-1 $502 $222 $499 $503 reversed $133 $-1 #
coedge $-1 -1 $-1 $222 $502 $223 $361 forward $133 $-1 #
coedge $-1 -1 $-1 $225 $500 $222 $359 reversed $232 $-1 #
edge $-1 -1 $-1 $362 -0.1118710064798414 $504 0.038240063509461089 $222 $505 forward @7 unknown #
coedge $-1 -1 $-1 $224 $223 $506 $507 reversed $87 $-1 #
edge $-1 -1 $-1 $508 0 $362 0.12499999999999994 $357 $509 forward @7 unknown #
vertex $-1 -1 $-1 $361 $510 #
straight-curve $-1 -1 $-1 -0.034622232502674488 -0.12999999999999998 0.28450000000000003 -1 0 0 I I #
coedge $-1 -1 $-1 $506 $511 $227 $365 forward $512 $-1 #
edge $513 -1 $-1 $372 -0.1132955985041123 $367 0.036815471485190203 $227 $514 forward @7 unknown #
convexity-sys-attrib $-1 -1 $-1 $-1 $228 #
vertex $-1 -1 $-1 $365 $515 #
straight-curve $-1 -1 $-1 0.069244465005348976 -0.12999999999999995 0.15950000000000003 0 0 1 I I #
coedge $-1 -1 $-1 $516 $229 $511 $517 reversed $371 $-1 #
coedge $-1 -1 $-1 $229 $516 $231 $375 forward $371 $-1 #
loop $-1 -1 $-1 $-1 $370 $352 #
vertex $-1 -1 $-1 $517 $518 #
straight-curve $-1 -1 $-1 0.14429999999999998 0 0.15950000000000003 0 0 1 I I #
coedge $-1 -1 $-1 $500 $231 $497 $519 reversed $232 $-1 #
edge $-1 -1 $-1 $520 -0.10465412811497127 $233 0.033909936490538903 $370 $521 forward @7 unknown #
face $-1 -1 $-1 $522 $232 $29 $-1 $523 forward single #
point $-1 -1 $-1 0.14429999999999998 0 0.28449999999999998 #
point $-1 -1 $-1 0.069244465005348976 -0.12999999999999995 0.28449999999999998 #
face_name-twe-attrib $-1 -1 $-1 $237 $142 6 #
model_id-kcp-attrib $-1 -1 $524 $-1 $238 1 1021392650 1021392650 -1359740927 8 #
face $525 -1 $-1 $526 $267 $9 $-1 $527 reversed single #
plane-surface $528 -1 $-1 -0.48070000000000002 0.34399999999999997 0.56899999999999995 0.86602540378443882 0.49999999999999989 0 0 0 -1 forward_v I I I I #
loop_type-twe-attrib $-1 -1 $-1 $-1 $239 0 #
coedge $-1 -1 $-1 $529 $530 $271 $420 reversed $239 $-1 #
surf-twe-attrib $-1 -1 $-1 $-1 $240 48 #
loop_type-twe-attrib $-1 -1 $-1 $-1 $242 1 #
point $-1 -1 $-1 -0.71850000000000003 0.34399999999999997 0 #
cur-twe-attrib $-1 -1 $-1 $-1 $247 55 #
convexity-sys-attrib $-1 -1 $531 $248 $151 #
point $-1 -1 $-1 -0.53149999999999997 0.34399999999999997 0.38200000000000001 #
cur-twe-attrib $-1 -1 $-1 $-1 $250 57 #
edge_name-twe-attrib $-1 -1 $-1 $251 $101 1 8704 #
coedge $-1 -1 $-1 $532 $533 $254 $394 reversed $534 $-1 #
edge $535 -1 $-1 $399 -0.15011106998930246 $412 0 $393 $536 forward @7 unknown #
coedge $-1 -1 $-1 $537 $255 $258 $402 reversed $397 $-1 #
coedge $-1 -1 $-1 $255 $537 $532 $538 forward $397 $-1 #
loop $539 -1 $-1 $-1 $255 $540 #
attrib_edge_convexity-kcp-attrib $-1 -1 $541 $-1 $256 1 #
vertex $-1 -1 $-1 $538 $542 #
straight-curve $543 -1 $-1 -0.69424446500534898 0.214 0.56899999999999995 -1 0 0 I I #
coedge $-1 -1 $-1 $258 $257 $530 $544 forward $259 $-1 #
edge $545 -1 $-1 $546 -0.12499999999999994 $261 0 $258 $547 forward @7 unknown #
loop_type-twe-attrib $-1 -1 $-1 $-1 $259 0 #
face $548 -1 $-1 $-1 $259 $9 $-1 $549 reversed single #
convexity-sys-attrib $-1 -1 $550 $260 $157 #
point $-1 -1 $-1 -0.55575553499465102 0.214 0.56899999999999995 #
cur-twe-attrib $-1 -1 $-1 $-1 $262 63 #
coedge $-1 -1 $-1 $551 $263 $533 $552 reversed $410 $-1 #
coedge $-1 -1 $-1 $263 $551 $265 $415 forward $410 $-1 #
loop $553 -1 $-1 $-1 $263 $526 #
attrib_edge_convexity-kcp-attrib $-1 -1 $554 $-1 $264 1 #
vertex $-1 -1 $-1 $552 $555 #
straight-curve $556 -1 $-1 -0.700017967697245 0.46400000000000002 0.56899999999999995 0.499999999999999 0.86602540378443904 0 I I #
coedge $-1 -1 $-1 $266 $265 $529 $557 forward $267 $-1 #
edge $558 -1 $-1 $559 -0.12499999999999994 $269 0 $409 $560 forward @7 unknown #
loop_type-twe-attrib $-1 -1 $-1 $-1 $267 0 #
convexity-sys-attrib $-1 -1 $561 $268 $160 #
point $-1 -1 $-1 -0.700017967697245 0.46400000000000002 0.56899999999999995 #
cur-twe-attrib $-1 -1 $-1 $-1 $270 66 #
edge $562 -1 $-1 $422 -0.13856406460551021 $425 0 $271 $563 forward @7 unknown #
edge_name-twe-attrib $-1 -1 $-1 $-1 $272 9 4352 #
vertex $-1 -1 $-1 $272 $564 #
straight-curve $565 -1 $-1 -0.549982032302755 0.46400000000000002 0.56899999999999995 0 0 1 I I #
edge_name-twe-attrib $-1 -1 $-1 $-1 $273 20 4352 #
vertex $-1 -1 $-1 $273 $566 #
straight-curve $567 -1 $-1 -0.48070000000000002 0.34399999999999997 0.56899999999999995 0 0 1 I I #
edge_name-twe-attrib $-1 -1 $-1 $275 $105 5 8704 #
face $-1 -1 $-1 $568 $569 $24 $-1 $570 reversed single #
plane-surface $-1 -1 $-1 0 0.21850000000000003 0 0 -1 0 0 0 -1 forward_v I I I I #
coedge $-1 -1 $-1 $455 $460 $178 $296 reversed $281 $-1 #
coedge $-1 -1 $-1 $571 $283 $174 $290 forward $172 $-1 #
coedge $-1 -1 $-1 $283 $571 $572 $436 reversed $172 $-1 #
coedge $-1 -1 $-1 $573 $574 $283 $434 forward $575 $-1 #
edge $-1 -1 $-1 $448 -3.1415926535897931 $441 -1.5707963267948966 $433 $301 forward @7 unknown #
coedge $-1 -1 $-1 $285 $284 $576 $577 reversed $110 $-1 #
edge $-1 -1 $-1 $441 -0.56899999999999995 $578 0 $572 $579 forward @7 unknown #
coedge $-1 -1 $-1 $580 $581 $430 $296 forward $582 $-1 #
coedge $-1 -1 $-1 $439 $286 $581 $458 forward $440 $-1 #
coedge $-1 -1 $-1 $286 $438 $583 $584 forward $440 $-1 #
loop $-1 -1 $-1 $-1 $286 $585 #
vertex $-1 -1 $-1 $586 $587 #
coedge $-1 -1 $-1 $588 $471 $288 $443 forward $589 $-1 #
edge $-1 -1 $-1 $187 1.5707963267948966 $448 3.1415926535897931 $442 $301 forward @7 unknown #
coedge $-1 -1 $-1 $590 $289 $292 $450 reversed $447 $-1 #
coedge $-1 -1 $-1 $289 $590 $588 $591 reversed $447 $-1 #
coedge $-1 -1 $-1 $592 $593 $431 $290 reversed $569 $-1 #
loop $-1 -1 $-1 $-1 $289 $594 #
vertex $-1 -1 $-1 $591 $595 #
straight-curve $-1 -1 $-1 -0.21850000000000003 0 0.28449999999999998 0 0 1 I I #
edge $-1 -1 $-1 $474 -0.21850000000000003 $294 0 $444 $596 forward @7 unknown #
face $-1 -1 $-1 $462 $293 $24 $-1 $597 forward single #
edge $-1 -1 $-1 $294 0 $598 0.21850000000000003 $593 $596 forward @7 unknown #
point $-1 -1 $-1 -0.21850000000000003 0 0.28449999999999998 #
straight-curve $-1 -1 $-1 0.21850000000000003 0 0.28449999999999998 0 0 1 I I #
coedge $-1 -1 $-1 $464 $430 $298 $456 reversed $281 $-1 #
edge $-1 -1 $-1 $468 -0.21850000000000003 $300 0 $455 $599 forward @7 unknown #
face $-1 -1 $-1 $600 $299 $24 $-1 $601 reversed single #
edge $-1 -1 $-1 $300 0 $602 0.21850000000000003 $581 $599 forward @7 unknown #
point $-1 -1 $-1 0.21850000000000003 0 -0.28449999999999998 #
coedge $-1 -1 $-1 $430 $464 $302 $461 reversed $281 $-1 #
edge $-1 -1 $-1 $305 0 $466 0.21850000000000003 $460 $603 forward @7 unknown #
face $-1 -1 $-1 $604 $304 $24 $-1 $597 forward single #
point $-1 -1 $-1 0.21850000000000003 0 0.28449999999999998 #
coedge $-1 -1 $-1 $460 $455 $306 $465 reversed $281 $-1 #
edge $-1 -1 $-1 $466 -0.28449999999999998 $468 0.28449999999999998 $464 $605 forward @7 unknown #
vertex $-1 -1 $-1 $461 $606 #
straight-curve $-1 -1 $-1 0 0.21850000000000003 0.28449999999999998 -1 0 0 I I #
vertex $-1 -1 $-1 $456 $607 #
straight-curve $-1 -1 $-1 0 0.21850000000000003 -0.28449999999999998 1 0 0 I I #
coedge $-1 -1 $-1 $310 $309 $590 $608 reversed $311 $-1 #
coedge $-1 -1 $-1 $442 $588 $309 $472 forward $589 $-1 #
edge $-1 -1 $-1 $609 -0.21850000000000003 $187 0 $309 $469 forward @7 unknown #
face $-1 -1 $-1 $-1 $582 $24 $-1 $282 reversed single #
vertex $-1 -1 $-1 $314 $610 #
convexity-sys-attrib $-1 -1 $-1 $-1 $318 #
vertex $-1 -1 $-1 $318 $611 #
ellipse-curve $-1 -1 $-1 0 0 0.097500000000000031 0 0 1 0.2185 0 0 1 I I #
point $-1 -1 $-1 -0.2185 -2.6757648831018943e-017 -0.28449999999999998 #
point $-1 -1 $-1 0.093500000000000028 0 0.097500000000000031 #
plane-surface $-1 -1 $-1 0.21850000000000003 0 0 -1 0 0 0 0 1 forward_v I I I I #
coedge $-1 -1 $-1 $330 $328 $332 $485 reversed $201 $-1 #
edge $-1 -1 $-1 $343 -0.28449999999999998 $487 0.28449999999999998 $342 $612 forward @7 unknown #
vertex $-1 -1 $-1 $485 $613 #
straight-curve $-1 -1 $-1 -0.21850000000000003 -0.21850000000000003 0 0 0 -1 I I #
edge $-1 -1 $-1 $483 -0.21850000000000003 $487 0.21850000000000003 $481 $614 forward @7 unknown #
straight-curve $-1 -1 $-1 0 -0.21850000000000003 -0.28449999999999998 -1 0 0 I I #
vertex $-1 -1 $-1 $335 $615 #
straight-curve $-1 -1 $-1 0 0.21850000000000003 -0.28449999999999998 1 0 0 I I #
point $-1 -1 $-1 0.21850000000000003 0.21850000000000003 -0.28449999999999998 #
point $-1 -1 $-1 0.21850000000000003 -0.21850000000000003 -0.28449999999999998 #
straight-curve $-1 -1 $-1 -0.21850000000000003 0 0.28449999999999998 0 -1 0 I I #
point $-1 -1 $-1 -0.21850000000000003 0.21850000000000003 0.28449999999999998 #
point $-1 -1 $-1 -0.21850000000000003 -0.21850000000000003 0.28449999999999998 #
straight-curve $-1 -1 $-1 0.21850000000000003 -0.21850000000000003 0 0 0 -1 I I #
straight-curve $-1 -1 $-1 0.21850000000000003 0.21850000000000003 0 0 0 -1 I I #
plane-surface $-1 -1 $-1 0.075017967697245003 0.12000000000000005 0.15950000000000003 0.86602540378443882 0.49999999999999989 0 0 0 -1 forward_v I I I I #
coedge $-1 -1 $-1 $616 $617 $374 $519 forward $353 $-1 #
coedge $-1 -1 $-1 $618 $355 $617 $619 reversed $220 $-1 #
coedge $-1 -1 $-1 $355 $618 $356 $503 forward $220 $-1 #
coedge $-1 -1 $-1 $358 $374 $355 $501 reversed $232 $-1 #
edge $-1 -1 $-1 $504 -0.10319196879329401 $620 0.035372095812216169 $355 $621 forward @7 unknown #
coedge $-1 -1 $-1 $357 $356 $622 $623 reversed $133 $-1 #
edge $-1 -1 $-1 $624 0 $504 0.12499999999999994 $499 $625 forward @7 unknown #
vertex $-1 -1 $-1 $503 $626 #
straight-curve $-1 -1 $-1 -0.12517996824526945 -0.033116866441523618 0.28450000000000003 -0.50000000000000033 0.86602540378443849 0 I I #
coedge $-1 -1 $-1 $622 $364 $360 $507 forward $512 $-1 #
edge $627 -1 $-1 $367 -0.10386669750802346 $508 0.034622232502674488 $360 $628 forward @7 unknown #
vertex $-1 -1 $-1 $507 $629 #
straight-curve $-1 -1 $-1 -0.069244465005348976 -0.12999999999999995 0.15950000000000003 0 0 1 I I #
point $-1 -1 $-1 -0.069244465005348976 -0.12999999999999995 0.28449999999999998 #
coedge $-1 -1 $-1 $364 $630 $369 $517 forward $512 $-1 #
loop $-1 -1 $-1 $-1 $511 $522 #
convexity-sys-attrib $-1 -1 $-1 $-1 $365 #
straight-curve $-1 -1 $-1 0.087652200747944081 -0.098116866441523648 0.15950000000000009 -0.49999999999999989 -0.86602540378443882 0 I I #
point $-1 -1 $-1 0.069244465005348976 -0.12999999999999998 0.15950000000000003 #
coedge $-1 -1 $-1 $370 $369 $616 $631 forward $371 $-1 #
edge $632 -1 $-1 $633 -0.10465412811497127 $372 0.033909936490538903 $369 $634 forward @7 unknown #
point $-1 -1 $-1 0.14429999999999998 0 0.15950000000000003 #
edge $-1 -1 $-1 $620 -0.1125269515458675 $520 0.037508983848622501 $497 $635 forward @7 unknown #
vertex $-1 -1 $-1 $631 $636 #
straight-curve $-1 -1 $-1 0.12734503175473055 0.029366866441523636 0.28450000000000003 0.49999999999999989 -0.86602540378443882 0 I I #
face $-1 -1 $-1 $-1 $512 $29 $-1 $637 reversed single #
plane-surface $-1 -1 $-1 3.8163916471489756e-017 -0.0033330440899547332 0.28449999999999998 0 0 1 1 0 0 forward_v I I I I #
face_name-twe-attrib $-1 -1 $-1 $380 $238 7 #
model_id-kcp-attrib $-1 -1 $638 $-1 $381 1 1021392650 1021392650 -1359740927 9 #
face $639 -1 $-1 $640 $410 $9 $-1 $641 reversed single #
plane-surface $642 -1 $-1 -0.549982032302755 0.46400000000000002 0.56899999999999995 0 1 0 0 0 1 forward_v I I I I #
surf-twe-attrib $-1 -1 $-1 $-1 $382 77 #
coedge $-1 -1 $-1 $643 $384 $414 $557 reversed $239 $-1 #
coedge $-1 -1 $-1 $384 $644 $401 $544 reversed $239 $-1 #
edge_name-twe-attrib $-1 -1 $-1 $389 $151 4 4608 #
coedge $-1 -1 $-1 $645 $393 $396 $538 reversed $534 $-1 #
coedge $-1 -1 $-1 $393 $645 $408 $552 forward $534 $-1 #
loop $646 -1 $-1 $-1 $393 $640 #
attrib_edge_convexity-kcp-attrib $-1 -1 $647 $-1 $394 1 #
straight-curve $648 -1 $-1 -0.76929999999999998 0.34399999999999997 0.56899999999999995 -0.499999999999998 0.86602540378444004 0 I I #
coedge $-1 -1 $-1 $396 $395 $644 $649 forward $397 $-1 #
edge $650 -1 $-1 $651 -0.12499999999999994 $399 0 $396 $652 forward @7 unknown #
loop_type-twe-attrib $-1 -1 $-1 $-1 $397 0 #
face $653 -1 $-1 $404 $397 $9 $-1 $654 reversed single #
convexity-sys-attrib $-1 -1 $655 $398 $256 #
point $-1 -1 $-1 -0.69424446500534898 0.214 0.56899999999999995 #
cur-twe-attrib $-1 -1 $-1 $-1 $400 94 #
edge $656 -1 $-1 $425 -0.15011106998930246 $546 0 $401 $657 forward @7 unknown #
edge_name-twe-attrib $-1 -1 $-1 $-1 $402 22 4352 #
vertex $-1 -1 $-1 $402 $658 #
straight-curve $659 -1 $-1 -0.55575553499465102 0.214 0.56899999999999995 0 0 1 I I #
model_id-kcp-attrib $-1 -1 $660 $-1 $404 1 1021392650 1021392650 -1359740927 13 #
plane-surface $661 -1 $-1 -0.55575553499465102 0.214 0.56899999999999995 0.86602540378443882 -0.49999999999999989 0 0 0 -1 forward_v I I I I #
edge_name-twe-attrib $-1 -1 $-1 $405 $157 19 8704 #
coedge $-1 -1 $-1 $409 $408 $643 $662 forward $410 $-1 #
edge $663 -1 $-1 $664 -0.12499999999999994 $412 0 $533 $665 forward @7 unknown #
loop_type-twe-attrib $-1 -1 $-1 $-1 $410 0 #
convexity-sys-attrib $-1 -1 $666 $411 $264 #
point $-1 -1 $-1 -0.76929999999999998 0.34399999999999997 0.56899999999999995 #
cur-twe-attrib $-1 -1 $-1 $-1 $413 102 #
edge $667 -1 $-1 $559 -0.15003593539449001 $422 0 $414 $668 forward @7 unknown #
edge_name-twe-attrib $-1 -1 $-1 $-1 $415 12 4352 #
vertex $-1 -1 $-1 $415 $669 #
straight-curve $670 -1 $-1 -0.700017967697245 0.46400000000000002 0.56899999999999995 0 0 1 I I #
edge_name-twe-attrib $-1 -1 $-1 $417 $160 7 8704 #
attrib_edge_convexity-kcp-attrib $-1 -1 $671 $-1 $420 2 #
straight-curve $672 -1 $-1 -0.48070000000000002 0.34399999999999997 0.44400000000000001 0.499999999999999 -0.86602540378443904 0 I I #
point $-1 -1 $-1 -0.549982032302755 0.46400000000000002 0.44400000000000001 #
cur-twe-attrib $-1 -1 $-1 $-1 $423 110 #
point $-1 -1 $-1 -0.48070000000000002 0.34399999999999997 0.44400000000000001 #
cur-twe-attrib $-1 -1 $-1 $-1 $426 111 #
face $-1 -1 $-1 $451 $673 $24 $-1 $597 forward single #
loop $-1 -1 $-1 $-1 $446 $428 #
plane-surface $-1 -1 $-1 -0.21850000000000003 0 0 1 0 0 0 0 -1 forward_v I I I I #
coedge $-1 -1 $-1 $432 $431 $674 $675 reversed $172 $-1 #
coedge $-1 -1 $-1 $676 $677 $678 $436 forward $679 $-1 #
coedge $-1 -1 $-1 $574 $433 $677 $586 forward $575 $-1 #
coedge $-1 -1 $-1 $433 $573 $592 $680 forward $575 $-1 #
loop $-1 -1 $-1 $-1 $433 $681 #
coedge $-1 -1 $-1 $682 $683 $435 $577 forward $684 $-1 #
edge $-1 -1 $-1 $305 0 $578 1.5707963267948966 $576 $295 forward @7 unknown #
vertex $-1 -1 $-1 $685 $686 #
straight-curve $-1 -1 $-1 0 -0.21850000000000003 0.28449999999999998 0 0 1 I I #
coedge $-1 -1 $-1 $687 $437 $683 $688 reversed $582 $-1 #
coedge $-1 -1 $-1 $437 $687 $438 $458 reversed $582 $-1 #
loop $-1 -1 $-1 $-1 $437 $473 #
coedge $-1 -1 $-1 $689 $678 $439 $584 reversed $690 $-1 #
edge $-1 -1 $-1 $602 -0.21850000000000003 $441 0 $583 $691 forward @7 unknown #
face $-1 -1 $-1 $457 $440 $24 $-1 $601 reversed single #
edge $-1 -1 $-1 $441 0 $692 0.21850000000000003 $677 $691 forward @7 unknown #
point $-1 -1 $-1 0 -0.21850000000000003 -0.28449999999999998 #
coedge $-1 -1 $-1 $471 $442 $445 $591 forward $589 $-1 #
loop $-1 -1 $-1 $-1 $442 $600 #
coedge $-1 -1 $-1 $445 $444 $470 $608 forward $447 $-1 #
edge $-1 -1 $-1 $448 0 $609 0.21850000000000003 $445 $693 forward @7 unknown #
coedge $-1 -1 $-1 $694 $446 $574 $680 reversed $569 $-1 #
coedge $-1 -1 $-1 $446 $694 $695 $452 reversed $569 $-1 #
face $-1 -1 $-1 $312 $447 $24 $-1 $570 reversed single #
point $-1 -1 $-1 -0.21850000000000003 0 -0.28449999999999998 #
straight-curve $-1 -1 $-1 -0.21850000000000003 0 0.28449999999999998 0 -1 0 I I #
plane-surface $-1 -1 $-1 0 0 0.28449999999999998 0 0 1 1 0 0 forward_v I I I I #
vertex $-1 -1 $-1 $452 $696 #
straight-curve $-1 -1 $-1 0.21850000000000003 0 -0.28449999999999998 0 -1 0 I I #
face $-1 -1 $-1 $697 $589 $24 $-1 $601 reversed single #
plane-surface $-1 -1 $-1 0 0 -0.28449999999999998 0 0 1 1 0 0 forward_v I I I I #
vertex $-1 -1 $-1 $698 $699 #
straight-curve $-1 -1 $-1 0.21850000000000003 0 0.28449999999999998 0 1 0 I I #
face $-1 -1 $-1 $700 $684 $24 $-1 $597 forward single #
straight-curve $-1 -1 $-1 0.21850000000000003 0.21850000000000003 0 0 0 -1 I I #
point $-1 -1 $-1 0.21850000000000003 0.21850000000000003 0.28449999999999998 #
point $-1 -1 $-1 0.21850000000000003 0.21850000000000003 -0.28449999999999998 #
edge $-1 -1 $-1 $474 -0.28449999999999998 $609 0.28449999999999998 $470 $701 forward @7 unknown #
vertex $-1 -1 $-1 $472 $702 #
point $-1 -1 $-1 -0.21850000000000003 0.21850000000000003 0.28449999999999998 #
point $-1 -1 $-1 -0.2185 -2.6757648831018943e-017 0.097500000000000031 #
straight-curve $-1 -1 $-1 -0.21850000000000003 0.21850000000000003 0 0 0 -1 I I #
point $-1 -1 $-1 -0.21850000000000003 -0.21850000000000003 -0.28449999999999998 #
straight-curve $-1 -1 $-1 -0.21850000000000003 0 -0.28449999999999998 0 1 0 I I #
point $-1 -1 $-1 -0.21850000000000003 0.21850000000000003 -0.28449999999999998 #
coedge $-1 -1 $-1 $703 $497 $516 $631 reversed $353 $-1 #
coedge $-1 -1 $-1 $497 $703 $498 $619 forward $353 $-1 #
coedge $-1 -1 $-1 $499 $498 $704 $705 reversed $220 $-1 #
edge $-1 -1 $-1 $706 0 $620 0.12499999999999994 $617 $707 forward @7 unknown #
vertex $-1 -1 $-1 $619 $708 #
straight-curve $-1 -1 $-1 -0.09270401560335309 0.089366866441523696 0.28450000000000003 0.49999999999999989 0.86602540378443882 0 I I #
coedge $-1 -1 $-1 $704 $506 $502 $623 forward $512 $-1 #
edge $709 -1 $-1 $508 -0.11187100647984143 $624 0.038240063509461089 $502 $710 forward @7 unknown #
vertex $-1 -1 $-1 $623 $711 #
straight-curve $-1 -1 $-1 -0.14429999999999998 0 0.15950000000000003 0 0 1 I I #
point $-1 -1 $-1 -0.14429999999999998 0 0.28449999999999998 #
convexity-sys-attrib $-1 -1 $-1 $-1 $507 #
straight-curve $-1 -1 $-1 -0.034622232502674488 -0.12999999999999998 0.15950000000000009 -1 0 0 I I #
point $-1 -1 $-1 -0.069244465005348976 -0.12999999999999998 0.15950000000000003 #
coedge $-1 -1 $-1 $511 $704 $703 $712 forward $512 $-1 #
edge $-1 -1 $-1 $633 0 $520 0.12499999999999994 $516 $713 forward @7 unknown #
convexity-sys-attrib $-1 -1 $-1 $-1 $517 #
vertex $-1 -1 $-1 $517 $714 #
straight-curve $-1 -1 $-1 0.12734503175473055 0.029366866441523636 0.15950000000000009 0.49999999999999989 -0.86602540378443882 0 I I #
straight-curve $-1 -1 $-1 0.037508983848622501 0.12000000000000005 0.28450000000000003 1 0 0 I I #
point $-1 -1 $-1 0.075017967697245003 0.12000000000000005 0.28449999999999998 #
plane-surface $-1 -1 $-1 3.8163916471489756e-017 -0.0033330440899547332 0.15950000000000006 0 0 1 1 0 0 forward_v I I I I #
face_name-twe-attrib $-1 -1 $-1 $525 $381 8 #
model_id-kcp-attrib $-1 -1 $715 $-1 $526 1 1021392650 1021392650 -1359740927 10 #
face $716 -1 $-1 $540 $534 $9 $-1 $717 reversed single #
plane-surface $718 -1 $-1 -0.700017967697245 0.46400000000000002 0.56899999999999995 -0.86602540378443882 0.49999999999999989 0 0 0 1 forward_v I I I I #
surf-twe-attrib $-1 -1 $-1 $-1 $527 117 #
coedge $-1 -1 $-1 $719 $529 $551 $662 reversed $239 $-1 #
coedge $-1 -1 $-1 $530 $719 $537 $649 reversed $239 $-1 #
coedge $-1 -1 $-1 $533 $532 $719 $720 forward $534 $-1 #
loop_type-twe-attrib $-1 -1 $-1 $-1 $534 0 #
convexity-sys-attrib $-1 -1 $721 $535 $394 #
cur-twe-attrib $-1 -1 $-1 $-1 $536 128 #
edge $722 -1 $-1 $546 -0.13848893001069795 $651 0 $537 $723 forward @7 unknown #
edge_name-twe-attrib $-1 -1 $-1 $-1 $538 18 4352 #
vertex $-1 -1 $-1 $538 $724 #
straight-curve $725 -1 $-1 -0.69424446500534898 0.214 0.56899999999999995 0 0 1 I I #
model_id-kcp-attrib $-1 -1 $726 $-1 $540 1 1021392650 1021392650 -1359740927 12 #
plane-surface $727 -1 $-1 -0.69424446500534898 0.214 0.56899999999999995 0 -1 0 0 0 -1 forward_v I I I I #
edge_name-twe-attrib $-1 -1 $-1 $541 $256 16 8704 #
attrib_edge_convexity-kcp-attrib $-1 -1 $728 $-1 $544 2 #
straight-curve $729 -1 $-1 -0.55575553499465102 0.214 0.44400000000000001 -0.499999999999998 -0.86602540378444004 0 I I #
point $-1 -1 $-1 -0.55575553499465102 0.214 0.44400000000000001 #
cur-twe-attrib $-1 -1 $-1 $-1 $547 136 #
face_name-twe-attrib $-1 -1 $-1 $548 $404 12 #
surf-twe-attrib $-1 -1 $-1 $-1 $549 138 #
edge $730 -1 $-1 $664 -0.13856406460551021 $559 0 $551 $731 forward @7 unknown #
edge_name-twe-attrib $-1 -1 $-1 $-1 $552 15 4352 #
vertex $-1 -1 $-1 $552 $732 #
straight-curve $733 -1 $-1 -0.76929999999999998 0.34399999999999997 0.56899999999999995 0 0 1 I I #
edge_name-twe-attrib $-1 -1 $-1 $554 $264 10 8704 #
attrib_edge_convexity-kcp-attrib $-1 -1 $734 $-1 $557 2 #
straight-curve $735 -1 $-1 -0.549982032302755 0.46400000000000002 0.44400000000000001 1 0 0 I I #
point $-1 -1 $-1 -0.700017967697245 0.46400000000000002 0.44400000000000001 #
cur-twe-attrib $-1 -1 $-1 $-1 $560 148 #
convexity-sys-attrib $-1 -1 $736 $562 $420 #
cur-twe-attrib $-1 -1 $-1 $-1 $563 152 #
loop $-1 -1 $-1 $-1 $674 $568 #
coedge $-1 -1 $-1 $695 $737 $571 $675 forward $673 $-1 #
edge $-1 -1 $-1 $578 1.5707963267948966 $294 3.1415926535897931 $674 $295 forward @7 unknown #
coedge $-1 -1 $-1 $738 $572 $737 $739 reversed $679 $-1 #
coedge $-1 -1 $-1 $572 $738 $573 $586 reversed $679 $-1 #
coedge $-1 -1 $-1 $583 $740 $284 $436 reversed $690 $-1 #
loop $-1 -1 $-1 $-1 $572 $697 #
edge $-1 -1 $-1 $692 -0.21850000000000003 $448 0 $592 $693 forward @7 unknown #
face $-1 -1 $-1 $585 $575 $24 $-1 $601 reversed single #
coedge $-1 -1 $-1 $683 $576 $740 $685 forward $684 $-1 #
coedge $-1 -1 $-1 $576 $682 $580 $688 forward $684 $-1 #
loop $-1 -1 $-1 $-1 $576 $604 #
edge $-1 -1 $-1 $578 0 $741 0.21850000000000003 $740 $742 forward @7 unknown #
point $-1 -1 $-1 0 -0.21850000000000003 0.28449999999999998 #
coedge $-1 -1 $-1 $581 $580 $689 $698 forward $582 $-1 #
edge $-1 -1 $-1 $741 -0.21850000000000003 $305 0 $580 $603 forward @7 unknown #
coedge $-1 -1 $-1 $740 $583 $687 $698 reversed $690 $-1 #
loop $-1 -1 $-1 $-1 $678 $700 #
straight-curve $-1 -1 $-1 0 -0.21850000000000003 -0.28449999999999998 -1 0 0 I I #
vertex $-1 -1 $-1 $680 $743 #
straight-curve $-1 -1 $-1 -0.21850000000000003 0 -0.28449999999999998 0 1 0 I I #
coedge $-1 -1 $-1 $593 $592 $738 $744 reversed $569 $-1 #
coedge $-1 -1 $-1 $737 $674 $593 $452 forward $673 $-1 #
point $-1 -1 $-1 -0.21850000000000003 -0.21850000000000003 0.28449999999999998 #
face $-1 -1 $-1 $594 $679 $24 $-1 $745 reversed single #
edge $-1 -1 $-1 $741 -0.28449999999999998 $602 0.28449999999999998 $687 $746 forward @7 unknown #
point $-1 -1 $-1 0.21850000000000003 -0.21850000000000003 -0.28449999999999998 #
face $-1 -1 $-1 $681 $690 $24 $-1 $745 reversed single #
straight-curve $-1 -1 $-1 -0.21850000000000003 0.21850000000000003 0 0 0 -1 I I #
point $-1 -1 $-1 -0.21850000000000003 0.21850000000000003 -0.28449999999999998 #
coedge $-1 -1 $-1 $617 $616 $630 $712 reversed $353 $-1 #
coedge $-1 -1 $-1 $630 $622 $618 $705 forward $512 $-1 #
edge $747 -1 $-1 $624 -0.10319196879329401 $706 0.035372095812216169 $618 $748 forward @7 unknown #
vertex $-1 -1 $-1 $705 $749 #
straight-curve $-1 -1 $-1 -0.075017967697245003 0.12000000000000005 0.15950000000000003 0 0 1 I I #
point $-1 -1 $-1 -0.075017967697245003 0.12000000000000005 0.28449999999999998 #
convexity-sys-attrib $-1 -1 $-1 $-1 $623 #
straight-curve $-1 -1 $-1 -0.12517996824526945 -0.033116866441523618 0.15950000000000009 -0.50000000000000033 0.86602540378443849 0 I I #
point $-1 -1 $-1 -0.14429999999999998 0 0.15950000000000003 #
edge $750 -1 $-1 $706 -0.1125269515458675 $633 0.037508983848622501 $703 $751 forward @7 unknown #
straight-curve $-1 -1 $-1 0.075017967697245003 0.12000000000000005 0.15950000000000003 0 0 1 I I #
point $-1 -1 $-1 0.075017967697245003 0.12000000000000005 0.15950000000000003 #
face_name-twe-attrib $-1 -1 $-1 $639 $526 9 #
model_id-kcp-attrib $-1 -1 $752 $-1 $640 1 1021392650 1021392650 -1359740927 11 #
plane-surface $753 -1 $-1 -0.76929999999999998 0.34399999999999997 0.56899999999999995 -0.86602540378443849 -0.50000000000000033 0 0 0 1 forward_v I I I I #
surf-twe-attrib $-1 -1 $-1 $-1 $641 160 #
coedge $-1 -1 $-1 $644 $643 $645 $720 reversed $239 $-1 #
edge $754 -1 $-1 $651 -0.15011106998930246 $664 0 $645 $755 forward @7 unknown #
edge_name-twe-attrib $-1 -1 $-1 $647 $394 13 8704 #
attrib_edge_convexity-kcp-attrib $-1 -1 $756 $-1 $649 2 #
straight-curve $757 -1 $-1 -0.69424446500534898 0.214 0.44400000000000001 -1 0 0 I I #
point $-1 -1 $-1 -0.69424446500534898 0.214 0.44400000000000001 #
cur-twe-attrib $-1 -1 $-1 $-1 $652 171 #
face_name-twe-attrib $-1 -1 $-1 $653 $540 11 #
surf-twe-attrib $-1 -1 $-1 $-1 $654 173 #
convexity-sys-attrib $-1 -1 $758 $656 $544 #
cur-twe-attrib $-1 -1 $-1 $-1 $657 176 #
attrib_edge_convexity-kcp-attrib $-1 -1 $759 $-1 $662 2 #
straight-curve $760 -1 $-1 -0.700017967697245 0.46400000000000002 0.44400000000000001 0.499999999999999 0.86602540378443904 0 I I #
point $-1 -1 $-1 -0.76929999999999998 0.34399999999999997 0.44400000000000001 #
cur-twe-attrib $-1 -1 $-1 $-1 $665 183 #
convexity-sys-attrib $-1 -1 $761 $667 $557 #
cur-twe-attrib $-1 -1 $-1 $-1 $668 187 #
edge_name-twe-attrib $-1 -1 $-1 $671 $420 6 4608 #
coedge $-1 -1 $-1 $674 $695 $676 $739 forward $673 $-1 #
coedge $-1 -1 $-1 $677 $676 $694 $744 forward $679 $-1 #
edge $-1 -1 $-1 $598 -0.21850000000000003 $578 0 $676 $742 forward @7 unknown #
coedge $-1 -1 $-1 $678 $689 $682 $685 reversed $690 $-1 #
vertex $-1 -1 $-1 $688 $762 #
straight-curve $-1 -1 $-1 0 -0.21850000000000003 0.28449999999999998 1 0 0 I I #
point $-1 -1 $-1 -0.21850000000000003 -0.21850000000000003 -0.28449999999999998 #
edge $-1 -1 $-1 $598 -0.28449999999999998 $692 0.28449999999999998 $694 $763 forward @7 unknown #
plane-surface $-1 -1 $-1 0 -0.21850000000000003 0 0 1 0 0 0 1 forward_v I I I I #
straight-curve $-1 -1 $-1 0.21850000000000003 -0.21850000000000003 0 0 0 -1 I I #
convexity-sys-attrib $-1 -1 $-1 $-1 $705 #
straight-curve $-1 -1 $-1 -0.09270401560335309 0.089366866441523696 0.15950000000000009 0.49999999999999989 0.86602540378443882 0 I I #
point $-1 -1 $-1 -0.075017967697245003 0.12000000000000005 0.15950000000000003 #
convexity-sys-attrib $-1 -1 $-1 $-1 $712 #
straight-curve $-1 -1 $-1 0.037508983848622501 0.12000000000000005 0.15950000000000009 1 0 0 I I #
face_name-twe-attrib $-1 -1 $-1 $716 $640 10 #
surf-twe-attrib $-1 -1 $-1 $-1 $717 198 #
attrib_edge_convexity-kcp-attrib $-1 -1 $764 $-1 $720 2 #
straight-curve $765 -1 $-1 -0.76929999999999998 0.34399999999999997 0.44400000000000001 -0.499999999999998 0.86602540378444004 0 I I #
convexity-sys-attrib $-1 -1 $766 $722 $649 #
cur-twe-attrib $-1 -1 $-1 $-1 $723 206 #
edge_name-twe-attrib $-1 -1 $-1 $728 $544 21 4608 #
convexity-sys-attrib $-1 -1 $767 $730 $662 #
cur-twe-attrib $-1 -1 $-1 $-1 $731 217 #
edge_name-twe-attrib $-1 -1 $-1 $734 $557 8 4608 #
point $-1 -1 $-1 0.21850000000000003 -0.21850000000000003 0.28449999999999998 #
straight-curve $-1 -1 $-1 -0.21850000000000003 -0.21850000000000003 0 0 0 -1 I I #
convexity-sys-attrib $-1 -1 $768 $754 $720 #
cur-twe-attrib $-1 -1 $-1 $-1 $755 230 #
edge_name-twe-attrib $-1 -1 $-1 $756 $649 17 4608 #
edge_name-twe-attrib $-1 -1 $-1 $759 $662 11 4608 #
edge_name-twe-attrib $-1 -1 $-1 $764 $720 14 4608 #
End-of-ACIS-data 