600 0 1 0           
122 GICL Pro/E ACIS Translator - Source: f:/data5/repository/PTC/V20/prod_appl/assoc_demo/electrode/battery_trode.prt.20 - 6 0 13 ACIS 6.0.3 NT 24 Thu Apr 04 13:16:00 2002 
1 9.9999999999999995e-007 1e-010 
body $-1 $1 $-1 $-1 #
lump $-1 $-1 $2 $0 #
shell $-1 $-1 $-1 $3 $-1 $1 #
face $-1 $4 $5 $2 $-1 $6 reversed single #
face $-1 $7 $8 $2 $-1 $9 forward single #
loop $-1 $10 $11 $3 #
plane-surface $-1 -14.059999999999736 -128.65938618940262 163.43999999999997 0 1 0 0 0 -1 forward_v I I I I #
face $-1 $12 $13 $2 $-1 $14 forward single #
loop $-1 $-1 $15 $4 #
plane-surface $-1 56.508833008223114 -69.493957297813736 100 -0.99939082701909576 0.034899496702500594 0 -0.034899496702500588 -0.99939082701909565 0 forward_v I I I I #
loop $-1 $-1 $16 $3 #
coedge $-1 $17 $18 $19 $20 reversed $5 $-1 #
face $-1 $21 $22 $2 $-1 $23 forward single #
loop $-1 $-1 $24 $7 #
cone-surface $-1 71 -70 100 0 0 1 0 -14.5 0 1 I I 0 1 14.5 forward I I I I #
coedge $-1 $25 $26 $27 $28 forward $8 $-1 #
coedge $-1 $29 $29 $30 $31 reversed $10 $-1 #
coedge $-1 $32 $11 $33 $34 forward $5 $-1 #
coedge $-1 $11 $32 $35 $36 reversed $5 $-1 #
coedge $-1 $26 $25 $11 $20 forward $8 $-1 #
edge $-1 $37 0 $38 211.30979321219462 $11 $39 forward 7 unknown #
face $-1 $40 $41 $2 $-1 $42 forward single #
loop $-1 $-1 $43 $12 #
plane-surface $-1 89 -60.5 100 0 1 0 -1 0 0 forward_v I I I I #
coedge $-1 $44 $45 $46 $47 forward $13 $-1 #
coedge $-1 $19 $15 $48 $49 forward $8 $-1 #
coedge $-1 $15 $19 $50 $51 reversed $8 $-1 #
coedge $-1 $45 $44 $15 $28 reversed $13 $-1 #
edge $-1 $52 0 $53 207.17758860378748 $27 $54 forward 7 unknown #
coedge $-1 $16 $16 $55 $56 reversed $10 $-1 #
coedge $-1 $57 $58 $16 $31 forward $59 $-1 #
edge $-1 $60 0 $61 3.1415926535897918 $16 $62 forward 7 unknown #
coedge $-1 $18 $17 $63 $64 forward $5 $-1 #
coedge $-1 $48 $65 $17 $34 reversed $66 $-1 #
edge $-1 $37 0 $67 61.114538591960837 $17 $68 forward 7 unknown #
coedge $-1 $69 $50 $18 $36 forward $70 $-1 #
edge $-1 $38 0 $71 61.114538591960837 $18 $72 forward 7 unknown #
vertex $-1 $34 $73 #
vertex $-1 $36 $74 #
straight-curve $-1 54.442730704019567 -128.65938618940262 -105.65489660609731 0 0 1 I I #
face $-1 $75 $76 $2 $-1 $77 forward single #
loop $-1 $-1 $78 $21 #
cone-surface $-1 99 -70 100 0 0 1 0 -14.5 0 1 I I 0 1 14.5 forward I I I I #
coedge $-1 $79 $80 $81 $82 forward $22 $-1 #
coedge $-1 $27 $24 $83 $84 forward $13 $-1 #
coedge $-1 $24 $27 $85 $86 reversed $13 $-1 #
coedge $-1 $80 $79 $24 $47 reversed $22 $-1 #
edge $-1 $87 0 $88 206.54943678455638 $46 $89 forward 7 unknown #
coedge $-1 $83 $33 $25 $49 reversed $66 $-1 #
edge $-1 $53 -7.4347488682578774e-016 $37 59.237534835512292 $48 $90 forward 7 unknown #
coedge $-1 $35 $85 $26 $51 forward $70 $-1 #
edge $-1 $52 -2.47824962275262e-016 $38 59.237534835512292 $50 $91 forward 7 unknown #
vertex $-1 $51 $92 #
vertex $-1 $49 $93 #
straight-curve $-1 56.508833008223114 -69.493957297813751 103.58879430189374 0 0 -1 I I #
coedge $-1 $94 $95 $29 $56 forward $96 $-1 #
edge $-1 $61 0 $60 3.1415926535897944 $29 $97 forward 7 unknown #
coedge $-1 $98 $30 $95 $99 forward $59 $-1 #
coedge $-1 $30 $98 $94 $100 reversed $59 $-1 #
loop $-1 $101 $57 $102 #
vertex $-1 $56 $103 #
vertex $-1 $56 $104 #
ellipse-curve $-1 85 -128.65938618940262 0 0 -1 0 -1.4210854715202004e-014 0 17.5 1 I I #
coedge $-1 $105 $106 $32 $64 reversed $76 $-1 #
edge $-1 $67 0 $71 211.30979321219462 $32 $107 forward 7 unknown #
coedge $-1 $33 $108 $105 $109 reversed $66 $-1 #
loop $-1 $-1 $83 $75 #
vertex $-1 $64 $110 #
straight-curve $-1 54.442730704019567 -128.65938618940262 -105.65489660609731 1 0 0 I I #
coedge $-1 $111 $35 $106 $112 forward $70 $-1 #
loop $-1 $-1 $35 $113 #
vertex $-1 $36 $114 #
straight-curve $-1 54.442730704019567 -128.65938618940262 105.65489660609731 1 0 0 I I #
point $-1 54.442730704019567 -128.65938618940262 -105.65489660609731 #
point $-1 54.442730704019567 -128.65938618940262 105.65489660609731 #
face $-1 $113 $66 $2 $-1 $115 reversed single #
loop $-1 $-1 $63 $40 #
plane-surface $-1 114.97167644564718 -111.89020100659496 100 0.99939082701909576 0.03489949670250031 0 -0.034899496702500303 0.99939082701909565 0 forward_v I I I I #
coedge $-1 $116 $117 $118 $119 forward $41 $-1 #
coedge $-1 $46 $43 $120 $121 forward $22 $-1 #
coedge $-1 $43 $46 $122 $123 reversed $22 $-1 #
coedge $-1 $117 $116 $43 $82 reversed $41 $-1 #
edge $-1 $124 0 $125 206.54943678455635 $43 $126 forward 7 unknown #
coedge $-1 $120 $48 $44 $84 reversed $66 $-1 #
edge $-1 $88 0 $53 1.0000000000000002 $83 $127 forward 7 unknown #
coedge $-1 $50 $122 $45 $86 forward $70 $-1 #
edge $-1 $87 0 $52 1 $85 $128 forward 7 unknown #
vertex $-1 $86 $129 #
vertex $-1 $121 $130 #
straight-curve $-1 81.954451150103324 -60.5 103.27471839227817 0 0 -1 I I #
straight-curve $-1 56.508833008223114 -69.493957297813736 -103.58879430189376 -0.034878262742374273 -0.99878276595871818 -0.034878262742374398 I I #
straight-curve $-1 56.508833008223114 -69.493957297813736 103.58879430189374 -0.034878262742374273 -0.99878276595871818 0.034878262742374634 I I #
point $-1 56.508833008223121 -69.493957297813736 103.58879430189374 #
point $-1 56.508833008223121 -69.493957297813736 -103.58879430189374 #
coedge $-1 $131 $55 $58 $100 forward $96 $-1 #
coedge $-1 $55 $131 $57 $99 reversed $96 $-1 #
loop $-1 $-1 $94 $132 #
ellipse-curve $-1 85 -128.65938618940262 0 0 -1 0 -1.4210854715202004e-014 0 -17.5 1 I I #
coedge $-1 $58 $57 $133 $134 reversed $59 $-1 #
edge $-1 $61 0 $135 100 $95 $136 forward 7 unknown #
edge $-1 $60 0 $137 100 $94 $138 forward 7 unknown #
loop $-1 $-1 $139 $102 #
face $-1 $132 $59 $2 $-1 $140 forward single #
point $-1 84.999999999999986 -128.65938618940262 17.5 #
point $-1 84.999999999999986 -128.65938618940262 -17.5 #
coedge $-1 $118 $63 $65 $109 forward $76 $-1 #
coedge $-1 $63 $118 $69 $112 reversed $76 $-1 #
straight-curve $-1 115.55726929598042 -128.65938618940262 -105.65489660609731 0 0 1 I I #
coedge $-1 $65 $120 $116 $141 reversed $66 $-1 #
edge $-1 $67 4.9564992455051888e-016 $142 59.237534835512271 $65 $143 forward 7 unknown #
point $-1 115.5572692959804 -128.65938618940262 -105.65489660609731 #
coedge $-1 $122 $69 $117 $144 forward $70 $-1 #
edge $-1 $71 4.9564992455051888e-016 $145 59.237534835512271 $69 $146 forward 7 unknown #
face $-1 $102 $70 $2 $-1 $147 forward single #
point $-1 115.5572692959804 -128.65938618940262 105.65489660609731 #
plane-surface $-1 -31.245745021535583 -24.014285686105111 -102.00060917298089 0 -0.034899496702500969 0.99939082701909576 1 0 0 forward_v I I I I #
coedge $-1 $81 $78 $108 $141 forward $41 $-1 #
coedge $-1 $78 $81 $111 $144 reversed $41 $-1 #
coedge $-1 $106 $105 $78 $119 reversed $76 $-1 #
edge $-1 $145 0 $142 207.17758860378748 $118 $148 forward 7 unknown #
coedge $-1 $108 $83 $79 $121 reversed $66 $-1 #
edge $-1 $125 0 $88 6.0910976997933517 $120 $149 forward 7 unknown #
coedge $-1 $85 $111 $80 $123 forward $70 $-1 #
edge $-1 $124 0 $87 6.0910976997933375 $122 $150 forward 7 unknown #
vertex $-1 $123 $151 #
vertex $-1 $141 $152 #
straight-curve $-1 88.045548849896676 -60.5 103.27471839227817 0 0 -1 I I #
intcurve-curve $-1 forward { surfintcur full nurbs 3 open 13 
	0 3 0.083328603032898074 1 0.16668217231661908 1 0.24998554834779141 1 0.33334116410813674 1 
	0.41665232768598737 1 0.49999095563965484 1 0.58333326712264277 1 0.66664477222346807 1 0.7500041498407406 1 
	0.83331269405450059 1 0.91666823354891269 1 1.0000000000000002 3 
	81.954451150103338 -60.500000000000007 -103.27471839227817 1 
	81.315607982334129 -59.765171824495269 -103.24905762694533 0.99999999999999989 
	79.925352870138781 -58.449613447693253 -103.20311731611608 1.0000000000000002 
	77.434473847298705 -56.898669803681216 -103.14895717062886 1 
	74.743540230518633 -55.892191953890652 -103.11381018963779 0.99999999999999978 
	71.847730126444915 -55.427554195623358 -103.09758468158415 1.0000000000000002 
	68.966633506082957 -55.547240647666001 -103.10176422458716 1.0000000000000002 
	66.137265254578196 -56.235906682561343 -103.12581297244863 1 
	63.500404433569123 -57.478983415040609 -103.16922216848404 1 
	61.185250278854873 -59.195243164127383 -103.22915527956987 1.0000000000000002 
	59.223370207512687 -61.376769848603544 -103.30533587005854 1.0000000000000002 
	57.76172082106261 -63.852198091869184 -103.39177972913501 0.99999999999999978 
	56.798951092850331 -66.623134465299827 -103.48854295950788 1 
	56.544063122420184 -68.52060577939298 -103.55480411788457 0.99999999999999978 
	56.508833008223121 -69.493957297813736 -103.58879430189374 1 
	0.001 
	plane -31.245745021535583 -24.014285686105111 -102.00060917298089 0 -0.034899496702500969 0.99939082701909576 1 0 0 forward_v I I I I 
	cone 71 -70 100 0 0 1 0 -14.5 0 1 I I 0 1 14.5 forward I I I I 
	nullbs 
	nullbs 
	I I 
	0 
	0 
	0 
	} I I #
intcurve-curve $-1 forward { surfintcur full nurbs 3 open 13 
	0 3 0.083328603032898074 1 0.16668217231661905 1 0.24998554834779141 1 0.33334116410813674 1 
	0.41665232768598737 1 0.49999095563965484 1 0.58333326712264277 1 0.66664477222346807 1 0.7500041498407406 1 
	0.83331269405450059 1 0.91666823354891247 1 1 3 
	81.954451150103338 -60.500000000000007 103.27471839227817 1 
	81.3156079823341 -59.765171824495269 103.24905762694533 1 
	79.925352870138767 -58.449613447693274 103.20311731611608 1 
	77.434473847298733 -56.898669803681209 103.14895717062885 1.0000000000000002 
	74.743540230518619 -55.892191953890652 103.11381018963777 0.99999999999999978 
	71.847730126444915 -55.427554195623358 103.09758468158415 1.0000000000000002 
	68.966633506082957 -55.547240647666008 103.10176422458716 1.0000000000000002 
	66.137265254578196 -56.235906682561343 103.12581297244863 1 
	63.500404433569123 -57.478983415040624 103.16922216848404 1 
	61.185250278854852 -59.195243164127383 103.22915527956989 1 
	59.223370207512701 -61.376769848603566 103.30533587005856 0.99999999999999989 
	57.761720821062596 -63.852198091869177 103.39177972913501 1.0000000000000002 
	56.798951092850331 -66.623134465299813 103.48854295950788 1 
	56.544063122420184 -68.52060577939298 103.55480411788457 0.99999999999999978 
	56.508833008223121 -69.493957297813736 103.58879430189374 1 
	0.001 
	plane -31.245745021535583 -24.014285686105111 102.00060917298089 0 0.034899496702500969 0.99939082701909576 1 0 0 forward_v I I I I 
	cone 71 -70 100 0 0 1 0 -14.5 0 1 I I 0 1 14.5 forward I I I I 
	nullbs 
	nullbs 
	I I 
	0 
	0 
	0 
	} I I #
point $-1 81.954451150103338 -60.500000000000007 103.27471839227817 #
point $-1 81.954451150103324 -60.5 -103.2747183922782 #
coedge $-1 $95 $94 $153 $154 reversed $96 $-1 #
face $-1 $155 $96 $2 $-1 $156 forward single #
coedge $-1 $153 $153 $98 $134 forward $157 $-1 #
edge $-1 $137 0 $135 3.1415926535897931 $133 $158 forward 7 unknown #
vertex $-1 $154 $159 #
straight-curve $-1 85 -128.65938618940262 -17.5 0 -1 0 I I #
vertex $-1 $154 $160 #
straight-curve $-1 85 -128.65938618940262 17.5 0 -1 0 I I #
coedge $-1 $161 $161 $162 $163 reversed $101 $-1 #
cone-surface $-1 85 -128.65938618940262 0 0 -1 0 0 0 -17.5 1 I I 0 1 17.5 forward I I I I #
edge $-1 $142 0 $125 1 $108 $164 forward 7 unknown #
vertex $-1 $109 $165 #
straight-curve $-1 115.55726929598042 -128.65938618940262 -105.65489660609731 -0.034878262742373926 0.99878276595871829 0.034878262742374405 I I #
edge $-1 $145 0 $124 1.0000000000000002 $111 $166 forward 7 unknown #
vertex $-1 $144 $167 #
straight-curve $-1 115.55726929598042 -128.65938618940262 105.65489660609731 -0.034878262742373926 0.99878276595871829 -0.034878262742374648 I I #
plane-surface $-1 -31.245745021535583 -24.014285686105111 102.00060917298089 0 0.034899496702500969 0.99939082701909576 1 0 0 forward_v I I I I #
straight-curve $-1 113.49116699177689 -69.493957297813736 103.58879430189374 0 0 -1 I I #
straight-curve $-1 88.045548849896676 -60.5 -103.27471839227817 -1 0 0 I I #
straight-curve $-1 88.045548849896676 -60.5 103.27471839227817 -1 0 0 I I #
point $-1 88.045548849896676 -60.500000000000007 103.27471839227817 #
point $-1 88.045548849896676 -60.500000000000007 -103.27471839227817 #
coedge $-1 $133 $133 $131 $154 forward $157 $-1 #
edge $-1 $135 0 $137 3.1415926535897931 $153 $168 forward 7 unknown #
face $-1 $169 $157 $2 $-1 $170 forward single #
cone-surface $-1 85 -128.65938618940262 0 0 -1 0 0 0 -17.5 1 I I 0 1 17.5 forward I I I I #
loop $-1 $-1 $133 $155 #
ellipse-curve $-1 84.999999999999986 -228.65938618940262 0 0 -1 0 0 0 17.5 1 I I #
point $-1 84.999999999999986 -228.65938618940262 -17.5 #
point $-1 84.999999999999986 -228.65938618940262 17.5 #
coedge $-1 $139 $139 $171 $172 reversed $101 $-1 #
coedge $-1 $173 $174 $139 $163 forward $175 $-1 #
edge $-1 $176 0 $177 0.99999472408033852 $139 $178 forward 7 unknown #
intcurve-curve $-1 forward { surfintcur full nurbs 3 open 13 
	0 3 0.083331766451087377 1 0.16668730594549924 1 0.24999585015925924 1 0.33335522777653182 1 
	0.416666732877357 1 0.5000090443603451 1 0.58334767231401252 1 0.66665883589186314 1 0.75001445165220859 1 
	0.83331782768338092 1 0.91667139696710198 1 1 3 
	113.49116699177691 -69.493957297813751 -103.58879430189374 1 
	113.45593687757987 -68.520605779393009 -103.55480411788457 0.99999999999999978 
	113.20104890714967 -66.623134465299813 -103.48854295950788 1 
	112.23827917893743 -63.852198091869226 -103.39177972913501 1.0000000000000002 
	110.77662979248731 -61.376769848603537 -103.30533587005854 1 
	108.81474972114515 -59.195243164127376 -103.22915527956988 1.0000000000000002 
	106.49959556643091 -57.478983415040645 -103.16922216848404 1 
	103.8627347454218 -56.235906682561321 -103.12581297244863 0.99999999999999978 
	101.03336649391706 -55.547240647666015 -103.1017642245872 1.0000000000000002 
	98.152269873555113 -55.427554195623351 -103.09758468158412 0.99999999999999978 
	95.256459769481381 -55.892191953890652 -103.11381018963777 1 
	92.56552615270131 -56.898669803681209 -103.14895717062886 0.99999999999999989 
	90.074647129861248 -58.449613447693274 -103.20311731611608 1 
	88.684392017665914 -59.765171824495283 -103.24905762694534 1 
	88.045548849896676 -60.500000000000007 -103.27471839227817 1 
	0.001 
	plane -31.245745021535583 -24.014285686105111 -102.00060917298089 0 -0.034899496702500969 0.99939082701909576 1 0 0 forward_v I I I I 
	cone 99 -70 100 0 0 1 0 -14.5 0 1 I I 0 1 14.5 forward I I I I 
	nullbs 
	nullbs 
	I I 
	0 
	0 
	0 
	} I I #
point $-1 113.49116699177691 -69.493957297813751 -103.58879430189374 #
intcurve-curve $-1 forward { surfintcur full nurbs 3 open 13 
	0 3 0.083331766451087419 1 0.1666873059454993 1 0.24999585015925929 1 0.33335522777653187 1 
	0.41666673287735712 1 0.5000090443603451 1 0.58334767231401252 1 0.66665883589186326 1 0.7500144516522087 1 
	0.83331782768338103 1 0.91667139696710209 1 1.0000000000000002 3 
	113.49116699177691 -69.493957297813751 103.58879430189374 1 
	113.45593687757984 -68.52060577939298 103.55480411788454 1 
	113.20104890714966 -66.623134465299799 103.48854295950788 1 
	112.2382791789374 -63.852198091869219 103.391779729135 1.0000000000000002 
	110.77662979248733 -61.376769848603558 103.30533587005857 1 
	108.81474972114515 -59.195243164127376 103.22915527956988 1.0000000000000002 
	106.49959556643091 -57.478983415040645 103.16922216848404 1 
	103.8627347454218 -56.235906682561321 103.12581297244863 0.99999999999999978 
	101.03336649391706 -55.547240647666015 103.1017642245872 1.0000000000000002 
	98.152269873555113 -55.427554195623351 103.09758468158412 0.99999999999999978 
	95.256459769481367 -55.892191953890638 103.11381018963776 1.0000000000000002 
	92.565526152701352 -56.898669803681216 103.14895717062889 0.99999999999999944 
	90.074647129861177 -58.449613447693245 103.20311731611605 1.0000000000000004 
	88.6843920176659 -59.765171824495283 103.24905762694533 1 
	88.045548849896676 -60.500000000000007 103.27471839227817 1 
	0.001 
	plane -31.245745021535583 -24.014285686105111 102.00060917298089 0 0.034899496702500969 0.99939082701909576 1 0 0 forward_v I I I I 
	cone 99 -70 100 0 0 1 0 -14.5 0 1 I I 0 1 14.5 forward I I I I 
	nullbs 
	nullbs 
	I I 
	0 
	0 
	0 
	} I I #
point $-1 113.49116699177691 -69.493957297813751 103.58879430189374 #
ellipse-curve $-1 84.999999999999986 -228.65938618940262 0 0 -1 0 0 0 -17.5 1 I I #
face $-1 $179 $175 $2 $-1 $180 forward single #
plane-surface $-1 -14.059999999999736 -228.65938618940262 163.43999999999997 0 -1 0 0 0 -1 forward_v I I I I #
coedge $-1 $181 $182 $161 $172 forward $183 $-1 #
edge $-1 $177 0 $176 0.99999483384454957 $161 $184 forward 7 unknown #
coedge $-1 $185 $162 $182 $186 reversed $175 $-1 #
coedge $-1 $162 $185 $181 $187 forward $175 $-1 #
loop $-1 $-1 $173 $169 #
tvertex-vertex $-1 $172 $188 0.00070052563775007694 #
tvertex-vertex $-1 $172 $189 0.00070113487528927602 #
intcurve-curve $-1 forward { surfintcur full nurbs 3 open 15 
	0 3 0.071229891113549715 1 0.14274306233494966 1 0.21431046468611628 1 0.28581878821587847 1 
	0.3574042050230275 1 0.42886921686001067 1 0.5000384522805742 1 0.5712134892831553 1 0.64270507447305025 1 
	0.71429114652184456 1 0.78578750053978319 1 0.85736155736917619 1 0.92883998837821058 1 1 3 
	69.992132657127854 -168.65896157401048 9.0007731789414525 1 
	69.990185802926447 -168.00584402914475 9.0047501076023817 0.99999999999999989 
	69.909603889946226 -166.71331322947239 8.8623670141648834 1 
	69.520408015035613 -164.722382559382 8.1852264362844114 1 
	68.974282288544316 -162.97724240812911 7.0752194403278068 1 
	68.410467352059399 -161.56031889217525 5.6558686444153476 0.99999999999999989 
	67.897662223436427 -160.44709973048163 3.8796222558071047 1.0000000000000002 
	67.566534475259914 -159.78760485627092 1.9049575036306601 1 
	67.465965034128942 -159.59379123253785 -0.017418309228168387 1.0000000000000002 
	67.569949091151827 -159.79421063085653 -1.9386358539515665 1 
	67.907930044912419 -160.46801834848009 -3.9256357165465738 1.0000000000000002 
	68.423740206822004 -161.59133381139554 -5.6930938506399524 1 
	68.985283842061619 -163.00751157491109 -7.0997686964848787 1.0000000000000002 
	69.532067981450538 -164.7671301490806 -8.2067975081533486 1 
	69.912460882381055 -166.74587874123267 -8.8669960209640237 1.0000000000000002 
	69.991034036239725 -168.01948880953691 -9.0058918548844691 1 
	69.992132739746737 -168.6598195995538 -9.0007733166999646 1 
	0.001 
	cone 85 -128.65938618940262 0 0 -1 0 0 0 -17.5 1 I I 0 1 17.5 forward I I I I 
	cone 54.442730704019567 -168.65938618940262 0 1 0 0 0 0 9 1 I I 0 1 9 forward I I I I 
	nullbs 
	nullbs 
	I I 
	0 
	0 
	0 
	} I I #
face $-1 $190 $183 $2 $-1 $191 forward single #
cone-surface $-1 54.442730704019567 -168.65938618940262 0 1 0 0 0 0 9 1 I I 0 1 9 forward I I I I #
coedge $-1 $192 $171 $174 $187 reversed $183 $-1 #
coedge $-1 $171 $192 $173 $186 forward $183 $-1 #
loop $-1 $-1 $181 $179 #
intcurve-curve $-1 forward { surfintcur full nurbs 3 open 15 
	0 3 0.071231647964514311 1 0.14274615132519589 1 0.21431452645680654 1 0.28582376363635165 1 
	0.3574102860556187 1 0.42887651292180862 1 0.50004675020223199 1 0.5712147727393948 1 0.64270132736992092 1 
	0.71428564017503782 1 0.78578296186311669 1 0.85735873811812313 1 0.92883891341760105 1 1 3 
	69.992132739746737 -168.6598195995538 -9.0007733166999646 1 
	69.99017158096656 -169.31323128187654 -9.0047349566876616 1.0000000000000002 
	69.909533440767845 -170.60624960351635 -8.8622492237747004 0.99999999999999978 
	69.520100677588118 -172.59762481767117 -8.1846703930573081 1.0000000000000004 
	68.973801613669323 -174.34288384569413 -7.0741584078213835 0.99999999999999978 
	68.409895563694533 -175.75978213023515 -5.6542738329101621 1 
	67.897109719048814 -176.87281439395514 -3.8772231944214335 1.0000000000000002 
	67.566151049710797 -177.53191274970703 -1.9020962838167186 0.99999999999999978 
	67.466025189630727 -177.72486614233324 0.021961414279641069 1 
	67.570115450726917 -177.5242307299379 1.9387323388773443 0.99999999999999978 
	67.907580766331023 -176.85144803265339 3.9240031759895264 1.0000000000000002 
	68.423056920983669 -175.72901669687798 5.6911272492019815 0.99999999999999978 
	68.984743763316644 -174.31280563226264 7.0986139276232016 0.99999999999999978 
	69.531805494854524 -172.55277873374118 8.2063270993399158 1.0000000000000002 
	69.912431623951008 -170.57331317444149 8.8669474345656933 1 
	69.991039055439558 -169.29941740292463 9.005908658951288 1 
	69.992132657127854 -168.65896157401048 9.0007731789414525 1 
	0.001 
	cone 85 -128.65938618940262 0 0 -1 0 0 0 -17.5 1 I I 0 1 17.5 forward I I I I 
	cone 54.442730704019567 -168.65938618940262 0 1 0 0 0 0 9 1 I I 0 1 9 forward I I I I 
	nullbs 
	nullbs 
	I I 
	0 
	0 
	0 
	} I I #
coedge $-1 $174 $173 $193 $194 forward $175 $-1 #
edge $-1 $195 0 $177 15.549389886993467 $182 $196 forward 7 unknown #
edge $-1 $197 0 $176 15.549389987453281 $181 $198 forward 7 unknown #
point $-1 69.992120691472849 -168.65910311247453 9.000515452627635 #
point $-1 69.992120591013034 -168.6596751295034 -9.0005155444666425 #
face $-1 $-1 $199 $2 $-1 $200 reversed single #
cone-surface $-1 54.442730704019567 -168.65938618940262 0 1 0 0 0 0 9 1 I I 0 1 9 forward I I I I #
coedge $-1 $182 $181 $201 $202 forward $183 $-1 #
coedge $-1 $201 $201 $185 $194 reversed $199 $-1 #
edge $-1 $195 0 $197 3.1415926535897931 $193 $203 forward 7 unknown #
vertex $-1 $202 $204 #
straight-curve $-1 54.442730704019567 -168.65938618940262 -9 1 0 0 I I #
vertex $-1 $202 $205 #
straight-curve $-1 54.442730704019567 -168.65938618940262 9 1 0 0 I I #
loop $-1 $-1 $193 $190 #
plane-surface $-1 54.442730704019567 -128.65938618940262 -55.447689738879887 1 0 0 0 0 1 forward_v I I I I #
coedge $-1 $193 $193 $192 $202 reversed $199 $-1 #
edge $-1 $197 0 $195 3.1415926535897931 $201 $206 forward 7 unknown #
ellipse-curve $-1 54.442730704019567 -168.65938618940262 0 1 0 0 0 0 -9 1 I I #
point $-1 54.442730704019567 -168.65938618940262 -9 #
point $-1 54.442730704019567 -168.65938618940262 9 #
ellipse-curve $-1 54.442730704019567 -168.65938618940262 0 1 0 0 0 0 9 1 I I #
End-of-ACIS-data 