600 0 1 0           
121 GICL Pro/E ACIS Translator - Source: f:/data5/repository/PTC/V20/prod_appl/assoc_demo/electrode/plugin_trode.prt.13 - 6 0 13 ACIS 6.0.3 NT 24 Thu Apr 04 13:16:00 2002 
1 9.9999999999999995e-007 1e-010 
body $-1 $1 $-1 $-1 #
lump $-1 $-1 $2 $0 #
shell $-1 $-1 $-1 $3 $-1 $1 #
face $-1 $4 $5 $2 $-1 $6 reversed single #
face $-1 $7 $8 $2 $-1 $9 forward single #
loop $-1 $-1 $10 $3 #
plane-surface $-1 0 -62 0 0 -1 0 0 0 -1 forward_v I I I I #
face $-1 $11 $12 $2 $-1 $13 reversed single #
loop $-1 $-1 $14 $4 #
plane-surface $-1 88.00030460968722 -24.014291002277179 -148.84574502153558 0.99984769515639127 0.017452406437283512 0 0 0 -1 forward_v I I I I #
coedge $-1 $15 $16 $17 $18 reversed $5 $-1 #
face $-1 $19 $20 $2 $-1 $21 forward single #
loop $-1 $22 $23 $7 #
plane-surface $-1 -14.059999999999736 -99.602579864334132 -82.656818882008139 0 -1 0 0 0 -1 forward_v I I I I #
coedge $-1 $24 $25 $26 $27 forward $8 $-1 #
coedge $-1 $28 $10 $29 $30 reversed $5 $-1 #
coedge $-1 $10 $28 $31 $32 reversed $5 $-1 #
coedge $-1 $25 $24 $10 $18 forward $8 $-1 #
edge $-1 $33 0 $34 23.663347626586855 $10 $35 forward 7 unknown #
face $-1 $36 $37 $2 $-1 $38 forward single #
loop $-1 $-1 $39 $11 #
plane-surface $-1 109.30751222265872 -99.602579864334132 -173.5402969004127 1 0 0 0 0 1 forward_v I I I I #
loop $-1 $-1 $40 $7 #
coedge $-1 $41 $42 $43 $44 reversed $12 $-1 #
coedge $-1 $17 $14 $45 $46 reversed $8 $-1 #
coedge $-1 $14 $17 $47 $48 forward $8 $-1 #
coedge $-1 $49 $50 $14 $27 reversed $22 $-1 #
edge $-1 $51 0 $52 24.319703099587301 $14 $53 forward 7 unknown #
coedge $-1 $16 $15 $54 $55 reversed $5 $-1 #
coedge $-1 $45 $56 $15 $30 forward $57 $-1 #
edge $-1 $58 -6.888249694474414e-028 $33 3.1415926535897993 $15 $59 forward 7 unknown #
coedge $-1 $60 $47 $16 $32 forward $61 $-1 #
edge $-1 $34 0 $62 17.32669525317371 $16 $63 forward 7 unknown #
vertex $-1 $30 $64 #
vertex $-1 $32 $65 #
straight-curve $-1 88.663347626586855 -62 -143 0 0 1 I I #
face $-1 $66 $67 $2 $-1 $68 forward single #
loop $-1 $-1 $69 $19 #
plane-surface $-1 109.30751222265873 -99.602579864334132 -98.540296900412699 0 0 1 -1 0 0 forward_v I I I I #
coedge $-1 $70 $43 $71 $72 forward $20 $-1 #
coedge $-1 $50 $49 $73 $74 reversed $22 $-1 #
coedge $-1 $75 $23 $76 $77 reversed $12 $-1 #
coedge $-1 $23 $75 $78 $79 reversed $12 $-1 #
coedge $-1 $39 $80 $23 $44 forward $20 $-1 #
edge $-1 $81 0 $82 75 $23 $83 forward 7 unknown #
coedge $-1 $84 $29 $24 $46 forward $57 $-1 #
edge $-1 $33 2.4801361231088909e-016 $52 37.608307791770748 $45 $85 forward 7 unknown #
coedge $-1 $31 $86 $25 $48 reversed $61 $-1 #
edge $-1 $34 0 $51 37.614034846949117 $47 $87 forward 7 unknown #
coedge $-1 $40 $26 $86 $88 reversed $22 $-1 #
coedge $-1 $26 $40 $84 $89 forward $22 $-1 #
vertex $-1 $48 $90 #
vertex $-1 $89 $91 #
straight-curve $-1 89.319703099587286 -99.602579864334132 -118.6802969004127 0 0 -1 I I #
coedge $-1 $92 $93 $28 $55 forward $94 $-1 #
edge $-1 $62 0 $58 23.663347626586855 $28 $95 forward 7 unknown #
coedge $-1 $29 $84 $92 $96 reversed $57 $-1 #
loop $-1 $-1 $29 $97 #
vertex $-1 $55 $98 #
ellipse-curve $-1 80.000000000000014 -62 -143.00000000000003 0 -1 0 -8.6633476265868552 0 2.8421709430404007e-014 1 I I #
coedge $-1 $86 $31 $93 $99 forward $61 $-1 #
loop $-1 $-1 $31 $100 #
vertex $-1 $32 $101 #
straight-curve $-1 88.663347626586869 -62 -119.33665237341313 -1 0 0 I I #
point $-1 88.663347626586869 -62 -143 #
point $-1 88.663347626586869 -62 -119.33665237341314 #
face $-1 $102 $103 $2 $-1 $104 forward single #
loop $-1 $-1 $105 $36 #
plane-surface $-1 50.707335993745673 -99.602579864334132 -98.540296900412699 -1 0 0 0 0 -1 forward_v I I I I #
coedge $-1 $106 $78 $107 $108 forward $37 $-1 #
coedge $-1 $80 $39 $109 $110 reversed $20 $-1 #
coedge $-1 $78 $106 $39 $72 reversed $37 $-1 #
edge $-1 $82 0 $111 25 $71 $112 forward 7 unknown #
coedge $-1 $93 $92 $40 $74 forward $94 $-1 #
edge $-1 $113 0 $114 24.319703099587301 $73 $115 forward 7 unknown #
coedge $-1 $42 $41 $116 $117 reversed $12 $-1 #
coedge $-1 $118 $119 $41 $77 forward $103 $-1 #
edge $-1 $120 0 $81 58.600176228913043 $41 $121 forward 7 unknown #
coedge $-1 $69 $71 $42 $79 forward $37 $-1 #
edge $-1 $82 0 $122 58.600176228913057 $42 $123 forward 7 unknown #
coedge $-1 $43 $70 $118 $124 reversed $20 $-1 #
vertex $-1 $77 $125 #
vertex $-1 $79 $126 #
straight-curve $-1 109.30751222265872 -99.602579864334132 -173.5402969004127 0 0 1 I I #
coedge $-1 $56 $45 $50 $89 reversed $57 $-1 #
straight-curve $-1 88.663347626586855 -62 -143 0.017452406437283293 -0.99984769515639127 0 I I #
coedge $-1 $47 $60 $49 $88 forward $61 $-1 #
straight-curve $-1 88.663347626586855 -62 -119.33665237341313 0.017449749160682468 -0.99969545988188746 0.017449749160682468 I I #
edge $-1 $114 0 $51 18.639406199174573 $86 $127 forward 7 unknown #
edge $-1 $113 0 $52 3.1415926535897931 $84 $128 forward 7 unknown #
point $-1 89.319703099587286 -99.602579864334132 -118.6802969004127 #
point $-1 89.319703099587286 -99.602579864334132 -143 #
coedge $-1 $73 $54 $56 $96 forward $94 $-1 #
coedge $-1 $54 $73 $60 $99 reversed $94 $-1 #
loop $-1 $-1 $73 $129 #
straight-curve $-1 71.336652373413145 -62 -119.33665237341314 0 0 -1 I I #
edge $-1 $58 -3.5763753217111703e-015 $113 37.608307791770855 $92 $130 forward 7 unknown #
face $-1 $-1 $57 $2 $-1 $131 forward single #
point $-1 71.336652373414978 -62.000000000000171 -143 #
edge $-1 $62 -4.9595170027835351e-016 $114 37.614034846949117 $60 $132 forward 7 unknown #
face $-1 $97 $61 $2 $-1 $133 forward single #
point $-1 71.336652373413159 -62 -119.33665237341314 #
face $-1 $134 $135 $2 $-1 $136 forward single #
loop $-1 $-1 $118 $66 #
plane-surface $-1 50.707335993745673 -99.602579864334132 -173.5402969004127 0 0 -1 1 0 0 forward_v I I I I #
coedge $-1 $137 $116 $119 $138 forward $67 $-1 #
coedge $-1 $71 $69 $139 $140 reversed $37 $-1 #
coedge $-1 $116 $137 $69 $108 reversed $67 $-1 #
edge $-1 $122 0 $141 25 $69 $142 forward 7 unknown #
coedge $-1 $139 $143 $70 $110 forward $135 $-1 #
edge $-1 $144 0 $111 75 $109 $145 forward 7 unknown #
vertex $-1 $140 $146 #
straight-curve $-1 109.30751222265872 -99.602579864334132 -98.540296900412699 0 -1 0 I I #
vertex $-1 $96 $147 #
vertex $-1 $88 $148 #
straight-curve $-1 70.680296900412714 -99.602579864334132 -143 0 0 1 I I #
coedge $-1 $105 $107 $75 $117 forward $67 $-1 #
edge $-1 $122 0 $120 75 $75 $149 forward 7 unknown #
coedge $-1 $150 $76 $80 $124 forward $103 $-1 #
coedge $-1 $76 $150 $105 $138 reversed $103 $-1 #
vertex $-1 $117 $151 #
straight-curve $-1 50.707335993745673 -99.602579864334132 -173.5402969004127 1 0 0 I I #
vertex $-1 $79 $152 #
straight-curve $-1 109.30751222265873 -99.602579864334132 -98.540296900412699 -1 0 0 I I #
edge $-1 $81 0 $144 25 $118 $153 forward 7 unknown #
point $-1 109.30751222265872 -99.602579864334132 -173.5402969004127 #
point $-1 109.30751222265873 -99.602579864334132 -98.540296900412699 #
straight-curve $-1 70.680296900412714 -99.602579864334132 -118.6802969004127 1 0 0 I I #
ellipse-curve $-1 80 -99.602579864334132 -143 0 -1 0 -9.3197030995872865 0 0 1 I I #
face $-1 $100 $94 $2 $-1 $154 forward single #
straight-curve $-1 71.336652373413145 -62.000000000000142 -143 -0.017452406437283619 -0.99984769515639127 0 I I #
cone-surface $-1 80 433.32285312109127 -143 0 1 0 0 0 -0.017455064928217585 1 I I -0.017452406437283512 0.99984769515639127 0.017455064928217585 forward I I I I #
straight-curve $-1 71.336652373413145 -62 -119.33665237341313 -0.017449749160682468 -0.99969545988188746 0.017449749160682468 I I #
plane-surface $-1 95.845745021535578 -24.014291002277179 -119.99969539031277 0 0.017452406437283512 0.99984769515639127 1 0 0 forward_v I I I I #
face $-1 $155 $156 $2 $-1 $157 forward single #
loop $-1 $158 $159 $102 #
plane-surface $-1 -14.059999999999736 -124.60257986433413 -82.656818882008139 0 -1 0 0 0 -1 forward_v I I I I #
coedge $-1 $107 $105 $159 $160 reversed $67 $-1 #
edge $-1 $120 0 $161 25 $105 $162 forward 7 unknown #
coedge $-1 $159 $109 $106 $140 forward $135 $-1 #
edge $-1 $111 0 $141 58.600176228913057 $139 $163 forward 7 unknown #
vertex $-1 $140 $164 #
straight-curve $-1 50.707335993745673 -99.602579864334132 -98.540296900412699 0 -1 0 I I #
coedge $-1 $109 $159 $150 $165 forward $135 $-1 #
vertex $-1 $110 $166 #
straight-curve $-1 109.30751222265872 -124.60257986433413 -173.5402969004127 0 0 1 I I #
point $-1 109.30751222265873 -124.60257986433413 -98.540296900412699 #
point $-1 70.680296900414675 -99.602579864334416 -143 #
point $-1 70.680296900412714 -99.602579864334132 -118.6802969004127 #
straight-curve $-1 50.707335993745673 -99.602579864334132 -98.540296900412699 0 0 -1 I I #
coedge $-1 $119 $118 $143 $165 reversed $103 $-1 #
point $-1 50.707335993745673 -99.602579864334132 -173.5402969004127 #
point $-1 50.707335993745673 -99.602579864334132 -98.540296900412699 #
straight-curve $-1 109.30751222265872 -99.602579864334132 -173.5402969004127 0 -1 0 I I #
plane-surface $-1 71.99969539031278 -24.014291002277179 -112.15425497846439 -0.99984769515639127 0.017452406437283512 0 0 0 1 forward_v I I I I #
face $-1 $167 $168 $2 $-1 $169 forward single #
loop $-1 $-1 $170 $134 #
cone-surface $-1 80.13833599374567 -124.60257986433413 -136.0402969004127 0 -1 0 0 0 12.5 1 I I 0 1 12.5 forward I I I I #
loop $-1 $-1 $171 $102 #
coedge $-1 $143 $139 $137 $160 forward $135 $-1 #
edge $-1 $141 0 $161 75 $159 $172 forward 7 unknown #
vertex $-1 $165 $173 #
straight-curve $-1 50.707335993745673 -99.602579864334132 -173.5402969004127 0 -1 0 I I #
straight-curve $-1 109.30751222265873 -124.60257986433413 -98.540296900412699 -1 0 0 I I #
point $-1 50.707335993745673 -124.60257986433413 -98.540296900412699 #
edge $-1 $161 0 $144 58.600176228913043 $143 $174 forward 7 unknown #
point $-1 109.30751222265872 -124.60257986433413 -173.5402969004127 #
face $-1 $175 $176 $2 $-1 $177 forward single #
loop $-1 $178 $179 $155 #
cone-surface $-1 80.13833599374567 -124.60257986433413 -136.0402969004127 0 -1 0 0 0 12.5 1 I I 0 1 12.5 forward I I I I #
coedge $-1 $180 $181 $182 $183 forward $156 $-1 #
coedge $-1 $184 $184 $181 $185 reversed $158 $-1 #
straight-curve $-1 50.707335993745673 -124.60257986433413 -98.540296900412699 0 0 -1 I I #
point $-1 50.707335993745673 -124.60257986433413 -173.5402969004127 #
straight-curve $-1 50.707335993745673 -124.60257986433413 -173.5402969004127 1 0 0 I I #
face $-1 $186 $187 $2 $-1 $188 forward single #
loop $-1 $-1 $189 $167 #
plane-surface $-1 -14.059999999999736 -199.60257986433413 -82.656818882008139 0 -1 0 0 0 1 forward_v I I I I #
loop $-1 $-1 $190 $155 #
coedge $-1 $191 $192 $193 $194 forward $168 $-1 #
coedge $-1 $193 $170 $189 $195 reversed $156 $-1 #
coedge $-1 $170 $193 $171 $185 forward $156 $-1 #
coedge $-1 $192 $191 $170 $183 reversed $168 $-1 #
edge $-1 $196 0 $197 75 $182 $198 forward 7 unknown #
coedge $-1 $171 $171 $192 $199 reversed $158 $-1 #
edge $-1 $200 0 $196 3.1415926535897931 $171 $201 forward 7 unknown #
face $-1 $202 $203 $2 $-1 $204 forward single #
loop $-1 $-1 $205 $175 #
cone-surface $-1 50.707335993745673 -149.60257986433413 -136.0402969004127 -1 0 0 0 0 -5 1 I I 0 1 5 forward I I I I #
coedge $-1 $206 $206 $180 $195 forward $176 $-1 #
coedge $-1 $207 $207 $208 $209 reversed $178 $-1 #
coedge $-1 $182 $179 $206 $210 reversed $168 $-1 #
coedge $-1 $179 $182 $184 $199 forward $168 $-1 #
coedge $-1 $181 $180 $179 $194 reversed $156 $-1 #
edge $-1 $200 0 $211 75 $179 $212 forward 7 unknown #
edge $-1 $211 0 $197 3.1415926535897931 $189 $213 forward 7 unknown #
vertex $-1 $199 $214 #
vertex $-1 $210 $215 #
straight-curve $-1 80.13833599374567 -124.60257986433413 -123.5402969004127 0 -1 0 I I #
edge $-1 $196 0 $200 3.1415926535897931 $184 $216 forward 7 unknown #
vertex $-1 $199 $217 #
ellipse-curve $-1 80.13833599374567 -124.60257986433413 -136.0402969004127 0 -1 0 0 0 -12.5 1 I I #
face $-1 $129 $218 $2 $-1 $219 forward single #
loop $-1 $-1 $220 $186 #
plane-surface $-1 50.707335993745673 -99.602579864334132 -98.540296900412699 -1 0 0 0 0 -1 forward_v I I I I #
coedge $-1 $221 $222 $220 $223 forward $187 $-1 #
coedge $-1 $189 $189 $191 $210 forward $176 $-1 #
coedge $-1 $190 $190 $224 $225 reversed $178 $-1 #
coedge $-1 $222 $221 $190 $209 forward $187 $-1 #
edge $-1 $226 7.6594153106505015e-006 $227 1 $190 $228 forward 7 unknown #
edge $-1 $197 0 $211 3.1415926535897931 $206 $229 forward 7 unknown #
vertex $-1 $210 $230 #
straight-curve $-1 80.13833599374567 -124.60257986433413 -148.5402969004127 0 -1 0 I I #
ellipse-curve $-1 80.13833599374567 -199.60257986433413 -136.0402969004127 0 -1 0 0 0 -12.5 1 I I #
point $-1 80.13833599374567 -124.60257986433413 -123.5402969004127 #
point $-1 80.13833599374567 -199.60257986433413 -123.5402969004127 #
ellipse-curve $-1 80.13833599374567 -124.60257986433413 -136.0402969004127 0 -1 0 0 0 12.5 1 I I #
point $-1 80.13833599374567 -124.60257986433413 -148.5402969004127 #
loop $-1 $-1 $224 $202 #
cone-surface $-1 50.707335993745673 -149.60257986433413 -136.0402969004127 -1 0 0 0 0 -5 1 I I 0 1 5 forward I I I I #
coedge $-1 $231 $231 $205 $223 reversed $203 $-1 #
coedge $-1 $208 $205 $232 $233 reversed $187 $-1 #
coedge $-1 $205 $208 $234 $235 forward $187 $-1 #
edge $-1 $236 0 $237 3.1415926535897931 $220 $238 forward 7 unknown #
coedge $-1 $232 $234 $207 $225 forward $218 $-1 #
edge $-1 $227 7.7608193717363998e-006 $226 1 $207 $239 forward 7 unknown #
tvertex-vertex $-1 $225 $240 0.00048048870883280479 #
tvertex-vertex $-1 $225 $241 0.00048087482108115793 #
intcurve-curve $-1 forward { surfintcur full nurbs 3 open 14 
	0 3 0.07675697149734162 1 0.15377053847291985 1 0.23078997646610802 1 0.30773736474553659 1 
	0.38478042714018856 1 0.46166323604913562 1 0.53828763578121364 1 0.61515953454068517 1 0.69220103217083573 1 
	0.76915955585443951 1 0.84616801497233451 1 0.92319324443039907 1 1 3 
	68.682154049338408 -149.60293715563014 -131.03970740949896 1 
	68.680817540738033 -149.20783477702756 -131.03800534932063 0.99999999999999989 
	68.642907271717419 -148.43226029088049 -131.13014068015158 1.0000000000000004 
	68.460808437915375 -147.25508883249734 -131.56609305516571 0.99999999999999978 
	68.210915118639463 -146.24732249377399 -132.26962160836104 1 
	67.95915764605607 -145.45260677931222 -133.1639632443727 1 
	67.744695152839981 -144.8693216475429 -134.27266650215162 0.99999999999999978 
	67.633513039903249 -144.59046949399723 -135.46674441069203 1.0000000000000002 
	67.6330652626622 -144.58935725563285 -136.60257858293423 0.99999999999999989 
	67.742802173349659 -144.86452192024592 -137.79421526869609 0.99999999999999989 
	67.956108559278974 -145.4436768791152 -138.90427843118181 0.99999999999999967 
	68.208708994159693 -146.23966783429637 -139.80413748988272 1.0000000000000004 
	68.457885207825697 -147.24154232861096 -140.50692920388386 1 
	68.641923656090725 -148.41935965973181 -140.94825702859248 1.0000000000000002 
	68.680472811726531 -149.20203156063732 -141.04188702311933 1 
	68.682154073674994 -149.60221794674152 -141.04088644708074 1 
	0.001 
	cone 80.13833599374567 -124.60257986433413 -136.0402969004127 0 -1 0 0 0 12.5 1 I I 0 1 12.5 forward I I I I 
	cone 50.707335993745673 -149.60257986433413 -136.0402969004127 -1 0 0 0 0 -5 1 I I 0 1 5 forward I I I I 
	nullbs 
	nullbs 
	I I 
	0 
	0 
	0 
	} I I #
ellipse-curve $-1 80.13833599374567 -199.60257986433413 -136.0402969004127 0 -1 0 0 0 12.5 1 I I #
point $-1 80.13833599374567 -199.60257986433413 -148.5402969004127 #
coedge $-1 $220 $220 $242 $243 reversed $203 $-1 #
coedge $-1 $242 $224 $221 $233 forward $218 $-1 #
edge $-1 $226 -1.6063899167306772e-005 $237 17.974793959743991 $232 $244 forward 7 unknown #
coedge $-1 $224 $242 $222 $235 reversed $218 $-1 #
edge $-1 $227 -1.6216451015793609e-005 $236 17.97479375525279 $234 $245 forward 7 unknown #
vertex $-1 $243 $246 #
vertex $-1 $243 $247 #
ellipse-curve $-1 50.707335993745673 -149.60257986433413 -136.0402969004127 1 0 0 0 0 -5 1 I I #
intcurve-curve $-1 forward { surfintcur full nurbs 3 open 14 
	0 3 0.076755857871418642 1 0.15376784357250611 1 0.23078586852044961 1 0.3077328645849059 1 
	0.38477874739094586 1 0.46166749593138479 1 0.53829462046299958 1 0.6151655319132463 1 0.69220585349302644 1 
	0.76916331494605927 1 0.84617081758042367 1 0.92319481566613404 1 1 3 
	68.682154073674994 -149.60221794674152 -141.04088644708074 1 
	68.680816958069968 -149.99724630121707 -141.04258242003533 1 
	68.642921019176669 -150.77266807848349 -140.95048480892254 0.99999999999999989 
	68.460912366764788 -151.9495143978844 -140.51475713863354 1.0000000000000002 
	68.211112733909459 -152.95713203920124 -139.81156925789625 1 
	67.95937667073845 -153.75192794967788 -138.91753647044897 0.99999999999999978 
	67.744734400849651 -154.33574998574832 -137.80847330391134 1 
	67.633417855468423 -154.61492587896345 -136.61275452024464 1 
	67.633146904641507 -154.61560140726095 -135.47630581852269 1 
	67.74299066181571 -154.34015084309658 -134.28516111961062 0.99999999999999989 
	67.95632216985868 -153.76086074545455 -133.17544212498774 1 
	68.208884961127737 -152.96486723832555 -132.27592177647372 0.99999999999999978 
	68.457998382216758 -151.96304397916904 -131.57338046179657 1.0000000000000002 
	68.641949253272429 -150.78543802289016 -131.13227847519315 0.99999999999999956 
	68.680477949086935 -150.0029891112074 -131.03869956865012 1 
	68.682154049338408 -149.60293715563014 -131.03970740949896 1 
	0.001 
	cone 80.13833599374567 -124.60257986433413 -136.0402969004127 0 -1 0 0 0 12.5 1 I I 0 1 12.5 forward I I I I 
	cone 50.707335993745673 -149.60257986433413 -136.0402969004127 -1 0 0 0 0 -5 1 I I 0 1 5 forward I I I I 
	nullbs 
	nullbs 
	I I 
	0 
	0 
	0 
	} I I #
point $-1 68.682146017388831 -149.60281805853148 -131.03990390647019 #
point $-1 68.682145965449479 -149.60233858593907 -141.04068993152472 #
coedge $-1 $234 $232 $231 $243 forward $218 $-1 #
edge $-1 $237 0 $236 3.1415926535897931 $231 $248 forward 7 unknown #
straight-curve $-1 68.682129953489664 -149.60257986433413 -131.0402969004127 -1 0 0 I I #
straight-curve $-1 68.682129748998463 -149.60257986433413 -141.0402969004127 -1 0 0 I I #
point $-1 50.707335993745673 -149.60257986433413 -141.0402969004127 #
point $-1 50.707335993745673 -149.60257986433413 -131.0402969004127 #
ellipse-curve $-1 50.707335993745673 -149.60257986433413 -136.0402969004127 1 0 0 0 0 5 1 I I #
End-of-ACIS-data 