600 0 1 0           
91 GICL ACIS Healer - Source: /gicl/data5/repository/Allied-Signal/spinner2/spinner2.sat - 6 0 18 ACIS 6.0.3 Solaris 24 Sun Apr 14 00:14:51 2002 
1 9.999999999999999547e-07 1.000000000000000036e-10 
body $-1 $1 $-1 $2 #
lump $-1 $-1 $3 $0 #
transform $-1 1 0 0 0 1 0 0 0 1 0 0 0 1 no_rotate no_reflect no_shear #
shell $-1 $-1 $-1 $4 $-1 $1 #
face $-1 $5 $6 $3 $-1 $7 forward single #
face $-1 $8 $9 $3 $-1 $10 forward single #
loop $-1 $-1 $11 $4 #
plane-surface $-1 0.3014999999999999902 -2.5 0 1 0 0 0 0 -1 forward_v I I I I #
face $-1 $12 $13 $3 $-1 $10 forward single #
loop $-1 $-1 $14 $5 #
plane-surface $-1 0.375 -0.04999999999999989869 0.75 0 1 0 0 0 1 forward_v I I I I #
coedge $-1 $15 $16 $17 $18 forward $6 $-1 #
face $-1 $19 $20 $3 $-1 $21 reversed single #
loop $-1 $-1 $22 $8 #
coedge $-1 $23 $24 $25 $26 reversed $9 $-1 #
coedge $-1 $27 $11 $28 $29 forward $6 $-1 #
coedge $-1 $11 $30 $31 $32 reversed $6 $-1 #
coedge $-1 $33 $34 $11 $18 reversed $35 $-1 #
edge $-1 $36 -0.1033712060089694851 $37 2.220446049250313081e-16 $17 $38 forward 7 unknown #
face $-1 $39 $40 $3 $-1 $41 reversed single #
loop $-1 $-1 $42 $12 #
cone-surface $-1 0.07900000000000000078 -0.1100000000000000006 0.4869999999999999885 0 1 0 0.07799999999999999989 0 0 1 I I 0 1 0.07799999999999999989 forward I I I I #
coedge $-1 $43 $44 $45 $46 reversed $13 $-1 #
coedge $-1 $47 $14 $48 $49 reversed $9 $-1 #
coedge $-1 $14 $47 $50 $51 reversed $9 $-1 #
coedge $-1 $52 $53 $14 $26 forward $54 $-1 #
edge $-1 $55 -0.2560000000000000053 $56 -0.07350000000000000977 $14 $57 reversed 7 unknown #
coedge $-1 $58 $15 $59 $60 forward $6 $-1 #
coedge $-1 $61 $62 $15 $29 reversed $63 $-1 #
edge $-1 $37 0.1620000000000000329 $64 0.1899999999999999467 $28 $65 reversed 7 unknown #
coedge $-1 $16 $66 $67 $68 forward $6 $-1 #
coedge $-1 $69 $70 $16 $32 forward $71 $-1 #
edge $-1 $36 0.3511735798978695144 $72 1.570796326794896558 $16 $73 reversed 7 unknown #
coedge $-1 $74 $17 $70 $75 reversed $35 $-1 #
coedge $-1 $17 $76 $61 $77 forward $35 $-1 #
loop $-1 $-1 $76 $78 #
vertex $-1 $32 $79 #
vertex $-1 $18 $80 #
straight-curve $-1 0.3014999999999999902 -0.3570000000000002061 0.5370000000000000329 -0 1 -0 I I #
face $-1 $81 $82 $3 $-1 $83 forward single #
loop $-1 $-1 $84 $19 #
plane-surface $-1 0.375 -0.1100000000000000006 0.4089999999999999747 0 0 -1 -1 0 0 forward_v I I I I #
coedge $-1 $85 $86 $87 $88 reversed $20 $-1 #
coedge $-1 $89 $22 $90 $91 reversed $13 $-1 #
coedge $-1 $22 $89 $92 $93 reversed $13 $-1 #
coedge $-1 $94 $95 $22 $46 forward $96 $-1 #
edge $-1 $97 -0.2560000000000000053 $98 -0.07350000000000000977 $22 $99 reversed 7 unknown #
coedge $-1 $24 $23 $100 $101 reversed $9 $-1 #
coedge $-1 $102 $103 $23 $49 forward $104 $-1 #
edge $-1 $105 0.007999999999999896083 $55 0.05799999999999994049 $23 $106 reversed 7 unknown #
coedge $-1 $107 $108 $24 $51 forward $6 $-1 #
edge $-1 $56 0.259000000000000008 $109 0.3090000000000000524 $24 $110 reversed 7 unknown #
coedge $-1 $111 $25 $108 $112 reversed $54 $-1 #
coedge $-1 $25 $111 $102 $113 forward $54 $-1 #
loop $-1 $-1 $111 $114 #
vertex $-1 $113 $115 #
vertex $-1 $112 $116 #
straight-curve $-1 0.375 -0.04999999999999989175 0.634000000000000008 -1 0 0 I I #
coedge $-1 $108 $27 $117 $118 forward $6 $-1 #
coedge $-1 $119 $120 $27 $60 reversed $121 $-1 #
edge $-1 $64 0.9479999999999999538 $122 1.19499999999999984 $59 $123 forward 7 unknown #
coedge $-1 $124 $28 $34 $77 reversed $63 $-1 #
coedge $-1 $28 $125 $119 $126 reversed $63 $-1 #
loop $-1 $-1 $61 $127 #
vertex $-1 $60 $128 #
straight-curve $-1 0.3014999999999999902 -0.3570000000000002061 0.375 0 0 -1 I I #
coedge $-1 $30 $107 $129 $130 forward $6 $-1 #
coedge $-1 $131 $132 $30 $68 reversed $133 $-1 #
edge $-1 $134 -1.356999999999999984 $72 -1.342000000000000082 $67 $135 reversed 7 unknown #
coedge $-1 $136 $31 $132 $137 forward $71 $-1 #
coedge $-1 $31 $138 $33 $75 forward $71 $-1 #
loop $-1 $-1 $31 $139 #
vertex $-1 $32 $140 #
ellipse-curve $-1 0.3014999999999999902 -0.3430000000000000271 0.4939999999999999947 1 0 0 0 -0.125 0 1 I I #
coedge $-1 $76 $33 $141 $142 reversed $35 $-1 #
edge $-1 $143 0.08366036583981049934 $36 0.1526982943074202126 $33 $144 forward 7 unknown #
coedge $-1 $34 $74 $145 $146 reversed $35 $-1 #
edge $-1 $147 1.570796326794896558 $37 4.712388980384689674 $61 $148 forward 7 unknown #
face $-1 $127 $35 $3 $-1 $149 reversed single #
point $-1 0.3014999999999999902 -0.4603712060089696911 0.5370000000000000329 #
point $-1 0.3014999999999999902 -0.356999999999999984 0.5370000000000000329 #
face $-1 $150 $151 $3 $-1 $152 forward single #
loop $-1 $-1 $153 $39 #
plane-surface $-1 0.1189999999999999947 -0.1100000000000000006 0.1160000000000000059 0 0 1 1 0 0 forward_v I I I I #
coedge $-1 $154 $155 $156 $157 forward $40 $-1 #
coedge $-1 $158 $42 $125 $159 forward $20 $-1 #
coedge $-1 $42 $158 $160 $161 forward $20 $-1 #
coedge $-1 $120 $119 $42 $88 forward $121 $-1 #
edge $-1 $162 -0.2469999999999999973 $163 0 $42 $164 forward 7 unknown #
coedge $-1 $44 $43 $153 $165 reversed $13 $-1 #
coedge $-1 $166 $167 $43 $91 forward $151 $-1 #
edge $-1 $168 0.2919999999999999818 $97 0.3420000000000000817 $43 $169 reversed 7 unknown #
coedge $-1 $170 $171 $44 $93 forward $172 $-1 #
edge $-1 $98 -0.3090000000000001079 $173 -0.259000000000000008 $44 $174 reversed 7 unknown #
coedge $-1 $175 $45 $171 $176 reversed $96 $-1 #
coedge $-1 $45 $175 $166 $177 forward $96 $-1 #
loop $-1 $-1 $175 $178 #
vertex $-1 $177 $179 #
vertex $-1 $176 $180 #
straight-curve $-1 0.375 -0.04999999999999989175 0.06599999999999989209 -1 0 0 I I #
coedge $-1 $181 $182 $47 $101 forward $183 $-1 #
edge $-1 $109 -0.05449999999999999289 $105 0.1280000000000000027 $47 $184 reversed 7 unknown #
coedge $-1 $185 $48 $53 $113 reversed $104 $-1 #
coedge $-1 $48 $186 $181 $187 reversed $104 $-1 #
loop $-1 $-1 $48 $188 #
vertex $-1 $187 $189 #
straight-curve $-1 0.1189999999999999947 -0.04999999999999989175 0.6919999999999999485 0 -0 1 I I #
coedge $-1 $66 $50 $182 $190 forward $6 $-1 #
coedge $-1 $50 $58 $52 $112 forward $6 $-1 #
vertex $-1 $190 $191 #
straight-curve $-1 0.3014999999999999902 -0.04999999999999982236 0.375 0 0 -1 I I #
coedge $-1 $53 $52 $192 $193 forward $54 $-1 #
edge $-1 $194 1.19499999999999984 $56 1.255000000000000115 $52 $195 reversed 7 unknown #
edge $-1 $196 0 $55 0.0600000000000001088 $102 $197 reversed 7 unknown #
face $-1 $198 $54 $3 $-1 $199 forward single #
point $-1 0.1189999999999999947 -0.04999999999999989175 0.634000000000000008 #
point $-1 0.3014999999999999902 -0.04999999999999989175 0.634000000000000008 #
coedge $-1 $200 $192 $58 $118 reversed $201 $-1 #
edge $-1 $122 0.1899999999999999467 $194 0.259000000000000008 $117 $202 forward 7 unknown #
coedge $-1 $87 $59 $62 $126 forward $121 $-1 #
coedge $-1 $59 $87 $200 $203 forward $121 $-1 #
loop $-1 $-1 $119 $204 #
vertex $-1 $60 $205 #
straight-curve $-1 0.3014999999999999902 -1.304999999999999938 0.5649999999999999467 0 1 0 I I #
coedge $-1 $206 $61 $207 $208 reversed $63 $-1 #
coedge $-1 $62 $206 $85 $159 reversed $63 $-1 #
edge $-1 $64 -0.0744999999999999829 $162 0.1480000000000000204 $62 $209 reversed 7 unknown #
face $-1 $204 $63 $3 $-1 $210 forward single #
point $-1 0.3014999999999999902 -0.356999999999999984 0.5649999999999999467 #
coedge $-1 $211 $212 $66 $130 reversed $213 $-1 #
edge $-1 $214 0.8480620789814806715 $134 1.570796326794896558 $129 $215 forward 7 unknown #
coedge $-1 $216 $67 $212 $217 reversed $133 $-1 #
coedge $-1 $67 $218 $69 $137 reversed $133 $-1 #
loop $-1 $-1 $132 $219 #
vertex $-1 $130 $220 #
straight-curve $-1 0.3014999999999999902 -1.685000000000000053 0.6189999999999999947 0 1 0 I I #
coedge $-1 $138 $69 $221 $222 forward $71 $-1 #
edge $-1 $72 -0 $223 0.3624999999999998779 $132 $224 reversed 7 unknown #
coedge $-1 $70 $136 $225 $226 forward $71 $-1 #
face $-1 $219 $71 $3 $-1 $227 forward single #
point $-1 0.3014999999999999902 -0.3430000000000000271 0.6189999999999999947 #
coedge $-1 $225 $228 $74 $142 forward $229 $-1 #
edge $-1 $230 -4.712388980384689674 $143 -3.001131238879937158 $74 $231 reversed 7 unknown #
vertex $-1 $226 $232 #
intcurve-curve $-1 forward { surfintcur full nubs 3 open 5 
	0.08366036583981049934 3 0.09568528172949433697 2 0.1146037123924439072 2 0.1336510033499320738 2 0.1526982943074202126 3 
	0.2520042597888415559 -0.4679924924401720476 0.4939983027798876547 
	0.2525912301607518007 -0.4679888243532999148 0.4981075595510948695 
	0.2536916059878560614 -0.4677898864772932486 0.5022391841498918819 
	0.2578573664327183934 -0.4668087529245149025 0.5122896206216571713 
	0.26168501617481843 -0.4657815021640290265 0.5178785618253980427 
	0.2704977422312623281 -0.4637261813363060536 0.5267254047017102536 
	0.2760959377848218321 -0.4625584920492409879 0.5305798528362105637 
	0.2884196908284155092 -0.4608639073757498372 0.5357183224380994702 
	0.2951509030141706291 -0.4603712060089696911 0.5370000000000000329 
	0.3014999999999999902 -0.4603712060089696356 0.5369999999999999218 
	0.0001137807966352680043 
	cone 0.3014999999999999902 -0.356999999999999984 0.4869999999999999885 0 -1 0 0.05000000000000000278 0 0 1 I I 0 1 0.05000000000000000278 forward I I I I 
	cone 0.3014999999999999902 -0.3430000000000000271 0.4939999999999999947 1 0 0 0 -0.125 0 1 I I 0 1 0.125 forward I I I I 
	nullbs 
	nullbs 
	I I 
	0 
	0 
	0 
	} I I #
coedge $-1 $233 $207 $76 $146 forward $172 $-1 #
edge $-1 $147 -2.220446049250313081e-16 $230 0.1109999999999997655 $76 $234 forward 7 unknown #
vertex $-1 $146 $235 #
ellipse-curve $-1 0.3014999999999999902 -0.356999999999999984 0.4869999999999999885 0 1 0 0.05000000000000000278 0 0 1 I I #
cone-surface $-1 0.3014999999999999902 -0.356999999999999984 0.4869999999999999885 0 -1 0 0.05000000000000000278 0 0 1 I I 0 1 0.05000000000000000278 forward I I I I #
face $-1 $236 $183 $3 $-1 $237 forward single #
loop $-1 $-1 $90 $81 #
plane-surface $-1 0.1189999999999999947 -0.1100000000000000006 0.06599999999999990596 -1 0 0 0 0 1 forward_v I I I I #
coedge $-1 $238 $239 $89 $165 forward $82 $-1 #
coedge $-1 $240 $84 $158 $241 forward $40 $-1 #
coedge $-1 $84 $240 $242 $243 reversed $40 $-1 #
coedge $-1 $244 $160 $84 $157 reversed $201 $-1 #
edge $-1 $245 0.07350000000000000977 $246 0.2959999999999999853 $156 $247 reversed 7 unknown #
coedge $-1 $86 $85 $154 $241 reversed $20 $-1 #
edge $-1 $162 -4.712388980384689674 $248 -1.570796326794896558 $125 $249 reversed 7 unknown #
coedge $-1 $156 $200 $86 $161 reversed $201 $-1 #
edge $-1 $246 -4.712388980384689674 $163 -1.570796326794896558 $160 $250 reversed 7 unknown #
vertex $-1 $88 $251 #
vertex $-1 $88 $252 #
straight-curve $-1 0.07900000000000000078 -0.1100000000000000006 0.5649999999999999467 0 1 0 I I #
edge $-1 $173 -0.05449999999999999289 $168 0.1280000000000000027 $89 $253 reversed 7 unknown #
coedge $-1 $254 $90 $95 $177 reversed $151 $-1 #
coedge $-1 $90 $255 $238 $256 reversed $151 $-1 #
vertex $-1 $256 $257 #
straight-curve $-1 0.1189999999999999947 -0.04999999999999989175 0.4079999999999999738 0 -0 1 I I #
coedge $-1 $258 $92 $239 $259 forward $172 $-1 #
coedge $-1 $92 $260 $94 $176 forward $172 $-1 #
loop $-1 $-1 $261 $198 #
vertex $-1 $259 $262 #
straight-curve $-1 0.3014999999999999902 -0.04999999999999982236 0.375 0 0 -1 I I #
coedge $-1 $95 $94 $263 $264 reversed $96 $-1 #
edge $-1 $265 1.148973835219198492 $98 1.255000000000000115 $94 $266 reversed 7 unknown #
edge $-1 $267 -0.0460261647808015012 $97 0.0600000000000001088 $166 $268 reversed 7 unknown #
face $-1 $269 $96 $3 $-1 $270 forward single #
point $-1 0.1189999999999999947 -0.04999999999999989175 0.06599999999999989209 #
point $-1 0.3014999999999999902 -0.04999999999999989175 0.06599999999999989209 #
coedge $-1 $271 $100 $103 $187 forward $183 $-1 #
coedge $-1 $100 $271 $107 $190 reversed $183 $-1 #
loop $-1 $-1 $100 $150 #
straight-curve $-1 0.2469999999999999973 -0.04999999999999989175 0.6840000000000000524 1 0 0 I I #
coedge $-1 $272 $102 $273 $274 forward $104 $-1 #
coedge $-1 $103 $272 $275 $276 reversed $104 $-1 #
edge $-1 $105 -0.0600000000000001088 $277 0.04602616478080155671 $103 $278 reversed 7 unknown #
face $-1 $114 $104 $3 $-1 $279 forward single #
point $-1 0.1189999999999999947 -0.04999999999999989175 0.6840000000000000524 #
edge $-1 $109 -1.255000000000000115 $214 -1.148973835219198492 $182 $280 reversed 7 unknown #
point $-1 0.3014999999999999902 -0.04999999999999989175 0.6840000000000000524 #
coedge $-1 $117 $273 $111 $193 reversed $201 $-1 #
edge $-1 $194 0.07350000000000000977 $196 0.2560000000000000053 $192 $281 reversed 7 unknown #
vertex $-1 $112 $282 #
straight-curve $-1 0.3014999999999999902 -1.304999999999999938 0.634000000000000008 0 -1 0 I I #
vertex $-1 $113 $283 #
straight-curve $-1 0.1189999999999999947 -0.1100000000000000006 0.634000000000000008 -0 -1 -0 I I #
face $-1 $78 $172 $3 $-1 $7 forward single #
plane-surface $-1 0.375 -0.1100000000000000006 0.634000000000000008 0 0 -1 -1 0 0 forward_v I I I I #
coedge $-1 $160 $117 $120 $203 reversed $201 $-1 #
loop $-1 $284 $200 $285 #
straight-curve $-1 0.3014999999999999902 -0.1099999999999998757 0.375 -0 0 1 I I #
edge $-1 $163 -0.1480000000000000204 $122 0.0744999999999999829 $200 $286 reversed 7 unknown #
face $-1 $285 $121 $3 $-1 $287 reversed single #
point $-1 0.3014999999999999902 -0.1100000000000000006 0.5649999999999999467 #
coedge $-1 $125 $124 $240 $288 reversed $63 $-1 #
coedge $-1 $145 $242 $124 $208 forward $172 $-1 #
edge $-1 $289 0.03399999999999997469 $147 0.06199999999999999956 $124 $290 reversed 7 unknown #
straight-curve $-1 0.2270000000000000073 -0.356999999999999984 0.5649999999999999467 1 0 0 I I #
plane-surface $-1 0.375 -0.356999999999999984 0.75 0 1 0 0 0 1 forward_v I I I I #
coedge $-1 $275 $129 $271 $291 forward $213 $-1 #
coedge $-1 $129 $275 $131 $217 forward $213 $-1 #
loop $-1 $-1 $211 $236 #
vertex $-1 $130 $292 #
ellipse-curve $-1 0.3014999999999999902 -0.3280000000000000138 0.8790000000000000036 -1 -0 -0 0 0.2600000000000000089 0 1 I I #
coedge $-1 $293 $131 $272 $294 forward $133 $-1 #
edge $-1 $295 0.3399999999999999689 $134 0.5224999999999999645 $131 $296 forward 7 unknown #
coedge $-1 $132 $297 $298 $299 reversed $133 $-1 #
face $-1 $300 $133 $3 $-1 $301 forward single #
point $-1 0.3014999999999999902 -0.3280000000000000138 0.6189999999999999947 #
coedge $-1 $298 $302 $136 $222 reversed $303 $-1 #
edge $-1 $223 -1.570796326794896558 $304 0 $221 $305 forward 7 unknown #
vertex $-1 $222 $306 #
straight-curve $-1 0.3014999999999999902 -0.3430000000000000271 0.6189999999999999947 1 0 0 I I #
coedge $-1 $307 $141 $138 $226 reversed $229 $-1 #
edge $-1 $304 -0.3624999999999998779 $143 -0.04950757517794623919 $225 $308 forward 7 unknown #
cone-surface $-1 0.3014999999999999902 -0.3430000000000000271 0.4939999999999999947 1 0 0 0 -0.125 0 1 I I 0 1 0.125 forward I I I I #
coedge $-1 $141 $309 $233 $310 forward $229 $-1 #
loop $-1 $-1 $225 $311 #
vertex $-1 $310 $312 #
ellipse-curve $-1 0.3014999999999999902 -0.4680000000000000271 0.4869999999999999885 -0 -1 -0 0.05000000000000000278 0 0 1 I I #
point $-1 0.251992424822053751 -0.4680000000000000271 0.4939999999999999947 #
coedge $-1 $261 $145 $228 $310 reversed $172 $-1 #
straight-curve $-1 0.3014999999999999902 -0.3570000000000002061 0.4369999999999999996 0 -1 0 I I #
point $-1 0.3014999999999999902 -0.356999999999999984 0.4369999999999999996 #
face $-1 $311 $213 $3 $-1 $313 reversed single #
plane-surface $-1 0.1189999999999999947 -0.1100000000000000006 0.6840000000000000524 0 0 1 1 0 0 forward_v I I I I #
coedge $-1 $314 $153 $167 $256 forward $82 $-1 #
coedge $-1 $153 $314 $170 $259 reversed $82 $-1 #
coedge $-1 $155 $154 $206 $288 forward $40 $-1 #
edge $-1 $246 -0 $248 0.2469999999999999973 $158 $315 reversed 7 unknown #
coedge $-1 $207 $258 $155 $243 forward $172 $-1 #
edge $-1 $245 -1.19499999999999984 $289 -0.9479999999999999538 $155 $316 forward 7 unknown #
coedge $-1 $317 $156 $258 $318 reversed $201 $-1 #
vertex $-1 $243 $319 #
vertex $-1 $241 $320 #
straight-curve $-1 0.375 -0.1100000000000000006 0.4089999999999999747 1 0 0 I I #
vertex $-1 $241 $321 #
ellipse-curve $-1 0.07900000000000000078 -0.356999999999999984 0.4869999999999999885 0 1 0 0.07799999999999999989 0 0 1 I I #
ellipse-curve $-1 0.07900000000000000078 -0.1100000000000000006 0.4869999999999999885 0 -1 0 0.07799999999999999989 0 0 1 I I #
point $-1 0.07900000000000000078 -0.356999999999999984 0.5649999999999999467 #
point $-1 0.07900000000000000078 -0.1100000000000000006 0.5649999999999999467 #
straight-curve $-1 0.2469999999999999973 -0.04999999999999989175 0.115999999999999992 1 0 0 I I #
coedge $-1 $322 $166 $323 $324 reversed $151 $-1 #
coedge $-1 $167 $322 $325 $326 forward $151 $-1 #
edge $-1 $168 -0.0600000000000001088 $327 -0 $167 $328 reversed 7 unknown #
point $-1 0.1189999999999999947 -0.04999999999999989175 0.115999999999999992 #
coedge $-1 $242 $170 $244 $318 forward $172 $-1 #
edge $-1 $173 -1.255000000000000115 $329 -1.19499999999999984 $239 $330 reversed 7 unknown #
coedge $-1 $171 $331 $332 $333 forward $172 $-1 #
coedge $-1 $331 $233 $334 $335 reversed $172 $-1 #
point $-1 0.3014999999999999902 -0.04999999999999989175 0.115999999999999992 #
coedge $-1 $332 $323 $175 $264 forward $336 $-1 #
edge $-1 $267 0.3399999999999999689 $265 0.5224999999999999645 $175 $337 forward 7 unknown #
vertex $-1 $333 $338 #
straight-curve $-1 0.3014999999999999902 -1.304999999999999938 0.06599999999999990596 0 -1 0 I I #
vertex $-1 $264 $339 #
straight-curve $-1 0.1189999999999999947 -0.1100000000000000006 0.06599999999999990596 -0 -1 -0 I I #
face $-1 $188 $340 $3 $-1 $10 forward single #
plane-surface $-1 0.375 -0.1100000000000000006 0.06599999999999990596 0 0 -1 -1 0 0 forward_v I I I I #
coedge $-1 $182 $181 $211 $291 reversed $183 $-1 #
coedge $-1 $186 $185 $216 $294 reversed $104 $-1 #
coedge $-1 $192 $341 $185 $274 reversed $201 $-1 #
edge $-1 $196 0.05799999999999994049 $342 0.07299999999999995381 $273 $343 forward 7 unknown #
coedge $-1 $212 $211 $186 $276 forward $213 $-1 #
edge $-1 $277 0.8480620789814806715 $295 1.570796326794896558 $186 $344 forward 7 unknown #
vertex $-1 $291 $345 #
straight-curve $-1 0.1189999999999999947 -0.1100000000000000006 0.6840000000000000524 0 1 -0 I I #
plane-surface $-1 0.1189999999999999947 -0.1100000000000000006 0.634000000000000008 -1 0 0 0 0 1 forward_v I I I I #
straight-curve $-1 0.3014999999999999902 -1.304999999999999938 0.6840000000000000524 0 1 0 I I #
straight-curve $-1 0.375 -0.1100000000000000006 0.634000000000000008 1 0 0 I I #
point $-1 0.3014999999999999902 -0.1100000000000000006 0.634000000000000008 #
point $-1 0.1189999999999999947 -0.1100000000000000006 0.634000000000000008 #
loop $-1 $-1 $346 $285 #
face $-1 $-1 $201 $3 $-1 $347 reversed single #
straight-curve $-1 0.2270000000000000073 -0.1100000000000000006 0.5649999999999999467 -1 0 0 I I #
plane-surface $-1 0.07900000000000000078 -0.1100000000000000006 0.5649999999999999467 0 0 1 1 0 0 forward_v I I I I #
edge $-1 $248 -0.2959999999999999853 $289 -0.07350000000000000977 $206 $348 reversed 7 unknown #
vertex $-1 $243 $349 #
straight-curve $-1 0.3014999999999999902 -0.3570000000000002061 0.375 0 0 -1 I I #
edge $-1 $214 -0.5224999999999999645 $277 -0.3399999999999999689 $271 $350 forward 7 unknown #
point $-1 0.3014999999999999902 -0.1560261647808015573 0.6840000000000000524 #
coedge $-1 $351 $216 $341 $352 forward $133 $-1 #
edge $-1 $295 0.1619999999999999774 $342 0.3800000000000000044 $272 $353 forward 7 unknown #
vertex $-1 $217 $354 #
straight-curve $-1 -0.221000000000000002 -0.3280000000000000138 0.6189999999999999947 1 0 0 I I #
coedge $-1 $218 $351 $355 $356 reversed $133 $-1 #
coedge $-1 $357 $221 $218 $299 forward $303 $-1 #
edge $-1 $223 -1.342000000000000082 $358 -0.9870000000000000995 $218 $359 reversed 7 unknown #
face $-1 $360 $361 $3 $-1 $362 reversed single #
plane-surface $-1 -0.221000000000000002 -0.8699999999999999956 0.6189999999999999947 0 0 1 1 0 0 forward_v I I I I #
coedge $-1 $221 $363 $307 $364 reversed $303 $-1 #
loop $-1 $-1 $363 $365 #
vertex $-1 $226 $366 #
ellipse-curve $-1 -0.06099999999999988765 -0.3430000000000000271 0.4939999999999999947 1 0 0 0 -0.125 0 1 I I #
point $-1 -0.06099999999999988765 -0.3430000000000000271 0.6189999999999999947 #
coedge $-1 $309 $225 $302 $364 forward $229 $-1 #
straight-curve $-1 0.3014999999999999902 -0.4680000000000000271 0.4939999999999999947 1 0 0 I I #
coedge $-1 $228 $307 $367 $368 reversed $229 $-1 #
edge $-1 $369 0.1280000000000000027 $230 0.3089999999999999969 $233 $370 forward 7 unknown #
face $-1 $371 $229 $3 $-1 $372 reversed single #
point $-1 0.3014999999999999902 -0.4679999999999999716 0.4369999999999999996 #
cone-surface $-1 -0.221000000000000002 -0.3280000000000000138 0.8790000000000000036 1 0 0 0 0.2600000000000000089 0 1 I I 0 1 0.2600000000000000089 forward I I I I #
coedge $-1 $239 $238 $317 $373 forward $82 $-1 #
straight-curve $-1 0.07900000000000000078 -0.1100000000000000006 0.4089999999999999747 0 1 0 I I #
straight-curve $-1 0.3014999999999999902 -1.304999999999999938 0.4089999999999999747 0 -1 0 I I #
coedge $-1 $325 $244 $314 $373 reversed $201 $-1 #
edge $-1 $329 -0.259000000000000008 $245 0.03399999999999997469 $244 $374 forward 7 unknown #
point $-1 0.3014999999999999902 -0.1100000000000000006 0.4089999999999999747 #
point $-1 0.07900000000000000078 -0.1100000000000000006 0.4089999999999999747 #
point $-1 0.07900000000000000078 -0.356999999999999984 0.4089999999999999747 #
coedge $-1 $255 $254 $375 $376 reversed $151 $-1 #
coedge $-1 $263 $377 $254 $324 forward $336 $-1 #
edge $-1 $378 -1.570796326794896558 $267 -0.8480620789814803384 $254 $379 forward 7 unknown #
coedge $-1 $380 $317 $255 $326 reversed $201 $-1 #
edge $-1 $381 0.2769999999999999685 $327 0.2919999999999999818 $325 $382 forward 7 unknown #
vertex $-1 $256 $383 #
straight-curve $-1 0.1189999999999999947 -0.1100000000000000006 0.1160000000000000059 0 1 -0 I I #
vertex $-1 $259 $384 #
straight-curve $-1 0.3014999999999999902 -1.304999999999999938 0.1160000000000000059 0 1 0 I I #
coedge $-1 $260 $261 $385 $386 forward $172 $-1 #
coedge $-1 $377 $263 $260 $333 reversed $336 $-1 #
edge $-1 $387 -1.570796326794896558 $265 -0.8480620789814803384 $332 $388 forward 7 unknown #
coedge $-1 $367 $389 $261 $335 forward $390 $-1 #
edge $-1 $391 -1.570796326794896558 $369 -0 $261 $392 reversed 7 unknown #
loop $-1 $-1 $377 $393 #
straight-curve $-1 -0.2209999999999999742 -0.1560261647808015018 0.06599999999999989209 1 -0 -0 I I #
point $-1 0.3014999999999999902 -0.1560261647808015018 0.06599999999999989209 #
point $-1 0.1189999999999999947 -0.1560261647808015018 0.06599999999999990596 #
loop $-1 $-1 $394 $269 #
coedge $-1 $273 $395 $293 $352 reversed $201 $-1 #
vertex $-1 $294 $396 #
straight-curve $-1 0.1189999999999999947 -0.1100000000000000006 0.6919999999999999485 -0 -0 -1 I I #
ellipse-curve $-1 0.1189999999999999669 -0.3280000000000000138 0.8790000000000000036 -1 0 0 0 0.2600000000000000089 0 1 I I #
point $-1 0.1189999999999999947 -0.1560261647808015573 0.6840000000000000524 #
coedge $-1 $397 $398 $399 $400 reversed $284 $-1 #
plane-surface $-1 0.375 -0.1100000000000000006 0.75 0 -1 0 0 0 -1 forward_v I I I I #
straight-curve $-1 0.375 -0.356999999999999984 0.4089999999999999747 -1 0 0 I I #
point $-1 0.3014999999999999902 -0.356999999999999984 0.4089999999999999747 #
straight-curve $-1 -0.2209999999999999742 -0.1560261647808015573 0.6840000000000000524 -1 -0 -0 I I #
coedge $-1 $297 $293 $401 $402 forward $133 $-1 #
edge $-1 $342 -0.04199999999999999567 $403 0.2979999999999999871 $341 $404 forward 7 unknown #
straight-curve $-1 0.1189999999999999808 -0.4899999999999999911 0.6189999999999999947 0 1 -0 I I #
point $-1 0.1189999999999999808 -0.3280000000000000138 0.6189999999999999947 #
coedge $-1 $405 $406 $297 $356 forward $361 $-1 #
edge $-1 $358 -0.1600000000000000866 $407 0 $297 $408 forward 7 unknown #
coedge $-1 $409 $298 $406 $410 forward $303 $-1 #
vertex $-1 $410 $411 #
straight-curve $-1 -0.06099999999999990152 -1.685000000000000053 0.6189999999999999947 0 1 0 I I #
face $-1 $393 $412 $3 $-1 $413 reversed single #
loop $-1 $-1 $355 $300 #
plane-surface $-1 -0.221000000000000002 -0.6979999999999999538 0.9252000000000000224 0 1 0 0 0 1 forward_v I I I I #
coedge $-1 $302 $409 $414 $415 reversed $303 $-1 #
edge $-1 $304 -0.365999999999999992 $416 -0.1280000000000000027 $302 $417 reversed 7 unknown #
face $-1 $139 $418 $3 $-1 $419 forward single #
point $-1 -0.06099999999999988765 -0.4679999999999999716 0.4939999999999999947 #
coedge $-1 $414 $334 $309 $368 forward $390 $-1 #
edge $-1 $369 -0 $416 0.3624999999999998779 $309 $420 reversed 7 unknown #
vertex $-1 $368 $421 #
straight-curve $-1 0.3014999999999999902 -0.4679999999999999716 0.1280000000000000027 0 0 1 I I #
face $-1 $422 $390 $3 $-1 $423 forward single #
plane-surface $-1 0.3014999999999999902 -0.4680000000000000271 0.2560000000000000053 0 1 0 0 0 1 forward_v I I I I #
edge $-1 $327 -0.1280000000000000027 $329 0.05449999999999999289 $317 $424 reversed 7 unknown #
straight-curve $-1 0.3014999999999999902 -0.1099999999999998757 0.375 -0 0 1 I I #
coedge $-1 $425 $426 $322 $376 forward $412 $-1 #
edge $-1 $381 -0.3800000000000000044 $378 -0.1619999999999999774 $322 $427 reversed 7 unknown #
coedge $-1 $323 $332 $425 $428 forward $336 $-1 #
vertex $-1 $428 $429 #
ellipse-curve $-1 0.1189999999999999669 -0.3280000000000000138 -0.1290000000000000036 -1 0 0 0 0.2600000000000000089 0 1 I I #
coedge $-1 $430 $325 $426 $431 reversed $201 $-1 #
vertex $-1 $376 $432 #
straight-curve $-1 0.1189999999999999947 -0.1100000000000000006 0.4079999999999999738 -0 -0 -1 I I #
point $-1 0.1189999999999999947 -0.1100000000000000006 0.115999999999999992 #
point $-1 0.3014999999999999902 -0.1100000000000000006 0.115999999999999992 #
coedge $-1 $433 $425 $331 $386 reversed $412 $-1 #
edge $-1 $391 1.342000000000000082 $387 1.356999999999999984 $385 $434 forward 7 unknown #
vertex $-1 $333 $435 #
ellipse-curve $-1 0.3014999999999999902 -0.3280000000000000138 -0.1290000000000000036 -1 -0 -0 0 0.2600000000000000089 0 1 I I #
coedge $-1 $334 $414 $433 $436 forward $390 $-1 #
loop $-1 $-1 $334 $371 #
vertex $-1 $335 $437 #
ellipse-curve $-1 0.3014999999999999902 -0.3430000000000000271 0.2560000000000000053 1 0 0 0 -0.125 0 1 I I #
face $-1 $178 $336 $3 $-1 $438 reversed single #
coedge $-1 $439 $440 $441 $442 reversed $340 $-1 #
coedge $-1 $341 $443 $444 $445 reversed $201 $-1 #
point $-1 0.1189999999999999947 -0.1100000000000000006 0.6189999999999999947 #
coedge $-1 $446 $346 $447 $448 reversed $284 $-1 #
coedge $-1 $346 $446 $449 $450 reversed $284 $-1 #
coedge $-1 $451 $452 $346 $400 forward $453 $-1 #
edge $-1 $454 0.129249999999999976 $455 0.2482499999999999429 $346 $456 reversed 7 unknown #
coedge $-1 $444 $457 $351 $402 reversed $458 $-1 #
edge $-1 $403 -0.3800000000000000044 $407 0.2079999999999999627 $401 $459 reversed 7 unknown #
vertex $-1 $402 $460 #
straight-curve $-1 0.076999999999999999 -0.1099999999999999867 0.6189999999999999947 -1 0 0 I I #
coedge $-1 $461 $355 $457 $462 forward $361 $-1 #
coedge $-1 $355 $461 $357 $410 reversed $361 $-1 #
vertex $-1 $356 $463 #
straight-curve $-1 -0.221000000000000002 -0.6979999999999999538 0.6189999999999999947 -1 0 0 I I #
coedge $-1 $363 $357 $464 $465 forward $303 $-1 #
edge $-1 $358 -0.1563999999999999835 $466 0.3316000000000000059 $406 $467 forward 7 unknown #
point $-1 -0.0609999999999999154 -0.6979999999999999538 0.6189999999999999947 #
loop $-1 $-1 $468 $360 #
plane-surface $-1 -0.221000000000000002 -0.8699999999999999956 0.1310000000000000053 0 0 1 1 0 0 forward_v I I I I #
coedge $-1 $389 $367 $363 $415 forward $390 $-1 #
edge $-1 $416 0 $469 1.570796326794896558 $363 $470 forward 7 unknown #
vertex $-1 $368 $471 #
straight-curve $-1 -0.06099999999999988765 -0.4679999999999999716 0.1280000000000000027 0 0 1 I I #
loop $-1 $303 $472 $365 #
plane-surface $-1 -0.06099999999999990152 -2.5 0 1 0 0 0 0 -1 forward_v I I I I #
straight-curve $-1 0.3014999999999999902 -0.4680000000000000271 0.2560000000000000053 1 0 0 I I #
point $-1 0.3014999999999999902 -0.4679999999999999716 0.2560000000000000053 #
face $-1 $473 $474 $3 $-1 $475 forward single #
cone-surface $-1 0.3014999999999999902 -0.3430000000000000271 0.2560000000000000053 1 0 0 0 -0.125 0 1 I I 0 1 0.125 forward I I I I #
straight-curve $-1 0.2469999999999999973 -0.1100000000000000006 0.115999999999999992 -1 0 0 I I #
coedge $-1 $385 $375 $377 $428 reversed $412 $-1 #
coedge $-1 $375 $476 $380 $431 forward $412 $-1 #
straight-curve $-1 0.1189999999999999808 -0.4899999999999999911 0.1310000000000000053 0 1 -0 I I #
edge $-1 $387 -0.5224999999999999645 $378 -0.3399999999999999689 $425 $477 forward 7 unknown #
point $-1 0.1189999999999999808 -0.3280000000000000138 0.1310000000000000053 #
coedge $-1 $478 $380 $479 $480 reversed $201 $-1 #
edge $-1 $481 -0.2979999999999999871 $381 0.04199999999999999567 $380 $482 reversed 7 unknown #
point $-1 0.1189999999999999947 -0.1100000000000000006 0.1310000000000000053 #
coedge $-1 $464 $385 $389 $436 reversed $412 $-1 #
straight-curve $-1 0.3014999999999999902 -1.685000000000000053 0.1310000000000000053 0 1 0 I I #
point $-1 0.3014999999999999902 -0.3280000000000000138 0.1310000000000000053 #
edge $-1 $469 -0.3624999999999998779 $391 0 $433 $483 forward 7 unknown #
point $-1 0.3014999999999999902 -0.3430000000000000271 0.1310000000000000053 #
cone-surface $-1 -0.221000000000000002 -0.3280000000000000138 -0.1290000000000000036 -1 0 0 0 0.2600000000000000089 0 1 I I 0 1 0.2600000000000000089 forward I I I I #
coedge $-1 $484 $394 $485 $486 reversed $340 $-1 #
coedge $-1 $394 $484 $487 $488 reversed $340 $-1 #
coedge $-1 $489 $490 $394 $442 forward $491 $-1 #
edge $-1 $492 0.2479999999999999982 $493 0.2979999999999999871 $394 $494 reversed 7 unknown #
coedge $-1 $395 $495 $496 $497 reversed $201 $-1 #
coedge $-1 $498 $401 $395 $445 forward $458 $-1 #
edge $-1 $403 -0.1015000000000000346 $499 0.05249999999999993561 $395 $500 forward 7 unknown #
coedge $-1 $398 $397 $501 $502 reversed $284 $-1 #
coedge $-1 $503 $504 $397 $448 forward $505 $-1 #
edge $-1 $506 -1.570796326794896558 $454 1.570796326794896558 $397 $507 reversed 7 unknown #
coedge $-1 $508 $509 $398 $450 forward $510 $-1 #
edge $-1 $455 -4.712388980384689674 $511 -1.570796326794896558 $398 $512 reversed 7 unknown #
coedge $-1 $513 $399 $509 $514 forward $453 $-1 #
coedge $-1 $399 $513 $503 $515 forward $453 $-1 #
loop $-1 $-1 $451 $473 #
vertex $-1 $515 $516 #
vertex $-1 $514 $517 #
straight-curve $-1 0.2457499999999999962 -0.1100000000000000006 0.1849999999999999978 1 0 0 I I #
coedge $-1 $401 $518 $405 $462 reversed $458 $-1 #
loop $-1 $519 $401 $520 #
straight-curve $-1 -0.221000000000000002 -0.4899999999999999911 0.6189999999999999947 0 1 -0 I I #
point $-1 -0.2209999999999999742 -0.1100000000000000006 0.6189999999999999947 #
coedge $-1 $406 $405 $468 $521 forward $361 $-1 #
edge $-1 $407 -0.01390000000000002345 $522 0.4740999999999999659 $457 $523 forward 7 unknown #
point $-1 -0.221000000000000002 -0.6979999999999999538 0.6189999999999999947 #
coedge $-1 $468 $433 $409 $465 reversed $412 $-1 #
edge $-1 $466 0.9870000000000000995 $469 1.342000000000000082 $464 $524 forward 7 unknown #
vertex $-1 $410 $525 #
straight-curve $-1 -0.06099999999999990152 -0.6979999999999999538 0.4626000000000000112 0 0 -1 I I #
coedge $-1 $476 $464 $461 $521 reversed $412 $-1 #
vertex $-1 $415 $526 #
ellipse-curve $-1 -0.06099999999999988765 -0.3430000000000000271 0.2560000000000000053 1 0 0 0 -0.125 0 1 I I #
point $-1 -0.06099999999999988765 -0.4679999999999999716 0.2560000000000000053 #
coedge $-1 $472 $472 $527 $528 forward $418 $-1 #
face $-1 $529 $453 $3 $-1 $530 reversed single #
loop $-1 $-1 $531 $422 #
plane-surface $-1 0.375 -0.356999999999999984 0.75 0 1 0 0 0 1 forward_v I I I I #
coedge $-1 $426 $468 $518 $532 forward $412 $-1 #
straight-curve $-1 -0.221000000000000002 -0.3280000000000000138 0.1310000000000000053 -1 0 0 I I #
coedge $-1 $495 $430 $533 $534 reversed $201 $-1 #
coedge $-1 $518 $535 $430 $480 forward $458 $-1 #
edge $-1 $536 0.2324999999999999845 $481 0.3864999999999999547 $430 $537 forward 7 unknown #
vertex $-1 $532 $538 #
straight-curve $-1 0.076999999999999999 -0.1099999999999999867 0.1310000000000000053 -1 0 0 I I #
straight-curve $-1 0.3014999999999999902 -0.3430000000000000271 0.1310000000000000053 1 0 0 I I #
coedge $-1 $440 $439 $539 $540 reversed $340 $-1 #
coedge $-1 $541 $542 $439 $486 forward $543 $-1 #
edge $-1 $544 -0.3225000000000000644 $492 -0.1425000000000000155 $439 $545 reversed 7 unknown #
coedge $-1 $535 $498 $440 $488 forward $458 $-1 #
edge $-1 $493 0.05249999999999993561 $546 0.2324999999999999845 $440 $547 reversed 7 unknown #
coedge $-1 $496 $441 $498 $548 forward $491 $-1 #
coedge $-1 $441 $496 $541 $549 reversed $491 $-1 #
loop $-1 $-1 $490 $550 #
vertex $-1 $549 $551 #
vertex $-1 $548 $552 #
straight-curve $-1 0.076999999999999999 -0.04999999999999989175 0.4650000000000000244 1 0 0 I I #
coedge $-1 $443 $478 $553 $554 reversed $201 $-1 #
coedge $-1 $490 $489 $443 $497 forward $491 $-1 #
edge $-1 $499 -0.2979999999999999871 $555 -0.2479999999999999982 $443 $556 reversed 7 unknown #
coedge $-1 $487 $444 $489 $548 reversed $458 $-1 #
vertex $-1 $548 $557 #
straight-curve $-1 -0.2209999999999999742 -0.1100000000000000006 0.51749999999999996 -0 -0 -1 I I #
coedge $-1 $558 $559 $446 $502 forward $560 $-1 #
edge $-1 $511 -0.1887499999999999734 $506 -0.06975000000000002032 $446 $561 reversed 7 unknown #
coedge $-1 $562 $447 $452 $515 reversed $505 $-1 #
coedge $-1 $447 $562 $558 $563 forward $505 $-1 #
loop $-1 $-1 $503 $529 #
vertex $-1 $563 $564 #
ellipse-curve $-1 0.1165000000000000063 -0.1100000000000000006 0.2630000000000000115 0 -1 0 0.07799999999999999989 0 0 1 I I #
coedge $-1 $565 $449 $559 $566 reversed $510 $-1 #
coedge $-1 $449 $565 $451 $514 reversed $510 $-1 #
loop $-1 $-1 $508 $567 #
vertex $-1 $566 $568 #
ellipse-curve $-1 -0.002499999999999950179 -0.1100000000000000006 0.2630000000000000115 0 -1 0 0.07799999999999999989 0 0 1 I I #
coedge $-1 $452 $451 $569 $570 forward $453 $-1 #
edge $-1 $455 -0 $571 0.2469999999999999973 $509 $572 reversed 7 unknown #
edge $-1 $573 -0.2469999999999999973 $454 0 $503 $574 forward 7 unknown #
point $-1 0.1165000000000000063 -0.1100000000000000006 0.1849999999999999978 #
point $-1 -0.002499999999999945408 -0.1100000000000000006 0.1849999999999999978 #
coedge $-1 $457 $479 $476 $532 reversed $458 $-1 #
loop $-1 $575 $576 $520 #
face $-1 $577 $458 $3 $-1 $578 forward single #
edge $-1 $522 -0 $466 0.1600000000000000866 $468 $579 reversed 7 unknown #
vertex $-1 $521 $580 #
straight-curve $-1 -0.221000000000000002 -0.6979999999999999538 0.6050999999999999712 0 0 -1 I I #
straight-curve $-1 -0.06099999999999990152 -1.685000000000000053 0.1310000000000000053 0 1 0 I I #
point $-1 -0.0609999999999999154 -0.6979999999999999538 0.1310000000000000053 #
point $-1 -0.06099999999999988765 -0.3430000000000000271 0.1310000000000000053 #
coedge $-1 $527 $527 $472 $528 reversed $581 $-1 #
edge $-1 $582 0 $582 6.283185307179586232 $527 $583 forward 7 unknown #
face $-1 $584 $505 $3 $-1 $585 reversed single #
plane-surface $-1 0.1165000000000000063 -0.1100000000000000006 0.1849999999999999978 0 0 -1 -1 0 0 forward_v I I I I #
coedge $-1 $586 $587 $588 $589 reversed $474 $-1 #
edge $-1 $522 -0.2079999999999999627 $481 0.3800000000000000044 $518 $590 forward 7 unknown #
coedge $-1 $591 $592 $478 $534 forward $593 $-1 #
edge $-1 $594 0.2730000000000000204 $536 0.3229999999999999538 $478 $595 reversed 7 unknown #
coedge $-1 $479 $487 $591 $596 reversed $458 $-1 #
vertex $-1 $596 $597 #
straight-curve $-1 -0.2209999999999999742 -0.1100000000000000006 0.51749999999999996 -0 -0 -1 I I #
point $-1 -0.2209999999999999742 -0.1100000000000000006 0.1310000000000000053 #
coedge $-1 $592 $591 $484 $540 forward $593 $-1 #
edge $-1 $546 -0.3229999999999999538 $544 -0.2730000000000000204 $484 $598 reversed 7 unknown #
coedge $-1 $553 $485 $490 $549 forward $543 $-1 #
coedge $-1 $485 $553 $592 $599 reversed $543 $-1 #
loop $-1 $-1 $542 $600 #
vertex $-1 $599 $601 #
straight-curve $-1 -0.1710000000000000409 -0.04999999999999989175 0.60750000000000004 0 0 -1 I I #
vertex $-1 $596 $602 #
straight-curve $-1 -0.2209999999999999742 -0.04999999999999989175 0.51749999999999996 0 -0 1 I I #
edge $-1 $493 -0.0600000000000001088 $499 -0 $498 $603 reversed 7 unknown #
edge $-1 $492 -0.0600000000000001088 $555 -0 $490 $604 reversed 7 unknown #
face $-1 $520 $491 $3 $-1 $605 forward single #
point $-1 -0.1709999999999999853 -0.04999999999999989175 0.4650000000000000244 #
point $-1 -0.2209999999999999742 -0.04999999999999989175 0.4650000000000000244 #
coedge $-1 $542 $541 $495 $554 forward $543 $-1 #
edge $-1 $555 0.1425000000000000155 $594 0.3225000000000000644 $495 $606 reversed 7 unknown #
vertex $-1 $549 $607 #
straight-curve $-1 0.076999999999999999 -0.1100000000000000006 0.4650000000000000244 -1 0 0 I I #
point $-1 -0.2209999999999999742 -0.1100000000000000006 0.4650000000000000244 #
coedge $-1 $588 $501 $504 $563 reversed $560 $-1 #
coedge $-1 $501 $588 $508 $566 forward $560 $-1 #
loop $-1 $-1 $558 $584 #
straight-curve $-1 0.1862500000000000266 -0.1100000000000000006 0.3410000000000000253 -1 0 0 I I #
coedge $-1 $504 $503 $586 $608 forward $505 $-1 #
edge $-1 $609 -0.2469999999999999973 $506 0 $558 $610 forward 7 unknown #
point $-1 0.1165000000000000063 -0.1100000000000000006 0.3410000000000000253 #
coedge $-1 $509 $508 $587 $611 forward $510 $-1 #
edge $-1 $612 -0.2469999999999999973 $511 0 $508 $613 forward 7 unknown #
face $-1 $614 $615 $3 $-1 $616 reversed single #
point $-1 -0.002499999999999945408 -0.1100000000000000006 0.3410000000000000253 #
coedge $-1 $587 $586 $513 $570 reversed $474 $-1 #
edge $-1 $571 -0.2482499999999999429 $573 -0.129249999999999976 $569 $617 reversed 7 unknown #
vertex $-1 $514 $618 #
straight-curve $-1 -0.002499999999999950179 -0.1100000000000000006 0.1849999999999999978 0 1 0 I I #
vertex $-1 $515 $619 #
straight-curve $-1 0.1165000000000000063 -0.1100000000000000006 0.1849999999999999978 0 1 0 I I #
loop $-1 $-1 $620 $520 #
coedge $-1 $621 $622 $623 $624 reversed $519 $-1 #
face $-1 $365 $625 $3 $-1 $626 reversed single #
plane-surface $-1 -0.221000000000000002 -0.1100000000000000006 0.2849999999999999756 -1 0 0 0 0 1 forward_v I I I I #
straight-curve $-1 -0.221000000000000002 -0.6979999999999999538 0.1310000000000000053 -1 0 0 I I #
point $-1 -0.221000000000000002 -0.6979999999999999538 0.1310000000000000053 #
loop $-1 $-1 $527 $577 #
vertex $-1 $528 $627 #
ellipse-curve $-1 -0.0609999999999999154 -0.5839999999999999636 0.375 -1 -0 -0 0 0.05800000000000000294 0 1 I I #
face $-1 $567 $560 $3 $-1 $628 reversed single #
cone-surface $-1 0.1165000000000000063 -0.1100000000000000006 0.2630000000000000115 0 1 0 0.07799999999999999989 0 0 1 I I 0 1 0.07799999999999999989 forward I I I I #
coedge $-1 $569 $531 $562 $608 reversed $474 $-1 #
coedge $-1 $531 $569 $565 $611 reversed $474 $-1 #
coedge $-1 $559 $558 $531 $589 forward $560 $-1 #
edge $-1 $609 0.06975000000000002032 $612 0.1887499999999999734 $531 $629 reversed 7 unknown #
straight-curve $-1 -0.221000000000000002 -0.4899999999999999911 0.1310000000000000053 0 1 -0 I I #
coedge $-1 $539 $533 $535 $596 forward $593 $-1 #
coedge $-1 $533 $539 $542 $599 forward $593 $-1 #
loop $-1 $-1 $591 $630 #
vertex $-1 $599 $631 #
straight-curve $-1 0.1019999999999999934 -0.1100000000000000006 0.2849999999999999756 1 0 0 I I #
edge $-1 $536 0 $546 0.0600000000000001088 $535 $632 reversed 7 unknown #
point $-1 -0.2209999999999999742 -0.1100000000000000006 0.2849999999999999756 #
straight-curve $-1 0.1019999999999999934 -0.04999999999999989175 0.2849999999999999756 -1 0 0 I I #
edge $-1 $544 -0.0600000000000001088 $594 -0 $542 $633 reversed 7 unknown #
face $-1 $550 $543 $3 $-1 $634 forward single #
point $-1 -0.1710000000000000409 -0.04999999999999989175 0.2849999999999999756 #
point $-1 -0.2209999999999999742 -0.04999999999999989175 0.2849999999999999756 #
straight-curve $-1 -0.221000000000000002 -0.1100000000000000006 0.4650000000000000244 0 1 -0 I I #
straight-curve $-1 -0.1710000000000000131 -0.1100000000000000006 0.4650000000000000244 0 1 0 I I #
plane-surface $-1 -0.221000000000000002 -0.1100000000000000006 0.4650000000000000244 0 0 1 1 0 0 forward_v I I I I #
straight-curve $-1 -0.1710000000000000409 -0.1100000000000000006 0.60750000000000004 -0 0 1 I I #
point $-1 -0.1709999999999999853 -0.1100000000000000006 0.4650000000000000244 #
edge $-1 $573 -1.570796326794896558 $609 1.570796326794896558 $586 $635 reversed 7 unknown #
vertex $-1 $563 $636 #
straight-curve $-1 0.1165000000000000063 -0.1100000000000000006 0.3410000000000000253 0 1 0 I I #
edge $-1 $612 -4.712388980384689674 $571 -1.570796326794896558 $587 $637 reversed 7 unknown #
vertex $-1 $566 $638 #
straight-curve $-1 -0.002499999999999950179 -0.1100000000000000006 0.3410000000000000253 0 1 0 I I #
face $-1 $639 $640 $3 $-1 $641 reversed single #
loop $-1 $510 $642 $567 #
cone-surface $-1 -0.002499999999999950179 -0.1100000000000000006 0.2630000000000000115 0 1 0 0.07799999999999999989 0 0 1 I I 0 1 0.07799999999999999989 forward I I I I #
straight-curve $-1 0.2457499999999999962 -0.356999999999999984 0.1849999999999999978 -1 0 0 I I #
point $-1 -0.002499999999999945408 -0.356999999999999984 0.1849999999999999978 #
point $-1 0.1165000000000000063 -0.356999999999999984 0.1849999999999999978 #
coedge $-1 $620 $620 $643 $644 reversed $575 $-1 #
coedge $-1 $645 $576 $646 $647 reversed $519 $-1 #
coedge $-1 $576 $645 $648 $649 reversed $519 $-1 #
coedge $-1 $650 $651 $576 $624 forward $652 $-1 #
edge $-1 $653 0 $654 3.141592653589793116 $576 $655 forward 7 unknown #
loop $-1 $581 $643 $577 #
cone-surface $-1 -0.221000000000000002 -0.5839999999999999636 0.375 1 0 0 0 0.05800000000000000294 0 1 I I 0 1 0.05800000000000000294 forward I I I I #
point $-1 -0.06099999999999990152 -0.5260000000000000231 0.375 #
plane-surface $-1 -0.002499999999999950179 -0.1100000000000000006 0.3410000000000000253 0 0 1 1 0 0 forward_v I I I I #
straight-curve $-1 0.1862500000000000266 -0.356999999999999984 0.3410000000000000253 1 0 0 I I #
face $-1 $600 $593 $3 $-1 $656 forward single #
point $-1 -0.1710000000000000409 -0.1100000000000000006 0.2849999999999999756 #
straight-curve $-1 -0.221000000000000002 -0.1100000000000000006 0.2849999999999999756 -0 -1 -0 I I #
straight-curve $-1 -0.1710000000000000131 -0.1100000000000000006 0.2849999999999999756 -0 1 0 I I #
plane-surface $-1 -0.1710000000000000131 -0.1100000000000000006 0.4650000000000000244 1 0 0 0 0 -1 forward_v I I I I #
ellipse-curve $-1 0.1165000000000000063 -0.356999999999999984 0.2630000000000000115 0 1 0 0.07799999999999999989 0 0 1 I I #
point $-1 0.1165000000000000063 -0.356999999999999984 0.3410000000000000253 #
ellipse-curve $-1 -0.002499999999999950179 -0.356999999999999984 0.2630000000000000115 0 1 0 0.07799999999999999989 0 0 1 I I #
point $-1 -0.002499999999999945408 -0.356999999999999984 0.3410000000000000253 #
face $-1 $657 $658 $3 $-1 $659 forward single #
loop $-1 $660 $661 $614 #
cone-surface $-1 -0.3009999999999999898 -0.2760000000000000231 0.2630000000000000115 1 0 0 0 0.04750000000000000056 0 1 I I 0 1 0.04750000000000000056 forward I I I I #
coedge $-1 $662 $662 $663 $664 reversed $615 $-1 #
coedge $-1 $643 $643 $620 $644 forward $625 $-1 #
edge $-1 $665 -3.141592653589793116 $665 3.141592653589793116 $620 $666 forward 7 unknown #
coedge $-1 $622 $621 $667 $668 reversed $519 $-1 #
coedge $-1 $669 $670 $621 $647 forward $671 $-1 #
edge $-1 $672 -0.09250000000000002665 $653 0.09749999999999992006 $621 $673 forward 7 unknown #
coedge $-1 $674 $675 $622 $649 forward $676 $-1 #
edge $-1 $654 -0.002499999999999946709 $677 0.1875 $622 $678 forward 7 unknown #
coedge $-1 $679 $623 $675 $680 forward $652 $-1 #
coedge $-1 $623 $679 $669 $681 forward $652 $-1 #
loop $-1 $-1 $650 $682 #
vertex $-1 $681 $683 #
vertex $-1 $680 $684 #
ellipse-curve $-1 -0.221000000000000002 -0.2755000000000000226 0.2800000000000000266 -1 0 0 0 0.1000000000000000056 0 1 I I #
plane-surface $-1 -0.1710000000000000131 -0.1100000000000000006 0.2849999999999999756 0 0 -1 -1 0 0 forward_v I I I I #
face $-1 $685 $671 $3 $-1 $686 forward single #
loop $-1 $687 $688 $639 #
plane-surface $-1 -0.3009999999999999898 -0.1100000000000000006 0.2849999999999999756 -1 0 0 0 0 1 forward_v I I I I #
loop $-1 $-1 $689 $614 #
coedge $-1 $661 $661 $688 $690 forward $640 $-1 #
coedge $-1 $642 $642 $689 $691 reversed $615 $-1 #
coedge $-1 $689 $689 $642 $664 forward $660 $-1 #
edge $-1 $692 -0.07392183580022798628 $693 0.07392183580022795852 $642 $694 reversed 7 unknown #
vertex $-1 $644 $695 #
ellipse-curve $-1 -0.221000000000000002 -0.5839999999999999636 0.375 -1 0 0 0 0.05800000000000000294 0 1 I I #
coedge $-1 $696 $697 $645 $668 forward $698 $-1 #
edge $-1 $677 -3.141592653589793116 $672 0 $645 $699 forward 7 unknown #
coedge $-1 $700 $646 $651 $681 reversed $671 $-1 #
coedge $-1 $646 $700 $696 $701 forward $671 $-1 #
loop $-1 $-1 $669 $657 #
vertex $-1 $701 $702 #
straight-curve $-1 -0.221000000000000002 -0.1754999999999999893 0.3774999999999999467 0 0 -1 I I #
coedge $-1 $703 $648 $697 $704 reversed $676 $-1 #
coedge $-1 $648 $703 $650 $680 reversed $676 $-1 #
loop $-1 $-1 $674 $705 #
vertex $-1 $704 $706 #
straight-curve $-1 -0.221000000000000002 -0.3755000000000000004 0.2824999999999999734 0 0 1 I I #
coedge $-1 $651 $650 $707 $708 forward $652 $-1 #
edge $-1 $654 0 $709 0.07999999999999998779 $675 $710 forward 7 unknown #
edge $-1 $711 -0.07999999999999998779 $653 -0 $669 $712 reversed 7 unknown #
face $-1 $630 $652 $3 $-1 $713 forward single #
point $-1 -0.221000000000000002 -0.1754999999999999893 0.2800000000000000266 #
point $-1 -0.221000000000000002 -0.3755000000000000004 0.2800000000000000266 #
face $-1 $705 $698 $3 $-1 $714 forward single #
plane-surface $-1 -0.221000000000000002 -0.1754999999999999893 0.4699999999999999734 0 1 0 0 0 1 forward_v I I I I #
loop $-1 $-1 $715 $639 #
coedge $-1 $688 $688 $661 $690 reversed $658 $-1 #
coedge $-1 $663 $663 $662 $691 forward $660 $-1 #
edge $-1 $716 0 $716 6.283185307179586232 $688 $717 forward 7 unknown #
edge $-1 $693 -0.2217655074006839866 $692 -0.07392183580022800016 $662 $718 reversed 7 unknown #
vertex $-1 $664 $719 #
vertex $-1 $691 $720 #
intcurve-curve $-1 forward { surfintcur full nubs 3 open 9 
	-0.07392183580022795852 3 -0.05550574916219480626 2 -0.03708966252416168174 2 -0.01854483126208084087 2 0 3 
	0.01854483126208084087 2 0.03708966252416162623 2 0.05550574916219480626 2 0.07392183580022798628 3 
	-0.0804999999999999466 -0.2285000000000000364 0.2630000000000000115 
	-0.0804999999999999466 -0.2285000000000000364 0.25686130445398897 
	-0.07971265920541539818 -0.2297609461424889032 0.2504214958659188306 
	-0.07687980932771378006 -0.234664648258798042 0.2387583536179274379 
	-0.07486030846680326312 -0.2382994707091817266 0.2335253850780962814 
	-0.07092192475046271705 -0.2465541382620297095 0.2252707175252483263 
	-0.06870703009811182649 -0.2517793813677530745 0.2216557958238080661 
	-0.06539262454536046154 -0.2634005041696159122 0.2167697834189269701 
	-0.06436881282197029486 -0.2698183895793063725 0.2155000000000000249 
	-0.06436881282197029486 -0.2760000000000000231 0.2155000000000000249 
	-0.06436881282197029486 -0.2821816104206936182 0.2155000000000000249 
	-0.0653926245453604893 -0.2885994958303840785 0.2167697834189269424 
	-0.06870703009811185424 -0.3002206186322469716 0.2216557958238080661 
	-0.07092192475046268929 -0.3054458617379702812 0.2252707175252482985 
	-0.07486030846680326312 -0.3137005292908182641 0.2335253850780962814 
	-0.07687980932771379394 -0.3173353517412020319 0.2387583536179274657 
	-0.07971265920541539818 -0.3222390538575111152 0.2504214958659188306 
	-0.0804999999999999466 -0.3235000000000000098 0.2568613044539889145 
	-0.0804999999999999466 -0.3235000000000000098 0.2630000000000000115 
	0.0001168973773134332668 
	cone -0.3009999999999999898 -0.2760000000000000231 0.2630000000000000115 1 0 0 0 0.04750000000000000056 0 1 I I 0 1 0.04750000000000000056 forward I I I I 
	cone -0.002499999999999950179 -0.1100000000000000006 0.2630000000000000115 0 1 0 0.07799999999999999989 0 0 1 I I -0 -1 0.07799999999999999989 forward I I I I 
	nullbs 
	nullbs 
	I I 
	0 
	0 
	0 
	} I I #
point $-1 -0.221000000000000002 -0.6420000000000000151 0.375 #
coedge $-1 $721 $667 $670 $701 reversed $698 $-1 #
coedge $-1 $667 $721 $674 $704 forward $698 $-1 #
loop $-1 $-1 $696 $685 #
ellipse-curve $-1 -0.221000000000000002 -0.2755000000000000226 0.4699999999999999734 -1 0 0 0 0.1000000000000000056 0 1 I I #
coedge $-1 $670 $669 $722 $723 forward $671 $-1 #
edge $-1 $724 -0.07999999999999998779 $672 -0 $696 $725 reversed 7 unknown #
point $-1 -0.221000000000000002 -0.1755000000000000171 0.4699999999999999734 #
coedge $-1 $675 $674 $726 $727 forward $676 $-1 #
edge $-1 $728 -0.07999999999999998779 $677 -0 $674 $729 reversed 7 unknown #
face $-1 $682 $676 $3 $-1 $730 forward single #
point $-1 -0.221000000000000002 -0.3755000000000000004 0.4699999999999999734 #
coedge $-1 $726 $722 $679 $708 reversed $687 $-1 #
edge $-1 $709 -3.141592653589793116 $711 -0 $707 $731 reversed 7 unknown #
vertex $-1 $680 $732 #
straight-curve $-1 -0.221000000000000002 -0.3755000000000000004 0.2800000000000000266 -1 0 0 I I #
vertex $-1 $681 $733 #
straight-curve $-1 -0.221000000000000002 -0.1754999999999999893 0.2800000000000000266 -1 0 0 I I #
cone-surface $-1 -0.221000000000000002 -0.2755000000000000226 0.2800000000000000266 -1 0 0 0 0.1000000000000000056 0 1 I I 0 1 0.1000000000000000056 forward I I I I #
cone-surface $-1 -0.221000000000000002 -0.2755000000000000226 0.4699999999999999734 -1 0 0 0 0.1000000000000000056 0 1 I I 0 1 0.1000000000000000056 forward I I I I #
coedge $-1 $722 $726 $721 $734 reversed $687 $-1 #
vertex $-1 $690 $735 #
ellipse-curve $-1 -0.3009999999999999898 -0.2760000000000000231 0.2630000000000000115 -1 0 0 0 0.04750000000000000056 0 1 I I #
intcurve-curve $-1 forward { surfintcur full nubs 3 open 9 
	0.07392183580022800016 3 0.0923379224382611663 2 0.1107540090762943324 2 0.1292988403383751594 2 0.1478436716004560003 2 
	0.1663885028625368134 2 0.1849333341246176543 2 0.2033494207626508343 2 0.2217655074006839866 3 
	-0.0804999999999999466 -0.3235000000000000098 0.2630000000000000115 
	-0.0804999999999999466 -0.3235000000000000098 0.2691386955460110531 
	-0.07971265920541542593 -0.3222390538575111707 0.2755785041340811925 
	-0.07687980932771380782 -0.3173353517412020319 0.2872416463820726129 
	-0.07486030846680327699 -0.3137005292908182641 0.2924746149219037417 
	-0.07092192475046271705 -0.3054458617379702812 0.3007292824747517246 
	-0.06870703009811181261 -0.3002206186322469716 0.304344204176191957 
	-0.06539262454536044766 -0.288599495830384134 0.3092302165810730252 
	-0.06436881282197029486 -0.2821816104206936737 0.3104999999999999982 
	-0.06436881282197029486 -0.2698183895793063725 0.3104999999999999982 
	-0.06539262454536046154 -0.2634005041696159677 0.3092302165810730252 
	-0.06870703009811181261 -0.25177938136775313 0.304344204176191957 
	-0.07092192475046271705 -0.246554138262029765 0.3007292824747517246 
	-0.07486030846680327699 -0.2382994707091817543 0.2924746149219036861 
	-0.07687980932771380782 -0.2346646482587980143 0.2872416463820725019 
	-0.07971265920541541206 -0.2297609461424888755 0.275578504134081137 
	-0.0804999999999999466 -0.2285000000000000364 0.2691386955460110531 
	-0.0804999999999999466 -0.2285000000000000364 0.2630000000000000115 
	0.0001168973773134332668 
	cone -0.3009999999999999898 -0.2760000000000000231 0.2630000000000000115 1 0 0 0 0.04750000000000000056 0 1 I I 0 1 0.04750000000000000056 forward I I I I 
	cone -0.002499999999999950179 -0.1100000000000000006 0.2630000000000000115 0 1 0 0.07799999999999999989 0 0 1 I I -0 -1 0.07799999999999999989 forward I I I I 
	nullbs 
	nullbs 
	I I 
	0 
	0 
	0 
	} I I #
point $-1 -0.08050000000000000211 -0.3235000000000000098 0.2630000000000000115 #
point $-1 -0.08049999999999990496 -0.2285000000000000087 0.2630000000000000115 #
coedge $-1 $697 $696 $715 $734 forward $698 $-1 #
coedge $-1 $707 $715 $700 $723 reversed $687 $-1 #
edge $-1 $711 -0.09749999999999992006 $724 0.09250000000000002665 $722 $736 reversed 7 unknown #
vertex $-1 $701 $737 #
straight-curve $-1 -0.221000000000000002 -0.1754999999999999893 0.4699999999999999734 -1 0 0 I I #
coedge $-1 $715 $707 $703 $727 reversed $687 $-1 #
edge $-1 $728 -0.1875 $709 0.002499999999999946709 $726 $738 reversed 7 unknown #
vertex $-1 $704 $739 #
straight-curve $-1 -0.221000000000000002 -0.3755000000000000004 0.4699999999999999734 -1 0 0 I I #
plane-surface $-1 -0.221000000000000002 -0.3755000000000000004 0.2800000000000000266 0 -1 0 0 0 -1 forward_v I I I I #
ellipse-curve $-1 -0.3009999999999999898 -0.2755000000000000226 0.2800000000000000266 -1 0 0 0 0.1000000000000000056 0 1 I I #
point $-1 -0.3009999999999999898 -0.3755000000000000004 0.2800000000000000266 #
point $-1 -0.3009999999999999898 -0.1754999999999999893 0.2800000000000000266 #
edge $-1 $724 -0 $728 3.141592653589793116 $715 $740 reversed 7 unknown #
point $-1 -0.3009999999999999898 -0.2285000000000000087 0.2630000000000000115 #
straight-curve $-1 -0.3009999999999999898 -0.1754999999999999893 0.3774999999999999467 0 0 -1 I I #
point $-1 -0.3009999999999999898 -0.1755000000000000171 0.4699999999999999734 #
straight-curve $-1 -0.3009999999999999898 -0.3755000000000000004 0.2824999999999999734 0 0 1 I I #
point $-1 -0.3009999999999999898 -0.3755000000000000004 0.4699999999999999734 #
ellipse-curve $-1 -0.3009999999999999898 -0.2755000000000000226 0.4699999999999999734 -1 0 0 0 0.1000000000000000056 0 1 I I #
End-of-ACIS-data 