  0
SECTION
  2
HEADER
  9
$ACADVER
  1
AC1009
  9
$INSBASE
 10
0.0
 20
0.0
 30
0.0
  9
$EXTMIN
 10
-2.0
 20
-2.0
 30
-17.217798
  9
$EXTMAX
 10
18.0
 20
18.0
 30
10.0
  9
$LIMMIN
 10
0.0
 20
0.0
  9
$LIMMAX
 10
12.0
 20
9.0
  9
$ORTHOMODE
 70
     0
  9
$REGENMODE
 70
     1
  9
$FILLMODE
 70
     1
  9
$QTEXTMODE
 70
     0
  9
$MIRRTEXT
 70
     1
  9
$DRAGMODE
 70
     2
  9
$LTSCALE
 40
1.0
  9
$OSMODE
 70
     0
  9
$ATTMODE
 70
     1
  9
$TEXTSIZE
 40
0.2
  9
$TRACEWID
 40
0.05
  9
$TEXTSTYLE
  7
STANDARD
  9
$CLAYER
  8
0
  9
$CELTYPE
  6
BYLAYER
  9
$CECOLOR
 62
   256
  9
$DIMSCALE
 40
1.0
  9
$DIMASZ
 40
0.18
  9
$DIMEXO
 40
0.0625
  9
$DIMDLI
 40
0.38
  9
$DIMRND
 40
0.0
  9
$DIMDLE
 40
0.0
  9
$DIMEXE
 40
0.18
  9
$DIMTP
 40
0.0
  9
$DIMTM
 40
0.0
  9
$DIMTXT
 40
0.18
  9
$DIMCEN
 40
0.09
  9
$DIMTSZ
 40
0.0
  9
$DIMTOL
 70
     0
  9
$DIMLIM
 70
     0
  9
$DIMTIH
 70
     1
  9
$DIMTOH
 70
     1
  9
$DIMSE1
 70
     0
  9
$DIMSE2
 70
     0
  9
$DIMTAD
 70
     0
  9
$DIMZIN
 70
     0
  9
$DIMBLK
  1

  9
$DIMASO
 70
     1
  9
$DIMSHO
 70
     1
  9
$DIMPOST
  1

  9
$DIMAPOST
  1

  9
$DIMALT
 70
     0
  9
$DIMALTD
 70
     2
  9
$DIMALTF
 40
25.4
  9
$DIMLFAC
 40
1.0
  9
$DIMTOFL
 70
     0
  9
$DIMTVP
 40
0.0
  9
$DIMTIX
 70
     0
  9
$DIMSOXD
 70
     0
  9
$DIMSAH
 70
     0
  9
$DIMBLK1
  1

  9
$DIMBLK2
  1

  9
$DIMSTYLE
  2
*UNNAMED
  9
$DIMCLRD
 70
     0
  9
$DIMCLRE
 70
     0
  9
$DIMCLRT
 70
     0
  9
$DIMTFAC
 40
1.0
  9
$DIMGAP
 40
0.09
  9
$LUNITS
 70
     2
  9
$LUPREC
 70
     4
  9
$SKETCHINC
 40
0.1
  9
$FILLETRAD
 40
0.0
  9
$AUNITS
 70
     0
  9
$AUPREC
 70
     0
  9
$MENU
  1
acad
  9
$ELEVATION
 40
0.0
  9
$PELEVATION
 40
0.0
  9
$THICKNESS
 40
0.0
  9
$LIMCHECK
 70
     0
  9
$BLIPMODE
 70
     1
  9
$CHAMFERA
 40
0.0
  9
$CHAMFERB
 40
0.0
  9
$SKPOLY
 70
     0
  9
$TDCREATE
 40
2449411.016549085
  9
$TDUPDATE
 40
2449411.019231076
  9
$TDINDWG
 40
0.0026819907
  9
$TDUSRTIMER
 40
0.0026819907
  9
$USRTIMER
 70
     1
  9
$ANGBASE
 50
0.0
  9
$ANGDIR
 70
     0
  9
$PDMODE
 70
     0
  9
$PDSIZE
 40
0.0
  9
$PLINEWID
 40
0.0
  9
$COORDS
 70
     1
  9
$SPLFRAME
 70
     0
  9
$SPLINETYPE
 70
     6
  9
$SPLINESEGS
 70
     8
  9
$ATTDIA
 70
     0
  9
$ATTREQ
 70
     1
  9
$HANDLING
 70
     1
  9
$HANDSEED
  5
77
  9
$SURFTAB1
 70
     6
  9
$SURFTAB2
 70
     6
  9
$SURFTYPE
 70
     6
  9
$SURFU
 70
     6
  9
$SURFV
 70
     6
  9
$UCSNAME
  2

  9
$UCSORG
 10
0.0
 20
0.0
 30
0.0
  9
$UCSXDIR
 10
1.0
 20
0.0
 30
0.0
  9
$UCSYDIR
 10
0.0
 20
1.0
 30
0.0
  9
$PUCSNAME
  2

  9
$PUCSORG
 10
0.0
 20
0.0
 30
0.0
  9
$PUCSXDIR
 10
1.0
 20
0.0
 30
0.0
  9
$PUCSYDIR
 10
0.0
 20
1.0
 30
0.0
  9
$USERI1
 70
     0
  9
$USERI2
 70
     0
  9
$USERI3
 70
     0
  9
$USERI4
 70
     0
  9
$USERI5
 70
     0
  9
$USERR1
 40
0.0
  9
$USERR2
 40
0.0
  9
$USERR3
 40
0.0
  9
$USERR4
 40
0.0
  9
$USERR5
 40
0.0
  9
$WORLDVIEW
 70
     1
  9
$SHADEDGE
 70
     3
  9
$SHADEDIF
 70
    70
  9
$TILEMODE
 70
     1
  9
$MAXACTVP
 70
    16
  9
$PINSBASE
 10
0.0
 20
0.0
 30
0.0
  9
$PLIMCHECK
 70
     0
  9
$PEXTMIN
 10
1.000000E+20
 20
1.000000E+20
 30
1.000000E+20
  9
$PEXTMAX
 10
-1.000000E+20
 20
-1.000000E+20
 30
-1.000000E+20
  9
$PLIMMIN
 10
0.0
 20
0.0
  9
$PLIMMAX
 10
12.0
 20
9.0
  9
$UNITMODE
 70
     0
  9
$VISRETAIN
 70
     0
  9
$PLINEGEN
 70
     0
  9
$PSLTSCALE
 70
     1
  9
$TREEDEPTH
 70
  3020
  9
$DWGCODEPAGE
  3
ascii
  0
ENDSEC
  0
SECTION
  2
TABLES
  0
TABLE
  2
VPORT
 70
     2
  0
VPORT
  2
*ACTIVE
 70
     0
 10
0.0
 20
0.0
 11
1.0
 21
1.0
 12
8.856741
 22
-5.864085
 13
0.0
 23
0.0
 14
1.0
 24
1.0
 15
0.0
 25
0.0
 16
1.0
 26
2.0
 36
0.5
 17
0.0
 27
0.0
 37
0.0
 40
32.417251
 41
1.594883
 42
50.0
 43
0.0
 44
0.0
 50
0.0
 51
0.0
 71
     0
 72
   100
 73
     1
 74
     1
 75
     0
 76
     0
 77
     0
 78
     0
  0
ENDTAB
  0
TABLE
  2
LTYPE
 70
     1
  0
LTYPE
  2
CONTINUOUS
 70
    64
  3
Solid line
 72
    65
 73
     0
 40
0.0
  0
ENDTAB
  0
TABLE
  2
LAYER
 70
     3
  0
LAYER
  2
0
 70
    64
 62
     7
  6
CONTINUOUS
  0
LAYER
  2
ASHADE
 70
    64
 62
     7
  6
CONTINUOUS
  0
LAYER
  2
AME_FRZ
 70
    65
 62
     7
  6
CONTINUOUS
  0
ENDTAB
  0
TABLE
  2
STYLE
 70
     2
  0
STYLE
  2
STANDARD
 70
     0
 40
0.0
 41
1.0
 50
0.0
 71
     0
 42
0.2
  3
txt
  4

  0
STYLE
  2
ASHADE
 70
     0
 40
0.2
 41
1.0
 50
0.0
 71
     0
 42
0.2
  3
simplex
  4

  0
ENDTAB
  0
TABLE
  2
VIEW
 70
     0
  0
ENDTAB
  0
TABLE
  2
UCS
 70
     0
  0
ENDTAB
  0
TABLE
  2
APPID
 70
     5
  0
APPID
  2
ACAD
 70
    64
  0
APPID
  2
AVE_RENDER
 70
    64
  0
APPID
  2
AME_SOL
 70
    64
  0
APPID
  2
AVE_INVOKE
 70
    64
  0
ENDTAB
  0
TABLE
  2
DIMSTYLE
 70
     0
  0
ENDTAB
  0
ENDSEC
  0
SECTION
  2
BLOCKS
  0
BLOCK
  8
0
  5
1
  2
AVE_RENDER
 70
    64
 10
0.0
 20
0.0
 30
0.0
  1
AVE_RENDER
  3
AVE_RENDER
  0
ENDBLK
  8
0
  5
2
  0
BLOCK
  8
0
  5
6
  2
AME_NIL
 70
    64
 10
0.0
 20
0.0
 30
0.0
  1
AME_NIL
  3
AME_NIL
  0
ENDBLK
  8
0
  5
7
  0
BLOCK
  8
0
  5
9
  2
AME_SOL
 70
    64
 10
0.0
 20
0.0
 30
0.0
  1
AME_SOL
  3
AME_SOL
  0
ENDBLK
  8
0
  5
A
  0
BLOCK
  8
0
  5
2A
  2
*U5
 70
    65
 10
0.0
 20
0.0
 30
0.0
  1
*U
  3
*U
  0
LINE
  8
0
 62
     7
  5
2B
 10
17.0
 20
13.0
 30
0.0
 11
17.0
 21
13.0
 31
10.0
1001
AME_SOL
1070
     1
1071
       42
  0
LINE
  8
0
 62
     7
  5
2C
 10
17.0
 20
13.0
 30
10.0
 11
17.0
 21
0.0
 31
10.0
1001
AME_SOL
1070
     1
1071
       41
  0
LINE
  8
0
 62
     7
  5
2D
 10
0.0
 20
13.0
 30
10.0
 11
17.0
 21
13.0
 31
10.0
1001
AME_SOL
1070
     1
1071
       40
  0
LINE
  8
0
 62
     7
  5
2E
 10
0.0
 20
13.0
 30
7.0
 11
0.0
 21
13.0
 31
10.0
1001
AME_SOL
1070
     1
1071
       39
  0
LINE
  8
0
 62
     7
  5
2F
 10
0.0
 20
13.0
 30
0.0
 11
0.0
 21
13.0
 31
3.0
1001
AME_SOL
1070
     1
1071
       38
  0
LINE
  8
0
 62
     7
  5
30
 10
0.0
 20
13.0
 30
10.0
 11
0.0
 21
0.0
 31
10.0
1001
AME_SOL
1070
     1
1071
       37
  0
LINE
  8
0
 62
     7
  5
31
 10
0.0
 20
0.0
 30
0.0
 11
0.0
 21
0.0
 31
10.0
1001
AME_SOL
1070
     1
1071
       36
  0
LINE
  8
0
 62
     7
  5
32
 10
17.0
 20
0.0
 30
10.0
 11
17.0
 21
0.0
 31
0.0
1001
AME_SOL
1070
     1
1071
       35
  0
LINE
  8
0
 62
     7
  5
33
 10
0.0
 20
0.0
 30
10.0
 11
17.0
 21
0.0
 31
10.0
1001
AME_SOL
1070
     1
1071
       34
  0
LINE
  8
0
 62
     7
  5
34
 10
0.0
 20
0.0
 30
0.0
 11
17.0
 21
0.0
 31
0.0
1001
AME_SOL
1070
     1
1071
       33
  0
LINE
  8
0
 62
     7
  5
35
 10
0.0
 20
13.0
 30
0.0
 11
0.0
 21
0.0
 31
0.0
1001
AME_SOL
1070
     1
1071
       32
  0
LINE
  8
0
 62
     7
  5
36
 10
17.0
 20
0.0
 30
0.0
 11
17.0
 21
13.0
 31
0.0
1001
AME_SOL
1070
     1
1071
       31
  0
LINE
  8
0
 62
     7
  5
37
 10
17.0
 20
13.0
 30
0.0
 11
0.0
 21
13.0
 31
0.0
1001
AME_SOL
1070
     1
1071
       30
  0
LINE
  8
0
 62
     7
  5
38
 10
14.0
 20
0.0
 30
7.0
 11
2.0
 21
0.0
 31
7.0
1001
AME_SOL
1070
     1
1071
       29
  0
LINE
  8
0
 62
     7
  5
39
 10
0.0
 20
2.0
 30
7.0
 11
0.0
 21
13.0
 31
7.0
1001
AME_SOL
1070
     1
1071
       28
  0
LINE
  8
0
 62
     7
  5
3A
 10
17.0
 20
12.358899
 30
7.0
 11
17.0
 21
3.641101
 31
7.0
1001
AME_SOL
1070
     1
1071
       27
  0
LINE
  8
0
 62
     7
  5
3B
 10
0.0
 20
13.0
 30
7.0
 11
16.660254
 21
13.0
 31
7.0
1001
AME_SOL
1070
     1
1071
       26
  0
LINE
  8
0
 62
     7
  5
3C
 10
2.0
 20
0.0
 30
3.0
 11
14.0
 21
0.0
 31
3.0
1001
AME_SOL
1070
     1
1071
       25
  0
LINE
  8
0
 62
     7
  5
3D
 10
0.0
 20
13.0
 30
3.0
 11
0.0
 21
2.0
 31
3.0
1001
AME_SOL
1070
     1
1071
       24
  0
LINE
  8
0
 62
     7
  5
3E
 10
17.0
 20
3.641101
 30
3.0
 11
17.0
 21
12.358899
 31
3.0
1001
AME_SOL
1070
     1
1071
       23
  0
LINE
  8
0
 62
     7
  5
3F
 10
16.660254
 20
13.0
 30
3.0
 11
0.0
 21
13.0
 31
3.0
1001
AME_SOL
1070
     1
1071
       22
  0
ARC
  8
0
 62
     7
  5
40
 10
8.0
 20
8.0
 30
3.0
 40
10.0
 50
25.841933
 51
30.0
1001
AME_SOL
1070
     1
1071
       21
  0
ARC
  8
0
 62
     7
  5
41
 10
8.0
 20
8.0
 30
3.0
 40
10.0
 50
306.869898
 51
334.158067
1001
AME_SOL
1070
     1
1071
       20
  0
ARC
  8
0
 62
     7
  5
42
 10
8.0
 20
8.0
 30
3.0
 40
10.0
 50
216.869898
 51
233.130102
1001
AME_SOL
1070
     1
1071
       19
  0
LINE
  8
0
 62
     7
  5
43
 10
2.0
 20
0.0
 30
3.0
 11
2.0
 21
0.0
 31
7.0
1001
AME_SOL
1070
     1
1071
       18
  0
LINE
  8
0
 62
     7
  5
44
 10
14.0
 20
0.0
 30
3.0
 11
14.0
 21
0.0
 31
7.0
1001
AME_SOL
1070
     1
1071
       17
  0
LINE
  8
0
 62
     7
  5
45
 10
0.0
 20
2.0
 30
3.0
 11
0.0
 21
2.0
 31
7.0
1001
AME_SOL
1070
     1
1071
       16
  0
LINE
  8
0
 62
     7
  5
46
 10
17.0
 20
3.641101
 30
3.0
 11
17.0
 21
3.641101
 31
7.0
1001
AME_SOL
1070
     1
1071
       15
  0
LINE
  8
0
 62
     7
  5
47
 10
17.0
 20
12.358899
 30
3.0
 11
17.0
 21
12.358899
 31
7.0
1001
AME_SOL
1070
     1
1071
       14
  0
LINE
  8
0
 62
     7
  5
48
 10
16.660254
 20
13.0
 30
3.0
 11
16.660254
 21
13.0
 31
7.0
1001
AME_SOL
1070
     1
1071
       13
  0
ARC
  8
0
 62
     7
  5
49
 10
8.0
 20
8.0
 30
7.0
 40
10.0
 50
25.841933
 51
30.0
1001
AME_SOL
1070
     1
1071
       12
  0
ARC
  8
0
 62
     7
  5
4A
 10
8.0
 20
8.0
 30
7.0
 40
10.0
 50
306.869898
 51
334.158067
1001
AME_SOL
1070
     1
1071
       11
  0
ARC
  8
0
 62
     7
  5
4B
 10
8.0
 20
8.0
 30
7.0
 40
10.0
 50
216.869898
 51
233.130102
1001
AME_SOL
1070
     1
1071
       10
  0
ENDBLK
  8
0
  5
4C
  0
BLOCK
  8
0
  5
50
  2
AME_JNK
 70
     0
 10
0.0
 20
0.0
 30
0.0
  1
AME_JNK
  3
AME_JNK
  0
ENDBLK
  8
0
  5
51
  0
BLOCK
  8
0
  5
53
  2
SOLAXES
 70
     0
 10
0.0
 20
0.0
 30
0.0
  1
SOLAXES
  3
SOLAXES
  0
LINE
  8
0
 62
     0
  5
54
 10
0.0
 20
0.0
 30
0.0
 11
6.024948
 21
0.0
 31
0.0
  0
LINE
  8
0
 62
     0
  5
55
 10
0.0
 20
0.0
 30
0.0
 11
0.0
 21
6.024948
 31
0.0
  0
LINE
  8
0
 62
     0
  5
56
 10
0.0
 20
0.0
 30
0.0
 11
0.0
 21
0.0
 31
6.024948
  0
CIRCLE
  8
0
 62
     0
  5
57
 10
0.0
 20
0.0
 30
5.422453
 40
0.301247
210
1.0
220
0.0
230
0.0
  0
LINE
  8
0
 62
     0
  5
58
 10
5.422453
 20
0.301247
 30
0.0
 11
6.024948
 21
0.0
 31
0.0
  0
LINE
  8
0
 62
     0
  5
59
 10
5.422453
 20
0.0
 30
0.301247
 11
6.024948
 21
0.0
 31
0.0
  0
LINE
  8
0
 62
     0
  5
5A
 10
5.422453
 20
-0.301247
 30
0.0
 11
6.024948
 21
0.0
 31
0.0
  0
LINE
  8
0
 62
     0
  5
5B
 10
5.422453
 20
0.0
 30
-0.301247
 11
6.024948
 21
0.0
 31
0.0
  0
CIRCLE
  8
0
 62
     0
  5
5C
 10
0.0
 20
0.0
 30
5.422453
 40
0.301247
210
0.0
220
1.0
230
0.0
  0
LINE
  8
0
 62
     0
  5
5D
 10
0.301247
 20
5.422453
 30
0.0
 11
0.0
 21
6.024948
 31
0.0
  0
LINE
  8
0
 62
     0
  5
5E
 10
0.0
 20
5.422453
 30
0.301247
 11
0.0
 21
6.024948
 31
0.0
  0
LINE
  8
0
 62
     0
  5
5F
 10
-0.301247
 20
5.422453
 30
0.0
 11
0.0
 21
6.024948
 31
0.0
  0
LINE
  8
0
 62
     0
  5
60
 10
0.0
 20
5.422453
 30
-0.301247
 11
0.0
 21
6.024948
 31
0.0
  0
CIRCLE
  8
0
 62
     0
  5
61
 10
0.0
 20
0.0
 30
4.819959
 40
0.301247
210
0.0
220
1.0
230
0.0
  0
LINE
  8
0
 62
     0
  5
62
 10
0.301247
 20
4.819959
 30
0.0
 11
0.0
 21
5.422453
 31
0.0
  0
LINE
  8
0
 62
     0
  5
63
 10
0.0
 20
4.819959
 30
0.301247
 11
0.0
 21
5.422453
 31
0.0
  0
LINE
  8
0
 62
     0
  5
64
 10
-0.301247
 20
4.819959
 30
0.0
 11
0.0
 21
5.422453
 31
0.0
  0
LINE
  8
0
 62
     0
  5
65
 10
0.0
 20
4.819959
 30
-0.301247
 11
0.0
 21
5.422453
 31
0.0
  0
CIRCLE
  8
0
 62
     0
  5
66
 10
0.0
 20
0.0
 30
5.422453
 40
0.301247
  0
LINE
  8
0
 62
     0
  5
67
 10
0.301247
 20
0.0
 30
5.422453
 11
0.0
 21
0.0
 31
6.024948
  0
LINE
  8
0
 62
     0
  5
68
 10
0.0
 20
0.301247
 30
5.422453
 11
0.0
 21
0.0
 31
6.024948
  0
LINE
  8
0
 62
     0
  5
69
 10
-0.301247
 20
0.0
 30
5.422453
 11
0.0
 21
0.0
 31
6.024948
  0
LINE
  8
0
 62
     0
  5
6A
 10
0.0
 20
-0.301247
 30
5.422453
 11
0.0
 21
0.0
 31
6.024948
  0
CIRCLE
  8
0
 62
     0
  5
6B
 10
0.0
 20
0.0
 30
4.819959
 40
0.301247
  0
LINE
  8
0
 62
     0
  5
6C
 10
0.301247
 20
0.0
 30
4.819959
 11
0.0
 21
0.0
 31
5.422453
  0
LINE
  8
0
 62
     0
  5
6D
 10
0.0
 20
0.301247
 30
4.819959
 11
0.0
 21
0.0
 31
5.422453
  0
LINE
  8
0
 62
     0
  5
6E
 10
-0.301247
 20
0.0
 30
4.819959
 11
0.0
 21
0.0
 31
5.422453
  0
LINE
  8
0
 62
     0
  5
6F
 10
0.0
 20
-0.301247
 30
4.819959
 11
0.0
 21
0.0
 31
5.422453
  0
CIRCLE
  8
0
 62
     0
  5
70
 10
0.0
 20
0.0
 30
4.217464
 40
0.301247
  0
LINE
  8
0
 62
     0
  5
71
 10
0.301247
 20
0.0
 30
4.217464
 11
0.0
 21
0.0
 31
4.819959
  0
LINE
  8
0
 62
     0
  5
72
 10
0.0
 20
0.301247
 30
4.217464
 11
0.0
 21
0.0
 31
4.819959
  0
LINE
  8
0
 62
     0
  5
73
 10
-0.301247
 20
0.0
 30
4.217464
 11
0.0
 21
0.0
 31
4.819959
  0
LINE
  8
0
 62
     0
  5
74
 10
0.0
 20
-0.301247
 30
4.217464
 11
0.0
 21
0.0
 31
4.819959
  0
ENDBLK
  8
0
  5
75
  0
ENDSEC
  0
SECTION
  2
ENTITIES
  0
INSERT
  8
ASHADE
 62
     1
  5
3
  2
AVE_RENDER
 10
0.0
 20
0.0
 30
0.0
1001
AVE_RENDER
1002
{
1070
     2
1000
Pref
1070
    30
1070
    20
1070
     0
1070
     0
1000

1070
    10
1070
     0
1070
    30
1040
1.0
1070
     1
1040
0.3
1040
0.7
1040
0.0
1040
10.0
1010
-1.0
1020
-1.0
1030
-1.0
1040
0.3
1070
    49
1002
}
  0
INSERT
  8
ASHADE
 62
     3
  5
4
  2
AVE_RENDER
 10
0.0
 20
0.0
 30
0.0
1001
AVE_RENDER
1002
{
1070
     0
1000
Full Opt
1070
     0
1070
     1
1070
     1
1070
     1
1070
     0
1070
     0
1070
     0
1070
     1
1070
     1
1040
0.0001
1040
0.0001
1002
}
  0
INSERT
  8
ASHADE
 62
     4
  5
5
  2
AVE_RENDER
 10
0.0
 20
0.0
 30
0.0
1001
AVE_RENDER
1002
{
1070
     0
1000
Quick Opt
1070
     0
1070
     1
1070
     1
1070
     1
1070
     0
1070
     0
1070
     1
1002
}
  0
INSERT
  8
AME_FRZ
  5
8
  2
AME_NIL
 10
0.0
 20
0.0
 30
0.0
  0
INSERT
  8
AME_FRZ
  5
B
  2
AME_SOL
 10
0.0
 20
0.0
 30
0.0
1001
AME_SOL
1000
R2.1
1000
AME2
1000
sq cm
1070
     3
1070
     0
1070
     3
1000
wire
1040
45.0
1000
U
1040
1.0
1000
cm
1000
gm
1000
MILD_STEEL
1070
    25
1000
CSG
1070
     1
1070
     3
1070
     3
1070
     3
1070
     0
1000
cu cm
1070
     1
1070
     0
1005
8
  0
INSERT
  8
AME_FRZ
  5
1A
  2
AME_NIL
 10
0.0
 20
0.0
 30
0.0
1001
AME_SOL
1002
{
1070
     1
1071
  2416032
1070
  1536
1070
     1
1010
17.0
1020
13.0
1030
10.0
1005
0
1005
0
1005
4D
1040
0.0
1040
1.0
1070
     0
1000
MILD_STEEL
1000
0
1010
0.0
1020
0.0
1030
0.0
1010
0.0
1020
0.0
1030
1.0
1040
0.0
1002
}
1001
AVE_INVOKE
1000
SOLAVEMESH
  0
INSERT
  8
AME_FRZ
  5
26
  2
AME_NIL
 10
8.0
 20
8.0
 30
3.0
1001
AME_SOL
1002
{
1070
     1
1071
  2399240
1070
  1538
1070
     1
1010
10.0
1020
10.0
1030
4.0
1005
0
1005
0
1005
4D
1040
0.0
1040
1.0
1070
     0
1000
MILD_STEEL
1000
0
1010
8.0
1020
8.0
1030
3.0
1010
0.0
1020
0.0
1030
1.0
1040
0.0
1002
}
1001
AVE_INVOKE
1000
SOLAVEMESH
  0
INSERT
  8
0
  5
4D
  2
*U5
 10
0.0
 20
0.0
 30
0.0
 50
270.0
210
1.0
220
0.0
230
0.0000000000000001
1001
AME_SOL
1002
{
1070
     1
1071
  2418872
1070
  1543
1070
     1
1070
     0
1005
1A
1005
26
1005
0
1005
4E
1005
0
1040
0.0
1040
1.0
1070
     0
1000
MILD_STEEL
1000
0
1002
}
1001
AVE_INVOKE
1000
SOLAVEMESH
  0
INSERT
  8
AME_FRZ
  5
4E
  2
AME_NIL
 10
1.0
 20
1.0
 30
1.0
1001
AME_SOL
1004
C7CF01005501AA01A901A701A3019B018D017C0163011C008B0064014A0192002F013700380066007D0108006501320016008E01FE007E01A3006601B50055009C018F018F00BF0090015A000200A4019D0191013F007F0167014B01BA0030011B0168000F017F00A8000300150096009201F00080016801
1004
1F004C01AB00580069014D01290048004E01F50023009E01930181018000C00082016A01FD00EB006B01EA004F014A00310104008C00940183016C01500132017100D6003301A5009F005101340167005F003501DC007E006D0152013601DD001C01AC00830037011D01170022001E01B600F60053013801
1004
1F01ED00BB002001E100DF00390121017A00610022018500D20084016E0154013A012301D1006B0024016E0073003B01250191006F00260110010D00280011019700CA0055013C01270112017800C8001301BC0001010600090028011401020100011200030127002B0015010401F9002F000501F7003500
1004
3D01290116010601B0003600070139003A00170108013B00B70009019B009A002A0118010A013C004B000B014C00500019010C01E800E2000D01CF00CB000500A801A5019F01950185016F01EE004E00700156017D007C0057018700B8008A00FF00A00196018601710158015D0007005901FC00D0007201
1004
5A013E01BE0076003F0118002E005B0140015C00F2004101EC004D0087017301A4005C015200A00074010A00AD0097010100880175011400470076015D01420170001A004301FB00FA005E01440121002B01C100190045012C012D0034002D0160006400A601A10198012400890177015F01D50010002500
1004
82004000A20199012A008A01780145006001E0004601A90090007901560020009A018B017A013100610147012600880048013000980095008C0175007B01620149012E011A010E01C900C400D8000C001B008400A20000003624CD8937597A5AA24A53AA8F5C7A7ADC3D70D0B039C990F5C342C0E72659B8
1004
88420CF4545FD219D8F833517F486763E0CD25744AEABAB30D5BAF4A6BF187AE1A160739321EB868581CE4C968D47751B990A16A2FE90CEC7C19A8BFA433B1F066B888420C4A00D5A6C82600D9694EB4F7FCD907FCA23FFFFFFF288FFFDDDBFBBB7F04D3FFD86FEC37FFFFFCD907FCA23FFFFFFF288FFFDD
1004
DBFBBB7F04D3FFD86FEC37FFFFF28553CD893E4DF7F9447FFFFFFE511FFFCC9EABEEEDFC13479C06AA052831BE739DB380D540A50637CE73956FEA79B0FC9BEFF288FFFFFFFCA23FDF85294A5258DFE67F04D1E701AA814A0C6F9CE76CE0355029418DF39CE55BFA9E6CB726FBFCA23FFFFFFF288FFFC19B
1004
FBBB7F04D1E701AA814A0C6F9CE76CE0355029418DF39CE55BFA9E6DE4DF7F9447FFFFFFE511FEFC294A5292C6FE0CDFC13479C06AA052831BE739DB380D540A50637CE73956FEBD29AA187AE1A160739321EB868581CE4C968D47751B990A16A2FE90CEC7C19A8BFA433B1F06687AE1A16073809AB5FA82
1004
5B366294EB4F3FBF507FCA23FFFFF98FCA17F98FDDDBFBBB7F04D3FFFFFFFFFFF7EA0FF9447FFFFF31F942FF31FBBB7F776FE09A7FFFFFFFFFF942AF4A6A861EB868581CE4C87AE1A1607393270BE5978388D9F96A2FE90CEC7C19A8BFA433B1F066B888420C4A00D5AFD412EA2C529D6BF03BF507FCA23F
1004
FFFFFF288FFFDDDBFBBB7F0069FFFFFFFFFFFBF507FCA23FFFFFFF288FFFDDDBFBBB7F0069FFFFFFFFFFE50ABD29A6F59B888420CF4566E2210833D159B888420CF45017F486763EF0D07744AEABAB38D66E2210833D216BF505E579D8ADD6832DBF507FFFCA23FFF288FFFFFFFFFF3FFFFFFFFFFF7EA0FF
1004
FF9447FFE511FFFFFFFFFE7FFFFFFFFFF9442F4A682B371108419E8ACDC4421067A2B371108419E8A02FE90CEC7DE1ACDC4421067A412BA25755D5986AD7EA0AAD08C56EB5E16DFA83FE511FFFFFFFFF9447FFFFF9FFFFFFFFFFFBF507FCA23FFFFFFFFF288FFFFFF3FFFFFFFFFFCA217A534159B888420C
1004
F4566E2210833D159B888420CF4566E2210833D201DD12BAAEACE3495D12BAAEACC356BF50546F98ADD6BCCB6FD41FFFFFF288FFFCA23FFFFFFFCFFFFFFFFFFFDFA83FFFFFE511FFF9447FFFFFFF9FFFFFFFFFFE510BD29A6F59B888420CF4566E2210833D14D49143AA8BC5F680BFA433B1F78683BA2575
1004
5D59C692BA25755D5986AD7EA0BAE317EB75A7AD5B7EA0FF942FF31FCC7F31F942FF31FBC356FB8DFD869FFFFFFFFFFFBF507FCA17F98FE63F98FCA17F98FDE1AB7DC6FEC34FFFFFFFFFFF2885E94D0566E2210833D154E2450EAA2F171ACDC4421067A280BFA433B1F78683BA25755D59C692BA25755D59
1004
86AD7EA0BBA158ADD6A96B6FD41FF98FE63F285FCA17F98FE63F786ADF71BFB0D3FFFFFFFFFFF7EA0FFCC7F31F942FE50BFCC7F31FBC356FB8DFD869FFFFFFFFFFE510BD29A0AA4A82A63ACBDBCCD66E2210833D159B888420CF45017F486763EF0D07744AEABAB38D25744AEABAB30D5AFD41048662B75A
1004
BF16DFA83FF31F942FF31FCC7F31F942FEF0D5BEE37F61A7FFFFFFFFFFEFD41FF98FCA17F98FE63F98FCA17F786ADF71BFB0D3FFFFFFFFFFCA2151003D70D0B039C990F5C342C0E7264E17CB2F0711B3F2D45FD219D8F833517F486763E0CD711084189401ABF8EF1DC3C275144499974520D408768EB2C6
1004
47A89F125A90CBD6A52600D965D458E3CBA8B13006CB4A5294A529513EFF288FFFFFFFCA23FFF776FEEEDFC01A6F7F61BFB0D5FC778EE1E13A8A224CCBA2906A043B4759632A8801EB868581CE4C87AE1A1607393270BE5978388D9F96A2FE90CEC7C19A8BFA433B1F066B888420C4A00D413B2774F9C874
1004
8EC0AF54B0208719D0730A3D44F8F787BD65EB5293006CB2EA2C71E5D458980365A5294A5294A89F7F9447FFFFFFE511FFFBBB7F776FE00D37BFB0DFD86A09D93BA7CE43A476057AA5810438CE8398554400F5C342C0E72643D70D0B039C99385F2CBC1C46CFCB517F486763E0CD45FD219D8F8335C44210
1004
625006BD52C0821C6741CC41C878D7E016AA5F4EA207A89F21CBECBD6A52600D965D458E3CBA8B13006CB4A5294A529513EFF288FFFFFFFCA23FFF776FEEEDFC01A6F7F61BFB0D7AA5810438CE83988390F1AFC02D54BE9D442A203371108419E8AA71228755178B8D2D1A8EEA3732142D017F486763EF0D
1004
07744AEABAB38D711084189401BFFFB25A3C9BE528F7CC74A56980365BBA158E3CC01B2DDD0AC5294A56E4DF7F9447FFFFFFE511FE5E3CE3DB1243D33ACF3356FB8DFC1347FFFEC96AA20292A0A98EB2F6F3359B888420CF452D1A8EEA3732142D017F486763EF0D07744AEABAB38D711084189401BFFFB2
1004
5A3C9BE751E7B1D6A52600D96090CC71E090CC4C01B2D6E94A524DF7F9447FFFFFFE511FFFBC357B79018F6EBE8F6A79ADFC1347FFFEC96AA20292A0A98EB2F6F3359B888420CF452D1A8EEA3732142D017F486763EF0D07744AEABAB38D711084189401BFFFB25A3C9BE3DDBF058E94AD3006CB0486638F
1004
3006CB04866294A52B726FBFCA23FFFFFFF288FFFDE1A0EBFC0A3CE3D63B9E637F04D1FFFFB25AA880CDC4421067A2B371108419E8A5A351DD46E64285ACDC4421067A403BA25755D59C6B888420C4A00DFFFD92D1E4DF3249B1D6A52600D96A37CC71EA37CC4C01B2D6E94A524DF7F9447FFFFFFE511FFF
1004
FFDBF8268FFFFD92D544066E2210833D159B888420CF452D1A8EEA3732142D017F486763EF0D66E2210833D21C44210625006FFFEC968F26F8C12531D6A52600D96AB4231C7AAD08C4C01B2D6E94A524DF7F9447FFFFFFE511FE94A52949EADBF6B20F4BF04D1FFFFB25AA880CDC4421067A2B371108419E
1004
8A5A351DD46E64285A02FE90CEC7DE1ACDC4421067A43888420C4A00DFFFD92D1E4DF1E88C5FE94AD3006CB55A118E3CC01B2D56846294A52B726FBFCA23FFFFFFF288FF24FF6FDAC83D2FC1347FFFEC96AA2007AE1A160739321EB868581CE4C968D47751B990A16A2FE90CEC7C19A8BFA433B1F06687AE
1004
1A16073809ABF8EF1DC3C275144499974520D408768EB2C647A89F2F0A1793A52B4C01B2CB66CC71E600D965B366294A5294A52A27DFE511FFFFFFF9447FFEEEDFDDDBF8269BDFD86FEC357F1DE3B8784EA2889332E8A41A810ED1D658CAA2007AE1A160739321EB868581CE4C968D47751B990A16A2FE90
1004
CEC7C19A8BFA433B1F06687AE1A16073809A82764EE9F390E91D815EA960410E33A0E6147A89F1E6AAD97A52B4C01B2CB66CC71E600D965B366294A5294A52A27DFE511FFFFFFF9447FFEEEDFDDDBF8269BDFD86FEC3504EC9DD3E721D23B02BD52C0821C6741CC2AA2007AE1A160739321EB868581CE4C9
1004
68D47751B990A16A2FE90CEC7C19A8BFA433B1F06687AE1A16073809AF54B0208719D07310721E35F805AA97D3A881EA27C7A28763A52B4C01B2CB66CC71E600D965B366294A5294A52A27DFE511FFFFFFF9447FFEEEDFDDDBF8269BDFD86FEC35EA960410E33A0E620E43C6BF00B552FA7510A880CDC442
1004
1067A2A9C48A1D545E2E34B46A3BA8DCC850B405FD219D8FBC341DD12BAAEACE343D70D0B039C04D641CA789FD7DAA324CFE5C68F26F9E77E2CBD6A525B3662EE85638F7742B12D9B315BA5294937DFFFE511FFFFFFF942FE5C6ADF71BF8268F641CA789FD7DAA324CFE5C6AA20292A0A98EB2F6F3359B88
1004
8420CF452D1A8EEA3732142D017F486763EF0D07744AEABAB38D0F5C342C0E70134EBA9EBFD7E9D33CAFC993BE051E43C0FC54834207937CEA5C65EB5292D9B310486638F0486625B3662B74A52926FBFCA23FFFFFFFFF285FDE1BFB2B7F04D1E75D4F5FEBF4E99E57E4C9DF028F21E07E2A41A10A880CDC
1004
4421067A2B371108419E8A5A351DD46E64285ACDC4421067A403BA25755D59C687AE1A16073809AB7CEA99FED1E4DF0160CCBD6A525B3662A37CC71EA37CC4B66CC56E94A524DF7F942FFFFFFFFFE50BFFFB25BF8268F5BE754CFF6AA203371108419E8ACDC4421067A2968D47751B990A1680BFA433B1F7
1004
86B371108419E901EB868581CE026FF33FB0D1E4DF1EC0F52CBD6A525B3662AB4231C7AAD08C4B66CC56E94A524DF7FFF942FFFFFFFE50BFB25BFFF8268FFE67F61AA880CDC4421067A2A9C48A1D545E2E34E17CB2F0711B3F2D017F486763EF0D07744AEABAB38D711084189401BF970CB20E53C4FEBED5
1004
192D1E4DF3F09E632F5A94975162EE85638F7742B12EA2C56E94A524DF7FFF9447FFFFFFE511F971AB7DC6FE00D1FF970CB20E53C4FEBED5192D544052541531D65EDE66B371108419E8A70BE5978388D9F9680BFA433B1F78683BA25755D59C6B888420C4A00D3BE051E43C0FC5483414EBA9EBFD7E9D33
1004
CAFCB47937CA35D65EB5292EA2C412198E3C12198975162B74A52926FBFCA23FFFFF98FFFCA23F786FECADFC01A3CEF814790F03F1520D053AEA7AFF5FA74CF2BF2D544066E2210833D159B888420CF45385F2CBC1C46CFCB59B888420CF4807744AEABAB38D711084189401BFCCADF3AAD1E4DF2ACDCCBD
1004
6A525D458A8DF31C7A8DF312EA2C56E94A524DF7F942FFFFFFFFFE511FFFB25BF80347FF32B7CEAB551019B888420CF4566E2210833D14E17CB2F0711B3F2D017F486763EF0D66E2210833D21C44210625006FEC19FED1E4DF3AE7B965EB5292EA2C55684638F55A118975162B74A52926FBFFFCA17FFFFF
1004
FF288FD92DFFFC01A3FF60CFF6AA203371108419E8AA71228755178B8D66E2210833D1405FD219D8FBC341DD12BAAEACE359B888420CF48FD7C33FAF8D1E4DF183DD32F4A56BCAF3B17742B1C7BCAF3B17742B15BADC9BEFFFF288FFFFFFFCA17F5F1AB7DC6FF8FFD7C33FAF8D544052541531D65EDE66B3
1004
71108419E8ACDC4421067A280BFA433B1F78683BA25755D59C6B371108419E90B7D7932B7D7968F26F97853D97A52B5E579D8824331C7BCAF3B1048662B75B937DFE511FFFFFFFFF942FEF0D5BEBCB7FC7ADF5E4CADF5E5AA880CDC4421067A2B371108419E8ACDC4421067A2B371108419E900EE895D575
1004
671ACDC4421067A42DF70CFF303C9BE5FC82CBD295AF2BCEC546F98E3DE579D8A8DF315BADC9BEFF285FFFFFFFFFCA17FFFFFC7ADF70CFF30A880CDC4421067A2B371108419E8ACDC4421067A280BFA433B1F786B371108419E90CDC4421067A47FFEF0D1E4DF3AE82CBD295AF2BCEC55684638F795E762A
1004
B42315BADC9BEFFFF285FFFFFFFCA17FFFFFC7FFFEF0D544066E2210833D159B888420CF45352450EAA2F17DA02FE90CEC7DE1ACDC4421067A412BA25755D5986FEBE19FD7C68F26F9E55FAF274A56AAD08C5D718BFC7AAD08C5D718BF5BADC9BEFFFFFF288FFFCA17FFF5F1BFFFB0D1FFAF867F5F1AA880
1004
A4A82A63ACBDBCCD66E2210833D159B888420CF45017F486763EF0D66E2210833D2095D12BAAEACC37F5C33FAE347937C7A07AF793A52B5568462090CC71EAB4231048662B75B937DFE511FFFFFFF942FFFEF0DFFFD71A3FF5C33FAE3551019B888420CF4566E2210833D159B888420CF4566E2210833D21
1004
9B888420CF4825744AEABAB30DFFFD868F26F8921EC5E4E94AD55A118A8DF31C7AAD08C546F98ADD6E4DF7F942FFFFFFFE50BFFFFFFFE3FFFF61AA880CDC4421067A2B371108419E8A6A48A1D545E2FB59B888420CF4807744AEABAB38D25744AEABAB30D5BEBC995BEBCB47937C4900A793A52B546F98BA
1004
E317F8F51BE62EB8C5FADD6E4DF7FFFFF9447E50BFFFFFEB7D796FEC347ADF5E4CADF5E5AA880CDC4421067A2A9C48A1D545E2E359B888420CF4566E2210833D201DD12BAAEACE3495D12BAAEACC37F5C33FCC8F26F8F400B793A52B546F98BBA158E3D46F98BBA158ADD6E4DF7FFF9447FFE50BFFFFFEB7
1004
DC6FEB8D1FFAE19FE6551019B888420CF455389143AA8BC5C6B371108419E8ACDC4421067A403BA25755D59C692BA25755D5986FF6FEB8D1E4DF3CA7B2793A52B546F98BBA158E3D46F98BBA158ADD6E4DF7FFF9447FFE50BFFFFFEB7DC6FEB8D1FFDBFAE3551019B888420CF455389143AA8BC5C69A9228
1004
755178BED017F486763EF0D07744AEABAB38D25744AEABAB30DFDE0CFF303C9BE79CF66F274A56BAE317EEE85638F75C62FDDD0AC56EB726FBFFFCA23FFFFFFF288FDE1AB7DC6FEC347FEF067F98544052541531D65EDE66B371108419E8A6A48A1D545E2FB405FD219D8FBC341DD12BAAEACE3495D12BAA
1004
EACC37FD6FB8D1E4DF1259ED1E4E94AD75C62FC12198E3DD718BF048662B75B937DFE511FFFFFCC7FFE511FBC356FB8DFD868FFF5BEE355101495054C7597B799AA71228755178B8D66E2210833D1405FD219D8FBC341DD12BAAEACE3495D12BAAEACC37F60CFF303C9BE439EE1E4E94AD7742B10486638F
1004
7742B1048662B75B937DFE511FFFFFFF9447FFEF0D5BEE37F61A3FF60CFF30BED447A8F5
1005
4F
  0
INSERT
  8
AME_FRZ
  5
4F
  2
AME_NIL
 10
1.0
 20
1.0
 30
1.0
1001
AME_SOL
1004

1005
0
  0
ENDSEC
  0
EOF
