600 0 2 0           
24 FBMach with ACIS - 6.0.3 13 ACIS 6.0.3 NT 24 Wed May 23 17:46:37 2001 
1 9.9999999999999995e-007 1e-010 
body $2 $3 $-1 $4 #
bdycol-kcp $-1 1 5 $5 $6 $7 $8 $9 #
model_id-kcp-attrib $-1 $-1 $-1 $0 1 990654396 40 -735576063 1 #
lump $-1 $-1 $10 $0 #
transform $-1 4.4072818311535755e-017 -1 0 1.8375871570913693e-015 8.0987644906099433e-032 1 -1 -4.4072818311535755e-017 1.8375871570913693e-015 75.233147483099344 -46.090085061297181 50.05483790684319 1 rotate no_reflect no_shear #
body $11 $12 $-1 $13 #
body $14 $15 $-1 $16 #
body $17 $18 $-1 $19 #
body $20 $21 $-1 $22 #
body $23 $24 $-1 $25 #
shell $-1 $-1 $-1 $26 $-1 $3 #
model_id-kcp-attrib $-1 $-1 $-1 $5 1 990654396 50 -734920702 1 #
lump $-1 $-1 $27 $5 #
transform $-1 1 0 0 0 1 0 0 0 1 19.488413495345537 -46.090085061297188 50.054837906843289 1 no_rotate no_reflect no_shear #
rgb_color-st-attrib $-1 $28 $-1 $6 0.5 1 1 #
lump $-1 $-1 $29 $6 #
transform $-1 1 0 0 0 1 0 0 0 1 19.488413495345537 -46.090085061297188 50.054837906843289 1 no_rotate no_reflect no_shear #
rgb_color-st-attrib $-1 $30 $-1 $7 1 0.5 1 #
lump $-1 $-1 $31 $7 #
transform $-1 1 0 0 0 1 0 0 0 1 19.488413495345537 -46.090085061297188 50.054837906843289 1 no_rotate no_reflect no_shear #
rgb_color-st-attrib $-1 $32 $-1 $8 1 0.5 1 #
lump $-1 $-1 $33 $8 #
transform $-1 1 0 0 0 1 0 0 0 1 19.488413495345537 -46.090085061297188 50.054837906843289 1 no_rotate no_reflect no_shear #
rgb_color-st-attrib $-1 $34 $-1 $9 1 0.5 1 #
lump $-1 $-1 $35 $9 #
transform $-1 1 0 0 0 1 0 0 0 1 19.488413495345537 -46.090085061297188 50.054837906843289 1 no_rotate no_reflect no_shear #
face $36 $37 $38 $10 $-1 $39 reversed single #
shell $-1 $-1 $-1 $40 $-1 $12 #
model_id-kcp-attrib $-1 $-1 $14 $6 1 990654396 120 -730333181 1 #
shell $-1 $-1 $-1 $41 $-1 $15 #
model_id-kcp-attrib $-1 $-1 $17 $7 1 990654396 230 -723124220 1 #
shell $-1 $-1 $-1 $42 $-1 $18 #
model_id-kcp-attrib $-1 $-1 $20 $8 1 990654396 290 -735969275 1 #
shell $-1 $-1 $-1 $43 $-1 $21 #
model_id-kcp-attrib $-1 $-1 $23 $9 1 990654396 340 -732692474 1 #
shell $-1 $-1 $-1 $44 $-1 $24 #
model_id-kcp-attrib $-1 $-1 $-1 $26 1 990654396 40 -735576063 2 #
face $45 $46 $47 $10 $-1 $48 forward single #
loop $-1 $49 $50 $26 #
plane-surface $-1 3.1588881854927956e-014 1.5612511283791261e-014 56.999537288471984 1.2246063538223773e-016 -1.348715221273768e-047 1 1.6653345369377323e-013 1000 7.3395986474382176e-030 forward_v I I I I #
face $-1 $51 $52 $27 $-1 $53 forward single #
face $-1 $54 $55 $29 $-1 $56 reversed single #
face $-1 $57 $58 $31 $-1 $59 forward single #
face $-1 $60 $61 $33 $-1 $62 forward single #
face $-1 $63 $64 $35 $-1 $65 forward single #
model_id-kcp-attrib $-1 $-1 $-1 $37 1 990654396 40 -735576063 3 #
face $66 $67 $68 $10 $-1 $69 forward single #
loop $-1 $70 $71 $37 #
plane-surface $-1 1.0378880262694271e-014 11.677531604870323 80.404208264537331 1.2246063538223773e-016 -1.348715221273768e-047 1 1.6653345369377323e-013 1000 7.3395986474382176e-030 forward_v I I I I #
loop $-1 $-1 $72 $26 #
coedge $-1 $50 $50 $73 $74 reversed $38 $-1 #
face $-1 $75 $76 $27 $-1 $77 reversed single #
loop $-1 $-1 $78 $40 #
plane-surface $-1 0 0 11.677531604870428 0 0 1 1 0 0 forward_v I I I I #
face $-1 $79 $80 $29 $-1 $56 reversed single #
loop $-1 $-1 $81 $41 #
cone-surface $-1 55.744733987753804 0 -9.9475983006414026e-014 1 4.4072818311535755e-017 -1.8375871570913693e-015 -2.1458482103638273e-014 3.3747376088058276e-015 -11.677531604870323 1 I I 0 1 11.677531604870323 forward I I I I #
face $-1 $82 $83 $31 $-1 $84 forward single #
loop $-1 $85 $86 $42 #
cone-surface $-1 44.213111330757428 7.5391082265952036e-015 -7.8593381802605222e-014 1 0 -1.8485067285712959e-015 6.0244845168787468e-015 -5.4275064180908355e-016 3.259108784275321 1 I I 0 -1 3.259108784275321 forward I I I I #
face $-1 $87 $88 $33 $-1 $89 forward single #
loop $-1 $90 $91 $43 #
cone-surface $-1 -1.25480330071818 -4.6650149823228786e-016 5.3915550529153196e-015 1 1.5627343842776996e-016 -1.8752812611332395e-015 9.5362751123581842e-015 -8.4686434123235636e-016 5.0852505754765431 1 I I 0 -1 5.0852505754765431 forward I I I I #
face $-1 $92 $93 $35 $-1 $94 forward single #
loop $-1 $95 $96 $44 #
cone-surface $-1 -24.659474276783513 -4.3641621884428674e-015 4.8399677854482093e-014 -1 -2.2857867116656041e-016 1.8286293693324833e-015 9.2990385527313189e-015 -8.4686434123235636e-016 5.0852505754765431 1 I I 0 -1 5.0852505754765431 forward I I I I #
model_id-kcp-attrib $-1 $-1 $-1 $46 1 990654396 40 -735576063 4 #
face $97 $98 $99 $10 $-1 $100 forward single #
loop $-1 $101 $102 $46 #
cone-surface $-1 5.5680297152758441e-015 -6.1323268543047393e-046 56.999537288471984 1.2246063538223773e-016 -1.348715221273768e-047 1 1.9446996687772458e-015 11.677531604870323 8.5708395172523271e-032 1 I I 0 1 11.677531604870323 forward I I I I #
loop $-1 $-1 $103 $37 #
coedge $-1 $71 $71 $102 $104 reversed $47 $-1 #
coedge $-1 $72 $72 $105 $106 reversed $49 $-1 #
coedge $-1 $73 $73 $50 $74 forward $101 $-1 #
edge $-1 $107 0 $107 6.2831853071796004 $73 $108 forward 7 unknown #
face $-1 $109 $110 $27 $-1 $111 reversed single #
loop $-1 $-1 $112 $51 #
plane-surface $-1 0 0 -11.677531604870428 0 0 1 1 0 0 forward_v I I I I #
coedge $-1 $113 $114 $115 $116 forward $52 $-1 #
face $-1 $117 $118 $29 $-1 $56 reversed single #
loop $-1 $-1 $119 $54 #
coedge $-1 $120 $121 $122 $123 reversed $55 $-1 #
face $-1 $124 $125 $31 $-1 $126 forward single #
loop $-1 $127 $128 $57 #
cone-surface $-1 44.213111330757428 -5.0823111019899043e-016 -7.828562131149363e-014 1 0 -1.8485067285712959e-015 -2.1585995744706755e-014 3.3747376088058276e-015 -11.677531604870323 1 I I 0 1 11.677531604870323 forward I I I I #
loop $-1 $-1 $129 $42 #
coedge $-1 $86 $86 $130 $131 forward $58 $-1 #
face $-1 $132 $133 $33 $-1 $134 forward single #
loop $-1 $135 $136 $60 #
cone-surface $-1 -1.25480330071818 -2.5121302507564332e-015 5.2656346750327096e-015 1 1.5627343842776996e-016 -1.8752812611332395e-015 -2.1898656194904481e-014 3.3747376088058276e-015 -11.677531604870323 1 I I 0 1 11.677531604870323 forward I I I I #
loop $-1 $-1 $137 $43 #
coedge $-1 $91 $91 $138 $139 forward $61 $-1 #
face $-1 $140 $141 $35 $-1 $142 reversed single #
loop $-1 $143 $144 $63 #
cone-surface $-1 -24.659474276783513 -3.5436400623258346e-015 4.8273757476599496e-014 -1 -2.2857867116656041e-016 1.8286293693324833e-015 -2.1353877253974161e-014 3.3747376088058276e-015 -11.677531604870323 1 I I 0 1 11.677531604870323 forward I I I I #
loop $-1 $-1 $145 $44 #
coedge $-1 $96 $96 $146 $147 forward $64 $-1 #
model_id-kcp-attrib $-1 $-1 $-1 $67 1 990654396 40 -735576063 5 #
face $148 $149 $150 $10 $-1 $151 forward single #
loop $-1 $152 $153 $67 #
cone-surface $-1 0 0 11.53162265699639 1.2246063538223773e-016 -1.348715221273768e-047 1 8.4686434123235656e-016 5.0852505754765431 3.7323698245652058e-032 1 I I 0 1 5.0852505754765431 forward I I I I #
loop $-1 $-1 $73 $46 #
coedge $-1 $102 $102 $71 $104 forward $68 $-1 #
coedge $-1 $103 $103 $154 $155 reversed $70 $-1 #
edge $-1 $156 0 $156 6.2831853071796004 $102 $157 forward 7 unknown #
coedge $-1 $105 $105 $72 $106 forward $158 $-1 #
edge $-1 $159 -3.141592653589814 $159 3.1415926535897865 $105 $160 forward 7 unknown #
vertex $-1 $74 $161 #
ellipse-curve $-1 5.5680297152758441e-015 -6.1323268543047393e-046 56.999537288471984 1.2246063538223773e-016 -1.348715221273768e-047 1 1.9446996687772458e-015 11.677531604870323 8.5708395172523271e-032 1 I I #
face $162 $163 $164 $27 $-1 $165 reversed single #
loop $-1 $-1 $166 $75 #
plane-surface $-1 0 -11.677531604870335 0 0 1 0 0 0 1 forward_v I I I I #
coedge $-1 $167 $168 $169 $170 forward $76 $-1 #
coedge $-1 $171 $78 $172 $173 forward $52 $-1 #
coedge $-1 $78 $171 $174 $175 forward $52 $-1 #
coedge $-1 $176 $177 $78 $116 reversed $178 $-1 #
edge $-1 $179 -11.677531604870335 $180 11.677531604870335 $115 $181 forward 7 unknown #
face $-1 $182 $183 $29 $-1 $56 reversed single #
loop $-1 $-1 $184 $79 #
coedge $-1 $185 $186 $187 $188 reversed $80 $-1 #
coedge $-1 $189 $81 $190 $191 forward $55 $-1 #
coedge $-1 $81 $189 $192 $193 reversed $55 $-1 #
coedge $-1 $194 $195 $81 $123 forward $196 $-1 #
edge $-1 $197 -2.8899408907601096e-016 $198 1.5707963267948963 $122 $199 forward 7 unknown #
face $-1 $-1 $200 $31 $-1 $201 reversed single #
loop $-1 $202 $203 $82 #
plane-surface $-1 55.744733987753811 8.5466318950620215e-016 0.89460627521569835 1 4.9045231754631134e-031 -1.7126412445987397e-015 -1.7126412445987397e-015 0 -1 forward_v I I I I #
loop $-1 $-1 $204 $57 #
coedge $-1 $128 $128 $203 $205 forward $83 $-1 #
coedge $-1 $129 $129 $206 $207 reversed $85 $-1 #
coedge $-1 $130 $130 $86 $131 reversed $202 $-1 #
edge $-1 $208 -9.6199846719172296e-033 $208 6.2831853071795862 $86 $209 forward 7 unknown #
face $-1 $-1 $210 $33 $-1 $211 reversed single #
loop $-1 $212 $213 $87 #
plane-surface $-1 44.213111330757407 4.0477077562887574e-015 0.59929827539935432 1 1.6259734014539151e-016 -1.8380704711297745e-015 -1.8380704711297745e-015 0 -1 forward_v I I I I #
loop $-1 $-1 $214 $60 #
coedge $-1 $136 $136 $213 $215 forward $88 $-1 #
coedge $-1 $137 $137 $216 $217 reversed $90 $-1 #
coedge $-1 $138 $138 $91 $139 reversed $212 $-1 #
edge $-1 $218 -3.1415926535897998 $218 3.1415926535897865 $91 $219 forward 7 unknown #
face $-1 $-1 $220 $35 $-1 $221 forward single #
loop $-1 $222 $223 $92 #
plane-surface $-1 -55.744733987753776 -1.0012068583785926e-014 0.59929827539953906 1 1.9457681047508404e-016 -1.8731267749011612e-015 -1.8731267749011612e-015 0 -1 forward_v I I I I #
loop $-1 $-1 $224 $63 #
coedge $-1 $144 $144 $223 $225 forward $93 $-1 #
coedge $-1 $145 $145 $226 $227 reversed $95 $-1 #
coedge $-1 $146 $146 $96 $147 reversed $222 $-1 #
edge $-1 $228 -3.1415926535897998 $228 3.1415926535897865 $96 $229 forward 7 unknown #
model_id-kcp-attrib $-1 $-1 $-1 $98 1 990654396 40 -735576063 6 #
face $230 $231 $232 $10 $-1 $233 forward single #
loop $-1 $234 $235 $98 #
cone-surface $-1 -4.3368086899420187e-016 -4.3368086899420172e-016 11.53162265699639 0 -2.0393792551737924e-032 -1 5.4275064180908375e-016 3.259108784275321 2.3920550424921162e-032 1 I I 0 1 3.259108784275321 forward I I I I #
loop $-1 $-1 $154 $67 #
coedge $-1 $153 $153 $236 $237 forward $99 $-1 #
coedge $-1 $154 $154 $103 $155 forward $152 $-1 #
edge $-1 $238 -3.141592653589814 $238 3.1415926535897865 $154 $239 forward 7 unknown #
vertex $-1 $104 $240 #
ellipse-curve $-1 8.4341805939170257e-015 -9.2889504537371119e-046 80.404208264537331 -1.2246063538223773e-016 1.348715221273768e-047 -1 1.9446996687772458e-015 11.677531604870323 8.5708395172523271e-032 1 I I #
loop $-1 $241 $105 $231 #
vertex $-1 $106 $242 #
ellipse-curve $-1 5.5680297152758441e-015 -6.1323268543047393e-046 56.999537288471984 -1.2246063538223773e-016 1.348715221273768e-047 -1 8.4686434123235656e-016 5.0852505754765431 3.7323698245652058e-032 1 I I #
point $-1 7.5127293840530902e-015 11.677531604870323 56.999537288471984 #
model_id-kcp-attrib $-1 $-1 $-1 $109 1 990654396 50 -734920702 3 #
face $-1 $243 $244 $27 $-1 $245 reversed single #
loop $-1 $-1 $246 $109 #
plane-surface $-1 -55.744733987753818 0 0 1 0 0 0 0 -1 forward_v I I I I #
coedge $-1 $247 $174 $248 $249 forward $110 $-1 #
coedge $-1 $250 $112 $247 $251 forward $76 $-1 #
coedge $-1 $112 $250 $252 $253 forward $76 $-1 #
coedge $-1 $177 $176 $112 $170 reversed $178 $-1 #
edge $-1 $254 -11.677531604870335 $255 11.677531604870335 $169 $256 forward 7 unknown #
coedge $-1 $114 $113 $257 $258 forward $52 $-1 #
coedge $-1 $259 $260 $113 $173 reversed $244 $-1 #
edge $-1 $180 -55.744733987753818 $261 55.744733987753818 $172 $262 forward 7 unknown #
coedge $-1 $166 $263 $114 $175 reversed $110 $-1 #
edge $-1 $264 -55.744733987753818 $179 55.744733987753818 $174 $265 forward 7 unknown #
coedge $-1 $169 $115 $263 $266 forward $178 $-1 #
coedge $-1 $115 $169 $259 $267 reversed $178 $-1 #
loop $-1 $-1 $176 $243 #
vertex $-1 $116 $268 #
vertex $-1 $116 $269 #
straight-curve $-1 55.744733987753818 0 11.677531604870428 0 1 0 I I #
face $-1 $270 $271 $29 $-1 $272 reversed single #
loop $-1 $-1 $273 $117 #
coedge $-1 $274 $275 $273 $276 forward $118 $-1 #
coedge $-1 $277 $119 $278 $279 reversed $80 $-1 #
coedge $-1 $119 $277 $121 $193 forward $80 $-1 #
coedge $-1 $280 $281 $119 $188 forward $282 $-1 #
edge $-1 $283 -3.1415926535897931 $284 -1.5707963267948963 $187 $285 forward 7 unknown #
coedge $-1 $121 $120 $286 $287 reversed $55 $-1 #
coedge $-1 $275 $274 $288 $191 reversed $118 $-1 #
edge $-1 $197 -111.48946797550759 $289 4.2632564145606011e-014 $288 $290 forward 7 unknown #
coedge $-1 $291 $292 $293 $193 forward $294 $-1 #
edge $-1 $198 -111.48946797550761 $284 1.4210854715202004e-014 $192 $295 forward 7 unknown #
coedge $-1 $195 $122 $292 $296 forward $196 $-1 #
coedge $-1 $122 $194 $297 $298 reversed $196 $-1 #
loop $-1 $-1 $122 $299 #
vertex $-1 $298 $300 #
vertex $-1 $296 $301 #
ellipse-curve $-1 -55.744733987753818 -4.9136550657343312e-015 1.0539563149632828e-013 1 0 0 -2.1458482103638273e-014 3.3747376088058276e-015 -11.677531604870323 1 I I #
loop $-1 $302 $303 $124 #
plane-surface $-1 44.213111330757435 8.5466318950620215e-016 0.89460627521571967 1 4.9045231754631134e-031 -1.7126412445987397e-015 -1.7126412445987397e-015 0 -1 forward_v I I I I #
loop $-1 $-1 $130 $82 #
coedge $-1 $203 $203 $128 $205 reversed $125 $-1 #
coedge $-1 $204 $204 $303 $304 reversed $127 $-1 #
edge $-1 $305 -3.1415926535897931 $305 3.1415926535897931 $128 $306 forward 7 unknown #
coedge $-1 $206 $206 $129 $207 forward $302 $-1 #
edge $-1 $307 -4.6754069425524809e-032 $307 6.2831853071795862 $129 $308 forward 7 unknown #
vertex $-1 $131 $309 #
ellipse-curve $-1 55.744733987753804 7.5391082265952036e-015 -9.9909663875408228e-014 1 1.6653345369377348e-016 -1.8375871570913693e-015 5.9888964455479962e-015 -5.4275064180908355e-016 3.259108784275321 1 I I #
loop $-1 $310 $311 $132 #
plane-surface $-1 -1.2548033007181789 -3.0577196013122445e-015 0.59929827539943958 1 1.6259734014539151e-016 -1.8380704711297745e-015 -1.8380704711297745e-015 0 -1 forward_v I I I I #
loop $-1 $-1 $138 $87 #
coedge $-1 $213 $213 $136 $215 reversed $133 $-1 #
coedge $-1 $214 $214 $311 $312 reversed $135 $-1 #
edge $-1 $313 -3.1415926535897931 $313 3.1415926535897931 $136 $314 forward 7 unknown #
coedge $-1 $216 $216 $137 $217 forward $310 $-1 #
edge $-1 $315 -3.1415926535897998 $315 3.1415926535897865 $137 $316 forward 7 unknown #
vertex $-1 $139 $317 #
ellipse-curve $-1 44.213111330757407 6.638925859368714e-015 -7.9873573238296703e-014 1 1.6653345369377348e-016 -1.8375871570913693e-015 9.3445911480871902e-015 -8.4686434123235636e-016 5.0852505754765431 1 I I #
loop $-1 $318 $319 $140 #
plane-surface $-1 -24.659474276783509 -2.9066412261849247e-015 0.59929827539948222 1 1.9457681047508404e-016 -1.8731267749011612e-015 -1.8731267749011612e-015 0 -1 forward_v I I I I #
loop $-1 $-1 $146 $92 #
coedge $-1 $223 $223 $144 $225 reversed $141 $-1 #
coedge $-1 $224 $224 $319 $320 reversed $143 $-1 #
edge $-1 $321 -3.1415926535897931 $321 3.1415926535897931 $144 $322 forward 7 unknown #
coedge $-1 $226 $226 $145 $227 forward $318 $-1 #
edge $-1 $323 -3.1415926535897998 $323 3.1415926535897865 $145 $324 forward 7 unknown #
vertex $-1 $147 $325 #
ellipse-curve $-1 -55.744733987753783 -1.1469589546043869e-014 1.0524309671529011e-013 -1 -1.6653345369377348e-016 1.8375871570913693e-015 9.3445911480871902e-015 -8.4686434123235636e-016 5.0852505754765431 1 I I #
model_id-kcp-attrib $-1 $326 $-1 $149 1 990654396 40 -735576063 11 #
face $327 $328 $158 $10 $-1 $100 forward single #
loop $-1 $-1 $329 $149 #
plane-surface $-1 -2.0574577664969122e-018 3.2591087842753206 1.9539925233402755e-014 0 -2.0393792551737924e-032 -1 1.6653345369377323e-013 1000 7.3395986474382176e-030 forward_v I I I I #
loop $-1 $-1 $330 $98 #
coedge $-1 $235 $235 $329 $331 forward $150 $-1 #
coedge $-1 $236 $236 $153 $237 reversed $332 $-1 #
edge $-1 $333 0 $333 6.2831853071796004 $153 $334 forward 7 unknown #
vertex $-1 $155 $335 #
ellipse-curve $-1 8.4341805939170257e-015 -9.2889504537371119e-046 80.404208264537331 1.2246063538223773e-016 -1.348715221273768e-047 1 8.4686434123235656e-016 5.0852505754765431 3.7323698245652058e-032 1 I I #
point $-1 1.0378880262694271e-014 11.677531604870323 80.404208264537331 #
loop $-1 $-1 $336 $231 #
point $-1 4.0231300916740012e-014 -5.0852505754765431 56.999537288471984 #
face $337 $-1 $178 $27 $-1 $338 reversed single #
loop $-1 $-1 $259 $163 #
plane-surface $-1 0 11.677531604870335 0 0 -1 0 0 0 -1 forward_v I I I I #
coedge $-1 $339 $257 $260 $340 forward $164 $-1 #
coedge $-1 $263 $166 $167 $251 reversed $110 $-1 #
coedge $-1 $257 $339 $166 $249 reversed $164 $-1 #
edge $-1 $264 -11.677531604870428 $341 11.677531604870428 $248 $342 forward 7 unknown #
coedge $-1 $168 $167 $339 $343 forward $76 $-1 #
edge $-1 $255 -55.744733987753818 $341 55.744733987753818 $247 $344 forward 7 unknown #
coedge $-1 $260 $259 $168 $253 reversed $244 $-1 #
edge $-1 $345 -55.744733987753818 $254 55.744733987753818 $252 $346 forward 7 unknown #
vertex $-1 $170 $347 #
vertex $-1 $266 $348 #
straight-curve $-1 55.744733987753818 0 -11.677531604870428 0 -1 0 I I #
coedge $-1 $246 $248 $171 $258 reversed $164 $-1 #
edge $-1 $261 -11.677531604870335 $264 11.677531604870335 $257 $349 forward 7 unknown #
coedge $-1 $252 $172 $177 $267 forward $244 $-1 #
coedge $-1 $172 $252 $246 $340 reversed $244 $-1 #
vertex $-1 $173 $350 #
straight-curve $-1 0 11.677531604870335 11.677531604870428 -1 0 0 I I #
coedge $-1 $174 $247 $176 $266 reversed $110 $-1 #
vertex $-1 $258 $351 #
straight-curve $-1 0 -11.677531604870335 11.677531604870428 1 0 0 I I #
edge $-1 $179 -11.677531604870428 $255 11.677531604870428 $176 $352 forward 7 unknown #
edge $-1 $180 -11.677531604870428 $254 11.677531604870428 $177 $353 forward 7 unknown #
point $-1 55.744733987753818 -11.677531604870335 11.677531604870428 #
point $-1 55.744733987753818 11.677531604870335 11.677531604870428 #
face $-1 $354 $355 $29 $-1 $356 reversed single #
loop $-1 $-1 $293 $182 #
plane-surface $-1 0 11.677531604870335 0 0 -1 0 0 0 -1 forward_v I I I I #
coedge $-1 $357 $358 $359 $276 reversed $183 $-1 #
coedge $-1 $190 $184 $360 $361 reversed $118 $-1 #
coedge $-1 $184 $190 $362 $363 reversed $118 $-1 #
edge $-1 $364 -111.48946797550761 $365 1.4210854715202004e-014 $359 $366 forward 7 unknown #
coedge $-1 $186 $185 $367 $368 reversed $80 $-1 #
coedge $-1 $369 $370 $371 $279 forward $372 $-1 #
edge $-1 $373 -111.48946797550765 $283 -1.4210854715202004e-014 $278 $374 forward 7 unknown #
coedge $-1 $281 $187 $375 $376 reversed $282 $-1 #
coedge $-1 $187 $280 $369 $377 reversed $282 $-1 #
loop $-1 $-1 $187 $378 #
vertex $-1 $377 $379 #
vertex $-1 $380 $381 #
ellipse-curve $-1 55.744733987753818 6.2631241791472104e-031 -9.9475983006414051e-014 -1 0 0 -2.1458482103638273e-014 3.3747376088058276e-015 -11.677531604870323 1 I I #
coedge $-1 $382 $383 $189 $287 forward $384 $-1 #
edge $-1 $284 -1.5707963267948963 $289 2.8899408907601086e-016 $286 $285 forward 7 unknown #
coedge $-1 $385 $386 $387 $191 forward $355 $-1 #
vertex $-1 $388 $389 #
straight-curve $-1 55.744733987753776 -1.1832913578315177e-030 -11.677531604870428 1 4.4072818311535755e-017 -1.8375871570913693e-015 I I #
coedge $-1 $390 $192 $383 $380 forward $294 $-1 #
coedge $-1 $192 $390 $194 $296 reversed $294 $-1 #
coedge $-1 $391 $375 $186 $193 reversed $271 $-1 #
loop $-1 $-1 $192 $392 #
straight-curve $-1 55.744733987753804 11.677531604870335 -9.9475983006414026e-014 1 4.4072818311535755e-017 -1.8375871570913693e-015 I I #
edge $-1 $198 -1.0539563149632828e-013 $393 11.677531604870428 $292 $394 forward 7 unknown #
coedge $-1 $395 $387 $195 $298 forward $396 $-1 #
edge $-1 $197 -4.9136550657343305e-015 $393 11.677531604870335 $195 $397 forward 7 unknown #
face $-1 $398 $196 $29 $-1 $399 reversed single #
point $-1 -55.744733987753818 -4.9136550657343305e-015 -11.677531604870429 #
point $-1 -55.744733987753804 11.677531604870335 1.0539563149632828e-013 #
loop $-1 $-1 $206 $124 #
coedge $-1 $303 $303 $204 $304 forward $200 $-1 #
edge $400 $401 -3.1415926535897931 $401 3.1415926535897931 $204 $402 forward 7 unknown #
vertex $-1 $205 $403 #
ellipse-curve $-1 55.744733987753804 -5.0823111019899043e-016 -9.9601903384296636e-014 -1 -1.6653345369377348e-016 1.8375871570913693e-015 -2.1458482103638273e-014 3.3747376088058276e-015 -11.677531604870323 1 I I #
vertex $-1 $207 $404 #
ellipse-curve $-1 44.213111330757428 7.5391082265952036e-015 -7.8593381802605222e-014 1 1.6653345369377348e-016 -1.8375871570913693e-015 5.9888964455479962e-015 -5.4275064180908355e-016 3.259108784275321 1 I I #
point $-1 55.744733987753811 6.9963575847861205e-015 3.2591087842752202 #
loop $-1 $-1 $216 $132 #
coedge $-1 $311 $311 $214 $312 forward $210 $-1 #
edge $405 $406 -3.1415926535897931 $406 3.1415926535897931 $214 $407 forward 7 unknown #
vertex $-1 $215 $408 #
ellipse-curve $-1 44.213111330757407 4.5932971068445686e-015 -7.9999493616179313e-014 -1 -1.6653345369377348e-016 1.8375871570913693e-015 -2.1458482103638273e-014 3.3747376088058276e-015 -11.677531604870323 1 I I #
vertex $-1 $217 $409 #
ellipse-curve $-1 -1.25480330071818 -4.6650149823228786e-016 5.3915550529153196e-015 1 1.6653345369377348e-016 -1.8375871570913693e-015 9.3445911480871902e-015 -8.4686434123235636e-016 5.0852505754765431 1 I I #
point $-1 44.213111330757414 -2.8024345342095455e-014 -5.0852505754766248 #
loop $-1 $-1 $226 $140 #
coedge $-1 $319 $319 $224 $320 forward $220 $-1 #
edge $410 $411 -3.1415926535897931 $411 3.1415926535897931 $224 $412 forward 7 unknown #
vertex $-1 $225 $413 #
ellipse-curve $-1 -55.744733987753783 -1.0649067419926836e-014 1.0511717633740751e-013 1 1.6653345369377348e-016 -1.8375871570913693e-015 -2.1458482103638273e-014 3.3747376088058276e-015 -11.677531604870323 1 I I #
vertex $-1 $227 $414 #
ellipse-curve $-1 -24.659474276783513 -4.3641621884428674e-015 4.8399677854482093e-014 -1 -1.6653345369377348e-016 1.8375871570913693e-015 9.3445911480871902e-015 -8.4686434123235636e-016 5.0852505754765431 1 I I #
point $-1 -55.744733987753797 2.4887410337885011e-014 -5.0852505754764366 #
model_id-kcp-attrib $-1 $-1 $230 $149 1 990654396 40 -735576063 7 #
model_id-kcp-attrib $-1 $-1 $-1 $231 1 990654396 40 -735576063 8 #
face $415 $416 $417 $10 $-1 $418 reversed single #
coedge $-1 $329 $329 $235 $331 reversed $232 $-1 #
coedge $-1 $330 $330 $419 $420 reversed $234 $-1 #
edge $421 $422 0 $422 6.2831853071796004 $235 $423 forward 7 unknown #
loop $-1 $-1 $236 $416 #
vertex $-1 $237 $424 #
ellipse-curve $-1 1.2240901249144321e-014 -1.3481466746680494e-045 111.48946797550761 -1.2246063538223773e-016 1.348715221273768e-047 -1 8.4686434123235656e-016 5.0852505754765431 3.7323698245652058e-032 1 I I #
point $-1 -2.7922819290011853e-014 -5.0852505754765431 80.404208264537331 #
coedge $-1 $336 $336 $425 $426 forward $241 $-1 #
model_id-kcp-attrib $-1 $-1 $-1 $243 1 990654396 50 -734920702 2 #
plane-surface $-1 55.744733987753818 0 0 -1 0 0 0 0 1 forward_v I I I I #
coedge $-1 $248 $246 $250 $343 reversed $164 $-1 #
edge $-1 $261 -11.677531604870428 $345 11.677531604870428 $260 $427 forward 7 unknown #
vertex $-1 $343 $428 #
straight-curve $-1 -55.744733987753818 -11.677531604870335 0 0 0 -1 I I #
edge $-1 $341 -11.677531604870335 $345 11.677531604870335 $339 $429 forward 7 unknown #
straight-curve $-1 0 -11.677531604870335 -11.677531604870428 -1 0 0 I I #
vertex $-1 $253 $430 #
straight-curve $-1 0 11.677531604870335 -11.677531604870428 1 0 0 I I #
point $-1 55.744733987753818 11.677531604870335 -11.677531604870428 #
point $-1 55.744733987753818 -11.677531604870335 -11.677531604870428 #
straight-curve $-1 -55.744733987753818 0 11.677531604870428 0 -1 0 I I #
point $-1 -55.744733987753818 11.677531604870335 11.677531604870428 #
point $-1 -55.744733987753818 -11.677531604870335 11.677531604870428 #
straight-curve $-1 55.744733987753818 -11.677531604870335 0 0 0 -1 I I #
straight-curve $-1 55.744733987753818 11.677531604870335 0 0 0 -1 I I #
face $-1 $378 $431 $29 $-1 $432 reversed single #
loop $-1 $-1 $288 $270 #
plane-surface $-1 0 0 -11.677531604870428 0 0 1 1 0 0 forward_v I I I I #
coedge $-1 $433 $273 $434 $435 reversed $183 $-1 #
coedge $-1 $273 $433 $436 $437 reversed $183 $-1 #
coedge $-1 $438 $439 $440 $276 forward $441 $-1 #
coedge $-1 $442 $443 $274 $361 forward $444 $-1 #
edge $-1 $289 2.8899408907601086e-016 $365 1.570796326794897 $360 $285 forward 7 unknown #
coedge $-1 $445 $446 $275 $363 forward $447 $-1 #
edge $-1 $364 -1.570796326794897 $197 -2.8899408907601096e-016 $362 $199 forward 7 unknown #
vertex $-1 $448 $449 #
vertex $-1 $450 $451 #
straight-curve $-1 55.744733987753804 -11.677531604870335 -9.9475983006414026e-014 1 4.4072818311535755e-017 -1.8375871570913693e-015 I I #
coedge $-1 $452 $453 $277 $368 forward $454 $-1 #
edge $-1 $198 1.5707963267948963 $373 3.1415926535897931 $367 $199 forward 7 unknown #
coedge $-1 $455 $278 $281 $377 forward $372 $-1 #
coedge $-1 $278 $455 $452 $456 forward $372 $-1 #
coedge $-1 $457 $458 $433 $279 reversed $459 $-1 #
loop $-1 $-1 $278 $460 #
vertex $-1 $461 $462 #
straight-curve $-1 55.744733987753833 1.1832913578315177e-030 11.677531604870428 1 4.4072818311535755e-017 -1.8375871570913693e-015 I I #
coedge $-1 $293 $463 $280 $376 forward $271 $-1 #
edge $-1 $464 -11.677531604870428 $284 9.9475983006414051e-014 $280 $465 forward 7 unknown #
edge $-1 $283 -3.1942336508027852e-031 $464 11.677531604870335 $281 $466 forward 7 unknown #
face $-1 $467 $282 $29 $-1 $432 reversed single #
point $-1 55.744733987753818 -3.1942336508027852e-031 11.677531604870428 #
edge $-1 $284 9.9475983006414051e-014 $468 11.677531604870428 $383 $465 forward 7 unknown #
point $-1 55.744733987753818 11.677531604870335 -9.9475983006414051e-014 #
coedge $-1 $383 $286 $469 $470 reversed $384 $-1 #
coedge $-1 $286 $382 $291 $380 reversed $384 $-1 #
loop $-1 $-1 $286 $467 #
coedge $-1 $471 $288 $443 $388 forward $355 $-1 #
coedge $-1 $288 $471 $445 $472 forward $355 $-1 #
coedge $-1 $297 $469 $120 $191 reversed $396 $-1 #
edge $-1 $289 -1.5720482009097203e-030 $473 11.677531604870335 $443 $474 forward 7 unknown #
point $-1 55.744733987753818 1.5720482009097203e-030 -11.677531604870428 #
coedge $-1 $292 $291 $395 $475 reversed $294 $-1 #
coedge $-1 $463 $293 $453 $476 reversed $271 $-1 #
face $-1 $-1 $294 $29 $-1 $272 reversed single #
vertex $-1 $475 $477 #
straight-curve $-1 -55.744733987753818 11.677531604870335 0 0 0 -1 I I #
coedge $-1 $469 $297 $390 $475 forward $396 $-1 #
loop $-1 $-1 $387 $478 #
straight-curve $-1 -55.744733987753818 0 -11.677531604870428 0 1 0 I I #
face $-1 $479 $454 $29 $-1 $399 reversed single #
plane-surface $-1 -55.744733987753818 0 0 1 0 0 0 0 -1 forward_v I I I I #
convexity-sys-attrib $-1 $-1 $-1 $304 #
vertex $-1 $304 $480 #
ellipse-curve $-1 44.213111330757428 -5.0823111019899043e-016 -7.828562131149363e-014 -1 -1.6653345369377348e-016 1.8375871570913693e-015 -2.1458482103638273e-014 3.3747376088058276e-015 -11.677531604870323 1 I I #
point $-1 55.744733987753825 -2.4529307789762361e-015 11.677531604870223 #
point $-1 44.213111330757435 6.9963575847861205e-015 3.2591087842752424 #
convexity-sys-attrib $-1 $-1 $-1 $312 #
vertex $-1 $312 $481 #
ellipse-curve $-1 -1.25480330071818 -2.5121302507564332e-015 5.2656346750327096e-015 -1 -1.6653345369377348e-016 1.8375871570913693e-015 -2.1458482103638273e-014 3.3747376088058276e-015 -11.677531604870323 1 I I #
point $-1 44.213111330757428 2.6485974380673233e-015 11.677531604870243 #
point $-1 -1.2548033007181729 -3.5129772699696457e-014 -5.0852505754765387 #
convexity-sys-attrib $-1 $-1 $-1 $320 #
vertex $-1 $320 $482 #
ellipse-curve $-1 -24.659474276783513 -3.5436400623258346e-015 4.8273757476599496e-014 1 1.6653345369377348e-016 -1.8375871570913693e-015 -2.1458482103638273e-014 3.3747376088058276e-015 -11.677531604870323 1 I I #
point $-1 -55.744733987753762 -1.5453842968761246e-014 11.677531604870428 #
point $-1 -24.659474276783527 3.1992837695486013e-014 -5.0852505754764952 #
model_id-kcp-attrib $-1 $-1 $-1 $328 1 990654396 40 -735576063 9 #
face $483 $-1 $332 $10 $-1 $484 forward single #
loop $-1 $485 $419 $328 #
plane-surface $-1 1.1275702593849248e-014 6.0715321659188233e-015 11.53162265699639 1.2246063538223773e-016 -1.348715221273768e-047 1 1.6653345369377323e-013 1000 7.3395986474382176e-030 forward_v I I I I #
coedge $-1 $419 $419 $330 $420 forward $417 $-1 #
edge $-1 $486 0 $486 6.2831853071796004 $419 $487 forward 7 unknown #
attrib_edge_convexity-kcp-attrib $-1 $488 $-1 $331 1 #
vertex $-1 $331 $489 #
ellipse-curve $-1 -5.4480809957558043e-016 -4.3368086899420187e-016 1.9539925233402755e-014 0 2.0393792551737924e-032 1 5.4275064180908375e-016 3.259108784275321 2.3920550424921162e-032 1 I I #
point $-1 1.3087765590376677e-014 5.0852505754765431 111.48946797550761 #
coedge $-1 $425 $425 $336 $426 reversed $485 $-1 #
edge $-1 $490 0 $490 6.2831853071796004 $336 $491 forward 7 unknown #
straight-curve $-1 -55.744733987753818 11.677531604870335 0 0 0 -1 I I #
point $-1 -55.744733987753818 -11.677531604870335 -11.677531604870428 #
straight-curve $-1 -55.744733987753818 0 -11.677531604870428 0 1 0 I I #
point $-1 -55.744733987753818 11.677531604870335 -11.677531604870428 #
loop $-1 $-1 $436 $354 #
plane-surface $-1 55.744733987753818 0 0 -1 0 0 0 0 1 forward_v I I I I #
coedge $-1 $358 $357 $185 $279 forward $183 $-1 #
coedge $-1 $492 $493 $357 $435 forward $494 $-1 #
edge $-1 $373 -3.1415926535897931 $364 -1.570796326794897 $434 $199 forward 7 unknown #
coedge $-1 $495 $496 $358 $437 forward $431 $-1 #
edge $-1 $365 1.570796326794897 $283 3.1415926535897931 $436 $285 forward 7 unknown #
coedge $-1 $497 $359 $496 $498 reversed $441 $-1 #
coedge $-1 $359 $497 $492 $499 forward $441 $-1 #
coedge $-1 $500 $501 $184 $276 reversed $502 $-1 #
loop $-1 $-1 $359 $503 #
coedge $-1 $443 $360 $501 $450 forward $444 $-1 #
coedge $-1 $360 $442 $385 $388 reversed $444 $-1 #
loop $-1 $-1 $360 $504 #
coedge $-1 $446 $362 $386 $472 reversed $447 $-1 #
coedge $-1 $362 $445 $500 $448 reversed $447 $-1 #
loop $-1 $-1 $362 $505 #
edge $-1 $364 -1.0539563149632828e-013 $506 11.677531604870428 $446 $507 forward 7 unknown #
point $-1 -55.744733987753804 -11.677531604870335 1.0539563149632828e-013 #
edge $-1 $365 9.9475983006414051e-014 $473 11.677531604870428 $442 $508 forward 7 unknown #
point $-1 55.744733987753818 -11.677531604870335 -9.9475983006414051e-014 #
coedge $-1 $453 $367 $370 $456 reversed $454 $-1 #
coedge $-1 $367 $452 $391 $476 forward $454 $-1 #
loop $-1 $-1 $367 $398 #
coedge $-1 $370 $369 $463 $509 forward $372 $-1 #
edge $-1 $510 -11.677531604870335 $373 4.913655065734332e-015 $452 $511 forward 7 unknown #
coedge $-1 $512 $371 $493 $461 forward $459 $-1 #
coedge $-1 $371 $512 $495 $513 forward $459 $-1 #
loop $-1 $-1 $371 $514 #
face $-1 $478 $372 $29 $-1 $515 forward single #
edge $-1 $373 4.913655065734332e-015 $516 11.677531604870335 $493 $511 forward 7 unknown #
point $-1 -55.744733987753818 -4.913655065734332e-015 11.677531604870426 #
coedge $-1 $375 $391 $455 $509 reversed $271 $-1 #
vertex $-1 $377 $517 #
straight-curve $-1 55.744733987753818 11.677531604870335 0 0 0 -1 I I #
straight-curve $-1 55.744733987753818 0 11.677531604870428 0 1 0 I I #
face $-1 $504 $384 $29 $-1 $432 reversed single #
vertex $-1 $470 $518 #
coedge $-1 $387 $395 $382 $470 forward $396 $-1 #
edge $-1 $468 -11.677531604870335 $289 -1.5720482009097203e-030 $382 $474 forward 7 unknown #
coedge $-1 $386 $385 $519 $520 forward $355 $-1 #
edge $-1 $506 -11.677531604870335 $197 -4.9136550657343305e-015 $445 $397 forward 7 unknown #
vertex $-1 $450 $521 #
straight-curve $-1 55.744733987753818 0 -11.677531604870428 0 -1 0 I I #
edge $-1 $393 -55.744733987753818 $468 55.744733987753818 $390 $522 forward 7 unknown #
edge $-1 $510 -11.677531604870428 $198 -1.0539563149632828e-013 $391 $394 forward 7 unknown #
point $-1 -55.744733987753818 11.677531604870335 -11.677531604870428 #
face $-1 $503 $396 $29 $-1 $356 reversed single #
face $-1 $523 $494 $29 $-1 $399 reversed single #
point $-1 44.213111330757449 -2.4529307789762361e-015 11.677531604870245 #
point $-1 -1.2548033007181585 -4.4568299195336786e-015 11.677531604870328 #
point $-1 -24.659474276783492 -8.3484156111602441e-015 11.677531604870371 #
model_id-kcp-attrib $-1 $-1 $-1 $416 1 990654396 40 -735576063 10 #
plane-surface $-1 1.3087765590376677e-014 5.0852505754765431 111.48946797550761 1.2246063538223773e-016 -1.348715221273768e-047 1 1.6653345369377323e-013 1000 7.3395986474382176e-030 forward_v I I I I #
loop $-1 $-1 $425 $328 #
vertex $-1 $420 $524 #
ellipse-curve $-1 -4.3368086899420187e-016 -4.3368086899420172e-016 11.53162265699639 1.2246063538223773e-016 -1.348715221273768e-047 1 5.4275064180908375e-016 3.259108784275321 2.3920550424921162e-032 1 I I #
convexity-sys-attrib $-1 $-1 $421 $331 #
point $-1 -2.0574577664969122e-018 3.2591087842753206 1.9539925233402755e-014 #
vertex $-1 $426 $525 #
ellipse-curve $-1 0 0 11.53162265699639 1.2246063538223773e-016 -1.348715221273768e-047 1 8.4686434123235656e-016 5.0852505754765431 3.7323698245652058e-032 1 I I #
coedge $-1 $493 $434 $439 $499 reversed $494 $-1 #
coedge $-1 $434 $492 $457 $461 reversed $494 $-1 #
loop $-1 $-1 $434 $479 #
coedge $-1 $496 $436 $458 $513 reversed $431 $-1 #
coedge $-1 $436 $495 $438 $498 forward $431 $-1 #
coedge $-1 $439 $438 $512 $526 reversed $441 $-1 #
edge $-1 $527 -11.677531604870428 $365 9.9475983006414051e-014 $496 $508 forward 7 unknown #
edge $-1 $516 -11.677531604870428 $364 -1.0539563149632828e-013 $492 $507 forward 7 unknown #
coedge $-1 $519 $440 $446 $448 forward $502 $-1 #
coedge $-1 $440 $519 $442 $450 reversed $502 $-1 #
loop $-1 $-1 $440 $523 #
face $-1 $392 $441 $29 $-1 $528 reversed single #
face $-1 $514 $444 $29 $-1 $432 reversed single #
face $-1 $299 $447 $29 $-1 $399 reversed single #
vertex $-1 $472 $529 #
straight-curve $-1 -55.744733987753818 -11.677531604870335 0 0 0 -1 I I #
straight-curve $-1 55.744733987753818 -11.677531604870335 0 0 0 -1 I I #
edge $-1 $464 -55.744733987753818 $510 55.744733987753818 $463 $530 forward 7 unknown #
vertex $-1 $509 $531 #
straight-curve $-1 -55.744733987753818 0 11.677531604870428 0 -1 0 I I #
coedge $-1 $458 $457 $497 $526 forward $459 $-1 #
edge $-1 $527 -11.677531604870335 $283 -3.1942336508027852e-031 $495 $466 forward 7 unknown #
face $-1 $505 $459 $29 $-1 $515 forward single #
plane-surface $-1 0 0 11.677531604870428 0 0 1 1 0 0 forward_v I I I I #
vertex $-1 $461 $532 #
point $-1 55.744733987753818 11.677531604870335 11.677531604870428 #
point $-1 55.744733987753818 11.677531604870335 -11.677531604870428 #
coedge $-1 $501 $500 $471 $520 reversed $502 $-1 #
edge $-1 $473 -55.744733987753818 $506 55.744733987753818 $519 $533 forward 7 unknown #
point $-1 55.744733987753818 -11.677531604870335 -11.677531604870428 #
straight-curve $-1 0 11.677531604870335 -11.677531604870428 1 0 0 I I #
face $-1 $460 $502 $29 $-1 $528 reversed single #
point $-1 1.0906977281488187e-016 3.2591087842753206 11.53162265699639 #
point $-1 8.4686434123235656e-016 5.0852505754765431 11.53162265699639 #
edge $-1 $516 -55.744733987753818 $527 55.744733987753818 $497 $534 forward 7 unknown #
vertex $-1 $513 $535 #
plane-surface $-1 0 -11.677531604870335 0 0 1 0 0 0 1 forward_v I I I I #
point $-1 -55.744733987753818 -11.677531604870335 -11.677531604870428 #
straight-curve $-1 0 11.677531604870335 11.677531604870428 -1 0 0 I I #
point $-1 -55.744733987753818 11.677531604870335 11.677531604870428 #
point $-1 -55.744733987753818 -11.677531604870335 11.677531604870428 #
straight-curve $-1 0 -11.677531604870335 -11.677531604870428 -1 0 0 I I #
straight-curve $-1 0 -11.677531604870335 11.677531604870428 1 0 0 I I #
point $-1 55.744733987753818 -11.677531604870335 11.677531604870428 #
End-of-ACIS-data 