**ABCDEFGHIJKLMNOPQRSTUVWXYZabcdefghijklmnopqrstuvwxyz**************************
**PARASOLID !"#$%&'()*+,-./:;<=>?@[\]^_`{|}~0123456789**************************
**PART1;
MC=unknown;
MC_MODEL=unknown;
MC_ID=unknown;
OS=WindowsNT;
OS_RELEASE=4.0;
FRU=unknown;
APPL=IronCAD;
SITE=Visionary Design Systems Inc, Atlanta, GA;
USER=market;
FORMAT=text;
GUISE=transmit;
KEY=D:\Ning\eclipse\ZData\nativeICS\ICS3\impeller_shaft;
FILE=D:\Ning\eclipse\ZData\nativeICS\ICS3\impeller_shaft.X_T;
DATE=unknown;
**PART2;
SCH=SCH_1100129_11004;
USFLD_SIZE=0;
**PART3;
**END_OF_HEADER*****************************************************************
T51 : TRANSMIT FILE created by modeller version 110012917 SCH_1100129_110040 12
 1 143 0 0 0 0 0 0 1e3 1e-8 0 2 0 1 0 1 1 3 4 5 0 6 7 0 13 3 31 0 1 0 8 0 0 9 0
 51 4 30 0 10 11 0 0 --.03625632049240825 -.0460900850612972 .0500548379068434 1
 1665334536937735e-31 -183758715709137e-29 .00508525057547654 -183758715709137e-
29 166533453693773e-30 -1 31 5 77 0 12 13 0 0 +-.00517106078143799 -.04609008506
12972 .0500548379068433 -1 -1665334536937735e-31 183758715709137e-29 18375871570
9137e-29 -166533453693773e-30 1 .00508525057547654 19 6 1 0 1 9 0 14 V16 7 68 0
 ?15 0 16 13 0 0 1 17 15 0 17 15 15 0 18 7 0 0 +16 16 41 0 ?19 7 20 21 0 0 1 31
 13 71 0 7 22 5 0 +.01823361019462735 -.0460900850612972 .0500548379068433 -1 -1
665334536937735e-31 183758715709137e-29 183758715709137e-29 -166533453693773e-30
 1 .00508525057547654 31 22 6 0 20 23 13 0 +-.03625632049240825 -.04609008506129
72 .0500548379068434 -1 -1665334536937735e-31 183758715709137e-29 18375871570913
7e-29 -166533453693773e-30 1 .00508525057547654 16 20 5 0 ?24 16 25 22 0 0 1 31
 23 25 0 25 26 22 0 +.063701524826103 -.0460900850612972 .0500548379068432 -1 -1
665334536937735e-31 183758715709137e-29 183758715709137e-29 -166533453693773e-30
 1 .00508525057547654 16 25 22 0 ?27 20 28 23 0 0 1 31 26 66 0 28 21 23 0 +.0752
331474830993 -.0460900850612972 .0500548379068432 1 4407281831153575e-32 -183758
715709137e-29 183758715709137e-29 -166533453693773e-30 1 .00325910878427532 16 2
8 49 0 ?29 25 12 26 0 0 1 31 21 67 0 16 30 26 0 +.063701524826103 -.046090085061
2972 .0500548379068432 1 4407281831153575e-32 -183758715709137e-29 1837587157091
37e-29 -166533453693773e-30 1 .00325910878427532 31 30 110 0 31 32 21 0 +-.00517
106078143799 -.0460900850612972 .0500548379068433 -1 -1665334536937735e-31 18375
8715709137e-29 183758715709137e-29 -166533453693773e-30 1 .01167753160487032 16
 31 81 0 ?33 12 34 30 0 0 1 31 32 111 0 34 0 30 0 +.01823361019462735 -.04609008
50612972 .0500548379068433 -1 -1665334536937735e-31 183758715709137e-29 18375871
5709137e-29 -166533453693773e-30 1 .01167753160487032 16 34 84 0 ?35 31 0 32 0 0
 1 17 35 0 36 35 35 0 37 34 0 0 +15 36 98 0 35 38 0 17 37 0 39 37 37 0 35 34 0 0
 -15 39 93 0 37 40 17 14 40 91 0 ?38 41 39 3 42 -0 0 38 41 14 15 17 94 0 15 40 0
 14 38 95 0 ?43 40 44 3 45 -0 0 43 40 14 14 41 87 0 ?40 46 47 3 48 +0 0 40 46 14
 50 42 109 0 40 0 48 0 +.01823361019462735 -.0460900850612972 .0500548379068433
 -1 -1665334536937735e-31 183758715709137e-29 183758715709137e-29 -1665334536937
73e-30 1 13 14 3 0 0 0 0 0 0 6 8 14 8 72 0 ?49 0 50 3 4 -10 10 49 0 14 14 49 44
 0 ?51 8 52 3 53 -0 0 51 8 14 15 50 28 0 27 8 54 14 10 27 0 ?0 43 55 3 4 -8 8 0
 43 14 14 43 8 0 ?10 38 56 3 11 +0 0 10 38 14 15 55 75 0 57 10 58 17 57 0 55 57
 57 0 59 12 0 0 +15 58 26 0 60 10 0 17 60 0 58 60 60 0 24 20 0 0 -17 24 0 56 24
 24 0 60 20 0 0 +15 56 7 0 24 43 0 17 59 0 61 59 59 0 57 12 0 0 -16 12 86 0 ?57
 28 31 5 0 0 1 15 61 90 0 59 41 0 50 11 9 0 43 53 4 0 +-.03625632049240825 -.046
0900850612972 .0500548379068434 -1 -1665334536937735e-31 183758715709137e-29 183
758715709137e-29 -166533453693773e-30 1 50 53 24 0 49 62 11 0 +.063701524826103
 -.0460900850612972 .0500548379068432 -1 -1665334536937735e-31 183758715709137e-
29 183758715709137e-29 -166533453693773e-30 1 51 62 63 0 51 63 53 0 -.0752331474
830993 -.0460900850612972 .0500548379068432 -1 -4407281831153575e-32 18375871570
9137e-29 .00325910878427532 -183758715709137e-29 166533453693773e-30 -1 14 51 51
 0 ?46 49 64 3 62 -0 0 46 49 14 50 63 64 0 46 45 62 0 +.0752331474830993 -.04609
00850612972 .0500548379068432 1 4407281831153575e-32 -183758715709137e-29 183758
715709137e-29 -166533453693773e-30 1 14 46 55 0 ?41 51 65 3 63 +0 0 41 51 14 51
 45 107 0 38 48 63 0 --.00517106078143799 -.0460900850612972 .0500548379068433 1
 1665334536937735e-31 -183758715709137e-29 .01167753160487032 -183758715709137e-
29 166533453693773e-30 -1 50 48 108 0 41 42 45 0 +-.00517106078143799 -.04609008
50612972 .0500548379068433 -1 -1665334536937735e-31 183758715709137e-29 18375871
5709137e-29 -166533453693773e-30 1 15 65 57 0 29 46 0 17 29 0 65 29 29 0 66 28 0
 0 +17 66 0 64 66 66 0 29 28 0 0 -15 64 53 0 66 51 67 15 67 54 0 19 51 0 17 19 0
 67 19 19 0 68 16 0 0 +17 68 0 69 68 68 0 19 16 0 0 -15 69 43 0 68 49 0 17 27 0
 50 27 27 0 70 25 0 0 +15 54 70 0 18 8 0 17 18 0 54 18 18 0 15 7 0 0 -17 70 0 52
 70 70 0 27 25 0 0 -15 52 21 0 70 49 69 15 47 89 0 33 41 61 17 33 0 47 33 33 0 7
1 31 0 0 +17 71 0 44 71 71 0 33 31 0 0 -15 44 97 0 71 38 36 19 9 32 0 1 0 6 3 S1
 0 
