600 0 2 0           
24 FBMach with ACIS - 6.0.3 13 ACIS 6.0.3 NT 24 Mon Apr 01 00:22:57 2002 
1 9.9999999999999995e-007 1e-010 
body $2 $3 $-1 $4 #
bdycol-kcp $-1 1 5 $5 $6 $7 $8 $9 #
model_id-kcp-attrib $-1 $10 $-1 $0 1 1017638577 70 -129630207 1 #
lump $-1 $-1 $11 $0 #
transform $-1 1 1.4882185616252457e-046 0 1.4882185616252457e-046 1 0 0 0 1 0 0 0 1 rotate no_reflect no_shear #
body $12 $13 $-1 $14 #
body $15 $16 $-1 $17 #
body $18 $19 $-1 $20 #
body $21 $22 $-1 $23 #
body $24 $25 $-1 $26 #
aggregate_advspl_attribute-aggregate_geombuild_base_attribute-aggregate_body_attribute-attrib_HH-attrib $-1 $27 $2 $0 F #
shell $-1 $-1 $-1 $28 $-1 $3 #
model_id-kcp-attrib $-1 $-1 $-1 $5 1 1017638577 70 -129630206 1 #
lump $-1 $-1 $29 $5 #
transform $-1 1 0 0 0 1 0 0 0 1 19.488413495345533 -46.090085061297188 50.054837906843318 1 no_rotate no_reflect no_shear #
rgb_color-st-attrib $-1 $30 $-1 $6 0.5 1 1 #
lump $-1 $-1 $31 $6 #
transform $-1 1 0 0 0 1 0 0 0 1 19.488413495345533 -46.090085061297188 50.054837906843318 1 no_rotate no_reflect no_shear #
rgb_color-st-attrib $-1 $32 $-1 $7 1 0.5 1 #
lump $-1 $-1 $33 $7 #
transform $-1 1 0 0 0 1 0 0 0 1 19.488413495345533 -46.090085061297188 50.054837906843318 1 no_rotate no_reflect no_shear #
rgb_color-st-attrib $-1 $34 $-1 $8 1 0.5 1 #
lump $-1 $-1 $35 $8 #
transform $-1 1 0 0 0 1 0 0 0 1 19.488413495345533 -46.090085061297188 50.054837906843318 1 no_rotate no_reflect no_shear #
rgb_color-st-attrib $-1 $36 $-1 $9 1 0.5 1 #
lump $-1 $-1 $37 $9 #
transform $-1 1 0 0 0 1 0 0 0 1 19.488413495345533 -46.090085061297188 50.054837906843318 1 no_rotate no_reflect no_shear #
aggregate_secndry_attribute-aggregate_geombuild_base_attribute-aggregate_body_attribute-attrib_HH-attrib $-1 $38 $10 $0 F #
face $39 $40 $41 $11 $-1 $42 reversed single #
shell $-1 $-1 $-1 $43 $-1 $13 #
model_id-kcp-attrib $-1 $-1 $15 $6 1 1017638577 140 -125042685 1 #
shell $-1 $-1 $-1 $44 $-1 $16 #
model_id-kcp-attrib $-1 $-1 $18 $7 1 1017638577 240 -118489084 1 #
shell $-1 $-1 $-1 $45 $-1 $19 #
model_id-kcp-attrib $-1 $-1 $21 $8 1 1017638577 300 -131334139 1 #
shell $-1 $-1 $-1 $46 $-1 $22 #
model_id-kcp-attrib $-1 $-1 $24 $9 1 1017638577 350 -128057338 1 #
shell $-1 $-1 $-1 $47 $-1 $25 #
aggregate_sharped_attribute-aggregate_geombuild_base_attribute-aggregate_body_attribute-attrib_HH-attrib $-1 $48 $27 $0 F #
model_id-kcp-attrib $-1 $49 $-1 $28 1 1017638577 70 -129630207 2 #
face $50 $51 $52 $11 $-1 $53 forward single #
loop $-1 $54 $55 $28 #
plane-surface $-1 18.233610194627367 -46.090085061297216 50.054837906843311 -1 -1.6653345369377348e-016 1.8375871570913693e-015 1.8375871570913693e-012 -1.6653345369377315e-013 1000 forward_v I I I I #
face $-1 $56 $57 $29 $-1 $58 forward single #
face $-1 $59 $60 $31 $-1 $61 reversed single #
face $-1 $62 $63 $33 $-1 $64 forward single #
face $-1 $65 $66 $35 $-1 $67 forward single #
face $-1 $68 $69 $37 $-1 $70 forward single #
aggregate_reblend_attribute-aggregate_geombuild_base_attribute-aggregate_body_attribute-attrib_HH-attrib $-1 $71 $38 $0 F #
attrib_hh_face_geombuild-attrib_entity_geombuild-individual_entity_attribute-attrib_HH-attrib $-1 $-1 $39 $28 F #
model_id-kcp-attrib $-1 $72 $-1 $40 1 1017638577 70 -129630207 3 #
face $73 $74 $75 $11 $-1 $76 forward single #
loop $-1 $77 $78 $40 #
plane-surface $-1 -5.1710607814379657 -46.090085061297195 61.732369511713664 -1 -1.6653345369377348e-016 1.8375871570913693e-015 1.8375871570913693e-012 -1.6653345369377315e-013 1000 forward_v I I I I #
loop $-1 $-1 $79 $28 #
coedge $80 $55 $55 $81 $82 reversed $41 $-1 #
face $-1 $83 $84 $29 $-1 $85 reversed single #
loop $-1 $-1 $86 $43 #
plane-surface $-1 0 0 11.677531604870346 0 0 1 1 0 0 forward_v I I I I #
face $-1 $87 $88 $31 $-1 $61 reversed single #
loop $-1 $-1 $89 $44 #
cone-surface $-1 55.744733987753811 -7.1054273576010019e-015 -1.2079226507921703e-013 1 4.4072818311535755e-017 -1.8375871570913693e-015 -2.1458482103638273e-014 1.4300379400285805e-015 -11.677531604870323 1 I I 0 1 11.677531604870323 forward I I I I #
face $-1 $90 $91 $33 $-1 $92 forward single #
loop $-1 $93 $94 $45 #
cone-surface $-1 44.213111330757414 7.1054273576010011e-015 -1.06581410364015e-013 1 0 -1.8485067285712959e-015 6.0244845168787468e-015 -5.4275064180908355e-016 3.259108784275321 1 I I 0 -1 3.259108784275321 forward I I I I #
face $-1 $95 $96 $35 $-1 $97 forward single #
loop $-1 $98 $99 $46 #
cone-surface $-1 -1.25480330071818 -4.6650149823228786e-016 -2.3030154377488688e-014 1 1.5627343842776996e-016 -1.8752812611332395e-015 9.5362751123581842e-015 -8.4686434123235636e-016 5.0852505754765431 1 I I 0 -1 5.0852505754765431 forward I I I I #
face $-1 $100 $101 $37 $-1 $102 forward single #
loop $-1 $103 $104 $47 #
cone-surface $-1 -24.659474276783527 -4.3641621884428705e-015 1.9977968424078111e-014 -1 -2.2857867116656041e-016 1.8286293693324833e-015 9.2990385527313189e-015 -8.4686434123235636e-016 5.0852505754765431 1 I I 0 -1 5.0852505754765431 forward I I I I #
aggregate_isospline_attribute-aggregate_geombuild_base_attribute-aggregate_body_attribute-attrib_HH-attrib $-1 $105 $48 $0 F #
attrib_hh_face_geombuild-attrib_entity_geombuild-individual_entity_attribute-attrib_HH-attrib $-1 $-1 $50 $40 F #
model_id-kcp-attrib $-1 $106 $-1 $51 1 1017638577 70 -129630207 4 #
face $107 $108 $109 $11 $-1 $110 forward single #
loop $-1 $111 $112 $51 #
cone-surface $-1 18.233610194627367 -46.090085061297188 50.054837906843296 -1 -1.6653345369377348e-016 1.8375871570913693e-015 2.1458482103638273e-014 -1.944699668777245e-015 11.677531604870323 1 I I 0 1 11.677531604870323 forward I I I I #
loop $-1 $-1 $113 $40 #
coedge $114 $78 $78 $112 $115 reversed $52 $-1 #
coedge $116 $79 $79 $117 $118 reversed $54 $-1 #
attrib_hh_coedge_geombuild-attrib_entity_geombuild-individual_entity_attribute-attrib_HH-attrib $-1 $-1 $-1 $55 F #
coedge $119 $81 $81 $55 $82 forward $111 $-1 #
edge $120 $121 1.6653345369377323e-016 $121 6.2831853071795862 $81 $122 forward 7 unknown #
face $-1 $123 $124 $29 $-1 $125 reversed single #
loop $-1 $-1 $126 $56 #
plane-surface $-1 0 0 -11.677531604870346 0 0 1 1 0 0 forward_v I I I I #
coedge $-1 $127 $128 $129 $130 forward $57 $-1 #
face $-1 $131 $132 $31 $-1 $61 reversed single #
loop $-1 $-1 $133 $59 #
coedge $-1 $134 $135 $136 $137 reversed $60 $-1 #
face $-1 $138 $139 $33 $-1 $140 forward single #
loop $-1 $141 $142 $62 #
cone-surface $-1 44.213111330757414 -7.6136584677999926e-015 -9.9601903384296598e-014 1 0 -1.8485067285712959e-015 -2.1585995744706755e-014 1.4300379400285805e-015 -11.677531604870323 1 I I 0 1 11.677531604870323 forward I I I I #
loop $-1 $-1 $143 $45 #
coedge $-1 $94 $94 $144 $145 forward $63 $-1 #
face $-1 $146 $147 $35 $-1 $148 forward single #
loop $-1 $149 $150 $65 #
cone-surface $-1 -1.25480330071818 -9.6175576083574359e-015 -1.6050647397770283e-014 1 1.5627343842776996e-016 -1.8752812611332395e-015 -2.1898656194904481e-014 1.4300379400285805e-015 -11.677531604870323 1 I I 0 1 11.677531604870323 forward I I I I #
loop $-1 $-1 $151 $46 #
coedge $-1 $99 $99 $152 $153 forward $66 $-1 #
face $-1 $154 $155 $37 $-1 $156 reversed single #
loop $-1 $157 $158 $68 #
cone-surface $-1 -24.659474276783534 -1.0649067419926838e-014 2.6957475403796541e-014 -1 -2.2857867116656041e-016 1.8286293693324833e-015 -2.1353877253974161e-014 1.4300379400285805e-015 -11.677531604870323 1 I I 0 1 11.677531604870323 forward I I I I #
loop $-1 $-1 $159 $47 #
coedge $-1 $104 $104 $160 $161 forward $69 $-1 #
aggregate_analytic_solver_attribute-aggregate_geombuild_base_attribute-aggregate_body_attribute-attrib_HH-attrib $-1 $162 $71 $0 F #
attrib_hh_face_geombuild-attrib_entity_geombuild-individual_entity_attribute-attrib_HH-attrib $-1 $-1 $73 $51 F #
model_id-kcp-attrib $-1 $163 $-1 $74 1 1017638577 70 -129630207 5 #
face $164 $165 $166 $11 $-1 $167 forward single #
loop $-1 $168 $169 $74 #
cone-surface $-1 63.701524826102961 -46.090085061297181 50.054837906843211 -1 -1.6653345369377348e-016 1.8375871570913693e-015 9.3445911480871902e-015 -8.4686434123235636e-016 5.0852505754765431 1 I I 0 1 5.0852505754765431 forward I I I I #
loop $-1 $-1 $81 $51 #
coedge $170 $112 $112 $78 $115 forward $75 $-1 #
coedge $171 $113 $113 $172 $173 reversed $77 $-1 #
attrib_hh_coedge_geombuild-attrib_entity_geombuild-individual_entity_attribute-attrib_HH-attrib $-1 $-1 $-1 $78 F #
edge $174 $175 -1.6653345369377331e-016 $175 6.2831853071795862 $112 $176 forward 7 unknown #
attrib_hh_coedge_geombuild-attrib_entity_geombuild-individual_entity_attribute-attrib_HH-attrib $-1 $-1 $-1 $79 F #
coedge $177 $117 $117 $79 $118 forward $178 $-1 #
edge $179 $180 -3.1415926535898002 $180 3.141592653589786 $117 $181 forward 7 unknown #
attrib_hh_coedge_geombuild-attrib_entity_geombuild-individual_entity_attribute-attrib_HH-attrib $-1 $-1 $-1 $81 F #
attrib_hh_edge_geombuild-attrib_entity_geombuild-individual_entity_attribute-attrib_HH-attrib $-1 $-1 $-1 $82 F #
vertex $182 $82 $183 #
ellipse-curve $-1 18.233610194627367 -46.090085061297188 50.054837906843296 -1 -1.6653345369377348e-016 1.8375871570913693e-015 2.1458482103638273e-014 -1.944699668777245e-015 11.677531604870323 1 I I #
face $184 $185 $186 $29 $-1 $187 reversed single #
loop $-1 $-1 $188 $83 #
plane-surface $-1 0 -11.677531604870328 0 0 1 0 0 0 1 forward_v I I I I #
coedge $-1 $189 $190 $191 $192 forward $84 $-1 #
coedge $-1 $193 $86 $194 $195 forward $57 $-1 #
coedge $-1 $86 $193 $196 $197 forward $57 $-1 #
coedge $-1 $198 $199 $86 $130 reversed $200 $-1 #
edge $-1 $201 -11.677531604870328 $202 11.677531604870328 $129 $203 forward 7 unknown #
face $-1 $204 $205 $31 $-1 $61 reversed single #
loop $-1 $-1 $206 $87 #
coedge $-1 $207 $208 $209 $210 reversed $88 $-1 #
coedge $-1 $211 $89 $212 $213 forward $60 $-1 #
coedge $-1 $89 $211 $214 $215 reversed $60 $-1 #
coedge $-1 $216 $217 $89 $137 forward $218 $-1 #
edge $-1 $219 -1.224606353822376e-016 $220 1.5707963267948966 $136 $221 forward 7 unknown #
face $-1 $-1 $222 $33 $-1 $223 reversed single #
loop $-1 $224 $225 $90 #
plane-surface $-1 55.744733987753797 -5.0552389267654288e-015 0.89460627521567593 1 2.4305482293538387e-031 -1.7126412445987397e-015 -1.7126412445987397e-015 0 -1 forward_v I I I I #
loop $-1 $-1 $226 $62 #
coedge $-1 $142 $142 $225 $227 forward $91 $-1 #
coedge $-1 $143 $143 $228 $229 reversed $93 $-1 #
coedge $-1 $144 $144 $94 $145 reversed $224 $-1 #
edge $-1 $230 -1.6653345369377264e-016 $230 6.2831853071795862 $94 $231 forward 7 unknown #
face $-1 $-1 $232 $35 $-1 $233 reversed single #
loop $-1 $234 $235 $95 #
plane-surface $-1 44.213111330757414 -8.558184359223662e-016 0.59929827539933056 1 1.6259734014539106e-016 -1.8380704711297745e-015 -1.8380704711297745e-015 0 -1 forward_v I I I I #
loop $-1 $-1 $236 $65 #
coedge $-1 $150 $150 $235 $237 forward $96 $-1 #
coedge $-1 $151 $151 $238 $239 reversed $98 $-1 #
coedge $-1 $152 $152 $99 $153 reversed $234 $-1 #
edge $-1 $240 -3.1415926535898002 $240 3.141592653589786 $99 $241 forward 7 unknown #
face $-1 $-1 $242 $37 $-1 $243 forward single #
loop $-1 $244 $245 $100 #
plane-surface $-1 -55.744733987753804 -1.4799965085261719e-014 0.59929827539951541 1 1.9457681047508382e-016 -1.8731267749011608e-015 -1.8731267749011608e-015 0 -1 forward_v I I I I #
loop $-1 $-1 $246 $68 #
coedge $-1 $158 $158 $245 $247 forward $101 $-1 #
coedge $-1 $159 $159 $248 $249 reversed $103 $-1 #
coedge $-1 $160 $160 $104 $161 reversed $244 $-1 #
edge $-1 $250 -3.1415926535898007 $250 3.1415926535897856 $104 $251 forward 7 unknown #
aggregate_geombuild_attribute-aggregate_geombuild_base_attribute-aggregate_body_attribute-attrib_HH-attrib $-1 $252 $105 $0 #
attrib_hh_face_geombuild-attrib_entity_geombuild-individual_entity_attribute-attrib_HH-attrib $-1 $-1 $107 $74 F #
model_id-kcp-attrib $-1 $253 $-1 $108 1 1017638577 70 -129630207 6 #
face $254 $255 $256 $11 $-1 $257 forward single #
loop $-1 $258 $259 $108 #
cone-surface $-1 63.701524826102961 -46.090085061297181 50.054837906843211 1 4.4072818311535755e-017 -1.8375871570913693e-015 5.9888964455479962e-015 -5.4275064180908355e-016 3.259108784275321 1 I I 0 1 3.259108784275321 forward I I I I #
loop $-1 $-1 $172 $74 #
coedge $260 $169 $169 $261 $262 forward $109 $-1 #
attrib_hh_coedge_geombuild-attrib_entity_geombuild-individual_entity_attribute-attrib_HH-attrib $-1 $-1 $-1 $112 F #
attrib_hh_coedge_geombuild-attrib_entity_geombuild-individual_entity_attribute-attrib_HH-attrib $-1 $-1 $-1 $113 F #
coedge $263 $172 $172 $113 $173 forward $168 $-1 #
edge $264 $265 -3.1415926535898011 $265 3.1415926535897851 $172 $266 forward 7 unknown #
attrib_hh_edge_geombuild-attrib_entity_geombuild-individual_entity_attribute-attrib_HH-attrib $-1 $-1 $-1 $115 F #
vertex $267 $115 $268 #
ellipse-curve $-1 -5.1710607814379799 -46.090085061297195 50.054837906843339 1 1.6653345369377348e-016 -1.8375871570913693e-015 2.1458482103638273e-014 -1.944699668777245e-015 11.677531604870323 1 I I #
attrib_hh_coedge_geombuild-attrib_entity_geombuild-individual_entity_attribute-attrib_HH-attrib $-1 $-1 $-1 $117 F #
loop $-1 $269 $117 $255 #
attrib_hh_edge_geombuild-attrib_entity_geombuild-individual_entity_attribute-attrib_HH-attrib $-1 $-1 $-1 $118 F #
vertex $270 $118 $271 #
ellipse-curve $-1 18.233610194627367 -46.090085061297188 50.054837906843296 1 1.6653345369377348e-016 -1.8375871570913693e-015 9.3445911480871902e-015 -8.4686434123235636e-016 5.0852505754765431 1 I I #
attrib_hh_vertex_geombuild-attrib_entity_geombuild-individual_entity_attribute-attrib_HH-attrib $-1 $-1 $-1 $121 F #
point $-1 18.233610194627389 -46.090085061297188 61.732369511713614 #
model_id-kcp-attrib $-1 $-1 $-1 $123 1 1017638577 70 -129630206 3 #
face $-1 $272 $273 $29 $-1 $274 reversed single #
loop $-1 $-1 $275 $123 #
plane-surface $-1 -55.744733987753797 0 0 1 0 0 0 0 -1 forward_v I I I I #
coedge $-1 $276 $196 $277 $278 forward $124 $-1 #
coedge $-1 $279 $126 $276 $280 forward $84 $-1 #
coedge $-1 $126 $279 $281 $282 forward $84 $-1 #
coedge $-1 $199 $198 $126 $192 reversed $200 $-1 #
edge $-1 $283 -11.677531604870328 $284 11.677531604870328 $191 $285 forward 7 unknown #
coedge $-1 $128 $127 $286 $287 forward $57 $-1 #
coedge $-1 $288 $289 $127 $195 reversed $273 $-1 #
edge $-1 $202 -55.744733987753797 $290 55.744733987753797 $194 $291 forward 7 unknown #
coedge $-1 $188 $292 $128 $197 reversed $124 $-1 #
edge $-1 $293 -55.744733987753797 $201 55.744733987753797 $196 $294 forward 7 unknown #
coedge $-1 $191 $129 $292 $295 forward $200 $-1 #
coedge $-1 $129 $191 $288 $296 reversed $200 $-1 #
loop $-1 $-1 $198 $272 #
vertex $-1 $130 $297 #
vertex $-1 $130 $298 #
straight-curve $-1 55.744733987753797 0 11.677531604870346 0 1 0 I I #
face $-1 $299 $300 $31 $-1 $301 reversed single #
loop $-1 $-1 $302 $131 #
coedge $-1 $303 $304 $302 $305 forward $132 $-1 #
coedge $-1 $306 $133 $307 $308 reversed $88 $-1 #
coedge $-1 $133 $306 $135 $215 forward $88 $-1 #
coedge $-1 $309 $310 $133 $210 forward $311 $-1 #
edge $-1 $312 -3.1415926535897931 $313 -1.5707963267948966 $209 $314 forward 7 unknown #
coedge $-1 $135 $134 $315 $316 reversed $60 $-1 #
coedge $-1 $304 $303 $317 $213 reversed $132 $-1 #
edge $-1 $219 -111.48946797550758 $318 7.1054273576010019e-015 $317 $319 forward 7 unknown #
coedge $-1 $320 $321 $322 $215 forward $323 $-1 #
edge $-1 $220 -111.48946797550761 $313 -1.4210854715202004e-014 $214 $324 forward 7 unknown #
coedge $-1 $217 $136 $321 $325 forward $218 $-1 #
coedge $-1 $136 $216 $326 $327 reversed $218 $-1 #
loop $-1 $-1 $136 $328 #
vertex $-1 $327 $329 #
vertex $-1 $325 $330 #
ellipse-curve $-1 -55.744733987753797 -1.2019082423335332e-014 8.4079349423525249e-014 1 0 0 -2.1458482103638273e-014 1.4300379400285805e-015 -11.677531604870323 1 I I #
loop $-1 $331 $332 $138 #
plane-surface $-1 44.213111330757421 -5.0552389267654288e-015 0.89460627521569724 1 2.4305482293538387e-031 -1.7126412445987397e-015 -1.7126412445987397e-015 0 -1 forward_v I I I I #
loop $-1 $-1 $144 $90 #
coedge $-1 $225 $225 $142 $227 reversed $139 $-1 #
coedge $-1 $226 $226 $332 $333 reversed $141 $-1 #
edge $-1 $334 -3.1415926535897931 $334 3.1415926535897931 $142 $335 forward 7 unknown #
coedge $-1 $228 $228 $143 $229 forward $331 $-1 #
edge $-1 $336 -1.6653345369377264e-016 $336 6.2831853071795862 $143 $337 forward 7 unknown #
vertex $-1 $145 $338 #
ellipse-curve $-1 55.74473398775379 7.1054273576010011e-015 -1.2789769243681801e-013 1 1.6653345369377348e-016 -1.8375871570913693e-015 5.9888964455479962e-015 -5.4275064180908355e-016 3.259108784275321 1 I I #
loop $-1 $339 $340 $146 #
plane-surface $-1 -1.2548033007181789 -7.9612457935233681e-015 0.59929827539941583 1 1.6259734014539106e-016 -1.8380704711297745e-015 -1.8380704711297745e-015 0 -1 forward_v I I I I #
loop $-1 $-1 $152 $95 #
coedge $-1 $235 $235 $150 $237 reversed $147 $-1 #
coedge $-1 $236 $236 $340 $341 reversed $149 $-1 #
edge $-1 $342 -3.1415926535897931 $342 3.1415926535897931 $150 $343 forward 7 unknown #
coedge $-1 $238 $238 $151 $239 forward $339 $-1 #
edge $-1 $344 -3.1415926535898002 $344 3.141592653589786 $151 $345 forward 7 unknown #
vertex $-1 $153 $346 #
ellipse-curve $-1 44.213111330757414 6.638925859368714e-015 -1.0829528266870071e-013 1 1.6653345369377348e-016 -1.8375871570913693e-015 9.3445911480871902e-015 -8.4686434123235636e-016 5.0852505754765431 1 I I #
loop $-1 $347 $348 $154 #
plane-surface $-1 -24.659474276783534 -7.6945377276607184e-015 0.59929827539945857 1 1.9457681047508382e-016 -1.8731267749011608e-015 -1.8731267749011608e-015 0 -1 forward_v I I I I #
loop $-1 $-1 $160 $100 #
coedge $-1 $245 $245 $158 $247 reversed $155 $-1 #
coedge $-1 $246 $246 $348 $349 reversed $157 $-1 #
edge $-1 $350 -3.1415926535897931 $350 3.1415926535897931 $158 $351 forward 7 unknown #
coedge $-1 $248 $248 $159 $249 forward $347 $-1 #
edge $-1 $352 -3.1415926535898007 $352 3.1415926535897856 $159 $353 forward 7 unknown #
vertex $-1 $161 $354 #
ellipse-curve $-1 -55.744733987753797 -1.1469589546043872e-014 7.6821387284886126e-014 -1 -1.6653345369377348e-016 1.8375871570913693e-015 9.3445911480871902e-015 -8.4686434123235636e-016 5.0852505754765431 1 I I #
aggregate_stitch_attribute-aggregate_stitch_base_attribute-aggregate_body_attribute-attrib_HH-attrib $-1 $355 $162 $0 F #
attrib_hh_face_geombuild-attrib_entity_geombuild-individual_entity_attribute-attrib_HH-attrib $-1 $-1 $164 $108 F #
model_id-kcp-attrib $-1 $356 $-1 $165 1 1017638577 70 -129630207 11 #
face $357 $358 $178 $11 $-1 $110 forward single #
loop $-1 $-1 $359 $165 #
plane-surface $-1 75.233147483099344 -46.090085061297181 53.31394669111851 1 4.4072818311535755e-017 -1.8375871570913693e-015 1.8375871570913693e-012 -1.6653345369377315e-013 1000 forward_v I I I I #
loop $-1 $-1 $360 $108 #
coedge $361 $259 $259 $359 $362 forward $166 $-1 #
attrib_hh_coedge_geombuild-attrib_entity_geombuild-individual_entity_attribute-attrib_HH-attrib $-1 $-1 $-1 $169 F #
coedge $363 $261 $261 $169 $262 reversed $364 $-1 #
edge $365 $366 -1.6653345369377304e-016 $366 6.2831853071795862 $169 $367 forward 7 unknown #
attrib_hh_coedge_geombuild-attrib_entity_geombuild-individual_entity_attribute-attrib_HH-attrib $-1 $-1 $-1 $172 F #
attrib_hh_edge_geombuild-attrib_entity_geombuild-individual_entity_attribute-attrib_HH-attrib $-1 $-1 $-1 $173 F #
vertex $368 $173 $369 #
ellipse-curve $-1 -5.1710607814379799 -46.090085061297195 50.054837906843339 -1 -1.6653345369377348e-016 1.8375871570913693e-015 9.3445911480871902e-015 -8.4686434123235636e-016 5.0852505754765431 1 I I #
attrib_hh_vertex_geombuild-attrib_entity_geombuild-individual_entity_attribute-attrib_HH-attrib $-1 $-1 $-1 $175 F #
point $-1 -5.1710607814379657 -46.090085061297195 61.732369511713664 #
loop $-1 $-1 $370 $255 #
attrib_hh_vertex_geombuild-attrib_entity_geombuild-individual_entity_attribute-attrib_HH-attrib $-1 $-1 $-1 $180 F #
point $-1 18.23361019462736 -46.090085061297223 44.969587331366753 #
face $371 $-1 $200 $29 $-1 $372 reversed single #
loop $-1 $-1 $288 $185 #
plane-surface $-1 0 11.677531604870328 0 0 -1 0 0 0 -1 forward_v I I I I #
coedge $-1 $373 $286 $289 $374 forward $186 $-1 #
coedge $-1 $292 $188 $189 $280 reversed $124 $-1 #
coedge $-1 $286 $373 $188 $278 reversed $186 $-1 #
edge $-1 $293 -11.677531604870346 $375 11.677531604870346 $277 $376 forward 7 unknown #
coedge $-1 $190 $189 $373 $377 forward $84 $-1 #
edge $-1 $284 -55.744733987753797 $375 55.744733987753797 $276 $378 forward 7 unknown #
coedge $-1 $289 $288 $190 $282 reversed $273 $-1 #
edge $-1 $379 -55.744733987753797 $283 55.744733987753797 $281 $380 forward 7 unknown #
vertex $-1 $192 $381 #
vertex $-1 $295 $382 #
straight-curve $-1 55.744733987753797 0 -11.677531604870346 0 -1 0 I I #
coedge $-1 $275 $277 $193 $287 reversed $186 $-1 #
edge $-1 $290 -11.677531604870328 $293 11.677531604870328 $286 $383 forward 7 unknown #
coedge $-1 $281 $194 $199 $296 forward $273 $-1 #
coedge $-1 $194 $281 $275 $374 reversed $273 $-1 #
vertex $-1 $195 $384 #
straight-curve $-1 0 11.677531604870328 11.677531604870346 -1 0 0 I I #
coedge $-1 $196 $276 $198 $295 reversed $124 $-1 #
vertex $-1 $287 $385 #
straight-curve $-1 0 -11.677531604870328 11.677531604870346 1 0 0 I I #
edge $-1 $201 -11.677531604870346 $284 11.677531604870346 $198 $386 forward 7 unknown #
edge $-1 $202 -11.677531604870346 $283 11.677531604870346 $199 $387 forward 7 unknown #
point $-1 55.744733987753797 -11.677531604870328 11.677531604870346 #
point $-1 55.744733987753797 11.677531604870328 11.677531604870346 #
face $-1 $388 $389 $31 $-1 $390 reversed single #
loop $-1 $-1 $322 $204 #
plane-surface $-1 0 11.677531604870328 0 0 -1 0 0 0 -1 forward_v I I I I #
coedge $-1 $391 $392 $393 $305 reversed $205 $-1 #
coedge $-1 $212 $206 $394 $395 reversed $132 $-1 #
coedge $-1 $206 $212 $396 $397 reversed $132 $-1 #
edge $-1 $398 -111.48946797550761 $399 -1.4210854715202004e-014 $393 $400 forward 7 unknown #
coedge $-1 $208 $207 $401 $402 reversed $88 $-1 #
coedge $-1 $403 $404 $405 $308 forward $406 $-1 #
edge $-1 $407 -111.48946797550764 $312 -3.5527136788005009e-014 $307 $408 forward 7 unknown #
coedge $-1 $310 $209 $409 $410 reversed $311 $-1 #
coedge $-1 $209 $309 $403 $411 reversed $311 $-1 #
loop $-1 $-1 $209 $412 #
vertex $-1 $411 $413 #
vertex $-1 $414 $415 #
ellipse-curve $-1 55.744733987753797 -7.1054273576010019e-015 -1.2079226507921701e-013 -1 0 0 -2.1458482103638273e-014 1.4300379400285805e-015 -11.677531604870323 1 I I #
coedge $-1 $416 $417 $211 $316 forward $418 $-1 #
edge $-1 $313 -1.5707963267948966 $318 1.2246063538223753e-016 $315 $314 forward 7 unknown #
coedge $-1 $419 $420 $421 $213 forward $389 $-1 #
vertex $-1 $422 $423 #
straight-curve $-1 55.74473398775379 -7.1054273576010019e-015 -11.677531604870346 1 4.4072818311535755e-017 -1.8375871570913693e-015 I I #
coedge $-1 $424 $214 $417 $414 forward $323 $-1 #
coedge $-1 $214 $424 $216 $325 reversed $323 $-1 #
coedge $-1 $425 $409 $208 $215 reversed $300 $-1 #
loop $-1 $-1 $214 $426 #
straight-curve $-1 55.744733987753811 11.677531604870328 -1.2079226507921703e-013 1 4.4072818311535755e-017 -1.8375871570913693e-015 I I #
edge $-1 $220 -8.4079349423525275e-014 $427 11.677531604870346 $321 $428 forward 7 unknown #
coedge $-1 $429 $421 $217 $327 forward $430 $-1 #
edge $-1 $219 -1.2019082423335332e-014 $427 11.677531604870328 $217 $431 forward 7 unknown #
face $-1 $432 $218 $31 $-1 $433 reversed single #
point $-1 -55.744733987753783 -1.2019082423335332e-014 -11.677531604870348 #
point $-1 -55.744733987753797 11.677531604870328 8.4079349423525275e-014 #
loop $-1 $-1 $228 $138 #
coedge $-1 $332 $332 $226 $333 forward $222 $-1 #
edge $434 $435 -3.1415926535897931 $435 3.1415926535897931 $226 $436 forward 7 unknown #
vertex $-1 $227 $437 #
ellipse-curve $-1 55.74473398775379 -7.6136584677999926e-015 -1.209181854570996e-013 -1 -1.6653345369377348e-016 1.8375871570913693e-015 -2.1458482103638273e-014 1.4300379400285805e-015 -11.677531604870323 1 I I #
vertex $-1 $229 $438 #
ellipse-curve $-1 44.213111330757414 7.1054273576010011e-015 -1.06581410364015e-013 1 1.6653345369377348e-016 -1.8375871570913693e-015 5.9888964455479962e-015 -5.4275064180908355e-016 3.259108784275321 1 I I #
point $-1 55.744733987753811 7.1054273576010019e-015 3.2591087842751918 #
loop $-1 $-1 $238 $146 #
coedge $-1 $340 $340 $236 $341 forward $232 $-1 #
edge $439 $440 -3.1415926535897931 $440 3.1415926535897931 $236 $441 forward 7 unknown #
vertex $-1 $237 $442 #
ellipse-curve $-1 44.213111330757414 -2.512130250756434e-015 -1.0131577568898231e-013 -1 -1.6653345369377348e-016 1.8375871570913693e-015 -2.1458482103638273e-014 1.4300379400285805e-015 -11.677531604870323 1 I I #
vertex $-1 $239 $443 #
ellipse-curve $-1 -1.25480330071818 -4.6650149823228786e-016 -2.3030154377488688e-014 1 1.6653345369377348e-016 -1.8375871570913693e-015 9.3445911480871902e-015 -8.4686434123235636e-016 5.0852505754765431 1 I I #
point $-1 44.213111330757421 -2.8421709430404007e-014 -5.0852505754766497 #
loop $-1 $-1 $248 $154 #
coedge $-1 $348 $348 $246 $349 forward $242 $-1 #
edge $444 $445 -3.1415926535897931 $445 3.1415926535897931 $246 $446 forward 7 unknown #
vertex $-1 $247 $447 #
ellipse-curve $-1 -55.744733987753804 -1.7754494777527838e-014 8.3800894264604556e-014 1 1.6653345369377348e-016 -1.8375871570913693e-015 -2.1458482103638273e-014 1.4300379400285805e-015 -11.677531604870323 1 I I #
vertex $-1 $249 $448 #
ellipse-curve $-1 -24.659474276783527 -4.3641621884428705e-015 1.9977968424078111e-014 -1 -1.6653345369377348e-016 1.8375871570913693e-015 9.3445911480871902e-015 -8.4686434123235636e-016 5.0852505754765431 1 I I #
point $-1 -55.744733987753797 2.8421709430404007e-014 -5.085250575476465 #
aggregate_simgeom_attribute-aggregate_simgeom_base_attribute-aggregate_body_attribute-attrib_HH-attrib $-1 $-1 $252 $0 F #
model_id-kcp-attrib $-1 $449 $254 $165 1 1017638577 70 -129630207 7 #
model_id-kcp-attrib $-1 $450 $-1 $255 1 1017638577 70 -129630207 8 #
face $451 $452 $453 $11 $-1 $454 reversed single #
coedge $455 $359 $359 $259 $362 reversed $256 $-1 #
coedge $456 $360 $360 $457 $458 reversed $258 $-1 #
attrib_hh_coedge_geombuild-attrib_entity_geombuild-individual_entity_attribute-attrib_HH-attrib $-1 $-1 $-1 $259 F #
edge $459 $460 1.6653345369377306e-016 $460 6.2831853071795862 $259 $461 forward 7 unknown #
attrib_hh_coedge_geombuild-attrib_entity_geombuild-individual_entity_attribute-attrib_HH-attrib $-1 $-1 $-1 $261 F #
loop $-1 $-1 $261 $452 #
attrib_hh_edge_geombuild-attrib_entity_geombuild-individual_entity_attribute-attrib_HH-attrib $-1 $-1 $-1 $262 F #
vertex $462 $262 $463 #
ellipse-curve $-1 -36.256320492408257 -46.090085061297195 50.054837906843396 1 1.6653345369377348e-016 -1.8375871570913693e-015 9.3445911480871902e-015 -8.4686434123235636e-016 5.0852505754765431 1 I I #
attrib_hh_vertex_geombuild-attrib_entity_geombuild-individual_entity_attribute-attrib_HH-attrib $-1 $-1 $-1 $265 F #
point $-1 -5.1710607814379941 -46.090085061297152 44.969587331366796 #
coedge $464 $370 $370 $465 $466 forward $269 $-1 #
model_id-kcp-attrib $-1 $-1 $-1 $272 1 1017638577 70 -129630206 2 #
plane-surface $-1 55.744733987753797 0 0 -1 0 0 0 0 1 forward_v I I I I #
coedge $-1 $277 $275 $279 $377 reversed $186 $-1 #
edge $-1 $290 -11.677531604870346 $379 11.677531604870346 $289 $467 forward 7 unknown #
vertex $-1 $377 $468 #
straight-curve $-1 -55.744733987753797 -11.677531604870328 0 0 0 -1 I I #
edge $-1 $375 -11.677531604870328 $379 11.677531604870328 $373 $469 forward 7 unknown #
straight-curve $-1 0 -11.677531604870328 -11.677531604870346 -1 0 0 I I #
vertex $-1 $282 $470 #
straight-curve $-1 0 11.677531604870328 -11.677531604870346 1 0 0 I I #
point $-1 55.744733987753797 11.677531604870328 -11.677531604870346 #
point $-1 55.744733987753797 -11.677531604870328 -11.677531604870346 #
straight-curve $-1 -55.744733987753797 0 11.677531604870346 0 -1 0 I I #
point $-1 -55.744733987753797 11.677531604870328 11.677531604870346 #
point $-1 -55.744733987753797 -11.677531604870328 11.677531604870346 #
straight-curve $-1 55.744733987753797 -11.677531604870328 0 0 0 -1 I I #
straight-curve $-1 55.744733987753797 11.677531604870328 0 0 0 -1 I I #
face $-1 $412 $471 $31 $-1 $472 reversed single #
loop $-1 $-1 $317 $299 #
plane-surface $-1 0 0 -11.677531604870346 0 0 1 1 0 0 forward_v I I I I #
coedge $-1 $473 $302 $474 $475 reversed $205 $-1 #
coedge $-1 $302 $473 $476 $477 reversed $205 $-1 #
coedge $-1 $478 $479 $480 $305 forward $481 $-1 #
coedge $-1 $482 $483 $303 $395 forward $484 $-1 #
edge $-1 $318 1.2246063538223753e-016 $399 1.5707963267948968 $394 $314 forward 7 unknown #
coedge $-1 $485 $486 $304 $397 forward $487 $-1 #
edge $-1 $398 -1.5707963267948968 $219 -1.224606353822376e-016 $396 $221 forward 7 unknown #
vertex $-1 $488 $489 #
vertex $-1 $490 $491 #
straight-curve $-1 55.744733987753811 -11.677531604870328 -1.2079226507921703e-013 1 4.4072818311535755e-017 -1.8375871570913693e-015 I I #
coedge $-1 $492 $493 $306 $402 forward $494 $-1 #
edge $-1 $220 1.5707963267948966 $407 3.1415926535897931 $401 $221 forward 7 unknown #
coedge $-1 $495 $307 $310 $411 forward $406 $-1 #
coedge $-1 $307 $495 $492 $496 forward $406 $-1 #
coedge $-1 $497 $498 $473 $308 reversed $499 $-1 #
loop $-1 $-1 $307 $500 #
vertex $-1 $501 $502 #
straight-curve $-1 55.744733987753833 -7.1054273576010011e-015 11.677531604870346 1 4.4072818311535755e-017 -1.8375871570913693e-015 I I #
coedge $-1 $322 $503 $309 $410 forward $300 $-1 #
edge $-1 $504 -11.677531604870346 $313 1.2079226507921701e-013 $309 $505 forward 7 unknown #
edge $-1 $312 -7.1054273576010034e-015 $504 11.677531604870328 $310 $506 forward 7 unknown #
face $-1 $507 $311 $31 $-1 $472 reversed single #
point $-1 55.744733987753797 -7.1054273576010034e-015 11.677531604870346 #
edge $-1 $313 1.2079226507921701e-013 $508 11.677531604870346 $417 $505 forward 7 unknown #
point $-1 55.744733987753797 11.677531604870328 -1.2079226507921701e-013 #
coedge $-1 $417 $315 $509 $510 reversed $418 $-1 #
coedge $-1 $315 $416 $320 $414 reversed $418 $-1 #
loop $-1 $-1 $315 $507 #
coedge $-1 $511 $317 $483 $422 forward $389 $-1 #
coedge $-1 $317 $511 $485 $512 forward $389 $-1 #
coedge $-1 $326 $509 $134 $213 reversed $430 $-1 #
edge $-1 $318 7.1054273576010011e-015 $513 11.677531604870328 $483 $514 forward 7 unknown #
point $-1 55.744733987753797 -7.1054273576010011e-015 -11.677531604870346 #
coedge $-1 $321 $320 $429 $515 reversed $323 $-1 #
coedge $-1 $503 $322 $493 $516 reversed $300 $-1 #
face $-1 $-1 $323 $31 $-1 $301 reversed single #
vertex $-1 $515 $517 #
straight-curve $-1 -55.744733987753797 11.677531604870328 0 0 0 -1 I I #
coedge $-1 $509 $326 $424 $515 forward $430 $-1 #
loop $-1 $-1 $421 $518 #
straight-curve $-1 -55.744733987753797 0 -11.677531604870346 0 1 0 I I #
face $-1 $519 $494 $31 $-1 $433 reversed single #
plane-surface $-1 -55.744733987753797 0 0 1 0 0 0 0 -1 forward_v I I I I #
convexity-sys-attrib $-1 $-1 $-1 $333 #
vertex $-1 $333 $520 #
ellipse-curve $-1 44.213111330757414 -7.6136584677999926e-015 -9.9601903384296598e-014 -1 -1.6653345369377348e-016 1.8375871570913693e-015 -2.1458482103638273e-014 1.4300379400285805e-015 -11.677531604870323 1 I I #
point $-1 55.744733987753811 -7.613658467799991e-015 11.677531604870202 #
point $-1 44.213111330757435 7.1054273576010019e-015 3.2591087842752131 #
convexity-sys-attrib $-1 $-1 $-1 $341 #
vertex $-1 $341 $521 #
ellipse-curve $-1 -1.25480330071818 -9.6175576083574359e-015 -1.6050647397770283e-014 -1 -1.6653345369377348e-016 1.8375871570913693e-015 -2.1458482103638273e-014 1.4300379400285805e-015 -11.677531604870323 1 I I #
point $-1 44.213111330757435 -2.5121302507564324e-015 11.677531604870222 #
point $-1 -1.2548033007181729 -3.5527136788005009e-014 -5.0852505754765644 #
convexity-sys-attrib $-1 $-1 $-1 $349 #
vertex $-1 $349 $522 #
ellipse-curve $-1 -24.659474276783534 -1.0649067419926838e-014 2.6957475403796541e-014 1 1.6653345369377348e-016 -1.8375871570913693e-015 -2.1458482103638273e-014 1.4300379400285805e-015 -11.677531604870323 1 I I #
point $-1 -55.744733987753783 -2.0614570657585001e-014 11.677531604870406 #
point $-1 -24.659474276783527 3.5527136788005009e-014 -5.0852505754765218 #
attrib_hh_face_geombuild-attrib_entity_geombuild-individual_entity_attribute-attrib_HH-attrib $-1 $-1 $356 $165 F #
attrib_hh_face_geombuild-attrib_entity_geombuild-individual_entity_attribute-attrib_HH-attrib $-1 $-1 $357 $255 F #
model_id-kcp-attrib $-1 $523 $-1 $358 1 1017638577 70 -129630207 9 #
face $524 $-1 $364 $11 $-1 $525 forward single #
loop $-1 $526 $457 $358 #
plane-surface $-1 63.701524826102961 -46.090085061297195 50.054837906843218 -1 -1.6653345369377348e-016 1.8375871570913693e-015 1.8375871570913693e-012 -1.6653345369377315e-013 1000 forward_v I I I I #
attrib_hh_coedge_geombuild-attrib_entity_geombuild-individual_entity_attribute-attrib_HH-attrib $-1 $-1 $-1 $359 F #
attrib_hh_coedge_geombuild-attrib_entity_geombuild-individual_entity_attribute-attrib_HH-attrib $-1 $-1 $-1 $360 F #
coedge $527 $457 $457 $360 $458 forward $453 $-1 #
edge $528 $529 1.6653345369377311e-016 $529 6.2831853071795862 $457 $530 forward 7 unknown #
attrib_edge_convexity-kcp-attrib $-1 $531 $-1 $362 1 #
vertex $532 $362 $533 #
ellipse-curve $-1 75.23314748309933 -46.090085061297181 50.05483790684319 -1 -4.4072818311535755e-017 1.8375871570913693e-015 5.9888964455479962e-015 -5.4275064180908355e-016 3.259108784275321 1 I I #
attrib_hh_vertex_geombuild-attrib_entity_geombuild-individual_entity_attribute-attrib_HH-attrib $-1 $-1 $-1 $366 F #
point $-1 -36.256320492408243 -46.090085061297195 55.140088482319939 #
attrib_hh_coedge_geombuild-attrib_entity_geombuild-individual_entity_attribute-attrib_HH-attrib $-1 $-1 $-1 $370 F #
coedge $534 $465 $465 $370 $466 reversed $526 $-1 #
edge $535 $536 1.6653345369377323e-016 $536 6.2831853071795862 $370 $537 forward 7 unknown #
straight-curve $-1 -55.744733987753797 11.677531604870328 0 0 0 -1 I I #
point $-1 -55.744733987753797 -11.677531604870328 -11.677531604870346 #
straight-curve $-1 -55.744733987753797 0 -11.677531604870346 0 1 0 I I #
point $-1 -55.744733987753797 11.677531604870328 -11.677531604870346 #
loop $-1 $-1 $476 $388 #
plane-surface $-1 55.744733987753797 0 0 -1 0 0 0 0 1 forward_v I I I I #
coedge $-1 $392 $391 $207 $308 forward $205 $-1 #
coedge $-1 $538 $539 $391 $475 forward $540 $-1 #
edge $-1 $407 -3.1415926535897931 $398 -1.5707963267948968 $474 $221 forward 7 unknown #
coedge $-1 $541 $542 $392 $477 forward $471 $-1 #
edge $-1 $399 1.5707963267948968 $312 3.1415926535897931 $476 $314 forward 7 unknown #
coedge $-1 $543 $393 $542 $544 reversed $481 $-1 #
coedge $-1 $393 $543 $538 $545 forward $481 $-1 #
coedge $-1 $546 $547 $206 $305 reversed $548 $-1 #
loop $-1 $-1 $393 $549 #
coedge $-1 $483 $394 $547 $490 forward $484 $-1 #
coedge $-1 $394 $482 $419 $422 reversed $484 $-1 #
loop $-1 $-1 $394 $550 #
coedge $-1 $486 $396 $420 $512 reversed $487 $-1 #
coedge $-1 $396 $485 $546 $488 reversed $487 $-1 #
loop $-1 $-1 $396 $551 #
edge $-1 $398 -8.4079349423525275e-014 $552 11.677531604870346 $486 $553 forward 7 unknown #
point $-1 -55.744733987753797 -11.677531604870328 8.4079349423525275e-014 #
edge $-1 $399 1.2079226507921701e-013 $513 11.677531604870346 $482 $554 forward 7 unknown #
point $-1 55.744733987753797 -11.677531604870328 -1.2079226507921701e-013 #
coedge $-1 $493 $401 $404 $496 reversed $494 $-1 #
coedge $-1 $401 $492 $425 $516 forward $494 $-1 #
loop $-1 $-1 $401 $432 #
coedge $-1 $404 $403 $503 $555 forward $406 $-1 #
edge $-1 $556 -11.677531604870328 $407 1.2019082423335332e-014 $492 $557 forward 7 unknown #
coedge $-1 $558 $405 $539 $501 forward $499 $-1 #
coedge $-1 $405 $558 $541 $559 forward $499 $-1 #
loop $-1 $-1 $405 $560 #
face $-1 $518 $406 $31 $-1 $561 forward single #
edge $-1 $407 1.2019082423335332e-014 $562 11.677531604870328 $539 $557 forward 7 unknown #
point $-1 -55.744733987753797 -1.2019082423335332e-014 11.677531604870344 #
coedge $-1 $409 $425 $495 $555 reversed $300 $-1 #
vertex $-1 $411 $563 #
straight-curve $-1 55.744733987753797 11.677531604870328 0 0 0 -1 I I #
straight-curve $-1 55.744733987753797 0 11.677531604870346 0 1 0 I I #
face $-1 $550 $418 $31 $-1 $472 reversed single #
vertex $-1 $510 $564 #
coedge $-1 $421 $429 $416 $510 forward $430 $-1 #
edge $-1 $508 -11.677531604870328 $318 7.1054273576010011e-015 $416 $514 forward 7 unknown #
coedge $-1 $420 $419 $565 $566 forward $389 $-1 #
edge $-1 $552 -11.677531604870328 $219 -1.2019082423335332e-014 $485 $431 forward 7 unknown #
vertex $-1 $490 $567 #
straight-curve $-1 55.744733987753797 0 -11.677531604870346 0 -1 0 I I #
edge $-1 $427 -55.744733987753797 $508 55.744733987753797 $424 $568 forward 7 unknown #
edge $-1 $556 -11.677531604870346 $220 -8.4079349423525275e-014 $425 $428 forward 7 unknown #
point $-1 -55.744733987753797 11.677531604870328 -11.677531604870346 #
face $-1 $549 $430 $31 $-1 $390 reversed single #
face $-1 $569 $540 $31 $-1 $433 reversed single #
point $-1 44.213111330757435 -7.613658467799991e-015 11.677531604870223 #
point $-1 -1.2548033007181585 -9.6175576083574343e-015 11.677531604870307 #
point $-1 -24.659474276783513 -1.3509143299983999e-014 11.677531604870349 #
attrib_hh_face_geombuild-attrib_entity_geombuild-individual_entity_attribute-attrib_HH-attrib $-1 $-1 $451 $358 F #
model_id-kcp-attrib $-1 $570 $-1 $452 1 1017638577 70 -129630207 10 #
plane-surface $-1 -36.256320492408243 -46.090085061297195 55.140088482319939 -1 -1.6653345369377348e-016 1.8375871570913693e-015 1.8375871570913693e-012 -1.6653345369377315e-013 1000 forward_v I I I I #
loop $-1 $-1 $465 $358 #
attrib_hh_coedge_geombuild-attrib_entity_geombuild-individual_entity_attribute-attrib_HH-attrib $-1 $-1 $-1 $457 F #
attrib_hh_edge_geombuild-attrib_entity_geombuild-individual_entity_attribute-attrib_HH-attrib $-1 $-1 $-1 $458 F #
vertex $571 $458 $572 #
ellipse-curve $-1 63.701524826102961 -46.090085061297181 50.054837906843211 -1 -1.6653345369377348e-016 1.8375871570913693e-015 5.9888964455479962e-015 -5.4275064180908355e-016 3.259108784275321 1 I I #
convexity-sys-attrib $-1 $573 $459 $362 #
attrib_hh_vertex_geombuild-attrib_entity_geombuild-individual_entity_attribute-attrib_HH-attrib $-1 $-1 $-1 $460 F #
point $-1 75.233147483099344 -46.090085061297181 53.31394669111851 #
attrib_hh_coedge_geombuild-attrib_entity_geombuild-individual_entity_attribute-attrib_HH-attrib $-1 $-1 $-1 $465 F #
attrib_hh_edge_geombuild-attrib_entity_geombuild-individual_entity_attribute-attrib_HH-attrib $-1 $-1 $-1 $466 F #
vertex $574 $466 $575 #
ellipse-curve $-1 63.701524826102961 -46.090085061297181 50.054837906843211 -1 -1.6653345369377348e-016 1.8375871570913693e-015 9.3445911480871902e-015 -8.4686434123235636e-016 5.0852505754765431 1 I I #
coedge $-1 $539 $474 $479 $545 reversed $540 $-1 #
coedge $-1 $474 $538 $497 $501 reversed $540 $-1 #
loop $-1 $-1 $474 $519 #
coedge $-1 $542 $476 $498 $559 reversed $471 $-1 #
coedge $-1 $476 $541 $478 $544 forward $471 $-1 #
coedge $-1 $479 $478 $558 $576 reversed $481 $-1 #
edge $-1 $577 -11.677531604870346 $399 1.2079226507921701e-013 $542 $554 forward 7 unknown #
edge $-1 $562 -11.677531604870346 $398 -8.4079349423525275e-014 $538 $553 forward 7 unknown #
coedge $-1 $565 $480 $486 $488 forward $548 $-1 #
coedge $-1 $480 $565 $482 $490 reversed $548 $-1 #
loop $-1 $-1 $480 $569 #
face $-1 $426 $481 $31 $-1 $578 reversed single #
face $-1 $560 $484 $31 $-1 $472 reversed single #
face $-1 $328 $487 $31 $-1 $433 reversed single #
vertex $-1 $512 $579 #
straight-curve $-1 -55.744733987753797 -11.677531604870328 0 0 0 -1 I I #
straight-curve $-1 55.744733987753797 -11.677531604870328 0 0 0 -1 I I #
edge $-1 $504 -55.744733987753797 $556 55.744733987753797 $503 $580 forward 7 unknown #
vertex $-1 $555 $581 #
straight-curve $-1 -55.744733987753797 0 11.677531604870346 0 -1 0 I I #
coedge $-1 $498 $497 $543 $576 forward $499 $-1 #
edge $-1 $577 -11.677531604870328 $312 -7.1054273576010034e-015 $541 $506 forward 7 unknown #
face $-1 $551 $499 $31 $-1 $561 forward single #
plane-surface $-1 0 0 11.677531604870346 0 0 1 1 0 0 forward_v I I I I #
vertex $-1 $501 $582 #
point $-1 55.744733987753797 11.677531604870328 11.677531604870346 #
point $-1 55.744733987753797 11.677531604870328 -11.677531604870346 #
coedge $-1 $547 $546 $511 $566 reversed $548 $-1 #
edge $-1 $513 -55.744733987753797 $552 55.744733987753797 $565 $583 forward 7 unknown #
point $-1 55.744733987753797 -11.677531604870328 -11.677531604870346 #
straight-curve $-1 0 11.677531604870328 -11.677531604870346 1 0 0 I I #
face $-1 $500 $548 $31 $-1 $578 reversed single #
attrib_hh_face_geombuild-attrib_entity_geombuild-individual_entity_attribute-attrib_HH-attrib $-1 $-1 $524 $452 F #
attrib_hh_vertex_geombuild-attrib_entity_geombuild-individual_entity_attribute-attrib_HH-attrib $-1 $-1 $-1 $529 F #
point $-1 63.701524826102968 -46.090085061297181 53.313946691118531 #
attrib_hh_edge_geombuild-attrib_entity_geombuild-individual_entity_attribute-attrib_HH-attrib $-1 $-1 $531 $362 F #
attrib_hh_vertex_geombuild-attrib_entity_geombuild-individual_entity_attribute-attrib_HH-attrib $-1 $-1 $-1 $536 F #
point $-1 63.701524826102968 -46.090085061297181 55.140088482319754 #
edge $-1 $562 -55.744733987753797 $577 55.744733987753797 $543 $584 forward 7 unknown #
vertex $-1 $559 $585 #
plane-surface $-1 0 -11.677531604870328 0 0 1 0 0 0 1 forward_v I I I I #
point $-1 -55.744733987753797 -11.677531604870328 -11.677531604870346 #
straight-curve $-1 0 11.677531604870328 11.677531604870346 -1 0 0 I I #
point $-1 -55.744733987753797 11.677531604870328 11.677531604870346 #
point $-1 -55.744733987753797 -11.677531604870328 11.677531604870346 #
straight-curve $-1 0 -11.677531604870328 -11.677531604870346 -1 0 0 I I #
straight-curve $-1 0 -11.677531604870328 11.677531604870346 1 0 0 I I #
point $-1 55.744733987753797 -11.677531604870328 11.677531604870346 #
End-of-ACIS-data 