600 0 1 0           
93 GICL ACIS Healer - Source: /gicl/data5/repository/VDS/impeller_shaft/impeller_shaft.sat - 6 0 18 ACIS 6.0.3 Solaris 24 Sat Apr 13 20:03:59 2002 
1 9.999999999999999547e-07 1.000000000000000036e-10 
body $-1 $1 $-1 $-1 #
lump $-1 $-1 $2 $0 #
shell $-1 $-1 $-1 $3 $-1 $1 #
face $-1 $4 $5 $2 $-1 $6 reversed single #
face $-1 $7 $8 $2 $-1 $9 forward single #
loop $-1 $10 $11 $3 #
plane-surface $-1 18.23361019462736721 -46.09008506129721638 50.05483790684331069 -1 -1.665334536937734811e-16 1.837587157091369328e-15 1.837587157091369328e-12 -1.665334536937731529e-13 1000 forward_v I I I I #
face $-1 $12 $13 $2 $-1 $14 forward single #
loop $-1 $15 $16 $4 #
plane-surface $-1 -5.171060781437965659 -46.09008506129719507 61.73236951171366371 -1 -1.665334536937734811e-16 1.837587157091369328e-15 1.837587157091369328e-12 -1.665334536937731529e-13 1000 forward_v I I I I #
loop $-1 $-1 $17 $3 #
coedge $-1 $11 $11 $18 $19 reversed $5 $-1 #
face $-1 $20 $21 $2 $-1 $22 forward single #
loop $-1 $23 $24 $7 #
cone-surface $-1 18.23361019462736721 -46.09008506129718796 50.05483790684329648 -1 -1.665334536937734811e-16 1.837587157091369328e-15 2.145848210363827341e-14 -1.944699668777244975e-15 11.67753160487032282 1 I I 0 1 11.67753160487032282 forward I I I I #
loop $-1 $-1 $25 $4 #
coedge $-1 $16 $16 $24 $26 reversed $8 $-1 #
coedge $-1 $17 $17 $27 $28 reversed $10 $-1 #
coedge $-1 $18 $18 $11 $19 forward $23 $-1 #
edge $-1 $29 1.665334536937732345e-16 $29 6.283185307179586232 $18 $30 forward 7 unknown #
face $-1 $31 $32 $2 $-1 $33 forward single #
loop $-1 $34 $35 $12 #
cone-surface $-1 63.70152482610296119 -46.09008506129718086 50.05483790684321121 -1 -1.665334536937734811e-16 1.837587157091369328e-15 9.344591148087190236e-15 -8.468643412323563632e-16 5.085250575476543133 1 I I 0 1 5.085250575476543133 forward I I I I #
loop $-1 $-1 $18 $7 #
coedge $-1 $24 $24 $16 $26 forward $13 $-1 #
coedge $-1 $25 $25 $36 $37 reversed $15 $-1 #
edge $-1 $38 -1.665334536937733085e-16 $38 6.283185307179586232 $24 $39 forward 7 unknown #
coedge $-1 $27 $27 $17 $28 forward $40 $-1 #
edge $-1 $41 -3.141592653589800221 $41 3.141592653589786011 $27 $42 forward 7 unknown #
vertex $-1 $19 $43 #
ellipse-curve $-1 18.23361019462736721 -46.09008506129718796 50.05483790684329648 -1 -1.665334536937734811e-16 1.837587157091369328e-15 2.145848210363827341e-14 -1.944699668777244975e-15 11.67753160487032282 1 I I #
face $-1 $44 $45 $2 $-1 $46 forward single #
loop $-1 $47 $48 $20 #
cone-surface $-1 63.70152482610296119 -46.09008506129718086 50.05483790684321121 1 4.407281831153575524e-17 -1.837587157091369328e-15 5.988896445547996229e-15 -5.427506418090835486e-16 3.259108784275321025 1 I I 0 1 3.259108784275321025 forward I I I I #
loop $-1 $-1 $36 $12 #
coedge $-1 $35 $35 $49 $50 forward $21 $-1 #
coedge $-1 $36 $36 $25 $37 forward $34 $-1 #
edge $-1 $51 -3.14159265358980111 $51 3.141592653589785122 $36 $52 forward 7 unknown #
vertex $-1 $26 $53 #
ellipse-curve $-1 -5.17106078143797987 -46.09008506129719507 50.05483790684333911 1 1.665334536937734811e-16 -1.837587157091369328e-15 2.145848210363827341e-14 -1.944699668777244975e-15 11.67753160487032282 1 I I #
loop $-1 $54 $27 $44 #
vertex $-1 $28 $55 #
ellipse-curve $-1 18.23361019462736721 -46.09008506129718796 50.05483790684329648 1 1.665334536937734811e-16 -1.837587157091369328e-15 9.344591148087190236e-15 -8.468643412323563632e-16 5.085250575476543133 1 I I #
point $-1 18.23361019462738852 -46.09008506129718796 61.73236951171361397 #
face $-1 $56 $40 $2 $-1 $22 forward single #
loop $-1 $-1 $57 $31 #
plane-surface $-1 75.2331474830993443 -46.09008506129718086 53.31394669111850959 1 4.407281831153575524e-17 -1.837587157091369328e-15 1.837587157091369328e-12 -1.665334536937731529e-13 1000 forward_v I I I I #
loop $-1 $-1 $58 $20 #
coedge $-1 $48 $48 $57 $59 forward $32 $-1 #
coedge $-1 $49 $49 $35 $50 reversed $60 $-1 #
edge $-1 $61 -1.665334536937730373e-16 $61 6.283185307179586232 $35 $62 forward 7 unknown #
vertex $-1 $37 $63 #
ellipse-curve $-1 -5.17106078143797987 -46.09008506129719507 50.05483790684333911 -1 -1.665334536937734811e-16 1.837587157091369328e-15 9.344591148087190236e-15 -8.468643412323563632e-16 5.085250575476543133 1 I I #
point $-1 -5.171060781437965659 -46.09008506129719507 61.73236951171366371 #
loop $-1 $-1 $64 $44 #
point $-1 18.2336101946273601 -46.09008506129722349 44.96958733136675335 #
face $-1 $65 $66 $2 $-1 $67 reversed single #
coedge $-1 $57 $57 $48 $59 reversed $45 $-1 #
coedge $-1 $58 $58 $68 $69 reversed $47 $-1 #
edge $-1 $70 1.66533453693773062e-16 $70 6.283185307179586232 $48 $71 forward 7 unknown #
loop $-1 $-1 $49 $65 #
vertex $-1 $50 $72 #
ellipse-curve $-1 -36.25632049240825694 -46.09008506129719507 50.05483790684339596 1 1.665334536937734811e-16 -1.837587157091369328e-15 9.344591148087190236e-15 -8.468643412323563632e-16 5.085250575476543133 1 I I #
point $-1 -5.171060781437994081 -46.09008506129715244 44.96958733136679598 #
coedge $-1 $64 $64 $73 $74 forward $54 $-1 #
face $-1 $-1 $60 $2 $-1 $75 forward single #
loop $-1 $76 $68 $56 #
plane-surface $-1 63.70152482610296119 -46.09008506129719507 50.05483790684321832 -1 -1.665334536937734811e-16 1.837587157091369328e-15 1.837587157091369328e-12 -1.665334536937731529e-13 1000 forward_v I I I I #
coedge $-1 $68 $68 $58 $69 forward $66 $-1 #
edge $-1 $77 1.665334536937731113e-16 $77 6.283185307179586232 $68 $78 forward 7 unknown #
vertex $-1 $59 $79 #
ellipse-curve $-1 75.23314748309933009 -46.09008506129718086 50.0548379068431899 -1 -4.407281831153575524e-17 1.837587157091369328e-15 5.988896445547996229e-15 -5.427506418090835486e-16 3.259108784275321025 1 I I #
point $-1 -36.25632049240824273 -46.09008506129719507 55.14008848231993909 #
coedge $-1 $73 $73 $64 $74 reversed $76 $-1 #
edge $-1 $80 1.665334536937732345e-16 $80 6.283185307179586232 $64 $81 forward 7 unknown #
plane-surface $-1 -36.25632049240824273 -46.09008506129719507 55.14008848231993909 -1 -1.665334536937734811e-16 1.837587157091369328e-15 1.837587157091369328e-12 -1.665334536937731529e-13 1000 forward_v I I I I #
loop $-1 $-1 $73 $56 #
vertex $-1 $69 $82 #
ellipse-curve $-1 63.70152482610296119 -46.09008506129718086 50.05483790684321121 -1 -1.665334536937734811e-16 1.837587157091369328e-15 5.988896445547996229e-15 -5.427506418090835486e-16 3.259108784275321025 1 I I #
point $-1 75.2331474830993443 -46.09008506129718086 53.31394669111850959 #
vertex $-1 $74 $83 #
ellipse-curve $-1 63.70152482610296119 -46.09008506129718086 50.05483790684321121 -1 -1.665334536937734811e-16 1.837587157091369328e-15 9.344591148087190236e-15 -8.468643412323563632e-16 5.085250575476543133 1 I I #
point $-1 63.70152482610296829 -46.09008506129718086 53.31394669111853091 #
point $-1 63.70152482610296829 -46.09008506129718086 55.14008848231975435 #
End-of-ACIS-data 