600 0 1 0           
102 GICL ACIS Healer - Source: /gicl/data5/repository/Parasolid/NIST/Tom_Kramer/ptsex/ptsex.step.sat - 6 0 18 ACIS 6.0.3 Solaris 24 Sun Apr 14 00:33:33 2002 
1 9.999999999999999547e-07 1.000000000000000036e-10 
body $-1 $1 $-1 $-1 #
lump $-1 $-1 $2 $0 #
shell $-1 $-1 $-1 $3 $-1 $1 #
face $-1 $4 $5 $2 $-1 $6 reversed single #
face $-1 $7 $8 $2 $-1 $9 forward single #
loop $-1 $-1 $10 $3 #
sphere-surface $-1 0 0 6999.999999999989996 1000.000000000000568 1 0 0 0 0 1 forward_v I I I I #
face $-1 $11 $12 $2 $-1 $13 reversed single #
loop $-1 $14 $15 $4 #
plane-surface $-1 0 0 6999.999999999989996 0 0 1 25.39999999999999858 0 0 forward_v I I I I #
coedge $-1 $10 $10 $16 $17 forward $5 $-1 #
face $-1 $18 $19 $2 $-1 $20 reversed single #
loop $-1 $-1 $21 $7 #
plane-surface $-1 -4999.999999999989996 0 6999.999999999989996 0.7071067811865475727 0 -0.7071067811865475727 -17.96051224213830722 0 -17.96051224213830722 forward_v I I I I #
loop $-1 $-1 $22 $4 #
coedge $-1 $15 $15 $23 $24 reversed $8 $-1 #
coedge $-1 $16 $16 $10 $17 reversed $25 $-1 #
edge $-1 $26 -7.85398163397448279 $26 -1.570796326794896558 $10 $27 reversed 7 unknown #
face $-1 $28 $29 $2 $-1 $30 forward single #
loop $-1 $-1 $31 $11 #
plane-surface $-1 4999.999999999989996 0 6999.999999999989996 -0.7071067811865475727 0 -0.7071067811865475727 -17.96051224213830722 0 17.96051224213830722 forward_v I I I I #
coedge $-1 $32 $32 $22 $33 forward $12 $-1 #
coedge $-1 $34 $35 $21 $33 reversed $14 $-1 #
coedge $-1 $23 $23 $15 $24 forward $36 $-1 #
edge $-1 $37 0 $37 6.283185307179586232 $15 $38 forward 7 unknown #
loop $-1 $39 $16 $40 #
vertex $-1 $17 $41 #
ellipse-curve $-1 0 0 6999.999999999989996 -0 -0 -1 0 1000.000000000000568 0 1 I I #
face $-1 $40 $42 $2 $-1 $43 forward single #
loop $-1 $44 $45 $18 #
cone-surface $-1 0 0 -6745.999999999989996 0 0 1 290.2857137154741167 0 0 1 I I 0.7525766940658151771 0.6585046086011611122 290.2857137154741167 forward I I I I #
coedge $-1 $46 $46 $47 $48 forward $19 $-1 #
coedge $-1 $21 $21 $49 $50 forward $12 $-1 #
edge $-1 $51 -6244.997998398412165 $52 6244.997998398412165 $22 $53 forward 7 unknown #
coedge $-1 $47 $22 $54 $55 reversed $14 $-1 #
coedge $-1 $22 $47 $56 $57 reversed $14 $-1 #
loop $-1 $58 $23 $59 #
vertex $-1 $24 $60 #
ellipse-curve $-1 0 0 6999.999999999989996 0 0 1 4499.999999999995453 0 0 1 I I #
loop $-1 $-1 $61 $40 #
face $-1 $59 $25 $2 $-1 $62 forward single #
point $-1 1000.000000000000568 0 6999.999999999989996 #
loop $-1 $63 $49 $28 #
cone-surface $-1 0 0 0 0 0 1 8000.000000000004547 0 0 1 I I 0 1 8000.000000000004547 forward I I I I #
loop $-1 $-1 $64 $18 #
coedge $-1 $45 $45 $65 $66 reversed $29 $-1 #
coedge $-1 $31 $31 $67 $68 forward $19 $-1 #
coedge $-1 $35 $34 $31 $48 reversed $14 $-1 #
edge $-1 $69 -6244.997998398411255 $70 6244.997998398411255 $47 $71 forward 7 unknown #
coedge $-1 $56 $54 $32 $50 reversed $42 $-1 #
edge $-1 $52 -4.037257447447659686 $51 -2.245927859731926102 $32 $72 reversed 7 unknown #
vertex $-1 $33 $73 #
vertex $-1 $33 $74 #
straight-curve $-1 -4999.999999999989996 0 6999.999999999989996 -0 1 0 I I #
coedge $-1 $49 $67 $34 $55 forward $42 $-1 #
edge $-1 $70 0.8956647938578670143 $51 2.245927859731926102 $34 $75 reversed 7 unknown #
coedge $-1 $67 $49 $35 $57 forward $42 $-1 #
edge $-1 $52 -2.245927859731926102 $69 -0.8956647938578670143 $35 $76 reversed 7 unknown #
loop $-1 $-1 $77 $59 #
face $-1 $-1 $36 $2 $-1 $78 reversed single #
point $-1 4500.000000000008185 0 6999.999999999989996 #
coedge $-1 $61 $61 $77 $79 reversed $39 $-1 #
plane-surface $-1 0 0 6999.999999999989996 0 0 1 25.39999999999999858 0 0 forward_v I I I I #
loop $-1 $-1 $65 $28 #
coedge $-1 $64 $64 $-1 $80 forward $44 $-1 #
coedge $-1 $65 $65 $45 $66 forward $63 $-1 #
edge $-1 $81 -6.283185307179586232 $81 -0 $45 $82 reversed 7 unknown #
coedge $-1 $54 $56 $46 $68 reversed $42 $-1 #
edge $-1 $70 -0.8956647938578670143 $69 0.8956647938578670143 $46 $83 reversed 7 unknown #
vertex $-1 $48 $84 #
vertex $-1 $55 $85 #
straight-curve $-1 4999.999999999989996 0 6999.999999999989996 -0 -1 0 I I #
ellipse-curve $-1 0 0 11999.99999999997999 0.7071067811865475727 0 -0.7071067811865475727 8000.000000000004547 0 8000.000000000004547 0.7071067811865475727 I I #
point $-1 -4999.999999999989086 -6244.997998398412165 6999.999999999989996 #
point $-1 -4999.999999999989086 6244.997998398412165 6999.999999999989996 #
ellipse-curve $-1 0 0 6999.999999999989996 0 0 1 8000.000000000004547 0 0 1 I I #
ellipse-curve $-1 0 0 6999.999999999989996 0 0 1 8000.000000000004547 0 0 1 I I #
coedge $-1 $77 $77 $61 $79 forward $58 $-1 #
torus-surface $-1 0 0 6999.999999999989996 0 0 1 3499.999999999994998 1000.000000000000568 1 0 0 forward_v I I I I #
edge $-1 $86 -3.141592653589793116 $86 3.141592653589793116 $61 $87 forward 7 unknown #
edge $-1 $88 1 $88 0 $64 $-1 forward 7 unknown #
vertex $-1 $66 $89 #
ellipse-curve $-1 0 0 1.375088117565153682e-05 -0 -0 -1 8000.000000000004547 0 0 1 I I #
ellipse-curve $-1 0 0 11999.99999999997999 -0.7071067811865475727 0 -0.7071067811865475727 8000.000000000004547 0 -8000.000000000004547 0.7071067811865475727 I I #
point $-1 4999.999999999989996 6244.997998398411255 6999.999999999989996 #
point $-1 4999.999999999989996 -6244.997998398411255 6999.999999999989996 #
vertex $-1 $79 $90 #
ellipse-curve $-1 0 0 6999.999999999989996 -0 -0 -1 2499.999999999994543 0 0 1 I I #
vertex $-1 $80 $91 #
point $-1 8000.000000000004547 0 1.375088117565153682e-05 #
point $-1 -2500 0 6999.999999999989996 #
point $-1 0 0 -6999.999999999989996 #
End-of-ACIS-data 