**ABCDEFGHIJKLMNOPQRSTUVWXYZabcdefghijklmnopqrstuvwxyz**************************
**PARASOLID !"#$%&'()*+,-./:;<=>?@[\]^_`{|}~0123456789**************************
**PART1;MC=sun;MC_MODEL=Sun-3;MC_ID=unknown;OS=SunOS;OS_RELEASE=unknown;FRU=sdl_
parasolid_test_sun;APPL=unknown;SITE=sdl-cambridge-u.k.;USER=kramer;FORMAT=text;
GUISE=transmit;KEY=ptsex;FILE=ptsex.xmt_txt;DATE=9-nov-1990;
**PART2;SCH=SCH_210_1012;USFLD_SIZE=0;
**PART3;
**END_OF_HEADER*****************************************************************
T47 : TRANSMIT FILE created by modeller version 22012 SCH_210_10120 12 1 251 0 0
 0 0 0 1e3 1e-8 2 2 0 0 0 1 3 102 5 2 ptsex13 3 220 0 1 0 4 5 6 7 8 9 14 4 246 0
 10 0 11 3 7 -16 5 237 0 12 0 13 8 18 6 165 0 14 0 15 9 53 7 250 0 4 16 0 0 +0 0
 7 1 31 8 240 0 5 17 0 0 +0 0 7 0 0 1 1 29 9 196 0 6 18 0 -5 -6.2449979983984 7
 29 18 123 0 15 19 9 -5 6.2449979983984 7 18 15 121 0 20 6 21 18 29 19 105 0 21
 22 18 5 6.2449979983984 7 18 21 74 0 23 15 24 19 29 22 32 0 24 25 19 5 -6.24499
79983984 7 18 24 30 0 26 21 27 22 29 25 27 0 27 0 22 0 0 -7 18 27 23 0 28 24 0 2
5 17 28 29 28 28 27 0 0 15 29 21 0 28 30 0 14 30 19 0 31 32 33 3 34 +14 31 1 0 3
5 30 36 3 37 +14 32 56 0 30 38 39 3 40 -15 33 20 0 41 30 29 52 34 24 0 30 37 40
 0 +0 0 -7 0 0 1 0 .752576694706878 .658504607868518 51 37 15 0 31 42 34 0 +0 0
 0 0 0 1 8 50 40 90 0 32 34 43 0 +5 0 7 -.707106781186548 0 -.707106781186548 50
 43 181 0 38 40 16 0 +-5 0 7 .707106781186548 0 -.707106781186548 14 38 147 0 32
 10 44 3 43 -50 16 213 0 10 43 7 0 +0 0 7 0 0 1 14 10 212 0 38 4 45 3 16 +15 45
 216 0 46 10 47 17 46 45 46 46 0 48 13 15 47 131 0 49 10 0 17 49 47 50 51 6 52 5
3 17 50 47 54 49 24 55 56 17 51 47 49 54 15 57 58 17 52 44 14 14 15 49 53 16 53
 130 0 52 59 58 60 16 59 152 0 14 13 53 61 16 58 122 0 57 53 62 63 30 60 132 0 5
3 63 61 0 +-5 0 7 0 1 0 31 63 124 0 58 64 60 0 +0 0 7 0 0 -1 8 32 61 183 0 59 60
 17 0 -0 0 12 .707106781186548 0 -.707106781186548 .707106781186548 0 .707106781
186548 11.31370849898476 8 31 17 217 0 13 61 8 0 +0 0 7 0 0 1 4.5 16 13 214 0 48
 5 59 17 17 48 65 48 48 0 46 13 15 65 225 0 48 66 67 14 66 224 0 0 35 65 3 68 -1
5 67 226 0 69 66 0 17 69 67 69 69 0 70 71 17 70 72 70 70 0 69 71 16 71 208 0 69
 73 0 74 16 73 3 0 75 56 71 76 31 74 211 0 71 0 76 0 +0 0 7 0 0 -1 2.5 31 76 7 0
 73 74 77 0 +0 0 0 0 0 1 8 31 77 33 0 56 76 78 0 +0 0 7 0 0 -1 8 16 56 31 0 55 7
9 73 77 30 78 41 0 79 77 64 0 +5 0 7 0 -1 0 16 79 39 0 80 62 56 78 32 64 92 0 62
 78 63 0 -0 0 12 -.707106781186548 0 -.707106781186548 -.707106781186548 0 .7071
06781186548 11.31370849898476 8 16 62 61 0 23 58 79 64 17 23 39 80 80 21 26 62 1
5 39 57 0 80 32 0 17 80 39 23 23 24 54 79 17 26 36 55 57 24 23 62 15 36 126 0 20
 31 81 17 55 36 20 26 6 50 56 17 57 36 26 20 21 51 58 17 20 36 57 55 15 14 59 17
 14 44 52 52 6 20 59 15 44 148 0 52 38 0 15 81 4 0 75 31 0 17 75 81 75 75 0 41 7
3 17 41 33 41 41 0 75 73 17 54 47 51 50 21 80 79 15 72 210 0 70 35 0 14 35 12 0
 66 31 82 3 42 +15 82 239 0 83 35 72 50 42 14 0 35 68 37 0 +0 0 7 0 0 1 54 68 23
0 0 66 0 42 0 +0 0 7 0 0 1 3.5 1 17 83 82 83 83 0 12 5 17 12 11 12 12 0 83 5 15
 11 247 0 12 4 0 1 0 
