600 0 1 0           
104 GICL ACIS STEP Translator - Source: f:/data5/repository/Parasolid/NIST/Tom_Kramer/ptsex/ptsex.step - 6 0 13 ACIS 6.0.3 NT 24 Mon Apr 08 10:55:42 2002 
1 9.9999999999999995e-007 1e-010 
body $-1 $1 $-1 $-1 #
lump $-1 $-1 $2 $0 #
shell $-1 $-1 $-1 $3 $-1 $1 #
face $-1 $4 $5 $2 $-1 $6 reversed single #
face $-1 $7 $8 $2 $-1 $9 forward single #
loop $-1 $-1 $10 $3 #
sphere-surface $-1 0 0 6999.99999999999 1000.0000000000006 1 0 0 0 0 1 forward_v I I I I #
face $-1 $11 $12 $2 $-1 $13 reversed single #
loop $-1 $14 $15 $4 #
plane-surface $-1 0 0 6999.99999999999 0 0 1 25.399999999999999 0 0 forward_v I I I I #
coedge $-1 $10 $10 $16 $17 forward $5 $-1 #
face $-1 $18 $19 $2 $-1 $20 reversed single #
loop $-1 $-1 $21 $7 #
plane-surface $-1 -4999.99999999999 0 6999.99999999999 0.70710678118654757 0 -0.70710678118654757 -17.960512242138307 0 -17.960512242138307 forward_v I I I I #
loop $-1 $-1 $22 $4 #
coedge $-1 $15 $15 $23 $24 reversed $8 $-1 #
coedge $-1 $16 $16 $10 $17 reversed $25 $-1 #
edge $-1 $26 0 $26 6.2831853071795862 $10 $27 forward 7 unknown #
face $-1 $28 $29 $2 $-1 $30 forward single #
loop $-1 $-1 $31 $11 #
plane-surface $-1 4999.99999999999 0 6999.99999999999 -0.70710678118654757 0 -0.70710678118654757 -17.960512242138307 0 17.960512242138307 forward_v I I I I #
coedge $-1 $32 $32 $22 $33 forward $12 $-1 #
coedge $-1 $34 $35 $21 $33 reversed $14 $-1 #
coedge $-1 $23 $23 $15 $24 forward $36 $-1 #
edge $-1 $37 0 $37 6.2831853071795862 $15 $38 forward 7 unknown #
loop $-1 $39 $16 $40 #
vertex $-1 $17 $41 #
ellipse-curve $-1 0 0 6999.99999999999 0 0 1 1000.0000000000006 0 0 1 I I #
face $-1 $40 $42 $2 $-1 $43 forward single #
loop $-1 $44 $45 $18 #
cone-surface $-1 0 0 -6745.99999999999 0 0 1 290.28571371547412 0 0 1 I I 0.75257669406581518 0.65850460860116111 290.28571371547412 forward I I I I #
coedge $-1 $46 $46 $47 $48 forward $19 $-1 #
coedge $-1 $21 $21 $49 $50 forward $12 $-1 #
edge $-1 $51 -245.86606292907101 $52 245.86606292907101 $22 $53 forward 7 unknown #
coedge $-1 $47 $22 $54 $55 reversed $14 $-1 #
coedge $-1 $22 $47 $56 $57 reversed $14 $-1 #
loop $-1 $58 $23 $59 #
vertex $-1 $24 $60 #
ellipse-curve $-1 0 0 6999.99999999999 0 0 1 4500.0000000000082 0 0 1 I I #
loop $-1 $-1 $61 $40 #
face $-1 $59 $25 $2 $-1 $62 forward single #
point $-1 1000.0000000000006 0 6999.99999999999 #
loop $-1 $63 $49 $28 #
cone-surface $-1 0 0 0 0 0 1 8000.0000000000045 0 0 1 I I 0 1 8000.0000000000045 forward I I I I #
loop $-1 $-1 $64 $18 #
coedge $-1 $45 $45 $65 $66 reversed $29 $-1 #
coedge $-1 $31 $31 $67 $68 forward $19 $-1 #
coedge $-1 $35 $34 $31 $48 reversed $14 $-1 #
edge $-1 $69 -245.86606292907101 $70 245.86606292907101 $47 $71 forward 7 unknown #
coedge $-1 $56 $54 $32 $50 reversed $42 $-1 #
edge $-1 $52 2.2459278597319283 $51 4.0372574474476579 $32 $72 forward 7 unknown #
vertex $-1 $33 $73 #
vertex $-1 $33 $74 #
straight-curve $-1 -4999.99999999999 0 6999.99999999999 0 25.399999999999999 0 I I #
coedge $-1 $49 $67 $34 $55 forward $42 $-1 #
edge $-1 $70 -2.245927859731927 $51 -0.89566479385786635 $34 $75 forward 7 unknown #
coedge $-1 $67 $49 $35 $57 forward $42 $-1 #
edge $-1 $52 0.89566479385786635 $69 2.245927859731927 $35 $76 forward 7 unknown #
loop $-1 $-1 $77 $59 #
face $-1 $-1 $36 $2 $-1 $78 reversed single #
point $-1 4500.0000000000082 0 6999.99999999999 #
coedge $-1 $61 $61 $77 $79 reversed $39 $-1 #
plane-surface $-1 0 0 6999.99999999999 0 0 1 25.399999999999999 0 0 forward_v I I I I #
loop $-1 $-1 $65 $28 #
coedge $-1 $64 $64 $-1 $80 forward $44 $-1 #
coedge $-1 $65 $65 $45 $66 forward $63 $-1 #
edge $-1 $81 0 $81 6.2831853071795862 $45 $82 forward 7 unknown #
coedge $-1 $54 $56 $46 $68 reversed $42 $-1 #
edge $-1 $70 2.2459278597319283 $69 4.0372574474476579 $46 $83 forward 7 unknown #
vertex $-1 $48 $84 #
vertex $-1 $55 $85 #
straight-curve $-1 4999.99999999999 0 6999.99999999999 0 -25.399999999999999 0 I I #
ellipse-curve $-1 0 0 12000.000000000005 -0.70710678118654757 0 0.70710678118654757 8000.0000000000027 0 8000.0000000000027 0.70710678118654779 I I #
point $-1 -4999.99999999999 -6244.9979983984031 6999.99999999999 #
point $-1 -4999.99999999999 6244.9979983984031 6999.99999999999 #
ellipse-curve $-1 0 0 6999.99999999999 0 0 -1 -8000.0000000000045 0 0 1 I I #
ellipse-curve $-1 0 0 6999.99999999999 0 0 -1 -8000.0000000000045 0 0 1 I I #
coedge $-1 $77 $77 $61 $79 forward $58 $-1 #
torus-surface $-1 0 0 6999.99999999999 0 0 1 3499.999999999995 1000.0000000000006 1 0 0 forward_v I I I I #
edge $-1 $86 0 $86 6.2831853071795862 $61 $87 forward 7 unknown #
edge $-1 $88 1 $88 0 $64 $-1 forward 7 unknown #
vertex $-1 $66 $89 #
ellipse-curve $-1 0 0 0 0 0 1 8000.0000000000045 0 0 1 I I #
ellipse-curve $-1 0 0 12000.000000000005 0.70710678118654757 0 0.70710678118654757 -8000.0000000000027 0 8000.0000000000027 0.70710678118654779 I I #
point $-1 4999.99999999999 6244.9979983984031 6999.99999999999 #
point $-1 4999.99999999999 -6244.9979983984031 6999.99999999999 #
vertex $-1 $79 $90 #
ellipse-curve $-1 0 0 6999.99999999999 0 0 -1 -2500 0 0 1 I I #
vertex $-1 $80 $91 #
point $-1 8000.0000000000045 0 0 #
point $-1 -2500 0 6999.99999999999 #
point $-1 0 0 -6999.99999999999 #
End-of-ACIS-data 