600 0 2 0           
24 FBMach with ACIS - 6.0.3 13 ACIS 6.0.3 NT 24 Thu May 24 09:30:20 2001 
1 9.9999999999999995e-007 1e-010 
body $2 $3 $-1 $4 #
bdycol-kcp $-1 1 1 $5 #
model_id-kcp-attrib $-1 $-1 $-1 $0 1 990711019 70 -1421475839 1 #
lump $-1 $-1 $6 $0 #
transform $-1 1 0 0 0 1 0 0 0 1 0 0 0 1 no_rotate no_reflect no_shear #
body $7 $8 $-1 $9 #
shell $-1 $-1 $-1 $10 $-1 $3 #
model_id-kcp-attrib $-1 $-1 $-1 $5 1 990711019 70 -1421475838 1 #
lump $-1 $-1 $11 $5 #
transform $-1 1 0 0 0 1 0 0 0 1 -52.500000000000007 -25.000000000000007 7.5000000000000009 1 no_rotate no_reflect no_shear #
face $12 $13 $14 $6 $-1 $15 forward single #
shell $-1 $-1 $-1 $16 $-1 $8 #
model_id-kcp-attrib $-1 $17 $-1 $10 1 990711019 70 -1421475839 2 #
face $18 $19 $20 $6 $-1 $21 reversed single #
loop $22 $-1 $23 $10 #
plane-surface $24 -52.5 -25 15 0 0 1 1 0 0 forward_v I I I I #
face $25 $26 $27 $11 $-1 $28 forward single #
face_name-twe-attrib $-1 $-1 $12 $10 1 #
model_id-kcp-attrib $-1 $29 $-1 $13 1 990711019 70 -1421475839 3 #
face $30 $31 $32 $6 $-1 $33 reversed single #
loop $34 $-1 $35 $13 #
plane-surface $36 -52.5 -25 1.7763568394002501e-015 0 0 1 1 0 0 forward_v I I I I #
loop_type-twe-attrib $-1 $-1 $-1 $14 0 #
coedge $-1 $37 $38 $39 $40 forward $14 $-1 #
surf-twe-attrib $-1 $-1 $-1 $15 4 #
model_id-kcp-attrib $-1 $-1 $-1 $16 1 990711019 70 -1421475838 2 #
face $41 $42 $43 $11 $-1 $44 reversed single #
loop $-1 $-1 $45 $16 #
plane-surface $-1 0 0 7.4999999999999991 0 0 1 1 0 0 forward_v I I I I #
face_name-twe-attrib $-1 $-1 $18 $13 2 #
model_id-kcp-attrib $-1 $46 $-1 $19 1 990711019 70 -1421475839 4 #
face $47 $48 $49 $6 $-1 $50 reversed single #
loop $51 $-1 $52 $19 #
plane-surface $53 -52.5 -60 7.5 0 1 0 0 0 1 forward_v I I I I #
loop_type-twe-attrib $-1 $-1 $-1 $20 0 #
coedge $-1 $54 $55 $56 $57 forward $20 $-1 #
surf-twe-attrib $-1 $-1 $-1 $21 6 #
coedge $-1 $58 $23 $59 $60 forward $14 $-1 #
coedge $-1 $23 $58 $61 $62 forward $14 $-1 #
coedge $-1 $63 $64 $23 $40 reversed $65 $-1 #
edge $66 $67 -35 $68 34.999999999999986 $39 $69 forward 7 unknown #
model_id-kcp-attrib $-1 $-1 $-1 $26 1 990711019 70 -1421475838 3 #
face $70 $71 $72 $11 $-1 $73 reversed single #
loop $-1 $-1 $74 $26 #
plane-surface $-1 0 0 -7.4999999999999991 0 0 1 1 0 0 forward_v I I I I #
coedge $-1 $75 $76 $77 $78 forward $27 $-1 #
face_name-twe-attrib $-1 $-1 $30 $19 3 #
model_id-kcp-attrib $-1 $79 $-1 $31 1 990711019 70 -1421475839 5 #
face $80 $81 $82 $6 $-1 $83 reversed single #
loop $84 $-1 $85 $31 #
plane-surface $86 -115 -25 7.5 1 0 0 0 0 -1 forward_v I I I I #
loop_type-twe-attrib $-1 $-1 $-1 $32 0 #
coedge $-1 $87 $61 $88 $89 forward $32 $-1 #
surf-twe-attrib $-1 $-1 $-1 $33 10 #
coedge $-1 $90 $35 $87 $91 forward $20 $-1 #
coedge $-1 $35 $90 $92 $93 forward $20 $-1 #
coedge $-1 $64 $63 $35 $57 reversed $65 $-1 #
edge $94 $95 -34.999999999999986 $96 35 $56 $97 forward 7 unknown #
coedge $-1 $38 $37 $98 $99 forward $14 $-1 #
coedge $-1 $100 $101 $37 $60 reversed $82 $-1 #
edge $102 $68 -62.499999999999986 $103 62.5 $59 $104 forward 7 unknown #
coedge $-1 $52 $105 $38 $62 reversed $32 $-1 #
edge $106 $107 -62.5 $67 62.499999999999986 $61 $108 forward 7 unknown #
coedge $-1 $56 $39 $105 $109 forward $65 $-1 #
coedge $-1 $39 $56 $100 $110 reversed $65 $-1 #
loop $111 $-1 $63 $81 #
attrib_edge_convexity-kcp-attrib $-1 $112 $-1 $40 1 #
vertex $-1 $40 $113 #
vertex $-1 $40 $114 #
straight-curve $115 9.9999999999999893 -25 15 0 1 0 I I #
model_id-kcp-attrib $-1 $-1 $-1 $42 1 990711019 70 -1421475838 4 #
face $116 $117 $118 $11 $-1 $119 reversed single #
loop $-1 $-1 $120 $42 #
plane-surface $-1 0 -34.999999999999993 0 0 1 0 0 0 1 forward_v I I I I #
coedge $-1 $121 $122 $123 $124 forward $43 $-1 #
coedge $-1 $125 $45 $126 $127 forward $27 $-1 #
coedge $-1 $45 $125 $128 $129 forward $27 $-1 #
coedge $-1 $130 $131 $45 $78 reversed $132 $-1 #
edge $-1 $133 -34.999999999999993 $134 34.999999999999993 $77 $135 forward 7 unknown #
face_name-twe-attrib $-1 $-1 $47 $31 4 #
model_id-kcp-attrib $-1 $136 $-1 $48 1 990711019 70 -1421475839 6 #
face $137 $-1 $65 $6 $-1 $138 reversed single #
loop $139 $-1 $100 $48 #
plane-surface $140 -52.5 9.9999999999999893 7.5 0 -1 0 0 0 -1 forward_v I I I I #
loop_type-twe-attrib $-1 $-1 $-1 $49 0 #
coedge $-1 $141 $98 $101 $142 forward $49 $-1 #
surf-twe-attrib $-1 $-1 $-1 $50 17 #
coedge $-1 $105 $52 $54 $91 reversed $32 $-1 #
coedge $-1 $98 $141 $52 $89 reversed $49 $-1 #
edge $143 $107 -7.5 $144 7.4999999999999982 $88 $145 forward 7 unknown #
coedge $-1 $55 $54 $141 $146 forward $20 $-1 #
edge $147 $96 -62.499999999999986 $144 62.5 $87 $148 forward 7 unknown #
coedge $-1 $101 $100 $55 $93 reversed $82 $-1 #
edge $149 $150 -62.5 $95 62.499999999999986 $92 $151 forward 7 unknown #
edge_name-twe-attrib $-1 $-1 $-1 $57 10 8704 #
vertex $-1 $57 $152 #
vertex $-1 $109 $153 #
straight-curve $154 9.9999999999999893 -25 1.7763568394002501e-015 0 -1 0 I I #
coedge $-1 $85 $88 $58 $99 reversed $49 $-1 #
edge $155 $103 -34.999999999999986 $107 35 $98 $156 forward 7 unknown #
coedge $-1 $92 $59 $64 $110 forward $82 $-1 #
coedge $-1 $59 $92 $85 $142 reversed $82 $-1 #
attrib_edge_convexity-kcp-attrib $-1 $157 $-1 $60 1 #
vertex $-1 $60 $158 #
straight-curve $159 -52.5 9.9999999999999893 15 -1 0 0 I I #
coedge $-1 $61 $87 $63 $109 reversed $32 $-1 #
attrib_edge_convexity-kcp-attrib $-1 $160 $-1 $62 1 #
vertex $-1 $99 $161 #
straight-curve $162 -52.5 -60 15 1 0 0 I I #
edge $163 $67 -7.5 $96 7.4999999999999982 $63 $164 forward 7 unknown #
edge $165 $68 -7.5 $95 7.4999999999999982 $64 $166 forward 7 unknown #
loop_type-twe-attrib $-1 $-1 $-1 $65 0 #
convexity-sys-attrib $-1 $167 $66 $40 #
point $-1 9.9999999999999893 -60 15 #
point $-1 9.9999999999999893 9.9999999999999893 15 #
cur-twe-attrib $-1 $-1 $-1 $69 26 #
model_id-kcp-attrib $-1 $-1 $-1 $71 1 990711019 70 -1421475838 5 #
face $168 $169 $170 $11 $-1 $171 reversed single #
loop $-1 $-1 $172 $71 #
plane-surface $-1 -62.499999999999993 0 0 1 0 0 0 0 -1 forward_v I I I I #
coedge $-1 $173 $128 $174 $175 forward $72 $-1 #
coedge $-1 $176 $74 $173 $177 forward $43 $-1 #
coedge $-1 $74 $176 $178 $179 forward $43 $-1 #
coedge $-1 $131 $130 $74 $124 reversed $132 $-1 #
edge $-1 $180 -34.999999999999993 $181 34.999999999999993 $123 $182 forward 7 unknown #
coedge $-1 $76 $75 $183 $184 forward $27 $-1 #
coedge $-1 $185 $186 $75 $127 reversed $170 $-1 #
edge $-1 $134 -62.499999999999993 $187 62.499999999999993 $126 $188 forward 7 unknown #
coedge $-1 $120 $189 $76 $129 reversed $72 $-1 #
edge $-1 $190 -62.499999999999993 $133 62.499999999999993 $128 $191 forward 7 unknown #
coedge $-1 $123 $77 $189 $192 forward $132 $-1 #
coedge $-1 $77 $123 $185 $193 reversed $132 $-1 #
loop $-1 $-1 $130 $169 #
vertex $-1 $78 $194 #
vertex $-1 $78 $195 #
straight-curve $-1 62.499999999999993 0 7.4999999999999991 0 1 0 I I #
face_name-twe-attrib $-1 $-1 $80 $48 5 #
model_id-kcp-attrib $-1 $196 $-1 $81 1 990711019 70 -1421475839 7 #
plane-surface $197 9.9999999999999893 -25 7.5 -1 0 0 0 0 1 forward_v I I I I #
loop_type-twe-attrib $-1 $-1 $-1 $82 0 #
surf-twe-attrib $-1 $-1 $-1 $83 28 #
coedge $-1 $88 $85 $90 $146 reversed $49 $-1 #
edge $198 $103 -7.5 $150 7.4999999999999982 $101 $199 forward 7 unknown #
attrib_edge_convexity-kcp-attrib $-1 $200 $-1 $89 1 #
vertex $-1 $146 $201 #
straight-curve $202 -115 -60 7.5 0 0 -1 I I #
edge $203 $144 -35 $150 34.999999999999986 $141 $204 forward 7 unknown #
attrib_edge_convexity-kcp-attrib $-1 $205 $-1 $91 1 #
straight-curve $206 -52.5 -60 1.7763568394002501e-015 -1 0 0 I I #
edge_name-twe-attrib $-1 $-1 $-1 $93 6 8704 #
vertex $-1 $93 $207 #
straight-curve $208 -52.5 9.9999999999999893 1.7763568394002501e-015 1 0 0 I I #
point $-1 9.9999999999999893 9.9999999999999893 1.7763568394002501e-015 #
point $-1 9.9999999999999893 -60 1.7763568394002501e-015 #
cur-twe-attrib $-1 $-1 $-1 $97 37 #
attrib_edge_convexity-kcp-attrib $-1 $209 $-1 $99 1 #
straight-curve $210 -115 -25 15 0 -1 0 I I #
convexity-sys-attrib $-1 $211 $102 $60 #
point $-1 -115 9.9999999999999893 15 #
cur-twe-attrib $-1 $-1 $-1 $104 40 #
convexity-sys-attrib $-1 $212 $106 $62 #
point $-1 -115 -60 15 #
cur-twe-attrib $-1 $-1 $-1 $108 42 #
attrib_edge_convexity-kcp-attrib $-1 $213 $-1 $109 1 #
straight-curve $214 9.9999999999999893 -60 7.5 0 0 -1 I I #
edge_name-twe-attrib $-1 $-1 $-1 $110 11 8704 #
straight-curve $215 9.9999999999999893 9.9999999999999893 7.5 0 0 -1 I I #
edge_name-twe-attrib $-1 $-1 $112 $40 12 8704 #
model_id-kcp-attrib $-1 $-1 $-1 $117 1 990711019 70 -1421475838 6 #
face $216 $-1 $132 $11 $-1 $217 reversed single #
loop $-1 $-1 $185 $117 #
plane-surface $-1 0 34.999999999999993 0 0 -1 0 0 0 -1 forward_v I I I I #
coedge $-1 $218 $183 $186 $219 forward $118 $-1 #
coedge $-1 $189 $120 $121 $177 reversed $72 $-1 #
coedge $-1 $183 $218 $120 $175 reversed $118 $-1 #
edge $-1 $190 -7.4999999999999991 $220 7.4999999999999991 $174 $221 forward 7 unknown #
coedge $-1 $122 $121 $218 $222 forward $43 $-1 #
edge $-1 $181 -62.499999999999993 $220 62.499999999999993 $173 $223 forward 7 unknown #
coedge $-1 $186 $185 $122 $179 reversed $170 $-1 #
edge $-1 $224 -62.499999999999993 $180 62.499999999999993 $178 $225 forward 7 unknown #
vertex $-1 $124 $226 #
vertex $-1 $192 $227 #
straight-curve $-1 62.499999999999993 0 -7.4999999999999991 0 -1 0 I I #
coedge $-1 $172 $174 $125 $184 reversed $118 $-1 #
edge $-1 $187 -34.999999999999993 $190 34.999999999999993 $183 $228 forward 7 unknown #
coedge $-1 $178 $126 $131 $193 forward $170 $-1 #
coedge $-1 $126 $178 $172 $219 reversed $170 $-1 #
vertex $-1 $127 $229 #
straight-curve $-1 0 34.999999999999993 7.4999999999999991 -1 0 0 I I #
coedge $-1 $128 $173 $130 $192 reversed $72 $-1 #
vertex $-1 $184 $230 #
straight-curve $-1 0 -34.999999999999993 7.4999999999999991 1 0 0 I I #
edge $-1 $133 -7.4999999999999991 $181 7.4999999999999991 $130 $231 forward 7 unknown #
edge $-1 $134 -7.4999999999999991 $180 7.4999999999999991 $131 $232 forward 7 unknown #
point $-1 62.499999999999993 -34.999999999999993 7.4999999999999991 #
point $-1 62.499999999999993 34.999999999999993 7.4999999999999991 #
face_name-twe-attrib $-1 $-1 $137 $81 6 #
surf-twe-attrib $-1 $-1 $-1 $138 51 #
attrib_edge_convexity-kcp-attrib $-1 $233 $-1 $142 1 #
straight-curve $234 -115 9.9999999999999893 7.5 0 0 -1 I I #
convexity-sys-attrib $-1 $235 $143 $89 #
point $-1 -115 -60 1.7763568394002501e-015 #
cur-twe-attrib $-1 $-1 $-1 $145 59 #
attrib_edge_convexity-kcp-attrib $-1 $236 $-1 $146 1 #
straight-curve $237 -115 -25 1.7763568394002501e-015 0 1 0 I I #
convexity-sys-attrib $-1 $238 $147 $91 #
cur-twe-attrib $-1 $-1 $-1 $148 61 #
point $-1 -115 9.9999999999999893 1.7763568394002501e-015 #
cur-twe-attrib $-1 $-1 $-1 $151 63 #
convexity-sys-attrib $-1 $239 $155 $99 #
cur-twe-attrib $-1 $-1 $-1 $156 69 #
edge_name-twe-attrib $-1 $-1 $157 $60 8 8704 #
edge_name-twe-attrib $-1 $-1 $160 $62 2 8704 #
convexity-sys-attrib $-1 $240 $163 $109 #
cur-twe-attrib $-1 $-1 $-1 $164 79 #
cur-twe-attrib $-1 $-1 $-1 $166 80 #
model_id-kcp-attrib $-1 $-1 $-1 $169 1 990711019 70 -1421475838 7 #
plane-surface $-1 62.499999999999993 0 0 -1 0 0 0 0 1 forward_v I I I I #
coedge $-1 $174 $172 $176 $222 reversed $118 $-1 #
edge $-1 $187 -7.4999999999999991 $224 7.4999999999999991 $186 $241 forward 7 unknown #
vertex $-1 $222 $242 #
straight-curve $-1 -62.499999999999993 -34.999999999999993 0 0 0 -1 I I #
edge $-1 $220 -34.999999999999993 $224 34.999999999999993 $218 $243 forward 7 unknown #
straight-curve $-1 0 -34.999999999999993 -7.4999999999999991 -1 0 0 I I #
vertex $-1 $179 $244 #
straight-curve $-1 0 34.999999999999993 -7.4999999999999991 1 0 0 I I #
point $-1 62.499999999999993 34.999999999999993 -7.4999999999999991 #
point $-1 62.499999999999993 -34.999999999999993 -7.4999999999999991 #
straight-curve $-1 -62.499999999999993 0 7.4999999999999991 0 -1 0 I I #
point $-1 -62.499999999999993 34.999999999999993 7.4999999999999991 #
point $-1 -62.499999999999993 -34.999999999999993 7.4999999999999991 #
straight-curve $-1 62.499999999999993 -34.999999999999993 0 0 0 -1 I I #
straight-curve $-1 62.499999999999993 34.999999999999993 0 0 0 -1 I I #
convexity-sys-attrib $-1 $245 $198 $142 #
cur-twe-attrib $-1 $-1 $-1 $199 90 #
edge_name-twe-attrib $-1 $-1 $200 $89 4 8704 #
convexity-sys-attrib $-1 $246 $203 $146 #
cur-twe-attrib $-1 $-1 $-1 $204 94 #
edge_name-twe-attrib $-1 $-1 $205 $91 1 8704 #
edge_name-twe-attrib $-1 $-1 $209 $99 5 8704 #
edge_name-twe-attrib $-1 $-1 $213 $109 9 8704 #
straight-curve $-1 -62.499999999999993 34.999999999999993 0 0 0 -1 I I #
point $-1 -62.499999999999993 -34.999999999999993 -7.4999999999999991 #
straight-curve $-1 -62.499999999999993 0 -7.4999999999999991 0 1 0 I I #
point $-1 -62.499999999999993 34.999999999999993 -7.4999999999999991 #
edge_name-twe-attrib $-1 $-1 $233 $142 7 8704 #
edge_name-twe-attrib $-1 $-1 $236 $146 3 8704 #
End-of-ACIS-data 