600 0 1 0           
87 GICL ACIS Healer - Source: /gicl/data5/repository/Allied-Signal/part01/part01.sat - 6 0 18 ACIS 6.0.3 Solaris 24 Sun Apr 14 00:16:13 2002 
1 9.999999999999999547e-07 1.000000000000000036e-10 
body $-1 $1 $-1 $-1 #
lump $-1 $-1 $2 $0 #
shell $-1 $-1 $-1 $3 $-1 $1 #
face $-1 $4 $5 $2 $-1 $6 reversed single #
face $-1 $7 $8 $2 $-1 $9 forward single #
loop $-1 $10 $11 $3 #
cone-surface $-1 0.03335020000000000345 0.04747259999999999674 0.01285239999999999994 0 0 -1 0.002413000000000000214 0 0 1 I I 0 1 0.002413000000000000214 forward I I I I #
face $-1 $12 $13 $2 $-1 $14 forward single #
loop $-1 $-1 $15 $4 #
plane-surface $-1 0.03335020000000000345 0.04747259999999999674 0.006756400000000000079 0 0 1 1 0 0 forward_v I I I I #
loop $-1 $-1 $16 $3 #
coedge $-1 $11 $11 $17 $18 reversed $5 $-1 #
face $-1 $19 $20 $2 $-1 $21 reversed single #
loop $-1 $22 $23 $7 #
plane-surface $-1 0.03810000000000000192 0.01174267417564999957 0.01285239999999999994 0 0 1 1 0 0 forward_v I I I I #
coedge $-1 $15 $15 $16 $24 forward $8 $-1 #
coedge $-1 $16 $16 $15 $24 reversed $10 $-1 #
coedge $-1 $17 $17 $11 $18 forward $25 $-1 #
edge $-1 $26 0 $26 6.283185307179586232 $11 $27 forward 7 unknown #
face $-1 $28 $29 $2 $-1 $30 forward single #
loop $-1 $31 $32 $12 #
cone-surface $-1 0.02606040000000000093 0.0211328000000000002 0.01285239999999999994 0 0 -1 0.002413000000000000214 0 0 1 I I 0 1 0.002413000000000000214 forward I I I I #
loop $-1 $25 $33 $7 #
coedge $-1 $23 $23 $32 $34 forward $13 $-1 #
edge $-1 $35 0 $35 6.283185307179586232 $16 $36 forward 7 unknown #
loop $-1 $-1 $17 $7 #
vertex $-1 $18 $37 #
ellipse-curve $-1 0.03335020000000000345 0.04747259999999999674 0.01285239999999999994 0 0 -1 0.002413000000000000214 0 0 1 I I #
face $-1 $38 $39 $2 $-1 $40 reversed single #
loop $-1 $-1 $41 $19 #
plane-surface $-1 0.02606040000000000093 0.0211328000000000002 0.006756400000000000079 0 0 1 1 0 0 forward_v I I I I #
loop $-1 $-1 $42 $12 #
coedge $-1 $32 $32 $23 $34 reversed $20 $-1 #
coedge $-1 $43 $44 $45 $46 reversed $22 $-1 #
edge $-1 $47 0 $47 6.283185307179586232 $23 $48 forward 7 unknown #
vertex $-1 $24 $49 #
ellipse-curve $-1 0.03335020000000000345 0.04747259999999999674 0.006756400000000000079 0 0 1 0.002413000000000000214 0 0 1 I I #
point $-1 0.03576320000000000193 0.04747259999999999674 0.01285239999999999994 #
face $-1 $50 $51 $2 $-1 $52 reversed single #
loop $-1 $53 $54 $28 #
cone-surface $-1 0.02611120000000000108 0.05610860000000000153 0.005080000000000000314 0 0 -1 0.002514600000000000082 0 0 1 I I 0 1 0.002514600000000000082 forward I I I I #
coedge $-1 $41 $41 $42 $55 forward $29 $-1 #
coedge $-1 $42 $42 $41 $55 reversed $31 $-1 #
coedge $-1 $56 $33 $57 $58 forward $22 $-1 #
coedge $-1 $33 $59 $60 $61 forward $22 $-1 #
coedge $-1 $62 $63 $33 $46 forward $64 $-1 #
edge $-1 $65 0 $66 0.02712133439825900258 $33 $67 forward 7 unknown #
vertex $-1 $34 $68 #
ellipse-curve $-1 0.02606040000000000093 0.0211328000000000002 0.01285239999999999994 0 0 -1 0.002413000000000000214 0 0 1 I I #
point $-1 0.03576320000000000193 0.04747259999999999674 0.006756400000000000079 #
face $-1 $69 $70 $2 $-1 $71 forward single #
loop $-1 $72 $73 $38 #
plane-surface $-1 0.005080000000000000314 0.005080000000000000314 0 0 0 1 1 0 0 forward_v I I I I #
loop $-1 $-1 $74 $28 #
coedge $-1 $54 $54 $75 $76 reversed $39 $-1 #
edge $-1 $77 0 $77 6.283185307179586232 $42 $78 forward 7 unknown #
coedge $-1 $79 $43 $80 $81 reversed $22 $-1 #
coedge $-1 $82 $83 $43 $58 reversed $84 $-1 #
edge $-1 $65 0 $85 0.01153226298359648003 $43 $86 forward 7 unknown #
coedge $-1 $44 $79 $87 $88 reversed $22 $-1 #
coedge $-1 $89 $90 $44 $61 reversed $91 $-1 #
edge $-1 $92 0 $66 0.01423403978961929224 $44 $93 forward 7 unknown #
coedge $-1 $94 $45 $90 $95 forward $64 $-1 #
coedge $-1 $45 $96 $82 $97 reversed $64 $-1 #
loop $-1 $-1 $98 $99 #
vertex $-1 $46 $100 #
vertex $-1 $46 $101 #
straight-curve $-1 0.03810000000000000192 0.03886400857390900215 0.01285239999999999994 0 -1 0 I I #
point $-1 0.0284733999999999994 0.0211328000000000002 0.01285239999999999994 #
face $-1 $102 $103 $2 $-1 $104 reversed single #
loop $-1 $105 $106 $50 #
plane-surface $-1 0.005080000000000000314 0.005080000000000000314 0.005080000000000000314 0 0 1 1 0 0 forward_v I I I I #
loop $-1 $107 $108 $38 #
coedge $-1 $109 $110 $111 $112 reversed $51 $-1 #
coedge $-1 $74 $74 $113 $114 forward $53 $-1 #
coedge $-1 $75 $75 $54 $76 forward $115 $-1 #
edge $-1 $116 0 $116 6.283185307179586232 $54 $117 forward 7 unknown #
vertex $-1 $55 $118 #
ellipse-curve $-1 0.02606040000000000093 0.0211328000000000002 0.006756400000000000079 0 0 1 0.002413000000000000214 0 0 1 I I #
coedge $-1 $59 $56 $119 $120 reversed $22 $-1 #
coedge $-1 $121 $122 $56 $81 forward $123 $-1 #
edge $-1 $124 0 $85 0.001784437641008034458 $56 $125 forward 7 unknown #
coedge $-1 $126 $57 $63 $97 forward $84 $-1 #
coedge $-1 $57 $126 $121 $127 reversed $84 $-1 #
loop $-1 $-1 $126 $128 #
vertex $-1 $58 $129 #
straight-curve $-1 0.03810000000000000192 0.03886400857390900215 0.01285239999999999994 -0.1391731009600640501 0.990268068741570473 0 I I #
coedge $-1 $130 $131 $59 $88 forward $132 $-1 #
edge $-1 $92 0 $133 0.0399795999999995183 $59 $134 forward 7 unknown #
coedge $-1 $135 $60 $131 $136 forward $91 $-1 #
coedge $-1 $60 $135 $62 $95 reversed $91 $-1 #
loop $-1 $-1 $90 $137 #
vertex $-1 $88 $138 #
straight-curve $-1 0.02400448490714299915 0.00976167871894000061 0.01285239999999999994 0.990268068741570362 0.1391731009600650493 0 I I #
coedge $-1 $98 $62 $139 $140 reversed $64 $-1 #
edge $-1 $66 0 $141 0.007772399999999999622 $62 $142 forward 7 unknown #
coedge $-1 $63 $98 $143 $144 forward $64 $-1 #
edge $-1 $65 0 $145 0.008534400000000001013 $82 $146 forward 7 unknown #
coedge $-1 $96 $94 $147 $148 forward $64 $-1 #
face $-1 $149 $64 $2 $-1 $150 forward single #
point $-1 0.03810000000000000192 0.03886400857390900215 0.01285239999999999994 #
point $-1 0.03810000000000000192 0.01174267417564999957 0.01285239999999999994 #
face $-1 $151 $152 $2 $-1 $153 forward single #
loop $-1 $154 $155 $69 #
cone-surface $-1 0.03182619999999999894 0.005080000000000000314 0.005080000000000000314 0 0 -1 0.002514600000000000082 0 0 1 I I 0 1 0.002514600000000000082 forward I I I I #
loop $-1 $156 $139 $50 #
coedge $-1 $106 $106 $155 $157 forward $70 $-1 #
loop $-1 $-1 $113 $38 #
coedge $-1 $108 $108 $158 $159 reversed $72 $-1 #
coedge $-1 $160 $73 $161 $162 reversed $51 $-1 #
coedge $-1 $73 $163 $164 $165 reversed $51 $-1 #
coedge $-1 $166 $166 $73 $112 forward $154 $-1 #
edge $-1 $167 0.6796738189081908965 $168 5.603511488271395891 $73 $169 forward 7 unknown #
coedge $-1 $113 $113 $74 $114 reversed $107 $-1 #
edge $-1 $170 0 $170 6.283185307179586232 $74 $171 forward 7 unknown #
loop $-1 $-1 $75 $50 #
vertex $-1 $76 $172 #
ellipse-curve $-1 0.02611120000000000108 0.05610860000000000153 0.005080000000000000314 0 0 -1 0.002514600000000000082 0 0 1 I I #
point $-1 0.0284733999999999994 0.0211328000000000002 0.006756400000000000079 #
coedge $-1 $173 $174 $79 $120 forward $175 $-1 #
edge $-1 $133 0 $124 0.01719848226360478488 $79 $176 forward 7 unknown #
coedge $-1 $177 $80 $83 $127 forward $123 $-1 #
coedge $-1 $80 $178 $173 $179 reversed $123 $-1 #
loop $-1 $-1 $121 $180 #
vertex $-1 $81 $181 #
straight-curve $-1 0.03547150781646599832 0.05174576610843299729 0.01285239999999999994 0.5735764363510471586 -0.8191520442889911324 0 I I #
coedge $-1 $83 $82 $182 $183 reversed $84 $-1 #
edge $-1 $85 -0.007772399999999999622 $184 0.002366980800514000439 $121 $185 forward 7 unknown #
face $-1 $99 $84 $2 $-1 $186 reversed single #
point $-1 0.0364950191994860007 0.05028404036689500256 0.01285239999999999994 #
coedge $-1 $187 $87 $174 $188 forward $132 $-1 #
coedge $-1 $87 $187 $89 $136 reversed $132 $-1 #
loop $-1 $-1 $131 $189 #
vertex $-1 $120 $190 #
straight-curve $-1 0.02400448490714299915 0.00976167871894000061 0.01285239999999999994 -0.1391731009600640501 0.990268068741570473 0 I I #
coedge $-1 $90 $89 $191 $192 reversed $91 $-1 #
edge $-1 $92 0 $193 0.007772399999999999622 $89 $194 forward 7 unknown #
face $-1 $189 $91 $2 $-1 $195 reversed single #
point $-1 0.02400448490714299915 0.00976167871894000061 0.01285239999999999994 #
coedge $-1 $191 $196 $94 $140 forward $105 $-1 #
edge $-1 $197 0 $141 0.005935454228032999331 $139 $198 forward 7 unknown #
vertex $-1 $140 $199 #
straight-curve $-1 0.03810000000000000192 0.01174267417564999957 0.01285239999999999994 0 0 -1 I I #
coedge $-1 $200 $182 $96 $144 reversed $152 $-1 #
edge $-1 $201 -0.01949612142716299762 $145 0.01356066719912900342 $143 $202 forward 7 unknown #
vertex $-1 $183 $203 #
straight-curve $-1 0.03810000000000000192 0.03886400857390900215 0.01285239999999999994 0 0 -1 I I #
coedge $-1 $204 $205 $98 $148 reversed $206 $-1 #
edge $-1 $197 0 $201 0.0007620000000000005241 $98 $207 forward 7 unknown #
face $-1 $208 $206 $2 $-1 $209 forward single #
plane-surface $-1 0.03810000000000000192 0.02530334137477999873 0.01285239999999999994 1 0 0 0 0 -1 forward_v I I I I #
face $-1 $180 $210 $2 $-1 $211 reversed single #
loop $-1 $-1 $161 $102 #
plane-surface $-1 0.03378199999999999953 0.054158633328894 0 0.7071067811865480168 0 -0.7071067811865470176 -0.7071067811865470176 0 -0.7071067811865480168 forward_v I I I I #
loop $-1 $-1 $111 $69 #
coedge $-1 $155 $155 $106 $157 reversed $103 $-1 #
loop $-1 $115 $212 $50 #
edge $-1 $213 0 $213 6.283185307179586232 $106 $214 forward 7 unknown #
coedge $-1 $158 $158 $108 $159 forward $215 $-1 #
edge $-1 $216 0 $216 6.283185307179586232 $108 $217 forward 7 unknown #
coedge $-1 $218 $109 $219 $220 reversed $51 $-1 #
coedge $-1 $221 $222 $109 $162 forward $152 $-1 #
edge $-1 $223 -0.005022524863054000227 $167 -0.001580525077308000438 $109 $224 forward 7 unknown #
coedge $-1 $110 $225 $226 $227 reversed $51 $-1 #
coedge $-1 $228 $221 $110 $165 forward $152 $-1 #
edge $-1 $168 0.001580525077307999571 $229 0.04907863332889399882 $110 $230 forward 7 unknown #
coedge $-1 $111 $111 $221 $231 reversed $154 $-1 #
vertex $-1 $112 $232 #
vertex $-1 $112 $233 #
ellipse-curve $-1 0.03182619999999999894 0.005080000000000000314 0 0 0 -1 0.002514600000000000082 0 0 1 I I #
vertex $-1 $114 $234 #
ellipse-curve $-1 0.02611120000000000108 0.05610860000000000153 0 0 0 -1 0.002514600000000000082 0 0 1 I I #
point $-1 0.02862579999999999986 0.05610860000000000153 0.005080000000000000314 #
coedge $-1 $235 $119 $122 $179 forward $175 $-1 #
coedge $-1 $119 $235 $130 $188 reversed $175 $-1 #
loop $-1 $-1 $174 $236 #
straight-curve $-1 0.01844039999999999915 0.04935219999999999885 0.01285239999999999994 0.990268068741570362 0.1391731009600650493 0 I I #
coedge $-1 $226 $121 $228 $237 forward $123 $-1 #
coedge $-1 $122 $238 $239 $240 reversed $123 $-1 #
edge $-1 $124 0 $241 0.007772399999999999622 $122 $242 forward 7 unknown #
face $-1 $128 $123 $2 $-1 $243 forward single #
point $-1 0.03547150781646599832 0.05174576610843299729 0.01285239999999999994 #
coedge $-1 $143 $228 $126 $183 forward $152 $-1 #
edge $-1 $184 -0.007108745551208869862 $145 0.004534666873542225231 $182 $244 forward 7 unknown #
vertex $-1 $237 $245 #
straight-curve $-1 0.0364950191994860007 0.05028404036689500256 0.005080000000000000314 0 0 -1 I I #
plane-surface $-1 0.03729750959974299784 0.04457402447040199889 0.01285239999999999994 -0.990268068741570473 -0.1391731009600640501 0 0 0 1 forward_v I I I I #
coedge $-1 $131 $130 $246 $247 forward $132 $-1 #
edge $-1 $133 0 $248 0.007772399999999999622 $130 $249 forward 7 unknown #
face $-1 $236 $132 $2 $-1 $250 forward single #
point $-1 0.01844039999999999915 0.04935219999999999885 0.01285239999999999994 #
coedge $-1 $246 $139 $135 $192 forward $105 $-1 #
edge $-1 $141 -0.03362591665555861309 $193 -0.01939187686593932258 $191 $251 forward 7 unknown #
vertex $-1 $192 $252 #
straight-curve $-1 0.02400448490714299915 0.00976167871894000061 0.01285239999999999994 0 0 -1 I I #
plane-surface $-1 0.03105224245357200014 0.01075217644729500009 0.01285239999999999994 -0.1391731009600650493 0.990268068741570362 0 0 0 1 forward_v I I I I #
coedge $-1 $139 $253 $204 $254 reversed $105 $-1 #
vertex $-1 $140 $255 #
straight-curve $-1 0.03810000000000000192 0.005807219947617000243 0.005080000000000000314 0 1 0 I I #
point $-1 0.03810000000000000192 0.01174267417564999957 0.005080000000000000314 #
coedge $-1 $222 $143 $205 $256 reversed $152 $-1 #
vertex $-1 $144 $257 #
straight-curve $-1 0.03810000000000000192 0.02530334137477999873 0.00431799999999999979 0 1 0 I I #
point $-1 0.03810000000000000192 0.03886400857390900215 0.00431799999999999979 #
coedge $-1 $258 $147 $196 $254 forward $206 $-1 #
coedge $-1 $147 $258 $200 $256 forward $206 $-1 #
loop $-1 $-1 $258 $149 #
straight-curve $-1 0.03810000000000000192 0.005807219947617000243 0.005080000000000000314 0 0 -1 I I #
face $-1 $137 $259 $2 $-1 $260 forward single #
plane-surface $-1 0.03653624145455799943 0.003098710696142000127 0.005080000000000000314 0.8660254037844384856 -0.5000000000000003331 0 0 0 -1 forward_v I I I I #
loop $-1 $215 $261 $151 #
cone-surface $-1 0.005080000000000000314 0.005080000000000000314 0.005080000000000000314 0 0 -1 0.002514600000000000082 0 0 1 I I 0 1 0.002514600000000000082 forward I I I I #
coedge $-1 $212 $212 $261 $262 forward $156 $-1 #
vertex $-1 $157 $263 #
ellipse-curve $-1 0.03182619999999999894 0.005080000000000000314 0.005080000000000000314 0 0 -1 0.002514600000000000082 0 0 1 I I #
loop $-1 $-1 $158 $151 #
vertex $-1 $159 $264 #
ellipse-curve $-1 0.005080000000000000314 0.005080000000000000314 0 0 0 -1 0.002514600000000000082 0 0 1 I I #
coedge $-1 $265 $160 $266 $267 reversed $51 $-1 #
coedge $-1 $268 $269 $160 $220 forward $259 $-1 #
edge $-1 $270 -1.570796326794896558 $223 -1.420228054018197961 $160 $271 forward 7 unknown #
coedge $-1 $164 $161 $166 $231 forward $152 $-1 #
coedge $-1 $161 $200 $268 $272 forward $152 $-1 #
vertex $-1 $162 $273 #
straight-curve $-1 0.03378199999999999953 0.005080000000000000314 0 0 1 0 I I #
coedge $-1 $163 $274 $275 $276 forward $51 $-1 #
coedge $-1 $238 $177 $163 $227 forward $123 $-1 #
edge $-1 $229 0.004730004629802366835 $277 0.01380813209460126853 $163 $278 forward 7 unknown #
coedge $-1 $182 $164 $177 $237 reversed $152 $-1 #
vertex $-1 $227 $279 #
straight-curve $-1 0.03378199999999999953 0.005080000000000000314 0 0 1 0 I I #
edge $-1 $167 2.461918834681655177 $168 3.821266472497931055 $166 $280 forward 7 unknown #
point $-1 0.03378199999999999953 0.003499474922691999876 0 #
point $-1 0.03378199999999999953 0.006660525077307999885 0 #
point $-1 0.02862579999999999986 0.05610860000000000153 0 #
coedge $-1 $174 $173 $281 $282 forward $175 $-1 #
face $-1 $283 $175 $2 $-1 $284 forward single #
edge $-1 $184 0.004270830259538583966 $229 0.009723665941523830514 $228 $285 forward 7 unknown #
coedge $-1 $178 $226 $286 $287 reversed $123 $-1 #
coedge $-1 $288 $281 $178 $240 forward $105 $-1 #
edge $-1 $241 0.001784437641008034458 $289 0.01380813209460126853 $239 $290 forward 7 unknown #
vertex $-1 $282 $291 #
straight-curve $-1 0.03547150781646599832 0.05174576610843299729 0.01285239999999999994 0 0 -1 I I #
plane-surface $-1 0.03598326350797600298 0.05101490323766399992 0.01285239999999999994 0.8191520442889911324 0.5735764363510471586 0 0 0 -1 forward_v I I I I #
straight-curve $-1 0.0374749209421380014 0.04331167717631700248 0.003692920942138000137 0.1378445374916270894 -0.9808148484639895859 0.1378445374916270894 I I #
point $-1 0.0364950191994860007 0.05028404036689500256 0.002713019199485999875 #
coedge $-1 $281 $191 $187 $247 reversed $105 $-1 #
edge $-1 $248 -0.04198193769487421068 $193 -0.002002337694874692375 $246 $292 forward 7 unknown #
vertex $-1 $247 $293 #
straight-curve $-1 0.01844039999999999915 0.04935219999999999885 0.01285239999999999994 0 0 -1 I I #
plane-surface $-1 0.02122244245357200049 0.02955693935946999973 0.01285239999999999994 -0.990268068741570473 -0.1391731009600640501 0 0 0 1 forward_v I I I I #
straight-curve $-1 0.004801328453834999635 0.007062851082071000368 0.005080000000000000314 -0.990268068741570362 -0.1391731009600650493 0 I I #
point $-1 0.02400448490714299915 0.00976167871894000061 0.005080000000000000314 #
coedge $-1 $196 $294 $295 $296 forward $105 $-1 #
edge $-1 $197 0 $297 0.00625503418176791802 $196 $298 forward 7 unknown #
point $-1 0.03810000000000000192 0.005807219947617000243 0.005080000000000000314 #
edge $-1 $299 -0.0045367812493767928 $201 0.002456559566632145804 $200 $300 forward 7 unknown #
point $-1 0.03810000000000000192 0.005807219947617000243 0.00431799999999999979 #
coedge $-1 $205 $204 $301 $302 forward $206 $-1 #
loop $-1 $-1 $268 $208 #
cone-surface $-1 0.03302000000000000074 0.005080000000000000314 0.005080000000000000314 0 0 -1 0.005080000000000000314 0 0 1 I I 0 1 0.005080000000000000314 forward I I I I #
coedge $-1 $261 $261 $212 $262 reversed $210 $-1 #
edge $-1 $303 0 $303 6.283185307179586232 $212 $304 forward 7 unknown #
point $-1 0.03434079999999999772 0.005080000000000000314 0.005080000000000000314 #
point $-1 0.007594599999999999962 0.005080000000000000314 0 #
coedge $-1 $305 $218 $306 $307 forward $51 $-1 #
coedge $-1 $308 $309 $218 $267 forward $310 $-1 #
edge $-1 $311 0 $270 0.0017357730324970011 $218 $312 forward 7 unknown #
coedge $-1 $301 $219 $222 $272 reversed $259 $-1 #
coedge $-1 $219 $295 $308 $313 forward $259 $-1 #
vertex $-1 $220 $314 #
ellipse-curve $-1 0.03302000000000000074 0.005080000000000000314 0 0 0 1 0.005080000000000000314 0 0 1 I I #
edge $-1 $299 -1.96529674589581882 $223 -1.721364599571602261 $222 $315 forward 7 unknown #
point $-1 0.03378199999999999953 5.747513694599999879e-05 0 #
coedge $-1 $225 $316 $317 $318 reversed $51 $-1 #
coedge $-1 $319 $286 $225 $276 reversed $320 $-1 #
edge $-1 $321 0 $277 0.00660399999999999876 $225 $322 forward 7 unknown #
vertex $-1 $276 $323 #
straight-curve $-1 0.0364950191994860007 0.05028404036689500256 0 -0.5735764363510471586 0.8191520442889911324 0 I I #
point $-1 0.03378199999999999953 0.054158633328894 0 #
ellipse-curve $-1 0.03182619999999999894 0.005080000000000000314 -0.00195580000000000016 -0.7071067811865480168 0 0.7071067811865470176 -0.002514599999999725995 0 -0.002514599999999729465 0.7071067811866240671 I I #
coedge $-1 $239 $246 $235 $282 reversed $105 $-1 #
edge $-1 $241 -0.03659035912954396175 $248 -0.01939187686593918034 $281 $324 forward 7 unknown #
face $-1 $325 $326 $2 $-1 $327 forward single #
plane-surface $-1 0.02695595390823300047 0.05054898305421599847 0.01285239999999999994 -0.1391731009600650493 0.990268068741570362 0 0 0 1 forward_v I I I I #
straight-curve $-1 0.03861994009709399794 0.04724933882249100076 0.00483794009709400015 -0.4975428121645230073 0.7105647754616289946 -0.4975428121645240065 I I #
coedge $-1 $275 $328 $238 $287 forward $320 $-1 #
edge $-1 $289 0 $277 0.005080000000000000314 $238 $329 forward 7 unknown #
coedge $-1 $330 $239 $328 $331 reversed $105 $-1 #
vertex $-1 $240 $332 #
straight-curve $-1 0.0364950191994860007 0.05028404036689500256 0.005080000000000000314 -0.5735764363510471586 0.8191520442889911324 0 I I #
point $-1 0.03547150781646599832 0.05174576610843299729 0.005080000000000000314 #
straight-curve $-1 0.02428315645330799896 0.00777882763686799962 0.005080000000000000314 0.1391731009600640501 -0.990268068741570473 0 I I #
point $-1 0.01844039999999999915 0.04935219999999999885 0.005080000000000000314 #
coedge $-1 $253 $333 $334 $335 forward $105 $-1 #
coedge $-1 $269 $301 $253 $296 reversed $259 $-1 #
edge $-1 $336 -1.570796326794896558 $297 -1.17629590769399095 $253 $337 forward 7 unknown #
vertex $-1 $296 $338 #
straight-curve $-1 0.03810000000000000192 0.005807219947617000243 0.005080000000000000314 -0.5000000000000003331 -0.8660254037844384856 0 I I #
vertex $-1 $256 $339 #
straight-curve $-1 0.03700139316364699921 0.003904377089510000214 0.003219393163647000112 0.4472135954999588714 0.7745966692414817389 0.4472135954999598706 I I #
coedge $-1 $295 $268 $258 $302 reversed $259 $-1 #
edge $-1 $297 0 $299 0.0038895170908840003 $258 $340 forward 7 unknown #
vertex $-1 $262 $341 #
ellipse-curve $-1 0.005080000000000000314 0.005080000000000000314 0.005080000000000000314 0 0 -1 0.002514600000000000082 0 0 1 I I #
coedge $-1 $342 $265 $343 $344 reversed $51 $-1 #
coedge $-1 $345 $346 $265 $307 reversed $347 $-1 #
edge $-1 $311 0.985110783337730056 $348 2.156481870252063171 $265 $349 forward 7 unknown #
coedge $-1 $334 $266 $269 $313 reversed $310 $-1 #
coedge $-1 $266 $334 $345 $350 forward $310 $-1 #
loop $-1 $-1 $308 $351 #
vertex $-1 $267 $352 #
straight-curve $-1 0.03128422696750299964 0 0 1 0 0 I I #
edge $-1 $336 0 $270 0.005080000000000000314 $269 $353 forward 7 unknown #
point $-1 0.03302000000000000074 0 0 #
ellipse-curve $-1 0.03302000000000000074 0.005080000000000000314 -0.000761999999999999982 0.7071067811865480168 0 -0.7071067811865470176 -0.005079999999999767861 0 -0.0050799999999997748 0.7071067811865794361 I I #
coedge $-1 $274 $354 $355 $356 forward $51 $-1 #
coedge $-1 $357 $358 $274 $318 forward $359 $-1 #
edge $-1 $321 1.570796326794896558 $360 3.141592653589793116 $274 $361 forward 7 unknown #
coedge $-1 $328 $275 $358 $362 reversed $320 $-1 #
loop $-1 $-1 $319 $363 #
vertex $-1 $318 $364 #
straight-curve $-1 0.02197100000000000095 0.06159499999999999698 0 1 0 0 I I #
point $-1 0.02857499999999999971 0.06159499999999999698 0 #
straight-curve $-1 -0.000762756453308000037 0.04665337236313200214 0.005080000000000000314 -0.990268068741570362 -0.1391731009600650493 0 I I #
face $-1 $365 $366 $2 $-1 $367 forward single #
loop $-1 $-1 $368 $283 #
cone-surface $-1 0.005080000000000000314 0.005080000000000000314 0.005080000000000000314 0 0 -1 0.005080000000000000314 0 0 1 I I 0 1 0.005080000000000000314 forward I I I I #
coedge $-1 $286 $319 $288 $331 forward $320 $-1 #
straight-curve $-1 0.02857499999999999971 0.06159499999999999698 0.005080000000000000314 0 0 -1 I I #
coedge $-1 $369 $288 $370 $371 forward $105 $-1 #
edge $-1 $372 0 $289 0.00660399999999999876 $288 $373 forward 7 unknown #
point $-1 0.02857499999999999971 0.06159499999999999698 0.005080000000000000314 #
coedge $-1 $294 $374 $375 $376 reversed $105 $-1 #
coedge $-1 $309 $308 $294 $335 reversed $310 $-1 #
edge $-1 $377 0 $336 0.0017357730324970011 $294 $378 forward 7 unknown #
vertex $-1 $335 $379 #
ellipse-curve $-1 0.03302000000000000074 0.005080000000000000314 0.005080000000000000314 0 0 1 0.005080000000000000314 0 0 1 I I #
point $-1 0.03497248290911599694 0.0003902014446659999984 0.005080000000000000314 #
point $-1 0.03497248290911599694 0.0003902014446659999984 0.001190482909116000014 #
straight-curve $-1 0.03497248290911599694 0.0003902014446659999984 0.005080000000000000314 0 0 -1 I I #
point $-1 0.007594599999999999962 0.005080000000000000314 0.005080000000000000314 #
coedge $-1 $380 $305 $381 $382 reversed $51 $-1 #
coedge $-1 $383 $384 $305 $344 forward $385 $-1 #
edge $-1 $386 0 $348 0.009355773032496999403 $305 $387 forward 7 unknown #
coedge $-1 $375 $306 $309 $350 reversed $347 $-1 #
coedge $-1 $306 $375 $383 $388 forward $347 $-1 #
loop $-1 $-1 $345 $389 #
vertex $-1 $307 $390 #
ellipse-curve $-1 0.02285999999999999838 -0.01269999999999999948 0 0 0 1 0.01524000000000000007 0 0 1 I I #
edge $-1 $377 0 $311 0.005080000000000000314 $309 $391 forward 7 unknown #
face $-1 $389 $310 $2 $-1 $392 reversed single #
point $-1 0.03128422696750299964 0 0 #
straight-curve $-1 0.03302000000000000074 0 0.005080000000000000314 0 0 -1 I I #
coedge $-1 $316 $393 $394 $395 forward $51 $-1 #
coedge $-1 $396 $397 $316 $356 reversed $398 $-1 #
edge $-1 $399 0 $360 0.03238500000000000406 $316 $400 forward 7 unknown #
coedge $-1 $370 $317 $397 $401 reversed $359 $-1 #
coedge $-1 $317 $370 $319 $362 forward $359 $-1 #
loop $-1 $-1 $357 $402 #
vertex $-1 $356 $403 #
ellipse-curve $-1 0.02197100000000000095 0.05651500000000000273 0 0 0 1 0.005080000000000000314 0 0 1 I I #
edge $-1 $372 0 $321 0.005080000000000000314 $358 $404 forward 7 unknown #
face $-1 $351 $320 $2 $-1 $405 forward single #
point $-1 0.02197100000000000095 0.06159499999999999698 0 #
face $-1 $406 $407 $2 $-1 $408 forward single #
loop $-1 $-1 $409 $325 #
plane-surface $-1 0 0.01206499999999999934 0.005080000000000000314 -1 0 0 0 0 1 forward_v I I I I #
coedge $-1 $410 $381 $384 $411 reversed $326 $-1 #
coedge $-1 $412 $330 $413 $414 reversed $105 $-1 #
coedge $-1 $358 $357 $330 $371 reversed $359 $-1 #
edge $-1 $372 1.570796326794896558 $415 3.141592653589793116 $330 $416 forward 7 unknown #
vertex $-1 $331 $417 #
straight-curve $-1 0.02197100000000000095 0.06159499999999999698 0.005080000000000000314 1 0 0 I I #
coedge $-1 $333 $418 $419 $420 forward $105 $-1 #
coedge $-1 $346 $345 $333 $376 forward $347 $-1 #
edge $-1 $377 0.985110783337730056 $421 2.156481870252063171 $333 $422 forward 7 unknown #
vertex $-1 $376 $423 #
straight-curve $-1 0.03128422696750299964 0 0.005080000000000000314 1 0 0 I I #
point $-1 0.03302000000000000074 0 0.005080000000000000314 #
coedge $-1 $393 $342 $424 $425 forward $51 $-1 #
coedge $-1 $368 $426 $342 $382 forward $326 $-1 #
edge $-1 $427 -3.141592653589793116 $386 -1.570796326794896558 $342 $428 forward 7 unknown #
coedge $-1 $419 $343 $346 $388 reversed $385 $-1 #
coedge $-1 $343 $419 $368 $411 forward $385 $-1 #
loop $-1 $-1 $419 $429 #
vertex $-1 $344 $430 #
straight-curve $-1 0.005080000000000000314 0 0 1 0 0 I I #
edge $-1 $421 0 $348 0.005080000000000000314 $346 $431 forward 7 unknown #
face $-1 $429 $347 $2 $-1 $432 reversed single #
point $-1 0.01443577303249700058 0 0 #
straight-curve $-1 0.03128422696750299964 0 0.005080000000000000314 0 0 -1 I I #
plane-surface $-1 0.03215211348375100059 0 0.005080000000000000314 0 1 0 0 0 1 forward_v I I I I #
coedge $-1 $354 $380 $433 $434 forward $51 $-1 #
coedge $-1 $435 $436 $354 $395 reversed $437 $-1 #
edge $-1 $438 -1.570796326794896558 $399 0 $354 $439 forward 7 unknown #
coedge $-1 $413 $355 $436 $440 reversed $398 $-1 #
coedge $-1 $355 $413 $357 $401 forward $398 $-1 #
loop $-1 $-1 $396 $441 #
vertex $-1 $395 $442 #
straight-curve $-1 0.01689099999999999976 0.02412999999999999867 0 0 1 0 I I #
edge $-1 $415 0 $360 0.005080000000000000314 $397 $443 forward 7 unknown #
face $-1 $363 $359 $2 $-1 $444 forward single #
point $-1 0.01689099999999999976 0.05651500000000000273 0 #
straight-curve $-1 0.02197100000000000095 0.06159499999999999698 0.005080000000000000314 0 0 -1 I I #
plane-surface $-1 0.02527300000000000033 0.06159499999999999698 0.005080000000000000314 0 1 0 0 0 1 forward_v I I I I #
face $-1 $441 $437 $2 $-1 $445 reversed single #
loop $-1 $-1 $446 $365 #
plane-surface $-1 0.005905500000000000159 0.01905000000000000096 0.005080000000000000314 0 1 0 0 0 1 forward_v I I I I #
coedge $-1 $447 $424 $426 $448 reversed $366 $-1 #
coedge $-1 $426 $368 $418 $449 reversed $326 $-1 #
edge $-1 $450 0 $386 0.005080000000000000314 $368 $451 forward 7 unknown #
coedge $-1 $452 $369 $453 $454 reversed $105 $-1 #
coedge $-1 $397 $396 $369 $414 forward $398 $-1 #
edge $-1 $455 0 $415 0.03238500000000000406 $369 $456 forward 7 unknown #
vertex $-1 $371 $457 #
ellipse-curve $-1 0.02197100000000000095 0.05651500000000000273 0.005080000000000000314 0 0 1 0.005080000000000000314 0 0 1 I I #
point $-1 0.02197100000000000095 0.06159499999999999698 0.005080000000000000314 #
coedge $-1 $374 $458 $410 $449 forward $105 $-1 #
coedge $-1 $384 $383 $374 $420 reversed $385 $-1 #
edge $-1 $450 0 $421 0.009355773032496999403 $374 $459 forward 7 unknown #
vertex $-1 $420 $460 #
ellipse-curve $-1 0.02285999999999999838 -0.01269999999999999948 0.005080000000000000314 0 0 1 0.01524000000000000007 0 0 1 I I #
point $-1 0.03128422696750299964 0 0.005080000000000000314 #
coedge $-1 $409 $461 $380 $425 reversed $366 $-1 #
edge $-1 $427 0 $462 0.01396999999999999978 $380 $463 forward 7 unknown #
coedge $-1 $381 $410 $409 $448 forward $326 $-1 #
vertex $-1 $382 $464 #
ellipse-curve $-1 0.005080000000000000314 0.005080000000000000314 0 0 0 1 0.005080000000000000314 0 0 1 I I #
face $-1 $-1 $385 $2 $-1 $465 reversed single #
point $-1 0.005080000000000000314 0 0 #
straight-curve $-1 0.01443577303249700058 0 0.005080000000000000314 0 0 -1 I I #
cone-surface $-1 0.02285999999999999838 -0.01269999999999999948 0.005080000000000000314 0 0 -1 0.01524000000000000007 0 0 1 I I 0 1 0.01524000000000000007 forward I I I I #
coedge $-1 $446 $466 $393 $434 reversed $407 $-1 #
edge $-1 $462 0 $438 0.01181100000000000032 $393 $467 forward 7 unknown #
coedge $-1 $453 $394 $466 $468 reversed $437 $-1 #
coedge $-1 $394 $453 $396 $440 forward $437 $-1 #
loop $-1 $-1 $435 $406 #
vertex $-1 $434 $469 #
ellipse-curve $-1 0.01181100000000000032 0.02412999999999999867 0 0 0 1 0.005080000000000000314 0 0 1 I I #
edge $-1 $455 0 $399 0.005080000000000000314 $436 $470 forward 7 unknown #
face $-1 $402 $398 $2 $-1 $471 forward single #
point $-1 0.01689099999999999976 0.02412999999999999867 0 #
straight-curve $-1 0.01689099999999999976 0.05651500000000000273 0.005080000000000000314 0 0 -1 I I #
cone-surface $-1 0.02197100000000000095 0.05651500000000000273 0.005080000000000000314 0 0 -1 0.005080000000000000314 0 0 1 I I 0 1 0.005080000000000000314 forward I I I I #
cone-surface $-1 0.01181100000000000032 0.02412999999999999867 0.005080000000000000314 0 0 -1 0.005080000000000000314 0 0 1 I I 0 1 0.005080000000000000314 forward I I I I #
coedge $-1 $472 $433 $461 $473 reversed $407 $-1 #
coedge $-1 $461 $409 $458 $474 forward $366 $-1 #
edge $-1 $475 0 $427 0.005080000000000000314 $426 $476 forward 7 unknown #
edge $-1 $475 -3.141592653589793116 $450 -1.570796326794896558 $418 $477 forward 7 unknown #
vertex $-1 $449 $478 #
straight-curve $-1 0.005080000000000000314 0 0.005080000000000000314 0 0 -1 I I #
coedge $-1 $458 $412 $472 $479 reversed $105 $-1 #
coedge $-1 $436 $435 $412 $454 forward $437 $-1 #
edge $-1 $480 -1.570796326794896558 $455 0 $412 $481 forward 7 unknown #
vertex $-1 $414 $482 #
straight-curve $-1 0.01689099999999999976 0.02412999999999999867 0.005080000000000000314 0 1 0 I I #
point $-1 0.01689099999999999976 0.05651500000000000273 0.005080000000000000314 #
coedge $-1 $418 $452 $447 $474 reversed $105 $-1 #
straight-curve $-1 0.005080000000000000314 0 0.005080000000000000314 1 0 0 I I #
point $-1 0.01443577303249700058 0 0.005080000000000000314 #
coedge $-1 $424 $447 $446 $473 forward $366 $-1 #
vertex $-1 $425 $483 #
straight-curve $-1 0 0.005080000000000000314 0 0 1 0 I I #
point $-1 0 0.005080000000000000314 0 #
plane-surface $-1 0.009757886516249000483 0 0.005080000000000000314 -1.000000000000000078e-15 1 0 0 0 1 forward_v I I I I #
coedge $-1 $433 $472 $435 $468 forward $407 $-1 #
straight-curve $-1 0 0.01905000000000000096 0 1 0 0 I I #
edge $-1 $480 0 $438 0.005080000000000000314 $466 $484 forward 7 unknown #
point $-1 0.01181100000000000032 0.01905000000000000096 0 #
straight-curve $-1 0.01689099999999999976 0.02412999999999999867 0.005080000000000000314 0 0 -1 I I #
plane-surface $-1 0.01689099999999999976 0.04032249999999999723 0.005080000000000000314 -1 0 0 0 0 1 forward_v I I I I #
coedge $-1 $466 $446 $452 $479 forward $407 $-1 #
edge $-1 $485 0 $462 0.005080000000000000314 $461 $486 forward 7 unknown #
edge $-1 $475 0 $485 0.01396999999999999978 $458 $487 forward 7 unknown #
vertex $-1 $474 $488 #
straight-curve $-1 0 0.005080000000000000314 0.005080000000000000314 0 0 -1 I I #
ellipse-curve $-1 0.005080000000000000314 0.005080000000000000314 0.005080000000000000314 0 0 1 0.005080000000000000314 0 0 1 I I #
point $-1 0.005080000000000000314 0 0.005080000000000000314 #
edge $-1 $485 0 $480 0.01181100000000000032 $452 $489 forward 7 unknown #
vertex $-1 $454 $490 #
ellipse-curve $-1 0.01181100000000000032 0.02412999999999999867 0.005080000000000000314 0 0 1 0.005080000000000000314 0 0 1 I I #
point $-1 0.01689099999999999976 0.02412999999999999867 0.005080000000000000314 #
point $-1 0 0.01905000000000000096 0 #
straight-curve $-1 0.01181100000000000032 0.01905000000000000096 0.005080000000000000314 0 0 -1 I I #
vertex $-1 $479 $491 #
straight-curve $-1 0 0.01905000000000000096 0.005080000000000000314 0 0 -1 I I #
straight-curve $-1 0 0.005080000000000000314 0.005080000000000000314 0 1 0 I I #
point $-1 0 0.005080000000000000314 0.005080000000000000314 #
straight-curve $-1 0 0.01905000000000000096 0.005080000000000000314 1 0 0 I I #
point $-1 0.01181100000000000032 0.01905000000000000096 0.005080000000000000314 #
point $-1 0 0.01905000000000000096 0.005080000000000000314 #
End-of-ACIS-data 