600 0 1 0           
107 GICL ACIS Healer - Source: /gicl/data5/repository/ICEM-CDC/Fixture_Models/ExtSupport1/ExtSupport1.sat - 6 0 18 ACIS 6.0.3 Solaris 24 Sat Apr 13 23:07:24 2002 
1 9.999999999999999547e-07 1.000000000000000036e-10 
body $-1 $1 $-1 $2 #
lump $-1 $-1 $3 $0 #
transform $-1 1 0 0 0 1 0 0 0 1 0 0 0 1 no_rotate no_reflect no_shear #
shell $-1 $-1 $-1 $4 $-1 $1 #
face $5 $6 $7 $3 $-1 $8 reversed single #
face_name-twe-attrib $-1 $-1 $-1 $4 1 #
face $9 $10 $11 $3 $-1 $12 forward single #
loop $13 $-1 $14 $4 #
plane-surface $15 0 0 -0.75 0 0 1 1 0 0 forward_v I I I I #
face_name-twe-attrib $-1 $-1 $-1 $6 2 #
face $16 $17 $18 $3 $-1 $19 forward single #
loop $20 $-1 $21 $6 #
plane-surface $22 0 0 0.75 0 0 1 1 0 0 forward_v I I I I #
loop_type-twe-attrib $-1 $-1 $-1 $7 0 #
coedge $-1 $23 $24 $25 $26 forward $7 $-1 #
surf-twe-attrib $-1 $-1 $-1 $8 4 #
face_name-twe-attrib $-1 $-1 $-1 $10 3 #
face $27 $28 $29 $3 $-1 $30 forward single #
loop $31 $32 $33 $10 #
plane-surface $34 -1 -0.75 -0.75 0 -1 0 0 0 -1 forward_v I I I I #
loop_type-twe-attrib $-1 $-1 $-1 $11 0 #
coedge $-1 $35 $36 $37 $38 reversed $11 $-1 #
surf-twe-attrib $-1 $-1 $-1 $12 6 #
coedge $-1 $39 $14 $40 $41 forward $7 $-1 #
coedge $-1 $14 $42 $43 $44 forward $7 $-1 #
coedge $-1 $45 $46 $14 $26 reversed $32 $-1 #
edge $47 $48 -5.5 $49 0 $25 $50 forward 7 unknown #
face_name-twe-attrib $-1 $-1 $-1 $17 4 #
face $51 $52 $53 $3 $-1 $30 forward single #
loop $54 $-1 $55 $17 #
plane-surface $56 4.5 -0.75 -0.75 1 0 0 0 0 -1 forward_v I I I I #
loop_type-twe-attrib $-1 $-1 $-1 $18 1 #
loop $57 $-1 $58 $10 #
coedge $-1 $33 $33 $59 $60 forward $18 $-1 #
surf-twe-attrib $-1 $-1 $-1 $19 10 #
coedge $-1 $61 $21 $62 $63 reversed $11 $-1 #
coedge $-1 $21 $64 $65 $66 reversed $11 $-1 #
coedge $-1 $46 $67 $21 $38 forward $32 $-1 #
edge $68 $69 -5.5 $70 0 $37 $71 forward 7 unknown #
coedge $-1 $72 $23 $73 $74 forward $7 $-1 #
coedge $-1 $75 $76 $23 $41 reversed $77 $-1 #
edge $78 $49 -0.75 $79 0 $40 $80 forward 7 unknown #
coedge $-1 $24 $81 $82 $83 forward $7 $-1 #
coedge $-1 $84 $85 $24 $44 reversed $29 $-1 #
edge $86 $87 -1 $48 0 $43 $88 forward 7 unknown #
coedge $-1 $58 $25 $85 $89 reversed $32 $-1 #
coedge $-1 $25 $37 $75 $90 forward $32 $-1 #
edge_name-twe-attrib $-1 $-1 $-1 $26 2 8704 #
vertex $-1 $89 $91 #
vertex $-1 $90 $92 #
straight-curve $93 -1 -0.75 -0.75 -1 0 0 I I #
face_name-twe-attrib $-1 $94 $-1 $28 5 #
face $95 $96 $97 $3 $-1 $98 forward single #
loop $99 $-1 $100 $28 #
loop_type-twe-attrib $-1 $-1 $-1 $29 0 #
coedge $-1 $101 $84 $102 $103 reversed $29 $-1 #
surf-twe-attrib $-1 $104 $-1 $30 28 #
loop_type-twe-attrib $-1 $-1 $-1 $32 0 #
coedge $-1 $105 $45 $106 $107 reversed $32 $-1 #
coedge $-1 $59 $59 $33 $60 reversed $108 $-1 #
edge $109 $110 -3.141592653589793116 $110 3.141592653589793116 $59 $111 forward 7 unknown #
coedge $-1 $112 $35 $113 $114 reversed $11 $-1 #
coedge $-1 $115 $116 $35 $63 forward $53 $-1 #
edge $117 $118 -1 $69 0 $62 $119 forward 7 unknown #
coedge $-1 $36 $120 $121 $122 reversed $11 $-1 #
coedge $-1 $76 $75 $36 $66 forward $77 $-1 #
edge $123 $70 -0.75 $124 0 $65 $125 forward 7 unknown #
coedge $-1 $37 $126 $115 $127 reversed $32 $-1 #
edge_name-twe-attrib $-1 $-1 $-1 $38 1 8704 #
vertex $-1 $127 $128 #
vertex $-1 $90 $129 #
straight-curve $130 -1 -0.75 0.75 -1 0 0 I I #
coedge $-1 $131 $39 $132 $133 forward $7 $-1 #
coedge $-1 $134 $135 $39 $74 reversed $136 $-1 #
edge $137 $79 -0.3042893218813460532 $138 0 $73 $139 forward 7 unknown #
coedge $-1 $65 $40 $46 $90 reversed $77 $-1 #
coedge $-1 $40 $65 $134 $140 forward $77 $-1 #
loop $141 $-1 $40 $142 #
edge_name-twe-attrib $-1 $-1 $-1 $41 26 8704 #
vertex $-1 $140 $143 #
straight-curve $144 -1 0 -0.75 0 1 0 I I #
coedge $-1 $42 $145 $146 $147 forward $7 $-1 #
coedge $-1 $148 $149 $42 $83 reversed $150 $-1 #
edge $151 $152 -5.125 $87 0 $82 $153 forward 7 unknown #
coedge $-1 $55 $43 $149 $154 reversed $29 $-1 #
coedge $-1 $43 $155 $45 $89 forward $29 $-1 #
edge_name-twe-attrib $-1 $-1 $-1 $44 4 8704 #
vertex $-1 $154 $156 #
straight-curve $157 4.5 -0.75 -0.75 0 -1 0 I I #
edge $158 $159 -0.46875 $48 0 $85 $160 forward 7 unknown #
edge $161 $70 -1.5 $49 0 $75 $162 forward 7 unknown #
point $-1 4.5 -0.75 -0.75 #
point $-1 -1 -0.75 -0.75 #
cur-twe-attrib $-1 $-1 $-1 $50 26 #
colour-tsl-attrib $-1 $163 $51 $28 1 #
face_name-twe-attrib $-1 $-1 $-1 $52 6 #
face $164 $165 $166 $3 $-1 $167 forward single #
loop $168 $150 $169 $52 #
plane-surface $170 4.5 0.25 -0.75 0 1 0 0 0 1 forward_v I I I I #
loop_type-twe-attrib $-1 $-1 $-1 $53 0 #
coedge $-1 $171 $172 $173 $174 forward $53 $-1 #
coedge $-1 $155 $55 $175 $176 forward $29 $-1 #
coedge $-1 $177 $178 $55 $103 forward $179 $-1 #
edge $180 $181 -0.5 $182 0 $102 $183 forward 7 unknown #
surf-twe-attrib $-1 $-1 $56 $30 17 #
coedge $-1 $126 $58 $184 $185 reversed $32 $-1 #
coedge $-1 $186 $187 $58 $107 forward $188 $-1 #
edge $189 $190 -3.5625 $159 0 $106 $191 forward 7 unknown #
loop $192 $-1 $59 $193 #
edge_name-twe-attrib $-1 $-1 $-1 $60 31 8704 #
vertex $-1 $60 $194 #
ellipse-curve $195 0 -0.75 0 0 1 0 -0.25 0 0 1 I I #
coedge $-1 $196 $61 $197 $198 reversed $11 $-1 #
coedge $-1 $199 $148 $61 $114 forward $150 $-1 #
edge $200 $201 -5.125 $118 0 $113 $202 forward 7 unknown #
coedge $-1 $172 $62 $67 $127 forward $53 $-1 #
coedge $-1 $62 $171 $199 $203 reversed $53 $-1 #
edge_name-twe-attrib $-1 $-1 $-1 $63 5 8704 #
vertex $-1 $203 $204 #
straight-curve $205 4.5 -0.75 0.75 0 -1 0 I I #
coedge $-1 $64 $206 $207 $208 reversed $11 $-1 #
coedge $-1 $135 $134 $64 $122 forward $136 $-1 #
edge $209 $124 -0.3042893218813460532 $210 0 $121 $211 forward 7 unknown #
edge_name-twe-attrib $-1 $-1 $-1 $66 28 8704 #
vertex $-1 $140 $212 #
straight-curve $213 -1 0 0.75 0 1 0 I I #
coedge $-1 $67 $105 $214 $215 forward $32 $-1 #
edge $216 $69 -0.46875 $217 0 $115 $218 forward 7 unknown #
point $-1 4.5 -0.75 0.75 #
point $-1 -1 -0.75 0.75 #
cur-twe-attrib $-1 $-1 $-1 $71 38 #
coedge $-1 $145 $72 $219 $220 forward $7 $-1 #
coedge $-1 $221 $222 $72 $133 reversed $223 $-1 #
edge $224 $138 -0.04999999999999987094 $225 0 $132 $226 forward 7 unknown #
coedge $-1 $121 $73 $76 $140 reversed $136 $-1 #
coedge $-1 $73 $121 $221 $227 forward $136 $-1 #
loop $228 $-1 $73 $229 #
edge_name-twe-attrib $-1 $-1 $-1 $74 23 8704 #
vertex $-1 $227 $230 #
straight-curve $231 -0.6957106781186539468 0 -0.75 1 0 0 I I #
edge $232 $124 -1.5 $79 0 $76 $233 forward 7 unknown #
loop_type-twe-attrib $-1 $-1 $-1 $77 0 #
face $234 $193 $77 $3 $-1 $235 forward single #
point $-1 -1 0 -0.75 #
cur-twe-attrib $-1 $-1 $-1 $80 41 #
coedge $-1 $81 $131 $236 $237 forward $7 $-1 #
coedge $-1 $238 $239 $81 $147 reversed $166 $-1 #
edge $240 $241 -0.1792893218813469969 $152 0 $146 $242 forward 7 unknown #
coedge $-1 $113 $82 $239 $243 reversed $150 $-1 #
coedge $-1 $82 $244 $84 $154 forward $150 $-1 #
loop $245 $-1 $246 $52 #
edge_name-twe-attrib $-1 $-1 $-1 $83 8 8704 #
vertex $-1 $243 $247 #
straight-curve $248 4.5 0.25 -0.75 1 0 0 I I #
edge $249 $182 -0.3499999999999999778 $87 0 $149 $250 forward 7 unknown #
coedge $-1 $85 $101 $186 $251 forward $29 $-1 #
point $-1 4.5 0.25 -0.75 #
cur-twe-attrib $-1 $-1 $-1 $88 44 #
edge_name-twe-attrib $-1 $-1 $-1 $89 3 8704 #
vertex $-1 $251 $252 #
straight-curve $253 4.5 -0.75 -0.75 0 0 -1 I I #
edge_name-twe-attrib $-1 $-1 $-1 $90 27 8704 #
straight-curve $254 -1 -0.75 -0.75 0 0 -1 I I #
colour-tsl-attrib $-1 $-1 $94 $28 1 #
face_name-twe-attrib $-1 $-1 $-1 $96 7 #
face $255 $256 $257 $3 $-1 $258 forward single #
loop $259 $-1 $146 $96 #
plane-surface $260 -0.625 0.25 -0.75 -1 0 0 0 0 1 forward_v I I I I #
loop_type-twe-attrib $-1 $-1 $-1 $97 1 #
coedge $-1 $169 $169 $261 $262 reversed $97 $-1 #
surf-twe-attrib $-1 $-1 $-1 $98 52 #
coedge $-1 $116 $100 $263 $264 forward $53 $-1 #
coedge $-1 $100 $115 $265 $266 reversed $53 $-1 #
coedge $-1 $267 $268 $100 $174 reversed $269 $-1 #
edge $270 $271 -0.1187500000000000222 $272 0 $173 $273 forward 7 unknown #
coedge $-1 $274 $275 $101 $176 reversed $269 $-1 #
edge $276 $181 -0.1187500000000000222 $277 0 $175 $278 forward 7 unknown #
coedge $-1 $279 $102 $244 $280 reversed $179 $-1 #
coedge $-1 $102 $279 $274 $281 forward $179 $-1 #
loop $282 $-1 $177 $283 #
edge_name-twe-attrib $-1 $-1 $-1 $103 53 8704 #
vertex $-1 $281 $284 #
vertex $-1 $280 $285 #
straight-curve $286 4.5 0.25 -0.4000000000000000222 0 1 0 I I #
coedge $-1 $287 $288 $105 $185 forward $289 $-1 #
edge $290 $291 -3.141592653589793116 $190 0 $184 $292 forward 7 unknown #
coedge $-1 $293 $106 $155 $251 reversed $188 $-1 #
coedge $-1 $106 $293 $287 $294 forward $188 $-1 #
loop $295 $-1 $293 $296 #
edge_name-twe-attrib $-1 $-1 $-1 $107 32 8704 #
vertex $-1 $294 $297 #
straight-curve $298 4.5 -0.75 -0.28125 1 0 0 I I #
loop_type-twe-attrib $-1 $-1 $-1 $108 1 #
face $299 $296 $300 $3 $-1 $301 reversed single #
point $-1 0.25 -0.75 0 #
cur-twe-attrib $-1 $-1 $-1 $111 60 #
coedge $-1 $206 $112 $302 $303 reversed $11 $-1 #
coedge $-1 $239 $238 $112 $198 forward $166 $-1 #
edge $304 $305 -0.1792893218813469969 $201 0 $197 $306 forward 7 unknown #
coedge $-1 $307 $113 $116 $203 forward $150 $-1 #
edge_name-twe-attrib $-1 $-1 $-1 $114 9 8704 #
vertex $-1 $243 $308 #
straight-curve $309 4.5 0.25 0.75 1 0 0 I I #
edge $310 $118 -0.3499999999999999778 $311 0 $199 $312 forward 7 unknown #
point $-1 4.5 0.25 0.75 #
cur-twe-attrib $-1 $-1 $-1 $119 63 #
coedge $-1 $120 $196 $313 $314 reversed $11 $-1 #
coedge $-1 $222 $221 $120 $208 forward $223 $-1 #
edge $315 $210 -0.05000000000000015543 $316 0 $207 $317 forward 7 unknown #
edge_name-twe-attrib $-1 $-1 $-1 $122 24 8704 #
vertex $-1 $227 $318 #
straight-curve $319 -0.6957106781186539468 0 0.75 1 0 0 I I #
point $-1 -1 0 0.75 #
cur-twe-attrib $-1 $-1 $-1 $125 66 #
coedge $-1 $320 $265 $126 $215 reversed $321 $-1 #
edge $322 $291 -3.5625 $217 0 $214 $323 forward 7 unknown #
edge_name-twe-attrib $-1 $-1 $-1 $127 6 8704 #
vertex $-1 $127 $324 #
straight-curve $325 4.5 -0.75 0.28125 0 0 -1 I I #
coedge $-1 $326 $327 $131 $220 reversed $328 $-1 #
edge $329 $225 -3.141592653589790007 $330 8.933825901280521826e-15 $219 $331 forward 7 unknown #
coedge $-1 $207 $132 $135 $227 reversed $223 $-1 #
coedge $-1 $132 $207 $326 $332 forward $223 $-1 #
loop $333 $-1 $132 $334 #
edge_name-twe-attrib $-1 $-1 $-1 $133 20 8704 #
vertex $-1 $332 $335 #
straight-curve $336 -0.6603553390593269734 -0.03535533905932759791 -0.75 0.707106781186539024 -0.7071067811865560104 0 I I #
edge $337 $210 -1.5 $138 0 $135 $338 forward 7 unknown #
loop_type-twe-attrib $-1 $-1 $-1 $136 0 #
face $339 $142 $136 $3 $-1 $340 forward single #
point $-1 -0.6957106781186539468 0 -0.75 #
cur-twe-attrib $-1 $-1 $-1 $139 74 #
edge_name-twe-attrib $-1 $-1 $-1 $140 29 8704 #
straight-curve $341 -1 0 -0.75 0 0 -1 I I #
face_name-twe-attrib $-1 $-1 $-1 $142 12 #
plane-surface $342 -1 0 -0.75 -1 0 0 0 0 1 forward_v I I I I #
coedge $-1 $343 $344 $145 $237 reversed $257 $-1 #
edge $345 $330 -0.04999999999999803213 $241 0 $236 $346 forward 7 unknown #
coedge $-1 $197 $146 $344 $347 reversed $166 $-1 #
coedge $-1 $146 $197 $148 $243 forward $166 $-1 #
edge_name-twe-attrib $-1 $-1 $-1 $147 11 8704 #
vertex $-1 $347 $348 #
straight-curve $349 -0.625 0.25 -0.75 0 1 0 I I #
edge $350 $201 -1.5 $152 0 $239 $351 forward 7 unknown #
coedge $-1 $149 $246 $177 $280 forward $150 $-1 #
loop_type-twe-attrib $-1 $-1 $-1 $150 0 #
coedge $-1 $244 $307 $352 $353 forward $150 $-1 #
point $-1 -0.625 0.25 -0.75 #
cur-twe-attrib $-1 $-1 $-1 $153 83 #
edge_name-twe-attrib $-1 $-1 $-1 $154 7 8704 #
straight-curve $354 4.5 0.25 -0.75 0 0 -1 I I #
edge $355 $277 -0.5 $159 0 $186 $356 forward 7 unknown #
point $-1 4.5 -0.75 -0.28125 #
cur-twe-attrib $-1 $357 $-1 $160 127 #
cur-twe-attrib $-1 $-1 $-1 $162 90 #
face_name-twe-attrib $-1 $-1 $-1 $165 8 #
face $358 $334 $328 $3 $-1 $359 reversed single #
loop $360 $-1 $236 $165 #
plane-surface $361 -0.625 0.07071067811865300312 -0.75 -0.7071067811865350272 -0.7071067811865600072 0 0 0 1 forward_v I I I I #
loop_type-twe-attrib $-1 $-1 $-1 $166 0 #
surf-twe-attrib $-1 $-1 $-1 $167 96 #
coedge $-1 $261 $261 $169 $262 forward $300 $-1 #
edge $362 $363 0 $363 6.283185307179586232 $261 $364 forward 7 unknown #
coedge $-1 $365 $366 $171 $264 reversed $367 $-1 #
edge $368 $272 -0.5 $311 0 $263 $369 forward 7 unknown #
coedge $-1 $214 $370 $172 $266 forward $321 $-1 #
edge $371 $271 -0.5 $217 0 $265 $372 forward 7 unknown #
coedge $-1 $373 $173 $370 $374 forward $269 $-1 #
coedge $-1 $173 $375 $365 $376 reversed $269 $-1 #
loop $377 $-1 $173 $378 #
edge_name-twe-attrib $-1 $-1 $-1 $174 39 8704 #
vertex $-1 $374 $379 #
vertex $-1 $376 $380 #
straight-curve $381 4.5 -0.25 0.4000000000000000222 0 0 1 I I #
coedge $-1 $375 $175 $178 $281 reversed $269 $-1 #
coedge $-1 $175 $373 $293 $382 forward $269 $-1 #
edge_name-twe-attrib $-1 $-1 $-1 $176 43 8704 #
vertex $-1 $382 $383 #
straight-curve $384 4.5 -0.25 -0.28125 0 0 1 I I #
coedge $-1 $178 $177 $385 $386 forward $179 $-1 #
edge $387 $388 -3.5625 $182 0 $177 $389 forward 7 unknown #
edge $390 $391 -3.5625 $181 0 $178 $392 forward 7 unknown #
loop_type-twe-attrib $-1 $-1 $-1 $179 0 #
face $393 $-1 $179 $3 $-1 $394 reversed single #
point $-1 4.5 -0.25 -0.4000000000000000222 #
point $-1 4.5 0.25 -0.4000000000000000222 #
cur-twe-attrib $-1 $-1 $-1 $183 103 #
coedge $-1 $395 $184 $187 $294 reversed $289 $-1 #
coedge $-1 $184 $395 $320 $396 forward $289 $-1 #
loop $397 $-1 $395 $398 #
edge_name-twe-attrib $-1 $-1 $-1 $185 34 8704 #
vertex $-1 $396 $399 #
ellipse-curve $400 0.9375 -0.75 0 0 -1 0 0 0 -0.28125 1 I I #
coedge $-1 $187 $186 $275 $382 reversed $188 $-1 #
edge $401 $402 -0.5 $190 0 $287 $403 forward 7 unknown #
loop_type-twe-attrib $-1 $-1 $-1 $188 0 #
face $404 $398 $188 $3 $-1 $405 reversed single #
point $-1 0.9375 -0.75 -0.28125 #
cur-twe-attrib $-1 $-1 $-1 $191 107 #
face_name-twe-attrib $-1 $-1 $-1 $193 13 #
loop $406 $108 $261 $193 #
cone-surface $407 0 0.25 0 0 -1 0 0.25 0 0 1 I I 0 1 0.25 forward I I I I #
coedge $-1 $344 $343 $196 $303 forward $257 $-1 #
edge $408 $409 -0.04999999999999832356 $305 0 $302 $410 forward 7 unknown #
edge_name-twe-attrib $-1 $-1 $-1 $198 12 8704 #
vertex $-1 $347 $411 #
straight-curve $412 -0.625 0.25 0.75 0 1 0 I I #
coedge $-1 $246 $199 $366 $413 reversed $150 $-1 #
point $-1 -0.625 0.25 0.75 #
cur-twe-attrib $-1 $-1 $-1 $202 114 #
edge_name-twe-attrib $-1 $-1 $-1 $203 10 8704 #
vertex $-1 $203 $414 #
straight-curve $415 4.5 0.25 0.4000000000000000222 0 0 -1 I I #
coedge $-1 $327 $326 $206 $314 forward $328 $-1 #
edge $416 $316 -3.141592653589784234 $409 3.29597460435593979e-15 $313 $417 forward 7 unknown #
edge_name-twe-attrib $-1 $-1 $-1 $208 21 8704 #
vertex $-1 $332 $418 #
straight-curve $419 -0.6603553390593269734 -0.03535533905932800036 0.75 0.7071067811865370256 -0.7071067811865580088 0 I I #
point $-1 -0.6957106781186539468 0 0.75 #
cur-twe-attrib $-1 $-1 $-1 $211 122 #
coedge $-1 $370 $214 $288 $396 reversed $321 $-1 #
loop $420 $-1 $370 $421 #
edge_name-twe-attrib $-1 $-1 $-1 $215 37 8704 #
straight-curve $422 4.5 -0.75 0.28125 1 0 0 I I #
point $-1 4.5 -0.75 0.28125 #
cur-twe-attrib $-1 $423 $-1 $218 127 #
coedge $-1 $313 $219 $222 $332 reversed $328 $-1 #
coedge $-1 $219 $313 $343 $424 forward $328 $-1 #
loop $425 $-1 $219 $256 #
edge_name-twe-attrib $-1 $-1 $-1 $220 17 8704 #
vertex $-1 $424 $426 #
ellipse-curve $427 -0.625 0 -0.75 0 0 1 0.03535533905932720239 0.03535533905932759791 0 1 I I #
edge $428 $316 -1.5 $225 0 $222 $429 forward 7 unknown #
loop_type-twe-attrib $-1 $-1 $-1 $223 0 #
face $430 $229 $223 $3 $-1 $431 forward single #
point $-1 -0.6603553390593269734 -0.03535533905932759791 -0.75 #
cur-twe-attrib $-1 $-1 $-1 $226 133 #
edge_name-twe-attrib $-1 $-1 $-1 $227 25 8448 #
straight-curve $432 -0.6957106781186539468 0 -0.75 0 0 -1 I I #
face_name-twe-attrib $-1 $-1 $-1 $229 11 #
plane-surface $433 -0.6957106781186539468 0 -0.75 0 1 0 0 0 1 forward_v I I I I #
cur-twe-attrib $-1 $-1 $-1 $233 140 #
surf-twe-attrib $-1 $-1 $-1 $235 142 #
coedge $-1 $302 $236 $327 $424 reversed $257 $-1 #
coedge $-1 $236 $302 $238 $347 forward $257 $-1 #
edge_name-twe-attrib $-1 $-1 $-1 $237 14 8704 #
straight-curve $434 -0.625 0.07071067811865300312 -0.75 -0.7071067811865670016 0.7071067811865280328 0 I I #
edge $435 $305 -1.5 $241 0 $344 $436 forward 7 unknown #
point $-1 -0.625 0.07071067811865300312 -0.75 #
cur-twe-attrib $-1 $-1 $-1 $242 147 #
edge_name-twe-attrib $-1 $-1 $-1 $243 13 8704 #
straight-curve $437 -0.625 0.25 -0.75 0 0 -1 I I #
coedge $-1 $438 $385 $246 $353 reversed $439 $-1 #
edge $440 $441 -3.141592653589793116 $388 0 $352 $442 forward 7 unknown #
cur-twe-attrib $-1 $443 $-1 $250 203 #
edge_name-twe-attrib $-1 $-1 $-1 $251 33 8704 #
straight-curve $444 4.5 -0.75 -0.28125 0 -1 0 I I #
cur-twe-attrib $-1 $-1 $253 $160 89 #
face_name-twe-attrib $-1 $-1 $-1 $256 9 #
cone-surface $445 -0.625 0 -0.75 0 0 1 0.05000000000000000278 0 0 1 I I 0 1 0.05000000000000000278 forward I I I I #
loop_type-twe-attrib $-1 $-1 $-1 $257 0 #
surf-twe-attrib $-1 $-1 $-1 $258 165 #
edge_name-twe-attrib $-1 $-1 $-1 $262 30 8704 #
vertex $-1 $262 $446 #
ellipse-curve $447 0 0.25 0 0 1 0 0.25 0 0 1 I I #
coedge $-1 $448 $263 $268 $376 forward $367 $-1 #
coedge $-1 $263 $448 $307 $413 forward $367 $-1 #
loop $449 $-1 $366 $450 #
edge_name-twe-attrib $-1 $-1 $-1 $264 47 8704 #
straight-curve $451 4.5 0.25 0.4000000000000000222 0 1 0 I I #
coedge $-1 $265 $320 $267 $374 reversed $321 $-1 #
edge_name-twe-attrib $-1 $-1 $-1 $266 36 8704 #
straight-curve $452 4.5 -0.75 0.28125 0 -1 0 I I #
coedge $-1 $275 $267 $395 $453 forward $269 $-1 #
edge $454 $271 -3.5625 $455 0 $267 $456 forward 7 unknown #
coedge $-1 $268 $274 $457 $458 reversed $269 $-1 #
edge $459 $272 -3.5625 $460 0 $365 $461 forward 7 unknown #
loop_type-twe-attrib $-1 $-1 $-1 $269 0 #
face $462 $463 $269 $3 $-1 $464 forward single #
point $-1 4.5 -0.25 0.28125 #
point $-1 4.5 -0.25 0.4000000000000000222 #
cur-twe-attrib $-1 $465 $-1 $273 176 #
edge $466 $402 -3.5625 $277 0 $275 $467 forward 7 unknown #
point $-1 4.5 -0.25 -0.28125 #
cur-twe-attrib $-1 $468 $-1 $278 176 #
coedge $-1 $352 $457 $279 $386 reversed $439 $-1 #
edge $469 $388 -0.5 $391 0 $279 $470 forward 7 unknown #
edge_name-twe-attrib $-1 $-1 $-1 $280 50 8704 #
vertex $-1 $386 $471 #
straight-curve $472 4.5 0.25 -0.4000000000000000222 1 0 -1.558207753859869975e-17 I I #
edge_name-twe-attrib $-1 $-1 $-1 $281 52 4608 #
vertex $-1 $386 $473 #
straight-curve $474 4.5 -0.25 -0.4000000000000000222 1 0 -1.558207753859869975e-17 I I #
face_name-twe-attrib $-1 $-1 $-1 $283 20 #
plane-surface $475 4.5 -0.25 -0.4000000000000000222 0 0 -1 -1 0 0 forward_v I I I I #
coedge $-1 $288 $287 $373 $453 reversed $289 $-1 #
edge $476 $455 -0.5 $291 0 $320 $477 forward 7 unknown #
loop_type-twe-attrib $-1 $-1 $-1 $289 0 #
face $478 $421 $289 $3 $-1 $479 reversed single #
point $-1 0.9375 -0.75 0.28125 #
cur-twe-attrib $-1 $-1 $-1 $292 185 #
edge_name-twe-attrib $-1 $-1 $-1 $294 35 20480 #
vertex $-1 $453 $480 #
straight-curve $481 0.9375 -0.75 -0.28125 0 -1 0 I I #
face_name-twe-attrib $-1 $-1 $-1 $296 14 #
plane-surface $482 4.5 -0.8499999999999999778 -0.28125 0 0 -1 -1 0 0 forward_v I I I I #
loop_type-twe-attrib $-1 $-1 $-1 $300 0 #
surf-twe-attrib $-1 $-1 $-1 $301 193 #
edge_name-twe-attrib $-1 $-1 $-1 $303 15 8704 #
vertex $-1 $424 $483 #
straight-curve $484 -0.625 0.07071067811865300312 0.75 -0.7071067811865650032 0.7071067811865300312 0 I I #
point $-1 -0.625 0.07071067811865300312 0.75 #
cur-twe-attrib $-1 $-1 $-1 $306 198 #
edge $485 $441 -3.5625 $311 0 $366 $486 forward 7 unknown #
point $-1 4.5 0.25 0.4000000000000000222 #
cur-twe-attrib $-1 $487 $-1 $312 203 #
edge_name-twe-attrib $-1 $-1 $-1 $314 18 8704 #
ellipse-curve $488 -0.625 0 0.75 0 0 1 0.03535533905932720239 0.03535533905932759791 0 1 I I #
point $-1 -0.6603553390593269734 -0.03535533905932800036 0.75 #
cur-twe-attrib $-1 $-1 $-1 $317 208 #
loop_type-twe-attrib $-1 $-1 $-1 $321 0 #
face $489 $378 $321 $3 $-1 $490 reversed single #
cur-twe-attrib $-1 $-1 $-1 $323 215 #
cur-twe-attrib $-1 $-1 $325 $218 89 #
edge $491 $409 -1.5 $330 0 $327 $492 forward 7 unknown #
loop_type-twe-attrib $-1 $-1 $-1 $328 0 #
point $-1 -0.5896446609406730266 0.03535533905932800036 -0.75 #
cur-twe-attrib $-1 $-1 $-1 $331 220 #
edge_name-twe-attrib $-1 $-1 $-1 $332 22 20480 #
straight-curve $493 -0.6603553390593269734 -0.03535533905932759791 -0.75 -1.480297366166879989e-16 2.636779683484750235e-16 -1 I I #
face_name-twe-attrib $-1 $-1 $-1 $334 10 #
plane-surface $494 -0.6603553390593269734 -0.03535533905932800036 -0.75 0.7071067811865510144 0.70710678118654402 0 0 0 -1 forward_v I I I I #
cur-twe-attrib $-1 $-1 $-1 $338 227 #
surf-twe-attrib $-1 $-1 $-1 $340 229 #
cur-twe-attrib $-1 $-1 $-1 $346 237 #
edge_name-twe-attrib $-1 $-1 $-1 $347 16 8448 #
straight-curve $495 -0.625 0.07071067811865300312 -0.75 0 0 -1 I I #
cur-twe-attrib $-1 $-1 $-1 $351 243 #
coedge $-1 $457 $352 $448 $496 forward $439 $-1 #
loop $497 $-1 $352 $463 #
edge_name-twe-attrib $-1 $-1 $-1 $353 44 8704 #
vertex $-1 $496 $498 #
ellipse-curve $499 0.9375 0.25 0 0 -1 0 0 0 -0.4000000000000000222 1 I I #
cur-twe-attrib $-1 $-1 $354 $250 154 #
cur-twe-attrib $-1 $-1 $-1 $356 251 #
surf-twe-attrib $-1 $-1 $-1 $359 256 #
point $-1 0.25 0.25 0 #
cur-twe-attrib $-1 $-1 $-1 $364 262 #
coedge $-1 $366 $365 $438 $496 reversed $367 $-1 #
loop_type-twe-attrib $-1 $-1 $-1 $367 0 #
face $500 $283 $367 $3 $-1 $501 reversed single #
cur-twe-attrib $-1 $-1 $-1 $369 264 #
cur-twe-attrib $-1 $-1 $-1 $372 266 #
edge $502 $455 -3.141592653589793116 $402 0 $373 $503 forward 7 unknown #
edge_name-twe-attrib $-1 $-1 $-1 $374 40 8704 #
vertex $-1 $453 $504 #
straight-curve $505 0.9375 -0.25 0.28125 -1 0 0 I I #
coedge $-1 $385 $438 $375 $458 forward $439 $-1 #
edge $506 $460 -3.141592653589793116 $391 0 $457 $507 forward 7 unknown #
edge_name-twe-attrib $-1 $-1 $-1 $376 48 4608 #
vertex $-1 $496 $508 #
straight-curve $509 0.9375 -0.25 0.4000000000000000222 -1 0 0 I I #
face_name-twe-attrib $-1 $-1 $-1 $378 17 #
face $510 $450 $439 $3 $-1 $511 reversed single #
plane-surface $512 4.5 -0.25 -0.75 0 1 0 0 0 1 forward_v I I I I #
cur-twe-attrib $-1 $-1 $381 $273 174 #
edge_name-twe-attrib $-1 $-1 $-1 $382 42 8704 #
straight-curve $513 4.5 -0.25 -0.28125 1 0 0 I I #
cur-twe-attrib $-1 $-1 $384 $278 174 #
edge_name-twe-attrib $-1 $-1 $-1 $386 51 20480 #
straight-curve $514 0.9375 -0.25 -0.4000000000000000222 0 -1 0 I I #
point $-1 0.9375 0.25 -0.4000000000000000222 #
cur-twe-attrib $-1 $-1 $-1 $389 280 #
point $-1 0.9375 -0.25 -0.4000000000000000222 #
cur-twe-attrib $-1 $-1 $-1 $392 281 #
surf-twe-attrib $-1 $-1 $-1 $394 283 #
edge_name-twe-attrib $-1 $-1 $-1 $396 38 20480 #
straight-curve $515 0.9375 -0.75 0.28125 0 -1 0 I I #
face_name-twe-attrib $-1 $-1 $-1 $398 15 #
cone-surface $516 0.9375 -0.8499999999999999778 0 0 1 0 -0.28125 0 0 1 I I 0 1 0.28125 forward I I I I #
point $-1 0.9375 -0.25 -0.28125 #
cur-twe-attrib $-1 $-1 $-1 $403 294 #
surf-twe-attrib $-1 $-1 $-1 $405 296 #
point $-1 -0.5896446609406730266 0.03535533905932759791 0.75 #
cur-twe-attrib $-1 $-1 $-1 $410 303 #
edge_name-twe-attrib $-1 $-1 $-1 $413 46 8704 #
straight-curve $517 4.5 0.25 0.4000000000000000222 1 0 0 I I #
cur-twe-attrib $-1 $-1 $415 $312 154 #
cur-twe-attrib $-1 $-1 $-1 $417 314 #
face_name-twe-attrib $-1 $-1 $-1 $421 16 #
plane-surface $518 0.9375 -0.8499999999999999778 0.28125 0 0 1 1 0 0 forward_v I I I I #
edge_name-twe-attrib $-1 $-1 $-1 $424 19 20480 #
straight-curve $519 -0.5896446609406730266 0.03535533905932800036 -0.75 -1.480297366166879989e-16 2.683038976177459996e-16 -1 I I #
cur-twe-attrib $-1 $-1 $-1 $429 332 #
surf-twe-attrib $-1 $-1 $-1 $431 334 #
cur-twe-attrib $-1 $-1 $-1 $436 347 #
edge $520 $441 -0.5 $460 0 $448 $521 forward 7 unknown #
loop_type-twe-attrib $-1 $-1 $-1 $439 0 #
point $-1 0.9375 0.25 0.4000000000000000222 #
cur-twe-attrib $-1 $-1 $-1 $442 353 #
face_name-twe-attrib $-1 $-1 $-1 $450 19 #
plane-surface $522 0.9375 -0.25 0.4000000000000000222 0 0 1 1 0 0 forward_v I I I I #
edge_name-twe-attrib $-1 $-1 $-1 $453 41 8704 #
ellipse-curve $523 0.9375 -0.25 0 0 -1 0 0 0 -0.28125 1 I I #
point $-1 0.9375 -0.25 0.28125 #
cur-twe-attrib $-1 $-1 $-1 $456 374 #
edge_name-twe-attrib $-1 $-1 $-1 $458 45 4608 #
ellipse-curve $524 0.9375 -0.25 0 0 -1 0 0 0 -0.4000000000000000222 1 I I #
point $-1 0.9375 -0.25 0.4000000000000000222 #
cur-twe-attrib $-1 $-1 $-1 $461 376 #
face_name-twe-attrib $-1 $-1 $-1 $463 18 #
cone-surface $525 0.9375 -0.25 0 0 1 0 0.4000000000000000222 0 0 1 I I 0 1 0.4000000000000000222 forward I I I I #
surf-twe-attrib $-1 $-1 $-1 $464 378 #
cur-twe-attrib $-1 $-1 $-1 $467 382 #
cur-twe-attrib $-1 $-1 $-1 $470 386 #
cur-twe-attrib $-1 $-1 $-1 $477 396 #
surf-twe-attrib $-1 $-1 $-1 $479 398 #
cur-twe-attrib $-1 $-1 $-1 $486 413 #
surf-twe-attrib $-1 $-1 $-1 $490 421 #
cur-twe-attrib $-1 $-1 $-1 $492 424 #
edge_name-twe-attrib $-1 $-1 $-1 $496 49 20480 #
straight-curve $526 0.9375 -0.25 0.4000000000000000222 0 -1 0 I I #
surf-twe-attrib $-1 $-1 $-1 $501 450 #
cur-twe-attrib $-1 $-1 $-1 $503 453 #
cur-twe-attrib $-1 $-1 $-1 $507 458 #
surf-twe-attrib $-1 $-1 $-1 $511 463 #
cur-twe-attrib $-1 $-1 $-1 $521 496 #
End-of-ACIS-data 