600 0 2 0           
24 FBMach with ACIS - 6.0.3 13 ACIS 6.0.3 NT 24 Wed May 23 21:58:51 2001 
1 9.9999999999999995e-007 1e-010 
body $2 $3 $-1 $4 #
bdycol-kcp $-1 1 4 $5 $6 $7 $8 #
model_id-kcp-attrib $-1 $-1 $-1 $0 1 990669531 70 -62521343 1 #
lump $-1 $-1 $9 $0 #
transform $-1 1 0 0 0 1 0 0 0 1 0 0 0 1 no_rotate no_reflect no_shear #
body $10 $11 $-1 $12 #
body $13 $14 $-1 $15 #
body $16 $17 $-1 $18 #
body $19 $20 $-1 $21 #
shell $-1 $-1 $-1 $22 $-1 $3 #
model_id-kcp-attrib $-1 $-1 $-1 $5 1 990669531 80 -61865982 1 #
lump $-1 $-1 $23 $5 #
transform $-1 1 0 0 0 1 0 0 0 1 1.75 -0.25 0 1 no_rotate no_reflect no_shear #
rgb_color-st-attrib $-1 $24 $-1 $6 0.5 1 1 #
lump $-1 $-1 $25 $6 #
transform $-1 1 0 0 0 -3.8285889215894375e-016 1 0 -1 -3.8285889215894375e-016 0 -0.25 -1.9142944607947188e-016 1 rotate no_reflect no_shear #
rgb_color-st-attrib $-1 $26 $-1 $7 0.5 1 1 #
lump $-1 $-1 $27 $7 #
transform $-1 1 0 0 0 1 0 0 0 1 1.75 -0.25 0 1 no_rotate no_reflect no_shear #
rgb_color-st-attrib $-1 $28 $-1 $8 1 0 0 #
lump $-1 $-1 $29 $8 #
transform $-1 1 0 0 0 -3.8285889215894375e-016 -1 0 1 -3.8285889215894375e-016 2.5187499999999994 5.5379184513951127 -2.2312636256302218e-015 1 rotate no_reflect no_shear #
face $30 $31 $32 $9 $-1 $33 reversed single #
shell $-1 $-1 $-1 $34 $-1 $11 #
model_id-kcp-attrib $-1 $-1 $13 $6 1 990669531 110 -59899901 1 #
shell $-1 $-1 $-1 $35 $-1 $14 #
model_id-kcp-attrib $-1 $-1 $16 $7 1 990669531 300 -64225276 1 #
shell $-1 $-1 $-1 $36 $-1 $17 #
model_id-kcp-attrib $-1 $-1 $19 $8 1 990669531 550 -64618491 1 #
shell $-1 $-1 $-1 $37 $-1 $20 #
model_id-kcp-attrib $-1 $38 $-1 $22 1 990669531 70 -62521343 2 #
face $39 $40 $41 $9 $-1 $42 forward single #
loop $43 $-1 $44 $22 #
plane-surface $45 0 0 -0.75 0 0 1 1 0 0 forward_v I I I I #
face $46 $47 $48 $23 $-1 $49 forward single #
face $-1 $50 $51 $25 $-1 $52 forward single #
face $-1 $53 $54 $27 $-1 $55 reversed single #
face $-1 $56 $57 $29 $-1 $58 reversed single #
face_name-twe-attrib $-1 $-1 $30 $22 1 #
model_id-kcp-attrib $-1 $59 $-1 $31 1 990669531 70 -62521343 3 #
face $60 $61 $62 $9 $-1 $63 forward single #
loop $64 $-1 $65 $31 #
plane-surface $66 0 0 0.75 0 0 1 1 0 0 forward_v I I I I #
loop_type-twe-attrib $-1 $-1 $-1 $32 0 #
coedge $-1 $67 $68 $69 $70 forward $32 $-1 #
surf-twe-attrib $-1 $-1 $-1 $33 4 #
model_id-kcp-attrib $-1 $-1 $-1 $34 1 990669531 80 -61865982 3 #
face $71 $72 $73 $23 $-1 $74 reversed single #
loop $-1 $-1 $75 $34 #
plane-surface $-1 0 0 0.75 0 0 1 1 0 0 forward_v I I I I #
face $-1 $76 $77 $25 $-1 $78 forward single #
loop $-1 $79 $80 $35 #
cone-surface $-1 0 0 0 0 0 1 0.25 0 0 1 I I 0 1 0.25 forward I I I I #
face $-1 $81 $82 $27 $-1 $83 reversed single #
loop $-1 $-1 $84 $36 #
cone-surface $-1 -0.8125 -0.5 0 0 -1 0 0 0 0.28125 1 I I 0 -1 0.28125 forward I I I I #
face $-1 $85 $86 $29 $-1 $87 forward single #
loop $-1 $-1 $88 $37 #
plane-surface $-1 1.9812500000000006 -1.5307579422779716e-017 -5.7879184513951127 -1 0 0 0 -1 -3.8285889215894375e-016 forward_v I I I I #
face_name-twe-attrib $-1 $-1 $39 $31 2 #
model_id-kcp-attrib $-1 $89 $-1 $40 1 990669531 70 -62521343 22 #
face $90 $91 $92 $9 $-1 $93 forward single #
loop $94 $95 $96 $40 #
plane-surface $97 -1 -0.75 -0.75 0 -1 0 0 0 -1 forward_v I I I I #
loop_type-twe-attrib $-1 $-1 $-1 $41 0 #
coedge $-1 $98 $99 $100 $101 reversed $41 $-1 #
surf-twe-attrib $-1 $-1 $-1 $42 6 #
coedge $-1 $102 $44 $103 $104 forward $32 $-1 #
coedge $-1 $44 $105 $106 $107 forward $32 $-1 #
coedge $-1 $108 $109 $44 $70 reversed $95 $-1 #
edge $110 $111 -5.5 $112 0 $69 $113 forward 7 unknown #
model_id-kcp-attrib $-1 $-1 $-1 $47 1 990669531 80 -61865982 2 #
face $114 $115 $116 $23 $-1 $117 reversed single #
loop $-1 $-1 $118 $47 #
plane-surface $-1 0 0 -0.75 0 0 1 1 0 0 forward_v I I I I #
coedge $-1 $119 $120 $121 $122 forward $48 $-1 #
face $-1 $-1 $123 $25 $-1 $124 forward single #
loop $-1 $-1 $125 $50 #
plane-surface $-1 0 0 -0.50000000000000011 0 0 -1 -1 0 0 forward_v I I I I #
loop $-1 $-1 $126 $35 #
coedge $-1 $80 $80 $125 $127 reversed $51 $-1 #
face $-1 $128 $129 $27 $-1 $130 reversed single #
loop $-1 $-1 $131 $53 #
plane-surface $-1 2.75 -0.5 0.28125 0 0 -1 0 -1 0 forward_v I I I I #
coedge $-1 $132 $133 $134 $135 reversed $54 $-1 #
face $-1 $136 $137 $29 $-1 $138 forward single #
loop $-1 $-1 $139 $56 #
plane-surface $-1 1.9812500000000006 -0.28124999999999983 -6.2879184513951127 0 1 3.8285889215894375e-016 0 3.8285889215894375e-016 -1 forward_v I I I I #
coedge $-1 $140 $141 $142 $143 forward $57 $-1 #
model_id-kcp-attrib $-1 $144 $60 $40 1 990669531 70 -62521343 4 #
model_id-kcp-attrib $-1 $145 $-1 $61 1 990669531 70 -62521343 5 #
face $146 $147 $148 $9 $-1 $93 forward single #
loop $149 $-1 $150 $61 #
plane-surface $151 4.5 -0.75 -0.75 1 0 0 0 0 -1 forward_v I I I I #
model_id-kcp-attrib $-1 $152 $-1 $62 1 990669531 70 -62521343 40 #
loop $153 $-1 $154 $40 #
coedge $-1 $96 $96 $155 $156 forward $62 $-1 #
surf-twe-attrib $-1 $-1 $-1 $63 10 #
coedge $-1 $157 $65 $158 $159 reversed $41 $-1 #
coedge $-1 $65 $160 $161 $162 reversed $41 $-1 #
coedge $-1 $109 $163 $65 $101 forward $95 $-1 #
edge $164 $165 -5.5 $166 0 $100 $167 forward 7 unknown #
coedge $-1 $168 $67 $169 $170 forward $32 $-1 #
coedge $-1 $171 $172 $67 $104 reversed $173 $-1 #
edge $174 $112 -0.75 $175 0 $103 $176 forward 7 unknown #
coedge $-1 $68 $177 $178 $179 forward $32 $-1 #
coedge $-1 $180 $181 $68 $107 reversed $92 $-1 #
edge $182 $183 -1 $111 0 $106 $184 forward 7 unknown #
coedge $-1 $154 $69 $181 $185 reversed $95 $-1 #
coedge $-1 $69 $100 $171 $186 forward $95 $-1 #
attrib_edge_convexity-kcp-attrib $-1 $187 $-1 $70 1 #
vertex $-1 $185 $188 #
vertex $-1 $186 $189 #
straight-curve $190 -1 -0.75 -0.75 -1 0 0 I I #
model_id-kcp-attrib $-1 $-1 $-1 $72 1 990669531 80 -61865982 4 #
face $191 $192 $193 $23 $-1 $194 reversed single #
loop $-1 $-1 $195 $72 #
plane-surface $-1 0 -0.5 0 0 1 0 0 0 1 forward_v I I I I #
coedge $-1 $196 $197 $198 $199 forward $73 $-1 #
coedge $-1 $200 $75 $201 $202 forward $48 $-1 #
coedge $-1 $75 $200 $203 $204 forward $48 $-1 #
coedge $-1 $205 $206 $75 $122 reversed $207 $-1 #
edge $-1 $208 -0.5 $209 0.5 $121 $210 forward 7 unknown #
loop $-1 $-1 $211 $76 #
plane-surface $-1 0 0 0.50000000000000011 0 0 1 1 0 0 forward_v I I I I #
coedge $-1 $125 $125 $80 $127 forward $77 $-1 #
coedge $-1 $126 $126 $211 $212 reversed $79 $-1 #
edge $-1 $213 0 $213 6.2831853071795862 $125 $214 forward 7 unknown #
face $-1 $215 $216 $27 $-1 $217 reversed single #
loop $-1 $-1 $218 $81 #
plane-surface $-1 -0.8125 -0.5 -0.28125 0 0 1 0 1 0 forward_v I I I I #
coedge $-1 $219 $220 $221 $222 reversed $82 $-1 #
coedge $-1 $223 $84 $224 $225 reversed $54 $-1 #
coedge $-1 $84 $223 $220 $226 forward $54 $-1 #
coedge $-1 $227 $228 $84 $135 forward $216 $-1 #
edge $-1 $229 -3.1415926535897931 $230 0 $134 $231 forward 7 unknown #
face $-1 $232 $233 $29 $-1 $234 forward single #
loop $-1 $-1 $235 $85 #
plane-surface $-1 -1.5812499999999994 0.28125000000000017 -6.2879184513951127 0 -1 -3.8285889215894375e-016 0 -3.8285889215894375e-016 1 forward_v I I I I #
coedge $-1 $236 $237 $238 $239 forward $86 $-1 #
coedge $-1 $240 $88 $241 $242 forward $57 $-1 #
coedge $-1 $88 $240 $243 $244 reversed $57 $-1 #
coedge $-1 $245 $246 $88 $143 reversed $247 $-1 #
edge $-1 $248 2.3939592256975564 $249 2.8939592256975564 $142 $250 forward 7 unknown #
face_name-twe-attrib $-1 $-1 $89 $40 3 #
face_name-twe-attrib $-1 $-1 $90 $61 4 #
model_id-kcp-attrib $-1 $251 $-1 $91 1 990669531 70 -62521343 6 #
face $252 $253 $254 $9 $-1 $255 forward single #
loop $256 $-1 $257 $91 #
loop_type-twe-attrib $-1 $-1 $-1 $92 0 #
coedge $-1 $258 $180 $259 $260 reversed $92 $-1 #
surf-twe-attrib $-1 $261 $-1 $93 28 #
loop_type-twe-attrib $-1 $-1 $94 $62 1 #
loop_type-twe-attrib $-1 $-1 $-1 $95 0 #
coedge $-1 $262 $108 $263 $264 reversed $95 $-1 #
coedge $-1 $155 $155 $96 $156 reversed $265 $-1 #
edge $266 $267 -3.1415926535897931 $267 3.1415926535897931 $155 $268 forward 7 unknown #
coedge $-1 $269 $98 $270 $271 reversed $41 $-1 #
coedge $-1 $272 $273 $98 $159 forward $148 $-1 #
edge $274 $275 -1 $165 0 $158 $276 forward 7 unknown #
coedge $-1 $99 $277 $278 $279 reversed $41 $-1 #
coedge $-1 $172 $171 $99 $162 forward $173 $-1 #
edge $280 $166 -0.75 $281 0 $161 $282 forward 7 unknown #
coedge $-1 $100 $283 $272 $284 reversed $95 $-1 #
attrib_edge_convexity-kcp-attrib $-1 $285 $-1 $101 1 #
vertex $-1 $284 $286 #
vertex $-1 $186 $287 #
straight-curve $288 -1 -0.75 0.75 -1 0 0 I I #
coedge $-1 $289 $102 $290 $291 forward $32 $-1 #
coedge $-1 $292 $293 $102 $170 reversed $294 $-1 #
edge $295 $175 -0.30428932188134605 $296 0 $169 $297 forward 7 unknown #
coedge $-1 $161 $103 $109 $186 reversed $173 $-1 #
coedge $-1 $103 $161 $292 $298 forward $173 $-1 #
loop $299 $-1 $103 $300 #
attrib_edge_convexity-kcp-attrib $-1 $301 $-1 $104 1 #
vertex $-1 $298 $302 #
straight-curve $303 -1 0 -0.75 0 1 0 I I #
coedge $-1 $105 $304 $305 $306 forward $32 $-1 #
coedge $-1 $307 $308 $105 $179 reversed $309 $-1 #
edge $310 $311 -5.125 $183 0 $178 $312 forward 7 unknown #
coedge $-1 $150 $106 $308 $313 reversed $92 $-1 #
coedge $-1 $106 $314 $108 $185 forward $92 $-1 #
attrib_edge_convexity-kcp-attrib $-1 $315 $-1 $107 1 #
vertex $-1 $313 $316 #
straight-curve $317 4.5 -0.75 -0.75 0 -1 0 I I #
edge $318 $319 -0.46875 $111 0 $181 $320 forward 7 unknown #
edge $321 $166 -1.5 $112 0 $171 $322 forward 7 unknown #
convexity-sys-attrib $-1 $323 $110 $70 #
point $-1 4.5 -0.75 -0.75 #
point $-1 -1 -0.75 -0.75 #
cur-twe-attrib $-1 $-1 $-1 $113 26 #
model_id-kcp-attrib $-1 $-1 $-1 $115 1 990669531 80 -61865982 8 #
face $324 $325 $326 $23 $-1 $327 reversed single #
loop $-1 $-1 $328 $115 #
plane-surface $-1 -2.75 0 0 1 0 0 0 0 -1 forward_v I I I I #
coedge $-1 $329 $203 $330 $331 forward $116 $-1 #
coedge $-1 $332 $118 $329 $333 forward $73 $-1 #
coedge $-1 $118 $332 $334 $335 forward $73 $-1 #
coedge $-1 $206 $205 $118 $199 reversed $207 $-1 #
edge $-1 $336 -0.5 $337 0.5 $198 $338 forward 7 unknown #
coedge $-1 $120 $119 $339 $340 forward $48 $-1 #
coedge $-1 $341 $342 $119 $202 reversed $326 $-1 #
edge $-1 $209 -2.75 $343 2.75 $201 $344 forward 7 unknown #
coedge $-1 $195 $345 $120 $204 reversed $116 $-1 #
edge $-1 $346 -2.75 $208 2.75 $203 $347 forward 7 unknown #
coedge $-1 $198 $121 $345 $348 forward $207 $-1 #
coedge $-1 $121 $198 $341 $349 reversed $207 $-1 #
loop $-1 $-1 $205 $325 #
vertex $-1 $122 $350 #
vertex $-1 $122 $351 #
straight-curve $-1 2.75 0 0.75 0 1 0 I I #
coedge $-1 $211 $211 $126 $212 forward $123 $-1 #
edge $-1 $352 0 $352 6.2831853071795862 $211 $353 forward 7 unknown #
vertex $-1 $127 $354 #
ellipse-curve $-1 0 0 -0.50000000000000011 0 0 -1 0.25 0 0 1 I I #
face $-1 $355 $356 $27 $-1 $357 reversed single #
loop $-1 $-1 $228 $128 #
plane-surface $-1 0 0.5 0 0 -1 0 0 0 -1 forward_v I I I I #
coedge $-1 $358 $224 $228 $359 reversed $129 $-1 #
coedge $-1 $360 $131 $361 $362 reversed $82 $-1 #
coedge $-1 $131 $360 $133 $226 reversed $82 $-1 #
coedge $-1 $363 $364 $131 $222 forward $356 $-1 #
edge $-1 $365 -1.375 $366 2.1875 $221 $367 forward 7 unknown #
coedge $-1 $133 $132 $363 $368 reversed $54 $-1 #
coedge $-1 $218 $369 $132 $225 forward $129 $-1 #
edge $-1 $370 0 $229 1 $132 $371 forward 7 unknown #
edge $-1 $366 0 $230 1 $220 $372 forward 7 unknown #
coedge $-1 $373 $134 $360 $374 forward $216 $-1 #
coedge $-1 $134 $373 $218 $359 forward $216 $-1 #
vertex $-1 $135 $375 #
vertex $-1 $374 $376 #
ellipse-curve $-1 -0.8125 0.5 0 0 1 0 0 0 0.28125 1 I I #
face $-1 $377 $378 $29 $-1 $379 reversed single #
loop $-1 $-1 $380 $136 #
cone-surface $-1 -1.5812499999999994 1.7612186665669216e-016 -6.2879184513951127 0 3.8285889215894375e-016 -1 0 -0.28125 -1.0767906341970293e-016 1 I I 0 -1 0.28125 forward I I I I #
coedge $-1 $381 $382 $383 $384 forward $137 $-1 #
coedge $-1 $385 $139 $386 $387 forward $86 $-1 #
coedge $-1 $139 $385 $240 $388 reversed $86 $-1 #
coedge $-1 $241 $389 $139 $239 reversed $390 $-1 #
edge $391 $392 -0.99062500000000031 $393 2.5718749999999995 $238 $394 forward 7 unknown #
coedge $-1 $141 $140 $237 $388 forward $57 $-1 #
coedge $-1 $395 $238 $140 $242 reversed $390 $-1 #
edge $396 $249 -0.40000000000000002 $392 -0.28125 $241 $397 forward 7 unknown #
coedge $-1 $398 $399 $141 $244 forward $378 $-1 #
edge $-1 $248 -0.39999999999999997 $400 -0.28124999999999994 $141 $401 forward 7 unknown #
coedge $-1 $402 $142 $399 $403 reversed $247 $-1 #
coedge $-1 $142 $402 $395 $404 reversed $247 $-1 #
loop $-1 $-1 $142 $405 #
vertex $-1 $143 $406 #
vertex $-1 $404 $407 #
straight-curve $-1 1.9812500000000006 -0.40000000000000002 -2.8939592256975564 0 0 -1 I I #
face_name-twe-attrib $-1 $408 $146 $91 5 #
model_id-kcp-attrib $-1 $409 $-1 $147 1 990669531 70 -62521343 36 #
face $410 $411 $412 $9 $-1 $413 forward single #
loop $414 $309 $415 $147 #
plane-surface $416 4.5 0.25 -0.75 0 1 0 0 0 1 forward_v I I I I #
loop_type-twe-attrib $-1 $-1 $-1 $148 0 #
coedge $-1 $417 $418 $419 $420 forward $148 $-1 #
coedge $-1 $314 $150 $421 $422 forward $92 $-1 #
coedge $-1 $423 $424 $150 $260 forward $425 $-1 #
edge $426 $427 -0.5 $428 0 $259 $429 forward 7 unknown #
surf-twe-attrib $-1 $-1 $151 $93 17 #
coedge $-1 $283 $154 $430 $431 reversed $95 $-1 #
coedge $-1 $432 $433 $154 $264 forward $434 $-1 #
edge $435 $436 -3.5625 $319 0 $263 $437 forward 7 unknown #
loop $438 $-1 $155 $439 #
attrib_edge_convexity-kcp-attrib $-1 $440 $-1 $156 1 #
vertex $441 $156 $442 #
ellipse-curve $443 0 -0.75 0 0 1 0 -0.25 0 0 1 I I #
coedge $-1 $444 $157 $445 $446 reversed $41 $-1 #
coedge $-1 $447 $307 $157 $271 forward $309 $-1 #
edge $448 $449 -5.125 $275 0 $270 $450 forward 7 unknown #
coedge $-1 $418 $158 $163 $284 forward $148 $-1 #
coedge $-1 $158 $417 $447 $451 reversed $148 $-1 #
edge_name-twe-attrib $-1 $-1 $-1 $159 5 8704 #
vertex $-1 $451 $452 #
straight-curve $453 4.5 -0.75 0.75 0 -1 0 I I #
coedge $-1 $160 $454 $455 $456 reversed $41 $-1 #
coedge $-1 $293 $292 $160 $279 forward $294 $-1 #
edge $457 $281 -0.30428932188134605 $458 0 $278 $459 forward 7 unknown #
edge_name-twe-attrib $-1 $-1 $-1 $162 28 8704 #
vertex $-1 $298 $460 #
straight-curve $461 -1 0 0.75 0 1 0 I I #
coedge $-1 $163 $262 $462 $463 forward $95 $-1 #
edge $464 $165 -0.46875 $465 0 $272 $466 forward 7 unknown #
convexity-sys-attrib $-1 $467 $164 $101 #
point $-1 4.5 -0.75 0.75 #
point $-1 -1 -0.75 0.75 #
cur-twe-attrib $-1 $-1 $-1 $167 38 #
coedge $-1 $304 $168 $468 $469 forward $32 $-1 #
coedge $-1 $470 $471 $168 $291 reversed $472 $-1 #
edge $473 $296 -0.049999999999999871 $474 0 $290 $475 forward 7 unknown #
coedge $-1 $278 $169 $172 $298 reversed $294 $-1 #
coedge $-1 $169 $278 $470 $476 forward $294 $-1 #
loop $477 $-1 $169 $478 #
model_id-kcp-attrib $-1 $479 $-1 $170 1 990669531 70 -62521343 32 #
vertex $-1 $476 $480 #
straight-curve $481 -0.69571067811865395 0 -0.75 1 0 0 I I #
edge $482 $281 -1.5 $175 0 $172 $483 forward 7 unknown #
loop_type-twe-attrib $-1 $-1 $-1 $173 0 #
face $484 $439 $173 $9 $-1 $485 forward single #
convexity-sys-attrib $-1 $486 $174 $104 #
point $-1 -1 0 -0.75 #
cur-twe-attrib $-1 $-1 $-1 $176 41 #
coedge $-1 $177 $289 $487 $488 forward $32 $-1 #
coedge $-1 $489 $490 $177 $306 reversed $412 $-1 #
edge $491 $492 -0.179289321881347 $311 0 $305 $493 forward 7 unknown #
coedge $-1 $270 $178 $490 $494 reversed $309 $-1 #
coedge $-1 $178 $495 $180 $313 forward $309 $-1 #
loop $496 $-1 $497 $147 #
model_id-kcp-attrib $-1 $498 $-1 $179 1 990669531 70 -62521343 35 #
vertex $-1 $494 $499 #
straight-curve $500 4.5 0.25 -0.75 1 0 0 I I #
edge $501 $428 -0.34999999999999998 $183 0 $308 $502 forward 7 unknown #
coedge $-1 $181 $258 $432 $503 forward $92 $-1 #
convexity-sys-attrib $-1 $504 $182 $107 #
point $-1 4.5 0.25 -0.75 #
cur-twe-attrib $-1 $-1 $-1 $184 44 #
attrib_edge_convexity-kcp-attrib $-1 $505 $-1 $185 1 #
vertex $-1 $503 $506 #
straight-curve $507 4.5 -0.75 -0.75 0 0 -1 I I #
attrib_edge_convexity-kcp-attrib $-1 $508 $-1 $186 1 #
straight-curve $509 -1 -0.75 -0.75 0 0 -1 I I #
edge_name-twe-attrib $-1 $-1 $187 $70 2 8704 #
model_id-kcp-attrib $-1 $-1 $-1 $192 1 990669531 80 -61865982 7 #
face $510 $-1 $207 $23 $-1 $511 reversed single #
loop $-1 $-1 $341 $192 #
plane-surface $-1 0 0.5 0 0 -1 0 0 0 -1 forward_v I I I I #
coedge $-1 $512 $339 $342 $513 forward $193 $-1 #
coedge $-1 $345 $195 $196 $333 reversed $116 $-1 #
coedge $-1 $339 $512 $195 $331 reversed $193 $-1 #
edge $-1 $346 -0.75 $514 0.75 $330 $515 forward 7 unknown #
coedge $-1 $197 $196 $512 $516 forward $73 $-1 #
edge $-1 $337 -2.75 $514 2.75 $329 $517 forward 7 unknown #
coedge $-1 $342 $341 $197 $335 reversed $326 $-1 #
edge $-1 $518 -2.75 $336 2.75 $334 $519 forward 7 unknown #
vertex $-1 $199 $520 #
vertex $-1 $348 $521 #
straight-curve $-1 2.75 0 -0.75 0 -1 0 I I #
coedge $-1 $328 $330 $200 $340 reversed $193 $-1 #
edge $-1 $343 -0.5 $346 0.5 $339 $522 forward 7 unknown #
coedge $-1 $334 $201 $206 $349 forward $326 $-1 #
coedge $-1 $201 $334 $328 $513 reversed $326 $-1 #
vertex $-1 $202 $523 #
straight-curve $-1 0 0.5 0.75 -1 0 0 I I #
coedge $-1 $203 $329 $205 $348 reversed $116 $-1 #
vertex $-1 $340 $524 #
straight-curve $-1 0 -0.5 0.75 1 0 0 I I #
edge $-1 $208 -0.75 $337 0.75 $205 $525 forward 7 unknown #
edge $-1 $209 -0.75 $336 0.75 $206 $526 forward 7 unknown #
point $-1 2.75 -0.5 0.75 #
point $-1 2.75 0.5 0.75 #
vertex $-1 $212 $527 #
ellipse-curve $-1 0 0 0.50000000000000011 0 0 1 0.25 0 0 1 I I #
point $-1 0.25 0 -0.50000000000000011 #
face $-1 $-1 $528 $27 $-1 $529 reversed single #
loop $-1 $-1 $530 $215 #
plane-surface $-1 0 -0.5 0 0 1 0 0 0 1 forward_v I I I I #
coedge $-1 $369 $218 $531 $532 reversed $129 $-1 #
edge $-1 $533 -3.15625 $229 0.40625 $228 $534 forward 7 unknown #
coedge $-1 $220 $219 $227 $374 reversed $82 $-1 #
coedge $-1 $535 $536 $219 $362 forward $528 $-1 #
edge $-1 $537 -0.75 $365 0.25 $361 $538 forward 7 unknown #
coedge $-1 $530 $221 $223 $368 forward $356 $-1 #
coedge $-1 $221 $530 $535 $539 reversed $356 $-1 #
vertex $-1 $539 $540 #
vertex $-1 $222 $541 #
straight-curve $-1 1.375 -0.5 0.28125 -1 0 0 I I #
edge $-1 $366 0 $370 3.1415926535897931 $363 $542 forward 7 unknown #
coedge $-1 $224 $358 $530 $543 reversed $129 $-1 #
vertex $-1 $368 $544 #
straight-curve $-1 -0.8125 -0.5 -0.28125 0 1 0 I I #
straight-curve $-1 -0.8125 -0.5 0.28125 0 1 0 I I #
coedge $-1 $228 $227 $536 $545 forward $216 $-1 #
edge $-1 $230 -2.1875 $537 1.375 $227 $546 forward 7 unknown #
point $-1 -0.8125 0.5 -0.28125 #
point $-1 -0.8125 0.5 0.28125 #
face $-1 $547 $548 $29 $-1 $58 reversed single #
loop $-1 $-1 $399 $232 #
plane-surface $-1 -0.76874999999999938 -2.0673702550225159e-016 -5.2879184513951127 0 3.8285889215894375e-016 -1 0 1 3.8285889215894375e-016 forward_v I I I I #
coedge $-1 $549 $386 $389 $550 forward $233 $-1 #
coedge $-1 $551 $235 $552 $553 reversed $137 $-1 #
coedge $-1 $235 $551 $549 $554 reversed $137 $-1 #
coedge $-1 $389 $555 $235 $384 reversed $390 $-1 #
edge $556 $557 -0.79062499999999969 $558 2.7718750000000005 $383 $559 forward 7 unknown #
coedge $-1 $237 $236 $398 $560 reversed $86 $-1 #
coedge $-1 $380 $561 $236 $387 reversed $233 $-1 #
edge $-1 $393 0.5 $562 1 $236 $563 forward 7 unknown #
edge $-1 $392 0.25 $400 0.75 $240 $564 forward 7 unknown #
coedge $-1 $238 $383 $380 $550 reversed $390 $-1 #
loop $-1 $-1 $241 $565 #
convexity-sys-attrib $-1 $-1 $-1 $239 #
vertex $-1 $242 $566 #
vertex $-1 $239 $567 #
straight-curve $-1 0.99062500000000031 -0.28125 -5.7879184513951127 -1 0 0 I I #
coedge $-1 $568 $241 $246 $404 forward $390 $-1 #
convexity-sys-attrib $-1 $-1 $-1 $242 #
straight-curve $-1 1.9812500000000006 -7.6537897113898579e-018 -5.7879184513951127 0 1 0 I I #
coedge $-1 $569 $243 $385 $560 forward $378 $-1 #
coedge $-1 $243 $570 $245 $403 forward $378 $-1 #
vertex $-1 $560 $571 #
straight-curve $-1 1.9812500000000006 -2.0673702550225159e-016 -5.2879184513951127 0 1 3.8285889215894375e-016 I I #
coedge $-1 $246 $245 $572 $573 reversed $247 $-1 #
edge $-1 $574 -1.1968749999999997 $248 2.3656250000000005 $245 $575 forward 7 unknown #
edge $576 $249 -1.9812500000000006 $577 1.5812499999999994 $246 $578 forward 7 unknown #
face $-1 $579 $247 $29 $-1 $580 reversed single #
point $-1 1.9812500000000006 -0.40000000000000019 -5.2879184513951127 #
point $-1 1.9812500000000006 -0.40000000000000002 -5.7879184513951127 #
colour-tsl-attrib $-1 $581 $251 $91 1 #
model_id-kcp-attrib $-1 $582 $252 $147 1 990669531 70 -62521343 7 #
model_id-kcp-attrib $-1 $583 $-1 $253 1 990669531 70 -62521343 8 #
face $584 $585 $586 $9 $-1 $587 forward single #
loop $588 $-1 $305 $253 #
plane-surface $589 -0.625 0.25 -0.75 -1 0 0 0 0 1 forward_v I I I I #
model_id-kcp-attrib $-1 $590 $-1 $254 1 990669531 70 -62521343 39 #
coedge $-1 $415 $415 $591 $592 reversed $254 $-1 #
surf-twe-attrib $-1 $-1 $-1 $255 52 #
coedge $-1 $273 $257 $593 $594 forward $148 $-1 #
coedge $-1 $257 $272 $595 $596 reversed $148 $-1 #
coedge $-1 $597 $598 $257 $420 reversed $599 $-1 #
edge $600 $601 -0.11875000000000002 $602 0 $419 $603 forward 7 unknown #
coedge $-1 $604 $605 $258 $422 reversed $599 $-1 #
edge $606 $427 -0.11875000000000002 $607 0 $421 $608 forward 7 unknown #
coedge $-1 $609 $259 $495 $610 reversed $425 $-1 #
coedge $-1 $259 $609 $604 $611 forward $425 $-1 #
loop $612 $-1 $423 $613 #
attrib_edge_convexity-kcp-attrib $-1 $614 $-1 $260 1 #
vertex $-1 $611 $615 #
vertex $-1 $610 $616 #
straight-curve $617 4.5 0.25 -0.40000000000000002 0 1 0 I I #
coedge $-1 $618 $619 $262 $431 forward $620 $-1 #
edge $621 $622 -3.1415926535897931 $436 0 $430 $623 forward 7 unknown #
coedge $-1 $624 $263 $314 $503 reversed $434 $-1 #
coedge $-1 $263 $624 $618 $625 forward $434 $-1 #
loop $626 $-1 $624 $627 #
attrib_edge_convexity-kcp-attrib $-1 $628 $-1 $264 1 #
vertex $-1 $625 $629 #
straight-curve $630 4.5 -0.75 -0.28125 1 0 0 I I #
model_id-kcp-attrib $-1 $631 $-1 $265 1 990669531 70 -62521343 38 #
face $632 $627 $633 $9 $-1 $634 reversed single #
convexity-sys-attrib $-1 $635 $266 $156 #
model_id-kcp-attrib $-1 $-1 $-1 $267 1 990669531 70 -62521343 42 #
point $-1 0.25 -0.75 0 #
cur-twe-attrib $-1 $-1 $-1 $268 60 #
coedge $-1 $454 $269 $636 $637 reversed $41 $-1 #
coedge $-1 $490 $489 $269 $446 forward $412 $-1 #
edge $638 $639 -0.179289321881347 $449 0 $445 $640 forward 7 unknown #
coedge $-1 $641 $270 $273 $451 forward $309 $-1 #
model_id-kcp-attrib $-1 $642 $-1 $271 1 990669531 70 -62521343 27 #
vertex $-1 $494 $643 #
straight-curve $644 4.5 0.25 0.75 1 0 0 I I #
edge $645 $275 -0.34999999999999998 $646 0 $447 $647 forward 7 unknown #
point $-1 4.5 0.25 0.75 #
cur-twe-attrib $-1 $-1 $-1 $276 63 #
coedge $-1 $277 $444 $648 $649 reversed $41 $-1 #
coedge $-1 $471 $470 $277 $456 forward $472 $-1 #
edge $650 $458 -0.050000000000000155 $651 0 $455 $652 forward 7 unknown #
model_id-kcp-attrib $-1 $653 $-1 $279 1 990669531 70 -62521343 30 #
vertex $-1 $476 $654 #
straight-curve $655 -0.69571067811865395 0 0.75 1 0 0 I I #
point $-1 -1 0 0.75 #
cur-twe-attrib $-1 $-1 $-1 $282 66 #
coedge $-1 $656 $595 $283 $463 reversed $657 $-1 #
edge $658 $622 -3.5625 $465 0 $462 $659 forward 7 unknown #
attrib_edge_convexity-kcp-attrib $-1 $660 $-1 $284 1 #
vertex $-1 $284 $661 #
straight-curve $662 4.5 -0.75 0.28125 0 0 -1 I I #
edge_name-twe-attrib $-1 $-1 $285 $101 1 8704 #
coedge $-1 $663 $664 $289 $469 reversed $665 $-1 #
edge $666 $474 -3.14159265358979 $667 8.9338259012805218e-015 $468 $668 forward 7 unknown #
coedge $-1 $455 $290 $293 $476 reversed $472 $-1 #
coedge $-1 $290 $455 $663 $669 forward $472 $-1 #
loop $670 $-1 $290 $671 #
model_id-kcp-attrib $-1 $672 $-1 $291 1 990669531 70 -62521343 33 #
vertex $-1 $669 $673 #
straight-curve $674 -0.66035533905932697 -0.035355339059327598 -0.75 0.70710678118653902 -0.70710678118655601 0 I I #
edge $675 $458 -1.5 $296 0 $293 $676 forward 7 unknown #
loop_type-twe-attrib $-1 $-1 $-1 $294 0 #
face $677 $300 $294 $9 $-1 $678 forward single #
attrib_edge_convexity-kcp-attrib $-1 $679 $295 $170 1 #
point $-1 -0.69571067811865395 0 -0.75 #
cur-twe-attrib $-1 $-1 $-1 $297 74 #
model_id-kcp-attrib $-1 $680 $-1 $298 1 990669531 70 -62521343 31 #
straight-curve $681 -1 0 -0.75 0 0 -1 I I #
model_id-kcp-attrib $-1 $682 $-1 $300 1 990669531 70 -62521343 13 #
plane-surface $683 -1 0 -0.75 -1 0 0 0 0 1 forward_v I I I I #
edge_name-twe-attrib $-1 $-1 $301 $104 26 8704 #
coedge $-1 $684 $685 $304 $488 reversed $586 $-1 #
edge $686 $667 -0.049999999999998032 $492 0 $487 $687 forward 7 unknown #
coedge $-1 $445 $305 $685 $688 reversed $412 $-1 #
coedge $-1 $305 $445 $307 $494 forward $412 $-1 #
attrib_edge_convexity-kcp-attrib $-1 $689 $-1 $306 1 #
vertex $-1 $688 $690 #
straight-curve $691 -0.625 0.25 -0.75 0 1 0 I I #
edge $692 $449 -1.5 $311 0 $490 $693 forward 7 unknown #
coedge $-1 $308 $497 $423 $610 forward $309 $-1 #
loop_type-twe-attrib $-1 $-1 $-1 $309 0 #
coedge $-1 $495 $641 $694 $695 forward $309 $-1 #
attrib_edge_convexity-kcp-attrib $-1 $696 $310 $179 1 #
point $-1 -0.625 0.25 -0.75 #
cur-twe-attrib $-1 $-1 $-1 $312 83 #
model_id-kcp-attrib $-1 $697 $-1 $313 1 990669531 70 -62521343 23 #
straight-curve $698 4.5 0.25 -0.75 0 0 -1 I I #
edge $699 $607 -0.5 $319 0 $432 $700 forward 7 unknown #
edge_name-twe-attrib $-1 $-1 $315 $107 4 8704 #
convexity-sys-attrib $-1 $701 $318 $185 #
point $-1 4.5 -0.75 -0.28125 #
cur-twe-attrib $-1 $702 $-1 $320 127 #
convexity-sys-attrib $-1 $703 $321 $186 #
cur-twe-attrib $-1 $-1 $-1 $322 90 #
model_id-kcp-attrib $-1 $704 $-1 $325 1 990669531 80 -61865982 6 #
plane-surface $-1 2.75 0 0 -1 0 0 0 0 1 forward_v I I I I #
coedge $-1 $330 $328 $332 $516 reversed $193 $-1 #
edge $-1 $343 -0.75 $518 0.75 $342 $705 forward 7 unknown #
vertex $-1 $516 $706 #
straight-curve $-1 -2.75 -0.5 0 0 0 -1 I I #
edge $-1 $514 -0.5 $518 0.5 $512 $707 forward 7 unknown #
straight-curve $-1 0 -0.5 -0.75 -1 0 0 I I #
vertex $-1 $335 $708 #
straight-curve $-1 0 0.5 -0.75 1 0 0 I I #
point $-1 2.75 0.5 -0.75 #
point $-1 2.75 -0.5 -0.75 #
straight-curve $-1 -2.75 0 0.75 0 -1 0 I I #
point $-1 -2.75 0.5 0.75 #
point $-1 -2.75 -0.5 0.75 #
straight-curve $-1 2.75 -0.5 0 0 0 -1 I I #
straight-curve $-1 2.75 0.5 0 0 0 -1 I I #
point $-1 0.25 0 0.50000000000000011 #
loop $-1 $-1 $531 $355 #
plane-surface $-1 2.75 0 0 -1 0 0 0 0 1 forward_v I I I I #
coedge $-1 $364 $363 $369 $543 forward $356 $-1 #
coedge $-1 $536 $535 $358 $532 forward $528 $-1 #
edge $-1 $709 -0.25 $533 0.75 $531 $710 forward 7 unknown #
vertex $-1 $532 $711 #
straight-curve $-1 -0.40625 0.5 -0.28125 -1 0 0 I I #
coedge $-1 $531 $361 $364 $539 forward $528 $-1 #
coedge $-1 $361 $531 $373 $545 reversed $528 $-1 #
vertex $-1 $545 $712 #
straight-curve $-1 2.75 -0.25 0.28125 0 -1 0 I I #
edge $-1 $365 -0.28125 $709 0.28125 $535 $713 forward 7 unknown #
point $-1 2.75 -0.5 0.28125 #
point $-1 -0.8125 -0.5 0.28125 #
ellipse-curve $-1 -0.8125 -0.5 0 0 -1 0 0 0 0.28125 1 I I #
edge $-1 $370 -0.40625 $709 3.15625 $530 $714 forward 7 unknown #
point $-1 -0.8125 -0.5 -0.28125 #
edge $-1 $537 -0.28125 $533 0.28125 $536 $715 forward 7 unknown #
straight-curve $-1 1.375 0.5 0.28125 1 0 0 I I #
face $716 $405 $717 $29 $-1 $718 forward single #
loop $-1 $-1 $719 $377 #
coedge $-1 $561 $380 $382 $554 forward $233 $-1 #
edge $720 $393 0 $557 3.1415926535897931 $389 $721 forward 7 unknown #
coedge $-1 $382 $381 $722 $723 reversed $137 $-1 #
coedge $-1 $724 $725 $381 $553 forward $548 $-1 #
edge $-1 $726 -0.75 $558 -0.25 $552 $727 forward 7 unknown #
edge $-1 $557 0.5 $728 1 $549 $729 forward 7 unknown #
coedge $-1 $383 $730 $724 $731 reversed $390 $-1 #
convexity-sys-attrib $-1 $-1 $-1 $384 #
vertex $-1 $384 $732 #
vertex $-1 $384 $733 #
straight-curve $-1 -0.79062499999999969 0.28125 -5.7879184513951127 1 0 0 I I #
edge $-1 $400 -1.375 $562 2.1875 $398 $734 forward 7 unknown #
coedge $-1 $386 $549 $569 $735 reversed $233 $-1 #
vertex $-1 $735 $736 #
straight-curve $-1 -1.5812499999999994 -0.28124999999999983 -6.2879184513951127 0 -3.8285889215894375e-016 1 I I #
straight-curve $-1 1.9812500000000006 -0.28124999999999989 -6.0379184513951127 0 -3.8285889215894375e-016 1 I I #
face $-1 $-1 $390 $29 $-1 $737 reversed single #
point $-1 1.9812500000000006 -0.28125 -5.7879184513951127 #
point $-1 -1.5812499999999994 -0.28125 -5.7879184513951127 #
coedge $-1 $730 $395 $738 $739 reversed $390 $-1 #
coedge $-1 $722 $398 $561 $735 forward $378 $-1 #
coedge $-1 $399 $740 $741 $742 forward $378 $-1 #
point $-1 1.9812500000000006 -0.28125000000000017 -5.2879184513951127 #
coedge $-1 $741 $738 $402 $573 forward $717 $-1 #
edge $743 $577 0 $574 0.5 $402 $744 forward 7 unknown #
vertex $-1 $403 $745 #
straight-curve $-1 -0.38437499999999969 -0.40000000000000002 -5.2879184513951127 1 0 0 I I #
convexity-sys-attrib $-1 $-1 $-1 $404 #
vertex $-1 $739 $746 #
straight-curve $-1 0 -0.40000000000000002 -5.7879184513951127 -1 0 0 I I #
face $-1 $565 $747 $29 $-1 $748 reversed single #
plane-surface $-1 0 -0.40000000000000002 0 0 1 0 0 0 1 forward_v I I I I #
colour-tsl-attrib $-1 $-1 $408 $91 1 #
face_name-twe-attrib $-1 $-1 $409 $147 6 #
face_name-twe-attrib $-1 $-1 $410 $253 7 #
model_id-kcp-attrib $-1 $749 $-1 $411 1 990669531 70 -62521343 9 #
face $750 $671 $665 $9 $-1 $751 reversed single #
loop $752 $-1 $487 $411 #
plane-surface $753 -0.625 0.070710678118653003 -0.75 -0.70710678118653503 -0.70710678118656001 0 0 0 1 forward_v I I I I #
loop_type-twe-attrib $-1 $-1 $-1 $412 0 #
surf-twe-attrib $-1 $-1 $-1 $413 96 #
loop_type-twe-attrib $-1 $-1 $414 $254 1 #
coedge $-1 $591 $591 $415 $592 forward $633 $-1 #
edge $754 $755 0 $755 6.2831853071795862 $591 $756 forward 7 unknown #
coedge $-1 $757 $758 $417 $594 reversed $759 $-1 #
edge $760 $602 -0.5 $646 0 $593 $761 forward 7 unknown #
coedge $-1 $462 $762 $418 $596 forward $657 $-1 #
edge $763 $601 -0.5 $465 0 $595 $764 forward 7 unknown #
coedge $-1 $765 $419 $762 $766 forward $599 $-1 #
coedge $-1 $419 $767 $757 $768 reversed $599 $-1 #
loop $769 $-1 $419 $770 #
model_id-kcp-attrib $-1 $771 $-1 $420 1 990669531 70 -62521343 25 #
vertex $-1 $766 $772 #
vertex $-1 $768 $773 #
straight-curve $774 4.5 -0.25 0.40000000000000002 0 0 1 I I #
coedge $-1 $767 $421 $424 $611 reversed $599 $-1 #
coedge $-1 $421 $765 $624 $775 forward $599 $-1 #
model_id-kcp-attrib $-1 $776 $-1 $422 1 990669531 70 -62521343 24 #
vertex $-1 $775 $777 #
straight-curve $778 4.5 -0.25 -0.28125 0 0 1 I I #
coedge $-1 $424 $423 $779 $780 forward $425 $-1 #
edge $781 $782 -3.5625 $428 0 $423 $783 forward 7 unknown #
edge $784 $785 -3.5625 $427 0 $424 $786 forward 7 unknown #
loop_type-twe-attrib $-1 $-1 $-1 $425 0 #
face $787 $-1 $425 $9 $-1 $788 reversed single #
convexity-sys-attrib $-1 $789 $426 $260 #
point $-1 4.5 -0.25 -0.40000000000000002 #
point $-1 4.5 0.25 -0.40000000000000002 #
cur-twe-attrib $-1 $-1 $-1 $429 103 #
coedge $-1 $790 $430 $433 $625 reversed $620 $-1 #
coedge $-1 $430 $790 $656 $791 forward $620 $-1 #
loop $792 $-1 $790 $793 #
attrib_edge_convexity-kcp-attrib $-1 $794 $-1 $431 1 #
vertex $-1 $791 $795 #
ellipse-curve $796 0.9375 -0.75 0 0 -1 0 0 0 -0.28125 1 I I #
coedge $-1 $433 $432 $605 $775 reversed $434 $-1 #
edge $797 $798 -0.5 $436 0 $618 $799 forward 7 unknown #
loop_type-twe-attrib $-1 $-1 $-1 $434 0 #
face $800 $793 $434 $9 $-1 $801 reversed single #
convexity-sys-attrib $-1 $802 $435 $264 #
point $-1 0.9375 -0.75 -0.28125 #
cur-twe-attrib $-1 $-1 $-1 $437 107 #
loop_type-twe-attrib $-1 $-1 $438 $265 1 #
model_id-kcp-attrib $-1 $803 $-1 $439 1 990669531 70 -62521343 14 #
loop $804 $265 $591 $439 #
cone-surface $805 0 0.25 0 0 -1 0 0.25 0 0 1 I I 0 1 0.25 forward I I I I #
edge_name-twe-attrib $-1 $-1 $440 $156 31 8704 #
coedge $-1 $685 $684 $444 $637 forward $586 $-1 #
edge $806 $807 -0.049999999999998324 $639 0 $636 $808 forward 7 unknown #
edge_name-twe-attrib $-1 $-1 $-1 $446 12 8704 #
vertex $-1 $688 $809 #
straight-curve $810 -0.625 0.25 0.75 0 1 0 I I #
coedge $-1 $497 $447 $758 $811 reversed $309 $-1 #
edge_name-twe-attrib $-1 $-1 $448 $271 9 8704 #
point $-1 -0.625 0.25 0.75 #
cur-twe-attrib $-1 $-1 $-1 $450 114 #
model_id-kcp-attrib $-1 $812 $-1 $451 1 990669531 70 -62521343 26 #
vertex $-1 $451 $813 #
straight-curve $814 4.5 0.25 0.40000000000000002 0 0 -1 I I #
coedge $-1 $664 $663 $454 $649 forward $665 $-1 #
edge $815 $651 -3.1415926535897842 $807 3.2959746043559398e-015 $648 $816 forward 7 unknown #
model_id-kcp-attrib $-1 $817 $-1 $456 1 990669531 70 -62521343 29 #
vertex $-1 $669 $818 #
straight-curve $819 -0.66035533905932697 -0.035355339059328 0.75 0.70710678118653703 -0.70710678118655801 0 I I #
edge_name-twe-attrib $-1 $-1 $457 $279 24 8704 #
point $-1 -0.69571067811865395 0 0.75 #
cur-twe-attrib $-1 $-1 $-1 $459 122 #
coedge $-1 $762 $462 $619 $791 reversed $657 $-1 #
loop $820 $-1 $762 $821 #
attrib_edge_convexity-kcp-attrib $-1 $822 $-1 $463 1 #
straight-curve $823 4.5 -0.75 0.28125 1 0 0 I I #
convexity-sys-attrib $-1 $824 $464 $284 #
point $-1 4.5 -0.75 0.28125 #
cur-twe-attrib $-1 $825 $-1 $466 127 #
coedge $-1 $648 $468 $471 $669 reversed $665 $-1 #
coedge $-1 $468 $648 $684 $826 forward $665 $-1 #
loop $827 $-1 $468 $585 #
model_id-kcp-attrib $-1 $828 $-1 $469 1 990669531 70 -62521343 34 #
vertex $-1 $826 $829 #
ellipse-curve $830 -0.625 0 -0.75 0 0 1 0.035355339059327202 0.035355339059327598 0 1 I I #
edge $831 $651 -1.5 $474 0 $471 $832 forward 7 unknown #
loop_type-twe-attrib $-1 $-1 $-1 $472 0 #
face $833 $478 $472 $9 $-1 $834 forward single #
attrib_edge_convexity-kcp-attrib $-1 $835 $473 $291 1 #
point $-1 -0.66035533905932697 -0.035355339059327598 -0.75 #
cur-twe-attrib $-1 $-1 $-1 $475 133 #
edge_name-twe-attrib $-1 $-1 $-1 $476 25 8448 #
straight-curve $836 -0.69571067811865395 0 -0.75 0 0 -1 I I #
model_id-kcp-attrib $-1 $837 $-1 $478 1 990669531 70 -62521343 12 #
plane-surface $838 -0.69571067811865395 0 -0.75 0 1 0 0 0 1 forward_v I I I I #
convexity-sys-attrib $-1 $839 $479 $170 #
edge_name-twe-attrib $-1 $-1 $482 $298 29 8704 #
cur-twe-attrib $-1 $-1 $-1 $483 140 #
face_name-twe-attrib $-1 $-1 $484 $300 12 #
surf-twe-attrib $-1 $-1 $-1 $485 142 #
coedge $-1 $636 $487 $664 $826 reversed $586 $-1 #
coedge $-1 $487 $636 $489 $688 forward $586 $-1 #
attrib_edge_convexity-kcp-attrib $-1 $840 $-1 $488 1 #
straight-curve $841 -0.625 0.070710678118653003 -0.75 -0.707106781186567 0.70710678118652803 0 I I #
edge $842 $639 -1.5 $492 0 $685 $843 forward 7 unknown #
convexity-sys-attrib $-1 $844 $491 $306 #
point $-1 -0.625 0.070710678118653003 -0.75 #
cur-twe-attrib $-1 $-1 $-1 $493 147 #
edge_name-twe-attrib $-1 $-1 $-1 $494 13 8704 #
straight-curve $845 -0.625 0.25 -0.75 0 0 -1 I I #
coedge $-1 $846 $779 $497 $695 reversed $847 $-1 #
edge $848 $849 -3.1415926535897931 $782 0 $694 $850 forward 7 unknown #
convexity-sys-attrib $-1 $851 $498 $179 #
attrib_edge_convexity-kcp-attrib $-1 $852 $501 $313 1 #
cur-twe-attrib $-1 $853 $-1 $502 203 #
attrib_edge_convexity-kcp-attrib $-1 $854 $-1 $503 1 #
straight-curve $855 4.5 -0.75 -0.28125 0 -1 0 I I #
edge_name-twe-attrib $-1 $-1 $505 $185 3 8704 #
cur-twe-attrib $-1 $-1 $507 $320 89 #
edge_name-twe-attrib $-1 $-1 $508 $186 27 8704 #
model_id-kcp-attrib $-1 $-1 $510 $325 1 990669531 80 -61865982 5 #
straight-curve $-1 -2.75 0.5 0 0 0 -1 I I #
point $-1 -2.75 -0.5 -0.75 #
straight-curve $-1 -2.75 0 -0.75 0 1 0 I I #
point $-1 -2.75 0.5 -0.75 #
vertex $-1 $543 $856 #
straight-curve $-1 2.75 -0.25 -0.28125 0 1 0 I I #
point $-1 2.75 0.5 -0.28125 #
point $-1 2.75 0.5 0.28125 #
straight-curve $-1 2.75 -0.5 0 0 0 -1 I I #
straight-curve $-1 -0.40625 -0.5 -0.28125 1 0 0 I I #
straight-curve $-1 2.75 0.5 0 0 0 -1 I I #
face_name-twe-attrib $-1 $-1 $-1 $547 18 #
loop $857 $-1 $741 $547 #
cone-surface $858 -1.5812499999999994 -1.5307579422779716e-017 -5.7879184513951127 0 -3.8285889215894375e-016 1 0.40000000000000002 0 0 1 I I 0 1 0.40000000000000002 forward I I I I #
coedge $-1 $725 $724 $859 $860 forward $548 $-1 #
convexity-sys-attrib $-1 $-1 $-1 $550 #
ellipse-curve $-1 -1.5812499999999994 -1.5307579422779716e-017 -5.7879184513951127 0 0 -1 0 -0.28125 -1.0767906341970293e-016 1 I I #
coedge $-1 $861 $569 $551 $723 forward $378 $-1 #
edge $-1 $728 -0.40625 $726 3.15625 $722 $862 forward 7 unknown #
coedge $-1 $719 $552 $555 $731 forward $548 $-1 #
coedge $-1 $552 $719 $861 $863 reversed $548 $-1 #
vertex $-1 $863 $864 #
straight-curve $-1 1.9812500000000006 0.28125000000000011 -6.0379184513951127 0 3.8285889215894375e-016 -1 I I #
vertex $-1 $735 $865 #
straight-curve $-1 -1.5812499999999994 0.28125000000000017 -6.2879184513951127 0 -3.8285889215894375e-016 1 I I #
coedge $-1 $555 $568 $866 $867 forward $390 $-1 #
edge $868 $558 0.28125 $869 0.40000000000000002 $555 $870 forward 7 unknown #
point $-1 -1.5812499999999994 0.28125 -5.7879184513951127 #
point $-1 1.9812500000000006 0.28125 -5.7879184513951127 #
straight-curve $-1 0.60625000000000062 -0.28125000000000017 -5.2879184513951127 -1 0 0 I I #
edge $-1 $562 0 $728 3.1415926535897931 $569 $871 forward 7 unknown #
point $-1 -1.5812499999999994 -0.28125000000000017 -5.2879184513951127 #
plane-surface $-1 0 0 -5.7879184513951127 0 0 1 1 0 0 forward_v I I I I #
coedge $-1 $572 $872 $568 $739 forward $717 $-1 #
edge $873 $874 1.5707963267948966 $577 4.7123889803846897 $568 $875 forward 7 unknown #
coedge $-1 $570 $861 $876 $877 forward $378 $-1 #
coedge $-1 $872 $572 $570 $742 reversed $717 $-1 #
edge $-1 $878 1.5707963267948966 $574 4.7123889803846897 $570 $879 forward 7 unknown #
convexity-sys-attrib $-1 $-1 $-1 $573 #
straight-curve $-1 -1.5812499999999994 -0.40000000000000002 -5.7879184513951127 0 -3.8285889215894375e-016 1 I I #
point $-1 -1.5812499999999994 -0.40000000000000019 -5.2879184513951127 #
point $-1 -1.5812499999999994 -0.40000000000000002 -5.7879184513951127 #
loop $-1 $-1 $880 $579 #
plane-surface $-1 0 0.40000000000000002 0 0 -1 0 0 0 -1 forward_v I I I I #
face_name-twe-attrib $-1 $-1 $584 $411 8 #
model_id-kcp-attrib $-1 $881 $-1 $585 1 990669531 70 -62521343 10 #
cone-surface $882 -0.625 0 -0.75 0 0 1 0.050000000000000003 0 0 1 I I 0 1 0.050000000000000003 forward I I I I #
loop_type-twe-attrib $-1 $-1 $-1 $586 0 #
surf-twe-attrib $-1 $-1 $-1 $587 165 #
attrib_edge_convexity-kcp-attrib $-1 $883 $-1 $592 1 #
vertex $884 $592 $885 #
ellipse-curve $886 0 0.25 0 0 1 0 0.25 0 0 1 I I #
coedge $-1 $887 $593 $598 $768 forward $759 $-1 #
coedge $-1 $593 $887 $641 $811 forward $759 $-1 #
loop $888 $-1 $758 $889 #
edge_name-twe-attrib $-1 $-1 $-1 $594 47 8704 #
straight-curve $890 4.5 0.25 0.40000000000000002 0 1 0 I I #
coedge $-1 $595 $656 $597 $766 reversed $657 $-1 #
edge_name-twe-attrib $-1 $-1 $-1 $596 36 8704 #
straight-curve $891 4.5 -0.75 0.28125 0 -1 0 I I #
coedge $-1 $605 $597 $790 $892 forward $599 $-1 #
edge $893 $601 -3.5625 $894 0 $597 $895 forward 7 unknown #
coedge $-1 $598 $604 $896 $897 reversed $599 $-1 #
edge $898 $602 -3.5625 $899 0 $757 $900 forward 7 unknown #
loop_type-twe-attrib $-1 $-1 $-1 $599 0 #
face $901 $902 $599 $9 $-1 $903 forward single #
edge_name-twe-attrib $-1 $-1 $600 $420 39 8704 #
point $-1 4.5 -0.25 0.28125 #
point $-1 4.5 -0.25 0.40000000000000002 #
cur-twe-attrib $-1 $904 $-1 $603 176 #
edge $905 $798 -3.5625 $607 0 $605 $906 forward 7 unknown #
attrib_edge_convexity-kcp-attrib $-1 $907 $606 $422 1 #
point $-1 4.5 -0.25 -0.28125 #
cur-twe-attrib $-1 $908 $-1 $608 176 #
coedge $-1 $694 $896 $609 $780 reversed $847 $-1 #
edge $909 $782 -0.5 $785 0 $609 $910 forward 7 unknown #
edge_name-twe-attrib $-1 $-1 $-1 $610 50 8704 #
vertex $-1 $780 $911 #
straight-curve $912 4.5 0.25 -0.40000000000000002 1 0 -1.55820775385987e-017 I I #
edge_name-twe-attrib $-1 $-1 $-1 $611 52 4608 #
vertex $-1 $780 $913 #
straight-curve $914 4.5 -0.25 -0.40000000000000002 1 0 -1.55820775385987e-017 I I #
model_id-kcp-attrib $-1 $915 $-1 $613 1 990669531 70 -62521343 21 #
plane-surface $916 4.5 -0.25 -0.40000000000000002 0 0 -1 -1 0 0 forward_v I I I I #
edge_name-twe-attrib $-1 $-1 $614 $260 53 8704 #
coedge $-1 $619 $618 $765 $892 reversed $620 $-1 #
edge $917 $894 -0.5 $622 0 $656 $918 forward 7 unknown #
loop_type-twe-attrib $-1 $-1 $-1 $620 0 #
face $919 $821 $620 $9 $-1 $920 reversed single #
convexity-sys-attrib $-1 $921 $621 $431 #
point $-1 0.9375 -0.75 0.28125 #
cur-twe-attrib $-1 $-1 $-1 $623 185 #
edge_name-twe-attrib $-1 $-1 $-1 $625 35 20480 #
vertex $-1 $892 $922 #
straight-curve $923 0.9375 -0.75 -0.28125 0 -1 0 I I #
model_id-kcp-attrib $-1 $924 $-1 $627 1 990669531 70 -62521343 15 #
plane-surface $925 4.5 -0.84999999999999998 -0.28125 0 0 -1 -1 0 0 forward_v I I I I #
edge_name-twe-attrib $-1 $-1 $628 $264 32 8704 #
face_name-twe-attrib $-1 $-1 $632 $439 13 #
model_id-kcp-attrib $-1 $926 $-1 $633 1 990669531 70 -62521343 37 #
surf-twe-attrib $-1 $-1 $-1 $634 193 #
edge_name-twe-attrib $-1 $-1 $-1 $637 15 8704 #
vertex $-1 $826 $927 #
straight-curve $928 -0.625 0.070710678118653003 0.75 -0.707106781186565 0.70710678118653003 0 I I #
point $-1 -0.625 0.070710678118653003 0.75 #
cur-twe-attrib $-1 $-1 $-1 $640 198 #
edge $929 $849 -3.5625 $646 0 $758 $930 forward 7 unknown #
edge_name-twe-attrib $-1 $-1 $645 $451 10 8704 #
point $-1 4.5 0.25 0.40000000000000002 #
cur-twe-attrib $-1 $931 $-1 $647 203 #
model_id-kcp-attrib $-1 $932 $-1 $649 1 990669531 70 -62521343 28 #
ellipse-curve $933 -0.625 0 0.75 0 0 1 0.035355339059327202 0.035355339059327598 0 1 I I #
edge_name-twe-attrib $-1 $-1 $650 $456 21 8704 #
point $-1 -0.66035533905932697 -0.035355339059328 0.75 #
cur-twe-attrib $-1 $-1 $-1 $652 208 #
loop_type-twe-attrib $-1 $-1 $-1 $657 0 #
face $934 $770 $657 $9 $-1 $935 reversed single #
convexity-sys-attrib $-1 $936 $658 $463 #
cur-twe-attrib $-1 $-1 $-1 $659 215 #
edge_name-twe-attrib $-1 $-1 $660 $284 6 8704 #
cur-twe-attrib $-1 $-1 $662 $466 89 #
edge $937 $807 -1.5 $667 0 $664 $938 forward 7 unknown #
loop_type-twe-attrib $-1 $-1 $-1 $665 0 #
attrib_edge_convexity-kcp-attrib $-1 $939 $666 $469 1 #
point $-1 -0.58964466094067303 0.035355339059328 -0.75 #
cur-twe-attrib $-1 $-1 $-1 $668 220 #
edge_name-twe-attrib $-1 $-1 $-1 $669 22 20480 #
straight-curve $940 -0.66035533905932697 -0.035355339059327598 -0.75 -1.48029736616688e-016 2.6367796834847502e-016 -1 I I #
model_id-kcp-attrib $-1 $941 $-1 $671 1 990669531 70 -62521343 11 #
plane-surface $942 -0.66035533905932697 -0.035355339059328 -0.75 0.70710678118655101 0.70710678118654402 0 0 0 -1 forward_v I I I I #
convexity-sys-attrib $-1 $943 $672 $291 #
cur-twe-attrib $-1 $-1 $-1 $676 227 #
face_name-twe-attrib $-1 $-1 $677 $478 11 #
surf-twe-attrib $-1 $-1 $-1 $678 229 #
edge_name-twe-attrib $-1 $-1 $679 $170 23 8704 #
convexity-sys-attrib $-1 $944 $686 $488 #
cur-twe-attrib $-1 $-1 $-1 $687 237 #
edge_name-twe-attrib $-1 $-1 $-1 $688 16 8448 #
straight-curve $945 -0.625 0.070710678118653003 -0.75 0 0 -1 I I #
edge_name-twe-attrib $-1 $-1 $689 $306 11 8704 #
cur-twe-attrib $-1 $-1 $-1 $693 243 #
coedge $-1 $896 $694 $887 $946 forward $847 $-1 #
loop $947 $-1 $694 $902 #
edge_name-twe-attrib $-1 $-1 $-1 $695 44 8704 #
vertex $-1 $946 $948 #
ellipse-curve $949 0.9375 0.25 0 0 -1 0 0 0 -0.40000000000000002 1 I I #
edge_name-twe-attrib $-1 $-1 $696 $179 8 8704 #
convexity-sys-attrib $-1 $950 $697 $313 #
cur-twe-attrib $-1 $-1 $698 $502 154 #
convexity-sys-attrib $-1 $951 $699 $503 #
cur-twe-attrib $-1 $-1 $-1 $700 251 #
point $-1 2.75 -0.5 -0.28125 #
loop_type-twe-attrib $-1 $-1 $-1 $717 0 #
surf-twe-attrib $-1 $-1 $-1 $718 463 #
coedge $-1 $866 $876 $719 $860 reversed $747 $-1 #
edge $-1 $869 -2.8939592256975564 $952 -2.3939592256975564 $859 $953 forward 7 unknown #
coedge $-1 $740 $722 $725 $863 forward $378 $-1 #
straight-curve $-1 -1.1749999999999994 0.28124999999999983 -5.2879184513951127 1 0 0 I I #
edge $-1 $726 0.28125000000000006 $952 0.40000000000000008 $725 $401 forward 7 unknown #
point $-1 1.9812500000000006 0.28124999999999983 -5.2879184513951127 #
point $-1 -1.5812499999999994 0.28124999999999983 -5.2879184513951127 #
coedge $-1 $880 $859 $730 $867 reversed $747 $-1 #
edge $954 $874 -1.5812499999999994 $869 1.9812500000000006 $866 $955 forward 7 unknown #
convexity-sys-attrib $-1 $-1 $-1 $731 #
vertex $-1 $860 $956 #
straight-curve $-1 1.9812500000000006 -7.6537897113898579e-018 -5.7879184513951127 0 1 0 I I #
ellipse-curve $-1 -1.5812499999999994 -2.0673702550225159e-016 -5.2879184513951127 0 3.8285889215894375e-016 -1 0 -0.28125 -1.0767906341970293e-016 1 I I #
coedge $-1 $738 $741 $880 $957 reversed $717 $-1 #
convexity-sys-attrib $-1 $-1 $-1 $739 #
vertex $-1 $867 $958 #
ellipse-curve $-1 -1.5812499999999994 -1.5307579422779716e-017 -5.7879184513951127 0 0 1 0.40000000000000002 0 0 1 I I #
coedge $-1 $859 $880 $740 $877 reversed $747 $-1 #
edge $-1 $952 -2.3656250000000005 $878 1.1968749999999997 $876 $959 forward 7 unknown #
vertex $-1 $877 $960 #
ellipse-curve $-1 -1.5812499999999994 -2.0673702550225159e-016 -5.2879184513951127 0 -3.8285889215894375e-016 1 0.40000000000000002 0 0 1 I I #
coedge $-1 $876 $866 $872 $957 forward $747 $-1 #
face_name-twe-attrib $-1 $-1 $750 $585 9 #
surf-twe-attrib $-1 $-1 $-1 $751 256 #
convexity-sys-attrib $-1 $961 $754 $592 #
model_id-kcp-attrib $-1 $-1 $-1 $755 1 990669531 70 -62521343 41 #
point $-1 0.25 0.25 0 #
cur-twe-attrib $-1 $-1 $-1 $756 262 #
coedge $-1 $758 $757 $846 $946 reversed $759 $-1 #
loop_type-twe-attrib $-1 $-1 $-1 $759 0 #
face $962 $613 $759 $9 $-1 $963 reversed single #
cur-twe-attrib $-1 $-1 $-1 $761 264 #
cur-twe-attrib $-1 $-1 $-1 $764 266 #
edge $964 $894 -3.1415926535897931 $798 0 $765 $965 forward 7 unknown #
edge_name-twe-attrib $-1 $-1 $-1 $766 40 8704 #
vertex $-1 $892 $966 #
straight-curve $967 0.9375 -0.25 0.28125 -1 0 0 I I #
coedge $-1 $779 $846 $767 $897 forward $847 $-1 #
edge $968 $899 -3.1415926535897931 $785 0 $896 $969 forward 7 unknown #
edge_name-twe-attrib $-1 $-1 $-1 $768 48 4608 #
vertex $-1 $946 $970 #
straight-curve $971 0.9375 -0.25 0.40000000000000002 -1 0 0 I I #
model_id-kcp-attrib $-1 $972 $-1 $770 1 990669531 70 -62521343 18 #
face $973 $889 $847 $9 $-1 $974 reversed single #
plane-surface $975 4.5 -0.25 -0.75 0 1 0 0 0 1 forward_v I I I I #
cur-twe-attrib $-1 $-1 $774 $603 174 #
edge_name-twe-attrib $-1 $-1 $-1 $775 42 8704 #
straight-curve $976 4.5 -0.25 -0.28125 1 0 0 I I #
convexity-sys-attrib $-1 $977 $776 $422 #
cur-twe-attrib $-1 $-1 $778 $608 174 #
edge_name-twe-attrib $-1 $-1 $-1 $780 51 20480 #
straight-curve $978 0.9375 -0.25 -0.40000000000000002 0 -1 0 I I #
point $-1 0.9375 0.25 -0.40000000000000002 #
cur-twe-attrib $-1 $-1 $-1 $783 280 #
point $-1 0.9375 -0.25 -0.40000000000000002 #
cur-twe-attrib $-1 $-1 $-1 $786 281 #
face_name-twe-attrib $-1 $-1 $787 $613 20 #
surf-twe-attrib $-1 $-1 $-1 $788 283 #
edge_name-twe-attrib $-1 $-1 $-1 $791 38 20480 #
straight-curve $979 0.9375 -0.75 0.28125 0 -1 0 I I #
model_id-kcp-attrib $-1 $980 $-1 $793 1 990669531 70 -62521343 16 #
cone-surface $981 0.9375 -0.84999999999999998 0 0 1 0 -0.28125 0 0 1 I I 0 1 0.28125 forward I I I I #
edge_name-twe-attrib $-1 $-1 $794 $431 34 8704 #
point $-1 0.9375 -0.25 -0.28125 #
cur-twe-attrib $-1 $-1 $-1 $799 294 #
face_name-twe-attrib $-1 $-1 $800 $627 14 #
surf-twe-attrib $-1 $-1 $-1 $801 296 #
loop_type-twe-attrib $-1 $-1 $804 $633 0 #
point $-1 -0.58964466094067303 0.035355339059327598 0.75 #
cur-twe-attrib $-1 $-1 $-1 $808 303 #
edge_name-twe-attrib $-1 $-1 $-1 $811 46 8704 #
straight-curve $982 4.5 0.25 0.40000000000000002 1 0 0 I I #
cur-twe-attrib $-1 $-1 $814 $647 154 #
edge_name-twe-attrib $-1 $-1 $815 $649 18 8704 #
cur-twe-attrib $-1 $-1 $-1 $816 314 #
model_id-kcp-attrib $-1 $983 $-1 $821 1 990669531 70 -62521343 17 #
plane-surface $984 0.9375 -0.84999999999999998 0.28125 0 0 1 1 0 0 forward_v I I I I #
edge_name-twe-attrib $-1 $-1 $822 $463 37 8704 #
edge_name-twe-attrib $-1 $-1 $-1 $826 19 20480 #
straight-curve $985 -0.58964466094067303 0.035355339059328 -0.75 -1.48029736616688e-016 2.68303897617746e-016 -1 I I #
convexity-sys-attrib $-1 $986 $828 $469 #
cur-twe-attrib $-1 $-1 $-1 $832 332 #
face_name-twe-attrib $-1 $-1 $833 $671 10 #
surf-twe-attrib $-1 $-1 $-1 $834 334 #
edge_name-twe-attrib $-1 $-1 $835 $291 20 8704 #
edge_name-twe-attrib $-1 $-1 $840 $488 14 8704 #
cur-twe-attrib $-1 $-1 $-1 $843 347 #
edge $987 $849 -0.5 $899 0 $887 $988 forward 7 unknown #
loop_type-twe-attrib $-1 $-1 $-1 $847 0 #
point $-1 0.9375 0.25 0.40000000000000002 #
cur-twe-attrib $-1 $-1 $-1 $850 353 #
edge_name-twe-attrib $-1 $-1 $852 $313 7 8704 #
edge_name-twe-attrib $-1 $-1 $854 $503 33 8704 #
vertex $-1 $877 $989 #
straight-curve $-1 1.9812500000000006 0.40000000000000002 -2.8939592256975564 0 0 1 I I #
convexity-sys-attrib $-1 $-1 $-1 $867 #
straight-curve $-1 0 0.40000000000000002 -5.7879184513951127 1 0 0 I I #
point $-1 1.9812500000000006 0.40000000000000002 -5.7879184513951127 #
edge $990 $874 0 $878 0.5 $880 $991 forward 7 unknown #
point $-1 -1.5812499999999994 0.40000000000000002 -5.7879184513951127 #
straight-curve $-1 -0.38437499999999969 0.40000000000000002 -5.2879184513951127 -1 0 0 I I #
point $-1 -1.5812499999999994 0.39999999999999986 -5.2879184513951127 #
edge_name-twe-attrib $-1 $-1 $883 $592 30 8704 #
model_id-kcp-attrib $-1 $992 $-1 $889 1 990669531 70 -62521343 20 #
plane-surface $993 0.9375 -0.25 0.40000000000000002 0 0 1 1 0 0 forward_v I I I I #
edge_name-twe-attrib $-1 $-1 $-1 $892 41 8704 #
ellipse-curve $994 0.9375 -0.25 0 0 -1 0 0 0 -0.28125 1 I I #
point $-1 0.9375 -0.25 0.28125 #
cur-twe-attrib $-1 $-1 $-1 $895 374 #
edge_name-twe-attrib $-1 $-1 $-1 $897 45 4608 #
ellipse-curve $995 0.9375 -0.25 0 0 -1 0 0 0 -0.40000000000000002 1 I I #
point $-1 0.9375 -0.25 0.40000000000000002 #
cur-twe-attrib $-1 $-1 $-1 $900 376 #
face_name-twe-attrib $-1 $-1 $901 $770 17 #
model_id-kcp-attrib $-1 $996 $-1 $902 1 990669531 70 -62521343 19 #
cone-surface $997 0.9375 -0.25 0 0 1 0 0.40000000000000002 0 0 1 I I 0 1 0.40000000000000002 forward I I I I #
surf-twe-attrib $-1 $-1 $-1 $903 378 #
cur-twe-attrib $-1 $-1 $-1 $906 382 #
edge_name-twe-attrib $-1 $-1 $907 $422 43 8704 #
cur-twe-attrib $-1 $-1 $-1 $910 386 #
cur-twe-attrib $-1 $-1 $-1 $918 396 #
face_name-twe-attrib $-1 $-1 $919 $793 15 #
surf-twe-attrib $-1 $-1 $-1 $920 398 #
cur-twe-attrib $-1 $-1 $-1 $930 413 #
face_name-twe-attrib $-1 $-1 $934 $821 16 #
surf-twe-attrib $-1 $-1 $-1 $935 421 #
cur-twe-attrib $-1 $-1 $-1 $938 424 #
edge_name-twe-attrib $-1 $-1 $939 $469 17 8704 #
edge_name-twe-attrib $-1 $-1 $-1 $946 49 20480 #
straight-curve $998 0.9375 -0.25 0.40000000000000002 0 -1 0 I I #
point $-1 1.9812500000000006 0.39999999999999986 -5.2879184513951127 #
convexity-sys-attrib $-1 $-1 $-1 $957 #
straight-curve $-1 -1.5812499999999994 0.40000000000000002 -5.7879184513951127 0 -3.8285889215894375e-016 1 I I #
face_name-twe-attrib $-1 $-1 $962 $889 19 #
surf-twe-attrib $-1 $-1 $-1 $963 450 #
cur-twe-attrib $-1 $-1 $-1 $965 453 #
cur-twe-attrib $-1 $-1 $-1 $969 458 #
face_name-twe-attrib $-1 $-1 $973 $902 18 #
surf-twe-attrib $-1 $-1 $-1 $974 463 #
cur-twe-attrib $-1 $-1 $-1 $988 496 #
End-of-ACIS-data 