700 0 2 0           
24 FBMach with ACIS - 7.0.3 13 ACIS 7.0.3 NT 24 Tue May 14 12:04:49 2002 
1 9.9999999999999995e-007 1e-010 
body $2 -1 $-1 $3 $-1 $4 #
bdycol-kcp $-1 -1 1 4 $5 $6 $7 $8 #
model_id-kcp-attrib $-1 -1 $-1 $-1 $0 1 1021392288 1021392288 -532414463 1 #
lump $-1 -1 $-1 $-1 $9 $0 #
transform $-1 -1 1 0 0 0 1 0 0 0 1 0 0 0 1 rotate no_reflect no_shear #
body $10 -1 $-1 $11 $-1 $12 #
body $13 -1 $-1 $14 $-1 $15 #
body $16 -1 $-1 $17 $-1 $18 #
body $19 -1 $-1 $20 $-1 $21 #
shell $-1 -1 $-1 $-1 $-1 $22 $-1 $3 #
rgb_color-st-attrib $-1 -1 $23 $-1 $5 0.5 1 1 #
lump $-1 -1 $-1 $-1 $24 $5 #
transform $-1 -1 1 0 0 0 1 0 0 0 1 1.75 -0.25 0 1 no_rotate no_reflect no_shear #
model_id-kcp-attrib $-1 -1 $-1 $-1 $6 1 1021392288 1021392288 -532414462 1 #
lump $-1 -1 $-1 $-1 $25 $6 #
transform $-1 -1 1 0 0 0 1 0 0 0 1 1.75 -0.25 0 1 no_rotate no_reflect no_shear #
rgb_color-st-attrib $-1 -1 $26 $-1 $7 1 0 0 #
lump $-1 -1 $-1 $-1 $27 $7 #
transform $-1 -1 1 0 0 0 -3.8285889215894375e-016 -1 0 1 -3.8285889215894375e-016 2.5187499999999994 5.5379184513951127 -2.2312636256302218e-015 1 rotate no_reflect no_shear #
rgb_color-st-attrib $-1 -1 $28 $-1 $8 0.5 1 1 #
lump $-1 -1 $-1 $-1 $29 $8 #
transform $-1 -1 1 0 0 0 -3.8285889215894375e-016 1 0 -1 -3.8285889215894375e-016 0 -0.25 -1.9142944607947188e-016 1 rotate no_reflect no_shear #
face $30 -1 $-1 $31 $32 $9 $-1 $33 reversed single #
model_id-kcp-attrib $-1 -1 $-1 $10 $5 1 1021392288 1021392288 -532807676 1 #
shell $-1 -1 $-1 $-1 $-1 $34 $-1 $11 #
shell $-1 -1 $-1 $-1 $-1 $35 $-1 $14 #
model_id-kcp-attrib $-1 -1 $-1 $16 $7 1 1021392288 1021392288 -531169275 1 #
shell $-1 -1 $-1 $-1 $-1 $36 $-1 $17 #
model_id-kcp-attrib $-1 -1 $-1 $19 $8 1 1021392288 1021392288 -530448381 1 #
shell $-1 -1 $-1 $-1 $-1 $37 $-1 $20 #
model_id-kcp-attrib $-1 -1 $38 $-1 $22 1 1021392288 1021392288 -532414463 2 #
face $39 -1 $-1 $40 $41 $9 $-1 $42 forward single #
loop $43 -1 $-1 $-1 $44 $22 #
plane-surface $45 -1 $-1 0 0 -0.75 0 0 1 1 0 0 forward_v I I I I #
face $-1 -1 $-1 $46 $47 $24 $-1 $48 reversed single #
face $49 -1 $-1 $50 $51 $25 $-1 $52 forward single #
face $-1 -1 $-1 $53 $54 $27 $-1 $55 reversed single #
face $-1 -1 $-1 $56 $57 $29 $-1 $58 forward single #
face_name-twe-attrib $-1 -1 $-1 $30 $22 1 #
model_id-kcp-attrib $-1 -1 $59 $-1 $31 1 1021392288 1021392288 -532414463 3 #
face $60 -1 $-1 $61 $62 $9 $-1 $63 forward single #
loop $64 -1 $-1 $-1 $65 $31 #
plane-surface $66 -1 $-1 0 0 0.75 0 0 1 1 0 0 forward_v I I I I #
loop_type-twe-attrib $-1 -1 $-1 $-1 $32 0 #
coedge $-1 -1 $-1 $67 $68 $69 $70 forward $32 $-1 #
surf-twe-attrib $-1 -1 $-1 $-1 $33 4 #
face $-1 -1 $-1 $71 $72 $24 $-1 $73 reversed single #
loop $-1 -1 $-1 $-1 $74 $34 #
cone-surface $-1 -1 $-1 -0.8125 -0.5 0 0 -1 0 0 0 0.28125 1 I I 0 -1 0.28125 forward I I I I #
model_id-kcp-attrib $-1 -1 $-1 $-1 $35 1 1021392288 1021392288 -532414462 3 #
face $75 -1 $-1 $76 $77 $25 $-1 $78 reversed single #
loop $-1 -1 $-1 $-1 $79 $35 #
plane-surface $-1 -1 $-1 0 0 0.75 0 0 1 1 0 0 forward_v I I I I #
face $-1 -1 $-1 $80 $81 $27 $-1 $82 forward single #
loop $-1 -1 $-1 $-1 $83 $36 #
plane-surface $-1 -1 $-1 1.9812500000000006 -1.5307579422779716e-017 -5.7879184513951127 -1 0 0 0 -1 -3.8285889215894375e-016 forward_v I I I I #
face $-1 -1 $-1 $84 $85 $29 $-1 $86 forward single #
loop $-1 -1 $-1 $87 $88 $37 #
cone-surface $-1 -1 $-1 0 0 0 0 0 1 0.25 0 0 1 I I 0 1 0.25 forward I I I I #
face_name-twe-attrib $-1 -1 $-1 $39 $31 2 #
model_id-kcp-attrib $-1 -1 $89 $-1 $40 1 1021392288 1021392288 -532414463 4 #
face $90 -1 $-1 $91 $92 $9 $-1 $93 forward single #
loop $94 -1 $-1 $95 $96 $40 #
plane-surface $97 -1 $-1 -1 -0.75 -0.75 0 -1 0 0 0 -1 forward_v I I I I #
loop_type-twe-attrib $-1 -1 $-1 $-1 $41 0 #
coedge $-1 -1 $-1 $98 $99 $100 $101 reversed $41 $-1 #
surf-twe-attrib $-1 -1 $-1 $-1 $42 6 #
coedge $-1 -1 $-1 $102 $44 $103 $104 forward $32 $-1 #
coedge $-1 -1 $-1 $44 $105 $106 $107 forward $32 $-1 #
coedge $-1 -1 $-1 $108 $109 $44 $70 reversed $95 $-1 #
edge $110 -1 $-1 $111 -5.5 $112 0 $69 $113 forward @7 unknown #
face $-1 -1 $-1 $114 $115 $24 $-1 $116 reversed single #
loop $-1 -1 $-1 $-1 $117 $46 #
plane-surface $-1 -1 $-1 2.75 -0.5 0.28125 0 0 -1 0 -1 0 forward_v I I I I #
coedge $-1 -1 $-1 $118 $119 $120 $121 reversed $47 $-1 #
model_id-kcp-attrib $-1 -1 $-1 $-1 $50 1 1021392288 1021392288 -532414462 2 #
face $122 -1 $-1 $123 $124 $25 $-1 $125 reversed single #
loop $-1 -1 $-1 $-1 $126 $50 #
plane-surface $-1 -1 $-1 0 0 -0.75 0 0 1 1 0 0 forward_v I I I I #
coedge $-1 -1 $-1 $127 $128 $129 $130 forward $51 $-1 #
face $-1 -1 $-1 $131 $132 $27 $-1 $133 forward single #
loop $-1 -1 $-1 $-1 $134 $53 #
plane-surface $-1 -1 $-1 1.9812500000000006 -0.28124999999999983 -6.2879184513951127 0 1 3.8285889215894375e-016 0 3.8285889215894375e-016 -1 forward_v I I I I #
coedge $-1 -1 $-1 $135 $136 $137 $138 forward $54 $-1 #
face $-1 -1 $-1 $-1 $139 $29 $-1 $140 forward single #
loop $-1 -1 $-1 $-1 $141 $56 #
plane-surface $-1 -1 $-1 0 0 -0.50000000000000011 0 0 -1 -1 0 0 forward_v I I I I #
loop $-1 -1 $-1 $-1 $142 $37 #
coedge $-1 -1 $-1 $88 $88 $141 $143 reversed $57 $-1 #
face_name-twe-attrib $-1 -1 $-1 $60 $40 3 #
model_id-kcp-attrib $-1 -1 $144 $-1 $61 1 1021392288 1021392288 -532414463 5 #
face $145 -1 $-1 $146 $147 $9 $-1 $93 forward single #
loop $148 -1 $-1 $-1 $149 $61 #
plane-surface $150 -1 $-1 4.5 -0.75 -0.75 1 0 0 0 0 -1 forward_v I I I I #
model_id-kcp-attrib $-1 -1 $151 $-1 $62 1 1021392288 1021392288 -532414463 40 #
loop $152 -1 $-1 $-1 $153 $40 #
coedge $-1 -1 $-1 $96 $96 $154 $155 forward $62 $-1 #
surf-twe-attrib $-1 -1 $-1 $-1 $63 10 #
coedge $-1 -1 $-1 $156 $65 $157 $158 reversed $41 $-1 #
coedge $-1 -1 $-1 $65 $159 $160 $161 reversed $41 $-1 #
coedge $-1 -1 $-1 $109 $162 $65 $101 forward $95 $-1 #
edge $163 -1 $-1 $164 -5.5 $165 0 $100 $166 forward @7 unknown #
coedge $-1 -1 $-1 $167 $67 $168 $169 forward $32 $-1 #
coedge $-1 -1 $-1 $170 $171 $67 $104 reversed $172 $-1 #
edge $173 -1 $-1 $112 -0.75 $174 0 $103 $175 forward @7 unknown #
coedge $-1 -1 $-1 $68 $176 $177 $178 forward $32 $-1 #
coedge $-1 -1 $-1 $179 $180 $68 $107 reversed $92 $-1 #
edge $181 -1 $-1 $182 -1 $111 0 $106 $183 forward @7 unknown #
coedge $-1 -1 $-1 $153 $69 $180 $184 reversed $95 $-1 #
coedge $-1 -1 $-1 $69 $100 $170 $185 forward $95 $-1 #
attrib_edge_convexity-kcp-attrib $-1 -1 $186 $-1 $70 1 #
vertex $-1 -1 $-1 $184 $187 #
vertex $-1 -1 $-1 $185 $188 #
straight-curve $189 -1 $-1 -1 -0.75 -0.75 -1 0 0 I I #
face $-1 -1 $-1 $190 $191 $24 $-1 $192 reversed single #
loop $-1 -1 $-1 $-1 $193 $71 #
plane-surface $-1 -1 $-1 -0.8125 -0.5 -0.28125 0 0 1 0 1 0 forward_v I I I I #
coedge $-1 -1 $-1 $194 $195 $196 $197 reversed $72 $-1 #
coedge $-1 -1 $-1 $198 $74 $199 $200 reversed $47 $-1 #
coedge $-1 -1 $-1 $74 $198 $195 $201 forward $47 $-1 #
coedge $-1 -1 $-1 $202 $203 $74 $121 forward $191 $-1 #
edge $-1 -1 $-1 $204 -3.1415926535897931 $205 0 $120 $206 forward @7 unknown #
model_id-kcp-attrib $-1 -1 $-1 $-1 $76 1 1021392288 1021392288 -532414462 4 #
face $207 -1 $-1 $208 $209 $25 $-1 $210 reversed single #
loop $-1 -1 $-1 $-1 $211 $76 #
plane-surface $-1 -1 $-1 0 -0.5 0 0 1 0 0 0 1 forward_v I I I I #
coedge $-1 -1 $-1 $212 $213 $214 $215 forward $77 $-1 #
coedge $-1 -1 $-1 $216 $79 $217 $218 forward $51 $-1 #
coedge $-1 -1 $-1 $79 $216 $219 $220 forward $51 $-1 #
coedge $-1 -1 $-1 $221 $222 $79 $130 reversed $223 $-1 #
edge $-1 -1 $-1 $224 -0.5 $225 0.5 $129 $226 forward @7 unknown #
face $-1 -1 $-1 $227 $228 $27 $-1 $229 forward single #
loop $-1 -1 $-1 $-1 $230 $80 #
plane-surface $-1 -1 $-1 -1.5812499999999994 0.28125000000000017 -6.2879184513951127 0 -1 -3.8285889215894375e-016 0 -3.8285889215894375e-016 1 forward_v I I I I #
coedge $-1 -1 $-1 $231 $232 $233 $234 forward $81 $-1 #
coedge $-1 -1 $-1 $235 $83 $236 $237 forward $54 $-1 #
coedge $-1 -1 $-1 $83 $235 $238 $239 reversed $54 $-1 #
coedge $-1 -1 $-1 $240 $241 $83 $138 reversed $242 $-1 #
edge $-1 -1 $-1 $243 2.3939592256975564 $244 2.8939592256975564 $137 $245 forward @7 unknown #
loop $-1 -1 $-1 $-1 $246 $84 #
plane-surface $-1 -1 $-1 0 0 0.50000000000000011 0 0 1 1 0 0 forward_v I I I I #
coedge $-1 -1 $-1 $141 $141 $88 $143 forward $85 $-1 #
coedge $-1 -1 $-1 $142 $142 $246 $247 reversed $87 $-1 #
edge $-1 -1 $-1 $248 0 $248 6.2831853071795862 $141 $249 forward @7 unknown #
face_name-twe-attrib $-1 -1 $-1 $90 $61 4 #
model_id-kcp-attrib $-1 -1 $250 $-1 $91 1 1021392288 1021392288 -532414463 6 #
face $251 -1 $-1 $252 $253 $9 $-1 $254 forward single #
loop $255 -1 $-1 $-1 $256 $91 #
loop_type-twe-attrib $-1 -1 $-1 $-1 $92 0 #
coedge $-1 -1 $-1 $257 $179 $258 $259 reversed $92 $-1 #
surf-twe-attrib $-1 -1 $260 $-1 $93 28 #
loop_type-twe-attrib $-1 -1 $-1 $94 $62 1 #
loop_type-twe-attrib $-1 -1 $-1 $-1 $95 0 #
coedge $-1 -1 $-1 $261 $108 $262 $263 reversed $95 $-1 #
coedge $-1 -1 $-1 $154 $154 $96 $155 reversed $264 $-1 #
edge $265 -1 $-1 $266 -3.1415926535897931 $266 3.1415926535897931 $154 $267 forward @7 unknown #
coedge $-1 -1 $-1 $268 $98 $269 $270 reversed $41 $-1 #
coedge $-1 -1 $-1 $271 $272 $98 $158 forward $147 $-1 #
edge $273 -1 $-1 $274 -1 $164 0 $157 $275 forward @7 unknown #
coedge $-1 -1 $-1 $99 $276 $277 $278 reversed $41 $-1 #
coedge $-1 -1 $-1 $171 $170 $99 $161 forward $172 $-1 #
edge $279 -1 $-1 $165 -0.75 $280 0 $160 $281 forward @7 unknown #
coedge $-1 -1 $-1 $100 $282 $271 $283 reversed $95 $-1 #
attrib_edge_convexity-kcp-attrib $-1 -1 $284 $-1 $101 1 #
vertex $-1 -1 $-1 $283 $285 #
vertex $-1 -1 $-1 $185 $286 #
straight-curve $287 -1 $-1 -1 -0.75 0.75 -1 0 0 I I #
coedge $-1 -1 $-1 $288 $102 $289 $290 forward $32 $-1 #
coedge $-1 -1 $-1 $291 $292 $102 $169 reversed $293 $-1 #
edge $294 -1 $-1 $174 -0.30428932188134605 $295 0 $168 $296 forward @7 unknown #
coedge $-1 -1 $-1 $160 $103 $109 $185 reversed $172 $-1 #
coedge $-1 -1 $-1 $103 $160 $291 $297 forward $172 $-1 #
loop $298 -1 $-1 $-1 $103 $299 #
attrib_edge_convexity-kcp-attrib $-1 -1 $300 $-1 $104 1 #
vertex $-1 -1 $-1 $297 $301 #
straight-curve $302 -1 $-1 -1 0 -0.75 0 1 0 I I #
coedge $-1 -1 $-1 $105 $303 $304 $305 forward $32 $-1 #
coedge $-1 -1 $-1 $306 $307 $105 $178 reversed $308 $-1 #
edge $309 -1 $-1 $310 -5.125 $182 0 $177 $311 forward @7 unknown #
coedge $-1 -1 $-1 $149 $106 $307 $312 reversed $92 $-1 #
coedge $-1 -1 $-1 $106 $313 $108 $184 forward $92 $-1 #
attrib_edge_convexity-kcp-attrib $-1 -1 $314 $-1 $107 1 #
vertex $-1 -1 $-1 $312 $315 #
straight-curve $316 -1 $-1 4.5 -0.75 -0.75 0 -1 0 I I #
edge $317 -1 $-1 $318 -0.46875 $111 0 $180 $319 forward @7 unknown #
edge $320 -1 $-1 $165 -1.5 $112 0 $170 $321 forward @7 unknown #
convexity-sys-attrib $-1 -1 $322 $110 $70 #
point $-1 -1 $-1 4.5 -0.75 -0.75 #
point $-1 -1 $-1 -1 -0.75 -0.75 #
cur-twe-attrib $-1 -1 $-1 $-1 $113 26 #
face $-1 -1 $-1 $323 $324 $24 $-1 $325 reversed single #
loop $-1 -1 $-1 $-1 $203 $114 #
plane-surface $-1 -1 $-1 0 0.5 0 0 -1 0 0 0 -1 forward_v I I I I #
coedge $-1 -1 $-1 $326 $199 $203 $327 reversed $115 $-1 #
coedge $-1 -1 $-1 $328 $117 $329 $330 reversed $72 $-1 #
coedge $-1 -1 $-1 $117 $328 $119 $201 reversed $72 $-1 #
coedge $-1 -1 $-1 $331 $332 $117 $197 forward $324 $-1 #
edge $-1 -1 $-1 $333 -1.375 $334 2.1875 $196 $335 forward @7 unknown #
coedge $-1 -1 $-1 $119 $118 $331 $336 reversed $47 $-1 #
coedge $-1 -1 $-1 $193 $337 $118 $200 forward $115 $-1 #
edge $-1 -1 $-1 $338 0 $204 1 $118 $339 forward @7 unknown #
edge $-1 -1 $-1 $334 0 $205 1 $195 $340 forward @7 unknown #
coedge $-1 -1 $-1 $341 $120 $328 $342 forward $191 $-1 #
coedge $-1 -1 $-1 $120 $341 $193 $327 forward $191 $-1 #
vertex $-1 -1 $-1 $121 $343 #
vertex $-1 -1 $-1 $342 $344 #
ellipse-curve $-1 -1 $-1 -0.8125 0.5 0 0 1 0 0 0 0.28125 1 I I #
model_id-kcp-attrib $-1 -1 $-1 $-1 $123 1 1021392288 1021392288 -532414462 8 #
face $345 -1 $-1 $346 $347 $25 $-1 $348 reversed single #
loop $-1 -1 $-1 $-1 $349 $123 #
plane-surface $-1 -1 $-1 -2.75 0 0 1 0 0 0 0 -1 forward_v I I I I #
coedge $-1 -1 $-1 $350 $219 $351 $352 forward $124 $-1 #
coedge $-1 -1 $-1 $353 $126 $350 $354 forward $77 $-1 #
coedge $-1 -1 $-1 $126 $353 $355 $356 forward $77 $-1 #
coedge $-1 -1 $-1 $222 $221 $126 $215 reversed $223 $-1 #
edge $-1 -1 $-1 $357 -0.5 $358 0.5 $214 $359 forward @7 unknown #
coedge $-1 -1 $-1 $128 $127 $360 $361 forward $51 $-1 #
coedge $-1 -1 $-1 $362 $363 $127 $218 reversed $347 $-1 #
edge $-1 -1 $-1 $225 -2.75 $364 2.75 $217 $365 forward @7 unknown #
coedge $-1 -1 $-1 $211 $366 $128 $220 reversed $124 $-1 #
edge $-1 -1 $-1 $367 -2.75 $224 2.75 $219 $368 forward @7 unknown #
coedge $-1 -1 $-1 $214 $129 $366 $369 forward $223 $-1 #
coedge $-1 -1 $-1 $129 $214 $362 $370 reversed $223 $-1 #
loop $-1 -1 $-1 $-1 $221 $346 #
vertex $-1 -1 $-1 $130 $371 #
vertex $-1 -1 $-1 $130 $372 #
straight-curve $-1 -1 $-1 2.75 0 0.75 0 1 0 I I #
face $-1 -1 $-1 $373 $374 $27 $-1 $375 reversed single #
loop $-1 -1 $-1 $-1 $376 $131 #
cone-surface $-1 -1 $-1 -1.5812499999999994 1.7612186665669216e-016 -6.2879184513951127 0 3.8285889215894375e-016 -1 0 -0.28125 -1.0767906341970293e-016 1 I I 0 -1 0.28125 forward I I I I #
coedge $-1 -1 $-1 $377 $378 $379 $380 forward $132 $-1 #
coedge $-1 -1 $-1 $381 $134 $382 $383 forward $81 $-1 #
coedge $-1 -1 $-1 $134 $381 $235 $384 reversed $81 $-1 #
coedge $-1 -1 $-1 $236 $385 $134 $234 reversed $386 $-1 #
edge $387 -1 $-1 $388 -0.99062500000000031 $389 2.5718749999999995 $233 $390 forward @7 unknown #
coedge $-1 -1 $-1 $136 $135 $232 $384 forward $54 $-1 #
coedge $-1 -1 $-1 $391 $233 $135 $237 reversed $386 $-1 #
edge $392 -1 $-1 $244 -0.40000000000000002 $388 -0.28125 $236 $393 forward @7 unknown #
coedge $-1 -1 $-1 $394 $395 $136 $239 forward $374 $-1 #
edge $-1 -1 $-1 $243 -0.39999999999999997 $396 -0.28124999999999994 $136 $397 forward @7 unknown #
coedge $-1 -1 $-1 $398 $137 $395 $399 reversed $242 $-1 #
coedge $-1 -1 $-1 $137 $398 $391 $400 reversed $242 $-1 #
loop $-1 -1 $-1 $-1 $137 $401 #
vertex $-1 -1 $-1 $138 $402 #
vertex $-1 -1 $-1 $400 $403 #
straight-curve $-1 -1 $-1 1.9812500000000006 -0.40000000000000002 -2.8939592256975564 0 0 -1 I I #
coedge $-1 -1 $-1 $246 $246 $142 $247 forward $139 $-1 #
edge $-1 -1 $-1 $404 0 $404 6.2831853071795862 $246 $405 forward @7 unknown #
vertex $-1 -1 $-1 $143 $406 #
ellipse-curve $-1 -1 $-1 0 0 -0.50000000000000011 0 0 -1 0.25 0 0 1 I I #
face_name-twe-attrib $-1 -1 $407 $145 $91 5 #
model_id-kcp-attrib $-1 -1 $408 $-1 $146 1 1021392288 1021392288 -532414463 7 #
face $409 -1 $-1 $410 $411 $9 $-1 $412 forward single #
loop $413 -1 $-1 $308 $414 $146 #
plane-surface $415 -1 $-1 4.5 0.25 -0.75 0 1 0 0 0 1 forward_v I I I I #
loop_type-twe-attrib $-1 -1 $-1 $-1 $147 0 #
coedge $-1 -1 $-1 $416 $417 $418 $419 forward $147 $-1 #
coedge $-1 -1 $-1 $313 $149 $420 $421 forward $92 $-1 #
coedge $-1 -1 $-1 $422 $423 $149 $259 forward $424 $-1 #
edge $425 -1 $-1 $426 -0.5 $427 0 $258 $428 forward @7 unknown #
surf-twe-attrib $-1 -1 $-1 $150 $93 17 #
coedge $-1 -1 $-1 $282 $153 $429 $430 reversed $95 $-1 #
coedge $-1 -1 $-1 $431 $432 $153 $263 forward $433 $-1 #
edge $434 -1 $-1 $435 -3.5625 $318 0 $262 $436 forward @7 unknown #
loop $437 -1 $-1 $-1 $154 $438 #
attrib_edge_convexity-kcp-attrib $-1 -1 $439 $-1 $155 1 #
vertex $440 -1 $-1 $155 $441 #
ellipse-curve $442 -1 $-1 0 -0.75 0 0 1 0 -0.25 0 0 1 I I #
coedge $-1 -1 $-1 $443 $156 $444 $445 reversed $41 $-1 #
coedge $-1 -1 $-1 $446 $306 $156 $270 forward $308 $-1 #
edge $447 -1 $-1 $448 -5.125 $274 0 $269 $449 forward @7 unknown #
coedge $-1 -1 $-1 $417 $157 $162 $283 forward $147 $-1 #
coedge $-1 -1 $-1 $157 $416 $446 $450 reversed $147 $-1 #
edge_name-twe-attrib $-1 -1 $-1 $-1 $158 5 8704 #
vertex $-1 -1 $-1 $450 $451 #
straight-curve $452 -1 $-1 4.5 -0.75 0.75 0 -1 0 I I #
coedge $-1 -1 $-1 $159 $453 $454 $455 reversed $41 $-1 #
coedge $-1 -1 $-1 $292 $291 $159 $278 forward $293 $-1 #
edge $456 -1 $-1 $280 -0.30428932188134605 $457 0 $277 $458 forward @7 unknown #
edge_name-twe-attrib $-1 -1 $-1 $-1 $161 28 8704 #
vertex $-1 -1 $-1 $297 $459 #
straight-curve $460 -1 $-1 -1 0 0.75 0 1 0 I I #
coedge $-1 -1 $-1 $162 $261 $461 $462 forward $95 $-1 #
edge $463 -1 $-1 $164 -0.46875 $464 0 $271 $465 forward @7 unknown #
convexity-sys-attrib $-1 -1 $466 $163 $101 #
point $-1 -1 $-1 4.5 -0.75 0.75 #
point $-1 -1 $-1 -1 -0.75 0.75 #
cur-twe-attrib $-1 -1 $-1 $-1 $166 38 #
coedge $-1 -1 $-1 $303 $167 $467 $468 forward $32 $-1 #
coedge $-1 -1 $-1 $469 $470 $167 $290 reversed $471 $-1 #
edge $472 -1 $-1 $295 -0.049999999999999871 $473 0 $289 $474 forward @7 unknown #
coedge $-1 -1 $-1 $277 $168 $171 $297 reversed $293 $-1 #
coedge $-1 -1 $-1 $168 $277 $469 $475 forward $293 $-1 #
loop $476 -1 $-1 $-1 $168 $477 #
model_id-kcp-attrib $-1 -1 $478 $-1 $169 1 1021392288 1021392288 -532414463 32 #
vertex $-1 -1 $-1 $475 $479 #
straight-curve $480 -1 $-1 -0.69571067811865395 0 -0.75 1 0 0 I I #
edge $481 -1 $-1 $280 -1.5 $174 0 $171 $482 forward @7 unknown #
loop_type-twe-attrib $-1 -1 $-1 $-1 $172 0 #
face $483 -1 $-1 $438 $172 $9 $-1 $484 forward single #
convexity-sys-attrib $-1 -1 $485 $173 $104 #
point $-1 -1 $-1 -1 0 -0.75 #
cur-twe-attrib $-1 -1 $-1 $-1 $175 41 #
coedge $-1 -1 $-1 $176 $288 $486 $487 forward $32 $-1 #
coedge $-1 -1 $-1 $488 $489 $176 $305 reversed $411 $-1 #
edge $490 -1 $-1 $491 -0.179289321881347 $310 0 $304 $492 forward @7 unknown #
coedge $-1 -1 $-1 $269 $177 $489 $493 reversed $308 $-1 #
coedge $-1 -1 $-1 $177 $494 $179 $312 forward $308 $-1 #
loop $495 -1 $-1 $-1 $496 $146 #
model_id-kcp-attrib $-1 -1 $497 $-1 $178 1 1021392288 1021392288 -532414463 35 #
vertex $-1 -1 $-1 $493 $498 #
straight-curve $499 -1 $-1 4.5 0.25 -0.75 1 0 0 I I #
edge $500 -1 $-1 $427 -0.34999999999999998 $182 0 $307 $501 forward @7 unknown #
coedge $-1 -1 $-1 $180 $257 $431 $502 forward $92 $-1 #
convexity-sys-attrib $-1 -1 $503 $181 $107 #
point $-1 -1 $-1 4.5 0.25 -0.75 #
cur-twe-attrib $-1 -1 $-1 $-1 $183 44 #
attrib_edge_convexity-kcp-attrib $-1 -1 $504 $-1 $184 1 #
vertex $-1 -1 $-1 $502 $505 #
straight-curve $506 -1 $-1 4.5 -0.75 -0.75 0 0 -1 I I #
attrib_edge_convexity-kcp-attrib $-1 -1 $507 $-1 $185 1 #
straight-curve $508 -1 $-1 -1 -0.75 -0.75 0 0 -1 I I #
edge_name-twe-attrib $-1 -1 $-1 $186 $70 2 8704 #
face $-1 -1 $-1 $-1 $509 $24 $-1 $510 reversed single #
loop $-1 -1 $-1 $-1 $511 $190 #
plane-surface $-1 -1 $-1 0 -0.5 0 0 1 0 0 0 1 forward_v I I I I #
coedge $-1 -1 $-1 $337 $193 $512 $513 reversed $115 $-1 #
edge $-1 -1 $-1 $514 -3.15625 $204 0.40625 $203 $515 forward @7 unknown #
coedge $-1 -1 $-1 $195 $194 $202 $342 reversed $72 $-1 #
coedge $-1 -1 $-1 $516 $517 $194 $330 forward $509 $-1 #
edge $-1 -1 $-1 $518 -0.75 $333 0.25 $329 $519 forward @7 unknown #
coedge $-1 -1 $-1 $511 $196 $198 $336 forward $324 $-1 #
coedge $-1 -1 $-1 $196 $511 $516 $520 reversed $324 $-1 #
vertex $-1 -1 $-1 $520 $521 #
vertex $-1 -1 $-1 $197 $522 #
straight-curve $-1 -1 $-1 1.375 -0.5 0.28125 -1 0 0 I I #
edge $-1 -1 $-1 $334 0 $338 3.1415926535897931 $331 $523 forward @7 unknown #
coedge $-1 -1 $-1 $199 $326 $511 $524 reversed $115 $-1 #
vertex $-1 -1 $-1 $336 $525 #
straight-curve $-1 -1 $-1 -0.8125 -0.5 -0.28125 0 1 0 I I #
straight-curve $-1 -1 $-1 -0.8125 -0.5 0.28125 0 1 0 I I #
coedge $-1 -1 $-1 $203 $202 $517 $526 forward $191 $-1 #
edge $-1 -1 $-1 $205 -2.1875 $518 1.375 $202 $527 forward @7 unknown #
point $-1 -1 $-1 -0.8125 0.5 -0.28125 #
point $-1 -1 $-1 -0.8125 0.5 0.28125 #
model_id-kcp-attrib $-1 -1 $-1 $-1 $208 1 1021392288 1021392288 -532414462 7 #
face $528 -1 $-1 $-1 $223 $25 $-1 $529 reversed single #
loop $-1 -1 $-1 $-1 $362 $208 #
plane-surface $-1 -1 $-1 0 0.5 0 0 -1 0 0 0 -1 forward_v I I I I #
coedge $-1 -1 $-1 $530 $360 $363 $531 forward $209 $-1 #
coedge $-1 -1 $-1 $366 $211 $212 $354 reversed $124 $-1 #
coedge $-1 -1 $-1 $360 $530 $211 $352 reversed $209 $-1 #
edge $-1 -1 $-1 $367 -0.75 $532 0.75 $351 $533 forward @7 unknown #
coedge $-1 -1 $-1 $213 $212 $530 $534 forward $77 $-1 #
edge $-1 -1 $-1 $358 -2.75 $532 2.75 $350 $535 forward @7 unknown #
coedge $-1 -1 $-1 $363 $362 $213 $356 reversed $347 $-1 #
edge $-1 -1 $-1 $536 -2.75 $357 2.75 $355 $537 forward @7 unknown #
vertex $-1 -1 $-1 $215 $538 #
vertex $-1 -1 $-1 $369 $539 #
straight-curve $-1 -1 $-1 2.75 0 -0.75 0 -1 0 I I #
coedge $-1 -1 $-1 $349 $351 $216 $361 reversed $209 $-1 #
edge $-1 -1 $-1 $364 -0.5 $367 0.5 $360 $540 forward @7 unknown #
coedge $-1 -1 $-1 $355 $217 $222 $370 forward $347 $-1 #
coedge $-1 -1 $-1 $217 $355 $349 $531 reversed $347 $-1 #
vertex $-1 -1 $-1 $218 $541 #
straight-curve $-1 -1 $-1 0 0.5 0.75 -1 0 0 I I #
coedge $-1 -1 $-1 $219 $350 $221 $369 reversed $124 $-1 #
vertex $-1 -1 $-1 $361 $542 #
straight-curve $-1 -1 $-1 0 -0.5 0.75 1 0 0 I I #
edge $-1 -1 $-1 $224 -0.75 $358 0.75 $221 $543 forward @7 unknown #
edge $-1 -1 $-1 $225 -0.75 $357 0.75 $222 $544 forward @7 unknown #
point $-1 -1 $-1 2.75 -0.5 0.75 #
point $-1 -1 $-1 2.75 0.5 0.75 #
face $-1 -1 $-1 $545 $546 $27 $-1 $55 reversed single #
loop $-1 -1 $-1 $-1 $395 $227 #
plane-surface $-1 -1 $-1 -0.76874999999999938 -2.0673702550225159e-016 -5.2879184513951127 0 3.8285889215894375e-016 -1 0 1 3.8285889215894375e-016 forward_v I I I I #
coedge $-1 -1 $-1 $547 $382 $385 $548 forward $228 $-1 #
coedge $-1 -1 $-1 $549 $230 $550 $551 reversed $132 $-1 #
coedge $-1 -1 $-1 $230 $549 $547 $552 reversed $132 $-1 #
coedge $-1 -1 $-1 $385 $553 $230 $380 reversed $386 $-1 #
edge $554 -1 $-1 $555 -0.79062499999999969 $556 2.7718750000000005 $379 $557 forward @7 unknown #
coedge $-1 -1 $-1 $232 $231 $394 $558 reversed $81 $-1 #
coedge $-1 -1 $-1 $376 $559 $231 $383 reversed $228 $-1 #
edge $-1 -1 $-1 $389 0.5 $560 1 $231 $561 forward @7 unknown #
edge $-1 -1 $-1 $388 0.25 $396 0.75 $235 $562 forward @7 unknown #
coedge $-1 -1 $-1 $233 $379 $376 $548 reversed $386 $-1 #
loop $-1 -1 $-1 $-1 $236 $563 #
convexity-sys-attrib $-1 -1 $-1 $-1 $234 #
vertex $-1 -1 $-1 $237 $564 #
vertex $-1 -1 $-1 $234 $565 #
straight-curve $-1 -1 $-1 0.99062500000000031 -0.28125 -5.7879184513951127 -1 0 0 I I #
coedge $-1 -1 $-1 $566 $236 $241 $400 forward $386 $-1 #
convexity-sys-attrib $-1 -1 $-1 $-1 $237 #
straight-curve $-1 -1 $-1 1.9812500000000006 -7.6537897113898579e-018 -5.7879184513951127 0 1 0 I I #
coedge $-1 -1 $-1 $567 $238 $381 $558 forward $374 $-1 #
coedge $-1 -1 $-1 $238 $568 $240 $399 forward $374 $-1 #
vertex $-1 -1 $-1 $558 $569 #
straight-curve $-1 -1 $-1 1.9812500000000006 -2.0673702550225159e-016 -5.2879184513951127 0 1 3.8285889215894375e-016 I I #
coedge $-1 -1 $-1 $241 $240 $570 $571 reversed $242 $-1 #
edge $-1 -1 $-1 $572 -1.1968749999999997 $243 2.3656250000000005 $240 $573 forward @7 unknown #
edge $574 -1 $-1 $244 -1.9812500000000006 $575 1.5812499999999994 $241 $576 forward @7 unknown #
face $-1 -1 $-1 $577 $242 $27 $-1 $578 reversed single #
point $-1 -1 $-1 1.9812500000000006 -0.40000000000000019 -5.2879184513951127 #
point $-1 -1 $-1 1.9812500000000006 -0.40000000000000002 -5.7879184513951127 #
vertex $-1 -1 $-1 $247 $579 #
ellipse-curve $-1 -1 $-1 0 0 0.50000000000000011 0 0 1 0.25 0 0 1 I I #
point $-1 -1 $-1 0.25 0 -0.50000000000000011 #
colour-tsl-attrib $-1 -1 $580 $250 $91 1 #
face_name-twe-attrib $-1 -1 $-1 $251 $146 6 #
model_id-kcp-attrib $-1 -1 $581 $-1 $252 1 1021392288 1021392288 -532414463 8 #
face $582 -1 $-1 $583 $584 $9 $-1 $585 forward single #
loop $586 -1 $-1 $-1 $304 $252 #
plane-surface $587 -1 $-1 -0.625 0.25 -0.75 -1 0 0 0 0 1 forward_v I I I I #
model_id-kcp-attrib $-1 -1 $588 $-1 $253 1 1021392288 1021392288 -532414463 39 #
coedge $-1 -1 $-1 $414 $414 $589 $590 reversed $253 $-1 #
surf-twe-attrib $-1 -1 $-1 $-1 $254 52 #
coedge $-1 -1 $-1 $272 $256 $591 $592 forward $147 $-1 #
coedge $-1 -1 $-1 $256 $271 $593 $594 reversed $147 $-1 #
coedge $-1 -1 $-1 $595 $596 $256 $419 reversed $597 $-1 #
edge $598 -1 $-1 $599 -0.11875000000000002 $600 0 $418 $601 forward @7 unknown #
coedge $-1 -1 $-1 $602 $603 $257 $421 reversed $597 $-1 #
edge $604 -1 $-1 $426 -0.11875000000000002 $605 0 $420 $606 forward @7 unknown #
coedge $-1 -1 $-1 $607 $258 $494 $608 reversed $424 $-1 #
coedge $-1 -1 $-1 $258 $607 $602 $609 forward $424 $-1 #
loop $610 -1 $-1 $-1 $422 $611 #
attrib_edge_convexity-kcp-attrib $-1 -1 $612 $-1 $259 1 #
vertex $-1 -1 $-1 $609 $613 #
vertex $-1 -1 $-1 $608 $614 #
straight-curve $615 -1 $-1 4.5 0.25 -0.40000000000000002 0 1 0 I I #
coedge $-1 -1 $-1 $616 $617 $261 $430 forward $618 $-1 #
edge $619 -1 $-1 $620 -3.1415926535897931 $435 0 $429 $621 forward @7 unknown #
coedge $-1 -1 $-1 $622 $262 $313 $502 reversed $433 $-1 #
coedge $-1 -1 $-1 $262 $622 $616 $623 forward $433 $-1 #
loop $624 -1 $-1 $-1 $622 $625 #
attrib_edge_convexity-kcp-attrib $-1 -1 $626 $-1 $263 1 #
vertex $-1 -1 $-1 $623 $627 #
straight-curve $628 -1 $-1 4.5 -0.75 -0.28125 1 0 0 I I #
model_id-kcp-attrib $-1 -1 $629 $-1 $264 1 1021392288 1021392288 -532414463 38 #
face $630 -1 $-1 $625 $631 $9 $-1 $632 reversed single #
convexity-sys-attrib $-1 -1 $633 $265 $155 #
model_id-kcp-attrib $-1 -1 $-1 $-1 $266 1 1021392288 1021392288 -532414463 42 #
point $-1 -1 $-1 0.25 -0.75 0 #
cur-twe-attrib $-1 -1 $-1 $-1 $267 60 #
coedge $-1 -1 $-1 $453 $268 $634 $635 reversed $41 $-1 #
coedge $-1 -1 $-1 $489 $488 $268 $445 forward $411 $-1 #
edge $636 -1 $-1 $637 -0.179289321881347 $448 0 $444 $638 forward @7 unknown #
coedge $-1 -1 $-1 $639 $269 $272 $450 forward $308 $-1 #
model_id-kcp-attrib $-1 -1 $640 $-1 $270 1 1021392288 1021392288 -532414463 27 #
vertex $-1 -1 $-1 $493 $641 #
straight-curve $642 -1 $-1 4.5 0.25 0.75 1 0 0 I I #
edge $643 -1 $-1 $274 -0.34999999999999998 $644 0 $446 $645 forward @7 unknown #
point $-1 -1 $-1 4.5 0.25 0.75 #
cur-twe-attrib $-1 -1 $-1 $-1 $275 63 #
coedge $-1 -1 $-1 $276 $443 $646 $647 reversed $41 $-1 #
coedge $-1 -1 $-1 $470 $469 $276 $455 forward $471 $-1 #
edge $648 -1 $-1 $457 -0.050000000000000155 $649 0 $454 $650 forward @7 unknown #
model_id-kcp-attrib $-1 -1 $651 $-1 $278 1 1021392288 1021392288 -532414463 30 #
vertex $-1 -1 $-1 $475 $652 #
straight-curve $653 -1 $-1 -0.69571067811865395 0 0.75 1 0 0 I I #
point $-1 -1 $-1 -1 0 0.75 #
cur-twe-attrib $-1 -1 $-1 $-1 $281 66 #
coedge $-1 -1 $-1 $654 $593 $282 $462 reversed $655 $-1 #
edge $656 -1 $-1 $620 -3.5625 $464 0 $461 $657 forward @7 unknown #
attrib_edge_convexity-kcp-attrib $-1 -1 $658 $-1 $283 1 #
vertex $-1 -1 $-1 $283 $659 #
straight-curve $660 -1 $-1 4.5 -0.75 0.28125 0 0 -1 I I #
edge_name-twe-attrib $-1 -1 $-1 $284 $101 1 8704 #
coedge $-1 -1 $-1 $661 $662 $288 $468 reversed $663 $-1 #
edge $664 -1 $-1 $473 -3.14159265358979 $665 8.9338259012805218e-015 $467 $666 forward @7 unknown #
coedge $-1 -1 $-1 $454 $289 $292 $475 reversed $471 $-1 #
coedge $-1 -1 $-1 $289 $454 $661 $667 forward $471 $-1 #
loop $668 -1 $-1 $-1 $289 $669 #
model_id-kcp-attrib $-1 -1 $670 $-1 $290 1 1021392288 1021392288 -532414463 33 #
vertex $-1 -1 $-1 $667 $671 #
straight-curve $672 -1 $-1 -0.66035533905932697 -0.035355339059327598 -0.75 0.70710678118653902 -0.70710678118655601 0 I I #
edge $673 -1 $-1 $457 -1.5 $295 0 $292 $674 forward @7 unknown #
loop_type-twe-attrib $-1 -1 $-1 $-1 $293 0 #
face $675 -1 $-1 $299 $293 $9 $-1 $676 forward single #
attrib_edge_convexity-kcp-attrib $-1 -1 $677 $294 $169 1 #
point $-1 -1 $-1 -0.69571067811865395 0 -0.75 #
cur-twe-attrib $-1 -1 $-1 $-1 $296 74 #
model_id-kcp-attrib $-1 -1 $678 $-1 $297 1 1021392288 1021392288 -532414463 31 #
straight-curve $679 -1 $-1 -1 0 -0.75 0 0 -1 I I #
model_id-kcp-attrib $-1 -1 $680 $-1 $299 1 1021392288 1021392288 -532414463 13 #
plane-surface $681 -1 $-1 -1 0 -0.75 -1 0 0 0 0 1 forward_v I I I I #
edge_name-twe-attrib $-1 -1 $-1 $300 $104 26 8704 #
coedge $-1 -1 $-1 $682 $683 $303 $487 reversed $584 $-1 #
edge $684 -1 $-1 $665 -0.049999999999998032 $491 0 $486 $685 forward @7 unknown #
coedge $-1 -1 $-1 $444 $304 $683 $686 reversed $411 $-1 #
coedge $-1 -1 $-1 $304 $444 $306 $493 forward $411 $-1 #
attrib_edge_convexity-kcp-attrib $-1 -1 $687 $-1 $305 1 #
vertex $-1 -1 $-1 $686 $688 #
straight-curve $689 -1 $-1 -0.625 0.25 -0.75 0 1 0 I I #
edge $690 -1 $-1 $448 -1.5 $310 0 $489 $691 forward @7 unknown #
coedge $-1 -1 $-1 $307 $496 $422 $608 forward $308 $-1 #
loop_type-twe-attrib $-1 -1 $-1 $-1 $308 0 #
coedge $-1 -1 $-1 $494 $639 $692 $693 forward $308 $-1 #
attrib_edge_convexity-kcp-attrib $-1 -1 $694 $309 $178 1 #
point $-1 -1 $-1 -0.625 0.25 -0.75 #
cur-twe-attrib $-1 -1 $-1 $-1 $311 83 #
model_id-kcp-attrib $-1 -1 $695 $-1 $312 1 1021392288 1021392288 -532414463 23 #
straight-curve $696 -1 $-1 4.5 0.25 -0.75 0 0 -1 I I #
edge $697 -1 $-1 $605 -0.5 $318 0 $431 $698 forward @7 unknown #
edge_name-twe-attrib $-1 -1 $-1 $314 $107 4 8704 #
convexity-sys-attrib $-1 -1 $699 $317 $184 #
point $-1 -1 $-1 4.5 -0.75 -0.28125 #
cur-twe-attrib $-1 -1 $700 $-1 $319 127 #
convexity-sys-attrib $-1 -1 $701 $320 $185 #
cur-twe-attrib $-1 -1 $-1 $-1 $321 90 #
loop $-1 -1 $-1 $-1 $512 $323 #
plane-surface $-1 -1 $-1 2.75 0 0 -1 0 0 0 0 1 forward_v I I I I #
coedge $-1 -1 $-1 $332 $331 $337 $524 forward $324 $-1 #
coedge $-1 -1 $-1 $517 $516 $326 $513 forward $509 $-1 #
edge $-1 -1 $-1 $702 -0.25 $514 0.75 $512 $703 forward @7 unknown #
vertex $-1 -1 $-1 $513 $704 #
straight-curve $-1 -1 $-1 -0.40625 0.5 -0.28125 -1 0 0 I I #
coedge $-1 -1 $-1 $512 $329 $332 $520 forward $509 $-1 #
coedge $-1 -1 $-1 $329 $512 $341 $526 reversed $509 $-1 #
vertex $-1 -1 $-1 $526 $705 #
straight-curve $-1 -1 $-1 2.75 -0.25 0.28125 0 -1 0 I I #
edge $-1 -1 $-1 $333 -0.28125 $702 0.28125 $516 $706 forward @7 unknown #
point $-1 -1 $-1 2.75 -0.5 0.28125 #
point $-1 -1 $-1 -0.8125 -0.5 0.28125 #
ellipse-curve $-1 -1 $-1 -0.8125 -0.5 0 0 -1 0 0 0 0.28125 1 I I #
edge $-1 -1 $-1 $338 -0.40625 $702 3.15625 $511 $707 forward @7 unknown #
point $-1 -1 $-1 -0.8125 -0.5 -0.28125 #
edge $-1 -1 $-1 $518 -0.28125 $514 0.28125 $517 $708 forward @7 unknown #
straight-curve $-1 -1 $-1 1.375 0.5 0.28125 1 0 0 I I #
model_id-kcp-attrib $-1 -1 $-1 $-1 $346 1 1021392288 1021392288 -532414462 5 #
plane-surface $-1 -1 $-1 2.75 0 0 -1 0 0 0 0 1 forward_v I I I I #
coedge $-1 -1 $-1 $351 $349 $353 $534 reversed $209 $-1 #
edge $-1 -1 $-1 $364 -0.75 $536 0.75 $363 $709 forward @7 unknown #
vertex $-1 -1 $-1 $534 $710 #
straight-curve $-1 -1 $-1 -2.75 -0.5 0 0 0 -1 I I #
edge $-1 -1 $-1 $532 -0.5 $536 0.5 $530 $711 forward @7 unknown #
straight-curve $-1 -1 $-1 0 -0.5 -0.75 -1 0 0 I I #
vertex $-1 -1 $-1 $356 $712 #
straight-curve $-1 -1 $-1 0 0.5 -0.75 1 0 0 I I #
point $-1 -1 $-1 2.75 0.5 -0.75 #
point $-1 -1 $-1 2.75 -0.5 -0.75 #
straight-curve $-1 -1 $-1 -2.75 0 0.75 0 -1 0 I I #
point $-1 -1 $-1 -2.75 0.5 0.75 #
point $-1 -1 $-1 -2.75 -0.5 0.75 #
straight-curve $-1 -1 $-1 2.75 -0.5 0 0 0 -1 I I #
straight-curve $-1 -1 $-1 2.75 0.5 0 0 0 -1 I I #
face $713 -1 $-1 $401 $714 $27 $-1 $715 forward single #
loop $-1 -1 $-1 $-1 $716 $373 #
coedge $-1 -1 $-1 $559 $376 $378 $552 forward $228 $-1 #
edge $717 -1 $-1 $389 0 $555 3.1415926535897931 $385 $718 forward @7 unknown #
coedge $-1 -1 $-1 $378 $377 $719 $720 reversed $132 $-1 #
coedge $-1 -1 $-1 $721 $722 $377 $551 forward $546 $-1 #
edge $-1 -1 $-1 $723 -0.75 $556 -0.25 $550 $724 forward @7 unknown #
edge $-1 -1 $-1 $555 0.5 $725 1 $547 $726 forward @7 unknown #
coedge $-1 -1 $-1 $379 $727 $721 $728 reversed $386 $-1 #
convexity-sys-attrib $-1 -1 $-1 $-1 $380 #
vertex $-1 -1 $-1 $380 $729 #
vertex $-1 -1 $-1 $380 $730 #
straight-curve $-1 -1 $-1 -0.79062499999999969 0.28125 -5.7879184513951127 1 0 0 I I #
edge $-1 -1 $-1 $396 -1.375 $560 2.1875 $394 $731 forward @7 unknown #
coedge $-1 -1 $-1 $382 $547 $567 $732 reversed $228 $-1 #
vertex $-1 -1 $-1 $732 $733 #
straight-curve $-1 -1 $-1 -1.5812499999999994 -0.28124999999999983 -6.2879184513951127 0 -3.8285889215894375e-016 1 I I #
straight-curve $-1 -1 $-1 1.9812500000000006 -0.28124999999999989 -6.0379184513951127 0 -3.8285889215894375e-016 1 I I #
face $-1 -1 $-1 $-1 $386 $27 $-1 $734 reversed single #
point $-1 -1 $-1 1.9812500000000006 -0.28125 -5.7879184513951127 #
point $-1 -1 $-1 -1.5812499999999994 -0.28125 -5.7879184513951127 #
coedge $-1 -1 $-1 $727 $391 $735 $736 reversed $386 $-1 #
coedge $-1 -1 $-1 $719 $394 $559 $732 forward $374 $-1 #
coedge $-1 -1 $-1 $395 $737 $738 $739 forward $374 $-1 #
point $-1 -1 $-1 1.9812500000000006 -0.28125000000000017 -5.2879184513951127 #
coedge $-1 -1 $-1 $738 $735 $398 $571 forward $714 $-1 #
edge $740 -1 $-1 $575 0 $572 0.5 $398 $741 forward @7 unknown #
vertex $-1 -1 $-1 $399 $742 #
straight-curve $-1 -1 $-1 -0.38437499999999969 -0.40000000000000002 -5.2879184513951127 1 0 0 I I #
convexity-sys-attrib $-1 -1 $-1 $-1 $400 #
vertex $-1 -1 $-1 $736 $743 #
straight-curve $-1 -1 $-1 0 -0.40000000000000002 -5.7879184513951127 -1 0 0 I I #
face $-1 -1 $-1 $563 $744 $27 $-1 $745 reversed single #
plane-surface $-1 -1 $-1 0 -0.40000000000000002 0 0 1 0 0 0 1 forward_v I I I I #
point $-1 -1 $-1 0.25 0 0.50000000000000011 #
colour-tsl-attrib $-1 -1 $-1 $407 $91 1 #
face_name-twe-attrib $-1 -1 $-1 $409 $252 7 #
model_id-kcp-attrib $-1 -1 $746 $-1 $410 1 1021392288 1021392288 -532414463 9 #
face $747 -1 $-1 $669 $663 $9 $-1 $748 reversed single #
loop $749 -1 $-1 $-1 $486 $410 #
plane-surface $750 -1 $-1 -0.625 0.070710678118653003 -0.75 -0.70710678118653503 -0.70710678118656001 0 0 0 1 forward_v I I I I #
loop_type-twe-attrib $-1 -1 $-1 $-1 $411 0 #
surf-twe-attrib $-1 -1 $-1 $-1 $412 96 #
loop_type-twe-attrib $-1 -1 $-1 $413 $253 1 #
coedge $-1 -1 $-1 $589 $589 $414 $590 forward $631 $-1 #
edge $751 -1 $-1 $752 0 $752 6.2831853071795862 $589 $753 forward @7 unknown #
coedge $-1 -1 $-1 $754 $755 $416 $592 reversed $756 $-1 #
edge $757 -1 $-1 $600 -0.5 $644 0 $591 $758 forward @7 unknown #
coedge $-1 -1 $-1 $461 $759 $417 $594 forward $655 $-1 #
edge $760 -1 $-1 $599 -0.5 $464 0 $593 $761 forward @7 unknown #
coedge $-1 -1 $-1 $762 $418 $759 $763 forward $597 $-1 #
coedge $-1 -1 $-1 $418 $764 $754 $765 reversed $597 $-1 #
loop $766 -1 $-1 $-1 $418 $767 #
attrib_edge_convexity-kcp-attrib $-1 -1 $768 $-1 $419 1 #
vertex $-1 -1 $-1 $763 $769 #
vertex $-1 -1 $-1 $765 $770 #
straight-curve $771 -1 $-1 4.5 -0.25 0.40000000000000002 0 0 1 I I #
coedge $-1 -1 $-1 $764 $420 $423 $609 reversed $597 $-1 #
coedge $-1 -1 $-1 $420 $762 $622 $772 forward $597 $-1 #
model_id-kcp-attrib $-1 -1 $773 $-1 $421 1 1021392288 1021392288 -532414463 24 #
vertex $-1 -1 $-1 $772 $774 #
straight-curve $775 -1 $-1 4.5 -0.25 -0.28125 0 0 1 I I #
coedge $-1 -1 $-1 $423 $422 $776 $777 forward $424 $-1 #
edge $778 -1 $-1 $779 -3.5625 $427 0 $422 $780 forward @7 unknown #
edge $781 -1 $-1 $782 -3.5625 $426 0 $423 $783 forward @7 unknown #
loop_type-twe-attrib $-1 -1 $-1 $-1 $424 0 #
face $784 -1 $-1 $-1 $424 $9 $-1 $785 reversed single #
convexity-sys-attrib $-1 -1 $786 $425 $259 #
point $-1 -1 $-1 4.5 -0.25 -0.40000000000000002 #
point $-1 -1 $-1 4.5 0.25 -0.40000000000000002 #
cur-twe-attrib $-1 -1 $-1 $-1 $428 103 #
coedge $-1 -1 $-1 $787 $429 $432 $623 reversed $618 $-1 #
coedge $-1 -1 $-1 $429 $787 $654 $788 forward $618 $-1 #
loop $789 -1 $-1 $-1 $787 $790 #
attrib_edge_convexity-kcp-attrib $-1 -1 $791 $-1 $430 1 #
vertex $-1 -1 $-1 $788 $792 #
ellipse-curve $793 -1 $-1 0.9375 -0.75 0 0 -1 0 0 0 -0.28125 1 I I #
coedge $-1 -1 $-1 $432 $431 $603 $772 reversed $433 $-1 #
edge $794 -1 $-1 $795 -0.5 $435 0 $616 $796 forward @7 unknown #
loop_type-twe-attrib $-1 -1 $-1 $-1 $433 0 #
face $797 -1 $-1 $790 $433 $9 $-1 $798 reversed single #
convexity-sys-attrib $-1 -1 $799 $434 $263 #
point $-1 -1 $-1 0.9375 -0.75 -0.28125 #
cur-twe-attrib $-1 -1 $-1 $-1 $436 107 #
loop_type-twe-attrib $-1 -1 $-1 $437 $264 1 #
model_id-kcp-attrib $-1 -1 $800 $-1 $438 1 1021392288 1021392288 -532414463 14 #
loop $801 -1 $-1 $264 $589 $438 #
cone-surface $802 -1 $-1 0 0.25 0 0 -1 0 0.25 0 0 1 I I 0 1 0.25 forward I I I I #
edge_name-twe-attrib $-1 -1 $-1 $439 $155 31 8704 #
coedge $-1 -1 $-1 $683 $682 $443 $635 forward $584 $-1 #
edge $803 -1 $-1 $804 -0.049999999999998324 $637 0 $634 $805 forward @7 unknown #
edge_name-twe-attrib $-1 -1 $-1 $-1 $445 12 8704 #
vertex $-1 -1 $-1 $686 $806 #
straight-curve $807 -1 $-1 -0.625 0.25 0.75 0 1 0 I I #
coedge $-1 -1 $-1 $496 $446 $755 $808 reversed $308 $-1 #
edge_name-twe-attrib $-1 -1 $-1 $447 $270 9 8704 #
point $-1 -1 $-1 -0.625 0.25 0.75 #
cur-twe-attrib $-1 -1 $-1 $-1 $449 114 #
model_id-kcp-attrib $-1 -1 $809 $-1 $450 1 1021392288 1021392288 -532414463 26 #
vertex $-1 -1 $-1 $450 $810 #
straight-curve $811 -1 $-1 4.5 0.25 0.40000000000000002 0 0 -1 I I #
coedge $-1 -1 $-1 $662 $661 $453 $647 forward $663 $-1 #
edge $812 -1 $-1 $649 -3.1415926535897842 $804 3.2959746043559398e-015 $646 $813 forward @7 unknown #
model_id-kcp-attrib $-1 -1 $814 $-1 $455 1 1021392288 1021392288 -532414463 29 #
vertex $-1 -1 $-1 $667 $815 #
straight-curve $816 -1 $-1 -0.66035533905932697 -0.035355339059328 0.75 0.70710678118653703 -0.70710678118655801 0 I I #
edge_name-twe-attrib $-1 -1 $-1 $456 $278 24 8704 #
point $-1 -1 $-1 -0.69571067811865395 0 0.75 #
cur-twe-attrib $-1 -1 $-1 $-1 $458 122 #
coedge $-1 -1 $-1 $759 $461 $617 $788 reversed $655 $-1 #
loop $817 -1 $-1 $-1 $759 $818 #
attrib_edge_convexity-kcp-attrib $-1 -1 $819 $-1 $462 1 #
straight-curve $820 -1 $-1 4.5 -0.75 0.28125 1 0 0 I I #
convexity-sys-attrib $-1 -1 $821 $463 $283 #
point $-1 -1 $-1 4.5 -0.75 0.28125 #
cur-twe-attrib $-1 -1 $822 $-1 $465 127 #
coedge $-1 -1 $-1 $646 $467 $470 $667 reversed $663 $-1 #
coedge $-1 -1 $-1 $467 $646 $682 $823 forward $663 $-1 #
loop $824 -1 $-1 $-1 $467 $583 #
model_id-kcp-attrib $-1 -1 $825 $-1 $468 1 1021392288 1021392288 -532414463 34 #
vertex $-1 -1 $-1 $823 $826 #
ellipse-curve $827 -1 $-1 -0.625 0 -0.75 0 0 1 0.035355339059327202 0.035355339059327598 0 1 I I #
edge $828 -1 $-1 $649 -1.5 $473 0 $470 $829 forward @7 unknown #
loop_type-twe-attrib $-1 -1 $-1 $-1 $471 0 #
face $830 -1 $-1 $477 $471 $9 $-1 $831 forward single #
attrib_edge_convexity-kcp-attrib $-1 -1 $832 $472 $290 1 #
point $-1 -1 $-1 -0.66035533905932697 -0.035355339059327598 -0.75 #
cur-twe-attrib $-1 -1 $-1 $-1 $474 133 #
edge_name-twe-attrib $-1 -1 $-1 $-1 $475 25 8448 #
straight-curve $833 -1 $-1 -0.69571067811865395 0 -0.75 0 0 -1 I I #
model_id-kcp-attrib $-1 -1 $834 $-1 $477 1 1021392288 1021392288 -532414463 12 #
plane-surface $835 -1 $-1 -0.69571067811865395 0 -0.75 0 1 0 0 0 1 forward_v I I I I #
convexity-sys-attrib $-1 -1 $836 $478 $169 #
edge_name-twe-attrib $-1 -1 $-1 $481 $297 29 8704 #
cur-twe-attrib $-1 -1 $-1 $-1 $482 140 #
face_name-twe-attrib $-1 -1 $-1 $483 $299 12 #
surf-twe-attrib $-1 -1 $-1 $-1 $484 142 #
coedge $-1 -1 $-1 $634 $486 $662 $823 reversed $584 $-1 #
coedge $-1 -1 $-1 $486 $634 $488 $686 forward $584 $-1 #
attrib_edge_convexity-kcp-attrib $-1 -1 $837 $-1 $487 1 #
straight-curve $838 -1 $-1 -0.625 0.070710678118653003 -0.75 -0.707106781186567 0.70710678118652803 0 I I #
edge $839 -1 $-1 $637 -1.5 $491 0 $683 $840 forward @7 unknown #
convexity-sys-attrib $-1 -1 $841 $490 $305 #
point $-1 -1 $-1 -0.625 0.070710678118653003 -0.75 #
cur-twe-attrib $-1 -1 $-1 $-1 $492 147 #
edge_name-twe-attrib $-1 -1 $-1 $-1 $493 13 8704 #
straight-curve $842 -1 $-1 -0.625 0.25 -0.75 0 0 -1 I I #
coedge $-1 -1 $-1 $843 $776 $496 $693 reversed $844 $-1 #
edge $845 -1 $-1 $846 -3.1415926535897931 $779 0 $692 $847 forward @7 unknown #
convexity-sys-attrib $-1 -1 $848 $497 $178 #
attrib_edge_convexity-kcp-attrib $-1 -1 $849 $500 $312 1 #
cur-twe-attrib $-1 -1 $850 $-1 $501 203 #
attrib_edge_convexity-kcp-attrib $-1 -1 $851 $-1 $502 1 #
straight-curve $852 -1 $-1 4.5 -0.75 -0.28125 0 -1 0 I I #
edge_name-twe-attrib $-1 -1 $-1 $504 $184 3 8704 #
cur-twe-attrib $-1 -1 $-1 $506 $319 89 #
edge_name-twe-attrib $-1 -1 $-1 $507 $185 27 8704 #
vertex $-1 -1 $-1 $524 $853 #
straight-curve $-1 -1 $-1 2.75 -0.25 -0.28125 0 1 0 I I #
point $-1 -1 $-1 2.75 0.5 -0.28125 #
point $-1 -1 $-1 2.75 0.5 0.28125 #
straight-curve $-1 -1 $-1 2.75 -0.5 0 0 0 -1 I I #
straight-curve $-1 -1 $-1 -0.40625 -0.5 -0.28125 1 0 0 I I #
straight-curve $-1 -1 $-1 2.75 0.5 0 0 0 -1 I I #
straight-curve $-1 -1 $-1 -2.75 0.5 0 0 0 -1 I I #
point $-1 -1 $-1 -2.75 -0.5 -0.75 #
straight-curve $-1 -1 $-1 -2.75 0 -0.75 0 1 0 I I #
point $-1 -1 $-1 -2.75 0.5 -0.75 #
face_name-twe-attrib $-1 -1 $-1 $-1 $545 18 #
loop $854 -1 $-1 $-1 $738 $545 #
cone-surface $855 -1 $-1 -1.5812499999999994 -1.5307579422779716e-017 -5.7879184513951127 0 -3.8285889215894375e-016 1 0.40000000000000002 0 0 1 I I 0 1 0.40000000000000002 forward I I I I #
coedge $-1 -1 $-1 $722 $721 $856 $857 forward $546 $-1 #
convexity-sys-attrib $-1 -1 $-1 $-1 $548 #
ellipse-curve $-1 -1 $-1 -1.5812499999999994 -1.5307579422779716e-017 -5.7879184513951127 0 0 -1 0 -0.28125 -1.0767906341970293e-016 1 I I #
coedge $-1 -1 $-1 $858 $567 $549 $720 forward $374 $-1 #
edge $-1 -1 $-1 $725 -0.40625 $723 3.15625 $719 $859 forward @7 unknown #
coedge $-1 -1 $-1 $716 $550 $553 $728 forward $546 $-1 #
coedge $-1 -1 $-1 $550 $716 $858 $860 reversed $546 $-1 #
vertex $-1 -1 $-1 $860 $861 #
straight-curve $-1 -1 $-1 1.9812500000000006 0.28125000000000011 -6.0379184513951127 0 3.8285889215894375e-016 -1 I I #
vertex $-1 -1 $-1 $732 $862 #
straight-curve $-1 -1 $-1 -1.5812499999999994 0.28125000000000017 -6.2879184513951127 0 -3.8285889215894375e-016 1 I I #
coedge $-1 -1 $-1 $553 $566 $863 $864 forward $386 $-1 #
edge $865 -1 $-1 $556 0.28125 $866 0.40000000000000002 $553 $867 forward @7 unknown #
point $-1 -1 $-1 -1.5812499999999994 0.28125 -5.7879184513951127 #
point $-1 -1 $-1 1.9812500000000006 0.28125 -5.7879184513951127 #
straight-curve $-1 -1 $-1 0.60625000000000062 -0.28125000000000017 -5.2879184513951127 -1 0 0 I I #
edge $-1 -1 $-1 $560 0 $725 3.1415926535897931 $567 $868 forward @7 unknown #
point $-1 -1 $-1 -1.5812499999999994 -0.28125000000000017 -5.2879184513951127 #
plane-surface $-1 -1 $-1 0 0 -5.7879184513951127 0 0 1 1 0 0 forward_v I I I I #
coedge $-1 -1 $-1 $570 $869 $566 $736 forward $714 $-1 #
edge $870 -1 $-1 $871 1.5707963267948966 $575 4.7123889803846897 $566 $872 forward @7 unknown #
coedge $-1 -1 $-1 $568 $858 $873 $874 forward $374 $-1 #
coedge $-1 -1 $-1 $869 $570 $568 $739 reversed $714 $-1 #
edge $-1 -1 $-1 $875 1.5707963267948966 $572 4.7123889803846897 $568 $876 forward @7 unknown #
convexity-sys-attrib $-1 -1 $-1 $-1 $571 #
straight-curve $-1 -1 $-1 -1.5812499999999994 -0.40000000000000002 -5.7879184513951127 0 -3.8285889215894375e-016 1 I I #
point $-1 -1 $-1 -1.5812499999999994 -0.40000000000000019 -5.2879184513951127 #
point $-1 -1 $-1 -1.5812499999999994 -0.40000000000000002 -5.7879184513951127 #
loop $-1 -1 $-1 $-1 $877 $577 #
plane-surface $-1 -1 $-1 0 0.40000000000000002 0 0 -1 0 0 0 -1 forward_v I I I I #
face_name-twe-attrib $-1 -1 $-1 $582 $410 8 #
model_id-kcp-attrib $-1 -1 $878 $-1 $583 1 1021392288 1021392288 -532414463 10 #
cone-surface $879 -1 $-1 -0.625 0 -0.75 0 0 1 0.050000000000000003 0 0 1 I I 0 1 0.050000000000000003 forward I I I I #
loop_type-twe-attrib $-1 -1 $-1 $-1 $584 0 #
surf-twe-attrib $-1 -1 $-1 $-1 $585 165 #
attrib_edge_convexity-kcp-attrib $-1 -1 $880 $-1 $590 1 #
vertex $881 -1 $-1 $590 $882 #
ellipse-curve $883 -1 $-1 0 0.25 0 0 1 0 0.25 0 0 1 I I #
coedge $-1 -1 $-1 $884 $591 $596 $765 forward $756 $-1 #
coedge $-1 -1 $-1 $591 $884 $639 $808 forward $756 $-1 #
loop $885 -1 $-1 $-1 $755 $886 #
edge_name-twe-attrib $-1 -1 $-1 $-1 $592 47 8704 #
straight-curve $887 -1 $-1 4.5 0.25 0.40000000000000002 0 1 0 I I #
coedge $-1 -1 $-1 $593 $654 $595 $763 reversed $655 $-1 #
edge_name-twe-attrib $-1 -1 $-1 $-1 $594 36 8704 #
straight-curve $888 -1 $-1 4.5 -0.75 0.28125 0 -1 0 I I #
coedge $-1 -1 $-1 $603 $595 $787 $889 forward $597 $-1 #
edge $890 -1 $-1 $599 -3.5625 $891 0 $595 $892 forward @7 unknown #
coedge $-1 -1 $-1 $596 $602 $893 $894 reversed $597 $-1 #
edge $895 -1 $-1 $600 -3.5625 $896 0 $754 $897 forward @7 unknown #
loop_type-twe-attrib $-1 -1 $-1 $-1 $597 0 #
face $898 -1 $-1 $899 $597 $9 $-1 $900 forward single #
convexity-sys-attrib $-1 -1 $901 $598 $419 #
point $-1 -1 $-1 4.5 -0.25 0.28125 #
point $-1 -1 $-1 4.5 -0.25 0.40000000000000002 #
cur-twe-attrib $-1 -1 $902 $-1 $601 176 #
edge $903 -1 $-1 $795 -3.5625 $605 0 $603 $904 forward @7 unknown #
attrib_edge_convexity-kcp-attrib $-1 -1 $905 $604 $421 1 #
point $-1 -1 $-1 4.5 -0.25 -0.28125 #
cur-twe-attrib $-1 -1 $906 $-1 $606 176 #
coedge $-1 -1 $-1 $692 $893 $607 $777 reversed $844 $-1 #
edge $907 -1 $-1 $779 -0.5 $782 0 $607 $908 forward @7 unknown #
edge_name-twe-attrib $-1 -1 $-1 $-1 $608 50 8704 #
vertex $-1 -1 $-1 $777 $909 #
straight-curve $910 -1 $-1 4.5 0.25 -0.40000000000000002 1 0 -1.55820775385987e-017 I I #
attrib_edge_convexity-kcp-attrib $-1 -1 $911 $-1 $609 2 #
vertex $-1 -1 $-1 $777 $912 #
straight-curve $913 -1 $-1 4.5 -0.25 -0.40000000000000002 1 0 -1.55820775385987e-017 I I #
model_id-kcp-attrib $-1 -1 $914 $-1 $611 1 1021392288 1021392288 -532414463 21 #
plane-surface $915 -1 $-1 4.5 -0.25 -0.40000000000000002 0 0 -1 -1 0 0 forward_v I I I I #
edge_name-twe-attrib $-1 -1 $-1 $612 $259 53 8704 #
coedge $-1 -1 $-1 $617 $616 $762 $889 reversed $618 $-1 #
edge $916 -1 $-1 $891 -0.5 $620 0 $654 $917 forward @7 unknown #
loop_type-twe-attrib $-1 -1 $-1 $-1 $618 0 #
face $918 -1 $-1 $818 $618 $9 $-1 $919 reversed single #
convexity-sys-attrib $-1 -1 $920 $619 $430 #
point $-1 -1 $-1 0.9375 -0.75 0.28125 #
cur-twe-attrib $-1 -1 $-1 $-1 $621 185 #
edge_name-twe-attrib $-1 -1 $-1 $-1 $623 35 20480 #
vertex $-1 -1 $-1 $889 $921 #
straight-curve $922 -1 $-1 0.9375 -0.75 -0.28125 0 -1 0 I I #
model_id-kcp-attrib $-1 -1 $923 $-1 $625 1 1021392288 1021392288 -532414463 15 #
plane-surface $924 -1 $-1 4.5 -0.84999999999999998 -0.28125 0 0 -1 -1 0 0 forward_v I I I I #
edge_name-twe-attrib $-1 -1 $-1 $626 $263 32 8704 #
face_name-twe-attrib $-1 -1 $-1 $630 $438 13 #
model_id-kcp-attrib $-1 -1 $925 $-1 $631 1 1021392288 1021392288 -532414463 37 #
surf-twe-attrib $-1 -1 $-1 $-1 $632 193 #
edge_name-twe-attrib $-1 -1 $-1 $-1 $635 15 8704 #
vertex $-1 -1 $-1 $823 $926 #
straight-curve $927 -1 $-1 -0.625 0.070710678118653003 0.75 -0.707106781186565 0.70710678118653003 0 I I #
point $-1 -1 $-1 -0.625 0.070710678118653003 0.75 #
cur-twe-attrib $-1 -1 $-1 $-1 $638 198 #
edge $928 -1 $-1 $846 -3.5625 $644 0 $755 $929 forward @7 unknown #
edge_name-twe-attrib $-1 -1 $-1 $643 $450 10 8704 #
point $-1 -1 $-1 4.5 0.25 0.40000000000000002 #
cur-twe-attrib $-1 -1 $930 $-1 $645 203 #
model_id-kcp-attrib $-1 -1 $931 $-1 $647 1 1021392288 1021392288 -532414463 28 #
ellipse-curve $932 -1 $-1 -0.625 0 0.75 0 0 1 0.035355339059327202 0.035355339059327598 0 1 I I #
edge_name-twe-attrib $-1 -1 $-1 $648 $455 21 8704 #
point $-1 -1 $-1 -0.66035533905932697 -0.035355339059328 0.75 #
cur-twe-attrib $-1 -1 $-1 $-1 $650 208 #
loop_type-twe-attrib $-1 -1 $-1 $-1 $655 0 #
face $933 -1 $-1 $767 $655 $9 $-1 $934 reversed single #
convexity-sys-attrib $-1 -1 $935 $656 $462 #
cur-twe-attrib $-1 -1 $-1 $-1 $657 215 #
edge_name-twe-attrib $-1 -1 $-1 $658 $283 6 8704 #
cur-twe-attrib $-1 -1 $-1 $660 $465 89 #
edge $936 -1 $-1 $804 -1.5 $665 0 $662 $937 forward @7 unknown #
loop_type-twe-attrib $-1 -1 $-1 $-1 $663 0 #
attrib_edge_convexity-kcp-attrib $-1 -1 $938 $664 $468 1 #
point $-1 -1 $-1 -0.58964466094067303 0.035355339059328 -0.75 #
cur-twe-attrib $-1 -1 $-1 $-1 $666 220 #
edge_name-twe-attrib $-1 -1 $-1 $-1 $667 22 20480 #
straight-curve $939 -1 $-1 -0.66035533905932697 -0.035355339059327598 -0.75 -1.48029736616688e-016 2.6367796834847502e-016 -1 I I #
model_id-kcp-attrib $-1 -1 $940 $-1 $669 1 1021392288 1021392288 -532414463 11 #
plane-surface $941 -1 $-1 -0.66035533905932697 -0.035355339059328 -0.75 0.70710678118655101 0.70710678118654402 0 0 0 -1 forward_v I I I I #
convexity-sys-attrib $-1 -1 $942 $670 $290 #
cur-twe-attrib $-1 -1 $-1 $-1 $674 227 #
face_name-twe-attrib $-1 -1 $-1 $675 $477 11 #
surf-twe-attrib $-1 -1 $-1 $-1 $676 229 #
edge_name-twe-attrib $-1 -1 $-1 $677 $169 23 8704 #
convexity-sys-attrib $-1 -1 $943 $684 $487 #
cur-twe-attrib $-1 -1 $-1 $-1 $685 237 #
edge_name-twe-attrib $-1 -1 $-1 $-1 $686 16 8448 #
straight-curve $944 -1 $-1 -0.625 0.070710678118653003 -0.75 0 0 -1 I I #
edge_name-twe-attrib $-1 -1 $-1 $687 $305 11 8704 #
cur-twe-attrib $-1 -1 $-1 $-1 $691 243 #
coedge $-1 -1 $-1 $893 $692 $884 $945 forward $844 $-1 #
loop $946 -1 $-1 $-1 $692 $899 #
edge_name-twe-attrib $-1 -1 $-1 $-1 $693 44 8704 #
vertex $-1 -1 $-1 $945 $947 #
ellipse-curve $948 -1 $-1 0.9375 0.25 0 0 -1 0 0 0 -0.40000000000000002 1 I I #
edge_name-twe-attrib $-1 -1 $-1 $694 $178 8 8704 #
convexity-sys-attrib $-1 -1 $949 $695 $312 #
cur-twe-attrib $-1 -1 $-1 $696 $501 154 #
convexity-sys-attrib $-1 -1 $950 $697 $502 #
cur-twe-attrib $-1 -1 $-1 $-1 $698 251 #
point $-1 -1 $-1 2.75 -0.5 -0.28125 #
loop_type-twe-attrib $-1 -1 $-1 $-1 $714 0 #
surf-twe-attrib $-1 -1 $-1 $-1 $715 463 #
coedge $-1 -1 $-1 $863 $873 $716 $857 reversed $744 $-1 #
edge $-1 -1 $-1 $866 -2.8939592256975564 $951 -2.3939592256975564 $856 $952 forward @7 unknown #
coedge $-1 -1 $-1 $737 $719 $722 $860 forward $374 $-1 #
straight-curve $-1 -1 $-1 -1.1749999999999994 0.28124999999999983 -5.2879184513951127 1 0 0 I I #
edge $-1 -1 $-1 $723 0.28125000000000006 $951 0.40000000000000008 $722 $397 forward @7 unknown #
point $-1 -1 $-1 1.9812500000000006 0.28124999999999983 -5.2879184513951127 #
point $-1 -1 $-1 -1.5812499999999994 0.28124999999999983 -5.2879184513951127 #
coedge $-1 -1 $-1 $877 $856 $727 $864 reversed $744 $-1 #
edge $953 -1 $-1 $871 -1.5812499999999994 $866 1.9812500000000006 $863 $954 forward @7 unknown #
convexity-sys-attrib $-1 -1 $-1 $-1 $728 #
vertex $-1 -1 $-1 $857 $955 #
straight-curve $-1 -1 $-1 1.9812500000000006 -7.6537897113898579e-018 -5.7879184513951127 0 1 0 I I #
ellipse-curve $-1 -1 $-1 -1.5812499999999994 -2.0673702550225159e-016 -5.2879184513951127 0 3.8285889215894375e-016 -1 0 -0.28125 -1.0767906341970293e-016 1 I I #
coedge $-1 -1 $-1 $735 $738 $877 $956 reversed $714 $-1 #
convexity-sys-attrib $-1 -1 $-1 $-1 $736 #
vertex $-1 -1 $-1 $864 $957 #
ellipse-curve $-1 -1 $-1 -1.5812499999999994 -1.5307579422779716e-017 -5.7879184513951127 0 0 1 0.40000000000000002 0 0 1 I I #
coedge $-1 -1 $-1 $856 $877 $737 $874 reversed $744 $-1 #
edge $-1 -1 $-1 $951 -2.3656250000000005 $875 1.1968749999999997 $873 $958 forward @7 unknown #
vertex $-1 -1 $-1 $874 $959 #
ellipse-curve $-1 -1 $-1 -1.5812499999999994 -2.0673702550225159e-016 -5.2879184513951127 0 -3.8285889215894375e-016 1 0.40000000000000002 0 0 1 I I #
coedge $-1 -1 $-1 $873 $863 $869 $956 forward $744 $-1 #
face_name-twe-attrib $-1 -1 $-1 $747 $583 9 #
surf-twe-attrib $-1 -1 $-1 $-1 $748 256 #
convexity-sys-attrib $-1 -1 $960 $751 $590 #
model_id-kcp-attrib $-1 -1 $-1 $-1 $752 1 1021392288 1021392288 -532414463 41 #
point $-1 -1 $-1 0.25 0.25 0 #
cur-twe-attrib $-1 -1 $-1 $-1 $753 262 #
coedge $-1 -1 $-1 $755 $754 $843 $945 reversed $756 $-1 #
loop_type-twe-attrib $-1 -1 $-1 $-1 $756 0 #
face $961 -1 $-1 $611 $756 $9 $-1 $962 reversed single #
cur-twe-attrib $-1 -1 $-1 $-1 $758 264 #
cur-twe-attrib $-1 -1 $-1 $-1 $761 266 #
edge $963 -1 $-1 $891 -3.1415926535897931 $795 0 $762 $964 forward @7 unknown #
attrib_edge_convexity-kcp-attrib $-1 -1 $965 $-1 $763 1 #
vertex $-1 -1 $-1 $889 $966 #
straight-curve $967 -1 $-1 0.9375 -0.25 0.28125 -1 0 0 I I #
coedge $-1 -1 $-1 $776 $843 $764 $894 forward $844 $-1 #
edge $968 -1 $-1 $896 -3.1415926535897931 $782 0 $893 $969 forward @7 unknown #
attrib_edge_convexity-kcp-attrib $-1 -1 $970 $-1 $765 2 #
vertex $-1 -1 $-1 $945 $971 #
straight-curve $972 -1 $-1 0.9375 -0.25 0.40000000000000002 -1 0 0 I I #
model_id-kcp-attrib $-1 -1 $973 $-1 $767 1 1021392288 1021392288 -532414463 18 #
face $974 -1 $-1 $886 $844 $9 $-1 $975 reversed single #
plane-surface $976 -1 $-1 4.5 -0.25 -0.75 0 1 0 0 0 1 forward_v I I I I #
model_id-kcp-attrib $-1 -1 $977 $768 $419 1 1021392288 1021392288 -532414463 25 #
cur-twe-attrib $-1 -1 $-1 $771 $601 174 #
attrib_edge_convexity-kcp-attrib $-1 -1 $978 $-1 $772 1 #
straight-curve $979 -1 $-1 4.5 -0.25 -0.28125 1 0 0 I I #
convexity-sys-attrib $-1 -1 $980 $773 $421 #
cur-twe-attrib $-1 -1 $-1 $775 $606 174 #
edge_name-twe-attrib $-1 -1 $-1 $-1 $777 51 20480 #
straight-curve $981 -1 $-1 0.9375 -0.25 -0.40000000000000002 0 -1 0 I I #
point $-1 -1 $-1 0.9375 0.25 -0.40000000000000002 #
cur-twe-attrib $-1 -1 $-1 $-1 $780 280 #
convexity-sys-attrib $-1 -1 $982 $781 $609 #
point $-1 -1 $-1 0.9375 -0.25 -0.40000000000000002 #
cur-twe-attrib $-1 -1 $-1 $-1 $783 281 #
face_name-twe-attrib $-1 -1 $-1 $784 $611 20 #
surf-twe-attrib $-1 -1 $-1 $-1 $785 283 #
edge_name-twe-attrib $-1 -1 $-1 $-1 $788 38 20480 #
straight-curve $983 -1 $-1 0.9375 -0.75 0.28125 0 -1 0 I I #
model_id-kcp-attrib $-1 -1 $984 $-1 $790 1 1021392288 1021392288 -532414463 16 #
cone-surface $985 -1 $-1 0.9375 -0.84999999999999998 0 0 1 0 -0.28125 0 0 1 I I 0 1 0.28125 forward I I I I #
edge_name-twe-attrib $-1 -1 $-1 $791 $430 34 8704 #
point $-1 -1 $-1 0.9375 -0.25 -0.28125 #
cur-twe-attrib $-1 -1 $-1 $-1 $796 294 #
face_name-twe-attrib $-1 -1 $-1 $797 $625 14 #
surf-twe-attrib $-1 -1 $-1 $-1 $798 296 #
loop_type-twe-attrib $-1 -1 $-1 $801 $631 0 #
point $-1 -1 $-1 -0.58964466094067303 0.035355339059327598 0.75 #
cur-twe-attrib $-1 -1 $-1 $-1 $805 303 #
edge_name-twe-attrib $-1 -1 $-1 $-1 $808 46 8704 #
straight-curve $986 -1 $-1 4.5 0.25 0.40000000000000002 1 0 0 I I #
cur-twe-attrib $-1 -1 $-1 $811 $645 154 #
edge_name-twe-attrib $-1 -1 $-1 $812 $647 18 8704 #
cur-twe-attrib $-1 -1 $-1 $-1 $813 314 #
model_id-kcp-attrib $-1 -1 $987 $-1 $818 1 1021392288 1021392288 -532414463 17 #
plane-surface $988 -1 $-1 0.9375 -0.84999999999999998 0.28125 0 0 1 1 0 0 forward_v I I I I #
edge_name-twe-attrib $-1 -1 $-1 $819 $462 37 8704 #
edge_name-twe-attrib $-1 -1 $-1 $-1 $823 19 20480 #
straight-curve $989 -1 $-1 -0.58964466094067303 0.035355339059328 -0.75 -1.48029736616688e-016 2.68303897617746e-016 -1 I I #
convexity-sys-attrib $-1 -1 $990 $825 $468 #
cur-twe-attrib $-1 -1 $-1 $-1 $829 332 #
face_name-twe-attrib $-1 -1 $-1 $830 $669 10 #
surf-twe-attrib $-1 -1 $-1 $-1 $831 334 #
edge_name-twe-attrib $-1 -1 $-1 $832 $290 20 8704 #
edge_name-twe-attrib $-1 -1 $-1 $837 $487 14 8704 #
cur-twe-attrib $-1 -1 $-1 $-1 $840 347 #
edge $991 -1 $-1 $846 -0.5 $896 0 $884 $992 forward @7 unknown #
loop_type-twe-attrib $-1 -1 $-1 $-1 $844 0 #
point $-1 -1 $-1 0.9375 0.25 0.40000000000000002 #
cur-twe-attrib $-1 -1 $-1 $-1 $847 353 #
edge_name-twe-attrib $-1 -1 $-1 $849 $312 7 8704 #
edge_name-twe-attrib $-1 -1 $-1 $851 $502 33 8704 #
vertex $-1 -1 $-1 $874 $993 #
straight-curve $-1 -1 $-1 1.9812500000000006 0.40000000000000002 -2.8939592256975564 0 0 1 I I #
convexity-sys-attrib $-1 -1 $-1 $-1 $864 #
straight-curve $-1 -1 $-1 0 0.40000000000000002 -5.7879184513951127 1 0 0 I I #
point $-1 -1 $-1 1.9812500000000006 0.40000000000000002 -5.7879184513951127 #
edge $994 -1 $-1 $871 0 $875 0.5 $877 $995 forward @7 unknown #
point $-1 -1 $-1 -1.5812499999999994 0.40000000000000002 -5.7879184513951127 #
straight-curve $-1 -1 $-1 -0.38437499999999969 0.40000000000000002 -5.2879184513951127 -1 0 0 I I #
point $-1 -1 $-1 -1.5812499999999994 0.39999999999999986 -5.2879184513951127 #
edge_name-twe-attrib $-1 -1 $-1 $880 $590 30 8704 #
model_id-kcp-attrib $-1 -1 $996 $-1 $886 1 1021392288 1021392288 -532414463 20 #
plane-surface $997 -1 $-1 0.9375 -0.25 0.40000000000000002 0 0 1 1 0 0 forward_v I I I I #
attrib_edge_convexity-kcp-attrib $-1 -1 $998 $-1 $889 1 #
ellipse-curve $999 -1 $-1 0.9375 -0.25 0 0 -1 0 0 0 -0.28125 1 I I #
convexity-sys-attrib $-1 -1 $1000 $890 $763 #
point $-1 -1 $-1 0.9375 -0.25 0.28125 #
cur-twe-attrib $-1 -1 $-1 $-1 $892 374 #
attrib_edge_convexity-kcp-attrib $-1 -1 $1001 $-1 $894 2 #
ellipse-curve $1002 -1 $-1 0.9375 -0.25 0 0 -1 0 0 0 -0.40000000000000002 1 I I #
convexity-sys-attrib $-1 -1 $1003 $895 $765 #
point $-1 -1 $-1 0.9375 -0.25 0.40000000000000002 #
cur-twe-attrib $-1 -1 $-1 $-1 $897 376 #
face_name-twe-attrib $-1 -1 $-1 $898 $767 17 #
model_id-kcp-attrib $-1 -1 $1004 $-1 $899 1 1021392288 1021392288 -532414463 19 #
cone-surface $1005 -1 $-1 0.9375 -0.25 0 0 1 0 0.40000000000000002 0 0 1 I I 0 1 0.40000000000000002 forward I I I I #
surf-twe-attrib $-1 -1 $-1 $-1 $900 378 #
edge_name-twe-attrib $-1 -1 $-1 $901 $419 39 8704 #
convexity-sys-attrib $-1 -1 $1006 $903 $772 #
cur-twe-attrib $-1 -1 $-1 $-1 $904 382 #
edge_name-twe-attrib $-1 -1 $-1 $905 $421 43 8704 #
cur-twe-attrib $-1 -1 $-1 $-1 $908 386 #
edge_name-twe-attrib $-1 -1 $-1 $911 $609 52 4608 #
cur-twe-attrib $-1 -1 $-1 $-1 $917 396 #
face_name-twe-attrib $-1 -1 $-1 $918 $790 15 #
surf-twe-attrib $-1 -1 $-1 $-1 $919 398 #
cur-twe-attrib $-1 -1 $-1 $-1 $929 413 #
face_name-twe-attrib $-1 -1 $-1 $933 $818 16 #
surf-twe-attrib $-1 -1 $-1 $-1 $934 421 #
cur-twe-attrib $-1 -1 $-1 $-1 $937 424 #
edge_name-twe-attrib $-1 -1 $-1 $938 $468 17 8704 #
edge_name-twe-attrib $-1 -1 $-1 $-1 $945 49 20480 #
straight-curve $1007 -1 $-1 0.9375 -0.25 0.40000000000000002 0 -1 0 I I #
point $-1 -1 $-1 1.9812500000000006 0.39999999999999986 -5.2879184513951127 #
convexity-sys-attrib $-1 -1 $-1 $-1 $956 #
straight-curve $-1 -1 $-1 -1.5812499999999994 0.40000000000000002 -5.7879184513951127 0 -3.8285889215894375e-016 1 I I #
face_name-twe-attrib $-1 -1 $-1 $961 $886 19 #
surf-twe-attrib $-1 -1 $-1 $-1 $962 450 #
convexity-sys-attrib $-1 -1 $1008 $963 $889 #
cur-twe-attrib $-1 -1 $-1 $-1 $964 453 #
edge_name-twe-attrib $-1 -1 $-1 $965 $763 40 8704 #
convexity-sys-attrib $-1 -1 $1009 $968 $894 #
cur-twe-attrib $-1 -1 $-1 $-1 $969 458 #
edge_name-twe-attrib $-1 -1 $-1 $970 $765 48 4608 #
face_name-twe-attrib $-1 -1 $-1 $974 $899 18 #
surf-twe-attrib $-1 -1 $-1 $-1 $975 463 #
edge_name-twe-attrib $-1 -1 $-1 $978 $772 42 8704 #
cur-twe-attrib $-1 -1 $-1 $-1 $992 496 #
edge_name-twe-attrib $-1 -1 $-1 $998 $889 41 8704 #
edge_name-twe-attrib $-1 -1 $-1 $1001 $894 45 4608 #
End-of-ACIS-data 