600 0 1 0           
77 GICL ACIS Healer - Source: /gicl/data5/repository/UMD/E2part/E2part.sat - 6 0 18 ACIS 6.0.3 Solaris 24 Sun Apr 14 00:35:14 2002 
1 9.999999999999999547e-07 1.000000000000000036e-10 
body $-1 $1 $-1 $-1 #
lump $-1 $-1 $2 $0 #
shell $-1 $-1 $-1 $3 $-1 $1 #
face $-1 $4 $5 $2 $-1 $6 forward single #
face $-1 $7 $8 $2 $-1 $9 forward single #
loop $-1 $-1 $10 $3 #
plane-surface $-1 5 0 0 0 0 1 1 0 0 forward_v I I I I #
face $-1 $11 $12 $2 $-1 $13 reversed single #
loop $-1 $-1 $14 $4 #
plane-surface $-1 -10 0 5 1 0 0 0 0 -1 forward_v I I I I #
coedge $-1 $15 $16 $17 $18 reversed $5 $-1 #
face $-1 $19 $20 $2 $-1 $21 reversed single #
loop $-1 $-1 $22 $7 #
plane-surface $-1 20 0 0 -1 0 0 0 -0 1 forward_v I I I I #
coedge $-1 $23 $24 $25 $26 reversed $8 $-1 #
coedge $-1 $27 $10 $28 $29 reversed $5 $-1 #
coedge $-1 $10 $30 $22 $31 reversed $5 $-1 #
coedge $-1 $32 $33 $10 $18 forward $34 $-1 #
edge $-1 $35 -7.5 $36 12.5 $17 $37 forward 7 unknown #
face $-1 $38 $39 $2 $-1 $40 forward single #
loop $-1 $-1 $41 $11 #
plane-surface $-1 0 -25 0 0 1 -0 -0 0 1 forward_v I I I I #
coedge $-1 $42 $43 $16 $31 forward $12 $-1 #
coedge $-1 $44 $14 $45 $46 reversed $8 $-1 #
coedge $-1 $14 $44 $47 $48 forward $8 $-1 #
coedge $-1 $49 $50 $14 $26 forward $51 $-1 #
edge $-1 $52 -7.5 $53 2.5 $25 $54 forward 7 unknown #
coedge $-1 $55 $15 $56 $57 reversed $5 $-1 #
coedge $-1 $58 $59 $15 $29 forward $60 $-1 #
edge $-1 $61 0 $35 10 $28 $62 forward 7 unknown #
coedge $-1 $16 $47 $41 $63 reversed $5 $-1 #
edge $-1 $36 15 $64 25 $22 $65 forward 7 unknown #
coedge $-1 $66 $17 $43 $67 reversed $34 $-1 #
coedge $-1 $17 $66 $58 $68 reversed $34 $-1 #
loop $-1 $-1 $17 $69 #
vertex $-1 $29 $70 #
vertex $-1 $67 $71 #
straight-curve $-1 7.5 -15 0 1 0 0 I I #
face $-1 $72 $51 $2 $-1 $73 reversed single #
loop $-1 $-1 $45 $19 #
plane-surface $-1 0 0 10 0 0 1 1 0 0 forward_v I I I I #
coedge $-1 $74 $75 $30 $63 forward $20 $-1 #
coedge $-1 $76 $22 $75 $77 forward $12 $-1 #
coedge $-1 $22 $76 $32 $67 forward $12 $-1 #
coedge $-1 $24 $23 $74 $78 reversed $8 $-1 #
coedge $-1 $79 $80 $23 $46 forward $39 $-1 #
edge $-1 $81 -25 $52 25 $45 $82 forward 7 unknown #
coedge $-1 $30 $83 $24 $48 reversed $5 $-1 #
edge $-1 $84 -25 $53 25 $24 $85 forward 7 unknown #
coedge $-1 $86 $25 $83 $87 forward $51 $-1 #
coedge $-1 $25 $88 $79 $89 forward $51 $-1 #
loop $-1 $-1 $25 $38 #
vertex $-1 $89 $90 #
vertex $-1 $87 $91 #
straight-curve $-1 -10 25 2.5 0 0 -1 I I #
coedge $-1 $92 $27 $93 $94 reversed $5 $-1 #
coedge $-1 $95 $96 $27 $57 forward $97 $-1 #
edge $-1 $98 -12.5 $61 7.5 $56 $99 forward 7 unknown #
coedge $-1 $100 $28 $33 $68 forward $60 $-1 #
coedge $-1 $28 $100 $95 $101 reversed $60 $-1 #
loop $-1 $-1 $28 $102 #
vertex $-1 $57 $103 #
straight-curve $-1 0 -5 0 0 -1 0 I I #
edge $-1 $64 -17.5 $84 12.5 $41 $104 forward 7 unknown #
vertex $-1 $63 $105 #
straight-curve $-1 20 0 0 0 -1 0 I I #
coedge $-1 $33 $32 $106 $107 reversed $34 $-1 #
edge $-1 $108 -25 $36 0 $43 $109 forward 7 unknown #
edge $-1 $35 0 $110 25 $58 $111 forward 7 unknown #
face $-1 $112 $34 $2 $-1 $113 forward single #
point $-1 0 -15 0 #
point $-1 20 -15 0 #
face $-1 $114 $115 $2 $-1 $13 reversed single #
plane-surface $-1 0 25 0 0 -1 0 0 0 -1 forward_v I I I I #
coedge $-1 $116 $41 $44 $78 forward $20 $-1 #
coedge $-1 $41 $117 $42 $77 reversed $20 $-1 #
coedge $-1 $43 $42 $118 $119 reversed $12 $-1 #
edge $-1 $64 0 $120 25 $42 $121 forward 7 unknown #
edge $-1 $84 -2.5 $81 7.5 $74 $122 forward 7 unknown #
coedge $-1 $123 $45 $50 $89 reversed $39 $-1 #
coedge $-1 $45 $123 $116 $124 reversed $39 $-1 #
vertex $-1 $46 $125 #
straight-curve $-1 -10 0 10 0 1 0 I I #
coedge $-1 $47 $126 $49 $87 reversed $5 $-1 #
vertex $-1 $63 $127 #
straight-curve $-1 -10 0 0 0 1 0 I I #
coedge $-1 $128 $49 $129 $130 forward $51 $-1 #
edge $-1 $53 -12.5 $131 17.5 $49 $132 forward 7 unknown #
coedge $-1 $50 $128 $133 $134 reversed $51 $-1 #
edge $-1 $135 -20 $52 -10 $50 $136 forward 7 unknown #
point $-1 -10 25 10 #
point $-1 -10 25 0 #
coedge $-1 $137 $55 $138 $139 reversed $5 $-1 #
coedge $-1 $140 $141 $55 $94 forward $142 $-1 #
edge $-1 $143 -5 $98 5 $93 $144 forward 7 unknown #
coedge $-1 $145 $56 $59 $101 forward $97 $-1 #
coedge $-1 $56 $145 $140 $146 reversed $97 $-1 #
loop $-1 $-1 $56 $147 #
vertex $-1 $94 $148 #
straight-curve $-1 7.5 -5 0 -1 0 0 I I #
coedge $-1 $59 $58 $149 $150 reversed $60 $-1 #
edge $-1 $61 0 $151 25 $95 $152 forward 7 unknown #
face $-1 $69 $60 $2 $-1 $153 forward single #
point $-1 0 -5 0 #
straight-curve $-1 2.5 -25 0 -1 0 0 I I #
point $-1 20 -25 0 #
coedge $-1 $118 $149 $66 $107 forward $154 $-1 #
edge $-1 $110 -5 $108 15 $106 $155 forward 7 unknown #
vertex $-1 $67 $156 #
straight-curve $-1 20 -15 0 0 -0 1 I I #
vertex $-1 $107 $157 #
straight-curve $-1 0 -15 0 0 0 -1 I I #
face $-1 $158 $154 $2 $-1 $159 reversed single #
plane-surface $-1 10 -15 0 0 1 0 0 0 1 forward_v I I I I #
face $-1 $160 $161 $2 $-1 $162 forward single #
loop $-1 $-1 $163 $72 #
coedge $-1 $164 $74 $80 $124 forward $20 $-1 #
coedge $-1 $75 $164 $165 $166 reversed $20 $-1 #
coedge $-1 $165 $106 $76 $119 forward $154 $-1 #
edge $-1 $108 15 $120 25 $76 $167 forward 7 unknown #
vertex $-1 $77 $168 #
straight-curve $-1 20 -25 0 0 0 -1 I I #
straight-curve $-1 -10 -25 2.5 -0 0 1 I I #
coedge $-1 $80 $79 $169 $170 reversed $39 $-1 #
edge $-1 $81 10 $171 20 $116 $172 forward 7 unknown #
point $-1 -10 -25 10 #
coedge $-1 $83 $173 $163 $174 reversed $5 $-1 #
point $-1 -10 -25 0 #
coedge $-1 $88 $86 $175 $176 reversed $51 $-1 #
coedge $-1 $163 $177 $86 $130 reversed $115 $-1 #
edge $-1 $131 0 $178 25 $129 $179 forward 7 unknown #
vertex $-1 $174 $180 #
straight-curve $-1 2.5 25 0 1 0 -0 I I #
coedge $-1 $181 $169 $88 $134 forward $182 $-1 #
edge $-1 $135 -10 $183 25 $88 $184 forward 7 unknown #
vertex $-1 $170 $185 #
straight-curve $-1 0 25 10 1 0 -0 I I #
coedge $-1 $173 $92 $186 $187 reversed $5 $-1 #
coedge $-1 $188 $189 $92 $139 forward $190 $-1 #
edge $-1 $191 -7.5 $143 12.5 $138 $192 forward 7 unknown #
coedge $-1 $193 $93 $96 $146 forward $142 $-1 #
coedge $-1 $93 $193 $188 $194 forward $142 $-1 #
loop $-1 $-1 $93 $195 #
vertex $-1 $194 $196 #
straight-curve $-1 20 0 0 0 -1 0 I I #
coedge $-1 $96 $95 $197 $198 reversed $97 $-1 #
edge $-1 $98 -0 $199 25 $140 $200 forward 7 unknown #
face $-1 $102 $97 $2 $-1 $201 forward single #
point $-1 20 -5 0 #
coedge $-1 $106 $197 $100 $150 forward $154 $-1 #
edge $-1 $151 0 $110 10 $149 $202 forward 7 unknown #
vertex $-1 $150 $203 #
straight-curve $-1 0 -5 0 0 0 -1 I I #
plane-surface $-1 0 -10 0 1 0 0 0 0 -1 forward_v I I I I #
loop $-1 $-1 $204 $112 #
straight-curve $-1 5 -15 -25 1 0 0 I I #
point $-1 20 -15 -25 #
point $-1 0 -15 -25 #
face $-1 $-1 $182 $2 $-1 $205 reversed single #
plane-surface $-1 0 0 -25 0 0 1 1 0 0 forward_v I I I I #
face $-1 $206 $207 $2 $-1 $208 forward single #
loop $-1 $-1 $209 $114 #
plane-surface $-1 10 15 0 0 -1 0 0 0 -1 forward_v I I I I #
coedge $-1 $210 $129 $126 $174 forward $115 $-1 #
coedge $-1 $117 $116 $211 $212 forward $20 $-1 #
coedge $-1 $213 $118 $117 $166 forward $154 $-1 #
edge $-1 $120 -20 $214 20 $117 $215 forward 7 unknown #
straight-curve $-1 20 0 -25 0 -1 0 I I #
point $-1 20 -25 -25 #
coedge $-1 $133 $211 $123 $170 forward $182 $-1 #
edge $-1 $171 -25 $135 25 $169 $216 forward 7 unknown #
vertex $-1 $124 $217 #
straight-curve $-1 0 -25 10 -1 0 0 I I #
coedge $-1 $126 $137 $209 $218 reversed $5 $-1 #
edge $-1 $131 -25 $219 -15 $163 $220 forward 7 unknown #
coedge $-1 $221 $213 $128 $176 forward $154 $-1 #
edge $-1 $183 -20 $178 20 $128 $222 forward 7 unknown #
coedge $-1 $129 $210 $221 $223 reversed $115 $-1 #
vertex $-1 $223 $224 #
straight-curve $-1 20 25 0 0 0 -1 I I #
point $-1 20 25 0 #
coedge $-1 $211 $133 $213 $225 reversed $182 $-1 #
loop $-1 $-1 $169 $158 #
vertex $-1 $176 $226 #
straight-curve $-1 -20 25 0 0 0 -1 I I #
point $-1 -20 25 10 #
coedge $-1 $227 $228 $137 $187 forward $207 $-1 #
edge $-1 $229 -10 $191 0 $186 $230 forward 7 unknown #
coedge $-1 $231 $138 $141 $194 reversed $190 $-1 #
coedge $-1 $138 $231 $227 $232 reversed $190 $-1 #
loop $-1 $-1 $138 $206 #
vertex $-1 $187 $233 #
straight-curve $-1 7.5 5 0 1 0 0 I I #
coedge $-1 $141 $140 $234 $235 reversed $142 $-1 #
edge $-1 $236 -25 $143 0 $141 $237 forward 7 unknown #
face $-1 $147 $142 $2 $-1 $13 reversed single #
point $-1 20 5 0 #
coedge $-1 $149 $234 $145 $198 forward $154 $-1 #
edge $-1 $199 -15 $151 5 $197 $238 forward 7 unknown #
vertex $-1 $235 $239 #
straight-curve $-1 20 -5 0 -0 -0 -1 I I #
plane-surface $-1 10 -5 0 0 -1 0 0 0 -1 forward_v I I I I #
straight-curve $-1 0 -5 -25 0 -1 0 I I #
point $-1 0 -5 -25 #
coedge $-1 $234 $240 $231 $241 forward $154 $-1 #
plane-surface $-1 -20 0 0 1 0 0 0 0 -1 forward_v I I I I #
face $-1 $195 $190 $2 $-1 $242 forward single #
loop $-1 $-1 $186 $160 #
plane-surface $-1 0 10 0 1 0 0 0 0 -1 forward_v I I I I #
coedge $-1 $243 $244 $173 $218 forward $161 $-1 #
coedge $-1 $177 $163 $244 $245 forward $115 $-1 #
coedge $-1 $169 $181 $164 $212 reversed $182 $-1 #
edge $-1 $171 -10 $214 25 $211 $246 forward 7 unknown #
coedge $-1 $175 $165 $181 $225 forward $154 $-1 #
vertex $-1 $225 $247 #
straight-curve $-1 0 -25 -25 -1 0 0 I I #
straight-curve $-1 -20 0 10 0 1 0 I I #
point $-1 -20 -25 10 #
edge $-1 $219 -12.5 $229 7.5 $209 $248 forward 7 unknown #
vertex $-1 $218 $249 #
straight-curve $-1 20 0 0 0 -1 0 I I #
coedge $-1 $250 $175 $177 $223 forward $154 $-1 #
straight-curve $-1 0 25 -25 1 0 0 I I #
edge $-1 $178 -25 $251 -15 $177 $167 forward 7 unknown #
point $-1 20 25 -25 #
edge $-1 $214 -25 $183 25 $181 $252 forward 7 unknown #
point $-1 -20 25 -25 #
coedge $-1 $253 $186 $189 $232 forward $207 $-1 #
coedge $-1 $186 $253 $243 $254 reversed $207 $-1 #
vertex $-1 $218 $255 #
straight-curve $-1 0 5 0 0 -1 0 I I #
coedge $-1 $189 $188 $204 $241 reversed $190 $-1 #
edge $-1 $191 0 $256 25 $227 $257 forward 7 unknown #
point $-1 0 5 0 #
coedge $-1 $197 $204 $193 $235 forward $154 $-1 #
edge $-1 $236 -5 $199 5 $193 $167 forward 7 unknown #
vertex $-1 $194 $258 #
straight-curve $-1 20 5 0 0 -0 1 I I #
straight-curve $-1 5 -5 -25 -1 0 0 I I #
point $-1 20 -5 -25 #
coedge $-1 $204 $250 $253 $259 forward $154 $-1 #
edge $-1 $256 -5 $236 15 $204 $260 forward 7 unknown #
plane-surface $-1 10 5 0 0 1 0 0 0 1 forward_v I I I I #
coedge $-1 $261 $209 $228 $254 forward $161 $-1 #
coedge $-1 $209 $261 $210 $245 reversed $161 $-1 #
edge $-1 $219 -0 $251 25 $210 $262 forward 7 unknown #
straight-curve $-1 -20 -25 0 0 0 -1 I I #
point $-1 -20 -25 -25 #
straight-curve $-1 7.5 15 0 -1 0 0 I I #
point $-1 20 15 0 #
coedge $-1 $240 $221 $261 $263 forward $154 $-1 #
vertex $-1 $223 $264 #
straight-curve $-1 -20 0 -25 0 1 0 I I #
coedge $-1 $228 $227 $240 $259 reversed $207 $-1 #
edge $-1 $229 0 $265 25 $243 $266 forward 7 unknown #
point $-1 0 15 0 #
vertex $-1 $241 $267 #
straight-curve $-1 0 5 0 0 0 -1 I I #
point $-1 20 5 -25 #
edge $-1 $265 -10 $256 0 $240 $268 forward 7 unknown #
straight-curve $-1 5 5 -25 1 0 0 I I #
coedge $-1 $244 $243 $250 $263 reversed $161 $-1 #
straight-curve $-1 20 15 0 -0 -0 -1 I I #
edge $-1 $251 -15 $265 5 $250 $269 forward 7 unknown #
point $-1 20 15 -25 #
vertex $-1 $259 $270 #
straight-curve $-1 0 15 0 0 0 -1 I I #
point $-1 0 5 -25 #
straight-curve $-1 0 5 -25 0 -1 0 I I #
straight-curve $-1 5 15 -25 -1 0 0 I I #
point $-1 0 15 -25 #
End-of-ACIS-data 