600 0 2 0           
24 FBMach with ACIS - 6.0.3 13 ACIS 6.0.3 NT 24 Tue May 22 12:29:55 2001 
1 9.9999999999999995e-007 1e-010 
body $2 $3 $-1 $4 #
bdycol-kcp $-1 1 4 $5 $6 $7 $8 #
model_id-kcp-attrib $-1 $-1 $-1 $0 1 990548995 50 1580335105 1 #
lump $-1 $-1 $9 $0 #
transform $-1 1 0 0 0 1 0 0 0 1 0 0 0 1 no_rotate no_reflect no_shear #
body $10 $11 $-1 $12 #
body $13 $14 $-1 $15 #
body $16 $17 $-1 $18 #
body $19 $20 $-1 $21 #
shell $-1 $-1 $-1 $22 $-1 $3 #
model_id-kcp-attrib $-1 $-1 $-1 $5 1 990548995 60 1580990466 1 #
lump $-1 $-1 $23 $5 #
transform $-1 1 0 0 0 1 0 0 0 1 0 0 -7.5 1 no_rotate no_reflect no_shear #
rgb_color-st-attrib $-1 $24 $-1 $6 1 0 0 #
lump $-1 $-1 $25 $6 #
transform $-1 -3.8285889215894375e-016 0 -1 0 1 0 1 0 -3.8285889215894375e-016 72.972597596632127 -10 -12.500000000000028 1 rotate no_reflect no_shear #
rgb_color-st-attrib $-1 $26 $-1 $7 1 0 0 #
lump $-1 $-1 $27 $7 #
transform $-1 -3.8285889215894375e-016 0 -1 0 1 0 1 0 -3.8285889215894375e-016 72.972597596632127 10 -12.500000000000028 1 rotate no_reflect no_shear #
rgb_color-st-attrib $-1 $28 $-1 $8 1 0.5 1 #
lump $-1 $-1 $29 $8 #
transform $-1 1 0 0 0 1 0 0 0 1 0 0 -7.5 1 no_rotate no_reflect no_shear #
face $30 $31 $32 $9 $-1 $33 forward single #
shell $-1 $-1 $-1 $34 $-1 $11 #
model_id-kcp-attrib $-1 $-1 $13 $6 1 990548995 300 1579941891 1 #
shell $-1 $-1 $-1 $35 $-1 $14 #
model_id-kcp-attrib $-1 $-1 $16 $7 1 990548995 430 1588461572 1 #
shell $-1 $-1 $-1 $36 $-1 $17 #
model_id-kcp-attrib $-1 $-1 $19 $8 1 990548995 570 1580859397 1 #
shell $-1 $-1 $-1 $37 $-1 $20 #
model_id-kcp-attrib $-1 $-1 $-1 $22 1 990548995 50 1580335105 2 #
face $38 $39 $40 $9 $-1 $41 forward single #
loop $-1 $-1 $42 $22 #
plane-surface $-1 5 0 0 0 0 1 1 0 0 forward_v I I I I #
face $43 $44 $45 $23 $-1 $46 forward single #
face $-1 $47 $48 $25 $-1 $49 forward single #
face $-1 $50 $51 $27 $-1 $52 forward single #
face $-1 $53 $54 $29 $-1 $55 forward single #
model_id-kcp-attrib $-1 $-1 $-1 $31 1 990548995 50 1580335105 3 #
face $56 $57 $58 $9 $-1 $59 reversed single #
loop $-1 $-1 $60 $31 #
plane-surface $-1 -10 0 5 1 0 0 0 0 -1 forward_v I I I I #
coedge $-1 $61 $62 $63 $64 reversed $32 $-1 #
model_id-kcp-attrib $-1 $-1 $-1 $34 1 990548995 60 1580990466 4 #
face $65 $66 $67 $23 $-1 $68 reversed single #
loop $-1 $-1 $69 $34 #
plane-surface $-1 0 0 17.5 0 0 1 1 0 0 forward_v I I I I #
face $-1 $70 $71 $25 $-1 $72 reversed single #
loop $-1 $-1 $73 $35 #
plane-surface $-1 -22.5 10 -72.972597596632127 -1 0 -3.8285889215894375e-016 -3.8285889215894375e-016 0 1 forward_v I I I I #
face $-1 $74 $75 $27 $-1 $76 reversed single #
loop $-1 $-1 $77 $36 #
plane-surface $-1 -22.5 -10 -72.972597596632127 -1 0 -3.8285889215894375e-016 -3.8285889215894375e-016 0 1 forward_v I I I I #
face $-1 $78 $79 $29 $-1 $80 forward single #
loop $-1 $-1 $81 $37 #
plane-surface $-1 0 15 7.5 1 0 0 0 0 -1 forward_v I I I I #
model_id-kcp-attrib $-1 $-1 $-1 $39 1 990548995 50 1580335105 4 #
face $82 $83 $84 $9 $-1 $85 reversed single #
loop $-1 $-1 $86 $39 #
plane-surface $-1 20 0 0 -1 0 0 0 0 1 forward_v I I I I #
coedge $-1 $87 $88 $89 $90 reversed $40 $-1 #
coedge $-1 $91 $42 $92 $93 reversed $32 $-1 #
coedge $-1 $42 $94 $86 $95 reversed $32 $-1 #
coedge $-1 $96 $97 $42 $64 forward $98 $-1 #
edge $-1 $99 -7.5 $100 12.5 $63 $101 forward 7 unknown #
model_id-kcp-attrib $-1 $-1 $-1 $44 1 990548995 60 1580990466 8 #
face $102 $103 $104 $23 $-1 $105 reversed single #
loop $-1 $-1 $106 $44 #
plane-surface $-1 0 0 -17.5 0 0 1 1 0 0 forward_v I I I I #
coedge $-1 $107 $108 $109 $110 forward $45 $-1 #
face $-1 $111 $112 $25 $-1 $113 reversed single #
loop $-1 $-1 $114 $47 #
plane-surface $-1 -5.000000000000008 10 -52.972597596632127 3.8285889215894375e-016 0 -1 -1 0 -3.8285889215894375e-016 forward_v I I I I #
coedge $-1 $115 $116 $117 $118 forward $48 $-1 #
face $-1 $119 $120 $27 $-1 $121 reversed single #
loop $-1 $-1 $122 $50 #
plane-surface $-1 12.5 -10 -72.972597596632127 -1 0 -3.8285889215894375e-016 -3.8285889215894375e-016 0 1 forward_v I I I I #
coedge $-1 $123 $124 $125 $126 forward $51 $-1 #
face $-1 $127 $128 $29 $-1 $129 forward single #
loop $-1 $-1 $130 $53 #
plane-surface $-1 0 5 7.5 0 1 0 0 0 1 forward_v I I I I #
coedge $-1 $131 $132 $133 $134 forward $54 $-1 #
model_id-kcp-attrib $-1 $-1 $-1 $57 1 990548995 50 1580335105 5 #
face $135 $136 $137 $9 $-1 $138 forward single #
loop $-1 $-1 $139 $57 #
plane-surface $-1 0 -25 0 0 1 0 0 0 1 forward_v I I I I #
coedge $-1 $140 $141 $62 $95 forward $58 $-1 #
coedge $-1 $142 $60 $143 $144 reversed $40 $-1 #
coedge $-1 $60 $142 $145 $146 forward $40 $-1 #
coedge $-1 $147 $148 $60 $90 forward $149 $-1 #
edge $-1 $150 -7.5 $151 2.5 $89 $152 forward 7 unknown #
coedge $-1 $153 $61 $154 $155 reversed $32 $-1 #
coedge $-1 $156 $157 $61 $93 forward $158 $-1 #
edge $-1 $159 0 $99 10 $92 $160 forward 7 unknown #
coedge $-1 $62 $145 $139 $161 reversed $32 $-1 #
edge $162 $100 15 $163 25 $86 $164 forward 7 unknown #
coedge $-1 $165 $63 $141 $166 reversed $98 $-1 #
coedge $-1 $63 $165 $156 $167 reversed $98 $-1 #
loop $-1 $-1 $63 $168 #
vertex $-1 $93 $169 #
vertex $-1 $166 $170 #
straight-curve $-1 7.5 -15 0 1 0 0 I I #
model_id-kcp-attrib $-1 $-1 $-1 $66 1 990548995 60 1580990466 3 #
face $171 $172 $173 $23 $-1 $174 reversed single #
loop $-1 $-1 $175 $66 #
plane-surface $-1 0 -25 0 0 1 0 0 0 1 forward_v I I I I #
coedge $-1 $176 $177 $178 $179 forward $67 $-1 #
coedge $-1 $180 $69 $181 $182 forward $45 $-1 #
coedge $-1 $69 $180 $183 $184 forward $45 $-1 #
coedge $-1 $185 $186 $69 $110 reversed $187 $-1 #
edge $-1 $188 -25 $189 25 $109 $190 forward 7 unknown #
face $-1 $191 $192 $25 $-1 $193 reversed single #
loop $-1 $-1 $194 $70 #
plane-surface $-1 12.5 10 -72.972597596632127 -1 0 -3.8285889215894375e-016 -3.8285889215894375e-016 0 1 forward_v I I I I #
coedge $-1 $195 $196 $197 $198 forward $71 $-1 #
coedge $-1 $199 $73 $200 $201 forward $48 $-1 #
coedge $-1 $73 $199 $195 $202 forward $48 $-1 #
coedge $-1 $197 $203 $73 $118 reversed $192 $-1 #
edge $-1 $204 16.486298798316064 $205 36.486298798316056 $117 $206 forward 7 unknown #
face $-1 $207 $208 $27 $-1 $209 reversed single #
loop $-1 $-1 $210 $74 #
plane-surface $-1 -5.000000000000008 -10 -52.972597596632127 3.8285889215894375e-016 0 -1 -1 0 -3.8285889215894375e-016 forward_v I I I I #
coedge $-1 $211 $212 $213 $214 forward $75 $-1 #
coedge $-1 $215 $77 $216 $217 forward $51 $-1 #
coedge $-1 $77 $215 $218 $219 forward $51 $-1 #
coedge $-1 $220 $221 $77 $126 reversed $208 $-1 #
edge $-1 $222 16.486298798316064 $223 36.486298798316056 $125 $224 forward 7 unknown #
face $-1 $225 $226 $29 $-1 $227 forward single #
loop $-1 $-1 $228 $78 #
plane-surface $-1 20 5 7.5 1 0 0 0 0 -1 forward_v I I I I #
coedge $-1 $229 $230 $231 $232 forward $79 $-1 #
coedge $-1 $233 $81 $230 $234 reversed $54 $-1 #
coedge $-1 $81 $233 $235 $236 forward $54 $-1 #
coedge $-1 $237 $231 $81 $134 reversed $238 $-1 #
edge $-1 $239 -10 $240 0 $81 $241 forward 7 unknown #
model_id-kcp-attrib $-1 $-1 $-1 $83 1 990548995 50 1580335105 6 #
face $242 $243 $149 $9 $-1 $244 reversed single #
loop $-1 $-1 $143 $83 #
plane-surface $-1 0 0 10 0 0 1 1 0 0 forward_v I I I I #
coedge $-1 $245 $246 $94 $161 forward $84 $-1 #
coedge $-1 $247 $86 $246 $248 forward $58 $-1 #
coedge $-1 $86 $247 $96 $166 forward $58 $-1 #
coedge $-1 $88 $87 $245 $249 reversed $40 $-1 #
coedge $-1 $250 $251 $87 $144 forward $137 $-1 #
edge $252 $253 -25 $150 25 $143 $254 forward 7 unknown #
coedge $-1 $94 $255 $88 $146 reversed $32 $-1 #
edge $-1 $256 -25 $151 25 $88 $257 forward 7 unknown #
coedge $-1 $258 $89 $255 $259 forward $149 $-1 #
coedge $-1 $89 $260 $250 $261 forward $149 $-1 #
loop $-1 $-1 $89 $136 #
vertex $-1 $261 $262 #
vertex $-1 $259 $263 #
straight-curve $-1 -10 25 2.5 0 0 -1 I I #
coedge $-1 $264 $91 $265 $266 reversed $32 $-1 #
coedge $-1 $267 $268 $91 $155 forward $269 $-1 #
edge $-1 $270 -12.5 $159 7.5 $154 $271 forward 7 unknown #
coedge $-1 $272 $92 $97 $167 forward $158 $-1 #
coedge $-1 $92 $272 $267 $273 reversed $158 $-1 #
loop $-1 $-1 $92 $274 #
vertex $-1 $155 $275 #
straight-curve $-1 0 -5 0 0 -1 0 I I #
edge $276 $163 -17.5 $256 12.5 $139 $277 forward 7 unknown #
attrib_edge_convexity-kcp-attrib $-1 $278 $-1 $95 1 #
vertex $-1 $161 $279 #
straight-curve $-1 20 0 0 0 -1 0 I I #
coedge $-1 $97 $96 $280 $281 reversed $98 $-1 #
edge $282 $283 -25 $100 0 $141 $284 forward 7 unknown #
edge $-1 $99 0 $285 25 $156 $286 forward 7 unknown #
face $287 $288 $98 $9 $-1 $289 forward single #
point $-1 0 -15 0 #
point $-1 20 -15 0 #
model_id-kcp-attrib $-1 $-1 $-1 $103 1 990548995 60 1580990466 9 #
face $290 $291 $292 $23 $-1 $293 reversed single #
loop $-1 $-1 $294 $103 #
plane-surface $-1 -20 0 0 1 0 0 0 0 -1 forward_v I I I I #
coedge $-1 $295 $183 $296 $297 forward $104 $-1 #
coedge $-1 $298 $106 $295 $299 forward $67 $-1 #
coedge $-1 $106 $298 $300 $301 forward $67 $-1 #
coedge $-1 $186 $185 $106 $179 reversed $187 $-1 #
edge $-1 $302 -25 $303 25 $178 $304 forward 7 unknown #
coedge $-1 $108 $107 $305 $306 forward $45 $-1 #
coedge $-1 $307 $308 $107 $182 reversed $292 $-1 #
edge $-1 $189 -20 $309 20 $181 $310 forward 7 unknown #
coedge $-1 $175 $311 $108 $184 reversed $104 $-1 #
edge $-1 $312 -20 $188 20 $183 $313 forward 7 unknown #
coedge $-1 $178 $109 $311 $314 forward $187 $-1 #
coedge $-1 $109 $178 $307 $315 reversed $187 $-1 #
loop $-1 $-1 $185 $291 #
vertex $-1 $110 $316 #
vertex $-1 $110 $317 #
straight-curve $-1 20 0 17.5 0 1 0 I I #
face $-1 $318 $319 $25 $-1 $320 reversed single #
loop $-1 $-1 $197 $111 #
plane-surface $-1 0 5 0 0 -1 0 0 0 -1 forward_v I I I I #
coedge $-1 $321 $322 $323 $324 forward $112 $-1 #
coedge $-1 $325 $114 $116 $202 reversed $71 $-1 #
coedge $-1 $114 $325 $321 $326 reversed $71 $-1 #
coedge $-1 $323 $117 $114 $198 reversed $192 $-1 #
edge $-1 $327 -14.999999999999986 $204 20.000000000000014 $197 $328 forward 7 unknown #
coedge $-1 $116 $115 $329 $330 forward $48 $-1 #
coedge $-1 $331 $332 $115 $201 reversed $319 $-1 #
edge $333 $205 0 $334 10 $200 $335 forward 7 unknown #
edge $-1 $336 -15 $204 -5 $195 $337 forward 7 unknown #
coedge $-1 $117 $323 $331 $338 reversed $192 $-1 #
vertex $-1 $118 $339 #
vertex $-1 $338 $340 #
straight-curve $-1 -22.500000000000014 5 -36.486298798316071 3.8285889215894375e-016 0 -1 I I #
face $-1 $341 $342 $27 $-1 $343 reversed single #
loop $-1 $-1 $220 $119 #
plane-surface $-1 0 5 0 0 -1 0 0 0 -1 forward_v I I I I #
coedge $-1 $218 $344 $220 $345 forward $120 $-1 #
coedge $-1 $346 $122 $344 $347 forward $75 $-1 #
coedge $-1 $122 $346 $348 $349 forward $75 $-1 #
coedge $-1 $221 $220 $122 $214 reversed $208 $-1 #
edge $-1 $350 -36.486298798316064 $351 -16.486298798316056 $213 $352 forward 7 unknown #
coedge $-1 $124 $123 $353 $354 forward $51 $-1 #
coedge $-1 $355 $356 $123 $217 reversed $357 $-1 #
edge $358 $223 -10 $359 0 $216 $360 forward 7 unknown #
coedge $-1 $361 $210 $124 $219 reversed $120 $-1 #
edge $-1 $362 5 $222 15 $218 $363 forward 7 unknown #
coedge $-1 $213 $125 $210 $345 reversed $208 $-1 #
coedge $-1 $125 $213 $355 $364 reversed $208 $-1 #
vertex $-1 $126 $365 #
vertex $-1 $364 $366 #
straight-curve $-1 -22.500000000000014 5 -36.486298798316071 3.8285889215894375e-016 0 -1 I I #
face $-1 $367 $368 $29 $-1 $369 forward single #
loop $-1 $-1 $370 $127 #
plane-surface $-1 20 -5 7.5 0 -1 0 0 0 -1 forward_v I I I I #
coedge $-1 $371 $372 $373 $374 forward $128 $-1 #
coedge $-1 $375 $130 $372 $376 reversed $79 $-1 #
coedge $-1 $130 $375 $131 $234 forward $79 $-1 #
coedge $-1 $133 $373 $130 $232 reversed $238 $-1 #
edge $-1 $240 -38.986298798316064 $377 -18.986298798316064 $130 $378 forward 7 unknown #
coedge $-1 $132 $131 $379 $380 reversed $54 $-1 #
edge $-1 $381 0 $240 10 $230 $382 forward 7 unknown #
coedge $-1 $383 $384 $132 $236 reversed $385 $-1 #
edge $-1 $386 0 $239 10 $132 $387 forward 7 unknown #
coedge $-1 $388 $133 $384 $389 reversed $238 $-1 #
loop $-1 $-1 $133 $390 #
vertex $-1 $236 $391 #
vertex $-1 $234 $392 #
straight-curve $-1 4.6133141252437115e-015 5 17.5 0 -1 0 I I #
model_id-kcp-attrib $-1 $-1 $-1 $136 1 990548995 50 1580335105 7 #
face $393 $394 $395 $9 $-1 $59 reversed single #
plane-surface $-1 0 25 0 0 -1 0 0 0 -1 forward_v I I I I #
coedge $-1 $396 $139 $142 $249 forward $84 $-1 #
coedge $-1 $139 $397 $140 $248 reversed $84 $-1 #
coedge $-1 $141 $140 $398 $399 reversed $58 $-1 #
edge $400 $163 0 $401 25 $140 $402 forward 7 unknown #
edge $403 $256 -2.5 $253 7.5 $245 $404 forward 7 unknown #
coedge $-1 $405 $143 $148 $261 reversed $137 $-1 #
coedge $-1 $143 $405 $396 $406 reversed $137 $-1 #
attrib_edge_convexity-kcp-attrib $-1 $407 $-1 $144 1 #
vertex $-1 $144 $408 #
straight-curve $-1 -10 0 10 0 1 0 I I #
coedge $-1 $145 $409 $147 $259 reversed $32 $-1 #
vertex $-1 $161 $410 #
straight-curve $-1 -10 0 0 0 1 0 I I #
coedge $-1 $411 $147 $412 $413 forward $149 $-1 #
edge $-1 $151 -12.5 $414 17.5 $147 $415 forward 7 unknown #
coedge $-1 $148 $411 $416 $417 reversed $149 $-1 #
edge $418 $419 -20 $150 -10 $148 $420 forward 7 unknown #
point $-1 -10 25 10 #
point $-1 -10 25 0 #
coedge $-1 $421 $153 $422 $423 reversed $32 $-1 #
coedge $-1 $424 $425 $153 $266 forward $426 $-1 #
edge $-1 $427 -5 $270 5 $265 $428 forward 7 unknown #
coedge $-1 $429 $154 $157 $273 forward $269 $-1 #
coedge $-1 $154 $429 $424 $430 reversed $269 $-1 #
loop $-1 $-1 $154 $431 #
vertex $-1 $266 $432 #
straight-curve $-1 7.5 -5 0 -1 0 0 I I #
coedge $-1 $157 $156 $433 $434 reversed $158 $-1 #
edge $-1 $159 0 $435 25 $267 $436 forward 7 unknown #
face $437 $168 $158 $9 $-1 $438 forward single #
point $-1 0 -5 0 #
attrib_edge_convexity-kcp-attrib $-1 $439 $-1 $161 1 #
straight-curve $-1 2.5 -25 0 -1 0 0 I I #
convexity-sys-attrib $-1 $-1 $162 $95 #
point $-1 20 -25 0 #
coedge $-1 $398 $433 $165 $281 forward $440 $-1 #
edge $-1 $285 -5 $283 15 $280 $441 forward 7 unknown #
attrib_edge_convexity-kcp-attrib $-1 $442 $-1 $166 1 #
vertex $-1 $166 $443 #
straight-curve $-1 20 -15 0 0 0 1 I I #
vertex $-1 $281 $444 #
straight-curve $-1 0 -15 0 0 0 -1 I I #
model_id-kcp-attrib $-1 $-1 $-1 $168 1 990548995 50 1580335105 15 #
face $445 $446 $440 $9 $-1 $447 reversed single #
plane-surface $-1 10 -15 0 0 1 0 0 0 1 forward_v I I I I #
model_id-kcp-attrib $-1 $-1 $-1 $172 1 990548995 60 1580990466 5 #
face $448 $-1 $187 $23 $-1 $449 reversed single #
loop $-1 $-1 $307 $172 #
plane-surface $-1 0 25 0 0 -1 0 0 0 -1 forward_v I I I I #
coedge $-1 $450 $305 $308 $451 forward $173 $-1 #
coedge $-1 $311 $175 $176 $299 reversed $104 $-1 #
coedge $-1 $305 $450 $175 $297 reversed $173 $-1 #
edge $-1 $312 -17.5 $452 17.5 $296 $453 forward 7 unknown #
coedge $-1 $177 $176 $450 $454 forward $67 $-1 #
edge $-1 $303 -20 $452 20 $295 $455 forward 7 unknown #
coedge $-1 $308 $307 $177 $301 reversed $292 $-1 #
edge $-1 $456 -20 $302 20 $300 $457 forward 7 unknown #
vertex $-1 $179 $458 #
vertex $-1 $314 $459 #
straight-curve $-1 20 0 -17.5 0 -1 0 I I #
coedge $-1 $294 $296 $180 $306 reversed $173 $-1 #
edge $-1 $309 -25 $312 25 $305 $460 forward 7 unknown #
coedge $-1 $300 $181 $186 $315 forward $292 $-1 #
coedge $-1 $181 $300 $294 $451 reversed $292 $-1 #
vertex $-1 $182 $461 #
straight-curve $-1 0 25 17.5 -1 0 0 I I #
coedge $-1 $183 $295 $185 $314 reversed $104 $-1 #
vertex $-1 $306 $462 #
straight-curve $-1 0 -25 17.5 1 0 0 I I #
edge $-1 $188 -17.5 $303 17.5 $185 $463 forward 7 unknown #
edge $-1 $189 -17.5 $302 17.5 $186 $464 forward 7 unknown #
point $-1 20 -25 17.5 #
point $-1 20 25 17.5 #
face $-1 $-1 $465 $25 $-1 $466 reversed single #
loop $-1 $-1 $467 $191 #
plane-surface $-1 0 0 -72.972597596632127 0 0 1 1 0 0 forward_v I I I I #
coedge $-1 $468 $194 $196 $326 forward $112 $-1 #
coedge $-1 $194 $468 $467 $469 forward $112 $-1 #
coedge $-1 $203 $197 $194 $324 reversed $192 $-1 #
edge $-1 $470 -36.486298798316064 $327 -16.486298798316056 $323 $471 forward 7 unknown #
coedge $-1 $196 $195 $472 $473 forward $71 $-1 #
edge $-1 $327 5 $474 15 $196 $475 forward 7 unknown #
vertex $-1 $324 $476 #
straight-curve $-1 -2.4999999999999938 5 -52.972597596632127 -1 0 -3.8285889215894375e-016 I I #
coedge $-1 $477 $472 $199 $330 reversed $465 $-1 #
edge $-1 $334 -36.486298798316056 $336 -16.486298798316064 $329 $478 forward 7 unknown #
coedge $-1 $467 $200 $203 $338 forward $319 $-1 #
coedge $-1 $200 $467 $477 $479 forward $319 $-1 #
convexity-sys-attrib $-1 $-1 $-1 $201 #
vertex $-1 $330 $480 #
straight-curve $-1 -22.5 5 -72.972597596632127 0 -1 0 I I #
vertex $-1 $330 $481 #
straight-curve $-1 -22.500000000000007 10 -52.972597596632134 0 1 0 I I #
edge $482 $205 -22.5 $470 12.5 $203 $483 forward 7 unknown #
point $-1 -22.500000000000007 5 -52.972597596632134 #
point $-1 -22.5 5 -72.972597596632127 #
face $-1 $-1 $357 $27 $-1 $484 reversed single #
loop $-1 $-1 $485 $207 #
plane-surface $-1 0 -5 0 0 1 0 0 0 1 forward_v I I I I #
coedge $-1 $210 $361 $211 $347 reversed $120 $-1 #
edge $-1 $351 -14.999999999999986 $222 20.000000000000014 $220 $486 forward 7 unknown #
coedge $-1 $212 $211 $485 $487 forward $75 $-1 #
edge $-1 $351 -15 $488 -5 $344 $489 forward 7 unknown #
coedge $-1 $356 $355 $212 $349 reversed $357 $-1 #
edge $490 $491 0 $350 10 $348 $492 forward 7 unknown #
vertex $-1 $349 $493 #
vertex $-1 $214 $494 #
straight-curve $-1 12.499999999999986 5 -36.486298798316064 -3.8285889215894375e-016 0 1 I I #
coedge $-1 $495 $496 $215 $354 reversed $342 $-1 #
edge $-1 $359 -36.486298798316056 $362 -16.486298798316064 $353 $497 forward 7 unknown #
coedge $-1 $348 $216 $221 $364 forward $357 $-1 #
coedge $-1 $216 $348 $495 $498 forward $357 $-1 #
loop $-1 $-1 $216 $341 #
convexity-sys-attrib $-1 $-1 $-1 $217 #
vertex $-1 $217 $499 #
straight-curve $-1 -22.5 -5 -72.972597596632127 0 -1 0 I I #
coedge $-1 $344 $218 $496 $500 forward $120 $-1 #
vertex $-1 $354 $501 #
straight-curve $-1 -22.500000000000007 -10 -52.972597596632134 0 1 0 I I #
edge $502 $223 -22.5 $350 12.5 $221 $503 forward 7 unknown #
point $-1 -22.500000000000007 5 -52.972597596632134 #
point $-1 -22.5 5 -72.972597596632127 #
face $-1 $504 $505 $29 $-1 $506 forward single #
loop $-1 $-1 $507 $225 #
plane-surface $-1 0 -5 7.5 1 0 0 0 0 -1 forward_v I I I I #
coedge $-1 $508 $509 $510 $511 forward $226 $-1 #
coedge $-1 $512 $228 $509 $513 reversed $128 $-1 #
coedge $-1 $228 $512 $229 $376 forward $128 $-1 #
coedge $-1 $231 $510 $228 $374 reversed $238 $-1 #
edge $-1 $377 -5 $514 5 $228 $515 forward 7 unknown #
coedge $-1 $230 $229 $516 $517 reversed $79 $-1 #
edge $-1 $518 0 $377 10 $372 $519 forward 7 unknown #
vertex $-1 $376 $520 #
straight-curve $-1 38.986298798316064 5 17.5 1 0 0 I I #
coedge $-1 $516 $521 $233 $380 forward $522 $-1 #
edge $523 $386 -10 $381 0 $233 $524 forward 7 unknown #
vertex $-1 $380 $525 #
straight-curve $-1 0 5 7.5 0 0 1 I I #
coedge $-1 $526 $235 $521 $527 reversed $385 $-1 #
coedge $-1 $235 $526 $237 $389 forward $385 $-1 #
loop $-1 $-1 $384 $528 #
vertex $-1 $527 $529 #
straight-curve $-1 0 15 7.5 0 0 1 I I #
coedge $-1 $530 $237 $531 $532 reversed $238 $-1 #
edge $-1 $533 18.986298798316064 $239 38.986298798316064 $384 $534 forward 7 unknown #
face $-1 $535 $238 $29 $-1 $536 forward single #
point $-1 0 15 17.5 #
point $-1 0 5 17.5 #
model_id-kcp-attrib $-1 $-1 $-1 $243 1 990548995 50 1580335105 8 #
face $537 $538 $539 $9 $-1 $540 forward single #
loop $-1 $-1 $541 $243 #
coedge $-1 $542 $245 $251 $406 forward $84 $-1 #
coedge $-1 $246 $542 $543 $544 reversed $84 $-1 #
coedge $-1 $543 $280 $247 $399 forward $440 $-1 #
edge $545 $283 15 $401 25 $247 $546 forward 7 unknown #
attrib_edge_convexity-kcp-attrib $-1 $547 $-1 $248 1 #
vertex $-1 $248 $548 #
straight-curve $-1 20 -25 0 0 0 -1 I I #
attrib_edge_convexity-kcp-attrib $-1 $549 $-1 $249 1 #
straight-curve $-1 -10 -25 2.5 0 0 1 I I #
coedge $-1 $251 $250 $550 $551 reversed $137 $-1 #
edge $552 $253 10 $553 20 $396 $554 forward 7 unknown #
convexity-sys-attrib $-1 $-1 $252 $144 #
point $-1 -10 -25 10 #
coedge $-1 $255 $555 $541 $556 reversed $32 $-1 #
point $-1 -10 -25 0 #
coedge $-1 $260 $258 $557 $558 reversed $149 $-1 #
coedge $-1 $541 $559 $258 $413 reversed $395 $-1 #
edge $-1 $414 0 $560 25 $412 $561 forward 7 unknown #
vertex $-1 $556 $562 #
straight-curve $-1 2.5 25 0 1 0 0 I I #
coedge $-1 $563 $550 $260 $417 forward $564 $-1 #
edge $-1 $419 -10 $565 25 $260 $566 forward 7 unknown #
attrib_edge_convexity-kcp-attrib $-1 $567 $-1 $261 1 #
vertex $-1 $551 $568 #
straight-curve $-1 0 25 10 1 0 0 I I #
coedge $-1 $555 $264 $569 $570 reversed $32 $-1 #
coedge $-1 $571 $572 $264 $423 forward $573 $-1 #
edge $-1 $574 -7.5 $427 12.5 $422 $575 forward 7 unknown #
coedge $-1 $576 $265 $268 $430 forward $426 $-1 #
coedge $-1 $265 $576 $571 $577 forward $426 $-1 #
loop $-1 $-1 $265 $578 #
vertex $-1 $577 $579 #
straight-curve $-1 20 0 0 0 -1 0 I I #
coedge $-1 $268 $267 $580 $581 reversed $269 $-1 #
edge $-1 $270 0 $582 25 $424 $583 forward 7 unknown #
face $584 $274 $269 $9 $-1 $585 forward single #
point $-1 20 -5 0 #
coedge $-1 $280 $580 $272 $434 forward $440 $-1 #
edge $-1 $435 0 $285 10 $433 $586 forward 7 unknown #
vertex $-1 $434 $587 #
straight-curve $-1 0 -5 0 0 0 -1 I I #
model_id-kcp-attrib $-1 $-1 $-1 $274 1 990548995 50 1580335105 14 #
plane-surface $-1 0 -10 0 1 0 0 0 0 -1 forward_v I I I I #
convexity-sys-attrib $-1 $-1 $276 $161 #
loop $-1 $-1 $588 $288 #
straight-curve $-1 5 -15 -25 1 0 0 I I #
convexity-sys-attrib $-1 $-1 $282 $166 #
point $-1 20 -15 -25 #
point $-1 0 -15 -25 #
model_id-kcp-attrib $-1 $-1 $-1 $288 1 990548995 50 1580335105 16 #
face $589 $-1 $564 $9 $-1 $590 reversed single #
plane-surface $-1 0 0 -25 0 0 1 1 0 0 forward_v I I I I #
model_id-kcp-attrib $-1 $591 $-1 $291 1 990548995 60 1580990466 7 #
plane-surface $-1 20 0 0 -1 0 0 0 0 1 forward_v I I I I #
coedge $-1 $296 $294 $298 $454 reversed $173 $-1 #
edge $-1 $309 -17.5 $456 17.5 $308 $592 forward 7 unknown #
vertex $-1 $454 $593 #
straight-curve $-1 -20 -25 0 0 0 -1 I I #
edge $-1 $452 -25 $456 25 $450 $594 forward 7 unknown #
straight-curve $-1 0 -25 -17.5 -1 0 0 I I #
vertex $-1 $301 $595 #
straight-curve $-1 0 25 -17.5 1 0 0 I I #
point $-1 20 25 -17.5 #
point $-1 20 -25 -17.5 #
straight-curve $-1 -20 0 17.5 0 -1 0 I I #
point $-1 -20 25 17.5 #
point $-1 -20 -25 17.5 #
straight-curve $-1 20 -25 0 0 0 -1 I I #
straight-curve $-1 20 25 0 0 0 -1 I I #
loop $-1 $-1 $596 $318 #
plane-surface $-1 0 -5 0 0 1 0 0 0 1 forward_v I I I I #
coedge $-1 $332 $331 $322 $469 reversed $319 $-1 #
coedge $-1 $322 $321 $596 $597 forward $112 $-1 #
edge $598 $599 -10 $470 0 $467 $600 forward 7 unknown #
vertex $-1 $469 $601 #
straight-curve $-1 12.499999999999986 5 -36.486298798316064 -3.8285889215894375e-016 0 1 I I #
coedge $-1 $329 $596 $325 $473 reversed $465 $-1 #
edge $-1 $336 -20.000000000000014 $474 14.999999999999986 $472 $602 forward 7 unknown #
vertex $-1 $597 $603 #
straight-curve $-1 12.499999999999993 10 -52.97259759663212 0 -1 0 I I #
point $-1 12.499999999999993 5 -52.97259759663212 #
coedge $-1 $596 $329 $332 $479 reversed $465 $-1 #
straight-curve $-1 -22.500000000000014 -5 -36.486298798316071 -3.8285889215894375e-016 0 1 I I #
edge $604 $599 -12.5 $334 22.5 $477 $605 forward 7 unknown #
point $-1 -22.5 -5 -72.972597596632127 #
point $-1 -22.500000000000007 -5 -52.972597596632134 #
convexity-sys-attrib $-1 $-1 $-1 $338 #
straight-curve $-1 0 5 -72.972597596632127 1 0 0 I I #
plane-surface $-1 0 0 -72.972597596632127 0 0 1 1 0 0 forward_v I I I I #
coedge $-1 $496 $495 $346 $487 reversed $342 $-1 #
straight-curve $-1 -2.4999999999999938 5 -52.972597596632127 -1 0 -3.8285889215894375e-016 I I #
edge $-1 $488 16.486298798316056 $491 36.486298798316064 $485 $606 forward 7 unknown #
vertex $-1 $487 $607 #
straight-curve $-1 12.499999999999993 -10 -52.97259759663212 0 -1 0 I I #
convexity-sys-attrib $-1 $-1 $-1 $349 #
vertex $-1 $498 $608 #
straight-curve $-1 12.5 -5 -72.972597596632127 0 1 0 I I #
point $-1 12.5 5 -72.972597596632127 #
point $-1 12.499999999999993 5 -52.97259759663212 #
coedge $-1 $485 $353 $356 $498 reversed $342 $-1 #
coedge $-1 $353 $485 $361 $500 reversed $342 $-1 #
straight-curve $-1 -22.500000000000014 -5 -36.486298798316071 -3.8285889215894375e-016 0 1 I I #
edge $609 $491 -12.5 $359 22.5 $495 $610 forward 7 unknown #
point $-1 -22.5 -5 -72.972597596632127 #
edge $-1 $362 -20.000000000000014 $488 14.999999999999986 $496 $611 forward 7 unknown #
point $-1 -22.500000000000007 -5 -52.972597596632134 #
convexity-sys-attrib $-1 $-1 $-1 $364 #
straight-curve $-1 0 5 -72.972597596632127 1 0 0 I I #
face $-1 $612 $613 $29 $-1 $614 forward single #
loop $-1 $-1 $615 $367 #
plane-surface $-1 0 -15 7.5 0 1 0 0 0 1 forward_v I I I I #
coedge $-1 $616 $617 $618 $619 forward $368 $-1 #
coedge $-1 $620 $370 $617 $621 reversed $226 $-1 #
coedge $-1 $370 $620 $371 $513 forward $226 $-1 #
coedge $-1 $373 $618 $370 $511 reversed $238 $-1 #
edge $-1 $514 18.986298798316064 $622 38.986298798316064 $370 $623 forward 7 unknown #
coedge $-1 $372 $371 $624 $625 reversed $128 $-1 #
edge $-1 $626 0 $514 10 $509 $627 forward 7 unknown #
vertex $-1 $513 $628 #
straight-curve $-1 20 0 17.5 0 -1 0 I I #
coedge $-1 $624 $379 $375 $517 forward $522 $-1 #
edge $629 $381 -38.986298798316064 $518 -18.986298798316064 $375 $630 forward 7 unknown #
vertex $-1 $517 $631 #
straight-curve $-1 20 5 7.5 0 0 1 I I #
point $-1 20 5 17.5 #
coedge $-1 $379 $632 $383 $527 forward $522 $-1 #
loop $-1 $-1 $521 $535 #
convexity-sys-attrib $-1 $-1 $-1 $380 #
straight-curve $-1 4.6133141252437115e-015 5 7.5 0 -1 0 I I #
point $-1 0 5 7.5 #
coedge $-1 $384 $383 $633 $634 forward $385 $-1 #
edge $635 $636 18.986298798316064 $386 38.986298798316064 $383 $637 forward 7 unknown #
face $-1 $390 $385 $29 $-1 $638 forward single #
point $-1 0 15 7.5 #
coedge $-1 $639 $388 $640 $641 reversed $238 $-1 #
coedge $-1 $633 $642 $388 $532 forward $643 $-1 #
edge $-1 $644 -25 $533 -15 $531 $645 forward 7 unknown #
vertex $-1 $634 $646 #
straight-curve $-1 38.986298798316064 15 17.5 -1 0 0 I I #
face $-1 $-1 $522 $29 $-1 $647 reversed single #
plane-surface $-1 4.9999999999999991 -2.2204460492503131e-016 17.5 0 0 1 1 0 0 forward_v I I I I #
model_id-kcp-attrib $-1 $-1 $-1 $394 1 990548995 50 1580335105 9 #
face $648 $649 $650 $9 $-1 $651 forward single #
loop $-1 $-1 $652 $394 #
plane-surface $-1 10 15 0 0 -1 0 0 0 -1 forward_v I I I I #
coedge $-1 $653 $412 $409 $556 forward $395 $-1 #
coedge $-1 $397 $396 $654 $655 forward $84 $-1 #
coedge $-1 $656 $398 $397 $544 forward $440 $-1 #
edge $657 $401 -20 $658 20 $397 $659 forward 7 unknown #
attrib_edge_convexity-kcp-attrib $-1 $660 $-1 $399 1 #
straight-curve $-1 20 0 -25 0 -1 0 I I #
convexity-sys-attrib $-1 $-1 $400 $248 #
point $-1 20 -25 -25 #
convexity-sys-attrib $-1 $-1 $403 $249 #
coedge $-1 $416 $654 $405 $551 forward $564 $-1 #
edge $661 $553 -25 $419 25 $550 $662 forward 7 unknown #
attrib_edge_convexity-kcp-attrib $-1 $663 $-1 $406 1 #
vertex $-1 $406 $664 #
straight-curve $-1 0 -25 10 -1 0 0 I I #
coedge $-1 $409 $421 $652 $665 reversed $32 $-1 #
edge $-1 $414 -25 $666 -15 $541 $667 forward 7 unknown #
coedge $-1 $668 $656 $411 $558 forward $440 $-1 #
edge $-1 $565 -20 $560 20 $411 $669 forward 7 unknown #
coedge $-1 $412 $653 $668 $670 reversed $395 $-1 #
vertex $-1 $670 $671 #
straight-curve $-1 20 25 0 0 0 -1 I I #
point $-1 20 25 0 #
coedge $-1 $654 $416 $656 $672 reversed $564 $-1 #
loop $-1 $-1 $550 $446 #
vertex $-1 $558 $673 #
straight-curve $-1 -20 25 0 0 0 -1 I I #
convexity-sys-attrib $-1 $-1 $418 $261 #
point $-1 -20 25 10 #
coedge $-1 $674 $675 $421 $570 forward $650 $-1 #
edge $-1 $676 -10 $574 0 $569 $677 forward 7 unknown #
coedge $-1 $678 $422 $425 $577 reversed $573 $-1 #
coedge $-1 $422 $678 $674 $679 reversed $573 $-1 #
loop $-1 $-1 $422 $649 #
vertex $-1 $570 $680 #
straight-curve $-1 7.5 5 0 1 0 0 I I #
coedge $-1 $425 $424 $681 $682 reversed $426 $-1 #
edge $-1 $683 -25 $427 0 $425 $684 forward 7 unknown #
face $685 $431 $426 $9 $-1 $59 reversed single #
point $-1 20 5 0 #
coedge $-1 $433 $681 $429 $581 forward $440 $-1 #
edge $-1 $582 -15 $435 5 $580 $686 forward 7 unknown #
vertex $-1 $682 $687 #
straight-curve $-1 20 -5 0 0 0 -1 I I #
model_id-kcp-attrib $-1 $-1 $-1 $431 1 990548995 50 1580335105 13 #
plane-surface $-1 10 -5 0 0 -1 0 0 0 -1 forward_v I I I I #
straight-curve $-1 0 -5 -25 0 -1 0 I I #
point $-1 0 -5 -25 #
coedge $-1 $681 $688 $678 $689 forward $440 $-1 #
model_id-kcp-attrib $-1 $-1 $-1 $446 1 990548995 50 1580335105 17 #
plane-surface $-1 -20 0 0 1 0 0 0 0 -1 forward_v I I I I #
model_id-kcp-attrib $-1 $690 $448 $291 1 990548995 60 1580990466 6 #
straight-curve $-1 -20 25 0 0 0 -1 I I #
point $-1 -20 -25 -17.5 #
straight-curve $-1 -20 0 -17.5 0 1 0 I I #
point $-1 -20 25 -17.5 #
coedge $-1 $472 $477 $468 $597 reversed $465 $-1 #
edge $-1 $474 16.486298798316056 $599 36.486298798316064 $596 $691 forward 7 unknown #
convexity-sys-attrib $-1 $-1 $-1 $469 #
vertex $-1 $479 $692 #
straight-curve $-1 12.5 5 -72.972597596632127 0 1 0 I I #
point $-1 12.5 5 -72.972597596632127 #
straight-curve $-1 -2.4999999999999938 -5 -52.972597596632127 1 0 3.8285889215894375e-016 I I #
point $-1 12.499999999999993 -5 -52.97259759663212 #
convexity-sys-attrib $-1 $-1 $-1 $479 #
straight-curve $-1 0 -5 -72.972597596632127 -1 0 0 I I #
straight-curve $-1 12.499999999999986 -5 -36.486298798316064 3.8285889215894375e-016 0 -1 I I #
point $-1 12.499999999999993 -5 -52.97259759663212 #
point $-1 12.5 -5 -72.972597596632127 #
convexity-sys-attrib $-1 $-1 $-1 $498 #
straight-curve $-1 0 -5 -72.972597596632127 -1 0 0 I I #
straight-curve $-1 -2.4999999999999938 -5 -52.972597596632127 1 0 3.8285889215894375e-016 I I #
face $-1 $693 $694 $29 $-1 $695 forward single #
loop $-1 $-1 $696 $504 #
plane-surface $-1 20 -15 7.5 1 0 0 0 0 -1 forward_v I I I I #
coedge $-1 $697 $698 $699 $700 forward $505 $-1 #
coedge $-1 $701 $507 $698 $702 reversed $368 $-1 #
coedge $-1 $507 $701 $508 $621 forward $368 $-1 #
coedge $-1 $510 $699 $507 $619 reversed $238 $-1 #
edge $-1 $622 0 $703 10 $507 $704 forward 7 unknown #
coedge $-1 $509 $508 $705 $706 reversed $226 $-1 #
edge $-1 $707 0 $622 10 $617 $708 forward 7 unknown #
vertex $-1 $621 $709 #
straight-curve $-1 38.986298798316064 -5 17.5 -1 0 0 I I #
coedge $-1 $705 $516 $512 $625 forward $522 $-1 #
edge $710 $518 -5 $626 5 $512 $711 forward 7 unknown #
vertex $-1 $625 $712 #
straight-curve $-1 20 -5 7.5 0 0 1 I I #
point $-1 20 -5 17.5 #
convexity-sys-attrib $-1 $-1 $-1 $517 #
straight-curve $-1 38.986298798316064 5 7.5 1 0 0 I I #
point $-1 20 5 7.5 #
coedge $-1 $521 $713 $714 $715 forward $522 $-1 #
coedge $-1 $714 $531 $526 $634 reversed $643 $-1 #
edge $-1 $636 0 $533 10 $526 $716 forward 7 unknown #
convexity-sys-attrib $-1 $-1 $-1 $527 #
vertex $-1 $527 $717 #
straight-curve $-1 38.986298798316064 15 7.5 -1 0 0 I I #
plane-surface $-1 20 15 7.5 0 -1 0 0 0 -1 forward_v I I I I #
coedge $-1 $718 $530 $719 $720 reversed $238 $-1 #
coedge $-1 $721 $722 $530 $641 forward $723 $-1 #
edge $-1 $724 -12.5 $644 17.5 $640 $725 forward 7 unknown #
coedge $-1 $531 $714 $721 $726 forward $643 $-1 #
loop $-1 $-1 $531 $727 #
vertex $-1 $726 $728 #
straight-curve $-1 20 0 17.5 0 -1 0 I I #
point $-1 20 15 17.5 #
plane-surface $-1 4.9999999999999991 -2.2204460492503131e-016 7.5 0 0 1 1 0 0 forward_v I I I I #
model_id-kcp-attrib $-1 $-1 $-1 $538 1 990548995 50 1580335105 10 #
face $729 $578 $573 $9 $-1 $730 forward single #
loop $-1 $-1 $569 $538 #
plane-surface $-1 0 10 0 1 0 0 0 0 -1 forward_v I I I I #
coedge $-1 $731 $732 $555 $665 forward $539 $-1 #
coedge $-1 $559 $541 $732 $733 forward $395 $-1 #
coedge $-1 $550 $563 $542 $655 reversed $564 $-1 #
edge $734 $553 -10 $658 25 $654 $735 forward 7 unknown #
coedge $-1 $557 $543 $563 $672 forward $440 $-1 #
attrib_edge_convexity-kcp-attrib $-1 $736 $-1 $544 1 #
vertex $-1 $672 $737 #
straight-curve $-1 0 -25 -25 -1 0 0 I I #
convexity-sys-attrib $-1 $-1 $545 $399 #
attrib_edge_convexity-kcp-attrib $-1 $738 $-1 $551 1 #
straight-curve $-1 -20 0 10 0 1 0 I I #
convexity-sys-attrib $-1 $-1 $552 $406 #
point $-1 -20 -25 10 #
edge $-1 $666 -12.5 $676 7.5 $652 $739 forward 7 unknown #
vertex $-1 $665 $740 #
straight-curve $-1 20 0 0 0 -1 0 I I #
coedge $-1 $741 $557 $559 $670 forward $440 $-1 #
straight-curve $-1 0 25 -25 1 0 0 I I #
edge $-1 $560 -25 $742 -15 $559 $546 forward 7 unknown #
point $-1 20 25 -25 #
edge $-1 $658 -25 $565 25 $563 $743 forward 7 unknown #
point $-1 -20 25 -25 #
coedge $-1 $744 $569 $572 $679 forward $650 $-1 #
coedge $-1 $569 $744 $731 $745 reversed $650 $-1 #
vertex $-1 $665 $746 #
straight-curve $-1 0 5 0 0 -1 0 I I #
coedge $-1 $572 $571 $588 $689 reversed $573 $-1 #
edge $-1 $574 0 $747 25 $674 $748 forward 7 unknown #
point $-1 0 5 0 #
coedge $-1 $580 $588 $576 $682 forward $440 $-1 #
edge $-1 $683 -5 $582 5 $576 $546 forward 7 unknown #
vertex $-1 $577 $749 #
straight-curve $-1 20 5 0 0 0 1 I I #
model_id-kcp-attrib $-1 $-1 $-1 $578 1 990548995 50 1580335105 12 #
straight-curve $-1 5 -5 -25 -1 0 0 I I #
point $-1 20 -5 -25 #
coedge $-1 $588 $741 $744 $750 forward $440 $-1 #
edge $-1 $747 -5 $683 15 $588 $751 forward 7 unknown #
model_id-kcp-attrib $-1 $-1 $591 $291 1 990548995 60 1580990466 2 #
straight-curve $-1 12.499999999999986 -5 -36.486298798316064 3.8285889215894375e-016 0 -1 I I #
point $-1 12.5 -5 -72.972597596632127 #
face $-1 $752 $753 $29 $-1 $754 forward single #
loop $-1 $-1 $755 $612 #
plane-surface $-1 20 -25 7.5 0 -1 0 0 0 -1 forward_v I I I I #
coedge $-1 $756 $757 $758 $759 forward $613 $-1 #
coedge $-1 $760 $615 $757 $761 reversed $505 $-1 #
coedge $-1 $615 $760 $616 $702 forward $505 $-1 #
coedge $-1 $618 $758 $615 $700 reversed $238 $-1 #
edge $-1 $703 -38.986298798316064 $762 -18.986298798316064 $615 $763 forward 7 unknown #
coedge $-1 $617 $616 $764 $765 reversed $368 $-1 #
edge $-1 $766 0 $703 10 $698 $767 forward 7 unknown #
vertex $-1 $702 $768 #
straight-curve $-1 4.6133141252437115e-015 -5 17.5 0 -1 0 I I #
coedge $-1 $764 $624 $620 $706 forward $522 $-1 #
edge $769 $626 18.986298798316064 $707 38.986298798316064 $620 $770 forward 7 unknown #
vertex $-1 $706 $771 #
straight-curve $-1 0 -5 7.5 0 0 1 I I #
point $-1 0 -5 17.5 #
convexity-sys-attrib $-1 $-1 $-1 $625 #
straight-curve $-1 20 0 7.5 0 -1 0 I I #
point $-1 20 -5 7.5 #
coedge $-1 $632 $772 $773 $774 forward $522 $-1 #
coedge $-1 $642 $633 $632 $715 reversed $643 $-1 #
edge $775 $776 -25 $636 -15 $714 $777 forward 7 unknown #
straight-curve $-1 20 15 7.5 0 0 1 I I #
point $-1 20 15 7.5 #
coedge $-1 $758 $639 $755 $778 reversed $238 $-1 #
coedge $-1 $779 $780 $639 $720 forward $753 $-1 #
edge $-1 $781 -25 $724 25 $719 $782 forward 7 unknown #
coedge $-1 $773 $640 $642 $726 reversed $723 $-1 #
coedge $-1 $640 $773 $779 $783 forward $723 $-1 #
loop $-1 $-1 $640 $752 #
vertex $-1 $783 $784 #
straight-curve $-1 2.5 25 17.5 1 0 0 I I #
edge $-1 $776 0 $644 10 $642 $785 forward 7 unknown #
face $-1 $528 $643 $29 $-1 $786 forward single #
point $-1 20 25 17.5 #
model_id-kcp-attrib $-1 $-1 $-1 $649 1 990548995 50 1580335105 11 #
plane-surface $-1 10 5 0 0 1 0 0 0 1 forward_v I I I I #
coedge $-1 $787 $652 $675 $745 forward $539 $-1 #
coedge $-1 $652 $787 $653 $733 reversed $539 $-1 #
edge $-1 $666 0 $742 25 $653 $788 forward 7 unknown #
attrib_edge_convexity-kcp-attrib $-1 $789 $-1 $655 1 #
straight-curve $-1 -20 -25 0 0 0 -1 I I #
convexity-sys-attrib $-1 $-1 $657 $544 #
point $-1 -20 -25 -25 #
convexity-sys-attrib $-1 $-1 $661 $551 #
straight-curve $-1 7.5 15 0 -1 0 0 I I #
point $-1 20 15 0 #
coedge $-1 $688 $668 $787 $790 forward $440 $-1 #
vertex $-1 $670 $791 #
straight-curve $-1 -20 0 -25 0 1 0 I I #
coedge $-1 $675 $674 $688 $750 reversed $650 $-1 #
edge $-1 $676 0 $792 25 $731 $793 forward 7 unknown #
point $-1 0 15 0 #
vertex $-1 $689 $794 #
straight-curve $-1 0 5 0 0 0 -1 I I #
point $-1 20 5 -25 #
edge $-1 $792 -10 $747 0 $688 $795 forward 7 unknown #
straight-curve $-1 5 5 -25 1 0 0 I I #
face $-1 $727 $723 $29 $-1 $796 forward single #
loop $-1 $-1 $719 $693 #
plane-surface $-1 -10 -25 7.5 -1 0 0 0 0 1 forward_v I I I I #
coedge $-1 $797 $798 $718 $778 forward $694 $-1 #
coedge $-1 $799 $696 $798 $800 reversed $613 $-1 #
coedge $-1 $696 $799 $697 $761 forward $613 $-1 #
coedge $-1 $699 $718 $696 $759 reversed $238 $-1 #
edge $-1 $762 15 $801 25 $696 $802 forward 7 unknown #
coedge $-1 $698 $697 $803 $804 reversed $505 $-1 #
edge $-1 $805 0 $762 10 $757 $806 forward 7 unknown #
vertex $-1 $761 $807 #
straight-curve $-1 38.986298798316064 -15 17.5 1 0 0 I I #
coedge $-1 $803 $705 $701 $765 forward $522 $-1 #
edge $808 $707 0 $766 10 $701 $809 forward 7 unknown #
vertex $-1 $765 $810 #
straight-curve $-1 0 -15 7.5 0 0 1 I I #
point $-1 0 -15 17.5 #
convexity-sys-attrib $-1 $-1 $-1 $706 #
straight-curve $-1 38.986298798316064 -5 7.5 -1 0 0 I I #
point $-1 0 -5 7.5 #
coedge $-1 $713 $811 $812 $813 forward $522 $-1 #
coedge $-1 $722 $721 $713 $774 reversed $723 $-1 #
edge $814 $815 -12.5 $776 17.5 $773 $816 forward 7 unknown #
convexity-sys-attrib $-1 $-1 $-1 $715 #
vertex $-1 $774 $817 #
straight-curve $-1 20 0 7.5 0 -1 0 I I #
edge $-1 $801 -17.5 $781 12.5 $755 $818 forward 7 unknown #
coedge $-1 $812 $719 $722 $783 reversed $753 $-1 #
coedge $-1 $719 $812 $797 $819 forward $753 $-1 #
vertex $-1 $819 $820 #
straight-curve $-1 -10 0 17.5 0 1 0 I I #
edge $-1 $815 0 $724 10 $722 $821 forward 7 unknown #
point $-1 -10 25 17.5 #
straight-curve $-1 20 25 7.5 0 0 1 I I #
plane-surface $-1 20 25 7.5 1 0 0 0 0 -1 forward_v I I I I #
coedge $-1 $732 $731 $741 $790 reversed $539 $-1 #
straight-curve $-1 20 15 0 0 0 -1 I I #
convexity-sys-attrib $-1 $-1 $734 $655 #
edge $-1 $742 -15 $792 5 $741 $822 forward 7 unknown #
point $-1 20 15 -25 #
vertex $-1 $750 $823 #
straight-curve $-1 0 15 0 0 0 -1 I I #
point $-1 0 5 -25 #
straight-curve $-1 0 5 -25 0 -1 0 I I #
plane-surface $-1 -10 25 7.5 0 1 0 0 0 1 forward_v I I I I #
coedge $-1 $824 $755 $780 $819 reversed $694 $-1 #
coedge $-1 $755 $824 $756 $800 forward $694 $-1 #
coedge $-1 $757 $756 $825 $826 reversed $613 $-1 #
edge $-1 $827 0 $801 10 $798 $828 forward 7 unknown #
vertex $-1 $800 $829 #
straight-curve $-1 20 0 17.5 0 -1 0 I I #
coedge $-1 $825 $764 $760 $804 forward $522 $-1 #
edge $830 $766 -38.986298798316064 $805 -18.986298798316064 $760 $831 forward 7 unknown #
vertex $-1 $804 $832 #
straight-curve $-1 20 -15 7.5 0 0 1 I I #
point $-1 20 -15 17.5 #
convexity-sys-attrib $-1 $-1 $-1 $765 #
straight-curve $-1 4.6133141252437115e-015 -5 7.5 0 -1 0 I I #
point $-1 0 -15 7.5 #
coedge $-1 $772 $825 $824 $833 forward $522 $-1 #
coedge $-1 $780 $779 $772 $813 reversed $753 $-1 #
edge $834 $835 -25 $815 25 $812 $836 forward 7 unknown #
convexity-sys-attrib $-1 $-1 $-1 $774 #
vertex $-1 $813 $837 #
straight-curve $-1 2.5 25 7.5 1 0 0 I I #
point $-1 20 25 7.5 #
straight-curve $-1 2.5 -25 17.5 -1 0 0 I I #
edge $-1 $835 0 $781 10 $780 $838 forward 7 unknown #
point $-1 -10 -25 17.5 #
straight-curve $-1 -10 25 7.5 0 0 1 I I #
straight-curve $-1 5 15 -25 -1 0 0 I I #
point $-1 0 15 -25 #
coedge $-1 $798 $797 $811 $833 reversed $694 $-1 #
coedge $-1 $811 $803 $799 $826 forward $522 $-1 #
edge $839 $805 15 $827 25 $799 $840 forward 7 unknown #
vertex $-1 $826 $841 #
straight-curve $-1 20 -25 7.5 0 0 1 I I #
point $-1 20 -25 17.5 #
convexity-sys-attrib $-1 $-1 $-1 $804 #
straight-curve $-1 38.986298798316064 -15 7.5 1 0 0 I I #
point $-1 20 -15 7.5 #
edge $842 $827 -17.5 $835 12.5 $824 $843 forward 7 unknown #
convexity-sys-attrib $-1 $-1 $-1 $813 #
vertex $-1 $833 $844 #
straight-curve $-1 -10 0 7.5 0 1 0 I I #
point $-1 -10 25 7.5 #
straight-curve $-1 -10 -25 7.5 0 0 1 I I #
convexity-sys-attrib $-1 $-1 $-1 $826 #
straight-curve $-1 20 0 7.5 0 -1 0 I I #
point $-1 20 -25 7.5 #
convexity-sys-attrib $-1 $-1 $-1 $833 #
straight-curve $-1 2.5 -25 7.5 -1 0 0 I I #
point $-1 -10 -25 7.5 #
End-of-ACIS-data 