105 271 1 0                             
body $-1 $1 $-1 $-1 #
lump $-1 $-1 $2 $0 #
shell $-1 $-1 $-1 $3 $1 #
face $-1 $4 $5 $2 $-1 $6 forward single #
face $-1 $7 $8 $2 $-1 $9 forward single #
loop $-1 $-1 $10 $3 #
plane-surface $-1 5 0 0 0 0 1 1 0 0 0 #
face $-1 $11 $12 $2 $-1 $13 reversed single #
loop $-1 $-1 $14 $4 #
plane-surface $-1 -10 0 5 1 0 0 0 0 -1 0 #
coedge $-1 $15 $16 $17 $18 1 $5 $-1 #
face $-1 $19 $20 $2 $-1 $21 reversed single #
loop $-1 $-1 $22 $7 #
plane-surface $-1 20 0 0 -1 0 0 0 -0 1 0 #
coedge $-1 $23 $24 $25 $26 1 $8 $-1 #
coedge $-1 $27 $10 $28 $29 1 $5 $-1 #
coedge $-1 $10 $30 $22 $31 1 $5 $-1 #
coedge $-1 $32 $33 $10 $18 0 $34 $-1 #
edge $-1 $35 $36 $17 $37 0 #
face $-1 $38 $39 $2 $-1 $40 forward single #
loop $-1 $-1 $41 $11 #
plane-surface $-1 0 -25 0 0 1 -0 -0 0 1 0 #
coedge $-1 $42 $43 $16 $31 0 $12 $-1 #
coedge $-1 $44 $14 $45 $46 1 $8 $-1 #
coedge $-1 $14 $44 $47 $48 0 $8 $-1 #
coedge $-1 $49 $50 $14 $26 0 $51 $-1 #
edge $-1 $52 $53 $25 $54 0 #
coedge $-1 $55 $15 $56 $57 1 $5 $-1 #
coedge $-1 $58 $59 $15 $29 0 $60 $-1 #
edge $-1 $61 $35 $28 $62 0 #
coedge $-1 $16 $47 $41 $63 1 $5 $-1 #
edge $-1 $36 $64 $22 $65 0 #
coedge $-1 $66 $17 $43 $67 1 $34 $-1 #
coedge $-1 $17 $66 $58 $68 1 $34 $-1 #
loop $-1 $-1 $17 $69 #
vertex $-1 $29 $70 #
vertex $-1 $67 $71 #
straight-curve $-1 7.5 -15 0 1 0 0 #
face $-1 $72 $51 $2 $-1 $73 reversed single #
loop $-1 $-1 $45 $19 #
plane-surface $-1 0 0 10 0 0 1 1 0 0 0 #
coedge $-1 $74 $75 $30 $63 0 $20 $-1 #
coedge $-1 $76 $22 $75 $77 0 $12 $-1 #
coedge $-1 $22 $76 $32 $67 0 $12 $-1 #
coedge $-1 $24 $23 $74 $78 1 $8 $-1 #
coedge $-1 $79 $80 $23 $46 0 $39 $-1 #
edge $-1 $81 $52 $45 $82 0 #
coedge $-1 $30 $83 $24 $48 1 $5 $-1 #
edge $-1 $84 $53 $24 $85 0 #
coedge $-1 $86 $25 $83 $87 0 $51 $-1 #
coedge $-1 $25 $88 $79 $89 0 $51 $-1 #
loop $-1 $-1 $25 $38 #
vertex $-1 $89 $90 #
vertex $-1 $87 $91 #
straight-curve $-1 -10 25 2.5 0 0 -1 #
coedge $-1 $92 $27 $93 $94 1 $5 $-1 #
coedge $-1 $95 $96 $27 $57 0 $97 $-1 #
edge $-1 $98 $61 $56 $99 0 #
coedge $-1 $100 $28 $33 $68 0 $60 $-1 #
coedge $-1 $28 $100 $95 $101 1 $60 $-1 #
loop $-1 $-1 $28 $102 #
vertex $-1 $57 $103 #
straight-curve $-1 0 -5 0 0 -1 0 #
edge $-1 $64 $84 $41 $104 0 #
vertex $-1 $63 $105 #
straight-curve $-1 20 0 0 0 -1 0 #
coedge $-1 $33 $32 $106 $107 1 $34 $-1 #
edge $-1 $108 $36 $43 $109 0 #
edge $-1 $35 $110 $58 $111 0 #
face $-1 $112 $34 $2 $-1 $113 forward single #
point $-1 0 -15 0 #
point $-1 20 -15 0 #
face $-1 $114 $115 $2 $-1 $13 reversed single #
plane-surface $-1 0 25 0 0 -1 0 0 0 -1 0 #
coedge $-1 $116 $41 $44 $78 0 $20 $-1 #
coedge $-1 $41 $117 $42 $77 1 $20 $-1 #
coedge $-1 $43 $42 $118 $119 1 $12 $-1 #
edge $-1 $64 $120 $42 $121 0 #
edge $-1 $84 $81 $74 $122 0 #
coedge $-1 $123 $45 $50 $89 1 $39 $-1 #
coedge $-1 $45 $123 $116 $124 1 $39 $-1 #
vertex $-1 $46 $125 #
straight-curve $-1 -10 0 10 0 1 0 #
coedge $-1 $47 $126 $49 $87 1 $5 $-1 #
vertex $-1 $63 $127 #
straight-curve $-1 -10 0 0 0 1 0 #
coedge $-1 $128 $49 $129 $130 0 $51 $-1 #
edge $-1 $53 $131 $49 $132 0 #
coedge $-1 $50 $128 $133 $134 1 $51 $-1 #
edge $-1 $135 $52 $50 $136 0 #
point $-1 -10 25 10 #
point $-1 -10 25 0 #
coedge $-1 $137 $55 $138 $139 1 $5 $-1 #
coedge $-1 $140 $141 $55 $94 0 $142 $-1 #
edge $-1 $143 $98 $93 $144 0 #
coedge $-1 $145 $56 $59 $101 0 $97 $-1 #
coedge $-1 $56 $145 $140 $146 1 $97 $-1 #
loop $-1 $-1 $56 $147 #
vertex $-1 $94 $148 #
straight-curve $-1 7.5 -5 0 -1 0 0 #
coedge $-1 $59 $58 $149 $150 1 $60 $-1 #
edge $-1 $61 $151 $95 $152 0 #
face $-1 $69 $60 $2 $-1 $153 forward single #
point $-1 0 -5 0 #
straight-curve $-1 2.5 -25 0 -1 0 0 #
point $-1 20 -25 0 #
coedge $-1 $118 $149 $66 $107 0 $154 $-1 #
edge $-1 $110 $108 $106 $155 0 #
vertex $-1 $67 $156 #
straight-curve $-1 20 -15 0 0 -0 1 #
vertex $-1 $107 $157 #
straight-curve $-1 0 -15 0 0 0 -1 #
face $-1 $158 $154 $2 $-1 $159 reversed single #
plane-surface $-1 10 -15 0 0 1 0 0 0 1 0 #
face $-1 $160 $161 $2 $-1 $162 forward single #
loop $-1 $-1 $163 $72 #
coedge $-1 $164 $74 $80 $124 0 $20 $-1 #
coedge $-1 $75 $164 $165 $166 1 $20 $-1 #
coedge $-1 $165 $106 $76 $119 0 $154 $-1 #
edge $-1 $108 $120 $76 $167 0 #
vertex $-1 $77 $168 #
straight-curve $-1 20 -25 0 0 0 -1 #
straight-curve $-1 -10 -25 2.5 -0 0 1 #
coedge $-1 $80 $79 $169 $170 1 $39 $-1 #
edge $-1 $81 $171 $116 $172 0 #
point $-1 -10 -25 10 #
coedge $-1 $83 $173 $163 $174 1 $5 $-1 #
point $-1 -10 -25 0 #
coedge $-1 $88 $86 $175 $176 1 $51 $-1 #
coedge $-1 $163 $177 $86 $130 1 $115 $-1 #
edge $-1 $131 $178 $129 $179 0 #
vertex $-1 $174 $180 #
straight-curve $-1 2.5 25 0 1 0 -0 #
coedge $-1 $181 $169 $88 $134 0 $182 $-1 #
edge $-1 $135 $183 $88 $184 0 #
vertex $-1 $170 $185 #
straight-curve $-1 0 25 10 1 0 -0 #
coedge $-1 $173 $92 $186 $187 1 $5 $-1 #
coedge $-1 $188 $189 $92 $139 0 $190 $-1 #
edge $-1 $191 $143 $138 $192 0 #
coedge $-1 $193 $93 $96 $146 0 $142 $-1 #
coedge $-1 $93 $193 $188 $194 0 $142 $-1 #
loop $-1 $-1 $93 $195 #
vertex $-1 $194 $196 #
straight-curve $-1 20 0 0 0 -1 0 #
coedge $-1 $96 $95 $197 $198 1 $97 $-1 #
edge $-1 $98 $199 $140 $200 0 #
face $-1 $102 $97 $2 $-1 $201 forward single #
point $-1 20 -5 0 #
coedge $-1 $106 $197 $100 $150 0 $154 $-1 #
edge $-1 $151 $110 $149 $202 0 #
vertex $-1 $150 $203 #
straight-curve $-1 0 -5 0 0 0 -1 #
plane-surface $-1 0 -10 0 1 0 0 0 0 -1 0 #
loop $-1 $-1 $204 $112 #
straight-curve $-1 5 -15 -25 1 0 0 #
point $-1 20 -15 -25 #
point $-1 0 -15 -25 #
face $-1 $-1 $182 $2 $-1 $205 reversed single #
plane-surface $-1 0 0 -25 0 0 1 1 0 0 0 #
face $-1 $206 $207 $2 $-1 $208 forward single #
loop $-1 $-1 $209 $114 #
plane-surface $-1 10 15 0 0 -1 0 0 0 -1 0 #
coedge $-1 $210 $129 $126 $174 0 $115 $-1 #
coedge $-1 $117 $116 $211 $212 0 $20 $-1 #
coedge $-1 $213 $118 $117 $166 0 $154 $-1 #
edge $-1 $120 $214 $117 $215 0 #
straight-curve $-1 20 0 -25 0 -1 0 #
point $-1 20 -25 -25 #
coedge $-1 $133 $211 $123 $170 0 $182 $-1 #
edge $-1 $171 $135 $169 $216 0 #
vertex $-1 $124 $217 #
straight-curve $-1 0 -25 10 -1 0 0 #
coedge $-1 $126 $137 $209 $218 1 $5 $-1 #
edge $-1 $131 $219 $163 $220 0 #
coedge $-1 $221 $213 $128 $176 0 $154 $-1 #
edge $-1 $183 $178 $128 $222 0 #
coedge $-1 $129 $210 $221 $223 1 $115 $-1 #
vertex $-1 $223 $224 #
straight-curve $-1 20 25 0 0 0 -1 #
point $-1 20 25 0 #
coedge $-1 $211 $133 $213 $225 1 $182 $-1 #
loop $-1 $-1 $169 $158 #
vertex $-1 $176 $226 #
straight-curve $-1 -20 25 0 0 0 -1 #
point $-1 -20 25 10 #
coedge $-1 $227 $228 $137 $187 0 $207 $-1 #
edge $-1 $229 $191 $186 $230 0 #
coedge $-1 $231 $138 $141 $194 1 $190 $-1 #
coedge $-1 $138 $231 $227 $232 1 $190 $-1 #
loop $-1 $-1 $138 $206 #
vertex $-1 $187 $233 #
straight-curve $-1 7.5 5 0 1 0 0 #
coedge $-1 $141 $140 $234 $235 1 $142 $-1 #
edge $-1 $236 $143 $141 $237 0 #
face $-1 $147 $142 $2 $-1 $13 reversed single #
point $-1 20 5 0 #
coedge $-1 $149 $234 $145 $198 0 $154 $-1 #
edge $-1 $199 $151 $197 $238 0 #
vertex $-1 $235 $239 #
straight-curve $-1 20 -5 0 -0 -0 -1 #
plane-surface $-1 10 -5 0 0 -1 0 0 0 -1 0 #
straight-curve $-1 0 -5 -25 0 -1 0 #
point $-1 0 -5 -25 #
coedge $-1 $234 $240 $231 $241 0 $154 $-1 #
plane-surface $-1 -20 0 0 1 0 0 0 0 -1 0 #
face $-1 $195 $190 $2 $-1 $242 forward single #
loop $-1 $-1 $186 $160 #
plane-surface $-1 0 10 0 1 0 0 0 0 -1 0 #
coedge $-1 $243 $244 $173 $218 0 $161 $-1 #
coedge $-1 $177 $163 $244 $245 0 $115 $-1 #
coedge $-1 $169 $181 $164 $212 1 $182 $-1 #
edge $-1 $171 $214 $211 $246 0 #
coedge $-1 $175 $165 $181 $225 0 $154 $-1 #
vertex $-1 $225 $247 #
straight-curve $-1 0 -25 -25 -1 0 0 #
straight-curve $-1 -20 0 10 0 1 0 #
point $-1 -20 -25 10 #
edge $-1 $219 $229 $209 $248 0 #
vertex $-1 $218 $249 #
straight-curve $-1 20 0 0 0 -1 0 #
coedge $-1 $250 $175 $177 $223 0 $154 $-1 #
straight-curve $-1 0 25 -25 1 0 0 #
edge $-1 $178 $251 $177 $167 0 #
point $-1 20 25 -25 #
edge $-1 $214 $183 $181 $252 0 #
point $-1 -20 25 -25 #
coedge $-1 $253 $186 $189 $232 0 $207 $-1 #
coedge $-1 $186 $253 $243 $254 1 $207 $-1 #
vertex $-1 $218 $255 #
straight-curve $-1 0 5 0 0 -1 0 #
coedge $-1 $189 $188 $204 $241 1 $190 $-1 #
edge $-1 $191 $256 $227 $257 0 #
point $-1 0 5 0 #
coedge $-1 $197 $204 $193 $235 0 $154 $-1 #
edge $-1 $236 $199 $193 $167 0 #
vertex $-1 $194 $258 #
straight-curve $-1 20 5 0 0 -0 1 #
straight-curve $-1 5 -5 -25 -1 0 0 #
point $-1 20 -5 -25 #
coedge $-1 $204 $250 $253 $259 0 $154 $-1 #
edge $-1 $256 $236 $204 $260 0 #
plane-surface $-1 10 5 0 0 1 0 0 0 1 0 #
coedge $-1 $261 $209 $228 $254 0 $161 $-1 #
coedge $-1 $209 $261 $210 $245 1 $161 $-1 #
edge $-1 $219 $251 $210 $262 0 #
straight-curve $-1 -20 -25 0 0 0 -1 #
point $-1 -20 -25 -25 #
straight-curve $-1 7.5 15 0 -1 0 0 #
point $-1 20 15 0 #
coedge $-1 $240 $221 $261 $263 0 $154 $-1 #
vertex $-1 $223 $264 #
straight-curve $-1 -20 0 -25 0 1 0 #
coedge $-1 $228 $227 $240 $259 1 $207 $-1 #
edge $-1 $229 $265 $243 $266 0 #
point $-1 0 15 0 #
vertex $-1 $241 $267 #
straight-curve $-1 0 5 0 0 0 -1 #
point $-1 20 5 -25 #
edge $-1 $265 $256 $240 $268 0 #
straight-curve $-1 5 5 -25 1 0 0 #
coedge $-1 $244 $243 $250 $263 1 $161 $-1 #
straight-curve $-1 20 15 0 -0 -0 -1 #
edge $-1 $251 $265 $250 $269 0 #
point $-1 20 15 -25 #
vertex $-1 $259 $270 #
straight-curve $-1 0 15 0 0 0 -1 #
point $-1 0 5 -25 #
straight-curve $-1 0 5 -25 0 -1 0 #
straight-curve $-1 5 15 -25 -1 0 0 #
point $-1 0 15 -25 #
