600 0 1 0           
95 GICL ACIS Healer - Source: /gicl/data5/repository/new/Seeker/counter_weight2.ustation.sat - 6 0 18 ACIS 6.0.3 Solaris 24 Sat Apr 13 20:35:33 2002 
1 9.999999999999999547e-07 1.000000000000000036e-10 
body $1 $2 $-1 $-1 #
rgb_color-st-attrib $-1 $-1 $-1 $0 0 1 0 #
lump $-1 $-1 $3 $0 #
shell $-1 $-1 $-1 $4 $-1 $2 #
face $-1 $5 $6 $3 $-1 $7 reversed single #
face $-1 $8 $9 $3 $-1 $10 reversed single #
loop $-1 $11 $12 $4 #
cone-surface $-1 -22.27386360737624926 -51.97234841721123644 -2.5 0 0 -1 -0.7071067811865474617 0.7071067811865475727 0 1 I I 0 1 1 forward I I I I #
face $-1 $13 $14 $3 $-1 $15 reversed single #
loop $-1 $-1 $16 $5 #
plane-surface $-1 -22.27386360737624926 -51.97234841721123644 -5 0 0 -1 -0.7071067811865474617 0.7071067811865475727 0 forward_v I I I I #
loop $-1 $-1 $17 $4 #
coedge $-1 $12 $12 $18 $19 reversed $6 $-1 #
face $-1 $20 $21 $3 $-1 $22 reversed single #
loop $-1 $23 $24 $8 #
cone-surface $-1 -51.97234841721124354 -22.27386360737624216 -2.5 0 0 -1 -0.7071067811865474617 0.7071067811865475727 0 1 I I 0 1 1 forward I I I I #
coedge $-1 $16 $16 $17 $25 reversed $9 $-1 #
coedge $-1 $17 $17 $16 $25 forward $11 $-1 #
coedge $-1 $18 $18 $12 $19 forward $26 $-1 #
edge $-1 $27 -1.110223024625158759e-16 $27 6.283185307179586232 $18 $28 forward 7 unknown #
face $-1 $29 $30 $3 $-1 $31 reversed single #
loop $-1 $-1 $32 $13 #
plane-surface $-1 -51.97234841721124354 -22.27386360737624216 -5 0 0 -1 -0.7071067811865474617 0.7071067811865475727 0 forward_v I I I I #
loop $-1 $-1 $33 $8 #
coedge $-1 $24 $24 $34 $35 reversed $14 $-1 #
edge $-1 $36 -1.110223024625158759e-16 $36 6.283185307179586232 $16 $37 forward 7 unknown #
loop $-1 $38 $18 $39 #
vertex $-1 $19 $40 #
ellipse-curve $-1 -22.27386360737624926 -51.97234841721123644 0 0 0 -1 -0.7071067811865474617 0.7071067811865475727 0 1 I I #
face $-1 $39 $41 $3 $-1 $42 forward single #
loop $-1 $-1 $43 $20 #
cone-surface $-1 -37.1231060122937464 -37.1231060122937393 0 -0.7071067811865475727 -0.7071067811865474617 0 -8.485281374238569541 8.485281374238571317 0 1 I I 0 1 12 forward I I I I #
coedge $-1 $32 $32 $33 $44 reversed $21 $-1 #
coedge $-1 $33 $33 $32 $44 forward $23 $-1 #
coedge $-1 $34 $34 $24 $35 forward $45 $-1 #
edge $-1 $46 2.386979502944085379e-15 $46 6.283185307179588897 $34 $47 forward 7 unknown #
vertex $-1 $25 $48 #
ellipse-curve $-1 -22.27386360737624926 -51.97234841721123644 -5 0 0 -1 -0.7071067811865474617 0.7071067811865475727 0 1 I I #
loop $-1 $-1 $49 $39 #
face $-1 $50 $26 $3 $-1 $51 forward single #
point $-1 -22.98097038856279539 -51.26524163602469031 0 #
loop $-1 $-1 $52 $29 #
plane-surface $-1 -35.35533905932737753 -35.35533905932737042 0 0.7071067811865475727 0.7071067811865474617 0 0.7071067811865474617 -0.7071067811865475727 0 forward_v I I I I #
coedge $-1 $53 $54 $55 $56 reversed $30 $-1 #
edge $-1 $57 2.386979502944085379e-15 $57 6.283185307179588897 $32 $58 forward 7 unknown #
loop $-1 $59 $34 $50 #
vertex $-1 $35 $60 #
ellipse-curve $-1 -51.97234841721124354 -22.27386360737624216 0 0 0 -1 -0.7071067811865474617 0.7071067811865475727 0 1 I I #
point $-1 -22.98097038856279539 -51.26524163602469031 -5 #
coedge $-1 $61 $62 $63 $64 forward $38 $-1 #
face $-1 $65 $45 $3 $-1 $51 forward single #
plane-surface $-1 -37.1231060122937464 -37.1231060122937393 0 -0 0 1 0.7071067811865475727 0.7071067811865474617 0 forward_v I I I I #
coedge $-1 $66 $67 $54 $68 forward $41 $-1 #
coedge $-1 $63 $43 $69 $70 reversed $30 $-1 #
coedge $-1 $43 $63 $52 $68 reversed $30 $-1 #
coedge $-1 $71 $72 $43 $56 forward $59 $-1 #
edge $-1 $73 -2.5 $74 2.5 $55 $75 forward 7 unknown #
vertex $-1 $44 $76 #
ellipse-curve $-1 -51.97234841721124354 -22.27386360737624216 -5 0 0 -1 -0.7071067811865474617 0.7071067811865475727 0 1 I I #
loop $-1 $-1 $55 $50 #
point $-1 -52.67945519839778967 -21.56675682618969248 0 #
coedge $-1 $77 $49 $78 $79 reversed $38 $-1 #
coedge $-1 $49 $77 $66 $80 reversed $38 $-1 #
coedge $-1 $54 $53 $49 $64 reversed $30 $-1 #
edge $-1 $81 -2.5 $82 2.5 $49 $83 forward 7 unknown #
face $-1 $84 $85 $3 $-1 $86 forward single #
coedge $-1 $87 $52 $62 $80 forward $41 $-1 #
coedge $-1 $52 $87 $71 $88 forward $41 $-1 #
edge $-1 $74 0 $81 3.141592653589793116 $52 $89 forward 7 unknown #
coedge $-1 $90 $78 $53 $70 forward $91 $-1 #
edge $-1 $82 -3.141592653589793116 $73 0 $69 $92 forward 7 unknown #
coedge $-1 $93 $55 $67 $88 reversed $59 $-1 #
coedge $-1 $55 $93 $90 $94 reversed $59 $-1 #
vertex $-1 $94 $95 #
vertex $-1 $68 $96 #
straight-curve $-1 -45.60838738653231417 -28.63782463805516798 0 0.7071067811865475727 0.7071067811865474617 0 I I #
point $-1 -52.67945519839778967 -21.56675682618969248 -5 #
coedge $-1 $62 $61 $97 $98 reversed $38 $-1 #
coedge $-1 $69 $99 $61 $79 forward $91 $-1 #
edge $-1 $100 -25 $82 -12 $78 $101 forward 7 unknown #
edge $-1 $81 12 $102 25 $66 $103 forward 7 unknown #
vertex $-1 $80 $104 #
vertex $-1 $64 $105 #
straight-curve $-1 -28.63782463805517864 -45.60838738653231417 0 -0.7071067811865475727 -0.7071067811865474617 0 I I #
face $-1 $-1 $91 $3 $-1 $106 forward single #
loop $-1 $-1 $107 $65 #
cone-surface $-1 -37.1231060122937464 -37.1231060122937393 0 -0.7071067811865475727 -0.7071067811865474617 0 -17.67766952966368521 17.67766952966368876 0 1 I I 0 1 25 forward I I I I #
coedge $-1 $67 $66 $108 $109 forward $41 $-1 #
edge $-1 $110 -25 $74 -11.99999999999999822 $67 $103 forward 7 unknown #
ellipse-curve $-1 -35.35533905932737753 -35.35533905932737042 0 -0.7071067811865475727 -0.7071067811865474617 0 -8.485281374238569541 8.485281374238571317 0 1 I I #
coedge $-1 $99 $69 $72 $94 forward $91 $-1 #
loop $-1 $-1 $69 $84 #
ellipse-curve $-1 -38.89087296526011528 -38.89087296526010817 0 0.7071067811865475727 0.7071067811865474617 0 -8.485281374238569541 8.485281374238571317 0 1 I I #
coedge $-1 $72 $71 $107 $111 reversed $59 $-1 #
edge $-1 $73 11.99999999999999822 $112 25 $90 $101 forward 7 unknown #
point $-1 -47.37615433949868304 -30.40559159102153686 0 #
point $-1 -43.84062043356594529 -26.8700576850887991 0 #
coedge $-1 $113 $108 $77 $98 forward $85 $-1 #
edge $-1 $102 -2.5 $100 2.5 $97 $114 forward 7 unknown #
coedge $-1 $78 $90 $113 $115 forward $91 $-1 #
vertex $-1 $98 $116 #
straight-curve $-1 -38.89087296526011528 -38.89087296526010817 0 -0.7071067811865474617 0.7071067811865475727 0 I I #
vertex $-1 $109 $117 #
straight-curve $-1 -35.35533905932737753 -35.35533905932737042 0 0.7071067811865474617 -0.7071067811865475727 0 I I #
point $-1 -26.87005768508880976 -43.84062043356594529 0 #
point $-1 -30.40559159102154752 -47.37615433949868304 0 #
plane-surface $-1 -38.89087296526011528 -38.89087296526010817 0 -0.7071067811865475727 -0.7071067811865474617 0 -0.7071067811865474617 0.7071067811865475727 0 forward_v I I I I #
coedge $-1 $108 $113 $93 $111 forward $85 $-1 #
coedge $-1 $97 $107 $87 $109 reversed $85 $-1 #
edge $-1 $102 -3.141592653589793116 $110 0 $87 $118 forward 7 unknown #
vertex $-1 $109 $119 #
edge $-1 $112 -2.5 $110 2.5 $107 $120 forward 7 unknown #
vertex $-1 $94 $121 #
coedge $-1 $107 $97 $99 $115 reversed $85 $-1 #
straight-curve $-1 -19.44543648263006119 -54.80077554195742806 0 -0.7071067811865475727 -0.7071067811865474617 0 I I #
edge $-1 $112 0 $100 3.141592653589793116 $99 $122 forward 7 unknown #
point $-1 -21.21320343559643007 -56.56854249492379694 0 #
point $-1 -17.67766952966369232 -53.03300858899105918 0 #
ellipse-curve $-1 -35.35533905932737753 -35.35533905932737042 0 0.7071067811865475727 0.7071067811865474617 0 -17.67766952966368521 17.67766952966368876 0 1 I I #
point $-1 -53.03300858899106629 -17.67766952966368166 0 #
straight-curve $-1 -54.80077554195743517 -19.44543648263005053 0 0.7071067811865475727 0.7071067811865474617 0 I I #
point $-1 -56.56854249492380404 -21.21320343559641941 0 #
ellipse-curve $-1 -38.89087296526011528 -38.89087296526010817 0 -0.7071067811865475727 -0.7071067811865474617 0 -17.67766952966368521 17.67766952966368876 0 1 I I #
End-of-ACIS-data 