106 0 1 0           
body $1 $2 $-1 $3 #
display_attribute-st-attrib $-1 $4 $-1 $0 4 #
lump $-1 $-1 $5 $0 #
transform $-1 -0.7071067811865474617 0.7071067811865475727 0 0 0 -1 -0.7071067811865475727 -0.7071067811865474617 0 -37.1231060122937464 -37.1231060122937393 0 1 1 0 0 #
rgb_color-st-attrib $-1 $6 $1 $0 0 1 0 #
shell $-1 $-1 $-1 $7 $2 #
id_attribute-st-attrib $-1 $-1 $4 $0 71 #
face $-1 $8 $9 $5 $-1 $10 reversed single #
face $-1 $11 $12 $5 $-1 $13 reversed single #
loop $-1 $14 $15 $7 #
cone-surface $-1 -21 2.5 0 0 1 0 1 0 0 1 I I 0 1 0 I I I I #
face $-1 $16 $17 $5 $-1 $18 reversed single #
loop $-1 $-1 $19 $8 #
plane-surface $-1 -21 5 0 0 1 0 1 0 0 0 I I I I #
loop $-1 $-1 $20 $7 #
coedge $-1 $15 $15 $21 $22 1 $9 $-1 #
face $-1 $23 $24 $5 $-1 $25 reversed single #
loop $-1 $26 $27 $11 #
cone-surface $-1 21 2.5 0 0 1 0 1 0 0 1 I I 0 1 0 I I I I #
coedge $-1 $19 $19 $20 $28 1 $12 $-1 #
coedge $-1 $20 $20 $19 $28 0 $14 $-1 #
coedge $-1 $21 $21 $15 $22 0 $29 $-1 #
edge $-1 $30 $30 $21 $31 0 #
face $-1 $32 $33 $5 $-1 $34 reversed single #
loop $-1 $-1 $35 $16 #
plane-surface $-1 21 5 0 0 1 0 1 0 0 0 I I I I #
loop $-1 $-1 $36 $11 #
coedge $-1 $27 $27 $37 $38 1 $17 $-1 #
edge $-1 $39 $39 $19 $40 0 #
loop $-1 $41 $21 $42 #
vertex $-1 $22 $43 #
ellipse-curve $-1 -21 0 0 -0 1 -0 1 0 0 1 I I #
face $-1 $42 $44 $5 $-1 $45 forward single #
loop $-1 $-1 $46 $23 #
cone-surface $-1 0 0 0 0 0 1 12 0 0 1 I I 0 1 0 I I I I #
coedge $-1 $35 $35 $36 $47 1 $24 $-1 #
coedge $-1 $36 $36 $35 $47 0 $26 $-1 #
coedge $-1 $37 $37 $27 $38 0 $48 $-1 #
edge $-1 $49 $49 $37 $50 0 #
vertex $-1 $28 $51 #
ellipse-curve $-1 -21 5 0 0 1 0 1 0 0 1 I I #
loop $-1 $-1 $52 $42 #
face $-1 $53 $29 $5 $-1 $54 forward single #
point $-1 -20 0 0 #
loop $-1 $-1 $55 $32 #
plane-surface $-1 0 0 -2.5 0 0 -1 -1 0 0 0 I I I I #
coedge $-1 $56 $57 $58 $59 1 $33 $-1 #
edge $-1 $60 $60 $35 $61 0 #
loop $-1 $62 $37 $53 #
vertex $-1 $38 $63 #
ellipse-curve $-1 21 0 0 -0 1 -0 1 0 0 1 I I #
point $-1 -20 5 0 #
coedge $-1 $64 $65 $66 $67 0 $41 $-1 #
face $-1 $68 $48 $5 $-1 $54 forward single #
plane-surface $-1 0 0 0 0 -1 0 0 0 -1 0 I I I I #
coedge $-1 $69 $70 $57 $71 0 $44 $-1 #
coedge $-1 $66 $46 $72 $73 1 $33 $-1 #
coedge $-1 $46 $66 $55 $71 1 $33 $-1 #
coedge $-1 $74 $75 $46 $59 0 $62 $-1 #
edge $-1 $76 $77 $58 $78 0 #
vertex $-1 $47 $79 #
ellipse-curve $-1 21 5 0 0 1 0 1 0 0 1 I I #
loop $-1 $-1 $58 $53 #
point $-1 22 0 0 #
coedge $-1 $80 $52 $81 $82 1 $41 $-1 #
coedge $-1 $52 $80 $69 $83 1 $41 $-1 #
coedge $-1 $57 $56 $52 $67 1 $33 $-1 #
edge $-1 $84 $85 $52 $86 0 #
face $-1 $87 $88 $5 $-1 $89 forward single #
coedge $-1 $90 $55 $65 $83 0 $44 $-1 #
coedge $-1 $55 $90 $74 $91 0 $44 $-1 #
edge $-1 $77 $84 $55 $92 0 #
coedge $-1 $93 $81 $56 $73 0 $94 $-1 #
edge $-1 $85 $76 $72 $95 0 #
coedge $-1 $96 $58 $70 $91 1 $62 $-1 #
coedge $-1 $58 $96 $93 $97 1 $62 $-1 #
vertex $-1 $97 $98 #
vertex $-1 $71 $99 #
straight-curve $-1 12 0 0 -0 -0 -1 I I #
point $-1 22 5 0 #
coedge $-1 $65 $64 $100 $101 1 $41 $-1 #
coedge $-1 $72 $102 $64 $82 0 $94 $-1 #
edge $-1 $103 $85 $81 $104 0 #
edge $-1 $84 $105 $69 $106 0 #
vertex $-1 $83 $107 #
vertex $-1 $67 $108 #
straight-curve $-1 -12 0 0 0 0 1 I I #
face $-1 $-1 $94 $5 $-1 $109 forward single #
loop $-1 $-1 $110 $68 #
cone-surface $-1 0 0 0 0 0 1 25 0 0 1 I I 0 1 0 I I I I #
coedge $-1 $70 $69 $111 $112 0 $44 $-1 #
edge $-1 $113 $77 $70 $106 0 #
ellipse-curve $-1 0 0 -2.5 -0 -0 1 12 0 0 1 I I #
coedge $-1 $102 $72 $75 $97 0 $94 $-1 #
loop $-1 $-1 $72 $87 #
ellipse-curve $-1 0 0 2.5 -0 -0 -1 12 0 0 1 I I #
coedge $-1 $75 $74 $110 $114 1 $62 $-1 #
edge $-1 $76 $115 $93 $104 0 #
point $-1 12 0 2.5 #
point $-1 12 0 -2.5 #
coedge $-1 $116 $111 $80 $101 0 $88 $-1 #
edge $-1 $105 $103 $100 $117 0 #
coedge $-1 $81 $93 $116 $118 0 $94 $-1 #
vertex $-1 $101 $119 #
straight-curve $-1 0 0 2.5 1 0 -0 I I #
vertex $-1 $112 $120 #
straight-curve $-1 0 0 -2.5 -1 -0 -0 I I #
point $-1 -12 0 -2.5 #
point $-1 -12 0 2.5 #
plane-surface $-1 0 0 2.5 0 0 1 1 0 0 0 I I I I #
coedge $-1 $111 $116 $96 $114 0 $88 $-1 #
coedge $-1 $100 $110 $90 $112 1 $88 $-1 #
edge $-1 $105 $113 $90 $121 0 #
vertex $-1 $112 $122 #
edge $-1 $115 $113 $110 $123 0 #
vertex $-1 $97 $124 #
coedge $-1 $110 $100 $102 $118 1 $88 $-1 #
straight-curve $-1 -25 0 0 0 0 1 I I #
edge $-1 $115 $103 $102 $125 0 #
point $-1 -25 0 2.5 #
point $-1 -25 0 -2.5 #
ellipse-curve $-1 0 0 -2.5 0 0 -1 25 0 0 1 I I #
point $-1 25 0 -2.5 #
straight-curve $-1 25 0 0 -0 -0 -1 I I #
point $-1 25 0 2.5 #
ellipse-curve $-1 0 0 2.5 0 0 1 25 0 0 1 I I #
End-of-ACIS-data 