600 0 2 0           
24 FBMach with ACIS - 6.0.3 13 ACIS 6.0.3 NT 24 Wed May 23 12:27:39 2001 
1 9.9999999999999995e-007 1e-010 
body $2 $3 $-1 $4 #
bdycol-kcp $-1 1 6 $5 $6 $7 $8 $9 $10 #
model_id-kcp-attrib $-1 $11 $-1 $0 1 990635259 80 357564417 1 #
lump $-1 $-1 $12 $0 #
transform $-1 -0.70710678118654746 0.70710678118654757 0 0 0 -1 -0.70710678118654757 -0.70710678118654746 0 37.123106012293746 37.123106012293739 0 1 rotate no_reflect no_shear #
body $13 $14 $-1 $15 #
body $16 $17 $-1 $18 #
body $19 $20 $-1 $21 #
body $22 $23 $-1 $24 #
body $25 $26 $-1 $27 #
body $28 $29 $-1 $30 #
rgb_color-st-attrib $-1 $-1 $2 $0 0 1 0 #
shell $-1 $-1 $-1 $31 $-1 $3 #
model_id-kcp-attrib $-1 $-1 $-1 $5 1 990635259 90 358219778 1 #
lump $-1 $-1 $32 $5 #
transform $-1 1 0 0 0 1 0 0 0 1 37.123106012293746 37.123106012293739 -12.5 1 no_rotate no_reflect no_shear #
rgb_color-st-attrib $-1 $33 $-1 $6 0.5 1 1 #
lump $-1 $-1 $34 $6 #
transform $-1 -1 0 -1.2246063538223773e-016 0 1 0 1.2246063538223773e-016 0 -1 51.972348417211244 22.273863607376242 -2.5 1 rotate no_reflect no_shear #
rgb_color-st-attrib $-1 $35 $-1 $7 0.5 1 1 #
lump $-1 $-1 $36 $7 #
transform $-1 -1 0 -1.2246063538223773e-016 0 1 0 1.2246063538223773e-016 0 -1 22.273863607376249 51.972348417211236 -2.5 1 rotate no_reflect no_shear #
rgb_color-st-attrib $-1 $37 $-1 $8 0.5 1 1 #
lump $-1 $38 $39 $8 #
transform $-1 1 0 0 0 1 0 0 0 1 37.123106012293746 37.123106012293739 -12.5 1 no_rotate no_reflect no_shear #
rgb_color-st-attrib $-1 $40 $-1 $9 0.5 0.5 1 #
lump $-1 $-1 $41 $9 #
transform $-1 1 0 0 0 1 0 0 0 1 37.123106012293746 37.123106012293739 -12.5 1 no_rotate no_reflect no_shear #
rgb_color-st-attrib $-1 $42 $-1 $10 0.5 0.5 1 #
lump $-1 $-1 $43 $10 #
transform $-1 1 0 0 0 1 0 0 0 1 37.123106012293746 37.123106012293739 -12.5 1 no_rotate no_reflect no_shear #
face $44 $45 $46 $12 $-1 $47 reversed single #
shell $-1 $-1 $-1 $48 $-1 $14 #
model_id-kcp-attrib $-1 $-1 $16 $6 1 990635259 130 360841219 1 #
shell $-1 $-1 $-1 $49 $-1 $17 #
model_id-kcp-attrib $-1 $-1 $19 $7 1 990635259 140 361496580 1 #
shell $-1 $-1 $-1 $50 $-1 $20 #
model_id-kcp-attrib $-1 $-1 $22 $8 1 990635259 230 367394821 1 #
lump $-1 $-1 $51 $8 #
shell $-1 $-1 $-1 $52 $-1 $23 #
model_id-kcp-attrib $-1 $-1 $25 $9 1 990635259 370 359792646 1 #
shell $-1 $-1 $-1 $53 $-1 $26 #
model_id-kcp-attrib $-1 $-1 $28 $10 1 990635259 490 367656967 1 #
shell $-1 $-1 $-1 $54 $-1 $29 #
model_id-kcp-attrib $-1 $-1 $-1 $31 1 990635259 80 357564417 2 #
face $55 $56 $57 $12 $-1 $58 reversed single #
loop $-1 $59 $60 $31 #
cone-surface $-1 -21 2.5 0 0 1 0 1 0 0 1 I I 0 1 1 forward I I I I #
face $61 $62 $63 $32 $-1 $64 forward single #
face $-1 $65 $66 $34 $-1 $67 forward single #
face $-1 $68 $69 $36 $-1 $70 forward single #
shell $-1 $-1 $-1 $71 $-1 $38 #
face $-1 $72 $73 $39 $-1 $74 reversed single #
face $-1 $75 $76 $41 $-1 $77 reversed single #
face $-1 $78 $79 $43 $-1 $80 reversed single #
model_id-kcp-attrib $-1 $-1 $-1 $45 1 990635259 80 357564417 3 #
face $81 $82 $83 $12 $-1 $84 reversed single #
loop $-1 $-1 $85 $45 #
plane-surface $-1 -21 5 0 0 1 0 1 0 0 forward_v I I I I #
loop $-1 $-1 $86 $31 #
coedge $-1 $60 $60 $87 $88 reversed $46 $-1 #
model_id-kcp-attrib $-1 $89 $-1 $48 1 990635259 90 358219778 3 #
face $-1 $90 $91 $32 $-1 $92 reversed single #
loop $-1 $-1 $93 $48 #
plane-surface $-1 0 0 12.5 0 0 1 1 0 0 forward_v I I I I #
face $-1 $94 $95 $34 $-1 $96 forward single #
loop $-1 $97 $98 $49 #
cone-surface $-1 0 0 0 0 0 1 1 0 0 1 I I 0 1 1 forward I I I I #
face $-1 $99 $100 $36 $-1 $101 forward single #
loop $-1 $102 $103 $50 #
cone-surface $-1 0 0 0 0 0 1 1 0 0 1 I I 0 1 1 forward I I I I #
face $-1 $104 $105 $51 $-1 $106 reversed single #
face $-1 $107 $108 $39 $-1 $109 reversed single #
loop $-1 $-1 $110 $52 #
cone-surface $-1 1.7677669529663689 1.7677669529663689 12.5 0.70710678118654757 0.70710678118654746 0 8.4852813742385695 -8.4852813742385713 -1.7763568394002505e-015 1 I I 0 -1 12 forward I I I I #
face $-1 $111 $112 $41 $-1 $113 forward single #
loop $-1 $-1 $114 $53 #
plane-surface $-1 1.767766952966376 1.767766952966376 0 0.70710678118654757 0.70710678118654746 0 -0.70710678118654746 0.70710678118654757 0 forward_v I I I I #
face $-1 $115 $116 $43 $-1 $117 forward single #
loop $-1 $-1 $118 $54 #
plane-surface $-1 -1.7677669529663618 -1.7677669529663689 0 -0.70710678118654757 -0.70710678118654746 0 0.70710678118654746 -0.70710678118654757 0 forward_v I I I I #
model_id-kcp-attrib $-1 $-1 $-1 $56 1 990635259 80 357564417 4 #
face $119 $120 $121 $12 $-1 $122 reversed single #
loop $-1 $123 $124 $56 #
cone-surface $-1 21 2.5 0 0 1 0 1 0 0 1 I I 0 1 1 forward I I I I #
coedge $-1 $85 $85 $86 $125 reversed $57 $-1 #
coedge $-1 $86 $86 $85 $125 forward $59 $-1 #
coedge $-1 $87 $87 $60 $88 forward $126 $-1 #
edge $127 $128 0 $128 6.2831853071795862 $87 $129 forward 7 unknown #
model_id-kcp-attrib $-1 $-1 $61 $48 1 990635259 90 358219778 2 #
face $-1 $130 $131 $32 $-1 $132 reversed single #
loop $-1 $-1 $133 $62 #
plane-surface $-1 0 0 -12.5 0 0 1 1 0 0 forward_v I I I I #
coedge $-1 $134 $135 $136 $137 forward $63 $-1 #
face $-1 $-1 $138 $34 $-1 $139 forward single #
loop $-1 $-1 $140 $65 #
plane-surface $-1 0 0 -2.5 0 0 -1 -1 0 0 forward_v I I I I #
loop $-1 $-1 $141 $49 #
coedge $-1 $98 $98 $140 $142 reversed $66 $-1 #
face $-1 $-1 $143 $36 $-1 $144 forward single #
loop $-1 $-1 $145 $68 #
plane-surface $-1 0 0 -2.5 0 0 -1 -1 0 0 forward_v I I I I #
loop $-1 $-1 $146 $50 #
coedge $-1 $103 $103 $145 $147 reversed $69 $-1 #
face $-1 $148 $149 $51 $-1 $106 reversed single #
loop $-1 $-1 $150 $71 #
plane-surface $-1 0 0 -12.5 0 0 1 1 0 0 forward_v I I I I #
face $-1 $151 $152 $39 $-1 $153 reversed single #
loop $-1 $-1 $154 $72 #
plane-surface $-1 0 19.445436482630058 0 0 -1 0 0 0 -1 forward_v I I I I #
coedge $-1 $155 $156 $157 $158 reversed $73 $-1 #
face $-1 $159 $160 $41 $-1 $161 forward single #
loop $-1 $-1 $162 $75 #
plane-surface $-1 0 0 12.5 0 0 1 1 0 0 forward_v I I I I #
coedge $-1 $163 $164 $165 $166 forward $76 $-1 #
face $-1 $167 $168 $43 $-1 $169 forward single #
loop $-1 $-1 $170 $78 #
plane-surface $-1 0 0 12.5 0 0 1 1 0 0 forward_v I I I I #
coedge $-1 $171 $172 $173 $174 forward $79 $-1 #
model_id-kcp-attrib $-1 $-1 $-1 $82 1 990635259 80 357564417 5 #
face $175 $176 $177 $12 $-1 $178 reversed single #
loop $-1 $-1 $179 $82 #
plane-surface $-1 21 5 0 0 1 0 1 0 0 forward_v I I I I #
loop $-1 $-1 $180 $56 #
coedge $-1 $124 $124 $181 $182 reversed $83 $-1 #
edge $183 $184 0 $184 6.2831853071795862 $85 $185 forward 7 unknown #
loop $-1 $186 $87 $187 #
attrib_edge_convexity-kcp-attrib $-1 $188 $-1 $88 1 #
vertex $-1 $88 $189 #
ellipse-curve $-1 -21 0 0 0 1 0 1 0 0 1 I I #
face $-1 $190 $191 $32 $-1 $192 reversed single #
loop $-1 $-1 $193 $90 #
plane-surface $-1 0 -19.445436482630058 0 0 1 0 0 0 1 forward_v I I I I #
coedge $-1 $194 $195 $196 $197 forward $91 $-1 #
coedge $-1 $198 $93 $199 $200 forward $63 $-1 #
coedge $-1 $93 $198 $201 $202 forward $63 $-1 #
coedge $-1 $203 $204 $93 $137 reversed $205 $-1 #
edge $-1 $206 -19.445436482630058 $207 19.445436482630058 $136 $208 forward 7 unknown #
loop $-1 $-1 $209 $94 #
plane-surface $-1 0 0 2.5 0 0 1 1 0 0 forward_v I I I I #
coedge $-1 $140 $140 $98 $142 forward $95 $-1 #
coedge $-1 $141 $141 $209 $210 reversed $97 $-1 #
edge $-1 $211 0 $211 6.2831853071795862 $140 $212 forward 7 unknown #
loop $-1 $-1 $213 $99 #
plane-surface $-1 0 0 2.5 0 0 1 1 0 0 forward_v I I I I #
coedge $-1 $145 $145 $103 $147 forward $100 $-1 #
coedge $-1 $146 $146 $213 $214 reversed $102 $-1 #
edge $-1 $215 0 $215 6.2831853071795862 $145 $216 forward 7 unknown #
face $-1 $217 $218 $51 $-1 $153 reversed single #
loop $-1 $-1 $219 $104 #
coedge $-1 $220 $221 $219 $222 forward $105 $-1 #
face $-1 $223 $224 $39 $-1 $225 forward single #
loop $-1 $-1 $226 $107 #
plane-surface $-1 0 -19.445436482630058 0 0 1 0 0 0 1 forward_v I I I I #
coedge $-1 $227 $228 $229 $230 forward $108 $-1 #
coedge $-1 $229 $110 $231 $232 reversed $73 $-1 #
coedge $-1 $110 $233 $226 $234 reversed $73 $-1 #
coedge $-1 $235 $236 $110 $158 forward $237 $-1 #
edge $-1 $238 -3.1415926535897931 $239 -1.5707963267948963 $157 $240 forward 7 unknown #
face $-1 $241 $242 $41 $-1 $243 forward single #
loop $-1 $-1 $165 $111 #
cone-surface $-1 1.7677669529663689 1.7677669529663689 12.5 0.70710678118654757 0.70710678118654746 0 -17.677669529663685 17.677669529663689 0 1 I I 0 1 25 forward I I I I #
coedge $-1 $244 $245 $163 $246 reversed $112 $-1 #
coedge $-1 $247 $114 $162 $246 forward $76 $-1 #
coedge $-1 $114 $247 $248 $249 forward $76 $-1 #
coedge $-1 $250 $251 $114 $166 reversed $160 $-1 #
edge $252 $253 0 $254 3.1415926535897931 $165 $255 forward 7 unknown #
face $-1 $256 $257 $43 $-1 $258 forward single #
loop $-1 $-1 $173 $115 #
cone-surface $-1 1.7677669529663689 1.7677669529663689 12.5 0.70710678118654757 0.70710678118654746 0 -17.677669529663685 17.677669529663689 0 1 I I 0 1 25 forward I I I I #
coedge $-1 $259 $260 $171 $261 reversed $116 $-1 #
coedge $-1 $262 $118 $170 $261 forward $79 $-1 #
coedge $-1 $118 $262 $263 $264 forward $79 $-1 #
coedge $-1 $265 $266 $118 $174 reversed $168 $-1 #
edge $267 $268 -3.1415926535897931 $269 0 $173 $270 forward 7 unknown #
model_id-kcp-attrib $-1 $-1 $-1 $120 1 990635259 80 357564417 6 #
face $271 $187 $272 $12 $-1 $273 forward single #
loop $-1 $-1 $274 $120 #
cone-surface $-1 0 0 0 0 0 1 12 0 0 1 I I 0 1 12 forward I I I I #
coedge $-1 $179 $179 $180 $275 reversed $121 $-1 #
coedge $-1 $180 $180 $179 $275 forward $123 $-1 #
coedge $-1 $181 $181 $124 $182 forward $276 $-1 #
edge $277 $278 0 $278 6.2831853071795862 $181 $279 forward 7 unknown #
attrib_edge_convexity-kcp-attrib $-1 $280 $-1 $125 2 #
vertex $-1 $125 $281 #
ellipse-curve $-1 -21 5 0 0 1 0 1 0 0 1 I I #
loop $-1 $-1 $282 $187 #
face $283 $284 $126 $12 $-1 $285 forward single #
convexity-sys-attrib $-1 $-1 $127 $88 #
point $-1 -20 0 0 #
face $-1 $286 $287 $32 $-1 $288 reversed single #
loop $-1 $-1 $289 $130 #
plane-surface $-1 -19.445436482630058 0 0 1 0 0 0 0 -1 forward_v I I I I #
coedge $-1 $290 $201 $291 $292 forward $131 $-1 #
coedge $-1 $293 $133 $290 $294 forward $91 $-1 #
coedge $-1 $133 $293 $295 $296 forward $91 $-1 #
coedge $-1 $204 $203 $133 $197 reversed $205 $-1 #
edge $-1 $297 -19.445436482630058 $298 19.445436482630058 $196 $299 forward 7 unknown #
coedge $-1 $135 $134 $300 $301 forward $63 $-1 #
coedge $-1 $302 $303 $134 $200 reversed $287 $-1 #
edge $-1 $207 -19.445436482630058 $304 19.445436482630058 $199 $305 forward 7 unknown #
coedge $-1 $193 $306 $135 $202 reversed $131 $-1 #
edge $-1 $307 -19.445436482630058 $206 19.445436482630058 $201 $308 forward 7 unknown #
coedge $-1 $196 $136 $306 $309 forward $205 $-1 #
coedge $-1 $136 $196 $302 $310 reversed $205 $-1 #
loop $-1 $-1 $203 $286 #
vertex $-1 $137 $311 #
vertex $-1 $137 $312 #
straight-curve $-1 19.445436482630058 0 12.5 0 1 0 I I #
coedge $-1 $209 $209 $141 $210 forward $138 $-1 #
edge $-1 $313 0 $313 6.2831853071795862 $209 $314 forward 7 unknown #
vertex $-1 $142 $315 #
ellipse-curve $-1 0 0 -2.5 0 0 -1 1 0 0 1 I I #
coedge $-1 $213 $213 $146 $214 forward $143 $-1 #
edge $-1 $316 0 $316 6.2831853071795862 $213 $317 forward 7 unknown #
vertex $-1 $147 $318 #
ellipse-curve $-1 0 0 -2.5 0 0 -1 1 0 0 1 I I #
face $-1 $319 $320 $51 $-1 $321 reversed single #
loop $-1 $-1 $322 $148 #
coedge $-1 $323 $324 $325 $222 reversed $149 $-1 #
coedge $-1 $221 $150 $326 $327 forward $105 $-1 #
coedge $-1 $150 $220 $328 $329 forward $105 $-1 #
edge $-1 $330 -30 $331 25 $150 $332 forward 7 unknown #
face $-1 $333 $237 $39 $-1 $334 reversed single #
loop $-1 $-1 $231 $151 #
plane-surface $-1 0 0 12.5 0 0 1 1 0 0 forward_v I I I I #
coedge $-1 $335 $336 $156 $234 forward $152 $-1 #
coedge $-1 $228 $154 $337 $338 reversed $108 $-1 #
coedge $-1 $154 $227 $339 $340 forward $108 $-1 #
coedge $-1 $341 $155 $154 $230 reversed $73 $-1 #
edge $-1 $342 1.5707963267948966 $343 3.1415926535897931 $154 $344 forward 7 unknown #
coedge $-1 $345 $337 $155 $232 forward $224 $-1 #
edge $-1 $343 -13.000000000000002 $238 18 $231 $346 forward 7 unknown #
coedge $-1 $156 $341 $347 $348 reversed $73 $-1 #
edge $-1 $239 -1.5707963267948963 $349 1.4802973661668753e-016 $226 $350 forward 7 unknown #
coedge $-1 $236 $157 $336 $351 reversed $237 $-1 #
coedge $-1 $157 $235 $345 $352 reversed $237 $-1 #
loop $-1 $-1 $157 $223 #
vertex $-1 $352 $353 #
vertex $-1 $234 $354 #
ellipse-curve $-1 -19.445436482630058 -19.445436482630054 12.5 -1 0 0 0 -16.970562748477139 -1.7763568394002505e-015 0.70710678118654757 I I #
face $-1 $355 $356 $41 $-1 $113 forward single #
loop $-1 $-1 $357 $159 #
cone-surface $-1 1.7677669529663689 1.7677669529663689 12.5 0.70710678118654757 0.70710678118654746 0 8.4852813742385695 -8.4852813742385713 -1.7763568394002505e-015 1 I I 0 -1 12 forward I I I I #
coedge $-1 $245 $162 $358 $359 forward $112 $-1 #
coedge $-1 $162 $244 $360 $361 forward $112 $-1 #
edge $362 $254 -25 $363 -12 $162 $364 forward 7 unknown #
coedge $-1 $164 $163 $357 $365 forward $76 $-1 #
coedge $-1 $366 $367 $164 $249 reversed $356 $-1 #
edge $368 $369 12 $253 25 $248 $370 forward 7 unknown #
coedge $-1 $251 $165 $371 $372 reversed $160 $-1 #
coedge $-1 $165 $250 $373 $374 reversed $160 $-1 #
convexity-sys-attrib $-1 $-1 $-1 $166 #
vertex $-1 $166 $375 #
vertex $-1 $359 $376 #
ellipse-curve $-1 1.767766952966376 1.767766952966376 12.5 -0.70710678118654757 -0.70710678118654746 0 -17.677669529663685 17.677669529663689 0 1 I I #
face $-1 $377 $378 $43 $-1 $379 reversed single #
loop $-1 $-1 $380 $167 #
cone-surface $-1 1.7677669529663689 1.7677669529663689 12.5 0.70710678118654757 0.70710678118654746 0 8.4852813742385695 -8.4852813742385713 -1.7763568394002505e-015 1 I I 0 -1 12 forward I I I I #
coedge $-1 $260 $170 $381 $382 forward $116 $-1 #
coedge $-1 $170 $259 $383 $384 forward $116 $-1 #
edge $385 $269 -25 $386 -12.000000000000004 $170 $387 forward 7 unknown #
coedge $-1 $172 $171 $380 $388 forward $79 $-1 #
coedge $-1 $389 $390 $172 $264 reversed $391 $-1 #
edge $392 $393 11.999999999999996 $268 24.999999999999996 $263 $394 forward 7 unknown #
coedge $-1 $266 $173 $395 $396 reversed $168 $-1 #
coedge $-1 $173 $265 $397 $398 reversed $168 $-1 #
convexity-sys-attrib $-1 $-1 $-1 $174 #
vertex $-1 $396 $399 #
vertex $-1 $382 $400 #
ellipse-curve $-1 -1.7677669529663653 -1.7677669529663649 12.5 0.70710678118654757 0.70710678118654746 0 -17.677669529663685 17.677669529663689 0 1 I I #
model_id-kcp-attrib $-1 $-1 $-1 $176 1 990635259 80 357564417 7 #
loop $-1 $-1 $401 $176 #
plane-surface $-1 0 0 -2.5 0 0 -1 -1 0 0 forward_v I I I I #
coedge $-1 $402 $403 $404 $405 reversed $177 $-1 #
edge $406 $407 0 $407 6.2831853071795862 $179 $408 forward 7 unknown #
loop $-1 $409 $181 $284 #
attrib_edge_convexity-kcp-attrib $-1 $410 $-1 $182 1 #
vertex $-1 $182 $411 #
ellipse-curve $-1 21 0 0 0 1 0 1 0 0 1 I I #
convexity-sys-attrib $-1 $-1 $183 $125 #
point $-1 -20 5 0 #
coedge $-1 $412 $413 $414 $415 forward $186 $-1 #
model_id-kcp-attrib $-1 $416 $-1 $187 1 990635259 80 357564417 12 #
face $417 $418 $276 $12 $-1 $285 forward single #
plane-surface $-1 0 0 0 0 -1 0 0 0 -1 forward_v I I I I #
face $-1 $-1 $205 $32 $-1 $419 reversed single #
loop $-1 $-1 $302 $190 #
plane-surface $-1 0 19.445436482630058 0 0 -1 0 0 0 -1 forward_v I I I I #
coedge $-1 $420 $300 $303 $421 forward $191 $-1 #
coedge $-1 $306 $193 $194 $294 reversed $131 $-1 #
coedge $-1 $300 $420 $193 $292 reversed $191 $-1 #
edge $-1 $307 -12.5 $422 12.5 $291 $423 forward 7 unknown #
coedge $-1 $195 $194 $420 $424 forward $91 $-1 #
edge $-1 $298 -19.445436482630058 $422 19.445436482630058 $290 $425 forward 7 unknown #
coedge $-1 $303 $302 $195 $296 reversed $287 $-1 #
edge $-1 $426 -19.445436482630058 $297 19.445436482630058 $295 $427 forward 7 unknown #
vertex $-1 $197 $428 #
vertex $-1 $309 $429 #
straight-curve $-1 19.445436482630058 0 -12.5 0 -1 0 I I #
coedge $-1 $289 $291 $198 $301 reversed $191 $-1 #
edge $-1 $304 -19.445436482630058 $307 19.445436482630058 $300 $430 forward 7 unknown #
coedge $-1 $295 $199 $204 $310 forward $287 $-1 #
coedge $-1 $199 $295 $289 $421 reversed $287 $-1 #
vertex $-1 $200 $431 #
straight-curve $-1 0 19.445436482630058 12.5 -1 0 0 I I #
coedge $-1 $201 $290 $203 $309 reversed $131 $-1 #
vertex $-1 $301 $432 #
straight-curve $-1 0 -19.445436482630058 12.5 1 0 0 I I #
edge $-1 $206 -12.5 $298 12.5 $203 $433 forward 7 unknown #
edge $-1 $207 -12.5 $297 12.5 $204 $434 forward 7 unknown #
point $-1 19.445436482630058 -19.445436482630058 12.5 #
point $-1 19.445436482630058 19.445436482630058 12.5 #
vertex $-1 $210 $435 #
ellipse-curve $-1 0 0 2.5 0 0 1 1 0 0 1 I I #
point $-1 1 0 -2.5 #
vertex $-1 $214 $436 #
ellipse-curve $-1 0 0 2.5 0 0 1 1 0 0 1 I I #
point $-1 1 0 -2.5 #
face $-1 $437 $438 $51 $-1 $225 forward single #
loop $-1 $-1 $439 $217 #
plane-surface $-1 19.445436482630058 0 0 -1 0 0 0 0 1 forward_v I I I I #
coedge $-1 $328 $440 $441 $442 forward $218 $-1 #
coedge $-1 $324 $219 $443 $444 forward $149 $-1 #
coedge $-1 $219 $323 $445 $446 forward $149 $-1 #
coedge $-1 $447 $448 $449 $222 forward $450 $-1 #
coedge $-1 $439 $451 $220 $327 reversed $320 $-1 #
edge $-1 $331 -19.445436482630058 $452 19.445436482630058 $326 $453 forward 7 unknown #
coedge $-1 $454 $322 $221 $329 reversed $218 $-1 #
edge $-1 $452 -19.445436482630058 $330 19.445436482630058 $328 $455 forward 7 unknown #
vertex $-1 $444 $456 #
vertex $-1 $327 $457 #
straight-curve $-1 1.7677669529663689 1.7677669529663689 -12.5 0.70710678118654746 0.70710678118654746 0 I I #
face $-1 $-1 $458 $39 $-1 $321 reversed single #
plane-surface $-1 -19.445436482630058 0 0 1 0 0 0 0 -1 forward_v I I I I #
coedge $-1 $336 $226 $459 $460 reversed $152 $-1 #
coedge $-1 $226 $335 $235 $351 forward $152 $-1 #
coedge $-1 $231 $461 $227 $338 forward $224 $-1 #
edge $-1 $462 -19.445436482630058 $343 -2.4748737341529194 $227 $463 forward 7 unknown #
coedge $-1 $464 $465 $228 $340 reversed $458 $-1 #
edge $-1 $462 -12.5 $342 -0.5 $339 $466 forward 7 unknown #
coedge $-1 $233 $229 $465 $467 reversed $73 $-1 #
vertex $-1 $467 $468 #
vertex $-1 $230 $469 #
ellipse-curve $-1 19.445436482630061 19.445436482630058 12.5 0 1 0 16.970562748477143 0 -1.7763568394002505e-015 0.70710678118654746 I I #
coedge $-1 $459 $231 $236 $352 forward $224 $-1 #
straight-curve $-1 -6.7175144212722007 10.25304832720494 12.5 -0.70710678118654757 -0.70710678118654746 0 I I #
coedge $-1 $461 $459 $233 $348 forward $224 $-1 #
edge $-1 $349 -18 $470 13.000000000000002 $347 $471 forward 7 unknown #
vertex $-1 $234 $472 #
ellipse-curve $-1 -19.445436482630061 -19.445436482630058 12.5 0 -1 0 16.970562748477143 0 -1.7763568394002505e-015 0.70710678118654746 I I #
edge $-1 $473 -12.5 $239 -0.5 $235 $474 forward 7 unknown #
edge $-1 $238 2.4748737341529115 $473 19.445436482630058 $236 $475 forward 7 unknown #
point $-1 -19.445436482630058 -2.4748737341529115 12.5 #
point $-1 -19.445436482630058 -19.445436482630058 0.5 #
face $-1 $476 $477 $41 $-1 $478 reversed single #
loop $-1 $-1 $248 $241 #
coedge $-1 $360 $479 $247 $365 reversed $242 $-1 #
coedge $-1 $373 $480 $244 $359 reversed $481 $-1 #
edge $-1 $254 -15.90990257669732 $482 2.4748737341529168 $358 $483 forward 7 unknown #
coedge $-1 $484 $357 $245 $361 reversed $242 $-1 #
edge $-1 $482 -13.000000000000002 $363 -1.0048591735576159e-014 $245 $485 forward 7 unknown #
convexity-sys-attrib $-1 $-1 $-1 $246 #
vertex $-1 $246 $486 #
straight-curve $-1 1.767766952966376 1.7677669529663758 12.5 -0.70710678118654746 0.70710678118654757 0 I I #
edge $487 $363 -1.4802973661668753e-016 $369 3.1415926535897931 $357 $488 forward 7 unknown #
coedge $-1 $367 $248 $479 $489 forward $356 $-1 #
coedge $-1 $248 $366 $490 $491 forward $356 $-1 #
convexity-sys-attrib $-1 $-1 $-1 $249 #
vertex $-1 $489 $492 #
straight-curve $-1 1.767766952966376 1.7677669529663758 12.5 -0.70710678118654746 0.70710678118654757 0 I I #
coedge $-1 $490 $493 $250 $372 forward $477 $-1 #
edge $-1 $494 -1.5707963267948966 $253 0 $371 $495 forward 7 unknown #
coedge $-1 $496 $358 $251 $374 forward $481 $-1 #
edge $-1 $254 -3.1415926535897931 $494 -1.5707963267948966 $373 $497 forward 7 unknown #
point $-1 -15.909902576697316 19.445436482630058 12.5 #
point $-1 19.445436482630058 -15.90990257669732 12.499999999999996 #
face $-1 $498 $499 $43 $-1 $500 reversed single #
loop $-1 $-1 $501 $256 #
plane-surface $-1 0 -19.445436482630058 0 0 1 0 0 0 1 forward_v I I I I #
coedge $-1 $383 $502 $262 $388 reversed $257 $-1 #
coedge $-1 $397 $503 $259 $382 reversed $499 $-1 #
edge $-1 $269 -15.909902576697316 $504 2.4748737341529115 $381 $505 forward 7 unknown #
coedge $-1 $506 $380 $260 $384 reversed $257 $-1 #
edge $-1 $504 -18 $386 -4.9999999999999947 $260 $507 forward 7 unknown #
convexity-sys-attrib $-1 $-1 $-1 $261 #
vertex $-1 $261 $508 #
straight-curve $-1 -1.7677669529663635 -1.7677669529663671 12.5 0.70710678118654746 -0.70710678118654757 0 I I #
edge $509 $386 -3.1415926535897931 $393 1.4802973661668753e-016 $380 $510 forward 7 unknown #
coedge $-1 $390 $263 $502 $511 forward $391 $-1 #
coedge $-1 $263 $389 $512 $513 forward $391 $-1 #
loop $-1 $-1 $263 $498 #
convexity-sys-attrib $-1 $-1 $-1 $264 #
vertex $-1 $511 $514 #
straight-curve $-1 -1.7677669529663635 -1.7677669529663671 12.5 0.70710678118654746 -0.70710678118654757 0 I I #
coedge $-1 $512 $515 $265 $396 forward $378 $-1 #
edge $-1 $516 1.5707963267948968 $268 3.1415926535897931 $395 $517 forward 7 unknown #
coedge $-1 $518 $381 $266 $398 forward $499 $-1 #
edge $-1 $269 0 $516 1.5707963267948968 $397 $519 forward 7 unknown #
point $-1 15.90990257669732 -19.445436482630058 12.499999999999996 #
point $-1 -19.445436482630058 15.909902576697316 12.5 #
coedge $-1 $520 $521 $403 $522 forward $272 $-1 #
coedge $-1 $414 $274 $523 $524 reversed $177 $-1 #
coedge $-1 $274 $414 $401 $522 reversed $177 $-1 #
coedge $-1 $525 $526 $274 $405 forward $409 $-1 #
edge $-1 $527 -2.5 $528 2.5 $404 $529 forward 7 unknown #
attrib_edge_convexity-kcp-attrib $-1 $530 $-1 $275 2 #
vertex $-1 $275 $531 #
ellipse-curve $-1 21 5 0 0 1 0 1 0 0 1 I I #
loop $-1 $-1 $404 $284 #
convexity-sys-attrib $-1 $-1 $277 $182 #
point $-1 22 0 0 #
coedge $-1 $532 $282 $533 $534 reversed $186 $-1 #
coedge $-1 $282 $532 $520 $535 reversed $186 $-1 #
coedge $-1 $403 $402 $282 $415 reversed $177 $-1 #
edge $536 $537 -2.5 $538 2.5 $282 $539 forward 7 unknown #
model_id-kcp-attrib $-1 $-1 $283 $187 1 990635259 80 357564417 8 #
model_id-kcp-attrib $-1 $540 $-1 $284 1 990635259 80 357564417 13 #
face $541 $542 $543 $12 $-1 $544 forward single #
plane-surface $-1 19.445436482630058 0 0 -1 0 0 0 0 1 forward_v I I I I #
coedge $-1 $291 $289 $293 $424 reversed $191 $-1 #
edge $-1 $304 -12.5 $426 12.5 $303 $545 forward 7 unknown #
vertex $-1 $424 $546 #
straight-curve $-1 -19.445436482630058 -19.445436482630058 0 0 0 -1 I I #
edge $-1 $422 -19.445436482630058 $426 19.445436482630058 $420 $547 forward 7 unknown #
straight-curve $-1 0 -19.445436482630058 -12.5 -1 0 0 I I #
vertex $-1 $296 $548 #
straight-curve $-1 0 19.445436482630058 -12.5 1 0 0 I I #
point $-1 19.445436482630058 19.445436482630058 -12.5 #
point $-1 19.445436482630058 -19.445436482630058 -12.5 #
straight-curve $-1 -19.445436482630058 0 12.5 0 -1 0 I I #
point $-1 -19.445436482630058 19.445436482630058 12.5 #
point $-1 -19.445436482630058 -19.445436482630058 12.5 #
straight-curve $-1 19.445436482630058 -19.445436482630058 0 0 0 -1 I I #
straight-curve $-1 19.445436482630058 19.445436482630058 0 0 0 -1 I I #
point $-1 1 0 2.5 #
point $-1 1 0 2.5 #
face $-1 $549 $550 $51 $-1 $225 forward single #
loop $-1 $-1 $551 $319 #
coedge $-1 $552 $326 $553 $554 forward $320 $-1 #
coedge $-1 $322 $454 $555 $556 reversed $218 $-1 #
coedge $-1 $557 $449 $322 $442 reversed $558 $-1 #
edge $-1 $559 -3.1415926535897931 $330 -1.5707963267948968 $322 $560 forward 7 unknown #
coedge $-1 $561 $562 $323 $444 reversed $563 $-1 #
edge $-1 $330 -19.445436482630058 $564 19.445436482630058 $443 $565 forward 7 unknown #
coedge $-1 $566 $567 $324 $446 reversed $568 $-1 #
edge $-1 $564 -19.445436482630058 $331 19.445436482630058 $445 $569 forward 7 unknown #
coedge $-1 $570 $325 $567 $571 reversed $450 $-1 #
coedge $-1 $325 $570 $561 $572 reversed $450 $-1 #
coedge $-1 $441 $553 $150 $222 reversed $558 $-1 #
loop $-1 $-1 $448 $573 #
coedge $-1 $326 $552 $454 $574 forward $320 $-1 #
vertex $-1 $574 $575 #
straight-curve $-1 19.445436482630058 0 -12.5 0 -1 0 I I #
coedge $-1 $440 $328 $451 $574 reversed $218 $-1 #
straight-curve $-1 0 -19.445436482630058 -12.5 -1 0 0 I I #
point $-1 -19.445436482630058 -19.445436482630058 -12.5 #
point $-1 19.445436482630058 19.445436482630058 -12.5 #
loop $-1 $-1 $465 $333 #
coedge $-1 $347 $345 $335 $460 forward $224 $-1 #
edge $-1 $473 -19.445436482630058 $349 -2.4748737341529203 $335 $576 forward 7 unknown #
coedge $-1 $337 $347 $464 $577 forward $224 $-1 #
vertex $-1 $577 $578 #
straight-curve $-1 0 19.445436482630058 12.5 -1 0 0 I I #
coedge $-1 $465 $339 $461 $577 reversed $458 $-1 #
coedge $-1 $339 $464 $341 $467 forward $458 $-1 #
straight-curve $-1 19.445436482630058 19.445436482630058 0 0 0 -1 I I #
edge $-1 $470 -1.4802973661668756e-016 $342 1.570796326794897 $465 $579 forward 7 unknown #
point $-1 19.445436482630061 19.445436482630061 0.5 #
point $-1 2.4748737341529194 19.445436482630058 12.5 #
vertex $-1 $577 $580 #
straight-curve $-1 10.253048327204938 -6.7175144212722024 12.5 0.70710678118654757 0.70710678118654746 0 I I #
point $-1 -2.4748737341529203 -19.445436482630058 12.5 #
vertex $-1 $352 $581 #
straight-curve $-1 -19.445436482630058 -19.445436482630058 0 0 0 -1 I I #
straight-curve $-1 -19.445436482630058 0 12.5 0 -1 0 I I #
face $-1 $-1 $481 $41 $-1 $582 reversed single #
loop $-1 $-1 $583 $355 #
plane-surface $-1 0 19.445436482630058 0 0 -1 0 0 0 -1 forward_v I I I I #
coedge $-1 $357 $584 $366 $489 reversed $242 $-1 #
coedge $-1 $358 $496 $484 $585 forward $481 $-1 #
loop $-1 $-1 $480 $476 #
vertex $-1 $585 $586 #
straight-curve $-1 19.445436482630058 0 12.5 0 1 0 I I #
coedge $-1 $584 $360 $480 $585 reversed $242 $-1 #
straight-curve $-1 10.253048327204938 -6.7175144212722024 12.5 -0.70710678118654757 -0.70710678118654746 0 I I #
point $-1 10.253048327204946 -6.7175144212721953 12.5 #
convexity-sys-attrib $-1 $-1 $-1 $365 #
ellipse-curve $-1 1.767766952966376 1.767766952966376 12.5 0.70710678118654757 0.70710678118654746 0 8.4852813742385695 -8.4852813742385713 -1.7763568394002505e-015 1 I I #
edge $-1 $369 1.0048591735576159e-014 $587 13.000000000000002 $366 $588 forward 7 unknown #
coedge $-1 $583 $371 $367 $491 reversed $477 $-1 #
edge $-1 $587 -2.4748737341529194 $253 15.909902576697316 $490 $589 forward 7 unknown #
point $-1 -6.7175144212721936 10.253048327204947 12.5 #
coedge $-1 $371 $583 $496 $590 forward $477 $-1 #
vertex $-1 $372 $591 #
ellipse-curve $-1 19.445436482630061 19.445436482630058 12.5 0 1 0 -35.355339059327378 0 0 0.70710678118654746 I I #
coedge $-1 $480 $373 $493 $590 reversed $481 $-1 #
ellipse-curve $-1 19.445436482630058 19.445436482630054 12.5 1 0 0 0 35.35533905932737 0 0.70710678118654768 I I #
face $-1 $-1 $391 $43 $-1 $117 forward single #
loop $-1 $-1 $503 $377 #
plane-surface $-1 -19.445436482630058 0 0 1 0 0 0 0 -1 forward_v I I I I #
coedge $-1 $515 $512 $592 $593 forward $378 $-1 #
coedge $-1 $380 $592 $389 $511 reversed $257 $-1 #
coedge $-1 $381 $518 $506 $594 forward $499 $-1 #
vertex $-1 $384 $595 #
straight-curve $-1 -19.445436482630058 0 12.5 0 -1 0 I I #
coedge $-1 $592 $383 $503 $594 reversed $257 $-1 #
straight-curve $-1 -6.7175144212722007 10.25304832720494 12.5 0.70710678118654757 0.70710678118654746 0 I I #
point $-1 -10.253048327204935 6.717514421272206 12.5 #
convexity-sys-attrib $-1 $-1 $-1 $388 #
ellipse-curve $-1 -1.7677669529663653 -1.7677669529663649 12.5 -0.70710678118654757 -0.70710678118654746 0 8.4852813742385695 -8.4852813742385713 -1.7763568394002505e-015 1 I I #
edge $-1 $393 4.9999999999999947 $596 18 $389 $597 forward 7 unknown #
coedge $-1 $501 $395 $390 $513 reversed $378 $-1 #
edge $-1 $596 -2.4748737341529203 $268 15.90990257669732 $512 $598 forward 7 unknown #
point $-1 6.7175144212722042 -10.253048327204937 12.5 #
coedge $-1 $395 $501 $518 $599 forward $378 $-1 #
vertex $-1 $398 $600 #
ellipse-curve $-1 -19.445436482630061 -19.445436482630058 12.5 0 -1 0 -35.355339059327378 0 0 0.70710678118654746 I I #
coedge $-1 $503 $397 $515 $599 reversed $499 $-1 #
ellipse-curve $-1 -19.445436482630058 -19.445436482630054 12.5 -1 0 0 0 35.35533905932737 0 0.70710678118654768 I I #
coedge $-1 $601 $401 $413 $535 forward $272 $-1 #
coedge $-1 $401 $601 $525 $602 forward $272 $-1 #
edge $603 $528 0 $537 3.1415926535897931 $401 $604 forward 7 unknown #
coedge $-1 $605 $533 $402 $524 forward $606 $-1 #
edge $607 $538 -3.1415926535897931 $527 0 $523 $608 forward 7 unknown #
coedge $-1 $609 $404 $521 $602 reversed $409 $-1 #
coedge $-1 $404 $609 $605 $610 reversed $409 $-1 #
vertex $-1 $610 $611 #
vertex $-1 $522 $612 #
straight-curve $-1 12 0 0 0 0 -1 I I #
convexity-sys-attrib $-1 $-1 $406 $275 #
point $-1 22 5 0 #
coedge $-1 $413 $412 $613 $614 reversed $186 $-1 #
coedge $-1 $523 $615 $412 $534 forward $606 $-1 #
edge $616 $617 -25 $538 -12 $533 $618 forward 7 unknown #
edge $619 $537 12 $620 25 $520 $621 forward 7 unknown #
attrib_edge_convexity-kcp-attrib $-1 $622 $-1 $415 1 #
vertex $-1 $535 $623 #
vertex $-1 $415 $624 #
straight-curve $-1 -12 0 0 0 0 1 I I #
model_id-kcp-attrib $-1 $-1 $417 $284 1 990635259 80 357564417 9 #
model_id-kcp-attrib $-1 $-1 $-1 $418 1 990635259 80 357564417 10 #
face $625 $-1 $606 $12 $-1 $626 forward single #
loop $-1 $-1 $627 $418 #
cone-surface $-1 0 0 0 0 0 1 25 0 0 1 I I 0 1 25 forward I I I I #
straight-curve $-1 -19.445436482630058 19.445436482630058 0 0 0 -1 I I #
point $-1 -19.445436482630058 -19.445436482630058 -12.5 #
straight-curve $-1 -19.445436482630058 0 -12.5 0 1 0 I I #
point $-1 -19.445436482630058 19.445436482630058 -12.5 #
face $-1 $628 $568 $51 $-1 $109 reversed single #
loop $-1 $-1 $629 $437 #
coedge $-1 $630 $631 $570 $632 forward $438 $-1 #
coedge $-1 $451 $439 $633 $634 reversed $320 $-1 #
coedge $-1 $449 $557 $439 $554 reversed $558 $-1 #
edge $-1 $331 1.5707963267948966 $635 3.1415926535897931 $439 $636 forward 7 unknown #
coedge $-1 $633 $629 $440 $556 forward $550 $-1 #
edge $-1 $559 15.90990257669732 $637 19.445436482630058 $440 $576 forward 7 unknown #
coedge $-1 $553 $441 $629 $638 reversed $558 $-1 #
loop $-1 $-1 $553 $639 #
vertex $-1 $556 $640 #
ellipse-curve $-1 -19.445436482630061 -19.445436482630058 12.5 0 1 0 -35.355339059327378 0 0 0.70710678118654746 I I #
coedge $-1 $641 $443 $448 $572 forward $563 $-1 #
coedge $-1 $443 $641 $566 $642 forward $563 $-1 #
loop $-1 $-1 $561 $628 #
vertex $-1 $446 $643 #
straight-curve $-1 -19.445436482630058 0 -12.5 0 1 0 I I #
coedge $-1 $644 $445 $562 $642 reversed $568 $-1 #
coedge $-1 $445 $644 $447 $571 forward $568 $-1 #
loop $-1 $-1 $567 $549 #
straight-curve $-1 0 19.445436482630058 -12.5 1 0 0 I I #
coedge $-1 $448 $447 $551 $632 reversed $450 $-1 #
edge $-1 $645 0 $331 1.5707963267948966 $567 $646 forward 7 unknown #
edge $-1 $330 -1.5707963267948968 $647 0 $561 $648 forward 7 unknown #
face $-1 $639 $450 $51 $-1 $649 reversed single #
edge $-1 $637 -12.5 $452 12.5 $451 $650 forward 7 unknown #
point $-1 19.445436482630058 -19.445436482630058 -12.5 #
straight-curve $-1 0 -19.445436482630058 12.5 1 0 0 I I #
edge $-1 $470 2.4748737341529168 $462 19.445436482630058 $464 $651 forward 7 unknown #
point $-1 19.445436482630058 19.445436482630058 12.5 #
ellipse-curve $-1 19.445436482630058 19.445436482630054 12.5 1 0 0 0 -16.970562748477139 -1.7763568394002505e-015 0.70710678118654757 I I #
point $-1 19.445436482630058 2.4748737341529168 12.5 #
point $-1 -19.445436482630058 -19.445436482630058 12.5 #
plane-surface $-1 19.445436482630058 0 0 -1 0 0 0 0 1 forward_v I I I I #
coedge $-1 $493 $490 $584 $652 forward $477 $-1 #
coedge $-1 $479 $484 $583 $652 reversed $242 $-1 #
edge $-1 $653 -1.570796326794897 $482 1.4802973661668756e-016 $480 $654 forward 7 unknown #
point $-1 19.445436482630058 2.4748737341529168 12.5 #
vertex $-1 $491 $655 #
straight-curve $-1 -6.7175144212722007 10.25304832720494 12.5 0.70710678118654757 0.70710678118654746 0 I I #
straight-curve $-1 0 19.445436482630058 12.5 -1 0 0 I I #
edge $-1 $653 -0.5 $494 12.5 $496 $656 forward 7 unknown #
point $-1 19.445436482630058 19.445436482630058 -12.5 #
coedge $-1 $502 $506 $501 $593 reversed $257 $-1 #
edge $-1 $596 -1.4802973661668753e-016 $657 1.5707963267948963 $501 $658 forward 7 unknown #
edge $-1 $657 1.5707963267948963 $504 3.1415926535897931 $503 $659 forward 7 unknown #
point $-1 -19.445436482630058 -2.4748737341529115 12.5 #
vertex $-1 $513 $660 #
straight-curve $-1 10.253048327204938 -6.7175144212722024 12.5 -0.70710678118654757 -0.70710678118654746 0 I I #
straight-curve $-1 0 -19.445436482630058 12.5 1 0 0 I I #
edge $-1 $657 -0.5 $516 12.5 $518 $661 forward 7 unknown #
point $-1 -19.445436482630058 -19.445436482630058 -12.5 #
coedge $-1 $521 $520 $662 $663 forward $272 $-1 #
edge $664 $665 -25 $528 -12 $521 $621 forward 7 unknown #
attrib_edge_convexity-kcp-attrib $-1 $666 $-1 $522 1 #
ellipse-curve $-1 0 0 -2.5 0 0 1 12 0 0 1 I I #
coedge $-1 $615 $523 $526 $610 forward $606 $-1 #
loop $-1 $-1 $523 $542 #
attrib_edge_convexity-kcp-attrib $-1 $667 $-1 $524 1 #
ellipse-curve $-1 0 0 2.5 0 0 -1 12 0 0 1 I I #
coedge $-1 $526 $525 $627 $668 reversed $409 $-1 #
edge $669 $527 12 $670 25 $605 $618 forward 7 unknown #
point $-1 12 0 2.5 #
point $-1 12 0 -2.5 #
coedge $-1 $671 $662 $532 $614 forward $543 $-1 #
edge $672 $620 -2.5 $617 2.5 $613 $673 forward 7 unknown #
coedge $-1 $533 $605 $671 $674 forward $606 $-1 #
model_id-kcp-attrib $-1 $675 $-1 $534 1 990635259 80 357564417 15 #
vertex $-1 $614 $676 #
straight-curve $-1 0 0 2.5 1 0 0 I I #
attrib_edge_convexity-kcp-attrib $-1 $677 $-1 $535 1 #
vertex $-1 $663 $678 #
straight-curve $-1 0 0 -2.5 -1 0 0 I I #
convexity-sys-attrib $-1 $-1 $536 $415 #
point $-1 -12 0 -2.5 #
point $-1 -12 0 2.5 #
model_id-kcp-attrib $-1 $-1 $-1 $542 1 990635259 80 357564417 11 #
plane-surface $-1 0 0 2.5 0 0 1 1 0 0 forward_v I I I I #
coedge $-1 $662 $671 $609 $668 forward $543 $-1 #
face $-1 $573 $563 $51 $-1 $334 reversed single #
coedge $-1 $555 $633 $557 $638 forward $550 $-1 #
coedge $-1 $631 $551 $644 $679 forward $438 $-1 #
coedge $-1 $551 $630 $641 $680 forward $438 $-1 #
edge $-1 $647 -5.0000000000000018 $645 2.5121479338940399e-015 $551 $681 forward 7 unknown #
coedge $-1 $629 $555 $552 $634 forward $550 $-1 #
edge $-1 $637 -19.445436482630058 $635 -15.90990257669732 $552 $651 forward 7 unknown #
vertex $-1 $554 $682 #
ellipse-curve $-1 19.445436482630058 19.445436482630054 12.5 -1 0 0 0 35.35533905932737 0 0.70710678118654768 I I #
vertex $-1 $634 $683 #
edge $-1 $635 0 $559 5 $629 $684 forward 7 unknown #
face $-1 $-1 $558 $51 $-1 $649 reversed single #
point $-1 15.90990257669732 -19.445436482630058 12.499999999999996 #
coedge $-1 $562 $561 $631 $680 reversed $563 $-1 #
edge $-1 $685 -12.5 $564 12.5 $566 $686 forward 7 unknown #
point $-1 -19.445436482630058 19.445436482630058 -12.5 #
coedge $-1 $567 $566 $630 $679 reversed $568 $-1 #
vertex $-1 $679 $687 #
ellipse-curve $-1 19.445436482630061 19.445436482630058 12.5 0 -1 0 -35.355339059327378 0 0 0.70710678118654746 I I #
vertex $-1 $572 $688 #
ellipse-curve $-1 -19.445436482630058 -19.445436482630054 12.5 1 0 0 0 35.35533905932737 0 0.70710678118654768 I I #
cone-surface $-1 1.7677669529663689 1.7677669529663689 12.5 0.70710678118654757 0.70710678118654746 0 -17.677669529663685 17.677669529663689 0 1 I I 0 1 25 forward I I I I #
straight-curve $-1 19.445436482630058 -19.445436482630058 0 0 0 -1 I I #
straight-curve $-1 19.445436482630058 0 12.5 0 1 0 I I #
edge $-1 $587 -3.1415926535897931 $653 -1.5707963267948966 $583 $689 forward 7 unknown #
vertex $-1 $590 $690 #
ellipse-curve $-1 19.445436482630058 19.445436482630054 12.5 -1 0 0 0 -16.970562748477139 -1.7763568394002505e-015 0.70710678118654757 I I #
point $-1 2.4748737341529194 19.445436482630058 12.5 #
straight-curve $-1 19.445436482630058 19.445436482630058 0 0 0 -1 I I #
vertex $-1 $599 $691 #
ellipse-curve $-1 -19.445436482630061 -19.445436482630058 12.5 0 1 0 16.970562748477143 0 -1.7763568394002505e-015 0.70710678118654746 I I #
ellipse-curve $-1 -19.445436482630058 -19.445436482630054 12.5 1 0 0 0 -16.970562748477139 -1.7763568394002505e-015 0.70710678118654757 I I #
point $-1 -2.4748737341529203 -19.445436482630058 12.5 #
straight-curve $-1 -19.445436482630058 -19.445436482630058 0 0 0 -1 I I #
coedge $-1 $613 $627 $601 $663 reversed $543 $-1 #
edge $692 $620 -3.1415926535897931 $665 0 $601 $693 forward 7 unknown #
attrib_edge_convexity-kcp-attrib $-1 $694 $-1 $602 1 #
vertex $-1 $663 $695 #
convexity-sys-attrib $-1 $-1 $603 $522 #
convexity-sys-attrib $-1 $-1 $607 $524 #
edge $-1 $670 -2.5 $665 2.5 $627 $696 forward 7 unknown #
attrib_edge_convexity-kcp-attrib $-1 $697 $-1 $610 1 #
vertex $-1 $610 $698 #
coedge $-1 $627 $613 $615 $674 reversed $543 $-1 #
attrib_edge_convexity-kcp-attrib $-1 $699 $-1 $614 1 #
straight-curve $-1 -25 0 0 0 0 1 I I #
edge $700 $670 0 $617 3.1415926535897931 $615 $701 forward 7 unknown #
attrib_edge_convexity-kcp-attrib $-1 $702 $616 $534 1 #
point $-1 -25 0 2.5 #
convexity-sys-attrib $-1 $-1 $619 $535 #
point $-1 -25 0 -2.5 #
edge $-1 $645 15.909902576697316 $685 19.445436482630058 $644 $463 forward 7 unknown #
edge $-1 $685 -19.445436482630058 $647 -15.909902576697316 $641 $475 forward 7 unknown #
straight-curve $-1 -15.909902576697316 19.445436482630054 12.5 0.70710678118654746 0.70710678118654746 0 I I #
point $-1 19.445436482630058 -15.90990257669732 12.499999999999996 #
point $-1 19.445436482630058 -19.445436482630058 12.5 #
straight-curve $-1 19.445436482630054 -15.909902576697316 12.5 -0.70710678118654746 -0.70710678118654746 0 I I #
vertex $-1 $679 $703 #
straight-curve $-1 -19.445436482630058 19.445436482630058 0 0 0 -1 I I #
point $-1 -15.909902576697316 19.445436482630058 12.5 #
point $-1 -19.445436482630058 15.909902576697316 12.5 #
ellipse-curve $-1 19.445436482630061 19.445436482630058 12.5 0 -1 0 16.970562748477143 0 -1.7763568394002505e-015 0.70710678118654746 I I #
point $-1 19.445436482630061 19.445436482630061 0.5 #
point $-1 -19.445436482630058 -19.445436482630058 0.5 #
attrib_edge_convexity-kcp-attrib $-1 $704 $-1 $663 1 #
ellipse-curve $-1 0 0 -2.5 0 0 -1 25 0 0 1 I I #
convexity-sys-attrib $-1 $-1 $664 $602 #
point $-1 25 0 -2.5 #
straight-curve $-1 25 0 0 0 0 -1 I I #
convexity-sys-attrib $-1 $705 $669 $610 #
point $-1 25 0 2.5 #
convexity-sys-attrib $-1 $-1 $672 $614 #
attrib_edge_convexity-kcp-attrib $-1 $706 $-1 $674 1 #
ellipse-curve $-1 0 0 2.5 0 0 1 25 0 0 1 I I #
convexity-sys-attrib $-1 $-1 $675 $534 #
point $-1 -19.445436482630058 19.445436482630058 12.5 #
convexity-sys-attrib $-1 $-1 $692 $663 #
model_id-kcp-attrib $-1 $-1 $697 $610 1 990635259 80 357564417 14 #
convexity-sys-attrib $-1 $-1 $700 $674 #
End-of-ACIS-data 