600 0 2 0           
24 FBMach with ACIS - 6.0.3 13 ACIS 6.0.3 NT 24 Wed May 23 12:27:42 2001 
1 9.9999999999999995e-007 1e-010 
body $2 $3 $-1 $4 #
bdycol-kcp $-1 1 10 $5 $6 $7 $8 $9 $10 $11 $12 $13 $14 #
model_id-kcp-attrib $-1 $15 $-1 $0 1 990635261 60 809238529 1 #
lump $-1 $-1 $16 $0 #
transform $-1 1 0 0 0 1 0 0 0 1 0 0 0 1 no_rotate no_reflect no_shear #
body $17 $18 $-1 $19 #
body $20 $21 $-1 $22 #
body $23 $24 $-1 $25 #
body $26 $27 $-1 $28 #
body $29 $30 $-1 $31 #
body $32 $33 $-1 $34 #
body $35 $36 $-1 $37 #
body $38 $39 $-1 $40 #
body $41 $42 $-1 $43 #
body $44 $45 $-1 $46 #
rgb_color-st-attrib $-1 $-1 $2 $0 0 1 0 #
shell $-1 $-1 $-1 $47 $-1 $3 #
model_id-kcp-attrib $-1 $-1 $-1 $5 1 990635261 70 809893890 1 #
lump $-1 $-1 $48 $5 #
transform $-1 1 0 0 0 1 0 0 0 1 0 0 0 1 no_rotate no_reflect no_shear #
rgb_color-st-attrib $-1 $49 $-1 $6 0.5 1 1 #
lump $-1 $-1 $50 $6 #
transform $-1 -3.8285889215894375e-016 0 -1 0 1 0 1 0 -3.8285889215894375e-016 -8.7948558783104234e-030 0 -2.2971533529536625e-014 1 rotate no_reflect no_shear #
rgb_color-st-attrib $-1 $51 $-1 $7 0.5 1 1 #
lump $-1 $-1 $52 $7 #
transform $-1 3.8285889215894375e-016 -4.6885143195523885e-032 -1 -1.2246063538223773e-016 -1 0 -1 1.2246063538223773e-016 -3.8285889215894375e-016 -74.686269665968865 -6.5072279295532375e-016 2.0344089089185364e-015 1 rotate no_reflect no_shear #
rgb_color-st-attrib $-1 $53 $-1 $8 0.5 1 1 #
lump $-1 $-1 $54 $8 #
transform $-1 -3.8285889215894375e-016 0 -1 0 1 0 1 0 -3.8285889215894375e-016 74.686269665968865 0 2.0344089089185364e-015 1 rotate no_reflect no_shear #
rgb_color-st-attrib $-1 $55 $-1 $9 0.5 1 1 #
lump $-1 $-1 $56 $9 #
transform $-1 1 0 0 0 -3.8285889215894375e-016 1 0 -1 -3.8285889215894375e-016 0 -9.8942128630992263e-030 2.5842975220728703e-014 1 rotate no_reflect no_shear #
rgb_color-st-attrib $-1 $57 $-1 $10 0.5 1 1 #
lump $-1 $-1 $58 $10 #
transform $-1 1 0 0 0 -3.8285889215894375e-016 1 0 -1 -3.8285889215894375e-016 0 -76.47435053981016 2.3069734768664179e-015 1 rotate no_reflect no_shear #
rgb_color-st-attrib $-1 $59 $-1 $11 0.5 1 1 #
lump $-1 $-1 $60 $11 #
transform $-1 1 0 0 0 -3.8285889215894375e-016 -1 0 1 -3.8285889215894375e-016 0 76.47435053981016 2.3069734768664179e-015 1 rotate no_reflect no_shear #
rgb_color-st-attrib $-1 $61 $-1 $12 0.5 0.5 1 #
lump $-1 $-1 $62 $12 #
transform $-1 1 0 0 0 1 0 0 0 1 0 0 0 1 no_rotate no_reflect no_shear #
rgb_color-st-attrib $-1 $63 $-1 $13 0.5 0.5 1 #
lump $-1 $-1 $64 $13 #
transform $-1 1 0 0 0 1 0 0 0 1 0 0 0 1 no_rotate no_reflect no_shear #
rgb_color-st-attrib $-1 $65 $-1 $14 0.5 1 1 #
lump $-1 $-1 $66 $14 #
transform $-1 1 0 0 0 1 0 0 0 1 0 0 0 1 no_rotate no_reflect no_shear #
face $67 $68 $69 $16 $-1 $70 reversed single #
shell $-1 $-1 $-1 $71 $-1 $18 #
model_id-kcp-attrib $-1 $-1 $20 $6 1 990635261 230 820379651 1 #
shell $-1 $-1 $-1 $72 $-1 $21 #
model_id-kcp-attrib $-1 $-1 $23 $7 1 990635261 240 821035012 1 #
shell $-1 $-1 $-1 $73 $-1 $24 #
model_id-kcp-attrib $-1 $-1 $26 $8 1 990635261 240 821035013 1 #
shell $-1 $-1 $-1 $74 $-1 $27 #
model_id-kcp-attrib $-1 $-1 $29 $9 1 990635261 250 821690374 1 #
shell $-1 $-1 $-1 $75 $-1 $30 #
model_id-kcp-attrib $-1 $-1 $32 $10 1 990635261 250 821690375 1 #
shell $-1 $-1 $-1 $76 $-1 $33 #
model_id-kcp-attrib $-1 $-1 $35 $11 1 990635261 250 821690376 1 #
shell $-1 $-1 $-1 $77 $-1 $36 #
model_id-kcp-attrib $-1 $-1 $38 $12 1 990635261 350 811466761 1 #
shell $-1 $-1 $-1 $78 $-1 $39 #
model_id-kcp-attrib $-1 $-1 $41 $13 1 990635261 380 813432842 1 #
shell $-1 $-1 $-1 $79 $-1 $42 #
model_id-kcp-attrib $-1 $-1 $44 $14 1 990635261 400 814743563 1 #
shell $-1 $-1 $-1 $80 $-1 $45 #
model_id-kcp-attrib $-1 $-1 $-1 $47 1 990635261 60 809238529 2 #
face $81 $82 $83 $16 $-1 $84 reversed single #
loop $-1 $-1 $85 $47 #
plane-surface $-1 8.4852813742385713 8.4852813742385695 0 0.70710678118654757 0.70710678118654746 0 0 0 -1 forward_v I I I I #
face $-1 $86 $87 $48 $-1 $88 forward single #
face $-1 $89 $90 $50 $-1 $91 forward single #
face $-1 $92 $93 $52 $-1 $94 forward single #
face $-1 $95 $96 $54 $-1 $97 forward single #
face $-1 $98 $99 $56 $-1 $100 forward single #
face $-1 $101 $102 $58 $-1 $103 forward single #
face $-1 $104 $105 $60 $-1 $106 forward single #
face $-1 $107 $108 $62 $-1 $109 reversed single #
face $-1 $110 $111 $64 $-1 $112 reversed single #
face $-1 $113 $114 $66 $-1 $115 forward single #
model_id-kcp-attrib $-1 $-1 $-1 $68 1 990635261 60 809238529 3 #
face $116 $117 $118 $16 $-1 $119 reversed single #
loop $-1 $-1 $120 $68 #
sphere-surface $-1 0 0 0 73 -0.70710678118654746 0.70710678118654757 0 0 0 1 forward_v I I I I #
coedge $-1 $121 $122 $123 $124 reversed $69 $-1 #
face $-1 $125 $126 $48 $-1 $127 reversed single #
loop $-1 $-1 $128 $71 #
plane-surface $-1 0 0 80 0 0 1 1 0 0 forward_v I I I I #
face $-1 $129 $130 $50 $-1 $131 forward single #
loop $-1 $132 $133 $72 #
cone-surface $-1 0 0 0 0 0 1 7.5 0 0 1 I I 0 1 7.5 forward I I I I #
face $-1 $134 $135 $52 $-1 $136 forward single #
loop $-1 $137 $138 $73 #
cone-surface $-1 0 0 0 0 0 1 10 0 0 1 I I 0 1 10 forward I I I I #
face $-1 $139 $140 $54 $-1 $141 forward single #
loop $-1 $142 $143 $74 #
cone-surface $-1 0 0 0 0 0 1 10 0 0 1 I I 0 1 10 forward I I I I #
face $-1 $144 $145 $56 $-1 $146 forward single #
loop $-1 $147 $148 $75 #
cone-surface $-1 0 0 0 0 0 1 6 0 0 1 I I 0 1 6 forward I I I I #
face $-1 $149 $150 $58 $-1 $151 forward single #
loop $-1 $152 $153 $76 #
cone-surface $-1 0 0 0 0 0 1 18 0 0 1 I I 0 1 18 forward I I I I #
face $-1 $154 $155 $60 $-1 $156 forward single #
loop $-1 $157 $158 $77 #
cone-surface $-1 0 0 0 0 0 1 18 0 0 1 I I 0 1 18 forward I I I I #
face $-1 $159 $160 $62 $-1 $161 reversed single #
loop $-1 $-1 $162 $78 #
plane-surface $-1 0 0 30 0 0 1 1 0 0 forward_v I I I I #
face $-1 $163 $164 $64 $-1 $165 reversed single #
loop $-1 $-1 $166 $79 #
plane-surface $-1 0 0 -30 0 0 -1 1 0 0 forward_v I I I I #
face $-1 $167 $168 $66 $-1 $169 forward single #
loop $-1 $-1 $170 $80 #
cone-surface $-1 0 0 30 0 0 -1 0 -57.662812973353979 0 1 I I 0 1 57.662812973353979 forward I I I I #
model_id-kcp-attrib $-1 $-1 $-1 $82 1 990635261 60 809238529 4 #
face $171 $172 $173 $16 $-1 $174 forward single #
loop $-1 $-1 $175 $82 #
plane-surface $-1 -8.4852813742385713 -8.4852813742385695 0 -0.70710678118654757 -0.70710678118654746 0 0 0 1 forward_v I I I I #
coedge $-1 $176 $177 $178 $179 reversed $83 $-1 #
coedge $-1 $180 $85 $177 $181 forward $69 $-1 #
coedge $-1 $85 $180 $182 $183 reversed $69 $-1 #
coedge $-1 $184 $178 $85 $124 forward $185 $-1 #
edge $186 $187 -65.459911396212561 $188 -56.400354608814297 $123 $189 forward 7 unknown #
face $-1 $190 $191 $48 $-1 $192 reversed single #
loop $-1 $-1 $193 $86 #
plane-surface $-1 0 0 -80 0 0 1 1 0 0 forward_v I I I I #
coedge $-1 $194 $195 $196 $197 forward $87 $-1 #
face $-1 $-1 $198 $50 $-1 $199 forward single #
loop $-1 $-1 $200 $89 #
plane-surface $-1 0 0 -70 0 0 -1 -1 0 0 forward_v I I I I #
loop $-1 $-1 $201 $72 #
coedge $-1 $133 $133 $200 $202 reversed $90 $-1 #
face $-1 $-1 $203 $52 $-1 $204 forward single #
loop $-1 $-1 $205 $92 #
plane-surface $-1 0 0 -4.6862696659688581 0 0 -1 -1 0 0 forward_v I I I I #
loop $-1 $-1 $206 $73 #
coedge $-1 $138 $138 $205 $207 reversed $93 $-1 #
face $-1 $-1 $208 $54 $-1 $209 forward single #
loop $-1 $-1 $210 $95 #
plane-surface $-1 0 0 -4.6862696659688581 0 0 -1 -1 0 0 forward_v I I I I #
loop $-1 $-1 $211 $74 #
coedge $-1 $143 $143 $210 $212 reversed $96 $-1 #
face $-1 $-1 $213 $56 $-1 $214 forward single #
loop $-1 $-1 $215 $98 #
plane-surface $-1 0 0 -75 0 0 -1 -1 0 0 forward_v I I I I #
loop $-1 $-1 $216 $75 #
coedge $-1 $148 $148 $217 $218 reversed $99 $-1 #
face $-1 $-1 $219 $58 $-1 $220 forward single #
loop $-1 $-1 $221 $101 #
plane-surface $-1 0 0 -1.4743505398101533 0 0 -1 -1 0 0 forward_v I I I I #
loop $-1 $-1 $222 $76 #
coedge $-1 $153 $153 $221 $223 reversed $102 $-1 #
face $-1 $-1 $224 $60 $-1 $225 forward single #
loop $-1 $-1 $226 $104 #
plane-surface $-1 0 0 -1.4743505398101533 0 0 -1 -1 0 0 forward_v I I I I #
loop $-1 $-1 $227 $77 #
coedge $-1 $158 $158 $226 $228 reversed $105 $-1 #
face $-1 $229 $230 $62 $-1 $231 reversed single #
loop $-1 $-1 $232 $107 #
plane-surface $-1 -80 0 0 1 0 0 0 0 -1 forward_v I I I I #
coedge $-1 $233 $234 $235 $236 forward $108 $-1 #
face $-1 $237 $238 $64 $-1 $239 reversed single #
loop $-1 $-1 $240 $110 #
plane-surface $-1 80 0 0 -1 0 0 0 0 1 forward_v I I I I #
coedge $-1 $241 $242 $243 $244 forward $111 $-1 #
face $-1 $245 $246 $66 $-1 $247 forward single #
loop $-1 $-1 $248 $113 #
plane-surface $-1 -31.395791830979963 48.366354579457109 30 0.70710678118654757 0.70710678118654746 0 0 0 -1 forward_v I I I I #
coedge $-1 $249 $250 $251 $252 forward $114 $-1 #
model_id-kcp-attrib $-1 $-1 $-1 $117 1 990635261 60 809238529 5 #
face $253 $254 $255 $16 $-1 $256 reversed single #
loop $-1 $185 $257 $117 #
plane-surface $-1 0 0 30 0 0 1 1 0 0 forward_v I I I I #
coedge $-1 $258 $259 $260 $261 reversed $118 $-1 #
coedge $-1 $262 $120 $259 $263 reversed $83 $-1 #
coedge $-1 $120 $262 $121 $181 reversed $83 $-1 #
coedge $-1 $123 $260 $120 $179 forward $185 $-1 #
edge $264 $265 -0.96670339808181605 $187 -0.60409292871308051 $178 $266 forward 7 unknown #
coedge $-1 $122 $121 $267 $268 reversed $69 $-1 #
edge $-1 $187 -2.0005275568740237 $269 -1.1410650967157694 $177 $270 forward 7 unknown #
coedge $-1 $271 $272 $122 $183 forward $273 $-1 #
edge $-1 $188 -2.0596460743310332 $274 -1.0819465792587599 $182 $275 forward 7 unknown #
coedge $-1 $260 $123 $272 $276 reversed $185 $-1 #
loop $-1 $-1 $260 $117 #
attrib_edge_convexity-kcp-attrib $-1 $277 $-1 $124 1 #
vertex $-1 $124 $278 #
vertex $-1 $183 $279 #
straight-curve $-1 8.4852813742385713 8.4852813742385695 30 0.70710678118654746 -0.70710678118654757 0 I I #
face $-1 $280 $281 $48 $-1 $282 reversed single #
loop $-1 $-1 $283 $125 #
plane-surface $-1 0 -80 0 0 1 0 0 0 1 forward_v I I I I #
coedge $-1 $284 $285 $286 $287 forward $126 $-1 #
coedge $-1 $288 $128 $289 $290 forward $87 $-1 #
coedge $-1 $128 $288 $291 $292 forward $87 $-1 #
coedge $-1 $293 $294 $128 $197 reversed $295 $-1 #
edge $-1 $296 -80 $297 80 $196 $298 forward 7 unknown #
loop $-1 $-1 $299 $129 #
plane-surface $-1 0 0 70 0 0 1 1 0 0 forward_v I I I I #
coedge $-1 $200 $200 $133 $202 forward $130 $-1 #
coedge $-1 $201 $201 $299 $300 reversed $132 $-1 #
edge $-1 $301 0 $301 6.2831853071795862 $200 $302 forward 7 unknown #
loop $-1 $-1 $303 $134 #
plane-surface $-1 0 0 4.6862696659688581 0 0 1 1 0 0 forward_v I I I I #
coedge $-1 $205 $205 $138 $207 forward $135 $-1 #
coedge $-1 $206 $206 $303 $304 reversed $137 $-1 #
edge $-1 $305 0 $305 6.2831853071795862 $205 $306 forward 7 unknown #
loop $-1 $-1 $307 $139 #
plane-surface $-1 0 0 4.6862696659688581 0 0 1 1 0 0 forward_v I I I I #
coedge $-1 $210 $210 $143 $212 forward $140 $-1 #
coedge $-1 $211 $211 $307 $308 reversed $142 $-1 #
edge $-1 $309 0 $309 6.2831853071795862 $210 $310 forward 7 unknown #
loop $-1 $-1 $217 $144 #
plane-surface $-1 0 0 75 0 0 1 1 0 0 forward_v I I I I #
coedge $-1 $215 $215 $216 $311 forward $145 $-1 #
coedge $-1 $216 $216 $215 $311 reversed $147 $-1 #
coedge $-1 $217 $217 $148 $218 forward $213 $-1 #
edge $-1 $312 0 $312 6.2831853071795862 $217 $313 forward 7 unknown #
loop $-1 $-1 $314 $149 #
plane-surface $-1 0 0 1.4743505398101533 0 0 1 1 0 0 forward_v I I I I #
coedge $-1 $221 $221 $153 $223 forward $150 $-1 #
coedge $-1 $222 $222 $314 $315 reversed $152 $-1 #
edge $-1 $316 0 $316 6.2831853071795862 $221 $317 forward 7 unknown #
loop $-1 $-1 $318 $154 #
plane-surface $-1 0 0 1.4743505398101533 0 0 1 1 0 0 forward_v I I I I #
coedge $-1 $226 $226 $158 $228 forward $155 $-1 #
coedge $-1 $227 $227 $318 $319 reversed $157 $-1 #
edge $-1 $320 0 $320 6.2831853071795862 $226 $321 forward 7 unknown #
face $-1 $322 $323 $62 $-1 $324 forward single #
loop $-1 $-1 $235 $159 #
plane-surface $-1 0 -80 0 0 1 0 0 0 1 forward_v I I I I #
coedge $-1 $325 $326 $233 $327 reversed $160 $-1 #
coedge $-1 $328 $162 $232 $327 forward $108 $-1 #
coedge $-1 $162 $328 $329 $330 forward $108 $-1 #
coedge $-1 $331 $332 $162 $236 reversed $230 $-1 #
edge $333 $334 -80 $335 80 $235 $336 forward 7 unknown #
face $-1 $337 $338 $64 $-1 $339 reversed single #
loop $-1 $-1 $243 $163 #
plane-surface $-1 0 -80 0 0 1 0 0 0 1 forward_v I I I I #
coedge $-1 $340 $341 $241 $342 reversed $164 $-1 #
coedge $-1 $343 $166 $240 $342 forward $111 $-1 #
coedge $-1 $166 $343 $344 $345 forward $111 $-1 #
coedge $-1 $346 $347 $166 $244 reversed $238 $-1 #
edge $348 $349 -80 $350 80 $243 $351 forward 7 unknown #
face $-1 $352 $353 $66 $-1 $354 forward single #
loop $-1 $-1 $355 $167 #
cone-surface $-1 0 0 30 0 0 -1 0 66.550732527899342 0 1 I I 0 1 66.550732527899342 forward I I I I #
coedge $-1 $356 $357 $358 $359 forward $168 $-1 #
coedge $-1 $360 $170 $357 $361 reversed $114 $-1 #
coedge $-1 $170 $360 $362 $363 forward $114 $-1 #
coedge $-1 $364 $358 $170 $252 reversed $365 $-1 #
edge $-1 $366 -2.14655592411704 $367 3.7173522509119361 $170 $368 forward 7 unknown #
model_id-kcp-attrib $-1 $-1 $-1 $172 1 990635261 60 809238529 6 #
face $369 $370 $371 $16 $-1 $372 reversed single #
loop $-1 $373 $374 $172 #
cone-surface $-1 -60 0 0 1 0 0 0 0 -7.5 1 I I 0 1 7.5 forward I I I I #
coedge $-1 $257 $257 $375 $376 reversed $173 $-1 #
coedge $-1 $377 $175 $378 $379 reversed $118 $-1 #
coedge $-1 $175 $377 $176 $263 forward $118 $-1 #
coedge $-1 $178 $184 $175 $261 forward $185 $-1 #
edge $380 $381 56.400354608814297 $265 65.459911396212561 $260 $382 forward 7 unknown #
coedge $-1 $177 $176 $383 $384 reversed $83 $-1 #
edge $-1 $385 -2.0005275568740237 $265 -1.1410650967157694 $176 $386 forward 7 unknown #
attrib_edge_convexity-kcp-attrib $-1 $387 $-1 $179 1 #
vertex $-1 $261 $388 #
ellipse-curve $-1 0 0 30 0 0 -1 0 66.550732527899342 0 1 I I #
coedge $-1 $383 $389 $180 $268 forward $390 $-1 #
edge $391 $274 56.400354608814297 $269 65.459911396212561 $267 $392 forward 7 unknown #
vertex $-1 $268 $393 #
ellipse-curve $-1 8.4852813742385713 8.4852813742385695 0 -0.70710678118654757 -0.70710678118654746 0 0 0 -72.006944109578768 1 I I #
coedge $-1 $378 $182 $389 $394 forward $273 $-1 #
coedge $-1 $182 $378 $184 $276 forward $273 $-1 #
loop $-1 $395 $378 $396 #
vertex $-1 $394 $397 #
ellipse-curve $-1 8.4852813742385713 8.4852813742385695 0 -0.70710678118654757 -0.70710678118654746 0 0 0 -63.882705014737745 1 I I #
edge $398 $381 -2.14655592411704 $188 3.7173522509119361 $272 $399 forward 7 unknown #
convexity-sys-attrib $-1 $-1 $186 $124 #
point $-1 -37.801865869893888 54.772428618371038 30 #
point $-1 -31.395791830979963 48.366354579457109 30 #
face $-1 $400 $401 $48 $-1 $402 reversed single #
loop $-1 $-1 $403 $190 #
plane-surface $-1 -80 0 0 1 0 0 0 0 -1 forward_v I I I I #
coedge $-1 $404 $291 $405 $406 forward $191 $-1 #
coedge $-1 $407 $193 $404 $408 forward $126 $-1 #
coedge $-1 $193 $407 $409 $410 forward $126 $-1 #
coedge $-1 $294 $293 $193 $287 reversed $295 $-1 #
edge $-1 $411 -80 $412 80 $286 $413 forward 7 unknown #
coedge $-1 $195 $194 $414 $415 forward $87 $-1 #
coedge $-1 $416 $417 $194 $290 reversed $401 $-1 #
edge $-1 $297 -80 $418 80 $289 $419 forward 7 unknown #
coedge $-1 $283 $420 $195 $292 reversed $191 $-1 #
edge $-1 $421 -80 $296 80 $291 $422 forward 7 unknown #
coedge $-1 $286 $196 $420 $423 forward $295 $-1 #
coedge $-1 $196 $286 $416 $424 reversed $295 $-1 #
loop $-1 $-1 $293 $400 #
vertex $-1 $197 $425 #
vertex $-1 $197 $426 #
straight-curve $-1 80 0 80 0 1 0 I I #
coedge $-1 $299 $299 $201 $300 forward $198 $-1 #
edge $-1 $427 0 $427 6.2831853071795862 $299 $428 forward 7 unknown #
vertex $-1 $202 $429 #
ellipse-curve $-1 0 0 -70 0 0 -1 7.5 0 0 1 I I #
coedge $-1 $303 $303 $206 $304 forward $203 $-1 #
edge $-1 $430 0 $430 6.2831853071795862 $303 $431 forward 7 unknown #
vertex $-1 $207 $432 #
ellipse-curve $-1 0 0 -4.6862696659688581 0 0 -1 10 0 0 1 I I #
coedge $-1 $307 $307 $211 $308 forward $208 $-1 #
edge $-1 $433 0 $433 6.2831853071795862 $307 $434 forward 7 unknown #
vertex $-1 $212 $435 #
ellipse-curve $-1 0 0 -4.6862696659688581 0 0 -1 10 0 0 1 I I #
edge $-1 $436 0 $436 6.2831853071795862 $215 $437 forward 7 unknown #
vertex $-1 $218 $438 #
ellipse-curve $-1 0 0 75 0 0 1 6 0 0 1 I I #
coedge $-1 $314 $314 $222 $315 forward $219 $-1 #
edge $-1 $439 0 $439 6.2831853071795862 $314 $440 forward 7 unknown #
vertex $-1 $223 $441 #
ellipse-curve $-1 0 0 -1.4743505398101533 0 0 -1 18 0 0 1 I I #
coedge $-1 $318 $318 $227 $319 forward $224 $-1 #
edge $-1 $442 0 $442 6.2831853071795862 $318 $443 forward 7 unknown #
vertex $-1 $228 $444 #
ellipse-curve $-1 0 0 -1.4743505398101533 0 0 -1 18 0 0 1 I I #
face $-1 $445 $446 $62 $-1 $447 reversed single #
loop $-1 $-1 $448 $229 #
plane-surface $-1 0 0 80 0 0 1 1 0 0 forward_v I I I I #
coedge $-1 $449 $232 $332 $450 reversed $160 $-1 #
coedge $-1 $232 $449 $451 $452 forward $160 $-1 #
edge $453 $335 -80 $454 80 $232 $455 forward 7 unknown #
coedge $-1 $234 $233 $456 $457 forward $108 $-1 #
coedge $-1 $458 $459 $234 $330 reversed $460 $-1 #
edge $461 $462 -80 $334 80 $329 $463 forward 7 unknown #
coedge $-1 $464 $235 $459 $465 reversed $230 $-1 #
coedge $-1 $235 $464 $325 $450 forward $230 $-1 #
convexity-sys-attrib $-1 $-1 $-1 $236 #
vertex $-1 $236 $466 #
vertex $-1 $236 $467 #
straight-curve $-1 0 -80 30 -1 0 0 I I #
face $-1 $468 $469 $64 $-1 $470 reversed single #
loop $-1 $-1 $471 $237 #
plane-surface $-1 0 0 -80 0 0 1 1 0 0 forward_v I I I I #
coedge $-1 $472 $240 $347 $473 forward $164 $-1 #
coedge $-1 $240 $472 $474 $475 reversed $164 $-1 #
edge $476 $350 -80 $477 80 $240 $478 forward 7 unknown #
coedge $-1 $242 $241 $479 $480 forward $111 $-1 #
coedge $-1 $481 $482 $242 $345 reversed $469 $-1 #
edge $483 $484 -80 $349 80 $344 $485 forward 7 unknown #
coedge $-1 $486 $243 $482 $487 forward $238 $-1 #
coedge $-1 $243 $486 $340 $473 reversed $238 $-1 #
convexity-sys-attrib $-1 $-1 $-1 $244 #
vertex $-1 $487 $488 #
vertex $-1 $473 $489 #
straight-curve $-1 0 -80 -30 1 0 0 I I #
face $-1 $490 $365 $66 $-1 $491 reversed single #
loop $-1 $-1 $492 $245 #
plane-surface $-1 -54.772428618371038 37.801865869893902 30 -0.70710678118654757 -0.70710678118654746 0 0 0 1 forward_v I I I I #
coedge $-1 $493 $494 $495 $496 forward $246 $-1 #
coedge $-1 $497 $248 $494 $498 reversed $168 $-1 #
coedge $-1 $248 $497 $249 $361 forward $168 $-1 #
coedge $-1 $251 $495 $248 $359 reversed $365 $-1 #
edge $-1 $367 56.400354608814297 $499 65.459911396212561 $248 $500 forward 7 unknown #
coedge $-1 $250 $249 $501 $502 reversed $114 $-1 #
edge $-1 $503 0 $367 60 $357 $504 forward 7 unknown #
coedge $-1 $505 $492 $250 $363 reversed $353 $-1 #
edge $-1 $506 0 $366 60 $250 $507 forward 7 unknown #
coedge $-1 $495 $251 $492 $508 reversed $365 $-1 #
loop $-1 $-1 $251 $352 #
vertex $-1 $363 $509 #
vertex $-1 $361 $510 #
ellipse-curve $-1 0 0 -30 0 0 1 0 -57.662812973353979 0 1 I I #
model_id-kcp-attrib $-1 $-1 $-1 $254 1 990635261 60 809238529 7 #
face $511 $512 $513 $16 $-1 $514 reversed single #
loop $-1 $515 $516 $254 #
cone-surface $-1 60 0 0 -1 0 0 0 0 7.5 1 I I 0 1 7.5 forward I I I I #
loop $-1 $-1 $517 $172 #
coedge $-1 $374 $374 $518 $519 reversed $255 $-1 #
coedge $-1 $375 $375 $257 $376 forward $520 $-1 #
edge $521 $522 -3.1415926535897931 $522 3.1415926535897931 $375 $523 forward 7 unknown #
coedge $-1 $259 $258 $524 $525 reversed $118 $-1 #
coedge $-1 $272 $271 $258 $379 forward $273 $-1 #
edge $-1 $526 -2.0596460743310332 $381 -1.0819465792587599 $378 $527 forward 7 unknown #
attrib_edge_convexity-kcp-attrib $-1 $528 $-1 $261 1 #
vertex $-1 $276 $529 #
straight-curve $-1 -8.4852813742385713 -8.4852813742385695 30 -0.70710678118654746 0.70710678118654757 0 I I #
coedge $-1 $524 $267 $262 $384 forward $390 $-1 #
edge $530 $269 -2.5374997248767128 $385 -2.1748892555079773 $383 $531 forward 7 unknown #
vertex $-1 $525 $532 #
ellipse-curve $-1 -8.4852813742385713 -8.4852813742385695 0 0.70710678118654757 0.70710678118654746 0 0 0 72.006944109578768 1 I I #
convexity-sys-attrib $-1 $-1 $264 $179 #
point $-1 -54.772428618371038 37.801865869893902 30 #
coedge $-1 $267 $524 $271 $394 reversed $390 $-1 #
loop $-1 $533 $524 $534 #
attrib_edge_convexity-kcp-attrib $-1 $535 $-1 $268 1 #
straight-curve $-1 8.4852813742385713 8.4852813742385695 -30 -0.70710678118654746 0.70710678118654757 0 I I #
point $-1 -37.801865869893888 54.772428618371038 -30 #
edge $536 $274 -0.57575959732214321 $526 5.2881485777068331 $271 $537 forward 7 unknown #
loop $-1 $538 $518 $396 #
face $539 $540 $273 $16 $-1 $541 reversed single #
point $-1 -31.395791830979963 48.366354579457109 -30 #
attrib_edge_convexity-kcp-attrib $-1 $542 $-1 $276 1 #
ellipse-curve $-1 0 0 30 0 0 1 0 -57.662812973353979 0 1 I I #
face $-1 $-1 $295 $48 $-1 $543 reversed single #
loop $-1 $-1 $416 $280 #
plane-surface $-1 0 80 0 0 -1 0 0 0 -1 forward_v I I I I #
coedge $-1 $544 $414 $417 $545 forward $281 $-1 #
coedge $-1 $420 $283 $284 $408 reversed $191 $-1 #
coedge $-1 $414 $544 $283 $406 reversed $281 $-1 #
edge $-1 $421 -80 $546 80 $405 $547 forward 7 unknown #
coedge $-1 $285 $284 $544 $548 forward $126 $-1 #
edge $-1 $412 -80 $546 80 $404 $549 forward 7 unknown #
coedge $-1 $417 $416 $285 $410 reversed $401 $-1 #
edge $-1 $550 -80 $411 80 $409 $551 forward 7 unknown #
vertex $-1 $287 $552 #
vertex $-1 $423 $553 #
straight-curve $-1 80 0 -80 0 -1 0 I I #
coedge $-1 $403 $405 $288 $415 reversed $281 $-1 #
edge $-1 $418 -80 $421 80 $414 $554 forward 7 unknown #
coedge $-1 $409 $289 $294 $424 forward $401 $-1 #
coedge $-1 $289 $409 $403 $545 reversed $401 $-1 #
vertex $-1 $290 $555 #
straight-curve $-1 0 80 80 -1 0 0 I I #
coedge $-1 $291 $404 $293 $423 reversed $191 $-1 #
vertex $-1 $415 $556 #
straight-curve $-1 0 -80 80 1 0 0 I I #
edge $-1 $296 -80 $412 80 $293 $557 forward 7 unknown #
edge $-1 $297 -80 $411 80 $294 $558 forward 7 unknown #
point $-1 80 -80 80 #
point $-1 80 80 80 #
vertex $-1 $300 $559 #
ellipse-curve $-1 0 0 70 0 0 1 7.5 0 0 1 I I #
point $-1 7.5 0 -70 #
vertex $-1 $304 $560 #
ellipse-curve $-1 0 0 4.6862696659688581 0 0 1 10 0 0 1 I I #
point $-1 10 0 -4.6862696659688581 #
vertex $-1 $308 $561 #
ellipse-curve $-1 0 0 4.6862696659688581 0 0 1 10 0 0 1 I I #
point $-1 10 0 -4.6862696659688581 #
vertex $-1 $311 $562 #
ellipse-curve $-1 0 0 -75 0 0 -1 6 0 0 1 I I #
point $-1 6 0 75 #
vertex $-1 $315 $563 #
ellipse-curve $-1 0 0 1.4743505398101533 0 0 1 18 0 0 1 I I #
point $-1 18 0 -1.4743505398101533 #
vertex $-1 $319 $564 #
ellipse-curve $-1 0 0 1.4743505398101533 0 0 1 18 0 0 1 I I #
point $-1 18 0 -1.4743505398101533 #
face $-1 $-1 $460 $62 $-1 $565 reversed single #
loop $-1 $-1 $456 $322 #
plane-surface $-1 0 80 0 0 -1 0 0 0 -1 forward_v I I I I #
coedge $-1 $566 $567 $568 $569 forward $323 $-1 #
coedge $-1 $326 $325 $570 $571 reversed $160 $-1 #
edge $-1 $572 -80 $335 -30 $325 $573 forward 7 unknown #
coedge $-1 $574 $456 $326 $452 reversed $446 $-1 #
edge $-1 $575 -80 $454 -30 $451 $576 forward 7 unknown #
convexity-sys-attrib $-1 $-1 $-1 $327 #
vertex $-1 $327 $577 #
straight-curve $-1 -80 0 30 0 1 0 I I #
coedge $-1 $451 $578 $328 $457 reversed $446 $-1 #
edge $579 $454 -80 $462 80 $456 $580 forward 7 unknown #
coedge $-1 $568 $329 $578 $581 reversed $460 $-1 #
coedge $-1 $329 $568 $331 $465 forward $460 $-1 #
loop $-1 $-1 $329 $445 #
convexity-sys-attrib $-1 $-1 $-1 $330 #
vertex $-1 $330 $582 #
straight-curve $-1 80 0 30 0 -1 0 I I #
coedge $-1 $332 $331 $567 $583 reversed $230 $-1 #
edge $-1 $584 -80 $334 -30 $459 $585 forward 7 unknown #
point $-1 80 -80 30 #
point $-1 -80 -80 30 #
face $-1 $-1 $586 $64 $-1 $587 reversed single #
loop $-1 $-1 $344 $337 #
plane-surface $-1 -80 0 0 1 0 0 0 0 -1 forward_v I I I I #
coedge $-1 $588 $589 $472 $590 forward $338 $-1 #
coedge $-1 $341 $340 $471 $590 reversed $164 $-1 #
edge $-1 $350 30 $591 80 $340 $592 forward 7 unknown #
coedge $-1 $593 $479 $341 $475 forward $586 $-1 #
edge $-1 $477 30 $594 80 $341 $595 forward 7 unknown #
convexity-sys-attrib $-1 $-1 $-1 $342 #
vertex $-1 $475 $596 #
straight-curve $-1 80 0 -30 0 1 0 I I #
coedge $-1 $474 $597 $343 $480 reversed $586 $-1 #
edge $598 $477 -80 $484 80 $479 $599 forward 7 unknown #
coedge $-1 $600 $344 $597 $601 forward $469 $-1 #
coedge $-1 $344 $600 $346 $487 reversed $469 $-1 #
convexity-sys-attrib $-1 $-1 $-1 $345 #
vertex $-1 $601 $602 #
straight-curve $-1 -80 0 -30 0 -1 0 I I #
coedge $-1 $347 $346 $588 $603 reversed $238 $-1 #
edge $-1 $349 30 $604 80 $482 $605 forward 7 unknown #
point $-1 -80 -80 -30 #
point $-1 80 -80 -30 #
face $-1 $-1 $606 $66 $-1 $607 forward single #
plane-surface $-1 -5.9696648331757061 5.9696648331757096 -30 0 0 1 1 0 0 forward_v I I I I #
coedge $-1 $362 $608 $364 $508 forward $353 $-1 #
coedge $-1 $609 $355 $608 $610 reversed $246 $-1 #
coedge $-1 $355 $609 $356 $498 forward $246 $-1 #
coedge $-1 $358 $364 $355 $496 reversed $365 $-1 #
edge $-1 $499 0.60409292871308051 $611 0.96670339808181605 $355 $612 forward 7 unknown #
coedge $-1 $357 $356 $613 $614 forward $168 $-1 #
edge $-1 $615 0 $499 60 $494 $616 forward 7 unknown #
vertex $-1 $498 $617 #
straight-curve $-1 8.4852813742385713 8.4852813742385695 -30 -0.70710678118654746 0.70710678118654757 0 I I #
coedge $-1 $613 $618 $360 $502 forward $606 $-1 #
edge $-1 $506 -2.14655592411704 $503 3.7173522509119361 $360 $619 forward 7 unknown #
vertex $-1 $614 $620 #
straight-curve $-1 -31.395791830979963 48.366354579457109 30 0 0 -1 I I #
coedge $-1 $608 $362 $618 $621 forward $353 $-1 #
vertex $-1 $621 $622 #
straight-curve $-1 -48.366354579457109 31.395791830979974 30 0 0 -1 I I #
edge $-1 $611 -65.459911396212561 $366 -56.400354608814297 $492 $623 forward 7 unknown #
point $-1 -48.366354579457109 31.395791830979974 -30 #
point $-1 -31.395791830979963 48.366354579457109 -30 #
model_id-kcp-attrib $-1 $-1 $-1 $370 1 990635261 60 809238529 8 #
face $624 $625 $626 $16 $-1 $627 reversed single #
loop $-1 $628 $629 $370 #
cone-surface $-1 -80 0 0 -1 0 0 0 0 10 1 I I 0 1 10 forward I I I I #
loop $-1 $-1 $630 $254 #
coedge $-1 $516 $516 $631 $632 reversed $371 $-1 #
coedge $-1 $517 $517 $633 $634 reversed $373 $-1 #
coedge $-1 $518 $518 $374 $519 forward $395 $-1 #
edge $635 $636 -3.1415926535897931 $636 3.1415926535897931 $518 $637 forward 7 unknown #
loop $-1 $638 $375 $540 #
attrib_edge_convexity-kcp-attrib $-1 $639 $-1 $376 1 #
vertex $-1 $376 $640 #
ellipse-curve $-1 0 0 30 0 0 -1 0 -74.16198487095663 0 1 I I #
coedge $-1 $389 $383 $377 $525 forward $390 $-1 #
edge $641 $385 -65.459911396212561 $526 -56.400354608814297 $524 $642 forward 7 unknown #
vertex $-1 $525 $643 #
ellipse-curve $-1 -8.4852813742385713 -8.4852813742385695 0 0.70710678118654757 0.70710678118654746 0 0 0 63.882705014737745 1 I I #
convexity-sys-attrib $-1 $-1 $380 $261 #
point $-1 -48.366354579457109 31.395791830979974 30 #
attrib_edge_convexity-kcp-attrib $-1 $644 $-1 $384 1 #
ellipse-curve $-1 0 0 -30 0 0 1 0 -66.550732527899342 0 1 I I #
point $-1 -54.772428618371038 37.801865869893902 -30 #
loop $-1 $-1 $645 $534 #
face $646 $396 $390 $16 $-1 $647 reversed single #
convexity-sys-attrib $-1 $-1 $391 $268 #
attrib_edge_convexity-kcp-attrib $-1 $648 $-1 $394 1 #
ellipse-curve $-1 0 0 -30 0 0 -1 0 57.662812973353979 0 1 I I #
loop $-1 $649 $631 $396 #
model_id-kcp-attrib $-1 $-1 $-1 $396 1 990635261 60 809238529 19 #
face $650 $-1 $651 $16 $-1 $652 forward single #
sphere-surface $-1 0 0 0 65 1 0 0 0 0 1 forward_v I I I I #
convexity-sys-attrib $-1 $-1 $398 $276 #
plane-surface $-1 80 0 0 -1 0 0 0 0 1 forward_v I I I I #
coedge $-1 $405 $403 $407 $548 reversed $281 $-1 #
edge $-1 $418 -80 $550 80 $417 $653 forward 7 unknown #
vertex $-1 $548 $654 #
straight-curve $-1 -80 -80 0 0 0 -1 I I #
edge $-1 $546 -80 $550 80 $544 $655 forward 7 unknown #
straight-curve $-1 0 -80 -80 -1 0 0 I I #
vertex $-1 $410 $656 #
straight-curve $-1 0 80 -80 1 0 0 I I #
point $-1 80 80 -80 #
point $-1 80 -80 -80 #
straight-curve $-1 -80 0 80 0 -1 0 I I #
point $-1 -80 80 80 #
point $-1 -80 -80 80 #
straight-curve $-1 80 -80 0 0 0 -1 I I #
straight-curve $-1 80 80 0 0 0 -1 I I #
point $-1 7.5 0 70 #
point $-1 10 0 4.6862696659688581 #
point $-1 10 0 4.6862696659688581 #
point $-1 6 0 -75 #
point $-1 18 0 1.4743505398101533 #
point $-1 18 0 1.4743505398101533 #
plane-surface $-1 80 0 0 -1 0 0 0 0 1 forward_v I I I I #
coedge $-1 $570 $448 $574 $657 forward $323 $-1 #
coedge $-1 $448 $570 $464 $583 forward $323 $-1 #
coedge $-1 $459 $458 $448 $569 reversed $460 $-1 #
edge $-1 $584 -80 $658 80 $568 $659 forward 7 unknown #
coedge $-1 $567 $566 $449 $571 forward $323 $-1 #
edge $-1 $575 -80 $572 80 $449 $660 forward 7 unknown #
vertex $-1 $571 $661 #
straight-curve $-1 -80 -80 0 0 0 -1 I I #
coedge $-1 $578 $451 $566 $657 reversed $446 $-1 #
vertex $-1 $657 $662 #
straight-curve $-1 -80 80 0 0 0 -1 I I #
point $-1 -80 80 30 #
coedge $-1 $456 $574 $458 $581 forward $446 $-1 #
convexity-sys-attrib $-1 $-1 $-1 $457 #
straight-curve $-1 0 80 30 1 0 0 I I #
edge $-1 $658 -80 $462 -30 $458 $663 forward 7 unknown #
point $-1 80 80 30 #
edge $-1 $572 -80 $584 80 $464 $664 forward 7 unknown #
vertex $-1 $569 $665 #
straight-curve $-1 80 -80 0 0 0 -1 I I #
loop $-1 $-1 $479 $468 #
plane-surface $-1 0 80 0 0 -1 0 0 0 -1 forward_v I I I I #
coedge $-1 $666 $471 $486 $603 forward $338 $-1 #
coedge $-1 $471 $666 $593 $667 forward $338 $-1 #
edge $-1 $594 -80 $591 80 $472 $668 forward 7 unknown #
vertex $-1 $473 $669 #
straight-curve $-1 80 -80 0 0 0 -1 I I #
coedge $-1 $597 $474 $589 $667 reversed $586 $-1 #
vertex $-1 $590 $670 #
straight-curve $-1 80 80 0 0 0 -1 I I #
point $-1 80 80 -30 #
coedge $-1 $479 $593 $481 $601 reversed $586 $-1 #
convexity-sys-attrib $-1 $-1 $-1 $480 #
straight-curve $-1 0 80 -30 -1 0 0 I I #
coedge $-1 $482 $481 $666 $671 reversed $469 $-1 #
edge $-1 $484 30 $672 80 $597 $673 forward 7 unknown #
point $-1 -80 80 -30 #
edge $-1 $591 -80 $604 80 $486 $674 forward 7 unknown #
vertex $-1 $671 $675 #
straight-curve $-1 -80 -80 0 0 0 -1 I I #
loop $-1 $-1 $618 $490 #
plane-surface $-1 -5.9696648331757061 5.9696648331757096 30 0 0 1 1 0 0 forward_v I I I I #
coedge $-1 $492 $505 $493 $610 forward $353 $-1 #
coedge $-1 $494 $493 $676 $677 forward $246 $-1 #
edge $-1 $678 0 $611 60 $608 $679 forward 7 unknown #
vertex $-1 $610 $680 #
ellipse-curve $-1 0 0 -30 0 0 1 0 66.550732527899342 0 1 I I #
coedge $-1 $676 $501 $497 $614 reversed $606 $-1 #
edge $-1 $615 -65.459911396212561 $503 -56.400354608814297 $497 $681 forward 7 unknown #
vertex $-1 $677 $682 #
straight-curve $-1 -37.801865869893888 54.772428618371038 30 0 0 -1 I I #
point $-1 -37.801865869893888 54.772428618371038 -30 #
coedge $-1 $501 $676 $505 $621 reversed $606 $-1 #
ellipse-curve $-1 0 0 30 0 0 1 0 -57.662812973353979 0 1 I I #
point $-1 -31.395791830979963 48.366354579457109 30 #
edge $-1 $506 56.400354608814297 $678 65.459911396212561 $505 $683 forward 7 unknown #
point $-1 -48.366354579457109 31.395791830979974 30 #
straight-curve $-1 -8.4852813742385713 -8.4852813742385695 -30 0.70710678118654746 -0.70710678118654757 0 I I #
model_id-kcp-attrib $-1 $-1 $-1 $512 1 990635261 60 809238529 9 #
face $684 $685 $686 $16 $-1 $687 reversed single #
loop $-1 $688 $633 $512 #
plane-surface $-1 -70 0 0 1 0 0 0 0 -1 forward_v I I I I #
loop $-1 $-1 $689 $370 #
coedge $-1 $629 $629 $690 $691 reversed $513 $-1 #
coedge $-1 $630 $630 $692 $693 reversed $515 $-1 #
coedge $-1 $631 $631 $516 $632 forward $538 $-1 #
edge $694 $695 -3.1415926535897931 $695 3.1415926535897931 $631 $696 forward 7 unknown #
coedge $-1 $633 $633 $517 $634 forward $626 $-1 #
edge $697 $698 0 $698 6.2831853071795862 $633 $699 forward 7 unknown #
attrib_edge_convexity-kcp-attrib $-1 $700 $-1 $519 1 #
vertex $-1 $519 $701 #
ellipse-curve $-1 -64.565857850724797 0 0 -1 0 0 0 0 -7.5 1 I I #
loop $-1 $-1 $702 $540 #
convexity-sys-attrib $-1 $-1 $521 $376 #
point $-1 9.0822237390631468e-015 74.16198487095663 30 #
attrib_edge_convexity-kcp-attrib $-1 $703 $-1 $525 1 #
straight-curve $-1 -8.4852813742385713 -8.4852813742385695 -30 0.70710678118654746 -0.70710678118654757 0 I I #
point $-1 -48.366354579457109 31.395791830979974 -30 #
convexity-sys-attrib $-1 $-1 $530 $384 #
coedge $-1 $645 $645 $702 $704 reversed $533 $-1 #
model_id-kcp-attrib $-1 $-1 $-1 $534 1 990635261 60 809238529 18 #
plane-surface $-1 0 0 -30 0 0 1 1 0 0 forward_v I I I I #
convexity-sys-attrib $-1 $-1 $536 $394 #
loop $-1 $705 $706 $396 #
model_id-kcp-attrib $-1 $-1 $-1 $540 1 990635261 60 809238529 20 #
loop $-1 $707 $690 $540 #
sphere-surface $-1 0 0 0 80 1 0 0 0 0 1 forward_v I I I I #
straight-curve $-1 -80 80 0 0 0 -1 I I #
point $-1 -80 -80 -80 #
straight-curve $-1 -80 0 -80 0 1 0 I I #
point $-1 -80 80 -80 #
edge $-1 $658 -80 $575 80 $574 $708 forward 7 unknown #
vertex $-1 $569 $709 #
straight-curve $-1 80 0 80 0 1 0 I I #
straight-curve $-1 -80 0 80 0 -1 0 I I #
point $-1 -80 -80 80 #
point $-1 -80 80 80 #
straight-curve $-1 80 80 0 0 0 -1 I I #
straight-curve $-1 0 -80 80 1 0 0 I I #
point $-1 80 -80 80 #
coedge $-1 $589 $588 $600 $671 forward $338 $-1 #
edge $-1 $672 -80 $594 80 $593 $710 forward 7 unknown #
straight-curve $-1 80 0 -80 0 -1 0 I I #
point $-1 80 -80 -80 #
point $-1 80 80 -80 #
edge $-1 $604 -80 $672 80 $600 $711 forward 7 unknown #
vertex $-1 $667 $712 #
straight-curve $-1 -80 80 0 0 0 -1 I I #
straight-curve $-1 0 -80 -80 -1 0 0 I I #
point $-1 -80 -80 -80 #
coedge $-1 $618 $613 $609 $677 reversed $606 $-1 #
edge $-1 $678 -0.96670339808181605 $615 -0.60409292871308051 $609 $713 forward 7 unknown #
vertex $-1 $621 $714 #
straight-curve $-1 -54.772428618371038 37.801865869893902 30 0 0 -1 I I #
point $-1 -54.772428618371038 37.801865869893902 -30 #
straight-curve $-1 8.4852813742385713 8.4852813742385695 30 0.70710678118654746 -0.70710678118654757 0 I I #
point $-1 -37.801865869893888 54.772428618371038 30 #
straight-curve $-1 -8.4852813742385713 -8.4852813742385695 30 -0.70710678118654746 0.70710678118654757 0 I I #
model_id-kcp-attrib $-1 $-1 $-1 $625 1 990635261 60 809238529 10 #
face $715 $716 $717 $16 $-1 $718 reversed single #
loop $-1 $719 $720 $625 #
cone-surface $-1 80 0 0 1 0 0 0 0 -10 1 I I 0 1 10 forward I I I I #
loop $-1 $-1 $721 $512 #
coedge $-1 $689 $689 $721 $722 forward $628 $-1 #
coedge $-1 $690 $690 $629 $691 forward $651 $-1 #
edge $723 $724 -3.1415926535897931 $724 3.1415926535897931 $690 $725 forward 7 unknown #
coedge $-1 $692 $692 $630 $693 forward $717 $-1 #
edge $726 $727 0 $727 6.2831853071795862 $692 $728 forward 7 unknown #
attrib_edge_convexity-kcp-attrib $-1 $729 $-1 $632 1 #
vertex $-1 $632 $730 #
ellipse-curve $-1 64.565857850724797 0 0 1 0 0 0 0 7.5 1 I I #
attrib_edge_convexity-kcp-attrib $-1 $731 $-1 $634 1 #
vertex $-1 $634 $732 #
ellipse-curve $-1 -70 0 0 1 0 0 0 0 -7.5 1 I I #
convexity-sys-attrib $-1 $-1 $635 $519 #
point $-1 -64.565857850724797 9.1848509936051499e-016 7.5 #
coedge $-1 $702 $702 $645 $704 forward $638 $-1 #
convexity-sys-attrib $-1 $-1 $641 $525 #
edge $733 $734 -3.1415926535897931 $734 3.1415926535897931 $702 $735 forward 7 unknown #
loop $-1 $-1 $736 $396 #
coedge $-1 $706 $706 $737 $738 forward $649 $-1 #
loop $-1 $739 $740 $540 #
straight-curve $-1 0 80 80 -1 0 0 I I #
point $-1 80 80 80 #
straight-curve $-1 0 80 -80 1 0 0 I I #
straight-curve $-1 -80 0 -80 0 1 0 I I #
point $-1 -80 80 -80 #
ellipse-curve $-1 0 0 30 0 0 -1 0 66.550732527899342 0 1 I I #
point $-1 -54.772428618371038 37.801865869893902 30 #
model_id-kcp-attrib $-1 $-1 $-1 $685 1 990635261 60 809238529 11 #
face $741 $742 $743 $16 $-1 $744 reversed single #
loop $-1 $745 $692 $685 #
plane-surface $-1 70 0 0 -1 0 0 0 0 1 forward_v I I I I #
loop $-1 $-1 $746 $625 #
coedge $-1 $720 $720 $740 $747 reversed $686 $-1 #
coedge $-1 $721 $721 $689 $722 reversed $688 $-1 #
edge $748 $749 0 $749 6.2831853071795862 $721 $750 forward 7 unknown #
attrib_edge_convexity-kcp-attrib $-1 $751 $-1 $691 1 #
vertex $-1 $691 $752 #
ellipse-curve $-1 -79.372539331937716 0 0 1 0 0 0 0 10 1 I I #
attrib_edge_convexity-kcp-attrib $-1 $753 $-1 $693 1 #
vertex $-1 $693 $754 #
ellipse-curve $-1 70 0 0 -1 0 0 0 0 7.5 1 I I #
convexity-sys-attrib $-1 $-1 $694 $632 #
point $-1 64.565857850724797 9.1848509936051499e-016 -7.5 #
convexity-sys-attrib $-1 $-1 $697 $634 #
point $-1 -70 0 -7.5 #
attrib_edge_convexity-kcp-attrib $-1 $755 $-1 $704 1 #
vertex $-1 $704 $756 #
ellipse-curve $-1 0 0 -30 0 0 1 0 74.16198487095663 0 1 I I #
coedge $-1 $736 $736 $757 $758 forward $705 $-1 #
coedge $-1 $737 $737 $706 $738 reversed $743 $-1 #
edge $759 $760 -3.1415926535897931 $760 3.1415926535897931 $706 $761 forward 7 unknown #
loop $-1 $762 $763 $540 #
coedge $-1 $740 $740 $720 $747 forward $707 $-1 #
model_id-kcp-attrib $-1 $-1 $-1 $716 1 990635261 60 809238529 12 #
face $764 $765 $766 $16 $-1 $767 reversed single #
loop $-1 $768 $737 $716 #
cone-surface $-1 0 -67.5 0 0 -1 0 6 0 0 1 I I 0 1 6 forward I I I I #
loop $-1 $-1 $769 $685 #
coedge $-1 $746 $746 $769 $770 forward $719 $-1 #
edge $771 $772 -3.1415926535897931 $772 3.1415926535897931 $740 $773 forward 7 unknown #
attrib_edge_convexity-kcp-attrib $-1 $774 $-1 $722 2 #
vertex $-1 $722 $775 #
ellipse-curve $-1 -70 0 0 1 0 0 0 0 10 1 I I #
convexity-sys-attrib $-1 $-1 $723 $691 #
point $-1 -79.372539331937716 1.2246467991473533e-015 -10 #
convexity-sys-attrib $-1 $-1 $726 $693 #
point $-1 70 0 7.5 #
convexity-sys-attrib $-1 $-1 $733 $704 #
point $-1 9.0822237390631468e-015 -74.16198487095663 -30 #
coedge $-1 $757 $757 $736 $758 reversed $766 $-1 #
edge $776 $777 -3.1415926535897931 $777 3.1415926535897931 $736 $778 forward 7 unknown #
attrib_edge_convexity-kcp-attrib $-1 $779 $-1 $738 1 #
vertex $-1 $738 $780 #
ellipse-curve $-1 0 -64.722484501137629 0 0 -1 0 6 0 0 1 I I #
loop $-1 $520 $781 $540 #
coedge $-1 $763 $763 $782 $783 forward $739 $-1 #
model_id-kcp-attrib $-1 $-1 $-1 $742 1 990635261 60 809238529 13 #
face $784 $785 $786 $16 $-1 $787 reversed single #
loop $-1 $788 $757 $742 #
cone-surface $-1 0 67.5 0 0 1 0 6 0 0 1 I I 0 1 6 forward I I I I #
loop $-1 $-1 $789 $716 #
coedge $-1 $769 $769 $746 $770 reversed $745 $-1 #
edge $790 $791 0 $791 6.2831853071795862 $769 $792 forward 7 unknown #
attrib_edge_convexity-kcp-attrib $-1 $793 $-1 $747 1 #
vertex $-1 $747 $794 #
ellipse-curve $-1 79.372539331937716 0 0 -1 0 0 0 0 -10 1 I I #
convexity-sys-attrib $-1 $-1 $748 $722 #
point $-1 -70 0 10 #
attrib_edge_convexity-kcp-attrib $-1 $795 $-1 $758 1 #
vertex $-1 $758 $796 #
ellipse-curve $-1 0 64.722484501137629 0 0 1 0 6 0 0 1 I I #
convexity-sys-attrib $-1 $-1 $759 $738 #
point $-1 -6 -64.722484501137629 -7.3478807948841188e-016 #
coedge $-1 $781 $781 $797 $798 forward $762 $-1 #
coedge $-1 $782 $782 $763 $783 reversed $786 $-1 #
edge $799 $800 -3.1415926535897931 $800 3.1415926535897931 $763 $801 forward 7 unknown #
model_id-kcp-attrib $-1 $-1 $-1 $765 1 990635261 60 809238529 14 #
face $802 $803 $804 $16 $-1 $805 reversed single #
loop $-1 $806 $782 $765 #
cone-surface $-1 0 -82.5 0 0 -1 0 18 0 0 1 I I 0 1 18 forward I I I I #
loop $-1 $-1 $807 $742 #
coedge $-1 $789 $789 $808 $809 reversed $768 $-1 #
attrib_edge_convexity-kcp-attrib $-1 $810 $-1 $770 2 #
vertex $-1 $770 $811 #
ellipse-curve $-1 70 0 0 -1 0 0 0 0 -10 1 I I #
convexity-sys-attrib $-1 $-1 $771 $747 #
point $-1 79.372539331937716 1.2246467991473533e-015 10 #
convexity-sys-attrib $-1 $-1 $776 $758 #
point $-1 -6 64.722484501137629 7.3478807948841188e-016 #
coedge $-1 $797 $797 $781 $798 reversed $812 $-1 #
edge $813 $814 -3.1415926535897931 $814 3.1415926535897931 $781 $815 forward 7 unknown #
attrib_edge_convexity-kcp-attrib $-1 $816 $-1 $783 1 #
vertex $-1 $783 $817 #
ellipse-curve $-1 0 -77.948701079620307 0 0 1 0 18 0 0 1 I I #
model_id-kcp-attrib $-1 $-1 $-1 $785 1 990635261 60 809238529 15 #
face $818 $819 $812 $16 $-1 $820 reversed single #
loop $-1 $821 $808 $785 #
plane-surface $-1 0 -75 0 0 1 0 -1 0 0 forward_v I I I I #
loop $-1 $-1 $822 $765 #
coedge $-1 $807 $807 $823 $824 reversed $788 $-1 #
coedge $-1 $808 $808 $789 $809 forward $804 $-1 #
edge $825 $826 0 $826 6.2831853071795862 $808 $827 forward 7 unknown #
convexity-sys-attrib $-1 $-1 $790 $770 #
point $-1 70 0 -10 #
loop $-1 $828 $797 $803 #
attrib_edge_convexity-kcp-attrib $-1 $829 $-1 $798 1 #
vertex $-1 $798 $830 #
ellipse-curve $-1 0 77.948701079620307 0 0 -1 0 18 0 0 1 I I #
convexity-sys-attrib $-1 $-1 $799 $783 #
point $-1 -18 -77.948701079620307 2.2043642384652358e-015 #
model_id-kcp-attrib $-1 $-1 $-1 $803 1 990635261 60 809238529 16 #
face $831 $534 $832 $16 $-1 $833 reversed single #
cone-surface $-1 0 82.5 0 0 1 0 18 0 0 1 I I 0 1 18 forward I I I I #
loop $-1 $-1 $834 $785 #
coedge $-1 $822 $822 $834 $835 forward $806 $-1 #
coedge $-1 $823 $823 $807 $824 forward $832 $-1 #
edge $836 $837 0 $837 6.2831853071795862 $823 $838 forward 7 unknown #
attrib_edge_convexity-kcp-attrib $-1 $839 $-1 $809 1 #
vertex $-1 $809 $840 #
ellipse-curve $-1 0 -75 0 0 1 0 6 0 0 1 I I #
loop $-1 $-1 $841 $803 #
convexity-sys-attrib $-1 $-1 $813 $798 #
point $-1 -18 77.948701079620307 -2.2043642384652358e-015 #
model_id-kcp-attrib $-1 $-1 $-1 $819 1 990635261 60 809238529 17 #
loop $-1 $842 $823 $819 #
plane-surface $-1 0 75 0 0 -1 0 -1 0 0 forward_v I I I I #
coedge $-1 $834 $834 $822 $835 reversed $821 $-1 #
edge $843 $844 0 $844 6.2831853071795862 $834 $845 forward 7 unknown #
attrib_edge_convexity-kcp-attrib $-1 $846 $-1 $824 1 #
vertex $-1 $824 $847 #
ellipse-curve $-1 0 75 0 0 -1 0 6 0 0 1 I I #
convexity-sys-attrib $-1 $-1 $825 $809 #
point $-1 6 -75 0 #
coedge $-1 $841 $841 $848 $849 forward $828 $-1 #
loop $-1 $-1 $848 $819 #
attrib_edge_convexity-kcp-attrib $-1 $850 $-1 $835 2 #
vertex $-1 $835 $851 #
ellipse-curve $-1 0 -75 0 0 1 0 18 0 0 1 I I #
convexity-sys-attrib $-1 $-1 $836 $824 #
point $-1 6 75 0 #
coedge $-1 $848 $848 $841 $849 reversed $842 $-1 #
edge $852 $853 0 $853 6.2831853071795862 $848 $854 forward 7 unknown #
convexity-sys-attrib $-1 $-1 $843 $835 #
point $-1 18 -75 0 #
attrib_edge_convexity-kcp-attrib $-1 $855 $-1 $849 2 #
vertex $-1 $849 $856 #
ellipse-curve $-1 0 75 0 0 -1 0 18 0 0 1 I I #
convexity-sys-attrib $-1 $-1 $852 $849 #
point $-1 18 75 0 #
End-of-ACIS-data 