106 0 1 0           
body $1 $2 $-1 $3 #
display_attribute-st-attrib $-1 $4 $-1 $0 2 #
lump $-1 $-1 $5 $0 #
transform $-1 1 0 0 0 1 0 0 0 1 0 0 0 1 0 0 0 #
rgb_color-st-attrib $-1 $6 $1 $0 0 1 0 #
shell $-1 $-1 $-1 $7 $2 #
id_attribute-st-attrib $-1 $-1 $4 $0 56 #
face $-1 $8 $9 $5 $-1 $10 reversed single #
face $-1 $11 $12 $5 $-1 $13 reversed single #
loop $-1 $-1 $14 $7 #
plane-surface $-1 8.485281374238571317 8.485281374238569541 0 0.7071067811865475727 0.7071067811865474617 0 -0 0 -1 0 I I I I #
face $-1 $15 $16 $5 $-1 $17 reversed single #
loop $-1 $-1 $18 $8 #
sphere-surface $-1 0 0 0 73 -0.7071067811865474617 0.7071067811865475727 0 0 0 1 0 I I I I #
coedge $-1 $19 $20 $21 $22 1 $9 $-1 #
face $-1 $23 $24 $5 $-1 $25 forward single #
loop $-1 $-1 $26 $11 #
plane-surface $-1 -8.485281374238571317 -8.485281374238569541 0 -0.7071067811865475727 -0.7071067811865474617 0 0 0 1 0 I I I I #
coedge $-1 $27 $28 $29 $30 1 $12 $-1 #
coedge $-1 $31 $14 $28 $32 0 $9 $-1 #
coedge $-1 $14 $31 $33 $34 1 $9 $-1 #
coedge $-1 $35 $29 $14 $22 0 $36 $-1 #
edge $-1 $37 $38 $21 $39 0 #
face $-1 $40 $41 $5 $-1 $42 reversed single #
loop $-1 $36 $43 $15 #
plane-surface $-1 0 0 30 0 0 1 1 0 0 0 I I I I #
coedge $-1 $44 $45 $46 $47 1 $16 $-1 #
coedge $-1 $48 $18 $45 $49 1 $12 $-1 #
coedge $-1 $18 $48 $19 $32 1 $12 $-1 #
coedge $-1 $21 $46 $18 $30 0 $36 $-1 #
edge $-1 $50 $37 $29 $51 0 #
coedge $-1 $20 $19 $52 $53 1 $9 $-1 #
edge $-1 $37 $54 $28 $55 0 #
coedge $-1 $56 $57 $20 $34 0 $58 $-1 #
edge $-1 $38 $59 $33 $60 0 #
coedge $-1 $46 $21 $57 $61 1 $36 $-1 #
loop $-1 $-1 $46 $15 #
vertex $-1 $22 $62 #
vertex $-1 $34 $63 #
straight-curve $-1 8.485281374238571317 8.485281374238569541 30 0.7071067811865474617 -0.7071067811865475727 0 I I #
face $-1 $64 $65 $5 $-1 $66 reversed single #
loop $-1 $67 $68 $23 #
cone-surface $-1 -60 0 0 1 0 0 0 0 -7.5 1 I I 0 1 0 I I I I #
coedge $-1 $43 $43 $69 $70 1 $24 $-1 #
coedge $-1 $71 $26 $72 $73 1 $16 $-1 #
coedge $-1 $26 $71 $27 $49 0 $16 $-1 #
coedge $-1 $29 $35 $26 $47 0 $36 $-1 #
edge $-1 $74 $50 $46 $75 0 #
coedge $-1 $28 $27 $76 $77 1 $12 $-1 #
edge $-1 $78 $50 $27 $79 0 #
vertex $-1 $47 $80 #
ellipse-curve $-1 0 0 30 -0 -0 -1 0 66.55073252789934202 0 1 I I #
coedge $-1 $76 $81 $31 $53 0 $82 $-1 #
edge $-1 $59 $54 $52 $83 0 #
vertex $-1 $53 $84 #
ellipse-curve $-1 8.485281374238571317 8.485281374238569541 0 -0.7071067811865475727 -0.7071067811865474617 0 -0 0 -72.00694410957876812 1 I I #
coedge $-1 $72 $33 $81 $85 0 $58 $-1 #
coedge $-1 $33 $72 $35 $61 0 $58 $-1 #
loop $-1 $86 $72 $87 #
vertex $-1 $85 $88 #
ellipse-curve $-1 8.485281374238571317 8.485281374238569541 0 -0.7071067811865475727 -0.7071067811865474617 -0 0 0 -63.88270501473774488 1 I I #
edge $-1 $74 $38 $57 $89 0 #
point $-1 -37.80186586989388786 54.7724286183710376 30 #
point $-1 -31.39579183097996307 48.36635457945710925 30 #
face $-1 $90 $91 $5 $-1 $92 reversed single #
loop $-1 $93 $94 $40 #
cone-surface $-1 60 0 0 -1 0 0 0 0 7.5 1 I I 0 1 0 I I I I #
loop $-1 $-1 $95 $23 #
coedge $-1 $68 $68 $96 $97 1 $41 $-1 #
coedge $-1 $69 $69 $43 $70 0 $98 $-1 #
edge $-1 $99 $99 $69 $100 0 #
coedge $-1 $45 $44 $101 $102 1 $16 $-1 #
coedge $-1 $57 $56 $44 $73 0 $58 $-1 #
edge $-1 $103 $74 $72 $104 0 #
vertex $-1 $61 $105 #
straight-curve $-1 -8.485281374238571317 -8.485281374238569541 30 -0.7071067811865474617 0.7071067811865475727 0 I I #
coedge $-1 $101 $52 $48 $77 0 $82 $-1 #
edge $-1 $54 $78 $76 $106 0 #
vertex $-1 $102 $107 #
ellipse-curve $-1 -8.485281374238571317 -8.485281374238569541 0 0.7071067811865475727 0.7071067811865474617 -0 0 0 72.00694410957876812 1 I I #
point $-1 -54.7724286183710376 37.80186586989390207 30 #
coedge $-1 $52 $101 $56 $85 1 $82 $-1 #
loop $-1 $108 $101 $109 #
straight-curve $-1 8.485281374238571317 8.485281374238569541 -30 -0.7071067811865474617 0.7071067811865475727 0 I I #
point $-1 -37.80186586989388786 54.7724286183710376 -30 #
edge $-1 $59 $103 $56 $110 0 #
loop $-1 $111 $96 $87 #
face $-1 $112 $58 $5 $-1 $113 reversed single #
point $-1 -31.39579183097996307 48.36635457945710925 -30 #
ellipse-curve $-1 0 0 30 0 0 1 0 -57.66281297335397937 0 1 I I #
face $-1 $114 $115 $5 $-1 $116 reversed single #
loop $-1 $117 $118 $64 #
cone-surface $-1 -80 0 0 -1 0 0 0 0 10 1 I I 0 1 0 I I I I #
loop $-1 $-1 $119 $40 #
coedge $-1 $94 $94 $120 $121 1 $65 $-1 #
coedge $-1 $95 $95 $122 $123 1 $67 $-1 #
coedge $-1 $96 $96 $68 $97 0 $86 $-1 #
edge $-1 $124 $124 $96 $125 0 #
loop $-1 $126 $69 $112 #
vertex $-1 $70 $127 #
ellipse-curve $-1 0 0 30 -0 -0 -1 0 -74.16198487095662983 0 1 I I #
coedge $-1 $81 $76 $71 $102 0 $82 $-1 #
edge $-1 $78 $103 $101 $128 0 #
vertex $-1 $102 $129 #
ellipse-curve $-1 -8.485281374238571317 -8.485281374238569541 0 0.7071067811865475727 0.7071067811865474617 -0 -0 0 63.88270501473774488 1 I I #
point $-1 -48.36635457945710925 31.39579183097997372 30 #
ellipse-curve $-1 0 0 -30 0 0 1 0 -66.55073252789934202 0 1 I I #
point $-1 -54.7724286183710376 37.80186586989390207 -30 #
loop $-1 $-1 $130 $109 #
face $-1 $87 $82 $5 $-1 $131 reversed single #
ellipse-curve $-1 0 0 -30 -0 -0 -1 0 57.66281297335397937 0 1 I I #
loop $-1 $132 $120 $87 #
face $-1 $-1 $133 $5 $-1 $134 forward single #
sphere-surface $-1 0 0 0 65 1 0 0 0 0 1 0 I I I I #
face $-1 $135 $136 $5 $-1 $137 reversed single #
loop $-1 $138 $122 $90 #
plane-surface $-1 -70 0 0 1 0 0 0 0 -1 0 I I I I #
loop $-1 $-1 $139 $64 #
coedge $-1 $118 $118 $140 $141 1 $91 $-1 #
coedge $-1 $119 $119 $142 $143 1 $93 $-1 #
coedge $-1 $120 $120 $94 $121 0 $111 $-1 #
edge $-1 $144 $144 $120 $145 0 #
coedge $-1 $122 $122 $95 $123 0 $115 $-1 #
edge $-1 $146 $146 $122 $147 0 #
vertex $-1 $97 $148 #
ellipse-curve $-1 -64.56585785072479666 0 0 -1 -0 -0 0 0 -7.5 1 I I #
loop $-1 $-1 $149 $112 #
point $-1 9.082223739063146826e-15 74.16198487095662983 30 #
straight-curve $-1 -8.485281374238571317 -8.485281374238569541 -30 0.7071067811865474617 -0.7071067811865475727 0 I I #
point $-1 -48.36635457945710925 31.39579183097997372 -30 #
coedge $-1 $130 $130 $149 $150 1 $108 $-1 #
plane-surface $-1 0 0 -30 0 0 1 1 0 0 0 I I I I #
loop $-1 $151 $152 $87 #
loop $-1 $153 $140 $112 #
sphere-surface $-1 0 0 0 80 1 0 0 0 0 1 0 I I I I #
face $-1 $154 $155 $5 $-1 $156 reversed single #
loop $-1 $157 $158 $114 #
cone-surface $-1 80 0 0 1 0 0 0 0 -10 1 I I 0 1 0 I I I I #
loop $-1 $-1 $159 $90 #
coedge $-1 $139 $139 $159 $160 0 $117 $-1 #
coedge $-1 $140 $140 $118 $141 0 $133 $-1 #
edge $-1 $161 $161 $140 $162 0 #
coedge $-1 $142 $142 $119 $143 0 $155 $-1 #
edge $-1 $163 $163 $142 $164 0 #
vertex $-1 $121 $165 #
ellipse-curve $-1 64.56585785072479666 0 0 1 -0 -0 0 0 7.5 1 I I #
vertex $-1 $123 $166 #
ellipse-curve $-1 -70 0 0 1 0 0 0 0 -7.5 1 I I #
point $-1 -64.56585785072479666 9.184850993605149917e-16 7.5 #
coedge $-1 $149 $149 $130 $150 0 $126 $-1 #
edge $-1 $167 $167 $149 $168 0 #
loop $-1 $-1 $169 $87 #
coedge $-1 $152 $152 $170 $171 0 $132 $-1 #
loop $-1 $172 $173 $112 #
face $-1 $174 $175 $5 $-1 $176 reversed single #
loop $-1 $177 $142 $135 #
plane-surface $-1 70 0 0 -1 0 0 0 0 1 0 I I I I #
loop $-1 $-1 $178 $114 #
coedge $-1 $158 $158 $173 $179 1 $136 $-1 #
coedge $-1 $159 $159 $139 $160 1 $138 $-1 #
edge $-1 $180 $180 $159 $181 0 #
vertex $-1 $141 $182 #
ellipse-curve $-1 -79.37253933193771616 0 0 1 -0 -0 0 0 10 1 I I #
vertex $-1 $143 $183 #
ellipse-curve $-1 70 0 0 -1 0 0 0 0 7.5 1 I I #
point $-1 64.56585785072479666 9.184850993605149917e-16 -7.5 #
point $-1 -70 0 -7.5 #
vertex $-1 $150 $184 #
ellipse-curve $-1 0 0 -30 0 0 1 0 74.16198487095662983 0 1 I I #
coedge $-1 $169 $169 $185 $186 0 $151 $-1 #
coedge $-1 $170 $170 $152 $171 1 $175 $-1 #
edge $-1 $187 $187 $152 $188 0 #
loop $-1 $189 $190 $112 #
coedge $-1 $173 $173 $158 $179 0 $153 $-1 #
face $-1 $191 $192 $5 $-1 $193 reversed single #
loop $-1 $194 $170 $154 #
cone-surface $-1 0 -67.5 0 0 -1 0 6 0 0 1 I I 0 1 0 I I I I #
loop $-1 $-1 $195 $135 #
coedge $-1 $178 $178 $195 $196 0 $157 $-1 #
edge $-1 $197 $197 $173 $198 0 #
vertex $-1 $160 $199 #
ellipse-curve $-1 -70 0 0 1 0 0 0 0 10 1 I I #
point $-1 -79.37253933193771616 1.224646799147353256e-15 -10 #
point $-1 70 0 7.5 #
point $-1 9.082223739063146826e-15 -74.16198487095662983 -30 #
coedge $-1 $185 $185 $169 $186 1 $192 $-1 #
edge $-1 $200 $200 $169 $201 0 #
vertex $-1 $171 $202 #
ellipse-curve $-1 0 -64.72248450113762885 0 0 -1 0 6 0 0 1 I I #
loop $-1 $98 $203 $112 #
coedge $-1 $190 $190 $204 $205 0 $172 $-1 #
face $-1 $206 $207 $5 $-1 $208 reversed single #
loop $-1 $209 $185 $174 #
cone-surface $-1 0 67.5 0 0 1 0 6 0 0 1 I I 0 1 0 I I I I #
loop $-1 $-1 $210 $154 #
coedge $-1 $195 $195 $178 $196 1 $177 $-1 #
edge $-1 $211 $211 $195 $212 0 #
vertex $-1 $179 $213 #
ellipse-curve $-1 79.37253933193771616 0 0 -1 -0 -0 0 0 -10 1 I I #
point $-1 -70 0 10 #
vertex $-1 $186 $214 #
ellipse-curve $-1 0 64.72248450113762885 0 0 1 0 6 0 0 1 I I #
point $-1 -6 -64.72248450113762885 -7.34788079488411875e-16 #
coedge $-1 $203 $203 $215 $216 0 $189 $-1 #
coedge $-1 $204 $204 $190 $205 1 $207 $-1 #
edge $-1 $217 $217 $190 $218 0 #
face $-1 $219 $220 $5 $-1 $221 reversed single #
loop $-1 $222 $204 $191 #
cone-surface $-1 0 -82.5 0 0 -1 0 18 0 0 1 I I 0 1 0 I I I I #
loop $-1 $-1 $223 $174 #
coedge $-1 $210 $210 $224 $225 1 $194 $-1 #
vertex $-1 $196 $226 #
ellipse-curve $-1 70 0 0 -1 0 0 0 0 -10 1 I I #
point $-1 79.37253933193771616 1.224646799147353256e-15 10 #
point $-1 -6 64.72248450113762885 7.34788079488411875e-16 #
coedge $-1 $215 $215 $203 $216 1 $227 $-1 #
edge $-1 $228 $228 $203 $229 0 #
vertex $-1 $205 $230 #
ellipse-curve $-1 0 -77.94870107962030659 0 -0 1 -0 18 0 0 1 I I #
face $-1 $231 $227 $5 $-1 $232 reversed single #
loop $-1 $233 $224 $206 #
plane-surface $-1 0 -75 0 0 1 0 -1 0 0 0 I I I I #
loop $-1 $-1 $234 $191 #
coedge $-1 $223 $223 $235 $236 1 $209 $-1 #
coedge $-1 $224 $224 $210 $225 0 $220 $-1 #
edge $-1 $237 $237 $224 $238 0 #
point $-1 70 0 -10 #
loop $-1 $239 $215 $219 #
vertex $-1 $216 $240 #
ellipse-curve $-1 0 77.94870107962030659 0 -0 -1 -0 18 0 0 1 I I #
point $-1 -18 -77.94870107962030659 2.204364238465235822e-15 #
face $-1 $109 $241 $5 $-1 $242 reversed single #
cone-surface $-1 0 82.5 0 0 1 0 18 0 0 1 I I 0 1 0 I I I I #
loop $-1 $-1 $243 $206 #
coedge $-1 $234 $234 $243 $244 0 $222 $-1 #
coedge $-1 $235 $235 $223 $236 0 $241 $-1 #
edge $-1 $245 $245 $235 $246 0 #
vertex $-1 $225 $247 #
ellipse-curve $-1 0 -75 0 0 1 0 6 0 0 1 I I #
loop $-1 $-1 $248 $219 #
point $-1 -18 77.94870107962030659 -2.204364238465235822e-15 #
loop $-1 $249 $235 $231 #
plane-surface $-1 0 75 0 0 -1 0 -1 0 0 0 I I I I #
coedge $-1 $243 $243 $234 $244 1 $233 $-1 #
edge $-1 $250 $250 $243 $251 0 #
vertex $-1 $236 $252 #
ellipse-curve $-1 0 75 0 0 -1 0 6 0 0 1 I I #
point $-1 6 -75 0 #
coedge $-1 $248 $248 $253 $254 0 $239 $-1 #
loop $-1 $-1 $253 $231 #
vertex $-1 $244 $255 #
ellipse-curve $-1 0 -75 0 0 1 0 18 0 0 1 I I #
point $-1 6 75 0 #
coedge $-1 $253 $253 $248 $254 1 $249 $-1 #
edge $-1 $256 $256 $253 $257 0 #
point $-1 18 -75 0 #
vertex $-1 $254 $258 #
ellipse-curve $-1 0 75 0 0 -1 0 18 0 0 1 I I #
point $-1 18 75 0 #
End-of-ACIS-data 