600 0 1 0           
86 GICL ACIS Healer - Source: /gicl/data5/repository/new/Seeker/gimbal.ustation.sat - 6 0 18 ACIS 6.0.3 Solaris 24 Sat Apr 13 20:35:34 2002 
1 9.999999999999999547e-07 1.000000000000000036e-10 
body $1 $2 $-1 $3 #
rgb_color-st-attrib $-1 $-1 $-1 $0 0 1 0 #
lump $-1 $-1 $4 $0 #
transform $-1 1 0 0 0 1 0 0 0 1 0 0 0 1 no_rotate no_reflect no_shear #
shell $-1 $-1 $-1 $5 $-1 $2 #
face $-1 $6 $7 $4 $-1 $8 reversed single #
face $-1 $9 $10 $4 $-1 $11 reversed single #
loop $-1 $-1 $12 $5 #
plane-surface $-1 8.485281374238571317 8.485281374238569541 0 0.7071067811865475727 0.7071067811865474617 0 -0 0 -1 forward_v I I I I #
face $-1 $13 $14 $4 $-1 $15 reversed single #
loop $-1 $-1 $16 $6 #
sphere-surface $-1 0 0 0 73 -0.7071067811865474617 0.7071067811865475727 0 0 0 1 forward_v I I I I #
coedge $-1 $17 $18 $19 $20 reversed $7 $-1 #
face $-1 $21 $22 $4 $-1 $23 forward single #
loop $-1 $-1 $24 $9 #
plane-surface $-1 -8.485281374238571317 -8.485281374238569541 0 -0.7071067811865475727 -0.7071067811865474617 0 0 0 1 forward_v I I I I #
coedge $-1 $25 $26 $27 $28 reversed $10 $-1 #
coedge $-1 $29 $12 $26 $30 forward $7 $-1 #
coedge $-1 $12 $29 $31 $32 reversed $7 $-1 #
coedge $-1 $33 $27 $12 $20 forward $34 $-1 #
edge $-1 $35 -65.45991139621256139 $36 -56.40035460881429685 $19 $37 forward 7 unknown #
face $-1 $38 $39 $4 $-1 $40 reversed single #
loop $-1 $34 $41 $13 #
plane-surface $-1 0 0 30 0 0 1 1 0 0 forward_v I I I I #
coedge $-1 $42 $43 $44 $45 reversed $14 $-1 #
coedge $-1 $46 $16 $43 $47 reversed $10 $-1 #
coedge $-1 $16 $46 $17 $30 reversed $10 $-1 #
coedge $-1 $19 $44 $16 $28 forward $34 $-1 #
edge $-1 $48 -0.9667033980818160455 $35 -0.6040929287130805125 $27 $49 forward 7 unknown #
coedge $-1 $18 $17 $50 $51 reversed $7 $-1 #
edge $-1 $35 -2.000527556874024171 $52 -1.141065096715769389 $26 $53 forward 7 unknown #
coedge $-1 $54 $55 $18 $32 forward $56 $-1 #
edge $-1 $36 -2.059646074331033638 $57 -1.081946579258759922 $31 $58 forward 7 unknown #
coedge $-1 $44 $19 $55 $59 reversed $34 $-1 #
loop $-1 $-1 $44 $13 #
vertex $-1 $20 $60 #
vertex $-1 $32 $61 #
straight-curve $-1 8.485281374238571317 8.485281374238569541 30 0.7071067811865474617 -0.7071067811865475727 0 I I #
face $-1 $62 $63 $4 $-1 $64 reversed single #
loop $-1 $65 $66 $21 #
cone-surface $-1 -60 0 0 1 0 0 0 0 -7.5 1 I I 0 1 7.5 forward I I I I #
coedge $-1 $41 $41 $67 $68 reversed $22 $-1 #
coedge $-1 $69 $24 $70 $71 reversed $14 $-1 #
coedge $-1 $24 $69 $25 $47 forward $14 $-1 #
coedge $-1 $27 $33 $24 $45 forward $34 $-1 #
edge $-1 $72 56.40035460881429685 $48 65.45991139621256139 $44 $73 forward 7 unknown #
coedge $-1 $26 $25 $74 $75 reversed $10 $-1 #
edge $-1 $76 -2.000527556874024171 $48 -1.141065096715769389 $25 $77 forward 7 unknown #
vertex $-1 $45 $78 #
ellipse-curve $-1 0 0 30 -0 -0 -1 0 66.55073252789934202 0 1 I I #
coedge $-1 $74 $79 $29 $51 forward $80 $-1 #
edge $-1 $57 56.40035460881429685 $52 65.45991139621256139 $50 $81 forward 7 unknown #
vertex $-1 $51 $82 #
ellipse-curve $-1 8.485281374238571317 8.485281374238569541 0 -0.7071067811865475727 -0.7071067811865474617 0 -0 0 -72.00694410957876812 1 I I #
coedge $-1 $70 $31 $79 $83 forward $56 $-1 #
coedge $-1 $31 $70 $33 $59 forward $56 $-1 #
loop $-1 $84 $70 $85 #
vertex $-1 $83 $86 #
ellipse-curve $-1 8.485281374238571317 8.485281374238569541 0 -0.7071067811865475727 -0.7071067811865474617 -0 0 0 -63.88270501473774488 1 I I #
edge $-1 $72 -2.146555924117039993 $36 3.717352250911936551 $55 $87 forward 7 unknown #
point $-1 -37.80186586989388786 54.7724286183710376 30 #
point $-1 -31.39579183097996307 48.36635457945710925 30 #
face $-1 $88 $89 $4 $-1 $90 reversed single #
loop $-1 $91 $92 $38 #
cone-surface $-1 60 0 0 -1 0 0 0 0 7.5 1 I I 0 1 7.5 forward I I I I #
loop $-1 $-1 $93 $21 #
coedge $-1 $66 $66 $94 $95 reversed $39 $-1 #
coedge $-1 $67 $67 $41 $68 forward $96 $-1 #
edge $-1 $97 -3.141592653589793116 $97 3.141592653589793116 $67 $98 forward 7 unknown #
coedge $-1 $43 $42 $99 $100 reversed $14 $-1 #
coedge $-1 $55 $54 $42 $71 forward $56 $-1 #
edge $-1 $101 -2.059646074331033638 $72 -1.081946579258759922 $70 $102 forward 7 unknown #
vertex $-1 $59 $103 #
straight-curve $-1 -8.485281374238571317 -8.485281374238569541 30 -0.7071067811865474617 0.7071067811865475727 0 I I #
coedge $-1 $99 $50 $46 $75 forward $80 $-1 #
edge $-1 $52 -2.537499724876712826 $76 -2.174889255507977293 $74 $104 forward 7 unknown #
vertex $-1 $100 $105 #
ellipse-curve $-1 -8.485281374238571317 -8.485281374238569541 0 0.7071067811865475727 0.7071067811865474617 -0 0 0 72.00694410957876812 1 I I #
point $-1 -54.7724286183710376 37.80186586989390207 30 #
coedge $-1 $50 $99 $54 $83 reversed $80 $-1 #
loop $-1 $106 $99 $107 #
straight-curve $-1 8.485281374238571317 8.485281374238569541 -30 -0.7071067811865474617 0.7071067811865475727 0 I I #
point $-1 -37.80186586989388786 54.7724286183710376 -30 #
edge $-1 $57 -0.5757595973221433239 $101 5.288148577706833109 $54 $108 forward 7 unknown #
loop $-1 $109 $94 $85 #
face $-1 $110 $56 $4 $-1 $111 reversed single #
point $-1 -31.39579183097996307 48.36635457945710925 -30 #
ellipse-curve $-1 0 0 30 0 0 1 0 -57.66281297335397937 0 1 I I #
face $-1 $112 $113 $4 $-1 $114 reversed single #
loop $-1 $115 $116 $62 #
cone-surface $-1 -80 0 0 -1 0 0 0 0 10 1 I I 0 1 10 forward I I I I #
loop $-1 $-1 $117 $38 #
coedge $-1 $92 $92 $118 $119 reversed $63 $-1 #
coedge $-1 $93 $93 $120 $121 reversed $65 $-1 #
coedge $-1 $94 $94 $66 $95 forward $84 $-1 #
edge $-1 $122 -3.141592653589793116 $122 3.141592653589793116 $94 $123 forward 7 unknown #
loop $-1 $124 $67 $110 #
vertex $-1 $68 $125 #
ellipse-curve $-1 0 0 30 -0 -0 -1 0 -74.16198487095662983 0 1 I I #
coedge $-1 $79 $74 $69 $100 forward $80 $-1 #
edge $-1 $76 -65.45991139621256139 $101 -56.40035460881429685 $99 $126 forward 7 unknown #
vertex $-1 $100 $127 #
ellipse-curve $-1 -8.485281374238571317 -8.485281374238569541 0 0.7071067811865475727 0.7071067811865474617 -0 -0 0 63.88270501473774488 1 I I #
point $-1 -48.36635457945710925 31.39579183097997372 30 #
ellipse-curve $-1 0 0 -30 0 0 1 0 -66.55073252789934202 0 1 I I #
point $-1 -54.7724286183710376 37.80186586989390207 -30 #
loop $-1 $-1 $128 $107 #
face $-1 $85 $80 $4 $-1 $129 reversed single #
ellipse-curve $-1 0 0 -30 -0 -0 -1 0 57.66281297335397937 0 1 I I #
loop $-1 $130 $118 $85 #
face $-1 $-1 $131 $4 $-1 $132 forward single #
sphere-surface $-1 0 0 0 65 1 0 0 0 0 1 forward_v I I I I #
face $-1 $133 $134 $4 $-1 $135 reversed single #
loop $-1 $136 $120 $88 #
plane-surface $-1 -70 0 0 1 0 0 0 0 -1 forward_v I I I I #
loop $-1 $-1 $137 $62 #
coedge $-1 $116 $116 $138 $139 reversed $89 $-1 #
coedge $-1 $117 $117 $140 $141 reversed $91 $-1 #
coedge $-1 $118 $118 $92 $119 forward $109 $-1 #
edge $-1 $142 -3.141592653589793116 $142 3.141592653589793116 $118 $143 forward 7 unknown #
coedge $-1 $120 $120 $93 $121 forward $113 $-1 #
edge $-1 $144 0 $144 6.283185307179586232 $120 $145 forward 7 unknown #
vertex $-1 $95 $146 #
ellipse-curve $-1 -64.56585785072479666 0 0 -1 -0 -0 0 0 -7.5 1 I I #
loop $-1 $-1 $147 $110 #
point $-1 9.082223739063146826e-15 74.16198487095662983 30 #
straight-curve $-1 -8.485281374238571317 -8.485281374238569541 -30 0.7071067811865474617 -0.7071067811865475727 0 I I #
point $-1 -48.36635457945710925 31.39579183097997372 -30 #
coedge $-1 $128 $128 $147 $148 reversed $106 $-1 #
plane-surface $-1 0 0 -30 0 0 1 1 0 0 forward_v I I I I #
loop $-1 $149 $150 $85 #
loop $-1 $151 $138 $110 #
sphere-surface $-1 0 0 0 80 1 0 0 0 0 1 forward_v I I I I #
face $-1 $152 $153 $4 $-1 $154 reversed single #
loop $-1 $155 $156 $112 #
cone-surface $-1 80 0 0 1 0 0 0 0 -10 1 I I 0 1 10 forward I I I I #
loop $-1 $-1 $157 $88 #
coedge $-1 $137 $137 $157 $158 forward $115 $-1 #
coedge $-1 $138 $138 $116 $139 forward $131 $-1 #
edge $-1 $159 -3.141592653589793116 $159 3.141592653589793116 $138 $160 forward 7 unknown #
coedge $-1 $140 $140 $117 $141 forward $153 $-1 #
edge $-1 $161 0 $161 6.283185307179586232 $140 $162 forward 7 unknown #
vertex $-1 $119 $163 #
ellipse-curve $-1 64.56585785072479666 0 0 1 -0 -0 0 0 7.5 1 I I #
vertex $-1 $121 $164 #
ellipse-curve $-1 -70 0 0 1 0 0 0 0 -7.5 1 I I #
point $-1 -64.56585785072479666 9.184850993605149917e-16 7.5 #
coedge $-1 $147 $147 $128 $148 forward $124 $-1 #
edge $-1 $165 -3.141592653589793116 $165 3.141592653589793116 $147 $166 forward 7 unknown #
loop $-1 $-1 $167 $85 #
coedge $-1 $150 $150 $168 $169 forward $130 $-1 #
loop $-1 $170 $171 $110 #
face $-1 $172 $173 $4 $-1 $174 reversed single #
loop $-1 $175 $140 $133 #
plane-surface $-1 70 0 0 -1 0 0 0 0 1 forward_v I I I I #
loop $-1 $-1 $176 $112 #
coedge $-1 $156 $156 $171 $177 reversed $134 $-1 #
coedge $-1 $157 $157 $137 $158 reversed $136 $-1 #
edge $-1 $178 0 $178 6.283185307179586232 $157 $179 forward 7 unknown #
vertex $-1 $139 $180 #
ellipse-curve $-1 -79.37253933193771616 0 0 1 -0 -0 0 0 10 1 I I #
vertex $-1 $141 $181 #
ellipse-curve $-1 70 0 0 -1 0 0 0 0 7.5 1 I I #
point $-1 64.56585785072479666 9.184850993605149917e-16 -7.5 #
point $-1 -70 0 -7.5 #
vertex $-1 $148 $182 #
ellipse-curve $-1 0 0 -30 0 0 1 0 74.16198487095662983 0 1 I I #
coedge $-1 $167 $167 $183 $184 forward $149 $-1 #
coedge $-1 $168 $168 $150 $169 reversed $173 $-1 #
edge $-1 $185 -3.141592653589793116 $185 3.141592653589793116 $150 $186 forward 7 unknown #
loop $-1 $187 $188 $110 #
coedge $-1 $171 $171 $156 $177 forward $151 $-1 #
face $-1 $189 $190 $4 $-1 $191 reversed single #
loop $-1 $192 $168 $152 #
cone-surface $-1 0 -67.5 0 0 -1 0 6 0 0 1 I I 0 1 6 forward I I I I #
loop $-1 $-1 $193 $133 #
coedge $-1 $176 $176 $193 $194 forward $155 $-1 #
edge $-1 $195 -3.141592653589793116 $195 3.141592653589793116 $171 $196 forward 7 unknown #
vertex $-1 $158 $197 #
ellipse-curve $-1 -70 0 0 1 0 0 0 0 10 1 I I #
point $-1 -79.37253933193771616 1.224646799147353256e-15 -10 #
point $-1 70 0 7.5 #
point $-1 9.082223739063146826e-15 -74.16198487095662983 -30 #
coedge $-1 $183 $183 $167 $184 reversed $190 $-1 #
edge $-1 $198 -3.141592653589793116 $198 3.141592653589793116 $167 $199 forward 7 unknown #
vertex $-1 $169 $200 #
ellipse-curve $-1 0 -64.72248450113762885 0 0 -1 0 6 0 0 1 I I #
loop $-1 $96 $201 $110 #
coedge $-1 $188 $188 $202 $203 forward $170 $-1 #
face $-1 $204 $205 $4 $-1 $206 reversed single #
loop $-1 $207 $183 $172 #
cone-surface $-1 0 67.5 0 0 1 0 6 0 0 1 I I 0 1 6 forward I I I I #
loop $-1 $-1 $208 $152 #
coedge $-1 $193 $193 $176 $194 reversed $175 $-1 #
edge $-1 $209 0 $209 6.283185307179586232 $193 $210 forward 7 unknown #
vertex $-1 $177 $211 #
ellipse-curve $-1 79.37253933193771616 0 0 -1 -0 -0 0 0 -10 1 I I #
point $-1 -70 0 10 #
vertex $-1 $184 $212 #
ellipse-curve $-1 0 64.72248450113762885 0 0 1 0 6 0 0 1 I I #
point $-1 -6 -64.72248450113762885 -7.34788079488411875e-16 #
coedge $-1 $201 $201 $213 $214 forward $187 $-1 #
coedge $-1 $202 $202 $188 $203 reversed $205 $-1 #
edge $-1 $215 -3.141592653589793116 $215 3.141592653589793116 $188 $216 forward 7 unknown #
face $-1 $217 $218 $4 $-1 $219 reversed single #
loop $-1 $220 $202 $189 #
cone-surface $-1 0 -82.5 0 0 -1 0 18 0 0 1 I I 0 1 18 forward I I I I #
loop $-1 $-1 $221 $172 #
coedge $-1 $208 $208 $222 $223 reversed $192 $-1 #
vertex $-1 $194 $224 #
ellipse-curve $-1 70 0 0 -1 0 0 0 0 -10 1 I I #
point $-1 79.37253933193771616 1.224646799147353256e-15 10 #
point $-1 -6 64.72248450113762885 7.34788079488411875e-16 #
coedge $-1 $213 $213 $201 $214 reversed $225 $-1 #
edge $-1 $226 -3.141592653589793116 $226 3.141592653589793116 $201 $227 forward 7 unknown #
vertex $-1 $203 $228 #
ellipse-curve $-1 0 -77.94870107962030659 0 -0 1 -0 18 0 0 1 I I #
face $-1 $229 $225 $4 $-1 $230 reversed single #
loop $-1 $231 $222 $204 #
plane-surface $-1 0 -75 0 0 1 0 -1 0 0 forward_v I I I I #
loop $-1 $-1 $232 $189 #
coedge $-1 $221 $221 $233 $234 reversed $207 $-1 #
coedge $-1 $222 $222 $208 $223 forward $218 $-1 #
edge $-1 $235 0 $235 6.283185307179586232 $222 $236 forward 7 unknown #
point $-1 70 0 -10 #
loop $-1 $237 $213 $217 #
vertex $-1 $214 $238 #
ellipse-curve $-1 0 77.94870107962030659 0 -0 -1 -0 18 0 0 1 I I #
point $-1 -18 -77.94870107962030659 2.204364238465235822e-15 #
face $-1 $107 $239 $4 $-1 $240 reversed single #
cone-surface $-1 0 82.5 0 0 1 0 18 0 0 1 I I 0 1 18 forward I I I I #
loop $-1 $-1 $241 $204 #
coedge $-1 $232 $232 $241 $242 forward $220 $-1 #
coedge $-1 $233 $233 $221 $234 forward $239 $-1 #
edge $-1 $243 0 $243 6.283185307179586232 $233 $244 forward 7 unknown #
vertex $-1 $223 $245 #
ellipse-curve $-1 0 -75 0 0 1 0 6 0 0 1 I I #
loop $-1 $-1 $246 $217 #
point $-1 -18 77.94870107962030659 -2.204364238465235822e-15 #
loop $-1 $247 $233 $229 #
plane-surface $-1 0 75 0 0 -1 0 -1 0 0 forward_v I I I I #
coedge $-1 $241 $241 $232 $242 reversed $231 $-1 #
edge $-1 $248 0 $248 6.283185307179586232 $241 $249 forward 7 unknown #
vertex $-1 $234 $250 #
ellipse-curve $-1 0 75 0 0 -1 0 6 0 0 1 I I #
point $-1 6 -75 0 #
coedge $-1 $246 $246 $251 $252 forward $237 $-1 #
loop $-1 $-1 $251 $229 #
vertex $-1 $242 $253 #
ellipse-curve $-1 0 -75 0 0 1 0 18 0 0 1 I I #
point $-1 6 75 0 #
coedge $-1 $251 $251 $246 $252 reversed $247 $-1 #
edge $-1 $254 0 $254 6.283185307179586232 $251 $255 forward 7 unknown #
point $-1 18 -75 0 #
vertex $-1 $252 $256 #
ellipse-curve $-1 0 75 0 0 -1 0 18 0 0 1 I I #
point $-1 18 75 0 #
End-of-ACIS-data 