600 0 1 0           
87 GICL ACIS Healer - Source: /gicl/data5/repository/new/Seeker/housing.ustation.sat - 6 0 18 ACIS 6.0.3 Solaris 24 Sat Apr 13 20:35:35 2002 
1 9.999999999999999547e-07 1.000000000000000036e-10 
body $1 $2 $-1 $3 #
rgb_color-st-attrib $-1 $-1 $-1 $0 0 1 0 #
lump $-1 $-1 $4 $0 #
transform $-1 1 0 0 0 1 0 0 0 1 0 0 0 1 rotate no_reflect no_shear #
shell $-1 $-1 $-1 $5 $-1 $2 #
face $-1 $6 $7 $4 $-1 $8 reversed single #
face $-1 $9 $10 $4 $-1 $11 reversed single #
loop $-1 $12 $13 $5 #
cone-surface $-1 20 98.5 20 0 1 0 2 0 0 1 I I 0 1 2 forward I I I I #
face $-1 $14 $15 $4 $-1 $16 reversed single #
loop $-1 $-1 $17 $6 #
plane-surface $-1 20 102 20 0 1 0 1 0 0 forward_v I I I I #
loop $-1 $-1 $18 $5 #
coedge $-1 $13 $13 $19 $20 reversed $7 $-1 #
face $-1 $21 $22 $4 $-1 $23 reversed single #
loop $-1 $24 $25 $9 #
cone-surface $-1 -20 98.5 20 0 1 0 2 0 0 1 I I 0 1 2 forward I I I I #
coedge $-1 $17 $17 $18 $26 reversed $10 $-1 #
coedge $-1 $18 $18 $17 $26 forward $12 $-1 #
coedge $-1 $19 $19 $13 $20 forward $27 $-1 #
edge $-1 $28 0 $28 6.283185307179586232 $19 $29 forward 7 unknown #
face $-1 $30 $31 $4 $-1 $32 reversed single #
loop $-1 $-1 $33 $14 #
plane-surface $-1 -20 102 20 0 1 0 1 0 0 forward_v I I I I #
loop $-1 $-1 $34 $9 #
coedge $-1 $25 $25 $35 $36 reversed $15 $-1 #
edge $-1 $37 0 $37 6.283185307179586232 $17 $38 forward 7 unknown #
loop $-1 $39 $19 $40 #
vertex $-1 $20 $41 #
ellipse-curve $-1 20 95 20 -0 1 -0 2 0 0 1 I I #
face $-1 $42 $43 $4 $-1 $44 reversed single #
loop $-1 $45 $46 $21 #
cone-surface $-1 20 98.5 -20 0 1 0 2 0 0 1 I I 0 1 2 forward I I I I #
coedge $-1 $33 $33 $34 $47 reversed $22 $-1 #
coedge $-1 $34 $34 $33 $47 forward $24 $-1 #
coedge $-1 $35 $35 $25 $36 forward $39 $-1 #
edge $-1 $48 0 $48 6.283185307179586232 $35 $49 forward 7 unknown #
vertex $-1 $26 $50 #
ellipse-curve $-1 20 102 20 0 1 0 2 0 0 1 I I #
loop $-1 $51 $35 $40 #
face $-1 $52 $27 $4 $-1 $53 forward single #
point $-1 22 95 20 #
face $-1 $54 $55 $4 $-1 $56 reversed single #
loop $-1 $-1 $57 $30 #
plane-surface $-1 20 102 -20 0 1 0 1 0 0 forward_v I I I I #
loop $-1 $-1 $58 $21 #
coedge $-1 $46 $46 $59 $60 reversed $31 $-1 #
edge $-1 $61 0 $61 6.283185307179586232 $33 $62 forward 7 unknown #
vertex $-1 $36 $63 #
ellipse-curve $-1 -20 95 20 -0 1 -0 2 0 0 1 I I #
point $-1 22 102 20 #
loop $-1 $64 $59 $40 #
face $-1 $65 $66 $4 $-1 $67 reversed single #
plane-surface $-1 0 95 0 0 -1 0 0 0 -1 forward_v I I I I #
face $-1 $68 $69 $4 $-1 $70 reversed single #
loop $-1 $71 $72 $42 #
cone-surface $-1 -20 98.5 -20 0 1 0 2 0 0 1 I I 0 1 2 forward I I I I #
coedge $-1 $57 $57 $58 $73 reversed $43 $-1 #
coedge $-1 $58 $58 $57 $73 forward $45 $-1 #
coedge $-1 $59 $59 $46 $60 forward $51 $-1 #
edge $-1 $74 0 $74 6.283185307179586232 $59 $75 forward 7 unknown #
vertex $-1 $47 $76 #
ellipse-curve $-1 -20 102 20 0 1 0 2 0 0 1 I I #
point $-1 -18 95 20 #
loop $-1 $77 $78 $40 #
face $-1 $79 $80 $4 $-1 $81 forward single #
loop $-1 $-1 $82 $52 #
cone-surface $-1 0 0 0 0 0 1 90 0 0 1 I I 0 1 90 forward I I I I #
face $-1 $83 $84 $4 $-1 $85 reversed single #
loop $-1 $-1 $86 $54 #
plane-surface $-1 -20 102 -20 0 1 0 1 0 0 forward_v I I I I #
loop $-1 $-1 $87 $42 #
coedge $-1 $72 $72 $78 $88 reversed $55 $-1 #
edge $-1 $89 0 $89 6.283185307179586232 $57 $90 forward 7 unknown #
vertex $-1 $60 $91 #
ellipse-curve $-1 20 95 -20 -0 1 -0 2 0 0 1 I I #
point $-1 -18 102 20 #
loop $-1 $-1 $92 $40 #
coedge $-1 $78 $78 $72 $88 forward $64 $-1 #
face $-1 $93 $94 $4 $-1 $67 reversed single #
loop $-1 $95 $96 $65 #
plane-surface $-1 0 0 30 0 0 1 1 0 0 forward_v I I I I #
coedge $-1 $97 $98 $99 $100 forward $66 $-1 #
face $-1 $101 $102 $4 $-1 $103 reversed single #
loop $-1 $104 $105 $68 #
cone-surface $-1 20 -98.5 20 0 -1 0 2 0 0 1 I I 0 1 2 forward I I I I #
coedge $-1 $86 $86 $87 $106 reversed $69 $-1 #
coedge $-1 $87 $87 $86 $106 forward $71 $-1 #
edge $-1 $107 0 $107 6.283185307179586232 $78 $108 forward 7 unknown #
vertex $-1 $73 $109 #
ellipse-curve $-1 20 102 -20 0 1 0 2 0 0 1 I I #
point $-1 22 95 -20 #
coedge $-1 $110 $111 $112 $113 reversed $77 $-1 #
face $-1 $114 $115 $4 $-1 $116 reversed single #
loop $-1 $-1 $117 $79 #
loop $-1 $-1 $118 $65 #
coedge $-1 $119 $120 $121 $122 forward $80 $-1 #
coedge $-1 $123 $82 $124 $125 reversed $66 $-1 #
coedge $-1 $82 $123 $126 $127 reversed $66 $-1 #
coedge $-1 $128 $129 $82 $100 reversed $130 $-1 #
edge $-1 $131 -30 $132 30 $82 $133 forward 7 unknown #
face $-1 $134 $135 $4 $-1 $136 reversed single #
loop $-1 $-1 $137 $83 #
plane-surface $-1 20 -102 20 0 -1 0 1 0 0 forward_v I I I I #
loop $-1 $-1 $138 $68 #
coedge $-1 $105 $105 $139 $140 reversed $84 $-1 #
edge $-1 $141 0 $141 6.283185307179586232 $86 $142 forward 7 unknown #
vertex $-1 $88 $143 #
ellipse-curve $-1 -20 95 -20 -0 1 -0 2 0 0 1 I I #
point $-1 22 102 -20 #
coedge $-1 $144 $92 $145 $146 reversed $77 $-1 #
coedge $-1 $92 $144 $147 $148 reversed $77 $-1 #
coedge $-1 $129 $128 $92 $113 forward $130 $-1 #
edge $-1 $149 -30 $150 30 $112 $151 forward 7 unknown #
face $-1 $152 $153 $4 $-1 $154 reversed single #
loop $-1 $155 $156 $93 #
plane-surface $-1 0 0 -30 0 0 1 1 0 0 forward_v I I I I #
coedge $-1 $157 $158 $159 $160 forward $94 $-1 #
coedge $-1 $145 $161 $162 $163 forward $95 $-1 #
coedge $-1 $164 $96 $165 $166 forward $80 $-1 #
coedge $-1 $96 $164 $167 $168 forward $80 $-1 #
coedge $-1 $169 $170 $96 $122 reversed $171 $-1 #
edge $-1 $172 -110 $173 110 $121 $174 forward 7 unknown #
coedge $-1 $98 $97 $175 $176 forward $66 $-1 #
coedge $-1 $177 $178 $97 $125 forward $115 $-1 #
edge $-1 $179 -1.289316253564051662 $132 1.289316253564051662 $124 $180 forward 7 unknown #
coedge $-1 $181 $182 $98 $127 forward $95 $-1 #
edge $-1 $131 -1.289316253564051662 $183 1.289316253564051662 $126 $184 forward 7 unknown #
coedge $-1 $112 $99 $182 $185 reversed $130 $-1 #
coedge $-1 $99 $112 $177 $186 reversed $130 $-1 #
loop $-1 $-1 $99 $187 #
vertex $-1 $127 $188 #
vertex $-1 $100 $189 #
straight-curve $-1 25 86.45808232895291212 0 -0 -0 -1 I I #
face $-1 $190 $191 $4 $-1 $192 reversed single #
loop $-1 $193 $194 $101 #
cone-surface $-1 -20 -98.5 20 0 -1 0 2 0 0 1 I I 0 1 2 forward I I I I #
coedge $-1 $137 $137 $138 $195 reversed $102 $-1 #
coedge $-1 $138 $138 $137 $195 forward $104 $-1 #
coedge $-1 $139 $139 $105 $140 forward $196 $-1 #
edge $-1 $197 0 $197 6.283185307179586232 $139 $198 forward 7 unknown #
vertex $-1 $106 $199 #
ellipse-curve $-1 -20 102 -20 0 1 0 2 0 0 1 I I #
point $-1 -18 95 -20 #
coedge $-1 $111 $110 $200 $201 forward $77 $-1 #
coedge $-1 $182 $118 $110 $146 forward $95 $-1 #
edge $-1 $202 -25 $149 25 $145 $203 forward 7 unknown #
coedge $-1 $156 $177 $111 $148 forward $115 $-1 #
edge $-1 $150 -25 $204 25 $147 $205 forward 7 unknown #
vertex $-1 $146 $206 #
vertex $-1 $148 $207 #
straight-curve $-1 25 95 0 0 0 -1 I I #
face $-1 $208 $209 $4 $-1 $210 reversed single #
loop $-1 $-1 $211 $114 #
plane-surface $-1 0 -110 0 0 1 -0 -0 0 1 forward_v I I I I #
loop $-1 $-1 $212 $93 #
coedge $-1 $213 $147 $214 $215 forward $115 $-1 #
coedge $-1 $216 $117 $161 $217 reversed $94 $-1 #
coedge $-1 $117 $216 $213 $218 reversed $94 $-1 #
coedge $-1 $214 $162 $117 $160 reversed $219 $-1 #
edge $-1 $220 -30 $221 30 $117 $222 forward 7 unknown #
coedge $-1 $118 $223 $157 $217 forward $95 $-1 #
coedge $-1 $159 $200 $118 $163 reversed $219 $-1 #
edge $-1 $221 86.45808232895291212 $202 95 $118 $224 forward 7 unknown #
coedge $-1 $120 $119 $225 $226 forward $80 $-1 #
coedge $-1 $227 $228 $119 $166 reversed $229 $-1 #
edge $-1 $173 -110 $230 110 $165 $231 forward 7 unknown #
coedge $-1 $211 $232 $120 $168 reversed $153 $-1 #
edge $-1 $233 -110 $172 110 $167 $234 forward 7 unknown #
coedge $-1 $235 $121 $232 $236 forward $171 $-1 #
coedge $-1 $121 $235 $227 $237 reversed $171 $-1 #
loop $-1 $-1 $169 $238 #
vertex $-1 $122 $239 #
vertex $-1 $122 $240 #
straight-curve $-1 110 0 30 0 1 0 I I #
coedge $-1 $241 $242 $123 $176 reversed $243 $-1 #
edge $-1 $179 -30 $183 30 $123 $244 forward 7 unknown #
coedge $-1 $147 $124 $129 $186 forward $115 $-1 #
coedge $-1 $124 $245 $241 $246 forward $115 $-1 #
vertex $-1 $125 $247 #
ellipse-curve $-1 0 0 -30 0 0 1 90 0 0 1 I I #
coedge $-1 $248 $126 $242 $249 forward $95 $-1 #
coedge $-1 $126 $145 $128 $185 forward $95 $-1 #
vertex $-1 $176 $250 #
ellipse-curve $-1 0 0 30 -0 -0 -1 90 0 0 1 I I #
edge $-1 $149 -95 $131 -86.45808232895291212 $182 $251 forward 7 unknown #
edge $-1 $132 86.45808232895291212 $150 95 $177 $252 forward 7 unknown #
face $-1 $253 $130 $4 $-1 $254 forward single #
point $-1 25 86.45808232895291212 30 #
point $-1 25 86.45808232895291212 -30 #
face $-1 $255 $256 $4 $-1 $257 reversed single #
loop $-1 $-1 $258 $134 #
plane-surface $-1 -20 -102 20 0 -1 0 1 0 0 forward_v I I I I #
loop $-1 $-1 $259 $101 #
coedge $-1 $194 $194 $260 $261 reversed $135 $-1 #
edge $-1 $262 0 $262 6.283185307179586232 $137 $263 forward 7 unknown #
loop $-1 $264 $139 $265 #
vertex $-1 $140 $266 #
ellipse-curve $-1 20 -95 20 -0 -1 0 2 0 0 1 I I #
point $-1 -18 102 -20 #
coedge $-1 $162 $214 $144 $201 reversed $219 $-1 #
edge $-1 $202 -30 $204 30 $144 $267 forward 7 unknown #
vertex $-1 $163 $268 #
straight-curve $-1 0 95 30 1 0 -0 I I #
vertex $-1 $215 $269 #
straight-curve $-1 0 95 -30 -1 0 0 I I #
point $-1 25 95 30 #
point $-1 25 95 -30 #
face $-1 $238 $229 $4 $-1 $270 reversed single #
loop $-1 $-1 $271 $152 #
plane-surface $-1 -110 0 0 1 0 0 0 0 -1 forward_v I I I I #
coedge $-1 $272 $167 $273 $274 forward $153 $-1 #
coedge $-1 $275 $276 $235 $277 forward $155 $-1 #
coedge $-1 $278 $156 $158 $218 forward $115 $-1 #
coedge $-1 $200 $159 $156 $215 reversed $219 $-1 #
edge $-1 $204 -95 $220 -86.45808232895291212 $156 $279 forward 7 unknown #
coedge $-1 $158 $157 $280 $281 forward $94 $-1 #
edge $-1 $282 1.852276400025741676 $221 4.430908907153844112 $161 $184 forward 7 unknown #
edge $-1 $220 1.852276400025741676 $283 4.430908907153844112 $213 $180 forward 7 unknown #
loop $-1 $-1 $159 $284 #
vertex $-1 $218 $285 #
vertex $-1 $160 $286 #
straight-curve $-1 -25 86.45808232895291212 0 -0 0 1 I I #
coedge $-1 $161 $248 $287 $288 forward $95 $-1 #
straight-curve $-1 -25 0 30 0 1 0 I I #
coedge $-1 $271 $273 $164 $226 reversed $209 $-1 #
edge $-1 $230 -110 $233 110 $225 $289 forward 7 unknown #
coedge $-1 $290 $165 $170 $237 forward $229 $-1 #
coedge $-1 $165 $290 $271 $291 reversed $229 $-1 #
loop $-1 $-1 $227 $208 #
vertex $-1 $166 $292 #
straight-curve $-1 0 110 30 -1 0 0 I I #
coedge $-1 $167 $272 $169 $236 reversed $153 $-1 #
vertex $-1 $226 $293 #
straight-curve $-1 0 -110 30 1 0 0 I I #
coedge $-1 $170 $169 $212 $277 reversed $171 $-1 #
edge $-1 $172 -30 $294 30 $169 $295 forward 7 unknown #
edge $-1 $173 -30 $296 30 $170 $297 forward 7 unknown #
face $-1 $-1 $171 $4 $-1 $298 reversed single #
point $-1 110 -110 30 #
point $-1 110 110 30 #
coedge $-1 $299 $175 $178 $246 reversed $243 $-1 #
coedge $-1 $175 $299 $181 $249 reversed $243 $-1 #
loop $-1 $-1 $175 $300 #
straight-curve $-1 25 -86.45808232895291212 0 0 -0 1 I I #
coedge $-1 $178 $278 $301 $302 forward $115 $-1 #
edge $-1 $303 -95 $179 -86.45808232895291212 $178 $252 forward 7 unknown #
point $-1 25 -86.45808232895291212 -30 #
coedge $-1 $223 $181 $304 $305 forward $95 $-1 #
edge $-1 $183 86.45808232895291212 $306 95 $181 $251 forward 7 unknown #
point $-1 25 -86.45808232895291212 30 #
straight-curve $-1 25 0 30 0 -1 0 I I #
straight-curve $-1 25 0 -30 0 1 -0 I I #
face $-1 $265 $307 $4 $-1 $308 forward single #
plane-surface $-1 25 0 0 -1 0 0 0 -0 1 forward_v I I I I #
face $-1 $309 $310 $4 $-1 $311 reversed single #
loop $-1 $312 $313 $190 #
cone-surface $-1 20 -98.5 -20 0 -1 0 2 0 0 1 I I 0 1 2 forward I I I I #
coedge $-1 $258 $258 $259 $314 reversed $191 $-1 #
coedge $-1 $259 $259 $258 $314 forward $193 $-1 #
coedge $-1 $260 $260 $194 $261 forward $264 $-1 #
edge $-1 $315 0 $315 6.283185307179586232 $260 $316 forward 7 unknown #
vertex $-1 $195 $317 #
ellipse-curve $-1 20 -102 20 0 -1 0 2 0 0 1 I I #
loop $-1 $318 $260 $265 #
face $-1 $284 $196 $4 $-1 $319 forward single #
point $-1 22 -95 20 #
straight-curve $-1 -25 95 0 0 0 -1 I I #
point $-1 -25 95 30 #
point $-1 -25 95 -30 #
plane-surface $-1 0 110 0 0 -1 0 0 0 -1 forward_v I I I I #
coedge $-1 $320 $225 $228 $291 forward $209 $-1 #
coedge $-1 $232 $211 $275 $321 reversed $153 $-1 #
coedge $-1 $225 $320 $211 $274 reversed $209 $-1 #
edge $-1 $233 -30 $322 30 $273 $323 forward 7 unknown #
coedge $-1 $324 $212 $272 $321 forward $155 $-1 #
coedge $-1 $212 $324 $290 $325 forward $155 $-1 #
edge $-1 $296 -110 $294 110 $235 $326 forward 7 unknown #
coedge $-1 $245 $213 $327 $328 forward $115 $-1 #
straight-curve $-1 -25 0 -30 0 -1 0 I I #
coedge $-1 $287 $327 $216 $281 reversed $307 $-1 #
edge $-1 $282 -30 $283 30 $216 $329 forward 7 unknown #
vertex $-1 $217 $330 #
vertex $-1 $328 $331 #
face $-1 $40 $219 $4 $-1 $308 forward single #
point $-1 -25 86.45808232895291212 -30 #
point $-1 -25 86.45808232895291212 30 #
coedge $-1 $332 $280 $223 $288 reversed $307 $-1 #
edge $-1 $333 -95 $282 -86.45808232895291212 $223 $224 forward 7 unknown #
straight-curve $-1 -110 0 30 0 -1 0 I I #
coedge $-1 $228 $227 $276 $325 reversed $229 $-1 #
edge $-1 $230 -30 $334 30 $228 $335 forward 7 unknown #
point $-1 -110 110 30 #
point $-1 -110 -110 30 #
vertex $-1 $236 $336 #
straight-curve $-1 110 -110 0 0 0 -1 I I #
vertex $-1 $277 $337 #
straight-curve $-1 110 110 0 0 0 -1 I I #
plane-surface $-1 110 0 0 -1 0 0 0 -0 1 forward_v I I I I #
coedge $-1 $242 $241 $338 $339 reversed $243 $-1 #
face $-1 $187 $243 $4 $-1 $254 forward single #
coedge $-1 $340 $338 $245 $302 reversed $341 $-1 #
edge $-1 $342 -25 $303 25 $245 $343 forward 7 unknown #
vertex $-1 $302 $344 #
coedge $-1 $338 $340 $248 $305 reversed $341 $-1 #
edge $-1 $306 -25 $333 25 $248 $345 forward 7 unknown #
vertex $-1 $305 $346 #
loop $-1 $-1 $280 $253 #
plane-surface $-1 -25 0 0 1 0 0 0 0 -1 forward_v I I I I #
face $-1 $347 $348 $4 $-1 $349 reversed single #
loop $-1 $-1 $350 $255 #
plane-surface $-1 20 -102 -20 0 -1 0 1 0 0 forward_v I I I I #
loop $-1 $-1 $351 $190 #
coedge $-1 $313 $313 $352 $353 reversed $256 $-1 #
edge $-1 $354 0 $354 6.283185307179586232 $258 $355 forward 7 unknown #
vertex $-1 $261 $356 #
ellipse-curve $-1 -20 -95 20 -0 -1 0 2 0 0 1 I I #
point $-1 22 -102 20 #
loop $-1 $357 $352 $265 #
plane-surface $-1 0 -95 0 0 1 -0 -0 0 1 forward_v I I I I #
coedge $-1 $273 $271 $324 $358 reversed $209 $-1 #
edge $-1 $294 -110 $322 110 $272 $359 forward 7 unknown #
vertex $-1 $358 $360 #
straight-curve $-1 -110 -110 0 0 0 -1 I I #
coedge $-1 $276 $275 $320 $358 forward $155 $-1 #
edge $-1 $334 -110 $296 110 $290 $361 forward 7 unknown #
straight-curve $-1 110 0 -30 0 -1 0 I I #
coedge $-1 $280 $332 $278 $328 reversed $307 $-1 #
edge $-1 $283 86.45808232895291212 $342 95 $278 $279 forward 7 unknown #
straight-curve $-1 -25 -86.45808232895291212 0 0 0 -1 I I #
point $-1 -25 -86.45808232895291212 30 #
point $-1 -25 -86.45808232895291212 -30 #
coedge $-1 $327 $287 $340 $362 forward $307 $-1 #
vertex $-1 $305 $363 #
vertex $-1 $325 $364 #
straight-curve $-1 -110 110 0 0 0 -1 I I #
point $-1 110 -110 -30 #
point $-1 110 110 -30 #
coedge $-1 $301 $304 $299 $339 forward $341 $-1 #
edge $-1 $306 -30 $303 30 $299 $365 forward 7 unknown #
coedge $-1 $304 $301 $332 $362 reversed $341 $-1 #
loop $-1 $-1 $340 $265 #
vertex $-1 $302 $366 #
straight-curve $-1 0 -95 -30 1 -0 0 I I #
point $-1 25 -95 -30 #
straight-curve $-1 0 -95 30 -1 0 0 I I #
point $-1 25 -95 30 #
face $-1 $300 $367 $4 $-1 $368 reversed single #
loop $-1 $369 $370 $309 #
cone-surface $-1 -20 -98.5 -20 0 -1 0 2 0 0 1 I I 0 1 2 forward I I I I #
coedge $-1 $350 $350 $351 $371 reversed $310 $-1 #
coedge $-1 $351 $351 $350 $371 forward $312 $-1 #
coedge $-1 $352 $352 $313 $353 forward $318 $-1 #
edge $-1 $372 0 $372 6.283185307179586232 $352 $373 forward 7 unknown #
vertex $-1 $314 $374 #
ellipse-curve $-1 -20 -102 20 0 -1 0 2 0 0 1 I I #
point $-1 -18 -95 20 #
loop $-1 $341 $375 $265 #
edge $-1 $322 -110 $334 110 $320 $376 forward 7 unknown #
straight-curve $-1 0 -110 -30 -1 0 0 I I #
point $-1 -110 -110 -30 #
straight-curve $-1 0 110 -30 1 0 0 I I #
edge $-1 $333 -30 $342 30 $332 $377 forward 7 unknown #
point $-1 -25 -95 30 #
point $-1 -110 110 -30 #
straight-curve $-1 25 -95 0 0 0 -1 I I #
point $-1 -25 -95 -30 #
loop $-1 $-1 $378 $347 #
plane-surface $-1 -20 -102 -20 0 -1 0 1 0 0 forward_v I I I I #
loop $-1 $-1 $379 $309 #
coedge $-1 $370 $370 $375 $380 reversed $348 $-1 #
edge $-1 $381 0 $381 6.283185307179586232 $350 $382 forward 7 unknown #
vertex $-1 $353 $383 #
ellipse-curve $-1 20 -95 -20 -0 -1 0 2 0 0 1 I I #
point $-1 -18 -102 20 #
coedge $-1 $375 $375 $370 $380 forward $357 $-1 #
straight-curve $-1 -110 0 -30 0 1 0 I I #
straight-curve $-1 -25 -95 0 0 0 -1 I I #
coedge $-1 $378 $378 $379 $384 reversed $367 $-1 #
coedge $-1 $379 $379 $378 $384 forward $369 $-1 #
edge $-1 $385 0 $385 6.283185307179586232 $375 $386 forward 7 unknown #
vertex $-1 $371 $387 #
ellipse-curve $-1 20 -102 -20 0 -1 0 2 0 0 1 I I #
point $-1 22 -95 -20 #
edge $-1 $388 0 $388 6.283185307179586232 $378 $389 forward 7 unknown #
vertex $-1 $380 $390 #
ellipse-curve $-1 -20 -95 -20 -0 -1 0 2 0 0 1 I I #
point $-1 22 -102 -20 #
vertex $-1 $384 $391 #
ellipse-curve $-1 -20 -102 -20 0 -1 0 2 0 0 1 I I #
point $-1 -18 -95 -20 #
point $-1 -18 -102 -20 #
End-of-ACIS-data 