600 0 2 0           
24 FBMach with ACIS - 6.0.3 13 ACIS 6.0.3 NT 24 Wed May 23 12:27:43 2001 
1 9.9999999999999995e-007 1e-010 
body $2 $3 $-1 $4 #
bdycol-kcp $-1 1 2 $5 $6 #
model_id-kcp-attrib $-1 $7 $-1 $0 1 990635262 70 -1035599871 1 #
lump $-1 $-1 $8 $0 #
transform $-1 1 0 0 0 1 0 0 0 1 0 0 0 1 no_rotate no_reflect no_shear #
body $9 $10 $-1 $11 #
body $12 $13 $-1 $14 #
rgb_color-st-attrib $-1 $-1 $2 $0 0 1 0 #
shell $-1 $-1 $-1 $15 $-1 $3 #
model_id-kcp-attrib $-1 $-1 $-1 $5 1 990635262 80 -1034944510 1 #
lump $-1 $-1 $16 $5 #
transform $-1 1 0 0 0 1 0 0 0 1 0 0 0 1 no_rotate no_reflect no_shear #
rgb_color-st-attrib $-1 $17 $-1 $6 0.5 1 1 #
lump $-1 $-1 $18 $6 #
transform $-1 1 0 0 0 1 0 0 0 1 0 0 0 1 no_rotate no_reflect no_shear #
face $19 $20 $21 $8 $-1 $22 reversed single #
shell $-1 $-1 $-1 $23 $-1 $10 #
model_id-kcp-attrib $-1 $-1 $12 $6 1 990635262 390 -1031405565 1 #
shell $-1 $-1 $-1 $24 $-1 $13 #
model_id-kcp-attrib $-1 $-1 $-1 $15 1 990635262 70 -1035599871 2 #
face $25 $26 $27 $8 $-1 $28 reversed single #
loop $-1 $29 $30 $15 #
cone-surface $-1 20 98.5 20 0 1 0 2 0 0 1 I I 0 1 2 forward I I I I #
face $31 $32 $33 $16 $-1 $34 forward single #
face $-1 $35 $36 $18 $-1 $37 forward single #
model_id-kcp-attrib $-1 $-1 $-1 $20 1 990635262 70 -1035599871 3 #
face $38 $39 $40 $8 $-1 $41 reversed single #
loop $-1 $-1 $42 $20 #
plane-surface $-1 20 102 20 0 1 0 1 0 0 forward_v I I I I #
loop $-1 $-1 $43 $15 #
coedge $-1 $30 $30 $44 $45 reversed $21 $-1 #
model_id-kcp-attrib $-1 $-1 $-1 $23 1 990635262 80 -1034944510 2 #
face $46 $47 $48 $16 $-1 $49 reversed single #
loop $-1 $-1 $50 $23 #
plane-surface $-1 0 0 30 0 0 1 1 0 0 forward_v I I I I #
face $-1 $51 $52 $18 $-1 $53 forward single #
loop $-1 $-1 $54 $24 #
cone-surface $-1 0 0 30 0 0 -1 90 0 0 1 I I 0 1 90 forward I I I I #
model_id-kcp-attrib $-1 $-1 $-1 $26 1 990635262 70 -1035599871 4 #
face $55 $56 $57 $8 $-1 $58 reversed single #
loop $-1 $59 $60 $26 #
cone-surface $-1 -20 98.5 20 0 1 0 2 0 0 1 I I 0 1 2 forward I I I I #
coedge $-1 $42 $42 $43 $61 reversed $27 $-1 #
coedge $-1 $43 $43 $42 $61 forward $29 $-1 #
coedge $-1 $44 $44 $30 $45 forward $62 $-1 #
edge $-1 $63 0 $63 6.2831853071795862 $44 $64 forward 7 unknown #
model_id-kcp-attrib $-1 $-1 $-1 $32 1 990635262 80 -1034944510 3 #
face $65 $66 $67 $16 $-1 $68 reversed single #
loop $-1 $-1 $69 $32 #
plane-surface $-1 0 0 -30 0 0 1 1 0 0 forward_v I I I I #
coedge $-1 $70 $71 $72 $73 forward $33 $-1 #
face $-1 $74 $75 $18 $-1 $76 forward single #
loop $-1 $-1 $77 $35 #
plane-surface $-1 -25 -86.458082328952912 30 -1 0 0 0 0 1 forward_v I I I I #
coedge $-1 $78 $79 $80 $81 forward $36 $-1 #
model_id-kcp-attrib $-1 $-1 $-1 $39 1 990635262 70 -1035599871 5 #
face $82 $83 $84 $8 $-1 $85 reversed single #
loop $-1 $-1 $86 $39 #
plane-surface $-1 -20 102 20 0 1 0 1 0 0 forward_v I I I I #
loop $-1 $-1 $87 $26 #
coedge $-1 $60 $60 $88 $89 reversed $40 $-1 #
edge $-1 $90 0 $90 6.2831853071795862 $42 $91 forward 7 unknown #
loop $-1 $92 $44 $93 #
vertex $-1 $45 $94 #
ellipse-curve $-1 20 95 20 0 1 0 2 0 0 1 I I #
model_id-kcp-attrib $-1 $-1 $-1 $47 1 990635262 80 -1034944510 4 #
face $95 $96 $97 $16 $-1 $98 reversed single #
loop $-1 $-1 $99 $47 #
plane-surface $-1 0 -110 0 0 1 0 0 0 1 forward_v I I I I #
coedge $-1 $100 $101 $102 $103 forward $48 $-1 #
coedge $-1 $104 $50 $105 $106 forward $33 $-1 #
coedge $-1 $50 $104 $107 $108 forward $33 $-1 #
coedge $-1 $109 $110 $50 $73 reversed $111 $-1 #
edge $-1 $112 -110 $113 110 $72 $114 forward 7 unknown #
face $-1 $115 $116 $18 $-1 $117 forward single #
loop $-1 $-1 $118 $51 #
plane-surface $-1 -25 -95 30 0 -1 0 0 0 -1 forward_v I I I I #
coedge $-1 $119 $120 $121 $122 forward $52 $-1 #
coedge $-1 $123 $54 $120 $124 reversed $36 $-1 #
coedge $-1 $54 $123 $125 $126 forward $36 $-1 #
coedge $-1 $127 $121 $54 $81 reversed $128 $-1 #
edge $-1 $129 1.8522764000257417 $130 4.4309089071538441 $54 $131 forward 7 unknown #
model_id-kcp-attrib $-1 $-1 $-1 $56 1 990635262 70 -1035599871 6 #
face $132 $133 $134 $8 $-1 $135 reversed single #
loop $-1 $136 $137 $56 #
cone-surface $-1 20 98.5 -20 0 1 0 2 0 0 1 I I 0 1 2 forward I I I I #
coedge $-1 $86 $86 $87 $138 reversed $57 $-1 #
coedge $-1 $87 $87 $86 $138 forward $59 $-1 #
coedge $-1 $88 $88 $60 $89 forward $92 $-1 #
edge $-1 $139 0 $139 6.2831853071795862 $88 $140 forward 7 unknown #
vertex $-1 $61 $141 #
ellipse-curve $-1 20 102 20 0 1 0 2 0 0 1 I I #
loop $-1 $142 $88 $93 #
face $143 $144 $62 $8 $-1 $145 forward single #
point $-1 22 95 20 #
model_id-kcp-attrib $-1 $-1 $-1 $66 1 990635262 80 -1034944510 5 #
face $146 $147 $148 $16 $-1 $149 reversed single #
loop $-1 $-1 $150 $66 #
plane-surface $-1 -110 0 0 1 0 0 0 0 -1 forward_v I I I I #
coedge $-1 $151 $107 $152 $153 forward $67 $-1 #
coedge $-1 $154 $69 $151 $155 forward $48 $-1 #
coedge $-1 $69 $154 $156 $157 forward $48 $-1 #
coedge $-1 $110 $109 $69 $103 reversed $111 $-1 #
edge $-1 $158 -110 $159 110 $102 $160 forward 7 unknown #
coedge $-1 $71 $70 $161 $162 forward $33 $-1 #
coedge $-1 $163 $164 $70 $106 reversed $148 $-1 #
edge $-1 $113 -110 $165 110 $105 $166 forward 7 unknown #
coedge $-1 $99 $167 $71 $108 reversed $67 $-1 #
edge $-1 $168 -110 $112 110 $107 $169 forward 7 unknown #
coedge $-1 $102 $72 $167 $170 forward $111 $-1 #
coedge $-1 $72 $102 $163 $171 reversed $111 $-1 #
loop $-1 $-1 $109 $147 #
vertex $-1 $73 $172 #
vertex $-1 $73 $173 #
straight-curve $-1 110 0 30 0 1 0 I I #
face $-1 $174 $175 $18 $-1 $176 forward single #
loop $-1 $-1 $177 $74 #
plane-surface $-1 25 -95 30 1 0 0 0 0 -1 forward_v I I I I #
coedge $-1 $178 $179 $180 $181 forward $75 $-1 #
coedge $-1 $182 $77 $179 $183 reversed $52 $-1 #
coedge $-1 $77 $182 $78 $124 forward $52 $-1 #
coedge $-1 $80 $180 $77 $122 reversed $128 $-1 #
edge $-1 $130 86.458082328952912 $184 95 $77 $185 forward 7 unknown #
coedge $-1 $79 $78 $186 $187 forward $36 $-1 #
edge $-1 $188 0 $130 60 $120 $189 forward 7 unknown #
coedge $-1 $190 $191 $79 $126 reversed $192 $-1 #
edge $-1 $193 0 $129 60 $79 $194 forward 7 unknown #
coedge $-1 $195 $80 $191 $196 reversed $128 $-1 #
loop $-1 $-1 $80 $197 #
vertex $-1 $126 $198 #
vertex $-1 $124 $199 #
ellipse-curve $-1 0 0 -30 0 0 1 90 0 0 1 I I #
model_id-kcp-attrib $-1 $-1 $-1 $83 1 990635262 70 -1035599871 7 #
face $200 $201 $202 $8 $-1 $203 reversed single #
loop $-1 $-1 $204 $83 #
plane-surface $-1 20 102 -20 0 1 0 1 0 0 forward_v I I I I #
loop $-1 $-1 $205 $56 #
coedge $-1 $137 $137 $206 $207 reversed $84 $-1 #
edge $-1 $208 0 $208 6.2831853071795862 $86 $209 forward 7 unknown #
vertex $-1 $89 $210 #
ellipse-curve $-1 -20 95 20 0 1 0 2 0 0 1 I I #
point $-1 22 102 20 #
loop $-1 $211 $206 $93 #
model_id-kcp-attrib $-1 $-1 $-1 $93 1 990635262 70 -1035599871 23 #
face $212 $213 $214 $8 $-1 $215 reversed single #
plane-surface $-1 0 95 0 0 -1 0 0 0 -1 forward_v I I I I #
model_id-kcp-attrib $-1 $-1 $-1 $96 1 990635262 80 -1034944510 6 #
face $216 $-1 $111 $16 $-1 $217 reversed single #
loop $-1 $-1 $163 $96 #
plane-surface $-1 0 110 0 0 -1 0 0 0 -1 forward_v I I I I #
coedge $-1 $218 $161 $164 $219 forward $97 $-1 #
coedge $-1 $167 $99 $100 $155 reversed $67 $-1 #
coedge $-1 $161 $218 $99 $153 reversed $97 $-1 #
edge $-1 $168 -30 $220 30 $152 $221 forward 7 unknown #
coedge $-1 $101 $100 $218 $222 forward $48 $-1 #
edge $-1 $159 -110 $220 110 $151 $223 forward 7 unknown #
coedge $-1 $164 $163 $101 $157 reversed $148 $-1 #
edge $-1 $224 -110 $158 110 $156 $225 forward 7 unknown #
vertex $-1 $103 $226 #
vertex $-1 $170 $227 #
straight-curve $-1 110 0 -30 0 -1 0 I I #
coedge $-1 $150 $152 $104 $162 reversed $97 $-1 #
edge $-1 $165 -110 $168 110 $161 $228 forward 7 unknown #
coedge $-1 $156 $105 $110 $171 forward $148 $-1 #
coedge $-1 $105 $156 $150 $219 reversed $148 $-1 #
vertex $-1 $106 $229 #
straight-curve $-1 0 110 30 -1 0 0 I I #
coedge $-1 $107 $151 $109 $170 reversed $67 $-1 #
vertex $-1 $162 $230 #
straight-curve $-1 0 -110 30 1 0 0 I I #
edge $-1 $112 -30 $159 30 $109 $231 forward 7 unknown #
edge $-1 $113 -30 $158 30 $110 $232 forward 7 unknown #
point $-1 110 -110 30 #
point $-1 110 110 30 #
face $-1 $233 $234 $18 $-1 $235 forward single #
loop $-1 $-1 $236 $115 #
cone-surface $-1 0 0 30 0 0 -1 90 0 0 1 I I 0 1 90 forward I I I I #
coedge $-1 $237 $238 $239 $240 forward $116 $-1 #
coedge $-1 $241 $118 $238 $242 reversed $75 $-1 #
coedge $-1 $118 $241 $119 $183 forward $75 $-1 #
coedge $-1 $121 $239 $118 $181 reversed $128 $-1 #
edge $-1 $184 -25 $243 25 $118 $244 forward 7 unknown #
coedge $-1 $120 $119 $245 $246 forward $52 $-1 #
edge $-1 $247 0 $184 60 $179 $248 forward 7 unknown #
vertex $-1 $183 $249 #
straight-curve $-1 -25 0 -30 0 -1 0 I I #
coedge $-1 $245 $250 $123 $187 reversed $251 $-1 #
edge $-1 $188 1.8522764000257417 $193 4.4309089071538441 $123 $252 forward 7 unknown #
vertex $-1 $246 $253 #
straight-curve $-1 -25 -86.458082328952912 30 0 0 -1 I I #
coedge $-1 $254 $125 $250 $255 forward $192 $-1 #
coedge $-1 $125 $254 $127 $196 forward $192 $-1 #
loop $-1 $-1 $191 $256 #
vertex $-1 $255 $257 #
straight-curve $-1 -25 86.458082328952912 30 0 0 -1 I I #
coedge $-1 $258 $127 $259 $260 reversed $128 $-1 #
edge $-1 $261 -95 $129 -86.458082328952912 $191 $262 forward 7 unknown #
face $-1 $263 $128 $18 $-1 $264 reversed single #
point $-1 -25 86.458082328952912 -30 #
point $-1 -25 -86.458082328952912 -30 #
model_id-kcp-attrib $-1 $-1 $-1 $133 1 990635262 70 -1035599871 8 #
face $265 $266 $267 $8 $-1 $268 reversed single #
loop $-1 $269 $270 $133 #
cone-surface $-1 -20 98.5 -20 0 1 0 2 0 0 1 I I 0 1 2 forward I I I I #
coedge $-1 $204 $204 $205 $271 reversed $134 $-1 #
coedge $-1 $205 $205 $204 $271 forward $136 $-1 #
coedge $-1 $206 $206 $137 $207 forward $142 $-1 #
edge $-1 $272 0 $272 6.2831853071795862 $206 $273 forward 7 unknown #
vertex $-1 $138 $274 #
ellipse-curve $-1 -20 102 20 0 1 0 2 0 0 1 I I #
point $-1 -18 95 20 #
loop $-1 $275 $276 $93 #
model_id-kcp-attrib $-1 $-1 $-1 $144 1 990635262 70 -1035599871 24 #
face $277 $278 $279 $8 $-1 $280 forward single #
loop $-1 $-1 $281 $144 #
cone-surface $-1 0 0 0 0 0 1 90 0 0 1 I I 0 1 90 forward I I I I #
model_id-kcp-attrib $-1 $-1 $-1 $147 1 990635262 80 -1034944510 7 #
plane-surface $-1 110 0 0 -1 0 0 0 0 1 forward_v I I I I #
coedge $-1 $152 $150 $154 $222 reversed $97 $-1 #
edge $-1 $165 -30 $224 30 $164 $282 forward 7 unknown #
vertex $-1 $222 $283 #
straight-curve $-1 -110 -110 0 0 0 -1 I I #
edge $-1 $220 -110 $224 110 $218 $284 forward 7 unknown #
straight-curve $-1 0 -110 -30 -1 0 0 I I #
vertex $-1 $157 $285 #
straight-curve $-1 0 110 -30 1 0 0 I I #
point $-1 110 110 -30 #
point $-1 110 -110 -30 #
straight-curve $-1 -110 0 30 0 -1 0 I I #
point $-1 -110 110 30 #
point $-1 -110 -110 30 #
straight-curve $-1 110 -110 0 0 0 -1 I I #
straight-curve $-1 110 110 0 0 0 -1 I I #
face $-1 $256 $286 $18 $-1 $287 forward single #
loop $-1 $-1 $288 $174 #
plane-surface $-1 25 86.458082328952912 30 1 0 0 0 0 -1 forward_v I I I I #
coedge $-1 $289 $290 $291 $292 forward $175 $-1 #
coedge $-1 $293 $177 $290 $294 reversed $116 $-1 #
coedge $-1 $177 $293 $178 $242 forward $116 $-1 #
coedge $-1 $180 $291 $177 $240 reversed $128 $-1 #
edge $-1 $243 -95 $295 -86.458082328952912 $177 $296 forward 7 unknown #
coedge $-1 $179 $178 $297 $298 forward $75 $-1 #
edge $-1 $299 0 $243 60 $238 $300 forward 7 unknown #
vertex $-1 $242 $301 #
straight-curve $-1 0 -95 -30 1 0 0 I I #
coedge $-1 $297 $186 $182 $246 reversed $251 $-1 #
edge $-1 $247 -95 $188 -86.458082328952912 $182 $302 forward 7 unknown #
vertex $-1 $298 $303 #
straight-curve $-1 -25 -95 30 0 0 -1 I I #
point $-1 -25 -95 -30 #
coedge $-1 $186 $304 $190 $255 reversed $251 $-1 #
loop $-1 $-1 $250 $263 #
ellipse-curve $-1 0 0 30 0 0 -1 90 0 0 1 I I #
point $-1 -25 -86.458082328952912 30 #
coedge $-1 $191 $190 $305 $306 forward $192 $-1 #
edge $-1 $193 86.458082328952912 $307 95 $190 $308 forward 7 unknown #
face $-1 $197 $192 $18 $-1 $309 forward single #
point $-1 -25 86.458082328952912 30 #
coedge $-1 $291 $195 $288 $310 reversed $128 $-1 #
coedge $-1 $305 $311 $195 $260 forward $286 $-1 #
edge $-1 $312 -25 $261 25 $259 $313 forward 7 unknown #
vertex $-1 $306 $314 #
straight-curve $-1 -25 0 -30 0 -1 0 I I #
face $-1 $-1 $251 $18 $-1 $315 forward single #
plane-surface $-1 -3.5527136788005009e-015 -8.0176082942497657e-015 -30 0 0 1 1 0 0 forward_v I I I I #
model_id-kcp-attrib $-1 $-1 $-1 $201 1 990635262 70 -1035599871 9 #
face $316 $317 $318 $8 $-1 $319 reversed single #
loop $-1 $-1 $320 $201 #
plane-surface $-1 -20 102 -20 0 1 0 1 0 0 forward_v I I I I #
loop $-1 $-1 $321 $133 #
coedge $-1 $270 $270 $276 $322 reversed $202 $-1 #
edge $-1 $323 0 $323 6.2831853071795862 $204 $324 forward 7 unknown #
vertex $-1 $207 $325 #
ellipse-curve $-1 20 95 -20 0 1 0 2 0 0 1 I I #
point $-1 -18 102 20 #
loop $-1 $-1 $326 $93 #
coedge $-1 $276 $276 $270 $322 forward $211 $-1 #
model_id-kcp-attrib $-1 $-1 $-1 $213 1 990635262 70 -1035599871 25 #
face $327 $328 $329 $8 $-1 $215 reversed single #
loop $-1 $330 $331 $213 #
plane-surface $-1 0 0 30 0 0 1 1 0 0 forward_v I I I I #
coedge $-1 $332 $333 $334 $335 forward $214 $-1 #
straight-curve $-1 -110 110 0 0 0 -1 I I #
point $-1 -110 -110 -30 #
straight-curve $-1 -110 0 -30 0 1 0 I I #
point $-1 -110 110 -30 #
loop $-1 $-1 $259 $233 #
plane-surface $-1 25 95 30 0 1 0 0 0 1 forward_v I I I I #
coedge $-1 $336 $337 $258 $310 forward $234 $-1 #
coedge $-1 $338 $236 $337 $339 reversed $175 $-1 #
coedge $-1 $236 $338 $237 $294 forward $175 $-1 #
coedge $-1 $239 $258 $236 $292 reversed $128 $-1 #
edge $-1 $295 -1.2893162535640517 $340 1.2893162535640517 $236 $341 forward 7 unknown #
coedge $-1 $238 $237 $342 $343 forward $116 $-1 #
edge $-1 $344 0 $295 60 $290 $345 forward 7 unknown #
vertex $-1 $294 $346 #
straight-curve $-1 25 0 -30 0 1 0 I I #
coedge $-1 $342 $245 $241 $298 reversed $251 $-1 #
edge $-1 $299 -25 $247 25 $241 $347 forward 7 unknown #
vertex $-1 $343 $348 #
straight-curve $-1 25 -95 30 0 0 -1 I I #
point $-1 25 -95 -30 #
straight-curve $-1 -25 0 30 0 1 0 I I #
point $-1 -25 -95 30 #
coedge $-1 $250 $349 $350 $351 reversed $251 $-1 #
coedge $-1 $350 $259 $254 $306 reversed $286 $-1 #
edge $-1 $307 0 $261 60 $254 $352 forward 7 unknown #
vertex $-1 $255 $353 #
straight-curve $-1 -25 0 30 0 1 0 I I #
plane-surface $-1 -25 95 30 -1 0 0 0 0 1 forward_v I I I I #
edge $-1 $340 86.458082328952912 $312 95 $288 $354 forward 7 unknown #
coedge $-1 $259 $350 $336 $355 forward $286 $-1 #
vertex $-1 $355 $356 #
straight-curve $-1 0 95 -30 -1 0 0 I I #
point $-1 -25 95 -30 #
plane-surface $-1 -3.5527136788005009e-015 -8.0176082942497657e-015 30 0 0 1 1 0 0 forward_v I I I I #
model_id-kcp-attrib $-1 $-1 $-1 $266 1 990635262 70 -1035599871 10 #
face $357 $358 $359 $8 $-1 $360 reversed single #
loop $-1 $361 $362 $266 #
cone-surface $-1 20 -98.5 20 0 -1 0 2 0 0 1 I I 0 1 2 forward I I I I #
coedge $-1 $320 $320 $321 $363 reversed $267 $-1 #
coedge $-1 $321 $321 $320 $363 forward $269 $-1 #
edge $-1 $364 0 $364 6.2831853071795862 $276 $365 forward 7 unknown #
vertex $-1 $271 $366 #
ellipse-curve $-1 20 102 -20 0 1 0 2 0 0 1 I I #
point $-1 22 95 -20 #
coedge $-1 $367 $368 $369 $370 reversed $275 $-1 #
model_id-kcp-attrib $-1 $-1 $-1 $278 1 990635262 70 -1035599871 26 #
face $371 $372 $373 $8 $-1 $374 reversed single #
loop $-1 $-1 $375 $278 #
loop $-1 $-1 $376 $213 #
coedge $-1 $377 $378 $379 $380 forward $279 $-1 #
coedge $-1 $381 $281 $382 $383 reversed $214 $-1 #
coedge $-1 $281 $381 $384 $385 reversed $214 $-1 #
coedge $-1 $386 $387 $281 $335 reversed $388 $-1 #
edge $-1 $389 -30 $390 30 $281 $391 forward 7 unknown #
coedge $-1 $392 $288 $311 $355 reversed $234 $-1 #
coedge $-1 $288 $392 $289 $339 forward $234 $-1 #
coedge $-1 $290 $289 $393 $394 forward $175 $-1 #
edge $-1 $395 0 $340 60 $337 $396 forward 7 unknown #
vertex $-1 $339 $397 #
ellipse-curve $-1 0 0 -30 0 0 1 90 0 0 1 I I #
coedge $-1 $393 $297 $293 $343 reversed $251 $-1 #
edge $-1 $344 86.458082328952912 $299 95 $293 $398 forward 7 unknown #
vertex $-1 $394 $399 #
straight-curve $-1 25 -86.458082328952912 30 0 0 -1 I I #
point $-1 25 -86.458082328952912 -30 #
straight-curve $-1 0 -95 30 -1 0 0 I I #
point $-1 25 -95 30 #
coedge $-1 $304 $393 $392 $400 reversed $251 $-1 #
coedge $-1 $311 $305 $304 $351 forward $286 $-1 #
edge $-1 $307 -25 $401 25 $350 $402 forward 7 unknown #
straight-curve $-1 -25 95 30 0 0 -1 I I #
point $-1 -25 95 30 #
straight-curve $-1 25 0 -30 0 1 0 I I #
edge $-1 $401 0 $312 60 $311 $403 forward 7 unknown #
point $-1 25 95 -30 #
model_id-kcp-attrib $-1 $-1 $-1 $317 1 990635262 70 -1035599871 11 #
face $404 $405 $406 $8 $-1 $407 reversed single #
loop $-1 $-1 $408 $317 #
plane-surface $-1 20 -102 20 0 -1 0 1 0 0 forward_v I I I I #
loop $-1 $-1 $409 $266 #
coedge $-1 $362 $362 $410 $411 reversed $318 $-1 #
edge $-1 $412 0 $412 6.2831853071795862 $320 $413 forward 7 unknown #
vertex $-1 $322 $414 #
ellipse-curve $-1 -20 95 -20 0 1 0 2 0 0 1 I I #
point $-1 22 102 -20 #
coedge $-1 $415 $326 $416 $417 reversed $275 $-1 #
coedge $-1 $326 $415 $418 $419 reversed $275 $-1 #
coedge $-1 $387 $386 $326 $370 forward $388 $-1 #
edge $-1 $420 -30 $421 30 $369 $422 forward 7 unknown #
model_id-kcp-attrib $-1 $-1 $-1 $328 1 990635262 70 -1035599871 27 #
face $423 $424 $425 $8 $-1 $426 reversed single #
loop $-1 $427 $428 $328 #
plane-surface $-1 0 0 -30 0 0 1 1 0 0 forward_v I I I I #
coedge $-1 $429 $430 $431 $432 forward $329 $-1 #
coedge $-1 $416 $433 $434 $435 forward $330 $-1 #
coedge $-1 $436 $331 $437 $438 forward $279 $-1 #
coedge $-1 $331 $436 $439 $440 forward $279 $-1 #
coedge $-1 $441 $442 $331 $380 reversed $443 $-1 #
edge $444 $445 -110 $446 110 $379 $447 forward 7 unknown #
coedge $-1 $333 $332 $448 $449 forward $214 $-1 #
coedge $-1 $450 $451 $332 $383 forward $373 $-1 #
edge $-1 $452 -1.2893162535640517 $390 1.2893162535640517 $382 $453 forward 7 unknown #
coedge $-1 $454 $455 $333 $385 forward $330 $-1 #
edge $456 $389 -1.2893162535640517 $457 1.2893162535640517 $384 $458 forward 7 unknown #
coedge $-1 $369 $334 $455 $459 reversed $388 $-1 #
coedge $-1 $334 $369 $450 $460 reversed $388 $-1 #
loop $-1 $-1 $334 $461 #
vertex $-1 $385 $462 #
vertex $-1 $335 $463 #
straight-curve $-1 25 86.458082328952912 0 0 0 -1 I I #
coedge $-1 $337 $336 $349 $400 forward $234 $-1 #
coedge $-1 $349 $342 $338 $394 reversed $251 $-1 #
edge $-1 $395 -1.2893162535640517 $344 1.2893162535640517 $338 $464 forward 7 unknown #
vertex $-1 $400 $465 #
straight-curve $-1 25 86.458082328952912 30 0 0 -1 I I #
point $-1 25 86.458082328952912 -30 #
straight-curve $-1 25 0 30 0 -1 0 I I #
point $-1 25 -86.458082328952912 30 #
edge $-1 $401 -95 $395 -86.458082328952912 $392 $466 forward 7 unknown #
vertex $-1 $351 $467 #
straight-curve $-1 0 95 30 1 0 0 I I #
straight-curve $-1 25 95 30 0 0 -1 I I #
model_id-kcp-attrib $-1 $-1 $-1 $358 1 990635262 70 -1035599871 12 #
face $468 $469 $470 $8 $-1 $471 reversed single #
loop $-1 $472 $473 $358 #
cone-surface $-1 -20 -98.5 20 0 -1 0 2 0 0 1 I I 0 1 2 forward I I I I #
coedge $-1 $408 $408 $409 $474 reversed $359 $-1 #
coedge $-1 $409 $409 $408 $474 forward $361 $-1 #
coedge $-1 $410 $410 $362 $411 forward $475 $-1 #
edge $-1 $476 0 $476 6.2831853071795862 $410 $477 forward 7 unknown #
vertex $-1 $363 $478 #
ellipse-curve $-1 -20 102 -20 0 1 0 2 0 0 1 I I #
point $-1 -18 95 -20 #
coedge $-1 $368 $367 $479 $480 forward $275 $-1 #
coedge $-1 $455 $376 $367 $417 forward $330 $-1 #
edge $481 $482 -25 $420 25 $416 $483 forward 7 unknown #
coedge $-1 $428 $450 $368 $419 forward $373 $-1 #
edge $-1 $421 -25 $484 25 $418 $485 forward 7 unknown #
vertex $-1 $417 $486 #
vertex $-1 $419 $487 #
straight-curve $-1 25 95 0 0 0 -1 I I #
model_id-kcp-attrib $-1 $-1 $-1 $372 1 990635262 70 -1035599871 28 #
face $488 $489 $490 $8 $-1 $491 reversed single #
loop $-1 $-1 $492 $372 #
plane-surface $-1 0 -110 0 0 1 0 0 0 1 forward_v I I I I #
loop $-1 $-1 $493 $328 #
coedge $-1 $494 $418 $495 $496 forward $373 $-1 #
coedge $-1 $497 $375 $433 $498 reversed $329 $-1 #
coedge $-1 $375 $497 $494 $499 reversed $329 $-1 #
coedge $-1 $495 $434 $375 $432 reversed $500 $-1 #
edge $-1 $501 -30 $502 30 $375 $503 forward 7 unknown #
coedge $-1 $376 $504 $429 $498 forward $330 $-1 #
coedge $-1 $431 $479 $376 $435 reversed $500 $-1 #
edge $505 $502 86.458082328952912 $482 95 $376 $506 forward 7 unknown #
coedge $-1 $378 $377 $507 $508 forward $279 $-1 #
coedge $-1 $509 $510 $377 $438 reversed $511 $-1 #
edge $512 $446 -110 $513 110 $437 $514 forward 7 unknown #
coedge $-1 $492 $515 $378 $440 reversed $425 $-1 #
edge $516 $517 -110 $445 110 $439 $518 forward 7 unknown #
coedge $-1 $519 $379 $515 $520 forward $443 $-1 #
coedge $-1 $379 $519 $509 $521 reversed $443 $-1 #
loop $-1 $-1 $441 $522 #
attrib_edge_convexity-kcp-attrib $-1 $523 $-1 $380 1 #
vertex $-1 $380 $524 #
vertex $-1 $380 $525 #
straight-curve $-1 110 0 30 0 1 0 I I #
coedge $-1 $526 $527 $381 $449 reversed $528 $-1 #
edge $-1 $452 -30 $457 30 $381 $529 forward 7 unknown #
coedge $-1 $418 $382 $387 $460 forward $373 $-1 #
coedge $-1 $382 $530 $526 $531 forward $373 $-1 #
vertex $-1 $383 $532 #
ellipse-curve $-1 0 0 -30 0 0 1 90 0 0 1 I I #
coedge $-1 $533 $384 $527 $534 forward $330 $-1 #
coedge $-1 $384 $416 $386 $459 forward $330 $-1 #
attrib_edge_convexity-kcp-attrib $-1 $535 $-1 $385 1 #
vertex $-1 $449 $536 #
ellipse-curve $-1 0 0 30 0 0 -1 90 0 0 1 I I #
edge $537 $420 -95 $389 -86.458082328952912 $455 $538 forward 7 unknown #
edge $-1 $390 86.458082328952912 $421 95 $450 $539 forward 7 unknown #
face $540 $541 $388 $8 $-1 $542 forward single #
point $-1 25 86.458082328952912 30 #
point $-1 25 86.458082328952912 -30 #
ellipse-curve $-1 0 0 30 0 0 -1 90 0 0 1 I I #
point $-1 25 86.458082328952912 30 #
straight-curve $-1 25 0 30 0 -1 0 I I #
point $-1 25 95 30 #
model_id-kcp-attrib $-1 $-1 $-1 $405 1 990635262 70 -1035599871 13 #
face $543 $544 $545 $8 $-1 $546 reversed single #
loop $-1 $-1 $547 $405 #
plane-surface $-1 -20 -102 20 0 -1 0 1 0 0 forward_v I I I I #
loop $-1 $-1 $548 $358 #
coedge $-1 $473 $473 $549 $550 reversed $406 $-1 #
edge $-1 $551 0 $551 6.2831853071795862 $408 $552 forward 7 unknown #
loop $-1 $553 $410 $554 #
vertex $-1 $411 $555 #
ellipse-curve $-1 20 -95 20 0 -1 0 2 0 0 1 I I #
point $-1 -18 102 -20 #
coedge $-1 $434 $495 $415 $480 reversed $500 $-1 #
edge $-1 $482 -30 $484 30 $415 $556 forward 7 unknown #
attrib_edge_convexity-kcp-attrib $-1 $557 $-1 $417 1 #
vertex $-1 $435 $558 #
straight-curve $-1 0 95 30 1 0 0 I I #
vertex $-1 $496 $559 #
straight-curve $-1 0 95 -30 -1 0 0 I I #
point $-1 25 95 30 #
point $-1 25 95 -30 #
model_id-kcp-attrib $-1 $-1 $-1 $424 1 990635262 70 -1035599871 29 #
face $560 $522 $511 $8 $-1 $561 reversed single #
loop $-1 $-1 $562 $424 #
plane-surface $-1 -110 0 0 1 0 0 0 0 -1 forward_v I I I I #
coedge $-1 $563 $439 $564 $565 forward $425 $-1 #
coedge $-1 $566 $567 $519 $568 forward $427 $-1 #
coedge $-1 $569 $428 $430 $499 forward $373 $-1 #
coedge $-1 $479 $431 $428 $496 reversed $500 $-1 #
edge $-1 $484 -95 $501 -86.458082328952912 $428 $570 forward 7 unknown #
coedge $-1 $430 $429 $571 $572 forward $329 $-1 #
edge $573 $574 1.8522764000257417 $502 4.4309089071538441 $433 $458 forward 7 unknown #
edge $-1 $501 1.8522764000257417 $575 4.4309089071538441 $494 $453 forward 7 unknown #
loop $-1 $-1 $431 $576 #
vertex $-1 $499 $577 #
vertex $-1 $432 $578 #
straight-curve $-1 -25 86.458082328952912 0 0 0 1 I I #
coedge $-1 $433 $533 $579 $580 forward $330 $-1 #
attrib_edge_convexity-kcp-attrib $-1 $581 $-1 $435 1 #
straight-curve $-1 -25 0 30 0 1 0 I I #
coedge $-1 $562 $564 $436 $508 reversed $490 $-1 #
edge $582 $513 -110 $517 110 $507 $583 forward 7 unknown #
coedge $-1 $584 $437 $442 $521 forward $511 $-1 #
coedge $-1 $437 $584 $562 $585 reversed $511 $-1 #
loop $-1 $-1 $509 $489 #
attrib_edge_convexity-kcp-attrib $-1 $586 $-1 $438 1 #
vertex $-1 $438 $587 #
straight-curve $-1 0 110 30 -1 0 0 I I #
coedge $-1 $439 $563 $441 $520 reversed $425 $-1 #
attrib_edge_convexity-kcp-attrib $-1 $588 $-1 $440 1 #
vertex $-1 $508 $589 #
straight-curve $-1 0 -110 30 1 0 0 I I #
coedge $-1 $442 $441 $493 $568 reversed $443 $-1 #
edge $590 $445 -30 $591 30 $441 $592 forward 7 unknown #
edge $-1 $446 -30 $593 30 $442 $594 forward 7 unknown #
face $595 $-1 $443 $8 $-1 $596 reversed single #
convexity-sys-attrib $-1 $-1 $444 $380 #
point $-1 110 -110 30 #
point $-1 110 110 30 #
coedge $-1 $597 $448 $451 $531 reversed $528 $-1 #
coedge $-1 $448 $597 $454 $534 reversed $528 $-1 #
loop $-1 $-1 $448 $598 #
straight-curve $-1 25 -86.458082328952912 0 0 0 1 I I #
coedge $-1 $451 $569 $599 $600 forward $373 $-1 #
edge $-1 $601 -95 $452 -86.458082328952912 $451 $539 forward 7 unknown #
point $-1 25 -86.458082328952912 -30 #
coedge $-1 $504 $454 $602 $603 forward $330 $-1 #
edge $604 $457 86.458082328952912 $605 95 $454 $538 forward 7 unknown #
convexity-sys-attrib $-1 $-1 $456 $385 #
point $-1 25 -86.458082328952912 30 #
attrib_edge_convexity-kcp-attrib $-1 $606 $-1 $459 1 #
straight-curve $-1 25 0 30 0 -1 0 I I #
straight-curve $-1 25 0 -30 0 1 0 I I #
model_id-kcp-attrib $-1 $-1 $-1 $461 1 990635262 70 -1035599871 19 #
face $607 $554 $608 $8 $-1 $609 forward single #
plane-surface $-1 25 0 0 -1 0 0 0 0 1 forward_v I I I I #
model_id-kcp-attrib $-1 $-1 $-1 $469 1 990635262 70 -1035599871 14 #
face $610 $611 $612 $8 $-1 $613 reversed single #
loop $-1 $614 $615 $469 #
cone-surface $-1 20 -98.5 -20 0 -1 0 2 0 0 1 I I 0 1 2 forward I I I I #
coedge $-1 $547 $547 $548 $616 reversed $470 $-1 #
coedge $-1 $548 $548 $547 $616 forward $472 $-1 #
coedge $-1 $549 $549 $473 $550 forward $553 $-1 #
edge $-1 $617 0 $617 6.2831853071795862 $549 $618 forward 7 unknown #
vertex $-1 $474 $619 #
ellipse-curve $-1 20 -102 20 0 -1 0 2 0 0 1 I I #
loop $-1 $620 $549 $554 #
face $621 $576 $475 $8 $-1 $622 forward single #
point $-1 22 -95 20 #
straight-curve $-1 -25 95 0 0 0 -1 I I #
convexity-sys-attrib $-1 $-1 $481 $417 #
point $-1 -25 95 30 #
point $-1 -25 95 -30 #
model_id-kcp-attrib $-1 $-1 $-1 $489 1 990635262 70 -1035599871 30 #
plane-surface $-1 0 110 0 0 -1 0 0 0 -1 forward_v I I I I #
coedge $-1 $623 $507 $510 $585 forward $490 $-1 #
coedge $-1 $515 $492 $566 $624 reversed $425 $-1 #
coedge $-1 $507 $623 $492 $565 reversed $490 $-1 #
edge $625 $517 -30 $626 30 $564 $627 forward 7 unknown #
coedge $-1 $628 $493 $563 $624 forward $427 $-1 #
coedge $-1 $493 $628 $584 $629 forward $427 $-1 #
edge $-1 $593 -110 $591 110 $519 $630 forward 7 unknown #
coedge $-1 $530 $494 $631 $632 forward $373 $-1 #
straight-curve $-1 -25 0 -30 0 -1 0 I I #
coedge $-1 $579 $631 $497 $572 reversed $608 $-1 #
edge $-1 $574 -30 $575 30 $497 $633 forward 7 unknown #
attrib_edge_convexity-kcp-attrib $-1 $634 $-1 $498 1 #
vertex $-1 $498 $635 #
vertex $-1 $632 $636 #
face $637 $93 $500 $8 $-1 $609 forward single #
point $-1 -25 86.458082328952912 -30 #
point $-1 -25 86.458082328952912 30 #
coedge $-1 $638 $571 $504 $580 reversed $608 $-1 #
edge $639 $640 -95 $574 -86.458082328952912 $504 $506 forward 7 unknown #
convexity-sys-attrib $-1 $-1 $505 $435 #
attrib_edge_convexity-kcp-attrib $-1 $641 $-1 $508 1 #
straight-curve $-1 -110 0 30 0 -1 0 I I #
coedge $-1 $510 $509 $567 $629 reversed $511 $-1 #
edge $642 $513 -30 $643 30 $510 $644 forward 7 unknown #
convexity-sys-attrib $-1 $-1 $512 $438 #
point $-1 -110 110 30 #
convexity-sys-attrib $-1 $-1 $516 $440 #
point $-1 -110 -110 30 #
attrib_edge_convexity-kcp-attrib $-1 $645 $-1 $520 1 #
vertex $-1 $520 $646 #
straight-curve $-1 110 -110 0 0 0 -1 I I #
vertex $-1 $568 $647 #
straight-curve $-1 110 110 0 0 0 -1 I I #
model_id-kcp-attrib $-1 $-1 $-1 $522 1 990635262 70 -1035599871 31 #
plane-surface $-1 110 0 0 -1 0 0 0 0 1 forward_v I I I I #
coedge $-1 $527 $526 $648 $649 reversed $528 $-1 #
face $650 $461 $528 $8 $-1 $542 forward single #
coedge $-1 $651 $648 $530 $600 reversed $652 $-1 #
edge $-1 $653 -25 $601 25 $530 $654 forward 7 unknown #
vertex $-1 $600 $655 #
coedge $-1 $648 $651 $533 $603 reversed $652 $-1 #
edge $656 $605 -25 $640 25 $533 $657 forward 7 unknown #
attrib_edge_convexity-kcp-attrib $-1 $658 $-1 $534 1 #
vertex $-1 $603 $659 #
convexity-sys-attrib $-1 $-1 $537 $459 #
model_id-kcp-attrib $-1 $-1 $-1 $541 1 990635262 70 -1035599871 20 #
loop $-1 $-1 $571 $541 #
plane-surface $-1 -25 0 0 1 0 0 0 0 -1 forward_v I I I I #
model_id-kcp-attrib $-1 $-1 $-1 $544 1 990635262 70 -1035599871 15 #
face $660 $661 $662 $8 $-1 $663 reversed single #
loop $-1 $-1 $664 $544 #
plane-surface $-1 20 -102 -20 0 -1 0 1 0 0 forward_v I I I I #
loop $-1 $-1 $665 $469 #
coedge $-1 $615 $615 $666 $667 reversed $545 $-1 #
edge $-1 $668 0 $668 6.2831853071795862 $547 $669 forward 7 unknown #
vertex $-1 $550 $670 #
ellipse-curve $-1 -20 -95 20 0 -1 0 2 0 0 1 I I #
point $-1 22 -102 20 #
loop $-1 $671 $666 $554 #
model_id-kcp-attrib $-1 $-1 $-1 $554 1 990635262 70 -1035599871 21 #
plane-surface $-1 0 -95 0 0 1 0 0 0 1 forward_v I I I I #
coedge $-1 $564 $562 $628 $672 reversed $490 $-1 #
edge $673 $591 -110 $626 110 $563 $674 forward 7 unknown #
attrib_edge_convexity-kcp-attrib $-1 $675 $-1 $565 1 #
vertex $-1 $672 $676 #
straight-curve $-1 -110 -110 0 0 0 -1 I I #
coedge $-1 $567 $566 $623 $672 forward $427 $-1 #
edge $-1 $643 -110 $593 110 $584 $677 forward 7 unknown #
straight-curve $-1 110 0 -30 0 -1 0 I I #
coedge $-1 $571 $638 $569 $632 reversed $608 $-1 #
edge $-1 $575 86.458082328952912 $653 95 $569 $570 forward 7 unknown #
straight-curve $-1 -25 -86.458082328952912 0 0 0 -1 I I #
convexity-sys-attrib $-1 $-1 $573 $498 #
point $-1 -25 -86.458082328952912 30 #
point $-1 -25 -86.458082328952912 -30 #
model_id-kcp-attrib $-1 $-1 $-1 $576 1 990635262 70 -1035599871 22 #
coedge $-1 $631 $579 $651 $678 forward $608 $-1 #
attrib_edge_convexity-kcp-attrib $-1 $679 $-1 $580 1 #
vertex $-1 $603 $680 #
convexity-sys-attrib $-1 $-1 $582 $508 #
attrib_edge_convexity-kcp-attrib $-1 $681 $-1 $585 1 #
vertex $-1 $629 $682 #
straight-curve $-1 -110 110 0 0 0 -1 I I #
convexity-sys-attrib $-1 $-1 $590 $520 #
point $-1 110 -110 -30 #
point $-1 110 110 -30 #
coedge $-1 $599 $602 $597 $649 forward $652 $-1 #
edge $-1 $605 -30 $601 30 $597 $683 forward 7 unknown #
model_id-kcp-attrib $-1 $-1 $-1 $598 1 990635262 70 -1035599871 18 #
coedge $-1 $602 $599 $638 $678 reversed $652 $-1 #
loop $-1 $-1 $651 $554 #
vertex $-1 $600 $684 #
straight-curve $-1 0 -95 -30 1 0 0 I I #
point $-1 25 -95 -30 #
attrib_edge_convexity-kcp-attrib $-1 $685 $-1 $603 1 #
straight-curve $-1 0 -95 30 -1 0 0 I I #
convexity-sys-attrib $-1 $-1 $604 $534 #
point $-1 25 -95 30 #
model_id-kcp-attrib $-1 $-1 $-1 $611 1 990635262 70 -1035599871 16 #
face $686 $598 $687 $8 $-1 $688 reversed single #
loop $-1 $689 $690 $611 #
cone-surface $-1 -20 -98.5 -20 0 -1 0 2 0 0 1 I I 0 1 2 forward I I I I #
coedge $-1 $664 $664 $665 $691 reversed $612 $-1 #
coedge $-1 $665 $665 $664 $691 forward $614 $-1 #
coedge $-1 $666 $666 $615 $667 forward $620 $-1 #
edge $-1 $692 0 $692 6.2831853071795862 $666 $693 forward 7 unknown #
vertex $-1 $616 $694 #
ellipse-curve $-1 -20 -102 20 0 -1 0 2 0 0 1 I I #
point $-1 -18 -95 20 #
loop $-1 $652 $695 $554 #
edge $696 $626 -110 $643 110 $623 $697 forward 7 unknown #
attrib_edge_convexity-kcp-attrib $-1 $698 $-1 $624 1 #
straight-curve $-1 0 -110 -30 -1 0 0 I I #
convexity-sys-attrib $-1 $-1 $625 $565 #
point $-1 -110 -110 -30 #
straight-curve $-1 0 110 -30 1 0 0 I I #
edge $-1 $640 -30 $653 30 $638 $699 forward 7 unknown #
convexity-sys-attrib $-1 $-1 $639 $580 #
point $-1 -25 -95 30 #
convexity-sys-attrib $-1 $-1 $642 $585 #
point $-1 -110 110 -30 #
straight-curve $-1 25 -95 0 0 0 -1 I I #
point $-1 -25 -95 -30 #
convexity-sys-attrib $-1 $-1 $656 $603 #
model_id-kcp-attrib $-1 $-1 $-1 $661 1 990635262 70 -1035599871 17 #
loop $-1 $-1 $700 $661 #
plane-surface $-1 -20 -102 -20 0 -1 0 1 0 0 forward_v I I I I #
loop $-1 $-1 $701 $611 #
coedge $-1 $690 $690 $695 $702 reversed $662 $-1 #
edge $-1 $703 0 $703 6.2831853071795862 $664 $704 forward 7 unknown #
vertex $-1 $667 $705 #
ellipse-curve $-1 20 -95 -20 0 -1 0 2 0 0 1 I I #
point $-1 -18 -102 20 #
coedge $-1 $695 $695 $690 $702 forward $671 $-1 #
attrib_edge_convexity-kcp-attrib $-1 $706 $-1 $672 1 #
straight-curve $-1 -110 0 -30 0 1 0 I I #
convexity-sys-attrib $-1 $-1 $673 $624 #
straight-curve $-1 -25 -95 0 0 0 -1 I I #
coedge $-1 $700 $700 $701 $707 reversed $687 $-1 #
coedge $-1 $701 $701 $700 $707 forward $689 $-1 #
edge $-1 $708 0 $708 6.2831853071795862 $695 $709 forward 7 unknown #
vertex $-1 $691 $710 #
ellipse-curve $-1 20 -102 -20 0 -1 0 2 0 0 1 I I #
point $-1 22 -95 -20 #
convexity-sys-attrib $-1 $-1 $696 $672 #
edge $-1 $711 0 $711 6.2831853071795862 $700 $712 forward 7 unknown #
vertex $-1 $702 $713 #
ellipse-curve $-1 -20 -95 -20 0 -1 0 2 0 0 1 I I #
point $-1 22 -102 -20 #
vertex $-1 $707 $714 #
ellipse-curve $-1 -20 -102 -20 0 -1 0 2 0 0 1 I I #
point $-1 -18 -95 -20 #
point $-1 -18 -102 -20 #
End-of-ACIS-data 