106 0 1 0           
body $1 $2 $-1 $3 #
display_attribute-st-attrib $-1 $4 $-1 $0 3 #
lump $-1 $-1 $5 $0 #
transform $-1 1 0 0 0 1 0 0 0 1 0 0 0 1 1 0 0 #
rgb_color-st-attrib $-1 $6 $1 $0 0 1 0 #
shell $-1 $-1 $-1 $7 $2 #
id_attribute-st-attrib $-1 $-1 $4 $0 57 #
face $-1 $8 $9 $5 $-1 $10 reversed single #
face $-1 $11 $12 $5 $-1 $13 reversed single #
loop $-1 $14 $15 $7 #
cone-surface $-1 20 98.5 20 0 1 0 2 0 0 1 I I 0 1 0 I I I I #
face $-1 $16 $17 $5 $-1 $18 reversed single #
loop $-1 $-1 $19 $8 #
plane-surface $-1 20 102 20 0 1 0 1 0 0 0 I I I I #
loop $-1 $-1 $20 $7 #
coedge $-1 $15 $15 $21 $22 1 $9 $-1 #
face $-1 $23 $24 $5 $-1 $25 reversed single #
loop $-1 $26 $27 $11 #
cone-surface $-1 -20 98.5 20 0 1 0 2 0 0 1 I I 0 1 0 I I I I #
coedge $-1 $19 $19 $20 $28 1 $12 $-1 #
coedge $-1 $20 $20 $19 $28 0 $14 $-1 #
coedge $-1 $21 $21 $15 $22 0 $29 $-1 #
edge $-1 $30 $30 $21 $31 0 #
face $-1 $32 $33 $5 $-1 $34 reversed single #
loop $-1 $-1 $35 $16 #
plane-surface $-1 -20 102 20 0 1 0 1 0 0 0 I I I I #
loop $-1 $-1 $36 $11 #
coedge $-1 $27 $27 $37 $38 1 $17 $-1 #
edge $-1 $39 $39 $19 $40 0 #
loop $-1 $41 $21 $42 #
vertex $-1 $22 $43 #
ellipse-curve $-1 20 95 20 -0 1 -0 2 0 0 1 I I #
face $-1 $44 $45 $5 $-1 $46 reversed single #
loop $-1 $47 $48 $23 #
cone-surface $-1 20 98.5 -20 0 1 0 2 0 0 1 I I 0 1 0 I I I I #
coedge $-1 $35 $35 $36 $49 1 $24 $-1 #
coedge $-1 $36 $36 $35 $49 0 $26 $-1 #
coedge $-1 $37 $37 $27 $38 0 $41 $-1 #
edge $-1 $50 $50 $37 $51 0 #
vertex $-1 $28 $52 #
ellipse-curve $-1 20 102 20 0 1 0 2 0 0 1 I I #
loop $-1 $53 $37 $42 #
face $-1 $54 $29 $5 $-1 $55 forward single #
point $-1 22 95 20 #
face $-1 $56 $57 $5 $-1 $58 reversed single #
loop $-1 $-1 $59 $32 #
plane-surface $-1 20 102 -20 0 1 0 1 0 0 0 I I I I #
loop $-1 $-1 $60 $23 #
coedge $-1 $48 $48 $61 $62 1 $33 $-1 #
edge $-1 $63 $63 $35 $64 0 #
vertex $-1 $38 $65 #
ellipse-curve $-1 -20 95 20 -0 1 -0 2 0 0 1 I I #
point $-1 22 102 20 #
loop $-1 $66 $61 $42 #
face $-1 $67 $68 $5 $-1 $69 reversed single #
plane-surface $-1 0 95 0 0 -1 0 0 0 -1 0 I I I I #
face $-1 $70 $71 $5 $-1 $72 reversed single #
loop $-1 $73 $74 $44 #
cone-surface $-1 -20 98.5 -20 0 1 0 2 0 0 1 I I 0 1 0 I I I I #
coedge $-1 $59 $59 $60 $75 1 $45 $-1 #
coedge $-1 $60 $60 $59 $75 0 $47 $-1 #
coedge $-1 $61 $61 $48 $62 0 $53 $-1 #
edge $-1 $76 $76 $61 $77 0 #
vertex $-1 $49 $78 #
ellipse-curve $-1 -20 102 20 0 1 0 2 0 0 1 I I #
point $-1 -18 95 20 #
loop $-1 $79 $80 $42 #
face $-1 $81 $82 $5 $-1 $83 forward single #
loop $-1 $-1 $84 $54 #
cone-surface $-1 0 0 0 0 0 1 90 0 0 1 I I 0 1 0 I I I I #
face $-1 $85 $86 $5 $-1 $87 reversed single #
loop $-1 $-1 $88 $56 #
plane-surface $-1 -20 102 -20 0 1 0 1 0 0 0 I I I I #
loop $-1 $-1 $89 $44 #
coedge $-1 $74 $74 $80 $90 1 $57 $-1 #
edge $-1 $91 $91 $59 $92 0 #
vertex $-1 $62 $93 #
ellipse-curve $-1 20 95 -20 -0 1 -0 2 0 0 1 I I #
point $-1 -18 102 20 #
loop $-1 $-1 $94 $42 #
coedge $-1 $80 $80 $74 $90 0 $66 $-1 #
face $-1 $95 $96 $5 $-1 $69 reversed single #
loop $-1 $97 $98 $67 #
plane-surface $-1 0 0 30 0 0 1 1 0 0 0 I I I I #
coedge $-1 $99 $100 $101 $102 0 $68 $-1 #
face $-1 $103 $104 $5 $-1 $105 reversed single #
loop $-1 $106 $107 $70 #
cone-surface $-1 20 -98.5 20 0 -1 0 2 0 0 1 I I 0 1 0 I I I I #
coedge $-1 $88 $88 $89 $108 1 $71 $-1 #
coedge $-1 $89 $89 $88 $108 0 $73 $-1 #
edge $-1 $109 $109 $80 $110 0 #
vertex $-1 $75 $111 #
ellipse-curve $-1 20 102 -20 0 1 0 2 0 0 1 I I #
point $-1 22 95 -20 #
coedge $-1 $112 $113 $114 $115 1 $79 $-1 #
face $-1 $116 $117 $5 $-1 $118 reversed single #
loop $-1 $-1 $119 $81 #
loop $-1 $-1 $120 $67 #
coedge $-1 $121 $122 $123 $124 0 $82 $-1 #
coedge $-1 $125 $84 $126 $127 1 $68 $-1 #
coedge $-1 $84 $125 $128 $129 1 $68 $-1 #
coedge $-1 $130 $131 $84 $102 1 $132 $-1 #
edge $-1 $133 $134 $84 $135 0 #
face $-1 $136 $137 $5 $-1 $138 reversed single #
loop $-1 $-1 $139 $85 #
plane-surface $-1 20 -102 20 0 -1 0 1 0 0 0 I I I I #
loop $-1 $-1 $140 $70 #
coedge $-1 $107 $107 $141 $142 1 $86 $-1 #
edge $-1 $143 $143 $88 $144 0 #
vertex $-1 $90 $145 #
ellipse-curve $-1 -20 95 -20 -0 1 -0 2 0 0 1 I I #
point $-1 22 102 -20 #
coedge $-1 $146 $94 $147 $148 1 $79 $-1 #
coedge $-1 $94 $146 $149 $150 1 $79 $-1 #
coedge $-1 $131 $130 $94 $115 0 $132 $-1 #
edge $-1 $151 $152 $114 $153 0 #
face $-1 $154 $155 $5 $-1 $156 reversed single #
loop $-1 $157 $158 $95 #
plane-surface $-1 0 0 -30 0 0 1 1 0 0 0 I I I I #
coedge $-1 $159 $160 $161 $162 0 $96 $-1 #
coedge $-1 $147 $163 $164 $165 0 $97 $-1 #
coedge $-1 $166 $98 $167 $168 0 $82 $-1 #
coedge $-1 $98 $166 $169 $170 0 $82 $-1 #
coedge $-1 $171 $172 $98 $124 1 $173 $-1 #
edge $-1 $174 $175 $123 $176 0 #
coedge $-1 $100 $99 $177 $178 0 $68 $-1 #
coedge $-1 $179 $180 $99 $127 0 $117 $-1 #
edge $-1 $181 $134 $126 $182 0 #
coedge $-1 $183 $184 $100 $129 0 $97 $-1 #
edge $-1 $133 $185 $128 $186 0 #
coedge $-1 $114 $101 $184 $187 1 $132 $-1 #
coedge $-1 $101 $114 $179 $188 1 $132 $-1 #
loop $-1 $-1 $101 $189 #
vertex $-1 $129 $190 #
vertex $-1 $102 $191 #
straight-curve $-1 25 86.45808232895291212 0 -0 -0 -1 I I #
face $-1 $192 $193 $5 $-1 $194 reversed single #
loop $-1 $195 $196 $103 #
cone-surface $-1 -20 -98.5 20 0 -1 0 2 0 0 1 I I 0 1 0 I I I I #
coedge $-1 $139 $139 $140 $197 1 $104 $-1 #
coedge $-1 $140 $140 $139 $197 0 $106 $-1 #
coedge $-1 $141 $141 $107 $142 0 $198 $-1 #
edge $-1 $199 $199 $141 $200 0 #
vertex $-1 $108 $201 #
ellipse-curve $-1 -20 102 -20 0 1 0 2 0 0 1 I I #
point $-1 -18 95 -20 #
coedge $-1 $113 $112 $202 $203 0 $79 $-1 #
coedge $-1 $184 $120 $112 $148 0 $97 $-1 #
edge $-1 $204 $151 $147 $205 0 #
coedge $-1 $158 $179 $113 $150 0 $117 $-1 #
edge $-1 $152 $206 $149 $207 0 #
vertex $-1 $148 $208 #
vertex $-1 $150 $209 #
straight-curve $-1 25 95 0 0 0 -1 I I #
face $-1 $210 $211 $5 $-1 $212 reversed single #
loop $-1 $-1 $213 $116 #
plane-surface $-1 0 -110 0 0 1 -0 -0 0 1 0 I I I I #
loop $-1 $-1 $214 $95 #
coedge $-1 $215 $149 $216 $217 0 $117 $-1 #
coedge $-1 $218 $119 $163 $219 1 $96 $-1 #
coedge $-1 $119 $218 $215 $220 1 $96 $-1 #
coedge $-1 $216 $164 $119 $162 1 $221 $-1 #
edge $-1 $222 $223 $119 $224 0 #
coedge $-1 $120 $225 $159 $219 0 $97 $-1 #
coedge $-1 $161 $202 $120 $165 1 $221 $-1 #
edge $-1 $223 $204 $120 $226 0 #
coedge $-1 $122 $121 $227 $228 0 $82 $-1 #
coedge $-1 $229 $230 $121 $168 1 $231 $-1 #
edge $-1 $175 $232 $167 $233 0 #
coedge $-1 $213 $234 $122 $170 1 $155 $-1 #
edge $-1 $235 $174 $169 $236 0 #
coedge $-1 $237 $123 $234 $238 0 $173 $-1 #
coedge $-1 $123 $237 $229 $239 1 $173 $-1 #
loop $-1 $-1 $171 $240 #
vertex $-1 $124 $241 #
vertex $-1 $124 $242 #
straight-curve $-1 110 0 30 0 1 0 I I #
coedge $-1 $243 $244 $125 $178 1 $245 $-1 #
edge $-1 $181 $185 $125 $246 0 #
coedge $-1 $149 $126 $131 $188 0 $117 $-1 #
coedge $-1 $126 $247 $243 $248 0 $117 $-1 #
vertex $-1 $127 $249 #
ellipse-curve $-1 0 0 -30 0 0 1 90 0 0 1 I I #
coedge $-1 $250 $128 $244 $251 0 $97 $-1 #
coedge $-1 $128 $147 $130 $187 0 $97 $-1 #
vertex $-1 $178 $252 #
ellipse-curve $-1 0 0 30 -0 -0 -1 90 0 0 1 I I #
edge $-1 $151 $133 $184 $253 0 #
edge $-1 $134 $152 $179 $254 0 #
face $-1 $255 $132 $5 $-1 $256 forward single #
point $-1 25 86.45808232895291212 30 #
point $-1 25 86.45808232895291212 -30 #
face $-1 $257 $258 $5 $-1 $259 reversed single #
loop $-1 $-1 $260 $136 #
plane-surface $-1 -20 -102 20 0 -1 0 1 0 0 0 I I I I #
loop $-1 $-1 $261 $103 #
coedge $-1 $196 $196 $262 $263 1 $137 $-1 #
edge $-1 $264 $264 $139 $265 0 #
loop $-1 $266 $141 $267 #
vertex $-1 $142 $268 #
ellipse-curve $-1 20 -95 20 -0 -1 0 2 0 0 1 I I #
point $-1 -18 102 -20 #
coedge $-1 $164 $216 $146 $203 1 $221 $-1 #
edge $-1 $204 $206 $146 $269 0 #
vertex $-1 $165 $270 #
straight-curve $-1 0 95 30 1 0 -0 I I #
vertex $-1 $217 $271 #
straight-curve $-1 0 95 -30 -1 0 0 I I #
point $-1 25 95 30 #
point $-1 25 95 -30 #
face $-1 $240 $231 $5 $-1 $272 reversed single #
loop $-1 $-1 $273 $154 #
plane-surface $-1 -110 0 0 1 0 0 0 0 -1 0 I I I I #
coedge $-1 $274 $169 $275 $276 0 $155 $-1 #
coedge $-1 $277 $278 $237 $279 0 $157 $-1 #
coedge $-1 $280 $158 $160 $220 0 $117 $-1 #
coedge $-1 $202 $161 $158 $217 1 $221 $-1 #
edge $-1 $206 $222 $158 $281 0 #
coedge $-1 $160 $159 $282 $283 0 $96 $-1 #
edge $-1 $284 $223 $163 $186 0 #
edge $-1 $222 $285 $215 $182 0 #
loop $-1 $-1 $161 $286 #
vertex $-1 $220 $287 #
vertex $-1 $162 $288 #
straight-curve $-1 -25 86.45808232895291212 0 -0 0 1 I I #
coedge $-1 $163 $250 $289 $290 0 $97 $-1 #
straight-curve $-1 -25 0 30 0 1 0 I I #
coedge $-1 $273 $275 $166 $228 1 $211 $-1 #
edge $-1 $232 $235 $227 $291 0 #
coedge $-1 $292 $167 $172 $239 0 $231 $-1 #
coedge $-1 $167 $292 $273 $293 1 $231 $-1 #
loop $-1 $-1 $229 $210 #
vertex $-1 $168 $294 #
straight-curve $-1 0 110 30 -1 0 0 I I #
coedge $-1 $169 $274 $171 $238 1 $155 $-1 #
vertex $-1 $228 $295 #
straight-curve $-1 0 -110 30 1 0 0 I I #
coedge $-1 $172 $171 $214 $279 1 $173 $-1 #
edge $-1 $174 $296 $171 $297 0 #
edge $-1 $175 $298 $172 $299 0 #
face $-1 $-1 $173 $5 $-1 $300 reversed single #
point $-1 110 -110 30 #
point $-1 110 110 30 #
coedge $-1 $301 $177 $180 $248 1 $245 $-1 #
coedge $-1 $177 $301 $183 $251 1 $245 $-1 #
loop $-1 $-1 $177 $302 #
straight-curve $-1 25 -86.45808232895291212 0 0 -0 1 I I #
coedge $-1 $180 $280 $303 $304 0 $117 $-1 #
edge $-1 $305 $181 $180 $254 0 #
point $-1 25 -86.45808232895291212 -30 #
coedge $-1 $225 $183 $306 $307 0 $97 $-1 #
edge $-1 $185 $308 $183 $253 0 #
point $-1 25 -86.45808232895291212 30 #
straight-curve $-1 25 0 30 0 -1 0 I I #
straight-curve $-1 25 0 -30 0 1 -0 I I #
face $-1 $267 $309 $5 $-1 $310 forward single #
plane-surface $-1 25 0 0 -1 0 0 0 -0 1 0 I I I I #
face $-1 $311 $312 $5 $-1 $313 reversed single #
loop $-1 $314 $315 $192 #
cone-surface $-1 20 -98.5 -20 0 -1 0 2 0 0 1 I I 0 1 0 I I I I #
coedge $-1 $260 $260 $261 $316 1 $193 $-1 #
coedge $-1 $261 $261 $260 $316 0 $195 $-1 #
coedge $-1 $262 $262 $196 $263 0 $266 $-1 #
edge $-1 $317 $317 $262 $318 0 #
vertex $-1 $197 $319 #
ellipse-curve $-1 20 -102 20 0 -1 0 2 0 0 1 I I #
loop $-1 $320 $262 $267 #
face $-1 $286 $198 $5 $-1 $321 forward single #
point $-1 22 -95 20 #
straight-curve $-1 -25 95 0 0 0 -1 I I #
point $-1 -25 95 30 #
point $-1 -25 95 -30 #
plane-surface $-1 0 110 0 0 -1 0 0 0 -1 0 I I I I #
coedge $-1 $322 $227 $230 $293 0 $211 $-1 #
coedge $-1 $234 $213 $277 $323 1 $155 $-1 #
coedge $-1 $227 $322 $213 $276 1 $211 $-1 #
edge $-1 $235 $324 $275 $325 0 #
coedge $-1 $326 $214 $274 $323 0 $157 $-1 #
coedge $-1 $214 $326 $292 $327 0 $157 $-1 #
edge $-1 $298 $296 $237 $328 0 #
coedge $-1 $247 $215 $329 $330 0 $117 $-1 #
straight-curve $-1 -25 0 -30 0 -1 0 I I #
coedge $-1 $289 $329 $218 $283 1 $309 $-1 #
edge $-1 $284 $285 $218 $331 0 #
vertex $-1 $219 $332 #
vertex $-1 $330 $333 #
face $-1 $42 $221 $5 $-1 $310 forward single #
point $-1 -25 86.45808232895291212 -30 #
point $-1 -25 86.45808232895291212 30 #
coedge $-1 $334 $282 $225 $290 1 $309 $-1 #
edge $-1 $335 $284 $225 $226 0 #
straight-curve $-1 -110 0 30 0 -1 0 I I #
coedge $-1 $230 $229 $278 $327 1 $231 $-1 #
edge $-1 $232 $336 $230 $337 0 #
point $-1 -110 110 30 #
point $-1 -110 -110 30 #
vertex $-1 $238 $338 #
straight-curve $-1 110 -110 0 0 0 -1 I I #
vertex $-1 $279 $339 #
straight-curve $-1 110 110 0 0 0 -1 I I #
plane-surface $-1 110 0 0 -1 0 0 0 -0 1 0 I I I I #
coedge $-1 $244 $243 $340 $341 1 $245 $-1 #
face $-1 $189 $245 $5 $-1 $256 forward single #
coedge $-1 $342 $340 $247 $304 1 $343 $-1 #
edge $-1 $344 $305 $247 $345 0 #
vertex $-1 $304 $346 #
coedge $-1 $340 $342 $250 $307 1 $343 $-1 #
edge $-1 $308 $335 $250 $347 0 #
vertex $-1 $307 $348 #
loop $-1 $-1 $282 $255 #
plane-surface $-1 -25 0 0 1 0 0 0 0 -1 0 I I I I #
face $-1 $349 $350 $5 $-1 $351 reversed single #
loop $-1 $-1 $352 $257 #
plane-surface $-1 20 -102 -20 0 -1 0 1 0 0 0 I I I I #
loop $-1 $-1 $353 $192 #
coedge $-1 $315 $315 $354 $355 1 $258 $-1 #
edge $-1 $356 $356 $260 $357 0 #
vertex $-1 $263 $358 #
ellipse-curve $-1 -20 -95 20 -0 -1 0 2 0 0 1 I I #
point $-1 22 -102 20 #
loop $-1 $359 $354 $267 #
plane-surface $-1 0 -95 0 0 1 -0 -0 0 1 0 I I I I #
coedge $-1 $275 $273 $326 $360 1 $211 $-1 #
edge $-1 $296 $324 $274 $361 0 #
vertex $-1 $360 $362 #
straight-curve $-1 -110 -110 0 0 0 -1 I I #
coedge $-1 $278 $277 $322 $360 0 $157 $-1 #
edge $-1 $336 $298 $292 $363 0 #
straight-curve $-1 110 0 -30 0 -1 0 I I #
coedge $-1 $282 $334 $280 $330 1 $309 $-1 #
edge $-1 $285 $344 $280 $281 0 #
straight-curve $-1 -25 -86.45808232895291212 0 0 0 -1 I I #
point $-1 -25 -86.45808232895291212 30 #
point $-1 -25 -86.45808232895291212 -30 #
coedge $-1 $329 $289 $342 $364 0 $309 $-1 #
vertex $-1 $307 $365 #
vertex $-1 $327 $366 #
straight-curve $-1 -110 110 0 0 0 -1 I I #
point $-1 110 -110 -30 #
point $-1 110 110 -30 #
coedge $-1 $303 $306 $301 $341 0 $343 $-1 #
edge $-1 $308 $305 $301 $367 0 #
coedge $-1 $306 $303 $334 $364 1 $343 $-1 #
loop $-1 $-1 $342 $267 #
vertex $-1 $304 $368 #
straight-curve $-1 0 -95 -30 1 -0 0 I I #
point $-1 25 -95 -30 #
straight-curve $-1 0 -95 30 -1 0 0 I I #
point $-1 25 -95 30 #
face $-1 $302 $369 $5 $-1 $370 reversed single #
loop $-1 $371 $372 $311 #
cone-surface $-1 -20 -98.5 -20 0 -1 0 2 0 0 1 I I 0 1 0 I I I I #
coedge $-1 $352 $352 $353 $373 1 $312 $-1 #
coedge $-1 $353 $353 $352 $373 0 $314 $-1 #
coedge $-1 $354 $354 $315 $355 0 $320 $-1 #
edge $-1 $374 $374 $354 $375 0 #
vertex $-1 $316 $376 #
ellipse-curve $-1 -20 -102 20 0 -1 0 2 0 0 1 I I #
point $-1 -18 -95 20 #
loop $-1 $343 $377 $267 #
edge $-1 $324 $336 $322 $378 0 #
straight-curve $-1 0 -110 -30 -1 0 0 I I #
point $-1 -110 -110 -30 #
straight-curve $-1 0 110 -30 1 0 0 I I #
edge $-1 $335 $344 $334 $379 0 #
point $-1 -25 -95 30 #
point $-1 -110 110 -30 #
straight-curve $-1 25 -95 0 0 0 -1 I I #
point $-1 -25 -95 -30 #
loop $-1 $-1 $380 $349 #
plane-surface $-1 -20 -102 -20 0 -1 0 1 0 0 0 I I I I #
loop $-1 $-1 $381 $311 #
coedge $-1 $372 $372 $377 $382 1 $350 $-1 #
edge $-1 $383 $383 $352 $384 0 #
vertex $-1 $355 $385 #
ellipse-curve $-1 20 -95 -20 -0 -1 0 2 0 0 1 I I #
point $-1 -18 -102 20 #
coedge $-1 $377 $377 $372 $382 0 $359 $-1 #
straight-curve $-1 -110 0 -30 0 1 0 I I #
straight-curve $-1 -25 -95 0 0 0 -1 I I #
coedge $-1 $380 $380 $381 $386 1 $369 $-1 #
coedge $-1 $381 $381 $380 $386 0 $371 $-1 #
edge $-1 $387 $387 $377 $388 0 #
vertex $-1 $373 $389 #
ellipse-curve $-1 20 -102 -20 0 -1 0 2 0 0 1 I I #
point $-1 22 -95 -20 #
edge $-1 $390 $390 $380 $391 0 #
vertex $-1 $382 $392 #
ellipse-curve $-1 -20 -95 -20 -0 -1 0 2 0 0 1 I I #
point $-1 22 -102 -20 #
vertex $-1 $386 $393 #
ellipse-curve $-1 -20 -102 -20 0 -1 0 2 0 0 1 I I #
point $-1 -18 -95 -20 #
point $-1 -18 -102 -20 #
End-of-ACIS-data 