600 0 2 0           
24 FBMach with ACIS - 6.0.3 13 ACIS 6.0.3 NT 24 Wed May 23 12:27:44 2001 
1 9.9999999999999995e-007 1e-010 
body $2 $3 $-1 $4 #
bdycol-kcp $-1 1 8 $5 $6 $7 $8 $9 $10 $11 $12 #
model_id-kcp-attrib $-1 $13 $-1 $0 1 990635263 90 -1017511935 1 #
lump $-1 $-1 $14 $0 #
transform $-1 1 0 0 0 1 0 0 0 1 0 0 -65 1 rotate no_reflect no_shear #
body $15 $16 $-1 $17 #
body $18 $19 $-1 $20 #
body $21 $22 $-1 $23 #
body $24 $25 $-1 $26 #
body $27 $28 $-1 $29 #
body $30 $31 $-1 $32 #
body $33 $34 $-1 $35 #
body $36 $37 $-1 $38 #
rgb_color-st-attrib $-1 $-1 $2 $0 0 1 0 #
shell $-1 $-1 $-1 $39 $-1 $3 #
model_id-kcp-attrib $-1 $-1 $-1 $5 1 990635263 100 -1016856574 1 #
lump $-1 $-1 $40 $5 #
transform $-1 1 0 0 0 1 0 0 0 1 0 0 -15 1 no_rotate no_reflect no_shear #
rgb_color-st-attrib $-1 $41 $-1 $6 0.5 1 1 #
lump $-1 $-1 $42 $6 #
transform $-1 2.7072211888315839e-016 2.707221188831581e-016 -1 0.70710678118654713 -0.70710678118654791 0 -0.70710678118654791 -0.70710678118654713 -3.8285889215894375e-016 -24.749090894919757 -24.74909089491976 3.8283974921433596e-015 1 rotate no_reflect no_shear #
rgb_color-st-attrib $-1 $43 $-1 $7 0.5 1 1 #
lump $-1 $-1 $44 $7 #
transform $-1 -2.7072211888315824e-016 -2.7072211888315819e-016 -1 -0.70710678118654746 0.70710678118654757 0 0.70710678118654757 0.70710678118654746 -3.8285889215894375e-016 24.74909089491976 24.749090894919757 3.8283974921433565e-015 1 rotate no_reflect no_shear #
rgb_color-st-attrib $-1 $45 $-1 $8 0.5 1 1 #
lump $-1 $-1 $46 $8 #
transform $-1 3.8285889215894375e-016 -4.6885143195523885e-032 -1 -1.2246063538223773e-016 -1 0 -1 1.2246063538223773e-016 -3.8285889215894375e-016 -35.000500000000002 4.286365472658404e-015 3.8283974921433565e-015 1 rotate no_reflect no_shear #
rgb_color-st-attrib $-1 $47 $-1 $9 0.5 1 1 #
lump $-1 $-1 $48 $9 #
transform $-1 -3.8285889215894375e-016 0 -1 0 1 0 1 0 -3.8285889215894375e-016 35.000500000000002 0 3.8283974921433565e-015 1 rotate no_reflect no_shear #
rgb_color-st-attrib $-1 $49 $-1 $10 0.5 1 1 #
lump $-1 $-1 $50 $10 #
transform $-1 1 0 0 0 1 0 0 0 1 0 0 -15 1 no_rotate no_reflect no_shear #
model_id-kcp-attrib $-1 $51 $-1 $11 1 990635263 901 -1014693880 1 #
lump $-1 $-1 $52 $11 #
transform $-1 1 0 0 0 1 0 0 0 1 0 0 -15 1 no_rotate no_reflect no_shear #
model_id-kcp-attrib $-1 $53 $-1 $12 1 990635263 981 -1009450999 1 #
lump $-1 $-1 $54 $12 #
transform $-1 1 0 0 0 1 0 0 0 1 0 0 -15 1 no_rotate no_reflect no_shear #
face $55 $56 $57 $14 $-1 $58 reversed single #
shell $-1 $-1 $-1 $59 $-1 $16 #
model_id-kcp-attrib $-1 $-1 $18 $6 1 990635263 510 -1006764029 1 #
shell $-1 $-1 $-1 $60 $-1 $19 #
model_id-kcp-attrib $-1 $-1 $21 $7 1 990635263 510 -1006764028 1 #
shell $-1 $-1 $-1 $61 $-1 $22 #
model_id-kcp-attrib $-1 $-1 $24 $8 1 990635263 510 -1006764027 1 #
shell $-1 $-1 $-1 $62 $-1 $25 #
model_id-kcp-attrib $-1 $-1 $27 $9 1 990635263 520 -1022885882 1 #
shell $-1 $-1 $-1 $63 $-1 $28 #
model_id-kcp-attrib $-1 $-1 $30 $10 1 990635263 680 -1012400121 1 #
shell $-1 $-1 $-1 $64 $-1 $31 #
rgb_color-st-attrib $-1 $-1 $33 $11 1 0.5 1 #
shell $-1 $-1 $-1 $65 $-1 $34 #
rgb_color-st-attrib $-1 $-1 $36 $12 1 0.5 1 #
shell $-1 $-1 $-1 $66 $-1 $37 #
model_id-kcp-attrib $-1 $-1 $-1 $39 1 990635263 90 -1017511935 2 #
face $67 $68 $69 $14 $-1 $70 reversed single #
loop $-1 $71 $72 $39 #
cone-surface $-1 -31.819805153394647 -31.819805153394636 65 -0.70710678118654768 -0.70710678118654746 0 0 0 -4 1 I I 0 1 4 forward I I I I #
face $73 $74 $75 $40 $-1 $76 forward single #
face $-1 $77 $78 $42 $-1 $79 forward single #
face $-1 $80 $81 $44 $-1 $82 forward single #
face $-1 $83 $84 $46 $-1 $85 forward single #
face $-1 $86 $87 $48 $-1 $88 forward single #
face $-1 $89 $90 $50 $-1 $91 reversed single #
face $-1 $92 $93 $52 $-1 $94 forward single #
face $-1 $95 $96 $54 $-1 $97 forward single #
model_id-kcp-attrib $-1 $-1 $-1 $56 1 990635263 90 -1017511935 3 #
face $98 $99 $100 $14 $-1 $101 reversed single #
loop $-1 $-1 $102 $56 #
plane-surface $-1 -21.213203435596434 -21.213203435596427 65 0.70710678118654768 0.70710678118654746 0 0 0 1 forward_v I I I I #
loop $-1 $-1 $103 $39 #
coedge $-1 $72 $72 $104 $105 reversed $57 $-1 #
model_id-kcp-attrib $-1 $-1 $-1 $59 1 990635263 100 -1016856574 2 #
face $106 $107 $108 $40 $-1 $109 reversed single #
loop $-1 $-1 $110 $59 #
plane-surface $-1 0 0 55 0 0 1 1 0 0 forward_v I I I I #
face $-1 $111 $112 $42 $-1 $113 forward single #
loop $-1 $114 $115 $60 #
cone-surface $-1 0 0 0 0 0 1 4 0 0 1 I I 0 1 4 forward I I I I #
face $-1 $116 $117 $44 $-1 $118 forward single #
loop $-1 $119 $120 $61 #
cone-surface $-1 0 0 0 0 0 1 4 0 0 1 I I 0 1 4 forward I I I I #
face $-1 $121 $122 $46 $-1 $123 forward single #
loop $-1 $124 $125 $62 #
cone-surface $-1 0 0 0 0 0 1 4 0 0 1 I I 0 1 4 forward I I I I #
face $-1 $126 $127 $48 $-1 $128 forward single #
loop $-1 $129 $130 $63 #
cone-surface $-1 0 0 0 0 0 1 4 0 0 1 I I 0 1 4 forward I I I I #
face $-1 $131 $132 $50 $-1 $91 reversed single #
loop $-1 $-1 $133 $64 #
cone-surface $-1 0 -4.8849813083506888e-015 55 0 0 1 39.799497484264798 4.0000000000000053 0 1 I I 0 1 40 forward I I I I #
face $-1 $134 $135 $52 $-1 $136 forward single #
loop $-1 $137 $138 $65 #
cone-surface $-1 0 0 -45 0 0 -1 10 0 0 1 I I 0 -1 10 forward I I I I #
face $-1 $139 $140 $54 $-1 $141 forward single #
loop $-1 $142 $143 $66 #
cone-surface $-1 0 0 -5 0 0 -1 30 0 0 1 I I 0 -1 30 forward I I I I #
model_id-kcp-attrib $-1 $-1 $-1 $68 1 990635263 90 -1017511935 4 #
face $144 $145 $146 $14 $-1 $147 reversed single #
loop $-1 $148 $149 $68 #
cone-surface $-1 -45 5.5109105961630896e-015 65 -1 1.2246467991473532e-016 0 0 0 -4 1 I I 0 1 4 forward I I I I #
coedge $-1 $102 $102 $103 $150 reversed $69 $-1 #
coedge $-1 $103 $103 $102 $150 forward $71 $-1 #
coedge $-1 $104 $104 $72 $105 forward $151 $-1 #
edge $152 $153 0 $153 24.125259551601495 $104 $154 forward 7 unknown #
model_id-kcp-attrib $-1 $-1 $-1 $74 1 990635263 100 -1016856574 3 #
face $-1 $155 $156 $40 $-1 $157 reversed single #
loop $-1 $-1 $158 $74 #
plane-surface $-1 0 0 -55 0 0 1 1 0 0 forward_v I I I I #
coedge $-1 $159 $160 $161 $162 forward $75 $-1 #
face $-1 $-1 $163 $42 $-1 $164 forward single #
loop $-1 $-1 $165 $77 #
plane-surface $-1 0 0 -5.0004999999999988 0 0 -1 -1 0 0 forward_v I I I I #
loop $-1 $-1 $166 $60 #
coedge $-1 $115 $115 $165 $167 reversed $78 $-1 #
face $-1 $-1 $168 $44 $-1 $169 forward single #
loop $-1 $-1 $170 $80 #
plane-surface $-1 0 0 -5.0004999999999971 0 0 -1 -1 0 0 forward_v I I I I #
loop $-1 $-1 $171 $61 #
coedge $-1 $120 $120 $170 $172 reversed $81 $-1 #
face $-1 $-1 $173 $46 $-1 $174 forward single #
loop $-1 $-1 $175 $83 #
plane-surface $-1 0 0 -5.0005000000000024 0 0 -1 -1 0 0 forward_v I I I I #
loop $-1 $-1 $176 $62 #
coedge $-1 $125 $125 $175 $177 reversed $84 $-1 #
face $-1 $-1 $178 $48 $-1 $179 forward single #
loop $-1 $-1 $180 $86 #
plane-surface $-1 0 0 -5.0005000000000024 0 0 -1 -1 0 0 forward_v I I I I #
loop $-1 $-1 $181 $63 #
coedge $-1 $130 $130 $180 $182 reversed $87 $-1 #
face $-1 $183 $184 $50 $-1 $185 reversed single #
loop $-1 $-1 $186 $89 #
coedge $-1 $187 $188 $189 $190 reversed $90 $-1 #
face $-1 $191 $192 $52 $-1 $193 reversed single #
loop $-1 $194 $195 $92 #
cone-surface $-1 0 -4.8849813083506888e-015 -45 0 0 -1 39.799497484264798 4.0000000000000053 0 1 I I 0 1 40 forward I I I I #
loop $-1 $-1 $196 $65 #
coedge $-1 $138 $138 $197 $198 forward $93 $-1 #
face $-1 $199 $200 $54 $-1 $201 reversed single #
loop $-1 $202 $203 $95 #
cone-surface $-1 0 -4.8849813083506888e-015 -5 0 0 -1 39.799497484264798 4.0000000000000053 0 1 I I 0 1 40 forward I I I I #
loop $-1 $-1 $204 $66 #
coedge $-1 $143 $143 $205 $206 forward $96 $-1 #
model_id-kcp-attrib $-1 $-1 $-1 $99 1 990635263 90 -1017511935 5 #
face $207 $208 $209 $14 $-1 $210 reversed single #
loop $-1 $-1 $211 $99 #
plane-surface $-1 -30 3.6739403974420592e-015 65 1 -1.2246467991473532e-016 0 0 0 1 forward_v I I I I #
loop $-1 $-1 $212 $68 #
coedge $-1 $149 $149 $213 $214 reversed $100 $-1 #
edge $215 $216 0 $216 6.2831853071795862 $102 $217 forward 7 unknown #
loop $-1 $218 $104 $219 #
attrib_edge_convexity-kcp-attrib $-1 $220 $-1 $105 1 #
vertex $-1 $105 $221 #
intcurve-curve $-1 forward { surfintcur full nubs 3 periodic 33 
	0 3 0.7539156440605963 2 1.5078312881211926 2 2.2617469321817891 2 3.0156625762423852 2 
	3.7695756541568834 2 4.5234887320713817 2 5.2774018099858795 2 6.0313148879003773 2 6.7852279658148742 2 
	7.539141043729372 2 8.2930541216438698 2 9.0469671995583667 2 9.8008828436189628 2 10.554798487679559 2 
	11.308714131740157 2 12.062629775800753 2 12.816545419861349 2 13.570461063921943 2 14.324376707982537 2 
	15.078292352043132 2 15.83220542995763 2 16.586118507872129 2 17.340031585786626 2 18.093944663701123 2 
	18.84785774161562 2 19.60177081953012 2 20.355683897444621 2 21.109596975359118 2 21.863512619419712 2 
	22.617428263480306 2 23.371343907540901 2 24.125259551601495 3 
	-25.314067434194392 -30.970921683686761 65 
	-25.314067434194392 -30.970921683686761 64.748694785313134 
	-25.332811545702953 -30.95563357464345 64.488859728380319 
	-25.411511579715285 -30.891061329313573 63.972091719574458 
	-25.471447004869731 -30.841788169429542 63.715154274828777 
	-25.629203440320332 -30.710819606996136 63.222445690392149 
	-25.727137588883739 -30.629007496340179 62.986278953336971 
	-25.952078499604379 -30.43864862766176 62.549575344540337 
	-26.079080802012022 -30.330070900318269 62.34904967577684 
	-26.347862659216609 -30.09687341521979 61.994096678818778 
	-26.49885882976303 -29.964283859206297 61.827516507259524 
	-26.824913330501733 -29.672745934372234 61.533854942527505 
	-26.999946253717575 -29.513787998450113 61.4067548386518 
	-27.361690926181517 -29.178736253970762 61.20259508286852 
	-27.548681001656497 -29.002361319521281 61.125372927724122 
	-27.921122331711388 -28.643982173865094 61.024064260227739 
	-28.106572230855722 -28.461970264068082 61 
	-28.461970264068096 -28.106572230855708 61 
	-28.643982173865101 -27.921122331711381 61.024064260227746 
	-29.002361319521285 -27.54868100165649 61.125372927724115 
	-29.178736253970769 -27.361690926181506 61.202595082868513 
	-29.513787998450116 -26.999946253717564 61.4067548386518 
	-29.672745934372237 -26.824913330501719 61.533854942527505 
	-29.964283859206304 -26.498858829763016 61.827516507259531 
	-30.096873415219804 -26.347862659216595 61.994096678818778 
	-30.330070900318283 -26.079080802012005 62.34904967577684 
	-30.438648627661763 -25.952078499604372 62.549575344540337 
	-30.629007496340179 -25.727137588883732 62.986278953336971 
	-30.710819606996139 -25.629203440320325 63.222445690392149 
	-30.841788169429549 -25.471447004869717 63.71515427482877 
	-30.891061329313587 -25.411511579715274 63.972091719574479 
	-30.955633574643461 -25.332811545702942 64.488859728380348 
	-30.970921683686775 -25.314067434194378 64.748694785313134 
	-30.970921683686775 -25.314067434194378 65.251305214686866 
	-30.955633574643461 -25.332811545702942 65.511140271619652 
	-30.89106132931359 -25.41151157971527 66.027908280425507 
	-30.841788169429549 -25.471447004869702 66.284845725171195 
	-30.710819606996147 -25.629203440320303 66.777554309607822 
	-30.62900749634019 -25.727137588883725 67.013721046663008 
	-30.438648627661767 -25.952078499604365 67.450424655459656 
	-30.330070900318283 -26.079080802012008 67.650950324223146 
	-30.096873415219804 -26.347862659216595 68.005903321181222 
	-29.964283859206297 -26.498858829763016 68.172483492740469 
	-29.672745934372234 -26.824913330501719 68.466145057472488 
	-29.513787998450127 -26.99994625371756 68.593245161348207 
	-29.178736253970779 -27.361690926181506 68.797404917131487 
	-29.002361319521292 -27.54868100165648 68.874627072275899 
	-28.643982173865105 -27.92112233171137 68.975935739772268 
	-28.461970264068096 -28.106572230855708 69 
	-28.106572230855722 -28.461970264068079 69 
	-27.921122331711388 -28.643982173865094 68.975935739772268 
	-27.548681001656497 -29.002361319521281 68.874627072275899 
	-27.361690926181517 -29.178736253970762 68.797404917131487 
	-26.999946253717571 -29.513787998450113 68.593245161348207 
	-26.824913330501733 -29.67274593437223 68.466145057472488 
	-26.49885882976303 -29.964283859206294 68.172483492740469 
	-26.347862659216609 -30.09687341521979 68.005903321181222 
	-26.079080802012022 -30.330070900318269 67.650950324223146 
	-25.952078499604376 -30.43864862766176 67.450424655459656 
	-25.727137588883739 -30.629007496340172 67.013721046663036 
	-25.629203440320335 -30.710819606996132 66.777554309607865 
	-25.471447004869727 -30.841788169429535 66.284845725171238 
	-25.411511579715285 -30.891061329313565 66.027908280425564 
	-25.332811545702949 -30.955633574643443 65.511140271619695 
	-25.314067434194392 -30.970921683686761 65.251305214686866 
	-25.314067434194392 -30.970921683686761 65 
	0.001 
	cone -31.819805153394647 -31.819805153394636 65 -0.70710678118654768 -0.70710678118654746 0 0 0 -4 1 I I 0 1 4 forward I I I I 
	cone 0 0 65 0 0 1 40 0 0 1 I I 0 1 40 forward I I I I 
	nullbs 
	nullbs 
	I I 
	0 
	0 
	0 
	} I I #
face $-1 $222 $223 $40 $-1 $224 reversed single #
loop $-1 $-1 $225 $107 #
plane-surface $-1 0 -40 0 0 1 0 0 0 1 forward_v I I I I #
coedge $-1 $226 $227 $228 $229 forward $108 $-1 #
coedge $-1 $230 $110 $231 $232 forward $75 $-1 #
coedge $-1 $110 $230 $233 $234 forward $75 $-1 #
coedge $-1 $235 $236 $110 $162 reversed $237 $-1 #
edge $-1 $238 -40 $239 40 $161 $240 forward 7 unknown #
loop $-1 $-1 $241 $111 #
plane-surface $-1 0 0 5.0004999999999988 0 0 1 1 0 0 forward_v I I I I #
coedge $-1 $165 $165 $115 $167 forward $112 $-1 #
coedge $-1 $166 $166 $241 $242 reversed $114 $-1 #
edge $-1 $243 0 $243 6.2831853071795862 $165 $244 forward 7 unknown #
loop $-1 $-1 $245 $116 #
plane-surface $-1 0 0 5.0004999999999971 0 0 1 1 0 0 forward_v I I I I #
coedge $-1 $170 $170 $120 $172 forward $117 $-1 #
coedge $-1 $171 $171 $245 $246 reversed $119 $-1 #
edge $-1 $247 0 $247 6.2831853071795862 $170 $248 forward 7 unknown #
loop $-1 $-1 $249 $121 #
plane-surface $-1 0 0 5.0005000000000024 0 0 1 1 0 0 forward_v I I I I #
coedge $-1 $175 $175 $125 $177 forward $122 $-1 #
coedge $-1 $176 $176 $249 $250 reversed $124 $-1 #
edge $-1 $251 0 $251 6.2831853071795862 $175 $252 forward 7 unknown #
loop $-1 $-1 $253 $126 #
plane-surface $-1 0 0 5.0005000000000024 0 0 1 1 0 0 forward_v I I I I #
coedge $-1 $180 $180 $130 $182 forward $127 $-1 #
coedge $-1 $181 $181 $253 $254 reversed $129 $-1 #
edge $-1 $255 0 $255 6.2831853071795862 $180 $256 forward 7 unknown #
face $-1 $257 $258 $50 $-1 $259 forward single #
loop $-1 $-1 $260 $131 #
plane-surface $-1 0 -40 0 0 1 0 0 0 1 forward_v I I I I #
coedge $-1 $261 $262 $263 $264 reversed $132 $-1 #
coedge $-1 $265 $133 $262 $266 forward $90 $-1 #
coedge $-1 $133 $265 $267 $268 reversed $90 $-1 #
coedge $-1 $269 $270 $133 $190 forward $271 $-1 #
edge $-1 $272 1.4706289056333366 $273 4.6122215592231299 $189 $274 forward 7 unknown #
face $-1 $-1 $275 $52 $-1 $276 forward single #
loop $-1 $277 $278 $134 #
plane-surface $-1 -2.7126907261283479 -0.29090909090909345 -55 0 0 1 1 0 0 forward_v I I I I #
loop $-1 $-1 $279 $92 #
coedge $-1 $195 $195 $278 $280 forward $135 $-1 #
coedge $-1 $196 $196 $281 $282 reversed $137 $-1 #
coedge $-1 $197 $197 $138 $198 reversed $277 $-1 #
edge $-1 $283 0 $283 6.2831853071795862 $138 $284 forward 7 unknown #
face $-1 $-1 $285 $54 $-1 $286 forward single #
loop $-1 $287 $288 $139 #
plane-surface $-1 -0.89867519398778106 -0.20779220779220903 -45 0 0 1 1 0 0 forward_v I I I I #
loop $-1 $-1 $289 $95 #
coedge $-1 $203 $203 $288 $290 forward $140 $-1 #
coedge $-1 $204 $204 $291 $292 reversed $142 $-1 #
coedge $-1 $205 $205 $143 $206 reversed $287 $-1 #
edge $-1 $293 0 $293 6.2831853071795862 $143 $294 forward 7 unknown #
model_id-kcp-attrib $-1 $-1 $-1 $145 1 990635263 90 -1017511935 6 #
face $295 $296 $297 $14 $-1 $298 reversed single #
loop $-1 $299 $300 $145 #
cone-surface $-1 31.81980515339464 31.819805153394636 65 0.70710678118654757 0.70710678118654746 0 0 0 -4 1 I I 0 1 4 forward I I I I #
coedge $-1 $211 $211 $212 $301 reversed $146 $-1 #
coedge $-1 $212 $212 $211 $301 forward $148 $-1 #
coedge $-1 $213 $213 $149 $214 forward $218 $-1 #
edge $302 $303 0 $303 24.125259551601488 $213 $304 forward 7 unknown #
attrib_edge_convexity-kcp-attrib $-1 $305 $-1 $150 2 #
vertex $-1 $150 $306 #
ellipse-curve $-1 -21.213203435596434 -21.213203435596427 65 0.70710678118654768 0.70710678118654746 0 0 0 -4 1 I I #
loop $-1 $307 $213 $219 #
face $308 $309 $151 $14 $-1 $310 forward single #
convexity-sys-attrib $-1 $-1 $152 $105 #
point $-1 -25.314067434194392 -30.970921683686761 65 #
face $-1 $311 $312 $40 $-1 $313 reversed single #
loop $-1 $-1 $314 $155 #
plane-surface $-1 -40.000999999999998 0 0 1 0 0 0 0 -1 forward_v I I I I #
coedge $-1 $315 $233 $316 $317 forward $156 $-1 #
coedge $-1 $318 $158 $315 $319 forward $108 $-1 #
coedge $-1 $158 $318 $320 $321 forward $108 $-1 #
coedge $-1 $236 $235 $158 $229 reversed $237 $-1 #
edge $-1 $322 -40 $323 40 $228 $324 forward 7 unknown #
coedge $-1 $160 $159 $325 $326 forward $75 $-1 #
coedge $-1 $327 $328 $159 $232 reversed $312 $-1 #
edge $-1 $239 -40.000999999999998 $329 40.000999999999998 $231 $330 forward 7 unknown #
coedge $-1 $225 $331 $160 $234 reversed $156 $-1 #
edge $-1 $332 -40.000999999999998 $238 40.000999999999998 $233 $333 forward 7 unknown #
coedge $-1 $228 $161 $331 $334 forward $237 $-1 #
coedge $-1 $161 $228 $327 $335 reversed $237 $-1 #
loop $-1 $-1 $235 $311 #
vertex $-1 $162 $336 #
vertex $-1 $162 $337 #
straight-curve $-1 40.000999999999998 0 55 0 1 0 I I #
coedge $-1 $241 $241 $166 $242 forward $163 $-1 #
edge $-1 $338 0 $338 6.2831853071795862 $241 $339 forward 7 unknown #
vertex $-1 $167 $340 #
ellipse-curve $-1 0 0 -5.0004999999999988 0 0 -1 4 0 0 1 I I #
coedge $-1 $245 $245 $171 $246 forward $168 $-1 #
edge $-1 $341 0 $341 6.2831853071795862 $245 $342 forward 7 unknown #
vertex $-1 $172 $343 #
ellipse-curve $-1 0 0 -5.0004999999999971 0 0 -1 4 0 0 1 I I #
coedge $-1 $249 $249 $176 $250 forward $173 $-1 #
edge $-1 $344 0 $344 6.2831853071795862 $249 $345 forward 7 unknown #
vertex $-1 $177 $346 #
ellipse-curve $-1 0 0 -5.0005000000000024 0 0 -1 4 0 0 1 I I #
coedge $-1 $253 $253 $181 $254 forward $178 $-1 #
edge $-1 $347 0 $347 6.2831853071795862 $253 $348 forward 7 unknown #
vertex $-1 $182 $349 #
ellipse-curve $-1 0 0 -5.0005000000000024 0 0 -1 4 0 0 1 I I #
face $-1 $350 $351 $50 $-1 $259 forward single #
loop $-1 $-1 $352 $183 #
plane-surface $-1 0 0 55 0 0 1 1 0 0 forward_v I I I I #
coedge $-1 $353 $354 $261 $268 reversed $184 $-1 #
coedge $-1 $355 $186 $188 $268 forward $132 $-1 #
coedge $-1 $186 $355 $356 $266 reversed $132 $-1 #
coedge $-1 $357 $358 $186 $264 forward $359 $-1 #
edge $-1 $273 -1.6709637479564565 $272 1.4706289056333366 $263 $274 forward 7 unknown #
coedge $-1 $188 $187 $360 $361 reversed $90 $-1 #
edge $-1 $272 -110 $362 0 $356 $363 forward 7 unknown #
coedge $-1 $364 $365 $260 $268 forward $366 $-1 #
edge $-1 $273 -110 $367 0 $267 $368 forward 7 unknown #
coedge $-1 $369 $189 $365 $370 forward $271 $-1 #
coedge $-1 $189 $369 $371 $372 forward $271 $-1 #
loop $-1 $-1 $189 $373 #
vertex $-1 $374 $375 #
vertex $-1 $370 $376 #
ellipse-curve $-1 0 -4.8849813083506888e-015 -55 0 0 1 39.799497484264798 4.0000000000000053 0 1 I I #
loop $-1 $377 $378 $191 #
plane-surface $-1 -2.7126907261283479 -0.29090909090909345 -45 0 0 1 1 0 0 forward_v I I I I #
loop $-1 $-1 $197 $134 #
coedge $-1 $278 $278 $195 $280 reversed $192 $-1 #
coedge $-1 $279 $279 $378 $379 reversed $194 $-1 #
edge $-1 $380 -3.1415926535897931 $380 3.1415926535897931 $195 $381 forward 7 unknown #
coedge $-1 $281 $281 $196 $282 forward $377 $-1 #
edge $-1 $382 0 $382 6.2831853071795862 $196 $383 forward 7 unknown #
vertex $-1 $198 $384 #
ellipse-curve $-1 0 0 -55 0 0 -1 10 0 0 1 I I #
loop $-1 $385 $386 $199 #
plane-surface $-1 -0.89867519398778106 -0.20779220779220903 -5 0 0 1 1 0 0 forward_v I I I I #
loop $-1 $-1 $205 $139 #
coedge $-1 $288 $288 $203 $290 reversed $200 $-1 #
coedge $-1 $289 $289 $386 $387 reversed $202 $-1 #
edge $-1 $388 -3.1415926535897931 $388 3.1415926535897931 $203 $389 forward 7 unknown #
coedge $-1 $291 $291 $204 $292 forward $385 $-1 #
edge $-1 $390 0 $390 6.2831853071795862 $204 $391 forward 7 unknown #
vertex $-1 $206 $392 #
ellipse-curve $-1 0 0 -45 0 0 -1 30 0 0 1 I I #
model_id-kcp-attrib $-1 $-1 $-1 $208 1 990635263 90 -1017511935 7 #
face $393 $394 $395 $14 $-1 $396 reversed single #
loop $-1 $-1 $397 $208 #
plane-surface $-1 21.213203435596427 21.213203435596427 65 -0.70710678118654757 -0.70710678118654746 0 0 0 1 forward_v I I I I #
loop $-1 $-1 $398 $145 #
coedge $-1 $300 $300 $399 $400 reversed $209 $-1 #
edge $401 $402 0 $402 6.2831853071795862 $211 $403 forward 7 unknown #
attrib_edge_convexity-kcp-attrib $-1 $404 $-1 $214 1 #
vertex $-1 $214 $405 #
intcurve-curve $-1 forward { surfintcur full nubs 3 periodic 33 
	0 3 0.75391564406059652 2 1.507831288121193 2 2.2617469321817896 2 3.0156625762423861 2 
	3.769575654156883 2 4.5234887320713799 2 5.2774018099858768 2 6.0313148879003737 2 6.7852279658148706 2 
	7.5391410437293676 2 8.2930541216438645 2 9.0469671995583614 2 9.8008828436189575 2 10.554798487679555 2 
	11.308714131740151 2 12.062629775800747 2 12.816545419861342 2 13.570461063921936 2 14.32437670798253 2 
	15.078292352043126 2 15.832205429957625 2 16.586118507872122 2 17.340031585786619 2 18.093944663701119 2 
	18.84785774161562 2 19.601770819530117 2 20.355683897444614 2 21.109596975359111 2 21.863512619419705 2 
	22.617428263480299 2 23.371343907540894 2 24.125259551601488 3 
	-39.799497484264798 -3.9999999999999951 65 
	-39.799497484264798 -3.9999999999999951 64.748694785313134 
	-39.801941247043779 -3.9759355860689296 64.488859728380319 
	-39.811931102224314 -3.8746267857900007 63.972091719574458 
	-39.819470462299819 -3.797404654745506 63.715154274828777 
	-39.838412348963843 -3.5932452508436512 63.222445690392149 
	-39.849812351294759 -3.4661454520567192 62.986278953336971 
	-39.87426554773009 -3.1724841618183652 62.549575344540337 
	-39.887293689698424 -3.0059039252692212 62.34904967577684 
	-39.912455640518921 -2.6509509283111568 61.994096678818778 
	-39.925471082473841 -2.4504255380129254 61.827516507259524 
	-39.949877987359351 -2.0137217458809737 61.533854942527505 
	-39.961244719882231 -1.7775545445302003 61.4067548386518 
	-39.980119470269869 -1.28484507300311 61.20259508286852 
	-39.987625508472242 -1.0279072104396079 61.125372927724122 
	-39.997568974418861 -0.51113909623432918 61.024064260227739 
	-40 -0.25130435930482742 61 
	-40 0.25130435930483719 61 
	-39.997568974418861 0.51113909623433895 61.024064260227739 
	-39.987625508472242 1.0279072104396176 61.125372927724122 
	-39.980119470269869 1.2848450730031198 61.20259508286852 
	-39.961244719882231 1.7775545445302101 61.4067548386518 
	-39.949877987359351 2.0137217458809835 61.533854942527505 
	-39.925471082473841 2.4504255380129352 61.827516507259524 
	-39.912455640518921 2.6509509283111665 61.994096678818778 
	-39.887293689698424 3.0059039252692306 62.349049675776847 
	-39.87426554773009 3.1724841618183839 62.549575344540344 
	-39.849812351294759 3.466145452056733 62.986278953336971 
	-39.838412348963843 3.593245250843657 63.222445690392149 
	-39.819470462299819 3.7974046547455127 63.715154274828762 
	-39.811931102224314 3.874626785790011 63.972091719574458 
	-39.801941247043779 3.9759355860689416 64.488859728380334 
	-39.799497484264798 4.0000000000000044 64.748694785313134 
	-39.799497484264791 4.0000000000000036 65.251305214686866 
	-39.801941247043771 3.975935586068942 65.511140271619666 
	-39.811931102224307 3.8746267857900132 66.027908280425535 
	-39.819470462299819 3.7974046547455211 66.284845725171209 
	-39.838412348963843 3.5932452508436681 66.777554309607837 
	-39.849812351294759 3.4661454520567379 67.013721046663036 
	-39.87426554773009 3.1724841618183834 67.450424655459656 
	-39.887293689698424 3.005903925269231 67.650950324223146 
	-39.912455640518921 2.6509509283111665 68.005903321181208 
	-39.925471082473841 2.4504255380129392 68.172483492740454 
	-39.949877987359351 2.0137217458809937 68.466145057472474 
	-39.961244719882217 1.777554544530217 68.593245161348207 
	-39.980119470269848 1.2848450730031264 68.797404917131487 
	-39.987625508472235 1.0279072104396221 68.874627072275899 
	-39.997568974418854 0.51113909623434095 68.975935739772268 
	-40 0.25130435930483869 69 
	-40 -0.25130435930482814 69 
	-39.997568974418861 -0.5111390962343294 68.975935739772268 
	-39.987625508472242 -1.0279072104396088 68.874627072275899 
	-39.980119470269869 -1.2848450730031122 68.797404917131487 
	-39.961244719882231 -1.777554544530203 68.593245161348207 
	-39.949877987359351 -2.0137217458809826 68.466145057472474 
	-39.925471082473841 -2.4504255380129298 68.172483492740454 
	-39.912455640518921 -2.6509509283111568 68.005903321181208 
	-39.887293689698424 -3.0059039252692203 67.650950324223146 
	-39.87426554773009 -3.1724841618183728 67.450424655459656 
	-39.849812351294759 -3.4661454520567263 67.013721046663036 
	-39.838412348963843 -3.5932452508436517 66.777554309607837 
	-39.819470462299819 -3.7974046547455065 66.284845725171238 
	-39.811931102224314 -3.8746267857900007 66.027908280425549 
	-39.801941247043779 -3.9759355860689296 65.511140271619681 
	-39.799497484264798 -3.9999999999999951 65.251305214686866 
	-39.799497484264798 -3.9999999999999951 65 
	0.001 
	cone -45 5.5109105961630896e-015 65 -1 1.2246467991473532e-016 0 0 0 -4 1 I I 0 1 4 forward I I I I 
	cone 0 0 65 0 0 1 40 0 0 1 I I 0 1 40 forward I I I I 
	nullbs 
	nullbs 
	I I 
	0 
	0 
	0 
	} I I #
convexity-sys-attrib $-1 $-1 $215 $150 #
point $-1 -21.213203435596434 -21.213203435596427 61 #
loop $-1 $406 $399 $219 #
model_id-kcp-attrib $-1 $-1 $-1 $219 1 990635263 90 -1017511935 14 #
face $407 $408 $409 $14 $-1 $410 forward single #
cone-surface $-1 0 0 65 0 0 1 40 0 0 1 I I 0 1 40 forward I I I I #
face $-1 $-1 $237 $40 $-1 $411 reversed single #
loop $-1 $-1 $327 $222 #
plane-surface $-1 0 40 0 0 -1 0 0 0 -1 forward_v I I I I #
coedge $-1 $412 $325 $328 $413 forward $223 $-1 #
coedge $-1 $331 $225 $226 $319 reversed $156 $-1 #
coedge $-1 $325 $412 $225 $317 reversed $223 $-1 #
edge $-1 $332 -55 $414 55 $316 $415 forward 7 unknown #
coedge $-1 $227 $226 $412 $416 forward $108 $-1 #
edge $-1 $323 -40.000999999999998 $414 40.000999999999998 $315 $417 forward 7 unknown #
coedge $-1 $328 $327 $227 $321 reversed $312 $-1 #
edge $-1 $418 -40.000999999999998 $322 40.000999999999998 $320 $419 forward 7 unknown #
vertex $-1 $229 $420 #
vertex $-1 $334 $421 #
straight-curve $-1 40.000999999999998 0 -55 0 -1 0 I I #
coedge $-1 $314 $316 $230 $326 reversed $223 $-1 #
edge $-1 $329 -40 $332 40 $325 $422 forward 7 unknown #
coedge $-1 $320 $231 $236 $335 forward $312 $-1 #
coedge $-1 $231 $320 $314 $413 reversed $312 $-1 #
vertex $-1 $232 $423 #
straight-curve $-1 0 40 55 -1 0 0 I I #
coedge $-1 $233 $315 $235 $334 reversed $156 $-1 #
vertex $-1 $326 $424 #
straight-curve $-1 0 -40 55 1 0 0 I I #
edge $-1 $238 -55 $323 55 $235 $425 forward 7 unknown #
edge $-1 $239 -55 $322 55 $236 $426 forward 7 unknown #
point $-1 40.000999999999998 -40 55 #
point $-1 40.000999999999998 40 55 #
vertex $-1 $242 $427 #
ellipse-curve $-1 0 0 5.0004999999999988 0 0 1 4 0 0 1 I I #
point $-1 4 0 -5.0004999999999988 #
vertex $-1 $246 $428 #
ellipse-curve $-1 0 0 5.0004999999999971 0 0 1 4 0 0 1 I I #
point $-1 4 0 -5.0004999999999971 #
vertex $-1 $250 $429 #
ellipse-curve $-1 0 0 5.0005000000000024 0 0 1 4 0 0 1 I I #
point $-1 4 0 -5.0005000000000024 #
vertex $-1 $254 $430 #
ellipse-curve $-1 0 0 5.0005000000000024 0 0 1 4 0 0 1 I I #
point $-1 4 0 -5.0005000000000024 #
face $-1 $431 $432 $50 $-1 $433 reversed single #
loop $-1 $-1 $360 $257 #
coedge $-1 $434 $435 $355 $436 forward $258 $-1 #
coedge $-1 $437 $260 $358 $438 reversed $184 $-1 #
coedge $-1 $260 $437 $434 $439 reversed $184 $-1 #
coedge $-1 $262 $261 $352 $436 reversed $132 $-1 #
coedge $-1 $440 $441 $442 $266 forward $443 $-1 #
coedge $-1 $444 $263 $441 $374 forward $359 $-1 #
coedge $-1 $263 $444 $353 $438 forward $359 $-1 #
loop $-1 $-1 $263 $431 #
coedge $-1 $445 $446 $265 $361 forward $351 $-1 #
edge $-1 $367 1.6709637479564565 $362 4.8125564015462494 $360 $447 forward 7 unknown #
vertex $-1 $448 $449 #
straight-curve $-1 0 40 55 0 0 1 I I #
coedge $-1 $450 $267 $446 $451 reversed $366 $-1 #
coedge $-1 $267 $450 $269 $370 reversed $366 $-1 #
loop $-1 $-1 $267 $452 #
vertex $-1 $439 $453 #
straight-curve $-1 0 -40 55 0 0 1 I I #
coedge $-1 $270 $269 $454 $455 forward $271 $-1 #
edge $-1 $273 0 $456 40.000999999999998 $365 $457 forward 7 unknown #
coedge $-1 $458 $442 $270 $372 reversed $432 $-1 #
edge $-1 $459 -40.000999999999998 $272 0 $371 $460 forward 7 unknown #
face $-1 $452 $271 $50 $-1 $461 reversed single #
edge $-1 $272 0 $462 40.000999999999998 $441 $460 forward 7 unknown #
point $-1 0 40 -55 #
point $-1 0 -40 -55 #
loop $-1 $-1 $281 $191 #
coedge $-1 $378 $378 $279 $379 forward $275 $-1 #
edge $463 $464 -3.1415926535897931 $464 3.1415926535897931 $279 $465 forward 7 unknown #
vertex $-1 $280 $466 #
ellipse-curve $-1 0 -4.8849813083506888e-015 -55 0 0 1 39.799497484264798 4.0000000000000053 0 1 I I #
vertex $-1 $282 $467 #
ellipse-curve $-1 0 0 -45 0 0 -1 10 0 0 1 I I #
point $-1 10 0 -55 #
loop $-1 $-1 $291 $199 #
coedge $-1 $386 $386 $289 $387 forward $285 $-1 #
edge $468 $469 -3.1415926535897931 $469 3.1415926535897931 $289 $470 forward 7 unknown #
vertex $-1 $290 $471 #
ellipse-curve $-1 0 -4.8849813083506888e-015 -45 0 0 1 39.799497484264798 4.0000000000000053 0 1 I I #
vertex $-1 $292 $472 #
ellipse-curve $-1 0 0 -5 0 0 -1 30 0 0 1 I I #
point $-1 30.000000000000007 0 -45 #
model_id-kcp-attrib $-1 $-1 $-1 $296 1 990635263 90 -1017511935 8 #
face $473 $474 $475 $14 $-1 $476 reversed single #
loop $-1 $477 $478 $296 #
cone-surface $-1 45 0 65 1 0 0 0 0 -4 1 I I 0 1 4 forward I I I I #
coedge $-1 $397 $397 $398 $479 reversed $297 $-1 #
coedge $-1 $398 $398 $397 $479 forward $299 $-1 #
coedge $-1 $399 $399 $300 $400 forward $307 $-1 #
edge $480 $481 0 $481 24.125259551601488 $399 $482 forward 7 unknown #
attrib_edge_convexity-kcp-attrib $-1 $483 $-1 $301 2 #
vertex $-1 $301 $484 #
ellipse-curve $-1 -30 3.6739403974420592e-015 65 1 -1.2246467991473532e-016 0 0 0 -4 1 I I #
convexity-sys-attrib $-1 $-1 $302 $214 #
point $-1 -39.799497484264798 -3.9999999999999951 65 #
loop $-1 $485 $486 $219 #
model_id-kcp-attrib $-1 $-1 $-1 $309 1 990635263 90 -1017511935 15 #
face $487 $488 $489 $14 $-1 $490 forward single #
loop $-1 $491 $492 $309 #
plane-surface $-1 0 0 85 0 0 1 1 0 0 forward_v I I I I #
plane-surface $-1 40.000999999999998 0 0 -1 0 0 0 0 1 forward_v I I I I #
coedge $-1 $316 $314 $318 $416 reversed $223 $-1 #
edge $-1 $329 -55 $418 55 $328 $493 forward 7 unknown #
vertex $-1 $416 $494 #
straight-curve $-1 -40.000999999999998 -40 0 0 0 -1 I I #
edge $-1 $414 -40 $418 40 $412 $495 forward 7 unknown #
straight-curve $-1 0 -40 -55 -1 0 0 I I #
vertex $-1 $321 $496 #
straight-curve $-1 0 40 -55 1 0 0 I I #
point $-1 40.000999999999998 40 -55 #
point $-1 40.000999999999998 -40 -55 #
straight-curve $-1 -40.000999999999998 0 55 0 -1 0 I I #
point $-1 -40.000999999999998 40 55 #
point $-1 -40.000999999999998 -40 55 #
straight-curve $-1 40.000999999999998 -40 0 0 0 -1 I I #
straight-curve $-1 40.000999999999998 40 0 0 0 -1 I I #
point $-1 4 0 5.0004999999999988 #
point $-1 4 0 5.0004999999999971 #
point $-1 4 0 5.0005000000000024 #
point $-1 4 0 5.0005000000000024 #
face $-1 $373 $359 $50 $-1 $461 reversed single #
loop $-1 $-1 $442 $350 #
plane-surface $-1 0 40 0 0 -1 0 0 0 -1 forward_v I I I I #
coedge $-1 $497 $352 $354 $439 forward $258 $-1 #
coedge $-1 $352 $497 $440 $498 forward $258 $-1 #
edge $-1 $362 -1.4706289056333366 $367 1.6709637479564565 $352 $447 forward 7 unknown #
coedge $-1 $354 $353 $499 $500 reversed $184 $-1 #
edge $-1 $501 -40.000999999999998 $273 0 $353 $457 forward 7 unknown #
edge $-1 $367 0 $502 40.000999999999998 $354 $503 forward 7 unknown #
coedge $-1 $504 $356 $435 $498 reversed $443 $-1 #
coedge $-1 $356 $504 $357 $374 reversed $443 $-1 #
coedge $-1 $371 $505 $187 $266 reversed $432 $-1 #
loop $-1 $-1 $356 $506 #
coedge $-1 $358 $357 $507 $508 forward $359 $-1 #
coedge $-1 $509 $360 $505 $448 forward $351 $-1 #
coedge $-1 $360 $509 $364 $451 forward $351 $-1 #
ellipse-curve $-1 0 -4.8849813083506888e-015 55 0 0 -1 39.799497484264798 4.0000000000000053 0 1 I I #
edge $-1 $362 0 $510 40.000999999999998 $505 $511 forward 7 unknown #
point $-1 0 40 55 #
coedge $-1 $365 $364 $512 $513 forward $366 $-1 #
edge $-1 $514 -40.000999999999998 $367 0 $364 $503 forward 7 unknown #
face $-1 $515 $366 $50 $-1 $185 reversed single #
point $-1 0 -40 55 #
coedge $-1 $512 $516 $369 $455 reversed $517 $-1 #
edge $-1 $456 -40 $459 40 $454 $518 forward 7 unknown #
vertex $-1 $455 $519 #
straight-curve $-1 0 -40 -55 -1 0 0 I I #
coedge $-1 $505 $371 $516 $520 reversed $432 $-1 #
vertex $-1 $372 $521 #
straight-curve $-1 0 40 -55 1 0 0 I I #
plane-surface $-1 0 0 -55 0 0 1 1 0 0 forward_v I I I I #
vertex $-1 $508 $522 #
convexity-sys-attrib $-1 $-1 $-1 $379 #
vertex $-1 $379 $523 #
ellipse-curve $-1 0 -4.8849813083506888e-015 -45 0 0 1 39.799497484264798 4.0000000000000053 0 1 I I #
point $-1 -39.799497484264798 -4.0000000000000151 -55 #
point $-1 10 0 -45 #
convexity-sys-attrib $-1 $-1 $-1 $387 #
vertex $-1 $387 $524 #
ellipse-curve $-1 0 -4.8849813083506888e-015 -5 0 0 1 39.799497484264798 4.0000000000000053 0 1 I I #
point $-1 -39.799497484264798 -4.0000000000000151 -45 #
point $-1 30 0 -5 #
model_id-kcp-attrib $-1 $-1 $-1 $394 1 990635263 90 -1017511935 9 #
face $525 $526 $527 $14 $-1 $528 forward single #
loop $-1 $-1 $529 $394 #
plane-surface $-1 30 0 65 -1 0 0 0 0 1 forward_v I I I I #
loop $-1 $-1 $530 $296 #
coedge $-1 $478 $478 $486 $531 reversed $395 $-1 #
edge $532 $533 0 $533 6.2831853071795862 $397 $534 forward 7 unknown #
attrib_edge_convexity-kcp-attrib $-1 $535 $-1 $400 1 #
vertex $-1 $400 $536 #
intcurve-curve $-1 forward { surfintcur full nubs 3 periodic 33 
	0 3 0.75391564406059686 2 1.5078312881211937 2 2.2617469321817905 2 3.0156625762423874 2 
	3.7695756541568839 2 4.5234887320713808 2 5.2774018099858768 2 6.0313148879003737 2 6.7852279658148706 2 
	7.5391410437293684 2 8.2930541216438662 2 9.0469671995583631 2 9.800882843618961 2 10.554798487679557 2 
	11.308714131740153 2 12.062629775800751 2 12.816545419861345 2 13.570461063921941 2 14.324376707982537 2 
	15.078292352043132 2 15.83220542995763 2 16.586118507872129 2 17.340031585786626 2 18.093944663701123 2 
	18.84785774161562 2 19.601770819530117 2 20.355683897444614 2 21.109596975359111 2 21.863512619419705 2 
	22.617428263480299 2 23.371343907540894 2 24.125259551601488 3 
	25.314067434194389 30.970921683686761 65 
	25.314067434194389 30.970921683686761 64.748694785313134 
	25.332811545702953 30.955633574643457 64.488859728380319 
	25.411511579715285 30.89106132931358 63.972091719574458 
	25.471447004869717 30.841788169429542 63.715154274828777 
	25.629203440320317 30.710819606996139 63.222445690392149 
	25.727137588883739 30.629007496340186 62.986278953336971 
	25.952078499604383 30.438648627661763 62.549575344540337 
	26.079080802012012 30.330070900318269 62.34904967577684 
	26.347862659216602 30.09687341521979 61.994096678818785 
	26.498858829763019 29.964283859206301 61.827516507259531 
	26.824913330501719 29.672745934372234 61.533854942527512 
	26.999946253717578 29.513787998450113 61.406754838651807 
	27.36169092618152 29.178736253970762 61.202595082868513 
	27.548681001656497 29.002361319521277 61.125372927724101 
	27.921122331711384 28.643982173865098 61.024064260227732 
	28.106572230855711 28.461970264068086 61 
	28.461970264068089 28.106572230855711 61 
	28.643982173865101 27.921122331711377 61.024064260227739 
	29.002361319521288 27.548681001656487 61.125372927724122 
	29.178736253970772 27.36169092618151 61.202595082868513 
	29.51378799845012 26.999946253717567 61.4067548386518 
	29.672745934372227 26.824913330501726 61.533854942527512 
	29.96428385920629 26.498858829763023 61.827516507259531 
	30.096873415219797 26.347862659216602 61.994096678818778 
	30.330070900318276 26.079080802012008 62.34904967577684 
	30.438648627661763 25.952078499604372 62.549575344540344 
	30.629007496340186 25.727137588883725 62.986278953336985 
	30.710819606996143 25.629203440320325 63.222445690392163 
	30.841788169429549 25.47144700486972 63.715154274828784 
	30.89106132931358 25.411511579715278 63.972091719574465 
	30.955633574643457 25.332811545702945 64.488859728380334 
	30.970921683686775 25.314067434194381 64.748694785313134 
	30.970921683686775 25.314067434194381 65.251305214686866 
	30.955633574643457 25.332811545702945 65.511140271619666 
	30.89106132931358 25.411511579715281 66.027908280425549 
	30.841788169429545 25.47144700486972 66.284845725171223 
	30.710819606996139 25.629203440320325 66.777554309607837 
	30.629007496340183 25.727137588883732 67.013721046663036 
	30.438648627661763 25.952078499604372 67.45042465545967 
	30.330070900318276 26.079080802012008 67.650950324223146 
	30.096873415219797 26.347862659216602 68.005903321181222 
	29.964283859206301 26.498858829763019 68.172483492740469 
	29.672745934372234 26.824913330501722 68.466145057472488 
	29.51378799845012 26.999946253717567 68.593245161348207 
	29.178736253970772 27.36169092618151 68.797404917131487 
	29.002361319521288 27.54868100165649 68.874627072275899 
	28.643982173865101 27.921122331711381 68.975935739772268 
	28.461970264068089 28.106572230855711 69 
	28.106572230855715 28.461970264068086 69 
	27.921122331711384 28.643982173865098 68.975935739772268 
	27.548681001656494 29.002361319521285 68.874627072275899 
	27.361690926181517 29.178736253970769 68.797404917131487 
	26.999946253717575 29.513787998450113 68.593245161348207 
	26.824913330501726 29.672745934372237 68.466145057472474 
	26.498858829763027 29.964283859206301 68.172483492740454 
	26.347862659216602 30.09687341521979 68.005903321181208 
	26.079080802012015 30.330070900318269 67.650950324223146 
	25.952078499604372 30.438648627661763 67.450424655459656 
	25.727137588883735 30.629007496340176 67.013721046663036 
	25.629203440320325 30.710819606996132 66.777554309607865 
	25.471447004869717 30.841788169429542 66.284845725171238 
	25.411511579715285 30.891061329313573 66.027908280425564 
	25.332811545702949 30.95563357464345 65.511140271619695 
	25.314067434194389 30.970921683686761 65.251305214686866 
	25.314067434194389 30.970921683686761 65 
	0.001 
	cone 31.81980515339464 31.819805153394636 65 0.70710678118654757 0.70710678118654746 0 0 0 -4 1 I I 0 1 4 forward I I I I 
	cone 0 0 65 0 0 1 40 0 0 1 I I 0 1 40 forward I I I I 
	nullbs 
	nullbs 
	I I 
	0 
	0 
	0 
	} I I #
convexity-sys-attrib $-1 $-1 $401 $301 #
point $-1 -30 3.6739403974420592e-015 61 #
loop $-1 $537 $538 $219 #
coedge $-1 $486 $486 $478 $531 forward $406 $-1 #
model_id-kcp-attrib $-1 $-1 $-1 $408 1 990635263 90 -1017511935 16 #
face $539 $540 $541 $14 $-1 $542 forward single #
loop $-1 $543 $544 $408 #
plane-surface $-1 0 0 5 0 0 -1 -1 0 0 forward_v I I I I #
loop $-1 $-1 $545 $309 #
coedge $-1 $492 $492 $546 $547 forward $409 $-1 #
straight-curve $-1 -40.000999999999998 40 0 0 0 -1 I I #
point $-1 -40.000999999999998 -40 -55 #
straight-curve $-1 -40.000999999999998 0 -55 0 1 0 I I #
point $-1 -40.000999999999998 40 -55 #
coedge $-1 $435 $434 $548 $549 forward $258 $-1 #
edge $-1 $550 -40.000999999999998 $362 0 $440 $511 forward 7 unknown #
coedge $-1 $507 $548 $437 $500 forward $551 $-1 #
edge $-1 $502 -55 $501 55 $499 $552 forward 7 unknown #
vertex $-1 $500 $553 #
vertex $-1 $549 $554 #
straight-curve $-1 0 -40 55 1 0 0 I I #
coedge $-1 $441 $440 $555 $556 forward $443 $-1 #
coedge $-1 $442 $458 $445 $448 reversed $432 $-1 #
face $-1 $557 $443 $50 $-1 $433 reversed single #
coedge $-1 $555 $499 $444 $508 reversed $551 $-1 #
edge $-1 $462 -40 $501 40 $507 $558 forward 7 unknown #
coedge $-1 $446 $445 $559 $560 forward $351 $-1 #
vertex $-1 $448 $561 #
straight-curve $-1 0 40 55 -1 0 0 I I #
coedge $-1 $559 $454 $450 $513 reversed $517 $-1 #
edge $-1 $514 -55 $456 55 $512 $562 forward 7 unknown #
vertex $-1 $560 $563 #
face $-1 $506 $517 $50 $-1 $564 reversed single #
coedge $-1 $454 $559 $458 $520 forward $517 $-1 #
loop $-1 $-1 $516 $515 #
straight-curve $-1 -40.000999999999998 0 -55 0 1 0 I I #
point $-1 -40.000999999999998 -40 -55 #
edge $-1 $510 -55 $459 55 $458 $565 forward 7 unknown #
point $-1 -40.000999999999998 40 -55 #
point $-1 40.000999999999998 40 -55 #
point $-1 -39.799497484264798 -4.0000000000000151 -45 #
point $-1 -39.799497484264798 -4.0000000000000151 -5 #
model_id-kcp-attrib $-1 $-1 $-1 $474 1 990635263 90 -1017511935 10 #
face $566 $567 $568 $14 $-1 $569 forward single #
loop $-1 $570 $571 $474 #
cone-surface $-1 0 0 75 0 0 1 17.5 0 0 1 I I -0.24253562503633297 0.97014250014533188 17.5 forward I I I I #
coedge $-1 $529 $529 $530 $572 reversed $475 $-1 #
coedge $-1 $530 $530 $529 $572 forward $477 $-1 #
edge $573 $574 0 $574 24.125259551601488 $486 $575 forward 7 unknown #
attrib_edge_convexity-kcp-attrib $-1 $576 $-1 $479 2 #
vertex $-1 $479 $577 #
ellipse-curve $-1 21.213203435596427 21.213203435596427 65 -0.70710678118654757 -0.70710678118654746 0 0 0 -4 1 I I #
convexity-sys-attrib $-1 $-1 $480 $400 #
point $-1 25.314067434194392 30.970921683686772 65 #
loop $-1 $-1 $578 $219 #
coedge $-1 $538 $538 $579 $580 reversed $485 $-1 #
model_id-kcp-attrib $-1 $-1 $-1 $488 1 990635263 90 -1017511935 17 #
face $581 $582 $583 $14 $-1 $584 forward single #
loop $-1 $585 $586 $488 #
cone-surface $-1 0 0 25 0 0 1 30 0 0 1 I I 0 1 30 forward I I I I #
loop $-1 $-1 $587 $408 #
coedge $-1 $544 $544 $586 $588 forward $489 $-1 #
coedge $-1 $545 $545 $578 $589 forward $491 $-1 #
coedge $-1 $546 $546 $492 $547 reversed $590 $-1 #
edge $-1 $591 0 $591 6.2831853071795862 $492 $592 forward 7 unknown #
coedge $-1 $499 $555 $497 $549 reversed $551 $-1 #
edge $-1 $502 -40 $550 40 $548 $593 forward 7 unknown #
vertex $-1 $549 $594 #
loop $-1 $-1 $499 $557 #
straight-curve $-1 40.000999999999998 -40 0 0 0 -1 I I #
point $-1 40.000999999999998 -40 -55 #
point $-1 40.000999999999998 -40 55 #
coedge $-1 $548 $507 $504 $556 reversed $551 $-1 #
edge $-1 $550 -55 $462 55 $555 $595 forward 7 unknown #
face $-1 $-1 $551 $50 $-1 $596 reversed single #
straight-curve $-1 40.000999999999998 0 -55 0 -1 0 I I #
coedge $-1 $516 $512 $509 $560 reversed $517 $-1 #
edge $-1 $510 -40 $514 40 $559 $597 forward 7 unknown #
point $-1 -40.000999999999998 40 55 #
straight-curve $-1 -40.000999999999998 -40 0 0 0 -1 I I #
point $-1 -40.000999999999998 -40 55 #
plane-surface $-1 -40.000999999999998 0 0 1 0 0 0 0 -1 forward_v I I I I #
straight-curve $-1 -40.000999999999998 40 0 0 0 -1 I I #
model_id-kcp-attrib $-1 $598 $-1 $526 1 990635263 90 -1017511935 20 #
face $599 $600 $601 $14 $-1 $602 reversed single #
loop $-1 $-1 $603 $526 #
plane-surface $-1 0 0 105 0 0 1 1 0 0 forward_v I I I I #
loop $-1 $-1 $604 $474 #
coedge $-1 $571 $571 $603 $605 reversed $527 $-1 #
edge $606 $607 0 $607 6.2831853071795862 $529 $608 forward 7 unknown #
attrib_edge_convexity-kcp-attrib $-1 $609 $-1 $531 1 #
vertex $-1 $531 $610 #
intcurve-curve $-1 forward { surfintcur full nubs 3 periodic 33 
	0 3 0.75391564406059652 2 1.507831288121193 2 2.2617469321817896 2 3.0156625762423861 2 
	3.769575654156883 2 4.5234887320713799 2 5.2774018099858768 2 6.0313148879003737 2 6.7852279658148706 2 
	7.5391410437293676 2 8.2930541216438645 2 9.0469671995583614 2 9.8008828436189575 2 10.554798487679555 2 
	11.308714131740151 2 12.062629775800747 2 12.816545419861342 2 13.570461063921936 2 14.32437670798253 2 
	15.078292352043125 2 15.832205429957623 2 16.586118507872122 2 17.340031585786619 2 18.093944663701116 2 
	18.847857741615613 2 19.60177081953011 2 20.355683897444607 2 21.109596975359107 2 21.863512619419701 2 
	22.617428263480299 2 23.371343907540894 2 24.125259551601488 3 
	39.799497484264798 4 65 
	39.799497484264798 4 64.748694785313134 
	39.801941247043779 3.9759355860689349 64.488859728380319 
	39.811931102224314 3.8746267857900061 63.972091719574458 
	39.819470462299819 3.7974046547455114 63.715154274828777 
	39.838412348963843 3.5932452508436565 63.222445690392149 
	39.849812351294759 3.4661454520567236 62.986278953336971 
	39.87426554773009 3.1724841618183697 62.549575344540337 
	39.887293689698424 3.0059039252692257 62.34904967577684 
	39.912455640518921 2.6509509283111616 61.994096678818778 
	39.925471082473841 2.4504255380129307 61.827516507259524 
	39.949877987359351 2.0137217458809786 61.533854942527505 
	39.961244719882231 1.7775545445302052 61.4067548386518 
	39.980119470269869 1.2848450730031149 61.20259508286852 
	39.987625508472242 1.0279072104396128 61.125372927724122 
	39.997568974418861 0.51113909623433407 61.024064260227739 
	40 0.2513043593048323 61 
	40 -0.2513043593048323 61 
	39.997568974418861 -0.51113909623433407 61.024064260227739 
	39.987625508472242 -1.0279072104396128 61.125372927724122 
	39.980119470269869 -1.2848450730031149 61.20259508286852 
	39.961244719882231 -1.7775545445302052 61.4067548386518 
	39.949877987359351 -2.0137217458809786 61.533854942527505 
	39.925471082473841 -2.4504255380129307 61.827516507259524 
	39.912455640518921 -2.6509509283111616 61.994096678818778 
	39.887293689698424 -3.0059039252692257 62.349049675776847 
	39.87426554773009 -3.1724841618183794 62.549575344540344 
	39.849812351294759 -3.4661454520567285 62.986278953336971 
	39.838412348963843 -3.5932452508436521 63.222445690392149 
	39.819470462299819 -3.7974046547455078 63.715154274828762 
	39.811931102224314 -3.874626785790007 63.972091719574458 
	39.801941247043779 -3.9759355860689376 64.488859728380334 
	39.799497484264798 -4 64.748694785313134 
	39.799497484264798 -4 65.251305214686866 
	39.801941247043779 -3.9759355860689349 65.511140271619681 
	39.811931102224314 -3.8746267857900061 66.027908280425549 
	39.819470462299819 -3.7974046547455109 66.284845725171238 
	39.838412348963843 -3.5932452508436561 66.777554309607837 
	39.849812351294759 -3.4661454520567316 67.013721046663036 
	39.87426554773009 -3.1724841618183781 67.450424655459656 
	39.887293689698424 -3.0059039252692257 67.650950324223146 
	39.912455640518921 -2.6509509283111621 68.005903321181208 
	39.925471082473841 -2.4504255380129343 68.172483492740454 
	39.949877987359351 -2.0137217458809866 68.466145057472474 
	39.961244719882231 -1.7775545445302057 68.593245161348207 
	39.980119470269869 -1.2848450730031142 68.797404917131487 
	39.987625508472242 -1.0279072104396112 68.874627072275899 
	39.997568974418861 -0.51113909623433296 68.975935739772268 
	40 -0.2513043593048328 69 
	40 0.25130435930483186 69 
	39.997568974418861 0.51113909623433196 68.975935739772268 
	39.987625508472242 1.0279072104396101 68.874627072275899 
	39.980119470269869 1.2848450730031136 68.797404917131487 
	39.961244719882231 1.7775545445302043 68.593245161348207 
	39.949877987359351 2.0137217458809862 68.466145057472474 
	39.925471082473841 2.4504255380129334 68.172483492740454 
	39.912455640518914 2.6509509283111607 68.005903321181208 
	39.887293689698424 3.0059039252692248 67.650950324223146 
	39.874265547730083 3.1724841618183772 67.450424655459656 
	39.849812351294752 3.4661454520567307 67.013721046663036 
	39.838412348963843 3.5932452508436552 66.777554309607837 
	39.819470462299819 3.7974046547455105 66.284845725171238 
	39.811931102224314 3.8746267857900056 66.027908280425549 
	39.801941247043779 3.9759355860689345 65.511140271619681 
	39.799497484264798 4 65.251305214686866 
	39.799497484264798 4 65 
	0.001 
	cone 45 0 65 1 0 0 0 0 -4 1 I I 0 1 4 forward I I I I 
	cone 0 0 65 0 0 1 40 0 0 1 I I 0 1 40 forward I I I I 
	nullbs 
	nullbs 
	I I 
	0 
	0 
	0 
	} I I #
convexity-sys-attrib $-1 $-1 $532 $479 #
point $-1 21.213203435596427 21.213203435596427 61 #
coedge $-1 $578 $578 $545 $589 reversed $537 $-1 #
coedge $-1 $579 $579 $538 $580 forward $611 $-1 #
edge $-1 $612 0 $612 6.2831853071795862 $579 $613 forward 7 unknown #
model_id-kcp-attrib $-1 $-1 $-1 $540 1 990635263 90 -1017511935 18 #
face $614 $-1 $615 $14 $-1 $616 forward single #
loop $-1 $617 $618 $540 #
cone-surface $-1 0 0 0 0 0 1 10 0 0 1 I I 0 1 10 forward I I I I #
loop $-1 $-1 $619 $488 #
coedge $-1 $586 $586 $544 $588 reversed $541 $-1 #
coedge $-1 $587 $587 $620 $621 forward $543 $-1 #
edge $-1 $622 0 $622 6.2831853071795862 $544 $623 forward 7 unknown #
edge $-1 $624 0 $624 6.2831853071795862 $545 $625 forward 7 unknown #
loop $-1 $-1 $546 $567 #
vertex $-1 $547 $626 #
ellipse-curve $-1 0 0 85 0 0 -1 30 0 0 1 I I #
straight-curve $-1 40.000999999999998 0 55 0 1 0 I I #
point $-1 40.000999999999998 40 55 #
straight-curve $-1 40.000999999999998 40 0 0 0 -1 I I #
plane-surface $-1 40.000999999999998 0 0 -1 0 0 0 0 1 forward_v I I I I #
straight-curve $-1 -40.000999999999998 0 55 0 -1 0 I I #
model_id-kcp-attrib $-1 $-1 $566 $526 1 990635263 90 -1017511935 11 #
model_id-kcp-attrib $-1 $-1 $-1 $567 1 990635263 90 -1017511935 12 #
face $627 $219 $611 $14 $-1 $628 forward single #
loop $-1 $590 $629 $567 #
cone-surface $-1 0 0 65 0 0 1 22.5 0 0 1 I I 0.3511234415883917 0.93632917756904455 22.5 forward I I I I #
coedge $-1 $603 $603 $571 $605 forward $568 $-1 #
coedge $-1 $604 $604 $629 $630 reversed $570 $-1 #
edge $631 $632 0 $632 6.2831853071795862 $603 $633 forward 7 unknown #
attrib_edge_convexity-kcp-attrib $-1 $634 $-1 $572 2 #
vertex $-1 $572 $635 #
ellipse-curve $-1 30 0 65 -1 0 0 0 0 -4 1 I I #
convexity-sys-attrib $-1 $-1 $573 $531 #
point $-1 39.799497484264798 4 65 #
loop $-1 $636 $579 $600 #
vertex $-1 $580 $637 #
ellipse-curve $-1 0 0 45 0 0 -1 40 0 0 1 I I #
model_id-kcp-attrib $-1 $-1 $-1 $582 1 990635263 90 -1017511935 19 #
loop $-1 $-1 $638 $582 #
plane-surface $-1 0 0 -5 0 0 -1 -1 0 0 forward_v I I I I #
loop $-1 $-1 $620 $540 #
coedge $-1 $618 $618 $638 $639 reversed $583 $-1 #
coedge $-1 $619 $619 $640 $641 reversed $585 $-1 #
coedge $-1 $620 $620 $587 $621 reversed $617 $-1 #
edge $-1 $642 0 $642 6.2831853071795862 $620 $643 forward 7 unknown #
vertex $-1 $588 $644 #
ellipse-curve $-1 0 0 5 0 0 -1 30 0 0 1 I I #
vertex $-1 $589 $645 #
ellipse-curve $-1 0 0 85 0 0 1 40 0 0 1 I I #
point $-1 30 0 85 #
model_id-kcp-attrib $-1 $-1 $-1 $600 1 990635263 90 -1017511935 13 #
plane-surface $-1 0 0 45 0 0 -1 -1 0 0 forward_v I I I I #
coedge $-1 $629 $629 $604 $630 forward $601 $-1 #
edge $-1 $646 -3.1415926535897931 $646 3.1415926535897931 $629 $647 forward 7 unknown #
attrib_edge_convexity-kcp-attrib $-1 $648 $-1 $605 1 #
vertex $-1 $605 $649 #
ellipse-curve $-1 0 0 105 0 0 1 10 0 0 1 I I #
convexity-sys-attrib $-1 $-1 $606 $572 #
point $-1 30 0 61 #
loop $-1 $-1 $640 $600 #
point $-1 40 0 45 #
coedge $-1 $638 $638 $618 $639 forward $615 $-1 #
edge $-1 $650 0 $650 6.2831853071795862 $638 $651 forward 7 unknown #
coedge $-1 $640 $640 $619 $641 forward $636 $-1 #
edge $-1 $652 0 $652 6.2831853071795862 $619 $653 forward 7 unknown #
vertex $-1 $621 $654 #
ellipse-curve $-1 0 0 5 0 0 1 10 0 0 1 I I #
point $-1 30 0 5 #
point $-1 40 0 85 #
vertex $-1 $630 $655 #
ellipse-curve $-1 0 0 61 0 0 -1 21 0 0 1 I I #
convexity-sys-attrib $-1 $-1 $631 $605 #
point $-1 10 0 105 #
vertex $-1 $639 $656 #
ellipse-curve $-1 0 0 -5 0 0 -1 10 0 0 1 I I #
vertex $-1 $641 $657 #
ellipse-curve $-1 0 0 45 0 0 1 30 0 0 1 I I #
point $-1 10 0 5 #
point $-1 -21 2.5717582782094417e-015 61 #
point $-1 10 0 -5 #
point $-1 30 0 45 #
End-of-ACIS-data 