106 0 1 0           
body $1 $2 $-1 $3 #
display_attribute-st-attrib $-1 $4 $-1 $0 3 #
lump $-1 $-1 $5 $0 #
transform $-1 1 0 0 0 0 1 0 -1 0 0 92.5 0 1 1 0 0 #
rgb_color-st-attrib $-1 $6 $1 $0 0 1 0 #
shell $-1 $-1 $-1 $7 $2 #
id_attribute-st-attrib $-1 $-1 $4 $0 59 #
face $-1 $8 $9 $5 $-1 $10 reversed single #
face $-1 $11 $12 $5 $-1 $13 reversed single #
loop $-1 $14 $15 $7 #
cone-surface $-1 20 20 0 0 0 1 2 0 0 1 I I 0 1 0 I I I I #
face $-1 $16 $17 $5 $-1 $18 reversed single #
loop $-1 $19 $20 $8 #
cone-surface $-1 20 -20 0 0 0 1 2 0 0 1 I I 0 1 0 I I I I #
loop $-1 $-1 $21 $7 #
coedge $-1 $15 $15 $22 $23 1 $9 $-1 #
face $-1 $24 $25 $5 $-1 $26 reversed single #
loop $-1 $27 $28 $11 #
cone-surface $-1 -20 20 0 0 0 1 2 0 0 1 I I 0 1 0 I I I I #
loop $-1 $-1 $29 $8 #
coedge $-1 $20 $20 $30 $31 1 $12 $-1 #
coedge $-1 $21 $21 $32 $33 1 $14 $-1 #
coedge $-1 $22 $22 $15 $23 0 $34 $-1 #
edge $-1 $35 $35 $22 $36 0 #
face $-1 $37 $38 $5 $-1 $39 forward single #
loop $-1 $40 $41 $16 #
cone-surface $-1 -20 -20 0 0 0 1 2 0 0 1 I I 0 1 0 I I I I #
loop $-1 $-1 $42 $11 #
coedge $-1 $28 $28 $43 $44 1 $17 $-1 #
coedge $-1 $29 $29 $45 $46 1 $19 $-1 #
coedge $-1 $30 $30 $20 $31 0 $47 $-1 #
edge $-1 $48 $48 $30 $49 0 #
coedge $-1 $32 $32 $21 $33 0 $50 $-1 #
edge $-1 $51 $51 $32 $52 0 #
loop $-1 $47 $22 $53 #
vertex $-1 $23 $54 #
ellipse-curve $-1 20 20 -2.5 0 0 1 2 0 0 1 I I #
face $-1 $55 $56 $5 $-1 $57 forward single #
loop $-1 $58 $59 $24 #
cone-surface $-1 0 0 22.5 0 0 1 6 0 0 1 I I 0 1 0 I I I I #
loop $-1 $-1 $60 $16 #
coedge $-1 $41 $41 $61 $62 1 $25 $-1 #
coedge $-1 $42 $42 $63 $64 1 $27 $-1 #
coedge $-1 $43 $43 $28 $44 0 $65 $-1 #
edge $-1 $66 $66 $43 $67 0 #
coedge $-1 $45 $45 $29 $46 0 $68 $-1 #
edge $-1 $69 $69 $45 $70 0 #
loop $-1 $65 $30 $53 #
vertex $-1 $31 $71 #
ellipse-curve $-1 20 -20 -2.5 0 0 1 2 0 0 1 I I #
loop $-1 $68 $32 $72 #
vertex $-1 $33 $73 #
ellipse-curve $-1 20 20 2.5 -0 -0 -1 2 0 0 1 I I #
face $-1 $74 $34 $5 $-1 $75 reversed single #
point $-1 22 20 -2.5 #
face $-1 $76 $77 $5 $-1 $78 forward single #
loop $-1 $-1 $79 $37 #
plane-surface $-1 0 0 27.5 0 0 1 1 0 0 0 I I I I #
loop $-1 $-1 $80 $24 #
coedge $-1 $59 $59 $81 $82 1 $38 $-1 #
coedge $-1 $60 $60 $83 $84 1 $40 $-1 #
coedge $-1 $61 $61 $41 $62 0 $85 $-1 #
edge $-1 $86 $86 $61 $87 0 #
coedge $-1 $63 $63 $42 $64 0 $88 $-1 #
edge $-1 $89 $89 $63 $90 0 #
loop $-1 $85 $43 $53 #
vertex $-1 $44 $91 #
ellipse-curve $-1 -20 20 -2.5 0 0 1 2 0 0 1 I I #
loop $-1 $88 $45 $72 #
vertex $-1 $46 $92 #
ellipse-curve $-1 20 -20 2.5 -0 -0 -1 2 0 0 1 I I #
point $-1 22 -20 -2.5 #
face $-1 $53 $50 $5 $-1 $93 forward single #
point $-1 22 20 2.5 #
face $-1 $94 $95 $5 $-1 $96 reversed single #
plane-surface $-1 0 0 -2.5 0 0 1 1 0 0 0 I I I I #
face $-1 $72 $97 $5 $-1 $98 forward single #
loop $-1 $99 $100 $55 #
cone-surface $-1 0 0 10 0 0 1 15 0 0 1 I I 0 1 0 I I I I #
coedge $-1 $79 $79 $80 $101 0 $56 $-1 #
coedge $-1 $80 $80 $79 $101 1 $58 $-1 #
coedge $-1 $81 $81 $59 $82 0 $97 $-1 #
edge $-1 $102 $102 $81 $103 0 #
coedge $-1 $83 $83 $60 $84 0 $104 $-1 #
edge $-1 $105 $105 $83 $106 0 #
loop $-1 $107 $61 $53 #
vertex $-1 $62 $108 #
ellipse-curve $-1 -20 -20 -2.5 0 0 1 2 0 0 1 I I #
loop $-1 $104 $63 $72 #
vertex $-1 $64 $109 #
ellipse-curve $-1 -20 20 2.5 -0 -0 -1 2 0 0 1 I I #
point $-1 -18 20 -2.5 #
point $-1 22 -20 2.5 #
plane-surface $-1 0 0 2.5 0 0 1 1 0 0 0 I I I I #
face $-1 $110 $111 $5 $-1 $112 reversed single #
loop $-1 $-1 $113 $74 #
plane-surface $-1 0 -25 0 0 1 -0 -0 0 1 0 I I I I #
loop $-1 $114 $81 $76 #
plane-surface $-1 0 0 17.5 0 0 1 1 0 0 0 I I I I #
loop $-1 $-1 $115 $55 #
coedge $-1 $100 $100 $116 $117 1 $77 $-1 #
edge $-1 $118 $118 $79 $119 0 #
vertex $-1 $82 $120 #
ellipse-curve $-1 0 0 17.5 -0 -0 -1 6 0 0 1 I I #
loop $-1 $121 $83 $72 #
vertex $-1 $84 $122 #
ellipse-curve $-1 -20 -20 2.5 -0 -0 -1 2 0 0 1 I I #
loop $-1 $-1 $123 $53 #
point $-1 -18 -20 -2.5 #
point $-1 -18 20 2.5 #
face $-1 $124 $125 $5 $-1 $126 reversed single #
loop $-1 $-1 $127 $94 #
plane-surface $-1 -25 0 0 1 0 0 0 0 -1 0 I I I I #
coedge $-1 $128 $129 $130 $131 0 $95 $-1 #
loop $-1 $-1 $132 $76 #
coedge $-1 $115 $115 $132 $133 1 $99 $-1 #
coedge $-1 $116 $116 $100 $117 0 $121 $-1 #
edge $-1 $134 $134 $116 $135 0 #
vertex $-1 $101 $136 #
ellipse-curve $-1 0 0 27.5 0 0 1 6 0 0 1 I I #
point $-1 6 0 17.5 #
loop $-1 $137 $116 $72 #
point $-1 -18 -20 2.5 #
coedge $-1 $138 $139 $140 $141 0 $107 $-1 #
face $-1 $-1 $142 $5 $-1 $143 reversed single #
loop $-1 $-1 $144 $110 #
plane-surface $-1 0 25 0 0 -1 0 0 0 -1 0 I I I I #
coedge $-1 $145 $146 $147 $148 0 $111 $-1 #
coedge $-1 $149 $113 $138 $150 1 $95 $-1 #
coedge $-1 $113 $149 $151 $152 1 $95 $-1 #
coedge $-1 $146 $145 $113 $131 1 $111 $-1 #
edge $-1 $153 $154 $130 $155 0 #
coedge $-1 $132 $132 $115 $133 0 $114 $-1 #
edge $-1 $156 $156 $132 $157 0 #
vertex $-1 $117 $158 #
ellipse-curve $-1 0 0 2.5 -0 -0 -1 15 0 0 1 I I #
point $-1 6 0 27.5 #
loop $-1 $-1 $159 $72 #
coedge $-1 $160 $123 $128 $150 0 $107 $-1 #
coedge $-1 $123 $160 $161 $162 0 $107 $-1 #
coedge $-1 $163 $164 $123 $141 1 $142 $-1 #
edge $-1 $165 $166 $140 $167 0 #
loop $-1 $-1 $164 $124 #
plane-surface $-1 25 0 0 -1 0 0 0 -0 1 0 I I I I #
coedge $-1 $161 $168 $163 $169 0 $125 $-1 #
coedge $-1 $130 $127 $160 $170 1 $111 $-1 #
coedge $-1 $127 $130 $171 $172 1 $111 $-1 #
coedge $-1 $168 $161 $127 $148 1 $125 $-1 #
edge $-1 $173 $174 $147 $175 0 #
coedge $-1 $129 $128 $164 $176 1 $95 $-1 #
edge $-1 $166 $154 $128 $177 0 #
coedge $-1 $159 $171 $129 $152 0 $137 $-1 #
edge $-1 $153 $178 $129 $179 0 #
vertex $-1 $172 $180 #
vertex $-1 $170 $181 #
straight-curve $-1 -25 -25 0 0 0 -1 I I #
vertex $-1 $133 $182 #
ellipse-curve $-1 0 0 17.5 0 0 1 15 0 0 1 I I #
point $-1 15 0 2.5 #
coedge $-1 $183 $151 $184 $185 0 $137 $-1 #
coedge $-1 $139 $138 $145 $170 0 $107 $-1 #
coedge $-1 $147 $144 $139 $162 1 $125 $-1 #
edge $-1 $174 $165 $161 $186 0 #
coedge $-1 $184 $140 $144 $169 1 $142 $-1 #
coedge $-1 $140 $184 $149 $176 0 $142 $-1 #
vertex $-1 $141 $187 #
vertex $-1 $176 $188 #
straight-curve $-1 25 0 -2.5 0 -1 0 I I #
coedge $-1 $144 $147 $183 $189 1 $125 $-1 #
edge $-1 $190 $165 $163 $191 0 #
edge $-1 $154 $174 $145 $192 0 #
coedge $-1 $151 $183 $146 $172 0 $137 $-1 #
edge $-1 $173 $153 $146 $193 0 #
vertex $-1 $189 $194 #
vertex $-1 $162 $195 #
straight-curve $-1 -25 25 0 0 0 -1 I I #
edge $-1 $178 $166 $164 $196 0 #
straight-curve $-1 0 -25 -2.5 -1 0 0 I I #
vertex $-1 $185 $197 #
straight-curve $-1 0 -25 2.5 1 0 0 I I #
point $-1 -25 -25 2.5 #
point $-1 -25 -25 -2.5 #
point $-1 15 0 17.5 #
coedge $-1 $171 $159 $168 $189 0 $137 $-1 #
coedge $-1 $164 $163 $159 $185 1 $142 $-1 #
edge $-1 $178 $190 $184 $198 0 #
straight-curve $-1 0 25 -2.5 1 0 0 I I #
point $-1 25 25 -2.5 #
point $-1 25 -25 -2.5 #
edge $-1 $190 $173 $168 $199 0 #
vertex $-1 $185 $200 #
straight-curve $-1 25 25 0 0 0 -1 I I #
straight-curve $-1 -25 0 -2.5 0 1 0 I I #
straight-curve $-1 -25 0 2.5 0 -1 0 I I #
point $-1 -25 25 2.5 #
point $-1 -25 25 -2.5 #
straight-curve $-1 25 -25 0 0 0 -1 I I #
point $-1 25 -25 2.5 #
straight-curve $-1 25 0 2.5 0 1 0 I I #
straight-curve $-1 0 25 2.5 -1 0 0 I I #
point $-1 25 25 2.5 #
End-of-ACIS-data 