600 0 2 0           
24 FBMach with ACIS - 6.0.3 13 ACIS 6.0.3 NT 24 Wed May 23 12:27:45 2001 
1 9.9999999999999995e-007 1e-010 
body $2 $3 $-1 $4 #
bdycol-kcp $-1 1 7 $5 $6 $7 $8 $9 $10 $11 #
model_id-kcp-attrib $-1 $12 $-1 $0 1 990635265 50 -1372454911 1 #
lump $-1 $-1 $13 $0 #
transform $-1 1 0 0 0 0 -1 0 1 0 0 -92.5 0 1 rotate no_reflect no_shear #
body $14 $15 $-1 $16 #
body $17 $18 $-1 $19 #
body $20 $21 $-1 $22 #
body $23 $24 $-1 $25 #
body $26 $27 $-1 $28 #
body $29 $30 $-1 $31 #
body $32 $33 $-1 $34 #
rgb_color-st-attrib $-1 $-1 $2 $0 0 1 0 #
shell $-1 $-1 $-1 $35 $-1 $3 #
model_id-kcp-attrib $-1 $-1 $-1 $5 1 990635265 70 -1371144190 1 #
lump $-1 $-1 $36 $5 #
transform $-1 1 0 0 0 1 0 0 0 1 0 -80 0 1 no_rotate no_reflect no_shear #
rgb_color-st-attrib $-1 $37 $-1 $6 0.5 1 1 #
lump $-1 $-1 $38 $6 #
transform $-1 1 0 0 0 -3.8285889215894375e-016 -1 0 1 -3.8285889215894375e-016 20 -92.5 -20 1 rotate no_reflect no_shear #
rgb_color-st-attrib $-1 $39 $-1 $7 0.5 1 1 #
lump $-1 $-1 $40 $7 #
transform $-1 1 0 0 0 -3.8285889215894375e-016 -1 0 1 -3.8285889215894375e-016 20 -92.5 20 1 rotate no_reflect no_shear #
rgb_color-st-attrib $-1 $41 $-1 $8 0.5 1 1 #
lump $-1 $-1 $42 $8 #
transform $-1 1 0 0 0 -3.8285889215894375e-016 -1 0 1 -3.8285889215894375e-016 -20 -92.5 -20 1 rotate no_reflect no_shear #
rgb_color-st-attrib $-1 $43 $-1 $9 0.5 1 1 #
lump $-1 $-1 $44 $9 #
transform $-1 1 0 0 0 -3.8285889215894375e-016 -1 0 1 -3.8285889215894375e-016 -20 -92.5 20 1 rotate no_reflect no_shear #
model_id-kcp-attrib $-1 $45 $-1 $10 1 990635265 360 -1368915961 1 #
lump $-1 $-1 $46 $10 #
transform $-1 1 0 0 0 1 0 0 0 1 0 -80 0 1 no_rotate no_reflect no_shear #
model_id-kcp-attrib $-1 $47 $-1 $11 1 990635265 420 -1364983800 1 #
lump $-1 $-1 $48 $11 #
transform $-1 1 0 0 0 1 0 0 0 1 0 -80 0 1 no_rotate no_reflect no_shear #
face $49 $50 $51 $13 $-1 $52 reversed single #
shell $-1 $-1 $-1 $53 $-1 $15 #
model_id-kcp-attrib $-1 $-1 $17 $6 1 990635265 140 -1366556669 1 #
shell $-1 $-1 $-1 $54 $-1 $18 #
model_id-kcp-attrib $-1 $-1 $20 $7 1 990635265 140 -1366556668 1 #
shell $-1 $-1 $-1 $55 $-1 $21 #
model_id-kcp-attrib $-1 $-1 $23 $8 1 990635265 140 -1366556667 1 #
shell $-1 $-1 $-1 $56 $-1 $24 #
model_id-kcp-attrib $-1 $-1 $26 $9 1 990635265 140 -1366556666 1 #
shell $-1 $-1 $-1 $57 $-1 $27 #
rgb_color-st-attrib $-1 $-1 $29 $10 1 0.5 1 #
shell $-1 $-1 $-1 $58 $-1 $30 #
rgb_color-st-attrib $-1 $-1 $32 $11 1 0.5 1 #
shell $-1 $-1 $-1 $59 $-1 $33 #
model_id-kcp-attrib $-1 $-1 $-1 $35 1 990635265 50 -1372454911 2 #
face $60 $61 $62 $13 $-1 $63 reversed single #
loop $64 $65 $66 $35 #
cone-surface $-1 20 20 0 0 0 1 2 0 0 1 I I 0 1 2 forward I I I I #
face $67 $68 $69 $36 $-1 $70 forward single #
face $-1 $71 $72 $38 $-1 $73 forward single #
face $-1 $74 $75 $40 $-1 $76 forward single #
face $-1 $77 $78 $42 $-1 $79 forward single #
face $-1 $80 $81 $44 $-1 $82 forward single #
face $-1 $83 $84 $46 $-1 $85 forward single #
face $-1 $86 $87 $48 $-1 $88 forward single #
model_id-kcp-attrib $-1 $-1 $-1 $50 1 990635265 50 -1372454911 3 #
face $89 $90 $91 $13 $-1 $92 reversed single #
loop $93 $94 $95 $50 #
cone-surface $-1 20 -20 0 0 0 1 2 0 0 1 I I 0 1 2 forward I I I I #
model_id-kcp-attrib $-1 $-1 $-1 $51 1 990635265 50 -1372454911 17 #
loop $96 $-1 $97 $35 #
coedge $-1 $66 $66 $98 $99 reversed $51 $-1 #
model_id-kcp-attrib $-1 $-1 $-1 $53 1 990635265 70 -1371144190 4 #
face $100 $101 $102 $36 $-1 $103 reversed single #
loop $-1 $-1 $104 $53 #
plane-surface $-1 0 0 25 0 0 1 1 0 0 forward_v I I I I #
face $-1 $105 $106 $38 $-1 $107 forward single #
loop $-1 $108 $109 $54 #
cone-surface $-1 0 0 0 0 0 1 2 0 0 1 I I 0 1 2 forward I I I I #
face $-1 $110 $111 $40 $-1 $112 forward single #
loop $-1 $113 $114 $55 #
cone-surface $-1 0 0 0 0 0 1 2 0 0 1 I I 0 1 2 forward I I I I #
face $-1 $115 $116 $42 $-1 $117 forward single #
loop $-1 $118 $119 $56 #
cone-surface $-1 0 0 0 0 0 1 2 0 0 1 I I 0 1 2 forward I I I I #
face $-1 $120 $121 $44 $-1 $122 forward single #
loop $-1 $123 $124 $57 #
cone-surface $-1 0 0 0 0 0 1 2 0 0 1 I I 0 1 2 forward I I I I #
face $-1 $125 $126 $46 $-1 $127 forward single #
loop $-1 $128 $129 $58 #
cone-surface $-1 0 -10 0 0 1 0 15 0 0 1 I I 0 -1 15 forward I I I I #
face $-1 $130 $131 $48 $-1 $132 forward single #
loop $-1 $133 $134 $59 #
cone-surface $-1 0 5 0 0 1 0 6 0 0 1 I I 0 -1 6 forward I I I I #
model_id-kcp-attrib $-1 $-1 $-1 $61 1 990635265 50 -1372454911 4 #
face $135 $136 $137 $13 $-1 $138 reversed single #
loop $139 $140 $141 $61 #
cone-surface $-1 -20 20 0 0 0 1 2 0 0 1 I I 0 1 2 forward I I I I #
model_id-kcp-attrib $-1 $-1 $-1 $62 1 990635265 50 -1372454911 24 #
loop $142 $-1 $143 $50 #
coedge $-1 $95 $95 $144 $145 reversed $62 $-1 #
model_id-kcp-attrib $-1 $-1 $-1 $65 1 990635265 50 -1372454911 18 #
coedge $-1 $97 $97 $146 $147 reversed $65 $-1 #
coedge $-1 $98 $98 $66 $99 forward $148 $-1 #
edge $149 $150 0 $150 6.2831853071795862 $98 $151 forward 7 unknown #
model_id-kcp-attrib $-1 $-1 $-1 $68 1 990635265 70 -1371144190 6 #
face $152 $153 $154 $36 $-1 $155 reversed single #
loop $-1 $-1 $156 $68 #
plane-surface $-1 0 0 -25 0 0 1 1 0 0 forward_v I I I I #
coedge $-1 $157 $158 $159 $160 forward $69 $-1 #
face $-1 $-1 $161 $38 $-1 $162 forward single #
loop $-1 $-1 $163 $71 #
plane-surface $-1 0 0 -2.5 0 0 -1 -1 0 0 forward_v I I I I #
loop $-1 $-1 $164 $54 #
coedge $-1 $109 $109 $163 $165 reversed $72 $-1 #
face $-1 $-1 $166 $40 $-1 $167 forward single #
loop $-1 $-1 $168 $74 #
plane-surface $-1 0 0 -2.5 0 0 -1 -1 0 0 forward_v I I I I #
loop $-1 $-1 $169 $55 #
coedge $-1 $114 $114 $168 $170 reversed $75 $-1 #
face $-1 $-1 $171 $42 $-1 $172 forward single #
loop $-1 $-1 $173 $77 #
plane-surface $-1 0 0 -2.5 0 0 -1 -1 0 0 forward_v I I I I #
loop $-1 $-1 $174 $56 #
coedge $-1 $119 $119 $173 $175 reversed $78 $-1 #
face $-1 $-1 $176 $44 $-1 $177 forward single #
loop $-1 $-1 $178 $80 #
plane-surface $-1 0 0 -2.5 0 0 -1 -1 0 0 forward_v I I I I #
loop $-1 $-1 $179 $57 #
coedge $-1 $124 $124 $178 $180 reversed $81 $-1 #
face $-1 $181 $182 $46 $-1 $183 forward single #
loop $-1 $-1 $184 $83 #
plane-surface $-1 25 -10 -25 1 0 0 0 0 -1 forward_v I I I I #
loop $-1 $-1 $185 $58 #
coedge $-1 $129 $129 $186 $187 forward $84 $-1 #
face $-1 $188 $189 $48 $-1 $190 forward single #
loop $-1 $-1 $191 $86 #
plane-surface $-1 25 5 -25 1 0 0 0 0 -1 forward_v I I I I #
loop $-1 $-1 $192 $59 #
coedge $-1 $134 $134 $193 $194 forward $87 $-1 #
model_id-kcp-attrib $-1 $-1 $-1 $90 1 990635265 50 -1372454911 5 #
face $195 $196 $197 $13 $-1 $198 forward single #
loop $199 $200 $201 $90 #
cone-surface $-1 -20 -20 0 0 0 1 2 0 0 1 I I 0 1 2 forward I I I I #
model_id-kcp-attrib $-1 $-1 $-1 $91 1 990635265 50 -1372454911 31 #
loop $202 $-1 $203 $61 #
coedge $-1 $141 $141 $204 $205 reversed $91 $-1 #
model_id-kcp-attrib $-1 $-1 $-1 $94 1 990635265 50 -1372454911 25 #
coedge $-1 $143 $143 $206 $207 reversed $94 $-1 #
coedge $-1 $144 $144 $95 $145 forward $208 $-1 #
edge $209 $210 0 $210 6.2831853071795862 $144 $211 forward 7 unknown #
coedge $-1 $146 $146 $97 $147 forward $212 $-1 #
edge $213 $214 0 $214 6.2831853071795862 $146 $215 forward 7 unknown #
loop $216 $208 $98 $217 #
attrib_edge_convexity-kcp-attrib $-1 $218 $-1 $99 1 #
vertex $219 $99 $220 #
ellipse-curve $-1 20 20 -2.5 0 0 1 2 0 0 1 I I #
model_id-kcp-attrib $-1 $-1 $-1 $101 1 990635265 70 -1371144190 3 #
face $221 $222 $223 $36 $-1 $224 reversed single #
loop $-1 $-1 $225 $101 #
plane-surface $-1 0 -15 0 0 1 0 0 0 1 forward_v I I I I #
coedge $-1 $226 $227 $228 $229 forward $102 $-1 #
coedge $-1 $230 $104 $231 $232 forward $69 $-1 #
coedge $-1 $104 $230 $233 $234 forward $69 $-1 #
coedge $-1 $235 $236 $104 $160 reversed $237 $-1 #
edge $-1 $238 -15 $239 15 $159 $240 forward 7 unknown #
loop $-1 $-1 $241 $105 #
plane-surface $-1 0 0 2.5 0 0 1 1 0 0 forward_v I I I I #
coedge $-1 $163 $163 $109 $165 forward $106 $-1 #
coedge $-1 $164 $164 $241 $242 reversed $108 $-1 #
edge $-1 $243 0 $243 6.2831853071795862 $163 $244 forward 7 unknown #
loop $-1 $-1 $245 $110 #
plane-surface $-1 0 0 2.5 0 0 1 1 0 0 forward_v I I I I #
coedge $-1 $168 $168 $114 $170 forward $111 $-1 #
coedge $-1 $169 $169 $245 $246 reversed $113 $-1 #
edge $-1 $247 0 $247 6.2831853071795862 $168 $248 forward 7 unknown #
loop $-1 $-1 $249 $115 #
plane-surface $-1 0 0 2.5 0 0 1 1 0 0 forward_v I I I I #
coedge $-1 $173 $173 $119 $175 forward $116 $-1 #
coedge $-1 $174 $174 $249 $250 reversed $118 $-1 #
edge $-1 $251 0 $251 6.2831853071795862 $173 $252 forward 7 unknown #
loop $-1 $-1 $253 $120 #
plane-surface $-1 0 0 2.5 0 0 1 1 0 0 forward_v I I I I #
coedge $-1 $178 $178 $124 $180 forward $121 $-1 #
coedge $-1 $179 $179 $253 $254 reversed $123 $-1 #
edge $-1 $255 0 $255 6.2831853071795862 $178 $256 forward 7 unknown #
face $-1 $257 $258 $46 $-1 $259 forward single #
loop $-1 $-1 $260 $125 #
plane-surface $-1 25 -10 25 0 0 1 1 0 0 forward_v I I I I #
coedge $-1 $261 $262 $263 $264 forward $126 $-1 #
coedge $-1 $185 $185 $265 $266 reversed $128 $-1 #
coedge $-1 $186 $186 $129 $187 reversed $267 $-1 #
edge $-1 $268 0 $268 6.2831853071795862 $129 $269 forward 7 unknown #
face $-1 $270 $271 $48 $-1 $272 forward single #
loop $-1 $-1 $273 $130 #
plane-surface $-1 25 5 25 0 0 1 1 0 0 forward_v I I I I #
coedge $-1 $274 $275 $276 $277 forward $131 $-1 #
coedge $-1 $192 $192 $278 $279 reversed $133 $-1 #
coedge $-1 $193 $193 $134 $194 reversed $280 $-1 #
edge $-1 $281 0 $281 6.2831853071795862 $134 $282 forward 7 unknown #
model_id-kcp-attrib $-1 $-1 $-1 $136 1 990635265 50 -1372454911 6 #
face $283 $284 $285 $13 $-1 $286 forward single #
loop $-1 $287 $288 $136 #
cone-surface $-1 0 0 22.5 0 0 1 6 0 0 1 I I 0 1 6 forward I I I I #
model_id-kcp-attrib $-1 $-1 $-1 $137 1 990635265 50 -1372454911 38 #
loop $289 $-1 $290 $90 #
coedge $-1 $201 $201 $291 $292 reversed $137 $-1 #
model_id-kcp-attrib $-1 $-1 $-1 $140 1 990635265 50 -1372454911 32 #
coedge $-1 $203 $203 $293 $294 reversed $140 $-1 #
coedge $-1 $204 $204 $141 $205 forward $295 $-1 #
edge $296 $297 0 $297 6.2831853071795862 $204 $298 forward 7 unknown #
coedge $-1 $206 $206 $143 $207 forward $299 $-1 #
edge $300 $301 0 $301 6.2831853071795862 $206 $302 forward 7 unknown #
loop $303 $295 $144 $217 #
attrib_edge_convexity-kcp-attrib $-1 $304 $-1 $145 1 #
vertex $305 $145 $306 #
ellipse-curve $-1 20 -20 -2.5 0 0 1 2 0 0 1 I I #
loop $307 $299 $146 $308 #
attrib_edge_convexity-kcp-attrib $-1 $309 $-1 $147 1 #
vertex $310 $147 $311 #
ellipse-curve $-1 20 20 2.5 0 0 -1 2 0 0 1 I I #
model_id-kcp-attrib $-1 $-1 $-1 $148 1 990635265 50 -1372454911 19 #
face $312 $313 $148 $13 $-1 $314 reversed single #
convexity-sys-attrib $-1 $-1 $149 $99 #
model_id-kcp-attrib $-1 $-1 $-1 $150 1 990635265 50 -1372454911 21 #
point $-1 22 20 -2.5 #
model_id-kcp-attrib $-1 $-1 $-1 $153 1 990635265 70 -1371144190 5 #
face $315 $316 $317 $36 $-1 $318 reversed single #
loop $-1 $-1 $319 $153 #
plane-surface $-1 -25 0 0 1 0 0 0 0 -1 forward_v I I I I #
coedge $-1 $320 $233 $321 $322 forward $154 $-1 #
coedge $-1 $323 $156 $320 $324 forward $102 $-1 #
coedge $-1 $156 $323 $325 $326 forward $102 $-1 #
coedge $-1 $236 $235 $156 $229 reversed $237 $-1 #
edge $-1 $327 -15 $328 15 $228 $329 forward 7 unknown #
coedge $-1 $158 $157 $330 $331 forward $69 $-1 #
coedge $-1 $332 $333 $157 $232 reversed $317 $-1 #
edge $-1 $239 -25 $334 25 $231 $335 forward 7 unknown #
coedge $-1 $225 $336 $158 $234 reversed $154 $-1 #
edge $-1 $337 -25 $238 25 $233 $338 forward 7 unknown #
coedge $-1 $228 $159 $336 $339 forward $237 $-1 #
coedge $-1 $159 $228 $332 $340 reversed $237 $-1 #
loop $-1 $-1 $235 $316 #
vertex $-1 $160 $341 #
vertex $-1 $160 $342 #
straight-curve $-1 25 0 25 0 1 0 I I #
coedge $-1 $241 $241 $164 $242 forward $161 $-1 #
edge $-1 $343 0 $343 6.2831853071795862 $241 $344 forward 7 unknown #
vertex $-1 $165 $345 #
ellipse-curve $-1 0 0 -2.5 0 0 -1 2 0 0 1 I I #
coedge $-1 $245 $245 $169 $246 forward $166 $-1 #
edge $-1 $346 0 $346 6.2831853071795862 $245 $347 forward 7 unknown #
vertex $-1 $170 $348 #
ellipse-curve $-1 0 0 -2.5 0 0 -1 2 0 0 1 I I #
coedge $-1 $249 $249 $174 $250 forward $171 $-1 #
edge $-1 $349 0 $349 6.2831853071795862 $249 $350 forward 7 unknown #
vertex $-1 $175 $351 #
ellipse-curve $-1 0 0 -2.5 0 0 -1 2 0 0 1 I I #
coedge $-1 $253 $253 $179 $254 forward $176 $-1 #
edge $-1 $352 0 $352 6.2831853071795862 $253 $353 forward 7 unknown #
vertex $-1 $180 $354 #
ellipse-curve $-1 0 0 -2.5 0 0 -1 2 0 0 1 I I #
face $-1 $355 $356 $46 $-1 $357 forward single #
loop $-1 $-1 $358 $181 #
plane-surface $-1 -25 -10 25 -1 0 0 0 0 1 forward_v I I I I #
coedge $-1 $359 $360 $361 $362 forward $182 $-1 #
coedge $-1 $363 $184 $360 $364 reversed $126 $-1 #
coedge $-1 $184 $363 $365 $366 forward $126 $-1 #
coedge $-1 $367 $361 $184 $264 reversed $368 $-1 #
edge $-1 $369 -25 $370 25 $184 $371 forward 7 unknown #
coedge $-1 $265 $265 $185 $266 forward $372 $-1 #
edge $-1 $373 0 $373 6.2831853071795862 $185 $374 forward 7 unknown #
loop $-1 $-1 $186 $355 #
vertex $-1 $187 $375 #
ellipse-curve $-1 0 5 0 0 1 0 15 0 0 1 I I #
face $-1 $376 $377 $48 $-1 $378 forward single #
loop $-1 $-1 $379 $188 #
plane-surface $-1 -25 5 25 -1 0 0 0 0 1 forward_v I I I I #
coedge $-1 $380 $381 $382 $383 forward $189 $-1 #
coedge $-1 $384 $191 $381 $385 reversed $131 $-1 #
coedge $-1 $191 $384 $386 $387 forward $131 $-1 #
coedge $-1 $388 $382 $191 $277 reversed $389 $-1 #
edge $-1 $390 -25 $391 25 $191 $392 forward 7 unknown #
coedge $-1 $278 $278 $192 $279 forward $393 $-1 #
edge $-1 $394 0 $394 6.2831853071795862 $192 $395 forward 7 unknown #
loop $-1 $-1 $193 $376 #
vertex $-1 $194 $396 #
ellipse-curve $-1 0 15 0 0 1 0 6 0 0 1 I I #
model_id-kcp-attrib $-1 $-1 $-1 $196 1 990635265 50 -1372454911 7 #
face $397 $398 $399 $13 $-1 $400 forward single #
loop $-1 $-1 $401 $196 #
plane-surface $-1 0 0 27.5 0 0 1 1 0 0 forward_v I I I I #
loop $-1 $-1 $402 $136 #
coedge $-1 $288 $288 $403 $404 reversed $197 $-1 #
model_id-kcp-attrib $-1 $-1 $-1 $200 1 990635265 50 -1372454911 39 #
coedge $-1 $290 $290 $405 $406 reversed $200 $-1 #
coedge $-1 $291 $291 $201 $292 forward $407 $-1 #
edge $408 $409 0 $409 6.2831853071795862 $291 $410 forward 7 unknown #
coedge $-1 $293 $293 $203 $294 forward $411 $-1 #
edge $412 $413 0 $413 6.2831853071795862 $293 $414 forward 7 unknown #
loop $415 $407 $204 $217 #
attrib_edge_convexity-kcp-attrib $-1 $416 $-1 $205 1 #
vertex $417 $205 $418 #
ellipse-curve $-1 -20 20 -2.5 0 0 1 2 0 0 1 I I #
loop $419 $411 $206 $308 #
attrib_edge_convexity-kcp-attrib $-1 $420 $-1 $207 1 #
vertex $421 $207 $422 #
ellipse-curve $-1 20 -20 2.5 0 0 -1 2 0 0 1 I I #
model_id-kcp-attrib $-1 $-1 $-1 $208 1 990635265 50 -1372454911 26 #
convexity-sys-attrib $-1 $-1 $209 $145 #
model_id-kcp-attrib $-1 $-1 $-1 $210 1 990635265 50 -1372454911 28 #
point $-1 22 -20 -2.5 #
model_id-kcp-attrib $-1 $-1 $-1 $212 1 990635265 50 -1372454911 20 #
face $423 $217 $212 $13 $-1 $424 forward single #
convexity-sys-attrib $-1 $-1 $213 $147 #
model_id-kcp-attrib $-1 $-1 $-1 $214 1 990635265 50 -1372454911 22 #
point $-1 22 20 2.5 #
model_id-kcp-attrib $-1 $425 $-1 $217 1 990635265 50 -1372454911 37 #
face $426 $427 $428 $13 $-1 $429 reversed single #
plane-surface $-1 0 0 -2.5 0 0 1 1 0 0 forward_v I I I I #
model_id-kcp-attrib $-1 $-1 $-1 $222 1 990635265 70 -1371144190 2 #
face $430 $-1 $237 $36 $-1 $431 reversed single #
loop $-1 $-1 $332 $222 #
plane-surface $-1 0 15 0 0 -1 0 0 0 -1 forward_v I I I I #
coedge $-1 $432 $330 $333 $433 forward $223 $-1 #
coedge $-1 $336 $225 $226 $324 reversed $154 $-1 #
coedge $-1 $330 $432 $225 $322 reversed $223 $-1 #
edge $-1 $337 -25 $434 25 $321 $435 forward 7 unknown #
coedge $-1 $227 $226 $432 $436 forward $102 $-1 #
edge $-1 $328 -25 $434 25 $320 $437 forward 7 unknown #
coedge $-1 $333 $332 $227 $326 reversed $317 $-1 #
edge $-1 $438 -25 $327 25 $325 $439 forward 7 unknown #
vertex $-1 $229 $440 #
vertex $-1 $339 $441 #
straight-curve $-1 25 0 -25 0 -1 0 I I #
coedge $-1 $319 $321 $230 $331 reversed $223 $-1 #
edge $-1 $334 -15 $337 15 $330 $442 forward 7 unknown #
coedge $-1 $325 $231 $236 $340 forward $317 $-1 #
coedge $-1 $231 $325 $319 $433 reversed $317 $-1 #
vertex $-1 $232 $443 #
straight-curve $-1 0 15 25 -1 0 0 I I #
coedge $-1 $233 $320 $235 $339 reversed $154 $-1 #
vertex $-1 $331 $444 #
straight-curve $-1 0 -15 25 1 0 0 I I #
edge $-1 $238 -25 $328 25 $235 $445 forward 7 unknown #
edge $-1 $239 -25 $327 25 $236 $446 forward 7 unknown #
point $-1 25 -15 25 #
point $-1 25 15 25 #
vertex $-1 $242 $447 #
ellipse-curve $-1 0 0 2.5 0 0 1 2 0 0 1 I I #
point $-1 2 0 -2.5 #
vertex $-1 $246 $448 #
ellipse-curve $-1 0 0 2.5 0 0 1 2 0 0 1 I I #
point $-1 2 0 -2.5 #
vertex $-1 $250 $449 #
ellipse-curve $-1 0 0 2.5 0 0 1 2 0 0 1 I I #
point $-1 2 0 -2.5 #
vertex $-1 $254 $450 #
ellipse-curve $-1 0 0 2.5 0 0 1 2 0 0 1 I I #
point $-1 2 0 -2.5 #
face $-1 $451 $368 $46 $-1 $452 forward single #
loop $-1 $-1 $453 $257 #
plane-surface $-1 -25 -10 -25 0 0 -1 -1 0 0 forward_v I I I I #
coedge $-1 $454 $455 $456 $457 forward $258 $-1 #
coedge $-1 $458 $260 $455 $459 reversed $182 $-1 #
coedge $-1 $260 $458 $261 $364 forward $182 $-1 #
coedge $-1 $263 $456 $260 $362 reversed $368 $-1 #
edge $-1 $370 -25 $460 25 $260 $461 forward 7 unknown #
coedge $-1 $262 $261 $462 $463 reversed $126 $-1 #
edge $-1 $464 0 $370 15 $360 $465 forward 7 unknown #
coedge $-1 $466 $453 $262 $366 reversed $356 $-1 #
edge $-1 $467 0 $369 15 $262 $468 forward 7 unknown #
coedge $-1 $456 $263 $453 $469 reversed $368 $-1 #
loop $-1 $267 $263 $355 #
vertex $-1 $366 $470 #
vertex $-1 $364 $471 #
straight-curve $-1 25 5 0 0 0 1 I I #
loop $-1 $-1 $265 $451 #
vertex $-1 $266 $472 #
ellipse-curve $-1 0 -10 0 0 1 0 15 0 0 1 I I #
point $-1 15 5 0 #
face $-1 $473 $389 $48 $-1 $474 forward single #
loop $-1 $-1 $475 $270 #
plane-surface $-1 -25 5 -25 0 0 -1 -1 0 0 forward_v I I I I #
coedge $-1 $476 $477 $478 $479 forward $271 $-1 #
coedge $-1 $480 $273 $477 $481 reversed $189 $-1 #
coedge $-1 $273 $480 $274 $385 forward $189 $-1 #
coedge $-1 $276 $478 $273 $383 reversed $389 $-1 #
edge $-1 $391 -25 $482 25 $273 $483 forward 7 unknown #
coedge $-1 $275 $274 $484 $485 reversed $131 $-1 #
edge $-1 $486 0 $391 10 $381 $487 forward 7 unknown #
coedge $-1 $488 $475 $275 $387 reversed $377 $-1 #
edge $-1 $489 0 $390 10 $275 $490 forward 7 unknown #
coedge $-1 $478 $276 $475 $491 reversed $389 $-1 #
loop $-1 $280 $276 $376 #
vertex $-1 $387 $492 #
vertex $-1 $385 $493 #
straight-curve $-1 25 15 0 0 0 1 I I #
loop $-1 $-1 $278 $473 #
vertex $-1 $279 $494 #
ellipse-curve $-1 0 5 0 0 1 0 6 0 0 1 I I #
point $-1 6 15 0 #
model_id-kcp-attrib $-1 $-1 $-1 $284 1 990635265 50 -1372454911 8 #
face $495 $308 $496 $13 $-1 $497 forward single #
loop $-1 $498 $499 $284 #
cone-surface $-1 0 0 10 0 0 1 15 0 0 1 I I 0 1 15 forward I I I I #
coedge $-1 $401 $401 $402 $500 forward $285 $-1 #
coedge $-1 $402 $402 $401 $500 reversed $287 $-1 #
coedge $-1 $403 $403 $288 $404 forward $496 $-1 #
edge $-1 $501 0 $501 6.2831853071795862 $403 $502 forward 7 unknown #
coedge $-1 $405 $405 $290 $406 forward $503 $-1 #
edge $504 $505 0 $505 6.2831853071795862 $405 $506 forward 7 unknown #
loop $507 $508 $291 $217 #
attrib_edge_convexity-kcp-attrib $-1 $509 $-1 $292 1 #
vertex $510 $292 $511 #
ellipse-curve $-1 -20 -20 -2.5 0 0 1 2 0 0 1 I I #
loop $512 $503 $293 $308 #
attrib_edge_convexity-kcp-attrib $-1 $513 $-1 $294 1 #
vertex $514 $294 $515 #
ellipse-curve $-1 -20 20 2.5 0 0 -1 2 0 0 1 I I #
model_id-kcp-attrib $-1 $-1 $-1 $295 1 990635265 50 -1372454911 33 #
convexity-sys-attrib $-1 $-1 $296 $205 #
model_id-kcp-attrib $-1 $-1 $-1 $297 1 990635265 50 -1372454911 35 #
point $-1 -18 20 -2.5 #
model_id-kcp-attrib $-1 $-1 $-1 $299 1 990635265 50 -1372454911 27 #
convexity-sys-attrib $-1 $-1 $300 $207 #
model_id-kcp-attrib $-1 $-1 $-1 $301 1 990635265 50 -1372454911 29 #
point $-1 22 -20 2.5 #
model_id-kcp-attrib $-1 $-1 $-1 $308 1 990635265 50 -1372454911 10 #
plane-surface $-1 0 0 2.5 0 0 1 1 0 0 forward_v I I I I #
model_id-kcp-attrib $-1 $516 $312 $217 1 990635265 50 -1372454911 30 #
model_id-kcp-attrib $-1 $-1 $-1 $313 1 990635265 50 -1372454911 12 #
face $517 $518 $519 $13 $-1 $520 reversed single #
loop $-1 $-1 $521 $313 #
plane-surface $-1 0 -25 0 0 1 0 0 0 1 forward_v I I I I #
model_id-kcp-attrib $-1 $-1 $-1 $316 1 990635265 70 -1371144190 7 #
plane-surface $-1 25 0 0 -1 0 0 0 0 1 forward_v I I I I #
coedge $-1 $321 $319 $323 $436 reversed $223 $-1 #
edge $-1 $334 -25 $438 25 $333 $522 forward 7 unknown #
vertex $-1 $436 $523 #
straight-curve $-1 -25 -15 0 0 0 -1 I I #
edge $-1 $434 -15 $438 15 $432 $524 forward 7 unknown #
straight-curve $-1 0 -15 -25 -1 0 0 I I #
vertex $-1 $326 $525 #
straight-curve $-1 0 15 -25 1 0 0 I I #
point $-1 25 15 -25 #
point $-1 25 -15 -25 #
straight-curve $-1 -25 0 25 0 -1 0 I I #
point $-1 -25 15 25 #
point $-1 -25 -15 25 #
straight-curve $-1 25 -15 0 0 0 -1 I I #
straight-curve $-1 25 15 0 0 0 -1 I I #
point $-1 2 0 2.5 #
point $-1 2 0 2.5 #
point $-1 2 0 2.5 #
point $-1 2 0 2.5 #
face $-1 $-1 $526 $46 $-1 $527 reversed single #
plane-surface $-1 0.43677372735449693 5 2.1042397605440006e-016 0 1 0 0 0 1 forward_v I I I I #
coedge $-1 $365 $528 $367 $469 forward $356 $-1 #
coedge $-1 $529 $358 $528 $530 reversed $258 $-1 #
coedge $-1 $358 $529 $359 $459 forward $258 $-1 #
coedge $-1 $361 $367 $358 $457 reversed $368 $-1 #
edge $-1 $460 -25 $531 25 $358 $532 forward 7 unknown #
coedge $-1 $360 $359 $533 $534 reversed $182 $-1 #
edge $-1 $535 0 $460 15 $455 $536 forward 7 unknown #
vertex $-1 $459 $537 #
straight-curve $-1 0 5 25 -1 0 0 I I #
coedge $-1 $533 $538 $363 $463 forward $526 $-1 #
edge $539 $467 -25 $464 25 $363 $540 forward 7 unknown #
vertex $-1 $463 $541 #
straight-curve $-1 25 -10 25 0 1 0 I I #
coedge $-1 $528 $365 $538 $542 reversed $356 $-1 #
vertex $-1 $542 $543 #
straight-curve $-1 25 -10 -25 0 1 0 I I #
edge $-1 $531 -25 $369 25 $453 $544 forward 7 unknown #
point $-1 25 5 -25 #
point $-1 25 5 25 #
point $-1 15 -10 0 #
face $-1 $-1 $545 $48 $-1 $546 reversed single #
plane-surface $-1 0.086509165957595752 15 2.1187934859109265e-017 0 1 0 0 0 1 forward_v I I I I #
coedge $-1 $386 $547 $388 $491 forward $377 $-1 #
coedge $-1 $548 $379 $547 $549 reversed $271 $-1 #
coedge $-1 $379 $548 $380 $481 forward $271 $-1 #
coedge $-1 $382 $388 $379 $479 reversed $389 $-1 #
edge $-1 $482 -25 $550 25 $379 $551 forward 7 unknown #
coedge $-1 $381 $380 $552 $553 reversed $189 $-1 #
edge $-1 $554 0 $482 10 $477 $555 forward 7 unknown #
vertex $-1 $481 $556 #
straight-curve $-1 0 15 25 -1 0 0 I I #
coedge $-1 $552 $557 $384 $485 forward $545 $-1 #
edge $558 $489 -25 $486 25 $384 $559 forward 7 unknown #
vertex $-1 $485 $560 #
straight-curve $-1 25 5 25 0 1 0 I I #
coedge $-1 $547 $386 $557 $561 reversed $377 $-1 #
vertex $-1 $561 $562 #
straight-curve $-1 25 5 -25 0 1 0 I I #
edge $-1 $550 -25 $390 25 $475 $563 forward 7 unknown #
point $-1 25 15 -25 #
point $-1 25 15 25 #
point $-1 6 5 0 #
model_id-kcp-attrib $-1 $-1 $-1 $398 1 990635265 50 -1372454911 9 #
loop $-1 $564 $403 $398 #
plane-surface $-1 0 0 17.5 0 0 1 1 0 0 forward_v I I I I #
loop $-1 $-1 $565 $284 #
coedge $-1 $499 $499 $566 $567 reversed $399 $-1 #
edge $568 $569 0 $569 6.2831853071795862 $401 $570 forward 7 unknown #
vertex $-1 $404 $571 #
ellipse-curve $-1 0 0 17.5 0 0 -1 6 0 0 1 I I #
loop $572 $573 $405 $308 #
attrib_edge_convexity-kcp-attrib $-1 $574 $-1 $406 1 #
vertex $575 $406 $576 #
ellipse-curve $-1 -20 -20 2.5 0 0 -1 2 0 0 1 I I #
model_id-kcp-attrib $-1 $-1 $-1 $407 1 990635265 50 -1372454911 40 #
loop $-1 $-1 $577 $217 #
convexity-sys-attrib $-1 $-1 $408 $292 #
model_id-kcp-attrib $-1 $-1 $-1 $409 1 990635265 50 -1372454911 42 #
point $-1 -18 -20 -2.5 #
model_id-kcp-attrib $-1 $-1 $-1 $411 1 990635265 50 -1372454911 34 #
convexity-sys-attrib $-1 $-1 $412 $294 #
model_id-kcp-attrib $-1 $-1 $-1 $413 1 990635265 50 -1372454911 36 #
point $-1 -18 20 2.5 #
model_id-kcp-attrib $-1 $578 $425 $217 1 990635265 50 -1372454911 23 #
model_id-kcp-attrib $-1 $-1 $-1 $427 1 990635265 50 -1372454911 13 #
face $579 $580 $581 $13 $-1 $582 reversed single #
loop $-1 $-1 $583 $427 #
plane-surface $-1 -25 0 0 1 0 0 0 0 -1 forward_v I I I I #
coedge $-1 $584 $585 $586 $587 forward $428 $-1 #
straight-curve $-1 -25 15 0 0 0 -1 I I #
point $-1 -25 -15 -25 #
straight-curve $-1 -25 0 -25 0 1 0 I I #
point $-1 -25 15 -25 #
loop $-1 $372 $538 $451 #
plane-surface $-1 0.43677372735449693 -10 2.1042397605440006e-016 0 1 0 0 0 1 forward_v I I I I #
coedge $-1 $453 $466 $454 $530 forward $356 $-1 #
coedge $-1 $455 $454 $588 $589 reversed $258 $-1 #
edge $-1 $590 0 $531 15 $528 $591 forward 7 unknown #
vertex $-1 $530 $592 #
straight-curve $-1 -25 5 0 0 0 -1 I I #
coedge $-1 $588 $462 $458 $534 forward $526 $-1 #
edge $593 $464 -25 $535 25 $458 $594 forward 7 unknown #
vertex $-1 $534 $595 #
straight-curve $-1 -25 -10 25 0 1 0 I I #
point $-1 -25 5 25 #
coedge $-1 $462 $588 $466 $542 forward $526 $-1 #
convexity-sys-attrib $-1 $-1 $-1 $463 #
straight-curve $-1 25 -10 0 0 0 1 I I #
point $-1 25 -10 25 #
edge $596 $590 -25 $467 25 $466 $597 forward 7 unknown #
point $-1 25 -10 -25 #
straight-curve $-1 0 5 -25 1 0 0 I I #
loop $-1 $393 $557 $473 #
plane-surface $-1 0.086509165957595752 5.0000000000000009 2.1187934859109265e-017 0 1 0 0 0 1 forward_v I I I I #
coedge $-1 $475 $488 $476 $549 forward $377 $-1 #
coedge $-1 $477 $476 $598 $599 reversed $271 $-1 #
edge $-1 $600 0 $550 10 $547 $601 forward 7 unknown #
vertex $-1 $549 $602 #
straight-curve $-1 -25 15 0 0 0 -1 I I #
coedge $-1 $598 $484 $480 $553 forward $545 $-1 #
edge $603 $486 -25 $554 25 $480 $604 forward 7 unknown #
vertex $-1 $553 $605 #
straight-curve $-1 -25 5 25 0 1 0 I I #
point $-1 -25 15 25 #
coedge $-1 $484 $598 $488 $561 forward $545 $-1 #
convexity-sys-attrib $-1 $-1 $-1 $485 #
straight-curve $-1 25 5 0 0 0 1 I I #
point $-1 25 5 25 #
edge $606 $600 -25 $489 25 $488 $607 forward 7 unknown #
point $-1 25 5 -25 #
straight-curve $-1 0 15 -25 1 0 0 I I #
loop $-1 $-1 $608 $398 #
coedge $-1 $565 $565 $608 $609 reversed $498 $-1 #
coedge $-1 $566 $566 $499 $567 forward $573 $-1 #
edge $-1 $610 0 $610 6.2831853071795862 $566 $611 forward 7 unknown #
attrib_edge_convexity-kcp-attrib $-1 $612 $-1 $500 1 #
vertex $-1 $500 $613 #
ellipse-curve $-1 0 0 27.5 0 0 1 6 0 0 1 I I #
point $-1 6 0 17.5 #
model_id-kcp-attrib $-1 $-1 $-1 $503 1 990635265 50 -1372454911 41 #
loop $-1 $614 $566 $308 #
convexity-sys-attrib $-1 $-1 $504 $406 #
model_id-kcp-attrib $-1 $-1 $-1 $505 1 990635265 50 -1372454911 43 #
point $-1 -18 -20 2.5 #
coedge $-1 $615 $616 $617 $618 forward $508 $-1 #
model_id-kcp-attrib $-1 $619 $516 $217 1 990635265 50 -1372454911 16 #
model_id-kcp-attrib $-1 $-1 $-1 $518 1 990635265 50 -1372454911 14 #
face $620 $-1 $621 $13 $-1 $622 reversed single #
loop $-1 $-1 $623 $518 #
plane-surface $-1 0 25 0 0 -1 0 0 0 -1 forward_v I I I I #
coedge $-1 $624 $625 $626 $627 forward $519 $-1 #
coedge $-1 $628 $521 $615 $629 reversed $428 $-1 #
coedge $-1 $521 $628 $630 $631 reversed $428 $-1 #
coedge $-1 $625 $624 $521 $587 reversed $519 $-1 #
edge $632 $633 -2.5 $634 2.5 $586 $635 forward 7 unknown #
coedge $-1 $538 $533 $529 $589 forward $526 $-1 #
edge $636 $535 -25 $590 25 $529 $637 forward 7 unknown #
vertex $-1 $542 $638 #
straight-curve $-1 -25 -10 -25 0 1 0 I I #
point $-1 -25 5 -25 #
convexity-sys-attrib $-1 $-1 $-1 $534 #
straight-curve $-1 0 -10 25 -1 0 0 I I #
point $-1 -25 -10 25 #
convexity-sys-attrib $-1 $-1 $-1 $542 #
straight-curve $-1 0 -10 -25 1 0 0 I I #
coedge $-1 $557 $552 $548 $599 forward $545 $-1 #
edge $639 $554 -25 $600 25 $548 $640 forward 7 unknown #
vertex $-1 $561 $641 #
straight-curve $-1 -25 5 -25 0 1 0 I I #
point $-1 -25 15 -25 #
convexity-sys-attrib $-1 $-1 $-1 $553 #
straight-curve $-1 0 5 25 -1 0 0 I I #
point $-1 -25 5 25 #
convexity-sys-attrib $-1 $-1 $-1 $561 #
straight-curve $-1 0 5 -25 1 0 0 I I #
coedge $-1 $608 $608 $565 $609 forward $564 $-1 #
edge $-1 $642 0 $642 6.2831853071795862 $608 $643 forward 7 unknown #
vertex $-1 $567 $644 #
ellipse-curve $-1 0 0 2.5 0 0 -1 15 0 0 1 I I #
convexity-sys-attrib $-1 $-1 $568 $500 #
point $-1 6 0 27.5 #
loop $-1 $-1 $645 $308 #
coedge $-1 $646 $577 $584 $629 forward $508 $-1 #
coedge $-1 $577 $646 $647 $648 forward $508 $-1 #
coedge $-1 $649 $650 $577 $618 reversed $621 $-1 #
edge $-1 $651 -25 $652 25 $617 $653 forward 7 unknown #
model_id-kcp-attrib $-1 $-1 $578 $217 1 990635265 50 -1372454911 11 #
model_id-kcp-attrib $-1 $-1 $-1 $580 1 990635265 50 -1372454911 15 #
loop $-1 $-1 $650 $580 #
plane-surface $-1 25 0 0 -1 0 0 0 0 1 forward_v I I I I #
coedge $-1 $647 $654 $649 $655 forward $581 $-1 #
coedge $-1 $586 $583 $646 $656 reversed $519 $-1 #
coedge $-1 $583 $586 $657 $658 reversed $519 $-1 #
coedge $-1 $654 $647 $583 $627 reversed $581 $-1 #
edge $659 $660 -2.5 $661 2.5 $626 $662 forward 7 unknown #
coedge $-1 $585 $584 $650 $663 reversed $428 $-1 #
edge $664 $652 -25 $634 25 $584 $665 forward 7 unknown #
coedge $-1 $645 $657 $585 $631 forward $614 $-1 #
edge $666 $633 -25 $667 25 $585 $668 forward 7 unknown #
attrib_edge_convexity-kcp-attrib $-1 $669 $-1 $587 1 #
vertex $-1 $658 $670 #
vertex $-1 $656 $671 #
straight-curve $-1 -25 -25 0 0 0 -1 I I #
convexity-sys-attrib $-1 $-1 $-1 $589 #
straight-curve $-1 -25 -10 0 0 0 -1 I I #
point $-1 -25 -10 -25 #
convexity-sys-attrib $-1 $-1 $-1 $599 #
straight-curve $-1 -25 5 0 0 0 -1 I I #
point $-1 -25 5 -25 #
vertex $-1 $609 $672 #
ellipse-curve $-1 0 0 17.5 0 0 1 15 0 0 1 I I #
point $-1 15 0 2.5 #
coedge $-1 $673 $630 $674 $675 forward $614 $-1 #
coedge $-1 $616 $615 $624 $656 forward $508 $-1 #
coedge $-1 $626 $623 $616 $648 reversed $581 $-1 #
edge $-1 $661 -25 $651 25 $647 $676 forward 7 unknown #
coedge $-1 $674 $617 $623 $655 reversed $621 $-1 #
coedge $-1 $617 $674 $628 $663 forward $621 $-1 #
vertex $-1 $618 $677 #
vertex $-1 $663 $678 #
straight-curve $-1 25 0 -2.5 0 -1 0 I I #
coedge $-1 $623 $626 $673 $679 reversed $581 $-1 #
edge $-1 $680 -2.5 $651 2.5 $649 $681 forward 7 unknown #
edge $682 $634 -25 $661 25 $624 $683 forward 7 unknown #
coedge $-1 $630 $673 $625 $658 forward $614 $-1 #
edge $684 $660 -25 $633 25 $625 $685 forward 7 unknown #
attrib_edge_convexity-kcp-attrib $-1 $686 $-1 $627 1 #
vertex $-1 $679 $687 #
vertex $-1 $648 $688 #
straight-curve $-1 -25 25 0 0 0 -1 I I #
edge $689 $667 -2.5 $652 2.5 $650 $690 forward 7 unknown #
attrib_edge_convexity-kcp-attrib $-1 $691 $-1 $629 1 #
straight-curve $-1 0 -25 -2.5 -1 0 0 I I #
attrib_edge_convexity-kcp-attrib $-1 $692 $-1 $631 1 #
vertex $-1 $675 $693 #
straight-curve $-1 0 -25 2.5 1 0 0 I I #
convexity-sys-attrib $-1 $-1 $632 $587 #
point $-1 -25 -25 2.5 #
point $-1 -25 -25 -2.5 #
point $-1 15 0 17.5 #
coedge $-1 $657 $645 $654 $679 forward $614 $-1 #
coedge $-1 $650 $649 $645 $675 reversed $621 $-1 #
edge $-1 $667 -25 $680 25 $674 $694 forward 7 unknown #
straight-curve $-1 0 25 -2.5 1 0 0 I I #
point $-1 25 25 -2.5 #
point $-1 25 -25 -2.5 #
edge $-1 $680 -25 $660 25 $654 $695 forward 7 unknown #
vertex $-1 $675 $696 #
straight-curve $-1 25 25 0 0 0 -1 I I #
attrib_edge_convexity-kcp-attrib $-1 $697 $-1 $656 1 #
straight-curve $-1 -25 0 -2.5 0 1 0 I I #
attrib_edge_convexity-kcp-attrib $-1 $698 $-1 $658 1 #
straight-curve $-1 -25 0 2.5 0 -1 0 I I #
convexity-sys-attrib $-1 $-1 $659 $627 #
point $-1 -25 25 2.5 #
point $-1 -25 25 -2.5 #
attrib_edge_convexity-kcp-attrib $-1 $699 $-1 $663 1 #
straight-curve $-1 25 -25 0 0 0 -1 I I #
convexity-sys-attrib $-1 $-1 $664 $629 #
convexity-sys-attrib $-1 $-1 $666 $631 #
point $-1 25 -25 2.5 #
straight-curve $-1 25 0 2.5 0 1 0 I I #
straight-curve $-1 0 25 2.5 -1 0 0 I I #
point $-1 25 25 2.5 #
convexity-sys-attrib $-1 $-1 $682 $656 #
convexity-sys-attrib $-1 $-1 $684 $658 #
convexity-sys-attrib $-1 $-1 $689 $663 #
End-of-ACIS-data 