600 0 2 0           
24 FBMach with ACIS - 6.0.3 13 ACIS 6.0.3 NT 24 Wed May 23 12:27:51 2001 
1 9.9999999999999995e-007 1e-010 
body $2 $3 $-1 $4 #
bdycol-kcp $-1 1 3 $5 $6 $7 #
model_id-kcp-attrib $-1 $8 $-1 $0 1 990635271 60 -46399487 1 #
lump $-1 $-1 $9 $0 #
transform $-1 1 0 0 0 0 1 0 -1 0 20 -95 20 1 rotate no_reflect no_shear #
body $10 $11 $-1 $12 #
body $13 $14 $-1 $15 #
body $16 $17 $-1 $18 #
rgb_color-st-attrib $-1 $-1 $2 $0 0 1 0 #
shell $-1 $-1 $-1 $19 $-1 $3 #
model_id-kcp-attrib $-1 $-1 $-1 $5 1 990635271 70 -45744126 1 #
lump $-1 $-1 $20 $5 #
transform $-1 1 0 0 0 1 0 0 0 1 20 -93 20 1 no_rotate no_reflect no_shear #
rgb_color-st-attrib $-1 $21 $-1 $6 0.5 1 1 #
lump $-1 $-1 $22 $6 #
transform $-1 1 0 0 0 1 0 0 0 1 20 -93 20 1 no_rotate no_reflect no_shear #
model_id-kcp-attrib $-1 $23 $-1 $7 1 990635271 210 -36569084 1 #
lump $-1 $-1 $24 $7 #
transform $-1 1 0 0 0 1 0 0 0 1 20 -93 20 1 no_rotate no_reflect no_shear #
face $25 $26 $27 $9 $-1 $28 forward single #
shell $-1 $-1 $-1 $29 $-1 $11 #
model_id-kcp-attrib $-1 $-1 $13 $6 1 990635271 120 -42467325 1 #
shell $-1 $-1 $-1 $30 $-1 $14 #
rgb_color-st-attrib $-1 $-1 $16 $7 1 0.5 1 #
shell $-1 $-1 $-1 $31 $-1 $17 #
model_id-kcp-attrib $-1 $-1 $-1 $19 1 990635271 60 -46399487 2 #
face $32 $33 $34 $9 $-1 $35 forward single #
loop $-1 $36 $37 $19 #
plane-surface $-1 0 0 -5 0 0 1 -1 0 0 forward_v I I I I #
face $-1 $38 $39 $20 $-1 $40 forward single #
face $-1 $41 $42 $22 $-1 $43 reversed single #
face $-1 $44 $45 $24 $-1 $46 forward single #
model_id-kcp-attrib $-1 $-1 $-1 $26 1 990635271 60 -46399487 3 #
face $47 $48 $49 $9 $-1 $50 forward single #
loop $-1 $51 $52 $26 #
cone-surface $-1 0 0 -7 0 0 -1 4 0 0 1 I I 0 1 4 forward I I I I #
loop $-1 $-1 $53 $19 #
coedge $-1 $37 $37 $52 $54 forward $27 $-1 #
face $-1 $55 $56 $20 $-1 $57 reversed single #
loop $-1 $-1 $58 $29 #
plane-surface $-1 0 0 4 0 0 1 1 0 0 forward_v I I I I #
face $-1 $59 $60 $22 $-1 $43 reversed single #
loop $-1 $-1 $61 $30 #
cone-surface $-1 0 7 0 0 1 0 -4 0 4.898425415289509e-016 1 I I 0 1 4 forward I I I I #
face $-1 $62 $63 $24 $-1 $64 forward single #
loop $-1 $65 $66 $31 #
cone-surface $-1 0 3 0 0 -1 0 2 0 0 1 I I 0 -1 2 forward I I I I #
model_id-kcp-attrib $-1 $67 $-1 $33 1 990635271 60 -46399487 7 #
face $68 $69 $70 $9 $-1 $71 forward single #
loop $-1 $-1 $72 $33 #
plane-surface $-1 0 0 -9 0 0 -1 1 0 0 forward_v I I I I #
loop $-1 $-1 $73 $26 #
coedge $-1 $52 $52 $37 $54 reversed $34 $-1 #
coedge $-1 $53 $53 $74 $75 forward $36 $-1 #
edge $-1 $76 0 $76 6.2831853071795862 $37 $77 forward 7 unknown #
face $78 $79 $80 $20 $-1 $81 reversed single #
loop $-1 $-1 $82 $38 #
plane-surface $-1 0 0 -4 0 0 1 1 0 0 forward_v I I I I #
coedge $-1 $83 $84 $85 $86 forward $39 $-1 #
face $-1 $87 $88 $22 $-1 $43 reversed single #
loop $-1 $-1 $89 $41 #
coedge $-1 $90 $91 $92 $93 reversed $42 $-1 #
face $-1 $94 $95 $24 $-1 $96 reversed single #
loop $-1 $97 $98 $44 #
cone-surface $-1 0 3 0 0 -1 0 -4 0 4.898425415289509e-016 1 I I 0 1 4 forward I I I I #
loop $-1 $-1 $99 $31 #
coedge $-1 $66 $66 $100 $101 forward $45 $-1 #
model_id-kcp-attrib $-1 $-1 $47 $33 1 990635271 60 -46399487 4 #
model_id-kcp-attrib $-1 $-1 $-1 $48 1 990635271 60 -46399487 5 #
face $102 $-1 $103 $9 $-1 $104 forward single #
loop $-1 $105 $74 $48 #
cone-surface $-1 0 0 0 0 0 1 2 0 0 1 I I 0 1 2 forward I I I I #
coedge $-1 $72 $72 $73 $106 forward $49 $-1 #
coedge $-1 $73 $73 $72 $106 reversed $51 $-1 #
coedge $-1 $74 $74 $53 $75 reversed $70 $-1 #
edge $-1 $107 0 $107 6.2831853071795862 $74 $108 forward 7 unknown #
vertex $-1 $54 $109 #
ellipse-curve $-1 0 0 -5 0 0 1 4 0 0 1 I I #
model_id-kcp-attrib $-1 $-1 $-1 $55 1 990635271 70 -45744126 3 #
face $-1 $110 $111 $20 $-1 $112 reversed single #
loop $-1 $-1 $113 $55 #
plane-surface $-1 0 -7 0 0 1 0 0 0 1 forward_v I I I I #
coedge $-1 $114 $115 $116 $117 forward $56 $-1 #
coedge $-1 $118 $58 $119 $120 forward $39 $-1 #
coedge $-1 $58 $118 $121 $122 forward $39 $-1 #
coedge $-1 $123 $124 $58 $86 reversed $125 $-1 #
edge $-1 $126 -7 $127 7 $85 $128 forward 7 unknown #
face $-1 $129 $130 $22 $-1 $43 reversed single #
loop $-1 $-1 $131 $59 #
coedge $-1 $132 $133 $134 $135 reversed $60 $-1 #
coedge $-1 $136 $61 $137 $138 forward $42 $-1 #
coedge $-1 $61 $136 $139 $140 reversed $42 $-1 #
coedge $-1 $141 $142 $61 $93 forward $143 $-1 #
edge $-1 $144 -1.2246063538223773e-016 $145 1.5707963267948966 $92 $146 forward 7 unknown #
face $-1 $-1 $147 $24 $-1 $148 forward single #
loop $-1 $149 $150 $62 #
plane-surface $-1 0.30303030303030287 -7 3.8985281753675749e-017 0 1 0 0 0 1 forward_v I I I I #
loop $-1 $-1 $151 $44 #
coedge $-1 $98 $98 $150 $152 forward $63 $-1 #
coedge $-1 $99 $99 $153 $154 reversed $65 $-1 #
coedge $-1 $100 $100 $66 $101 reversed $149 $-1 #
edge $-1 $155 0 $155 6.2831853071795862 $66 $156 forward 7 unknown #
model_id-kcp-attrib $-1 $-1 $-1 $69 1 990635271 60 -46399487 6 #
loop $-1 $-1 $157 $69 #
plane-surface $-1 0 0 5 0 0 1 1 0 0 forward_v I I I I #
loop $-1 $-1 $158 $48 #
edge $159 $160 0 $160 6.2831853071795862 $72 $161 forward 7 unknown #
vertex $-1 $75 $162 #
ellipse-curve $-1 0 0 -5 0 0 -1 2 0 0 1 I I #
point $-1 4 0 -5 #
face $163 $164 $165 $20 $-1 $166 reversed single #
loop $-1 $-1 $167 $79 #
plane-surface $-1 -4 0 0 1 0 0 0 0 -1 forward_v I I I I #
coedge $-1 $168 $121 $169 $170 forward $80 $-1 #
coedge $-1 $171 $82 $168 $172 forward $56 $-1 #
coedge $-1 $82 $171 $173 $174 forward $56 $-1 #
coedge $-1 $124 $123 $82 $117 reversed $125 $-1 #
edge $-1 $175 -7 $176 7 $116 $177 forward 7 unknown #
coedge $-1 $84 $83 $178 $179 forward $39 $-1 #
coedge $-1 $180 $181 $83 $120 reversed $165 $-1 #
edge $-1 $127 -4 $182 4 $119 $183 forward 7 unknown #
coedge $-1 $113 $184 $84 $122 reversed $80 $-1 #
edge $-1 $185 -4 $126 4 $121 $186 forward 7 unknown #
coedge $-1 $116 $85 $184 $187 forward $125 $-1 #
coedge $-1 $85 $116 $180 $188 reversed $125 $-1 #
loop $-1 $-1 $123 $164 #
vertex $-1 $86 $189 #
vertex $-1 $86 $190 #
straight-curve $-1 4 0 4 0 1 0 I I #
face $-1 $191 $192 $22 $-1 $193 forward single #
loop $-1 $-1 $194 $87 #
coedge $-1 $195 $196 $194 $197 forward $88 $-1 #
coedge $-1 $198 $89 $199 $200 reversed $60 $-1 #
coedge $-1 $89 $198 $91 $140 forward $60 $-1 #
coedge $-1 $201 $202 $89 $135 forward $203 $-1 #
edge $-1 $204 -3.1415926535897931 $205 -1.5707963267948966 $134 $206 forward 7 unknown #
coedge $-1 $91 $90 $207 $208 reversed $42 $-1 #
coedge $-1 $196 $195 $209 $138 reversed $88 $-1 #
edge $-1 $144 -14 $210 0 $209 $211 forward 7 unknown #
coedge $-1 $212 $213 $214 $140 forward $215 $-1 #
edge $-1 $145 -14 $205 0 $139 $216 forward 7 unknown #
coedge $-1 $142 $92 $213 $217 reversed $143 $-1 #
coedge $-1 $92 $141 $218 $219 forward $143 $-1 #
loop $-1 $-1 $92 $220 #
vertex $-1 $221 $222 #
vertex $-1 $223 $224 #
ellipse-curve $-1 0 -7 0 0 1 0 -4 0 4.898425415289509e-016 1 I I #
loop $-1 $225 $226 $94 #
plane-surface $-1 0.30303030303030287 3 3.8985281753675749e-017 0 1 0 0 0 1 forward_v I I I I #
loop $-1 $-1 $100 $62 #
coedge $-1 $150 $150 $98 $152 reversed $95 $-1 #
coedge $-1 $151 $151 $226 $227 reversed $97 $-1 #
edge $-1 $228 -3.1415926535897931 $228 3.1415926535897931 $98 $229 forward 7 unknown #
coedge $-1 $153 $153 $99 $154 forward $225 $-1 #
edge $-1 $230 0 $230 6.2831853071795862 $99 $231 forward 7 unknown #
vertex $-1 $101 $232 #
ellipse-curve $-1 0 -7 0 0 -1 0 2 0 0 1 I I #
coedge $-1 $157 $157 $158 $233 forward $103 $-1 #
coedge $-1 $158 $158 $157 $233 reversed $105 $-1 #
attrib_edge_convexity-kcp-attrib $-1 $234 $-1 $106 1 #
vertex $-1 $106 $235 #
ellipse-curve $-1 0 0 -9 0 0 -1 4 0 0 1 I I #
point $-1 2 0 -5 #
model_id-kcp-attrib $-1 $-1 $-1 $110 1 990635271 70 -45744126 2 #
face $-1 $-1 $125 $20 $-1 $236 reversed single #
loop $-1 $-1 $180 $110 #
plane-surface $-1 0 7 0 0 -1 0 0 0 -1 forward_v I I I I #
coedge $-1 $237 $178 $181 $238 forward $111 $-1 #
coedge $-1 $184 $113 $114 $172 reversed $80 $-1 #
coedge $-1 $178 $237 $113 $170 reversed $111 $-1 #
edge $-1 $185 -4 $239 4 $169 $240 forward 7 unknown #
coedge $-1 $115 $114 $237 $241 forward $56 $-1 #
edge $-1 $176 -4 $239 4 $168 $242 forward 7 unknown #
coedge $-1 $181 $180 $115 $174 reversed $165 $-1 #
edge $-1 $243 -4 $175 4 $173 $244 forward 7 unknown #
vertex $-1 $117 $245 #
vertex $-1 $187 $246 #
straight-curve $-1 4 0 -4 0 -1 0 I I #
coedge $-1 $167 $169 $118 $179 reversed $111 $-1 #
edge $-1 $182 -7 $185 7 $178 $247 forward 7 unknown #
coedge $-1 $173 $119 $124 $188 forward $165 $-1 #
coedge $-1 $119 $173 $167 $238 reversed $165 $-1 #
vertex $-1 $120 $248 #
straight-curve $-1 0 7 4 -1 0 0 I I #
coedge $-1 $121 $168 $123 $187 reversed $80 $-1 #
vertex $-1 $179 $249 #
straight-curve $-1 0 -7 4 1 0 0 I I #
edge $-1 $126 -4 $176 4 $123 $250 forward 7 unknown #
edge $-1 $127 -4 $175 4 $124 $251 forward 7 unknown #
point $-1 4 -7 4 #
point $-1 4 7 4 #
face $-1 $252 $253 $22 $-1 $254 reversed single #
loop $-1 $-1 $214 $129 #
plane-surface $-1 0 0 4 0 0 1 1 0 0 forward_v I I I I #
coedge $-1 $255 $256 $257 $197 reversed $130 $-1 #
coedge $-1 $137 $131 $258 $259 reversed $88 $-1 #
coedge $-1 $131 $137 $260 $261 reversed $88 $-1 #
edge $-1 $262 -14 $263 0 $257 $264 forward 7 unknown #
coedge $-1 $133 $132 $265 $266 reversed $60 $-1 #
coedge $-1 $267 $268 $269 $200 forward $270 $-1 #
edge $-1 $271 -14 $204 0 $199 $272 forward 7 unknown #
coedge $-1 $202 $134 $273 $274 reversed $203 $-1 #
coedge $-1 $134 $201 $267 $275 forward $203 $-1 #
loop $-1 $-1 $134 $276 #
vertex $-1 $277 $278 #
vertex $-1 $279 $280 #
ellipse-curve $-1 0 7 0 0 -1 0 -4 0 4.898425415289509e-016 1 I I #
coedge $-1 $281 $282 $136 $208 forward $283 $-1 #
edge $-1 $205 -1.5707963267948966 $210 1.2246063538223773e-016 $207 $206 forward 7 unknown #
coedge $-1 $284 $285 $286 $138 forward $253 $-1 #
vertex $-1 $287 $288 #
straight-curve $-1 -4 7 0 0 1 0 I I #
coedge $-1 $289 $139 $282 $279 forward $215 $-1 #
coedge $-1 $139 $289 $141 $217 forward $215 $-1 #
coedge $-1 $290 $273 $133 $140 reversed $192 $-1 #
loop $-1 $-1 $139 $291 #
straight-curve $-1 0 7 4 0 1 0 I I #
edge $-1 $292 -4 $145 0 $141 $293 forward 7 unknown #
coedge $-1 $294 $286 $142 $219 reversed $295 $-1 #
edge $-1 $292 -4 $144 0 $218 $296 forward 7 unknown #
face $-1 $297 $143 $22 $-1 $298 reversed single #
edge $-1 $144 0 $299 4 $285 $296 forward 7 unknown #
point $-1 -4 -7 0 #
edge $-1 $145 0 $300 4 $301 $293 forward 7 unknown #
point $-1 0 -7 4 #
loop $-1 $-1 $153 $94 #
coedge $-1 $226 $226 $151 $227 forward $147 $-1 #
edge $302 $303 -3.1415926535897931 $303 3.1415926535897931 $151 $304 forward 7 unknown #
vertex $-1 $152 $305 #
ellipse-curve $-1 0 -7 0 0 1 0 -4 0 4.898425415289509e-016 1 I I #
vertex $-1 $154 $306 #
ellipse-curve $-1 0 3 0 0 -1 0 2 0 0 1 I I #
point $-1 2 -7 0 #
edge $-1 $307 0 $307 6.2831853071795862 $157 $308 forward 7 unknown #
convexity-sys-attrib $-1 $-1 $159 $106 #
point $-1 4 0 -9 #
plane-surface $-1 4 0 0 -1 0 0 0 0 1 forward_v I I I I #
coedge $-1 $169 $167 $171 $241 reversed $111 $-1 #
edge $-1 $182 -4 $243 4 $181 $309 forward 7 unknown #
vertex $-1 $241 $310 #
straight-curve $-1 -4 -7 0 0 0 -1 I I #
edge $-1 $239 -7 $243 7 $237 $311 forward 7 unknown #
straight-curve $-1 0 -7 -4 -1 0 0 I I #
vertex $-1 $174 $312 #
straight-curve $-1 0 7 -4 1 0 0 I I #
point $-1 4 7 -4 #
point $-1 4 -7 -4 #
straight-curve $-1 -4 0 4 0 -1 0 I I #
point $-1 -4 7 4 #
point $-1 -4 -7 4 #
straight-curve $-1 4 -7 0 0 0 -1 I I #
straight-curve $-1 4 7 0 0 0 -1 I I #
face $-1 $313 $314 $22 $-1 $315 reversed single #
loop $-1 $-1 $209 $191 #
plane-surface $-1 -4 0 0 1 0 0 0 0 -1 forward_v I I I I #
coedge $-1 $316 $194 $317 $318 reversed $130 $-1 #
coedge $-1 $194 $316 $319 $320 reversed $130 $-1 #
coedge $-1 $321 $322 $323 $197 forward $324 $-1 #
coedge $-1 $325 $326 $195 $259 forward $327 $-1 #
edge $-1 $210 1.2246063538223773e-016 $263 1.5707963267948968 $258 $206 forward 7 unknown #
coedge $-1 $328 $329 $196 $261 forward $330 $-1 #
edge $-1 $262 -1.5707963267948968 $144 -1.2246063538223773e-016 $260 $146 forward 7 unknown #
vertex $-1 $331 $332 #
vertex $-1 $333 $334 #
straight-curve $-1 0 7 -4 0 1 0 I I #
coedge $-1 $335 $301 $198 $266 forward $336 $-1 #
edge $-1 $145 1.5707963267948966 $271 3.1415926535897931 $265 $146 forward 7 unknown #
coedge $-1 $337 $199 $202 $275 reversed $270 $-1 #
coedge $-1 $199 $337 $335 $338 forward $270 $-1 #
coedge $-1 $339 $340 $316 $200 reversed $314 $-1 #
loop $-1 $-1 $199 $341 #
vertex $-1 $342 $343 #
straight-curve $-1 4 7 0 0 1 0 I I #
coedge $-1 $214 $344 $201 $274 forward $192 $-1 #
edge $-1 $345 -4 $205 0 $201 $346 forward 7 unknown #
edge $-1 $345 -4 $204 0 $267 $347 forward 7 unknown #
face $-1 $348 $203 $22 $-1 $349 reversed single #
edge $-1 $204 0 $350 4 $340 $347 forward 7 unknown #
point $-1 4 7 0 #
edge $-1 $205 0 $351 4 $282 $346 forward 7 unknown #
point $-1 0 7 4 #
coedge $-1 $282 $207 $352 $353 reversed $283 $-1 #
coedge $-1 $207 $281 $212 $279 reversed $283 $-1 #
loop $-1 $-1 $207 $348 #
coedge $-1 $354 $209 $326 $287 forward $253 $-1 #
coedge $-1 $209 $354 $328 $221 reversed $253 $-1 #
coedge $-1 $218 $352 $90 $138 reversed $295 $-1 #
edge $-1 $210 0 $355 4 $326 $356 forward 7 unknown #
point $-1 -4 7 0 #
coedge $-1 $213 $212 $294 $357 forward $215 $-1 #
coedge $-1 $344 $214 $301 $223 forward $192 $-1 #
face $-1 $358 $215 $22 $-1 $193 forward single #
vertex $-1 $357 $359 #
straight-curve $-1 0 -7 4 1 0 0 I I #
coedge $-1 $352 $218 $289 $357 reversed $295 $-1 #
loop $-1 $-1 $286 $360 #
straight-curve $-1 -4 -7 0 0 0 -1 I I #
face $-1 $361 $336 $22 $-1 $298 reversed single #
plane-surface $-1 0 -7 0 0 1 0 0 0 1 forward_v I I I I #
vertex $-1 $362 $363 #
vertex $-1 $364 $365 #
coedge $-1 $265 $335 $290 $223 reversed $336 $-1 #
convexity-sys-attrib $-1 $-1 $-1 $227 #
vertex $-1 $227 $366 #
ellipse-curve $-1 0 3 0 0 1 0 -4 0 4.898425415289509e-016 1 I I #
point $-1 4 -7 -9.7968508305790181e-016 #
point $-1 2 3 0 #
vertex $-1 $233 $367 #
ellipse-curve $-1 0 0 5 0 0 1 2 0 0 1 I I #
straight-curve $-1 -4 7 0 0 0 -1 I I #
point $-1 -4 -7 -4 #
straight-curve $-1 -4 0 -4 0 1 0 I I #
point $-1 -4 7 -4 #
face $-1 $276 $368 $22 $-1 $349 reversed single #
loop $-1 $-1 $269 $252 #
plane-surface $-1 4 0 0 -1 0 0 0 0 1 forward_v I I I I #
coedge $-1 $256 $255 $132 $200 forward $130 $-1 #
coedge $-1 $369 $370 $255 $318 forward $371 $-1 #
edge $-1 $271 -3.1415926535897931 $262 -1.5707963267948968 $317 $146 forward 7 unknown #
coedge $-1 $372 $373 $256 $320 forward $368 $-1 #
edge $-1 $263 1.5707963267948968 $204 3.1415926535897931 $319 $206 forward 7 unknown #
coedge $-1 $374 $257 $373 $333 forward $324 $-1 #
coedge $-1 $257 $374 $369 $375 forward $324 $-1 #
coedge $-1 $376 $377 $131 $197 reversed $378 $-1 #
loop $-1 $-1 $257 $358 #
coedge $-1 $326 $258 $377 $379 reversed $327 $-1 #
coedge $-1 $258 $325 $284 $287 reversed $327 $-1 #
loop $-1 $-1 $258 $380 #
coedge $-1 $329 $260 $285 $221 forward $330 $-1 #
coedge $-1 $260 $328 $376 $331 reversed $330 $-1 #
loop $-1 $-1 $260 $381 #
edge $-1 $262 0 $299 4 $329 $382 forward 7 unknown #
point $-1 0 -7 -4 #
edge $-1 $263 0 $350 4 $373 $383 forward 7 unknown #
point $-1 0 7 -4 #
coedge $-1 $301 $265 $268 $338 reversed $336 $-1 #
loop $-1 $-1 $265 $297 #
coedge $-1 $268 $267 $344 $364 reversed $270 $-1 #
edge $-1 $300 -4 $271 0 $268 $384 forward 7 unknown #
coedge $-1 $385 $269 $370 $342 forward $314 $-1 #
coedge $-1 $269 $385 $372 $277 reversed $314 $-1 #
face $-1 $-1 $270 $22 $-1 $315 reversed single #
edge $-1 $271 0 $386 4 $339 $384 forward 7 unknown #
point $-1 4 -7 0 #
coedge $-1 $273 $290 $337 $364 forward $192 $-1 #
vertex $-1 $364 $387 #
straight-curve $-1 0 7 4 -1 0 0 I I #
straight-curve $-1 4 7 0 0 0 -1 I I #
face $-1 $380 $283 $22 $-1 $349 reversed single #
plane-surface $-1 0 7 0 0 -1 0 0 0 -1 forward_v I I I I #
vertex $-1 $388 $389 #
vertex $-1 $279 $390 #
coedge $-1 $286 $294 $281 $353 forward $295 $-1 #
edge $-1 $351 -4 $210 0 $281 $356 forward 7 unknown #
coedge $-1 $285 $284 $391 $362 reversed $253 $-1 #
vertex $-1 $379 $392 #
straight-curve $-1 -4 7 0 0 0 -1 I I #
edge $-1 $351 -7 $292 7 $294 $393 forward 7 unknown #
face $-1 $360 $324 $22 $-1 $394 reversed single #
point $-1 -4 -7 4 #
face $-1 $341 $295 $22 $-1 $254 reversed single #
face $-1 $395 $371 $22 $-1 $298 reversed single #
edge $-1 $299 -7 $355 7 $354 $396 forward 7 unknown #
point $-1 -4 -7 -4 #
edge $-1 $300 -7 $345 7 $337 $397 forward 7 unknown #
point $-1 4 -7 4 #
point $-1 4 3 -9.7968508305790181e-016 #
point $-1 2 0 5 #
loop $-1 $-1 $319 $313 #
coedge $-1 $370 $317 $322 $375 reversed $371 $-1 #
coedge $-1 $317 $369 $339 $342 reversed $371 $-1 #
loop $-1 $-1 $317 $361 #
coedge $-1 $373 $319 $340 $277 forward $368 $-1 #
coedge $-1 $319 $372 $321 $333 reversed $368 $-1 #
coedge $-1 $322 $321 $385 $388 forward $324 $-1 #
edge $-1 $386 -4 $262 0 $369 $382 forward 7 unknown #
coedge $-1 $391 $323 $329 $331 forward $378 $-1 #
coedge $-1 $323 $391 $325 $379 forward $378 $-1 #
loop $-1 $-1 $323 $395 #
edge $-1 $355 -4 $263 0 $325 $383 forward 7 unknown #
face $-1 $381 $327 $22 $-1 $349 reversed single #
face $-1 $220 $330 $22 $-1 $298 reversed single #
straight-curve $-1 0 -7 -4 -1 0 0 I I #
straight-curve $-1 0 7 -4 1 0 0 I I #
straight-curve $-1 4 -7 0 0 0 -1 I I #
coedge $-1 $340 $339 $374 $388 reversed $314 $-1 #
vertex $-1 $342 $398 #
point $-1 4 7 4 #
edge $-1 $350 -7 $386 7 $385 $399 forward 7 unknown #
point $-1 4 7 -4 #
point $-1 -4 7 4 #
coedge $-1 $377 $376 $354 $362 forward $378 $-1 #
point $-1 -4 7 -4 #
straight-curve $-1 -4 0 4 0 -1 0 I I #
plane-surface $-1 0 0 -4 0 0 1 1 0 0 forward_v I I I I #
face $-1 $291 $378 $22 $-1 $394 reversed single #
straight-curve $-1 -4 0 -4 0 1 0 I I #
straight-curve $-1 4 0 4 0 1 0 I I #
point $-1 4 -7 -4 #
straight-curve $-1 4 0 -4 0 -1 0 I I #
End-of-ACIS-data 