600 0 1 0           
87 GICL ACIS Healer - Source: /gicl/data5/repository/new/Seeker/screw24.ustation.sat - 6 0 18 ACIS 6.0.3 Solaris 24 Sat Apr 13 20:35:51 2002 
1 9.999999999999999547e-07 1.000000000000000036e-10 
body $1 $2 $-1 $-1 #
rgb_color-st-attrib $-1 $-1 $-1 $0 0 1 0 #
lump $-1 $-1 $3 $0 #
shell $-1 $-1 $-1 $4 $-1 $2 #
face $-1 $5 $6 $3 $-1 $7 forward single #
face $-1 $8 $9 $3 $-1 $10 forward single #
loop $-1 $11 $12 $4 #
plane-surface $-1 -22.27386360737624926 -51.97234841721123644 3 0 0 -1 -0.7071067811865475727 -0.7071067811865474617 0 forward_v I I I I #
face $-1 $13 $14 $3 $-1 $15 forward single #
loop $-1 $16 $17 $5 #
cone-surface $-1 -22.27386360737624926 -51.97234841721123644 4.5 0 0 1 1.414213562373095145 1.414213562373094923 0 1 I I 0 1 2 forward I I I I #
loop $-1 $-1 $18 $4 #
coedge $-1 $12 $12 $17 $19 forward $6 $-1 #
face $-1 $20 $21 $3 $-1 $22 forward single #
loop $-1 $-1 $23 $8 #
plane-surface $-1 -22.27386360737624926 -51.97234841721123644 6 0 0 1 0.7071067811865475727 0.7071067811865474617 0 forward_v I I I I #
loop $-1 $-1 $24 $5 #
coedge $-1 $17 $17 $12 $19 reversed $9 $-1 #
coedge $-1 $18 $18 $25 $26 forward $11 $-1 #
edge $-1 $27 1.165734175856415156e-15 $27 6.28318530717958712 $12 $28 forward 7 unknown #
face $-1 $-1 $29 $3 $-1 $30 forward single #
loop $-1 $31 $25 $13 #
cone-surface $-1 -22.27386360737624926 -51.97234841721123644 -1 0 0 -1 0.7071067811865475727 0.7071067811865474617 0 1 I I 0 1 1 forward I I I I #
coedge $-1 $23 $23 $24 $32 forward $14 $-1 #
coedge $-1 $24 $24 $23 $32 reversed $16 $-1 #
coedge $-1 $25 $25 $18 $26 reversed $21 $-1 #
edge $-1 $33 1.110223024625158759e-16 $33 6.283185307179586232 $25 $34 forward 7 unknown #
vertex $-1 $19 $35 #
ellipse-curve $-1 -22.27386360737624926 -51.97234841721123644 3 0 0 -1 1.414213562373095145 1.414213562373094923 0 1 I I #
loop $-1 $-1 $36 $20 #
plane-surface $-1 -22.27386360737624926 -51.97234841721123644 -5 0 0 -1 0.7071067811865475727 0.7071067811865474617 0 forward_v I I I I #
loop $-1 $-1 $37 $13 #
edge $-1 $38 -1.165734175856415156e-15 $38 6.283185307179585344 $23 $39 forward 7 unknown #
vertex $-1 $26 $40 #
ellipse-curve $-1 -22.27386360737624926 -51.97234841721123644 3 0 0 1 0.7071067811865475727 0.7071067811865474617 0 1 I I #
point $-1 -20.85965004500315345 -50.55813485483814418 3 #
coedge $-1 $36 $36 $37 $41 forward $29 $-1 #
coedge $-1 $37 $37 $36 $41 reversed $31 $-1 #
vertex $-1 $32 $42 #
ellipse-curve $-1 -22.27386360737624926 -51.97234841721123644 6 0 0 1 1.414213562373095145 1.414213562373094923 0 1 I I #
point $-1 -21.56675682618970313 -51.26524163602469031 3 #
edge $-1 $43 -1.110223024625158759e-16 $43 6.283185307179586232 $36 $44 forward 7 unknown #
point $-1 -20.85965004500315345 -50.55813485483814418 6 #
vertex $-1 $41 $45 #
ellipse-curve $-1 -22.27386360737624926 -51.97234841721123644 -5 0 0 -1 0.7071067811865475727 0.7071067811865474617 0 1 I I #
point $-1 -21.56675682618970313 -51.26524163602469031 -5 #
End-of-ACIS-data 