106 0 1 0           
body $1 $2 $-1 $3 #
display_attribute-st-attrib $-1 $4 $-1 $0 4 #
lump $-1 $-1 $5 $0 #
transform $-1 0.7071067811865475727 0.7071067811865474617 0 0.7071067811865474617 -0.7071067811865475727 0 0 0 -1 22.27386360737624926 51.97234841721123644 -1 1 1 0 0 #
rgb_color-st-attrib $-1 $6 $1 $0 0 1 0 #
shell $-1 $-1 $-1 $7 $2 #
id_attribute-st-attrib $-1 $-1 $4 $0 80 #
face $-1 $8 $9 $5 $-1 $10 forward single #
face $-1 $11 $12 $5 $-1 $13 forward single #
loop $-1 $14 $15 $7 #
plane-surface $-1 0 0 -4 0 0 1 -1 0 0 0 I I I I #
face $-1 $16 $17 $5 $-1 $18 forward single #
loop $-1 $19 $20 $8 #
cone-surface $-1 0 0 -5.5 0 0 -1 2 0 0 1 I I 0 1 0 I I I I #
loop $-1 $-1 $21 $7 #
coedge $-1 $15 $15 $20 $22 0 $9 $-1 #
face $-1 $23 $24 $5 $-1 $25 forward single #
loop $-1 $-1 $26 $11 #
plane-surface $-1 0 0 -7 0 0 -1 1 0 0 0 I I I I #
loop $-1 $-1 $27 $8 #
coedge $-1 $20 $20 $15 $22 1 $12 $-1 #
coedge $-1 $21 $21 $28 $29 0 $14 $-1 #
edge $-1 $30 $30 $15 $31 0 #
face $-1 $-1 $32 $5 $-1 $33 forward single #
loop $-1 $34 $28 $16 #
cone-surface $-1 0 0 0 0 0 1 1 0 0 1 I I 0 1 0 I I I I #
coedge $-1 $26 $26 $27 $35 0 $17 $-1 #
coedge $-1 $27 $27 $26 $35 1 $19 $-1 #
coedge $-1 $28 $28 $21 $29 1 $24 $-1 #
edge $-1 $36 $36 $28 $37 0 #
vertex $-1 $22 $38 #
ellipse-curve $-1 0 0 -4 0 0 1 2 0 0 1 I I #
loop $-1 $-1 $39 $23 #
plane-surface $-1 0 0 4 0 0 1 1 0 0 0 I I I I #
loop $-1 $-1 $40 $16 #
edge $-1 $41 $41 $26 $42 0 #
vertex $-1 $29 $43 #
ellipse-curve $-1 0 0 -4 0 0 -1 1 0 0 1 I I #
point $-1 2 0 -4 #
coedge $-1 $39 $39 $40 $44 0 $32 $-1 #
coedge $-1 $40 $40 $39 $44 1 $34 $-1 #
vertex $-1 $35 $45 #
ellipse-curve $-1 0 0 -7 0 0 -1 2 0 0 1 I I #
point $-1 1 0 -4 #
edge $-1 $46 $46 $39 $47 0 #
point $-1 2 0 -7 #
vertex $-1 $44 $48 #
ellipse-curve $-1 0 0 4 0 0 1 1 0 0 1 I I #
point $-1 1 0 4 #
End-of-ACIS-data 