600 0 2 0           
24 FBMach with ACIS - 6.0.3 13 ACIS 6.0.3 NT 24 Wed May 23 12:27:54 2001 
1 9.9999999999999995e-007 1e-010 
body $2 $3 $-1 $4 #
bdycol-kcp $-1 1 3 $5 $6 $7 #
model_id-kcp-attrib $-1 $8 $-1 $0 1 990635274 70 2034630657 1 #
lump $-1 $-1 $9 $0 #
transform $-1 0.70710678118654757 0.70710678118654746 0 0.70710678118654746 -0.70710678118654757 0 0 0 -1 51.972348417211244 22.273863607376242 -1 1 rotate no_reflect no_shear #
body $10 $11 $-1 $12 #
body $13 $14 $-1 $15 #
body $16 $17 $-1 $18 #
rgb_color-st-attrib $-1 $-1 $2 $0 0 1 0 #
shell $-1 $-1 $-1 $19 $-1 $3 #
model_id-kcp-attrib $-1 $-1 $-1 $5 1 990635274 80 2035286018 1 #
lump $-1 $-1 $20 $5 #
transform $-1 1 0 0 0 1 0 0 0 1 51.972348417211244 22.273863607376242 0.5 1 no_rotate no_reflect no_shear #
rgb_color-st-attrib $-1 $21 $-1 $6 0.5 1 1 #
lump $-1 $-1 $22 $6 #
transform $-1 1 0 0 0 1 0 0 0 1 51.972348417211244 22.273863607376242 0.5 1 no_rotate no_reflect no_shear #
model_id-kcp-attrib $-1 $23 $-1 $7 1 990635274 170 2041184260 1 #
lump $-1 $-1 $24 $7 #
transform $-1 1 0 0 0 1 0 0 0 1 51.972348417211244 22.273863607376242 0.5 1 no_rotate no_reflect no_shear #
face $25 $26 $27 $9 $-1 $28 forward single #
shell $-1 $-1 $-1 $29 $-1 $11 #
model_id-kcp-attrib $-1 $-1 $13 $6 1 990635274 100 2036596739 1 #
shell $-1 $-1 $-1 $30 $-1 $14 #
rgb_color-st-attrib $-1 $-1 $16 $7 1 0.5 1 #
shell $-1 $-1 $-1 $31 $-1 $17 #
model_id-kcp-attrib $-1 $-1 $-1 $19 1 990635274 70 2034630657 2 #
face $32 $33 $34 $9 $-1 $35 forward single #
loop $-1 $36 $37 $19 #
plane-surface $-1 0 0 -4 0 0 1 -1 0 0 forward_v I I I I #
face $38 $39 $40 $20 $-1 $41 forward single #
face $-1 $42 $43 $22 $-1 $44 reversed single #
face $-1 $45 $46 $24 $-1 $47 forward single #
model_id-kcp-attrib $-1 $-1 $-1 $26 1 990635274 70 2034630657 3 #
face $48 $49 $50 $9 $-1 $51 forward single #
loop $-1 $52 $53 $26 #
cone-surface $-1 0 0 -5.5 0 0 -1 2 0 0 1 I I 0 1 2 forward I I I I #
loop $-1 $-1 $54 $19 #
coedge $-1 $37 $37 $53 $55 forward $27 $-1 #
model_id-kcp-attrib $-1 $-1 $-1 $29 1 990635274 80 2035286018 2 #
face $56 $57 $58 $20 $-1 $59 reversed single #
loop $-1 $-1 $60 $29 #
plane-surface $-1 0 0 5.5 0 0 1 1 0 0 forward_v I I I I #
face $-1 $61 $62 $22 $-1 $63 forward single #
loop $-1 $64 $65 $30 #
cone-surface $-1 0 0 5.5 0 0 1 1.4142135623730951 1.4142135623730949 0 1 I I 0 1 2 forward I I I I #
face $-1 $66 $67 $24 $-1 $68 forward single #
loop $-1 $69 $70 $31 #
cone-surface $-1 0 0 2.5 0 0 -1 0.70710678118654757 0.70710678118654746 0 1 I I 0 -1 1 forward I I I I #
model_id-kcp-attrib $-1 $71 $-1 $33 1 990635274 70 2034630657 7 #
face $72 $73 $74 $9 $-1 $75 forward single #
loop $-1 $-1 $76 $33 #
plane-surface $-1 0 0 -7 0 0 -1 1 0 0 forward_v I I I I #
loop $-1 $-1 $77 $26 #
coedge $-1 $53 $53 $37 $55 reversed $34 $-1 #
coedge $-1 $54 $54 $78 $79 forward $36 $-1 #
edge $-1 $80 0 $80 6.2831853071795862 $37 $81 forward 7 unknown #
model_id-kcp-attrib $-1 $-1 $-1 $39 1 990635274 80 2035286018 3 #
face $-1 $82 $83 $20 $-1 $84 reversed single #
loop $-1 $-1 $85 $39 #
plane-surface $-1 0 0 -5.5 0 0 1 1 0 0 forward_v I I I I #
coedge $-1 $86 $87 $88 $89 forward $40 $-1 #
face $-1 $90 $91 $22 $-1 $92 reversed single #
loop $-1 $93 $94 $42 #
plane-surface $-1 0 0 5.5 0 0 1 1 0 0 forward_v I I I I #
loop $-1 $-1 $95 $30 #
coedge $-1 $65 $65 $94 $96 reversed $43 $-1 #
face $-1 $97 $98 $24 $-1 $99 reversed single #
loop $-1 $100 $101 $45 #
cone-surface $-1 0 0 2.5 0 0 -1 1.4142135623730951 1.4142135623730949 0 1 I I 0 1 2 forward I I I I #
loop $-1 $-1 $102 $31 #
coedge $-1 $70 $70 $103 $104 forward $46 $-1 #
model_id-kcp-attrib $-1 $-1 $48 $33 1 990635274 70 2034630657 4 #
model_id-kcp-attrib $-1 $-1 $-1 $49 1 990635274 70 2034630657 5 #
face $105 $-1 $106 $9 $-1 $107 forward single #
loop $-1 $108 $78 $49 #
cone-surface $-1 0 0 0 0 0 1 1 0 0 1 I I 0 1 1 forward I I I I #
coedge $-1 $76 $76 $77 $109 forward $50 $-1 #
coedge $-1 $77 $77 $76 $109 reversed $52 $-1 #
coedge $-1 $78 $78 $54 $79 reversed $74 $-1 #
edge $-1 $110 0 $110 6.2831853071795862 $78 $111 forward 7 unknown #
vertex $-1 $55 $112 #
ellipse-curve $-1 0 0 -4 0 0 1 2 0 0 1 I I #
face $-1 $113 $114 $20 $-1 $115 reversed single #
loop $-1 $-1 $116 $57 #
plane-surface $-1 0 -2.8284271247461916 0 0 1 0 0 0 1 forward_v I I I I #
coedge $-1 $117 $118 $119 $120 forward $58 $-1 #
coedge $-1 $121 $60 $122 $123 forward $40 $-1 #
coedge $-1 $60 $121 $124 $125 forward $40 $-1 #
coedge $-1 $126 $127 $60 $89 reversed $128 $-1 #
edge $-1 $129 -2.8284271247461916 $130 2.8284271247461916 $88 $131 forward 7 unknown #
face $-1 $132 $133 $22 $-1 $134 reversed single #
loop $-1 $135 $136 $61 #
plane-surface $-1 0 0 -5.5 0 0 1 1 0 0 forward_v I I I I #
loop $-1 $-1 $137 $42 #
coedge $-1 $94 $94 $65 $96 forward $62 $-1 #
coedge $-1 $95 $95 $136 $138 reversed $64 $-1 #
edge $-1 $139 -3.1415926535897931 $139 3.1415926535897931 $94 $140 forward 7 unknown #
face $-1 $-1 $141 $24 $-1 $142 forward single #
loop $-1 $143 $144 $66 #
plane-surface $-1 -0.064282434653322548 -0.064282434653322423 -5.5 0 0 1 1 0 0 forward_v I I I I #
loop $-1 $-1 $145 $45 #
coedge $-1 $101 $101 $144 $146 forward $67 $-1 #
coedge $-1 $102 $102 $147 $148 reversed $69 $-1 #
coedge $-1 $103 $103 $70 $104 reversed $143 $-1 #
edge $-1 $149 -1.1102230246251565e-016 $149 6.2831853071795862 $70 $150 forward 7 unknown #
model_id-kcp-attrib $-1 $-1 $-1 $73 1 990635274 70 2034630657 6 #
loop $-1 $-1 $151 $73 #
plane-surface $-1 0 0 4 0 0 1 1 0 0 forward_v I I I I #
loop $-1 $-1 $152 $49 #
edge $153 $154 0 $154 6.2831853071795862 $76 $155 forward 7 unknown #
vertex $-1 $79 $156 #
ellipse-curve $-1 0 0 -4 0 0 -1 1 0 0 1 I I #
point $-1 2 0 -4 #
face $-1 $157 $158 $20 $-1 $159 reversed single #
loop $-1 $-1 $160 $82 #
plane-surface $-1 -2.8284271247461916 0 0 1 0 0 0 0 -1 forward_v I I I I #
coedge $-1 $161 $124 $162 $163 forward $83 $-1 #
coedge $-1 $164 $85 $161 $165 forward $58 $-1 #
coedge $-1 $85 $164 $166 $167 forward $58 $-1 #
coedge $-1 $127 $126 $85 $120 reversed $128 $-1 #
edge $-1 $168 -2.8284271247461916 $169 2.8284271247461916 $119 $170 forward 7 unknown #
coedge $-1 $87 $86 $171 $172 forward $40 $-1 #
coedge $-1 $173 $174 $86 $123 reversed $158 $-1 #
edge $-1 $130 -2.8284271247461916 $175 2.8284271247461916 $122 $176 forward 7 unknown #
coedge $-1 $116 $177 $87 $125 reversed $83 $-1 #
edge $-1 $178 -2.8284271247461916 $129 2.8284271247461916 $124 $179 forward 7 unknown #
coedge $-1 $119 $88 $177 $180 forward $128 $-1 #
coedge $-1 $88 $119 $173 $181 reversed $128 $-1 #
loop $-1 $-1 $126 $157 #
vertex $-1 $89 $182 #
vertex $-1 $89 $183 #
straight-curve $-1 2.8284271247461916 0 5.5 0 1 0 I I #
face $-1 $184 $185 $22 $-1 $186 reversed single #
loop $-1 $-1 $187 $90 #
plane-surface $-1 0 -2.8284271247461916 0 0 1 0 0 0 1 forward_v I I I I #
loop $-1 $-1 $188 $61 #
coedge $-1 $136 $136 $95 $138 forward $91 $-1 #
coedge $-1 $189 $190 $191 $192 forward $93 $-1 #
edge $-1 $193 -3.1415926535897931 $193 3.1415926535897931 $136 $194 forward 7 unknown #
vertex $-1 $96 $195 #
ellipse-curve $-1 0 0 5.5 0 0 -1 1.4142135623730951 1.4142135623730949 0 1 I I #
loop $-1 $196 $197 $97 #
plane-surface $-1 -0.064282434653322548 -0.064282434653322423 2.5 0 0 1 1 0 0 forward_v I I I I #
loop $-1 $-1 $103 $66 #
coedge $-1 $144 $144 $101 $146 reversed $98 $-1 #
coedge $-1 $145 $145 $197 $198 reversed $100 $-1 #
edge $-1 $199 -3.1415926535897931 $199 3.1415926535897931 $101 $200 forward 7 unknown #
coedge $-1 $147 $147 $102 $148 forward $196 $-1 #
edge $-1 $201 0 $201 6.2831853071795862 $102 $202 forward 7 unknown #
vertex $-1 $104 $203 #
ellipse-curve $-1 0 0 -5.5 0 0 -1 0.70710678118654757 0.70710678118654746 0 1 I I #
coedge $-1 $151 $151 $152 $204 forward $106 $-1 #
coedge $-1 $152 $152 $151 $204 reversed $108 $-1 #
attrib_edge_convexity-kcp-attrib $-1 $205 $-1 $109 1 #
vertex $-1 $109 $206 #
ellipse-curve $-1 0 0 -7 0 0 -1 2 0 0 1 I I #
point $-1 1 0 -4 #
face $-1 $-1 $128 $20 $-1 $207 reversed single #
loop $-1 $-1 $173 $113 #
plane-surface $-1 0 2.8284271247461916 0 0 -1 0 0 0 -1 forward_v I I I I #
coedge $-1 $208 $171 $174 $209 forward $114 $-1 #
coedge $-1 $177 $116 $117 $165 reversed $83 $-1 #
coedge $-1 $171 $208 $116 $163 reversed $114 $-1 #
edge $-1 $178 -5.5 $210 5.5 $162 $211 forward 7 unknown #
coedge $-1 $118 $117 $208 $212 forward $58 $-1 #
edge $-1 $169 -2.8284271247461916 $210 2.8284271247461916 $161 $213 forward 7 unknown #
coedge $-1 $174 $173 $118 $167 reversed $158 $-1 #
edge $-1 $214 -2.8284271247461916 $168 2.8284271247461916 $166 $215 forward 7 unknown #
vertex $-1 $120 $216 #
vertex $-1 $180 $217 #
straight-curve $-1 2.8284271247461916 0 -5.5 0 -1 0 I I #
coedge $-1 $160 $162 $121 $172 reversed $114 $-1 #
edge $-1 $175 -2.8284271247461916 $178 2.8284271247461916 $171 $218 forward 7 unknown #
coedge $-1 $166 $122 $127 $181 forward $158 $-1 #
coedge $-1 $122 $166 $160 $209 reversed $158 $-1 #
vertex $-1 $123 $219 #
straight-curve $-1 0 2.8284271247461916 5.5 -1 0 0 I I #
coedge $-1 $124 $161 $126 $180 reversed $83 $-1 #
vertex $-1 $172 $220 #
straight-curve $-1 0 -2.8284271247461916 5.5 1 0 0 I I #
edge $-1 $129 -5.5 $169 5.5 $126 $221 forward 7 unknown #
edge $-1 $130 -5.5 $168 5.5 $127 $222 forward 7 unknown #
point $-1 2.8284271247461916 -2.8284271247461916 5.5 #
point $-1 2.8284271247461916 2.8284271247461916 5.5 #
face $-1 $223 $224 $22 $-1 $225 reversed single #
loop $-1 $-1 $226 $132 #
plane-surface $-1 -2.8284271247461916 0 0 1 0 0 0 0 -1 forward_v I I I I #
coedge $-1 $227 $228 $229 $230 forward $133 $-1 #
coedge $-1 $231 $232 $233 $234 forward $135 $-1 #
coedge $-1 $235 $137 $236 $237 forward $93 $-1 #
coedge $-1 $137 $235 $228 $238 forward $93 $-1 #
coedge $-1 $239 $240 $137 $192 reversed $241 $-1 #
edge $-1 $242 -2.8284271247461916 $243 2.8284271247461916 $191 $244 forward 7 unknown #
vertex $-1 $138 $245 #
ellipse-curve $-1 0 0 -5.5 0 0 1 1.4142135623730951 1.4142135623730949 0 1 I I #
point $-1 -1.4142135623730954 -1.4142135623730947 5.5 #
loop $-1 $-1 $147 $97 #
coedge $-1 $197 $197 $145 $198 forward $141 $-1 #
edge $246 $247 -3.1415926535897931 $247 3.1415926535897931 $145 $248 forward 7 unknown #
vertex $-1 $146 $249 #
ellipse-curve $-1 0 0 -5.5 0 0 1 1.4142135623730951 1.4142135623730949 0 1 I I #
vertex $-1 $148 $250 #
ellipse-curve $-1 0 0 2.5 0 0 -1 0.70710678118654757 0.70710678118654746 0 1 I I #
point $-1 0.70710678118654746 0.70710678118654746 -5.5 #
edge $-1 $251 0 $251 6.2831853071795862 $151 $252 forward 7 unknown #
convexity-sys-attrib $-1 $-1 $153 $109 #
point $-1 2 0 -7 #
plane-surface $-1 2.8284271247461916 0 0 -1 0 0 0 0 1 forward_v I I I I #
coedge $-1 $162 $160 $164 $212 reversed $114 $-1 #
edge $-1 $175 -5.5 $214 5.5 $174 $253 forward 7 unknown #
vertex $-1 $212 $254 #
straight-curve $-1 -2.8284271247461916 -2.8284271247461916 0 0 0 -1 I I #
edge $-1 $210 -2.8284271247461916 $214 2.8284271247461916 $208 $255 forward 7 unknown #
straight-curve $-1 0 -2.8284271247461916 -5.5 -1 0 0 I I #
vertex $-1 $167 $256 #
straight-curve $-1 0 2.8284271247461916 -5.5 1 0 0 I I #
point $-1 2.8284271247461916 2.8284271247461916 -5.5 #
point $-1 2.8284271247461916 -2.8284271247461916 -5.5 #
straight-curve $-1 -2.8284271247461916 0 5.5 0 -1 0 I I #
point $-1 -2.8284271247461916 2.8284271247461916 5.5 #
point $-1 -2.8284271247461916 -2.8284271247461916 5.5 #
straight-curve $-1 2.8284271247461916 -2.8284271247461916 0 0 0 -1 I I #
straight-curve $-1 2.8284271247461916 2.8284271247461916 0 0 0 -1 I I #
face $-1 $-1 $241 $22 $-1 $257 reversed single #
loop $-1 $-1 $258 $184 #
plane-surface $-1 0 2.8284271247461916 0 0 -1 0 0 0 -1 forward_v I I I I #
coedge $-1 $259 $260 $261 $262 forward $185 $-1 #
coedge $-1 $263 $187 $231 $264 reversed $133 $-1 #
coedge $-1 $187 $263 $190 $238 reversed $133 $-1 #
coedge $-1 $260 $259 $187 $230 reversed $185 $-1 #
edge $-1 $265 -5.5 $266 5.5 $229 $267 forward 7 unknown #
coedge $-1 $268 $188 $227 $264 forward $135 $-1 #
coedge $-1 $188 $268 $269 $270 forward $135 $-1 #
coedge $-1 $240 $239 $188 $234 reversed $241 $-1 #
edge $-1 $271 -2.8284271247461916 $272 2.8284271247461916 $233 $273 forward 7 unknown #
coedge $-1 $190 $189 $260 $274 forward $93 $-1 #
coedge $-1 $258 $261 $189 $237 reversed $224 $-1 #
edge $-1 $243 -2.8284271247461916 $275 2.8284271247461916 $236 $276 forward 7 unknown #
edge $-1 $265 -2.8284271247461916 $242 2.8284271247461916 $228 $277 forward 7 unknown #
coedge $-1 $233 $191 $263 $278 forward $241 $-1 #
coedge $-1 $191 $233 $258 $279 reversed $241 $-1 #
loop $-1 $-1 $239 $223 #
vertex $-1 $192 $280 #
vertex $-1 $192 $281 #
straight-curve $-1 2.8284271247461916 0 5.5 0 1 0 I I #
point $-1 -1.4142135623730949 -1.4142135623730951 -5.5 #
convexity-sys-attrib $-1 $-1 $-1 $198 #
vertex $-1 $198 $282 #
ellipse-curve $-1 0 0 2.5 0 0 1 1.4142135623730951 1.4142135623730949 0 1 I I #
point $-1 -1.4142135623730949 -1.4142135623730951 -5.5 #
point $-1 0.70710678118654757 0.70710678118654746 2.5 #
vertex $-1 $204 $283 #
ellipse-curve $-1 0 0 4 0 0 1 1 0 0 1 I I #
straight-curve $-1 -2.8284271247461916 2.8284271247461916 0 0 0 -1 I I #
point $-1 -2.8284271247461916 -2.8284271247461916 -5.5 #
straight-curve $-1 -2.8284271247461916 0 -5.5 0 1 0 I I #
point $-1 -2.8284271247461916 2.8284271247461916 -5.5 #
plane-surface $-1 2.8284271247461916 0 0 -1 0 0 0 0 1 forward_v I I I I #
coedge $-1 $269 $236 $240 $279 forward $224 $-1 #
coedge $-1 $229 $226 $268 $284 reversed $185 $-1 #
coedge $-1 $226 $229 $235 $274 reversed $185 $-1 #
coedge $-1 $236 $269 $226 $262 reversed $224 $-1 #
edge $-1 $275 -5.5 $285 5.5 $261 $286 forward 7 unknown #
coedge $-1 $228 $227 $239 $278 reversed $133 $-1 #
edge $-1 $272 -2.8284271247461916 $266 2.8284271247461916 $227 $287 forward 7 unknown #
vertex $-1 $274 $288 #
vertex $-1 $284 $289 #
straight-curve $-1 -2.8284271247461916 -2.8284271247461916 0 0 0 -1 I I #
coedge $-1 $232 $231 $259 $284 forward $135 $-1 #
coedge $-1 $261 $258 $232 $270 reversed $224 $-1 #
edge $-1 $285 -2.8284271247461916 $271 2.8284271247461916 $269 $290 forward 7 unknown #
vertex $-1 $234 $291 #
vertex $-1 $278 $292 #
straight-curve $-1 2.8284271247461916 0 -5.5 0 -1 0 I I #
edge $-1 $275 -2.8284271247461916 $265 2.8284271247461916 $260 $293 forward 7 unknown #
vertex $-1 $237 $294 #
straight-curve $-1 0 2.8284271247461916 5.5 -1 0 0 I I #
straight-curve $-1 0 -2.8284271247461916 5.5 1 0 0 I I #
edge $-1 $242 -5.5 $272 5.5 $239 $295 forward 7 unknown #
edge $-1 $243 -5.5 $271 5.5 $240 $296 forward 7 unknown #
point $-1 2.8284271247461916 -2.8284271247461916 5.5 #
point $-1 2.8284271247461916 2.8284271247461916 5.5 #
point $-1 -1.4142135623730949 -1.4142135623730951 2.5 #
point $-1 1 0 4 #
edge $-1 $266 -2.8284271247461916 $285 2.8284271247461916 $259 $297 forward 7 unknown #
vertex $-1 $270 $298 #
straight-curve $-1 -2.8284271247461916 2.8284271247461916 0 0 0 -1 I I #
straight-curve $-1 0 -2.8284271247461916 -5.5 -1 0 0 I I #
point $-1 -2.8284271247461916 -2.8284271247461916 5.5 #
point $-1 -2.8284271247461916 -2.8284271247461916 -5.5 #
straight-curve $-1 0 2.8284271247461916 -5.5 1 0 0 I I #
point $-1 2.8284271247461916 2.8284271247461916 -5.5 #
point $-1 2.8284271247461916 -2.8284271247461916 -5.5 #
straight-curve $-1 -2.8284271247461916 0 5.5 0 -1 0 I I #
point $-1 -2.8284271247461916 2.8284271247461916 5.5 #
straight-curve $-1 2.8284271247461916 -2.8284271247461916 0 0 0 -1 I I #
straight-curve $-1 2.8284271247461916 2.8284271247461916 0 0 0 -1 I I #
straight-curve $-1 -2.8284271247461916 0 -5.5 0 1 0 I I #
point $-1 -2.8284271247461916 2.8284271247461916 -5.5 #
End-of-ACIS-data 