600 0 2 0           
24 FBMach with ACIS - 6.0.3 13 ACIS 6.0.3 NT 24 Wed May 23 12:28:01 2001 
1 9.9999999999999995e-007 1e-010 
body $2 $3 $-1 $4 #
bdycol-kcp $-1 1 6 $5 $6 $7 $8 $9 $10 #
model_id-kcp-attrib $-1 $11 $-1 $0 1 990635281 50 1295122433 1 #
lump $-1 $-1 $12 $0 #
transform $-1 0 0 -1 -0.70710678118654746 0.70710678118654757 0 0.70710678118654757 0.70710678118654746 0 -37.123106012293746 -37.123106012293739 0 1 rotate no_reflect no_shear #
body $13 $14 $-1 $15 #
body $16 $17 $-1 $18 #
body $19 $20 $-1 $21 #
body $22 $23 $-1 $24 #
body $25 $26 $-1 $27 #
body $28 $29 $-1 $30 #
rgb_color-st-attrib $-1 $-1 $2 $0 0 1 0 #
shell $-1 $-1 $-1 $31 $-1 $3 #
model_id-kcp-attrib $-1 $-1 $-1 $5 1 990635281 50 1295122434 1 #
lump $-1 $-1 $32 $5 #
transform $-1 1 0 0 0 1 0 0 0 1 -34.294678887547555 -34.294678887547548 0 1 no_rotate no_reflect no_shear #
rgb_color-st-attrib $-1 $33 $-1 $6 0.5 1 1 #
lump $-1 $-1 $34 $6 #
transform $-1 -2.7072211888315824e-016 -2.7072211888315819e-016 -1 -0.70710678118654746 0.70710678118654757 0 0.70710678118654757 0.70710678118654746 -3.8285889215894375e-016 -31.46625176280137 -31.46625176280136 3.1554436208840472e-030 1 rotate no_reflect no_shear #
rgb_color-st-attrib $-1 $35 $-1 $7 0.5 1 1 #
lump $-1 $-1 $36 $7 #
transform $-1 1 0 0 0 1 0 0 0 1 -34.294678887547555 -34.294678887547548 0 1 no_rotate no_reflect no_shear #
rgb_color-st-attrib $-1 $37 $-1 $8 0.5 0.5 1 #
lump $-1 $-1 $38 $8 #
transform $-1 1 0 0 0 1 0 0 0 1 -34.294678887547555 -34.294678887547548 0 1 no_rotate no_reflect no_shear #
rgb_color-st-attrib $-1 $39 $-1 $9 0.5 0.5 1 #
lump $-1 $-1 $40 $9 #
transform $-1 1 0 0 0 1 0 0 0 1 -34.294678887547555 -34.294678887547548 0 1 no_rotate no_reflect no_shear #
model_id-kcp-attrib $-1 $41 $-1 $10 1 990635281 380 1299972103 1 #
lump $-1 $-1 $42 $10 #
transform $-1 1 0 0 0 1 0 0 0 1 -34.294678887547555 -34.294678887547548 0 1 no_rotate no_reflect no_shear #
face $43 $44 $45 $12 $-1 $46 reversed single #
shell $-1 $-1 $-1 $47 $-1 $14 #
model_id-kcp-attrib $-1 $-1 $16 $6 1 990635281 70 1296433155 1 #
shell $-1 $-1 $-1 $48 $-1 $17 #
model_id-kcp-attrib $-1 $-1 $19 $7 1 990635281 130 1300365316 1 #
shell $-1 $-1 $-1 $49 $-1 $20 #
model_id-kcp-attrib $-1 $-1 $22 $8 1 990635281 230 1306918917 1 #
shell $-1 $-1 $-1 $50 $-1 $23 #
model_id-kcp-attrib $-1 $-1 $25 $9 1 990635281 310 1295384582 1 #
shell $-1 $-1 $-1 $51 $-1 $26 #
rgb_color-st-attrib $-1 $-1 $28 $10 1 0.5 1 #
shell $-1 $-1 $-1 $52 $-1 $29 #
model_id-kcp-attrib $-1 $-1 $-1 $31 1 990635281 50 1295122433 2 #
face $53 $54 $55 $12 $-1 $56 reversed single #
loop $-1 $57 $58 $31 #
cone-surface $-1 0 0 8 0 0 1 4 0 0 1 I I 0 1 4 forward I I I I #
face $-1 $59 $60 $32 $-1 $61 forward single #
face $-1 $62 $63 $34 $-1 $64 forward single #
face $-1 $65 $66 $36 $-1 $67 reversed single #
face $-1 $68 $69 $38 $-1 $70 reversed single #
face $-1 $71 $72 $40 $-1 $73 reversed single #
face $-1 $74 $75 $42 $-1 $76 forward single #
model_id-kcp-attrib $-1 $-1 $-1 $44 1 990635281 50 1295122433 3 #
face $77 $78 $79 $12 $-1 $80 forward single #
loop $-1 $-1 $81 $44 #
plane-surface $-1 0 0 5.5 0 0 -1 -1 0 0 forward_v I I I I #
loop $-1 $-1 $82 $31 #
coedge $-1 $58 $58 $81 $83 forward $45 $-1 #
face $-1 $84 $85 $32 $-1 $86 reversed single #
loop $-1 $-1 $87 $47 #
plane-surface $-1 0 0 12 0 0 1 1 0 0 forward_v I I I I #
face $-1 $88 $89 $34 $-1 $90 forward single #
loop $-1 $91 $92 $48 #
cone-surface $-1 0 0 0 0 0 1 4 0 0 1 I I 0 1 4 forward I I I I #
face $-1 $93 $94 $36 $-1 $67 reversed single #
loop $-1 $-1 $95 $49 #
cone-surface $-1 4.5961940777125569 4.5961940777125534 4.4989821654664123e-032 0.70710678118654757 0.70710678118654746 0 0 0 -12 1 I I 0 1 12 forward I I I I #
face $-1 $96 $97 $38 $-1 $98 forward single #
loop $-1 $-1 $99 $50 #
plane-surface $-1 4.5961940777125534 4.5961940777125605 0 0.70710678118654757 0.70710678118654746 0 -0.70710678118654746 0.70710678118654757 0 forward_v I I I I #
face $-1 $100 $101 $40 $-1 $102 forward single #
loop $-1 $-1 $103 $51 #
plane-surface $-1 -4.5961940777125534 -4.5961940777125534 0 -0.70710678118654757 -0.70710678118654746 0 0.70710678118654746 -0.70710678118654757 0 forward_v I I I I #
face $-1 $104 $105 $42 $-1 $106 forward single #
loop $-1 $107 $108 $52 #
cone-surface $-1 -1.0606601717798241 -1.0606601717798245 0 0.70710678118654757 0.70710678118654757 0 0 0 -7 1 I I 0 -1 7 forward I I I I #
model_id-kcp-attrib $-1 $-1 $-1 $54 1 990635281 50 1295122433 4 #
face $109 $110 $111 $12 $-1 $112 forward single #
loop $-1 $113 $114 $54 #
cone-surface $-1 0 0 6.5 0 0 1 7 0 0 1 I I 0 1 7 forward I I I I #
coedge $-1 $81 $81 $58 $83 reversed $55 $-1 #
coedge $-1 $82 $82 $115 $116 reversed $57 $-1 #
edge $117 $118 0 $118 6.2831853071795862 $81 $119 forward 7 unknown #
face $-1 $120 $121 $32 $-1 $122 reversed single #
loop $-1 $-1 $123 $59 #
plane-surface $-1 0 0 -12 0 0 1 1 0 0 forward_v I I I I #
coedge $-1 $124 $125 $126 $127 forward $60 $-1 #
face $-1 $-1 $128 $34 $-1 $129 forward single #
loop $-1 $-1 $130 $62 #
plane-surface $-1 0 0 -2.5 0 0 -1 -1 0 0 forward_v I I I I #
loop $-1 $-1 $131 $48 #
coedge $-1 $92 $92 $130 $132 reversed $63 $-1 #
face $-1 $133 $134 $36 $-1 $135 reversed single #
loop $-1 $-1 $136 $65 #
coedge $-1 $137 $138 $136 $139 forward $66 $-1 #
face $-1 $140 $141 $38 $-1 $98 forward single #
loop $-1 $-1 $142 $68 #
cone-surface $-1 4.5961940777125569 4.5961940777125534 4.4989821654664123e-032 0.70710678118654757 0.70710678118654746 0 0 0 -12 1 I I 0 1 12 forward I I I I #
coedge $-1 $143 $143 $144 $145 forward $69 $-1 #
face $-1 $146 $147 $40 $-1 $102 forward single #
loop $-1 $-1 $148 $71 #
cone-surface $-1 4.5961940777125569 4.5961940777125534 4.4989821654664123e-032 0.70710678118654757 0.70710678118654746 0 0 0 -12 1 I I 0 1 12 forward I I I I #
coedge $-1 $149 $149 $150 $151 forward $72 $-1 #
face $-1 $152 $153 $42 $-1 $154 forward single #
loop $-1 $155 $156 $74 #
cone-surface $-1 -1.0606601717798236 -1.0606601717798263 4.4989821654664123e-032 0.70710678118654757 0.70710678118654757 0 0 0 -12 1 I I 0 1 12 forward I I I I #
loop $-1 $-1 $157 $52 #
coedge $-1 $108 $108 $158 $159 forward $75 $-1 #
model_id-kcp-attrib $-1 $-1 $-1 $78 1 990635281 50 1295122433 5 #
face $160 $161 $162 $12 $-1 $163 forward single #
loop $-1 $164 $115 $78 #
plane-surface $-1 0 0 10.5 0 0 1 1 0 0 forward_v I I I I #
loop $-1 $-1 $165 $54 #
coedge $-1 $114 $114 $166 $167 reversed $79 $-1 #
coedge $-1 $115 $115 $82 $116 forward $111 $-1 #
edge $168 $169 0 $169 6.2831853071795862 $115 $170 forward 7 unknown #
attrib_edge_convexity-kcp-attrib $-1 $171 $-1 $83 2 #
vertex $-1 $83 $172 #
ellipse-curve $-1 0 0 5.5 0 0 -1 4 0 0 1 I I #
face $-1 $173 $174 $32 $-1 $175 reversed single #
loop $-1 $-1 $176 $84 #
plane-surface $-1 0 -13.081475451951132 0 0 1 0 0 0 1 forward_v I I I I #
coedge $-1 $177 $178 $179 $180 forward $85 $-1 #
coedge $-1 $181 $87 $182 $183 forward $60 $-1 #
coedge $-1 $87 $181 $184 $185 forward $60 $-1 #
coedge $-1 $186 $187 $87 $127 reversed $188 $-1 #
edge $-1 $189 -13.081475451951132 $190 13.081475451951132 $126 $191 forward 7 unknown #
loop $-1 $-1 $192 $88 #
plane-surface $-1 0 0 2.5 0 0 1 1 0 0 forward_v I I I I #
coedge $-1 $130 $130 $92 $132 forward $89 $-1 #
coedge $-1 $131 $131 $192 $193 reversed $91 $-1 #
edge $-1 $194 0 $194 6.2831853071795862 $130 $195 forward 7 unknown #
face $-1 $196 $197 $36 $-1 $198 forward single #
loop $-1 $-1 $199 $93 #
plane-surface $-1 0 13.081475451951132 0 0 -1 0 0 0 -1 forward_v I I I I #
coedge $-1 $200 $201 $202 $139 reversed $94 $-1 #
coedge $-1 $203 $95 $199 $204 reversed $66 $-1 #
coedge $-1 $95 $203 $205 $206 reversed $66 $-1 #
edge $-1 $207 -24.999999999999993 $208 12.000000000000007 $202 $209 forward 7 unknown #
face $-1 $210 $211 $38 $-1 $212 reversed single #
loop $-1 $-1 $144 $96 #
coedge $-1 $213 $214 $143 $215 reversed $97 $-1 #
coedge $-1 $99 $99 $142 $215 forward $69 $-1 #
coedge $-1 $216 $217 $99 $145 reversed $141 $-1 #
edge $218 $219 -1.5707963267948966 $220 1.5707963267948966 $144 $221 forward 7 unknown #
face $-1 $222 $223 $40 $-1 $224 reversed single #
loop $-1 $-1 $150 $100 #
coedge $-1 $225 $226 $149 $227 reversed $101 $-1 #
coedge $-1 $103 $103 $148 $227 forward $72 $-1 #
coedge $-1 $228 $229 $103 $151 reversed $147 $-1 #
edge $230 $231 -1.5707963267948966 $232 1.5707963267948966 $150 $233 forward 7 unknown #
face $-1 $-1 $234 $42 $-1 $235 reversed single #
loop $-1 $236 $237 $104 #
plane-surface $-1 4.5961940777125552 4.5961940777125534 0.45454545454545414 0.70710678118654768 0.70710678118654735 -2.3429358968959959e-017 -3.313411721161088e-017 0 -1 forward_v I I I I #
loop $-1 $-1 $238 $74 #
coedge $-1 $156 $156 $237 $239 forward $105 $-1 #
coedge $-1 $157 $157 $240 $241 reversed $107 $-1 #
coedge $-1 $158 $158 $108 $159 reversed $236 $-1 #
edge $-1 $242 3.9843492535338274e-032 $242 6.2831853071795862 $108 $243 forward 7 unknown #
model_id-kcp-attrib $-1 $-1 $-1 $110 1 990635281 50 1295122433 6 #
face $244 $245 $246 $12 $-1 $247 forward single #
loop $-1 $248 $249 $110 #
cone-surface $-1 0 0 0 0 0 1 12 0 0 1 I I 0 1 12 forward I I I I #
loop $-1 $-1 $250 $78 #
coedge $-1 $165 $165 $250 $251 reversed $113 $-1 #
coedge $-1 $166 $166 $114 $167 forward $252 $-1 #
edge $-1 $253 0 $253 6.2831853071795862 $166 $254 forward 7 unknown #
attrib_edge_convexity-kcp-attrib $-1 $255 $-1 $116 1 #
vertex $-1 $116 $256 #
ellipse-curve $-1 0 0 10.5 0 0 -1 4 0 0 1 I I #
convexity-sys-attrib $-1 $-1 $117 $83 #
point $-1 4 0 5.5 #
face $-1 $257 $258 $32 $-1 $259 reversed single #
loop $-1 $-1 $260 $120 #
plane-surface $-1 -13.081475451951128 0 0 1 0 0 0 0 -1 forward_v I I I I #
coedge $-1 $261 $184 $262 $263 forward $121 $-1 #
coedge $-1 $264 $123 $261 $265 forward $85 $-1 #
coedge $-1 $123 $264 $266 $267 forward $85 $-1 #
coedge $-1 $187 $186 $123 $180 reversed $188 $-1 #
edge $-1 $268 -13.081475451951132 $269 13.081475451951132 $179 $270 forward 7 unknown #
coedge $-1 $125 $124 $271 $272 forward $60 $-1 #
coedge $-1 $273 $274 $124 $183 reversed $258 $-1 #
edge $-1 $190 -13.081475451951128 $275 13.081475451951128 $182 $276 forward 7 unknown #
coedge $-1 $176 $277 $125 $185 reversed $121 $-1 #
edge $-1 $278 -13.081475451951128 $189 13.081475451951128 $184 $279 forward 7 unknown #
coedge $-1 $179 $126 $277 $280 forward $188 $-1 #
coedge $-1 $126 $179 $273 $281 reversed $188 $-1 #
loop $-1 $-1 $186 $257 #
vertex $-1 $127 $282 #
vertex $-1 $127 $283 #
straight-curve $-1 13.081475451951128 0 12 0 1 0 I I #
coedge $-1 $192 $192 $131 $193 forward $128 $-1 #
edge $-1 $284 0 $284 6.2831853071795862 $192 $285 forward 7 unknown #
vertex $-1 $132 $286 #
ellipse-curve $-1 0 0 -2.5 0 0 -1 4 0 0 1 I I #
face $-1 $287 $288 $36 $-1 $289 reversed single #
loop $-1 $-1 $290 $133 #
plane-surface $-1 0 0 12 0 0 1 1 0 0 forward_v I I I I #
coedge $-1 $291 $292 $137 $204 forward $134 $-1 #
coedge $-1 $293 $136 $294 $295 reversed $94 $-1 #
coedge $-1 $136 $293 $296 $297 reversed $94 $-1 #
coedge $-1 $298 $299 $300 $139 forward $301 $-1 #
coedge $-1 $138 $137 $302 $303 reversed $66 $-1 #
edge $-1 $304 -1.5707963267948961 $208 1.5707963267948961 $199 $305 forward 7 unknown #
coedge $-1 $306 $307 $138 $206 forward $308 $-1 #
edge $-1 $207 -1.5707963267948968 $309 1.5707963267948968 $205 $310 forward 7 unknown #
vertex $-1 $311 $312 #
vertex $-1 $313 $314 #
straight-curve $-1 4.5961940777125569 4.5961940777125534 -12 0.70710678118654757 0.70710678118654746 0 I I #
face $-1 $-1 $315 $38 $-1 $316 reversed single #
loop $-1 $-1 $317 $140 #
plane-surface $-1 13.081475451951128 0 0 -1 0 0 0 0 1 forward_v I I I I #
coedge $-1 $214 $142 $317 $318 reversed $97 $-1 #
coedge $-1 $142 $213 $319 $320 reversed $97 $-1 #
edge $321 $220 1.5707963267948966 $219 4.7123889803846897 $142 $221 forward 7 unknown #
coedge $-1 $217 $144 $322 $323 reversed $141 $-1 #
coedge $-1 $144 $216 $324 $325 reversed $141 $-1 #
convexity-sys-attrib $-1 $-1 $-1 $145 #
vertex $-1 $320 $326 #
vertex $-1 $325 $327 #
ellipse-curve $-1 4.5961940777125587 4.5961940777125552 4.4989821654664123e-032 -0.70710678118654757 -0.70710678118654746 0 0 0 -12 1 I I #
face $-1 $-1 $328 $40 $-1 $329 reversed single #
loop $-1 $-1 $330 $146 #
plane-surface $-1 -13.081475451951128 0 0 1 0 0 0 0 -1 forward_v I I I I #
coedge $-1 $226 $148 $330 $331 reversed $101 $-1 #
coedge $-1 $148 $225 $332 $333 reversed $101 $-1 #
edge $334 $232 1.5707963267948966 $231 4.7123889803846897 $148 $233 forward 7 unknown #
coedge $-1 $229 $150 $335 $336 reversed $147 $-1 #
coedge $-1 $150 $228 $337 $338 reversed $147 $-1 #
convexity-sys-attrib $-1 $-1 $-1 $151 #
vertex $-1 $333 $339 #
vertex $-1 $338 $340 #
ellipse-curve $-1 -4.5961940777125534 -4.5961940777125552 4.4989821654664123e-032 0.70710678118654757 0.70710678118654746 0 0 0 -12 1 I I #
loop $-1 $341 $342 $152 #
plane-surface $-1 -1.0606601717798241 -1.0606601717798259 0.45454545454545414 0.70710678118654768 0.70710678118654735 -2.3429358968959959e-017 -3.313411721161088e-017 0 -1 forward_v I I I I #
loop $-1 $-1 $158 $104 #
coedge $-1 $237 $237 $156 $239 reversed $153 $-1 #
coedge $-1 $238 $238 $342 $343 reversed $155 $-1 #
edge $-1 $344 -3.1415926535897931 $344 3.1415926535897931 $156 $345 forward 7 unknown #
coedge $-1 $240 $240 $157 $241 forward $341 $-1 #
edge $-1 $346 2.2429892266911092e-017 $346 6.2831853071795862 $157 $347 forward 7 unknown #
vertex $-1 $159 $348 #
ellipse-curve $-1 4.5961940777125552 4.5961940777125552 0 0.70710678118654757 0.70710678118654746 0 0 0 -7 1 I I #
model_id-kcp-attrib $-1 $-1 $-1 $161 1 990635281 50 1295122433 7 #
face $349 $-1 $252 $12 $-1 $350 forward single #
loop $-1 $-1 $351 $161 #
plane-surface $-1 0 0 -2.5 0 0 -1 -1 0 0 forward_v I I I I #
loop $-1 $-1 $352 $110 #
coedge $-1 $249 $249 $351 $353 reversed $162 $-1 #
coedge $-1 $250 $250 $165 $251 forward $164 $-1 #
edge $354 $355 0 $355 6.2831853071795862 $250 $356 forward 7 unknown #
loop $-1 $357 $166 $245 #
vertex $-1 $167 $358 #
ellipse-curve $-1 0 0 2.5 0 0 -1 7 0 0 1 I I #
convexity-sys-attrib $-1 $-1 $168 $116 #
point $-1 4 0 10.5 #
face $-1 $-1 $188 $32 $-1 $359 reversed single #
loop $-1 $-1 $273 $173 #
plane-surface $-1 0 13.081475451951132 0 0 -1 0 0 0 -1 forward_v I I I I #
coedge $-1 $360 $271 $274 $361 forward $174 $-1 #
coedge $-1 $277 $176 $177 $265 reversed $121 $-1 #
coedge $-1 $271 $360 $176 $263 reversed $174 $-1 #
edge $-1 $278 -12 $362 12 $262 $363 forward 7 unknown #
coedge $-1 $178 $177 $360 $364 forward $85 $-1 #
edge $-1 $269 -13.081475451951128 $362 13.081475451951128 $261 $365 forward 7 unknown #
coedge $-1 $274 $273 $178 $267 reversed $258 $-1 #
edge $-1 $366 -13.081475451951128 $268 13.081475451951128 $266 $367 forward 7 unknown #
vertex $-1 $180 $368 #
vertex $-1 $280 $369 #
straight-curve $-1 13.081475451951128 0 -12 0 -1 0 I I #
coedge $-1 $260 $262 $181 $272 reversed $174 $-1 #
edge $-1 $275 -13.081475451951132 $278 13.081475451951132 $271 $370 forward 7 unknown #
coedge $-1 $266 $182 $187 $281 forward $258 $-1 #
coedge $-1 $182 $266 $260 $361 reversed $258 $-1 #
vertex $-1 $183 $371 #
straight-curve $-1 0 13.081475451951132 12 -1 0 0 I I #
coedge $-1 $184 $261 $186 $280 reversed $121 $-1 #
vertex $-1 $272 $372 #
straight-curve $-1 0 -13.081475451951132 12 1 0 0 I I #
edge $-1 $189 -12 $269 12 $186 $373 forward 7 unknown #
edge $-1 $190 -12 $268 12 $187 $374 forward 7 unknown #
point $-1 13.081475451951128 -13.081475451951132 12 #
point $-1 13.081475451951128 13.081475451951132 12 #
vertex $-1 $193 $375 #
ellipse-curve $-1 0 0 2.5 0 0 1 4 0 0 1 I I #
point $-1 4 0 -2.5 #
face $-1 $376 $377 $36 $-1 $378 reversed single #
loop $-1 $-1 $294 $196 #
plane-surface $-1 0 -13.081475451951132 0 0 1 0 0 0 1 forward_v I I I I #
coedge $-1 $379 $380 $293 $303 reversed $197 $-1 #
coedge $-1 $381 $199 $382 $383 reversed $134 $-1 #
coedge $-1 $199 $381 $384 $385 reversed $134 $-1 #
coedge $-1 $201 $200 $203 $303 forward $94 $-1 #
coedge $-1 $386 $387 $200 $295 forward $288 $-1 #
edge $-1 $309 1.5707963267948966 $207 4.7123889803846897 $294 $388 forward 7 unknown #
coedge $-1 $389 $390 $201 $297 forward $391 $-1 #
edge $-1 $208 1.5707963267948961 $304 4.7123889803846897 $296 $392 forward 7 unknown #
coedge $-1 $299 $202 $390 $313 forward $301 $-1 #
coedge $-1 $202 $298 $386 $393 forward $301 $-1 #
coedge $-1 $394 $382 $95 $139 reversed $377 $-1 #
loop $-1 $-1 $202 $395 #
coedge $-1 $384 $396 $290 $303 forward $397 $-1 #
edge $-1 $309 -24.999999999999993 $304 12.000000000000007 $302 $398 forward 7 unknown #
vertex $-1 $399 $400 #
ellipse-curve $-1 13.081475451951137 13.081475451951132 4.4989821654664123e-032 0 -1 0 -16.970562748477143 0 0 0.70710678118654746 I I #
coedge $-1 $401 $205 $396 $402 reversed $308 $-1 #
coedge $-1 $205 $401 $394 $311 reversed $308 $-1 #
loop $-1 $-1 $205 $403 #
vertex $-1 $402 $404 #
ellipse-curve $-1 -13.081475451951128 -13.081475451951128 4.4989821654664123e-032 1 0 0 0 16.970562748477139 0 0.70710678118654757 I I #
edge $-1 $207 -13.081475451951132 $405 13.081475451951132 $307 $406 forward 7 unknown #
point $-1 -13.081475451951128 -13.081475451951132 -12 #
edge $-1 $208 -13.081475451951132 $407 13.081475451951132 $390 $408 forward 7 unknown #
point $-1 13.081475451951128 13.081475451951132 -12 #
loop $-1 $-1 $322 $210 #
plane-surface $-1 0 13.081475451951132 0 0 -1 0 0 0 -1 forward_v I I I I #
coedge $-1 $324 $409 $213 $318 forward $211 $-1 #
edge $-1 $410 1.5707963267948961 $220 3.1415926535897931 $317 $411 forward 7 unknown #
coedge $-1 $412 $322 $214 $320 forward $315 $-1 #
edge $-1 $219 0 $410 1.5707963267948961 $319 $413 forward 7 unknown #
convexity-sys-attrib $-1 $-1 $-1 $215 #
coedge $-1 $319 $412 $216 $323 forward $315 $-1 #
edge $-1 $414 -1.5707963267948961 $219 0 $322 $413 forward 7 unknown #
coedge $-1 $409 $317 $217 $325 forward $211 $-1 #
edge $-1 $220 -3.1415926535897931 $414 -1.5707963267948961 $324 $411 forward 7 unknown #
point $-1 -3.8890872965260126 13.081475451951132 4.4989821654664123e-032 #
point $-1 13.081475451951128 -3.8890872965260197 4.4989821654664123e-032 #
loop $-1 $-1 $335 $222 #
plane-surface $-1 0 -13.081475451951132 0 0 1 0 0 0 1 forward_v I I I I #
coedge $-1 $337 $415 $225 $331 forward $223 $-1 #
edge $-1 $416 -1.5707963267948968 $232 0 $330 $417 forward 7 unknown #
coedge $-1 $418 $335 $226 $333 forward $328 $-1 #
edge $-1 $231 -3.1415926535897931 $416 -1.5707963267948966 $332 $419 forward 7 unknown #
convexity-sys-attrib $-1 $-1 $-1 $227 #
coedge $-1 $332 $418 $228 $336 forward $328 $-1 #
edge $-1 $420 1.5707963267948966 $231 3.1415926535897931 $335 $419 forward 7 unknown #
coedge $-1 $415 $330 $229 $338 forward $223 $-1 #
edge $-1 $232 0 $420 1.5707963267948968 $337 $417 forward 7 unknown #
point $-1 3.8890872965260215 -13.081475451951132 4.4989821654664123e-032 #
point $-1 -13.081475451951128 3.889087296526025 4.4989821654664123e-032 #
loop $-1 $-1 $240 $152 #
coedge $-1 $342 $342 $238 $343 forward $234 $-1 #
edge $421 $422 -3.1415926535897931 $422 3.1415926535897931 $238 $423 forward 7 unknown #
vertex $-1 $239 $424 #
ellipse-curve $-1 4.5961940777125561 4.5961940777125534 4.4989821654664123e-032 -0.70710678118654757 -0.70710678118654746 0 0 0 -12 1 I I #
vertex $-1 $241 $425 #
ellipse-curve $-1 -1.0606601717798241 -1.0606601717798245 0 0.70710678118654757 0.70710678118654746 0 0 0 -7 1 I I #
point $-1 4.5961940777125569 4.5961940777125569 -7 #
model_id-kcp-attrib $-1 $-1 $-1 $245 1 990635281 50 1295122433 8 #
plane-surface $-1 0 0 2.5 0 0 1 1 0 0 forward_v I I I I #
coedge $-1 $351 $351 $249 $353 forward $246 $-1 #
coedge $-1 $352 $352 $426 $427 reversed $248 $-1 #
edge $428 $429 0 $429 6.2831853071795862 $351 $430 forward 7 unknown #
attrib_edge_convexity-kcp-attrib $-1 $431 $-1 $251 1 #
vertex $-1 $251 $432 #
ellipse-curve $-1 0 0 10.5 0 0 1 7 0 0 1 I I #
loop $-1 $-1 $426 $245 #
point $-1 7 0 2.5 #
plane-surface $-1 13.081475451951128 0 0 -1 0 0 0 0 1 forward_v I I I I #
coedge $-1 $262 $260 $264 $364 reversed $174 $-1 #
edge $-1 $275 -12 $366 12 $274 $433 forward 7 unknown #
vertex $-1 $364 $434 #
straight-curve $-1 -13.081475451951128 -13.081475451951132 0 0 0 -1 I I #
edge $-1 $362 -13.081475451951132 $366 13.081475451951132 $360 $435 forward 7 unknown #
straight-curve $-1 0 -13.081475451951132 -12 -1 0 0 I I #
vertex $-1 $267 $436 #
straight-curve $-1 0 13.081475451951132 -12 1 0 0 I I #
point $-1 13.081475451951128 13.081475451951132 -12 #
point $-1 13.081475451951128 -13.081475451951132 -12 #
straight-curve $-1 -13.081475451951128 0 12 0 -1 0 I I #
point $-1 -13.081475451951128 13.081475451951132 12 #
point $-1 -13.081475451951128 -13.081475451951132 12 #
straight-curve $-1 13.081475451951128 -13.081475451951132 0 0 0 -1 I I #
straight-curve $-1 13.081475451951128 13.081475451951132 0 0 0 -1 I I #
point $-1 4 0 2.5 #
face $-1 $395 $397 $36 $-1 $198 forward single #
loop $-1 $-1 $300 $287 #
plane-surface $-1 0 0 -12 0 0 1 1 0 0 forward_v I I I I #
coedge $-1 $380 $290 $387 $437 forward $197 $-1 #
coedge $-1 $290 $379 $389 $399 forward $197 $-1 #
coedge $-1 $292 $291 $401 $438 reversed $134 $-1 #
coedge $-1 $300 $394 $291 $383 forward $377 $-1 #
edge $-1 $405 -13.081475451951128 $208 13.081475451951128 $291 $439 forward 7 unknown #
coedge $-1 $396 $302 $292 $385 forward $397 $-1 #
edge $-1 $304 -13.081475451951128 $440 13.081475451951128 $292 $441 forward 7 unknown #
coedge $-1 $442 $294 $299 $393 reversed $288 $-1 #
coedge $-1 $294 $442 $379 $437 reversed $288 $-1 #
ellipse-curve $-1 -13.081475451951128 -13.081475451951132 4.4989821654664123e-032 0 1 0 -16.970562748477143 0 0 0.70710678118654746 I I #
coedge $-1 $443 $296 $380 $399 reversed $391 $-1 #
coedge $-1 $296 $443 $298 $313 reversed $391 $-1 #
loop $-1 $-1 $296 $444 #
ellipse-curve $-1 13.081475451951128 13.081475451951123 4.4989821654664123e-032 -1 0 0 0 16.970562748477139 0 0.70710678118654757 I I #
edge $-1 $407 -13.081475451951128 $207 13.081475451951128 $386 $445 forward 7 unknown #
coedge $-1 $382 $300 $307 $311 forward $377 $-1 #
face $-1 $403 $301 $36 $-1 $378 reversed single #
coedge $-1 $302 $384 $306 $402 forward $397 $-1 #
loop $-1 $-1 $302 $376 #
straight-curve $-1 4.5961940777125569 4.5961940777125534 12 0.70710678118654757 0.70710678118654746 0 I I #
edge $-1 $446 -13.081475451951132 $304 13.081475451951132 $389 $447 forward 7 unknown #
point $-1 13.081475451951128 13.081475451951132 12 #
coedge $-1 $307 $306 $381 $438 forward $308 $-1 #
edge $-1 $440 -13.081475451951132 $309 13.081475451951132 $306 $448 forward 7 unknown #
face $-1 $444 $308 $36 $-1 $449 reversed single #
point $-1 -13.081475451951128 -13.081475451951132 12 #
vertex $-1 $383 $450 #
straight-curve $-1 -13.081475451951128 0 -12 0 1 0 I I #
vertex $-1 $451 $452 #
straight-curve $-1 13.081475451951128 0 -12 0 -1 0 I I #
coedge $-1 $317 $324 $412 $453 reversed $211 $-1 #
vertex $-1 $320 $454 #
ellipse-curve $-1 13.081475451951128 13.081475451951123 4.4989821654664123e-032 1 0 0 0 16.970562748477139 0 0.70710678118654757 I I #
coedge $-1 $322 $319 $409 $453 forward $315 $-1 #
ellipse-curve $-1 13.081475451951137 13.081475451951132 4.4989821654664123e-032 0 1 0 -16.970562748477143 0 0 0.70710678118654746 I I #
vertex $-1 $325 $455 #
coedge $-1 $330 $337 $418 $456 reversed $223 $-1 #
vertex $-1 $331 $457 #
ellipse-curve $-1 -13.081475451951128 -13.081475451951128 4.4989821654664123e-032 -1 0 0 0 16.970562748477139 0 0.70710678118654757 I I #
coedge $-1 $335 $332 $415 $456 forward $328 $-1 #
ellipse-curve $-1 -13.081475451951128 -13.081475451951132 4.4989821654664123e-032 0 -1 0 -16.970562748477143 0 0 0.70710678118654746 I I #
vertex $-1 $338 $458 #
convexity-sys-attrib $-1 $-1 $-1 $343 #
vertex $-1 $343 $459 #
ellipse-curve $-1 -1.0606601717798236 -1.0606601717798263 4.4989821654664123e-032 -0.70710678118654757 -0.70710678118654746 0 0 0 -12 1 I I #
point $-1 4.5961940777125552 4.5961940777125543 12 #
point $-1 -1.0606601717798227 -1.060660171779823 -7 #
coedge $-1 $426 $426 $352 $427 forward $357 $-1 #
edge $-1 $460 0 $460 6.2831853071795862 $426 $461 forward 7 unknown #
attrib_edge_convexity-kcp-attrib $-1 $462 $-1 $353 1 #
vertex $-1 $353 $463 #
ellipse-curve $-1 0 0 -2.5 0 0 -1 12 0 0 1 I I #
convexity-sys-attrib $-1 $-1 $354 $251 #
point $-1 7 0 10.5 #
straight-curve $-1 -13.081475451951128 13.081475451951132 0 0 0 -1 I I #
point $-1 -13.081475451951128 -13.081475451951132 -12 #
straight-curve $-1 -13.081475451951128 0 -12 0 1 0 I I #
point $-1 -13.081475451951128 13.081475451951132 -12 #
edge $-1 $309 -13.081475451951128 $446 13.081475451951128 $387 $464 forward 7 unknown #
edge $-1 $440 -12 $405 12 $381 $465 forward 7 unknown #
straight-curve $-1 0 13.081475451951132 -12 1 0 0 I I #
vertex $-1 $385 $466 #
straight-curve $-1 0 13.081475451951132 12 -1 0 0 I I #
coedge $-1 $387 $386 $443 $451 reversed $288 $-1 #
coedge $-1 $390 $389 $442 $451 forward $391 $-1 #
face $-1 $-1 $391 $36 $-1 $467 reversed single #
straight-curve $-1 0 -13.081475451951132 -12 -1 0 0 I I #
vertex $-1 $399 $468 #
straight-curve $-1 13.081475451951128 0 12 0 1 0 I I #
straight-curve $-1 -13.081475451951128 0 12 0 -1 0 I I #
plane-surface $-1 -13.081475451951128 0 0 1 0 0 0 0 -1 forward_v I I I I #
point $-1 -13.081475451951128 13.081475451951132 -12 #
edge $-1 $446 -12 $407 12 $443 $469 forward 7 unknown #
point $-1 13.081475451951128 -13.081475451951132 -12 #
edge $-1 $410 -12 $414 12 $409 $470 forward 7 unknown #
point $-1 13.081475451951128 13.081475451951132 12 #
point $-1 13.081475451951128 13.081475451951132 -12 #
edge $-1 $416 -12 $420 12 $415 $471 forward 7 unknown #
point $-1 -13.081475451951128 -13.081475451951132 12 #
point $-1 -13.081475451951128 -13.081475451951132 -12 #
point $-1 -1.0606601717798247 -1.0606601717798252 12 #
vertex $-1 $427 $472 #
ellipse-curve $-1 0 0 2.5 0 0 1 12 0 0 1 I I #
convexity-sys-attrib $-1 $-1 $428 $353 #
point $-1 12 0 -2.5 #
straight-curve $-1 0 -13.081475451951132 12 1 0 0 I I #
straight-curve $-1 -13.081475451951128 13.081475451951132 0 0 0 -1 I I #
point $-1 -13.081475451951128 13.081475451951132 12 #
plane-surface $-1 13.081475451951128 0 0 -1 0 0 0 0 1 forward_v I I I I #
point $-1 13.081475451951128 -13.081475451951132 12 #
straight-curve $-1 13.081475451951128 -13.081475451951132 0 0 0 -1 I I #
straight-curve $-1 13.081475451951128 13.081475451951132 0 0 0 -1 I I #
straight-curve $-1 -13.081475451951128 -13.081475451951132 0 0 0 -1 I I #
point $-1 12 0 2.5 #
End-of-ACIS-data 