600 0 2 0           
24 FBMach with ACIS - 6.0.3 13 ACIS 6.0.3 NT 24 Wed May 23 12:28:04 2001 
1 9.9999999999999995e-007 1e-010 
body $2 $3 $-1 $4 #
bdycol-kcp $-1 1 4 $5 $6 $7 $8 #
model_id-kcp-attrib $-1 $9 $-1 $0 1 990635284 60 -818151423 1 #
lump $-1 $-1 $10 $0 #
transform $-1 0 0 -1 -0.70710678118654746 0.70710678118654757 0 0.70710678118654757 0.70710678118654746 0 27.223611075682079 27.223611075682079 0 1 rotate no_reflect no_shear #
body $11 $12 $-1 $13 #
body $14 $15 $-1 $16 #
body $17 $18 $-1 $19 #
body $20 $21 $-1 $22 #
rgb_color-st-attrib $-1 $-1 $2 $0 0 1 0 #
shell $-1 $-1 $-1 $23 $-1 $3 #
model_id-kcp-attrib $-1 $-1 $-1 $5 1 990635284 70 -817496062 1 #
lump $-1 $-1 $24 $5 #
transform $-1 1 0 0 0 1 0 0 0 1 27.223611075682086 27.223611075682072 0 1 no_rotate no_reflect no_shear #
rgb_color-st-attrib $-1 $25 $-1 $6 0.5 1 1 #
lump $-1 $-1 $26 $6 #
transform $-1 1 0 0 0 1 0 0 0 1 27.223611075682086 27.223611075682072 0 1 no_rotate no_reflect no_shear #
rgb_color-st-attrib $-1 $27 $-1 $7 0.5 0.5 1 #
lump $-1 $-1 $28 $7 #
transform $-1 1 0 0 0 1 0 0 0 1 27.223611075682086 27.223611075682072 0 1 no_rotate no_reflect no_shear #
rgb_color-st-attrib $-1 $29 $-1 $8 0.5 0.5 1 #
lump $-1 $-1 $30 $8 #
transform $-1 1 0 0 0 1 0 0 0 1 27.223611075682086 27.223611075682072 0 1 no_rotate no_reflect no_shear #
face $31 $32 $33 $10 $-1 $34 forward single #
shell $-1 $-1 $-1 $35 $-1 $12 #
model_id-kcp-attrib $-1 $-1 $14 $6 1 990635284 130 -813563901 1 #
shell $-1 $-1 $-1 $36 $-1 $15 #
model_id-kcp-attrib $-1 $-1 $17 $7 1 990635284 210 -808321020 1 #
shell $-1 $-1 $-1 $37 $-1 $18 #
model_id-kcp-attrib $-1 $-1 $20 $8 1 990635284 270 -821166075 1 #
shell $-1 $-1 $-1 $38 $-1 $21 #
model_id-kcp-attrib $-1 $-1 $-1 $23 1 990635284 60 -818151423 2 #
face $39 $40 $41 $10 $-1 $42 forward single #
loop $-1 $43 $44 $23 #
cone-surface $-1 0 0 0 0 0 1 4 0 0 1 I I 0 1 4 forward I I I I #
face $-1 $45 $46 $24 $-1 $47 forward single #
face $-1 $48 $49 $26 $-1 $50 reversed single #
face $-1 $51 $52 $28 $-1 $53 reversed single #
face $-1 $54 $55 $30 $-1 $56 reversed single #
model_id-kcp-attrib $-1 $-1 $-1 $32 1 990635284 60 -818151423 3 #
face $57 $-1 $58 $10 $-1 $59 forward single #
loop $-1 $-1 $60 $32 #
plane-surface $-1 0 0 -8.5 0 0 -1 -1 0 0 forward_v I I I I #
loop $-1 $-1 $61 $23 #
coedge $-1 $44 $44 $60 $62 reversed $33 $-1 #
face $-1 $63 $64 $24 $-1 $65 reversed single #
loop $-1 $-1 $66 $35 #
plane-surface $-1 0 0 4 0 0 1 1 0 0 forward_v I I I I #
face $-1 $67 $68 $26 $-1 $50 reversed single #
loop $-1 $-1 $69 $36 #
cone-surface $-1 -6.0104076400856634 -6.0104076400856492 1.4996607218221374e-032 -0.70710678118654757 -0.70710678118654746 0 0 0 -4 1 I I 0 1 4 forward I I I I #
face $-1 $70 $71 $28 $-1 $72 forward single #
loop $-1 $-1 $73 $37 #
plane-surface $-1 -6.0104076400856563 -6.0104076400856528 0 -0.70710678118654757 -0.70710678118654746 0 0.70710678118654746 -0.70710678118654757 0 forward_v I I I I #
face $-1 $74 $75 $30 $-1 $76 forward single #
loop $-1 $-1 $77 $38 #
plane-surface $-1 6.0104076400856492 6.0104076400856599 0 0.70710678118654757 0.70710678118654746 0 -0.70710678118654746 0.70710678118654757 0 forward_v I I I I #
model_id-kcp-attrib $-1 $-1 $-1 $40 1 990635284 60 -818151423 4 #
loop $-1 $-1 $78 $40 #
plane-surface $-1 0 0 8.5 0 0 1 1 0 0 forward_v I I I I #
coedge $-1 $60 $60 $44 $62 forward $41 $-1 #
coedge $-1 $61 $61 $78 $79 reversed $43 $-1 #
edge $80 $81 0 $81 6.2831853071795862 $60 $82 forward 7 unknown #
face $-1 $83 $84 $24 $-1 $85 reversed single #
loop $-1 $-1 $86 $45 #
plane-surface $-1 0 0 -4 0 0 1 1 0 0 forward_v I I I I #
coedge $-1 $87 $88 $89 $90 forward $46 $-1 #
face $-1 $91 $92 $26 $-1 $93 reversed single #
loop $-1 $-1 $94 $48 #
coedge $-1 $95 $96 $94 $97 forward $49 $-1 #
face $-1 $98 $99 $28 $-1 $72 forward single #
loop $-1 $-1 $100 $51 #
cone-surface $-1 -6.0104076400856634 -6.0104076400856492 1.4996607218221374e-032 -0.70710678118654757 -0.70710678118654746 0 0 0 -4 1 I I 0 1 4 forward I I I I #
coedge $-1 $101 $101 $102 $103 forward $52 $-1 #
face $-1 $104 $105 $30 $-1 $76 forward single #
loop $-1 $-1 $106 $54 #
cone-surface $-1 -6.0104076400856634 -6.0104076400856492 1.4996607218221374e-032 -0.70710678118654757 -0.70710678118654746 0 0 0 -4 1 I I 0 1 4 forward I I I I #
coedge $-1 $107 $107 $108 $109 forward $55 $-1 #
coedge $-1 $78 $78 $61 $79 forward $58 $-1 #
edge $110 $111 0 $111 6.2831853071795862 $78 $112 forward 7 unknown #
attrib_edge_convexity-kcp-attrib $-1 $113 $-1 $62 1 #
vertex $-1 $62 $114 #
ellipse-curve $-1 0 0 -8.5 0 0 -1 4 0 0 1 I I #
face $-1 $115 $116 $24 $-1 $117 reversed single #
loop $-1 $-1 $118 $63 #
plane-surface $-1 0 -8.8388347648318426 0 0 1 0 0 0 1 forward_v I I I I #
coedge $-1 $119 $120 $121 $122 forward $64 $-1 #
coedge $-1 $123 $66 $124 $125 forward $46 $-1 #
coedge $-1 $66 $123 $126 $127 forward $46 $-1 #
coedge $-1 $128 $129 $66 $90 reversed $130 $-1 #
edge $-1 $131 -8.8388347648318426 $132 8.8388347648318426 $89 $133 forward 7 unknown #
face $-1 $134 $135 $26 $-1 $136 forward single #
loop $-1 $-1 $137 $67 #
plane-surface $-1 0 -8.8388347648318426 0 0 1 0 0 0 1 forward_v I I I I #
coedge $-1 $138 $139 $140 $97 reversed $68 $-1 #
coedge $-1 $141 $69 $137 $142 reversed $49 $-1 #
coedge $-1 $69 $141 $143 $144 reversed $49 $-1 #
edge $-1 $145 -21.000000000000004 $146 3.9999999999999973 $140 $147 forward 7 unknown #
face $-1 $148 $149 $28 $-1 $150 reversed single #
loop $-1 $-1 $102 $70 #
coedge $-1 $151 $152 $101 $153 reversed $71 $-1 #
coedge $-1 $73 $73 $100 $153 forward $52 $-1 #
coedge $-1 $154 $155 $73 $103 reversed $99 $-1 #
edge $156 $157 -1.5707963267948966 $158 1.5707963267948966 $102 $159 forward 7 unknown #
face $-1 $160 $161 $30 $-1 $162 reversed single #
loop $-1 $-1 $108 $74 #
coedge $-1 $163 $164 $107 $165 reversed $75 $-1 #
coedge $-1 $77 $77 $106 $165 forward $55 $-1 #
coedge $-1 $166 $167 $77 $109 reversed $105 $-1 #
edge $168 $169 -1.5707963267948966 $170 1.5707963267948966 $108 $171 forward 7 unknown #
attrib_edge_convexity-kcp-attrib $-1 $172 $-1 $79 1 #
vertex $-1 $79 $173 #
ellipse-curve $-1 0 0 8.5 0 0 1 4 0 0 1 I I #
convexity-sys-attrib $-1 $-1 $80 $62 #
point $-1 4 0 -8.5 #
face $-1 $174 $175 $24 $-1 $176 reversed single #
loop $-1 $-1 $177 $83 #
plane-surface $-1 -8.8388347648318462 0 0 1 0 0 0 0 -1 forward_v I I I I #
coedge $-1 $178 $126 $179 $180 forward $84 $-1 #
coedge $-1 $181 $86 $178 $182 forward $64 $-1 #
coedge $-1 $86 $181 $183 $184 forward $64 $-1 #
coedge $-1 $129 $128 $86 $122 reversed $130 $-1 #
edge $-1 $185 -8.8388347648318426 $186 8.8388347648318426 $121 $187 forward 7 unknown #
coedge $-1 $88 $87 $188 $189 forward $46 $-1 #
coedge $-1 $190 $191 $87 $125 reversed $175 $-1 #
edge $-1 $132 -8.8388347648318462 $192 8.8388347648318462 $124 $193 forward 7 unknown #
coedge $-1 $118 $194 $88 $127 reversed $84 $-1 #
edge $-1 $195 -8.8388347648318462 $131 8.8388347648318462 $126 $196 forward 7 unknown #
coedge $-1 $121 $89 $194 $197 forward $130 $-1 #
coedge $-1 $89 $121 $190 $198 reversed $130 $-1 #
loop $-1 $-1 $128 $174 #
vertex $-1 $90 $199 #
vertex $-1 $90 $200 #
straight-curve $-1 8.8388347648318462 0 4 0 1 0 I I #
face $-1 $201 $202 $26 $-1 $203 reversed single #
loop $-1 $-1 $204 $91 #
plane-surface $-1 0 0 4 0 0 1 1 0 0 forward_v I I I I #
coedge $-1 $205 $206 $95 $142 forward $92 $-1 #
coedge $-1 $207 $94 $208 $209 reversed $68 $-1 #
coedge $-1 $94 $207 $210 $211 reversed $68 $-1 #
coedge $-1 $212 $213 $214 $97 forward $215 $-1 #
coedge $-1 $96 $95 $216 $217 reversed $49 $-1 #
edge $-1 $218 -1.5707963267948948 $146 1.5707963267948948 $137 $219 forward 7 unknown #
coedge $-1 $220 $221 $96 $144 forward $222 $-1 #
edge $-1 $145 -1.5707963267948941 $223 1.5707963267948941 $143 $224 forward 7 unknown #
vertex $-1 $225 $226 #
vertex $-1 $227 $228 #
straight-curve $-1 -6.0104076400856634 -6.0104076400856492 -4 -0.70710678118654757 -0.70710678118654746 0 I I #
face $-1 $-1 $229 $28 $-1 $230 reversed single #
loop $-1 $-1 $231 $98 #
plane-surface $-1 -8.8388347648318462 0 0 1 0 0 0 0 -1 forward_v I I I I #
coedge $-1 $152 $100 $231 $232 reversed $71 $-1 #
coedge $-1 $100 $151 $233 $234 reversed $71 $-1 #
edge $235 $158 1.5707963267948966 $157 4.7123889803846897 $100 $159 forward 7 unknown #
coedge $-1 $155 $102 $236 $237 reversed $99 $-1 #
coedge $-1 $102 $154 $238 $239 reversed $99 $-1 #
convexity-sys-attrib $-1 $-1 $-1 $103 #
vertex $-1 $234 $240 #
vertex $-1 $239 $241 #
ellipse-curve $-1 -6.0104076400856616 -6.0104076400856474 1.4996607218221374e-032 0.70710678118654757 0.70710678118654746 0 0 0 -4 1 I I #
face $-1 $-1 $242 $30 $-1 $243 reversed single #
loop $-1 $-1 $244 $104 #
plane-surface $-1 8.8388347648318462 0 0 -1 0 0 0 0 1 forward_v I I I I #
coedge $-1 $164 $106 $244 $245 reversed $75 $-1 #
coedge $-1 $106 $163 $246 $247 reversed $75 $-1 #
edge $248 $170 1.5707963267948966 $169 4.7123889803846897 $106 $171 forward 7 unknown #
coedge $-1 $167 $108 $249 $250 reversed $105 $-1 #
coedge $-1 $108 $166 $251 $252 reversed $105 $-1 #
convexity-sys-attrib $-1 $-1 $-1 $109 #
vertex $-1 $247 $253 #
vertex $-1 $252 $254 #
ellipse-curve $-1 6.0104076400856474 6.0104076400856599 1.4996607218221374e-032 -0.70710678118654757 -0.70710678118654746 0 0 0 -4 1 I I #
convexity-sys-attrib $-1 $-1 $110 $79 #
point $-1 4 0 8.5 #
face $-1 $-1 $130 $24 $-1 $255 reversed single #
loop $-1 $-1 $190 $115 #
plane-surface $-1 0 8.8388347648318426 0 0 -1 0 0 0 -1 forward_v I I I I #
coedge $-1 $256 $188 $191 $257 forward $116 $-1 #
coedge $-1 $194 $118 $119 $182 reversed $84 $-1 #
coedge $-1 $188 $256 $118 $180 reversed $116 $-1 #
edge $-1 $195 -4 $258 4 $179 $259 forward 7 unknown #
coedge $-1 $120 $119 $256 $260 forward $64 $-1 #
edge $-1 $186 -8.8388347648318462 $258 8.8388347648318462 $178 $261 forward 7 unknown #
coedge $-1 $191 $190 $120 $184 reversed $175 $-1 #
edge $-1 $262 -8.8388347648318462 $185 8.8388347648318462 $183 $263 forward 7 unknown #
vertex $-1 $122 $264 #
vertex $-1 $197 $265 #
straight-curve $-1 8.8388347648318462 0 -4 0 -1 0 I I #
coedge $-1 $177 $179 $123 $189 reversed $116 $-1 #
edge $-1 $192 -8.8388347648318426 $195 8.8388347648318426 $188 $266 forward 7 unknown #
coedge $-1 $183 $124 $129 $198 forward $175 $-1 #
coedge $-1 $124 $183 $177 $257 reversed $175 $-1 #
vertex $-1 $125 $267 #
straight-curve $-1 0 8.8388347648318426 4 -1 0 0 I I #
coedge $-1 $126 $178 $128 $197 reversed $84 $-1 #
vertex $-1 $189 $268 #
straight-curve $-1 0 -8.8388347648318426 4 1 0 0 I I #
edge $-1 $131 -4 $186 4 $128 $269 forward 7 unknown #
edge $-1 $132 -4 $185 4 $129 $270 forward 7 unknown #
point $-1 8.8388347648318462 -8.8388347648318426 4 #
point $-1 8.8388347648318462 8.8388347648318426 4 #
face $-1 $271 $272 $26 $-1 $273 reversed single #
loop $-1 $-1 $208 $134 #
plane-surface $-1 0 8.8388347648318426 0 0 -1 0 0 0 -1 forward_v I I I I #
coedge $-1 $274 $275 $207 $217 reversed $135 $-1 #
coedge $-1 $276 $137 $277 $278 reversed $92 $-1 #
coedge $-1 $137 $276 $279 $280 reversed $92 $-1 #
coedge $-1 $139 $138 $141 $217 forward $68 $-1 #
coedge $-1 $281 $282 $138 $209 forward $202 $-1 #
edge $-1 $223 1.5707963267948939 $145 4.7123889803846923 $208 $283 forward 7 unknown #
coedge $-1 $284 $285 $139 $211 forward $286 $-1 #
edge $-1 $146 1.5707963267948948 $218 4.7123889803846915 $210 $287 forward 7 unknown #
coedge $-1 $213 $140 $285 $227 forward $215 $-1 #
coedge $-1 $140 $212 $281 $288 forward $215 $-1 #
coedge $-1 $289 $277 $69 $97 reversed $272 $-1 #
loop $-1 $-1 $140 $290 #
coedge $-1 $279 $291 $204 $217 forward $292 $-1 #
edge $-1 $223 -21.000000000000004 $218 3.9999999999999973 $216 $293 forward 7 unknown #
vertex $-1 $294 $295 #
ellipse-curve $-1 -8.8388347648318568 -8.8388347648318426 1.4996607218221374e-032 0 1 0 5.6568542494923806 0 0 0.70710678118654746 I I #
coedge $-1 $296 $143 $291 $297 reversed $222 $-1 #
coedge $-1 $143 $296 $289 $225 reversed $222 $-1 #
loop $-1 $-1 $143 $298 #
vertex $-1 $297 $299 #
ellipse-curve $-1 8.8388347648318462 8.8388347648318568 1.4996607218221374e-032 -1 0 0 0 -5.6568542494923797 0 0.70710678118654757 I I #
edge $-1 $145 -8.8388347648318426 $300 8.8388347648318426 $221 $301 forward 7 unknown #
point $-1 8.8388347648318462 8.8388347648318426 -4 #
edge $-1 $146 -8.8388347648318426 $302 8.8388347648318426 $285 $303 forward 7 unknown #
point $-1 -8.8388347648318462 -8.8388347648318426 -4 #
loop $-1 $-1 $236 $148 #
plane-surface $-1 0 -8.8388347648318426 0 0 1 0 0 0 1 forward_v I I I I #
coedge $-1 $238 $304 $151 $232 forward $149 $-1 #
edge $-1 $305 1.5707963267948948 $158 3.1415926535897931 $231 $306 forward 7 unknown #
coedge $-1 $307 $236 $152 $234 forward $229 $-1 #
edge $-1 $157 0 $305 1.5707963267948948 $233 $308 forward 7 unknown #
convexity-sys-attrib $-1 $-1 $-1 $153 #
coedge $-1 $233 $307 $154 $237 forward $229 $-1 #
edge $-1 $309 -1.5707963267948948 $157 0 $236 $308 forward 7 unknown #
coedge $-1 $304 $231 $155 $239 forward $149 $-1 #
edge $-1 $158 -3.1415926535897931 $309 -1.5707963267948948 $238 $306 forward 7 unknown #
point $-1 -3.1819805153394674 -8.8388347648318426 1.4996607218221374e-032 #
point $-1 -8.8388347648318462 -3.181980515339462 1.4996607218221374e-032 #
loop $-1 $-1 $249 $160 #
plane-surface $-1 0 8.8388347648318426 0 0 -1 0 0 0 -1 forward_v I I I I #
coedge $-1 $251 $310 $163 $245 forward $161 $-1 #
edge $-1 $311 -1.5707963267948941 $170 0 $244 $312 forward 7 unknown #
coedge $-1 $313 $249 $164 $247 forward $242 $-1 #
edge $-1 $169 -3.1415926535897931 $311 -1.5707963267948939 $246 $314 forward 7 unknown #
convexity-sys-attrib $-1 $-1 $-1 $165 #
coedge $-1 $246 $313 $166 $250 forward $242 $-1 #
edge $-1 $315 1.5707963267948939 $169 3.1415926535897931 $249 $314 forward 7 unknown #
coedge $-1 $310 $244 $167 $252 forward $161 $-1 #
edge $-1 $170 0 $315 1.5707963267948941 $251 $312 forward 7 unknown #
point $-1 3.1819805153394674 8.8388347648318426 1.4996607218221374e-032 #
point $-1 8.8388347648318462 3.1819805153394629 1.4996607218221374e-032 #
plane-surface $-1 8.8388347648318462 0 0 -1 0 0 0 0 1 forward_v I I I I #
coedge $-1 $179 $177 $181 $260 reversed $116 $-1 #
edge $-1 $192 -4 $262 4 $191 $316 forward 7 unknown #
vertex $-1 $260 $317 #
straight-curve $-1 -8.8388347648318462 -8.8388347648318426 0 0 0 -1 I I #
edge $-1 $258 -8.8388347648318426 $262 8.8388347648318426 $256 $318 forward 7 unknown #
straight-curve $-1 0 -8.8388347648318426 -4 -1 0 0 I I #
vertex $-1 $184 $319 #
straight-curve $-1 0 8.8388347648318426 -4 1 0 0 I I #
point $-1 8.8388347648318462 8.8388347648318426 -4 #
point $-1 8.8388347648318462 -8.8388347648318426 -4 #
straight-curve $-1 -8.8388347648318462 0 4 0 -1 0 I I #
point $-1 -8.8388347648318462 8.8388347648318426 4 #
point $-1 -8.8388347648318462 -8.8388347648318426 4 #
straight-curve $-1 8.8388347648318462 -8.8388347648318426 0 0 0 -1 I I #
straight-curve $-1 8.8388347648318462 8.8388347648318426 0 0 0 -1 I I #
face $-1 $290 $292 $26 $-1 $136 forward single #
loop $-1 $-1 $214 $201 #
plane-surface $-1 0 0 -4 0 0 1 1 0 0 forward_v I I I I #
coedge $-1 $275 $204 $282 $320 forward $135 $-1 #
coedge $-1 $204 $274 $284 $294 forward $135 $-1 #
coedge $-1 $206 $205 $296 $321 reversed $92 $-1 #
coedge $-1 $214 $289 $205 $278 forward $272 $-1 #
edge $-1 $300 -8.8388347648318462 $146 8.8388347648318462 $205 $322 forward 7 unknown #
coedge $-1 $291 $216 $206 $280 forward $292 $-1 #
edge $-1 $218 -8.8388347648318462 $323 8.8388347648318462 $206 $324 forward 7 unknown #
coedge $-1 $325 $208 $213 $288 reversed $202 $-1 #
coedge $-1 $208 $325 $274 $320 reversed $202 $-1 #
ellipse-curve $-1 8.8388347648318302 8.8388347648318426 1.4996607218221374e-032 0 -1 0 5.6568542494923806 0 0 0.70710678118654746 I I #
coedge $-1 $326 $210 $275 $294 reversed $286 $-1 #
coedge $-1 $210 $326 $212 $227 reversed $286 $-1 #
loop $-1 $-1 $210 $327 #
ellipse-curve $-1 -8.8388347648318462 -8.8388347648318319 1.4996607218221374e-032 1 0 0 0 -5.6568542494923797 0 0.70710678118654757 I I #
edge $-1 $302 -8.8388347648318462 $145 8.8388347648318462 $281 $328 forward 7 unknown #
coedge $-1 $277 $214 $221 $225 forward $272 $-1 #
face $-1 $327 $215 $26 $-1 $273 reversed single #
coedge $-1 $216 $279 $220 $297 forward $292 $-1 #
loop $-1 $-1 $216 $271 #
straight-curve $-1 -6.0104076400856634 -6.0104076400856492 4 -0.70710678118654757 -0.70710678118654746 0 I I #
edge $-1 $329 -8.8388347648318426 $218 8.8388347648318426 $284 $330 forward 7 unknown #
point $-1 -8.8388347648318462 -8.8388347648318426 4 #
coedge $-1 $221 $220 $276 $321 forward $222 $-1 #
edge $-1 $323 -8.8388347648318426 $223 8.8388347648318426 $220 $331 forward 7 unknown #
face $-1 $-1 $222 $26 $-1 $332 reversed single #
point $-1 8.8388347648318462 8.8388347648318426 4 #
vertex $-1 $321 $333 #
straight-curve $-1 8.8388347648318462 0 -4 0 -1 0 I I #
vertex $-1 $288 $334 #
straight-curve $-1 -8.8388347648318462 0 -4 0 1 0 I I #
coedge $-1 $231 $238 $307 $335 reversed $149 $-1 #
vertex $-1 $234 $336 #
ellipse-curve $-1 -8.8388347648318462 -8.8388347648318319 1.4996607218221374e-032 -1 0 0 0 -5.6568542494923797 0 0.70710678118654757 I I #
coedge $-1 $236 $233 $304 $335 forward $229 $-1 #
ellipse-curve $-1 -8.8388347648318568 -8.8388347648318426 1.4996607218221374e-032 0 -1 0 5.6568542494923806 0 0 0.70710678118654746 I I #
vertex $-1 $239 $337 #
coedge $-1 $244 $251 $313 $338 reversed $161 $-1 #
vertex $-1 $245 $339 #
ellipse-curve $-1 8.8388347648318462 8.8388347648318568 1.4996607218221374e-032 1 0 0 0 -5.6568542494923797 0 0.70710678118654757 I I #
coedge $-1 $249 $246 $310 $338 forward $242 $-1 #
ellipse-curve $-1 8.8388347648318302 8.8388347648318426 1.4996607218221374e-032 0 1 0 5.6568542494923806 0 0 0.70710678118654746 I I #
vertex $-1 $252 $340 #
straight-curve $-1 -8.8388347648318462 8.8388347648318426 0 0 0 -1 I I #
point $-1 -8.8388347648318462 -8.8388347648318426 -4 #
straight-curve $-1 -8.8388347648318462 0 -4 0 1 0 I I #
point $-1 -8.8388347648318462 8.8388347648318426 -4 #
edge $-1 $223 -8.8388347648318462 $329 8.8388347648318462 $282 $341 forward 7 unknown #
edge $-1 $323 -4 $300 4 $296 $342 forward 7 unknown #
straight-curve $-1 0 -8.8388347648318426 -4 -1 0 0 I I #
vertex $-1 $297 $343 #
straight-curve $-1 0 -8.8388347648318426 4 1 0 0 I I #
coedge $-1 $282 $281 $326 $344 reversed $202 $-1 #
coedge $-1 $285 $284 $325 $344 forward $286 $-1 #
face $-1 $298 $286 $26 $-1 $345 reversed single #
straight-curve $-1 0 8.8388347648318426 -4 1 0 0 I I #
vertex $-1 $320 $346 #
straight-curve $-1 -8.8388347648318462 0 4 0 -1 0 I I #
straight-curve $-1 8.8388347648318462 0 4 0 1 0 I I #
plane-surface $-1 8.8388347648318462 0 0 -1 0 0 0 0 1 forward_v I I I I #
point $-1 8.8388347648318462 -8.8388347648318426 -4 #
point $-1 -8.8388347648318462 8.8388347648318426 -4 #
edge $-1 $305 -4 $309 4 $304 $347 forward 7 unknown #
point $-1 -8.8388347648318462 -8.8388347648318426 4 #
point $-1 -8.8388347648318462 -8.8388347648318426 -4 #
edge $-1 $311 -4 $315 4 $310 $348 forward 7 unknown #
point $-1 8.8388347648318462 8.8388347648318426 4 #
point $-1 8.8388347648318462 8.8388347648318426 -4 #
straight-curve $-1 0 8.8388347648318426 4 -1 0 0 I I #
straight-curve $-1 8.8388347648318462 -8.8388347648318426 0 0 0 -1 I I #
point $-1 8.8388347648318462 -8.8388347648318426 4 #
edge $-1 $329 -4 $302 4 $325 $349 forward 7 unknown #
plane-surface $-1 -8.8388347648318462 0 0 1 0 0 0 0 -1 forward_v I I I I #
point $-1 -8.8388347648318462 8.8388347648318426 4 #
straight-curve $-1 -8.8388347648318462 -8.8388347648318426 0 0 0 -1 I I #
straight-curve $-1 8.8388347648318462 8.8388347648318426 0 0 0 -1 I I #
straight-curve $-1 -8.8388347648318462 8.8388347648318426 0 0 0 -1 I I #
End-of-ACIS-data 