106 0 1 0           
body $1 $2 $-1 $3 #
display_attribute-st-attrib $-1 $4 $-1 $0 3 #
lump $-1 $-1 $5 $0 #
transform $-1 0 0 -1 0 1 0 1 0 0 -77.5 0 0 1 1 0 0 #
rgb_color-st-attrib $-1 $6 $1 $0 0 1 0 #
shell $-1 $-1 $-1 $7 $2 #
id_attribute-st-attrib $-1 $-1 $4 $0 61 #
face $-1 $8 $9 $5 $-1 $10 reversed single #
face $-1 $11 $12 $5 $-1 $13 reversed single #
loop $-1 $14 $15 $7 #
cone-surface $-1 0 0 17.5 0 0 1 4 0 0 1 I I 0 1 0 I I I I #
face $-1 $16 $17 $5 $-1 $18 forward single #
loop $-1 $-1 $19 $8 #
plane-surface $-1 0 0 12.5 0 0 -1 -1 0 0 0 I I I I #
loop $-1 $-1 $20 $7 #
coedge $-1 $15 $15 $19 $21 0 $9 $-1 #
face $-1 $22 $23 $5 $-1 $24 forward single #
loop $-1 $25 $26 $11 #
cone-surface $-1 0 0 15 0 0 1 6 0 0 1 I I 0 1 0 I I I I #
coedge $-1 $19 $19 $15 $21 1 $12 $-1 #
coedge $-1 $20 $20 $27 $28 1 $14 $-1 #
edge $-1 $29 $29 $19 $30 0 #
face $-1 $31 $32 $5 $-1 $33 forward single #
loop $-1 $34 $27 $16 #
plane-surface $-1 0 0 22.5 0 0 1 1 0 0 0 I I I I #
loop $-1 $-1 $35 $11 #
coedge $-1 $26 $26 $36 $37 1 $17 $-1 #
coedge $-1 $27 $27 $20 $28 0 $23 $-1 #
edge $-1 $38 $38 $27 $39 0 #
vertex $-1 $21 $40 #
ellipse-curve $-1 0 0 12.5 0 0 -1 4 0 0 1 I I #
face $-1 $41 $42 $5 $-1 $43 forward single #
loop $-1 $44 $45 $22 #
cone-surface $-1 0 0 0 0 0 1 10 0 0 1 I I 0 1 0 I I I I #
loop $-1 $-1 $46 $16 #
coedge $-1 $35 $35 $46 $47 1 $25 $-1 #
coedge $-1 $36 $36 $26 $37 0 $48 $-1 #
edge $-1 $49 $49 $36 $50 0 #
vertex $-1 $28 $51 #
ellipse-curve $-1 0 0 22.5 -0 -0 -1 4 0 0 1 I I #
point $-1 4 0 12.5 #
face $-1 $-1 $48 $5 $-1 $52 forward single #
loop $-1 $-1 $53 $31 #
plane-surface $-1 0 0 -7.5 0 0 -1 -1 0 0 0 I I I I #
loop $-1 $-1 $54 $22 #
coedge $-1 $45 $45 $53 $55 1 $32 $-1 #
coedge $-1 $46 $46 $35 $47 0 $34 $-1 #
edge $-1 $56 $56 $46 $57 0 #
loop $-1 $58 $36 $41 #
vertex $-1 $37 $59 #
ellipse-curve $-1 0 0 7.5 -0 -0 -1 6 0 0 1 I I #
point $-1 4 0 22.5 #
plane-surface $-1 0 0 7.5 0 0 1 1 0 0 0 I I I I #
coedge $-1 $53 $53 $45 $55 0 $42 $-1 #
coedge $-1 $54 $54 $60 $61 1 $44 $-1 #
edge $-1 $62 $62 $53 $63 0 #
vertex $-1 $47 $64 #
ellipse-curve $-1 0 0 22.5 0 0 1 6 0 0 1 I I #
loop $-1 $-1 $60 $41 #
point $-1 6 0 7.5 #
coedge $-1 $60 $60 $54 $61 0 $58 $-1 #
edge $-1 $65 $65 $60 $66 0 #
vertex $-1 $55 $67 #
ellipse-curve $-1 0 0 -7.5 0 0 -1 10 0 0 1 I I #
point $-1 6 0 22.5 #
vertex $-1 $61 $68 #
ellipse-curve $-1 0 0 7.5 0 0 1 10 0 0 1 I I #
point $-1 10 0 -7.5 #
point $-1 10 0 7.5 #
End-of-ACIS-data 