600 0 1 0           
90 GICL ACIS Healer - Source: /gicl/data5/repository/new/Seeker/yaw_shaft1.ustation.sat - 6 0 18 ACIS 6.0.3 Solaris 24 Sat Apr 13 20:35:59 2002 
1 9.999999999999999547e-07 1.000000000000000036e-10 
body $1 $2 $-1 $-1 #
rgb_color-st-attrib $-1 $-1 $-1 $0 0 1 0 #
lump $-1 $-1 $3 $0 #
shell $-1 $-1 $-1 $4 $-1 $2 #
face $-1 $5 $6 $3 $-1 $7 forward single #
face $-1 $8 $9 $3 $-1 $10 forward single #
loop $-1 $11 $12 $4 #
cone-surface $-1 47.5 0 0 -1 0 0 0 0 4 1 I I 0 1 4 forward I I I I #
face $-1 $-1 $13 $3 $-1 $14 forward single #
loop $-1 $-1 $15 $5 #
plane-surface $-1 65 0 0 1 0 0 0 0 -1 forward_v I I I I #
loop $-1 $-1 $16 $4 #
coedge $-1 $12 $12 $15 $17 reversed $6 $-1 #
loop $-1 $-1 $18 $8 #
plane-surface $-1 30 0 0 -1 0 0 0 0 1 forward_v I I I I #
coedge $-1 $15 $15 $12 $17 forward $9 $-1 #
coedge $-1 $16 $16 $18 $19 reversed $11 $-1 #
edge $-1 $20 0 $20 6.283185307179586232 $15 $21 forward 7 unknown #
coedge $-1 $18 $18 $16 $19 forward $13 $-1 #
edge $-1 $22 0 $22 6.283185307179586232 $18 $23 forward 7 unknown #
vertex $-1 $17 $24 #
ellipse-curve $-1 65 0 0 1 0 0 0 0 4 1 I I #
vertex $-1 $19 $25 #
ellipse-curve $-1 30 0 0 -1 0 0 0 0 4 1 I I #
point $-1 65 0 4 #
point $-1 30 0 4 #
End-of-ACIS-data 