600 0 2 0           
24 FBMach with ACIS - 6.0.3 13 ACIS 6.0.3 NT 24 Wed May 23 12:28:06 2001 
1 9.9999999999999995e-007 1e-010 
body $2 $3 $-1 $4 #
bdycol-kcp $-1 1 2 $5 $6 #
model_id-kcp-attrib $-1 $7 $-1 $0 1 990635286 60 389808129 1 #
lump $-1 $-1 $8 $0 #
transform $-1 0 0 1 0 1 0 -1 0 0 47.5 0 0 1 rotate no_reflect no_shear #
body $9 $10 $-1 $11 #
body $12 $13 $-1 $14 #
rgb_color-st-attrib $-1 $-1 $2 $0 0 1 0 #
shell $-1 $-1 $-1 $15 $-1 $3 #
model_id-kcp-attrib $-1 $-1 $-1 $5 1 990635286 80 391118850 1 #
lump $-1 $-1 $16 $5 #
transform $-1 1 0 0 0 1 0 0 0 1 47.5 0 0 1 no_rotate no_reflect no_shear #
rgb_color-st-attrib $-1 $17 $-1 $6 0.5 1 1 #
lump $-1 $-1 $18 $6 #
transform $-1 1 0 0 0 1 0 0 0 1 47.5 0 0 1 no_rotate no_reflect no_shear #
face $19 $20 $21 $8 $-1 $22 forward single #
shell $-1 $-1 $-1 $23 $-1 $10 #
model_id-kcp-attrib $-1 $-1 $12 $6 1 990635286 100 392429571 1 #
shell $-1 $-1 $-1 $24 $-1 $13 #
model_id-kcp-attrib $-1 $-1 $-1 $15 1 990635286 60 389808129 2 #
face $25 $26 $27 $8 $-1 $28 forward single #
loop $-1 $29 $30 $15 #
cone-surface $-1 0 0 0 0 0 1 4 0 0 1 I I 0 1 4 forward I I I I #
face $-1 $31 $32 $16 $-1 $33 forward single #
face $-1 $34 $35 $18 $-1 $36 reversed single #
model_id-kcp-attrib $-1 $37 $-1 $20 1 990635286 60 389808129 5 #
face $38 $-1 $39 $8 $-1 $40 forward single #
loop $-1 $-1 $41 $20 #
plane-surface $-1 0 0 -17.5 0 0 -1 -1 0 0 forward_v I I I I #
loop $-1 $-1 $42 $15 #
coedge $-1 $30 $30 $41 $43 reversed $21 $-1 #
face $-1 $44 $45 $16 $-1 $46 reversed single #
loop $-1 $-1 $47 $23 #
plane-surface $-1 0 0 4 0 0 1 1 0 0 forward_v I I I I #
face $-1 $48 $49 $18 $-1 $36 reversed single #
loop $-1 $-1 $50 $24 #
cone-surface $-1 17.5 0 4.4989821654664123e-032 1 0 0 0 4.898425415289509e-016 -4 1 I I 0 1 4 forward I I I I #
model_id-kcp-attrib $-1 $-1 $25 $20 1 990635286 60 389808129 3 #
model_id-kcp-attrib $-1 $-1 $-1 $26 1 990635286 60 389808129 4 #
loop $-1 $-1 $51 $26 #
plane-surface $-1 0 0 17.5 0 0 1 1 0 0 forward_v I I I I #
coedge $-1 $41 $41 $30 $43 forward $27 $-1 #
coedge $-1 $42 $42 $51 $52 reversed $29 $-1 #
edge $53 $54 0 $54 6.2831853071795862 $41 $55 forward 7 unknown #
face $-1 $56 $57 $16 $-1 $58 reversed single #
loop $-1 $-1 $59 $31 #
plane-surface $-1 0 0 -4 0 0 1 1 0 0 forward_v I I I I #
coedge $-1 $60 $61 $62 $63 forward $32 $-1 #
face $-1 $64 $65 $18 $-1 $36 reversed single #
loop $-1 $-1 $66 $34 #
coedge $-1 $67 $68 $69 $70 reversed $35 $-1 #
coedge $-1 $51 $51 $42 $52 forward $39 $-1 #
edge $-1 $71 0 $71 6.2831853071795862 $51 $72 forward 7 unknown #
attrib_edge_convexity-kcp-attrib $-1 $73 $-1 $43 1 #
vertex $-1 $43 $74 #
ellipse-curve $-1 0 0 -17.5 0 0 -1 4 0 0 1 I I #
face $75 $76 $77 $16 $-1 $78 reversed single #
loop $-1 $-1 $79 $44 #
plane-surface $-1 0 -4 0 0 1 0 0 0 1 forward_v I I I I #
coedge $-1 $80 $81 $82 $83 forward $45 $-1 #
coedge $-1 $84 $47 $85 $86 forward $32 $-1 #
coedge $-1 $47 $84 $87 $88 forward $32 $-1 #
coedge $-1 $89 $90 $47 $63 reversed $91 $-1 #
edge $-1 $92 -4 $93 4 $62 $94 forward 7 unknown #
face $-1 $95 $96 $18 $-1 $36 reversed single #
loop $-1 $-1 $97 $48 #
coedge $-1 $98 $99 $100 $101 reversed $49 $-1 #
coedge $-1 $102 $50 $103 $104 forward $35 $-1 #
coedge $-1 $50 $102 $105 $106 reversed $35 $-1 #
coedge $-1 $107 $108 $50 $70 forward $109 $-1 #
edge $-1 $110 -1.2246063538223773e-016 $111 1.5707963267948966 $69 $112 forward 7 unknown #
vertex $-1 $52 $113 #
ellipse-curve $-1 0 0 17.5 0 0 1 4 0 0 1 I I #
convexity-sys-attrib $-1 $-1 $53 $43 #
point $-1 4 0 -17.5 #
model_id-kcp-attrib $-1 $-1 $-1 $56 1 990635286 80 391118850 3 #
face $-1 $114 $115 $16 $-1 $116 reversed single #
loop $-1 $-1 $117 $56 #
plane-surface $-1 -17.5 0 0 1 0 0 0 0 -1 forward_v I I I I #
coedge $-1 $118 $87 $119 $120 forward $57 $-1 #
coedge $-1 $121 $59 $118 $122 forward $45 $-1 #
coedge $-1 $59 $121 $123 $124 forward $45 $-1 #
coedge $-1 $90 $89 $59 $83 reversed $91 $-1 #
edge $-1 $125 -4 $126 4 $82 $127 forward 7 unknown #
coedge $-1 $61 $60 $128 $129 forward $32 $-1 #
coedge $-1 $130 $131 $60 $86 reversed $115 $-1 #
edge $-1 $93 -17.5 $132 17.5 $85 $133 forward 7 unknown #
coedge $-1 $79 $134 $61 $88 reversed $57 $-1 #
edge $-1 $135 -17.5 $92 17.5 $87 $136 forward 7 unknown #
coedge $-1 $82 $62 $134 $137 forward $91 $-1 #
coedge $-1 $62 $82 $130 $138 reversed $91 $-1 #
loop $-1 $-1 $89 $114 #
vertex $-1 $63 $139 #
vertex $-1 $63 $140 #
straight-curve $-1 17.5 0 4 0 1 0 I I #
face $-1 $141 $142 $18 $-1 $143 reversed single #
loop $-1 $-1 $144 $64 #
coedge $-1 $145 $146 $144 $147 forward $65 $-1 #
coedge $-1 $148 $66 $149 $150 reversed $49 $-1 #
coedge $-1 $66 $148 $68 $106 forward $49 $-1 #
coedge $-1 $151 $152 $66 $101 forward $153 $-1 #
edge $-1 $154 -3.1415926535897931 $155 -1.5707963267948966 $100 $156 forward 7 unknown #
coedge $-1 $68 $67 $157 $158 reversed $35 $-1 #
coedge $-1 $146 $145 $159 $104 reversed $65 $-1 #
edge $-1 $110 -35 $160 0 $159 $161 forward 7 unknown #
coedge $-1 $162 $163 $164 $106 forward $165 $-1 #
edge $-1 $111 -35 $155 0 $105 $166 forward 7 unknown #
coedge $-1 $108 $69 $163 $167 forward $109 $-1 #
coedge $-1 $69 $107 $168 $169 reversed $109 $-1 #
loop $-1 $-1 $69 $170 #
vertex $-1 $169 $171 #
vertex $-1 $167 $172 #
ellipse-curve $-1 -17.5 0 4.4989821654664123e-032 1 0 0 0 4.898425415289509e-016 -4 1 I I #
point $-1 4 0 17.5 #
face $173 $-1 $91 $16 $-1 $174 reversed single #
loop $-1 $-1 $130 $76 #
plane-surface $-1 0 4 0 0 -1 0 0 0 -1 forward_v I I I I #
coedge $-1 $175 $128 $131 $176 forward $77 $-1 #
coedge $-1 $134 $79 $80 $122 reversed $57 $-1 #
coedge $-1 $128 $175 $79 $120 reversed $77 $-1 #
edge $-1 $135 -4 $177 4 $119 $178 forward 7 unknown #
coedge $-1 $81 $80 $175 $179 forward $45 $-1 #
edge $-1 $126 -17.5 $177 17.5 $118 $180 forward 7 unknown #
coedge $-1 $131 $130 $81 $124 reversed $115 $-1 #
edge $-1 $181 -17.5 $125 17.5 $123 $182 forward 7 unknown #
vertex $-1 $83 $183 #
vertex $-1 $137 $184 #
straight-curve $-1 17.5 0 -4 0 -1 0 I I #
coedge $-1 $117 $119 $84 $129 reversed $77 $-1 #
edge $-1 $132 -4 $135 4 $128 $185 forward 7 unknown #
coedge $-1 $123 $85 $90 $138 forward $115 $-1 #
coedge $-1 $85 $123 $117 $176 reversed $115 $-1 #
vertex $-1 $86 $186 #
straight-curve $-1 0 4 4 -1 0 0 I I #
coedge $-1 $87 $118 $89 $137 reversed $57 $-1 #
vertex $-1 $129 $187 #
straight-curve $-1 0 -4 4 1 0 0 I I #
edge $-1 $92 -4 $126 4 $89 $188 forward 7 unknown #
edge $-1 $93 -4 $125 4 $90 $189 forward 7 unknown #
point $-1 17.5 -4 4 #
point $-1 17.5 4 4 #
face $-1 $190 $191 $18 $-1 $192 reversed single #
loop $-1 $-1 $164 $95 #
plane-surface $-1 0 4 0 0 -1 0 0 0 -1 forward_v I I I I #
coedge $-1 $193 $194 $195 $147 reversed $96 $-1 #
coedge $-1 $103 $97 $196 $197 reversed $65 $-1 #
coedge $-1 $97 $103 $198 $199 reversed $65 $-1 #
edge $-1 $200 -35 $201 0 $195 $202 forward 7 unknown #
coedge $-1 $99 $98 $203 $204 reversed $49 $-1 #
coedge $-1 $205 $206 $207 $150 forward $208 $-1 #
edge $-1 $209 -35 $154 0 $149 $210 forward 7 unknown #
coedge $-1 $152 $100 $211 $212 reversed $153 $-1 #
coedge $-1 $100 $151 $205 $213 reversed $153 $-1 #
loop $-1 $-1 $100 $214 #
vertex $-1 $213 $215 #
vertex $-1 $216 $217 #
ellipse-curve $-1 17.5 0 4.4989821654664123e-032 -1 0 0 0 4.898425415289509e-016 -4 1 I I #
coedge $-1 $218 $219 $102 $158 forward $220 $-1 #
edge $-1 $155 -1.5707963267948966 $160 1.2246063538223773e-016 $157 $156 forward 7 unknown #
coedge $-1 $221 $222 $223 $104 forward $191 $-1 #
vertex $-1 $224 $225 #
straight-curve $-1 17.5 0 -4 1 0 0 I I #
coedge $-1 $226 $105 $219 $216 forward $165 $-1 #
coedge $-1 $105 $226 $107 $167 reversed $165 $-1 #
coedge $-1 $227 $211 $99 $106 reversed $142 $-1 #
loop $-1 $-1 $105 $228 #
straight-curve $-1 17.5 4 4.4989821654664123e-032 1 0 0 I I #
edge $-1 $111 -4.4989821654664123e-032 $229 4 $163 $230 forward 7 unknown #
coedge $-1 $231 $223 $108 $169 forward $232 $-1 #
edge $-1 $110 0 $229 4 $108 $233 forward 7 unknown #
face $-1 $234 $109 $18 $-1 $235 reversed single #
point $-1 -17.5 0 -4 #
point $-1 -17.5 4 4.4989821654664123e-032 #
model_id-kcp-attrib $-1 $-1 $-1 $114 1 990635286 80 391118850 2 #
plane-surface $-1 17.5 0 0 -1 0 0 0 0 1 forward_v I I I I #
coedge $-1 $119 $117 $121 $179 reversed $77 $-1 #
edge $-1 $132 -4 $181 4 $131 $236 forward 7 unknown #
vertex $-1 $179 $237 #
straight-curve $-1 -17.5 -4 0 0 0 -1 I I #
edge $-1 $177 -4 $181 4 $175 $238 forward 7 unknown #
straight-curve $-1 0 -4 -4 -1 0 0 I I #
vertex $-1 $124 $239 #
straight-curve $-1 0 4 -4 1 0 0 I I #
point $-1 17.5 4 -4 #
point $-1 17.5 -4 -4 #
straight-curve $-1 -17.5 0 4 0 -1 0 I I #
point $-1 -17.5 4 4 #
point $-1 -17.5 -4 4 #
straight-curve $-1 17.5 -4 0 0 0 -1 I I #
straight-curve $-1 17.5 4 0 0 0 -1 I I #
face $-1 $214 $240 $18 $-1 $241 reversed single #
loop $-1 $-1 $159 $141 #
plane-surface $-1 0 0 -4 0 0 1 1 0 0 forward_v I I I I #
coedge $-1 $242 $144 $243 $244 reversed $96 $-1 #
coedge $-1 $144 $242 $245 $246 reversed $96 $-1 #
coedge $-1 $247 $248 $249 $147 forward $250 $-1 #
coedge $-1 $251 $252 $145 $197 forward $253 $-1 #
edge $-1 $160 1.2246063538223773e-016 $201 1.5707963267948968 $196 $156 forward 7 unknown #
coedge $-1 $254 $255 $146 $199 forward $256 $-1 #
edge $-1 $200 -1.5707963267948968 $110 -1.2246063538223773e-016 $198 $112 forward 7 unknown #
vertex $-1 $257 $258 #
vertex $-1 $259 $260 #
straight-curve $-1 17.5 -4 4.4989821654664123e-032 1 0 0 I I #
coedge $-1 $261 $262 $148 $204 forward $263 $-1 #
edge $-1 $111 1.5707963267948966 $209 3.1415926535897931 $203 $112 forward 7 unknown #
coedge $-1 $264 $149 $152 $213 forward $208 $-1 #
coedge $-1 $149 $264 $261 $265 forward $208 $-1 #
coedge $-1 $266 $267 $242 $150 reversed $268 $-1 #
loop $-1 $-1 $149 $269 #
vertex $-1 $270 $271 #
straight-curve $-1 17.5 0 4 1 0 0 I I #
coedge $-1 $164 $272 $151 $212 forward $142 $-1 #
edge $-1 $273 -4 $155 -4.4989821654664123e-032 $151 $274 forward 7 unknown #
edge $-1 $154 0 $273 4 $152 $275 forward 7 unknown #
face $-1 $276 $153 $18 $-1 $241 reversed single #
point $-1 17.5 0 4 #
edge $-1 $155 -4.4989821654664123e-032 $277 4 $219 $274 forward 7 unknown #
point $-1 17.5 4 4.4989821654664123e-032 #
coedge $-1 $219 $157 $278 $279 reversed $220 $-1 #
coedge $-1 $157 $218 $162 $216 reversed $220 $-1 #
loop $-1 $-1 $157 $276 #
coedge $-1 $280 $159 $252 $224 forward $191 $-1 #
coedge $-1 $159 $280 $254 $281 forward $191 $-1 #
coedge $-1 $168 $278 $67 $104 reversed $232 $-1 #
edge $-1 $160 0 $282 4 $252 $283 forward 7 unknown #
point $-1 17.5 0 -4 #
coedge $-1 $163 $162 $231 $284 reversed $165 $-1 #
coedge $-1 $272 $164 $262 $285 reversed $142 $-1 #
face $-1 $-1 $165 $18 $-1 $143 reversed single #
vertex $-1 $284 $286 #
straight-curve $-1 -17.5 4 0 0 0 -1 I I #
coedge $-1 $278 $168 $226 $284 forward $232 $-1 #
loop $-1 $-1 $223 $287 #
straight-curve $-1 -17.5 0 -4 0 1 0 I I #
face $-1 $288 $263 $18 $-1 $235 reversed single #
plane-surface $-1 -17.5 0 0 1 0 0 0 0 -1 forward_v I I I I #
straight-curve $-1 -17.5 4 0 0 0 -1 I I #
point $-1 -17.5 -4 -4 #
straight-curve $-1 -17.5 0 -4 0 1 0 I I #
point $-1 -17.5 4 -4 #
loop $-1 $-1 $245 $190 #
plane-surface $-1 17.5 0 0 -1 0 0 0 0 1 forward_v I I I I #
coedge $-1 $194 $193 $98 $150 forward $96 $-1 #
coedge $-1 $289 $290 $193 $244 forward $291 $-1 #
edge $-1 $209 -3.1415926535897931 $200 -1.5707963267948968 $243 $112 forward 7 unknown #
coedge $-1 $292 $293 $194 $246 forward $240 $-1 #
edge $-1 $201 1.5707963267948968 $154 3.1415926535897931 $245 $156 forward 7 unknown #
coedge $-1 $294 $195 $293 $295 reversed $250 $-1 #
coedge $-1 $195 $294 $289 $296 forward $250 $-1 #
coedge $-1 $297 $298 $97 $147 reversed $299 $-1 #
loop $-1 $-1 $195 $300 #
coedge $-1 $252 $196 $298 $259 forward $253 $-1 #
coedge $-1 $196 $251 $221 $224 reversed $253 $-1 #
loop $-1 $-1 $196 $301 #
coedge $-1 $255 $198 $222 $281 reversed $256 $-1 #
coedge $-1 $198 $254 $297 $257 reversed $256 $-1 #
loop $-1 $-1 $198 $302 #
edge $-1 $200 -4.4989821654664123e-032 $303 4 $255 $304 forward 7 unknown #
point $-1 -17.5 -4 4.4989821654664123e-032 #
edge $-1 $201 -4.4989821654664123e-032 $282 4 $251 $305 forward 7 unknown #
point $-1 17.5 -4 4.4989821654664123e-032 #
coedge $-1 $262 $203 $206 $265 reversed $263 $-1 #
coedge $-1 $203 $261 $227 $285 forward $263 $-1 #
loop $-1 $-1 $203 $234 #
coedge $-1 $206 $205 $272 $306 forward $208 $-1 #
edge $-1 $307 -4 $209 0 $261 $308 forward 7 unknown #
coedge $-1 $309 $207 $290 $270 forward $268 $-1 #
coedge $-1 $207 $309 $292 $310 forward $268 $-1 #
loop $-1 $-1 $207 $311 #
face $-1 $287 $208 $18 $-1 $312 forward single #
edge $-1 $209 0 $313 4 $290 $308 forward 7 unknown #
point $-1 -17.5 0 4 #
coedge $-1 $211 $227 $264 $306 reversed $142 $-1 #
vertex $-1 $213 $314 #
straight-curve $-1 17.5 4 0 0 0 -1 I I #
straight-curve $-1 17.5 0 4 0 1 0 I I #
face $-1 $301 $220 $18 $-1 $241 reversed single #
vertex $-1 $279 $315 #
coedge $-1 $223 $231 $218 $279 forward $232 $-1 #
edge $-1 $277 -4 $160 0 $218 $283 forward 7 unknown #
coedge $-1 $222 $221 $316 $317 forward $191 $-1 #
edge $-1 $303 -4 $110 0 $254 $233 forward 7 unknown #
vertex $-1 $259 $318 #
straight-curve $-1 17.5 0 -4 0 -1 0 I I #
edge $-1 $229 -17.5 $277 17.5 $226 $319 forward 7 unknown #
edge $-1 $307 -4 $111 -4.4989821654664123e-032 $227 $230 forward 7 unknown #
point $-1 -17.5 4 -4 #
face $-1 $300 $232 $18 $-1 $192 reversed single #
face $-1 $320 $291 $18 $-1 $235 reversed single #
coedge $-1 $290 $243 $248 $296 reversed $291 $-1 #
coedge $-1 $243 $289 $266 $270 reversed $291 $-1 #
loop $-1 $-1 $243 $288 #
coedge $-1 $293 $245 $267 $310 reversed $240 $-1 #
coedge $-1 $245 $292 $247 $295 forward $240 $-1 #
coedge $-1 $248 $247 $309 $321 reversed $250 $-1 #
edge $-1 $322 -4 $201 -4.4989821654664123e-032 $293 $305 forward 7 unknown #
edge $-1 $313 -4 $200 -4.4989821654664123e-032 $289 $304 forward 7 unknown #
coedge $-1 $316 $249 $255 $257 forward $299 $-1 #
coedge $-1 $249 $316 $251 $259 reversed $299 $-1 #
loop $-1 $-1 $249 $320 #
face $-1 $228 $250 $18 $-1 $323 reversed single #
face $-1 $311 $253 $18 $-1 $241 reversed single #
face $-1 $170 $256 $18 $-1 $235 reversed single #
vertex $-1 $281 $324 #
straight-curve $-1 -17.5 -4 0 0 0 -1 I I #
straight-curve $-1 17.5 -4 0 0 0 -1 I I #
edge $-1 $273 -17.5 $307 17.5 $272 $325 forward 7 unknown #
vertex $-1 $306 $326 #
straight-curve $-1 -17.5 0 4 0 -1 0 I I #
coedge $-1 $267 $266 $294 $321 forward $268 $-1 #
edge $-1 $322 -4 $154 0 $292 $275 forward 7 unknown #
face $-1 $302 $268 $18 $-1 $312 forward single #
plane-surface $-1 0 0 4 0 0 1 1 0 0 forward_v I I I I #
vertex $-1 $270 $327 #
point $-1 17.5 4 4 #
point $-1 17.5 4 -4 #
coedge $-1 $298 $297 $280 $317 reversed $299 $-1 #
edge $-1 $282 -17.5 $303 17.5 $316 $328 forward 7 unknown #
point $-1 17.5 -4 -4 #
straight-curve $-1 0 4 -4 1 0 0 I I #
face $-1 $269 $299 $18 $-1 $323 reversed single #
edge $-1 $313 -17.5 $322 17.5 $294 $329 forward 7 unknown #
vertex $-1 $310 $330 #
plane-surface $-1 0 -4 0 0 1 0 0 0 1 forward_v I I I I #
point $-1 -17.5 -4 -4 #
straight-curve $-1 0 4 4 -1 0 0 I I #
point $-1 -17.5 4 4 #
point $-1 -17.5 -4 4 #
straight-curve $-1 0 -4 -4 -1 0 0 I I #
straight-curve $-1 0 -4 4 1 0 0 I I #
point $-1 17.5 -4 4 #
End-of-ACIS-data 