600 0 2 0           
24 FBMach with ACIS - 6.0.3 13 ACIS 6.0.3 NT 24 Wed May 23 12:28:06 2001 
1 9.9999999999999995e-007 1e-010 
body $2 $3 $-1 $4 #
bdycol-kcp $-1 1 4 $5 $6 $7 $8 #
model_id-kcp-attrib $-1 $9 $-1 $0 1 990635285 60 -1757675519 1 #
lump $-1 $-1 $10 $0 #
transform $-1 0 0 -1 0 1 0 1 0 0 -77.5 0 0 1 rotate no_reflect no_shear #
body $11 $12 $-1 $13 #
body $14 $15 $-1 $16 #
body $17 $18 $-1 $19 #
body $20 $21 $-1 $22 #
rgb_color-st-attrib $-1 $-1 $2 $0 0 1 0 #
shell $-1 $-1 $-1 $23 $-1 $3 #
model_id-kcp-attrib $-1 $-1 $-1 $5 1 990635285 60 -1757675518 1 #
lump $-1 $-1 $24 $5 #
transform $-1 1 0 0 0 1 0 0 0 1 -70 0 0 1 no_rotate no_reflect no_shear #
rgb_color-st-attrib $-1 $25 $-1 $6 0.5 1 1 #
lump $-1 $-1 $26 $6 #
transform $-1 -3.8285889215894375e-016 0 -1 0 1 0 1 0 -3.8285889215894375e-016 -60 0 0 1 rotate no_reflect no_shear #
rgb_color-st-attrib $-1 $27 $-1 $7 0.5 1 1 #
lump $-1 $-1 $28 $7 #
transform $-1 1 0 0 0 1 0 0 0 1 -70 0 0 1 no_rotate no_reflect no_shear #
model_id-kcp-attrib $-1 $29 $-1 $8 1 990635285 230 -1746534395 1 #
lump $-1 $-1 $30 $8 #
transform $-1 1 0 0 0 1 0 0 0 1 -70 0 0 1 no_rotate no_reflect no_shear #
face $31 $32 $33 $10 $-1 $34 reversed single #
shell $-1 $-1 $-1 $35 $-1 $12 #
model_id-kcp-attrib $-1 $-1 $14 $6 1 990635285 90 -1755709437 1 #
shell $-1 $-1 $-1 $36 $-1 $15 #
model_id-kcp-attrib $-1 $-1 $17 $7 1 990635285 140 -1752432636 1 #
shell $-1 $-1 $-1 $37 $-1 $18 #
rgb_color-st-attrib $-1 $-1 $20 $8 1 0.5 1 #
shell $-1 $-1 $-1 $38 $-1 $21 #
model_id-kcp-attrib $-1 $-1 $-1 $23 1 990635285 60 -1757675519 2 #
face $39 $40 $41 $10 $-1 $42 reversed single #
loop $-1 $43 $44 $23 #
cone-surface $-1 0 0 17.5 0 0 1 4 0 0 1 I I 0 1 4 forward I I I I #
face $-1 $45 $46 $24 $-1 $47 forward single #
face $-1 $48 $49 $26 $-1 $50 forward single #
face $-1 $51 $52 $28 $-1 $53 reversed single #
face $-1 $54 $55 $30 $-1 $56 forward single #
model_id-kcp-attrib $-1 $-1 $-1 $32 1 990635285 60 -1757675519 3 #
face $57 $58 $59 $10 $-1 $60 forward single #
loop $-1 $-1 $61 $32 #
plane-surface $-1 0 0 12.5 0 0 -1 -1 0 0 forward_v I I I I #
loop $-1 $-1 $62 $23 #
coedge $-1 $44 $44 $61 $63 forward $33 $-1 #
face $-1 $64 $65 $24 $-1 $66 reversed single #
loop $-1 $-1 $67 $35 #
plane-surface $-1 0 0 10 0 0 1 1 0 0 forward_v I I I I #
face $-1 $68 $69 $26 $-1 $70 forward single #
loop $-1 $71 $72 $36 #
cone-surface $-1 0 0 0 0 0 1 4 0 0 1 I I 0 1 4 forward I I I I #
face $-1 $73 $74 $28 $-1 $53 reversed single #
loop $-1 $-1 $75 $37 #
cone-surface $-1 15 0 3.7491518045553436e-032 1 0 0 0 0 -10 1 I I 0 1 10 forward I I I I #
face $-1 $76 $77 $30 $-1 $78 forward single #
loop $-1 $79 $80 $38 #
cone-surface $-1 0 0 0 1 0 0 0 0 -6 1 I I 0 -1 6 forward I I I I #
model_id-kcp-attrib $-1 $-1 $-1 $40 1 990635285 60 -1757675519 4 #
face $81 $82 $83 $10 $-1 $84 forward single #
loop $-1 $85 $86 $40 #
cone-surface $-1 0 0 15 0 0 1 6 0 0 1 I I 0 1 6 forward I I I I #
coedge $-1 $61 $61 $44 $63 reversed $41 $-1 #
coedge $-1 $62 $62 $87 $88 reversed $43 $-1 #
edge $89 $90 0 $90 6.2831853071795862 $61 $91 forward 7 unknown #
face $-1 $92 $93 $24 $-1 $94 reversed single #
loop $-1 $-1 $95 $45 #
plane-surface $-1 0 0 -10 0 0 1 1 0 0 forward_v I I I I #
coedge $-1 $96 $97 $98 $99 forward $46 $-1 #
face $-1 $-1 $100 $26 $-1 $101 forward single #
loop $-1 $-1 $102 $48 #
plane-surface $-1 0 0 -5 0 0 -1 -1 0 0 forward_v I I I I #
loop $-1 $-1 $103 $36 #
coedge $-1 $72 $72 $102 $104 reversed $49 $-1 #
face $-1 $105 $106 $28 $-1 $53 reversed single #
loop $-1 $-1 $107 $51 #
coedge $-1 $108 $109 $110 $111 reversed $52 $-1 #
face $-1 $112 $113 $30 $-1 $114 forward single #
loop $-1 $115 $116 $54 #
cone-surface $-1 0 0 3.7491518045553436e-032 1 0 0 0 0 -10 1 I I 0 1 10 forward I I I I #
loop $-1 $-1 $117 $38 #
coedge $-1 $80 $80 $118 $119 forward $55 $-1 #
model_id-kcp-attrib $-1 $120 $-1 $58 1 990635285 60 -1757675519 9 #
face $121 $122 $123 $10 $-1 $124 forward single #
loop $-1 $125 $87 $58 #
plane-surface $-1 0 0 22.5 0 0 1 1 0 0 forward_v I I I I #
loop $-1 $-1 $126 $40 #
coedge $-1 $86 $86 $127 $128 reversed $59 $-1 #
coedge $-1 $87 $87 $62 $88 forward $83 $-1 #
edge $129 $130 0 $130 6.2831853071795862 $87 $131 forward 7 unknown #
attrib_edge_convexity-kcp-attrib $-1 $132 $-1 $63 2 #
vertex $-1 $63 $133 #
ellipse-curve $-1 0 0 12.5 0 0 -1 4 0 0 1 I I #
face $134 $135 $136 $24 $-1 $137 reversed single #
loop $-1 $-1 $138 $64 #
plane-surface $-1 0 -10 0 0 1 0 0 0 1 forward_v I I I I #
coedge $-1 $139 $140 $141 $142 forward $65 $-1 #
coedge $-1 $143 $67 $144 $145 forward $46 $-1 #
coedge $-1 $67 $143 $146 $147 forward $46 $-1 #
coedge $-1 $148 $149 $67 $99 reversed $150 $-1 #
edge $-1 $151 -10 $152 10 $98 $153 forward 7 unknown #
loop $-1 $-1 $154 $68 #
plane-surface $-1 0 0 5 0 0 1 1 0 0 forward_v I I I I #
coedge $-1 $102 $102 $72 $104 forward $69 $-1 #
coedge $-1 $103 $103 $154 $155 reversed $71 $-1 #
edge $-1 $156 0 $156 6.2831853071795862 $102 $157 forward 7 unknown #
face $-1 $158 $159 $28 $-1 $53 reversed single #
loop $-1 $-1 $160 $73 #
coedge $-1 $161 $162 $163 $164 reversed $74 $-1 #
coedge $-1 $165 $75 $166 $167 forward $52 $-1 #
coedge $-1 $75 $165 $168 $169 reversed $52 $-1 #
coedge $-1 $170 $171 $75 $111 forward $172 $-1 #
edge $-1 $173 0 $174 1.5707963267948966 $110 $175 forward 7 unknown #
face $-1 $-1 $176 $30 $-1 $177 reversed single #
loop $-1 $178 $179 $76 #
plane-surface $-1 15 3.1716609688970826e-017 0.36363636363636342 1 0 0 0 0 -1 forward_v I I I I #
loop $-1 $-1 $180 $54 #
coedge $-1 $116 $116 $179 $181 forward $77 $-1 #
coedge $-1 $117 $117 $182 $183 reversed $79 $-1 #
coedge $-1 $118 $118 $80 $119 reversed $178 $-1 #
edge $-1 $184 0 $184 6.2831853071795862 $80 $185 forward 7 unknown #
model_id-kcp-attrib $-1 $-1 $81 $58 1 990635285 60 -1757675519 5 #
model_id-kcp-attrib $-1 $-1 $-1 $82 1 990635285 60 -1757675519 6 #
face $186 $187 $188 $10 $-1 $189 forward single #
loop $-1 $190 $191 $82 #
cone-surface $-1 0 0 0 0 0 1 10 0 0 1 I I 0 1 10 forward I I I I #
loop $-1 $-1 $192 $58 #
coedge $-1 $126 $126 $192 $193 reversed $85 $-1 #
coedge $-1 $127 $127 $86 $128 forward $194 $-1 #
edge $-1 $195 0 $195 6.2831853071795862 $127 $196 forward 7 unknown #
attrib_edge_convexity-kcp-attrib $-1 $197 $-1 $88 1 #
vertex $-1 $88 $198 #
ellipse-curve $-1 0 0 22.5 0 0 -1 4 0 0 1 I I #
convexity-sys-attrib $-1 $-1 $89 $63 #
point $-1 4 0 12.5 #
model_id-kcp-attrib $-1 $-1 $-1 $92 1 990635285 60 -1757675518 3 #
face $-1 $199 $200 $24 $-1 $201 reversed single #
loop $-1 $-1 $202 $92 #
plane-surface $-1 -15 0 0 1 0 0 0 0 -1 forward_v I I I I #
coedge $-1 $203 $146 $204 $205 forward $93 $-1 #
coedge $-1 $206 $95 $203 $207 forward $65 $-1 #
coedge $-1 $95 $206 $208 $209 forward $65 $-1 #
coedge $-1 $149 $148 $95 $142 reversed $150 $-1 #
edge $-1 $210 -10 $211 10 $141 $212 forward 7 unknown #
coedge $-1 $97 $96 $213 $214 forward $46 $-1 #
coedge $-1 $215 $216 $96 $145 reversed $200 $-1 #
edge $-1 $152 -15 $217 15 $144 $218 forward 7 unknown #
coedge $-1 $138 $219 $97 $147 reversed $93 $-1 #
edge $-1 $220 -15 $151 15 $146 $221 forward 7 unknown #
coedge $-1 $141 $98 $219 $222 forward $150 $-1 #
coedge $-1 $98 $141 $215 $223 reversed $150 $-1 #
loop $-1 $-1 $148 $199 #
vertex $-1 $99 $224 #
vertex $-1 $99 $225 #
straight-curve $-1 15 0 10 0 1 0 I I #
coedge $-1 $154 $154 $103 $155 forward $100 $-1 #
edge $-1 $226 0 $226 6.2831853071795862 $154 $227 forward 7 unknown #
vertex $-1 $104 $228 #
ellipse-curve $-1 0 0 -5 0 0 -1 4 0 0 1 I I #
face $-1 $229 $230 $28 $-1 $231 reversed single #
loop $-1 $-1 $232 $105 #
coedge $-1 $233 $234 $232 $235 forward $106 $-1 #
coedge $-1 $236 $107 $237 $238 reversed $74 $-1 #
coedge $-1 $107 $236 $109 $169 forward $74 $-1 #
coedge $-1 $239 $240 $107 $164 forward $241 $-1 #
edge $-1 $242 -3.1415926535897931 $243 -1.5707963267948966 $163 $244 forward 7 unknown #
coedge $-1 $109 $108 $245 $246 reversed $52 $-1 #
coedge $-1 $234 $233 $247 $167 reversed $106 $-1 #
edge $-1 $173 -30 $248 0 $247 $249 forward 7 unknown #
coedge $-1 $250 $251 $252 $169 forward $253 $-1 #
edge $-1 $174 -30 $243 0 $168 $254 forward 7 unknown #
coedge $-1 $171 $110 $251 $255 forward $172 $-1 #
coedge $-1 $110 $170 $256 $257 reversed $172 $-1 #
loop $-1 $-1 $110 $258 #
vertex $-1 $257 $259 #
vertex $-1 $255 $260 #
ellipse-curve $-1 -15 0 3.7491518045553436e-032 1 0 0 0 0 -10 1 I I #
loop $-1 $261 $262 $112 #
plane-surface $-1 0 3.1716609688970826e-017 0.36363636363636342 1 0 0 0 0 -1 forward_v I I I I #
loop $-1 $-1 $118 $76 #
coedge $-1 $179 $179 $116 $181 reversed $113 $-1 #
coedge $-1 $180 $180 $262 $263 reversed $115 $-1 #
edge $-1 $264 -3.1415926535897931 $264 3.1415926535897931 $116 $265 forward 7 unknown #
coedge $-1 $182 $182 $117 $183 forward $261 $-1 #
edge $-1 $266 0 $266 6.2831853071795862 $117 $267 forward 7 unknown #
vertex $-1 $119 $268 #
ellipse-curve $-1 15 0 0 1 0 0 0 0 -6 1 I I #
model_id-kcp-attrib $-1 $-1 $-1 $122 1 990635285 60 -1757675519 7 #
face $269 $-1 $194 $10 $-1 $270 forward single #
loop $-1 $-1 $271 $122 #
plane-surface $-1 0 0 -7.5 0 0 -1 -1 0 0 forward_v I I I I #
loop $-1 $-1 $272 $82 #
coedge $-1 $191 $191 $271 $273 reversed $123 $-1 #
coedge $-1 $192 $192 $126 $193 forward $125 $-1 #
edge $274 $275 0 $275 6.2831853071795862 $192 $276 forward 7 unknown #
loop $-1 $277 $127 $187 #
vertex $-1 $128 $278 #
ellipse-curve $-1 0 0 7.5 0 0 -1 6 0 0 1 I I #
convexity-sys-attrib $-1 $-1 $129 $88 #
point $-1 4 0 22.5 #
face $279 $-1 $150 $24 $-1 $280 reversed single #
loop $-1 $-1 $215 $135 #
plane-surface $-1 0 10 0 0 -1 0 0 0 -1 forward_v I I I I #
coedge $-1 $281 $213 $216 $282 forward $136 $-1 #
coedge $-1 $219 $138 $139 $207 reversed $93 $-1 #
coedge $-1 $213 $281 $138 $205 reversed $136 $-1 #
edge $-1 $220 -10 $283 10 $204 $284 forward 7 unknown #
coedge $-1 $140 $139 $281 $285 forward $65 $-1 #
edge $-1 $211 -15 $283 15 $203 $286 forward 7 unknown #
coedge $-1 $216 $215 $140 $209 reversed $200 $-1 #
edge $-1 $287 -15 $210 15 $208 $288 forward 7 unknown #
vertex $-1 $142 $289 #
vertex $-1 $222 $290 #
straight-curve $-1 15 0 -10 0 -1 0 I I #
coedge $-1 $202 $204 $143 $214 reversed $136 $-1 #
edge $-1 $217 -10 $220 10 $213 $291 forward 7 unknown #
coedge $-1 $208 $144 $149 $223 forward $200 $-1 #
coedge $-1 $144 $208 $202 $282 reversed $200 $-1 #
vertex $-1 $145 $292 #
straight-curve $-1 0 10 10 -1 0 0 I I #
coedge $-1 $146 $203 $148 $222 reversed $93 $-1 #
vertex $-1 $214 $293 #
straight-curve $-1 0 -10 10 1 0 0 I I #
edge $-1 $151 -10 $211 10 $148 $294 forward 7 unknown #
edge $-1 $152 -10 $210 10 $149 $295 forward 7 unknown #
point $-1 15 -10 10 #
point $-1 15 10 10 #
vertex $-1 $155 $296 #
ellipse-curve $-1 0 0 5 0 0 1 4 0 0 1 I I #
point $-1 4 0 -5 #
face $-1 $297 $298 $28 $-1 $299 reversed single #
loop $-1 $-1 $252 $158 #
plane-surface $-1 0 10 0 0 -1 0 0 0 -1 forward_v I I I I #
coedge $-1 $300 $301 $302 $235 reversed $159 $-1 #
coedge $-1 $166 $160 $303 $304 reversed $106 $-1 #
coedge $-1 $160 $166 $305 $306 reversed $106 $-1 #
edge $-1 $307 -30 $308 0 $302 $309 forward 7 unknown #
coedge $-1 $162 $161 $310 $311 reversed $74 $-1 #
coedge $-1 $312 $313 $314 $238 forward $315 $-1 #
edge $-1 $316 -30 $242 0 $237 $317 forward 7 unknown #
coedge $-1 $240 $163 $318 $319 reversed $241 $-1 #
coedge $-1 $163 $239 $312 $320 reversed $241 $-1 #
loop $-1 $-1 $163 $321 #
vertex $-1 $320 $322 #
vertex $-1 $323 $324 #
ellipse-curve $-1 15 0 3.7491518045553436e-032 -1 0 0 0 0 -10 1 I I #
coedge $-1 $325 $326 $165 $246 forward $327 $-1 #
edge $-1 $243 -1.5707963267948966 $248 0 $245 $244 forward 7 unknown #
coedge $-1 $328 $329 $330 $167 forward $298 $-1 #
vertex $-1 $331 $332 #
straight-curve $-1 15 0 -10 1 0 0 I I #
coedge $-1 $333 $168 $326 $323 forward $253 $-1 #
coedge $-1 $168 $333 $170 $255 reversed $253 $-1 #
coedge $-1 $334 $318 $162 $169 reversed $230 $-1 #
loop $-1 $-1 $168 $335 #
straight-curve $-1 15 10 3.7491518045553436e-032 1 0 0 I I #
edge $-1 $174 -3.7491518045553436e-032 $336 10 $251 $337 forward 7 unknown #
coedge $-1 $338 $330 $171 $257 forward $339 $-1 #
edge $-1 $173 0 $336 10 $171 $340 forward 7 unknown #
face $-1 $341 $172 $28 $-1 $342 reversed single #
point $-1 -15 0 -10 #
point $-1 -15 10 3.7491518045553436e-032 #
loop $-1 $-1 $182 $112 #
coedge $-1 $262 $262 $180 $263 forward $176 $-1 #
edge $343 $344 -3.1415926535897931 $344 3.1415926535897931 $180 $345 forward 7 unknown #
vertex $-1 $181 $346 #
ellipse-curve $-1 15 0 3.7491518045553436e-032 -1 0 0 0 0 -10 1 I I #
vertex $-1 $183 $347 #
ellipse-curve $-1 0 0 0 1 0 0 0 0 -6 1 I I #
point $-1 15 0 -6 #
model_id-kcp-attrib $-1 $-1 $-1 $187 1 990635285 60 -1757675519 8 #
plane-surface $-1 0 0 7.5 0 0 1 1 0 0 forward_v I I I I #
coedge $-1 $271 $271 $191 $273 forward $188 $-1 #
coedge $-1 $272 $272 $348 $349 reversed $190 $-1 #
edge $-1 $350 0 $350 6.2831853071795862 $271 $351 forward 7 unknown #
attrib_edge_convexity-kcp-attrib $-1 $352 $-1 $193 1 #
vertex $-1 $193 $353 #
ellipse-curve $-1 0 0 22.5 0 0 1 6 0 0 1 I I #
loop $-1 $-1 $348 $187 #
point $-1 6 0 7.5 #
model_id-kcp-attrib $-1 $-1 $-1 $199 1 990635285 60 -1757675518 2 #
plane-surface $-1 15 0 0 -1 0 0 0 0 1 forward_v I I I I #
coedge $-1 $204 $202 $206 $285 reversed $136 $-1 #
edge $-1 $217 -10 $287 10 $216 $354 forward 7 unknown #
vertex $-1 $285 $355 #
straight-curve $-1 -15 -10 0 0 0 -1 I I #
edge $-1 $283 -10 $287 10 $281 $356 forward 7 unknown #
straight-curve $-1 0 -10 -10 -1 0 0 I I #
vertex $-1 $209 $357 #
straight-curve $-1 0 10 -10 1 0 0 I I #
point $-1 15 10 -10 #
point $-1 15 -10 -10 #
straight-curve $-1 -15 0 10 0 -1 0 I I #
point $-1 -15 10 10 #
point $-1 -15 -10 10 #
straight-curve $-1 15 -10 0 0 0 -1 I I #
straight-curve $-1 15 10 0 0 0 -1 I I #
point $-1 4 0 5 #
face $-1 $321 $358 $28 $-1 $359 reversed single #
loop $-1 $-1 $247 $229 #
plane-surface $-1 0 0 -10 0 0 1 1 0 0 forward_v I I I I #
coedge $-1 $360 $232 $361 $362 reversed $159 $-1 #
coedge $-1 $232 $360 $363 $364 reversed $159 $-1 #
coedge $-1 $365 $366 $367 $235 forward $368 $-1 #
coedge $-1 $369 $370 $233 $304 forward $371 $-1 #
edge $-1 $248 0 $308 1.5707963267948966 $303 $244 forward 7 unknown #
coedge $-1 $372 $373 $234 $306 forward $374 $-1 #
edge $-1 $307 -1.5707963267948966 $173 0 $305 $175 forward 7 unknown #
vertex $-1 $375 $376 #
vertex $-1 $377 $378 #
straight-curve $-1 15 -10 3.7491518045553436e-032 1 0 0 I I #
coedge $-1 $379 $380 $236 $311 forward $381 $-1 #
edge $-1 $174 1.5707963267948966 $316 3.1415926535897931 $310 $175 forward 7 unknown #
coedge $-1 $382 $237 $240 $320 forward $315 $-1 #
coedge $-1 $237 $382 $379 $383 forward $315 $-1 #
coedge $-1 $384 $385 $360 $238 reversed $386 $-1 #
loop $-1 $-1 $237 $387 #
vertex $-1 $388 $389 #
straight-curve $-1 15 0 10 1 0 0 I I #
coedge $-1 $252 $390 $239 $319 forward $230 $-1 #
edge $-1 $391 -10 $243 -3.7491518045553436e-032 $239 $392 forward 7 unknown #
edge $-1 $242 0 $391 10 $240 $393 forward 7 unknown #
face $-1 $394 $241 $28 $-1 $359 reversed single #
point $-1 15 0 10 #
edge $-1 $243 -3.7491518045553436e-032 $395 10 $326 $392 forward 7 unknown #
point $-1 15 10 3.7491518045553436e-032 #
coedge $-1 $326 $245 $396 $397 reversed $327 $-1 #
coedge $-1 $245 $325 $250 $323 reversed $327 $-1 #
loop $-1 $-1 $245 $394 #
coedge $-1 $398 $247 $370 $331 forward $298 $-1 #
coedge $-1 $247 $398 $372 $399 forward $298 $-1 #
coedge $-1 $256 $396 $108 $167 reversed $339 $-1 #
edge $-1 $248 0 $400 10 $370 $401 forward 7 unknown #
point $-1 15 0 -10 #
coedge $-1 $251 $250 $338 $402 reversed $253 $-1 #
coedge $-1 $390 $252 $380 $403 reversed $230 $-1 #
face $-1 $-1 $253 $28 $-1 $231 reversed single #
vertex $-1 $402 $404 #
straight-curve $-1 -15 10 0 0 0 -1 I I #
coedge $-1 $396 $256 $333 $402 forward $339 $-1 #
loop $-1 $-1 $330 $405 #
straight-curve $-1 -15 0 -10 0 1 0 I I #
face $-1 $406 $381 $28 $-1 $342 reversed single #
plane-surface $-1 -15 0 0 1 0 0 0 0 -1 forward_v I I I I #
convexity-sys-attrib $-1 $-1 $-1 $263 #
vertex $-1 $263 $407 #
ellipse-curve $-1 0 0 3.7491518045553436e-032 -1 0 0 0 0 -10 1 I I #
point $-1 15 1.2246063538223773e-015 10 #
point $-1 0 0 -6 #
coedge $-1 $348 $348 $272 $349 forward $277 $-1 #
edge $-1 $408 0 $408 6.2831853071795862 $348 $409 forward 7 unknown #
vertex $-1 $273 $410 #
ellipse-curve $-1 0 0 -7.5 0 0 -1 10 0 0 1 I I #
convexity-sys-attrib $-1 $-1 $274 $193 #
point $-1 6 0 22.5 #
straight-curve $-1 -15 10 0 0 0 -1 I I #
point $-1 -15 -10 -10 #
straight-curve $-1 -15 0 -10 0 1 0 I I #
point $-1 -15 10 -10 #
loop $-1 $-1 $363 $297 #
plane-surface $-1 15 0 0 -1 0 0 0 0 1 forward_v I I I I #
coedge $-1 $301 $300 $161 $238 forward $159 $-1 #
coedge $-1 $411 $412 $300 $362 forward $413 $-1 #
edge $-1 $316 -3.1415926535897931 $307 -1.5707963267948966 $361 $175 forward 7 unknown #
coedge $-1 $414 $415 $301 $364 forward $358 $-1 #
edge $-1 $308 1.5707963267948966 $242 3.1415926535897931 $363 $244 forward 7 unknown #
coedge $-1 $416 $302 $415 $417 reversed $368 $-1 #
coedge $-1 $302 $416 $411 $418 forward $368 $-1 #
coedge $-1 $419 $420 $160 $235 reversed $421 $-1 #
loop $-1 $-1 $302 $422 #
coedge $-1 $370 $303 $420 $377 forward $371 $-1 #
coedge $-1 $303 $369 $328 $331 reversed $371 $-1 #
loop $-1 $-1 $303 $423 #
coedge $-1 $373 $305 $329 $399 reversed $374 $-1 #
coedge $-1 $305 $372 $419 $375 reversed $374 $-1 #
loop $-1 $-1 $305 $424 #
edge $-1 $307 -3.7491518045553436e-032 $425 10 $373 $426 forward 7 unknown #
point $-1 -15 -10 3.7491518045553436e-032 #
edge $-1 $308 -3.7491518045553436e-032 $400 10 $369 $427 forward 7 unknown #
point $-1 15 -10 3.7491518045553436e-032 #
coedge $-1 $380 $310 $313 $383 reversed $381 $-1 #
coedge $-1 $310 $379 $334 $403 forward $381 $-1 #
loop $-1 $-1 $310 $341 #
coedge $-1 $313 $312 $390 $428 forward $315 $-1 #
edge $-1 $429 -10 $316 0 $379 $430 forward 7 unknown #
coedge $-1 $431 $314 $412 $388 forward $386 $-1 #
coedge $-1 $314 $431 $414 $432 forward $386 $-1 #
loop $-1 $-1 $314 $433 #
face $-1 $405 $315 $28 $-1 $434 forward single #
edge $-1 $316 0 $435 10 $412 $430 forward 7 unknown #
point $-1 -15 0 10 #
coedge $-1 $318 $334 $382 $428 reversed $230 $-1 #
vertex $-1 $320 $436 #
straight-curve $-1 15 10 0 0 0 -1 I I #
straight-curve $-1 15 0 10 0 1 0 I I #
face $-1 $423 $327 $28 $-1 $359 reversed single #
vertex $-1 $397 $437 #
coedge $-1 $330 $338 $325 $397 forward $339 $-1 #
edge $-1 $395 -10 $248 0 $325 $401 forward 7 unknown #
coedge $-1 $329 $328 $438 $439 forward $298 $-1 #
edge $-1 $425 -10 $173 0 $372 $340 forward 7 unknown #
vertex $-1 $377 $440 #
straight-curve $-1 15 0 -10 0 -1 0 I I #
edge $-1 $336 -15 $395 15 $333 $441 forward 7 unknown #
edge $-1 $429 -10 $174 -3.7491518045553436e-032 $334 $337 forward 7 unknown #
point $-1 -15 10 -10 #
face $-1 $422 $339 $28 $-1 $299 reversed single #
face $-1 $442 $413 $28 $-1 $342 reversed single #
point $-1 0 1.2246063538223773e-015 10 #
vertex $-1 $349 $443 #
ellipse-curve $-1 0 0 7.5 0 0 1 10 0 0 1 I I #
point $-1 10 0 -7.5 #
coedge $-1 $412 $361 $366 $418 reversed $413 $-1 #
coedge $-1 $361 $411 $384 $388 reversed $413 $-1 #
loop $-1 $-1 $361 $406 #
coedge $-1 $415 $363 $385 $432 reversed $358 $-1 #
coedge $-1 $363 $414 $365 $417 forward $358 $-1 #
coedge $-1 $366 $365 $431 $444 reversed $368 $-1 #
edge $-1 $445 -10 $308 -3.7491518045553436e-032 $415 $427 forward 7 unknown #
edge $-1 $435 -10 $307 -3.7491518045553436e-032 $411 $426 forward 7 unknown #
coedge $-1 $438 $367 $373 $375 forward $421 $-1 #
coedge $-1 $367 $438 $369 $377 reversed $421 $-1 #
loop $-1 $-1 $367 $442 #
face $-1 $335 $368 $28 $-1 $446 reversed single #
face $-1 $433 $371 $28 $-1 $359 reversed single #
face $-1 $258 $374 $28 $-1 $342 reversed single #
vertex $-1 $399 $447 #
straight-curve $-1 -15 -10 0 0 0 -1 I I #
straight-curve $-1 15 -10 0 0 0 -1 I I #
edge $-1 $391 -15 $429 15 $390 $448 forward 7 unknown #
vertex $-1 $428 $449 #
straight-curve $-1 -15 0 10 0 -1 0 I I #
coedge $-1 $385 $384 $416 $444 forward $386 $-1 #
edge $-1 $445 -10 $242 0 $414 $393 forward 7 unknown #
face $-1 $424 $386 $28 $-1 $434 forward single #
plane-surface $-1 0 0 10 0 0 1 1 0 0 forward_v I I I I #
vertex $-1 $388 $450 #
point $-1 15 10 10 #
point $-1 15 10 -10 #
coedge $-1 $420 $419 $398 $439 reversed $421 $-1 #
edge $-1 $400 -15 $425 15 $438 $451 forward 7 unknown #
point $-1 15 -10 -10 #
straight-curve $-1 0 10 -10 1 0 0 I I #
face $-1 $387 $421 $28 $-1 $446 reversed single #
point $-1 10 0 7.5 #
edge $-1 $435 -15 $445 15 $416 $452 forward 7 unknown #
vertex $-1 $432 $453 #
plane-surface $-1 0 -10 0 0 1 0 0 0 1 forward_v I I I I #
point $-1 -15 -10 -10 #
straight-curve $-1 0 10 10 -1 0 0 I I #
point $-1 -15 10 10 #
point $-1 -15 -10 10 #
straight-curve $-1 0 -10 -10 -1 0 0 I I #
straight-curve $-1 0 -10 10 1 0 0 I I #
point $-1 15 -10 10 #
End-of-ACIS-data 