600 0 1 0           
87 GICL ACIS Healer - Source: /gicl/data5/repository/new/Seeker/yaw_pot.ustation.sat - 6 0 18 ACIS 6.0.3 Solaris 24 Sat Apr 13 20:35:58 2002 
1 9.999999999999999547e-07 1.000000000000000036e-10 
body $1 $2 $-1 $-1 #
rgb_color-st-attrib $-1 $-1 $-1 $0 0 1 0 #
lump $-1 $-1 $3 $0 #
shell $-1 $-1 $-1 $4 $-1 $2 #
face $-1 $5 $6 $3 $-1 $7 reversed single #
face $-1 $8 $9 $3 $-1 $10 reversed single #
loop $-1 $11 $12 $4 #
cone-surface $-1 -60 0 0 1 0 0 0 0 -4 1 I I 0 1 4 forward I I I I #
face $-1 $13 $14 $3 $-1 $15 forward single #
loop $-1 $-1 $16 $5 #
plane-surface $-1 -65 0 0 -1 0 0 0 0 1 forward_v I I I I #
loop $-1 $-1 $17 $4 #
coedge $-1 $12 $12 $16 $18 forward $6 $-1 #
face $-1 $19 $20 $3 $-1 $21 forward single #
loop $-1 $22 $23 $8 #
cone-surface $-1 -62.5 0 0 1 0 0 0 0 -6 1 I I 0 1 6 forward I I I I #
coedge $-1 $16 $16 $12 $18 reversed $9 $-1 #
coedge $-1 $17 $17 $24 $25 reversed $11 $-1 #
edge $-1 $26 0 $26 6.283185307179586232 $16 $27 forward 7 unknown #
face $-1 $28 $29 $3 $-1 $30 forward single #
loop $-1 $31 $24 $13 #
plane-surface $-1 -55 0 0 1 0 0 0 0 -1 forward_v I I I I #
loop $-1 $-1 $32 $8 #
coedge $-1 $23 $23 $33 $34 reversed $14 $-1 #
coedge $-1 $24 $24 $17 $25 forward $20 $-1 #
edge $-1 $35 0 $35 6.283185307179586232 $24 $36 forward 7 unknown #
vertex $-1 $18 $37 #
ellipse-curve $-1 -65 0 0 -1 0 0 0 0 -4 1 I I #
face $-1 $38 $39 $3 $-1 $40 forward single #
loop $-1 $41 $42 $19 #
cone-surface $-1 -77.5 0 0 1 0 0 0 0 -10 1 I I 0 1 10 forward I I I I #
loop $-1 $-1 $43 $13 #
coedge $-1 $32 $32 $43 $44 reversed $22 $-1 #
coedge $-1 $33 $33 $23 $34 forward $45 $-1 #
edge $-1 $46 0 $46 6.283185307179586232 $33 $47 forward 7 unknown #
vertex $-1 $25 $48 #
ellipse-curve $-1 -55 0 0 -1 -0 0 0 0 -4 1 I I #
point $-1 -65 0 -4 #
face $-1 $-1 $45 $3 $-1 $49 forward single #
loop $-1 $-1 $50 $28 #
plane-surface $-1 -85 0 0 -1 0 0 0 0 1 forward_v I I I I #
loop $-1 $-1 $51 $19 #
coedge $-1 $42 $42 $50 $52 reversed $29 $-1 #
coedge $-1 $43 $43 $32 $44 forward $31 $-1 #
edge $-1 $53 0 $53 6.283185307179586232 $43 $54 forward 7 unknown #
loop $-1 $55 $33 $38 #
vertex $-1 $34 $56 #
ellipse-curve $-1 -70 0 0 -1 -0 0 0 0 -6 1 I I #
point $-1 -55 0 -4 #
plane-surface $-1 -70 0 0 1 0 0 0 0 -1 forward_v I I I I #
coedge $-1 $50 $50 $42 $52 forward $39 $-1 #
coedge $-1 $51 $51 $57 $58 reversed $41 $-1 #
edge $-1 $59 0 $59 6.283185307179586232 $50 $60 forward 7 unknown #
vertex $-1 $44 $61 #
ellipse-curve $-1 -55 0 0 1 0 0 0 0 -6 1 I I #
loop $-1 $-1 $57 $38 #
point $-1 -70 0 -6 #
coedge $-1 $57 $57 $51 $58 forward $55 $-1 #
edge $-1 $62 0 $62 6.283185307179586232 $57 $63 forward 7 unknown #
vertex $-1 $52 $64 #
ellipse-curve $-1 -85 0 0 -1 0 0 0 0 -10 1 I I #
point $-1 -55 0 -6 #
vertex $-1 $58 $65 #
ellipse-curve $-1 -70 0 0 1 0 0 0 0 -10 1 I I #
point $-1 -85 0 -10 #
point $-1 -70 0 -10 #
End-of-ACIS-data 