600 0 2 0           
24 FBMach with ACIS - 6.0.3 13 ACIS 6.0.3 NT 24 Wed May 23 12:28:05 2001 
1 9.9999999999999995e-007 1e-010 
body $2 $3 $-1 $4 #
bdycol-kcp $-1 1 4 $5 $6 $7 $8 #
model_id-kcp-attrib $-1 $9 $-1 $0 1 990635285 50 1144127489 1 #
lump $-1 $-1 $10 $0 #
transform $-1 0 0 1 0 1 0 -1 0 0 77.5 0 0 1 rotate no_reflect no_shear #
body $11 $12 $-1 $13 #
body $14 $15 $-1 $16 #
body $17 $18 $-1 $19 #
body $20 $21 $-1 $22 #
rgb_color-st-attrib $-1 $-1 $2 $0 0 1 0 #
shell $-1 $-1 $-1 $23 $-1 $3 #
model_id-kcp-attrib $-1 $-1 $-1 $5 1 990635285 70 1145438210 1 #
lump $-1 $-1 $24 $5 #
transform $-1 1 0 0 0 1 0 0 0 1 70 0 0 1 no_rotate no_reflect no_shear #
rgb_color-st-attrib $-1 $25 $-1 $6 0.5 1 1 #
lump $-1 $-1 $26 $6 #
transform $-1 3.8285889215894375e-016 -4.6885143195523885e-032 -1 -1.2246063538223773e-016 -1 0 -1 1.2246063538223773e-016 -3.8285889215894375e-016 60 -1.0770236389531029e-045 0 1 rotate no_reflect no_shear #
rgb_color-st-attrib $-1 $27 $-1 $7 0.5 1 1 #
lump $-1 $-1 $28 $7 #
transform $-1 1 0 0 0 1 0 0 0 1 70 0 0 1 no_rotate no_reflect no_shear #
model_id-kcp-attrib $-1 $29 $-1 $8 1 990635285 230 1155923973 1 #
lump $-1 $-1 $30 $8 #
transform $-1 1 0 0 0 1 0 0 0 1 70 0 0 1 no_rotate no_reflect no_shear #
face $31 $32 $33 $10 $-1 $34 reversed single #
shell $-1 $-1 $-1 $35 $-1 $12 #
model_id-kcp-attrib $-1 $-1 $14 $6 1 990635285 90 1146748931 1 #
shell $-1 $-1 $-1 $36 $-1 $15 #
model_id-kcp-attrib $-1 $-1 $17 $7 1 990635285 150 1150681092 1 #
shell $-1 $-1 $-1 $37 $-1 $18 #
rgb_color-st-attrib $-1 $-1 $20 $8 1 0.5 1 #
shell $-1 $-1 $-1 $38 $-1 $21 #
model_id-kcp-attrib $-1 $-1 $-1 $23 1 990635285 50 1144127489 2 #
face $39 $40 $41 $10 $-1 $42 reversed single #
loop $-1 $43 $44 $23 #
cone-surface $-1 0 0 17.5 0 0 1 4 0 0 1 I I 0 1 4 forward I I I I #
face $-1 $45 $46 $24 $-1 $47 forward single #
face $-1 $48 $49 $26 $-1 $50 forward single #
face $-1 $51 $52 $28 $-1 $53 reversed single #
face $-1 $54 $55 $30 $-1 $56 forward single #
model_id-kcp-attrib $-1 $-1 $-1 $32 1 990635285 50 1144127489 3 #
face $57 $58 $59 $10 $-1 $60 forward single #
loop $-1 $-1 $61 $32 #
plane-surface $-1 0 0 12.5 0 0 -1 -1 0 0 forward_v I I I I #
loop $-1 $-1 $62 $23 #
coedge $-1 $44 $44 $61 $63 forward $33 $-1 #
face $-1 $64 $65 $24 $-1 $66 reversed single #
loop $-1 $-1 $67 $35 #
plane-surface $-1 0 0 10 0 0 1 1 0 0 forward_v I I I I #
face $-1 $68 $69 $26 $-1 $70 forward single #
loop $-1 $71 $72 $36 #
cone-surface $-1 0 0 0 0 0 1 4 0 0 1 I I 0 1 4 forward I I I I #
face $-1 $73 $74 $28 $-1 $53 reversed single #
loop $-1 $-1 $75 $37 #
cone-surface $-1 -15 0 1.1247455413666031e-031 -1 0 0 0 -1.2246063538223773e-015 -10 1 I I 0 1 10 forward I I I I #
face $-1 $76 $77 $30 $-1 $78 forward single #
loop $-1 $79 $80 $38 #
cone-surface $-1 0 0 0 -1 0 0 0 0 6 1 I I 0 -1 6 forward I I I I #
model_id-kcp-attrib $-1 $-1 $-1 $40 1 990635285 50 1144127489 4 #
face $81 $82 $83 $10 $-1 $84 forward single #
loop $-1 $85 $86 $40 #
cone-surface $-1 0 0 15 0 0 1 6 0 0 1 I I 0 1 6 forward I I I I #
coedge $-1 $61 $61 $44 $63 reversed $41 $-1 #
coedge $-1 $62 $62 $87 $88 reversed $43 $-1 #
edge $89 $90 0 $90 6.2831853071795862 $61 $91 forward 7 unknown #
face $-1 $92 $93 $24 $-1 $94 reversed single #
loop $-1 $-1 $95 $45 #
plane-surface $-1 0 0 -10 0 0 1 1 0 0 forward_v I I I I #
coedge $-1 $96 $97 $98 $99 forward $46 $-1 #
face $-1 $-1 $100 $26 $-1 $101 forward single #
loop $-1 $-1 $102 $48 #
plane-surface $-1 0 0 -5 0 0 -1 -1 0 0 forward_v I I I I #
loop $-1 $-1 $103 $36 #
coedge $-1 $72 $72 $102 $104 reversed $49 $-1 #
face $-1 $105 $106 $28 $-1 $53 reversed single #
loop $-1 $-1 $107 $51 #
coedge $-1 $108 $109 $110 $111 reversed $52 $-1 #
face $-1 $112 $113 $30 $-1 $114 reversed single #
loop $-1 $115 $116 $54 #
cone-surface $-1 0 0 1.1247455413666031e-031 -1 0 0 0 -1.2246063538223773e-015 -10 1 I I 0 1 10 forward I I I I #
loop $-1 $-1 $117 $38 #
coedge $-1 $80 $80 $118 $119 forward $55 $-1 #
model_id-kcp-attrib $-1 $120 $-1 $58 1 990635285 50 1144127489 9 #
face $121 $122 $123 $10 $-1 $124 forward single #
loop $-1 $125 $87 $58 #
plane-surface $-1 0 0 22.5 0 0 1 1 0 0 forward_v I I I I #
loop $-1 $-1 $126 $40 #
coedge $-1 $86 $86 $127 $128 reversed $59 $-1 #
coedge $-1 $87 $87 $62 $88 forward $83 $-1 #
edge $129 $130 0 $130 6.2831853071795862 $87 $131 forward 7 unknown #
attrib_edge_convexity-kcp-attrib $-1 $132 $-1 $63 2 #
vertex $-1 $63 $133 #
ellipse-curve $-1 0 0 12.5 0 0 -1 4 0 0 1 I I #
face $134 $135 $136 $24 $-1 $137 reversed single #
loop $-1 $-1 $138 $64 #
plane-surface $-1 0 -10 0 0 1 0 0 0 1 forward_v I I I I #
coedge $-1 $139 $140 $141 $142 forward $65 $-1 #
coedge $-1 $143 $67 $144 $145 forward $46 $-1 #
coedge $-1 $67 $143 $146 $147 forward $46 $-1 #
coedge $-1 $148 $149 $67 $99 reversed $150 $-1 #
edge $-1 $151 -10 $152 10 $98 $153 forward 7 unknown #
loop $-1 $-1 $154 $68 #
plane-surface $-1 0 0 5 0 0 1 1 0 0 forward_v I I I I #
coedge $-1 $102 $102 $72 $104 forward $69 $-1 #
coedge $-1 $103 $103 $154 $155 reversed $71 $-1 #
edge $-1 $156 0 $156 6.2831853071795862 $102 $157 forward 7 unknown #
face $-1 $158 $159 $28 $-1 $53 reversed single #
loop $-1 $-1 $160 $73 #
coedge $-1 $161 $162 $163 $164 reversed $74 $-1 #
coedge $-1 $165 $75 $166 $167 forward $52 $-1 #
coedge $-1 $75 $165 $168 $169 reversed $52 $-1 #
coedge $-1 $170 $171 $75 $111 forward $172 $-1 #
edge $-1 $173 -3.1415926535897931 $174 -1.5707963267948968 $110 $175 forward 7 unknown #
face $-1 $-1 $176 $30 $-1 $177 forward single #
loop $-1 $178 $179 $76 #
plane-surface $-1 -15 -1.1867085597023168e-017 0.77272727272727237 1 0 0 0 0 -1 forward_v I I I I #
loop $-1 $-1 $180 $54 #
coedge $-1 $116 $116 $179 $181 forward $77 $-1 #
coedge $-1 $117 $117 $182 $183 reversed $79 $-1 #
coedge $-1 $118 $118 $80 $119 reversed $178 $-1 #
edge $-1 $184 0 $184 6.2831853071795862 $80 $185 forward 7 unknown #
model_id-kcp-attrib $-1 $-1 $81 $58 1 990635285 50 1144127489 5 #
model_id-kcp-attrib $-1 $-1 $-1 $82 1 990635285 50 1144127489 6 #
face $186 $187 $188 $10 $-1 $189 forward single #
loop $-1 $190 $191 $82 #
cone-surface $-1 0 0 0 0 0 1 10 0 0 1 I I 0 1 10 forward I I I I #
loop $-1 $-1 $192 $58 #
coedge $-1 $126 $126 $192 $193 reversed $85 $-1 #
coedge $-1 $127 $127 $86 $128 forward $194 $-1 #
edge $-1 $195 0 $195 6.2831853071795862 $127 $196 forward 7 unknown #
attrib_edge_convexity-kcp-attrib $-1 $197 $-1 $88 1 #
vertex $-1 $88 $198 #
ellipse-curve $-1 0 0 22.5 0 0 -1 4 0 0 1 I I #
convexity-sys-attrib $-1 $-1 $89 $63 #
point $-1 4 0 12.5 #
model_id-kcp-attrib $-1 $-1 $-1 $92 1 990635285 70 1145438210 2 #
face $-1 $199 $200 $24 $-1 $201 reversed single #
loop $-1 $-1 $202 $92 #
plane-surface $-1 -15 0 0 1 0 0 0 0 -1 forward_v I I I I #
coedge $-1 $203 $146 $204 $205 forward $93 $-1 #
coedge $-1 $206 $95 $203 $207 forward $65 $-1 #
coedge $-1 $95 $206 $208 $209 forward $65 $-1 #
coedge $-1 $149 $148 $95 $142 reversed $150 $-1 #
edge $-1 $210 -10 $211 10 $141 $212 forward 7 unknown #
coedge $-1 $97 $96 $213 $214 forward $46 $-1 #
coedge $-1 $215 $216 $96 $145 reversed $200 $-1 #
edge $-1 $152 -15 $217 15 $144 $218 forward 7 unknown #
coedge $-1 $138 $219 $97 $147 reversed $93 $-1 #
edge $-1 $220 -15 $151 15 $146 $221 forward 7 unknown #
coedge $-1 $141 $98 $219 $222 forward $150 $-1 #
coedge $-1 $98 $141 $215 $223 reversed $150 $-1 #
loop $-1 $-1 $148 $199 #
vertex $-1 $99 $224 #
vertex $-1 $99 $225 #
straight-curve $-1 15 0 10 0 1 0 I I #
coedge $-1 $154 $154 $103 $155 forward $100 $-1 #
edge $-1 $226 0 $226 6.2831853071795862 $154 $227 forward 7 unknown #
vertex $-1 $104 $228 #
ellipse-curve $-1 0 0 -5 0 0 -1 4 0 0 1 I I #
face $-1 $229 $230 $28 $-1 $231 reversed single #
loop $-1 $-1 $232 $105 #
coedge $-1 $233 $234 $232 $235 forward $106 $-1 #
coedge $-1 $236 $107 $237 $238 reversed $74 $-1 #
coedge $-1 $107 $236 $109 $169 forward $74 $-1 #
coedge $-1 $239 $240 $107 $164 forward $241 $-1 #
edge $-1 $242 1.2246063538223773e-016 $243 1.5707963267948968 $163 $244 forward 7 unknown #
coedge $-1 $109 $108 $245 $246 reversed $52 $-1 #
coedge $-1 $234 $233 $247 $167 reversed $106 $-1 #
edge $-1 $173 -30 $248 0 $247 $249 forward 7 unknown #
coedge $-1 $250 $251 $252 $169 forward $253 $-1 #
edge $-1 $174 -30 $243 0 $168 $254 forward 7 unknown #
coedge $-1 $171 $110 $251 $255 reversed $172 $-1 #
coedge $-1 $110 $170 $256 $257 reversed $172 $-1 #
loop $-1 $-1 $110 $258 #
vertex $-1 $257 $259 #
vertex $-1 $260 $261 #
ellipse-curve $-1 15 0 1.1247455413666031e-031 -1 0 0 0 -1.2246063538223773e-015 -10 1 I I #
loop $-1 $262 $263 $112 #
plane-surface $-1 0 -1.1867085597023168e-017 0.77272727272727237 1 0 0 0 0 -1 forward_v I I I I #
loop $-1 $-1 $118 $76 #
coedge $-1 $179 $179 $116 $181 reversed $113 $-1 #
coedge $-1 $180 $180 $263 $264 reversed $115 $-1 #
edge $-1 $265 -3.1415926535897931 $265 3.1415926535897931 $116 $266 forward 7 unknown #
coedge $-1 $182 $182 $117 $183 forward $262 $-1 #
edge $-1 $267 0 $267 6.2831853071795862 $117 $268 forward 7 unknown #
vertex $-1 $119 $269 #
ellipse-curve $-1 -15 0 0 -1 0 0 0 0 6 1 I I #
model_id-kcp-attrib $-1 $-1 $-1 $122 1 990635285 50 1144127489 7 #
face $270 $-1 $194 $10 $-1 $271 forward single #
loop $-1 $-1 $272 $122 #
plane-surface $-1 0 0 -7.5 0 0 -1 -1 0 0 forward_v I I I I #
loop $-1 $-1 $273 $82 #
coedge $-1 $191 $191 $272 $274 reversed $123 $-1 #
coedge $-1 $192 $192 $126 $193 forward $125 $-1 #
edge $275 $276 0 $276 6.2831853071795862 $192 $277 forward 7 unknown #
loop $-1 $278 $127 $187 #
vertex $-1 $128 $279 #
ellipse-curve $-1 0 0 7.5 0 0 -1 6 0 0 1 I I #
convexity-sys-attrib $-1 $-1 $129 $88 #
point $-1 4 0 22.5 #
face $280 $-1 $150 $24 $-1 $281 reversed single #
loop $-1 $-1 $215 $135 #
plane-surface $-1 0 10 0 0 -1 0 0 0 -1 forward_v I I I I #
coedge $-1 $282 $213 $216 $283 forward $136 $-1 #
coedge $-1 $219 $138 $139 $207 reversed $93 $-1 #
coedge $-1 $213 $282 $138 $205 reversed $136 $-1 #
edge $-1 $220 -10 $284 10 $204 $285 forward 7 unknown #
coedge $-1 $140 $139 $282 $286 forward $65 $-1 #
edge $-1 $211 -15 $284 15 $203 $287 forward 7 unknown #
coedge $-1 $216 $215 $140 $209 reversed $200 $-1 #
edge $-1 $288 -15 $210 15 $208 $289 forward 7 unknown #
vertex $-1 $142 $290 #
vertex $-1 $222 $291 #
straight-curve $-1 15 0 -10 0 -1 0 I I #
coedge $-1 $202 $204 $143 $214 reversed $136 $-1 #
edge $-1 $217 -10 $220 10 $213 $292 forward 7 unknown #
coedge $-1 $208 $144 $149 $223 forward $200 $-1 #
coedge $-1 $144 $208 $202 $283 reversed $200 $-1 #
vertex $-1 $145 $293 #
straight-curve $-1 0 10 10 -1 0 0 I I #
coedge $-1 $146 $203 $148 $222 reversed $93 $-1 #
vertex $-1 $214 $294 #
straight-curve $-1 0 -10 10 1 0 0 I I #
edge $-1 $151 -10 $211 10 $148 $295 forward 7 unknown #
edge $-1 $152 -10 $210 10 $149 $296 forward 7 unknown #
point $-1 15 -10 10 #
point $-1 15 10 10 #
vertex $-1 $155 $297 #
ellipse-curve $-1 0 0 5 0 0 1 4 0 0 1 I I #
point $-1 4 0 -5 #
face $-1 $298 $299 $28 $-1 $300 forward single #
loop $-1 $-1 $252 $158 #
plane-surface $-1 0 10 0 0 -1 0 0 0 -1 forward_v I I I I #
coedge $-1 $301 $302 $303 $235 reversed $159 $-1 #
coedge $-1 $166 $160 $304 $305 reversed $106 $-1 #
coedge $-1 $160 $166 $306 $307 reversed $106 $-1 #
edge $-1 $308 -30 $309 0 $303 $310 forward 7 unknown #
coedge $-1 $162 $161 $311 $312 reversed $74 $-1 #
coedge $-1 $313 $314 $315 $238 forward $316 $-1 #
edge $-1 $317 -30 $242 0 $237 $318 forward 7 unknown #
coedge $-1 $240 $163 $319 $320 forward $241 $-1 #
coedge $-1 $163 $239 $313 $321 reversed $241 $-1 #
loop $-1 $-1 $163 $322 #
vertex $-1 $321 $323 #
vertex $-1 $320 $324 #
ellipse-curve $-1 -15 0 1.1247455413666031e-031 1 0 0 0 -1.2246063538223773e-015 -10 1 I I #
coedge $-1 $325 $326 $165 $246 forward $327 $-1 #
edge $-1 $243 1.5707963267948968 $248 3.1415926535897931 $245 $244 forward 7 unknown #
coedge $-1 $328 $329 $330 $167 forward $299 $-1 #
vertex $-1 $331 $332 #
straight-curve $-1 -15 0 10 -1 0 0 I I #
coedge $-1 $333 $168 $326 $334 reversed $253 $-1 #
coedge $-1 $168 $333 $170 $255 forward $253 $-1 #
coedge $-1 $335 $319 $162 $169 reversed $230 $-1 #
loop $-1 $-1 $168 $336 #
straight-curve $-1 -15 10 1.1247455413666031e-031 -1 0 0 I I #
edge $-1 $337 -10 $174 -1.1247455413666031e-031 $170 $338 forward 7 unknown #
coedge $-1 $339 $330 $171 $257 forward $340 $-1 #
edge $-1 $173 0 $337 10 $171 $341 forward 7 unknown #
face $-1 $342 $172 $28 $-1 $343 reversed single #
point $-1 15 0 10 #
edge $-1 $174 -1.1247455413666031e-031 $344 10 $345 $338 forward 7 unknown #
point $-1 15 10 1.1247455413666031e-031 #
loop $-1 $-1 $182 $112 #
coedge $-1 $263 $263 $180 $264 forward $176 $-1 #
edge $346 $347 -3.1415926535897931 $347 3.1415926535897931 $180 $348 forward 7 unknown #
vertex $-1 $181 $349 #
ellipse-curve $-1 -15 0 1.1247455413666031e-031 1 0 0 0 -1.2246063538223773e-015 -10 1 I I #
vertex $-1 $183 $350 #
ellipse-curve $-1 0 0 0 -1 0 0 0 0 6 1 I I #
point $-1 -15 0 6 #
model_id-kcp-attrib $-1 $-1 $-1 $187 1 990635285 50 1144127489 8 #
plane-surface $-1 0 0 7.5 0 0 1 1 0 0 forward_v I I I I #
coedge $-1 $272 $272 $191 $274 forward $188 $-1 #
coedge $-1 $273 $273 $351 $352 reversed $190 $-1 #
edge $-1 $353 0 $353 6.2831853071795862 $272 $354 forward 7 unknown #
attrib_edge_convexity-kcp-attrib $-1 $355 $-1 $193 1 #
vertex $-1 $193 $356 #
ellipse-curve $-1 0 0 22.5 0 0 1 6 0 0 1 I I #
loop $-1 $-1 $351 $187 #
point $-1 6 0 7.5 #
model_id-kcp-attrib $-1 $-1 $-1 $199 1 990635285 70 1145438210 3 #
plane-surface $-1 15 0 0 -1 0 0 0 0 1 forward_v I I I I #
coedge $-1 $204 $202 $206 $286 reversed $136 $-1 #
edge $-1 $217 -10 $288 10 $216 $357 forward 7 unknown #
vertex $-1 $286 $358 #
straight-curve $-1 -15 -10 0 0 0 -1 I I #
edge $-1 $284 -10 $288 10 $282 $359 forward 7 unknown #
straight-curve $-1 0 -10 -10 -1 0 0 I I #
vertex $-1 $209 $360 #
straight-curve $-1 0 10 -10 1 0 0 I I #
point $-1 15 10 -10 #
point $-1 15 -10 -10 #
straight-curve $-1 -15 0 10 0 -1 0 I I #
point $-1 -15 10 10 #
point $-1 -15 -10 10 #
straight-curve $-1 15 -10 0 0 0 -1 I I #
straight-curve $-1 15 10 0 0 0 -1 I I #
point $-1 4 0 5 #
face $-1 $322 $361 $28 $-1 $362 reversed single #
loop $-1 $-1 $247 $229 #
plane-surface $-1 0 0 10 0 0 1 1 0 0 forward_v I I I I #
coedge $-1 $363 $232 $364 $365 reversed $159 $-1 #
coedge $-1 $232 $363 $366 $367 reversed $159 $-1 #
coedge $-1 $368 $369 $370 $235 forward $371 $-1 #
coedge $-1 $372 $373 $233 $305 forward $374 $-1 #
edge $-1 $248 -3.1415926535897931 $309 -1.5707963267948966 $304 $244 forward 7 unknown #
coedge $-1 $375 $376 $234 $307 forward $377 $-1 #
edge $-1 $308 1.5707963267948966 $173 3.1415926535897931 $306 $175 forward 7 unknown #
vertex $-1 $378 $379 #
vertex $-1 $380 $381 #
straight-curve $-1 -15 -10 1.1247455413666031e-031 -1 0 0 I I #
coedge $-1 $382 $345 $236 $312 forward $383 $-1 #
edge $-1 $174 -1.5707963267948968 $317 -1.2246063538223773e-016 $311 $175 forward 7 unknown #
coedge $-1 $384 $237 $240 $321 forward $316 $-1 #
coedge $-1 $237 $384 $382 $385 forward $316 $-1 #
coedge $-1 $386 $387 $363 $238 reversed $388 $-1 #
loop $-1 $-1 $237 $389 #
vertex $-1 $390 $391 #
straight-curve $-1 -15 0 -10 -1 0 0 I I #
coedge $-1 $252 $392 $239 $320 reversed $230 $-1 #
edge $-1 $243 -1.1247455413666031e-031 $393 10 $319 $394 forward 7 unknown #
edge $-1 $242 0 $393 10 $240 $395 forward 7 unknown #
face $-1 $396 $241 $28 $-1 $362 reversed single #
point $-1 -15 0 -10 #
point $-1 -15 10 1.1247455413666031e-031 #
coedge $-1 $326 $245 $397 $398 reversed $327 $-1 #
coedge $-1 $245 $325 $250 $334 forward $327 $-1 #
loop $-1 $-1 $245 $396 #
coedge $-1 $399 $247 $373 $331 forward $299 $-1 #
coedge $-1 $247 $399 $375 $400 forward $299 $-1 #
coedge $-1 $256 $397 $108 $167 reversed $340 $-1 #
edge $-1 $248 0 $401 10 $373 $402 forward 7 unknown #
point $-1 -15 0 10 #
coedge $-1 $251 $250 $339 $403 reversed $253 $-1 #
edge $-1 $404 -10 $243 -1.1247455413666031e-031 $250 $394 forward 7 unknown #
coedge $-1 $392 $252 $345 $260 forward $230 $-1 #
face $-1 $-1 $253 $28 $-1 $231 reversed single #
vertex $-1 $257 $405 #
straight-curve $-1 15 10 0 0 0 -1 I I #
coedge $-1 $397 $256 $333 $403 forward $340 $-1 #
loop $-1 $-1 $330 $406 #
straight-curve $-1 15 0 10 0 1 0 I I #
face $-1 $407 $383 $28 $-1 $343 reversed single #
plane-surface $-1 15 0 0 -1 0 0 0 0 1 forward_v I I I I #
vertex $-1 $385 $408 #
coedge $-1 $311 $382 $335 $260 reversed $383 $-1 #
convexity-sys-attrib $-1 $-1 $-1 $264 #
vertex $-1 $264 $409 #
ellipse-curve $-1 0 0 1.1247455413666031e-031 1 0 0 0 -1.2246063538223773e-015 -10 1 I I #
point $-1 -15 0 10 #
point $-1 0 0 6 #
coedge $-1 $351 $351 $273 $352 forward $278 $-1 #
edge $-1 $410 0 $410 6.2831853071795862 $351 $411 forward 7 unknown #
vertex $-1 $274 $412 #
ellipse-curve $-1 0 0 -7.5 0 0 -1 10 0 0 1 I I #
convexity-sys-attrib $-1 $-1 $275 $193 #
point $-1 6 0 22.5 #
straight-curve $-1 -15 10 0 0 0 -1 I I #
point $-1 -15 -10 -10 #
straight-curve $-1 -15 0 -10 0 1 0 I I #
point $-1 -15 10 -10 #
loop $-1 $-1 $366 $298 #
plane-surface $-1 -15 0 0 1 0 0 0 0 -1 forward_v I I I I #
coedge $-1 $302 $301 $161 $238 forward $159 $-1 #
coedge $-1 $413 $414 $301 $365 forward $415 $-1 #
edge $-1 $317 -1.2246063538223773e-016 $308 1.5707963267948966 $364 $175 forward 7 unknown #
coedge $-1 $416 $417 $302 $367 forward $361 $-1 #
edge $-1 $309 -1.5707963267948966 $242 1.2246063538223773e-016 $366 $244 forward 7 unknown #
coedge $-1 $418 $303 $417 $380 forward $371 $-1 #
coedge $-1 $303 $418 $413 $378 reversed $371 $-1 #
coedge $-1 $419 $420 $160 $235 reversed $421 $-1 #
loop $-1 $-1 $303 $422 #
coedge $-1 $373 $304 $420 $423 reversed $374 $-1 #
coedge $-1 $304 $372 $328 $331 reversed $374 $-1 #
loop $-1 $-1 $304 $424 #
coedge $-1 $376 $306 $329 $400 reversed $377 $-1 #
coedge $-1 $306 $375 $419 $425 forward $377 $-1 #
loop $-1 $-1 $306 $426 #
edge $-1 $308 -1.1247455413666031e-031 $427 10 $413 $428 forward 7 unknown #
point $-1 15 -10 1.1247455413666031e-031 #
edge $-1 $309 -1.1247455413666031e-031 $429 10 $417 $430 forward 7 unknown #
point $-1 -15 -10 1.1247455413666031e-031 #
coedge $-1 $345 $311 $314 $385 reversed $383 $-1 #
loop $-1 $-1 $311 $342 #
coedge $-1 $314 $313 $392 $431 forward $316 $-1 #
edge $-1 $344 -10 $317 0 $382 $432 forward 7 unknown #
coedge $-1 $433 $315 $414 $390 forward $388 $-1 #
coedge $-1 $315 $433 $416 $434 forward $388 $-1 #
loop $-1 $-1 $315 $435 #
face $-1 $422 $316 $28 $-1 $436 reversed single #
edge $-1 $317 0 $427 10 $414 $432 forward 7 unknown #
point $-1 15 0 -10 #
coedge $-1 $319 $335 $384 $431 reversed $230 $-1 #
vertex $-1 $431 $437 #
straight-curve $-1 -15 10 0 0 0 -1 I I #
straight-curve $-1 -15 0 -10 0 1 0 I I #
face $-1 $424 $327 $28 $-1 $362 reversed single #
coedge $-1 $330 $339 $325 $398 forward $340 $-1 #
edge $-1 $404 -10 $248 0 $325 $402 forward 7 unknown #
coedge $-1 $329 $328 $438 $439 forward $299 $-1 #
edge $-1 $440 -10 $173 0 $375 $341 forward 7 unknown #
vertex $-1 $331 $441 #
straight-curve $-1 -15 0 10 0 -1 0 I I #
edge $-1 $337 -15 $404 15 $333 $442 forward 7 unknown #
vertex $-1 $403 $443 #
point $-1 15 10 10 #
face $-1 $389 $340 $28 $-1 $300 forward single #
face $-1 $444 $415 $28 $-1 $343 reversed single #
point $-1 15 10 -10 #
point $-1 0 0 10 #
vertex $-1 $352 $445 #
ellipse-curve $-1 0 0 7.5 0 0 1 10 0 0 1 I I #
point $-1 10 0 -7.5 #
coedge $-1 $414 $364 $369 $378 forward $415 $-1 #
coedge $-1 $364 $413 $386 $390 reversed $415 $-1 #
loop $-1 $-1 $364 $407 #
coedge $-1 $417 $366 $387 $434 reversed $361 $-1 #
coedge $-1 $366 $416 $368 $380 reversed $361 $-1 #
coedge $-1 $369 $368 $433 $446 reversed $371 $-1 #
coedge $-1 $438 $370 $376 $425 reversed $421 $-1 #
coedge $-1 $370 $438 $372 $423 forward $421 $-1 #
loop $-1 $-1 $370 $444 #
face $-1 $336 $371 $28 $-1 $447 reversed single #
edge $-1 $401 -10 $309 -1.1247455413666031e-031 $372 $430 forward 7 unknown #
face $-1 $435 $374 $28 $-1 $362 reversed single #
edge $-1 $440 -10 $308 -1.1247455413666031e-031 $376 $428 forward 7 unknown #
face $-1 $258 $377 $28 $-1 $343 reversed single #
vertex $-1 $378 $448 #
straight-curve $-1 15 -10 0 0 0 -1 I I #
vertex $-1 $434 $449 #
straight-curve $-1 -15 -10 0 0 0 -1 I I #
edge $-1 $393 -15 $344 15 $392 $450 forward 7 unknown #
straight-curve $-1 15 0 -10 0 -1 0 I I #
coedge $-1 $387 $386 $418 $446 forward $388 $-1 #
edge $-1 $429 -10 $242 0 $416 $395 forward 7 unknown #
face $-1 $426 $388 $28 $-1 $436 reversed single #
plane-surface $-1 0 0 -10 0 0 1 1 0 0 forward_v I I I I #
point $-1 -15 10 -10 #
coedge $-1 $420 $419 $399 $439 reversed $421 $-1 #
edge $-1 $401 -15 $440 15 $438 $451 forward 7 unknown #
vertex $-1 $400 $452 #
point $-1 -15 -10 10 #
straight-curve $-1 0 10 10 -1 0 0 I I #
point $-1 -15 10 10 #
face $-1 $406 $421 $28 $-1 $447 reversed single #
point $-1 10 0 7.5 #
edge $-1 $427 -15 $429 15 $418 $453 forward 7 unknown #
plane-surface $-1 0 -10 0 0 1 0 0 0 1 forward_v I I I I #
point $-1 15 -10 -10 #
point $-1 -15 -10 -10 #
straight-curve $-1 0 10 -10 1 0 0 I I #
straight-curve $-1 0 -10 10 1 0 0 I I #
point $-1 15 -10 10 #
straight-curve $-1 0 -10 -10 -1 0 0 I I #
End-of-ACIS-data 