600 0 2 0           
24 FBMach with ACIS - 6.0.3 13 ACIS 6.0.3 NT 24 Wed May 23 12:28:07 2001 
1 9.9999999999999995e-007 1e-010 
body $2 $3 $-1 $4 #
bdycol-kcp $-1 1 2 $5 $6 #
model_id-kcp-attrib $-1 $7 $-1 $0 1 990635287 60 -331612159 1 #
lump $-1 $-1 $8 $0 #
transform $-1 0 0 -1 0 1 0 1 0 0 -47.5 0 0 1 rotate no_reflect no_shear #
body $9 $10 $-1 $11 #
body $12 $13 $-1 $14 #
rgb_color-st-attrib $-1 $-1 $2 $0 0 1 0 #
shell $-1 $-1 $-1 $15 $-1 $3 #
model_id-kcp-attrib $-1 $-1 $-1 $5 1 990635287 60 -331612158 1 #
lump $-1 $-1 $16 $5 #
transform $-1 1 0 0 0 1 0 0 0 1 -47.5 0 0 1 no_rotate no_reflect no_shear #
rgb_color-st-attrib $-1 $17 $-1 $6 0.5 1 1 #
lump $-1 $-1 $18 $6 #
transform $-1 1 0 0 0 1 0 0 0 1 -47.5 0 0 1 no_rotate no_reflect no_shear #
face $19 $20 $21 $8 $-1 $22 forward single #
shell $-1 $-1 $-1 $23 $-1 $10 #
model_id-kcp-attrib $-1 $-1 $12 $6 1 990635287 90 -329646077 1 #
shell $-1 $-1 $-1 $24 $-1 $13 #
model_id-kcp-attrib $-1 $-1 $-1 $15 1 990635287 60 -331612159 2 #
face $25 $26 $27 $8 $-1 $28 forward single #
loop $-1 $29 $30 $15 #
cone-surface $-1 0 0 0 0 0 1 4 0 0 1 I I 0 1 4 forward I I I I #
face $-1 $31 $32 $16 $-1 $33 forward single #
face $-1 $34 $35 $18 $-1 $36 reversed single #
model_id-kcp-attrib $-1 $37 $-1 $20 1 990635287 60 -331612159 5 #
face $38 $-1 $39 $8 $-1 $40 forward single #
loop $-1 $-1 $41 $20 #
plane-surface $-1 0 0 -17.5 0 0 -1 -1 0 0 forward_v I I I I #
loop $-1 $-1 $42 $15 #
coedge $-1 $30 $30 $41 $43 reversed $21 $-1 #
face $-1 $44 $45 $16 $-1 $46 reversed single #
loop $-1 $-1 $47 $23 #
plane-surface $-1 0 0 4 0 0 1 1 0 0 forward_v I I I I #
face $-1 $48 $49 $18 $-1 $36 reversed single #
loop $-1 $-1 $50 $24 #
cone-surface $-1 -17.5 0 1.4996607218221374e-032 -1 0 0 0 0 -4 1 I I 0 1 4 forward I I I I #
model_id-kcp-attrib $-1 $-1 $25 $20 1 990635287 60 -331612159 3 #
model_id-kcp-attrib $-1 $-1 $-1 $26 1 990635287 60 -331612159 4 #
loop $-1 $-1 $51 $26 #
plane-surface $-1 0 0 17.5 0 0 1 1 0 0 forward_v I I I I #
coedge $-1 $41 $41 $30 $43 forward $27 $-1 #
coedge $-1 $42 $42 $51 $52 reversed $29 $-1 #
edge $53 $54 0 $54 6.2831853071795862 $41 $55 forward 7 unknown #
face $-1 $56 $57 $16 $-1 $58 reversed single #
loop $-1 $-1 $59 $31 #
plane-surface $-1 0 0 -4 0 0 1 1 0 0 forward_v I I I I #
coedge $-1 $60 $61 $62 $63 forward $32 $-1 #
face $-1 $64 $65 $18 $-1 $36 reversed single #
loop $-1 $-1 $66 $34 #
coedge $-1 $67 $68 $69 $70 reversed $35 $-1 #
coedge $-1 $51 $51 $42 $52 forward $39 $-1 #
edge $-1 $71 0 $71 6.2831853071795862 $51 $72 forward 7 unknown #
attrib_edge_convexity-kcp-attrib $-1 $73 $-1 $43 1 #
vertex $-1 $43 $74 #
ellipse-curve $-1 0 0 -17.5 0 0 -1 4 0 0 1 I I #
face $75 $76 $77 $16 $-1 $78 reversed single #
loop $-1 $-1 $79 $44 #
plane-surface $-1 0 -4 0 0 1 0 0 0 1 forward_v I I I I #
coedge $-1 $80 $81 $82 $83 forward $45 $-1 #
coedge $-1 $84 $47 $85 $86 forward $32 $-1 #
coedge $-1 $47 $84 $87 $88 forward $32 $-1 #
coedge $-1 $89 $90 $47 $63 reversed $91 $-1 #
edge $-1 $92 -4 $93 4 $62 $94 forward 7 unknown #
face $-1 $95 $96 $18 $-1 $36 reversed single #
loop $-1 $-1 $97 $48 #
coedge $-1 $98 $99 $100 $101 reversed $49 $-1 #
coedge $-1 $102 $50 $103 $104 forward $35 $-1 #
coedge $-1 $50 $102 $105 $106 reversed $35 $-1 #
coedge $-1 $107 $108 $50 $70 forward $109 $-1 #
edge $-1 $110 -3.1415926535897931 $111 -1.5707963267948966 $69 $112 forward 7 unknown #
vertex $-1 $52 $113 #
ellipse-curve $-1 0 0 17.5 0 0 1 4 0 0 1 I I #
convexity-sys-attrib $-1 $-1 $53 $43 #
point $-1 4 0 -17.5 #
model_id-kcp-attrib $-1 $-1 $-1 $56 1 990635287 60 -331612158 2 #
face $-1 $114 $115 $16 $-1 $116 reversed single #
loop $-1 $-1 $117 $56 #
plane-surface $-1 -17.5 0 0 1 0 0 0 0 -1 forward_v I I I I #
coedge $-1 $118 $87 $119 $120 forward $57 $-1 #
coedge $-1 $121 $59 $118 $122 forward $45 $-1 #
coedge $-1 $59 $121 $123 $124 forward $45 $-1 #
coedge $-1 $90 $89 $59 $83 reversed $91 $-1 #
edge $-1 $125 -4 $126 4 $82 $127 forward 7 unknown #
coedge $-1 $61 $60 $128 $129 forward $32 $-1 #
coedge $-1 $130 $131 $60 $86 reversed $115 $-1 #
edge $-1 $93 -17.5 $132 17.5 $85 $133 forward 7 unknown #
coedge $-1 $79 $134 $61 $88 reversed $57 $-1 #
edge $-1 $135 -17.5 $92 17.5 $87 $136 forward 7 unknown #
coedge $-1 $82 $62 $134 $137 forward $91 $-1 #
coedge $-1 $62 $82 $130 $138 reversed $91 $-1 #
loop $-1 $-1 $89 $114 #
vertex $-1 $63 $139 #
vertex $-1 $63 $140 #
straight-curve $-1 17.5 0 4 0 1 0 I I #
face $-1 $141 $142 $18 $-1 $143 reversed single #
loop $-1 $-1 $144 $64 #
coedge $-1 $145 $146 $144 $147 forward $65 $-1 #
coedge $-1 $148 $66 $149 $150 reversed $49 $-1 #
coedge $-1 $66 $148 $68 $106 forward $49 $-1 #
coedge $-1 $151 $152 $66 $101 forward $153 $-1 #
edge $-1 $154 0 $155 1.5707963267948966 $100 $156 forward 7 unknown #
coedge $-1 $68 $67 $157 $158 reversed $35 $-1 #
coedge $-1 $146 $145 $159 $104 reversed $65 $-1 #
edge $-1 $110 -35 $160 0 $159 $161 forward 7 unknown #
coedge $-1 $162 $163 $164 $106 forward $165 $-1 #
edge $-1 $111 -35 $155 0 $105 $166 forward 7 unknown #
coedge $-1 $108 $69 $163 $167 reversed $109 $-1 #
coedge $-1 $69 $107 $168 $169 reversed $109 $-1 #
loop $-1 $-1 $69 $170 #
vertex $-1 $169 $171 #
vertex $-1 $172 $173 #
ellipse-curve $-1 17.5 0 1.4996607218221374e-032 -1 0 0 0 0 -4 1 I I #
point $-1 4 0 17.5 #
face $174 $-1 $91 $16 $-1 $175 reversed single #
loop $-1 $-1 $130 $76 #
plane-surface $-1 0 4 0 0 -1 0 0 0 -1 forward_v I I I I #
coedge $-1 $176 $128 $131 $177 forward $77 $-1 #
coedge $-1 $134 $79 $80 $122 reversed $57 $-1 #
coedge $-1 $128 $176 $79 $120 reversed $77 $-1 #
edge $-1 $135 -4 $178 4 $119 $179 forward 7 unknown #
coedge $-1 $81 $80 $176 $180 forward $45 $-1 #
edge $-1 $126 -17.5 $178 17.5 $118 $181 forward 7 unknown #
coedge $-1 $131 $130 $81 $124 reversed $115 $-1 #
edge $-1 $182 -17.5 $125 17.5 $123 $183 forward 7 unknown #
vertex $-1 $83 $184 #
vertex $-1 $137 $185 #
straight-curve $-1 17.5 0 -4 0 -1 0 I I #
coedge $-1 $117 $119 $84 $129 reversed $77 $-1 #
edge $-1 $132 -4 $135 4 $128 $186 forward 7 unknown #
coedge $-1 $123 $85 $90 $138 forward $115 $-1 #
coedge $-1 $85 $123 $117 $177 reversed $115 $-1 #
vertex $-1 $86 $187 #
straight-curve $-1 0 4 4 -1 0 0 I I #
coedge $-1 $87 $118 $89 $137 reversed $57 $-1 #
vertex $-1 $129 $188 #
straight-curve $-1 0 -4 4 1 0 0 I I #
edge $-1 $92 -4 $126 4 $89 $189 forward 7 unknown #
edge $-1 $93 -4 $125 4 $90 $190 forward 7 unknown #
point $-1 17.5 -4 4 #
point $-1 17.5 4 4 #
face $-1 $191 $192 $18 $-1 $193 forward single #
loop $-1 $-1 $164 $95 #
plane-surface $-1 0 4 0 0 -1 0 0 0 -1 forward_v I I I I #
coedge $-1 $194 $195 $196 $147 reversed $96 $-1 #
coedge $-1 $103 $97 $197 $198 reversed $65 $-1 #
coedge $-1 $97 $103 $199 $200 reversed $65 $-1 #
edge $-1 $201 -35 $202 0 $196 $203 forward 7 unknown #
coedge $-1 $99 $98 $204 $205 reversed $49 $-1 #
coedge $-1 $206 $207 $208 $150 forward $209 $-1 #
edge $-1 $210 -35 $154 0 $149 $211 forward 7 unknown #
coedge $-1 $152 $100 $212 $213 forward $153 $-1 #
coedge $-1 $100 $151 $206 $214 reversed $153 $-1 #
loop $-1 $-1 $100 $215 #
vertex $-1 $214 $216 #
vertex $-1 $213 $217 #
ellipse-curve $-1 -17.5 0 1.4996607218221374e-032 1 0 0 0 0 -4 1 I I #
coedge $-1 $218 $219 $102 $158 forward $220 $-1 #
edge $-1 $155 1.5707963267948966 $160 3.1415926535897931 $157 $156 forward 7 unknown #
coedge $-1 $221 $222 $223 $104 forward $192 $-1 #
vertex $-1 $224 $225 #
straight-curve $-1 -17.5 0 4 -1 0 0 I I #
coedge $-1 $226 $105 $219 $227 reversed $165 $-1 #
coedge $-1 $105 $226 $107 $167 forward $165 $-1 #
coedge $-1 $228 $212 $99 $106 reversed $142 $-1 #
loop $-1 $-1 $105 $229 #
straight-curve $-1 -17.5 4 1.4996607218221374e-032 -1 0 0 I I #
edge $-1 $230 -4 $111 -1.4996607218221374e-032 $107 $231 forward 7 unknown #
coedge $-1 $232 $223 $108 $169 forward $233 $-1 #
edge $-1 $110 0 $230 4 $108 $234 forward 7 unknown #
face $-1 $235 $109 $18 $-1 $236 reversed single #
point $-1 17.5 0 4 #
edge $-1 $111 -1.4996607218221374e-032 $237 4 $238 $231 forward 7 unknown #
point $-1 17.5 4 1.4996607218221374e-032 #
model_id-kcp-attrib $-1 $-1 $-1 $114 1 990635287 60 -331612158 3 #
plane-surface $-1 17.5 0 0 -1 0 0 0 0 1 forward_v I I I I #
coedge $-1 $119 $117 $121 $180 reversed $77 $-1 #
edge $-1 $132 -4 $182 4 $131 $239 forward 7 unknown #
vertex $-1 $180 $240 #
straight-curve $-1 -17.5 -4 0 0 0 -1 I I #
edge $-1 $178 -4 $182 4 $176 $241 forward 7 unknown #
straight-curve $-1 0 -4 -4 -1 0 0 I I #
vertex $-1 $124 $242 #
straight-curve $-1 0 4 -4 1 0 0 I I #
point $-1 17.5 4 -4 #
point $-1 17.5 -4 -4 #
straight-curve $-1 -17.5 0 4 0 -1 0 I I #
point $-1 -17.5 4 4 #
point $-1 -17.5 -4 4 #
straight-curve $-1 17.5 -4 0 0 0 -1 I I #
straight-curve $-1 17.5 4 0 0 0 -1 I I #
face $-1 $215 $243 $18 $-1 $244 reversed single #
loop $-1 $-1 $159 $141 #
plane-surface $-1 0 0 4 0 0 1 1 0 0 forward_v I I I I #
coedge $-1 $245 $144 $246 $247 reversed $96 $-1 #
coedge $-1 $144 $245 $248 $249 reversed $96 $-1 #
coedge $-1 $250 $251 $252 $147 forward $253 $-1 #
coedge $-1 $254 $255 $145 $198 forward $256 $-1 #
edge $-1 $160 -3.1415926535897931 $202 -1.5707963267948966 $197 $156 forward 7 unknown #
coedge $-1 $257 $258 $146 $200 forward $259 $-1 #
edge $-1 $201 1.5707963267948966 $110 3.1415926535897931 $199 $112 forward 7 unknown #
vertex $-1 $260 $261 #
vertex $-1 $262 $263 #
straight-curve $-1 -17.5 -4 1.4996607218221374e-032 -1 0 0 I I #
coedge $-1 $264 $238 $148 $205 forward $265 $-1 #
edge $-1 $111 -1.5707963267948966 $210 0 $204 $112 forward 7 unknown #
coedge $-1 $266 $149 $152 $214 forward $209 $-1 #
coedge $-1 $149 $266 $264 $267 forward $209 $-1 #
coedge $-1 $268 $269 $245 $150 reversed $270 $-1 #
loop $-1 $-1 $149 $271 #
vertex $-1 $272 $273 #
straight-curve $-1 -17.5 0 -4 -1 0 0 I I #
coedge $-1 $164 $274 $151 $213 reversed $142 $-1 #
edge $-1 $155 -1.4996607218221374e-032 $275 4 $212 $276 forward 7 unknown #
edge $-1 $154 0 $275 4 $152 $277 forward 7 unknown #
face $-1 $278 $153 $18 $-1 $244 reversed single #
point $-1 -17.5 0 -4 #
point $-1 -17.5 4 1.4996607218221374e-032 #
coedge $-1 $219 $157 $279 $280 reversed $220 $-1 #
coedge $-1 $157 $218 $162 $227 forward $220 $-1 #
loop $-1 $-1 $157 $278 #
coedge $-1 $281 $159 $255 $224 forward $192 $-1 #
coedge $-1 $159 $281 $257 $282 forward $192 $-1 #
coedge $-1 $168 $279 $67 $104 reversed $233 $-1 #
edge $-1 $160 0 $283 4 $255 $284 forward 7 unknown #
point $-1 -17.5 0 4 #
coedge $-1 $163 $162 $232 $285 reversed $165 $-1 #
edge $-1 $286 -4 $155 -1.4996607218221374e-032 $162 $276 forward 7 unknown #
coedge $-1 $274 $164 $238 $172 forward $142 $-1 #
face $-1 $-1 $165 $18 $-1 $143 reversed single #
vertex $-1 $169 $287 #
straight-curve $-1 17.5 4 0 0 0 -1 I I #
coedge $-1 $279 $168 $226 $285 forward $233 $-1 #
loop $-1 $-1 $223 $288 #
straight-curve $-1 17.5 0 4 0 1 0 I I #
face $-1 $289 $265 $18 $-1 $236 reversed single #
plane-surface $-1 17.5 0 0 -1 0 0 0 0 1 forward_v I I I I #
vertex $-1 $267 $290 #
coedge $-1 $204 $264 $228 $172 reversed $265 $-1 #
straight-curve $-1 -17.5 4 0 0 0 -1 I I #
point $-1 -17.5 -4 -4 #
straight-curve $-1 -17.5 0 -4 0 1 0 I I #
point $-1 -17.5 4 -4 #
loop $-1 $-1 $248 $191 #
plane-surface $-1 -17.5 0 0 1 0 0 0 0 -1 forward_v I I I I #
coedge $-1 $195 $194 $98 $150 forward $96 $-1 #
coedge $-1 $291 $292 $194 $247 forward $293 $-1 #
edge $-1 $210 0 $201 1.5707963267948966 $246 $112 forward 7 unknown #
coedge $-1 $294 $295 $195 $249 forward $243 $-1 #
edge $-1 $202 -1.5707963267948966 $154 0 $248 $156 forward 7 unknown #
coedge $-1 $296 $196 $295 $262 forward $253 $-1 #
coedge $-1 $196 $296 $291 $260 reversed $253 $-1 #
coedge $-1 $297 $298 $97 $147 reversed $299 $-1 #
loop $-1 $-1 $196 $300 #
coedge $-1 $255 $197 $298 $301 reversed $256 $-1 #
coedge $-1 $197 $254 $221 $224 reversed $256 $-1 #
loop $-1 $-1 $197 $302 #
coedge $-1 $258 $199 $222 $282 reversed $259 $-1 #
coedge $-1 $199 $257 $297 $303 forward $259 $-1 #
loop $-1 $-1 $199 $304 #
edge $-1 $201 -1.4996607218221374e-032 $305 4 $291 $306 forward 7 unknown #
point $-1 17.5 -4 1.4996607218221374e-032 #
edge $-1 $202 -1.4996607218221374e-032 $307 4 $295 $308 forward 7 unknown #
point $-1 -17.5 -4 1.4996607218221374e-032 #
coedge $-1 $238 $204 $207 $267 reversed $265 $-1 #
loop $-1 $-1 $204 $235 #
coedge $-1 $207 $206 $274 $309 forward $209 $-1 #
edge $-1 $237 -4 $210 0 $264 $310 forward 7 unknown #
coedge $-1 $311 $208 $292 $272 forward $270 $-1 #
coedge $-1 $208 $311 $294 $312 forward $270 $-1 #
loop $-1 $-1 $208 $313 #
face $-1 $300 $209 $18 $-1 $314 reversed single #
edge $-1 $210 0 $305 4 $292 $310 forward 7 unknown #
point $-1 17.5 0 -4 #
coedge $-1 $212 $228 $266 $309 reversed $142 $-1 #
vertex $-1 $309 $315 #
straight-curve $-1 -17.5 4 0 0 0 -1 I I #
straight-curve $-1 -17.5 0 -4 0 1 0 I I #
face $-1 $302 $220 $18 $-1 $244 reversed single #
coedge $-1 $223 $232 $218 $280 forward $233 $-1 #
edge $-1 $286 -4 $160 0 $218 $284 forward 7 unknown #
coedge $-1 $222 $221 $316 $317 forward $192 $-1 #
edge $-1 $318 -4 $110 0 $257 $234 forward 7 unknown #
vertex $-1 $224 $319 #
straight-curve $-1 -17.5 0 4 0 -1 0 I I #
edge $-1 $230 -17.5 $286 17.5 $226 $320 forward 7 unknown #
vertex $-1 $285 $321 #
point $-1 17.5 4 4 #
face $-1 $271 $233 $18 $-1 $193 forward single #
face $-1 $322 $293 $18 $-1 $236 reversed single #
point $-1 17.5 4 -4 #
coedge $-1 $292 $246 $251 $260 forward $293 $-1 #
coedge $-1 $246 $291 $268 $272 reversed $293 $-1 #
loop $-1 $-1 $246 $289 #
coedge $-1 $295 $248 $269 $312 reversed $243 $-1 #
coedge $-1 $248 $294 $250 $262 reversed $243 $-1 #
coedge $-1 $251 $250 $311 $323 reversed $253 $-1 #
coedge $-1 $316 $252 $258 $303 reversed $299 $-1 #
coedge $-1 $252 $316 $254 $301 forward $299 $-1 #
loop $-1 $-1 $252 $322 #
face $-1 $229 $253 $18 $-1 $324 reversed single #
edge $-1 $283 -4 $202 -1.4996607218221374e-032 $254 $308 forward 7 unknown #
face $-1 $313 $256 $18 $-1 $244 reversed single #
edge $-1 $318 -4 $201 -1.4996607218221374e-032 $258 $306 forward 7 unknown #
face $-1 $170 $259 $18 $-1 $236 reversed single #
vertex $-1 $260 $325 #
straight-curve $-1 17.5 -4 0 0 0 -1 I I #
vertex $-1 $312 $326 #
straight-curve $-1 -17.5 -4 0 0 0 -1 I I #
edge $-1 $275 -17.5 $237 17.5 $274 $327 forward 7 unknown #
straight-curve $-1 17.5 0 -4 0 -1 0 I I #
coedge $-1 $269 $268 $296 $323 forward $270 $-1 #
edge $-1 $307 -4 $154 0 $294 $277 forward 7 unknown #
face $-1 $304 $270 $18 $-1 $314 reversed single #
plane-surface $-1 0 0 -4 0 0 1 1 0 0 forward_v I I I I #
point $-1 -17.5 4 -4 #
coedge $-1 $298 $297 $281 $317 reversed $299 $-1 #
edge $-1 $283 -17.5 $318 17.5 $316 $328 forward 7 unknown #
vertex $-1 $282 $329 #
point $-1 -17.5 -4 4 #
straight-curve $-1 0 4 4 -1 0 0 I I #
point $-1 -17.5 4 4 #
face $-1 $288 $299 $18 $-1 $324 reversed single #
edge $-1 $305 -17.5 $307 17.5 $296 $330 forward 7 unknown #
plane-surface $-1 0 -4 0 0 1 0 0 0 1 forward_v I I I I #
point $-1 17.5 -4 -4 #
point $-1 -17.5 -4 -4 #
straight-curve $-1 0 4 -4 1 0 0 I I #
straight-curve $-1 0 -4 4 1 0 0 I I #
point $-1 17.5 -4 4 #
straight-curve $-1 0 -4 -4 -1 0 0 I I #
End-of-ACIS-data 