700 0 2 0           
24 FBMach with ACIS - 7.0.3 13 ACIS 7.0.3 NT 24 Mon May 13 17:06:14 2002 
1 9.9999999999999995e-007 1e-010 
body $2 -1 $-1 $3 $-1 $4 #
bdycol-kcp $-1 -1 1 4 $5 $6 $7 $8 #
model_id-kcp-attrib $-1 -1 $-1 $-1 $0 1 1021323974 1021323974 947781633 1 #
lump $-1 -1 $-1 $-1 $9 $0 #
transform $-1 -1 1 0 0 0 1 0 0 0 1 0 0 0 1 rotate no_reflect no_shear #
body $10 -1 $-1 $11 $-1 $12 #
body $13 -1 $-1 $14 $-1 $15 #
body $16 -1 $-1 $17 $-1 $18 #
body $19 -1 $-1 $20 $-1 $21 #
shell $-1 -1 $-1 $-1 $-1 $22 $-1 $3 #
rgb_color-st-attrib $-1 -1 $23 $-1 $5 0 0 1 #
lump $-1 -1 $-1 $-1 $24 $5 #
transform $-1 -1 1 0 0 0 1 0 0 0 1 150.00000000000006 19.999999999999996 13.925000000000006 1 no_rotate no_reflect no_shear #
model_id-kcp-attrib $-1 -1 $-1 $-1 $6 1 1021323974 1021323974 947781634 1 #
lump $-1 -1 $-1 $-1 $25 $6 #
transform $-1 -1 1 0 0 0 1 0 0 0 1 150.00000000000006 19.999999999999996 13.925000000000006 1 no_rotate no_reflect no_shear #
rgb_color-st-attrib $-1 -1 $26 $-1 $7 0.5 1 1 #
lump $-1 -1 $-1 $-1 $27 $7 #
transform $-1 -1 1 0 0 0 1 0 0 0 1 150.00000000000006 19.999999999999996 13.925000000000006 1 no_rotate no_reflect no_shear #
rgb_color-st-attrib $-1 -1 $28 $-1 $8 1 0.5 1 #
lump $-1 -1 $-1 $-1 $29 $8 #
transform $-1 -1 1 0 0 0 1 0 0 0 1 150.00000000000006 19.999999999999996 13.925000000000006 1 no_rotate no_reflect no_shear #
face $30 -1 $-1 $31 $32 $9 $-1 $33 reversed single #
model_id-kcp-attrib $-1 -1 $-1 $10 $5 1 1021323974 1021323974 947388420 1 #
shell $-1 -1 $-1 $-1 $-1 $34 $-1 $11 #
shell $-1 -1 $-1 $-1 $-1 $35 $-1 $14 #
model_id-kcp-attrib $-1 -1 $-1 $16 $7 1 1021323974 1021323974 952369155 1 #
shell $-1 -1 $-1 $-1 $-1 $36 $-1 $17 #
model_id-kcp-attrib $-1 -1 $-1 $19 $8 1 1021323974 1021323974 952631301 1 #
shell $-1 -1 $-1 $-1 $-1 $37 $-1 $20 #
model_id-kcp-attrib $-1 -1 $-1 $-1 $22 1 1021323974 1021323974 947781633 2 #
face $38 -1 $-1 $39 $40 $9 $-1 $41 reversed single #
loop $-1 -1 $-1 $-1 $42 $22 #
plane-surface $-1 -1 $-1 151.44337999999999 17.499999999999996 31.850010000000001 0.86602625473013017 -0.49999852611593132 0 0 0 -0.99999999999999989 forward_v I I I I #
face $-1 -1 $-1 $43 $44 $24 $-1 $45 forward single #
face $46 -1 $-1 $47 $48 $25 $-1 $49 forward single #
face $-1 -1 $-1 $50 $51 $27 $-1 $52 reversed single #
face $-1 -1 $-1 $53 $54 $29 $-1 $55 forward single #
model_id-kcp-attrib $-1 -1 $-1 $-1 $31 1 1021323974 1021323974 947781633 3 #
face $56 -1 $-1 $57 $58 $9 $-1 $59 reversed single #
loop $-1 -1 $-1 $-1 $60 $31 #
plane-surface $-1 -1 $-1 148.55661999999998 17.499999999999996 31.850010000000001 0 -1 0 0 0 -0.99999999999999989 forward_v I I I I #
coedge $-1 -1 $-1 $61 $62 $63 $64 reversed $32 $-1 #
face $-1 -1 $-1 $65 $66 $24 $-1 $67 forward single #
loop $-1 -1 $-1 $-1 $68 $34 #
plane-surface $-1 -1 $-1 1.4433799999999337 -2.5 12.924999999999995 0 -1 0 0 0 -1 forward_v I I I I #
model_id-kcp-attrib $-1 -1 $-1 $-1 $35 1 1021323974 1021323974 947781634 2 #
face $69 -1 $-1 $70 $71 $25 $-1 $72 reversed single #
loop $-1 -1 $-1 $-1 $73 $35 #
plane-surface $-1 -1 $-1 0 0 15.925000000000002 0 0 1 1 0 0 forward_v I I I I #
face $-1 -1 $-1 $74 $75 $27 $-1 $52 reversed single #
loop $-1 -1 $-1 $-1 $76 $36 #
cone-surface $-1 -1 $-1 0 0 15.925000000000002 0 0 1 4.9999999999999991 0 0 1 I I 0 1 4.9999999999999991 forward I I I I #
face $-1 -1 $-1 $77 $78 $29 $-1 $79 forward single #
loop $-1 -1 $-1 $80 $81 $37 #
cone-surface $-1 -1 $-1 0 0 10.075000000000003 0 0 -1 2.9099999999999997 0 0 1 I I 0 -1 2.9099999999999997 forward I I I I #
model_id-kcp-attrib $-1 -1 $-1 $-1 $39 1 1021323974 1021323974 947781633 4 #
face $82 -1 $-1 $83 $84 $9 $-1 $85 reversed single #
loop $-1 -1 $-1 $-1 $86 $39 #
plane-surface $-1 -1 $-1 147.11324999999997 19.999999999999996 31.850010000000001 -0.86602625473013017 -0.49999852611593132 0 0 0 0.99999999999999989 forward_v I I I I #
coedge $-1 -1 $-1 $87 $88 $89 $90 reversed $40 $-1 #
coedge $-1 -1 $-1 $91 $42 $92 $93 forward $32 $-1 #
coedge $-1 -1 $-1 $42 $91 $87 $94 reversed $32 $-1 #
coedge $-1 -1 $-1 $89 $95 $42 $64 forward $96 $-1 #
edge $97 -1 $-1 $98 -2.1650596273651987 $99 0.7216888821000732 $63 $100 forward @7 unknown #
face $-1 -1 $-1 $101 $102 $24 $-1 $103 forward single #
loop $-1 -1 $-1 $-1 $104 $43 #
plane-surface $-1 -1 $-1 -1.4433800000000758 -2.5 12.924999999999995 -0.86602625473013017 -0.49999852611593132 0 0 0 1 forward_v I I I I #
coedge $-1 -1 $-1 $105 $106 $107 $108 forward $44 $-1 #
model_id-kcp-attrib $-1 -1 $-1 $-1 $47 1 1021323974 1021323974 947781634 3 #
face $-1 -1 $-1 $109 $110 $25 $-1 $111 reversed single #
loop $-1 -1 $-1 $-1 $112 $47 #
plane-surface $-1 -1 $-1 0 0 -15.925000000000002 0 0 1 1 0 0 forward_v I I I I #
coedge $-1 -1 $-1 $113 $114 $115 $116 forward $48 $-1 #
face $-1 -1 $-1 $117 $118 $27 $-1 $52 reversed single #
loop $-1 -1 $-1 $-1 $119 $50 #
coedge $-1 -1 $-1 $120 $121 $122 $123 reversed $51 $-1 #
face $-1 -1 $-1 $124 $125 $29 $-1 $126 reversed single #
loop $-1 -1 $-1 $127 $128 $53 #
cone-surface $-1 -1 $-1 0 0 10.075000000000003 0 0 -1 4.9999999999999991 0 0 1 I I 0 1 4.9999999999999991 forward I I I I #
loop $-1 -1 $-1 $-1 $129 $37 #
coedge $-1 -1 $-1 $81 $81 $130 $131 forward $54 $-1 #
model_id-kcp-attrib $-1 -1 $-1 $-1 $57 1 1021323974 1021323974 947781633 5 #
face $132 -1 $-1 $133 $134 $9 $-1 $135 reversed single #
loop $-1 -1 $-1 $-1 $136 $57 #
plane-surface $-1 -1 $-1 148.55661999999998 22.499999999999996 31.850010000000001 -0.86602625473013017 0.49999852611593132 0 0 0 0.99999999999999989 forward_v I I I I #
coedge $-1 -1 $-1 $137 $138 $139 $140 reversed $58 $-1 #
coedge $-1 -1 $-1 $141 $60 $62 $94 forward $40 $-1 #
coedge $-1 -1 $-1 $60 $141 $137 $142 reversed $40 $-1 #
coedge $-1 -1 $-1 $139 $63 $60 $90 forward $96 $-1 #
edge $143 -1 $-1 $99 -2.1650699999999863 $144 0.72169000000002381 $89 $145 forward @7 unknown #
coedge $-1 -1 $-1 $62 $61 $146 $147 reversed $32 $-1 #
coedge $-1 -1 $-1 $148 $149 $61 $93 reversed $134 $-1 #
edge $-1 -1 $-1 $98 2.000009999999993 $150 5.0000100000000005 $92 $151 forward @7 unknown #
edge $-1 -1 $-1 $99 2.000009999999993 $152 5.0000100000000005 $62 $153 forward @7 unknown #
coedge $-1 -1 $-1 $63 $154 $148 $155 forward $96 $-1 #
loop $-1 -1 $-1 $156 $157 $158 #
attrib_edge_convexity-kcp-attrib $-1 -1 $159 $-1 $64 1 #
vertex $-1 -1 $-1 $64 $160 #
vertex $-1 -1 $-1 $90 $161 #
straight-curve $-1 -1 $-1 151.80422337736428 18.125001519645497 29.850000000000009 -0.49999852611593126 -0.86602625473013006 0 I I #
face $-1 -1 $-1 $162 $163 $24 $-1 $164 forward single #
loop $-1 -1 $-1 $-1 $165 $65 #
plane-surface $-1 -1 $-1 -2.8867500000000916 0 12.924999999999995 -0.86602625473013017 0.49999852611593132 0 0 0 1 forward_v I I I I #
coedge $-1 -1 $-1 $166 $167 $168 $169 forward $66 $-1 #
coedge $-1 -1 $-1 $170 $68 $167 $171 reversed $44 $-1 #
coedge $-1 -1 $-1 $68 $170 $172 $173 forward $44 $-1 #
coedge $-1 -1 $-1 $174 $168 $68 $108 reversed $175 $-1 #
edge $-1 -1 $-1 $176 -2.1650700000000143 $177 0.72168999999999528 $68 $178 forward @7 unknown #
face $-1 -1 $-1 $179 $180 $25 $-1 $181 reversed single #
loop $-1 -1 $-1 $-1 $182 $70 #
plane-surface $-1 -1 $-1 0 -5 0 0 1 0 0 0 1 forward_v I I I I #
coedge $-1 -1 $-1 $183 $184 $185 $186 forward $71 $-1 #
coedge $-1 -1 $-1 $187 $73 $188 $189 forward $48 $-1 #
coedge $-1 -1 $-1 $73 $187 $190 $191 forward $48 $-1 #
coedge $-1 -1 $-1 $192 $193 $73 $116 reversed $194 $-1 #
edge $-1 -1 $-1 $195 -5 $196 5 $115 $197 forward @7 unknown #
face $-1 -1 $-1 $198 $199 $27 $-1 $52 reversed single #
loop $-1 -1 $-1 $-1 $200 $74 #
coedge $-1 -1 $-1 $201 $202 $203 $204 reversed $75 $-1 #
coedge $-1 -1 $-1 $205 $76 $206 $207 reversed $51 $-1 #
coedge $-1 -1 $-1 $76 $205 $208 $209 reversed $51 $-1 #
coedge $-1 -1 $-1 $210 $211 $212 $123 forward $213 $-1 #
edge $-1 -1 $-1 $214 -31.850000000000005 $215 0 $122 $216 forward @7 unknown #
face $-1 -1 $-1 $-1 $217 $29 $-1 $218 forward single #
loop $-1 -1 $-1 $219 $220 $77 #
plane-surface $-1 -1 $-1 -0.18999999999999997 8.872696125553341e-017 -15.925000000000001 -1.8856425198227848e-032 6.599748819379748e-032 1 1 0 1.8856425198227848e-032 forward_v I I I I #
loop $-1 -1 $-1 $-1 $221 $53 #
coedge $-1 -1 $-1 $128 $128 $220 $222 forward $78 $-1 #
coedge $-1 -1 $-1 $129 $129 $223 $224 reversed $80 $-1 #
coedge $-1 -1 $-1 $130 $130 $81 $131 reversed $219 $-1 #
edge $-1 -1 $-1 $225 0 $225 6.2831853071795862 $81 $226 forward @7 unknown #
model_id-kcp-attrib $-1 -1 $-1 $-1 $83 1 1021323974 1021323974 947781633 6 #
face $227 -1 $-1 $228 $229 $9 $-1 $230 reversed single #
loop $-1 -1 $-1 $-1 $148 $83 #
plane-surface $-1 -1 $-1 152.88674999999998 19.999999999999996 31.850010000000001 0.86602625473013017 0.49999852611593132 0 0 0 -0.99999999999999989 forward_v I I I I #
coedge $-1 -1 $-1 $231 $232 $157 $233 reversed $84 $-1 #
coedge $-1 -1 $-1 $234 $86 $88 $142 forward $58 $-1 #
coedge $-1 -1 $-1 $86 $234 $231 $235 reversed $58 $-1 #
coedge $-1 -1 $-1 $157 $89 $86 $140 forward $96 $-1 #
edge $236 -1 $-1 $144 -2.1650631368326709 $237 0.72168537263261479 $139 $238 forward @7 unknown #
coedge $-1 -1 $-1 $88 $87 $239 $240 reversed $40 $-1 #
edge $-1 -1 $-1 $144 2.000009999999993 $241 5.0000100000000005 $88 $242 forward @7 unknown #
attrib_edge_convexity-kcp-attrib $-1 -1 $243 $-1 $90 1 #
vertex $-1 -1 $-1 $140 $244 #
straight-curve $-1 -1 $-1 149.27831 17.499999999999996 29.850000000000009 -0.99999999999999989 0 0 I I #
coedge $-1 -1 $-1 $245 $239 $91 $147 forward $246 $-1 #
edge $247 -1 $-1 $152 -2.8867485094652716 $150 0 $91 $248 forward @7 unknown #
coedge $-1 -1 $-1 $249 $92 $95 $155 reversed $134 $-1 #
coedge $-1 -1 $-1 $92 $249 $245 $250 reversed $134 $-1 #
vertex $-1 -1 $-1 $93 $251 #
straight-curve $-1 -1 $-1 152.88674999999998 19.999999999999996 31.850010000000001 0 0 -0.99999999999999989 I I #
vertex $-1 -1 $-1 $94 $252 #
straight-curve $-1 -1 $-1 151.44337999999999 17.499999999999996 31.850010000000001 0 0 -0.99999999999999989 I I #
coedge $-1 -1 $-1 $95 $157 $253 $254 forward $96 $-1 #
edge $255 -1 $-1 $256 -2.1650631368327193 $98 0.72168537263255261 $95 $257 forward @7 unknown #
loop $-1 -1 $-1 $-1 $258 $158 #
coedge $-1 -1 $-1 $154 $139 $136 $233 forward $96 $-1 #
face $259 -1 $-1 $260 $96 $9 $-1 $261 forward single #
convexity-sys-attrib $-1 -1 $-1 $97 $64 #
point $-1 -1 $-1 152.88674999999998 19.999999999999996 29.850000000000009 #
point $-1 -1 $-1 151.44337999999999 17.499999999999996 29.850000000000009 #
face $-1 -1 $-1 $262 $263 $24 $-1 $264 forward single #
loop $-1 -1 $-1 $-1 $265 $101 #
plane-surface $-1 -1 $-1 -1.4433800000000758 2.5 12.924999999999995 0 1 0 0 0 1 forward_v I I I I #
coedge $-1 -1 $-1 $266 $267 $268 $269 forward $102 $-1 #
coedge $-1 -1 $-1 $270 $104 $267 $271 reversed $66 $-1 #
coedge $-1 -1 $-1 $104 $270 $105 $171 forward $66 $-1 #
coedge $-1 -1 $-1 $107 $268 $104 $169 reversed $175 $-1 #
edge $-1 -1 $-1 $177 -2.1650631368327029 $272 0.72168537263258226 $104 $273 forward @7 unknown #
coedge $-1 -1 $-1 $106 $105 $274 $275 reversed $44 $-1 #
edge $276 -1 $-1 $277 0 $177 3.0000000000000071 $167 $278 forward @7 unknown #
coedge $-1 -1 $-1 $279 $280 $106 $173 reversed $281 $-1 #
edge $-1 -1 $-1 $282 0 $176 3.0000000000000071 $106 $283 forward @7 unknown #
coedge $-1 -1 $-1 $284 $107 $280 $285 reversed $175 $-1 #
loop $-1 -1 $-1 $-1 $107 $286 #
vertex $-1 -1 $-1 $173 $287 #
vertex $-1 -1 $-1 $171 $288 #
straight-curve $-1 -1 $-1 -0.72169000000008054 -2.5 15.925000000000004 -1 0 0 I I #
face $-1 -1 $-1 $289 $290 $25 $-1 $291 reversed single #
loop $-1 -1 $-1 $-1 $292 $109 #
plane-surface $-1 -1 $-1 -5 0 0 1 0 0 0 0 -1 forward_v I I I I #
coedge $-1 -1 $-1 $293 $190 $294 $295 forward $110 $-1 #
coedge $-1 -1 $-1 $296 $112 $293 $297 forward $71 $-1 #
coedge $-1 -1 $-1 $112 $296 $298 $299 forward $71 $-1 #
coedge $-1 -1 $-1 $193 $192 $112 $186 reversed $194 $-1 #
edge $-1 -1 $-1 $300 -5 $301 5 $185 $302 forward @7 unknown #
coedge $-1 -1 $-1 $114 $113 $303 $304 forward $48 $-1 #
coedge $-1 -1 $-1 $305 $306 $113 $189 reversed $290 $-1 #
edge $-1 -1 $-1 $196 -5 $307 5 $188 $308 forward @7 unknown #
coedge $-1 -1 $-1 $182 $309 $114 $191 reversed $110 $-1 #
edge $-1 -1 $-1 $310 -5 $195 5 $190 $311 forward @7 unknown #
coedge $-1 -1 $-1 $185 $115 $309 $312 forward $194 $-1 #
coedge $-1 -1 $-1 $115 $185 $305 $313 reversed $194 $-1 #
loop $-1 -1 $-1 $-1 $192 $289 #
vertex $-1 -1 $-1 $116 $314 #
vertex $-1 -1 $-1 $116 $315 #
straight-curve $-1 -1 $-1 5 0 15.925000000000002 0 1 0 I I #
face $-1 -1 $-1 $316 $317 $27 $-1 $318 reversed single #
loop $-1 -1 $-1 $-1 $319 $117 #
coedge $-1 -1 $-1 $320 $321 $322 $323 reversed $118 $-1 #
coedge $-1 -1 $-1 $324 $119 $325 $326 reversed $75 $-1 #
coedge $-1 -1 $-1 $119 $324 $76 $123 forward $75 $-1 #
coedge $-1 -1 $-1 $327 $328 $119 $204 forward $329 $-1 #
edge $-1 -1 $-1 $330 -3.1415926535897931 $215 -1.5707963267948966 $203 $331 forward @7 unknown #
coedge $-1 -1 $-1 $121 $120 $321 $332 forward $51 $-1 #
coedge $-1 -1 $-1 $333 $334 $120 $207 forward $335 $-1 #
edge $-1 -1 $-1 $336 0 $214 1.5707963267948966 $206 $337 forward @7 unknown #
coedge $-1 -1 $-1 $338 $339 $121 $209 forward $340 $-1 #
edge $-1 -1 $-1 $215 -1.5707963267948966 $341 0 $208 $331 forward @7 unknown #
coedge $-1 -1 $-1 $342 $122 $339 $343 reversed $213 $-1 #
coedge $-1 -1 $-1 $122 $342 $333 $344 reversed $213 $-1 #
coedge $-1 -1 $-1 $345 $346 $202 $123 reversed $347 $-1 #
loop $-1 -1 $-1 $-1 $122 $348 #
vertex $-1 -1 $-1 $344 $349 #
vertex $-1 -1 $-1 $350 $351 #
straight-curve $-1 -1 $-1 0 5 15.925000000000002 0 0 1 I I #
loop $-1 -1 $-1 $352 $353 $124 #
plane-surface $-1 -1 $-1 -0.18999999999999997 8.872696125553341e-017 10.075000000000003 -1.8856425198227848e-032 6.599748819379748e-032 1 1 0 1.8856425198227848e-032 forward_v I I I I #
loop $-1 -1 $-1 $-1 $130 $77 #
coedge $-1 -1 $-1 $220 $220 $128 $222 reversed $125 $-1 #
coedge $-1 -1 $-1 $221 $221 $353 $354 reversed $127 $-1 #
edge $-1 -1 $-1 $355 -3.1415926535897931 $355 3.1415926535897931 $128 $356 forward @7 unknown #
coedge $-1 -1 $-1 $223 $223 $129 $224 forward $352 $-1 #
edge $357 -1 $-1 $358 0 $358 6.2831853071795862 $129 $359 forward @7 unknown #
vertex $-1 -1 $-1 $131 $360 #
ellipse-curve $-1 -1 $-1 0 0 -15.925000000000001 0 0 -1 2.9099999999999997 0 0 1 I I #
model_id-kcp-attrib $-1 -1 $-1 $-1 $133 1 1021323974 1021323974 947781633 7 #
face $361 -1 $-1 $362 $246 $9 $-1 $363 forward single #
loop $-1 -1 $-1 $-1 $253 $133 #
plane-surface $-1 -1 $-1 151.44337999999999 22.499999999999996 31.850010000000001 0 1 0 0 0 0.99999999999999989 forward_v I I I I #
coedge $-1 -1 $-1 $364 $136 $138 $235 forward $84 $-1 #
coedge $-1 -1 $-1 $136 $364 $365 $366 reversed $84 $-1 #
edge $367 -1 $-1 $237 -2.1650596273652405 $368 0.72168888210004545 $157 $369 forward @7 unknown #
coedge $-1 -1 $-1 $138 $137 $370 $371 reversed $58 $-1 #
edge $-1 -1 $-1 $237 2.000009999999993 $372 5.0000100000000005 $138 $373 forward @7 unknown #
attrib_edge_convexity-kcp-attrib $-1 -1 $374 $-1 $140 1 #
vertex $-1 -1 $-1 $233 $375 #
straight-curve $-1 -1 $-1 147.47409162263571 19.375001519645462 29.850000000000009 -0.49999852611593126 0.86602625473013006 0 I I #
coedge $-1 -1 $-1 $146 $370 $141 $240 forward $246 $-1 #
edge $376 -1 $-1 $241 -2.88676000000001 $152 0 $141 $377 forward @7 unknown #
vertex $-1 -1 $-1 $142 $378 #
straight-curve $-1 -1 $-1 148.55661999999998 17.499999999999996 31.850010000000001 0 0 -0.99999999999999989 I I #
convexity-sys-attrib $-1 -1 $-1 $143 $90 #
point $-1 -1 $-1 148.55661999999998 17.499999999999996 29.850000000000009 #
coedge $-1 -1 $-1 $379 $146 $149 $250 forward $246 $-1 #
loop $-1 -1 $-1 $-1 $380 $228 #
attrib_edge_convexity-kcp-attrib $-1 -1 $381 $-1 $147 2 #
straight-curve $-1 -1 $-1 152.88674999999998 19.999999999999996 26.850000000000001 0.49999852611593126 0.86602625473013006 0 I I #
coedge $-1 -1 $-1 $149 $148 $382 $383 forward $134 $-1 #
edge $384 -1 $-1 $150 -2.8867485094652716 $385 0 $149 $386 forward @7 unknown #
point $-1 -1 $-1 152.88674999999998 19.999999999999996 26.850000000000001 #
point $-1 -1 $-1 151.44337999999999 17.499999999999996 26.850000000000001 #
coedge $-1 -1 $-1 $365 $382 $154 $254 reversed $229 $-1 #
edge $387 -1 $-1 $368 -2.1650700000000431 $256 0.72168999999996697 $154 $388 forward @7 unknown #
attrib_edge_convexity-kcp-attrib $-1 -1 $389 $-1 $155 1 #
vertex $-1 -1 $-1 $155 $390 #
straight-curve $-1 -1 $-1 152.52590837736429 20.624998480354492 29.850000000000009 0.49999852611593126 -0.86602625473013006 0 I I #
coedge $-1 -1 $-1 $258 $258 $391 $392 forward $156 $-1 #
model_id-kcp-attrib $-1 -1 $-1 $-1 $158 1 1021323974 1021323974 947781633 11 #
face $393 -1 $-1 $394 $395 $9 $-1 $396 forward single #
plane-surface $-1 -1 $-1 150.00000000000006 19.999999999999996 29.850000000000009 0 0 1 0.99999999999999989 0 0 forward_v I I I I #
face $-1 -1 $-1 $286 $281 $24 $-1 $397 forward single #
loop $-1 -1 $-1 $-1 $398 $162 #
plane-surface $-1 -1 $-1 1.4433799999999337 2.5 12.924999999999995 0.86602625473013017 0.49999852611593132 0 0 0 -1 forward_v I I I I #
coedge $-1 -1 $-1 $399 $400 $401 $402 forward $163 $-1 #
coedge $-1 -1 $-1 $403 $165 $400 $404 reversed $102 $-1 #
coedge $-1 -1 $-1 $165 $403 $166 $271 forward $102 $-1 #
coedge $-1 -1 $-1 $168 $401 $165 $269 reversed $175 $-1 #
edge $-1 -1 $-1 $272 -2.1650596273652281 $405 0.72168888210005699 $165 $406 forward @7 unknown #
coedge $-1 -1 $-1 $167 $166 $407 $408 reversed $66 $-1 #
edge $-1 -1 $-1 $409 0 $272 3.0000000000000071 $267 $410 forward @7 unknown #
vertex $-1 -1 $-1 $271 $411 #
straight-curve $-1 -1 $-1 -2.5259083773643738 -0.62499848035451366 15.925000000000004 -0.49999852611593132 0.86602625473013017 0 I I #
coedge $-1 -1 $-1 $407 $412 $170 $275 forward $413 $-1 #
edge $414 -1 $-1 $282 -2.1650700000000143 $277 0.72168999999999528 $170 $415 forward @7 unknown #
convexity-sys-attrib $-1 -1 $-1 $-1 $171 #
vertex $-1 -1 $-1 $275 $416 #
straight-curve $-1 -1 $-1 -1.4433800000000758 -2.5 12.924999999999995 0 0 1 I I #
coedge $-1 -1 $-1 $417 $172 $412 $418 reversed $281 $-1 #
coedge $-1 -1 $-1 $172 $417 $174 $285 forward $281 $-1 #
loop $-1 -1 $-1 $-1 $280 $262 #
vertex $-1 -1 $-1 $418 $419 #
straight-curve $-1 -1 $-1 1.4433799999999337 -2.5 12.924999999999995 0 0 1 I I #
coedge $-1 -1 $-1 $401 $174 $398 $420 reversed $175 $-1 #
edge $-1 -1 $-1 $421 -2.1650596273652178 $176 0.72168888210005311 $280 $422 forward @7 unknown #
face $-1 -1 $-1 $423 $175 $24 $-1 $424 forward single #
point $-1 -1 $-1 1.4433799999999337 -2.5 15.925000000000002 #
point $-1 -1 $-1 -1.4433800000000758 -2.5 15.925000000000002 #
face $-1 -1 $-1 $-1 $194 $25 $-1 $425 reversed single #
loop $-1 -1 $-1 $-1 $305 $179 #
plane-surface $-1 -1 $-1 0 5 0 0 -1 0 0 0 -1 forward_v I I I I #
coedge $-1 -1 $-1 $426 $303 $306 $427 forward $180 $-1 #
coedge $-1 -1 $-1 $309 $182 $183 $297 reversed $110 $-1 #
coedge $-1 -1 $-1 $303 $426 $182 $295 reversed $180 $-1 #
edge $-1 -1 $-1 $310 -15.925000000000002 $428 15.925000000000002 $294 $429 forward @7 unknown #
coedge $-1 -1 $-1 $184 $183 $426 $430 forward $71 $-1 #
edge $-1 -1 $-1 $301 -5 $428 5 $293 $431 forward @7 unknown #
coedge $-1 -1 $-1 $306 $305 $184 $299 reversed $290 $-1 #
edge $-1 -1 $-1 $432 -5 $300 5 $298 $433 forward @7 unknown #
vertex $-1 -1 $-1 $186 $434 #
vertex $-1 -1 $-1 $312 $435 #
straight-curve $-1 -1 $-1 5 0 -15.925000000000002 0 -1 0 I I #
coedge $-1 -1 $-1 $292 $294 $187 $304 reversed $180 $-1 #
edge $-1 -1 $-1 $307 -5 $310 5 $303 $436 forward @7 unknown #
coedge $-1 -1 $-1 $298 $188 $193 $313 forward $290 $-1 #
coedge $-1 -1 $-1 $188 $298 $292 $427 reversed $290 $-1 #
vertex $-1 -1 $-1 $189 $437 #
straight-curve $-1 -1 $-1 0 5 15.925000000000002 -1 0 0 I I #
coedge $-1 -1 $-1 $190 $293 $192 $312 reversed $110 $-1 #
vertex $-1 -1 $-1 $304 $438 #
straight-curve $-1 -1 $-1 0 -5 15.925000000000002 1 0 0 I I #
edge $-1 -1 $-1 $195 -15.925000000000002 $301 15.925000000000002 $192 $439 forward @7 unknown #
edge $-1 -1 $-1 $196 -15.925000000000002 $300 15.925000000000002 $193 $440 forward @7 unknown #
point $-1 -1 $-1 5 -5 15.925000000000002 #
point $-1 -1 $-1 5 5 15.925000000000002 #
face $-1 -1 $-1 $441 $347 $27 $-1 $442 reversed single #
loop $-1 -1 $-1 $-1 $443 $198 #
plane-surface $-1 -1 $-1 5 0 0 -1 0 0 0 0 1 forward_v I I I I #
coedge $-1 -1 $-1 $444 $445 $446 $447 reversed $199 $-1 #
coedge $-1 -1 $-1 $448 $200 $445 $449 forward $118 $-1 #
coedge $-1 -1 $-1 $200 $448 $450 $332 reversed $118 $-1 #
coedge $-1 -1 $-1 $451 $452 $200 $323 forward $453 $-1 #
edge $-1 -1 $-1 $454 -1.5707963267948966 $336 0 $322 $337 forward @7 unknown #
coedge $-1 -1 $-1 $202 $201 $455 $456 reversed $75 $-1 #
coedge $-1 -1 $-1 $457 $458 $459 $326 forward $460 $-1 #
edge $-1 -1 $-1 $461 -31.850000000000005 $330 0 $325 $462 forward @7 unknown #
coedge $-1 -1 $-1 $328 $203 $346 $350 forward $329 $-1 #
coedge $-1 -1 $-1 $203 $327 $457 $463 forward $329 $-1 #
loop $-1 -1 $-1 $-1 $203 $464 #
vertex $-1 -1 $-1 $465 $466 #
ellipse-curve $-1 -1 $-1 0 0 15.925000000000002 0 0 -1 4.9999999999999991 0 0 1 I I #
edge $-1 -1 $-1 $336 -31.850000000000005 $341 0 $450 $467 forward @7 unknown #
coedge $-1 -1 $-1 $334 $206 $211 $344 forward $335 $-1 #
coedge $-1 -1 $-1 $206 $333 $468 $469 forward $335 $-1 #
loop $-1 -1 $-1 $-1 $206 $470 #
vertex $-1 -1 $-1 $471 $472 #
ellipse-curve $-1 -1 $-1 0 0 -15.925000000000002 0 0 1 4.9999999999999991 0 0 1 I I #
coedge $-1 -1 $-1 $339 $208 $473 $474 forward $340 $-1 #
coedge $-1 -1 $-1 $208 $338 $210 $343 forward $340 $-1 #
loop $-1 -1 $-1 $-1 $208 $475 #
vertex $-1 -1 $-1 $474 $476 #
coedge $-1 -1 $-1 $211 $210 $477 $478 forward $213 $-1 #
edge $-1 -1 $-1 $479 -5 $215 0 $210 $480 forward @7 unknown #
edge $-1 -1 $-1 $214 0 $481 5 $211 $482 forward @7 unknown #
coedge $-1 -1 $-1 $483 $212 $484 $485 reversed $347 $-1 #
coedge $-1 -1 $-1 $212 $483 $327 $350 reversed $347 $-1 #
loop $-1 -1 $-1 $-1 $212 $316 #
face $-1 -1 $-1 $486 $213 $27 $-1 $442 reversed single #
point $-1 -1 $-1 0 5 -15.925000000000002 #
edge $-1 -1 $-1 $215 0 $487 5 $346 $480 forward @7 unknown #
point $-1 -1 $-1 0 5 15.925000000000002 #
loop $-1 -1 $-1 $-1 $223 $124 #
coedge $-1 -1 $-1 $353 $353 $221 $354 forward $217 $-1 #
edge $488 -1 $-1 $489 -3.1415926535897931 $489 3.1415926535897931 $221 $490 forward @7 unknown #
vertex $-1 -1 $-1 $222 $491 #
ellipse-curve $-1 -1 $-1 0 0 -15.925000000000001 0 0 1 4.9999999999999991 0 0 1 I I #
convexity-sys-attrib $-1 -1 $-1 $-1 $224 #
vertex $-1 -1 $-1 $224 $492 #
ellipse-curve $-1 -1 $-1 0 0 10.075000000000003 0 0 -1 2.9099999999999997 0 0 1 I I #
point $-1 -1 $-1 2.9099999999999966 0 -15.925000000000006 #
model_id-kcp-attrib $-1 -1 $-1 $-1 $228 1 1021323974 1021323974 947781633 8 #
face $493 -1 $-1 $494 $495 $9 $-1 $496 forward single #
plane-surface $-1 -1 $-1 148.55661999999998 22.499999999999996 26.850000000000001 0 0 1 0.99999999999999989 0 0 forward_v I I I I #
coedge $-1 -1 $-1 $232 $231 $380 $497 reversed $84 $-1 #
coedge $-1 -1 $-1 $498 $253 $232 $366 forward $229 $-1 #
edge $-1 -1 $-1 $368 2.000009999999993 $499 5.0000100000000005 $232 $500 forward @7 unknown #
attrib_edge_convexity-kcp-attrib $-1 -1 $501 $-1 $233 1 #
vertex $-1 -1 $-1 $233 $502 #
straight-curve $-1 -1 $-1 148.19577662263569 21.874998480354527 29.850000000000009 0.49999852611593126 0.86602625473013006 0 I I #
coedge $-1 -1 $-1 $239 $380 $234 $371 forward $246 $-1 #
edge $503 -1 $-1 $372 -2.8867485094652858 $241 0 $234 $504 forward @7 unknown #
vertex $-1 -1 $-1 $235 $505 #
straight-curve $-1 -1 $-1 147.11324999999997 19.999999999999996 31.850010000000001 0 0 -0.99999999999999989 I I #
convexity-sys-attrib $-1 -1 $-1 $236 $140 #
point $-1 -1 $-1 147.11324999999997 19.999999999999996 29.850000000000009 #
attrib_edge_convexity-kcp-attrib $-1 -1 $506 $-1 $240 2 #
straight-curve $-1 -1 $-1 151.44337999999999 17.499999999999996 26.850000000000001 0.99999999999999989 0 0 I I #
point $-1 -1 $-1 148.55661999999998 17.499999999999996 26.850000000000001 #
coedge $-1 -1 $-1 $380 $245 $498 $507 forward $246 $-1 #
coedge $-1 -1 $-1 $370 $379 $364 $497 forward $246 $-1 #
convexity-sys-attrib $-1 -1 $-1 $247 $147 #
coedge $-1 -1 $-1 $253 $498 $249 $383 reversed $229 $-1 #
edge $-1 -1 $-1 $256 2.000009999999993 $385 5.0000100000000005 $382 $508 forward @7 unknown #
attrib_edge_convexity-kcp-attrib $-1 -1 $509 $-1 $250 2 #
vertex $-1 -1 $-1 $383 $510 #
straight-curve $-1 -1 $-1 151.44337999999999 22.499999999999996 26.850000000000001 -0.49999852611593126 0.86602625473013006 0 I I #
attrib_edge_convexity-kcp-attrib $-1 -1 $511 $-1 $254 1 #
straight-curve $-1 -1 $-1 150.72169000000002 22.499999999999996 29.850000000000009 0.99999999999999989 0 0 I I #
convexity-sys-attrib $-1 -1 $-1 $255 $155 #
point $-1 -1 $-1 151.44337999999999 22.499999999999996 29.850000000000009 #
coedge $-1 -1 $-1 $391 $391 $258 $392 reversed $512 $-1 #
edge $513 -1 $-1 $514 0 $514 6.2831853071795862 $258 $515 forward @7 unknown #
model_id-kcp-attrib $-1 -1 $-1 $-1 $260 1 1021323974 1021323974 947781633 12 #
face $516 -1 $-1 $-1 $517 $9 $-1 $518 forward single #
loop $-1 -1 $-1 $519 $520 $260 #
cone-surface $-1 -1 $-1 150.00000000000006 19.999999999999996 11.000000000000002 0 0 1 2.9099999999999997 0 0 1 I I 0 1 2.9099999999999997 forward I I I I #
plane-surface $-1 -1 $-1 2.8867499999999211 0 12.924999999999995 0.86602625473013017 -0.49999852611593132 0 0 0 -1 forward_v I I I I #
coedge $-1 -1 $-1 $521 $522 $284 $420 forward $263 $-1 #
coedge $-1 -1 $-1 $523 $265 $522 $524 reversed $163 $-1 #
coedge $-1 -1 $-1 $265 $523 $266 $404 forward $163 $-1 #
coedge $-1 -1 $-1 $268 $284 $265 $402 reversed $175 $-1 #
edge $-1 -1 $-1 $405 -2.1650700000000001 $525 0.72169000000000949 $265 $526 forward @7 unknown #
coedge $-1 -1 $-1 $267 $266 $527 $528 reversed $102 $-1 #
edge $-1 -1 $-1 $529 0 $405 3.0000000000000071 $400 $530 forward @7 unknown #
vertex $-1 -1 $-1 $404 $531 #
straight-curve $-1 -1 $-1 -1.8042233773643583 1.874998480354513 15.925000000000004 0.49999852611593132 0.86602625473013017 0 I I #
coedge $-1 -1 $-1 $527 $274 $270 $408 forward $413 $-1 #
edge $532 -1 $-1 $277 -2.1650631368327029 $409 0.72168537263258226 $270 $533 forward @7 unknown #
vertex $-1 -1 $-1 $408 $534 #
straight-curve $-1 -1 $-1 -2.8867500000000916 0 12.924999999999995 0 0 1 I I #
point $-1 -1 $-1 -2.8867500000000916 0 15.925000000000002 #
coedge $-1 -1 $-1 $274 $535 $279 $418 forward $413 $-1 #
loop $-1 -1 $-1 $-1 $412 $423 #
convexity-sys-attrib $-1 -1 $-1 $-1 $275 #
straight-curve $-1 -1 $-1 -0.72169000000008054 -2.5 12.924999999999997 -1 0 0 I I #
point $-1 -1 $-1 -1.4433800000000758 -2.5 12.924999999999995 #
coedge $-1 -1 $-1 $280 $279 $521 $536 forward $281 $-1 #
edge $537 -1 $-1 $538 -2.1650596273652178 $282 0.72168888210005311 $279 $539 forward @7 unknown #
point $-1 -1 $-1 1.4433799999999337 -2.5 12.924999999999995 #
edge $-1 -1 $-1 $525 -2.1650631368326856 $421 0.72168537263258548 $398 $540 forward @7 unknown #
vertex $-1 -1 $-1 $536 $541 #
straight-curve $-1 -1 $-1 1.8042233773642142 -1.8749984803545163 15.925000000000004 -0.49999852611593132 -0.86602625473013017 0 I I #
face $-1 -1 $-1 $-1 $413 $24 $-1 $542 reversed single #
plane-surface $-1 -1 $-1 -7.916397951358279e-014 -1.9984014443252818e-015 15.925000000000001 5.3661362540549991e-031 -3.9301333721190516e-031 1 1 0 -5.3661362540549991e-031 forward_v I I I I #
plane-surface $-1 -1 $-1 5 0 0 -1 0 0 0 0 1 forward_v I I I I #
coedge $-1 -1 $-1 $294 $292 $296 $430 reversed $180 $-1 #
edge $-1 -1 $-1 $307 -15.925000000000002 $432 15.925000000000002 $306 $543 forward @7 unknown #
vertex $-1 -1 $-1 $430 $544 #
straight-curve $-1 -1 $-1 -5 -5 0 0 0 -1 I I #
edge $-1 -1 $-1 $428 -5 $432 5 $426 $545 forward @7 unknown #
straight-curve $-1 -1 $-1 0 -5 -15.925000000000002 -1 0 0 I I #
vertex $-1 -1 $-1 $299 $546 #
straight-curve $-1 -1 $-1 0 5 -15.925000000000002 1 0 0 I I #
point $-1 -1 $-1 5 5 -15.925000000000002 #
point $-1 -1 $-1 5 -5 -15.925000000000002 #
straight-curve $-1 -1 $-1 -5 0 15.925000000000002 0 -1 0 I I #
point $-1 -1 $-1 -5 5 15.925000000000002 #
point $-1 -1 $-1 -5 -5 15.925000000000002 #
straight-curve $-1 -1 $-1 5 -5 0 0 0 -1 I I #
straight-curve $-1 -1 $-1 5 5 0 0 0 -1 I I #
face $-1 -1 $-1 $547 $548 $27 $-1 $549 reversed single #
plane-surface $-1 -1 $-1 0 5 0 0 -1 0 0 0 -1 forward_v I I I I #
coedge $-1 -1 $-1 $468 $473 $205 $332 reversed $317 $-1 #
coedge $-1 -1 $-1 $550 $319 $201 $326 forward $199 $-1 #
coedge $-1 -1 $-1 $319 $550 $551 $449 reversed $199 $-1 #
coedge $-1 -1 $-1 $552 $553 $319 $447 forward $554 $-1 #
edge $-1 -1 $-1 $461 -3.1415926535897931 $454 -1.5707963267948966 $446 $337 forward @7 unknown #
coedge $-1 -1 $-1 $321 $320 $555 $556 reversed $118 $-1 #
edge $-1 -1 $-1 $454 -31.850000000000005 $557 0 $551 $558 forward @7 unknown #
coedge $-1 -1 $-1 $559 $560 $443 $332 forward $561 $-1 #
coedge $-1 -1 $-1 $452 $322 $560 $471 forward $453 $-1 #
coedge $-1 -1 $-1 $322 $451 $562 $563 forward $453 $-1 #
loop $-1 -1 $-1 $-1 $322 $564 #
vertex $-1 -1 $-1 $565 $566 #
coedge $-1 -1 $-1 $567 $484 $324 $456 forward $568 $-1 #
edge $-1 -1 $-1 $214 1.5707963267948966 $461 3.1415926535897931 $455 $337 forward @7 unknown #
coedge $-1 -1 $-1 $569 $325 $328 $463 reversed $460 $-1 #
coedge $-1 -1 $-1 $325 $569 $567 $570 reversed $460 $-1 #
coedge $-1 -1 $-1 $571 $572 $444 $326 reversed $548 $-1 #
loop $-1 -1 $-1 $-1 $325 $573 #
vertex $-1 -1 $-1 $570 $574 #
straight-curve $-1 -1 $-1 -5 0 15.925000000000002 0 0 1 I I #
edge $-1 -1 $-1 $487 -5 $330 0 $457 $575 forward @7 unknown #
face $-1 -1 $-1 $475 $329 $27 $-1 $576 forward single #
edge $-1 -1 $-1 $330 0 $577 5 $572 $575 forward @7 unknown #
point $-1 -1 $-1 -5 0 15.925000000000002 #
straight-curve $-1 -1 $-1 5 0 15.925000000000002 0 0 1 I I #
coedge $-1 -1 $-1 $477 $443 $334 $469 reversed $317 $-1 #
edge $-1 -1 $-1 $481 -5 $336 0 $468 $578 forward @7 unknown #
face $-1 -1 $-1 $579 $335 $27 $-1 $580 reversed single #
edge $-1 -1 $-1 $336 0 $581 5 $560 $578 forward @7 unknown #
point $-1 -1 $-1 5 0 -15.925000000000002 #
coedge $-1 -1 $-1 $443 $477 $338 $474 reversed $317 $-1 #
edge $-1 -1 $-1 $341 0 $479 5 $473 $582 forward @7 unknown #
face $-1 -1 $-1 $583 $340 $27 $-1 $576 forward single #
point $-1 -1 $-1 5 0 15.925000000000002 #
coedge $-1 -1 $-1 $473 $468 $342 $478 reversed $317 $-1 #
edge $-1 -1 $-1 $479 -15.925000000000002 $481 15.925000000000002 $477 $584 forward @7 unknown #
vertex $-1 -1 $-1 $474 $585 #
straight-curve $-1 -1 $-1 0 5 15.925000000000002 -1 0 0 I I #
vertex $-1 -1 $-1 $469 $586 #
straight-curve $-1 -1 $-1 0 5 -15.925000000000002 1 0 0 I I #
coedge $-1 -1 $-1 $346 $345 $569 $587 reversed $347 $-1 #
coedge $-1 -1 $-1 $455 $567 $345 $485 forward $568 $-1 #
edge $-1 -1 $-1 $588 -5 $214 0 $345 $482 forward @7 unknown #
face $-1 -1 $-1 $-1 $561 $27 $-1 $318 reversed single #
vertex $-1 -1 $-1 $350 $589 #
convexity-sys-attrib $-1 -1 $-1 $-1 $354 #
vertex $-1 -1 $-1 $354 $590 #
ellipse-curve $-1 -1 $-1 0 0 10.075000000000003 0 0 1 4.9999999999999991 0 0 1 I I #
point $-1 -1 $-1 -4.9999999999999991 -6.1230317691118853e-016 -15.925000000000001 #
point $-1 -1 $-1 2.9099999999999966 0 10.074999999999998 #
model_id-kcp-attrib $-1 -1 $-1 $-1 $362 1 1021323974 1021323974 947781633 9 #
face $591 -1 $-1 $158 $592 $9 $-1 $593 forward single #
loop $-1 -1 $-1 $594 $595 $362 #
plane-surface $-1 -1 $-1 150.00000000000006 19.999999999999996 24.000000000000007 0 0 -1 -0.99999999999999989 0 0 forward_v I I I I #
edge $596 -1 $-1 $499 -2.8867485094652858 $372 0 $364 $597 forward @7 unknown #
coedge $-1 -1 $-1 $382 $365 $379 $507 reversed $229 $-1 #
vertex $-1 -1 $-1 $366 $598 #
straight-curve $-1 -1 $-1 148.55661999999998 22.499999999999996 31.850010000000001 0 0 -0.99999999999999989 I I #
convexity-sys-attrib $-1 -1 $-1 $367 $233 #
point $-1 -1 $-1 148.55661999999998 22.499999999999996 29.850000000000009 #
attrib_edge_convexity-kcp-attrib $-1 -1 $599 $-1 $371 2 #
straight-curve $-1 -1 $-1 148.55661999999998 17.499999999999996 26.850000000000001 0.49999852611593126 -0.86602625473013006 0 I I #
point $-1 -1 $-1 147.11324999999997 19.999999999999996 26.850000000000001 #
convexity-sys-attrib $-1 -1 $-1 $376 $240 #
edge $600 -1 $-1 $385 -2.88676000000001 $499 0 $498 $601 forward @7 unknown #
straight-curve $-1 -1 $-1 151.44337999999999 22.499999999999996 31.850010000000001 0 0 -0.99999999999999989 I I #
convexity-sys-attrib $-1 -1 $-1 $384 $250 #
point $-1 -1 $-1 151.44337999999999 22.499999999999996 26.850000000000001 #
convexity-sys-attrib $-1 -1 $-1 $387 $254 #
loop $-1 -1 $-1 $-1 $391 $494 #
attrib_edge_convexity-kcp-attrib $-1 -1 $602 $-1 $392 1 #
vertex $-1 -1 $-1 $392 $603 #
ellipse-curve $-1 -1 $-1 150.00000000000006 19.999999999999996 29.850000000000009 0 0 1 4.9999999999999991 0 0 1 I I #
model_id-kcp-attrib $-1 -1 $-1 $-1 $394 1 1021323974 1021323974 947781633 13 #
loop $-1 -1 $-1 $-1 $604 $394 #
plane-surface $-1 -1 $-1 150.00000000000006 19.999999999999996 -1.999999999999998 0 0 -1 -0.99999999999999989 0 0 forward_v I I I I #
loop $-1 -1 $-1 $-1 $605 $260 #
coedge $-1 -1 $-1 $520 $520 $604 $606 reversed $395 $-1 #
coedge $-1 -1 $-1 $607 $398 $417 $536 reversed $263 $-1 #
coedge $-1 -1 $-1 $398 $607 $399 $524 forward $263 $-1 #
coedge $-1 -1 $-1 $400 $399 $608 $609 reversed $163 $-1 #
edge $-1 -1 $-1 $610 0 $525 3.0000000000000071 $522 $611 forward @7 unknown #
vertex $-1 -1 $-1 $524 $612 #
straight-curve $-1 -1 $-1 0.72168999999992423 2.5 15.925000000000004 1 0 0 I I #
coedge $-1 -1 $-1 $608 $407 $403 $528 forward $413 $-1 #
edge $613 -1 $-1 $409 -2.1650596273652281 $529 0.72168888210005699 $403 $614 forward @7 unknown #
vertex $-1 -1 $-1 $528 $615 #
straight-curve $-1 -1 $-1 -1.4433800000000758 2.5 12.924999999999995 0 0 1 I I #
point $-1 -1 $-1 -1.4433800000000758 2.5 15.925000000000002 #
convexity-sys-attrib $-1 -1 $-1 $-1 $408 #
straight-curve $-1 -1 $-1 -2.5259083773643738 -0.62499848035451366 12.924999999999997 -0.49999852611593132 0.86602625473013017 0 I I #
point $-1 -1 $-1 -2.8867500000000916 0 12.924999999999995 #
coedge $-1 -1 $-1 $412 $608 $607 $616 forward $413 $-1 #
edge $-1 -1 $-1 $538 0 $421 3.0000000000000071 $417 $617 forward @7 unknown #
convexity-sys-attrib $-1 -1 $-1 $-1 $418 #
vertex $-1 -1 $-1 $418 $618 #
straight-curve $-1 -1 $-1 1.8042233773642142 -1.8749984803545163 12.924999999999997 -0.49999852611593132 -0.86602625473013017 0 I I #
straight-curve $-1 -1 $-1 2.5259083773642015 0.62499848035451633 15.925000000000004 0.49999852611593132 -0.86602625473013017 0 I I #
point $-1 -1 $-1 2.8867499999999211 0 15.925000000000002 #
plane-surface $-1 -1 $-1 -7.916397951358279e-014 -1.9984014443252818e-015 12.924999999999994 5.3661362540549991e-031 -3.9301333721190516e-031 1 1 0 -5.3661362540549991e-031 forward_v I I I I #
straight-curve $-1 -1 $-1 -5 5 0 0 0 -1 I I #
point $-1 -1 $-1 -5 -5 -15.925000000000002 #
straight-curve $-1 -1 $-1 -5 0 -15.925000000000002 0 1 0 I I #
point $-1 -1 $-1 -5 5 -15.925000000000002 #
face $-1 -1 $-1 $464 $619 $27 $-1 $576 forward single #
loop $-1 -1 $-1 $-1 $459 $441 #
plane-surface $-1 -1 $-1 -5 0 0 1 0 0 0 0 -1 forward_v I I I I #
coedge $-1 -1 $-1 $445 $444 $620 $621 reversed $199 $-1 #
coedge $-1 -1 $-1 $622 $623 $624 $449 forward $625 $-1 #
coedge $-1 -1 $-1 $553 $446 $623 $565 forward $554 $-1 #
coedge $-1 -1 $-1 $446 $552 $571 $626 forward $554 $-1 #
loop $-1 -1 $-1 $-1 $446 $627 #
coedge $-1 -1 $-1 $628 $629 $448 $556 forward $630 $-1 #
edge $-1 -1 $-1 $341 0 $557 1.5707963267948966 $555 $331 forward @7 unknown #
vertex $-1 -1 $-1 $631 $632 #
straight-curve $-1 -1 $-1 0 -5 15.925000000000002 0 0 1 I I #
coedge $-1 -1 $-1 $633 $450 $629 $634 reversed $561 $-1 #
coedge $-1 -1 $-1 $450 $633 $451 $471 reversed $561 $-1 #
loop $-1 -1 $-1 $-1 $450 $486 #
coedge $-1 -1 $-1 $635 $624 $452 $563 reversed $636 $-1 #
edge $-1 -1 $-1 $581 -5 $454 0 $562 $637 forward @7 unknown #
face $-1 -1 $-1 $470 $453 $27 $-1 $580 reversed single #
edge $-1 -1 $-1 $454 0 $638 5 $623 $637 forward @7 unknown #
point $-1 -1 $-1 0 -5 -15.925000000000002 #
coedge $-1 -1 $-1 $484 $455 $458 $570 forward $568 $-1 #
loop $-1 -1 $-1 $-1 $455 $579 #
coedge $-1 -1 $-1 $458 $457 $483 $587 forward $460 $-1 #
edge $-1 -1 $-1 $461 0 $588 5 $458 $639 forward @7 unknown #
coedge $-1 -1 $-1 $640 $459 $553 $626 reversed $548 $-1 #
coedge $-1 -1 $-1 $459 $640 $641 $465 reversed $548 $-1 #
face $-1 -1 $-1 $348 $460 $27 $-1 $549 reversed single #
point $-1 -1 $-1 -5 0 -15.925000000000002 #
straight-curve $-1 -1 $-1 -5 0 15.925000000000002 0 -1 0 I I #
plane-surface $-1 -1 $-1 0 0 15.925000000000002 0 0 1 1 0 0 forward_v I I I I #
vertex $-1 -1 $-1 $465 $642 #
straight-curve $-1 -1 $-1 5 0 -15.925000000000002 0 -1 0 I I #
face $-1 -1 $-1 $643 $568 $27 $-1 $580 reversed single #
plane-surface $-1 -1 $-1 0 0 -15.925000000000002 0 0 1 1 0 0 forward_v I I I I #
vertex $-1 -1 $-1 $644 $645 #
straight-curve $-1 -1 $-1 5 0 15.925000000000002 0 1 0 I I #
face $-1 -1 $-1 $646 $630 $27 $-1 $576 forward single #
straight-curve $-1 -1 $-1 5 5 0 0 0 -1 I I #
point $-1 -1 $-1 5 5 15.925000000000002 #
point $-1 -1 $-1 5 5 -15.925000000000002 #
edge $-1 -1 $-1 $487 -15.925000000000002 $588 15.925000000000002 $483 $647 forward @7 unknown #
vertex $-1 -1 $-1 $485 $648 #
point $-1 -1 $-1 -5 5 15.925000000000002 #
point $-1 -1 $-1 -4.9999999999999991 -6.1230317691118853e-016 10.075000000000003 #
model_id-kcp-attrib $-1 -1 $-1 $-1 $494 1 1021323974 1021323974 947781633 10 #
loop $-1 -1 $-1 $512 $649 $494 #
cone-surface $-1 -1 $-1 150.00000000000006 19.999999999999996 26.925000000000008 0 0 1 4.9999999999999991 0 0 1 I I 0 1 4.9999999999999991 forward I I I I #
loop $-1 -1 $-1 $-1 $650 $362 #
coedge $-1 -1 $-1 $595 $595 $649 $651 forward $495 $-1 #
attrib_edge_convexity-kcp-attrib $-1 -1 $652 $-1 $497 2 #
straight-curve $-1 -1 $-1 147.11324999999997 19.999999999999996 26.850000000000001 -0.49999852611593126 -0.86602625473013006 0 I I #
point $-1 -1 $-1 148.55661999999998 22.499999999999996 26.850000000000001 #
convexity-sys-attrib $-1 -1 $-1 $503 $371 #
attrib_edge_convexity-kcp-attrib $-1 -1 $653 $-1 $507 2 #
straight-curve $-1 -1 $-1 148.55661999999998 22.499999999999996 26.850000000000001 -0.99999999999999989 0 0 I I #
convexity-sys-attrib $-1 -1 $-1 $513 $392 #
point $-1 -1 $-1 155.00000000000006 19.999999999999996 29.850000000000009 #
coedge $-1 -1 $-1 $604 $604 $520 $606 forward $517 $-1 #
coedge $-1 -1 $-1 $605 $605 $650 $654 forward $519 $-1 #
edge $-1 -1 $-1 $655 0 $655 6.2831853071795862 $604 $656 forward @7 unknown #
coedge $-1 -1 $-1 $522 $521 $535 $616 reversed $263 $-1 #
coedge $-1 -1 $-1 $535 $527 $523 $609 forward $413 $-1 #
edge $657 -1 $-1 $529 -2.1650700000000001 $610 0.72169000000000949 $523 $658 forward @7 unknown #
vertex $-1 -1 $-1 $609 $659 #
straight-curve $-1 -1 $-1 1.4433799999999337 2.5 12.924999999999995 0 0 1 I I #
point $-1 -1 $-1 1.4433799999999337 2.5 15.925000000000002 #
convexity-sys-attrib $-1 -1 $-1 $-1 $528 #
straight-curve $-1 -1 $-1 -1.8042233773643583 1.874998480354513 12.924999999999997 0.49999852611593132 0.86602625473013017 0 I I #
point $-1 -1 $-1 -1.4433800000000758 2.5 12.924999999999995 #
edge $660 -1 $-1 $610 -2.1650631368326856 $538 0.72168537263258548 $607 $661 forward @7 unknown #
straight-curve $-1 -1 $-1 2.8867499999999211 0 12.924999999999995 0 0 1 I I #
point $-1 -1 $-1 2.8867499999999211 0 12.924999999999995 #
loop $-1 -1 $-1 $-1 $620 $547 #
coedge $-1 -1 $-1 $641 $662 $550 $621 forward $619 $-1 #
edge $-1 -1 $-1 $557 1.5707963267948966 $330 3.1415926535897931 $620 $331 forward @7 unknown #
coedge $-1 -1 $-1 $663 $551 $662 $664 reversed $625 $-1 #
coedge $-1 -1 $-1 $551 $663 $552 $565 reversed $625 $-1 #
coedge $-1 -1 $-1 $562 $665 $320 $449 reversed $636 $-1 #
loop $-1 -1 $-1 $-1 $551 $643 #
edge $-1 -1 $-1 $638 -5 $461 0 $571 $639 forward @7 unknown #
face $-1 -1 $-1 $564 $554 $27 $-1 $580 reversed single #
coedge $-1 -1 $-1 $629 $555 $665 $631 forward $630 $-1 #
coedge $-1 -1 $-1 $555 $628 $559 $634 forward $630 $-1 #
loop $-1 -1 $-1 $-1 $555 $583 #
edge $-1 -1 $-1 $557 0 $666 5 $665 $667 forward @7 unknown #
point $-1 -1 $-1 0 -5 15.925000000000002 #
coedge $-1 -1 $-1 $560 $559 $635 $644 forward $561 $-1 #
edge $-1 -1 $-1 $666 -5 $341 0 $559 $582 forward @7 unknown #
coedge $-1 -1 $-1 $665 $562 $633 $644 reversed $636 $-1 #
loop $-1 -1 $-1 $-1 $624 $646 #
straight-curve $-1 -1 $-1 0 -5 -15.925000000000002 -1 0 0 I I #
vertex $-1 -1 $-1 $626 $668 #
straight-curve $-1 -1 $-1 -5 0 -15.925000000000002 0 1 0 I I #
coedge $-1 -1 $-1 $572 $571 $663 $669 reversed $548 $-1 #
coedge $-1 -1 $-1 $662 $620 $572 $465 forward $619 $-1 #
point $-1 -1 $-1 -5 -5 15.925000000000002 #
face $-1 -1 $-1 $573 $625 $27 $-1 $670 reversed single #
edge $-1 -1 $-1 $666 -15.925000000000002 $581 15.925000000000002 $633 $671 forward @7 unknown #
point $-1 -1 $-1 5 -5 -15.925000000000002 #
face $-1 -1 $-1 $627 $636 $27 $-1 $670 reversed single #
straight-curve $-1 -1 $-1 -5 5 0 0 0 -1 I I #
point $-1 -1 $-1 -5 5 -15.925000000000002 #
coedge $-1 -1 $-1 $649 $649 $595 $651 reversed $592 $-1 #
coedge $-1 -1 $-1 $650 $650 $605 $654 reversed $594 $-1 #
edge $672 -1 $-1 $673 0 $673 6.2831853071795862 $595 $674 forward @7 unknown #
convexity-sys-attrib $-1 -1 $-1 $596 $497 #
convexity-sys-attrib $-1 -1 $-1 $600 $507 #
edge $675 -1 $-1 $676 -6.2831853071795862 $676 0 $605 $677 reversed @7 unknown #
vertex $-1 -1 $-1 $606 $678 #
ellipse-curve $-1 -1 $-1 150.00000000000006 19.999999999999996 -1.999999999999998 0 0 -1 2.9099999999999997 0 0 1 I I #
convexity-sys-attrib $-1 -1 $-1 $-1 $609 #
straight-curve $-1 -1 $-1 0.72168999999992423 2.5 12.924999999999997 1 0 0 I I #
point $-1 -1 $-1 1.4433799999999337 2.5 12.924999999999995 #
convexity-sys-attrib $-1 -1 $-1 $-1 $616 #
straight-curve $-1 -1 $-1 2.5259083773642015 0.62499848035451633 12.924999999999997 0.49999852611593132 -0.86602625473013017 0 I I #
coedge $-1 -1 $-1 $620 $641 $622 $664 forward $619 $-1 #
coedge $-1 -1 $-1 $623 $622 $640 $669 forward $625 $-1 #
edge $-1 -1 $-1 $577 -5 $557 0 $622 $667 forward @7 unknown #
coedge $-1 -1 $-1 $624 $635 $628 $631 reversed $636 $-1 #
vertex $-1 -1 $-1 $634 $679 #
straight-curve $-1 -1 $-1 0 -5 15.925000000000002 1 0 0 I I #
point $-1 -1 $-1 -5 -5 -15.925000000000002 #
edge $-1 -1 $-1 $577 -15.925000000000002 $638 15.925000000000002 $640 $680 forward @7 unknown #
plane-surface $-1 -1 $-1 0 -5 0 0 1 0 0 0 1 forward_v I I I I #
straight-curve $-1 -1 $-1 5 -5 0 0 0 -1 I I #
attrib_edge_convexity-kcp-attrib $-1 -1 $681 $-1 $651 1 #
vertex $-1 -1 $-1 $651 $682 #
ellipse-curve $-1 -1 $-1 150.00000000000006 19.999999999999996 24.000000000000007 0 0 -1 4.9999999999999991 0 0 1 I I #
attrib_edge_convexity-kcp-attrib $-1 -1 $683 $-1 $654 2 #
vertex $-1 -1 $-1 $654 $684 #
ellipse-curve $-1 -1 $-1 150.00000000000006 19.999999999999996 24.000000000000004 0 0 1 2.9099999999999997 0 0 1 I I #
point $-1 -1 $-1 152.91000000000005 19.999999999999996 -1.999999999999998 #
point $-1 -1 $-1 5 -5 15.925000000000002 #
straight-curve $-1 -1 $-1 -5 -5 0 0 0 -1 I I #
convexity-sys-attrib $-1 -1 $-1 $672 $651 #
point $-1 -1 $-1 155.00000000000006 19.999999999999996 24.000000000000007 #
convexity-sys-attrib $-1 -1 $-1 $675 $654 #
point $-1 -1 $-1 152.91000000000005 19.999999999999996 24.000000000000004 #
End-of-ACIS-data 