105 397 1 0                             
body $-1 $1 $-1 $-1 #
lump $-1 $-1 $2 $0 #
shell $-1 $-1 $-1 $3 $1 #
face $-1 $4 $5 $2 $-1 $6 reversed single #
face $-1 $7 $8 $2 $-1 $9 reversed single #
loop $-1 $-1 $10 $3 #
cone-surface $-1 4 -22 5 -0 -0 -1 -2.12132034355964 -2.12132034355964 0 1 0 1 0 #
face $-1 $11 $12 $2 $-1 $13 reversed single #
loop $-1 $-1 $14 $4 #
plane-surface $-1 1 0 5 -1 0 0 0 0 1 0 #
coedge $-1 $15 $16 $17 $18 1 $5 $-1 #
face $-1 $19 $20 $2 $-1 $21 forward single #
loop $-1 $-1 $22 $7 #
cone-surface $-1 4 22 5 0 0 1 -2.12132034355964 2.12132034355964 0 1 0 1 0 #
coedge $-1 $23 $24 $25 $26 1 $8 $-1 #
coedge $-1 $27 $10 $28 $29 1 $5 $-1 #
coedge $-1 $10 $27 $23 $30 1 $5 $-1 #
coedge $-1 $25 $31 $10 $18 0 $32 $-1 #
edge $-1 $33 $34 $17 $35 0 #
face $-1 $36 $37 $2 $-1 $38 forward single #
loop $-1 $-1 $39 $11 #
plane-surface $-1 -1 25 5 0 -1 0 0 0 -1 0 #
coedge $-1 $40 $41 $42 $43 1 $12 $-1 #
coedge $-1 $44 $14 $16 $30 0 $8 $-1 #
coedge $-1 $14 $44 $40 $45 0 $8 $-1 #
coedge $-1 $42 $17 $14 $26 0 $32 $-1 #
edge $-1 $34 $46 $25 $47 0 #
coedge $-1 $16 $15 $48 $49 1 $5 $-1 #
coedge $-1 $50 $51 $15 $29 0 $52 $-1 #
edge $-1 $53 $33 $28 $54 0 #
edge $-1 $34 $55 $23 $56 0 #
coedge $-1 $17 $57 $50 $58 0 $32 $-1 #
loop $-1 $59 $60 $61 #
vertex $-1 $18 $62 #
vertex $-1 $26 $63 #
ellipse-curve $-1 4 -22 15 -0 -0 -1 -2.12132034355964 -2.12132034355964 0 1 #
face $-1 $64 $52 $2 $-1 $65 forward single #
loop $-1 $-1 $66 $19 #
plane-surface $-1 -1 0 -10 0 0 1 1 0 0 0 #
coedge $-1 $67 $68 $69 $70 1 $20 $-1 #
coedge $-1 $71 $22 $24 $45 1 $12 $-1 #
coedge $-1 $22 $71 $67 $72 1 $12 $-1 #
coedge $-1 $69 $25 $22 $43 0 $32 $-1 #
edge $-1 $46 $73 $42 $74 0 #
coedge $-1 $24 $23 $75 $76 0 $8 $-1 #
edge $-1 $77 $46 $24 $78 0 #
vertex $-1 $43 $79 #
straight-curve $-1 1 0 15 0 1 -0 #
coedge $-1 $80 $75 $27 $49 0 $37 $-1 #
edge $-1 $55 $53 $48 $81 0 #
coedge $-1 $82 $28 $31 $58 1 $52 $-1 #
coedge $-1 $28 $82 $80 $83 0 $52 $-1 #
loop $-1 $-1 $50 $36 #
vertex $-1 $83 $84 #
straight-curve $-1 4 -25 5 0 0 1 #
vertex $-1 $49 $85 #
straight-curve $-1 1 -22 5 0 0 -1 #
coedge $-1 $31 $86 $87 $88 0 $32 $-1 #
edge $-1 $89 $33 $31 $90 0 #
loop $-1 $91 $92 $61 #
coedge $-1 $86 $69 $93 $94 0 $32 $-1 #
face $-1 $95 $32 $2 $-1 $96 forward single #
point $-1 4 -25 15 #
point $-1 1 -22 15 #
face $-1 $97 $98 $2 $-1 $99 reversed single #
plane-surface $-1 -1 -25 5 0 1 0 0 0 1 0 #
coedge $-1 $75 $100 $71 $101 0 $37 $-1 #
coedge $-1 $102 $39 $41 $72 0 $20 $-1 #
coedge $-1 $39 $102 $103 $104 0 $20 $-1 #
coedge $-1 $60 $42 $39 $70 0 $32 $-1 #
edge $-1 $73 $105 $69 $106 0 #
coedge $-1 $41 $40 $66 $101 1 $12 $-1 #
edge $-1 $73 $107 $67 $108 0 #
vertex $-1 $43 $109 #
ellipse-curve $-1 4 22 15 -0 -0 -1 -2.12132034355964 2.12132034355964 0 1 #
coedge $-1 $48 $66 $44 $76 1 $37 $-1 #
edge $-1 $55 $77 $75 $110 0 #
vertex $-1 $76 $111 #
straight-curve $-1 1 22 5 0 0 1 #
point $-1 1 22 15 #
coedge $-1 $112 $48 $51 $83 1 $37 $-1 #
ellipse-curve $-1 4 -22 -10 0 0 1 -2.12132034355964 -2.12132034355964 0 1 #
coedge $-1 $51 $50 $113 $114 0 $52 $-1 #
edge $-1 $115 $53 $51 $116 0 #
point $-1 4 -25 -10 #
point $-1 1 -22 -10 #
coedge $-1 $57 $60 $117 $118 0 $32 $-1 #
coedge $-1 $119 $113 $57 $88 1 $120 $-1 #
edge $-1 $121 $89 $57 $122 0 #
vertex $-1 $58 $123 #
straight-curve $-1 -0.5 -25 15 -1 0 0 #
loop $-1 $-1 $124 $61 #
coedge $-1 $125 $126 $127 $128 0 $59 $-1 #
coedge $-1 $103 $129 $60 $94 1 $98 $-1 #
edge $-1 $105 $130 $60 $131 0 #
face $-1 $132 $133 $2 $-1 $134 forward single #
plane-surface $-1 0 0 15 0 0 1 1 0 0 0 #
face $-1 $135 $120 $2 $-1 $136 reversed single #
loop $-1 $-1 $93 $64 #
cone-surface $-1 24 5 5 0 0 -1 14.1421356237309 14.1421356237309 0 1 0 1 0 #
coedge $-1 $66 $137 $102 $138 1 $37 $-1 #
edge $-1 $107 $77 $66 $139 0 #
coedge $-1 $68 $67 $100 $138 0 $20 $-1 #
coedge $-1 $140 $93 $68 $104 1 $98 $-1 #
edge $-1 $141 $105 $68 $142 0 #
vertex $-1 $94 $143 #
straight-curve $-1 -0.5 25 15 1 0 -0 #
vertex $-1 $101 $144 #
straight-curve $-1 4 25 5 -0 -0 -1 #
point $-1 4 25 15 #
straight-curve $-1 1 0 -10 0 1 0 #
point $-1 1 22 -10 #
coedge $-1 $145 $80 $146 $147 0 $37 $-1 #
coedge $-1 $87 $146 $82 $114 1 $120 $-1 #
edge $-1 $89 $115 $82 $148 0 #
vertex $-1 $114 $149 #
straight-curve $-1 -1 -25 -10 -1 0 0 #
coedge $-1 $150 $151 $86 $118 1 $152 $-1 #
edge $-1 $130 $121 $86 $153 0 #
coedge $-1 $146 $87 $151 $154 1 $120 $-1 #
loop $-1 $-1 $87 $97 #
vertex $-1 $88 $155 #
ellipse-curve $-1 24 -5 15 -0 -0 -1 14.1421356237309 -14.1421356237309 0 1 #
point $-1 24 -25 15 #
coedge $-1 $156 $157 $158 $159 1 $91 $-1 #
coedge $-1 $160 $92 $161 $162 0 $59 $-1 #
coedge $-1 $92 $163 $164 $165 0 $59 $-1 #
coedge $-1 $166 $167 $92 $128 1 $168 $-1 #
edge $-1 $169 $170 $92 $171 0 #
coedge $-1 $93 $140 $150 $172 1 $98 $-1 #
vertex $-1 $94 $173 #
ellipse-curve $-1 24 5 15 -0 -0 -1 14.1421356237309 14.1421356237309 0 1 #
face $-1 $-1 $174 $2 $-1 $175 reversed single #
loop $-1 $-1 $176 $95 #
cone-surface $-1 -20 0 0 -0 -0 -1 -21.2132034355964 -21.2132034355964 0 1 0 1 0 #
face $-1 $177 $152 $2 $-1 $178 forward single #
cone-surface $-1 24 -5 5 0 0 -1 14.1421356237309 -14.1421356237309 0 1 0 1 0 #
coedge $-1 $100 $145 $140 $179 0 $37 $-1 #
edge $-1 $107 $141 $102 $180 0 #
ellipse-curve $-1 4 22 -10 0 0 1 -2.12132034355964 2.12132034355964 0 1 #
coedge $-1 $129 $103 $137 $179 1 $98 $-1 #
vertex $-1 $138 $181 #
straight-curve $-1 24 25 5 0 0 1 #
point $-1 24 25 15 #
point $-1 4 25 -10 #
coedge $-1 $137 $112 $182 $183 1 $37 $-1 #
coedge $-1 $113 $119 $112 $147 1 $120 $-1 #
edge $-1 $115 $184 $112 $185 0 #
straight-curve $-1 24 -25 5 0 0 -1 #
point $-1 24 -25 -10 #
coedge $-1 $182 $117 $129 $172 0 $152 $-1 #
coedge $-1 $117 $182 $119 $154 0 $152 $-1 #
loop $-1 $-1 $117 $135 #
straight-curve $-1 44 0 15 0 -1 0 #
edge $-1 $184 $121 $151 $186 0 #
point $-1 44 -5 15 #
coedge $-1 $187 $124 $188 $189 0 $91 $-1 #
coedge $-1 $124 $190 $191 $192 0 $91 $-1 #
coedge $-1 $193 $194 $124 $159 0 $195 $-1 #
edge $-1 $196 $197 $124 $198 0 #
coedge $-1 $199 $125 $200 $201 0 $59 $-1 #
coedge $-1 $202 $203 $125 $162 1 $204 $-1 #
edge $-1 $170 $205 $125 $206 0 #
coedge $-1 $126 $199 $207 $208 0 $59 $-1 #
coedge $-1 $209 $210 $126 $165 1 $211 $-1 #
edge $-1 $212 $169 $126 $213 0 #
coedge $-1 $214 $127 $210 $215 1 $168 $-1 #
coedge $-1 $127 $214 $202 $216 1 $168 $-1 #
loop $-1 $-1 $127 $217 #
vertex $-1 $128 $218 #
vertex $-1 $128 $219 #
ellipse-curve $-1 -4 -22 15 -0 -0 -1 2.12132034355964 -2.12132034355964 0 1 #
edge $-1 $130 $220 $150 $221 0 #
point $-1 44 5 15 #
loop $-1 $-1 $222 $132 #
plane-surface $-1 50 0 0 -1 0 0 0 -0 1 0 #
coedge $-1 $223 $224 $225 $226 0 $133 $-1 #
face $-1 $227 $228 $2 $-1 $229 forward single #
plane-surface $-1 44 0 5 -1 0 0 0 0 1 0 #
edge $-1 $220 $141 $137 $230 0 #
straight-curve $-1 -1 25 -10 1 0 0 #
point $-1 24 25 -10 #
coedge $-1 $151 $150 $145 $183 0 $152 $-1 #
edge $-1 $220 $184 $182 $231 0 #
vertex $-1 $183 $232 #
ellipse-curve $-1 24 -5 -10 0 0 1 14.1421356237309 -14.1421356237309 0 1 #
straight-curve $-1 44 -5 5 0 0 1 #
coedge $-1 $233 $156 $223 $234 1 $91 $-1 #
coedge $-1 $235 $236 $156 $189 1 $237 $-1 #
edge $-1 $196 $238 $188 $239 0 #
coedge $-1 $157 $233 $240 $241 1 $91 $-1 #
coedge $-1 $242 $222 $157 $192 1 $174 $-1 #
edge $-1 $243 $197 $191 $244 0 #
coedge $-1 $245 $158 $222 $246 0 $195 $-1 #
coedge $-1 $158 $245 $235 $247 0 $195 $-1 #
loop $-1 $-1 $194 $248 #
vertex $-1 $247 $249 #
vertex $-1 $192 $250 #
ellipse-curve $-1 30 10 15 -0 -0 -1 14.1421356237309 14.1421356237309 0 1 #
coedge $-1 $163 $160 $251 $252 0 $59 $-1 #
coedge $-1 $253 $254 $160 $201 1 $255 $-1 #
edge $-1 $205 $256 $160 $257 0 #
coedge $-1 $258 $161 $167 $216 0 $204 $-1 #
coedge $-1 $161 $258 $253 $259 0 $204 $-1 #
loop $-1 $-1 $161 $260 #
vertex $-1 $162 $261 #
straight-curve $-1 0.5 -25 15 -1 0 0 #
coedge $-1 $262 $263 $163 $208 1 $264 $-1 #
edge $-1 $265 $212 $163 $266 0 #
coedge $-1 $267 $164 $263 $268 0 $211 $-1 #
coedge $-1 $164 $267 $166 $215 0 $211 $-1 #
loop $-1 $-1 $164 $269 #
vertex $-1 $208 $270 #
straight-curve $-1 -1 0 15 0 -1 0 #
coedge $-1 $167 $166 $271 $272 1 $168 $-1 #
edge $-1 $273 $169 $210 $274 0 #
edge $-1 $170 $275 $202 $276 0 #
face $-1 $260 $168 $2 $-1 $277 reversed single #
point $-1 -1 -22 15 #
point $-1 -4 -25 15 #
vertex $-1 $179 $278 #
straight-curve $-1 44 5 5 0 0 -1 #
coedge $-1 $191 $279 $193 $246 1 $174 $-1 #
coedge $-1 $280 $176 $187 $234 0 $133 $-1 #
coedge $-1 $176 $280 $281 $282 0 $133 $-1 #
coedge $-1 $283 $284 $176 $226 1 $285 $-1 #
edge $-1 $286 $287 $225 $288 0 #
face $-1 $269 $264 $2 $-1 $289 reversed single #
loop $-1 $-1 $251 $177 #
plane-surface $-1 1 25 5 0 -1 0 0 0 -1 0 #
ellipse-curve $-1 24 5 -10 0 0 1 14.1421356237309 14.1421356237309 0 1 #
straight-curve $-1 44 0 -10 0 -1 0 #
point $-1 44 -5 -10 #
coedge $-1 $190 $187 $284 $290 0 $91 $-1 #
edge $-1 $287 $238 $187 $291 0 #
coedge $-1 $292 $188 $194 $247 1 $237 $-1 #
coedge $-1 $188 $292 $280 $293 1 $237 $-1 #
loop $-1 $-1 $235 $294 #
vertex $-1 $189 $295 #
straight-curve $-1 0 30 15 -1 0 0 #
coedge $-1 $296 $297 $190 $241 0 $298 $-1 #
edge $-1 $243 $299 $190 $300 0 #
coedge $-1 $279 $191 $297 $301 1 $174 $-1 #
vertex $-1 $241 $302 #
straight-curve $-1 50 0 15 0 1 0 #
coedge $-1 $194 $193 $303 $304 0 $195 $-1 #
edge $-1 $197 $305 $222 $306 0 #
edge $-1 $307 $196 $235 $308 0 #
face $-1 $294 $195 $2 $-1 $309 forward single #
point $-1 30 30 15 #
point $-1 50 10 15 #
coedge $-1 $310 $311 $199 $252 1 $228 $-1 #
edge $-1 $256 $265 $199 $312 0 #
coedge $-1 $313 $200 $203 $259 1 $255 $-1 #
coedge $-1 $200 $313 $310 $314 1 $255 $-1 #
loop $-1 $-1 $200 $315 #
vertex $-1 $252 $316 #
ellipse-curve $-1 -19 0 15 -0 -0 -1 -17.6776695296637 -17.6776695296637 0 1 #
coedge $-1 $203 $202 $317 $318 0 $204 $-1 #
edge $-1 $319 $205 $203 $320 0 #
face $-1 $315 $204 $2 $-1 $321 forward single #
point $-1 -19 -25 15 #
coedge $-1 $322 $207 $311 $323 1 $264 $-1 #
coedge $-1 $207 $322 $209 $268 1 $264 $-1 #
loop $-1 $-1 $207 $227 #
vertex $-1 $208 $324 #
ellipse-curve $-1 -4 22 15 -0 -0 -1 2.12132034355964 2.12132034355964 0 1 #
coedge $-1 $210 $209 $325 $326 0 $211 $-1 #
edge $-1 $212 $327 $209 $328 0 #
face $-1 $329 $211 $2 $-1 $330 reversed single #
point $-1 -1 22 15 #
coedge $-1 $325 $317 $214 $272 0 $331 $-1 #
edge $-1 $275 $273 $271 $332 0 #
vertex $-1 $326 $333 #
straight-curve $-1 -1 -22 5 0 0 1 #
vertex $-1 $216 $334 #
straight-curve $-1 -4 -25 5 0 0 -1 #
cone-surface $-1 -4 -22 5 0 0 1 2.12132034355964 -2.12132034355964 0 1 0 1 0 #
point $-1 44 5 -10 #
coedge $-1 $222 $242 $335 $336 1 $174 $-1 #
coedge $-1 $224 $223 $236 $293 0 $133 $-1 #
coedge $-1 $337 $338 $224 $282 1 $339 $-1 #
edge $-1 $340 $286 $281 $341 0 #
coedge $-1 $342 $225 $338 $343 1 $285 $-1 #
coedge $-1 $225 $342 $233 $290 1 $285 $-1 #
loop $-1 $-1 $342 $344 #
vertex $-1 $343 $345 #
vertex $-1 $226 $346 #
straight-curve $-1 -20 -30 0 0 0 1 #
cone-surface $-1 -4 22 5 0 0 -1 2.12132034355964 2.12132034355964 0 1 0 1 0 #
edge $-1 $287 $299 $284 $347 0 #
ellipse-curve $-1 -20 0 15 -0 -0 -1 -21.2132034355964 21.2132034355964 0 1 #
coedge $-1 $236 $235 $337 $348 1 $237 $-1 #
edge $-1 $238 $340 $236 $349 0 #
face $-1 $350 $237 $2 $-1 $351 reversed single #
point $-1 -20 30 15 #
coedge $-1 $352 $240 $342 $353 0 $298 $-1 #
coedge $-1 $240 $352 $242 $301 0 $298 $-1 #
loop $-1 $-1 $297 $354 #
vertex $-1 $290 $355 #
ellipse-curve $-1 30 -10 15 -0 -0 -1 14.1421356237309 -14.1421356237309 0 1 #
edge $-1 $356 $243 $242 $357 0 #
point $-1 50 -10 15 #
coedge $-1 $335 $337 $245 $304 1 $339 $-1 #
edge $-1 $305 $307 $303 $358 0 #
vertex $-1 $304 $359 #
straight-curve $-1 50 10 0 0 0 -1 #
vertex $-1 $348 $360 #
straight-curve $-1 30 30 0 0 0 1 #
cone-surface $-1 30 10 0 0 0 -1 14.1421356237309 14.1421356237309 0 1 0 1 0 #
coedge $-1 $361 $251 $254 $314 0 $228 $-1 #
coedge $-1 $251 $361 $262 $323 0 $228 $-1 #
straight-curve $-1 0.5 25 15 1 0 -0 #
coedge $-1 $254 $253 $362 $363 1 $255 $-1 #
edge $-1 $256 $364 $310 $365 0 #
face $-1 $248 $255 $2 $-1 $366 reversed single #
point $-1 -19 25 15 #
coedge $-1 $271 $362 $258 $318 1 $331 $-1 #
edge $-1 $275 $319 $258 $367 0 #
vertex $-1 $318 $368 #
straight-curve $-1 -19 -25 5 0 0 1 #
plane-surface $-1 1 -25 5 0 1 0 0 0 1 0 #
coedge $-1 $263 $262 $369 $370 1 $264 $-1 #
edge $-1 $371 $265 $311 $372 0 #
point $-1 -4 25 15 #
coedge $-1 $369 $271 $267 $326 1 $331 $-1 #
edge $-1 $327 $273 $325 $373 0 #
vertex $-1 $370 $374 #
straight-curve $-1 -1 22 5 0 0 -1 #
face $-1 $217 $331 $2 $-1 $375 forward single #
plane-surface $-1 -1 0 5 1 0 0 0 0 -1 0 #
loop $-1 $-1 $369 $329 #
ellipse-curve $-1 -4 -22 -10 0 0 1 2.12132034355964 -2.12132034355964 0 1 #
point $-1 -1 -22 -10 #
point $-1 -4 -25 -10 #
coedge $-1 $376 $303 $279 $336 0 $339 $-1 #
edge $-1 $305 $356 $279 $377 0 #
coedge $-1 $303 $281 $292 $348 0 $339 $-1 #
coedge $-1 $281 $376 $283 $343 0 $339 $-1 #
loop $-1 $-1 $303 $350 #
vertex $-1 $282 $378 #
ellipse-curve $-1 -20 0 -15 0 0 1 -21.2132034355964 -21.2132034355964 0 1 #
coedge $-1 $284 $283 $296 $353 1 $285 $-1 #
edge $-1 $379 $286 $283 $380 0 #
face $-1 $61 $285 $2 $-1 $381 reversed single #
point $-1 -20 -30 -15 #
point $-1 -20 -30 15 #
straight-curve $-1 0 -30 15 1 0 0 #
edge $-1 $340 $307 $292 $382 0 #
straight-curve $-1 -20 30 0 0 0 -1 #
face $-1 $354 $339 $2 $-1 $383 reversed single #
plane-surface $-1 0 30 0 0 -1 0 0 0 -1 0 #
coedge $-1 $297 $296 $376 $384 0 $298 $-1 #
edge $-1 $299 $379 $342 $385 0 #
face $-1 $344 $298 $2 $-1 $386 forward single #
point $-1 30 -30 15 #
vertex $-1 $336 $387 #
straight-curve $-1 50 -10 0 0 0 1 #
ellipse-curve $-1 30 10 -15 0 0 1 14.1421356237309 14.1421356237309 0 1 #
point $-1 50 10 -15 #
point $-1 30 30 -15 #
coedge $-1 $311 $310 $388 $389 0 $228 $-1 #
coedge $-1 $317 $388 $313 $363 0 $331 $-1 #
edge $-1 $364 $319 $362 $390 0 #
vertex $-1 $363 $391 #
straight-curve $-1 -19 25 5 0 0 -1 #
cone-surface $-1 -19 0 5 -0 -0 -1 -17.6776695296637 -17.6776695296637 0 1 0 1 0 #
straight-curve $-1 1 -25 -10 -1 0 0 #
point $-1 -19 -25 -10 #
coedge $-1 $388 $325 $322 $370 0 $331 $-1 #
edge $-1 $327 $371 $369 $392 0 #
vertex $-1 $389 $393 #
straight-curve $-1 -4 25 5 0 0 1 #
straight-curve $-1 -1 0 -10 0 -1 0 #
point $-1 -1 22 -10 #
plane-surface $-1 1 0 -10 0 0 1 1 0 0 0 #
coedge $-1 $338 $335 $352 $384 1 $339 $-1 #
straight-curve $-1 50 0 -15 0 -1 0 #
point $-1 -20 30 -15 #
vertex $-1 $353 $394 #
straight-curve $-1 0 -30 -15 -1 0 0 #
plane-surface $-1 0 -30 0 0 1 -0 -0 0 1 0 #
straight-curve $-1 0 30 -15 1 0 0 #
plane-surface $-1 0 0 -15 0 0 1 1 0 0 0 #
edge $-1 $379 $356 $376 $395 0 #
straight-curve $-1 30 -30 0 0 0 -1 #
cone-surface $-1 30 -10 0 0 0 -1 14.1421356237309 -14.1421356237309 0 1 0 1 0 #
point $-1 50 -10 -15 #
coedge $-1 $362 $369 $361 $389 1 $331 $-1 #
edge $-1 $364 $371 $361 $396 0 #
ellipse-curve $-1 -19 0 -10 0 0 1 -17.6776695296637 -17.6776695296637 0 1 #
point $-1 -19 25 -10 #
ellipse-curve $-1 -4 22 -10 0 0 1 2.12132034355964 2.12132034355964 0 1 #
point $-1 -4 25 -10 #
point $-1 30 -30 -15 #
ellipse-curve $-1 30 -10 -15 0 0 1 14.1421356237309 -14.1421356237309 0 1 #
straight-curve $-1 1 25 -10 1 0 0 #
