600 0 2 0           
24 FBMach with ACIS - 6.0.3 13 ACIS 6.0.3 NT 24 Tue May 22 12:27:34 2001 
1 9.9999999999999995e-007 1e-010 
body $2 $3 $-1 $4 #
bdycol-kcp $-1 1 4 $5 $6 $7 $8 #
model_id-kcp-attrib $-1 $-1 $-1 $0 1 990548853 70 -1203372031 1 #
lump $-1 $-1 $9 $0 #
transform $-1 1 0 0 0 1 0 0 0 1 0 0 0 1 no_rotate no_reflect no_shear #
body $10 $11 $-1 $12 #
body $13 $14 $-1 $15 #
body $16 $17 $-1 $18 #
body $19 $20 $-1 $21 #
shell $-1 $-1 $-1 $22 $-1 $3 #
model_id-kcp-attrib $-1 $-1 $-1 $5 1 990548853 80 -1202716670 1 #
lump $-1 $-1 $23 $5 #
transform $-1 1 0 0 0 1 0 0 0 1 1.4210854715202004e-014 0 0 1 no_rotate no_reflect no_shear #
rgb_color-st-attrib $-1 $24 $-1 $6 0.5 1 1 #
lump $-1 $25 $26 $6 #
transform $-1 1 0 0 0 1 0 0 0 1 1.4210854715202004e-014 0 0 1 no_rotate no_reflect no_shear #
rgb_color-st-attrib $-1 $27 $-1 $7 0 0 1 #
lump $-1 $-1 $28 $7 #
transform $-1 1 0 0 0 1 0 0 0 1 1.4210854715202004e-014 0 0 1 no_rotate no_reflect no_shear #
rgb_color-st-attrib $-1 $29 $-1 $8 0 0 1 #
lump $-1 $-1 $30 $8 #
transform $-1 1 0 0 0 1 0 0 0 1 1.4210854715202004e-014 0 0 1 no_rotate no_reflect no_shear #
face $31 $32 $33 $9 $-1 $34 reversed single #
shell $-1 $-1 $-1 $35 $-1 $11 #
model_id-kcp-attrib $-1 $-1 $13 $6 1 990548853 240 -1192230909 1 #
lump $-1 $36 $37 $6 #
shell $-1 $-1 $-1 $38 $-1 $14 #
model_id-kcp-attrib $-1 $-1 $16 $7 1 990548853 620 -1200881660 1 #
shell $-1 $-1 $-1 $39 $-1 $17 #
model_id-kcp-attrib $-1 $-1 $19 $8 1 990548853 861 -1201864699 1 #
shell $-1 $-1 $-1 $40 $-1 $20 #
model_id-kcp-attrib $-1 $-1 $-1 $22 1 990548853 70 -1203372031 2 #
face $41 $42 $43 $9 $-1 $44 reversed single #
loop $-1 $-1 $45 $22 #
cone-surface $-1 4 -22 5 0 0 -1 -2.1213203435596402 -2.1213203435596402 0 1 I I 0 1 2.9999999999999964 forward I I I I #
face $46 $47 $48 $23 $-1 $49 forward single #
lump $-1 $-1 $50 $6 #
shell $-1 $-1 $-1 $51 $-1 $25 #
face $-1 $52 $53 $26 $-1 $54 reversed single #
face $-1 $55 $56 $28 $-1 $57 forward single #
face $-1 $58 $59 $30 $-1 $60 forward single #
model_id-kcp-attrib $-1 $-1 $-1 $32 1 990548853 70 -1203372031 3 #
face $61 $62 $63 $9 $-1 $64 reversed single #
loop $-1 $-1 $65 $32 #
plane-surface $-1 1 0 5 -1 0 0 0 0 1 forward_v I I I I #
coedge $-1 $66 $67 $68 $69 reversed $33 $-1 #
model_id-kcp-attrib $-1 $-1 $-1 $35 1 990548853 80 -1202716670 5 #
face $70 $71 $72 $23 $-1 $73 reversed single #
loop $-1 $-1 $74 $35 #
plane-surface $-1 0 0 15 0 0 1 1 0 0 forward_v I I I I #
shell $-1 $-1 $-1 $75 $-1 $36 #
face $-1 $76 $77 $37 $-1 $78 reversed single #
face $-1 $79 $80 $26 $-1 $81 reversed single #
loop $-1 $-1 $82 $38 #
cone-surface $-1 29.999999999999986 9.9999999999999982 -15 0 0 -1 0 19.999999999999929 0 1 I I 0 1 19.999999999999929 forward I I I I #
face $-1 $83 $84 $28 $-1 $85 forward single #
loop $-1 $-1 $86 $39 #
cone-surface $-1 -4.0000000000000142 22 -10 0 0 1 2.1213203435596402 2.1213203435596402 0 1 I I 0 1 2.9999999999999964 forward I I I I #
face $-1 $87 $88 $30 $-1 $89 forward single #
loop $-1 $-1 $90 $40 #
plane-surface $-1 0.99999999999998579 -22 -10 -1 0 0 0 0 1 forward_v I I I I #
model_id-kcp-attrib $-1 $-1 $-1 $42 1 990548853 70 -1203372031 4 #
face $91 $92 $93 $9 $-1 $94 forward single #
loop $-1 $-1 $95 $42 #
cone-surface $-1 4 22 5 0 0 1 -2.1213203435596402 2.1213203435596402 0 1 I I 0 1 2.9999999999999964 forward I I I I #
coedge $-1 $96 $97 $98 $99 reversed $43 $-1 #
coedge $-1 $100 $45 $101 $102 reversed $33 $-1 #
coedge $-1 $45 $100 $96 $103 reversed $33 $-1 #
coedge $-1 $98 $104 $45 $69 forward $105 $-1 #
edge $-1 $106 -0.78539816339744828 $107 0.78539816339744828 $68 $108 forward 7 unknown #
model_id-kcp-attrib $-1 $-1 $-1 $47 1 990548853 80 -1202716670 3 #
face $109 $110 $111 $23 $-1 $112 reversed single #
loop $-1 $-1 $113 $47 #
plane-surface $-1 0 0 -15 0 0 1 1 0 0 forward_v I I I I #
coedge $-1 $114 $115 $116 $117 forward $48 $-1 #
face $-1 $118 $119 $50 $-1 $120 reversed single #
face $-1 $121 $122 $37 $-1 $123 reversed single #
loop $-1 $-1 $124 $51 #
cone-surface $-1 29.999999999999986 -9.9999999999999982 -15 0 0 -1 19.999999999999929 -3.5527136788005009e-015 0 1 I I 0 1 19.999999999999929 forward I I I I #
face $-1 $125 $126 $26 $-1 $127 reversed single #
loop $-1 $-1 $128 $52 #
plane-surface $-1 0 30 0 0 -1 0 0 0 -1 forward_v I I I I #
coedge $-1 $129 $130 $131 $132 reversed $53 $-1 #
face $-1 $133 $134 $28 $-1 $135 forward single #
loop $-1 $-1 $136 $55 #
plane-surface $-1 -1.0000000000000142 22 -10 1 0 0 0 0 -1 forward_v I I I I #
coedge $-1 $137 $138 $139 $140 forward $56 $-1 #
face $-1 $141 $142 $30 $-1 $143 forward single #
loop $-1 $-1 $144 $58 #
cone-surface $-1 3.9999999999999858 22 -10 0 0 1 -2.1213203435596402 2.1213203435596402 0 1 I I 0 1 2.9999999999999964 forward I I I I #
coedge $-1 $145 $146 $147 $148 forward $59 $-1 #
model_id-kcp-attrib $-1 $-1 $-1 $62 1 990548853 70 -1203372031 5 #
face $149 $150 $151 $9 $-1 $152 forward single #
loop $-1 $-1 $153 $62 #
plane-surface $-1 -1 25 5 0 -1 0 0 0 -1 forward_v I I I I #
coedge $-1 $154 $155 $156 $157 reversed $63 $-1 #
coedge $-1 $158 $65 $67 $103 forward $43 $-1 #
coedge $-1 $65 $158 $154 $159 forward $43 $-1 #
coedge $-1 $156 $68 $65 $99 forward $105 $-1 #
edge $-1 $107 -22 $160 22 $98 $161 forward 7 unknown #
coedge $-1 $67 $66 $162 $163 reversed $33 $-1 #
coedge $-1 $164 $165 $66 $102 forward $166 $-1 #
edge $-1 $167 -15 $106 10 $101 $168 forward 7 unknown #
edge $-1 $107 -10 $169 15 $96 $170 forward 7 unknown #
coedge $-1 $68 $171 $164 $172 forward $105 $-1 #
loop $-1 $173 $174 $175 #
vertex $-1 $69 $176 #
vertex $-1 $99 $177 #
ellipse-curve $-1 4 -22 15 0 0 -1 -2.1213203435596402 -2.1213203435596402 0 1 I I #
model_id-kcp-attrib $-1 $-1 $-1 $71 1 990548853 80 -1202716670 4 #
face $-1 $178 $179 $23 $-1 $180 reversed single #
loop $-1 $-1 $181 $71 #
plane-surface $-1 0 -30 0 0 1 0 0 0 1 forward_v I I I I #
coedge $-1 $182 $183 $184 $185 forward $72 $-1 #
coedge $-1 $186 $74 $187 $188 forward $48 $-1 #
coedge $-1 $74 $186 $189 $190 forward $48 $-1 #
coedge $-1 $191 $192 $74 $117 reversed $193 $-1 #
edge $-1 $194 -30 $195 30 $116 $196 forward 7 unknown #
face $-1 $197 $198 $50 $-1 $199 forward single #
loop $-1 $-1 $200 $75 #
plane-surface $-1 -49.999999999999986 0 0 1 0 0 0 0 -1 forward_v I I I I #
face $-1 $201 $202 $37 $-1 $127 reversed single #
loop $-1 $-1 $203 $76 #
plane-surface $-1 49.999999999999986 0 0 -1 0 0 0 0 1 forward_v I I I I #
coedge $-1 $204 $205 $206 $207 reversed $77 $-1 #
face $-1 $208 $209 $26 $-1 $199 forward single #
loop $-1 $-1 $131 $79 #
plane-surface $-1 0 0 -15 0 0 1 1 0 0 forward_v I I I I #
coedge $-1 $210 $211 $130 $212 reversed $80 $-1 #
coedge $-1 $213 $82 $214 $215 reversed $53 $-1 #
coedge $-1 $82 $213 $128 $212 forward $53 $-1 #
coedge $-1 $216 $217 $82 $132 forward $126 $-1 #
edge $-1 $218 -1.5707963267948963 $219 0 $131 $220 forward 7 unknown #
face $-1 $221 $222 $28 $-1 $223 forward single #
loop $-1 $-1 $224 $83 #
cone-surface $-1 -4.0000000000000142 -22 -10 0 0 1 2.1213203435596402 -2.1213203435596402 0 1 I I 0 1 2.9999999999999964 forward I I I I #
coedge $-1 $225 $226 $227 $228 forward $84 $-1 #
coedge $-1 $229 $86 $226 $230 reversed $56 $-1 #
coedge $-1 $86 $229 $231 $232 forward $56 $-1 #
coedge $-1 $233 $227 $86 $140 reversed $234 $-1 #
edge $-1 $235 -0.78539816339744828 $236 0.78539816339744828 $86 $237 forward 7 unknown #
face $-1 $238 $239 $30 $-1 $240 forward single #
loop $-1 $-1 $241 $87 #
plane-surface $-1 3.9999999999999858 25 -10 0 1 0 0 0 1 forward_v I I I I #
coedge $-1 $242 $243 $244 $245 forward $88 $-1 #
coedge $-1 $246 $90 $243 $247 reversed $59 $-1 #
coedge $-1 $90 $246 $248 $249 forward $59 $-1 #
coedge $-1 $250 $244 $90 $148 reversed $251 $-1 #
edge $-1 $252 -22 $253 22 $90 $254 forward 7 unknown #
model_id-kcp-attrib $-1 $-1 $-1 $92 1 990548853 70 -1203372031 6 #
face $255 $256 $166 $9 $-1 $257 forward single #
loop $-1 $-1 $258 $92 #
plane-surface $-1 -1 0 -10 0 0 1 1 0 0 forward_v I I I I #
coedge $-1 $259 $260 $261 $262 reversed $93 $-1 #
coedge $-1 $263 $95 $97 $159 reversed $63 $-1 #
coedge $-1 $95 $263 $259 $264 reversed $63 $-1 #
coedge $-1 $261 $98 $95 $157 forward $105 $-1 #
edge $-1 $160 -0.78539816339744828 $265 0.78539816339744828 $156 $266 forward 7 unknown #
coedge $-1 $97 $96 $267 $268 forward $43 $-1 #
edge $-1 $269 -15 $160 10 $97 $270 forward 7 unknown #
vertex $-1 $157 $271 #
straight-curve $-1 1 0 15 0 1 0 I I #
coedge $-1 $272 $267 $100 $163 forward $151 $-1 #
edge $-1 $169 -0.78539816339744828 $167 0.78539816339744828 $162 $273 forward 7 unknown #
coedge $-1 $274 $101 $104 $172 reversed $166 $-1 #
coedge $-1 $101 $274 $272 $275 forward $166 $-1 #
loop $-1 $-1 $164 $150 #
vertex $-1 $275 $276 #
straight-curve $-1 4 -25 5 0 0 1 I I #
vertex $-1 $163 $277 #
straight-curve $-1 1 -22 5 0 0 -1 I I #
coedge $-1 $104 $278 $279 $280 forward $105 $-1 #
edge $-1 $281 -24.5 $106 -4.5 $104 $282 forward 7 unknown #
loop $-1 $283 $284 $175 #
coedge $-1 $278 $261 $285 $286 forward $105 $-1 #
face $287 $288 $105 $9 $-1 $289 forward single #
point $-1 4 -25 15 #
point $-1 1 -22 15 #
face $290 $291 $292 $23 $-1 $293 reversed single #
loop $-1 $-1 $294 $110 #
plane-surface $-1 -49.999999999999986 0 0 1 0 0 0 0 -1 forward_v I I I I #
coedge $-1 $295 $189 $296 $297 forward $111 $-1 #
coedge $-1 $298 $113 $295 $299 forward $72 $-1 #
coedge $-1 $113 $298 $300 $301 forward $72 $-1 #
coedge $-1 $192 $191 $113 $185 reversed $193 $-1 #
edge $-1 $302 -30 $303 30 $184 $304 forward 7 unknown #
coedge $-1 $115 $114 $305 $306 forward $48 $-1 #
coedge $-1 $307 $308 $114 $188 reversed $292 $-1 #
edge $-1 $195 -49.999999999999986 $309 49.999999999999986 $187 $310 forward 7 unknown #
coedge $-1 $181 $311 $115 $190 reversed $111 $-1 #
edge $-1 $312 -49.999999999999986 $194 49.999999999999986 $189 $313 forward 7 unknown #
coedge $-1 $184 $116 $311 $314 forward $193 $-1 #
coedge $-1 $116 $184 $307 $315 reversed $193 $-1 #
loop $-1 $-1 $191 $291 #
vertex $-1 $117 $316 #
vertex $-1 $117 $317 #
straight-curve $-1 49.999999999999986 0 15 0 1 0 I I #
face $-1 $318 $319 $50 $-1 $199 forward single #
loop $-1 $-1 $320 $118 #
plane-surface $-1 0 0 15 0 0 1 1 0 0 forward_v I I I I #
coedge $-1 $321 $322 $323 $324 forward $119 $-1 #
face $-1 $325 $326 $37 $-1 $199 forward single #
loop $-1 $-1 $206 $121 #
coedge $-1 $327 $328 $205 $329 reversed $122 $-1 #
coedge $-1 $330 $124 $331 $332 reversed $77 $-1 #
coedge $-1 $124 $330 $203 $329 forward $77 $-1 #
coedge $-1 $333 $334 $124 $207 forward $202 $-1 #
edge $-1 $335 -1.5707963267948963 $336 -8.8817841970012836e-017 $206 $337 forward 7 unknown #
face $-1 $-1 $338 $26 $-1 $123 reversed single #
loop $-1 $-1 $339 $125 #
coedge $-1 $340 $128 $341 $342 reversed $80 $-1 #
coedge $-1 $128 $340 $216 $343 reversed $80 $-1 #
edge $-1 $344 -30 $219 0 $128 $345 forward 7 unknown #
coedge $-1 $130 $129 $339 $346 reversed $53 $-1 #
coedge $-1 $347 $348 $129 $215 forward $338 $-1 #
edge $-1 $349 -30 $218 0 $214 $350 forward 7 unknown #
coedge $-1 $217 $131 $211 $343 forward $126 $-1 #
coedge $-1 $131 $216 $347 $351 forward $126 $-1 #
vertex $-1 $132 $352 #
vertex $-1 $343 $353 #
ellipse-curve $-1 29.999999999999986 9.9999999999999982 -15 0 0 1 0 19.999999999999929 0 1 I I #
face $-1 $354 $355 $28 $-1 $356 forward single #
loop $-1 $-1 $357 $133 #
plane-surface $-1 -4.0000000000000142 -25 -10 0 -1 0 0 0 -1 forward_v I I I I #
coedge $-1 $358 $359 $360 $361 forward $134 $-1 #
coedge $-1 $362 $136 $359 $363 reversed $84 $-1 #
coedge $-1 $136 $362 $137 $230 forward $84 $-1 #
coedge $-1 $139 $360 $136 $228 reversed $234 $-1 #
edge $-1 $236 -22 $364 22 $136 $365 forward 7 unknown #
coedge $-1 $138 $137 $366 $367 reversed $56 $-1 #
edge $-1 $368 0 $236 25 $226 $369 forward 7 unknown #
coedge $-1 $370 $371 $138 $232 reversed $372 $-1 #
edge $-1 $373 0 $235 25 $138 $374 forward 7 unknown #
coedge $-1 $375 $139 $371 $376 reversed $234 $-1 #
loop $-1 $-1 $139 $377 #
vertex $-1 $232 $378 #
vertex $-1 $230 $379 #
ellipse-curve $-1 -4.0000000000000142 22 15 0 0 -1 2.1213203435596402 2.1213203435596402 0 1 I I #
face $-1 $380 $381 $30 $-1 $382 forward single #
loop $-1 $-1 $383 $141 #
cone-surface $-1 23.999999999999986 5 -10 0 0 1 14.142135623730899 14.142135623730899 0 1 I I 0 1 19.999999999999929 forward I I I I #
coedge $-1 $384 $385 $386 $387 forward $142 $-1 #
coedge $-1 $388 $144 $385 $389 reversed $88 $-1 #
coedge $-1 $144 $388 $145 $247 forward $88 $-1 #
coedge $-1 $147 $386 $144 $245 reversed $251 $-1 #
edge $-1 $253 -0.78539816339744828 $390 0.78539816339744828 $144 $391 forward 7 unknown #
coedge $-1 $146 $145 $392 $393 reversed $59 $-1 #
edge $394 $395 0 $253 25 $243 $396 forward 7 unknown #
coedge $-1 $397 $398 $146 $249 reversed $399 $-1 #
edge $-1 $400 0 $252 25 $146 $401 forward 7 unknown #
coedge $-1 $402 $147 $398 $403 reversed $251 $-1 #
loop $-1 $-1 $147 $404 #
vertex $-1 $249 $405 #
vertex $-1 $247 $406 #
straight-curve $-1 0.99999999999998579 0 15 0 1 0 I I #
model_id-kcp-attrib $-1 $-1 $-1 $150 1 990548853 70 -1203372031 7 #
face $407 $408 $409 $9 $-1 $410 reversed single #
plane-surface $-1 -1 -25 5 0 1 0 0 0 1 forward_v I I I I #
coedge $-1 $267 $411 $263 $412 forward $151 $-1 #
coedge $-1 $413 $153 $155 $264 forward $93 $-1 #
coedge $-1 $153 $413 $414 $415 forward $93 $-1 #
coedge $-1 $174 $156 $153 $262 forward $105 $-1 #
edge $-1 $265 4.5 $416 24.5 $261 $417 forward 7 unknown #
coedge $-1 $155 $154 $258 $412 reversed $63 $-1 #
edge $-1 $265 -10 $418 15 $259 $419 forward 7 unknown #
vertex $-1 $157 $420 #
ellipse-curve $-1 4 22 15 0 0 -1 -2.1213203435596402 2.1213203435596402 0 1 I I #
coedge $-1 $162 $258 $158 $268 reversed $151 $-1 #
edge $-1 $169 -22 $269 22 $267 $421 forward 7 unknown #
vertex $-1 $268 $422 #
straight-curve $-1 1 22 5 0 0 1 I I #
point $-1 1 22 15 #
coedge $-1 $423 $162 $165 $275 reversed $151 $-1 #
ellipse-curve $-1 4 -22 -10 0 0 1 -2.1213203435596402 -2.1213203435596402 0 1 I I #
coedge $-1 $165 $164 $424 $425 forward $166 $-1 #
edge $-1 $426 -25 $167 -5 $165 $427 forward 7 unknown #
point $-1 4 -25 -10 #
point $-1 1 -22 -10 #
coedge $-1 $171 $174 $428 $429 forward $105 $-1 #
coedge $-1 $430 $424 $171 $280 reversed $431 $-1 #
edge $-1 $432 -0.78539816339744828 $281 0.78539816339744828 $171 $433 forward 7 unknown #
vertex $-1 $172 $434 #
straight-curve $-1 -0.5 -25 15 -1 0 0 I I #
loop $-1 $-1 $435 $175 #
coedge $-1 $436 $437 $438 $439 forward $173 $-1 #
coedge $-1 $414 $440 $174 $286 reversed $409 $-1 #
edge $-1 $416 -0.78539816339744828 $441 0.78539816339744828 $174 $442 forward 7 unknown #
model_id-kcp-attrib $-1 $-1 $-1 $175 1 990548853 70 -1203372031 23 #
face $443 $444 $445 $9 $-1 $446 forward single #
plane-surface $-1 0 0 15 0 0 1 1 0 0 forward_v I I I I #
model_id-kcp-attrib $-1 $-1 $-1 $178 1 990548853 80 -1202716670 2 #
face $447 $-1 $193 $23 $-1 $448 reversed single #
loop $-1 $-1 $307 $178 #
plane-surface $-1 0 30 0 0 -1 0 0 0 -1 forward_v I I I I #
coedge $-1 $449 $305 $308 $450 forward $179 $-1 #
coedge $-1 $311 $181 $182 $299 reversed $111 $-1 #
coedge $-1 $305 $449 $181 $297 reversed $179 $-1 #
edge $-1 $312 -15 $451 15 $296 $452 forward 7 unknown #
coedge $-1 $183 $182 $449 $453 forward $72 $-1 #
edge $-1 $303 -49.999999999999986 $451 49.999999999999986 $295 $454 forward 7 unknown #
coedge $-1 $308 $307 $183 $301 reversed $292 $-1 #
edge $-1 $455 -49.999999999999986 $302 49.999999999999986 $300 $456 forward 7 unknown #
vertex $-1 $185 $457 #
vertex $-1 $314 $458 #
straight-curve $-1 49.999999999999986 0 -15 0 -1 0 I I #
coedge $-1 $294 $296 $186 $306 reversed $179 $-1 #
edge $-1 $309 -30 $312 30 $305 $459 forward 7 unknown #
coedge $-1 $300 $187 $192 $315 forward $292 $-1 #
coedge $-1 $187 $300 $294 $450 reversed $292 $-1 #
vertex $-1 $188 $460 #
straight-curve $-1 0 30 15 -1 0 0 I I #
coedge $-1 $189 $295 $191 $314 reversed $111 $-1 #
vertex $-1 $306 $461 #
straight-curve $-1 0 -30 15 1 0 0 I I #
edge $-1 $194 -15 $303 15 $191 $462 forward 7 unknown #
edge $-1 $195 -15 $302 15 $192 $463 forward 7 unknown #
point $-1 49.999999999999986 -30 15 #
point $-1 49.999999999999986 30 15 #
face $-1 $464 $465 $50 $-1 $466 reversed single #
loop $-1 $-1 $467 $197 #
coedge $-1 $468 $469 $470 $471 forward $198 $-1 #
coedge $-1 $472 $200 $473 $474 reversed $119 $-1 #
coedge $-1 $200 $472 $475 $476 reversed $119 $-1 #
coedge $-1 $477 $478 $479 $324 reversed $480 $-1 #
edge $-1 $481 -29.999999999999996 $482 0 $200 $483 forward 7 unknown #
face $-1 $-1 $484 $37 $-1 $466 reversed single #
loop $-1 $-1 $485 $201 #
coedge $-1 $486 $203 $487 $488 reversed $122 $-1 #
coedge $-1 $203 $486 $333 $489 reversed $122 $-1 #
edge $-1 $490 -30 $336 0 $203 $491 forward 7 unknown #
coedge $-1 $205 $204 $485 $492 reversed $77 $-1 #
coedge $-1 $493 $494 $204 $332 forward $484 $-1 #
edge $-1 $495 -30 $335 0 $331 $496 forward 7 unknown #
coedge $-1 $334 $206 $328 $489 forward $202 $-1 #
coedge $-1 $206 $333 $493 $497 forward $202 $-1 #
vertex $-1 $332 $498 #
vertex $-1 $489 $499 #
ellipse-curve $-1 29.999999999999986 -9.9999999999999982 -15 0 0 1 19.999999999999929 -3.5527136788005009e-015 0 1 I I #
loop $-1 $-1 $214 $208 #
coedge $-1 $500 $341 $213 $346 forward $209 $-1 #
coedge $-1 $211 $210 $501 $502 forward $80 $-1 #
coedge $-1 $339 $500 $210 $342 forward $209 $-1 #
edge $-1 $503 -49.999999999999986 $344 -29.999999999999986 $210 $504 forward 7 unknown #
edge $-1 $219 29.999999999999986 $505 49.999999999999986 $211 $506 forward 7 unknown #
vertex $-1 $212 $507 #
straight-curve $-1 29.999999999999986 30 -15 0 0 -1 I I #
edge $-1 $344 0 $349 1.5707963267948963 $339 $508 forward 7 unknown #
coedge $-1 $501 $214 $217 $351 reversed $338 $-1 #
coedge $-1 $214 $501 $500 $509 reversed $338 $-1 #
vertex $-1 $509 $510 #
straight-curve $-1 49.999999999999986 9.9999999999999982 -15 0 0 -1 I I #
edge $-1 $505 -30 $218 -10.000000000000004 $347 $511 forward 7 unknown #
point $-1 49.999999999999915 10.000000000000004 -15 #
point $-1 29.999999999999986 29.999999999999929 -15 #
face $-1 $377 $372 $28 $-1 $512 forward single #
loop $-1 $-1 $513 $221 #
cone-surface $-1 -19.000000000000014 0 -10 0 0 1 -17.677669529663699 -17.677669529663699 0 1 I I 0 1 25.000000000000014 forward I I I I #
coedge $-1 $514 $515 $516 $517 forward $222 $-1 #
coedge $-1 $518 $224 $515 $519 reversed $134 $-1 #
coedge $-1 $224 $518 $225 $363 forward $134 $-1 #
coedge $-1 $227 $516 $224 $361 reversed $234 $-1 #
edge $-1 $364 -0.78539816339744828 $520 0.78539816339744828 $224 $521 forward 7 unknown #
coedge $-1 $226 $225 $522 $523 reversed $84 $-1 #
edge $-1 $524 0 $364 25 $359 $525 forward 7 unknown #
vertex $-1 $363 $526 #
straight-curve $-1 -1.0000000000000142 0 15 0 -1 0 I I #
coedge $-1 $522 $527 $229 $367 forward $528 $-1 #
edge $529 $373 -0.78539816339744828 $368 0.78539816339744828 $229 $530 forward 7 unknown #
vertex $-1 $367 $531 #
straight-curve $-1 -1.0000000000000142 22 -10 0 0 1 I I #
coedge $-1 $532 $231 $527 $533 reversed $372 $-1 #
coedge $-1 $231 $532 $233 $376 forward $372 $-1 #
loop $-1 $-1 $371 $354 #
vertex $-1 $533 $534 #
straight-curve $-1 -4.0000000000000142 25 -10 0 0 1 I I #
coedge $-1 $516 $233 $513 $535 reversed $234 $-1 #
edge $-1 $536 -8.2499999999999964 $235 6.7500000000000036 $371 $537 forward 7 unknown #
face $-1 $538 $234 $28 $-1 $539 forward single #
point $-1 -4.0000000000000142 25 15 #
point $-1 -1.0000000000000142 22 15 #
face $-1 $540 $541 $30 $-1 $542 forward single #
loop $-1 $-1 $543 $238 #
plane-surface $-1 43.999999999999986 5 -10 1 0 0 0 0 -1 forward_v I I I I #
coedge $-1 $544 $545 $546 $547 forward $239 $-1 #
coedge $-1 $548 $241 $545 $549 reversed $142 $-1 #
coedge $-1 $241 $548 $242 $389 forward $142 $-1 #
coedge $-1 $244 $546 $241 $387 reversed $251 $-1 #
edge $-1 $390 -6.75 $550 13.25 $241 $551 forward 7 unknown #
coedge $-1 $243 $242 $552 $553 reversed $88 $-1 #
edge $-1 $554 0 $390 25 $385 $555 forward 7 unknown #
vertex $-1 $389 $556 #
ellipse-curve $-1 3.9999999999999858 22 15 0 0 -1 -2.1213203435596402 2.1213203435596402 0 1 I I #
coedge $-1 $552 $557 $246 $393 forward $558 $-1 #
edge $559 $400 -22 $395 22 $246 $560 forward 7 unknown #
convexity-sys-attrib $-1 $-1 $-1 $247 #
vertex $-1 $393 $561 #
straight-curve $-1 0.99999999999998579 22 -10 0 0 1 I I #
coedge $-1 $562 $248 $557 $563 reversed $399 $-1 #
coedge $-1 $248 $562 $250 $403 forward $399 $-1 #
loop $-1 $-1 $398 $564 #
vertex $-1 $563 $565 #
straight-curve $-1 0.99999999999998579 -22 -10 0 0 1 I I #
coedge $-1 $566 $250 $567 $568 reversed $251 $-1 #
edge $-1 $569 -0.78539816339744828 $252 0.78539816339744828 $398 $570 forward 7 unknown #
face $-1 $571 $251 $30 $-1 $572 forward single #
point $-1 0.99999999999998579 -22 15 #
point $-1 0.99999999999998579 22 15 #
model_id-kcp-attrib $-1 $-1 $-1 $256 1 990548853 70 -1203372031 8 #
face $573 $574 $431 $9 $-1 $575 reversed single #
loop $-1 $-1 $285 $256 #
cone-surface $-1 24 5 5 0 0 -1 14.142135623730899 14.142135623730899 0 1 I I 0 1 19.999999999999929 forward I I I I #
coedge $-1 $258 $576 $413 $577 reversed $151 $-1 #
edge $-1 $418 -0.78539816339744828 $269 0.78539816339744828 $258 $578 forward 7 unknown #
coedge $-1 $260 $259 $411 $577 forward $93 $-1 #
coedge $-1 $579 $285 $260 $415 reversed $409 $-1 #
edge $-1 $580 -15 $416 10 $260 $581 forward 7 unknown #
vertex $-1 $286 $582 #
straight-curve $-1 -0.5 25 15 1 0 0 I I #
vertex $-1 $412 $583 #
straight-curve $-1 4 25 5 0 0 -1 I I #
point $-1 4 25 15 #
straight-curve $-1 1 0 -10 0 1 0 I I #
point $-1 1 22 -10 #
coedge $-1 $584 $272 $585 $586 forward $151 $-1 #
coedge $-1 $279 $585 $274 $425 reversed $431 $-1 #
edge $-1 $281 -10 $426 15 $274 $587 forward 7 unknown #
vertex $-1 $425 $588 #
straight-curve $-1 -1 -25 -10 -1 0 0 I I #
coedge $-1 $589 $590 $278 $429 reversed $591 $-1 #
edge $-1 $441 -5 $432 5 $278 $592 forward 7 unknown #
coedge $-1 $585 $279 $590 $593 reversed $431 $-1 #
loop $-1 $-1 $279 $408 #
vertex $-1 $280 $594 #
ellipse-curve $-1 24 -5 15 0 0 -1 14.142135623730899 -14.142135623730899 0 1 I I #
point $-1 24 -25 15 #
coedge $-1 $595 $596 $597 $598 reversed $283 $-1 #
coedge $-1 $599 $284 $600 $601 forward $173 $-1 #
coedge $-1 $284 $602 $603 $604 forward $173 $-1 #
coedge $-1 $605 $606 $284 $439 reversed $607 $-1 #
edge $-1 $608 -0.78539816339744828 $609 0.78539816339744828 $284 $610 forward 7 unknown #
coedge $-1 $285 $579 $589 $611 reversed $409 $-1 #
vertex $-1 $286 $612 #
ellipse-curve $-1 24 5 15 0 0 -1 14.142135623730899 14.142135623730899 0 1 I I #
model_id-kcp-attrib $-1 $-1 $-1 $288 1 990548853 70 -1203372031 24 #
face $613 $-1 $614 $9 $-1 $615 reversed single #
loop $-1 $-1 $616 $288 #
cone-surface $-1 -20 0 0 0 0 -1 -21.213203435596402 -21.213203435596402 0 1 I I 0 1 29.999999999999964 forward I I I I #
model_id-kcp-attrib $-1 $-1 $-1 $291 1 990548853 80 -1202716670 6 #
plane-surface $-1 49.999999999999986 0 0 -1 0 0 0 0 1 forward_v I I I I #
coedge $-1 $296 $294 $298 $453 reversed $179 $-1 #
edge $-1 $309 -15 $455 15 $308 $617 forward 7 unknown #
vertex $-1 $453 $618 #
straight-curve $-1 -49.999999999999986 -30 0 0 0 -1 I I #
edge $-1 $451 -30 $455 30 $449 $619 forward 7 unknown #
straight-curve $-1 0 -30 -15 -1 0 0 I I #
vertex $-1 $301 $620 #
straight-curve $-1 0 30 -15 1 0 0 I I #
point $-1 49.999999999999986 30 -15 #
point $-1 49.999999999999986 -30 -15 #
straight-curve $-1 -49.999999999999986 0 15 0 -1 0 I I #
point $-1 -49.999999999999986 30 15 #
point $-1 -49.999999999999986 -30 15 #
straight-curve $-1 49.999999999999986 -30 0 0 0 -1 I I #
straight-curve $-1 49.999999999999986 30 0 0 0 -1 I I #
face $-1 $621 $622 $50 $-1 $127 reversed single #
loop $-1 $-1 $623 $318 #
plane-surface $-1 0 -30 0 0 1 0 0 0 1 forward_v I I I I #
coedge $-1 $475 $624 $625 $626 forward $319 $-1 #
coedge $-1 $469 $320 $627 $628 forward $198 $-1 #
coedge $-1 $320 $468 $477 $629 forward $198 $-1 #
coedge $-1 $479 $630 $320 $471 reversed $631 $-1 #
edge $-1 $481 1.5707963267948966 $632 3.1415926535897931 $320 $633 forward 7 unknown #
coedge $-1 $322 $321 $634 $635 reversed $119 $-1 #
coedge $-1 $636 $637 $321 $474 forward $622 $-1 #
edge $-1 $638 -30 $482 0 $321 $639 forward 7 unknown #
coedge $-1 $624 $467 $322 $476 forward $319 $-1 #
edge $-1 $481 0 $640 30 $322 $641 forward 7 unknown #
coedge $-1 $642 $323 $469 $629 reversed $480 $-1 #
coedge $-1 $323 $642 $643 $644 reversed $480 $-1 #
coedge $-1 $645 $470 $646 $324 forward $631 $-1 #
loop $-1 $-1 $323 $647 #
vertex $-1 $476 $648 #
vertex $-1 $644 $649 #
straight-curve $-1 -49.999999999999986 0 -15 0 0 -1 I I #
loop $-1 $-1 $331 $325 #
coedge $-1 $650 $487 $330 $492 forward $326 $-1 #
coedge $-1 $328 $327 $651 $652 forward $122 $-1 #
coedge $-1 $485 $650 $327 $488 forward $326 $-1 #
edge $-1 $653 -30 $490 -10.000000000000004 $327 $654 forward 7 unknown #
edge $-1 $336 10.000000000000004 $655 30 $328 $511 forward 7 unknown #
vertex $-1 $492 $656 #
straight-curve $-1 49.999999999999986 -9.9999999999999982 -15 0 0 -1 I I #
edge $-1 $490 8.8817841970012836e-017 $495 1.5707963267948963 $485 $657 forward 7 unknown #
coedge $-1 $651 $331 $334 $497 reversed $484 $-1 #
coedge $-1 $331 $651 $650 $658 reversed $484 $-1 #
vertex $-1 $658 $659 #
straight-curve $-1 29.999999999999986 -30 -15 0 0 -1 I I #
edge $-1 $655 -49.999999999999986 $335 -29.999999999999986 $493 $660 forward 7 unknown #
point $-1 29.999999999999986 -29.999999999999996 -15 #
point $-1 49.999999999999915 -10.000000000000004 -15 #
coedge $-1 $341 $339 $348 $509 forward $209 $-1 #
coedge $-1 $348 $347 $340 $502 reversed $338 $-1 #
edge $-1 $503 -15 $505 15 $501 $661 forward 7 unknown #
vertex $-1 $509 $662 #
straight-curve $-1 0 30 15 -1 0 0 I I #
vertex $-1 $351 $663 #
straight-curve $-1 0 30 -15 1 0 0 I I #
point $-1 29.999999999999986 29.999999999999929 15 #
ellipse-curve $-1 29.999999999999986 9.9999999999999982 15 0 0 -1 0 19.999999999999929 0 1 I I #
edge $-1 $349 10.000000000000004 $503 30 $348 $654 forward 7 unknown #
point $-1 49.999999999999915 10.000000000000004 15 #
straight-curve $-1 49.999999999999986 0 -15 0 -1 0 I I #
plane-surface $-1 -19.000000000000014 25 -10 0 1 0 0 0 1 forward_v I I I I #
coedge $-1 $664 $665 $375 $535 forward $355 $-1 #
coedge $-1 $666 $357 $665 $667 reversed $222 $-1 #
coedge $-1 $357 $666 $358 $519 forward $222 $-1 #
coedge $-1 $360 $375 $357 $517 reversed $234 $-1 #
edge $-1 $520 -6.7500000000000036 $668 8.2499999999999964 $357 $669 forward 7 unknown #
coedge $-1 $359 $358 $670 $671 reversed $134 $-1 #
edge $-1 $672 0 $520 25 $515 $673 forward 7 unknown #
vertex $-1 $519 $674 #
ellipse-curve $-1 -4.0000000000000142 -22 15 0 0 -1 2.1213203435596402 -2.1213203435596402 0 1 I I #
coedge $-1 $670 $366 $362 $523 forward $528 $-1 #
edge $675 $368 -22 $524 22 $362 $676 forward 7 unknown #
vertex $-1 $523 $677 #
straight-curve $-1 -1.0000000000000142 -22 -10 0 0 1 I I #
point $-1 -1.0000000000000142 -22 15 #
coedge $-1 $366 $678 $370 $533 forward $528 $-1 #
loop $-1 $-1 $527 $538 #
convexity-sys-attrib $-1 $-1 $-1 $367 #
ellipse-curve $-1 -4.0000000000000142 22 -10 0 0 -1 2.1213203435596402 2.1213203435596402 0 1 I I #
point $-1 -1.0000000000000142 22 -10 #
coedge $-1 $371 $370 $664 $679 forward $372 $-1 #
edge $680 $681 -8.2499999999999964 $373 6.7500000000000036 $370 $682 forward 7 unknown #
point $-1 -4.0000000000000142 25 -10 #
edge $-1 $668 -0.78539816339744828 $536 2.3561944901923448 $513 $683 forward 7 unknown #
vertex $-1 $679 $684 #
straight-curve $-1 -10.750000000000018 25 15 1 0 0 I I #
face $-1 $-1 $528 $28 $-1 $685 reversed single #
plane-surface $-1 -18.697558390402975 -4.4408920985006262e-016 15 0 0 1 1 0 0 forward_v I I I I #
face $-1 $564 $686 $30 $-1 $687 forward single #
loop $-1 $-1 $688 $380 #
cone-surface $-1 23.999999999999986 -5 -10 0 0 1 14.142135623730899 -14.142135623730899 0 1 I I 0 1 19.999999999999929 forward I I I I #
coedge $-1 $689 $690 $691 $692 forward $381 $-1 #
coedge $-1 $693 $383 $690 $694 reversed $239 $-1 #
coedge $-1 $383 $693 $384 $549 forward $239 $-1 #
coedge $-1 $386 $691 $383 $547 reversed $251 $-1 #
edge $-1 $550 -0.78539816339744828 $695 0.78539816339744828 $383 $696 forward 7 unknown #
coedge $-1 $385 $384 $697 $698 reversed $142 $-1 #
edge $-1 $699 0 $550 25 $545 $700 forward 7 unknown #
vertex $-1 $549 $701 #
straight-curve $-1 10.749999999999986 25 15 1 0 0 I I #
coedge $-1 $697 $392 $388 $553 forward $558 $-1 #
edge $702 $395 -0.78539816339744828 $554 0.78539816339744828 $388 $703 forward 7 unknown #
vertex $-1 $553 $704 #
straight-curve $-1 3.9999999999999858 25 -10 0 0 1 I I #
point $-1 3.9999999999999858 25 15 #
coedge $-1 $392 $705 $397 $563 forward $558 $-1 #
loop $-1 $-1 $557 $571 #
convexity-sys-attrib $-1 $-1 $-1 $393 #
straight-curve $-1 0.99999999999998579 0 -10 0 1 0 I I #
point $-1 0.99999999999998579 22 -10 #
coedge $-1 $398 $397 $706 $707 forward $399 $-1 #
edge $708 $709 -0.78539816339744828 $400 0.78539816339744828 $397 $710 forward 7 unknown #
face $-1 $404 $399 $30 $-1 $711 forward single #
point $-1 0.99999999999998579 -22 -10 #
coedge $-1 $691 $402 $688 $712 reversed $251 $-1 #
coedge $-1 $706 $713 $402 $568 forward $686 $-1 #
edge $-1 $714 -13.25 $569 6.75 $567 $715 forward 7 unknown #
vertex $-1 $707 $716 #
ellipse-curve $-1 3.9999999999999858 -22 15 0 0 -1 -2.1213203435596402 -2.1213203435596402 0 1 I I #
face $-1 $-1 $558 $30 $-1 $717 reversed single #
plane-surface $-1 20.179315407585516 8.8347569717770801e-018 15 0 0 1 1 0 0 forward_v I I I I #
model_id-kcp-attrib $-1 $-1 $-1 $408 1 990548853 70 -1203372031 9 #
face $718 $719 $591 $9 $-1 $720 forward single #
cone-surface $-1 24 -5 5 0 0 -1 14.142135623730899 -14.142135623730899 0 1 I I 0 1 19.999999999999929 forward I I I I #
coedge $-1 $411 $584 $579 $721 forward $151 $-1 #
edge $-1 $418 5 $580 25 $413 $722 forward 7 unknown #
ellipse-curve $-1 4 22 -10 0 0 1 -2.1213203435596402 2.1213203435596402 0 1 I I #
coedge $-1 $440 $414 $576 $721 reversed $409 $-1 #
vertex $-1 $577 $723 #
straight-curve $-1 24 25 5 0 0 1 I I #
point $-1 24 25 15 #
point $-1 4 25 -10 #
coedge $-1 $576 $423 $724 $725 reversed $151 $-1 #
coedge $-1 $424 $430 $423 $586 reversed $431 $-1 #
edge $-1 $426 -0.78539816339744828 $726 0.78539816339744828 $423 $727 forward 7 unknown #
straight-curve $-1 24 -25 5 0 0 -1 I I #
point $-1 24 -25 -10 #
coedge $-1 $724 $428 $440 $611 forward $591 $-1 #
coedge $-1 $428 $724 $430 $593 forward $591 $-1 #
loop $-1 $-1 $428 $574 #
straight-curve $-1 44 0 15 0 -1 0 I I #
edge $-1 $726 -15 $432 10 $590 $728 forward 7 unknown #
point $-1 44 -5 15 #
coedge $-1 $729 $435 $730 $731 forward $283 $-1 #
coedge $-1 $435 $732 $733 $734 forward $283 $-1 #
coedge $-1 $735 $736 $435 $598 forward $737 $-1 #
edge $-1 $738 -0.78539816339744828 $739 0.78539816339744828 $435 $740 forward 7 unknown #
coedge $-1 $741 $436 $742 $743 forward $173 $-1 #
coedge $-1 $744 $745 $436 $601 reversed $746 $-1 #
edge $-1 $609 4.5 $747 19.5 $436 $748 forward 7 unknown #
coedge $-1 $437 $741 $749 $750 forward $173 $-1 #
coedge $-1 $751 $752 $437 $604 reversed $753 $-1 #
edge $-1 $754 -22 $608 22 $437 $755 forward 7 unknown #
coedge $-1 $756 $438 $752 $757 reversed $607 $-1 #
coedge $-1 $438 $756 $744 $758 reversed $607 $-1 #
loop $-1 $-1 $438 $759 #
vertex $-1 $439 $760 #
vertex $-1 $439 $761 #
ellipse-curve $-1 -4 -22 15 0 0 -1 2.1213203435596402 -2.1213203435596402 0 1 I I #
edge $-1 $441 -10 $762 15 $589 $763 forward 7 unknown #
point $-1 44 5 15 #
model_id-kcp-attrib $-1 $-1 $-1 $444 1 990548853 70 -1203372031 25 #
loop $-1 $-1 $764 $444 #
plane-surface $-1 50 0 0 -1 0 0 0 0 1 forward_v I I I I #
coedge $-1 $765 $766 $767 $768 forward $445 $-1 #
straight-curve $-1 -49.999999999999986 30 0 0 0 -1 I I #
point $-1 -49.999999999999986 -30 -15 #
straight-curve $-1 -49.999999999999986 0 -15 0 1 0 I I #
point $-1 -49.999999999999986 30 -15 #
face $-1 $647 $769 $50 $-1 $127 reversed single #
loop $-1 $-1 $636 $464 #
coedge $-1 $770 $771 $772 $773 reversed $465 $-1 #
coedge $-1 $467 $475 $770 $774 forward $319 $-1 #
coedge $-1 $772 $646 $467 $626 reversed $775 $-1 #
edge $-1 $776 0 $481 1.5707963267948966 $467 $633 forward 7 unknown #
coedge $-1 $777 $778 $468 $628 reversed $779 $-1 #
edge $-1 $632 20.000000000000014 $780 49.999999999999986 $627 $504 forward 7 unknown #
edge $-1 $780 -30 $481 0 $477 $641 forward 7 unknown #
coedge $-1 $470 $645 $777 $781 reversed $631 $-1 #
loop $-1 $-1 $645 $782 #
vertex $-1 $628 $783 #
ellipse-curve $-1 -20.000000000000014 0 15 0 0 -1 0 -29.999999999999964 0 1 I I #
coedge $-1 $771 $770 $472 $635 forward $465 $-1 #
edge $-1 $640 -15 $638 15 $472 $784 forward 7 unknown #
coedge $-1 $637 $473 $785 $786 forward $622 $-1 #
coedge $-1 $473 $636 $771 $787 forward $622 $-1 #
vertex $-1 $474 $788 #
straight-curve $-1 -49.999999999999986 0 -15 0 1 0 I I #
vertex $-1 $476 $789 #
straight-curve $-1 -49.999999999999986 0 15 0 -1 0 I I #
coedge $-1 $478 $477 $778 $790 forward $480 $-1 #
coedge $-1 $791 $792 $478 $644 forward $769 $-1 #
edge $-1 $482 0 $793 30 $478 $639 forward 7 unknown #
coedge $-1 $630 $479 $792 $794 reversed $631 $-1 #
coedge $-1 $625 $785 $200 $324 reversed $775 $-1 #
face $-1 $795 $480 $50 $-1 $120 reversed single #
point $-1 -49.999999999999986 0 14.999999999999996 #
point $-1 -49.999999999999986 0 -15 #
coedge $-1 $487 $485 $494 $658 forward $326 $-1 #
coedge $-1 $494 $493 $486 $652 reversed $484 $-1 #
edge $-1 $653 -15 $655 15 $486 $796 forward 7 unknown #
vertex $-1 $488 $797 #
straight-curve $-1 49.999999999999986 0 15 0 1 0 I I #
vertex $-1 $652 $798 #
point $-1 49.999999999999915 -10.000000000000004 15 #
ellipse-curve $-1 29.999999999999986 -9.9999999999999982 15 0 0 -1 19.999999999999929 -3.5527136788005009e-015 0 1 I I #
edge $-1 $495 29.999999999999986 $653 49.999999999999986 $494 $799 forward 7 unknown #
point $-1 29.999999999999986 -29.999999999999996 15 #
straight-curve $-1 0 -30 -15 -1 0 0 I I #
straight-curve $-1 49.999999999999986 30 0 0 0 -1 I I #
point $-1 49.999999999999986 30 15 #
point $-1 49.999999999999986 30 -15 #
coedge $-1 $800 $513 $532 $679 reversed $355 $-1 #
coedge $-1 $513 $800 $514 $667 forward $355 $-1 #
coedge $-1 $515 $514 $801 $802 reversed $222 $-1 #
edge $-1 $803 0 $668 25 $665 $804 forward 7 unknown #
vertex $-1 $667 $805 #
straight-curve $-1 -10.750000000000018 -25 15 -1 0 0 I I #
coedge $-1 $801 $522 $518 $671 forward $528 $-1 #
edge $806 $524 -0.78539816339744828 $672 0.78539816339744828 $518 $807 forward 7 unknown #
vertex $-1 $671 $808 #
straight-curve $-1 -4.0000000000000142 -25 -10 0 0 1 I I #
point $-1 -4.0000000000000142 -25 15 #
convexity-sys-attrib $-1 $-1 $-1 $523 #
straight-curve $-1 -1.0000000000000142 0 -10 0 -1 0 I I #
point $-1 -1.0000000000000142 -22 -10 #
coedge $-1 $527 $801 $800 $809 forward $528 $-1 #
edge $-1 $681 0 $536 25 $532 $810 forward 7 unknown #
convexity-sys-attrib $-1 $-1 $-1 $533 #
vertex $-1 $533 $811 #
straight-curve $-1 -10.750000000000018 25 -10 1 0 0 I I #
ellipse-curve $-1 -19.000000000000014 0 15 0 0 -1 -17.677669529663699 -17.677669529663699 0 1 I I #
point $-1 -19.000000000000014 25 15 #
plane-surface $-1 -18.697558390402975 -4.4408920985006262e-016 -10 0 0 1 1 0 0 forward_v I I I I #
loop $-1 $-1 $567 $540 #
plane-surface $-1 23.999999999999986 -25 -10 0 -1 0 0 0 -1 forward_v I I I I #
coedge $-1 $812 $813 $566 $712 forward $541 $-1 #
coedge $-1 $814 $543 $813 $815 reversed $381 $-1 #
coedge $-1 $543 $814 $544 $694 forward $381 $-1 #
coedge $-1 $546 $566 $543 $692 reversed $251 $-1 #
edge $-1 $695 -5 $816 5 $543 $817 forward 7 unknown #
coedge $-1 $545 $544 $818 $819 reversed $239 $-1 #
edge $-1 $820 0 $695 25 $690 $821 forward 7 unknown #
vertex $-1 $694 $822 #
ellipse-curve $-1 23.999999999999986 5 15 0 0 -1 14.142135623730899 14.142135623730899 0 1 I I #
coedge $-1 $818 $552 $548 $698 forward $558 $-1 #
edge $823 $554 -6.75 $699 13.25 $548 $824 forward 7 unknown #
vertex $-1 $698 $825 #
straight-curve $-1 23.999999999999986 25 -10 0 0 1 I I #
point $-1 23.999999999999986 25 15 #
convexity-sys-attrib $-1 $-1 $-1 $553 #
ellipse-curve $-1 3.9999999999999858 22 -10 0 0 -1 -2.1213203435596402 2.1213203435596402 0 1 I I #
point $-1 3.9999999999999858 25 -10 #
coedge $-1 $557 $826 $827 $828 forward $558 $-1 #
coedge $-1 $827 $567 $562 $707 reversed $686 $-1 #
edge $-1 $709 0 $569 25 $562 $829 forward 7 unknown #
convexity-sys-attrib $-1 $-1 $-1 $563 #
vertex $-1 $563 $830 #
ellipse-curve $-1 3.9999999999999858 -22 -10 0 0 -1 -2.1213203435596402 -2.1213203435596402 0 1 I I #
cone-surface $-1 3.9999999999999858 -22 -10 0 0 1 -2.1213203435596402 -2.1213203435596402 0 1 I I 0 1 2.9999999999999964 forward I I I I #
edge $-1 $816 -0.78539816339744828 $714 0.78539816339744828 $688 $831 forward 7 unknown #
coedge $-1 $567 $827 $812 $832 forward $686 $-1 #
vertex $-1 $832 $833 #
straight-curve $-1 10.749999999999986 -25 15 -1 0 0 I I #
point $-1 3.9999999999999858 -25 15 #
plane-surface $-1 20.179315407585516 8.8347569717770801e-018 -10 0 0 1 1 0 0 forward_v I I I I #
model_id-kcp-attrib $-1 $-1 $-1 $574 1 990548853 70 -1203372031 10 #
face $834 $835 $836 $9 $-1 $837 forward single #
plane-surface $-1 44 0 5 -1 0 0 0 0 1 forward_v I I I I #
edge $-1 $762 -0.78539816339744828 $580 0.78539816339744828 $576 $838 forward 7 unknown #
straight-curve $-1 -1 25 -10 1 0 0 I I #
point $-1 24 25 -10 #
coedge $-1 $590 $589 $584 $725 forward $591 $-1 #
edge $-1 $762 -5 $726 5 $724 $839 forward 7 unknown #
vertex $-1 $725 $840 #
ellipse-curve $-1 24 -5 -10 0 0 1 14.142135623730899 -14.142135623730899 0 1 I I #
straight-curve $-1 44 -5 5 0 0 1 I I #
coedge $-1 $841 $595 $765 $842 reversed $283 $-1 #
coedge $-1 $843 $844 $595 $731 reversed $845 $-1 #
edge $846 $738 -30 $847 20 $730 $848 forward 7 unknown #
coedge $-1 $596 $841 $849 $850 reversed $283 $-1 #
coedge $-1 $851 $764 $596 $734 reversed $614 $-1 #
edge $852 $853 -10 $739 10 $733 $854 forward 7 unknown #
coedge $-1 $855 $597 $764 $856 forward $737 $-1 #
coedge $-1 $597 $855 $843 $857 forward $737 $-1 #
loop $-1 $-1 $736 $858 #
vertex $-1 $857 $859 #
vertex $-1 $734 $860 #
ellipse-curve $-1 30 10 15 0 0 -1 14.142135623730899 14.142135623730899 0 1 I I #
coedge $-1 $602 $599 $861 $862 forward $173 $-1 #
coedge $-1 $863 $864 $599 $743 reversed $865 $-1 #
edge $-1 $747 -0.78539816339744828 $866 2.3561944901923448 $599 $867 forward 7 unknown #
coedge $-1 $868 $600 $606 $758 forward $746 $-1 #
coedge $-1 $600 $868 $863 $869 forward $746 $-1 #
loop $-1 $-1 $600 $870 #
vertex $-1 $601 $871 #
straight-curve $-1 0.5 -25 15 -1 0 0 I I #
coedge $-1 $872 $873 $602 $750 reversed $874 $-1 #
edge $-1 $875 -0.78539816339744828 $754 0.78539816339744828 $602 $876 forward 7 unknown #
coedge $-1 $877 $603 $873 $878 forward $753 $-1 #
coedge $-1 $603 $877 $605 $757 forward $753 $-1 #
loop $-1 $-1 $603 $879 #
vertex $-1 $750 $880 #
straight-curve $-1 -1 0 15 0 -1 0 I I #
coedge $-1 $606 $605 $881 $882 reversed $607 $-1 #
edge $-1 $883 -15 $608 10 $752 $884 forward 7 unknown #
edge $-1 $609 -10 $885 15 $744 $886 forward 7 unknown #
face $887 $870 $607 $9 $-1 $888 reversed single #
point $-1 -1 -22 15 #
point $-1 -4 -25 15 #
vertex $-1 $721 $889 #
straight-curve $-1 44 5 5 0 0 -1 I I #
coedge $-1 $733 $890 $735 $856 reversed $614 $-1 #
coedge $-1 $891 $616 $729 $842 forward $445 $-1 #
coedge $-1 $616 $891 $892 $893 forward $445 $-1 #
coedge $-1 $894 $895 $616 $768 reversed $896 $-1 #
edge $-1 $897 -15 $898 15 $767 $899 forward 7 unknown #
loop $-1 $-1 $792 $621 #
coedge $-1 $634 $623 $624 $774 reversed $465 $-1 #
coedge $-1 $623 $634 $637 $787 reversed $465 $-1 #
coedge $-1 $785 $625 $623 $773 forward $775 $-1 #
edge $-1 $776 -30 $900 0 $623 $901 forward 7 unknown #
edge $-1 $640 -49.999999999999986 $776 -20.000000000000014 $770 $799 forward 7 unknown #
loop $-1 $-1 $785 $902 #
vertex $-1 $626 $903 #
coedge $-1 $904 $627 $630 $781 forward $779 $-1 #
coedge $-1 $627 $904 $642 $790 reversed $779 $-1 #
loop $-1 $-1 $777 $795 #
vertex $-1 $628 $905 #
edge $-1 $632 -30 $906 0 $777 $907 forward 7 unknown #
face $-1 $902 $631 $50 $-1 $908 reversed single #
point $-1 -20.000000000000014 30 15 #
straight-curve $-1 -49.999999999999986 -30 0 0 0 -1 I I #
coedge $-1 $646 $772 $636 $786 reversed $775 $-1 #
edge $-1 $482 -1.5707963267948966 $900 0 $636 $909 forward 7 unknown #
edge $-1 $900 20.000000000000014 $638 49.999999999999986 $771 $660 forward 7 unknown #
point $-1 -49.999999999999986 -30 -15 #
point $-1 -49.999999999999986 -30 15 #
edge $-1 $780 -15 $793 15 $778 $910 forward 7 unknown #
coedge $-1 $792 $643 $904 $911 forward $769 $-1 #
coedge $-1 $643 $791 $645 $794 forward $769 $-1 #
vertex $-1 $911 $912 #
edge $-1 $906 -3.1415926535897931 $482 -1.5707963267948966 $792 $909 forward 7 unknown #
face $-1 $782 $779 $50 $-1 $81 reversed single #
straight-curve $-1 49.999999999999986 -30 0 0 0 -1 I I #
point $-1 49.999999999999986 -30 15 #
point $-1 49.999999999999986 -30 -15 #
straight-curve $-1 0 -30 15 1 0 0 I I #
coedge $-1 $665 $664 $678 $809 reversed $355 $-1 #
coedge $-1 $678 $670 $666 $802 forward $528 $-1 #
edge $913 $672 -6.7500000000000036 $803 8.2499999999999964 $666 $914 forward 7 unknown #
vertex $-1 $802 $915 #
straight-curve $-1 -19.000000000000014 -25 -10 0 0 1 I I #
point $-1 -19.000000000000014 -25 15 #
convexity-sys-attrib $-1 $-1 $-1 $671 #
ellipse-curve $-1 -4.0000000000000142 -22 -10 0 0 -1 2.1213203435596402 -2.1213203435596402 0 1 I I #
point $-1 -4.0000000000000142 -25 -10 #
edge $916 $803 -0.78539816339744828 $681 2.3561944901923448 $800 $917 forward 7 unknown #
straight-curve $-1 -19.000000000000014 25 -10 0 0 1 I I #
point $-1 -19.000000000000014 25 -10 #
coedge $-1 $918 $688 $713 $832 reversed $541 $-1 #
coedge $-1 $688 $918 $689 $815 forward $541 $-1 #
coedge $-1 $690 $689 $919 $920 reversed $381 $-1 #
edge $-1 $921 0 $816 25 $813 $922 forward 7 unknown #
vertex $-1 $815 $923 #
straight-curve $-1 43.999999999999986 0 15 0 -1 0 I I #
coedge $-1 $919 $697 $693 $819 forward $558 $-1 #
edge $924 $699 -0.78539816339744828 $820 0.78539816339744828 $693 $925 forward 7 unknown #
vertex $-1 $819 $926 #
straight-curve $-1 43.999999999999986 5 -10 0 0 1 I I #
point $-1 43.999999999999986 5 15 #
convexity-sys-attrib $-1 $-1 $-1 $698 #
straight-curve $-1 10.749999999999986 25 -10 1 0 0 I I #
point $-1 23.999999999999986 25 -10 #
coedge $-1 $705 $919 $918 $927 forward $558 $-1 #
coedge $-1 $713 $706 $705 $828 reversed $686 $-1 #
edge $928 $929 -13.25 $709 6.75 $827 $930 forward 7 unknown #
straight-curve $-1 3.9999999999999858 -25 -10 0 0 1 I I #
point $-1 3.9999999999999858 -25 -10 #
ellipse-curve $-1 23.999999999999986 -5 15 0 0 -1 14.142135623730899 -14.142135623730899 0 1 I I #
edge $-1 $929 0 $714 25 $713 $931 forward 7 unknown #
point $-1 23.999999999999986 -25 15 #
model_id-kcp-attrib $-1 $-1 $-1 $719 1 990548853 70 -1203372031 11 #
face $932 $879 $874 $9 $-1 $933 reversed single #
loop $-1 $-1 $861 $719 #
plane-surface $-1 1 25 5 0 -1 0 0 0 -1 forward_v I I I I #
ellipse-curve $-1 24 5 -10 0 0 1 14.142135623730899 14.142135623730899 0 1 I I #
straight-curve $-1 44 0 -10 0 -1 0 I I #
point $-1 44 -5 -10 #
coedge $-1 $732 $729 $895 $934 forward $283 $-1 #
edge $-1 $898 -2.3561944901923448 $847 0.78539816339744828 $729 $935 forward 7 unknown #
coedge $-1 $936 $730 $736 $857 reversed $845 $-1 #
coedge $-1 $730 $936 $891 $937 reversed $845 $-1 #
loop $-1 $-1 $843 $938 #
model_id-kcp-attrib $-1 $939 $-1 $731 1 990548853 70 -1203372031 29 #
vertex $-1 $731 $940 #
straight-curve $-1 0 30 15 -1 0 0 I I #
coedge $-1 $941 $942 $732 $850 forward $943 $-1 #
edge $-1 $853 -0.78539816339744828 $944 0.78539816339744828 $732 $945 forward 7 unknown #
coedge $-1 $890 $733 $942 $946 reversed $614 $-1 #
model_id-kcp-attrib $-1 $947 $-1 $734 1 990548853 70 -1203372031 27 #
vertex $-1 $850 $948 #
straight-curve $-1 50 0 15 0 1 0 I I #
coedge $-1 $736 $735 $949 $950 forward $737 $-1 #
edge $951 $739 -15 $952 15 $764 $953 forward 7 unknown #
edge $954 $955 -15 $738 15 $843 $956 forward 7 unknown #
face $957 $938 $737 $9 $-1 $958 forward single #
point $-1 30 30 15 #
point $-1 50 10 15 #
coedge $-1 $959 $960 $741 $862 reversed $836 $-1 #
edge $-1 $866 -19.5 $875 -4.5 $741 $961 forward 7 unknown #
coedge $-1 $962 $742 $745 $869 reversed $865 $-1 #
coedge $-1 $742 $962 $959 $963 reversed $865 $-1 #
loop $-1 $-1 $742 $964 #
vertex $-1 $862 $965 #
ellipse-curve $-1 -19 0 15 0 0 -1 -17.677669529663699 -17.677669529663699 0 1 I I #
coedge $-1 $745 $744 $966 $967 forward $746 $-1 #
edge $-1 $968 -15 $747 10 $745 $969 forward 7 unknown #
face $970 $964 $746 $9 $-1 $971 forward single #
point $-1 -19 -25 15 #
coedge $-1 $972 $749 $960 $973 reversed $874 $-1 #
coedge $-1 $749 $972 $751 $878 reversed $874 $-1 #
loop $-1 $-1 $749 $835 #
vertex $-1 $750 $974 #
ellipse-curve $-1 -4 22 15 0 0 -1 2.1213203435596402 2.1213203435596402 0 1 I I #
coedge $-1 $752 $751 $975 $976 forward $753 $-1 #
edge $-1 $754 -10 $977 15 $751 $978 forward 7 unknown #
face $979 $980 $753 $9 $-1 $981 reversed single #
point $-1 -1 22 15 #
coedge $-1 $975 $966 $756 $882 forward $982 $-1 #
edge $-1 $885 -0.78539816339744828 $883 0.78539816339744828 $881 $983 forward 7 unknown #
vertex $-1 $976 $984 #
straight-curve $-1 -1 -22 5 0 0 1 I I #
vertex $-1 $758 $985 #
straight-curve $-1 -4 -25 5 0 0 -1 I I #
model_id-kcp-attrib $-1 $-1 $-1 $759 1 990548853 70 -1203372031 15 #
cone-surface $-1 -4 -22 5 0 0 1 2.1213203435596402 -2.1213203435596402 0 1 I I 0 1 2.9999999999999964 forward I I I I #
point $-1 44 5 -10 #
coedge $-1 $764 $851 $986 $987 reversed $614 $-1 #
coedge $-1 $766 $765 $844 $937 forward $445 $-1 #
coedge $-1 $988 $989 $766 $893 reversed $990 $-1 #
edge $991 $992 -2.3561944901923448 $897 0.78539816339744828 $892 $993 forward 7 unknown #
coedge $-1 $994 $767 $989 $995 reversed $896 $-1 #
coedge $-1 $767 $994 $841 $934 reversed $896 $-1 #
loop $-1 $-1 $994 $996 #
vertex $-1 $995 $997 #
vertex $-1 $768 $998 #
straight-curve $-1 -20 -30 0 0 0 1 I I #
vertex $-1 $787 $999 #
straight-curve $-1 -20.000000000000014 -30 -15 0 0 -1 I I #
face $-1 $-1 $775 $50 $-1 $908 reversed single #
point $-1 -20.000000000000014 -29.999999999999968 15 #
coedge $-1 $778 $777 $791 $911 reversed $779 $-1 #
point $-1 -49.999999999999986 30 15 #
vertex $-1 $794 $1000 #
straight-curve $-1 -20.000000000000014 30 -15 0 0 -1 I I #
cone-surface $-1 -20.000000000000014 0 -15 0 0 -1 0 -29.999999999999964 0 1 I I 0 1 29.999999999999964 forward I I I I #
ellipse-curve $-1 -20.000000000000014 0 -15 0 0 1 0 -29.999999999999964 0 1 I I #
straight-curve $-1 -49.999999999999986 30 0 0 0 -1 I I #
edge $-1 $793 -49.999999999999986 $906 -20.000000000000014 $904 $506 forward 7 unknown #
point $-1 -49.999999999999986 30 -15 #
convexity-sys-attrib $-1 $-1 $-1 $802 #
straight-curve $-1 -10.750000000000018 -25 -10 -1 0 0 I I #
point $-1 -19.000000000000014 -25 -10 #
convexity-sys-attrib $-1 $-1 $-1 $809 #
ellipse-curve $-1 -19.000000000000014 0 -10 0 0 -1 -17.677669529663699 -17.677669529663699 0 1 I I #
coedge $-1 $813 $812 $826 $927 reversed $541 $-1 #
coedge $-1 $826 $818 $814 $920 forward $558 $-1 #
edge $1001 $820 -5 $921 5 $814 $1002 forward 7 unknown #
vertex $-1 $920 $1003 #
straight-curve $-1 43.999999999999986 -5 -10 0 0 1 I I #
point $-1 43.999999999999986 -5 15 #
convexity-sys-attrib $-1 $-1 $-1 $819 #
ellipse-curve $-1 23.999999999999986 5 -10 0 0 -1 14.142135623730899 14.142135623730899 0 1 I I #
point $-1 43.999999999999986 5 -10 #
edge $1004 $921 -0.78539816339744828 $929 0.78539816339744828 $918 $1005 forward 7 unknown #
convexity-sys-attrib $-1 $-1 $-1 $828 #
vertex $-1 $927 $1006 #
straight-curve $-1 10.749999999999986 -25 -10 -1 0 0 I I #
straight-curve $-1 23.999999999999986 -25 -10 0 0 1 I I #
model_id-kcp-attrib $-1 $-1 $-1 $835 1 990548853 70 -1203372031 12 #
cone-surface $-1 -4 22 5 0 0 -1 2.1213203435596402 2.1213203435596402 0 1 I I 0 1 2.9999999999999964 forward I I I I #
edge $1007 $898 -20 $944 30 $895 $1008 forward 7 unknown #
ellipse-curve $-1 -20 0 15 0 0 -1 -21.213203435596402 21.213203435596402 0 1 I I #
coedge $-1 $844 $843 $988 $1009 reversed $845 $-1 #
edge $1010 $847 -15 $992 15 $844 $1011 forward 7 unknown #
face $1012 $1013 $845 $9 $-1 $1014 reversed single #
attrib_edge_convexity-kcp-attrib $-1 $1015 $846 $731 1 #
point $-1 -20 30 15 #
coedge $-1 $1016 $849 $994 $1017 forward $943 $-1 #
coedge $-1 $849 $1016 $851 $946 forward $943 $-1 #
loop $-1 $-1 $942 $1018 #
vertex $-1 $934 $1019 #
ellipse-curve $-1 30 -10 15 0 0 -1 14.142135623730899 -14.142135623730899 0 1 I I #
edge $1020 $1021 -15 $853 15 $851 $1022 forward 7 unknown #
attrib_edge_convexity-kcp-attrib $-1 $1023 $852 $734 1 #
point $-1 50 -10 15 #
coedge $-1 $986 $988 $855 $950 reversed $990 $-1 #
edge $1024 $952 -0.78539816339744828 $955 0.78539816339744828 $949 $1025 forward 7 unknown #
attrib_edge_convexity-kcp-attrib $-1 $1026 $-1 $856 3 #
vertex $-1 $950 $1027 #
straight-curve $-1 50 10 0 0 0 -1 I I #
attrib_edge_convexity-kcp-attrib $-1 $1028 $-1 $857 3 #
vertex $-1 $1009 $1029 #
straight-curve $-1 30 30 0 0 0 1 I I #
model_id-kcp-attrib $-1 $-1 $-1 $858 1 990548853 70 -1203372031 18 #
cone-surface $-1 30 10 0 0 0 -1 14.142135623730899 14.142135623730899 0 1 I I 0 1 19.999999999999929 forward I I I I #
coedge $-1 $1030 $861 $864 $963 forward $836 $-1 #
coedge $-1 $861 $1030 $872 $973 forward $836 $-1 #
straight-curve $-1 0.5 25 15 1 0 0 I I #
coedge $-1 $864 $863 $1031 $1032 reversed $865 $-1 #
edge $-1 $866 -10 $1033 15 $959 $1034 forward 7 unknown #
face $1035 $858 $865 $9 $-1 $1036 reversed single #
point $-1 -19 25 15 #
coedge $-1 $881 $1031 $868 $967 reversed $982 $-1 #
edge $-1 $885 5 $968 20 $868 $1037 forward 7 unknown #
vertex $-1 $967 $1038 #
straight-curve $-1 -19 -25 5 0 0 1 I I #
model_id-kcp-attrib $-1 $-1 $-1 $870 1 990548853 70 -1203372031 16 #
plane-surface $-1 1 -25 5 0 1 0 0 0 1 forward_v I I I I #
coedge $-1 $873 $872 $1039 $1040 reversed $874 $-1 #
edge $-1 $1041 -15 $875 10 $960 $1042 forward 7 unknown #
point $-1 -4 25 15 #
coedge $-1 $1039 $881 $877 $976 reversed $982 $-1 #
edge $-1 $977 -22 $883 22 $975 $1043 forward 7 unknown #
vertex $-1 $1040 $1044 #
straight-curve $-1 -1 22 5 0 0 -1 I I #
model_id-kcp-attrib $-1 $-1 $-1 $879 1 990548853 70 -1203372031 13 #
face $1045 $759 $982 $9 $-1 $1046 forward single #
plane-surface $-1 -1 0 5 1 0 0 0 0 -1 forward_v I I I I #
loop $-1 $-1 $1039 $980 #
ellipse-curve $-1 -4 -22 -10 0 0 1 2.1213203435596402 -2.1213203435596402 0 1 I I #
point $-1 -1 -22 -10 #
point $-1 -4 -25 -10 #
coedge $-1 $1047 $949 $890 $987 forward $990 $-1 #
edge $1048 $952 -10 $1021 10 $890 $1049 forward 7 unknown #
coedge $-1 $949 $892 $936 $1009 forward $990 $-1 #
coedge $-1 $892 $1047 $894 $995 forward $990 $-1 #
loop $-1 $-1 $949 $1013 #
attrib_edge_convexity-kcp-attrib $-1 $1050 $-1 $893 1 #
vertex $-1 $893 $1051 #
ellipse-curve $-1 -20 0 -15 0 0 1 -21.213203435596402 -21.213203435596402 0 1 I I #
coedge $-1 $895 $894 $941 $1017 reversed $896 $-1 #
edge $1052 $1053 -30 $897 20 $894 $1054 forward 7 unknown #
face $1055 $175 $896 $9 $-1 $1056 reversed single #
point $-1 -20 -30 -15 #
point $-1 -20 -30 15 #
point $-1 -20.000000000000014 -29.999999999999968 -15 #
point $-1 -20.000000000000014 30 -15 #
convexity-sys-attrib $-1 $-1 $-1 $920 #
straight-curve $-1 43.999999999999986 0 -10 0 -1 0 I I #
point $-1 43.999999999999986 -5 -10 #
convexity-sys-attrib $-1 $-1 $-1 $927 #
ellipse-curve $-1 23.999999999999986 -5 -10 0 0 -1 14.142135623730899 -14.142135623730899 0 1 I I #
point $-1 23.999999999999986 -25 -10 #
model_id-kcp-attrib $-1 $-1 $-1 $934 1 990548853 70 -1203372031 28 #
straight-curve $-1 0 -30 15 1 0 0 I I #
edge $1057 $992 -20 $955 30 $936 $1058 forward 7 unknown #
attrib_edge_convexity-kcp-attrib $-1 $1059 $-1 $937 3 #
straight-curve $-1 -20 30 0 0 0 -1 I I #
model_id-kcp-attrib $-1 $-1 $-1 $938 1 990548853 70 -1203372031 19 #
face $1060 $1018 $990 $9 $-1 $1061 reversed single #
plane-surface $-1 0 30 0 0 -1 0 0 0 -1 forward_v I I I I #
convexity-sys-attrib $-1 $-1 $939 $731 #
coedge $-1 $942 $941 $1047 $1062 forward $943 $-1 #
edge $-1 $944 -15 $1053 15 $994 $1063 forward 7 unknown #
face $1064 $996 $943 $9 $-1 $1065 forward single #
point $-1 30 -30 15 #
attrib_edge_convexity-kcp-attrib $-1 $1066 $-1 $946 3 #
vertex $-1 $987 $1067 #
straight-curve $-1 50 -10 0 0 0 1 I I #
convexity-sys-attrib $-1 $-1 $947 $734 #
attrib_edge_convexity-kcp-attrib $-1 $1068 $-1 $950 1 #
ellipse-curve $-1 30 10 -15 0 0 1 14.142135623730899 14.142135623730899 0 1 I I #
convexity-sys-attrib $-1 $-1 $951 $856 #
point $-1 50 10 -15 #
convexity-sys-attrib $-1 $-1 $954 $857 #
point $-1 30 30 -15 #
coedge $-1 $960 $959 $1069 $1070 forward $836 $-1 #
coedge $-1 $966 $1069 $962 $1032 forward $982 $-1 #
edge $-1 $1033 -2.3561944901923448 $968 0.78539816339744828 $1031 $1071 forward 7 unknown #
vertex $-1 $1032 $1072 #
straight-curve $-1 -19 25 5 0 0 -1 I I #
model_id-kcp-attrib $-1 $-1 $-1 $964 1 990548853 70 -1203372031 17 #
cone-surface $-1 -19 0 5 0 0 -1 -17.677669529663699 -17.677669529663699 0 1 I I 0 1 25.000000000000014 forward I I I I #
straight-curve $-1 1 -25 -10 -1 0 0 I I #
point $-1 -19 -25 -10 #
coedge $-1 $1069 $975 $972 $1040 forward $982 $-1 #
edge $-1 $977 -0.78539816339744828 $1041 0.78539816339744828 $1039 $1073 forward 7 unknown #
vertex $-1 $1070 $1074 #
straight-curve $-1 -4 25 5 0 0 1 I I #
straight-curve $-1 -1 0 -10 0 -1 0 I I #
point $-1 -1 22 -10 #
model_id-kcp-attrib $-1 $-1 $-1 $980 1 990548853 70 -1203372031 14 #
plane-surface $-1 1 0 -10 0 0 1 1 0 0 forward_v I I I I #
coedge $-1 $989 $986 $1016 $1062 reversed $990 $-1 #
attrib_edge_convexity-kcp-attrib $-1 $1075 $-1 $987 1 #
straight-curve $-1 50 0 -15 0 -1 0 I I #
convexity-sys-attrib $-1 $-1 $991 $893 #
point $-1 -20 30 -15 #
attrib_edge_convexity-kcp-attrib $-1 $1076 $-1 $995 1 #
vertex $-1 $1017 $1077 #
straight-curve $-1 0 -30 -15 -1 0 0 I I #
model_id-kcp-attrib $-1 $-1 $-1 $996 1 990548853 70 -1203372031 22 #
plane-surface $-1 0 -30 0 0 1 0 0 0 1 forward_v I I I I #
attrib_edge_convexity-kcp-attrib $-1 $1078 $-1 $1009 1 #
straight-curve $-1 0 30 -15 1 0 0 I I #
convexity-sys-attrib $-1 $-1 $1010 $937 #
model_id-kcp-attrib $-1 $1079 $-1 $1013 1 990548853 70 -1203372031 26 #
plane-surface $-1 0 0 -15 0 0 1 1 0 0 forward_v I I I I #
edge $1080 $1053 -0.78539816339744828 $1021 0.78539816339744828 $1047 $1081 forward 7 unknown #
straight-curve $-1 30 -30 0 0 0 -1 I I #
model_id-kcp-attrib $-1 $-1 $-1 $1018 1 990548853 70 -1203372031 21 #
cone-surface $-1 30 -10 0 0 0 -1 14.142135623730899 -14.142135623730899 0 1 I I 0 1 19.999999999999929 forward I I I I #
convexity-sys-attrib $-1 $-1 $1020 $946 #
point $-1 50 -10 -15 #
convexity-sys-attrib $-1 $-1 $1024 $950 #
coedge $-1 $1031 $1039 $1030 $1070 reversed $982 $-1 #
edge $-1 $1033 -20 $1041 -5 $1030 $1082 forward 7 unknown #
ellipse-curve $-1 -19 0 -10 0 0 1 -17.677669529663699 -17.677669529663699 0 1 I I #
point $-1 -19 25 -10 #
ellipse-curve $-1 -4 22 -10 0 0 1 2.1213203435596402 2.1213203435596402 0 1 I I #
point $-1 -4 25 -10 #
convexity-sys-attrib $-1 $-1 $1048 $987 #
convexity-sys-attrib $-1 $-1 $1052 $995 #
point $-1 30 -30 -15 #
convexity-sys-attrib $-1 $-1 $1057 $1009 #
model_id-kcp-attrib $-1 $-1 $1060 $1013 1 990548853 70 -1203372031 20 #
attrib_edge_convexity-kcp-attrib $-1 $1083 $-1 $1062 1 #
ellipse-curve $-1 30 -10 -15 0 0 1 14.142135623730899 -14.142135623730899 0 1 I I #
straight-curve $-1 1 25 -10 1 0 0 I I #
convexity-sys-attrib $-1 $-1 $1080 $1062 #
End-of-ACIS-data 