105 728 1 0                             
body $-1 $1 $-1 $-1 #
lump $-1 $-1 $2 $0 #
shell $-1 $-1 $-1 $3 $1 #
face $-1 $4 $5 $2 $-1 $6 forward single #
face $-1 $7 $8 $2 $-1 $9 forward single #
loop $-1 $-1 $10 $3 #
plane-surface $-1 32.5 0 27.9903810567666 -0.86602540378444 0 0.499999999999998 0.499999999999998 0 0.86602540378444 0 #
face $-1 $11 $12 $2 $-1 $13 forward single #
loop $-1 $-1 $14 $4 #
plane-surface $-1 -32.5 0 27.9903810567666 0.86602540378444 0 0.499999999999998 0.499999999999998 0 -0.86602540378444 0 #
coedge $-1 $15 $16 $17 $18 1 $5 $-1 #
face $-1 $19 $20 $2 $-1 $21 forward single #
loop $-1 $-1 $22 $7 #
plane-surface $-1 -1.13686837721616e-13 32.5 27.9903810567666 3.08086889333481e-15 -0.86602540378444 0.499999999999998 -1.77635683940025e-15 0.499999999999998 0.86602540378444 0 #
coedge $-1 $23 $24 $25 $26 1 $8 $-1 #
coedge $-1 $27 $10 $28 $29 1 $5 $-1 #
coedge $-1 $10 $27 $30 $31 1 $5 $-1 #
coedge $-1 $32 $33 $10 $18 0 $34 $-1 #
edge $-1 $35 $36 $17 $37 0 #
face $-1 $38 $39 $2 $-1 $21 forward single #
loop $-1 $-1 $40 $11 #
plane-surface $-1 1.17239551400417e-13 -32.5 27.9903810567666 -3.02535774210355e-15 0.86602540378444 0.499999999999998 -1.77635683940025e-15 0.499999999999998 -0.86602540378444 0 #
coedge $-1 $41 $42 $43 $44 1 $12 $-1 #
coedge $-1 $45 $14 $46 $47 1 $8 $-1 #
coedge $-1 $14 $45 $48 $49 1 $8 $-1 #
coedge $-1 $50 $51 $14 $26 0 $52 $-1 #
edge $-1 $53 $54 $25 $55 0 #
coedge $-1 $16 $15 $56 $57 1 $5 $-1 #
coedge $-1 $40 $58 $15 $29 0 $20 $-1 #
edge $-1 $59 $35 $15 $60 0 #
coedge $-1 $61 $62 $16 $31 0 $63 $-1 #
edge $-1 $36 $64 $30 $65 0 #
coedge $-1 $66 $17 $62 $67 0 $34 $-1 #
coedge $-1 $17 $66 $40 $68 0 $34 $-1 #
loop $-1 $-1 $17 $69 #
vertex $-1 $68 $70 #
vertex $-1 $31 $71 #
straight-curve $-1 30.7735026918962 0 25 0 -1 0 #
face $-1 $72 $73 $2 $-1 $13 forward single #
loop $-1 $-1 $74 $19 #
coedge $-1 $75 $28 $33 $68 1 $20 $-1 #
coedge $-1 $76 $22 $77 $78 0 $12 $-1 #
coedge $-1 $22 $76 $79 $80 1 $12 $-1 #
coedge $-1 $81 $82 $22 $44 0 $83 $-1 #
edge $-1 $84 $85 $43 $86 0 #
coedge $-1 $24 $23 $87 $88 1 $8 $-1 #
coedge $-1 $89 $90 $23 $47 0 $63 $-1 #
edge $-1 $91 $53 $46 $92 0 #
coedge $-1 $93 $74 $24 $49 0 $39 $-1 #
edge $-1 $54 $94 $24 $95 0 #
coedge $-1 $96 $25 $74 $97 0 $52 $-1 #
coedge $-1 $25 $96 $89 $98 0 $52 $-1 #
loop $-1 $-1 $25 $99 #
vertex $-1 $98 $100 #
vertex $-1 $97 $101 #
straight-curve $-1 -30.7735026918962 0 25 0 1 0 #
coedge $-1 $102 $103 $27 $57 0 $104 $-1 #
edge $-1 $64 $59 $56 $105 1 #
coedge $-1 $28 $75 $102 $106 1 $20 $-1 #
vertex $-1 $106 $107 #
straight-curve $-1 26.0000000000001 -26 16.732050807569 0.447213595499957 -0.447213595499955 0.774596669241486 #
coedge $-1 $108 $30 $103 $109 0 $63 $-1 #
coedge $-1 $30 $110 $32 $67 1 $63 $-1 #
loop $-1 $-1 $30 $111 #
vertex $-1 $31 $112 #
straight-curve $-1 22.3774047358084 -50 10.4575317547306 -0.499999999999998 0 -0.86602540378444 #
coedge $-1 $33 $32 $113 $114 0 $34 $-1 #
edge $-1 $36 $115 $62 $116 0 #
edge $-1 $117 $35 $33 $118 0 #
face $-1 $119 $34 $2 $-1 $120 forward single #
point $-1 30.7735026918962 -30.7735026918961 25 #
point $-1 30.7735026918962 -50 25 #
face $-1 $121 $122 $2 $-1 $6 forward single #
loop $-1 $-1 $123 $38 #
coedge $-1 $48 $124 $50 $97 1 $39 $-1 #
coedge $-1 $58 $40 $125 $126 1 $20 $-1 #
coedge $-1 $42 $41 $127 $128 1 $12 $-1 #
coedge $-1 $129 $130 $41 $78 1 $122 $-1 #
edge $-1 $84 $131 $77 $132 0 #
coedge $-1 $133 $134 $42 $80 0 $135 $-1 #
edge $-1 $85 $136 $79 $137 0 #
coedge $-1 $138 $43 $134 $139 0 $83 $-1 #
coedge $-1 $43 $138 $129 $140 0 $83 $-1 #
loop $-1 $-1 $82 $141 #
vertex $-1 $44 $142 #
vertex $-1 $80 $143 #
straight-curve $-1 -1.08510503302207e-13 30.7735026918962 25 1 3.55748096980959e-15 -0 #
coedge $-1 $144 $145 $45 $88 0 $146 $-1 #
edge $-1 $94 $91 $87 $147 1 #
coedge $-1 $148 $46 $51 $98 1 $63 $-1 #
coedge $-1 $46 $149 $144 $150 0 $63 $-1 #
vertex $-1 $47 $151 #
straight-curve $-1 -22.3774047358084 -50 10.4575317547306 -0.499999999999998 0 0.86602540378444 #
coedge $-1 $124 $48 $145 $152 1 $39 $-1 #
vertex $-1 $88 $153 #
straight-curve $-1 -26 -26.0000000000001 16.7320508075689 0.447213595499956 0.447213595499958 -0.774596669241485 #
coedge $-1 $51 $50 $154 $155 0 $52 $-1 #
edge $-1 $54 $156 $50 $157 0 #
edge $-1 $158 $53 $89 $116 0 #
face $-1 $141 $52 $2 $-1 $120 forward single #
point $-1 -30.7735026918962 -50 25 #
point $-1 -30.7735026918962 -30.7735026918963 25 #
coedge $-1 $159 $56 $58 $106 0 $104 $-1 #
coedge $-1 $56 $160 $61 $109 1 $104 $-1 #
loop $-1 $-1 $102 $161 #
straight-curve $-1 25 0 15 0 -1 0 #
edge $-1 $59 $162 $102 $163 1 #
point $-1 25 -24.9999999999999 15 #
coedge $-1 $164 $61 $165 $166 0 $63 $-1 #
edge $-1 $64 $167 $61 $168 0 #
coedge $-1 $62 $169 $170 $171 1 $63 $-1 #
face $-1 $99 $63 $2 $-1 $172 reversed single #
point $-1 25 -50 15 #
coedge $-1 $170 $125 $66 $114 1 $135 $-1 #
edge $-1 $115 $117 $113 $173 0 #
vertex $-1 $114 $174 #
straight-curve $-1 0 -50 25 1 0 0 #
vertex $-1 $114 $175 #
straight-curve $-1 1.09355921683204e-13 -30.7735026918962 25 -1 -3.4933822135968e-15 0 #
face $-1 $176 $177 $2 $-1 $120 forward single #
plane-surface $-1 0 0 25 0 0 1 1 0 0 0 #
face $-1 $111 $178 $2 $-1 $9 forward single #
loop $-1 $-1 $129 $72 #
coedge $-1 $179 $180 $181 $182 1 $73 $-1 #
coedge $-1 $74 $93 $183 $184 1 $39 $-1 #
coedge $-1 $113 $185 $75 $126 0 $135 $-1 #
edge $-1 $162 $117 $125 $186 0 #
coedge $-1 $187 $188 $76 $128 0 $189 $-1 #
edge $-1 $136 $131 $127 $190 1 #
coedge $-1 $191 $77 $82 $140 1 $122 $-1 #
coedge $-1 $77 $191 $187 $192 1 $122 $-1 #
vertex $-1 $192 $193 #
straight-curve $-1 26 26.0000000000001 16.7320508075688 -0.447213595499956 -0.447213595499958 -0.774596669241484 #
coedge $-1 $194 $79 $188 $195 0 $135 $-1 #
coedge $-1 $79 $196 $81 $139 1 $135 $-1 #
loop $-1 $-1 $125 $197 #
vertex $-1 $80 $198 #
straight-curve $-1 50 22.3774047358085 10.4575317547305 -0 -0.499999999999998 -0.86602540378444 #
coedge $-1 $82 $81 $199 $200 0 $83 $-1 #
edge $-1 $85 $201 $134 $173 0 #
edge $-1 $202 $84 $82 $203 0 #
face $-1 $204 $83 $2 $-1 $120 forward single #
point $-1 30.7735026918962 30.7735026918964 25 #
point $-1 50 30.7735026918964 25 #
coedge $-1 $205 $87 $90 $150 1 $146 $-1 #
coedge $-1 $87 $206 $93 $152 0 $146 $-1 #
loop $-1 $-1 $205 $207 #
straight-curve $-1 -25 0 15 0 1 0 #
coedge $-1 $169 $89 $208 $209 0 $63 $-1 #
coedge $-1 $90 $210 $211 $212 0 $63 $-1 #
edge $-1 $213 $91 $90 $214 0 #
point $-1 -25 -50 15 #
edge $-1 $215 $94 $145 $216 1 #
point $-1 -25 -25.0000000000001 15 #
coedge $-1 $183 $208 $96 $155 1 $217 $-1 #
edge $-1 $156 $158 $154 $218 0 #
vertex $-1 $97 $219 #
straight-curve $-1 1.09355921683204e-13 -30.7735026918962 25 -1 -3.4933822135968e-15 0 #
vertex $-1 $155 $220 #
coedge $-1 $221 $102 $185 $222 1 $104 $-1 #
coedge $-1 $103 $221 $223 $224 0 $104 $-1 #
face $-1 $225 $104 $2 $-1 $226 reversed single #
vertex $-1 $126 $227 #
straight-curve $-1 8.72870334710783e-14 -25 15 -1 -3.49148133884313e-15 0 #
coedge $-1 $228 $108 $229 $230 0 $63 $-1 #
coedge $-1 $223 $231 $108 $166 1 $232 $-1 #
edge $-1 $167 $233 $108 $234 0 #
vertex $-1 $109 $235 #
straight-curve $-1 0 -50 15 1 -0 0 #
coedge $-1 $110 $148 $236 $237 1 $63 $-1 #
coedge $-1 $238 $113 $110 $171 0 $135 $-1 #
edge $-1 $115 $239 $170 $240 0 #
plane-surface $-1 0 -50 0 0 1 -0 -0 0 1 0 #
straight-curve $-1 50 0 25 0 1 0 #
point $-1 50 -50 25 #
point $-1 50 -30.7735026918961 25 #
face $-1 $241 $242 $2 $-1 $243 reversed single #
loop $-1 $-1 $244 $119 #
loop $-1 $-1 $245 $121 #
coedge $-1 $246 $123 $247 $248 1 $73 $-1 #
coedge $-1 $123 $246 $249 $250 0 $73 $-1 #
coedge $-1 $244 $251 $123 $182 0 $177 $-1 #
edge $-1 $252 $253 $181 $254 0 #
coedge $-1 $255 $154 $124 $184 0 $217 $-1 #
edge $-1 $156 $215 $183 $256 0 #
coedge $-1 $125 $257 $159 $222 0 $135 $-1 #
straight-curve $-1 50 -22.3774047358082 10.4575317547306 0 -0.499999999999998 0.86602540378444 #
coedge $-1 $258 $127 $130 $192 0 $189 $-1 #
coedge $-1 $127 $259 $133 $195 1 $189 $-1 #
loop $-1 $-1 $260 $261 #
straight-curve $-1 -8.72870334710783e-14 25 15 1 3.49148133884313e-15 0 #
coedge $-1 $130 $129 $262 $263 1 $122 $-1 #
edge $-1 $131 $264 $187 $105 1 #
point $-1 25 25.0000000000001 15 #
coedge $-1 $265 $133 $266 $267 0 $135 $-1 #
edge $-1 $136 $268 $133 $269 0 #
coedge $-1 $134 $238 $270 $271 1 $135 $-1 #
face $-1 $69 $135 $2 $-1 $272 reversed single #
point $-1 49.9999999999999 25.0000000000002 15 #
coedge $-1 $270 $262 $138 $200 1 $273 $-1 #
edge $-1 $201 $202 $199 $274 0 #
vertex $-1 $139 $275 #
vertex $-1 $200 $276 #
straight-curve $-1 30.7735026918962 0 25 0 -1 0 #
face $-1 $277 $278 $2 $-1 $279 reversed single #
coedge $-1 $280 $144 $281 $282 0 $146 $-1 #
coedge $-1 $145 $280 $255 $283 1 $146 $-1 #
face $-1 $284 $146 $2 $-1 $226 reversed single #
coedge $-1 $154 $285 $148 $209 1 $217 $-1 #
edge $-1 $158 $286 $208 $287 0 #
coedge $-1 $149 $288 $289 $290 0 $63 $-1 #
coedge $-1 $291 $281 $149 $212 1 $292 $-1 #
edge $-1 $293 $213 $149 $294 0 #
vertex $-1 $150 $295 #
straight-curve $-1 0 -50 15 1 -0 0 #
vertex $-1 $184 $296 #
straight-curve $-1 8.72870334710783e-14 -25 15 -1 -3.49148133884313e-15 0 #
loop $-1 $-1 $183 $241 #
straight-curve $-1 -50 0 25 0 -1 0 #
point $-1 -49.9999999999999 -30.7735026918964 25 #
point $-1 -50 -50 25 #
coedge $-1 $160 $159 $297 $298 0 $104 $-1 #
edge $-1 $299 $162 $185 $300 0 #
coedge $-1 $301 $165 $160 $224 1 $232 $-1 #
edge $-1 $302 $167 $160 $303 0 #
face $-1 $304 $232 $2 $-1 $305 reversed single #
plane-surface $-1 0 0 15 0 0 1 1 0 0 0 #
point $-1 50.0000000000001 -24.9999999999998 15 #
coedge $-1 $306 $164 $307 $308 0 $63 $-1 #
coedge $-1 $309 $310 $164 $230 1 $311 $-1 #
edge $-1 $233 $312 $164 $313 0 #
coedge $-1 $165 $301 $309 $314 1 $232 $-1 #
loop $-1 $-1 $301 $225 #
vertex $-1 $166 $315 #
ellipse-curve $-1 30 -50 10 0 1 -0 3.53553390593274 0 3.53553390593274 1 #
point $-1 30 -50 15 #
coedge $-1 $316 $317 $169 $237 0 $242 $-1 #
edge $-1 $239 $286 $169 $318 0 #
coedge $-1 $196 $170 $317 $319 1 $135 $-1 #
vertex $-1 $171 $320 #
straight-curve $-1 50 -50 0 0 0 -1 #
face $-1 $321 $217 $2 $-1 $322 reversed single #
loop $-1 $-1 $317 $176 #
plane-surface $-1 0 0 -25 0 0 1 1 0 0 0 #
coedge $-1 $323 $181 $245 $324 0 $177 $-1 #
coedge $-1 $249 $325 $244 $324 1 $178 $-1 #
coedge $-1 $180 $179 $326 $327 1 $73 $-1 #
coedge $-1 $328 $329 $179 $248 0 $217 $-1 #
edge $-1 $330 $252 $247 $331 0 #
coedge $-1 $332 $245 $180 $250 1 $178 $-1 #
edge $-1 $333 $253 $249 $334 0 #
coedge $-1 $181 $323 $328 $335 0 $177 $-1 #
vertex $-1 $335 $336 #
vertex $-1 $182 $337 #
straight-curve $-1 -1.08510503302207e-13 30.7735026918962 25 1 3.55748096980959e-15 -0 #
coedge $-1 $338 $183 $206 $283 0 $217 $-1 #
straight-curve $-1 -50 -22.3774047358085 10.4575317547305 0 0.499999999999998 -0.86602540378444 #
coedge $-1 $185 $339 $340 $341 0 $135 $-1 #
coedge $-1 $260 $187 $342 $343 1 $189 $-1 #
coedge $-1 $188 $260 $344 $345 0 $189 $-1 #
coedge $-1 $259 $258 $346 $347 0 $189 $-1 #
face $-1 $161 $189 $2 $-1 $226 reversed single #
coedge $-1 $199 $342 $191 $263 0 $273 $-1 #
edge $-1 $264 $202 $262 $348 0 #
vertex $-1 $263 $349 #
coedge $-1 $350 $194 $351 $352 0 $135 $-1 #
coedge $-1 $344 $353 $194 $267 1 $278 $-1 #
edge $-1 $268 $354 $194 $355 0 #
vertex $-1 $267 $356 #
straight-curve $-1 50 0 15 0 1 -0 #
coedge $-1 $357 $199 $196 $271 0 $273 $-1 #
edge $-1 $201 $358 $196 $359 0 #
plane-surface $-1 50 0 0 -1 0 0 0 -0 1 0 #
loop $-1 $-1 $262 $321 #
straight-curve $-1 0 50 25 -1 0 0 #
point $-1 50 50 25 #
point $-1 30.7735026918962 50 25 #
face $-1 $360 $361 $2 $-1 $279 reversed single #
loop $-1 $-1 $362 $204 #
cone-surface $-1 -1.04744440165294e-13 30 10 -1 -3.49148133884313e-15 0 -1.23442506554113e-14 3.53553390593274 3.53553390593274 1 0 1 0 #
coedge $-1 $206 $205 $363 $364 0 $146 $-1 #
coedge $-1 $211 $365 $205 $282 1 $292 $-1 #
edge $-1 $213 $366 $205 $367 0 #
edge $-1 $215 $368 $255 $369 0 #
face $-1 $370 $371 $2 $-1 $226 reversed single #
coedge $-1 $208 $372 $316 $373 1 $217 $-1 #
vertex $-1 $373 $374 #
straight-curve $-1 -50 -50 0 0 0 -1 #
coedge $-1 $210 $306 $375 $376 0 $63 $-1 #
coedge $-1 $377 $378 $210 $290 1 $379 $-1 #
edge $-1 $380 $293 $210 $381 0 #
coedge $-1 $365 $211 $378 $382 1 $292 $-1 #
loop $-1 $-1 $365 $383 #
vertex $-1 $212 $384 #
ellipse-curve $-1 -30 -50 10 0 1 -0 -3.53553390593274 0 -3.53553390593274 1 #
point $-1 -30 -50 15 #
point $-1 -49.9999999999999 -25.0000000000002 15 #
coedge $-1 $340 $385 $221 $298 1 $386 $-1 #
edge $-1 $299 $302 $221 $387 0 #
vertex $-1 $341 $388 #
straight-curve $-1 50 0 15 0 1 -0 #
coedge $-1 $231 $223 $385 $389 1 $232 $-1 #
vertex $-1 $298 $390 #
straight-curve $-1 30 0 15 -0 -1 -0 #
face $-1 $391 $392 $2 $-1 $305 reversed single #
cone-surface $-1 30 0 10 0 1 0 3.53553390593274 0 3.53553390593274 1 0 1 0 #
coedge $-1 $288 $228 $393 $394 0 $63 $-1 #
coedge $-1 $395 $396 $228 $308 1 $397 $-1 #
edge $-1 $312 $398 $228 $399 0 #
coedge $-1 $400 $229 $231 $314 0 $311 $-1 #
coedge $-1 $229 $401 $395 $402 0 $311 $-1 #
loop $-1 $-1 $309 $403 #
vertex $-1 $230 $404 #
straight-curve $-1 0 -50 5 -1 0 0 #
edge $-1 $233 $405 $309 $406 0 #
point $-1 30 -50 5 #
coedge $-1 $407 $236 $285 $373 0 $242 $-1 #
coedge $-1 $236 $407 $238 $319 0 $242 $-1 #
straight-curve $-1 0 -50 -25 -1 0 0 #
edge $-1 $358 $239 $238 $408 0 #
point $-1 50 -50 -25 #
face $-1 $-1 $273 $2 $-1 $409 reversed single #
plane-surface $-1 -50 0 0 1 0 0 0 0 -1 0 #
coedge $-1 $251 $244 $410 $411 0 $177 $-1 #
edge $-1 $253 $412 $244 $413 0 #
coedge $-1 $245 $332 $414 $415 1 $178 $-1 #
coedge $-1 $416 $417 $246 $327 0 $371 $-1 #
edge $-1 $333 $330 $326 $418 1 #
coedge $-1 $372 $247 $251 $335 1 $217 $-1 #
coedge $-1 $247 $419 $416 $420 0 $217 $-1 #
vertex $-1 $248 $421 #
straight-curve $-1 -50 22.3774047358083 10.4575317547306 -0 0.499999999999998 0.86602540378444 #
coedge $-1 $325 $249 $417 $422 0 $178 $-1 #
vertex $-1 $327 $423 #
straight-curve $-1 -26 26 16.732050807569 -0.447213595499957 0.447213595499955 0.774596669241486 #
edge $-1 $424 $252 $328 $218 0 #
point $-1 -50.0000000000001 30.7735026918961 25 #
point $-1 -30.7735026918962 30.7735026918961 25 #
coedge $-1 $425 $255 $426 $427 0 $217 $-1 #
coedge $-1 $257 $428 $429 $430 0 $135 $-1 #
coedge $-1 $431 $297 $257 $341 1 $386 $-1 #
edge $-1 $432 $299 $257 $433 0 #
coedge $-1 $262 $434 $258 $343 0 $273 $-1 #
edge $-1 $435 $264 $342 $436 0 #
coedge $-1 $362 $266 $259 $345 1 $278 $-1 #
edge $-1 $437 $268 $259 $438 0 #
coedge $-1 $439 $440 $260 $347 1 $392 $-1 #
edge $-1 $435 $437 $260 $303 0 #
straight-curve $-1 22.3774047358084 50 10.4575317547306 0.499999999999998 0 0.86602540378444 #
point $-1 25 50 15 #
coedge $-1 $441 $265 $442 $443 0 $135 $-1 #
coedge $-1 $444 $445 $265 $352 1 $446 $-1 #
edge $-1 $354 $447 $265 $448 0 #
coedge $-1 $266 $362 $444 $449 1 $278 $-1 #
vertex $-1 $267 $450 #
ellipse-curve $-1 49.9999999999999 30.0000000000002 10 -1 0 0 -1.23442506554113e-14 3.53553390593274 3.53553390593274 1 #
point $-1 49.9999999999999 30.0000000000002 15 #
coedge $-1 $451 $270 $407 $452 1 $273 $-1 #
vertex $-1 $319 $453 #
straight-curve $-1 50 50 0 0 0 -1 #
face $-1 $454 $386 $2 $-1 $455 reversed single #
loop $-1 $-1 $456 $277 #
coedge $-1 $353 $344 $440 $457 0 $278 $-1 #
coedge $-1 $458 $426 $280 $364 1 $459 $-1 #
edge $-1 $366 $368 $280 $387 0 #
coedge $-1 $281 $291 $458 $460 1 $292 $-1 #
vertex $-1 $282 $461 #
straight-curve $-1 -30 0 15 0 1 0 #
vertex $-1 $427 $462 #
straight-curve $-1 -50 0 15 0 -1 0 #
face $-1 $383 $463 $2 $-1 $464 reversed single #
loop $-1 $-1 $326 $284 #
coedge $-1 $285 $328 $451 $465 0 $217 $-1 #
edge $-1 $286 $466 $285 $467 0 #
point $-1 -50 -50 -25 #
coedge $-1 $468 $469 $288 $376 1 $470 $-1 #
edge $-1 $471 $380 $288 $472 0 #
coedge $-1 $473 $289 $469 $474 0 $379 $-1 #
coedge $-1 $289 $475 $291 $382 0 $379 $-1 #
loop $-1 $-1 $473 $476 #
vertex $-1 $376 $477 #
straight-curve $-1 0 -50 5 -1 0 0 #
edge $-1 $478 $293 $378 $479 0 #
face $-1 $261 $292 $2 $-1 $464 reversed single #
point $-1 -30 -50 5 #
coedge $-1 $297 $431 $301 $389 0 $386 $-1 #
loop $-1 $-1 $385 $360 #
straight-curve $-1 1.04744440165294e-13 -30 15 -1 -3.49148133884313e-15 0 #
point $-1 50.0000000000001 -29.9999999999998 15 #
edge $-1 $405 $302 $301 $480 0 #
point $-1 30 -29.9999999999999 15 #
face $-1 $481 $482 $2 $-1 $483 forward single #
loop $-1 $-1 $440 $304 #
coedge $-1 $484 $485 $306 $394 1 $486 $-1 #
edge $-1 $398 $471 $306 $487 0 #
coedge $-1 $488 $307 $310 $402 1 $397 $-1 #
coedge $-1 $307 $488 $484 $489 0 $397 $-1 #
loop $-1 $-1 $488 $490 #
vertex $-1 $394 $491 #
straight-curve $-1 10 -50 0 -0 0 -1 #
coedge $-1 $429 $309 $431 $492 0 $311 $-1 #
coedge $-1 $310 $429 $493 $494 0 $311 $-1 #
edge $-1 $495 $312 $395 $496 1 #
face $-1 $497 $311 $2 $-1 $483 forward single #
point $-1 10 -50 5 #
vertex $-1 $314 $498 #
straight-curve $-1 30 0 5 0 1 0 #
coedge $-1 $317 $316 $357 $452 0 $242 $-1 #
straight-curve $-1 50 0 -25 0 -1 0 #
plane-surface $-1 0 50 0 0 -1 0 0 0 -1 0 #
coedge $-1 $414 $451 $323 $411 1 $273 $-1 #
edge $-1 $412 $424 $410 $274 0 #
vertex $-1 $324 $499 #
straight-curve $-1 -30.7735026918962 0 25 0 1 0 #
coedge $-1 $500 $410 $325 $415 0 $273 $-1 #
edge $-1 $412 $501 $414 $502 0 #
coedge $-1 $503 $326 $329 $420 1 $371 $-1 #
coedge $-1 $326 $504 $332 $422 1 $371 $-1 #
straight-curve $-1 -8.72870334710783e-14 25 15 1 3.49148133884313e-15 -0 #
coedge $-1 $329 $505 $506 $507 0 $217 $-1 #
edge $-1 $508 $330 $329 $509 0 #
point $-1 -50.0000000000001 24.9999999999998 15 #
edge $-1 $333 $501 $417 $147 0 #
point $-1 -25 24.9999999999999 15 #
vertex $-1 $411 $510 #
coedge $-1 $511 $338 $512 $513 0 $217 $-1 #
coedge $-1 $363 $514 $338 $427 1 $459 $-1 #
edge $-1 $368 $515 $338 $516 0 #
coedge $-1 $339 $441 $517 $518 0 $135 $-1 #
coedge $-1 $401 $400 $339 $430 1 $311 $-1 #
edge $-1 $519 $432 $339 $520 0 #
coedge $-1 $385 $340 $400 $492 1 $386 $-1 #
vertex $-1 $341 $521 #
ellipse-curve $-1 50.0000000000001 -29.9999999999998 10 -1 0 0 1.23442506554113e-14 -3.53553390593274 -3.53553390593274 1 #
coedge $-1 $342 $522 $439 $523 0 $273 $-1 #
vertex $-1 $343 $524 #
straight-curve $-1 0 50 15 -1 0 0 #
vertex $-1 $347 $525 #
straight-curve $-1 -1.04744440165294e-13 30 15 1 3.49148133884313e-15 -0 #
coedge $-1 $526 $346 $434 $523 1 $392 $-1 #
coedge $-1 $346 $526 $362 $457 1 $392 $-1 #
coedge $-1 $428 $350 $527 $528 0 $135 $-1 #
coedge $-1 $529 $530 $350 $443 1 $531 $-1 #
edge $-1 $447 $532 $350 $533 0 #
coedge $-1 $534 $351 $353 $449 0 $446 $-1 #
coedge $-1 $351 $535 $529 $536 1 $446 $-1 #
loop $-1 $-1 $445 $537 #
vertex $-1 $443 $538 #
straight-curve $-1 50 0 5 0 -1 0 #
edge $-1 $354 $539 $444 $540 0 #
point $-1 49.9999999999999 30.0000000000002 5 #
coedge $-1 $410 $357 $372 $465 1 $273 $-1 #
edge $-1 $466 $358 $357 $541 0 #
point $-1 50 50 -25 #
face $-1 $542 $531 $2 $-1 $543 forward single #
cone-surface $-1 1.04744440165294e-13 -30 10 -1 -3.49148133884313e-15 0 1.23442506554113e-14 -3.53553390593274 -3.53553390593274 1 0 1 0 #
coedge $-1 $544 $545 $546 $547 0 $361 $-1 #
edge $-1 $437 $539 $440 $548 0 #
coedge $-1 $514 $363 $365 $460 0 $459 $-1 #
loop $-1 $-1 $458 $549 #
edge $-1 $366 $478 $365 $550 0 #
point $-1 -30 -30.0000000000001 15 #
point $-1 -49.9999999999999 -30.0000000000002 15 #
loop $-1 $-1 $546 $370 #
cone-surface $-1 -30 0 10 0 1 0 -3.53553390593274 0 -3.53553390593274 1 0 1 0 #
edge $-1 $424 $466 $451 $551 0 #
vertex $-1 $452 $552 #
straight-curve $-1 -50 0 -25 0 1 0 #
coedge $-1 $553 $375 $485 $554 0 $470 $-1 #
coedge $-1 $375 $553 $377 $474 1 $470 $-1 #
loop $-1 $-1 $553 $555 #
vertex $-1 $376 $556 #
straight-curve $-1 -10 -50 0 -0 0 1 #
coedge $-1 $512 $377 $557 $558 1 $379 $-1 #
edge $-1 $380 $559 $469 $560 1 #
coedge $-1 $378 $512 $514 $561 0 $379 $-1 #
face $-1 $537 $379 $2 $-1 $483 forward single #
point $-1 -10 -50 5 #
vertex $-1 $561 $562 #
straight-curve $-1 -30 0 5 -0 -1 -0 #
ellipse-curve $-1 30 -29.9999999999999 10 -0.707106781186546 -0.707106781186548 0 5 -4.99999999999998 -4.44089209850063e-16 0.707106781186549 #
face $-1 $555 $563 $2 $-1 $564 forward single #
loop $-1 $-1 $565 $391 #
plane-surface $-1 0 0 5 0 0 1 1 0 0 0 #
coedge $-1 $566 $393 $396 $489 1 $486 $-1 #
coedge $-1 $393 $567 $468 $554 1 $486 $-1 #
loop $-1 $-1 $484 $497 #
straight-curve $-1 0 -50 -5 -1 0 0 #
coedge $-1 $396 $395 $568 $569 1 $397 $-1 #
edge $-1 $570 $398 $396 $571 0 #
face $-1 $572 $397 $2 $-1 $573 forward single #
point $-1 10 -50 -5 #
edge $-1 $405 $432 $400 $574 0 #
coedge $-1 $517 $568 $401 $494 1 $575 $-1 #
edge $-1 $519 $495 $493 $576 1 #
vertex $-1 $569 $577 #
straight-curve $-1 10 0 5 0 1 0 #
face $-1 $490 $486 $2 $-1 $578 forward single #
point $-1 30 -29.9999999999999 5 #
point $-1 -30.7735026918962 50 25 #
coedge $-1 $579 $414 $504 $580 0 $273 $-1 #
vertex $-1 $580 $581 #
straight-curve $-1 -22.3774047358084 50 10.4575317547306 0.499999999999998 0 -0.86602540378444 #
coedge $-1 $582 $416 $544 $583 0 $371 $-1 #
coedge $-1 $417 $582 $500 $580 1 $371 $-1 #
coedge $-1 $419 $584 $585 $586 0 $217 $-1 #
coedge $-1 $545 $544 $419 $507 1 $361 $-1 #
edge $-1 $587 $508 $419 $588 0 #
vertex $-1 $507 $589 #
straight-curve $-1 -50 0 15 0 -1 0 #
point $-1 -50 50 25 #
coedge $-1 $590 $425 $591 $592 0 $217 $-1 #
coedge $-1 $475 $473 $425 $513 1 $379 $-1 #
edge $-1 $515 $593 $425 $594 0 #
coedge $-1 $426 $458 $475 $561 1 $459 $-1 #
vertex $-1 $427 $595 #
ellipse-curve $-1 -49.9999999999999 -30.0000000000002 10 1 0 0 1.23442506554113e-14 -3.53553390593274 -3.53553390593274 1 #
coedge $-1 $596 $493 $428 $518 1 $575 $-1 #
edge $-1 $597 $519 $428 $598 0 #
vertex $-1 $518 $599 #
straight-curve $-1 50 0 5 0 -1 0 #
point $-1 50.0000000000001 -29.9999999999998 5 #
coedge $-1 $434 $600 $601 $602 0 $273 $-1 #
edge $-1 $603 $435 $434 $604 0 #
point $-1 30 50 15 #
point $-1 30 30.0000000000001 15 #
coedge $-1 $440 $439 $534 $605 1 $392 $-1 #
coedge $-1 $606 $566 $441 $528 1 $486 $-1 #
edge $-1 $532 $597 $441 $607 0 #
coedge $-1 $608 $442 $445 $536 0 $531 $-1 #
coedge $-1 $442 $608 $606 $609 0 $531 $-1 #
loop $-1 $-1 $608 $454 #
vertex $-1 $443 $610 #
straight-curve $-1 50 10.0000000000002 0 -0 -0 -1 #
coedge $-1 $601 $444 $526 $605 0 $446 $-1 #
coedge $-1 $445 $601 $611 $612 0 $446 $-1 #
edge $-1 $447 $613 $445 $614 0 #
face $-1 $197 $446 $2 $-1 $483 forward single #
point $-1 50 10.0000000000002 5 #
vertex $-1 $449 $615 #
straight-curve $-1 -1.04744440165294e-13 30 5 -1 -3.49148133884313e-15 0 #
straight-curve $-1 0 50 -25 1 0 0 #
face $-1 $616 $617 $2 $-1 $543 forward single #
plane-surface $-1 -3.49148133884313e-14 10 0 3.49148133884313e-15 -1 0 0 0 1 0 #
coedge $-1 $506 $456 $503 $583 1 $361 $-1 #
coedge $-1 $456 $506 $618 $619 1 $361 $-1 #
coedge $-1 $620 $621 $456 $547 1 $463 $-1 #
edge $-1 $622 $623 $546 $624 0 #
ellipse-curve $-1 30 30.0000000000001 10 -0.707106781186549 0.707106781186546 0 5 5.00000000000002 4.44089209850063e-16 0.707106781186546 #
face $-1 $625 $459 $2 $-1 $455 reversed single #
ellipse-curve $-1 -30 -30.0000000000001 10 0.707106781186548 -0.707106781186546 -0 -5 -5.00000000000002 -4.44089209850063e-16 0.707106781186546 #
straight-curve $-1 -50 50 0 0 0 -1 #
point $-1 -50 50 -25 #
coedge $-1 $469 $468 $626 $627 1 $470 $-1 #
edge $-1 $471 $628 $468 $629 0 #
face $-1 $403 $470 $2 $-1 $564 forward single #
point $-1 -10 -50 -5 #
coedge $-1 $626 $591 $473 $558 0 $630 $-1 #
edge $-1 $593 $559 $473 $631 0 #
vertex $-1 $474 $632 #
straight-curve $-1 -10 0 5 0 -1 0 #
edge $-1 $515 $478 $475 $574 0 #
point $-1 -30 -30.0000000000001 5 #
loop $-1 $-1 $633 $481 #
plane-surface $-1 -10 0 0 1 0 0 0 0 -1 0 #
coedge $-1 $618 $634 $620 $635 0 $482 $-1 #
coedge $-1 $527 $484 $596 $636 1 $486 $-1 #
coedge $-1 $485 $637 $638 $639 1 $486 $-1 #
coedge $-1 $493 $596 $488 $569 0 $575 $-1 #
edge $-1 $570 $495 $488 $640 0 #
vertex $-1 $489 $641 #
straight-curve $-1 10 0 -5 0 -1 0 #
face $-1 $476 $642 $2 $-1 $573 forward single #
plane-surface $-1 10 0 0 -1 0 0 0 -0 1 0 #
straight-curve $-1 1.04744440165294e-13 -30 5 1 3.49148133884313e-15 -0 #
loop $-1 $-1 $568 $616 #
straight-curve $-1 3.49148133884313e-14 -10 5 1 3.49148133884313e-15 0 #
point $-1 10 -9.99999999999996 5 #
plane-surface $-1 0 0 -5 0 0 1 1 0 0 0 #
coedge $-1 $643 $500 $644 $645 0 $273 $-1 #
edge $-1 $501 $646 $500 $647 0 #
point $-1 -25 50 15 #
coedge $-1 $504 $503 $621 $648 0 $371 $-1 #
edge $-1 $508 $623 $503 $438 0 #
coedge $-1 $505 $590 $649 $650 0 $217 $-1 #
coedge $-1 $651 $618 $505 $586 1 $482 $-1 #
edge $-1 $652 $587 $505 $653 0 #
vertex $-1 $507 $654 #
ellipse-curve $-1 -50.0000000000001 29.9999999999998 10 1 0 0 -1.23442506554113e-14 3.53553390593274 3.53553390593274 1 #
point $-1 -50.0000000000001 29.9999999999998 15 #
coedge $-1 $584 $511 $637 $655 0 $217 $-1 #
coedge $-1 $557 $638 $511 $592 1 $630 $-1 #
edge $-1 $593 $656 $511 $657 0 #
vertex $-1 $592 $658 #
straight-curve $-1 -50 0 5 0 1 0 #
point $-1 -49.9999999999999 -30.0000000000002 5 #
coedge $-1 $568 $517 $566 $636 0 $575 $-1 #
vertex $-1 $518 $659 #
straight-curve $-1 50 -9.99999999999983 0 0 0 1 #
point $-1 50 -9.99999999999983 5 #
coedge $-1 $522 $660 $661 $662 0 $273 $-1 #
coedge $-1 $535 $534 $522 $602 1 $446 $-1 #
edge $-1 $663 $603 $522 $664 0 #
vertex $-1 $523 $665 #
ellipse-curve $-1 30 50 10 0 -1 0 3.53553390593274 0 3.53553390593274 1 #
edge $-1 $539 $603 $534 $406 0 #
coedge $-1 $666 $527 $530 $609 1 $486 $-1 #
straight-curve $-1 50 0 -5 0 -1 0 #
coedge $-1 $530 $529 $667 $668 0 $531 $-1 #
edge $-1 $669 $532 $530 $670 0 #
point $-1 50 10.0000000000002 -5 #
coedge $-1 $661 $667 $535 $612 1 $642 $-1 #
edge $-1 $663 $613 $611 $496 1 #
vertex $-1 $612 $671 #
straight-curve $-1 -3.49148133884313e-14 10 5 -1 -3.49148133884313e-15 0 #
point $-1 30 30.0000000000001 5 #
face $-1 $549 $575 $2 $-1 $672 forward single #
loop $-1 $-1 $673 $542 #
coedge $-1 $585 $565 $545 $619 0 $482 $-1 #
edge $-1 $622 $587 $618 $540 0 #
coedge $-1 $644 $546 $565 $635 1 $463 $-1 #
coedge $-1 $546 $644 $582 $648 1 $463 $-1 #
vertex $-1 $635 $674 #
vertex $-1 $583 $675 #
ellipse-curve $-1 -30 29.9999999999999 10 0.707106781186546 0.707106781186549 -0 -5 4.99999999999998 4.44089209850063e-16 0.707106781186549 #
face $-1 $207 $630 $2 $-1 $672 forward single #
coedge $-1 $638 $557 $553 $627 0 $630 $-1 #
edge $-1 $559 $628 $553 $676 0 #
vertex $-1 $554 $677 #
straight-curve $-1 -10 0 -5 0 1 0 #
loop $-1 $-1 $626 $625 #
straight-curve $-1 3.49148133884313e-14 -10 5 1 3.49148133884313e-15 -0 #
point $-1 -10 -10 5 #
coedge $-1 $678 $679 $673 $680 1 $563 $-1 #
coedge $-1 $565 $681 $643 $682 1 $482 $-1 #
edge $-1 $683 $622 $565 $479 0 #
edge $-1 $597 $570 $596 $684 0 #
coedge $-1 $567 $685 $590 $655 1 $486 $-1 #
coedge $-1 $591 $626 $567 $639 0 $630 $-1 #
edge $-1 $628 $656 $638 $684 0 #
straight-curve $-1 10 -9.99999999999996 0 0 0 1 #
point $-1 10 -9.99999999999996 -5 #
loop $-1 $-1 $667 $572 #
coedge $-1 $686 $579 $634 $682 0 $273 $-1 #
coedge $-1 $621 $620 $579 $645 1 $463 $-1 #
edge $-1 $646 $683 $579 $687 0 #
vertex $-1 $580 $688 #
straight-curve $-1 0 50 15 -1 0 0 #
edge $-1 $623 $646 $582 $367 0 #
coedge $-1 $689 $690 $584 $650 1 $617 $-1 #
edge $-1 $691 $652 $584 $692 0 #
coedge $-1 $681 $585 $690 $693 0 $482 $-1 #
vertex $-1 $650 $694 #
straight-curve $-1 -50 0 5 0 1 0 #
point $-1 -50.0000000000001 29.9999999999998 5 #
edge $-1 $656 $691 $590 $695 0 #
vertex $-1 $592 $696 #
straight-curve $-1 -50 -10.0000000000002 0 0 0 -1 #
point $-1 -50 -10.0000000000002 5 #
point $-1 50 -9.99999999999983 -5 #
coedge $-1 $600 $686 $697 $698 0 $273 $-1 #
coedge $-1 $699 $611 $600 $662 1 $642 $-1 #
edge $-1 $700 $663 $600 $701 0 #
vertex $-1 $662 $702 #
straight-curve $-1 0 50 5 1 0 -0 #
point $-1 30 50 5 #
coedge $-1 $697 $606 $699 $703 1 $486 $-1 #
coedge $-1 $611 $699 $608 $668 1 $642 $-1 #
edge $-1 $613 $669 $667 $704 0 #
vertex $-1 $703 $705 #
straight-curve $-1 -3.49148133884313e-14 10 -5 1 3.49148133884313e-15 0 #
point $-1 10 10 5 #
plane-surface $-1 3.49148133884313e-14 -10 0 -3.49148133884313e-15 1 0 -0 0 -1 0 #
coedge $-1 $690 $689 $633 $680 0 $617 $-1 #
point $-1 -30 29.9999999999999 5 #
point $-1 -30 29.9999999999999 15 #
straight-curve $-1 -10 -10 0 0 0 -1 #
point $-1 -10 -10 -5 #
coedge $-1 $706 $633 $707 $708 0 $563 $-1 #
coedge $-1 $633 $706 $681 $709 1 $563 $-1 #
edge $-1 $710 $711 $633 $712 0 #
coedge $-1 $634 $651 $679 $709 0 $482 $-1 #
edge $-1 $683 $713 $643 $714 0 #
vertex $-1 $645 $715 #
straight-curve $-1 3.49148133884313e-14 -10 -5 -1 -3.49148133884313e-15 0 #
coedge $-1 $637 $707 $689 $716 1 $486 $-1 #
coedge $-1 $660 $643 $706 $717 0 $273 $-1 #
ellipse-curve $-1 -30 50 10 0 -1 0 -3.53553390593274 0 -3.53553390593274 1 #
point $-1 -30 50 15 #
coedge $-1 $673 $649 $685 $716 0 $617 $-1 #
coedge $-1 $649 $673 $651 $693 1 $617 $-1 #
vertex $-1 $650 $718 #
straight-curve $-1 -50 9.99999999999983 0 -0 0 1 #
edge $-1 $652 $711 $690 $719 1 #
point $-1 -50 9.99999999999983 5 #
straight-curve $-1 -50 0 -5 0 1 0 #
point $-1 -50 -10.0000000000002 -5 #
coedge $-1 $707 $666 $660 $698 1 $486 $-1 #
edge $-1 $720 $700 $660 $721 0 #
coedge $-1 $667 $661 $666 $703 0 $642 $-1 #
vertex $-1 $698 $722 #
straight-curve $-1 10 50 0 0 0 1 #
point $-1 10 50 5 #
edge $-1 $700 $669 $699 $571 0 #
straight-curve $-1 10 10 0 -0 -0 -1 #
point $-1 10 10 -5 #
coedge $-1 $679 $678 $686 $717 1 $563 $-1 #
coedge $-1 $685 $697 $678 $708 1 $486 $-1 #
edge $-1 $710 $720 $678 $629 0 #
edge $-1 $711 $713 $679 $560 1 #
vertex $-1 $708 $723 #
vertex $-1 $680 $724 #
straight-curve $-1 -10 9.99999999999996 0 -0 0 1 #
vertex $-1 $682 $725 #
straight-curve $-1 0 50 5 1 0 -0 #
point $-1 -30 50 5 #
edge $-1 $691 $710 $689 $670 0 #
edge $-1 $713 $720 $686 $726 0 #
point $-1 -50 9.99999999999983 -5 #
straight-curve $-1 -3.49148133884313e-14 10 5 -1 -3.49148133884313e-15 0 #
vertex $-1 $717 $727 #
straight-curve $-1 0 50 -5 1 0 -0 #
point $-1 10 50 -5 #
point $-1 -10 9.99999999999996 -5 #
point $-1 -10 9.99999999999996 5 #
point $-1 -10 50 5 #
straight-curve $-1 -10 50 0 0 0 -1 #
point $-1 -10 50 -5 #
